600 0 1 0           
77 GICL ACIS Healer - Source: /gicl/data5/repository/UMD/X2part/X2part.sat - 6 0 18 ACIS 6.0.3 Solaris 24 Sun Apr 14 00:34:53 2002 
1 9.999999999999999547e-07 1.000000000000000036e-10 
body $-1 $1 $-1 $-1 #
lump $-1 $-1 $2 $0 #
shell $-1 $-1 $-1 $3 $-1 $1 #
face $-1 $4 $5 $2 $-1 $6 forward single #
face $-1 $7 $8 $2 $-1 $9 forward single #
loop $-1 $-1 $10 $3 #
plane-surface $-1 32.5 0 27.99038105676660138 -0.8660254037844398178 0 0.4999999999999978906 0.4999999999999980016 0 0.8660254037844400399 forward_v I I I I #
face $-1 $11 $12 $2 $-1 $13 forward single #
loop $-1 $-1 $14 $4 #
plane-surface $-1 -32.5 0 27.99038105676660138 0.8660254037844398178 0 0.4999999999999978906 0.4999999999999980016 0 -0.8660254037844400399 forward_v I I I I #
coedge $-1 $15 $16 $17 $18 reversed $5 $-1 #
face $-1 $19 $20 $2 $-1 $21 forward single #
loop $-1 $-1 $22 $7 #
plane-surface $-1 -1.136868377216160045e-13 32.5 27.99038105676660138 3.0808688933348094e-15 -0.8660254037844398178 0.4999999999999978906 -1.77635683940025007e-15 0.4999999999999980016 0.8660254037844400399 forward_v I I I I #
coedge $-1 $23 $24 $25 $26 reversed $8 $-1 #
coedge $-1 $27 $10 $28 $29 reversed $5 $-1 #
coedge $-1 $10 $27 $30 $31 reversed $5 $-1 #
coedge $-1 $32 $33 $10 $18 forward $34 $-1 #
edge $-1 $35 30.77350269189609833 $36 50 $17 $37 forward 7 unknown #
face $-1 $38 $39 $2 $-1 $21 forward single #
loop $-1 $-1 $40 $11 #
plane-surface $-1 1.172395514004170103e-13 -32.5 27.99038105676660138 -3.025357742103549206e-15 0.8660254037844398178 0.4999999999999978906 -1.77635683940025007e-15 0.4999999999999980016 -0.8660254037844400399 forward_v I I I I #
coedge $-1 $41 $42 $43 $44 reversed $12 $-1 #
coedge $-1 $45 $14 $46 $47 reversed $8 $-1 #
coedge $-1 $14 $45 $48 $49 reversed $8 $-1 #
coedge $-1 $50 $51 $14 $26 forward $52 $-1 #
edge $-1 $53 -50 $54 -30.77350269189630083 $25 $55 forward 7 unknown #
coedge $-1 $16 $15 $56 $57 reversed $5 $-1 #
coedge $-1 $40 $58 $15 $29 forward $20 $-1 #
edge $-1 $59 -2.23606797749997277 $35 10.67387650985803127 $15 $60 forward 7 unknown #
coedge $-1 $61 $62 $16 $31 forward $63 $-1 #
edge $-1 $36 -16.7921959121757034 $64 -5.24519052838322164 $30 $65 forward 7 unknown #
coedge $-1 $66 $17 $62 $67 forward $34 $-1 #
coedge $-1 $17 $66 $40 $68 forward $34 $-1 #
loop $-1 $-1 $17 $69 #
vertex $-1 $68 $70 #
vertex $-1 $31 $71 #
straight-curve $-1 30.77350269189620136 0 25 0 -1 0 I I #
face $-1 $72 $73 $2 $-1 $13 forward single #
loop $-1 $-1 $74 $19 #
coedge $-1 $75 $28 $33 $68 reversed $20 $-1 #
coedge $-1 $76 $22 $77 $78 forward $12 $-1 #
coedge $-1 $22 $76 $79 $80 reversed $12 $-1 #
coedge $-1 $81 $82 $22 $44 forward $83 $-1 #
edge $-1 $84 30.77350269189631149 $85 50.00000000000010658 $43 $86 forward 7 unknown #
coedge $-1 $24 $23 $87 $88 reversed $8 $-1 #
coedge $-1 $89 $90 $23 $47 forward $63 $-1 #
edge $-1 $91 5.24519052838322164 $53 16.7921959121757034 $46 $92 forward 7 unknown #
coedge $-1 $93 $74 $24 $49 forward $39 $-1 #
edge $-1 $54 -10.67387650985819825 $94 2.236067977499807125 $24 $95 forward 7 unknown #
coedge $-1 $96 $25 $74 $97 forward $52 $-1 #
coedge $-1 $25 $96 $89 $98 forward $52 $-1 #
loop $-1 $-1 $25 $99 #
vertex $-1 $98 $100 #
vertex $-1 $97 $101 #
straight-curve $-1 -30.77350269189620136 0 25 0 1 0 I I #
coedge $-1 $102 $103 $27 $57 forward $104 $-1 #
edge $-1 $64 -50 $59 -24.99999999999990052 $56 $105 reversed 7 unknown #
coedge $-1 $28 $75 $102 $106 reversed $20 $-1 #
vertex $-1 $106 $107 #
straight-curve $-1 26.00000000000009948 -26 16.73205080756899932 0.447213595499956984 -0.4472135954999549856 0.7745966692414859578 I I #
coedge $-1 $108 $30 $103 $109 forward $63 $-1 #
coedge $-1 $30 $110 $32 $67 reversed $63 $-1 #
loop $-1 $-1 $30 $111 #
vertex $-1 $31 $112 #
straight-curve $-1 22.37740473580840117 -50 10.45753175473059926 -0.4999999999999980016 0 -0.8660254037844400399 I I #
coedge $-1 $33 $32 $113 $114 forward $34 $-1 #
edge $-1 $36 30.77350269189620136 $115 50 $62 $116 forward 7 unknown #
edge $-1 $117 -49.99999999999989342 $35 -30.77350269189609122 $33 $118 forward 7 unknown #
face $-1 $119 $34 $2 $-1 $120 forward single #
point $-1 30.77350269189620136 -30.77350269189609833 25 #
point $-1 30.77350269189620136 -50 25 #
face $-1 $121 $122 $2 $-1 $6 forward single #
loop $-1 $-1 $123 $38 #
coedge $-1 $48 $124 $50 $97 reversed $39 $-1 #
coedge $-1 $58 $40 $125 $126 reversed $20 $-1 #
coedge $-1 $42 $41 $127 $128 reversed $12 $-1 #
coedge $-1 $129 $130 $41 $78 reversed $122 $-1 #
edge $-1 $84 -10.67387650985832614 $131 2.236067977499731185 $77 $132 forward 7 unknown #
coedge $-1 $133 $134 $42 $80 forward $135 $-1 #
edge $-1 $85 -16.79219591217584195 $136 -5.245190528383357531 $79 $137 forward 7 unknown #
coedge $-1 $138 $43 $134 $139 forward $83 $-1 #
coedge $-1 $43 $138 $129 $140 forward $83 $-1 #
loop $-1 $-1 $82 $141 #
vertex $-1 $44 $142 #
vertex $-1 $80 $143 #
straight-curve $-1 -1.085105033022069968e-13 30.77350269189620136 25 1 3.557480969809589683e-15 -0 I I #
coedge $-1 $144 $145 $45 $88 forward $146 $-1 #
edge $-1 $94 25.00000000000009948 $91 50 $87 $147 reversed 7 unknown #
coedge $-1 $148 $46 $51 $98 reversed $63 $-1 #
coedge $-1 $46 $149 $144 $150 forward $63 $-1 #
vertex $-1 $47 $151 #
straight-curve $-1 -22.37740473580840117 -50 10.45753175473059926 -0.4999999999999980016 0 0.8660254037844400399 I I #
coedge $-1 $124 $48 $145 $152 reversed $39 $-1 #
vertex $-1 $88 $153 #
straight-curve $-1 -26 -26.00000000000009948 16.73205080756889984 0.4472135954999559848 0.4472135954999579832 -0.7745966692414849586 I I #
coedge $-1 $51 $50 $154 $155 forward $52 $-1 #
edge $-1 $54 30.77350269189631149 $156 50.00000000000000711 $50 $157 forward 7 unknown #
edge $-1 $158 -50 $53 -30.77350269189620136 $89 $116 forward 7 unknown #
face $-1 $141 $52 $2 $-1 $120 forward single #
point $-1 -30.77350269189620136 -50 25 #
point $-1 -30.77350269189620136 -30.77350269189630083 25 #
coedge $-1 $159 $56 $58 $106 forward $104 $-1 #
coedge $-1 $56 $160 $61 $109 reversed $104 $-1 #
loop $-1 $-1 $102 $161 #
straight-curve $-1 25 0 15 0 -1 0 I I #
edge $-1 $59 24.99999999999991118 $162 50.00000000000001421 $102 $163 reversed 7 unknown #
point $-1 25 -24.99999999999990052 15 #
coedge $-1 $164 $61 $165 $166 forward $63 $-1 #
edge $-1 $64 25 $167 30 $61 $168 forward 7 unknown #
coedge $-1 $62 $169 $170 $171 reversed $63 $-1 #
face $-1 $99 $63 $2 $-1 $172 reversed single #
point $-1 25 -50 15 #
coedge $-1 $170 $125 $66 $114 reversed $135 $-1 #
edge $-1 $115 -50 $117 -30.77350269189609833 $113 $173 forward 7 unknown #
vertex $-1 $114 $174 #
straight-curve $-1 0 -50 25 1 0 0 I I #
vertex $-1 $114 $175 #
straight-curve $-1 1.093559216832040023e-13 -30.77350269189620136 25 -1 -3.493382213596799834e-15 0 I I #
face $-1 $176 $177 $2 $-1 $120 forward single #
plane-surface $-1 0 0 25 0 0 1 1 0 0 forward_v I I I I #
face $-1 $111 $178 $2 $-1 $9 forward single #
loop $-1 $-1 $129 $72 #
coedge $-1 $179 $180 $181 $182 reversed $73 $-1 #
coedge $-1 $74 $93 $183 $184 reversed $39 $-1 #
coedge $-1 $113 $185 $75 $126 forward $135 $-1 #
edge $-1 $162 5.245190528383223416 $117 16.79219591217575314 $125 $186 forward 7 unknown #
coedge $-1 $187 $188 $76 $128 forward $189 $-1 #
edge $-1 $136 -49.99999999999998579 $131 -25.00000000000008882 $127 $190 reversed 7 unknown #
coedge $-1 $191 $77 $82 $140 reversed $122 $-1 #
coedge $-1 $77 $191 $187 $192 reversed $122 $-1 #
vertex $-1 $192 $193 #
straight-curve $-1 26 26.00000000000009948 16.73205080756880037 -0.4472135954999559848 -0.4472135954999579832 -0.7745966692414839594 I I #
coedge $-1 $194 $79 $188 $195 forward $135 $-1 #
coedge $-1 $79 $196 $81 $139 reversed $135 $-1 #
loop $-1 $-1 $125 $197 #
vertex $-1 $80 $198 #
straight-curve $-1 50 22.37740473580850065 10.45753175473049978 -0 -0.4999999999999980016 -0.8660254037844400399 I I #
coedge $-1 $82 $81 $199 $200 forward $83 $-1 #
edge $-1 $85 30.77350269189640031 $201 50 $134 $173 forward 7 unknown #
edge $-1 $202 -50 $84 -30.77350269189640031 $82 $203 forward 7 unknown #
face $-1 $204 $83 $2 $-1 $120 forward single #
point $-1 30.77350269189620136 30.77350269189640031 25 #
point $-1 50 30.77350269189640031 25 #
coedge $-1 $205 $87 $90 $150 reversed $146 $-1 #
coedge $-1 $87 $206 $93 $152 forward $146 $-1 #
loop $-1 $-1 $205 $207 #
straight-curve $-1 -25 0 15 0 1 0 I I #
coedge $-1 $169 $89 $208 $209 forward $63 $-1 #
coedge $-1 $90 $210 $211 $212 forward $63 $-1 #
edge $-1 $213 -30 $91 -25 $90 $214 forward 7 unknown #
point $-1 -25 -50 15 #
edge $-1 $215 -49.99999999999998579 $94 -25.00000000000008882 $145 $216 reversed 7 unknown #
point $-1 -25 -25.00000000000009948 15 #
coedge $-1 $183 $208 $96 $155 reversed $217 $-1 #
edge $-1 $156 30.77350269189640031 $158 50 $154 $218 forward 7 unknown #
vertex $-1 $97 $219 #
straight-curve $-1 1.093559216832040023e-13 -30.77350269189620136 25 -1 -3.493382213596799834e-15 0 I I #
vertex $-1 $155 $220 #
coedge $-1 $221 $102 $185 $222 reversed $104 $-1 #
coedge $-1 $103 $221 $223 $224 forward $104 $-1 #
face $-1 $225 $104 $2 $-1 $226 reversed single #
vertex $-1 $126 $227 #
straight-curve $-1 8.728703347107829602e-14 -25 15 -1 -3.491481338843129805e-15 0 I I #
coedge $-1 $228 $108 $229 $230 forward $63 $-1 #
coedge $-1 $223 $231 $108 $166 reversed $232 $-1 #
edge $-1 $167 -0.785398163397448279 $233 2.356194490192344837 $108 $234 forward 7 unknown #
vertex $-1 $109 $235 #
straight-curve $-1 0 -50 15 1 -0 0 I I #
coedge $-1 $110 $148 $236 $237 reversed $63 $-1 #
coedge $-1 $238 $113 $110 $171 forward $135 $-1 #
edge $-1 $115 -25 $239 25 $170 $240 forward 7 unknown #
plane-surface $-1 0 -50 0 0 1 -0 -0 0 1 forward_v I I I I #
straight-curve $-1 50 0 25 0 1 0 I I #
point $-1 50 -50 25 #
point $-1 50 -30.77350269189609833 25 #
face $-1 $241 $242 $2 $-1 $243 reversed single #
loop $-1 $-1 $244 $119 #
loop $-1 $-1 $245 $121 #
coedge $-1 $246 $123 $247 $248 reversed $73 $-1 #
coedge $-1 $123 $246 $249 $250 forward $73 $-1 #
coedge $-1 $244 $251 $123 $182 forward $177 $-1 #
edge $-1 $252 -49.99999999999999289 $253 -30.77350269189609122 $181 $254 forward 7 unknown #
coedge $-1 $255 $154 $124 $184 forward $217 $-1 #
edge $-1 $156 -16.79219591217584195 $215 -5.245190528383357531 $183 $256 forward 7 unknown #
coedge $-1 $125 $257 $159 $222 forward $135 $-1 #
straight-curve $-1 50 -22.37740473580819867 10.45753175473059926 0 -0.4999999999999980016 0.8660254037844400399 I I #
coedge $-1 $258 $127 $130 $192 forward $189 $-1 #
coedge $-1 $127 $259 $133 $195 reversed $189 $-1 #
loop $-1 $-1 $260 $261 #
straight-curve $-1 -8.728703347107829602e-14 25 15 1 3.491481338843129805e-15 0 I I #
coedge $-1 $130 $129 $262 $263 reversed $122 $-1 #
edge $-1 $131 25.00000000000009948 $264 50 $187 $105 reversed 7 unknown #
point $-1 25 25.00000000000009948 15 #
coedge $-1 $265 $133 $266 $267 forward $135 $-1 #
edge $-1 $136 25.00000000000019895 $268 30.00000000000019895 $133 $269 forward 7 unknown #
coedge $-1 $134 $238 $270 $271 reversed $135 $-1 #
face $-1 $69 $135 $2 $-1 $272 reversed single #
point $-1 49.99999999999990052 25.00000000000019895 15 #
coedge $-1 $270 $262 $138 $200 reversed $273 $-1 #
edge $-1 $201 -50 $202 -30.77350269189620136 $199 $274 forward 7 unknown #
vertex $-1 $139 $275 #
vertex $-1 $200 $276 #
straight-curve $-1 30.77350269189620136 0 25 0 -1 0 I I #
face $-1 $277 $278 $2 $-1 $279 reversed single #
coedge $-1 $280 $144 $281 $282 forward $146 $-1 #
coedge $-1 $145 $280 $255 $283 reversed $146 $-1 #
face $-1 $284 $146 $2 $-1 $226 reversed single #
coedge $-1 $154 $285 $148 $209 reversed $217 $-1 #
edge $-1 $158 -25 $286 25 $208 $287 forward 7 unknown #
coedge $-1 $149 $288 $289 $290 forward $63 $-1 #
coedge $-1 $291 $281 $149 $212 reversed $292 $-1 #
edge $-1 $293 -0.785398163397448279 $213 2.356194490192344837 $149 $294 forward 7 unknown #
vertex $-1 $150 $295 #
straight-curve $-1 0 -50 15 1 -0 0 I I #
vertex $-1 $184 $296 #
straight-curve $-1 8.728703347107829602e-14 -25 15 -1 -3.491481338843129805e-15 0 I I #
loop $-1 $-1 $183 $241 #
straight-curve $-1 -50 0 25 0 -1 0 I I #
point $-1 -49.99999999999990052 -30.77350269189640031 25 #
point $-1 -50 -50 25 #
coedge $-1 $160 $159 $297 $298 forward $104 $-1 #
edge $-1 $299 -29.99999999999980105 $162 -24.99999999999980105 $185 $300 forward 7 unknown #
coedge $-1 $301 $165 $160 $224 reversed $232 $-1 #
edge $-1 $302 29.99999999999990052 $167 50 $160 $303 forward 7 unknown #
face $-1 $304 $232 $2 $-1 $305 reversed single #
plane-surface $-1 0 0 15 0 0 1 1 0 0 forward_v I I I I #
point $-1 50.00000000000009948 -24.99999999999980105 15 #
coedge $-1 $306 $164 $307 $308 forward $63 $-1 #
coedge $-1 $309 $310 $164 $230 reversed $311 $-1 #
edge $-1 $233 -30 $312 -10 $164 $313 forward 7 unknown #
coedge $-1 $165 $301 $309 $314 reversed $232 $-1 #
loop $-1 $-1 $301 $225 #
vertex $-1 $166 $315 #
ellipse-curve $-1 30 -50 10 0 1 -0 3.535533905932739973 0 3.535533905932739973 1 I I #
point $-1 30 -50 15 #
coedge $-1 $316 $317 $169 $237 forward $242 $-1 #
edge $-1 $239 -50 $286 50 $169 $318 forward 7 unknown #
coedge $-1 $196 $170 $317 $319 reversed $135 $-1 #
vertex $-1 $171 $320 #
straight-curve $-1 50 -50 0 0 0 -1 I I #
face $-1 $321 $217 $2 $-1 $322 reversed single #
loop $-1 $-1 $317 $176 #
plane-surface $-1 0 0 -25 0 0 1 1 0 0 forward_v I I I I #
coedge $-1 $323 $181 $245 $324 forward $177 $-1 #
coedge $-1 $249 $325 $244 $324 reversed $178 $-1 #
coedge $-1 $180 $179 $326 $327 reversed $73 $-1 #
coedge $-1 $328 $329 $179 $248 forward $217 $-1 #
edge $-1 $330 5.245190528383171902 $252 16.7921959121757034 $247 $331 forward 7 unknown #
coedge $-1 $332 $245 $180 $250 reversed $178 $-1 #
edge $-1 $333 -2.236067977499927917 $253 10.6738765098580739 $249 $334 forward 7 unknown #
coedge $-1 $181 $323 $328 $335 forward $177 $-1 #
vertex $-1 $335 $336 #
vertex $-1 $182 $337 #
straight-curve $-1 -1.085105033022069968e-13 30.77350269189620136 25 1 3.557480969809589683e-15 -0 I I #
coedge $-1 $338 $183 $206 $283 forward $217 $-1 #
straight-curve $-1 -50 -22.37740473580850065 10.45753175473049978 0 0.4999999999999980016 -0.8660254037844400399 I I #
coedge $-1 $185 $339 $340 $341 forward $135 $-1 #
coedge $-1 $260 $187 $342 $343 reversed $189 $-1 #
coedge $-1 $188 $260 $344 $345 forward $189 $-1 #
coedge $-1 $259 $258 $346 $347 forward $189 $-1 #
face $-1 $161 $189 $2 $-1 $226 reversed single #
coedge $-1 $199 $342 $191 $263 forward $273 $-1 #
edge $-1 $264 5.24519052838322164 $202 16.7921959121757034 $262 $348 forward 7 unknown #
vertex $-1 $263 $349 #
coedge $-1 $350 $194 $351 $352 forward $135 $-1 #
coedge $-1 $344 $353 $194 $267 reversed $278 $-1 #
edge $-1 $268 -0.785398163397448279 $354 2.356194490192344837 $194 $355 forward 7 unknown #
vertex $-1 $267 $356 #
straight-curve $-1 50 0 15 0 1 -0 I I #
coedge $-1 $357 $199 $196 $271 forward $273 $-1 #
edge $-1 $201 -25 $358 25 $196 $359 forward 7 unknown #
plane-surface $-1 50 0 0 -1 0 0 0 -0 1 forward_v I I I I #
loop $-1 $-1 $262 $321 #
straight-curve $-1 0 50 25 -1 0 0 I I #
point $-1 50 50 25 #
point $-1 30.77350269189620136 50 25 #
face $-1 $360 $361 $2 $-1 $279 reversed single #
loop $-1 $-1 $362 $204 #
cone-surface $-1 -1.047444401652940007e-13 30 10 -1 -3.491481338843129805e-15 0 -1.23442506554112995e-14 3.535533905932739973 3.535533905932739973 1 I I 0 1 5.000000000000003553 forward I I I I #
coedge $-1 $206 $205 $363 $364 forward $146 $-1 #
coedge $-1 $211 $365 $205 $282 reversed $292 $-1 #
edge $-1 $213 -50 $366 -30.00000000000009948 $205 $367 forward 7 unknown #
edge $-1 $215 25.00000000000019895 $368 30.00000000000019895 $255 $369 forward 7 unknown #
face $-1 $370 $371 $2 $-1 $226 reversed single #
coedge $-1 $208 $372 $316 $373 reversed $217 $-1 #
vertex $-1 $373 $374 #
straight-curve $-1 -50 -50 0 0 0 -1 I I #
coedge $-1 $210 $306 $375 $376 forward $63 $-1 #
coedge $-1 $377 $378 $210 $290 reversed $379 $-1 #
edge $-1 $380 10 $293 30 $210 $381 forward 7 unknown #
coedge $-1 $365 $211 $378 $382 reversed $292 $-1 #
loop $-1 $-1 $365 $383 #
vertex $-1 $212 $384 #
ellipse-curve $-1 -30 -50 10 0 1 -0 -3.535533905932739973 0 -3.535533905932739973 1 I I #
point $-1 -30 -50 15 #
point $-1 -49.99999999999990052 -25.00000000000019895 15 #
coedge $-1 $340 $385 $221 $298 reversed $386 $-1 #
edge $-1 $299 -49.99999999999999289 $302 -29.99999999999989697 $221 $387 forward 7 unknown #
vertex $-1 $341 $388 #
straight-curve $-1 50 0 15 0 1 -0 I I #
coedge $-1 $231 $223 $385 $389 reversed $232 $-1 #
vertex $-1 $298 $390 #
straight-curve $-1 30 0 15 -0 -1 -0 I I #
face $-1 $391 $392 $2 $-1 $305 reversed single #
cone-surface $-1 30 0 10 0 1 0 3.535533905932739973 0 3.535533905932739973 1 I I 0 1 5.000000000000003553 forward I I I I #
coedge $-1 $288 $228 $393 $394 forward $63 $-1 #
coedge $-1 $395 $396 $228 $308 reversed $397 $-1 #
edge $-1 $312 -5 $398 5 $228 $399 forward 7 unknown #
coedge $-1 $400 $229 $231 $314 forward $311 $-1 #
coedge $-1 $229 $401 $395 $402 forward $311 $-1 #
loop $-1 $-1 $309 $403 #
vertex $-1 $230 $404 #
straight-curve $-1 0 -50 5 -1 0 0 I I #
edge $-1 $233 -50 $405 -29.99999999999990052 $309 $406 forward 7 unknown #
point $-1 30 -50 5 #
coedge $-1 $407 $236 $285 $373 forward $242 $-1 #
coedge $-1 $236 $407 $238 $319 forward $242 $-1 #
straight-curve $-1 0 -50 -25 -1 0 0 I I #
edge $-1 $358 -50 $239 50 $238 $408 forward 7 unknown #
point $-1 50 -50 -25 #
face $-1 $-1 $273 $2 $-1 $409 reversed single #
plane-surface $-1 -50 0 0 1 0 0 0 0 -1 forward_v I I I I #
coedge $-1 $251 $244 $410 $411 forward $177 $-1 #
edge $-1 $253 30.77350269189609833 $412 50 $244 $413 forward 7 unknown #
coedge $-1 $245 $332 $414 $415 reversed $178 $-1 #
coedge $-1 $416 $417 $246 $327 forward $371 $-1 #
edge $-1 $333 24.99999999999991118 $330 50.00000000000001421 $326 $418 reversed 7 unknown #
coedge $-1 $372 $247 $251 $335 reversed $217 $-1 #
coedge $-1 $247 $419 $416 $420 forward $217 $-1 #
vertex $-1 $248 $421 #
straight-curve $-1 -50 22.37740473580830169 10.45753175473059926 -0 0.4999999999999980016 0.8660254037844400399 I I #
coedge $-1 $325 $249 $417 $422 forward $178 $-1 #
vertex $-1 $327 $423 #
straight-curve $-1 -26 26 16.73205080756899932 -0.447213595499956984 0.4472135954999549856 0.7745966692414859578 I I #
edge $-1 $424 -50 $252 -30.77350269189609833 $328 $218 forward 7 unknown #
point $-1 -50.00000000000009948 30.77350269189609833 25 #
point $-1 -30.77350269189620136 30.77350269189609833 25 #
coedge $-1 $425 $255 $426 $427 forward $217 $-1 #
coedge $-1 $257 $428 $429 $430 forward $135 $-1 #
coedge $-1 $431 $297 $257 $341 reversed $386 $-1 #
edge $-1 $432 -0.785398163397448279 $299 2.356194490192344837 $257 $433 forward 7 unknown #
coedge $-1 $262 $434 $258 $343 forward $273 $-1 #
edge $-1 $435 -30 $264 -25 $342 $436 forward 7 unknown #
coedge $-1 $362 $266 $259 $345 reversed $278 $-1 #
edge $-1 $437 30.00000000000010303 $268 50.00000000000000711 $259 $438 forward 7 unknown #
coedge $-1 $439 $440 $260 $347 reversed $392 $-1 #
edge $-1 $435 -50 $437 -30.00000000000009948 $260 $303 forward 7 unknown #
straight-curve $-1 22.37740473580840117 50 10.45753175473059926 0.4999999999999980016 0 0.8660254037844400399 I I #
point $-1 25 50 15 #
coedge $-1 $441 $265 $442 $443 forward $135 $-1 #
coedge $-1 $444 $445 $265 $352 reversed $446 $-1 #
edge $-1 $354 -30.00000000000019895 $447 -10.00000000000020073 $265 $448 forward 7 unknown #
coedge $-1 $266 $362 $444 $449 reversed $278 $-1 #
vertex $-1 $267 $450 #
ellipse-curve $-1 49.99999999999990052 30.00000000000019895 10 -1 0 0 -1.23442506554112995e-14 3.535533905932739973 3.535533905932739973 1 I I #
point $-1 49.99999999999990052 30.00000000000019895 15 #
coedge $-1 $451 $270 $407 $452 reversed $273 $-1 #
vertex $-1 $319 $453 #
straight-curve $-1 50 50 0 0 0 -1 I I #
face $-1 $454 $386 $2 $-1 $455 reversed single #
loop $-1 $-1 $456 $277 #
coedge $-1 $353 $344 $440 $457 forward $278 $-1 #
coedge $-1 $458 $426 $280 $364 reversed $459 $-1 #
edge $-1 $366 30.00000000000010303 $368 50.00000000000000711 $280 $387 forward 7 unknown #
coedge $-1 $281 $291 $458 $460 reversed $292 $-1 #
vertex $-1 $282 $461 #
straight-curve $-1 -30 0 15 0 1 0 I I #
vertex $-1 $427 $462 #
straight-curve $-1 -50 0 15 0 -1 0 I I #
face $-1 $383 $463 $2 $-1 $464 reversed single #
loop $-1 $-1 $326 $284 #
coedge $-1 $285 $328 $451 $465 forward $217 $-1 #
edge $-1 $286 -50 $466 50 $285 $467 forward 7 unknown #
point $-1 -50 -50 -25 #
coedge $-1 $468 $469 $288 $376 reversed $470 $-1 #
edge $-1 $471 -5 $380 5 $288 $472 forward 7 unknown #
coedge $-1 $473 $289 $469 $474 forward $379 $-1 #
coedge $-1 $289 $475 $291 $382 forward $379 $-1 #
loop $-1 $-1 $473 $476 #
vertex $-1 $376 $477 #
straight-curve $-1 0 -50 5 -1 0 0 I I #
edge $-1 $478 30.00000000000009948 $293 50 $378 $479 forward 7 unknown #
face $-1 $261 $292 $2 $-1 $464 reversed single #
point $-1 -30 -50 5 #
coedge $-1 $297 $431 $301 $389 forward $386 $-1 #
loop $-1 $-1 $385 $360 #
straight-curve $-1 1.047444401652940007e-13 -30 15 -1 -3.491481338843129805e-15 0 I I #
point $-1 50.00000000000009948 -29.99999999999980105 15 #
edge $-1 $405 -1.570796326794896558 $302 1.57079632679489678 $301 $480 forward 7 unknown #
point $-1 30 -29.99999999999990052 15 #
face $-1 $481 $482 $2 $-1 $483 forward single #
loop $-1 $-1 $440 $304 #
coedge $-1 $484 $485 $306 $394 reversed $486 $-1 #
edge $-1 $398 -10 $471 10 $306 $487 forward 7 unknown #
coedge $-1 $488 $307 $310 $402 reversed $397 $-1 #
coedge $-1 $307 $488 $484 $489 forward $397 $-1 #
loop $-1 $-1 $488 $490 #
vertex $-1 $394 $491 #
straight-curve $-1 10 -50 0 -0 0 -1 I I #
coedge $-1 $429 $309 $431 $492 forward $311 $-1 #
coedge $-1 $310 $429 $493 $494 forward $311 $-1 #
edge $-1 $495 9.999999999999959144 $312 50 $395 $496 reversed 7 unknown #
face $-1 $497 $311 $2 $-1 $483 forward single #
point $-1 10 -50 5 #
vertex $-1 $314 $498 #
straight-curve $-1 30 0 5 0 1 0 I I #
coedge $-1 $317 $316 $357 $452 forward $242 $-1 #
straight-curve $-1 50 0 -25 0 -1 0 I I #
plane-surface $-1 0 50 0 0 -1 0 0 0 -1 forward_v I I I I #
coedge $-1 $414 $451 $323 $411 reversed $273 $-1 #
edge $-1 $412 30.77350269189620136 $424 50 $410 $274 forward 7 unknown #
vertex $-1 $324 $499 #
straight-curve $-1 -30.77350269189620136 0 25 0 1 0 I I #
coedge $-1 $500 $410 $325 $415 forward $273 $-1 #
edge $-1 $412 -16.7921959121757034 $501 -5.24519052838322164 $414 $502 forward 7 unknown #
coedge $-1 $503 $326 $329 $420 reversed $371 $-1 #
coedge $-1 $326 $504 $332 $422 reversed $371 $-1 #
straight-curve $-1 -8.728703347107829602e-14 25 15 1 3.491481338843129805e-15 -0 I I #
coedge $-1 $329 $505 $506 $507 forward $217 $-1 #
edge $-1 $508 -29.99999999999980105 $330 -24.99999999999980105 $329 $509 forward 7 unknown #
point $-1 -50.00000000000009948 24.99999999999980105 15 #
edge $-1 $333 24.99999999999990052 $501 50 $417 $147 forward 7 unknown #
point $-1 -25 24.99999999999990052 15 #
vertex $-1 $411 $510 #
coedge $-1 $511 $338 $512 $513 forward $217 $-1 #
coedge $-1 $363 $514 $338 $427 reversed $459 $-1 #
edge $-1 $368 -2.356194490192344837 $515 0.785398163397448279 $338 $516 forward 7 unknown #
coedge $-1 $339 $441 $517 $518 forward $135 $-1 #
coedge $-1 $401 $400 $339 $430 reversed $311 $-1 #
edge $-1 $519 9.99999999999982947 $432 29.99999999999980105 $339 $520 forward 7 unknown #
coedge $-1 $385 $340 $400 $492 reversed $386 $-1 #
vertex $-1 $341 $521 #
ellipse-curve $-1 50.00000000000009948 -29.99999999999980105 10 -1 0 0 1.23442506554112995e-14 -3.535533905932739973 -3.535533905932739973 1 I I #
coedge $-1 $342 $522 $439 $523 forward $273 $-1 #
vertex $-1 $343 $524 #
straight-curve $-1 0 50 15 -1 0 0 I I #
vertex $-1 $347 $525 #
straight-curve $-1 -1.047444401652940007e-13 30 15 1 3.491481338843129805e-15 -0 I I #
coedge $-1 $526 $346 $434 $523 reversed $392 $-1 #
coedge $-1 $346 $526 $362 $457 reversed $392 $-1 #
coedge $-1 $428 $350 $527 $528 forward $135 $-1 #
coedge $-1 $529 $530 $350 $443 reversed $531 $-1 #
edge $-1 $447 -5 $532 5 $350 $533 forward 7 unknown #
coedge $-1 $534 $351 $353 $449 forward $446 $-1 #
coedge $-1 $351 $535 $529 $536 reversed $446 $-1 #
loop $-1 $-1 $445 $537 #
vertex $-1 $443 $538 #
straight-curve $-1 50 0 5 0 -1 0 I I #
edge $-1 $354 -50.00000000000000711 $539 -30.00000000000010303 $444 $540 forward 7 unknown #
point $-1 49.99999999999990052 30.00000000000019895 5 #
coedge $-1 $410 $357 $372 $465 reversed $273 $-1 #
edge $-1 $466 -50 $358 50 $357 $541 forward 7 unknown #
point $-1 50 50 -25 #
face $-1 $542 $531 $2 $-1 $543 forward single #
cone-surface $-1 1.047444401652940007e-13 -30 10 -1 -3.491481338843129805e-15 0 1.23442506554112995e-14 -3.535533905932739973 -3.535533905932739973 1 I I 0 1 5.000000000000003553 forward I I I I #
coedge $-1 $544 $545 $546 $547 forward $361 $-1 #
edge $-1 $437 -1.570796326794896558 $539 1.57079632679489678 $440 $548 forward 7 unknown #
coedge $-1 $514 $363 $365 $460 forward $459 $-1 #
loop $-1 $-1 $458 $549 #
edge $-1 $366 -1.57079632679489678 $478 1.570796326794896558 $365 $550 forward 7 unknown #
point $-1 -30 -30.00000000000009948 15 #
point $-1 -49.99999999999990052 -30.00000000000019895 15 #
loop $-1 $-1 $546 $370 #
cone-surface $-1 -30 0 10 0 1 0 -3.535533905932739973 0 -3.535533905932739973 1 I I 0 1 5.000000000000003553 forward I I I I #
edge $-1 $424 -25 $466 25 $451 $551 forward 7 unknown #
vertex $-1 $452 $552 #
straight-curve $-1 -50 0 -25 0 1 0 I I #
coedge $-1 $553 $375 $485 $554 forward $470 $-1 #
coedge $-1 $375 $553 $377 $474 reversed $470 $-1 #
loop $-1 $-1 $553 $555 #
vertex $-1 $376 $556 #
straight-curve $-1 -10 -50 0 -0 0 1 I I #
coedge $-1 $512 $377 $557 $558 reversed $379 $-1 #
edge $-1 $380 -50 $559 -10 $469 $560 reversed 7 unknown #
coedge $-1 $378 $512 $514 $561 forward $379 $-1 #
face $-1 $537 $379 $2 $-1 $483 forward single #
point $-1 -10 -50 5 #
vertex $-1 $561 $562 #
straight-curve $-1 -30 0 5 -0 -1 -0 I I #
ellipse-curve $-1 30 -29.99999999999990052 10 -0.7071067811865465735 -0.7071067811865485719 0 5 -4.999999999999979572 -4.440892098500630106e-16 0.707106781186549016 I I #
face $-1 $555 $563 $2 $-1 $564 forward single #
loop $-1 $-1 $565 $391 #
plane-surface $-1 0 0 5 0 0 1 1 0 0 forward_v I I I I #
coedge $-1 $566 $393 $396 $489 reversed $486 $-1 #
coedge $-1 $393 $567 $468 $554 reversed $486 $-1 #
loop $-1 $-1 $484 $497 #
straight-curve $-1 0 -50 -5 -1 0 0 I I #
coedge $-1 $396 $395 $568 $569 reversed $397 $-1 #
edge $-1 $570 9.999999999999959144 $398 50 $396 $571 forward 7 unknown #
face $-1 $572 $397 $2 $-1 $573 forward single #
point $-1 10 -50 -5 #
edge $-1 $405 29.99999999999989697 $432 49.99999999999999289 $400 $574 forward 7 unknown #
coedge $-1 $517 $568 $401 $494 reversed $575 $-1 #
edge $-1 $519 -49.99999999999996447 $495 -9.999999999999964473 $493 $576 reversed 7 unknown #
vertex $-1 $569 $577 #
straight-curve $-1 10 0 5 0 1 0 I I #
face $-1 $490 $486 $2 $-1 $578 forward single #
point $-1 30 -29.99999999999990052 5 #
point $-1 -30.77350269189620136 50 25 #
coedge $-1 $579 $414 $504 $580 forward $273 $-1 #
vertex $-1 $580 $581 #
straight-curve $-1 -22.37740473580840117 50 10.45753175473059926 0.4999999999999980016 0 -0.8660254037844400399 I I #
coedge $-1 $582 $416 $544 $583 forward $371 $-1 #
coedge $-1 $417 $582 $500 $580 reversed $371 $-1 #
coedge $-1 $419 $584 $585 $586 forward $217 $-1 #
coedge $-1 $545 $544 $419 $507 reversed $361 $-1 #
edge $-1 $587 -2.356194490192344837 $508 0.785398163397448279 $419 $588 forward 7 unknown #
vertex $-1 $507 $589 #
straight-curve $-1 -50 0 15 0 -1 0 I I #
point $-1 -50 50 25 #
coedge $-1 $590 $425 $591 $592 forward $217 $-1 #
coedge $-1 $475 $473 $425 $513 reversed $379 $-1 #
edge $-1 $515 -30.00000000000019895 $593 -10.00000000000020073 $425 $594 forward 7 unknown #
coedge $-1 $426 $458 $475 $561 reversed $459 $-1 #
vertex $-1 $427 $595 #
ellipse-curve $-1 -49.99999999999990052 -30.00000000000019895 10 1 0 0 1.23442506554112995e-14 -3.535533905932739973 -3.535533905932739973 1 I I #
coedge $-1 $596 $493 $428 $518 reversed $575 $-1 #
edge $-1 $597 -5 $519 5 $428 $598 forward 7 unknown #
vertex $-1 $518 $599 #
straight-curve $-1 50 0 5 0 -1 0 I I #
point $-1 50.00000000000009948 -29.99999999999980105 5 #
coedge $-1 $434 $600 $601 $602 forward $273 $-1 #
edge $-1 $603 -2.356194490192344837 $435 0.785398163397448279 $434 $604 forward 7 unknown #
point $-1 30 50 15 #
point $-1 30 30.00000000000009948 15 #
coedge $-1 $440 $439 $534 $605 reversed $392 $-1 #
coedge $-1 $606 $566 $441 $528 reversed $486 $-1 #
edge $-1 $532 -10.00000000000020073 $597 9.99999999999982947 $441 $607 forward 7 unknown #
coedge $-1 $608 $442 $445 $536 forward $531 $-1 #
coedge $-1 $442 $608 $606 $609 forward $531 $-1 #
loop $-1 $-1 $608 $454 #
vertex $-1 $443 $610 #
straight-curve $-1 50 10.00000000000020073 0 -0 -0 -1 I I #
coedge $-1 $601 $444 $526 $605 forward $446 $-1 #
coedge $-1 $445 $601 $611 $612 forward $446 $-1 #
edge $-1 $447 -50.00000000000003553 $613 -10.00000000000003553 $445 $614 forward 7 unknown #
face $-1 $197 $446 $2 $-1 $483 forward single #
point $-1 50 10.00000000000020073 5 #
vertex $-1 $449 $615 #
straight-curve $-1 -1.047444401652940007e-13 30 5 -1 -3.491481338843129805e-15 0 I I #
straight-curve $-1 0 50 -25 1 0 0 I I #
face $-1 $616 $617 $2 $-1 $543 forward single #
plane-surface $-1 -3.4914813388431302e-14 10 0 3.491481338843129805e-15 -1 0 0 0 1 forward_v I I I I #
coedge $-1 $506 $456 $503 $583 reversed $361 $-1 #
coedge $-1 $456 $506 $618 $619 reversed $361 $-1 #
coedge $-1 $620 $621 $456 $547 reversed $463 $-1 #
edge $-1 $622 -1.57079632679489678 $623 1.570796326794896558 $546 $624 forward 7 unknown #
ellipse-curve $-1 30 30.00000000000009948 10 -0.707106781186549016 0.7071067811865460184 0 5 5.000000000000020428 4.440892098500630106e-16 0.7071067811865460184 I I #
face $-1 $625 $459 $2 $-1 $455 reversed single #
ellipse-curve $-1 -30 -30.00000000000009948 10 0.7071067811865485719 -0.7071067811865465735 -0 -5 -5.000000000000020428 -4.440892098500630106e-16 0.7071067811865460184 I I #
straight-curve $-1 -50 50 0 0 0 -1 I I #
point $-1 -50 50 -25 #
coedge $-1 $469 $468 $626 $627 reversed $470 $-1 #
edge $-1 $471 -50 $628 -10 $468 $629 forward 7 unknown #
face $-1 $403 $470 $2 $-1 $564 forward single #
point $-1 -10 -50 -5 #
coedge $-1 $626 $591 $473 $558 forward $630 $-1 #
edge $-1 $593 -50.00000000000003553 $559 -10.00000000000003553 $473 $631 forward 7 unknown #
vertex $-1 $474 $632 #
straight-curve $-1 -10 0 5 0 -1 0 I I #
edge $-1 $515 -50.00000000000000711 $478 -30.00000000000010303 $475 $574 forward 7 unknown #
point $-1 -30 -30.00000000000009948 5 #
loop $-1 $-1 $633 $481 #
plane-surface $-1 -10 0 0 1 0 0 0 0 -1 forward_v I I I I #
coedge $-1 $618 $634 $620 $635 forward $482 $-1 #
coedge $-1 $527 $484 $596 $636 reversed $486 $-1 #
coedge $-1 $485 $637 $638 $639 reversed $486 $-1 #
coedge $-1 $493 $596 $488 $569 forward $575 $-1 #
edge $-1 $570 -5 $495 5 $488 $640 forward 7 unknown #
vertex $-1 $489 $641 #
straight-curve $-1 10 0 -5 0 -1 0 I I #
face $-1 $476 $642 $2 $-1 $573 forward single #
plane-surface $-1 10 0 0 -1 0 0 0 -0 1 forward_v I I I I #
straight-curve $-1 1.047444401652940007e-13 -30 5 1 3.491481338843129805e-15 -0 I I #
loop $-1 $-1 $568 $616 #
straight-curve $-1 3.4914813388431302e-14 -10 5 1 3.491481338843129805e-15 0 I I #
point $-1 10 -9.999999999999959144 5 #
plane-surface $-1 0 0 -5 0 0 1 1 0 0 forward_v I I I I #
coedge $-1 $643 $500 $644 $645 forward $273 $-1 #
edge $-1 $501 25 $646 30 $500 $647 forward 7 unknown #
point $-1 -25 50 15 #
coedge $-1 $504 $503 $621 $648 forward $371 $-1 #
edge $-1 $508 -49.99999999999999289 $623 -29.99999999999989697 $503 $438 forward 7 unknown #
coedge $-1 $505 $590 $649 $650 forward $217 $-1 #
coedge $-1 $651 $618 $505 $586 reversed $482 $-1 #
edge $-1 $652 9.99999999999982947 $587 29.99999999999980105 $505 $653 forward 7 unknown #
vertex $-1 $507 $654 #
ellipse-curve $-1 -50.00000000000009948 29.99999999999980105 10 1 0 0 -1.23442506554112995e-14 3.535533905932739973 3.535533905932739973 1 I I #
point $-1 -50.00000000000009948 29.99999999999980105 15 #
coedge $-1 $584 $511 $637 $655 forward $217 $-1 #
coedge $-1 $557 $638 $511 $592 reversed $630 $-1 #
edge $-1 $593 -5 $656 5 $511 $657 forward 7 unknown #
vertex $-1 $592 $658 #
straight-curve $-1 -50 0 5 0 1 0 I I #
point $-1 -49.99999999999990052 -30.00000000000019895 5 #
coedge $-1 $568 $517 $566 $636 forward $575 $-1 #
vertex $-1 $518 $659 #
straight-curve $-1 50 -9.99999999999982947 0 0 0 1 I I #
point $-1 50 -9.99999999999982947 5 #
coedge $-1 $522 $660 $661 $662 forward $273 $-1 #
coedge $-1 $535 $534 $522 $602 reversed $446 $-1 #
edge $-1 $663 10 $603 30 $522 $664 forward 7 unknown #
vertex $-1 $523 $665 #
ellipse-curve $-1 30 50 10 0 -1 0 3.535533905932739973 0 3.535533905932739973 1 I I #
edge $-1 $539 30.00000000000009948 $603 50 $534 $406 forward 7 unknown #
coedge $-1 $666 $527 $530 $609 reversed $486 $-1 #
straight-curve $-1 50 0 -5 0 -1 0 I I #
coedge $-1 $530 $529 $667 $668 forward $531 $-1 #
edge $-1 $669 10.00000000000003553 $532 50.00000000000003553 $530 $670 forward 7 unknown #
point $-1 50 10.00000000000020073 -5 #
coedge $-1 $661 $667 $535 $612 reversed $642 $-1 #
edge $-1 $663 -50 $613 -10 $611 $496 reversed 7 unknown #
vertex $-1 $612 $671 #
straight-curve $-1 -3.4914813388431302e-14 10 5 -1 -3.491481338843129805e-15 0 I I #
point $-1 30 30.00000000000009948 5 #
face $-1 $549 $575 $2 $-1 $672 forward single #
loop $-1 $-1 $673 $542 #
coedge $-1 $585 $565 $545 $619 forward $482 $-1 #
edge $-1 $622 29.99999999999989697 $587 49.99999999999999289 $618 $540 forward 7 unknown #
coedge $-1 $644 $546 $565 $635 reversed $463 $-1 #
coedge $-1 $546 $644 $582 $648 reversed $463 $-1 #
vertex $-1 $635 $674 #
vertex $-1 $583 $675 #
ellipse-curve $-1 -30 29.99999999999990052 10 0.7071067811865460184 0.707106781186549016 -0 -5 4.999999999999979572 4.440892098500630106e-16 0.707106781186549016 I I #
face $-1 $207 $630 $2 $-1 $672 forward single #
coedge $-1 $638 $557 $553 $627 forward $630 $-1 #
edge $-1 $559 -5 $628 5 $553 $676 forward 7 unknown #
vertex $-1 $554 $677 #
straight-curve $-1 -10 0 -5 0 1 0 I I #
loop $-1 $-1 $626 $625 #
straight-curve $-1 3.4914813388431302e-14 -10 5 1 3.491481338843129805e-15 -0 I I #
point $-1 -10 -10 5 #
coedge $-1 $678 $679 $673 $680 reversed $563 $-1 #
coedge $-1 $565 $681 $643 $682 reversed $482 $-1 #
edge $-1 $683 -50 $622 -29.99999999999990052 $565 $479 forward 7 unknown #
edge $-1 $597 -49.99999999999996447 $570 -9.999999999999964473 $596 $684 forward 7 unknown #
coedge $-1 $567 $685 $590 $655 reversed $486 $-1 #
coedge $-1 $591 $626 $567 $639 forward $630 $-1 #
edge $-1 $628 10.00000000000003553 $656 50.00000000000003553 $638 $684 forward 7 unknown #
straight-curve $-1 10 -9.999999999999959144 0 0 0 1 I I #
point $-1 10 -9.999999999999959144 -5 #
loop $-1 $-1 $667 $572 #
coedge $-1 $686 $579 $634 $682 forward $273 $-1 #
coedge $-1 $621 $620 $579 $645 reversed $463 $-1 #
edge $-1 $646 -2.356194490192344837 $683 0.785398163397448279 $579 $687 forward 7 unknown #
vertex $-1 $580 $688 #
straight-curve $-1 0 50 15 -1 0 0 I I #
edge $-1 $623 29.99999999999990052 $646 50 $582 $367 forward 7 unknown #
coedge $-1 $689 $690 $584 $650 reversed $617 $-1 #
edge $-1 $691 -5 $652 5 $584 $692 forward 7 unknown #
coedge $-1 $681 $585 $690 $693 forward $482 $-1 #
vertex $-1 $650 $694 #
straight-curve $-1 -50 0 5 0 1 0 I I #
point $-1 -50.00000000000009948 29.99999999999980105 5 #
edge $-1 $656 -10.00000000000020073 $691 9.99999999999982947 $590 $695 forward 7 unknown #
vertex $-1 $592 $696 #
straight-curve $-1 -50 -10.00000000000020073 0 0 0 -1 I I #
point $-1 -50 -10.00000000000020073 5 #
point $-1 50 -9.99999999999982947 -5 #
coedge $-1 $600 $686 $697 $698 forward $273 $-1 #
coedge $-1 $699 $611 $600 $662 reversed $642 $-1 #
edge $-1 $700 -5 $663 5 $600 $701 forward 7 unknown #
vertex $-1 $662 $702 #
straight-curve $-1 0 50 5 1 0 -0 I I #
point $-1 30 50 5 #
coedge $-1 $697 $606 $699 $703 reversed $486 $-1 #
coedge $-1 $611 $699 $608 $668 reversed $642 $-1 #
edge $-1 $613 -5 $669 5 $667 $704 forward 7 unknown #
vertex $-1 $703 $705 #
straight-curve $-1 -3.4914813388431302e-14 10 -5 1 3.491481338843129805e-15 0 I I #
point $-1 10 10 5 #
plane-surface $-1 3.4914813388431302e-14 -10 0 -3.491481338843129805e-15 1 0 -0 0 -1 forward_v I I I I #
coedge $-1 $690 $689 $633 $680 forward $617 $-1 #
point $-1 -30 29.99999999999990052 5 #
point $-1 -30 29.99999999999990052 15 #
straight-curve $-1 -10 -10 0 0 0 -1 I I #
point $-1 -10 -10 -5 #
coedge $-1 $706 $633 $707 $708 forward $563 $-1 #
coedge $-1 $633 $706 $681 $709 reversed $563 $-1 #
edge $-1 $710 -5 $711 5 $633 $712 forward 7 unknown #
coedge $-1 $634 $651 $679 $709 forward $482 $-1 #
edge $-1 $683 -30 $713 -10 $643 $714 forward 7 unknown #
vertex $-1 $645 $715 #
straight-curve $-1 3.4914813388431302e-14 -10 -5 -1 -3.491481338843129805e-15 0 I I #
coedge $-1 $637 $707 $689 $716 reversed $486 $-1 #
coedge $-1 $660 $643 $706 $717 forward $273 $-1 #
ellipse-curve $-1 -30 50 10 0 -1 0 -3.535533905932739973 0 -3.535533905932739973 1 I I #
point $-1 -30 50 15 #
coedge $-1 $673 $649 $685 $716 forward $617 $-1 #
coedge $-1 $649 $673 $651 $693 reversed $617 $-1 #
vertex $-1 $650 $718 #
straight-curve $-1 -50 9.99999999999982947 0 -0 0 1 I I #
edge $-1 $652 -49.99999999999996447 $711 -9.999999999999964473 $690 $719 reversed 7 unknown #
point $-1 -50 9.99999999999982947 5 #
straight-curve $-1 -50 0 -5 0 1 0 I I #
point $-1 -50 -10.00000000000020073 -5 #
coedge $-1 $707 $666 $660 $698 reversed $486 $-1 #
edge $-1 $720 -10 $700 10 $660 $721 forward 7 unknown #
coedge $-1 $667 $661 $666 $703 forward $642 $-1 #
vertex $-1 $698 $722 #
straight-curve $-1 10 50 0 0 0 1 I I #
point $-1 10 50 5 #
edge $-1 $700 -50 $669 -10 $699 $571 forward 7 unknown #
straight-curve $-1 10 10 0 -0 -0 -1 I I #
point $-1 10 10 -5 #
coedge $-1 $679 $678 $686 $717 reversed $563 $-1 #
coedge $-1 $685 $697 $678 $708 reversed $486 $-1 #
edge $-1 $710 9.999999999999959144 $720 50 $678 $629 forward 7 unknown #
edge $-1 $711 9.999999999999959144 $713 50 $679 $560 reversed 7 unknown #
vertex $-1 $708 $723 #
vertex $-1 $680 $724 #
straight-curve $-1 -10 9.999999999999959144 0 -0 0 1 I I #
vertex $-1 $682 $725 #
straight-curve $-1 0 50 5 1 0 -0 I I #
point $-1 -30 50 5 #
edge $-1 $691 -49.99999999999996447 $710 -9.999999999999964473 $689 $670 forward 7 unknown #
edge $-1 $713 -5 $720 5 $686 $726 forward 7 unknown #
point $-1 -50 9.99999999999982947 -5 #
straight-curve $-1 -3.4914813388431302e-14 10 5 -1 -3.491481338843129805e-15 0 I I #
vertex $-1 $717 $727 #
straight-curve $-1 0 50 -5 1 0 -0 I I #
point $-1 10 50 -5 #
point $-1 -10 9.999999999999959144 -5 #
point $-1 -10 9.999999999999959144 5 #
point $-1 -10 50 5 #
straight-curve $-1 -10 50 0 0 0 -1 I I #
point $-1 -10 50 -5 #
End-of-ACIS-data 