600 0 1 0           
82 GICL ACIS Healer - Source: /gicl/data5/repository/UIUC/holeTest/holeTest.sat - 6 0 18 ACIS 6.0.3 Solaris 24 Sun Apr 14 00:06:23 2002 
1 9.999999999999999547e-07 1.000000000000000036e-10 
body $1 $2 $-1 $-1 #
named_string_attribute-named_attribute-st-attrib $-1 $3 $-1 $0 4 name 8 holeTest #
lump $-1 $-1 $4 $0 #
rgb_color-st-attrib $-1 $-1 $1 $0 0 1 0 #
shell $-1 $-1 $-1 $5 $-1 $2 #
face $6 $7 $8 $4 $-1 $9 forward single #
fmesh-eye-attrib $-1 $-1 $-1 $5 #
face $10 $11 $12 $4 $-1 $13 forward single #
loop $-1 $14 $15 $5 #
plane-surface $-1 15 15 20 0 0 1 1 0 0 forward_v I I I I #
fmesh-eye-attrib $-1 $-1 $-1 $7 #
face $16 $17 $18 $4 $-1 $19 forward single #
loop $-1 $-1 $20 $7 #
plane-surface $-1 10 15 17.5 0 -1 0 0 0 -1 forward_v I I I I #
loop $-1 $21 $22 $5 #
coedge $-1 $23 $24 $25 $26 forward $8 $-1 #
fmesh-eye-attrib $-1 $-1 $-1 $11 #
face $27 $28 $29 $4 $-1 $30 forward single #
loop $-1 $-1 $31 $11 #
cone-surface $-1 13.5 22 20 0 0 1 -0.3535533905932737309 0.3535533905932737309 0 1 I I 0 -1 0.4999999999999999445 forward I I I I #
coedge $-1 $32 $33 $34 $35 forward $12 $-1 #
loop $-1 $-1 $36 $5 #
coedge $-1 $37 $38 $39 $40 forward $14 $-1 #
coedge $-1 $41 $15 $42 $43 forward $8 $-1 #
coedge $-1 $15 $44 $45 $46 forward $8 $-1 #
coedge $-1 $47 $48 $15 $26 reversed $49 $-1 #
edge $-1 $50 -11.5 $51 -9.330127018922194537 $15 $52 forward 7 unknown #
fmesh-eye-attrib $-1 $-1 $-1 $17 #
face $53 $54 $55 $4 $-1 $56 forward single #
loop $-1 $-1 $57 $17 #
plane-surface $-1 13 22.5 20 1 0 0 0 0 -1 forward_v I I I I #
coedge $-1 $58 $59 $57 $60 forward $18 $-1 #
coedge $-1 $61 $20 $62 $63 forward $12 $-1 #
coedge $-1 $20 $61 $64 $65 reversed $12 $-1 #
coedge $-1 $66 $67 $20 $35 reversed $68 $-1 #
edge $-1 $69 -2.5 $70 2.5 $20 $71 forward 7 unknown #
coedge $-1 $64 $72 $66 $73 forward $21 $-1 #
coedge $-1 $74 $22 $75 $76 forward $14 $-1 #
coedge $-1 $22 $74 $77 $78 forward $14 $-1 #
coedge $-1 $79 $80 $22 $40 reversed $81 $-1 #
edge $-1 $82 -15 $83 15 $39 $84 forward 7 unknown #
coedge $-1 $85 $23 $86 $87 forward $8 $-1 #
coedge $-1 $88 $89 $23 $43 reversed $90 $-1 #
edge $-1 $51 0.5235987755982988157 $91 2.617993877991494411 $23 $92 forward 7 unknown #
coedge $-1 $24 $93 $94 $95 forward $8 $-1 #
coedge $-1 $96 $97 $24 $46 reversed $98 $-1 #
edge $-1 $99 -0.785398163397448279 $50 0.785398163397448279 $24 $100 forward 7 unknown #
coedge $-1 $101 $25 $97 $102 reversed $49 $-1 #
coedge $-1 $25 $101 $88 $103 reversed $49 $-1 #
loop $-1 $-1 $47 $104 #
vertex $-1 $26 $105 #
vertex $-1 $43 $106 #
straight-curve $-1 15 17.5 20 -1 0 0 I I #
fmesh-eye-attrib $-1 $-1 $-1 $28 #
face $107 $108 $109 $4 $-1 $110 reversed single #
loop $-1 $-1 $111 $28 #
cone-surface $-1 26.5 22 20 -0 -0 -1 0.3535533905932737309 0.3535533905932737309 0 1 I I 0 -1 0.4999999999999999445 forward I I I I #
coedge $-1 $112 $113 $31 $60 reversed $29 $-1 #
coedge $-1 $114 $31 $115 $116 reversed $18 $-1 #
coedge $-1 $31 $114 $117 $118 reversed $18 $-1 #
edge $-1 $119 0 $120 5 $57 $121 forward 7 unknown #
coedge $-1 $33 $32 $122 $123 reversed $12 $-1 #
coedge $-1 $124 $125 $32 $63 reversed $126 $-1 #
edge $-1 $70 1.5 $127 4.5 $32 $128 forward 7 unknown #
coedge $-1 $129 $36 $33 $65 forward $21 $-1 #
edge $-1 $69 -1 $130 2 $64 $131 forward 7 unknown #
coedge $-1 $132 $34 $36 $73 reversed $68 $-1 #
coedge $-1 $34 $132 $124 $133 forward $68 $-1 #
loop $-1 $-1 $66 $134 #
vertex $-1 $65 $135 #
vertex $-1 $63 $136 #
straight-curve $-1 11.5 15 17.5 -0 -0 -1 I I #
coedge $-1 $36 $137 $138 $139 forward $21 $-1 #
edge $-1 $140 -3.141592653589793116 $69 0 $36 $141 forward 7 unknown #
coedge $-1 $38 $37 $142 $143 forward $14 $-1 #
coedge $-1 $144 $145 $37 $76 reversed $146 $-1 #
edge $-1 $83 -15 $147 15 $75 $148 forward 7 unknown #
coedge $-1 $149 $150 $38 $78 reversed $151 $-1 #
edge $-1 $152 -15 $82 15 $77 $153 forward 7 unknown #
coedge $-1 $154 $39 $150 $155 forward $81 $-1 #
coedge $-1 $39 $154 $144 $156 reversed $81 $-1 #
loop $-1 $-1 $79 $157 #
vertex $-1 $40 $158 #
vertex $-1 $40 $159 #
straight-curve $-1 30 15 20 0 1 0 I I #
coedge $-1 $160 $41 $161 $162 forward $8 $-1 #
coedge $-1 $163 $164 $41 $87 reversed $165 $-1 #
edge $-1 $91 -0.6698729810778054627 $166 1.5 $41 $52 forward 7 unknown #
coedge $-1 $167 $42 $48 $103 forward $90 $-1 #
coedge $-1 $42 $167 $163 $168 forward $90 $-1 #
loop $-1 $-1 $88 $169 #
vertex $-1 $87 $170 #
ellipse-curve $-1 20 20 20 -0 -0 -1 5 0 0 1 I I #
coedge $-1 $44 $171 $172 $173 forward $8 $-1 #
coedge $-1 $174 $175 $44 $95 reversed $176 $-1 #
edge $-1 $177 -5.75 $99 -1.75 $44 $178 forward 7 unknown #
coedge $-1 $179 $45 $175 $180 forward $98 $-1 #
coedge $-1 $45 $179 $47 $102 forward $98 $-1 #
loop $-1 $-1 $96 $108 #
vertex $-1 $46 $181 #
ellipse-curve $-1 26.5 18 20 -0 -0 -1 0.3535533905932737309 -0.3535533905932737309 0 1 I I #
coedge $-1 $48 $47 $182 $183 forward $49 $-1 #
edge $-1 $184 -5 $50 0 $47 $185 forward 7 unknown #
edge $-1 $51 -2.5 $186 2.5 $88 $187 forward 7 unknown #
face $188 $189 $49 $4 $-1 $190 reversed single #
point $-1 26.5 17.5 20 #
point $-1 24.33012701892219454 17.5 20 #
fmesh-eye-attrib $-1 $-1 $-1 $54 #
face $191 $192 $98 $4 $-1 $193 forward single #
loop $-1 $-1 $194 $54 #
plane-surface $-1 25 22.5 20 0 1 0 0 0 1 forward_v I I I I #
coedge $-1 $172 $195 $174 $196 forward $55 $-1 #
coedge $-1 $197 $57 $160 $198 reversed $29 $-1 #
coedge $-1 $57 $197 $199 $200 forward $29 $-1 #
coedge $-1 $59 $58 $201 $202 forward $18 $-1 #
coedge $-1 $199 $203 $58 $116 forward $204 $-1 #
edge $-1 $205 -0.785398163397448279 $120 0.785398163397448279 $115 $206 forward 7 unknown #
coedge $-1 $207 $160 $59 $118 forward $8 $-1 #
edge $-1 $119 -0.785398163397448279 $208 0.785398163397448279 $117 $209 forward 7 unknown #
vertex $-1 $118 $210 #
vertex $-1 $60 $211 #
straight-curve $-1 13 22 20 0 0 -1 F -1.550000000000000711 F 6.549999999999999822 #
coedge $-1 $212 $213 $61 $123 forward $214 $-1 #
edge $-1 $130 -2.5 $127 2.5 $61 $215 forward 7 unknown #
coedge $-1 $216 $62 $67 $133 reversed $126 $-1 #
coedge $-1 $62 $217 $212 $218 forward $126 $-1 #
loop $-1 $219 $216 $220 #
vertex $-1 $123 $221 #
straight-curve $-1 10 15 15 1 0 0 I I #
coedge $-1 $222 $64 $213 $223 forward $21 $-1 #
vertex $-1 $223 $224 #
straight-curve $-1 12.5 15 20 1 0 0 I I #
coedge $-1 $67 $66 $225 $226 reversed $68 $-1 #
edge $-1 $227 -3.141592653589793116 $70 0 $124 $228 forward 7 unknown #
face $229 $230 $68 $4 $-1 $231 reversed single #
point $-1 11.5 15 20 #
point $-1 11.5 15 15 #
coedge $-1 $72 $232 $233 $234 forward $21 $-1 #
coedge $-1 $235 $225 $72 $139 reversed $236 $-1 #
edge $-1 $237 -7 $140 -4 $72 $131 forward 7 unknown #
vertex $-1 $226 $238 #
ellipse-curve $-1 10 15 20 -0 -0 -1 1.5 0 0 1 I I #
coedge $-1 $239 $240 $74 $143 reversed $241 $-1 #
edge $-1 $147 -15 $152 15 $142 $242 forward 7 unknown #
coedge $-1 $243 $75 $80 $156 forward $146 $-1 #
coedge $-1 $75 $243 $239 $244 reversed $146 $-1 #
loop $-1 $-1 $144 $245 #
vertex $-1 $76 $246 #
straight-curve $-1 15 30 20 -1 0 0 I I #
coedge $-1 $247 $77 $240 $248 forward $151 $-1 #
coedge $-1 $77 $247 $79 $155 reversed $151 $-1 #
loop $-1 $-1 $149 $249 #
vertex $-1 $143 $250 #
straight-curve $-1 15 0 20 1 0 0 I I #
coedge $-1 $80 $79 $251 $252 reversed $81 $-1 #
edge $-1 $82 -10 $253 10 $79 $254 forward 7 unknown #
edge $-1 $83 -10 $255 10 $80 $256 forward 7 unknown #
face $257 $-1 $258 $4 $-1 $259 reversed single #
point $-1 30 0 20 #
point $-1 30 30 20 #
coedge $-1 $117 $85 $112 $198 forward $8 $-1 #
coedge $-1 $260 $261 $85 $162 reversed $262 $-1 #
edge $-1 $166 -0.785398163397448279 $263 0.785398163397448279 $85 $264 forward 7 unknown #
coedge $-1 $265 $86 $89 $168 reversed $165 $-1 #
coedge $-1 $86 $265 $260 $266 reversed $165 $-1 #
loop $-1 $-1 $164 $267 #
vertex $-1 $162 $268 #
coedge $-1 $89 $88 $269 $270 forward $90 $-1 #
edge $-1 $271 -2.5 $91 2.5 $89 $272 forward 7 unknown #
face $273 $274 $90 $4 $-1 $275 reversed single #
point $-1 15.66987298107780546 17.5 20 #
coedge $-1 $93 $276 $277 $278 forward $8 $-1 #
coedge $-1 $279 $111 $93 $173 reversed $55 $-1 #
edge $-1 $280 -0.785398163397448279 $177 0.785398163397448279 $93 $281 forward 7 unknown #
coedge $-1 $282 $94 $111 $196 reversed $176 $-1 #
coedge $-1 $94 $282 $96 $180 reversed $176 $-1 #
loop $-1 $-1 $174 $192 #
vertex $-1 $95 $283 #
straight-curve $-1 27 16.25 20 0 -1 0 I I #
coedge $-1 $97 $96 $284 $285 reversed $98 $-1 #
edge $-1 $99 -0 $286 5 $175 $287 forward 7 unknown #
point $-1 27 18 20 #
coedge $-1 $284 $269 $101 $183 reversed $204 $-1 #
edge $-1 $184 -11.5 $186 -9.330127018922194537 $182 $288 forward 7 unknown #
vertex $-1 $183 $289 #
straight-curve $-1 26.5 17.5 20 0 0 1 F -6.549999999999999822 F 1.550000000000000711 #
vertex $-1 $270 $290 #
straight-curve $-1 24.33012701892219454 17.5 17.5 0 0 -1 I I #
fmesh-eye-attrib $-1 $291 $-1 $104 #
face $292 $293 $294 $4 $-1 $110 reversed single #
plane-surface $-1 15 17.5 20 -0 -1 -0 0 0 -1 forward_v I I I I #
fmesh-eye-attrib $-1 $-1 $-1 $108 #
face $295 $296 $176 $4 $-1 $297 forward single #
cone-surface $-1 26.5 18 20 0 0 1 0.3535533905932737309 -0.3535533905932737309 0 1 I I 0 -1 0.4999999999999999445 forward I I I I #
coedge $-1 $277 $298 $279 $299 reversed $109 $-1 #
coedge $-1 $111 $279 $300 $301 reversed $55 $-1 #
edge $-1 $302 -5 $177 0 $174 $303 forward 7 unknown #
coedge $-1 $113 $112 $261 $304 reversed $29 $-1 #
edge $-1 $263 -0.75 $119 3.25 $160 $305 forward 7 unknown #
coedge $-1 $306 $115 $113 $200 reversed $204 $-1 #
edge $-1 $307 -2 $120 2 $199 $308 forward 7 unknown #
coedge $-1 $309 $310 $114 $202 reversed $294 $-1 #
edge $-1 $205 -5 $208 0 $201 $311 forward 7 unknown #
coedge $-1 $115 $312 $309 $313 reversed $204 $-1 #
loop $-1 $-1 $115 $293 #
vertex $-1 $313 $314 #
ellipse-curve $-1 13.5 22 15 0 0 1 -0.3535533905932737309 0.3535533905932737309 0 1 I I #
coedge $-1 $276 $117 $310 $315 forward $8 $-1 #
vertex $-1 $315 $316 #
ellipse-curve $-1 13.5 22 20 -0 -0 -1 -0.3535533905932737309 0.3535533905932737309 0 1 I I #
point $-1 13 22 20 #
point $-1 13 22 15 #
coedge $-1 $317 $122 $125 $218 reversed $214 $-1 #
coedge $-1 $122 $317 $129 $223 reversed $214 $-1 #
loop $-1 $-1 $317 $318 #
straight-curve $-1 14.5 15 17.5 0 0 -1 F -4.050000000000000711 F 4.049999999999999822 #
coedge $-1 $319 $124 $320 $321 reversed $126 $-1 #
coedge $-1 $125 $322 $323 $324 reversed $126 $-1 #
edge $-1 $325 -0.785398163397448279 $127 0.785398163397448279 $125 $326 forward 7 unknown #
loop $-1 $-1 $327 $220 #
face $328 $329 $126 $4 $-1 $330 forward single #
point $-1 14.5 15 15 #
coedge $-1 $331 $129 $332 $333 forward $21 $-1 #
edge $-1 $130 -0.785398163397448279 $334 0.785398163397448279 $129 $335 forward 7 unknown #
point $-1 14.5 15 20 #
coedge $-1 $138 $320 $132 $226 forward $236 $-1 #
edge $-1 $227 -2.5 $140 2.5 $225 $336 forward 7 unknown #
vertex $-1 $321 $337 #
ellipse-curve $-1 10 15 15 0 0 -1 1.5 0 0 1 I I #
fmesh-eye-attrib $-1 $338 $-1 $134 #
face $339 $220 $236 $4 $-1 $13 forward single #
cone-surface $-1 10 15 17.5 0 0 1 1.5 0 0 1 I I 0 1 1.5 forward I I I I #
coedge $-1 $137 $340 $341 $342 forward $21 $-1 #
coedge $-1 $343 $344 $137 $234 reversed $345 $-1 #
edge $-1 $346 -0.785398163397448279 $237 0.785398163397448279 $137 $347 forward 7 unknown #
coedge $-1 $320 $138 $344 $348 reversed $236 $-1 #
loop $-1 $-1 $235 $230 #
vertex $-1 $139 $349 #
point $-1 8.5 15 20 #
coedge $-1 $350 $142 $145 $244 forward $241 $-1 #
coedge $-1 $142 $350 $149 $248 reversed $241 $-1 #
loop $-1 $-1 $239 $351 #
straight-curve $-1 0 15 20 0 -1 0 I I #
coedge $-1 $145 $144 $352 $353 reversed $146 $-1 #
edge $-1 $147 -10 $354 10 $145 $355 forward 7 unknown #
face $356 $157 $357 $4 $-1 $358 reversed single #
point $-1 0 30 20 #
coedge $-1 $150 $149 $359 $360 reversed $151 $-1 #
edge $-1 $152 -10 $361 10 $240 $362 forward 7 unknown #
face $363 $351 $151 $4 $-1 $364 reversed single #
point $-1 0 0 20 #
coedge $-1 $359 $352 $154 $252 forward $365 $-1 #
edge $-1 $255 -15 $253 15 $154 $366 forward 7 unknown #
vertex $-1 $155 $367 #
straight-curve $-1 30 0 10 0 0 -1 I I #
vertex $-1 $252 $368 #
straight-curve $-1 30 30 10 0 0 -1 I I #
fmesh-eye-attrib $-1 $369 $-1 $157 #
loop $-1 $81 $370 $157 #
plane-surface $-1 30 15 10 -1 0 0 0 0 1 forward_v I I I I #
coedge $-1 $371 $161 $164 $266 forward $262 $-1 #
coedge $-1 $161 $371 $197 $304 forward $262 $-1 #
loop $-1 $-1 $261 $296 #
vertex $-1 $198 $372 #
ellipse-curve $-1 13.5 18 20 -0 -0 -1 -0.3535533905932737309 -0.3535533905932737309 0 1 I I #
coedge $-1 $164 $163 $373 $374 forward $165 $-1 #
edge $-1 $166 0 $375 5 $164 $376 forward 7 unknown #
face $377 $318 $165 $4 $-1 $190 reversed single #
point $-1 13.5 17.5 20 #
coedge $-1 $182 $373 $167 $270 reversed $204 $-1 #
edge $-1 $186 0.5235987755982988157 $271 2.617993877991494411 $269 $378 forward 7 unknown #
vertex $-1 $270 $379 #
straight-curve $-1 15.66987298107780546 17.5 17.5 0 0 1 I I #
fmesh-eye-attrib $-1 $380 $-1 $169 #
face $381 $134 $382 $4 $-1 $383 reversed single #
cone-surface $-1 20 20 17.5 0 0 1 5 0 0 1 I I 0 1 5 forward I I I I #
coedge $-1 $171 $207 $384 $385 forward $8 $-1 #
coedge $-1 $386 $194 $171 $278 reversed $109 $-1 #
edge $-1 $387 4.330127018922194537 $280 6.5 $171 $388 forward 7 unknown #
coedge $-1 $195 $172 $194 $299 forward $55 $-1 #
vertex $-1 $173 $389 #
ellipse-curve $-1 26.5 22 20 -0 -0 -1 0.3535533905932737309 0.3535533905932737309 0 1 I I #
coedge $-1 $175 $174 $390 $391 forward $176 $-1 #
point $-1 27 22 20 #
coedge $-1 $390 $182 $179 $285 forward $204 $-1 #
edge $-1 $184 -0.785398163397448279 $286 0.785398163397448279 $284 $392 forward 7 unknown #
vertex $-1 $180 $393 #
straight-curve $-1 27 18 20 -0 -0 -1 F -1.550000000000000711 F 6.549999999999999822 #
straight-curve $-1 15 17.5 15 -1 0 0 I I #
point $-1 26.5 17.5 15 #
point $-1 24.33012701892219454 17.5 15 #
fmesh-eye-attrib $-1 $-1 $188 $104 #
fmesh-eye-attrib $-1 $394 $-1 $189 #
face $395 $396 $204 $4 $-1 $397 reversed single #
loop $-1 $-1 $201 $189 #
fmesh-eye-attrib $-1 $-1 $-1 $192 #
face $398 $267 $262 $4 $-1 $399 forward single #
plane-surface $-1 27 17.5 20 -1 -0 -0 0 0 1 forward_v I I I I #
coedge $-1 $194 $386 $400 $401 forward $109 $-1 #
edge $-1 $280 0 $402 5 $194 $403 forward 7 unknown #
coedge $-1 $400 $390 $195 $301 forward $204 $-1 #
edge $-1 $302 -0.785398163397448279 $402 0.785398163397448279 $300 $404 forward 7 unknown #
vertex $-1 $391 $405 #
straight-curve $-1 27 22 20 0 0 1 F -6.549999999999999822 F 1.550000000000000711 #
edge $-1 $307 -5 $263 0 $197 $406 forward 7 unknown #
straight-curve $-1 13 18.75 20 0 1 0 I I #
coedge $-1 $373 $199 $371 $407 forward $204 $-1 #
vertex $-1 $200 $408 #
straight-curve $-1 13 20 15 0 1 0 I I #
coedge $-1 $409 $201 $203 $313 forward $294 $-1 #
coedge $-1 $201 $409 $207 $315 reversed $294 $-1 #
straight-curve $-1 13.5 22.5 20 0 0 1 F -6.549999999999999822 F 1.550000000000000711 #
coedge $-1 $203 $400 $410 $411 reversed $204 $-1 #
edge $-1 $205 -11.5 $412 -9.330127018922194537 $203 $413 forward 7 unknown #
point $-1 13.5 22.5 15 #
edge $-1 $208 -6.5 $414 -4.330127018922194537 $207 $388 forward 7 unknown #
point $-1 13.5 22.5 20 #
coedge $-1 $213 $212 $415 $416 forward $214 $-1 #
face $417 $418 $214 $4 $-1 $419 forward single #
coedge $-1 $420 $216 $421 $422 forward $126 $-1 #
coedge $-1 $225 $235 $216 $321 forward $236 $-1 #
edge $-1 $423 -4.5 $227 -1.5 $320 $128 forward 7 unknown #
coedge $-1 $217 $424 $425 $426 forward $126 $-1 #
coedge $-1 $427 $415 $217 $324 forward $428 $-1 #
edge $-1 $325 -4.5 $429 4.5 $323 $430 forward 7 unknown #
vertex $-1 $324 $431 #
ellipse-curve $-1 14.5 14.5 15 0 0 1 0.3535533905932737309 0.3535533905932737309 0 1 I I #
coedge $-1 $327 $327 $432 $433 forward $219 $-1 #
fmesh-eye-attrib $-1 $434 $-1 $220 #
face $435 $436 $437 $4 $-1 $438 reversed single #
plane-surface $-1 10 10 15 0 0 1 1 0 0 forward_v I I I I #
coedge $-1 $439 $222 $440 $441 forward $21 $-1 #
coedge $-1 $415 $427 $222 $333 reversed $428 $-1 #
edge $-1 $334 -2 $442 7 $222 $443 forward 7 unknown #
vertex $-1 $333 $444 #
ellipse-curve $-1 14.5 14.5 20 -0 -0 -1 0.3535533905932737309 0.3535533905932737309 0 1 I I #
straight-curve $-1 8.5 15 17.5 0 0 1 I I #
point $-1 8.5 15 15 #
fmesh-eye-attrib $-1 $-1 $229 $134 #
fmesh-eye-attrib $-1 $445 $-1 $230 #
coedge $-1 $232 $439 $446 $447 forward $21 $-1 #
coedge $-1 $448 $449 $232 $342 reversed $450 $-1 #
edge $-1 $451 -7 $346 2 $232 $452 forward 7 unknown #
coedge $-1 $421 $233 $449 $453 forward $345 $-1 #
coedge $-1 $233 $421 $235 $348 forward $345 $-1 #
loop $-1 $-1 $344 $454 #
vertex $-1 $234 $455 #
ellipse-curve $-1 5.5 14.5 20 -0 -0 -1 -0.3535533905932737309 0.3535533905932737309 0 1 I I #
edge $-1 $423 -2.5 $237 2.5 $235 $456 forward 7 unknown #
point $-1 5.5 15 20 #
coedge $-1 $240 $239 $457 $458 reversed $241 $-1 #
face $459 $245 $241 $4 $-1 $460 reversed single #
coedge $-1 $251 $457 $243 $353 forward $365 $-1 #
edge $-1 $354 -15 $255 15 $243 $461 forward 7 unknown #
vertex $-1 $353 $462 #
straight-curve $-1 0 30 10 0 0 -1 I I #
fmesh-eye-attrib $-1 $463 $-1 $245 #
loop $-1 $146 $464 $245 #
plane-surface $-1 15 30 10 0 -1 0 0 0 -1 forward_v I I I I #
coedge $-1 $457 $251 $247 $360 forward $365 $-1 #
edge $-1 $253 -15 $361 15 $247 $465 forward 7 unknown #
vertex $-1 $458 $466 #
straight-curve $-1 0 0 10 0 0 -1 I I #
fmesh-eye-attrib $-1 $467 $-1 $249 #
plane-surface $-1 15 0 10 0 1 0 0 0 1 forward_v I I I I #
loop $-1 $-1 $251 $436 #
straight-curve $-1 30 15 0 0 -1 0 I I #
point $-1 30 0 0 #
point $-1 30 30 0 #
fmesh-eye-attrib $-1 $-1 $257 $157 #
coedge $-1 $370 $370 $468 $469 forward $258 $-1 #
coedge $-1 $261 $260 $306 $407 reversed $262 $-1 #
point $-1 13 18 20 #
coedge $-1 $269 $306 $265 $374 reversed $204 $-1 #
edge $-1 $271 -0.6698729810778054627 $375 1.5 $373 $288 forward 7 unknown #
vertex $-1 $266 $470 #
straight-curve $-1 13.5 17.5 20 0 0 -1 F -1.550000000000000711 F 6.549999999999999822 #
fmesh-eye-attrib $-1 $-1 $-1 $267 #
ellipse-curve $-1 20 20 15 0 0 -1 5 0 0 1 I I #
point $-1 15.66987298107780546 17.5 15 #
fmesh-eye-attrib $-1 $-1 $273 $169 #
fmesh-eye-attrib $-1 $471 $-1 $274 #
loop $-1 $472 $473 $274 #
cone-surface $-1 20 20 10 0.7071067811865475727 -0.7071067811865474617 -8.881784197001251584e-17 1.767766952966368654 1.767766952966368876 2.465190328815661892e-32 1 I I 0 1 2.5 forward I I I I #
coedge $-1 $474 $475 $276 $385 reversed $476 $-1 #
edge $-1 $414 -2.617993877991494411 $387 -0.5235987755982988157 $276 $92 forward 7 unknown #
coedge $-1 $298 $277 $475 $477 reversed $109 $-1 #
vertex $-1 $477 $478 #
straight-curve $-1 20 22.5 20 1 0 0 I I #
point $-1 26.5 22.5 20 #
coedge $-1 $300 $284 $282 $391 reversed $204 $-1 #
edge $-1 $302 -2 $286 2 $390 $479 forward 7 unknown #
ellipse-curve $-1 26.5 18 15 0 0 1 0.3535533905932737309 -0.3535533905932737309 0 1 I I #
point $-1 27 18 15 #
fmesh-eye-attrib $-1 $-1 $292 $189 #
fmesh-eye-attrib $-1 $480 $-1 $293 #
face $481 $169 $476 $4 $-1 $275 reversed single #
plane-surface $-1 20 20 15 0 0 -1 -1 0 0 forward_v I I I I #
fmesh-eye-attrib $-1 $-1 $-1 $296 #
cone-surface $-1 13.5 18 20 -0 -0 -1 -0.3535533905932737309 -0.3535533905932737309 0 1 I I 0 -1 0.4999999999999999445 forward I I I I #
coedge $-1 $312 $300 $298 $401 reversed $204 $-1 #
edge $-1 $482 -0.6698729810778054627 $402 1.5 $400 $413 forward 7 unknown #
vertex $-1 $299 $483 #
straight-curve $-1 26.5 22.5 20 0 0 -1 F -1.550000000000000711 F 6.549999999999999822 #
ellipse-curve $-1 26.5 22 15 0 0 1 0.3535533905932737309 0.3535533905932737309 0 1 I I #
point $-1 27 22 15 #
straight-curve $-1 13 18 20 0 0 1 F -6.549999999999999822 F 1.550000000000000711 #
edge $-1 $307 -0.785398163397448279 $375 0.785398163397448279 $306 $484 forward 7 unknown #
point $-1 13 18 15 #
coedge $-1 $310 $309 $474 $485 reversed $294 $-1 #
coedge $-1 $475 $474 $312 $411 forward $476 $-1 #
edge $-1 $412 -2.617993877991494411 $482 -0.5235987755982988157 $312 $378 forward 7 unknown #
vertex $-1 $411 $486 #
straight-curve $-1 25 22.5 15 1 0 0 I I #
vertex $-1 $385 $487 #
coedge $-1 $323 $332 $317 $416 reversed $428 $-1 #
edge $-1 $325 -2.5 $334 2.5 $415 $488 forward 7 unknown #
fmesh-eye-attrib $-1 $-1 $-1 $318 #
face $489 $490 $491 $4 $-1 $492 forward single #
cone-surface $-1 14.5 14.5 17.5 -0 -0 -1 0.3535533905932737309 0.3535533905932737309 0 1 I I 0 -1 0.4999999999999999445 forward I I I I #
coedge $-1 $493 $319 $494 $495 reversed $126 $-1 #
coedge $-1 $344 $343 $319 $422 reversed $345 $-1 #
edge $-1 $423 -0.785398163397448279 $496 0.785398163397448279 $319 $497 forward 7 unknown #
vertex $-1 $321 $498 #
coedge $-1 $322 $493 $499 $500 reversed $126 $-1 #
coedge $-1 $501 $502 $322 $426 reversed $491 $-1 #
edge $-1 $503 -0.785398163397448279 $429 0.785398163397448279 $322 $504 forward 7 unknown #
coedge $-1 $332 $323 $502 $505 reversed $428 $-1 #
loop $-1 $-1 $415 $490 #
vertex $-1 $505 $506 #
straight-curve $-1 15 10 15 0 -1 0 I I #
point $-1 15 14.5 15 #
coedge $-1 $432 $432 $327 $433 reversed $437 $-1 #
edge $-1 $507 -3.141592653589800221 $507 3.141592653589786011 $327 $508 forward 7 unknown #
fmesh-eye-attrib $-1 $-1 $328 $220 #
fmesh-eye-attrib $-1 $509 $-1 $329 #
face $510 $249 $511 $4 $-1 $512 reversed single #
loop $-1 $513 $432 $329 #
cone-surface $-1 10 10 10 0 0 1 2.5 0 0 1 I I 0 1 2.5 forward I I I I #
coedge $-1 $340 $331 $514 $515 forward $21 $-1 #
coedge $-1 $502 $501 $331 $441 reversed $491 $-1 #
edge $-1 $442 -0.785398163397448279 $516 0.785398163397448279 $331 $517 forward 7 unknown #
vertex $-1 $441 $518 #
straight-curve $-1 15 12.5 20 0 -1 0 I I #
point $-1 15 14.5 20 #
fmesh-eye-attrib $-1 $-1 $339 $230 #
coedge $-1 $519 $520 $340 $447 reversed $521 $-1 #
edge $-1 $522 -0.785398163397448279 $451 0.785398163397448279 $340 $523 forward 7 unknown #
coedge $-1 $494 $341 $520 $524 reversed $450 $-1 #
coedge $-1 $341 $494 $343 $453 reversed $450 $-1 #
loop $-1 $-1 $448 $525 #
vertex $-1 $342 $526 #
straight-curve $-1 5 12.5 20 0 1 0 I I #
edge $-1 $346 -2.5 $496 2.5 $449 $527 forward 7 unknown #
face $528 $525 $345 $4 $-1 $529 forward single #
point $-1 5 14.5 20 #
straight-curve $-1 5.5 15 17.5 0 0 1 F -4.049999999999999822 F 4.050000000000000711 #
coedge $-1 $352 $359 $350 $458 forward $365 $-1 #
edge $-1 $361 -15 $354 15 $350 $530 forward 7 unknown #
fmesh-eye-attrib $-1 $531 $-1 $351 #
plane-surface $-1 0 15 10 1 0 0 0 0 -1 forward_v I I I I #
straight-curve $-1 15 30 0 1 0 0 I I #
point $-1 0 30 0 #
fmesh-eye-attrib $-1 $-1 $356 $245 #
coedge $-1 $464 $464 $473 $532 forward $357 $-1 #
straight-curve $-1 15 0 0 -1 0 0 I I #
point $-1 0 0 0 #
fmesh-eye-attrib $-1 $-1 $363 $249 #
coedge $-1 $468 $468 $370 $469 reversed $472 $-1 #
edge $-1 $533 -3.141592653589800221 $533 3.141592653589786011 $370 $534 forward 7 unknown #
point $-1 13.5 17.5 15 #
fmesh-eye-attrib $-1 $-1 $381 $274 #
loop $-1 $-1 $468 $274 #
coedge $-1 $473 $473 $464 $532 reversed $382 $-1 #
coedge $-1 $410 $384 $409 $485 forward $476 $-1 #
coedge $-1 $384 $410 $386 $477 forward $476 $-1 #
loop $-1 $-1 $475 $396 #
edge $-1 $482 -2.5 $387 2.5 $475 $535 forward 7 unknown #
point $-1 24.33012701892219454 22.5 20 #
straight-curve $-1 27 20 15 0 -1 0 I I #
fmesh-eye-attrib $-1 $-1 $395 $293 #
fmesh-eye-attrib $-1 $536 $-1 $396 #
vertex $-1 $411 $537 #
point $-1 26.5 22.5 15 #
ellipse-curve $-1 13.5 18 15 0 0 1 -0.3535533905932737309 -0.3535533905932737309 0 1 I I #
edge $-1 $414 -2.5 $412 2.5 $474 $538 forward 7 unknown #
point $-1 15.66987298107780546 22.5 15 #
point $-1 15.66987298107780546 22.5 20 #
straight-curve $-1 15 14.5 17.5 0 0 1 F -4.049999999999999822 F 4.050000000000000711 #
fmesh-eye-attrib $-1 $-1 $-1 $418 #
face $539 $540 $428 $4 $-1 $541 forward single #
loop $-1 $-1 $501 $418 #
cone-surface $-1 14.5 5.5 17.5 0 0 -1 0.3535533905932737309 -0.3535533905932737309 0 1 I I 0 -1 0.4999999999999999445 forward I I I I #
coedge $-1 $424 $420 $542 $543 forward $126 $-1 #
coedge $-1 $449 $448 $420 $495 forward $450 $-1 #
edge $-1 $544 -4.5 $496 4.5 $494 $545 forward 7 unknown #
vertex $-1 $453 $546 #
ellipse-curve $-1 5.5 14.5 15 0 0 1 -0.3535533905932737309 0.3535533905932737309 0 1 I I #
point $-1 5.5 15 15 #
coedge $-1 $547 $548 $424 $500 forward $549 $-1 #
edge $-1 $503 -4.5 $550 4.5 $499 $551 forward 7 unknown #
coedge $-1 $440 $425 $548 $552 forward $491 $-1 #
coedge $-1 $425 $440 $427 $505 forward $491 $-1 #
vertex $-1 $500 $553 #
ellipse-curve $-1 14.5 5.5 15 0 0 1 0.3535533905932737309 -0.3535533905932737309 0 1 I I #
edge $-1 $442 -2.5 $429 2.5 $427 $554 forward 7 unknown #
point $-1 15 5.5 15 #
vertex $-1 $433 $555 #
ellipse-curve $-1 10 10 15 -0 -0 -1 2.5 0 0 1 I I #
fmesh-eye-attrib $-1 $-1 $435 $329 #
fmesh-eye-attrib $-1 $556 $-1 $436 #
loop $-1 $365 $557 $436 #
plane-surface $-1 15 15 0 0 0 1 1 0 0 forward_v I I I I #
loop $-1 $-1 $558 $329 #
coedge $-1 $548 $547 $439 $515 reversed $549 $-1 #
edge $-1 $516 -2 $522 7 $439 $559 forward 7 unknown #
vertex $-1 $515 $560 #
ellipse-curve $-1 14.5 5.5 20 -0 -0 -1 0.3535533905932737309 -0.3535533905932737309 0 1 I I #
point $-1 15 5.5 20 #
coedge $-1 $542 $446 $547 $561 forward $521 $-1 #
coedge $-1 $446 $542 $448 $524 forward $521 $-1 #
loop $-1 $-1 $520 $540 #
vertex $-1 $447 $562 #
ellipse-curve $-1 5.5 5.5 20 -0 -0 -1 -0.3535533905932737309 -0.3535533905932737309 0 1 I I #
edge $-1 $544 -2.5 $451 2.5 $448 $563 forward 7 unknown #
face $564 $104 $450 $4 $-1 $565 forward single #
point $-1 5 5.5 20 #
straight-curve $-1 5 14.5 17.5 0 0 -1 F -4.050000000000000711 F 4.049999999999999822 #
fmesh-eye-attrib $-1 $-1 $-1 $454 #
cone-surface $-1 5.5 14.5 17.5 0 0 -1 -0.3535533905932737309 0.3535533905932737309 0 1 I I 0 -1 0.4999999999999999445 forward I I I I #
straight-curve $-1 0 15 0 0 1 0 I I #
fmesh-eye-attrib $-1 $-1 $459 $351 #
edge $-1 $566 -3.141592653589800221 $566 3.141592653589786011 $464 $567 forward 7 unknown #
vertex $-1 $469 $568 #
ellipse-curve $-1 30 10.00000000000000178 9.999999999999998224 -1 0 0 0 3.535533905932737309 2.220446049250312834e-16 0.7071067811865475727 I I #
straight-curve $-1 24.33012701892219454 22.5 17.5 0 0 1 I I #
fmesh-eye-attrib $-1 $-1 $481 $396 #
point $-1 24.33012701892219454 22.5 15 #
straight-curve $-1 15.66987298107780546 22.5 17.5 0 0 -1 I I #
fmesh-eye-attrib $-1 $-1 $-1 $490 #
face $569 $570 $521 $4 $-1 $571 forward single #
plane-surface $-1 15 10 17.5 -1 0 0 0 0 1 forward_v I I I I #
coedge $-1 $520 $519 $493 $543 reversed $521 $-1 #
edge $-1 $544 -0.785398163397448279 $550 0.785398163397448279 $493 $572 forward 7 unknown #
vertex $-1 $495 $573 #
straight-curve $-1 5 10 15 0 1 0 I I #
point $-1 5 14.5 15 #
coedge $-1 $514 $499 $519 $561 reversed $549 $-1 #
coedge $-1 $499 $514 $501 $552 reversed $549 $-1 #
loop $-1 $-1 $548 $570 #
vertex $-1 $561 $574 #
straight-curve $-1 10 5 15 -1 0 0 I I #
edge $-1 $503 -2.5 $516 2.5 $548 $575 forward 7 unknown #
point $-1 14.5 5 15 #
straight-curve $-1 15 5.5 17.5 0 0 -1 F -4.050000000000000711 F 4.049999999999999822 #
point $-1 7.5 9.999999999999982236 15 #
fmesh-eye-attrib $-1 $-1 $510 $436 #
coedge $-1 $557 $557 $558 $576 forward $511 $-1 #
coedge $-1 $558 $558 $557 $576 reversed $513 $-1 #
straight-curve $-1 12.5 5 20 -1 0 0 I I #
point $-1 14.5 5 20 #
edge $-1 $522 -2.5 $550 2.5 $547 $577 forward 7 unknown #
point $-1 5.5 5 20 #
straight-curve $-1 5 5.5 17.5 0 0 1 F -4.049999999999999822 F 4.050000000000000711 #
fmesh-eye-attrib $-1 $-1 $-1 $525 #
plane-surface $-1 5 10 17.5 1 0 0 0 0 -1 forward_v I I I I #
vertex $-1 $532 $578 #
ellipse-curve $-1 9.999999999999996447 30 10 0 -1 0 3.535533905932737753 0 -2.220446049250312834e-16 0.7071067811865474617 I I #
point $-1 30 6.464466094067264024 9.99999999999998046 #
fmesh-eye-attrib $-1 $-1 $-1 $540 #
face $579 $454 $549 $4 $-1 $580 forward single #
cone-surface $-1 5.5 5.5 17.5 -0 -0 -1 -0.3535533905932737309 -0.3535533905932737309 0 1 I I 0 -1 0.4999999999999999445 forward I I I I #
ellipse-curve $-1 5.5 5.5 15 0 0 1 -0.3535533905932737309 -0.3535533905932737309 0 1 I I #
point $-1 5 5.5 15 #
point $-1 5.5 5 15 #
straight-curve $-1 14.5 5 17.5 0 0 1 F -4.049999999999999822 F 4.050000000000000711 #
edge $-1 $581 0 $581 6.283185307179586232 $557 $582 forward 7 unknown #
straight-curve $-1 5.5 5 17.5 0 0 -1 F -4.050000000000000711 F 4.049999999999999822 #
point $-1 6.464466094067258695 30 10.00000000000001776 #
fmesh-eye-attrib $-1 $-1 $-1 $570 #
plane-surface $-1 10 5 17.5 0 1 0 0 0 1 forward_v I I I I #
vertex $-1 $576 $583 #
ellipse-curve $-1 10 10 0 0 0 1 2.5 0 0 1 I I #
point $-1 12.5 10 0 #
End-of-ACIS-data 