600 0 2 0           
24 FBMach with ACIS - 6.0.3 13 ACIS 6.0.3 NT 24 Tue May 22 12:37:23 2001 
1 9.9999999999999995e-007 1e-010 
body $2 $3 $-1 $4 #
bdycol-kcp $-1 1 2 $5 $6 #
model_id-kcp-attrib $-1 $-1 $-1 $0 1 990549442 50 758251521 1 #
lump $-1 $-1 $7 $0 #
transform $-1 1 0 0 0 1 0 0 0 1 0 0 0 1 no_rotate no_reflect no_shear #
body $8 $9 $-1 $10 #
body $11 $12 $-1 $13 #
shell $-1 $-1 $-1 $14 $-1 $3 #
model_id-kcp-attrib $-1 $-1 $-1 $5 1 990549442 50 758251522 1 #
lump $-1 $-1 $15 $5 #
transform $-1 1 0 0 0 1 0 0 0 1 0 0 0 1 no_rotate no_reflect no_shear #
rgb_color-st-attrib $-1 $16 $-1 $6 0 0 1 #
lump $-1 $-1 $17 $6 #
transform $-1 1 0 0 0 1 0 0 0 1 0 0 0 1 no_rotate no_reflect no_shear #
face $18 $19 $20 $7 $-1 $21 reversed single #
shell $-1 $-1 $-1 $22 $-1 $9 #
model_id-kcp-attrib $-1 $-1 $11 $6 1 990549442 370 762445827 1 #
shell $-1 $-1 $-1 $23 $-1 $12 #
model_id-kcp-attrib $-1 $-1 $-1 $14 1 990549442 50 758251521 2 #
face $24 $25 $26 $7 $-1 $27 forward single #
loop $-1 $-1 $28 $14 #
cone-surface $-1 29 -14 22.5 0 0 -1 4.2426406871192803 -4.2426406871192803 0 1 I I 0 1 5.9999999999999929 forward I I I I #
face $29 $30 $31 $15 $-1 $32 forward single #
face $-1 $33 $34 $17 $-1 $35 forward single #
model_id-kcp-attrib $-1 $-1 $-1 $19 1 990549442 50 758251521 3 #
face $36 $37 $38 $7 $-1 $39 reversed single #
loop $-1 $-1 $40 $19 #
plane-surface $-1 20 -20 22.5 0 1 0 0 0 1.5 forward_v I I I I #
coedge $-1 $41 $42 $43 $44 reversed $20 $-1 #
model_id-kcp-attrib $-1 $-1 $-1 $22 1 990549442 50 758251522 2 #
face $45 $46 $47 $15 $-1 $48 reversed single #
loop $-1 $-1 $49 $22 #
plane-surface $-1 0 0 50 0 0 1 1 0 0 forward_v I I I I #
face $-1 $50 $51 $17 $-1 $52 forward single #
loop $-1 $-1 $53 $23 #
plane-surface $-1 29 -20 -15 0 -1 0 0 0 -1 forward_v I I I I #
model_id-kcp-attrib $-1 $-1 $-1 $25 1 990549442 50 758251521 4 #
face $54 $55 $56 $7 $-1 $57 forward single #
loop $-1 $-1 $58 $25 #
cone-surface $-1 -5.9999999999999503 -14 22.5 0 0 -1 -4.2426406871192803 -4.2426406871192803 0 1 I I 0 1 5.9999999999999929 forward I I I I #
coedge $-1 $59 $60 $61 $62 reversed $26 $-1 #
coedge $-1 $63 $28 $64 $65 reversed $20 $-1 #
coedge $-1 $28 $63 $59 $66 reversed $20 $-1 #
coedge $-1 $61 $67 $28 $44 forward $68 $-1 #
edge $69 $70 -0.78539816339744828 $71 0.78539816339744828 $43 $72 forward 7 unknown #
model_id-kcp-attrib $-1 $-1 $-1 $30 1 990549442 50 758251522 3 #
face $73 $74 $75 $15 $-1 $76 reversed single #
loop $-1 $-1 $77 $30 #
plane-surface $-1 0 0 -50 0 0 1 1 0 0 forward_v I I I I #
coedge $-1 $78 $79 $80 $81 forward $31 $-1 #
face $-1 $82 $83 $17 $-1 $84 forward single #
loop $-1 $-1 $85 $33 #
cone-surface $-1 -5.9999999999999503 -14 -15 0 0 1 -4.2426406871192803 -4.2426406871192803 0 1 I I 0 1 5.9999999999999929 forward I I I I #
coedge $-1 $86 $87 $88 $89 forward $34 $-1 #
model_id-kcp-attrib $-1 $-1 $-1 $37 1 990549442 50 758251521 5 #
face $90 $91 $92 $7 $-1 $93 reversed single #
loop $-1 $-1 $94 $37 #
plane-surface $-1 -12 -5 22.5 1 0 0 0 0 -1.5 forward_v I I I I #
coedge $-1 $95 $96 $97 $98 reversed $38 $-1 #
coedge $-1 $99 $40 $42 $66 forward $26 $-1 #
coedge $-1 $40 $99 $95 $100 forward $26 $-1 #
coedge $-1 $97 $43 $40 $62 forward $68 $-1 #
edge $101 $71 -19 $102 15.99999999999995 $61 $103 forward 7 unknown #
coedge $-1 $42 $41 $104 $105 reversed $20 $-1 #
coedge $-1 $106 $107 $41 $65 forward $108 $-1 #
edge $-1 $109 -25 $70 18.333333333333332 $64 $110 forward 7 unknown #
edge $-1 $71 -18.333333333333332 $111 25 $59 $112 forward 7 unknown #
coedge $-1 $43 $113 $106 $114 forward $68 $-1 #
loop $-1 $115 $116 $117 #
attrib_edge_convexity-kcp-attrib $-1 $118 $-1 $44 1 #
vertex $-1 $114 $119 #
vertex $-1 $62 $120 #
ellipse-curve $-1 29 -14 50 0 0 -1 4.2426406871192803 -4.2426406871192803 0 1 I I #
model_id-kcp-attrib $-1 $-1 $-1 $46 1 990549442 50 758251522 4 #
face $121 $122 $123 $15 $-1 $124 reversed single #
loop $-1 $-1 $125 $46 #
plane-surface $-1 0 -50 0 0 1 0 0 0 1 forward_v I I I I #
coedge $-1 $126 $127 $128 $129 forward $47 $-1 #
coedge $-1 $130 $49 $131 $132 forward $31 $-1 #
coedge $-1 $49 $130 $133 $134 forward $31 $-1 #
coedge $-1 $135 $136 $49 $81 reversed $137 $-1 #
edge $-1 $138 -50 $139 50 $80 $140 forward 7 unknown #
face $-1 $141 $142 $17 $-1 $143 forward single #
loop $-1 $-1 $144 $50 #
plane-surface $-1 -12 -14 -15 -1 0 0 0 0 1 forward_v I I I I #
coedge $-1 $145 $146 $147 $148 forward $51 $-1 #
coedge $-1 $149 $53 $146 $150 reversed $34 $-1 #
coedge $-1 $53 $149 $151 $152 forward $34 $-1 #
coedge $-1 $153 $147 $53 $89 reversed $154 $-1 #
edge $-1 $155 -13.25 $156 21.74999999999995 $53 $157 forward 7 unknown #
model_id-kcp-attrib $-1 $-1 $-1 $55 1 990549442 50 758251521 6 #
face $158 $159 $160 $7 $-1 $161 forward single #
loop $-1 $-1 $162 $55 #
cone-surface $-1 -5.9999999999999503 14 22.5 0 0 -1 -4.2426406871192803 4.2426406871192803 0 1 I I 0 1 5.9999999999999929 forward I I I I #
coedge $-1 $163 $164 $165 $166 reversed $56 $-1 #
coedge $-1 $167 $58 $60 $100 reversed $38 $-1 #
coedge $-1 $58 $167 $163 $168 reversed $38 $-1 #
coedge $-1 $165 $61 $58 $98 forward $68 $-1 #
edge $169 $102 -0.78539816339744828 $170 0.78539816339744828 $97 $171 forward 7 unknown #
coedge $-1 $60 $59 $172 $173 forward $26 $-1 #
edge $-1 $174 -25 $102 18.333333333333332 $60 $175 forward 7 unknown #
attrib_edge_convexity-kcp-attrib $-1 $176 $-1 $62 1 #
vertex $-1 $98 $177 #
straight-curve $-1 10 -20 50 -1 0 0 I I #
coedge $-1 $178 $172 $63 $105 forward $160 $-1 #
edge $-1 $111 -0.78539816339744828 $109 0.78539816339744828 $104 $179 forward 7 unknown #
coedge $-1 $180 $64 $67 $114 reversed $108 $-1 #
coedge $-1 $64 $180 $178 $181 forward $108 $-1 #
loop $-1 $-1 $106 $182 #
vertex $-1 $181 $183 #
straight-curve $-1 35 -14 22.5 0 0 1.5 I I #
vertex $-1 $105 $184 #
straight-curve $-1 29 -20 22.5 0 0 -1.5 I I #
coedge $-1 $67 $185 $186 $187 forward $68 $-1 #
edge $188 $189 -16.5 $70 11.5 $67 $190 forward 7 unknown #
loop $-1 $-1 $191 $117 #
coedge $-1 $185 $165 $162 $192 forward $68 $-1 #
face $193 $194 $68 $7 $-1 $195 forward single #
convexity-sys-attrib $-1 $-1 $69 $44 #
point $-1 35 -14 50 #
point $-1 29 -20 50 #
model_id-kcp-attrib $-1 $-1 $-1 $74 1 990549442 50 758251522 5 #
face $196 $197 $198 $15 $-1 $199 reversed single #
loop $-1 $-1 $200 $74 #
plane-surface $-1 -50 0 0 1 0 0 0 0 -1 forward_v I I I I #
coedge $-1 $201 $133 $202 $203 forward $75 $-1 #
coedge $-1 $204 $77 $201 $205 forward $47 $-1 #
coedge $-1 $77 $204 $206 $207 forward $47 $-1 #
coedge $-1 $136 $135 $77 $129 reversed $137 $-1 #
edge $-1 $208 -50 $209 50 $128 $210 forward 7 unknown #
coedge $-1 $79 $78 $211 $212 forward $31 $-1 #
coedge $-1 $213 $214 $78 $132 reversed $198 $-1 #
edge $-1 $139 -50 $215 50 $131 $216 forward 7 unknown #
coedge $-1 $125 $217 $79 $134 reversed $75 $-1 #
edge $-1 $218 -50 $138 50 $133 $219 forward 7 unknown #
coedge $-1 $128 $80 $217 $220 forward $137 $-1 #
coedge $-1 $80 $128 $213 $221 reversed $137 $-1 #
loop $-1 $-1 $135 $197 #
vertex $-1 $81 $222 #
vertex $-1 $81 $223 #
straight-curve $-1 50 0 50 0 1 0 I I #
face $-1 $224 $225 $17 $-1 $226 forward single #
loop $-1 $-1 $227 $82 #
cone-surface $-1 -5.9999999999999503 14 -15 0 0 1 -4.2426406871192803 4.2426406871192803 0 1 I I 0 1 5.9999999999999929 forward I I I I #
coedge $-1 $228 $229 $230 $231 forward $83 $-1 #
coedge $-1 $232 $85 $229 $233 reversed $51 $-1 #
coedge $-1 $85 $232 $86 $150 forward $51 $-1 #
coedge $-1 $88 $230 $85 $148 reversed $154 $-1 #
edge $-1 $156 -0.78539816339744828 $234 0.78539816339744828 $85 $235 forward 7 unknown #
coedge $-1 $87 $86 $236 $237 reversed $34 $-1 #
edge $238 $239 0 $156 65 $146 $240 forward 7 unknown #
coedge $-1 $241 $242 $87 $152 reversed $243 $-1 #
edge $-1 $244 0 $155 65 $87 $245 forward 7 unknown #
coedge $-1 $246 $88 $242 $247 reversed $154 $-1 #
loop $-1 $-1 $88 $248 #
vertex $-1 $152 $249 #
vertex $-1 $150 $250 #
straight-curve $-1 15.75 -20 50 -1 0 0 I I #
model_id-kcp-attrib $-1 $-1 $-1 $91 1 990549442 50 758251521 7 #
face $251 $252 $253 $7 $-1 $254 forward single #
loop $-1 $-1 $172 $91 #
plane-surface $-1 20 -5 -15 0 0 1 1.5 0 0 forward_v I I I I #
coedge $-1 $255 $256 $116 $192 reversed $92 $-1 #
coedge $-1 $257 $94 $96 $168 forward $56 $-1 #
coedge $-1 $94 $257 $255 $258 forward $56 $-1 #
coedge $-1 $116 $97 $94 $166 forward $68 $-1 #
edge $259 $170 -11.5 $260 16.5 $165 $261 forward 7 unknown #
coedge $-1 $96 $95 $262 $263 reversed $38 $-1 #
edge $-1 $170 -18.333333333333332 $264 25 $163 $265 forward 7 unknown #
attrib_edge_convexity-kcp-attrib $-1 $266 $-1 $98 1 #
vertex $-1 $166 $267 #
ellipse-curve $-1 -5.9999999999999503 -14 50 0 0 -1 -4.2426406871192803 -4.2426406871192803 0 1 I I #
coedge $-1 $104 $262 $99 $173 reversed $160 $-1 #
edge $-1 $111 -6 $174 17.3333333333333 $99 $268 forward 7 unknown #
vertex $-1 $173 $269 #
straight-curve $-1 -5.9999999999999503 -20 22.5 0 0 1.5 I I #
convexity-sys-attrib $-1 $-1 $101 $62 #
point $-1 -5.9999999999999503 -20 50 #
coedge $-1 $270 $104 $107 $181 reversed $160 $-1 #
ellipse-curve $-1 29 -14 -15 0 0 1 4.2426406871192803 -4.2426406871192803 0 1 I I #
coedge $-1 $107 $106 $271 $272 forward $108 $-1 #
edge $-1 $273 -6 $109 12.666666666666666 $107 $274 forward 7 unknown #
face $275 $117 $108 $7 $-1 $276 forward single #
point $-1 35 -14 -15 #
point $-1 29 -20 -15 #
coedge $-1 $113 $116 $277 $278 forward $68 $-1 #
coedge $-1 $279 $271 $113 $187 reversed $280 $-1 #
edge $281 $282 -0.78539816339744828 $189 0.78539816339744828 $113 $283 forward 7 unknown #
attrib_edge_convexity-kcp-attrib $-1 $284 $-1 $114 1 #
vertex $-1 $187 $285 #
straight-curve $-1 35 -2.5 50 0 -1 0 I I #
coedge $-1 $286 $287 $288 $289 forward $115 $-1 #
edge $290 $260 -0.78539816339744828 $291 0.78539816339744828 $116 $292 forward 7 unknown #
model_id-kcp-attrib $-1 $-1 $-1 $117 1 990549442 50 758251521 11 #
face $293 $294 $295 $7 $-1 $296 reversed single #
plane-surface $-1 0 0 50 0 0 1 1 0 0 forward_v I I I I #
model_id-kcp-attrib $-1 $-1 $-1 $122 1 990549442 50 758251522 6 #
face $297 $-1 $137 $15 $-1 $298 reversed single #
loop $-1 $-1 $213 $122 #
plane-surface $-1 0 50 0 0 -1 0 0 0 -1 forward_v I I I I #
coedge $-1 $299 $211 $214 $300 forward $123 $-1 #
coedge $-1 $217 $125 $126 $205 reversed $75 $-1 #
coedge $-1 $211 $299 $125 $203 reversed $123 $-1 #
edge $-1 $218 -50 $301 50 $202 $302 forward 7 unknown #
coedge $-1 $127 $126 $299 $303 forward $47 $-1 #
edge $-1 $209 -50 $301 50 $201 $304 forward 7 unknown #
coedge $-1 $214 $213 $127 $207 reversed $198 $-1 #
edge $-1 $305 -50 $208 50 $206 $306 forward 7 unknown #
vertex $-1 $129 $307 #
vertex $-1 $220 $308 #
straight-curve $-1 50 0 -50 0 -1 0 I I #
coedge $-1 $200 $202 $130 $212 reversed $123 $-1 #
edge $-1 $215 -50 $218 50 $211 $309 forward 7 unknown #
coedge $-1 $206 $131 $136 $221 forward $198 $-1 #
coedge $-1 $131 $206 $200 $300 reversed $198 $-1 #
vertex $-1 $132 $310 #
straight-curve $-1 0 50 50 -1 0 0 I I #
coedge $-1 $133 $201 $135 $220 reversed $75 $-1 #
vertex $-1 $212 $311 #
straight-curve $-1 0 -50 50 1 0 0 I I #
edge $-1 $138 -50 $209 50 $135 $312 forward 7 unknown #
edge $-1 $139 -50 $208 50 $136 $313 forward 7 unknown #
point $-1 50 -50 50 #
point $-1 50 50 50 #
face $-1 $314 $315 $17 $-1 $316 forward single #
loop $-1 $-1 $317 $141 #
plane-surface $-1 -5.9999999999999503 20 -15 0 1 0 0 0 1 forward_v I I I I #
coedge $-1 $318 $319 $320 $321 forward $142 $-1 #
coedge $-1 $322 $144 $319 $323 reversed $83 $-1 #
coedge $-1 $144 $322 $145 $233 forward $83 $-1 #
coedge $-1 $147 $320 $144 $231 reversed $154 $-1 #
edge $-1 $234 -11.5 $324 16.5 $144 $325 forward 7 unknown #
coedge $-1 $146 $145 $326 $327 reversed $51 $-1 #
edge $-1 $328 0 $234 65 $229 $329 forward 7 unknown #
vertex $-1 $233 $330 #
ellipse-curve $-1 -5.9999999999999503 -14 50 0 0 -1 -4.2426406871192803 -4.2426406871192803 0 1 I I #
coedge $-1 $326 $331 $149 $237 forward $332 $-1 #
edge $333 $244 -13.25 $239 21.74999999999995 $149 $334 forward 7 unknown #
convexity-sys-attrib $-1 $-1 $-1 $150 #
vertex $-1 $237 $335 #
straight-curve $-1 -5.9999999999999503 -20 -15 0 0 1 I I #
coedge $-1 $336 $151 $331 $337 reversed $243 $-1 #
coedge $-1 $151 $336 $153 $247 forward $243 $-1 #
loop $-1 $-1 $242 $338 #
vertex $-1 $337 $339 #
straight-curve $-1 29 -20 -15 0 0 1 I I #
coedge $-1 $340 $153 $341 $342 reversed $154 $-1 #
edge $-1 $343 -0.78539816339744828 $155 0.78539816339744828 $242 $344 forward 7 unknown #
face $-1 $345 $154 $17 $-1 $346 forward single #
point $-1 29 -20 50 #
point $-1 -5.9999999999999503 -20 50 #
model_id-kcp-attrib $-1 $-1 $-1 $159 1 990549442 50 758251521 8 #
face $347 $182 $280 $7 $-1 $348 reversed single #
loop $-1 $-1 $277 $159 #
plane-surface $-1 20 20 22.5 0 -1 0 0 0 -1.5 forward_v I I I I #
coedge $-1 $349 $162 $164 $258 reversed $92 $-1 #
coedge $-1 $162 $349 $350 $351 reversed $92 $-1 #
coedge $-1 $164 $163 $352 $353 forward $56 $-1 #
edge $-1 $354 -25 $260 18.333333333333332 $164 $355 forward 7 unknown #
attrib_edge_convexity-kcp-attrib $-1 $356 $-1 $166 1 #
vertex $-1 $192 $357 #
straight-curve $-1 -12 -2.5 50 0 1 0 I I #
coedge $-1 $172 $352 $167 $263 forward $160 $-1 #
edge $-1 $264 -0.78539816339744828 $174 0.78539816339744828 $262 $358 forward 7 unknown #
vertex $-1 $168 $359 #
straight-curve $-1 -12 -14 22.5 0 0 -1.5 I I #
convexity-sys-attrib $-1 $-1 $169 $98 #
point $-1 -12 -14 50 #
straight-curve $-1 20 -20 -15 -1.5 0 0 I I #
point $-1 -5.9999999999999503 -20 -15 #
coedge $-1 $360 $178 $361 $362 forward $160 $-1 #
coedge $-1 $186 $361 $180 $272 reversed $280 $-1 #
edge $-1 $189 -18.333333333333332 $273 25 $180 $363 forward 7 unknown #
vertex $-1 $272 $364 #
straight-curve $-1 35 5 -15 0 -1.5 0 I I #
model_id-kcp-attrib $-1 $-1 $-1 $182 1 990549442 50 758251521 10 #
plane-surface $-1 35 -5 22.5 -1 0 0 0 0 1.5 forward_v I I I I #
coedge $-1 $350 $365 $185 $278 reversed $253 $-1 #
edge $366 $291 -15.99999999999995 $282 19 $185 $367 forward 7 unknown #
coedge $-1 $361 $186 $365 $368 reversed $280 $-1 #
loop $-1 $-1 $186 $252 #
attrib_edge_convexity-kcp-attrib $-1 $369 $-1 $187 1 #
vertex $-1 $278 $370 #
ellipse-curve $-1 29 14 50 0 0 -1 4.2426406871192803 4.2426406871192803 0 1 I I #
convexity-sys-attrib $-1 $-1 $188 $114 #
point $-1 35 14 50 #
coedge $-1 $371 $191 $372 $373 forward $115 $-1 #
coedge $-1 $191 $371 $374 $375 forward $115 $-1 #
coedge $-1 $376 $377 $191 $289 reversed $378 $-1 #
edge $379 $380 -50 $381 50 $288 $382 forward 7 unknown #
attrib_edge_convexity-kcp-attrib $-1 $383 $-1 $192 1 #
vertex $-1 $192 $384 #
ellipse-curve $-1 -5.9999999999999503 14 50 0 0 -1 -4.2426406871192803 4.2426406871192803 0 1 I I #
model_id-kcp-attrib $-1 $-1 $-1 $194 1 990549442 50 758251521 12 #
face $385 $386 $387 $7 $-1 $388 reversed single #
loop $-1 $-1 $389 $194 #
plane-surface $-1 0 0 -50 0 0 1 1 0 0 forward_v I I I I #
model_id-kcp-attrib $-1 $-1 $-1 $197 1 990549442 50 758251522 7 #
plane-surface $-1 50 0 0 -1 0 0 0 0 1 forward_v I I I I #
coedge $-1 $202 $200 $204 $303 reversed $123 $-1 #
edge $-1 $215 -50 $305 50 $214 $390 forward 7 unknown #
vertex $-1 $303 $391 #
straight-curve $-1 -50 -50 0 0 0 -1 I I #
edge $-1 $301 -50 $305 50 $299 $392 forward 7 unknown #
straight-curve $-1 0 -50 -50 -1 0 0 I I #
vertex $-1 $207 $393 #
straight-curve $-1 0 50 -50 1 0 0 I I #
point $-1 50 50 -50 #
point $-1 50 -50 -50 #
straight-curve $-1 -50 0 50 0 -1 0 I I #
point $-1 -50 50 50 #
point $-1 -50 -50 50 #
straight-curve $-1 50 -50 0 0 0 -1 I I #
straight-curve $-1 50 50 0 0 0 -1 I I #
face $-1 $338 $394 $17 $-1 $395 forward single #
loop $-1 $-1 $396 $224 #
cone-surface $-1 29 14 -15 0 0 1 4.2426406871192803 4.2426406871192803 0 1 I I 0 1 5.9999999999999929 forward I I I I #
coedge $-1 $397 $398 $399 $400 forward $225 $-1 #
coedge $-1 $401 $227 $398 $402 reversed $142 $-1 #
coedge $-1 $227 $401 $228 $323 forward $142 $-1 #
coedge $-1 $230 $399 $227 $321 reversed $154 $-1 #
edge $-1 $324 -0.78539816339744828 $403 0.78539816339744828 $227 $404 forward 7 unknown #
coedge $-1 $229 $228 $405 $406 reversed $83 $-1 #
edge $-1 $407 0 $324 65 $319 $408 forward 7 unknown #
vertex $-1 $323 $409 #
straight-curve $-1 -12 -2.5 50 0 1 0 I I #
coedge $-1 $405 $236 $232 $327 forward $332 $-1 #
edge $410 $239 -0.78539816339744828 $328 0.78539816339744828 $232 $411 forward 7 unknown #
vertex $-1 $327 $412 #
straight-curve $-1 -12 -14 -15 0 0 1 I I #
point $-1 -12 -14 50 #
coedge $-1 $236 $413 $241 $337 forward $332 $-1 #
loop $-1 $-1 $331 $345 #
convexity-sys-attrib $-1 $-1 $-1 $237 #
straight-curve $-1 15.75 -20 -15 -1 0 0 I I #
point $-1 -5.9999999999999503 -20 -15 #
coedge $-1 $242 $241 $414 $415 forward $243 $-1 #
edge $416 $417 -0.78539816339744828 $244 0.78539816339744828 $241 $418 forward 7 unknown #
face $-1 $248 $243 $17 $-1 $419 forward single #
point $-1 29 -20 -15 #
coedge $-1 $399 $246 $396 $420 reversed $154 $-1 #
coedge $-1 $414 $421 $246 $342 forward $394 $-1 #
edge $-1 $422 -16.5 $343 11.5 $341 $423 forward 7 unknown #
vertex $-1 $415 $424 #
ellipse-curve $-1 29 -14 50 0 0 -1 4.2426406871192803 -4.2426406871192803 0 1 I I #
face $-1 $-1 $332 $17 $-1 $425 reversed single #
plane-surface $-1 11.500000000000014 0 50 0 0 1 1 0 0 forward_v I I I I #
model_id-kcp-attrib $-1 $-1 $-1 $252 1 990549442 50 758251521 9 #
cone-surface $-1 29 14 22.5 0 0 -1 4.2426406871192803 4.2426406871192803 0 1 I I 0 1 5.9999999999999929 forward I I I I #
coedge $-1 $256 $255 $426 $427 reversed $92 $-1 #
coedge $-1 $428 $277 $256 $351 forward $253 $-1 #
edge $-1 $291 -18.333333333333332 $429 25 $350 $430 forward 7 unknown #
coedge $-1 $262 $426 $257 $353 reversed $160 $-1 #
edge $-1 $264 -6 $354 12.666666666666666 $257 $431 forward 7 unknown #
vertex $-1 $353 $432 #
straight-curve $-1 -12 14 22.5 0 0 1.5 I I #
convexity-sys-attrib $-1 $-1 $259 $166 #
point $-1 -12 14 50 #
ellipse-curve $-1 -5.9999999999999503 -14 -15 0 0 1 -4.2426406871192803 -4.2426406871192803 0 1 I I #
point $-1 -12 -14 -15 #
coedge $-1 $426 $270 $428 $433 forward $160 $-1 #
coedge $-1 $271 $279 $270 $362 reversed $280 $-1 #
edge $-1 $273 -0.78539816339744828 $434 0.78539816339744828 $270 $435 forward 7 unknown #
straight-curve $-1 35 14 22.5 0 0 -1.5 I I #
point $-1 35 14 -15 #
coedge $-1 $277 $428 $279 $368 forward $253 $-1 #
attrib_edge_convexity-kcp-attrib $-1 $436 $-1 $278 1 #
straight-curve $-1 10 20 50 1 0 0 I I #
edge $-1 $434 -25 $282 18.333333333333332 $365 $437 forward 7 unknown #
convexity-sys-attrib $-1 $-1 $281 $187 #
point $-1 29 20 50 #
coedge $-1 $287 $286 $438 $439 forward $115 $-1 #
coedge $-1 $440 $441 $286 $373 reversed $442 $-1 #
edge $443 $381 -50 $444 50 $372 $445 forward 7 unknown #
coedge $-1 $446 $447 $287 $375 reversed $387 $-1 #
edge $448 $449 -50 $380 50 $374 $450 forward 7 unknown #
coedge $-1 $451 $288 $447 $452 forward $378 $-1 #
coedge $-1 $288 $451 $440 $453 reversed $378 $-1 #
loop $-1 $-1 $376 $454 #
attrib_edge_convexity-kcp-attrib $-1 $455 $-1 $289 1 #
vertex $-1 $289 $456 #
vertex $-1 $289 $457 #
straight-curve $-1 50 0 50 0 1 0 I I #
convexity-sys-attrib $-1 $-1 $290 $192 #
point $-1 -5.9999999999999503 20 50 #
model_id-kcp-attrib $-1 $-1 $-1 $294 1 990549442 50 758251521 13 #
face $458 $459 $460 $7 $-1 $461 reversed single #
loop $-1 $-1 $446 $294 #
plane-surface $-1 0 -50 0 0 1 0 0 0 1 forward_v I I I I #
coedge $-1 $462 $463 $451 $464 forward $295 $-1 #
straight-curve $-1 -50 50 0 0 0 -1 I I #
point $-1 -50 -50 -50 #
straight-curve $-1 -50 0 -50 0 1 0 I I #
point $-1 -50 50 -50 #
loop $-1 $-1 $341 $314 #
plane-surface $-1 35 14 -15 1 0 0 0 0 -1 forward_v I I I I #
coedge $-1 $465 $466 $340 $420 forward $315 $-1 #
coedge $-1 $467 $317 $466 $468 reversed $225 $-1 #
coedge $-1 $317 $467 $318 $402 forward $225 $-1 #
coedge $-1 $320 $340 $317 $400 reversed $154 $-1 #
edge $-1 $403 -21.74999999999995 $469 13.25 $317 $470 forward 7 unknown #
coedge $-1 $319 $318 $471 $472 reversed $142 $-1 #
edge $-1 $473 0 $403 65 $398 $474 forward 7 unknown #
vertex $-1 $402 $475 #
ellipse-curve $-1 -5.9999999999999503 14 50 0 0 -1 -4.2426406871192803 4.2426406871192803 0 1 I I #
coedge $-1 $471 $326 $322 $406 forward $332 $-1 #
edge $476 $328 -11.5 $407 16.5 $322 $477 forward 7 unknown #
vertex $-1 $406 $478 #
straight-curve $-1 -12 14 -15 0 0 1 I I #
point $-1 -12 14 50 #
convexity-sys-attrib $-1 $-1 $-1 $327 #
ellipse-curve $-1 -5.9999999999999503 -14 -15 0 0 -1 -4.2426406871192803 -4.2426406871192803 0 1 I I #
point $-1 -12 -14 -15 #
coedge $-1 $331 $479 $480 $481 forward $332 $-1 #
coedge $-1 $480 $341 $336 $415 reversed $394 $-1 #
edge $-1 $417 0 $343 65 $336 $482 forward 7 unknown #
convexity-sys-attrib $-1 $-1 $-1 $337 #
vertex $-1 $337 $483 #
ellipse-curve $-1 29 -14 -15 0 0 -1 4.2426406871192803 -4.2426406871192803 0 1 I I #
cone-surface $-1 29 -14 -15 0 0 1 4.2426406871192803 -4.2426406871192803 0 1 I I 0 1 5.9999999999999929 forward I I I I #
edge $-1 $469 -0.78539816339744828 $422 0.78539816339744828 $396 $484 forward 7 unknown #
coedge $-1 $341 $480 $465 $485 forward $394 $-1 #
vertex $-1 $485 $486 #
straight-curve $-1 35 -2.5 50 0 -1 0 I I #
point $-1 35 -14 50 #
plane-surface $-1 11.500000000000014 0 -15 0 0 1 1 0 0 forward_v I I I I #
coedge $-1 $352 $360 $349 $427 forward $160 $-1 #
edge $-1 $429 -0.78539816339744828 $354 0.78539816339744828 $426 $487 forward 7 unknown #
coedge $-1 $365 $350 $360 $433 reversed $253 $-1 #
vertex $-1 $427 $488 #
straight-curve $-1 -5.9999999999999503 20 22.5 0 0 -1.5 I I #
straight-curve $-1 -12 -5 -15 0 1.5 0 I I #
point $-1 -12 14 -15 #
edge $-1 $434 -6 $429 17.3333333333333 $428 $489 reversed 7 unknown #
vertex $-1 $433 $490 #
ellipse-curve $-1 29 14 -15 0 0 1 4.2426406871192803 4.2426406871192803 0 1 I I #
convexity-sys-attrib $-1 $-1 $366 $278 #
straight-curve $-1 29 20 22.5 0 0 1.5 I I #
coedge $-1 $491 $492 $371 $439 reversed $460 $-1 #
edge $493 $444 -50 $449 50 $438 $494 forward 7 unknown #
coedge $-1 $495 $372 $377 $453 forward $442 $-1 #
coedge $-1 $372 $495 $491 $496 reversed $442 $-1 #
loop $-1 $-1 $440 $459 #
attrib_edge_convexity-kcp-attrib $-1 $497 $-1 $373 1 #
vertex $-1 $373 $498 #
straight-curve $-1 0 50 50 -1 0 0 I I #
coedge $-1 $499 $374 $492 $500 forward $387 $-1 #
coedge $-1 $374 $499 $376 $452 reversed $387 $-1 #
attrib_edge_convexity-kcp-attrib $-1 $501 $-1 $375 1 #
vertex $-1 $439 $502 #
straight-curve $-1 0 -50 50 1 0 0 I I #
coedge $-1 $377 $376 $389 $464 reversed $378 $-1 #
edge $503 $380 -50 $504 50 $376 $505 forward 7 unknown #
edge $-1 $381 -50 $506 50 $377 $507 forward 7 unknown #
face $508 $-1 $378 $7 $-1 $509 reversed single #
convexity-sys-attrib $-1 $-1 $379 $289 #
point $-1 50 -50 50 #
point $-1 50 50 50 #
model_id-kcp-attrib $-1 $-1 $-1 $386 1 990549442 50 758251521 14 #
face $510 $454 $442 $7 $-1 $511 reversed single #
loop $-1 $-1 $491 $386 #
plane-surface $-1 -50 0 0 1 0 0 0 0 -1 forward_v I I I I #
coedge $-1 $512 $389 $499 $513 forward $295 $-1 #
coedge $-1 $389 $512 $495 $514 forward $295 $-1 #
edge $-1 $506 -50 $504 50 $451 $515 forward 7 unknown #
coedge $-1 $516 $396 $421 $485 reversed $315 $-1 #
coedge $-1 $396 $516 $397 $468 forward $315 $-1 #
coedge $-1 $398 $397 $517 $518 reversed $225 $-1 #
edge $-1 $519 0 $469 65 $466 $520 forward 7 unknown #
vertex $-1 $468 $521 #
straight-curve $-1 15.75 20 50 1 0 0 I I #
coedge $-1 $517 $405 $401 $472 forward $332 $-1 #
edge $522 $407 -0.78539816339744828 $473 0.78539816339744828 $401 $523 forward 7 unknown #
vertex $-1 $472 $524 #
straight-curve $-1 -5.9999999999999503 20 -15 0 0 1 I I #
point $-1 -5.9999999999999503 20 50 #
convexity-sys-attrib $-1 $-1 $-1 $406 #
straight-curve $-1 -12 -2.5 -15 0 1 0 I I #
point $-1 -12 14 -15 #
coedge $-1 $413 $517 $516 $525 forward $332 $-1 #
coedge $-1 $421 $414 $413 $481 reversed $394 $-1 #
edge $526 $527 -16.5 $417 11.5 $480 $528 forward 7 unknown #
straight-curve $-1 35 -14 -15 0 0 1 I I #
point $-1 35 -14 -15 #
ellipse-curve $-1 29 14 50 0 0 -1 4.2426406871192803 4.2426406871192803 0 1 I I #
edge $-1 $527 0 $422 65 $421 $529 forward 7 unknown #
point $-1 35 14 50 #
ellipse-curve $-1 -5.9999999999999503 14 -15 0 0 1 -4.2426406871192803 4.2426406871192803 0 1 I I #
point $-1 -5.9999999999999503 20 -15 #
straight-curve $-1 20 20 -15 1.5 0 0 I I #
point $-1 29 20 -15 #
coedge $-1 $530 $438 $441 $496 forward $460 $-1 #
coedge $-1 $438 $530 $446 $500 reversed $460 $-1 #
attrib_edge_convexity-kcp-attrib $-1 $531 $-1 $439 1 #
straight-curve $-1 -50 0 50 0 -1 0 I I #
coedge $-1 $441 $440 $463 $514 reversed $442 $-1 #
edge $532 $444 -50 $533 50 $441 $534 forward 7 unknown #
convexity-sys-attrib $-1 $-1 $443 $373 #
point $-1 -50 50 50 #
coedge $-1 $447 $446 $462 $513 reversed $387 $-1 #
edge $535 $449 -50 $536 50 $492 $537 forward 7 unknown #
convexity-sys-attrib $-1 $-1 $448 $375 #
point $-1 -50 -50 50 #
attrib_edge_convexity-kcp-attrib $-1 $538 $-1 $452 1 #
vertex $-1 $452 $539 #
straight-curve $-1 50 -50 0 0 0 -1 I I #
vertex $-1 $464 $540 #
straight-curve $-1 50 50 0 0 0 -1 I I #
model_id-kcp-attrib $-1 $-1 $-1 $454 1 990549442 50 758251521 16 #
plane-surface $-1 50 0 0 -1 0 0 0 0 1 forward_v I I I I #
model_id-kcp-attrib $-1 $-1 $-1 $459 1 990549442 50 758251521 15 #
plane-surface $-1 0 50 0 0 -1 0 0 0 -1 forward_v I I I I #
coedge $-1 $463 $462 $530 $541 forward $295 $-1 #
edge $542 $504 -50 $536 50 $499 $543 forward 7 unknown #
edge $-1 $533 -50 $506 50 $495 $544 forward 7 unknown #
straight-curve $-1 50 0 -50 0 -1 0 I I #
coedge $-1 $466 $465 $479 $525 reversed $315 $-1 #
coedge $-1 $479 $471 $467 $518 forward $332 $-1 #
edge $545 $473 -21.74999999999995 $519 13.25 $467 $546 forward 7 unknown #
vertex $-1 $518 $547 #
straight-curve $-1 29 20 -15 0 0 1 I I #
point $-1 29 20 50 #
convexity-sys-attrib $-1 $-1 $-1 $472 #
ellipse-curve $-1 -5.9999999999999503 14 -15 0 0 -1 -4.2426406871192803 4.2426406871192803 0 1 I I #
point $-1 -5.9999999999999503 20 -15 #
edge $548 $519 -0.78539816339744828 $527 0.78539816339744828 $516 $549 forward 7 unknown #
convexity-sys-attrib $-1 $-1 $-1 $481 #
vertex $-1 $525 $550 #
straight-curve $-1 35 -2.5 -15 0 -1 0 I I #
straight-curve $-1 35 14 -15 0 0 1 I I #
coedge $-1 $492 $491 $512 $541 reversed $460 $-1 #
convexity-sys-attrib $-1 $-1 $493 $439 #
attrib_edge_convexity-kcp-attrib $-1 $551 $-1 $496 1 #
vertex $-1 $514 $552 #
straight-curve $-1 -50 50 0 0 0 -1 I I #
attrib_edge_convexity-kcp-attrib $-1 $553 $-1 $500 1 #
vertex $-1 $541 $554 #
straight-curve $-1 -50 -50 0 0 0 -1 I I #
convexity-sys-attrib $-1 $-1 $503 $452 #
point $-1 50 -50 -50 #
point $-1 50 50 -50 #
edge $555 $536 -50 $533 50 $530 $556 forward 7 unknown #
attrib_edge_convexity-kcp-attrib $-1 $557 $-1 $513 1 #
straight-curve $-1 0 -50 -50 -1 0 0 I I #
straight-curve $-1 0 50 -50 1 0 0 I I #
convexity-sys-attrib $-1 $-1 $-1 $518 #
straight-curve $-1 15.75 20 -15 1 0 0 I I #
point $-1 29 20 -15 #
convexity-sys-attrib $-1 $-1 $-1 $525 #
ellipse-curve $-1 29 14 -15 0 0 -1 4.2426406871192803 4.2426406871192803 0 1 I I #
point $-1 35 14 -15 #
convexity-sys-attrib $-1 $-1 $532 $496 #
point $-1 -50 50 -50 #
convexity-sys-attrib $-1 $-1 $535 $500 #
point $-1 -50 -50 -50 #
attrib_edge_convexity-kcp-attrib $-1 $558 $-1 $541 1 #
straight-curve $-1 -50 0 -50 0 1 0 I I #
convexity-sys-attrib $-1 $-1 $542 $513 #
convexity-sys-attrib $-1 $-1 $555 $541 #
End-of-ACIS-data 