600 0 1 0           
97 GICL ACIS Healer - Source: /gicl/data5/repository/UMD/bottomed_pocket1/bottomed_pocket1.sat - 6 0 18 ACIS 6.0.3 Solaris 24 Sun Apr 14 00:35:45 2002 
1 9.999999999999999547e-07 1.000000000000000036e-10 
body $-1 $1 $-1 $-1 #
lump $-1 $-1 $2 $0 #
shell $-1 $-1 $-1 $3 $-1 $1 #
face $-1 $4 $5 $2 $-1 $6 reversed single #
face $-1 $7 $8 $2 $-1 $9 forward single #
loop $-1 $-1 $10 $3 #
cone-surface $-1 29 -14 22.5 0 0 -1 4.242640687119280329 -4.242640687119280329 0 1 I I 0 1 5.999999999999992895 forward I I I I #
face $-1 $11 $12 $2 $-1 $13 reversed single #
loop $-1 $-1 $14 $4 #
plane-surface $-1 20 -20 22.5 0 1 0 0 0 1.5 forward_v I I I I #
coedge $-1 $15 $16 $17 $18 reversed $5 $-1 #
face $-1 $19 $20 $2 $-1 $21 forward single #
loop $-1 $-1 $22 $7 #
cone-surface $-1 -5.999999999999950262 -14 22.5 -0 -0 -1 -4.242640687119280329 -4.242640687119280329 0 1 I I 0 1 5.999999999999992895 forward I I I I #
coedge $-1 $23 $24 $25 $26 reversed $8 $-1 #
coedge $-1 $27 $10 $28 $29 reversed $5 $-1 #
coedge $-1 $10 $27 $23 $30 reversed $5 $-1 #
coedge $-1 $25 $31 $10 $18 forward $32 $-1 #
edge $-1 $33 -0.785398163397448279 $34 0.785398163397448279 $17 $35 forward 7 unknown #
face $-1 $36 $37 $2 $-1 $38 reversed single #
loop $-1 $-1 $39 $11 #
plane-surface $-1 -12 -5 22.5 1 0 0 0 0 -1.5 forward_v I I I I #
coedge $-1 $40 $41 $42 $43 reversed $12 $-1 #
coedge $-1 $44 $14 $16 $30 forward $8 $-1 #
coedge $-1 $14 $44 $40 $45 forward $8 $-1 #
coedge $-1 $42 $17 $14 $26 forward $32 $-1 #
edge $-1 $34 -19 $46 15.99999999999995026 $25 $47 forward 7 unknown #
coedge $-1 $16 $15 $48 $49 reversed $5 $-1 #
coedge $-1 $50 $51 $15 $29 forward $52 $-1 #
edge $-1 $53 -25 $33 18.33333333333333215 $28 $54 forward 7 unknown #
edge $-1 $34 -18.33333333333333215 $55 25 $23 $56 forward 7 unknown #
coedge $-1 $17 $57 $50 $58 forward $32 $-1 #
loop $-1 $59 $60 $61 #
vertex $-1 $58 $62 #
vertex $-1 $26 $63 #
ellipse-curve $-1 29 -14 50 -0 -0 -1 4.242640687119280329 -4.242640687119280329 0 1 I I #
face $-1 $64 $65 $2 $-1 $66 forward single #
loop $-1 $-1 $67 $19 #
cone-surface $-1 -5.999999999999950262 14 22.5 0 0 -1 -4.242640687119280329 4.242640687119280329 0 1 I I 0 1 5.999999999999992895 forward I I I I #
coedge $-1 $68 $69 $70 $71 reversed $20 $-1 #
coedge $-1 $72 $22 $24 $45 reversed $12 $-1 #
coedge $-1 $22 $72 $68 $73 reversed $12 $-1 #
coedge $-1 $70 $25 $22 $43 forward $32 $-1 #
edge $-1 $46 -0.785398163397448279 $74 0.785398163397448279 $42 $75 forward 7 unknown #
coedge $-1 $24 $23 $76 $77 forward $8 $-1 #
edge $-1 $78 -25 $46 18.33333333333333215 $24 $79 forward 7 unknown #
vertex $-1 $43 $80 #
straight-curve $-1 10 -20 50 -1 0 0 I I #
coedge $-1 $81 $76 $27 $49 forward $65 $-1 #
edge $-1 $55 -0.785398163397448279 $53 0.785398163397448279 $48 $82 forward 7 unknown #
coedge $-1 $83 $28 $31 $58 reversed $52 $-1 #
coedge $-1 $28 $83 $81 $84 forward $52 $-1 #
loop $-1 $-1 $50 $85 #
vertex $-1 $84 $86 #
straight-curve $-1 35 -14 22.5 0 0 1.5 I I #
vertex $-1 $49 $87 #
straight-curve $-1 29 -20 22.5 0 0 -1.5 I I #
coedge $-1 $31 $88 $89 $90 forward $32 $-1 #
edge $-1 $91 -16.5 $33 11.5 $31 $92 forward 7 unknown #
loop $-1 $-1 $93 $61 #
coedge $-1 $88 $70 $67 $94 forward $32 $-1 #
face $-1 $95 $32 $2 $-1 $96 forward single #
point $-1 35 -14 50 #
point $-1 29 -20 50 #
face $-1 $97 $98 $2 $-1 $99 forward single #
loop $-1 $-1 $76 $36 #
plane-surface $-1 20 -5 -15 0 0 1 1.5 0 0 forward_v I I I I #
coedge $-1 $100 $101 $60 $94 reversed $37 $-1 #
coedge $-1 $102 $39 $41 $73 forward $20 $-1 #
coedge $-1 $39 $102 $100 $103 forward $20 $-1 #
coedge $-1 $60 $42 $39 $71 forward $32 $-1 #
edge $-1 $74 -11.5 $104 16.5 $70 $105 forward 7 unknown #
coedge $-1 $41 $40 $106 $107 reversed $12 $-1 #
edge $-1 $74 -18.33333333333333215 $108 25 $68 $109 forward 7 unknown #
vertex $-1 $71 $110 #
ellipse-curve $-1 -5.999999999999950262 -14 50 -0 -0 -1 -4.242640687119280329 -4.242640687119280329 0 1 I I #
coedge $-1 $48 $106 $44 $77 reversed $65 $-1 #
edge $-1 $55 -6 $78 17.33333333333330017 $44 $111 forward 7 unknown #
vertex $-1 $77 $112 #
straight-curve $-1 -5.999999999999950262 -20 22.5 0 0 1.5 I I #
point $-1 -5.999999999999950262 -20 50 #
coedge $-1 $113 $48 $51 $84 reversed $65 $-1 #
ellipse-curve $-1 29 -14 -15 0 0 1 4.242640687119280329 -4.242640687119280329 0 1 I I #
coedge $-1 $51 $50 $114 $115 forward $52 $-1 #
edge $-1 $116 -6 $53 12.66666666666666607 $51 $117 forward 7 unknown #
face $-1 $61 $52 $2 $-1 $118 forward single #
point $-1 35 -14 -15 #
point $-1 29 -20 -15 #
coedge $-1 $57 $60 $119 $120 forward $32 $-1 #
coedge $-1 $121 $114 $57 $90 reversed $122 $-1 #
edge $-1 $123 -0.785398163397448279 $91 0.785398163397448279 $57 $124 forward 7 unknown #
vertex $-1 $90 $125 #
straight-curve $-1 35 -2.5 50 0 -1 0 I I #
coedge $-1 $126 $127 $128 $129 forward $59 $-1 #
edge $-1 $104 -0.785398163397448279 $130 0.785398163397448279 $60 $131 forward 7 unknown #
face $-1 $132 $133 $2 $-1 $134 reversed single #
plane-surface $-1 0 0 50 0 0 1 1 0 0 forward_v I I I I #
face $-1 $85 $122 $2 $-1 $135 reversed single #
loop $-1 $-1 $119 $64 #
plane-surface $-1 20 20 22.5 0 -1 0 0 0 -1.5 forward_v I I I I #
coedge $-1 $136 $67 $69 $103 reversed $37 $-1 #
coedge $-1 $67 $136 $137 $138 reversed $37 $-1 #
coedge $-1 $69 $68 $139 $140 forward $20 $-1 #
edge $-1 $141 -25 $104 18.33333333333333215 $69 $142 forward 7 unknown #
vertex $-1 $94 $143 #
straight-curve $-1 -12 -2.5 50 0 1 0 I I #
coedge $-1 $76 $139 $72 $107 forward $65 $-1 #
edge $-1 $108 -0.785398163397448279 $78 0.785398163397448279 $106 $144 forward 7 unknown #
vertex $-1 $73 $145 #
straight-curve $-1 -12 -14 22.5 0 0 -1.5 I I #
point $-1 -12 -14 50 #
straight-curve $-1 20 -20 -15 -1.5 0 0 I I #
point $-1 -5.999999999999950262 -20 -15 #
coedge $-1 $146 $81 $147 $148 forward $65 $-1 #
coedge $-1 $89 $147 $83 $115 reversed $122 $-1 #
edge $-1 $91 -18.33333333333333215 $116 25 $83 $149 forward 7 unknown #
vertex $-1 $115 $150 #
straight-curve $-1 35 5 -15 0 -1.5 0 I I #
plane-surface $-1 35 -5 22.5 -1 0 0 0 0 1.5 forward_v I I I I #
coedge $-1 $137 $151 $88 $120 reversed $98 $-1 #
edge $-1 $130 -15.99999999999995026 $123 19 $88 $152 forward 7 unknown #
coedge $-1 $147 $89 $151 $153 reversed $122 $-1 #
loop $-1 $-1 $89 $97 #
vertex $-1 $120 $154 #
ellipse-curve $-1 29 14 50 -0 -0 -1 4.242640687119280329 4.242640687119280329 0 1 I I #
point $-1 35 14 50 #
coedge $-1 $155 $93 $156 $157 forward $59 $-1 #
coedge $-1 $93 $155 $158 $159 forward $59 $-1 #
coedge $-1 $160 $161 $93 $129 reversed $162 $-1 #
edge $-1 $163 -50 $164 50 $128 $165 forward 7 unknown #
vertex $-1 $94 $166 #
ellipse-curve $-1 -5.999999999999950262 14 50 -0 -0 -1 -4.242640687119280329 4.242640687119280329 0 1 I I #
face $-1 $167 $168 $2 $-1 $169 reversed single #
loop $-1 $-1 $170 $95 #
plane-surface $-1 0 0 -50 0 0 1 1 0 0 forward_v I I I I #
cone-surface $-1 29 14 22.5 0 0 -1 4.242640687119280329 4.242640687119280329 0 1 I I 0 1 5.999999999999992895 forward I I I I #
coedge $-1 $101 $100 $171 $172 reversed $37 $-1 #
coedge $-1 $173 $119 $101 $138 forward $98 $-1 #
edge $-1 $130 -18.33333333333333215 $174 25 $137 $175 forward 7 unknown #
coedge $-1 $106 $171 $102 $140 reversed $65 $-1 #
edge $-1 $108 -6 $141 12.66666666666666607 $102 $176 forward 7 unknown #
vertex $-1 $140 $177 #
straight-curve $-1 -12 14 22.5 0 0 1.5 I I #
point $-1 -12 14 50 #
ellipse-curve $-1 -5.999999999999950262 -14 -15 0 0 1 -4.242640687119280329 -4.242640687119280329 0 1 I I #
point $-1 -12 -14 -15 #
coedge $-1 $171 $113 $173 $178 forward $65 $-1 #
coedge $-1 $114 $121 $113 $148 reversed $122 $-1 #
edge $-1 $116 -0.785398163397448279 $179 0.785398163397448279 $113 $180 forward 7 unknown #
straight-curve $-1 35 14 22.5 0 0 -1.5 I I #
point $-1 35 14 -15 #
coedge $-1 $119 $173 $121 $153 forward $98 $-1 #
straight-curve $-1 10 20 50 1 0 -0 I I #
edge $-1 $179 -25 $123 18.33333333333333215 $151 $181 forward 7 unknown #
point $-1 29 20 50 #
coedge $-1 $127 $126 $182 $183 forward $59 $-1 #
coedge $-1 $184 $185 $126 $157 reversed $186 $-1 #
edge $-1 $164 -50 $187 50 $156 $188 forward 7 unknown #
coedge $-1 $189 $190 $127 $159 reversed $168 $-1 #
edge $-1 $191 -50 $163 50 $158 $192 forward 7 unknown #
coedge $-1 $193 $128 $190 $194 forward $162 $-1 #
coedge $-1 $128 $193 $184 $195 reversed $162 $-1 #
loop $-1 $-1 $160 $196 #
vertex $-1 $129 $197 #
vertex $-1 $129 $198 #
straight-curve $-1 50 0 50 0 1 0 I I #
point $-1 -5.999999999999950262 20 50 #
face $-1 $199 $200 $2 $-1 $201 reversed single #
loop $-1 $-1 $189 $132 #
plane-surface $-1 0 -50 0 0 1 -0 -0 0 1 forward_v I I I I #
coedge $-1 $202 $203 $193 $204 forward $133 $-1 #
coedge $-1 $139 $146 $136 $172 forward $65 $-1 #
edge $-1 $174 -0.785398163397448279 $141 0.785398163397448279 $171 $205 forward 7 unknown #
coedge $-1 $151 $137 $146 $178 reversed $98 $-1 #
vertex $-1 $172 $206 #
straight-curve $-1 -5.999999999999950262 20 22.5 0 0 -1.5 I I #
straight-curve $-1 -12 -5 -15 0 1.5 0 I I #
point $-1 -12 14 -15 #
edge $-1 $179 -6 $174 17.33333333333330017 $173 $207 reversed 7 unknown #
vertex $-1 $178 $208 #
ellipse-curve $-1 29 14 -15 0 0 1 4.242640687119280329 4.242640687119280329 0 1 I I #
straight-curve $-1 29 20 22.5 0 0 1.5 I I #
coedge $-1 $209 $210 $155 $183 reversed $200 $-1 #
edge $-1 $187 -50 $191 50 $182 $211 forward 7 unknown #
coedge $-1 $212 $156 $161 $195 forward $186 $-1 #
coedge $-1 $156 $212 $209 $213 reversed $186 $-1 #
loop $-1 $-1 $184 $199 #
vertex $-1 $157 $214 #
straight-curve $-1 0 50 50 -1 0 0 I I #
coedge $-1 $215 $158 $210 $216 forward $168 $-1 #
coedge $-1 $158 $215 $160 $194 reversed $168 $-1 #
vertex $-1 $183 $217 #
straight-curve $-1 0 -50 50 1 0 0 I I #
coedge $-1 $161 $160 $170 $204 reversed $162 $-1 #
edge $-1 $163 -50 $218 50 $160 $219 forward 7 unknown #
edge $-1 $164 -50 $220 50 $161 $221 forward 7 unknown #
face $-1 $-1 $162 $2 $-1 $222 reversed single #
point $-1 50 -50 50 #
point $-1 50 50 50 #
face $-1 $196 $186 $2 $-1 $223 reversed single #
loop $-1 $-1 $209 $167 #
plane-surface $-1 -50 0 0 1 0 0 0 0 -1 forward_v I I I I #
coedge $-1 $224 $170 $215 $225 forward $133 $-1 #
coedge $-1 $170 $224 $212 $226 forward $133 $-1 #
edge $-1 $220 -50 $218 50 $193 $227 forward 7 unknown #
ellipse-curve $-1 -5.999999999999950262 14 -15 0 0 1 -4.242640687119280329 4.242640687119280329 0 1 I I #
point $-1 -5.999999999999950262 20 -15 #
straight-curve $-1 20 20 -15 1.5 0 0 I I #
point $-1 29 20 -15 #
coedge $-1 $228 $182 $185 $213 forward $200 $-1 #
coedge $-1 $182 $228 $189 $216 reversed $200 $-1 #
straight-curve $-1 -50 0 50 0 -1 0 I I #
coedge $-1 $185 $184 $203 $226 reversed $186 $-1 #
edge $-1 $187 -50 $229 50 $185 $230 forward 7 unknown #
point $-1 -50 50 50 #
coedge $-1 $190 $189 $202 $225 reversed $168 $-1 #
edge $-1 $191 -50 $231 50 $210 $232 forward 7 unknown #
point $-1 -50 -50 50 #
vertex $-1 $194 $233 #
straight-curve $-1 50 -50 0 0 0 -1 I I #
vertex $-1 $204 $234 #
straight-curve $-1 50 50 0 0 0 -1 I I #
plane-surface $-1 50 0 0 -1 0 0 0 -0 1 forward_v I I I I #
plane-surface $-1 0 50 0 0 -1 0 0 0 -1 forward_v I I I I #
coedge $-1 $203 $202 $228 $235 forward $133 $-1 #
edge $-1 $218 -50 $231 50 $215 $236 forward 7 unknown #
edge $-1 $229 -50 $220 50 $212 $237 forward 7 unknown #
straight-curve $-1 50 0 -50 0 -1 0 I I #
coedge $-1 $210 $209 $224 $235 reversed $200 $-1 #
vertex $-1 $226 $238 #
straight-curve $-1 -50 50 0 0 0 -1 I I #
vertex $-1 $235 $239 #
straight-curve $-1 -50 -50 0 0 0 -1 I I #
point $-1 50 -50 -50 #
point $-1 50 50 -50 #
edge $-1 $231 -50 $229 50 $228 $240 forward 7 unknown #
straight-curve $-1 0 -50 -50 -1 0 0 I I #
straight-curve $-1 0 50 -50 1 0 0 I I #
point $-1 -50 50 -50 #
point $-1 -50 -50 -50 #
straight-curve $-1 -50 0 -50 0 1 0 I I #
End-of-ACIS-data 