105 241 1 0                             
body $-1 $1 $-1 $-1 #
lump $-1 $-1 $2 $0 #
shell $-1 $-1 $-1 $3 $1 #
face $-1 $4 $5 $2 $-1 $6 reversed single #
face $-1 $7 $8 $2 $-1 $9 forward single #
loop $-1 $-1 $10 $3 #
cone-surface $-1 29 -14 22.5 0 0 -1 4.24264068711928 -4.24264068711928 0 1 0 1 0 #
face $-1 $11 $12 $2 $-1 $13 reversed single #
loop $-1 $-1 $14 $4 #
plane-surface $-1 20 -20 22.5 0 1 0 0 0 1.5 0 #
coedge $-1 $15 $16 $17 $18 1 $5 $-1 #
face $-1 $19 $20 $2 $-1 $21 forward single #
loop $-1 $-1 $22 $7 #
cone-surface $-1 -5.99999999999995 -14 22.5 -0 -0 -1 -4.24264068711928 -4.24264068711928 0 1 0 1 0 #
coedge $-1 $23 $24 $25 $26 1 $8 $-1 #
coedge $-1 $27 $10 $28 $29 1 $5 $-1 #
coedge $-1 $10 $27 $23 $30 1 $5 $-1 #
coedge $-1 $25 $31 $10 $18 0 $32 $-1 #
edge $-1 $33 $34 $17 $35 0 #
face $-1 $36 $37 $2 $-1 $38 reversed single #
loop $-1 $-1 $39 $11 #
plane-surface $-1 -12 -5 22.5 1 0 0 0 0 -1.5 0 #
coedge $-1 $40 $41 $42 $43 1 $12 $-1 #
coedge $-1 $44 $14 $16 $30 0 $8 $-1 #
coedge $-1 $14 $44 $40 $45 0 $8 $-1 #
coedge $-1 $42 $17 $14 $26 0 $32 $-1 #
edge $-1 $34 $46 $25 $47 0 #
coedge $-1 $16 $15 $48 $49 1 $5 $-1 #
coedge $-1 $50 $51 $15 $29 0 $52 $-1 #
edge $-1 $53 $33 $28 $54 0 #
edge $-1 $34 $55 $23 $56 0 #
coedge $-1 $17 $57 $50 $58 0 $32 $-1 #
loop $-1 $59 $60 $61 #
vertex $-1 $58 $62 #
vertex $-1 $26 $63 #
ellipse-curve $-1 29 -14 50 -0 -0 -1 4.24264068711928 -4.24264068711928 0 1 #
face $-1 $64 $65 $2 $-1 $66 forward single #
loop $-1 $-1 $67 $19 #
cone-surface $-1 -5.99999999999995 14 22.5 0 0 -1 -4.24264068711928 4.24264068711928 0 1 0 1 0 #
coedge $-1 $68 $69 $70 $71 1 $20 $-1 #
coedge $-1 $72 $22 $24 $45 1 $12 $-1 #
coedge $-1 $22 $72 $68 $73 1 $12 $-1 #
coedge $-1 $70 $25 $22 $43 0 $32 $-1 #
edge $-1 $46 $74 $42 $75 0 #
coedge $-1 $24 $23 $76 $77 0 $8 $-1 #
edge $-1 $78 $46 $24 $79 0 #
vertex $-1 $43 $80 #
straight-curve $-1 10 -20 50 -1 0 0 #
coedge $-1 $81 $76 $27 $49 0 $65 $-1 #
edge $-1 $55 $53 $48 $82 0 #
coedge $-1 $83 $28 $31 $58 1 $52 $-1 #
coedge $-1 $28 $83 $81 $84 0 $52 $-1 #
loop $-1 $-1 $50 $85 #
vertex $-1 $84 $86 #
straight-curve $-1 35 -14 22.5 0 0 1.5 #
vertex $-1 $49 $87 #
straight-curve $-1 29 -20 22.5 0 0 -1.5 #
coedge $-1 $31 $88 $89 $90 0 $32 $-1 #
edge $-1 $91 $33 $31 $92 0 #
loop $-1 $-1 $93 $61 #
coedge $-1 $88 $70 $67 $94 0 $32 $-1 #
face $-1 $95 $32 $2 $-1 $96 forward single #
point $-1 35 -14 50 #
point $-1 29 -20 50 #
face $-1 $97 $98 $2 $-1 $99 forward single #
loop $-1 $-1 $76 $36 #
plane-surface $-1 20 -5 -15 0 0 1 1.5 0 0 0 #
coedge $-1 $100 $101 $60 $94 1 $37 $-1 #
coedge $-1 $102 $39 $41 $73 0 $20 $-1 #
coedge $-1 $39 $102 $100 $103 0 $20 $-1 #
coedge $-1 $60 $42 $39 $71 0 $32 $-1 #
edge $-1 $74 $104 $70 $105 0 #
coedge $-1 $41 $40 $106 $107 1 $12 $-1 #
edge $-1 $74 $108 $68 $109 0 #
vertex $-1 $71 $110 #
ellipse-curve $-1 -5.99999999999995 -14 50 -0 -0 -1 -4.24264068711928 -4.24264068711928 0 1 #
coedge $-1 $48 $106 $44 $77 1 $65 $-1 #
edge $-1 $55 $78 $44 $111 0 #
vertex $-1 $77 $112 #
straight-curve $-1 -5.99999999999995 -20 22.5 0 0 1.5 #
point $-1 -5.99999999999995 -20 50 #
coedge $-1 $113 $48 $51 $84 1 $65 $-1 #
ellipse-curve $-1 29 -14 -15 0 0 1 4.24264068711928 -4.24264068711928 0 1 #
coedge $-1 $51 $50 $114 $115 0 $52 $-1 #
edge $-1 $116 $53 $51 $117 0 #
face $-1 $61 $52 $2 $-1 $118 forward single #
point $-1 35 -14 -15 #
point $-1 29 -20 -15 #
coedge $-1 $57 $60 $119 $120 0 $32 $-1 #
coedge $-1 $121 $114 $57 $90 1 $122 $-1 #
edge $-1 $123 $91 $57 $124 0 #
vertex $-1 $90 $125 #
straight-curve $-1 35 -2.5 50 0 -1 0 #
coedge $-1 $126 $127 $128 $129 0 $59 $-1 #
edge $-1 $104 $130 $60 $131 0 #
face $-1 $132 $133 $2 $-1 $134 reversed single #
plane-surface $-1 0 0 50 0 0 1 1 0 0 0 #
face $-1 $85 $122 $2 $-1 $135 reversed single #
loop $-1 $-1 $119 $64 #
plane-surface $-1 20 20 22.5 0 -1 0 0 0 -1.5 0 #
coedge $-1 $136 $67 $69 $103 1 $37 $-1 #
coedge $-1 $67 $136 $137 $138 1 $37 $-1 #
coedge $-1 $69 $68 $139 $140 0 $20 $-1 #
edge $-1 $141 $104 $69 $142 0 #
vertex $-1 $94 $143 #
straight-curve $-1 -12 -2.5 50 0 1 0 #
coedge $-1 $76 $139 $72 $107 0 $65 $-1 #
edge $-1 $108 $78 $106 $144 0 #
vertex $-1 $73 $145 #
straight-curve $-1 -12 -14 22.5 0 0 -1.5 #
point $-1 -12 -14 50 #
straight-curve $-1 20 -20 -15 -1.5 0 0 #
point $-1 -5.99999999999995 -20 -15 #
coedge $-1 $146 $81 $147 $148 0 $65 $-1 #
coedge $-1 $89 $147 $83 $115 1 $122 $-1 #
edge $-1 $91 $116 $83 $149 0 #
vertex $-1 $115 $150 #
straight-curve $-1 35 5 -15 0 -1.5 0 #
plane-surface $-1 35 -5 22.5 -1 0 0 0 0 1.5 0 #
coedge $-1 $137 $151 $88 $120 1 $98 $-1 #
edge $-1 $130 $123 $88 $152 0 #
coedge $-1 $147 $89 $151 $153 1 $122 $-1 #
loop $-1 $-1 $89 $97 #
vertex $-1 $120 $154 #
ellipse-curve $-1 29 14 50 -0 -0 -1 4.24264068711928 4.24264068711928 0 1 #
point $-1 35 14 50 #
coedge $-1 $155 $93 $156 $157 0 $59 $-1 #
coedge $-1 $93 $155 $158 $159 0 $59 $-1 #
coedge $-1 $160 $161 $93 $129 1 $162 $-1 #
edge $-1 $163 $164 $128 $165 0 #
vertex $-1 $94 $166 #
ellipse-curve $-1 -5.99999999999995 14 50 -0 -0 -1 -4.24264068711928 4.24264068711928 0 1 #
face $-1 $167 $168 $2 $-1 $169 reversed single #
loop $-1 $-1 $170 $95 #
plane-surface $-1 0 0 -50 0 0 1 1 0 0 0 #
cone-surface $-1 29 14 22.5 0 0 -1 4.24264068711928 4.24264068711928 0 1 0 1 0 #
coedge $-1 $101 $100 $171 $172 1 $37 $-1 #
coedge $-1 $173 $119 $101 $138 0 $98 $-1 #
edge $-1 $130 $174 $137 $175 0 #
coedge $-1 $106 $171 $102 $140 1 $65 $-1 #
edge $-1 $108 $141 $102 $176 0 #
vertex $-1 $140 $177 #
straight-curve $-1 -12 14 22.5 0 0 1.5 #
point $-1 -12 14 50 #
ellipse-curve $-1 -5.99999999999995 -14 -15 0 0 1 -4.24264068711928 -4.24264068711928 0 1 #
point $-1 -12 -14 -15 #
coedge $-1 $171 $113 $173 $178 0 $65 $-1 #
coedge $-1 $114 $121 $113 $148 1 $122 $-1 #
edge $-1 $116 $179 $113 $180 0 #
straight-curve $-1 35 14 22.5 0 0 -1.5 #
point $-1 35 14 -15 #
coedge $-1 $119 $173 $121 $153 0 $98 $-1 #
straight-curve $-1 10 20 50 1 0 -0 #
edge $-1 $179 $123 $151 $181 0 #
point $-1 29 20 50 #
coedge $-1 $127 $126 $182 $183 0 $59 $-1 #
coedge $-1 $184 $185 $126 $157 1 $186 $-1 #
edge $-1 $164 $187 $156 $188 0 #
coedge $-1 $189 $190 $127 $159 1 $168 $-1 #
edge $-1 $191 $163 $158 $192 0 #
coedge $-1 $193 $128 $190 $194 0 $162 $-1 #
coedge $-1 $128 $193 $184 $195 1 $162 $-1 #
loop $-1 $-1 $160 $196 #
vertex $-1 $129 $197 #
vertex $-1 $129 $198 #
straight-curve $-1 50 0 50 0 1 0 #
point $-1 -5.99999999999995 20 50 #
face $-1 $199 $200 $2 $-1 $201 reversed single #
loop $-1 $-1 $189 $132 #
plane-surface $-1 0 -50 0 0 1 -0 -0 0 1 0 #
coedge $-1 $202 $203 $193 $204 0 $133 $-1 #
coedge $-1 $139 $146 $136 $172 0 $65 $-1 #
edge $-1 $174 $141 $171 $205 0 #
coedge $-1 $151 $137 $146 $178 1 $98 $-1 #
vertex $-1 $172 $206 #
straight-curve $-1 -5.99999999999995 20 22.5 0 0 -1.5 #
straight-curve $-1 -12 -5 -15 0 1.5 0 #
point $-1 -12 14 -15 #
edge $-1 $179 $174 $173 $207 1 #
vertex $-1 $178 $208 #
ellipse-curve $-1 29 14 -15 0 0 1 4.24264068711928 4.24264068711928 0 1 #
straight-curve $-1 29 20 22.5 0 0 1.5 #
coedge $-1 $209 $210 $155 $183 1 $200 $-1 #
edge $-1 $187 $191 $182 $211 0 #
coedge $-1 $212 $156 $161 $195 0 $186 $-1 #
coedge $-1 $156 $212 $209 $213 1 $186 $-1 #
loop $-1 $-1 $184 $199 #
vertex $-1 $157 $214 #
straight-curve $-1 0 50 50 -1 0 0 #
coedge $-1 $215 $158 $210 $216 0 $168 $-1 #
coedge $-1 $158 $215 $160 $194 1 $168 $-1 #
vertex $-1 $183 $217 #
straight-curve $-1 0 -50 50 1 0 0 #
coedge $-1 $161 $160 $170 $204 1 $162 $-1 #
edge $-1 $163 $218 $160 $219 0 #
edge $-1 $164 $220 $161 $221 0 #
face $-1 $-1 $162 $2 $-1 $222 reversed single #
point $-1 50 -50 50 #
point $-1 50 50 50 #
face $-1 $196 $186 $2 $-1 $223 reversed single #
loop $-1 $-1 $209 $167 #
plane-surface $-1 -50 0 0 1 0 0 0 0 -1 0 #
coedge $-1 $224 $170 $215 $225 0 $133 $-1 #
coedge $-1 $170 $224 $212 $226 0 $133 $-1 #
edge $-1 $220 $218 $193 $227 0 #
ellipse-curve $-1 -5.99999999999995 14 -15 0 0 1 -4.24264068711928 4.24264068711928 0 1 #
point $-1 -5.99999999999995 20 -15 #
straight-curve $-1 20 20 -15 1.5 0 0 #
point $-1 29 20 -15 #
coedge $-1 $228 $182 $185 $213 0 $200 $-1 #
coedge $-1 $182 $228 $189 $216 1 $200 $-1 #
straight-curve $-1 -50 0 50 0 -1 0 #
coedge $-1 $185 $184 $203 $226 1 $186 $-1 #
edge $-1 $187 $229 $185 $230 0 #
point $-1 -50 50 50 #
coedge $-1 $190 $189 $202 $225 1 $168 $-1 #
edge $-1 $191 $231 $210 $232 0 #
point $-1 -50 -50 50 #
vertex $-1 $194 $233 #
straight-curve $-1 50 -50 0 0 0 -1 #
vertex $-1 $204 $234 #
straight-curve $-1 50 50 0 0 0 -1 #
plane-surface $-1 50 0 0 -1 0 0 0 -0 1 0 #
plane-surface $-1 0 50 0 0 -1 0 0 0 -1 0 #
coedge $-1 $203 $202 $228 $235 0 $133 $-1 #
edge $-1 $218 $231 $215 $236 0 #
edge $-1 $229 $220 $212 $237 0 #
straight-curve $-1 50 0 -50 0 -1 0 #
coedge $-1 $210 $209 $224 $235 1 $200 $-1 #
vertex $-1 $226 $238 #
straight-curve $-1 -50 50 0 0 0 -1 #
vertex $-1 $235 $239 #
straight-curve $-1 -50 -50 0 0 0 -1 #
point $-1 50 -50 -50 #
point $-1 50 50 -50 #
edge $-1 $231 $229 $228 $240 0 #
straight-curve $-1 0 -50 -50 -1 0 0 #
straight-curve $-1 0 50 -50 1 0 0 #
point $-1 -50 50 -50 #
point $-1 -50 -50 -50 #
straight-curve $-1 -50 0 -50 0 1 0 #
