600 0 2 0           
24 FBMach with ACIS - 6.0.3 13 ACIS 6.0.3 NT 24 Mon Apr 01 00:09:18 2002 
1 9.9999999999999995e-007 1e-010 
body $2 $3 $-1 $4 #
bdycol-kcp $-1 1 2 $5 $6 #
model_id-kcp-attrib $-1 $7 $-1 $0 1 1017637758 80 -2108686335 1 #
lump $-1 $-1 $8 $0 #
transform $-1 1 0 0 0 1 0 0 0 1 0 0 0 1 rotate no_reflect no_shear #
body $9 $10 $-1 $11 #
body $12 $13 $-1 $14 #
aggregate_advspl_attribute-aggregate_geombuild_base_attribute-aggregate_body_attribute-attrib_HH-attrib $-1 $15 $2 $0 F #
shell $-1 $-1 $-1 $16 $-1 $3 #
model_id-kcp-attrib $-1 $-1 $-1 $5 1 1017637758 80 -2108686334 1 #
lump $-1 $-1 $17 $5 #
transform $-1 1 0 0 0 1 0 0 0 1 0 0 0 1 no_rotate no_reflect no_shear #
rgb_color-st-attrib $-1 $18 $-1 $6 0 0 1 #
lump $-1 $-1 $19 $6 #
transform $-1 1 0 0 0 1 0 0 0 1 0 0 0 1 no_rotate no_reflect no_shear #
aggregate_secndry_attribute-aggregate_geombuild_base_attribute-aggregate_body_attribute-attrib_HH-attrib $-1 $20 $7 $0 F #
face $21 $22 $23 $8 $-1 $24 reversed single #
shell $-1 $-1 $-1 $25 $-1 $10 #
model_id-kcp-attrib $-1 $-1 $12 $6 1 1017637758 410 -2103836669 1 #
shell $-1 $-1 $-1 $26 $-1 $13 #
aggregate_sharped_attribute-aggregate_geombuild_base_attribute-aggregate_body_attribute-attrib_HH-attrib $-1 $27 $15 $0 F #
model_id-kcp-attrib $-1 $28 $-1 $16 1 1017637758 80 -2108686335 2 #
face $29 $30 $31 $8 $-1 $32 forward single #
loop $-1 $-1 $33 $16 #
cone-surface $-1 29 -14 22.5 0 0 -1 4.2426406871192803 -4.2426406871192803 0 1 I I 0 1 5.9999999999999929 forward I I I I #
face $34 $35 $36 $17 $-1 $37 forward single #
face $-1 $38 $39 $19 $-1 $40 forward single #
aggregate_reblend_attribute-aggregate_geombuild_base_attribute-aggregate_body_attribute-attrib_HH-attrib $-1 $41 $20 $0 F #
attrib_hh_face_geombuild-attrib_entity_geombuild-individual_entity_attribute-attrib_HH-attrib $-1 $-1 $21 $16 F #
model_id-kcp-attrib $-1 $42 $-1 $22 1 1017637758 80 -2108686335 3 #
face $43 $44 $45 $8 $-1 $46 reversed single #
loop $-1 $-1 $47 $22 #
plane-surface $-1 20 -20 22.5 0 1 0 0 0 1.5 forward_v I I I I #
coedge $48 $49 $50 $51 $52 reversed $23 $-1 #
model_id-kcp-attrib $-1 $-1 $-1 $25 1 1017637758 80 -2108686334 2 #
face $53 $54 $55 $17 $-1 $56 reversed single #
loop $-1 $-1 $57 $25 #
plane-surface $-1 0 0 50 0 0 1 1 0 0 forward_v I I I I #
face $-1 $58 $59 $19 $-1 $60 forward single #
loop $-1 $-1 $61 $26 #
plane-surface $-1 29 -20 -15 0 -1 0 0 0 -1 forward_v I I I I #
aggregate_isospline_attribute-aggregate_geombuild_base_attribute-aggregate_body_attribute-attrib_HH-attrib $-1 $62 $27 $0 F #
attrib_hh_face_geombuild-attrib_entity_geombuild-individual_entity_attribute-attrib_HH-attrib $-1 $-1 $29 $22 F #
model_id-kcp-attrib $-1 $63 $-1 $30 1 1017637758 80 -2108686335 4 #
face $64 $65 $66 $8 $-1 $67 forward single #
loop $-1 $-1 $68 $30 #
cone-surface $-1 -5.9999999999999503 -14 22.5 0 0 -1 -4.2426406871192803 -4.2426406871192803 0 1 I I 0 1 5.9999999999999929 forward I I I I #
coedge $69 $70 $71 $72 $73 reversed $31 $-1 #
attrib_hh_coedge_geombuild-attrib_entity_geombuild-individual_entity_attribute-attrib_HH-attrib $-1 $-1 $-1 $33 F #
coedge $74 $75 $33 $76 $77 reversed $23 $-1 #
coedge $78 $33 $75 $70 $79 reversed $23 $-1 #
coedge $80 $72 $81 $33 $52 forward $82 $-1 #
edge $83 $84 -0.78539816339744828 $85 0.78539816339744828 $51 $86 forward 7 unknown #
model_id-kcp-attrib $-1 $-1 $-1 $35 1 1017637758 80 -2108686334 3 #
face $87 $88 $89 $17 $-1 $90 reversed single #
loop $-1 $-1 $91 $35 #
plane-surface $-1 0 0 -50 0 0 1 1 0 0 forward_v I I I I #
coedge $-1 $92 $93 $94 $95 forward $36 $-1 #
face $-1 $96 $97 $19 $-1 $98 forward single #
loop $-1 $-1 $99 $38 #
cone-surface $-1 -5.9999999999999503 -14 -15 0 0 1 -4.2426406871192803 -4.2426406871192803 0 1 I I 0 1 5.9999999999999929 forward I I I I #
coedge $-1 $100 $101 $102 $103 forward $39 $-1 #
aggregate_analytic_solver_attribute-aggregate_geombuild_base_attribute-aggregate_body_attribute-attrib_HH-attrib $-1 $104 $41 $0 F #
attrib_hh_face_geombuild-attrib_entity_geombuild-individual_entity_attribute-attrib_HH-attrib $-1 $-1 $43 $30 F #
model_id-kcp-attrib $-1 $105 $-1 $44 1 1017637758 80 -2108686335 5 #
face $106 $107 $108 $8 $-1 $109 reversed single #
loop $-1 $-1 $110 $44 #
plane-surface $-1 -12 -5 22.5 1 0 0 0 0 -1.5 forward_v I I I I #
coedge $111 $112 $113 $114 $115 reversed $45 $-1 #
attrib_hh_coedge_geombuild-attrib_entity_geombuild-individual_entity_attribute-attrib_HH-attrib $-1 $-1 $-1 $47 F #
coedge $116 $117 $47 $50 $79 forward $31 $-1 #
coedge $118 $47 $117 $112 $119 forward $31 $-1 #
coedge $120 $114 $51 $47 $73 forward $82 $-1 #
edge $121 $85 -19 $122 15.99999999999995 $72 $123 forward 7 unknown #
attrib_hh_coedge_geombuild-attrib_entity_geombuild-individual_entity_attribute-attrib_HH-attrib $-1 $-1 $-1 $49 F #
coedge $124 $50 $49 $125 $126 reversed $23 $-1 #
coedge $127 $128 $129 $49 $77 forward $130 $-1 #
edge $131 $132 -25 $84 18.333333333333332 $76 $133 forward 7 unknown #
attrib_hh_coedge_geombuild-attrib_entity_geombuild-individual_entity_attribute-attrib_HH-attrib $-1 $-1 $-1 $50 F #
edge $134 $85 -18.333333333333332 $135 25 $70 $136 forward 7 unknown #
attrib_hh_coedge_geombuild-attrib_entity_geombuild-individual_entity_attribute-attrib_HH-attrib $-1 $-1 $-1 $51 F #
coedge $137 $51 $138 $128 $139 forward $82 $-1 #
loop $-1 $140 $141 $142 #
attrib_edge_convexity-kcp-attrib $-1 $143 $-1 $52 1 #
vertex $144 $139 $145 #
vertex $146 $73 $147 #
ellipse-curve $-1 29 -14 50 0 0 -1 4.2426406871192803 -4.2426406871192803 0 1 I I #
model_id-kcp-attrib $-1 $-1 $-1 $54 1 1017637758 80 -2108686334 4 #
face $148 $149 $150 $17 $-1 $151 reversed single #
loop $-1 $-1 $152 $54 #
plane-surface $-1 0 -50 0 0 1 0 0 0 1 forward_v I I I I #
coedge $-1 $153 $154 $155 $156 forward $55 $-1 #
coedge $-1 $157 $57 $158 $159 forward $36 $-1 #
coedge $-1 $57 $157 $160 $161 forward $36 $-1 #
coedge $-1 $162 $163 $57 $95 reversed $164 $-1 #
edge $-1 $165 -50 $166 50 $94 $167 forward 7 unknown #
face $-1 $168 $169 $19 $-1 $170 forward single #
loop $-1 $-1 $171 $58 #
plane-surface $-1 -12 -14 -15 -1 0 0 0 0 1 forward_v I I I I #
coedge $-1 $172 $173 $174 $175 forward $59 $-1 #
coedge $-1 $176 $61 $173 $177 reversed $39 $-1 #
coedge $-1 $61 $176 $178 $179 forward $39 $-1 #
coedge $-1 $180 $174 $61 $103 reversed $181 $-1 #
edge $-1 $182 -13.25 $183 21.74999999999995 $61 $184 forward 7 unknown #
aggregate_geombuild_attribute-aggregate_geombuild_base_attribute-aggregate_body_attribute-attrib_HH-attrib $-1 $185 $62 $0 #
attrib_hh_face_geombuild-attrib_entity_geombuild-individual_entity_attribute-attrib_HH-attrib $-1 $-1 $64 $44 F #
model_id-kcp-attrib $-1 $186 $-1 $65 1 1017637758 80 -2108686335 6 #
face $187 $188 $189 $8 $-1 $190 forward single #
loop $-1 $-1 $191 $65 #
cone-surface $-1 -5.9999999999999503 14 22.5 0 0 -1 -4.2426406871192803 4.2426406871192803 0 1 I I 0 1 5.9999999999999929 forward I I I I #
coedge $192 $193 $194 $195 $196 reversed $66 $-1 #
attrib_hh_coedge_geombuild-attrib_entity_geombuild-individual_entity_attribute-attrib_HH-attrib $-1 $-1 $-1 $68 F #
coedge $197 $198 $68 $71 $119 reversed $45 $-1 #
coedge $199 $68 $198 $193 $200 reversed $45 $-1 #
coedge $201 $195 $72 $68 $115 forward $82 $-1 #
edge $202 $122 -0.78539816339744828 $203 0.78539816339744828 $114 $204 forward 7 unknown #
attrib_hh_coedge_geombuild-attrib_entity_geombuild-individual_entity_attribute-attrib_HH-attrib $-1 $-1 $-1 $70 F #
coedge $205 $71 $70 $206 $207 forward $31 $-1 #
attrib_hh_coedge_geombuild-attrib_entity_geombuild-individual_entity_attribute-attrib_HH-attrib $-1 $-1 $-1 $71 F #
edge $208 $209 -25 $122 18.333333333333332 $71 $210 forward 7 unknown #
attrib_hh_coedge_geombuild-attrib_entity_geombuild-individual_entity_attribute-attrib_HH-attrib $-1 $-1 $-1 $72 F #
attrib_edge_convexity-kcp-attrib $-1 $211 $-1 $73 1 #
vertex $212 $115 $213 #
straight-curve $-1 10 -20 50 -1 0 0 I I #
attrib_hh_coedge_geombuild-attrib_entity_geombuild-individual_entity_attribute-attrib_HH-attrib $-1 $-1 $-1 $75 F #
coedge $214 $215 $206 $75 $126 forward $189 $-1 #
edge $216 $135 -0.78539816339744828 $132 0.78539816339744828 $125 $217 forward 7 unknown #
attrib_hh_coedge_geombuild-attrib_entity_geombuild-individual_entity_attribute-attrib_HH-attrib $-1 $-1 $-1 $76 F #
coedge $218 $219 $76 $81 $139 reversed $130 $-1 #
coedge $220 $76 $219 $215 $221 forward $130 $-1 #
loop $-1 $-1 $128 $222 #
attrib_hh_edge_geombuild-attrib_entity_geombuild-individual_entity_attribute-attrib_HH-attrib $-1 $-1 $-1 $77 F #
vertex $223 $221 $224 #
straight-curve $-1 35 -14 22.5 0 0 1.5 I I #
attrib_hh_edge_geombuild-attrib_entity_geombuild-individual_entity_attribute-attrib_HH-attrib $-1 $-1 $-1 $79 F #
vertex $225 $126 $226 #
straight-curve $-1 29 -20 22.5 0 0 -1.5 I I #
attrib_hh_coedge_geombuild-attrib_entity_geombuild-individual_entity_attribute-attrib_HH-attrib $-1 $-1 $-1 $81 F #
coedge $227 $81 $228 $229 $230 forward $82 $-1 #
edge $231 $232 -16.5 $84 11.5 $81 $233 forward 7 unknown #
loop $-1 $-1 $234 $142 #
coedge $235 $228 $195 $191 $236 forward $82 $-1 #
face $237 $238 $82 $8 $-1 $239 forward single #
convexity-sys-attrib $-1 $240 $83 $52 #
attrib_hh_vertex_geombuild-attrib_entity_geombuild-individual_entity_attribute-attrib_HH-attrib $-1 $-1 $-1 $84 F #
point $-1 35 -14 50 #
attrib_hh_vertex_geombuild-attrib_entity_geombuild-individual_entity_attribute-attrib_HH-attrib $-1 $-1 $-1 $85 F #
point $-1 29 -20 50 #
model_id-kcp-attrib $-1 $-1 $-1 $88 1 1017637758 80 -2108686334 5 #
face $241 $242 $243 $17 $-1 $244 reversed single #
loop $-1 $-1 $245 $88 #
plane-surface $-1 -50 0 0 1 0 0 0 0 -1 forward_v I I I I #
coedge $-1 $246 $160 $247 $248 forward $89 $-1 #
coedge $-1 $249 $91 $246 $250 forward $55 $-1 #
coedge $-1 $91 $249 $251 $252 forward $55 $-1 #
coedge $-1 $163 $162 $91 $156 reversed $164 $-1 #
edge $-1 $253 -50 $254 50 $155 $255 forward 7 unknown #
coedge $-1 $93 $92 $256 $257 forward $36 $-1 #
coedge $-1 $258 $259 $92 $159 reversed $243 $-1 #
edge $-1 $166 -50 $260 50 $158 $261 forward 7 unknown #
coedge $-1 $152 $262 $93 $161 reversed $89 $-1 #
edge $-1 $263 -50 $165 50 $160 $264 forward 7 unknown #
coedge $-1 $155 $94 $262 $265 forward $164 $-1 #
coedge $-1 $94 $155 $258 $266 reversed $164 $-1 #
loop $-1 $-1 $162 $242 #
vertex $-1 $95 $267 #
vertex $-1 $95 $268 #
straight-curve $-1 50 0 50 0 1 0 I I #
face $-1 $269 $270 $19 $-1 $271 forward single #
loop $-1 $-1 $272 $96 #
cone-surface $-1 -5.9999999999999503 14 -15 0 0 1 -4.2426406871192803 4.2426406871192803 0 1 I I 0 1 5.9999999999999929 forward I I I I #
coedge $-1 $273 $274 $275 $276 forward $97 $-1 #
coedge $-1 $277 $99 $274 $278 reversed $59 $-1 #
coedge $-1 $99 $277 $100 $177 forward $59 $-1 #
coedge $-1 $102 $275 $99 $175 reversed $181 $-1 #
edge $-1 $183 -0.78539816339744828 $279 0.78539816339744828 $99 $280 forward 7 unknown #
coedge $-1 $101 $100 $281 $282 reversed $39 $-1 #
edge $283 $284 0 $183 65 $173 $285 forward 7 unknown #
coedge $-1 $286 $287 $101 $179 reversed $288 $-1 #
edge $-1 $289 0 $182 65 $101 $290 forward 7 unknown #
coedge $-1 $291 $102 $287 $292 reversed $181 $-1 #
loop $-1 $-1 $102 $293 #
vertex $-1 $179 $294 #
vertex $-1 $177 $295 #
straight-curve $-1 15.75 -20 50 -1 0 0 I I #
aggregate_stitch_attribute-aggregate_stitch_base_attribute-aggregate_body_attribute-attrib_HH-attrib $-1 $296 $104 $0 F #
attrib_hh_face_geombuild-attrib_entity_geombuild-individual_entity_attribute-attrib_HH-attrib $-1 $-1 $106 $65 F #
model_id-kcp-attrib $-1 $297 $-1 $107 1 1017637758 80 -2108686335 7 #
face $298 $299 $300 $8 $-1 $301 forward single #
loop $-1 $-1 $206 $107 #
plane-surface $-1 20 -5 -15 0 0 1 1.5 0 0 forward_v I I I I #
coedge $302 $303 $304 $141 $236 reversed $108 $-1 #
attrib_hh_coedge_geombuild-attrib_entity_geombuild-individual_entity_attribute-attrib_HH-attrib $-1 $-1 $-1 $110 F #
coedge $305 $306 $110 $113 $200 forward $66 $-1 #
coedge $307 $110 $306 $303 $308 forward $66 $-1 #
coedge $309 $141 $114 $110 $196 forward $82 $-1 #
edge $310 $203 -11.5 $311 16.5 $195 $312 forward 7 unknown #
attrib_hh_coedge_geombuild-attrib_entity_geombuild-individual_entity_attribute-attrib_HH-attrib $-1 $-1 $-1 $112 F #
coedge $313 $113 $112 $314 $315 reversed $45 $-1 #
attrib_hh_coedge_geombuild-attrib_entity_geombuild-individual_entity_attribute-attrib_HH-attrib $-1 $-1 $-1 $113 F #
edge $316 $203 -18.333333333333332 $317 25 $193 $318 forward 7 unknown #
attrib_hh_coedge_geombuild-attrib_entity_geombuild-individual_entity_attribute-attrib_HH-attrib $-1 $-1 $-1 $114 F #
attrib_edge_convexity-kcp-attrib $-1 $319 $-1 $115 1 #
vertex $320 $196 $321 #
ellipse-curve $-1 -5.9999999999999503 -14 50 0 0 -1 -4.2426406871192803 -4.2426406871192803 0 1 I I #
attrib_hh_coedge_geombuild-attrib_entity_geombuild-individual_entity_attribute-attrib_HH-attrib $-1 $-1 $-1 $117 F #
coedge $322 $125 $314 $117 $207 reversed $189 $-1 #
edge $323 $135 -6 $209 17.3333333333333 $117 $324 forward 7 unknown #
attrib_hh_edge_geombuild-attrib_entity_geombuild-individual_entity_attribute-attrib_HH-attrib $-1 $-1 $-1 $119 F #
vertex $325 $207 $326 #
straight-curve $-1 -5.9999999999999503 -20 22.5 0 0 1.5 I I #
convexity-sys-attrib $-1 $327 $121 $73 #
attrib_hh_vertex_geombuild-attrib_entity_geombuild-individual_entity_attribute-attrib_HH-attrib $-1 $-1 $-1 $122 F #
point $-1 -5.9999999999999503 -20 50 #
attrib_hh_coedge_geombuild-attrib_entity_geombuild-individual_entity_attribute-attrib_HH-attrib $-1 $-1 $-1 $125 F #
coedge $328 $329 $125 $129 $221 reversed $189 $-1 #
attrib_hh_edge_geombuild-attrib_entity_geombuild-individual_entity_attribute-attrib_HH-attrib $-1 $-1 $-1 $126 F #
ellipse-curve $-1 29 -14 -15 0 0 1 4.2426406871192803 -4.2426406871192803 0 1 I I #
attrib_hh_coedge_geombuild-attrib_entity_geombuild-individual_entity_attribute-attrib_HH-attrib $-1 $-1 $-1 $128 F #
coedge $330 $129 $128 $331 $332 forward $130 $-1 #
attrib_hh_coedge_geombuild-attrib_entity_geombuild-individual_entity_attribute-attrib_HH-attrib $-1 $-1 $-1 $129 F #
edge $333 $334 -6 $132 12.666666666666666 $129 $335 forward 7 unknown #
face $336 $142 $130 $8 $-1 $337 forward single #
attrib_hh_vertex_geombuild-attrib_entity_geombuild-individual_entity_attribute-attrib_HH-attrib $-1 $-1 $-1 $132 F #
point $-1 35 -14 -15 #
attrib_hh_vertex_geombuild-attrib_entity_geombuild-individual_entity_attribute-attrib_HH-attrib $-1 $-1 $-1 $135 F #
point $-1 29 -20 -15 #
attrib_hh_coedge_geombuild-attrib_entity_geombuild-individual_entity_attribute-attrib_HH-attrib $-1 $-1 $-1 $138 F #
coedge $338 $138 $141 $339 $340 forward $82 $-1 #
coedge $341 $342 $331 $138 $230 reversed $343 $-1 #
edge $344 $345 -0.78539816339744828 $232 0.78539816339744828 $138 $346 forward 7 unknown #
attrib_edge_convexity-kcp-attrib $-1 $347 $-1 $139 1 #
vertex $348 $230 $349 #
straight-curve $-1 35 -2.5 50 0 -1 0 I I #
coedge $350 $351 $352 $353 $354 forward $140 $-1 #
attrib_hh_coedge_geombuild-attrib_entity_geombuild-individual_entity_attribute-attrib_HH-attrib $-1 $-1 $-1 $141 F #
edge $355 $311 -0.78539816339744828 $356 0.78539816339744828 $141 $357 forward 7 unknown #
model_id-kcp-attrib $-1 $358 $-1 $142 1 1017637758 80 -2108686335 11 #
face $359 $360 $361 $8 $-1 $362 reversed single #
plane-surface $-1 0 0 50 0 0 1 1 0 0 forward_v I I I I #
attrib_hh_edge_geombuild-attrib_entity_geombuild-individual_entity_attribute-attrib_HH-attrib $-1 $-1 $143 $52 F #
model_id-kcp-attrib $-1 $-1 $-1 $149 1 1017637758 80 -2108686334 6 #
face $363 $-1 $164 $17 $-1 $364 reversed single #
loop $-1 $-1 $258 $149 #
plane-surface $-1 0 50 0 0 -1 0 0 0 -1 forward_v I I I I #
coedge $-1 $365 $256 $259 $366 forward $150 $-1 #
coedge $-1 $262 $152 $153 $250 reversed $89 $-1 #
coedge $-1 $256 $365 $152 $248 reversed $150 $-1 #
edge $-1 $263 -50 $367 50 $247 $368 forward 7 unknown #
coedge $-1 $154 $153 $365 $369 forward $55 $-1 #
edge $-1 $254 -50 $367 50 $246 $370 forward 7 unknown #
coedge $-1 $259 $258 $154 $252 reversed $243 $-1 #
edge $-1 $371 -50 $253 50 $251 $372 forward 7 unknown #
vertex $-1 $156 $373 #
vertex $-1 $265 $374 #
straight-curve $-1 50 0 -50 0 -1 0 I I #
coedge $-1 $245 $247 $157 $257 reversed $150 $-1 #
edge $-1 $260 -50 $263 50 $256 $375 forward 7 unknown #
coedge $-1 $251 $158 $163 $266 forward $243 $-1 #
coedge $-1 $158 $251 $245 $366 reversed $243 $-1 #
vertex $-1 $159 $376 #
straight-curve $-1 0 50 50 -1 0 0 I I #
coedge $-1 $160 $246 $162 $265 reversed $89 $-1 #
vertex $-1 $257 $377 #
straight-curve $-1 0 -50 50 1 0 0 I I #
edge $-1 $165 -50 $254 50 $162 $378 forward 7 unknown #
edge $-1 $166 -50 $253 50 $163 $379 forward 7 unknown #
point $-1 50 -50 50 #
point $-1 50 50 50 #
face $-1 $380 $381 $19 $-1 $382 forward single #
loop $-1 $-1 $383 $168 #
plane-surface $-1 -5.9999999999999503 20 -15 0 1 0 0 0 1 forward_v I I I I #
coedge $-1 $384 $385 $386 $387 forward $169 $-1 #
coedge $-1 $388 $171 $385 $389 reversed $97 $-1 #
coedge $-1 $171 $388 $172 $278 forward $97 $-1 #
coedge $-1 $174 $386 $171 $276 reversed $181 $-1 #
edge $-1 $279 -11.5 $390 16.5 $171 $391 forward 7 unknown #
coedge $-1 $173 $172 $392 $393 reversed $59 $-1 #
edge $-1 $394 0 $279 65 $274 $395 forward 7 unknown #
vertex $-1 $278 $396 #
ellipse-curve $-1 -5.9999999999999503 -14 50 0 0 -1 -4.2426406871192803 -4.2426406871192803 0 1 I I #
coedge $-1 $392 $397 $176 $282 forward $398 $-1 #
edge $399 $289 -13.25 $284 21.74999999999995 $176 $400 forward 7 unknown #
convexity-sys-attrib $-1 $-1 $-1 $177 #
vertex $-1 $282 $401 #
straight-curve $-1 -5.9999999999999503 -20 -15 0 0 1 I I #
coedge $-1 $402 $178 $397 $403 reversed $288 $-1 #
coedge $-1 $178 $402 $180 $292 forward $288 $-1 #
loop $-1 $-1 $287 $404 #
vertex $-1 $403 $405 #
straight-curve $-1 29 -20 -15 0 0 1 I I #
coedge $-1 $406 $180 $407 $408 reversed $181 $-1 #
edge $-1 $409 -0.78539816339744828 $182 0.78539816339744828 $287 $410 forward 7 unknown #
face $-1 $411 $181 $19 $-1 $412 forward single #
point $-1 29 -20 50 #
point $-1 -5.9999999999999503 -20 50 #
aggregate_simgeom_attribute-aggregate_simgeom_base_attribute-aggregate_body_attribute-attrib_HH-attrib $-1 $-1 $185 $0 F #
attrib_hh_face_geombuild-attrib_entity_geombuild-individual_entity_attribute-attrib_HH-attrib $-1 $-1 $187 $107 F #
model_id-kcp-attrib $-1 $413 $-1 $188 1 1017637758 80 -2108686335 8 #
face $414 $222 $343 $8 $-1 $415 reversed single #
loop $-1 $-1 $339 $188 #
plane-surface $-1 20 20 22.5 0 -1 0 0 0 -1.5 forward_v I I I I #
attrib_hh_coedge_geombuild-attrib_entity_geombuild-individual_entity_attribute-attrib_HH-attrib $-1 $-1 $-1 $191 F #
coedge $416 $417 $191 $194 $308 reversed $108 $-1 #
coedge $418 $191 $417 $419 $420 reversed $108 $-1 #
attrib_hh_coedge_geombuild-attrib_entity_geombuild-individual_entity_attribute-attrib_HH-attrib $-1 $-1 $-1 $193 F #
coedge $421 $194 $193 $422 $423 forward $66 $-1 #
attrib_hh_coedge_geombuild-attrib_entity_geombuild-individual_entity_attribute-attrib_HH-attrib $-1 $-1 $-1 $194 F #
edge $424 $425 -25 $311 18.333333333333332 $194 $426 forward 7 unknown #
attrib_hh_coedge_geombuild-attrib_entity_geombuild-individual_entity_attribute-attrib_HH-attrib $-1 $-1 $-1 $195 F #
attrib_edge_convexity-kcp-attrib $-1 $427 $-1 $196 1 #
vertex $428 $236 $429 #
straight-curve $-1 -12 -2.5 50 0 1 0 I I #
attrib_hh_coedge_geombuild-attrib_entity_geombuild-individual_entity_attribute-attrib_HH-attrib $-1 $-1 $-1 $198 F #
coedge $430 $206 $422 $198 $315 forward $189 $-1 #
edge $431 $317 -0.78539816339744828 $209 0.78539816339744828 $314 $432 forward 7 unknown #
attrib_hh_edge_geombuild-attrib_entity_geombuild-individual_entity_attribute-attrib_HH-attrib $-1 $-1 $-1 $200 F #
vertex $433 $200 $434 #
straight-curve $-1 -12 -14 22.5 0 0 -1.5 I I #
convexity-sys-attrib $-1 $435 $202 $115 #
attrib_hh_vertex_geombuild-attrib_entity_geombuild-individual_entity_attribute-attrib_HH-attrib $-1 $-1 $-1 $203 F #
point $-1 -12 -14 50 #
attrib_hh_coedge_geombuild-attrib_entity_geombuild-individual_entity_attribute-attrib_HH-attrib $-1 $-1 $-1 $206 F #
attrib_hh_edge_geombuild-attrib_entity_geombuild-individual_entity_attribute-attrib_HH-attrib $-1 $-1 $-1 $207 F #
straight-curve $-1 20 -20 -15 -1.5 0 0 I I #
attrib_hh_vertex_geombuild-attrib_entity_geombuild-individual_entity_attribute-attrib_HH-attrib $-1 $-1 $-1 $209 F #
point $-1 -5.9999999999999503 -20 -15 #
attrib_hh_edge_geombuild-attrib_entity_geombuild-individual_entity_attribute-attrib_HH-attrib $-1 $-1 $211 $73 F #
attrib_hh_coedge_geombuild-attrib_entity_geombuild-individual_entity_attribute-attrib_HH-attrib $-1 $-1 $-1 $215 F #
coedge $436 $437 $215 $438 $439 forward $189 $-1 #
attrib_hh_coedge_geombuild-attrib_entity_geombuild-individual_entity_attribute-attrib_HH-attrib $-1 $-1 $-1 $219 F #
coedge $440 $229 $438 $219 $332 reversed $343 $-1 #
edge $441 $232 -18.333333333333332 $334 25 $219 $442 forward 7 unknown #
attrib_hh_edge_geombuild-attrib_entity_geombuild-individual_entity_attribute-attrib_HH-attrib $-1 $-1 $-1 $221 F #
vertex $443 $332 $444 #
straight-curve $-1 35 5 -15 0 -1.5 0 I I #
model_id-kcp-attrib $-1 $445 $-1 $222 1 1017637758 80 -2108686335 10 #
plane-surface $-1 35 -5 22.5 -1 0 0 0 0 1.5 forward_v I I I I #
attrib_hh_coedge_geombuild-attrib_entity_geombuild-individual_entity_attribute-attrib_HH-attrib $-1 $-1 $-1 $228 F #
coedge $446 $419 $447 $228 $340 reversed $300 $-1 #
edge $448 $356 -15.99999999999995 $345 19 $228 $449 forward 7 unknown #
attrib_hh_coedge_geombuild-attrib_entity_geombuild-individual_entity_attribute-attrib_HH-attrib $-1 $-1 $-1 $229 F #
coedge $450 $438 $229 $447 $451 reversed $343 $-1 #
loop $-1 $-1 $229 $299 #
attrib_edge_convexity-kcp-attrib $-1 $452 $-1 $230 1 #
vertex $453 $340 $454 #
ellipse-curve $-1 29 14 50 0 0 -1 4.2426406871192803 4.2426406871192803 0 1 I I #
convexity-sys-attrib $-1 $455 $231 $139 #
attrib_hh_vertex_geombuild-attrib_entity_geombuild-individual_entity_attribute-attrib_HH-attrib $-1 $-1 $-1 $232 F #
point $-1 35 14 50 #
attrib_hh_coedge_geombuild-attrib_entity_geombuild-individual_entity_attribute-attrib_HH-attrib $-1 $-1 $-1 $234 F #
coedge $456 $457 $234 $458 $459 forward $140 $-1 #
coedge $460 $234 $457 $461 $462 forward $140 $-1 #
coedge $463 $464 $465 $234 $354 reversed $466 $-1 #
edge $467 $468 -50 $469 50 $353 $470 forward 7 unknown #
attrib_edge_convexity-kcp-attrib $-1 $471 $-1 $236 1 #
vertex $472 $236 $473 #
ellipse-curve $-1 -5.9999999999999503 14 50 0 0 -1 -4.2426406871192803 4.2426406871192803 0 1 I I #
attrib_hh_face_geombuild-attrib_entity_geombuild-individual_entity_attribute-attrib_HH-attrib $-1 $-1 $237 $142 F #
model_id-kcp-attrib $-1 $474 $-1 $238 1 1017637758 80 -2108686335 12 #
face $475 $476 $477 $8 $-1 $478 reversed single #
loop $-1 $-1 $479 $238 #
plane-surface $-1 0 0 -50 0 0 1 1 0 0 forward_v I I I I #
model_id-kcp-attrib $-1 $-1 $-1 $242 1 1017637758 80 -2108686334 7 #
plane-surface $-1 50 0 0 -1 0 0 0 0 1 forward_v I I I I #
coedge $-1 $247 $245 $249 $369 reversed $150 $-1 #
edge $-1 $260 -50 $371 50 $259 $480 forward 7 unknown #
vertex $-1 $369 $481 #
straight-curve $-1 -50 -50 0 0 0 -1 I I #
edge $-1 $367 -50 $371 50 $365 $482 forward 7 unknown #
straight-curve $-1 0 -50 -50 -1 0 0 I I #
vertex $-1 $252 $483 #
straight-curve $-1 0 50 -50 1 0 0 I I #
point $-1 50 50 -50 #
point $-1 50 -50 -50 #
straight-curve $-1 -50 0 50 0 -1 0 I I #
point $-1 -50 50 50 #
point $-1 -50 -50 50 #
straight-curve $-1 50 -50 0 0 0 -1 I I #
straight-curve $-1 50 50 0 0 0 -1 I I #
face $-1 $404 $484 $19 $-1 $485 forward single #
loop $-1 $-1 $486 $269 #
cone-surface $-1 29 14 -15 0 0 1 4.2426406871192803 4.2426406871192803 0 1 I I 0 1 5.9999999999999929 forward I I I I #
coedge $-1 $487 $488 $489 $490 forward $270 $-1 #
coedge $-1 $491 $272 $488 $492 reversed $169 $-1 #
coedge $-1 $272 $491 $273 $389 forward $169 $-1 #
coedge $-1 $275 $489 $272 $387 reversed $181 $-1 #
edge $-1 $390 -0.78539816339744828 $493 0.78539816339744828 $272 $494 forward 7 unknown #
coedge $-1 $274 $273 $495 $496 reversed $97 $-1 #
edge $-1 $497 0 $390 65 $385 $498 forward 7 unknown #
vertex $-1 $389 $499 #
straight-curve $-1 -12 -2.5 50 0 1 0 I I #
coedge $-1 $495 $281 $277 $393 forward $398 $-1 #
edge $500 $284 -0.78539816339744828 $394 0.78539816339744828 $277 $501 forward 7 unknown #
vertex $-1 $393 $502 #
straight-curve $-1 -12 -14 -15 0 0 1 I I #
point $-1 -12 -14 50 #
coedge $-1 $281 $503 $286 $403 forward $398 $-1 #
loop $-1 $-1 $397 $411 #
convexity-sys-attrib $-1 $-1 $-1 $282 #
straight-curve $-1 15.75 -20 -15 -1 0 0 I I #
point $-1 -5.9999999999999503 -20 -15 #
coedge $-1 $287 $286 $504 $505 forward $288 $-1 #
edge $506 $507 -0.78539816339744828 $289 0.78539816339744828 $286 $508 forward 7 unknown #
face $-1 $293 $288 $19 $-1 $509 forward single #
point $-1 29 -20 -15 #
coedge $-1 $489 $291 $486 $510 reversed $181 $-1 #
coedge $-1 $504 $511 $291 $408 forward $484 $-1 #
edge $-1 $512 -16.5 $409 11.5 $407 $513 forward 7 unknown #
vertex $-1 $505 $514 #
ellipse-curve $-1 29 -14 50 0 0 -1 4.2426406871192803 -4.2426406871192803 0 1 I I #
face $-1 $-1 $398 $19 $-1 $515 reversed single #
plane-surface $-1 11.500000000000014 0 50 0 0 1 1 0 0 forward_v I I I I #
attrib_hh_face_geombuild-attrib_entity_geombuild-individual_entity_attribute-attrib_HH-attrib $-1 $-1 $298 $188 F #
model_id-kcp-attrib $-1 $516 $-1 $299 1 1017637758 80 -2108686335 9 #
cone-surface $-1 29 14 22.5 0 0 -1 4.2426406871192803 4.2426406871192803 0 1 I I 0 1 5.9999999999999929 forward I I I I #
attrib_hh_coedge_geombuild-attrib_entity_geombuild-individual_entity_attribute-attrib_HH-attrib $-1 $-1 $-1 $303 F #
coedge $517 $304 $303 $518 $519 reversed $108 $-1 #
attrib_hh_coedge_geombuild-attrib_entity_geombuild-individual_entity_attribute-attrib_HH-attrib $-1 $-1 $-1 $304 F #
coedge $520 $521 $339 $304 $420 forward $300 $-1 #
edge $522 $356 -18.333333333333332 $523 25 $419 $524 forward 7 unknown #
attrib_hh_coedge_geombuild-attrib_entity_geombuild-individual_entity_attribute-attrib_HH-attrib $-1 $-1 $-1 $306 F #
coedge $525 $314 $518 $306 $423 reversed $189 $-1 #
edge $526 $317 -6 $425 12.666666666666666 $306 $527 forward 7 unknown #
attrib_hh_edge_geombuild-attrib_entity_geombuild-individual_entity_attribute-attrib_HH-attrib $-1 $-1 $-1 $308 F #
vertex $528 $423 $529 #
straight-curve $-1 -12 14 22.5 0 0 1.5 I I #
convexity-sys-attrib $-1 $530 $310 $196 #
attrib_hh_vertex_geombuild-attrib_entity_geombuild-individual_entity_attribute-attrib_HH-attrib $-1 $-1 $-1 $311 F #
point $-1 -12 14 50 #
attrib_hh_coedge_geombuild-attrib_entity_geombuild-individual_entity_attribute-attrib_HH-attrib $-1 $-1 $-1 $314 F #
attrib_hh_edge_geombuild-attrib_entity_geombuild-individual_entity_attribute-attrib_HH-attrib $-1 $-1 $-1 $315 F #
ellipse-curve $-1 -5.9999999999999503 -14 -15 0 0 1 -4.2426406871192803 -4.2426406871192803 0 1 I I #
attrib_hh_vertex_geombuild-attrib_entity_geombuild-individual_entity_attribute-attrib_HH-attrib $-1 $-1 $-1 $317 F #
point $-1 -12 -14 -15 #
attrib_hh_edge_geombuild-attrib_entity_geombuild-individual_entity_attribute-attrib_HH-attrib $-1 $-1 $319 $115 F #
attrib_hh_coedge_geombuild-attrib_entity_geombuild-individual_entity_attribute-attrib_HH-attrib $-1 $-1 $-1 $329 F #
coedge $531 $518 $329 $521 $532 forward $189 $-1 #
coedge $533 $331 $342 $329 $439 reversed $343 $-1 #
edge $534 $334 -0.78539816339744828 $535 0.78539816339744828 $329 $536 forward 7 unknown #
attrib_hh_coedge_geombuild-attrib_entity_geombuild-individual_entity_attribute-attrib_HH-attrib $-1 $-1 $-1 $331 F #
attrib_hh_edge_geombuild-attrib_entity_geombuild-individual_entity_attribute-attrib_HH-attrib $-1 $-1 $-1 $332 F #
straight-curve $-1 35 14 22.5 0 0 -1.5 I I #
attrib_hh_vertex_geombuild-attrib_entity_geombuild-individual_entity_attribute-attrib_HH-attrib $-1 $-1 $-1 $334 F #
point $-1 35 14 -15 #
attrib_hh_face_geombuild-attrib_entity_geombuild-individual_entity_attribute-attrib_HH-attrib $-1 $-1 $336 $222 F #
attrib_hh_coedge_geombuild-attrib_entity_geombuild-individual_entity_attribute-attrib_HH-attrib $-1 $-1 $-1 $339 F #
coedge $537 $339 $521 $342 $451 forward $300 $-1 #
attrib_edge_convexity-kcp-attrib $-1 $538 $-1 $340 1 #
straight-curve $-1 10 20 50 1 0 0 I I #
attrib_hh_coedge_geombuild-attrib_entity_geombuild-individual_entity_attribute-attrib_HH-attrib $-1 $-1 $-1 $342 F #
edge $539 $535 -25 $345 18.333333333333332 $447 $540 forward 7 unknown #
convexity-sys-attrib $-1 $541 $344 $230 #
attrib_hh_vertex_geombuild-attrib_entity_geombuild-individual_entity_attribute-attrib_HH-attrib $-1 $-1 $-1 $345 F #
point $-1 29 20 50 #
attrib_hh_edge_geombuild-attrib_entity_geombuild-individual_entity_attribute-attrib_HH-attrib $-1 $-1 $347 $139 F #
attrib_hh_coedge_geombuild-attrib_entity_geombuild-individual_entity_attribute-attrib_HH-attrib $-1 $-1 $-1 $351 F #
coedge $542 $352 $351 $543 $544 forward $140 $-1 #
coedge $545 $546 $547 $351 $459 reversed $548 $-1 #
edge $549 $469 -50 $550 50 $458 $551 forward 7 unknown #
attrib_hh_coedge_geombuild-attrib_entity_geombuild-individual_entity_attribute-attrib_HH-attrib $-1 $-1 $-1 $352 F #
coedge $552 $553 $554 $352 $462 reversed $477 $-1 #
edge $555 $556 -50 $468 50 $461 $557 forward 7 unknown #
attrib_hh_coedge_geombuild-attrib_entity_geombuild-individual_entity_attribute-attrib_HH-attrib $-1 $-1 $-1 $353 F #
coedge $558 $559 $353 $554 $560 forward $466 $-1 #
coedge $561 $353 $559 $546 $562 reversed $466 $-1 #
loop $-1 $-1 $464 $563 #
attrib_edge_convexity-kcp-attrib $-1 $564 $-1 $354 1 #
vertex $565 $354 $566 #
vertex $567 $354 $568 #
straight-curve $-1 50 0 50 0 1 0 I I #
convexity-sys-attrib $-1 $569 $355 $236 #
attrib_hh_vertex_geombuild-attrib_entity_geombuild-individual_entity_attribute-attrib_HH-attrib $-1 $-1 $-1 $356 F #
point $-1 -5.9999999999999503 20 50 #
attrib_hh_face_geombuild-attrib_entity_geombuild-individual_entity_attribute-attrib_HH-attrib $-1 $-1 $359 $238 F #
model_id-kcp-attrib $-1 $570 $-1 $360 1 1017637758 80 -2108686335 13 #
face $571 $572 $573 $8 $-1 $574 reversed single #
loop $-1 $-1 $553 $360 #
plane-surface $-1 0 -50 0 0 1 0 0 0 1 forward_v I I I I #
coedge $575 $576 $577 $559 $578 forward $361 $-1 #
straight-curve $-1 -50 50 0 0 0 -1 I I #
point $-1 -50 -50 -50 #
straight-curve $-1 -50 0 -50 0 1 0 I I #
point $-1 -50 50 -50 #
loop $-1 $-1 $407 $380 #
plane-surface $-1 35 14 -15 1 0 0 0 0 -1 forward_v I I I I #
coedge $-1 $579 $580 $406 $510 forward $381 $-1 #
coedge $-1 $581 $383 $580 $582 reversed $270 $-1 #
coedge $-1 $383 $581 $384 $492 forward $270 $-1 #
coedge $-1 $386 $406 $383 $490 reversed $181 $-1 #
edge $-1 $493 -21.74999999999995 $583 13.25 $383 $584 forward 7 unknown #
coedge $-1 $385 $384 $585 $586 reversed $169 $-1 #
edge $-1 $587 0 $493 65 $488 $588 forward 7 unknown #
vertex $-1 $492 $589 #
ellipse-curve $-1 -5.9999999999999503 14 50 0 0 -1 -4.2426406871192803 4.2426406871192803 0 1 I I #
coedge $-1 $585 $392 $388 $496 forward $398 $-1 #
edge $590 $394 -11.5 $497 16.5 $388 $591 forward 7 unknown #
vertex $-1 $496 $592 #
straight-curve $-1 -12 14 -15 0 0 1 I I #
point $-1 -12 14 50 #
convexity-sys-attrib $-1 $-1 $-1 $393 #
ellipse-curve $-1 -5.9999999999999503 -14 -15 0 0 -1 -4.2426406871192803 -4.2426406871192803 0 1 I I #
point $-1 -12 -14 -15 #
coedge $-1 $397 $593 $594 $595 forward $398 $-1 #
coedge $-1 $594 $407 $402 $505 reversed $484 $-1 #
edge $-1 $507 0 $409 65 $402 $596 forward 7 unknown #
convexity-sys-attrib $-1 $-1 $-1 $403 #
vertex $-1 $403 $597 #
ellipse-curve $-1 29 -14 -15 0 0 -1 4.2426406871192803 -4.2426406871192803 0 1 I I #
cone-surface $-1 29 -14 -15 0 0 1 4.2426406871192803 -4.2426406871192803 0 1 I I 0 1 5.9999999999999929 forward I I I I #
edge $-1 $583 -0.78539816339744828 $512 0.78539816339744828 $486 $598 forward 7 unknown #
coedge $-1 $407 $594 $579 $599 forward $484 $-1 #
vertex $-1 $599 $600 #
straight-curve $-1 35 -2.5 50 0 -1 0 I I #
point $-1 35 -14 50 #
plane-surface $-1 11.500000000000014 0 -15 0 0 1 1 0 0 forward_v I I I I #
attrib_hh_face_geombuild-attrib_entity_geombuild-individual_entity_attribute-attrib_HH-attrib $-1 $-1 $414 $299 F #
attrib_hh_coedge_geombuild-attrib_entity_geombuild-individual_entity_attribute-attrib_HH-attrib $-1 $-1 $-1 $417 F #
coedge $601 $422 $437 $417 $519 forward $189 $-1 #
edge $602 $523 -0.78539816339744828 $425 0.78539816339744828 $518 $603 forward 7 unknown #
attrib_hh_coedge_geombuild-attrib_entity_geombuild-individual_entity_attribute-attrib_HH-attrib $-1 $-1 $-1 $419 F #
coedge $604 $447 $419 $437 $532 reversed $300 $-1 #
attrib_hh_edge_geombuild-attrib_entity_geombuild-individual_entity_attribute-attrib_HH-attrib $-1 $-1 $-1 $420 F #
vertex $605 $519 $606 #
straight-curve $-1 -5.9999999999999503 20 22.5 0 0 -1.5 I I #
attrib_hh_coedge_geombuild-attrib_entity_geombuild-individual_entity_attribute-attrib_HH-attrib $-1 $-1 $-1 $422 F #
attrib_hh_edge_geombuild-attrib_entity_geombuild-individual_entity_attribute-attrib_HH-attrib $-1 $-1 $-1 $423 F #
straight-curve $-1 -12 -5 -15 0 1.5 0 I I #
attrib_hh_vertex_geombuild-attrib_entity_geombuild-individual_entity_attribute-attrib_HH-attrib $-1 $-1 $-1 $425 F #
point $-1 -12 14 -15 #
attrib_hh_edge_geombuild-attrib_entity_geombuild-individual_entity_attribute-attrib_HH-attrib $-1 $-1 $427 $196 F #
attrib_hh_coedge_geombuild-attrib_entity_geombuild-individual_entity_attribute-attrib_HH-attrib $-1 $-1 $-1 $437 F #
edge $607 $535 -6 $523 17.3333333333333 $521 $608 reversed 7 unknown #
attrib_hh_coedge_geombuild-attrib_entity_geombuild-individual_entity_attribute-attrib_HH-attrib $-1 $-1 $-1 $438 F #
attrib_hh_edge_geombuild-attrib_entity_geombuild-individual_entity_attribute-attrib_HH-attrib $-1 $-1 $-1 $439 F #
vertex $609 $532 $610 #
ellipse-curve $-1 29 14 -15 0 0 1 4.2426406871192803 4.2426406871192803 0 1 I I #
attrib_hh_coedge_geombuild-attrib_entity_geombuild-individual_entity_attribute-attrib_HH-attrib $-1 $-1 $-1 $447 F #
convexity-sys-attrib $-1 $611 $448 $340 #
attrib_hh_edge_geombuild-attrib_entity_geombuild-individual_entity_attribute-attrib_HH-attrib $-1 $-1 $-1 $451 F #
straight-curve $-1 29 20 22.5 0 0 1.5 I I #
attrib_hh_edge_geombuild-attrib_entity_geombuild-individual_entity_attribute-attrib_HH-attrib $-1 $-1 $452 $230 F #
attrib_hh_coedge_geombuild-attrib_entity_geombuild-individual_entity_attribute-attrib_HH-attrib $-1 $-1 $-1 $457 F #
coedge $612 $613 $614 $457 $544 reversed $573 $-1 #
edge $615 $550 -50 $556 50 $543 $616 forward 7 unknown #
attrib_hh_coedge_geombuild-attrib_entity_geombuild-individual_entity_attribute-attrib_HH-attrib $-1 $-1 $-1 $458 F #
coedge $617 $618 $458 $465 $562 forward $548 $-1 #
coedge $619 $458 $618 $613 $620 reversed $548 $-1 #
loop $-1 $-1 $546 $572 #
attrib_edge_convexity-kcp-attrib $-1 $621 $-1 $459 1 #
vertex $622 $459 $623 #
straight-curve $-1 0 50 50 -1 0 0 I I #
attrib_hh_coedge_geombuild-attrib_entity_geombuild-individual_entity_attribute-attrib_HH-attrib $-1 $-1 $-1 $461 F #
coedge $624 $625 $461 $614 $626 forward $477 $-1 #
coedge $627 $461 $625 $464 $560 reversed $477 $-1 #
attrib_edge_convexity-kcp-attrib $-1 $628 $-1 $462 1 #
vertex $629 $544 $630 #
straight-curve $-1 0 -50 50 1 0 0 I I #
attrib_hh_coedge_geombuild-attrib_entity_geombuild-individual_entity_attribute-attrib_HH-attrib $-1 $-1 $-1 $464 F #
coedge $631 $465 $464 $479 $578 reversed $466 $-1 #
edge $632 $468 -50 $633 50 $464 $634 forward 7 unknown #
attrib_hh_coedge_geombuild-attrib_entity_geombuild-individual_entity_attribute-attrib_HH-attrib $-1 $-1 $-1 $465 F #
edge $635 $469 -50 $636 50 $465 $637 forward 7 unknown #
face $638 $-1 $466 $8 $-1 $639 reversed single #
convexity-sys-attrib $-1 $640 $467 $354 #
attrib_hh_vertex_geombuild-attrib_entity_geombuild-individual_entity_attribute-attrib_HH-attrib $-1 $-1 $-1 $468 F #
point $-1 50 -50 50 #
attrib_hh_vertex_geombuild-attrib_entity_geombuild-individual_entity_attribute-attrib_HH-attrib $-1 $-1 $-1 $469 F #
point $-1 50 50 50 #
attrib_hh_edge_geombuild-attrib_entity_geombuild-individual_entity_attribute-attrib_HH-attrib $-1 $-1 $471 $236 F #
attrib_hh_face_geombuild-attrib_entity_geombuild-individual_entity_attribute-attrib_HH-attrib $-1 $-1 $475 $360 F #
model_id-kcp-attrib $-1 $641 $-1 $476 1 1017637758 80 -2108686335 14 #
face $642 $563 $548 $8 $-1 $643 reversed single #
loop $-1 $-1 $613 $476 #
plane-surface $-1 -50 0 0 1 0 0 0 0 -1 forward_v I I I I #
attrib_hh_coedge_geombuild-attrib_entity_geombuild-individual_entity_attribute-attrib_HH-attrib $-1 $-1 $-1 $479 F #
coedge $644 $645 $479 $625 $646 forward $361 $-1 #
coedge $647 $479 $645 $618 $648 forward $361 $-1 #
edge $649 $636 -50 $633 50 $559 $650 forward 7 unknown #
coedge $-1 $651 $486 $511 $599 reversed $381 $-1 #
coedge $-1 $486 $651 $487 $582 forward $381 $-1 #
coedge $-1 $488 $487 $652 $653 reversed $270 $-1 #
edge $-1 $654 0 $583 65 $580 $655 forward 7 unknown #
vertex $-1 $582 $656 #
straight-curve $-1 15.75 20 50 1 0 0 I I #
coedge $-1 $652 $495 $491 $586 forward $398 $-1 #
edge $657 $497 -0.78539816339744828 $587 0.78539816339744828 $491 $658 forward 7 unknown #
vertex $-1 $586 $659 #
straight-curve $-1 -5.9999999999999503 20 -15 0 0 1 I I #
point $-1 -5.9999999999999503 20 50 #
convexity-sys-attrib $-1 $-1 $-1 $496 #
straight-curve $-1 -12 -2.5 -15 0 1 0 I I #
point $-1 -12 14 -15 #
coedge $-1 $503 $652 $651 $660 forward $398 $-1 #
coedge $-1 $511 $504 $503 $595 reversed $484 $-1 #
edge $661 $662 -16.5 $507 11.5 $594 $663 forward 7 unknown #
straight-curve $-1 35 -14 -15 0 0 1 I I #
point $-1 35 -14 -15 #
ellipse-curve $-1 29 14 50 0 0 -1 4.2426406871192803 4.2426406871192803 0 1 I I #
edge $-1 $662 0 $512 65 $511 $664 forward 7 unknown #
point $-1 35 14 50 #
attrib_hh_coedge_geombuild-attrib_entity_geombuild-individual_entity_attribute-attrib_HH-attrib $-1 $-1 $-1 $518 F #
attrib_hh_edge_geombuild-attrib_entity_geombuild-individual_entity_attribute-attrib_HH-attrib $-1 $-1 $-1 $519 F #
ellipse-curve $-1 -5.9999999999999503 14 -15 0 0 1 -4.2426406871192803 4.2426406871192803 0 1 I I #
attrib_hh_coedge_geombuild-attrib_entity_geombuild-individual_entity_attribute-attrib_HH-attrib $-1 $-1 $-1 $521 F #
attrib_hh_vertex_geombuild-attrib_entity_geombuild-individual_entity_attribute-attrib_HH-attrib $-1 $-1 $-1 $523 F #
point $-1 -5.9999999999999503 20 -15 #
attrib_hh_edge_geombuild-attrib_entity_geombuild-individual_entity_attribute-attrib_HH-attrib $-1 $-1 $-1 $532 F #
straight-curve $-1 20 20 -15 1.5 0 0 I I #
attrib_hh_vertex_geombuild-attrib_entity_geombuild-individual_entity_attribute-attrib_HH-attrib $-1 $-1 $-1 $535 F #
point $-1 29 20 -15 #
attrib_hh_edge_geombuild-attrib_entity_geombuild-individual_entity_attribute-attrib_HH-attrib $-1 $-1 $538 $340 F #
attrib_hh_coedge_geombuild-attrib_entity_geombuild-individual_entity_attribute-attrib_HH-attrib $-1 $-1 $-1 $543 F #
coedge $665 $666 $543 $547 $620 forward $573 $-1 #
coedge $667 $543 $666 $553 $626 reversed $573 $-1 #
attrib_edge_convexity-kcp-attrib $-1 $668 $-1 $544 1 #
straight-curve $-1 -50 0 50 0 -1 0 I I #
attrib_hh_coedge_geombuild-attrib_entity_geombuild-individual_entity_attribute-attrib_HH-attrib $-1 $-1 $-1 $546 F #
coedge $669 $547 $546 $577 $648 reversed $548 $-1 #
attrib_hh_coedge_geombuild-attrib_entity_geombuild-individual_entity_attribute-attrib_HH-attrib $-1 $-1 $-1 $547 F #
edge $670 $550 -50 $671 50 $547 $672 forward 7 unknown #
convexity-sys-attrib $-1 $673 $549 $459 #
attrib_hh_vertex_geombuild-attrib_entity_geombuild-individual_entity_attribute-attrib_HH-attrib $-1 $-1 $-1 $550 F #
point $-1 -50 50 50 #
attrib_hh_coedge_geombuild-attrib_entity_geombuild-individual_entity_attribute-attrib_HH-attrib $-1 $-1 $-1 $553 F #
coedge $674 $554 $553 $576 $646 reversed $477 $-1 #
edge $675 $556 -50 $676 50 $614 $677 forward 7 unknown #
attrib_hh_coedge_geombuild-attrib_entity_geombuild-individual_entity_attribute-attrib_HH-attrib $-1 $-1 $-1 $554 F #
convexity-sys-attrib $-1 $678 $555 $462 #
attrib_hh_vertex_geombuild-attrib_entity_geombuild-individual_entity_attribute-attrib_HH-attrib $-1 $-1 $-1 $556 F #
point $-1 -50 -50 50 #
attrib_hh_coedge_geombuild-attrib_entity_geombuild-individual_entity_attribute-attrib_HH-attrib $-1 $-1 $-1 $559 F #
attrib_edge_convexity-kcp-attrib $-1 $679 $-1 $560 1 #
vertex $680 $560 $681 #
straight-curve $-1 50 -50 0 0 0 -1 I I #
attrib_hh_edge_geombuild-attrib_entity_geombuild-individual_entity_attribute-attrib_HH-attrib $-1 $-1 $-1 $562 F #
vertex $682 $578 $683 #
straight-curve $-1 50 50 0 0 0 -1 I I #
model_id-kcp-attrib $-1 $684 $-1 $563 1 1017637758 80 -2108686335 16 #
plane-surface $-1 50 0 0 -1 0 0 0 0 1 forward_v I I I I #
attrib_hh_edge_geombuild-attrib_entity_geombuild-individual_entity_attribute-attrib_HH-attrib $-1 $-1 $564 $354 F #
attrib_hh_face_geombuild-attrib_entity_geombuild-individual_entity_attribute-attrib_HH-attrib $-1 $-1 $571 $476 F #
model_id-kcp-attrib $-1 $685 $-1 $572 1 1017637758 80 -2108686335 15 #
plane-surface $-1 0 50 0 0 -1 0 0 0 -1 forward_v I I I I #
attrib_hh_coedge_geombuild-attrib_entity_geombuild-individual_entity_attribute-attrib_HH-attrib $-1 $-1 $-1 $576 F #
coedge $686 $577 $576 $666 $687 forward $361 $-1 #
edge $688 $633 -50 $676 50 $625 $689 forward 7 unknown #
attrib_hh_coedge_geombuild-attrib_entity_geombuild-individual_entity_attribute-attrib_HH-attrib $-1 $-1 $-1 $577 F #
edge $690 $671 -50 $636 50 $618 $691 forward 7 unknown #
attrib_hh_edge_geombuild-attrib_entity_geombuild-individual_entity_attribute-attrib_HH-attrib $-1 $-1 $-1 $578 F #
straight-curve $-1 50 0 -50 0 -1 0 I I #
coedge $-1 $580 $579 $593 $660 reversed $381 $-1 #
coedge $-1 $593 $585 $581 $653 forward $398 $-1 #
edge $692 $587 -21.74999999999995 $654 13.25 $581 $693 forward 7 unknown #
vertex $-1 $653 $694 #
straight-curve $-1 29 20 -15 0 0 1 I I #
point $-1 29 20 50 #
convexity-sys-attrib $-1 $-1 $-1 $586 #
ellipse-curve $-1 -5.9999999999999503 14 -15 0 0 -1 -4.2426406871192803 4.2426406871192803 0 1 I I #
point $-1 -5.9999999999999503 20 -15 #
edge $695 $654 -0.78539816339744828 $662 0.78539816339744828 $651 $696 forward 7 unknown #
convexity-sys-attrib $-1 $-1 $-1 $595 #
vertex $-1 $660 $697 #
straight-curve $-1 35 -2.5 -15 0 -1 0 I I #
straight-curve $-1 35 14 -15 0 0 1 I I #
attrib_hh_coedge_geombuild-attrib_entity_geombuild-individual_entity_attribute-attrib_HH-attrib $-1 $-1 $-1 $613 F #
coedge $698 $614 $613 $645 $687 reversed $573 $-1 #
attrib_hh_coedge_geombuild-attrib_entity_geombuild-individual_entity_attribute-attrib_HH-attrib $-1 $-1 $-1 $614 F #
convexity-sys-attrib $-1 $699 $615 $544 #
attrib_hh_coedge_geombuild-attrib_entity_geombuild-individual_entity_attribute-attrib_HH-attrib $-1 $-1 $-1 $618 F #
attrib_edge_convexity-kcp-attrib $-1 $700 $-1 $620 1 #
vertex $701 $648 $702 #
straight-curve $-1 -50 50 0 0 0 -1 I I #
attrib_hh_edge_geombuild-attrib_entity_geombuild-individual_entity_attribute-attrib_HH-attrib $-1 $-1 $621 $459 F #
attrib_hh_coedge_geombuild-attrib_entity_geombuild-individual_entity_attribute-attrib_HH-attrib $-1 $-1 $-1 $625 F #
attrib_edge_convexity-kcp-attrib $-1 $703 $-1 $626 1 #
vertex $704 $687 $705 #
straight-curve $-1 -50 -50 0 0 0 -1 I I #
attrib_hh_edge_geombuild-attrib_entity_geombuild-individual_entity_attribute-attrib_HH-attrib $-1 $-1 $628 $462 F #
convexity-sys-attrib $-1 $706 $632 $560 #
attrib_hh_vertex_geombuild-attrib_entity_geombuild-individual_entity_attribute-attrib_HH-attrib $-1 $-1 $-1 $633 F #
point $-1 50 -50 -50 #
attrib_hh_vertex_geombuild-attrib_entity_geombuild-individual_entity_attribute-attrib_HH-attrib $-1 $-1 $-1 $636 F #
point $-1 50 50 -50 #
attrib_hh_face_geombuild-attrib_entity_geombuild-individual_entity_attribute-attrib_HH-attrib $-1 $-1 $638 $563 F #
attrib_hh_face_geombuild-attrib_entity_geombuild-individual_entity_attribute-attrib_HH-attrib $-1 $-1 $642 $572 F #
attrib_hh_coedge_geombuild-attrib_entity_geombuild-individual_entity_attribute-attrib_HH-attrib $-1 $-1 $-1 $645 F #
edge $707 $676 -50 $671 50 $666 $708 forward 7 unknown #
attrib_edge_convexity-kcp-attrib $-1 $709 $-1 $646 1 #
straight-curve $-1 0 -50 -50 -1 0 0 I I #
attrib_hh_edge_geombuild-attrib_entity_geombuild-individual_entity_attribute-attrib_HH-attrib $-1 $-1 $-1 $648 F #
straight-curve $-1 0 50 -50 1 0 0 I I #
convexity-sys-attrib $-1 $-1 $-1 $653 #
straight-curve $-1 15.75 20 -15 1 0 0 I I #
point $-1 29 20 -15 #
convexity-sys-attrib $-1 $-1 $-1 $660 #
ellipse-curve $-1 29 14 -15 0 0 -1 4.2426406871192803 4.2426406871192803 0 1 I I #
point $-1 35 14 -15 #
attrib_hh_coedge_geombuild-attrib_entity_geombuild-individual_entity_attribute-attrib_HH-attrib $-1 $-1 $-1 $666 F #
attrib_hh_edge_geombuild-attrib_entity_geombuild-individual_entity_attribute-attrib_HH-attrib $-1 $-1 $668 $544 F #
convexity-sys-attrib $-1 $710 $670 $620 #
attrib_hh_vertex_geombuild-attrib_entity_geombuild-individual_entity_attribute-attrib_HH-attrib $-1 $-1 $-1 $671 F #
point $-1 -50 50 -50 #
convexity-sys-attrib $-1 $711 $675 $626 #
attrib_hh_vertex_geombuild-attrib_entity_geombuild-individual_entity_attribute-attrib_HH-attrib $-1 $-1 $-1 $676 F #
point $-1 -50 -50 -50 #
attrib_hh_edge_geombuild-attrib_entity_geombuild-individual_entity_attribute-attrib_HH-attrib $-1 $-1 $679 $560 F #
attrib_edge_convexity-kcp-attrib $-1 $712 $-1 $687 1 #
straight-curve $-1 -50 0 -50 0 1 0 I I #
convexity-sys-attrib $-1 $713 $688 $646 #
attrib_hh_edge_geombuild-attrib_entity_geombuild-individual_entity_attribute-attrib_HH-attrib $-1 $-1 $700 $620 F #
attrib_hh_edge_geombuild-attrib_entity_geombuild-individual_entity_attribute-attrib_HH-attrib $-1 $-1 $703 $626 F #
convexity-sys-attrib $-1 $714 $707 $687 #
attrib_hh_edge_geombuild-attrib_entity_geombuild-individual_entity_attribute-attrib_HH-attrib $-1 $-1 $709 $646 F #
attrib_hh_edge_geombuild-attrib_entity_geombuild-individual_entity_attribute-attrib_HH-attrib $-1 $-1 $712 $687 F #
End-of-ACIS-data 