  0
SECTION
  2
HEADER
  9
$ACADVER
  1
AC1009
  9
$INSBASE
 10
0.0
 20
0.0
 30
0.0
  9
$EXTMIN
 10
0.0
 20
0.0
 30
0.0
  9
$EXTMAX
 10
10.0
 20
5.0
 30
10.0
  9
$LIMMIN
 10
0.0
 20
0.0
  9
$LIMMAX
 10
12.0
 20
9.0
  9
$ORTHOMODE
 70
     0
  9
$REGENMODE
 70
     1
  9
$FILLMODE
 70
     1
  9
$QTEXTMODE
 70
     0
  9
$MIRRTEXT
 70
     1
  9
$DRAGMODE
 70
     2
  9
$LTSCALE
 40
1.0
  9
$OSMODE
 70
     0
  9
$ATTMODE
 70
     1
  9
$TEXTSIZE
 40
0.2
  9
$TRACEWID
 40
0.05
  9
$TEXTSTYLE
  7
STANDARD
  9
$CLAYER
  8
0
  9
$CELTYPE
  6
BYLAYER
  9
$CECOLOR
 62
   256
  9
$DIMSCALE
 40
1.0
  9
$DIMASZ
 40
0.18
  9
$DIMEXO
 40
0.0625
  9
$DIMDLI
 40
0.38
  9
$DIMRND
 40
0.0
  9
$DIMDLE
 40
0.0
  9
$DIMEXE
 40
0.18
  9
$DIMTP
 40
0.0
  9
$DIMTM
 40
0.0
  9
$DIMTXT
 40
0.18
  9
$DIMCEN
 40
0.09
  9
$DIMTSZ
 40
0.0
  9
$DIMTOL
 70
     0
  9
$DIMLIM
 70
     0
  9
$DIMTIH
 70
     1
  9
$DIMTOH
 70
     1
  9
$DIMSE1
 70
     0
  9
$DIMSE2
 70
     0
  9
$DIMTAD
 70
     0
  9
$DIMZIN
 70
     0
  9
$DIMBLK
  1

  9
$DIMASO
 70
     1
  9
$DIMSHO
 70
     1
  9
$DIMPOST
  1

  9
$DIMAPOST
  1

  9
$DIMALT
 70
     0
  9
$DIMALTD
 70
     2
  9
$DIMALTF
 40
25.4
  9
$DIMLFAC
 40
1.0
  9
$DIMTOFL
 70
     0
  9
$DIMTVP
 40
0.0
  9
$DIMTIX
 70
     0
  9
$DIMSOXD
 70
     0
  9
$DIMSAH
 70
     0
  9
$DIMBLK1
  1

  9
$DIMBLK2
  1

  9
$DIMSTYLE
  2
*UNNAMED
  9
$DIMCLRD
 70
     0
  9
$DIMCLRE
 70
     0
  9
$DIMCLRT
 70
     0
  9
$DIMTFAC
 40
1.0
  9
$DIMGAP
 40
0.09
  9
$LUNITS
 70
     2
  9
$LUPREC
 70
     4
  9
$SKETCHINC
 40
0.1
  9
$FILLETRAD
 40
0.0
  9
$AUNITS
 70
     0
  9
$AUPREC
 70
     0
  9
$MENU
  1
acad
  9
$ELEVATION
 40
0.0
  9
$PELEVATION
 40
0.0
  9
$THICKNESS
 40
0.0
  9
$LIMCHECK
 70
     0
  9
$BLIPMODE
 70
     1
  9
$CHAMFERA
 40
0.0
  9
$CHAMFERB
 40
0.0
  9
$SKPOLY
 70
     0
  9
$TDCREATE
 40
2448818.833123125
  9
$TDUPDATE
 40
2448818.846174791
  9
$TDINDWG
 40
0.0130516667
  9
$TDUSRTIMER
 40
0.0130516667
  9
$USRTIMER
 70
     1
  9
$ANGBASE
 50
0.0
  9
$ANGDIR
 70
     0
  9
$PDMODE
 70
     0
  9
$PDSIZE
 40
0.0
  9
$PLINEWID
 40
0.0
  9
$COORDS
 70
     0
  9
$SPLFRAME
 70
     0
  9
$SPLINETYPE
 70
     6
  9
$SPLINESEGS
 70
     8
  9
$ATTDIA
 70
     0
  9
$ATTREQ
 70
     1
  9
$HANDLING
 70
     1
  9
$HANDSEED
  5
184
  9
$SURFTAB1
 70
     6
  9
$SURFTAB2
 70
     6
  9
$SURFTYPE
 70
     6
  9
$SURFU
 70
     6
  9
$SURFV
 70
     6
  9
$UCSNAME
  2

  9
$UCSORG
 10
0.0
 20
0.0
 30
0.0
  9
$UCSXDIR
 10
1.0
 20
0.0
 30
0.0
  9
$UCSYDIR
 10
0.0
 20
1.0
 30
0.0
  9
$PUCSNAME
  2

  9
$PUCSORG
 10
0.0
 20
0.0
 30
0.0
  9
$PUCSXDIR
 10
1.0
 20
0.0
 30
0.0
  9
$PUCSYDIR
 10
0.0
 20
1.0
 30
0.0
  9
$USERI1
 70
     0
  9
$USERI2
 70
     0
  9
$USERI3
 70
     0
  9
$USERI4
 70
     0
  9
$USERI5
 70
     0
  9
$USERR1
 40
0.0
  9
$USERR2
 40
0.0
  9
$USERR3
 40
0.0
  9
$USERR4
 40
0.0
  9
$USERR5
 40
0.0
  9
$WORLDVIEW
 70
     1
  9
$SHADEDGE
 70
     3
  9
$SHADEDIF
 70
    70
  9
$TILEMODE
 70
     1
  9
$MAXACTVP
 70
    16
  9
$PINSBASE
 10
0.0
 20
0.0
 30
0.0
  9
$PLIMCHECK
 70
     0
  9
$PEXTMIN
 10
1.000000E+20
 20
1.000000E+20
 30
1.000000E+20
  9
$PEXTMAX
 10
-1.000000E+20
 20
-1.000000E+20
 30
-1.000000E+20
  9
$PLIMMIN
 10
0.0
 20
0.0
  9
$PLIMMAX
 10
12.0
 20
9.0
  9
$UNITMODE
 70
     0
  9
$VISRETAIN
 70
     0
  9
$PLINEGEN
 70
     0
  9
$PSLTSCALE
 70
     0
  9
$TREEDEPTH
 70
  3020
  9
$DWGCODEPAGE
  3
undefined
  0
ENDSEC
  0
SECTION
  2
TABLES
  0
TABLE
  2
VPORT
 70
     2
  0
VPORT
  2
*ACTIVE
 70
     0
 10
0.0
 20
0.0
 11
1.0
 21
1.0
 12
0.787791
 22
5.103104
 13
0.0
 23
0.0
 14
1.0
 24
1.0
 15
0.0
 25
0.0
 16
-1.0
 26
1.0
 36
1.0
 17
0.0
 27
0.0
 37
0.0
 40
14.28869
 41
1.594883
 42
50.0
 43
0.0
 44
0.0
 50
0.0
 51
0.0
 71
     0
 72
   100
 73
     1
 74
     1
 75
     0
 76
     0
 77
     0
 78
     0
  0
ENDTAB
  0
TABLE
  2
LTYPE
 70
     1
  0
LTYPE
  2
CONTINUOUS
 70
    64
  3
Solid line
 72
    65
 73
     0
 40
0.0
  0
ENDTAB
  0
TABLE
  2
LAYER
 70
     2
  0
LAYER
  2
0
 70
    64
 62
     7
  6
CONTINUOUS
  0
LAYER
  2
AME_FRZ
 70
    65
 62
     7
  6
CONTINUOUS
  0
ENDTAB
  0
TABLE
  2
STYLE
 70
     1
  0
STYLE
  2
STANDARD
 70
     0
 40
0.0
 41
1.0
 50
0.0
 71
     0
 42
0.2
  3
txt
  4

  0
ENDTAB
  0
TABLE
  2
VIEW
 70
     0
  0
ENDTAB
  0
TABLE
  2
UCS
 70
     0
  0
ENDTAB
  0
TABLE
  2
APPID
 70
     2
  0
APPID
  2
ACAD
 70
    64
  0
APPID
  2
AME_SOL
 70
    64
  0
ENDTAB
  0
TABLE
  2
DIMSTYLE
 70
     0
  0
ENDTAB
  0
ENDSEC
  0
SECTION
  2
BLOCKS
  0
BLOCK
  8
0
  5
1
  2
AME_NIL
 70
    64
 10
0.0
 20
0.0
 30
0.0
  1
AME_NIL
  3
AME_NIL
  0
ENDBLK
  8
0
  5
2
  0
BLOCK
  8
0
  5
4
  2
AME_SOL
 70
    64
 10
0.0
 20
0.0
 30
0.0
  1
AME_SOL
  3
AME_SOL
  0
ENDBLK
  8
0
  5
5
  0
BLOCK
  8
0
  5
7
  2
*U2
 70
    65
 10
0.0
 20
0.0
 30
0.0
  1
*U
  3
*U
  0
LINE
  8
0
 62
     0
  5
8
 10
2.0
 20
5.0
 30
0.0
 11
2.0
 21
5.0
 31
10.0
1001
AME_SOL
1070
     1
1071
       18
  0
LINE
  8
0
 62
     0
  5
9
 10
2.0
 20
5.0
 30
10.0
 11
2.0
 21
0.0
 31
10.0
1001
AME_SOL
1070
     1
1071
       17
  0
LINE
  8
0
 62
     0
  5
A
 10
0.0
 20
5.0
 30
10.0
 11
2.0
 21
5.0
 31
10.0
1001
AME_SOL
1070
     1
1071
       16
  0
LINE
  8
0
 62
     0
  5
B
 10
0.0
 20
5.0
 30
0.0
 11
0.0
 21
5.0
 31
10.0
1001
AME_SOL
1070
     1
1071
       15
  0
LINE
  8
0
 62
     0
  5
C
 10
0.0
 20
5.0
 30
10.0
 11
0.0
 21
0.0
 31
10.0
1001
AME_SOL
1070
     1
1071
       14
  0
LINE
  8
0
 62
     0
  5
D
 10
0.0
 20
0.0
 30
0.0
 11
0.0
 21
0.0
 31
10.0
1001
AME_SOL
1070
     1
1071
       13
  0
LINE
  8
0
 62
     0
  5
E
 10
2.0
 20
0.0
 30
10.0
 11
2.0
 21
0.0
 31
0.0
1001
AME_SOL
1070
     1
1071
       12
  0
LINE
  8
0
 62
     0
  5
F
 10
0.0
 20
0.0
 30
10.0
 11
2.0
 21
0.0
 31
10.0
1001
AME_SOL
1070
     1
1071
       11
  0
LINE
  8
0
 62
     0
  5
10
 10
0.0
 20
0.0
 30
0.0
 11
2.0
 21
0.0
 31
0.0
1001
AME_SOL
1070
     1
1071
       10
  0
LINE
  8
0
 62
     0
  5
11
 10
0.0
 20
5.0
 30
0.0
 11
0.0
 21
0.0
 31
0.0
1001
AME_SOL
1070
     1
1071
        9
  0
LINE
  8
0
 62
     0
  5
12
 10
2.0
 20
0.0
 30
0.0
 11
2.0
 21
5.0
 31
0.0
1001
AME_SOL
1070
     1
1071
        8
  0
LINE
  8
0
 62
     0
  5
13
 10
2.0
 20
5.0
 30
0.0
 11
0.0
 21
5.0
 31
0.0
1001
AME_SOL
1070
     1
1071
        7
  0
ENDBLK
  8
0
  5
14
  0
BLOCK
  8
0
  5
18
  2
*U3
 70
    65
 10
0.0
 20
0.0
 30
0.0
  1
*U
  3
*U
  0
LINE
  8
0
 62
     0
  5
19
 10
1.0
 20
5.0
 30
0.0
 11
1.0
 21
5.0
 31
5.0
1001
AME_SOL
1070
     1
1071
       18
  0
LINE
  8
0
 62
     0
  5
1A
 10
1.0
 20
5.0
 30
5.0
 11
1.0
 21
0.0
 31
5.0
1001
AME_SOL
1070
     1
1071
       17
  0
LINE
  8
0
 62
     0
  5
1B
 10
0.0
 20
5.0
 30
5.0
 11
1.0
 21
5.0
 31
5.0
1001
AME_SOL
1070
     1
1071
       16
  0
LINE
  8
0
 62
     0
  5
1C
 10
0.0
 20
5.0
 30
0.0
 11
0.0
 21
5.0
 31
5.0
1001
AME_SOL
1070
     1
1071
       15
  0
LINE
  8
0
 62
     0
  5
1D
 10
0.0
 20
5.0
 30
5.0
 11
0.0
 21
0.0
 31
5.0
1001
AME_SOL
1070
     1
1071
       14
  0
LINE
  8
0
 62
     0
  5
1E
 10
0.0
 20
0.0
 30
0.0
 11
0.0
 21
0.0
 31
5.0
1001
AME_SOL
1070
     1
1071
       13
  0
LINE
  8
0
 62
     0
  5
1F
 10
1.0
 20
0.0
 30
5.0
 11
1.0
 21
0.0
 31
0.0
1001
AME_SOL
1070
     1
1071
       12
  0
LINE
  8
0
 62
     0
  5
20
 10
0.0
 20
0.0
 30
5.0
 11
1.0
 21
0.0
 31
5.0
1001
AME_SOL
1070
     1
1071
       11
  0
LINE
  8
0
 62
     0
  5
21
 10
0.0
 20
0.0
 30
0.0
 11
1.0
 21
0.0
 31
0.0
1001
AME_SOL
1070
     1
1071
       10
  0
LINE
  8
0
 62
     0
  5
22
 10
0.0
 20
5.0
 30
0.0
 11
0.0
 21
0.0
 31
0.0
1001
AME_SOL
1070
     1
1071
        9
  0
LINE
  8
0
 62
     0
  5
23
 10
1.0
 20
0.0
 30
0.0
 11
1.0
 21
5.0
 31
0.0
1001
AME_SOL
1070
     1
1071
        8
  0
LINE
  8
0
 62
     0
  5
24
 10
1.0
 20
5.0
 30
0.0
 11
0.0
 21
5.0
 31
0.0
1001
AME_SOL
1070
     1
1071
        7
  0
ENDBLK
  8
0
  5
25
  0
BLOCK
  8
0
  5
2A
  2
*U4
 70
    65
 10
0.0
 20
0.0
 30
0.0
  1
*U
  3
*U
  0
LINE
  8
0
 62
     7
  5
2B
 10
2.0
 20
5.0
 30
0.0
 11
2.0
 21
5.0
 31
5.0
1001
AME_SOL
1070
     1
1071
       26
  0
LINE
  8
0
 62
     7
  5
2C
 10
0.0
 20
5.0
 30
10.0
 11
1.0
 21
5.0
 31
10.0
1001
AME_SOL
1070
     1
1071
       25
  0
LINE
  8
0
 62
     7
  5
2D
 10
0.0
 20
5.0
 30
0.0
 11
0.0
 21
5.0
 31
10.0
1001
AME_SOL
1070
     1
1071
       24
  0
LINE
  8
0
 62
     7
  5
2E
 10
0.0
 20
5.0
 30
10.0
 11
0.0
 21
0.0
 31
10.0
1001
AME_SOL
1070
     1
1071
       23
  0
LINE
  8
0
 62
     7
  5
2F
 10
0.0
 20
0.0
 30
0.0
 11
0.0
 21
0.0
 31
10.0
1001
AME_SOL
1070
     1
1071
       22
  0
LINE
  8
0
 62
     7
  5
30
 10
2.0
 20
0.0
 30
5.0
 11
2.0
 21
0.0
 31
0.0
1001
AME_SOL
1070
     1
1071
       21
  0
LINE
  8
0
 62
     7
  5
31
 10
0.0
 20
0.0
 30
10.0
 11
1.0
 21
0.0
 31
10.0
1001
AME_SOL
1070
     1
1071
       20
  0
LINE
  8
0
 62
     7
  5
32
 10
0.0
 20
0.0
 30
0.0
 11
2.0
 21
0.0
 31
0.0
1001
AME_SOL
1070
     1
1071
       19
  0
LINE
  8
0
 62
     7
  5
33
 10
0.0
 20
5.0
 30
0.0
 11
0.0
 21
0.0
 31
0.0
1001
AME_SOL
1070
     1
1071
       18
  0
LINE
  8
0
 62
     7
  5
34
 10
2.0
 20
0.0
 30
0.0
 11
2.0
 21
5.0
 31
0.0
1001
AME_SOL
1070
     1
1071
       17
  0
LINE
  8
0
 62
     7
  5
35
 10
2.0
 20
5.0
 30
0.0
 11
0.0
 21
5.0
 31
0.0
1001
AME_SOL
1070
     1
1071
       16
  0
LINE
  8
0
 62
     7
  5
36
 10
1.0
 20
0.0
 30
10.0
 11
1.0
 21
0.0
 31
5.0
1001
AME_SOL
1070
     1
1071
       15
  0
LINE
  8
0
 62
     7
  5
37
 10
1.0
 20
5.0
 30
5.0
 11
1.0
 21
5.0
 31
10.0
1001
AME_SOL
1070
     1
1071
       14
  0
LINE
  8
0
 62
     7
  5
38
 10
1.0
 20
5.0
 30
10.0
 11
1.0
 21
0.0
 31
10.0
1001
AME_SOL
1070
     1
1071
       13
  0
LINE
  8
0
 62
     7
  5
39
 10
1.0
 20
0.0
 30
5.0
 11
2.0
 21
0.0
 31
5.0
1001
AME_SOL
1070
     1
1071
       12
  0
LINE
  8
0
 62
     7
  5
3A
 10
2.0
 20
0.0
 30
5.0
 11
2.0
 21
5.0
 31
5.0
1001
AME_SOL
1070
     1
1071
       11
  0
LINE
  8
0
 62
     7
  5
3B
 10
2.0
 20
5.0
 30
5.0
 11
1.0
 21
5.0
 31
5.0
1001
AME_SOL
1070
     1
1071
       10
  0
LINE
  8
0
 62
     7
  5
3C
 10
1.0
 20
5.0
 30
5.0
 11
1.0
 21
0.0
 31
5.0
1001
AME_SOL
1070
     1
1071
        9
  0
ENDBLK
  8
0
  5
3D
  0
BLOCK
  8
0
  5
41
  2
*U5
 70
    65
 10
0.0
 20
0.0
 30
0.0
  1
*U
  3
*U
  0
LINE
  8
0
 62
     0
  5
42
 10
2.0
 20
5.0
 30
0.0
 11
2.0
 21
5.0
 31
10.0
1001
AME_SOL
1070
     1
1071
       18
  0
LINE
  8
0
 62
     0
  5
43
 10
2.0
 20
5.0
 30
10.0
 11
2.0
 21
0.0
 31
10.0
1001
AME_SOL
1070
     1
1071
       17
  0
LINE
  8
0
 62
     0
  5
44
 10
0.0
 20
5.0
 30
10.0
 11
2.0
 21
5.0
 31
10.0
1001
AME_SOL
1070
     1
1071
       16
  0
LINE
  8
0
 62
     0
  5
45
 10
0.0
 20
5.0
 30
0.0
 11
0.0
 21
5.0
 31
10.0
1001
AME_SOL
1070
     1
1071
       15
  0
LINE
  8
0
 62
     0
  5
46
 10
0.0
 20
5.0
 30
10.0
 11
0.0
 21
0.0
 31
10.0
1001
AME_SOL
1070
     1
1071
       14
  0
LINE
  8
0
 62
     0
  5
47
 10
0.0
 20
0.0
 30
0.0
 11
0.0
 21
0.0
 31
10.0
1001
AME_SOL
1070
     1
1071
       13
  0
LINE
  8
0
 62
     0
  5
48
 10
2.0
 20
0.0
 30
10.0
 11
2.0
 21
0.0
 31
0.0
1001
AME_SOL
1070
     1
1071
       12
  0
LINE
  8
0
 62
     0
  5
49
 10
0.0
 20
0.0
 30
10.0
 11
2.0
 21
0.0
 31
10.0
1001
AME_SOL
1070
     1
1071
       11
  0
LINE
  8
0
 62
     0
  5
4A
 10
0.0
 20
0.0
 30
0.0
 11
2.0
 21
0.0
 31
0.0
1001
AME_SOL
1070
     1
1071
       10
  0
LINE
  8
0
 62
     0
  5
4B
 10
0.0
 20
5.0
 30
0.0
 11
0.0
 21
0.0
 31
0.0
1001
AME_SOL
1070
     1
1071
        9
  0
LINE
  8
0
 62
     0
  5
4C
 10
2.0
 20
0.0
 30
0.0
 11
2.0
 21
5.0
 31
0.0
1001
AME_SOL
1070
     1
1071
        8
  0
LINE
  8
0
 62
     0
  5
4D
 10
2.0
 20
5.0
 30
0.0
 11
0.0
 21
5.0
 31
0.0
1001
AME_SOL
1070
     1
1071
        7
  0
ENDBLK
  8
0
  5
4E
  0
BLOCK
  8
0
  5
52
  2
*U6
 70
    65
 10
0.0
 20
0.0
 30
0.0
  1
*U
  3
*U
  0
LINE
  8
0
 62
     0
  5
53
 10
1.0
 20
5.0
 30
0.0
 11
1.0
 21
5.0
 31
9.0
1001
AME_SOL
1070
     1
1071
       18
  0
LINE
  8
0
 62
     0
  5
54
 10
1.0
 20
5.0
 30
9.0
 11
1.0
 21
0.0
 31
9.0
1001
AME_SOL
1070
     1
1071
       17
  0
LINE
  8
0
 62
     0
  5
55
 10
0.0
 20
5.0
 30
9.0
 11
1.0
 21
5.0
 31
9.0
1001
AME_SOL
1070
     1
1071
       16
  0
LINE
  8
0
 62
     0
  5
56
 10
0.0
 20
5.0
 30
0.0
 11
0.0
 21
5.0
 31
9.0
1001
AME_SOL
1070
     1
1071
       15
  0
LINE
  8
0
 62
     0
  5
57
 10
0.0
 20
5.0
 30
9.0
 11
0.0
 21
0.0
 31
9.0
1001
AME_SOL
1070
     1
1071
       14
  0
LINE
  8
0
 62
     0
  5
58
 10
0.0
 20
0.0
 30
0.0
 11
0.0
 21
0.0
 31
9.0
1001
AME_SOL
1070
     1
1071
       13
  0
LINE
  8
0
 62
     0
  5
59
 10
1.0
 20
0.0
 30
9.0
 11
1.0
 21
0.0
 31
0.0
1001
AME_SOL
1070
     1
1071
       12
  0
LINE
  8
0
 62
     0
  5
5A
 10
0.0
 20
0.0
 30
9.0
 11
1.0
 21
0.0
 31
9.0
1001
AME_SOL
1070
     1
1071
       11
  0
LINE
  8
0
 62
     0
  5
5B
 10
0.0
 20
0.0
 30
0.0
 11
1.0
 21
0.0
 31
0.0
1001
AME_SOL
1070
     1
1071
       10
  0
LINE
  8
0
 62
     0
  5
5C
 10
0.0
 20
5.0
 30
0.0
 11
0.0
 21
0.0
 31
0.0
1001
AME_SOL
1070
     1
1071
        9
  0
LINE
  8
0
 62
     0
  5
5D
 10
1.0
 20
0.0
 30
0.0
 11
1.0
 21
5.0
 31
0.0
1001
AME_SOL
1070
     1
1071
        8
  0
LINE
  8
0
 62
     0
  5
5E
 10
1.0
 20
5.0
 30
0.0
 11
0.0
 21
5.0
 31
0.0
1001
AME_SOL
1070
     1
1071
        7
  0
ENDBLK
  8
0
  5
5F
  0
BLOCK
  8
0
  5
64
  2
*U7
 70
    65
 10
0.0
 20
0.0
 30
0.0
  1
*U
  3
*U
  0
LINE
  8
0
 62
     7
  5
65
 10
10.0
 20
5.0
 30
0.0
 11
10.0
 21
5.0
 31
10.0
1001
AME_SOL
1070
     1
1071
       26
  0
LINE
  8
0
 62
     7
  5
66
 10
10.0
 20
5.0
 30
10.0
 11
10.0
 21
0.0
 31
10.0
1001
AME_SOL
1070
     1
1071
       25
  0
LINE
  8
0
 62
     7
  5
67
 10
8.0
 20
5.0
 30
10.0
 11
10.0
 21
5.0
 31
10.0
1001
AME_SOL
1070
     1
1071
       24
  0
LINE
  8
0
 62
     7
  5
68
 10
8.0
 20
5.0
 30
9.0
 11
8.0
 21
5.0
 31
10.0
1001
AME_SOL
1070
     1
1071
       23
  0
LINE
  8
0
 62
     7
  5
69
 10
8.0
 20
5.0
 30
10.0
 11
8.0
 21
0.0
 31
10.0
1001
AME_SOL
1070
     1
1071
       22
  0
LINE
  8
0
 62
     7
  5
6A
 10
8.0
 20
0.0
 30
9.0
 11
8.0
 21
0.0
 31
10.0
1001
AME_SOL
1070
     1
1071
       21
  0
LINE
  8
0
 62
     7
  5
6B
 10
10.0
 20
0.0
 30
10.0
 11
10.0
 21
0.0
 31
0.0
1001
AME_SOL
1070
     1
1071
       20
  0
LINE
  8
0
 62
     7
  5
6C
 10
8.0
 20
0.0
 30
10.0
 11
10.0
 21
0.0
 31
10.0
1001
AME_SOL
1070
     1
1071
       19
  0
LINE
  8
0
 62
     7
  5
6D
 10
9.0
 20
0.0
 30
0.0
 11
10.0
 21
0.0
 31
0.0
1001
AME_SOL
1070
     1
1071
       18
  0
LINE
  8
0
 62
     7
  5
6E
 10
10.0
 20
0.0
 30
0.0
 11
10.0
 21
5.0
 31
0.0
1001
AME_SOL
1070
     1
1071
       17
  0
LINE
  8
0
 62
     7
  5
6F
 10
10.0
 20
5.0
 30
0.0
 11
9.000001
 21
5.0
 31
0.0
1001
AME_SOL
1070
     1
1071
       16
  0
LINE
  8
0
 62
     7
  5
70
 10
9.0
 20
5.0
 30
0.0
 11
9.0
 21
0.0
 31
0.0
1001
AME_SOL
1070
     1
1071
       15
  0
LINE
  8
0
 62
     7
  5
71
 10
9.0
 20
0.0
 30
0.0
 11
9.0
 21
0.0
 31
9.0
1001
AME_SOL
1070
     1
1071
       14
  0
LINE
  8
0
 62
     7
  5
72
 10
9.0
 20
5.0
 30
9.0
 11
9.0
 21
5.0
 31
0.0
1001
AME_SOL
1070
     1
1071
       13
  0
LINE
  8
0
 62
     7
  5
73
 10
9.0
 20
0.0
 30
9.0
 11
8.0
 21
0.0
 31
9.0
1001
AME_SOL
1070
     1
1071
       12
  0
LINE
  8
0
 62
     7
  5
74
 10
8.0
 20
0.0
 30
9.0
 11
8.0
 21
5.0
 31
9.0
1001
AME_SOL
1070
     1
1071
       11
  0
LINE
  8
0
 62
     7
  5
75
 10
8.0
 20
5.0
 30
9.0
 11
9.0
 21
5.0
 31
9.0
1001
AME_SOL
1070
     1
1071
       10
  0
LINE
  8
0
 62
     7
  5
76
 10
9.0
 20
5.0
 30
9.0
 11
9.0
 21
0.0
 31
9.0
1001
AME_SOL
1070
     1
1071
        9
  0
ENDBLK
  8
0
  5
77
  0
BLOCK
  8
0
  5
7B
  2
*U8
 70
    65
 10
0.0
 20
0.0
 30
0.0
  1
*U
  3
*U
  0
LINE
  8
0
 62
     0
  5
7C
 10
7.0
 20
1.0
 30
0.0
 11
7.0
 21
1.0
 31
3.0
1001
AME_SOL
1070
     1
1071
       18
  0
LINE
  8
0
 62
     0
  5
7D
 10
7.0
 20
1.0
 30
3.0
 11
7.0
 21
0.0
 31
3.0
1001
AME_SOL
1070
     1
1071
       17
  0
LINE
  8
0
 62
     0
  5
7E
 10
0.0
 20
1.0
 30
3.0
 11
7.0
 21
1.0
 31
3.0
1001
AME_SOL
1070
     1
1071
       16
  0
LINE
  8
0
 62
     0
  5
7F
 10
0.0
 20
1.0
 30
0.0
 11
0.0
 21
1.0
 31
3.0
1001
AME_SOL
1070
     1
1071
       15
  0
LINE
  8
0
 62
     0
  5
80
 10
0.0
 20
1.0
 30
3.0
 11
0.0
 21
0.0
 31
3.0
1001
AME_SOL
1070
     1
1071
       14
  0
LINE
  8
0
 62
     0
  5
81
 10
0.0
 20
0.0
 30
0.0
 11
0.0
 21
0.0
 31
3.0
1001
AME_SOL
1070
     1
1071
       13
  0
LINE
  8
0
 62
     0
  5
82
 10
7.0
 20
0.0
 30
3.0
 11
7.0
 21
0.0
 31
0.0
1001
AME_SOL
1070
     1
1071
       12
  0
LINE
  8
0
 62
     0
  5
83
 10
0.0
 20
0.0
 30
3.0
 11
7.0
 21
0.0
 31
3.0
1001
AME_SOL
1070
     1
1071
       11
  0
LINE
  8
0
 62
     0
  5
84
 10
0.0
 20
0.0
 30
0.0
 11
7.0
 21
0.0
 31
0.0
1001
AME_SOL
1070
     1
1071
       10
  0
LINE
  8
0
 62
     0
  5
85
 10
0.0
 20
1.0
 30
0.0
 11
0.0
 21
0.0
 31
0.0
1001
AME_SOL
1070
     1
1071
        9
  0
LINE
  8
0
 62
     0
  5
86
 10
7.0
 20
0.0
 30
0.0
 11
7.0
 21
1.0
 31
0.0
1001
AME_SOL
1070
     1
1071
        8
  0
LINE
  8
0
 62
     0
  5
87
 10
7.0
 20
1.0
 30
0.0
 11
0.0
 21
1.0
 31
0.0
1001
AME_SOL
1070
     1
1071
        7
  0
ENDBLK
  8
0
  5
88
  0
BLOCK
  8
0
  5
8E
  2
*U9
 70
    65
 10
0.0
 20
0.0
 30
0.0
  1
*U
  3
*U
  0
LINE
  8
0
 62
     7
  5
8F
 10
10.0
 20
5.0
 30
0.0
 11
10.0
 21
5.0
 31
10.0
1001
AME_SOL
1070
     1
1071
       63
  0
LINE
  8
0
 62
     7
  5
90
 10
10.0
 20
5.0
 30
10.0
 11
10.0
 21
0.0
 31
10.0
1001
AME_SOL
1070
     1
1071
       62
  0
LINE
  8
0
 62
     7
  5
91
 10
8.0
 20
5.0
 30
10.0
 11
10.0
 21
5.0
 31
10.0
1001
AME_SOL
1070
     1
1071
       61
  0
LINE
  8
0
 62
     7
  5
92
 10
0.0
 20
5.0
 30
10.0
 11
1.0
 21
5.0
 31
10.0
1001
AME_SOL
1070
     1
1071
       60
  0
LINE
  8
0
 62
     7
  5
93
 10
8.0
 20
5.0
 30
9.0
 11
8.0
 21
5.0
 31
10.0
1001
AME_SOL
1070
     1
1071
       59
  0
LINE
  8
0
 62
     7
  5
94
 10
8.0
 20
5.0
 30
10.0
 11
8.0
 21
0.0
 31
10.0
1001
AME_SOL
1070
     1
1071
       58
  0
LINE
  8
0
 62
     7
  5
95
 10
10.0
 20
0.0
 30
10.0
 11
10.0
 21
0.0
 31
0.0
1001
AME_SOL
1070
     1
1071
       57
  0
LINE
  8
0
 62
     7
  5
96
 10
8.0
 20
0.0
 30
9.0
 11
8.0
 21
0.0
 31
10.0
1001
AME_SOL
1070
     1
1071
       56
  0
LINE
  8
0
 62
     7
  5
97
 10
8.0
 20
0.0
 30
10.0
 11
10.0
 21
0.0
 31
10.0
1001
AME_SOL
1070
     1
1071
       55
  0
LINE
  8
0
 62
     7
  5
98
 10
0.0
 20
0.0
 30
10.0
 11
1.0
 21
0.0
 31
10.0
1001
AME_SOL
1070
     1
1071
       54
  0
LINE
  8
0
 62
     7
  5
99
 10
9.0
 20
0.0
 30
0.0
 11
10.0
 21
0.0
 31
0.0
1001
AME_SOL
1070
     1
1071
       53
  0
LINE
  8
0
 62
     7
  5
9A
 10
0.0
 20
0.0
 30
0.0
 11
2.0
 21
0.0
 31
0.0
1001
AME_SOL
1070
     1
1071
       52
  0
LINE
  8
0
 62
     7
  5
9B
 10
10.0
 20
0.0
 30
0.0
 11
10.0
 21
5.0
 31
0.0
1001
AME_SOL
1070
     1
1071
       51
  0
LINE
  8
0
 62
     7
  5
9C
 10
2.0
 20
5.0
 30
0.0
 11
0.0
 21
5.0
 31
0.0
1001
AME_SOL
1070
     1
1071
       50
  0
LINE
  8
0
 62
     7
  5
9D
 10
10.0
 20
5.0
 30
0.0
 11
9.000001
 21
5.0
 31
0.0
1001
AME_SOL
1070
     1
1071
       49
  0
LINE
  8
0
 62
     7
  5
9E
 10
9.0
 20
2.0
 30
0.0
 11
9.0
 21
0.0
 31
0.0
1001
AME_SOL
1070
     1
1071
       48
  0
LINE
  8
0
 62
     7
  5
9F
 10
9.0
 20
5.0
 30
0.0
 11
9.0
 21
3.0
 31
0.0
1001
AME_SOL
1070
     1
1071
       47
  0
LINE
  8
0
 62
     7
  5
A0
 10
9.0
 20
0.0
 30
0.0
 11
9.0
 21
0.0
 31
9.0
1001
AME_SOL
1070
     1
1071
       46
  0
LINE
  8
0
 62
     7
  5
A1
 10
9.0
 20
5.0
 30
9.0
 11
9.0
 21
5.0
 31
0.0
1001
AME_SOL
1070
     1
1071
       45
  0
LINE
  8
0
 62
     7
  5
A2
 10
9.0
 20
0.0
 30
9.0
 11
8.0
 21
0.0
 31
9.0
1001
AME_SOL
1070
     1
1071
       44
  0
LINE
  8
0
 62
     7
  5
A3
 10
8.0
 20
0.0
 30
9.0
 11
8.0
 21
5.0
 31
9.0
1001
AME_SOL
1070
     1
1071
       43
  0
LINE
  8
0
 62
     7
  5
A4
 10
9.0
 20
5.0
 30
9.0
 11
9.0
 21
0.0
 31
9.0
1001
AME_SOL
1070
     1
1071
       42
  0
LINE
  8
0
 62
     7
  5
A5
 10
8.0
 20
5.0
 30
9.0
 11
9.0
 21
5.0
 31
9.0
1001
AME_SOL
1070
     1
1071
       41
  0
LINE
  8
0
 62
     7
  5
A6
 10
9.0
 20
3.0
 30
0.0
 11
9.0
 21
3.0
 31
3.0
1001
AME_SOL
1070
     1
1071
       40
  0
LINE
  8
0
 62
     7
  5
A7
 10
2.0
 20
3.0
 30
0.0
 11
9.0
 21
3.0
 31
0.0
1001
AME_SOL
1070
     1
1071
       39
  0
LINE
  8
0
 62
     7
  5
A8
 10
9.0
 20
3.0
 30
3.0
 11
9.0
 21
2.0
 31
3.0
1001
AME_SOL
1070
     1
1071
       38
  0
LINE
  8
0
 62
     7
  5
A9
 10
2.0
 20
3.0
 30
3.0
 11
9.0
 21
3.0
 31
3.0
1001
AME_SOL
1070
     1
1071
       37
  0
LINE
  8
0
 62
     7
  5
AA
 10
9.0
 20
2.0
 30
3.0
 11
9.0
 21
2.0
 31
0.0
1001
AME_SOL
1070
     1
1071
       36
  0
LINE
  8
0
 62
     7
  5
AB
 10
2.0
 20
2.0
 30
3.0
 11
9.0
 21
2.0
 31
3.0
1001
AME_SOL
1070
     1
1071
       35
  0
LINE
  8
0
 62
     7
  5
AC
 10
9.0
 20
2.0
 30
0.0
 11
2.0
 21
2.0
 31
0.0
1001
AME_SOL
1070
     1
1071
       34
  0
LINE
  8
0
 62
     7
  5
AD
 10
2.0
 20
3.0
 30
3.0
 11
2.0
 21
3.0
 31
0.0
1001
AME_SOL
1070
     1
1071
       33
  0
LINE
  8
0
 62
     7
  5
AE
 10
2.0
 20
2.0
 30
3.0
 11
2.0
 21
3.0
 31
3.0
1001
AME_SOL
1070
     1
1071
       32
  0
LINE
  8
0
 62
     7
  5
AF
 10
2.0
 20
2.0
 30
0.0
 11
2.0
 21
2.0
 31
3.0
1001
AME_SOL
1070
     1
1071
       31
  0
LINE
  8
0
 62
     7
  5
B0
 10
2.0
 20
2.0
 30
0.0
 11
2.0
 21
0.0
 31
0.0
1001
AME_SOL
1070
     1
1071
       30
  0
LINE
  8
0
 62
     7
  5
B1
 10
2.0
 20
5.0
 30
0.0
 11
2.0
 21
3.0
 31
0.0
1001
AME_SOL
1070
     1
1071
       29
  0
LINE
  8
0
 62
     7
  5
B2
 10
2.0
 20
0.0
 30
0.0
 11
2.0
 21
0.0
 31
5.0
1001
AME_SOL
1070
     1
1071
       28
  0
LINE
  8
0
 62
     7
  5
B3
 10
2.0
 20
5.0
 30
5.0
 11
2.0
 21
5.0
 31
0.0
1001
AME_SOL
1070
     1
1071
       27
  0
LINE
  8
0
 62
     7
  5
B4
 10
0.0
 20
0.0
 30
0.0
 11
0.0
 21
5.0
 31
0.0
1001
AME_SOL
1070
     1
1071
       26
  0
LINE
  8
0
 62
     7
  5
B5
 10
0.0
 20
0.0
 30
10.0
 11
0.0
 21
0.0
 31
0.0
1001
AME_SOL
1070
     1
1071
       25
  0
LINE
  8
0
 62
     7
  5
B6
 10
0.0
 20
5.0
 30
0.0
 11
0.0
 21
5.0
 31
10.0
1001
AME_SOL
1070
     1
1071
       24
  0
LINE
  8
0
 62
     7
  5
B7
 10
0.0
 20
5.0
 30
10.0
 11
0.0
 21
0.0
 31
10.0
1001
AME_SOL
1070
     1
1071
       23
  0
LINE
  8
0
 62
     7
  5
B8
 10
1.0
 20
0.0
 30
10.0
 11
1.0
 21
0.0
 31
5.0
1001
AME_SOL
1070
     1
1071
       22
  0
LINE
  8
0
 62
     7
  5
B9
 10
1.0
 20
5.0
 30
5.0
 11
1.0
 21
5.0
 31
10.0
1001
AME_SOL
1070
     1
1071
       21
  0
LINE
  8
0
 62
     7
  5
BA
 10
1.0
 20
5.0
 30
10.0
 11
1.0
 21
0.0
 31
10.0
1001
AME_SOL
1070
     1
1071
       20
  0
LINE
  8
0
 62
     7
  5
BB
 10
1.0
 20
0.0
 30
5.0
 11
2.0
 21
0.0
 31
5.0
1001
AME_SOL
1070
     1
1071
       19
  0
LINE
  8
0
 62
     7
  5
BC
 10
2.0
 20
0.0
 30
5.0
 11
2.0
 21
5.0
 31
5.0
1001
AME_SOL
1070
     1
1071
       18
  0
LINE
  8
0
 62
     7
  5
BD
 10
2.0
 20
5.0
 30
5.0
 11
1.0
 21
5.0
 31
5.0
1001
AME_SOL
1070
     1
1071
       17
  0
LINE
  8
0
 62
     7
  5
BE
 10
1.0
 20
5.0
 30
5.0
 11
1.0
 21
0.0
 31
5.0
1001
AME_SOL
1070
     1
1071
       16
  0
ENDBLK
  8
0
  5
BF
  0
BLOCK
  8
0
  5
C3
  2
*U10
 70
    65
 10
0.0
 20
0.0
 30
0.0
  1
*U
  3
*U
  0
POLYLINE
  8
0
 62
     7
  5
C4
 66
     1
 10
0.0
 20
0.0
 30
0.0
 70
    64
  0
VERTEX
  8
0
  5
C5
 10
10.0
 20
5.0
 30
0.0
 70
   192
  0
VERTEX
  8
0
  5
C6
 10
10.0
 20
0.0
 30
10.0
 70
   192
  0
VERTEX
  8
0
  5
C7
 10
10.0
 20
0.0
 30
0.0
 70
   192
  0
VERTEX
  8
0
  5
C8
 10
10.0
 20
5.0
 30
10.0
 70
   192
  0
VERTEX
  8
0
 62
     7
  5
C9
 10
0.0
 20
0.0
 30
0.0
 70
   128
 71
    -1
 72
     2
 73
     3
  0
VERTEX
  8
0
 62
     7
  5
CA
 10
0.0
 20
0.0
 30
0.0
 70
   128
 71
     1
 72
     4
 73
    -2
  0
SEQEND
  8
0
 62
     7
  5
CB
  0
POLYLINE
  8
0
 62
     7
  5
CC
 66
     1
 10
0.0
 20
0.0
 30
0.0
 70
    64
  0
VERTEX
  8
0
  5
CD
 10
2.0
 20
5.0
 30
0.0
 70
   192
  0
VERTEX
  8
0
  5
CE
 10
0.0
 20
5.0
 30
0.0
 70
   192
  0
VERTEX
  8
0
  5
CF
 10
1.0
 20
5.0
 30
5.0
 70
   192
  0
VERTEX
  8
0
  5
D0
 10
2.0
 20
5.0
 30
5.0
 70
   192
  0
VERTEX
  8
0
  5
D1
 10
1.0
 20
5.0
 30
10.0
 70
   192
  0
VERTEX
  8
0
  5
D2
 10
0.0
 20
5.0
 30
10.0
 70
   192
  0
VERTEX
  8
0
  5
D3
 10
8.0
 20
5.0
 30
10.0
 70
   192
  0
VERTEX
  8
0
  5
D4
 10
10.0
 20
5.0
 30
10.0
 70
   192
  0
VERTEX
  8
0
  5
D5
 10
9.0
 20
5.0
 30
9.0
 70
   192
  0
VERTEX
  8
0
  5
D6
 10
10.0
 20
5.0
 30
0.0
 70
   192
  0
VERTEX
  8
0
  5
D7
 10
8.0
 20
5.0
 30
9.0
 70
   192
  0
VERTEX
  8
0
  5
D8
 10
9.0
 20
5.0
 30
0.0
 70
   192
  0
VERTEX
  8
0
 62
     7
  5
D9
 10
0.0
 20
0.0
 30
0.0
 70
   128
 71
     1
 72
    -2
 73
    -3
  0
VERTEX
  8
0
 62
     7
  5
DA
 10
0.0
 20
0.0
 30
0.0
 70
   128
 71
     3
 72
     4
 73
    -1
  0
VERTEX
  8
0
 62
     7
  5
DB
 10
0.0
 20
0.0
 30
0.0
 70
   128
 71
    -2
 72
     5
 73
    -3
  0
VERTEX
  8
0
 62
     7
  5
DC
 10
0.0
 20
0.0
 30
0.0
 70
   128
 71
     2
 72
     6
 73
    -5
  0
VERTEX
  8
0
 62
     7
  5
DD
 10
0.0
 20
0.0
 30
0.0
 70
   128
 71
     7
 72
    -8
 73
    -9
  0
VERTEX
  8
0
 62
     7
  5
DE
 10
0.0
 20
0.0
 30
0.0
 70
   128
 71
     8
 72
   -10
 73
    -9
  0
VERTEX
  8
0
 62
     7
  5
DF
 10
0.0
 20
0.0
 30
0.0
 70
   128
 71
     9
 72
    11
 73
    -7
  0
VERTEX
  8
0
 62
     7
  5
E0
 10
0.0
 20
0.0
 30
0.0
 70
   128
 71
    10
 72
    12
 73
    -9
  0
SEQEND
  8
0
 62
     7
  5
E1
  0
POLYLINE
  8
0
 62
     7
  5
E2
 66
     1
 10
0.0
 20
0.0
 30
0.0
 70
    64
  0
VERTEX
  8
0
  5
E3
 10
1.0
 20
5.0
 30
10.0
 70
   192
  0
VERTEX
  8
0
  5
E4
 10
0.0
 20
5.0
 30
10.0
 70
   192
  0
VERTEX
  8
0
  5
E5
 10
0.0
 20
0.0
 30
10.0
 70
   192
  0
VERTEX
  8
0
  5
E6
 10
1.0
 20
0.0
 30
10.0
 70
   192
  0
VERTEX
  8
0
  5
E7
 10
10.0
 20
0.0
 30
10.0
 70
   192
  0
VERTEX
  8
0
  5
E8
 10
10.0
 20
5.0
 30
10.0
 70
   192
  0
VERTEX
  8
0
  5
E9
 10
8.0
 20
0.0
 30
10.0
 70
   192
  0
VERTEX
  8
0
  5
EA
 10
8.0
 20
5.0
 30
10.0
 70
   192
  0
VERTEX
  8
0
 62
     7
  5
EB
 10
0.0
 20
0.0
 30
0.0
 70
   128
 71
     1
 72
     2
 73
    -3
  0
VERTEX
  8
0
 62
     7
  5
EC
 10
0.0
 20
0.0
 30
0.0
 70
   128
 71
     3
 72
     4
 73
    -1
  0
VERTEX
  8
0
 62
     7
  5
ED
 10
0.0
 20
0.0
 30
0.0
 70
   128
 71
     5
 72
    -6
 73
     7
  0
VERTEX
  8
0
 62
     7
  5
EE
 10
0.0
 20
0.0
 30
0.0
 70
   128
 71
     6
 72
     8
 73
    -7
  0
SEQEND
  8
0
 62
     7
  5
EF
  0
POLYLINE
  8
0
 62
     7
  5
F0
 66
     1
 10
0.0
 20
0.0
 30
0.0
 70
    64
  0
VERTEX
  8
0
  5
F1
 10
8.0
 20
0.0
 30
9.0
 70
   192
  0
VERTEX
  8
0
  5
F2
 10
8.0
 20
5.0
 30
10.0
 70
   192
  0
VERTEX
  8
0
  5
F3
 10
8.0
 20
5.0
 30
9.0
 70
   192
  0
VERTEX
  8
0
  5
F4
 10
8.0
 20
0.0
 30
10.0
 70
   192
  0
VERTEX
  8
0
 62
     7
  5
F5
 10
0.0
 20
0.0
 30
0.0
 70
   128
 71
    -1
 72
     2
 73
     3
  0
VERTEX
  8
0
 62
     7
  5
F6
 10
0.0
 20
0.0
 30
0.0
 70
   128
 71
     1
 72
     4
 73
    -2
  0
SEQEND
  8
0
 62
     7
  5
F7
  0
POLYLINE
  8
0
 62
     7
  5
F8
 66
     1
 10
0.0
 20
0.0
 30
0.0
 70
    64
  0
VERTEX
  8
0
  5
F9
 10
1.0
 20
0.0
 30
5.0
 70
   192
  0
VERTEX
  8
0
  5
FA
 10
0.0
 20
0.0
 30
0.0
 70
   192
  0
VERTEX
  8
0
  5
FB
 10
2.0
 20
0.0
 30
5.0
 70
   192
  0
VERTEX
  8
0
  5
FC
 10
1.0
 20
0.0
 30
10.0
 70
   192
  0
VERTEX
  8
0
  5
FD
 10
2.0
 20
0.0
 30
0.0
 70
   192
  0
VERTEX
  8
0
  5
FE
 10
0.0
 20
0.0
 30
10.0
 70
   192
  0
VERTEX
  8
0
  5
FF
 10
9.0
 20
0.0
 30
9.0
 70
   192
  0
VERTEX
  8
0
  5
100
 10
10.0
 20
0.0
 30
10.0
 70
   192
  0
VERTEX
  8
0
  5
101
 10
8.0
 20
0.0
 30
9.0
 70
   192
  0
VERTEX
  8
0
  5
102
 10
10.0
 20
0.0
 30
0.0
 70
   192
  0
VERTEX
  8
0
  5
103
 10
9.0
 20
0.0
 30
0.0
 70
   192
  0
VERTEX
  8
0
  5
104
 10
8.0
 20
0.0
 30
10.0
 70
   192
  0
VERTEX
  8
0
 62
     7
  5
105
 10
0.0
 20
0.0
 30
0.0
 70
   128
 71
    -1
 72
    -2
 73
     3
  0
VERTEX
  8
0
 62
     7
  5
106
 10
0.0
 20
0.0
 30
0.0
 70
   128
 71
     1
 72
    -4
 73
    -2
  0
VERTEX
  8
0
 62
     7
  5
107
 10
0.0
 20
0.0
 30
0.0
 70
   128
 71
     2
 72
     5
 73
    -3
  0
VERTEX
  8
0
 62
     7
  5
108
 10
0.0
 20
0.0
 30
0.0
 70
   128
 71
     4
 72
     6
 73
    -2
  0
VERTEX
  8
0
 62
     7
  5
109
 10
0.0
 20
0.0
 30
0.0
 70
   128
 71
    -7
 72
    -8
 73
     9
  0
VERTEX
  8
0
 62
     7
  5
10A
 10
0.0
 20
0.0
 30
0.0
 70
   128
 71
    -7
 72
    10
 73
    -8
  0
VERTEX
  8
0
 62
     7
  5
10B
 10
0.0
 20
0.0
 30
0.0
 70
   128
 71
     7
 72
    11
 73
   -10
  0
VERTEX
  8
0
 62
     7
  5
10C
 10
0.0
 20
0.0
 30
0.0
 70
   128
 71
     8
 72
    12
 73
    -9
  0
SEQEND
  8
0
 62
     7
  5
10D
  0
POLYLINE
  8
0
 62
     7
  5
10E
 66
     1
 10
0.0
 20
0.0
 30
0.0
 70
    64
  0
VERTEX
  8
0
  5
10F
 10
2.0
 20
3.0
 30
0.0
 70
   192
  0
VERTEX
  8
0
  5
110
 10
9.0
 20
2.0
 30
0.0
 70
   192
  0
VERTEX
  8
0
  5
111
 10
2.0
 20
2.0
 30
0.0
 70
   192
  0
VERTEX
  8
0
  5
112
 10
0.0
 20
0.0
 30
0.0
 70
   192
  0
VERTEX
  8
0
  5
113
 10
9.0
 20
3.0
 30
0.0
 70
   192
  0
VERTEX
  8
0
  5
114
 10
10.0
 20
0.0
 30
0.0
 70
   192
  0
VERTEX
  8
0
  5
115
 10
2.0
 20
5.0
 30
0.0
 70
   192
  0
VERTEX
  8
0
  5
116
 10
2.0
 20
0.0
 30
0.0
 70
   192
  0
VERTEX
  8
0
  5
117
 10
9.0
 20
0.0
 30
0.0
 70
   192
  0
VERTEX
  8
0
  5
118
 10
10.0
 20
5.0
 30
0.0
 70
   192
  0
VERTEX
  8
0
  5
119
 10
9.0
 20
5.0
 30
0.0
 70
   192
  0
VERTEX
  8
0
  5
11A
 10
0.0
 20
5.0
 30
0.0
 70
   192
  0
VERTEX
  8
0
 62
     7
  5
11B
 10
0.0
 20
0.0
 30
0.0
 70
   128
 71
    -1
 72
     2
 73
    -3
  0
VERTEX
  8
0
 62
     7
  5
11C
 10
0.0
 20
0.0
 30
0.0
 70
   128
 71
    -3
 72
    -4
 73
    -1
  0
VERTEX
  8
0
 62
     7
  5
11D
 10
0.0
 20
0.0
 30
0.0
 70
   128
 71
     1
 72
    -5
 73
    -2
  0
VERTEX
  8
0
 62
     7
  5
11E
 10
0.0
 20
0.0
 30
0.0
 70
   128
 71
    -5
 72
    -6
 73
    -2
  0
VERTEX
  8
0
 62
     7
  5
11F
 10
0.0
 20
0.0
 30
0.0
 70
   128
 71
    -4
 72
     7
 73
    -1
  0
VERTEX
  8
0
 62
     7
  5
120
 10
0.0
 20
0.0
 30
0.0
 70
   128
 71
     3
 72
     8
 73
    -4
  0
VERTEX
  8
0
 62
     7
  5
121
 10
0.0
 20
0.0
 30
0.0
 70
   128
 71
     6
 72
     9
 73
    -2
  0
VERTEX
  8
0
 62
     7
  5
122
 10
0.0
 20
0.0
 30
0.0
 70
   128
 71
    -5
 72
    10
 73
    -6
  0
VERTEX
  8
0
 62
     7
  5
123
 10
0.0
 20
0.0
 30
0.0
 70
   128
 71
     5
 72
    11
 73
   -10
  0
VERTEX
  8
0
 62
     7
  5
124
 10
0.0
 20
0.0
 30
0.0
 70
   128
 71
     4
 72
    12
 73
    -7
  0
SEQEND
  8
0
 62
     7
  5
125
  0
POLYLINE
  8
0
 62
     7
  5
126
 66
     1
 10
0.0
 20
0.0
 30
0.0
 70
    64
  0
VERTEX
  8
0
  5
127
 10
9.0
 20
2.0
 30
3.0
 70
   192
  0
VERTEX
  8
0
  5
128
 10
9.0
 20
0.0
 30
9.0
 70
   192
  0
VERTEX
  8
0
  5
129
 10
9.0
 20
2.0
 30
0.0
 70
   192
  0
VERTEX
  8
0
  5
12A
 10
9.0
 20
3.0
 30
3.0
 70
   192
  0
VERTEX
  8
0
  5
12B
 10
9.0
 20
5.0
 30
0.0
 70
   192
  0
VERTEX
  8
0
  5
12C
 10
9.0
 20
0.0
 30
0.0
 70
   192
  0
VERTEX
  8
0
  5
12D
 10
9.0
 20
5.0
 30
9.0
 70
   192
  0
VERTEX
  8
0
  5
12E
 10
9.0
 20
3.0
 30
0.0
 70
   192
  0
VERTEX
  8
0
 62
     7
  5
12F
 10
0.0
 20
0.0
 30
0.0
 70
   128
 71
     1
 72
    -3
 73
    -2
  0
VERTEX
  8
0
 62
     7
  5
130
 10
0.0
 20
0.0
 30
0.0
 70
   128
 71
    -1
 72
    -2
 73
     4
  0
VERTEX
  8
0
 62
     7
  5
131
 10
0.0
 20
0.0
 30
0.0
 70
   128
 71
    -4
 72
    -2
 73
    -5
  0
VERTEX
  8
0
 62
     7
  5
132
 10
0.0
 20
0.0
 30
0.0
 70
   128
 71
    -2
 72
     3
 73
     6
  0
VERTEX
  8
0
 62
     7
  5
133
 10
0.0
 20
0.0
 30
0.0
 70
   128
 71
    -5
 72
     2
 73
     7
  0
VERTEX
  8
0
 62
     7
  5
134
 10
0.0
 20
0.0
 30
0.0
 70
   128
 71
    -4
 72
     5
 73
     8
  0
SEQEND
  8
0
 62
     7
  5
135
  0
POLYLINE
  8
0
 62
     7
  5
136
 66
     1
 10
0.0
 20
0.0
 30
0.0
 70
    64
  0
VERTEX
  8
0
  5
137
 10
8.0
 20
5.0
 30
9.0
 70
   192
  0
VERTEX
  8
0
  5
138
 10
9.0
 20
0.0
 30
9.0
 70
   192
  0
VERTEX
  8
0
  5
139
 10
9.0
 20
5.0
 30
9.0
 70
   192
  0
VERTEX
  8
0
  5
13A
 10
8.0
 20
0.0
 30
9.0
 70
   192
  0
VERTEX
  8
0
 62
     7
  5
13B
 10
0.0
 20
0.0
 30
0.0
 70
   128
 71
     1
 72
     3
 73
    -2
  0
VERTEX
  8
0
 62
     7
  5
13C
 10
0.0
 20
0.0
 30
0.0
 70
   128
 71
    -1
 72
     2
 73
     4
  0
SEQEND
  8
0
 62
     7
  5
13D
  0
POLYLINE
  8
0
 62
     7
  5
13E
 66
     1
 10
0.0
 20
0.0
 30
0.0
 70
    64
  0
VERTEX
  8
0
  5
13F
 10
9.0
 20
3.0
 30
3.0
 70
   192
  0
VERTEX
  8
0
  5
140
 10
9.0
 20
3.0
 30
0.0
 70
   192
  0
VERTEX
  8
0
  5
141
 10
2.0
 20
3.0
 30
0.0
 70
   192
  0
VERTEX
  8
0
  5
142
 10
2.0
 20
3.0
 30
3.0
 70
   192
  0
VERTEX
  8
0
 62
     7
  5
143
 10
0.0
 20
0.0
 30
0.0
 70
   128
 71
     1
 72
     2
 73
    -3
  0
VERTEX
  8
0
 62
     7
  5
144
 10
0.0
 20
0.0
 30
0.0
 70
   128
 71
     3
 72
     4
 73
    -1
  0
SEQEND
  8
0
 62
     7
  5
145
  0
POLYLINE
  8
0
 62
     7
  5
146
 66
     1
 10
0.0
 20
0.0
 30
0.0
 70
    64
  0
VERTEX
  8
0
  5
147
 10
2.0
 20
2.0
 30
3.0
 70
   192
  0
VERTEX
  8
0
  5
148
 10
9.0
 20
2.0
 30
3.0
 70
   192
  0
VERTEX
  8
0
  5
149
 10
9.0
 20
3.0
 30
3.0
 70
   192
  0
VERTEX
  8
0
  5
14A
 10
2.0
 20
3.0
 30
3.0
 70
   192
  0
VERTEX
  8
0
 62
     7
  5
14B
 10
0.0
 20
0.0
 30
0.0
 70
   128
 71
     1
 72
     2
 73
    -3
  0
VERTEX
  8
0
 62
     7
  5
14C
 10
0.0
 20
0.0
 30
0.0
 70
   128
 71
     3
 72
     4
 73
    -1
  0
SEQEND
  8
0
 62
     7
  5
14D
  0
POLYLINE
  8
0
 62
     7
  5
14E
 66
     1
 10
0.0
 20
0.0
 30
0.0
 70
    64
  0
VERTEX
  8
0
  5
14F
 10
2.0
 20
2.0
 30
0.0
 70
   192
  0
VERTEX
  8
0
  5
150
 10
9.0
 20
2.0
 30
0.0
 70
   192
  0
VERTEX
  8
0
  5
151
 10
2.0
 20
2.0
 30
3.0
 70
   192
  0
VERTEX
  8
0
  5
152
 10
9.0
 20
2.0
 30
3.0
 70
   192
  0
VERTEX
  8
0
 62
     7
  5
153
 10
0.0
 20
0.0
 30
0.0
 70
   128
 71
     1
 72
    -2
 73
     3
  0
VERTEX
  8
0
 62
     7
  5
154
 10
0.0
 20
0.0
 30
0.0
 70
   128
 71
     2
 72
     4
 73
    -3
  0
SEQEND
  8
0
 62
     7
  5
155
  0
POLYLINE
  8
0
 62
     7
  5
156
 66
     1
 10
0.0
 20
0.0
 30
0.0
 70
    64
  0
VERTEX
  8
0
  5
157
 10
2.0
 20
0.0
 30
5.0
 70
   192
  0
VERTEX
  8
0
  5
158
 10
2.0
 20
2.0
 30
3.0
 70
   192
  0
VERTEX
  8
0
  5
159
 10
2.0
 20
3.0
 30
3.0
 70
   192
  0
VERTEX
  8
0
  5
15A
 10
2.0
 20
2.0
 30
0.0
 70
   192
  0
VERTEX
  8
0
  5
15B
 10
2.0
 20
0.0
 30
0.0
 70
   192
  0
VERTEX
  8
0
  5
15C
 10
2.0
 20
5.0
 30
5.0
 70
   192
  0
VERTEX
  8
0
  5
15D
 10
2.0
 20
5.0
 30
0.0
 70
   192
  0
VERTEX
  8
0
  5
15E
 10
2.0
 20
3.0
 30
0.0
 70
   192
  0
VERTEX
  8
0
 62
     7
  5
15F
 10
0.0
 20
0.0
 30
0.0
 70
   128
 71
    -1
 72
     2
 73
    -3
  0
VERTEX
  8
0
 62
     7
  5
160
 10
0.0
 20
0.0
 30
0.0
 70
   128
 71
    -1
 72
     4
 73
    -2
  0
VERTEX
  8
0
 62
     7
  5
161
 10
0.0
 20
0.0
 30
0.0
 70
   128
 71
     1
 72
     5
 73
    -4
  0
VERTEX
  8
0
 62
     7
  5
162
 10
0.0
 20
0.0
 30
0.0
 70
   128
 71
    -3
 72
     6
 73
    -1
  0
VERTEX
  8
0
 62
     7
  5
163
 10
0.0
 20
0.0
 30
0.0
 70
   128
 71
    -3
 72
     7
 73
    -6
  0
VERTEX
  8
0
 62
     7
  5
164
 10
0.0
 20
0.0
 30
0.0
 70
   128
 71
     3
 72
     8
 73
    -7
  0
SEQEND
  8
0
 62
     7
  5
165
  0
POLYLINE
  8
0
 62
     7
  5
166
 66
     1
 10
0.0
 20
0.0
 30
0.0
 70
    64
  0
VERTEX
  8
0
  5
167
 10
0.0
 20
5.0
 30
10.0
 70
   192
  0
VERTEX
  8
0
  5
168
 10
0.0
 20
5.0
 30
0.0
 70
   192
  0
VERTEX
  8
0
  5
169
 10
0.0
 20
0.0
 30
10.0
 70
   192
  0
VERTEX
  8
0
  5
16A
 10
0.0
 20
0.0
 30
0.0
 70
   192
  0
VERTEX
  8
0
 62
     7
  5
16B
 10
0.0
 20
0.0
 30
0.0
 70
   128
 71
     1
 72
    -2
 73
     3
  0
VERTEX
  8
0
 62
     7
  5
16C
 10
0.0
 20
0.0
 30
0.0
 70
   128
 71
     2
 72
     4
 73
    -3
  0
SEQEND
  8
0
 62
     7
  5
16D
  0
POLYLINE
  8
0
 62
     7
  5
16E
 66
     1
 10
0.0
 20
0.0
 30
0.0
 70
    64
  0
VERTEX
  8
0
  5
16F
 10
1.0
 20
5.0
 30
10.0
 70
   192
  0
VERTEX
  8
0
  5
170
 10
1.0
 20
0.0
 30
5.0
 70
   192
  0
VERTEX
  8
0
  5
171
 10
1.0
 20
0.0
 30
10.0
 70
   192
  0
VERTEX
  8
0
  5
172
 10
1.0
 20
5.0
 30
5.0
 70
   192
  0
VERTEX
  8
0
 62
     7
  5
173
 10
0.0
 20
0.0
 30
0.0
 70
   128
 71
     1
 72
     3
 73
    -2
  0
VERTEX
  8
0
 62
     7
  5
174
 10
0.0
 20
0.0
 30
0.0
 70
   128
 71
    -1
 72
     2
 73
     4
  0
SEQEND
  8
0
 62
     7
  5
175
  0
POLYLINE
  8
0
 62
     7
  5
176
 66
     1
 10
0.0
 20
0.0
 30
0.0
 70
    64
  0
VERTEX
  8
0
  5
177
 10
2.0
 20
5.0
 30
5.0
 70
   192
  0
VERTEX
  8
0
  5
178
 10
2.0
 20
0.0
 30
5.0
 70
   192
  0
VERTEX
  8
0
  5
179
 10
1.0
 20
0.0
 30
5.0
 70
   192
  0
VERTEX
  8
0
  5
17A
 10
1.0
 20
5.0
 30
5.0
 70
   192
  0
VERTEX
  8
0
 62
     7
  5
17B
 10
0.0
 20
0.0
 30
0.0
 70
   128
 71
    -1
 72
     3
 73
     2
  0
VERTEX
  8
0
 62
     7
  5
17C
 10
0.0
 20
0.0
 30
0.0
 70
   128
 71
    -3
 72
     1
 73
     4
  0
SEQEND
  8
0
 62
     7
  5
17D
  0
ENDBLK
  8
0
  5
17E
  0
BLOCK
  8
0
  5
180
  2
AME_MAT
 70
    64
 10
0.0
 20
0.0
 30
0.0
  1
AME_MAT
  3
AME_MAT
  0
ENDBLK
  8
0
  5
181
  0
ENDSEC
  0
SECTION
  2
ENTITIES
  0
INSERT
  8
AME_FRZ
  5
3
  2
AME_NIL
 10
0.0
 20
0.0
 30
0.0
  0
INSERT
  8
AME_FRZ
  5
6
  2
AME_SOL
 10
0.0
 20
0.0
 30
0.0
1001
AME_SOL
1000
1.0
1000
sq cm
1070
     3
1070
     0
1070
     3
1000
wire
1040
0.0
1000
NONE
1040
1.0
1000
cm
1000
gm
1000
MILD_STEEL
1070
    25
1000
CSG
1070
     3
1070
     2
1070
     3
1000
cu cm
1070
     4
1070
     0
1005
3
  0
INSERT
  8
AME_FRZ
  5
15
  2
*U2
 10
0.0
 20
0.0
 30
0.0
1001
AME_SOL
1002
{
1070
     0
1071
  1858912
1070
  1536
1010
2.0
1020
5.0
1030
10.0
1005
0
1005
0
1005
3E
1040
0.0
1040
1.0
1000
MILD_STEEL
1000
0
1010
0.0
1020
0.0
1030
0.0
1010
0.0
1020
0.0
1030
1.0
1040
0.0
1002
}
  0
INSERT
  8
AME_FRZ
  5
26
  2
*U3
 10
1.0
 20
0.0
 30
5.0
1001
AME_SOL
1002
{
1070
     0
1071
  1860304
1070
  1536
1010
1.0
1020
5.0
1030
5.0
1005
0
1005
0
1005
3E
1040
0.0
1040
1.0
1000
MILD_STEEL
1000
0
1010
1.0
1020
0.0
1030
5.0
1010
0.0
1020
0.0
1030
1.0
1040
0.0
1002
}
  0
INSERT
  8
AME_FRZ
  5
3E
  2
*U4
 10
0.0
 20
0.0
 30
0.0
1001
AME_SOL
1002
{
1070
     0
1071
  1928720
1070
  1543
1070
     0
1005
15
1005
26
1005
0
1005
0
1005
C0
1040
0.0
1040
1.0
1000
MILD_STEEL
1000
0
1010
0.0
1020
0.0
1030
0.0
1010
0.0
1020
0.0
1030
1.0
1040
0.0
1002
}
  0
INSERT
  8
AME_FRZ
  5
4F
  2
*U5
 10
8.0
 20
0.0
 30
0.0
1001
AME_SOL
1002
{
1070
     0
1071
  1969896
1070
  1536
1010
2.0
1020
5.0
1030
-10.0
1005
0
1005
0
1005
78
1040
0.0
1040
1.0
1000
MILD_STEEL
1000
0
1010
8.0
1020
0.0
1030
0.0
1010
0.0
1020
0.0
1030
1.0
1040
0.0
1002
}
  0
INSERT
  8
AME_FRZ
  5
60
  2
*U6
 10
8.0
 20
0.0
 30
0.0
1001
AME_SOL
1002
{
1070
     0
1071
  1969600
1070
  1536
1010
1.0
1020
-5.0
1030
-9.0
1005
0
1005
0
1005
78
1040
0.0
1040
1.0
1000
MILD_STEEL
1000
0
1010
8.0
1020
0.0
1030
0.0
1010
0.0
1020
0.0
1030
1.0
1040
0.0
1002
}
  0
INSERT
  8
AME_FRZ
  5
78
  2
*U7
 10
0.0
 20
0.0
 30
0.0
1001
AME_SOL
1002
{
1070
     0
1071
  1968656
1070
  1543
1070
     0
1005
4F
1005
60
1005
0
1005
0
1005
8C
1040
0.0
1040
1.0
1000
MILD_STEEL
1000
0
1010
0.0
1020
0.0
1030
0.0
1010
0.0
1020
0.0
1030
1.0
1040
0.0
1002
}
  0
INSERT
  8
AME_FRZ
  5
89
  2
*U8
 10
2.0
 20
2.0
 30
0.0
1001
AME_SOL
1002
{
1070
     0
1071
  1965336
1070
  1536
1010
7.0
1020
1.0
1030
3.0
1005
0
1005
0
1005
8C
1040
0.0
1040
1.0
1000
MILD_STEEL
1000
0
1010
2.0
1020
2.0
1030
0.0
1010
0.0
1020
0.0
1030
1.0
1040
0.0
1002
}
  0
INSERT
  8
AME_FRZ
  5
8C
  2
AME_NIL
 10
0.0
 20
0.0
 30
0.0
1001
AME_SOL
1002
{
1070
     0
1071
  1990512
1070
   775
1070
     2
1005
78
1005
89
1005
0
1005
0
1005
C0
1040
0.0
1040
1.0
1000
MILD_STEEL
1000
0
1010
0.0
1020
0.0
1030
0.0
1010
0.0
1020
0.0
1030
1.0
1040
0.0
1002
}
  0
INSERT
  8
0
  5
C0
  2
*U10
 10
0.0
 20
0.0
 30
0.0
1001
AME_SOL
1002
{
1070
     0
1071
  2018288
1070
  9223
1070
     2
1005
8C
1005
3E
1005
17F
1005
C1
1005
0
1040
342.000002
1040
1.0
1000
MILD_STEEL
1000
0
1002
}
  0
INSERT
  8
AME_FRZ
  5
C1
  2
AME_NIL
 10
1.0
 20
1.0
 30
1.0
1001
AME_SOL
1004
E903A9FB0100F0FFFFFF000052F70F00010000009EB9B5BA9EB9B5BA9EB9B5BAAE0520415B0BA040AE05204101000000FBF2040000B07F3F0000A0BA00F69F4000140040000AA040000AA0400100844EF0911D00FFFF0000010032010000844E0000000000000000803F000000000000803F000000000000
1004
00000000803F000000000000A04005000000000000000000000000000000000000000000844E0000000000000000803F000000000000803F00000000000000000000803F000000000000A040050000000000000000000000000000000000FFFFFFFFFBF2040000B07F3F0000A0BA00F69F400028803F000A
1004
A040000520410100844E08CB1D00FFFF0000010030010000844E000000000000000000000000803F000000000000803F000000000000803F000000000000A04005000000000000000000000000000000000000000000844E000000000000000000000000803F000000000000803F000000000000803F0000
1004
00000000A040050000000000000000000000000000000000FFFFFFFFFBF204009EB9B5BA9EB9B5BA9EB9B5BA9EB9B53A5B0BA040AE0520410100844E60AC1D0001000000010094010000844E000000000000000000000000803F000000000000803F00000000000000000000000000000000050000000000
1004
00000000000000000000000000000000844E000000000000000000000000803F000000000000803F0000000000000000000000000000000005000000000000000000000000000000000001000000FBF2080092D2FF3F9EB9B5BA9EB9B5BAB71600405B0BA040AE0520410100844EE84F1F00010000000100
1004
91010000844E000000000080000080BF000000800000008000000080000080BF000000400000A0400000204105000000000000000000000000000000000000000000844E00000000008000000080000080BF000000000000803F000000000000004000000040000000000500000000000000000000000000
1004
0000000001000000FBF2040000D8FF3F00D8FF3F0000A0BAFF04104100140040001440400100844EE8131F000100000001005D020000844E00000000803F000000000000000000000000000000000000803F00000040000000400000000005000000000000000000000000000000000000000000844E0000
1004
0000803F000000000000000000000000000000000000803F00000040000000400000000005000000000000000000000000000000000001000000FBF2040000D8FF3F00D8FF3F00EC3F40FF04104100144040001440400100844EB84B1F000100000001005B020000844E0000000080BF0000008000000080
1004
00000080000080BF00000080FFFF0F41000040400000404005000000000000000000000000000000000000000000844E0000000080BF000000800000008000000080000080BF00000080FFFF0F41000040400000404005000000000000000000000000000000000001000000FBF2040000D8FF3F00EC3F40
1004
0000A0BAFF04104100144040001440400100844E08491F000100000001005A020000844E00000000008000000080000080BF000080BF0000008000000080FFFF0F41000040400000404005000000000000000000000000000000000000000000844E00000000008000000080000080BF000080BF00000080
1004
00000080FFFF0F41000040400000404005000000000000000000000000000000000001000000FBF20400A9F5FF405A81A5BAD4FA0F412C051041570AA0402B0510410100844E50471F00FFFF0000010023030000844E0000000080BF000000800000008000000080000080BF00000080000010410000A040
1004
0000104105000000000000000000000000000000000000000000844E0000000080BF000000800000008000000080000080BF00000080000010410000A04000001041050000000000000000000000000000000000FFFFFFFFFBF20800D4FA0F415A81A5BA5A81A5BA2C051041570AA0402B0510410100844E
1004
E8411F00FFFF0000010021030000844E000000000080000080BF000000800000008000000080000080BF000010410000A0400000104105000000000000000000000000000000000000000000844E000000000080000080BF000000800000008000000080000080BF000010410000A0400000104105000000
1004
0000000000000000000000000000FFFFFFFFFBF20C009EB9B5BA9EB9B5BA9EB9B5BAB71600405B0BA0409EB9B53A0100844E884D1F0001000000030096010000844E0000000000000000803F000000000000803F000000000000000000000000000000000000000005000000000000000000000000000000
1004
0000000000005E020000844E0000000000000000803F000000000000803F0000000000000000000000400000004000000000050000000000000000000000000000000000000000008A030000844E0000000000000000803F000000000000803F000000000000000000000041000000000000000005000000
1004
000000000000000000000000000000000000844E0000000000000000803F000000000000803F000000000000000000000041000000000000000005000000000000000000000000000000000001000000FBF20C009EB9B5BA9EB9B5BA9EB9B5BAB71600409EB9B53AAE0520410100844E584E1F0001000000
1004
020095010000844E00000000803F000000000000000000000000000000000000803F0000000000000000000000000500000000000000000000000000000000000000000089030000844E00000000803F000000000000000000000000000000000000803F0000004100000000000000000500000000000000
1004
0000000000000000000000000000844E00000000803F000000000000000000000000000000000000803F00000041000000000000000005000000000000000000000000000000000001000000FBF20400A5F4FF409EB9B5BA9EB9B5BAAE0500415B0BA040AE0520410100844E20F31E000100000001008803
1004
0000844E000000000000000000000000803F000000000000803F0000000000000041000000000000000005000000000000000000000000000000000000000000844E000000000000000000000000803F000000000000803F0000000000000041000000000000000005000000000000000000000000000000
1004
000001000000FBF208009EB9B5BA9EB9B5BA52FA1F41B71600405B0BA040AE0520410100844E28EC1D0001000000020093010000844E0000000080BF000000800000008000000080000080BF00000080000000400000A040000020410500000000000000000000000000000000000000000087030000844E
1004
0000000080BF000000800000008000000080000080BF00000080000020410000A0400000204105000000000000000000000000000000000000000000844E0000000080BF000000800000008000000080000080BF00000080000020410000A040000020410500000000000000000000000000000000000100
1004
0000FBF20C009EB9B5BAA4F49F409EB9B5BAB71600405B0BA040AE0520410100844E78411E0001000000020092010000844E00000000008000000080000080BF000080BF0000008000000080000000400000A040000020410500000000000000000000000000000000000000000086030000844E00000000
1004
008000000080000080BF000080BF0000008000000080000020410000A0400000204105000000000000000000000000000000000000000000844E00000000008000000080000080BF000080BF0000008000000080000020410000A0400000204105000000000000000000000000000000000001000000FBF2
1004
040052FA1F419EB9B5BA9EB9B5BAAE0520415B0BA040AE0520410100844EE8401E0001000000010085030000844E000000000080000080BF000000800000008000000080000080BF000020410000A0400000204105000000000000000000000000000000000000000000844E000000000080000080BF0000
1004
00800000008000000080000080BF000020410000A0400000204105000000000000000000000000000000000001000000A4EE00B07F3F0000A0BA00F69F400028803F000AA040000AA0400000A0C00000008002009675C8F11D0000000100FFFFF0911D0008CB1D000000020008CB1D00F0911D00FFFFFFFF
1004
FFFFFFFF96750000000080BF00000000000000000000000000000000000080BF0000803F000000000000A04002000000A0C000000080A4EE00B07F3FA4F49F4000F69F4000140040000AA040000AA040010060400000904002009675A0F21D0000000100FFFFF0911D0078411E000000020078411E00F091
1004
1D0001000000FFFFFFFF96750000000000000000803F000000000000000000000000000080BF0000B0400000A0400000A04002000100604000009040A4EE92D2FF3F0000A0BA00F69F4000140040000AA040000AA040000020C0000020400200967530F31D0000000100FFFFF0911D00E84F1F0000000200
1004
E84F1F00F0911D0001000000FFFFFFFF967500000000803F00000000000000000000000000000000000080BF00000040000020400000A0400200000020C000002040A4EE00B07F3F0000A0BA00F69F40001400409EB9B53A000AA040000060C0FFFF1FC00200967518F01D0000000100FFFFF0911D00584E
1004
1F0000000200584E1F00F0911D0001000000FFFFFFFF9675000000000000000080BF000000000000000000000000000080BF00009040000000000000A0400200000060C0FFFF1FC0A4EE00B07F3F0000A0BA52FA1F410028803F000AA04000052041000020C00000204002009675A0371E0000000100FFFF
1004
08CB1D0028EC1D000000020028EC1D0008CB1D0001000000FFFFFFFF9675000000000000000000000000803F000080BF00000000000000000000803F00002040000020410200000020C000002040A4EE00B07F3FA4F49F4000F69F400028803F000AA04000052041000020C0000020400200967550391E00
1004
00000100FFFF08CB1D0078411E000000020078411E0008CB1D0001000000FFFFFFFF96750000000000000000803F00000000000080BF00000000000000000000803F0000A0400000F0400200000020C000002040A4EE00B07F3F0000A0BA00F69F400028803F9EB9B53A000520410000F0C0000020C00200
1004
9675483B1E0000000100FFFF08CB1D00584E1F0000000200584E1F0008CB1D0001000000FFFFFFFF9675000000000000000080BF00000000000080BF00000000000000000000803F000000000000204002000000F0C0000020C0A4EE9EB9B5BA9EB9B5BA52FA1F419EB9B53A5B0BA040AE052041000020C0
1004
0000204002009675C0381E000000FFFF010060AC1D0028EC1D000000020060AC1D0028EC1D0001000000010000009675000000000000000000000000803F000080BF00000000000000000000000000002040000020410200000020C000002040A4EE9EB9B5BAA4F49F409EB9B5BA9EB9B53A5B0BA040AE05
1004
20410000A0C00000A0400200967510371E000000FFFF010060AC1D0078411E000000020060AC1D0078411E00010000000100000096750000000000000000803F00000000000080BF0000000000000000000000000000A0400000A04002000000A0C00000A040A4EE9EB9B5BA9EB9B5BA9EB9B5BA9EB9B53A
1004
9EB9B53AAE052041000020C10000008002009675D8E01D000000FFFF010060AC1D00584E1F000000020060AC1D00584E1F0001000000010000009675000000000000000080BF00000000000080BF00000000000000000000000000000000000000000200000020C100000080A4EE9EB9B5BA9EB9B5BA9EB9
1004
B5BA9EB9B53A5B0BA0409EB9B53A000000000000A04002009675B86C1E000000FFFF010060AC1D00884D1F000000020060AC1D00884D1F000100000001000000967500000000000000000000000080BF000080BF00000000000000000000000000000000000000000200000000000000A040A4EE92D2FF3F
1004
A4F49F409EB9B5BAB71600405B0BA040AE052041000000800000A04002009675E06B1E000000FFFF0100E84F1F0078411E0000000200E84F1F0078411E00010000000100000096750000000000000000803F000000000000803F0000008000000000000000400000A0400000A0400200000000800000A040
1004
A4EE92D2FF3F9EB9B5BA9EB9B5BAB71600409EB9B53AAE052041000000000000A04002009675B8431E000000FFFF0100E84F1F00584E1F0000000200E84F1F00584E1F0001000000010000009675000000000000000080BF000000000000803F000000000000000000000040000000000000000002000000
1004
00000000A040A4EE92D2FF3F9EB9B5BA9EB9B5BAB71600405B0BA0409EB9B53A000080C0010000C002009675C83F1E000000FFFF0100E84F1F00884D1F0000000200E84F1F00884D1F000100000001000000967500000000000000000000000080BF0000803F0000000000000000000000400000803F0000
1004
00000200000080C0010000C0A4EE92D2FF3F9EB9B5BA9EB9B5BAB71600405B0BA0409EB9B53A000080BF0000803F02009675183E1E000000FFFF0100E84F1F00884D1F0000000200E84F1F00884D1F000100000001000000967500000000000000000000000080BF0000803F000000000000000000000040
1004
0000803F000000000200000080BF0000803FA4EE00D8FF3F00D8FF3F0000A0BAB71600400014004000144040000000000000404002009675F83C1E0000000100FFFFE84F1F00E8131F0000000200E8131F00E84F1F0001000000010000009675000000000000000080BF000000000000803F000000000000
1004
000000000040000000400000000002000000000000004040A4EE00D8FF3F00D8FF3F00EC3F40B71600400014404000144040FFFFFFBE0200003F02009675D0911E0000000100FFFFE84F1F00B84B1F0000000200B84B1F00E84F1F0001000000010000009675000000000000000000000000803F0000803F
1004
00000000000000000000004000002040000040400200FFFFFFBE0200003FA4EE00D8FF3F00EC3F400000A0BAB716004000144040001440400000C0BF0000C03F0200967580931E0000000100FFFFE84F1F0008491F000000020008491F00E84F1F00010000000100000096750000000000000000803F0000
1004
00000000803F000000800000000000000040000040400000C03F02000000C0BF0000C03FA4EE00D8FF3F00D8FF3F0000A0BAFF041041001400409EB9B53A010080C0000040400200967560921E000000FFFF0100E8131F00884D1F0000000200E8131F00884D1F0001000000010000009675000000000000
1004
00000000000080BF00000000000080BF000000000000A04000000040000000000200010080C000004040A4EE00D8FF3F00D8FF3F00EC3F40FF0410410014004000144040FEFF5FC00300604002009675D0FC1E000000FFFF0100E8131F00B84B1F0000000200E8131F00B84B1F0001000000010000009675
1004
000000000000000000000000803F00000000000080BF00000000FFFFAF4000000040000040400200FEFF5FC003006040A4EED4FA0F4100D8FF3F0000A0BAFF0410410014004000144040FEFFBF3F0000904002009675C0FD1E000000FFFF0100E8131F00E8411F0000000200E8131F00E8411F0001000000
1004
FFFFFFFF967500000000803F000000000000000000000000000080BF0000000000001041FFFFFF3F000090400200FEFFBF3F00009040A4EE00D8FF3F00EC3F4000EC3F40FF0410410014404000144040FEFFDFC00000A0350200967520FF1E000000FFFF0100B84B1F0008491F0000000200B84B1F000849
1004
1F00010000000100000096750000000000000000803F0000000000000000000000000000803FFFFF0F4100004040000040400200FEFFDFC00000A035A4EED4FA0F4100D8FF3F00EC3F40FF0410410014404000144040FFFF7F3F0000004002009675F0FF1E000000FFFF0100B84B1F00E8411F0000000200
1004
B84B1F00E8411F0001000000FFFFFFFF967500000000803F000000000000000000000080000000000000803F0000104100008040000040400200FFFF7F3F00000040A4EE00D8FF3F00EC3F400000A0BAFF041041001440409EB9B53AFFFFCFC00C00003F02009675E0001F000000FFFF010008491F00884D
1004
1F000000020008491F00884D1F000100000001000000967500000000000000000000000080BF000000000000803F00000000FFFF074100004040000000000200FFFFCFC00C00003FA4EED4FA0F4100EC3F400000A0BAFF04104100144040001440400000C0C0000040C002009675D0011F000000FFFF0100
1004
08491F00E8411F000000020008491F00E8411F0001000000FFFFFFFF967500000000803F0000000000000000000000000000803F0000000000001041000040400000C04002000000C0C0000040C0A4EEA9F5FF40A4F49F40D4FA0F412C051041570AA0402B0510410300C0BF020000BF02009675C0021F00
1004
00000100FFFF50471F0078411E000000020078411E0050471F0001000000FFFFFFFF96750000000000000000803F0000000000000000000000000000803F000018410000A0400000104102000300C0BF020000BFA4EED4FA0F415A81A5BAD4FA0F412C051041570AA0402B051041000000000000A0400200
1004
967510041F0000000100FFFF50471F00E8411F0000000200E8411F0050471F00FFFFFFFFFFFFFFFF967500000000803F000000000000000000000000000000000000803F000010410000A040000010410200000000000000A040A4EEA9F5FF405A81A5BAD4FA0F41AE050041570AA0402B051041000020C0
1004
000020400200967500051F0000000100FFFF50471F0020F31E000000020020F31E0050471F0001000000FFFFFFFF96750000000080BF000000000000000000000000000000000000803F0000004100002040000010410200000020C000002040A4EEA9F5FF405A81A5BAD4FA0F412C0510419EB9B53A2B05
1004
1041020000BF0200003F02009675F0051F0000000100FFFF50471F00584E1F0000000200584E1F0050471F0001000000FFFFFFFF9675000000000000000080BF0000000000000000000000000000803F0000084100000000000010410200020000BF0200003FA4EED4FA0F41A4F49F405A81A5BA2C051041
1004
570AA0402B0510410200003F0000184102009675E0061F0000000100FFFFE8411F0078411E000000020078411E00E8411F0001000000FFFFFFFF96750000000000000000803F000000000000803F0000008000000000000010410000A0400000184102000200003F00001841A4EED4FA0F415A81A5BA5A81
1004
A5BA2C0510419EB9B53A2B051041000090C00000904002009675D0071F0000000100FFFFE8411F00584E1F0000000200584E1F00E8411F0001000000FFFFFFFF9675000000000000000080BF000000000000803F00000000000000000000104100000000000090400200000090C000009040A4EED4FA0F41
1004
5A81A5BA5A81A5BA2C051041570AA0409EB9B53A000020C0020000BF02009675C0081F0000000100FFFFE8411F00884D1F0000000200884D1F00E8411F0001000000FFFFFFFF967500000000000000000000000080BF0000803F00000000000000000000104100002040000000000200000020C0020000BF
1004
A4EED4FA0F415A81A5BA5A81A5BA2C051041570AA0409EB9B53AFFFFFF3E0000204002009675B0091F0000000100FFFFE8411F00884D1F0000000200884D1F00E8411F0001000000FFFFFFFF967500000000000000000000000080BF0000803F00000000000000000000104100002040000000000200FFFF
1004
FF3E00002040A4EE9EB9B5BAA4F49F409EB9B5BAAE0520415B0BA0409EB9B53A020080BF000020B50200967588D21D000000FFFF0100884D1F0078411E0000000200884D1F0078411E00010000000100000096750000000000000000803F000000000000000000000000000080BF000010410000A0400000
1004
00000200020080BF000020B5A4EE9EB9B5BAA4F49F409EB9B5BAAE0520415B0BA0409EB9B53A0000E040000010410200967578D31D000000FFFF0100884D1F0078411E0000000200884D1F0078411E00010000000100000096750000000000000000803F000000000000000000000000000080BF00001041
1004
0000A0400000000002000000E04000001041A4EE52FA1F419EB9B5BA9EB9B5BAAE0520415B0BA0409EB9B53A000020C0000020400200967568D41D000000FFFF0100884D1F00E8401E0000000200884D1F00E8401E000100000001000000967500000000803F000000000000000000000000000000000000
1004
80BF0000204100002040000000000200000020C000002040A4EE9EB9B5BA9EB9B5BA9EB9B5BAAE0520419EB9B53A9EB9B53A000000C10000C0C00200967558D51D000000FFFF0100884D1F00584E1F0000000200884D1F00584E1F0001000000010000009675000000000000000080BF0000000000000000
1004
00000000000080BF0000004100000000000000000200000000C10000C0C0A4EE9EB9B5BA9EB9B5BA9EB9B5BAAE0520419EB9B53A9EB9B53A0200803FFFFFFF3F0200967548D61D000000FFFF0100884D1F00584E1F0000000200884D1F00584E1F0001000000010000009675000000000000000080BF0000
1004
00000000000000000000000080BF00000041000000000000000002000200803FFFFFFF3FA4EE9EB9B5BA9EB9B5BA52FA1F41AE0520419EB9B53AAE052041000010C1FFFFFFC00200967538D71D000000FFFF0100584E1F0028EC1D0000000200584E1F0028EC1D0001000000010000009675000000000000
1004
000000000000803F00000000000080BF000000000000104100000000000020410200000010C1FFFFFFC0A4EE9EB9B5BA9EB9B5BA52FA1F41AE0520419EB9B53AAE052041FAFF7FBF0200803F0200967528D81D000000FFFF0100584E1F0028EC1D0000000200584E1F0028EC1D0001000000010000009675
1004
000000000000000000000000803F00000000000080BF000000000000104100000000000020410200FAFF7FBF0200803FA4EEA5F4FF409EB9B5BA9EB9B5BAAE0500419EB9B53AAE05204100001041000020410200967518D91D000000FFFF0100584E1F0020F31E0000000200584E1F0020F31E0001000000
1004
0100000096750000000080BF000000000000000000000000000080BF0000000000000041000000000000000002000000104100002041A4EE52FA1F419EB9B5BA9EB9B5BAAE0520419EB9B53AAE0520410000A0C00000A0400200967508DA1D000000FFFF0100584E1F00E8401E0000000200584E1F00E840
1004
1E000100000001000000967500000000803F000000000000000000000000000080BF0000000000002041000000000000A04002000000A0C00000A040A4EEA5F4FF409EB9B5BA52FA1F41AE0500415B0BA040AE052041000020C00000204002009675E8A21D000000FFFF010020F31E0028EC1D0000000200
1004
20F31E0028EC1D0001000000010000009675000000000000000000000000803F000080BF00000000000000000000004100002040000020410200000020C000002040A4EEA5F4FF40A4F49F409EB9B5BAAE0500415B0BA040AE052041FFFF7F400000A04002009675D8A31D000000FFFF010020F31E007841
1004
1E000000020020F31E0078411E00010000000100000096750000000000000000803F00000000000080BF0000000000000000000000410000A0400000A0400200FFFF7F400000A040A4EE9EB9B5BAA4F49F4052FA1F41AE0520415B0BA040AE052041000020C1000010C102009675C8A41D000000FFFF0100
1004
28EC1D0078411E000000020028EC1D0078411E00010000000100000096750000000000000000803F0000000000000000000000000000803F000020410000A040000020410200000020C1000010C1A4EE9EB9B5BAA4F49F4052FA1F41AE0520415B0BA040AE052041FFFFFFBF0000008002009675B8A51D00
1004
0000FFFF010028EC1D0078411E000000020028EC1D0078411E00010000000100000096750000000000000000803F0000000000000000000000000000803F000020410000A040000020410200FFFFFFBF00000080A4EE52FA1F419EB9B5BA52FA1F41AE0520415B0BA040AE052041000000000000A0400200
1004
9675A8A61D000000FFFF010028EC1D00E8401E000000020028EC1D00E8401E000100000001000000967500000000803F000000000000000000000080000000000000803F000020410000A040000020410200000000000000A040A4EE52FA1F41A4F49F409EB9B5BAAE0520415B0BA040AE052041000020C1
1004
000000800200967598A71D000000FFFF010078411E00E8401E000000020078411E00E8401E000100000001000000967500000000803F0000000000000000000000000000803F00000000000020410000A040000020410200000020C10000008019FC
1005
C2
  0
INSERT
  8
AME_FRZ
  5
C2
  2
AME_NIL
 10
1.0
 20
1.0
 30
1.0
1001
AME_SOL
1004

1005
0
  0
INSERT
  8
AME_FRZ
  5
17F
  2
*U9
 10
0.0
 20
0.0
 30
0.0
  0
INSERT
  8
AME_FRZ
  5
183
  2
AME_MAT
 10
0.0
 20
0.0
 30
0.0
1001
AME_SOL
1000
MILD_STEEL
1040
7860.0
1040
220.0
1040
0.275
1040
207.0
1040
345.0
1040
56.0
1040
12.0
1040
0.46
  0
ENDSEC
  0
EOF
