106 0 1 0           
body $-1 $1 $-1 $-1 #
lump $-1 $-1 $2 $0 #
shell $-1 $-1 $-1 $3 $1 #
face $-1 $4 $5 $2 $-1 $6 forward single #
face $-1 $7 $8 $2 $-1 $9 reversed single #
loop $-1 $-1 $10 $3 #
plane-surface $-1 20 0 0 1 0 0 0 0 -1 0 I I I I #
face $-1 $11 $12 $2 $-1 $13 reversed single #
loop $-1 $-1 $14 $4 #
plane-surface $-1 0 0 -20 0 0 1 1 0 0 0 I I I I #
coedge $-1 $15 $16 $17 $18 1 $5 $-1 #
face $-1 $19 $20 $2 $-1 $21 forward single #
loop $-1 $-1 $22 $7 #
plane-surface $-1 40 0 0 -1 0 0 0 0 1 0 I I I I #
coedge $-1 $23 $24 $25 $26 0 $8 $-1 #
coedge $-1 $27 $10 $28 $29 0 $5 $-1 #
coedge $-1 $10 $27 $30 $31 1 $5 $-1 #
coedge $-1 $32 $33 $10 $18 0 $34 $-1 #
edge $-1 $35 $36 $17 $37 0 #
face $-1 $38 $34 $2 $-1 $39 forward single #
loop $-1 $-1 $40 $11 #
plane-surface $-1 0 -20 10 0 1 0 0 0 1 0 I I I I #
coedge $-1 $41 $42 $43 $44 0 $12 $-1 #
coedge $-1 $45 $14 $27 $46 0 $8 $-1 #
coedge $-1 $14 $47 $48 $49 0 $8 $-1 #
coedge $-1 $50 $30 $14 $26 1 $51 $-1 #
edge $-1 $52 $53 $14 $54 0 #
coedge $-1 $16 $15 $23 $46 1 $5 $-1 #
coedge $-1 $40 $55 $15 $29 1 $20 $-1 #
edge $-1 $35 $56 $15 $57 0 #
coedge $-1 $25 $58 $16 $31 0 $51 $-1 #
edge $-1 $36 $53 $30 $59 0 #
coedge $-1 $60 $17 $58 $61 1 $34 $-1 #
coedge $-1 $17 $60 $40 $62 1 $34 $-1 #
loop $-1 $-1 $17 $19 #
vertex $-1 $62 $63 #
vertex $-1 $61 $64 #
straight-curve $-1 20 0 0 0 1 0 I I #
face $-1 $65 $51 $2 $-1 $66 forward single #
plane-surface $-1 0 0 0 0 0 1 1 0 0 0 I I I I #
coedge $-1 $67 $28 $33 $62 0 $20 $-1 #
coedge $-1 $68 $22 $69 $70 1 $12 $-1 #
coedge $-1 $22 $68 $71 $72 1 $12 $-1 #
coedge $-1 $55 $73 $22 $44 1 $20 $-1 #
edge $-1 $74 $75 $22 $76 0 #
coedge $-1 $71 $23 $55 $77 0 $8 $-1 #
edge $-1 $53 $56 $23 $78 0 #
coedge $-1 $24 $79 $80 $81 0 $8 $-1 #
coedge $-1 $82 $83 $24 $49 1 $84 $-1 #
edge $-1 $85 $52 $48 $86 0 #
coedge $-1 $87 $25 $83 $88 1 $51 $-1 #
loop $-1 $-1 $87 $38 #
vertex $-1 $49 $89 #
vertex $-1 $46 $90 #
straight-curve $-1 15 20 -20 -1 0 0 I I #
coedge $-1 $28 $43 $45 $77 1 $20 $-1 #
vertex $-1 $77 $91 #
straight-curve $-1 20 -20 0 0 0 -1 I I #
coedge $-1 $30 $92 $32 $61 0 $51 $-1 #
straight-curve $-1 20 20 0 0 0 -1 I I #
coedge $-1 $33 $32 $93 $94 1 $34 $-1 #
edge $-1 $95 $36 $58 $96 0 #
edge $-1 $35 $97 $40 $98 0 #
point $-1 20 -20 0 #
point $-1 20 20 0 #
face $-1 $99 $100 $2 $-1 $101 reversed single #
plane-surface $-1 0 20 10 0 -1 0 0 0 -1 0 I I I I #
coedge $-1 $73 $40 $102 $103 1 $20 $-1 #
coedge $-1 $42 $41 $104 $105 0 $12 $-1 #
coedge $-1 $106 $107 $41 $70 0 $108 $-1 #
edge $-1 $109 $75 $41 $110 0 #
coedge $-1 $111 $45 $42 $72 0 $8 $-1 #
edge $-1 $74 $112 $42 $86 0 #
coedge $-1 $43 $67 $106 $113 1 $20 $-1 #
vertex $-1 $44 $114 #
vertex $-1 $70 $115 #
straight-curve $-1 40 -20 0 0 0 1 I I #
edge $-1 $56 $74 $45 $116 0 #
straight-curve $-1 20 0 -20 0 -1 0 I I #
coedge $-1 $47 $111 $117 $118 0 $8 $-1 #
coedge $-1 $119 $120 $47 $81 1 $121 $-1 #
edge $-1 $122 $85 $80 $123 0 #
coedge $-1 $124 $48 $120 $125 1 $84 $-1 #
coedge $-1 $48 $124 $50 $88 0 $84 $-1 #
loop $-1 $-1 $83 $126 #
vertex $-1 $49 $127 #
straight-curve $-1 40 0 -20 0 -1 0 I I #
coedge $-1 $92 $50 $128 $129 1 $51 $-1 #
edge $-1 $130 $52 $83 $131 0 #
point $-1 40 20 -20 #
point $-1 20 20 -20 #
point $-1 20 -20 -20 #
coedge $-1 $58 $87 $132 $133 1 $51 $-1 #
coedge $-1 $132 $102 $60 $94 0 $100 $-1 #
edge $-1 $97 $95 $93 $134 0 #
vertex $-1 $94 $135 #
straight-curve $-1 0 20 0 1 0 0 I I #
vertex $-1 $94 $136 #
straight-curve $-1 0 -20 0 -1 0 0 I I #
face $-1 $137 $138 $2 $-1 $139 forward single #
loop $-1 $-1 $102 $65 #
plane-surface $-1 -40 0 0 1 0 0 0 0 -1 0 I I I I #
coedge $-1 $93 $140 $67 $103 0 $100 $-1 #
edge $-1 $141 $97 $102 $142 0 #
coedge $-1 $143 $144 $68 $105 1 $145 $-1 #
edge $-1 $109 $112 $68 $146 0 #
coedge $-1 $147 $69 $73 $113 0 $108 $-1 #
coedge $-1 $69 $147 $143 $148 0 $108 $-1 #
loop $-1 $-1 $106 $137 #
vertex $-1 $70 $149 #
straight-curve $-1 40 0 20 0 1 0 I I #
coedge $-1 $79 $71 $144 $150 0 $8 $-1 #
vertex $-1 $105 $151 #
edge $-1 $75 $141 $106 $152 0 #
point $-1 40 -20 -20 #
point $-1 40 -20 20 #
straight-curve $-1 15 -20 -20 1 0 0 I I #
coedge $-1 $153 $154 $79 $118 1 $100 $-1 #
edge $-1 $155 $122 $117 $156 0 #
coedge $-1 $157 $80 $154 $158 1 $121 $-1 #
coedge $-1 $80 $157 $82 $125 0 $121 $-1 #
loop $-1 $-1 $120 $159 #
vertex $-1 $81 $160 #
straight-curve $-1 0 40 -20 1 0 0 I I #
coedge $-1 $83 $82 $161 $162 1 $84 $-1 #
edge $-1 $163 $85 $82 $164 0 #
face $-1 $-1 $84 $2 $-1 $13 reversed single #
point $-1 40 40 -20 #
coedge $-1 $161 $165 $87 $129 0 $138 $-1 #
edge $-1 $166 $130 $128 $167 0 #
vertex $-1 $88 $168 #
straight-curve $-1 40 20 0 0 0 -1 I I #
coedge $-1 $169 $93 $92 $133 0 $100 $-1 #
edge $-1 $95 $166 $132 $170 0 #
straight-curve $-1 -40 0 0 0 1 0 I I #
point $-1 -40 20 0 #
point $-1 -40 -20 0 #
face $-1 $171 $108 $2 $-1 $139 forward single #
loop $-1 $-1 $128 $99 #
plane-surface $-1 0 0 20 0 0 1 1 0 0 0 I I I I #
coedge $-1 $102 $153 $147 $172 1 $100 $-1 #
vertex $-1 $113 $173 #
straight-curve $-1 -40 -20 5 0 0 -1 I I #
coedge $-1 $174 $104 $107 $148 1 $145 $-1 #
coedge $-1 $104 $174 $111 $150 1 $145 $-1 #
loop $-1 $-1 $174 $171 #
straight-curve $-1 40 -40 0 0 0 -1 I I #
coedge $-1 $107 $106 $140 $172 0 $108 $-1 #
edge $-1 $175 $109 $143 $176 0 #
point $-1 40 -40 20 #
edge $-1 $112 $155 $144 $177 0 #
point $-1 40 -40 -20 #
straight-curve $-1 0 -20 20 -1 0 0 I I #
coedge $-1 $140 $117 $174 $178 1 $100 $-1 #
coedge $-1 $117 $169 $119 $158 0 $100 $-1 #
vertex $-1 $118 $179 #
straight-curve $-1 -40 0 -20 0 1 0 I I #
coedge $-1 $120 $119 $180 $181 1 $121 $-1 #
edge $-1 $182 $122 $119 $183 0 #
face $-1 $126 $121 $2 $-1 $184 reversed single #
point $-1 -40 40 -20 #
coedge $-1 $180 $128 $124 $162 0 $138 $-1 #
edge $-1 $130 $163 $124 $110 0 #
vertex $-1 $162 $185 #
straight-curve $-1 40 40 0 0 0 -1 I I #
coedge $-1 $128 $180 $169 $186 0 $138 $-1 #
vertex $-1 $186 $187 #
straight-curve $-1 0 20 20 1 0 0 I I #
point $-1 40 20 20 #
coedge $-1 $154 $132 $165 $186 1 $100 $-1 #
straight-curve $-1 -40 20 5 0 0 1 I I #
face $-1 $159 $145 $2 $-1 $188 reversed single #
edge $-1 $141 $175 $140 $189 0 #
point $-1 -40 -20 20 #
coedge $-1 $144 $143 $153 $178 0 $145 $-1 #
vertex $-1 $172 $190 #
straight-curve $-1 0 -40 20 1 0 0 I I #
straight-curve $-1 0 -40 -20 -1 0 0 I I #
edge $-1 $175 $155 $153 $191 0 #
point $-1 -40 -40 -20 #
coedge $-1 $165 $161 $157 $181 0 $138 $-1 #
edge $-1 $163 $182 $157 $192 0 #
vertex $-1 $181 $193 #
straight-curve $-1 -40 40 0 0 0 -1 I I #
plane-surface $-1 0 40 0 0 -1 0 0 0 -1 0 I I I I #
point $-1 40 40 20 #
edge $-1 $182 $166 $169 $189 0 #
point $-1 -40 20 20 #
plane-surface $-1 0 -40 0 0 1 0 0 0 1 0 I I I I #
straight-curve $-1 -40 0 20 0 -1 0 I I #
point $-1 -40 -40 20 #
straight-curve $-1 -40 -40 0 0 0 -1 I I #
straight-curve $-1 0 40 20 -1 0 0 I I #
point $-1 -40 40 20 #
End-of-ACIS-data 