700 0 2 0           
24 FBMach with ACIS - 7.0.3 13 ACIS 7.0.3 NT 24 Tue May 14 09:19:36 2002 
1 9.9999999999999995e-007 1e-010 
body $2 -1 $-1 $3 $-1 $4 #
bdycol-kcp $-1 -1 1 3 $5 $6 $7 #
model_id-kcp-attrib $-1 -1 $-1 $-1 $0 1 1021382376 1021382376 2108620801 1 #
lump $-1 -1 $-1 $-1 $8 $0 #
transform $-1 -1 1 0 0 0 1 0 0 0 1 0 0 0 1 rotate no_reflect no_shear #
body $9 -1 $-1 $10 $-1 $11 #
body $12 -1 $-1 $13 $-1 $14 #
body $15 -1 $-1 $16 $-1 $17 #
shell $-1 -1 $-1 $-1 $-1 $18 $-1 $3 #
rgb_color-st-attrib $-1 -1 $19 $-1 $5 1 0 0 #
lump $-1 -1 $-1 $-1 $20 $5 #
transform $-1 -1 1 0 0 0 1 0 0 0 1 -10 0 120 1 no_rotate no_reflect no_shear #
model_id-kcp-attrib $-1 -1 $-1 $-1 $6 1 1021382376 1021382376 2108620802 1 #
lump $-1 -1 $-1 $-1 $21 $6 #
transform $-1 -1 1 0 0 0 1 0 0 0 1 0 0 0 1 no_rotate no_reflect no_shear #
rgb_color-st-attrib $-1 -1 $22 $-1 $7 1 0 0 #
lump $-1 -1 $-1 $-1 $23 $7 #
transform $-1 -1 1 0 0 0 1 0 0 0 1 0 0 0 1 no_rotate no_reflect no_shear #
face $24 -1 $-1 $25 $26 $8 $-1 $27 forward single #
model_id-kcp-attrib $-1 -1 $-1 $9 $5 1 1021382376 1021382376 2104360963 1 #
shell $-1 -1 $-1 $-1 $-1 $28 $-1 $10 #
shell $-1 -1 $-1 $-1 $-1 $29 $-1 $13 #
model_id-kcp-attrib $-1 -1 $-1 $15 $7 1 1021382376 1021382376 2112880644 1 #
shell $-1 -1 $-1 $-1 $-1 $30 $-1 $16 #
model_id-kcp-attrib $-1 -1 $-1 $-1 $18 1 1021382376 1021382376 2108620801 2 #
face $31 -1 $-1 $32 $33 $8 $-1 $34 reversed single #
loop $-1 -1 $-1 $-1 $35 $18 #
plane-surface $-1 -1 $-1 20 0 0 1 0 0 0 0 -1 forward_v I I I I #
face $-1 -1 $-1 $36 $37 $20 $-1 $38 reversed single #
face $39 -1 $-1 $40 $41 $21 $-1 $42 forward single #
face $-1 -1 $-1 $43 $44 $23 $-1 $45 forward single #
model_id-kcp-attrib $-1 -1 $-1 $-1 $25 1 1021382376 1021382376 2108620801 3 #
face $46 -1 $-1 $47 $48 $8 $-1 $49 reversed single #
loop $-1 -1 $-1 $-1 $50 $25 #
plane-surface $-1 -1 $-1 0 0 -20 0 0 1 1 0 0 forward_v I I I I #
coedge $-1 -1 $-1 $51 $52 $53 $54 reversed $26 $-1 #
face $-1 -1 $-1 $55 $56 $20 $-1 $57 forward single #
loop $-1 -1 $-1 $-1 $58 $28 #
plane-surface $-1 -1 $-1 -30 0 -120 1 0 0 0 0 -1 forward_v I I I I #
model_id-kcp-attrib $-1 -1 $-1 $-1 $29 1 1021382376 1021382376 2108620802 5 #
face $59 -1 $-1 $60 $61 $21 $-1 $62 reversed single #
loop $-1 -1 $-1 $-1 $63 $29 #
plane-surface $-1 -1 $-1 0 0 20 0 0 1 1 0 0 forward_v I I I I #
face $-1 -1 $-1 $64 $65 $23 $-1 $66 forward single #
loop $-1 -1 $-1 $-1 $67 $30 #
plane-surface $-1 -1 $-1 20 -20 0 0 0 1 1 0 0 forward_v I I I I #
model_id-kcp-attrib $-1 -1 $-1 $-1 $32 1 1021382376 1021382376 2108620801 4 #
face $68 -1 $-1 $69 $70 $8 $-1 $71 forward single #
loop $-1 -1 $-1 $-1 $72 $32 #
plane-surface $-1 -1 $-1 40 0 0 -1 0 0 0 0 1 forward_v I I I I #
coedge $-1 -1 $-1 $73 $74 $75 $76 forward $33 $-1 #
coedge $-1 -1 $-1 $77 $35 $78 $79 forward $26 $-1 #
coedge $-1 -1 $-1 $35 $77 $80 $81 reversed $26 $-1 #
coedge $-1 -1 $-1 $82 $83 $35 $54 forward $84 $-1 #
edge $85 -1 $-1 $86 -20 $87 20 $53 $88 forward @7 unknown #
face $-1 -1 $-1 $89 $90 $20 $-1 $91 reversed single #
loop $-1 -1 $-1 $-1 $92 $36 #
plane-surface $-1 -1 $-1 10 0 -100 0 0 1 1 0 0 forward_v I I I I #
coedge $-1 -1 $-1 $93 $94 $95 $96 forward $37 $-1 #
model_id-kcp-attrib $-1 -1 $-1 $-1 $40 1 1021382376 1021382376 2108620802 2 #
face $97 -1 $-1 $98 $99 $21 $-1 $100 reversed single #
loop $-1 -1 $-1 $-1 $101 $40 #
plane-surface $-1 -1 $-1 0 0 -20 0 0 1 1 0 0 forward_v I I I I #
coedge $-1 -1 $-1 $102 $103 $104 $105 forward $41 $-1 #
face $-1 -1 $-1 $106 $107 $23 $-1 $108 forward single #
loop $-1 -1 $-1 $-1 $109 $43 #
plane-surface $-1 -1 $-1 20 20 0 0 1 0 0 0 1 forward_v I I I I #
coedge $-1 -1 $-1 $110 $111 $112 $113 forward $44 $-1 #
model_id-kcp-attrib $-1 -1 $-1 $-1 $47 1 1021382376 1021382376 2108620801 5 #
face $114 -1 $-1 $115 $84 $8 $-1 $116 forward single #
loop $-1 -1 $-1 $-1 $117 $47 #
plane-surface $-1 -1 $-1 0 -20 10 0 1 0 0 0 1 forward_v I I I I #
coedge $-1 -1 $-1 $118 $119 $120 $121 forward $48 $-1 #
coedge $-1 -1 $-1 $122 $50 $77 $123 forward $33 $-1 #
coedge $-1 -1 $-1 $50 $124 $125 $126 forward $33 $-1 #
coedge $-1 -1 $-1 $127 $80 $50 $76 reversed $128 $-1 #
edge $129 -1 $-1 $130 -25 $131 -5 $50 $132 forward @7 unknown #
coedge $-1 -1 $-1 $52 $51 $73 $123 reversed $26 $-1 #
coedge $-1 -1 $-1 $117 $133 $51 $79 reversed $70 $-1 #
edge $134 -1 $-1 $86 0 $135 20 $51 $136 forward @7 unknown #
coedge $-1 -1 $-1 $75 $137 $52 $81 forward $128 $-1 #
edge $138 -1 $-1 $87 0 $131 20 $80 $139 forward @7 unknown #
coedge $-1 -1 $-1 $140 $53 $137 $141 reversed $84 $-1 #
coedge $-1 -1 $-1 $53 $140 $117 $142 reversed $84 $-1 #
loop $-1 -1 $-1 $-1 $53 $69 #
attrib_edge_convexity-kcp-attrib $-1 -1 $143 $-1 $54 1 #
vertex $-1 -1 $-1 $142 $144 #
vertex $-1 -1 $-1 $141 $145 #
straight-curve $-1 -1 $-1 20 0 0 0 1 0 I I #
face $-1 -1 $-1 $146 $147 $20 $-1 $148 reversed single #
loop $-1 -1 $-1 $-1 $149 $55 #
plane-surface $-1 -1 $-1 50 0 -120 -1 0 0 0 0 1 forward_v I I I I #
coedge $-1 -1 $-1 $150 $151 $152 $153 forward $56 $-1 #
coedge $-1 -1 $-1 $154 $58 $155 $156 forward $37 $-1 #
coedge $-1 -1 $-1 $58 $154 $150 $157 reversed $37 $-1 #
coedge $-1 -1 $-1 $152 $158 $58 $96 reversed $159 $-1 #
edge $-1 -1 $-1 $160 40 $161 60 $95 $162 forward @7 unknown #
model_id-kcp-attrib $-1 -1 $-1 $-1 $60 1 1021382376 1021382376 2108620802 7 #
face $163 -1 $-1 $164 $165 $21 $-1 $166 reversed single #
loop $-1 -1 $-1 $-1 $167 $60 #
plane-surface $-1 -1 $-1 0 -40 0 0 1 0 0 0 1 forward_v I I I I #
coedge $-1 -1 $-1 $168 $169 $170 $171 forward $61 $-1 #
coedge $-1 -1 $-1 $172 $63 $173 $174 forward $41 $-1 #
coedge $-1 -1 $-1 $63 $172 $175 $176 forward $41 $-1 #
coedge $-1 -1 $-1 $177 $178 $63 $105 reversed $179 $-1 #
edge $-1 -1 $-1 $180 -40 $181 40 $104 $182 forward @7 unknown #
face $-1 -1 $-1 $183 $184 $23 $-1 $185 forward single #
loop $-1 -1 $-1 $-1 $186 $64 #
plane-surface $-1 -1 $-1 20 20 -20 0 0 -1 -1 0 0 forward_v I I I I #
coedge $-1 -1 $-1 $187 $188 $189 $190 forward $65 $-1 #
coedge $-1 -1 $-1 $191 $67 $188 $192 reversed $44 $-1 #
coedge $-1 -1 $-1 $67 $191 $193 $194 forward $44 $-1 #
coedge $-1 -1 $-1 $195 $189 $67 $113 reversed $196 $-1 #
edge $-1 -1 $-1 $197 -20 $198 20 $67 $199 forward @7 unknown #
model_id-kcp-attrib $-1 -1 $-1 $-1 $69 1 1021382376 1021382376 2108620801 6 #
face $200 -1 $-1 $201 $128 $8 $-1 $202 forward single #
plane-surface $-1 -1 $-1 0 0 0 0 0 1 1 0 0 forward_v I I I I #
coedge $-1 -1 $-1 $203 $78 $83 $142 forward $70 $-1 #
coedge $-1 -1 $-1 $204 $72 $205 $206 reversed $48 $-1 #
coedge $-1 -1 $-1 $72 $204 $207 $208 reversed $48 $-1 #
coedge $-1 -1 $-1 $133 $209 $72 $121 reversed $70 $-1 #
edge $210 -1 $-1 $211 -20 $212 20 $72 $213 forward @7 unknown #
coedge $-1 -1 $-1 $207 $73 $133 $214 forward $33 $-1 #
edge $215 -1 $-1 $131 -20 $135 20 $73 $216 forward @7 unknown #
coedge $-1 -1 $-1 $74 $217 $218 $219 forward $33 $-1 #
coedge $-1 -1 $-1 $220 $221 $74 $126 reversed $222 $-1 #
edge $223 -1 $-1 $224 -40 $130 -20 $125 $225 forward @7 unknown #
coedge $-1 -1 $-1 $226 $75 $221 $227 reversed $128 $-1 #
loop $-1 -1 $-1 $-1 $226 $115 #
attrib_edge_convexity-kcp-attrib $-1 -1 $228 $-1 $76 1 #
vertex $-1 -1 $-1 $126 $229 #
vertex $-1 -1 $-1 $123 $230 #
straight-curve $-1 -1 $-1 15 20 -20 -1 0 0 I I #
coedge $-1 -1 $-1 $78 $120 $122 $214 reversed $70 $-1 #
attrib_edge_convexity-kcp-attrib $-1 -1 $231 $-1 $79 2 #
vertex $-1 -1 $-1 $214 $232 #
straight-curve $-1 -1 $-1 20 -20 0 0 0 -1 I I #
coedge $-1 -1 $-1 $80 $233 $82 $141 forward $128 $-1 #
attrib_edge_convexity-kcp-attrib $-1 -1 $234 $-1 $81 2 #
straight-curve $-1 -1 $-1 20 20 0 0 0 -1 I I #
coedge $-1 -1 $-1 $83 $82 $235 $236 reversed $84 $-1 #
edge $237 -1 $-1 $238 -40 $87 20 $137 $239 forward @7 unknown #
edge $240 -1 $-1 $86 -20 $241 40 $117 $242 forward @7 unknown #
convexity-sys-attrib $-1 -1 $-1 $85 $54 #
point $-1 -1 $-1 20 -20 0 #
point $-1 -1 $-1 20 20 0 #
face $-1 -1 $-1 $243 $244 $20 $-1 $245 reversed single #
loop $-1 -1 $-1 $-1 $246 $89 #
plane-surface $-1 -1 $-1 0 0 -120 0 0 1 1 0 0 forward_v I I I I #
coedge $-1 -1 $-1 $247 $248 $249 $250 forward $90 $-1 #
coedge $-1 -1 $-1 $251 $92 $94 $157 forward $56 $-1 #
coedge $-1 -1 $-1 $92 $251 $247 $252 forward $56 $-1 #
coedge $-1 -1 $-1 $249 $95 $92 $153 reversed $159 $-1 #
edge $-1 -1 $-1 $253 -45 $160 35 $152 $254 forward @7 unknown #
coedge $-1 -1 $-1 $94 $93 $255 $256 forward $37 $-1 #
coedge $-1 -1 $-1 $257 $258 $93 $156 reversed $147 $-1 #
edge $259 -1 $-1 $161 -20 $260 20 $155 $261 forward @7 unknown #
edge $-1 -1 $-1 $160 -20 $262 20 $94 $263 forward @7 unknown #
coedge $-1 -1 $-1 $95 $249 $257 $264 reversed $159 $-1 #
loop $-1 -1 $-1 $-1 $249 $243 #
vertex $-1 -1 $-1 $96 $265 #
vertex $-1 -1 $-1 $264 $266 #
straight-curve $-1 -1 $-1 -30 20 -60 0 0 -1 I I #
model_id-kcp-attrib $-1 -1 $-1 $-1 $98 1 1021382376 1021382376 2108620802 4 #
face $267 -1 $-1 $268 $269 $21 $-1 $270 reversed single #
loop $-1 -1 $-1 $-1 $271 $98 #
plane-surface $-1 -1 $-1 -40 0 0 1 0 0 0 0 -1 forward_v I I I I #
coedge $-1 -1 $-1 $272 $175 $273 $274 forward $99 $-1 #
coedge $-1 -1 $-1 $275 $101 $272 $276 forward $61 $-1 #
coedge $-1 -1 $-1 $101 $275 $277 $278 forward $61 $-1 #
coedge $-1 -1 $-1 $178 $177 $101 $171 reversed $179 $-1 #
edge $-1 -1 $-1 $279 -40 $280 40 $170 $281 forward @7 unknown #
coedge $-1 -1 $-1 $103 $102 $282 $283 forward $41 $-1 #
coedge $-1 -1 $-1 $284 $285 $102 $174 reversed $269 $-1 #
edge $-1 -1 $-1 $181 -40 $286 40 $173 $287 forward @7 unknown #
coedge $-1 -1 $-1 $167 $288 $103 $176 reversed $99 $-1 #
edge $-1 -1 $-1 $289 -40 $180 40 $175 $290 forward @7 unknown #
coedge $-1 -1 $-1 $170 $104 $288 $291 forward $179 $-1 #
coedge $-1 -1 $-1 $104 $170 $284 $292 reversed $179 $-1 #
loop $-1 -1 $-1 $-1 $177 $268 #
vertex $-1 -1 $-1 $105 $293 #
vertex $-1 -1 $-1 $105 $294 #
straight-curve $-1 -1 $-1 40 0 20 0 1 0 I I #
face $-1 -1 $-1 $295 $196 $23 $-1 $296 forward single #
loop $-1 -1 $-1 $-1 $297 $106 #
plane-surface $-1 -1 $-1 20 -20 -20 0 -1 0 0 0 -1 forward_v I I I I #
coedge $-1 -1 $-1 $298 $299 $300 $301 forward $107 $-1 #
coedge $-1 -1 $-1 $302 $109 $299 $303 reversed $65 $-1 #
coedge $-1 -1 $-1 $109 $302 $110 $192 forward $65 $-1 #
coedge $-1 -1 $-1 $112 $300 $109 $190 reversed $196 $-1 #
edge $-1 -1 $-1 $198 0 $304 20 $109 $305 forward @7 unknown #
coedge $-1 -1 $-1 $111 $110 $306 $307 reversed $44 $-1 #
edge $-1 -1 $-1 $308 0 $198 20 $188 $309 forward @7 unknown #
coedge $-1 -1 $-1 $310 $297 $111 $194 reversed $184 $-1 #
edge $-1 -1 $-1 $311 0 $197 20 $111 $312 forward @7 unknown #
coedge $-1 -1 $-1 $300 $112 $297 $313 reversed $196 $-1 #
loop $-1 -1 $-1 $-1 $112 $183 #
vertex $-1 -1 $-1 $194 $314 #
vertex $-1 -1 $-1 $192 $315 #
straight-curve $-1 -1 $-1 40 0 0 0 1 0 I I #
model_id-kcp-attrib $-1 -1 $-1 $-1 $115 1 1021382376 1021382376 2108620801 7 #
face $316 -1 $-1 $317 $318 $8 $-1 $319 reversed single #
plane-surface $-1 -1 $-1 0 20 10 0 -1 0 0 0 -1 forward_v I I I I #
coedge $-1 -1 $-1 $209 $117 $320 $321 reversed $70 $-1 #
coedge $-1 -1 $-1 $119 $118 $322 $323 forward $48 $-1 #
coedge $-1 -1 $-1 $324 $325 $118 $206 forward $326 $-1 #
edge $327 -1 $-1 $328 -40 $212 -20 $118 $329 forward @7 unknown #
coedge $-1 -1 $-1 $330 $122 $119 $208 forward $33 $-1 #
edge $331 -1 $-1 $211 20 $332 40 $119 $225 forward @7 unknown #
coedge $-1 -1 $-1 $120 $203 $324 $333 reversed $70 $-1 #
attrib_edge_convexity-kcp-attrib $-1 -1 $334 $-1 $121 1 #
vertex $-1 -1 $-1 $121 $335 #
vertex $-1 -1 $-1 $206 $336 #
straight-curve $-1 -1 $-1 40 -20 0 0 0 1 I I #
edge $337 -1 $-1 $135 5 $211 25 $122 $338 forward @7 unknown #
attrib_edge_convexity-kcp-attrib $-1 -1 $339 $-1 $123 1 #
straight-curve $-1 -1 $-1 20 0 -20 0 -1 0 I I #
coedge $-1 -1 $-1 $124 $330 $340 $341 forward $33 $-1 #
coedge $-1 -1 $-1 $342 $343 $124 $219 reversed $344 $-1 #
edge $345 -1 $-1 $346 -40 $224 40 $218 $347 forward @7 unknown #
coedge $-1 -1 $-1 $348 $125 $343 $349 reversed $222 $-1 #
coedge $-1 -1 $-1 $125 $348 $127 $227 forward $222 $-1 #
loop $-1 -1 $-1 $-1 $221 $350 #
attrib_edge_convexity-kcp-attrib $-1 -1 $351 $-1 $126 1 #
vertex $-1 -1 $-1 $126 $352 #
straight-curve $-1 -1 $-1 40 0 -20 0 -1 0 I I #
coedge $-1 -1 $-1 $233 $127 $353 $354 reversed $128 $-1 #
edge $-1 -1 $-1 $355 -20 $130 20 $221 $356 forward @7 unknown #
convexity-sys-attrib $-1 -1 $-1 $129 $76 #
point $-1 -1 $-1 40 20 -20 #
point $-1 -1 $-1 20 20 -20 #
convexity-sys-attrib $-1 -1 $-1 $134 $79 #
point $-1 -1 $-1 20 -20 -20 #
coedge $-1 -1 $-1 $137 $226 $357 $358 reversed $128 $-1 #
convexity-sys-attrib $-1 -1 $-1 $138 $81 #
coedge $-1 -1 $-1 $357 $320 $140 $236 forward $318 $-1 #
edge $359 -1 $-1 $241 -20 $238 20 $235 $360 forward @7 unknown #
attrib_edge_convexity-kcp-attrib $-1 -1 $361 $-1 $141 2 #
vertex $-1 -1 $-1 $236 $362 #
straight-curve $-1 -1 $-1 0 20 0 1 0 0 I I #
attrib_edge_convexity-kcp-attrib $-1 -1 $363 $-1 $142 2 #
vertex $-1 -1 $-1 $236 $364 #
straight-curve $-1 -1 $-1 0 -20 0 -1 0 0 I I #
face $-1 -1 $-1 $-1 $159 $20 $-1 $365 reversed single #
loop $-1 -1 $-1 $-1 $366 $146 #
plane-surface $-1 -1 $-1 0 -20 0 0 1 0 0 0 1 forward_v I I I I #
coedge $-1 -1 $-1 $258 $257 $248 $367 reversed $147 $-1 #
coedge $-1 -1 $-1 $368 $149 $151 $252 reversed $90 $-1 #
coedge $-1 -1 $-1 $149 $368 $246 $367 forward $90 $-1 #
coedge $-1 -1 $-1 $158 $152 $149 $250 reversed $159 $-1 #
edge $-1 -1 $-1 $369 -60 $253 -40 $249 $370 forward @7 unknown #
coedge $-1 -1 $-1 $151 $150 $371 $372 forward $56 $-1 #
edge $-1 -1 $-1 $373 -20 $253 20 $247 $374 forward @7 unknown #
vertex $-1 -1 $-1 $153 $375 #
straight-curve $-1 -1 $-1 5 20 -100 -1 0 0 I I #
coedge $-1 -1 $-1 $376 $371 $154 $256 reversed $244 $-1 #
edge $-1 -1 $-1 $260 -60 $262 -40 $255 $377 forward @7 unknown #
coedge $-1 -1 $-1 $246 $155 $158 $264 forward $147 $-1 #
coedge $-1 -1 $-1 $155 $246 $376 $378 forward $147 $-1 #
convexity-sys-attrib $-1 -1 $-1 $-1 $156 #
vertex $-1 -1 $-1 $156 $379 #
straight-curve $-1 -1 $-1 -30 0 -120 0 -1 0 I I #
vertex $-1 -1 $-1 $256 $380 #
straight-curve $-1 -1 $-1 -30 0 -100 0 -1 0 I I #
edge $381 -1 $-1 $161 -30 $369 50 $158 $382 forward @7 unknown #
point $-1 -1 $-1 -30 20 -100 #
point $-1 -1 $-1 -30 20 -120 #
model_id-kcp-attrib $-1 -1 $-1 $-1 $164 1 1021382376 1021382376 2108620802 8 #
face $383 -1 $-1 $-1 $179 $21 $-1 $384 reversed single #
loop $-1 -1 $-1 $-1 $284 $164 #
plane-surface $-1 -1 $-1 0 40 0 0 -1 0 0 0 -1 forward_v I I I I #
coedge $-1 -1 $-1 $385 $282 $285 $386 forward $165 $-1 #
coedge $-1 -1 $-1 $288 $167 $168 $276 reversed $99 $-1 #
coedge $-1 -1 $-1 $282 $385 $167 $274 reversed $165 $-1 #
edge $-1 -1 $-1 $289 -20 $387 20 $273 $388 forward @7 unknown #
coedge $-1 -1 $-1 $169 $168 $385 $389 forward $61 $-1 #
edge $-1 -1 $-1 $280 -40 $387 40 $272 $390 forward @7 unknown #
coedge $-1 -1 $-1 $285 $284 $169 $278 reversed $269 $-1 #
edge $-1 -1 $-1 $391 -40 $279 40 $277 $392 forward @7 unknown #
vertex $-1 -1 $-1 $171 $393 #
vertex $-1 -1 $-1 $291 $394 #
straight-curve $-1 -1 $-1 40 0 -20 0 -1 0 I I #
coedge $-1 -1 $-1 $271 $273 $172 $283 reversed $165 $-1 #
edge $-1 -1 $-1 $286 -40 $289 40 $282 $395 forward @7 unknown #
coedge $-1 -1 $-1 $277 $173 $178 $292 forward $269 $-1 #
coedge $-1 -1 $-1 $173 $277 $271 $386 reversed $269 $-1 #
vertex $-1 -1 $-1 $174 $396 #
straight-curve $-1 -1 $-1 0 40 20 -1 0 0 I I #
coedge $-1 -1 $-1 $175 $272 $177 $291 reversed $99 $-1 #
vertex $-1 -1 $-1 $283 $397 #
straight-curve $-1 -1 $-1 0 -40 20 1 0 0 I I #
edge $-1 -1 $-1 $180 -20 $280 20 $177 $398 forward @7 unknown #
edge $-1 -1 $-1 $181 -20 $279 20 $178 $399 forward @7 unknown #
point $-1 -1 $-1 40 -40 20 #
point $-1 -1 $-1 40 40 20 #
face $-1 -1 $-1 $-1 $400 $23 $-1 $401 reversed single #
plane-surface $-1 -1 $-1 40 0 -9.9999999999999982 1 0 0 0 0 -1 forward_v I I I I #
coedge $-1 -1 $-1 $193 $402 $195 $313 forward $184 $-1 #
coedge $-1 -1 $-1 $403 $186 $402 $404 reversed $107 $-1 #
coedge $-1 -1 $-1 $186 $403 $187 $303 forward $107 $-1 #
coedge $-1 -1 $-1 $189 $195 $186 $301 reversed $196 $-1 #
edge $-1 -1 $-1 $304 -20 $405 20 $186 $406 forward @7 unknown #
coedge $-1 -1 $-1 $188 $187 $407 $408 reversed $65 $-1 #
edge $-1 -1 $-1 $409 0 $304 20 $299 $410 forward @7 unknown #
vertex $-1 -1 $-1 $303 $411 #
straight-curve $-1 -1 $-1 40 20 0 0 0 -1 I I #
coedge $-1 -1 $-1 $407 $412 $191 $307 forward $400 $-1 #
edge $413 -1 $-1 $311 -20 $308 20 $191 $414 forward @7 unknown #
vertex $-1 -1 $-1 $307 $415 #
straight-curve $-1 -1 $-1 20 20 0 1 0 0 I I #
coedge $-1 -1 $-1 $402 $193 $412 $416 reversed $184 $-1 #
vertex $-1 -1 $-1 $416 $417 #
straight-curve $-1 -1 $-1 20 -20 0 1 0 0 I I #
edge $-1 -1 $-1 $405 -20 $197 0 $297 $418 forward @7 unknown #
point $-1 -1 $-1 40 -20 0 #
point $-1 -1 $-1 40 20 0 #
model_id-kcp-attrib $-1 -1 $-1 $-1 $201 1 1021382376 1021382376 2108620801 8 #
face $419 -1 $-1 $420 $421 $8 $-1 $422 forward single #
loop $-1 -1 $-1 $-1 $320 $201 #
plane-surface $-1 -1 $-1 -40 0 0 1 0 0 0 0 -1 forward_v I I I I #
coedge $-1 -1 $-1 $235 $423 $203 $321 forward $318 $-1 #
edge $-1 -1 $-1 $424 -15 $241 5 $320 $425 forward @7 unknown #
coedge $-1 -1 $-1 $426 $427 $204 $323 reversed $428 $-1 #
edge $429 -1 $-1 $328 -20 $332 20 $204 $430 forward @7 unknown #
coedge $-1 -1 $-1 $431 $205 $209 $333 forward $326 $-1 #
coedge $-1 -1 $-1 $205 $431 $426 $432 forward $326 $-1 #
loop $-1 -1 $-1 $-1 $324 $420 #
attrib_edge_convexity-kcp-attrib $-1 -1 $433 $-1 $206 1 #
vertex $-1 -1 $-1 $206 $434 #
straight-curve $-1 -1 $-1 40 0 20 0 1 0 I I #
coedge $-1 -1 $-1 $217 $207 $427 $435 forward $33 $-1 #
attrib_edge_convexity-kcp-attrib $-1 -1 $436 $-1 $208 1 #
vertex $-1 -1 $-1 $323 $437 #
edge $-1 -1 $-1 $212 -40 $424 40 $324 $438 forward @7 unknown #
convexity-sys-attrib $-1 -1 $-1 $210 $121 #
point $-1 -1 $-1 40 -20 -20 #
point $-1 -1 $-1 40 -20 20 #
attrib_edge_convexity-kcp-attrib $-1 -1 $439 $-1 $214 1 #
straight-curve $-1 -1 $-1 15 -20 -20 1 0 0 I I #
convexity-sys-attrib $-1 -1 $-1 $215 $123 #
coedge $-1 -1 $-1 $440 $441 $217 $341 reversed $318 $-1 #
edge $442 -1 $-1 $443 -40 $346 40 $340 $444 forward @7 unknown #
coedge $-1 -1 $-1 $445 $218 $441 $446 reversed $344 $-1 #
coedge $-1 -1 $-1 $218 $445 $220 $349 forward $344 $-1 #
loop $-1 -1 $-1 $-1 $343 $447 #
attrib_edge_convexity-kcp-attrib $-1 -1 $448 $-1 $219 1 #
vertex $-1 -1 $-1 $219 $449 #
straight-curve $-1 -1 $-1 0 40 -20 1 0 0 I I #
coedge $-1 -1 $-1 $221 $220 $450 $451 reversed $222 $-1 #
edge $-1 -1 $-1 $452 -20 $224 20 $220 $453 forward @7 unknown #
face $454 -1 $-1 $-1 $222 $8 $-1 $49 reversed single #
convexity-sys-attrib $-1 -1 $-1 $223 $126 #
point $-1 -1 $-1 40 40 -20 #
coedge $-1 -1 $-1 $450 $455 $226 $354 forward $421 $-1 #
edge $-1 -1 $-1 $456 -40 $355 40 $353 $457 forward @7 unknown #
vertex $-1 -1 $-1 $227 $458 #
straight-curve $-1 -1 $-1 40 20 0 0 0 -1 I I #
coedge $-1 -1 $-1 $459 $235 $233 $358 forward $318 $-1 #
edge $-1 -1 $-1 $238 -5 $456 15 $357 $460 forward @7 unknown #
attrib_edge_convexity-kcp-attrib $-1 -1 $461 $-1 $236 1 #
straight-curve $-1 -1 $-1 -40 0 0 0 1 0 I I #
convexity-sys-attrib $-1 -1 $-1 $237 $141 #
point $-1 -1 $-1 -40 20 0 #
convexity-sys-attrib $-1 -1 $-1 $240 $142 #
point $-1 -1 $-1 -40 -20 0 #
plane-surface $-1 -1 $-1 0 20 0 0 -1 0 0 0 -1 forward_v I I I I #
coedge $-1 -1 $-1 $371 $376 $368 $462 reversed $244 $-1 #
edge $463 -1 $-1 $464 -20 $369 20 $246 $465 forward @7 unknown #
coedge $-1 -1 $-1 $248 $247 $366 $462 forward $90 $-1 #
vertex $-1 -1 $-1 $367 $466 #
straight-curve $-1 -1 $-1 50 20 -60 0 0 1 I I #
coedge $-1 -1 $-1 $255 $366 $251 $372 reversed $244 $-1 #
edge $-1 -1 $-1 $262 -35 $373 45 $371 $467 forward @7 unknown #
vertex $-1 -1 $-1 $372 $468 #
straight-curve $-1 -1 $-1 50 0 -100 0 1 0 I I #
point $-1 -1 $-1 50 20 -100 #
coedge $-1 -1 $-1 $366 $255 $258 $378 reversed $244 $-1 #
straight-curve $-1 -1 $-1 -30 -20 -60 0 0 1 I I #
edge $469 -1 $-1 $464 -50 $260 30 $376 $470 forward @7 unknown #
point $-1 -1 $-1 -30 -20 -120 #
point $-1 -1 $-1 -30 -20 -100 #
convexity-sys-attrib $-1 -1 $-1 $-1 $264 #
straight-curve $-1 -1 $-1 0 20 -120 1 0 0 I I #
model_id-kcp-attrib $-1 -1 $-1 $-1 $268 1 1021382376 1021382376 2108620802 3 #
plane-surface $-1 -1 $-1 40 0 0 -1 0 0 0 0 1 forward_v I I I I #
coedge $-1 -1 $-1 $273 $271 $275 $389 reversed $165 $-1 #
edge $-1 -1 $-1 $286 -20 $391 20 $285 $471 forward @7 unknown #
vertex $-1 -1 $-1 $389 $472 #
straight-curve $-1 -1 $-1 -40 -40 0 0 0 -1 I I #
edge $-1 -1 $-1 $387 -40 $391 40 $385 $473 forward @7 unknown #
straight-curve $-1 -1 $-1 0 -40 -20 -1 0 0 I I #
vertex $-1 -1 $-1 $278 $474 #
straight-curve $-1 -1 $-1 0 40 -20 1 0 0 I I #
point $-1 -1 $-1 40 40 -20 #
point $-1 -1 $-1 40 -40 -20 #
straight-curve $-1 -1 $-1 -40 0 20 0 -1 0 I I #
point $-1 -1 $-1 -40 40 20 #
point $-1 -1 $-1 -40 -40 20 #
straight-curve $-1 -1 $-1 40 -40 0 0 0 -1 I I #
straight-curve $-1 -1 $-1 40 40 0 0 0 -1 I I #
loop $-1 -1 $-1 $-1 $412 $295 #
plane-surface $-1 -1 $-1 20 0 -9.9999999999999982 1 0 0 0 0 -1 forward_v I I I I #
coedge $-1 -1 $-1 $297 $310 $298 $404 forward $184 $-1 #
coedge $-1 -1 $-1 $299 $298 $475 $476 reversed $107 $-1 #
edge $-1 -1 $-1 $477 0 $405 20 $402 $478 forward @7 unknown #
vertex $-1 -1 $-1 $404 $479 #
straight-curve $-1 -1 $-1 40 0 -20 0 -1 0 I I #
coedge $-1 -1 $-1 $475 $306 $302 $408 forward $400 $-1 #
edge $480 -1 $-1 $308 0 $409 20 $302 $481 forward @7 unknown #
vertex $-1 -1 $-1 $408 $482 #
straight-curve $-1 -1 $-1 20 20 -20 1 0 0 I I #
point $-1 -1 $-1 40 20 -20 #
coedge $-1 -1 $-1 $306 $475 $310 $416 forward $400 $-1 #
convexity-sys-attrib $-1 -1 $-1 $-1 $307 #
straight-curve $-1 -1 $-1 20 0 0 0 1 0 I I #
point $-1 -1 $-1 20 20 0 #
edge $483 -1 $-1 $477 -20 $311 0 $310 $484 forward @7 unknown #
point $-1 -1 $-1 20 -20 0 #
straight-curve $-1 -1 $-1 40 -20 0 0 0 1 I I #
model_id-kcp-attrib $-1 -1 $-1 $-1 $317 1 1021382376 1021382376 2108620801 9 #
face $485 -1 $-1 $486 $326 $8 $-1 $422 forward single #
loop $-1 -1 $-1 $-1 $353 $317 #
plane-surface $-1 -1 $-1 0 0 20 0 0 1 1 0 0 forward_v I I I I #
coedge $-1 -1 $-1 $320 $440 $431 $487 reversed $318 $-1 #
vertex $-1 -1 $-1 $333 $488 #
straight-curve $-1 -1 $-1 -40 -20 5 0 0 -1 I I #
coedge $-1 -1 $-1 $489 $322 $325 $432 reversed $428 $-1 #
coedge $-1 -1 $-1 $322 $489 $330 $435 reversed $428 $-1 #
loop $-1 -1 $-1 $-1 $489 $486 #
attrib_edge_convexity-kcp-attrib $-1 -1 $490 $-1 $323 1 #
straight-curve $-1 -1 $-1 40 -40 0 0 0 -1 I I #
coedge $-1 -1 $-1 $325 $324 $423 $487 forward $326 $-1 #
edge $491 -1 $-1 $492 -40 $328 40 $426 $493 forward @7 unknown #
convexity-sys-attrib $-1 -1 $-1 $327 $206 #
point $-1 -1 $-1 40 -40 20 #
edge $494 -1 $-1 $332 -40 $443 40 $427 $495 forward @7 unknown #
convexity-sys-attrib $-1 -1 $-1 $331 $208 #
point $-1 -1 $-1 40 -40 -20 #
straight-curve $-1 -1 $-1 0 -20 20 -1 0 0 I I #
convexity-sys-attrib $-1 -1 $-1 $337 $214 #
coedge $-1 -1 $-1 $423 $340 $489 $496 reversed $318 $-1 #
coedge $-1 -1 $-1 $340 $459 $342 $446 forward $318 $-1 #
attrib_edge_convexity-kcp-attrib $-1 -1 $497 $-1 $341 1 #
vertex $-1 -1 $-1 $341 $498 #
straight-curve $-1 -1 $-1 -40 0 -20 0 1 0 I I #
coedge $-1 -1 $-1 $343 $342 $499 $500 reversed $344 $-1 #
edge $-1 -1 $-1 $501 -20 $346 20 $342 $502 forward @7 unknown #
face $503 -1 $-1 $350 $344 $8 $-1 $504 reversed single #
convexity-sys-attrib $-1 -1 $-1 $345 $219 #
point $-1 -1 $-1 -40 40 -20 #
coedge $-1 -1 $-1 $499 $353 $348 $451 forward $421 $-1 #
edge $-1 -1 $-1 $355 20 $452 40 $348 $329 forward @7 unknown #
vertex $-1 -1 $-1 $451 $505 #
straight-curve $-1 -1 $-1 40 40 0 0 0 -1 I I #
model_id-kcp-attrib $-1 -1 $-1 $-1 $350 1 1021382376 1021382376 2108620801 13 #
coedge $-1 -1 $-1 $353 $499 $459 $506 forward $421 $-1 #
vertex $-1 -1 $-1 $506 $507 #
straight-curve $-1 -1 $-1 0 20 20 1 0 0 I I #
point $-1 -1 $-1 40 20 20 #
coedge $-1 -1 $-1 $441 $357 $455 $506 reversed $318 $-1 #
straight-curve $-1 -1 $-1 -40 20 5 0 0 1 I I #
convexity-sys-attrib $-1 -1 $-1 $359 $236 #
edge $-1 -1 $-1 $373 40 $464 60 $366 $508 forward @7 unknown #
convexity-sys-attrib $-1 -1 $-1 $-1 $367 #
vertex $-1 -1 $-1 $378 $509 #
straight-curve $-1 -1 $-1 50 0 -120 0 1 0 I I #
point $-1 -1 $-1 50 20 -120 #
straight-curve $-1 -1 $-1 5 -20 -100 1 0 0 I I #
point $-1 -1 $-1 50 -20 -100 #
convexity-sys-attrib $-1 -1 $-1 $-1 $378 #
straight-curve $-1 -1 $-1 0 -20 -120 -1 0 0 I I #
straight-curve $-1 -1 $-1 -40 40 0 0 0 -1 I I #
point $-1 -1 $-1 -40 -40 -20 #
straight-curve $-1 -1 $-1 -40 0 -20 0 1 0 I I #
point $-1 -1 $-1 -40 40 -20 #
coedge $-1 -1 $-1 $412 $407 $403 $476 forward $400 $-1 #
edge $510 -1 $-1 $409 -20 $477 20 $403 $511 forward @7 unknown #
vertex $-1 -1 $-1 $416 $512 #
straight-curve $-1 -1 $-1 20 -20 -20 1 0 0 I I #
point $-1 -1 $-1 40 -20 -20 #
convexity-sys-attrib $-1 -1 $-1 $-1 $408 #
straight-curve $-1 -1 $-1 20 20 0 0 0 -1 I I #
point $-1 -1 $-1 20 20 -20 #
convexity-sys-attrib $-1 -1 $-1 $-1 $416 #
straight-curve $-1 -1 $-1 20 -20 0 0 0 1 I I #
model_id-kcp-attrib $-1 -1 $-1 $-1 $420 1 1021382376 1021382376 2108620801 10 #
face $513 -1 $-1 $447 $428 $8 $-1 $514 reversed single #
edge $-1 -1 $-1 $424 20 $492 40 $423 $515 forward @7 unknown #
point $-1 -1 $-1 -40 -20 20 #
coedge $-1 -1 $-1 $427 $426 $440 $496 forward $428 $-1 #
convexity-sys-attrib $-1 -1 $-1 $429 $323 #
attrib_edge_convexity-kcp-attrib $-1 -1 $516 $-1 $432 1 #
vertex $-1 -1 $-1 $487 $517 #
straight-curve $-1 -1 $-1 0 -40 20 1 0 0 I I #
attrib_edge_convexity-kcp-attrib $-1 -1 $518 $-1 $435 1 #
straight-curve $-1 -1 $-1 0 -40 -20 -1 0 0 I I #
edge $519 -1 $-1 $492 -20 $443 20 $440 $520 forward @7 unknown #
convexity-sys-attrib $-1 -1 $-1 $442 $341 #
point $-1 -1 $-1 -40 -40 -20 #
coedge $-1 -1 $-1 $455 $450 $445 $500 forward $421 $-1 #
edge $-1 -1 $-1 $452 -40 $501 40 $445 $521 forward @7 unknown #
vertex $-1 -1 $-1 $500 $522 #
straight-curve $-1 -1 $-1 -40 40 0 0 0 -1 I I #
model_id-kcp-attrib $-1 -1 $-1 $-1 $447 1 1021382376 1021382376 2108620801 12 #
plane-surface $-1 -1 $-1 0 40 0 0 -1 0 0 0 -1 forward_v I I I I #
point $-1 -1 $-1 40 40 20 #
edge $-1 -1 $-1 $501 -40 $456 -20 $459 $515 forward @7 unknown #
point $-1 -1 $-1 -40 20 20 #
straight-curve $-1 -1 $-1 50 -20 -60 0 0 -1 I I #
point $-1 -1 $-1 50 -20 -120 #
convexity-sys-attrib $-1 -1 $-1 $-1 $476 #
straight-curve $-1 -1 $-1 20 0 -20 0 -1 0 I I #
point $-1 -1 $-1 20 -20 -20 #
model_id-kcp-attrib $-1 -1 $-1 $-1 $486 1 1021382376 1021382376 2108620801 11 #
plane-surface $-1 -1 $-1 0 -40 0 0 1 0 0 0 1 forward_v I I I I #
straight-curve $-1 -1 $-1 -40 0 20 0 -1 0 I I #
convexity-sys-attrib $-1 -1 $-1 $491 $432 #
point $-1 -1 $-1 -40 -40 20 #
convexity-sys-attrib $-1 -1 $-1 $494 $435 #
attrib_edge_convexity-kcp-attrib $-1 -1 $523 $-1 $496 1 #
straight-curve $-1 -1 $-1 -40 -40 0 0 0 -1 I I #
straight-curve $-1 -1 $-1 0 40 20 -1 0 0 I I #
point $-1 -1 $-1 -40 40 20 #
convexity-sys-attrib $-1 -1 $-1 $519 $496 #
End-of-ACIS-data 