600 0 1 0           
81 GICL ACIS Healer - Source: /gicl/data5/repository/Heriot_Watt/ex40/ex40.sat - 6 0 18 ACIS 6.0.3 Solaris 24 Sat Apr 13 23:38:29 2002 
1 9.999999999999999547e-07 1.000000000000000036e-10 
body $-1 $1 $-1 $-1 #
lump $-1 $-1 $2 $0 #
shell $-1 $-1 $-1 $3 $-1 $1 #
face $-1 $4 $5 $2 $-1 $6 forward single #
face $-1 $7 $8 $2 $-1 $9 reversed single #
loop $-1 $-1 $10 $3 #
plane-surface $-1 20 0 0 1 0 0 0 0 -1 forward_v I I I I #
face $-1 $11 $12 $2 $-1 $13 reversed single #
loop $-1 $-1 $14 $4 #
plane-surface $-1 0 0 -20 0 0 1 1 0 0 forward_v I I I I #
coedge $-1 $15 $16 $17 $18 reversed $5 $-1 #
face $-1 $19 $20 $2 $-1 $21 forward single #
loop $-1 $-1 $22 $7 #
plane-surface $-1 40 0 0 -1 0 0 0 0 1 forward_v I I I I #
coedge $-1 $23 $24 $25 $26 forward $8 $-1 #
coedge $-1 $27 $10 $28 $29 forward $5 $-1 #
coedge $-1 $10 $27 $30 $31 reversed $5 $-1 #
coedge $-1 $32 $33 $10 $18 forward $34 $-1 #
edge $-1 $35 -20 $36 20 $17 $37 forward 7 unknown #
face $-1 $38 $34 $2 $-1 $39 forward single #
loop $-1 $-1 $40 $11 #
plane-surface $-1 0 -20 10 0 1 0 0 0 1 forward_v I I I I #
coedge $-1 $41 $42 $43 $44 forward $12 $-1 #
coedge $-1 $45 $14 $27 $46 forward $8 $-1 #
coedge $-1 $14 $47 $48 $49 forward $8 $-1 #
coedge $-1 $50 $30 $14 $26 reversed $51 $-1 #
edge $-1 $52 -25 $53 -5 $14 $54 forward 7 unknown #
coedge $-1 $16 $15 $23 $46 reversed $5 $-1 #
coedge $-1 $40 $55 $15 $29 reversed $20 $-1 #
edge $-1 $35 0 $56 20 $15 $57 forward 7 unknown #
coedge $-1 $25 $58 $16 $31 forward $51 $-1 #
edge $-1 $36 0 $53 20 $30 $59 forward 7 unknown #
coedge $-1 $60 $17 $58 $61 reversed $34 $-1 #
coedge $-1 $17 $60 $40 $62 reversed $34 $-1 #
loop $-1 $-1 $17 $19 #
vertex $-1 $62 $63 #
vertex $-1 $61 $64 #
straight-curve $-1 20 0 0 0 1 0 I I #
face $-1 $65 $51 $2 $-1 $66 forward single #
plane-surface $-1 0 0 0 0 0 1 1 0 0 forward_v I I I I #
coedge $-1 $67 $28 $33 $62 forward $20 $-1 #
coedge $-1 $68 $22 $69 $70 reversed $12 $-1 #
coedge $-1 $22 $68 $71 $72 reversed $12 $-1 #
coedge $-1 $55 $73 $22 $44 reversed $20 $-1 #
edge $-1 $74 -20 $75 20 $22 $76 forward 7 unknown #
coedge $-1 $71 $23 $55 $77 forward $8 $-1 #
edge $-1 $53 -20 $56 20 $23 $78 forward 7 unknown #
coedge $-1 $24 $79 $80 $81 forward $8 $-1 #
coedge $-1 $82 $83 $24 $49 reversed $84 $-1 #
edge $-1 $85 -40 $52 -20 $48 $86 forward 7 unknown #
coedge $-1 $87 $25 $83 $88 reversed $51 $-1 #
loop $-1 $-1 $87 $38 #
vertex $-1 $49 $89 #
vertex $-1 $46 $90 #
straight-curve $-1 15 20 -20 -1 0 0 I I #
coedge $-1 $28 $43 $45 $77 reversed $20 $-1 #
vertex $-1 $77 $91 #
straight-curve $-1 20 -20 0 0 0 -1 I I #
coedge $-1 $30 $92 $32 $61 forward $51 $-1 #
straight-curve $-1 20 20 0 0 0 -1 I I #
coedge $-1 $33 $32 $93 $94 reversed $34 $-1 #
edge $-1 $95 -40 $36 20 $58 $96 forward 7 unknown #
edge $-1 $35 -20 $97 40 $40 $98 forward 7 unknown #
point $-1 20 -20 0 #
point $-1 20 20 0 #
face $-1 $99 $100 $2 $-1 $101 reversed single #
plane-surface $-1 0 20 10 0 -1 0 0 0 -1 forward_v I I I I #
coedge $-1 $73 $40 $102 $103 reversed $20 $-1 #
coedge $-1 $42 $41 $104 $105 forward $12 $-1 #
coedge $-1 $106 $107 $41 $70 forward $108 $-1 #
edge $-1 $109 -40 $75 -20 $41 $110 forward 7 unknown #
coedge $-1 $111 $45 $42 $72 forward $8 $-1 #
edge $-1 $74 20 $112 40 $42 $86 forward 7 unknown #
coedge $-1 $43 $67 $106 $113 reversed $20 $-1 #
vertex $-1 $44 $114 #
vertex $-1 $70 $115 #
straight-curve $-1 40 -20 0 0 0 1 I I #
edge $-1 $56 5 $74 25 $45 $116 forward 7 unknown #
straight-curve $-1 20 0 -20 0 -1 0 I I #
coedge $-1 $47 $111 $117 $118 forward $8 $-1 #
coedge $-1 $119 $120 $47 $81 reversed $121 $-1 #
edge $-1 $122 -40 $85 40 $80 $123 forward 7 unknown #
coedge $-1 $124 $48 $120 $125 reversed $84 $-1 #
coedge $-1 $48 $124 $50 $88 forward $84 $-1 #
loop $-1 $-1 $83 $126 #
vertex $-1 $49 $127 #
straight-curve $-1 40 0 -20 0 -1 0 I I #
coedge $-1 $92 $50 $128 $129 reversed $51 $-1 #
edge $-1 $130 -20 $52 20 $83 $131 forward 7 unknown #
point $-1 40 20 -20 #
point $-1 20 20 -20 #
point $-1 20 -20 -20 #
coedge $-1 $58 $87 $132 $133 reversed $51 $-1 #
coedge $-1 $132 $102 $60 $94 forward $100 $-1 #
edge $-1 $97 -20 $95 20 $93 $134 forward 7 unknown #
vertex $-1 $94 $135 #
straight-curve $-1 0 20 0 1 0 0 I I #
vertex $-1 $94 $136 #
straight-curve $-1 0 -20 0 -1 0 0 I I #
face $-1 $137 $138 $2 $-1 $139 forward single #
loop $-1 $-1 $102 $65 #
plane-surface $-1 -40 0 0 1 0 0 0 0 -1 forward_v I I I I #
coedge $-1 $93 $140 $67 $103 forward $100 $-1 #
edge $-1 $141 -15 $97 5 $102 $142 forward 7 unknown #
coedge $-1 $143 $144 $68 $105 reversed $145 $-1 #
edge $-1 $109 -20 $112 20 $68 $146 forward 7 unknown #
coedge $-1 $147 $69 $73 $113 forward $108 $-1 #
coedge $-1 $69 $147 $143 $148 forward $108 $-1 #
loop $-1 $-1 $106 $137 #
vertex $-1 $70 $149 #
straight-curve $-1 40 0 20 0 1 0 I I #
coedge $-1 $79 $71 $144 $150 forward $8 $-1 #
vertex $-1 $105 $151 #
edge $-1 $75 -40 $141 40 $106 $152 forward 7 unknown #
point $-1 40 -20 -20 #
point $-1 40 -20 20 #
straight-curve $-1 15 -20 -20 1 0 0 I I #
coedge $-1 $153 $154 $79 $118 reversed $100 $-1 #
edge $-1 $155 -40 $122 40 $117 $156 forward 7 unknown #
coedge $-1 $157 $80 $154 $158 reversed $121 $-1 #
coedge $-1 $80 $157 $82 $125 forward $121 $-1 #
loop $-1 $-1 $120 $159 #
vertex $-1 $81 $160 #
straight-curve $-1 0 40 -20 1 0 0 I I #
coedge $-1 $83 $82 $161 $162 reversed $84 $-1 #
edge $-1 $163 -20 $85 20 $82 $164 forward 7 unknown #
face $-1 $-1 $84 $2 $-1 $13 reversed single #
point $-1 40 40 -20 #
coedge $-1 $161 $165 $87 $129 forward $138 $-1 #
edge $-1 $166 -40 $130 40 $128 $167 forward 7 unknown #
vertex $-1 $88 $168 #
straight-curve $-1 40 20 0 0 0 -1 I I #
coedge $-1 $169 $93 $92 $133 forward $100 $-1 #
edge $-1 $95 -5 $166 15 $132 $170 forward 7 unknown #
straight-curve $-1 -40 0 0 0 1 0 I I #
point $-1 -40 20 0 #
point $-1 -40 -20 0 #
face $-1 $171 $108 $2 $-1 $139 forward single #
loop $-1 $-1 $128 $99 #
plane-surface $-1 0 0 20 0 0 1 1 0 0 forward_v I I I I #
coedge $-1 $102 $153 $147 $172 reversed $100 $-1 #
vertex $-1 $113 $173 #
straight-curve $-1 -40 -20 5 0 0 -1 I I #
coedge $-1 $174 $104 $107 $148 reversed $145 $-1 #
coedge $-1 $104 $174 $111 $150 reversed $145 $-1 #
loop $-1 $-1 $174 $171 #
straight-curve $-1 40 -40 0 0 0 -1 I I #
coedge $-1 $107 $106 $140 $172 forward $108 $-1 #
edge $-1 $175 -40 $109 40 $143 $176 forward 7 unknown #
point $-1 40 -40 20 #
edge $-1 $112 -40 $155 40 $144 $177 forward 7 unknown #
point $-1 40 -40 -20 #
straight-curve $-1 0 -20 20 -1 0 0 I I #
coedge $-1 $140 $117 $174 $178 reversed $100 $-1 #
coedge $-1 $117 $169 $119 $158 forward $100 $-1 #
vertex $-1 $118 $179 #
straight-curve $-1 -40 0 -20 0 1 0 I I #
coedge $-1 $120 $119 $180 $181 reversed $121 $-1 #
edge $-1 $182 -20 $122 20 $119 $183 forward 7 unknown #
face $-1 $126 $121 $2 $-1 $184 reversed single #
point $-1 -40 40 -20 #
coedge $-1 $180 $128 $124 $162 forward $138 $-1 #
edge $-1 $130 20 $163 40 $124 $110 forward 7 unknown #
vertex $-1 $162 $185 #
straight-curve $-1 40 40 0 0 0 -1 I I #
coedge $-1 $128 $180 $169 $186 forward $138 $-1 #
vertex $-1 $186 $187 #
straight-curve $-1 0 20 20 1 0 0 I I #
point $-1 40 20 20 #
coedge $-1 $154 $132 $165 $186 reversed $100 $-1 #
straight-curve $-1 -40 20 5 0 0 1 I I #
face $-1 $159 $145 $2 $-1 $188 reversed single #
edge $-1 $141 20 $175 40 $140 $189 forward 7 unknown #
point $-1 -40 -20 20 #
coedge $-1 $144 $143 $153 $178 forward $145 $-1 #
vertex $-1 $172 $190 #
straight-curve $-1 0 -40 20 1 0 0 I I #
straight-curve $-1 0 -40 -20 -1 0 0 I I #
edge $-1 $175 -20 $155 20 $153 $191 forward 7 unknown #
point $-1 -40 -40 -20 #
coedge $-1 $165 $161 $157 $181 forward $138 $-1 #
edge $-1 $163 -40 $182 40 $157 $192 forward 7 unknown #
vertex $-1 $181 $193 #
straight-curve $-1 -40 40 0 0 0 -1 I I #
plane-surface $-1 0 40 0 0 -1 0 0 0 -1 forward_v I I I I #
point $-1 40 40 20 #
edge $-1 $182 -40 $166 -20 $169 $189 forward 7 unknown #
point $-1 -40 20 20 #
plane-surface $-1 0 -40 0 0 1 0 0 0 1 forward_v I I I I #
straight-curve $-1 -40 0 20 0 -1 0 I I #
point $-1 -40 -40 20 #
straight-curve $-1 -40 -40 0 0 0 -1 I I #
straight-curve $-1 0 40 20 -1 0 0 I I #
point $-1 -40 40 20 #
End-of-ACIS-data 