600 0 2 0           
24 FBMach with ACIS - 6.0.3 13 ACIS 6.0.3 NT 24 Wed May 23 20:18:31 2001 
1 9.9999999999999995e-007 1e-010 
body $2 $3 $-1 $4 #
bdycol-kcp $-1 1 3 $5 $6 $7 #
model_id-kcp-attrib $-1 $-1 $-1 $0 1 990663510 70 -716832767 1 #
lump $-1 $-1 $8 $0 #
transform $-1 1 0 0 0 1 0 0 0 1 0 0 0 1 no_rotate no_reflect no_shear #
body $9 $10 $-1 $11 #
body $12 $13 $-1 $14 #
body $15 $16 $-1 $17 #
shell $-1 $-1 $-1 $18 $-1 $3 #
model_id-kcp-attrib $-1 $-1 $-1 $5 1 990663510 70 -716832766 1 #
lump $-1 $-1 $19 $5 #
transform $-1 1 0 0 0 1 0 0 0 1 0 0 0 1 no_rotate no_reflect no_shear #
rgb_color-st-attrib $-1 $20 $-1 $6 1 0 0 #
lump $-1 $-1 $21 $6 #
transform $-1 1 0 0 0 1 0 0 0 1 -10 0 120 1 no_rotate no_reflect no_shear #
rgb_color-st-attrib $-1 $22 $-1 $7 1 0 0 #
lump $-1 $-1 $23 $7 #
transform $-1 -3.8285889215894375e-016 0 -1 0 1 0 1 0 -3.8285889215894375e-016 140 0 -10.000000000000053 1 rotate no_reflect no_shear #
face $24 $25 $26 $8 $-1 $27 forward single #
shell $-1 $-1 $-1 $28 $-1 $10 #
model_id-kcp-attrib $-1 $-1 $12 $6 1 990663510 240 -705691645 1 #
shell $-1 $-1 $-1 $29 $-1 $13 #
model_id-kcp-attrib $-1 $-1 $15 $7 1 990663510 330 -716570620 1 #
shell $-1 $-1 $-1 $30 $-1 $16 #
model_id-kcp-attrib $-1 $-1 $-1 $18 1 990663510 70 -716832767 2 #
face $31 $32 $33 $8 $-1 $34 reversed single #
loop $-1 $-1 $35 $18 #
plane-surface $-1 20 0 0 1 0 0 0 0 -1 forward_v I I I I #
face $36 $37 $38 $19 $-1 $39 forward single #
face $-1 $40 $41 $21 $-1 $42 reversed single #
face $-1 $43 $44 $23 $-1 $45 forward single #
model_id-kcp-attrib $-1 $-1 $-1 $25 1 990663510 70 -716832767 3 #
face $46 $47 $48 $8 $-1 $49 reversed single #
loop $-1 $-1 $50 $25 #
plane-surface $-1 0 0 -20 0 0 1 1 0 0 forward_v I I I I #
coedge $-1 $51 $52 $53 $54 reversed $26 $-1 #
model_id-kcp-attrib $-1 $55 $-1 $28 1 990663510 70 -716832766 6 #
face $56 $57 $58 $19 $-1 $59 reversed single #
loop $-1 $-1 $60 $28 #
plane-surface $-1 0 0 20 0 0 1 1 0 0 forward_v I I I I #
face $-1 $61 $62 $21 $-1 $63 forward single #
loop $-1 $-1 $64 $29 #
plane-surface $-1 -30 0 -120 1 0 0 0 0 -1 forward_v I I I I #
face $-1 $65 $66 $23 $-1 $67 reversed single #
loop $-1 $-1 $68 $30 #
plane-surface $-1 -9.9999999999999964 0 -150 -1 0 -3.8285889215894375e-016 -3.8285889215894375e-016 0 1 forward_v I I I I #
model_id-kcp-attrib $-1 $-1 $-1 $32 1 990663510 70 -716832767 4 #
face $69 $70 $71 $8 $-1 $72 forward single #
loop $-1 $-1 $73 $32 #
plane-surface $-1 40 0 0 -1 0 0 0 0 1 forward_v I I I I #
coedge $-1 $74 $75 $76 $77 forward $33 $-1 #
coedge $-1 $78 $35 $79 $80 forward $26 $-1 #
coedge $-1 $35 $78 $81 $82 reversed $26 $-1 #
coedge $-1 $83 $84 $35 $54 forward $85 $-1 #
edge $-1 $86 -20 $87 20 $53 $88 forward 7 unknown #
model_id-kcp-attrib $-1 $-1 $36 $28 1 990663510 70 -716832766 5 #
model_id-kcp-attrib $-1 $-1 $-1 $37 1 990663510 70 -716832766 2 #
face $89 $90 $91 $19 $-1 $92 reversed single #
loop $-1 $-1 $93 $37 #
plane-surface $-1 0 0 -20 0 0 1 1 0 0 forward_v I I I I #
coedge $-1 $94 $95 $96 $97 forward $38 $-1 #
face $-1 $98 $99 $21 $-1 $100 reversed single #
loop $-1 $-1 $101 $40 #
plane-surface $-1 10 0 -100 0 0 1 1 0 0 forward_v I I I I #
coedge $-1 $102 $103 $104 $105 forward $41 $-1 #
face $-1 $106 $107 $23 $-1 $108 reversed single #
loop $-1 $-1 $109 $43 #
plane-surface $-1 10 0 -140 -1 0 -3.8285889215894375e-016 -3.8285889215894375e-016 0 1 forward_v I I I I #
coedge $-1 $110 $111 $112 $113 forward $44 $-1 #
model_id-kcp-attrib $-1 $-1 $-1 $47 1 990663510 70 -716832767 5 #
face $114 $115 $85 $8 $-1 $116 forward single #
loop $-1 $-1 $117 $47 #
plane-surface $-1 0 -20 10 0 1 0 0 0 1 forward_v I I I I #
coedge $-1 $118 $119 $120 $121 forward $48 $-1 #
coedge $-1 $122 $50 $78 $123 forward $33 $-1 #
coedge $-1 $50 $124 $125 $126 forward $33 $-1 #
coedge $-1 $127 $81 $50 $77 reversed $128 $-1 #
edge $129 $130 -25 $131 -5 $50 $132 forward 7 unknown #
coedge $-1 $52 $51 $74 $123 reversed $26 $-1 #
coedge $-1 $117 $133 $51 $80 reversed $71 $-1 #
edge $-1 $86 0 $134 20 $51 $135 forward 7 unknown #
coedge $-1 $76 $136 $52 $82 forward $128 $-1 #
edge $-1 $87 0 $131 20 $81 $137 forward 7 unknown #
coedge $-1 $138 $53 $136 $139 reversed $85 $-1 #
coedge $-1 $53 $138 $117 $140 reversed $85 $-1 #
loop $-1 $-1 $53 $70 #
vertex $-1 $140 $141 #
vertex $-1 $139 $142 #
straight-curve $-1 20 0 0 0 1 0 I I #
model_id-kcp-attrib $-1 $-1 $-1 $57 1 990663510 70 -716832766 7 #
face $143 $144 $145 $19 $-1 $146 reversed single #
loop $-1 $-1 $147 $57 #
plane-surface $-1 0 -40 0 0 1 0 0 0 1 forward_v I I I I #
coedge $-1 $148 $149 $150 $151 forward $58 $-1 #
coedge $-1 $152 $60 $153 $154 forward $38 $-1 #
coedge $-1 $60 $152 $155 $156 forward $38 $-1 #
coedge $-1 $157 $158 $60 $97 reversed $159 $-1 #
edge $-1 $160 -40 $161 40 $96 $162 forward 7 unknown #
face $-1 $163 $164 $21 $-1 $165 reversed single #
loop $-1 $-1 $166 $61 #
plane-surface $-1 50 0 -120 -1 0 0 0 0 1 forward_v I I I I #
coedge $-1 $167 $168 $169 $170 forward $62 $-1 #
coedge $-1 $171 $64 $172 $173 forward $41 $-1 #
coedge $-1 $64 $171 $167 $174 reversed $41 $-1 #
coedge $-1 $169 $175 $64 $105 reversed $176 $-1 #
edge $-1 $177 40 $178 60 $104 $179 forward 7 unknown #
face $-1 $180 $181 $23 $-1 $182 reversed single #
loop $-1 $-1 $183 $65 #
plane-surface $-1 -10.000000000000016 0 -100 3.8285889215894375e-016 0 -1 -1 0 -3.8285889215894375e-016 forward_v I I I I #
coedge $-1 $184 $185 $186 $187 forward $66 $-1 #
coedge $-1 $188 $68 $189 $190 forward $44 $-1 #
coedge $-1 $68 $188 $191 $192 forward $44 $-1 #
coedge $-1 $193 $194 $68 $113 reversed $195 $-1 #
edge $196 $197 -20 $198 20 $112 $199 forward 7 unknown #
model_id-kcp-attrib $-1 $-1 $-1 $70 1 990663510 70 -716832767 6 #
face $200 $201 $128 $8 $-1 $202 forward single #
plane-surface $-1 0 0 0 0 0 1 1 0 0 forward_v I I I I #
coedge $-1 $203 $79 $84 $140 forward $71 $-1 #
coedge $-1 $204 $73 $205 $206 reversed $48 $-1 #
coedge $-1 $73 $204 $207 $208 reversed $48 $-1 #
coedge $-1 $133 $209 $73 $121 reversed $71 $-1 #
edge $210 $211 -20 $212 20 $73 $213 forward 7 unknown #
coedge $-1 $207 $74 $133 $214 forward $33 $-1 #
edge $215 $131 -20 $134 20 $74 $216 forward 7 unknown #
coedge $-1 $75 $217 $218 $219 forward $33 $-1 #
coedge $-1 $220 $221 $75 $126 reversed $222 $-1 #
edge $223 $224 -40 $130 -20 $125 $225 forward 7 unknown #
coedge $-1 $226 $76 $221 $227 reversed $128 $-1 #
loop $-1 $-1 $226 $115 #
attrib_edge_convexity-kcp-attrib $-1 $228 $-1 $77 1 #
vertex $-1 $126 $229 #
vertex $-1 $123 $230 #
straight-curve $-1 15 20 -20 -1 0 0 I I #
coedge $-1 $79 $120 $122 $214 reversed $71 $-1 #
vertex $-1 $214 $231 #
straight-curve $-1 20 -20 0 0 0 -1 I I #
coedge $-1 $81 $232 $83 $139 forward $128 $-1 #
straight-curve $-1 20 20 0 0 0 -1 I I #
coedge $-1 $84 $83 $233 $234 reversed $85 $-1 #
edge $-1 $235 -40 $87 20 $136 $236 forward 7 unknown #
edge $-1 $86 -20 $237 40 $117 $238 forward 7 unknown #
point $-1 20 -20 0 #
point $-1 20 20 0 #
model_id-kcp-attrib $-1 $-1 $-1 $90 1 990663510 70 -716832766 4 #
face $239 $240 $241 $19 $-1 $242 reversed single #
loop $-1 $-1 $243 $90 #
plane-surface $-1 -40 0 0 1 0 0 0 0 -1 forward_v I I I I #
coedge $-1 $244 $155 $245 $246 forward $91 $-1 #
coedge $-1 $247 $93 $244 $248 forward $58 $-1 #
coedge $-1 $93 $247 $249 $250 forward $58 $-1 #
coedge $-1 $158 $157 $93 $151 reversed $159 $-1 #
edge $-1 $251 -40 $252 40 $150 $253 forward 7 unknown #
coedge $-1 $95 $94 $254 $255 forward $38 $-1 #
coedge $-1 $256 $257 $94 $154 reversed $241 $-1 #
edge $-1 $161 -40 $258 40 $153 $259 forward 7 unknown #
coedge $-1 $147 $260 $95 $156 reversed $91 $-1 #
edge $-1 $261 -40 $160 40 $155 $262 forward 7 unknown #
coedge $-1 $150 $96 $260 $263 forward $159 $-1 #
coedge $-1 $96 $150 $256 $264 reversed $159 $-1 #
loop $-1 $-1 $157 $240 #
vertex $-1 $97 $265 #
vertex $-1 $97 $266 #
straight-curve $-1 40 0 20 0 1 0 I I #
face $-1 $267 $268 $21 $-1 $269 reversed single #
loop $-1 $-1 $270 $98 #
plane-surface $-1 0 0 -120 0 0 1 1 0 0 forward_v I I I I #
coedge $-1 $271 $272 $273 $274 forward $99 $-1 #
coedge $-1 $275 $101 $103 $174 forward $62 $-1 #
coedge $-1 $101 $275 $271 $276 forward $62 $-1 #
coedge $-1 $273 $104 $101 $170 reversed $176 $-1 #
edge $-1 $277 -45 $177 35 $169 $278 forward 7 unknown #
coedge $-1 $103 $102 $279 $280 forward $41 $-1 #
coedge $-1 $281 $282 $102 $173 reversed $164 $-1 #
edge $283 $178 -20 $284 20 $172 $285 forward 7 unknown #
edge $-1 $177 -20 $286 20 $103 $287 forward 7 unknown #
coedge $-1 $104 $273 $281 $288 reversed $176 $-1 #
loop $-1 $-1 $273 $267 #
vertex $-1 $105 $289 #
vertex $-1 $288 $290 #
straight-curve $-1 -30 20 -60 0 0 -1 I I #
face $-1 $291 $195 $23 $-1 $292 reversed single #
loop $-1 $-1 $186 $106 #
plane-surface $-1 0 -20 0 0 1 0 0 0 1 forward_v I I I I #
coedge $-1 $293 $294 $295 $296 forward $107 $-1 #
coedge $-1 $297 $109 $298 $299 forward $66 $-1 #
coedge $-1 $109 $297 $293 $300 forward $66 $-1 #
coedge $-1 $295 $301 $109 $187 reversed $181 $-1 #
edge $-1 $302 30 $303 50 $186 $304 forward 7 unknown #
coedge $-1 $111 $110 $294 $305 reversed $44 $-1 #
coedge $-1 $301 $295 $110 $190 reversed $181 $-1 #
edge $-1 $198 -45 $306 -25 $189 $307 forward 7 unknown #
coedge $-1 $308 $309 $111 $192 reversed $310 $-1 #
edge $-1 $311 25 $197 45 $191 $312 forward 7 unknown #
coedge $-1 $298 $112 $309 $313 forward $195 $-1 #
coedge $-1 $112 $298 $301 $314 forward $195 $-1 #
loop $-1 $-1 $298 $180 #
convexity-sys-attrib $-1 $-1 $-1 $113 #
vertex $-1 $313 $315 #
vertex $-1 $113 $316 #
straight-curve $-1 -10.000000000000007 0 -120 0 -1 0 I I #
model_id-kcp-attrib $-1 $-1 $-1 $115 1 990663510 70 -716832767 7 #
face $317 $318 $319 $8 $-1 $320 reversed single #
plane-surface $-1 0 20 10 0 -1 0 0 0 -1 forward_v I I I I #
coedge $-1 $209 $117 $321 $322 reversed $71 $-1 #
coedge $-1 $119 $118 $323 $324 forward $48 $-1 #
coedge $-1 $325 $326 $118 $206 forward $327 $-1 #
edge $328 $329 -40 $212 -20 $118 $330 forward 7 unknown #
coedge $-1 $331 $122 $119 $208 forward $33 $-1 #
edge $332 $211 20 $333 40 $119 $225 forward 7 unknown #
coedge $-1 $120 $203 $325 $334 reversed $71 $-1 #
attrib_edge_convexity-kcp-attrib $-1 $335 $-1 $121 1 #
vertex $-1 $121 $336 #
vertex $-1 $206 $337 #
straight-curve $-1 40 -20 0 0 0 1 I I #
edge $338 $134 5 $211 25 $122 $339 forward 7 unknown #
attrib_edge_convexity-kcp-attrib $-1 $340 $-1 $123 1 #
straight-curve $-1 20 0 -20 0 -1 0 I I #
coedge $-1 $124 $331 $341 $342 forward $33 $-1 #
coedge $-1 $343 $344 $124 $219 reversed $345 $-1 #
edge $346 $347 -40 $224 40 $218 $348 forward 7 unknown #
coedge $-1 $349 $125 $344 $350 reversed $222 $-1 #
coedge $-1 $125 $349 $127 $227 forward $222 $-1 #
loop $-1 $-1 $221 $351 #
attrib_edge_convexity-kcp-attrib $-1 $352 $-1 $126 1 #
vertex $-1 $126 $353 #
straight-curve $-1 40 0 -20 0 -1 0 I I #
coedge $-1 $232 $127 $354 $355 reversed $128 $-1 #
edge $-1 $356 -20 $130 20 $221 $357 forward 7 unknown #
convexity-sys-attrib $-1 $-1 $129 $77 #
point $-1 40 20 -20 #
point $-1 20 20 -20 #
point $-1 20 -20 -20 #
coedge $-1 $136 $226 $358 $359 reversed $128 $-1 #
coedge $-1 $358 $321 $138 $234 forward $319 $-1 #
edge $-1 $237 -20 $235 20 $233 $360 forward 7 unknown #
vertex $-1 $234 $361 #
straight-curve $-1 0 20 0 1 0 0 I I #
vertex $-1 $234 $362 #
straight-curve $-1 0 -20 0 -1 0 0 I I #
model_id-kcp-attrib $-1 $-1 $-1 $144 1 990663510 70 -716832766 8 #
face $363 $-1 $159 $19 $-1 $364 reversed single #
loop $-1 $-1 $256 $144 #
plane-surface $-1 0 40 0 0 -1 0 0 0 -1 forward_v I I I I #
coedge $-1 $365 $254 $257 $366 forward $145 $-1 #
coedge $-1 $260 $147 $148 $248 reversed $91 $-1 #
coedge $-1 $254 $365 $147 $246 reversed $145 $-1 #
edge $-1 $261 -20 $367 20 $245 $368 forward 7 unknown #
coedge $-1 $149 $148 $365 $369 forward $58 $-1 #
edge $-1 $252 -40 $367 40 $244 $370 forward 7 unknown #
coedge $-1 $257 $256 $149 $250 reversed $241 $-1 #
edge $-1 $371 -40 $251 40 $249 $372 forward 7 unknown #
vertex $-1 $151 $373 #
vertex $-1 $263 $374 #
straight-curve $-1 40 0 -20 0 -1 0 I I #
coedge $-1 $243 $245 $152 $255 reversed $145 $-1 #
edge $-1 $258 -40 $261 40 $254 $375 forward 7 unknown #
coedge $-1 $249 $153 $158 $264 forward $241 $-1 #
coedge $-1 $153 $249 $243 $366 reversed $241 $-1 #
vertex $-1 $154 $376 #
straight-curve $-1 0 40 20 -1 0 0 I I #
coedge $-1 $155 $244 $157 $263 reversed $91 $-1 #
vertex $-1 $255 $377 #
straight-curve $-1 0 -40 20 1 0 0 I I #
edge $-1 $160 -20 $252 20 $157 $378 forward 7 unknown #
edge $-1 $161 -20 $251 20 $158 $379 forward 7 unknown #
point $-1 40 -40 20 #
point $-1 40 40 20 #
face $-1 $-1 $176 $21 $-1 $380 reversed single #
loop $-1 $-1 $381 $163 #
plane-surface $-1 0 -20 0 0 1 0 0 0 1 forward_v I I I I #
coedge $-1 $282 $281 $272 $382 reversed $164 $-1 #
coedge $-1 $383 $166 $168 $276 reversed $99 $-1 #
coedge $-1 $166 $383 $270 $382 forward $99 $-1 #
coedge $-1 $175 $169 $166 $274 reversed $176 $-1 #
edge $-1 $384 -60 $277 -40 $273 $385 forward 7 unknown #
coedge $-1 $168 $167 $386 $387 forward $62 $-1 #
edge $-1 $388 -20 $277 20 $271 $389 forward 7 unknown #
vertex $-1 $170 $390 #
straight-curve $-1 5 20 -100 -1 0 0 I I #
coedge $-1 $391 $386 $171 $280 reversed $268 $-1 #
edge $-1 $284 -60 $286 -40 $279 $392 forward 7 unknown #
coedge $-1 $270 $172 $175 $288 forward $164 $-1 #
coedge $-1 $172 $270 $391 $393 forward $164 $-1 #
convexity-sys-attrib $-1 $-1 $-1 $173 #
vertex $-1 $173 $394 #
straight-curve $-1 -30 0 -120 0 -1 0 I I #
vertex $-1 $280 $395 #
straight-curve $-1 -30 0 -100 0 -1 0 I I #
edge $396 $178 -30 $384 50 $175 $397 forward 7 unknown #
point $-1 -30 20 -100 #
point $-1 -30 20 -120 #
face $-1 $-1 $310 $23 $-1 $398 reversed single #
plane-surface $-1 0 0 -120 0 0 1 1 0 0 forward_v I I I I #
coedge $-1 $399 $183 $185 $300 reversed $107 $-1 #
coedge $-1 $183 $399 $188 $305 forward $107 $-1 #
coedge $-1 $189 $186 $183 $296 reversed $181 $-1 #
edge $-1 $306 -5.0000000000000275 $302 14.999999999999975 $295 $400 forward 7 unknown #
coedge $-1 $185 $184 $401 $402 forward $66 $-1 #
coedge $-1 $194 $193 $184 $299 reversed $195 $-1 #
edge $403 $303 -20 $404 20 $298 $405 forward 7 unknown #
edge $-1 $406 -20 $302 20 $293 $407 forward 7 unknown #
coedge $-1 $186 $189 $194 $314 reversed $181 $-1 #
vertex $-1 $187 $408 #
vertex $-1 $314 $409 #
straight-curve $-1 9.9999999999999734 -20 -70 3.8285889215894375e-016 0 -1 I I #
edge $-1 $311 -20 $306 20 $294 $410 forward 7 unknown #
vertex $-1 $190 $411 #
straight-curve $-1 -10.000000000000025 -20 -75 -3.8285889215894375e-016 0 1 I I #
coedge $-1 $401 $191 $399 $412 reversed $310 $-1 #
coedge $-1 $191 $401 $193 $313 reversed $310 $-1 #
loop $-1 $-1 $401 $291 #
vertex $-1 $192 $413 #
straight-curve $-1 -10.000000000000025 20 -75 3.8285889215894375e-016 0 -1 I I #
edge $414 $197 -10.000000000000007 $404 9.9999999999999929 $309 $415 forward 7 unknown #
edge $416 $303 -9.9999999999999929 $198 10.000000000000007 $301 $417 forward 7 unknown #
point $-1 -10.000000000000007 20 -120 #
point $-1 -10.000000000000007 -20 -120 #
model_id-kcp-attrib $-1 $-1 $-1 $201 1 990663510 70 -716832767 8 #
face $418 $419 $420 $8 $-1 $421 forward single #
loop $-1 $-1 $321 $201 #
plane-surface $-1 -40 0 0 1 0 0 0 0 -1 forward_v I I I I #
coedge $-1 $233 $422 $203 $322 forward $319 $-1 #
edge $-1 $423 -15 $237 5 $321 $424 forward 7 unknown #
coedge $-1 $425 $426 $204 $324 reversed $427 $-1 #
edge $428 $329 -20 $333 20 $204 $429 forward 7 unknown #
coedge $-1 $430 $205 $209 $334 forward $327 $-1 #
coedge $-1 $205 $430 $425 $431 forward $327 $-1 #
loop $-1 $-1 $325 $419 #
attrib_edge_convexity-kcp-attrib $-1 $432 $-1 $206 1 #
vertex $-1 $206 $433 #
straight-curve $-1 40 0 20 0 1 0 I I #
coedge $-1 $217 $207 $426 $434 forward $33 $-1 #
attrib_edge_convexity-kcp-attrib $-1 $435 $-1 $208 1 #
vertex $-1 $324 $436 #
edge $-1 $212 -40 $423 40 $325 $437 forward 7 unknown #
convexity-sys-attrib $-1 $-1 $210 $121 #
point $-1 40 -20 -20 #
point $-1 40 -20 20 #
attrib_edge_convexity-kcp-attrib $-1 $438 $-1 $214 1 #
straight-curve $-1 15 -20 -20 1 0 0 I I #
convexity-sys-attrib $-1 $-1 $215 $123 #
coedge $-1 $439 $440 $217 $342 reversed $319 $-1 #
edge $441 $442 -40 $347 40 $341 $443 forward 7 unknown #
coedge $-1 $444 $218 $440 $445 reversed $345 $-1 #
coedge $-1 $218 $444 $220 $350 forward $345 $-1 #
loop $-1 $-1 $344 $446 #
attrib_edge_convexity-kcp-attrib $-1 $447 $-1 $219 1 #
vertex $-1 $219 $448 #
straight-curve $-1 0 40 -20 1 0 0 I I #
coedge $-1 $221 $220 $449 $450 reversed $222 $-1 #
edge $-1 $451 -20 $224 20 $220 $452 forward 7 unknown #
face $453 $-1 $222 $8 $-1 $49 reversed single #
convexity-sys-attrib $-1 $-1 $223 $126 #
point $-1 40 40 -20 #
coedge $-1 $449 $454 $226 $355 forward $420 $-1 #
edge $-1 $455 -40 $356 40 $354 $456 forward 7 unknown #
vertex $-1 $227 $457 #
straight-curve $-1 40 20 0 0 0 -1 I I #
coedge $-1 $458 $233 $232 $359 forward $319 $-1 #
edge $-1 $235 -5 $455 15 $358 $459 forward 7 unknown #
straight-curve $-1 -40 0 0 0 1 0 I I #
point $-1 -40 20 0 #
point $-1 -40 -20 0 #
model_id-kcp-attrib $-1 $460 $-1 $240 1 990663510 70 -716832766 9 #
plane-surface $-1 40 0 0 -1 0 0 0 0 1 forward_v I I I I #
coedge $-1 $245 $243 $247 $369 reversed $145 $-1 #
edge $-1 $258 -20 $371 20 $257 $461 forward 7 unknown #
vertex $-1 $369 $462 #
straight-curve $-1 -40 -40 0 0 0 -1 I I #
edge $-1 $367 -40 $371 40 $365 $463 forward 7 unknown #
straight-curve $-1 0 -40 -20 -1 0 0 I I #
vertex $-1 $250 $464 #
straight-curve $-1 0 40 -20 1 0 0 I I #
point $-1 40 40 -20 #
point $-1 40 -40 -20 #
straight-curve $-1 -40 0 20 0 -1 0 I I #
point $-1 -40 40 20 #
point $-1 -40 -40 20 #
straight-curve $-1 40 -40 0 0 0 -1 I I #
straight-curve $-1 40 40 0 0 0 -1 I I #
plane-surface $-1 0 20 0 0 -1 0 0 0 -1 forward_v I I I I #
coedge $-1 $386 $391 $383 $465 reversed $268 $-1 #
edge $466 $467 -20 $384 20 $270 $468 forward 7 unknown #
coedge $-1 $272 $271 $381 $465 forward $99 $-1 #
vertex $-1 $382 $469 #
straight-curve $-1 50 20 -60 0 0 1 I I #
coedge $-1 $279 $381 $275 $387 reversed $268 $-1 #
edge $-1 $286 -35 $388 45 $386 $470 forward 7 unknown #
vertex $-1 $387 $471 #
straight-curve $-1 50 0 -100 0 1 0 I I #
point $-1 50 20 -100 #
coedge $-1 $381 $279 $282 $393 reversed $268 $-1 #
straight-curve $-1 -30 -20 -60 0 0 1 I I #
edge $472 $467 -50 $284 30 $391 $473 forward 7 unknown #
point $-1 -30 -20 -120 #
point $-1 -30 -20 -100 #
convexity-sys-attrib $-1 $-1 $-1 $288 #
straight-curve $-1 0 20 -120 1 0 0 I I #
plane-surface $-1 0 20 0 0 -1 0 0 0 -1 forward_v I I I I #
coedge $-1 $294 $293 $308 $412 forward $107 $-1 #
straight-curve $-1 -4.9999999999999885 -20 -100 1 0 3.8285889215894375e-016 I I #
coedge $-1 $309 $308 $297 $402 reversed $310 $-1 #
edge $-1 $404 -50 $406 -30 $401 $474 forward 7 unknown #
convexity-sys-attrib $-1 $-1 $-1 $299 #
vertex $-1 $299 $475 #
straight-curve $-1 9.9999999999999929 0 -120 0 1 0 I I #
vertex $-1 $402 $476 #
straight-curve $-1 9.9999999999999858 0 -100 0 -1 0 I I #
point $-1 9.9999999999999858 -20 -100 #
point $-1 9.9999999999999929 -20 -120 #
straight-curve $-1 -10.000000000000016 0 -100 0 -1 0 I I #
point $-1 -10.000000000000016 -20 -100 #
edge $-1 $406 -14.999999999999975 $311 5.0000000000000275 $308 $477 forward 7 unknown #
point $-1 -10.000000000000016 20 -100 #
convexity-sys-attrib $-1 $-1 $-1 $313 #
straight-curve $-1 0 20 -120 1 0 0 I I #
convexity-sys-attrib $-1 $-1 $-1 $314 #
straight-curve $-1 0 -20 -120 -1 0 0 I I #
model_id-kcp-attrib $-1 $-1 $-1 $318 1 990663510 70 -716832767 9 #
face $478 $479 $327 $8 $-1 $421 forward single #
loop $-1 $-1 $354 $318 #
plane-surface $-1 0 0 20 0 0 1 1 0 0 forward_v I I I I #
coedge $-1 $321 $439 $430 $480 reversed $319 $-1 #
vertex $-1 $334 $481 #
straight-curve $-1 -40 -20 5 0 0 -1 I I #
coedge $-1 $482 $323 $326 $431 reversed $427 $-1 #
coedge $-1 $323 $482 $331 $434 reversed $427 $-1 #
loop $-1 $-1 $482 $479 #
attrib_edge_convexity-kcp-attrib $-1 $483 $-1 $324 1 #
straight-curve $-1 40 -40 0 0 0 -1 I I #
coedge $-1 $326 $325 $422 $480 forward $327 $-1 #
edge $484 $485 -40 $329 40 $425 $486 forward 7 unknown #
convexity-sys-attrib $-1 $-1 $328 $206 #
point $-1 40 -40 20 #
edge $487 $333 -40 $442 40 $426 $488 forward 7 unknown #
convexity-sys-attrib $-1 $-1 $332 $208 #
point $-1 40 -40 -20 #
straight-curve $-1 0 -20 20 -1 0 0 I I #
convexity-sys-attrib $-1 $-1 $338 $214 #
coedge $-1 $422 $341 $482 $489 reversed $319 $-1 #
coedge $-1 $341 $458 $343 $445 forward $319 $-1 #
attrib_edge_convexity-kcp-attrib $-1 $490 $-1 $342 1 #
vertex $-1 $342 $491 #
straight-curve $-1 -40 0 -20 0 1 0 I I #
coedge $-1 $344 $343 $492 $493 reversed $345 $-1 #
edge $-1 $494 -20 $347 20 $343 $495 forward 7 unknown #
face $496 $351 $345 $8 $-1 $497 reversed single #
convexity-sys-attrib $-1 $-1 $346 $219 #
point $-1 -40 40 -20 #
coedge $-1 $492 $354 $349 $450 forward $420 $-1 #
edge $-1 $356 20 $451 40 $349 $330 forward 7 unknown #
vertex $-1 $450 $498 #
straight-curve $-1 40 40 0 0 0 -1 I I #
model_id-kcp-attrib $-1 $-1 $-1 $351 1 990663510 70 -716832767 13 #
coedge $-1 $354 $492 $458 $499 forward $420 $-1 #
vertex $-1 $499 $500 #
straight-curve $-1 0 20 20 1 0 0 I I #
point $-1 40 20 20 #
coedge $-1 $440 $358 $454 $499 reversed $319 $-1 #
straight-curve $-1 -40 20 5 0 0 1 I I #
model_id-kcp-attrib $-1 $-1 $363 $240 1 990663510 70 -716832766 3 #
straight-curve $-1 -40 40 0 0 0 -1 I I #
point $-1 -40 -40 -20 #
straight-curve $-1 -40 0 -20 0 1 0 I I #
point $-1 -40 40 -20 #
edge $-1 $388 40 $467 60 $381 $501 forward 7 unknown #
convexity-sys-attrib $-1 $-1 $-1 $382 #
vertex $-1 $393 $502 #
straight-curve $-1 50 0 -120 0 1 0 I I #
point $-1 50 20 -120 #
straight-curve $-1 5 -20 -100 1 0 0 I I #
point $-1 50 -20 -100 #
convexity-sys-attrib $-1 $-1 $-1 $393 #
straight-curve $-1 0 -20 -120 -1 0 0 I I #
straight-curve $-1 9.9999999999999734 20 -70 -3.8285889215894375e-016 0 1 I I #
point $-1 9.9999999999999929 20 -120 #
point $-1 9.9999999999999858 20 -100 #
straight-curve $-1 -4.9999999999999885 20 -100 -1 0 -3.8285889215894375e-016 I I #
model_id-kcp-attrib $-1 $-1 $-1 $419 1 990663510 70 -716832767 10 #
face $503 $446 $427 $8 $-1 $504 reversed single #
edge $-1 $423 20 $485 40 $422 $505 forward 7 unknown #
point $-1 -40 -20 20 #
coedge $-1 $426 $425 $439 $489 forward $427 $-1 #
convexity-sys-attrib $-1 $-1 $428 $324 #
attrib_edge_convexity-kcp-attrib $-1 $506 $-1 $431 1 #
vertex $-1 $480 $507 #
straight-curve $-1 0 -40 20 1 0 0 I I #
attrib_edge_convexity-kcp-attrib $-1 $508 $-1 $434 1 #
straight-curve $-1 0 -40 -20 -1 0 0 I I #
edge $509 $485 -20 $442 20 $439 $510 forward 7 unknown #
convexity-sys-attrib $-1 $-1 $441 $342 #
point $-1 -40 -40 -20 #
coedge $-1 $454 $449 $444 $493 forward $420 $-1 #
edge $-1 $451 -40 $494 40 $444 $511 forward 7 unknown #
vertex $-1 $493 $512 #
straight-curve $-1 -40 40 0 0 0 -1 I I #
model_id-kcp-attrib $-1 $-1 $-1 $446 1 990663510 70 -716832767 12 #
plane-surface $-1 0 40 0 0 -1 0 0 0 -1 forward_v I I I I #
point $-1 40 40 20 #
edge $-1 $494 -40 $455 -20 $458 $505 forward 7 unknown #
point $-1 -40 20 20 #
straight-curve $-1 50 -20 -60 0 0 -1 I I #
point $-1 50 -20 -120 #
model_id-kcp-attrib $-1 $-1 $-1 $479 1 990663510 70 -716832767 11 #
plane-surface $-1 0 -40 0 0 1 0 0 0 1 forward_v I I I I #
straight-curve $-1 -40 0 20 0 -1 0 I I #
convexity-sys-attrib $-1 $-1 $484 $431 #
point $-1 -40 -40 20 #
convexity-sys-attrib $-1 $-1 $487 $434 #
attrib_edge_convexity-kcp-attrib $-1 $513 $-1 $489 1 #
straight-curve $-1 -40 -40 0 0 0 -1 I I #
straight-curve $-1 0 40 20 -1 0 0 I I #
point $-1 -40 40 20 #
convexity-sys-attrib $-1 $-1 $509 $489 #
End-of-ACIS-data 