600 0 2 0           
24 FBMach with ACIS - 6.0.3 13 ACIS 6.0.3 NT 24 Tue May 22 15:35:17 2001 
1 9.9999999999999995e-007 1e-010 
body $2 $3 $-1 $4 #
bdycol-kcp $-1 1 6 $5 $6 $7 $8 $9 $10 #
model_id-kcp-attrib $-1 $-1 $-1 $0 1 990560116 50 -785252351 1 #
lump $-1 $-1 $11 $0 #
transform $-1 1 0 0 0 1 0 0 0 1 0 0 0 1 no_rotate no_reflect no_shear #
body $12 $13 $-1 $14 #
body $15 $16 $-1 $17 #
body $18 $19 $-1 $20 #
body $21 $22 $-1 $23 #
body $24 $25 $-1 $26 #
body $27 $28 $-1 $29 #
shell $-1 $-1 $-1 $30 $-1 $3 #
model_id-kcp-attrib $-1 $-1 $-1 $5 1 990560116 50 -785252350 1 #
lump $-1 $-1 $31 $5 #
transform $-1 1 0 0 0 1 0 0 0 1 0 0 -0.30349999999999999 1 no_rotate no_reflect no_shear #
rgb_color-st-attrib $-1 $32 $-1 $6 1 1 0.5 #
lump $-1 $-1 $33 $6 #
transform $-1 1 0 0 0 1 0 0 0 1 0 0 0.54899999999999993 1 rotate no_reflect no_shear #
rgb_color-st-attrib $-1 $34 $-1 $7 1 1 0.5 #
lump $-1 $-1 $35 $7 #
transform $-1 1 0 0 0 -1 0 0 0 -1 0 0 -1.1705000000000001 1 rotate no_reflect no_shear #
rgb_color-st-attrib $-1 $36 $-1 $8 0.5 1 1 #
lump $-1 $-1 $37 $8 #
transform $-1 1 0 0 0 1 0 0 0 1 0 0 -0.30349999999999999 1 no_rotate no_reflect no_shear #
rgb_color-st-attrib $-1 $38 $-1 $9 1 0.5 1 #
lump $-1 $-1 $39 $9 #
transform $-1 1 0 0 0 1 0 0 0 1 0 0 -0.30349999999999999 1 no_rotate no_reflect no_shear #
rgb_color-st-attrib $-1 $40 $-1 $10 1 0.5 1 #
lump $-1 $-1 $41 $10 #
transform $-1 1 0 0 0 1 0 0 0 1 0 0 -0.30349999999999999 1 no_rotate no_reflect no_shear #
face $42 $43 $44 $11 $-1 $45 forward single #
shell $-1 $-1 $-1 $46 $-1 $13 #
model_id-kcp-attrib $-1 $-1 $15 $6 1 990560116 70 -783941629 1 #
shell $-1 $-1 $-1 $47 $-1 $16 #
model_id-kcp-attrib $-1 $-1 $18 $7 1 990560116 70 -783941628 1 #
shell $-1 $-1 $-1 $48 $-1 $19 #
model_id-kcp-attrib $-1 $-1 $21 $8 1 990560116 160 -778043387 1 #
shell $-1 $-1 $-1 $49 $-1 $22 #
model_id-kcp-attrib $-1 $-1 $24 $9 1 990560116 310 -784990202 1 #
shell $-1 $-1 $-1 $50 $-1 $25 #
model_id-kcp-attrib $-1 $-1 $27 $10 1 990560116 370 -781058041 1 #
shell $-1 $-1 $-1 $51 $-1 $28 #
model_id-kcp-attrib $-1 $52 $-1 $30 1 990560116 50 -785252351 15 #
face $53 $54 $55 $11 $-1 $56 forward single #
loop $-1 $-1 $57 $30 #
plane-surface $-1 0 0 0.57899999999999996 0 0 1 1 0 0 forward_v I I I I #
face $58 $59 $60 $31 $-1 $61 forward single #
face $-1 $62 $63 $33 $-1 $64 reversed single #
face $-1 $65 $66 $35 $-1 $67 reversed single #
face $-1 $68 $69 $37 $-1 $70 reversed single #
face $-1 $71 $72 $39 $-1 $73 forward single #
face $-1 $74 $75 $41 $-1 $76 forward single #
model_id-kcp-attrib $-1 $-1 $42 $30 1 990560116 50 -785252351 2 #
model_id-kcp-attrib $-1 $-1 $-1 $43 1 990560116 50 -785252351 3 #
face $77 $78 $79 $11 $-1 $80 forward single #
loop $-1 $81 $82 $43 #
plane-surface $-1 0 0 0 0 0 1 1 0 0 forward_v I I I I #
coedge $-1 $57 $57 $83 $84 forward $44 $-1 #
model_id-kcp-attrib $-1 $-1 $-1 $46 1 990560116 50 -785252350 2 #
face $85 $86 $87 $31 $-1 $88 reversed single #
loop $-1 $-1 $89 $46 #
plane-surface $-1 0 0 0.88249999999999995 0 0 1 1 0 0 forward_v I I I I #
face $-1 $90 $91 $33 $-1 $92 forward single #
loop $-1 $93 $94 $47 #
cone-surface $-1 0 0 0.032500000000000195 0 0 1 0.0625 0 0 1 I I -0.70710678118654724 0.70710678118654791 0.0625 forward I I I I #
face $-1 $95 $96 $35 $-1 $97 forward single #
loop $-1 $98 $99 $48 #
cone-surface $-1 0 0 0.11724999999999941 0 0 1 0.13275000000000001 0 0 1 I I -0.70710678118654902 0.70710678118654613 0.13275000000000001 forward I I I I #
face $-1 $100 $101 $37 $-1 $70 reversed single #
loop $-1 $-1 $102 $49 #
cone-surface $-1 -4.9769990205472185e-033 0 0.88249999999999995 0 0 1 0.26550000000000001 6.5026597387968232e-017 0 1 I I 0 1 0.26550000000000001 forward I I I I #
face $-1 $103 $104 $39 $-1 $105 forward single #
loop $-1 $106 $107 $50 #
cone-surface $-1 0 0 -0.8364999999999998 0 0 1 -0.2185 0 0 1 I I 0 -1 0.2185 forward I I I I #
face $-1 $108 $109 $41 $-1 $110 forward single #
loop $-1 $111 $112 $51 #
cone-surface $-1 0 0 -0.36849999999999983 0 0 1 -0.1875 0 0 1 I I 0 -1 0.1875 forward I I I I #
model_id-kcp-attrib $-1 $-1 $-1 $54 1 990560116 50 -785252351 4 #
face $113 $114 $115 $11 $-1 $116 forward single #
loop $-1 $117 $118 $54 #
plane-surface $-1 0 0 -0.67200000000000004 0 0 1 1 0 0 forward_v I I I I #
loop $-1 $-1 $119 $43 #
coedge $-1 $82 $82 $120 $121 forward $55 $-1 #
coedge $-1 $83 $83 $57 $84 reversed $122 $-1 #
edge $123 $124 0 $124 6.2831853071795862 $83 $125 forward 7 unknown #
model_id-kcp-attrib $-1 $-1 $-1 $59 1 990560116 50 -785252350 3 #
face $-1 $126 $127 $31 $-1 $128 reversed single #
loop $-1 $-1 $129 $59 #
plane-surface $-1 0 0 -0.88249999999999995 0 0 1 1 0 0 forward_v I I I I #
coedge $-1 $130 $131 $132 $133 forward $60 $-1 #
face $-1 $-1 $134 $33 $-1 $135 forward single #
loop $-1 $136 $137 $62 #
cone-surface $-1 0 0 0 0 0 1 0.125 0 0 1 I I 0 1 0.125 forward I I I I #
loop $-1 $-1 $138 $47 #
coedge $-1 $94 $94 $139 $140 reversed $63 $-1 #
face $-1 $-1 $141 $35 $-1 $142 forward single #
loop $-1 $143 $144 $65 #
cone-surface $-1 0 0 0 0 0 1 0.26550000000000001 0 0 1 I I 0 1 0.26550000000000001 forward I I I I #
loop $-1 $-1 $145 $48 #
coedge $-1 $99 $99 $146 $147 reversed $66 $-1 #
face $-1 $148 $149 $37 $-1 $70 reversed single #
loop $-1 $-1 $150 $68 #
coedge $-1 $151 $152 $153 $154 reversed $69 $-1 #
face $-1 $155 $156 $39 $-1 $157 forward single #
loop $-1 $158 $159 $71 #
cone-surface $-1 -4.9769990205472185e-033 0 -0.83649999999999991 0 0 1 0.26550000000000001 6.5026597387968232e-017 0 1 I I 0 1 0.26550000000000001 forward I I I I #
loop $-1 $-1 $160 $50 #
coedge $-1 $107 $107 $161 $162 forward $72 $-1 #
face $-1 $163 $164 $41 $-1 $165 forward single #
loop $-1 $166 $167 $74 #
cone-surface $-1 -4.9769990205472185e-033 0 -0.36849999999999994 0 0 1 0.26550000000000001 6.5026597387968232e-017 0 1 I I 0 1 0.26550000000000001 forward I I I I #
loop $-1 $-1 $168 $51 #
coedge $-1 $112 $112 $169 $170 forward $75 $-1 #
model_id-kcp-attrib $-1 $-1 $-1 $78 1 990560116 50 -785252351 5 #
face $171 $172 $173 $11 $-1 $174 reversed single #
loop $-1 $175 $176 $78 #
plane-surface $-1 0 0 -1.1399999999999999 0 0 1 1 0 0 forward_v I I I I #
loop $-1 $-1 $177 $54 #
coedge $-1 $118 $118 $178 $179 forward $79 $-1 #
coedge $-1 $119 $119 $180 $181 forward $81 $-1 #
coedge $-1 $120 $120 $82 $121 reversed $182 $-1 #
edge $-1 $183 -3.1415926535897931 $183 3.1415926535897931 $82 $184 forward 7 unknown #
loop $-1 $-1 $83 $172 #
attrib_edge_convexity-kcp-attrib $-1 $185 $-1 $84 1 #
vertex $-1 $84 $186 #
ellipse-curve $-1 0 0 0.57899999999999996 0 0 1 0.065000000000000002 0 0 1 I I #
face $-1 $187 $188 $31 $-1 $189 reversed single #
loop $-1 $-1 $190 $86 #
plane-surface $-1 0 -0.26550000000000001 0 0 1 0 0 0 1 forward_v I I I I #
coedge $-1 $191 $192 $193 $194 forward $87 $-1 #
coedge $-1 $195 $89 $196 $197 forward $60 $-1 #
coedge $-1 $89 $195 $198 $199 forward $60 $-1 #
coedge $-1 $200 $201 $89 $133 reversed $202 $-1 #
edge $-1 $203 -0.26550000000000001 $204 0.26550000000000001 $132 $205 forward 7 unknown #
loop $-1 $206 $139 $90 #
plane-surface $-1 0 0 0.029999999999999971 0 0 1 1 0 0 forward_v I I I I #
loop $-1 $-1 $207 $62 #
coedge $-1 $137 $137 $138 $208 reversed $91 $-1 #
coedge $-1 $138 $138 $137 $208 forward $93 $-1 #
coedge $-1 $139 $139 $94 $140 forward $134 $-1 #
edge $-1 $209 -3.1415926535897931 $209 3.1415926535897931 $139 $210 forward 7 unknown #
loop $-1 $211 $146 $95 #
plane-surface $-1 0 0 0.015499999999999958 0 0 1 1 0 0 forward_v I I I I #
loop $-1 $-1 $212 $65 #
coedge $-1 $144 $144 $145 $213 reversed $96 $-1 #
coedge $-1 $145 $145 $144 $213 forward $98 $-1 #
coedge $-1 $146 $146 $99 $147 forward $141 $-1 #
edge $-1 $214 -3.1415926535897931 $214 3.1415926535897931 $146 $215 forward 7 unknown #
face $-1 $216 $217 $37 $-1 $70 reversed single #
loop $-1 $-1 $218 $100 #
coedge $-1 $219 $220 $221 $222 reversed $101 $-1 #
coedge $-1 $223 $102 $224 $225 reversed $69 $-1 #
coedge $-1 $102 $223 $226 $227 reversed $69 $-1 #
coedge $-1 $228 $229 $230 $154 forward $231 $-1 #
edge $-1 $232 -1.7649999999999999 $233 0 $153 $234 forward 7 unknown #
face $-1 $-1 $235 $39 $-1 $236 reversed single #
loop $-1 $237 $238 $103 #
plane-surface $-1 -0.022207456799398943 8.3546148442891805e-019 -0.36850000000000005 1.042518059254292e-031 1.042518059254292e-031 1 1 0 -1.042518059254292e-031 forward_v I I I I #
loop $-1 $-1 $239 $71 #
coedge $-1 $159 $159 $238 $240 forward $104 $-1 #
coedge $-1 $160 $160 $241 $242 reversed $106 $-1 #
coedge $-1 $161 $161 $107 $162 reversed $237 $-1 #
edge $-1 $243 0 $243 6.2831853071795862 $107 $244 forward 7 unknown #
face $-1 $-1 $245 $41 $-1 $246 reversed single #
loop $-1 $247 $248 $108 #
plane-surface $-1 -0.021201384708007212 3.925185158599764e-018 0.3035000000000001 -2.3334330326283047e-032 -1.1667165163141521e-032 1 1 0 2.3334330326283047e-032 forward_v I I I I #
loop $-1 $-1 $249 $74 #
coedge $-1 $167 $167 $248 $250 forward $109 $-1 #
coedge $-1 $168 $168 $251 $252 reversed $111 $-1 #
coedge $-1 $169 $169 $112 $170 reversed $247 $-1 #
edge $-1 $253 0 $253 6.2831853071795862 $112 $254 forward 7 unknown #
model_id-kcp-attrib $-1 $255 $-1 $114 1 990560116 50 -785252351 16 #
face $256 $257 $258 $11 $-1 $259 forward single #
loop $-1 $-1 $260 $114 #
plane-surface $-1 0 0 -1.1859999999999999 0 0 1 1 0 0 forward_v I I I I #
loop $-1 $-1 $261 $78 #
coedge $-1 $176 $176 $262 $263 forward $115 $-1 #
coedge $-1 $177 $177 $264 $265 forward $117 $-1 #
coedge $-1 $178 $178 $118 $179 reversed $266 $-1 #
edge $-1 $267 -3.1415926535897931 $267 3.1415926535897931 $118 $268 forward 7 unknown #
coedge $-1 $180 $180 $119 $181 reversed $269 $-1 #
edge $-1 $270 0 $270 6.2831853071795862 $180 $271 forward 7 unknown #
loop $-1 $272 $120 $273 #
vertex $-1 $121 $274 #
ellipse-curve $-1 0 0 0 0 0 -1 0.095000000000000001 0 0 1 I I #
convexity-sys-attrib $-1 $-1 $123 $84 #
point $-1 0.065000000000000002 0 0.57899999999999996 #
face $-1 $275 $276 $31 $-1 $277 reversed single #
loop $-1 $-1 $278 $126 #
plane-surface $-1 -0.26550000000000001 0 0 1 0 0 0 0 -1 forward_v I I I I #
coedge $-1 $279 $198 $280 $281 forward $127 $-1 #
coedge $-1 $282 $129 $279 $283 forward $87 $-1 #
coedge $-1 $129 $282 $284 $285 forward $87 $-1 #
coedge $-1 $201 $200 $129 $194 reversed $202 $-1 #
edge $-1 $286 -0.26550000000000001 $287 0.26550000000000001 $193 $288 forward 7 unknown #
coedge $-1 $131 $130 $289 $290 forward $60 $-1 #
coedge $-1 $291 $292 $130 $197 reversed $276 $-1 #
edge $-1 $204 -0.26550000000000001 $293 0.26550000000000001 $196 $294 forward 7 unknown #
coedge $-1 $190 $295 $131 $199 reversed $127 $-1 #
edge $-1 $296 -0.26550000000000001 $203 0.26550000000000001 $198 $297 forward 7 unknown #
coedge $-1 $193 $132 $295 $298 forward $202 $-1 #
coedge $-1 $132 $193 $291 $299 reversed $202 $-1 #
loop $-1 $-1 $200 $275 #
vertex $-1 $133 $300 #
vertex $-1 $133 $301 #
straight-curve $-1 0.26550000000000001 0 0.88249999999999995 0 1 0 I I #
loop $-1 $-1 $302 $90 #
coedge $-1 $207 $207 $302 $303 reversed $136 $-1 #
edge $-1 $304 0 $304 6.2831853071795862 $137 $305 forward 7 unknown #
vertex $-1 $140 $306 #
ellipse-curve $-1 0 0 0.029999999999999971 0 0 -1 0.065000000000000224 0 0 1 I I #
loop $-1 $-1 $307 $95 #
coedge $-1 $212 $212 $307 $308 reversed $143 $-1 #
edge $-1 $309 0 $309 6.2831853071795862 $144 $310 forward 7 unknown #
vertex $-1 $147 $311 #
ellipse-curve $-1 0 0 0.015499999999999958 0 0 -1 0.23449999999999988 0 0 1 I I #
face $-1 $312 $313 $37 $-1 $314 reversed single #
loop $-1 $-1 $315 $148 #
coedge $-1 $316 $317 $318 $319 reversed $149 $-1 #
coedge $-1 $320 $150 $321 $322 reversed $101 $-1 #
coedge $-1 $150 $320 $102 $154 forward $101 $-1 #
coedge $-1 $323 $324 $150 $222 forward $325 $-1 #
edge $-1 $326 -3.1415926535897931 $233 -1.5707963267948963 $221 $327 forward 7 unknown #
coedge $-1 $152 $151 $317 $328 forward $69 $-1 #
coedge $-1 $329 $330 $151 $225 forward $331 $-1 #
edge $-1 $332 -2.4492127076447545e-016 $232 1.5707963267948963 $224 $333 forward 7 unknown #
coedge $-1 $334 $335 $152 $227 forward $336 $-1 #
edge $-1 $233 -1.5707963267948963 $337 2.4492127076447545e-016 $226 $327 forward 7 unknown #
coedge $-1 $338 $153 $335 $339 reversed $231 $-1 #
coedge $-1 $153 $338 $329 $340 reversed $231 $-1 #
coedge $-1 $341 $342 $220 $154 reversed $343 $-1 #
loop $-1 $-1 $153 $344 #
vertex $-1 $340 $345 #
vertex $-1 $346 $347 #
straight-curve $-1 -4.9769990205472185e-033 0.26550000000000001 0.88249999999999995 0 0 1 I I #
loop $-1 $348 $349 $155 #
plane-surface $-1 -0.022207456799398943 8.3546148442891805e-019 -0.83649999999999991 1.042518059254292e-031 1.042518059254292e-031 1 1 0 -1.042518059254292e-031 forward_v I I I I #
loop $-1 $-1 $161 $103 #
coedge $-1 $238 $238 $159 $240 reversed $156 $-1 #
coedge $-1 $239 $239 $349 $350 reversed $158 $-1 #
edge $-1 $351 -3.1415926535897931 $351 3.1415926535897931 $159 $352 forward 7 unknown #
coedge $-1 $241 $241 $160 $242 forward $348 $-1 #
edge $-1 $353 0 $353 6.2831853071795862 $160 $354 forward 7 unknown #
vertex $-1 $162 $355 #
ellipse-curve $-1 0 0 -0.36849999999999994 0 0 1 -0.2185 0 0 1 I I #
loop $-1 $356 $357 $163 #
plane-surface $-1 -0.021201384708007212 3.925185158599764e-018 -0.36849999999999994 -2.3334330326283047e-032 -1.1667165163141521e-032 1 1 0 2.3334330326283047e-032 forward_v I I I I #
loop $-1 $-1 $169 $108 #
coedge $-1 $248 $248 $167 $250 reversed $164 $-1 #
coedge $-1 $249 $249 $357 $358 reversed $166 $-1 #
edge $-1 $359 -3.1415926535897931 $359 3.1415926535897931 $167 $360 forward 7 unknown #
coedge $-1 $251 $251 $168 $252 forward $356 $-1 #
edge $-1 $361 0 $361 6.2831853071795862 $168 $362 forward 7 unknown #
vertex $-1 $170 $363 #
ellipse-curve $-1 0 0 0.30350000000000021 0 0 1 -0.1875 0 0 1 I I #
model_id-kcp-attrib $-1 $-1 $171 $114 1 990560116 50 -785252351 6 #
model_id-kcp-attrib $-1 $-1 $-1 $172 1 990560116 50 -785252351 7 #
face $364 $365 $366 $11 $-1 $367 forward single #
loop $-1 $122 $368 $172 #
cone-surface $-1 0 0 0.51900000000000002 0 0 -1 0.125 0 0 1 I I 0.70710678118654702 0.70710678118654802 0.125 forward I I I I #
coedge $-1 $260 $260 $369 $370 forward $173 $-1 #
coedge $-1 $261 $261 $371 $372 forward $175 $-1 #
coedge $-1 $262 $262 $176 $263 reversed $373 $-1 #
edge $-1 $374 -3.1415926535897931 $374 3.1415926535897931 $176 $375 forward 7 unknown #
coedge $-1 $264 $264 $177 $265 reversed $376 $-1 #
edge $-1 $377 0 $377 6.2831853071795862 $264 $378 forward 7 unknown #
loop $-1 $269 $178 $379 #
vertex $-1 $179 $380 #
ellipse-curve $-1 0 0 -0.67200000000000004 0 0 -1 0.1875 0 0 1 I I #
loop $-1 $-1 $180 $379 #
vertex $-1 $181 $381 #
ellipse-curve $-1 0 0 0 0 0 1 0.1875 0 0 1 I I #
loop $-1 $-1 $382 $273 #
face $383 $379 $182 $11 $-1 $384 forward single #
point $-1 -0.095000000000000001 0 0 #
face $-1 $-1 $202 $31 $-1 $385 reversed single #
loop $-1 $-1 $291 $187 #
plane-surface $-1 0 0.26550000000000001 0 0 -1 0 0 0 -1 forward_v I I I I #
coedge $-1 $386 $289 $292 $387 forward $188 $-1 #
coedge $-1 $295 $190 $191 $283 reversed $127 $-1 #
coedge $-1 $289 $386 $190 $281 reversed $188 $-1 #
edge $-1 $296 -0.88249999999999995 $388 0.88249999999999995 $280 $389 forward 7 unknown #
coedge $-1 $192 $191 $386 $390 forward $87 $-1 #
edge $-1 $287 -0.26550000000000001 $388 0.26550000000000001 $279 $391 forward 7 unknown #
coedge $-1 $292 $291 $192 $285 reversed $276 $-1 #
edge $-1 $392 -0.26550000000000001 $286 0.26550000000000001 $284 $393 forward 7 unknown #
vertex $-1 $194 $394 #
vertex $-1 $298 $395 #
straight-curve $-1 0.26550000000000001 0 -0.88249999999999995 0 -1 0 I I #
coedge $-1 $278 $280 $195 $290 reversed $188 $-1 #
edge $-1 $293 -0.26550000000000001 $296 0.26550000000000001 $289 $396 forward 7 unknown #
coedge $-1 $284 $196 $201 $299 forward $276 $-1 #
coedge $-1 $196 $284 $278 $387 reversed $276 $-1 #
vertex $-1 $197 $397 #
straight-curve $-1 0 0.26550000000000001 0.88249999999999995 -1 0 0 I I #
coedge $-1 $198 $279 $200 $298 reversed $127 $-1 #
vertex $-1 $290 $398 #
straight-curve $-1 0 -0.26550000000000001 0.88249999999999995 1 0 0 I I #
edge $-1 $203 -0.88249999999999995 $287 0.88249999999999995 $200 $399 forward 7 unknown #
edge $-1 $204 -0.88249999999999995 $286 0.88249999999999995 $201 $400 forward 7 unknown #
point $-1 0.26550000000000001 -0.26550000000000001 0.88249999999999995 #
point $-1 0.26550000000000001 0.26550000000000001 0.88249999999999995 #
coedge $-1 $302 $302 $207 $303 forward $206 $-1 #
edge $-1 $401 0 $401 6.2831853071795862 $302 $402 forward 7 unknown #
vertex $-1 $208 $403 #
ellipse-curve $-1 0 0 -0.029999999999999971 0 0 -1 0.125 0 0 1 I I #
point $-1 -0.065000000000000224 7.9599412998454803e-018 0.029999999999999971 #
coedge $-1 $307 $307 $212 $308 forward $211 $-1 #
edge $-1 $404 0 $404 6.2831853071795862 $307 $405 forward 7 unknown #
vertex $-1 $213 $406 #
ellipse-curve $-1 0 0 -0.015499999999999958 0 0 -1 0.26550000000000001 0 0 1 I I #
point $-1 -0.23449999999999988 2.8717018997134734e-017 0.015499999999999958 #
face $-1 $407 $343 $37 $-1 $408 reversed single #
loop $-1 $-1 $409 $216 #
plane-surface $-1 0.26550000000000001 0 0 -1 0 0 0 0 1 forward_v I I I I #
coedge $-1 $410 $411 $412 $413 reversed $217 $-1 #
coedge $-1 $414 $218 $411 $415 forward $149 $-1 #
coedge $-1 $218 $414 $416 $328 reversed $149 $-1 #
coedge $-1 $417 $418 $218 $319 forward $419 $-1 #
edge $-1 $420 -1.5707963267948968 $332 -2.4492127076447545e-016 $318 $333 forward 7 unknown #
coedge $-1 $220 $219 $421 $422 reversed $101 $-1 #
coedge $-1 $423 $424 $425 $322 forward $426 $-1 #
edge $-1 $427 -1.7649999999999999 $326 0 $321 $428 forward 7 unknown #
coedge $-1 $324 $221 $342 $346 forward $325 $-1 #
coedge $-1 $221 $323 $423 $429 forward $325 $-1 #
loop $-1 $-1 $221 $430 #
vertex $-1 $431 $432 #
ellipse-curve $-1 -4.9769990205472185e-033 0 0.88249999999999995 0 0 -1 0.26550000000000001 6.5026597387968232e-017 0 1 I I #
edge $-1 $332 -1.7649999999999999 $337 0 $416 $433 forward 7 unknown #
coedge $-1 $330 $224 $229 $340 forward $331 $-1 #
coedge $-1 $224 $329 $434 $435 forward $331 $-1 #
loop $-1 $-1 $224 $436 #
vertex $-1 $437 $438 #
ellipse-curve $-1 -4.9769990205472185e-033 0 -0.88249999999999995 0 0 1 0.26550000000000001 6.5026597387968232e-017 0 1 I I #
coedge $-1 $335 $226 $439 $440 forward $336 $-1 #
coedge $-1 $226 $334 $228 $339 forward $336 $-1 #
loop $-1 $-1 $226 $441 #
vertex $-1 $440 $442 #
coedge $-1 $229 $228 $443 $444 forward $231 $-1 #
edge $-1 $445 -0.26550000000000001 $233 4.9769990205472185e-033 $228 $446 forward 7 unknown #
edge $-1 $232 -4.9769990205472185e-033 $447 0.26550000000000001 $229 $448 forward 7 unknown #
coedge $-1 $449 $230 $450 $451 reversed $343 $-1 #
coedge $-1 $230 $449 $323 $346 reversed $343 $-1 #
loop $-1 $-1 $230 $312 #
face $-1 $452 $231 $37 $-1 $408 reversed single #
point $-1 -4.9769990205472185e-033 0.26550000000000001 -0.88249999999999995 #
edge $-1 $233 4.9769990205472185e-033 $453 0.26550000000000001 $342 $446 forward 7 unknown #
point $-1 -4.9769990205472185e-033 0.26550000000000001 0.88249999999999995 #
loop $-1 $-1 $241 $155 #
coedge $-1 $349 $349 $239 $350 forward $235 $-1 #
edge $454 $455 -3.1415926535897931 $455 3.1415926535897931 $239 $456 forward 7 unknown #
vertex $-1 $240 $457 #
ellipse-curve $-1 -4.9769990205472185e-033 0 -0.36850000000000005 0 0 -1 0.26550000000000001 6.5026597387968232e-017 0 1 I I #
vertex $-1 $242 $458 #
ellipse-curve $-1 0 0 -0.8364999999999998 0 0 1 -0.2185 0 0 1 I I #
point $-1 -0.2185 0 -0.36850000000000005 #
loop $-1 $-1 $251 $163 #
coedge $-1 $357 $357 $249 $358 forward $245 $-1 #
edge $459 $460 -3.1415926535897931 $460 3.1415926535897931 $249 $461 forward 7 unknown #
vertex $-1 $250 $462 #
ellipse-curve $-1 -4.9769990205472185e-033 0 0.3035000000000001 0 0 -1 0.26550000000000001 6.5026597387968232e-017 0 1 I I #
vertex $-1 $252 $463 #
ellipse-curve $-1 0 0 -0.36849999999999983 0 0 1 -0.1875 0 0 1 I I #
point $-1 -0.1875 0 0.30349999999999999 #
model_id-kcp-attrib $-1 $-1 $-1 $257 1 990560116 50 -785252351 8 #
face $464 $273 $465 $11 $-1 $466 forward single #
loop $-1 $467 $468 $257 #
cone-surface $-1 0 0 -1.2742500000000001 0 0 1 -0.125 0 0 1 I I 0 1 0.125 forward I I I I #
coedge $-1 $368 $368 $469 $470 forward $258 $-1 #
coedge $-1 $369 $369 $260 $370 reversed $471 $-1 #
edge $472 $473 -3.1415926535897931 $473 3.1415926535897931 $260 $474 forward 7 unknown #
coedge $-1 $371 $371 $261 $372 reversed $475 $-1 #
edge $-1 $476 0 $476 6.2831853071795862 $371 $477 forward 7 unknown #
loop $-1 $376 $262 $478 #
vertex $-1 $263 $479 #
ellipse-curve $-1 0 0 -1.1399999999999999 0 0 -1 0.2185 0 0 1 I I #
loop $-1 $-1 $264 $478 #
vertex $-1 $265 $480 #
ellipse-curve $-1 0 0 -0.67200000000000004 0 0 1 0.2185 0 0 1 I I #
face $481 $478 $266 $11 $-1 $482 forward single #
point $-1 -0.1875 0 -0.67200000000000004 #
point $-1 0.1875 0 0 #
coedge $-1 $382 $382 $483 $484 reversed $272 $-1 #
model_id-kcp-attrib $-1 $-1 $-1 $273 1 990560116 50 -785252351 10 #
cone-surface $-1 0 0 -1.2742500000000001 0 0 1 -0.095000000000000001 0 0 1 I I 0 1 0.095000000000000001 forward I I I I #
plane-surface $-1 0.26550000000000001 0 0 -1 0 0 0 0 1 forward_v I I I I #
coedge $-1 $280 $278 $282 $390 reversed $188 $-1 #
edge $-1 $293 -0.88249999999999995 $392 0.88249999999999995 $292 $485 forward 7 unknown #
vertex $-1 $390 $486 #
straight-curve $-1 -0.26550000000000001 -0.26550000000000001 0 0 0 -1 I I #
edge $-1 $388 -0.26550000000000001 $392 0.26550000000000001 $386 $487 forward 7 unknown #
straight-curve $-1 0 -0.26550000000000001 -0.88249999999999995 -1 0 0 I I #
vertex $-1 $285 $488 #
straight-curve $-1 0 0.26550000000000001 -0.88249999999999995 1 0 0 I I #
point $-1 0.26550000000000001 0.26550000000000001 -0.88249999999999995 #
point $-1 0.26550000000000001 -0.26550000000000001 -0.88249999999999995 #
straight-curve $-1 -0.26550000000000001 0 0.88249999999999995 0 -1 0 I I #
point $-1 -0.26550000000000001 0.26550000000000001 0.88249999999999995 #
point $-1 -0.26550000000000001 -0.26550000000000001 0.88249999999999995 #
straight-curve $-1 0.26550000000000001 -0.26550000000000001 0 0 0 -1 I I #
straight-curve $-1 0.26550000000000001 0.26550000000000001 0 0 0 -1 I I #
vertex $-1 $303 $489 #
ellipse-curve $-1 0 0 0.029999999999999971 0 0 1 0.125 0 0 1 I I #
point $-1 0.125 0 -0.029999999999999971 #
vertex $-1 $308 $490 #
ellipse-curve $-1 0 0 0.015499999999999958 0 0 1 0.26550000000000001 0 0 1 I I #
point $-1 0.26550000000000001 0 -0.015499999999999958 #
face $-1 $491 $492 $37 $-1 $493 reversed single #
plane-surface $-1 0 0.26550000000000001 0 0 -1 0 0 0 -1 forward_v I I I I #
coedge $-1 $434 $439 $223 $328 reversed $313 $-1 #
coedge $-1 $494 $315 $219 $322 forward $217 $-1 #
coedge $-1 $315 $494 $495 $415 reversed $217 $-1 #
coedge $-1 $496 $497 $315 $413 forward $498 $-1 #
edge $-1 $427 -3.1415926535897931 $420 -1.5707963267948968 $412 $333 forward 7 unknown #
coedge $-1 $317 $316 $499 $500 reversed $149 $-1 #
edge $-1 $420 -1.7649999999999999 $501 0 $495 $502 forward 7 unknown #
coedge $-1 $503 $504 $409 $328 forward $505 $-1 #
coedge $-1 $418 $318 $504 $437 forward $419 $-1 #
coedge $-1 $318 $417 $506 $507 forward $419 $-1 #
loop $-1 $-1 $318 $508 #
vertex $-1 $509 $510 #
coedge $-1 $511 $450 $320 $422 forward $512 $-1 #
edge $-1 $232 1.5707963267948963 $427 3.1415926535897931 $421 $333 forward 7 unknown #
coedge $-1 $513 $321 $324 $429 reversed $426 $-1 #
coedge $-1 $321 $513 $511 $514 reversed $426 $-1 #
coedge $-1 $515 $516 $410 $322 reversed $492 $-1 #
loop $-1 $-1 $321 $517 #
vertex $-1 $514 $518 #
straight-curve $-1 -0.26550000000000001 0 0.88249999999999995 0 0 1 I I #
edge $-1 $453 -0.26550000000000001 $326 0 $423 $519 forward 7 unknown #
face $-1 $441 $325 $37 $-1 $520 forward single #
edge $-1 $326 0 $521 0.26550000000000001 $516 $519 forward 7 unknown #
point $-1 -0.26550000000000001 0 0.88249999999999995 #
straight-curve $-1 0.26550000000000001 0 0.88249999999999995 0 0 1 I I #
coedge $-1 $443 $409 $330 $435 reversed $313 $-1 #
edge $-1 $447 -0.26550000000000001 $332 0 $434 $522 forward 7 unknown #
face $-1 $523 $331 $37 $-1 $524 reversed single #
edge $-1 $332 0 $525 0.26550000000000001 $504 $522 forward 7 unknown #
point $-1 0.26550000000000001 0 -0.88249999999999995 #
coedge $-1 $409 $443 $334 $440 reversed $313 $-1 #
edge $-1 $337 0 $445 0.26550000000000001 $439 $526 forward 7 unknown #
face $-1 $527 $336 $37 $-1 $520 forward single #
point $-1 0.26550000000000001 0 0.88249999999999995 #
coedge $-1 $439 $434 $338 $444 reversed $313 $-1 #
edge $-1 $445 -0.88249999999999995 $447 0.88249999999999995 $443 $528 forward 7 unknown #
vertex $-1 $440 $529 #
straight-curve $-1 0 0.26550000000000001 0.88249999999999995 -1 0 0 I I #
vertex $-1 $435 $530 #
straight-curve $-1 0 0.26550000000000001 -0.88249999999999995 1 0 0 I I #
coedge $-1 $342 $341 $513 $531 reversed $343 $-1 #
coedge $-1 $421 $511 $341 $451 forward $512 $-1 #
edge $-1 $532 -0.26550000000000001 $232 -4.9769990205472185e-033 $341 $448 forward 7 unknown #
face $-1 $-1 $505 $37 $-1 $314 reversed single #
vertex $-1 $346 $533 #
convexity-sys-attrib $-1 $-1 $-1 $350 #
vertex $-1 $350 $534 #
ellipse-curve $-1 -4.9769990205472185e-033 0 -0.83649999999999991 0 0 -1 0.26550000000000001 6.5026597387968232e-017 0 1 I I #
point $-1 -0.26550000000000001 -3.2513298693984116e-017 -0.36850000000000005 #
point $-1 -0.2185 0 -0.83649999999999991 #
convexity-sys-attrib $-1 $-1 $-1 $358 #
vertex $-1 $358 $535 #
ellipse-curve $-1 -4.9769990205472185e-033 0 -0.36849999999999994 0 0 -1 0.26550000000000001 6.5026597387968232e-017 0 1 I I #
point $-1 -0.26550000000000001 -3.2513298693984116e-017 0.3035000000000001 #
point $-1 -0.1875 0 -0.36850000000000005 #
model_id-kcp-attrib $-1 $-1 $-1 $365 1 990560116 50 -785252351 9 #
loop $-1 $536 $483 $365 #
cone-surface $-1 0 0 0.080000000000000002 0 0 1 0.125 0 0 1 I I 0.70710678118654702 0.70710678118654802 0.125 forward I I I I #
loop $-1 $-1 $469 $257 #
coedge $-1 $468 $468 $537 $538 forward $366 $-1 #
coedge $-1 $469 $469 $368 $470 reversed $467 $-1 #
edge $539 $540 -3.1415926535897931 $540 3.1415926535897931 $469 $541 forward 7 unknown #
loop $-1 $542 $369 $543 #
attrib_edge_convexity-kcp-attrib $-1 $544 $-1 $370 1 #
vertex $-1 $370 $545 #
ellipse-curve $-1 0 0 -1.1859999999999999 0 0 -1 0.23449999999999999 0 0 1 I I #
loop $-1 $-1 $371 $546 #
vertex $-1 $372 $547 #
ellipse-curve $-1 0 0 -1.1399999999999999 0 0 1 0.26550000000000001 0 0 1 I I #
face $548 $546 $373 $11 $-1 $549 forward single #
point $-1 -0.2185 0 -1.1399999999999999 #
point $-1 0.2185 0 -0.67200000000000004 #
model_id-kcp-attrib $-1 $-1 $-1 $379 1 990560116 50 -785252351 11 #
cone-surface $-1 0 0 -1.2742500000000001 0 0 1 -0.1875 0 0 1 I I 0 1 0.1875 forward I I I I #
coedge $-1 $483 $483 $382 $484 forward $465 $-1 #
edge $-1 $550 -3.1415926535897931 $550 3.1415926535897931 $382 $551 forward 7 unknown #
straight-curve $-1 -0.26550000000000001 0.26550000000000001 0 0 0 -1 I I #
point $-1 -0.26550000000000001 -0.26550000000000001 -0.88249999999999995 #
straight-curve $-1 -0.26550000000000001 0 -0.88249999999999995 0 1 0 I I #
point $-1 -0.26550000000000001 0.26550000000000001 -0.88249999999999995 #
point $-1 0.125 0 0.029999999999999971 #
point $-1 0.26550000000000001 0 0.015499999999999958 #
face $-1 $430 $552 $37 $-1 $520 forward single #
loop $-1 $-1 $425 $407 #
plane-surface $-1 -0.26550000000000001 0 0 1 0 0 0 0 -1 forward_v I I I I #
coedge $-1 $411 $410 $553 $554 reversed $217 $-1 #
coedge $-1 $555 $556 $557 $415 forward $558 $-1 #
coedge $-1 $497 $412 $556 $509 forward $498 $-1 #
coedge $-1 $412 $496 $515 $559 forward $498 $-1 #
loop $-1 $-1 $412 $560 #
coedge $-1 $561 $562 $414 $500 forward $563 $-1 #
edge $-1 $337 2.4492127076447545e-016 $501 1.5707963267948968 $499 $327 forward 7 unknown #
vertex $-1 $564 $565 #
straight-curve $-1 -4.9769990205472185e-033 -0.26550000000000001 0.88249999999999995 0 0 1 I I #
coedge $-1 $566 $416 $562 $567 reversed $505 $-1 #
coedge $-1 $416 $566 $417 $437 reversed $505 $-1 #
loop $-1 $-1 $416 $452 #
coedge $-1 $568 $557 $418 $507 reversed $569 $-1 #
edge $-1 $525 -0.26550000000000001 $420 4.9769990205472185e-033 $506 $570 forward 7 unknown #
face $-1 $436 $419 $37 $-1 $524 reversed single #
edge $-1 $420 4.9769990205472185e-033 $571 0.26550000000000001 $556 $570 forward 7 unknown #
point $-1 -4.9769990205472185e-033 -0.26550000000000001 -0.88249999999999995 #
coedge $-1 $450 $421 $424 $514 forward $512 $-1 #
loop $-1 $-1 $421 $523 #
coedge $-1 $424 $423 $449 $531 forward $426 $-1 #
edge $-1 $427 0 $532 0.26550000000000001 $424 $572 forward 7 unknown #
coedge $-1 $573 $425 $497 $559 reversed $492 $-1 #
coedge $-1 $425 $573 $574 $431 reversed $492 $-1 #
face $-1 $344 $426 $37 $-1 $493 reversed single #
point $-1 -0.26550000000000001 0 -0.88249999999999995 #
straight-curve $-1 -0.26550000000000001 0 0.88249999999999995 0 -1 0 I I #
plane-surface $-1 0 0 0.88249999999999995 0 0 1 1 0 0 forward_v I I I I #
vertex $-1 $431 $575 #
straight-curve $-1 0.26550000000000001 0 -0.88249999999999995 0 -1 0 I I #
face $-1 $576 $512 $37 $-1 $524 reversed single #
plane-surface $-1 0 0 -0.88249999999999995 0 0 1 1 0 0 forward_v I I I I #
vertex $-1 $577 $578 #
straight-curve $-1 0.26550000000000001 0 0.88249999999999995 0 1 0 I I #
face $-1 $579 $563 $37 $-1 $520 forward single #
straight-curve $-1 0.26550000000000001 0.26550000000000001 0 0 0 -1 I I #
point $-1 0.26550000000000001 0.26550000000000001 0.88249999999999995 #
point $-1 0.26550000000000001 0.26550000000000001 -0.88249999999999995 #
edge $-1 $453 -0.88249999999999995 $532 0.88249999999999995 $449 $580 forward 7 unknown #
vertex $-1 $451 $581 #
point $-1 -0.26550000000000001 0.26550000000000001 0.88249999999999995 #
point $-1 -0.26550000000000001 -3.2513298693984116e-017 -0.83649999999999991 #
point $-1 -0.26550000000000001 -3.2513298693984116e-017 -0.36849999999999994 #
loop $-1 $-1 $537 $365 #
coedge $-1 $537 $537 $468 $538 reversed $536 $-1 #
edge $-1 $582 -3.1415926535897931 $582 3.1415926535897931 $537 $583 forward 7 unknown #
attrib_edge_convexity-kcp-attrib $-1 $584 $-1 $470 1 #
vertex $-1 $470 $585 #
ellipse-curve $-1 0 0 0.51900000000000002 0 0 1 0.125 0 0 1 I I #
loop $-1 $-1 $586 $543 #
face $587 $-1 $471 $11 $-1 $588 forward single #
convexity-sys-attrib $-1 $-1 $472 $370 #
point $-1 -0.23449999999999999 0 -1.1859999999999999 #
face $589 $543 $590 $11 $-1 $591 forward single #
point $-1 0.26550000000000001 0 -1.1399999999999999 #
model_id-kcp-attrib $-1 $-1 $-1 $478 1 990560116 50 -785252351 12 #
cone-surface $-1 0 0 -1.2742500000000001 0 0 1 -0.2185 0 0 1 I I 0 1 0.2185 forward I I I I #
vertex $-1 $484 $592 #
ellipse-curve $-1 0 0 0.050000000000000003 0 0 1 0.095000000000000001 0 0 1 I I #
loop $-1 $-1 $553 $491 #
coedge $-1 $574 $593 $494 $554 forward $552 $-1 #
edge $-1 $501 1.5707963267948968 $326 3.1415926535897931 $553 $327 forward 7 unknown #
coedge $-1 $594 $495 $593 $595 reversed $558 $-1 #
coedge $-1 $495 $594 $496 $509 reversed $558 $-1 #
coedge $-1 $506 $596 $316 $415 reversed $569 $-1 #
loop $-1 $-1 $495 $576 #
edge $-1 $571 -0.26550000000000001 $427 0 $515 $572 forward 7 unknown #
face $-1 $508 $498 $37 $-1 $524 reversed single #
coedge $-1 $562 $499 $596 $564 forward $563 $-1 #
coedge $-1 $499 $561 $503 $567 forward $563 $-1 #
loop $-1 $-1 $499 $527 #
edge $-1 $501 -4.9769990205472185e-033 $597 0.26550000000000001 $596 $598 forward 7 unknown #
point $-1 -4.9769990205472185e-033 -0.26550000000000001 0.88249999999999995 #
coedge $-1 $504 $503 $568 $577 forward $505 $-1 #
edge $-1 $597 -0.26550000000000001 $337 0 $503 $526 forward 7 unknown #
coedge $-1 $596 $506 $566 $577 reversed $569 $-1 #
loop $-1 $-1 $557 $579 #
straight-curve $-1 0 -0.26550000000000001 -0.88249999999999995 -1 0 0 I I #
vertex $-1 $559 $599 #
straight-curve $-1 -0.26550000000000001 0 -0.88249999999999995 0 1 0 I I #
coedge $-1 $516 $515 $594 $600 reversed $492 $-1 #
coedge $-1 $593 $553 $516 $431 forward $552 $-1 #
point $-1 -0.26550000000000001 -0.26550000000000001 0.88249999999999995 #
face $-1 $517 $558 $37 $-1 $601 reversed single #
edge $-1 $597 -0.88249999999999995 $525 0.88249999999999995 $566 $602 forward 7 unknown #
point $-1 0.26550000000000001 -0.26550000000000001 -0.88249999999999995 #
face $-1 $560 $569 $37 $-1 $601 reversed single #
straight-curve $-1 -0.26550000000000001 0.26550000000000001 0 0 0 -1 I I #
point $-1 -0.26550000000000001 0.26550000000000001 -0.88249999999999995 #
vertex $-1 $538 $603 #
ellipse-curve $-1 0 0 0.080000000000000002 0 0 1 0.125 0 0 1 I I #
convexity-sys-attrib $-1 $-1 $539 $470 #
point $-1 -0.125 0 0.51900000000000002 #
coedge $-1 $586 $586 $604 $605 reversed $542 $-1 #
model_id-kcp-attrib $-1 $-1 $-1 $543 1 990560116 50 -785252351 14 #
cone-surface $-1 0 0 -1.155 0 0 1 0.26550000000000001 0 0 1 I I 0.70710678118654902 0.70710678118654602 0.26550000000000001 forward I I I I #
model_id-kcp-attrib $-1 $-1 $-1 $546 1 990560116 50 -785252351 13 #
loop $-1 $475 $604 $546 #
cone-surface $-1 0 0 -1.2742500000000001 0 0 1 -0.26550000000000001 0 0 1 I I 0 1 0.26550000000000001 forward I I I I #
point $-1 -0.095000000000000001 0 0.050000000000000003 #
coedge $-1 $553 $574 $555 $595 forward $552 $-1 #
coedge $-1 $556 $555 $573 $600 forward $558 $-1 #
edge $-1 $521 -0.26550000000000001 $501 -4.9769990205472185e-033 $555 $598 forward 7 unknown #
coedge $-1 $557 $568 $561 $564 reversed $569 $-1 #
vertex $-1 $567 $606 #
straight-curve $-1 0 -0.26550000000000001 0.88249999999999995 1 0 0 I I #
point $-1 -0.26550000000000001 -0.26550000000000001 -0.88249999999999995 #
edge $-1 $521 -0.88249999999999995 $571 0.88249999999999995 $573 $607 forward 7 unknown #
plane-surface $-1 0 -0.26550000000000001 0 0 1 0 0 0 1 forward_v I I I I #
straight-curve $-1 0.26550000000000001 -0.26550000000000001 0 0 0 -1 I I #
point $-1 -0.125 0 0.080000000000000002 #
coedge $-1 $604 $604 $586 $605 forward $590 $-1 #
edge $608 $609 -3.1415926535897931 $609 3.1415926535897931 $586 $610 forward 7 unknown #
point $-1 0.26550000000000001 -0.26550000000000001 0.88249999999999995 #
straight-curve $-1 -0.26550000000000001 -0.26550000000000001 0 0 0 -1 I I #
attrib_edge_convexity-kcp-attrib $-1 $611 $-1 $605 1 #
vertex $-1 $605 $612 #
ellipse-curve $-1 0 0 -1.155 0 0 1 0.26550000000000001 0 0 1 I I #
convexity-sys-attrib $-1 $-1 $608 $605 #
point $-1 -0.26550000000000001 0 -1.155 #
End-of-ACIS-data 