600 0 1 0           
124 GICL ACIS Healer - Source: /gicl/data5/repository/NIST/Manfred_Osti/spectrometer/bearing_shaft_57/bearing_shaft_57.sat - 6 0 18 ACIS 6.0.3 Solaris 24 Sun Apr 14 00:38:05 2002 
1 9.999999999999999547e-07 1.000000000000000036e-10 
body $-1 $1 $-1 $2 #
lump $-1 $-1 $3 $0 #
transform $-1 1 0 0 0 1 0 0 0 1 0 0 0 1 no_rotate no_reflect no_shear #
shell $-1 $-1 $-1 $4 $-1 $1 #
face $-1 $5 $6 $3 $-1 $7 forward single #
face $-1 $8 $9 $3 $-1 $10 forward single #
loop $-1 $-1 $11 $4 #
plane-surface $-1 0 0 0.5789999999999999591 0 0 1 1 0 0 forward_v I I I I #
face $-1 $12 $13 $3 $-1 $14 forward single #
loop $-1 $15 $16 $5 #
plane-surface $-1 0 0 0 0 0 1 1 0 0 forward_v I I I I #
coedge $-1 $11 $11 $17 $18 forward $6 $-1 #
face $-1 $19 $20 $3 $-1 $21 forward single #
loop $-1 $22 $23 $8 #
plane-surface $-1 0 0 -0.6720000000000000417 0 0 1 1 0 0 forward_v I I I I #
loop $-1 $-1 $24 $5 #
coedge $-1 $16 $16 $25 $26 forward $9 $-1 #
coedge $-1 $17 $17 $11 $18 reversed $27 $-1 #
edge $-1 $28 0 $28 6.283185307179586232 $17 $29 forward 7 unknown #
face $-1 $30 $31 $3 $-1 $32 reversed single #
loop $-1 $33 $34 $12 #
plane-surface $-1 0 0 -1.139999999999999902 0 0 1 1 0 0 forward_v I I I I #
loop $-1 $-1 $35 $8 #
coedge $-1 $23 $23 $36 $37 forward $13 $-1 #
coedge $-1 $24 $24 $38 $39 forward $15 $-1 #
coedge $-1 $25 $25 $16 $26 reversed $40 $-1 #
edge $-1 $41 -3.141592653589793116 $41 3.141592653589793116 $16 $42 forward 7 unknown #
loop $-1 $-1 $17 $30 #
vertex $-1 $18 $43 #
ellipse-curve $-1 0 0 0.5789999999999999591 0 0 1 0.06500000000000000222 0 0 1 I I #
face $-1 $44 $45 $3 $-1 $46 forward single #
loop $-1 $-1 $47 $19 #
plane-surface $-1 0 0 -1.185999999999999943 0 0 1 1 0 0 forward_v I I I I #
loop $-1 $-1 $48 $12 #
coedge $-1 $34 $34 $49 $50 forward $20 $-1 #
coedge $-1 $35 $35 $51 $52 forward $22 $-1 #
coedge $-1 $36 $36 $23 $37 reversed $53 $-1 #
edge $-1 $54 -3.141592653589793116 $54 3.141592653589793116 $23 $55 forward 7 unknown #
coedge $-1 $38 $38 $24 $39 reversed $56 $-1 #
edge $-1 $57 0 $57 6.283185307179586232 $38 $58 forward 7 unknown #
loop $-1 $59 $25 $60 #
vertex $-1 $26 $61 #
ellipse-curve $-1 0 0 0 0 0 -1 0.09500000000000000111 0 0 1 I I #
point $-1 0.06500000000000000222 0 0.5789999999999999591 #
face $-1 $62 $63 $3 $-1 $64 forward single #
loop $-1 $27 $65 $30 #
cone-surface $-1 0 0 0.5190000000000000169 0 0 -1 0.125 0 0 1 I I 0.7071067811865470176 0.7071067811865480168 0.125 forward I I I I #
coedge $-1 $47 $47 $66 $67 forward $31 $-1 #
coedge $-1 $48 $48 $68 $69 forward $33 $-1 #
coedge $-1 $49 $49 $34 $50 reversed $70 $-1 #
edge $-1 $71 -3.141592653589793116 $71 3.141592653589793116 $34 $72 forward 7 unknown #
coedge $-1 $51 $51 $35 $52 reversed $73 $-1 #
edge $-1 $74 0 $74 6.283185307179586232 $51 $75 forward 7 unknown #
loop $-1 $56 $36 $76 #
vertex $-1 $37 $77 #
ellipse-curve $-1 0 0 -0.6720000000000000417 0 0 -1 0.1875 0 0 1 I I #
loop $-1 $-1 $38 $76 #
vertex $-1 $39 $78 #
ellipse-curve $-1 0 0 0 0 0 1 0.1875 0 0 1 I I #
loop $-1 $-1 $79 $60 #
face $-1 $76 $40 $3 $-1 $80 forward single #
point $-1 -0.09500000000000000111 0 0 #
face $-1 $60 $81 $3 $-1 $82 forward single #
loop $-1 $83 $84 $44 #
cone-surface $-1 0 0 -1.274250000000000105 0 0 1 -0.125 0 0 1 I I 0 1 0.125 forward I I I I #
coedge $-1 $65 $65 $85 $86 forward $45 $-1 #
coedge $-1 $66 $66 $47 $67 reversed $87 $-1 #
edge $-1 $88 -3.141592653589793116 $88 3.141592653589793116 $47 $89 forward 7 unknown #
coedge $-1 $68 $68 $48 $69 reversed $90 $-1 #
edge $-1 $91 0 $91 6.283185307179586232 $68 $92 forward 7 unknown #
loop $-1 $73 $49 $93 #
vertex $-1 $50 $94 #
ellipse-curve $-1 0 0 -1.139999999999999902 0 0 -1 0.2184999999999999998 0 0 1 I I #
loop $-1 $-1 $51 $93 #
vertex $-1 $52 $95 #
ellipse-curve $-1 0 0 -0.6720000000000000417 0 0 1 0.2184999999999999998 0 0 1 I I #
face $-1 $93 $53 $3 $-1 $96 forward single #
point $-1 -0.1875 0 -0.6720000000000000417 #
point $-1 0.1875 0 0 #
coedge $-1 $79 $79 $97 $98 reversed $59 $-1 #
cone-surface $-1 0 0 -1.274250000000000105 0 0 1 -0.09500000000000000111 0 0 1 I I 0 1 0.09500000000000000111 forward I I I I #
loop $-1 $99 $97 $62 #
cone-surface $-1 0 0 0.08000000000000000167 0 0 1 0.125 0 0 1 I I 0.7071067811865470176 0.7071067811865480168 0.125 forward I I I I #
loop $-1 $-1 $85 $44 #
coedge $-1 $84 $84 $100 $101 forward $63 $-1 #
coedge $-1 $85 $85 $65 $86 reversed $83 $-1 #
edge $-1 $102 -3.141592653589793116 $102 3.141592653589793116 $85 $103 forward 7 unknown #
loop $-1 $104 $66 $105 #
vertex $-1 $67 $106 #
ellipse-curve $-1 0 0 -1.185999999999999943 0 0 -1 0.2344999999999999862 0 0 1 I I #
loop $-1 $-1 $68 $107 #
vertex $-1 $69 $108 #
ellipse-curve $-1 0 0 -1.139999999999999902 0 0 1 0.2655000000000000138 0 0 1 I I #
face $-1 $107 $70 $3 $-1 $109 forward single #
point $-1 -0.2184999999999999998 0 -1.139999999999999902 #
point $-1 0.2184999999999999998 0 -0.6720000000000000417 #
cone-surface $-1 0 0 -1.274250000000000105 0 0 1 -0.1875 0 0 1 I I 0 1 0.1875 forward I I I I #
coedge $-1 $97 $97 $79 $98 forward $81 $-1 #
edge $-1 $110 -3.141592653589793116 $110 3.141592653589793116 $79 $111 forward 7 unknown #
loop $-1 $-1 $100 $62 #
coedge $-1 $100 $100 $84 $101 reversed $99 $-1 #
edge $-1 $112 -3.141592653589793116 $112 3.141592653589793116 $100 $113 forward 7 unknown #
vertex $-1 $86 $114 #
ellipse-curve $-1 0 0 0.5190000000000000169 0 0 1 0.125 0 0 1 I I #
loop $-1 $-1 $115 $105 #
face $-1 $-1 $87 $3 $-1 $116 forward single #
point $-1 -0.2344999999999999862 0 -1.185999999999999943 #
face $-1 $105 $117 $3 $-1 $118 forward single #
point $-1 0.2655000000000000138 0 -1.139999999999999902 #
cone-surface $-1 0 0 -1.274250000000000105 0 0 1 -0.2184999999999999998 0 0 1 I I 0 1 0.2184999999999999998 forward I I I I #
vertex $-1 $98 $119 #
ellipse-curve $-1 0 0 0.05000000000000000278 0 0 1 0.09500000000000000111 0 0 1 I I #
vertex $-1 $101 $120 #
ellipse-curve $-1 0 0 0.08000000000000000167 0 0 1 0.125 0 0 1 I I #
point $-1 -0.125 0 0.5190000000000000169 #
coedge $-1 $115 $115 $121 $122 reversed $104 $-1 #
cone-surface $-1 0 0 -1.155000000000000027 0 0 1 0.2655000000000000138 0 0 1 I I 0.707106781186549016 0.7071067811865460184 0.2655000000000000138 forward I I I I #
loop $-1 $90 $121 $107 #
cone-surface $-1 0 0 -1.274250000000000105 0 0 1 -0.2655000000000000138 0 0 1 I I 0 1 0.2655000000000000138 forward I I I I #
point $-1 -0.09500000000000000111 0 0.05000000000000000278 #
point $-1 -0.125 0 0.08000000000000000167 #
coedge $-1 $121 $121 $115 $122 forward $117 $-1 #
edge $-1 $123 -3.141592653589793116 $123 3.141592653589793116 $115 $124 forward 7 unknown #
vertex $-1 $122 $125 #
ellipse-curve $-1 0 0 -1.155000000000000027 0 0 1 0.2655000000000000138 0 0 1 I I #
point $-1 -0.2655000000000000138 0 -1.155000000000000027 #
End-of-ACIS-data 