700 0 2 0           
24 FBMach with ACIS - 7.0.3 13 ACIS 7.0.3 NT 24 Tue May 14 14:31:14 2002 
1 9.9999999999999995e-007 1e-010 
body $2 -1 $-1 $3 $-1 $4 #
bdycol-kcp $-1 -1 1 6 $5 $6 $7 $8 $9 $10 #
model_id-kcp-attrib $-1 -1 $-1 $-1 $0 1 1021401073 1021401073 1672019969 1 #
lump $-1 -1 $-1 $-1 $11 $0 #
transform $-1 -1 1 0 0 0 1 0 0 0 1 0 0 0 1 rotate no_reflect no_shear #
body $12 -1 $-1 $13 $-1 $14 #
body $15 -1 $-1 $16 $-1 $17 #
body $18 -1 $-1 $19 $-1 $20 #
body $21 -1 $-1 $22 $-1 $23 #
body $24 -1 $-1 $25 $-1 $26 #
body $27 -1 $-1 $28 $-1 $29 #
shell $-1 -1 $-1 $-1 $-1 $30 $-1 $3 #
model_id-kcp-attrib $-1 -1 $-1 $-1 $5 1 1021401073 1021401073 1672675330 1 #
lump $-1 -1 $-1 $-1 $31 $5 #
transform $-1 -1 1 0 0 0 1 0 0 0 1 0 0 -0.30349999999999999 1 no_rotate no_reflect no_shear #
rgb_color-st-attrib $-1 -1 $32 $-1 $6 1 1 0.5 #
lump $-1 -1 $-1 $-1 $33 $6 #
transform $-1 -1 1 0 0 0 1 0 0 0 1 0 0 0.54899999999999993 1 rotate no_reflect no_shear #
rgb_color-st-attrib $-1 -1 $34 $-1 $7 1 1 0.5 #
lump $-1 -1 $-1 $-1 $35 $7 #
transform $-1 -1 1 0 0 0 -1 0 0 0 -1 0 0 -1.1705000000000001 1 rotate no_reflect no_shear #
rgb_color-st-attrib $-1 -1 $36 $-1 $8 1 0.5 1 #
lump $-1 -1 $-1 $-1 $37 $8 #
transform $-1 -1 1 0 0 0 1 0 0 0 1 0 0 -0.30349999999999999 1 no_rotate no_reflect no_shear #
rgb_color-st-attrib $-1 -1 $38 $-1 $9 0.5 1 1 #
lump $-1 -1 $-1 $-1 $39 $9 #
transform $-1 -1 1 0 0 0 1 0 0 0 1 0 0 -0.30349999999999999 1 no_rotate no_reflect no_shear #
rgb_color-st-attrib $-1 -1 $40 $-1 $10 1 0.5 1 #
lump $-1 -1 $-1 $-1 $41 $10 #
transform $-1 -1 1 0 0 0 1 0 0 0 1 0 0 -0.30349999999999999 1 no_rotate no_reflect no_shear #
face $42 -1 $-1 $43 $44 $11 $-1 $45 forward single #
shell $-1 -1 $-1 $-1 $-1 $46 $-1 $13 #
model_id-kcp-attrib $-1 -1 $-1 $15 $6 1 1021401073 1021401073 1673330691 1 #
shell $-1 -1 $-1 $-1 $-1 $47 $-1 $16 #
model_id-kcp-attrib $-1 -1 $-1 $18 $7 1 1021401073 1021401073 1673330692 1 #
shell $-1 -1 $-1 $-1 $-1 $48 $-1 $19 #
model_id-kcp-attrib $-1 -1 $-1 $21 $8 1 1021401073 1021401074 1663631367 1 #
shell $-1 -1 $-1 $-1 $-1 $49 $-1 $22 #
model_id-kcp-attrib $-1 -1 $-1 $24 $9 1 1021401073 1021401074 1664024581 1 #
shell $-1 -1 $-1 $-1 $-1 $50 $-1 $25 #
model_id-kcp-attrib $-1 -1 $-1 $27 $10 1 1021401073 1021401074 1675165702 1 #
shell $-1 -1 $-1 $-1 $-1 $51 $-1 $28 #
model_id-kcp-attrib $-1 -1 $-1 $-1 $30 1 1021401073 1021401073 1672019969 2 #
face $52 -1 $-1 $53 $54 $11 $-1 $55 forward single #
loop $-1 -1 $-1 $-1 $56 $30 #
plane-surface $-1 -1 $-1 0 0 0.57899999999999996 0 0 1 1 0 0 forward_v I I I I #
face $57 -1 $-1 $58 $59 $31 $-1 $60 forward single #
face $-1 -1 $-1 $61 $62 $33 $-1 $63 reversed single #
face $-1 -1 $-1 $64 $65 $35 $-1 $66 reversed single #
face $-1 -1 $-1 $67 $68 $37 $-1 $69 forward single #
face $-1 -1 $-1 $70 $71 $39 $-1 $72 reversed single #
face $-1 -1 $-1 $73 $74 $41 $-1 $75 forward single #
model_id-kcp-attrib $-1 -1 $-1 $-1 $43 1 1021401073 1021401073 1672019969 3 #
face $76 -1 $-1 $77 $78 $11 $-1 $79 forward single #
loop $-1 -1 $-1 $80 $81 $43 #
plane-surface $-1 -1 $-1 0 0 0 0 0 1 1 0 0 forward_v I I I I #
coedge $-1 -1 $-1 $56 $56 $82 $83 forward $44 $-1 #
model_id-kcp-attrib $-1 -1 $-1 $-1 $46 1 1021401073 1021401073 1672675330 2 #
face $84 -1 $-1 $85 $86 $31 $-1 $87 reversed single #
loop $-1 -1 $-1 $-1 $88 $46 #
plane-surface $-1 -1 $-1 0 0 0.88249999999999995 0 0 1 1 0 0 forward_v I I I I #
face $-1 -1 $-1 $89 $90 $33 $-1 $91 forward single #
loop $-1 -1 $-1 $92 $93 $47 #
cone-surface $-1 -1 $-1 0 0 0.032500000000000195 0 0 1 0.0625 0 0 1 I I -0.70710678118654724 0.70710678118654791 0.0625 forward I I I I #
face $-1 -1 $-1 $94 $95 $35 $-1 $96 forward single #
loop $-1 -1 $-1 $97 $98 $48 #
cone-surface $-1 -1 $-1 0 0 0.11724999999999941 0 0 1 0.13275000000000001 0 0 1 I I -0.70710678118654902 0.70710678118654613 0.13275000000000001 forward I I I I #
face $-1 -1 $-1 $99 $100 $37 $-1 $101 forward single #
loop $-1 -1 $-1 $102 $103 $49 #
cone-surface $-1 -1 $-1 0 0 -0.36849999999999983 0 0 1 -0.1875 0 0 1 I I 0 -1 0.1875 forward I I I I #
face $-1 -1 $-1 $104 $105 $39 $-1 $72 reversed single #
loop $-1 -1 $-1 $-1 $106 $50 #
cone-surface $-1 -1 $-1 -4.9769990205472185e-033 0 0.88249999999999995 0 0 1 0.26550000000000001 6.5026597387968232e-017 0 1 I I 0 1 0.26550000000000001 forward I I I I #
face $-1 -1 $-1 $107 $108 $41 $-1 $109 forward single #
loop $-1 -1 $-1 $110 $111 $51 #
cone-surface $-1 -1 $-1 0 0 -0.8364999999999998 0 0 1 -0.2185 0 0 1 I I 0 -1 0.2185 forward I I I I #
model_id-kcp-attrib $-1 -1 $-1 $-1 $53 1 1021401073 1021401073 1672019969 4 #
face $112 -1 $-1 $113 $114 $11 $-1 $115 forward single #
loop $-1 -1 $-1 $116 $117 $53 #
plane-surface $-1 -1 $-1 0 0 -0.67200000000000004 0 0 1 1 0 0 forward_v I I I I #
loop $-1 -1 $-1 $-1 $118 $43 #
coedge $-1 -1 $-1 $81 $81 $119 $120 forward $54 $-1 #
coedge $-1 -1 $-1 $82 $82 $56 $83 reversed $121 $-1 #
edge $122 -1 $-1 $123 0 $123 6.2831853071795862 $82 $124 forward @7 unknown #
model_id-kcp-attrib $-1 -1 $-1 $-1 $58 1 1021401073 1021401073 1672675330 3 #
face $-1 -1 $-1 $125 $126 $31 $-1 $127 reversed single #
loop $-1 -1 $-1 $-1 $128 $58 #
plane-surface $-1 -1 $-1 0 0 -0.88249999999999995 0 0 1 1 0 0 forward_v I I I I #
coedge $-1 -1 $-1 $129 $130 $131 $132 forward $59 $-1 #
face $-1 -1 $-1 $-1 $133 $33 $-1 $134 forward single #
loop $-1 -1 $-1 $135 $136 $61 #
cone-surface $-1 -1 $-1 0 0 0 0 0 1 0.125 0 0 1 I I 0 1 0.125 forward I I I I #
loop $-1 -1 $-1 $-1 $137 $47 #
coedge $-1 -1 $-1 $93 $93 $138 $139 reversed $62 $-1 #
face $-1 -1 $-1 $-1 $140 $35 $-1 $141 forward single #
loop $-1 -1 $-1 $142 $143 $64 #
cone-surface $-1 -1 $-1 0 0 0 0 0 1 0.26550000000000001 0 0 1 I I 0 1 0.26550000000000001 forward I I I I #
loop $-1 -1 $-1 $-1 $144 $48 #
coedge $-1 -1 $-1 $98 $98 $145 $146 reversed $65 $-1 #
face $-1 -1 $-1 $147 $148 $37 $-1 $149 forward single #
loop $-1 -1 $-1 $150 $151 $67 #
cone-surface $-1 -1 $-1 -4.9769990205472185e-033 0 -0.36849999999999994 0 0 1 0.26550000000000001 6.5026597387968232e-017 0 1 I I 0 1 0.26550000000000001 forward I I I I #
loop $-1 -1 $-1 $-1 $152 $49 #
coedge $-1 -1 $-1 $103 $103 $153 $154 forward $68 $-1 #
face $-1 -1 $-1 $155 $156 $39 $-1 $72 reversed single #
loop $-1 -1 $-1 $-1 $157 $70 #
coedge $-1 -1 $-1 $158 $159 $160 $161 reversed $71 $-1 #
face $-1 -1 $-1 $162 $163 $41 $-1 $164 forward single #
loop $-1 -1 $-1 $165 $166 $73 #
cone-surface $-1 -1 $-1 -4.9769990205472185e-033 0 -0.83649999999999991 0 0 1 0.26550000000000001 6.5026597387968232e-017 0 1 I I 0 1 0.26550000000000001 forward I I I I #
loop $-1 -1 $-1 $-1 $167 $51 #
coedge $-1 -1 $-1 $111 $111 $168 $169 forward $74 $-1 #
model_id-kcp-attrib $-1 -1 $-1 $-1 $77 1 1021401073 1021401073 1672019969 5 #
face $170 -1 $-1 $171 $172 $11 $-1 $173 reversed single #
loop $-1 -1 $-1 $174 $175 $77 #
plane-surface $-1 -1 $-1 0 0 -1.1399999999999999 0 0 1 1 0 0 forward_v I I I I #
loop $-1 -1 $-1 $-1 $176 $53 #
coedge $-1 -1 $-1 $117 $117 $177 $178 forward $78 $-1 #
coedge $-1 -1 $-1 $118 $118 $179 $180 forward $80 $-1 #
coedge $-1 -1 $-1 $119 $119 $81 $120 reversed $181 $-1 #
edge $-1 -1 $-1 $182 -3.1415926535897931 $182 3.1415926535897931 $81 $183 forward @7 unknown #
loop $-1 -1 $-1 $-1 $82 $171 #
attrib_edge_convexity-kcp-attrib $-1 -1 $184 $-1 $83 1 #
vertex $-1 -1 $-1 $83 $185 #
ellipse-curve $-1 -1 $-1 0 0 0.57899999999999996 0 0 1 0.065000000000000002 0 0 1 I I #
face $-1 -1 $-1 $186 $187 $31 $-1 $188 reversed single #
loop $-1 -1 $-1 $-1 $189 $85 #
plane-surface $-1 -1 $-1 0 -0.26550000000000001 0 0 1 0 0 0 1 forward_v I I I I #
coedge $-1 -1 $-1 $190 $191 $192 $193 forward $86 $-1 #
coedge $-1 -1 $-1 $194 $88 $195 $196 forward $59 $-1 #
coedge $-1 -1 $-1 $88 $194 $197 $198 forward $59 $-1 #
coedge $-1 -1 $-1 $199 $200 $88 $132 reversed $201 $-1 #
edge $-1 -1 $-1 $202 -0.26550000000000001 $203 0.26550000000000001 $131 $204 forward @7 unknown #
loop $-1 -1 $-1 $205 $138 $89 #
plane-surface $-1 -1 $-1 0 0 0.029999999999999971 0 0 1 1 0 0 forward_v I I I I #
loop $-1 -1 $-1 $-1 $206 $61 #
coedge $-1 -1 $-1 $136 $136 $137 $207 reversed $90 $-1 #
coedge $-1 -1 $-1 $137 $137 $136 $207 forward $92 $-1 #
coedge $-1 -1 $-1 $138 $138 $93 $139 forward $133 $-1 #
edge $-1 -1 $-1 $208 -3.1415926535897931 $208 3.1415926535897931 $138 $209 forward @7 unknown #
loop $-1 -1 $-1 $210 $145 $94 #
plane-surface $-1 -1 $-1 0 0 0.015499999999999958 0 0 1 1 0 0 forward_v I I I I #
loop $-1 -1 $-1 $-1 $211 $64 #
coedge $-1 -1 $-1 $143 $143 $144 $212 reversed $95 $-1 #
coedge $-1 -1 $-1 $144 $144 $143 $212 forward $97 $-1 #
coedge $-1 -1 $-1 $145 $145 $98 $146 forward $140 $-1 #
edge $-1 -1 $-1 $213 -3.1415926535897931 $213 3.1415926535897931 $145 $214 forward @7 unknown #
face $-1 -1 $-1 $-1 $215 $37 $-1 $216 reversed single #
loop $-1 -1 $-1 $217 $218 $99 #
plane-surface $-1 -1 $-1 -0.021201384708007212 3.925185158599764e-018 0.3035000000000001 -2.3334330326283047e-032 -1.1667165163141521e-032 1 1 0 2.3334330326283047e-032 forward_v I I I I #
loop $-1 -1 $-1 $-1 $219 $67 #
coedge $-1 -1 $-1 $151 $151 $218 $220 forward $100 $-1 #
coedge $-1 -1 $-1 $152 $152 $221 $222 reversed $102 $-1 #
coedge $-1 -1 $-1 $153 $153 $103 $154 reversed $217 $-1 #
edge $-1 -1 $-1 $223 0 $223 6.2831853071795862 $103 $224 forward @7 unknown #
face $-1 -1 $-1 $225 $226 $39 $-1 $72 reversed single #
loop $-1 -1 $-1 $-1 $227 $104 #
coedge $-1 -1 $-1 $228 $229 $230 $231 reversed $105 $-1 #
coedge $-1 -1 $-1 $232 $106 $233 $234 reversed $71 $-1 #
coedge $-1 -1 $-1 $106 $232 $235 $236 reversed $71 $-1 #
coedge $-1 -1 $-1 $237 $238 $239 $161 forward $240 $-1 #
edge $-1 -1 $-1 $241 -1.7649999999999999 $242 0 $160 $243 forward @7 unknown #
face $-1 -1 $-1 $-1 $244 $41 $-1 $245 reversed single #
loop $-1 -1 $-1 $246 $247 $107 #
plane-surface $-1 -1 $-1 -0.022207456799398943 8.3546148442891805e-019 -0.36850000000000005 1.042518059254292e-031 1.042518059254292e-031 1 1 0 -1.042518059254292e-031 forward_v I I I I #
loop $-1 -1 $-1 $-1 $248 $73 #
coedge $-1 -1 $-1 $166 $166 $247 $249 forward $108 $-1 #
coedge $-1 -1 $-1 $167 $167 $250 $251 reversed $110 $-1 #
coedge $-1 -1 $-1 $168 $168 $111 $169 reversed $246 $-1 #
edge $-1 -1 $-1 $252 0 $252 6.2831853071795862 $111 $253 forward @7 unknown #
model_id-kcp-attrib $-1 -1 $-1 $-1 $113 1 1021401073 1021401073 1672019969 6 #
face $254 -1 $-1 $255 $256 $11 $-1 $257 forward single #
loop $-1 -1 $-1 $-1 $258 $113 #
plane-surface $-1 -1 $-1 0 0 -1.1859999999999999 0 0 1 1 0 0 forward_v I I I I #
loop $-1 -1 $-1 $-1 $259 $77 #
coedge $-1 -1 $-1 $175 $175 $260 $261 forward $114 $-1 #
coedge $-1 -1 $-1 $176 $176 $262 $263 forward $116 $-1 #
coedge $-1 -1 $-1 $177 $177 $117 $178 reversed $264 $-1 #
edge $265 -1 $-1 $266 -3.1415926535897931 $266 3.1415926535897931 $117 $267 forward @7 unknown #
coedge $-1 -1 $-1 $179 $179 $118 $180 reversed $268 $-1 #
edge $-1 -1 $-1 $269 0 $269 6.2831853071795862 $179 $270 forward @7 unknown #
loop $-1 -1 $-1 $271 $119 $272 #
vertex $-1 -1 $-1 $120 $273 #
ellipse-curve $-1 -1 $-1 0 0 0 0 0 -1 0.095000000000000001 0 0 1 I I #
convexity-sys-attrib $-1 -1 $-1 $122 $83 #
point $-1 -1 $-1 0.065000000000000002 0 0.57899999999999996 #
face $-1 -1 $-1 $274 $275 $31 $-1 $276 reversed single #
loop $-1 -1 $-1 $-1 $277 $125 #
plane-surface $-1 -1 $-1 -0.26550000000000001 0 0 1 0 0 0 0 -1 forward_v I I I I #
coedge $-1 -1 $-1 $278 $197 $279 $280 forward $126 $-1 #
coedge $-1 -1 $-1 $281 $128 $278 $282 forward $86 $-1 #
coedge $-1 -1 $-1 $128 $281 $283 $284 forward $86 $-1 #
coedge $-1 -1 $-1 $200 $199 $128 $193 reversed $201 $-1 #
edge $-1 -1 $-1 $285 -0.26550000000000001 $286 0.26550000000000001 $192 $287 forward @7 unknown #
coedge $-1 -1 $-1 $130 $129 $288 $289 forward $59 $-1 #
coedge $-1 -1 $-1 $290 $291 $129 $196 reversed $275 $-1 #
edge $-1 -1 $-1 $203 -0.26550000000000001 $292 0.26550000000000001 $195 $293 forward @7 unknown #
coedge $-1 -1 $-1 $189 $294 $130 $198 reversed $126 $-1 #
edge $-1 -1 $-1 $295 -0.26550000000000001 $202 0.26550000000000001 $197 $296 forward @7 unknown #
coedge $-1 -1 $-1 $192 $131 $294 $297 forward $201 $-1 #
coedge $-1 -1 $-1 $131 $192 $290 $298 reversed $201 $-1 #
loop $-1 -1 $-1 $-1 $199 $274 #
vertex $-1 -1 $-1 $132 $299 #
vertex $-1 -1 $-1 $132 $300 #
straight-curve $-1 -1 $-1 0.26550000000000001 0 0.88249999999999995 0 1 0 I I #
loop $-1 -1 $-1 $-1 $301 $89 #
coedge $-1 -1 $-1 $206 $206 $301 $302 reversed $135 $-1 #
edge $-1 -1 $-1 $303 0 $303 6.2831853071795862 $136 $304 forward @7 unknown #
vertex $-1 -1 $-1 $139 $305 #
ellipse-curve $-1 -1 $-1 0 0 0.029999999999999971 0 0 -1 0.065000000000000224 0 0 1 I I #
loop $-1 -1 $-1 $-1 $306 $94 #
coedge $-1 -1 $-1 $211 $211 $306 $307 reversed $142 $-1 #
edge $-1 -1 $-1 $308 0 $308 6.2831853071795862 $143 $309 forward @7 unknown #
vertex $-1 -1 $-1 $146 $310 #
ellipse-curve $-1 -1 $-1 0 0 0.015499999999999958 0 0 -1 0.23449999999999988 0 0 1 I I #
loop $-1 -1 $-1 $311 $312 $147 #
plane-surface $-1 -1 $-1 -0.021201384708007212 3.925185158599764e-018 -0.36849999999999994 -2.3334330326283047e-032 -1.1667165163141521e-032 1 1 0 2.3334330326283047e-032 forward_v I I I I #
loop $-1 -1 $-1 $-1 $153 $99 #
coedge $-1 -1 $-1 $218 $218 $151 $220 reversed $148 $-1 #
coedge $-1 -1 $-1 $219 $219 $312 $313 reversed $150 $-1 #
edge $-1 -1 $-1 $314 -3.1415926535897931 $314 3.1415926535897931 $151 $315 forward @7 unknown #
coedge $-1 -1 $-1 $221 $221 $152 $222 forward $311 $-1 #
edge $316 -1 $-1 $317 0 $317 6.2831853071795862 $152 $318 forward @7 unknown #
vertex $-1 -1 $-1 $154 $319 #
ellipse-curve $-1 -1 $-1 0 0 0.30350000000000021 0 0 1 -0.1875 0 0 1 I I #
face $-1 -1 $-1 $320 $321 $39 $-1 $322 reversed single #
loop $-1 -1 $-1 $-1 $323 $155 #
coedge $-1 -1 $-1 $324 $325 $326 $327 reversed $156 $-1 #
coedge $-1 -1 $-1 $328 $157 $329 $330 reversed $105 $-1 #
coedge $-1 -1 $-1 $157 $328 $106 $161 forward $105 $-1 #
coedge $-1 -1 $-1 $331 $332 $157 $231 forward $333 $-1 #
edge $-1 -1 $-1 $334 -3.1415926535897931 $242 -1.5707963267948963 $230 $335 forward @7 unknown #
coedge $-1 -1 $-1 $159 $158 $325 $336 forward $71 $-1 #
coedge $-1 -1 $-1 $337 $338 $158 $234 forward $339 $-1 #
edge $-1 -1 $-1 $340 -2.4492127076447545e-016 $241 1.5707963267948963 $233 $341 forward @7 unknown #
coedge $-1 -1 $-1 $342 $343 $159 $236 forward $344 $-1 #
edge $-1 -1 $-1 $242 -1.5707963267948963 $345 2.4492127076447545e-016 $235 $335 forward @7 unknown #
coedge $-1 -1 $-1 $346 $160 $343 $347 reversed $240 $-1 #
coedge $-1 -1 $-1 $160 $346 $337 $348 reversed $240 $-1 #
coedge $-1 -1 $-1 $349 $350 $229 $161 reversed $351 $-1 #
loop $-1 -1 $-1 $-1 $160 $352 #
vertex $-1 -1 $-1 $348 $353 #
vertex $-1 -1 $-1 $354 $355 #
straight-curve $-1 -1 $-1 -4.9769990205472185e-033 0.26550000000000001 0.88249999999999995 0 0 1 I I #
loop $-1 -1 $-1 $356 $357 $162 #
plane-surface $-1 -1 $-1 -0.022207456799398943 8.3546148442891805e-019 -0.83649999999999991 1.042518059254292e-031 1.042518059254292e-031 1 1 0 -1.042518059254292e-031 forward_v I I I I #
loop $-1 -1 $-1 $-1 $168 $107 #
coedge $-1 -1 $-1 $247 $247 $166 $249 reversed $163 $-1 #
coedge $-1 -1 $-1 $248 $248 $357 $358 reversed $165 $-1 #
edge $-1 -1 $-1 $359 -3.1415926535897931 $359 3.1415926535897931 $166 $360 forward @7 unknown #
coedge $-1 -1 $-1 $250 $250 $167 $251 forward $356 $-1 #
edge $361 -1 $-1 $362 0 $362 6.2831853071795862 $167 $363 forward @7 unknown #
vertex $-1 -1 $-1 $169 $364 #
ellipse-curve $-1 -1 $-1 0 0 -0.36849999999999994 0 0 1 -0.2185 0 0 1 I I #
model_id-kcp-attrib $-1 -1 $-1 $-1 $171 1 1021401073 1021401073 1672019969 7 #
face $365 -1 $-1 $366 $367 $11 $-1 $368 forward single #
loop $-1 -1 $-1 $121 $369 $171 #
cone-surface $-1 -1 $-1 0 0 0.51900000000000002 0 0 -1 0.125 0 0 1 I I 0.70710678118654702 0.70710678118654802 0.125 forward I I I I #
coedge $-1 -1 $-1 $258 $258 $370 $371 forward $172 $-1 #
coedge $-1 -1 $-1 $259 $259 $372 $373 forward $174 $-1 #
coedge $-1 -1 $-1 $260 $260 $175 $261 reversed $374 $-1 #
edge $375 -1 $-1 $376 -3.1415926535897931 $376 3.1415926535897931 $175 $377 forward @7 unknown #
coedge $-1 -1 $-1 $262 $262 $176 $263 reversed $378 $-1 #
edge $379 -1 $-1 $380 0 $380 6.2831853071795862 $262 $381 forward @7 unknown #
loop $-1 -1 $-1 $268 $177 $382 #
attrib_edge_convexity-kcp-attrib $-1 -1 $383 $-1 $178 2 #
vertex $-1 -1 $-1 $178 $384 #
ellipse-curve $-1 -1 $-1 0 0 -0.67200000000000004 0 0 -1 0.1875 0 0 1 I I #
loop $-1 -1 $-1 $-1 $179 $382 #
vertex $-1 -1 $-1 $180 $385 #
ellipse-curve $-1 -1 $-1 0 0 0 0 0 1 0.1875 0 0 1 I I #
loop $-1 -1 $-1 $-1 $386 $272 #
face $387 -1 $-1 $382 $181 $11 $-1 $388 forward single #
point $-1 -1 $-1 -0.095000000000000001 0 0 #
face $-1 -1 $-1 $-1 $201 $31 $-1 $389 reversed single #
loop $-1 -1 $-1 $-1 $290 $186 #
plane-surface $-1 -1 $-1 0 0.26550000000000001 0 0 -1 0 0 0 -1 forward_v I I I I #
coedge $-1 -1 $-1 $390 $288 $291 $391 forward $187 $-1 #
coedge $-1 -1 $-1 $294 $189 $190 $282 reversed $126 $-1 #
coedge $-1 -1 $-1 $288 $390 $189 $280 reversed $187 $-1 #
edge $-1 -1 $-1 $295 -0.88249999999999995 $392 0.88249999999999995 $279 $393 forward @7 unknown #
coedge $-1 -1 $-1 $191 $190 $390 $394 forward $86 $-1 #
edge $-1 -1 $-1 $286 -0.26550000000000001 $392 0.26550000000000001 $278 $395 forward @7 unknown #
coedge $-1 -1 $-1 $291 $290 $191 $284 reversed $275 $-1 #
edge $-1 -1 $-1 $396 -0.26550000000000001 $285 0.26550000000000001 $283 $397 forward @7 unknown #
vertex $-1 -1 $-1 $193 $398 #
vertex $-1 -1 $-1 $297 $399 #
straight-curve $-1 -1 $-1 0.26550000000000001 0 -0.88249999999999995 0 -1 0 I I #
coedge $-1 -1 $-1 $277 $279 $194 $289 reversed $187 $-1 #
edge $-1 -1 $-1 $292 -0.26550000000000001 $295 0.26550000000000001 $288 $400 forward @7 unknown #
coedge $-1 -1 $-1 $283 $195 $200 $298 forward $275 $-1 #
coedge $-1 -1 $-1 $195 $283 $277 $391 reversed $275 $-1 #
vertex $-1 -1 $-1 $196 $401 #
straight-curve $-1 -1 $-1 0 0.26550000000000001 0.88249999999999995 -1 0 0 I I #
coedge $-1 -1 $-1 $197 $278 $199 $297 reversed $126 $-1 #
vertex $-1 -1 $-1 $289 $402 #
straight-curve $-1 -1 $-1 0 -0.26550000000000001 0.88249999999999995 1 0 0 I I #
edge $-1 -1 $-1 $202 -0.88249999999999995 $286 0.88249999999999995 $199 $403 forward @7 unknown #
edge $-1 -1 $-1 $203 -0.88249999999999995 $285 0.88249999999999995 $200 $404 forward @7 unknown #
point $-1 -1 $-1 0.26550000000000001 -0.26550000000000001 0.88249999999999995 #
point $-1 -1 $-1 0.26550000000000001 0.26550000000000001 0.88249999999999995 #
coedge $-1 -1 $-1 $301 $301 $206 $302 forward $205 $-1 #
edge $-1 -1 $-1 $405 0 $405 6.2831853071795862 $301 $406 forward @7 unknown #
vertex $-1 -1 $-1 $207 $407 #
ellipse-curve $-1 -1 $-1 0 0 -0.029999999999999971 0 0 -1 0.125 0 0 1 I I #
point $-1 -1 $-1 -0.065000000000000224 7.9599412998454803e-018 0.029999999999999971 #
coedge $-1 -1 $-1 $306 $306 $211 $307 forward $210 $-1 #
edge $-1 -1 $-1 $408 0 $408 6.2831853071795862 $306 $409 forward @7 unknown #
vertex $-1 -1 $-1 $212 $410 #
ellipse-curve $-1 -1 $-1 0 0 -0.015499999999999958 0 0 -1 0.26550000000000001 0 0 1 I I #
point $-1 -1 $-1 -0.23449999999999988 2.8717018997134734e-017 0.015499999999999958 #
loop $-1 -1 $-1 $-1 $221 $147 #
coedge $-1 -1 $-1 $312 $312 $219 $313 forward $215 $-1 #
edge $411 -1 $-1 $412 -3.1415926535897931 $412 3.1415926535897931 $219 $413 forward @7 unknown #
vertex $-1 -1 $-1 $220 $414 #
ellipse-curve $-1 -1 $-1 -4.9769990205472185e-033 0 0.3035000000000001 0 0 -1 0.26550000000000001 6.5026597387968232e-017 0 1 I I #
convexity-sys-attrib $-1 -1 $-1 $-1 $222 #
vertex $-1 -1 $-1 $222 $415 #
ellipse-curve $-1 -1 $-1 0 0 -0.36849999999999983 0 0 1 -0.1875 0 0 1 I I #
point $-1 -1 $-1 -0.1875 0 0.30349999999999999 #
face $-1 -1 $-1 $416 $351 $39 $-1 $417 reversed single #
loop $-1 -1 $-1 $-1 $418 $225 #
plane-surface $-1 -1 $-1 0.26550000000000001 0 0 -1 0 0 0 0 1 forward_v I I I I #
coedge $-1 -1 $-1 $419 $420 $421 $422 reversed $226 $-1 #
coedge $-1 -1 $-1 $423 $227 $420 $424 forward $156 $-1 #
coedge $-1 -1 $-1 $227 $423 $425 $336 reversed $156 $-1 #
coedge $-1 -1 $-1 $426 $427 $227 $327 forward $428 $-1 #
edge $-1 -1 $-1 $429 -1.5707963267948968 $340 -2.4492127076447545e-016 $326 $341 forward @7 unknown #
coedge $-1 -1 $-1 $229 $228 $430 $431 reversed $105 $-1 #
coedge $-1 -1 $-1 $432 $433 $434 $330 forward $435 $-1 #
edge $-1 -1 $-1 $436 -1.7649999999999999 $334 0 $329 $437 forward @7 unknown #
coedge $-1 -1 $-1 $332 $230 $350 $354 forward $333 $-1 #
coedge $-1 -1 $-1 $230 $331 $432 $438 forward $333 $-1 #
loop $-1 -1 $-1 $-1 $230 $439 #
vertex $-1 -1 $-1 $440 $441 #
ellipse-curve $-1 -1 $-1 -4.9769990205472185e-033 0 0.88249999999999995 0 0 -1 0.26550000000000001 6.5026597387968232e-017 0 1 I I #
edge $-1 -1 $-1 $340 -1.7649999999999999 $345 0 $425 $442 forward @7 unknown #
coedge $-1 -1 $-1 $338 $233 $238 $348 forward $339 $-1 #
coedge $-1 -1 $-1 $233 $337 $443 $444 forward $339 $-1 #
loop $-1 -1 $-1 $-1 $233 $445 #
vertex $-1 -1 $-1 $446 $447 #
ellipse-curve $-1 -1 $-1 -4.9769990205472185e-033 0 -0.88249999999999995 0 0 1 0.26550000000000001 6.5026597387968232e-017 0 1 I I #
coedge $-1 -1 $-1 $343 $235 $448 $449 forward $344 $-1 #
coedge $-1 -1 $-1 $235 $342 $237 $347 forward $344 $-1 #
loop $-1 -1 $-1 $-1 $235 $450 #
vertex $-1 -1 $-1 $449 $451 #
coedge $-1 -1 $-1 $238 $237 $452 $453 forward $240 $-1 #
edge $-1 -1 $-1 $454 -0.26550000000000001 $242 4.9769990205472185e-033 $237 $455 forward @7 unknown #
edge $-1 -1 $-1 $241 -4.9769990205472185e-033 $456 0.26550000000000001 $238 $457 forward @7 unknown #
coedge $-1 -1 $-1 $458 $239 $459 $460 reversed $351 $-1 #
coedge $-1 -1 $-1 $239 $458 $331 $354 reversed $351 $-1 #
loop $-1 -1 $-1 $-1 $239 $320 #
face $-1 -1 $-1 $461 $240 $39 $-1 $417 reversed single #
point $-1 -1 $-1 -4.9769990205472185e-033 0.26550000000000001 -0.88249999999999995 #
edge $-1 -1 $-1 $242 4.9769990205472185e-033 $462 0.26550000000000001 $350 $455 forward @7 unknown #
point $-1 -1 $-1 -4.9769990205472185e-033 0.26550000000000001 0.88249999999999995 #
loop $-1 -1 $-1 $-1 $250 $162 #
coedge $-1 -1 $-1 $357 $357 $248 $358 forward $244 $-1 #
edge $463 -1 $-1 $464 -3.1415926535897931 $464 3.1415926535897931 $248 $465 forward @7 unknown #
vertex $-1 -1 $-1 $249 $466 #
ellipse-curve $-1 -1 $-1 -4.9769990205472185e-033 0 -0.36850000000000005 0 0 -1 0.26550000000000001 6.5026597387968232e-017 0 1 I I #
convexity-sys-attrib $-1 -1 $-1 $-1 $251 #
vertex $-1 -1 $-1 $251 $467 #
ellipse-curve $-1 -1 $-1 0 0 -0.8364999999999998 0 0 1 -0.2185 0 0 1 I I #
point $-1 -1 $-1 -0.2185 0 -0.36850000000000005 #
model_id-kcp-attrib $-1 -1 $-1 $-1 $255 1 1021401073 1021401073 1672019969 8 #
face $468 -1 $-1 $272 $469 $11 $-1 $470 forward single #
loop $-1 -1 $-1 $471 $472 $255 #
cone-surface $-1 -1 $-1 0 0 -1.2742500000000001 0 0 1 -0.125 0 0 1 I I 0 1 0.125 forward I I I I #
coedge $-1 -1 $-1 $369 $369 $473 $474 forward $256 $-1 #
coedge $-1 -1 $-1 $370 $370 $258 $371 reversed $475 $-1 #
edge $476 -1 $-1 $477 -3.1415926535897931 $477 3.1415926535897931 $258 $478 forward @7 unknown #
coedge $-1 -1 $-1 $372 $372 $259 $373 reversed $479 $-1 #
edge $480 -1 $-1 $481 0 $481 6.2831853071795862 $372 $482 forward @7 unknown #
loop $-1 -1 $-1 $378 $260 $483 #
attrib_edge_convexity-kcp-attrib $-1 -1 $484 $-1 $261 2 #
vertex $-1 -1 $-1 $261 $485 #
ellipse-curve $-1 -1 $-1 0 0 -1.1399999999999999 0 0 -1 0.2185 0 0 1 I I #
loop $-1 -1 $-1 $-1 $262 $483 #
attrib_edge_convexity-kcp-attrib $-1 -1 $486 $-1 $263 1 #
vertex $-1 -1 $-1 $263 $487 #
ellipse-curve $-1 -1 $-1 0 0 -0.67200000000000004 0 0 1 0.2185 0 0 1 I I #
face $488 -1 $-1 $483 $264 $11 $-1 $489 forward single #
convexity-sys-attrib $-1 -1 $-1 $265 $178 #
point $-1 -1 $-1 -0.1875 0 -0.67200000000000004 #
point $-1 -1 $-1 0.1875 0 0 #
coedge $-1 -1 $-1 $386 $386 $490 $491 reversed $271 $-1 #
model_id-kcp-attrib $-1 -1 $-1 $-1 $272 1 1021401073 1021401073 1672019969 10 #
cone-surface $-1 -1 $-1 0 0 -1.2742500000000001 0 0 1 -0.095000000000000001 0 0 1 I I 0 1 0.095000000000000001 forward I I I I #
plane-surface $-1 -1 $-1 0.26550000000000001 0 0 -1 0 0 0 0 1 forward_v I I I I #
coedge $-1 -1 $-1 $279 $277 $281 $394 reversed $187 $-1 #
edge $-1 -1 $-1 $292 -0.88249999999999995 $396 0.88249999999999995 $291 $492 forward @7 unknown #
vertex $-1 -1 $-1 $394 $493 #
straight-curve $-1 -1 $-1 -0.26550000000000001 -0.26550000000000001 0 0 0 -1 I I #
edge $-1 -1 $-1 $392 -0.26550000000000001 $396 0.26550000000000001 $390 $494 forward @7 unknown #
straight-curve $-1 -1 $-1 0 -0.26550000000000001 -0.88249999999999995 -1 0 0 I I #
vertex $-1 -1 $-1 $284 $495 #
straight-curve $-1 -1 $-1 0 0.26550000000000001 -0.88249999999999995 1 0 0 I I #
point $-1 -1 $-1 0.26550000000000001 0.26550000000000001 -0.88249999999999995 #
point $-1 -1 $-1 0.26550000000000001 -0.26550000000000001 -0.88249999999999995 #
straight-curve $-1 -1 $-1 -0.26550000000000001 0 0.88249999999999995 0 -1 0 I I #
point $-1 -1 $-1 -0.26550000000000001 0.26550000000000001 0.88249999999999995 #
point $-1 -1 $-1 -0.26550000000000001 -0.26550000000000001 0.88249999999999995 #
straight-curve $-1 -1 $-1 0.26550000000000001 -0.26550000000000001 0 0 0 -1 I I #
straight-curve $-1 -1 $-1 0.26550000000000001 0.26550000000000001 0 0 0 -1 I I #
vertex $-1 -1 $-1 $302 $496 #
ellipse-curve $-1 -1 $-1 0 0 0.029999999999999971 0 0 1 0.125 0 0 1 I I #
point $-1 -1 $-1 0.125 0 -0.029999999999999971 #
vertex $-1 -1 $-1 $307 $497 #
ellipse-curve $-1 -1 $-1 0 0 0.015499999999999958 0 0 1 0.26550000000000001 0 0 1 I I #
point $-1 -1 $-1 0.26550000000000001 0 -0.015499999999999958 #
convexity-sys-attrib $-1 -1 $-1 $-1 $313 #
vertex $-1 -1 $-1 $313 $498 #
ellipse-curve $-1 -1 $-1 -4.9769990205472185e-033 0 -0.36849999999999994 0 0 -1 0.26550000000000001 6.5026597387968232e-017 0 1 I I #
point $-1 -1 $-1 -0.26550000000000001 -3.2513298693984116e-017 0.3035000000000001 #
point $-1 -1 $-1 -0.1875 0 -0.36850000000000005 #
face $-1 -1 $-1 $499 $500 $39 $-1 $501 reversed single #
plane-surface $-1 -1 $-1 0 0.26550000000000001 0 0 -1 0 0 0 -1 forward_v I I I I #
coedge $-1 -1 $-1 $443 $448 $232 $336 reversed $321 $-1 #
coedge $-1 -1 $-1 $502 $323 $228 $330 forward $226 $-1 #
coedge $-1 -1 $-1 $323 $502 $503 $424 reversed $226 $-1 #
coedge $-1 -1 $-1 $504 $505 $323 $422 forward $506 $-1 #
edge $-1 -1 $-1 $436 -3.1415926535897931 $429 -1.5707963267948968 $421 $341 forward @7 unknown #
coedge $-1 -1 $-1 $325 $324 $507 $508 reversed $156 $-1 #
edge $-1 -1 $-1 $429 -1.7649999999999999 $509 0 $503 $510 forward @7 unknown #
coedge $-1 -1 $-1 $511 $512 $418 $336 forward $513 $-1 #
coedge $-1 -1 $-1 $427 $326 $512 $446 forward $428 $-1 #
coedge $-1 -1 $-1 $326 $426 $514 $515 forward $428 $-1 #
loop $-1 -1 $-1 $-1 $326 $516 #
vertex $-1 -1 $-1 $517 $518 #
coedge $-1 -1 $-1 $519 $459 $328 $431 forward $520 $-1 #
edge $-1 -1 $-1 $241 1.5707963267948963 $436 3.1415926535897931 $430 $341 forward @7 unknown #
coedge $-1 -1 $-1 $521 $329 $332 $438 reversed $435 $-1 #
coedge $-1 -1 $-1 $329 $521 $519 $522 reversed $435 $-1 #
coedge $-1 -1 $-1 $523 $524 $419 $330 reversed $500 $-1 #
loop $-1 -1 $-1 $-1 $329 $525 #
vertex $-1 -1 $-1 $522 $526 #
straight-curve $-1 -1 $-1 -0.26550000000000001 0 0.88249999999999995 0 0 1 I I #
edge $-1 -1 $-1 $462 -0.26550000000000001 $334 0 $432 $527 forward @7 unknown #
face $-1 -1 $-1 $450 $333 $39 $-1 $528 forward single #
edge $-1 -1 $-1 $334 0 $529 0.26550000000000001 $524 $527 forward @7 unknown #
point $-1 -1 $-1 -0.26550000000000001 0 0.88249999999999995 #
straight-curve $-1 -1 $-1 0.26550000000000001 0 0.88249999999999995 0 0 1 I I #
coedge $-1 -1 $-1 $452 $418 $338 $444 reversed $321 $-1 #
edge $-1 -1 $-1 $456 -0.26550000000000001 $340 0 $443 $530 forward @7 unknown #
face $-1 -1 $-1 $531 $339 $39 $-1 $532 reversed single #
edge $-1 -1 $-1 $340 0 $533 0.26550000000000001 $512 $530 forward @7 unknown #
point $-1 -1 $-1 0.26550000000000001 0 -0.88249999999999995 #
coedge $-1 -1 $-1 $418 $452 $342 $449 reversed $321 $-1 #
edge $-1 -1 $-1 $345 0 $454 0.26550000000000001 $448 $534 forward @7 unknown #
face $-1 -1 $-1 $535 $344 $39 $-1 $528 forward single #
point $-1 -1 $-1 0.26550000000000001 0 0.88249999999999995 #
coedge $-1 -1 $-1 $448 $443 $346 $453 reversed $321 $-1 #
edge $-1 -1 $-1 $454 -0.88249999999999995 $456 0.88249999999999995 $452 $536 forward @7 unknown #
vertex $-1 -1 $-1 $449 $537 #
straight-curve $-1 -1 $-1 0 0.26550000000000001 0.88249999999999995 -1 0 0 I I #
vertex $-1 -1 $-1 $444 $538 #
straight-curve $-1 -1 $-1 0 0.26550000000000001 -0.88249999999999995 1 0 0 I I #
coedge $-1 -1 $-1 $350 $349 $521 $539 reversed $351 $-1 #
coedge $-1 -1 $-1 $430 $519 $349 $460 forward $520 $-1 #
edge $-1 -1 $-1 $540 -0.26550000000000001 $241 -4.9769990205472185e-033 $349 $457 forward @7 unknown #
face $-1 -1 $-1 $-1 $513 $39 $-1 $322 reversed single #
vertex $-1 -1 $-1 $354 $541 #
convexity-sys-attrib $-1 -1 $-1 $-1 $358 #
vertex $-1 -1 $-1 $358 $542 #
ellipse-curve $-1 -1 $-1 -4.9769990205472185e-033 0 -0.83649999999999991 0 0 -1 0.26550000000000001 6.5026597387968232e-017 0 1 I I #
point $-1 -1 $-1 -0.26550000000000001 -3.2513298693984116e-017 -0.36850000000000005 #
point $-1 -1 $-1 -0.2185 0 -0.83649999999999991 #
model_id-kcp-attrib $-1 -1 $-1 $-1 $366 1 1021401073 1021401073 1672019969 9 #
loop $-1 -1 $-1 $543 $490 $366 #
cone-surface $-1 -1 $-1 0 0 0.080000000000000002 0 0 1 0.125 0 0 1 I I 0.70710678118654702 0.70710678118654802 0.125 forward I I I I #
loop $-1 -1 $-1 $-1 $473 $255 #
coedge $-1 -1 $-1 $472 $472 $544 $545 forward $367 $-1 #
coedge $-1 -1 $-1 $473 $473 $369 $474 reversed $471 $-1 #
edge $546 -1 $-1 $547 -3.1415926535897931 $547 3.1415926535897931 $473 $548 forward @7 unknown #
loop $-1 -1 $-1 $549 $370 $550 #
attrib_edge_convexity-kcp-attrib $-1 -1 $551 $-1 $371 1 #
vertex $-1 -1 $-1 $371 $552 #
ellipse-curve $-1 -1 $-1 0 0 -1.1859999999999999 0 0 -1 0.23449999999999999 0 0 1 I I #
loop $-1 -1 $-1 $-1 $372 $553 #
attrib_edge_convexity-kcp-attrib $-1 -1 $554 $-1 $373 1 #
vertex $-1 -1 $-1 $373 $555 #
ellipse-curve $-1 -1 $-1 0 0 -1.1399999999999999 0 0 1 0.26550000000000001 0 0 1 I I #
face $556 -1 $-1 $553 $374 $11 $-1 $557 forward single #
convexity-sys-attrib $-1 -1 $-1 $375 $261 #
point $-1 -1 $-1 -0.2185 0 -1.1399999999999999 #
convexity-sys-attrib $-1 -1 $-1 $379 $263 #
point $-1 -1 $-1 0.2185 0 -0.67200000000000004 #
model_id-kcp-attrib $-1 -1 $-1 $-1 $382 1 1021401073 1021401073 1672019969 11 #
cone-surface $-1 -1 $-1 0 0 -1.2742500000000001 0 0 1 -0.1875 0 0 1 I I 0 1 0.1875 forward I I I I #
coedge $-1 -1 $-1 $490 $490 $386 $491 forward $469 $-1 #
edge $-1 -1 $-1 $558 -3.1415926535897931 $558 3.1415926535897931 $386 $559 forward @7 unknown #
straight-curve $-1 -1 $-1 -0.26550000000000001 0.26550000000000001 0 0 0 -1 I I #
point $-1 -1 $-1 -0.26550000000000001 -0.26550000000000001 -0.88249999999999995 #
straight-curve $-1 -1 $-1 -0.26550000000000001 0 -0.88249999999999995 0 1 0 I I #
point $-1 -1 $-1 -0.26550000000000001 0.26550000000000001 -0.88249999999999995 #
point $-1 -1 $-1 0.125 0 0.029999999999999971 #
point $-1 -1 $-1 0.26550000000000001 0 0.015499999999999958 #
point $-1 -1 $-1 -0.26550000000000001 -3.2513298693984116e-017 -0.36849999999999994 #
face $-1 -1 $-1 $439 $560 $39 $-1 $528 forward single #
loop $-1 -1 $-1 $-1 $434 $416 #
plane-surface $-1 -1 $-1 -0.26550000000000001 0 0 1 0 0 0 0 -1 forward_v I I I I #
coedge $-1 -1 $-1 $420 $419 $561 $562 reversed $226 $-1 #
coedge $-1 -1 $-1 $563 $564 $565 $424 forward $566 $-1 #
coedge $-1 -1 $-1 $505 $421 $564 $517 forward $506 $-1 #
coedge $-1 -1 $-1 $421 $504 $523 $567 forward $506 $-1 #
loop $-1 -1 $-1 $-1 $421 $568 #
coedge $-1 -1 $-1 $569 $570 $423 $508 forward $571 $-1 #
edge $-1 -1 $-1 $345 2.4492127076447545e-016 $509 1.5707963267948968 $507 $335 forward @7 unknown #
vertex $-1 -1 $-1 $572 $573 #
straight-curve $-1 -1 $-1 -4.9769990205472185e-033 -0.26550000000000001 0.88249999999999995 0 0 1 I I #
coedge $-1 -1 $-1 $574 $425 $570 $575 reversed $513 $-1 #
coedge $-1 -1 $-1 $425 $574 $426 $446 reversed $513 $-1 #
loop $-1 -1 $-1 $-1 $425 $461 #
coedge $-1 -1 $-1 $576 $565 $427 $515 reversed $577 $-1 #
edge $-1 -1 $-1 $533 -0.26550000000000001 $429 4.9769990205472185e-033 $514 $578 forward @7 unknown #
face $-1 -1 $-1 $445 $428 $39 $-1 $532 reversed single #
edge $-1 -1 $-1 $429 4.9769990205472185e-033 $579 0.26550000000000001 $564 $578 forward @7 unknown #
point $-1 -1 $-1 -4.9769990205472185e-033 -0.26550000000000001 -0.88249999999999995 #
coedge $-1 -1 $-1 $459 $430 $433 $522 forward $520 $-1 #
loop $-1 -1 $-1 $-1 $430 $531 #
coedge $-1 -1 $-1 $433 $432 $458 $539 forward $435 $-1 #
edge $-1 -1 $-1 $436 0 $540 0.26550000000000001 $433 $580 forward @7 unknown #
coedge $-1 -1 $-1 $581 $434 $505 $567 reversed $500 $-1 #
coedge $-1 -1 $-1 $434 $581 $582 $440 reversed $500 $-1 #
face $-1 -1 $-1 $352 $435 $39 $-1 $501 reversed single #
point $-1 -1 $-1 -0.26550000000000001 0 -0.88249999999999995 #
straight-curve $-1 -1 $-1 -0.26550000000000001 0 0.88249999999999995 0 -1 0 I I #
plane-surface $-1 -1 $-1 0 0 0.88249999999999995 0 0 1 1 0 0 forward_v I I I I #
vertex $-1 -1 $-1 $440 $583 #
straight-curve $-1 -1 $-1 0.26550000000000001 0 -0.88249999999999995 0 -1 0 I I #
face $-1 -1 $-1 $584 $520 $39 $-1 $532 reversed single #
plane-surface $-1 -1 $-1 0 0 -0.88249999999999995 0 0 1 1 0 0 forward_v I I I I #
vertex $-1 -1 $-1 $585 $586 #
straight-curve $-1 -1 $-1 0.26550000000000001 0 0.88249999999999995 0 1 0 I I #
face $-1 -1 $-1 $587 $571 $39 $-1 $528 forward single #
straight-curve $-1 -1 $-1 0.26550000000000001 0.26550000000000001 0 0 0 -1 I I #
point $-1 -1 $-1 0.26550000000000001 0.26550000000000001 0.88249999999999995 #
point $-1 -1 $-1 0.26550000000000001 0.26550000000000001 -0.88249999999999995 #
edge $-1 -1 $-1 $462 -0.88249999999999995 $540 0.88249999999999995 $458 $588 forward @7 unknown #
vertex $-1 -1 $-1 $460 $589 #
point $-1 -1 $-1 -0.26550000000000001 0.26550000000000001 0.88249999999999995 #
point $-1 -1 $-1 -0.26550000000000001 -3.2513298693984116e-017 -0.83649999999999991 #
loop $-1 -1 $-1 $-1 $544 $366 #
coedge $-1 -1 $-1 $544 $544 $472 $545 reversed $543 $-1 #
edge $-1 -1 $-1 $590 -3.1415926535897931 $590 3.1415926535897931 $544 $591 forward @7 unknown #
attrib_edge_convexity-kcp-attrib $-1 -1 $592 $-1 $474 1 #
vertex $-1 -1 $-1 $474 $593 #
ellipse-curve $-1 -1 $-1 0 0 0.51900000000000002 0 0 1 0.125 0 0 1 I I #
loop $-1 -1 $-1 $-1 $594 $550 #
face $595 -1 $-1 $-1 $475 $11 $-1 $596 forward single #
convexity-sys-attrib $-1 -1 $-1 $476 $371 #
point $-1 -1 $-1 -0.23449999999999999 0 -1.1859999999999999 #
face $597 -1 $-1 $550 $598 $11 $-1 $599 forward single #
convexity-sys-attrib $-1 -1 $-1 $480 $373 #
point $-1 -1 $-1 0.26550000000000001 0 -1.1399999999999999 #
model_id-kcp-attrib $-1 -1 $-1 $-1 $483 1 1021401073 1021401073 1672019969 12 #
cone-surface $-1 -1 $-1 0 0 -1.2742500000000001 0 0 1 -0.2185 0 0 1 I I 0 1 0.2185 forward I I I I #
vertex $-1 -1 $-1 $491 $600 #
ellipse-curve $-1 -1 $-1 0 0 0.050000000000000003 0 0 1 0.095000000000000001 0 0 1 I I #
loop $-1 -1 $-1 $-1 $561 $499 #
coedge $-1 -1 $-1 $582 $601 $502 $562 forward $560 $-1 #
edge $-1 -1 $-1 $509 1.5707963267948968 $334 3.1415926535897931 $561 $335 forward @7 unknown #
coedge $-1 -1 $-1 $602 $503 $601 $603 reversed $566 $-1 #
coedge $-1 -1 $-1 $503 $602 $504 $517 reversed $566 $-1 #
coedge $-1 -1 $-1 $514 $604 $324 $424 reversed $577 $-1 #
loop $-1 -1 $-1 $-1 $503 $584 #
edge $-1 -1 $-1 $579 -0.26550000000000001 $436 0 $523 $580 forward @7 unknown #
face $-1 -1 $-1 $516 $506 $39 $-1 $532 reversed single #
coedge $-1 -1 $-1 $570 $507 $604 $572 forward $571 $-1 #
coedge $-1 -1 $-1 $507 $569 $511 $575 forward $571 $-1 #
loop $-1 -1 $-1 $-1 $507 $535 #
edge $-1 -1 $-1 $509 -4.9769990205472185e-033 $605 0.26550000000000001 $604 $606 forward @7 unknown #
point $-1 -1 $-1 -4.9769990205472185e-033 -0.26550000000000001 0.88249999999999995 #
coedge $-1 -1 $-1 $512 $511 $576 $585 forward $513 $-1 #
edge $-1 -1 $-1 $605 -0.26550000000000001 $345 0 $511 $534 forward @7 unknown #
coedge $-1 -1 $-1 $604 $514 $574 $585 reversed $577 $-1 #
loop $-1 -1 $-1 $-1 $565 $587 #
straight-curve $-1 -1 $-1 0 -0.26550000000000001 -0.88249999999999995 -1 0 0 I I #
vertex $-1 -1 $-1 $567 $607 #
straight-curve $-1 -1 $-1 -0.26550000000000001 0 -0.88249999999999995 0 1 0 I I #
coedge $-1 -1 $-1 $524 $523 $602 $608 reversed $500 $-1 #
coedge $-1 -1 $-1 $601 $561 $524 $440 forward $560 $-1 #
point $-1 -1 $-1 -0.26550000000000001 -0.26550000000000001 0.88249999999999995 #
face $-1 -1 $-1 $525 $566 $39 $-1 $609 reversed single #
edge $-1 -1 $-1 $605 -0.88249999999999995 $533 0.88249999999999995 $574 $610 forward @7 unknown #
point $-1 -1 $-1 0.26550000000000001 -0.26550000000000001 -0.88249999999999995 #
face $-1 -1 $-1 $568 $577 $39 $-1 $609 reversed single #
straight-curve $-1 -1 $-1 -0.26550000000000001 0.26550000000000001 0 0 0 -1 I I #
point $-1 -1 $-1 -0.26550000000000001 0.26550000000000001 -0.88249999999999995 #
vertex $-1 -1 $-1 $545 $611 #
ellipse-curve $-1 -1 $-1 0 0 0.080000000000000002 0 0 1 0.125 0 0 1 I I #
convexity-sys-attrib $-1 -1 $-1 $546 $474 #
point $-1 -1 $-1 -0.125 0 0.51900000000000002 #
coedge $-1 -1 $-1 $594 $594 $612 $613 reversed $549 $-1 #
model_id-kcp-attrib $-1 -1 $-1 $-1 $550 1 1021401073 1021401073 1672019969 14 #
cone-surface $-1 -1 $-1 0 0 -1.155 0 0 1 0.26550000000000001 0 0 1 I I 0.70710678118654902 0.70710678118654602 0.26550000000000001 forward I I I I #
model_id-kcp-attrib $-1 -1 $-1 $-1 $553 1 1021401073 1021401073 1672019969 13 #
loop $-1 -1 $-1 $479 $612 $553 #
cone-surface $-1 -1 $-1 0 0 -1.2742500000000001 0 0 1 -0.26550000000000001 0 0 1 I I 0 1 0.26550000000000001 forward I I I I #
point $-1 -1 $-1 -0.095000000000000001 0 0.050000000000000003 #
coedge $-1 -1 $-1 $561 $582 $563 $603 forward $560 $-1 #
coedge $-1 -1 $-1 $564 $563 $581 $608 forward $566 $-1 #
edge $-1 -1 $-1 $529 -0.26550000000000001 $509 -4.9769990205472185e-033 $563 $606 forward @7 unknown #
coedge $-1 -1 $-1 $565 $576 $569 $572 reversed $577 $-1 #
vertex $-1 -1 $-1 $575 $614 #
straight-curve $-1 -1 $-1 0 -0.26550000000000001 0.88249999999999995 1 0 0 I I #
point $-1 -1 $-1 -0.26550000000000001 -0.26550000000000001 -0.88249999999999995 #
edge $-1 -1 $-1 $529 -0.88249999999999995 $579 0.88249999999999995 $581 $615 forward @7 unknown #
plane-surface $-1 -1 $-1 0 -0.26550000000000001 0 0 1 0 0 0 1 forward_v I I I I #
straight-curve $-1 -1 $-1 0.26550000000000001 -0.26550000000000001 0 0 0 -1 I I #
point $-1 -1 $-1 -0.125 0 0.080000000000000002 #
coedge $-1 -1 $-1 $612 $612 $594 $613 forward $598 $-1 #
edge $616 -1 $-1 $617 -3.1415926535897931 $617 3.1415926535897931 $594 $618 forward @7 unknown #
point $-1 -1 $-1 0.26550000000000001 -0.26550000000000001 0.88249999999999995 #
straight-curve $-1 -1 $-1 -0.26550000000000001 -0.26550000000000001 0 0 0 -1 I I #
attrib_edge_convexity-kcp-attrib $-1 -1 $619 $-1 $613 1 #
vertex $-1 -1 $-1 $613 $620 #
ellipse-curve $-1 -1 $-1 0 0 -1.155 0 0 1 0.26550000000000001 0 0 1 I I #
convexity-sys-attrib $-1 -1 $-1 $616 $613 #
point $-1 -1 $-1 -0.26550000000000001 0 -1.155 #
End-of-ACIS-data 