**ABCDEFGHIJKLMNOPQRSTUVWXYZabcdefghijklmnopqrstuvwxyz**************************
**PARASOLID !"#$%&'()*+,-./:;<=>?@[\]^_`{|}~0123456789**************************
**PART1;
MC=unknown;
MC_MODEL=unknown;
MC_ID=unknown;
OS=unknown;
OS_RELEASE=unknown;
FRU=Bentley_Systems;
APPL=Microstation_modeler;
SITE=Exton;
USER=unknown;
FORMAT=text;
GUISE=transmit;
KEY=d:\Dgn files\ParaSolid\slicer\nut.x_t;
FILE=d:\Dgn files\ParaSolid\slicer\nut.x_t;
DATE=unknown;
**PART2;
SCH=SCH_901297_9008;
USFLD_SIZE=0;
**PART3;
**END_OF_HEADER*****************************************************************
T50 : TRANSMIT FILE created by modeller version 90129715 SCH_901297_90080 12 1 5
4 0 0 0 0 0 0 1e3 1e-8 0 2 0 1 0 1 3 4 5 0 6 7 0 13 3 3 0 1 0 8 0 0 9 0 51 4 18
 0 10 11 0 0 +-.0828020999997127 .231184499999162 .148382599999731 1 0 0 .0254 0
 1 0 31 5 16 0 7 12 0 0 +-.0574020999997127 .231184499999162 .148382599999731 -1
 0 0 0 1 0 .0254 19 6 1 0 1 9 0 13 V16 7 12 0 ?14 0 15 5 0 0 1 17 14 16 14 14 0
 17 7 0 0 +16 15 6 0 ?18 7 19 12 0 0 1 17 18 20 18 18 0 21 15 0 0 +16 19 30 0 ?2
2 15 23 24 0 0 1 31 12 10 0 15 24 5 0 +-.0828020999997127 .231184499999162 .1483
82599999731 1 0 0 0 1 0 .0254 31 24 44 0 19 25 12 0 +-.0574020999997127 .2311844
99999162 .148382599999731 -1 0 0 0 1 0 .0127 31 25 45 0 23 0 24 0 +-.08280209999
97127 .231184499999162 .148382599999731 1 0 0 0 1 0 .0127 16 23 31 0 ?26 19 0 25
 0 0 1 17 26 27 26 26 0 28 23 0 0 +15 27 21 0 26 29 30 17 28 31 28 28 0 26 23 0
 0 -15 31 38 0 28 32 0 14 32 36 0 ?0 10 33 3 34 -0 0 0 10 13 14 10 2 0 ?32 29 16
 3 4 +0 0 32 29 13 15 33 37 0 35 32 31 51 34 41 0 32 0 36 0 +-.0828020999997127
 .231184499999162 .148382599999731 1 0 0 .0127 0 1 0 13 13 4 0 0 0 0 0 0 6 8 14
 8 15 0 ?29 0 37 3 11 +0 0 29 0 13 14 29 9 0 ?10 8 27 3 36 +0 0 10 8 13 15 37 26
 0 22 8 38 50 11 17 0 8 36 4 0 +-.0574020999997127 .231184499999162 .14838259999
9731 1 0 0 0 1 0 50 36 11 0 29 34 11 0 +-.0828020999997127 .231184499999162 .148
382599999731 -1 0 0 0 -1 0 17 22 37 22 22 0 35 19 0 0 +15 38 14 0 17 8 0 17 17 3
8 17 17 0 14 7 0 0 -17 35 33 35 35 0 22 19 0 0 -15 16 13 0 14 10 20 15 20 7 0 18
 10 0 15 30 8 0 21 29 0 17 21 30 21 21 0 18 15 0 0 -19 9 5 0 1 0 6 3 S1 0 
