**ABCDEFGHIJKLMNOPQRSTUVWXYZabcdefghijklmnopqrstuvwxyz**************************
**PARASOLID !"#$%&'()*+,-./:;<=>?@[\]^_`{|}~0123456789**************************
**PART1;
MC=unknown;
MC_MODEL=unknown;
MC_ID=unknown;
OS=unknown;
OS_RELEASE=unknown;
FRU=Bentley_Systems;
APPL=Microstation_modeler;
SITE=Exton;
USER=unknown;
FORMAT=text;
GUISE=transmit;
KEY=d:\Dgn files\ParaSolid\Hard Drive\washer inch.x_t;
FILE=d:\Dgn files\ParaSolid\Hard Drive\washer inch.x_t;
DATE=unknown;
**PART2;
SCH=SCH_901297_9008;
USFLD_SIZE=0;
**PART3;
**END_OF_HEADER*****************************************************************
T50 : TRANSMIT FILE created by modeller version 90129715 SCH_901297_90080 12 1 1
062 0 2 0 0 0 0 1e3 1e-8 0 3 0 1 0 1 4 5 6 7 8 9 10 70 2 0 1 0 0 4 1 20 4 11 11
 1 T13 4 3 0 1 0 12 0 0 13 0 51 5 135 0 14 15 0 0 --.576500305355164 .5314082979
42817 .386707851430273 0 0 -1 .1016 -1 0 0 31 6 1033 0 9 16 0 0 -.39786259679099
4 .429497197241127 .386707851430273 0 0 1 1 0 0 .127 29 7 1018 0 10 17 0 .397862
596790994 .556497197241127 .386707851430273 19 8 49 0 1 13 0 18 V16 9 1029 0 ?19
 0 20 6 0 0 1 18 10 1015 0 21 0 22 7 ?1 17 21 23 24 25 10 26 27 0 28 +18 22 1011
 0 29 10 30 17 ?1 17 29 31 32 33 22 34 20 0 25 +18 30 1002 0 19 22 35 36 ?1 29 1
7 1014 0 22 36 7 .397862596790994 .556497197241127 .361307851430273 29 36 1005 0
 30 37 17 .505616379736387 .49671417620446 .386707851430273 29 37 1001 0 35 38 3
6 .505616379736387 .49671417620446 .361307851430273 18 35 998 0 34 30 39 37 ?1 2
9 38 367 0 39 40 37 -.379741647444075 .556497197241127 .361307851430273 18 39 36
5 0 41 35 42 38 ?1 29 40 32 0 42 43 38 -.576500305355164 .633008297942817 .38670
7851430273 18 42 29 0 44 39 45 40 ?1 29 43 28 0 45 46 40 -.678100305355998 .5314
08297943052 .386707851430273 18 45 25 0 47 42 48 43 ?1 29 46 24 0 48 49 43 -.678
100305355164 -1.856191702057185 .386707851430273 18 48 21 0 50 45 51 46 ?1 29 49
 20 0 51 52 46 -.576500305355998 -1.95779170205695 .386707851430273 18 51 17 0 5
3 48 54 49 ?1 29 52 16 0 54 55 49 2.928699694644835 -1.957791702057185 .38670785
1430273 18 54 13 0 56 51 57 52 ?1 29 55 12 0 57 58 52 3.030299694644 -1.85619170
205695 .386707851430273 18 57 9 0 59 54 60 55 ?1 29 58 8 0 60 61 55 2.9286996946
44835 .633008297942817 .386707851430273 18 60 5 0 62 57 63 58 ?1 29 61 4 0 63 64
 58 3.030299694644835 .531408297942817 .386707851430273 18 63 2 0 65 60 66 61 ?1
 29 64 90 0 66 67 61 -.576500305355164 .633008297942817 .361307851430273 18 66 6
7 0 68 63 69 64 ?1 29 67 91 0 69 70 64 -.678100305355998 .531408297943052 .36130
7851430273 18 69 68 0 71 66 72 67 ?1 29 70 92 0 72 73 67 -.678100305355164 -1.85
6191702057185 .361307851430273 18 72 69 0 74 69 75 70 ?1 29 73 93 0 75 76 70 -.5
76500305355998 -1.95779170205695 .361307851430273 18 75 70 0 77 72 78 73 ?1 29 7
6 94 0 78 79 73 2.928699694644835 -1.957791702057185 .361307851430273 18 78 71 0
 80 75 81 76 ?1 29 79 95 0 81 82 76 3.030299694644 -1.85619170205695 .3613078514
30273 18 81 72 0 83 78 84 79 ?1 29 82 96 0 84 85 79 2.928699694644835 .633008297
942817 .361307851430273 18 84 74 0 86 81 87 82 ?1 29 85 97 0 87 88 82 3.03029969
4644835 .531408297942817 .361307851430273 18 87 73 0 89 84 90 85 ?1 29 88 870 0
 90 91 85 -.45326133332393 .499570652162302 .361307851430273 18 90 605 0 92 87 9
3 88 ?1 29 91 871 0 93 94 88 -.45326133332393 .499570652162302 .386707851430273
 18 93 602 0 95 90 96 91 ?1 29 94 872 0 96 97 91 -.544677301878807 .408197031495
7795 .361307851430273 18 96 608 0 98 93 99 94 ?1 29 97 873 0 99 100 94 -.5446773
01878807 .4081970314957795 .386707851430273 18 99 606 0 101 96 102 97 ?1 29 100
 874 0 102 103 97 -.601643054466384 .3346628972441785 .361307851430273 18 102 61
0 0 104 99 105 100 ?1 29 103 875 0 105 106 100 -.601643054466384 .33466289724417
85 .386707851430273 18 105 609 0 107 102 108 103 ?1 29 106 876 0 108 109 103 -.6
01654647919763 -.534723960913804 .361307851430273 18 108 614 0 110 105 111 106 ?
1 29 109 877 0 111 112 106 -.601654647919763 -.534723960913804 .386707851430273
 18 111 611 0 113 108 114 109 ?1 29 112 878 0 114 115 109 -.54263571025472 -.608
76426859735 .361307851430273 18 114 617 0 116 111 117 112 ?1 29 115 879 0 117 11
8 112 -.54263571025472 -.60876426859735 .386707851430273 18 117 615 0 119 114 12
0 115 ?1 29 118 880 0 120 121 115 -.52270585164037 -.633766623276467 .3613078514
30273 18 120 620 0 122 117 123 118 ?1 29 121 881 0 123 124 118 -.52270585164037
 -.633766623276467 .386707851430273 18 123 618 0 125 120 126 121 ?1 29 124 882 0
 126 127 121 -.522716753005276 -1.45125410043351 .361307851430273 18 126 623 0 1
28 123 129 124 ?1 29 127 883 0 129 130 124 -.522716753005276 -1.45125410043351 .
386707851430273 18 129 621 0 131 126 132 127 ?1 29 130 884 0 132 133 127 -.51081
6051195734 -1.746747487329095 .361307851430273 18 132 626 0 134 129 135 130 ?1 2
9 133 885 0 135 136 130 -.510816051195734 -1.746747487329095 .386707851430273 18
 135 624 0 137 132 138 133 ?1 29 136 886 0 138 139 133 -.453566083967488 -1.8243
1296463395 .361307851430273 18 138 629 0 140 135 141 136 ?1 29 139 887 0 141 142
 136 -.453566083967488 -1.82431296463395 .386707851430273 18 141 627 0 143 138 1
44 139 ?1 29 142 888 0 144 145 139 -.379294565272988 -1.88214978692587 .36130785
1430273 18 144 631 0 146 141 147 142 ?1 29 145 889 0 147 148 142 -.3792945652729
88 -1.88214978692587 .386707851430273 18 147 630 0 149 144 150 145 ?1 29 148 890
 0 150 151 145 1.385553665088958 -1.8821497869249 .361307851430273 18 150 635 0
 152 147 153 148 ?1 29 151 891 0 153 154 148 1.385553665088958 -1.8821497869249
 .386707851430273 18 153 632 0 155 150 156 151 ?1 29 154 892 0 156 157 151 .9278
31171929436 .453517290369892 .361307851430273 18 156 638 0 158 153 159 154 ?1 29
 157 893 0 159 160 154 .927831171929436 .453517290369892 .386707851430273 18 159
 636 0 161 156 162 157 ?1 29 160 895 0 162 0 157 -.379741647444075 .556497197241
127 .386707851430273 18 162 604 0 24 159 0 160 ?1 17 24 23 41 21 162 28 163 0 16
4 -15 23 745 0 25 165 0 17 41 23 25 24 39 164 166 0 167 +17 28 168 19 169 10 24
 163 0 170 +16 163 512 0 ?28 171 172 173 0 0 1 17 164 174 95 167 162 41 166 0 16
9 -15 174 663 0 175 176 0 17 95 174 175 164 93 169 177 0 178 -17 167 174 164 175
 39 179 180 0 32 +16 166 472 0 ?41 181 0 182 0 0 1 17 169 168 28 183 162 95 177
 0 0 +15 168 426 0 183 12 0 17 183 168 169 184 93 101 185 0 0 +16 177 473 0 ?169
 186 185 187 0 0 1 16 186 331 0 ?188 189 177 190 0 0 1 16 185 476 0 ?183 177 191
 192 0 0 1 31 187 814 0 177 192 193 0 --.379741635278331 .480559183409579 .38670
7851430273 0 0 1 1 0 0 .0759380138326768 31 192 815 0 185 194 187 0 +-.576484521
162717 .531434970476451 .386707851430273 0 0 1 1 0 0 .127276426736369 31 193 356
 0 189 187 195 0 +-.576500305355163 .531408297942818 .386707851430273 0 0 1 1 0
 0 .0381 16 189 330 0 ?196 197 186 193 0 0 1 31 195 308 0 198 193 199 0 +2.92869
9694644835 -1.856191702057185 .386707851430273 0 0 1 1 0 0 .0381 16 198 282 0 ?2
00 201 197 195 0 0 1 31 199 251 0 202 195 203 0 +-.576500305355164 -1.8561917020
5718 .386707851430273 0 0 1 1 0 0 .0381 16 202 225 0 ?204 205 201 199 0 0 1 31 2
03 203 0 206 199 207 0 +2.928699694644835 .531408297942817 .386707851430273 0 0
 1 1 0 0 .0381 16 206 177 0 ?208 209 205 203 0 0 1 31 207 89 0 210 203 211 0 +2.
928699694644835 .531408297942817 .361307851430273 0 0 1 0 -1 0 .1016 16 210 51 0
 ?212 213 214 207 0 0 1 30 211 88 0 214 207 215 0 +3.030299694644 -1.85619170205
695 .361307851430273 0 1 0 16 214 65 0 ?216 210 217 211 0 0 1 31 215 87 0 217 21
1 218 0 +2.928699694644835 -1.856191702057185 .361307851430273 0 0 1 0 -1 0 .101
6 16 217 63 0 ?219 214 220 215 0 0 1 30 218 86 0 220 215 221 0 +-.57650030535599
8 -1.95779170205695 .361307851430273 1 0 0 16 220 61 0 ?222 217 223 218 0 0 1 31
 221 85 0 223 218 224 0 +-.576500305355164 -1.856191702057185 .361307851430273 0
 0 1 0 -1 0 .1016 16 223 59 0 ?225 220 226 221 0 0 1 30 224 84 0 226 221 227 0 +
-.678100305355998 .531408297943052 .361307851430273 0 -1 0 16 226 57 0 ?228 223
 229 224 0 0 1 31 227 83 0 229 224 230 0 +-.576500305355164 .531408297942817 .36
1307851430273 0 0 1 0 -1 0 .1016 16 229 55 0 ?231 226 209 227 0 0 1 30 230 82 0
 209 227 232 0 +2.928699694644 .633008297943053 .361307851430273 -1 0 0 16 209 5
3 0 ?233 229 206 230 0 0 1 31 232 7 0 234 230 235 0 +2.928699694644835 .53140829
7942817 .386707851430273 0 0 1 0 -1 0 .1016 16 234 6 0 ?236 237 238 232 0 0 1 30
 235 11 0 238 232 239 0 +3.030299694644 -1.85619170205695 .386707851430273 0 1 0
 16 238 10 0 ?240 234 241 235 0 0 1 31 239 15 0 241 235 242 0 +2.928699694644835
 -1.856191702057185 .386707851430273 0 0 1 0 -1 0 .1016 16 241 14 0 ?243 238 244
 239 0 0 1 30 242 19 0 244 239 245 0 +-.576500305355998 -1.95779170205695 .38670
7851430273 1 0 0 16 244 18 0 ?246 241 247 242 0 0 1 31 245 23 0 247 242 248 0 +-
.576500305355164 -1.856191702057185 .386707851430273 0 0 1 0 -1 0 .1016 16 247 2
2 0 ?249 244 250 245 0 0 1 30 248 27 0 250 245 251 0 +-.678100305355998 .5314082
97943052 .386707851430273 0 -1 0 16 250 26 0 ?252 247 253 248 0 0 1 31 251 31 0
 253 248 254 0 +-.576500305355164 .531408297942817 .386707851430273 0 0 1 0 -1 0
 .1016 16 253 30 0 ?255 250 213 251 0 0 1 30 254 34 0 213 251 256 0 +2.928699694
644 .633008297943053 .386707851430273 -1 0 0 16 213 33 0 ?257 253 210 254 0 0 1
 30 256 120 0 237 254 258 0 +2.928699694644835 .633008297942817 .386707851430273
 0 0 -1 16 237 98 0 ?86 259 234 256 0 0 1 30 258 121 0 259 256 260 0 +3.03029969
4644835 .531408297942817 .386707851430273 0 0 -1 16 259 99 0 ?89 261 237 258 0 0
 1 30 260 122 0 261 258 262 0 +3.030299694644 -1.85619170205695 .386707851430273
 0 0 -1 16 261 102 0 ?83 263 259 260 0 0 1 30 262 123 0 263 260 264 0 +2.9286996
94644835 -1.957791702057185 .386707851430273 0 0 -1 16 263 105 0 ?80 265 261 262
 0 0 1 30 264 124 0 265 262 266 0 +-.576500305355998 -1.95779170205695 .38670785
1430273 0 0 -1 16 265 108 0 ?77 267 263 264 0 0 1 30 266 125 0 267 264 268 0 +-.
678100305355164 -1.856191702057185 .386707851430273 0 0 -1 16 267 111 0 ?74 269
 265 266 0 0 1 30 268 126 0 269 266 270 0 +-.678100305355998 .531408297943052 .3
86707851430273 0 0 -1 16 269 114 0 ?71 271 267 268 0 0 1 30 270 127 0 271 268 27
2 0 +-.576500305355164 .633008297942817 .386707851430273 0 0 -1 16 271 117 0 ?68
 273 269 270 0 0 1 31 272 167 0 205 270 274 0 +2.928699694644835 .53140829794281
7 .361307851430273 0 0 1 1 0 0 .0381 16 205 178 0 ?275 206 202 272 0 0 1 31 274
 215 0 201 272 276 0 +-.576500305355164 -1.85619170205718 .361307851430273 0 0 1
 1 0 0 .0381 16 201 226 0 ?277 202 198 274 0 0 1 31 276 272 0 197 274 190 0 +2.9
28699694644835 -1.856191702057185 .361307851430273 0 0 1 1 0 0 .0381 16 197 283
 0 ?278 198 189 276 0 0 1 31 190 320 0 186 276 279 0 +-.576500305355163 .5314082
97942818 .361307851430273 0 0 1 1 0 0 .0381 30 279 371 0 273 190 280 0 +-.576500
305355164 .556497197241127 .361307851430273 1 0 0 16 273 369 0 ?25 281 271 279 0
 0 1 31 280 375 0 281 279 282 0 +.733475794924678 .638853237114002 .361307851430
273 0 0 1 1 0 0 .2685580490810075 16 281 999 0 ?158 283 273 280 0 0 1 31 282 379
 0 283 280 284 0 -1.385553471339236 -.66946616981086 .361307851430273 0 0 1 1 0
 0 1.212683617114056 16 283 377 0 ?152 285 281 282 0 0 1 30 284 383 0 285 282 28
6 0 +-.576500305355164 -1.88214978692587 .361307851430273 -1 0 0 16 285 381 0 ?1
46 287 283 284 0 0 1 31 286 387 0 287 284 288 0 --.3792945775874825 -1.805543272
92859 .361307851430273 0 0 1 1 0 0 .0766065139963269 16 287 385 0 ?140 289 285 2
86 0 0 1 31 288 391 0 289 286 290 0 +-.576999751777016 -1.8555071571075 .3613078
51430273 0 0 1 1 0 0 .1273143667970756 16 289 389 0 ?134 291 287 288 0 0 1 31 29
0 395 0 291 288 292 0 --.41849917893386 -1.59504317935448 .361307851430273 0 0 1
 1 0 0 .177585477903661 16 291 393 0 ?128 293 289 290 0 0 1 30 292 399 0 293 290
 294 0 +-.522690313801958 .531407580375477 .361307851430273 1333520632550256e-20
 .999999999911086 0 16 293 397 0 ?122 295 291 292 0 0 1 31 294 403 0 295 292 296
 0 +-.548353297283676 -.633766281850746 .361307851430273 0 0 1 1 0 0 .0256474456
458466 16 295 401 0 ?116 297 293 294 0 0 1 31 296 407 0 297 294 298 0 --.5257040
05557699 -.534724971921293 .361307851430273 0 0 1 1 0 0 .0759506423687927 16 297
 405 0 ?110 299 295 296 0 0 1 30 298 411 0 299 296 300 0 +-.60164043082028 .5314
08633191619 .361307851430273 1333520798528926e-20 .999999999911086 0 16 299 409
 0 ?104 301 297 298 0 0 1 31 300 415 0 301 298 302 0 --.525698173798044 .3346618
86171124 .361307851430273 0 0 1 1 0 0 .0759448806742377 16 301 413 0 ?98 303 299
 300 0 0 1 31 302 419 0 303 300 304 0 +-.576484521162717 .531434970476451 .36130
7851430273 0 0 1 1 0 0 .127276426736369 16 303 417 0 ?92 180 301 302 0 0 1 31 30
4 422 0 180 302 305 0 --.379741635278331 .480559183409579 .361307851430273 0 0 1
 1 0 0 .0759380138326768 16 180 420 0 ?167 306 303 304 0 0 1 30 305 1008 0 306 3
04 307 0 +.505616379736387 .49671417620446 .386712146397568 0 0 -1 16 306 1006 0
 ?308 27 180 305 0 0 1 30 307 1021 0 27 305 16 0 +.397862596790994 .556497197241
127 .386712146397568 0 0 1 16 27 1019 0 ?21 20 306 307 0 0 1 31 16 1028 0 20 307
 6 0 +.397862596790994 .429497197241127 .361307851430273 0 0 1 1 0 0 .127 16 20
 1024 0 ?29 9 27 16 0 0 1 17 308 309 158 310 35 311 306 0 33 +15 309 739 0 310 3
12 0 17 158 309 313 308 156 33 281 0 314 +17 310 309 308 313 30 161 171 0 311 -1
7 311 315 170 34 30 308 306 0 0 -17 33 31 29 316 35 158 281 0 0 -15 31 421 0 179
 317 0 17 316 31 33 318 156 152 283 0 0 -17 318 31 316 319 150 146 285 0 0 -17 1
52 320 321 314 150 316 283 0 322 +15 320 733 0 314 323 0 17 321 320 324 152 153
 322 325 0 326 -17 314 320 152 324 156 313 181 0 316 +17 322 327 146 155 150 321
 325 0 318 +15 327 727 0 322 328 0 17 146 327 329 322 144 318 285 0 330 +17 155
 327 322 329 153 331 332 0 321 -16 325 505 0 ?322 333 181 334 0 0 1 16 333 502 0
 ?330 335 325 336 0 0 1 16 181 508 0 ?314 325 166 337 0 0 1 30 334 838 0 325 337
 336 0 +1.385553665088958 -1.8821497869249 .386712146397568 0 0 -1 30 337 839 0
 181 182 334 0 +.927831171929436 .453517290369892 .386712146397568 0 0 -1 30 336
 837 0 333 334 338 0 +-.379294565272988 -1.88214978692587 .386712146397568 0 0 -
1 30 338 836 0 335 336 339 0 +-.453566083967488 -1.82431296463395 .3867121463975
68 0 0 -1 16 335 499 0 ?340 341 333 338 0 0 1 30 339 835 0 341 338 342 0 +-.5108
16051195734 -1.746747487329095 .386712146397568 0 0 -1 16 341 496 0 ?343 344 335
 339 0 0 1 30 342 834 0 344 339 345 0 +-.522716753005276 -1.45125410043351 .3867
12146397568 0 0 -1 16 344 493 0 ?346 347 341 342 0 0 1 30 345 833 0 347 342 348
 0 +-.52270585164037 -.633766623276467 .386712146397568 0 0 -1 16 347 490 0 ?349
 350 344 345 0 0 1 30 348 832 0 350 345 351 0 +-.54263571025472 -.60876426859735
 .386712146397568 0 0 -1 16 350 487 0 ?352 353 347 348 0 0 1 30 351 831 0 353 34
8 354 0 +-.601654647919763 -.534723960913804 .386712146397568 0 0 -1 16 353 484
 0 ?355 356 350 351 0 0 1 30 354 830 0 356 351 357 0 +-.601643054466384 .3346628
972441785 .386712146397568 0 0 -1 16 356 481 0 ?358 359 353 354 0 0 1 30 357 829
 0 359 354 360 0 +-.544677301878807 .4081970314957795 .386712146397568 0 0 -1 16
 359 478 0 ?361 172 356 357 0 0 1 30 360 828 0 172 357 173 0 +-.45326133332393 .
499570652162302 .386712146397568 0 0 -1 16 172 475 0 ?175 163 359 360 0 0 1 30 1
73 827 0 163 360 362 0 +-.576500305355164 .556497197241127 .386707851430273 1 0
 0 31 362 826 0 171 173 363 0 +.733475794924678 .638853237114002 .38670785143027
3 0 0 1 1 0 0 .2685580490810075 16 171 1003 0 ?161 364 163 362 0 0 1 31 363 825
 0 364 362 365 0 -1.385553471339236 -.66946616981086 .386707851430273 0 0 1 1 0
 0 1.212683617114056 16 364 506 0 ?326 332 171 363 0 0 1 30 365 824 0 332 363 36
6 0 +-.576500305355164 -1.88214978692587 .386707851430273 -1 0 0 16 332 503 0 ?3
31 367 364 365 0 0 1 31 366 823 0 367 365 368 0 --.3792945775874825 -1.805543272
92859 .386707851430273 0 0 1 1 0 0 .0766065139963269 16 367 500 0 ?369 370 332 3
66 0 0 1 31 368 822 0 370 366 371 0 +-.576999751777016 -1.8555071571075 .3867078
51430273 0 0 1 1 0 0 .1273143667970756 16 370 497 0 ?372 373 367 368 0 0 1 31 37
1 821 0 373 368 374 0 --.41849917893386 -1.59504317935448 .386707851430273 0 0 1
 1 0 0 .177585477903661 16 373 494 0 ?375 376 370 371 0 0 1 30 374 820 0 376 371
 377 0 +-.522690313801958 .531407580375477 .386707851430273 1333520632550256e-20
 .999999999911086 0 16 376 491 0 ?378 379 373 374 0 0 1 31 377 819 0 379 374 380
 0 +-.548353297283676 -.633766281850746 .386707851430273 0 0 1 1 0 0 .0256474456
458466 16 379 488 0 ?381 382 376 377 0 0 1 31 380 818 0 382 377 383 0 --.5257040
05557699 -.534724971921293 .386707851430273 0 0 1 1 0 0 .0759506423687927 16 382
 485 0 ?384 385 379 380 0 0 1 30 383 817 0 385 380 194 0 +-.60164043082028 .5314
08633191619 .386707851430273 1333520798528926e-20 .999999999911086 0 16 385 482
 0 ?386 191 382 383 0 0 1 31 194 816 0 191 383 192 0 --.525698173798044 .3346618
86171124 .386707851430273 0 0 1 1 0 0 .0759448806742377 16 191 479 0 ?184 185 38
5 194 0 0 1 17 184 168 183 386 99 107 191 0 0 +17 386 168 184 384 105 113 385 0
 0 +17 107 387 358 388 105 184 191 0 389 -15 387 675 0 358 390 0 17 358 387 98 1
07 102 389 356 0 391 +17 388 387 107 98 99 361 359 0 184 -17 389 392 113 104 105
 358 356 0 386 -15 392 683 0 355 393 0 17 113 392 355 389 111 386 385 0 394 -17
 104 392 389 355 102 395 299 0 358 +17 355 392 104 113 108 394 353 0 395 +17 395
 31 396 391 108 104 299 0 0 -17 396 31 397 395 114 110 297 0 0 -17 391 31 395 39
8 102 98 301 0 0 -17 398 31 391 179 96 92 303 0 0 -17 98 387 388 358 96 391 301
 0 361 +17 361 399 92 101 96 388 359 0 398 +15 399 669 0 361 400 0 17 92 399 178
 361 90 398 303 0 175 +17 101 399 361 178 99 183 185 0 388 -17 178 399 101 92 93
 175 172 0 183 -17 175 174 167 95 90 178 172 0 179 +17 179 31 398 32 90 167 180
 0 0 -17 32 31 179 29 39 25 273 0 0 -17 25 23 21 41 22 32 273 0 26 +17 26 315 34
 170 22 21 27 0 0 -15 315 1041 0 170 401 0 17 34 315 311 26 35 29 20 0 308 -17 1
70 315 26 311 10 19 9 0 0 -17 19 168 161 28 30 170 9 0 310 +17 161 168 326 19 15
9 310 171 0 324 +17 326 168 331 161 153 324 364 0 0 +17 324 320 314 321 159 326
 364 0 313 -17 313 309 310 158 159 314 181 0 0 -17 331 168 369 326 147 155 332 0
 0 +17 369 168 372 331 141 149 367 0 0 +17 372 168 375 369 135 143 370 0 0 +17 1
49 402 330 403 147 369 367 0 329 -15 402 719 0 330 404 0 17 330 402 140 149 144
 329 333 0 319 +17 403 402 149 140 141 340 335 0 369 -17 329 327 155 146 147 330
 333 0 331 -17 140 402 403 330 138 319 287 0 340 +17 340 405 134 143 138 403 335
 0 406 +15 405 713 0 340 407 0 17 134 405 408 340 132 406 289 0 343 +17 143 405
 340 408 141 372 370 0 403 -17 406 31 319 409 138 134 289 0 0 -17 319 31 318 406
 144 140 287 0 0 -17 409 31 406 410 132 128 291 0 0 -17 410 31 409 397 126 122 2
93 0 0 -17 128 411 412 343 126 409 291 0 346 +15 411 707 0 343 413 0 17 412 411
 137 128 129 346 344 0 375 -17 343 411 128 137 132 408 341 0 409 +17 346 414 122
 131 126 412 344 0 410 +15 414 701 0 346 415 0 17 122 414 416 346 120 410 293 0
 349 +17 131 414 346 416 129 378 376 0 412 -17 416 414 131 122 123 349 347 0 378
 -17 378 168 381 375 123 131 376 0 0 +17 381 168 384 378 117 125 379 0 0 +17 375
 168 378 372 129 137 373 0 0 +17 137 411 343 412 135 375 373 0 408 -17 408 405 1
43 134 135 343 341 0 372 -17 384 168 386 381 111 119 382 0 0 +17 125 417 349 418
 123 381 379 0 416 -15 417 695 0 349 419 0 17 349 417 116 125 120 416 347 0 397
 +17 418 417 125 116 117 352 350 0 381 -17 116 417 418 349 114 397 295 0 352 +17
 352 420 110 119 114 418 350 0 396 +15 420 689 0 352 421 0 17 110 420 394 352 10
8 396 297 0 355 +17 119 420 352 394 117 384 382 0 418 -17 394 420 119 110 111 35
5 353 0 384 -14 421 759 422 ?419 393 420 4 423 +0 0 419 393 18 81 1 422 985 424
 421 0 0 425 426 427 14 419 762 426 ?415 421 417 4 428 +0 0 415 421 18 14 393 75
5 425 ?421 390 392 4 429 +0 0 421 390 18 51 423 801 0 421 428 429 0 --.525704005
557699 -.534724971921293 .386712146397568 0 0 -1 .0759506423687927 -1 0 0 13 18
 48 0 0 0 0 0 0 8 12 14 12 36 0 ?317 0 430 4 431 +0 0 317 0 18 14 317 77 0 ?432
 12 433 4 434 -0 0 432 12 18 15 430 35 0 257 12 435 50 431 37 0 12 434 436 0 +-.
576500305355164 .531408297942817 .386707851430273 0 0 1 1 0 0 50 434 81 0 317 43
7 431 0 +-.576500305355164 .531408297942817 .361307851430273 0 0 1 1 0 0 50 436
 128 0 432 431 438 0 +2.928699694644 .633008297943053 .386707851430273 0 -1 0 0
 0 -1 14 432 119 439 ?14 317 440 4 436 -0 0 14 317 18 51 438 129 0 441 436 442 0
 -2.928699694644835 .531408297942817 .386707851430273 0 0 -1 .1016 -1 0 0 14 441
 47 443 ?444 445 446 4 438 -0 0 444 445 18 50 442 130 0 445 438 447 0 +3.0302996
94644 -1.85619170205695 .386707851430273 -1 0 0 0 0 1 14 445 101 448 ?441 449 45
0 4 442 -0 0 441 449 18 51 447 131 0 449 442 451 0 -2.928699694644835 -1.8561917
02057185 .386707851430273 0 0 -1 .1016 -1 0 0 14 449 104 452 ?445 453 454 4 447
 -0 0 445 453 18 50 451 132 0 453 447 455 0 +-.576500305355998 -1.95779170205695
 .386707851430273 0 1 0 0 0 1 14 453 107 456 ?449 457 458 4 451 -0 0 449 457 18
 51 455 133 0 457 451 15 0 --.576500305355164 -1.856191702057185 .38670785143027
3 0 0 -1 .1016 -1 0 0 14 457 110 459 ?453 460 461 4 455 -0 0 453 460 18 50 15 13
4 0 460 455 5 0 +-.678100305355998 .531408297943052 .386707851430273 1 0 0 0 0 -
1 14 460 113 462 ?457 14 463 4 15 -0 0 457 14 18 81 1 462 259 424 460 0 0 464 45
9 465 14 14 116 464 ?460 432 466 4 5 -0 0 460 432 18 15 463 112 0 50 460 0 17 50
 463 467 228 48 74 267 0 252 -17 467 463 71 50 45 252 250 0 0 -17 228 463 50 71
 72 468 226 0 469 +17 74 461 225 470 72 50 267 0 228 +17 252 430 249 255 48 467
 250 0 470 +17 249 430 246 252 51 470 247 0 471 +17 255 430 252 257 45 472 253 0
 467 +17 470 461 74 53 48 249 247 0 0 -15 461 109 0 53 457 0 17 53 461 470 225 5
1 77 265 0 249 -17 225 461 53 74 75 469 223 0 473 +17 77 458 222 471 75 53 265 0
 225 +15 458 106 0 56 453 0 17 222 458 56 77 78 473 220 0 474 +17 471 458 77 56
 51 246 244 0 0 -17 56 458 471 222 54 80 263 0 246 -17 246 430 243 249 54 471 24
4 0 475 +17 243 430 240 246 57 475 241 0 476 +17 475 454 80 59 54 243 241 0 0 -1
5 454 103 0 59 449 0 17 80 454 219 475 78 56 263 0 222 +17 59 454 475 219 57 83
 261 0 243 -17 219 454 59 80 81 474 217 0 477 +17 83 450 216 476 81 59 261 0 219
 +15 450 100 0 65 445 0 17 216 450 65 83 87 477 214 0 478 +17 476 450 83 65 57 2
40 238 0 0 -17 65 450 476 216 63 89 259 0 240 -17 240 430 236 243 63 476 238 0 4
79 +17 236 430 257 240 60 479 234 0 0 +17 479 446 89 62 63 236 234 0 0 -15 446 4
6 0 479 441 0 17 89 446 212 479 87 65 259 0 216 +17 62 446 479 212 60 86 237 0 4
80 -17 212 446 62 89 84 478 210 0 0 +17 86 440 233 480 84 62 237 0 481 +17 480 4
40 86 44 60 257 213 0 236 -15 440 118 0 44 432 0 17 44 440 480 233 42 68 271 0 2
57 -17 257 430 255 236 42 480 213 0 472 +17 472 466 68 47 42 255 253 0 0 -15 466
 115 0 47 14 0 17 68 466 231 472 66 44 271 0 233 +17 47 466 472 231 45 71 269 0
 255 -17 231 466 47 68 69 482 229 0 468 +17 71 463 228 467 69 47 269 0 231 +17 4
82 433 481 468 66 231 229 0 0 -17 468 433 482 469 69 228 226 0 0 -15 433 78 0 48
1 317 483 17 469 433 468 473 72 225 223 0 0 -17 473 433 469 474 75 222 220 0 0 -
17 474 433 473 477 78 219 217 0 0 -17 477 433 474 478 81 216 214 0 0 -17 478 433
 477 481 87 212 210 0 0 -17 481 433 478 482 84 233 209 0 212 -17 233 440 44 86 6
6 481 209 0 482 +15 483 165 0 275 317 484 17 275 483 275 275 0 485 205 0 0 +15 4
84 213 0 277 317 486 17 277 484 277 277 0 487 201 0 0 +15 486 270 0 278 317 488
 17 278 486 278 278 0 489 197 0 0 +15 488 318 0 188 317 31 17 188 488 188 188 0
 490 186 0 0 +17 490 491 490 490 0 188 186 0 0 -15 491 340 0 490 492 0 14 492 34
7 493 ?176 494 495 4 496 -0 0 176 494 18 81 1 493 364 424 492 0 0 497 498 499 14
 176 746 498 ?400 492 174 4 500 +0 0 400 492 18 14 494 299 497 ?492 501 502 4 50
3 -0 0 492 501 18 15 495 339 0 196 492 491 51 496 355 0 492 504 503 0 +-.5765003
05355163 .531408297942818 .386707851430273 0 0 -1 .0381 -1 0 0 51 504 798 0 400
 505 496 0 +-.576484521162717 .531434970476451 .386712146397568 0 0 -1 .12727642
6736369 -1 0 0 51 503 307 0 494 496 506 0 +2.928699694644835 -1.856191702057185
 .386707851430273 0 0 -1 .0381 -1 0 0 51 506 250 0 501 503 437 0 +-.576500305355
164 -1.85619170205718 .386707851430273 0 0 -1 .0381 -1 0 0 14 501 242 507 ?494 4
44 508 4 506 -0 0 494 444 18 51 437 202 0 444 506 434 0 +2.928699694644835 .5314
08297942817 .386707851430273 0 0 -1 .0381 -1 0 0 14 444 194 509 ?501 441 510 4 4
37 -0 0 501 441 18 81 1 509 267 424 444 0 0 443 507 511 15 510 186 0 208 444 512
 17 208 510 208 208 0 513 206 0 0 +15 512 187 0 485 444 0 17 485 512 485 485 0 2
75 205 0 0 -17 513 435 513 513 0 208 206 0 0 -15 435 172 0 513 12 514 15 514 220
 0 515 12 516 17 515 514 515 515 0 204 202 0 0 -15 516 277 0 517 12 518 17 517 5
16 517 517 0 200 198 0 0 -15 518 325 0 519 12 168 17 519 518 519 519 0 196 189 0
 0 -17 196 495 196 196 0 519 189 0 0 +17 200 502 200 200 0 517 198 0 0 +15 502 2
91 0 200 494 520 15 520 292 0 489 494 0 17 489 520 489 489 0 278 197 0 0 -17 204
 508 204 204 0 515 202 0 0 +15 508 234 0 204 501 521 15 521 235 0 487 501 0 17 4
87 521 487 487 0 277 201 0 0 -80 1 424 522 523 9000 2 2 2 2 1 1 1 1 FFFFTFFFFFFF
F1 81 1 443 264 424 441 0 0 448 509 524 81 1 507 268 424 501 0 0 509 497 525 82
 1 511 0 81 1 497 316 424 494 0 0 507 493 526 82 1 525 0 82 1 526 0 81 1 448 263
 424 445 0 0 452 443 527 82 1 524 0 81 1 452 262 424 449 0 0 456 448 528 82 1 52
7 0 81 1 456 261 424 453 0 0 459 452 529 82 1 528 0 81 1 459 260 424 457 0 0 462
 456 530 82 1 529 0 82 1 530 0 79 11 523 BSI_OldFace14 400 749 531 ?390 176 399
 4 504 +0 0 390 176 18 51 505 799 0 390 429 504 0 --.525698173798044 .3346618861
71124 .386712146397568 0 0 -1 .0759448806742377 -1 0 0 14 390 752 532 ?393 400 3
87 4 505 +0 0 393 400 18 50 429 800 0 393 423 505 0 +-.601648440354625 -.0692219
946256907 .386712146397568 .999999999911086 -1333520798528926e-20 0 133352079852
8926e-20 .999999999911086 0 81 1 532 983 424 390 0 0 531 425 533 81 1 531 982 42
4 400 0 0 498 532 534 81 1 425 984 424 393 0 0 532 422 535 82 1 533 0 82 1 535 0
 81 1 498 981 424 176 0 0 493 531 536 82 1 534 0 82 1 536 0 51 500 811 0 176 537
 538 0 --.379741635278331 .480559183409579 .386712146397568 0 0 -1 .075938013832
6768 -1 0 0 51 537 1052 0 401 0 500 0 +.397862596790994 .429497197241127 .386712
146397568 0 0 -1 .127 -1 0 0 50 538 810 0 165 500 539 0 +.477857117157506 .55649
7197241127 .386712146397568 0 -1 0 0 0 -1 14 165 787 0 ?401 312 23 4 538 +0 0 40
1 312 18 51 539 809 0 312 538 540 0 +.733475794924678 .638853237114002 .38671214
6397568 0 0 -1 .2685580490810075 -1 0 0 14 312 784 0 ?165 323 309 4 539 +0 0 165
 323 18 51 540 808 0 323 539 541 0 -1.385553471339236 -.66946616981086 .38671214
6397568 0 0 -1 1.212683617114056 -1 0 0 14 323 781 542 ?312 328 320 4 540 +0 0 3
12 328 18 50 541 807 0 328 540 543 0 +.489375132358776 -1.88214978692587 .386712
146397568 0 1 0 0 0 1 14 328 777 544 ?323 404 327 4 541 +0 0 323 404 18 51 543 8
06 0 404 541 545 0 --.3792945775874825 -1.80554327292859 .386712146397568 0 0 -1
 .0766065139963269 -1 0 0 14 404 774 546 ?328 407 402 4 543 +0 0 328 407 18 51 5
45 805 0 407 543 547 0 +-.576999751777016 -1.8555071571075 .386712146397568 0 0
 -1 .1273143667970756 -1 0 0 14 407 771 548 ?404 413 405 4 545 +0 0 404 413 18 5
1 547 804 0 413 545 549 0 --.41849917893386 -1.59504317935448 .386712146397568 0
 0 -1 .177585477903661 -1 0 0 14 413 768 550 ?407 415 411 4 547 +0 0 407 415 18
 50 549 803 0 415 547 428 0 +-.52270585164037 -.633766623276467 .386712146397568
 .999999999911086 -1333520632550256e-20 0 1333520632550256e-20 .999999999911086
 0 14 415 765 551 ?413 419 414 4 549 +0 0 413 419 18 51 428 802 0 419 549 423 0
 +-.548353297283676 -.633766281850746 .386712146397568 0 0 -1 .0256474456458466
 -1 0 0 81 1 551 987 424 415 0 0 426 550 552 81 1 426 986 424 419 0 0 422 551 55
3 81 1 550 988 424 413 0 0 551 548 554 82 1 552 0 81 1 548 989 424 407 0 0 550 5
46 555 82 1 554 0 81 1 546 990 424 404 0 0 548 544 556 82 1 555 0 81 1 544 991 4
24 328 0 0 546 542 557 82 1 556 0 81 1 542 992 424 323 0 0 544 0 558 82 1 557 0
 82 1 558 0 82 1 553 0 14 401 1040 0 ?0 165 315 4 537 -0 0 0 165 18 82 1 499 0 8
1 1 464 258 424 14 0 0 439 462 559 81 1 439 257 424 432 0 0 0 464 560 82 1 559 0
 82 1 560 0 82 1 465 0 82 1 427 0 17 397 31 410 396 120 116 295 0 0 -30 182 841
 0 166 0 337 0 +-.379741647444075 .556497197241127 .386712146397568 0 0 -1 19 13
 1 0 1 0 8 4 S74 20 11 1 0 542 0 0 0 0 0 0 0 0 0 0 0 0 0 0 0 0 0 0 0 1 0 
