106 0 1 0           
body $-1 $1 $-1 $2 #
lump $-1 $-1 $3 $0 #
transform $-1 1 3.76158192263132e-037 9.1493212513396993e-012 -2.9650074969343939e-021 1 3.2406857464975768e-010 -9.1493212513396993e-012 -3.2406857464975768e-010 1 0.40280000000000005 -2.0203000000000002 -0.125 1 1 0 0 #
shell $-1 $-1 $-1 $4 $1 #
face $-1 $5 $6 $3 $-1 $7 forward single #
face $-1 $8 $9 $3 $-1 $10 forward single #
loop $-1 $-1 $11 $4 #
cone-surface $-1 -0.40280000000000032 -0.77682909326036942 2.5543123172155902e-010 9.1493212513396993e-012 3.2406857464975768e-010 1 -0.70788986991769853 -0.51431209561314706 1.7314909958092858e-010 1 I I 0 -1 0 I I I I #
face $-1 $12 $13 $3 $-1 $14 forward single #
loop $-1 $-1 $15 $5 #
cone-surface $-1 0.47887787843870983 0.80677450843757947 -2.6583091283782778e-010 9.1493212513396993e-012 3.2406857464975768e-010 1 -0.75845343205467697 -0.55104867387122902 1.8551689240813778e-010 1 I I 0 1 0 I I I I #
coedge $-1 $16 $17 $18 $19 1 $6 $-1 #
face $-1 $20 $21 $3 $-1 $22 forward single #
loop $-1 $-1 $23 $8 #
cone-surface $-1 2.2574278510640289 1.155939574721959 -3.9525804851336943e-010 9.1493212513396993e-012 3.2406857464975768e-010 1 -0.70788986991769853 -0.51431209561314706 1.7314909958092858e-010 1 I I 0 -1 0 I I I I #
coedge $-1 $24 $25 $26 $27 1 $9 $-1 #
coedge $-1 $28 $11 $25 $29 0 $6 $-1 #
coedge $-1 $11 $28 $30 $31 1 $6 $-1 #
coedge $-1 $32 $26 $11 $19 0 $33 $-1 #
edge $-1 $34 $35 $18 $36 0 #
face $-1 $37 $38 $3 $-1 $39 forward single #
loop $-1 $-1 $40 $12 #
cone-surface $-1 1.0237847744427306 2.4838254915624214 -8.1429618603579002e-010 9.1493212513396993e-012 3.2406857464975768e-010 1 0.28970343271564847 -0.89161548424817394 2.8629396934242781e-010 1 I I 0 1 0 I I I I #
coedge $-1 $41 $42 $43 $44 1 $13 $-1 #
coedge $-1 $45 $15 $46 $47 1 $9 $-1 #
coedge $-1 $15 $48 $16 $29 1 $9 $-1 #
coedge $-1 $18 $49 $15 $27 0 $33 $-1 #
edge $-1 $50 $34 $26 $51 0 #
coedge $-1 $17 $16 $52 $53 1 $6 $-1 #
edge $-1 $34 $54 $16 $55 0 #
coedge $-1 $56 $57 $17 $31 0 $58 $-1 #
edge $-1 $35 $59 $30 $60 0 #
coedge $-1 $61 $18 $57 $62 0 $33 $-1 #
loop $-1 $-1 $32 $63 #
vertex $-1 $27 $64 #
vertex $-1 $19 $65 #
ellipse-curve $-1 -0.40279999999428201 -0.77682909305782655 0.62499999922021054 1.1286457985498242e-010 -1.2496428975971838e-009 1 -0.70788986991769853 -0.51431209561314706 -5.6281076467943374e-010 1 I I #
face $-1 $66 $67 $3 $-1 $68 forward single #
loop $-1 $-1 $69 $20 #
cone-surface $-1 1.241311230029263 4.2832249722558995 -1.3994156944363567e-009 9.1493212513396993e-012 3.2406857464975768e-010 1 0.87500000000000011 0 -8.0056560949222628e-012 1 I I 0 -1 0 I I I I #
coedge $-1 $70 $71 $72 $73 1 $21 $-1 #
coedge $-1 $74 $23 $71 $75 0 $13 $-1 #
coedge $-1 $23 $74 $76 $77 1 $13 $-1 #
coedge $-1 $78 $72 $23 $44 0 $79 $-1 #
edge $-1 $80 $81 $43 $82 0 #
coedge $-1 $83 $24 $84 $85 1 $9 $-1 #
coedge $-1 $86 $87 $24 $47 0 $88 $-1 #
edge $-1 $89 $50 $46 $90 0 #
coedge $-1 $25 $76 $91 $92 1 $9 $-1 #
coedge $-1 $26 $93 $86 $94 1 $33 $-1 #
vertex $-1 $47 $95 #
ellipse-curve $-1 0.47887787844442814 0.80677450864012235 0.62500000109963938 -1.1286457985498242e-010 1.2496428975971838e-009 -1 -0.75845343205467697 -0.55104867387122902 -6.0301153358510765e-010 1 I I #
coedge $-1 $91 $96 $28 $53 0 $97 $-1 #
edge $-1 $59 $54 $52 $98 0 #
vertex $-1 $92 $99 #
straight-curve $-1 0.022837596504540536 -0.012330802755164516 3.787192781601334e-012 9.1493212513396993e-012 3.2406857464975768e-010 1 I I #
coedge $-1 $100 $30 $96 $101 1 $58 $-1 #
coedge $-1 $30 $102 $32 $62 1 $58 $-1 #
loop $-1 $-1 $57 $103 #
vertex $-1 $53 $104 #
straight-curve $-1 -0.82843759647189164 -0.012330802813807384 1.1575629343951732e-011 9.1493212513396993e-012 3.2406857464975768e-010 1 I I #
coedge $-1 $93 $32 $105 $106 1 $33 $-1 #
edge $-1 $35 $107 $32 $108 0 #
face $-1 $-1 $33 $3 $-1 $109 forward single #
point $-1 0.022837596510258861 -0.012330802552621657 0.6250000001275211 #
point $-1 -0.82843759646617332 -0.012330802611264525 0.62500000022359992 #
face $-1 $110 $111 $3 $-1 $112 forward single #
loop $-1 $-1 $113 $37 #
cone-surface $-1 -0.4028000000000001 3.5203000000000007 -1.1371330543852309e-009 9.1493212513396993e-012 3.2406857464975768e-010 1 0.93750000000000011 0 -8.5774886731309738e-012 1 I I 0 1 0 I I I I #
coedge $-1 $114 $115 $116 $117 1 $38 $-1 #
coedge $-1 $118 $40 $119 $120 1 $21 $-1 #
coedge $-1 $40 $121 $41 $75 1 $21 $-1 #
coedge $-1 $43 $122 $40 $73 0 $79 $-1 #
edge $-1 $123 $80 $72 $124 0 #
coedge $-1 $42 $41 $125 $126 1 $13 $-1 #
edge $-1 $80 $127 $41 $128 0 #
coedge $-1 $48 $129 $42 $77 0 $9 $-1 #
edge $-1 $81 $130 $76 $131 0 #
coedge $-1 $132 $43 $129 $133 0 $79 $-1 #
loop $-1 $-1 $78 $134 #
vertex $-1 $73 $135 #
vertex $-1 $44 $136 #
ellipse-curve $-1 2.2574278510697474 1.1559395749245018 0.6249999985695216 1.5378876491847515e-009 -6.3595941983134397e-011 1 -0.70788986991769853 -0.51431209561314706 1.0559469257355907e-009 1 I I #
coedge $-1 $129 $45 $137 $138 1 $9 $-1 #
coedge $-1 $139 $140 $45 $85 0 $141 $-1 #
edge $-1 $142 $89 $84 $143 0 #
coedge $-1 $144 $46 $49 $94 0 $88 $-1 #
coedge $-1 $46 $144 $145 $146 0 $88 $-1 #
loop $-1 $-1 $46 $147 #
vertex $-1 $146 $148 #
straight-curve $-1 0.12839954700431994 -0.062749032799645943 1.9160980641256401e-011 9.1493212513396993e-012 3.2406857464975768e-010 1 I I #
coedge $-1 $125 $52 $48 $92 0 $97 $-1 #
edge $-1 $54 $130 $91 $149 0 #
coedge $-1 $49 $61 $150 $151 1 $33 $-1 #
edge $-1 $50 $152 $86 $153 0 #
point $-1 0.12839954707485943 -0.062749032623230408 0.62500000005260203 #
coedge $-1 $52 $154 $56 $101 0 $97 $-1 #
loop $-1 $-1 $155 $156 #
ellipse-curve $-1 -0.40279999996683397 -0.77682909208562068 3.6250000002554312 -9.1493212513396993e-012 -3.2406857464975768e-010 -1 -0.70788986991769853 -0.51431209561314706 1.7314909958092858e-010 1 I I #
point $-1 0.022837596537706895 -0.012330801580416217 3.6250000000037872 #
coedge $-1 $157 $56 $158 $159 1 $58 $-1 #
edge $-1 $160 $59 $96 $161 0 #
coedge $-1 $57 $162 $163 $164 1 $58 $-1 #
face $-1 $165 $58 $3 $-1 $166 forward single #
point $-1 -0.82843759643872539 -0.012330801639059086 3.6250000000115756 #
coedge $-1 $163 $167 $61 $106 0 $168 $-1 #
edge $-1 $169 $107 $105 $170 0 #
vertex $-1 $106 $171 #
ellipse-curve $-1 -1.2844778784329918 0.80677450864012212 0.62500000129865985 -1.1286457985498242e-010 1.2496428975971838e-009 -1 -0.75845343205467697 0.55104867387122902 7.7421658948194883e-010 1 I I #
plane-surface $-1 0.022813776860586943 -0.012307672256547164 0.62500000012755264 1.1286457985498242e-010 -1.2496428975971838e-009 1 1 0 -1.1286457985498242e-010 0 I I I I #
face $-1 $172 $173 $3 $-1 $174 forward single #
loop $-1 $-1 $175 $66 #
cone-surface $-1 -2.046911230428448 4.2832249728053338 -1.3693304268258544e-009 9.1493212513396993e-012 3.2406857464975768e-010 1 0.27038987053460511 0.83217445196496209 -2.7215547229685779e-010 1 I I 0 -1 0 I I I I #
coedge $-1 $176 $177 $178 $179 1 $67 $-1 #
coedge $-1 $180 $69 $177 $181 0 $38 $-1 #
coedge $-1 $69 $180 $182 $183 1 $38 $-1 #
coedge $-1 $184 $178 $69 $117 0 $185 $-1 #
edge $-1 $186 $187 $116 $188 0 #
coedge $-1 $189 $70 $190 $191 1 $21 $-1 #
coedge $-1 $192 $193 $70 $120 0 $194 $-1 #
edge $-1 $195 $123 $119 $196 0 #
coedge $-1 $71 $182 $197 $198 1 $21 $-1 #
coedge $-1 $72 $199 $192 $200 1 $79 $-1 #
vertex $-1 $120 $201 #
ellipse-curve $-1 1.023784774448449 2.4838254917649643 0.62500000055117422 -1.5378876491847515e-009 6.3595941983134397e-011 -1 0.28970343271564847 -0.89161548424817394 -5.022344577073327e-010 1 I I #
coedge $-1 $197 $91 $74 $126 0 $97 $-1 #
edge $-1 $130 $127 $125 $202 0 #
vertex $-1 $198 $203 #
straight-curve $-1 1.6618760213494128 1.796987947961745 -5.9755222991952905e-010 9.1493212513396993e-012 3.2406857464975768e-010 1 I I #
coedge $-1 $76 $83 $78 $133 1 $9 $-1 #
vertex $-1 $126 $204 #
straight-curve $-1 1.3988175194836017 0.98737712893574181 -3.3277647304430502e-010 9.1493212513396993e-012 3.2406857464975768e-010 1 I I #
coedge $-1 $199 $78 $205 $206 1 $79 $-1 #
edge $-1 $81 $207 $78 $208 0 #
face $-1 $209 $79 $3 $-1 $210 forward single #
point $-1 1.6618760213551311 1.7969879481642879 0.62499999952618146 #
point $-1 1.39881751948932 0.98737712913828468 0.62499999987924804 #
coedge $-1 $211 $205 $83 $138 0 $212 $-1 #
edge $-1 $207 $142 $137 $213 0 #
coedge $-1 $214 $84 $215 $216 1 $141 $-1 #
coedge $-1 $84 $217 $218 $219 1 $141 $-1 #
loop $-1 $-1 $220 $165 #
vertex $-1 $219 $221 #
ellipse-curve $-1 0.47887787843870983 0.80677450843757947 -2.6583091283782778e-010 -9.1493212513396993e-012 -3.2406857464975768e-010 -1 -0.75845343205467697 -0.55104867387122902 1.8551689240813778e-010 1 I I #
coedge $-1 $87 $86 $222 $223 0 $88 $-1 #
coedge $-1 $224 $215 $87 $146 1 $225 $-1 #
edge $-1 $226 $89 $87 $227 0 #
face $-1 $228 $88 $3 $-1 $229 forward single #
point $-1 0.12839954700431994 -0.062749032799645943 1.9160980641256401e-011 #
ellipse-curve $-1 0.47887787847187618 0.80677450961232799 3.6249999997341686 9.1493212513396993e-012 3.2406857464975768e-010 1 -0.75845343205467697 -0.55104867387122902 1.8551689240813778e-010 1 I I #
coedge $-1 $230 $222 $93 $151 0 $231 $-1 #
edge $-1 $152 $169 $150 $232 0 #
vertex $-1 $223 $233 #
straight-curve $-1 0.12840000219568903 -0.58229305776136098 0.62499999940335738 8.7600050736805688e-007 -0.9999999999996162 -1.2496431397510463e-009 I I #
coedge $-1 $96 $234 $235 $236 0 $97 $-1 #
coedge $-1 $237 $197 $180 $238 0 $97 $-1 #
face $-1 $239 $240 $3 $-1 $241 forward single #
coedge $-1 $242 $100 $243 $244 1 $58 $-1 #
coedge $-1 $235 $245 $100 $159 0 $246 $-1 #
edge $-1 $247 $160 $158 $248 0 #
vertex $-1 $101 $249 #
ellipse-curve $-1 -1.2844778784055437 0.80677450961232799 3.624999999750302 9.1493212513396993e-012 3.2406857464975768e-010 1 -0.75845343205467697 0.55104867387122902 -1.7163822420003897e-010 1 I I #
coedge $-1 $102 $242 $250 $251 1 $58 $-1 #
coedge $-1 $252 $105 $102 $164 0 $168 $-1 #
edge $-1 $107 $253 $163 $254 0 #
face $-1 $156 $141 $3 $-1 $255 forward single #
cone-surface $-1 -1.2844778784387101 0.80677450843757925 -2.4969804002239471e-010 9.1493212513396993e-012 3.2406857464975768e-010 1 -0.75845343205467697 0.55104867387122902 -1.7163822420003897e-010 1 I I 0 1 0 I I I I #
coedge $-1 $105 $252 $230 $256 1 $168 $-1 #
loop $-1 $-1 $163 $209 #
vertex $-1 $256 $257 #
straight-curve $-1 -0.93411825487365852 -0.062789911955715483 0.62500000017247159 -3.745338842141982e-005 0.99999999929862193 1.2496472671659212e-009 I I #
point $-1 -0.93411825461303422 -0.062796870585008949 0.62500000017246293 #
face $-1 $258 $246 $3 $-1 $259 forward single #
loop $-1 $-1 $260 $110 #
cone-surface $-1 -1.8293847744427305 2.4838254915624214 -7.8819262228080333e-010 9.1493212513396993e-012 3.2406857464975768e-010 1 0.28970343271564847 0.89161548424817394 -2.9159514888949055e-010 1 I I 0 1 0 I I I I #
coedge $-1 $261 $262 $263 $264 1 $111 $-1 #
coedge $-1 $265 $113 $266 $267 1 $67 $-1 #
coedge $-1 $113 $268 $114 $181 1 $67 $-1 #
coedge $-1 $116 $269 $113 $179 0 $185 $-1 #
edge $-1 $270 $186 $178 $271 0 #
coedge $-1 $115 $114 $155 $238 1 $38 $-1 #
edge $-1 $186 $272 $114 $273 0 #
coedge $-1 $121 $274 $115 $183 0 $21 $-1 #
edge $-1 $187 $275 $182 $276 0 #
coedge $-1 $277 $116 $274 $278 0 $185 $-1 #
loop $-1 $-1 $184 $279 #
vertex $-1 $117 $280 #
vertex $-1 $117 $281 #
ellipse-curve $-1 1.2413112300349813 4.2832249724584424 0.62499999756536362 8.5024630921522825e-010 1.6581901993852728e-009 1 0.87500000000000011 -2.3850146427770407e-019 -7.4396552056332485e-010 1 I I #
coedge $-1 $274 $118 $282 $283 1 $21 $-1 #
coedge $-1 $284 $285 $118 $191 0 $141 $-1 #
edge $-1 $286 $195 $190 $287 0 #
coedge $-1 $288 $119 $122 $200 0 $194 $-1 #
coedge $-1 $119 $288 $289 $290 0 $194 $-1 #
loop $-1 $-1 $119 $291 #
vertex $-1 $290 $292 #
straight-curve $-1 1.7424470444407456 1.8818032391832951 -6.2577496477927894e-010 9.1493212513396993e-012 3.2406857464975762e-010 1 I I #
coedge $-1 $155 $125 $121 $198 0 $97 $-1 #
edge $-1 $127 $275 $197 $293 0 #
coedge $-1 $122 $132 $294 $295 1 $79 $-1 #
edge $-1 $123 $296 $192 $297 0 #
point $-1 1.7424470444913436 1.8818032394394133 0.62499999940766626 #
ellipse-curve $-1 2.2574278510971952 1.1559395758967077 3.6249999996047428 -9.1493212513396993e-012 -3.2406857464975768e-010 -1 -0.70788986991769853 -0.51431209561314706 1.7314909958092858e-010 1 I I #
point $-1 1.6618760213825792 1.7969879491364935 3.6249999994024478 #
point $-1 1.398817519516768 0.98737713011049033 3.624999999667224 #
coedge $-1 $137 $298 $132 $206 0 $212 $-1 #
edge $-1 $299 $207 $205 $300 0 #
vertex $-1 $206 $301 #
ellipse-curve $-1 0.47887787844442814 0.80677450864012235 0.6250000012825262 -1.5378876491847515e-009 6.3595941983134397e-011 -1 -0.75845343205467697 -0.55104867387122902 1.1313717061452761e-009 1 I I #
face $-1 $302 $168 $3 $-1 $303 forward single #
plane-surface $-1 1.6618466620577219 1.7969724424185913 0.62499999952622565 1.5378876491847515e-009 -6.3595941983134397e-011 1 0.30901699437494745 0.95105651629515353 -4.1475008400443701e-010 0 I I I I #
coedge $-1 $298 $137 $304 $305 0 $212 $-1 #
loop $-1 $-1 $137 $306 #
straight-curve $-1 1.4141564829425208 0.87127397764596071 -2.9529032830196389e-010 -9.1493212513396993e-012 -3.2406857464975768e-010 -1 I I #
coedge $-1 $307 $139 $308 $309 1 $141 $-1 #
coedge $-1 $145 $308 $139 $216 0 $225 $-1 #
edge $-1 $310 $89 $215 $227 1 #
coedge $-1 $140 $311 $312 $313 1 $141 $-1 #
coedge $-1 $312 $304 $140 $219 0 $314 $-1 #
edge $-1 $142 $315 $218 $316 1 #
coedge $-1 $250 $317 $318 $319 1 $141 $-1 #
point $-1 1.4141564829425208 0.87127397764596071 -2.9529032830196389e-010 #
coedge $-1 $150 $320 $144 $223 1 $231 $-1 #
edge $-1 $152 $226 $222 $321 1 #
coedge $-1 $322 $145 $320 $323 1 $225 $-1 #
loop $-1 $-1 $318 $302 #
vertex $-1 $323 $324 #
straight-curve $-1 0.12840000212514868 -0.58229305698033418 -5.9664268246194476e-010 -8.7600050736805688e-007 0.9999999999996162 1.2496431397510463e-009 I I #
face $-1 $63 $231 $3 $-1 $325 forward single #
plane-surface $-1 0.1283995469982207 -0.062742070251230353 5.2610643855215912e-011 0.99999999999961631 8.7600050736819802e-007 -1.1286348516712679e-010 -1.128634851671701e-010 0 -1 0 I I I I #
coedge $-1 $320 $150 $167 $256 0 $231 $-1 #
loop $-1 $-1 $150 $228 #
ellipse-curve $-1 -0.4027999999294597 2.0202999992189734 0.62500000271562339 -1.1286456206731918e-010 1.2496430408821117e-009 -1 2.65625 3.7463860114746153e-019 -2.9979649299131657e-010 1 I I #
point $-1 0.12840000219568903 -0.58229305776136098 0.62499999940335749 #
coedge $-1 $154 $326 $327 $328 0 $97 $-1 #
coedge $-1 $329 $158 $154 $236 1 $246 $-1 #
edge $-1 $330 $160 $154 $331 0 #
coedge $-1 $326 $155 $268 $332 0 $97 $-1 #
edge $-1 $275 $272 $155 $333 0 #
face $-1 $334 $335 $3 $-1 $336 forward single #
loop $-1 $97 $337 $156 #
plane-surface $-1 -0.4027999999668338 2.0203000011747489 3.6249999993489697 -9.1493212513396993e-012 -3.2406857464975768e-010 -1 -0.70710678118654746 -0.70710678118654746 2.3562063380437902e-010 0 I I I I #
coedge $-1 $162 $157 $338 $339 1 $58 $-1 #
coedge $-1 $340 $341 $157 $244 0 $342 $-1 #
edge $-1 $343 $247 $243 $344 0 #
coedge $-1 $158 $329 $340 $345 1 $246 $-1 #
loop $-1 $-1 $245 $172 #
vertex $-1 $244 $346 #
straight-curve $-1 -2.2044175194177398 0.98737712892281193 -2.9980906646187577e-010 9.1493212513396993e-012 3.2406857464975768e-010 1 I I #
point $-1 -2.2044175193845734 0.98737713009756045 3.6249999997001909 #
coedge $-1 $347 $220 $162 $251 0 $141 $-1 #
edge $-1 $253 $348 $250 $349 0 #
coedge $-1 $167 $163 $322 $350 0 $168 $-1 #
vertex $-1 $319 $351 #
straight-curve $-1 -0.93411825468353671 -0.062796870813654149 2.8897164656541798e-011 -9.1493212513396993e-012 -3.2406857464975768e-010 -1 I I #
plane-surface $-1 -0.40279999999139654 2.0203000000909648 -6.5103034074809329e-010 -9.1493212513396993e-012 -3.2406857464975768e-010 -1 -1 0 9.1493212513397106e-012 0 I I I I #
edge $-1 $169 $352 $167 $353 1 #
point $-1 -0.93409879847585053 -0.58227289105003166 0.6249999995233011 #
face $-1 $354 $355 $3 $-1 $356 forward single #
cone-surface $-1 -3.0630278510640294 1.155939574721959 -3.4657876568644497e-010 9.1493212513396993e-012 3.2406857464975768e-010 1 -0.70788986991769853 0.51431209561314706 -1.6019567592003638e-010 1 I I 0 -1 0 I I I I #
coedge $-1 $357 $358 $359 $360 1 $173 $-1 #
coedge $-1 $361 $175 $358 $362 0 $111 $-1 #
coedge $-1 $175 $361 $363 $364 1 $111 $-1 #
coedge $-1 $365 $359 $175 $264 0 $366 $-1 #
edge $-1 $367 $368 $263 $369 0 #
coedge $-1 $370 $176 $371 $372 1 $67 $-1 #
coedge $-1 $373 $374 $176 $267 0 $375 $-1 #
edge $-1 $376 $270 $266 $377 0 #
coedge $-1 $177 $363 $237 $332 1 $67 $-1 #
coedge $-1 $178 $378 $373 $379 1 $185 $-1 #
vertex $-1 $267 $380 #
ellipse-curve $-1 -0.40279999999428179 3.5203000002025435 0.62500000022833779 -8.5024630921522825e-010 -1.6581901993852728e-009 -1 0.93750000000000011 -2.5553728315468295e-019 -7.9710591488927655e-010 1 I I #
vertex $-1 $238 $381 #
straight-curve $-1 0.44760236035996354 3.9149163649599492 -1.2727960907454872e-009 9.1493212513396993e-012 3.2406857464975768e-010 1 I I #
coedge $-1 $182 $189 $184 $278 1 $21 $-1 #
vertex $-1 $238 $382 #
straight-curve $-1 1.1362984583667988 3.4145493608866344 -1.1169447589054471e-009 9.1493212513396993e-012 3.2406857464975768e-010 1 I I #
coedge $-1 $378 $184 $383 $384 1 $185 $-1 #
edge $-1 $187 $385 $184 $386 0 #
face $-1 $306 $185 $3 $-1 $387 forward single #
point $-1 0.44760236036568185 3.9149163651624921 0.62499999885093727 #
point $-1 1.1362984583725171 3.4145493610891773 0.62499999909507975 #
coedge $-1 $388 $383 $189 $283 0 $389 $-1 #
edge $-1 $385 $286 $282 $390 0 #
coedge $-1 $391 $190 $392 $393 1 $141 $-1 #
coedge $-1 $190 $394 $395 $396 1 $141 $-1 #
vertex $-1 $396 $397 #
ellipse-curve $-1 1.0237847744427306 2.4838254915624214 -8.1429618603579002e-010 -9.1493212513396993e-012 -3.2406857464975768e-010 -1 0.28970343271564847 -0.89161548424817394 2.8629396934242781e-010 1 I I #
coedge $-1 $193 $192 $398 $399 1 $194 $-1 #
coedge $-1 $400 $392 $193 $290 1 $314 $-1 #
edge $-1 $401 $195 $193 $402 0 #
face $-1 $403 $194 $3 $-1 $404 forward single #
point $-1 1.7424470444407456 1.8818032391832951 -6.2577496477927894e-010 #
ellipse-curve $-1 1.023784774475897 2.4838254927371701 3.6249999991857034 9.1493212513396993e-012 3.2406857464975768e-010 1 0.28970343271564847 -0.89161548424817394 2.8629396934242781e-010 1 I I #
coedge $-1 $405 $398 $199 $295 0 $406 $-1 #
edge $-1 $296 $299 $294 $407 0 #
vertex $-1 $399 $408 #
straight-curve $-1 2.2365629151355293 1.7212557393882053 0.62499999863756128 0.95105678699383234 -0.30901616124883802 -1.4822708035386922e-009 I I #
coedge $-1 $205 $211 $405 $409 0 $212 $-1 #
vertex $-1 $409 $410 #
straight-curve $-1 1.4141498648131614 0.87127612800502396 0.62499999984828503 -0.95106808936162246 0.30898137386909419 1.4822859729736875e-009 I I #
point $-1 1.4141564829434339 0.87127397791818295 0.6249999998482747 #
face $-1 $147 $225 $3 $-1 $411 reversed single #
plane-surface $-1 -0.93409879854639088 -0.58227289026900486 -4.766990194366292e-010 -0.99999999929862193 -3.7453388421419962e-005 1.128177764149899e-010 1.1281777649411781e-010 0 1 0 I I I I #
coedge $-1 $218 $400 $211 $305 1 $314 $-1 #
edge $-1 $142 $412 $211 $316 0 #
face $-1 $413 $212 $3 $-1 $414 forward single #
coedge $-1 $317 $214 $415 $416 1 $141 $-1 #
coedge $-1 $215 $415 $214 $309 0 $225 $-1 #
edge $-1 $417 $310 $308 $418 1 #
vertex $-1 $216 $419 #
coedge $-1 $217 $391 $420 $421 1 $141 $-1 #
coedge $-1 $420 $218 $217 $313 0 $314 $-1 #
edge $-1 $315 $422 $312 $423 1 #
loop $-1 $-1 $218 $413 #
vertex $-1 $313 $424 #
straight-curve $-1 1.4141498638519816 0.87127612804477139 -1.5171503437410229e-010 0.95106808936162246 -0.30898137386909419 -1.4822859729736875e-009 I I #
coedge $-1 $220 $307 $425 $426 1 $141 $-1 #
coedge $-1 $425 $322 $220 $319 0 $225 $-1 #
edge $-1 $253 $427 $318 $428 1 #
coedge $-1 $222 $230 $224 $323 0 $231 $-1 #
straight-curve $-1 0.12840000212514868 -0.58229305698033418 -5.9664268246194476e-010 1.1286457985498242e-010 -1.2496428975971838e-009 1 I I #
coedge $-1 $318 $224 $252 $350 1 $225 $-1 #
edge $-1 $352 $226 $320 $429 0 #
point $-1 0.12840000212514868 -0.58229305698033418 -5.9664268246194476e-010 #
cone-surface $-1 -0.40280000000000005 2.0203000000000002 2.7156232750516454e-009 1.1286457985498242e-010 -1.2496428975971838e-009 1 2.65625 3.7463866019118959e-019 -2.9979654023979706e-010 1 I I 0 1 0 I I I I #
coedge $-1 $234 $237 $361 $430 0 $97 $-1 #
coedge $-1 $358 $431 $234 $328 1 $173 $-1 #
edge $-1 $432 $330 $234 $433 0 #
coedge $-1 $245 $235 $431 $434 1 $246 $-1 #
vertex $-1 $236 $435 #
ellipse-curve $-1 -3.0630278510308631 1.1559395758967077 3.6249999996534212 -9.1493212513396993e-012 -3.2406857464975768e-010 -1 -0.70788986991769853 0.51431209561314706 -1.6019567592003638e-010 1 I I #
edge $-1 $272 $436 $237 $437 0 #
ellipse-curve $-1 1.2413112300624292 4.2832249734306487 3.6249999986005843 -9.1493212513396993e-012 -3.2406857464975768e-010 -1 0.87500000000000011 0 -8.0056560949222628e-012 1 I I #
face $-1 $438 $439 $3 $-1 $440 forward single #
loop $-1 $-1 $441 $239 #
plane-surface $-1 -0.40279999995568261 2.0203000015697237 4.8437999993489695 9.1493212513396993e-012 3.2406857464975768e-010 1 0.70710678118654746 0.70710678118654746 -2.3562063380437902e-010 0 I I I I #
coedge $-1 $337 $337 $442 $443 0 $240 $-1 #
coedge $-1 $444 $445 $242 $339 0 $446 $-1 #
edge $-1 $348 $343 $338 $447 0 #
coedge $-1 $448 $243 $245 $345 0 $342 $-1 #
coedge $-1 $243 $449 $444 $450 1 $342 $-1 #
loop $-1 $-1 $448 $451 #
vertex $-1 $339 $452 #
ellipse-curve $-1 -1.2844778784329918 0.80677450864012212 0.62500000111577292 1.4554894517130358e-009 2.6087408705159683e-010 -1 -0.75845343205467697 0.55104867387122902 -9.6016665025398206e-010 1 I I #
edge $-1 $247 $453 $340 $454 0 #
point $-1 -2.2044175194120212 0.9873771291253548 0.62499999982392496 #
coedge $-1 $455 $250 $456 $457 1 $141 $-1 #
vertex $-1 $458 $459 #
ellipse-curve $-1 -1.2844778784387101 0.80677450843757925 -2.4969804002239471e-010 -9.1493212513396993e-012 -3.2406857464975768e-010 -1 -0.75845343205467697 0.55104867387122902 -1.7163822420003897e-010 1 I I #
edge $-1 $253 $352 $252 $428 0 #
point $-1 -0.93411825468353671 -0.062796870813654149 2.8897164656541798e-011 #
vertex $-1 $350 $460 #
straight-curve $-1 -0.93409879854639088 -0.58227289026900486 -4.766990194366292e-010 1.1286457985498242e-010 -1.2496428975971838e-009 1 I I #
face $-1 $461 $462 $3 $-1 $463 forward single #
loop $-1 $464 $465 $258 #
cone-surface $-1 -0.40279999995738391 2.020300001509463 4.6578499993489695 -9.1493212513396993e-012 -3.2406857464975768e-010 -1 -2.7344000000000004 0 2.5017904029663275e-011 1 I I 0.81918844825196369 0.57352444259206581 0 I I I I #
coedge $-1 $466 $260 $467 $468 1 $173 $-1 #
coedge $-1 $260 $327 $261 $362 1 $173 $-1 #
coedge $-1 $263 $469 $260 $360 0 $366 $-1 #
edge $-1 $470 $367 $359 $471 0 #
coedge $-1 $262 $261 $326 $430 1 $111 $-1 #
edge $-1 $367 $432 $261 $472 0 #
coedge $-1 $268 $473 $262 $364 0 $67 $-1 #
edge $-1 $368 $436 $363 $474 0 #
coedge $-1 $475 $263 $473 $476 0 $366 $-1 #
loop $-1 $-1 $365 $477 #
vertex $-1 $360 $478 #
vertex $-1 $264 $479 #
ellipse-curve $-1 -2.0469112304227295 4.2832249730078766 0.62499999759544855 -9.9976248028522796e-010 1.5362656004954303e-009 1 0.27038987053460511 0.83217445196496209 -1.0081153365552297e-009 1 I I #
coedge $-1 $473 $265 $480 $481 1 $67 $-1 #
coedge $-1 $482 $483 $265 $372 0 $141 $-1 #
edge $-1 $484 $376 $371 $485 0 #
coedge $-1 $486 $266 $269 $379 0 $375 $-1 #
coedge $-1 $266 $486 $487 $488 0 $375 $-1 #
loop $-1 $-1 $266 $489 #
vertex $-1 $488 $490 #
straight-curve $-1 0.39183604049604448 4.0177533276044795 -1.3056124256291843e-009 9.1493212513396993e-012 3.2406857464975768e-010 1 I I #
coedge $-1 $269 $277 $491 $492 1 $185 $-1 #
edge $-1 $270 $493 $373 $494 0 #
point $-1 0.39183604046467851 4.0177533278662603 0.62499999872782919 #
point $-1 0.44760236039312978 3.9149163661346975 3.6249999987272035 #
point $-1 1.1362984583999649 3.4145493620613832 3.6249999988830557 #
coedge $-1 $282 $495 $277 $384 0 $389 $-1 #
edge $-1 $496 $385 $383 $497 0 #
vertex $-1 $384 $498 #
ellipse-curve $-1 1.023784774448449 2.4838254917649643 0.62500000073406126 -8.5024630921522825e-010 -1.6581901993852728e-009 -1 0.28970343271564847 -0.89161548424817394 1.2321487831670137e-009 1 I I #
plane-surface $-1 0.44760803505800612 3.9148836513266452 0.62499999885098678 8.5024630921522825e-010 1.6581901993852728e-009 1 -0.80901699437494734 0.58778525229247325 -2.8679603113488304e-010 0 I I I I #
coedge $-1 $495 $282 $499 $500 0 $389 $-1 #
loop $-1 $-1 $282 $501 #
straight-curve $-1 1.2514591175957908 3.393259735555993 -1.1110983109306617e-009 -9.1493212513396993e-012 -3.2406857464975762e-010 -1 I I #
coedge $-1 $311 $284 $502 $503 1 $141 $-1 #
coedge $-1 $289 $502 $284 $393 0 $314 $-1 #
edge $-1 $504 $195 $392 $402 1 #
coedge $-1 $285 $505 $506 $507 1 $141 $-1 #
coedge $-1 $506 $499 $285 $396 0 $508 $-1 #
edge $-1 $286 $509 $395 $510 1 #
point $-1 1.2514591175957908 3.393259735555993 -1.1110983109306617e-009 #
coedge $-1 $294 $511 $288 $399 0 $406 $-1 #
edge $-1 $401 $296 $398 $512 0 #
coedge $-1 $304 $289 $511 $513 1 $314 $-1 #
vertex $-1 $513 $514 #
straight-curve $-1 2.2365629141743497 1.7212557394279528 -1.3624387084781113e-009 -0.95105678699383234 0.30901616124883802 1.4822708035386922e-009 I I #
face $-1 $134 $406 $3 $-1 $515 forward single #
plane-surface $-1 1.7424404220561032 1.881805390920088 -5.923234498995464e-010 0.30901616124883813 0.95105678699383256 -4.1474878553474575e-010 -3.4940629010585467e-010 -3.2256390916437037e-010 -0.99999999999999989 0 I I I I #
coedge $-1 $511 $294 $298 $409 1 $406 $-1 #
loop $-1 $-1 $294 $403 #
ellipse-curve $-1 -0.40279999903882047 2.0202999999602524 0.62500000271562339 -1.5378877799601253e-009 6.3596003177685212e-011 -1 0.82082639130845425 2.5262438714090014 -1.1016798633883054e-009 1 I I #
point $-1 2.2365629151355293 1.7212557393882053 0.62499999863756139 #
edge $-1 $412 $299 $298 $516 0 #
point $-1 1.9082135495428019 0.71076556331027385 0.62499999907826265 #
plane-surface $-1 -0.40283256655783478 -0.19308385108103129 -5.0312775642325809e-011 1.1286456206731922e-010 -1.2496430408821103e-009 1 1 0 -1.1286456206731922e-010 0 I I I I #
vertex $-1 $305 $517 #
face $-1 $291 $314 $3 $-1 $518 reversed single #
plane-surface $-1 1.9082135485816218 0.71076556335002117 -9.2173736802426725e-010 -0.30898137386909424 -0.95106808936162257 4.146945676683639e-010 3.4939216534909115e-010 3.2252043763301279e-010 0.99999999999999989 0 I I I I #
coedge $-1 $308 $425 $307 $416 0 $225 $-1 #
edge $-1 $519 $417 $415 $520 1 #
vertex $-1 $416 $521 #
ellipse-curve $-1 0.47888835270292207 0.80675618853734077 1.0996153264441084e-009 -1.1286456206731916e-010 1.2496430408821117e-009 -1 -0.45608835271496523 -0.81905618823034021 -9.7205165352029403e-010 1 I I #
point $-1 0.1283995469982207 -0.062742070251230353 5.2610643855215912e-011 #
coedge $-1 $502 $312 $311 $421 0 $314 $-1 #
edge $-1 $422 $522 $420 $523 1 #
vertex $-1 $421 $524 #
ellipse-curve $-1 0.47889206487994729 0.80675888578868638 1.2825034670338594e-009 -1.5378877799601253e-009 6.359600317768516e-011 -1 0.91990777701950854 0.18066351835766672 -1.40322545128102e-009 1 I I #
point $-1 1.4141498638519818 0.87127612804477139 -1.5171503437410245e-010 #
coedge $-1 $415 $318 $317 $426 0 $225 $-1 #
edge $-1 $427 $519 $425 $525 1 #
vertex $-1 $426 $526 #
straight-curve $-1 -0.93411825494419887 -0.062789911174688684 1.724714661831083e-010 3.745338842141982e-005 -0.99999999929862193 -1.2496472671659212e-009 I I #
ellipse-curve $-1 -0.40280000000000005 2.0203000000000002 2.7156232750516454e-009 1.1286456206731918e-010 -1.2496430408821117e-009 1 2.65625 3.7463860114746153e-019 -2.9979649299131657e-010 1 I I #
edge $-1 $436 $432 $326 $527 0 #
coedge $-1 $327 $528 $329 $434 0 $173 $-1 #
vertex $-1 $328 $529 #
ellipse-curve $-1 -1.8293847744095644 2.4838254927371701 3.6249999992118083 9.1493212513396993e-012 3.2406857464975768e-010 1 0.28970343271564847 0.89161548424817394 -2.9159514888949055e-010 1 I I #
edge $-1 $453 $330 $431 $530 0 #
point $-1 -2.4674760209598774 1.7969879495200884 3.6249999994402287 #
vertex $-1 $430 $531 #
ellipse-curve $-1 -0.40279999996683385 3.5203000011747494 3.6249999988628669 9.1493212513396993e-012 3.2406857464975768e-010 1 0.93750000000000011 0 -8.5774886731309738e-012 1 I I #
face $-1 $532 $533 $3 $-1 $534 reversed single #
loop $-1 $-1 $535 $334 #
plane-surface $-1 -3.0421742642652756 1.7213559322646841 -1.2039452683299581e-009 -0.30905261444732501 0.95104494189458433 -2.0171983939062877e-010 -2.6702289394517778e-010 1.2533131784721971e-010 1 0 I I I I #
coedge $-1 $441 $441 $536 $537 0 $335 $-1 #
coedge $-1 $442 $442 $337 $443 1 $538 $-1 #
edge $-1 $539 $539 $337 $540 0 #
coedge $-1 $541 $338 $341 $450 0 $446 $-1 #
coedge $-1 $338 $541 $542 $458 0 $446 $-1 #
loop $-1 $-1 $338 $532 #
straight-curve $-1 -2.2197476689778126 0.87140165811712011 -2.6208458453240477e-010 9.1493212513396993e-012 3.2406857464975768e-010 1 I I #
coedge $-1 $543 $340 $528 $544 0 $342 $-1 #
coedge $-1 $341 $543 $545 $546 1 $342 $-1 #
edge $-1 $343 $547 $444 $548 0 #
face $-1 $549 $342 $3 $-1 $550 forward single #
point $-1 -2.219747668976912 0.87140165824994065 0.62499999977135712 #
vertex $-1 $345 $551 #
ellipse-curve $-1 -3.0630278510583109 1.1559395749245018 0.62499999861820033 -1.4554894517130358e-009 -2.6087408705159683e-010 1 -0.70788986991769853 0.51431209561314706 -8.9615554023705003e-010 1 I I #
coedge $-1 $552 $347 $553 $554 1 $141 $-1 #
coedge $-1 $542 $553 $347 $457 0 $533 $-1 #
edge $-1 $555 $348 $456 $556 1 #
edge $-1 $557 $348 $445 $556 0 #
point $-1 -2.2197476689778126 0.87140165811712011 -2.6208458453240477e-010 #
point $-1 -0.93409879854639088 -0.58227289026900486 -4.766990194366292e-010 #
face $-1 $103 $538 $3 $-1 $558 forward single #
loop $-1 $559 $560 $354 #
cone-surface $-1 -0.40279999996167265 2.0203000013575561 4.1890999993489695 -9.1493212513396993e-012 -3.2406857464975768e-010 -1 -3.0000000000000009 0 2.7447963754019056e-011 1 I I 0 1 0 I I I I #
loop $-1 $-1 $536 $258 #
coedge $-1 $465 $465 $561 $562 1 $355 $-1 #
coedge $-1 $563 $357 $564 $565 1 $173 $-1 #
coedge $-1 $566 $567 $357 $468 0 $568 $-1 #
edge $-1 $569 $470 $467 $570 0 #
coedge $-1 $359 $571 $566 $572 1 $366 $-1 #
vertex $-1 $468 $573 #
ellipse-curve $-1 -1.8293847744370122 2.4838254917649643 0.62500000057727878 9.9976248028522796e-010 -1.5362656004954303e-009 -1 0.28970343271564847 0.89161548424817394 -1.0801235748806034e-009 1 I I #
straight-curve $-1 -1.9418984585798589 3.4145493612252915 -1.0887806212167561e-009 9.1493212513396993e-012 3.2406857464975768e-010 1 I I #
coedge $-1 $363 $370 $365 $476 1 $67 $-1 #
straight-curve $-1 -1.2532023602880376 3.9149163651149506 -1.257235204832341e-009 9.1493212513396993e-012 3.2406857464975768e-010 1 I I #
coedge $-1 $571 $365 $574 $575 1 $366 $-1 #
edge $-1 $368 $576 $365 $577 0 #
face $-1 $501 $366 $3 $-1 $578 forward single #
point $-1 -1.9418984585741406 3.4145493614278344 0.62499999903495285 #
point $-1 -1.2532023602823192 3.9149163653174934 0.62499999895478875 #
coedge $-1 $579 $574 $370 $481 0 $580 $-1 #
edge $-1 $576 $484 $480 $581 0 #
coedge $-1 $582 $371 $583 $584 1 $141 $-1 #
coedge $-1 $371 $585 $586 $587 1 $141 $-1 #
vertex $-1 $587 $588 #
ellipse-curve $-1 -0.4028000000000001 3.5203000000000007 -1.1371330543852309e-009 -9.1493212513396993e-012 -3.2406857464975768e-010 -1 0.93750000000000011 0 -8.5774886731309738e-012 1 I I #
coedge $-1 $374 $373 $589 $590 1 $375 $-1 #
coedge $-1 $591 $583 $374 $488 1 $508 $-1 #
edge $-1 $592 $376 $374 $593 0 #
face $-1 $594 $375 $3 $-1 $595 forward single #
point $-1 0.39183604049604448 4.0177533276044795 -1.3056124256291843e-009 #
coedge $-1 $596 $589 $378 $492 0 $597 $-1 #
edge $-1 $493 $496 $491 $598 0 #
vertex $-1 $590 $599 #
straight-curve $-1 0.69721598801197548 4.4380735408425984 0.62499999777121007 0.58778454359295007 0.80901750927481608 -1.8412666870991602e-009 I I #
coedge $-1 $383 $388 $596 $600 0 $389 $-1 #
vertex $-1 $600 $601 #
straight-curve $-1 1.2514550271906217 3.3932541054577192 0.62499999903247994 -0.58775495145248369 -0.80903900835688303 1.8412771760574745e-009 I I #
point $-1 1.2514591175337553 3.3932597357754974 0.62499999903246717 #
coedge $-1 $395 $591 $388 $500 1 $508 $-1 #
edge $-1 $286 $602 $388 $510 0 #
face $-1 $603 $389 $3 $-1 $604 forward single #
coedge $-1 $392 $420 $391 $503 0 $314 $-1 #
edge $-1 $522 $504 $502 $605 1 #
vertex $-1 $393 $606 #
coedge $-1 $394 $582 $607 $608 1 $141 $-1 #
coedge $-1 $607 $395 $394 $507 0 $508 $-1 #
edge $-1 $509 $609 $506 $610 1 #
loop $-1 $-1 $395 $603 #
vertex $-1 $507 $611 #
straight-curve $-1 1.2514550266592179 3.3932541044213504 -9.6752029442688931e-010 0.58775495145248369 0.80903900835688303 -1.8412771760574745e-009 I I #
coedge $-1 $398 $405 $400 $513 0 $406 $-1 #
straight-curve $-1 2.2365629141743497 1.7212557394279528 -1.3624387084781113e-009 1.5378876491847513e-009 -6.3595941983134384e-011 0.99999999999999989 I I #
edge $-1 $412 $401 $511 $612 0 #
point $-1 2.2365629141743497 1.7212557394279528 -1.3624387084781113e-009 #
cone-surface $-1 -0.40280000000000005 2.0203000000000002 2.7156232838561745e-009 1.5378876491847515e-009 -6.3595941983134397e-011 1 0.82082639130845425 2.5262438714090014 -1.1016799106367858e-009 1 I I 0 1 0 I I I I #
straight-curve $-1 1.9082135485816218 0.71076556335002117 -9.2173736802426725e-010 1.5378876491847513e-009 -6.3595941983134384e-011 0.99999999999999989 I I #
point $-1 1.9082135485816218 0.71076556335002117 -9.2173736802426725e-010 #
plane-surface $-1 1.702243071013257 1.3362958023038514 -5.6519666447508194e-010 1.5378877799601241e-009 -6.3596003177684695e-011 1 0.30901699437494745 0.95105651629515353 -4.1475006621677381e-010 0 I I I I #
vertex $-1 $416 $613 #
ellipse-curve $-1 -0.40280000000000005 -0.77666701379260306 -7.7958708931110274e-010 1.128645620673192e-010 -1.2496430408821117e-009 1 -0.42560000002840997 0.76436701338866542 1.0032210765800472e-009 1 I I #
point $-1 0.022813776790046592 -0.012307671475520421 1.2755253102144112e-010 #
vertex $-1 $421 $614 #
ellipse-curve $-1 2.2572737043300517 1.1559896600319375 -1.4302382429533899e-009 1.5378877799601253e-009 -6.3596003177685212e-011 1 -0.85847386173911189 -0.16856725628551619 1.3095162576173709e-009 1 I I #
point $-1 1.3988028809466433 0.98740693084444331 -1.2072764200085032e-010 #
ellipse-curve $-1 -1.2844883526093085 0.8067561886661917 1.298638066209903e-009 -1.1286456206731915e-010 1.2496430408821115e-009 -1 0.45608835274757598 -0.81905618828890348 -1.075004077983517e-009 1 I I #
point $-1 -0.93411825494419887 -0.062789911174688851 1.7247146618310814e-010 #
ellipse-curve $-1 -2.0469112303952817 4.2832249739800821 3.6249999986306696 -9.1493212513396993e-012 -3.2406857464975768e-010 -1 0.27038987053460511 0.83217445196496209 -2.7215547229685779e-010 1 I I #
coedge $-1 $431 $563 $448 $544 1 $173 $-1 #
point $-1 -1.9418984585466925 3.4145493624000398 3.6249999989112189 #
straight-curve $-1 -2.4674760209930438 1.7969879483453397 -5.5977178448074483e-010 9.1493212513396993e-012 3.2406857464975768e-010 1 I I #
point $-1 -1.2532023602548712 3.9149163662896989 3.6249999987427648 #
face $-1 $615 $446 $3 $-1 $616 forward single #
loop $-1 $-1 $617 $438 #
plane-surface $-1 -2.5078631982528963 1.336357747577936 -5.2669713254716185e-010 -1.455489593481789e-009 -2.6087411441200107e-010 1 0.30901699437494723 -0.95105651629515364 2.0166499307749512e-010 0 I I I I #
coedge $-1 $618 $619 $563 $620 0 $439 $-1 #
coedge $-1 $536 $536 $441 $537 1 $464 $-1 #
edge $-1 $621 $621 $441 $622 0 #
loop $-1 $623 $442 $461 #
vertex $-1 $443 $624 #
ellipse-curve $-1 -0.4027999999668338 2.0203000011747489 3.6249999993489697 -9.1493212513396993e-012 -3.2406857464975768e-010 -1 -2.8688000000000011 0 2.6247572805843389e-011 1 I I #
coedge $-1 $445 $444 $625 $626 1 $446 $-1 #
coedge $-1 $627 $456 $445 $458 1 $533 $-1 #
coedge $-1 $449 $448 $619 $628 1 $342 $-1 #
edge $-1 $453 $629 $448 $630 0 #
coedge $-1 $631 $625 $449 $546 0 $632 $-1 #
edge $-1 $547 $633 $545 $634 0 #
vertex $-1 $626 $635 #
straight-curve $-1 -2.7138632589466729 0.71085329231066297 0.62499999901029402 -0.95105624559574475 -0.30901782750081941 -1.4648672203672659e-009 I I #
face $-1 $636 $580 $3 $-1 $637 forward single #
plane-surface $-1 -2.2044028818697639 0.98740693061296347 0.62499999982395404 -1.4554894517130358e-009 -2.6087408705159683e-010 1 0.30901699437494723 -0.95105651629515364 2.0166497528983193e-010 0 I I I I #
point $-1 -2.4674760209873252 1.7969879485478826 0.62499999965225261 #
coedge $-1 $638 $455 $639 $640 1 $141 $-1 #
coedge $-1 $456 $639 $455 $554 0 $533 $-1 #
edge $-1 $641 $555 $553 $642 1 #
vertex $-1 $457 $643 #
straight-curve $-1 -2.7138632580369921 0.71085329247370932 -9.8970599660561706e-010 0.95105624559574475 0.30901782750081941 1.4648672203672659e-009 I I #
vertex $-1 $644 $645 #
cone-surface $-1 -0.40279999996554694 2.0203000012203294 3.7656499993489696 -9.1493212513396993e-012 -3.2406857464975768e-010 -1 -2.9344000000000006 0 2.6847768279931223e-011 1 I I -0.42269144613516418 0.90627365699559181 0 I I I I #
loop $-1 $-1 $561 $354 #
coedge $-1 $560 $560 $646 $647 1 $462 $-1 #
coedge $-1 $561 $561 $465 $562 0 $559 $-1 #
edge $-1 $648 $648 $561 $649 0 #
coedge $-1 $528 $466 $535 $620 1 $173 $-1 #
coedge $-1 $650 $651 $466 $565 0 $141 $-1 #
edge $-1 $652 $569 $564 $653 0 #
coedge $-1 $654 $467 $469 $572 0 $568 $-1 #
coedge $-1 $467 $654 $655 $656 0 $568 $-1 #
loop $-1 $-1 $467 $657 #
vertex $-1 $656 $658 #
straight-curve $-1 -2.0569349625868556 3.3932908084128823 -1.080839821433789e-009 9.1493212513396993e-012 3.2406857464975762e-010 1 I I #
coedge $-1 $469 $475 $659 $660 1 $366 $-1 #
edge $-1 $470 $661 $566 $662 0 #
point $-1 -2.0569349626489357 3.3932908085984619 0.6249999989526025 #
coedge $-1 $480 $663 $475 $575 0 $580 $-1 #
edge $-1 $664 $576 $574 $665 0 #
vertex $-1 $575 $666 #
ellipse-curve $-1 -0.40279999999428179 3.5203000002025435 0.62500000041122472 9.9976248028522796e-010 -1.5362656004954303e-009 -1 0.93750000000000011 3.0652182137932004e-019 9.372773252674013e-010 1 I I #
plane-surface $-1 -1.9418655920779606 3.414544648911062 0.62499999903499293 -9.9976248028522796e-010 1.5362656004954303e-009 1 -0.80901699437494723 -0.58778525229247336 9.4169426686257006e-011 0 I I I I #
coedge $-1 $663 $480 $667 $668 0 $580 $-1 #
loop $-1 $-1 $480 $549 #
straight-curve $-1 -1.1973681224453261 4.0178618039939469 -1.2911074399973849e-009 -9.1493212513396993e-012 -3.2406857464975768e-010 -1 I I #
coedge $-1 $505 $482 $669 $670 1 $141 $-1 #
coedge $-1 $487 $669 $482 $584 0 $508 $-1 #
edge $-1 $671 $376 $583 $593 1 #
coedge $-1 $483 $672 $673 $674 1 $141 $-1 #
coedge $-1 $673 $667 $483 $587 0 $675 $-1 #
edge $-1 $484 $676 $586 $677 1 #
point $-1 -1.1973681224453261 4.0178618039939469 -1.2911074399973849e-009 #
coedge $-1 $491 $678 $486 $590 0 $597 $-1 #
edge $-1 $592 $493 $589 $679 0 #
coedge $-1 $499 $487 $678 $680 1 $508 $-1 #
vertex $-1 $680 $681 #
straight-curve $-1 0.69721598748057156 4.4380735398062292 -2.2287900003619648e-009 -0.58778454359295007 -0.80901750927481608 1.8412666870991602e-009 I I #
face $-1 $279 $597 $3 $-1 $682 forward single #
plane-surface $-1 0.39183194787262121 4.0177476945812156 -1.272158076247801e-009 -0.80901750927481619 0.58778454359295018 -2.8679441818456649e-010 -1.1572552899661397e-010 -6.4720721488784711e-010 -1 0 I I I I #
coedge $-1 $678 $491 $495 $600 1 $597 $-1 #
loop $-1 $-1 $491 $594 #
ellipse-curve $-1 -0.40279999946859602 2.020300001036369 0.6250000027156235 -8.5024640782651756e-010 -1.6581903048498883e-009 -1 -2.1489513913084539 1.561304576401882 -7.6180191045355267e-010 1 I I #
point $-1 0.69721598801197548 4.4380735408425984 0.62499999777121018 #
edge $-1 $602 $496 $495 $683 0 #
point $-1 1.5567837205627442 3.8135361000172407 0.62499999807596773 #
vertex $-1 $500 $684 #
face $-1 $489 $508 $3 $-1 $685 reversed single #
plane-surface $-1 1.5567837200313401 3.813536098980872 -1.9240324478544721e-009 0.80903900835688303 -0.58775495145248369 2.8672706927208724e-010 1.1576250808990359e-010 6.4718034800392513e-010 1 0 I I I I #
ellipse-curve $-1 1.0238054344288747 2.483829792019145 5.5114286154950362e-010 -1.5378877799601253e-009 6.3596003177685212e-011 -1 0.63802967310293546 -0.68686808136703104 -1.0249001022022258e-009 1 I I #
point $-1 1.7424404220561032 1.881805390920088 -5.923234498995464e-010 #
coedge $-1 $669 $506 $505 $608 0 $508 $-1 #
edge $-1 $609 $686 $607 $687 1 #
vertex $-1 $608 $688 #
ellipse-curve $-1 1.0238040163161937 2.4838341560057984 7.3403050085509874e-010 -8.5024640782651756e-010 -1.6581903048498883e-009 -1 0.11244591996583991 0.93071238316108218 -1.6389049898871443e-009 1 I I #
point $-1 1.2514550266592179 3.3932541044213504 -9.6752029442688931e-010 #
ellipse-curve $-1 -0.40280000000000005 2.0203000000000002 2.7156232838561745e-009 1.5378877799601253e-009 -6.3596003177685212e-011 1 0.82082639130845425 2.5262438714090014 -1.1016798633883054e-009 1 I I #
point $-1 -0.82841377672911476 -0.012307671441591977 2.2362595611141526e-010 #
point $-1 1.6618466610965421 1.7969724424583389 -4.7377432623875595e-010 #
face $-1 $451 $632 $3 $-1 $689 forward single #
plane-surface $-1 -2.2197410472026564 0.87140380966870568 -2.2863278683639236e-010 0.30901782750081946 -0.95105624559574486 2.0166625851421206e-010 2.6700876918841432e-010 -1.2528784631586212e-010 -1 0 I I I I #
coedge $-1 $690 $691 $651 $692 0 $533 $-1 #
coedge $-1 $693 $535 $691 $694 0 $439 $-1 #
coedge $-1 $535 $693 $543 $628 0 $439 $-1 #
edge $-1 $629 $652 $535 $695 0 #
vertex $-1 $537 $696 #
ellipse-curve $-1 -0.40279999995568261 2.0203000015697237 4.8437999993489695 9.1493212513396993e-012 3.2406857464975768e-010 1 1.7457052213933486 1.7457052213933486 -5.8170022073625104e-010 1 I I #
loop $-1 $-1 $646 $461 #
point $-1 -3.2715999999668348 2.0203000011747489 3.6249999993752171 #
coedge $-1 $545 $697 $541 $626 0 $632 $-1 #
edge $-1 $557 $547 $625 $698 0 #
coedge $-1 $691 $542 $697 $644 1 $533 $-1 #
edge $-1 $633 $629 $619 $699 0 #
vertex $-1 $628 $700 #
ellipse-curve $-1 -1.8293847744370122 2.4838254917649643 0.62500000076016582 1.4554894517130358e-009 2.6087408705159683e-010 -1 0.28970343271564847 0.89161548424817394 6.5425966589699324e-010 1 I I #
coedge $-1 $697 $545 $693 $701 1 $632 $-1 #
loop $-1 $-1 $545 $615 #
vertex $-1 $701 $702 #
ellipse-curve $-1 -0.40280000090968082 2.0202999998369537 0.62500000271562328 1.4554895934817903e-009 2.6087411441200159e-010 -1 0.82082639130845358 -2.5262438714090019 5.3567263786209654e-010 1 I I #
point $-1 -2.7138632589466729 0.71085329231066297 0.62499999901029413 #
face $-1 $657 $675 $3 $-1 $703 reversed single #
plane-surface $-1 -1.5027242058012973 4.4381152956734287 -2.0984465250537788e-009 0.808994979258158 0.58781555230794358 -9.4237985445483349e-011 -2.6520294973123644e-010 5.2531076976463055e-010 1 0 I I I I #
coedge $-1 $651 $552 $690 $704 1 $141 $-1 #
coedge $-1 $553 $690 $552 $640 0 $533 $-1 #
edge $-1 $705 $641 $639 $706 1 #
vertex $-1 $640 $707 #
ellipse-curve $-1 -1.2844920649735643 0.80675888565983778 1.1157481868104424e-009 1.4554895934817903e-009 2.6087411441200148e-010 -1 -0.91990777695373438 0.18066351834474931 -1.2917857609643853e-009 1 I I #
point $-1 -2.2197410472026564 0.87140380966870568 -2.2863278683639236e-010 #
edge $-1 $708 $557 $697 $709 0 #
point $-1 -2.7138632580369921 0.71085329247370932 -9.8970599660561706e-010 #
coedge $-1 $646 $646 $560 $647 0 $623 $-1 #
edge $-1 $710 $710 $646 $711 0 #
vertex $-1 $562 $712 #
ellipse-curve $-1 -0.40279999995908522 2.0203000014492027 4.4718999993489694 -9.1493212513396993e-012 -3.2406857464975768e-010 -1 -3.0000000000000009 0 2.7447963754019056e-011 1 I I #
coedge $-1 $713 $564 $714 $715 1 $141 $-1 #
coedge $-1 $564 $638 $617 $692 1 $141 $-1 #
vertex $-1 $692 $716 #
ellipse-curve $-1 -1.8293847744427305 2.4838254915624214 -7.8819262228080333e-010 -9.1493212513396993e-012 -3.2406857464975768e-010 -1 0.28970343271564847 0.89161548424817394 -2.9159514888949055e-010 1 I I #
coedge $-1 $567 $566 $717 $718 1 $568 $-1 #
coedge $-1 $719 $714 $567 $656 1 $675 $-1 #
edge $-1 $720 $569 $567 $721 0 #
face $-1 $722 $568 $3 $-1 $723 forward single #
point $-1 -2.0569349625868556 3.3932908084128823 -1.080839821433789e-009 #
coedge $-1 $724 $717 $571 $660 0 $725 $-1 #
edge $-1 $661 $664 $659 $726 0 #
vertex $-1 $718 $727 #
straight-curve $-1 -2.3623156463679305 3.813610486232609 0.62499999800157158 -0.58778596099154534 0.80901647947445743 -1.8305106811731831e-009 I I #
coedge $-1 $574 $579 $724 $728 0 $580 $-1 #
vertex $-1 $728 $729 #
straight-curve $-1 -1.1973640319410745 4.0178561744414614 0.62499999885247104 0.58781555230794358 -0.808994979258158 1.8305072354177042e-009 I I #
point $-1 -1.1973681224766768 4.0178618041372927 0.62499999885245827 #
coedge $-1 $586 $719 $579 $668 1 $675 $-1 #
edge $-1 $484 $730 $579 $677 0 #
coedge $-1 $583 $607 $582 $670 0 $508 $-1 #
edge $-1 $686 $671 $669 $731 1 #
vertex $-1 $584 $732 #
coedge $-1 $585 $713 $733 $734 1 $141 $-1 #
coedge $-1 $733 $586 $585 $674 0 $675 $-1 #
edge $-1 $676 $735 $673 $736 1 #
loop $-1 $-1 $586 $636 #
vertex $-1 $674 $737 #
straight-curve $-1 -1.1973640313162228 4.0178561734812952 -1.1475291724783364e-009 -0.58781555230794358 0.808994979258158 -1.8305072354177042e-009 I I #
coedge $-1 $589 $596 $591 $680 0 $597 $-1 #
straight-curve $-1 0.69721598748057156 4.4380735398062292 -2.2287900003619648e-009 8.5024630921522825e-010 1.6581901993852728e-009 1 I I #
edge $-1 $602 $592 $678 $738 0 #
point $-1 0.69721598748057156 4.4380735398062292 -2.2287900003619648e-009 #
cone-surface $-1 -0.40280000000000005 2.0203000000000002 2.7156232845744158e-009 8.5024630921522825e-010 1.6581901993852728e-009 1 -2.1489513913084539 1.561304576401882 -7.6180195770203316e-010 1 I I 0 1 0 I I I I #
straight-curve $-1 1.5567837200313401 3.813536098980872 -1.9240324478544721e-009 8.5024630921522825e-010 1.6581901993852728e-009 1 I I #
point $-1 1.5567837200313401 3.813536098980872 -1.9240324478544721e-009 #
plane-surface $-1 0.89822073222648668 3.8109460084572091 -1.3597967701508756e-009 8.5024640782651673e-010 1.6581903048498872e-009 1 -0.80901699437494734 0.58778525229247325 -2.8679601334721984e-010 0 I I I I #
vertex $-1 $608 $739 #
ellipse-curve $-1 1.2412159618558107 4.2830938468643636 -2.4343382001474159e-009 8.5024640782651756e-010 1.6581903048498883e-009 1 -0.10496602497973928 -0.86854730716342876 1.5294637097247275e-009 1 I I #
point $-1 1.1362655913838711 3.4145446479592625 -9.0488466374401038e-010 #
cone-surface $-1 -0.40280000000000005 2.0203000000000002 2.715623275540979e-009 -1.4554894517130358e-009 -2.6087408705159683e-010 1 0.82082639130845358 -2.5262438714090019 5.3567259061361605e-010 1 I I 0 1 0 I I I I #
coedge $-1 $639 $617 $638 $704 0 $533 $-1 #
coedge $-1 $617 $627 $618 $694 1 $533 $-1 #
edge $-1 $652 $740 $617 $741 1 #
coedge $-1 $619 $618 $631 $701 0 $439 $-1 #
edge $-1 $652 $708 $618 $741 0 #
straight-curve $-1 -2.5481292237858861 1.8819013541358347 -5.8655190115302659e-010 -9.1493212513396993e-012 -3.2406857464975762e-010 -1 I I #
point $-1 -2.8715999999556829 2.0203000015697237 4.8437999993715568 #
coedge $-1 $625 $631 $627 $644 0 $632 $-1 #
straight-curve $-1 -2.7138632580369921 0.71085329247370932 -9.8970599660561706e-010 -1.4554894517130358e-009 -2.6087408705159683e-010 1 I I #
straight-curve $-1 -2.5481226051604597 1.8819035050642259 0.62499999955702457 0.95104494189458433 0.30905261444732501 1.4648598429617208e-009 I I #
point $-1 -2.548129223735323 1.88190135428483 0.62499999955701435 #
edge $-1 $708 $633 $693 $742 0 #
point $-1 -3.0421742651749564 1.7213559321016376 0.62499999879605483 #
plane-surface $-1 -1.7037680384290139 3.8109842927420354 -1.3360027537851069e-009 -9.9976255011547282e-010 1.5362657268706967e-009 1 -0.80901699437494723 -0.58778525229247336 9.4169444473920206e-011 0 I I I I #
edge $-1 $740 $705 $690 $743 1 #
vertex $-1 $640 $744 #
ellipse-curve $-1 -3.0628737043300522 1.1559896600319384 -1.3815625135222729e-009 -1.4554895934817903e-009 -2.6087411441200159e-010 1 0.59543859610959848 0.64097205043895733 1.0338676962160352e-009 1 I I #
point $-1 -2.2044028809600831 0.98740693077600983 -1.7604603399933707e-010 #
vertex $-1 $694 $745 #
ellipse-curve $-1 -0.40280000000000005 2.0203000000000002 2.715623275540979e-009 -1.4554895934817903e-009 -2.6087411441200159e-010 1 0.82082639130845358 -2.5262438714090019 5.3567263786209654e-010 1 I I #
vertex $-1 $647 $746 #
ellipse-curve $-1 -0.40279999996426008 2.0203000012659094 3.9062999993489695 -9.1493212513396993e-012 -3.2406857464975768e-010 -1 -3.0000000000000009 0 2.7447963754019056e-011 1 I I #
point $-1 -3.4027999999590861 2.0203000014492023 4.4718999993764177 #
coedge $-1 $672 $650 $747 $748 1 $141 $-1 #
coedge $-1 $655 $747 $650 $715 0 $675 $-1 #
edge $-1 $749 $569 $714 $721 1 #
point $-1 -2.5481292237858861 1.8819013541358347 -5.8655190115302659e-010 #
coedge $-1 $659 $750 $654 $718 0 $725 $-1 #
edge $-1 $720 $661 $717 $751 0 #
coedge $-1 $667 $655 $750 $752 1 $675 $-1 #
vertex $-1 $752 $753 #
straight-curve $-1 -2.3623156457430792 3.8136104852724433 -1.9984285186224896e-009 0.58778596099154534 -0.80901647947445743 1.8305106811731831e-009 I I #
face $-1 $477 $725 $3 $-1 $754 forward single #
plane-surface $-1 -2.0569308697242898 3.3932851750812216 -1.0473848880004334e-009 -0.80901647947445754 -0.58778596099154545 9.4171030214453084e-011 2.652399288245261e-010 -5.2528390288070857e-010 -1 0 I I I I #
coedge $-1 $750 $659 $663 $728 1 $725 $-1 #
loop $-1 $-1 $659 $722 #
ellipse-curve $-1 -0.40280000062485199 2.0203000009601659 0.62500000271562339 9.9976255011547344e-010 -1.5362657268706983e-009 -1 -2.1489513913084535 -1.5613045764018825 2.5013758688385067e-010 1 I I #
point $-1 -2.3623156463679305 3.813610486232609 0.62499999800157169 #
edge $-1 $730 $664 $663 $755 0 #
point $-1 -1.5027242064261488 4.4381152966335939 0.62499999790155358 #
vertex $-1 $668 $756 #
ellipse-curve $-1 -0.40279770569056761 3.5203209777286606 2.2830109150494679e-010 -8.5024640782651777e-010 -1.6581903048498883e-009 -1 0.85041237652356405 0.39454836815808664 -1.3772963471844557e-009 1 I I #
point $-1 0.39183194787262121 4.0177476945812156 -1.272158076247801e-009 #
coedge $-1 $747 $673 $672 $734 0 $675 $-1 #
edge $-1 $735 $757 $733 $758 1 #
vertex $-1 $734 $759 #
ellipse-curve $-1 -0.40280229430943137 3.5203209775693933 4.1119016532710724e-010 9.9976255011547344e-010 -1.5362657268706979e-009 -1 -0.8504123765843693 0.39454836818629702 -1.4563415819011191e-009 1 I I #
point $-1 -1.197364031316223 4.0178561734812952 -1.1475291724783366e-009 #
ellipse-curve $-1 -0.40280000000000005 2.0203000000000002 2.7156232845744158e-009 8.5024640782651756e-010 1.6581903048498883e-009 1 -2.1489513913084539 1.561304576401882 -7.6180191045355267e-010 1 I I #
point $-1 0.44760803452660219 3.914883650290276 -1.1490133326070844e-009 #
vertex $-1 $704 $760 #
straight-curve $-1 -2.548122604250779 1.8819035052272721 -4.429755126188438e-010 -0.95104494189458433 -0.30905261444732501 -1.4648598429617208e-009 I I #
straight-curve $-1 -3.0421742642652756 1.7213559322646841 -1.2039452683299581e-009 -1.4554894517130358e-009 -2.6087408705159683e-010 1 I I #
ellipse-curve $-1 -1.8294054342774024 2.4838297919699306 7.6013683592938466e-010 1.4554895934817903e-009 2.6087411441200148e-010 -1 -0.6380296731485553 -0.68686808141614253 -1.1078316520576171e-009 1 I I #
point $-1 -2.4674466610454457 1.7969724424108744 -3.4770883263745121e-010 #
point $-1 -3.0421742642652756 1.7213559322646841 -1.2039452683299581e-009 #
point $-1 -3.4027999999642606 2.0203000012659094 3.9062999993764178 #
coedge $-1 $714 $733 $713 $748 0 $675 $-1 #
edge $-1 $757 $749 $747 $761 1 #
vertex $-1 $715 $762 #
coedge $-1 $717 $724 $719 $752 0 $725 $-1 #
straight-curve $-1 -2.3623156457430792 3.8136104852724433 -1.9984285186224896e-009 -9.9976248028522796e-010 1.5362656004954303e-009 1 I I #
edge $-1 $730 $720 $750 $763 0 #
point $-1 -2.3623156457430792 3.8136104852724433 -1.9984285186224896e-009 #
cone-surface $-1 -0.40280000000000027 2.0203000000000002 2.7156232765186941e-009 -9.9976248028522796e-010 1.5362656004954303e-009 1 -2.1489513913084535 -1.5613045764018825 2.5013753963537018e-010 1 I I 0 1 0 I I I I #
straight-curve $-1 -1.5027242058012973 4.4381152956734287 -2.0984465250537788e-009 -9.9976248028522796e-010 1.5362656004954303e-009 1 I I #
point $-1 -1.5027242058012973 4.4381152956734287 -2.0984465250537788e-009 #
vertex $-1 $734 $764 #
ellipse-curve $-1 -2.0468159618558115 4.2830938468643636 -2.4042549478484393e-009 -9.9976255011547344e-010 1.5362657268706983e-009 1 0.79360129063766283 -0.36822450037867754 1.3591035298286897e-009 1 I I #
point $-1 -1.2532080345559551 3.9148836502270123 -1.0451667572809968e-009 #
point $-1 -2.548122604250779 1.8819035052272719 -4.4297551261884401e-010 #
ellipse-curve $-1 -1.8294040164676657 2.4838341560550159 5.7724636982874901e-010 9.9976255011547344e-010 -1.5362657268706983e-009 -1 -0.11244591995780007 0.9307123830945353 -1.5422407554093766e-009 1 I I #
point $-1 -2.0569308697242898 3.3932851750812216 -1.0473848880004334e-009 #
ellipse-curve $-1 -0.40280000000000027 2.0203000000000002 2.7156232765186941e-009 -9.9976255011547344e-010 1.5362657268706983e-009 1 -2.1489513913084535 -1.5613045764018825 2.5013758688385067e-010 1 I I #
point $-1 -1.9418655914531091 3.4145446479508959 -9.650071315073096e-010 #
End-of-ACIS-data 