200 535 1 0         
7 Unknown 13 ACIS 4.0.1 NT 24 Thu Dec 31 14:56:09 1998 
-1 9.9999999999999995e-007 1e-010 
body $-1 $1 $-1 $-1 #
lump $-1 $-1 $2 $0 #
shell $-1 $-1 $-1 $3 $-1 $1 #
face $4 $5 $6 $2 $-1 $7 reversed single #
color-adesk-attrib $-1 $-1 $-1 $3 256 #
face $8 $9 $10 $2 $-1 $11 reversed single #
loop $-1 $12 $13 $3 #
plane-surface $-1 7.6062985282779394 10.53839227530419 8.8817841970012523e-016 -1 0 6.1230317691118863e-017 0 -1 -1.8369095307335656e-016 forward_v I I I I #
color-adesk-attrib $-1 $-1 $-1 $5 256 #
face $14 $15 $16 $2 $-1 $17 reversed single #
loop $-1 $18 $19 $5 #
plane-surface $-1 8.0840202846459448 10.538392275304192 8.8817841970012523e-016 1 0 -6.1230317691118863e-017 0 1 1.8369095307335656e-016 forward_v I I I I #
loop $-1 $-1 $20 $3 #
coedge $-1 $21 $22 $23 $24 1 $6 $-1 #
color-adesk-attrib $-1 $-1 $-1 $9 256 #
face $25 $26 $27 $2 $-1 $28 forward single #
loop $-1 $-1 $29 $9 #
plane-surface $-1 8.0840202846459448 9.7461524274096512 8.8817841970012523e-016 0 -1 -6.0910727997831978e-017 1 0 -6.1230317691118863e-017 forward_v I I I I #
loop $-1 $-1 $30 $5 #
coedge $-1 $31 $32 $33 $34 1 $10 $-1 #
coedge $-1 $20 $20 $35 $36 1 $12 $-1 #
coedge $-1 $37 $13 $38 $39 1 $6 $-1 #
coedge $-1 $13 $37 $40 $41 1 $6 $-1 #
coedge $-1 $42 $43 $13 $24 0 $44 $-1 #
edge $45 $46 $47 $23 $48 forward #
color-adesk-attrib $-1 $-1 $-1 $15 256 #
face $49 $50 $51 $2 $-1 $52 forward single #
loop $-1 $-1 $53 $15 #
cone-surface $-1 8.3340202846459448 8.6425704805378203 0.25000000000000089 -1 0 6.1230317691118863e-017 0 -1.8999999999999997 -3.490128108393774e-016 1 I I 0 -1 forward I I I I #
coedge $-1 $54 $38 $43 $55 1 $16 $-1 #
coedge $-1 $30 $30 $56 $57 1 $18 $-1 #
coedge $-1 $58 $19 $59 $60 1 $10 $-1 #
coedge $-1 $19 $58 $54 $61 0 $10 $-1 #
coedge $-1 $43 $62 $19 $34 0 $44 $-1 #
edge $63 $64 $65 $33 $66 forward #
coedge $-1 $35 $35 $20 $36 0 $67 $-1 #
edge $68 $69 $69 $35 $70 forward #
coedge $-1 $22 $21 $53 $71 1 $6 $-1 #
coedge $-1 $29 $72 $21 $39 0 $16 $-1 #
edge $73 $74 $46 $21 $75 forward #
coedge $-1 $76 $77 $22 $41 0 $78 $-1 #
edge $79 $47 $80 $40 $81 forward #
coedge $-1 $82 $23 $77 $83 0 $44 $-1 #
coedge $-1 $23 $33 $29 $55 0 $44 $-1 #
loop $-1 $-1 $23 $84 #
color-adesk-attrib $-1 $-1 $-1 $24 256 #
vertex $-1 $55 $85 #
vertex $-1 $83 $86 #
ellipse-curve $-1 7.6062985282779394 8.6471792644309033 -0.28126307239265724 -1 0 6.1230317691118863e-017 0 -2.9000000000000004 -5.3270376391273409e-016 1 I I #
color-adesk-attrib $-1 $-1 $-1 $26 256 #
face $87 $88 $78 $2 $-1 $52 forward single #
loop $-1 $-1 $59 $26 #
cone-surface $-1 8.3340202846459448 10.963698444247168 0.5465889008147391 -1 0 6.1230317691118863e-017 0 -0.43999999999999972 -8.082401935227684e-017 1 I I 0 1 forward I I I I #
coedge $-1 $89 $90 $37 $71 0 $27 $-1 #
coedge $-1 $72 $29 $32 $61 1 $16 $-1 #
edge $91 $65 $46 $43 $92 forward #
coedge $-1 $56 $56 $30 $57 0 $93 $-1 #
edge $94 $95 $95 $56 $96 forward #
coedge $-1 $32 $31 $97 $98 1 $10 $-1 #
coedge $-1 $99 $100 $31 $60 0 $51 $-1 #
edge $101 $102 $64 $59 $103 forward #
edge $104 $105 $65 $54 $106 forward #
coedge $-1 $33 $107 $99 $108 0 $44 $-1 #
color-adesk-attrib $-1 $-1 $-1 $34 256 #
vertex $-1 $60 $109 #
vertex $-1 $34 $110 #
ellipse-curve $-1 8.0840202846459448 8.6471792644309033 -0.28126307239265724 1 0 -6.1230317691118863e-017 0 -2.9000000000000004 -5.3270376391273409e-016 1 I I #
loop $-1 $-1 $35 $88 #
color-adesk-attrib $-1 $-1 $-1 $36 256 #
vertex $-1 $36 $111 #
ellipse-curve $-1 7.6062985282779394 10.963698444247168 0.5465889008147391 1 0 -6.1230317691118863e-017 0 -0.17499999999999999 -3.2145916787837394e-017 1 I I #
edge $112 $80 $74 $53 $113 forward #
coedge $-1 $38 $54 $89 $114 1 $16 $-1 #
color-adesk-attrib $-1 $-1 $-1 $39 256 #
vertex $-1 $114 $115 #
straight-curve $-1 7.6062985282779412 9.7461524274096512 8.8817841970012523e-016 6.1230317691118863e-017 -6.0910727997831991e-017 1 I I #
coedge $-1 $116 $40 $90 $117 0 $78 $-1 #
coedge $-1 $40 $116 $42 $83 1 $78 $-1 #
loop $-1 $-1 $40 $50 #
color-adesk-attrib $-1 $-1 $-1 $41 256 #
vertex $-1 $117 $118 #
ellipse-curve $-1 7.6062985282779394 10.963698444247168 0.5465889008147391 -1 0 6.1230317691118863e-017 0 -0.43999999999999972 -8.082401935227684e-017 1 I I #
coedge $-1 $119 $42 $120 $121 0 $44 $-1 #
edge $122 $47 $123 $42 $124 forward #
face $125 $126 $44 $2 $-1 $127 forward single #
point $-1 7.6062985282779412 9.7461524274096512 2.4024392186695396 #
point $-1 7.6062985282779394 11.378035208116744 0.69465998545346075 #
color-adesk-attrib $-1 $-1 $-1 $50 256 #
face $128 $129 $130 $2 $-1 $131 reversed single #
coedge $-1 $97 $53 $72 $114 0 $27 $-1 #
coedge $-1 $53 $132 $76 $117 1 $27 $-1 #
color-adesk-attrib $-1 $-1 $-1 $55 256 #
straight-curve $-1 8.3340202846459448 9.7461524274096512 2.4024392186695396 -1 0 6.1230317691118863e-017 I I #
loop $-1 $133 $56 $134 #
color-adesk-attrib $-1 $-1 $-1 $57 256 #
vertex $-1 $57 $135 #
ellipse-curve $-1 8.0840202846459448 10.963698444247168 0.5465889008147391 -1 0 6.1230317691118863e-017 0 -0.17499999999999999 -3.2145916787837394e-017 1 I I #
coedge $-1 $136 $89 $58 $98 0 $27 $-1 #
edge $137 $105 $102 $97 $138 forward #
coedge $-1 $139 $59 $62 $108 1 $51 $-1 #
coedge $-1 $59 $139 $136 $140 0 $51 $-1 #
color-adesk-attrib $-1 $-1 $-1 $60 256 #
vertex $-1 $98 $141 #
ellipse-curve $-1 8.0840202846459448 10.963698444247168 0.5465889008147391 1 0 -6.1230317691118863e-017 0 -0.43999999999999972 -8.082401935227684e-017 1 I I #
color-adesk-attrib $-1 $-1 $-1 $61 256 #
vertex $-1 $98 $142 #
straight-curve $-1 8.0840202846459448 9.7461524274096512 8.8817841970012523e-016 6.1230317691118863e-017 -6.0910727997831991e-017 1 I I #
coedge $-1 $62 $119 $143 $144 1 $44 $-1 #
edge $145 $146 $64 $62 $124 forward #
point $-1 8.0840202846459448 11.378035208116744 0.69465998545346075 #
point $-1 8.0840202846459448 9.7461524274096512 2.4024392186695396 #
point $-1 7.6062985282779394 11.138698444247169 0.54658890081473821 #
color-adesk-attrib $-1 $-1 $-1 $71 256 #
ellipse-curve $-1 7.6062985282779394 8.6425704805378203 0.25000000000000178 1 0 -6.1230317691118863e-017 0 -1.8999999999999997 -3.490128108393774e-016 1 I I #
edge $147 $74 $105 $89 $148 forward #
point $-1 7.6062985282779412 9.7461524274096512 1.7966437490704124 #
coedge $-1 $77 $76 $149 $150 0 $78 $-1 #
edge $151 $80 $152 $76 $153 forward #
point $-1 7.6062985282779394 10.527247032267633 0.49082004767008769 #
coedge $-1 $107 $82 $154 $155 1 $44 $-1 #
coedge $-1 $149 $156 $82 $121 1 $157 $-1 #
edge $158 $123 $159 $82 $160 forward #
color-adesk-attrib $-1 $-1 $-1 $83 256 #
vertex $-1 $83 $161 #
straight-curve $-1 8.3340202846459448 11.378035208116744 0.69465998545346075 -1 0 6.1230317691118863e-017 I I #
color-adesk-attrib $-1 $-1 $-1 $84 256 #
face $162 $163 $164 $2 $-1 $165 forward single #
cone-surface $-1 8.3340202846459448 8.6471792644309033 -0.28126307239265813 -1 0 6.1230317691118863e-017 0 -2.9000000000000004 -5.3270376391273409e-016 1 I I 0 1 forward I I I I #
color-adesk-attrib $-1 $-1 $-1 $88 256 #
face $166 $167 $168 $2 $-1 $169 reversed single #
loop $-1 $67 $170 $88 #
cone-surface $-1 8.3340202846459448 10.963698444247168 0.5465889008147391 -1 0 6.1230317691118863e-017 0 -0.17499999999999999 -3.2145916787837394e-017 1 I I 0 1 forward I I I I #
coedge $-1 $90 $171 $172 $173 0 $27 $-1 #
loop $-1 $-1 $174 $134 #
face $175 $84 $93 $2 $-1 $131 reversed single #
point $-1 8.0840202846459448 11.138698444247169 0.54658890081473999 #
coedge $-1 $176 $97 $100 $140 1 $27 $-1 #
color-adesk-attrib $-1 $-1 $-1 $98 256 #
ellipse-curve $-1 8.0840202846459448 8.6425704805378203 0.25000000000000178 -1 0 6.1230317691118863e-017 0 -1.8999999999999997 -3.490128108393774e-016 1 I I #
coedge $-1 $100 $99 $177 $178 1 $51 $-1 #
edge $179 $180 $102 $100 $153 forward #
point $-1 8.0840202846459448 10.527247032267633 0.49082004767008769 #
point $-1 8.0840202846459448 9.7461524274096512 1.7966437490704124 #
coedge $-1 $181 $177 $107 $144 0 $182 $-1 #
edge $183 $146 $184 $143 $185 forward #
color-adesk-attrib $-1 $-1 $-1 $108 256 #
vertex $-1 $144 $186 #
color-adesk-attrib $-1 $-1 $-1 $114 256 #
straight-curve $-1 8.3340202846459448 9.7461524274096512 1.7966437490704124 1 0 -6.1230317691118863e-017 I I #
coedge $-1 $172 $120 $116 $150 1 $157 $-1 #
edge $187 $152 $123 $116 $188 forward #
color-adesk-attrib $-1 $-1 $-1 $117 256 #
vertex $-1 $117 $189 #
straight-curve $-1 8.3340202846459448 10.527247032267633 0.49082004767008769 -1 0 6.1230317691118863e-017 I I #
coedge $-1 $190 $191 $119 $155 0 $192 $-1 #
edge $193 $184 $159 $154 $194 forward #
coedge $-1 $120 $195 $190 $196 1 $157 $-1 #
loop $-1 $-1 $156 $126 #
color-adesk-attrib $-1 $-1 $-1 $121 256 #
vertex $-1 $155 $197 #
ellipse-curve $-1 7.3340202846459448 8.6471792644309033 -0.28126307239265724 1 0 -6.1230317691118863e-017 0 -2.9000000000000004 -5.3270376391273409e-016 1 F -2.7983682313590617 F -1.0985256647135988 #
point $-1 7.3340202846459448 11.378035208116744 0.69465998545346075 #
color-adesk-attrib $-1 $-1 $-1 $126 256 #
face $198 $-1 $199 $2 $-1 $200 forward single #
loop $-1 $201 $202 $126 #
plane-surface $-1 7.3340202846459448 7.3279415217978396 2.3012960805431319 -1 0 6.1230317691118863e-017 0 -1 -1.8369095307335656e-016 forward_v I I I I #
color-adesk-attrib $-1 $-1 $-1 $129 256 #
face $203 $204 $205 $2 $-1 $169 reversed single #
loop $-1 $206 $207 $129 #
cone-surface $-1 8.3340202846459448 4.3136984442471684 0.48058890081473837 -1 0 6.1230317691118863e-017 7.6537897113898579e-018 -7.6537897113898563e-018 0.125 1 I I 0 1 forward I I I I #
coedge $-1 $170 $170 $208 $209 1 $130 $-1 #
coedge $-1 $132 $210 $211 $212 0 $27 $-1 #
coedge $-1 $213 $149 $132 $173 1 $157 $-1 #
edge $214 $215 $152 $132 $216 forward #
coedge $-1 $174 $174 $217 $218 1 $133 $-1 #
color-adesk-attrib $-1 $-1 $-1 $134 256 #
coedge $-1 $219 $136 $220 $221 1 $27 $-1 #
coedge $-1 $143 $220 $139 $178 0 $182 $-1 #
edge $222 $180 $146 $177 $223 forward #
color-adesk-attrib $-1 $-1 $-1 $140 256 #
vertex $-1 $221 $224 #
coedge $-1 $225 $143 $191 $226 0 $182 $-1 #
loop $-1 $-1 $143 $163 #
color-adesk-attrib $-1 $-1 $-1 $144 256 #
vertex $-1 $144 $227 #
ellipse-curve $-1 8.3340202846459448 8.6471792644309033 -0.28126307239265813 1 0 -6.1230317691118863e-017 0 -2.9000000000000004 -5.3270376391273409e-016 1 F -2.7983682313590617 F -1.0985256647135988 #
point $-1 8.3340202846459448 11.378035208116744 0.69465998545346075 #
color-adesk-attrib $-1 $-1 $-1 $150 256 #
ellipse-curve $-1 7.3340202846459448 10.963698444247168 0.5465889008147391 1 0 -6.1230317691118863e-017 0 -0.43999999999999972 -8.082401935227684e-017 1 F 0.12708923463357288 F 3.4848170758205397 #
point $-1 7.3340202846459448 10.527247032267633 0.49082004767008769 #
coedge $-1 $228 $154 $156 $196 0 $192 $-1 #
coedge $-1 $154 $229 $181 $226 1 $192 $-1 #
loop $-1 $-1 $230 $231 #
color-adesk-attrib $-1 $-1 $-1 $155 256 #
straight-curve $-1 8.3340202846459448 7.3279415217978396 2.3012960805431319 -1 0 6.1230317691118863e-017 I I #
coedge $-1 $156 $213 $232 $233 1 $157 $-1 #
edge $234 $159 $235 $190 $236 forward #
point $-1 7.3340202846459448 7.3279415217978396 2.3012960805431319 #
color-adesk-attrib $-1 $-1 $-1 $163 256 #
loop $-1 $237 $238 $163 #
plane-surface $-1 8.3340202846459448 8.0777338878316129 0.95939244947847069 1 0 -6.1230317691118863e-017 0 1 1.8369095307335656e-016 forward_v I I I I #
loop $-1 $239 $240 $126 #
coedge $-1 $202 $202 $241 $242 0 $164 $-1 #
color-adesk-attrib $-1 $-1 $-1 $167 256 #
face $243 $244 $245 $2 $-1 $246 reversed single #
loop $-1 $247 $248 $167 #
loop $-1 $-1 $249 $129 #
coedge $-1 $207 $207 $238 $250 1 $168 $-1 #
coedge $-1 $208 $208 $170 $209 0 $251 $-1 #
edge $252 $253 $253 $208 $254 forward #
coedge $-1 $171 $255 $256 $257 0 $27 $-1 #
coedge $-1 $258 $259 $171 $212 1 $260 $-1 #
edge $261 $262 $215 $171 $263 forward #
coedge $-1 $195 $172 $259 $264 1 $157 $-1 #
color-adesk-attrib $-1 $-1 $-1 $173 256 #
vertex $-1 $212 $265 #
ellipse-curve $-1 7.3340202846459448 8.6425704805378203 0.25000000000000178 -1 0 6.1230317691118863e-017 0 -1.8999999999999997 -3.490128108393774e-016 1 F -0.13196160765987588 F 3.0145034189562199 #
coedge $-1 $217 $217 $174 $218 0 $266 $-1 #
edge $267 $268 $268 $217 $269 forward #
coedge $-1 $270 $176 $271 $272 0 $27 $-1 #
coedge $-1 $177 $273 $176 $221 0 $182 $-1 #
edge $274 $275 $180 $220 $276 forward #
color-adesk-attrib $-1 $-1 $-1 $178 256 #
ellipse-curve $-1 8.3340202846459448 10.963698444247168 0.5465889008147391 1 0 -6.1230317691118863e-017 0 -0.43999999999999972 -8.082401935227684e-017 1 F 0.12708923463357288 F 3.4848170758205397 #
point $-1 8.3340202846459448 10.527247032267633 0.49082004767008769 #
coedge $-1 $273 $181 $277 $278 0 $182 $-1 #
edge $279 $184 $280 $181 $281 forward #
point $-1 8.3340202846459448 7.3279415217978396 2.3012960805431319 #
coedge $-1 $230 $190 $282 $283 1 $192 $-1 #
coedge $-1 $191 $284 $285 $286 1 $192 $-1 #
coedge $-1 $287 $228 $288 $289 0 $192 $-1 #
face $290 $134 $192 $2 $-1 $291 forward single #
coedge $-1 $292 $282 $195 $233 0 $293 $-1 #
edge $294 $235 $295 $232 $296 forward #
color-adesk-attrib $-1 $-1 $-1 $196 256 #
vertex $-1 $283 $297 #
straight-curve $-1 7.3340202846459448 5.545819983022505 1.3909424906789347 -2.785425727294374e-017 -0.89053763894337556 -0.45490956642519403 I I #
loop $-1 $298 $299 $163 #
coedge $-1 $238 $238 $207 $250 0 $199 $-1 #
loop $-1 $251 $300 $126 #
coedge $-1 $240 $240 $301 $302 0 $201 $-1 #
coedge $-1 $241 $241 $202 $242 1 $247 $-1 #
edge $303 $304 $304 $202 $305 forward #
color-adesk-attrib $-1 $-1 $-1 $204 256 #
face $306 $307 $308 $2 $-1 $246 reversed single #
loop $-1 $309 $310 $204 #
cone-surface $-1 8.3340202846459448 5.3136984442471684 0.48058890081473837 -1 0 6.1230317691118863e-017 7.6537897113898579e-018 -7.6537897113898563e-018 0.125 1 I I 0 1 forward I I I I #
loop $-1 $-1 $241 $167 #
coedge $-1 $248 $248 $311 $312 1 $205 $-1 #
coedge $-1 $249 $249 $313 $314 1 $206 $-1 #
edge $315 $316 $316 $238 $317 forward #
loop $-1 $157 $208 $126 #
color-adesk-attrib $-1 $-1 $-1 $209 256 #
vertex $-1 $209 $318 #
ellipse-curve $-1 7.3340202846459448 10.963698444247168 0.5465889008147391 1 0 -6.1230317691118863e-017 0 -0.17499999999999999 -3.2145916787837394e-017 1 I I #
coedge $-1 $210 $270 $319 $320 0 $27 $-1 #
coedge $-1 $321 $322 $210 $257 1 $323 $-1 #
edge $324 $325 $262 $210 $326 forward #
coedge $-1 $327 $211 $322 $328 0 $260 $-1 #
coedge $-1 $211 $327 $213 $264 0 $260 $-1 #
loop $-1 $-1 $258 $329 #
color-adesk-attrib $-1 $-1 $-1 $212 256 #
vertex $-1 $212 $330 #
straight-curve $-1 8.3340202846459448 6.7590896603540838 0 -1 0 6.1230317691118863e-017 I I #
edge $331 $295 $215 $259 $332 forward #
point $-1 7.3340202846459448 6.7590896603540838 0 #
loop $-1 $182 $217 $163 #
color-adesk-attrib $-1 $-1 $-1 $218 256 #
vertex $-1 $218 $333 #
ellipse-curve $-1 8.3340202846459448 10.963698444247168 0.5465889008147391 -1 0 6.1230317691118863e-017 0 -0.17499999999999999 -3.2145916787837394e-017 1 I I #
coedge $-1 $255 $219 $334 $335 0 $27 $-1 #
coedge $-1 $336 $337 $219 $272 1 $338 $-1 #
edge $339 $275 $340 $219 $263 forward #
coedge $-1 $220 $225 $336 $341 0 $182 $-1 #
color-adesk-attrib $-1 $-1 $-1 $221 256 #
vertex $-1 $341 $342 #
ellipse-curve $-1 8.3340202846459448 8.6425704805378203 0.25000000000000089 -1 0 6.1230317691118863e-017 0 -1.8999999999999997 -3.490128108393774e-016 1 F -0.13196160765987588 F 3.0145034189562199 #
coedge $-1 $285 $343 $225 $278 1 $344 $-1 #
edge $345 $280 $346 $225 $347 forward #
color-adesk-attrib $-1 $-1 $-1 $226 256 #
vertex $-1 $226 $348 #
straight-curve $-1 8.3340202846459448 5.545819983022505 1.3909424906789347 -2.785425727294374e-017 -0.89053763894337556 -0.45490956642519403 I I #
coedge $-1 $232 $349 $228 $283 0 $293 $-1 #
edge $350 $351 $235 $282 $352 forward #
coedge $-1 $229 $287 $353 $354 0 $192 $-1 #
coedge $-1 $355 $277 $229 $286 0 $344 $-1 #
edge $356 $280 $357 $285 $352 forward #
coedge $-1 $284 $230 $358 $359 0 $192 $-1 #
coedge $-1 $360 $361 $230 $289 1 $323 $-1 #
edge $362 $351 $363 $230 $364 forward #
color-adesk-attrib $-1 $-1 $-1 $231 256 #
plane-surface $-1 8.3340202846459448 7.3279415217978396 2.3012960805431319 5.4527902548401809e-017 -0.45490956642519403 0.89053763894337556 -1 0 6.1230317691118863e-017 forward_v I I I I #
coedge $-1 $349 $232 $327 $365 1 $293 $-1 #
loop $-1 $-1 $349 $366 #
color-adesk-attrib $-1 $-1 $-1 $233 256 #
vertex $-1 $365 $367 #
straight-curve $-1 7.3340202846459448 3.7636984442471677 0.24058890081473905 -6.1230317691118863e-017 1.8369095307335656e-016 -1 I I #
point $-1 7.3340202846459448 3.7636984442471677 0.48058890081473837 #
loop $-1 $266 $368 $163 #
coedge $-1 $299 $299 $310 $369 0 $237 $-1 #
coedge $-1 $300 $300 $370 $371 0 $239 $-1 #
coedge $-1 $301 $301 $240 $302 1 $372 $-1 #
edge $373 $374 $374 $240 $375 forward #
color-adesk-attrib $-1 $-1 $-1 $242 256 #
vertex $-1 $242 $376 #
ellipse-curve $-1 7.3340202846459448 4.3136984442471684 0.48058890081473837 1 0 -6.1230317691118863e-017 7.6537897113898579e-018 -7.6537897113898563e-018 0.125 1 I I #
color-adesk-attrib $-1 $-1 $-1 $244 256 #
face $377 $378 $379 $2 $-1 $380 reversed single #
loop $-1 $372 $381 $244 #
loop $-1 $-1 $382 $204 #
coedge $-1 $310 $310 $299 $369 1 $245 $-1 #
coedge $-1 $311 $311 $248 $312 0 $383 $-1 #
edge $384 $385 $385 $311 $386 forward #
coedge $-1 $313 $313 $249 $314 0 $387 $-1 #
edge $388 $389 $389 $313 $390 forward #
color-adesk-attrib $-1 $-1 $-1 $250 256 #
vertex $-1 $250 $391 #
ellipse-curve $-1 8.3340202846459448 4.3136984442471684 0.48058890081473837 -1 0 6.1230317691118863e-017 7.6537897113898579e-018 -7.6537897113898563e-018 0.125 1 I I #
point $-1 7.3340202846459448 11.138698444247169 0.54658890081473821 #
coedge $-1 $392 $393 $255 $320 1 $394 $-1 #
edge $395 $396 $325 $255 $397 forward #
coedge $-1 $361 $256 $393 $398 0 $323 $-1 #
coedge $-1 $256 $360 $258 $328 1 $323 $-1 #
loop $-1 $-1 $256 $399 #
color-adesk-attrib $-1 $-1 $-1 $257 256 #
vertex $-1 $257 $400 #
ellipse-curve $-1 7.5840202846459448 8.6425704805378203 0.25000000000000178 1 0 -6.1230317691118863e-017 0 -1.8999999999999997 -3.490128108393774e-016 1 I I #
coedge $-1 $259 $258 $292 $365 0 $260 $-1 #
edge $401 $262 $402 $258 $403 forward #
face $404 $405 $260 $2 $-1 $406 forward single #
point $-1 7.5840202846459448 6.7590896603540838 0 #
color-adesk-attrib $-1 $-1 $-1 $264 256 #
straight-curve $-1 7.3340202846459448 5.2590896603540829 0 0 1 6.1230317691118838e-017 I I #
point $-1 8.3340202846459448 10.788698444247169 0.5465889008147391 #
coedge $-1 $407 $408 $270 $335 1 $409 $-1 #
edge $410 $340 $396 $270 $411 forward #
coedge $-1 $412 $271 $273 $341 1 $338 $-1 #
coedge $-1 $271 $412 $407 $413 0 $338 $-1 #
loop $-1 $-1 $337 $414 #
color-adesk-attrib $-1 $-1 $-1 $272 256 #
vertex $-1 $413 $415 #
edge $416 $346 $275 $273 $417 forward #
point $-1 8.3340202846459448 6.7590896603540838 0 #
coedge $-1 $277 $355 $412 $418 1 $344 $-1 #
loop $-1 $-1 $355 $405 #
color-adesk-attrib $-1 $-1 $-1 $278 256 #
vertex $-1 $278 $419 #
straight-curve $-1 8.3340202846459448 3.7636984442471677 0.24058890081473816 -6.1230317691118863e-017 1.8369095307335656e-016 -1 I I #
point $-1 8.3340202846459448 3.7636984442471677 0.48058890081473749 #
coedge $-1 $282 $292 $360 $420 0 $293 $-1 #
color-adesk-attrib $-1 $-1 $-1 $283 256 #
vertex $-1 $283 $421 #
straight-curve $-1 8.3340202846459448 3.7636984442471677 0.48058890081473749 -1 0 6.1230317691118863e-017 I I #
coedge $-1 $422 $423 $284 $354 1 $409 $-1 #
edge $424 $425 $357 $284 $426 forward #
coedge $-1 $343 $285 $423 $427 0 $344 $-1 #
color-adesk-attrib $-1 $-1 $-1 $286 256 #
vertex $-1 $354 $428 #
coedge $-1 $429 $430 $287 $359 1 $431 $-1 #
edge $432 $363 $425 $287 $433 forward #
coedge $-1 $322 $288 $349 $420 1 $323 $-1 #
coedge $-1 $288 $321 $429 $434 1 $323 $-1 #
color-adesk-attrib $-1 $-1 $-1 $289 256 #
vertex $-1 $289 $435 #
straight-curve $-1 7.5840202846459448 5.4484733151212232 1.341215305042569 2.785425727294374e-017 0.89053763894337556 0.45490956642519403 I I #
edge $436 $402 $295 $327 $437 forward #
face $438 $231 $293 $2 $-1 $439 forward single #
point $-1 7.3340202846459448 3.7636984442471677 0 #
coedge $-1 $368 $368 $440 $441 0 $298 $-1 #
edge $442 $443 $443 $299 $444 forward #
coedge $-1 $370 $370 $300 $371 1 $445 $-1 #
edge $446 $447 $447 $300 $448 forward #
loop $-1 $-1 $301 $244 #
color-adesk-attrib $-1 $-1 $-1 $302 256 #
vertex $-1 $302 $449 #
ellipse-curve $-1 7.3340202846459448 5.3136984442471684 0.48058890081473837 1 0 -6.1230317691118863e-017 7.6537897113898579e-018 -7.6537897113898563e-018 0.125 1 I I #
point $-1 7.3340202846459448 4.3136984442471675 0.35558890081473837 #
color-adesk-attrib $-1 $-1 $-1 $307 256 #
face $450 $399 $451 $2 $-1 $380 reversed single #
loop $-1 $452 $440 $307 #
cone-surface $-1 8.3340202846459448 6.3136984442471684 0.48058890081473837 -1 0 6.1230317691118863e-017 7.6537897113898579e-018 -7.6537897113898563e-018 0.125 1 I I 0 1 forward I I I I #
coedge $-1 $381 $381 $453 $454 1 $308 $-1 #
coedge $-1 $382 $382 $455 $456 1 $309 $-1 #
loop $-1 $457 $311 $399 #
color-adesk-attrib $-1 $-1 $-1 $312 256 #
vertex $-1 $312 $458 #
ellipse-curve $-1 7.5840202846459448 4.3136984442471684 0.48058890081473837 -1 0 6.1230317691118863e-017 7.6537897113898579e-018 -7.6537897113898563e-018 0.125 1 I I #
loop $-1 $459 $313 $460 #
color-adesk-attrib $-1 $-1 $-1 $314 256 #
vertex $-1 $314 $461 #
ellipse-curve $-1 8.0840202846459448 4.3136984442471684 0.48058890081473837 1 0 -6.1230317691118863e-017 7.6537897113898579e-018 -7.6537897113898563e-018 0.125 1 I I #
point $-1 8.3340202846459448 4.3136984442471684 0.60558890081473837 #
coedge $-1 $462 $319 $408 $463 0 $394 $-1 #
coedge $-1 $319 $462 $321 $398 1 $394 $-1 #
loop $-1 $-1 $319 $464 #
color-adesk-attrib $-1 $-1 $-1 $320 256 #
vertex $-1 $335 $465 #
straight-curve $-1 8.3340202846459448 6.7636984442471686 0.53255950036235067 -1 0 6.1230317691118863e-017 I I #
edge $466 $325 $467 $393 $468 forward #
face $469 $470 $383 $2 $-1 $471 reversed single #
point $-1 7.5840202846459448 6.7636984442471686 0.53255950036235067 #
color-adesk-attrib $-1 $-1 $-1 $328 256 #
vertex $-1 $365 $472 #
straight-curve $-1 7.5840202846459448 3.7636984442471677 0 0 -1 -6.1230317691118838e-017 I I #
color-adesk-attrib $-1 $-1 $-1 $329 256 #
face $473 $366 $344 $2 $-1 $439 forward single #
plane-surface $-1 8.3340202846459448 3.7636984442471677 -8.8817841970012523e-016 -6.1230317691118863e-017 6.1230317691118851e-017 -1 1 0 -6.1230317691118863e-017 forward_v I I I I #
coedge $-1 $423 $334 $337 $413 1 $409 $-1 #
coedge $-1 $334 $422 $392 $463 1 $409 $-1 #
loop $-1 $-1 $334 $460 #
color-adesk-attrib $-1 $-1 $-1 $335 256 #
ellipse-curve $-1 8.084020284645943 8.6425704805378203 0.25000000000000178 -1 0 6.1230317691118863e-017 0 -1.8999999999999997 -3.490128108393774e-016 1 I I #
coedge $-1 $337 $336 $343 $418 0 $338 $-1 #
edge $474 $475 $340 $337 $476 forward #
face $477 $329 $338 $2 $-1 $406 forward single #
point $-1 8.0840202846459448 6.7590896603540838 0 #
color-adesk-attrib $-1 $-1 $-1 $341 256 #
straight-curve $-1 8.3340202846459448 5.2590896603540829 0 0 1 6.1230317691118838e-017 I I #
edge $478 $346 $475 $412 $437 forward #
point $-1 8.3340202846459448 3.7636984442471677 -8.8817841970012523e-016 #
edge $479 $402 $351 $349 $480 forward #
point $-1 7.5840202846459448 3.7636984442471677 0.48058890081473926 #
coedge $-1 $408 $353 $430 $481 1 $409 $-1 #
coedge $-1 $353 $407 $355 $427 1 $409 $-1 #
color-adesk-attrib $-1 $-1 $-1 $354 256 #
vertex $-1 $354 $482 #
straight-curve $-1 8.0840202846459448 6.638059244683487 1.9488864418681393 -2.785425727294374e-017 -0.89053763894337556 -0.45490956642519403 I I #
edge $483 $357 $475 $355 $484 forward #
point $-1 8.084020284645943 3.7636984442471677 0.48058890081473926 #
coedge $-1 $485 $358 $361 $434 0 $431 $-1 #
coedge $-1 $358 $485 $422 $481 0 $431 $-1 #
loop $-1 $-1 $358 $470 #
color-adesk-attrib $-1 $-1 $-1 $359 256 #
straight-curve $-1 8.2090202846459448 4.7805052297019399 1 1 0 -6.1230317691118863e-017 I I #
edge $486 $363 $467 $361 $487 forward #
point $-1 7.5840202846459448 4.7805052297019399 1 #
color-adesk-attrib $-1 $-1 $-1 $365 256 #
straight-curve $-1 8.3340202846459448 3.7636984442471677 -8.8817841970012523e-016 -1 0 6.1230317691118863e-017 I I #
color-adesk-attrib $-1 $-1 $-1 $366 256 #
plane-surface $-1 8.3340202846459448 3.7636984442471677 0.48058890081473749 0 -1 -1.8369095307335656e-016 1 0 -6.1230317691118863e-017 forward_v I I I I #
coedge $-1 $440 $440 $368 $441 1 $379 $-1 #
edge $488 $489 $489 $368 $490 forward #
color-adesk-attrib $-1 $-1 $-1 $369 256 #
vertex $-1 $369 $491 #
ellipse-curve $-1 8.3340202846459448 5.3136984442471684 0.48058890081473837 -1 0 6.1230317691118863e-017 7.6537897113898579e-018 -7.6537897113898563e-018 0.125 1 I I #
loop $-1 $-1 $370 $378 #
color-adesk-attrib $-1 $-1 $-1 $371 256 #
vertex $-1 $371 $492 #
ellipse-curve $-1 7.3340202846459448 6.3136984442471684 0.48058890081473837 1 0 -6.1230317691118863e-017 7.6537897113898579e-018 -7.6537897113898563e-018 0.125 1 I I #
point $-1 7.3340202846459448 5.3136984442471675 0.35558890081473837 #
color-adesk-attrib $-1 $-1 $-1 $378 256 #
loop $-1 $445 $493 $378 #
loop $-1 $-1 $494 $307 #
coedge $-1 $453 $453 $381 $454 0 $457 $-1 #
edge $495 $496 $496 $453 $497 forward #
coedge $-1 $455 $455 $382 $456 0 $459 $-1 #
edge $498 $499 $499 $455 $500 forward #
loop $-1 $501 $453 $399 #
point $-1 7.5840202846459448 4.3136984442471693 0.35558890081473837 #
loop $-1 $502 $455 $460 #
face $503 $464 $387 $2 $-1 $504 reversed single #
point $-1 8.0840202846459448 4.3136984442471675 0.35558890081473837 #
coedge $-1 $393 $392 $485 $505 1 $394 $-1 #
edge $506 $396 $507 $408 $508 forward #
face $509 $414 $394 $2 $-1 $510 reversed single #
point $-1 8.0840202846459448 6.7636984442471686 0.53255950036235067 #
color-adesk-attrib $-1 $-1 $-1 $398 256 #
vertex $-1 $398 $511 #
straight-curve $-1 7.5840202846459448 6.7636984442471686 0 6.1230317691118863e-017 -1.8369095307335656e-016 1 I I #
color-adesk-attrib $-1 $-1 $-1 $399 256 #
face $512 $460 $431 $2 $-1 $513 forward single #
plane-surface $-1 7.5840202846459448 3.7636984442471677 0 -1 0 6.1230317691118863e-017 0 -1 -1.8369095307335656e-016 forward_v I I I I #
point $-1 7.5840202846459448 3.7636984442471677 0 #
color-adesk-attrib $-1 $-1 $-1 $405 256 #
color-adesk-attrib $-1 $-1 $-1 $413 256 #
vertex $-1 $427 $514 #
straight-curve $-1 8.0840202846459448 5.2636984442471677 0 0 1 6.1230317691118838e-017 I I #
color-adesk-attrib $-1 $-1 $-1 $414 256 #
color-adesk-attrib $-1 $-1 $-1 $418 256 #
color-adesk-attrib $-1 $-1 $-1 $420 256 #
straight-curve $-1 7.5840202846459448 3.7636984442471677 0.24029445040736874 6.1230317691118863e-017 -1.8369095307335656e-016 1 I I #
edge $515 $507 $425 $422 $516 forward #
point $-1 8.0840202846459448 4.7805052297019399 1 #
color-adesk-attrib $-1 $-1 $-1 $427 256 #
straight-curve $-1 8.084020284645943 3.7636984442471677 0.24029445040736874 -6.1230317691118863e-017 1.8369095307335656e-016 -1 I I #
coedge $-1 $430 $429 $462 $505 0 $431 $-1 #
color-adesk-attrib $-1 $-1 $-1 $434 256 #
straight-curve $-1 7.5840202846459448 5.2636984442471677 1 0 1 6.1230317691118838e-017 I I #
color-adesk-attrib $-1 $-1 $-1 $441 256 #
vertex $-1 $441 $517 #
ellipse-curve $-1 8.3340202846459448 6.3136984442471684 0.48058890081473837 -1 0 6.1230317691118863e-017 7.6537897113898579e-018 -7.6537897113898563e-018 0.125 1 I I #
point $-1 8.3340202846459448 5.3136984442471684 0.60558890081473837 #
point $-1 7.3340202846459448 6.3136984442471675 0.35558890081473837 #
coedge $-1 $493 $493 $518 $519 1 $451 $-1 #
coedge $-1 $494 $494 $520 $521 1 $452 $-1 #
color-adesk-attrib $-1 $-1 $-1 $454 256 #
vertex $-1 $454 $522 #
ellipse-curve $-1 7.5840202846459448 5.3136984442471684 0.48058890081473837 -1 0 6.1230317691118863e-017 7.6537897113898579e-018 -7.6537897113898563e-018 0.125 1 I I #
color-adesk-attrib $-1 $-1 $-1 $456 256 #
vertex $-1 $456 $523 #
ellipse-curve $-1 8.0840202846459448 5.3136984442471684 0.48058890081473837 1 0 -6.1230317691118863e-017 7.6537897113898579e-018 -7.6537897113898563e-018 0.125 1 I I #
loop $-1 $323 $518 $399 #
loop $-1 $409 $520 $460 #
color-adesk-attrib $-1 $-1 $-1 $460 256 #
plane-surface $-1 8.0840202846459448 6.7636984442471686 0 1 0 -6.1230317691118863e-017 0 1 1.8369095307335656e-016 forward_v I I I I #
edge $524 $467 $507 $462 $525 forward #
color-adesk-attrib $-1 $-1 $-1 $463 256 #
vertex $-1 $463 $526 #
straight-curve $-1 8.0840202846459448 6.7636984442471686 0 6.1230317691118863e-017 -1.8369095307335656e-016 1 I I #
color-adesk-attrib $-1 $-1 $-1 $464 256 #
plane-surface $-1 7.5840202846459448 6.7636984442471686 0 0 1 1.8369095307335656e-016 -1 0 6.1230317691118863e-017 forward_v I I I I #
point $-1 7.5840202846459448 6.7636984442471686 1 #
color-adesk-attrib $-1 $-1 $-1 $470 256 #
plane-surface $-1 8.0840202846459448 6.7636984442471686 1 -6.1230317691118863e-017 1.8369095307335656e-016 -1 1 0 -6.1230317691118863e-017 forward_v I I I I #
point $-1 8.084020284645943 3.7636984442471677 0 #
color-adesk-attrib $-1 $-1 $-1 $481 256 #
straight-curve $-1 8.0840202846459448 5.2636984442471677 1 0 -1 -6.1230317691118838e-017 I I #
point $-1 8.3340202846459448 6.3136984442471684 0.60558890081473837 #
coedge $-1 $518 $518 $493 $519 0 $501 $-1 #
edge $527 $528 $528 $518 $529 forward #
coedge $-1 $520 $520 $494 $521 0 $502 $-1 #
edge $530 $531 $531 $520 $532 forward #
point $-1 7.5840202846459448 5.3136984442471693 0.35558890081473837 #
point $-1 8.0840202846459448 5.3136984442471675 0.35558890081473837 #
color-adesk-attrib $-1 $-1 $-1 $505 256 #
straight-curve $-1 7.8340202846459448 6.7636984442471686 1 1 0 -6.1230317691118863e-017 I I #
point $-1 8.0840202846459448 6.7636984442471686 1 #
color-adesk-attrib $-1 $-1 $-1 $519 256 #
vertex $-1 $519 $533 #
ellipse-curve $-1 7.5840202846459448 6.3136984442471684 0.48058890081473837 -1 0 6.1230317691118863e-017 7.6537897113898579e-018 -7.6537897113898563e-018 0.125 1 I I #
color-adesk-attrib $-1 $-1 $-1 $521 256 #
vertex $-1 $521 $534 #
ellipse-curve $-1 8.0840202846459448 6.3136984442471684 0.48058890081473837 1 0 -6.1230317691118863e-017 7.6537897113898579e-018 -7.6537897113898563e-018 0.125 1 I I #
point $-1 7.5840202846459448 6.3136984442471693 0.35558890081473837 #
point $-1 8.0840202846459448 6.3136984442471675 0.35558890081473837 #
