700 0 2 0           
24 FBMach with ACIS - 7.0.3 13 ACIS 7.0.3 NT 24 Tue May 14 09:58:31 2002 
1 9.9999999999999995e-007 1e-010 
body $2 -1 $-1 $3 $-1 $4 #
bdycol-kcp $-1 -1 1 5 $5 $6 $7 $8 $9 #
model_id-kcp-attrib $-1 -1 $-1 $-1 $0 1 1021384711 1021384711 1486094337 1 #
lump $-1 -1 $-1 $-1 $10 $0 #
transform $-1 -1 1 0 0 0 1.0000000000000002 0 0 0 1.0000000000000002 0 0 0 1 rotate no_reflect no_shear #
body $11 -1 $-1 $12 $-1 $13 #
body $14 -1 $-1 $15 $-1 $16 #
body $17 -1 $-1 $18 $-1 $19 #
body $20 -1 $-1 $21 $-1 $22 #
body $23 -1 $-1 $24 $-1 $25 #
shell $-1 -1 $-1 $-1 $-1 $26 $-1 $3 #
rgb_color-st-attrib $-1 -1 $27 $-1 $5 0.5 1 1 #
lump $-1 -1 $-1 $-1 $28 $5 #
transform $-1 -1 1 0 0 0 1 0 0 0 1 220 -220 17.5 1 no_rotate no_reflect no_shear #
model_id-kcp-attrib $-1 -1 $-1 $-1 $6 1 1021384711 1021384711 1486094338 1 #
lump $-1 -1 $-1 $-1 $29 $6 #
transform $-1 -1 1 0 0 0 1 0 0 0 1 220 -220 17.5 1 no_rotate no_reflect no_shear #
rgb_color-st-attrib $-1 -1 $30 $-1 $7 0.5 0.5 1 #
lump $-1 -1 $-1 $-1 $31 $7 #
transform $-1 -1 1 0 0 0 1 0 0 0 1 220 -220 17.5 1 no_rotate no_reflect no_shear #
rgb_color-st-attrib $-1 -1 $32 $-1 $8 0.5 0.5 1 #
lump $-1 -1 $-1 $-1 $33 $8 #
transform $-1 -1 1 0 0 0 1 0 0 0 1 220 -220 17.5 1 no_rotate no_reflect no_shear #
rgb_color-st-attrib $-1 -1 $34 $-1 $9 0.5 0.5 1 #
lump $-1 -1 $-1 $-1 $35 $9 #
transform $-1 -1 1 0 0 0 1 0 0 0 1 220 -220 17.5 1 no_rotate no_reflect no_shear #
face $36 -1 $-1 $37 $38 $10 $-1 $39 reversed single #
model_id-kcp-attrib $-1 -1 $-1 $11 $5 1 1021384711 1021384711 1485766659 1 #
shell $-1 -1 $-1 $-1 $-1 $40 $-1 $12 #
shell $-1 -1 $-1 $-1 $-1 $41 $-1 $15 #
model_id-kcp-attrib $-1 -1 $-1 $17 $7 1 1021384711 1021384711 1490354180 1 #
shell $-1 -1 $-1 $-1 $-1 $42 $-1 $18 #
model_id-kcp-attrib $-1 -1 $-1 $20 $8 1 1021384711 1021384711 1491664901 1 #
shell $-1 -1 $-1 $-1 $-1 $43 $-1 $21 #
model_id-kcp-attrib $-1 -1 $-1 $23 $9 1 1021384711 1021384711 1492320262 1 #
shell $-1 -1 $-1 $-1 $-1 $44 $-1 $24 #
model_id-kcp-attrib $-1 -1 $45 $-1 $26 1 1021384711 1021384711 1486094337 2 #
face $46 -1 $-1 $47 $48 $10 $-1 $49 forward single #
loop $50 -1 $-1 $-1 $51 $26 #
plane-surface $52 -1 $-1 0 0 0 0 0 1 1 0 0 forward_v I I I I #
face $-1 -1 $-1 $53 $54 $28 $-1 $55 reversed single #
face $56 -1 $-1 $57 $58 $29 $-1 $59 forward single #
face $-1 -1 $-1 $60 $61 $31 $-1 $62 reversed single #
face $-1 -1 $-1 $63 $64 $33 $-1 $65 reversed single #
face $-1 -1 $-1 $66 $67 $35 $-1 $68 reversed single #
face_name-twe-attrib $-1 -1 $-1 $36 $26 1 #
model_id-kcp-attrib $-1 -1 $69 $-1 $37 1 1021384711 1021384711 1486094337 3 #
face $70 -1 $-1 $71 $72 $10 $-1 $73 forward single #
loop $74 -1 $-1 $-1 $75 $37 #
plane-surface $76 -1 $-1 3 -3 0 -0.70710678118654757 0 -0.70710678118654757 -0.70710678118654802 0 0.70710678118654802 forward_v I I I I #
loop_type-twe-attrib $-1 -1 $-1 $-1 $38 0 #
coedge $-1 -1 $-1 $77 $78 $75 $79 forward $38 $-1 #
surf-twe-attrib $-1 -1 $-1 $-1 $39 4 #
face $-1 -1 $-1 $80 $81 $28 $-1 $82 reversed single #
loop $-1 -1 $-1 $-1 $83 $40 #
plane-surface $-1 -1 $-1 220.00000000000011 0 -234.49999999999994 0 0.70710678118654757 -0.70710678118654746 0 -0.70710678118654746 -0.70710678118654757 forward_v I I I I #
model_id-kcp-attrib $-1 -1 $-1 $-1 $41 1 1021384711 1021384711 1486094338 3 #
face $84 -1 $-1 $85 $86 $29 $-1 $87 reversed single #
loop $-1 -1 $-1 $-1 $88 $41 #
plane-surface $-1 -1 $-1 0 0 17.5 0 0 1 1 0 0 forward_v I I I I #
face $-1 -1 $-1 $89 $90 $31 $-1 $91 reversed single #
loop $-1 -1 $-1 $-1 $92 $42 #
plane-surface $-1 -1 $-1 -218.49999999999994 0 -15.999999999999943 -0.70710678118654757 0 -0.70710678118654757 0 -1 0 forward_v I I I I #
face $-1 -1 $-1 $93 $94 $33 $-1 $95 reversed single #
loop $-1 -1 $-1 $-1 $96 $43 #
plane-surface $-1 -1 $-1 0 -218.49999999999994 -15.999999999999943 0 -0.70710678118654757 -0.70710678118654757 1 0 0 forward_v I I I I #
face $-1 -1 $-1 $97 $98 $35 $-1 $99 reversed single #
loop $-1 -1 $-1 $-1 $100 $44 #
plane-surface $-1 -1 $-1 218.49999999999994 0 -15.999999999999943 0.70710678118654757 0 -0.70710678118654757 0 1 0 forward_v I I I I #
face_name-twe-attrib $-1 -1 $-1 $46 $37 2 #
model_id-kcp-attrib $-1 -1 $101 $-1 $47 1 1021384711 1021384711 1486094337 4 #
face $102 -1 $-1 $103 $104 $10 $-1 $105 forward single #
loop $106 -1 $-1 $-1 $107 $47 #
plane-surface $108 -1 $-1 0 -437 0 0 -0.70710678118654757 -0.70710678118654757 -1 0 0 forward_v I I I I #
loop_type-twe-attrib $-1 -1 $-1 $-1 $48 0 #
coedge $-1 -1 $-1 $109 $110 $51 $79 reversed $48 $-1 #
surf-twe-attrib $-1 -1 $-1 $-1 $49 6 #
coedge $-1 -1 $-1 $111 $51 $112 $113 forward $38 $-1 #
coedge $-1 -1 $-1 $51 $111 $107 $114 forward $38 $-1 #
edge $115 -1 $-1 $116 -434 $117 0 $75 $118 forward @7 unknown #
face $-1 -1 $-1 $119 $120 $28 $-1 $121 reversed single #
loop $-1 -1 $-1 $-1 $122 $53 #
plane-surface $-1 -1 $-1 0 220 0 0 -1 0 0 0 -1 forward_v I I I I #
coedge $-1 -1 $-1 $123 $124 $122 $125 reversed $54 $-1 #
model_id-kcp-attrib $-1 -1 $-1 $-1 $57 1 1021384711 1021384711 1486094338 2 #
face $126 -1 $-1 $127 $128 $29 $-1 $129 reversed single #
loop $-1 -1 $-1 $-1 $130 $57 #
plane-surface $-1 -1 $-1 0 0 -17.5 0 0 1 1 0 0 forward_v I I I I #
coedge $-1 -1 $-1 $131 $132 $133 $134 forward $58 $-1 #
face $-1 -1 $-1 $135 $136 $31 $-1 $137 forward single #
loop $-1 -1 $-1 $-1 $138 $60 #
plane-surface $-1 -1 $-1 -220 0 0 1 0 0 0 0 -1 forward_v I I I I #
coedge $-1 -1 $-1 $139 $140 $141 $142 forward $61 $-1 #
face $-1 -1 $-1 $143 $144 $33 $-1 $145 reversed single #
loop $-1 -1 $-1 $-1 $146 $63 #
plane-surface $-1 -1 $-1 0 -220 0 0 1 0 0 0 1 forward_v I I I I #
coedge $-1 -1 $-1 $147 $148 $149 $150 forward $64 $-1 #
face $-1 -1 $-1 $151 $152 $35 $-1 $153 forward single #
loop $-1 -1 $-1 $-1 $154 $66 #
plane-surface $-1 -1 $-1 0 0 -17.5 0 0 1 1 0 0 forward_v I I I I #
coedge $-1 -1 $-1 $155 $156 $157 $158 forward $67 $-1 #
face_name-twe-attrib $-1 -1 $-1 $70 $47 3 #
model_id-kcp-attrib $-1 -1 $159 $-1 $71 1 1021384711 1021384711 1486094337 5 #
face $160 -1 $-1 $161 $162 $10 $-1 $163 forward single #
loop $164 -1 $-1 $-1 $165 $71 #
plane-surface $166 -1 $-1 437 -440 0 0.70710678118654757 0 -0.70710678118654757 -0.70710678118654802 0 -0.70710678118654802 forward_v I I I I #
loop_type-twe-attrib $-1 -1 $-1 $-1 $72 0 #
coedge $-1 -1 $-1 $167 $168 $78 $114 reversed $72 $-1 #
surf-twe-attrib $-1 -1 $-1 $-1 $73 10 #
coedge $-1 -1 $-1 $169 $75 $168 $170 reversed $48 $-1 #
coedge $-1 -1 $-1 $75 $169 $171 $172 forward $48 $-1 #
coedge $-1 -1 $-1 $78 $77 $165 $173 forward $38 $-1 #
coedge $-1 -1 $-1 $171 $174 $77 $113 reversed $162 $-1 #
edge $175 -1 $-1 $117 -434 $176 0 $112 $177 forward @7 unknown #
edge $178 -1 $-1 $179 -434 $116 0 $107 $180 forward @7 unknown #
attrib_edge_convexity-kcp-attrib $-1 -1 $181 $-1 $79 1 #
vertex $-1 -1 $-1 $114 $182 #
vertex $-1 -1 $-1 $113 $183 #
straight-curve $184 -1 $-1 3 -3 0 0 1 0 I I #
face $-1 -1 $-1 $185 $186 $28 $-1 $187 reversed single #
loop $-1 -1 $-1 $-1 $188 $80 #
plane-surface $-1 -1 $-1 220 0 0 -1 0 0 0 0 1 forward_v I I I I #
coedge $-1 -1 $-1 $189 $190 $83 $125 forward $81 $-1 #
coedge $-1 -1 $-1 $191 $83 $192 $193 reversed $54 $-1 #
coedge $-1 -1 $-1 $83 $191 $188 $194 reversed $54 $-1 #
edge $-1 -1 $-1 $195 -330.00000000000006 $196 110.00000000000006 $122 $197 forward @7 unknown #
model_id-kcp-attrib $-1 -1 $-1 $-1 $85 1 1021384711 1021384711 1486094338 5 #
face $198 -1 $-1 $199 $200 $29 $-1 $201 reversed single #
loop $-1 -1 $-1 $-1 $202 $85 #
plane-surface $-1 -1 $-1 0 -220 0 0 1 0 0 0 1 forward_v I I I I #
coedge $-1 -1 $-1 $203 $204 $205 $206 forward $86 $-1 #
coedge $-1 -1 $-1 $207 $88 $208 $209 forward $58 $-1 #
coedge $-1 -1 $-1 $88 $207 $210 $211 forward $58 $-1 #
coedge $-1 -1 $-1 $212 $213 $88 $134 reversed $214 $-1 #
edge $-1 -1 $-1 $215 -220 $216 220 $133 $217 forward @7 unknown #
face $-1 -1 $-1 $218 $219 $31 $-1 $220 reversed single #
loop $-1 -1 $-1 $-1 $141 $89 #
plane-surface $-1 -1 $-1 220.00000000000011 0 -234.49999999999994 0 0.70710678118654757 -0.70710678118654746 0 -0.70710678118654746 -0.70710678118654757 forward_v I I I I #
coedge $-1 -1 $-1 $221 $222 $139 $223 reversed $90 $-1 #
coedge $-1 -1 $-1 $224 $92 $138 $223 forward $61 $-1 #
coedge $-1 -1 $-1 $92 $224 $225 $226 forward $61 $-1 #
coedge $-1 -1 $-1 $227 $228 $92 $142 reversed $136 $-1 #
edge $229 -1 $-1 $230 313.21252103537182 $231 318.40867345807862 $141 $232 forward @7 unknown #
face $-1 -1 $-1 $233 $234 $33 $-1 $235 reversed single #
loop $-1 -1 $-1 $-1 $149 $93 #
plane-surface $-1 -1 $-1 -220 0 0 1 0 0 0 0 -1 forward_v I I I I #
coedge $-1 -1 $-1 $236 $237 $147 $238 reversed $94 $-1 #
coedge $-1 -1 $-1 $239 $96 $146 $238 forward $64 $-1 #
coedge $-1 -1 $-1 $96 $239 $240 $241 forward $64 $-1 #
coedge $-1 -1 $-1 $242 $243 $96 $150 reversed $144 $-1 #
edge $244 -1 $-1 $245 69.473241251578216 $246 73.715881938697663 $149 $247 forward @7 unknown #
face $-1 -1 $-1 $248 $249 $35 $-1 $250 reversed single #
loop $-1 -1 $-1 $-1 $157 $97 #
plane-surface $-1 -1 $-1 220.00000000000011 0 -234.49999999999994 0 0.70710678118654757 -0.70710678118654746 0 -0.70710678118654746 -0.70710678118654757 forward_v I I I I #
coedge $-1 -1 $-1 $251 $252 $155 $253 reversed $98 $-1 #
coedge $-1 -1 $-1 $254 $100 $154 $253 forward $67 $-1 #
coedge $-1 -1 $-1 $100 $254 $255 $256 forward $67 $-1 #
coedge $-1 -1 $-1 $257 $258 $100 $158 reversed $152 $-1 #
edge $259 -1 $-1 $260 -191.39161423636097 $261 -186.19546181365411 $157 $262 forward @7 unknown #
face_name-twe-attrib $-1 -1 $-1 $102 $71 4 #
model_id-kcp-attrib $-1 -1 $263 $-1 $103 1 1021384711 1021384711 1486094337 6 #
face $264 -1 $-1 $265 $266 $10 $-1 $267 forward single #
loop $268 -1 $-1 $-1 $112 $103 #
plane-surface $269 -1 $-1 440 -3 0 0 0.70710678118654757 -0.70710678118654757 -1 0 0 forward_v I I I I #
loop_type-twe-attrib $-1 -1 $-1 $-1 $104 0 #
coedge $-1 -1 $-1 $270 $271 $111 $173 reversed $104 $-1 #
surf-twe-attrib $-1 -1 $-1 $-1 $105 17 #
coedge $-1 -1 $-1 $272 $107 $271 $273 reversed $72 $-1 #
coedge $-1 -1 $-1 $107 $272 $109 $170 forward $72 $-1 #
coedge $-1 -1 $-1 $110 $109 $274 $275 forward $48 $-1 #
edge $276 -1 $-1 $277 -5.196152422706632 $116 0 $168 $278 forward @7 unknown #
coedge $-1 -1 $-1 $279 $112 $110 $172 reversed $162 $-1 #
edge $280 -1 $-1 $281 -5.196152422706632 $117 0 $171 $282 forward @7 unknown #
edge $283 -1 $-1 $176 -434 $179 0 $165 $284 forward @7 unknown #
coedge $-1 -1 $-1 $112 $279 $270 $285 forward $162 $-1 #
attrib_edge_convexity-kcp-attrib $-1 -1 $286 $-1 $113 1 #
vertex $-1 -1 $-1 $113 $287 #
straight-curve $288 -1 $-1 437 -3 0 1 0 0 I I #
attrib_edge_convexity-kcp-attrib $-1 -1 $289 $-1 $114 1 #
vertex $-1 -1 $-1 $173 $290 #
straight-curve $291 -1 $-1 3 -437 0 -1 0 0 I I #
convexity-sys-attrib $-1 -1 $292 $115 $79 #
point $-1 -1 $-1 3 -437 0 #
point $-1 -1 $-1 3 -3 0 #
cur-twe-attrib $-1 -1 $-1 $-1 $118 25 #
face $-1 -1 $-1 $-1 $293 $28 $-1 $294 reversed single #
loop $-1 -1 $-1 $-1 $295 $119 #
plane-surface $-1 -1 $-1 0 0 -17.5 0 0 1 1 0 0 forward_v I I I I #
coedge $-1 -1 $-1 $296 $297 $124 $194 forward $120 $-1 #
coedge $-1 -1 $-1 $298 $122 $297 $299 forward $81 $-1 #
coedge $-1 -1 $-1 $122 $298 $300 $301 reversed $81 $-1 #
coedge $-1 -1 $-1 $124 $123 $295 $302 reversed $54 $-1 #
coedge $-1 -1 $-1 $300 $303 $123 $193 forward $293 $-1 #
edge $-1 -1 $-1 $304 223.97607294083886 $195 228.21871362795821 $192 $305 forward @7 unknown #
edge $-1 -1 $-1 $196 -228.21871362795821 $306 -223.97607294083886 $188 $307 forward @7 unknown #
vertex $-1 -1 $-1 $301 $308 #
vertex $-1 -1 $-1 $299 $309 #
straight-curve $-1 -1 $-1 110.00000000000006 220 -14.499999999999915 1 0 0 I I #
model_id-kcp-attrib $-1 -1 $-1 $-1 $127 1 1021384711 1021384711 1486094338 4 #
face $310 -1 $-1 $311 $312 $29 $-1 $313 reversed single #
loop $-1 -1 $-1 $-1 $314 $127 #
plane-surface $-1 -1 $-1 -220 0 0 1 0 0 0 0 -1 forward_v I I I I #
coedge $-1 -1 $-1 $315 $210 $316 $317 forward $128 $-1 #
coedge $-1 -1 $-1 $318 $130 $315 $319 forward $86 $-1 #
coedge $-1 -1 $-1 $130 $318 $320 $321 forward $86 $-1 #
coedge $-1 -1 $-1 $213 $212 $130 $206 reversed $214 $-1 #
edge $-1 -1 $-1 $322 -220 $323 220 $205 $324 forward @7 unknown #
coedge $-1 -1 $-1 $132 $131 $325 $326 forward $58 $-1 #
coedge $-1 -1 $-1 $327 $328 $131 $209 reversed $312 $-1 #
edge $-1 -1 $-1 $216 -220 $329 220 $208 $330 forward @7 unknown #
coedge $-1 -1 $-1 $202 $331 $132 $211 reversed $128 $-1 #
edge $-1 -1 $-1 $332 -220 $215 220 $210 $333 forward @7 unknown #
coedge $-1 -1 $-1 $205 $133 $331 $334 forward $214 $-1 #
coedge $-1 -1 $-1 $133 $205 $327 $335 reversed $214 $-1 #
loop $-1 -1 $-1 $-1 $212 $311 #
vertex $-1 -1 $-1 $134 $336 #
vertex $-1 -1 $-1 $134 $337 #
straight-curve $-1 -1 $-1 220 0 17.5 0 1 0 I I #
face $-1 -1 $-1 $-1 $338 $31 $-1 $339 reversed single #
loop $-1 -1 $-1 $-1 $225 $135 #
plane-surface $-1 -1 $-1 0 0 -17.5 0 0 1 1 0 0 forward_v I I I I #
coedge $-1 -1 $-1 $340 $138 $228 $341 forward $90 $-1 #
coedge $-1 -1 $-1 $138 $340 $342 $343 reversed $90 $-1 #
edge $344 -1 $-1 $231 -220 $345 220 $138 $346 forward @7 unknown #
coedge $-1 -1 $-1 $140 $139 $347 $348 forward $61 $-1 #
coedge $-1 -1 $-1 $349 $350 $140 $226 reversed $219 $-1 #
edge $351 -1 $-1 $352 -220 $230 216.99999999999991 $225 $353 forward @7 unknown #
coedge $-1 -1 $-1 $228 $141 $350 $354 reversed $136 $-1 #
coedge $-1 -1 $-1 $141 $227 $221 $341 reversed $136 $-1 #
convexity-sys-attrib $-1 -1 $-1 $-1 $142 #
vertex $-1 -1 $-1 $142 $355 #
vertex $-1 -1 $-1 $142 $356 #
straight-curve $-1 -1 $-1 -36.166666666666622 36.166666666666643 -198.33333333333329 -0.57735026918962573 0.57735026918962562 0.57735026918962573 I I #
face $-1 -1 $-1 $-1 $357 $33 $-1 $358 reversed single #
loop $-1 -1 $-1 $-1 $359 $143 #
plane-surface $-1 -1 $-1 220 0 0 -1 0 0 0 0 1 forward_v I I I I #
coedge $-1 -1 $-1 $360 $146 $243 $361 forward $94 $-1 #
coedge $-1 -1 $-1 $146 $360 $362 $363 reversed $94 $-1 #
edge $364 -1 $-1 $246 -220 $365 220 $146 $366 forward @7 unknown #
coedge $-1 -1 $-1 $148 $147 $359 $367 forward $64 $-1 #
coedge $-1 -1 $-1 $368 $369 $148 $241 reversed $357 $-1 #
edge $370 -1 $-1 $371 -220 $245 220 $240 $372 forward @7 unknown #
coedge $-1 -1 $-1 $243 $149 $369 $373 reversed $144 $-1 #
coedge $-1 -1 $-1 $149 $242 $236 $361 reversed $144 $-1 #
convexity-sys-attrib $-1 -1 $-1 $-1 $150 #
vertex $-1 -1 $-1 $150 $374 #
vertex $-1 -1 $-1 $361 $375 #
straight-curve $-1 -1 $-1 -220 -167.87499999999994 -66.624999999999943 0 -0.70710678118654757 0.70710678118654757 I I #
face $-1 -1 $-1 $-1 $376 $35 $-1 $377 reversed single #
loop $-1 -1 $-1 $-1 $255 $151 #
plane-surface $-1 -1 $-1 220 0 0 -1 0 0 0 0 1 forward_v I I I I #
coedge $-1 -1 $-1 $378 $154 $258 $379 forward $98 $-1 #
coedge $-1 -1 $-1 $154 $378 $380 $381 forward $98 $-1 #
edge $382 -1 $-1 $261 -216.99999999999991 $383 220 $154 $384 forward @7 unknown #
coedge $-1 -1 $-1 $156 $155 $385 $386 forward $67 $-1 #
coedge $-1 -1 $-1 $387 $388 $156 $256 reversed $249 $-1 #
edge $389 -1 $-1 $390 -220 $260 220 $255 $391 forward @7 unknown #
coedge $-1 -1 $-1 $258 $157 $388 $392 reversed $152 $-1 #
coedge $-1 -1 $-1 $157 $257 $251 $379 reversed $152 $-1 #
convexity-sys-attrib $-1 -1 $-1 $-1 $158 #
vertex $-1 -1 $-1 $392 $393 #
vertex $-1 -1 $-1 $379 $394 #
straight-curve $-1 -1 $-1 109.5 109.50000000000003 -124.99999999999991 -0.57735026918962573 -0.57735026918962562 -0.57735026918962573 I I #
face_name-twe-attrib $-1 -1 $-1 $160 $103 5 #
model_id-kcp-attrib $-1 -1 $395 $-1 $161 1 1021384711 1021384711 1486094337 7 #
face $396 -1 $-1 $397 $398 $10 $-1 $399 forward single #
loop $400 -1 $-1 $-1 $401 $161 #
plane-surface $402 -1 $-1 0 0 35 0 0 1 1 0 0 forward_v I I I I #
loop_type-twe-attrib $-1 -1 $-1 $-1 $162 0 #
surf-twe-attrib $-1 -1 $-1 $-1 $163 27 #
coedge $-1 -1 $-1 $403 $165 $174 $285 reversed $104 $-1 #
coedge $-1 -1 $-1 $165 $403 $167 $273 forward $104 $-1 #
coedge $-1 -1 $-1 $168 $167 $404 $405 forward $72 $-1 #
edge $406 -1 $-1 $407 -5.196152422706632 $179 0 $271 $408 forward @7 unknown #
coedge $-1 -1 $-1 $409 $410 $169 $275 reversed $398 $-1 #
edge $411 -1 $-1 $277 -440 $281 0 $274 $412 forward @7 unknown #
attrib_edge_convexity-kcp-attrib $-1 -1 $413 $-1 $170 1 #
vertex $-1 -1 $-1 $414 $415 #
straight-curve $416 -1 $-1 3 -437 0 0.57735026918962595 0.57735026918962595 -0.57735026918962595 I I #
coedge $-1 -1 $-1 $174 $171 $417 $418 forward $162 $-1 #
attrib_edge_convexity-kcp-attrib $-1 -1 $419 $-1 $172 1 #
vertex $-1 -1 $-1 $420 $421 #
straight-curve $422 -1 $-1 3 -3 0 0.57735026918962595 -0.57735026918962595 -0.57735026918962595 I I #
attrib_edge_convexity-kcp-attrib $-1 -1 $423 $-1 $173 1 #
straight-curve $424 -1 $-1 437 -437 0 0 -1 0 I I #
edge $425 -1 $-1 $426 -5.196152422706632 $176 0 $174 $427 forward @7 unknown #
convexity-sys-attrib $-1 -1 $428 $175 $113 #
point $-1 -1 $-1 437 -3 0 #
cur-twe-attrib $-1 -1 $-1 $-1 $177 37 #
convexity-sys-attrib $-1 -1 $429 $178 $114 #
point $-1 -1 $-1 437 -437 0 #
cur-twe-attrib $-1 -1 $-1 $-1 $180 38 #
edge_name-twe-attrib $-1 -1 $-1 $181 $79 1 8448 #
loop $-1 -1 $-1 $-1 $192 $185 #
plane-surface $-1 -1 $-1 -220 0 0 1 0 0 0 0 -1 forward_v I I I I #
coedge $-1 -1 $-1 $430 $431 $191 $302 forward $186 $-1 #
coedge $-1 -1 $-1 $297 $188 $431 $432 reversed $120 $-1 #
coedge $-1 -1 $-1 $188 $296 $189 $299 reversed $120 $-1 #
coedge $-1 -1 $-1 $190 $189 $433 $434 reversed $81 $-1 #
edge $-1 -1 $-1 $196 14.499999999999915 $435 17.5 $297 $436 forward @7 unknown #
coedge $-1 -1 $-1 $303 $192 $190 $301 forward $293 $-1 #
edge $-1 -1 $-1 $195 14.499999999999915 $437 17.5 $190 $438 forward @7 unknown #
edge $-1 -1 $-1 $306 -110.00000000000006 $304 330.00000000000006 $295 $439 forward @7 unknown #
coedge $-1 -1 $-1 $192 $300 $430 $440 reversed $293 $-1 #
vertex $-1 -1 $-1 $440 $441 #
straight-curve $-1 -1 $-1 -220 58.624999999999986 -175.87499999999994 0 0.70710678118654746 0.70710678118654757 I I #
vertex $-1 -1 $-1 $194 $442 #
straight-curve $-1 -1 $-1 220 58.624999999999986 -175.87499999999994 0 -0.70710678118654746 -0.70710678118654757 I I #
point $-1 -1 $-1 -220 220 -14.499999999999915 #
point $-1 -1 $-1 220.00000000000011 220 -14.499999999999915 #
model_id-kcp-attrib $-1 -1 $-1 $-1 $199 1 1021384711 1021384711 1486094338 7 #
face $443 -1 $-1 $-1 $214 $29 $-1 $444 reversed single #
loop $-1 -1 $-1 $-1 $327 $199 #
plane-surface $-1 -1 $-1 0 220 0 0 -1 0 0 0 -1 forward_v I I I I #
coedge $-1 -1 $-1 $445 $325 $328 $446 forward $200 $-1 #
coedge $-1 -1 $-1 $331 $202 $203 $319 reversed $128 $-1 #
coedge $-1 -1 $-1 $325 $445 $202 $317 reversed $200 $-1 #
edge $-1 -1 $-1 $332 -17.5 $447 17.5 $316 $448 forward @7 unknown #
coedge $-1 -1 $-1 $204 $203 $445 $449 forward $86 $-1 #
edge $-1 -1 $-1 $323 -220 $447 220 $315 $450 forward @7 unknown #
coedge $-1 -1 $-1 $328 $327 $204 $321 reversed $312 $-1 #
edge $-1 -1 $-1 $451 -220 $322 220 $320 $452 forward @7 unknown #
vertex $-1 -1 $-1 $206 $453 #
vertex $-1 -1 $-1 $334 $454 #
straight-curve $-1 -1 $-1 220 0 -17.5 0 -1 0 I I #
coedge $-1 -1 $-1 $314 $316 $207 $326 reversed $200 $-1 #
edge $-1 -1 $-1 $329 -220 $332 220 $325 $455 forward @7 unknown #
coedge $-1 -1 $-1 $320 $208 $213 $335 forward $312 $-1 #
coedge $-1 -1 $-1 $208 $320 $314 $446 reversed $312 $-1 #
vertex $-1 -1 $-1 $209 $456 #
straight-curve $-1 -1 $-1 0 220 17.5 -1 0 0 I I #
coedge $-1 -1 $-1 $210 $315 $212 $334 reversed $128 $-1 #
vertex $-1 -1 $-1 $326 $457 #
straight-curve $-1 -1 $-1 0 -220 17.5 1 0 0 I I #
edge $-1 -1 $-1 $215 -17.5 $323 17.5 $212 $458 forward @7 unknown #
edge $-1 -1 $-1 $216 -17.5 $322 17.5 $213 $459 forward @7 unknown #
point $-1 -1 $-1 220 -220 17.5 #
point $-1 -1 $-1 220 220 17.5 #
loop $-1 -1 $-1 $-1 $347 $218 #
plane-surface $-1 -1 $-1 0 -220 0 0 1 0 0 0 1 forward_v I I I I #
coedge $-1 -1 $-1 $222 $221 $460 $461 reversed $90 $-1 #
edge $-1 -1 $-1 $231 -228.21871362795821 $462 -223.97607294083886 $221 $463 forward @7 unknown #
coedge $-1 -1 $-1 $464 $347 $222 $343 forward $338 $-1 #
edge $-1 -1 $-1 $345 14.499999999999885 $465 17.5 $222 $466 forward @7 unknown #
convexity-sys-attrib $-1 -1 $-1 $-1 $223 #
vertex $-1 -1 $-1 $343 $467 #
straight-curve $-1 -1 $-1 -220 0 -14.499999999999886 0 -1 0 I I #
coedge $-1 -1 $-1 $342 $464 $224 $348 reversed $338 $-1 #
edge $468 -1 $-1 $345 -73.715881938697663 $352 -69.473241251578216 $347 $469 forward @7 unknown #
coedge $-1 -1 $-1 $460 $225 $464 $470 forward $219 $-1 #
coedge $-1 -1 $-1 $225 $460 $227 $354 forward $219 $-1 #
convexity-sys-attrib $-1 -1 $-1 $-1 $226 #
vertex $-1 -1 $-1 $470 $471 #
straight-curve $-1 -1 $-1 -216.99999999999989 0 -17.500000000000007 0 1 0 I I #
edge $-1 -1 $-1 $462 -330.00000000000006 $230 -326.99999999999994 $350 $472 forward @7 unknown #
point $-1 -1 $-1 -216.99999999999989 216.99999999999991 -17.5 #
point $-1 -1 $-1 -220 220 -14.499999999999915 #
loop $-1 -1 $-1 $-1 $240 $233 #
plane-surface $-1 -1 $-1 0 0 -17.5 0 0 1 1 0 0 forward_v I I I I #
coedge $-1 -1 $-1 $362 $473 $239 $367 reversed $234 $-1 #
coedge $-1 -1 $-1 $237 $236 $474 $475 reversed $94 $-1 #
edge $-1 -1 $-1 $246 14.499999999999885 $476 17.5 $243 $477 forward @7 unknown #
coedge $-1 -1 $-1 $473 $359 $237 $363 forward $234 $-1 #
edge $-1 -1 $-1 $365 14.499999999999885 $478 17.5 $362 $479 forward @7 unknown #
convexity-sys-attrib $-1 -1 $-1 $-1 $238 #
vertex $-1 -1 $-1 $363 $480 #
straight-curve $-1 -1 $-1 0 -220 -14.499999999999886 1 0 0 I I #
edge $481 -1 $-1 $365 -73.715881938697663 $371 -69.473241251578216 $359 $482 forward @7 unknown #
coedge $-1 -1 $-1 $474 $240 $473 $483 forward $357 $-1 #
coedge $-1 -1 $-1 $240 $474 $242 $373 forward $357 $-1 #
convexity-sys-attrib $-1 -1 $-1 $-1 $241 #
vertex $-1 -1 $-1 $483 $484 #
straight-curve $-1 -1 $-1 0 -216.99999999999989 -17.500000000000007 -1 0 0 I I #
edge $-1 -1 $-1 $476 -220 $245 -216.99999999999989 $242 $485 forward @7 unknown #
point $-1 -1 $-1 -220 -216.99999999999989 -17.5 #
point $-1 -1 $-1 -220 -220 -14.499999999999885 #
loop $-1 -1 $-1 $-1 $385 $248 #
plane-surface $-1 -1 $-1 0 -220 0 0 1 0 0 0 1 forward_v I I I I #
coedge $-1 -1 $-1 $252 $251 $486 $487 forward $98 $-1 #
edge $-1 -1 $-1 $261 106.99999999999983 $488 110.00000000000006 $251 $489 forward @7 unknown #
coedge $-1 -1 $-1 $490 $385 $252 $381 reversed $376 $-1 #
edge $-1 -1 $-1 $491 -220 $383 -216.99999999999989 $380 $492 forward @7 unknown #
convexity-sys-attrib $-1 -1 $-1 $-1 $253 #
vertex $-1 -1 $-1 $253 $493 #
straight-curve $-1 -1 $-1 216.99999999999989 0 -17.500000000000007 0 -1 0 I I #
coedge $-1 -1 $-1 $380 $490 $254 $386 reversed $376 $-1 #
edge $494 -1 $-1 $383 69.473241251578216 $390 73.715881938697663 $385 $495 forward @7 unknown #
coedge $-1 -1 $-1 $486 $255 $490 $496 forward $249 $-1 #
coedge $-1 -1 $-1 $255 $486 $257 $392 forward $249 $-1 #
convexity-sys-attrib $-1 -1 $-1 $-1 $256 #
vertex $-1 -1 $-1 $496 $497 #
straight-curve $-1 -1 $-1 220 0 -14.499999999999886 0 1 0 I I #
edge $-1 -1 $-1 $488 223.97607294083886 $260 228.21871362795821 $388 $498 forward @7 unknown #
point $-1 -1 $-1 220.00000000000011 220 -14.499999999999915 #
point $-1 -1 $-1 216.99999999999989 216.99999999999991 -17.5 #
face_name-twe-attrib $-1 -1 $-1 $264 $161 6 #
model_id-kcp-attrib $-1 -1 $499 $-1 $265 1 1021384711 1021384711 1486094337 8 #
face $500 -1 $-1 $501 $502 $10 $-1 $503 forward single #
loop $504 -1 $-1 $-1 $274 $265 #
plane-surface $505 -1 $-1 0 0 0 -1 0 0 0 0 1 forward_v I I I I #
loop_type-twe-attrib $-1 -1 $-1 $-1 $266 0 #
coedge $-1 -1 $-1 $506 $507 $508 $509 reversed $266 $-1 #
surf-twe-attrib $-1 -1 $-1 $-1 $267 44 #
coedge $-1 -1 $-1 $271 $270 $510 $511 forward $104 $-1 #
coedge $-1 -1 $-1 $512 $513 $272 $405 reversed $502 $-1 #
edge $514 -1 $-1 $407 -440 $277 0 $404 $515 forward @7 unknown #
attrib_edge_convexity-kcp-attrib $-1 -1 $516 $-1 $273 1 #
vertex $-1 -1 $-1 $517 $518 #
straight-curve $519 -1 $-1 437 -437 0 -0.57735026918962595 0.57735026918962595 -0.57735026918962595 I I #
coedge $-1 -1 $-1 $508 $274 $513 $414 reversed $398 $-1 #
coedge $-1 -1 $-1 $274 $508 $520 $420 forward $398 $-1 #
attrib_edge_convexity-kcp-attrib $-1 -1 $521 $-1 $275 1 #
straight-curve $522 -1 $-1 0 0 3 0 1 0 I I #
convexity-sys-attrib $-1 -1 $523 $276 $170 #
edge $524 -1 $-1 $525 -32 $277 0 $513 $526 forward @7 unknown #
point $-1 -1 $-1 0 -440 3 #
cur-twe-attrib $-1 -1 $-1 $-1 $278 53 #
coedge $-1 -1 $-1 $520 $527 $279 $418 reversed $528 $-1 #
edge $529 -1 $-1 $281 -440 $426 0 $417 $530 forward @7 unknown #
convexity-sys-attrib $-1 -1 $531 $280 $172 #
edge $532 -1 $-1 $533 -32 $281 0 $520 $534 forward @7 unknown #
point $-1 -1 $-1 0 0 3 #
cur-twe-attrib $-1 -1 $-1 $-1 $282 55 #
convexity-sys-attrib $-1 -1 $535 $283 $173 #
cur-twe-attrib $-1 -1 $-1 $-1 $284 56 #
attrib_edge_convexity-kcp-attrib $-1 -1 $536 $-1 $285 1 #
vertex $-1 -1 $-1 $537 $538 #
straight-curve $539 -1 $-1 437 -3 0 -0.57735026918962595 -0.57735026918962595 -0.57735026918962595 I I #
edge_name-twe-attrib $-1 -1 $-1 $286 $113 6 8448 #
edge_name-twe-attrib $-1 -1 $-1 $289 $114 2 8448 #
coedge $-1 -1 $-1 $433 $295 $303 $440 forward $186 $-1 #
coedge $-1 -1 $-1 $295 $433 $296 $432 forward $186 $-1 #
edge $-1 -1 $-1 $435 -220 $306 -216.99999999999991 $296 $540 forward @7 unknown #
coedge $-1 -1 $-1 $431 $430 $298 $434 forward $186 $-1 #
edge $-1 -1 $-1 $437 -220 $435 220 $298 $541 forward @7 unknown #
vertex $-1 -1 $-1 $432 $542 #
straight-curve $-1 -1 $-1 220 220 0 0 0 -1 I I #
vertex $-1 -1 $-1 $434 $543 #
straight-curve $-1 -1 $-1 -220 220 0 0 0 -1 I I #
straight-curve $-1 -1 $-1 110.00000000000006 216.99999999999991 -17.5 -1 0 0 I I #
edge $-1 -1 $-1 $304 216.99999999999991 $437 220 $303 $544 forward @7 unknown #
point $-1 -1 $-1 -220 216.99999999999991 -17.499999999999972 #
point $-1 -1 $-1 220.00000000000011 216.99999999999991 -17.499999999999972 #
model_id-kcp-attrib $-1 -1 $-1 $-1 $311 1 1021384711 1021384711 1486094338 6 #
plane-surface $-1 -1 $-1 220 0 0 -1 0 0 0 0 1 forward_v I I I I #
coedge $-1 -1 $-1 $316 $314 $318 $449 reversed $200 $-1 #
edge $-1 -1 $-1 $329 -17.5 $451 17.5 $328 $545 forward @7 unknown #
vertex $-1 -1 $-1 $449 $546 #
straight-curve $-1 -1 $-1 -220 -220 0 0 0 -1 I I #
edge $-1 -1 $-1 $447 -220 $451 220 $445 $547 forward @7 unknown #
straight-curve $-1 -1 $-1 0 -220 -17.5 -1 0 0 I I #
vertex $-1 -1 $-1 $321 $548 #
straight-curve $-1 -1 $-1 0 220 -17.5 1 0 0 I I #
point $-1 -1 $-1 220 220 -17.5 #
point $-1 -1 $-1 220 -220 -17.5 #
straight-curve $-1 -1 $-1 -220 0 17.5 0 -1 0 I I #
point $-1 -1 $-1 -220 220 17.5 #
point $-1 -1 $-1 -220 -220 17.5 #
straight-curve $-1 -1 $-1 220 -220 0 0 0 -1 I I #
straight-curve $-1 -1 $-1 220 220 0 0 0 -1 I I #
coedge $-1 -1 $-1 $350 $349 $340 $461 forward $219 $-1 #
edge $-1 -1 $-1 $465 -220 $462 216.99999999999991 $340 $549 forward @7 unknown #
vertex $-1 -1 $-1 $341 $550 #
straight-curve $-1 -1 $-1 -220 58.624999999999986 -175.87499999999994 0 -0.70710678118654746 -0.70710678118654757 I I #
coedge $-1 -1 $-1 $347 $342 $349 $470 reversed $338 $-1 #
vertex $-1 -1 $-1 $461 $551 #
straight-curve $-1 -1 $-1 -220 -220 0 0 0 -1 I I #
point $-1 -1 $-1 -220 -220 -14.499999999999885 #
convexity-sys-attrib $-1 -1 $-1 $-1 $348 #
straight-curve $-1 -1 $-1 -167.87499999999994 -220 -66.624999999999943 0.70710678118654757 0 -0.70710678118654757 I I #
edge $-1 -1 $-1 $352 216.99999999999989 $465 220 $464 $552 forward @7 unknown #
point $-1 -1 $-1 -216.99999999999989 -220 -17.5 #
straight-curve $-1 -1 $-1 110.00000000000006 216.99999999999991 -17.5 1 0 0 I I #
coedge $-1 -1 $-1 $359 $362 $368 $483 reversed $234 $-1 #
coedge $-1 -1 $-1 $369 $368 $360 $475 forward $357 $-1 #
edge $-1 -1 $-1 $478 -220 $476 220 $360 $553 forward @7 unknown #
vertex $-1 -1 $-1 $373 $554 #
straight-curve $-1 -1 $-1 -220 -220 0 0 0 -1 I I #
vertex $-1 -1 $-1 $363 $555 #
straight-curve $-1 -1 $-1 220 -220 0 0 0 -1 I I #
point $-1 -1 $-1 220 -220 -14.499999999999885 #
convexity-sys-attrib $-1 -1 $-1 $-1 $367 #
straight-curve $-1 -1 $-1 220 -167.87499999999994 -66.624999999999943 0 0.70710678118654757 -0.70710678118654757 I I #
edge $-1 -1 $-1 $371 216.99999999999989 $478 220 $473 $556 forward @7 unknown #
point $-1 -1 $-1 220 -216.99999999999989 -17.5 #
straight-curve $-1 -1 $-1 -220 0 -17.5 0 1 0 I I #
coedge $-1 -1 $-1 $388 $387 $378 $487 reversed $249 $-1 #
edge $-1 -1 $-1 $488 -216.99999999999991 $491 220 $486 $557 forward @7 unknown #
vertex $-1 -1 $-1 $487 $558 #
straight-curve $-1 -1 $-1 110.00000000000006 216.99999999999991 -17.5 1 0 0 I I #
coedge $-1 -1 $-1 $385 $380 $387 $496 reversed $376 $-1 #
vertex $-1 -1 $-1 $496 $559 #
straight-curve $-1 -1 $-1 0 -220 -17.5 -1 0 0 I I #
point $-1 -1 $-1 216.99999999999989 -220 -17.5 #
convexity-sys-attrib $-1 -1 $-1 $-1 $386 #
straight-curve $-1 -1 $-1 167.87499999999994 -220 -66.624999999999943 0.70710678118654757 0 0.70710678118654757 I I #
edge $-1 -1 $-1 $390 14.499999999999885 $491 17.5 $387 $560 forward @7 unknown #
point $-1 -1 $-1 220 -220 -14.499999999999885 #
straight-curve $-1 -1 $-1 220 58.624999999999986 -175.87499999999994 0 0.70710678118654746 0.70710678118654757 I I #
face_name-twe-attrib $-1 -1 $-1 $396 $265 7 #
model_id-kcp-attrib $-1 -1 $561 $-1 $397 1 1021384711 1021384711 1486094337 9 #
face $562 -1 $-1 $563 $564 $10 $-1 $565 forward single #
loop $566 -1 $-1 $-1 $404 $397 #
plane-surface $567 -1 $-1 0 -440 0 0 -1 0 0 0 -1 forward_v I I I I #
loop_type-twe-attrib $-1 -1 $-1 $-1 $398 0 #
surf-twe-attrib $-1 -1 $-1 $-1 $399 68 #
coedge $-1 -1 $-1 $568 $401 $569 $570 reversed $266 $-1 #
coedge $-1 -1 $-1 $401 $568 $571 $572 reversed $266 $-1 #
coedge $-1 -1 $-1 $410 $409 $401 $509 forward $398 $-1 #
edge $573 -1 $-1 $525 -440 $533 0 $508 $574 forward @7 unknown #
coedge $-1 -1 $-1 $575 $576 $403 $511 reversed $564 $-1 #
edge $577 -1 $-1 $426 -440 $407 0 $510 $578 forward @7 unknown #
coedge $-1 -1 $-1 $569 $404 $576 $517 reversed $502 $-1 #
coedge $-1 -1 $-1 $404 $569 $409 $414 forward $502 $-1 #
attrib_edge_convexity-kcp-attrib $-1 -1 $579 $-1 $405 1 #
straight-curve $580 -1 $-1 0 -440 3 -1 0 0 I I #
convexity-sys-attrib $-1 -1 $581 $406 $273 #
edge $582 -1 $-1 $583 -32 $407 0 $576 $584 forward @7 unknown #
point $-1 -1 $-1 440 -440 3 #
cur-twe-attrib $-1 -1 $-1 $-1 $408 76 #
coedge $-1 -1 $-1 $571 $417 $410 $420 reversed $528 $-1 #
convexity-sys-attrib $-1 -1 $585 $411 $275 #
cur-twe-attrib $-1 -1 $-1 $-1 $412 78 #
edge_name-twe-attrib $-1 -1 $-1 $413 $170 3 8448 #
attrib_edge_convexity-kcp-attrib $-1 -1 $586 $-1 $414 1 #
vertex $-1 -1 $-1 $414 $587 #
straight-curve $588 -1 $-1 0 -440 3 0 0 -1 I I #
coedge $-1 -1 $-1 $417 $571 $575 $537 forward $528 $-1 #
loop $589 -1 $-1 $-1 $417 $563 #
attrib_edge_convexity-kcp-attrib $-1 -1 $590 $-1 $418 1 #
straight-curve $591 -1 $-1 440 0 3 1 0 0 I I #
edge_name-twe-attrib $-1 -1 $-1 $419 $172 7 8448 #
model_id-kcp-attrib $-1 -1 $592 $-1 $420 1 1021384711 1021384711 1486094337 16 #
vertex $-1 -1 $-1 $420 $593 #
straight-curve $594 -1 $-1 0 0 3 0 0 -1 I I #
edge_name-twe-attrib $-1 -1 $-1 $423 $173 4 8448 #
convexity-sys-attrib $-1 -1 $595 $425 $285 #
edge $596 -1 $-1 $597 -32 $426 0 $527 $598 forward @7 unknown #
point $-1 -1 $-1 440 0 3 #
cur-twe-attrib $-1 -1 $-1 $-1 $427 88 #
straight-curve $-1 -1 $-1 220 0 -17.5 0 -1 0 I I #
straight-curve $-1 -1 $-1 0 220 -17.5 1 0 0 I I #
point $-1 -1 $-1 220 220 -17.5 #
point $-1 -1 $-1 -220 220 -17.5 #
straight-curve $-1 -1 $-1 -220 0 -17.5 0 1 0 I I #
straight-curve $-1 -1 $-1 -220 220 0 0 0 -1 I I #
point $-1 -1 $-1 -220 -220 -17.5 #
straight-curve $-1 -1 $-1 -220 0 -17.5 0 1 0 I I #
point $-1 -1 $-1 -220 220 -17.5 #
straight-curve $-1 -1 $-1 -220 0 -17.5 0 1 0 I I #
point $-1 -1 $-1 -220 216.99999999999991 -17.499999999999972 #
point $-1 -1 $-1 -220 -220 -17.5 #
straight-curve $-1 -1 $-1 0 -220 -17.5 -1 0 0 I I #
straight-curve $-1 -1 $-1 0 -220 -17.5 -1 0 0 I I #
point $-1 -1 $-1 -220 -220 -17.5 #
point $-1 -1 $-1 220 -220 -17.5 #
straight-curve $-1 -1 $-1 220 0 -17.5 0 -1 0 I I #
straight-curve $-1 -1 $-1 220 0 -17.5 0 -1 0 I I #
point $-1 -1 $-1 220.00000000000011 216.99999999999991 -17.499999999999972 #
point $-1 -1 $-1 220 -220 -17.5 #
straight-curve $-1 -1 $-1 220 -220 0 0 0 -1 I I #
face_name-twe-attrib $-1 -1 $-1 $500 $397 8 #
model_id-kcp-attrib $-1 -1 $599 $-1 $501 1 1021384711 1021384711 1486094337 10 #
face $600 -1 $-1 $-1 $528 $10 $-1 $601 forward single #
loop $602 -1 $-1 $-1 $510 $501 #
plane-surface $603 -1 $-1 440 -440 0 1 0 0 0 0 -1 forward_v I I I I #
loop_type-twe-attrib $-1 -1 $-1 $-1 $502 0 #
surf-twe-attrib $-1 -1 $-1 $-1 $503 94 #
coedge $-1 -1 $-1 $507 $506 $604 $605 reversed $266 $-1 #
coedge $-1 -1 $-1 $513 $512 $506 $570 forward $502 $-1 #
edge $606 -1 $-1 $583 -440 $525 0 $569 $607 forward @7 unknown #
coedge $-1 -1 $-1 $527 $520 $507 $572 forward $528 $-1 #
edge $608 -1 $-1 $533 -440 $597 0 $571 $609 forward @7 unknown #
model_id-kcp-attrib $-1 -1 $610 $-1 $509 1 1021384711 1021384711 1486094337 15 #
straight-curve $611 -1 $-1 0 0 35 0 1 0 I I #
coedge $-1 -1 $-1 $604 $510 $527 $537 reversed $564 $-1 #
coedge $-1 -1 $-1 $510 $604 $512 $517 forward $564 $-1 #
attrib_edge_convexity-kcp-attrib $-1 -1 $612 $-1 $511 1 #
straight-curve $613 -1 $-1 440 -440 3 0 -1 0 I I #
convexity-sys-attrib $-1 -1 $614 $514 $405 #
cur-twe-attrib $-1 -1 $-1 $-1 $515 102 #
edge_name-twe-attrib $-1 -1 $-1 $516 $273 5 8448 #
attrib_edge_convexity-kcp-attrib $-1 -1 $615 $-1 $517 1 #
vertex $-1 -1 $-1 $517 $616 #
straight-curve $617 -1 $-1 440 -440 3 0 0 -1 I I #
edge_name-twe-attrib $-1 -1 $-1 $521 $275 9 8448 #
convexity-sys-attrib $-1 -1 $618 $524 $414 #
point $-1 -1 $-1 0 -440 35 #
cur-twe-attrib $-1 -1 $-1 $-1 $526 110 #
loop_type-twe-attrib $-1 -1 $-1 $-1 $528 0 #
convexity-sys-attrib $-1 -1 $619 $529 $418 #
cur-twe-attrib $-1 -1 $-1 $-1 $530 114 #
attrib_edge_convexity-kcp-attrib $-1 -1 $620 $532 $420 1 #
point $-1 -1 $-1 0 0 35 #
cur-twe-attrib $-1 -1 $-1 $-1 $534 115 #
edge_name-twe-attrib $-1 -1 $-1 $536 $285 8 8448 #
model_id-kcp-attrib $-1 -1 $621 $-1 $537 1 1021384711 1021384711 1486094337 12 #
vertex $-1 -1 $-1 $537 $622 #
straight-curve $623 -1 $-1 440 0 3 0 0 -1 I I #
face_name-twe-attrib $-1 -1 $-1 $562 $501 9 #
model_id-kcp-attrib $-1 -1 $624 $-1 $563 1 1021384711 1021384711 1486094337 11 #
plane-surface $625 -1 $-1 440 0 0 0 1 0 0 0 1 forward_v I I I I #
loop_type-twe-attrib $-1 -1 $-1 $-1 $564 0 #
surf-twe-attrib $-1 -1 $-1 $-1 $565 123 #
coedge $-1 -1 $-1 $576 $575 $568 $605 forward $564 $-1 #
edge $626 -1 $-1 $597 -440 $583 0 $604 $627 forward @7 unknown #
model_id-kcp-attrib $-1 -1 $628 $-1 $570 1 1021384711 1021384711 1486094337 14 #
straight-curve $629 -1 $-1 0 -440 35 -1 0 0 I I #
edge_name-twe-attrib $-1 -1 $-1 $-1 $572 19 8704 #
straight-curve $630 -1 $-1 440 0 35 1 0 0 I I #
attrib_edge_convexity-kcp-attrib $-1 -1 $631 $573 $509 1 #
cur-twe-attrib $-1 -1 $-1 $-1 $574 131 #
convexity-sys-attrib $-1 -1 $632 $577 $511 #
cur-twe-attrib $-1 -1 $-1 $-1 $578 133 #
edge_name-twe-attrib $-1 -1 $-1 $579 $405 11 8448 #
convexity-sys-attrib $-1 -1 $633 $582 $517 #
point $-1 -1 $-1 440 -440 35 #
cur-twe-attrib $-1 -1 $-1 $-1 $584 138 #
edge_name-twe-attrib $-1 -1 $-1 $586 $414 13 8704 #
edge_name-twe-attrib $-1 -1 $-1 $590 $418 17 8448 #
convexity-sys-attrib $-1 -1 $634 $592 $420 #
edge_name-twe-attrib $-1 -1 $-1 $596 $537 20 8704 #
point $-1 -1 $-1 440 0 35 #
cur-twe-attrib $-1 -1 $-1 $-1 $598 153 #
face_name-twe-attrib $-1 -1 $-1 $600 $563 10 #
surf-twe-attrib $-1 -1 $-1 $-1 $601 157 #
model_id-kcp-attrib $-1 -1 $635 $-1 $605 1 1021384711 1021384711 1486094337 13 #
straight-curve $636 -1 $-1 440 -440 35 0 -1 0 I I #
attrib_edge_convexity-kcp-attrib $-1 -1 $637 $606 $570 1 #
cur-twe-attrib $-1 -1 $-1 $-1 $607 164 #
cur-twe-attrib $-1 -1 $-1 $-1 $609 166 #
convexity-sys-attrib $-1 -1 $638 $610 $509 #
edge_name-twe-attrib $-1 -1 $-1 $612 $511 14 8448 #
edge_name-twe-attrib $-1 -1 $-1 $615 $517 16 8704 #
edge_name-twe-attrib $-1 -1 $-1 $620 $420 18 8704 #
edge_name-twe-attrib $-1 -1 $-1 $626 $605 15 8704 #
cur-twe-attrib $-1 -1 $-1 $-1 $627 191 #
convexity-sys-attrib $-1 -1 $639 $628 $570 #
edge_name-twe-attrib $-1 -1 $-1 $631 $509 10 8704 #
edge_name-twe-attrib $-1 -1 $-1 $637 $570 12 8704 #
End-of-ACIS-data 