600 0 2 0           
24 FBMach with ACIS - 6.0.3 13 ACIS 6.0.3 NT 24 Mon Apr 01 00:01:38 2002 
1 9.9999999999999995e-007 1e-010 
body $2 $3 $-1 $4 #
bdycol-kcp $-1 1 4 $5 $6 $7 $8 #
model_id-kcp-attrib $-1 $9 $-1 $0 1 1017637298 50 -701366271 1 #
lump $-1 $-1 $10 $0 #
transform $-1 1 0 0 0 1 0 0 0 1 0 0 0 1 rotate no_reflect no_shear #
body $11 $12 $-1 $13 #
body $14 $15 $-1 $16 #
body $17 $18 $-1 $19 #
body $20 $21 $-1 $22 #
aggregate_advspl_attribute-aggregate_geombuild_base_attribute-aggregate_body_attribute-attrib_HH-attrib $-1 $23 $2 $0 F #
shell $-1 $-1 $-1 $24 $-1 $3 #
model_id-kcp-attrib $-1 $-1 $-1 $5 1 1017637298 50 -701366270 1 #
lump $-1 $-1 $25 $5 #
transform $-1 1 0 0 0 1 0 0 0 1 0 0 40 1 no_rotate no_reflect no_shear #
rgb_color-st-attrib $-1 $26 $-1 $6 0.5 1 1 #
lump $-1 $-1 $27 $6 #
transform $-1 1 0 0 0 1 0 0 0 1 0 0 35 1 no_rotate no_reflect no_shear #
rgb_color-st-attrib $-1 $28 $-1 $7 0.5 1 1 #
lump $-1 $-1 $29 $7 #
transform $-1 1 0 0 0 1 0 0 0 1 0 0 40 1 no_rotate no_reflect no_shear #
rgb_color-st-attrib $-1 $30 $-1 $8 1 0.5 1 #
lump $-1 $-1 $31 $8 #
transform $-1 1 0 0 0 1 0 0 0 1 0 0 40 1 no_rotate no_reflect no_shear #
aggregate_secndry_attribute-aggregate_geombuild_base_attribute-aggregate_body_attribute-attrib_HH-attrib $-1 $32 $9 $0 F #
face $33 $34 $35 $10 $-1 $36 reversed single #
shell $-1 $-1 $-1 $37 $-1 $12 #
model_id-kcp-attrib $-1 $-1 $14 $6 1 1017637298 70 -700055549 1 #
shell $-1 $-1 $-1 $38 $-1 $15 #
model_id-kcp-attrib $-1 $-1 $17 $7 1 1017637298 130 -696123388 1 #
shell $-1 $-1 $-1 $39 $-1 $18 #
model_id-kcp-attrib $-1 $-1 $20 $8 1 1017637298 220 -690225147 1 #
shell $-1 $-1 $-1 $40 $-1 $21 #
aggregate_sharped_attribute-aggregate_geombuild_base_attribute-aggregate_body_attribute-attrib_HH-attrib $-1 $41 $23 $0 F #
model_id-kcp-attrib $-1 $42 $-1 $24 1 1017637298 50 -701366271 2 #
face $43 $44 $45 $10 $-1 $46 reversed single #
loop $-1 $47 $48 $24 #
cone-surface $-1 0 0 0 0 0 1 15 0 0 1 I I 0 1 15 forward I I I I #
face $49 $50 $51 $25 $-1 $52 forward single #
face $-1 $53 $54 $27 $-1 $55 forward single #
face $-1 $56 $57 $29 $-1 $58 reversed single #
face $-1 $59 $60 $31 $-1 $61 forward single #
aggregate_reblend_attribute-aggregate_geombuild_base_attribute-aggregate_body_attribute-attrib_HH-attrib $-1 $62 $32 $0 F #
attrib_hh_face_geombuild-attrib_entity_geombuild-individual_entity_attribute-attrib_HH-attrib $-1 $-1 $33 $24 F #
model_id-kcp-attrib $-1 $63 $-1 $34 1 1017637298 50 -701366271 3 #
face $64 $65 $66 $10 $-1 $67 forward single #
loop $-1 $-1 $68 $34 #
plane-surface $-1 0 0 70 0 0 1 1 0 0 forward_v I I I I #
loop $-1 $-1 $69 $24 #
coedge $70 $48 $48 $71 $72 reversed $35 $-1 #
model_id-kcp-attrib $-1 $-1 $-1 $37 1 1017637298 50 -701366270 3 #
face $73 $74 $75 $25 $-1 $76 reversed single #
loop $-1 $-1 $77 $37 #
plane-surface $-1 0 0 40 0 0 1 1 0 0 forward_v I I I I #
face $-1 $78 $79 $27 $-1 $80 forward single #
loop $-1 $81 $82 $38 #
cone-surface $-1 0 0 0 0 0 1 15 0 0 1 I I 0 1 15 forward I I I I #
face $-1 $83 $84 $29 $-1 $58 reversed single #
loop $-1 $-1 $85 $39 #
cone-surface $-1 -2.2494910827332062e-031 0 -40 0 0 -1 60 0 0 1 I I 0 1 60 forward I I I I #
face $-1 $86 $87 $31 $-1 $88 forward single #
loop $-1 $89 $90 $40 #
cone-surface $-1 0 0 -20 0 0 1 20 0 0 1 I I 0 -1 20 forward I I I I #
aggregate_isospline_attribute-aggregate_geombuild_base_attribute-aggregate_body_attribute-attrib_HH-attrib $-1 $91 $41 $0 F #
attrib_hh_face_geombuild-attrib_entity_geombuild-individual_entity_attribute-attrib_HH-attrib $-1 $-1 $43 $34 F #
model_id-kcp-attrib $-1 $92 $-1 $44 1 1017637298 50 -701366271 4 #
face $93 $94 $95 $10 $-1 $96 forward single #
loop $-1 $97 $98 $44 #
plane-surface $-1 0 0 20 0 0 1 1 0 0 forward_v I I I I #
coedge $99 $68 $68 $69 $100 reversed $45 $-1 #
coedge $101 $69 $69 $68 $100 forward $47 $-1 #
attrib_hh_coedge_geombuild-attrib_entity_geombuild-individual_entity_attribute-attrib_HH-attrib $-1 $-1 $-1 $48 F #
coedge $102 $71 $71 $48 $72 forward $103 $-1 #
edge $104 $105 -3.1415926535897998 $105 3.1415926535897865 $71 $106 forward 7 unknown #
model_id-kcp-attrib $-1 $-1 $-1 $50 1 1017637298 50 -701366270 2 #
face $-1 $107 $108 $25 $-1 $109 reversed single #
loop $-1 $-1 $110 $50 #
plane-surface $-1 0 0 -40 0 0 1 1 0 0 forward_v I I I I #
coedge $-1 $111 $112 $113 $114 forward $51 $-1 #
face $-1 $-1 $115 $27 $-1 $116 forward single #
loop $-1 $-1 $117 $53 #
plane-surface $-1 0 0 -35 0 0 -1 -1 0 0 forward_v I I I I #
loop $-1 $-1 $118 $38 #
coedge $-1 $82 $82 $117 $119 reversed $54 $-1 #
face $-1 $120 $121 $29 $-1 $58 reversed single #
loop $-1 $-1 $122 $56 #
coedge $-1 $123 $124 $125 $126 forward $57 $-1 #
face $-1 $127 $128 $31 $-1 $129 forward single #
loop $-1 $130 $131 $59 #
cone-surface $-1 -2.2494910827332062e-031 0 -20 0 0 1 60 0 0 1 I I 0 1 60 forward I I I I #
loop $-1 $-1 $132 $40 #
coedge $-1 $90 $90 $133 $134 forward $60 $-1 #
aggregate_analytic_solver_attribute-aggregate_geombuild_base_attribute-aggregate_body_attribute-attrib_HH-attrib $-1 $135 $62 $0 F #
attrib_hh_face_geombuild-attrib_entity_geombuild-individual_entity_attribute-attrib_HH-attrib $-1 $-1 $64 $44 F #
model_id-kcp-attrib $-1 $136 $-1 $65 1 1017637298 50 -701366271 5 #
face $137 $138 $139 $10 $-1 $140 forward single #
loop $-1 $141 $142 $65 #
cone-surface $-1 0 0 10 0 0 1 60 0 0 1 I I 0 1 60 forward I I I I #
loop $-1 $-1 $143 $44 #
coedge $144 $98 $98 $145 $146 forward $66 $-1 #
attrib_hh_coedge_geombuild-attrib_entity_geombuild-individual_entity_attribute-attrib_HH-attrib $-1 $-1 $-1 $68 F #
edge $147 $148 0 $148 6.2831853071795862 $68 $149 forward 7 unknown #
attrib_hh_coedge_geombuild-attrib_entity_geombuild-individual_entity_attribute-attrib_HH-attrib $-1 $-1 $-1 $69 F #
attrib_hh_coedge_geombuild-attrib_entity_geombuild-individual_entity_attribute-attrib_HH-attrib $-1 $-1 $-1 $71 F #
loop $-1 $150 $71 $138 #
attrib_edge_convexity-kcp-attrib $-1 $151 $-1 $72 1 #
vertex $152 $72 $153 #
ellipse-curve $-1 0 0 0 0 0 1 15 0 0 1 I I #
face $-1 $154 $155 $25 $-1 $156 reversed single #
loop $-1 $-1 $157 $74 #
plane-surface $-1 0 -60 0 0 1 0 0 0 1 forward_v I I I I #
coedge $-1 $158 $159 $160 $161 forward $75 $-1 #
coedge $-1 $162 $77 $163 $164 forward $51 $-1 #
coedge $-1 $77 $162 $165 $166 forward $51 $-1 #
coedge $-1 $167 $168 $77 $114 reversed $169 $-1 #
edge $-1 $170 -60 $171 60 $113 $172 forward 7 unknown #
loop $-1 $-1 $173 $78 #
plane-surface $-1 0 0 35 0 0 1 1 0 0 forward_v I I I I #
coedge $-1 $117 $117 $82 $119 forward $79 $-1 #
coedge $-1 $118 $118 $173 $174 reversed $81 $-1 #
edge $-1 $175 0 $175 6.2831853071795862 $117 $176 forward 7 unknown #
face $-1 $177 $178 $29 $-1 $58 reversed single #
loop $-1 $-1 $179 $83 #
coedge $-1 $180 $125 $181 $182 reversed $84 $-1 #
coedge $-1 $183 $85 $184 $185 reversed $57 $-1 #
coedge $-1 $85 $183 $186 $187 reversed $57 $-1 #
coedge $-1 $122 $188 $189 $126 reversed $84 $-1 #
edge $-1 $190 -80 $191 0 $189 $192 forward 7 unknown #
face $-1 $-1 $193 $31 $-1 $194 reversed single #
loop $-1 $195 $196 $86 #
plane-surface $-1 -4.5454545454545405 1.9769933796103863e-015 40 0 0 1 1 0 0 forward_v I I I I #
loop $-1 $-1 $197 $59 #
coedge $-1 $131 $131 $196 $198 forward $87 $-1 #
coedge $-1 $132 $132 $199 $200 reversed $89 $-1 #
coedge $-1 $133 $133 $90 $134 reversed $195 $-1 #
edge $-1 $201 -3.1415926535897998 $201 3.1415926535897865 $90 $202 forward 7 unknown #
aggregate_geombuild_attribute-aggregate_geombuild_base_attribute-aggregate_body_attribute-attrib_HH-attrib $-1 $203 $91 $0 #
attrib_hh_face_geombuild-attrib_entity_geombuild-individual_entity_attribute-attrib_HH-attrib $-1 $-1 $93 $65 F #
model_id-kcp-attrib $-1 $204 $-1 $94 1 1017637298 50 -701366271 6 #
face $205 $206 $103 $10 $-1 $207 forward single #
loop $-1 $208 $209 $94 #
cone-surface $-1 0 0 40 0 0 1 20 0 0 1 I I 0 1 20 forward I I I I #
loop $-1 $-1 $145 $65 #
coedge $210 $142 $142 $211 $212 reversed $95 $-1 #
coedge $213 $143 $143 $209 $214 reversed $97 $-1 #
attrib_hh_coedge_geombuild-attrib_entity_geombuild-individual_entity_attribute-attrib_HH-attrib $-1 $-1 $-1 $98 F #
coedge $215 $145 $145 $98 $146 reversed $141 $-1 #
edge $216 $217 0 $217 6.2831853071795862 $98 $218 forward 7 unknown #
attrib_edge_convexity-kcp-attrib $-1 $219 $-1 $100 2 #
vertex $220 $100 $221 #
ellipse-curve $-1 0 0 70 0 0 1 15 0 0 1 I I #
loop $-1 $-1 $211 $138 #
convexity-sys-attrib $-1 $222 $104 $72 #
attrib_hh_vertex_geombuild-attrib_entity_geombuild-individual_entity_attribute-attrib_HH-attrib $-1 $-1 $-1 $105 F #
point $-1 -15 1.04744440165294e-013 0 #
face $-1 $223 $224 $25 $-1 $225 reversed single #
loop $-1 $-1 $226 $107 #
plane-surface $-1 -60 0 0 1 0 0 0 0 -1 forward_v I I I I #
coedge $-1 $227 $165 $228 $229 forward $108 $-1 #
coedge $-1 $230 $110 $227 $231 forward $75 $-1 #
coedge $-1 $110 $230 $232 $233 forward $75 $-1 #
coedge $-1 $168 $167 $110 $161 reversed $169 $-1 #
edge $-1 $234 -60 $235 60 $160 $236 forward 7 unknown #
coedge $-1 $112 $111 $237 $238 forward $51 $-1 #
coedge $-1 $239 $240 $111 $164 reversed $224 $-1 #
edge $-1 $171 -60 $241 60 $163 $242 forward 7 unknown #
coedge $-1 $157 $243 $112 $166 reversed $108 $-1 #
edge $-1 $244 -60 $170 60 $165 $245 forward 7 unknown #
coedge $-1 $160 $113 $243 $246 forward $169 $-1 #
coedge $-1 $113 $160 $239 $247 reversed $169 $-1 #
loop $-1 $-1 $167 $223 #
vertex $-1 $114 $248 #
vertex $-1 $114 $249 #
straight-curve $-1 60 0 40 0 1 0 I I #
coedge $-1 $173 $173 $118 $174 forward $115 $-1 #
edge $-1 $250 0 $250 6.2831853071795862 $173 $251 forward 7 unknown #
vertex $-1 $119 $252 #
ellipse-curve $-1 0 0 -35 0 0 -1 15 0 0 1 I I #
face $-1 $253 $254 $29 $-1 $255 reversed single #
loop $-1 $-1 $256 $120 #
coedge $-1 $257 $258 $259 $260 reversed $121 $-1 #
coedge $-1 $188 $122 $261 $262 forward $84 $-1 #
coedge $-1 $263 $264 $122 $182 forward $265 $-1 #
edge $-1 $266 -3.1415926535897931 $190 -1.5707963267948966 $181 $267 forward 7 unknown #
coedge $-1 $124 $123 $268 $269 reversed $57 $-1 #
coedge $-1 $270 $271 $123 $185 forward $272 $-1 #
edge $-1 $273 0 $191 1.5707963267948966 $184 $274 forward 7 unknown #
coedge $-1 $275 $276 $124 $187 forward $277 $-1 #
edge $-1 $190 -1.5707963267948966 $278 0 $186 $267 forward 7 unknown #
coedge $-1 $125 $180 $279 $280 reversed $84 $-1 #
coedge $-1 $281 $282 $283 $126 forward $284 $-1 #
vertex $-1 $285 $286 #
vertex $-1 $287 $288 #
straight-curve $-1 -2.2494910827332062e-031 60 -40 0 0 -1 I I #
loop $-1 $289 $290 $127 #
plane-surface $-1 -4.5454545454545405 1.9769933796103863e-015 -20 0 0 1 1 0 0 forward_v I I I I #
loop $-1 $-1 $133 $86 #
coedge $-1 $196 $196 $131 $198 reversed $128 $-1 #
coedge $-1 $197 $197 $290 $291 reversed $130 $-1 #
edge $-1 $292 -3.1415926535897931 $292 3.1415926535897931 $131 $293 forward 7 unknown #
coedge $-1 $199 $199 $132 $200 forward $289 $-1 #
edge $-1 $294 -3.1415926535897998 $294 3.1415926535897865 $132 $295 forward 7 unknown #
vertex $-1 $134 $296 #
ellipse-curve $-1 0 0 40 0 0 1 20 0 0 1 I I #
aggregate_stitch_attribute-aggregate_stitch_base_attribute-aggregate_body_attribute-attrib_HH-attrib $-1 $297 $135 $0 F #
attrib_hh_face_geombuild-attrib_entity_geombuild-individual_entity_attribute-attrib_HH-attrib $-1 $-1 $137 $94 F #
model_id-kcp-attrib $-1 $298 $-1 $138 1 1017637298 50 -701366271 9 #
face $299 $-1 $300 $10 $-1 $301 forward single #
plane-surface $-1 0 0 0 0 0 -1 -1 0 0 forward_v I I I I #
loop $-1 $-1 $302 $94 #
coedge $303 $209 $209 $143 $214 forward $139 $-1 #
attrib_hh_coedge_geombuild-attrib_entity_geombuild-individual_entity_attribute-attrib_HH-attrib $-1 $-1 $-1 $142 F #
coedge $304 $211 $211 $142 $212 forward $150 $-1 #
edge $305 $306 0 $306 6.2831853071795862 $211 $307 forward 7 unknown #
attrib_hh_coedge_geombuild-attrib_entity_geombuild-individual_entity_attribute-attrib_HH-attrib $-1 $-1 $-1 $143 F #
edge $308 $309 -3.1415926535897998 $309 3.1415926535897865 $209 $310 forward 7 unknown #
attrib_hh_coedge_geombuild-attrib_entity_geombuild-individual_entity_attribute-attrib_HH-attrib $-1 $-1 $-1 $145 F #
attrib_hh_edge_geombuild-attrib_entity_geombuild-individual_entity_attribute-attrib_HH-attrib $-1 $-1 $-1 $146 F #
vertex $311 $146 $312 #
ellipse-curve $-1 0 0 20 0 0 1 60 0 0 1 I I #
convexity-sys-attrib $-1 $313 $147 $100 #
attrib_hh_vertex_geombuild-attrib_entity_geombuild-individual_entity_attribute-attrib_HH-attrib $-1 $-1 $-1 $148 F #
point $-1 15 0 70 #
attrib_hh_edge_geombuild-attrib_entity_geombuild-individual_entity_attribute-attrib_HH-attrib $-1 $-1 $151 $72 F #
face $-1 $-1 $169 $25 $-1 $314 reversed single #
loop $-1 $-1 $239 $154 #
plane-surface $-1 0 60 0 0 -1 0 0 0 -1 forward_v I I I I #
coedge $-1 $315 $237 $240 $316 forward $155 $-1 #
coedge $-1 $243 $157 $158 $231 reversed $108 $-1 #
coedge $-1 $237 $315 $157 $229 reversed $155 $-1 #
edge $-1 $244 -40 $317 40 $228 $318 forward 7 unknown #
coedge $-1 $159 $158 $315 $319 forward $75 $-1 #
edge $-1 $235 -60 $317 60 $227 $320 forward 7 unknown #
coedge $-1 $240 $239 $159 $233 reversed $224 $-1 #
edge $-1 $321 -60 $234 60 $232 $322 forward 7 unknown #
vertex $-1 $161 $323 #
vertex $-1 $246 $324 #
straight-curve $-1 60 0 -40 0 -1 0 I I #
coedge $-1 $226 $228 $162 $238 reversed $155 $-1 #
edge $-1 $241 -60 $244 60 $237 $325 forward 7 unknown #
coedge $-1 $232 $163 $168 $247 forward $224 $-1 #
coedge $-1 $163 $232 $226 $316 reversed $224 $-1 #
vertex $-1 $164 $326 #
straight-curve $-1 0 60 40 -1 0 0 I I #
coedge $-1 $165 $227 $167 $246 reversed $108 $-1 #
vertex $-1 $238 $327 #
straight-curve $-1 0 -60 40 1 0 0 I I #
edge $-1 $170 -40 $235 40 $167 $328 forward 7 unknown #
edge $-1 $171 -40 $234 40 $168 $329 forward 7 unknown #
point $-1 60 -60 40 #
point $-1 60 60 40 #
vertex $-1 $174 $330 #
ellipse-curve $-1 0 0 35 0 0 1 15 0 0 1 I I #
point $-1 15 0 -35 #
face $-1 $331 $284 $29 $-1 $332 reversed single #
loop $-1 $-1 $268 $177 #
plane-surface $-1 60 0 0 -1 0 0 0 0 1 forward_v I I I I #
coedge $-1 $261 $333 $334 $335 reversed $178 $-1 #
coedge $-1 $336 $179 $337 $338 reversed $121 $-1 #
coedge $-1 $179 $336 $183 $269 forward $121 $-1 #
coedge $-1 $339 $340 $179 $260 forward $341 $-1 #
edge $-1 $342 -1.5707963267948966 $273 0 $259 $274 forward 7 unknown #
coedge $-1 $343 $256 $344 $262 reversed $178 $-1 #
edge $-1 $266 -80 $345 0 $344 $346 forward 7 unknown #
coedge $-1 $264 $181 $282 $285 forward $265 $-1 #
coedge $-1 $181 $263 $347 $348 forward $265 $-1 #
loop $-1 $-1 $181 $349 #
vertex $-1 $350 $351 #
ellipse-curve $-1 -2.2494910827332062e-031 0 40 0 0 -1 60 0 0 1 I I #
coedge $-1 $352 $353 $354 $269 forward $254 $-1 #
edge $-1 $278 -80 $273 0 $268 $355 forward 7 unknown #
coedge $-1 $271 $184 $356 $287 forward $272 $-1 #
coedge $-1 $184 $270 $352 $357 forward $272 $-1 #
loop $-1 $-1 $184 $358 #
vertex $-1 $359 $360 #
ellipse-curve $-1 -2.2494910827332062e-031 0 -40 0 0 1 60 0 0 1 I I #
coedge $-1 $276 $186 $353 $361 forward $277 $-1 #
coedge $-1 $186 $275 $362 $363 forward $277 $-1 #
loop $-1 $-1 $186 $364 #
vertex $-1 $361 $365 #
coedge $-1 $366 $367 $188 $280 forward $368 $-1 #
edge $-1 $191 1.5707963267948966 $345 3.1415926535897931 $279 $274 forward 7 unknown #
coedge $-1 $369 $189 $367 $370 reversed $284 $-1 #
coedge $-1 $189 $369 $263 $285 reversed $284 $-1 #
coedge $-1 $362 $356 $85 $126 reversed $371 $-1 #
loop $-1 $-1 $189 $253 #
edge $-1 $190 2.2494910827332062e-031 $372 60 $282 $373 forward 7 unknown #
point $-1 -2.2494910827332062e-031 60 40 #
edge $-1 $191 -2.2494910827332062e-031 $374 60 $356 $375 forward 7 unknown #
point $-1 -2.2494910827332062e-031 60 -40 #
loop $-1 $-1 $199 $127 #
coedge $-1 $290 $290 $197 $291 forward $193 $-1 #
edge $376 $377 -3.1415926535897931 $377 3.1415926535897931 $197 $378 forward 7 unknown #
vertex $-1 $198 $379 #
ellipse-curve $-1 -2.2494910827332062e-031 0 40 0 0 -1 60 0 0 1 I I #
vertex $-1 $200 $380 #
ellipse-curve $-1 0 0 -20 0 0 1 20 0 0 1 I I #
point $-1 -20 1.3965925355372501e-013 40 #
aggregate_simgeom_attribute-aggregate_simgeom_base_attribute-aggregate_body_attribute-attrib_HH-attrib $-1 $-1 $203 $0 F #
model_id-kcp-attrib $-1 $381 $205 $138 1 1017637298 50 -701366271 7 #
model_id-kcp-attrib $-1 $382 $-1 $206 1 1017637298 50 -701366271 8 #
loop $-1 $-1 $383 $206 #
plane-surface $-1 0 0 80 0 0 1 1 0 0 forward_v I I I I #
coedge $384 $302 $302 $383 $385 reversed $208 $-1 #
attrib_hh_coedge_geombuild-attrib_entity_geombuild-individual_entity_attribute-attrib_HH-attrib $-1 $-1 $-1 $209 F #
attrib_hh_coedge_geombuild-attrib_entity_geombuild-individual_entity_attribute-attrib_HH-attrib $-1 $-1 $-1 $211 F #
attrib_edge_convexity-kcp-attrib $-1 $386 $-1 $212 1 #
vertex $387 $212 $388 #
ellipse-curve $-1 0 0 0 0 0 -1 60 0 0 1 I I #
attrib_hh_edge_geombuild-attrib_entity_geombuild-individual_entity_attribute-attrib_HH-attrib $-1 $-1 $-1 $214 F #
vertex $389 $214 $390 #
ellipse-curve $-1 0 0 20 0 0 1 20 0 0 1 I I #
attrib_hh_vertex_geombuild-attrib_entity_geombuild-individual_entity_attribute-attrib_HH-attrib $-1 $-1 $-1 $217 F #
point $-1 60 0 20 #
attrib_hh_edge_geombuild-attrib_entity_geombuild-individual_entity_attribute-attrib_HH-attrib $-1 $-1 $219 $100 F #
plane-surface $-1 60 0 0 -1 0 0 0 0 1 forward_v I I I I #
coedge $-1 $228 $226 $230 $319 reversed $155 $-1 #
edge $-1 $241 -40 $321 40 $240 $391 forward 7 unknown #
vertex $-1 $319 $392 #
straight-curve $-1 -60 -60 0 0 0 -1 I I #
edge $-1 $317 -60 $321 60 $315 $393 forward 7 unknown #
straight-curve $-1 0 -60 -40 -1 0 0 I I #
vertex $-1 $233 $394 #
straight-curve $-1 0 60 -40 1 0 0 I I #
point $-1 60 60 -40 #
point $-1 60 -60 -40 #
straight-curve $-1 -60 0 40 0 -1 0 I I #
point $-1 -60 60 40 #
point $-1 -60 -60 40 #
straight-curve $-1 60 -60 0 0 0 -1 I I #
straight-curve $-1 60 60 0 0 0 -1 I I #
point $-1 15 0 35 #
face $-1 $395 $396 $29 $-1 $397 reversed single #
plane-surface $-1 0 60 0 0 -1 0 0 0 -1 forward_v I I I I #
coedge $-1 $256 $343 $257 $338 forward $178 $-1 #
coedge $-1 $398 $399 $256 $335 forward $400 $-1 #
edge $-1 $345 -3.1415926535897931 $342 -1.5707963267948966 $334 $274 forward 7 unknown #
coedge $-1 $258 $257 $401 $402 reversed $121 $-1 #
coedge $-1 $403 $404 $405 $338 forward $406 $-1 #
edge $-1 $407 -80 $342 0 $337 $408 forward 7 unknown #
coedge $-1 $340 $259 $409 $359 forward $341 $-1 #
coedge $-1 $259 $339 $403 $410 forward $341 $-1 #
loop $-1 $-1 $259 $411 #
vertex $-1 $412 $413 #
coedge $-1 $333 $261 $414 $415 reversed $178 $-1 #
coedge $-1 $416 $417 $418 $262 forward $396 $-1 #
vertex $-1 $419 $420 #
straight-curve $-1 -60 0 -40 0 0 -1 I I #
coedge $-1 $421 $418 $264 $348 reversed $422 $-1 #
edge $-1 $372 -60 $266 0 $347 $423 forward 7 unknown #
face $-1 $364 $265 $29 $-1 $424 forward single #
edge $-1 $266 0 $425 60 $417 $423 forward 7 unknown #
point $-1 -60 0 40 #
coedge $-1 $426 $268 $271 $357 reversed $254 $-1 #
coedge $-1 $268 $426 $275 $361 reversed $254 $-1 #
coedge $-1 $427 $409 $258 $269 reversed $428 $-1 #
straight-curve $-1 60 0 -40 0 0 -1 I I #
coedge $-1 $283 $429 $270 $287 reversed $371 $-1 #
edge $-1 $374 -60 $273 0 $352 $430 forward 7 unknown #
face $-1 $431 $272 $29 $-1 $432 reversed single #
edge $-1 $273 0 $433 60 $409 $430 forward 7 unknown #
point $-1 60 0 -40 #
edge $-1 $278 0 $434 60 $353 $435 forward 7 unknown #
coedge $-1 $429 $283 $276 $363 reversed $371 $-1 #
edge $-1 $434 -60 $190 2.2494910827332062e-031 $362 $373 forward 7 unknown #
face $-1 $436 $277 $29 $-1 $424 forward single #
point $-1 60 0 40 #
coedge $-1 $367 $279 $437 $419 forward $368 $-1 #
coedge $-1 $279 $366 $281 $370 forward $368 $-1 #
loop $-1 $-1 $279 $431 #
coedge $-1 $282 $281 $421 $438 reversed $284 $-1 #
edge $-1 $439 -60 $191 -2.2494910827332062e-031 $281 $375 forward 7 unknown #
loop $-1 $-1 $283 $440 #
vertex $-1 $285 $441 #
straight-curve $-1 0 60 40 -1 0 0 I I #
vertex $-1 $357 $442 #
straight-curve $-1 0 60 -40 1 0 0 I I #
convexity-sys-attrib $-1 $-1 $-1 $291 #
vertex $-1 $291 $443 #
ellipse-curve $-1 -2.2494910827332062e-031 0 -20 0 0 -1 60 0 0 1 I I #
point $-1 -60 7.3476381229342635e-015 40 #
point $-1 -20 1.3965925355372501e-013 -20 #
attrib_hh_face_geombuild-attrib_entity_geombuild-individual_entity_attribute-attrib_HH-attrib $-1 $-1 $298 $138 F #
attrib_hh_face_geombuild-attrib_entity_geombuild-individual_entity_attribute-attrib_HH-attrib $-1 $-1 $299 $206 F #
coedge $444 $383 $383 $302 $385 forward $300 $-1 #
attrib_hh_coedge_geombuild-attrib_entity_geombuild-individual_entity_attribute-attrib_HH-attrib $-1 $-1 $-1 $302 F #
edge $445 $446 0 $446 6.2831853071795862 $383 $447 forward 7 unknown #
convexity-sys-attrib $-1 $448 $305 $212 #
attrib_hh_vertex_geombuild-attrib_entity_geombuild-individual_entity_attribute-attrib_HH-attrib $-1 $-1 $-1 $306 F #
point $-1 60 0 0 #
attrib_hh_vertex_geombuild-attrib_entity_geombuild-individual_entity_attribute-attrib_HH-attrib $-1 $-1 $-1 $309 F #
point $-1 -20 1.3965925355372501e-013 20 #
straight-curve $-1 -60 60 0 0 0 -1 I I #
point $-1 -60 -60 -40 #
straight-curve $-1 -60 0 -40 0 1 0 I I #
point $-1 -60 60 -40 #
face $-1 $349 $449 $29 $-1 $424 forward single #
loop $-1 $-1 $344 $331 #
plane-surface $-1 -60 0 0 1 0 0 0 0 -1 forward_v I I I I #
coedge $-1 $399 $334 $450 $412 forward $400 $-1 #
coedge $-1 $334 $398 $416 $451 forward $400 $-1 #
loop $-1 $-1 $334 $452 #
coedge $-1 $453 $454 $336 $402 forward $455 $-1 #
edge $-1 $278 0 $407 1.5707963267948966 $401 $267 forward 7 unknown #
coedge $-1 $456 $337 $340 $410 reversed $406 $-1 #
coedge $-1 $337 $456 $453 $457 reversed $406 $-1 #
coedge $-1 $458 $450 $333 $338 reversed $459 $-1 #
loop $-1 $-1 $337 $460 #
vertex $-1 $457 $461 #
straight-curve $-1 -2.2494910827332062e-031 -60 -40 0 0 -1 I I #
coedge $-1 $354 $462 $339 $359 reversed $428 $-1 #
edge $-1 $433 -60 $342 2.2494910827332062e-031 $403 $463 forward 7 unknown #
face $-1 $358 $341 $29 $-1 $432 reversed single #
edge $-1 $342 2.2494910827332062e-031 $464 60 $450 $463 forward 7 unknown #
point $-1 -2.2494910827332062e-031 -60 -40 #
coedge $-1 $465 $466 $343 $415 forward $449 $-1 #
edge $-1 $407 1.5707963267948966 $266 3.1415926535897931 $414 $267 forward 7 unknown #
coedge $-1 $467 $344 $399 $451 reversed $396 $-1 #
coedge $-1 $344 $467 $465 $350 reversed $396 $-1 #
coedge $-1 $347 $437 $180 $262 reversed $422 $-1 #
edge $-1 $345 0 $439 60 $437 $468 forward 7 unknown #
point $-1 -60 0 -40 #
coedge $-1 $437 $347 $369 $438 forward $422 $-1 #
loop $-1 $-1 $418 $469 #
straight-curve $-1 -60 0 40 0 -1 0 I I #
plane-surface $-1 0 0 40 0 0 1 1 0 0 forward_v I I I I #
vertex $-1 $350 $470 #
coedge $-1 $353 $352 $429 $471 reversed $254 $-1 #
coedge $-1 $462 $354 $454 $472 reversed $428 $-1 #
loop $-1 $-1 $354 $473 #
coedge $-1 $356 $362 $426 $471 forward $371 $-1 #
straight-curve $-1 60 0 -40 0 -1 0 I I #
face $-1 $474 $368 $29 $-1 $432 reversed single #
plane-surface $-1 0 0 -40 0 0 1 1 0 0 forward_v I I I I #
vertex $-1 $475 $476 #
vertex $-1 $361 $477 #
straight-curve $-1 60 0 40 0 1 0 I I #
face $-1 $460 $455 $29 $-1 $424 forward single #
coedge $-1 $418 $421 $366 $419 reversed $422 $-1 #
edge $-1 $372 -40 $439 40 $369 $478 forward 7 unknown #
vertex $-1 $370 $479 #
face $-1 $473 $371 $29 $-1 $332 reversed single #
point $-1 -60 60 40 #
point $-1 60 60 -40 #
point $-1 -60 7.3476381229342635e-015 -20 #
attrib_hh_coedge_geombuild-attrib_entity_geombuild-individual_entity_attribute-attrib_HH-attrib $-1 $-1 $-1 $383 F #
attrib_hh_edge_geombuild-attrib_entity_geombuild-individual_entity_attribute-attrib_HH-attrib $-1 $-1 $-1 $385 F #
vertex $480 $385 $481 #
ellipse-curve $-1 0 0 80 0 0 1 20 0 0 1 I I #
attrib_hh_edge_geombuild-attrib_entity_geombuild-individual_entity_attribute-attrib_HH-attrib $-1 $-1 $386 $212 F #
loop $-1 $-1 $414 $395 #
coedge $-1 $405 $482 $398 $412 reversed $459 $-1 #
edge $-1 $464 -60 $345 0 $416 $468 forward 7 unknown #
face $-1 $411 $400 $29 $-1 $432 reversed single #
coedge $-1 $454 $401 $404 $457 forward $455 $-1 #
coedge $-1 $401 $453 $427 $472 forward $455 $-1 #
loop $-1 $-1 $401 $436 #
coedge $-1 $404 $403 $462 $475 reversed $406 $-1 #
edge $-1 $407 -2.2494910827332062e-031 $483 60 $404 $484 forward 7 unknown #
coedge $-1 $482 $405 $466 $485 reversed $459 $-1 #
loop $-1 $-1 $405 $474 #
face $-1 $452 $406 $29 $-1 $486 reversed single #
point $-1 -2.2494910827332062e-031 -60 40 #
coedge $-1 $409 $427 $456 $475 forward $428 $-1 #
straight-curve $-1 0 -60 -40 -1 0 0 I I #
vertex $-1 $451 $487 #
coedge $-1 $466 $414 $417 $350 forward $449 $-1 #
coedge $-1 $414 $465 $458 $485 forward $449 $-1 #
coedge $-1 $417 $416 $482 $488 reversed $396 $-1 #
straight-curve $-1 -60 0 -40 0 1 0 I I #
face $-1 $440 $422 $29 $-1 $397 reversed single #
point $-1 -60 -60 40 #
edge $-1 $434 -40 $374 40 $426 $489 forward 7 unknown #
edge $-1 $483 -60 $278 0 $427 $435 forward 7 unknown #
face $-1 $-1 $428 $29 $-1 $255 reversed single #
face $-1 $469 $459 $29 $-1 $486 reversed single #
edge $-1 $483 -40 $433 40 $462 $490 forward 7 unknown #
point $-1 60 -60 -40 #
point $-1 60 60 40 #
straight-curve $-1 -60 60 0 0 0 -1 I I #
point $-1 -60 60 -40 #
attrib_hh_vertex_geombuild-attrib_entity_geombuild-individual_entity_attribute-attrib_HH-attrib $-1 $-1 $-1 $446 F #
point $-1 20 0 80 #
coedge $-1 $450 $458 $467 $488 forward $459 $-1 #
vertex $-1 $472 $491 #
straight-curve $-1 0 -60 40 1 0 0 I I #
edge $-1 $425 -60 $407 -2.2494910827332062e-031 $458 $484 forward 7 unknown #
plane-surface $-1 0 -60 0 0 1 0 0 0 1 forward_v I I I I #
point $-1 -60 -60 -40 #
edge $-1 $425 -40 $464 40 $467 $492 forward 7 unknown #
straight-curve $-1 60 60 0 0 0 -1 I I #
straight-curve $-1 60 -60 0 0 0 -1 I I #
point $-1 60 -60 40 #
straight-curve $-1 -60 -60 0 0 0 -1 I I #
End-of-ACIS-data 