105 66 1 0                              
body $-1 $1 $-1 $2 #
lump $-1 $-1 $3 $0 #
transform $-1 1 0 0 0 1 0 0 0 1 0 0 40 1 0 0 0 #
shell $-1 $-1 $-1 $4 $1 #
face $-1 $5 $6 $3 $-1 $7 reversed single #
face $-1 $8 $9 $3 $-1 $10 reversed single #
loop $-1 $11 $12 $4 #
cone-surface $-1 0 0 -40 0 0 1 15 0 0 1 0 1 0 #
face $-1 $13 $14 $3 $-1 $15 forward single #
loop $-1 $-1 $16 $5 #
plane-surface $-1 0 0 30 0 0 1 1 0 0 0 #
loop $-1 $-1 $17 $4 #
coedge $-1 $12 $12 $18 $19 1 $6 $-1 #
face $-1 $20 $21 $3 $-1 $22 forward single #
loop $-1 $23 $24 $8 #
plane-surface $-1 0 0 -20 0 0 1 1 0 0 0 #
coedge $-1 $16 $16 $17 $25 1 $9 $-1 #
coedge $-1 $17 $17 $16 $25 0 $11 $-1 #
coedge $-1 $18 $18 $12 $19 0 $26 $-1 #
edge $-1 $27 $27 $18 $28 0 #
face $-1 $29 $30 $3 $-1 $31 forward single #
loop $-1 $32 $33 $13 #
cone-surface $-1 0 0 -30 0 0 1 60 0 0 1 0 1 0 #
loop $-1 $-1 $34 $8 #
coedge $-1 $24 $24 $35 $36 0 $14 $-1 #
edge $-1 $37 $37 $16 $38 0 #
loop $-1 $39 $18 $29 #
vertex $-1 $19 $40 #
ellipse-curve $-1 0 0 -40 -0 -0 1 15 0 0 1 #
face $-1 $41 $26 $3 $-1 $42 forward single #
loop $-1 $43 $44 $20 #
cone-surface $-1 0 0 0 0 0 1 20 0 0 1 0 1 0 #
loop $-1 $-1 $35 $13 #
coedge $-1 $33 $33 $45 $46 1 $21 $-1 #
coedge $-1 $34 $34 $44 $47 1 $23 $-1 #
coedge $-1 $35 $35 $24 $36 1 $32 $-1 #
edge $-1 $48 $48 $24 $49 0 #
vertex $-1 $25 $50 #
ellipse-curve $-1 0 0 30 0 0 1 15 0 0 1 #
loop $-1 $-1 $45 $29 #
point $-1 -15 1.04744440165294e-13 -40 #
face $-1 $-1 $51 $3 $-1 $52 forward single #
plane-surface $-1 0 0 -40 0 0 -1 -1 0 0 0 #
loop $-1 $-1 $53 $20 #
coedge $-1 $44 $44 $34 $47 0 $30 $-1 #
coedge $-1 $45 $45 $33 $46 0 $39 $-1 #
edge $-1 $54 $54 $45 $55 0 #
edge $-1 $56 $56 $44 $57 0 #
vertex $-1 $36 $58 #
ellipse-curve $-1 0 0 -20 0 0 1 60 0 0 1 #
point $-1 15 0 30 #
loop $-1 $-1 $59 $41 #
plane-surface $-1 0 0 40 0 0 1 1 0 0 0 #
coedge $-1 $53 $53 $59 $60 1 $43 $-1 #
vertex $-1 $46 $61 #
ellipse-curve $-1 0 0 -40 0 0 -1 60 0 0 1 #
vertex $-1 $47 $62 #
ellipse-curve $-1 0 0 -20 0 0 1 20 0 0 1 #
point $-1 60 0 -20 #
coedge $-1 $59 $59 $53 $60 0 $51 $-1 #
edge $-1 $63 $63 $59 $64 0 #
point $-1 60 0 -40 #
point $-1 -20 1.39659253553725e-13 -20 #
vertex $-1 $60 $65 #
ellipse-curve $-1 0 0 40 0 0 1 20 0 0 1 #
point $-1 20 0 40 #
