600 0 1 0           
85 GICL ACIS Healer - Source: /gicl/data5/repository/UMD/assembly1a/assembly1a.sat - 6 0 18 ACIS 6.0.3 Solaris 24 Sun Apr 14 00:34:52 2002 
1 9.999999999999999547e-07 1.000000000000000036e-10 
body $-1 $1 $-1 $-1 #
lump $-1 $-1 $2 $0 #
shell $-1 $-1 $-1 $3 $-1 $1 #
face $-1 $4 $5 $2 $-1 $6 reversed single #
face $-1 $7 $8 $2 $-1 $9 reversed single #
loop $-1 $10 $11 $3 #
cone-surface $-1 0 0 0 0 0 1 15 0 0 1 I I 0 1 15 forward I I I I #
face $-1 $12 $13 $2 $-1 $14 forward single #
loop $-1 $-1 $15 $4 #
plane-surface $-1 0 0 70 0 0 1 1 0 0 forward_v I I I I #
loop $-1 $-1 $16 $3 #
coedge $-1 $11 $11 $17 $18 reversed $5 $-1 #
face $-1 $19 $20 $2 $-1 $21 forward single #
loop $-1 $22 $23 $7 #
plane-surface $-1 0 0 20 0 0 1 1 0 0 forward_v I I I I #
coedge $-1 $15 $15 $16 $24 reversed $8 $-1 #
coedge $-1 $16 $16 $15 $24 forward $10 $-1 #
coedge $-1 $17 $17 $11 $18 forward $25 $-1 #
edge $-1 $26 -3.141592653589799777 $26 3.141592653589786455 $17 $27 forward 7 unknown #
face $-1 $28 $29 $2 $-1 $30 forward single #
loop $-1 $31 $32 $12 #
cone-surface $-1 0 0 10 0 0 1 60 0 0 1 I I 0 1 60 forward I I I I #
loop $-1 $-1 $33 $7 #
coedge $-1 $23 $23 $34 $35 forward $13 $-1 #
edge $-1 $36 0 $36 6.283185307179586232 $15 $37 forward 7 unknown #
loop $-1 $38 $17 $28 #
vertex $-1 $18 $39 #
ellipse-curve $-1 0 0 0 0 0 1 15 0 0 1 I I #
face $-1 $40 $25 $2 $-1 $41 forward single #
loop $-1 $42 $43 $19 #
cone-surface $-1 0 0 40 0 0 1 20 0 0 1 I I 0 1 20 forward I I I I #
loop $-1 $-1 $34 $12 #
coedge $-1 $32 $32 $44 $45 reversed $20 $-1 #
coedge $-1 $33 $33 $43 $46 reversed $22 $-1 #
coedge $-1 $34 $34 $23 $35 reversed $31 $-1 #
edge $-1 $47 0 $47 6.283185307179586232 $23 $48 forward 7 unknown #
vertex $-1 $24 $49 #
ellipse-curve $-1 0 0 70 0 0 1 15 0 0 1 I I #
loop $-1 $-1 $44 $28 #
point $-1 -15 1.047444401652940007e-13 0 #
face $-1 $-1 $50 $2 $-1 $51 forward single #
plane-surface $-1 0 0 0 0 0 -1 -1 0 0 forward_v I I I I #
loop $-1 $-1 $52 $19 #
coedge $-1 $43 $43 $33 $46 forward $29 $-1 #
coedge $-1 $44 $44 $32 $45 forward $38 $-1 #
edge $-1 $53 0 $53 6.283185307179586232 $44 $54 forward 7 unknown #
edge $-1 $55 -3.141592653589799777 $55 3.141592653589786455 $43 $56 forward 7 unknown #
vertex $-1 $35 $57 #
ellipse-curve $-1 0 0 20 0 0 1 60 0 0 1 I I #
point $-1 15 0 70 #
loop $-1 $-1 $58 $40 #
plane-surface $-1 0 0 80 0 0 1 1 0 0 forward_v I I I I #
coedge $-1 $52 $52 $58 $59 reversed $42 $-1 #
vertex $-1 $45 $60 #
ellipse-curve $-1 0 0 0 0 0 -1 60 0 0 1 I I #
vertex $-1 $46 $61 #
ellipse-curve $-1 0 0 20 0 0 1 20 0 0 1 I I #
point $-1 60 0 20 #
coedge $-1 $58 $58 $52 $59 forward $50 $-1 #
edge $-1 $62 0 $62 6.283185307179586232 $58 $63 forward 7 unknown #
point $-1 60 0 0 #
point $-1 -20 1.39659253553725006e-13 20 #
vertex $-1 $59 $64 #
ellipse-curve $-1 0 0 80 0 0 1 20 0 0 1 I I #
point $-1 20 0 80 #
End-of-ACIS-data 