201 0 1 0           
7 Unknown 11 ACIS 2.1 NT 24 Wed Aug 29 11:39:28 2001 
-1 9.9999999999999995e-007 1e-010 
body $-1 $1 $-1 $2 #
lump $-1 $-1 $3 $0 #
transform $-1 -1 0 0 0 1 0 0 0 -1 12.380600000000001 3.5593000000000004 2.5 1 rotate no_reflect no_shear #
shell $-1 $-1 $-1 $4 $-1 $1 #
face $-1 $5 $6 $3 $-1 $7 reversed single #
face $-1 $8 $9 $3 $-1 $10 reversed single #
loop $-1 $-1 $11 $4 #
cone-surface $-1 8.437400000000002 10 -5 0 0 1 0 -1.9999999992600119 0 1 I I 0 1 forward I I I I #
face $-1 $12 $13 $3 $-1 $14 reversed single #
loop $-1 $-1 $15 $5 #
plane-surface $-1 8.4374000007399896 8.0000000007399876 -5 3.699940352727088e-010 -1 0 0 0 1 forward_v I I I I #
coedge $-1 $16 $17 $18 $19 1 $6 $-1 #
face $-1 $20 $21 $3 $-1 $22 reversed single #
loop $-1 $-1 $23 $8 #
plane-surface $-1 6.437400000000002 8 -5 1 0 0 0 0 -1 forward_v I I I I #
coedge $-1 $24 $25 $26 $27 1 $9 $-1 #
coedge $-1 $28 $11 $29 $30 1 $6 $-1 #
coedge $-1 $11 $28 $24 $31 0 $6 $-1 #
coedge $-1 $26 $32 $11 $19 0 $33 $-1 #
edge $-1 $34 $35 $18 $36 forward #
face $-1 $37 $38 $3 $-1 $39 reversed single #
loop $-1 $-1 $40 $12 #
cone-surface $-1 8.437400000000002 -2 -5 0 0 1 0 -1.9999999992600119 0 1 I I 0 1 forward I I I I #
coedge $-1 $41 $42 $43 $44 1 $13 $-1 #
coedge $-1 $45 $15 $17 $31 1 $9 $-1 #
coedge $-1 $15 $46 $47 $48 1 $9 $-1 #
coedge $-1 $49 $18 $15 $27 0 $33 $-1 #
edge $-1 $35 $50 $26 $51 forward #
coedge $-1 $17 $16 $52 $53 1 $6 $-1 #
coedge $-1 $54 $55 $16 $30 0 $56 $-1 #
edge $-1 $57 $34 $16 $58 forward #
edge $-1 $59 $35 $24 $60 forward #
coedge $-1 $18 $61 $54 $62 0 $33 $-1 #
loop $-1 $63 $49 $64 #
vertex $-1 $19 $65 #
vertex $-1 $19 $66 #
ellipse-curve $-1 8.437400000000002 10 0 0 0 -1 0 -1.9999999992600119 0 1 I I #
face $-1 $67 $68 $3 $-1 $69 reversed single #
loop $-1 $-1 $70 $20 #
plane-surface $-1 8.4374000000925005 -3.9999999992600124 -5 4.6249226670624921e-011 -1 0 0 0 1 forward_v I I I I #
coedge $-1 $71 $72 $73 $74 1 $21 $-1 #
coedge $-1 $75 $23 $46 $76 1 $13 $-1 #
coedge $-1 $23 $75 $77 $78 0 $13 $-1 #
coedge $-1 $79 $80 $23 $44 0 $81 $-1 #
edge $-1 $82 $83 $43 $84 reversed #
coedge $-1 $46 $24 $85 $86 1 $9 $-1 #
coedge $-1 $25 $45 $41 $76 0 $9 $-1 #
coedge $-1 $87 $88 $25 $48 0 $89 $-1 #
edge $-1 $50 $82 $47 $90 forward #
coedge $-1 $61 $26 $88 $91 0 $33 $-1 #
vertex $-1 $91 $92 #
straight-curve $-1 4.3123999996300064 7.9999999992137631 0 -1 -3.699940352727088e-010 0 I I #
coedge $-1 $93 $85 $28 $53 0 $94 $-1 #
edge $-1 $59 $57 $52 $95 forward #
coedge $-1 $96 $29 $32 $62 1 $56 $-1 #
coedge $-1 $29 $96 $93 $97 1 $56 $-1 #
loop $-1 $-1 $54 $98 #
vertex $-1 $53 $99 #
straight-curve $-1 8.4373999999075036 12 -5 0 0 1 I I #
vertex $-1 $53 $100 #
straight-curve $-1 8.4374000007399896 8.0000000007399876 -5 0 0 1 I I #
coedge $-1 $32 $49 $101 $102 0 $33 $-1 #
edge $-1 $103 $34 $32 $104 forward #
loop $-1 $105 $106 $64 #
face $-1 $107 $33 $3 $-1 $108 reversed single #
point $-1 8.4373999999075036 12 0 #
point $-1 8.4374000007399896 8.0000000007399876 0 #
face $-1 $109 $110 $3 $-1 $111 reversed single #
loop $-1 $-1 $112 $37 #
cone-surface $-1 -7.5625999999999998 -2 -5 0 0 1 0 1.9999999992600119 0 1 I I 0 1 forward I I I I #
coedge $-1 $113 $114 $115 $116 1 $38 $-1 #
coedge $-1 $117 $40 $118 $119 1 $21 $-1 #
coedge $-1 $40 $117 $113 $120 0 $21 $-1 #
coedge $-1 $115 $121 $40 $74 0 $105 $-1 #
edge $-1 $122 $123 $73 $124 forward #
coedge $-1 $42 $41 $125 $126 1 $13 $-1 #
edge $-1 $127 $82 $41 $128 forward #
coedge $-1 $129 $130 $42 $78 1 $131 $-1 #
edge $-1 $132 $83 $77 $133 forward #
coedge $-1 $134 $43 $130 $135 1 $81 $-1 #
coedge $-1 $43 $134 $87 $136 1 $81 $-1 #
loop $-1 $-1 $134 $107 #
vertex $-1 $48 $137 #
vertex $-1 $78 $138 #
straight-curve $-1 6.4374000000000002 0 -2.5 0 1 0 I I #
coedge $-1 $52 $125 $45 $86 0 $94 $-1 #
edge $-1 $127 $59 $85 $139 forward #
coedge $-1 $140 $47 $80 $136 0 $89 $-1 #
coedge $-1 $47 $141 $49 $91 1 $89 $-1 #
loop $-1 $-1 $87 $142 #
straight-curve $-1 6.4374000000000002 8 0 0 0 -1 I I #
edge $-1 $50 $143 $49 $144 forward #
point $-1 6.4374000000000002 8 0 #
coedge $-1 $145 $52 $55 $97 0 $94 $-1 #
loop $-1 $146 $52 $147 #
ellipse-curve $-1 8.437400000000002 10 -5 0 0 1 0 -1.9999999992600119 0 1 I I #
coedge $-1 $55 $54 $148 $149 1 $56 $-1 #
edge $-1 $57 $150 $93 $151 forward #
face $-1 $147 $56 $3 $-1 $152 reversed single #
point $-1 8.4373999999075036 12 -5 #
point $-1 8.4374000007399896 8.0000000007399876 -5 #
coedge $-1 $153 $148 $61 $102 1 $154 $-1 #
edge $-1 $143 $103 $61 $155 forward #
vertex $-1 $102 $156 #
straight-curve $-1 -3.6876000002312459 11.999999999439229 0 1 4.6249254426200537e-011 0 I I #
loop $-1 $-1 $121 $64 #
coedge $-1 $157 $158 $159 $160 0 $63 $-1 #
face $-1 $-1 $81 $3 $-1 $161 forward single #
plane-surface $-1 0.43739999999999979 4 0 0 0 -1 -1 0 0 forward_v I I I I #
face $-1 $162 $163 $3 $-1 $164 reversed single #
loop $-1 $-1 $165 $67 #
plane-surface $-1 -7.5626000007399874 -7.3998762672999874e-010 -5 -3.6999381322810377e-010 1 0 0 0 -1 forward_v I I I I #
coedge $-1 $166 $167 $168 $169 1 $68 $-1 #
coedge $-1 $170 $70 $72 $120 1 $38 $-1 #
coedge $-1 $70 $170 $166 $171 0 $38 $-1 #
coedge $-1 $168 $73 $70 $116 0 $105 $-1 #
edge $-1 $123 $172 $115 $173 forward #
coedge $-1 $72 $71 $174 $175 1 $21 $-1 #
coedge $-1 $176 $129 $71 $119 0 $131 $-1 #
edge $-1 $177 $122 $71 $178 forward #
edge $-1 $179 $123 $113 $180 forward #
coedge $-1 $73 $181 $176 $182 0 $105 $-1 #
vertex $-1 $182 $183 #
vertex $-1 $74 $184 #
ellipse-curve $-1 8.437400000000002 -2 0 0 0 -1 0 -1.9999999992600119 0 1 I I #
coedge $-1 $85 $185 $75 $126 0 $94 $-1 #
edge $-1 $132 $127 $125 $186 forward #
vertex $-1 $86 $187 #
straight-curve $-1 6.437400000000002 8 -5 0 0 1 I I #
coedge $-1 $118 $77 $185 $188 1 $131 $-1 #
coedge $-1 $77 $189 $79 $135 0 $131 $-1 #
loop $-1 $-1 $130 $190 #
vertex $-1 $126 $191 #
straight-curve $-1 6.437400000000002 0 -5 0 0 1 I I #
coedge $-1 $80 $79 $192 $193 0 $81 $-1 #
edge $-1 $194 $83 $130 $195 forward #
edge $-1 $82 $196 $87 $197 forward #
point $-1 6.4374000000000002 8 -2.5 #
point $-1 6.4374000000000002 0 -2.5 #
straight-curve $-1 4.3123999996300064 7.9999999992137631 -5 1 3.699940352727088e-010 0 I I #
coedge $-1 $198 $87 $199 $200 1 $89 $-1 #
coedge $-1 $88 $198 $153 $201 0 $89 $-1 #
face $-1 $64 $89 $3 $-1 $202 forward single #
vertex $-1 $91 $203 #
straight-curve $-1 6.4374000000000002 8 0 -1 0 0 I I #
coedge $-1 $204 $93 $205 $206 0 $94 $-1 #
loop $-1 $-1 $207 $147 #
face $-1 $208 $94 $3 $-1 $209 forward single #
coedge $-1 $101 $205 $96 $149 0 $154 $-1 #
edge $-1 $150 $103 $96 $210 forward #
vertex $-1 $206 $211 #
straight-curve $-1 -3.6876000002312459 11.999999999439229 -5 -1 -4.6249254426200537e-011 0 I I #
plane-surface $-1 -7.5626000000924982 11.999999999260012 -5 -4.6249254426200537e-011 1 0 0 0 -1 forward_v I I I I #
coedge $-1 $205 $101 $141 $201 1 $154 $-1 #
loop $-1 $-1 $101 $162 #
ellipse-curve $-1 -7.5625999999999998 10 0 0 0 -1 0 1.9999999992600119 0 1 I I #
point $-1 -7.5626000000924982 11.999999999260012 0 #
coedge $-1 $212 $106 $213 $214 0 $63 $-1 #
coedge $-1 $106 $212 $215 $216 0 $63 $-1 #
coedge $-1 $217 $218 $106 $160 1 $219 $-1 #
edge $-1 $220 $221 $159 $222 forward #
plane-surface $-1 6.4374000000000002 8 -2.5 0 0 -1 -1 0 0 forward_v I I I I #
face $-1 $98 $154 $3 $-1 $223 reversed single #
loop $-1 $-1 $192 $109 #
plane-surface $-1 -5.5625999999999998 0 -5 -1 0 0 0 0 1 forward_v I I I I #
coedge $-1 $224 $225 $181 $226 1 $110 $-1 #
coedge $-1 $227 $112 $114 $171 1 $68 $-1 #
coedge $-1 $112 $227 $224 $228 0 $68 $-1 #
coedge $-1 $181 $115 $112 $169 0 $105 $-1 #
edge $-1 $172 $229 $168 $230 forward #
coedge $-1 $114 $113 $231 $232 1 $38 $-1 #
edge $-1 $233 $172 $166 $234 forward #
vertex $-1 $116 $235 #
straight-curve $-1 4.3124000002312464 -3.9999999994507904 0 -1 -4.6249226670624921e-011 0 I I #
coedge $-1 $185 $231 $117 $175 0 $94 $-1 #
edge $-1 $179 $177 $174 $236 forward #
coedge $-1 $189 $118 $121 $182 1 $131 $-1 #
vertex $-1 $188 $237 #
straight-curve $-1 8.437400000000002 0 -5 0 0 1 I I #
vertex $-1 $175 $238 #
straight-curve $-1 8.4374000000925005 -3.9999999992600124 -5 0 0 1 I I #
coedge $-1 $121 $168 $165 $226 0 $105 $-1 #
edge $-1 $239 $122 $121 $240 forward #
point $-1 8.437400000000002 0 0 #
point $-1 8.4374000000925005 -3.9999999992600124 0 #
coedge $-1 $125 $174 $129 $188 0 $94 $-1 #
straight-curve $-1 6.4374000000000011 6 -5 0 1 0 I I #
point $-1 6.437400000000002 8 -5 #
edge $-1 $177 $132 $185 $241 forward #
coedge $-1 $130 $176 $225 $242 0 $131 $-1 #
face $-1 $142 $131 $3 $-1 $243 forward single #
point $-1 6.437400000000002 0 -5 #
coedge $-1 $244 $199 $134 $193 1 $163 $-1 #
edge $-1 $194 $196 $134 $245 reversed #
vertex $-1 $242 $246 #
straight-curve $-1 -5.5626000000000007 0 -2.5 1 0 0 I I #
vertex $-1 $200 $247 #
straight-curve $-1 6.4374000000000002 8 -2.5 -1 0 0 I I #
coedge $-1 $141 $140 $204 $248 1 $89 $-1 #
coedge $-1 $192 $249 $140 $200 0 $163 $-1 #
edge $-1 $250 $196 $140 $251 forward #
edge $-1 $252 $143 $153 $253 forward #
plane-surface $-1 6.4374000000000002 8 0 0 1 0 0 0 1 forward_v I I I I #
point $-1 -7.5625999999999998 8 0 #
coedge $-1 $254 $145 $198 $248 0 $94 $-1 #
coedge $-1 $148 $153 $145 $206 1 $154 $-1 #
edge $-1 $150 $252 $145 $255 forward #
coedge $-1 $256 $257 $258 $259 0 $146 $-1 #
face $-1 $260 $261 $3 $-1 $262 reversed single #
plane-surface $-1 0.18740000000000023 4 -5 0 0 -1 -1 0 0 forward_v I I I I #
straight-curve $-1 -7.5626000000924982 11.999999999260012 -5 0 0 1 I I #
point $-1 -7.5626000000924982 11.999999999260012 -5 #
coedge $-1 $158 $157 $263 $264 0 $63 $-1 #
coedge $-1 $265 $266 $157 $214 1 $261 $-1 #
edge $-1 $221 $267 $213 $268 forward #
coedge $-1 $269 $270 $158 $216 1 $271 $-1 #
edge $-1 $272 $220 $215 $273 forward #
coedge $-1 $258 $159 $270 $274 1 $219 $-1 #
coedge $-1 $159 $258 $265 $275 0 $219 $-1 #
loop $-1 $-1 $218 $276 #
vertex $-1 $160 $277 #
vertex $-1 $275 $278 #
straight-curve $-1 -12.3126 4 0 0 -1 0 I I #
cone-surface $-1 -7.5625999999999998 10 -5 0 0 1 0 1.9999999992600119 0 1 I I 0 1 forward I I I I #
coedge $-1 $279 $165 $167 $228 1 $110 $-1 #
coedge $-1 $165 $280 $189 $242 1 $110 $-1 #
edge $-1 $229 $239 $181 $281 forward #
coedge $-1 $167 $166 $282 $283 1 $68 $-1 #
edge $-1 $284 $229 $224 $285 forward #
vertex $-1 $169 $286 #
ellipse-curve $-1 -7.5625999999999998 -2 0 0 0 -1 0 1.9999999992600119 0 1 I I #
coedge $-1 $174 $282 $170 $232 0 $94 $-1 #
edge $-1 $233 $179 $231 $287 forward #
vertex $-1 $232 $288 #
straight-curve $-1 -7.5625999999075013 -4 -5 0 0 1 I I #
point $-1 -7.5625999999075013 -4 0 #
ellipse-curve $-1 8.437400000000002 -2 -5 0 0 1 0 -1.9999999992600119 0 1 I I #
point $-1 8.437400000000002 0 -5 #
point $-1 8.4374000000925005 -3.9999999992600124 -5 #
vertex $-1 $182 $289 #
straight-curve $-1 -5.5626000000000007 0 0 1 0 0 I I #
straight-curve $-1 3.3124000000000002 0 -5 -1 0 0 I I #
edge $-1 $239 $194 $189 $290 forward #
plane-surface $-1 -5.5626000000000007 0 0 0 -1 0 0 0 -1 forward_v I I I I #
coedge $-1 $249 $192 $280 $291 1 $163 $-1 #
straight-curve $-1 -5.5626000000000007 8 -2.5 0 -1 0 I I #
point $-1 -5.5626000000000007 0 -2.5 #
point $-1 -5.5626000000000007 8 -2.5 #
edge $-1 $252 $250 $204 $292 forward #
coedge $-1 $199 $244 $254 $293 1 $163 $-1 #
vertex $-1 $293 $294 #
straight-curve $-1 -5.5625999999999998 8 -5 0 0 1 I I #
vertex $-1 $248 $295 #
straight-curve $-1 -7.5625999999999998 8 -5 0 0 1 I I #
coedge $-1 $296 $204 $249 $293 0 $94 $-1 #
ellipse-curve $-1 -7.5625999999999998 10 -5 0 0 1 0 1.9999999992600119 0 1 I I #
coedge $-1 $297 $207 $298 $299 0 $146 $-1 #
coedge $-1 $207 $297 $300 $301 0 $146 $-1 #
coedge $-1 $218 $217 $207 $259 1 $219 $-1 #
edge $-1 $302 $303 $258 $304 forward #
face $-1 $305 $306 $3 $-1 $307 reversed single #
loop $-1 $-1 $266 $208 #
plane-surface $-1 0.18740000000000023 -6 -2.5 0 1 0 0 0 -1 forward_v I I I I #
coedge $-1 $308 $309 $212 $264 1 $306 $-1 #
edge $-1 $267 $272 $263 $310 forward #
coedge $-1 $300 $213 $218 $275 1 $261 $-1 #
coedge $-1 $213 $300 $308 $311 0 $261 $-1 #
vertex $-1 $264 $312 #
straight-curve $-1 0.18740000000000023 -6 0 1 0 0 I I #
coedge $-1 $298 $215 $309 $313 1 $271 $-1 #
coedge $-1 $215 $298 $217 $274 0 $271 $-1 #
loop $-1 $-1 $270 $305 #
vertex $-1 $216 $314 #
straight-curve $-1 0.18740000000000023 14 0 -1 0 0 I I #
edge $-1 $303 $220 $217 $315 forward #
edge $-1 $302 $221 $218 $316 forward #
face $-1 $190 $219 $3 $-1 $317 reversed single #
point $-1 -12.3126 14 0 #
point $-1 -12.3126 -6 0 #
coedge $-1 $280 $224 $296 $318 1 $110 $-1 #
coedge $-1 $225 $279 $244 $291 0 $110 $-1 #
straight-curve $-1 -3.687599999630006 6.9373840005937382e-010 0 1 3.6999381322810377e-010 0 I I #
coedge $-1 $231 $296 $227 $283 0 $94 $-1 #
edge $-1 $284 $233 $282 $319 forward #
vertex $-1 $283 $320 #
straight-curve $-1 -7.5626000007399874 -7.3998762672999874e-010 -5 0 0 1 I I #
point $-1 -7.5626000007399874 -7.3998762672999874e-010 0 #
straight-curve $-1 4.3124000002312464 -3.9999999994507904 -5 1 4.6249226670624921e-011 0 I I #
point $-1 -7.5625999999075013 -4 -5 #
point $-1 -5.5626000000000007 0 0 #
straight-curve $-1 -5.5626000000000007 0 0 0 0 -1 I I #
edge $-1 $321 $194 $244 $322 forward #
straight-curve $-1 -2.6875999999999998 8 -5 1 0 0 I I #
edge $-1 $250 $321 $254 $323 forward #
point $-1 -5.5625999999999998 8 -5 #
point $-1 -7.5625999999999998 8 -5 #
coedge $-1 $282 $254 $279 $318 0 $94 $-1 #
coedge $-1 $257 $256 $324 $325 0 $146 $-1 #
coedge $-1 $270 $269 $256 $299 1 $271 $-1 #
edge $-1 $303 $326 $298 $327 forward #
coedge $-1 $266 $265 $257 $301 1 $261 $-1 #
edge $-1 $328 $302 $300 $329 forward #
vertex $-1 $259 $330 #
vertex $-1 $259 $331 #
straight-curve $-1 -12.3126 4 -5 0 1 0 I I #
face $-1 $276 $271 $3 $-1 $332 reversed single #
loop $-1 $-1 $309 $260 #
plane-surface $-1 12.6874 4 -2.5 -1 0 0 0 0 1 forward_v I I I I #
coedge $-1 $324 $263 $266 $311 1 $306 $-1 #
coedge $-1 $263 $324 $269 $313 0 $306 $-1 #
straight-curve $-1 12.6874 4 0 0 1 0 I I #
edge $-1 $328 $267 $308 $333 forward #
point $-1 12.6874 -6 0 #
edge $-1 $326 $272 $269 $334 forward #
point $-1 12.6874 14 0 #
straight-curve $-1 -12.3126 14 -2.5 0 0 1 I I #
straight-curve $-1 -12.3126 -6 -2.5 0 0 1 I I #
plane-surface $-1 -12.3126 4 -2.5 1 0 0 0 0 -1 forward_v I I I I #
edge $-1 $321 $284 $296 $335 forward #
ellipse-curve $-1 -7.5625999999999998 -2 -5 0 0 1 0 1.9999999992600119 0 1 I I #
point $-1 -7.5626000007399874 -7.3998762672999874e-010 -5 #
vertex $-1 $318 $336 #
straight-curve $-1 -5.5625999999999998 0 -5 0 0 1 I I #
straight-curve $-1 -5.5625999999999998 2 -5 0 -1 0 I I #
coedge $-1 $309 $308 $297 $325 1 $306 $-1 #
edge $-1 $326 $328 $324 $337 forward #
vertex $-1 $299 $338 #
straight-curve $-1 0.18740000000000023 14 -5 1 0 0 I I #
vertex $-1 $325 $339 #
straight-curve $-1 0.18740000000000023 -6 -5 -1 0 0 I I #
point $-1 -12.3126 -6 -5 #
point $-1 -12.3126 14 -5 #
plane-surface $-1 0.18740000000000023 14 -2.5 0 -1 0 0 0 1 forward_v I I I I #
straight-curve $-1 12.6874 -6 -2.5 0 0 1 I I #
straight-curve $-1 12.6874 14 -2.5 0 0 1 I I #
straight-curve $-1 -3.687599999630006 6.9373840005937382e-010 -5 -1 -3.6999381322810377e-010 0 I I #
point $-1 -5.5625999999999998 0 -5 #
straight-curve $-1 12.6874 4 -5 0 -1 0 I I #
point $-1 12.6874 14 -5 #
point $-1 12.6874 -6 -5 #
End-of-ACIS-data 