700 0 2 0           
24 FBMach with ACIS - 7.0.3 13 ACIS 7.0.3 NT 24 Mon May 13 16:54:19 2002 
1 9.9999999999999995e-007 1e-010 
body $2 -1 $-1 $3 $-1 $4 #
bdycol-kcp $-1 -1 1 2 $5 $6 #
model_id-kcp-attrib $-1 -1 $-1 $-1 $0 1 1021323258 1021323258 444465153 1 #
lump $-1 -1 $-1 $-1 $7 $0 #
transform $-1 -1 1 0 0 0 1 0 0 0 1 0 0 0 1 rotate no_reflect no_shear #
body $8 -1 $-1 $9 $-1 $10 #
body $11 -1 $-1 $12 $-1 $13 #
shell $-1 -1 $-1 $-1 $-1 $14 $-1 $3 #
model_id-kcp-attrib $-1 -1 $-1 $-1 $5 1 1021323258 1021323258 444465154 1 #
lump $-1 -1 $-1 $-1 $15 $5 #
transform $-1 -1 1 0 0 0 1 0 0 0 1 12.193200000000001 7.5593000000000004 5 1 no_rotate no_reflect no_shear #
rgb_color-st-attrib $-1 -1 $16 $-1 $6 0 0 1 #
lump $-1 -1 $-1 $-1 $17 $6 #
transform $-1 -1 1 0 0 0 1 0 0 0 1 12.193200000000001 7.5593000000000004 5 1 no_rotate no_reflect no_shear #
face $18 -1 $-1 $19 $20 $7 $-1 $21 reversed single #
shell $-1 -1 $-1 $-1 $-1 $22 $-1 $9 #
model_id-kcp-attrib $-1 -1 $-1 $11 $6 1 1021323258 1021323258 448004099 1 #
shell $-1 -1 $-1 $-1 $-1 $23 $-1 $12 #
model_id-kcp-attrib $-1 -1 $-1 $-1 $14 1 1021323258 1021323258 444465153 2 #
face $24 -1 $-1 $25 $26 $7 $-1 $27 reversed single #
loop $-1 -1 $-1 $-1 $28 $14 #
cone-surface $-1 -1 $-1 3.9431999999999992 13.5593 7.5 0 0 -1 0 -1.9999999992600119 0 1 I I 0 1 1.9999999992600119 forward I I I I #
face $29 -1 $-1 $30 $31 $15 $-1 $32 forward single #
face $-1 -1 $-1 $33 $34 $17 $-1 $35 forward single #
model_id-kcp-attrib $-1 -1 $-1 $-1 $19 1 1021323258 1021323258 444465153 3 #
face $36 -1 $-1 $37 $38 $7 $-1 $39 reversed single #
loop $-1 -1 $-1 $-1 $40 $19 #
plane-surface $-1 -1 $-1 3.9431999992600115 11.559300000739988 7.5 -3.699940352727088e-010 -1 0 0 0 -1 forward_v I I I I #
coedge $-1 -1 $-1 $41 $42 $43 $44 reversed $20 $-1 #
model_id-kcp-attrib $-1 -1 $-1 $-1 $22 1 1021323258 1021323258 444465154 2 #
face $45 -1 $-1 $46 $47 $15 $-1 $48 reversed single #
loop $-1 -1 $-1 $-1 $49 $22 #
plane-surface $-1 -1 $-1 0 0 2.5 0 0 1 1 0 0 forward_v I I I I #
face $-1 -1 $-1 $50 $51 $17 $-1 $52 forward single #
loop $-1 -1 $-1 $-1 $53 $23 #
plane-surface $-1 -1 $-1 -8.2499999999075033 8 0 4.6249254426200537e-011 1 0 0 0 1 forward_v I I I I #
model_id-kcp-attrib $-1 -1 $-1 $-1 $25 1 1021323258 1021323258 444465153 4 #
face $54 -1 $-1 $55 $56 $7 $-1 $57 reversed single #
loop $-1 -1 $-1 $-1 $58 $25 #
plane-surface $-1 -1 $-1 5.9431999999999992 11.5593 7.5 -1 0 0 0 0 1 forward_v I I I I #
coedge $-1 -1 $-1 $59 $60 $61 $62 reversed $26 $-1 #
coedge $-1 -1 $-1 $63 $28 $64 $65 reversed $20 $-1 #
coedge $-1 -1 $-1 $28 $63 $59 $66 forward $20 $-1 #
coedge $-1 -1 $-1 $61 $67 $28 $44 forward $68 $-1 #
edge $-1 -1 $-1 $69 -3.1415926536360419 $70 -3.6999403554649979e-010 $43 $71 forward @7 unknown #
model_id-kcp-attrib $-1 -1 $-1 $-1 $30 1 1021323258 1021323258 444465154 7 #
face $72 -1 $-1 $73 $74 $15 $-1 $75 reversed single #
loop $-1 -1 $-1 $-1 $76 $30 #
plane-surface $-1 -1 $-1 0 0 -2.5 0 0 1 1 0 0 forward_v I I I I #
coedge $-1 -1 $-1 $77 $78 $79 $80 forward $31 $-1 #
face $-1 -1 $-1 $81 $82 $17 $-1 $83 forward single #
loop $-1 -1 $-1 $-1 $84 $33 #
cone-surface $-1 -1 $-1 7.75 6 0 0 0 1 0 1.9999999992600119 0 1 I I 0 1 1.9999999992600119 forward I I I I #
coedge $-1 -1 $-1 $85 $86 $87 $88 forward $34 $-1 #
model_id-kcp-attrib $-1 -1 $-1 $-1 $37 1 1021323258 1021323258 444465153 5 #
face $89 -1 $-1 $90 $91 $7 $-1 $92 reversed single #
loop $-1 -1 $-1 $-1 $93 $37 #
cone-surface $-1 -1 $-1 3.9431999999999992 1.5593000000000004 7.5 0 0 -1 0 -1.9999999992600119 0 1 I I 0 1 1.9999999992600119 forward I I I I #
coedge $-1 -1 $-1 $94 $95 $96 $97 reversed $38 $-1 #
coedge $-1 -1 $-1 $98 $40 $42 $66 reversed $26 $-1 #
coedge $-1 -1 $-1 $40 $99 $100 $101 reversed $26 $-1 #
coedge $-1 -1 $-1 $102 $43 $40 $62 forward $68 $-1 #
edge $-1 -1 $-1 $70 -4.0000000011099832 $103 -2.0000000003699929 $61 $104 forward @7 unknown #
coedge $-1 -1 $-1 $42 $41 $105 $106 reversed $20 $-1 #
coedge $-1 -1 $-1 $107 $108 $41 $65 forward $109 $-1 #
edge $-1 -1 $-1 $110 0 $69 5 $41 $111 forward @7 unknown #
edge $-1 -1 $-1 $112 0 $70 5 $59 $113 forward @7 unknown #
coedge $-1 -1 $-1 $43 $114 $107 $115 forward $68 $-1 #
loop $-1 -1 $-1 $116 $102 $117 #
vertex $-1 -1 $-1 $44 $118 #
vertex $-1 -1 $-1 $44 $119 #
ellipse-curve $-1 -1 $-1 3.9431999999999992 13.5593 2.5 0 0 1 0 -1.9999999992600119 0 1 I I #
model_id-kcp-attrib $-1 -1 $-1 $-1 $46 1 1021323258 1021323258 444465154 3 #
face $120 -1 $-1 $121 $122 $15 $-1 $123 reversed single #
loop $-1 -1 $-1 $-1 $124 $46 #
plane-surface $-1 -1 $-1 0 -10 0 0 1 0 0 0 1 forward_v I I I I #
coedge $-1 -1 $-1 $125 $126 $127 $128 forward $47 $-1 #
coedge $-1 -1 $-1 $129 $49 $130 $131 forward $31 $-1 #
coedge $-1 -1 $-1 $49 $129 $132 $133 forward $31 $-1 #
coedge $-1 -1 $-1 $134 $135 $49 $80 reversed $136 $-1 #
edge $-1 -1 $-1 $137 -10 $138 10 $79 $139 forward @7 unknown #
face $-1 -1 $-1 $140 $141 $17 $-1 $142 forward single #
loop $-1 -1 $-1 $-1 $143 $50 #
plane-surface $-1 -1 $-1 7.7499999992600106 3.9999999948200831 0 -3.699940352727088e-010 -1 0 0 0 -1 forward_v I I I I #
coedge $-1 -1 $-1 $144 $145 $146 $147 forward $51 $-1 #
coedge $-1 -1 $-1 $148 $53 $145 $149 reversed $34 $-1 #
coedge $-1 -1 $-1 $53 $148 $150 $151 forward $34 $-1 #
coedge $-1 -1 $-1 $152 $146 $53 $88 reversed $153 $-1 #
edge $-1 -1 $-1 $154 -12.000000000138749 $155 3.9999999998612505 $53 $156 forward @7 unknown #
model_id-kcp-attrib $-1 -1 $-1 $-1 $55 1 1021323258 1021323258 444465153 6 #
face $157 -1 $-1 $158 $159 $7 $-1 $160 reversed single #
loop $-1 -1 $-1 $-1 $161 $55 #
plane-surface $-1 -1 $-1 3.9431999999075007 -0.44069999926001202 7.5 -4.6249226670624921e-011 -1 0 0 0 -1 forward_v I I I I #
coedge $-1 -1 $-1 $162 $163 $164 $165 reversed $56 $-1 #
coedge $-1 -1 $-1 $166 $58 $99 $167 reversed $38 $-1 #
coedge $-1 -1 $-1 $58 $166 $168 $169 forward $38 $-1 #
coedge $-1 -1 $-1 $170 $171 $58 $97 forward $172 $-1 #
edge $173 -1 $-1 $174 0 $175 7.9999999955600742 $96 $176 forward @7 unknown #
coedge $-1 -1 $-1 $99 $59 $177 $178 reversed $26 $-1 #
coedge $-1 -1 $-1 $60 $98 $94 $167 forward $26 $-1 #
coedge $-1 -1 $-1 $179 $180 $60 $101 forward $181 $-1 #
edge $-1 -1 $-1 $103 0 $174 2.5 $100 $182 forward @7 unknown #
coedge $-1 -1 $-1 $114 $61 $180 $183 forward $68 $-1 #
vertex $-1 -1 $-1 $183 $184 #
straight-curve $-1 -1 $-1 7.9432000003699939 11.559299999260013 2.5 1 -3.699940352727088e-010 0 I I #
coedge $-1 -1 $-1 $185 $177 $63 $106 forward $186 $-1 #
edge $187 -1 $-1 $112 3.6999403554649979e-010 $110 3.1415926536360419 $105 $188 reversed @7 unknown #
coedge $-1 -1 $-1 $189 $64 $67 $115 reversed $109 $-1 #
coedge $-1 -1 $-1 $64 $189 $185 $190 reversed $109 $-1 #
loop $-1 -1 $-1 $-1 $107 $191 #
vertex $-1 -1 $-1 $106 $192 #
straight-curve $-1 -1 $-1 3.9432000000924976 15.5593 7.5 0 0 -1 I I #
vertex $-1 -1 $-1 $106 $193 #
straight-curve $-1 -1 $-1 3.9431999992600111 11.559300000739988 7.5 0 0 -1 I I #
coedge $-1 -1 $-1 $67 $102 $194 $195 forward $68 $-1 #
edge $-1 -1 $-1 $196 -3.9999999998612523 $69 12.000000000138749 $67 $197 forward @7 unknown #
loop $-1 -1 $-1 $198 $199 $117 #
face $200 -1 $-1 $201 $68 $7 $-1 $202 reversed single #
point $-1 -1 $-1 3.9432000000924972 15.559299999260013 2.5 #
point $-1 -1 $-1 3.9431999992600111 11.559300000739988 2.5 #
model_id-kcp-attrib $-1 -1 $-1 $-1 $73 1 1021323258 1021323258 444465154 4 #
face $203 -1 $-1 $204 $205 $15 $-1 $206 reversed single #
loop $-1 -1 $-1 $-1 $207 $73 #
plane-surface $-1 -1 $-1 -12.5 0 0 1 0 0 0 0 -1 forward_v I I I I #
coedge $-1 -1 $-1 $208 $132 $209 $210 forward $74 $-1 #
coedge $-1 -1 $-1 $211 $76 $208 $212 forward $47 $-1 #
coedge $-1 -1 $-1 $76 $211 $213 $214 forward $47 $-1 #
coedge $-1 -1 $-1 $135 $134 $76 $128 reversed $136 $-1 #
edge $-1 -1 $-1 $215 -10 $216 10 $127 $217 forward @7 unknown #
coedge $-1 -1 $-1 $78 $77 $218 $219 forward $31 $-1 #
coedge $-1 -1 $-1 $220 $221 $77 $131 reversed $205 $-1 #
edge $-1 -1 $-1 $138 -12.5 $222 12.5 $130 $223 forward @7 unknown #
coedge $-1 -1 $-1 $124 $224 $78 $133 reversed $74 $-1 #
edge $-1 -1 $-1 $225 -12.5 $137 12.5 $132 $226 forward @7 unknown #
coedge $-1 -1 $-1 $127 $79 $224 $227 forward $136 $-1 #
coedge $-1 -1 $-1 $79 $127 $220 $228 reversed $136 $-1 #
loop $-1 -1 $-1 $-1 $134 $204 #
vertex $-1 -1 $-1 $80 $229 #
vertex $-1 -1 $-1 $80 $230 #
straight-curve $-1 -1 $-1 12.5 0 2.5 0 1 0 I I #
face $-1 -1 $-1 $231 $232 $17 $-1 $233 forward single #
loop $-1 -1 $-1 $-1 $234 $81 #
plane-surface $-1 -1 $-1 5.75 3.9999999955600707 0 1 0 0 0 0 -1 forward_v I I I I #
coedge $-1 -1 $-1 $235 $236 $237 $238 forward $82 $-1 #
coedge $-1 -1 $-1 $239 $84 $236 $240 reversed $51 $-1 #
coedge $-1 -1 $-1 $84 $239 $85 $149 forward $51 $-1 #
coedge $-1 -1 $-1 $87 $237 $84 $147 reversed $153 $-1 #
edge $-1 -1 $-1 $155 4.6248338509316822e-011 $241 3.1415926539597878 $84 $242 forward @7 unknown #
coedge $-1 -1 $-1 $86 $85 $243 $244 reversed $34 $-1 #
edge $245 -1 $-1 $246 0 $155 2.5 $145 $247 forward @7 unknown #
coedge $-1 -1 $-1 $248 $249 $86 $151 reversed $250 $-1 #
edge $-1 -1 $-1 $251 0 $154 2.5 $86 $252 forward @7 unknown #
coedge $-1 -1 $-1 $253 $87 $249 $254 reversed $153 $-1 #
loop $-1 -1 $-1 $-1 $87 $255 #
vertex $-1 -1 $-1 $151 $256 #
vertex $-1 -1 $-1 $149 $257 #
straight-curve $-1 -1 $-1 3.7500000002312461 7.9999999994450093 2.5 1 -4.6249254426200537e-011 0 I I #
model_id-kcp-attrib $-1 -1 $-1 $-1 $90 1 1021323258 1021323258 444465153 7 #
face $258 -1 $-1 $259 $260 $7 $-1 $261 reversed single #
loop $-1 -1 $-1 $-1 $262 $90 #
cone-surface $-1 -1 $-1 19.943200000000001 1.5593000000000004 7.5 0 0 -1 0 1.9999999992600119 0 1 I I 0 1 1.9999999992600119 forward I I I I #
coedge $-1 -1 $-1 $263 $264 $265 $266 reversed $91 $-1 #
coedge $-1 -1 $-1 $267 $93 $268 $269 reversed $56 $-1 #
coedge $-1 -1 $-1 $93 $267 $263 $270 forward $56 $-1 #
coedge $-1 -1 $-1 $265 $271 $93 $165 forward $198 $-1 #
edge $-1 -1 $-1 $272 -3.1415926539597869 $273 -4.6249226670624921e-011 $164 $274 forward @7 unknown #
coedge $-1 -1 $-1 $95 $94 $275 $276 reversed $38 $-1 #
edge $-1 -1 $-1 $277 0 $174 2.5 $94 $278 reversed @7 unknown #
coedge $-1 -1 $-1 $279 $280 $95 $169 reversed $281 $-1 #
edge $-1 -1 $-1 $282 0 $175 2.5 $168 $283 reversed @7 unknown #
coedge $-1 -1 $-1 $284 $96 $280 $285 reversed $172 $-1 #
coedge $-1 -1 $-1 $96 $284 $179 $286 reversed $172 $-1 #
loop $-1 -1 $-1 $-1 $284 $201 #
attrib_edge_convexity-kcp-attrib $-1 -1 $287 $-1 $97 2 #
vertex $-1 -1 $-1 $101 $288 #
vertex $-1 -1 $-1 $169 $289 #
straight-curve $-1 -1 $-1 5.9431999999999992 11.5593 5 0 -1 0 I I #
coedge $-1 -1 $-1 $105 $275 $98 $178 forward $186 $-1 #
edge $290 -1 $-1 $277 2.1250000003699956 $112 4.1250000011099832 $177 $291 reversed @7 unknown #
coedge $-1 -1 $-1 $292 $100 $171 $286 forward $181 $-1 #
coedge $-1 -1 $-1 $100 $293 $102 $183 reversed $181 $-1 #
loop $-1 -1 $-1 $-1 $179 $294 #
straight-curve $-1 -1 $-1 5.9432000000000009 11.5593 2.5 0 0 1 I I #
edge $-1 -1 $-1 $103 -2.0000000003699929 $295 11.999999998890019 $102 $296 forward @7 unknown #
point $-1 -1 $-1 5.9432000000000009 11.5593 2.5 #
coedge $-1 -1 $-1 $297 $105 $108 $190 forward $186 $-1 #
loop $-1 -1 $-1 $298 $105 $299 #
attrib_edge_convexity-kcp-attrib $-1 -1 $300 $-1 $106 1 #
ellipse-curve $-1 -1 $-1 3.9431999999999992 13.5593 7.5 0 0 1 0 -1.9999999992600119 0 1 I I #
coedge $-1 -1 $-1 $108 $107 $301 $302 reversed $109 $-1 #
edge $303 -1 $-1 $110 -12.125000000138749 $304 3.8749999998612523 $185 $305 reversed @7 unknown #
face $306 -1 $-1 $299 $109 $7 $-1 $307 reversed single #
point $-1 -1 $-1 3.9432000000924972 15.559299999260013 7.5 #
point $-1 -1 $-1 3.9431999992600111 11.559300000739988 7.5 #
coedge $-1 -1 $-1 $308 $301 $114 $195 reversed $309 $-1 #
edge $-1 -1 $-1 $295 -3.1415926539597869 $196 -4.6249226670624921e-011 $114 $310 forward @7 unknown #
vertex $-1 -1 $-1 $195 $311 #
straight-curve $-1 -1 $-1 15.943200000231247 15.55929999944501 2.5 -1 4.6249254426200537e-011 0 I I #
loop $-1 -1 $-1 $-1 $271 $117 #
coedge $-1 -1 $-1 $312 $313 $314 $315 forward $116 $-1 #
model_id-kcp-attrib $-1 -1 $-1 $-1 $117 1 1021323258 1021323258 444465153 19 #
face $316 -1 $-1 $-1 $172 $7 $-1 $317 forward single #
plane-surface $-1 -1 $-1 11.943200000000001 7.5593000000000004 2.5 0 0 1 1 0 0 forward_v I I I I #
model_id-kcp-attrib $-1 -1 $-1 $-1 $121 1 1021323258 1021323258 444465154 5 #
face $318 -1 $-1 $-1 $136 $15 $-1 $319 reversed single #
loop $-1 -1 $-1 $-1 $220 $121 #
plane-surface $-1 -1 $-1 0 10 0 0 -1 0 0 0 -1 forward_v I I I I #
coedge $-1 -1 $-1 $320 $218 $221 $321 forward $122 $-1 #
coedge $-1 -1 $-1 $224 $124 $125 $212 reversed $74 $-1 #
coedge $-1 -1 $-1 $218 $320 $124 $210 reversed $122 $-1 #
edge $-1 -1 $-1 $225 -2.5 $322 2.5 $209 $323 forward @7 unknown #
coedge $-1 -1 $-1 $126 $125 $320 $324 forward $47 $-1 #
edge $-1 -1 $-1 $216 -12.5 $322 12.5 $208 $325 forward @7 unknown #
coedge $-1 -1 $-1 $221 $220 $126 $214 reversed $205 $-1 #
edge $-1 -1 $-1 $326 -12.5 $215 12.5 $213 $327 forward @7 unknown #
vertex $-1 -1 $-1 $128 $328 #
vertex $-1 -1 $-1 $227 $329 #
straight-curve $-1 -1 $-1 12.5 0 -2.5 0 -1 0 I I #
coedge $-1 -1 $-1 $207 $209 $129 $219 reversed $122 $-1 #
edge $-1 -1 $-1 $222 -10 $225 10 $218 $330 forward @7 unknown #
coedge $-1 -1 $-1 $213 $130 $135 $228 forward $205 $-1 #
coedge $-1 -1 $-1 $130 $213 $207 $321 reversed $205 $-1 #
vertex $-1 -1 $-1 $131 $331 #
straight-curve $-1 -1 $-1 0 10 2.5 -1 0 0 I I #
coedge $-1 -1 $-1 $132 $208 $134 $227 reversed $74 $-1 #
vertex $-1 -1 $-1 $219 $332 #
straight-curve $-1 -1 $-1 0 -10 2.5 1 0 0 I I #
edge $-1 -1 $-1 $137 -2.5 $216 2.5 $134 $333 forward @7 unknown #
edge $-1 -1 $-1 $138 -2.5 $215 2.5 $135 $334 forward @7 unknown #
point $-1 -1 $-1 12.5 -10 2.5 #
point $-1 -1 $-1 12.5 10 2.5 #
face $-1 -1 $-1 $335 $336 $17 $-1 $337 forward single #
loop $-1 -1 $-1 $-1 $338 $140 #
plane-surface $-1 -1 $-1 5.75 -4 0 3.6999381322810377e-010 1 0 0 0 1 forward_v I I I I #
coedge $-1 -1 $-1 $339 $340 $341 $342 forward $141 $-1 #
coedge $-1 -1 $-1 $343 $143 $340 $344 reversed $82 $-1 #
coedge $-1 -1 $-1 $143 $343 $144 $240 forward $82 $-1 #
coedge $-1 -1 $-1 $146 $341 $143 $238 reversed $153 $-1 #
edge $-1 -1 $-1 $241 -11.999999998890019 $345 -9.9999999996300062 $143 $346 forward @7 unknown #
coedge $-1 -1 $-1 $145 $144 $347 $348 reversed $51 $-1 #
edge $-1 -1 $-1 $349 0 $241 2.5 $236 $350 forward @7 unknown #
vertex $-1 -1 $-1 $240 $351 #
ellipse-curve $-1 -1 $-1 7.75 6 2.5 0 0 -1 0 1.9999999992600119 0 1 I I #
coedge $-1 -1 $-1 $347 $352 $148 $244 forward $353 $-1 #
edge $354 -1 $-1 $251 -12.000000000138749 $246 3.9999999998612523 $148 $355 forward @7 unknown #
convexity-sys-attrib $-1 -1 $-1 $-1 $149 #
vertex $-1 -1 $-1 $244 $356 #
straight-curve $-1 -1 $-1 7.7500000000924967 7.9999999992600124 0 0 0 1 I I #
coedge $-1 -1 $-1 $357 $150 $352 $358 reversed $250 $-1 #
coedge $-1 -1 $-1 $150 $357 $152 $254 forward $250 $-1 #
loop $-1 -1 $-1 $-1 $249 $359 #
vertex $-1 -1 $-1 $358 $360 #
straight-curve $-1 -1 $-1 -8.2499999999075033 8 0 0 0 1 I I #
coedge $-1 -1 $-1 $361 $152 $362 $363 reversed $153 $-1 #
edge $-1 -1 $-1 $364 3.6999381350189481e-010 $154 3.1415926536360423 $249 $365 forward @7 unknown #
face $-1 -1 $-1 $366 $153 $17 $-1 $367 forward single #
point $-1 -1 $-1 -8.2499999999075033 8 2.5 #
point $-1 -1 $-1 7.7500000000924967 7.9999999992600124 2.5 #
model_id-kcp-attrib $-1 -1 $-1 $-1 $158 1 1021323258 1021323258 444465153 8 #
face $368 -1 $-1 $369 $370 $7 $-1 $371 reversed single #
loop $-1 -1 $-1 $-1 $372 $158 #
plane-surface $-1 -1 $-1 19.943200000739989 3.5592999992600127 7.5 3.6999381322810377e-010 1 0 0 0 1 forward_v I I I I #
coedge $-1 -1 $-1 $373 $374 $375 $376 reversed $159 $-1 #
coedge $-1 -1 $-1 $377 $161 $163 $270 reversed $91 $-1 #
coedge $-1 -1 $-1 $161 $377 $373 $378 forward $91 $-1 #
coedge $-1 -1 $-1 $375 $164 $161 $266 forward $198 $-1 #
edge $-1 -1 $-1 $273 -3.9999999998612532 $379 12.000000000138748 $265 $380 forward @7 unknown #
coedge $-1 -1 $-1 $163 $162 $381 $382 reversed $56 $-1 #
coedge $-1 -1 $-1 $383 $279 $162 $269 forward $281 $-1 #
edge $-1 -1 $-1 $384 0 $272 5 $162 $385 forward @7 unknown #
edge $-1 -1 $-1 $386 0 $273 5 $263 $387 forward @7 unknown #
coedge $-1 -1 $-1 $164 $388 $383 $389 forward $198 $-1 #
vertex $-1 -1 $-1 $389 $390 #
vertex $-1 -1 $-1 $165 $391 #
ellipse-curve $-1 -1 $-1 3.9431999999999992 1.5593000000000004 2.5 0 0 1 0 -1.9999999992600119 0 1 I I #
coedge $-1 -1 $-1 $177 $392 $166 $276 forward $186 $-1 #
edge $393 -1 $-1 $282 -5.9999999955600742 $277 2 $275 $394 reversed @7 unknown #
vertex $-1 -1 $-1 $178 $395 #
straight-curve $-1 -1 $-1 5.9431999999999992 11.5593 7.5 0 0 1 I I #
coedge $-1 -1 $-1 $268 $168 $392 $396 reversed $281 $-1 #
coedge $-1 -1 $-1 $168 $397 $170 $285 forward $281 $-1 #
loop $-1 -1 $-1 $-1 $280 $398 #
vertex $-1 -1 $-1 $276 $399 #
straight-curve $-1 -1 $-1 5.9431999999999992 3.5593000044399261 7.5 0 0 1 I I #
coedge $-1 -1 $-1 $171 $170 $400 $401 forward $172 $-1 #
edge $402 -1 $-1 $403 -5.0000000011099814 $175 6.9999999988900203 $280 $404 reversed @7 unknown #
edge $405 -1 $-1 $174 1.0000000003699929 $406 13.000000000369994 $179 $407 reversed @7 unknown #
convexity-sys-attrib $-1 -1 $-1 $173 $97 #
point $-1 -1 $-1 5.9431999999999992 11.5593 5 #
point $-1 -1 $-1 5.9431999999999992 3.5593000044399261 5 #
attrib_edge_convexity-kcp-attrib $-1 -1 $408 $-1 $178 1 #
straight-curve $-1 -1 $-1 8.0682000003699947 11.559299999213763 7.5 1 -3.699940352727088e-010 0 I I #
coedge $-1 -1 $-1 $409 $179 $410 $411 reversed $181 $-1 #
coedge $-1 -1 $-1 $180 $409 $308 $412 forward $181 $-1 #
face $413 -1 $-1 $117 $181 $7 $-1 $27 reversed single #
vertex $-1 -1 $-1 $183 $414 #
straight-curve $-1 -1 $-1 7.9432000003699939 11.559299999260013 2.5 1 -3.699940352727088e-010 0 I I #
coedge $-1 -1 $-1 $415 $185 $416 $417 forward $186 $-1 #
loop $-1 -1 $-1 $-1 $418 $299 #
face $419 -1 $-1 $420 $186 $7 $-1 $421 forward single #
convexity-sys-attrib $-1 -1 $-1 $187 $106 #
coedge $-1 -1 $-1 $194 $416 $189 $302 forward $309 $-1 #
edge $-1 -1 $-1 $304 0 $196 5 $189 $422 forward @7 unknown #
attrib_edge_convexity-kcp-attrib $-1 -1 $423 $-1 $190 1 #
vertex $-1 -1 $-1 $417 $424 #
straight-curve $-1 -1 $-1 16.068200000231247 15.559299999439229 7.5 -1 4.6249254426200537e-011 0 I I #
model_id-kcp-attrib $-1 -1 $-1 $-1 $191 1 1021323258 1021323258 444465153 11 #
plane-surface $-1 -1 $-1 19.943200000092499 15.559299999260013 7.5 4.6249254426200537e-011 1 0 0 0 1 forward_v I I I I #
coedge $-1 -1 $-1 $416 $194 $293 $412 reversed $309 $-1 #
loop $-1 -1 $-1 $-1 $194 $369 #
ellipse-curve $-1 -1 $-1 19.943200000000001 13.5593 2.5 0 0 1 0 1.9999999992600119 0 1 I I #
point $-1 -1 $-1 19.943200000092499 15.559299999260013 2.5 #
coedge $-1 -1 $-1 $425 $199 $426 $427 forward $116 $-1 #
coedge $-1 -1 $-1 $199 $425 $428 $429 forward $116 $-1 #
coedge $-1 -1 $-1 $430 $431 $199 $315 reversed $432 $-1 #
edge $-1 -1 $-1 $433 -10 $434 10 $314 $435 reversed @7 unknown #
model_id-kcp-attrib $-1 -1 $-1 $-1 $201 1 1021323258 1021323258 444465153 20 #
plane-surface $-1 -1 $-1 5.9432000000000009 11.5593 5 0 0 1 1 0 0 forward_v I I I I #
model_id-kcp-attrib $-1 -1 $-1 $-1 $204 1 1021323258 1021323258 444465154 6 #
plane-surface $-1 -1 $-1 12.5 0 0 -1 0 0 0 0 1 forward_v I I I I #
coedge $-1 -1 $-1 $209 $207 $211 $324 reversed $122 $-1 #
edge $-1 -1 $-1 $222 -2.5 $326 2.5 $221 $436 forward @7 unknown #
vertex $-1 -1 $-1 $324 $437 #
straight-curve $-1 -1 $-1 -12.5 -10 0 0 0 -1 I I #
edge $-1 -1 $-1 $322 -10 $326 10 $320 $438 forward @7 unknown #
straight-curve $-1 -1 $-1 0 -10 -2.5 -1 0 0 I I #
vertex $-1 -1 $-1 $214 $439 #
straight-curve $-1 -1 $-1 0 10 -2.5 1 0 0 I I #
point $-1 -1 $-1 12.5 10 -2.5 #
point $-1 -1 $-1 12.5 -10 -2.5 #
straight-curve $-1 -1 $-1 -12.5 0 2.5 0 -1 0 I I #
point $-1 -1 $-1 -12.5 10 2.5 #
point $-1 -1 $-1 -12.5 -10 2.5 #
straight-curve $-1 -1 $-1 12.5 -10 0 0 0 -1 I I #
straight-curve $-1 -1 $-1 12.5 10 0 0 0 -1 I I #
face $-1 -1 $-1 $440 $441 $17 $-1 $442 forward single #
loop $-1 -1 $-1 $-1 $443 $231 #
cone-surface $-1 -1 $-1 7.75 -6 0 0 0 1 0 1.9999999992600119 0 1 I I 0 1 1.9999999992600119 forward I I I I #
coedge $-1 -1 $-1 $444 $445 $446 $447 forward $232 $-1 #
coedge $-1 -1 $-1 $448 $234 $445 $449 reversed $141 $-1 #
coedge $-1 -1 $-1 $234 $448 $235 $344 forward $141 $-1 #
coedge $-1 -1 $-1 $237 $446 $234 $342 reversed $153 $-1 #
edge $-1 -1 $-1 $345 -5.9999999955600707 $450 2 $234 $451 forward @7 unknown #
coedge $-1 -1 $-1 $236 $235 $452 $453 reversed $82 $-1 #
edge $-1 -1 $-1 $454 0 $345 2.5 $340 $455 forward @7 unknown #
vertex $-1 -1 $-1 $344 $456 #
straight-curve $-1 -1 $-1 -4.2499999996300071 3.9999999992600115 2.5 -1 3.699940352727088e-010 0 I I #
coedge $-1 -1 $-1 $452 $243 $239 $348 forward $353 $-1 #
edge $457 -1 $-1 $246 4.6249226687736852e-011 $349 3.1415926539597869 $239 $458 forward @7 unknown #
vertex $-1 -1 $-1 $348 $459 #
straight-curve $-1 -1 $-1 7.7499999992600106 3.9999999948200831 0 0 0 1 I I #
point $-1 -1 $-1 7.7499999992600106 3.9999999948200831 2.5 #
coedge $-1 -1 $-1 $243 $460 $248 $358 forward $353 $-1 #
loop $-1 -1 $-1 $-1 $352 $366 #
convexity-sys-attrib $-1 -1 $-1 $-1 $244 #
straight-curve $-1 -1 $-1 3.7500000002312461 7.9999999994450093 0 1 -4.6249254426200537e-011 0 I I #
point $-1 -1 $-1 7.7500000000924985 7.9999999992600124 0 #
coedge $-1 -1 $-1 $249 $248 $461 $462 forward $250 $-1 #
edge $463 -1 $-1 $464 3.6999381350189481e-010 $251 3.1415926536360423 $248 $465 forward @7 unknown #
face $-1 -1 $-1 $255 $250 $17 $-1 $466 forward single #
point $-1 -1 $-1 -8.2499999999075033 8 0 #
coedge $-1 -1 $-1 $467 $253 $468 $469 reversed $153 $-1 #
coedge $-1 -1 $-1 $461 $470 $253 $363 forward $471 $-1 #
edge $-1 -1 $-1 $472 2.0000000003699947 $364 4.0000000011099823 $362 $473 forward @7 unknown #
vertex $-1 -1 $-1 $462 $474 #
ellipse-curve $-1 -1 $-1 -8.2500000000000018 6 2.5 0 0 -1 0 -1.9999999992600119 0 1 I I #
face $-1 -1 $-1 $-1 $353 $17 $-1 $475 reversed single #
plane-surface $-1 -1 $-1 -0.25000000000000133 -2.2204460492503131e-016 2.5 0 0 1 1 0 0 forward_v I I I I #
model_id-kcp-attrib $-1 -1 $-1 $-1 $259 1 1021323258 1021323258 444465153 9 #
face $476 -1 $-1 $191 $309 $7 $-1 $477 reversed single #
loop $-1 -1 $-1 $-1 $400 $259 #
plane-surface $-1 -1 $-1 17.943200000000001 3.5593000000000004 7.5 1 0 0 0 0 -1 forward_v I I I I #
coedge $-1 -1 $-1 $478 $479 $388 $480 reversed $260 $-1 #
coedge $-1 -1 $-1 $481 $262 $264 $378 reversed $159 $-1 #
coedge $-1 -1 $-1 $262 $481 $478 $482 forward $159 $-1 #
coedge $-1 -1 $-1 $388 $265 $262 $376 forward $198 $-1 #
edge $-1 -1 $-1 $379 -3.1415926536360423 $483 -3.6999381350189487e-010 $375 $484 forward @7 unknown #
coedge $-1 -1 $-1 $264 $263 $485 $486 reversed $91 $-1 #
edge $-1 -1 $-1 $487 0 $379 5 $373 $488 forward @7 unknown #
vertex $-1 -1 $-1 $266 $489 #
straight-curve $-1 -1 $-1 7.9431999997687539 -0.44069999944500893 2.5 1 -4.6249226670624921e-011 0 I I #
coedge $-1 -1 $-1 $392 $485 $267 $382 forward $186 $-1 #
edge $490 -1 $-1 $386 4.6249226670624921e-011 $384 3.1415926539597869 $381 $491 reversed @7 unknown #
coedge $-1 -1 $-1 $397 $268 $271 $389 reversed $281 $-1 #
vertex $-1 -1 $-1 $396 $492 #
straight-curve $-1 -1 $-1 3.9432000007399868 3.5593000051799137 7.5 0 0 -1 I I #
vertex $-1 -1 $-1 $382 $493 #
straight-curve $-1 -1 $-1 3.9431999999075007 -0.44069999926001202 7.5 0 0 -1 I I #
coedge $-1 -1 $-1 $271 $375 $372 $480 forward $198 $-1 #
edge $-1 -1 $-1 $494 -2.0000000003699938 $272 11.99999999889002 $271 $495 forward @7 unknown #
point $-1 -1 $-1 3.9432000007399868 3.5593000051799137 2.5 #
point $-1 -1 $-1 3.9431999999075007 -0.44069999926001158 2.5 #
coedge $-1 -1 $-1 $275 $381 $279 $396 forward $186 $-1 #
attrib_edge_convexity-kcp-attrib $-1 -1 $496 $-1 $276 1 #
straight-curve $-1 -1 $-1 5.9431999999999992 9.5593000000000004 7.5 0 -1 0 I I #
point $-1 -1 $-1 5.9431999999999992 11.5593 7.5 #
edge $497 -1 $-1 $384 -12.12499999889002 $282 -10.124999999630008 $392 $498 reversed @7 unknown #
coedge $-1 -1 $-1 $280 $383 $479 $499 forward $281 $-1 #
face $500 -1 $-1 $294 $281 $7 $-1 $261 reversed single #
point $-1 -1 $-1 5.9431999999999992 3.5593000044399261 7.5 #
coedge $-1 -1 $-1 $501 $410 $284 $401 reversed $370 $-1 #
edge $502 -1 $-1 $403 -4 $406 3.9999999955600707 $284 $503 forward @7 unknown #
attrib_edge_convexity-kcp-attrib $-1 -1 $504 $-1 $285 1 #
vertex $-1 -1 $-1 $499 $505 #
straight-curve $-1 -1 $-1 12.943199998890019 3.5593000018499694 5 1 -3.6999381322810377e-010 0 I I #
attrib_edge_convexity-kcp-attrib $-1 -1 $506 $-1 $286 1 #
vertex $-1 -1 $-1 $411 $507 #
straight-curve $-1 -1 $-1 4.9431999996300062 11.559300000369994 5 -1 3.699940352727088e-010 0 I I #
convexity-sys-attrib $-1 -1 $-1 $290 $178 #
coedge $-1 -1 $-1 $293 $292 $415 $508 reversed $181 $-1 #
coedge $-1 -1 $-1 $400 $509 $292 $411 forward $370 $-1 #
edge $-1 -1 $-1 $510 0 $406 2.5 $292 $511 reversed @7 unknown #
edge $-1 -1 $-1 $512 0 $295 5 $308 $513 forward @7 unknown #
model_id-kcp-attrib $-1 -1 $-1 $-1 $294 1 1021323258 1021323258 444465153 18 #
point $-1 -1 $-1 19.943199999260013 11.559299994820083 2.5 #
coedge $-1 -1 $-1 $514 $297 $409 $508 forward $186 $-1 #
coedge $-1 -1 $-1 $301 $308 $297 $417 reversed $309 $-1 #
edge $515 -1 $-1 $304 4.6249226670624921e-011 $512 3.1415926539597869 $297 $516 reversed @7 unknown #
coedge $-1 -1 $-1 $517 $518 $519 $520 forward $298 $-1 #
model_id-kcp-attrib $-1 -1 $-1 $-1 $299 1 1021323258 1021323258 444465153 12 #
face $521 -1 $-1 $522 $523 $7 $-1 $524 reversed single #
plane-surface $-1 -1 $-1 12.193200000000001 7.5593000000000004 7.5 0 0 1 1 0 0 forward_v I I I I #
straight-curve $-1 -1 $-1 19.943200000092499 15.559299999260013 7.5 0 0 -1 I I #
convexity-sys-attrib $-1 -1 $-1 $303 $190 #
point $-1 -1 $-1 19.943200000092499 15.559299999260013 7.5 #
coedge $-1 -1 $-1 $313 $312 $525 $526 forward $116 $-1 #
coedge $-1 -1 $-1 $527 $528 $312 $427 reversed $523 $-1 #
edge $529 -1 $-1 $434 -12.625 $530 12.375 $426 $531 reversed @7 unknown #
coedge $-1 -1 $-1 $532 $533 $313 $429 reversed $534 $-1 #
edge $-1 -1 $-1 $535 -12.375 $433 12.625 $428 $536 reversed @7 unknown #
coedge $-1 -1 $-1 $519 $314 $533 $537 reversed $432 $-1 #
coedge $-1 -1 $-1 $314 $519 $527 $538 forward $432 $-1 #
loop $-1 -1 $-1 $-1 $431 $539 #
vertex $-1 -1 $-1 $315 $540 #
vertex $-1 -1 $-1 $538 $541 #
straight-curve $-1 -1 $-1 24.693200000000001 7.5593000000000004 2.5 0 1 0 I I #
straight-curve $-1 -1 $-1 -12.5 10 0 0 0 -1 I I #
point $-1 -1 $-1 -12.5 -10 -2.5 #
straight-curve $-1 -1 $-1 -12.5 0 -2.5 0 1 0 I I #
point $-1 -1 $-1 -12.5 10 -2.5 #
face $-1 -1 $-1 $542 $543 $17 $-1 $544 forward single #
loop $-1 -1 $-1 $-1 $545 $335 #
plane-surface $-1 -1 $-1 7.7499999999074998 -8 0 -4.6249226670624921e-011 -1 0 0 0 -1 forward_v I I I I #
coedge $-1 -1 $-1 $546 $547 $548 $549 forward $336 $-1 #
coedge $-1 -1 $-1 $550 $338 $547 $551 reversed $232 $-1 #
coedge $-1 -1 $-1 $338 $550 $339 $449 forward $232 $-1 #
coedge $-1 -1 $-1 $341 $548 $338 $447 reversed $153 $-1 #
edge $-1 -1 $-1 $450 2.0000000003699938 $552 4.0000000011099797 $338 $553 forward @7 unknown #
coedge $-1 -1 $-1 $340 $339 $554 $555 reversed $141 $-1 #
edge $-1 -1 $-1 $556 0 $450 2.5 $445 $557 forward @7 unknown #
vertex $-1 -1 $-1 $449 $558 #
straight-curve $-1 -1 $-1 5.75 -2 2.5 0 -1 0 I I #
coedge $-1 -1 $-1 $554 $347 $343 $453 forward $353 $-1 #
edge $559 -1 $-1 $349 -11.999999998890019 $454 -9.9999999996300062 $343 $560 forward @7 unknown #
vertex $-1 -1 $-1 $453 $561 #
straight-curve $-1 -1 $-1 5.75 3.9999999955600707 0 0 0 1 I I #
point $-1 -1 $-1 5.75 3.9999999955600707 2.5 #
convexity-sys-attrib $-1 -1 $-1 $-1 $348 #
ellipse-curve $-1 -1 $-1 7.75 6 0 0 0 -1 0 1.9999999992600119 0 1 I I #
point $-1 -1 $-1 7.7499999992600124 3.9999999948200831 0 #
coedge $-1 -1 $-1 $352 $562 $563 $564 forward $353 $-1 #
coedge $-1 -1 $-1 $563 $362 $357 $462 reversed $471 $-1 #
edge $-1 -1 $-1 $464 0 $364 2.5 $357 $565 forward @7 unknown #
convexity-sys-attrib $-1 -1 $-1 $-1 $358 #
vertex $-1 -1 $-1 $358 $566 #
ellipse-curve $-1 -1 $-1 -8.2500000000000018 6 0 0 0 -1 0 -1.9999999992600119 0 1 I I #
cone-surface $-1 -1 $-1 -8.2500000000000018 6 0 0 0 1 0 -1.9999999992600119 0 1 I I 0 1 1.9999999992600119 forward I I I I #
coedge $-1 -1 $-1 $567 $361 $568 $569 reversed $153 $-1 #
coedge $-1 -1 $-1 $570 $571 $361 $469 forward $572 $-1 #
edge $-1 -1 $-1 $573 -5.9999999955600742 $472 2 $468 $574 forward @7 unknown #
coedge $-1 -1 $-1 $362 $563 $570 $575 forward $471 $-1 #
loop $-1 -1 $-1 $-1 $362 $576 #
vertex $-1 -1 $-1 $575 $577 #
straight-curve $-1 -1 $-1 -4.2499999996300071 3.9999999992600115 2.5 -1 3.699940352727088e-010 0 I I #
point $-1 -1 $-1 -8.2500000007399894 4.0000000007399876 2.5 #
plane-surface $-1 -1 $-1 -0.25000000000000133 -2.2204460492503131e-016 0 0 0 1 1 0 0 forward_v I I I I #
model_id-kcp-attrib $-1 -1 $-1 $-1 $369 1 1021323258 1021323258 444465153 10 #
cone-surface $-1 -1 $-1 19.943200000000001 13.5593 7.5 0 0 -1 0 1.9999999992600119 0 1 I I 0 1 1.9999999992600119 forward I I I I #
coedge $-1 -1 $-1 $578 $372 $374 $482 reversed $260 $-1 #
coedge $-1 -1 $-1 $372 $579 $397 $499 reversed $260 $-1 #
edge $-1 -1 $-1 $483 -4.0000000011099814 $494 -2.0000000003699938 $388 $580 forward @7 unknown #
coedge $-1 -1 $-1 $374 $373 $581 $582 reversed $159 $-1 #
edge $-1 -1 $-1 $583 0 $483 5 $478 $584 forward @7 unknown #
vertex $-1 -1 $-1 $376 $585 #
ellipse-curve $-1 -1 $-1 19.943200000000001 1.5593000000000004 2.5 0 0 1 0 1.9999999992600119 0 1 I I #
coedge $-1 -1 $-1 $381 $581 $377 $486 forward $186 $-1 #
edge $586 -1 $-1 $487 -11.875000000138748 $386 4.1249999998612541 $485 $587 reversed @7 unknown #
vertex $-1 -1 $-1 $486 $588 #
straight-curve $-1 -1 $-1 19.943199999907502 -0.44069999999999965 7.5 0 0 -1 I I #
point $-1 -1 $-1 19.943199999907502 -0.44069999999999965 2.5 #
attrib_edge_convexity-kcp-attrib $-1 -1 $589 $-1 $382 1 #
ellipse-curve $-1 -1 $-1 3.9431999999999992 1.5593000000000004 7.5 0 0 1 0 -1.9999999992600119 0 1 I I #
point $-1 -1 $-1 3.9432000007399868 3.5593000051799137 7.5 #
point $-1 -1 $-1 3.9431999999075007 -0.44069999926001158 7.5 #
vertex $-1 -1 $-1 $389 $590 #
straight-curve $-1 -1 $-1 15.943199999630007 3.559300000739988 2.5 -1 3.6999381322810377e-010 0 I I #
convexity-sys-attrib $-1 -1 $-1 $393 $276 #
attrib_edge_convexity-kcp-attrib $-1 -1 $591 $-1 $396 1 #
straight-curve $-1 -1 $-1 16.068199999630007 3.5593000006937388 7.5 -1 3.6999381322810377e-010 0 I I #
edge $-1 -1 $-1 $494 0 $403 2.5 $397 $592 forward @7 unknown #
model_id-kcp-attrib $-1 -1 $-1 $-1 $398 1 1021323258 1021323258 444465153 17 #
coedge $-1 -1 $-1 $509 $400 $579 $593 reversed $370 $-1 #
attrib_edge_convexity-kcp-attrib $-1 -1 $594 $-1 $401 2 #
straight-curve $-1 -1 $-1 17.943200000000001 7.5593000000000004 5 0 1 0 I I #
convexity-sys-attrib $-1 -1 $-1 $402 $285 #
point $-1 -1 $-1 17.943200000000001 3.5593000000000004 5 #
convexity-sys-attrib $-1 -1 $-1 $405 $286 #
point $-1 -1 $-1 17.943200000000001 11.559299995560071 5 #
edge $595 -1 $-1 $512 -11.874999998890019 $510 -9.8749999996300062 $415 $596 reversed @7 unknown #
coedge $-1 -1 $-1 $410 $501 $514 $597 reversed $370 $-1 #
vertex $-1 -1 $-1 $597 $598 #
straight-curve $-1 -1 $-1 17.943200000000001 11.559299995560071 7.5 0 0 1 I I #
vertex $-1 -1 $-1 $508 $599 #
straight-curve $-1 -1 $-1 19.943199999260013 11.559299994820083 7.5 0 0 -1 I I #
coedge $-1 -1 $-1 $600 $415 $509 $597 forward $186 $-1 #
attrib_edge_convexity-kcp-attrib $-1 -1 $601 $-1 $417 1 #
ellipse-curve $-1 -1 $-1 19.943200000000001 13.5593 7.5 0 0 1 0 1.9999999992600119 0 1 I I #
coedge $-1 -1 $-1 $602 $418 $603 $604 forward $298 $-1 #
coedge $-1 -1 $-1 $418 $602 $605 $606 forward $298 $-1 #
coedge $-1 -1 $-1 $431 $430 $418 $520 reversed $432 $-1 #
edge $607 -1 $-1 $608 -10 $609 10 $519 $610 forward @7 unknown #
model_id-kcp-attrib $-1 -1 $-1 $-1 $420 1 1021323258 1021323258 444465153 13 #
face $611 -1 $-1 $612 $613 $7 $-1 $614 reversed single #
loop $-1 -1 $-1 $-1 $528 $420 #
plane-surface $-1 -1 $-1 12.193200000000001 -2.4406999999999996 5 0 1 0 0 0 1 forward_v I I I I #
coedge $-1 -1 $-1 $615 $616 $425 $526 reversed $613 $-1 #
edge $617 -1 $-1 $530 -10 $535 10 $525 $618 reversed @7 unknown #
coedge $-1 -1 $-1 $605 $426 $431 $538 reversed $523 $-1 #
coedge $-1 -1 $-1 $426 $605 $615 $619 forward $523 $-1 #
attrib_edge_convexity-kcp-attrib $-1 -1 $620 $-1 $427 1 #
vertex $-1 -1 $-1 $526 $621 #
straight-curve $-1 -1 $-1 12.068200000000001 -2.4406999999999996 2.5 1 0 0 I I #
coedge $-1 -1 $-1 $603 $428 $616 $622 reversed $534 $-1 #
coedge $-1 -1 $-1 $428 $603 $430 $537 forward $534 $-1 #
loop $-1 -1 $-1 $-1 $533 $612 #
vertex $-1 -1 $-1 $429 $623 #
straight-curve $-1 -1 $-1 12.068200000000001 17.5593 2.5 -1 0 0 I I #
edge $-1 -1 $-1 $609 -2.5 $433 2.5 $430 $624 reversed @7 unknown #
edge $625 -1 $-1 $608 -2.5 $434 2.5 $431 $626 forward @7 unknown #
face $627 -1 $-1 $398 $432 $7 $-1 $628 reversed single #
point $-1 -1 $-1 24.693200000000001 17.5593 2.5 #
point $-1 -1 $-1 24.693200000000001 -2.4406999999999996 2.5 #
face $-1 -1 $-1 $629 $630 $17 $-1 $631 forward single #
loop $-1 -1 $-1 $-1 $632 $440 #
cone-surface $-1 -1 $-1 -8.2500000000000018 -6 0 0 0 1 0 -1.9999999992600119 0 1 I I 0 1 1.9999999992600119 forward I I I I #
coedge $-1 -1 $-1 $633 $634 $635 $636 forward $441 $-1 #
coedge $-1 -1 $-1 $637 $443 $634 $638 reversed $336 $-1 #
coedge $-1 -1 $-1 $443 $637 $444 $551 forward $336 $-1 #
coedge $-1 -1 $-1 $446 $635 $443 $549 reversed $153 $-1 #
edge $-1 -1 $-1 $552 3.6999292532347475e-010 $639 3.1415926536360432 $443 $640 forward @7 unknown #
coedge $-1 -1 $-1 $445 $444 $641 $642 reversed $232 $-1 #
edge $-1 -1 $-1 $643 0 $552 2.5 $547 $644 forward @7 unknown #
vertex $-1 -1 $-1 $551 $645 #
straight-curve $-1 -1 $-1 3.7499999996300062 -3.9999999992600124 2.5 1 -3.6999381322810377e-010 0 I I #
coedge $-1 -1 $-1 $641 $452 $448 $555 forward $353 $-1 #
edge $646 -1 $-1 $454 -5.9999999955600707 $556 2 $448 $647 forward @7 unknown #
vertex $-1 -1 $-1 $555 $648 #
straight-curve $-1 -1 $-1 5.75 -4 0 0 0 1 I I #
point $-1 -1 $-1 5.75 -4 2.5 #
convexity-sys-attrib $-1 -1 $-1 $-1 $453 #
straight-curve $-1 -1 $-1 -4.2499999996300071 3.9999999992600115 0 -1 3.699940352727088e-010 0 I I #
point $-1 -1 $-1 5.75 3.9999999955600707 0 #
coedge $-1 -1 $-1 $460 $649 $650 $651 forward $353 $-1 #
coedge $-1 -1 $-1 $470 $461 $460 $564 reversed $471 $-1 #
edge $652 -1 $-1 $653 2.0000000003699947 $464 4.0000000011099823 $563 $654 forward @7 unknown #
straight-curve $-1 -1 $-1 -8.2500000007399894 4.0000000007399876 0 0 0 1 I I #
point $-1 -1 $-1 -8.2500000007399894 4.0000000007399876 0 #
coedge $-1 -1 $-1 $635 $467 $632 $655 reversed $153 $-1 #
coedge $-1 -1 $-1 $656 $657 $467 $569 forward $630 $-1 #
edge $-1 -1 $-1 $658 -11.99999999889002 $573 -9.999999999630008 $568 $659 forward @7 unknown #
coedge $-1 -1 $-1 $650 $468 $470 $575 reversed $572 $-1 #
coedge $-1 -1 $-1 $468 $650 $656 $660 forward $572 $-1 #
loop $-1 -1 $-1 $-1 $468 $629 #
vertex $-1 -1 $-1 $660 $661 #
straight-curve $-1 -1 $-1 -6.2500000000000018 2 2.5 0 1 0 I I #
edge $-1 -1 $-1 $653 0 $472 2.5 $470 $662 forward @7 unknown #
face $-1 -1 $-1 $359 $471 $17 $-1 $663 forward single #
point $-1 -1 $-1 -6.2500000000000018 4 2.5 #
coedge $-1 -1 $-1 $579 $478 $600 $664 reversed $260 $-1 #
coedge $-1 -1 $-1 $479 $578 $501 $593 forward $260 $-1 #
straight-curve $-1 -1 $-1 15.943199999630007 3.559300000739988 2.5 -1 3.6999381322810377e-010 0 I I #
coedge $-1 -1 $-1 $485 $600 $481 $582 forward $186 $-1 #
edge $665 -1 $-1 $583 3.6999381350189487e-010 $487 3.1415926536360423 $581 $666 reversed @7 unknown #
vertex $-1 -1 $-1 $582 $667 #
straight-curve $-1 -1 $-1 19.943200000739989 3.5592999992600127 7.5 0 0 -1 I I #
point $-1 -1 $-1 19.943200000739989 3.5592999992600123 2.5 #
attrib_edge_convexity-kcp-attrib $-1 -1 $668 $-1 $486 1 #
straight-curve $-1 -1 $-1 8.0681999997687548 -0.44069999945079008 7.5 1 -4.6249226670624921e-011 0 I I #
point $-1 -1 $-1 19.943199999907502 -0.44069999999999965 7.5 #
convexity-sys-attrib $-1 -1 $-1 $490 $382 #
point $-1 -1 $-1 17.943200000000001 3.5593000000000004 2.5 #
convexity-sys-attrib $-1 -1 $-1 $497 $396 #
straight-curve $-1 -1 $-1 17.943200000000001 3.5593000000000004 2.5 0 0 1 I I #
edge $-1 -1 $-1 $669 0 $403 2.5 $501 $670 reversed @7 unknown #
convexity-sys-attrib $-1 -1 $-1 $502 $401 #
attrib_edge_convexity-kcp-attrib $-1 -1 $671 $-1 $508 1 #
straight-curve $-1 -1 $-1 8.0682000003699947 11.559299999213763 7.5 1 -3.699940352727088e-010 0 I I #
edge $672 -1 $-1 $510 -5.9999999955600725 $669 2 $514 $673 reversed @7 unknown #
point $-1 -1 $-1 17.943200000000001 11.559299995560073 7.5 #
point $-1 -1 $-1 19.943199999260013 11.559299994820083 7.5 #
coedge $-1 -1 $-1 $581 $514 $578 $664 forward $186 $-1 #
convexity-sys-attrib $-1 -1 $-1 $515 $417 #
coedge $-1 -1 $-1 $518 $517 $674 $675 forward $298 $-1 #
coedge $-1 -1 $-1 $533 $532 $517 $604 reversed $534 $-1 #
edge $676 -1 $-1 $609 -12.5 $677 12.5 $603 $678 forward @7 unknown #
coedge $-1 -1 $-1 $528 $527 $518 $606 reversed $523 $-1 #
edge $679 -1 $-1 $680 -12.5 $608 12.5 $605 $681 forward @7 unknown #
attrib_edge_convexity-kcp-attrib $-1 -1 $682 $-1 $520 1 #
vertex $-1 -1 $-1 $520 $683 #
vertex $-1 -1 $-1 $520 $684 #
straight-curve $-1 -1 $-1 24.693200000000001 7.5593000000000004 7.5 0 1 0 I I #
model_id-kcp-attrib $-1 -1 $-1 $-1 $522 1 1021323258 1021323258 444465153 14 #
face $685 -1 $-1 $539 $534 $7 $-1 $686 reversed single #
loop $-1 -1 $-1 $-1 $616 $522 #
plane-surface $-1 -1 $-1 -0.30679999999999907 7.5593000000000004 5 1 0 0 0 0 -1 forward_v I I I I #
coedge $-1 -1 $-1 $674 $525 $528 $619 reversed $613 $-1 #
coedge $-1 -1 $-1 $525 $674 $532 $622 forward $613 $-1 #
attrib_edge_convexity-kcp-attrib $-1 -1 $687 $-1 $526 1 #
straight-curve $-1 -1 $-1 -0.30679999999999907 7.5593000000000004 2.5 0 -1 0 I I #
edge $688 -1 $-1 $680 -2.5 $530 2.5 $615 $689 reversed @7 unknown #
convexity-sys-attrib $-1 -1 $-1 $529 $427 #
point $-1 -1 $-1 -0.30679999999999907 -2.4406999999999996 2.5 #
edge $690 -1 $-1 $677 -2.5 $535 2.5 $532 $691 reversed @7 unknown #
point $-1 -1 $-1 -0.30679999999999907 17.5593 2.5 #
straight-curve $-1 -1 $-1 24.693200000000001 17.5593 5 0 0 1 I I #
attrib_edge_convexity-kcp-attrib $-1 -1 $692 $-1 $538 1 #
straight-curve $-1 -1 $-1 24.693200000000001 -2.4406999999999996 5 0 0 -1 I I #
model_id-kcp-attrib $-1 -1 $-1 $-1 $539 1 1021323258 1021323258 444465153 16 #
plane-surface $-1 -1 $-1 24.693200000000001 7.5593000000000004 5 -1 0 0 0 0 1 forward_v I I I I #
face $-1 -1 $-1 $576 $572 $17 $-1 $693 forward single #
loop $-1 -1 $-1 $-1 $568 $542 #
plane-surface $-1 -1 $-1 -8.2499999992600141 -3.9999999948200866 0 3.6999381322810377e-010 1 0 0 0 1 forward_v I I I I #
coedge $-1 -1 $-1 $694 $695 $567 $655 forward $543 $-1 #
coedge $-1 -1 $-1 $696 $545 $695 $697 reversed $441 $-1 #
coedge $-1 -1 $-1 $545 $696 $546 $638 forward $441 $-1 #
coedge $-1 -1 $-1 $548 $567 $545 $636 reversed $153 $-1 #
edge $-1 -1 $-1 $639 -12.000000000138748 $698 3.9999999998612532 $545 $699 forward @7 unknown #
coedge $-1 -1 $-1 $547 $546 $700 $701 reversed $336 $-1 #
edge $-1 -1 $-1 $702 0 $639 2.5 $634 $703 forward @7 unknown #
vertex $-1 -1 $-1 $638 $704 #
ellipse-curve $-1 -1 $-1 7.75 -6 2.5 0 0 -1 0 1.9999999992600119 0 1 I I #
coedge $-1 -1 $-1 $700 $554 $550 $642 forward $353 $-1 #
edge $705 -1 $-1 $556 2.0000000003699938 $643 4.0000000011099814 $550 $706 forward @7 unknown #
vertex $-1 -1 $-1 $642 $707 #
straight-curve $-1 -1 $-1 7.7500000007399859 -4.0000000007399876 0 0 0 1 I I #
point $-1 -1 $-1 7.7500000007399859 -4.0000000007399876 2.5 #
convexity-sys-attrib $-1 -1 $-1 $-1 $555 #
straight-curve $-1 -1 $-1 5.75 -2 0 0 -1 0 I I #
point $-1 -1 $-1 5.75 -4 0 #
coedge $-1 -1 $-1 $562 $708 $709 $710 forward $353 $-1 #
coedge $-1 -1 $-1 $571 $570 $562 $651 reversed $572 $-1 #
edge $711 -1 $-1 $712 -5.9999999955600742 $653 2 $650 $713 forward @7 unknown #
convexity-sys-attrib $-1 -1 $-1 $-1 $564 #
vertex $-1 -1 $-1 $651 $714 #
straight-curve $-1 -1 $-1 -4.2499999996300071 3.9999999992600115 0 -1 3.699940352727088e-010 0 I I #
edge $-1 -1 $-1 $698 4.6249226687736852e-011 $658 3.1415926539597869 $632 $715 forward @7 unknown #
coedge $-1 -1 $-1 $709 $568 $571 $660 reversed $630 $-1 #
coedge $-1 -1 $-1 $568 $709 $694 $716 forward $630 $-1 #
vertex $-1 -1 $-1 $716 $717 #
straight-curve $-1 -1 $-1 3.7499999996300062 -3.9999999992600124 2.5 1 -3.6999381322810377e-010 0 I I #
edge $-1 -1 $-1 $712 0 $573 2.5 $571 $718 forward @7 unknown #
point $-1 -1 $-1 -6.2500000000000018 -3.9999999955600742 2.5 #
straight-curve $-1 -1 $-1 -6.2500000000000018 4 0 0 0 1 I I #
plane-surface $-1 -1 $-1 -6.2500000000000018 4 0 -3.699940352727088e-010 -1 0 0 0 -1 forward_v I I I I #
edge $719 -1 $-1 $669 1.8750000003699938 $583 3.8750000011099814 $600 $720 reversed @7 unknown #
attrib_edge_convexity-kcp-attrib $-1 -1 $721 $-1 $582 1 #
ellipse-curve $-1 -1 $-1 19.943200000000001 1.5593000000000004 7.5 0 0 1 0 1.9999999992600119 0 1 I I #
point $-1 -1 $-1 19.943200000739989 3.5592999992600123 7.5 #
convexity-sys-attrib $-1 -1 $-1 $586 $486 #
vertex $-1 -1 $-1 $664 $722 #
straight-curve $-1 -1 $-1 17.943200000000001 3.5593000000000004 7.5 0 0 1 I I #
convexity-sys-attrib $-1 -1 $-1 $595 $508 #
attrib_edge_convexity-kcp-attrib $-1 -1 $723 $-1 $597 1 #
straight-curve $-1 -1 $-1 17.943200000000001 5.5593000000000004 7.5 0 1 0 I I #
coedge $-1 -1 $-1 $616 $615 $602 $675 reversed $613 $-1 #
edge $724 -1 $-1 $677 -10 $680 10 $674 $725 forward @7 unknown #
attrib_edge_convexity-kcp-attrib $-1 -1 $726 $-1 $604 1 #
vertex $-1 -1 $-1 $604 $727 #
straight-curve $-1 -1 $-1 12.193200000000001 17.5593 7.5 -1 0 0 I I #
attrib_edge_convexity-kcp-attrib $-1 -1 $728 $-1 $606 1 #
vertex $-1 -1 $-1 $675 $729 #
straight-curve $-1 -1 $-1 12.193200000000001 -2.4406999999999996 7.5 1 0 0 I I #
convexity-sys-attrib $-1 -1 $-1 $607 $520 #
point $-1 -1 $-1 24.693200000000001 -2.4406999999999996 7.5 #
point $-1 -1 $-1 24.693200000000001 17.5593 7.5 #
model_id-kcp-attrib $-1 -1 $-1 $-1 $612 1 1021323258 1021323258 444465153 15 #
plane-surface $-1 -1 $-1 12.193200000000001 17.5593 5 0 -1 0 0 0 -1 forward_v I I I I #
convexity-sys-attrib $-1 -1 $-1 $617 $526 #
attrib_edge_convexity-kcp-attrib $-1 -1 $730 $-1 $619 1 #
straight-curve $-1 -1 $-1 -0.30679999999999907 -2.4406999999999996 5 0 0 1 I I #
attrib_edge_convexity-kcp-attrib $-1 -1 $731 $-1 $622 1 #
straight-curve $-1 -1 $-1 -0.30679999999999907 17.5593 5 0 0 1 I I #
convexity-sys-attrib $-1 -1 $-1 $625 $538 #
plane-surface $-1 -1 $-1 -6.2500000000000018 -3.9999999955600742 0 -1 0 0 0 0 1 forward_v I I I I #
coedge $-1 -1 $-1 $732 $632 $657 $716 reversed $543 $-1 #
coedge $-1 -1 $-1 $632 $732 $633 $697 forward $543 $-1 #
coedge $-1 -1 $-1 $634 $633 $733 $734 reversed $441 $-1 #
edge $-1 -1 $-1 $735 0 $698 2.5 $695 $736 forward @7 unknown #
vertex $-1 -1 $-1 $697 $737 #
straight-curve $-1 -1 $-1 -4.250000000231247 -7.9999999994450093 2.5 -1 4.6249226670624921e-011 0 I I #
coedge $-1 -1 $-1 $733 $641 $637 $701 forward $353 $-1 #
edge $738 -1 $-1 $643 3.6999381350189481e-010 $702 3.1415926536360423 $637 $739 forward @7 unknown #
vertex $-1 -1 $-1 $701 $740 #
straight-curve $-1 -1 $-1 7.7499999999074998 -8 0 0 0 1 I I #
point $-1 -1 $-1 7.7499999999074998 -8 2.5 #
convexity-sys-attrib $-1 -1 $-1 $-1 $642 #
straight-curve $-1 -1 $-1 3.7499999996300062 -3.9999999992600124 0 1 -3.6999381322810377e-010 0 I I #
point $-1 -1 $-1 7.7500000007399876 -4.0000000007399876 0 #
coedge $-1 -1 $-1 $649 $733 $732 $741 forward $353 $-1 #
coedge $-1 -1 $-1 $657 $656 $649 $710 reversed $630 $-1 #
edge $742 -1 $-1 $743 -11.99999999889002 $712 -9.999999999630008 $709 $744 forward @7 unknown #
convexity-sys-attrib $-1 -1 $-1 $-1 $651 #
vertex $-1 -1 $-1 $710 $745 #
straight-curve $-1 -1 $-1 -6.2500000000000018 2 0 0 1 0 I I #
point $-1 -1 $-1 -6.2500000000000018 4 0 #
ellipse-curve $-1 -1 $-1 -8.2500000000000018 -6 2.5 0 0 -1 0 -1.9999999992600119 0 1 I I #
edge $-1 -1 $-1 $743 0 $658 2.5 $657 $746 forward @7 unknown #
point $-1 -1 $-1 -8.2499999992600141 -3.9999999948200866 2.5 #
straight-curve $-1 -1 $-1 -6.2500000000000018 -3.9999999955600742 0 0 0 1 I I #
attrib_edge_convexity-kcp-attrib $-1 -1 $747 $-1 $664 1 #
straight-curve $-1 -1 $-1 16.068199999630007 3.5593000006937388 7.5 -1 3.6999381322810377e-010 0 I I #
convexity-sys-attrib $-1 -1 $-1 $665 $582 #
point $-1 -1 $-1 17.943200000000001 3.5593000000000004 7.5 #
convexity-sys-attrib $-1 -1 $-1 $672 $597 #
attrib_edge_convexity-kcp-attrib $-1 -1 $748 $-1 $675 1 #
straight-curve $-1 -1 $-1 -0.30679999999999907 7.5593000000000004 7.5 0 -1 0 I I #
convexity-sys-attrib $-1 -1 $-1 $676 $604 #
point $-1 -1 $-1 -0.30679999999999907 17.5593 7.5 #
convexity-sys-attrib $-1 -1 $-1 $679 $606 #
point $-1 -1 $-1 -0.30679999999999907 -2.4406999999999996 7.5 #
convexity-sys-attrib $-1 -1 $-1 $688 $619 #
convexity-sys-attrib $-1 -1 $-1 $690 $622 #
coedge $-1 -1 $-1 $695 $694 $708 $741 reversed $543 $-1 #
coedge $-1 -1 $-1 $708 $700 $696 $734 forward $353 $-1 #
edge $749 -1 $-1 $702 -12.000000000138748 $735 3.9999999998612532 $696 $750 forward @7 unknown #
vertex $-1 -1 $-1 $734 $751 #
straight-curve $-1 -1 $-1 -8.2500000000925002 -7.9999999992600124 0 0 0 1 I I #
point $-1 -1 $-1 -8.2500000000925002 -7.9999999992600124 2.5 #
convexity-sys-attrib $-1 -1 $-1 $-1 $701 #
ellipse-curve $-1 -1 $-1 7.75 -6 0 0 0 -1 0 1.9999999992600119 0 1 I I #
point $-1 -1 $-1 7.7499999999075015 -8 0 #
edge $752 -1 $-1 $735 4.6249226687736852e-011 $743 3.1415926539597869 $732 $753 forward @7 unknown #
convexity-sys-attrib $-1 -1 $-1 $-1 $710 #
vertex $-1 -1 $-1 $741 $754 #
straight-curve $-1 -1 $-1 3.7499999996300062 -3.9999999992600124 0 1 -3.6999381322810377e-010 0 I I #
point $-1 -1 $-1 -6.2500000000000018 -3.9999999955600742 0 #
straight-curve $-1 -1 $-1 -8.2499999992600141 -3.9999999948200866 0 0 0 1 I I #
convexity-sys-attrib $-1 -1 $-1 $719 $664 #
convexity-sys-attrib $-1 -1 $-1 $724 $675 #
convexity-sys-attrib $-1 -1 $-1 $-1 $734 #
straight-curve $-1 -1 $-1 -4.250000000231247 -7.9999999994450093 0 -1 4.6249226670624921e-011 0 I I #
point $-1 -1 $-1 -8.2500000000925002 -7.9999999992600124 0 #
convexity-sys-attrib $-1 -1 $-1 $-1 $741 #
ellipse-curve $-1 -1 $-1 -8.2500000000000018 -6 0 0 0 -1 0 -1.9999999992600119 0 1 I I #
point $-1 -1 $-1 -8.2499999992600141 -3.9999999948200866 0 #
End-of-ACIS-data 