600 0 1 0           
85 GICL ACIS Healer - Source: /gicl/data5/repository/CMU/scanner-2/gimble-ring.sat - 6 0 18 ACIS 6.0.3 Solaris 24 Sat Apr 13 00:28:29 2002 
1 9.999999999999999547e-07 1.000000000000000036e-10 
body $-1 $1 $-1 $-1 #
lump $-1 $-1 $2 $0 #
shell $-1 $-1 $-1 $3 $-1 $1 #
face $-1 $4 $5 $2 $-1 $6 reversed single #
face $-1 $7 $8 $2 $-1 $9 reversed single #
loop $-1 $10 $11 $3 #
plane-surface $-1 11.96400000000000041 7.580099999999998062 7.5 0 0 1 -3.749151804555343599e-33 -1 0 forward_v I I I I #
face $-1 $12 $13 $2 $-1 $14 reversed single #
loop $-1 $15 $16 $4 #
cone-surface $-1 11.96400000000000041 7.580099999999998062 6.25 0 0 1 -5.623727706833015399e-33 -1.5 0 1 I I 0 1 1.5 forward I I I I #
loop $-1 $-1 $17 $3 #
coedge $-1 $11 $11 $18 $19 reversed $5 $-1 #
face $-1 $20 $21 $2 $-1 $22 reversed single #
loop $-1 $23 $24 $7 #
cone-surface $-1 11.96400000000000041 7.580099999999998062 10 0 0 1 -3.749151804555343599e-33 -1 0 1 I I 0 1 1 forward I I I I #
loop $-1 $-1 $18 $4 #
coedge $-1 $16 $16 $25 $26 reversed $8 $-1 #
coedge $-1 $17 $17 $27 $28 forward $10 $-1 #
coedge $-1 $18 $18 $11 $19 forward $15 $-1 #
edge $-1 $29 3.749151804555343599e-33 $29 6.283185307179586232 $11 $30 forward 7 unknown #
face $-1 $31 $32 $2 $-1 $33 reversed single #
loop $-1 $34 $35 $12 #
plane-surface $-1 11.96400000000000574 7.580100000000001614 23 -1.984478214696607823e-30 -2.83274922616150171e-16 -1 -1.269910057080333641e-33 1 -2.83274922616150171e-16 forward_v I I I I #
loop $-1 $-1 $27 $7 #
coedge $-1 $24 $24 $36 $37 reversed $13 $-1 #
coedge $-1 $25 $25 $16 $26 forward $38 $-1 #
edge $-1 $39 -3.141592653589800221 $39 3.141592653589786011 $25 $40 forward 7 unknown #
coedge $-1 $27 $27 $17 $28 reversed $23 $-1 #
edge $-1 $41 -3.141592653589800221 $41 3.141592653589786011 $27 $42 forward 7 unknown #
vertex $-1 $19 $43 #
ellipse-curve $-1 11.96400000000000041 7.580099999999998062 7.5 0 0 1 -5.623727706833015399e-33 -1.5 0 1 I I #
face $-1 $44 $45 $2 $-1 $46 reversed single #
loop $-1 $47 $48 $20 #
cone-surface $-1 11.96400000000000574 7.580100000000001614 24.5 -1.984478214696607823e-30 -2.83274922616150171e-16 -1 8.516221472837308538e-33 3 -8.49824767848450513e-16 1 I I 0 1 3 forward I I I I #
loop $-1 $-1 $49 $12 #
coedge $-1 $35 $35 $50 $51 reversed $21 $-1 #
coedge $-1 $36 $36 $24 $37 forward $52 $-1 #
edge $-1 $53 -3.141592653589800221 $53 3.141592653589786011 $36 $54 forward 7 unknown #
loop $-1 $55 $25 $56 #
vertex $-1 $26 $57 #
ellipse-curve $-1 11.96400000000000041 7.580099999999998062 5.000000000000000888 6.123031769111886291e-17 6.123031769111886291e-17 1 -5.623727706833015399e-33 -1.5 0 1 I I #
vertex $-1 $28 $58 #
ellipse-curve $-1 11.96400000000000041 7.580099999999998062 7.5 0 0 1 -3.749151804555343599e-33 -1 0 1 I I #
point $-1 11.96400000000000041 6.080099999999998062 7.5 #
face $-1 $59 $60 $2 $-1 $61 reversed single #
loop $-1 $62 $63 $31 #
cone-surface $-1 11.96400000000000574 7.580100000000000726 21 -1.984478214696607823e-30 -2.83274922616150171e-16 -1 4.258110736418654269e-33 1.5 -4.249123839242252565e-16 1 I I 0 1 1.5 forward I I I I #
loop $-1 $-1 $50 $20 #
coedge $-1 $48 $48 $64 $65 reversed $32 $-1 #
coedge $-1 $49 $49 $66 $67 forward $34 $-1 #
coedge $-1 $50 $50 $35 $51 forward $47 $-1 #
edge $-1 $68 -2.838740490946331378e-33 $68 6.283185307179586232 $35 $69 forward 7 unknown #
loop $-1 $70 $36 $71 #
vertex $-1 $37 $72 #
ellipse-curve $-1 11.96400000000000041 7.580099999999998062 10.08392021690038476 0 0 -1 6.123031769111886291e-17 -1 6.123031769111886291e-17 1 I I #
loop $-1 $-1 $73 $56 #
face $-1 $74 $38 $2 $-1 $75 reversed single #
point $-1 11.96400000000001107 9.080099999999998062 5.000000000000000888 #
point $-1 11.96400000000000752 8.580099999999998062 7.5 #
face $-1 $76 $77 $2 $-1 $61 reversed single #
loop $-1 $-1 $78 $44 #
plane-surface $-1 11.96400000000000041 7.580100000000000726 20 0 0 1 -1 -3.749151804555343599e-33 0 forward_v I I I I #
loop $-1 $-1 $66 $31 #
coedge $-1 $63 $63 $79 $80 reversed $45 $-1 #
coedge $-1 $64 $64 $48 $65 forward $81 $-1 #
edge $-1 $82 -3.141592653589800221 $82 3.141592653589786011 $64 $83 forward 7 unknown #
coedge $-1 $66 $66 $49 $67 reversed $62 $-1 #
edge $-1 $84 -3.141592653589800221 $84 3.141592653589786011 $66 $85 forward 7 unknown #
vertex $-1 $51 $86 #
ellipse-curve $-1 11.96400000000000574 7.580100000000001614 23 -1.984478214696607823e-30 -2.83274922616150171e-16 -1 8.516221472837308538e-33 3 -8.49824767848450513e-16 1 I I #
loop $-1 $-1 $87 $71 #
face $-1 $88 $52 $2 $-1 $89 reversed single #
point $-1 11.96399999999999331 8.580099999999998062 10.08392021690038476 #
coedge $-1 $90 $91 $92 $93 forward $55 $-1 #
face $-1 $-1 $94 $2 $-1 $95 forward single #
plane-surface $-1 13.1639999999999997 8.380100000000000549 5.000000000000000888 6.123031769111886291e-17 6.123031769111886291e-17 1 -1 -6.123031769111886291e-17 6.123031769111886291e-17 forward_v I I I I #
face $-1 $96 $97 $2 $-1 $98 reversed single #
loop $-1 $-1 $99 $59 #
coedge $-1 $100 $101 $102 $103 reversed $60 $-1 #
coedge $-1 $79 $79 $63 $80 forward $104 $-1 #
edge $-1 $105 -3.141592653589800221 $105 3.141592653589786011 $79 $106 forward 7 unknown #
loop $-1 $107 $64 $108 #
vertex $-1 $65 $109 #
ellipse-curve $-1 11.96400000000000574 7.580100000000001614 25.53939201416945792 -1.984478214696607823e-30 -2.83274922616150171e-16 -1 -1.836909530733566134e-16 3.000000000000000444 -1.836909530733566134e-16 1 I I #
vertex $-1 $67 $110 #
ellipse-curve $-1 11.96400000000000574 7.580100000000001614 23 -1.984478214696607823e-30 -2.83274922616150171e-16 -1 4.258110736418654269e-33 1.5 -4.249123839242252565e-16 1 I I #
point $-1 11.96400000000000574 10.58010000000000161 23 #
coedge $-1 $111 $112 $113 $114 forward $70 $-1 #
face $-1 $108 $104 $2 $-1 $89 reversed single #
sphere-surface $-1 11.96400000000000219 7.580100000000000726 16 6 -3.749151804555343599e-33 -1 0 0 0 1 forward_v I I I I #
coedge $-1 $115 $73 $116 $117 forward $55 $-1 #
coedge $-1 $73 $115 $118 $119 forward $55 $-1 #
coedge $-1 $120 $121 $73 $93 reversed $122 $-1 #
edge $-1 $123 -4 $124 12.00000000000000178 $73 $125 forward 7 unknown #
loop $-1 $126 $127 $74 #
plane-surface $-1 17.96400000000000219 11.58010000000000161 7.5 0 0 1 -1 -6.123031769111886291e-17 0 forward_v I I I I #
face $-1 $128 $129 $2 $-1 $130 reversed single #
loop $-1 $-1 $131 $76 #
plane-surface $-1 11.96400000000000041 7.580100000000000726 12 0 0 -1 1 3.749151804555343599e-33 0 forward_v I I I I #
coedge $-1 $132 $133 $134 $135 reversed $77 $-1 #
coedge $-1 $136 $78 $137 $138 reversed $60 $-1 #
coedge $-1 $78 $136 $139 $140 forward $60 $-1 #
coedge $-1 $141 $142 $78 $103 forward $143 $-1 #
edge $-1 $144 -3.999999999999998224 $145 -2.999999999999994671 $102 $146 forward 7 unknown #
loop $-1 $147 $79 $88 #
vertex $-1 $80 $148 #
ellipse-curve $-1 11.96400000000000574 7.580100000000000726 21.80947501931112598 1.984478214696607823e-30 2.83274922616150171e-16 1 -3.138900814617096025e-16 1.5 -9.184547653667828204e-17 1 I I #
loop $-1 $-1 $149 $108 #
face $-1 $150 $81 $2 $-1 $151 forward single #
point $-1 11.96400000000002706 4.580100000000001614 25.53939201416945792 #
point $-1 11.9640000000000164 6.080100000000001614 23 #
coedge $-1 $152 $87 $153 $154 forward $70 $-1 #
coedge $-1 $87 $152 $155 $156 forward $70 $-1 #
coedge $-1 $157 $158 $87 $114 reversed $159 $-1 #
edge $-1 $160 0.4636476090008063156 $161 2.677945044588986967 $87 $162 forward 7 unknown #
coedge $-1 $91 $90 $163 $164 forward $55 $-1 #
coedge $-1 $165 $166 $90 $117 reversed $167 $-1 #
edge $-1 $124 0 $168 11.99999999999999822 $90 $169 forward 7 unknown #
coedge $-1 $170 $171 $91 $119 reversed $172 $-1 #
edge $-1 $173 0 $123 12 $91 $174 forward 7 unknown #
coedge $-1 $175 $92 $171 $176 forward $122 $-1 #
coedge $-1 $92 $175 $165 $177 reversed $122 $-1 #
loop $-1 $-1 $175 $178 #
vertex $-1 $119 $179 #
vertex $-1 $93 $180 #
straight-curve $-1 17.96399999999999864 11.58010000000000161 5 6.123031769111886291e-17 -1 6.123031769111886291e-17 I I #
loop $-1 $-1 $181 $74 #
coedge $-1 $182 $183 $184 $185 forward $94 $-1 #
face $-1 $186 $187 $2 $-1 $130 reversed single #
loop $-1 $-1 $188 $96 #
torus-surface $-1 11.96400000000000041 7.580100000000000726 17 0 0 1 5 3 -1 -3.749151804555343599e-33 0 forward_v I I I I #
coedge $-1 $189 $190 $191 $192 reversed $97 $-1 #
coedge $-1 $193 $99 $194 $195 forward $77 $-1 #
coedge $-1 $99 $193 $196 $197 reversed $77 $-1 #
coedge $-1 $142 $198 $99 $135 forward $143 $-1 #
edge $-1 $199 -8.999999999999998224 $200 -7.999999999999998224 $134 $146 forward 7 unknown #
coedge $-1 $101 $100 $201 $202 reversed $60 $-1 #
coedge $-1 $203 $204 $100 $138 forward $147 $-1 #
edge $-1 $205 -2.677945044588986967 $144 -0.4636476090008063156 $137 $206 forward 7 unknown #
coedge $-1 $207 $188 $101 $140 reversed $129 $-1 #
edge $-1 $208 2.214297435588180818 $145 4.068887871591404526 $101 $209 forward 7 unknown #
coedge $-1 $210 $102 $188 $211 forward $143 $-1 #
coedge $-1 $102 $134 $203 $212 reversed $143 $-1 #
loop $-1 $213 $134 $150 #
vertex $-1 $212 $214 #
vertex $-1 $211 $215 #
straight-curve $-1 5.964000000000003965 11.58009999999999984 20 -1 -3.749151804555343599e-33 0 I I #
loop $-1 $-1 $196 $88 #
point $-1 11.96399999999999508 6.080100000000000726 21.80947501931112598 #
coedge $-1 $216 $217 $182 $218 reversed $107 $-1 #
face $-1 $219 $143 $2 $-1 $220 reversed single #
sphere-surface $-1 11.96400000000000219 7.580100000000000726 16 10 -3.749151804555343599e-33 -1 0 0 0 1 forward_v I I I I #
coedge $-1 $112 $111 $190 $221 forward $70 $-1 #
coedge $-1 $222 $191 $111 $154 reversed $143 $-1 #
edge $-1 $161 2.677945044588986967 $223 3.605240262590599265 $111 $224 forward 7 unknown #
coedge $-1 $225 $226 $112 $156 reversed $227 $-1 #
edge $-1 $228 -0.4636476090008063156 $160 0.4636476090008064821 $112 $229 forward 7 unknown #
coedge $-1 $230 $113 $226 $231 reversed $159 $-1 #
coedge $-1 $113 $230 $222 $232 reversed $159 $-1 #
loop $-1 $-1 $158 $233 #
vertex $-1 $231 $234 #
vertex $-1 $154 $235 #
ellipse-curve $-1 11.96400000000000219 7.580100000000000726 12 0 0 1 2.738303052824995198e-16 -4.47213595499957961 0 1 I I #
coedge $-1 $236 $237 $115 $164 reversed $238 $-1 #
edge $-1 $168 0 $173 16 $115 $239 forward 7 unknown #
coedge $-1 $240 $116 $121 $177 forward $167 $-1 #
coedge $-1 $116 $240 $236 $241 reversed $167 $-1 #
loop $-1 $-1 $240 $219 #
vertex $-1 $117 $242 #
straight-curve $-1 17.96399999999999864 -0.419900000000000162 5.000000000000000888 -1 -6.123031769111886291e-17 6.123031769111886291e-17 I I #
coedge $-1 $243 $118 $237 $244 forward $172 $-1 #
coedge $-1 $118 $243 $120 $176 reversed $172 $-1 #
loop $-1 $-1 $243 $245 #
vertex $-1 $164 $246 #
straight-curve $-1 5.963999999999999524 15.58010000000000161 5.000000000000000888 1 6.123031769111886291e-17 -6.123031769111886291e-17 I I #
coedge $-1 $121 $120 $247 $248 forward $122 $-1 #
edge $-1 $123 0 $249 2.5 $120 $250 forward 7 unknown #
edge $-1 $124 0 $251 2.499999999999999112 $165 $252 forward 7 unknown #
face $-1 $56 $122 $2 $-1 $253 forward single #
point $-1 17.96399999999999864 15.58010000000000161 5 #
point $-1 17.96399999999999864 -0.419900000000000162 5.000000000000000888 #
coedge $-1 $247 $254 $240 $255 reversed $126 $-1 #
coedge $-1 $256 $127 $149 $218 forward $94 $-1 #
coedge $-1 $127 $256 $257 $258 forward $94 $-1 #
coedge $-1 $259 $259 $127 $185 reversed $213 $-1 #
edge $-1 $260 -0.427827300200522842 $261 6.427827300200519289 $127 $262 forward 7 unknown #
face $-1 $263 $264 $2 $-1 $265 reversed single #
loop $-1 $-1 $266 $128 #
coedge $-1 $139 $267 $141 $211 reversed $129 $-1 #
coedge $-1 $268 $131 $269 $270 forward $97 $-1 #
coedge $-1 $131 $271 $152 $221 reversed $97 $-1 #
coedge $-1 $153 $272 $131 $192 forward $143 $-1 #
edge $-1 $273 2.999999999999997335 $223 3.999999999999999112 $191 $274 forward 7 unknown #
coedge $-1 $133 $132 $275 $276 reversed $77 $-1 #
coedge $-1 $266 $277 $132 $195 reversed $187 $-1 #
edge $-1 $199 -0.9272952180016116319 $278 0.927295218001612187 $132 $209 forward 7 unknown #
coedge $-1 $204 $203 $133 $197 forward $147 $-1 #
edge $-1 $200 0.4636476090008064821 $279 2.677945044588986967 $196 $206 forward 7 unknown #
coedge $-1 $134 $280 $266 $281 forward $143 $-1 #
vertex $-1 $281 $282 #
vertex $-1 $197 $283 #
coedge $-1 $284 $285 $136 $202 forward $227 $-1 #
edge $-1 $208 -3 $205 -2 $201 $286 forward 7 unknown #
coedge $-1 $196 $137 $142 $212 forward $147 $-1 #
coedge $-1 $137 $196 $284 $287 forward $147 $-1 #
vertex $-1 $202 $288 #
ellipse-curve $-1 11.96400000000000219 7.580100000000000726 20 0 0 -1 -2.738303052824995198e-16 4.47213595499957961 0 1 I I #
coedge $-1 $267 $139 $285 $289 reversed $129 $-1 #
vertex $-1 $289 $290 #
ellipse-curve $-1 11.96400000000000041 7.580100000000000726 20 0 0 -1 5 1.8745759022776718e-32 0 1 I I #
coedge $-1 $272 $141 $291 $292 forward $143 $-1 #
edge $-1 $145 19.27306054473766395 $293 24.6016276609552591 $141 $294 forward 7 unknown #
edge $-1 $144 -0.4636476090008060935 $200 0.4636476090008060935 $203 $224 forward 7 unknown #
loop $-1 $-1 $184 $150 #
point $-1 9.964000000000002188 11.58009999999999806 20 #
point $-1 8.963999999999998636 11.58009999999999806 20 #
coedge $-1 $257 $149 $259 $295 forward $107 $-1 #
coedge $-1 $149 $257 $296 $297 forward $107 $-1 #
edge $-1 $261 0.70851902023937674 $298 2.433073633350417264 $182 $299 forward 7 unknown #
face $-1 $300 $167 $2 $-1 $301 forward single #
plane-surface $-1 -0.03599999999999425881 11.58009999999999984 16 -3.749151804555343599e-33 -1 0 0 0 -1 forward_v I I I I #
edge $-1 $223 -2.677945044588986967 $228 -0.4636476090008060935 $152 $162 forward 7 unknown #
coedge $-1 $302 $153 $158 $232 forward $143 $-1 #
vertex $-1 $221 $303 #
ellipse-curve $-1 11.96400000000000219 11.58009999999999806 16 3.749151804555343599e-33 1 0 0 0 4.47213595499957961 1 I I #
coedge $-1 $304 $155 $271 $305 forward $227 $-1 #
coedge $-1 $155 $306 $157 $231 forward $227 $-1 #
loop $-1 $-1 $275 $307 #
vertex $-1 $156 $308 #
ellipse-curve $-1 11.96400000000000219 3.580100000000000726 16 -3.749151804555343599e-33 -1 0 0 0 -4.47213595499957961 1 I I #
coedge $-1 $158 $157 $309 $310 forward $159 $-1 #
edge $-1 $311 -2.999999999999998224 $160 -2.000000000000001776 $226 $312 forward 7 unknown #
edge $-1 $161 7.999999999999999112 $313 9 $222 $274 forward 7 unknown #
face $-1 $307 $159 $2 $-1 $98 reversed single #
point $-1 13.96400000000000396 3.580099999999999838 12 #
point $-1 13.96400000000000219 11.58009999999999806 12 #
coedge $-1 $314 $163 $166 $241 forward $238 $-1 #
coedge $-1 $163 $314 $170 $244 reversed $238 $-1 #
loop $-1 $-1 $314 $300 #
straight-curve $-1 5.964000000000000412 -0.419900000000000162 5.000000000000001776 -6.123031769111886291e-17 1 -6.123031769111886291e-17 I I #
coedge $-1 $166 $165 $181 $255 forward $167 $-1 #
edge $-1 $168 0 $315 2.499999999999998224 $236 $316 forward 7 unknown #
point $-1 5.964000000000000412 -0.419900000000000162 5.000000000000001776 #
coedge $-1 $171 $170 $317 $318 forward $172 $-1 #
edge $-1 $173 0 $319 2.499999999999999112 $170 $320 forward 7 unknown #
face $-1 $178 $172 $2 $-1 $321 forward single #
point $-1 5.963999999999999524 15.58010000000000161 5.000000000000000888 #
coedge $-1 $317 $181 $175 $248 reversed $126 $-1 #
edge $-1 $249 -4 $251 12.00000000000000178 $175 $322 forward 7 unknown #
vertex $-1 $176 $323 #
straight-curve $-1 17.96399999999999864 15.58010000000000161 5 0 0 1 I I #
vertex $-1 $177 $324 #
straight-curve $-1 17.96399999999999864 -0.419900000000000162 5.000000000000000888 0 0 1 I I #
plane-surface $-1 17.96399999999999864 11.58010000000000161 5 1 6.123031769111886291e-17 0 0 6.123031769111886291e-17 1 forward_v I I I I #
coedge $-1 $181 $317 $314 $325 reversed $126 $-1 #
edge $-1 $251 -1.087668936092691448e-31 $315 11.99999999999999822 $240 $326 forward 7 unknown #
coedge $-1 $183 $182 $327 $328 forward $94 $-1 #
coedge $-1 $217 $216 $183 $258 reversed $107 $-1 #
edge $-1 $329 -2.433073633350417708 $260 -0.70851902023937674 $183 $299 forward 7 unknown #
coedge $-1 $184 $184 $216 $295 reversed $213 $-1 #
vertex $-1 $185 $330 #
vertex $-1 $185 $331 #
straight-curve $-1 8.964000000000003965 11.58009999999999984 7.499999999999999112 1 3.749151804555343599e-33 0 I I #
face $-1 $332 $333 $2 $-1 $334 reversed single #
loop $-1 $-1 $291 $186 #
cone-surface $-1 11.96400000000000041 7.580100000000000726 16 0 0 1 -8 -2.999321443644274879e-32 0 1 I I 0 1 8 forward I I I I #
coedge $-1 $335 $194 $198 $281 reversed $187 $-1 #
coedge $-1 $188 $207 $336 $337 reversed $129 $-1 #
coedge $-1 $271 $189 $338 $339 forward $97 $-1 #
coedge $-1 $340 $338 $189 $270 reversed $333 $-1 #
edge $-1 $273 2.214297435588181262 $341 3.141592653589800221 $189 $342 forward 7 unknown #
coedge $-1 $190 $268 $225 $305 reversed $97 $-1 #
coedge $-1 $191 $210 $340 $343 forward $143 $-1 #
vertex $-1 $343 $344 #
straight-curve $-1 5.964000000000003077 11.58009999999999984 12.00000000000000178 1 3.749151804555343599e-33 0 I I #
coedge $-1 $345 $284 $193 $276 forward $227 $-1 #
edge $-1 $279 2.000000000000001776 $278 2.999999999999998224 $275 $286 forward 7 unknown #
coedge $-1 $194 $335 $345 $346 reversed $187 $-1 #
vertex $-1 $346 $347 #
vertex $-1 $287 $348 #
coedge $-1 $198 $302 $349 $350 forward $143 $-1 #
edge $-1 $351 8.200542553651754218 $199 13.52910966986934937 $198 $352 forward 7 unknown #
point $-1 14.96400000000000219 11.58009999999999806 20 #
point $-1 13.96400000000000219 11.58009999999999806 20 #
coedge $-1 $275 $201 $204 $287 reversed $227 $-1 #
coedge $-1 $201 $353 $207 $289 forward $227 $-1 #
straight-curve $-1 11.96400000000000219 3.580100000000000726 20 1 3.749151804555343599e-33 0 I I #
edge $-1 $279 2.677945044588986967 $205 3.605240262590599265 $204 $229 forward 7 unknown #
point $-1 9.964000000000002188 3.580100000000000726 20 #
edge $-1 $354 8.200542553651754218 $208 13.52910966986935115 $285 $355 forward 7 unknown #
point $-1 8.964000000000002188 3.580100000000000726 20 #
coedge $-1 $336 $356 $210 $292 reversed $264 $-1 #
edge $-1 $293 -1 $357 1 $210 $358 forward 7 unknown #
vertex $-1 $292 $359 #
intcurve-curve $-1 forward { surfintcur full nubs 3 open 9 
	19.27306054473766395 3 20.41452193128331061 2 21.75233420594324585 2 22.51087026526532497 2 23.26940632458740055 2 
	23.60734673909101033 2 23.94528715359462012 2 24.27345740727493961 2 24.6016276609552591 3 
	8.963999999999998636 11.58009999999999806 20 
	8.566288503326259018 11.58009999999999806 20 
	8.174969003680962132 11.58009999999999984 19.97075804859579762 
	7.357593261517726191 11.58009999999999984 19.81311369180842874 
	6.936786693872801557 11.58009999999999806 19.66995424891841893 
	6.329374385382750212 11.58009999999999806 19.32448694465388073 
	6.104286966480136023 11.58009999999999984 19.16296099617886384 
	5.708225342035492034 11.58009999999999984 18.7846608229519596 
	5.537458778476465504 11.58009999999999984 18.56766926699089382 
	5.351670848475882813 11.58009999999999984 18.25291958457147956 
	5.295156120155777302 11.58009999999999984 18.14282783572699032 
	5.198590604049728725 11.58009999999999984 17.91567330715531625 
	5.158561169303101934 11.58009999999999984 17.79860145064375487 
	5.099923386101147926 11.58009999999999984 17.584447322424829 
	5.075236799287008438 11.58009999999999984 17.46684730961994347 
	5.043169836383299298 11.58009999999999984 17.22931918405577889 
	5.035796769724489863 11.58009999999999984 17.10939008456010768 
	5.035796769724489863 11.58009999999999984 17 
	0.001000000000000000021 
	torus 11.96400000000000041 7.580100000000000726 17 0 0 1 5 3 -1 -3.749151804555343599e-33 0 forward_v I I I I 
	plane -0.03599999999999425881 11.58009999999999984 16 3.749151804555343599e-33 1 0 0 0 -1 reverse_v I I I I 
	nullbs 
	nullbs 
	F 19.27306054473766395 F 24.6016276609552591 
	0 
	2 19.27306054473766395 24.6016276609552591 
	0 
	} I I #
edge $-1 $261 -2.7582672249714979 $260 2.7582672249714979 $216 $360 forward 7 unknown #
coedge $-1 $327 $327 $217 $297 reversed $361 $-1 #
edge $-1 $329 0.3833254286182946058 $298 5.89985987856129146 $217 $362 forward 7 unknown #
vertex $-1 $328 $363 #
ellipse-curve $-1 11.96400000000000219 7.580100000000000726 7.500000000000000888 0 0 -1 -3.225507131854009151e-16 5.267826876426369154 0 1 I I #
face $-1 $245 $238 $2 $-1 $364 forward single #
plane-surface $-1 17.96399999999999864 -0.419900000000000162 5.000000000000000888 6.123031769111886291e-17 -1 0 -6.123031769111886291e-17 0 -1 forward_v I I I I #
coedge $-1 $280 $222 $365 $366 forward $143 $-1 #
point $-1 9.964000000000002188 11.58009999999999806 12 #
coedge $-1 $353 $225 $367 $368 forward $227 $-1 #
edge $-1 $228 2 $369 3.000000000000001776 $225 $312 forward 7 unknown #
coedge $-1 $226 $370 $371 $372 forward $227 $-1 #
face $-1 $71 $361 $2 $-1 $373 reversed single #
point $-1 9.964000000000002188 3.580099999999999838 12.00000000000000178 #
coedge $-1 $371 $365 $230 $310 reversed $374 $-1 #
edge $-1 $311 -0.9272952180016122981 $313 0.927295218001611854 $230 $342 forward 7 unknown #
vertex $-1 $372 $375 #
straight-curve $-1 11.96400000000000219 3.580099999999999838 12 -1 -3.749151804555343599e-33 0 I I #
vertex $-1 $366 $376 #
coedge $-1 $237 $236 $254 $325 forward $238 $-1 #
vertex $-1 $241 $377 #
straight-curve $-1 5.964000000000000412 -0.419900000000000162 5.000000000000001776 0 0 1 I I #
coedge $-1 $254 $247 $243 $318 reversed $126 $-1 #
edge $-1 $319 5.43834468046345724e-32 $249 12 $243 $378 forward 7 unknown #
vertex $-1 $244 $379 #
straight-curve $-1 5.963999999999999524 15.58010000000000161 5.000000000000000888 0 0 1 I I #
plane-surface $-1 5.963999999999999524 15.58010000000000161 5.000000000000000888 -6.123031769111886291e-17 1 0 6.123031769111886291e-17 0 1 forward_v I I I I #
straight-curve $-1 17.96399999999999864 11.58010000000000161 7.5 6.123031769111886291e-17 -1 6.123031769111886291e-17 I I #
point $-1 17.96399999999999864 15.58010000000000161 7.5 #
point $-1 17.96399999999999864 -0.419900000000000162 7.5 #
edge $-1 $315 1.087668936092691448e-31 $319 16 $314 $380 forward 7 unknown #
straight-curve $-1 17.96399999999999864 -0.419900000000000162 7.500000000000001776 -1 -6.123031769111886291e-17 6.123031769111886291e-17 I I #
coedge $-1 $296 $296 $256 $328 reversed $361 $-1 #
edge $-1 $298 -0.4278273002005157366 $329 6.427827300200517513 $256 $381 forward 7 unknown #
vertex $-1 $328 $382 #
point $-1 8.536172699799481123 11.58009999999999806 7.500000000000000888 #
point $-1 15.39182730020052325 11.58009999999999806 7.5 #
face $-1 $383 $374 $2 $-1 $334 reversed single #
loop $-1 $-1 $340 $263 #
torus-surface $-1 11.96400000000000041 7.580100000000000726 15 0 0 -1 5 3 1 3.749151804555343599e-33 0 forward_v I I I I #
coedge $-1 $277 $266 $384 $385 reversed $187 $-1 #
coedge $-1 $386 $291 $267 $337 forward $264 $-1 #
edge $-1 $293 2.617993877991494411 $354 3.665191429188092265 $336 $387 forward 7 unknown #
coedge $-1 $269 $367 $268 $339 reversed $333 $-1 #
edge $-1 $341 -3.141592653589786011 $369 -2.214297435588180818 $268 $342 forward 7 unknown #
coedge $-1 $388 $269 $272 $343 reversed $333 $-1 #
vertex $-1 $270 $389 #
ellipse-curve $-1 11.96400000000000041 7.580100000000000726 12 0 0 1 5 1.8745759022776718e-32 0 1 I I #
edge $-1 $357 8.200542553651754218 $273 13.52910966986935293 $272 $390 forward 7 unknown #
point $-1 8.964000000000000412 11.58009999999999984 12.00000000000000178 #
coedge $-1 $370 $275 $277 $346 forward $227 $-1 #
edge $-1 $278 19.27306054473766395 $391 24.60162766095526266 $345 $392 forward 7 unknown #
point $-1 14.96400000000000041 3.580100000000000726 20 #
point $-1 13.96400000000000396 3.580100000000000726 20 #
coedge $-1 $393 $384 $280 $350 reversed $394 $-1 #
edge $-1 $395 -1 $351 1 $280 $396 forward 7 unknown #
vertex $-1 $350 $397 #
intcurve-curve $-1 forward { surfintcur full nubs 3 open 9 
	8.200542553651754218 3 8.528712807332073709 2 8.856883061012393199 2 9.194823475516002986 2 9.532763890019610997 2 
	10.29129994934168835 2 11.0498360086637657 2 12.38764828332369916 2 13.52910966986934937 3 
	18.89220323027551274 11.58009999999999984 17 
	18.89220323027551274 11.58009999999999984 17.10939008456010768 
	18.88483016361670153 11.58009999999999984 17.22931918405578244 
	18.85276320071299239 11.58009999999999984 17.46684730961994703 
	18.82807661389885467 11.58009999999999984 17.584447322424829 
	18.76943883069689889 11.58009999999999984 17.79860145064375843 
	18.72940939595027743 11.58009999999999984 17.9156733071553198 
	18.63284387984422708 11.58009999999999984 18.14282783572699032 
	18.57632915152412068 11.58009999999999984 18.25291958457148311 
	18.39054122152353443 11.58009999999999984 18.56766926699089382 
	18.21977465796450701 11.58009999999999984 18.78466082295196315 
	17.82371303351986214 11.58009999999999984 19.16296099617886739 
	17.5986256146172515 11.58009999999999806 19.32448694465388073 
	16.99121330612720016 11.58009999999999806 19.66995424891841893 
	16.57040673848227641 11.58009999999999984 19.81311369180842874 
	15.75303099631904047 11.58009999999999984 19.97075804859579762 
	15.36171149667374358 11.58009999999999806 20 
	14.96400000000000219 11.58009999999999806 20 
	0.001000000000000000021 
	torus 11.96400000000000041 7.580100000000000726 17 0 0 1 5 3 -1 -3.749151804555343599e-33 0 forward_v I I I I 
	plane -0.03599999999999425881 11.58009999999999984 16 3.749151804555343599e-33 1 0 0 0 -1 reverse_v I I I I 
	nullbs 
	nullbs 
	F 8.200542553651754218 F 13.52910966986934937 
	0 
	2 8.200542553651754218 13.52910966986934937 
	0 
	} I I #
coedge $-1 $285 $304 $386 $398 forward $227 $-1 #
vertex $-1 $398 $399 #
intcurve-curve $-1 forward { surfintcur full nubs 3 open 9 
	8.200542553651754218 3 8.528712807332075485 2 8.856883061012396752 2 9.194823475516002986 2 9.532763890019610997 2 
	10.29129994934168835 2 11.04983600866376392 2 12.38764828332369916 2 13.52910966986935115 3 
	5.035796769724491639 3.580099999999999838 17 
	5.035796769724491639 3.580099999999999838 17.10939008456010768 
	5.043169836383301075 3.580099999999999838 17.22931918405577889 
	5.075236799287010214 3.580099999999999838 17.46684730961994703 
	5.099923386101147926 3.580099999999999838 17.58444732242483255 
	5.158561169303101934 3.580099999999999838 17.79860145064376198 
	5.198590604049728725 3.580099999999999838 17.9156733071553198 
	5.29515612015577819 3.580099999999999838 18.14282783572699387 
	5.351670848475881925 3.580099999999999838 18.25291958457148311 
	5.53745877847646728 3.580099999999999838 18.56766926699089737 
	5.708225342035497363 3.580099999999999838 18.78466082295196315 
	6.10428696648014224 3.580100000000000726 19.16296099617886739 
	6.3293743853827511 3.580100000000000726 19.32448694465388073 
	6.936786693872799781 3.580100000000000726 19.66995424891841893 
	7.357593261517724414 3.580100000000000726 19.81311369180842874 
	8.174969003680960355 3.580100000000000726 19.97075804859579762 
	8.566288503326260795 3.580100000000000726 20 
	8.964000000000002188 3.580100000000000726 20 
	0.001000000000000000021 
	torus 11.96400000000000041 7.580100000000000726 17 0 0 1 5 3 -1 -3.749151804555343599e-33 0 forward_v I I I I 
	plane 11.96400000000000574 3.580100000000000726 16 -3.749151804555343599e-33 -1 0 0 0 1 reverse_v I I I I 
	nullbs 
	nullbs 
	F 8.200542553651754218 F 13.52910966986935115 
	0 
	2 8.200542553651754218 13.52910966986935115 
	0 
	} I I #
coedge $-1 $291 $386 $388 $400 forward $264 $-1 #
vertex $-1 $343 $401 #
straight-curve $-1 5.035796769724489863 11.58009999999999984 16 0 0 -1 I I #
point $-1 5.035796769724489863 11.58009999999999984 17 #
ellipse-curve $-1 11.96400000000000219 11.58009999999999806 16 -3.749151804555343599e-33 -1 0 0 0 9.165151389911679658 1 I I #
loop $-1 $227 $327 $307 #
ellipse-curve $-1 11.96400000000000219 3.580100000000000726 16 3.749151804555343599e-33 1 0 0 0 -9.165151389911679658 1 I I #
point $-1 15.3918273002005197 3.580099999999999838 7.499999999999999112 #
plane-surface $-1 5.964000000000000412 -0.419900000000000162 5.000000000000001776 -1 -6.123031769111886291e-17 0 0 -6.123031769111886291e-17 -1 forward_v I I I I #
coedge $-1 $309 $402 $302 $366 reversed $374 $-1 #
edge $-1 $313 19.27306054473766395 $395 24.60162766095526621 $302 $403 forward 7 unknown #
coedge $-1 $338 $388 $304 $368 reversed $333 $-1 #
edge $-1 $369 19.27306054473766395 $404 24.60162766095526266 $304 $405 forward 7 unknown #
vertex $-1 $368 $406 #
coedge $-1 $306 $345 $407 $408 forward $227 $-1 #
coedge $-1 $402 $309 $306 $372 reversed $374 $-1 #
edge $-1 $409 8.200542553651752442 $311 13.52910966986935115 $306 $410 forward 7 unknown #
plane-surface $-1 11.96400000000000574 3.580100000000000726 16 3.749151804555343599e-33 1 0 0 0 1 forward_v I I I I #
loop $-1 $-1 $365 $332 #
point $-1 14.96400000000000041 3.580099999999999838 12 #
point $-1 14.96400000000000219 11.58009999999999984 12.00000000000000178 #
point $-1 5.964000000000000412 -0.419900000000000162 7.5 #
straight-curve $-1 5.963999999999999524 15.58010000000000161 7.500000000000000888 1 6.123031769111886291e-17 -6.123031769111886291e-17 I I #
point $-1 5.963999999999999524 15.58010000000000161 7.5 #
straight-curve $-1 5.964000000000000412 -0.419900000000000162 7.500000000000001776 -6.123031769111886291e-17 1 -6.123031769111886291e-17 I I #
straight-curve $-1 14.96400000000000396 3.580099999999999838 7.499999999999999112 -1 -3.749151804555343599e-33 0 I I #
point $-1 8.536172699799486452 3.580099999999999838 7.5 #
face $-1 $233 $394 $2 $-1 $265 reversed single #
coedge $-1 $349 $407 $335 $385 forward $394 $-1 #
edge $-1 $391 -0.5235987755982989267 $351 0.5235987755982985936 $384 $387 forward 7 unknown #
coedge $-1 $356 $336 $353 $398 reversed $264 $-1 #
ellipse-curve $-1 11.96400000000000041 7.580100000000000726 17 0 0 1 8 2.999321443644274879e-32 0 1 I I #
coedge $-1 $367 $340 $356 $400 reversed $333 $-1 #
point $-1 6.964000000000000412 7.580099999999965199 12 #
intcurve-curve $-1 forward { surfintcur full nubs 3 open 9 
	8.200542553651754218 3 8.528712807332075485 2 8.856883061012396752 2 9.194823475516006539 2 9.53276389001961455 2 
	10.2912999493416919 2 11.04983600866376747 2 12.38764828332370271 2 13.52910966986935293 3 
	5.035796769724489863 11.58009999999999984 15 
	5.035796769724489863 11.58009999999999984 14.89060991543989232 
	5.043169836383299298 11.58009999999999984 14.77068081594422466 
	5.075236799287008438 11.58009999999999984 14.53315269038005653 
	5.099923386101147926 11.58009999999999984 14.415552677575171 
	5.158561169303101934 11.58009999999999984 14.20139854935624157 
	5.198590604049729613 11.58009999999999984 14.0843266928446802 
	5.295156120155779078 11.58009999999999984 13.85717216427300613 
	5.351670848475881037 11.58009999999999984 13.74708041542851689 
	5.537458778476466392 11.58009999999999984 13.43233073300910263 
	5.70822534203549381 11.58009999999999984 13.21533917704803685 
	6.104286966480138688 11.58009999999999984 12.83703900382113439 
	6.329374385382752877 11.58009999999999984 12.67551305534611927 
	6.936786693872801557 11.58009999999999984 12.33004575108158463 
	7.357593261517725303 11.58009999999999806 12.18688630819157304 
	8.174969003680962132 11.58009999999999806 12.02924195140420238 
	8.566288503326259018 11.58009999999999984 12.00000000000000178 
	8.964000000000000412 11.58009999999999984 12.00000000000000178 
	0.001000000000000000021 
	torus 11.96400000000000041 7.580100000000000726 15 0 0 -1 5 3 1 3.749151804555343599e-33 0 forward_v I I I I 
	plane -0.03599999999999425881 11.58009999999999984 16 3.749151804555343599e-33 1 0 0 0 -1 reverse_v I I I I 
	nullbs 
	nullbs 
	F 8.200542553651754218 F 13.52910966986935293 
	0 
	2 8.200542553651754218 13.52910966986935293 
	0 
	} I I #
vertex $-1 $408 $411 #
intcurve-curve $-1 forward { surfintcur full nubs 3 open 9 
	19.27306054473766395 3 20.41452193128331416 2 21.7523342059432494 2 22.51087026526532497 2 23.2694063245874041 2 
	23.60734673909101389 2 23.94528715359462012 2 24.27345740727493961 2 24.60162766095526266 3 
	14.96400000000000041 3.580100000000000726 20 
	15.36171149667374181 3.580100000000000726 20 
	15.75303099631903869 3.580099999999999838 19.97075804859579762 
	16.57040673848227641 3.580099999999999838 19.81311369180842874 
	16.99121330612720016 3.580100000000000726 19.66995424891841893 
	17.5986256146172515 3.580100000000000726 19.32448694465388428 
	17.82371303351986214 3.58009999999999895 19.16296099617886739 
	18.21977465796450701 3.58009999999999895 18.78466082295196315 
	18.39054122152353443 3.580100000000000726 18.56766926699089737 
	18.57632915152412068 3.580100000000000726 18.25291958457148311 
	18.63284387984422352 3.580099999999999838 18.14282783572699387 
	18.72940939595027032 3.580099999999999838 17.91567330715532336 
	18.76943883069689889 3.580100000000000726 17.79860145064376198 
	18.82807661389885112 3.580100000000000726 17.58444732242483255 
	18.85276320071299239 3.580100000000000726 17.46684730961995058 
	18.88483016361670153 3.580100000000000726 17.22931918405578244 
	18.89220323027550918 3.580100000000000726 17.10939008456010768 
	18.89220323027550918 3.580100000000000726 17 
	0.001000000000000000021 
	torus 11.96400000000000041 7.580100000000000726 17 0 0 1 5 3 -1 -3.749151804555343599e-33 0 forward_v I I I I 
	plane 11.96400000000000574 3.580100000000000726 16 -3.749151804555343599e-33 -1 0 0 0 1 reverse_v I I I I 
	nullbs 
	nullbs 
	F 19.27306054473766395 F 24.60162766095526266 
	0 
	2 19.27306054473766395 24.60162766095526266 
	0 
	} I I #
coedge $-1 $407 $349 $402 $412 forward $394 $-1 #
loop $-1 $-1 $349 $383 #
vertex $-1 $366 $413 #
straight-curve $-1 18.89220323027551274 11.58009999999999984 16 0 0 1 I I #
point $-1 18.89220323027551274 11.58009999999999984 17 #
edge $-1 $404 -1 $354 1 $353 $414 forward 7 unknown #
point $-1 5.035796769724491639 3.580099999999999838 17 #
edge $-1 $404 2.617993877991493967 $357 3.665191429188091821 $356 $415 forward 7 unknown #
point $-1 5.035796769724489863 11.58009999999999984 15 #
coedge $-1 $365 $371 $393 $412 reversed $374 $-1 #
intcurve-curve $-1 forward { surfintcur full nubs 3 open 9 
	19.27306054473766395 3 20.41452193128331416 2 21.7523342059432494 2 22.51087026526532497 2 23.2694063245874041 2 
	23.60734673909101389 2 23.94528715359462367 2 24.27345740727494672 2 24.60162766095526621 3 
	14.96400000000000219 11.58009999999999984 12.00000000000000178 
	15.36171149667374181 11.58009999999999984 12.00000000000000178 
	15.75303099631904047 11.58009999999999984 12.02924195140420238 
	16.57040673848227641 11.58009999999999984 12.18688630819157304 
	16.99121330612720016 11.58009999999999984 12.33004575108158463 
	17.5986256146172515 11.58009999999999984 12.67551305534611927 
	17.82371303351985858 11.58009999999999984 12.83703900382113261 
	18.21977465796450346 11.58009999999999984 13.21533917704803685 
	18.39054122152353798 11.58009999999999984 13.43233073300910263 
	18.57632915152412068 11.58009999999999984 13.74708041542851689 
	18.63284387984422352 11.58009999999999984 13.85717216427300968 
	18.72940939595027388 11.58009999999999984 14.0843266928446802 
	18.76943883069689889 11.58009999999999984 14.20139854935624157 
	18.82807661389885467 11.58009999999999984 14.415552677575171 
	18.85276320071299239 11.58009999999999984 14.53315269038005297 
	18.88483016361670153 11.58009999999999984 14.77068081594422111 
	18.89220323027551274 11.58009999999999984 14.89060991543989587 
	18.89220323027551274 11.58009999999999984 15 
	0.001000000000000000021 
	torus 11.96400000000000041 7.580100000000000726 15 0 0 -1 5 3 1 3.749151804555343599e-33 0 forward_v I I I I 
	plane -0.03599999999999425881 11.58009999999999984 16 3.749151804555343599e-33 1 0 0 0 -1 reverse_v I I I I 
	nullbs 
	nullbs 
	F 19.27306054473766395 F 24.60162766095526621 
	0 
	2 19.27306054473766395 24.60162766095526621 
	0 
	} I I #
vertex $-1 $368 $416 #
intcurve-curve $-1 forward { surfintcur full nubs 3 open 9 
	19.27306054473766395 3 20.41452193128331416 2 21.7523342059432494 2 22.51087026526532497 2 23.2694063245874041 2 
	23.60734673909101389 2 23.94528715359462012 2 24.27345740727493961 2 24.60162766095526266 3 
	8.964000000000000412 3.580099999999999838 12.00000000000000178 
	8.566288503326259018 3.580099999999999838 12.00000000000000178 
	8.174969003680960355 3.580100000000000726 12.02924195140420593 
	7.357593261517725303 3.580100000000000726 12.18688630819157481 
	6.936786693872801557 3.580100000000000726 12.33004575108158285 
	6.3293743853827511 3.580100000000000726 12.67551305534612105 
	6.10428696648014224 3.580100000000002503 12.83703900382113261 
	5.708225342035498251 3.580100000000001614 13.21533917704803685 
	5.537458778476466392 3.580099999999999838 13.43233073300910618 
	5.351670848475881925 3.580099999999999838 13.74708041542852044 
	5.295156120155777302 3.580100000000001614 13.85717216427301324 
	5.198590604049728725 3.580100000000001614 14.08432669284468375 
	5.158561169303101934 3.580099999999999838 14.20139854935624157 
	5.099923386101147926 3.580099999999999838 14.41555267757516745 
	5.075236799287010214 3.580099999999999838 14.53315269038005297 
	5.043169836383301075 3.580099999999999838 14.77068081594422111 
	5.035796769724491639 3.580099999999999838 14.89060991543989232 
	5.035796769724491639 3.580099999999999838 15 
	0.001000000000000000021 
	torus 11.96400000000000041 7.580100000000000726 15 0 0 -1 5 3 1 3.749151804555343599e-33 0 forward_v I I I I 
	plane 11.96400000000000574 3.580100000000000726 16 -3.749151804555343599e-33 -1 0 0 0 1 reverse_v I I I I 
	nullbs 
	nullbs 
	F 19.27306054473766395 F 24.60162766095526266 
	0 
	2 19.27306054473766395 24.60162766095526266 
	0 
	} I I #
point $-1 8.964000000000000412 3.580099999999999838 12.00000000000000178 #
coedge $-1 $384 $393 $370 $408 reversed $394 $-1 #
edge $-1 $391 -1 $409 1 $370 $417 forward 7 unknown #
vertex $-1 $372 $418 #
intcurve-curve $-1 forward { surfintcur full nubs 3 open 9 
	8.200542553651752442 3 8.528712807332073709 2 8.856883061012396752 2 9.194823475516002986 2 9.532763890019610997 2 
	10.29129994934168835 2 11.0498360086637657 2 12.38764828332370271 2 13.52910966986935115 3 
	18.89220323027550918 3.580100000000000726 15 
	18.89220323027550918 3.580100000000000726 14.89060991543989232 
	18.88483016361670153 3.580100000000000726 14.77068081594422111 
	18.85276320071299239 3.580100000000000726 14.53315269038005297 
	18.82807661389885467 3.580100000000000726 14.415552677575171 
	18.76943883069689889 3.580100000000000726 14.20139854935624157 
	18.72940939595027032 3.580100000000000726 14.0843266928446802 
	18.63284387984422352 3.580100000000000726 13.85717216427300968 
	18.57632915152412068 3.580100000000000726 13.74708041542851689 
	18.39054122152353443 3.580100000000000726 13.43233073300910618 
	18.21977465796450701 3.580100000000000726 13.2153391770480404 
	17.82371303351986214 3.580100000000000726 12.83703900382113616 
	17.5986256146172515 3.580100000000000726 12.67551305534611927 
	16.99121330612720016 3.580100000000000726 12.33004575108158107 
	16.57040673848227641 3.580099999999999838 12.18688630819157304 
	15.75303099631903869 3.580099999999999838 12.02924195140420416 
	15.36171149667374181 3.580099999999999838 12 
	14.96400000000000041 3.580099999999999838 12 
	0.001000000000000000021 
	torus 11.96400000000000041 7.580100000000000726 15 0 0 -1 5 3 1 3.749151804555343599e-33 0 forward_v I I I I 
	plane 11.96400000000000574 3.580100000000000726 16 -3.749151804555343599e-33 -1 0 0 0 1 reverse_v I I I I 
	nullbs 
	nullbs 
	F 8.200542553651752442 F 13.52910966986935115 
	0 
	2 8.200542553651752442 13.52910966986935115 
	0 
	} I I #
point $-1 18.89220323027550918 3.580100000000000726 17 #
edge $-1 $395 -0.5235987755982985936 $409 0.5235987755982989267 $393 $415 forward 7 unknown #
point $-1 18.89220323027551274 11.58009999999999984 15 #
straight-curve $-1 5.035796769724491639 3.580099999999999838 16 0 0 1 I I #
ellipse-curve $-1 11.96400000000000041 7.580100000000000726 15 0 0 -1 8 2.999321443644274879e-32 0 1 I I #
point $-1 5.035796769724491639 3.580099999999999838 15 #
straight-curve $-1 18.89220323027550918 3.580100000000000726 16 0 0 -1 I I #
point $-1 18.89220323027550918 3.580100000000000726 15 #
End-of-ACIS-data 