700 0 2 0           
24 FBMach with ACIS - 7.0.3 13 ACIS 7.0.3 NT 24 Mon May 13 16:54:16 2002 
1 9.9999999999999995e-007 1e-010 
body $2 -1 $-1 $3 $-1 $4 #
bdycol-kcp $-1 -1 1 4 $5 $6 $7 $8 #
model_id-kcp-attrib $-1 -1 $-1 $-1 $0 1 1021323255 1021323255 189202433 1 #
lump $-1 -1 $-1 $-1 $9 $0 #
transform $-1 -1 1 0 0 0 1 0 0 0 1 0 0 0 1 rotate no_reflect no_shear #
body $10 -1 $-1 $11 $-1 $12 #
body $13 -1 $-1 $14 $-1 $15 #
body $16 -1 $-1 $17 $-1 $18 #
body $19 -1 $-1 $20 $-1 $21 #
shell $-1 -1 $-1 $-1 $-1 $22 $-1 $3 #
rgb_color-st-attrib $-1 -1 $23 $-1 $5 1 0.5 1 #
lump $-1 -1 $-1 $-1 $24 $5 #
transform $-1 -1 1 0 0 0 1 0 0 0 1 11.964 7.5801000000000016 22.5 1 no_rotate no_reflect no_shear #
model_id-kcp-attrib $-1 -1 $-1 $-1 $6 1 1021323255 1021323255 189202434 1 #
lump $-1 -1 $-1 $-1 $25 $6 #
transform $-1 -1 1 0 0 0 1 0 0 0 1 11.964 7.5801000000000016 22.5 1 no_rotate no_reflect no_shear #
rgb_color-st-attrib $-1 -1 $26 $-1 $7 0.5 1 1 #
lump $-1 -1 $-1 $-1 $27 $7 #
transform $-1 -1 1 0 0 0 1 0 0 0 1 11.964 7.5801000000000016 22.5 1 no_rotate no_reflect no_shear #
rgb_color-st-attrib $-1 -1 $28 $-1 $8 1 0.5 1 #
lump $-1 -1 $-1 $-1 $29 $8 #
transform $-1 -1 1 0 0 0 1 0 0 0 1 11.964 7.5801000000000016 22.5 1 no_rotate no_reflect no_shear #
face $30 -1 $-1 $31 $32 $9 $-1 $33 forward single #
model_id-kcp-attrib $-1 -1 $-1 $10 $5 1 1021323255 1021323255 186843141 1 #
shell $-1 -1 $-1 $-1 $-1 $34 $-1 $11 #
shell $-1 -1 $-1 $-1 $-1 $35 $-1 $14 #
model_id-kcp-attrib $-1 -1 $-1 $16 $7 1 1021323255 1021323255 193134595 1 #
shell $-1 -1 $-1 $-1 $-1 $36 $-1 $17 #
model_id-kcp-attrib $-1 -1 $-1 $19 $8 1 1021323255 1021323255 200343556 1 #
shell $-1 -1 $-1 $-1 $-1 $37 $-1 $20 #
model_id-kcp-attrib $-1 -1 $-1 $-1 $22 1 1021323255 1021323255 189202433 2 #
face $38 -1 $-1 $39 $40 $9 $-1 $41 reversed single #
loop $-1 -1 $-1 $42 $43 $22 #
cone-surface $-1 -1 $-1 11.964 7.5801000000000007 17 0 0 1 -1 0 0 1 I I 0 1 1 forward I I I I #
face $-1 -1 $-1 $44 $45 $24 $-1 $46 forward single #
face $47 -1 $-1 $48 $49 $25 $-1 $50 forward single #
face $-1 -1 $-1 $51 $52 $27 $-1 $53 reversed single #
face $-1 -1 $-1 $54 $55 $29 $-1 $56 forward single #
model_id-kcp-attrib $-1 -1 $-1 $-1 $31 1 1021323255 1021323255 189202433 3 #
face $57 -1 $-1 $58 $59 $9 $-1 $60 forward single #
loop $-1 -1 $-1 $-1 $61 $31 #
plane-surface $-1 -1 $-1 11.963999999999999 7.5801000000000034 17 0 0 1 1 0 0 forward_v I I I I #
loop $-1 -1 $-1 $-1 $62 $22 #
coedge $-1 -1 $-1 $43 $43 $63 $64 reversed $32 $-1 #
face $-1 -1 $-1 $65 $66 $24 $-1 $67 forward single #
loop $-1 -1 $-1 $68 $69 $34 #
cone-surface $-1 -1 $-1 0 -8.8817841970012523e-016 -4.4999999999999982 0 0 -1 -1 0 0 1 I I 0 -1 1 forward I I I I #
model_id-kcp-attrib $-1 -1 $-1 $-1 $35 1 1021323255 1021323255 189202434 3 #
face $70 -1 $-1 $71 $72 $25 $-1 $73 reversed single #
loop $-1 -1 $-1 $-1 $74 $35 #
plane-surface $-1 -1 $-1 0 0 5.5 0 0 1 1 0 0 forward_v I I I I #
face $-1 -1 $-1 $75 $76 $27 $-1 $53 reversed single #
loop $-1 -1 $-1 $-1 $77 $36 #
cone-surface $-1 -1 $-1 0 -8.8817841970012523e-016 -5.5 0 0 -1 3 0 0 1 I I 0 1 3 forward I I I I #
face $-1 -1 $-1 $78 $79 $29 $-1 $80 forward single #
loop $-1 -1 $-1 $81 $82 $37 #
cone-surface $-1 -1 $-1 0 -8.8817841970012523e-016 0.5 0 0 -1 1.5 0 0 1 I I 0 -1 1.5 forward I I I I #
model_id-kcp-attrib $-1 -1 $-1 $-1 $39 1 1021323255 1021323255 189202433 4 #
face $83 -1 $-1 $84 $85 $9 $-1 $86 forward single #
loop $-1 -1 $-1 $87 $88 $39 #
cone-surface $-1 -1 $-1 11.964 7.5801000000000007 20.5 0 0 1 1.5 0 0 1 I I 0 1 1.5 forward I I I I #
coedge $-1 -1 $-1 $61 $61 $62 $89 reversed $40 $-1 #
coedge $-1 -1 $-1 $62 $62 $61 $89 forward $42 $-1 #
coedge $-1 -1 $-1 $63 $63 $43 $64 forward $85 $-1 #
edge $90 -1 $-1 $91 -3.141592653589786 $91 3.1415926535898002 $63 $92 forward @7 unknown #
face $-1 -1 $-1 $93 $94 $24 $-1 $95 reversed single #
loop $-1 -1 $-1 $96 $97 $44 #
cone-surface $-1 -1 $-1 0 -8.8817841970012523e-016 -4.4999999999999982 0 0 -1 3 0 0 1 I I 0 1 3 forward I I I I #
loop $-1 -1 $-1 $-1 $98 $34 #
coedge $-1 -1 $-1 $69 $69 $99 $100 forward $45 $-1 #
model_id-kcp-attrib $-1 -1 $-1 $-1 $48 1 1021323255 1021323255 189202434 2 #
face $-1 -1 $-1 $101 $102 $25 $-1 $103 reversed single #
loop $-1 -1 $-1 $-1 $104 $48 #
plane-surface $-1 -1 $-1 0 0 -5.5 0 0 1 1 0 0 forward_v I I I I #
coedge $-1 -1 $-1 $105 $106 $107 $108 forward $49 $-1 #
face $-1 -1 $-1 $109 $110 $27 $-1 $53 reversed single #
loop $-1 -1 $-1 $-1 $111 $51 #
coedge $-1 -1 $-1 $112 $113 $114 $115 forward $52 $-1 #
face $-1 -1 $-1 $116 $117 $29 $-1 $118 reversed single #
loop $-1 -1 $-1 $119 $120 $54 #
cone-surface $-1 -1 $-1 0 -8.8817841970012523e-016 0.5 0 0 -1 3 0 0 1 I I 0 1 3 forward I I I I #
loop $-1 -1 $-1 $-1 $121 $37 #
coedge $-1 -1 $-1 $82 $82 $122 $123 forward $55 $-1 #
model_id-kcp-attrib $-1 -1 $-1 $-1 $58 1 1021323255 1021323255 189202433 5 #
face $124 -1 $-1 $125 $126 $9 $-1 $127 forward single #
loop $-1 -1 $-1 $128 $63 $58 #
plane-surface $-1 -1 $-1 11.964 7.5801000000000007 18 0 0 -1 -1 0 0 forward_v I I I I #
loop $-1 -1 $-1 $-1 $129 $39 #
coedge $-1 -1 $-1 $88 $88 $130 $131 reversed $59 $-1 #
edge $132 -1 $-1 $133 0 $133 6.2831853071795862 $62 $134 forward @7 unknown #
attrib_edge_convexity-kcp-attrib $-1 -1 $135 $-1 $64 2 #
vertex $-1 -1 $-1 $64 $136 #
ellipse-curve $-1 -1 $-1 11.964 7.5801000000000007 18 0 0 1 -1 0 0 1 I I #
face $-1 -1 $-1 $-1 $137 $24 $-1 $138 forward single #
loop $-1 -1 $-1 $139 $140 $65 #
plane-surface $-1 -1 $-1 -0.18181818181818171 -7.4680092050386199e-016 -5.4999999999999991 -5.9164567891575911e-033 4.535950205020817e-032 1 1 0 5.9164567891575911e-033 forward_v I I I I #
loop $-1 -1 $-1 $-1 $141 $44 #
coedge $-1 -1 $-1 $97 $97 $140 $142 forward $66 $-1 #
coedge $-1 -1 $-1 $98 $98 $143 $144 reversed $68 $-1 #
coedge $-1 -1 $-1 $99 $99 $69 $100 reversed $139 $-1 #
edge $-1 -1 $-1 $145 -3.1415926535898002 $145 3.141592653589786 $69 $146 forward @7 unknown #
face $-1 -1 $-1 $147 $148 $25 $-1 $149 reversed single #
loop $-1 -1 $-1 $-1 $150 $71 #
plane-surface $-1 -1 $-1 0 -3.0000000000000004 0 0 1 0 0 0 1 forward_v I I I I #
coedge $-1 -1 $-1 $151 $152 $153 $154 forward $72 $-1 #
coedge $-1 -1 $-1 $155 $74 $156 $157 forward $49 $-1 #
coedge $-1 -1 $-1 $74 $155 $158 $159 forward $49 $-1 #
coedge $-1 -1 $-1 $160 $161 $74 $108 reversed $162 $-1 #
edge $-1 -1 $-1 $163 -3.0000000000000004 $164 3.0000000000000004 $107 $165 forward @7 unknown #
face $-1 -1 $-1 $166 $167 $27 $-1 $53 reversed single #
loop $-1 -1 $-1 $-1 $168 $75 #
coedge $-1 -1 $-1 $169 $114 $170 $171 reversed $76 $-1 #
coedge $-1 -1 $-1 $172 $77 $173 $174 reversed $52 $-1 #
coedge $-1 -1 $-1 $77 $172 $175 $176 reversed $52 $-1 #
coedge $-1 -1 $-1 $111 $177 $178 $115 reversed $76 $-1 #
edge $-1 -1 $-1 $179 -11 $180 0 $178 $181 forward @7 unknown #
face $-1 -1 $-1 $-1 $182 $29 $-1 $183 forward single #
loop $-1 -1 $-1 $184 $185 $78 #
plane-surface $-1 -1 $-1 -0.13636363636363624 -8.8169456216254897e-016 -4.5 0 0 1 1 0 0 forward_v I I I I #
loop $-1 -1 $-1 $-1 $186 $54 #
coedge $-1 -1 $-1 $120 $120 $185 $187 forward $79 $-1 #
coedge $-1 -1 $-1 $121 $121 $188 $189 reversed $81 $-1 #
coedge $-1 -1 $-1 $122 $122 $82 $123 reversed $184 $-1 #
edge $-1 -1 $-1 $190 0 $190 6.2831853071795862 $82 $191 forward @7 unknown #
model_id-kcp-attrib $-1 -1 $-1 $-1 $84 1 1021323255 1021323255 189202433 6 #
face $192 -1 $-1 $193 $194 $9 $-1 $195 forward single #
loop $-1 -1 $-1 $196 $197 $84 #
cone-surface $-1 -1 $-1 11.964 7.5801000000000007 25.5 0 0 1 3 0 0 1 I I 0 1 3 forward I I I I #
loop $-1 -1 $-1 $-1 $130 $58 #
coedge $-1 -1 $-1 $129 $129 $198 $199 reversed $87 $-1 #
coedge $-1 -1 $-1 $130 $130 $88 $131 forward $128 $-1 #
edge $200 -1 $-1 $201 0 $201 6.2831853071795862 $130 $202 forward @7 unknown #
attrib_edge_convexity-kcp-attrib $-1 -1 $203 $-1 $89 1 #
vertex $-1 -1 $-1 $89 $204 #
ellipse-curve $-1 -1 $-1 11.964 7.5801000000000007 17 0 0 1 -1 0 0 1 I I #
convexity-sys-attrib $-1 -1 $-1 $90 $64 #
point $-1 -1 $-1 12.964 7.5801000000000078 18 #
loop $-1 -1 $-1 $205 $206 $93 #
plane-surface $-1 -1 $-1 -0.18181818181818171 -7.4680092050386199e-016 -4.4999999999999991 -5.9164567891575911e-033 4.535950205020817e-032 1 1 0 5.9164567891575911e-033 forward_v I I I I #
loop $-1 -1 $-1 $-1 $99 $65 #
coedge $-1 -1 $-1 $140 $140 $97 $142 reversed $94 $-1 #
coedge $-1 -1 $-1 $141 $141 $206 $207 reversed $96 $-1 #
edge $-1 -1 $-1 $208 -3.1415926535897931 $208 3.1415926535897931 $97 $209 forward @7 unknown #
coedge $-1 -1 $-1 $143 $143 $98 $144 forward $205 $-1 #
edge $210 -1 $-1 $211 -3.1415926535898002 $211 3.141592653589786 $98 $212 forward @7 unknown #
vertex $-1 -1 $-1 $100 $213 #
ellipse-curve $-1 -1 $-1 0 -8.8817841970012523e-016 -5.4999999999999982 0 0 -1 -1 0 0 1 I I #
face $-1 -1 $-1 $214 $215 $25 $-1 $216 reversed single #
loop $-1 -1 $-1 $-1 $217 $101 #
plane-surface $-1 -1 $-1 -3 0 0 1 0 0 0 0 -1 forward_v I I I I #
coedge $-1 -1 $-1 $218 $158 $219 $220 forward $102 $-1 #
coedge $-1 -1 $-1 $221 $104 $218 $222 forward $72 $-1 #
coedge $-1 -1 $-1 $104 $221 $223 $224 forward $72 $-1 #
coedge $-1 -1 $-1 $161 $160 $104 $154 reversed $162 $-1 #
edge $-1 -1 $-1 $225 -3.0000000000000004 $226 3.0000000000000004 $153 $227 forward @7 unknown #
coedge $-1 -1 $-1 $106 $105 $228 $229 forward $49 $-1 #
coedge $-1 -1 $-1 $230 $231 $105 $157 reversed $215 $-1 #
edge $-1 -1 $-1 $164 -3 $232 3 $156 $233 forward @7 unknown #
coedge $-1 -1 $-1 $150 $234 $106 $159 reversed $102 $-1 #
edge $-1 -1 $-1 $235 -3 $163 3 $158 $236 forward @7 unknown #
coedge $-1 -1 $-1 $153 $107 $234 $237 forward $162 $-1 #
coedge $-1 -1 $-1 $107 $153 $230 $238 reversed $162 $-1 #
loop $-1 -1 $-1 $-1 $160 $214 #
vertex $-1 -1 $-1 $108 $239 #
vertex $-1 -1 $-1 $108 $240 #
straight-curve $-1 -1 $-1 3 0 5.5 0 1 0 I I #
face $-1 -1 $-1 $241 $242 $27 $-1 $243 reversed single #
loop $-1 -1 $-1 $-1 $244 $109 #
coedge $-1 -1 $-1 $245 $246 $247 $248 reversed $110 $-1 #
coedge $-1 -1 $-1 $177 $111 $249 $250 forward $76 $-1 #
coedge $-1 -1 $-1 $251 $252 $111 $171 forward $253 $-1 #
edge $-1 -1 $-1 $254 -3.1415926535897931 $179 -1.5707963267948966 $170 $255 forward @7 unknown #
coedge $-1 -1 $-1 $113 $112 $256 $257 reversed $52 $-1 #
coedge $-1 -1 $-1 $258 $259 $112 $174 forward $260 $-1 #
edge $-1 -1 $-1 $261 0 $180 1.5707963267948966 $173 $262 forward @7 unknown #
coedge $-1 -1 $-1 $263 $264 $113 $176 forward $265 $-1 #
edge $-1 -1 $-1 $179 -1.5707963267948966 $266 0 $175 $255 forward @7 unknown #
coedge $-1 -1 $-1 $114 $169 $267 $268 reversed $76 $-1 #
coedge $-1 -1 $-1 $269 $270 $271 $115 forward $272 $-1 #
vertex $-1 -1 $-1 $273 $274 #
vertex $-1 -1 $-1 $275 $276 #
straight-curve $-1 -1 $-1 0 3.0000000000000004 -5.5 0 0 -1 I I #
loop $-1 -1 $-1 $277 $278 $116 #
plane-surface $-1 -1 $-1 -0.13636363636363624 -8.8169456216254897e-016 0.5 0 0 1 1 0 0 forward_v I I I I #
loop $-1 -1 $-1 $-1 $122 $78 #
coedge $-1 -1 $-1 $185 $185 $120 $187 reversed $117 $-1 #
coedge $-1 -1 $-1 $186 $186 $278 $279 reversed $119 $-1 #
edge $-1 -1 $-1 $280 -3.1415926535897931 $280 3.1415926535897931 $120 $281 forward @7 unknown #
coedge $-1 -1 $-1 $188 $188 $121 $189 forward $277 $-1 #
edge $282 -1 $-1 $283 0 $283 6.2831853071795862 $121 $284 forward @7 unknown #
vertex $-1 -1 $-1 $123 $285 #
ellipse-curve $-1 -1 $-1 0 -8.8817841970012523e-016 -4.5 0 0 -1 1.5 0 0 1 I I #
model_id-kcp-attrib $-1 -1 $-1 $-1 $125 1 1021323255 1021323255 189202433 7 #
face $286 -1 $-1 $-1 $287 $9 $-1 $288 forward single #
loop $-1 -1 $-1 $289 $198 $125 #
plane-surface $-1 -1 $-1 11.964 7.5801000000000007 23 0 0 -1 -1 0 0 forward_v I I I I #
loop $-1 -1 $-1 $-1 $290 $84 #
coedge $-1 -1 $-1 $197 $197 $291 $292 reversed $126 $-1 #
coedge $-1 -1 $-1 $198 $198 $129 $199 forward $194 $-1 #
edge $293 -1 $-1 $294 0 $294 6.2831853071795862 $198 $295 forward @7 unknown #
attrib_edge_convexity-kcp-attrib $-1 -1 $296 $-1 $131 1 #
vertex $-1 -1 $-1 $131 $297 #
ellipse-curve $-1 -1 $-1 11.964 7.5801000000000007 18 0 0 -1 1.5 0 0 1 I I #
convexity-sys-attrib $-1 -1 $-1 $132 $89 #
point $-1 -1 $-1 10.964 7.5801000000000007 17 #
loop $-1 -1 $-1 $-1 $143 $93 #
coedge $-1 -1 $-1 $206 $206 $141 $207 forward $137 $-1 #
edge $298 -1 $-1 $299 -3.1415926535897931 $299 3.1415926535897931 $141 $300 forward @7 unknown #
vertex $-1 -1 $-1 $142 $301 #
ellipse-curve $-1 -1 $-1 0 -8.8817841970012523e-016 -5.4999999999999982 0 0 1 3 0 0 1 I I #
convexity-sys-attrib $-1 -1 $-1 $-1 $144 #
vertex $-1 -1 $-1 $144 $302 #
ellipse-curve $-1 -1 $-1 0 -8.8817841970012523e-016 -4.4999999999999982 0 0 -1 -1 0 0 1 I I #
point $-1 -1 $-1 1 6.2172489379008766e-015 -5.5 #
face $-1 -1 $-1 $-1 $162 $25 $-1 $303 reversed single #
loop $-1 -1 $-1 $-1 $230 $147 #
plane-surface $-1 -1 $-1 0 3.0000000000000004 0 0 -1 0 0 0 -1 forward_v I I I I #
coedge $-1 -1 $-1 $304 $228 $231 $305 forward $148 $-1 #
coedge $-1 -1 $-1 $234 $150 $151 $222 reversed $102 $-1 #
coedge $-1 -1 $-1 $228 $304 $150 $220 reversed $148 $-1 #
edge $-1 -1 $-1 $235 -5.5 $306 5.5 $219 $307 forward @7 unknown #
coedge $-1 -1 $-1 $152 $151 $304 $308 forward $72 $-1 #
edge $-1 -1 $-1 $226 -3 $306 3 $218 $309 forward @7 unknown #
coedge $-1 -1 $-1 $231 $230 $152 $224 reversed $215 $-1 #
edge $-1 -1 $-1 $310 -3 $225 3 $223 $311 forward @7 unknown #
vertex $-1 -1 $-1 $154 $312 #
vertex $-1 -1 $-1 $237 $313 #
straight-curve $-1 -1 $-1 3 0 -5.5 0 -1 0 I I #
coedge $-1 -1 $-1 $217 $219 $155 $229 reversed $148 $-1 #
edge $-1 -1 $-1 $232 -3.0000000000000004 $235 3.0000000000000004 $228 $314 forward @7 unknown #
coedge $-1 -1 $-1 $223 $156 $161 $238 forward $215 $-1 #
coedge $-1 -1 $-1 $156 $223 $217 $305 reversed $215 $-1 #
vertex $-1 -1 $-1 $157 $315 #
straight-curve $-1 -1 $-1 0 3.0000000000000004 5.5 -1 0 0 I I #
coedge $-1 -1 $-1 $158 $218 $160 $237 reversed $102 $-1 #
vertex $-1 -1 $-1 $229 $316 #
straight-curve $-1 -1 $-1 0 -3.0000000000000004 5.5 1 0 0 I I #
edge $-1 -1 $-1 $163 -5.5 $226 5.5 $160 $317 forward @7 unknown #
edge $-1 -1 $-1 $164 -5.5 $225 5.5 $161 $318 forward @7 unknown #
point $-1 -1 $-1 3 -3.0000000000000004 5.5 #
point $-1 -1 $-1 3 3.0000000000000004 5.5 #
face $-1 -1 $-1 $319 $272 $27 $-1 $320 reversed single #
loop $-1 -1 $-1 $-1 $256 $166 #
plane-surface $-1 -1 $-1 3 0 0 -1 0 0 0 0 1 forward_v I I I I #
coedge $-1 -1 $-1 $249 $321 $322 $323 reversed $167 $-1 #
coedge $-1 -1 $-1 $324 $168 $325 $326 reversed $110 $-1 #
coedge $-1 -1 $-1 $168 $324 $172 $257 forward $110 $-1 #
coedge $-1 -1 $-1 $327 $328 $168 $248 forward $329 $-1 #
edge $-1 -1 $-1 $330 -1.5707963267948966 $261 0 $247 $262 forward @7 unknown #
coedge $-1 -1 $-1 $331 $244 $332 $250 reversed $167 $-1 #
edge $-1 -1 $-1 $254 -11 $333 0 $332 $334 forward @7 unknown #
coedge $-1 -1 $-1 $252 $170 $270 $273 forward $253 $-1 #
coedge $-1 -1 $-1 $170 $251 $335 $336 forward $253 $-1 #
loop $-1 -1 $-1 $-1 $170 $337 #
vertex $-1 -1 $-1 $338 $339 #
ellipse-curve $-1 -1 $-1 0 -8.8817841970012523e-016 5.5 0 0 -1 3 0 0 1 I I #
coedge $-1 -1 $-1 $340 $341 $342 $257 forward $242 $-1 #
edge $-1 -1 $-1 $266 -11 $261 0 $256 $343 forward @7 unknown #
coedge $-1 -1 $-1 $259 $173 $344 $275 forward $260 $-1 #
coedge $-1 -1 $-1 $173 $258 $340 $345 forward $260 $-1 #
loop $-1 -1 $-1 $-1 $173 $346 #
vertex $-1 -1 $-1 $347 $348 #
ellipse-curve $-1 -1 $-1 0 -8.8817841970012523e-016 -5.5 0 0 1 3 0 0 1 I I #
coedge $-1 -1 $-1 $264 $175 $341 $349 forward $265 $-1 #
coedge $-1 -1 $-1 $175 $263 $350 $351 forward $265 $-1 #
loop $-1 -1 $-1 $-1 $175 $352 #
vertex $-1 -1 $-1 $349 $353 #
coedge $-1 -1 $-1 $354 $355 $177 $268 forward $356 $-1 #
edge $-1 -1 $-1 $180 1.5707963267948966 $333 3.1415926535897931 $267 $262 forward @7 unknown #
coedge $-1 -1 $-1 $357 $178 $355 $358 reversed $272 $-1 #
coedge $-1 -1 $-1 $178 $357 $251 $273 reversed $272 $-1 #
coedge $-1 -1 $-1 $350 $344 $77 $115 reversed $359 $-1 #
loop $-1 -1 $-1 $-1 $178 $241 #
edge $-1 -1 $-1 $179 0 $360 3 $270 $361 forward @7 unknown #
point $-1 -1 $-1 0 3.0000000000000004 5.5 #
edge $-1 -1 $-1 $180 0 $362 3 $344 $363 forward @7 unknown #
point $-1 -1 $-1 0 3.0000000000000004 -5.5 #
loop $-1 -1 $-1 $-1 $188 $116 #
coedge $-1 -1 $-1 $278 $278 $186 $279 forward $182 $-1 #
edge $364 -1 $-1 $365 -3.1415926535897931 $365 3.1415926535897931 $186 $366 forward @7 unknown #
vertex $-1 -1 $-1 $187 $367 #
ellipse-curve $-1 -1 $-1 0 -8.8817841970012523e-016 -4.5 0 0 1 3 0 0 1 I I #
convexity-sys-attrib $-1 -1 $-1 $-1 $189 #
vertex $-1 -1 $-1 $189 $368 #
ellipse-curve $-1 -1 $-1 0 -8.8817841970012523e-016 0.5 0 0 -1 1.5 0 0 1 I I #
point $-1 -1 $-1 1.5 -8.8817841970012523e-016 -4.5 #
model_id-kcp-attrib $-1 -1 $-1 $-1 $193 1 1021323255 1021323255 189202433 8 #
loop $-1 -1 $-1 $-1 $369 $193 #
plane-surface $-1 -1 $-1 11.964 7.5801000000000007 28 0 0 1 1 0 0 forward_v I I I I #
loop $-1 -1 $-1 $-1 $291 $125 #
coedge $-1 -1 $-1 $290 $290 $369 $370 reversed $196 $-1 #
coedge $-1 -1 $-1 $291 $291 $197 $292 forward $289 $-1 #
edge $371 -1 $-1 $372 0 $372 6.2831853071795862 $291 $373 forward @7 unknown #
attrib_edge_convexity-kcp-attrib $-1 -1 $374 $-1 $199 2 #
vertex $-1 -1 $-1 $199 $375 #
ellipse-curve $-1 -1 $-1 11.964 7.5801000000000007 23 0 0 1 1.5 0 0 1 I I #
convexity-sys-attrib $-1 -1 $-1 $200 $131 #
point $-1 -1 $-1 13.464 7.5801000000000007 18 #
convexity-sys-attrib $-1 -1 $-1 $-1 $207 #
vertex $-1 -1 $-1 $207 $376 #
ellipse-curve $-1 -1 $-1 0 -8.8817841970012523e-016 -4.4999999999999982 0 0 1 3 0 0 1 I I #
point $-1 -1 $-1 -3 -1.2555603258468384e-015 -5.4999999999999982 #
point $-1 -1 $-1 1 6.2172489379008766e-015 -4.5 #
plane-surface $-1 -1 $-1 3 0 0 -1 0 0 0 0 1 forward_v I I I I #
coedge $-1 -1 $-1 $219 $217 $221 $308 reversed $148 $-1 #
edge $-1 -1 $-1 $232 -5.5 $310 5.5 $231 $377 forward @7 unknown #
vertex $-1 -1 $-1 $308 $378 #
straight-curve $-1 -1 $-1 -3 -3.0000000000000004 0 0 0 -1 I I #
edge $-1 -1 $-1 $306 -3.0000000000000004 $310 3.0000000000000004 $304 $379 forward @7 unknown #
straight-curve $-1 -1 $-1 0 -3.0000000000000004 -5.5 -1 0 0 I I #
vertex $-1 -1 $-1 $224 $380 #
straight-curve $-1 -1 $-1 0 3.0000000000000004 -5.5 1 0 0 I I #
point $-1 -1 $-1 3 3.0000000000000004 -5.5 #
point $-1 -1 $-1 3 -3.0000000000000004 -5.5 #
straight-curve $-1 -1 $-1 -3 0 5.5 0 -1 0 I I #
point $-1 -1 $-1 -3 3.0000000000000004 5.5 #
point $-1 -1 $-1 -3 -3.0000000000000004 5.5 #
straight-curve $-1 -1 $-1 3 -3.0000000000000004 0 0 0 -1 I I #
straight-curve $-1 -1 $-1 3 3.0000000000000004 0 0 0 -1 I I #
face $-1 -1 $-1 $381 $382 $27 $-1 $383 reversed single #
plane-surface $-1 -1 $-1 0 3.0000000000000004 0 0 -1 0 0 0 -1 forward_v I I I I #
coedge $-1 -1 $-1 $244 $331 $245 $326 forward $167 $-1 #
coedge $-1 -1 $-1 $384 $385 $244 $323 forward $386 $-1 #
edge $-1 -1 $-1 $333 -3.1415926535897931 $330 -1.5707963267948966 $322 $262 forward @7 unknown #
coedge $-1 -1 $-1 $246 $245 $387 $388 reversed $110 $-1 #
coedge $-1 -1 $-1 $389 $390 $391 $326 forward $392 $-1 #
edge $-1 -1 $-1 $393 -11 $330 0 $325 $394 forward @7 unknown #
coedge $-1 -1 $-1 $328 $247 $395 $347 forward $329 $-1 #
coedge $-1 -1 $-1 $247 $327 $389 $396 forward $329 $-1 #
loop $-1 -1 $-1 $-1 $247 $397 #
vertex $-1 -1 $-1 $398 $399 #
coedge $-1 -1 $-1 $321 $249 $400 $401 reversed $167 $-1 #
coedge $-1 -1 $-1 $402 $403 $404 $250 forward $382 $-1 #
vertex $-1 -1 $-1 $405 $406 #
straight-curve $-1 -1 $-1 -3 -8.8817841970012523e-016 -5.5 0 0 -1 I I #
coedge $-1 -1 $-1 $407 $404 $252 $336 reversed $408 $-1 #
edge $-1 -1 $-1 $360 -3.0000000000000004 $254 8.8817841970012523e-016 $335 $409 forward @7 unknown #
face $-1 -1 $-1 $352 $253 $27 $-1 $410 forward single #
edge $-1 -1 $-1 $254 8.8817841970012523e-016 $411 3.0000000000000004 $403 $409 forward @7 unknown #
point $-1 -1 $-1 -3 -8.8817841970012523e-016 5.5 #
coedge $-1 -1 $-1 $412 $256 $259 $345 reversed $242 $-1 #
coedge $-1 -1 $-1 $256 $412 $263 $349 reversed $242 $-1 #
coedge $-1 -1 $-1 $413 $395 $246 $257 reversed $414 $-1 #
straight-curve $-1 -1 $-1 3 -8.8817841970012523e-016 -5.5 0 0 -1 I I #
coedge $-1 -1 $-1 $271 $415 $258 $275 reversed $359 $-1 #
edge $-1 -1 $-1 $362 -3.0000000000000004 $261 8.8817841970012523e-016 $340 $416 forward @7 unknown #
face $-1 -1 $-1 $417 $260 $27 $-1 $418 reversed single #
edge $-1 -1 $-1 $261 8.8817841970012523e-016 $419 3.0000000000000004 $395 $416 forward @7 unknown #
point $-1 -1 $-1 3 -8.8817841970012523e-016 -5.5 #
edge $-1 -1 $-1 $266 -8.8817841970012523e-016 $420 3.0000000000000004 $341 $421 forward @7 unknown #
coedge $-1 -1 $-1 $415 $271 $264 $351 reversed $359 $-1 #
edge $-1 -1 $-1 $420 -3 $179 0 $350 $361 forward @7 unknown #
face $-1 -1 $-1 $422 $265 $27 $-1 $410 forward single #
point $-1 -1 $-1 3 -8.8817841970012523e-016 5.5 #
coedge $-1 -1 $-1 $355 $267 $423 $405 forward $356 $-1 #
coedge $-1 -1 $-1 $267 $354 $269 $358 forward $356 $-1 #
loop $-1 -1 $-1 $-1 $267 $417 #
coedge $-1 -1 $-1 $270 $269 $407 $424 reversed $272 $-1 #
edge $-1 -1 $-1 $425 -3 $180 0 $269 $363 forward @7 unknown #
loop $-1 -1 $-1 $-1 $271 $426 #
vertex $-1 -1 $-1 $273 $427 #
straight-curve $-1 -1 $-1 0 3.0000000000000004 5.5 -1 0 0 I I #
vertex $-1 -1 $-1 $345 $428 #
straight-curve $-1 -1 $-1 0 3.0000000000000004 -5.5 1 0 0 I I #
convexity-sys-attrib $-1 -1 $-1 $-1 $279 #
vertex $-1 -1 $-1 $279 $429 #
ellipse-curve $-1 -1 $-1 0 -8.8817841970012523e-016 0.5 0 0 1 3 0 0 1 I I #
point $-1 -1 $-1 -3 -1.2555603258468384e-015 -4.5 #
point $-1 -1 $-1 1.5 -8.8817841970012523e-016 0.5 #
coedge $-1 -1 $-1 $369 $369 $290 $370 forward $287 $-1 #
edge $-1 -1 $-1 $430 0 $430 6.2831853071795862 $369 $431 forward @7 unknown #
attrib_edge_convexity-kcp-attrib $-1 -1 $432 $-1 $292 1 #
vertex $-1 -1 $-1 $292 $433 #
ellipse-curve $-1 -1 $-1 11.964 7.5801000000000007 23 0 0 -1 3 0 0 1 I I #
convexity-sys-attrib $-1 -1 $-1 $293 $199 #
point $-1 -1 $-1 13.464 7.5801000000000007 23 #
point $-1 -1 $-1 -3 -1.2555603258468384e-015 -4.4999999999999982 #
straight-curve $-1 -1 $-1 -3 3.0000000000000004 0 0 0 -1 I I #
point $-1 -1 $-1 -3 -3.0000000000000004 -5.5 #
straight-curve $-1 -1 $-1 -3 0 -5.5 0 1 0 I I #
point $-1 -1 $-1 -3 3.0000000000000004 -5.5 #
face $-1 -1 $-1 $337 $434 $27 $-1 $410 forward single #
loop $-1 -1 $-1 $-1 $332 $319 #
plane-surface $-1 -1 $-1 -3 0 0 1 0 0 0 0 -1 forward_v I I I I #
coedge $-1 -1 $-1 $385 $322 $435 $398 forward $386 $-1 #
coedge $-1 -1 $-1 $322 $384 $402 $436 forward $386 $-1 #
loop $-1 -1 $-1 $-1 $322 $437 #
coedge $-1 -1 $-1 $438 $439 $324 $388 forward $440 $-1 #
edge $-1 -1 $-1 $266 0 $393 1.5707963267948966 $387 $255 forward @7 unknown #
coedge $-1 -1 $-1 $441 $325 $328 $396 reversed $392 $-1 #
coedge $-1 -1 $-1 $325 $441 $438 $442 reversed $392 $-1 #
coedge $-1 -1 $-1 $443 $435 $321 $326 reversed $444 $-1 #
loop $-1 -1 $-1 $-1 $325 $445 #
vertex $-1 -1 $-1 $442 $446 #
straight-curve $-1 -1 $-1 0 -3.0000000000000004 -5.5 0 0 -1 I I #
coedge $-1 -1 $-1 $342 $447 $327 $347 reversed $414 $-1 #
edge $-1 -1 $-1 $419 -3 $330 0 $389 $448 forward @7 unknown #
face $-1 -1 $-1 $346 $329 $27 $-1 $418 reversed single #
edge $-1 -1 $-1 $330 0 $449 3 $435 $448 forward @7 unknown #
point $-1 -1 $-1 0 -3.0000000000000004 -5.5 #
coedge $-1 -1 $-1 $450 $451 $331 $401 forward $434 $-1 #
edge $-1 -1 $-1 $393 1.5707963267948966 $254 3.1415926535897931 $400 $255 forward @7 unknown #
coedge $-1 -1 $-1 $452 $332 $385 $436 reversed $382 $-1 #
coedge $-1 -1 $-1 $332 $452 $450 $338 reversed $382 $-1 #
coedge $-1 -1 $-1 $335 $423 $169 $250 reversed $408 $-1 #
edge $-1 -1 $-1 $333 -8.8817841970012523e-016 $425 3.0000000000000004 $423 $453 forward @7 unknown #
point $-1 -1 $-1 -3 -8.8817841970012523e-016 -5.5 #
coedge $-1 -1 $-1 $423 $335 $357 $424 forward $408 $-1 #
loop $-1 -1 $-1 $-1 $404 $454 #
straight-curve $-1 -1 $-1 -3 0 5.5 0 -1 0 I I #
plane-surface $-1 -1 $-1 0 0 5.5 0 0 1 1 0 0 forward_v I I I I #
vertex $-1 -1 $-1 $338 $455 #
coedge $-1 -1 $-1 $341 $340 $415 $456 reversed $242 $-1 #
coedge $-1 -1 $-1 $447 $342 $439 $457 reversed $414 $-1 #
loop $-1 -1 $-1 $-1 $342 $458 #
coedge $-1 -1 $-1 $344 $350 $412 $456 forward $359 $-1 #
straight-curve $-1 -1 $-1 3 0 -5.5 0 -1 0 I I #
face $-1 -1 $-1 $459 $356 $27 $-1 $418 reversed single #
plane-surface $-1 -1 $-1 0 0 -5.5 0 0 1 1 0 0 forward_v I I I I #
vertex $-1 -1 $-1 $460 $461 #
vertex $-1 -1 $-1 $349 $462 #
straight-curve $-1 -1 $-1 3 0 5.5 0 1 0 I I #
face $-1 -1 $-1 $445 $440 $27 $-1 $410 forward single #
coedge $-1 -1 $-1 $404 $407 $354 $405 reversed $408 $-1 #
edge $-1 -1 $-1 $360 -5.5 $425 5.5 $357 $463 forward @7 unknown #
vertex $-1 -1 $-1 $358 $464 #
face $-1 -1 $-1 $458 $359 $27 $-1 $320 reversed single #
point $-1 -1 $-1 -3 3.0000000000000004 5.5 #
point $-1 -1 $-1 3 3.0000000000000004 -5.5 #
point $-1 -1 $-1 -3 -1.2555603258468384e-015 0.5 #
vertex $-1 -1 $-1 $370 $465 #
ellipse-curve $-1 -1 $-1 11.964 7.5801000000000007 28 0 0 1 3 0 0 1 I I #
convexity-sys-attrib $-1 -1 $-1 $371 $292 #
point $-1 -1 $-1 14.964 7.5801000000000007 23 #
loop $-1 -1 $-1 $-1 $400 $381 #
coedge $-1 -1 $-1 $391 $466 $384 $398 reversed $444 $-1 #
edge $-1 -1 $-1 $449 -3.0000000000000004 $333 -8.8817841970012523e-016 $402 $453 forward @7 unknown #
face $-1 -1 $-1 $397 $386 $27 $-1 $418 reversed single #
coedge $-1 -1 $-1 $439 $387 $390 $442 forward $440 $-1 #
coedge $-1 -1 $-1 $387 $438 $413 $457 forward $440 $-1 #
loop $-1 -1 $-1 $-1 $387 $422 #
coedge $-1 -1 $-1 $390 $389 $447 $460 reversed $392 $-1 #
edge $-1 -1 $-1 $393 0 $467 3 $390 $468 forward @7 unknown #
coedge $-1 -1 $-1 $466 $391 $451 $469 reversed $444 $-1 #
loop $-1 -1 $-1 $-1 $391 $459 #
face $-1 -1 $-1 $437 $392 $27 $-1 $470 reversed single #
point $-1 -1 $-1 0 -3.0000000000000004 5.5 #
coedge $-1 -1 $-1 $395 $413 $441 $460 forward $414 $-1 #
straight-curve $-1 -1 $-1 0 -3.0000000000000004 -5.5 -1 0 0 I I #
vertex $-1 -1 $-1 $436 $471 #
coedge $-1 -1 $-1 $451 $400 $403 $338 forward $434 $-1 #
coedge $-1 -1 $-1 $400 $450 $443 $469 forward $434 $-1 #
coedge $-1 -1 $-1 $403 $402 $466 $472 reversed $382 $-1 #
straight-curve $-1 -1 $-1 -3 0 -5.5 0 1 0 I I #
face $-1 -1 $-1 $426 $408 $27 $-1 $383 reversed single #
point $-1 -1 $-1 -3 -3.0000000000000004 5.5 #
edge $-1 -1 $-1 $420 -5.5 $362 5.5 $412 $473 forward @7 unknown #
edge $-1 -1 $-1 $467 -3.0000000000000004 $266 -8.8817841970012523e-016 $413 $421 forward @7 unknown #
face $-1 -1 $-1 $-1 $414 $27 $-1 $243 reversed single #
face $-1 -1 $-1 $454 $444 $27 $-1 $470 reversed single #
edge $-1 -1 $-1 $467 -5.5 $419 5.5 $447 $474 forward @7 unknown #
point $-1 -1 $-1 3 -3.0000000000000004 -5.5 #
point $-1 -1 $-1 3 3.0000000000000004 5.5 #
straight-curve $-1 -1 $-1 -3 3.0000000000000004 0 0 0 -1 I I #
point $-1 -1 $-1 -3 3.0000000000000004 -5.5 #
point $-1 -1 $-1 14.964 7.5801000000000007 28 #
coedge $-1 -1 $-1 $435 $443 $452 $472 forward $444 $-1 #
vertex $-1 -1 $-1 $457 $475 #
straight-curve $-1 -1 $-1 0 -3.0000000000000004 5.5 1 0 0 I I #
edge $-1 -1 $-1 $411 -3 $393 0 $443 $468 forward @7 unknown #
plane-surface $-1 -1 $-1 0 -3.0000000000000004 0 0 1 0 0 0 1 forward_v I I I I #
point $-1 -1 $-1 -3 -3.0000000000000004 -5.5 #
edge $-1 -1 $-1 $411 -5.5 $449 5.5 $452 $476 forward @7 unknown #
straight-curve $-1 -1 $-1 3 3.0000000000000004 0 0 0 -1 I I #
straight-curve $-1 -1 $-1 3 -3.0000000000000004 0 0 0 -1 I I #
point $-1 -1 $-1 3 -3.0000000000000004 5.5 #
straight-curve $-1 -1 $-1 -3 -3.0000000000000004 0 0 0 -1 I I #
End-of-ACIS-data 