201 0 1 0           
7 Unknown 11 ACIS 2.1 NT 24 Wed Aug 29 11:38:18 2001 
-1 9.9999999999999995e-007 1e-010 
body $-1 $1 $-1 $2 #
lump $-1 $-1 $3 $0 #
transform $-1 1 0 0 0 1 0 0 0 1 0 0 0 1 no_rotate no_reflect no_shear #
shell $-1 $-1 $-1 $4 $-1 $1 #
face $-1 $5 $6 $3 $-1 $7 reversed single #
face $-1 $8 $9 $3 $-1 $10 forward single #
loop $-1 $-1 $11 $4 #
plane-surface $-1 11.964000000000002 7.5801000000000034 13.5 0 0 -1 -1 0 0 forward_v I I I I #
face $-1 $12 $13 $3 $-1 $14 forward single #
loop $-1 $15 $16 $5 #
cone-surface $-1 11.964 7.5800999999999998 10 0 0 1 1 0 0 1 I I 0 1 forward I I I I #
coedge $-1 $11 $11 $16 $17 1 $6 $-1 #
face $-1 $18 $19 $3 $-1 $20 forward single #
loop $-1 $21 $22 $8 #
cone-surface $-1 11.964 7.5801000000000007 6.25 0 -6.1230317691118863e-017 -1 1.5036 0 0 1 I I 0 1 forward I I I I #
loop $-1 $-1 $23 $5 #
coedge $-1 $16 $16 $11 $17 0 $9 $-1 #
edge $-1 $24 $24 $16 $25 forward #
face $-1 $-1 $26 $3 $-1 $27 forward single #
loop $-1 $28 $29 $12 #
plane-surface $-1 11.964 7.5801000000000007 7.5 0 6.1230317691118863e-017 1 -1 0 0 forward_v I I I I #
loop $-1 $-1 $30 $8 #
coedge $-1 $22 $22 $31 $32 1 $13 $-1 #
coedge $-1 $23 $23 $29 $33 1 $15 $-1 #
vertex $-1 $17 $34 #
ellipse-curve $-1 11.964 7.5801000000000007 13.5 0 0 -1 1 0 0 1 I I #
loop $-1 $-1 $35 $18 #
plane-surface $-1 11.964 7.5801000000000007 5 0 -6.1230317691118863e-017 -1 1 0 0 forward_v I I I I #
loop $-1 $-1 $31 $12 #
coedge $-1 $29 $29 $23 $33 0 $19 $-1 #
coedge $-1 $30 $30 $35 $36 1 $21 $-1 #
coedge $-1 $31 $31 $22 $32 0 $28 $-1 #
edge $-1 $37 $37 $31 $38 forward #
edge $-1 $39 $39 $29 $40 forward #
point $-1 12.964 7.5801000000000007 13.5 #
coedge $-1 $35 $35 $30 $36 0 $26 $-1 #
edge $-1 $41 $41 $35 $42 forward #
vertex $-1 $32 $43 #
ellipse-curve $-1 11.964 7.5801000000000007 7.5 0 6.1230317691118863e-017 1 1.5036 0 0 1 I I #
vertex $-1 $33 $44 #
ellipse-curve $-1 11.964 7.5800999999999998 7.5 0 -6.1230317691118863e-017 -1 1 0 0 1 I I #
vertex $-1 $36 $45 #
ellipse-curve $-1 11.964 7.5801000000000007 5 0 -6.1230317691118863e-017 -1 1.5036 0 0 1 I I #
point $-1 13.467600000000001 7.5801000000000007 7.5 #
point $-1 12.964 7.5800999999999998 7.4999999999999991 #
point $-1 13.467600000000001 7.5801000000000007 5 #
End-of-ACIS-data 