  0
SECTION
  2
HEADER
  9
$ACADVER
  1
AC1009
  9
$INSBASE
 10
0.0
 20
0.0
 30
0.0
  9
$EXTMIN
 10
0.0
 20
0.0
 30
0.0
  9
$EXTMAX
 10
11.79791
 20
6.0
 30
3.0
  9
$LIMMIN
 10
0.0
 20
0.0
  9
$LIMMAX
 10
12.0
 20
9.0
  9
$ORTHOMODE
 70
     0
  9
$REGENMODE
 70
     1
  9
$FILLMODE
 70
     1
  9
$QTEXTMODE
 70
     0
  9
$MIRRTEXT
 70
     1
  9
$DRAGMODE
 70
     2
  9
$LTSCALE
 40
1.0
  9
$OSMODE
 70
     0
  9
$ATTMODE
 70
     1
  9
$TEXTSIZE
 40
0.2
  9
$TRACEWID
 40
0.05
  9
$TEXTSTYLE
  7
STANDARD
  9
$CLAYER
  8
0
  9
$CELTYPE
  6
BYLAYER
  9
$CECOLOR
 62
   256
  9
$DIMSCALE
 40
1.0
  9
$DIMASZ
 40
0.18
  9
$DIMEXO
 40
0.0625
  9
$DIMDLI
 40
0.38
  9
$DIMRND
 40
0.0
  9
$DIMDLE
 40
0.0
  9
$DIMEXE
 40
0.18
  9
$DIMTP
 40
0.0
  9
$DIMTM
 40
0.0
  9
$DIMTXT
 40
0.18
  9
$DIMCEN
 40
0.09
  9
$DIMTSZ
 40
0.0
  9
$DIMTOL
 70
     0
  9
$DIMLIM
 70
     0
  9
$DIMTIH
 70
     1
  9
$DIMTOH
 70
     1
  9
$DIMSE1
 70
     0
  9
$DIMSE2
 70
     0
  9
$DIMTAD
 70
     0
  9
$DIMZIN
 70
     0
  9
$DIMBLK
  1

  9
$DIMASO
 70
     1
  9
$DIMSHO
 70
     1
  9
$DIMPOST
  1

  9
$DIMAPOST
  1

  9
$DIMALT
 70
     0
  9
$DIMALTD
 70
     2
  9
$DIMALTF
 40
25.4
  9
$DIMLFAC
 40
1.0
  9
$DIMTOFL
 70
     0
  9
$DIMTVP
 40
0.0
  9
$DIMTIX
 70
     0
  9
$DIMSOXD
 70
     0
  9
$DIMSAH
 70
     0
  9
$DIMBLK1
  1

  9
$DIMBLK2
  1

  9
$DIMSTYLE
  2
*UNNAMED
  9
$DIMCLRD
 70
     0
  9
$DIMCLRE
 70
     0
  9
$DIMCLRT
 70
     0
  9
$DIMTFAC
 40
1.0
  9
$DIMGAP
 40
0.09
  9
$LUNITS
 70
     2
  9
$LUPREC
 70
     4
  9
$SKETCHINC
 40
0.1
  9
$FILLETRAD
 40
0.0
  9
$AUNITS
 70
     0
  9
$AUPREC
 70
     0
  9
$MENU
  1
acad
  9
$ELEVATION
 40
0.0
  9
$PELEVATION
 40
0.0
  9
$THICKNESS
 40
0.0
  9
$LIMCHECK
 70
     0
  9
$BLIPMODE
 70
     1
  9
$CHAMFERA
 40
0.0
  9
$CHAMFERB
 40
0.0
  9
$SKPOLY
 70
     0
  9
$TDCREATE
 40
2448820.912014606
  9
$TDUPDATE
 40
2448820.916961354
  9
$TDINDWG
 40
0.0049467477
  9
$TDUSRTIMER
 40
0.0049467477
  9
$USRTIMER
 70
     1
  9
$ANGBASE
 50
0.0
  9
$ANGDIR
 70
     0
  9
$PDMODE
 70
     0
  9
$PDSIZE
 40
0.0
  9
$PLINEWID
 40
0.0
  9
$COORDS
 70
     0
  9
$SPLFRAME
 70
     0
  9
$SPLINETYPE
 70
     6
  9
$SPLINESEGS
 70
     8
  9
$ATTDIA
 70
     0
  9
$ATTREQ
 70
     1
  9
$HANDLING
 70
     1
  9
$HANDSEED
  5
17B
  9
$SURFTAB1
 70
     6
  9
$SURFTAB2
 70
     6
  9
$SURFTYPE
 70
     6
  9
$SURFU
 70
     6
  9
$SURFV
 70
     6
  9
$UCSNAME
  2

  9
$UCSORG
 10
0.0
 20
0.0
 30
0.0
  9
$UCSXDIR
 10
1.0
 20
0.0
 30
0.0
  9
$UCSYDIR
 10
0.0
 20
1.0
 30
0.0
  9
$PUCSNAME
  2

  9
$PUCSORG
 10
0.0
 20
0.0
 30
0.0
  9
$PUCSXDIR
 10
1.0
 20
0.0
 30
0.0
  9
$PUCSYDIR
 10
0.0
 20
1.0
 30
0.0
  9
$USERI1
 70
     0
  9
$USERI2
 70
     0
  9
$USERI3
 70
     0
  9
$USERI4
 70
     0
  9
$USERI5
 70
     0
  9
$USERR1
 40
0.0
  9
$USERR2
 40
0.0
  9
$USERR3
 40
0.0
  9
$USERR4
 40
0.0
  9
$USERR5
 40
0.0
  9
$WORLDVIEW
 70
     1
  9
$SHADEDGE
 70
     3
  9
$SHADEDIF
 70
    70
  9
$TILEMODE
 70
     1
  9
$MAXACTVP
 70
    16
  9
$PINSBASE
 10
0.0
 20
0.0
 30
0.0
  9
$PLIMCHECK
 70
     0
  9
$PEXTMIN
 10
1.000000E+20
 20
1.000000E+20
 30
1.000000E+20
  9
$PEXTMAX
 10
-1.000000E+20
 20
-1.000000E+20
 30
-1.000000E+20
  9
$PLIMMIN
 10
0.0
 20
0.0
  9
$PLIMMAX
 10
12.0
 20
9.0
  9
$UNITMODE
 70
     0
  9
$VISRETAIN
 70
     0
  9
$PLINEGEN
 70
     0
  9
$PSLTSCALE
 70
     0
  9
$TREEDEPTH
 70
  3020
  9
$DWGCODEPAGE
  3
undefined
  0
ENDSEC
  0
SECTION
  2
TABLES
  0
TABLE
  2
VPORT
 70
     2
  0
VPORT
  2
*ACTIVE
 70
     0
 10
0.0
 20
0.0
 11
1.0
 21
1.0
 12
-0.594876
 22
-2.408238
 13
0.0
 23
0.0
 14
1.0
 24
1.0
 15
0.0
 25
0.0
 16
1.0
 26
1.0
 36
1.0
 17
0.0
 27
0.0
 37
0.0
 40
9.715456
 41
1.594883
 42
50.0
 43
0.0
 44
0.0
 50
0.0
 51
0.0
 71
     0
 72
   100
 73
     1
 74
     1
 75
     0
 76
     0
 77
     0
 78
     0
  0
ENDTAB
  0
TABLE
  2
LTYPE
 70
     1
  0
LTYPE
  2
CONTINUOUS
 70
    64
  3
Solid line
 72
    65
 73
     0
 40
0.0
  0
ENDTAB
  0
TABLE
  2
LAYER
 70
     2
  0
LAYER
  2
0
 70
    64
 62
     7
  6
CONTINUOUS
  0
LAYER
  2
AME_FRZ
 70
    65
 62
     7
  6
CONTINUOUS
  0
ENDTAB
  0
TABLE
  2
STYLE
 70
     1
  0
STYLE
  2
STANDARD
 70
     0
 40
0.0
 41
1.0
 50
0.0
 71
     0
 42
0.2
  3
txt
  4

  0
ENDTAB
  0
TABLE
  2
VIEW
 70
     0
  0
ENDTAB
  0
TABLE
  2
UCS
 70
     0
  0
ENDTAB
  0
TABLE
  2
APPID
 70
     2
  0
APPID
  2
ACAD
 70
    64
  0
APPID
  2
AME_SOL
 70
    64
  0
ENDTAB
  0
TABLE
  2
DIMSTYLE
 70
     0
  0
ENDTAB
  0
ENDSEC
  0
SECTION
  2
BLOCKS
  0
BLOCK
  8
0
  5
31
  2
AME_NIL
 70
    64
 10
0.0
 20
0.0
 30
0.0
  1
AME_NIL
  3
AME_NIL
  0
ENDBLK
  8
0
  5
32
  0
BLOCK
  8
0
  5
34
  2
AME_SOL
 70
    64
 10
0.0
 20
0.0
 30
0.0
  1
AME_SOL
  3
AME_SOL
  0
ENDBLK
  8
0
  5
35
  0
BLOCK
  8
0
  5
37
  2
*U2
 70
    65
 10
0.0
 20
0.0
 30
0.0
  1
*U
  3
*U
  0
LINE
  8
0
 62
     0
  5
38
 10
3.0
 20
6.0
 30
0.0
 11
3.0
 21
6.0
 31
3.0
1001
AME_SOL
1070
     1
1071
       18
  0
LINE
  8
0
 62
     0
  5
39
 10
3.0
 20
6.0
 30
3.0
 11
3.0
 21
0.0
 31
3.0
1001
AME_SOL
1070
     1
1071
       17
  0
LINE
  8
0
 62
     0
  5
3A
 10
0.0
 20
6.0
 30
3.0
 11
3.0
 21
6.0
 31
3.0
1001
AME_SOL
1070
     1
1071
       16
  0
LINE
  8
0
 62
     0
  5
3B
 10
0.0
 20
6.0
 30
0.0
 11
0.0
 21
6.0
 31
3.0
1001
AME_SOL
1070
     1
1071
       15
  0
LINE
  8
0
 62
     0
  5
3C
 10
0.0
 20
6.0
 30
3.0
 11
0.0
 21
0.0
 31
3.0
1001
AME_SOL
1070
     1
1071
       14
  0
LINE
  8
0
 62
     0
  5
3D
 10
0.0
 20
0.0
 30
0.0
 11
0.0
 21
0.0
 31
3.0
1001
AME_SOL
1070
     1
1071
       13
  0
LINE
  8
0
 62
     0
  5
3E
 10
3.0
 20
0.0
 30
3.0
 11
3.0
 21
0.0
 31
0.0
1001
AME_SOL
1070
     1
1071
       12
  0
LINE
  8
0
 62
     0
  5
3F
 10
0.0
 20
0.0
 30
3.0
 11
3.0
 21
0.0
 31
3.0
1001
AME_SOL
1070
     1
1071
       11
  0
LINE
  8
0
 62
     0
  5
40
 10
0.0
 20
0.0
 30
0.0
 11
3.0
 21
0.0
 31
0.0
1001
AME_SOL
1070
     1
1071
       10
  0
LINE
  8
0
 62
     0
  5
41
 10
0.0
 20
6.0
 30
0.0
 11
0.0
 21
0.0
 31
0.0
1001
AME_SOL
1070
     1
1071
        9
  0
LINE
  8
0
 62
     0
  5
42
 10
3.0
 20
0.0
 30
0.0
 11
3.0
 21
6.0
 31
0.0
1001
AME_SOL
1070
     1
1071
        8
  0
LINE
  8
0
 62
     0
  5
43
 10
3.0
 20
6.0
 30
0.0
 11
0.0
 21
6.0
 31
0.0
1001
AME_SOL
1070
     1
1071
        7
  0
ENDBLK
  8
0
  5
44
  0
BLOCK
  8
0
  5
48
  2
*U3
 70
    65
 10
0.0
 20
0.0
 30
0.0
  1
*U
  3
*U
  0
LINE
  8
0
 62
     0
  5
49
 10
1.0
 20
2.0
 30
0.0
 11
1.0
 21
2.0
 31
1.0
1001
AME_SOL
1070
     1
1071
       18
  0
LINE
  8
0
 62
     0
  5
4A
 10
1.0
 20
2.0
 30
1.0
 11
1.0
 21
0.0
 31
1.0
1001
AME_SOL
1070
     1
1071
       17
  0
LINE
  8
0
 62
     0
  5
4B
 10
0.0
 20
2.0
 30
1.0
 11
1.0
 21
2.0
 31
1.0
1001
AME_SOL
1070
     1
1071
       16
  0
LINE
  8
0
 62
     0
  5
4C
 10
0.0
 20
2.0
 30
0.0
 11
0.0
 21
2.0
 31
1.0
1001
AME_SOL
1070
     1
1071
       15
  0
LINE
  8
0
 62
     0
  5
4D
 10
0.0
 20
2.0
 30
1.0
 11
0.0
 21
0.0
 31
1.0
1001
AME_SOL
1070
     1
1071
       14
  0
LINE
  8
0
 62
     0
  5
4E
 10
0.0
 20
0.0
 30
0.0
 11
0.0
 21
0.0
 31
1.0
1001
AME_SOL
1070
     1
1071
       13
  0
LINE
  8
0
 62
     0
  5
4F
 10
1.0
 20
0.0
 30
1.0
 11
1.0
 21
0.0
 31
0.0
1001
AME_SOL
1070
     1
1071
       12
  0
LINE
  8
0
 62
     0
  5
50
 10
0.0
 20
0.0
 30
1.0
 11
1.0
 21
0.0
 31
1.0
1001
AME_SOL
1070
     1
1071
       11
  0
LINE
  8
0
 62
     0
  5
51
 10
0.0
 20
0.0
 30
0.0
 11
1.0
 21
0.0
 31
0.0
1001
AME_SOL
1070
     1
1071
       10
  0
LINE
  8
0
 62
     0
  5
52
 10
0.0
 20
2.0
 30
0.0
 11
0.0
 21
0.0
 31
0.0
1001
AME_SOL
1070
     1
1071
        9
  0
LINE
  8
0
 62
     0
  5
53
 10
1.0
 20
0.0
 30
0.0
 11
1.0
 21
2.0
 31
0.0
1001
AME_SOL
1070
     1
1071
        8
  0
LINE
  8
0
 62
     0
  5
54
 10
1.0
 20
2.0
 30
0.0
 11
0.0
 21
2.0
 31
0.0
1001
AME_SOL
1070
     1
1071
        7
  0
ENDBLK
  8
0
  5
55
  0
BLOCK
  8
0
  5
59
  2
*U4
 70
    65
 10
0.0
 20
0.0
 30
0.0
  1
*U
  3
*U
  0
LINE
  8
0
 62
     0
  5
5A
 10
1.0
 20
5.0
 30
0.0
 11
1.0
 21
5.0
 31
1.0
1001
AME_SOL
1070
     1
1071
       18
  0
LINE
  8
0
 62
     0
  5
5B
 10
1.0
 20
5.0
 30
1.0
 11
1.0
 21
0.0
 31
1.0
1001
AME_SOL
1070
     1
1071
       17
  0
LINE
  8
0
 62
     0
  5
5C
 10
0.0
 20
5.0
 30
1.0
 11
1.0
 21
5.0
 31
1.0
1001
AME_SOL
1070
     1
1071
       16
  0
LINE
  8
0
 62
     0
  5
5D
 10
0.0
 20
5.0
 30
0.0
 11
0.0
 21
5.0
 31
1.0
1001
AME_SOL
1070
     1
1071
       15
  0
LINE
  8
0
 62
     0
  5
5E
 10
0.0
 20
5.0
 30
1.0
 11
0.0
 21
0.0
 31
1.0
1001
AME_SOL
1070
     1
1071
       14
  0
LINE
  8
0
 62
     0
  5
5F
 10
0.0
 20
0.0
 30
0.0
 11
0.0
 21
0.0
 31
1.0
1001
AME_SOL
1070
     1
1071
       13
  0
LINE
  8
0
 62
     0
  5
60
 10
1.0
 20
0.0
 30
1.0
 11
1.0
 21
0.0
 31
0.0
1001
AME_SOL
1070
     1
1071
       12
  0
LINE
  8
0
 62
     0
  5
61
 10
0.0
 20
0.0
 30
1.0
 11
1.0
 21
0.0
 31
1.0
1001
AME_SOL
1070
     1
1071
       11
  0
LINE
  8
0
 62
     0
  5
62
 10
0.0
 20
0.0
 30
0.0
 11
1.0
 21
0.0
 31
0.0
1001
AME_SOL
1070
     1
1071
       10
  0
LINE
  8
0
 62
     0
  5
63
 10
0.0
 20
5.0
 30
0.0
 11
0.0
 21
0.0
 31
0.0
1001
AME_SOL
1070
     1
1071
        9
  0
LINE
  8
0
 62
     0
  5
64
 10
1.0
 20
0.0
 30
0.0
 11
1.0
 21
5.0
 31
0.0
1001
AME_SOL
1070
     1
1071
        8
  0
LINE
  8
0
 62
     0
  5
65
 10
1.0
 20
5.0
 30
0.0
 11
0.0
 21
5.0
 31
0.0
1001
AME_SOL
1070
     1
1071
        7
  0
ENDBLK
  8
0
  5
66
  0
BLOCK
  8
0
  5
6A
  2
*U5
 70
    65
 10
0.0
 20
0.0
 30
0.0
  1
*U
  3
*U
  0
LINE
  8
0
 62
     0
  5
6B
 10
1.0
 20
2.0
 30
0.0
 11
1.0
 21
2.0
 31
1.0
1001
AME_SOL
1070
     1
1071
       18
  0
LINE
  8
0
 62
     0
  5
6C
 10
1.0
 20
2.0
 30
1.0
 11
1.0
 21
0.0
 31
1.0
1001
AME_SOL
1070
     1
1071
       17
  0
LINE
  8
0
 62
     0
  5
6D
 10
0.0
 20
2.0
 30
1.0
 11
1.0
 21
2.0
 31
1.0
1001
AME_SOL
1070
     1
1071
       16
  0
LINE
  8
0
 62
     0
  5
6E
 10
0.0
 20
2.0
 30
0.0
 11
0.0
 21
2.0
 31
1.0
1001
AME_SOL
1070
     1
1071
       15
  0
LINE
  8
0
 62
     0
  5
6F
 10
0.0
 20
2.0
 30
1.0
 11
0.0
 21
0.0
 31
1.0
1001
AME_SOL
1070
     1
1071
       14
  0
LINE
  8
0
 62
     0
  5
70
 10
0.0
 20
0.0
 30
0.0
 11
0.0
 21
0.0
 31
1.0
1001
AME_SOL
1070
     1
1071
       13
  0
LINE
  8
0
 62
     0
  5
71
 10
1.0
 20
0.0
 30
1.0
 11
1.0
 21
0.0
 31
0.0
1001
AME_SOL
1070
     1
1071
       12
  0
LINE
  8
0
 62
     0
  5
72
 10
0.0
 20
0.0
 30
1.0
 11
1.0
 21
0.0
 31
1.0
1001
AME_SOL
1070
     1
1071
       11
  0
LINE
  8
0
 62
     0
  5
73
 10
0.0
 20
0.0
 30
0.0
 11
1.0
 21
0.0
 31
0.0
1001
AME_SOL
1070
     1
1071
       10
  0
LINE
  8
0
 62
     0
  5
74
 10
0.0
 20
2.0
 30
0.0
 11
0.0
 21
0.0
 31
0.0
1001
AME_SOL
1070
     1
1071
        9
  0
LINE
  8
0
 62
     0
  5
75
 10
1.0
 20
0.0
 30
0.0
 11
1.0
 21
2.0
 31
0.0
1001
AME_SOL
1070
     1
1071
        8
  0
LINE
  8
0
 62
     0
  5
76
 10
1.0
 20
2.0
 30
0.0
 11
0.0
 21
2.0
 31
0.0
1001
AME_SOL
1070
     1
1071
        7
  0
ENDBLK
  8
0
  5
77
  0
BLOCK
  8
0
  5
7E
  2
*U6
 70
    65
 10
0.0
 20
0.0
 30
0.0
  1
*U
  3
*U
  0
LINE
  8
0
 62
     7
  5
7F
 10
3.0
 20
6.0
 30
0.0
 11
3.0
 21
6.0
 31
3.0
1001
AME_SOL
1070
     1
1071
       63
  0
LINE
  8
0
 62
     7
  5
80
 10
3.0
 20
6.0
 30
3.0
 11
3.0
 21
0.0
 31
3.0
1001
AME_SOL
1070
     1
1071
       62
  0
LINE
  8
0
 62
     7
  5
81
 10
0.0
 20
6.0
 30
3.0
 11
3.0
 21
6.0
 31
3.0
1001
AME_SOL
1070
     1
1071
       61
  0
LINE
  8
0
 62
     7
  5
82
 10
0.0
 20
6.0
 30
0.0
 11
0.0
 21
6.0
 31
3.0
1001
AME_SOL
1070
     1
1071
       60
  0
LINE
  8
0
 62
     7
  5
83
 10
0.0
 20
6.0
 30
3.0
 11
0.0
 21
0.0
 31
3.0
1001
AME_SOL
1070
     1
1071
       59
  0
LINE
  8
0
 62
     7
  5
84
 10
0.0
 20
0.0
 30
0.0
 11
0.0
 21
0.0
 31
3.0
1001
AME_SOL
1070
     1
1071
       58
  0
LINE
  8
0
 62
     7
  5
85
 10
3.0
 20
0.0
 30
3.0
 11
3.0
 21
0.0
 31
0.0
1001
AME_SOL
1070
     1
1071
       57
  0
LINE
  8
0
 62
     7
  5
86
 10
0.0
 20
0.0
 30
3.0
 11
3.0
 21
0.0
 31
3.0
1001
AME_SOL
1070
     1
1071
       56
  0
LINE
  8
0
 62
     7
  5
87
 10
0.0
 20
0.0
 30
0.0
 11
3.0
 21
0.0
 31
0.0
1001
AME_SOL
1070
     1
1071
       55
  0
LINE
  8
0
 62
     7
  5
88
 10
0.0
 20
6.0
 30
0.0
 11
0.0
 21
0.0
 31
0.0
1001
AME_SOL
1070
     1
1071
       54
  0
LINE
  8
0
 62
     7
  5
89
 10
3.0
 20
0.0
 30
0.0
 11
3.0
 21
6.0
 31
0.0
1001
AME_SOL
1070
     1
1071
       53
  0
LINE
  8
0
 62
     7
  5
8A
 10
3.0
 20
6.0
 30
0.0
 11
0.0
 21
6.0
 31
0.0
1001
AME_SOL
1070
     1
1071
       52
  0
LINE
  8
0
 62
     7
  5
8B
 10
2.0
 20
6.0
 30
2.0
 11
2.0
 21
6.0
 31
1.0
1001
AME_SOL
1070
     1
1071
       51
  0
LINE
  8
0
 62
     7
  5
8C
 10
0.0
 20
2.0
 30
2.0
 11
0.0
 21
4.0
 31
2.0
1001
AME_SOL
1070
     1
1071
       50
  0
LINE
  8
0
 62
     7
  5
8D
 10
3.0
 20
5.0
 30
2.0
 11
3.0
 21
3.0
 31
2.0
1001
AME_SOL
1070
     1
1071
       49
  0
LINE
  8
0
 62
     7
  5
8E
 10
1.0
 20
6.0
 30
2.0
 11
2.0
 21
6.0
 31
2.0
1001
AME_SOL
1070
     1
1071
       48
  0
LINE
  8
0
 62
     7
  5
8F
 10
2.0
 20
3.0
 30
2.0
 11
2.0
 21
1.0
 31
2.0
1001
AME_SOL
1070
     1
1071
       47
  0
LINE
  8
0
 62
     7
  5
90
 10
2.0
 20
6.0
 30
2.0
 11
2.0
 21
5.0
 31
2.0
1001
AME_SOL
1070
     1
1071
       46
  0
LINE
  8
0
 62
     7
  5
91
 10
1.0
 20
6.0
 30
1.0
 11
1.0
 21
6.0
 31
2.0
1001
AME_SOL
1070
     1
1071
       45
  0
LINE
  8
0
 62
     7
  5
92
 10
1.0
 20
2.0
 30
2.0
 11
1.0
 21
1.0
 31
2.0
1001
AME_SOL
1070
     1
1071
       44
  0
LINE
  8
0
 62
     7
  5
93
 10
1.0
 20
6.0
 30
2.0
 11
1.0
 21
4.0
 31
2.0
1001
AME_SOL
1070
     1
1071
       43
  0
LINE
  8
0
 62
     7
  5
94
 10
1.0
 20
1.0
 30
1.0
 11
1.0
 21
1.0
 31
2.0
1001
AME_SOL
1070
     1
1071
       42
  0
LINE
  8
0
 62
     7
  5
95
 10
2.0
 20
1.0
 30
2.0
 11
2.0
 21
1.0
 31
1.0
1001
AME_SOL
1070
     1
1071
       41
  0
LINE
  8
0
 62
     7
  5
96
 10
1.0
 20
1.0
 30
2.0
 11
2.0
 21
1.0
 31
2.0
1001
AME_SOL
1070
     1
1071
       40
  0
LINE
  8
0
 62
     7
  5
97
 10
1.0
 20
1.0
 30
1.0
 11
2.0
 21
1.0
 31
1.0
1001
AME_SOL
1070
     1
1071
       39
  0
LINE
  8
0
 62
     7
  5
98
 10
0.0
 20
4.0
 30
1.0
 11
0.0
 21
2.0
 31
1.0
1001
AME_SOL
1070
     1
1071
       38
  0
LINE
  8
0
 62
     7
  5
99
 10
1.0
 20
2.0
 30
1.0
 11
1.0
 21
1.0
 31
1.0
1001
AME_SOL
1070
     1
1071
       37
  0
LINE
  8
0
 62
     7
  5
9A
 10
1.0
 20
6.0
 30
1.0
 11
1.0
 21
4.0
 31
1.0
1001
AME_SOL
1070
     1
1071
       36
  0
LINE
  8
0
 62
     7
  5
9B
 10
3.0
 20
3.0
 30
1.0
 11
3.0
 21
5.0
 31
1.0
1001
AME_SOL
1070
     1
1071
       35
  0
LINE
  8
0
 62
     7
  5
9C
 10
2.0
 20
6.0
 30
1.0
 11
1.0
 21
6.0
 31
1.0
1001
AME_SOL
1070
     1
1071
       34
  0
LINE
  8
0
 62
     7
  5
9D
 10
2.0
 20
5.0
 30
1.0
 11
2.0
 21
6.0
 31
1.0
1001
AME_SOL
1070
     1
1071
       33
  0
LINE
  8
0
 62
     7
  5
9E
 10
2.0
 20
1.0
 30
1.0
 11
2.0
 21
3.0
 31
1.0
1001
AME_SOL
1070
     1
1071
       32
  0
LINE
  8
0
 62
     7
  5
9F
 10
2.0
 20
5.0
 30
1.0
 11
3.0
 21
5.0
 31
1.0
1001
AME_SOL
1070
     1
1071
       31
  0
LINE
  8
0
 62
     7
  5
A0
 10
3.0
 20
5.0
 30
1.0
 11
3.0
 21
5.0
 31
2.0
1001
AME_SOL
1070
     1
1071
       30
  0
LINE
  8
0
 62
     7
  5
A1
 10
2.0
 20
5.0
 30
1.0
 11
2.0
 21
5.0
 31
2.0
1001
AME_SOL
1070
     1
1071
       29
  0
LINE
  8
0
 62
     7
  5
A2
 10
3.0
 20
5.0
 30
2.0
 11
2.0
 21
5.0
 31
2.0
1001
AME_SOL
1070
     1
1071
       28
  0
LINE
  8
0
 62
     7
  5
A3
 10
3.0
 20
3.0
 30
1.0
 11
2.0
 21
3.0
 31
1.0
1001
AME_SOL
1070
     1
1071
       27
  0
LINE
  8
0
 62
     7
  5
A4
 10
3.0
 20
3.0
 30
2.0
 11
3.0
 21
3.0
 31
1.0
1001
AME_SOL
1070
     1
1071
       26
  0
LINE
  8
0
 62
     7
  5
A5
 10
2.0
 20
3.0
 30
2.0
 11
2.0
 21
3.0
 31
1.0
1001
AME_SOL
1070
     1
1071
       25
  0
LINE
  8
0
 62
     7
  5
A6
 10
2.0
 20
3.0
 30
2.0
 11
3.0
 21
3.0
 31
2.0
1001
AME_SOL
1070
     1
1071
       24
  0
LINE
  8
0
 62
     7
  5
A7
 10
0.0
 20
4.0
 30
1.0
 11
1.0
 21
4.0
 31
1.0
1001
AME_SOL
1070
     1
1071
       23
  0
LINE
  8
0
 62
     7
  5
A8
 10
0.0
 20
4.0
 30
2.0
 11
0.0
 21
4.0
 31
1.0
1001
AME_SOL
1070
     1
1071
       22
  0
LINE
  8
0
 62
     7
  5
A9
 10
1.0
 20
4.0
 30
2.0
 11
1.0
 21
4.0
 31
1.0
1001
AME_SOL
1070
     1
1071
       21
  0
LINE
  8
0
 62
     7
  5
AA
 10
1.0
 20
4.0
 30
2.0
 11
0.0
 21
4.0
 31
2.0
1001
AME_SOL
1070
     1
1071
       20
  0
LINE
  8
0
 62
     7
  5
AB
 10
1.0
 20
2.0
 30
1.0
 11
0.0
 21
2.0
 31
1.0
1001
AME_SOL
1070
     1
1071
       19
  0
LINE
  8
0
 62
     7
  5
AC
 10
0.0
 20
2.0
 30
1.0
 11
0.0
 21
2.0
 31
2.0
1001
AME_SOL
1070
     1
1071
       18
  0
LINE
  8
0
 62
     7
  5
AD
 10
1.0
 20
2.0
 30
1.0
 11
1.0
 21
2.0
 31
2.0
1001
AME_SOL
1070
     1
1071
       17
  0
LINE
  8
0
 62
     7
  5
AE
 10
0.0
 20
2.0
 30
2.0
 11
1.0
 21
2.0
 31
2.0
1001
AME_SOL
1070
     1
1071
       16
  0
ENDBLK
  8
0
  5
AF
  0
BLOCK
  8
0
  5
B3
  2
*U7
 70
    65
 10
0.0
 20
0.0
 30
0.0
  1
*U
  3
*U
  0
POLYLINE
  8
0
 62
     7
  5
B4
 66
     1
 10
0.0
 20
0.0
 30
0.0
 70
    64
  0
VERTEX
  8
0
  5
B5
 10
3.0
 20
6.0
 30
0.0
 70
   192
  0
VERTEX
  8
0
  5
B6
 10
3.0
 20
3.0
 30
1.0
 70
   192
  0
VERTEX
  8
0
  5
B7
 10
3.0
 20
0.0
 30
0.0
 70
   192
  0
VERTEX
  8
0
  5
B8
 10
3.0
 20
3.0
 30
2.0
 70
   192
  0
VERTEX
  8
0
  5
B9
 10
3.0
 20
5.0
 30
1.0
 70
   192
  0
VERTEX
  8
0
  5
BA
 10
3.0
 20
5.0
 30
2.0
 70
   192
  0
VERTEX
  8
0
  5
BB
 10
3.0
 20
0.0
 30
3.0
 70
   192
  0
VERTEX
  8
0
  5
BC
 10
3.0
 20
6.0
 30
3.0
 70
   192
  0
VERTEX
  8
0
 62
     7
  5
BD
 10
0.0
 20
0.0
 30
0.0
 70
   128
 71
    -1
 72
    -2
 73
     3
  0
VERTEX
  8
0
 62
     7
  5
BE
 10
0.0
 20
0.0
 30
0.0
 70
   128
 71
     2
 72
    -4
 73
    -3
  0
VERTEX
  8
0
 62
     7
  5
BF
 10
0.0
 20
0.0
 30
0.0
 70
   128
 71
    -1
 72
     5
 73
    -2
  0
VERTEX
  8
0
 62
     7
  5
C0
 10
0.0
 20
0.0
 30
0.0
 70
   128
 71
    -1
 72
     6
 73
    -5
  0
VERTEX
  8
0
 62
     7
  5
C1
 10
0.0
 20
0.0
 30
0.0
 70
   128
 71
    -4
 72
     7
 73
    -3
  0
VERTEX
  8
0
 62
     7
  5
C2
 10
0.0
 20
0.0
 30
0.0
 70
   128
 71
    -4
 72
     8
 73
    -7
  0
VERTEX
  8
0
 62
     7
  5
C3
 10
0.0
 20
0.0
 30
0.0
 70
   128
 71
     4
 72
    -6
 73
    -8
  0
VERTEX
  8
0
 62
     7
  5
C4
 10
0.0
 20
0.0
 30
0.0
 70
   128
 71
    -6
 72
     1
 73
    -8
  0
SEQEND
  8
0
 62
     7
  5
C5
  0
POLYLINE
  8
0
 62
     7
  5
C6
 66
     1
 10
0.0
 20
0.0
 30
0.0
 70
    64
  0
VERTEX
  8
0
  5
C7
 10
2.0
 20
6.0
 30
2.0
 70
   192
  0
VERTEX
  8
0
  5
C8
 10
3.0
 20
6.0
 30
3.0
 70
   192
  0
VERTEX
  8
0
  5
C9
 10
3.0
 20
6.0
 30
0.0
 70
   192
  0
VERTEX
  8
0
  5
CA
 10
1.0
 20
6.0
 30
2.0
 70
   192
  0
VERTEX
  8
0
  5
CB
 10
2.0
 20
6.0
 30
1.0
 70
   192
  0
VERTEX
  8
0
  5
CC
 10
0.0
 20
6.0
 30
0.0
 70
   192
  0
VERTEX
  8
0
  5
CD
 10
0.0
 20
6.0
 30
3.0
 70
   192
  0
VERTEX
  8
0
  5
CE
 10
1.0
 20
6.0
 30
1.0
 70
   192
  0
VERTEX
  8
0
 62
     7
  5
CF
 10
0.0
 20
0.0
 30
0.0
 70
   128
 71
    -1
 72
     2
 73
    -3
  0
VERTEX
  8
0
 62
     7
  5
D0
 10
0.0
 20
0.0
 30
0.0
 70
   128
 71
     1
 72
    -4
 73
    -2
  0
VERTEX
  8
0
 62
     7
  5
D1
 10
0.0
 20
0.0
 30
0.0
 70
   128
 71
    -3
 72
     5
 73
    -1
  0
VERTEX
  8
0
 62
     7
  5
D2
 10
0.0
 20
0.0
 30
0.0
 70
   128
 71
     3
 72
    -6
 73
    -5
  0
VERTEX
  8
0
 62
     7
  5
D3
 10
0.0
 20
0.0
 30
0.0
 70
   128
 71
    -4
 72
     7
 73
    -2
  0
VERTEX
  8
0
 62
     7
  5
D4
 10
0.0
 20
0.0
 30
0.0
 70
   128
 71
    -4
 72
     6
 73
    -7
  0
VERTEX
  8
0
 62
     7
  5
D5
 10
0.0
 20
0.0
 30
0.0
 70
   128
 71
     4
 72
    -8
 73
    -6
  0
VERTEX
  8
0
 62
     7
  5
D6
 10
0.0
 20
0.0
 30
0.0
 70
   128
 71
    -6
 72
     8
 73
    -5
  0
SEQEND
  8
0
 62
     7
  5
D7
  0
POLYLINE
  8
0
 62
     7
  5
D8
 66
     1
 10
0.0
 20
0.0
 30
0.0
 70
    64
  0
VERTEX
  8
0
  5
D9
 10
3.0
 20
6.0
 30
3.0
 70
   192
  0
VERTEX
  8
0
  5
DA
 10
0.0
 20
6.0
 30
3.0
 70
   192
  0
VERTEX
  8
0
  5
DB
 10
0.0
 20
0.0
 30
3.0
 70
   192
  0
VERTEX
  8
0
  5
DC
 10
3.0
 20
0.0
 30
3.0
 70
   192
  0
VERTEX
  8
0
 62
     7
  5
DD
 10
0.0
 20
0.0
 30
0.0
 70
   128
 71
     1
 72
     2
 73
    -3
  0
VERTEX
  8
0
 62
     7
  5
DE
 10
0.0
 20
0.0
 30
0.0
 70
   128
 71
     3
 72
     4
 73
    -1
  0
SEQEND
  8
0
 62
     7
  5
DF
  0
POLYLINE
  8
0
 62
     7
  5
E0
 66
     1
 10
0.0
 20
0.0
 30
0.0
 70
    64
  0
VERTEX
  8
0
  5
E1
 10
0.0
 20
4.0
 30
1.0
 70
   192
  0
VERTEX
  8
0
  5
E2
 10
0.0
 20
6.0
 30
3.0
 70
   192
  0
VERTEX
  8
0
  5
E3
 10
0.0
 20
6.0
 30
0.0
 70
   192
  0
VERTEX
  8
0
  5
E4
 10
0.0
 20
2.0
 30
1.0
 70
   192
  0
VERTEX
  8
0
  5
E5
 10
0.0
 20
4.0
 30
2.0
 70
   192
  0
VERTEX
  8
0
  5
E6
 10
0.0
 20
0.0
 30
3.0
 70
   192
  0
VERTEX
  8
0
  5
E7
 10
0.0
 20
0.0
 30
0.0
 70
   192
  0
VERTEX
  8
0
  5
E8
 10
0.0
 20
2.0
 30
2.0
 70
   192
  0
VERTEX
  8
0
 62
     7
  5
E9
 10
0.0
 20
0.0
 30
0.0
 70
   128
 71
    -1
 72
     2
 73
    -3
  0
VERTEX
  8
0
 62
     7
  5
EA
 10
0.0
 20
0.0
 30
0.0
 70
   128
 71
    -3
 72
     4
 73
    -1
  0
VERTEX
  8
0
 62
     7
  5
EB
 10
0.0
 20
0.0
 30
0.0
 70
   128
 71
     1
 72
    -5
 73
    -2
  0
VERTEX
  8
0
 62
     7
  5
EC
 10
0.0
 20
0.0
 30
0.0
 70
   128
 71
    -5
 72
     6
 73
    -2
  0
VERTEX
  8
0
 62
     7
  5
ED
 10
0.0
 20
0.0
 30
0.0
 70
   128
 71
     3
 72
    -7
 73
    -4
  0
VERTEX
  8
0
 62
     7
  5
EE
 10
0.0
 20
0.0
 30
0.0
 70
   128
 71
    -7
 72
     8
 73
    -4
  0
VERTEX
  8
0
 62
     7
  5
EF
 10
0.0
 20
0.0
 30
0.0
 70
   128
 71
     5
 72
    -8
 73
    -6
  0
VERTEX
  8
0
 62
     7
  5
F0
 10
0.0
 20
0.0
 30
0.0
 70
   128
 71
    -8
 72
     7
 73
    -6
  0
SEQEND
  8
0
 62
     7
  5
F1
  0
POLYLINE
  8
0
 62
     7
  5
F2
 66
     1
 10
0.0
 20
0.0
 30
0.0
 70
    64
  0
VERTEX
  8
0
  5
F3
 10
3.0
 20
0.0
 30
0.0
 70
   192
  0
VERTEX
  8
0
  5
F4
 10
3.0
 20
0.0
 30
3.0
 70
   192
  0
VERTEX
  8
0
  5
F5
 10
0.0
 20
0.0
 30
3.0
 70
   192
  0
VERTEX
  8
0
  5
F6
 10
0.0
 20
0.0
 30
0.0
 70
   192
  0
VERTEX
  8
0
 62
     7
  5
F7
 10
0.0
 20
0.0
 30
0.0
 70
   128
 71
     1
 72
     2
 73
    -3
  0
VERTEX
  8
0
 62
     7
  5
F8
 10
0.0
 20
0.0
 30
0.0
 70
   128
 71
     3
 72
     4
 73
    -1
  0
SEQEND
  8
0
 62
     7
  5
F9
  0
POLYLINE
  8
0
 62
     7
  5
FA
 66
     1
 10
0.0
 20
0.0
 30
0.0
 70
    64
  0
VERTEX
  8
0
  5
FB
 10
3.0
 20
6.0
 30
0.0
 70
   192
  0
VERTEX
  8
0
  5
FC
 10
3.0
 20
0.0
 30
0.0
 70
   192
  0
VERTEX
  8
0
  5
FD
 10
0.0
 20
6.0
 30
0.0
 70
   192
  0
VERTEX
  8
0
  5
FE
 10
0.0
 20
0.0
 30
0.0
 70
   192
  0
VERTEX
  8
0
 62
     7
  5
FF
 10
0.0
 20
0.0
 30
0.0
 70
   128
 71
     1
 72
    -2
 73
     3
  0
VERTEX
  8
0
 62
     7
  5
100
 10
0.0
 20
0.0
 30
0.0
 70
   128
 71
     2
 72
     4
 73
    -3
  0
SEQEND
  8
0
 62
     7
  5
101
  0
POLYLINE
  8
0
 62
     7
  5
102
 66
     1
 10
0.0
 20
0.0
 30
0.0
 70
    64
  0
VERTEX
  8
0
  5
103
 10
2.0
 20
3.0
 30
2.0
 70
   192
  0
VERTEX
  8
0
  5
104
 10
2.0
 20
1.0
 30
1.0
 70
   192
  0
VERTEX
  8
0
  5
105
 10
2.0
 20
3.0
 30
1.0
 70
   192
  0
VERTEX
  8
0
  5
106
 10
2.0
 20
1.0
 30
2.0
 70
   192
  0
VERTEX
  8
0
  5
107
 10
2.0
 20
6.0
 30
1.0
 70
   192
  0
VERTEX
  8
0
  5
108
 10
2.0
 20
6.0
 30
2.0
 70
   192
  0
VERTEX
  8
0
  5
109
 10
2.0
 20
5.0
 30
2.0
 70
   192
  0
VERTEX
  8
0
  5
10A
 10
2.0
 20
5.0
 30
1.0
 70
   192
  0
VERTEX
  8
0
 62
     7
  5
10B
 10
0.0
 20
0.0
 30
0.0
 70
   128
 71
     1
 72
     3
 73
    -2
  0
VERTEX
  8
0
 62
     7
  5
10C
 10
0.0
 20
0.0
 30
0.0
 70
   128
 71
    -1
 72
     2
 73
     4
  0
VERTEX
  8
0
 62
     7
  5
10D
 10
0.0
 20
0.0
 30
0.0
 70
   128
 71
    -5
 72
     7
 73
     6
  0
VERTEX
  8
0
 62
     7
  5
10E
 10
0.0
 20
0.0
 30
0.0
 70
   128
 71
    -7
 72
     5
 73
     8
  0
SEQEND
  8
0
 62
     7
  5
10F
  0
POLYLINE
  8
0
 62
     7
  5
110
 66
     1
 10
0.0
 20
0.0
 30
0.0
 70
    64
  0
VERTEX
  8
0
  5
111
 10
2.0
 20
3.0
 30
2.0
 70
   192
  0
VERTEX
  8
0
  5
112
 10
1.0
 20
6.0
 30
2.0
 70
   192
  0
VERTEX
  8
0
  5
113
 10
1.0
 20
4.0
 30
2.0
 70
   192
  0
VERTEX
  8
0
  5
114
 10
1.0
 20
2.0
 30
2.0
 70
   192
  0
VERTEX
  8
0
  5
115
 10
2.0
 20
5.0
 30
2.0
 70
   192
  0
VERTEX
  8
0
  5
116
 10
2.0
 20
1.0
 30
2.0
 70
   192
  0
VERTEX
  8
0
  5
117
 10
0.0
 20
2.0
 30
2.0
 70
   192
  0
VERTEX
  8
0
  5
118
 10
0.0
 20
4.0
 30
2.0
 70
   192
  0
VERTEX
  8
0
  5
119
 10
2.0
 20
6.0
 30
2.0
 70
   192
  0
VERTEX
  8
0
  5
11A
 10
3.0
 20
5.0
 30
2.0
 70
   192
  0
VERTEX
  8
0
  5
11B
 10
3.0
 20
3.0
 30
2.0
 70
   192
  0
VERTEX
  8
0
  5
11C
 10
1.0
 20
1.0
 30
2.0
 70
   192
  0
VERTEX
  8
0
 62
     7
  5
11D
 10
0.0
 20
0.0
 30
0.0
 70
   128
 71
    -1
 72
     3
 73
    -2
  0
VERTEX
  8
0
 62
     7
  5
11E
 10
0.0
 20
0.0
 30
0.0
 70
   128
 71
    -3
 72
    -1
 73
    -4
  0
VERTEX
  8
0
 62
     7
  5
11F
 10
0.0
 20
0.0
 30
0.0
 70
   128
 71
    -1
 72
    -2
 73
    -5
  0
VERTEX
  8
0
 62
     7
  5
120
 10
0.0
 20
0.0
 30
0.0
 70
   128
 71
    -4
 72
     1
 73
    -6
  0
VERTEX
  8
0
 62
     7
  5
121
 10
0.0
 20
0.0
 30
0.0
 70
   128
 71
    -3
 72
     4
 73
    -7
  0
VERTEX
  8
0
 62
     7
  5
122
 10
0.0
 20
0.0
 30
0.0
 70
   128
 71
    -3
 72
     7
 73
     8
  0
VERTEX
  8
0
 62
     7
  5
123
 10
0.0
 20
0.0
 30
0.0
 70
   128
 71
    -5
 72
     2
 73
     9
  0
VERTEX
  8
0
 62
     7
  5
124
 10
0.0
 20
0.0
 30
0.0
 70
   128
 71
    -1
 72
     5
 73
   -10
  0
VERTEX
  8
0
 62
     7
  5
125
 10
0.0
 20
0.0
 30
0.0
 70
   128
 71
    -1
 72
    10
 73
    11
  0
VERTEX
  8
0
 62
     7
  5
126
 10
0.0
 20
0.0
 30
0.0
 70
   128
 71
    -4
 72
     6
 73
    12
  0
SEQEND
  8
0
 62
     7
  5
127
  0
POLYLINE
  8
0
 62
     7
  5
128
 66
     1
 10
0.0
 20
0.0
 30
0.0
 70
    64
  0
VERTEX
  8
0
  5
129
 10
1.0
 20
4.0
 30
2.0
 70
   192
  0
VERTEX
  8
0
  5
12A
 10
1.0
 20
6.0
 30
2.0
 70
   192
  0
VERTEX
  8
0
  5
12B
 10
1.0
 20
4.0
 30
1.0
 70
   192
  0
VERTEX
  8
0
  5
12C
 10
1.0
 20
6.0
 30
1.0
 70
   192
  0
VERTEX
  8
0
  5
12D
 10
1.0
 20
2.0
 30
1.0
 70
   192
  0
VERTEX
  8
0
  5
12E
 10
1.0
 20
1.0
 30
2.0
 70
   192
  0
VERTEX
  8
0
  5
12F
 10
1.0
 20
2.0
 30
2.0
 70
   192
  0
VERTEX
  8
0
  5
130
 10
1.0
 20
1.0
 30
1.0
 70
   192
  0
VERTEX
  8
0
 62
     7
  5
131
 10
0.0
 20
0.0
 30
0.0
 70
   128
 71
     1
 72
    -3
 73
     2
  0
VERTEX
  8
0
 62
     7
  5
132
 10
0.0
 20
0.0
 30
0.0
 70
   128
 71
    -2
 72
     3
 73
     4
  0
VERTEX
  8
0
 62
     7
  5
133
 10
0.0
 20
0.0
 30
0.0
 70
   128
 71
     5
 72
     7
 73
    -6
  0
VERTEX
  8
0
 62
     7
  5
134
 10
0.0
 20
0.0
 30
0.0
 70
   128
 71
    -5
 72
     6
 73
     8
  0
SEQEND
  8
0
 62
     7
  5
135
  0
POLYLINE
  8
0
 62
     7
  5
136
 66
     1
 10
0.0
 20
0.0
 30
0.0
 70
    64
  0
VERTEX
  8
0
  5
137
 10
2.0
 20
1.0
 30
2.0
 70
   192
  0
VERTEX
  8
0
  5
138
 10
1.0
 20
1.0
 30
2.0
 70
   192
  0
VERTEX
  8
0
  5
139
 10
1.0
 20
1.0
 30
1.0
 70
   192
  0
VERTEX
  8
0
  5
13A
 10
2.0
 20
1.0
 30
1.0
 70
   192
  0
VERTEX
  8
0
 62
     7
  5
13B
 10
0.0
 20
0.0
 30
0.0
 70
   128
 71
    -1
 72
     3
 73
     2
  0
VERTEX
  8
0
 62
     7
  5
13C
 10
0.0
 20
0.0
 30
0.0
 70
   128
 71
    -3
 72
     1
 73
     4
  0
SEQEND
  8
0
 62
     7
  5
13D
  0
POLYLINE
  8
0
 62
     7
  5
13E
 66
     1
 10
0.0
 20
0.0
 30
0.0
 70
    64
  0
VERTEX
  8
0
  5
13F
 10
1.0
 20
2.0
 30
1.0
 70
   192
  0
VERTEX
  8
0
  5
140
 10
2.0
 20
6.0
 30
1.0
 70
   192
  0
VERTEX
  8
0
  5
141
 10
2.0
 20
5.0
 30
1.0
 70
   192
  0
VERTEX
  8
0
  5
142
 10
2.0
 20
3.0
 30
1.0
 70
   192
  0
VERTEX
  8
0
  5
143
 10
1.0
 20
4.0
 30
1.0
 70
   192
  0
VERTEX
  8
0
  5
144
 10
1.0
 20
1.0
 30
1.0
 70
   192
  0
VERTEX
  8
0
  5
145
 10
2.0
 20
1.0
 30
1.0
 70
   192
  0
VERTEX
  8
0
  5
146
 10
3.0
 20
3.0
 30
1.0
 70
   192
  0
VERTEX
  8
0
  5
147
 10
3.0
 20
5.0
 30
1.0
 70
   192
  0
VERTEX
  8
0
  5
148
 10
1.0
 20
6.0
 30
1.0
 70
   192
  0
VERTEX
  8
0
  5
149
 10
0.0
 20
4.0
 30
1.0
 70
   192
  0
VERTEX
  8
0
  5
14A
 10
0.0
 20
2.0
 30
1.0
 70
   192
  0
VERTEX
  8
0
 62
     7
  5
14B
 10
0.0
 20
0.0
 30
0.0
 70
   128
 71
    -1
 72
     3
 73
    -2
  0
VERTEX
  8
0
 62
     7
  5
14C
 10
0.0
 20
0.0
 30
0.0
 70
   128
 71
    -3
 72
    -1
 73
    -4
  0
VERTEX
  8
0
 62
     7
  5
14D
 10
0.0
 20
0.0
 30
0.0
 70
   128
 71
    -1
 72
    -2
 73
    -5
  0
VERTEX
  8
0
 62
     7
  5
14E
 10
0.0
 20
0.0
 30
0.0
 70
   128
 71
    -4
 72
     1
 73
    -6
  0
VERTEX
  8
0
 62
     7
  5
14F
 10
0.0
 20
0.0
 30
0.0
 70
   128
 71
    -4
 72
     6
 73
     7
  0
VERTEX
  8
0
 62
     7
  5
150
 10
0.0
 20
0.0
 30
0.0
 70
   128
 71
    -3
 72
     4
 73
    -8
  0
VERTEX
  8
0
 62
     7
  5
151
 10
0.0
 20
0.0
 30
0.0
 70
   128
 71
    -3
 72
     8
 73
     9
  0
VERTEX
  8
0
 62
     7
  5
152
 10
0.0
 20
0.0
 30
0.0
 70
   128
 71
    -5
 72
     2
 73
    10
  0
VERTEX
  8
0
 62
     7
  5
153
 10
0.0
 20
0.0
 30
0.0
 70
   128
 71
    -1
 72
     5
 73
   -11
  0
VERTEX
  8
0
 62
     7
  5
154
 10
0.0
 20
0.0
 30
0.0
 70
   128
 71
    -1
 72
    11
 73
    12
  0
SEQEND
  8
0
 62
     7
  5
155
  0
POLYLINE
  8
0
 62
     7
  5
156
 66
     1
 10
0.0
 20
0.0
 30
0.0
 70
    64
  0
VERTEX
  8
0
  5
157
 10
3.0
 20
5.0
 30
2.0
 70
   192
  0
VERTEX
  8
0
  5
158
 10
3.0
 20
5.0
 30
1.0
 70
   192
  0
VERTEX
  8
0
  5
159
 10
2.0
 20
5.0
 30
2.0
 70
   192
  0
VERTEX
  8
0
  5
15A
 10
2.0
 20
5.0
 30
1.0
 70
   192
  0
VERTEX
  8
0
 62
     7
  5
15B
 10
0.0
 20
0.0
 30
0.0
 70
   128
 71
     1
 72
    -3
 73
     2
  0
VERTEX
  8
0
 62
     7
  5
15C
 10
0.0
 20
0.0
 30
0.0
 70
   128
 71
    -2
 72
     3
 73
     4
  0
SEQEND
  8
0
 62
     7
  5
15D
  0
POLYLINE
  8
0
 62
     7
  5
15E
 66
     1
 10
0.0
 20
0.0
 30
0.0
 70
    64
  0
VERTEX
  8
0
  5
15F
 10
2.0
 20
3.0
 30
2.0
 70
   192
  0
VERTEX
  8
0
  5
160
 10
3.0
 20
3.0
 30
1.0
 70
   192
  0
VERTEX
  8
0
  5
161
 10
3.0
 20
3.0
 30
2.0
 70
   192
  0
VERTEX
  8
0
  5
162
 10
2.0
 20
3.0
 30
1.0
 70
   192
  0
VERTEX
  8
0
 62
     7
  5
163
 10
0.0
 20
0.0
 30
0.0
 70
   128
 71
     1
 72
     3
 73
    -2
  0
VERTEX
  8
0
 62
     7
  5
164
 10
0.0
 20
0.0
 30
0.0
 70
   128
 71
    -1
 72
     2
 73
     4
  0
SEQEND
  8
0
 62
     7
  5
165
  0
POLYLINE
  8
0
 62
     7
  5
166
 66
     1
 10
0.0
 20
0.0
 30
0.0
 70
    64
  0
VERTEX
  8
0
  5
167
 10
1.0
 20
4.0
 30
1.0
 70
   192
  0
VERTEX
  8
0
  5
168
 10
0.0
 20
4.0
 30
1.0
 70
   192
  0
VERTEX
  8
0
  5
169
 10
0.0
 20
4.0
 30
2.0
 70
   192
  0
VERTEX
  8
0
  5
16A
 10
1.0
 20
4.0
 30
2.0
 70
   192
  0
VERTEX
  8
0
 62
     7
  5
16B
 10
0.0
 20
0.0
 30
0.0
 70
   128
 71
    -1
 72
     3
 73
     2
  0
VERTEX
  8
0
 62
     7
  5
16C
 10
0.0
 20
0.0
 30
0.0
 70
   128
 71
    -3
 72
     1
 73
     4
  0
SEQEND
  8
0
 62
     7
  5
16D
  0
POLYLINE
  8
0
 62
     7
  5
16E
 66
     1
 10
0.0
 20
0.0
 30
0.0
 70
    64
  0
VERTEX
  8
0
  5
16F
 10
0.0
 20
2.0
 30
2.0
 70
   192
  0
VERTEX
  8
0
  5
170
 10
0.0
 20
2.0
 30
1.0
 70
   192
  0
VERTEX
  8
0
  5
171
 10
1.0
 20
2.0
 30
1.0
 70
   192
  0
VERTEX
  8
0
  5
172
 10
1.0
 20
2.0
 30
2.0
 70
   192
  0
VERTEX
  8
0
 62
     7
  5
173
 10
0.0
 20
0.0
 30
0.0
 70
   128
 71
    -1
 72
     3
 73
     2
  0
VERTEX
  8
0
 62
     7
  5
174
 10
0.0
 20
0.0
 30
0.0
 70
   128
 71
    -3
 72
     1
 73
     4
  0
SEQEND
  8
0
 62
     7
  5
175
  0
ENDBLK
  8
0
  5
176
  0
BLOCK
  8
0
  5
178
  2
AME_MAT
 70
    64
 10
0.0
 20
0.0
 30
0.0
  1
AME_MAT
  3
AME_MAT
  0
ENDBLK
  8
0
  5
179
  0
ENDSEC
  0
SECTION
  2
ENTITIES
  0
INSERT
  8
AME_FRZ
  5
33
  2
AME_NIL
 10
0.0
 20
0.0
 30
0.0
  0
INSERT
  8
AME_FRZ
  5
36
  2
AME_SOL
 10
0.0
 20
0.0
 30
0.0
1001
AME_SOL
1000
1.0
1000
sq cm
1070
     3
1070
     0
1070
     3
1000
wire
1040
0.0
1000
NONE
1040
1.0
1000
cm
1000
gm
1000
MILD_STEEL
1070
    25
1000
CSG
1070
     3
1070
     2
1070
     3
1000
cu cm
1070
     4
1070
     0
1005
33
  0
INSERT
  8
AME_FRZ
  5
45
  2
*U2
 10
0.0
 20
0.0
 30
0.0
1001
AME_SOL
1002
{
1070
     0
1071
  2001144
1070
  1536
1010
3.0
1020
6.0
1030
3.0
1005
0
1005
0
1005
B0
1040
0.0
1040
1.0
1000
MILD_STEEL
1000
0
1010
0.0
1020
0.0
1030
0.0
1010
0.0
1020
0.0
1030
1.0
1040
0.0
1002
}
  0
INSERT
  8
AME_FRZ
  5
56
  2
*U3
 10
0.0
 20
2.0
 30
1.0
1001
AME_SOL
1002
{
1070
     0
1071
  1989616
1070
  1536
1010
1.0
1020
2.0
1030
1.0
1005
0
1005
0
1005
7C
1040
0.0
1040
1.0
1000
MILD_STEEL
1000
0
1010
0.0
1020
2.0
1030
1.0
1010
0.0
1020
0.0
1030
1.0
1040
0.0
1002
}
  0
INSERT
  8
AME_FRZ
  5
67
  2
*U4
 10
1.0
 20
1.0
 30
1.0
1001
AME_SOL
1002
{
1070
     0
1071
  1996376
1070
  1536
1010
1.0
1020
5.0
1030
1.0
1005
0
1005
0
1005
7B
1040
0.0
1040
1.0
1000
MILD_STEEL
1000
0
1010
1.0
1020
1.0
1030
1.0
1010
0.0
1020
0.0
1030
1.0
1040
0.0
1002
}
  0
INSERT
  8
AME_FRZ
  5
78
  2
*U5
 10
2.0
 20
3.0
 30
1.0
1001
AME_SOL
1002
{
1070
     0
1071
  1931312
1070
  1536
1010
1.0
1020
2.0
1030
1.0
1005
0
1005
0
1005
7B
1040
0.0
1040
1.0
1000
MILD_STEEL
1000
0
1010
2.0
1020
3.0
1030
1.0
1010
0.0
1020
0.0
1030
1.0
1040
0.0
1002
}
  0
INSERT
  8
AME_FRZ
  5
7B
  2
AME_NIL
 10
0.0
 20
0.0
 30
0.0
1001
AME_SOL
1002
{
1070
     0
1071
  1952016
1070
   775
1070
     2
1005
67
1005
78
1005
0
1005
0
1005
7C
1040
0.0
1040
1.0
1000
MILD_STEEL
1000
0
1010
0.0
1020
0.0
1030
0.0
1010
0.0
1020
0.0
1030
1.0
1040
0.0
1002
}
  0
INSERT
  8
AME_FRZ
  5
7C
  2
AME_NIL
 10
0.0
 20
0.0
 30
0.0
1001
AME_SOL
1002
{
1070
     0
1071
  1965048
1070
   775
1070
     2
1005
7B
1005
56
1005
0
1005
0
1005
B0
1040
0.0
1040
1.0
1000
MILD_STEEL
1000
0
1010
0.0
1020
0.0
1030
0.0
1010
0.0
1020
0.0
1030
1.0
1040
0.0
1002
}
  0
INSERT
  8
0
  5
B0
  2
*U7
 10
0.0
 20
0.0
 30
0.0
1001
AME_SOL
1002
{
1070
     0
1071
  1972736
1070
  9223
1070
     0
1005
45
1005
7C
1005
177
1005
B1
1005
0
1040
114.0
1040
1.0
1000
MILD_STEEL
1000
0
1002
}
  0
INSERT
  8
AME_FRZ
  5
B1
  2
AME_NIL
 10
1.0
 20
1.0
 30
1.0
1001
AME_SOL
1004
E903A9FB0100F0FFFFFF000052F70F0001000000A9266BBAA9266BBAA9266BBAB20E40405907C040B20E404001000000FBF20400000040BA00E8FF3F00D07F3F0018803F000C0040000C00400100844EC8831E00FFFF0000010031010000844E00000000803F000000000000000000000000000000000000
1004
803F00000000000000400000803F05000000000000000000000000000000000000000000844E00000000803F000000000000000000000000000000000000803F00000000000000400000803F050000000000000000000000000000000000FFFFFFFFFBF20400000040BA00F47F4000D07F3F0018803F0006
1004
8040000C00400100844EC05F1E00FFFF000001002E010000844E00000000008000000080000080BF000080BF00000080000000800000803F000080400000004005000000000000000000000000000000000000000000844E00000000008000000080000080BF000080BF00000080000000800000803F0000
1004
804000000040050000000000000000000000000000000000FFFFFFFFFBF2040000E8FF3F00F43F4000D07F3F000C4040000C4040000C00400100844E88321E00FFFF00000100F9010000844E00000000803F000000000000000000000000000000000000803F00000040000040400000803F050000000000
1004
00000000000000000000000000000000844E00000000803F000000000000000000000000000000000000803F00000040000040400000803F050000000000000000000000000000000000FFFFFFFFFBF2040000E8FF3F00FA9F4000D07F3F000C40400006A040000C00400100844E182C1E00FFFF00000100
1004
F6010000844E00000000008000000080000080BF000080BF0000008000000080000040400000A0400000004005000000000000000000000000000000000000000000844E00000000008000000080000080BF000080BF0000008000000080000040400000A040000000400500000000000000000000000000
1004
00000000FFFFFFFFFBF20C00000040BA00E8FF3F00D07F3F0018803F000680400018803F0100844E589E1D00FFFF0000030032010000844E0000000000000000803F000000000000803F000000000000000000000000000000400000803F05000000000000000000000000000000000000000000FA010000
1004
844E0000000000000000803F000000000000803F000000000000000000000040000040400000803F050000000000000000000000000000000000000000005E020000844E0000000000000000803F000000000000803F00000000000000000000803F0000803F0000803F0500000000000000000000000000
1004
0000000000000000844E0000000000000000803F000000000000803F00000000000000000000803F0000803F0000803F050000000000000000000000000000000000FFFFFFFFFBF2040000D07F3F00D07F3F00D07F3F000C00400018803F000C00400100844E289B1D00FFFF000001005D020000844E0000
1004
0000803F000000000000000000000000000000000000803F0000803F0000803F0000803F05000000000000000000000000000000000000000000844E00000000803F000000000000000000000000000000000000803F0000803F0000803F0000803F050000000000000000000000000000000000FFFFFFFF
1004
FBF2080000D07F3F00D07F3F00D07F3F0018803F0006C040000C00400100844E30A21D00FFFF000001005C020000844E000000000000000000000000803F000000000000803F000000000000803F0000803F0000803F05000000000000000000000000000000000000000000844E00000000000000000000
1004
0000803F000000000000803F000000000000803F0000803F0000803F050000000000000000000000000000000000FFFFFFFFFBF20C00000040BA00E8FF3F00E8FF3F0018803F00068040000C00400100844E00A31D00FFFF000003002F010000844E0000000080BF000000800000008000000080000080BF
1004
000000800000803F000080400000004005000000000000000000000000000000000000000000F7010000844E0000000080BF000000800000008000000080000080BF00000080000040400000A04000000040050000000000000000000000000000000000000000005B020000844E0000000080BF00000080
1004
0000008000000080000080BF0000008000000040FFFFBF400000004005000000000000000000000000000000000000000000844E0000000080BF000000800000008000000080000080BF00000080000000400000C04000000040050000000000000000000000000000000000FFFFFFFFFBF2080000E8FF3F
1004
00D07F3F00D07F3F000C00400006C040000C00400100844EB0961D00FFFF0000010059020000844E000000000080000080BF000000800000008000000080000080BF00000040FFFFBF400000004005000000000000000000000000000000000000000000844E000000000080000080BF0000008000000080
1004
00000080000080BF000000400000C04000000040050000000000000000000000000000000000FFFFFFFFFBF20400A9266BBAA9266BBAA9266BBAB20E40405907C040A9266B3A0100844E80971D00010000000100C2020000844E0000000000000000803F000000000000803F000000000000000000000000
1004
000000000000000005000000000000000000000000000000000000000000844E0000000000000000803F000000000000803F000000000000000000000000000000000000000005000000000000000000000000000000000001000000FBF20400A9266BBAA9266BBAA9266BBAB20E4040A9266B3AB20E4040
1004
0100844E50981D00010000000100C1020000844E00000000803F000000000000000000000000000000000000803F00000000000000000000000005000000000000000000000000000000000000000000844E00000000803F000000000000000000000000000000000000803F000000000000000000000000
1004
05000000000000000000000000000000000001000000FBF20800A9266BBAA9266BBAA9266BBAA9266B3A5907C040B20E40400100844E20991D00010000000100C0020000844E000000000000000000000000803F000000000000803F00000000000000000000000000000000050000000000000000000000
1004
00000000000000000000844E000000000000000000000000803F000000000000803F0000000000000000000000000000000005000000000000000000000000000000000001000000FBF20400A9266BBAA9266BBA4DF13F40B20E40405907C040B20E40400100844EF0991D00010000000100BF020000844E
1004
0000000080BF000000800000008000000080000080BF00000080000040400000C0400000404005000000000000000000000000000000000000000000844E0000000080BF000000800000008000000080000080BF00000080000040400000C040000040400500000000000000000000000000000000000100
1004
0000FBF20800A9266BBAA7F8BF40A9266BBAB20E40405907C040B20E40400100844E18931D00010000000100BE020000844E00000000008000000080000080BF000080BF0000008000000080000040400000C0400000404005000000000000000000000000000000000000000000844E0000000000800000
1004
0080000080BF000080BF0000008000000080000040400000C0400000404005000000000000000000000000000000000001000000FBF208004DF13F40A9266BBAA9266BBAB20E40405907C040B20E40400100844EE8931D00010000000100BD020000844E000000000080000080BF00000080000000800000
1004
0080000080BF000040400000C0400000404005000000000000000000000000000000000000000000844E000000000080000080BF000000800000008000000080000080BF000040400000C0400000404005000000000000000000000000000000000001000000A4EE000040BA00E8FF3F00E8FF3F0018803F
1004
000C0040000C0040000080BF0000000002009675B05A1E0000000100FFFFC8831E0000A31D000000020000A31D00C8831E00FFFFFFFFFFFFFFFF9675000000000000000000000000803F00000000000080BF000000000000803F00000040000000400200000080BF00000000A4EE00D07F3F00E8FF3F00D0
1004
7F3F0018803F000C0040000C0040000000000000803F0200967590621E000000FFFF0100C8831E0030A21D0000000200C8831E0030A21D00FFFFFFFFFFFFFFFF96750000000080BF000000000000000000000000000080BF000000000000803F000000400000803F0200000000000000803FA4EE000040BA
1004
00E8FF3F00D07F3FA9266B3A000C0040000C00400000003F0000C03F0200967530651E0000000100FFFFC8831E0020991D000000020020991D00C8831E0001000000FFFFFFFF96750000000080BF000000000000000000000000000080BF0000000000000000000000400000003F02000000003F0000C03F
1004
A4EE000040BA00E8FF3F00D07F3F0018803F000C00400018803F000000BF0000003F0200967578661E0000000100FFFFC8831E00589E1D0000000200589E1D00C8831E00FFFFFFFFFFFFFFFF967500000000000000000000000080BF00000000000080BF000000000000003F000000400000803F02000000
1004
00BF0000003FA4EE000040BA00F47F4000E8FF3F0018803F00068040000C0040FFFFFF3E0000C03F0200967538591E0000000100FFFFC05F1E0000A31D000000020000A31D00C05F1E00FFFFFFFFFFFFFFFF9675000000000000000000000000803F000000000000803F000000800000C03F000080400000
1004
00400200FFFFFF3E0000C03FA4EE00D07F3F00F47F4000D07F3F0018803F00068040000C0040010000BFFFFFFF3E0200967580521E000000FFFF0100C05F1E0030A21D0000000200C05F1E0030A21D00FFFFFFFFFFFFFFFF96750000000080BF0000000000000000000000000000803F000000000000803F
1004
000080400000C03F0200010000BFFFFFFF3EA4EE000040BA00F47F4000D07F3FA9266B3A00068040000C0040000080BF0000008002009675D0451E0000000100FFFFC05F1E0020991D000000020020991D00C05F1E0001000000FFFFFFFF96750000000080BF0000000000000000000000000000803F0000
1004
000000000000000080400000803F0200000080BF00000080A4EE000040BA00F47F4000D07F3F0018803F000680400018803F000080BF0000000002009675302F1E0000000100FFFFC05F1E00589E1D0000000200589E1D00C05F1E00FFFFFFFFFFFFFFFF967500000000000000000000000080BF00000000
1004
0000803F000000000000803F000080400000803F0200000080BF00000000A4EE00E8FF3F00F43F4000E8FF3F000C4040000C4040000C004000000000FFFF7F3F02009675085F1D0000000100FFFF88321E0000A31D000000020000A31D0088321E00FFFFFFFFFFFFFFFF9675000000000000000000000000
1004
803F00000000000080BF00000000000000400000404000000040020000000000FFFF7F3FA4EE00E8FF3F00F43F4000D07F3F000C0040000C4040000C0040010000BFFFFFFF3E02009675905F1D000000FFFF010088321E00B0961D000000020088321E00B0961D00FFFFFFFFFFFFFFFF967500000000803F
1004
000000000000000000000000000080BF0000000000000040000040400000C03F0200010000BFFFFFFF3EA4EE4DF13F4000F43F4000D07F3F000C4040000C4040000C0040000040B4FDFF7F3F0200967588631D0000000100FFFF88321E00E8931D0000000200E8931D0088321E0001000000FFFFFFFF9675
1004
00000000803F000000000000000000000000000080BF000000000000404000004040FFFFFF3F0200000040B4FDFF7F3FA4EE00E8FF3F00F43F4000D07F3F000C4040000C40400018803F0000C0BF010000BF0200967578641D0000000100FFFF88321E00589E1D0000000200589E1D0088321E00FFFFFFFF
1004
FFFFFFFF967500000000000000000000000080BF00000000000080BF000000000000C03F000040400000803F02000000C0BF010000BFA4EE00E8FF3F00FA9F4000E8FF3F000C40400006A040000C0040FCFFFFBE0100003F0200967568651D0000000100FFFF182C1E0000A31D000000020000A31D00182C
1004
1E00FFFFFFFFFFFFFFFF9675000000000000000000000000803F000000000000803F00000080000020400000A040000000400200FCFFFFBE0100003FA4EE00E8FF3F00FA9F4000D07F3F000C00400006A040000C0040000080BF000000800200967558661D000000FFFF0100182C1E00B0961D0000000200
1004
182C1E00B0961D00FFFFFFFFFFFFFFFF967500000000803F0000000000000000000000000000803F00000000000000400000A040000000400200000080BF00000080A4EE4DF13F4000FA9F4000D07F3F000C40400006A040000C00400000C0BF010000BF0200967548671D0000000100FFFF182C1E00E893
1004
1D0000000200E8931D00182C1E0001000000FFFFFFFF967500000000803F0000000000000000000000000000803F00000000000040400000A0400000204002000000C0BF010000BFA4EE00E8FF3F00FA9F4000D07F3F000C40400006A0400018803F00000000FFFF7F3F0200967538681D0000000100FFFF
1004
182C1E00589E1D0000000200589E1D00182C1E00FFFFFFFFFFFFFFFF967500000000000000000000000080BF000000000000803F00000000000000400000A0400000803F020000000000FFFF7F3FA4EE00E8FF3F00D07F3F00D07F3F000C00400006C0400018803F000020C0040000BF0200967528691D00
1004
00000100FFFF589E1D00B0961D0000000200B0961D00589E1D00FFFFFFFFFFFFFFFF967500000000803F00000000000000000000000000000000000080BF00000040010060400000803F0200000020C0040000BFA4EE00E8FF3F00D07F3F00D07F3F000C00400006C0400018803F0000C03FFFFF1F400200
1004
967598521D0000000100FFFF589E1D00B0961D0000000200B0961D00589E1D00FFFFFFFFFFFFFFFF967500000000803F00000000000000000000000000000000000080BF00000040010060400000803F02000000C03FFFFF1F40A4EE00D07F3FA7F8BF4000D07F3F000C00400006C0400018803F00000000
1004
0000803F0200967588531D0000000100FFFF589E1D0018931D000000020018931D00589E1D0001000000FFFFFFFF96750000000000000000803F000000000000000000000000000080BF000000400000C0400100803F0200000000000000803FA4EE4DF13F4000F43F4000D07F3F000C40400006A0400018
1004
803F040000BF0000C03F0200967578541D0000000100FFFF589E1D00E8931D0000000200E8931D00589E1D0001000000FFFFFFFF967500000000803F00000000000000000000000000000000000080BF00004040010060400100803F0200040000BF0000C03FA4EE00D07F3F00D07F3F00D07F3F0018803F
1004
0006C0400018803FFFFF9FC0000040C00200967568551D0000000100FFFF589E1D0030A21D000000020030A21D00589E1D00FFFFFFFFFFFFFFFF96750000000080BF00000000000000000000000000000000000080BF0000803F0000803F0000803F0200FFFF9FC0000040C0A4EE00D07F3F00D07F3F00D0
1004
7F3F0018803F0006C0400018803F000080BF000000800200967558561D0000000100FFFF589E1D0030A21D000000020030A21D00589E1D00FFFFFFFFFFFFFFFF96750000000080BF00000000000000000000000000000000000080BF0000803F0000803F0000803F0200000080BF00000080A4EE000040BA
1004
00E8FF3F00D07F3FA9266B3A000680400018803F010060C00000C0BF0200967548571D0000000100FFFF589E1D0020991D000000020020991D00589E1D0001000000FFFFFFFF96750000000080BF00000000000000000000000000000000000080BF000000000000003F0000803F0200010060C00000C0BF
1004
A4EE00D07F3F00D07F3F00D07F3F000C00400018803F0018803F000000000000803F0200967538581D0000000100FFFF589E1D00289B1D0000000200289B1D00589E1D00FFFFFFFFFFFFFFFF9675000000000000000080BF000000000000000000000000000080BF0000803F0000803F0000803F02000000
1004
00000000803FA4EE00D07F3F00D07F3F00E8FF3F000C00400018803F000C0040FFFFFFBE0100003F0200967528591D0000000100FFFF289B1D0000A31D000000020000A31D00289B1D00FFFFFFFFFFFFFFFF9675000000000000000000000000803F00000000000080BF000000000000C03F0000803F0000
1004
00400200FFFFFFBE0100003FA4EE00E8FF3F00D07F3F00D07F3F000C00400018803F000C0040010000BFFFFFFF3E02009675185A1D0000000100FFFF289B1D00B0961D0000000200B0961D00289B1D00FFFFFFFFFFFFFFFF967500000000803F000000000000000000000000000080BF0000000000000040
1004
0000803F0000C03F0200010000BFFFFFFF3EA4EE00D07F3F00D07F3F00D07F3F0018803F0018803F000C0040000000000000803F02009675085B1D0000000100FFFF289B1D0030A21D000000020030A21D00289B1D00FFFFFFFFFFFFFFFF96750000000080BF000000000000000000000000000080BF0000
1004
00000000803F0000803F0000803F0200000000000000803FA4EE00D07F3F00D07F3F00E8FF3F0018803F0006C040000C0040FFFF1FC0FCFFFFBE02009675D86F1D0000000100FFFF30A21D0000A31D000000020000A31D0030A21D00FFFFFFFFFFFFFFFF9675000000000000000000000000803F000080BF
1004
00000000000000000000803F01006040000000400200FFFF1FC0FCFFFFBEA4EE00D07F3F00D07F3F00E8FF3F0018803F0006C040000C00400100C03F0000204002009675C8701D0000000100FFFF30A21D0000A31D000000020000A31D0030A21D00FFFFFFFFFFFFFFFF9675000000000000000000000000
1004
803F000080BF00000000000000000000803F010060400000004002000100C03F00002040A4EE00D07F3FA7F8BF4000D07F3F0018803F0006C040000C0040000080BF0000008002009675B8711D0000000100FFFF30A21D0018931D000000020018931D0030A21D0001000000FFFFFFFF9675000000000000
1004
0000803F00000000000080BF00000000000000000100803F0000C040000000400200000080BF00000080A4EE00E8FF3F00D07F3F00E8FF3F000C00400006C040000C004000000000FCFF7F3F02009675A8721D0000000100FFFF00A31D00B0961D0000000200B0961D0000A31D00FFFFFFFFFFFFFFFF9675
1004
00000000803F000000000000000000000080000000000000803F000000400000C04000000040020000000000FCFF7F3FA4EE00E8FF3F00D07F3F00E8FF3F000C00400006C040000C004000004040FFFF9F400200967598731D0000000100FFFF00A31D00B0961D0000000200B0961D0000A31D00FFFFFFFF
1004
FFFFFFFF967500000000803F000000000000000000000080000000000000803F000000400000C04000000040020000004040FFFF9F40A4EE00D07F3FA7F8BF4000E8FF3F000C00400006C040000C00400000C0BF010000BF0200967588741D0000000100FFFF00A31D0018931D000000020018931D0000A3
1004
1D0001000000FFFFFFFF96750000000000000000803F0000000000000000000000000000803F000020400000C0400000004002000000C0BF010000BFA4EE4DF13F4000F43F4000E8FF3F000C40400006A040000C0040FCFF7F3F000040400200967578751D0000000100FFFF00A31D00E8931D0000000200
1004
E8931D0000A31D0001000000FFFFFFFF967500000000803F000000000000000000000080000000000000803F000040400000C040000000400200FCFF7F3F00004040A4EE000040BA00E8FF3F00E8FF3FA9266B3A00068040000C0040FFFF7FBF0100803F0200967568761D0000000100FFFF00A31D002099
1004
1D000000020020991D0000A31D0001000000FFFFFFFF96750000000080BF000000000000000000000000000000000000803F0000000000004040000000400200FFFF7FBF0100803FA4EE00E8FF3FA7F8BF4000D07F3F000C00400006C040000C00400100003F0000C03F0200967558771D0000000100FFFF
1004
B0961D0018931D000000020018931D00B0961D0001000000FFFFFFFF96750000000000000000803F000000000000803F0000008000000000000000400000C0400000204002000100003F0000C03FA4EEA9266BBAA7F8BF40A9266BBAB20E40405907C040A9266B3A0000C0BF0000C03F0200967580A42000
1004
0000FFFF010080971D0018931D000000020080971D0018931D00010000000100000096750000000000000000803F000000000000000000000000000080BF0000C03F0000C0400000000002000000C0BF0000C03FA4EE4DF13F40A9266BBAA9266BBAB20E40405907C040A9266B3A000040C0000040400200
1004
9675F07F20000000FFFF010080971D00E8931D000000020080971D00E8931D000100000001000000967500000000803F00000000000000000000000000000000000080BF0000404000004040000000000200000040C000004040A4EEA9266BBAA9266BBAA9266BBAA9266B3A5907C040A9266B3A0000C0C0
1004
0000008002009675686620000000FFFF010080971D0020991D000000020080971D0020991D00010000000100000096750000000080BF00000000000000000000000000000000000080BF00000000000000000000000002000000C0C000000080A4EEA9266BBAA9266BBAA9266BBAB20E4040A9266B3AA926
1004
6B3A000000000000404002009675D07B20000000FFFF010080971D0050981D000000020080971D0050981D0001000000010000009675000000000000000080BF000000000000000000000000000080BF00000000000000000000000002000000000000004040A4EEA9266BBAA9266BBA4DF13F40B20E4040
1004
A9266B3AB20E40400000C0BF0000C03F02009675C07C20000000FFFF010050981D00F0991D000000020050981D00F0991D0001000000010000009675000000000000000000000000803F00000000000080BF000000000000C03F000000000000404002000000C0BF0000C03FA4EE4DF13F40A9266BBAA926
1004
6BBAB20E4040A9266B3AB20E40400000C0BF0000C03F02009675B07D20000000FFFF010050981D00E8931D000000020050981D00E8931D000100000001000000967500000000803F000000000000000000000000000080BF0000000000004040000000000000C03F02000000C0BF0000C03FA4EEA9266BBA
1004
A9266BBAA9266BBAA9266B3AA9266B3AB20E4040000000000000404002009675A07E20000000FFFF010050981D0020991D000000020050981D0020991D00010000000100000096750000000080BF000000000000000000000000000080BF0000000000000000000000000000000002000000000000004040
1004
A4EEA9266BBAA9266BBA4DF13F40A9266B3A5907C040B20E4040000040C00000404002009675988E20000000FFFF010020991D00F0991D000000020020991D00F0991D0001000000010000009675000000000000000000000000803F000080BF000000000000000000000000000040400000404002000000
1004
40C000004040A4EEA9266BBAA7F8BF40A9266BBAA9266B3A5907C040B20E40400000C0BF0000C03F02009675688F20000000FFFF010020991D0018931D000000020020991D0018931D00010000000100000096750000000000000000803F00000000000080BF0000000000000000000000000000C0400000
1004
C03F02000000C0BF0000C03FA4EEA9266BBAA7F8BF404DF13F40B20E40405907C040B20E4040000040C00000008002009675589020000000FFFF0100F0991D0018931D0000000200F0991D0018931D00010000000100000096750000000000000000803F0000000000000000000000000000803F00004040
1004
0000C040000040400200000040C000000080A4EE4DF13F40A9266BBA4DF13F40B20E40405907C040B20E4040000000000000C04002009675489120000000FFFF0100F0991D00E8931D0000000200F0991D00E8931D000100000001000000967500000000803F000000000000000000000080000000000000
1004
803F000040400000C040000040400200000000000000C040A4EE4DF13F40A7F8BF40A9266BBAB20E40405907C040B20E4040000040C00000008002009675389220000000FFFF010018931D00E8931D000000020018931D00E8931D000100000001000000967500000000803F000000000000000000000000
1004
0000803F00000000000040400000C040000040400200000040C00000008019FC
1005
B2
  0
INSERT
  8
AME_FRZ
  5
B2
  2
AME_NIL
 10
1.0
 20
1.0
 30
1.0
1001
AME_SOL
1004

1005
0
  0
INSERT
  8
AME_FRZ
  5
177
  2
*U6
 10
0.0
 20
0.0
 30
0.0
  0
INSERT
  8
AME_FRZ
  5
17A
  2
AME_MAT
 10
0.0
 20
0.0
 30
0.0
1001
AME_SOL
1000
MILD_STEEL
1040
7860.0
1040
220.0
1040
0.275
1040
207.0
1040
345.0
1040
56.0
1040
12.0
1040
0.46
  0
ENDSEC
  0
EOF
