  0
SECTION
  2
HEADER
  9
$ACADVER
  1
AC1009
  9
$INSBASE
 10
0.0
 20
0.0
 30
0.0
  9
$EXTMIN
 10
-3.0
 20
-3.0
 30
-0.065727
  9
$EXTMAX
 10
3.0
 20
3.0
 30
3.0
  9
$LIMMIN
 10
0.0
 20
0.0
  9
$LIMMAX
 10
12.0
 20
9.0
  9
$ORTHOMODE
 70
     0
  9
$REGENMODE
 70
     1
  9
$FILLMODE
 70
     1
  9
$QTEXTMODE
 70
     0
  9
$MIRRTEXT
 70
     1
  9
$DRAGMODE
 70
     2
  9
$LTSCALE
 40
1.0
  9
$OSMODE
 70
     0
  9
$ATTMODE
 70
     1
  9
$TEXTSIZE
 40
0.2
  9
$TRACEWID
 40
0.05
  9
$TEXTSTYLE
  7
STANDARD
  9
$CLAYER
  8
0
  9
$CELTYPE
  6
BYLAYER
  9
$CECOLOR
 62
   256
  9
$DIMSCALE
 40
1.0
  9
$DIMASZ
 40
0.18
  9
$DIMEXO
 40
0.0625
  9
$DIMDLI
 40
0.38
  9
$DIMRND
 40
0.0
  9
$DIMDLE
 40
0.0
  9
$DIMEXE
 40
0.18
  9
$DIMTP
 40
0.0
  9
$DIMTM
 40
0.0
  9
$DIMTXT
 40
0.18
  9
$DIMCEN
 40
0.09
  9
$DIMTSZ
 40
0.0
  9
$DIMTOL
 70
     0
  9
$DIMLIM
 70
     0
  9
$DIMTIH
 70
     1
  9
$DIMTOH
 70
     1
  9
$DIMSE1
 70
     0
  9
$DIMSE2
 70
     0
  9
$DIMTAD
 70
     0
  9
$DIMZIN
 70
     0
  9
$DIMBLK
  1

  9
$DIMASO
 70
     1
  9
$DIMSHO
 70
     1
  9
$DIMPOST
  1

  9
$DIMAPOST
  1

  9
$DIMALT
 70
     0
  9
$DIMALTD
 70
     2
  9
$DIMALTF
 40
25.4
  9
$DIMLFAC
 40
1.0
  9
$DIMTOFL
 70
     0
  9
$DIMTVP
 40
0.0
  9
$DIMTIX
 70
     0
  9
$DIMSOXD
 70
     0
  9
$DIMSAH
 70
     0
  9
$DIMBLK1
  1

  9
$DIMBLK2
  1

  9
$DIMSTYLE
  2
*UNNAMED
  9
$DIMCLRD
 70
     0
  9
$DIMCLRE
 70
     0
  9
$DIMCLRT
 70
     0
  9
$DIMTFAC
 40
1.0
  9
$DIMGAP
 40
0.09
  9
$LUNITS
 70
     2
  9
$LUPREC
 70
     4
  9
$SKETCHINC
 40
0.1
  9
$FILLETRAD
 40
0.0
  9
$AUNITS
 70
     0
  9
$AUPREC
 70
     0
  9
$MENU
  1
acad
  9
$ELEVATION
 40
0.0
  9
$PELEVATION
 40
0.0
  9
$THICKNESS
 40
0.0
  9
$LIMCHECK
 70
     0
  9
$BLIPMODE
 70
     1
  9
$CHAMFERA
 40
0.0
  9
$CHAMFERB
 40
0.0
  9
$SKPOLY
 70
     0
  9
$TDCREATE
 40
2449411.116581863
  9
$TDUPDATE
 40
2449411.117616029
  9
$TDINDWG
 40
0.0010341667
  9
$TDUSRTIMER
 40
0.0010341667
  9
$USRTIMER
 70
     1
  9
$ANGBASE
 50
0.0
  9
$ANGDIR
 70
     0
  9
$PDMODE
 70
     0
  9
$PDSIZE
 40
0.0
  9
$PLINEWID
 40
0.0
  9
$COORDS
 70
     1
  9
$SPLFRAME
 70
     0
  9
$SPLINETYPE
 70
     6
  9
$SPLINESEGS
 70
     8
  9
$ATTDIA
 70
     0
  9
$ATTREQ
 70
     1
  9
$HANDLING
 70
     1
  9
$HANDSEED
  5
68
  9
$SURFTAB1
 70
     6
  9
$SURFTAB2
 70
     6
  9
$SURFTYPE
 70
     6
  9
$SURFU
 70
     6
  9
$SURFV
 70
     6
  9
$UCSNAME
  2

  9
$UCSORG
 10
0.0
 20
0.0
 30
0.0
  9
$UCSXDIR
 10
1.0
 20
0.0
 30
0.0
  9
$UCSYDIR
 10
0.0
 20
1.0
 30
0.0
  9
$PUCSNAME
  2

  9
$PUCSORG
 10
0.0
 20
0.0
 30
0.0
  9
$PUCSXDIR
 10
1.0
 20
0.0
 30
0.0
  9
$PUCSYDIR
 10
0.0
 20
1.0
 30
0.0
  9
$USERI1
 70
     0
  9
$USERI2
 70
     0
  9
$USERI3
 70
     0
  9
$USERI4
 70
     0
  9
$USERI5
 70
     0
  9
$USERR1
 40
0.0
  9
$USERR2
 40
0.0
  9
$USERR3
 40
0.0
  9
$USERR4
 40
0.0
  9
$USERR5
 40
0.0
  9
$WORLDVIEW
 70
     1
  9
$SHADEDGE
 70
     3
  9
$SHADEDIF
 70
    70
  9
$TILEMODE
 70
     1
  9
$MAXACTVP
 70
    16
  9
$PINSBASE
 10
0.0
 20
0.0
 30
0.0
  9
$PLIMCHECK
 70
     0
  9
$PEXTMIN
 10
1.000000E+20
 20
1.000000E+20
 30
1.000000E+20
  9
$PEXTMAX
 10
-1.000000E+20
 20
-1.000000E+20
 30
-1.000000E+20
  9
$PLIMMIN
 10
0.0
 20
0.0
  9
$PLIMMAX
 10
12.0
 20
9.0
  9
$UNITMODE
 70
     0
  9
$VISRETAIN
 70
     0
  9
$PLINEGEN
 70
     0
  9
$PSLTSCALE
 70
     1
  9
$TREEDEPTH
 70
  3020
  9
$DWGCODEPAGE
  3
ascii
  0
ENDSEC
  0
SECTION
  2
TABLES
  0
TABLE
  2
VPORT
 70
     2
  0
VPORT
  2
*ACTIVE
 70
     0
 10
0.0
 20
0.0
 11
1.0
 21
1.0
 12
0.582854
 22
1.368277
 13
0.0
 23
0.0
 14
1.0
 24
1.0
 15
0.0
 25
0.0
 16
1.0
 26
2.1
 36
0.9
 17
0.0
 27
0.0
 37
0.0
 40
5.744919
 41
1.594883
 42
50.0
 43
0.0
 44
0.0
 50
0.0
 51
0.0
 71
     0
 72
   100
 73
     1
 74
     1
 75
     0
 76
     0
 77
     0
 78
     0
  0
ENDTAB
  0
TABLE
  2
LTYPE
 70
     1
  0
LTYPE
  2
CONTINUOUS
 70
    64
  3
Solid line
 72
    65
 73
     0
 40
0.0
  0
ENDTAB
  0
TABLE
  2
LAYER
 70
     2
  0
LAYER
  2
0
 70
    64
 62
     7
  6
CONTINUOUS
  0
LAYER
  2
AME_FRZ
 70
    65
 62
     7
  6
CONTINUOUS
  0
ENDTAB
  0
TABLE
  2
STYLE
 70
     1
  0
STYLE
  2
STANDARD
 70
     0
 40
0.0
 41
1.0
 50
0.0
 71
     0
 42
0.2
  3
txt
  4

  0
ENDTAB
  0
TABLE
  2
VIEW
 70
     0
  0
ENDTAB
  0
TABLE
  2
UCS
 70
     0
  0
ENDTAB
  0
TABLE
  2
APPID
 70
     3
  0
APPID
  2
ACAD
 70
    64
  0
APPID
  2
AME_SOL
 70
    64
  0
APPID
  2
AVE_INVOKE
 70
    64
  0
ENDTAB
  0
TABLE
  2
DIMSTYLE
 70
     0
  0
ENDTAB
  0
ENDSEC
  0
SECTION
  2
BLOCKS
  0
BLOCK
  8
0
  5
1
  2
AME_NIL
 70
    64
 10
0.0
 20
0.0
 30
0.0
  1
AME_NIL
  3
AME_NIL
  0
ENDBLK
  8
0
  5
2
  0
BLOCK
  8
0
  5
4
  2
AME_SOL
 70
    64
 10
0.0
 20
0.0
 30
0.0
  1
AME_SOL
  3
AME_SOL
  0
ENDBLK
  8
0
  5
5
  0
BLOCK
  8
0
  5
25
  2
*U4
 70
    65
 10
0.0
 20
0.0
 30
0.0
  1
*U
  3
*U
  0
LINE
  8
0
 62
     7
  5
26
 10
2.0
 20
2.0
 30
2.0
 11
2.0
 21
2.0
 31
3.0
1001
AME_SOL
1070
     1
1071
       30
  0
LINE
  8
0
 62
     7
  5
27
 10
2.0
 20
2.0
 30
0.0
 11
2.0
 21
2.0
 31
1.0
1001
AME_SOL
1070
     1
1071
       29
  0
LINE
  8
0
 62
     7
  5
28
 10
2.0
 20
2.0
 30
3.0
 11
2.0
 21
0.0
 31
3.0
1001
AME_SOL
1070
     1
1071
       28
  0
LINE
  8
0
 62
     7
  5
29
 10
0.0
 20
2.0
 30
3.0
 11
2.0
 21
2.0
 31
3.0
1001
AME_SOL
1070
     1
1071
       27
  0
LINE
  8
0
 62
     7
  5
2A
 10
0.0
 20
2.0
 30
0.0
 11
0.0
 21
2.0
 31
3.0
1001
AME_SOL
1070
     1
1071
       26
  0
LINE
  8
0
 62
     7
  5
2B
 10
0.0
 20
2.0
 30
3.0
 11
0.0
 21
0.0
 31
3.0
1001
AME_SOL
1070
     1
1071
       25
  0
LINE
  8
0
 62
     7
  5
2C
 10
0.0
 20
0.0
 30
0.0
 11
0.0
 21
0.0
 31
3.0
1001
AME_SOL
1070
     1
1071
       24
  0
LINE
  8
0
 62
     7
  5
2D
 10
2.0
 20
0.0
 30
3.0
 11
2.0
 21
0.0
 31
0.0
1001
AME_SOL
1070
     1
1071
       23
  0
LINE
  8
0
 62
     7
  5
2E
 10
0.0
 20
0.0
 30
3.0
 11
2.0
 21
0.0
 31
3.0
1001
AME_SOL
1070
     1
1071
       22
  0
LINE
  8
0
 62
     7
  5
2F
 10
0.0
 20
0.0
 30
0.0
 11
2.0
 21
0.0
 31
0.0
1001
AME_SOL
1070
     1
1071
       21
  0
LINE
  8
0
 62
     7
  5
30
 10
0.0
 20
2.0
 30
0.0
 11
0.0
 21
0.0
 31
0.0
1001
AME_SOL
1070
     1
1071
       20
  0
LINE
  8
0
 62
     7
  5
31
 10
2.0
 20
0.0
 30
0.0
 11
2.0
 21
2.0
 31
0.0
1001
AME_SOL
1070
     1
1071
       19
  0
LINE
  8
0
 62
     7
  5
32
 10
2.0
 20
2.0
 30
0.0
 11
0.0
 21
2.0
 31
0.0
1001
AME_SOL
1070
     1
1071
       18
  0
LINE
  8
0
 62
     7
  5
33
 10
2.0
 20
2.0
 30
2.0
 11
2.0
 21
1.0
 31
2.0
1001
AME_SOL
1070
     1
1071
       17
  0
LINE
  8
0
 62
     7
  5
34
 10
1.0
 20
2.0
 30
2.0
 11
2.0
 21
2.0
 31
2.0
1001
AME_SOL
1070
     1
1071
       16
  0
LINE
  8
0
 62
     7
  5
35
 10
2.0
 20
1.0
 30
1.0
 11
2.0
 21
2.0
 31
1.0
1001
AME_SOL
1070
     1
1071
       15
  0
LINE
  8
0
 62
     7
  5
36
 10
2.0
 20
2.0
 30
1.0
 11
1.0
 21
2.0
 31
1.0
1001
AME_SOL
1070
     1
1071
       14
  0
ARC
  8
0
 62
     7
  5
37
 10
2.0
 20
2.0
 30
1.0
 40
1.0
 50
180.0
 51
270.0
1001
AME_SOL
1070
     1
1071
       13
  0
LINE
  8
0
 62
     7
  5
38
 10
2.0
 20
1.0
 30
1.0
 11
2.0
 21
1.0
 31
2.0
1001
AME_SOL
1070
     1
1071
       12
  0
LINE
  8
0
 62
     7
  5
39
 10
1.0
 20
2.0
 30
1.0
 11
1.0
 21
2.0
 31
2.0
1001
AME_SOL
1070
     1
1071
       11
  0
ARC
  8
0
 62
     7
  5
3A
 10
2.0
 20
2.0
 30
2.0
 40
1.0
 50
180.0
 51
270.0
1001
AME_SOL
1070
     1
1071
       10
  0
LINE
  8
0
 62
     7
  5
3B
 10
2.0
 20
1.0
 30
1.0
 11
2.0
 21
1.0
 31
2.0
1001
AME_SOL
1070
     0
1071
        1
  0
LINE
  8
0
 62
     7
  5
3C
 10
1.0
 20
2.0
 30
1.0
 11
1.0
 21
2.0
 31
2.0
1001
AME_SOL
1070
     0
1071
        1
  0
ENDBLK
  8
0
  5
3D
  0
BLOCK
  8
0
  5
41
  2
AME_JNK
 70
     0
 10
0.0
 20
0.0
 30
0.0
  1
AME_JNK
  3
AME_JNK
  0
ENDBLK
  8
0
  5
42
  0
BLOCK
  8
0
  5
44
  2
SOLAXES
 70
     0
 10
0.0
 20
0.0
 30
0.0
  1
SOLAXES
  3
SOLAXES
  0
LINE
  8
0
 62
     0
  5
45
 10
0.0
 20
0.0
 30
0.0
 11
1.314534
 21
0.0
 31
0.0
  0
LINE
  8
0
 62
     0
  5
46
 10
0.0
 20
0.0
 30
0.0
 11
0.0
 21
1.314534
 31
0.0
  0
LINE
  8
0
 62
     0
  5
47
 10
0.0
 20
0.0
 30
0.0
 11
0.0
 21
0.0
 31
1.314534
  0
CIRCLE
  8
0
 62
     0
  5
48
 10
0.0
 20
0.0
 30
1.183081
 40
0.065727
210
1.0
220
0.0
230
0.0
  0
LINE
  8
0
 62
     0
  5
49
 10
1.183081
 20
0.065727
 30
0.0
 11
1.314534
 21
0.0
 31
0.0
  0
LINE
  8
0
 62
     0
  5
4A
 10
1.183081
 20
0.0
 30
0.065727
 11
1.314534
 21
0.0
 31
0.0
  0
LINE
  8
0
 62
     0
  5
4B
 10
1.183081
 20
-0.065727
 30
0.0
 11
1.314534
 21
0.0
 31
0.0
  0
LINE
  8
0
 62
     0
  5
4C
 10
1.183081
 20
0.0
 30
-0.065727
 11
1.314534
 21
0.0
 31
0.0
  0
CIRCLE
  8
0
 62
     0
  5
4D
 10
0.0
 20
0.0
 30
1.183081
 40
0.065727
210
0.0
220
1.0
230
0.0
  0
LINE
  8
0
 62
     0
  5
4E
 10
0.065727
 20
1.183081
 30
0.0
 11
0.0
 21
1.314534
 31
0.0
  0
LINE
  8
0
 62
     0
  5
4F
 10
0.0
 20
1.183081
 30
0.065727
 11
0.0
 21
1.314534
 31
0.0
  0
LINE
  8
0
 62
     0
  5
50
 10
-0.065727
 20
1.183081
 30
0.0
 11
0.0
 21
1.314534
 31
0.0
  0
LINE
  8
0
 62
     0
  5
51
 10
0.0
 20
1.183081
 30
-0.065727
 11
0.0
 21
1.314534
 31
0.0
  0
CIRCLE
  8
0
 62
     0
  5
52
 10
0.0
 20
0.0
 30
1.051627
 40
0.065727
210
0.0
220
1.0
230
0.0
  0
LINE
  8
0
 62
     0
  5
53
 10
0.065727
 20
1.051627
 30
0.0
 11
0.0
 21
1.183081
 31
0.0
  0
LINE
  8
0
 62
     0
  5
54
 10
0.0
 20
1.051627
 30
0.065727
 11
0.0
 21
1.183081
 31
0.0
  0
LINE
  8
0
 62
     0
  5
55
 10
-0.065727
 20
1.051627
 30
0.0
 11
0.0
 21
1.183081
 31
0.0
  0
LINE
  8
0
 62
     0
  5
56
 10
0.0
 20
1.051627
 30
-0.065727
 11
0.0
 21
1.183081
 31
0.0
  0
CIRCLE
  8
0
 62
     0
  5
57
 10
0.0
 20
0.0
 30
1.183081
 40
0.065727
  0
LINE
  8
0
 62
     0
  5
58
 10
0.065727
 20
0.0
 30
1.183081
 11
0.0
 21
0.0
 31
1.314534
  0
LINE
  8
0
 62
     0
  5
59
 10
0.0
 20
0.065727
 30
1.183081
 11
0.0
 21
0.0
 31
1.314534
  0
LINE
  8
0
 62
     0
  5
5A
 10
-0.065727
 20
0.0
 30
1.183081
 11
0.0
 21
0.0
 31
1.314534
  0
LINE
  8
0
 62
     0
  5
5B
 10
0.0
 20
-0.065727
 30
1.183081
 11
0.0
 21
0.0
 31
1.314534
  0
CIRCLE
  8
0
 62
     0
  5
5C
 10
0.0
 20
0.0
 30
1.051627
 40
0.065727
  0
LINE
  8
0
 62
     0
  5
5D
 10
0.065727
 20
0.0
 30
1.051627
 11
0.0
 21
0.0
 31
1.183081
  0
LINE
  8
0
 62
     0
  5
5E
 10
0.0
 20
0.065727
 30
1.051627
 11
0.0
 21
0.0
 31
1.183081
  0
LINE
  8
0
 62
     0
  5
5F
 10
-0.065727
 20
0.0
 30
1.051627
 11
0.0
 21
0.0
 31
1.183081
  0
LINE
  8
0
 62
     0
  5
60
 10
0.0
 20
-0.065727
 30
1.051627
 11
0.0
 21
0.0
 31
1.183081
  0
CIRCLE
  8
0
 62
     0
  5
61
 10
0.0
 20
0.0
 30
0.920174
 40
0.065727
  0
LINE
  8
0
 62
     0
  5
62
 10
0.065727
 20
0.0
 30
0.920174
 11
0.0
 21
0.0
 31
1.051627
  0
LINE
  8
0
 62
     0
  5
63
 10
0.0
 20
0.065727
 30
0.920174
 11
0.0
 21
0.0
 31
1.051627
  0
LINE
  8
0
 62
     0
  5
64
 10
-0.065727
 20
0.0
 30
0.920174
 11
0.0
 21
0.0
 31
1.051627
  0
LINE
  8
0
 62
     0
  5
65
 10
0.0
 20
-0.065727
 30
0.920174
 11
0.0
 21
0.0
 31
1.051627
  0
ENDBLK
  8
0
  5
66
  0
ENDSEC
  0
SECTION
  2
ENTITIES
  0
INSERT
  8
AME_FRZ
  5
3
  2
AME_NIL
 10
0.0
 20
0.0
 30
0.0
  0
INSERT
  8
AME_FRZ
  5
6
  2
AME_SOL
 10
0.0
 20
0.0
 30
0.0
1001
AME_SOL
1000
R2.1
1000
AME2
1000
sq cm
1070
     3
1070
     0
1070
     3
1000
wire
1040
45.0
1000
U
1040
1.0
1000
cm
1000
gm
1000
MILD_STEEL
1070
    25
1000
CSG
1070
     1
1070
     3
1070
     3
1070
     3
1070
     0
1000
cu cm
1070
     1
1070
     0
1005
3
  0
INSERT
  8
AME_FRZ
  5
15
  2
AME_NIL
 10
0.0
 20
0.0
 30
0.0
1001
AME_SOL
1002
{
1070
     1
1071
  2316856
1070
  1536
1070
     1
1010
2.0
1020
2.0
1030
3.0
1005
0
1005
0
1005
3E
1040
0.0
1040
1.0
1070
     0
1000
MILD_STEEL
1000
0
1010
0.0
1020
0.0
1030
0.0
1010
0.0
1020
0.0
1030
1.0
1040
0.0
1002
}
1001
AVE_INVOKE
1000
SOLAVEMESH
  0
INSERT
  8
AME_FRZ
  5
21
  2
AME_NIL
 10
2.0
 20
2.0
 30
1.0
1001
AME_SOL
1002
{
1070
     1
1071
  2429608
1070
  1538
1070
     1
1010
1.0
1020
1.0
1030
1.0
1005
0
1005
0
1005
3E
1040
0.0
1040
1.0
1070
     0
1000
MILD_STEEL
1000
0
1010
2.0
1020
2.0
1030
1.0
1010
0.0
1020
0.0
1030
1.0
1040
0.0
1002
}
1001
AVE_INVOKE
1000
SOLAVEMESH
  0
INSERT
  8
0
  5
3E
  2
*U4
 10
0.0
 20
0.0
 30
0.0
210
1.0
220
-0.0000000000000003
230
0.0000000000000001
1001
AME_SOL
1002
{
1070
     1
1071
  2403344
1070
  1543
1070
     1
1070
     0
1005
15
1005
21
1005
0
1005
3F
1005
0
1040
0.0
1040
1.0
1070
     0
1000
MILD_STEEL
1000
0
1002
}
1001
AVE_INVOKE
1000
SOLAVEMESH
  0
INSERT
  8
AME_FRZ
  5
3F
  2
AME_NIL
 10
1.0
 20
1.0
 30
1.0
1001
AME_SOL
1004
C7CF0100E10070016F016D0169016101550103004901380127011A010E011000F1000F01350038001B0110010101000111000201FA00F700110103017300190004012600770028011C011201050127002A0006012B00E000130107012F0064000801300062001D0114010901310032000A01CB00CA001501
1004
0B01C900A9000C014A004B00390194009500560125004A013A010500D0003B019800290190009300620157014B013C012A016F0091002B01EA0068003D012C019200A800FB008900580180004C013E01F8002D017D0050003F012E01D8001E0109002800A4006A01630159015F007C005A014D0196004001
1004
EE00E2004E014101ED002F011F01830016010D0197005200B00070004201C500DA00640140003F006E016B0165015B014F014301EF00E100750050010800440184003001BC0082005C010200510145013101E4005A00320179002001FC0076004601330121012E00DF00C0004E0066015D0107000F00FF00
1004
6C0167015E012400BF005F015201470134014800F20035012D00220104007B007F005301FD006E006801F000600154013C00480136012301A00044002401210078003701250154001701FE00120026011801F900180019011E004D0001000000110022001744DFA6CB5AF2D504B1EAFF01E39B3509BB203C
1004
7366A13764078E6CD426ECAA4AC81544465495902A888CA92B20551119FE26D169A5CAA4317A0A01CB954862F41403972A90C5E828075495902A888CA92B20551119525640AA4CFC449E3C10315AF7E0B5C449FFEE3FFFFFFFEE3FFFF37F37EE3867F71FF71FFFFFFC449FFEE3FFFFFFFEE3FFFF37F37EE3
1004
867F71FF71FFFFFF732F7C44072887FDC7FFFFFFFDC7FFFDC7041F9BF71D2A651C984D23CB6D04E5328E4C2691E5B6811FE974CA39309A4796DA09CFEE65FFCC9947261348F2DB40803FEE67FD2A70FE9C3FFFFEE3A54E1FC112D6BFDC77FF3254E1FD387F7FFFFEE3BDF1125CA21FF71FFFFFFFF71FFC10
1004
AD6B5AD67FDC7FDC74A9947261348F2DB41394CA39309A4796DA047FA5D328E4C2691E5B68273FB997FF32651C984D23CB6D0200FFB99FE325693FB49FFF8DFB8E94112D6B693FFEE3BFF992B49FDA4FEFFFE37EE3BDF113FCA21FF71FFFFFFFF71FFFF446FE6FDC74A9947261348F2DB41394CA39309A47
1004
96DA043FFDEF88BCA21FF71FFFFFFFF71FFC10AD6B5AD67FD11BF71D2A651C984D23CB6D04E5328E4C2691E5B6810FFF1368812E55218BD0500E5CAA4317A0A01CB954862F41403AA4AC81544465495902A888CF7871ED32F6D571DFA327BD6D3B15AF7E0B7D193FFDC7FFFFFE37EE67F8DFCDFCDFB8E19F
1004
FFFFFFFFF464FFF71FFFFFF8DFB99FE37F37F37EE3867FFFFFFFFF73226D1025CAA4317A0A01CB954862F4140395A8F98B1CB3AA4AC81544465495902A888CA92B2055267E8C9E1E258AD7BF05CE8C9FFEE3FFFFFFFEE3FFFF37F37F3067FFFFFFFFFD193FFDC7FFFFFFFDC7FFFE6FE6FE60CFFFFFFFFFEE
1004
644DA2D34078E6CD426EC80F1CD9A84DD901E39B3509BB2A92B2055265495902A9300F1CD9A84DCEFD193C4A3A62FF7E0B2FE8C9FFFFEE3FFFEE3FFFFFFFFFF867FFFFFFFFFD193FFFFDC7FFFDC7FFFFFFFFFF0CFFFFFFFFFEE389B45A680F1CD9A84DD901E39B3509BB203C7366A13765525640AA4C03C7
1004
366A1373AA4AC81544467E8C9E3B10B17FBF0587F464FFF71FFFFFFFFFF71FFFFFFC33FFFFFFFFFE8C9FFEE3FFFFFFFFFEE3FFFFFF867FFFFFFFFF71C4DA2D34078E6CD426EC80F1CD9A84DD901E39B3509BB203C7366A1373AA4AC815499525640AA2233F464F118918BFDF82B3FA327FFFFFFB8FFFFB8F
1004
FFFFFFFE19FFFFFFFFFF464FFFFFFF71FFFF71FFFFFFFFC33FFFFFFFFFB8E26D169A03C7366A13764078E6CD426ECB44B4BD09B8E2865495902A932A4AC815499525640AA2233F464F183EC5FEFC151FD193FFDCCFF1BF8DFC6FDCCFF1BF9BF9BF4460CFFFFFFFFFFA327FFB99FE37F1BF8DFB99FE37F37F
1004
37E88C19FFFFFFFFFDC71368A280F1CD9A84DD92B51F316396701E39B3509BB2A92B2055265495902A932A4AC81544467E8C9E1C0CC5FEFD387F464FFF8DFC6FDCCFEE67F8DFC6FE6FE6FD11833FFFFFFFFFE8C9FFF1BF8DFB99FDCCFF1BF8DFCDFCDFA23067FFFFFFFFF71C4DA28A56A3E62C72CE03C736
1004
6A13764078E6CD426ECAA4AC815499525640AA4CA92B20551119FA3278683B17FBF693FA327FFC6FDCCFF1BF8DFC6FDCCFF37F37E88C19FFFFFFFFFF464FFF8DFB99FE37F1BF8DFB99FE6FE6FD11833FFFFFFFFFB8E3E545CAA4317A0A01CB954862F4140395A8F98B1CB3AA4AC81544465495902A888CA9
1004
2B2055261EDA4F4BD826F50F49D7BAD27A5EC137A9EE32953642D00570BBF5AC7820621E258E943C4B11E0818AD6B5AD6B5A6C87FDC7FFFFFFFDC7FFFE6FE6FE669BFB8FFB8E3DB49E97B04DEA1E93AF75A4F4BD826F53DC647CA8B954862F4140395A8F98B1CB3972A90C5E828075495902A932A4AC8154
1004
99525640AA4DFFFB8E94A210465A8C77EB58F040C438198E94381988F040C5FEB5AD6510FFB8FFFFFFFFB8FFFFB8FFCDFB8E97FFF71C7CA8AD47CC58E59CB954862F41403972A90C5E828075495902A932A4AC815499525640AA4DFFFB8E94A210F02631D6B7E3C10310D0763A51E08188683B15AD6B7F94
1004
43FEE3FFFFFFFEE3FFFF37EE3FEE3A5FFFDC71F2A2E55218BD0500E5CAA4317A0A01CB954862F41403AA4AC81544465495902A888CF7871ED32F6D571C7B693D2F609BD43D275EEB49E97B04DEA7B8CA54D908702A85D6B7E3C10317ADA763A51E0818BD6D3B15AD6B5AD6B4D90FFB8FFFFFFFFB8FFFFCDF
1004
CDFB8ED37F71FF71C7B693D2F609BD43D275EEB49E97B04DEA7B8C8F95172A90C5E828072B51F31639672E55218BD0500EA92B2055265495902A933DE1C7B4CBDB55C7FFFDC74A5108C858EFD6B7ADA7621C0CC74A1C0CC5EB69D8BFD6B5ACA21FFFF71FFFFFFFF733FCDFCDFB8E97FFF71C7CA8AD47CC58
1004
E59CB954862F41403972A90C5E828075495902A932A4AC815499EF0E3DA65EDAAE3FEE67F8C94A210F26EC77EB5BD6D3B10D0763A50D0762F5B4EC5FEB5AD6510FFB8FFFFFFFFFFB99FE6FE6FDC74BFB99FE30F95172A90C5E828072B51F31639672B51F31639675495902A932A4AC815499525640AA4DFB
1004
99FE3252885E804F63BF5AC3C4B10E0663A50E06621E258BFD6B5ACA21FFFF71FFFFFFFF71FF9BF9BF992FEE67F8C3E5456A3E62C72CE5CAA4317A0A01CAD47CC58E59D525640AA4CA92B2055265495902A937FFEE3A52884B5BD6C77EB58789621A0EC74A1A0EC43C4B17FAD6B59443FEE3FFFFFF1BFFF7
1004
1FF9BF9BF992FFFEE38F9500F1CD9A84DD92B51F316396701E39B3509BB2A92B2055265495902A9300F1CD9A84DCFFB99FDC74A510B81242EB5BF128E98870331D289474C438198BFDFE510FFFFB8FFFFFFFFB99FDC7FE6FF4BFB99FDC71F2A2B51F316396701E39B3509BB203C7366A13765525640AA4CA
1004
92B20552601E39B3509B9FF733FB8E94A212D60BE175ADF89474C4341D8E944A3A621A0EC5FEFF2887FDC7FFFFFFFFFDCCFF37EE3FFA5FDCCFEE38F9500F1CD9A84DD901E39B3509BB203C7366A13764078E6CD426E75495902A9300F1CD9A84DCFFD3BFC64A510A205E0BAD6FC4A3A62231231D289474C4
1004
462462FF7F9443FEE67FFFFFFFFF733FFFFFE97FA77F8C3E5403C7366A13764078E6CD426EC80F1CD9A84DD95495902A9300F1CD9A84DCE03C7366A1373FFFF3252884783B0BAD6FC4A3A623B10B1D289474C4762162FF7F9443FFFEE67FFFFFFF733FFFFFE97FFF987CA8078E6CD426EC80F1CD9A84DD96
1004
89697A1371C50CA92B20552601E39B3509B9D525640AA2237EE67F71D29442F430175ADF8EC42C460FB1D28EC42C460FB17FBFCA21FFFFFF71FFFF733FFFB8FFFFA2325FDCCFEE38F9515A8F98B1CB380F1CD9A84DD901E39B3509BB2A92B20552601E39B3509B9D525640AA2237E38CFE3874A51096B082
1004
EB5BF1D88588683B1D28EC42C4341D8BFDFE510FFB8FFFFFFFFB99FFFE6FFFC70E97F1C67F1C38F9500F1CD9A84DD901E39B3509BB203C7366A13764078E6CD426E701E39B3509B9D525640AA2237FFE88C94A214E82705D6B7E3B10B1118918E947621622312317FBFCA21FF733FFFFFFFB99FFFFFFFF4B
1004
FFFA230F9500F1CD9A84DD901E39B3509BB2D12D2F426E38A18078E6CD426E75495902A932A4AC8154446FDCCFEE3A52884341402EB5BF1189188C1F63A51189188C1F62FF7F9443FFFFFEE3FEE67FFFFFFF71FF4464BFB99FDC71F2A01E39B3509BB256A3E62C72CE03C7366A13764078E6CD426E754959
1004
02A932A4AC8154446FC719FC70E94A210531EC2EB5BF118918870331D288C48C438198BFDFE510FFFFB8FFFFB99FFFFFFFE6FC70E97F1C67F1C38F9500F1CD9A84DD92B51F3163967689697A1371C50CA92B2055265495902A932A4AC8154446FE9DFE32528841002885D6B7E307D8870331D28C1F621C0C
1004
C5FEFF2887FFFDC7FFFFFFFDC7FE6FE6FD1192FF4EFF187CA8AD47CC58E59C078E6CD426ECB44B4BD09B8E2865495902A932A4AC815499525640AA2237FFF3252884C0A4175ADF8C1F621A0EC74A307D88683B17FBFCA21FF71FFFFFF8DFFFB8FFCDFCDFA2325FFFE61F2A2B51F31639672B51F316396701
1004
E39B3509BB2A92B2055265495902A932A4AC8154446FD1275FFD3A94A216802531D6B7E1C0CC4341D8E94381988683B17FBFCA21FF71FFFFFFFF71FFFF9BF9BF4464BFA24EBFFA747CA8AD47CC58E59CAD47CC58E59C078E6CD426ECAA4AC815499525640AA4CA92B20551119FFB99FE32528841189B1D6B
1004
7E1C0CC4341D8E94381988683B17FBFCA21FF71FFFFFFFF71FFFF9BF9BF4464AFFDCCFF1813536048A
1005
40
  0
INSERT
  8
AME_FRZ
  5
40
  2
AME_NIL
 10
1.0
 20
1.0
 30
1.0
1001
AME_SOL
1004

1005
0
  0
ENDSEC
  0
EOF
