105 25 1 0                              
body $-1 $1 $-1 $-1 #
lump $-1 $-1 $2 $0 #
shell $-1 $-1 $-1 $3 $1 #
face $-1 $4 $5 $2 $-1 $6 forward single #
face $-1 $7 $8 $2 $-1 $9 forward single #
loop $-1 $10 $11 $3 #
cone-surface $-1 0 0 0 0 0 1 100 0 0 1 0 1 0 #
face $-1 $-1 $12 $2 $-1 $13 forward single #
loop $-1 $-1 $14 $4 #
plane-surface $-1 0 0 -75 0 0 -1 -1 0 0 0 #
loop $-1 $-1 $15 $3 #
coedge $-1 $11 $11 $14 $16 1 $5 $-1 #
loop $-1 $-1 $17 $7 #
plane-surface $-1 0 0 75 0 0 1 1 0 0 0 #
coedge $-1 $14 $14 $11 $16 0 $8 $-1 #
coedge $-1 $15 $15 $17 $18 1 $10 $-1 #
edge $-1 $19 $19 $14 $20 0 #
coedge $-1 $17 $17 $15 $18 0 $12 $-1 #
edge $-1 $21 $21 $17 $22 0 #
vertex $-1 $16 $23 #
ellipse-curve $-1 0 0 -75 0 0 -1 100 0 0 1 #
vertex $-1 $18 $24 #
ellipse-curve $-1 0 0 75 0 0 1 100 0 0 1 #
point $-1 100 0 -75 #
point $-1 100 0 75 #
