600 0 1 0           
97 GICL ACIS Healer - Source: /gicl/data5/repository/UMD/unmachinable-ex3/unmachinable-ex3.sat - 6 0 18 ACIS 6.0.3 Solaris 24 Sun Apr 14 00:34:55 2002 
1 9.999999999999999547e-07 1.000000000000000036e-10 
body $-1 $1 $-1 $-1 #
lump $-1 $-1 $2 $0 #
shell $-1 $-1 $-1 $3 $-1 $1 #
face $-1 $4 $5 $2 $-1 $6 forward single #
face $-1 $7 $8 $2 $-1 $9 forward single #
loop $-1 $-1 $10 $3 #
plane-surface $-1 25 0 30 -1 0 0 0 0 1 forward_v I I I I #
face $-1 $11 $12 $2 $-1 $13 forward single #
loop $-1 $-1 $14 $4 #
plane-surface $-1 0 25 30 0 -1 0 0 0 -1 forward_v I I I I #
coedge $-1 $15 $16 $17 $18 reversed $5 $-1 #
face $-1 $19 $20 $2 $-1 $13 forward single #
loop $-1 $-1 $21 $7 #
plane-surface $-1 0 -25 30 0 1 0 0 0 1 forward_v I I I I #
coedge $-1 $22 $23 $24 $25 reversed $8 $-1 #
coedge $-1 $26 $10 $27 $28 forward $5 $-1 #
coedge $-1 $10 $26 $29 $30 reversed $5 $-1 #
coedge $-1 $31 $32 $10 $18 forward $33 $-1 #
edge $-1 $34 -25 $35 -10 $17 $36 forward 7 unknown #
face $-1 $37 $38 $2 $-1 $39 forward single #
loop $-1 $-1 $40 $11 #
coedge $-1 $41 $42 $43 $44 reversed $12 $-1 #
coedge $-1 $45 $14 $46 $47 forward $8 $-1 #
coedge $-1 $14 $45 $48 $49 reversed $8 $-1 #
coedge $-1 $50 $51 $14 $25 forward $52 $-1 #
edge $-1 $53 -25 $54 -10 $24 $55 forward 7 unknown #
coedge $-1 $16 $15 $56 $57 forward $5 $-1 #
coedge $-1 $58 $59 $15 $28 reversed $60 $-1 #
edge $-1 $34 10 $61 20 $15 $62 forward 7 unknown #
coedge $-1 $63 $64 $16 $30 forward $65 $-1 #
edge $-1 $35 5 $66 15 $29 $67 forward 7 unknown #
coedge $-1 $68 $17 $64 $69 forward $33 $-1 #
coedge $-1 $17 $70 $58 $71 forward $33 $-1 #
loop $-1 $-1 $32 $72 #
vertex $-1 $71 $73 #
vertex $-1 $30 $74 #
straight-curve $-1 25 0 20 0 -1 0 I I #
face $-1 $75 $76 $2 $-1 $77 forward single #
loop $-1 $-1 $78 $19 #
plane-surface $-1 -25 0 30 1 0 0 0 0 -1 forward_v I I I I #
coedge $-1 $79 $80 $81 $82 reversed $20 $-1 #
coedge $-1 $83 $21 $84 $85 reversed $12 $-1 #
coedge $-1 $21 $83 $86 $87 reversed $12 $-1 #
coedge $-1 $88 $89 $21 $44 forward $90 $-1 #
edge $-1 $91 10 $92 25 $43 $93 forward 7 unknown #
coedge $-1 $23 $22 $94 $95 forward $8 $-1 #
coedge $-1 $96 $97 $22 $47 reversed $98 $-1 #
edge $-1 $53 10 $99 20 $22 $100 forward 7 unknown #
coedge $-1 $101 $102 $23 $49 forward $103 $-1 #
edge $-1 $54 5 $104 15 $48 $105 forward 7 unknown #
coedge $-1 $106 $24 $102 $107 forward $52 $-1 #
coedge $-1 $24 $108 $96 $109 forward $52 $-1 #
loop $-1 $-1 $24 $110 #
vertex $-1 $109 $111 #
vertex $-1 $49 $112 #
straight-curve $-1 0 25 20 1 0 -0 I I #
coedge $-1 $113 $114 $26 $57 reversed $76 $-1 #
edge $-1 $61 -25 $66 -10 $26 $115 forward 7 unknown #
coedge $-1 $116 $27 $32 $71 reversed $60 $-1 #
coedge $-1 $27 $116 $113 $117 forward $60 $-1 #
loop $-1 $-1 $58 $118 #
vertex $-1 $57 $119 #
straight-curve $-1 25 25 30 0 0 -1 I I #
coedge $-1 $120 $29 $114 $121 forward $65 $-1 #
coedge $-1 $29 $122 $31 $69 reversed $65 $-1 #
loop $-1 $-1 $29 $123 #
vertex $-1 $121 $124 #
straight-curve $-1 25 10 25 -0 -0 -1 I I #
coedge $-1 $70 $31 $125 $126 forward $33 $-1 #
edge $-1 $35 25 $127 48.98979485566359671 $31 $128 forward 7 unknown #
coedge $-1 $32 $68 $129 $130 forward $33 $-1 #
edge $-1 $131 10 $34 25 $32 $132 forward 7 unknown #
face $-1 $123 $33 $2 $-1 $133 forward single #
point $-1 25 25 20 #
point $-1 25 10 20 #
face $-1 $134 $135 $2 $-1 $77 forward single #
loop $-1 $-1 $136 $37 #
plane-surface $-1 0 0 10 0 0 1 1 0 0 forward_v I I I I #
coedge $-1 $86 $137 $88 $138 reversed $38 $-1 #
coedge $-1 $139 $40 $140 $141 forward $20 $-1 #
coedge $-1 $40 $139 $142 $143 reversed $20 $-1 #
coedge $-1 $144 $145 $40 $82 forward $146 $-1 #
edge $-1 $147 -25 $148 -10 $81 $149 forward 7 unknown #
coedge $-1 $42 $41 $150 $151 forward $12 $-1 #
coedge $-1 $152 $153 $41 $85 forward $154 $-1 #
edge $-1 $155 -15 $91 -5 $84 $156 forward 7 unknown #
coedge $-1 $157 $78 $42 $87 forward $38 $-1 #
edge $-1 $92 10 $158 20 $86 $159 forward 7 unknown #
coedge $-1 $160 $43 $78 $138 forward $90 $-1 #
coedge $-1 $43 $161 $152 $162 forward $90 $-1 #
loop $-1 $-1 $43 $163 #
vertex $-1 $162 $164 #
vertex $-1 $44 $165 #
straight-curve $-1 0 -25 20 -1 0 0 I I #
coedge $-1 $166 $167 $45 $95 reversed $135 $-1 #
edge $-1 $99 -25 $104 -10 $45 $168 forward 7 unknown #
coedge $-1 $169 $46 $51 $109 reversed $98 $-1 #
coedge $-1 $46 $169 $166 $170 forward $98 $-1 #
loop $-1 $-1 $96 $171 #
vertex $-1 $95 $172 #
straight-curve $-1 -25 25 30 0 0 -1 I I #
coedge $-1 $173 $48 $167 $174 forward $103 $-1 #
coedge $-1 $48 $175 $50 $107 reversed $103 $-1 #
loop $-1 $-1 $48 $176 #
vertex $-1 $174 $177 #
straight-curve $-1 -10 25 25 0 0 -1 I I #
coedge $-1 $108 $50 $178 $179 forward $52 $-1 #
edge $-1 $54 25 $180 48.98979485566359671 $50 $181 forward 7 unknown #
coedge $-1 $51 $106 $182 $183 forward $52 $-1 #
edge $-1 $184 10 $53 25 $51 $185 forward 7 unknown #
face $-1 $186 $52 $2 $-1 $133 forward single #
point $-1 -25 25 20 #
point $-1 -10 25 20 #
coedge $-1 $136 $56 $59 $117 reversed $76 $-1 #
coedge $-1 $56 $136 $63 $121 reversed $76 $-1 #
straight-curve $-1 25 0 10 0 -1 0 I I #
coedge $-1 $59 $58 $187 $188 reversed $60 $-1 #
edge $-1 $189 10 $61 25 $59 $168 forward 7 unknown #
face $-1 $190 $60 $2 $-1 $9 forward single #
point $-1 25 25 10 #
coedge $-1 $191 $63 $192 $193 reversed $65 $-1 #
edge $-1 $66 -25 $194 -10 $63 $195 forward 7 unknown #
coedge $-1 $64 $191 $196 $197 reversed $65 $-1 #
face $-1 $176 $65 $2 $-1 $198 forward single #
point $-1 25 10 10 #
coedge $-1 $196 $199 $68 $126 reversed $200 $-1 #
edge $-1 $127 0.2013579207903306578 $201 1.3694384060045659 $68 $202 forward 7 unknown #
vertex $-1 $197 $203 #
straight-curve $-1 0 10 20 1 0 -0 I I #
coedge $-1 $204 $187 $70 $130 reversed $205 $-1 #
edge $-1 $201 -48.98979485566359671 $131 -25 $70 $206 forward 7 unknown #
vertex $-1 $130 $207 #
straight-curve $-1 0 25 20 1 0 -0 I I #
plane-surface $-1 0 0 20 0 0 1 1 0 0 forward_v I I I I #
face $-1 $208 $209 $2 $-1 $77 forward single #
loop $-1 $-1 $167 $75 #
coedge $-1 $114 $113 $210 $211 reversed $76 $-1 #
coedge $-1 $78 $157 $212 $213 reversed $38 $-1 #
edge $-1 $92 -25 $214 -10 $88 $215 forward 7 unknown #
coedge $-1 $80 $79 $216 $217 forward $20 $-1 #
coedge $-1 $218 $219 $79 $141 reversed $220 $-1 #
edge $-1 $147 10 $221 20 $140 $222 forward 7 unknown #
coedge $-1 $223 $224 $80 $143 forward $225 $-1 #
edge $-1 $148 5 $226 15 $142 $227 forward 7 unknown #
coedge $-1 $228 $81 $224 $229 forward $146 $-1 #
coedge $-1 $81 $230 $218 $231 forward $146 $-1 #
loop $-1 $-1 $81 $232 #
vertex $-1 $82 $233 #
vertex $-1 $143 $234 #
straight-curve $-1 0 -25 20 -1 0 0 I I #
coedge $-1 $235 $236 $83 $151 reversed $209 $-1 #
edge $-1 $155 10 $158 25 $83 $237 forward 7 unknown #
coedge $-1 $238 $84 $89 $162 reversed $154 $-1 #
coedge $-1 $84 $239 $235 $240 forward $154 $-1 #
loop $-1 $-1 $84 $241 #
vertex $-1 $240 $242 #
straight-curve $-1 -10 -25 25 0 0 1 I I #
coedge $-1 $137 $86 $236 $243 forward $38 $-1 #
vertex $-1 $243 $244 #
straight-curve $-1 -25 -25 30 0 0 -1 I I #
coedge $-1 $161 $88 $245 $246 forward $90 $-1 #
coedge $-1 $89 $160 $247 $248 forward $90 $-1 #
edge $-1 $249 -48.98979485566359671 $91 -25 $89 $181 forward 7 unknown #
face $-1 $250 $90 $2 $-1 $133 forward single #
point $-1 -10 -25 20 #
point $-1 -25 -25 20 #
coedge $-1 $251 $94 $97 $170 reversed $135 $-1 #
coedge $-1 $94 $251 $101 $174 reversed $135 $-1 #
straight-curve $-1 0 25 10 1 0 0 I I #
coedge $-1 $97 $96 $252 $253 reversed $98 $-1 #
edge $-1 $254 10 $99 25 $97 $255 forward 7 unknown #
face $-1 $118 $98 $2 $-1 $39 forward single #
point $-1 -25 25 10 #
coedge $-1 $256 $101 $257 $258 forward $103 $-1 #
edge $-1 $104 -25 $259 -10 $101 $260 forward 7 unknown #
coedge $-1 $102 $256 $261 $262 reversed $103 $-1 #
face $-1 $163 $103 $2 $-1 $263 forward single #
point $-1 -10 25 10 #
coedge $-1 $261 $264 $106 $179 reversed $265 $-1 #
edge $-1 $180 1.772154247585227438 $266 2.94023473279946268 $106 $202 forward 7 unknown #
vertex $-1 $107 $267 #
straight-curve $-1 -10 0 20 0 1 0 I I #
coedge $-1 $268 $252 $108 $183 reversed $269 $-1 #
edge $-1 $266 -48.98979485566359671 $184 -25 $108 $270 forward 7 unknown #
vertex $-1 $183 $271 #
straight-curve $-1 -25 0 20 0 1 0 I I #
face $-1 $272 $205 $2 $-1 $273 forward single #
coedge $-1 $129 $210 $116 $188 forward $205 $-1 #
edge $-1 $189 -15 $131 -5 $187 $274 forward 7 unknown #
vertex $-1 $211 $275 #
face $-1 $276 $220 $2 $-1 $6 forward single #
coedge $-1 $122 $120 $277 $278 forward $65 $-1 #
coedge $-1 $210 $279 $120 $193 forward $205 $-1 #
edge $-1 $280 -20 $194 -10 $192 $281 forward 7 unknown #
vertex $-1 $193 $282 #
straight-curve $-1 0 10 10 -1 0 0 I I #
coedge $-1 $283 $125 $122 $197 forward $200 $-1 #
edge $-1 $127 -0 $284 20 $196 $285 forward 7 unknown #
plane-surface $-1 0 10 20 0 -1 0 0 0 -1 forward_v I I I I #
coedge $-1 $125 $283 $204 $286 forward $200 $-1 #
loop $-1 $-1 $196 $272 #
vertex $-1 $126 $287 #
ellipse-curve $-1 0 0 20 0 0 1 50 0 0 1 I I #
point $-1 48.98979485566359671 10 20 #
coedge $-1 $279 $129 $199 $286 reversed $205 $-1 #
loop $-1 $-1 $187 $186 #
straight-curve $-1 10 0 20 0 -1 0 I I #
point $-1 10 25 20 #
face $-1 $171 $288 $2 $-1 $77 forward single #
loop $-1 $-1 $235 $134 #
coedge $-1 $187 $192 $136 $211 forward $205 $-1 #
edge $-1 $194 10 $189 25 $210 $289 forward 7 unknown #
coedge $-1 $290 $245 $137 $213 forward $291 $-1 #
edge $-1 $214 5 $292 15 $212 $293 forward 7 unknown #
vertex $-1 $213 $294 #
straight-curve $-1 -25 0 20 0 1 0 I I #
coedge $-1 $295 $296 $139 $217 reversed $288 $-1 #
edge $-1 $221 -25 $226 -10 $139 $237 forward 7 unknown #
coedge $-1 $297 $140 $145 $231 reversed $220 $-1 #
coedge $-1 $140 $297 $295 $298 forward $220 $-1 #
loop $-1 $-1 $218 $190 #
vertex $-1 $141 $299 #
straight-curve $-1 25 -25 30 0 0 -1 I I #
coedge $-1 $300 $142 $296 $301 forward $225 $-1 #
coedge $-1 $142 $302 $144 $229 reversed $225 $-1 #
loop $-1 $-1 $142 $276 #
vertex $-1 $301 $303 #
straight-curve $-1 10 -25 25 0 0 -1 I I #
coedge $-1 $230 $144 $304 $305 forward $146 $-1 #
edge $-1 $148 25 $306 48.98979485566359671 $144 $206 forward 7 unknown #
coedge $-1 $145 $228 $307 $308 forward $146 $-1 #
edge $-1 $309 10 $147 25 $145 $310 forward 7 unknown #
face $-1 $311 $146 $2 $-1 $133 forward single #
point $-1 25 -25 20 #
point $-1 10 -25 20 #
coedge $-1 $312 $150 $153 $240 reversed $209 $-1 #
coedge $-1 $150 $312 $157 $243 reversed $209 $-1 #
straight-curve $-1 0 -25 10 -1 0 0 I I #
coedge $-1 $313 $152 $314 $315 reversed $154 $-1 #
coedge $-1 $153 $313 $316 $317 forward $154 $-1 #
edge $-1 $318 10 $155 25 $153 $319 forward 7 unknown #
face $-1 $232 $154 $2 $-1 $263 forward single #
point $-1 -10 -25 10 #
edge $-1 $158 -25 $292 -10 $157 $255 forward 7 unknown #
point $-1 -25 -25 10 #
coedge $-1 $212 $320 $160 $246 reversed $291 $-1 #
edge $-1 $214 25 $321 48.98979485566359671 $160 $322 forward 7 unknown #
coedge $-1 $323 $314 $161 $248 reversed $324 $-1 #
edge $-1 $321 -2.94023473279946268 $249 -1.772154247585227438 $161 $202 forward 7 unknown #
vertex $-1 $248 $325 #
face $-1 $326 $291 $2 $-1 $327 forward single #
coedge $-1 $167 $166 $328 $329 reversed $135 $-1 #
coedge $-1 $182 $328 $169 $253 forward $269 $-1 #
edge $-1 $254 -15 $184 -5 $252 $330 forward 7 unknown #
vertex $-1 $329 $331 #
straight-curve $-1 -25 0 10 0 1 0 I I #
coedge $-1 $175 $173 $332 $333 forward $103 $-1 #
coedge $-1 $328 $334 $173 $258 reversed $269 $-1 #
edge $-1 $259 10 $335 20 $173 $336 forward 7 unknown #
vertex $-1 $329 $337 #
straight-curve $-1 -10 0 10 0 -1 0 I I #
coedge $-1 $338 $178 $175 $262 forward $265 $-1 #
edge $-1 $180 -0 $339 20 $261 $340 forward 7 unknown #
plane-surface $-1 -10 0 20 1 0 0 0 0 -1 forward_v I I I I #
coedge $-1 $178 $338 $268 $341 forward $265 $-1 #
loop $-1 $-1 $264 $342 #
vertex $-1 $179 $343 #
point $-1 -10 48.98979485566359671 20 #
coedge $-1 $334 $182 $264 $341 reversed $269 $-1 #
loop $-1 $-1 $252 $344 #
straight-curve $-1 0 10 20 1 0 -0 I I #
point $-1 -25 10 20 #
face $-1 $241 $200 $2 $-1 $345 forward single #
plane-surface $-1 10 0 20 -1 0 0 0 0 1 forward_v I I I I #
straight-curve $-1 10 25 25 0 0 1 I I #
point $-1 10 25 10 #
face $-1 $72 $225 $2 $-1 $273 forward single #
coedge $-1 $346 $347 $191 $278 reversed $348 $-1 #
edge $-1 $280 10 $284 48.98979485566359671 $191 $349 forward 7 unknown #
coedge $-1 $192 $204 $346 $350 forward $205 $-1 #
vertex $-1 $350 $351 #
straight-curve $-1 10 10 20 0 0 1 I I #
point $-1 10 10 10 #
coedge $-1 $199 $196 $347 $352 forward $200 $-1 #
vertex $-1 $278 $353 #
straight-curve $-1 48.98979485566359671 10 20 -0 -0 -1 I I #
edge $-1 $354 -20 $201 0 $199 $355 forward 7 unknown #
point $-1 10 48.98979485566359671 20 #
loop $-1 $-1 $296 $208 #
straight-curve $-1 10 0 10 0 1 -0 I I #
coedge $-1 $316 $212 $312 $356 forward $291 $-1 #
loop $-1 $-1 $212 $250 #
vertex $-1 $356 $357 #
straight-curve $-1 -25 -10 25 0 0 -1 I I #
point $-1 -25 -10 20 #
coedge $-1 $358 $216 $219 $298 reversed $288 $-1 #
coedge $-1 $216 $358 $223 $301 reversed $288 $-1 #
coedge $-1 $219 $218 $359 $360 reversed $220 $-1 #
edge $-1 $361 10 $221 25 $219 $115 forward 7 unknown #
point $-1 25 -25 10 #
coedge $-1 $362 $223 $363 $364 forward $225 $-1 #
edge $-1 $226 -25 $365 -10 $223 $366 forward 7 unknown #
coedge $-1 $224 $362 $367 $368 reversed $225 $-1 #
point $-1 10 -25 10 #
coedge $-1 $367 $369 $228 $305 reversed $370 $-1 #
edge $-1 $306 -1.3694384060045659 $371 -0.2013579207903306578 $228 $202 forward 7 unknown #
vertex $-1 $368 $372 #
coedge $-1 $373 $359 $230 $308 reversed $374 $-1 #
edge $-1 $371 -48.98979485566359671 $309 -25 $230 $375 forward 7 unknown #
vertex $-1 $308 $376 #
straight-curve $-1 25 0 20 0 -1 0 I I #
face $-1 $377 $370 $2 $-1 $345 forward single #
coedge $-1 $236 $235 $290 $356 reversed $209 $-1 #
coedge $-1 $239 $238 $378 $379 forward $154 $-1 #
coedge $-1 $247 $380 $238 $315 forward $324 $-1 #
edge $-1 $381 -20 $249 0 $314 $382 forward 7 unknown #
coedge $-1 $383 $290 $239 $317 reversed $291 $-1 #
edge $-1 $384 -20 $318 -10 $239 $385 forward 7 unknown #
vertex $-1 $317 $386 #
straight-curve $-1 -10 0 10 0 -1 0 I I #
coedge $-1 $245 $383 $323 $387 reversed $291 $-1 #
vertex $-1 $246 $388 #
straight-curve $-1 0 -10 20 -1 0 0 I I #
coedge $-1 $380 $247 $320 $387 forward $324 $-1 #
loop $-1 $-1 $323 $389 #
point $-1 -10 -48.98979485566359671 20 #
face $-1 $344 $374 $2 $-1 $327 forward single #
plane-surface $-1 0 -10 20 0 1 0 0 0 1 forward_v I I I I #
coedge $-1 $252 $257 $251 $329 forward $269 $-1 #
edge $-1 $259 10 $254 25 $328 $390 forward 7 unknown #
straight-curve $-1 -25 10 25 -0 0 1 I I #
point $-1 -25 10 10 #
coedge $-1 $391 $392 $256 $333 reversed $393 $-1 #
edge $-1 $335 10 $339 48.98979485566359671 $256 $394 forward 7 unknown #
coedge $-1 $257 $268 $391 $395 forward $269 $-1 #
vertex $-1 $395 $396 #
straight-curve $-1 -10 10 20 0 0 -1 I I #
point $-1 -10 10 10 #
coedge $-1 $264 $261 $392 $397 forward $265 $-1 #
vertex $-1 $333 $398 #
straight-curve $-1 -10 48.98979485566359671 20 -0 -0 -1 I I #
edge $-1 $399 -20 $266 0 $264 $400 forward 7 unknown #
face $-1 $110 $265 $2 $-1 $345 forward single #
point $-1 -48.98979485566359671 10 20 #
face $-1 $389 $269 $2 $-1 $198 forward single #
cone-surface $-1 0 0 20 0 0 1 50 0 0 1 I I 0 1 50 forward I I I I #
coedge $-1 $347 $277 $279 $350 reversed $348 $-1 #
coedge $-1 $277 $346 $283 $352 reversed $348 $-1 #
loop $-1 $401 $346 $377 #
straight-curve $-1 0 10 0 1 0 0 I I #
edge $-1 $354 -48.98979485566359671 $280 -10 $279 $402 forward 7 unknown #
point $-1 10 10 0 #
edge $-1 $284 0.2013579207903306578 $354 1.3694384060045659 $347 $403 forward 7 unknown #
point $-1 48.98979485566359671 10 0 #
vertex $-1 $352 $404 #
straight-curve $-1 10 48.98979485566359671 20 0 0 1 I I #
edge $-1 $292 -25 $318 -10 $290 $405 forward 7 unknown #
point $-1 -25 -10 10 #
coedge $-1 $296 $295 $406 $407 reversed $288 $-1 #
coedge $-1 $307 $406 $297 $360 forward $374 $-1 #
edge $-1 $361 -15 $309 -5 $359 $408 forward 7 unknown #
vertex $-1 $407 $409 #
coedge $-1 $302 $300 $410 $411 forward $225 $-1 #
coedge $-1 $406 $412 $300 $364 reversed $374 $-1 #
edge $-1 $365 10 $413 20 $300 $414 forward 7 unknown #
vertex $-1 $407 $415 #
straight-curve $-1 10 0 10 0 1 -0 I I #
coedge $-1 $416 $304 $302 $368 forward $370 $-1 #
edge $-1 $306 -0 $417 20 $367 $418 forward 7 unknown #
coedge $-1 $304 $416 $373 $419 forward $370 $-1 #
loop $-1 $-1 $369 $311 #
vertex $-1 $305 $420 #
point $-1 10 -48.98979485566359671 20 #
coedge $-1 $412 $307 $369 $419 reversed $374 $-1 #
loop $-1 $-1 $359 $326 #
straight-curve $-1 0 -10 20 -1 0 0 I I #
point $-1 25 -10 20 #
face $-1 $421 $422 $2 $-1 $423 reversed single #
coedge $-1 $424 $425 $313 $379 reversed $426 $-1 #
edge $-1 $381 -48.98979485566359671 $384 -10 $313 $394 forward 7 unknown #
coedge $-1 $314 $323 $424 $427 forward $324 $-1 #
vertex $-1 $427 $428 #
straight-curve $-1 -10 -48.98979485566359671 20 0 0 1 I I #
coedge $-1 $320 $316 $425 $429 forward $291 $-1 #
vertex $-1 $379 $430 #
straight-curve $-1 -10 -10 20 0 0 1 I I #
point $-1 -10 -10 10 #
edge $-1 $321 -0 $431 20 $323 $432 forward 7 unknown #
point $-1 -48.98979485566359671 -10 20 #
face $-1 $342 $324 $2 $-1 $345 forward single #
straight-curve $-1 0 10 10 -1 0 0 I I #
coedge $-1 $392 $332 $334 $395 reversed $393 $-1 #
coedge $-1 $332 $391 $338 $397 reversed $393 $-1 #
loop $-1 $348 $392 $377 #
straight-curve $-1 -10 0 0 0 1 0 I I #
edge $-1 $399 -48.98979485566359671 $335 -10 $334 $349 forward 7 unknown #
point $-1 -10 10 0 #
edge $-1 $339 1.772154247585227438 $399 2.94023473279946268 $392 $403 forward 7 unknown #
point $-1 -10 48.98979485566359671 0 #
vertex $-1 $397 $433 #
straight-curve $-1 -48.98979485566359671 10 20 0 0 1 I I #
loop $-1 $426 $434 $377 #
straight-curve $-1 10 0 0 0 -1 0 I I #
ellipse-curve $-1 0 0 0 0 0 1 50 0 0 1 I I #
point $-1 10 48.98979485566359671 0 #
straight-curve $-1 0 -10 10 1 0 0 I I #
coedge $-1 $359 $363 $358 $407 forward $374 $-1 #
edge $-1 $365 10 $361 25 $406 $435 forward 7 unknown #
straight-curve $-1 25 -10 25 0 -0 1 I I #
point $-1 25 -10 10 #
coedge $-1 $434 $436 $362 $411 reversed $401 $-1 #
edge $-1 $413 10 $417 48.98979485566359671 $362 $402 forward 7 unknown #
coedge $-1 $363 $373 $434 $437 forward $374 $-1 #
vertex $-1 $437 $438 #
straight-curve $-1 10 -10 20 0 0 -1 I I #
point $-1 10 -10 10 #
coedge $-1 $369 $367 $436 $439 forward $370 $-1 #
vertex $-1 $411 $440 #
straight-curve $-1 10 -48.98979485566359671 20 -0 -0 -1 I I #
edge $-1 $441 -20 $371 0 $369 $442 forward 7 unknown #
point $-1 48.98979485566359671 -10 20 #
face $-1 $443 $444 $2 $-1 $445 reversed single #
loop $-1 $393 $446 $377 #
plane-surface $-1 0 0 0 0 0 -1 -1 0 0 forward_v I I I I #
coedge $-1 $425 $378 $380 $427 reversed $426 $-1 #
coedge $-1 $378 $424 $383 $429 reversed $426 $-1 #
loop $-1 $-1 $425 $377 #
edge $-1 $431 -2.94023473279946268 $381 -1.772154247585227438 $424 $403 forward 7 unknown #
point $-1 -10 -48.98979485566359671 0 #
edge $-1 $384 10 $431 48.98979485566359671 $383 $447 forward 7 unknown #
point $-1 -10 -10 0 #
vertex $-1 $429 $448 #
straight-curve $-1 -48.98979485566359671 -10 20 -0 -0 -1 I I #
point $-1 -48.98979485566359671 10 0 #
coedge $-1 $436 $410 $412 $437 reversed $401 $-1 #
straight-curve $-1 0 -10 10 1 0 0 I I #
coedge $-1 $410 $434 $416 $439 reversed $401 $-1 #
edge $-1 $441 -48.98979485566359671 $413 -10 $412 $447 forward 7 unknown #
point $-1 10 -10 0 #
edge $-1 $417 -1.3694384060045659 $441 -0.2013579207903306578 $436 $403 forward 7 unknown #
point $-1 10 -48.98979485566359671 0 #
vertex $-1 $439 $449 #
straight-curve $-1 48.98979485566359671 -10 20 0 0 1 I I #
face $-1 $450 $451 $2 $-1 $452 reversed single #
loop $-1 $-1 $453 $421 #
plane-surface $-1 0 50 0 0 -1 0 0 0 -1 forward_v I I I I #
coedge $-1 $454 $455 $456 $457 reversed $422 $-1 #
straight-curve $-1 0 -10 0 -1 0 0 I I #
point $-1 -48.98979485566359671 -10 0 #
point $-1 48.98979485566359671 -10 0 #
face $-1 $458 $459 $2 $-1 $460 reversed single #
loop $-1 $-1 $461 $443 #
plane-surface $-1 50 0 0 -1 0 0 0 -0 1 forward_v I I I I #
coedge $-1 $462 $463 $455 $464 forward $444 $-1 #
coedge $-1 $465 $446 $466 $467 reversed $422 $-1 #
coedge $-1 $446 $465 $453 $464 reversed $422 $-1 #
coedge $-1 $468 $469 $446 $457 forward $470 $-1 #
edge $-1 $471 -50 $472 50 $456 $473 forward 7 unknown #
face $-1 $474 $475 $2 $-1 $476 reversed single #
loop $-1 $-1 $466 $450 #
plane-surface $-1 0 -50 0 0 1 -0 -0 0 1 forward_v I I I I #
coedge $-1 $477 $478 $465 $479 forward $451 $-1 #
coedge $-1 $480 $453 $478 $481 forward $444 $-1 #
coedge $-1 $453 $480 $468 $482 reversed $444 $-1 #
edge $-1 $472 -50 $483 50 $453 $484 forward 7 unknown #
coedge $-1 $455 $454 $461 $479 reversed $422 $-1 #
coedge $-1 $485 $486 $454 $467 forward $459 $-1 #
edge $-1 $487 -50 $471 50 $466 $488 forward 7 unknown #
coedge $-1 $489 $456 $463 $482 forward $470 $-1 #
coedge $-1 $456 $489 $485 $490 reversed $470 $-1 #
loop $-1 $-1 $456 $474 #
vertex $-1 $467 $491 #
vertex $-1 $464 $492 #
straight-curve $-1 -50 0 0 -0 1 0 I I #
face $-1 $-1 $470 $2 $-1 $493 reversed single #
loop $-1 $-1 $494 $458 #
plane-surface $-1 0 0 -20 0 0 1 1 0 0 forward_v I I I I #
coedge $-1 $495 $461 $486 $496 forward $451 $-1 #
coedge $-1 $461 $495 $462 $481 reversed $451 $-1 #
edge $-1 $483 -50 $487 50 $461 $497 forward 7 unknown #
coedge $-1 $463 $462 $498 $499 reversed $444 $-1 #
edge $-1 $483 0 $500 20 $478 $501 forward 7 unknown #
edge $-1 $472 0 $502 20 $463 $503 forward 7 unknown #
vertex $-1 $479 $504 #
straight-curve $-1 0 50 0 1 0 0 I I #
coedge $-1 $505 $466 $469 $490 forward $459 $-1 #
coedge $-1 $466 $505 $477 $496 reversed $459 $-1 #
vertex $-1 $467 $506 #
straight-curve $-1 0 -50 0 -1 0 0 I I #
coedge $-1 $469 $468 $507 $508 reversed $470 $-1 #
edge $-1 $471 0 $509 20 $469 $510 forward 7 unknown #
point $-1 -50 -50 0 #
point $-1 -50 50 0 #
plane-surface $-1 -50 0 0 1 0 0 0 0 -1 forward_v I I I I #
coedge $-1 $511 $498 $495 $512 forward $475 $-1 #
coedge $-1 $478 $477 $494 $512 reversed $451 $-1 #
edge $-1 $487 0 $513 20 $477 $514 forward 7 unknown #
straight-curve $-1 50 0 0 -0 -1 -0 I I #
coedge $-1 $494 $507 $480 $499 forward $475 $-1 #
edge $-1 $502 -50 $500 50 $480 $515 forward 7 unknown #
vertex $-1 $512 $516 #
straight-curve $-1 50 50 0 0 0 -1 I I #
vertex $-1 $499 $517 #
straight-curve $-1 -50 50 0 0 0 -1 I I #
point $-1 50 50 0 #
coedge $-1 $486 $485 $511 $518 reversed $459 $-1 #
point $-1 50 -50 0 #
coedge $-1 $498 $511 $489 $508 forward $475 $-1 #
edge $-1 $509 -50 $502 50 $489 $519 forward 7 unknown #
vertex $-1 $508 $520 #
straight-curve $-1 -50 -50 0 0 0 -1 I I #
coedge $-1 $507 $494 $505 $518 forward $475 $-1 #
edge $-1 $500 -50 $513 50 $495 $521 forward 7 unknown #
vertex $-1 $496 $522 #
straight-curve $-1 50 -50 0 0 0 -1 I I #
straight-curve $-1 0 50 -20 1 0 0 I I #
point $-1 50 50 -20 #
point $-1 -50 50 -20 #
edge $-1 $513 -50 $509 50 $505 $523 forward 7 unknown #
straight-curve $-1 -50 0 -20 0 1 0 I I #
point $-1 -50 -50 -20 #
straight-curve $-1 50 0 -20 0 -1 0 I I #
point $-1 50 -50 -20 #
straight-curve $-1 0 -50 -20 -1 0 0 I I #
End-of-ACIS-data 