105 524 1 0                             
body $-1 $1 $-1 $-1 #
lump $-1 $-1 $2 $0 #
shell $-1 $-1 $-1 $3 $1 #
face $-1 $4 $5 $2 $-1 $6 forward single #
face $-1 $7 $8 $2 $-1 $9 forward single #
loop $-1 $-1 $10 $3 #
plane-surface $-1 25 0 30 -1 0 0 0 0 1 0 #
face $-1 $11 $12 $2 $-1 $13 forward single #
loop $-1 $-1 $14 $4 #
plane-surface $-1 0 25 30 0 -1 0 0 0 -1 0 #
coedge $-1 $15 $16 $17 $18 1 $5 $-1 #
face $-1 $19 $20 $2 $-1 $13 forward single #
loop $-1 $-1 $21 $7 #
plane-surface $-1 0 -25 30 0 1 0 0 0 1 0 #
coedge $-1 $22 $23 $24 $25 1 $8 $-1 #
coedge $-1 $26 $10 $27 $28 0 $5 $-1 #
coedge $-1 $10 $26 $29 $30 1 $5 $-1 #
coedge $-1 $31 $32 $10 $18 0 $33 $-1 #
edge $-1 $34 $35 $17 $36 0 #
face $-1 $37 $38 $2 $-1 $39 forward single #
loop $-1 $-1 $40 $11 #
coedge $-1 $41 $42 $43 $44 1 $12 $-1 #
coedge $-1 $45 $14 $46 $47 0 $8 $-1 #
coedge $-1 $14 $45 $48 $49 1 $8 $-1 #
coedge $-1 $50 $51 $14 $25 0 $52 $-1 #
edge $-1 $53 $54 $24 $55 0 #
coedge $-1 $16 $15 $56 $57 0 $5 $-1 #
coedge $-1 $58 $59 $15 $28 1 $60 $-1 #
edge $-1 $34 $61 $15 $62 0 #
coedge $-1 $63 $64 $16 $30 0 $65 $-1 #
edge $-1 $35 $66 $29 $67 0 #
coedge $-1 $68 $17 $64 $69 0 $33 $-1 #
coedge $-1 $17 $70 $58 $71 0 $33 $-1 #
loop $-1 $-1 $32 $72 #
vertex $-1 $71 $73 #
vertex $-1 $30 $74 #
straight-curve $-1 25 0 20 0 -1 0 #
face $-1 $75 $76 $2 $-1 $77 forward single #
loop $-1 $-1 $78 $19 #
plane-surface $-1 -25 0 30 1 0 0 0 0 -1 0 #
coedge $-1 $79 $80 $81 $82 1 $20 $-1 #
coedge $-1 $83 $21 $84 $85 1 $12 $-1 #
coedge $-1 $21 $83 $86 $87 1 $12 $-1 #
coedge $-1 $88 $89 $21 $44 0 $90 $-1 #
edge $-1 $91 $92 $43 $93 0 #
coedge $-1 $23 $22 $94 $95 0 $8 $-1 #
coedge $-1 $96 $97 $22 $47 1 $98 $-1 #
edge $-1 $53 $99 $22 $100 0 #
coedge $-1 $101 $102 $23 $49 0 $103 $-1 #
edge $-1 $54 $104 $48 $105 0 #
coedge $-1 $106 $24 $102 $107 0 $52 $-1 #
coedge $-1 $24 $108 $96 $109 0 $52 $-1 #
loop $-1 $-1 $24 $110 #
vertex $-1 $109 $111 #
vertex $-1 $49 $112 #
straight-curve $-1 0 25 20 1 0 -0 #
coedge $-1 $113 $114 $26 $57 1 $76 $-1 #
edge $-1 $61 $66 $26 $115 0 #
coedge $-1 $116 $27 $32 $71 1 $60 $-1 #
coedge $-1 $27 $116 $113 $117 0 $60 $-1 #
loop $-1 $-1 $58 $118 #
vertex $-1 $57 $119 #
straight-curve $-1 25 25 30 0 0 -1 #
coedge $-1 $120 $29 $114 $121 0 $65 $-1 #
coedge $-1 $29 $122 $31 $69 1 $65 $-1 #
loop $-1 $-1 $29 $123 #
vertex $-1 $121 $124 #
straight-curve $-1 25 10 25 -0 -0 -1 #
coedge $-1 $70 $31 $125 $126 0 $33 $-1 #
edge $-1 $35 $127 $31 $128 0 #
coedge $-1 $32 $68 $129 $130 0 $33 $-1 #
edge $-1 $131 $34 $32 $132 0 #
face $-1 $123 $33 $2 $-1 $133 forward single #
point $-1 25 25 20 #
point $-1 25 10 20 #
face $-1 $134 $135 $2 $-1 $77 forward single #
loop $-1 $-1 $136 $37 #
plane-surface $-1 0 0 10 0 0 1 1 0 0 0 #
coedge $-1 $86 $137 $88 $138 1 $38 $-1 #
coedge $-1 $139 $40 $140 $141 0 $20 $-1 #
coedge $-1 $40 $139 $142 $143 1 $20 $-1 #
coedge $-1 $144 $145 $40 $82 0 $146 $-1 #
edge $-1 $147 $148 $81 $149 0 #
coedge $-1 $42 $41 $150 $151 0 $12 $-1 #
coedge $-1 $152 $153 $41 $85 0 $154 $-1 #
edge $-1 $155 $91 $84 $156 0 #
coedge $-1 $157 $78 $42 $87 0 $38 $-1 #
edge $-1 $92 $158 $86 $159 0 #
coedge $-1 $160 $43 $78 $138 0 $90 $-1 #
coedge $-1 $43 $161 $152 $162 0 $90 $-1 #
loop $-1 $-1 $43 $163 #
vertex $-1 $162 $164 #
vertex $-1 $44 $165 #
straight-curve $-1 0 -25 20 -1 0 0 #
coedge $-1 $166 $167 $45 $95 1 $135 $-1 #
edge $-1 $99 $104 $45 $168 0 #
coedge $-1 $169 $46 $51 $109 1 $98 $-1 #
coedge $-1 $46 $169 $166 $170 0 $98 $-1 #
loop $-1 $-1 $96 $171 #
vertex $-1 $95 $172 #
straight-curve $-1 -25 25 30 0 0 -1 #
coedge $-1 $173 $48 $167 $174 0 $103 $-1 #
coedge $-1 $48 $175 $50 $107 1 $103 $-1 #
loop $-1 $-1 $48 $176 #
vertex $-1 $174 $177 #
straight-curve $-1 -10 25 25 0 0 -1 #
coedge $-1 $108 $50 $178 $179 0 $52 $-1 #
edge $-1 $54 $180 $50 $181 0 #
coedge $-1 $51 $106 $182 $183 0 $52 $-1 #
edge $-1 $184 $53 $51 $185 0 #
face $-1 $186 $52 $2 $-1 $133 forward single #
point $-1 -25 25 20 #
point $-1 -10 25 20 #
coedge $-1 $136 $56 $59 $117 1 $76 $-1 #
coedge $-1 $56 $136 $63 $121 1 $76 $-1 #
straight-curve $-1 25 0 10 0 -1 0 #
coedge $-1 $59 $58 $187 $188 1 $60 $-1 #
edge $-1 $189 $61 $59 $168 0 #
face $-1 $190 $60 $2 $-1 $9 forward single #
point $-1 25 25 10 #
coedge $-1 $191 $63 $192 $193 1 $65 $-1 #
edge $-1 $66 $194 $63 $195 0 #
coedge $-1 $64 $191 $196 $197 1 $65 $-1 #
face $-1 $176 $65 $2 $-1 $198 forward single #
point $-1 25 10 10 #
coedge $-1 $196 $199 $68 $126 1 $200 $-1 #
edge $-1 $127 $201 $68 $202 0 #
vertex $-1 $197 $203 #
straight-curve $-1 0 10 20 1 0 -0 #
coedge $-1 $204 $187 $70 $130 1 $205 $-1 #
edge $-1 $201 $131 $70 $206 0 #
vertex $-1 $130 $207 #
straight-curve $-1 0 25 20 1 0 -0 #
plane-surface $-1 0 0 20 0 0 1 1 0 0 0 #
face $-1 $208 $209 $2 $-1 $77 forward single #
loop $-1 $-1 $167 $75 #
coedge $-1 $114 $113 $210 $211 1 $76 $-1 #
coedge $-1 $78 $157 $212 $213 1 $38 $-1 #
edge $-1 $92 $214 $88 $215 0 #
coedge $-1 $80 $79 $216 $217 0 $20 $-1 #
coedge $-1 $218 $219 $79 $141 1 $220 $-1 #
edge $-1 $147 $221 $140 $222 0 #
coedge $-1 $223 $224 $80 $143 0 $225 $-1 #
edge $-1 $148 $226 $142 $227 0 #
coedge $-1 $228 $81 $224 $229 0 $146 $-1 #
coedge $-1 $81 $230 $218 $231 0 $146 $-1 #
loop $-1 $-1 $81 $232 #
vertex $-1 $82 $233 #
vertex $-1 $143 $234 #
straight-curve $-1 0 -25 20 -1 0 0 #
coedge $-1 $235 $236 $83 $151 1 $209 $-1 #
edge $-1 $155 $158 $83 $237 0 #
coedge $-1 $238 $84 $89 $162 1 $154 $-1 #
coedge $-1 $84 $239 $235 $240 0 $154 $-1 #
loop $-1 $-1 $84 $241 #
vertex $-1 $240 $242 #
straight-curve $-1 -10 -25 25 0 0 1 #
coedge $-1 $137 $86 $236 $243 0 $38 $-1 #
vertex $-1 $243 $244 #
straight-curve $-1 -25 -25 30 0 0 -1 #
coedge $-1 $161 $88 $245 $246 0 $90 $-1 #
coedge $-1 $89 $160 $247 $248 0 $90 $-1 #
edge $-1 $249 $91 $89 $181 0 #
face $-1 $250 $90 $2 $-1 $133 forward single #
point $-1 -10 -25 20 #
point $-1 -25 -25 20 #
coedge $-1 $251 $94 $97 $170 1 $135 $-1 #
coedge $-1 $94 $251 $101 $174 1 $135 $-1 #
straight-curve $-1 0 25 10 1 0 0 #
coedge $-1 $97 $96 $252 $253 1 $98 $-1 #
edge $-1 $254 $99 $97 $255 0 #
face $-1 $118 $98 $2 $-1 $39 forward single #
point $-1 -25 25 10 #
coedge $-1 $256 $101 $257 $258 0 $103 $-1 #
edge $-1 $104 $259 $101 $260 0 #
coedge $-1 $102 $256 $261 $262 1 $103 $-1 #
face $-1 $163 $103 $2 $-1 $263 forward single #
point $-1 -10 25 10 #
coedge $-1 $261 $264 $106 $179 1 $265 $-1 #
edge $-1 $180 $266 $106 $202 0 #
vertex $-1 $107 $267 #
straight-curve $-1 -10 0 20 0 1 0 #
coedge $-1 $268 $252 $108 $183 1 $269 $-1 #
edge $-1 $266 $184 $108 $270 0 #
vertex $-1 $183 $271 #
straight-curve $-1 -25 0 20 0 1 0 #
face $-1 $272 $205 $2 $-1 $273 forward single #
coedge $-1 $129 $210 $116 $188 0 $205 $-1 #
edge $-1 $189 $131 $187 $274 0 #
vertex $-1 $211 $275 #
face $-1 $276 $220 $2 $-1 $6 forward single #
coedge $-1 $122 $120 $277 $278 0 $65 $-1 #
coedge $-1 $210 $279 $120 $193 0 $205 $-1 #
edge $-1 $280 $194 $192 $281 0 #
vertex $-1 $193 $282 #
straight-curve $-1 0 10 10 -1 0 0 #
coedge $-1 $283 $125 $122 $197 0 $200 $-1 #
edge $-1 $127 $284 $196 $285 0 #
plane-surface $-1 0 10 20 0 -1 0 0 0 -1 0 #
coedge $-1 $125 $283 $204 $286 0 $200 $-1 #
loop $-1 $-1 $196 $272 #
vertex $-1 $126 $287 #
ellipse-curve $-1 0 0 20 0 0 1 50 0 0 1 #
point $-1 48.9897948556636 10 20 #
coedge $-1 $279 $129 $199 $286 1 $205 $-1 #
loop $-1 $-1 $187 $186 #
straight-curve $-1 10 0 20 0 -1 0 #
point $-1 10 25 20 #
face $-1 $171 $288 $2 $-1 $77 forward single #
loop $-1 $-1 $235 $134 #
coedge $-1 $187 $192 $136 $211 0 $205 $-1 #
edge $-1 $194 $189 $210 $289 0 #
coedge $-1 $290 $245 $137 $213 0 $291 $-1 #
edge $-1 $214 $292 $212 $293 0 #
vertex $-1 $213 $294 #
straight-curve $-1 -25 0 20 0 1 0 #
coedge $-1 $295 $296 $139 $217 1 $288 $-1 #
edge $-1 $221 $226 $139 $237 0 #
coedge $-1 $297 $140 $145 $231 1 $220 $-1 #
coedge $-1 $140 $297 $295 $298 0 $220 $-1 #
loop $-1 $-1 $218 $190 #
vertex $-1 $141 $299 #
straight-curve $-1 25 -25 30 0 0 -1 #
coedge $-1 $300 $142 $296 $301 0 $225 $-1 #
coedge $-1 $142 $302 $144 $229 1 $225 $-1 #
loop $-1 $-1 $142 $276 #
vertex $-1 $301 $303 #
straight-curve $-1 10 -25 25 0 0 -1 #
coedge $-1 $230 $144 $304 $305 0 $146 $-1 #
edge $-1 $148 $306 $144 $206 0 #
coedge $-1 $145 $228 $307 $308 0 $146 $-1 #
edge $-1 $309 $147 $145 $310 0 #
face $-1 $311 $146 $2 $-1 $133 forward single #
point $-1 25 -25 20 #
point $-1 10 -25 20 #
coedge $-1 $312 $150 $153 $240 1 $209 $-1 #
coedge $-1 $150 $312 $157 $243 1 $209 $-1 #
straight-curve $-1 0 -25 10 -1 0 0 #
coedge $-1 $313 $152 $314 $315 1 $154 $-1 #
coedge $-1 $153 $313 $316 $317 0 $154 $-1 #
edge $-1 $318 $155 $153 $319 0 #
face $-1 $232 $154 $2 $-1 $263 forward single #
point $-1 -10 -25 10 #
edge $-1 $158 $292 $157 $255 0 #
point $-1 -25 -25 10 #
coedge $-1 $212 $320 $160 $246 1 $291 $-1 #
edge $-1 $214 $321 $160 $322 0 #
coedge $-1 $323 $314 $161 $248 1 $324 $-1 #
edge $-1 $321 $249 $161 $202 0 #
vertex $-1 $248 $325 #
face $-1 $326 $291 $2 $-1 $327 forward single #
coedge $-1 $167 $166 $328 $329 1 $135 $-1 #
coedge $-1 $182 $328 $169 $253 0 $269 $-1 #
edge $-1 $254 $184 $252 $330 0 #
vertex $-1 $329 $331 #
straight-curve $-1 -25 0 10 0 1 0 #
coedge $-1 $175 $173 $332 $333 0 $103 $-1 #
coedge $-1 $328 $334 $173 $258 1 $269 $-1 #
edge $-1 $259 $335 $173 $336 0 #
vertex $-1 $329 $337 #
straight-curve $-1 -10 0 10 0 -1 0 #
coedge $-1 $338 $178 $175 $262 0 $265 $-1 #
edge $-1 $180 $339 $261 $340 0 #
plane-surface $-1 -10 0 20 1 0 0 0 0 -1 0 #
coedge $-1 $178 $338 $268 $341 0 $265 $-1 #
loop $-1 $-1 $264 $342 #
vertex $-1 $179 $343 #
point $-1 -10 48.9897948556636 20 #
coedge $-1 $334 $182 $264 $341 1 $269 $-1 #
loop $-1 $-1 $252 $344 #
straight-curve $-1 0 10 20 1 0 -0 #
point $-1 -25 10 20 #
face $-1 $241 $200 $2 $-1 $345 forward single #
plane-surface $-1 10 0 20 -1 0 0 0 0 1 0 #
straight-curve $-1 10 25 25 0 0 1 #
point $-1 10 25 10 #
face $-1 $72 $225 $2 $-1 $273 forward single #
coedge $-1 $346 $347 $191 $278 1 $348 $-1 #
edge $-1 $280 $284 $191 $349 0 #
coedge $-1 $192 $204 $346 $350 0 $205 $-1 #
vertex $-1 $350 $351 #
straight-curve $-1 10 10 20 0 0 1 #
point $-1 10 10 10 #
coedge $-1 $199 $196 $347 $352 0 $200 $-1 #
vertex $-1 $278 $353 #
straight-curve $-1 48.9897948556636 10 20 -0 -0 -1 #
edge $-1 $354 $201 $199 $355 0 #
point $-1 10 48.9897948556636 20 #
loop $-1 $-1 $296 $208 #
straight-curve $-1 10 0 10 0 1 -0 #
coedge $-1 $316 $212 $312 $356 0 $291 $-1 #
loop $-1 $-1 $212 $250 #
vertex $-1 $356 $357 #
straight-curve $-1 -25 -10 25 0 0 -1 #
point $-1 -25 -10 20 #
coedge $-1 $358 $216 $219 $298 1 $288 $-1 #
coedge $-1 $216 $358 $223 $301 1 $288 $-1 #
coedge $-1 $219 $218 $359 $360 1 $220 $-1 #
edge $-1 $361 $221 $219 $115 0 #
point $-1 25 -25 10 #
coedge $-1 $362 $223 $363 $364 0 $225 $-1 #
edge $-1 $226 $365 $223 $366 0 #
coedge $-1 $224 $362 $367 $368 1 $225 $-1 #
point $-1 10 -25 10 #
coedge $-1 $367 $369 $228 $305 1 $370 $-1 #
edge $-1 $306 $371 $228 $202 0 #
vertex $-1 $368 $372 #
coedge $-1 $373 $359 $230 $308 1 $374 $-1 #
edge $-1 $371 $309 $230 $375 0 #
vertex $-1 $308 $376 #
straight-curve $-1 25 0 20 0 -1 0 #
face $-1 $377 $370 $2 $-1 $345 forward single #
coedge $-1 $236 $235 $290 $356 1 $209 $-1 #
coedge $-1 $239 $238 $378 $379 0 $154 $-1 #
coedge $-1 $247 $380 $238 $315 0 $324 $-1 #
edge $-1 $381 $249 $314 $382 0 #
coedge $-1 $383 $290 $239 $317 1 $291 $-1 #
edge $-1 $384 $318 $239 $385 0 #
vertex $-1 $317 $386 #
straight-curve $-1 -10 0 10 0 -1 0 #
coedge $-1 $245 $383 $323 $387 1 $291 $-1 #
vertex $-1 $246 $388 #
straight-curve $-1 0 -10 20 -1 0 0 #
coedge $-1 $380 $247 $320 $387 0 $324 $-1 #
loop $-1 $-1 $323 $389 #
point $-1 -10 -48.9897948556636 20 #
face $-1 $344 $374 $2 $-1 $327 forward single #
plane-surface $-1 0 -10 20 0 1 0 0 0 1 0 #
coedge $-1 $252 $257 $251 $329 0 $269 $-1 #
edge $-1 $259 $254 $328 $390 0 #
straight-curve $-1 -25 10 25 -0 0 1 #
point $-1 -25 10 10 #
coedge $-1 $391 $392 $256 $333 1 $393 $-1 #
edge $-1 $335 $339 $256 $394 0 #
coedge $-1 $257 $268 $391 $395 0 $269 $-1 #
vertex $-1 $395 $396 #
straight-curve $-1 -10 10 20 0 0 -1 #
point $-1 -10 10 10 #
coedge $-1 $264 $261 $392 $397 0 $265 $-1 #
vertex $-1 $333 $398 #
straight-curve $-1 -10 48.9897948556636 20 -0 -0 -1 #
edge $-1 $399 $266 $264 $400 0 #
face $-1 $110 $265 $2 $-1 $345 forward single #
point $-1 -48.9897948556636 10 20 #
face $-1 $389 $269 $2 $-1 $198 forward single #
cone-surface $-1 0 0 20 0 0 1 50 0 0 1 0 1 0 #
coedge $-1 $347 $277 $279 $350 1 $348 $-1 #
coedge $-1 $277 $346 $283 $352 1 $348 $-1 #
loop $-1 $401 $346 $377 #
straight-curve $-1 0 10 0 1 0 0 #
edge $-1 $354 $280 $279 $402 0 #
point $-1 10 10 0 #
edge $-1 $284 $354 $347 $403 0 #
point $-1 48.9897948556636 10 0 #
vertex $-1 $352 $404 #
straight-curve $-1 10 48.9897948556636 20 0 0 1 #
edge $-1 $292 $318 $290 $405 0 #
point $-1 -25 -10 10 #
coedge $-1 $296 $295 $406 $407 1 $288 $-1 #
coedge $-1 $307 $406 $297 $360 0 $374 $-1 #
edge $-1 $361 $309 $359 $408 0 #
vertex $-1 $407 $409 #
coedge $-1 $302 $300 $410 $411 0 $225 $-1 #
coedge $-1 $406 $412 $300 $364 1 $374 $-1 #
edge $-1 $365 $413 $300 $414 0 #
vertex $-1 $407 $415 #
straight-curve $-1 10 0 10 0 1 -0 #
coedge $-1 $416 $304 $302 $368 0 $370 $-1 #
edge $-1 $306 $417 $367 $418 0 #
coedge $-1 $304 $416 $373 $419 0 $370 $-1 #
loop $-1 $-1 $369 $311 #
vertex $-1 $305 $420 #
point $-1 10 -48.9897948556636 20 #
coedge $-1 $412 $307 $369 $419 1 $374 $-1 #
loop $-1 $-1 $359 $326 #
straight-curve $-1 0 -10 20 -1 0 0 #
point $-1 25 -10 20 #
face $-1 $421 $422 $2 $-1 $423 reversed single #
coedge $-1 $424 $425 $313 $379 1 $426 $-1 #
edge $-1 $381 $384 $313 $394 0 #
coedge $-1 $314 $323 $424 $427 0 $324 $-1 #
vertex $-1 $427 $428 #
straight-curve $-1 -10 -48.9897948556636 20 0 0 1 #
coedge $-1 $320 $316 $425 $429 0 $291 $-1 #
vertex $-1 $379 $430 #
straight-curve $-1 -10 -10 20 0 0 1 #
point $-1 -10 -10 10 #
edge $-1 $321 $431 $323 $432 0 #
point $-1 -48.9897948556636 -10 20 #
face $-1 $342 $324 $2 $-1 $345 forward single #
straight-curve $-1 0 10 10 -1 0 0 #
coedge $-1 $392 $332 $334 $395 1 $393 $-1 #
coedge $-1 $332 $391 $338 $397 1 $393 $-1 #
loop $-1 $348 $392 $377 #
straight-curve $-1 -10 0 0 0 1 0 #
edge $-1 $399 $335 $334 $349 0 #
point $-1 -10 10 0 #
edge $-1 $339 $399 $392 $403 0 #
point $-1 -10 48.9897948556636 0 #
vertex $-1 $397 $433 #
straight-curve $-1 -48.9897948556636 10 20 0 0 1 #
loop $-1 $426 $434 $377 #
straight-curve $-1 10 0 0 0 -1 0 #
ellipse-curve $-1 0 0 0 0 0 1 50 0 0 1 #
point $-1 10 48.9897948556636 0 #
straight-curve $-1 0 -10 10 1 0 0 #
coedge $-1 $359 $363 $358 $407 0 $374 $-1 #
edge $-1 $365 $361 $406 $435 0 #
straight-curve $-1 25 -10 25 0 -0 1 #
point $-1 25 -10 10 #
coedge $-1 $434 $436 $362 $411 1 $401 $-1 #
edge $-1 $413 $417 $362 $402 0 #
coedge $-1 $363 $373 $434 $437 0 $374 $-1 #
vertex $-1 $437 $438 #
straight-curve $-1 10 -10 20 0 0 -1 #
point $-1 10 -10 10 #
coedge $-1 $369 $367 $436 $439 0 $370 $-1 #
vertex $-1 $411 $440 #
straight-curve $-1 10 -48.9897948556636 20 -0 -0 -1 #
edge $-1 $441 $371 $369 $442 0 #
point $-1 48.9897948556636 -10 20 #
face $-1 $443 $444 $2 $-1 $445 reversed single #
loop $-1 $393 $446 $377 #
plane-surface $-1 0 0 0 0 0 -1 -1 0 0 0 #
coedge $-1 $425 $378 $380 $427 1 $426 $-1 #
coedge $-1 $378 $424 $383 $429 1 $426 $-1 #
loop $-1 $-1 $425 $377 #
edge $-1 $431 $381 $424 $403 0 #
point $-1 -10 -48.9897948556636 0 #
edge $-1 $384 $431 $383 $447 0 #
point $-1 -10 -10 0 #
vertex $-1 $429 $448 #
straight-curve $-1 -48.9897948556636 -10 20 -0 -0 -1 #
point $-1 -48.9897948556636 10 0 #
coedge $-1 $436 $410 $412 $437 1 $401 $-1 #
straight-curve $-1 0 -10 10 1 0 0 #
coedge $-1 $410 $434 $416 $439 1 $401 $-1 #
edge $-1 $441 $413 $412 $447 0 #
point $-1 10 -10 0 #
edge $-1 $417 $441 $436 $403 0 #
point $-1 10 -48.9897948556636 0 #
vertex $-1 $439 $449 #
straight-curve $-1 48.9897948556636 -10 20 0 0 1 #
face $-1 $450 $451 $2 $-1 $452 reversed single #
loop $-1 $-1 $453 $421 #
plane-surface $-1 0 50 0 0 -1 0 0 0 -1 0 #
coedge $-1 $454 $455 $456 $457 1 $422 $-1 #
straight-curve $-1 0 -10 0 -1 0 0 #
point $-1 -48.9897948556636 -10 0 #
point $-1 48.9897948556636 -10 0 #
face $-1 $458 $459 $2 $-1 $460 reversed single #
loop $-1 $-1 $461 $443 #
plane-surface $-1 50 0 0 -1 0 0 0 -0 1 0 #
coedge $-1 $462 $463 $455 $464 0 $444 $-1 #
coedge $-1 $465 $446 $466 $467 1 $422 $-1 #
coedge $-1 $446 $465 $453 $464 1 $422 $-1 #
coedge $-1 $468 $469 $446 $457 0 $470 $-1 #
edge $-1 $471 $472 $456 $473 0 #
face $-1 $474 $475 $2 $-1 $476 reversed single #
loop $-1 $-1 $466 $450 #
plane-surface $-1 0 -50 0 0 1 -0 -0 0 1 0 #
coedge $-1 $477 $478 $465 $479 0 $451 $-1 #
coedge $-1 $480 $453 $478 $481 0 $444 $-1 #
coedge $-1 $453 $480 $468 $482 1 $444 $-1 #
edge $-1 $472 $483 $453 $484 0 #
coedge $-1 $455 $454 $461 $479 1 $422 $-1 #
coedge $-1 $485 $486 $454 $467 0 $459 $-1 #
edge $-1 $487 $471 $466 $488 0 #
coedge $-1 $489 $456 $463 $482 0 $470 $-1 #
coedge $-1 $456 $489 $485 $490 1 $470 $-1 #
loop $-1 $-1 $456 $474 #
vertex $-1 $467 $491 #
vertex $-1 $464 $492 #
straight-curve $-1 -50 0 0 -0 1 0 #
face $-1 $-1 $470 $2 $-1 $493 reversed single #
loop $-1 $-1 $494 $458 #
plane-surface $-1 0 0 -20 0 0 1 1 0 0 0 #
coedge $-1 $495 $461 $486 $496 0 $451 $-1 #
coedge $-1 $461 $495 $462 $481 1 $451 $-1 #
edge $-1 $483 $487 $461 $497 0 #
coedge $-1 $463 $462 $498 $499 1 $444 $-1 #
edge $-1 $483 $500 $478 $501 0 #
edge $-1 $472 $502 $463 $503 0 #
vertex $-1 $479 $504 #
straight-curve $-1 0 50 0 1 0 0 #
coedge $-1 $505 $466 $469 $490 0 $459 $-1 #
coedge $-1 $466 $505 $477 $496 1 $459 $-1 #
vertex $-1 $467 $506 #
straight-curve $-1 0 -50 0 -1 0 0 #
coedge $-1 $469 $468 $507 $508 1 $470 $-1 #
edge $-1 $471 $509 $469 $510 0 #
point $-1 -50 -50 0 #
point $-1 -50 50 0 #
plane-surface $-1 -50 0 0 1 0 0 0 0 -1 0 #
coedge $-1 $511 $498 $495 $512 0 $475 $-1 #
coedge $-1 $478 $477 $494 $512 1 $451 $-1 #
edge $-1 $487 $513 $477 $514 0 #
straight-curve $-1 50 0 0 -0 -1 -0 #
coedge $-1 $494 $507 $480 $499 0 $475 $-1 #
edge $-1 $502 $500 $480 $515 0 #
vertex $-1 $512 $516 #
straight-curve $-1 50 50 0 0 0 -1 #
vertex $-1 $499 $517 #
straight-curve $-1 -50 50 0 0 0 -1 #
point $-1 50 50 0 #
coedge $-1 $486 $485 $511 $518 1 $459 $-1 #
point $-1 50 -50 0 #
coedge $-1 $498 $511 $489 $508 0 $475 $-1 #
edge $-1 $509 $502 $489 $519 0 #
vertex $-1 $508 $520 #
straight-curve $-1 -50 -50 0 0 0 -1 #
coedge $-1 $507 $494 $505 $518 0 $475 $-1 #
edge $-1 $500 $513 $495 $521 0 #
vertex $-1 $496 $522 #
straight-curve $-1 50 -50 0 0 0 -1 #
straight-curve $-1 0 50 -20 1 0 0 #
point $-1 50 50 -20 #
point $-1 -50 50 -20 #
edge $-1 $513 $509 $505 $523 0 #
straight-curve $-1 -50 0 -20 0 1 0 #
point $-1 -50 -50 -20 #
straight-curve $-1 50 0 -20 0 -1 0 #
point $-1 50 -50 -20 #
straight-curve $-1 0 -50 -20 -1 0 0 #
