106 0 1 0           
body $-1 $1 $-1 $2 #
lump $-1 $-1 $3 $0 #
transform $-1 1 0 0 0 1 0 0 0 1 0 0 0 1 0 0 0 #
shell $-1 $-1 $-1 $4 $1 #
face $-1 $5 $6 $3 $-1 $7 forward single #
face $-1 $8 $9 $3 $-1 $10 reversed single #
loop $-1 $11 $12 $4 #
plane-surface $-1 0 0 1.891499999999999959 0 0 1 1 0 0 0 I I I I #
face $-1 $13 $14 $3 $-1 $15 forward single #
loop $-1 $16 $17 $5 #
plane-surface $-1 0 0 -1.891710000000000003 0 0 1 1 0 0 0 I I I I #
loop $-1 $-1 $18 $4 #
coedge $-1 $12 $12 $19 $20 0 $6 $-1 #
face $-1 $21 $22 $3 $-1 $23 forward single #
loop $-1 $24 $25 $8 #
cone-surface $-1 0 0 1.891499999999999959 0 0 1 1.995000000000000107 0 0 1 I I 0.9833117837176600373 0.1819283815186449882 0 I I I I #
loop $-1 $-1 $26 $5 #
coedge $-1 $17 $17 $27 $28 0 $9 $-1 #
coedge $-1 $18 $18 $29 $30 1 $11 $-1 #
coedge $-1 $19 $19 $12 $20 1 $24 $-1 #
edge $-1 $31 $31 $19 $32 0 #
face $-1 $33 $34 $3 $-1 $35 forward single #
loop $-1 $36 $37 $13 #
cone-surface $-1 0 0 1.650769241589010061 0 0 -1 1.995000000000000107 0 0 1 I I 0.9832549075639549496 0.1822355254921469991 0 I I I I #
loop $-1 $-1 $19 $8 #
coedge $-1 $25 $25 $38 $39 0 $14 $-1 #
coedge $-1 $26 $26 $40 $41 0 $16 $-1 #
coedge $-1 $27 $27 $17 $28 1 $42 $-1 #
edge $-1 $43 $43 $17 $44 0 #
coedge $-1 $29 $29 $18 $30 0 $45 $-1 #
edge $-1 $46 $46 $29 $47 0 #
vertex $-1 $20 $48 #
ellipse-curve $-1 0 0 1.891499999999999959 0 0 1 1.995000000000000107 0 0 1 I I #
face $-1 $49 $50 $3 $-1 $51 forward single #
loop $-1 $52 $53 $21 #
cone-surface $-1 0 0 1.650769241589010061 0 0 1 1.995000000000000107 0 0 1 I I 0.9916254950055759521 0.129146729168594987 0 I I I I #
loop $-1 $-1 $38 $13 #
coedge $-1 $37 $37 $54 $55 0 $22 $-1 #
coedge $-1 $38 $38 $25 $39 1 $36 $-1 #
edge $-1 $56 $56 $38 $57 0 #
coedge $-1 $40 $40 $26 $41 1 $58 $-1 #
edge $-1 $59 $59 $40 $60 0 #
loop $-1 $61 $27 $62 #
vertex $-1 $28 $63 #
ellipse-curve $-1 0 0 -1.891710000000000003 0 0 -1 1.995000000000000107 0 0 1 I I #
loop $-1 $-1 $29 $64 #
vertex $-1 $30 $65 #
ellipse-curve $-1 0 0 1.891499999999999959 0 0 1 -1.34000000000000008 0 0 1 I I #
point $-1 1.995000000000000107 0 1.891499999999999959 #
face $-1 $66 $67 $3 $-1 $68 forward single #
loop $-1 $69 $70 $33 #
cone-surface $-1 0 0 1.445644550465970068 0 0 -1 1.995000000000000107 0 0 1 I I 0.9832549075639549496 0.1822355254921469991 0 I I I I #
loop $-1 $-1 $54 $21 #
coedge $-1 $53 $53 $71 $72 0 $34 $-1 #
coedge $-1 $54 $54 $37 $55 1 $52 $-1 #
edge $-1 $73 $73 $54 $74 0 #
vertex $-1 $39 $75 #
ellipse-curve $-1 0 0 1.771239620794500036 0 0 1 1.344999999999999973 0 0 1 I I #
loop $-1 $45 $40 $64 #
vertex $-1 $41 $76 #
ellipse-curve $-1 0 0 -1.891710000000000003 0 0 1 1.34000000000000008 0 0 1 I I #
loop $-1 $-1 $77 $62 #
face $-1 $64 $42 $3 $-1 $78 forward single #
point $-1 -1.995000000000000107 0 -1.891710000000000003 #
face $-1 $-1 $58 $3 $-1 $79 reversed single #
point $-1 -1.34000000000000008 0 1.891499999999999959 #
face $-1 $80 $81 $3 $-1 $82 forward single #
loop $-1 $83 $84 $49 #
cone-surface $-1 0 0 1.445644550465970068 0 0 1 1.995000000000000107 0 0 1 I I 0.9832549075639549496 0.1822355254921469991 0 I I I I #
loop $-1 $-1 $71 $33 #
coedge $-1 $70 $70 $85 $86 0 $50 $-1 #
coedge $-1 $71 $71 $53 $72 1 $69 $-1 #
edge $-1 $87 $87 $71 $88 0 #
vertex $-1 $55 $89 #
ellipse-curve $-1 0 0 1.650769241589010061 0 0 1 1.995000000000000107 0 0 1 I I #
point $-1 -1.344999999999999973 0 1.771239620794500036 #
point $-1 -1.34000000000000008 0 -1.891710000000000003 #
coedge $-1 $77 $77 $90 $91 1 $61 $-1 #
cone-surface $-1 0 0 -1.891710000000000003 0 0 -1 1.995000000000000107 0 0 1 I I 0.9832549075639549496 0.1822355254921469991 0 I I I I #
cone-surface $-1 0 0 1.891499999999999959 0 0 -1 -1.34000000000000008 0 0 1 I I 0 1 0 I I I I #
face $-1 $92 $93 $3 $-1 $94 forward single #
loop $-1 $95 $96 $66 #
cone-surface $-1 0 0 1.204703792054969913 0 0 -1 1.995000000000000107 0 0 1 I I 0.9832549075639549496 0.1822355254921469991 0 I I I I #
loop $-1 $-1 $85 $49 #
coedge $-1 $84 $84 $97 $98 0 $67 $-1 #
coedge $-1 $85 $85 $70 $86 1 $83 $-1 #
edge $-1 $99 $99 $85 $100 0 #
vertex $-1 $72 $101 #
ellipse-curve $-1 0 0 1.566114929671470035 0 0 1 1.344999999999999973 0 0 1 I I #
point $-1 -1.995000000000000107 0 1.650769241589010061 #
coedge $-1 $90 $90 $77 $91 0 $102 $-1 #
edge $-1 $103 $103 $77 $104 0 #
face $-1 $105 $106 $3 $-1 $107 forward single #
loop $-1 $108 $109 $80 #
cone-surface $-1 0 0 1.204703792054969913 0 0 1 1.995000000000000107 0 0 1 I I 0.9832549075639549496 0.1822355254921469991 0 I I I I #
loop $-1 $-1 $97 $66 #
coedge $-1 $96 $96 $110 $111 0 $81 $-1 #
coedge $-1 $97 $97 $84 $98 1 $95 $-1 #
edge $-1 $112 $112 $97 $113 0 #
vertex $-1 $86 $114 #
ellipse-curve $-1 0 0 1.445644550465970068 0 0 1 1.995000000000000107 0 0 1 I I #
point $-1 -1.344999999999999973 0 1.566114929671470035 #
loop $-1 $115 $90 $116 #
vertex $-1 $91 $117 #
ellipse-curve $-1 0 0 -1.771239620794500036 0 0 1 1.344999999999999973 0 0 1 I I #
face $-1 $118 $119 $3 $-1 $120 forward single #
loop $-1 $121 $122 $92 #
cone-surface $-1 0 0 0.9637630336439789724 0 0 -1 1.995000000000000107 0 0 1 I I 0.9832549075639549496 0.1822355254921469991 0 I I I I #
loop $-1 $-1 $110 $80 #
coedge $-1 $109 $109 $123 $124 0 $93 $-1 #
coedge $-1 $110 $110 $96 $111 1 $108 $-1 #
edge $-1 $125 $125 $110 $126 0 #
vertex $-1 $98 $127 #
ellipse-curve $-1 0 0 1.325174171260470102 0 0 1 1.344999999999999973 0 0 1 I I #
point $-1 -1.995000000000000107 0 1.445644550465970068 #
loop $-1 $-1 $128 $116 #
face $-1 $62 $102 $3 $-1 $129 forward single #
point $-1 -1.344999999999999973 0 -1.771239620794500036 #
face $-1 $130 $131 $3 $-1 $132 forward single #
loop $-1 $133 $134 $105 #
cone-surface $-1 0 0 0.9637630336439789724 0 0 1 1.995000000000000107 0 0 1 I I 0.9832549075639549496 0.1822355254921469991 0 I I I I #
loop $-1 $-1 $123 $92 #
coedge $-1 $122 $122 $135 $136 0 $106 $-1 #
coedge $-1 $123 $123 $109 $124 1 $121 $-1 #
edge $-1 $137 $137 $123 $138 0 #
vertex $-1 $111 $139 #
ellipse-curve $-1 0 0 1.204703792054969913 0 0 1 1.995000000000000107 0 0 1 I I #
point $-1 -1.344999999999999973 0 1.325174171260470102 #
coedge $-1 $128 $128 $140 $141 1 $115 $-1 #
cone-surface $-1 0 0 -1.650769241589010061 0 0 1 1.995000000000000107 0 0 1 I I 0.9832549075639549496 0.1822355254921469991 0 I I I I #
face $-1 $142 $143 $3 $-1 $144 forward single #
loop $-1 $145 $146 $118 #
cone-surface $-1 0 0 0.7228222752329850342 0 0 -1 1.995000000000000107 0 0 1 I I 0.9832549075639549496 0.1822355254921469991 0 I I I I #
loop $-1 $-1 $135 $105 #
coedge $-1 $134 $134 $147 $148 0 $119 $-1 #
coedge $-1 $135 $135 $122 $136 1 $133 $-1 #
edge $-1 $149 $149 $135 $150 0 #
vertex $-1 $124 $151 #
ellipse-curve $-1 0 0 1.084233412849479938 0 0 1 1.344999999999999973 0 0 1 I I #
point $-1 -1.995000000000000107 0 1.204703792054969913 #
coedge $-1 $140 $140 $128 $141 0 $152 $-1 #
edge $-1 $153 $153 $128 $154 0 #
face $-1 $155 $156 $3 $-1 $157 forward single #
loop $-1 $158 $159 $130 #
cone-surface $-1 0 0 0.7228222752329850342 0 0 1 1.995000000000000107 0 0 1 I I 0.9832549075639539504 0.1822355254921479983 0 I I I I #
loop $-1 $-1 $147 $118 #
coedge $-1 $146 $146 $160 $161 0 $131 $-1 #
coedge $-1 $147 $147 $134 $148 1 $145 $-1 #
edge $-1 $162 $162 $147 $163 0 #
vertex $-1 $136 $164 #
ellipse-curve $-1 0 0 0.9637630336439789724 0 0 1 1.995000000000000107 0 0 1 I I #
point $-1 -1.344999999999999973 0 1.084233412849479938 #
loop $-1 $165 $140 $166 #
vertex $-1 $141 $167 #
ellipse-curve $-1 0 0 -1.650769241589010061 0 0 1 1.995000000000000107 0 0 1 I I #
face $-1 $168 $169 $3 $-1 $170 forward single #
loop $-1 $171 $172 $142 #
cone-surface $-1 0 0 0.4818815168219889866 0 0 -1 1.995000000000000107 0 0 1 I I 0.9832549075639549496 0.1822355254921469991 0 I I I I #
loop $-1 $-1 $160 $130 #
coedge $-1 $159 $159 $173 $174 0 $143 $-1 #
coedge $-1 $160 $160 $146 $161 1 $158 $-1 #
edge $-1 $175 $175 $160 $176 0 #
vertex $-1 $148 $177 #
ellipse-curve $-1 0 0 0.8432926544384820033 0 0 1 1.344999999999999973 0 0 1 I I #
point $-1 -1.995000000000000107 0 0.9637630336439789724 #
loop $-1 $-1 $178 $166 #
face $-1 $116 $152 $3 $-1 $179 forward single #
point $-1 -1.995000000000000107 0 -1.650769241589010061 #
face $-1 $180 $181 $3 $-1 $182 forward single #
loop $-1 $183 $184 $155 #
cone-surface $-1 0 0 0.4818815168219889866 0 0 1 1.995000000000000107 0 0 1 I I 0.9832549075639549496 0.1822355254921469991 0 I I I I #
loop $-1 $-1 $173 $142 #
coedge $-1 $172 $172 $185 $186 0 $156 $-1 #
coedge $-1 $173 $173 $159 $174 1 $171 $-1 #
edge $-1 $187 $187 $173 $188 0 #
vertex $-1 $161 $189 #
ellipse-curve $-1 0 0 0.7228222752329850342 0 0 1 1.995000000000000107 0 0 1 I I #
point $-1 -1.344999999999999973 0 0.8432926544384820033 #
coedge $-1 $178 $178 $190 $191 1 $165 $-1 #
cone-surface $-1 0 0 -1.650769241589010061 0 0 -1 1.995000000000000107 0 0 1 I I 0.9832549075639549496 0.1822355254921469991 0 I I I I #
face $-1 $192 $193 $3 $-1 $194 forward single #
loop $-1 $195 $196 $168 #
cone-surface $-1 0 0 0.2409407584109939937 0 0 -1 1.995000000000000107 0 0 1 I I 0.9832549075639539504 0.1822355254921479983 0 I I I I #
loop $-1 $-1 $185 $155 #
coedge $-1 $184 $184 $197 $198 0 $169 $-1 #
coedge $-1 $185 $185 $172 $186 1 $183 $-1 #
edge $-1 $199 $199 $185 $200 0 #
vertex $-1 $174 $201 #
ellipse-curve $-1 0 0 0.6023518960274869549 0 0 1 1.344999999999999973 0 0 1 I I #
point $-1 -1.995000000000000107 0 0.7228222752329850342 #
coedge $-1 $190 $190 $178 $191 0 $202 $-1 #
edge $-1 $203 $203 $178 $204 0 #
face $-1 $205 $206 $3 $-1 $207 forward single #
loop $-1 $208 $209 $180 #
cone-surface $-1 0 0 0.2409407584109939937 0 0 1 1.995000000000000107 0 0 1 I I 0.9832549075639549496 0.1822355254921469991 0 I I I I #
loop $-1 $-1 $197 $168 #
coedge $-1 $196 $196 $210 $211 0 $181 $-1 #
coedge $-1 $197 $197 $184 $198 1 $195 $-1 #
edge $-1 $212 $212 $197 $213 0 #
vertex $-1 $186 $214 #
ellipse-curve $-1 0 0 0.4818815168219889866 0 0 1 1.995000000000000107 0 0 1 I I #
point $-1 -1.344999999999999973 0 0.6023518960274869549 #
loop $-1 $215 $190 $216 #
vertex $-1 $191 $217 #
ellipse-curve $-1 0 0 -1.530298862383510095 0 0 1 1.344999999999999973 0 0 1 I I #
face $-1 $218 $219 $3 $-1 $220 forward single #
loop $-1 $221 $222 $192 #
cone-surface $-1 0 0 0 0 0 -1 1.995000000000000107 0 0 1 I I 0.9832549075639549496 0.1822355254921469991 0 I I I I #
loop $-1 $-1 $210 $180 #
coedge $-1 $209 $209 $223 $224 0 $193 $-1 #
coedge $-1 $210 $210 $196 $211 1 $208 $-1 #
edge $-1 $225 $225 $210 $226 0 #
vertex $-1 $198 $227 #
ellipse-curve $-1 0 0 0.3614111376164930167 0 0 1 1.344999999999999973 0 0 1 I I #
point $-1 -1.995000000000000107 0 0.4818815168219889866 #
loop $-1 $-1 $228 $216 #
face $-1 $166 $202 $3 $-1 $229 forward single #
point $-1 -1.344999999999999973 0 -1.530298862383510095 #
face $-1 $230 $231 $3 $-1 $232 forward single #
loop $-1 $233 $234 $205 #
cone-surface $-1 0 0 0 0 0 1 1.995000000000000107 0 0 1 I I 0.9916254950055759521 0.129146729168594987 0 I I I I #
loop $-1 $-1 $223 $192 #
coedge $-1 $222 $222 $235 $236 0 $206 $-1 #
coedge $-1 $223 $223 $209 $224 1 $221 $-1 #
edge $-1 $237 $237 $223 $238 0 #
vertex $-1 $211 $239 #
ellipse-curve $-1 0 0 0.2409407584109939937 0 0 1 1.995000000000000107 0 0 1 I I #
point $-1 -1.344999999999999973 0 0.3614111376164930167 #
coedge $-1 $228 $228 $240 $241 1 $215 $-1 #
cone-surface $-1 0 0 -1.409828483178009906 0 0 1 1.995000000000000107 0 0 1 I I 0.9832549075639549496 0.1822355254921469991 0 I I I I #
face $-1 $242 $243 $3 $-1 $244 forward single #
loop $-1 $245 $246 $218 #
cone-surface $-1 0 0 -0.2051246911230369951 0 0 -1 1.995000000000000107 0 0 1 I I 0.9832549075639549496 0.1822355254921469991 0 I I I I #
loop $-1 $-1 $235 $205 #
coedge $-1 $234 $234 $247 $248 0 $219 $-1 #
coedge $-1 $235 $235 $222 $236 1 $233 $-1 #
edge $-1 $249 $249 $235 $250 0 #
vertex $-1 $224 $251 #
ellipse-curve $-1 0 0 0.1204703792054979961 0 0 1 1.344999999999999973 0 0 1 I I #
point $-1 -1.995000000000000107 0 0.2409407584109939937 #
coedge $-1 $240 $240 $228 $241 0 $252 $-1 #
edge $-1 $253 $253 $228 $254 0 #
face $-1 $255 $256 $3 $-1 $257 forward single #
loop $-1 $258 $259 $230 #
cone-surface $-1 0 0 -0.2051246911230369951 0 0 1 1.995000000000000107 0 0 1 I I 0.9832549075639549496 0.1822355254921469991 0 I I I I #
loop $-1 $-1 $247 $218 #
coedge $-1 $246 $246 $260 $261 0 $231 $-1 #
coedge $-1 $247 $247 $234 $248 1 $245 $-1 #
edge $-1 $262 $262 $247 $263 0 #
vertex $-1 $236 $264 #
ellipse-curve $-1 0 0 0 0 0 1 1.995000000000000107 0 0 1 I I #
point $-1 -1.344999999999999973 0 0.1204703792054979961 #
loop $-1 $265 $240 $266 #
vertex $-1 $241 $267 #
ellipse-curve $-1 0 0 -1.409828483178009906 0 0 1 1.995000000000000107 0 0 1 I I #
face $-1 $268 $269 $3 $-1 $270 forward single #
loop $-1 $271 $272 $242 #
cone-surface $-1 0 0 -0.4460654495340319881 0 0 -1 1.995000000000000107 0 0 1 I I 0.9832549075639549496 0.1822355254921469991 0 I I I I #
loop $-1 $-1 $260 $230 #
coedge $-1 $259 $259 $273 $274 0 $243 $-1 #
coedge $-1 $260 $260 $246 $261 1 $258 $-1 #
edge $-1 $275 $275 $260 $276 0 #
vertex $-1 $248 $277 #
ellipse-curve $-1 0 0 -0.08465431191753899909 0 0 1 1.344999999999999973 0 0 1 I I #
point $-1 -1.995000000000000107 0 0 #
loop $-1 $-1 $278 $266 #
face $-1 $216 $252 $3 $-1 $279 forward single #
point $-1 -1.995000000000000107 0 -1.409828483178009906 #
face $-1 $280 $281 $3 $-1 $282 forward single #
loop $-1 $283 $284 $255 #
cone-surface $-1 0 0 -0.4460654495340319881 0 0 1 1.995000000000000107 0 0 1 I I 0.9832549075639549496 0.1822355254921469991 0 I I I I #
loop $-1 $-1 $273 $242 #
coedge $-1 $272 $272 $285 $286 0 $256 $-1 #
coedge $-1 $273 $273 $259 $274 1 $271 $-1 #
edge $-1 $287 $287 $273 $288 0 #
vertex $-1 $261 $289 #
ellipse-curve $-1 0 0 -0.2051246911230369951 0 0 1 1.995000000000000107 0 0 1 I I #
point $-1 -1.344999999999999973 0 -0.08465431191753899909 #
coedge $-1 $278 $278 $290 $291 1 $265 $-1 #
cone-surface $-1 0 0 -1.409828483178009906 0 0 -1 1.995000000000000107 0 0 1 I I 0.9832549075639549496 0.1822355254921469991 0 I I I I #
face $-1 $292 $293 $3 $-1 $294 forward single #
loop $-1 $295 $296 $268 #
cone-surface $-1 0 0 -0.687006207945026981 0 0 -1 1.995000000000000107 0 0 1 I I 0.9832549075639549496 0.1822355254921469991 0 I I I I #
loop $-1 $-1 $285 $255 #
coedge $-1 $284 $284 $297 $298 0 $269 $-1 #
coedge $-1 $285 $285 $272 $286 1 $283 $-1 #
edge $-1 $299 $299 $285 $300 0 #
vertex $-1 $274 $301 #
ellipse-curve $-1 0 0 -0.325595070328535019 0 0 1 1.344999999999999973 0 0 1 I I #
point $-1 -1.995000000000000107 0 -0.2051246911230369951 #
coedge $-1 $290 $290 $278 $291 0 $302 $-1 #
edge $-1 $303 $303 $278 $304 0 #
face $-1 $305 $306 $3 $-1 $307 forward single #
loop $-1 $308 $309 $280 #
cone-surface $-1 0 0 -0.687006207945026981 0 0 1 1.995000000000000107 0 0 1 I I 0.9832549075639549496 0.1822355254921469991 0 I I I I #
loop $-1 $-1 $297 $268 #
coedge $-1 $296 $296 $310 $311 0 $281 $-1 #
coedge $-1 $297 $297 $284 $298 1 $295 $-1 #
edge $-1 $312 $312 $297 $313 0 #
vertex $-1 $286 $314 #
ellipse-curve $-1 0 0 -0.4460654495340319881 0 0 1 1.995000000000000107 0 0 1 I I #
point $-1 -1.344999999999999973 0 -0.325595070328535019 #
loop $-1 $315 $290 $316 #
vertex $-1 $291 $317 #
ellipse-curve $-1 0 0 -1.289358103972509939 0 0 1 1.344999999999999973 0 0 1 I I #
face $-1 $318 $319 $3 $-1 $320 forward single #
loop $-1 $321 $322 $292 #
cone-surface $-1 0 0 -0.9279469663560220294 0 0 -1 1.995000000000000107 0 0 1 I I 0.9832549075639549496 0.1822355254921469991 0 I I I I #
loop $-1 $-1 $310 $280 #
coedge $-1 $309 $309 $323 $324 0 $293 $-1 #
coedge $-1 $310 $310 $296 $311 1 $308 $-1 #
edge $-1 $325 $325 $310 $326 0 #
vertex $-1 $298 $327 #
ellipse-curve $-1 0 0 -0.5665358287395290127 0 0 1 1.344999999999999973 0 0 1 I I #
point $-1 -1.995000000000000107 0 -0.4460654495340319881 #
loop $-1 $-1 $328 $316 #
face $-1 $266 $302 $3 $-1 $329 forward single #
point $-1 -1.344999999999999973 0 -1.289358103972509939 #
face $-1 $316 $330 $3 $-1 $331 forward single #
loop $-1 $332 $333 $305 #
cone-surface $-1 0 0 -0.9279469663560220294 0 0 1 1.995000000000000107 0 0 1 I I 0.9832549075639549496 0.1822355254921469991 0 I I I I #
loop $-1 $-1 $323 $292 #
coedge $-1 $322 $322 $334 $335 0 $306 $-1 #
coedge $-1 $323 $323 $309 $324 1 $321 $-1 #
edge $-1 $336 $336 $323 $337 0 #
vertex $-1 $311 $338 #
ellipse-curve $-1 0 0 -0.687006207945026981 0 0 1 1.995000000000000107 0 0 1 I I #
point $-1 -1.344999999999999973 0 -0.5665358287395290127 #
coedge $-1 $328 $328 $339 $340 1 $315 $-1 #
cone-surface $-1 0 0 -1.168887724767019964 0 0 1 1.995000000000000107 0 0 1 I I 0.9832549075639549496 0.1822355254921469991 0 I I I I #
loop $-1 $341 $339 $318 #
cone-surface $-1 0 0 -1.168887724767019964 0 0 -1 1.995000000000000107 0 0 1 I I 0.9832549075639549496 0.1822355254921469991 0 I I I I #
loop $-1 $-1 $334 $305 #
coedge $-1 $333 $333 $342 $343 0 $319 $-1 #
coedge $-1 $334 $334 $322 $335 1 $332 $-1 #
edge $-1 $344 $344 $334 $345 0 #
vertex $-1 $324 $346 #
ellipse-curve $-1 0 0 -0.8074765871505249493 0 0 1 1.344999999999999973 0 0 1 I I #
point $-1 -1.995000000000000107 0 -0.687006207945026981 #
coedge $-1 $339 $339 $328 $340 0 $330 $-1 #
edge $-1 $347 $347 $328 $348 0 #
loop $-1 $-1 $342 $318 #
coedge $-1 $342 $342 $333 $343 1 $341 $-1 #
edge $-1 $349 $349 $342 $350 0 #
vertex $-1 $335 $351 #
ellipse-curve $-1 0 0 -0.9279469663560220294 0 0 1 1.995000000000000107 0 0 1 I I #
point $-1 -1.344999999999999973 0 -0.8074765871505249493 #
vertex $-1 $340 $352 #
ellipse-curve $-1 0 0 -1.168887724767019964 0 0 1 1.995000000000000107 0 0 1 I I #
vertex $-1 $343 $353 #
ellipse-curve $-1 0 0 -1.048417345561519998 0 0 1 1.344999999999999973 0 0 1 I I #
point $-1 -1.995000000000000107 0 -0.9279469663560220294 #
point $-1 -1.995000000000000107 0 -1.168887724767019964 #
point $-1 -1.344999999999999973 0 -1.048417345561519998 #
End-of-ACIS-data 