700 0 2 0           
24 FBMach with ACIS - 7.0.3 13 ACIS 7.0.3 NT 24 Tue May 14 14:31:05 2002 
1 9.9999999999999995e-007 1e-010 
body $2 -1 $-1 $3 $-1 $4 #
bdycol-kcp $-1 -1 1 2 $5 $6 #
model_id-kcp-attrib $-1 -1 $-1 $-1 $0 1 1021401065 1021401065 1083834369 1 #
lump $-1 -1 $-1 $-1 $7 $0 #
transform $-1 -1 1 0 0 0 1 0 0 0 1 0 0 0 1 rotate no_reflect no_shear #
body $8 -1 $-1 $9 $-1 $10 #
body $11 -1 $-1 $12 $-1 $13 #
shell $-1 -1 $-1 $-1 $-1 $14 $-1 $3 #
model_id-kcp-attrib $-1 -1 $-1 $-1 $5 1 1021401065 1021401065 1083834370 1 #
lump $-1 -1 $-1 $-1 $15 $5 #
transform $-1 -1 1 0 0 0 1 0 0 0 1 0 0 -0.00010500000000002174 1 no_rotate no_reflect no_shear #
rgb_color-st-attrib $-1 -1 $16 $-1 $6 0.5 1 1 #
lump $-1 -1 $-1 $-1 $17 $6 #
transform $-1 -1 -1 0 -1.2246063538223773e-016 0 1 0 1.2246063538223773e-016 0 -1 2.3164715019221779e-016 0 -0.00010500000000002174 1 rotate no_reflect no_shear #
face $18 -1 $-1 $19 $20 $7 $-1 $21 forward single #
shell $-1 -1 $-1 $-1 $-1 $22 $-1 $9 #
model_id-kcp-attrib $-1 -1 $-1 $11 $6 1 1021401065 1021401065 1087111171 1 #
shell $-1 -1 $-1 $-1 $-1 $23 $-1 $12 #
model_id-kcp-attrib $-1 -1 $-1 $-1 $14 1 1021401065 1021401065 1083834369 2 #
face $24 -1 $-1 $25 $26 $7 $-1 $27 reversed single #
loop $-1 -1 $-1 $28 $29 $14 #
plane-surface $-1 -1 $-1 0 0 1.8915 0 0 1 1 0 0 forward_v I I I I #
face $30 -1 $-1 $31 $32 $15 $-1 $33 forward single #
face $-1 -1 $-1 $34 $35 $17 $-1 $36 forward single #
model_id-kcp-attrib $-1 -1 $-1 $-1 $19 1 1021401065 1021401065 1083834369 3 #
face $37 -1 $-1 $38 $39 $7 $-1 $40 forward single #
loop $-1 -1 $-1 $41 $42 $19 #
plane-surface $-1 -1 $-1 0 0 -1.89171 0 0 1 1 0 0 forward_v I I I I #
loop $43 -1 $-1 $-1 $44 $14 #
coedge $-1 -1 $-1 $29 $29 $45 $46 forward $20 $-1 #
model_id-kcp-attrib $-1 -1 $-1 $-1 $22 1 1021401065 1021401065 1083834370 2 #
face $47 -1 $-1 $48 $49 $15 $-1 $50 reversed single #
loop $-1 -1 $-1 $-1 $51 $22 #
plane-surface $-1 -1 $-1 0 0 1.891605 0 0 1 1 0 0 forward_v I I I I #
face $-1 -1 $-1 $52 $53 $17 $-1 $54 forward single #
loop $-1 -1 $-1 $55 $56 $23 #
cone-surface $-1 -1 $-1 0 0 0 0 0 1 1.3400000000000001 0 0 1 I I 0 1 1.3400000000000001 forward I I I I #
model_id-kcp-attrib $-1 -1 $-1 $-1 $25 1 1021401065 1021401065 1083834369 4 #
face $57 -1 $-1 $58 $59 $7 $-1 $60 forward single #
loop $-1 -1 $-1 $61 $62 $25 #
cone-surface $-1 -1 $-1 0 0 1.8915 0 0 1 1.9950000000000001 0 0 1 I I 0.98331178371766004 0.18192838151864499 1.9950000000000001 forward I I I I #
loop $63 -1 $-1 $-1 $64 $19 #
coedge $-1 -1 $-1 $42 $42 $65 $66 forward $26 $-1 #
model_id-kcp-attrib $-1 -1 $-1 $-1 $28 1 1021401065 1021401065 1083834369 43 #
coedge $-1 -1 $-1 $44 $44 $67 $68 reversed $28 $-1 #
coedge $-1 -1 $-1 $45 $45 $29 $46 reversed $61 $-1 #
edge $69 -1 $-1 $70 0 $70 6.2831853071795862 $45 $71 forward @7 unknown #
model_id-kcp-attrib $-1 -1 $-1 $-1 $31 1 1021401065 1021401065 1083834370 3 #
face $-1 -1 $-1 $72 $73 $15 $-1 $74 reversed single #
loop $-1 -1 $-1 $-1 $75 $31 #
plane-surface $-1 -1 $-1 0 0 -1.891605 0 0 1 1 0 0 forward_v I I I I #
coedge $-1 -1 $-1 $76 $77 $78 $79 forward $32 $-1 #
face $-1 -1 $-1 $-1 $80 $17 $-1 $81 forward single #
loop $-1 -1 $-1 $-1 $82 $34 #
plane-surface $-1 -1 $-1 0 0 -1.8916050000000002 0 0 -1 -1 0 0 forward_v I I I I #
loop $-1 -1 $-1 $-1 $83 $23 #
coedge $-1 -1 $-1 $56 $56 $82 $84 reversed $35 $-1 #
model_id-kcp-attrib $-1 -1 $-1 $-1 $38 1 1021401065 1021401065 1083834369 5 #
face $85 -1 $-1 $86 $87 $7 $-1 $88 forward single #
loop $-1 -1 $-1 $89 $90 $38 #
cone-surface $-1 -1 $-1 0 0 1.6507692415890101 0 0 -1 1.9950000000000001 0 0 1 I I 0.98325490756395495 0.182235525492147 1.9950000000000001 forward I I I I #
loop $-1 -1 $-1 $-1 $45 $25 #
coedge $-1 -1 $-1 $62 $62 $91 $92 forward $39 $-1 #
model_id-kcp-attrib $-1 -1 $-1 $-1 $41 1 1021401065 1021401065 1083834369 42 #
coedge $-1 -1 $-1 $64 $64 $93 $94 forward $41 $-1 #
coedge $-1 -1 $-1 $65 $65 $42 $66 reversed $95 $-1 #
edge $-1 -1 $-1 $96 -3.1415926535897931 $96 3.1415926535897931 $42 $97 forward @7 unknown #
coedge $-1 -1 $-1 $67 $67 $44 $68 forward $98 $-1 #
edge $99 -1 $-1 $100 0 $100 6.2831853071795862 $67 $101 forward @7 unknown #
attrib_edge_convexity-kcp-attrib $-1 -1 $102 $-1 $46 1 #
vertex $-1 -1 $-1 $46 $103 #
ellipse-curve $-1 -1 $-1 0 0 1.8915 0 0 1 1.9950000000000001 0 0 1 I I #
face $-1 -1 $-1 $104 $105 $15 $-1 $106 reversed single #
loop $-1 -1 $-1 $-1 $107 $48 #
plane-surface $-1 -1 $-1 0 -1.9950000000000001 0 0 1 0 0 0 1 forward_v I I I I #
coedge $-1 -1 $-1 $108 $109 $110 $111 forward $49 $-1 #
coedge $-1 -1 $-1 $112 $51 $113 $114 forward $32 $-1 #
coedge $-1 -1 $-1 $51 $112 $115 $116 forward $32 $-1 #
coedge $-1 -1 $-1 $117 $118 $51 $79 reversed $119 $-1 #
edge $-1 -1 $-1 $120 -1.9950000000000001 $121 1.9950000000000001 $78 $122 forward @7 unknown #
loop $-1 -1 $-1 $-1 $123 $52 #
plane-surface $-1 -1 $-1 0 0 1.8916050000000002 0 0 1 1 0 0 forward_v I I I I #
coedge $-1 -1 $-1 $82 $82 $56 $84 forward $53 $-1 #
coedge $-1 -1 $-1 $83 $83 $123 $124 reversed $55 $-1 #
edge $-1 -1 $-1 $125 0 $125 6.2831853071795862 $82 $126 forward @7 unknown #
model_id-kcp-attrib $-1 -1 $-1 $-1 $58 1 1021401065 1021401065 1083834369 6 #
face $127 -1 $-1 $128 $129 $7 $-1 $130 forward single #
loop $-1 -1 $-1 $131 $132 $58 #
cone-surface $-1 -1 $-1 0 0 1.6507692415890101 0 0 1 1.9950000000000001 0 0 1 I I 0.99162549500557595 0.12914672916859499 1.9950000000000001 forward I I I I #
loop $-1 -1 $-1 $-1 $91 $38 #
coedge $-1 -1 $-1 $90 $90 $133 $134 forward $59 $-1 #
coedge $-1 -1 $-1 $91 $91 $62 $92 reversed $89 $-1 #
edge $-1 -1 $-1 $135 -3.1415926535897931 $135 3.1415926535897931 $91 $136 forward @7 unknown #
coedge $-1 -1 $-1 $93 $93 $64 $94 reversed $137 $-1 #
edge $138 -1 $-1 $139 -3.1415926535897931 $139 3.1415926535897931 $93 $140 forward @7 unknown #
loop $-1 -1 $-1 $141 $65 $142 #
vertex $-1 -1 $-1 $66 $143 #
ellipse-curve $-1 -1 $-1 0 0 -1.89171 0 0 -1 1.9950000000000001 0 0 1 I I #
loop $144 -1 $-1 $-1 $67 $145 #
attrib_edge_convexity-kcp-attrib $-1 -1 $146 $-1 $68 1 #
vertex $147 -1 $-1 $68 $148 #
ellipse-curve $-1 -1 $-1 0 0 1.8915 0 0 1 -1.3400000000000001 0 0 1 I I #
convexity-sys-attrib $-1 -1 $-1 $69 $46 #
point $-1 -1 $-1 1.9950000000000001 0 1.8915 #
face $-1 -1 $-1 $149 $150 $15 $-1 $151 reversed single #
loop $-1 -1 $-1 $-1 $152 $72 #
plane-surface $-1 -1 $-1 -1.9950000000000001 0 0 1 0 0 0 0 -1 forward_v I I I I #
coedge $-1 -1 $-1 $153 $115 $154 $155 forward $73 $-1 #
coedge $-1 -1 $-1 $156 $75 $153 $157 forward $49 $-1 #
coedge $-1 -1 $-1 $75 $156 $158 $159 forward $49 $-1 #
coedge $-1 -1 $-1 $118 $117 $75 $111 reversed $119 $-1 #
edge $-1 -1 $-1 $160 -1.9950000000000001 $161 1.9950000000000001 $110 $162 forward @7 unknown #
coedge $-1 -1 $-1 $77 $76 $163 $164 forward $32 $-1 #
coedge $-1 -1 $-1 $165 $166 $76 $114 reversed $150 $-1 #
edge $-1 -1 $-1 $121 -1.9950000000000001 $167 1.9950000000000001 $113 $168 forward @7 unknown #
coedge $-1 -1 $-1 $107 $169 $77 $116 reversed $73 $-1 #
edge $-1 -1 $-1 $170 -1.9950000000000001 $120 1.9950000000000001 $115 $171 forward @7 unknown #
coedge $-1 -1 $-1 $110 $78 $169 $172 forward $119 $-1 #
coedge $-1 -1 $-1 $78 $110 $165 $173 reversed $119 $-1 #
loop $-1 -1 $-1 $-1 $117 $149 #
vertex $-1 -1 $-1 $79 $174 #
vertex $-1 -1 $-1 $79 $175 #
straight-curve $-1 -1 $-1 1.9950000000000001 0 1.891605 0 1 0 I I #
coedge $-1 -1 $-1 $123 $123 $83 $124 forward $80 $-1 #
edge $-1 -1 $-1 $176 0 $176 6.2831853071795862 $123 $177 forward @7 unknown #
vertex $-1 -1 $-1 $84 $178 #
ellipse-curve $-1 -1 $-1 0 0 -1.8916050000000002 0 0 -1 1.3400000000000001 0 0 1 I I #
model_id-kcp-attrib $-1 -1 $-1 $-1 $86 1 1021401065 1021401065 1083834369 7 #
face $179 -1 $-1 $180 $181 $7 $-1 $182 forward single #
loop $-1 -1 $-1 $183 $184 $86 #
cone-surface $-1 -1 $-1 0 0 1.4456445504659701 0 0 -1 1.9950000000000001 0 0 1 I I 0.98325490756395495 0.182235525492147 1.9950000000000001 forward I I I I #
loop $-1 -1 $-1 $-1 $133 $58 #
coedge $-1 -1 $-1 $132 $132 $185 $186 forward $87 $-1 #
coedge $-1 -1 $-1 $133 $133 $90 $134 reversed $131 $-1 #
edge $-1 -1 $-1 $187 -3.1415926535897931 $187 3.1415926535897931 $133 $188 forward @7 unknown #
vertex $-1 -1 $-1 $92 $189 #
ellipse-curve $-1 -1 $-1 0 0 1.7712396207945 0 0 1 1.345 0 0 1 I I #
loop $190 -1 $-1 $98 $93 $145 #
attrib_edge_convexity-kcp-attrib $-1 -1 $191 $-1 $94 1 #
vertex $192 -1 $-1 $94 $193 #
ellipse-curve $-1 -1 $-1 0 0 -1.89171 0 0 1 1.3400000000000001 0 0 1 I I #
loop $-1 -1 $-1 $-1 $194 $142 #
face $195 -1 $-1 $145 $95 $7 $-1 $196 forward single #
point $-1 -1 $-1 -1.9950000000000001 0 -1.89171 #
model_id-kcp-attrib $-1 -1 $-1 $-1 $98 1 1021401065 1021401065 1083834369 41 #
face $197 -1 $-1 $-1 $137 $7 $-1 $198 reversed single #
convexity-sys-attrib $-1 -1 $-1 $99 $68 #
model_id-kcp-attrib $-1 -1 $-1 $-1 $100 1 1021401065 1021401065 1083834369 45 #
point $-1 -1 $-1 -1.3400000000000001 0 1.8915 #
face $-1 -1 $-1 $-1 $119 $15 $-1 $199 reversed single #
loop $-1 -1 $-1 $-1 $165 $104 #
plane-surface $-1 -1 $-1 0 1.9950000000000001 0 0 -1 0 0 0 -1 forward_v I I I I #
coedge $-1 -1 $-1 $200 $163 $166 $201 forward $105 $-1 #
coedge $-1 -1 $-1 $169 $107 $108 $157 reversed $73 $-1 #
coedge $-1 -1 $-1 $163 $200 $107 $155 reversed $105 $-1 #
edge $-1 -1 $-1 $170 -1.891605 $202 1.891605 $154 $203 forward @7 unknown #
coedge $-1 -1 $-1 $109 $108 $200 $204 forward $49 $-1 #
edge $-1 -1 $-1 $161 -1.9950000000000001 $202 1.9950000000000001 $153 $205 forward @7 unknown #
coedge $-1 -1 $-1 $166 $165 $109 $159 reversed $150 $-1 #
edge $-1 -1 $-1 $206 -1.9950000000000001 $160 1.9950000000000001 $158 $207 forward @7 unknown #
vertex $-1 -1 $-1 $111 $208 #
vertex $-1 -1 $-1 $172 $209 #
straight-curve $-1 -1 $-1 1.9950000000000001 0 -1.891605 0 -1 0 I I #
coedge $-1 -1 $-1 $152 $154 $112 $164 reversed $105 $-1 #
edge $-1 -1 $-1 $167 -1.9950000000000001 $170 1.9950000000000001 $163 $210 forward @7 unknown #
coedge $-1 -1 $-1 $158 $113 $118 $173 forward $150 $-1 #
coedge $-1 -1 $-1 $113 $158 $152 $201 reversed $150 $-1 #
vertex $-1 -1 $-1 $114 $211 #
straight-curve $-1 -1 $-1 0 1.9950000000000001 1.891605 -1 0 0 I I #
coedge $-1 -1 $-1 $115 $153 $117 $172 reversed $73 $-1 #
vertex $-1 -1 $-1 $164 $212 #
straight-curve $-1 -1 $-1 0 -1.9950000000000001 1.891605 1 0 0 I I #
edge $-1 -1 $-1 $120 -1.891605 $161 1.891605 $117 $213 forward @7 unknown #
edge $-1 -1 $-1 $121 -1.891605 $160 1.891605 $118 $214 forward @7 unknown #
point $-1 -1 $-1 1.9950000000000001 -1.9950000000000001 1.891605 #
point $-1 -1 $-1 1.9950000000000001 1.9950000000000001 1.891605 #
vertex $-1 -1 $-1 $124 $215 #
ellipse-curve $-1 -1 $-1 0 0 1.8916050000000002 0 0 1 1.3400000000000001 0 0 1 I I #
point $-1 -1 $-1 1.3400000000000001 0 -1.8916050000000002 #
model_id-kcp-attrib $-1 -1 $-1 $-1 $128 1 1021401065 1021401065 1083834369 8 #
face $216 -1 $-1 $217 $218 $7 $-1 $219 forward single #
loop $-1 -1 $-1 $220 $221 $128 #
cone-surface $-1 -1 $-1 0 0 1.4456445504659701 0 0 1 1.9950000000000001 0 0 1 I I 0.98325490756395495 0.182235525492147 1.9950000000000001 forward I I I I #
loop $-1 -1 $-1 $-1 $185 $86 #
coedge $-1 -1 $-1 $184 $184 $222 $223 forward $129 $-1 #
coedge $-1 -1 $-1 $185 $185 $132 $186 reversed $183 $-1 #
edge $-1 -1 $-1 $224 -3.1415926535897931 $224 3.1415926535897931 $185 $225 forward @7 unknown #
vertex $-1 -1 $-1 $134 $226 #
ellipse-curve $-1 -1 $-1 0 0 1.6507692415890101 0 0 1 1.9950000000000001 0 0 1 I I #
point $-1 -1 $-1 -1.345 0 1.7712396207945 #
model_id-kcp-attrib $-1 -1 $-1 $-1 $137 1 1021401065 1021401065 1083834369 40 #
convexity-sys-attrib $-1 -1 $-1 $138 $94 #
model_id-kcp-attrib $-1 -1 $-1 $-1 $139 1 1021401065 1021401065 1083834369 44 #
point $-1 -1 $-1 -1.3400000000000001 0 -1.89171 #
coedge $-1 -1 $-1 $194 $194 $227 $228 reversed $141 $-1 #
model_id-kcp-attrib $-1 -1 $-1 $-1 $142 1 1021401065 1021401065 1083834369 35 #
cone-surface $-1 -1 $-1 0 0 -1.89171 0 0 -1 1.9950000000000001 0 0 1 I I 0.98325490756395495 0.182235525492147 1.9950000000000001 forward I I I I #
model_id-kcp-attrib $-1 -1 $-1 $-1 $145 1 1021401065 1021401065 1083834369 36 #
cone-surface $-1 -1 $-1 0 0 1.8915 0 0 -1 -1.3400000000000001 0 0 1 I I 0 1 1.3400000000000001 forward I I I I #
plane-surface $-1 -1 $-1 1.9950000000000001 0 0 -1 0 0 0 0 1 forward_v I I I I #
coedge $-1 -1 $-1 $154 $152 $156 $204 reversed $105 $-1 #
edge $-1 -1 $-1 $167 -1.891605 $206 1.891605 $166 $229 forward @7 unknown #
vertex $-1 -1 $-1 $204 $230 #
straight-curve $-1 -1 $-1 -1.9950000000000001 -1.9950000000000001 0 0 0 -1 I I #
edge $-1 -1 $-1 $202 -1.9950000000000001 $206 1.9950000000000001 $200 $231 forward @7 unknown #
straight-curve $-1 -1 $-1 0 -1.9950000000000001 -1.891605 -1 0 0 I I #
vertex $-1 -1 $-1 $159 $232 #
straight-curve $-1 -1 $-1 0 1.9950000000000001 -1.891605 1 0 0 I I #
point $-1 -1 $-1 1.9950000000000001 1.9950000000000001 -1.891605 #
point $-1 -1 $-1 1.9950000000000001 -1.9950000000000001 -1.891605 #
straight-curve $-1 -1 $-1 -1.9950000000000001 0 1.891605 0 -1 0 I I #
point $-1 -1 $-1 -1.9950000000000001 1.9950000000000001 1.891605 #
point $-1 -1 $-1 -1.9950000000000001 -1.9950000000000001 1.891605 #
straight-curve $-1 -1 $-1 1.9950000000000001 -1.9950000000000001 0 0 0 -1 I I #
straight-curve $-1 -1 $-1 1.9950000000000001 1.9950000000000001 0 0 0 -1 I I #
point $-1 -1 $-1 1.3400000000000001 0 1.8916050000000002 #
model_id-kcp-attrib $-1 -1 $-1 $-1 $180 1 1021401065 1021401065 1083834369 9 #
face $233 -1 $-1 $234 $235 $7 $-1 $236 forward single #
loop $-1 -1 $-1 $237 $238 $180 #
cone-surface $-1 -1 $-1 0 0 1.2047037920549699 0 0 -1 1.9950000000000001 0 0 1 I I 0.98325490756395495 0.182235525492147 1.9950000000000001 forward I I I I #
loop $-1 -1 $-1 $-1 $222 $128 #
coedge $-1 -1 $-1 $221 $221 $239 $240 forward $181 $-1 #
coedge $-1 -1 $-1 $222 $222 $184 $223 reversed $220 $-1 #
edge $-1 -1 $-1 $241 -3.1415926535897931 $241 3.1415926535897931 $222 $242 forward @7 unknown #
vertex $-1 -1 $-1 $186 $243 #
ellipse-curve $-1 -1 $-1 0 0 1.56611492967147 0 0 1 1.345 0 0 1 I I #
point $-1 -1 $-1 -1.9950000000000001 0 1.6507692415890101 #
coedge $-1 -1 $-1 $227 $227 $194 $228 forward $244 $-1 #
edge $-1 -1 $-1 $245 -3.1415926535897931 $245 3.1415926535897931 $194 $246 forward @7 unknown #
straight-curve $-1 -1 $-1 -1.9950000000000001 1.9950000000000001 0 0 0 -1 I I #
point $-1 -1 $-1 -1.9950000000000001 -1.9950000000000001 -1.891605 #
straight-curve $-1 -1 $-1 -1.9950000000000001 0 -1.891605 0 1 0 I I #
point $-1 -1 $-1 -1.9950000000000001 1.9950000000000001 -1.891605 #
model_id-kcp-attrib $-1 -1 $-1 $-1 $217 1 1021401065 1021401065 1083834369 10 #
face $247 -1 $-1 $248 $249 $7 $-1 $250 forward single #
loop $-1 -1 $-1 $251 $252 $217 #
cone-surface $-1 -1 $-1 0 0 1.2047037920549699 0 0 1 1.9950000000000001 0 0 1 I I 0.98325490756395495 0.182235525492147 1.9950000000000001 forward I I I I #
loop $-1 -1 $-1 $-1 $239 $180 #
coedge $-1 -1 $-1 $238 $238 $253 $254 forward $218 $-1 #
coedge $-1 -1 $-1 $239 $239 $221 $240 reversed $237 $-1 #
edge $-1 -1 $-1 $255 -3.1415926535897931 $255 3.1415926535897931 $239 $256 forward @7 unknown #
vertex $-1 -1 $-1 $223 $257 #
ellipse-curve $-1 -1 $-1 0 0 1.4456445504659701 0 0 1 1.9950000000000001 0 0 1 I I #
point $-1 -1 $-1 -1.345 0 1.56611492967147 #
loop $-1 -1 $-1 $258 $227 $259 #
vertex $-1 -1 $-1 $228 $260 #
ellipse-curve $-1 -1 $-1 0 0 -1.7712396207945 0 0 1 1.345 0 0 1 I I #
model_id-kcp-attrib $-1 -1 $-1 $-1 $234 1 1021401065 1021401065 1083834369 11 #
face $261 -1 $-1 $262 $263 $7 $-1 $264 forward single #
loop $-1 -1 $-1 $265 $266 $234 #
cone-surface $-1 -1 $-1 0 0 0.96376303364397897 0 0 -1 1.9950000000000001 0 0 1 I I 0.98325490756395495 0.182235525492147 1.9950000000000001 forward I I I I #
loop $-1 -1 $-1 $-1 $253 $217 #
coedge $-1 -1 $-1 $252 $252 $267 $268 forward $235 $-1 #
coedge $-1 -1 $-1 $253 $253 $238 $254 reversed $251 $-1 #
edge $-1 -1 $-1 $269 -3.1415926535897931 $269 3.1415926535897931 $253 $270 forward @7 unknown #
vertex $-1 -1 $-1 $240 $271 #
ellipse-curve $-1 -1 $-1 0 0 1.3251741712604701 0 0 1 1.345 0 0 1 I I #
point $-1 -1 $-1 -1.9950000000000001 0 1.4456445504659701 #
loop $-1 -1 $-1 $-1 $272 $259 #
face $273 -1 $-1 $142 $244 $7 $-1 $274 forward single #
point $-1 -1 $-1 -1.345 0 -1.7712396207945 #
model_id-kcp-attrib $-1 -1 $-1 $-1 $248 1 1021401065 1021401065 1083834369 12 #
face $275 -1 $-1 $276 $277 $7 $-1 $278 forward single #
loop $-1 -1 $-1 $279 $280 $248 #
cone-surface $-1 -1 $-1 0 0 0.96376303364397897 0 0 1 1.9950000000000001 0 0 1 I I 0.98325490756395495 0.182235525492147 1.9950000000000001 forward I I I I #
loop $-1 -1 $-1 $-1 $267 $234 #
coedge $-1 -1 $-1 $266 $266 $281 $282 forward $249 $-1 #
coedge $-1 -1 $-1 $267 $267 $252 $268 reversed $265 $-1 #
edge $-1 -1 $-1 $283 -3.1415926535897931 $283 3.1415926535897931 $267 $284 forward @7 unknown #
vertex $-1 -1 $-1 $254 $285 #
ellipse-curve $-1 -1 $-1 0 0 1.2047037920549699 0 0 1 1.9950000000000001 0 0 1 I I #
point $-1 -1 $-1 -1.345 0 1.3251741712604701 #
coedge $-1 -1 $-1 $272 $272 $286 $287 reversed $258 $-1 #
model_id-kcp-attrib $-1 -1 $-1 $-1 $259 1 1021401065 1021401065 1083834369 34 #
cone-surface $-1 -1 $-1 0 0 -1.6507692415890101 0 0 1 1.9950000000000001 0 0 1 I I 0.98325490756395495 0.182235525492147 1.9950000000000001 forward I I I I #
model_id-kcp-attrib $-1 -1 $-1 $-1 $262 1 1021401065 1021401065 1083834369 13 #
face $288 -1 $-1 $289 $290 $7 $-1 $291 forward single #
loop $-1 -1 $-1 $292 $293 $262 #
cone-surface $-1 -1 $-1 0 0 0.72282227523298503 0 0 -1 1.9950000000000001 0 0 1 I I 0.98325490756395495 0.182235525492147 1.9950000000000001 forward I I I I #
loop $-1 -1 $-1 $-1 $281 $248 #
coedge $-1 -1 $-1 $280 $280 $294 $295 forward $263 $-1 #
coedge $-1 -1 $-1 $281 $281 $266 $282 reversed $279 $-1 #
edge $-1 -1 $-1 $296 -3.1415926535897931 $296 3.1415926535897931 $281 $297 forward @7 unknown #
vertex $-1 -1 $-1 $268 $298 #
ellipse-curve $-1 -1 $-1 0 0 1.0842334128494799 0 0 1 1.345 0 0 1 I I #
point $-1 -1 $-1 -1.9950000000000001 0 1.2047037920549699 #
coedge $-1 -1 $-1 $286 $286 $272 $287 forward $299 $-1 #
edge $-1 -1 $-1 $300 -3.1415926535897931 $300 3.1415926535897931 $272 $301 forward @7 unknown #
model_id-kcp-attrib $-1 -1 $-1 $-1 $276 1 1021401065 1021401065 1083834369 14 #
face $302 -1 $-1 $303 $304 $7 $-1 $305 forward single #
loop $-1 -1 $-1 $306 $307 $276 #
cone-surface $-1 -1 $-1 0 0 0.72282227523298503 0 0 1 1.9950000000000001 0 0 1 I I 0.98325490756395395 0.182235525492148 1.9950000000000001 forward I I I I #
loop $-1 -1 $-1 $-1 $294 $262 #
coedge $-1 -1 $-1 $293 $293 $308 $309 forward $277 $-1 #
coedge $-1 -1 $-1 $294 $294 $280 $295 reversed $292 $-1 #
edge $-1 -1 $-1 $310 -3.1415926535897931 $310 3.1415926535897931 $294 $311 forward @7 unknown #
vertex $-1 -1 $-1 $282 $312 #
ellipse-curve $-1 -1 $-1 0 0 0.96376303364397897 0 0 1 1.9950000000000001 0 0 1 I I #
point $-1 -1 $-1 -1.345 0 1.0842334128494799 #
loop $-1 -1 $-1 $313 $286 $314 #
vertex $-1 -1 $-1 $287 $315 #
ellipse-curve $-1 -1 $-1 0 0 -1.6507692415890101 0 0 1 1.9950000000000001 0 0 1 I I #
model_id-kcp-attrib $-1 -1 $-1 $-1 $289 1 1021401065 1021401065 1083834369 15 #
face $316 -1 $-1 $317 $318 $7 $-1 $319 forward single #
loop $-1 -1 $-1 $320 $321 $289 #
cone-surface $-1 -1 $-1 0 0 0.48188151682198899 0 0 -1 1.9950000000000001 0 0 1 I I 0.98325490756395495 0.182235525492147 1.9950000000000001 forward I I I I #
loop $-1 -1 $-1 $-1 $308 $276 #
coedge $-1 -1 $-1 $307 $307 $322 $323 forward $290 $-1 #
coedge $-1 -1 $-1 $308 $308 $293 $309 reversed $306 $-1 #
edge $-1 -1 $-1 $324 -3.1415926535897931 $324 3.1415926535897931 $308 $325 forward @7 unknown #
vertex $-1 -1 $-1 $295 $326 #
ellipse-curve $-1 -1 $-1 0 0 0.843292654438482 0 0 1 1.345 0 0 1 I I #
point $-1 -1 $-1 -1.9950000000000001 0 0.96376303364397897 #
loop $-1 -1 $-1 $-1 $327 $314 #
face $328 -1 $-1 $259 $299 $7 $-1 $329 forward single #
point $-1 -1 $-1 -1.9950000000000001 0 -1.6507692415890101 #
model_id-kcp-attrib $-1 -1 $-1 $-1 $303 1 1021401065 1021401065 1083834369 16 #
face $330 -1 $-1 $331 $332 $7 $-1 $333 forward single #
loop $-1 -1 $-1 $334 $335 $303 #
cone-surface $-1 -1 $-1 0 0 0.48188151682198899 0 0 1 1.9950000000000001 0 0 1 I I 0.98325490756395495 0.182235525492147 1.9950000000000001 forward I I I I #
loop $-1 -1 $-1 $-1 $322 $289 #
coedge $-1 -1 $-1 $321 $321 $336 $337 forward $304 $-1 #
coedge $-1 -1 $-1 $322 $322 $307 $323 reversed $320 $-1 #
edge $-1 -1 $-1 $338 -3.1415926535897931 $338 3.1415926535897931 $322 $339 forward @7 unknown #
vertex $-1 -1 $-1 $309 $340 #
ellipse-curve $-1 -1 $-1 0 0 0.72282227523298503 0 0 1 1.9950000000000001 0 0 1 I I #
point $-1 -1 $-1 -1.345 0 0.843292654438482 #
coedge $-1 -1 $-1 $327 $327 $341 $342 reversed $313 $-1 #
model_id-kcp-attrib $-1 -1 $-1 $-1 $314 1 1021401065 1021401065 1083834369 33 #
cone-surface $-1 -1 $-1 0 0 -1.6507692415890101 0 0 -1 1.9950000000000001 0 0 1 I I 0.98325490756395495 0.182235525492147 1.9950000000000001 forward I I I I #
model_id-kcp-attrib $-1 -1 $-1 $-1 $317 1 1021401065 1021401065 1083834369 17 #
face $343 -1 $-1 $344 $345 $7 $-1 $346 forward single #
loop $-1 -1 $-1 $347 $348 $317 #
cone-surface $-1 -1 $-1 0 0 0.24094075841099399 0 0 -1 1.9950000000000001 0 0 1 I I 0.98325490756395395 0.182235525492148 1.9950000000000001 forward I I I I #
loop $-1 -1 $-1 $-1 $336 $303 #
coedge $-1 -1 $-1 $335 $335 $349 $350 forward $318 $-1 #
coedge $-1 -1 $-1 $336 $336 $321 $337 reversed $334 $-1 #
edge $-1 -1 $-1 $351 -3.1415926535897931 $351 3.1415926535897931 $336 $352 forward @7 unknown #
vertex $-1 -1 $-1 $323 $353 #
ellipse-curve $-1 -1 $-1 0 0 0.60235189602748695 0 0 1 1.345 0 0 1 I I #
point $-1 -1 $-1 -1.9950000000000001 0 0.72282227523298503 #
coedge $-1 -1 $-1 $341 $341 $327 $342 forward $354 $-1 #
edge $-1 -1 $-1 $355 -3.1415926535897931 $355 3.1415926535897931 $327 $356 forward @7 unknown #
model_id-kcp-attrib $-1 -1 $-1 $-1 $331 1 1021401065 1021401065 1083834369 18 #
face $357 -1 $-1 $358 $359 $7 $-1 $360 forward single #
loop $-1 -1 $-1 $361 $362 $331 #
cone-surface $-1 -1 $-1 0 0 0.24094075841099399 0 0 1 1.9950000000000001 0 0 1 I I 0.98325490756395495 0.182235525492147 1.9950000000000001 forward I I I I #
loop $-1 -1 $-1 $-1 $349 $317 #
coedge $-1 -1 $-1 $348 $348 $363 $364 forward $332 $-1 #
coedge $-1 -1 $-1 $349 $349 $335 $350 reversed $347 $-1 #
edge $-1 -1 $-1 $365 -3.1415926535897931 $365 3.1415926535897931 $349 $366 forward @7 unknown #
vertex $-1 -1 $-1 $337 $367 #
ellipse-curve $-1 -1 $-1 0 0 0.48188151682198899 0 0 1 1.9950000000000001 0 0 1 I I #
point $-1 -1 $-1 -1.345 0 0.60235189602748695 #
loop $-1 -1 $-1 $368 $341 $369 #
vertex $-1 -1 $-1 $342 $370 #
ellipse-curve $-1 -1 $-1 0 0 -1.5302988623835101 0 0 1 1.345 0 0 1 I I #
model_id-kcp-attrib $-1 -1 $-1 $-1 $344 1 1021401065 1021401065 1083834369 19 #
face $371 -1 $-1 $372 $373 $7 $-1 $374 forward single #
loop $-1 -1 $-1 $375 $376 $344 #
cone-surface $-1 -1 $-1 0 0 0 0 0 -1 1.9950000000000001 0 0 1 I I 0.98325490756395495 0.182235525492147 1.9950000000000001 forward I I I I #
loop $-1 -1 $-1 $-1 $363 $331 #
coedge $-1 -1 $-1 $362 $362 $377 $378 forward $345 $-1 #
coedge $-1 -1 $-1 $363 $363 $348 $364 reversed $361 $-1 #
edge $-1 -1 $-1 $379 -3.1415926535897931 $379 3.1415926535897931 $363 $380 forward @7 unknown #
vertex $-1 -1 $-1 $350 $381 #
ellipse-curve $-1 -1 $-1 0 0 0.36141113761649302 0 0 1 1.345 0 0 1 I I #
point $-1 -1 $-1 -1.9950000000000001 0 0.48188151682198899 #
loop $-1 -1 $-1 $-1 $382 $369 #
face $383 -1 $-1 $314 $354 $7 $-1 $384 forward single #
point $-1 -1 $-1 -1.345 0 -1.5302988623835101 #
model_id-kcp-attrib $-1 -1 $-1 $-1 $358 1 1021401065 1021401065 1083834369 20 #
face $385 -1 $-1 $386 $387 $7 $-1 $388 forward single #
loop $-1 -1 $-1 $389 $390 $358 #
cone-surface $-1 -1 $-1 0 0 0 0 0 1 1.9950000000000001 0 0 1 I I 0.99162549500557595 0.12914672916859499 1.9950000000000001 forward I I I I #
loop $-1 -1 $-1 $-1 $377 $344 #
coedge $-1 -1 $-1 $376 $376 $391 $392 forward $359 $-1 #
coedge $-1 -1 $-1 $377 $377 $362 $378 reversed $375 $-1 #
edge $-1 -1 $-1 $393 -3.1415926535897931 $393 3.1415926535897931 $377 $394 forward @7 unknown #
vertex $-1 -1 $-1 $364 $395 #
ellipse-curve $-1 -1 $-1 0 0 0.24094075841099399 0 0 1 1.9950000000000001 0 0 1 I I #
point $-1 -1 $-1 -1.345 0 0.36141113761649302 #
coedge $-1 -1 $-1 $382 $382 $396 $397 reversed $368 $-1 #
model_id-kcp-attrib $-1 -1 $-1 $-1 $369 1 1021401065 1021401065 1083834369 32 #
cone-surface $-1 -1 $-1 0 0 -1.4098284831780099 0 0 1 1.9950000000000001 0 0 1 I I 0.98325490756395495 0.182235525492147 1.9950000000000001 forward I I I I #
model_id-kcp-attrib $-1 -1 $-1 $-1 $372 1 1021401065 1021401065 1083834369 21 #
face $398 -1 $-1 $399 $400 $7 $-1 $401 forward single #
loop $-1 -1 $-1 $402 $403 $372 #
cone-surface $-1 -1 $-1 0 0 -0.205124691123037 0 0 -1 1.9950000000000001 0 0 1 I I 0.98325490756395495 0.182235525492147 1.9950000000000001 forward I I I I #
loop $-1 -1 $-1 $-1 $391 $358 #
coedge $-1 -1 $-1 $390 $390 $404 $405 forward $373 $-1 #
coedge $-1 -1 $-1 $391 $391 $376 $392 reversed $389 $-1 #
edge $-1 -1 $-1 $406 -3.1415926535897931 $406 3.1415926535897931 $391 $407 forward @7 unknown #
vertex $-1 -1 $-1 $378 $408 #
ellipse-curve $-1 -1 $-1 0 0 0.120470379205498 0 0 1 1.345 0 0 1 I I #
point $-1 -1 $-1 -1.9950000000000001 0 0.24094075841099399 #
coedge $-1 -1 $-1 $396 $396 $382 $397 forward $409 $-1 #
edge $-1 -1 $-1 $410 -3.1415926535897931 $410 3.1415926535897931 $382 $411 forward @7 unknown #
model_id-kcp-attrib $-1 -1 $-1 $-1 $386 1 1021401065 1021401065 1083834369 22 #
face $412 -1 $-1 $413 $414 $7 $-1 $415 forward single #
loop $-1 -1 $-1 $416 $417 $386 #
cone-surface $-1 -1 $-1 0 0 -0.205124691123037 0 0 1 1.9950000000000001 0 0 1 I I 0.98325490756395495 0.182235525492147 1.9950000000000001 forward I I I I #
loop $-1 -1 $-1 $-1 $404 $372 #
coedge $-1 -1 $-1 $403 $403 $418 $419 forward $387 $-1 #
coedge $-1 -1 $-1 $404 $404 $390 $405 reversed $402 $-1 #
edge $-1 -1 $-1 $420 -3.1415926535897931 $420 3.1415926535897931 $404 $421 forward @7 unknown #
vertex $-1 -1 $-1 $392 $422 #
ellipse-curve $-1 -1 $-1 0 0 0 0 0 1 1.9950000000000001 0 0 1 I I #
point $-1 -1 $-1 -1.345 0 0.120470379205498 #
loop $-1 -1 $-1 $423 $396 $424 #
vertex $-1 -1 $-1 $397 $425 #
ellipse-curve $-1 -1 $-1 0 0 -1.4098284831780099 0 0 1 1.9950000000000001 0 0 1 I I #
model_id-kcp-attrib $-1 -1 $-1 $-1 $399 1 1021401065 1021401065 1083834369 23 #
face $426 -1 $-1 $427 $428 $7 $-1 $429 forward single #
loop $-1 -1 $-1 $430 $431 $399 #
cone-surface $-1 -1 $-1 0 0 -0.44606544953403199 0 0 -1 1.9950000000000001 0 0 1 I I 0.98325490756395495 0.182235525492147 1.9950000000000001 forward I I I I #
loop $-1 -1 $-1 $-1 $418 $386 #
coedge $-1 -1 $-1 $417 $417 $432 $433 forward $400 $-1 #
coedge $-1 -1 $-1 $418 $418 $403 $419 reversed $416 $-1 #
edge $-1 -1 $-1 $434 -3.1415926535897931 $434 3.1415926535897931 $418 $435 forward @7 unknown #
vertex $-1 -1 $-1 $405 $436 #
ellipse-curve $-1 -1 $-1 0 0 -0.084654311917538999 0 0 1 1.345 0 0 1 I I #
point $-1 -1 $-1 -1.9950000000000001 0 0 #
loop $-1 -1 $-1 $-1 $437 $424 #
face $438 -1 $-1 $369 $409 $7 $-1 $439 forward single #
point $-1 -1 $-1 -1.9950000000000001 0 -1.4098284831780099 #
model_id-kcp-attrib $-1 -1 $-1 $-1 $413 1 1021401065 1021401065 1083834369 24 #
face $440 -1 $-1 $441 $442 $7 $-1 $443 forward single #
loop $-1 -1 $-1 $444 $445 $413 #
cone-surface $-1 -1 $-1 0 0 -0.44606544953403199 0 0 1 1.9950000000000001 0 0 1 I I 0.98325490756395495 0.182235525492147 1.9950000000000001 forward I I I I #
loop $-1 -1 $-1 $-1 $432 $399 #
coedge $-1 -1 $-1 $431 $431 $446 $447 forward $414 $-1 #
coedge $-1 -1 $-1 $432 $432 $417 $433 reversed $430 $-1 #
edge $-1 -1 $-1 $448 -3.1415926535897931 $448 3.1415926535897931 $432 $449 forward @7 unknown #
vertex $-1 -1 $-1 $419 $450 #
ellipse-curve $-1 -1 $-1 0 0 -0.205124691123037 0 0 1 1.9950000000000001 0 0 1 I I #
point $-1 -1 $-1 -1.345 0 -0.084654311917538999 #
coedge $-1 -1 $-1 $437 $437 $451 $452 reversed $423 $-1 #
model_id-kcp-attrib $-1 -1 $-1 $-1 $424 1 1021401065 1021401065 1083834369 31 #
cone-surface $-1 -1 $-1 0 0 -1.4098284831780099 0 0 -1 1.9950000000000001 0 0 1 I I 0.98325490756395495 0.182235525492147 1.9950000000000001 forward I I I I #
model_id-kcp-attrib $-1 -1 $-1 $-1 $427 1 1021401065 1021401065 1083834369 25 #
face $453 -1 $-1 $454 $455 $7 $-1 $456 forward single #
loop $-1 -1 $-1 $457 $458 $427 #
cone-surface $-1 -1 $-1 0 0 -0.68700620794502698 0 0 -1 1.9950000000000001 0 0 1 I I 0.98325490756395495 0.182235525492147 1.9950000000000001 forward I I I I #
loop $-1 -1 $-1 $-1 $446 $413 #
coedge $-1 -1 $-1 $445 $445 $459 $460 forward $428 $-1 #
coedge $-1 -1 $-1 $446 $446 $431 $447 reversed $444 $-1 #
edge $-1 -1 $-1 $461 -3.1415926535897931 $461 3.1415926535897931 $446 $462 forward @7 unknown #
vertex $-1 -1 $-1 $433 $463 #
ellipse-curve $-1 -1 $-1 0 0 -0.32559507032853502 0 0 1 1.345 0 0 1 I I #
point $-1 -1 $-1 -1.9950000000000001 0 -0.205124691123037 #
coedge $-1 -1 $-1 $451 $451 $437 $452 forward $464 $-1 #
edge $-1 -1 $-1 $465 -3.1415926535897931 $465 3.1415926535897931 $437 $466 forward @7 unknown #
model_id-kcp-attrib $-1 -1 $-1 $-1 $441 1 1021401065 1021401065 1083834369 26 #
face $467 -1 $-1 $468 $469 $7 $-1 $470 forward single #
loop $-1 -1 $-1 $471 $472 $441 #
cone-surface $-1 -1 $-1 0 0 -0.68700620794502698 0 0 1 1.9950000000000001 0 0 1 I I 0.98325490756395495 0.182235525492147 1.9950000000000001 forward I I I I #
loop $-1 -1 $-1 $-1 $459 $427 #
coedge $-1 -1 $-1 $458 $458 $473 $474 forward $442 $-1 #
coedge $-1 -1 $-1 $459 $459 $445 $460 reversed $457 $-1 #
edge $-1 -1 $-1 $475 -3.1415926535897931 $475 3.1415926535897931 $459 $476 forward @7 unknown #
vertex $-1 -1 $-1 $447 $477 #
ellipse-curve $-1 -1 $-1 0 0 -0.44606544953403199 0 0 1 1.9950000000000001 0 0 1 I I #
point $-1 -1 $-1 -1.345 0 -0.32559507032853502 #
loop $-1 -1 $-1 $478 $451 $479 #
vertex $-1 -1 $-1 $452 $480 #
ellipse-curve $-1 -1 $-1 0 0 -1.2893581039725099 0 0 1 1.345 0 0 1 I I #
model_id-kcp-attrib $-1 -1 $-1 $-1 $454 1 1021401065 1021401065 1083834369 27 #
face $481 -1 $-1 $482 $483 $7 $-1 $484 forward single #
loop $-1 -1 $-1 $485 $486 $454 #
cone-surface $-1 -1 $-1 0 0 -0.92794696635602203 0 0 -1 1.9950000000000001 0 0 1 I I 0.98325490756395495 0.182235525492147 1.9950000000000001 forward I I I I #
loop $-1 -1 $-1 $-1 $473 $441 #
coedge $-1 -1 $-1 $472 $472 $487 $488 forward $455 $-1 #
coedge $-1 -1 $-1 $473 $473 $458 $474 reversed $471 $-1 #
edge $-1 -1 $-1 $489 -3.1415926535897931 $489 3.1415926535897931 $473 $490 forward @7 unknown #
vertex $-1 -1 $-1 $460 $491 #
ellipse-curve $-1 -1 $-1 0 0 -0.56653582873952901 0 0 1 1.345 0 0 1 I I #
point $-1 -1 $-1 -1.9950000000000001 0 -0.44606544953403199 #
loop $-1 -1 $-1 $-1 $492 $479 #
face $493 -1 $-1 $424 $464 $7 $-1 $494 forward single #
point $-1 -1 $-1 -1.345 0 -1.2893581039725099 #
model_id-kcp-attrib $-1 -1 $-1 $-1 $468 1 1021401065 1021401065 1083834369 28 #
face $495 -1 $-1 $479 $496 $7 $-1 $497 forward single #
loop $-1 -1 $-1 $498 $499 $468 #
cone-surface $-1 -1 $-1 0 0 -0.92794696635602203 0 0 1 1.9950000000000001 0 0 1 I I 0.98325490756395495 0.182235525492147 1.9950000000000001 forward I I I I #
loop $-1 -1 $-1 $-1 $487 $454 #
coedge $-1 -1 $-1 $486 $486 $500 $501 forward $469 $-1 #
coedge $-1 -1 $-1 $487 $487 $472 $488 reversed $485 $-1 #
edge $-1 -1 $-1 $502 -3.1415926535897931 $502 3.1415926535897931 $487 $503 forward @7 unknown #
vertex $-1 -1 $-1 $474 $504 #
ellipse-curve $-1 -1 $-1 0 0 -0.68700620794502698 0 0 1 1.9950000000000001 0 0 1 I I #
point $-1 -1 $-1 -1.345 0 -0.56653582873952901 #
coedge $-1 -1 $-1 $492 $492 $505 $506 reversed $478 $-1 #
model_id-kcp-attrib $-1 -1 $-1 $-1 $479 1 1021401065 1021401065 1083834369 30 #
cone-surface $-1 -1 $-1 0 0 -1.16888772476702 0 0 1 1.9950000000000001 0 0 1 I I 0.98325490756395495 0.182235525492147 1.9950000000000001 forward I I I I #
model_id-kcp-attrib $-1 -1 $-1 $-1 $482 1 1021401065 1021401065 1083834369 29 #
loop $-1 -1 $-1 $507 $505 $482 #
cone-surface $-1 -1 $-1 0 0 -1.16888772476702 0 0 -1 1.9950000000000001 0 0 1 I I 0.98325490756395495 0.182235525492147 1.9950000000000001 forward I I I I #
loop $-1 -1 $-1 $-1 $500 $468 #
coedge $-1 -1 $-1 $499 $499 $508 $509 forward $483 $-1 #
coedge $-1 -1 $-1 $500 $500 $486 $501 reversed $498 $-1 #
edge $-1 -1 $-1 $510 -3.1415926535897931 $510 3.1415926535897931 $500 $511 forward @7 unknown #
vertex $-1 -1 $-1 $488 $512 #
ellipse-curve $-1 -1 $-1 0 0 -0.80747658715052495 0 0 1 1.345 0 0 1 I I #
point $-1 -1 $-1 -1.9950000000000001 0 -0.68700620794502698 #
coedge $-1 -1 $-1 $505 $505 $492 $506 forward $496 $-1 #
edge $-1 -1 $-1 $513 -3.1415926535897931 $513 3.1415926535897931 $492 $514 forward @7 unknown #
loop $-1 -1 $-1 $-1 $508 $482 #
coedge $-1 -1 $-1 $508 $508 $499 $509 reversed $507 $-1 #
edge $-1 -1 $-1 $515 -3.1415926535897931 $515 3.1415926535897931 $508 $516 forward @7 unknown #
vertex $-1 -1 $-1 $501 $517 #
ellipse-curve $-1 -1 $-1 0 0 -0.92794696635602203 0 0 1 1.9950000000000001 0 0 1 I I #
point $-1 -1 $-1 -1.345 0 -0.80747658715052495 #
vertex $-1 -1 $-1 $506 $518 #
ellipse-curve $-1 -1 $-1 0 0 -1.16888772476702 0 0 1 1.9950000000000001 0 0 1 I I #
vertex $-1 -1 $-1 $509 $519 #
ellipse-curve $-1 -1 $-1 0 0 -1.04841734556152 0 0 1 1.345 0 0 1 I I #
point $-1 -1 $-1 -1.9950000000000001 0 -0.92794696635602203 #
point $-1 -1 $-1 -1.9950000000000001 0 -1.16888772476702 #
point $-1 -1 $-1 -1.345 0 -1.04841734556152 #
End-of-ACIS-data 