600 0 1 0           
67 GICL ACIS Healer - Source: bearing_208_link1_42_outer_143.sat - 6 0 18 ACIS 6.0.3 Solaris 24 Fri Mar 29 22:12:57 2002 
1 9.999999999999999547e-07 1.000000000000000036e-10 
body $1 $2 $-1 $-1 #
aggregate_advspl_attribute-aggregate_geombuild_base_attribute-aggregate_body_attribute-attrib_HH-attrib $-1 $3 $-1 $0 F #
lump $-1 $-1 $4 $0 #
aggregate_secndry_attribute-aggregate_geombuild_base_attribute-aggregate_body_attribute-attrib_HH-attrib $-1 $5 $1 $0 F #
shell $-1 $-1 $-1 $6 $-1 $2 #
aggregate_sharped_attribute-aggregate_geombuild_base_attribute-aggregate_body_attribute-attrib_HH-attrib $-1 $7 $3 $0 F #
face $8 $9 $10 $4 $-1 $11 reversed single #
aggregate_reblend_attribute-aggregate_geombuild_base_attribute-aggregate_body_attribute-attrib_HH-attrib $-1 $12 $5 $0 F #
attrib_hh_face_geombuild-attrib_entity_geombuild-individual_entity_attribute-attrib_HH-attrib $-1 $-1 $-1 $6 F #
face $13 $14 $15 $4 $-1 $16 forward single #
loop $-1 $17 $18 $6 #
plane-surface $-1 0 3.779999999999999805 1.125 0 -1 0 -0.7071067811865474617 0 0.7071067811865474617 forward_v I I I I #
aggregate_isospline_attribute-aggregate_geombuild_base_attribute-aggregate_body_attribute-attrib_HH-attrib $-1 $19 $7 $0 F #
attrib_hh_face_geombuild-attrib_entity_geombuild-individual_entity_attribute-attrib_HH-attrib $-1 $-1 $-1 $9 F #
face $20 $21 $22 $4 $-1 $23 forward single #
loop $-1 $24 $25 $9 #
plane-surface $-1 0 3.717999999999999972 1.125 0 -1 0 -0.7071067811865474617 0 0.7071067811865474617 forward_v I I I I #
loop $-1 $-1 $26 $6 #
coedge $27 $18 $18 $28 $29 forward $10 $-1 #
aggregate_analytic_solver_attribute-aggregate_geombuild_base_attribute-aggregate_body_attribute-attrib_HH-attrib $-1 $30 $12 $0 F #
attrib_hh_face_geombuild-attrib_entity_geombuild-individual_entity_attribute-attrib_HH-attrib $-1 $-1 $-1 $14 F #
face $31 $32 $33 $4 $-1 $34 forward single #
loop $-1 $35 $36 $14 #
cone-surface $-1 0 3.779999999999999805 1.125 0 -1 0 -0.3425932354848822414 0 -0.3425932354848822414 1 I I 0 1 0.4844999999999999862 forward I I I I #
loop $-1 $-1 $37 $9 #
coedge $38 $25 $25 $36 $39 reversed $15 $-1 #
coedge $40 $26 $26 $41 $42 forward $17 $-1 #
attrib_hh_coedge_geombuild-attrib_entity_geombuild-individual_entity_attribute-attrib_HH-attrib $-1 $-1 $-1 $18 F #
coedge $43 $28 $28 $18 $29 reversed $35 $-1 #
edge $44 $45 -3.141592653589793116 $45 3.141592653589793116 $28 $46 forward 7 unknown #
aggregate_geombuild_attribute-aggregate_geombuild_base_attribute-aggregate_body_attribute-attrib_HH-attrib $-1 $47 $19 $0 #
attrib_hh_face_geombuild-attrib_entity_geombuild-individual_entity_attribute-attrib_HH-attrib $-1 $-1 $-1 $21 F #
face $48 $49 $50 $4 $-1 $51 forward single #
loop $-1 $52 $53 $21 #
plane-surface $-1 0 3.498999999999999666 1.125 0 -1 0 -0.7071067811865474617 0 0.7071067811865474617 forward_v I I I I #
loop $-1 $-1 $28 $14 #
coedge $54 $36 $36 $25 $39 forward $22 $-1 #
coedge $55 $37 $37 $56 $57 forward $24 $-1 #
attrib_hh_coedge_geombuild-attrib_entity_geombuild-individual_entity_attribute-attrib_HH-attrib $-1 $-1 $-1 $25 F #
edge $58 $59 5.911976240893694712e-17 $59 6.283185307179586232 $36 $60 forward 7 unknown #
attrib_hh_coedge_geombuild-attrib_entity_geombuild-individual_entity_attribute-attrib_HH-attrib $-1 $-1 $-1 $26 F #
coedge $61 $41 $41 $26 $42 reversed $62 $-1 #
edge $63 $64 -3.141592653589793116 $64 3.141592653589793116 $41 $65 forward 7 unknown #
attrib_hh_coedge_geombuild-attrib_entity_geombuild-individual_entity_attribute-attrib_HH-attrib $-1 $-1 $-1 $28 F #
attrib_hh_edge_geombuild-attrib_entity_geombuild-individual_entity_attribute-attrib_HH-attrib $-1 $-1 $-1 $29 F #
vertex $66 $29 $67 #
ellipse-curve $-1 0 3.779999999999999805 1.125 -0 1 0 0.3425932354848822414 0 0.3425932354848822414 1 I I #
aggregate_stitch_attribute-aggregate_stitch_base_attribute-aggregate_body_attribute-attrib_HH-attrib $-1 $68 $30 $0 F #
attrib_hh_face_geombuild-attrib_entity_geombuild-individual_entity_attribute-attrib_HH-attrib $-1 $-1 $-1 $32 F #
face $69 $-1 $70 $4 $-1 $71 reversed single #
loop $-1 $72 $73 $32 #
cone-surface $-1 0 3.717999999999999972 1.125 0 -1 0 -0.3093592167691144867 0 -0.3093592167691144867 1 I I 0 1 0.4375 forward I I I I #
loop $-1 $-1 $74 $21 #
coedge $75 $53 $53 $73 $76 reversed $33 $-1 #
attrib_hh_coedge_geombuild-attrib_entity_geombuild-individual_entity_attribute-attrib_HH-attrib $-1 $-1 $-1 $36 F #
attrib_hh_coedge_geombuild-attrib_entity_geombuild-individual_entity_attribute-attrib_HH-attrib $-1 $-1 $-1 $37 F #
coedge $77 $56 $56 $37 $57 reversed $72 $-1 #
edge $78 $79 -3.141592653589793116 $79 3.141592653589793116 $56 $80 forward 7 unknown #
attrib_hh_edge_geombuild-attrib_entity_geombuild-individual_entity_attribute-attrib_HH-attrib $-1 $-1 $-1 $39 F #
vertex $81 $39 $82 #
ellipse-curve $-1 0 3.717999999999999972 1.125 -0 1 0 -0.3425932354848822414 0 -0.3425932354848822414 1 I I #
attrib_hh_coedge_geombuild-attrib_entity_geombuild-individual_entity_attribute-attrib_HH-attrib $-1 $-1 $-1 $41 F #
loop $-1 $-1 $41 $49 #
attrib_hh_edge_geombuild-attrib_entity_geombuild-individual_entity_attribute-attrib_HH-attrib $-1 $-1 $-1 $42 F #
vertex $83 $42 $84 #
ellipse-curve $-1 0 3.779999999999999805 1.125 0 -1 0 0.1325825214724776491 0 0.1325825214724776491 1 I I #
attrib_hh_vertex_geombuild-attrib_entity_geombuild-individual_entity_attribute-attrib_HH-attrib $-1 $-1 $-1 $45 F #
point $-1 -0.3425932354848822414 3.779999999999999805 0.7824067645151178141 #
aggregate_simgeom_attribute-aggregate_simgeom_base_attribute-aggregate_body_attribute-attrib_HH-attrib $-1 $-1 $47 $0 F #
attrib_hh_face_geombuild-attrib_entity_geombuild-individual_entity_attribute-attrib_HH-attrib $-1 $-1 $-1 $49 F #
loop $-1 $62 $85 $49 #
cone-surface $-1 0 3.498999999999999666 1.125 -0 1 0 -0.1325825214724776491 0 -0.1325825214724776491 1 I I 0 1 0.1875 forward I I I I #
loop $-1 $-1 $56 $32 #
coedge $86 $73 $73 $53 $76 forward $50 $-1 #
coedge $87 $74 $74 $85 $88 reversed $52 $-1 #
attrib_hh_coedge_geombuild-attrib_entity_geombuild-individual_entity_attribute-attrib_HH-attrib $-1 $-1 $-1 $53 F #
edge $89 $90 0 $90 6.283185307179586232 $73 $91 forward 7 unknown #
attrib_hh_coedge_geombuild-attrib_entity_geombuild-individual_entity_attribute-attrib_HH-attrib $-1 $-1 $-1 $56 F #
attrib_hh_edge_geombuild-attrib_entity_geombuild-individual_entity_attribute-attrib_HH-attrib $-1 $-1 $-1 $57 F #
vertex $92 $57 $93 #
ellipse-curve $-1 0 3.717999999999999972 1.125 -0 1 0 0.3093592167691144867 0 0.3093592167691144867 1 I I #
attrib_hh_vertex_geombuild-attrib_entity_geombuild-individual_entity_attribute-attrib_HH-attrib $-1 $-1 $-1 $59 F #
point $-1 -0.3425932354848822414 3.717999999999999972 0.7824067645151178141 #
attrib_hh_vertex_geombuild-attrib_entity_geombuild-individual_entity_attribute-attrib_HH-attrib $-1 $-1 $-1 $64 F #
point $-1 -0.1325825214724776491 3.779999999999999805 0.9924174785275223787 #
coedge $94 $85 $85 $74 $88 forward $70 $-1 #
attrib_hh_coedge_geombuild-attrib_entity_geombuild-individual_entity_attribute-attrib_HH-attrib $-1 $-1 $-1 $73 F #
attrib_hh_coedge_geombuild-attrib_entity_geombuild-individual_entity_attribute-attrib_HH-attrib $-1 $-1 $-1 $74 F #
edge $95 $96 -9.868649107779173631e-17 $96 6.283185307179586232 $85 $97 forward 7 unknown #
attrib_hh_edge_geombuild-attrib_entity_geombuild-individual_entity_attribute-attrib_HH-attrib $-1 $-1 $-1 $76 F #
vertex $98 $76 $99 #
ellipse-curve $-1 0 3.498999999999999666 1.125 -0 1 0 -0.3093592167691144867 0 -0.3093592167691144867 1 I I #
attrib_hh_vertex_geombuild-attrib_entity_geombuild-individual_entity_attribute-attrib_HH-attrib $-1 $-1 $-1 $79 F #
point $-1 -0.3093592167691144867 3.717999999999999972 0.8156407832308855133 #
attrib_hh_coedge_geombuild-attrib_entity_geombuild-individual_entity_attribute-attrib_HH-attrib $-1 $-1 $-1 $85 F #
attrib_hh_edge_geombuild-attrib_entity_geombuild-individual_entity_attribute-attrib_HH-attrib $-1 $-1 $-1 $88 F #
vertex $100 $88 $101 #
ellipse-curve $-1 0 3.498999999999999666 1.125 0 -1 0 -0.1325825214724776491 0 -0.1325825214724776491 1 I I #
attrib_hh_vertex_geombuild-attrib_entity_geombuild-individual_entity_attribute-attrib_HH-attrib $-1 $-1 $-1 $90 F #
point $-1 -0.3093592167691144867 3.498999999999999666 0.8156407832308855133 #
attrib_hh_vertex_geombuild-attrib_entity_geombuild-individual_entity_attribute-attrib_HH-attrib $-1 $-1 $-1 $96 F #
point $-1 -0.1325825214724776491 3.498999999999999666 0.9924174785275223787 #
End-of-ACIS-data 