600 0 2 0           
24 FBMach with ACIS - 6.0.3 13 ACIS 6.0.3 NT 24 Mon Apr 01 00:08:27 2002 
1 9.9999999999999995e-007 1e-010 
body $2 $3 $-1 $4 #
bdycol-kcp $-1 1 5 $5 $6 $7 $8 $9 #
model_id-kcp-attrib $-1 $10 $-1 $0 1 1017637707 80 776994817 1 #
lump $-1 $-1 $11 $0 #
transform $-1 1 0 0 0 1 0 0 0 1 0 0 0 1 rotate no_reflect no_shear #
body $12 $13 $-1 $14 #
body $15 $16 $-1 $17 #
body $18 $19 $-1 $20 #
body $21 $22 $-1 $23 #
body $24 $25 $-1 $26 #
aggregate_advspl_attribute-aggregate_geombuild_base_attribute-aggregate_body_attribute-attrib_HH-attrib $-1 $27 $2 $0 F #
shell $-1 $-1 $-1 $28 $-1 $3 #
model_id-kcp-attrib $-1 $-1 $-1 $5 1 1017637707 80 776994818 1 #
lump $-1 $-1 $29 $5 #
transform $-1 1 0 0 0 1 0 0 0 1 0 -5 -1.7763568394002505e-014 1 no_rotate no_reflect no_shear #
rgb_color-st-attrib $-1 $30 $-1 $6 0.5 1 1 #
lump $-1 $-1 $31 $6 #
transform $-1 1 0 0 0 -3.8285889215894375e-016 1 0 -1 -3.8285889215894375e-016 0 -13.75 -6.7436758700869256e-014 1 rotate no_reflect no_shear #
rgb_color-st-attrib $-1 $32 $-1 $7 0.5 1 1 #
lump $-1 $-1 $33 $7 #
transform $-1 1 0 0 0 -3.8285889215894375e-016 1 0 -1 -3.8285889215894375e-016 30 -16 -6.8298191208226879e-014 1 rotate no_reflect no_shear #
rgb_color-st-attrib $-1 $34 $-1 $8 0.5 1 1 #
lump $-1 $-1 $35 $8 #
transform $-1 1 0 0 0 -3.8285889215894375e-016 1 0 -1 -3.8285889215894375e-016 -30 -13.75 -6.7436758700869256e-014 1 rotate no_reflect no_shear #
rgb_color-st-attrib $-1 $36 $-1 $9 0.5 1 1 #
lump $-1 $-1 $37 $9 #
transform $-1 1 0 0 0 -3.8285889215894375e-016 1 0 -1 -3.8285889215894375e-016 -60 -12.5 -6.6958185085670576e-014 1 rotate no_reflect no_shear #
aggregate_secndry_attribute-aggregate_geombuild_base_attribute-aggregate_body_attribute-attrib_HH-attrib $-1 $38 $10 $0 F #
face $39 $40 $41 $11 $-1 $42 reversed single #
shell $-1 $-1 $-1 $43 $-1 $13 #
model_id-kcp-attrib $-1 $-1 $15 $6 1 1017637707 210 785514499 1 #
shell $-1 $-1 $-1 $44 $-1 $16 #
model_id-kcp-attrib $-1 $-1 $18 $7 1 1017637707 220 786169860 1 #
shell $-1 $-1 $-1 $45 $-1 $19 #
model_id-kcp-attrib $-1 $-1 $21 $8 1 1017637707 220 786169861 1 #
shell $-1 $-1 $-1 $46 $-1 $22 #
model_id-kcp-attrib $-1 $-1 $24 $9 1 1017637707 220 786169862 1 #
shell $-1 $-1 $-1 $47 $-1 $25 #
aggregate_sharped_attribute-aggregate_geombuild_base_attribute-aggregate_body_attribute-attrib_HH-attrib $-1 $48 $27 $0 F #
model_id-kcp-attrib $-1 $49 $-1 $28 1 1017637707 80 776994817 2 #
face $50 $51 $52 $11 $-1 $53 reversed single #
loop $-1 $-1 $54 $28 #
plane-surface $-1 0 2.6645352591003757e-015 -15 0 0 1 1 0 0 forward_v I I I I #
face $55 $56 $57 $29 $-1 $58 forward single #
face $-1 $59 $60 $31 $-1 $61 forward single #
face $-1 $62 $63 $33 $-1 $64 forward single #
face $-1 $65 $66 $35 $-1 $67 forward single #
face $-1 $68 $69 $37 $-1 $70 forward single #
aggregate_reblend_attribute-aggregate_geombuild_base_attribute-aggregate_body_attribute-attrib_HH-attrib $-1 $71 $38 $0 F #
attrib_hh_face_geombuild-attrib_entity_geombuild-individual_entity_attribute-attrib_HH-attrib $-1 $-1 $39 $28 F #
model_id-kcp-attrib $-1 $72 $-1 $40 1 1017637707 80 776994817 3 #
face $73 $74 $75 $11 $-1 $76 forward single #
loop $-1 $-1 $77 $40 #
plane-surface $-1 0 20 6.9829626776862541e-014 0 -1 -3.4914813388431298e-015 1 0 0 forward_v I I I I #
coedge $78 $79 $80 $77 $81 reversed $41 $-1 #
model_id-kcp-attrib $-1 $-1 $-1 $43 1 1017637707 80 776994818 4 #
face $82 $83 $84 $29 $-1 $85 reversed single #
loop $-1 $-1 $86 $43 #
plane-surface $-1 0 0 15.000000000000012 0 0 1 1 0 0 forward_v I I I I #
face $-1 $87 $88 $31 $-1 $89 forward single #
loop $-1 $90 $91 $44 #
torus-surface $-1 0 0 -16.250000000000021 0 0 -1 4.5 2.5 -1 0 0 forward_v I I I I #
face $-1 $92 $93 $33 $-1 $94 forward single #
loop $-1 $95 $96 $45 #
cone-surface $-1 0 6.6835382603710007e-014 -17.5 0 3.1086224466841861e-015 -1 -3.5 0 0 1 I I -0.70710678118654757 0.70710678118654757 3.5 forward I I I I #
face $-1 $97 $98 $35 $-1 $99 forward single #
loop $-1 $100 $101 $46 #
cone-surface $-1 0 8.0824183613788854e-014 -19.75 0 3.1086224466841861e-015 -1 -3.5 0 0 1 I I -0.70710678118654757 0.70710678118654757 3.5 forward I I I I #
face $-1 $102 $103 $37 $-1 $104 forward single #
loop $-1 $105 $106 $47 #
cone-surface $-1 0 0 0 0 0 1 7 0 0 1 I I 0 1 7 forward I I I I #
aggregate_isospline_attribute-aggregate_geombuild_base_attribute-aggregate_body_attribute-attrib_HH-attrib $-1 $107 $48 $0 F #
attrib_hh_face_geombuild-attrib_entity_geombuild-individual_entity_attribute-attrib_HH-attrib $-1 $-1 $50 $40 F #
model_id-kcp-attrib $-1 $108 $-1 $51 1 1017637707 80 776994817 4 #
face $109 $110 $111 $11 $-1 $112 reversed single #
loop $-1 $-1 $113 $51 #
plane-surface $-1 0 -2.6645352591003757e-015 15 0 0 1 1 0 0 forward_v I I I I #
coedge $114 $115 $116 $54 $81 forward $52 $-1 #
attrib_hh_coedge_geombuild-attrib_entity_geombuild-individual_entity_attribute-attrib_HH-attrib $-1 $-1 $-1 $54 F #
coedge $117 $118 $54 $119 $120 reversed $41 $-1 #
coedge $121 $54 $118 $122 $123 reversed $41 $-1 #
edge $124 $125 -75 $126 75 $77 $127 forward 7 unknown #
model_id-kcp-attrib $-1 $-1 $-1 $56 1 1017637707 80 776994818 2 #
face $128 $129 $130 $29 $-1 $131 reversed single #
loop $-1 $-1 $132 $56 #
plane-surface $-1 0 0 -15.000000000000012 0 0 1 1 0 0 forward_v I I I I #
coedge $-1 $133 $134 $135 $136 forward $57 $-1 #
face $-1 $137 $138 $31 $-1 $139 forward single #
loop $-1 $-1 $140 $59 #
plane-surface $-1 0 0 -18.750000000000021 0 0 -1 -1 0 0 forward_v I I I I #
loop $-1 $-1 $141 $44 #
coedge $-1 $91 $91 $142 $143 forward $60 $-1 #
face $-1 $-1 $144 $33 $-1 $145 forward single #
loop $-1 $146 $147 $62 #
cone-surface $-1 0 0 0 0 0 1 7 0 0 1 I I 0 1 7 forward I I I I #
loop $-1 $-1 $148 $45 #
coedge $-1 $96 $96 $147 $149 forward $63 $-1 #
face $-1 $-1 $150 $35 $-1 $151 forward single #
loop $-1 $152 $153 $65 #
cone-surface $-1 0 0 0 0 0 1 7 0 0 1 I I 0 1 7 forward I I I I #
loop $-1 $-1 $154 $46 #
coedge $-1 $101 $101 $153 $155 forward $66 $-1 #
face $-1 $-1 $156 $37 $-1 $157 forward single #
loop $-1 $-1 $158 $68 #
plane-surface $-1 0 0 -17.500000000000021 0 0 -1 -1 0 0 forward_v I I I I #
loop $-1 $-1 $159 $47 #
coedge $-1 $106 $106 $158 $160 reversed $69 $-1 #
aggregate_analytic_solver_attribute-aggregate_geombuild_base_attribute-aggregate_body_attribute-attrib_HH-attrib $-1 $161 $71 $0 F #
attrib_hh_face_geombuild-attrib_entity_geombuild-individual_entity_attribute-attrib_HH-attrib $-1 $-1 $73 $51 F #
model_id-kcp-attrib $-1 $162 $-1 $74 1 1017637707 80 776994817 5 #
face $163 $164 $165 $11 $-1 $166 reversed single #
loop $-1 $-1 $122 $74 #
plane-surface $-1 -75 -5 -1.7457406694215701e-014 1 0 0 0 1 3.4914813388431298e-015 forward_v I I I I #
coedge $167 $168 $169 $170 $171 reversed $75 $-1 #
attrib_hh_coedge_geombuild-attrib_entity_geombuild-individual_entity_attribute-attrib_HH-attrib $-1 $-1 $-1 $77 F #
coedge $172 $173 $77 $174 $175 forward $52 $-1 #
coedge $176 $77 $173 $177 $178 forward $52 $-1 #
attrib_hh_coedge_geombuild-attrib_entity_geombuild-individual_entity_attribute-attrib_HH-attrib $-1 $-1 $-1 $79 F #
coedge $179 $80 $79 $180 $181 reversed $41 $-1 #
coedge $182 $177 $183 $79 $120 forward $184 $-1 #
edge $185 $186 -27.49999999999995 $125 22.50000000000005 $119 $187 forward 7 unknown #
attrib_hh_coedge_geombuild-attrib_entity_geombuild-individual_entity_attribute-attrib_HH-attrib $-1 $-1 $-1 $80 F #
coedge $188 $189 $174 $80 $123 forward $111 $-1 #
edge $190 $126 -22.50000000000005 $191 27.49999999999995 $122 $192 forward 7 unknown #
attrib_edge_convexity-kcp-attrib $-1 $193 $-1 $81 1 #
vertex $194 $178 $195 #
vertex $196 $123 $197 #
straight-curve $-1 0 20.000000000000053 -15.00000000000003 -1 0 0 I I #
model_id-kcp-attrib $-1 $-1 $-1 $83 1 1017637707 80 776994818 6 #
face $198 $199 $200 $29 $-1 $201 reversed single #
loop $-1 $-1 $202 $83 #
plane-surface $-1 0 -25.000000000000053 0 0 1 0 0 0 1 forward_v I I I I #
coedge $-1 $203 $204 $205 $206 forward $84 $-1 #
coedge $-1 $207 $86 $208 $209 forward $57 $-1 #
coedge $-1 $86 $207 $210 $211 forward $57 $-1 #
coedge $-1 $212 $213 $86 $136 reversed $214 $-1 #
edge $-1 $215 -25.000000000000053 $216 25.000000000000053 $135 $217 forward 7 unknown #
face $-1 $-1 $218 $31 $-1 $219 forward single #
loop $-1 $220 $142 $87 #
cone-surface $-1 0 0 0 0 0 1 7 0 0 1 I I 0 1 7 forward I I I I #
coedge $-1 $140 $140 $141 $221 reversed $88 $-1 #
coedge $-1 $141 $141 $140 $221 forward $90 $-1 #
coedge $-1 $142 $142 $91 $143 reversed $138 $-1 #
edge $-1 $222 0 $222 6.2831853071795862 $142 $223 forward 7 unknown #
loop $-1 $-1 $224 $92 #
plane-surface $-1 0 0 14.000000000000021 0 0 1 1 0 0 forward_v I I I I #
loop $-1 $-1 $225 $62 #
coedge $-1 $147 $147 $96 $149 reversed $93 $-1 #
coedge $-1 $148 $148 $-1 $226 reversed $95 $-1 #
edge $-1 $227 0 $227 6.2831853071795862 $147 $228 forward 7 unknown #
loop $-1 $-1 $229 $97 #
plane-surface $-1 0 0 16.250000000000021 0 0 1 1 0 0 forward_v I I I I #
loop $-1 $-1 $230 $65 #
coedge $-1 $153 $153 $101 $155 reversed $98 $-1 #
coedge $-1 $154 $154 $-1 $231 reversed $100 $-1 #
edge $-1 $232 0 $232 6.2831853071795862 $153 $233 forward 7 unknown #
loop $-1 $-1 $234 $102 #
plane-surface $-1 0 0 17.500000000000021 0 0 1 1 0 0 forward_v I I I I #
coedge $-1 $158 $158 $106 $160 forward $103 $-1 #
coedge $-1 $159 $159 $234 $235 reversed $105 $-1 #
edge $-1 $236 0 $236 6.2831853071795862 $158 $237 forward 7 unknown #
aggregate_geombuild_attribute-aggregate_geombuild_base_attribute-aggregate_body_attribute-attrib_HH-attrib $-1 $238 $107 $0 #
attrib_hh_face_geombuild-attrib_entity_geombuild-individual_entity_attribute-attrib_HH-attrib $-1 $-1 $109 $74 F #
model_id-kcp-attrib $-1 $239 $-1 $110 1 1017637707 80 776994817 6 #
face $240 $241 $242 $11 $-1 $243 reversed single #
loop $-1 $-1 $244 $110 #
sphere-surface $-1 60 -2 -6.9829626776863125e-015 7 1 0 0 0 -1 -3.4914813388431298e-015 forward_v I I I I #
attrib_hh_coedge_geombuild-attrib_entity_geombuild-individual_entity_attribute-attrib_HH-attrib $-1 $-1 $-1 $113 F #
coedge $245 $246 $113 $247 $248 reversed $75 $-1 #
coedge $249 $113 $246 $250 $251 reversed $75 $-1 #
coedge $252 $253 $254 $113 $171 forward $255 $-1 #
edge $256 $257 -75 $258 75 $170 $259 forward 7 unknown #
attrib_hh_coedge_geombuild-attrib_entity_geombuild-individual_entity_attribute-attrib_HH-attrib $-1 $-1 $-1 $115 F #
coedge $260 $116 $115 $246 $261 forward $52 $-1 #
coedge $262 $122 $250 $115 $175 reversed $111 $-1 #
edge $263 $126 -15.000000000000099 $264 14.999999999999901 $174 $265 forward 7 unknown #
attrib_hh_coedge_geombuild-attrib_entity_geombuild-individual_entity_attribute-attrib_HH-attrib $-1 $-1 $-1 $116 F #
coedge $266 $247 $119 $116 $178 reversed $184 $-1 #
edge $267 $268 -14.999999999999901 $125 15.000000000000099 $177 $269 forward 7 unknown #
attrib_hh_coedge_geombuild-attrib_entity_geombuild-individual_entity_attribute-attrib_HH-attrib $-1 $-1 $-1 $118 F #
coedge $270 $254 $253 $118 $181 forward $255 $-1 #
edge $271 $191 -75 $186 75 $180 $272 forward 7 unknown #
attrib_hh_coedge_geombuild-attrib_entity_geombuild-individual_entity_attribute-attrib_HH-attrib $-1 $-1 $-1 $119 F #
coedge $273 $119 $247 $254 $274 reversed $184 $-1 #
loop $-1 $-1 $119 $275 #
attrib_edge_convexity-kcp-attrib $-1 $276 $-1 $120 1 #
vertex $277 $181 $278 #
straight-curve $-1 75 -2.4999999999999978 -15.000000000000009 0 1 0 I I #
attrib_hh_coedge_geombuild-attrib_entity_geombuild-individual_entity_attribute-attrib_HH-attrib $-1 $-1 $-1 $122 F #
coedge $279 $250 $122 $253 $280 reversed $111 $-1 #
attrib_edge_convexity-kcp-attrib $-1 $281 $-1 $123 1 #
vertex $282 $280 $283 #
straight-curve $-1 -75 -2.4999999999999978 -15.000000000000009 0 -1 0 I I #
convexity-sys-attrib $-1 $284 $124 $81 #
attrib_hh_vertex_geombuild-attrib_entity_geombuild-individual_entity_attribute-attrib_HH-attrib $-1 $-1 $-1 $125 F #
point $-1 75 20.000000000000053 -15.00000000000003 #
attrib_hh_vertex_geombuild-attrib_entity_geombuild-individual_entity_attribute-attrib_HH-attrib $-1 $-1 $-1 $126 F #
point $-1 -75 20.000000000000053 -15.00000000000003 #
model_id-kcp-attrib $-1 $-1 $-1 $129 1 1017637707 80 776994818 5 #
face $285 $286 $287 $29 $-1 $288 reversed single #
loop $-1 $-1 $289 $129 #
plane-surface $-1 -75 0 0 1 0 0 0 0 -1 forward_v I I I I #
coedge $-1 $290 $210 $291 $292 forward $130 $-1 #
coedge $-1 $293 $132 $290 $294 forward $84 $-1 #
coedge $-1 $132 $293 $295 $296 forward $84 $-1 #
coedge $-1 $213 $212 $132 $206 reversed $214 $-1 #
edge $-1 $297 -25.000000000000053 $298 25.000000000000053 $205 $299 forward 7 unknown #
coedge $-1 $134 $133 $300 $301 forward $57 $-1 #
coedge $-1 $302 $303 $133 $209 reversed $287 $-1 #
edge $-1 $216 -75 $304 75 $208 $305 forward 7 unknown #
coedge $-1 $202 $306 $134 $211 reversed $130 $-1 #
edge $-1 $307 -75 $215 75 $210 $308 forward 7 unknown #
coedge $-1 $205 $135 $306 $309 forward $214 $-1 #
coedge $-1 $135 $205 $302 $310 reversed $214 $-1 #
loop $-1 $-1 $212 $286 #
vertex $-1 $136 $311 #
vertex $-1 $136 $312 #
straight-curve $-1 75 0 15.000000000000012 0 1 0 I I #
loop $-1 $-1 $313 $137 #
plane-surface $-1 0 0 16.250000000000021 0 0 1 1 0 0 forward_v I I I I #
loop $-1 $-1 $314 $87 #
edge $-1 $315 -3.1415926535897931 $315 3.1415926535897931 $140 $316 forward 7 unknown #
vertex $-1 $143 $317 #
ellipse-curve $-1 0 0 -16.250000000000021 0 0 -1 7 0 0 1 I I #
coedge $-1 $224 $224 $225 $318 forward $144 $-1 #
coedge $-1 $225 $225 $224 $318 reversed $146 $-1 #
edge $-1 $319 1 $319 0 $148 $-1 forward 7 unknown #
vertex $-1 $149 $320 #
ellipse-curve $-1 0 0 -14.000000000000021 0 0 -1 7 0 0 1 I I #
coedge $-1 $229 $229 $230 $321 forward $150 $-1 #
coedge $-1 $230 $230 $229 $321 reversed $152 $-1 #
edge $-1 $322 1 $322 0 $154 $-1 forward 7 unknown #
vertex $-1 $155 $323 #
ellipse-curve $-1 0 0 -16.250000000000021 0 0 -1 7 0 0 1 I I #
coedge $-1 $234 $234 $159 $235 forward $156 $-1 #
edge $-1 $324 0 $324 6.2831853071795862 $234 $325 forward 7 unknown #
vertex $-1 $160 $326 #
ellipse-curve $-1 0 0 -17.500000000000021 0 0 -1 7 0 0 1 I I #
aggregate_stitch_attribute-aggregate_stitch_base_attribute-aggregate_body_attribute-attrib_HH-attrib $-1 $327 $161 $0 F #
attrib_hh_face_geombuild-attrib_entity_geombuild-individual_entity_attribute-attrib_HH-attrib $-1 $-1 $163 $110 F #
model_id-kcp-attrib $-1 $328 $-1 $164 1 1017637707 80 776994817 7 #
face $329 $330 $331 $11 $-1 $332 reversed single #
loop $-1 $333 $334 $164 #
cone-surface $-1 60 -20 -6.9829626776862654e-014 0 -1 -3.4914813388431298e-015 7 0 0 1 I I 0 1 7 forward I I I I #
coedge $335 $244 $244 $336 $337 reversed $165 $-1 #
attrib_hh_coedge_geombuild-attrib_entity_geombuild-individual_entity_attribute-attrib_HH-attrib $-1 $-1 $-1 $168 F #
coedge $338 $169 $168 $173 $261 reversed $75 $-1 #
coedge $339 $183 $177 $168 $248 forward $184 $-1 #
edge $340 $268 -22.49999999999995 $257 27.50000000000005 $247 $341 forward 7 unknown #
attrib_hh_coedge_geombuild-attrib_entity_geombuild-individual_entity_attribute-attrib_HH-attrib $-1 $-1 $-1 $169 F #
coedge $342 $174 $189 $169 $251 forward $111 $-1 #
edge $343 $258 -27.50000000000005 $264 22.49999999999995 $250 $344 forward 7 unknown #
attrib_hh_coedge_geombuild-attrib_entity_geombuild-individual_entity_attribute-attrib_HH-attrib $-1 $-1 $-1 $170 F #
coedge $345 $180 $170 $189 $280 forward $255 $-1 #
coedge $346 $170 $180 $183 $274 forward $255 $-1 #
loop $-1 $347 $180 $348 #
attrib_hh_edge_geombuild-attrib_entity_geombuild-individual_entity_attribute-attrib_HH-attrib $-1 $-1 $-1 $171 F #
vertex $349 $274 $350 #
vertex $351 $251 $352 #
straight-curve $-1 0 -30.000000000000053 14.999999999999995 -1 0 0 I I #
attrib_hh_coedge_geombuild-attrib_entity_geombuild-individual_entity_attribute-attrib_HH-attrib $-1 $-1 $-1 $173 F #
edge $353 $264 -75 $268 75 $173 $354 forward 7 unknown #
attrib_hh_coedge_geombuild-attrib_entity_geombuild-individual_entity_attribute-attrib_HH-attrib $-1 $-1 $-1 $174 F #
attrib_edge_convexity-kcp-attrib $-1 $355 $-1 $175 1 #
vertex $356 $175 $357 #
straight-curve $-1 -75 20 6.9829626776862541e-014 0 -3.4914813388431298e-015 1 I I #
attrib_hh_coedge_geombuild-attrib_entity_geombuild-individual_entity_attribute-attrib_HH-attrib $-1 $-1 $-1 $177 F #
attrib_edge_convexity-kcp-attrib $-1 $358 $-1 $178 1 #
vertex $359 $261 $360 #
straight-curve $-1 75 20 6.9829626776862541e-014 0 3.4914813388431298e-015 -1 I I #
attrib_hh_coedge_geombuild-attrib_entity_geombuild-individual_entity_attribute-attrib_HH-attrib $-1 $-1 $-1 $180 F #
attrib_edge_convexity-kcp-attrib $-1 $361 $-1 $181 1 #
straight-curve $-1 0 -29.999999999999947 -15.000000000000005 1 0 0 I I #
attrib_hh_coedge_geombuild-attrib_entity_geombuild-individual_entity_attribute-attrib_HH-attrib $-1 $-1 $-1 $183 F #
edge $362 $186 -14.999999999999901 $257 15.000000000000099 $183 $363 forward 7 unknown #
face $364 $-1 $184 $11 $-1 $365 reversed single #
convexity-sys-attrib $-1 $366 $185 $120 #
attrib_hh_vertex_geombuild-attrib_entity_geombuild-individual_entity_attribute-attrib_HH-attrib $-1 $-1 $-1 $186 F #
point $-1 75 -29.999999999999947 -15.000000000000005 #
attrib_hh_coedge_geombuild-attrib_entity_geombuild-individual_entity_attribute-attrib_HH-attrib $-1 $-1 $-1 $189 F #
edge $367 $258 -15.000000000000099 $191 14.999999999999901 $189 $368 forward 7 unknown #
convexity-sys-attrib $-1 $369 $190 $123 #
attrib_hh_vertex_geombuild-attrib_entity_geombuild-individual_entity_attribute-attrib_HH-attrib $-1 $-1 $-1 $191 F #
point $-1 -75 -29.999999999999947 -15.000000000000005 #
attrib_hh_edge_geombuild-attrib_entity_geombuild-individual_entity_attribute-attrib_HH-attrib $-1 $-1 $193 $81 F #
model_id-kcp-attrib $-1 $-1 $-1 $199 1 1017637707 80 776994818 3 #
face $370 $-1 $214 $29 $-1 $371 reversed single #
loop $-1 $-1 $302 $199 #
plane-surface $-1 0 25.000000000000053 0 0 -1 0 0 0 -1 forward_v I I I I #
coedge $-1 $372 $300 $303 $373 forward $200 $-1 #
coedge $-1 $306 $202 $203 $294 reversed $130 $-1 #
coedge $-1 $300 $372 $202 $292 reversed $200 $-1 #
edge $-1 $307 -15.000000000000012 $374 15.000000000000012 $291 $375 forward 7 unknown #
coedge $-1 $204 $203 $372 $376 forward $84 $-1 #
edge $-1 $298 -75 $374 75 $290 $377 forward 7 unknown #
coedge $-1 $303 $302 $204 $296 reversed $287 $-1 #
edge $-1 $378 -75 $297 75 $295 $379 forward 7 unknown #
vertex $-1 $206 $380 #
vertex $-1 $309 $381 #
straight-curve $-1 75 0 -15.000000000000012 0 -1 0 I I #
coedge $-1 $289 $291 $207 $301 reversed $200 $-1 #
edge $-1 $304 -25.000000000000053 $307 25.000000000000053 $300 $382 forward 7 unknown #
coedge $-1 $295 $208 $213 $310 forward $287 $-1 #
coedge $-1 $208 $295 $289 $373 reversed $287 $-1 #
vertex $-1 $209 $383 #
straight-curve $-1 0 25.000000000000053 15.000000000000012 -1 0 0 I I #
coedge $-1 $210 $290 $212 $309 reversed $130 $-1 #
vertex $-1 $301 $384 #
straight-curve $-1 0 -25.000000000000053 15.000000000000012 1 0 0 I I #
edge $-1 $215 -15.000000000000012 $298 15.000000000000012 $212 $385 forward 7 unknown #
edge $-1 $216 -15.000000000000012 $297 15.000000000000012 $213 $386 forward 7 unknown #
point $-1 75 -25.000000000000053 15.000000000000012 #
point $-1 75 25.000000000000053 15.000000000000012 #
coedge $-1 $313 $313 $314 $387 forward $218 $-1 #
coedge $-1 $314 $314 $313 $387 reversed $220 $-1 #
vertex $-1 $221 $388 #
ellipse-curve $-1 0 0 -18.750000000000021 0 0 1 -4.5 -5.5107285922006977e-016 0 1 I I #
point $-1 7 0 -16.250000000000021 #
edge $-1 $389 0 $389 6.2831853071795862 $224 $390 forward 7 unknown #
vertex $-1 $226 $391 #
point $-1 7 0 -14.000000000000021 #
edge $-1 $392 0 $392 6.2831853071795862 $229 $393 forward 7 unknown #
vertex $-1 $231 $394 #
point $-1 7 0 -16.250000000000021 #
vertex $-1 $235 $395 #
ellipse-curve $-1 0 0 17.500000000000021 0 0 1 7 0 0 1 I I #
point $-1 7 0 -17.500000000000021 #
aggregate_simgeom_attribute-aggregate_simgeom_base_attribute-aggregate_body_attribute-attrib_HH-attrib $-1 $-1 $238 $0 F #
attrib_hh_face_geombuild-attrib_entity_geombuild-individual_entity_attribute-attrib_HH-attrib $-1 $-1 $240 $164 F #
model_id-kcp-attrib $-1 $396 $-1 $241 1 1017637707 80 776994817 8 #
face $397 $398 $399 $11 $-1 $400 reversed single #
loop $-1 $401 $402 $241 #
torus-surface $-1 0 2.5 8.7287033471077734e-015 0 1 3.4914813388431298e-015 4.5 2.5 -1 0 0 forward_v I I I I #
loop $-1 $-1 $336 $164 #
coedge $403 $334 $334 $404 $405 reversed $242 $-1 #
attrib_hh_coedge_geombuild-attrib_entity_geombuild-individual_entity_attribute-attrib_HH-attrib $-1 $-1 $-1 $244 F #
coedge $406 $336 $336 $244 $337 forward $333 $-1 #
edge $407 $408 0 $408 6.2831853071795862 $336 $409 forward 7 unknown #
attrib_hh_coedge_geombuild-attrib_entity_geombuild-individual_entity_attribute-attrib_HH-attrib $-1 $-1 $-1 $246 F #
attrib_hh_coedge_geombuild-attrib_entity_geombuild-individual_entity_attribute-attrib_HH-attrib $-1 $-1 $-1 $247 F #
attrib_hh_edge_geombuild-attrib_entity_geombuild-individual_entity_attribute-attrib_HH-attrib $-1 $-1 $-1 $248 F #
straight-curve $-1 75 -2.5000000000000022 14.999999999999991 0 -1 0 I I #
attrib_hh_coedge_geombuild-attrib_entity_geombuild-individual_entity_attribute-attrib_HH-attrib $-1 $-1 $-1 $250 F #
attrib_edge_convexity-kcp-attrib $-1 $410 $-1 $251 1 #
straight-curve $-1 -75 -2.5000000000000022 14.999999999999991 0 1 0 I I #
attrib_hh_coedge_geombuild-attrib_entity_geombuild-individual_entity_attribute-attrib_HH-attrib $-1 $-1 $-1 $253 F #
attrib_hh_coedge_geombuild-attrib_entity_geombuild-individual_entity_attribute-attrib_HH-attrib $-1 $-1 $-1 $254 F #
loop $-1 $411 $404 $348 #
face $412 $275 $255 $11 $-1 $413 forward single #
attrib_hh_vertex_geombuild-attrib_entity_geombuild-individual_entity_attribute-attrib_HH-attrib $-1 $-1 $-1 $257 F #
point $-1 75 -30.000000000000053 14.999999999999995 #
attrib_hh_vertex_geombuild-attrib_entity_geombuild-individual_entity_attribute-attrib_HH-attrib $-1 $-1 $-1 $258 F #
point $-1 -75 -30.000000000000053 14.999999999999995 #
attrib_edge_convexity-kcp-attrib $-1 $414 $-1 $261 1 #
straight-curve $-1 0 19.999999999999947 14.99999999999997 1 0 0 I I #
convexity-sys-attrib $-1 $415 $263 $175 #
attrib_hh_vertex_geombuild-attrib_entity_geombuild-individual_entity_attribute-attrib_HH-attrib $-1 $-1 $-1 $264 F #
point $-1 -75 19.999999999999947 14.99999999999997 #
convexity-sys-attrib $-1 $416 $267 $178 #
attrib_hh_vertex_geombuild-attrib_entity_geombuild-individual_entity_attribute-attrib_HH-attrib $-1 $-1 $-1 $268 F #
point $-1 75 19.999999999999947 14.99999999999997 #
convexity-sys-attrib $-1 $417 $271 $181 #
attrib_hh_edge_geombuild-attrib_entity_geombuild-individual_entity_attribute-attrib_HH-attrib $-1 $-1 $-1 $274 F #
straight-curve $-1 75 -30 -1.0474444016529395e-013 0 -3.4914813388431298e-015 1 I I #
model_id-kcp-attrib $-1 $418 $-1 $275 1 1017637707 80 776994817 19 #
plane-surface $-1 75 -5 -1.7457406694215701e-014 -1 0 0 0 -1 -3.4914813388431298e-015 forward_v I I I I #
attrib_hh_edge_geombuild-attrib_entity_geombuild-individual_entity_attribute-attrib_HH-attrib $-1 $-1 $276 $120 F #
attrib_edge_convexity-kcp-attrib $-1 $419 $-1 $280 1 #
straight-curve $-1 -75 -30 -1.0474444016529395e-013 0 3.4914813388431298e-015 -1 I I #
attrib_hh_edge_geombuild-attrib_entity_geombuild-individual_entity_attribute-attrib_HH-attrib $-1 $-1 $281 $123 F #
model_id-kcp-attrib $-1 $-1 $-1 $286 1 1017637707 80 776994818 7 #
plane-surface $-1 75 0 0 -1 0 0 0 0 1 forward_v I I I I #
coedge $-1 $291 $289 $293 $376 reversed $200 $-1 #
edge $-1 $304 -15.000000000000012 $378 15.000000000000012 $303 $420 forward 7 unknown #
vertex $-1 $376 $421 #
straight-curve $-1 -75 -25.000000000000053 0 0 0 -1 I I #
edge $-1 $374 -25.000000000000053 $378 25.000000000000053 $372 $422 forward 7 unknown #
straight-curve $-1 0 -25.000000000000053 -15.000000000000012 -1 0 0 I I #
vertex $-1 $296 $423 #
straight-curve $-1 0 25.000000000000053 -15.000000000000012 1 0 0 I I #
point $-1 75 25.000000000000053 -15.000000000000012 #
point $-1 75 -25.000000000000053 -15.000000000000012 #
straight-curve $-1 -75 0 15.000000000000012 0 -1 0 I I #
point $-1 -75 25.000000000000053 15.000000000000012 #
point $-1 -75 -25.000000000000053 15.000000000000012 #
straight-curve $-1 75 -25.000000000000053 0 0 0 -1 I I #
straight-curve $-1 75 25.000000000000053 0 0 0 -1 I I #
edge $-1 $424 0 $424 6.2831853071795862 $313 $425 forward 7 unknown #
point $-1 4.5 1.1021457184401395e-015 -18.750000000000021 #
vertex $-1 $318 $426 #
ellipse-curve $-1 0 0 14.000000000000021 0 0 1 7 0 0 1 I I #
point $-1 0 7.7715561167104652e-014 -21 #
vertex $-1 $321 $427 #
ellipse-curve $-1 0 0 16.250000000000021 0 0 1 7 0 0 1 I I #
point $-1 0 9.1704362177183499e-014 -23.25 #
point $-1 7 0 17.500000000000021 #
attrib_hh_face_geombuild-attrib_entity_geombuild-individual_entity_attribute-attrib_HH-attrib $-1 $-1 $329 $241 F #
model_id-kcp-attrib $-1 $428 $-1 $330 1 1017637707 80 776994817 9 #
face $429 $430 $431 $11 $-1 $432 reversed single #
loop $-1 $433 $434 $330 #
cone-surface $-1 0 -20 -6.9829626776862654e-014 0 -1 -3.4914813388431298e-015 7 0 0 1 I I 0 1 7 forward I I I I #
loop $-1 $-1 $435 $241 #
coedge $436 $402 $402 $437 $438 reversed $331 $-1 #
attrib_hh_coedge_geombuild-attrib_entity_geombuild-individual_entity_attribute-attrib_HH-attrib $-1 $-1 $-1 $334 F #
coedge $439 $404 $404 $334 $405 forward $347 $-1 #
edge $440 $441 -3.1415926535897998 $441 3.1415926535897865 $404 $442 forward 7 unknown #
attrib_hh_coedge_geombuild-attrib_entity_geombuild-individual_entity_attribute-attrib_HH-attrib $-1 $-1 $-1 $336 F #
attrib_hh_edge_geombuild-attrib_entity_geombuild-individual_entity_attribute-attrib_HH-attrib $-1 $-1 $-1 $337 F #
vertex $443 $337 $444 #
ellipse-curve $-1 60 -2 -6.9829626776863125e-015 0 1 3.4914813388431298e-015 7 0 0 1 I I #
convexity-sys-attrib $-1 $445 $343 $251 #
loop $-1 $446 $447 $348 #
model_id-kcp-attrib $-1 $448 $-1 $348 1 1017637707 80 776994817 20 #
plane-surface $-1 0 -30 -1.0474444016529395e-013 0 -1 -3.4914813388431298e-015 1 0 0 forward_v I I I I #
convexity-sys-attrib $-1 $449 $353 $261 #
attrib_hh_edge_geombuild-attrib_entity_geombuild-individual_entity_attribute-attrib_HH-attrib $-1 $-1 $355 $175 F #
attrib_hh_edge_geombuild-attrib_entity_geombuild-individual_entity_attribute-attrib_HH-attrib $-1 $-1 $358 $178 F #
attrib_hh_edge_geombuild-attrib_entity_geombuild-individual_entity_attribute-attrib_HH-attrib $-1 $-1 $361 $181 F #
attrib_hh_face_geombuild-attrib_entity_geombuild-individual_entity_attribute-attrib_HH-attrib $-1 $-1 $364 $275 F #
convexity-sys-attrib $-1 $450 $367 $280 #
straight-curve $-1 -75 25.000000000000053 0 0 0 -1 I I #
point $-1 -75 -25.000000000000053 -15.000000000000012 #
straight-curve $-1 -75 0 -15.000000000000012 0 1 0 I I #
point $-1 -75 25.000000000000053 -15.000000000000012 #
vertex $-1 $387 $451 #
ellipse-curve $-1 0 0 16.250000000000021 0 0 1 7 0 0 1 I I #
point $-1 7 0 14.000000000000021 #
point $-1 7 0 16.250000000000021 #
attrib_hh_face_geombuild-attrib_entity_geombuild-individual_entity_attribute-attrib_HH-attrib $-1 $-1 $397 $330 F #
model_id-kcp-attrib $-1 $452 $-1 $398 1 1017637707 80 776994817 10 #
face $453 $454 $455 $11 $-1 $456 reversed single #
loop $-1 $-1 $457 $398 #
plane-surface $-1 0 5 1.7457406694215594e-014 0 1 3.4914813388431298e-015 -1 0 0 forward_v I I I I #
loop $-1 $-1 $437 $330 #
coedge $458 $434 $434 $447 $459 reversed $399 $-1 #
coedge $460 $435 $435 $457 $461 reversed $401 $-1 #
attrib_hh_coedge_geombuild-attrib_entity_geombuild-individual_entity_attribute-attrib_HH-attrib $-1 $-1 $-1 $402 F #
coedge $462 $437 $437 $402 $438 forward $433 $-1 #
edge $463 $464 -3.1415926535897998 $464 3.1415926535897865 $437 $465 forward 7 unknown #
attrib_hh_coedge_geombuild-attrib_entity_geombuild-individual_entity_attribute-attrib_HH-attrib $-1 $-1 $-1 $404 F #
attrib_hh_edge_geombuild-attrib_entity_geombuild-individual_entity_attribute-attrib_HH-attrib $-1 $-1 $-1 $405 F #
vertex $466 $405 $467 #
ellipse-curve $-1 60 -30 -1.0474444016529395e-013 0 1 3.4914813388431298e-015 7 0 0 1 I I #
attrib_hh_vertex_geombuild-attrib_entity_geombuild-individual_entity_attribute-attrib_HH-attrib $-1 $-1 $-1 $408 F #
point $-1 67 -2 -6.9829626776863125e-015 #
attrib_hh_edge_geombuild-attrib_entity_geombuild-individual_entity_attribute-attrib_HH-attrib $-1 $-1 $410 $251 F #
loop $-1 $468 $469 $348 #
coedge $470 $447 $447 $434 $459 forward $411 $-1 #
model_id-kcp-attrib $-1 $471 $412 $348 1 1017637707 80 776994817 18 #
attrib_hh_edge_geombuild-attrib_entity_geombuild-individual_entity_attribute-attrib_HH-attrib $-1 $-1 $414 $261 F #
attrib_hh_edge_geombuild-attrib_entity_geombuild-individual_entity_attribute-attrib_HH-attrib $-1 $-1 $419 $280 F #
point $-1 7 0 16.250000000000021 #
attrib_hh_face_geombuild-attrib_entity_geombuild-individual_entity_attribute-attrib_HH-attrib $-1 $-1 $429 $398 F #
model_id-kcp-attrib $-1 $472 $-1 $430 1 1017637707 80 776994817 11 #
face $473 $474 $475 $11 $-1 $476 reversed single #
loop $-1 $477 $478 $430 #
cone-surface $-1 30 1.5 5.2372220082646432e-015 0 1 3.4914813388431298e-015 -3.5 -8.5333093576428669e-029 2.4440369371901899e-014 1 I I -0.70710678118654802 0.70710678118654802 3.5 forward I I I I #
coedge $479 $457 $457 $435 $461 forward $431 $-1 #
attrib_hh_coedge_geombuild-attrib_entity_geombuild-individual_entity_attribute-attrib_HH-attrib $-1 $-1 $-1 $434 F #
edge $480 $481 -3.1415926535897998 $481 3.1415926535897865 $447 $482 forward 7 unknown #
attrib_hh_coedge_geombuild-attrib_entity_geombuild-individual_entity_attribute-attrib_HH-attrib $-1 $-1 $-1 $435 F #
edge $483 $484 -3.1415926535897865 $484 3.1415926535897998 $457 $485 forward 7 unknown #
attrib_hh_coedge_geombuild-attrib_entity_geombuild-individual_entity_attribute-attrib_HH-attrib $-1 $-1 $-1 $437 F #
attrib_edge_convexity-kcp-attrib $-1 $486 $-1 $438 4 #
vertex $487 $438 $488 #
ellipse-curve $-1 0 2.5 8.7287033471077734e-015 0 1 3.4914813388431298e-015 7 0 0 1 I I #
attrib_hh_vertex_geombuild-attrib_entity_geombuild-individual_entity_attribute-attrib_HH-attrib $-1 $-1 $-1 $441 F #
point $-1 53 -30 -1.5362517890909784e-013 #
loop $-1 $489 $490 $348 #
coedge $491 $469 $469 $492 $493 forward $446 $-1 #
attrib_hh_coedge_geombuild-attrib_entity_geombuild-individual_entity_attribute-attrib_HH-attrib $-1 $-1 $-1 $447 F #
attrib_hh_face_geombuild-attrib_entity_geombuild-individual_entity_attribute-attrib_HH-attrib $-1 $-1 $448 $348 F #
attrib_hh_face_geombuild-attrib_entity_geombuild-individual_entity_attribute-attrib_HH-attrib $-1 $-1 $453 $430 F #
model_id-kcp-attrib $-1 $494 $-1 $454 1 1017637707 80 776994817 12 #
face $495 $496 $497 $11 $-1 $498 reversed single #
loop $-1 $499 $492 $454 #
cone-surface $-1 30 -20 -6.9829626776862654e-014 0 -1 -3.4914813388431298e-015 7 0 0 1 I I 0 1 7 forward I I I I #
loop $-1 $-1 $500 $430 #
coedge $501 $478 $478 $-1 $502 reversed $455 $-1 #
attrib_hh_coedge_geombuild-attrib_entity_geombuild-individual_entity_attribute-attrib_HH-attrib $-1 $-1 $-1 $457 F #
attrib_edge_convexity-kcp-attrib $-1 $503 $-1 $459 1 #
vertex $504 $459 $505 #
ellipse-curve $-1 0 -30 -1.0474444016529395e-013 0 1 3.4914813388431298e-015 7 0 0 1 I I #
attrib_hh_edge_geombuild-attrib_entity_geombuild-individual_entity_attribute-attrib_HH-attrib $-1 $-1 $-1 $461 F #
vertex $506 $461 $507 #
ellipse-curve $-1 0 5 1.7457406694215594e-014 0 -1 -3.4914813388431298e-015 4.5 0 0 1 I I #
convexity-sys-attrib $-1 $508 $463 $438 #
attrib_hh_vertex_geombuild-attrib_entity_geombuild-individual_entity_attribute-attrib_HH-attrib $-1 $-1 $-1 $464 F #
point $-1 -7 2.5 -4.0152035396696128e-014 #
loop $-1 $-1 $509 $348 #
coedge $510 $490 $490 $511 $512 forward $468 $-1 #
attrib_hh_coedge_geombuild-attrib_entity_geombuild-individual_entity_attribute-attrib_HH-attrib $-1 $-1 $-1 $469 F #
coedge $513 $492 $492 $469 $493 reversed $475 $-1 #
edge $514 $515 -3.1415926535897998 $515 3.1415926535897865 $469 $516 forward 7 unknown #
attrib_hh_face_geombuild-attrib_entity_geombuild-individual_entity_attribute-attrib_HH-attrib $-1 $-1 $473 $454 F #
model_id-kcp-attrib $-1 $517 $-1 $474 1 1017637707 80 776994817 13 #
face $518 $519 $520 $11 $-1 $521 reversed single #
loop $-1 $522 $523 $474 #
cone-surface $-1 -30 3.75 1.3093055020661687e-014 0 1 3.4914813388431298e-015 -5.75 -1.4019008230413289e-028 4.0152035396696002e-014 1 I I -0.70710678118654702 0.70710678118654702 5.75 forward I I I I #
loop $-1 $-1 $524 $454 #
coedge $525 $500 $500 $524 $526 reversed $477 $-1 #
attrib_hh_coedge_geombuild-attrib_entity_geombuild-individual_entity_attribute-attrib_HH-attrib $-1 $-1 $-1 $478 F #
edge $527 $528 1 $528 0 $478 $-1 forward 7 unknown #
convexity-sys-attrib $-1 $529 $480 $459 #
attrib_hh_vertex_geombuild-attrib_entity_geombuild-individual_entity_attribute-attrib_HH-attrib $-1 $-1 $-1 $481 F #
point $-1 -7 -30 -1.5362517890909784e-013 #
attrib_hh_vertex_geombuild-attrib_entity_geombuild-individual_entity_attribute-attrib_HH-attrib $-1 $-1 $-1 $484 F #
point $-1 -4.5 5 -1.3965925355372606e-014 #
attrib_hh_edge_geombuild-attrib_entity_geombuild-individual_entity_attribute-attrib_HH-attrib $-1 $-1 $486 $438 F #
coedge $530 $509 $509 $531 $532 forward $489 $-1 #
attrib_hh_coedge_geombuild-attrib_entity_geombuild-individual_entity_attribute-attrib_HH-attrib $-1 $-1 $-1 $490 F #
coedge $533 $511 $511 $490 $512 reversed $520 $-1 #
edge $534 $535 -3.1415926535897998 $535 3.1415926535897865 $490 $536 forward 7 unknown #
attrib_hh_coedge_geombuild-attrib_entity_geombuild-individual_entity_attribute-attrib_HH-attrib $-1 $-1 $-1 $492 F #
attrib_edge_convexity-kcp-attrib $-1 $537 $-1 $493 1 #
vertex $538 $493 $539 #
ellipse-curve $-1 30 -30 -1.0474444016529395e-013 0 1 3.4914813388431298e-015 7 0 0 1 I I #
attrib_hh_face_geombuild-attrib_entity_geombuild-individual_entity_attribute-attrib_HH-attrib $-1 $-1 $495 $474 F #
model_id-kcp-attrib $-1 $540 $-1 $496 1 1017637707 80 776994817 14 #
face $541 $542 $543 $11 $-1 $544 reversed single #
loop $-1 $545 $511 $496 #
cone-surface $-1 -30 -20 -6.9829626776862654e-014 0 -1 -3.4914813388431298e-015 7 0 0 1 I I 0 1 7 forward I I I I #
loop $-1 $-1 $546 $474 #
coedge $547 $523 $523 $548 $549 reversed $497 $-1 #
coedge $550 $524 $524 $500 $526 forward $499 $-1 #
attrib_hh_coedge_geombuild-attrib_entity_geombuild-individual_entity_attribute-attrib_HH-attrib $-1 $-1 $-1 $500 F #
edge $551 $552 0 $552 6.2831853071795862 $524 $553 forward 7 unknown #
individual_stitch_attribute-stitch_base_entity_attribute-individual_entity_attribute-attrib_HH-attrib $-1 $554 $-1 $502 F #
vertex $555 $502 $556 #
attrib_hh_edge_geombuild-attrib_entity_geombuild-individual_entity_attribute-attrib_HH-attrib $-1 $-1 $503 $459 F #
attrib_hh_coedge_geombuild-attrib_entity_geombuild-individual_entity_attribute-attrib_HH-attrib $-1 $-1 $-1 $509 F #
coedge $557 $531 $531 $509 $532 reversed $558 $-1 #
edge $559 $560 -3.1415926535897998 $560 3.1415926535897865 $509 $561 forward 7 unknown #
attrib_hh_coedge_geombuild-attrib_entity_geombuild-individual_entity_attribute-attrib_HH-attrib $-1 $-1 $-1 $511 F #
attrib_edge_convexity-kcp-attrib $-1 $562 $-1 $512 1 #
vertex $563 $512 $564 #
ellipse-curve $-1 -30 -30 -1.0474444016529395e-013 0 1 3.4914813388431298e-015 7 0 0 1 I I #
convexity-sys-attrib $-1 $565 $514 $493 #
attrib_hh_vertex_geombuild-attrib_entity_geombuild-individual_entity_attribute-attrib_HH-attrib $-1 $-1 $-1 $515 F #
point $-1 23 -30 -1.5362517890909784e-013 #
attrib_hh_face_geombuild-attrib_entity_geombuild-individual_entity_attribute-attrib_HH-attrib $-1 $-1 $518 $496 F #
model_id-kcp-attrib $-1 $566 $-1 $519 1 1017637707 80 776994817 15 #
face $567 $568 $558 $11 $-1 $569 reversed single #
loop $-1 $-1 $570 $519 #
plane-surface $-1 -30 5 1.7457406694215594e-014 0 1 3.4914813388431298e-015 -1 0 0 forward_v I I I I #
loop $-1 $-1 $548 $496 #
coedge $571 $546 $546 $570 $572 reversed $522 $-1 #
attrib_hh_coedge_geombuild-attrib_entity_geombuild-individual_entity_attribute-attrib_HH-attrib $-1 $-1 $-1 $523 F #
coedge $573 $548 $548 $523 $549 forward $545 $-1 #
edge $574 $575 -3.1415926535897998 $575 3.1415926535897865 $548 $576 forward 7 unknown #
attrib_hh_coedge_geombuild-attrib_entity_geombuild-individual_entity_attribute-attrib_HH-attrib $-1 $-1 $-1 $524 F #
attrib_edge_convexity-kcp-attrib $-1 $577 $-1 $526 2 #
vertex $578 $526 $579 #
ellipse-curve $-1 30 -2 -6.9829626776863125e-015 0 1 3.4914813388431298e-015 7 0 0 1 I I #
attrib_hh_edge_geombuild-attrib_entity_geombuild-individual_entity_attribute-attrib_HH-attrib $-1 $-1 $527 $502 F #
attrib_hh_vertex_geombuild-attrib_entity_geombuild-individual_entity_attribute-attrib_HH-attrib $-1 $-1 $-1 $528 F #
point $-1 30 5 1.7457406694215594e-014 #
attrib_hh_coedge_geombuild-attrib_entity_geombuild-individual_entity_attribute-attrib_HH-attrib $-1 $-1 $-1 $531 F #
loop $-1 $580 $531 $542 #
attrib_edge_convexity-kcp-attrib $-1 $581 $-1 $532 1 #
vertex $582 $532 $583 #
ellipse-curve $-1 -60 -30 -1.0474444016529395e-013 0 1 3.4914813388431298e-015 7 0 0 1 I I #
convexity-sys-attrib $-1 $584 $534 $512 #
attrib_hh_vertex_geombuild-attrib_entity_geombuild-individual_entity_attribute-attrib_HH-attrib $-1 $-1 $-1 $535 F #
point $-1 -37 -30 -1.5362517890909784e-013 #
attrib_hh_edge_geombuild-attrib_entity_geombuild-individual_entity_attribute-attrib_HH-attrib $-1 $-1 $537 $493 F #
attrib_hh_face_geombuild-attrib_entity_geombuild-individual_entity_attribute-attrib_HH-attrib $-1 $-1 $541 $519 F #
model_id-kcp-attrib $-1 $585 $-1 $542 1 1017637707 80 776994817 16 #
face $586 $348 $587 $11 $-1 $588 reversed single #
cone-surface $-1 -60 -20 -6.9829626776862654e-014 0 -1 -3.4914813388431298e-015 7 0 0 1 I I 0 1 7 forward I I I I #
coedge $589 $570 $570 $546 $572 forward $543 $-1 #
attrib_hh_coedge_geombuild-attrib_entity_geombuild-individual_entity_attribute-attrib_HH-attrib $-1 $-1 $-1 $546 F #
edge $590 $591 -3.1415926535897865 $591 3.1415926535897998 $570 $592 forward 7 unknown #
attrib_hh_coedge_geombuild-attrib_entity_geombuild-individual_entity_attribute-attrib_HH-attrib $-1 $-1 $-1 $548 F #
attrib_edge_convexity-kcp-attrib $-1 $593 $-1 $549 2 #
vertex $594 $549 $595 #
ellipse-curve $-1 -30 2.5 8.7287033471077734e-015 0 1 3.4914813388431298e-015 7 0 0 1 I I #
convexity-sys-attrib $-1 $596 $551 $526 #
attrib_hh_vertex_geombuild-attrib_entity_geombuild-individual_entity_attribute-attrib_HH-attrib $-1 $-1 $-1 $552 F #
point $-1 37 -2 -6.9829626776863125e-015 #
loop $-1 $-1 $597 $542 #
convexity-sys-attrib $-1 $598 $559 $532 #
attrib_hh_vertex_geombuild-attrib_entity_geombuild-individual_entity_attribute-attrib_HH-attrib $-1 $-1 $-1 $560 F #
point $-1 -67 -30 -1.5362517890909784e-013 #
attrib_hh_edge_geombuild-attrib_entity_geombuild-individual_entity_attribute-attrib_HH-attrib $-1 $-1 $562 $512 F #
attrib_hh_face_geombuild-attrib_entity_geombuild-individual_entity_attribute-attrib_HH-attrib $-1 $-1 $567 $542 F #
model_id-kcp-attrib $-1 $599 $-1 $568 1 1017637707 80 776994817 17 #
loop $-1 $-1 $600 $568 #
plane-surface $-1 -60 5 1.7457406694215594e-014 0 1 3.4914813388431298e-015 -1 0 0 forward_v I I I I #
attrib_hh_coedge_geombuild-attrib_entity_geombuild-individual_entity_attribute-attrib_HH-attrib $-1 $-1 $-1 $570 F #
attrib_hh_edge_geombuild-attrib_entity_geombuild-individual_entity_attribute-attrib_HH-attrib $-1 $-1 $-1 $572 F #
vertex $601 $572 $602 #
ellipse-curve $-1 -30 5 1.7457406694215594e-014 0 -1 -3.4914813388431298e-015 4.5 0 0 1 I I #
convexity-sys-attrib $-1 $603 $574 $549 #
attrib_hh_vertex_geombuild-attrib_entity_geombuild-individual_entity_attribute-attrib_HH-attrib $-1 $-1 $-1 $575 F #
point $-1 -37 2.5 -4.0152035396696128e-014 #
attrib_hh_edge_geombuild-attrib_entity_geombuild-individual_entity_attribute-attrib_HH-attrib $-1 $-1 $577 $526 F #
coedge $604 $597 $597 $600 $605 forward $580 $-1 #
attrib_hh_edge_geombuild-attrib_entity_geombuild-individual_entity_attribute-attrib_HH-attrib $-1 $-1 $581 $532 F #
attrib_hh_face_geombuild-attrib_entity_geombuild-individual_entity_attribute-attrib_HH-attrib $-1 $-1 $586 $568 F #
coedge $606 $600 $600 $597 $605 reversed $587 $-1 #
attrib_hh_vertex_geombuild-attrib_entity_geombuild-individual_entity_attribute-attrib_HH-attrib $-1 $-1 $-1 $591 F #
point $-1 -34.5 5 -1.3965925355372606e-014 #
attrib_hh_edge_geombuild-attrib_entity_geombuild-individual_entity_attribute-attrib_HH-attrib $-1 $-1 $593 $549 F #
attrib_hh_coedge_geombuild-attrib_entity_geombuild-individual_entity_attribute-attrib_HH-attrib $-1 $-1 $-1 $597 F #
edge $607 $608 0 $608 6.2831853071795862 $600 $609 forward 7 unknown #
attrib_hh_coedge_geombuild-attrib_entity_geombuild-individual_entity_attribute-attrib_HH-attrib $-1 $-1 $-1 $600 F #
attrib_edge_convexity-kcp-attrib $-1 $610 $-1 $605 2 #
vertex $611 $605 $612 #
ellipse-curve $-1 -60 5 1.7457406694215594e-014 0 1 3.4914813388431298e-015 7 0 0 1 I I #
convexity-sys-attrib $-1 $613 $607 $605 #
attrib_hh_vertex_geombuild-attrib_entity_geombuild-individual_entity_attribute-attrib_HH-attrib $-1 $-1 $-1 $608 F #
point $-1 -53 5 1.7457406694215594e-014 #
attrib_hh_edge_geombuild-attrib_entity_geombuild-individual_entity_attribute-attrib_HH-attrib $-1 $-1 $610 $605 F #
End-of-ACIS-data 