105 211 1 0                             
body $-1 $1 $-1 $2 #
lump $-1 $-1 $3 $0 #
transform $-1 1 0 0 0 -3.49148133884313e-15 1 0 -1 -3.49148133884313e-15 0 -5 -1.74574066942157e-14 1 1 0 0 #
shell $-1 $-1 $-1 $4 $1 #
face $-1 $5 $6 $3 $-1 $7 reversed single #
face $-1 $8 $9 $3 $-1 $10 reversed single #
loop $-1 $-1 $11 $4 #
plane-surface $-1 0 -15 -4.99999999999995 0 1 -3.49148133884313e-15 1 0 0 0 #
face $-1 $12 $13 $3 $-1 $14 forward single #
loop $-1 $-1 $15 $5 #
plane-surface $-1 0 0 -25 0 0 1 1 0 0 0 #
coedge $-1 $16 $17 $15 $18 1 $6 $-1 #
face $-1 $19 $20 $3 $-1 $21 reversed single #
loop $-1 $-1 $22 $8 #
plane-surface $-1 0 15 -5.00000000000005 0 1 -3.49148133884313e-15 1 0 0 0 #
coedge $-1 $23 $24 $11 $18 0 $9 $-1 #
coedge $-1 $25 $11 $26 $27 1 $6 $-1 #
coedge $-1 $11 $25 $28 $29 1 $6 $-1 #
edge $-1 $30 $31 $15 $32 0 #
face $-1 $33 $34 $3 $-1 $35 reversed single #
loop $-1 $-1 $28 $12 #
plane-surface $-1 -75 0 0 1 0 0 0 0 -1 0 #
coedge $-1 $36 $37 $38 $39 1 $13 $-1 #
coedge $-1 $40 $15 $41 $42 0 $9 $-1 #
coedge $-1 $15 $40 $43 $44 0 $9 $-1 #
coedge $-1 $17 $16 $45 $46 1 $6 $-1 #
coedge $-1 $43 $47 $16 $27 0 $48 $-1 #
edge $-1 $49 $30 $26 $50 0 #
coedge $-1 $51 $41 $17 $29 0 $20 $-1 #
edge $-1 $31 $52 $28 $53 0 #
vertex $-1 $44 $54 #
vertex $-1 $29 $55 #
straight-curve $-1 0 -15.0000000000001 -25 -1 0 0 #
face $-1 $56 $57 $3 $-1 $58 reversed single #
loop $-1 $-1 $59 $19 #
sphere-surface $-1 60 0 -3 7 1 0 0 0 0 1 0 #
coedge $-1 $60 $22 $61 $62 1 $13 $-1 #
coedge $-1 $22 $60 $63 $64 1 $13 $-1 #
coedge $-1 $65 $66 $22 $39 0 $67 $-1 #
edge $-1 $68 $69 $38 $70 0 #
coedge $-1 $24 $23 $60 $71 0 $9 $-1 #
coedge $-1 $28 $63 $23 $42 1 $20 $-1 #
edge $-1 $31 $72 $41 $73 0 #
coedge $-1 $61 $26 $24 $44 1 $48 $-1 #
edge $-1 $74 $30 $43 $75 0 #
coedge $-1 $66 $65 $25 $46 0 $67 $-1 #
edge $-1 $52 $49 $45 $76 0 #
coedge $-1 $26 $61 $66 $77 1 $48 $-1 #
loop $-1 $-1 $26 $78 #
vertex $-1 $46 $79 #
straight-curve $-1 75 -15 -2.49999999999995 -0 -3.49148133884313e-15 -1 #
coedge $-1 $63 $28 $65 $80 1 $20 $-1 #
vertex $-1 $80 $81 #
straight-curve $-1 -75 -15 -2.49999999999995 -0 3.49148133884313e-15 1 #
point $-1 75 -15.0000000000001 -25 #
point $-1 -75 -15.0000000000001 -25 #
face $-1 $82 $83 $3 $-1 $84 reversed single #
loop $-1 $85 $86 $33 #
cone-surface $-1 60 0 15 0 0 1 7 0 0 1 0 1 0 #
coedge $-1 $59 $59 $87 $88 1 $34 $-1 #
coedge $-1 $37 $36 $40 $71 1 $13 $-1 #
coedge $-1 $47 $43 $36 $62 0 $48 $-1 #
edge $-1 $74 $68 $61 $89 0 #
coedge $-1 $41 $51 $37 $64 0 $20 $-1 #
edge $-1 $69 $72 $63 $90 0 #
coedge $-1 $45 $38 $51 $80 0 $67 $-1 #
coedge $-1 $38 $45 $47 $77 0 $67 $-1 #
loop $-1 $91 $45 $92 #
vertex $-1 $77 $93 #
vertex $-1 $64 $94 #
straight-curve $-1 0 15.0000000000001 25 -1 0 0 #
edge $-1 $72 $74 $40 $95 0 #
vertex $-1 $42 $96 #
straight-curve $-1 -75 0 -25 0 1 0 #
vertex $-1 $71 $97 #
straight-curve $-1 75 0 -25 0 -1 0 #
straight-curve $-1 0 -14.9999999999999 25 1 -0 0 #
edge $-1 $49 $68 $47 $98 0 #
face $-1 $-1 $48 $3 $-1 $99 reversed single #
point $-1 75 -14.9999999999999 25 #
edge $-1 $69 $52 $51 $100 0 #
point $-1 -75 -14.9999999999999 25 #
face $-1 $101 $102 $3 $-1 $103 reversed single #
loop $-1 $104 $105 $56 #
torus-surface $-1 0 0 -7.5 0 0 -1 4.5 2.5 -1 0 0 0 #
loop $-1 $-1 $87 $33 #
coedge $-1 $86 $86 $106 $107 1 $57 $-1 #
coedge $-1 $87 $87 $59 $88 0 $85 $-1 #
edge $-1 $108 $108 $87 $109 0 #
straight-curve $-1 75 15 -2.50000000000005 0 3.49148133884313e-15 1 #
straight-curve $-1 -75 15 -2.50000000000005 0 -3.49148133884313e-15 -1 #
loop $-1 $110 $106 $92 #
face $-1 $78 $67 $3 $-1 $111 forward single #
point $-1 75 15.0000000000001 25 #
point $-1 -75 15.0000000000001 25 #
straight-curve $-1 0 14.9999999999999 -25 1 -0 0 #
point $-1 -75 14.9999999999999 -25 #
point $-1 75 14.9999999999999 -25 #
straight-curve $-1 75 0 25 0 1 0 #
plane-surface $-1 75 0 0 -1 0 0 0 -0 1 0 #
straight-curve $-1 -75 0 25 0 -1 0 #
face $-1 $112 $113 $3 $-1 $114 reversed single #
loop $-1 $115 $116 $82 #
cone-surface $-1 0 0 15 0 0 1 7 0 0 1 0 1 0 #
loop $-1 $-1 $117 $56 #
coedge $-1 $105 $105 $118 $119 1 $83 $-1 #
coedge $-1 $106 $106 $86 $107 0 $91 $-1 #
edge $-1 $120 $120 $106 $121 0 #
vertex $-1 $88 $122 #
ellipse-curve $-1 60 0 -3 0 0 -1 7 0 0 1 #
loop $-1 $123 $124 $92 #
plane-surface $-1 0 0 25 0 0 1 1 0 0 0 #
face $-1 $125 $126 $3 $-1 $127 reversed single #
loop $-1 $-1 $128 $101 #
plane-surface $-1 0 0 -10 0 0 -1 -1 0 0 0 #
loop $-1 $-1 $118 $82 #
coedge $-1 $116 $116 $124 $129 1 $102 $-1 #
coedge $-1 $117 $117 $128 $130 1 $104 $-1 #
coedge $-1 $118 $118 $105 $119 0 $115 $-1 #
edge $-1 $131 $131 $118 $132 0 #
vertex $-1 $107 $133 #
ellipse-curve $-1 60 0 25 -0 -0 -1 7 0 0 1 #
point $-1 67 0 -3 #
loop $-1 $134 $135 $92 #
coedge $-1 $124 $124 $116 $129 0 $110 $-1 #
face $-1 $136 $137 $3 $-1 $138 reversed single #
loop $-1 $139 $140 $112 #
cone-surface $-1 30 0 -6.5 0 0 -1 -3.5 2.44403693719019e-14 0 1 -0.707106781186548 0.707106781186548 0 #
coedge $-1 $128 $128 $117 $130 0 $113 $-1 #
edge $-1 $141 $141 $124 $142 0 #
edge $-1 $143 $143 $128 $144 0 #
vertex $-1 $119 $145 #
ellipse-curve $-1 0 0 -7.5 0 0 -1 7 0 0 1 #
point $-1 53 -4.88807387438039e-14 25 #
loop $-1 $146 $147 $92 #
coedge $-1 $135 $135 $148 $149 0 $123 $-1 #
face $-1 $150 $151 $3 $-1 $152 reversed single #
loop $-1 $153 $148 $125 #
cone-surface $-1 30 0 15 0 0 1 7 0 0 1 0 1 0 #
loop $-1 $-1 $154 $112 #
coedge $-1 $140 $140 $-1 $155 1 $126 $-1 #
vertex $-1 $129 $156 #
ellipse-curve $-1 0 0 25 -0 -0 -1 7 0 0 1 #
vertex $-1 $130 $157 #
ellipse-curve $-1 0 0 -10 0 0 1 4.5 0 0 1 #
point $-1 -7 -4.88807387438039e-14 -7.5 #
loop $-1 $-1 $158 $92 #
coedge $-1 $147 $147 $159 $160 0 $134 $-1 #
coedge $-1 $148 $148 $135 $149 1 $137 $-1 #
edge $-1 $161 $161 $135 $162 0 #
face $-1 $163 $164 $3 $-1 $165 reversed single #
loop $-1 $166 $167 $136 #
cone-surface $-1 -30 0 -8.75 0 0 -1 -5.75 4.0152035396696e-14 0 1 -0.707106781186547 0.707106781186547 0 #
loop $-1 $-1 $168 $125 #
coedge $-1 $154 $154 $168 $169 1 $139 $-1 #
edge $-1 $170 $170 $140 $-1 0 #
point $-1 -7 -4.88807387438039e-14 25 #
point $-1 -4.5 -3.14233320495882e-14 -10 #
coedge $-1 $158 $158 $171 $172 0 $146 $-1 #
coedge $-1 $159 $159 $147 $160 1 $164 $-1 #
edge $-1 $173 $173 $147 $174 0 #
vertex $-1 $149 $175 #
ellipse-curve $-1 30 0 25 -0 -0 -1 7 0 0 1 #
face $-1 $176 $177 $3 $-1 $178 reversed single #
loop $-1 $179 $159 $150 #
cone-surface $-1 -30 0 15 0 0 1 7 0 0 1 0 1 0 #
loop $-1 $-1 $180 $136 #
coedge $-1 $167 $167 $181 $182 1 $151 $-1 #
coedge $-1 $168 $168 $154 $169 0 $153 $-1 #
edge $-1 $183 $183 $168 $184 0 #
vertex $-1 $155 $185 #
coedge $-1 $171 $171 $158 $172 1 $186 $-1 #
edge $-1 $187 $187 $158 $188 0 #
vertex $-1 $160 $189 #
ellipse-curve $-1 -30 0 25 -0 -0 -1 7 0 0 1 #
point $-1 23 -4.88807387438039e-14 25 #
face $-1 $190 $186 $3 $-1 $191 reversed single #
loop $-1 $-1 $192 $163 #
plane-surface $-1 -30 0 -10 0 0 -1 -1 0 0 0 #
loop $-1 $-1 $181 $150 #
coedge $-1 $180 $180 $192 $193 1 $166 $-1 #
coedge $-1 $181 $181 $167 $182 0 $179 $-1 #
edge $-1 $194 $194 $181 $195 0 #
vertex $-1 $169 $196 #
ellipse-curve $-1 30 0 -3 0 0 -1 7 0 0 1 #
point $-1 30 0 -10 #
loop $-1 $197 $171 $176 #
vertex $-1 $172 $198 #
ellipse-curve $-1 -60 0 25 -0 -0 -1 7 0 0 1 #
point $-1 -37 -4.88807387438039e-14 25 #
face $-1 $92 $199 $3 $-1 $200 reversed single #
cone-surface $-1 -60 0 15 0 0 1 7 0 0 1 0 1 0 #
coedge $-1 $192 $192 $180 $193 0 $177 $-1 #
edge $-1 $201 $201 $192 $202 0 #
vertex $-1 $182 $203 #
ellipse-curve $-1 -30 0 -7.5 0 0 -1 7 0 0 1 #
point $-1 37 0 -3 #
loop $-1 $-1 $204 $176 #
point $-1 -67 -4.88807387438039e-14 25 #
loop $-1 $-1 $205 $190 #
plane-surface $-1 -60 0 -10 0 0 -1 -1 0 0 0 #
vertex $-1 $193 $206 #
ellipse-curve $-1 -30 0 -10 0 0 1 4.5 0 0 1 #
point $-1 -37 -4.88807387438039e-14 -7.5 #
coedge $-1 $204 $204 $205 $207 0 $197 $-1 #
coedge $-1 $205 $205 $204 $207 1 $199 $-1 #
point $-1 -34.5 -3.14233320495882e-14 -10 #
edge $-1 $208 $208 $205 $209 0 #
vertex $-1 $207 $210 #
ellipse-curve $-1 -60 0 -10 0 0 -1 7 0 0 1 #
point $-1 -53 0 -10 #
