600 0 2 0           
24 FBMach with ACIS - 6.0.3 13 ACIS 6.0.3 NT 24 Tue May 22 12:36:29 2001 
1 9.9999999999999995e-007 1e-010 
body $2 $3 $-1 $4 #
bdycol-kcp $-1 1 5 $5 $6 $7 $8 $9 #
model_id-kcp-attrib $-1 $-1 $-1 $0 1 990549389 70 -96075775 1 #
lump $-1 $-1 $10 $0 #
transform $-1 1 0 0 0 -3.4914813388431298e-015 1 0 -1 -3.4914813388431298e-015 0 -5 -1.7763568394002505e-014 1 rotate no_reflect no_shear #
body $11 $12 $-1 $13 #
body $14 $15 $-1 $16 #
body $17 $18 $-1 $19 #
body $20 $21 $-1 $22 #
body $23 $24 $-1 $25 #
shell $-1 $-1 $-1 $26 $-1 $3 #
model_id-kcp-attrib $-1 $-1 $-1 $5 1 990549389 70 -96075774 1 #
lump $-1 $-1 $27 $5 #
transform $-1 1 0 0 0 1 0 0 0 1 0 -5 -1.7763568394002505e-014 1 no_rotate no_reflect no_shear #
rgb_color-st-attrib $-1 $28 $-1 $6 0.5 1 1 #
lump $-1 $-1 $29 $6 #
transform $-1 1 0 0 0 -3.8285889215894375e-016 1 0 -1 -3.8285889215894375e-016 0 -13.75 -6.7436758700869256e-014 1 rotate no_reflect no_shear #
rgb_color-st-attrib $-1 $30 $-1 $7 0.5 1 1 #
lump $-1 $-1 $31 $7 #
transform $-1 1 0 0 0 -3.8285889215894375e-016 1 0 -1 -3.8285889215894375e-016 30 -16 -6.8298191208226879e-014 1 rotate no_reflect no_shear #
rgb_color-st-attrib $-1 $32 $-1 $8 0.5 1 1 #
lump $-1 $-1 $33 $8 #
transform $-1 1 0 0 0 -3.8285889215894375e-016 1 0 -1 -3.8285889215894375e-016 -30 -13.75 -6.7436758700869256e-014 1 rotate no_reflect no_shear #
rgb_color-st-attrib $-1 $34 $-1 $9 0.5 1 1 #
lump $-1 $-1 $35 $9 #
transform $-1 1 0 0 0 -3.8285889215894375e-016 1 0 -1 -3.8285889215894375e-016 -60 -12.5 -6.6958185085670576e-014 1 rotate no_reflect no_shear #
face $36 $37 $38 $10 $-1 $39 reversed single #
shell $-1 $-1 $-1 $40 $-1 $12 #
model_id-kcp-attrib $-1 $-1 $14 $6 1 990549389 200 -87556093 1 #
shell $-1 $-1 $-1 $41 $-1 $15 #
model_id-kcp-attrib $-1 $-1 $17 $7 1 990549389 200 -87556092 1 #
shell $-1 $-1 $-1 $42 $-1 $18 #
model_id-kcp-attrib $-1 $-1 $20 $8 1 990549389 210 -86900731 1 #
shell $-1 $-1 $-1 $43 $-1 $21 #
model_id-kcp-attrib $-1 $-1 $23 $9 1 990549389 210 -86900730 1 #
shell $-1 $-1 $-1 $44 $-1 $24 #
model_id-kcp-attrib $-1 $-1 $-1 $26 1 990549389 70 -96075775 2 #
face $45 $46 $47 $10 $-1 $48 reversed single #
loop $-1 $-1 $49 $26 #
plane-surface $-1 0 -15 -4.9999999999999503 0 1 -3.4914813388431298e-015 1 0 0 forward_v I I I I #
face $50 $51 $52 $27 $-1 $53 forward single #
face $-1 $54 $55 $29 $-1 $56 forward single #
face $-1 $57 $58 $31 $-1 $59 forward single #
face $-1 $60 $61 $33 $-1 $62 forward single #
face $-1 $63 $64 $35 $-1 $65 forward single #
model_id-kcp-attrib $-1 $-1 $-1 $37 1 990549389 70 -96075775 3 #
face $66 $67 $68 $10 $-1 $69 forward single #
loop $-1 $-1 $70 $37 #
plane-surface $-1 0 0 -25 0 0 1 1 0 0 forward_v I I I I #
coedge $-1 $71 $72 $70 $73 reversed $38 $-1 #
model_id-kcp-attrib $-1 $-1 $-1 $40 1 990549389 70 -96075774 4 #
face $74 $75 $76 $27 $-1 $77 reversed single #
loop $-1 $-1 $78 $40 #
plane-surface $-1 0 0 15.000000000000187 0 0 1 1 0 0 forward_v I I I I #
face $-1 $79 $80 $29 $-1 $81 forward single #
loop $-1 $82 $83 $41 #
torus-surface $-1 0 0 -16.250000000000021 0 0 -1 4.5 2.5 -1 0 0 forward_v I I I I #
face $-1 $84 $85 $31 $-1 $86 forward single #
loop $-1 $87 $88 $42 #
cone-surface $-1 0 6.6835382603710007e-014 -17.5 0 3.1086224466841861e-015 -1 -3.5 0 0 1 I I -0.70710678118654757 0.70710678118654757 3.5 forward I I I I #
face $-1 $89 $90 $33 $-1 $91 forward single #
loop $-1 $92 $93 $43 #
cone-surface $-1 0 8.0824183613788854e-014 -19.75 0 3.1086224466841861e-015 -1 -3.5 0 0 1 I I -0.70710678118654757 0.70710678118654757 3.5 forward I I I I #
face $-1 $94 $95 $35 $-1 $96 forward single #
loop $-1 $97 $98 $44 #
cone-surface $-1 0 0 0 0 0 1 7 0 0 1 I I 0 1 7 forward I I I I #
model_id-kcp-attrib $-1 $-1 $-1 $46 1 990549389 70 -96075775 4 #
face $99 $100 $101 $10 $-1 $102 reversed single #
loop $-1 $-1 $103 $46 #
plane-surface $-1 0 15 -5.0000000000000497 0 1 -3.4914813388431298e-015 1 0 0 forward_v I I I I #
coedge $-1 $104 $105 $49 $73 forward $47 $-1 #
coedge $-1 $106 $49 $107 $108 reversed $38 $-1 #
coedge $-1 $49 $106 $109 $110 reversed $38 $-1 #
edge $111 $112 -75 $113 75 $70 $114 forward 7 unknown #
model_id-kcp-attrib $-1 $-1 $-1 $51 1 990549389 70 -96075774 2 #
face $115 $116 $117 $27 $-1 $118 reversed single #
loop $-1 $-1 $119 $51 #
plane-surface $-1 0 0 -15.000000000000187 0 0 1 1 0 0 forward_v I I I I #
coedge $-1 $120 $121 $122 $123 forward $52 $-1 #
face $-1 $124 $125 $29 $-1 $126 forward single #
loop $-1 $-1 $127 $54 #
plane-surface $-1 0 0 -18.750000000000021 0 0 -1 -1 0 0 forward_v I I I I #
loop $-1 $-1 $128 $41 #
coedge $-1 $83 $83 $129 $130 forward $55 $-1 #
face $-1 $-1 $131 $31 $-1 $132 forward single #
loop $-1 $133 $134 $57 #
cone-surface $-1 0 0 0 0 0 1 7 0 0 1 I I 0 1 7 forward I I I I #
loop $-1 $-1 $135 $42 #
coedge $-1 $88 $88 $134 $136 forward $58 $-1 #
face $-1 $-1 $137 $33 $-1 $138 forward single #
loop $-1 $139 $140 $60 #
cone-surface $-1 0 0 0 0 0 1 7 0 0 1 I I 0 1 7 forward I I I I #
loop $-1 $-1 $141 $43 #
coedge $-1 $93 $93 $140 $142 forward $61 $-1 #
face $-1 $-1 $143 $35 $-1 $144 forward single #
loop $-1 $-1 $145 $63 #
plane-surface $-1 0 0 -17.500000000000021 0 0 -1 -1 0 0 forward_v I I I I #
loop $-1 $-1 $146 $44 #
coedge $-1 $98 $98 $145 $147 reversed $64 $-1 #
model_id-kcp-attrib $-1 $-1 $-1 $67 1 990549389 70 -96075775 5 #
face $148 $149 $150 $10 $-1 $151 reversed single #
loop $-1 $-1 $109 $67 #
plane-surface $-1 -75 0 0 1 0 0 0 0 -1 forward_v I I I I #
coedge $-1 $152 $153 $154 $155 reversed $68 $-1 #
coedge $-1 $156 $70 $157 $158 forward $47 $-1 #
coedge $-1 $70 $156 $159 $160 forward $47 $-1 #
coedge $-1 $72 $71 $161 $162 reversed $38 $-1 #
coedge $-1 $159 $163 $71 $108 forward $164 $-1 #
edge $165 $166 -27.49999999999995 $112 22.50000000000005 $107 $167 forward 7 unknown #
coedge $-1 $168 $157 $72 $110 forward $101 $-1 #
edge $169 $113 -22.50000000000005 $170 27.49999999999995 $109 $171 forward 7 unknown #
attrib_edge_convexity-kcp-attrib $-1 $172 $-1 $73 1 #
vertex $-1 $160 $173 #
vertex $-1 $110 $174 #
straight-curve $-1 0 -15.000000000000099 -25 -1 0 0 I I #
model_id-kcp-attrib $-1 $-1 $-1 $75 1 990549389 70 -96075774 6 #
face $175 $176 $177 $27 $-1 $178 reversed single #
loop $-1 $-1 $179 $75 #
plane-surface $-1 0 -25.000000000000053 0 0 1 0 0 0 1 forward_v I I I I #
coedge $-1 $180 $181 $182 $183 forward $76 $-1 #
coedge $-1 $184 $78 $185 $186 forward $52 $-1 #
coedge $-1 $78 $184 $187 $188 forward $52 $-1 #
coedge $-1 $189 $190 $78 $123 reversed $191 $-1 #
edge $-1 $192 -25.000000000000053 $193 25.000000000000053 $122 $194 forward 7 unknown #
face $-1 $-1 $195 $29 $-1 $196 forward single #
loop $-1 $197 $129 $79 #
cone-surface $-1 0 0 0 0 0 1 7 0 0 1 I I 0 1 7 forward I I I I #
coedge $-1 $127 $127 $128 $198 reversed $80 $-1 #
coedge $-1 $128 $128 $127 $198 forward $82 $-1 #
coedge $-1 $129 $129 $83 $130 reversed $125 $-1 #
edge $-1 $199 0 $199 6.2831853071795862 $129 $200 forward 7 unknown #
loop $-1 $-1 $201 $84 #
plane-surface $-1 0 0 14.000000000000021 0 0 1 1 0 0 forward_v I I I I #
loop $-1 $-1 $202 $57 #
coedge $-1 $134 $134 $88 $136 reversed $85 $-1 #
coedge $-1 $135 $135 $-1 $203 reversed $87 $-1 #
edge $-1 $204 0 $204 6.2831853071795862 $134 $205 forward 7 unknown #
loop $-1 $-1 $206 $89 #
plane-surface $-1 0 0 16.250000000000021 0 0 1 1 0 0 forward_v I I I I #
loop $-1 $-1 $207 $60 #
coedge $-1 $140 $140 $93 $142 reversed $90 $-1 #
coedge $-1 $141 $141 $-1 $208 reversed $92 $-1 #
edge $-1 $209 0 $209 6.2831853071795862 $140 $210 forward 7 unknown #
loop $-1 $-1 $211 $94 #
plane-surface $-1 0 0 17.500000000000021 0 0 1 1 0 0 forward_v I I I I #
coedge $-1 $145 $145 $98 $147 forward $95 $-1 #
coedge $-1 $146 $146 $211 $212 reversed $97 $-1 #
edge $-1 $213 0 $213 6.2831853071795862 $145 $214 forward 7 unknown #
model_id-kcp-attrib $-1 $-1 $-1 $100 1 990549389 70 -96075775 6 #
face $215 $216 $217 $10 $-1 $218 reversed single #
loop $-1 $-1 $219 $100 #
sphere-surface $-1 60 0 -3 7 1 0 0 0 0 1 forward_v I I I I #
coedge $-1 $220 $103 $221 $222 reversed $68 $-1 #
coedge $-1 $103 $220 $223 $224 reversed $68 $-1 #
coedge $-1 $225 $226 $103 $155 forward $227 $-1 #
edge $-1 $228 -75 $229 75 $154 $230 forward 7 unknown #
coedge $-1 $105 $104 $220 $231 forward $47 $-1 #
coedge $-1 $109 $223 $104 $158 reversed $101 $-1 #
edge $232 $113 -15.000000000000099 $233 14.999999999999901 $157 $234 forward 7 unknown #
coedge $-1 $221 $107 $105 $160 reversed $164 $-1 #
edge $235 $236 -14.999999999999901 $112 15.000000000000099 $159 $237 forward 7 unknown #
coedge $-1 $226 $225 $106 $162 forward $227 $-1 #
edge $238 $170 -75 $166 75 $161 $239 forward 7 unknown #
coedge $-1 $107 $221 $226 $240 reversed $164 $-1 #
loop $-1 $-1 $107 $241 #
attrib_edge_convexity-kcp-attrib $-1 $242 $-1 $108 1 #
vertex $-1 $162 $243 #
straight-curve $-1 75 -15 -2.4999999999999498 0 -3.4914813388431298e-015 -1 I I #
coedge $-1 $223 $109 $225 $244 reversed $101 $-1 #
attrib_edge_convexity-kcp-attrib $-1 $245 $-1 $110 1 #
vertex $-1 $244 $246 #
straight-curve $-1 -75 -15 -2.4999999999999498 0 3.4914813388431298e-015 1 I I #
convexity-sys-attrib $-1 $-1 $111 $73 #
point $-1 75 -15.000000000000099 -25 #
point $-1 -75 -15.000000000000099 -25 #
model_id-kcp-attrib $-1 $-1 $-1 $116 1 990549389 70 -96075774 5 #
face $247 $248 $249 $27 $-1 $250 reversed single #
loop $-1 $-1 $251 $116 #
plane-surface $-1 -75 0 0 1 0 0 0 0 -1 forward_v I I I I #
coedge $-1 $252 $187 $253 $254 forward $117 $-1 #
coedge $-1 $255 $119 $252 $256 forward $76 $-1 #
coedge $-1 $119 $255 $257 $258 forward $76 $-1 #
coedge $-1 $190 $189 $119 $183 reversed $191 $-1 #
edge $-1 $259 -25.000000000000053 $260 25.000000000000053 $182 $261 forward 7 unknown #
coedge $-1 $121 $120 $262 $263 forward $52 $-1 #
coedge $-1 $264 $265 $120 $186 reversed $249 $-1 #
edge $-1 $193 -75 $266 75 $185 $267 forward 7 unknown #
coedge $-1 $179 $268 $121 $188 reversed $117 $-1 #
edge $-1 $269 -75 $192 75 $187 $270 forward 7 unknown #
coedge $-1 $182 $122 $268 $271 forward $191 $-1 #
coedge $-1 $122 $182 $264 $272 reversed $191 $-1 #
loop $-1 $-1 $189 $248 #
vertex $-1 $123 $273 #
vertex $-1 $123 $274 #
straight-curve $-1 75 0 15.000000000000187 0 1 0 I I #
loop $-1 $-1 $275 $124 #
plane-surface $-1 0 0 16.250000000000021 0 0 1 1 0 0 forward_v I I I I #
loop $-1 $-1 $276 $79 #
edge $-1 $277 -3.1415926535897931 $277 3.1415926535897931 $127 $278 forward 7 unknown #
vertex $-1 $130 $279 #
ellipse-curve $-1 0 0 -16.250000000000021 0 0 -1 7 0 0 1 I I #
coedge $-1 $201 $201 $202 $280 forward $131 $-1 #
coedge $-1 $202 $202 $201 $280 reversed $133 $-1 #
edge $-1 $281 1 $281 0 $135 $-1 forward 7 unknown #
vertex $-1 $136 $282 #
ellipse-curve $-1 0 0 -14.000000000000021 0 0 -1 7 0 0 1 I I #
coedge $-1 $206 $206 $207 $283 forward $137 $-1 #
coedge $-1 $207 $207 $206 $283 reversed $139 $-1 #
edge $-1 $284 1 $284 0 $141 $-1 forward 7 unknown #
vertex $-1 $142 $285 #
ellipse-curve $-1 0 0 -16.250000000000021 0 0 -1 7 0 0 1 I I #
coedge $-1 $211 $211 $146 $212 forward $143 $-1 #
edge $-1 $286 0 $286 6.2831853071795862 $211 $287 forward 7 unknown #
vertex $-1 $147 $288 #
ellipse-curve $-1 0 0 -17.500000000000021 0 0 -1 7 0 0 1 I I #
model_id-kcp-attrib $-1 $-1 $-1 $149 1 990549389 70 -96075775 7 #
face $289 $290 $291 $10 $-1 $292 reversed single #
loop $-1 $293 $294 $149 #
cone-surface $-1 60 0 15 0 0 1 7 0 0 1 I I 0 1 7 forward I I I I #
coedge $-1 $219 $219 $295 $296 reversed $150 $-1 #
coedge $-1 $153 $152 $156 $231 reversed $68 $-1 #
coedge $-1 $163 $159 $152 $222 forward $164 $-1 #
edge $-1 $236 -22.49999999999995 $228 27.50000000000005 $221 $297 forward 7 unknown #
coedge $-1 $157 $168 $153 $224 forward $101 $-1 #
edge $298 $229 -27.50000000000005 $233 22.49999999999995 $223 $299 forward 7 unknown #
coedge $-1 $161 $154 $168 $244 forward $227 $-1 #
coedge $-1 $154 $161 $163 $240 forward $227 $-1 #
loop $-1 $300 $161 $301 #
vertex $-1 $240 $302 #
vertex $-1 $224 $303 #
straight-curve $-1 0 15.000000000000099 25 -1 0 0 I I #
edge $304 $233 -75 $236 75 $156 $305 forward 7 unknown #
attrib_edge_convexity-kcp-attrib $-1 $306 $-1 $158 1 #
vertex $-1 $158 $307 #
straight-curve $-1 -75 0 -25 0 1 0 I I #
attrib_edge_convexity-kcp-attrib $-1 $308 $-1 $160 1 #
vertex $-1 $231 $309 #
straight-curve $-1 75 0 -25 0 -1 0 I I #
attrib_edge_convexity-kcp-attrib $-1 $310 $-1 $162 1 #
straight-curve $-1 0 -14.999999999999901 25 1 0 0 I I #
edge $-1 $166 -14.999999999999901 $228 15.000000000000099 $163 $311 forward 7 unknown #
face $312 $-1 $164 $10 $-1 $313 reversed single #
convexity-sys-attrib $-1 $-1 $165 $108 #
point $-1 75 -14.999999999999901 25 #
edge $314 $229 -15.000000000000099 $170 14.999999999999901 $168 $315 forward 7 unknown #
convexity-sys-attrib $-1 $-1 $169 $110 #
point $-1 -75 -14.999999999999901 25 #
model_id-kcp-attrib $-1 $-1 $-1 $176 1 990549389 70 -96075774 3 #
face $316 $-1 $191 $27 $-1 $317 reversed single #
loop $-1 $-1 $264 $176 #
plane-surface $-1 0 25.000000000000053 0 0 -1 0 0 0 -1 forward_v I I I I #
coedge $-1 $318 $262 $265 $319 forward $177 $-1 #
coedge $-1 $268 $179 $180 $256 reversed $117 $-1 #
coedge $-1 $262 $318 $179 $254 reversed $177 $-1 #
edge $-1 $269 -15.000000000000187 $320 15.000000000000187 $253 $321 forward 7 unknown #
coedge $-1 $181 $180 $318 $322 forward $76 $-1 #
edge $-1 $260 -75 $320 75 $252 $323 forward 7 unknown #
coedge $-1 $265 $264 $181 $258 reversed $249 $-1 #
edge $-1 $324 -75 $259 75 $257 $325 forward 7 unknown #
vertex $-1 $183 $326 #
vertex $-1 $271 $327 #
straight-curve $-1 75 0 -15.000000000000187 0 -1 0 I I #
coedge $-1 $251 $253 $184 $263 reversed $177 $-1 #
edge $-1 $266 -25.000000000000053 $269 25.000000000000053 $262 $328 forward 7 unknown #
coedge $-1 $257 $185 $190 $272 forward $249 $-1 #
coedge $-1 $185 $257 $251 $319 reversed $249 $-1 #
vertex $-1 $186 $329 #
straight-curve $-1 0 25.000000000000053 15.000000000000187 -1 0 0 I I #
coedge $-1 $187 $252 $189 $271 reversed $117 $-1 #
vertex $-1 $263 $330 #
straight-curve $-1 0 -25.000000000000053 15.000000000000187 1 0 0 I I #
edge $-1 $192 -15.000000000000187 $260 15.000000000000187 $189 $331 forward 7 unknown #
edge $-1 $193 -15.000000000000187 $259 15.000000000000187 $190 $332 forward 7 unknown #
point $-1 75 -25.000000000000053 15.000000000000187 #
point $-1 75 25.000000000000053 15.000000000000187 #
coedge $-1 $275 $275 $276 $333 forward $195 $-1 #
coedge $-1 $276 $276 $275 $333 reversed $197 $-1 #
vertex $-1 $198 $334 #
ellipse-curve $-1 0 0 -18.750000000000021 0 0 1 -4.5 -5.5107285922006977e-016 0 1 I I #
point $-1 7 0 -16.250000000000021 #
edge $-1 $335 0 $335 6.2831853071795862 $201 $336 forward 7 unknown #
vertex $-1 $203 $337 #
point $-1 7 0 -14.000000000000021 #
edge $-1 $338 0 $338 6.2831853071795862 $206 $339 forward 7 unknown #
vertex $-1 $208 $340 #
point $-1 7 0 -16.250000000000021 #
vertex $-1 $212 $341 #
ellipse-curve $-1 0 0 17.500000000000021 0 0 1 7 0 0 1 I I #
point $-1 7 0 -17.500000000000021 #
model_id-kcp-attrib $-1 $-1 $-1 $216 1 990549389 70 -96075775 8 #
face $342 $343 $344 $10 $-1 $345 reversed single #
loop $-1 $346 $347 $216 #
torus-surface $-1 0 0 -7.5 0 0 -1 4.5 2.5 -1 0 0 forward_v I I I I #
loop $-1 $-1 $295 $149 #
coedge $-1 $294 $294 $348 $349 reversed $217 $-1 #
coedge $-1 $295 $295 $219 $296 forward $293 $-1 #
edge $-1 $350 0 $350 6.2831853071795862 $295 $351 forward 7 unknown #
straight-curve $-1 75 15 -2.5000000000000502 0 3.4914813388431298e-015 1 I I #
attrib_edge_convexity-kcp-attrib $-1 $352 $-1 $224 1 #
straight-curve $-1 -75 15 -2.5000000000000502 0 -3.4914813388431298e-015 -1 I I #
loop $-1 $353 $348 $301 #
face $354 $241 $227 $10 $-1 $355 forward single #
point $-1 75 15.000000000000099 25 #
point $-1 -75 15.000000000000099 25 #
attrib_edge_convexity-kcp-attrib $-1 $356 $-1 $231 1 #
straight-curve $-1 0 14.999999999999901 -25 1 0 0 I I #
convexity-sys-attrib $-1 $-1 $232 $158 #
point $-1 -75 14.999999999999901 -25 #
convexity-sys-attrib $-1 $-1 $235 $160 #
point $-1 75 14.999999999999901 -25 #
convexity-sys-attrib $-1 $-1 $238 $162 #
straight-curve $-1 75 0 25 0 1 0 I I #
model_id-kcp-attrib $-1 $-1 $-1 $241 1 990549389 70 -96075775 19 #
plane-surface $-1 75 0 0 -1 0 0 0 0 1 forward_v I I I I #
attrib_edge_convexity-kcp-attrib $-1 $357 $-1 $244 1 #
straight-curve $-1 -75 0 25 0 -1 0 I I #
model_id-kcp-attrib $-1 $-1 $-1 $248 1 990549389 70 -96075774 7 #
plane-surface $-1 75 0 0 -1 0 0 0 0 1 forward_v I I I I #
coedge $-1 $253 $251 $255 $322 reversed $177 $-1 #
edge $-1 $266 -15.000000000000187 $324 15.000000000000187 $265 $358 forward 7 unknown #
vertex $-1 $322 $359 #
straight-curve $-1 -75 -25.000000000000053 0 0 0 -1 I I #
edge $-1 $320 -25.000000000000053 $324 25.000000000000053 $318 $360 forward 7 unknown #
straight-curve $-1 0 -25.000000000000053 -15.000000000000187 -1 0 0 I I #
vertex $-1 $258 $361 #
straight-curve $-1 0 25.000000000000053 -15.000000000000187 1 0 0 I I #
point $-1 75 25.000000000000053 -15.000000000000187 #
point $-1 75 -25.000000000000053 -15.000000000000187 #
straight-curve $-1 -75 0 15.000000000000187 0 -1 0 I I #
point $-1 -75 25.000000000000053 15.000000000000187 #
point $-1 -75 -25.000000000000053 15.000000000000187 #
straight-curve $-1 75 -25.000000000000053 0 0 0 -1 I I #
straight-curve $-1 75 25.000000000000053 0 0 0 -1 I I #
edge $-1 $362 0 $362 6.2831853071795862 $275 $363 forward 7 unknown #
point $-1 4.5 1.1021457184401395e-015 -18.750000000000021 #
vertex $-1 $280 $364 #
ellipse-curve $-1 0 0 14.000000000000021 0 0 1 7 0 0 1 I I #
point $-1 0 7.7715561167104652e-014 -21 #
vertex $-1 $283 $365 #
ellipse-curve $-1 0 0 16.250000000000021 0 0 1 7 0 0 1 I I #
point $-1 0 9.1704362177183499e-014 -23.25 #
point $-1 7 0 17.500000000000021 #
model_id-kcp-attrib $-1 $-1 $-1 $290 1 990549389 70 -96075775 9 #
face $366 $367 $368 $10 $-1 $369 reversed single #
loop $-1 $370 $371 $290 #
cone-surface $-1 0 0 15 0 0 1 7 0 0 1 I I 0 1 7 forward I I I I #
loop $-1 $-1 $372 $216 #
coedge $-1 $347 $347 $373 $374 reversed $291 $-1 #
coedge $-1 $348 $348 $294 $349 forward $300 $-1 #
edge $-1 $375 -3.1415926535897998 $375 3.1415926535897865 $348 $376 forward 7 unknown #
vertex $-1 $296 $377 #
ellipse-curve $-1 60 0 -3 0 0 -1 7 0 0 1 I I #
convexity-sys-attrib $-1 $-1 $298 $224 #
loop $-1 $378 $379 $301 #
model_id-kcp-attrib $-1 $380 $-1 $301 1 990549389 70 -96075775 20 #
plane-surface $-1 0 0 25 0 0 1 1 0 0 forward_v I I I I #
convexity-sys-attrib $-1 $-1 $304 $231 #
convexity-sys-attrib $-1 $-1 $314 $244 #
straight-curve $-1 -75 25.000000000000053 0 0 0 -1 I I #
point $-1 -75 -25.000000000000053 -15.000000000000187 #
straight-curve $-1 -75 0 -15.000000000000187 0 1 0 I I #
point $-1 -75 25.000000000000053 -15.000000000000187 #
vertex $-1 $333 $381 #
ellipse-curve $-1 0 0 16.250000000000021 0 0 1 7 0 0 1 I I #
point $-1 7 0 14.000000000000021 #
point $-1 7 0 16.250000000000021 #
model_id-kcp-attrib $-1 $-1 $-1 $343 1 990549389 70 -96075775 10 #
face $382 $383 $384 $10 $-1 $385 reversed single #
loop $-1 $-1 $386 $343 #
plane-surface $-1 0 0 -10 0 0 -1 -1 0 0 forward_v I I I I #
loop $-1 $-1 $373 $290 #
coedge $-1 $371 $371 $379 $387 reversed $344 $-1 #
coedge $-1 $372 $372 $386 $388 reversed $346 $-1 #
coedge $-1 $373 $373 $347 $374 forward $370 $-1 #
edge $389 $390 -3.1415926535897998 $390 3.1415926535897865 $373 $391 forward 7 unknown #
vertex $-1 $349 $392 #
ellipse-curve $-1 60 0 25 0 0 -1 7 0 0 1 I I #
point $-1 67 0 -3 #
loop $-1 $393 $394 $301 #
coedge $-1 $379 $379 $371 $387 forward $353 $-1 #
model_id-kcp-attrib $-1 $-1 $354 $301 1 990549389 70 -96075775 18 #
point $-1 7 0 16.250000000000021 #
model_id-kcp-attrib $-1 $-1 $-1 $367 1 990549389 70 -96075775 11 #
face $395 $396 $397 $10 $-1 $398 reversed single #
loop $-1 $399 $400 $367 #
cone-surface $-1 30 0 -6.5 0 0 -1 -3.5 2.4440369371901899e-014 0 1 I I -0.70710678118654802 0.70710678118654802 3.5 forward I I I I #
coedge $-1 $386 $386 $372 $388 forward $368 $-1 #
edge $401 $402 -3.1415926535897998 $402 3.1415926535897865 $379 $403 forward 7 unknown #
edge $-1 $404 -3.1415926535897865 $404 3.1415926535897998 $386 $405 forward 7 unknown #
attrib_edge_convexity-kcp-attrib $-1 $406 $-1 $374 4 #
vertex $-1 $374 $407 #
ellipse-curve $-1 0 0 -7.5 0 0 -1 7 0 0 1 I I #
point $-1 53 -4.8880738743803899e-014 25 #
loop $-1 $408 $409 $301 #
coedge $-1 $394 $394 $410 $411 forward $378 $-1 #
model_id-kcp-attrib $-1 $-1 $-1 $383 1 990549389 70 -96075775 12 #
face $412 $413 $414 $10 $-1 $415 reversed single #
loop $-1 $416 $410 $383 #
cone-surface $-1 30 0 15 0 0 1 7 0 0 1 I I 0 1 7 forward I I I I #
loop $-1 $-1 $417 $367 #
coedge $-1 $400 $400 $-1 $418 reversed $384 $-1 #
attrib_edge_convexity-kcp-attrib $-1 $419 $-1 $387 1 #
vertex $-1 $387 $420 #
ellipse-curve $-1 0 0 25 0 0 -1 7 0 0 1 I I #
vertex $-1 $388 $421 #
ellipse-curve $-1 0 0 -10 0 0 1 4.5 0 0 1 I I #
convexity-sys-attrib $-1 $-1 $389 $374 #
point $-1 -7 -4.8880738743803899e-014 -7.5 #
loop $-1 $-1 $422 $301 #
coedge $-1 $409 $409 $423 $424 forward $393 $-1 #
coedge $-1 $410 $410 $394 $411 reversed $397 $-1 #
edge $425 $426 -3.1415926535897998 $426 3.1415926535897865 $394 $427 forward 7 unknown #
model_id-kcp-attrib $-1 $-1 $-1 $396 1 990549389 70 -96075775 13 #
face $428 $429 $430 $10 $-1 $431 reversed single #
loop $-1 $432 $433 $396 #
cone-surface $-1 -30 0 -8.75 0 0 -1 -5.75 4.0152035396696002e-014 0 1 I I -0.70710678118654702 0.70710678118654702 5.75 forward I I I I #
loop $-1 $-1 $434 $383 #
coedge $-1 $417 $417 $434 $435 reversed $399 $-1 #
edge $-1 $436 1 $436 0 $400 $-1 forward 7 unknown #
convexity-sys-attrib $-1 $-1 $401 $387 #
point $-1 -7 -4.8880738743803899e-014 25 #
point $-1 -4.5 -3.14233320495882e-014 -10 #
coedge $-1 $422 $422 $437 $438 forward $408 $-1 #
coedge $-1 $423 $423 $409 $424 reversed $430 $-1 #
edge $439 $440 -3.1415926535897998 $440 3.1415926535897865 $409 $441 forward 7 unknown #
attrib_edge_convexity-kcp-attrib $-1 $442 $-1 $411 1 #
vertex $-1 $411 $443 #
ellipse-curve $-1 30 0 25 0 0 -1 7 0 0 1 I I #
model_id-kcp-attrib $-1 $-1 $-1 $413 1 990549389 70 -96075775 14 #
face $444 $445 $446 $10 $-1 $447 reversed single #
loop $-1 $448 $423 $413 #
cone-surface $-1 -30 0 15 0 0 1 7 0 0 1 I I 0 1 7 forward I I I I #
loop $-1 $-1 $449 $396 #
coedge $-1 $433 $433 $450 $451 reversed $414 $-1 #
coedge $-1 $434 $434 $417 $435 forward $416 $-1 #
edge $452 $453 0 $453 6.2831853071795862 $434 $454 forward 7 unknown #
vertex $-1 $418 $455 #
coedge $-1 $437 $437 $422 $438 reversed $456 $-1 #
edge $457 $458 -3.1415926535897998 $458 3.1415926535897865 $422 $459 forward 7 unknown #
attrib_edge_convexity-kcp-attrib $-1 $460 $-1 $424 1 #
vertex $-1 $424 $461 #
ellipse-curve $-1 -30 0 25 0 0 -1 7 0 0 1 I I #
convexity-sys-attrib $-1 $-1 $425 $411 #
point $-1 23 -4.8880738743803899e-014 25 #
model_id-kcp-attrib $-1 $-1 $-1 $429 1 990549389 70 -96075775 15 #
face $462 $463 $456 $10 $-1 $464 reversed single #
loop $-1 $-1 $465 $429 #
plane-surface $-1 -30 0 -10 0 0 -1 -1 0 0 forward_v I I I I #
loop $-1 $-1 $450 $413 #
coedge $-1 $449 $449 $465 $466 reversed $432 $-1 #
coedge $-1 $450 $450 $433 $451 forward $448 $-1 #
edge $467 $468 -3.1415926535897998 $468 3.1415926535897865 $450 $469 forward 7 unknown #
attrib_edge_convexity-kcp-attrib $-1 $470 $-1 $435 2 #
vertex $-1 $435 $471 #
ellipse-curve $-1 30 0 -3 0 0 -1 7 0 0 1 I I #
point $-1 30 0 -10 #
loop $-1 $472 $437 $445 #
attrib_edge_convexity-kcp-attrib $-1 $473 $-1 $438 1 #
vertex $-1 $438 $474 #
ellipse-curve $-1 -60 0 25 0 0 -1 7 0 0 1 I I #
convexity-sys-attrib $-1 $-1 $439 $424 #
point $-1 -37 -4.8880738743803899e-014 25 #
model_id-kcp-attrib $-1 $-1 $-1 $445 1 990549389 70 -96075775 16 #
face $475 $301 $476 $10 $-1 $477 reversed single #
cone-surface $-1 -60 0 15 0 0 1 7 0 0 1 I I 0 1 7 forward I I I I #
coedge $-1 $465 $465 $449 $466 forward $446 $-1 #
edge $-1 $478 -3.1415926535897865 $478 3.1415926535897998 $465 $479 forward 7 unknown #
attrib_edge_convexity-kcp-attrib $-1 $480 $-1 $451 2 #
vertex $-1 $451 $481 #
ellipse-curve $-1 -30 0 -7.5 0 0 -1 7 0 0 1 I I #
convexity-sys-attrib $-1 $-1 $452 $435 #
point $-1 37 0 -3 #
loop $-1 $-1 $482 $445 #
convexity-sys-attrib $-1 $-1 $457 $438 #
point $-1 -67 -4.8880738743803899e-014 25 #
model_id-kcp-attrib $-1 $-1 $-1 $463 1 990549389 70 -96075775 17 #
loop $-1 $-1 $483 $463 #
plane-surface $-1 -60 0 -10 0 0 -1 -1 0 0 forward_v I I I I #
vertex $-1 $466 $484 #
ellipse-curve $-1 -30 0 -10 0 0 1 4.5 0 0 1 I I #
convexity-sys-attrib $-1 $-1 $467 $451 #
point $-1 -37 -4.8880738743803899e-014 -7.5 #
coedge $-1 $482 $482 $483 $485 forward $472 $-1 #
coedge $-1 $483 $483 $482 $485 reversed $476 $-1 #
point $-1 -34.5 -3.14233320495882e-014 -10 #
edge $486 $487 0 $487 6.2831853071795862 $483 $488 forward 7 unknown #
attrib_edge_convexity-kcp-attrib $-1 $489 $-1 $485 2 #
vertex $-1 $485 $490 #
ellipse-curve $-1 -60 0 -10 0 0 -1 7 0 0 1 I I #
convexity-sys-attrib $-1 $-1 $486 $485 #
point $-1 -53 0 -10 #
End-of-ACIS-data 