600 0 1 0           
87 GICL ACIS Healer - Source: /gicl/data5/repository/UMD/mrsev_holes/mrsev_holes.sat - 6 0 18 ACIS 6.0.3 Solaris 24 Sun Apr 14 00:35:23 2002 
1 9.999999999999999547e-07 1.000000000000000036e-10 
body $-1 $1 $-1 $-1 #
lump $-1 $-1 $2 $0 #
shell $-1 $-1 $-1 $3 $-1 $1 #
face $-1 $4 $5 $2 $-1 $6 reversed single #
face $-1 $7 $8 $2 $-1 $9 reversed single #
loop $-1 $-1 $10 $3 #
plane-surface $-1 0 2.664535259100375697e-15 -15 0 0 1 1 0 0 forward_v I I I I #
face $-1 $11 $12 $2 $-1 $13 forward single #
loop $-1 $-1 $14 $4 #
plane-surface $-1 0 20 6.982962677686254089e-14 0 -1 -3.491481338843129805e-15 1 0 0 forward_v I I I I #
coedge $-1 $15 $16 $14 $17 reversed $5 $-1 #
face $-1 $18 $19 $2 $-1 $20 reversed single #
loop $-1 $-1 $21 $7 #
plane-surface $-1 0 -2.664535259100375697e-15 15 0 0 1 1 0 0 forward_v I I I I #
coedge $-1 $22 $23 $10 $17 forward $8 $-1 #
coedge $-1 $24 $10 $25 $26 reversed $5 $-1 #
coedge $-1 $10 $24 $27 $28 reversed $5 $-1 #
edge $-1 $29 -75 $30 75 $14 $31 forward 7 unknown #
face $-1 $32 $33 $2 $-1 $34 reversed single #
loop $-1 $-1 $27 $11 #
plane-surface $-1 -75 -5 -1.745740669421570149e-14 1 0 0 0 1 3.491481338843129805e-15 forward_v I I I I #
coedge $-1 $35 $36 $37 $38 reversed $12 $-1 #
coedge $-1 $39 $14 $40 $41 forward $8 $-1 #
coedge $-1 $14 $39 $42 $43 forward $8 $-1 #
coedge $-1 $16 $15 $44 $45 reversed $5 $-1 #
coedge $-1 $42 $46 $15 $26 forward $47 $-1 #
edge $-1 $48 -27.49999999999995026 $29 22.50000000000004974 $25 $49 forward 7 unknown #
coedge $-1 $50 $40 $16 $28 forward $19 $-1 #
edge $-1 $30 -22.50000000000004974 $51 27.49999999999995026 $27 $52 forward 7 unknown #
vertex $-1 $43 $53 #
vertex $-1 $28 $54 #
straight-curve $-1 0 20.00000000000005329 -15.0000000000000302 -1 -0 0 I I #
face $-1 $55 $56 $2 $-1 $57 reversed single #
loop $-1 $-1 $58 $18 #
sphere-surface $-1 60 -2 -6.982962677686312464e-15 7 1 0 0 0 -1 -3.491481338843129805e-15 forward_v I I I I #
coedge $-1 $59 $21 $60 $61 reversed $12 $-1 #
coedge $-1 $21 $59 $62 $63 reversed $12 $-1 #
coedge $-1 $64 $65 $21 $38 forward $66 $-1 #
edge $-1 $67 -75 $68 75 $37 $69 forward 7 unknown #
coedge $-1 $23 $22 $59 $70 forward $8 $-1 #
coedge $-1 $27 $62 $22 $41 reversed $19 $-1 #
edge $-1 $30 -15.00000000000009948 $71 14.99999999999990052 $40 $72 forward 7 unknown #
coedge $-1 $60 $25 $23 $43 reversed $47 $-1 #
edge $-1 $73 -14.99999999999990052 $29 15.00000000000009948 $42 $74 forward 7 unknown #
coedge $-1 $65 $64 $24 $45 forward $66 $-1 #
edge $-1 $51 -75 $48 75 $44 $75 forward 7 unknown #
coedge $-1 $25 $60 $65 $76 reversed $47 $-1 #
loop $-1 $-1 $25 $77 #
vertex $-1 $45 $78 #
straight-curve $-1 75 -2.49999999999999778 -15.00000000000000888 -0 1 0 I I #
coedge $-1 $62 $27 $64 $79 reversed $19 $-1 #
vertex $-1 $79 $80 #
straight-curve $-1 -75 -2.49999999999999778 -15.00000000000000888 0 -1 0 I I #
point $-1 75 20.00000000000005329 -15.0000000000000302 #
point $-1 -75 20.00000000000005329 -15.0000000000000302 #
face $-1 $81 $82 $2 $-1 $83 reversed single #
loop $-1 $84 $85 $32 #
cone-surface $-1 60 -20 -6.982962677686265448e-14 0 -1 -3.491481338843129805e-15 7 0 0 1 I I 0 1 7 forward I I I I #
coedge $-1 $58 $58 $86 $87 reversed $33 $-1 #
coedge $-1 $36 $35 $39 $70 reversed $12 $-1 #
coedge $-1 $46 $42 $35 $61 forward $47 $-1 #
edge $-1 $73 -22.49999999999995026 $67 27.50000000000004974 $60 $88 forward 7 unknown #
coedge $-1 $40 $50 $36 $63 forward $19 $-1 #
edge $-1 $68 -27.50000000000004974 $71 22.49999999999995026 $62 $89 forward 7 unknown #
coedge $-1 $44 $37 $50 $79 forward $66 $-1 #
coedge $-1 $37 $44 $46 $76 forward $66 $-1 #
loop $-1 $90 $44 $91 #
vertex $-1 $76 $92 #
vertex $-1 $63 $93 #
straight-curve $-1 0 -30.00000000000005329 14.99999999999999467 -1 -0 0 I I #
edge $-1 $71 -75 $73 75 $39 $94 forward 7 unknown #
vertex $-1 $41 $95 #
straight-curve $-1 -75 20 6.982962677686254089e-14 0 -3.491481338843129805e-15 1 I I #
vertex $-1 $70 $96 #
straight-curve $-1 75 20 6.982962677686254089e-14 0 3.491481338843129805e-15 -1 I I #
straight-curve $-1 0 -29.99999999999994671 -15.00000000000000533 1 0 0 I I #
edge $-1 $48 -14.99999999999990052 $67 15.00000000000009948 $46 $97 forward 7 unknown #
face $-1 $-1 $47 $2 $-1 $98 reversed single #
point $-1 75 -29.99999999999994671 -15.00000000000000533 #
edge $-1 $68 -15.00000000000009948 $51 14.99999999999990052 $50 $99 forward 7 unknown #
point $-1 -75 -29.99999999999994671 -15.00000000000000533 #
face $-1 $100 $101 $2 $-1 $102 reversed single #
loop $-1 $103 $104 $55 #
torus-surface $-1 0 2.5 8.728703347107773435e-15 0 1 3.491481338843129805e-15 4.5 2.5 -1 -0 0 forward_v I I I I #
loop $-1 $-1 $86 $32 #
coedge $-1 $85 $85 $105 $106 reversed $56 $-1 #
coedge $-1 $86 $86 $58 $87 forward $84 $-1 #
edge $-1 $107 0 $107 6.283185307179586232 $86 $108 forward 7 unknown #
straight-curve $-1 75 -2.50000000000000222 14.99999999999999112 0 -1 0 I I #
straight-curve $-1 -75 -2.50000000000000222 14.99999999999999112 0 1 0 I I #
loop $-1 $109 $105 $91 #
face $-1 $77 $66 $2 $-1 $110 forward single #
point $-1 75 -30.00000000000005329 14.99999999999999467 #
point $-1 -75 -30.00000000000005329 14.99999999999999467 #
straight-curve $-1 0 19.99999999999994671 14.9999999999999698 1 0 0 I I #
point $-1 -75 19.99999999999994671 14.9999999999999698 #
point $-1 75 19.99999999999994671 14.9999999999999698 #
straight-curve $-1 75 -30 -1.047444401652939502e-13 0 -3.491481338843129805e-15 1 I I #
plane-surface $-1 75 -5 -1.745740669421570149e-14 -1 -0 0 0 -1 -3.491481338843129805e-15 forward_v I I I I #
straight-curve $-1 -75 -30 -1.047444401652939502e-13 0 3.491481338843129805e-15 -1 I I #
face $-1 $111 $112 $2 $-1 $113 reversed single #
loop $-1 $114 $115 $81 #
cone-surface $-1 0 -20 -6.982962677686265448e-14 0 -1 -3.491481338843129805e-15 7 0 0 1 I I 0 1 7 forward I I I I #
loop $-1 $-1 $116 $55 #
coedge $-1 $104 $104 $117 $118 reversed $82 $-1 #
coedge $-1 $105 $105 $85 $106 forward $90 $-1 #
edge $-1 $119 -3.141592653589799777 $119 3.141592653589786455 $105 $120 forward 7 unknown #
vertex $-1 $87 $121 #
ellipse-curve $-1 60 -2 -6.982962677686312464e-15 0 1 3.491481338843129805e-15 7 0 0 1 I I #
loop $-1 $122 $123 $91 #
plane-surface $-1 0 -30 -1.047444401652939502e-13 0 -1 -3.491481338843129805e-15 1 0 0 forward_v I I I I #
face $-1 $124 $125 $2 $-1 $126 reversed single #
loop $-1 $-1 $127 $100 #
plane-surface $-1 0 5 1.74574066942155942e-14 0 1 3.491481338843129805e-15 -1 -0 0 forward_v I I I I #
loop $-1 $-1 $117 $81 #
coedge $-1 $115 $115 $123 $128 reversed $101 $-1 #
coedge $-1 $116 $116 $127 $129 reversed $103 $-1 #
coedge $-1 $117 $117 $104 $118 forward $114 $-1 #
edge $-1 $130 -3.141592653589799777 $130 3.141592653589786455 $117 $131 forward 7 unknown #
vertex $-1 $106 $132 #
ellipse-curve $-1 60 -30 -1.047444401652939502e-13 -0 1 3.491481338843129805e-15 7 0 0 1 I I #
point $-1 67 -2 -6.982962677686312464e-15 #
loop $-1 $133 $134 $91 #
coedge $-1 $123 $123 $115 $128 forward $109 $-1 #
face $-1 $135 $136 $2 $-1 $137 reversed single #
loop $-1 $138 $139 $111 #
cone-surface $-1 30 1.5 5.237222008264643235e-15 0 1 3.491481338843129805e-15 -3.5 -8.533309357642866898e-29 2.444036937190189878e-14 1 I I -0.7071067811865480168 0.7071067811865480168 3.5 forward I I I I #
coedge $-1 $127 $127 $116 $129 forward $112 $-1 #
edge $-1 $140 -3.141592653589799777 $140 3.141592653589786455 $123 $141 forward 7 unknown #
edge $-1 $142 -3.141592653589786455 $142 3.141592653589799777 $127 $143 forward 7 unknown #
vertex $-1 $118 $144 #
ellipse-curve $-1 0 2.5 8.728703347107773435e-15 0 1 3.491481338843129805e-15 7 0 0 1 I I #
point $-1 53 -30 -1.536251789090978424e-13 #
loop $-1 $145 $146 $91 #
coedge $-1 $134 $134 $147 $148 forward $122 $-1 #
face $-1 $149 $150 $2 $-1 $151 reversed single #
loop $-1 $152 $147 $124 #
cone-surface $-1 30 -20 -6.982962677686265448e-14 0 -1 -3.491481338843129805e-15 7 0 0 1 I I 0 1 7 forward I I I I #
loop $-1 $-1 $153 $111 #
coedge $-1 $139 $139 $-1 $154 reversed $125 $-1 #
vertex $-1 $128 $155 #
ellipse-curve $-1 0 -30 -1.047444401652939502e-13 -0 1 3.491481338843129805e-15 7 0 0 1 I I #
vertex $-1 $129 $156 #
ellipse-curve $-1 0 5 1.74574066942155942e-14 0 -1 -3.491481338843129805e-15 4.5 0 0 1 I I #
point $-1 -7 2.5 -4.015203539669612825e-14 #
loop $-1 $-1 $157 $91 #
coedge $-1 $146 $146 $158 $159 forward $133 $-1 #
coedge $-1 $147 $147 $134 $148 reversed $136 $-1 #
edge $-1 $160 -3.141592653589799777 $160 3.141592653589786455 $134 $161 forward 7 unknown #
face $-1 $162 $163 $2 $-1 $164 reversed single #
loop $-1 $165 $166 $135 #
cone-surface $-1 -30 3.75 1.309305502066168697e-14 0 1 3.491481338843129805e-15 -5.75 -1.401900823041328934e-28 4.015203539669600203e-14 1 I I -0.7071067811865470176 0.7071067811865470176 5.75 forward I I I I #
loop $-1 $-1 $167 $124 #
coedge $-1 $153 $153 $167 $168 reversed $138 $-1 #
edge $-1 $169 1 $169 0 $139 $-1 forward 7 unknown #
point $-1 -7 -30 -1.536251789090978424e-13 #
point $-1 -4.5 5 -1.3965925355372606e-14 #
coedge $-1 $157 $157 $170 $171 forward $145 $-1 #
coedge $-1 $158 $158 $146 $159 reversed $163 $-1 #
edge $-1 $172 -3.141592653589799777 $172 3.141592653589786455 $146 $173 forward 7 unknown #
vertex $-1 $148 $174 #
ellipse-curve $-1 30 -30 -1.047444401652939502e-13 -0 1 3.491481338843129805e-15 7 0 0 1 I I #
face $-1 $175 $176 $2 $-1 $177 reversed single #
loop $-1 $178 $158 $149 #
cone-surface $-1 -30 -20 -6.982962677686265448e-14 0 -1 -3.491481338843129805e-15 7 0 0 1 I I 0 1 7 forward I I I I #
loop $-1 $-1 $179 $135 #
coedge $-1 $166 $166 $180 $181 reversed $150 $-1 #
coedge $-1 $167 $167 $153 $168 forward $152 $-1 #
edge $-1 $182 0 $182 6.283185307179586232 $167 $183 forward 7 unknown #
vertex $-1 $154 $184 #
coedge $-1 $170 $170 $157 $171 reversed $185 $-1 #
edge $-1 $186 -3.141592653589799777 $186 3.141592653589786455 $157 $187 forward 7 unknown #
vertex $-1 $159 $188 #
ellipse-curve $-1 -30 -30 -1.047444401652939502e-13 -0 1 3.491481338843129805e-15 7 0 0 1 I I #
point $-1 23 -30 -1.536251789090978424e-13 #
face $-1 $189 $185 $2 $-1 $190 reversed single #
loop $-1 $-1 $191 $162 #
plane-surface $-1 -30 5 1.74574066942155942e-14 0 1 3.491481338843129805e-15 -1 -0 0 forward_v I I I I #
loop $-1 $-1 $180 $149 #
coedge $-1 $179 $179 $191 $192 reversed $165 $-1 #
coedge $-1 $180 $180 $166 $181 forward $178 $-1 #
edge $-1 $193 -3.141592653589799777 $193 3.141592653589786455 $180 $194 forward 7 unknown #
vertex $-1 $168 $195 #
ellipse-curve $-1 30 -2 -6.982962677686312464e-15 0 1 3.491481338843129805e-15 7 0 0 1 I I #
point $-1 30 5 1.74574066942155942e-14 #
loop $-1 $196 $170 $175 #
vertex $-1 $171 $197 #
ellipse-curve $-1 -60 -30 -1.047444401652939502e-13 -0 1 3.491481338843129805e-15 7 0 0 1 I I #
point $-1 -37 -30 -1.536251789090978424e-13 #
face $-1 $91 $198 $2 $-1 $199 reversed single #
cone-surface $-1 -60 -20 -6.982962677686265448e-14 0 -1 -3.491481338843129805e-15 7 0 0 1 I I 0 1 7 forward I I I I #
coedge $-1 $191 $191 $179 $192 forward $176 $-1 #
edge $-1 $200 -3.141592653589786455 $200 3.141592653589799777 $191 $201 forward 7 unknown #
vertex $-1 $181 $202 #
ellipse-curve $-1 -30 2.5 8.728703347107773435e-15 0 1 3.491481338843129805e-15 7 0 0 1 I I #
point $-1 37 -2 -6.982962677686312464e-15 #
loop $-1 $-1 $203 $175 #
point $-1 -67 -30 -1.536251789090978424e-13 #
loop $-1 $-1 $204 $189 #
plane-surface $-1 -60 5 1.74574066942155942e-14 0 1 3.491481338843129805e-15 -1 -0 0 forward_v I I I I #
vertex $-1 $192 $205 #
ellipse-curve $-1 -30 5 1.74574066942155942e-14 0 -1 -3.491481338843129805e-15 4.5 0 0 1 I I #
point $-1 -37 2.5 -4.015203539669612825e-14 #
coedge $-1 $203 $203 $204 $206 forward $196 $-1 #
coedge $-1 $204 $204 $203 $206 reversed $198 $-1 #
point $-1 -34.5 5 -1.3965925355372606e-14 #
edge $-1 $207 0 $207 6.283185307179586232 $204 $208 forward 7 unknown #
vertex $-1 $206 $209 #
ellipse-curve $-1 -60 5 1.74574066942155942e-14 0 1 3.491481338843129805e-15 7 0 0 1 I I #
point $-1 -53 5 1.74574066942155942e-14 #
End-of-ACIS-data 