106 0 1 0           
body $1 $2 $-1 $-1 #
attrib_fhlhead-attrib_fhl-attrib $-1 $3 $-1 $0 1 2 4 #
lump $5 $-1 $6 $0 #
attrib_fhlhead-attrib_fhl-attrib $-1 $7 $1 $0 1 1 8 #
attrib_fhl_slist-attrib_fhlgeom-attrib_fhl-attrib $-1 $8 $-1 $9 1 10 14 -16.32047080993652344 -35.00478363037109375 -21.42450523376464844 -32.57685470581054688 1 -21.42450523376464844 -32.57685470581054688 -26.04835128784179688 -28.97543525695800781 1 -26.04835128784179688 -28.97543525695800781 -30.12007713317871094 -24.76055526733398438 1 -30.12007713317871094 -24.76055526733398438 -33.49169921875 -20.08403205871582031 1 -33.49169921875 -20.08403205871582031 -36.03839111328125 -15.11411857604980469 1 -36.50623321533203125 4.041676044464111328 -34.12541961669921875 7.742882728576660156 1 -36.50623321533203125 4.041676044464111328 -30.5449981689453125 10.26609039306640625 1 -34.12541961669921875 7.742882728576660156 -30.84836387634277344 10.68527889251708984 1 -30.84836387634277344 10.68527889251708984 -26.79182243347167969 12.745391845703125 1 -26.79182243347167969 12.745391845703125 -22.10639572143554688 13.8320465087890625 1 -22.10639572143554688 13.8320465087890625 -16.97161674499511719 13.8917083740234375 1 -16.97161674499511719 13.8917083740234375 -11.58923244476318359 12.91239833831787109 1 -32.01569747924804688 5.309320926666259766 -31.95909690856933594 5.972140789031982422 1 -30.5449981689453125 10.26609039306640625 -31.95909690856933594 5.972140789031982422 1 #
attrib_fhlmark-attrib_fhlgeom-attrib_fhl-attrib $-1 $11 $-1 $2 1 -1 #
shell $12 $-1 $-1 $13 $2 #
f_body-lwd-attrib $-1 $-1 $3 $0 #
attrib_fhl_slist-attrib_fhlgeom-attrib_fhl-attrib $-1 $14 $4 $9 3 15 14 -16.32047080993652344 -35.00478363037109375 -21.42450523376464844 -32.57685470581054688 1 -21.42450523376464844 -32.57685470581054688 -26.04835128784179688 -28.97543525695800781 1 -26.04835128784179688 -28.97543525695800781 -30.12007713317871094 -24.76055526733398438 1 -30.12007713317871094 -24.76055526733398438 -33.49169921875 -20.08403205871582031 1 -33.49169921875 -20.08403205871582031 -36.03839111328125 -15.11411857604980469 1 -36.50623321533203125 4.041676044464111328 -34.12541961669921875 7.742882728576660156 1 -36.50623321533203125 4.041676044464111328 -30.5449981689453125 10.26609039306640625 1 -34.12541961669921875 7.742882728576660156 -30.84836387634277344 10.68527889251708984 1 -30.84836387634277344 10.68527889251708984 -26.79182243347167969 12.745391845703125 1 -26.79182243347167969 12.745391845703125 -22.10639572143554688 13.8320465087890625 1 -22.10639572143554688 13.8320465087890625 -16.97161674499511719 13.8917083740234375 1 -16.97161674499511719 13.8917083740234375 -11.58923244476318359 12.91239833831787109 1 -32.01569747924804688 5.309320926666259766 -31.95909690856933594 5.972140789031982422 1 -30.5449981689453125 10.26609039306640625 -31.95909690856933594 5.972140789031982422 1 #
edge $4 $16 $17 $18 $19 0 #
attrib_fhl_slist-attrib_fhlgeom-attrib_fhl-attrib $-1 $15 $-1 $20 1 21 1 -57.01334762573242188 29.64391517639160156 -54.83257293701171875 -28.51002883911132812 1 #
attrib_fhlmark-attrib_fhlgeom-attrib_fhl-attrib $-1 $-1 $5 $2 3 -1 #
attrib_fhlmark-attrib_fhlgeom-attrib_fhl-attrib $-1 $22 $-1 $6 1 5 #
face $23 $24 $25 $6 $-1 $26 reversed single #
epar-lwd-attrib $-1 $-1 $8 $9 #
attrib_fhl_slist-attrib_fhlgeom-attrib_fhl-attrib $-1 $27 $10 $20 3 28 1 -57.01334762573242188 29.64391517639160156 -54.83257293701171875 -28.51002883911132812 1 #
vertex $-1 $29 $30 #
vertex $-1 $31 $32 #
coedge $33 $34 $35 $36 $9 0 $37 $-1 #
ellipse-curve $-1 0 -25 -8.728703347107833388e-14 0 1 -0 30 0 0 1 I I #
edge $10 $38 $39 $40 $41 0 #
attrib_fhl_slist-attrib_fhlgeom-attrib_fhl-attrib $-1 $28 $-1 $42 1 43 4 -41.55920791625976562 -44.27322769165039062 -46.5134735107421875 -41.88545608520507812 1 -54.83257293701171875 -28.51002883911132812 -53.68478012084960938 -33.37410354614257812 1 -53.68478012084960938 -33.37410354614257812 -50.76517486572265625 -38.06380462646484375 1 -50.76517486572265625 -38.06380462646484375 -46.5134735107421875 -41.88545608520507812 1 #
attrib_fhlmark-attrib_fhlgeom-attrib_fhl-attrib $-1 $-1 $12 $6 3 11 #
attrib_fhl_slist-attrib_fhlgeom-attrib_fhl-attrib $-1 $44 $-1 $13 1 45 8 24.89512252807617188 29.63434791564941406 26.63525772094726562 30.16883468627929688 1 26.63525772094726562 30.16883468627929688 27.84095382690429688 31.01961135864257812 1 28.3296661376953125 32.05524826049804688 28.24815940856933594 27.67409133911132812 1 28.24815940856933594 27.67409133911132812 28.19483566284179688 24.80783653259277344 1 28.19483566284179688 24.80783653259277344 28.16711997985839844 23.31807327270507812 1 27.02914047241210938 34.01064300537109375 26.99178314208984375 34.04398727416992188 1 26.99178314208984375 34.04398727416992188 26.99009323120117188 33.94853591918945312 1 26.09591293334960938 30.003173828125 25.30150413513183594 30.3258514404296875 1 #
face $46 $47 $48 $6 $-1 $49 reversed single #
loop $-1 $50 $51 $13 #
cone-surface $-1 25 0 0 0 0 1 5 0 0 1 I I 0 1 0 I I I I #
epar-lwd-attrib $-1 $-1 $15 $20 #
attrib_fhl_slist-attrib_fhlgeom-attrib_fhl-attrib $-1 $52 $21 $42 3 53 4 -41.55920791625976562 -44.27322769165039062 -46.5134735107421875 -41.88545608520507812 1 -54.83257293701171875 -28.51002883911132812 -53.68478012084960938 -33.37410354614257812 1 -53.68478012084960938 -33.37410354614257812 -50.76517486572265625 -38.06380462646484375 1 -50.76517486572265625 -38.06380462646484375 -46.5134735107421875 -41.88545608520507812 1 #
edge $54 $55 $16 $35 $56 0 #
point $-1 0 -25 -30 #
edge $57 $17 $58 $34 $59 0 #
point $-1 0 -25 30 #
copar-lwd-attrib $-1 $-1 $-1 $18 #
coedge $60 $61 $18 $62 $31 0 $37 $-1 #
coedge $63 $18 $64 $65 $29 0 $37 $-1 #
coedge $66 $67 $68 $18 $9 1 $69 $-1 #
loop $-1 $-1 $61 $70 #
vertex $-1 $71 $72 #
vertex $-1 $20 $73 #
coedge $-1 $74 $75 $76 $20 1 $77 $-1 #
straight-curve $-1 -50 -25 0 0 0 -1 I I #
edge $21 $78 $39 $79 $80 0 #
attrib_fhl_slist-attrib_fhlgeom-attrib_fhl-attrib $-1 $53 $-1 $81 1 82 8 24.73454093933105469 -64.30324554443359375 28.22892189025878906 -64.7464447021484375 1 28.22892189025878906 -64.7464447021484375 31.22823524475097656 -63.90240859985351562 1 28.52473831176757812 -49.8034820556640625 25.01481056213378906 -48.14047622680664062 1 31.47869682312011719 -52.45882034301757812 28.52473831176757812 -49.8034820556640625 1 33.418426513671875 -55.69454574584960938 31.47869682312011719 -52.45882034301757812 1 34.04680633544921875 -59.00844192504882812 33.418426513671875 -55.69454574584960938 1 33.27414321899414062 -61.8901824951171875 34.04680633544921875 -59.00844192504882812 1 31.22823524475097656 -63.90240859985351562 33.27414321899414062 -61.8901824951171875 1 #
attrib_fhl_slist-attrib_fhlgeom-attrib_fhl-attrib $-1 $83 $23 $13 3 84 8 24.89512252807617188 29.63434791564941406 26.63525772094726562 30.16883468627929688 1 26.63525772094726562 30.16883468627929688 27.84095382690429688 31.01961135864257812 1 28.3296661376953125 32.05524826049804688 28.24815940856933594 27.67409133911132812 1 28.24815940856933594 27.67409133911132812 28.19483566284179688 24.80783653259277344 1 28.19483566284179688 24.80783653259277344 28.16711997985839844 23.31807327270507812 1 27.02914047241210938 34.01064300537109375 26.99178314208984375 34.04398727416992188 1 26.99178314208984375 34.04398727416992188 26.99009323120117188 33.94853591918945312 1 26.09591293334960938 30.003173828125 25.30150413513183594 30.3258514404296875 1 #
attrib_fhl_slist-attrib_fhlgeom-attrib_fhl-attrib $-1 $85 $-1 $86 1 87 3 20.6221923828125 4.070285797119140625 27.86269378662109375 -35.65439224243164062 1 26.29568672180175781 -33.77399063110351562 27.6284332275390625 -34.36913299560546875 1 27.6284332275390625 -34.36913299560546875 29.19096183776855469 -35.06688690185546875 1 #
fface-lwd-attrib $-1 $-1 $-1 $24 #
face $88 $89 $90 $6 $-1 $91 reversed single #
loop $-1 $92 $93 $24 #
cone-surface $-1 25 0 -40 0 0 1 10 0 0 1 I I 0 1 0 I I I I #
loop $-1 $-1 $94 $13 #
coedge $95 $51 $51 $96 $97 1 $25 $-1 #
epar-lwd-attrib $-1 $-1 $28 $42 #
attrib_fhl_slist-attrib_fhlgeom-attrib_fhl-attrib $-1 $98 $43 $81 3 99 8 24.73454093933105469 -64.30324554443359375 28.22892189025878906 -64.7464447021484375 1 28.22892189025878906 -64.7464447021484375 31.22823524475097656 -63.90240859985351562 1 28.52473831176757812 -49.8034820556640625 25.01481056213378906 -48.14047622680664062 1 31.47869682312011719 -52.45882034301757812 28.52473831176757812 -49.8034820556640625 1 33.418426513671875 -55.69454574584960938 31.47869682312011719 -52.45882034301757812 1 34.04680633544921875 -59.00844192504882812 33.418426513671875 -55.69454574584960938 1 33.27414321899414062 -61.8901824951171875 34.04680633544921875 -59.00844192504882812 1 31.22823524475097656 -63.90240859985351562 33.27414321899414062 -61.8901824951171875 1 #
epar-lwd-attrib $-1 $-1 $-1 $29 #
vertex $-1 $100 $101 #
straight-curve $-1 12.5 -25 -30 -1 0 0 I I #
attrib_fhl_slist-attrib_fhlgeom-attrib_fhl-attrib $-1 $102 $-1 $31 1 103 1 25.89506721496582031 2.622869014739990234 -11.58923244476318359 12.91239833831787109 1 #
vertex $-1 $31 $104 #
straight-curve $-1 12.5 -25 30 1 -0 0 I I #
copar-lwd-attrib $-1 $-1 $-1 $34 #
coedge $105 $106 $34 $107 $108 1 $37 $-1 #
coedge $109 $110 $111 $34 $31 1 $112 $-1 #
copar-lwd-attrib $-1 $-1 $-1 $35 #
coedge $113 $35 $114 $115 $81 1 $37 $-1 #
coedge $116 $117 $118 $35 $29 1 $119 $-1 #
copar-lwd-attrib $-1 $-1 $-1 $36 #
coedge $120 $121 $36 $118 $122 1 $69 $-1 #
coedge $123 $36 $121 $110 $124 0 $69 $-1 #
loop $-1 $-1 $36 $125 #
face $126 $127 $37 $6 $-1 $128 reversed single #
edge $129 $38 $130 $131 $132 0 #
point $-1 -50 -25 35 #
point $-1 -50 -25 -35 #
coedge $-1 $133 $40 $134 $135 1 $77 $-1 #
coedge $-1 $40 $133 $136 $137 1 $77 $-1 #
coedge $138 $79 $131 $40 $20 0 $37 $-1 #
loop $-1 $-1 $74 $139 #
vertex $-1 $140 $141 #
coedge $142 $114 $76 $143 $42 1 $37 $-1 #
ellipse-curve $-1 -35 -25 -35 0 1 -0 -10.60660171779821148 0 -10.60660171779821148 1 I I #
edge $43 $55 $144 $64 $145 0 #
attrib_fhl_slist-attrib_fhlgeom-attrib_fhl-attrib $-1 $99 $-1 $140 1 129 1 24.73454093933105469 -64.30324554443359375 -41.55920791625976562 -44.27322769165039062 1 #
fface-lwd-attrib $-1 $-1 $44 $13 #
attrib_fhl_slist-attrib_fhlgeom-attrib_fhl-attrib $-1 $146 $-1 $147 3 148 1 28.25861549377441406 28.23614692687988281 48.11904144287109375 45.1029052734375 1 #
attrib_fhl_slist-attrib_fhlgeom-attrib_fhl-attrib $-1 $149 $45 $86 3 150 1 26.29568672180175781 -33.77399063110351562 29.19096183776855469 -35.06688690185546875 1 #
edge $45 $151 $151 $152 $153 0 #
attrib_fhl_slist-attrib_fhlgeom-attrib_fhl-attrib $-1 $154 $-1 $155 1 156 2 28.25861549377441406 28.23614692687988281 48.11904144287109375 45.1029052734375 1 -20.05014801025390625 62.46733856201171875 48.11904144287109375 45.1029052734375 1 #
attrib_fhl_slist-attrib_fhlgeom-attrib_fhl-attrib $-1 $157 $-1 $47 1 12 2 17.83158302307128906 19.38083457946777344 17.83158302307128906 19.38083457946777344 1 34.44528579711914062 25.54356765747070312 57.17577362060546875 33.97527694702148438 1 #
face $158 $159 $160 $6 $-1 $161 forward single #
loop $-1 $-1 $162 $47 #
plane-surface $-1 0 25 0 0 -1 0 0 0 -1 0 I I I I #
loop $-1 $-1 $163 $24 #
coedge $164 $93 $93 $152 $86 1 $48 $-1 #
coedge $165 $94 $94 $166 $167 1 $50 $-1 #
copar-lwd-attrib $-1 $-1 $-1 $51 #
coedge $168 $96 $96 $51 $97 0 $169 $-1 #
edge $170 $171 $171 $96 $172 0 #
epar-lwd-attrib $-1 $-1 $53 $81 #
attrib_fhl_slist-attrib_fhlgeom-attrib_fhl-attrib $-1 $173 $82 $140 3 174 1 24.73454093933105469 -64.30324554443359375 -41.55920791625976562 -44.27322769165039062 1 #
edge $175 $176 $55 $117 $177 0 #
point $-1 40 -25 -30 #
attrib_fhl_slist-attrib_fhlgeom-attrib_fhl-attrib $-1 $178 $57 $31 3 179 1 25.89506721496582031 2.622869014739990234 -11.58923244476318359 12.91239833831787109 1 #
attrib_fhl_slist-attrib_fhlgeom-attrib_fhl-attrib $-1 $179 $-1 $180 1 181 1 26.20241737365722656 20.34733390808105469 -43.95447540283203125 39.0923614501953125 1 #
point $-1 40 -25 30 #
copar-lwd-attrib $-1 $-1 $-1 $61 #
coedge $182 $131 $61 $183 $180 1 $37 $-1 #
coedge $184 $185 $186 $61 $108 0 $160 $-1 #
edge $187 $188 $58 $61 $189 0 #
copar-lwd-attrib $-1 $-1 $-1 $62 #
coedge $190 $191 $62 $68 $124 1 $112 $-1 #
coedge $192 $62 $191 $185 $193 1 $112 $-1 #
loop $-1 $-1 $111 $194 #
copar-lwd-attrib $-1 $-1 $-1 $64 #
coedge $195 $64 $79 $196 $140 1 $37 $-1 #
coedge $197 $198 $199 $64 $81 0 $200 $-1 #
copar-lwd-attrib $-1 $-1 $-1 $65 #
coedge $201 $202 $65 $199 $100 1 $119 $-1 #
coedge $203 $65 $202 $67 $122 0 $119 $-1 #
loop $-1 $-1 $117 $204 #
copar-lwd-attrib $-1 $-1 $-1 $67 #
coedge $205 $68 $67 $206 $207 1 $69 $-1 #
edge $208 $209 $16 $67 $210 0 #
copar-lwd-attrib $-1 $-1 $-1 $68 #
edge $211 $212 $17 $68 $213 0 #
face $214 $139 $69 $6 $-1 $215 reversed single #
attrib_fhl_slist-attrib_fhlgeom-attrib_fhl-attrib $-1 $216 $-1 $70 1 88 4 17.83158302307128906 19.38083457946777344 17.83158302307128906 19.38083457946777344 1 10.04109096527099609 6.974823474884033203 -16.32047080993652344 -35.00478363037109375 1 1.933147072792053223 9.200473785400390625 -36.03839111328125 -15.11411857604980469 1 -8.290279388427734375 12.00682830810546875 -36.50623321533203125 4.041676044464111328 1 #
face $217 $204 $200 $6 $-1 $218 forward single #
plane-surface $-1 0 -25 0 0 1 -0 -0 0 1 0 I I I I #
attrib_fhl_slist-attrib_fhlgeom-attrib_fhl-attrib $-1 $174 $-1 $71 1 57 4 -43.95447540283203125 39.0923614501953125 -49.125579833984375 39.4778594970703125 1 -49.125579833984375 39.4778594970703125 -53.41642379760742188 37.80176925659179688 1 -53.41642379760742188 37.80176925659179688 -56.17929458618164062 34.34246444702148438 1 -56.17929458618164062 34.34246444702148438 -57.01334762573242188 29.64391517639160156 1 #
vertex $-1 $71 $219 #
coedge $220 $76 $106 $221 $71 1 $37 $-1 #
ellipse-curve $-1 -35 -25 35 0 1 -0 -10.60660171779821148 0 10.60660171779821148 1 I I #
coedge $-1 $75 $74 $222 $223 0 $77 $-1 #
coedge $224 $221 $225 $74 $135 0 $226 $-1 #
edge $227 $228 $38 $74 $229 0 #
coedge $230 $231 $143 $75 $137 0 $232 $-1 #
edge $233 $39 $234 $75 $235 0 #
copar-lwd-attrib $-1 $-1 $-1 $76 #
face $-1 $-1 $77 $6 $-1 $236 reversed single #
edge $82 $144 $78 $114 $237 0 #
point $-1 -35 -25 -50 #
copar-lwd-attrib $-1 $-1 $-1 $79 #
coedge $238 $136 $239 $79 $42 0 $232 $-1 #
vertex $-1 $81 $240 #
ellipse-curve $-1 40 -25 -40 0 1 -0 7.071067811865474617 0 -7.071067811865474617 1 I I #
fface-lwd-attrib $-1 $-1 $84 $147 #
face $84 $241 $242 $6 $-1 $243 forward single #
attrib_fhl_slist-attrib_fhlgeom-attrib_fhl-attrib $-1 $244 $156 $167 3 157 14 23.52036476135253906 34.10487747192382812 25.44732856750488281 39.0923614501953125 1 24.91163063049316406 30.64249420166015625 27.92164802551269531 35.43028640747070312 1 24.93239021301269531 31.91027450561523438 28.11120796203613281 37.51932525634765625 1 18.51534271240234375 35.61526870727539062 18.54277229309082031 37.87636947631835938 1 20.98177909851074219 34.20014190673828125 24.967437744140625 34.05057525634765625 1 20.98177909851074219 34.20014190673828125 19.354888916015625 34.85876846313476562 1 24.967437744140625 34.05057525634765625 24.89512252807617188 29.63434791564941406 1 25.44732856750488281 39.0923614501953125 21.49310874938964844 39.23956680297851562 1 21.49310874938964844 39.23956680297851562 18.54277229309082031 37.87636947631835938 1 18.54277229309082031 37.87636947631835938 18.03785896301269531 36.84949493408203125 1 19.354888916015625 34.85876846313476562 18.32177543640136719 35.7896881103515625 1 18.32177543640136719 35.7896881103515625 18.03785896301269531 36.84949493408203125 1 27.92164802551269531 35.43028640747070312 28.41164588928222656 36.461761474609375 1 28.11120796203613281 37.51932525634765625 28.41164588928222656 36.461761474609375 1 #
epar-lwd-attrib $-1 $-1 $85 $86 #
attrib_fhl_slist-attrib_fhlgeom-attrib_fhl-attrib $-1 $245 $246 $247 3 248 7 25.53446197509765625 -36.44345855712890625 28.87936782836914062 -35.30983352661132812 1 28.87936782836914062 -35.30983352661132812 31.189117431640625 -33.50896835327148438 1 31.189117431640625 -33.50896835327148438 32.11587905883789062 -31.32274818420410156 1 26.29568672180175781 -33.77399063110351562 22.58882713317871094 -33.18353652954101562 1 29.37816619873046875 -34.920928955078125 29.53513336181640625 -27.14271926879882812 1 29.53513336181640625 -27.14271926879882812 31.53050613403320312 -29.08794593811035156 1 31.53050613403320312 -29.08794593811035156 32.11587905883789062 -31.32274818420410156 1 #
vertex $-1 $86 $249 #
coedge $250 $152 $152 $93 $86 0 $251 $-1 #
ellipse-curve $-1 25 0 -50 0 0 1 10 0 0 1 I I #
attrib_fhl_slist-attrib_fhlgeom-attrib_fhl-attrib $-1 $252 $87 $155 3 253 1 -20.05014801025390625 62.46733856201171875 48.11904144287109375 45.1029052734375 1 #
edge $87 $254 $255 $256 $257 0 #
attrib_fhl_slist-attrib_fhlgeom-attrib_fhl-attrib $-1 $148 $-1 $167 1 126 14 23.52036476135253906 34.10487747192382812 25.44732856750488281 39.0923614501953125 1 24.91163063049316406 30.64249420166015625 27.92164802551269531 35.43028640747070312 1 24.93239021301269531 31.91027450561523438 28.11120796203613281 37.51932525634765625 1 18.51534271240234375 35.61526870727539062 18.54277229309082031 37.87636947631835938 1 20.98177909851074219 34.20014190673828125 24.967437744140625 34.05057525634765625 1 20.98177909851074219 34.20014190673828125 19.354888916015625 34.85876846313476562 1 24.967437744140625 34.05057525634765625 24.89512252807617188 29.63434791564941406 1 25.44732856750488281 39.0923614501953125 21.49310874938964844 39.23956680297851562 1 21.49310874938964844 39.23956680297851562 18.54277229309082031 37.87636947631835938 1 18.54277229309082031 37.87636947631835938 18.03785896301269531 36.84949493408203125 1 19.354888916015625 34.85876846313476562 18.32177543640136719 35.7896881103515625 1 18.32177543640136719 35.7896881103515625 18.03785896301269531 36.84949493408203125 1 27.92164802551269531 35.43028640747070312 28.41164588928222656 36.461761474609375 1 28.11120796203613281 37.51932525634765625 28.41164588928222656 36.461761474609375 1 #
attrib_fhl_slist-attrib_fhlgeom-attrib_fhl-attrib $-1 $258 $88 $47 3 216 1 17.83158302307128906 19.38083457946777344 17.83158302307128906 19.38083457946777344 1 #
attrib_fhl_slist-attrib_fhlgeom-attrib_fhl-attrib $-1 $259 $-1 $89 1 260 2 56.34027481079101562 30.84263038635253906 43.66602325439453125 16.19922447204589844 1 43.66602325439453125 16.19922447204589844 46.62617874145507812 21.645660400390625 1 #
face $261 $70 $251 $6 $-1 $262 reversed single #
loop $-1 $-1 $107 $89 #
cone-surface $-1 40 0 40 0 1 -0 7.071067811865474617 0 -7.071067811865474617 1 I I 0 1 0 I I I I #
coedge $263 $264 $256 $265 $266 1 $90 $-1 #
coedge $267 $163 $163 $268 $247 1 $92 $-1 #
copar-lwd-attrib $-1 $-1 $-1 $93 #
copar-lwd-attrib $-1 $-1 $-1 $94 #
coedge $269 $166 $166 $94 $167 0 $242 $-1 #
edge $156 $270 $270 $166 $271 0 #
copar-lwd-attrib $-1 $-1 $-1 $96 #
loop $-1 $112 $96 $194 #
attrib_fhl_slist-attrib_fhlgeom-attrib_fhl-attrib $-1 $248 $-1 $97 1 23 2 25.33981704711914062 32.629180908203125 25.31751060485839844 31.28809356689453125 1 25.31751060485839844 31.28809356689453125 25.30150413513183594 30.3258514404296875 1 #
vertex $-1 $97 $272 #
ellipse-curve $-1 25 0 30 0 0 1 5 0 0 1 I I #
epar-lwd-attrib $-1 $-1 $99 $140 #
attrib_fhl_slist-attrib_fhlgeom-attrib_fhl-attrib $-1 $273 $129 $71 3 102 4 -43.95447540283203125 39.0923614501953125 -49.125579833984375 39.4778594970703125 1 -49.125579833984375 39.4778594970703125 -53.41642379760742188 37.80176925659179688 1 -53.41642379760742188 37.80176925659179688 -56.17929458618164062 34.34246444702148438 1 -56.17929458618164062 34.34246444702148438 -57.01334762573242188 29.64391517639160156 1 #
attrib_fhl_slist-attrib_fhlgeom-attrib_fhl-attrib $-1 $274 $-1 $100 1 275 2 46.01745223999023438 -21.97344017028808594 35.71077346801757812 -34.814453125 1 25.01481056213378906 -48.14047622680664062 35.71077346801757812 -34.814453125 1 #
vertex $-1 $276 $277 #
straight-curve $-1 40 0 -30 0 -1 0 F -56 F 56 #
epar-lwd-attrib $-1 $-1 $102 $31 #
attrib_fhl_slist-attrib_fhlgeom-attrib_fhl-attrib $-1 $278 $103 $180 3 279 1 26.20241737365722656 20.34733390808105469 -43.95447540283203125 39.0923614501953125 1 #
edge $103 $130 $188 $106 $280 0 #
attrib_fhl_slist-attrib_fhlgeom-attrib_fhl-attrib $-1 $279 $-1 $281 1 187 2 31.84256172180175781 26.71806907653808594 26.20241737365722656 20.34733390808105469 1 35.490447998046875 25.071929931640625 31.84256172180175781 26.71806907653808594 1 #
copar-lwd-attrib $-1 $-1 $-1 $106 #
coedge $282 $283 $284 $106 $180 0 $285 $-1 #
copar-lwd-attrib $-1 $-1 $-1 $107 #
coedge $286 $265 $107 $111 $193 0 $160 $-1 #
coedge $287 $107 $265 $283 $281 0 $160 $-1 #
attrib_fhl_slist-attrib_fhlgeom-attrib_fhl-attrib $-1 $288 $-1 $108 1 158 10 29.88042449951171875 18.67812156677246094 35.490447998046875 25.071929931640625 1 29.88042449951171875 18.67812156677246094 26.20241737365722656 20.34733390808105469 1 29.88042449951171875 18.67812156677246094 32.97476959228515625 15.89638423919677734 1 43.66602325439453125 16.19922447204589844 40.55499649047851562 15.13256072998046875 1 29.55598258972167969 2.289101123809814453 25.89506721496582031 2.622869014739990234 1 29.55598258972167969 2.289101123809814453 32.70003890991210938 3.34394526481628418 1 32.70003890991210938 3.34394526481628418 34.84671783447265625 5.637564659118652344 1 34.84671783447265625 5.637564659118652344 35.66002655029296875 8.829201698303222656 1 35.66002655029296875 8.829201698303222656 35.00499343872070312 12.43406009674072266 1 35.00499343872070312 12.43406009674072266 32.97476959228515625 15.89638423919677734 1 #
vertex $-1 $180 $289 #
ellipse-curve $-1 40 -25 40 0 1 -0 7.071067811865474617 0 7.071067811865474617 1 I I #
copar-lwd-attrib $-1 $-1 $-1 $110 #
coedge $290 $111 $110 $264 $291 1 $112 $-1 #
copar-lwd-attrib $-1 $-1 $-1 $111 #
edge $292 $58 $293 $111 $294 0 #
face $295 $125 $169 $6 $-1 $296 reversed single #
copar-lwd-attrib $-1 $-1 $-1 $114 #
coedge $297 $298 $299 $114 $140 0 $300 $-1 #
copar-lwd-attrib $-1 $-1 $-1 $115 #
coedge $301 $302 $115 $299 $303 0 $200 $-1 #
coedge $304 $115 $302 $117 $100 0 $200 $-1 #
loop $-1 $-1 $302 $127 #
copar-lwd-attrib $-1 $-1 $-1 $117 #
coedge $305 $118 $117 $306 $276 1 $119 $-1 #
copar-lwd-attrib $-1 $-1 $-1 $118 #
face $307 $308 $309 $6 $-1 $310 forward single #
copar-lwd-attrib $-1 $-1 $-1 $121 #
coedge $311 $306 $264 $121 $207 0 $90 $-1 #
edge $312 $212 $209 $206 $313 0 #
epar-lwd-attrib $-1 $-1 $-1 $122 #
vertex $-1 $276 $314 #
straight-curve $-1 0 1.047444401652940007e-13 -30 0 -1 -3.491481338843133355e-15 I I #
epar-lwd-attrib $-1 $-1 $-1 $124 #
vertex $-1 $291 $315 #
straight-curve $-1 0 -1.047444401652940007e-13 30 0 -1 -3.491481338843133355e-15 I I #
fface-lwd-attrib $-1 $-1 $-1 $125 #
cone-surface $-1 0 0 0 0 -1 -3.491481338843133355e-15 30 0 0 1 I I 0 1 0 I I I I #
attrib_fhl_slist-attrib_fhlgeom-attrib_fhl-attrib $-1 $316 $126 $70 3 22 5 17.83158302307128906 19.38083457946777344 17.83158302307128906 19.38083457946777344 1 17.83158302307128906 19.38083457946777344 17.83158302307128906 19.38083457946777344 1 10.04109096527099609 6.974823474884033203 -16.32047080993652344 -35.00478363037109375 1 1.933147072792053223 9.200473785400390625 -36.03839111328125 -15.11411857604980469 1 -8.290279388427734375 12.00682830810546875 -36.50623321533203125 4.041676044464111328 1 #
attrib_fhl_slist-attrib_fhlgeom-attrib_fhl-attrib $-1 $317 $-1 $127 1 175 2 53.88988494873046875 -35.33388519287109375 44.55588150024414062 -45.50600814819335938 1 33.27414321899414062 -61.8901824951171875 44.55588150024414062 -45.50600814819335938 1 #
cone-surface $-1 40 0 -40 0 -1 0 7.071067811865474617 0 7.071067811865474617 1 I I 0 1 0 I I I I #
point $-1 -35 -25 50 #
copar-lwd-attrib $-1 $-1 $-1 $131 #
coedge $318 $319 $134 $131 $71 0 $226 $-1 #
coedge $320 $321 $322 $133 $223 1 $90 $-1 #
edge $323 $228 $234 $222 $324 0 #
copar-lwd-attrib $-1 $-1 $-1 $134 #
coedge $325 $134 $319 $321 $326 0 $226 $-1 #
loop $-1 $-1 $319 $308 #
epar-lwd-attrib $-1 $-1 $-1 $135 #
vertex $-1 $135 $327 #
straight-curve $-1 -50 0 35 0 -1 0 F -71.5 F 71.5 #
copar-lwd-attrib $-1 $-1 $-1 $136 #
coedge $328 $239 $136 $322 $329 0 $232 $-1 #
loop $-1 $-1 $239 $241 #
epar-lwd-attrib $-1 $-1 $-1 $137 #
vertex $-1 $223 $330 #
straight-curve $-1 -50 0 -35 0 1 0 F -71.5 F 71.5 #
plane-surface $-1 -50 0 0 1 0 0 0 0 -1 0 I I I I #
straight-curve $-1 0 -25 -50 -1 0 0 I I #
copar-lwd-attrib $-1 $-1 $-1 $143 #
coedge $331 $143 $231 $298 $332 0 $232 $-1 #
point $-1 40 -25 -50 #
face $333 $194 $232 $6 $-1 $334 forward single #
loop $-1 $285 $166 $147 #
plane-surface $-1 0 0 50 0 0 1 1 0 0 0 I I I I #
epar-lwd-attrib $-1 $-1 $148 $167 #
epar-lwd-attrib $-1 $-1 $150 $247 #
attrib_fhl_slist-attrib_fhlgeom-attrib_fhl-attrib $-1 $150 $-1 $247 1 170 9 25.53446197509765625 -36.44345855712890625 28.87936782836914062 -35.30983352661132812 1 28.87936782836914062 -35.30983352661132812 31.189117431640625 -33.50896835327148438 1 31.189117431640625 -33.50896835327148438 32.11587905883789062 -31.32274818420410156 1 26.440032958984375 -25.77640151977539062 26.05109786987304688 -25.71515464782714844 1 26.440032958984375 -25.77640151977539062 29.53513336181640625 -27.14271926879882812 1 26.29568672180175781 -33.77399063110351562 22.58882713317871094 -33.18353652954101562 1 29.37816619873046875 -34.920928955078125 29.53513336181640625 -27.14271926879882812 1 29.53513336181640625 -27.14271926879882812 31.53050613403320312 -29.08794593811035156 1 31.53050613403320312 -29.08794593811035156 32.11587905883789062 -31.32274818420410156 1 #
edge $246 $335 $335 $268 $336 0 #
attrib_fhl_slist-attrib_fhlgeom-attrib_fhl-attrib $-1 $337 $170 $97 3 44 2 25.33981704711914062 32.629180908203125 25.31751060485839844 31.28809356689453125 1 25.31751060485839844 31.28809356689453125 25.30150413513183594 30.3258514404296875 1 #
point $-1 15 6.982962677686266711e-14 -50 #
copar-lwd-attrib $-1 $-1 $-1 $152 #
loop $-1 $300 $152 $159 #
epar-lwd-attrib $-1 $-1 $154 $155 #
attrib_fhl_slist-attrib_fhlgeom-attrib_fhl-attrib $-1 $338 $339 $308 3 340 2 -29.31534194946289062 61.0764007568359375 -41.14019775390625 49.6570281982421875 1 -53.41642379760742188 37.80176925659179688 -41.14019775390625 49.6570281982421875 1 #
vertex $-1 $266 $341 #
vertex $-1 $155 $342 #
coedge $343 $162 $321 $344 $155 1 $90 $-1 #
straight-curve $-1 0 25 50 -1 0 0 I I #
fface-lwd-attrib $-1 $-1 $157 $47 #
attrib_fhl_slist-attrib_fhlgeom-attrib_fhl-attrib $-1 $345 $158 $89 3 346 2 56.34027481079101562 30.84263038635253906 43.66602325439453125 16.19922447204589844 1 43.66602325439453125 16.19922447204589844 46.62617874145507812 21.645660400390625 1 #
attrib_fhl_slist-attrib_fhlgeom-attrib_fhl-attrib $-1 $347 $-1 $348 1 292 2 -20.05014801025390625 62.46733856201171875 -31.77701950073242188 51.00015640258789062 1 -43.95447540283203125 39.0923614501953125 -31.77701950073242188 51.00015640258789062 1 #
fface-lwd-attrib $-1 $-1 $-1 $159 #
plane-surface $-1 0 0 -50 0 0 1 1 0 0 0 I I I I #
copar-lwd-attrib $-1 $-1 $-1 $162 #
coedge $349 $206 $162 $191 $291 0 $90 $-1 #
coedge $350 $186 $185 $162 $266 0 $160 $-1 #
edge $351 $293 $254 $162 $352 0 #
copar-lwd-attrib $-1 $-1 $-1 $163 #
coedge $353 $268 $268 $163 $247 0 $309 $-1 #
copar-lwd-attrib $-1 $-1 $-1 $166 #
vertex $-1 $167 $354 #
ellipse-curve $-1 25 0 50 -0 -0 -1 5 0 0 1 I I #
point $-1 20 3.491481338843133355e-14 30 #
epar-lwd-attrib $-1 $-1 $174 $71 #
attrib_fhl_slist-attrib_fhlgeom-attrib_fhl-attrib $-1 $355 $175 $100 3 356 2 46.01745223999023438 -21.97344017028808594 35.71077346801757812 -34.814453125 1 25.01481056213378906 -48.14047622680664062 35.71077346801757812 -34.814453125 1 #
attrib_fhl_slist-attrib_fhlgeom-attrib_fhl-attrib $-1 $356 $-1 $357 1 358 5 46.01745223999023438 -21.97344017028808594 49.42005538940429688 -23.55026435852050781 1 49.42005538940429688 -23.55026435852050781 52.2663421630859375 -26.10893630981445312 1 52.2663421630859375 -26.10893630981445312 54.11505508422851562 -29.25277519226074219 1 54.11505508422851562 -29.25277519226074219 54.68317031860351562 -32.494110107421875 1 54.68317031860351562 -32.494110107421875 53.88988494873046875 -35.33388519287109375 1 #
edge $358 $209 $176 $306 $359 0 #
point $-1 40 25 -30 #
epar-lwd-attrib $-1 $-1 $179 $180 #
attrib_fhl_slist-attrib_fhlgeom-attrib_fhl-attrib $-1 $360 $181 $281 3 288 2 31.84256172180175781 26.71806907653808594 26.20241737365722656 20.34733390808105469 1 35.490447998046875 25.071929931640625 31.84256172180175781 26.71806907653808594 1 #
straight-curve $-1 0 -25 50 1 0 0 I I #
edge $181 $254 $188 $283 $361 0 #
copar-lwd-attrib $-1 $-1 $-1 $183 #
coedge $362 $344 $183 $186 $281 1 $285 $-1 #
coedge $363 $183 $344 $319 $348 1 $285 $-1 #
loop $-1 $-1 $283 $147 #
copar-lwd-attrib $-1 $-1 $-1 $185 #
copar-lwd-attrib $-1 $-1 $-1 $186 #
attrib_fhl_slist-attrib_fhlgeom-attrib_fhl-attrib $-1 $364 $187 $108 3 259 10 29.88042449951171875 18.67812156677246094 35.490447998046875 25.071929931640625 1 29.88042449951171875 18.67812156677246094 26.20241737365722656 20.34733390808105469 1 29.88042449951171875 18.67812156677246094 32.97476959228515625 15.89638423919677734 1 43.66602325439453125 16.19922447204589844 40.55499649047851562 15.13256072998046875 1 29.55598258972167969 2.289101123809814453 25.89506721496582031 2.622869014739990234 1 29.55598258972167969 2.289101123809814453 32.70003890991210938 3.34394526481628418 1 32.70003890991210938 3.34394526481628418 34.84671783447265625 5.637564659118652344 1 34.84671783447265625 5.637564659118652344 35.66002655029296875 8.829201698303222656 1 35.66002655029296875 8.829201698303222656 35.00499343872070312 12.43406009674072266 1 35.00499343872070312 12.43406009674072266 32.97476959228515625 15.89638423919677734 1 #
point $-1 40 -25 50 #
copar-lwd-attrib $-1 $-1 $-1 $191 #
edge $365 $293 $212 $264 $366 0 #
attrib_fhl_slist-attrib_fhlgeom-attrib_fhl-attrib $-1 $346 $-1 $193 1 339 3 47.5758514404296875 27.76592826843261719 36.94332122802734375 15.43545627593994141 1 40.55499649047851562 15.13256072998046875 36.94332122802734375 15.43545627593994141 1 36.94332122802734375 15.43545627593994141 34.7419891357421875 12.88258457183837891 1 #
vertex $-1 $266 $367 #
straight-curve $-1 40 0 30 0 1 0 F -56 F 56 #
fface-lwd-attrib $-1 $-1 $-1 $194 #
plane-surface $-1 25 0 30 0 0 1 1 0 0 0 I I I I #
copar-lwd-attrib $-1 $-1 $-1 $196 #
coedge $368 $369 $196 $239 $332 1 $300 $-1 #
coedge $370 $196 $369 $198 $303 1 $300 $-1 #
loop $-1 $-1 $299 $159 #
copar-lwd-attrib $-1 $-1 $-1 $198 #
coedge $371 $199 $198 $372 $357 0 $200 $-1 #
edge $373 $144 $374 $299 $375 0 #
copar-lwd-attrib $-1 $-1 $-1 $199 #
copar-lwd-attrib $-1 $-1 $-1 $202 #
coedge $376 $372 $206 $202 $276 0 $90 $-1 #
fface-lwd-attrib $-1 $-1 $-1 $204 #
face $339 $147 $226 $6 $-1 $377 forward single #
loop $-1 $119 $268 $204 #
plane-surface $-1 25 0 -30 0 0 1 1 0 0 0 I I I I #
copar-lwd-attrib $-1 $-1 $-1 $206 #
attrib_fhl_slist-attrib_fhlgeom-attrib_fhl-attrib $-1 $378 $-1 $207 1 365 5 -14.33992958068847656 13.41288089752197266 -13.46683979034423828 10.54552459716796875 1 -8.989302635192871094 2.206421852111816406 -7.506101131439208984 0.1205831915140151978 1 -7.506101131439208984 0.1205831915140151978 -3.588459968566894531 -3.952929496765136719 1 -3.588459968566894531 -3.952929496765136719 0.8782519102096557617 -7.416322231292724609 1 0.8782519102096557617 -7.416322231292724609 0.9712161421775817871 -7.468545436859130859 1 #
ellipse-curve $-1 0 25 8.728703347107833388e-14 0 -1 0 30 0 0 1 I I #
point $-1 0 25 -30 #
point $-1 0 25 30 #
fface-lwd-attrib $-1 $-1 $216 $70 #
attrib_fhl_slist-attrib_fhlgeom-attrib_fhl-attrib $-1 $379 $217 $127 3 274 2 53.88988494873046875 -35.33388519287109375 44.55588150024414062 -45.50600814819335938 1 33.27414321899414062 -61.8901824951171875 44.55588150024414062 -45.50600814819335938 1 #
copar-lwd-attrib $-1 $-1 $-1 $221 #
coedge $380 $225 $221 $284 $348 0 $226 $-1 #
copar-lwd-attrib $-1 $-1 $-1 $222 #
coedge $381 $256 $222 $225 $326 1 $90 $-1 #
coedge $382 $222 $383 $231 $329 1 $90 $-1 #
epar-lwd-attrib $-1 $-1 $-1 $223 #
straight-curve $-1 -50 25 0 0 0 -1 I I #
copar-lwd-attrib $-1 $-1 $-1 $225 #
edge $384 $255 $228 $321 $385 0 #
point $-1 -50 25 35 #
copar-lwd-attrib $-1 $-1 $-1 $231 #
edge $386 $234 $387 $322 $388 0 #
point $-1 -50 25 -35 #
copar-lwd-attrib $-1 $-1 $-1 $239 #
edge $389 $387 $78 $298 $390 0 #
fface-lwd-attrib $-1 $-1 $-1 $241 #
cone-surface $-1 -35 0 -35 0 1 0 -10.60660171779821148 0 -10.60660171779821148 1 I I 0 1 0 I I I I #
vertex $-1 $247 $391 #
ellipse-curve $-1 25 0 -30 -0 -0 -1 10 0 0 1 I I #
epar-lwd-attrib $-1 $-1 $248 $97 #
fface-lwd-attrib $-1 $-1 $253 $308 #
attrib_fhl_slist-attrib_fhlgeom-attrib_fhl-attrib $-1 $253 $-1 $308 1 351 2 -29.31534194946289062 61.0764007568359375 -41.14019775390625 49.6570281982421875 1 -53.41642379760742188 37.80176925659179688 -41.14019775390625 49.6570281982421875 1 #
attrib_fhl_slist-attrib_fhlgeom-attrib_fhl-attrib $-1 $392 $384 $326 3 393 2 -29.31534194946289062 61.0764007568359375 -25.09617805480957031 62.77433013916015625 1 -25.09617805480957031 62.77433013916015625 -20.05014801025390625 62.46733856201171875 1 #
point $-1 40 25 50 #
point $-1 -35 25 50 #
copar-lwd-attrib $-1 $-1 $-1 $256 #
coedge $394 $284 $283 $256 $155 0 $285 $-1 #
fface-lwd-attrib $-1 $-1 $259 $89 #
attrib_fhl_slist-attrib_fhlgeom-attrib_fhl-attrib $-1 $395 $292 $193 3 396 3 47.5758514404296875 27.76592826843261719 36.94332122802734375 15.43545627593994141 1 40.55499649047851562 15.13256072998046875 36.94332122802734375 15.43545627593994141 1 36.94332122802734375 15.43545627593994141 34.7419891357421875 12.88258457183837891 1 #
attrib_fhl_slist-attrib_fhlgeom-attrib_fhl-attrib $-1 $397 $260 $348 3 154 2 -20.05014801025390625 62.46733856201171875 -31.77701950073242188 51.00015640258789062 1 -43.95447540283203125 39.0923614501953125 -31.77701950073242188 51.00015640258789062 1 #
edge $260 $130 $255 $284 $398 0 #
copar-lwd-attrib $-1 $-1 $-1 $264 #
copar-lwd-attrib $-1 $-1 $-1 $265 #
attrib_fhl_slist-attrib_fhlgeom-attrib_fhl-attrib $-1 $396 $-1 $266 1 384 4 51.13936233520507812 27.49183845520019531 47.5758514404296875 27.76592826843261719 1 51.8372344970703125 27.73597335815429688 51.13936233520507812 27.49183845520019531 1 57.17577362060546875 33.97527694702148438 56.34027481079101562 30.84263038635253906 1 57.17577362060546875 33.97527694702148438 46.62617874145507812 21.645660400390625 1 #
ellipse-curve $-1 40 25 40 0 -1 0 7.071067811865474617 0 7.071067811865474617 1 I I #
copar-lwd-attrib $-1 $-1 $-1 $268 #
point $-1 30 0 50 #
epar-lwd-attrib $-1 $-1 $274 $100 #
attrib_fhl_slist-attrib_fhlgeom-attrib_fhl-attrib $-1 $399 $275 $357 3 400 5 46.01745223999023438 -21.97344017028808594 49.42005538940429688 -23.55026435852050781 1 49.42005538940429688 -23.55026435852050781 52.2663421630859375 -26.10893630981445312 1 52.2663421630859375 -26.10893630981445312 54.11505508422851562 -29.25277519226074219 1 54.11505508422851562 -29.25277519226074219 54.68317031860351562 -32.494110107421875 1 54.68317031860351562 -32.494110107421875 53.88988494873046875 -35.33388519287109375 1 #
edge $275 $374 $176 $372 $401 0 #
attrib_fhl_slist-attrib_fhlgeom-attrib_fhl-attrib $-1 $400 $-1 $276 1 312 1 24.2491455078125 -15.82882595062255859 46.01745223999023438 -21.97344017028808594 1 #
straight-curve $-1 12.5 25 -30 1 0 -0 I I #
epar-lwd-attrib $-1 $-1 $279 $281 #
straight-curve $-1 40 0 50 -0 -1 0 F -56 F 56 #
copar-lwd-attrib $-1 $-1 $-1 $283 #
copar-lwd-attrib $-1 $-1 $-1 $284 #
epar-lwd-attrib $-1 $-1 $288 $108 #
attrib_fhl_slist-attrib_fhlgeom-attrib_fhl-attrib $-1 $402 $-1 $291 1 246 3 25.8131103515625 33.4643096923828125 26.56233406066894531 33.26813507080078125 1 32.38768386840820312 31.74281692504882812 43.39065170288085938 28.861785888671875 1 43.39065170288085938 28.861785888671875 47.5758514404296875 27.76592826843261719 1 #
straight-curve $-1 12.5 25 30 -1 0 0 I I #
point $-1 40 25 30 #
copar-lwd-attrib $-1 $-1 $-1 $298 #
coedge $403 $299 $298 $383 $404 0 $300 $-1 #
copar-lwd-attrib $-1 $-1 $-1 $299 #
copar-lwd-attrib $-1 $-1 $-1 $302 #
coedge $405 $383 $306 $302 $357 1 $90 $-1 #
epar-lwd-attrib $-1 $-1 $-1 $303 #
vertex $-1 $404 $406 #
straight-curve $-1 40 0 -50 -0 1 -0 F -56 F 56 #
copar-lwd-attrib $-1 $-1 $-1 $306 #
cone-surface $-1 -35 0 35 0 -1 0 -10.60660171779821148 0 10.60660171779821148 1 I I 0 1 0 I I I I #
attrib_fhl_slist-attrib_fhlgeom-attrib_fhl-attrib $-1 $407 $312 $207 3 85 5 -14.33992958068847656 13.41288089752197266 -13.46683979034423828 10.54552459716796875 1 -8.989302635192871094 2.206421852111816406 -7.506101131439208984 0.1205831915140151978 1 -7.506101131439208984 0.1205831915140151978 -3.588459968566894531 -3.952929496765136719 1 -3.588459968566894531 -3.952929496765136719 0.8782519102096557617 -7.416322231292724609 1 0.8782519102096557617 -7.416322231292724609 0.9712161421775817871 -7.468545436859130859 1 #
fface-lwd-attrib $-1 $-1 $317 $127 #
copar-lwd-attrib $-1 $-1 $-1 $319 #
copar-lwd-attrib $-1 $-1 $-1 $321 #
copar-lwd-attrib $-1 $-1 $-1 $322 #
coedge $408 $322 $372 $369 $404 1 $90 $-1 #
attrib_fhl_slist-attrib_fhlgeom-attrib_fhl-attrib $-1 $340 $-1 $326 1 409 2 -29.31534194946289062 61.0764007568359375 -25.09617805480957031 62.77433013916015625 1 -25.09617805480957031 62.77433013916015625 -20.05014801025390625 62.46733856201171875 1 #
ellipse-curve $-1 -35 25 35 0 -1 0 -10.60660171779821148 0 10.60660171779821148 1 I I #
epar-lwd-attrib $-1 $-1 $-1 $329 #
vertex $-1 $329 $410 #
ellipse-curve $-1 -35 25 -35 0 -1 0 -10.60660171779821148 0 -10.60660171779821148 1 I I #
epar-lwd-attrib $-1 $-1 $-1 $332 #
straight-curve $-1 -35 0 -50 -0 -1 -0 F -71.5 F 71.5 #
point $-1 15 -6.982962677686266711e-14 -30 #
epar-lwd-attrib $-1 $-1 $340 $326 #
attrib_fhl_slist-attrib_fhlgeom-attrib_fhl-attrib $-1 $411 $409 $404 3 317 1 31.01209449768066406 -33.64699172973632812 29.4131927490234375 -33.18523788452148438 1 #
copar-lwd-attrib $-1 $-1 $-1 $344 #
epar-lwd-attrib $-1 $-1 $346 $193 #
attrib_fhl_slist-attrib_fhlgeom-attrib_fhl-attrib $-1 $412 $351 $266 3 347 8 48.11904144287109375 45.1029052734375 51.67934799194335938 43.52260589599609375 1 51.67934799194335938 43.52260589599609375 54.6557464599609375 40.84677505493164062 1 54.6557464599609375 40.84677505493164062 56.58643722534179688 37.49059295654296875 1 56.58643722534179688 37.49059295654296875 57.17577362060546875 33.97527694702148438 1 57.17577362060546875 33.97527694702148438 56.34027481079101562 30.84263038635253906 1 57.17577362060546875 33.97527694702148438 46.62617874145507812 21.645660400390625 1 51.8372344970703125 27.73597335815429688 51.13936233520507812 27.49183845520019531 1 51.13936233520507812 27.49183845520019531 47.5758514404296875 27.76592826843261719 1 #
epar-lwd-attrib $-1 $-1 $347 $348 #
straight-curve $-1 -35 0 50 -0 1 -0 F -71.5 F 71.5 #
epar-lwd-attrib $-1 $-1 $356 $357 #
attrib_fhl_slist-attrib_fhlgeom-attrib_fhl-attrib $-1 $413 $358 $276 3 378 1 10.79931735992431641 -12.03229713439941406 46.01745223999023438 -21.97344017028808594 1 #
ellipse-curve $-1 40 25 -40 0 -1 0 7.071067811865474617 0 7.071067811865474617 1 I I #
epar-lwd-attrib $-1 $-1 $365 $291 #
copar-lwd-attrib $-1 $-1 $-1 $369 #
edge $409 $387 $374 $383 $414 0 #
copar-lwd-attrib $-1 $-1 $-1 $372 #
point $-1 40 25 -50 #
epar-lwd-attrib $-1 $-1 $378 $207 #
copar-lwd-attrib $-1 $-1 $-1 $383 #
attrib_fhl_slist-attrib_fhlgeom-attrib_fhl-attrib $-1 $393 $-1 $404 1 217 1 31.01209449768066406 -33.64699172973632812 29.4131927490234375 -33.18523788452148438 1 #
point $-1 -35 25 -50 #
epar-lwd-attrib $-1 $-1 $393 $404 #
epar-lwd-attrib $-1 $-1 $396 $266 #
epar-lwd-attrib $-1 $-1 $400 $276 #
straight-curve $-1 0 25 -50 1 0 0 I I #
End-of-ACIS-data 