600 0 1 0           
89 GICL ACIS Healer - Source: /gicl/data5/repository/UMD/drill-trace1/drill-trace1.sat - 6 0 18 ACIS 6.0.3 Solaris 24 Sun Apr 14 00:35:40 2002 
1 9.999999999999999547e-07 1.000000000000000036e-10 
body $1 $2 $-1 $-1 #
attrib_fhlhead-attrib_fhl-attrib $-1 $3 $-1 $0 1 2 4 #
lump $4 $-1 $5 $0 #
attrib_fhlhead-attrib_fhl-attrib $-1 $6 $1 $0 1 1 8 #
attrib_fhlmark-attrib_fhlgeom-attrib_fhl-attrib $-1 $7 $-1 $2 1 -1 #
shell $8 $-1 $-1 $9 $-1 $2 #
f_body-rbase-attrib $-1 $-1 $3 $0 #
attrib_fhlmark-attrib_fhlgeom-attrib_fhl-attrib $-1 $-1 $4 $2 3 -1 #
attrib_fhlmark-attrib_fhlgeom-attrib_fhl-attrib $-1 $10 $-1 $5 1 5 #
face $11 $12 $13 $5 $-1 $14 reversed single #
attrib_fhlmark-attrib_fhlgeom-attrib_fhl-attrib $-1 $-1 $8 $5 3 11 #
attrib_fhl_slist-attrib_fhlgeom-attrib_fhl-attrib $-1 $15 $-1 $9 1 45 8 24.89512252807617188 29.63434791564941406 26.63525772094726562 30.16883468627929688 1 26.63525772094726562 30.16883468627929688 27.84095382690429688 31.01961135864257812 1 28.3296661376953125 32.05524826049804688 28.24815940856933594 27.67409133911132812 1 28.24815940856933594 27.67409133911132812 28.19483566284179688 24.80783653259277344 1 28.19483566284179688 24.80783653259277344 28.16711997985839844 23.31807327270507812 1 27.02914047241210938 34.01064300537109375 26.99178314208984375 34.04398727416992188 1 26.99178314208984375 34.04398727416992188 26.99009323120117188 33.94853591918945312 1 26.09591293334960938 30.003173828125 25.30150413513183594 30.3258514404296875 1 #
face $16 $17 $18 $5 $-1 $19 reversed single #
loop $-1 $20 $21 $9 #
cone-surface $-1 25 0 0 0 0 1 5 0 0 1 I I 0 1 5 forward I I I I #
attrib_fhl_slist-attrib_fhlgeom-attrib_fhl-attrib $-1 $22 $11 $9 3 84 8 24.89512252807617188 29.63434791564941406 26.63525772094726562 30.16883468627929688 1 26.63525772094726562 30.16883468627929688 27.84095382690429688 31.01961135864257812 1 28.3296661376953125 32.05524826049804688 28.24815940856933594 27.67409133911132812 1 28.24815940856933594 27.67409133911132812 28.19483566284179688 24.80783653259277344 1 28.19483566284179688 24.80783653259277344 28.16711997985839844 23.31807327270507812 1 27.02914047241210938 34.01064300537109375 26.99178314208984375 34.04398727416992188 1 26.99178314208984375 34.04398727416992188 26.99009323120117188 33.94853591918945312 1 26.09591293334960938 30.003173828125 25.30150413513183594 30.3258514404296875 1 #
fface-rbase-attrib $-1 $-1 $-1 $12 #
face $23 $24 $25 $5 $-1 $26 reversed single #
loop $-1 $27 $28 $12 #
cone-surface $-1 25 0 -40 0 0 1 10 0 0 1 I I 0 1 10 forward I I I I #
loop $-1 $-1 $29 $9 #
coedge $30 $21 $21 $31 $32 reversed $13 $-1 #
fface-rbase-attrib $-1 $-1 $15 $9 #
attrib_fhl_slist-attrib_fhlgeom-attrib_fhl-attrib $-1 $33 $-1 $17 1 12 2 17.83158302307128906 19.38083457946777344 17.83158302307128906 19.38083457946777344 1 34.44528579711914062 25.54356765747070312 57.17577362060546875 33.97527694702148438 1 #
face $34 $35 $36 $5 $-1 $37 forward single #
loop $-1 $-1 $38 $17 #
plane-surface $-1 0 25 0 0 -1 0 0 0 -1 forward_v I I I I #
loop $-1 $-1 $39 $12 #
coedge $40 $28 $28 $41 $42 reversed $18 $-1 #
coedge $43 $29 $29 $44 $45 reversed $20 $-1 #
copar-rbase-attrib $-1 $-1 $-1 $21 #
coedge $46 $31 $31 $21 $32 forward $47 $-1 #
edge $48 $49 -3.141592653589799777 $49 3.141592653589786455 $31 $50 forward 7 unknown #
attrib_fhl_slist-attrib_fhlgeom-attrib_fhl-attrib $-1 $51 $23 $17 3 216 1 17.83158302307128906 19.38083457946777344 17.83158302307128906 19.38083457946777344 1 #
attrib_fhl_slist-attrib_fhlgeom-attrib_fhl-attrib $-1 $52 $-1 $24 1 260 2 56.34027481079101562 30.84263038635253906 43.66602325439453125 16.19922447204589844 1 43.66602325439453125 16.19922447204589844 46.62617874145507812 21.645660400390625 1 #
face $53 $54 $55 $5 $-1 $56 reversed single #
loop $-1 $-1 $57 $24 #
cone-surface $-1 40 0 40 0 1 -0 7.071067811865474617 0 -7.071067811865474617 1 I I 0 1 10 forward I I I I #
coedge $58 $59 $60 $61 $62 reversed $25 $-1 #
coedge $63 $39 $39 $64 $65 reversed $27 $-1 #
copar-rbase-attrib $-1 $-1 $-1 $28 #
coedge $66 $41 $41 $28 $42 forward $55 $-1 #
edge $67 $68 -3.141592653589799777 $68 3.141592653589786455 $41 $69 forward 7 unknown #
copar-rbase-attrib $-1 $-1 $-1 $29 #
coedge $70 $44 $44 $29 $45 forward $71 $-1 #
edge $72 $73 0 $73 6.283185307179586232 $44 $74 forward 7 unknown #
copar-rbase-attrib $-1 $-1 $-1 $31 #
loop $-1 $75 $31 $76 #
attrib_fhl_slist-attrib_fhlgeom-attrib_fhl-attrib $-1 $77 $-1 $32 1 23 2 25.33981704711914062 32.629180908203125 25.31751060485839844 31.28809356689453125 1 25.31751060485839844 31.28809356689453125 25.30150413513183594 30.3258514404296875 1 #
vertex $-1 $32 $78 #
ellipse-curve $-1 25 0 30 0 0 1 5 0 0 1 I I #
fface-rbase-attrib $-1 $-1 $33 $17 #
attrib_fhl_slist-attrib_fhlgeom-attrib_fhl-attrib $-1 $79 $34 $24 3 346 2 56.34027481079101562 30.84263038635253906 43.66602325439453125 16.19922447204589844 1 43.66602325439453125 16.19922447204589844 46.62617874145507812 21.645660400390625 1 #
fface-rbase-attrib $-1 $-1 $-1 $35 #
face $80 $81 $82 $5 $-1 $83 reversed single #
loop $-1 $84 $41 $35 #
plane-surface $-1 0 0 -50 0 0 1 1 0 0 forward_v I I I I #
coedge $85 $86 $87 $88 $89 forward $36 $-1 #
copar-rbase-attrib $-1 $-1 $-1 $38 #
coedge $90 $91 $38 $92 $93 forward $25 $-1 #
coedge $94 $38 $95 $96 $97 reversed $25 $-1 #
coedge $98 $87 $86 $38 $62 forward $36 $-1 #
edge $99 $100 -2.356194490192344837 $101 0.785398163397448279 $38 $102 forward 7 unknown #
copar-rbase-attrib $-1 $-1 $-1 $39 #
coedge $103 $64 $64 $39 $65 forward $104 $-1 #
edge $105 $106 -3.141592653589799777 $106 3.141592653589786455 $64 $107 forward 7 unknown #
copar-rbase-attrib $-1 $-1 $-1 $41 #
attrib_fhl_slist-attrib_fhlgeom-attrib_fhl-attrib $-1 $108 $-1 $42 1 87 3 20.6221923828125 4.070285797119140625 27.86269378662109375 -35.65439224243164062 1 26.29568672180175781 -33.77399063110351562 27.6284332275390625 -34.36913299560546875 1 27.6284332275390625 -34.36913299560546875 29.19096183776855469 -35.06688690185546875 1 #
vertex $-1 $42 $109 #
ellipse-curve $-1 25 0 -50 0 0 1 10 0 0 1 I I #
copar-rbase-attrib $-1 $-1 $-1 $44 #
loop $-1 $110 $44 $111 #
attrib_fhl_slist-attrib_fhlgeom-attrib_fhl-attrib $-1 $112 $-1 $45 1 126 14 23.52036476135253906 34.10487747192382812 25.44732856750488281 39.0923614501953125 1 24.91163063049316406 30.64249420166015625 27.92164802551269531 35.43028640747070312 1 24.93239021301269531 31.91027450561523438 28.11120796203613281 37.51932525634765625 1 18.51534271240234375 35.61526870727539062 18.54277229309082031 37.87636947631835938 1 20.98177909851074219 34.20014190673828125 24.967437744140625 34.05057525634765625 1 20.98177909851074219 34.20014190673828125 19.354888916015625 34.85876846313476562 1 24.967437744140625 34.05057525634765625 24.89512252807617188 29.63434791564941406 1 25.44732856750488281 39.0923614501953125 21.49310874938964844 39.23956680297851562 1 21.49310874938964844 39.23956680297851562 18.54277229309082031 37.87636947631835938 1 18.54277229309082031 37.87636947631835938 18.03785896301269531 36.84949493408203125 1 19.354888916015625 34.85876846313476562 18.32177543640136719 35.7896881103515625 1 18.32177543640136719 35.7896881103515625 18.03785896301269531 36.84949493408203125 1 27.92164802551269531 35.43028640747070312 28.41164588928222656 36.461761474609375 1 28.11120796203613281 37.51932525634765625 28.41164588928222656 36.461761474609375 1 #
vertex $-1 $45 $113 #
ellipse-curve $-1 25 0 50 -0 -0 -1 5 0 0 1 I I #
loop $-1 $-1 $114 $76 #
face $115 $116 $47 $5 $-1 $117 reversed single #
attrib_fhl_slist-attrib_fhlgeom-attrib_fhl-attrib $-1 $118 $48 $32 3 44 2 25.33981704711914062 32.629180908203125 25.31751060485839844 31.28809356689453125 1 25.31751060485839844 31.28809356689453125 25.30150413513183594 30.3258514404296875 1 #
point $-1 20 3.491481338843133355e-14 30 #
fface-rbase-attrib $-1 $-1 $52 $24 #
attrib_fhl_slist-attrib_fhlgeom-attrib_fhl-attrib $-1 $119 $-1 $54 1 88 4 17.83158302307128906 19.38083457946777344 17.83158302307128906 19.38083457946777344 1 10.04109096527099609 6.974823474884033203 -16.32047080993652344 -35.00478363037109375 1 1.933147072792053223 9.200473785400390625 -36.03839111328125 -15.11411857604980469 1 -8.290279388427734375 12.00682830810546875 -36.50623321533203125 4.041676044464111328 1 #
face $120 $121 $122 $5 $-1 $123 forward single #
loop $-1 $-1 $88 $54 #
plane-surface $-1 0 -25 0 0 1 -0 -0 0 1 forward_v I I I I #
loop $-1 $-1 $124 $35 #
copar-rbase-attrib $-1 $-1 $-1 $57 #
coedge $125 $61 $57 $114 $126 forward $36 $-1 #
coedge $127 $57 $61 $128 $129 forward $36 $-1 #
coedge $130 $131 $132 $57 $89 reversed $82 $-1 #
edge $133 $134 -0.785398163397448279 $135 2.356194490192344837 $88 $136 forward 7 unknown #
copar-rbase-attrib $-1 $-1 $-1 $59 #
coedge $137 $138 $59 $139 $140 forward $25 $-1 #
coedge $141 $114 $142 $59 $93 reversed $75 $-1 #
edge $143 $100 -27.5 $144 12.5 $59 $145 forward 7 unknown #
copar-rbase-attrib $-1 $-1 $-1 $60 #
coedge $146 $60 $147 $148 $149 reversed $25 $-1 #
coedge $150 $151 $128 $60 $97 forward $110 $-1 #
edge $152 $101 -40 $153 35 $60 $154 forward 7 unknown #
copar-rbase-attrib $-1 $-1 $-1 $61 #
attrib_fhl_slist-attrib_fhlgeom-attrib_fhl-attrib $-1 $155 $-1 $62 1 384 4 51.13936233520507812 27.49183845520019531 47.5758514404296875 27.76592826843261719 1 51.8372344970703125 27.73597335815429688 51.13936233520507812 27.49183845520019531 1 57.17577362060546875 33.97527694702148438 56.34027481079101562 30.84263038635253906 1 57.17577362060546875 33.97527694702148438 46.62617874145507812 21.645660400390625 1 #
vertex $-1 $62 $156 #
vertex $-1 $62 $157 #
ellipse-curve $-1 40 25 40 0 -1 0 7.071067811865474617 0 7.071067811865474617 1 I I #
copar-rbase-attrib $-1 $-1 $-1 $64 #
loop $-1 $158 $64 $121 #
attrib_fhl_slist-attrib_fhlgeom-attrib_fhl-attrib $-1 $159 $-1 $65 1 170 9 25.53446197509765625 -36.44345855712890625 28.87936782836914062 -35.30983352661132812 1 28.87936782836914062 -35.30983352661132812 31.189117431640625 -33.50896835327148438 1 31.189117431640625 -33.50896835327148438 32.11587905883789062 -31.32274818420410156 1 26.440032958984375 -25.77640151977539062 26.05109786987304688 -25.71515464782714844 1 26.440032958984375 -25.77640151977539062 29.53513336181640625 -27.14271926879882812 1 26.29568672180175781 -33.77399063110351562 22.58882713317871094 -33.18353652954101562 1 29.37816619873046875 -34.920928955078125 29.53513336181640625 -27.14271926879882812 1 29.53513336181640625 -27.14271926879882812 31.53050613403320312 -29.08794593811035156 1 31.53050613403320312 -29.08794593811035156 32.11587905883789062 -31.32274818420410156 1 #
vertex $-1 $65 $160 #
ellipse-curve $-1 25 0 -30 -0 -0 -1 10 0 0 1 I I #
attrib_fhl_slist-attrib_fhlgeom-attrib_fhl-attrib $-1 $161 $67 $42 3 150 1 26.29568672180175781 -33.77399063110351562 29.19096183776855469 -35.06688690185546875 1 #
point $-1 15 6.982962677686266711e-14 -50 #
loop $-1 $-1 $128 $111 #
face $162 $163 $71 $5 $-1 $164 forward single #
attrib_fhl_slist-attrib_fhlgeom-attrib_fhl-attrib $-1 $165 $72 $45 3 157 14 23.52036476135253906 34.10487747192382812 25.44732856750488281 39.0923614501953125 1 24.91163063049316406 30.64249420166015625 27.92164802551269531 35.43028640747070312 1 24.93239021301269531 31.91027450561523438 28.11120796203613281 37.51932525634765625 1 18.51534271240234375 35.61526870727539062 18.54277229309082031 37.87636947631835938 1 20.98177909851074219 34.20014190673828125 24.967437744140625 34.05057525634765625 1 20.98177909851074219 34.20014190673828125 19.354888916015625 34.85876846313476562 1 24.967437744140625 34.05057525634765625 24.89512252807617188 29.63434791564941406 1 25.44732856750488281 39.0923614501953125 21.49310874938964844 39.23956680297851562 1 21.49310874938964844 39.23956680297851562 18.54277229309082031 37.87636947631835938 1 18.54277229309082031 37.87636947631835938 18.03785896301269531 36.84949493408203125 1 19.354888916015625 34.85876846313476562 18.32177543640136719 35.7896881103515625 1 18.32177543640136719 35.7896881103515625 18.03785896301269531 36.84949493408203125 1 27.92164802551269531 35.43028640747070312 28.41164588928222656 36.461761474609375 1 28.11120796203613281 37.51932525634765625 28.41164588928222656 36.461761474609375 1 #
point $-1 30 0 50 #
coedge $166 $167 $92 $86 $126 reversed $75 $-1 #
fface-rbase-attrib $-1 $-1 $-1 $76 #
face $168 $169 $170 $5 $-1 $171 reversed single #
plane-surface $-1 25 0 30 0 0 1 1 0 0 forward_v I I I I #
epar-rbase-attrib $-1 $-1 $77 $32 #
attrib_fhl_slist-attrib_fhlgeom-attrib_fhl-attrib $-1 $172 $80 $54 3 22 5 17.83158302307128906 19.38083457946777344 17.83158302307128906 19.38083457946777344 1 17.83158302307128906 19.38083457946777344 17.83158302307128906 19.38083457946777344 1 10.04109096527099609 6.974823474884033203 -16.32047080993652344 -35.00478363037109375 1 1.933147072792053223 9.200473785400390625 -36.03839111328125 -15.11411857604980469 1 -8.290279388427734375 12.00682830810546875 -36.50623321533203125 4.041676044464111328 1 #
attrib_fhl_slist-attrib_fhlgeom-attrib_fhl-attrib $-1 $173 $-1 $81 1 175 2 53.88988494873046875 -35.33388519287109375 44.55588150024414062 -45.50600814819335938 1 33.27414321899414062 -61.8901824951171875 44.55588150024414062 -45.50600814819335938 1 #
face $174 $175 $104 $5 $-1 $176 forward single #
loop $-1 $-1 $177 $81 #
cone-surface $-1 40 0 -40 0 -1 0 7.071067811865474617 0 7.071067811865474617 1 I I 0 1 10 forward I I I I #
coedge $178 $179 $180 $181 $182 reversed $84 $-1 #
copar-rbase-attrib $-1 $-1 $-1 $86 #
edge $183 $135 -25 $100 25 $114 $184 forward 7 unknown #
copar-rbase-attrib $-1 $-1 $-1 $87 #
coedge $185 $96 $186 $87 $129 reversed $110 $-1 #
edge $187 $101 -25 $134 25 $128 $188 forward 7 unknown #
copar-rbase-attrib $-1 $-1 $-1 $88 #
coedge $189 $190 $88 $186 $191 reversed $82 $-1 #
coedge $192 $88 $193 $167 $194 forward $82 $-1 #
attrib_fhl_slist-attrib_fhlgeom-attrib_fhl-attrib $-1 $195 $-1 $89 1 158 10 29.88042449951171875 18.67812156677246094 35.490447998046875 25.071929931640625 1 29.88042449951171875 18.67812156677246094 26.20241737365722656 20.34733390808105469 1 29.88042449951171875 18.67812156677246094 32.97476959228515625 15.89638423919677734 1 43.66602325439453125 16.19922447204589844 40.55499649047851562 15.13256072998046875 1 29.55598258972167969 2.289101123809814453 25.89506721496582031 2.622869014739990234 1 29.55598258972167969 2.289101123809814453 32.70003890991210938 3.34394526481628418 1 32.70003890991210938 3.34394526481628418 34.84671783447265625 5.637564659118652344 1 34.84671783447265625 5.637564659118652344 35.66002655029296875 8.829201698303222656 1 35.66002655029296875 8.829201698303222656 35.00499343872070312 12.43406009674072266 1 35.00499343872070312 12.43406009674072266 32.97476959228515625 15.89638423919677734 1 #
vertex $-1 $191 $196 #
vertex $-1 $194 $197 #
ellipse-curve $-1 40 -25 40 0 1 -0 7.071067811865474617 0 7.071067811865474617 1 I I #
copar-rbase-attrib $-1 $-1 $-1 $91 #
coedge $198 $199 $91 $200 $201 forward $25 $-1 #
coedge $202 $203 $204 $91 $140 reversed $170 $-1 #
edge $205 $144 1.570796326794896558 $206 4.712388980384689674 $91 $207 forward 7 unknown #
copar-rbase-attrib $-1 $-1 $-1 $92 #
coedge $208 $92 $167 $203 $209 reversed $75 $-1 #
attrib_fhl_slist-attrib_fhlgeom-attrib_fhl-attrib $-1 $210 $-1 $93 1 246 3 25.8131103515625 33.4643096923828125 26.56233406066894531 33.26813507080078125 1 32.38768386840820312 31.74281692504882812 43.39065170288085938 28.861785888671875 1 43.39065170288085938 28.861785888671875 47.5758514404296875 27.76592826843261719 1 #
vertex $-1 $93 $211 #
straight-curve $-1 12.5 25 30 -1 0 0 I I #
copar-rbase-attrib $-1 $-1 $-1 $95 #
coedge $212 $95 $213 $214 $215 reversed $25 $-1 #
coedge $216 $217 $218 $95 $149 forward $219 $-1 #
edge $220 $153 -0.785398163397448279 $221 0.785398163397448279 $95 $222 forward 7 unknown #
copar-rbase-attrib $-1 $-1 $-1 $96 #
coedge $223 $186 $96 $218 $224 reversed $110 $-1 #
attrib_fhl_slist-attrib_fhlgeom-attrib_fhl-attrib $-1 $225 $-1 $97 1 156 2 28.25861549377441406 28.23614692687988281 48.11904144287109375 45.1029052734375 1 -20.05014801025390625 62.46733856201171875 48.11904144287109375 45.1029052734375 1 #
vertex $-1 $97 $226 #
straight-curve $-1 0 25 50 -1 0 0 I I #
attrib_fhl_slist-attrib_fhlgeom-attrib_fhl-attrib $-1 $227 $99 $62 3 347 8 48.11904144287109375 45.1029052734375 51.67934799194335938 43.52260589599609375 1 51.67934799194335938 43.52260589599609375 54.6557464599609375 40.84677505493164062 1 54.6557464599609375 40.84677505493164062 56.58643722534179688 37.49059295654296875 1 56.58643722534179688 37.49059295654296875 57.17577362060546875 33.97527694702148438 1 57.17577362060546875 33.97527694702148438 56.34027481079101562 30.84263038635253906 1 57.17577362060546875 33.97527694702148438 46.62617874145507812 21.645660400390625 1 51.8372344970703125 27.73597335815429688 51.13936233520507812 27.49183845520019531 1 51.13936233520507812 27.49183845520019531 47.5758514404296875 27.76592826843261719 1 #
point $-1 40 25 30 #
point $-1 40 25 50 #
loop $-1 $-1 $228 $121 #
attrib_fhl_slist-attrib_fhlgeom-attrib_fhl-attrib $-1 $229 $105 $65 3 248 7 25.53446197509765625 -36.44345855712890625 28.87936782836914062 -35.30983352661132812 1 28.87936782836914062 -35.30983352661132812 31.189117431640625 -33.50896835327148438 1 31.189117431640625 -33.50896835327148438 32.11587905883789062 -31.32274818420410156 1 26.29568672180175781 -33.77399063110351562 22.58882713317871094 -33.18353652954101562 1 29.37816619873046875 -34.920928955078125 29.53513336181640625 -27.14271926879882812 1 29.53513336181640625 -27.14271926879882812 31.53050613403320312 -29.08794593811035156 1 31.53050613403320312 -29.08794593811035156 32.11587905883789062 -31.32274818420410156 1 #
point $-1 15 -6.982962677686266711e-14 -30 #
epar-rbase-attrib $-1 $-1 $108 $42 #
attrib_fhl_slist-attrib_fhlgeom-attrib_fhl-attrib $-1 $230 $-1 $111 3 148 1 28.25861549377441406 28.23614692687988281 48.11904144287109375 45.1029052734375 1 #
face $231 $76 $232 $5 $-1 $233 forward single #
plane-surface $-1 0 0 50 0 0 1 1 0 0 forward_v I I I I #
epar-rbase-attrib $-1 $-1 $112 $45 #
copar-rbase-attrib $-1 $-1 $-1 $114 #
coedge $234 $142 $114 $132 $194 reversed $75 $-1 #
fface-rbase-attrib $-1 $-1 $-1 $116 #
face $-1 $-1 $235 $5 $-1 $236 reversed single #
loop $-1 $-1 $237 $116 #
cone-surface $-1 0 0 0 0 -1 -3.491481338843133355e-15 30 0 0 1 I I 0 1 30 forward I I I I #
fface-rbase-attrib $-1 $-1 $119 $54 #
attrib_fhl_slist-attrib_fhlgeom-attrib_fhl-attrib $-1 $238 $120 $81 3 274 2 53.88988494873046875 -35.33388519287109375 44.55588150024414062 -45.50600814819335938 1 33.27414321899414062 -61.8901824951171875 44.55588150024414062 -45.50600814819335938 1 #
fface-rbase-attrib $-1 $-1 $-1 $121 #
face $239 $111 $219 $5 $-1 $240 forward single #
plane-surface $-1 25 0 -30 0 0 1 1 0 0 forward_v I I I I #
coedge $241 $242 $181 $199 $243 forward $122 $-1 #
copar-rbase-attrib $-1 $-1 $-1 $124 #
coedge $244 $245 $124 $246 $247 forward $84 $-1 #
coedge $248 $124 $245 $249 $250 forward $84 $-1 #
coedge $251 $177 $252 $124 $182 forward $122 $-1 #
edge $253 $254 -25 $255 25 $124 $256 forward 7 unknown #
attrib_fhl_slist-attrib_fhlgeom-attrib_fhl-attrib $-1 $257 $-1 $126 1 339 3 47.5758514404296875 27.76592826843261719 36.94332122802734375 15.43545627593994141 1 40.55499649047851562 15.13256072998046875 36.94332122802734375 15.43545627593994141 1 36.94332122802734375 15.43545627593994141 34.7419891357421875 12.88258457183837891 1 #
straight-curve $-1 40 0 30 0 1 0 F -56 F 56 #
copar-rbase-attrib $-1 $-1 $-1 $128 #
coedge $258 $128 $151 $131 $191 forward $110 $-1 #
attrib_fhl_slist-attrib_fhlgeom-attrib_fhl-attrib $-1 $259 $-1 $129 1 187 2 31.84256172180175781 26.71806907653808594 26.20241737365722656 20.34733390808105469 1 35.490447998046875 25.071929931640625 31.84256172180175781 26.71806907653808594 1 #
straight-curve $-1 40 0 50 -0 -1 0 F -56 F 56 #
copar-rbase-attrib $-1 $-1 $-1 $131 #
coedge $260 $261 $131 $262 $263 reversed $82 $-1 #
edge $264 $265 -35 $134 40 $131 $266 forward 7 unknown #
copar-rbase-attrib $-1 $-1 $-1 $132 #
coedge $267 $132 $268 $237 $269 forward $82 $-1 #
edge $270 $271 -12.5 $135 27.5 $132 $272 forward 7 unknown #
attrib_fhl_slist-attrib_fhlgeom-attrib_fhl-attrib $-1 $273 $133 $89 3 259 10 29.88042449951171875 18.67812156677246094 35.490447998046875 25.071929931640625 1 29.88042449951171875 18.67812156677246094 26.20241737365722656 20.34733390808105469 1 29.88042449951171875 18.67812156677246094 32.97476959228515625 15.89638423919677734 1 43.66602325439453125 16.19922447204589844 40.55499649047851562 15.13256072998046875 1 29.55598258972167969 2.289101123809814453 25.89506721496582031 2.622869014739990234 1 29.55598258972167969 2.289101123809814453 32.70003890991210938 3.34394526481628418 1 32.70003890991210938 3.34394526481628418 34.84671783447265625 5.637564659118652344 1 34.84671783447265625 5.637564659118652344 35.66002655029296875 8.829201698303222656 1 35.66002655029296875 8.829201698303222656 35.00499343872070312 12.43406009674072266 1 35.00499343872070312 12.43406009674072266 32.97476959228515625 15.89638423919677734 1 #
point $-1 40 -25 50 #
point $-1 40 -25 30 #
copar-rbase-attrib $-1 $-1 $-1 $138 #
coedge $274 $249 $138 $177 $243 reversed $25 $-1 #
coedge $275 $276 $228 $138 $201 reversed $158 $-1 #
edge $277 $206 -12.5 $278 27.5 $138 $279 forward 7 unknown #
copar-rbase-attrib $-1 $-1 $-1 $139 #
coedge $280 $237 $139 $142 $209 forward $170 $-1 #
coedge $281 $139 $237 $276 $282 reversed $170 $-1 #
attrib_fhl_slist-attrib_fhlgeom-attrib_fhl-attrib $-1 $283 $-1 $140 1 365 5 -14.33992958068847656 13.41288089752197266 -13.46683979034423828 10.54552459716796875 1 -8.989302635192871094 2.206421852111816406 -7.506101131439208984 0.1205831915140151978 1 -7.506101131439208984 0.1205831915140151978 -3.588459968566894531 -3.952929496765136719 1 -3.588459968566894531 -3.952929496765136719 0.8782519102096557617 -7.416322231292724609 1 0.8782519102096557617 -7.416322231292724609 0.9712161421775817871 -7.468545436859130859 1 #
vertex $-1 $201 $284 #
ellipse-curve $-1 0 25 8.728703347107833388e-14 0 -1 0 30 0 0 1 I I #
copar-rbase-attrib $-1 $-1 $-1 $142 #
edge $285 $144 -25.00000000000010303 $271 24.99999999999989697 $203 $286 forward 7 unknown #
epar-rbase-attrib $-1 $-1 $143 $93 #
point $-1 0 25 30 #
copar-rbase-attrib $-1 $-1 $-1 $147 #
coedge $287 $147 $249 $288 $289 reversed $25 $-1 #
coedge $-1 $290 $291 $147 $215 forward $235 $-1 #
edge $292 $221 -35 $293 35 $147 $294 forward 7 unknown #
copar-rbase-attrib $-1 $-1 $-1 $148 #
coedge $295 $262 $148 $291 $296 forward $219 $-1 #
coedge $297 $148 $262 $151 $224 forward $219 $-1 #
loop $-1 $-1 $218 $175 #
attrib_fhl_slist-attrib_fhlgeom-attrib_fhl-attrib $-1 $298 $-1 $149 1 409 2 -29.31534194946289062 61.0764007568359375 -25.09617805480957031 62.77433013916015625 1 -25.09617805480957031 62.77433013916015625 -20.05014801025390625 62.46733856201171875 1 #
vertex $-1 $296 $299 #
ellipse-curve $-1 -35 25 35 0 -1 0 -10.60660171779821148 0 10.60660171779821148 1 I I #
copar-rbase-attrib $-1 $-1 $-1 $151 #
edge $300 $265 -25 $153 25 $151 $301 forward 7 unknown #
attrib_fhl_slist-attrib_fhlgeom-attrib_fhl-attrib $-1 $302 $152 $97 3 253 1 -20.05014801025390625 62.46733856201171875 48.11904144287109375 45.1029052734375 1 #
point $-1 -35 25 50 #
epar-rbase-attrib $-1 $-1 $155 $62 #
coedge $303 $200 $304 $242 $305 reversed $158 $-1 #
epar-rbase-attrib $-1 $-1 $159 $65 #
fface-rbase-attrib $-1 $-1 $162 $111 #
fface-rbase-attrib $-1 $-1 $-1 $163 #
loop $-1 $-1 $306 $163 #
cone-surface $-1 -35 0 -35 0 1 0 -10.60660171779821148 0 -10.60660171779821148 1 I I 0 1 14.99999999999999822 forward I I I I #
copar-rbase-attrib $-1 $-1 $-1 $167 #
loop $-1 $-1 $291 $169 #
plane-surface $-1 -50 0 0 1 0 0 0 0 -1 forward_v I I I I #
coedge $307 $204 $203 $193 $269 reversed $170 $-1 #
fface-rbase-attrib $-1 $-1 $173 $81 #
attrib_fhl_slist-attrib_fhlgeom-attrib_fhl-attrib $-1 $308 $-1 $175 1 351 2 -29.31534194946289062 61.0764007568359375 -41.14019775390625 49.6570281982421875 1 -53.41642379760742188 37.80176925659179688 -41.14019775390625 49.6570281982421875 1 #
cone-surface $-1 -35 0 35 0 -1 0 -10.60660171779821148 0 10.60660171779821148 1 I I 0 1 14.99999999999999822 forward I I I I #
copar-rbase-attrib $-1 $-1 $-1 $177 #
coedge $309 $252 $177 $228 $305 forward $122 $-1 #
edge $310 $255 -2.356194490192344837 $278 0.785398163397448279 $199 $311 forward 7 unknown #
copar-rbase-attrib $-1 $-1 $-1 $179 #
coedge $312 $180 $179 $306 $313 reversed $84 $-1 #
coedge $314 $315 $316 $179 $247 reversed $82 $-1 #
edge $317 $254 -40 $318 35 $246 $319 forward 7 unknown #
copar-rbase-attrib $-1 $-1 $-1 $180 #
coedge $320 $213 $199 $180 $250 reversed $25 $-1 #
edge $321 $322 -35 $255 40 $249 $323 forward 7 unknown #
copar-rbase-attrib $-1 $-1 $-1 $181 #
coedge $324 $181 $242 $315 $325 forward $122 $-1 #
epar-rbase-attrib $-1 $-1 $-1 $182 #
vertex $-1 $325 $326 #
vertex $-1 $250 $327 #
straight-curve $-1 40 0 -50 -0 1 -0 F -56 F 56 #
attrib_fhl_slist-attrib_fhlgeom-attrib_fhl-attrib $-1 $328 $183 $126 3 396 3 47.5758514404296875 27.76592826843261719 36.94332122802734375 15.43545627593994141 1 40.55499649047851562 15.13256072998046875 36.94332122802734375 15.43545627593994141 1 36.94332122802734375 15.43545627593994141 34.7419891357421875 12.88258457183837891 1 #
copar-rbase-attrib $-1 $-1 $-1 $186 #
attrib_fhl_slist-attrib_fhlgeom-attrib_fhl-attrib $-1 $329 $187 $129 3 288 2 31.84256172180175781 26.71806907653808594 26.20241737365722656 20.34733390808105469 1 35.490447998046875 25.071929931640625 31.84256172180175781 26.71806907653808594 1 #
copar-rbase-attrib $-1 $-1 $-1 $190 #
coedge $330 $316 $190 $331 $332 forward $82 $-1 #
coedge $333 $218 $217 $190 $263 forward $219 $-1 #
edge $334 $335 -0.785398163397448279 $265 0.785398163397448279 $190 $336 forward 7 unknown #
attrib_fhl_slist-attrib_fhlgeom-attrib_fhl-attrib $-1 $337 $-1 $191 1 181 1 26.20241737365722656 20.34733390808105469 -43.95447540283203125 39.0923614501953125 1 #
vertex $-1 $263 $338 #
straight-curve $-1 0 -25 50 1 0 0 I I #
copar-rbase-attrib $-1 $-1 $-1 $193 #
coedge $339 $193 $315 $304 $340 forward $82 $-1 #
edge $341 $342 1.570796326794896558 $271 4.712388980384689674 $193 $343 forward 7 unknown #
attrib_fhl_slist-attrib_fhlgeom-attrib_fhl-attrib $-1 $344 $-1 $194 1 103 1 25.89506721496582031 2.622869014739990234 -11.58923244476318359 12.91239833831787109 1 #
vertex $-1 $194 $345 #
straight-curve $-1 12.5 -25 30 1 -0 0 I I #
epar-rbase-attrib $-1 $-1 $195 $89 #
copar-rbase-attrib $-1 $-1 $-1 $199 #
copar-rbase-attrib $-1 $-1 $-1 $200 #
coedge $346 $304 $200 $204 $282 forward $158 $-1 #
attrib_fhl_slist-attrib_fhlgeom-attrib_fhl-attrib $-1 $347 $-1 $201 1 312 1 24.2491455078125 -15.82882595062255859 46.01745223999023438 -21.97344017028808594 1 #
vertex $-1 $201 $348 #
straight-curve $-1 12.5 25 -30 1 0 -0 I I #
copar-rbase-attrib $-1 $-1 $-1 $203 #
copar-rbase-attrib $-1 $-1 $-1 $204 #
edge $349 $206 -24.99999999999989697 $342 25.00000000000010303 $204 $350 forward 7 unknown #
attrib_fhl_slist-attrib_fhlgeom-attrib_fhl-attrib $-1 $351 $205 $140 3 85 5 -14.33992958068847656 13.41288089752197266 -13.46683979034423828 10.54552459716796875 1 -8.989302635192871094 2.206421852111816406 -7.506101131439208984 0.1205831915140151978 1 -7.506101131439208984 0.1205831915140151978 -3.588459968566894531 -3.952929496765136719 1 -3.588459968566894531 -3.952929496765136719 0.8782519102096557617 -7.416322231292724609 1 0.8782519102096557617 -7.416322231292724609 0.9712161421775817871 -7.468545436859130859 1 #
point $-1 0 25 -30 #
epar-rbase-attrib $-1 $-1 $-1 $209 #
straight-curve $-1 0 -1.047444401652940007e-13 30 0 -1 -3.491481338843133355e-15 I I #
copar-rbase-attrib $-1 $-1 $-1 $213 #
coedge $352 $306 $353 $213 $289 forward $232 $-1 #
edge $354 $293 -0.785398163397448279 $322 0.785398163397448279 $213 $355 forward 7 unknown #
coedge $-1 $331 $214 $353 $356 reversed $235 $-1 #
coedge $-1 $214 $331 $217 $296 reversed $235 $-1 #
epar-rbase-attrib $-1 $-1 $-1 $215 #
vertex $-1 $215 $357 #
straight-curve $-1 -50 25 0 0 0 -1 I I #
copar-rbase-attrib $-1 $-1 $-1 $217 #
edge $358 $221 -25 $335 25 $291 $359 forward 7 unknown #
copar-rbase-attrib $-1 $-1 $-1 $218 #
attrib_fhl_slist-attrib_fhlgeom-attrib_fhl-attrib $-1 $360 $220 $149 3 393 2 -29.31534194946289062 61.0764007568359375 -25.09617805480957031 62.77433013916015625 1 -25.09617805480957031 62.77433013916015625 -20.05014801025390625 62.46733856201171875 1 #
point $-1 -50 25 35 #
attrib_fhl_slist-attrib_fhlgeom-attrib_fhl-attrib $-1 $361 $-1 $224 1 292 2 -20.05014801025390625 62.46733856201171875 -31.77701950073242188 51.00015640258789062 1 -43.95447540283203125 39.0923614501953125 -31.77701950073242188 51.00015640258789062 1 #
straight-curve $-1 -35 0 50 -0 1 -0 F -71.5 F 71.5 #
epar-rbase-attrib $-1 $-1 $225 $97 #
copar-rbase-attrib $-1 $-1 $-1 $228 #
coedge $362 $228 $276 $268 $340 reversed $158 $-1 #
edge $363 $278 -25 $364 25 $228 $365 forward 7 unknown #
coedge $366 $367 $288 $245 $313 forward $232 $-1 #
copar-rbase-attrib $-1 $-1 $-1 $237 #
attrib_fhl_slist-attrib_fhlgeom-attrib_fhl-attrib $-1 $368 $239 $175 3 340 2 -29.31534194946289062 61.0764007568359375 -41.14019775390625 49.6570281982421875 1 -53.41642379760742188 37.80176925659179688 -41.14019775390625 49.6570281982421875 1 #
copar-rbase-attrib $-1 $-1 $-1 $242 #
attrib_fhl_slist-attrib_fhlgeom-attrib_fhl-attrib $-1 $369 $-1 $243 1 358 5 46.01745223999023438 -21.97344017028808594 49.42005538940429688 -23.55026435852050781 1 49.42005538940429688 -23.55026435852050781 52.2663421630859375 -26.10893630981445312 1 52.2663421630859375 -26.10893630981445312 54.11505508422851562 -29.25277519226074219 1 54.11505508422851562 -29.25277519226074219 54.68317031860351562 -32.494110107421875 1 54.68317031860351562 -32.494110107421875 53.88988494873046875 -35.33388519287109375 1 #
ellipse-curve $-1 40 25 -40 0 -1 0 7.071067811865474617 0 7.071067811865474617 1 I I #
copar-rbase-attrib $-1 $-1 $-1 $245 #
edge $370 $322 -25 $318 25 $245 $371 forward 7 unknown #
copar-rbase-attrib $-1 $-1 $-1 $246 #
coedge $372 $268 $246 $252 $325 reversed $82 $-1 #
coedge $373 $246 $261 $367 $374 reversed $82 $-1 #
attrib_fhl_slist-attrib_fhlgeom-attrib_fhl-attrib $-1 $375 $-1 $247 1 129 1 24.73454093933105469 -64.30324554443359375 -41.55920791625976562 -44.27322769165039062 1 #
vertex $-1 $247 $376 #
straight-curve $-1 0 -25 -50 -1 0 0 I I #
copar-rbase-attrib $-1 $-1 $-1 $249 #
attrib_fhl_slist-attrib_fhlgeom-attrib_fhl-attrib $-1 $377 $-1 $250 1 217 1 31.01209449768066406 -33.64699172973632812 29.4131927490234375 -33.18523788452148438 1 #
vertex $-1 $289 $378 #
straight-curve $-1 0 25 -50 1 0 0 I I #
copar-rbase-attrib $-1 $-1 $-1 $252 #
edge $379 $364 -2.356194490192344837 $254 0.785398163397448279 $315 $380 forward 7 unknown #
point $-1 40 -25 -50 #
point $-1 40 25 -50 #
epar-rbase-attrib $-1 $-1 $257 $126 #
epar-rbase-attrib $-1 $-1 $259 $129 #
copar-rbase-attrib $-1 $-1 $-1 $261 #
coedge $-1 $291 $290 $261 $332 reversed $235 $-1 #
edge $381 $335 -35 $382 35 $331 $383 forward 7 unknown #
copar-rbase-attrib $-1 $-1 $-1 $262 #
attrib_fhl_slist-attrib_fhlgeom-attrib_fhl-attrib $-1 $384 $-1 $263 1 57 4 -43.95447540283203125 39.0923614501953125 -49.125579833984375 39.4778594970703125 1 -49.125579833984375 39.4778594970703125 -53.41642379760742188 37.80176925659179688 1 -53.41642379760742188 37.80176925659179688 -56.17929458618164062 34.34246444702148438 1 -56.17929458618164062 34.34246444702148438 -57.01334762573242188 29.64391517639160156 1 #
vertex $-1 $263 $385 #
ellipse-curve $-1 -35 -25 35 0 1 -0 -10.60660171779821148 0 10.60660171779821148 1 I I #
attrib_fhl_slist-attrib_fhlgeom-attrib_fhl-attrib $-1 $386 $264 $191 3 279 1 26.20241737365722656 20.34733390808105469 -43.95447540283203125 39.0923614501953125 1 #
point $-1 -35 -25 50 #
copar-rbase-attrib $-1 $-1 $-1 $268 #
edge $387 $364 -27.5 $342 12.5 $268 $388 forward 7 unknown #
attrib_fhl_slist-attrib_fhlgeom-attrib_fhl-attrib $-1 $389 $-1 $269 1 10 14 -16.32047080993652344 -35.00478363037109375 -21.42450523376464844 -32.57685470581054688 1 -21.42450523376464844 -32.57685470581054688 -26.04835128784179688 -28.97543525695800781 1 -26.04835128784179688 -28.97543525695800781 -30.12007713317871094 -24.76055526733398438 1 -30.12007713317871094 -24.76055526733398438 -33.49169921875 -20.08403205871582031 1 -33.49169921875 -20.08403205871582031 -36.03839111328125 -15.11411857604980469 1 -36.50623321533203125 4.041676044464111328 -34.12541961669921875 7.742882728576660156 1 -36.50623321533203125 4.041676044464111328 -30.5449981689453125 10.26609039306640625 1 -34.12541961669921875 7.742882728576660156 -30.84836387634277344 10.68527889251708984 1 -30.84836387634277344 10.68527889251708984 -26.79182243347167969 12.745391845703125 1 -26.79182243347167969 12.745391845703125 -22.10639572143554688 13.8320465087890625 1 -22.10639572143554688 13.8320465087890625 -16.97161674499511719 13.8917083740234375 1 -16.97161674499511719 13.8917083740234375 -11.58923244476318359 12.91239833831787109 1 -32.01569747924804688 5.309320926666259766 -31.95909690856933594 5.972140789031982422 1 -30.5449981689453125 10.26609039306640625 -31.95909690856933594 5.972140789031982422 1 #
vertex $-1 $340 $390 #
ellipse-curve $-1 0 -25 -8.728703347107833388e-14 0 1 -0 30 0 0 1 I I #
attrib_fhl_slist-attrib_fhlgeom-attrib_fhl-attrib $-1 $391 $270 $194 3 179 1 25.89506721496582031 2.622869014739990234 -11.58923244476318359 12.91239833831787109 1 #
point $-1 0 -25 30 #
copar-rbase-attrib $-1 $-1 $-1 $276 #
attrib_fhl_slist-attrib_fhlgeom-attrib_fhl-attrib $-1 $392 $277 $201 3 378 1 10.79931735992431641 -12.03229713439941406 46.01745223999023438 -21.97344017028808594 1 #
point $-1 40 25 -30 #
epar-rbase-attrib $-1 $-1 $-1 $282 #
straight-curve $-1 0 1.047444401652940007e-13 -30 0 -1 -3.491481338843133355e-15 I I #
epar-rbase-attrib $-1 $-1 $283 $140 #
copar-rbase-attrib $-1 $-1 $-1 $288 #
coedge $393 $288 $367 $290 $356 forward $232 $-1 #
epar-rbase-attrib $-1 $-1 $-1 $289 #
ellipse-curve $-1 -35 25 -35 0 -1 0 -10.60660171779821148 0 -10.60660171779821148 1 I I #
edge $394 $382 -25 $293 25 $290 $395 forward 7 unknown #
point $-1 -50 25 -35 #
epar-rbase-attrib $-1 $-1 $-1 $296 #
straight-curve $-1 -50 0 35 0 -1 0 F -71.5 F 71.5 #
epar-rbase-attrib $-1 $-1 $298 $149 #
attrib_fhl_slist-attrib_fhlgeom-attrib_fhl-attrib $-1 $396 $300 $224 3 154 2 -20.05014801025390625 62.46733856201171875 -31.77701950073242188 51.00015640258789062 1 -43.95447540283203125 39.0923614501953125 -31.77701950073242188 51.00015640258789062 1 #
copar-rbase-attrib $-1 $-1 $-1 $304 #
attrib_fhl_slist-attrib_fhlgeom-attrib_fhl-attrib $-1 $397 $-1 $305 1 275 2 46.01745223999023438 -21.97344017028808594 35.71077346801757812 -34.814453125 1 25.01481056213378906 -48.14047622680664062 35.71077346801757812 -34.814453125 1 #
vertex $-1 $305 $398 #
straight-curve $-1 40 0 -30 0 -1 0 F -56 F 56 #
copar-rbase-attrib $-1 $-1 $-1 $306 #
coedge $399 $353 $306 $316 $374 forward $232 $-1 #
fface-rbase-attrib $-1 $-1 $308 $175 #
attrib_fhl_slist-attrib_fhlgeom-attrib_fhl-attrib $-1 $400 $310 $243 3 400 5 46.01745223999023438 -21.97344017028808594 49.42005538940429688 -23.55026435852050781 1 49.42005538940429688 -23.55026435852050781 52.2663421630859375 -26.10893630981445312 1 52.2663421630859375 -26.10893630981445312 54.11505508422851562 -29.25277519226074219 1 54.11505508422851562 -29.25277519226074219 54.68317031860351562 -32.494110107421875 1 54.68317031860351562 -32.494110107421875 53.88988494873046875 -35.33388519287109375 1 #
epar-rbase-attrib $-1 $-1 $-1 $313 #
straight-curve $-1 -35 0 -50 -0 -1 -0 F -71.5 F 71.5 #
copar-rbase-attrib $-1 $-1 $-1 $315 #
copar-rbase-attrib $-1 $-1 $-1 $316 #
edge $401 $318 -0.785398163397448279 $382 0.785398163397448279 $316 $402 forward 7 unknown #
attrib_fhl_slist-attrib_fhlgeom-attrib_fhl-attrib $-1 $403 $317 $247 3 174 1 24.73454093933105469 -64.30324554443359375 -41.55920791625976562 -44.27322769165039062 1 #
point $-1 -35 -25 -50 #
attrib_fhl_slist-attrib_fhlgeom-attrib_fhl-attrib $-1 $404 $321 $250 3 317 1 31.01209449768066406 -33.64699172973632812 29.4131927490234375 -33.18523788452148438 1 #
point $-1 -35 25 -50 #
attrib_fhl_slist-attrib_fhlgeom-attrib_fhl-attrib $-1 $405 $-1 $325 1 82 8 24.73454093933105469 -64.30324554443359375 28.22892189025878906 -64.7464447021484375 1 28.22892189025878906 -64.7464447021484375 31.22823524475097656 -63.90240859985351562 1 28.52473831176757812 -49.8034820556640625 25.01481056213378906 -48.14047622680664062 1 31.47869682312011719 -52.45882034301757812 28.52473831176757812 -49.8034820556640625 1 33.418426513671875 -55.69454574584960938 31.47869682312011719 -52.45882034301757812 1 34.04680633544921875 -59.00844192504882812 33.418426513671875 -55.69454574584960938 1 33.27414321899414062 -61.8901824951171875 34.04680633544921875 -59.00844192504882812 1 31.22823524475097656 -63.90240859985351562 33.27414321899414062 -61.8901824951171875 1 #
ellipse-curve $-1 40 -25 -40 0 1 -0 7.071067811865474617 0 -7.071067811865474617 1 I I #
attrib_fhl_slist-attrib_fhlgeom-attrib_fhl-attrib $-1 $406 $-1 $332 1 21 1 -57.01334762573242188 29.64391517639160156 -54.83257293701171875 -28.51002883911132812 1 #
vertex $-1 $332 $407 #
straight-curve $-1 -50 -25 0 0 0 -1 I I #
attrib_fhl_slist-attrib_fhlgeom-attrib_fhl-attrib $-1 $408 $334 $263 3 102 4 -43.95447540283203125 39.0923614501953125 -49.125579833984375 39.4778594970703125 1 -49.125579833984375 39.4778594970703125 -53.41642379760742188 37.80176925659179688 1 -53.41642379760742188 37.80176925659179688 -56.17929458618164062 34.34246444702148438 1 -56.17929458618164062 34.34246444702148438 -57.01334762573242188 29.64391517639160156 1 #
point $-1 -50 -25 35 #
epar-rbase-attrib $-1 $-1 $337 $191 #
epar-rbase-attrib $-1 $-1 $-1 $340 #
straight-curve $-1 12.5 -25 -30 -1 0 0 I I #
attrib_fhl_slist-attrib_fhlgeom-attrib_fhl-attrib $-1 $409 $341 $269 3 15 14 -16.32047080993652344 -35.00478363037109375 -21.42450523376464844 -32.57685470581054688 1 -21.42450523376464844 -32.57685470581054688 -26.04835128784179688 -28.97543525695800781 1 -26.04835128784179688 -28.97543525695800781 -30.12007713317871094 -24.76055526733398438 1 -30.12007713317871094 -24.76055526733398438 -33.49169921875 -20.08403205871582031 1 -33.49169921875 -20.08403205871582031 -36.03839111328125 -15.11411857604980469 1 -36.50623321533203125 4.041676044464111328 -34.12541961669921875 7.742882728576660156 1 -36.50623321533203125 4.041676044464111328 -30.5449981689453125 10.26609039306640625 1 -34.12541961669921875 7.742882728576660156 -30.84836387634277344 10.68527889251708984 1 -30.84836387634277344 10.68527889251708984 -26.79182243347167969 12.745391845703125 1 -26.79182243347167969 12.745391845703125 -22.10639572143554688 13.8320465087890625 1 -22.10639572143554688 13.8320465087890625 -16.97161674499511719 13.8917083740234375 1 -16.97161674499511719 13.8917083740234375 -11.58923244476318359 12.91239833831787109 1 -32.01569747924804688 5.309320926666259766 -31.95909690856933594 5.972140789031982422 1 -30.5449981689453125 10.26609039306640625 -31.95909690856933594 5.972140789031982422 1 #
point $-1 0 -25 -30 #
epar-rbase-attrib $-1 $-1 $344 $194 #
epar-rbase-attrib $-1 $-1 $347 $201 #
copar-rbase-attrib $-1 $-1 $-1 $353 #
epar-rbase-attrib $-1 $-1 $-1 $356 #
straight-curve $-1 -50 0 -35 0 1 0 F -71.5 F 71.5 #
epar-rbase-attrib $-1 $-1 $361 $224 #
attrib_fhl_slist-attrib_fhlgeom-attrib_fhl-attrib $-1 $410 $363 $305 3 356 2 46.01745223999023438 -21.97344017028808594 35.71077346801757812 -34.814453125 1 25.01481056213378906 -48.14047622680664062 35.71077346801757812 -34.814453125 1 #
point $-1 40 -25 -30 #
copar-rbase-attrib $-1 $-1 $-1 $367 #
epar-rbase-attrib $-1 $-1 $369 $243 #
attrib_fhl_slist-attrib_fhlgeom-attrib_fhl-attrib $-1 $411 $-1 $374 1 43 4 -41.55920791625976562 -44.27322769165039062 -46.5134735107421875 -41.88545608520507812 1 -54.83257293701171875 -28.51002883911132812 -53.68478012084960938 -33.37410354614257812 1 -53.68478012084960938 -33.37410354614257812 -50.76517486572265625 -38.06380462646484375 1 -50.76517486572265625 -38.06380462646484375 -46.5134735107421875 -41.88545608520507812 1 #
ellipse-curve $-1 -35 -25 -35 0 1 -0 -10.60660171779821148 0 -10.60660171779821148 1 I I #
epar-rbase-attrib $-1 $-1 $375 $247 #
epar-rbase-attrib $-1 $-1 $377 $250 #
attrib_fhl_slist-attrib_fhlgeom-attrib_fhl-attrib $-1 $412 $379 $325 3 99 8 24.73454093933105469 -64.30324554443359375 28.22892189025878906 -64.7464447021484375 1 28.22892189025878906 -64.7464447021484375 31.22823524475097656 -63.90240859985351562 1 28.52473831176757812 -49.8034820556640625 25.01481056213378906 -48.14047622680664062 1 31.47869682312011719 -52.45882034301757812 28.52473831176757812 -49.8034820556640625 1 33.418426513671875 -55.69454574584960938 31.47869682312011719 -52.45882034301757812 1 34.04680633544921875 -59.00844192504882812 33.418426513671875 -55.69454574584960938 1 33.27414321899414062 -61.8901824951171875 34.04680633544921875 -59.00844192504882812 1 31.22823524475097656 -63.90240859985351562 33.27414321899414062 -61.8901824951171875 1 #
attrib_fhl_slist-attrib_fhlgeom-attrib_fhl-attrib $-1 $413 $381 $332 3 28 1 -57.01334762573242188 29.64391517639160156 -54.83257293701171875 -28.51002883911132812 1 #
point $-1 -50 -25 -35 #
epar-rbase-attrib $-1 $-1 $384 $263 #
epar-rbase-attrib $-1 $-1 $389 $269 #
epar-rbase-attrib $-1 $-1 $397 $305 #
attrib_fhl_slist-attrib_fhlgeom-attrib_fhl-attrib $-1 $414 $401 $374 3 53 4 -41.55920791625976562 -44.27322769165039062 -46.5134735107421875 -41.88545608520507812 1 -54.83257293701171875 -28.51002883911132812 -53.68478012084960938 -33.37410354614257812 1 -53.68478012084960938 -33.37410354614257812 -50.76517486572265625 -38.06380462646484375 1 -50.76517486572265625 -38.06380462646484375 -46.5134735107421875 -41.88545608520507812 1 #
epar-rbase-attrib $-1 $-1 $405 $325 #
epar-rbase-attrib $-1 $-1 $406 $332 #
epar-rbase-attrib $-1 $-1 $411 $374 #
End-of-ACIS-data 