600 0 1 0           
64 GICL ACIS Healer - Source: bellows_attach_ring_26_left.sat - 6 0 18 ACIS 6.0.3 Solaris 24 Fri Mar 29 22:12:27 2002 
1 9.999999999999999547e-07 1.000000000000000036e-10 
body $1 $2 $-1 $-1 #
aggregate_advspl_attribute-aggregate_geombuild_base_attribute-aggregate_body_attribute-attrib_HH-attrib $-1 $3 $-1 $0 F #
lump $-1 $-1 $4 $0 #
aggregate_secndry_attribute-aggregate_geombuild_base_attribute-aggregate_body_attribute-attrib_HH-attrib $-1 $5 $1 $0 F #
shell $-1 $-1 $-1 $6 $-1 $2 #
aggregate_sharped_attribute-aggregate_geombuild_base_attribute-aggregate_body_attribute-attrib_HH-attrib $-1 $7 $3 $0 F #
face $8 $9 $10 $4 $-1 $11 forward single #
aggregate_reblend_attribute-aggregate_geombuild_base_attribute-aggregate_body_attribute-attrib_HH-attrib $-1 $12 $5 $0 F #
attrib_hh_face_geombuild-attrib_entity_geombuild-individual_entity_attribute-attrib_HH-attrib $-1 $-1 $-1 $6 F #
face $13 $14 $15 $4 $-1 $16 forward single #
loop $-1 $17 $18 $6 #
plane-surface $-1 -4.744699999999999918 0 5.869699999999999918 -0.7071067811865474617 0 0.7071067811865474617 0.7071067811865474617 0 0.7071067811865474617 forward_v I I I I #
aggregate_isospline_attribute-aggregate_geombuild_base_attribute-aggregate_body_attribute-attrib_HH-attrib $-1 $19 $7 $0 F #
attrib_hh_face_geombuild-attrib_entity_geombuild-individual_entity_attribute-attrib_HH-attrib $-1 $-1 $-1 $9 F #
face $20 $21 $22 $4 $-1 $23 reversed single #
loop $-1 $24 $25 $9 #
plane-surface $-1 -4.442765404433344223 0 5.567765404433344223 -0.7071067811865474617 0 0.7071067811865474617 0.7071067811865474617 0 0.7071067811865474617 forward_v I I I I #
loop $-1 $-1 $26 $6 #
coedge $27 $18 $18 $28 $29 forward $10 $-1 #
aggregate_analytic_solver_attribute-aggregate_geombuild_base_attribute-aggregate_body_attribute-attrib_HH-attrib $-1 $30 $12 $0 F #
attrib_hh_face_geombuild-attrib_entity_geombuild-individual_entity_attribute-attrib_HH-attrib $-1 $-1 $-1 $14 F #
face $31 $32 $33 $4 $-1 $34 reversed single #
loop $-1 $35 $36 $14 #
plane-surface $-1 -4.347305988973159785 0 5.472305988973159785 -0.7071067811865474617 0 0.7071067811865474617 0.7071067811865474617 0 0.7071067811865474617 forward_v I I I I #
loop $-1 $-1 $37 $9 #
coedge $38 $25 $25 $39 $40 forward $15 $-1 #
coedge $41 $26 $26 $42 $43 reversed $17 $-1 #
attrib_hh_coedge_geombuild-attrib_entity_geombuild-individual_entity_attribute-attrib_HH-attrib $-1 $-1 $-1 $18 F #
coedge $44 $28 $28 $18 $29 reversed $45 $-1 #
edge $46 $47 0 $47 6.283185307179586232 $28 $48 forward 7 unknown #
aggregate_geombuild_attribute-aggregate_geombuild_base_attribute-aggregate_body_attribute-attrib_HH-attrib $-1 $49 $19 $0 #
attrib_hh_face_geombuild-attrib_entity_geombuild-individual_entity_attribute-attrib_HH-attrib $-1 $-1 $-1 $21 F #
face $50 $51 $52 $4 $-1 $53 forward single #
loop $-1 $54 $55 $21 #
plane-surface $-1 -4.36144812459689124 0 5.48644812459689124 -0.7071067811865474617 0 0.7071067811865474617 0.7071067811865474617 0 0.7071067811865474617 forward_v I I I I #
loop $-1 $-1 $56 $14 #
coedge $57 $36 $36 $58 $59 forward $22 $-1 #
coedge $60 $37 $37 $61 $62 forward $24 $-1 #
attrib_hh_coedge_geombuild-attrib_entity_geombuild-individual_entity_attribute-attrib_HH-attrib $-1 $-1 $-1 $25 F #
coedge $63 $39 $39 $25 $40 reversed $64 $-1 #
edge $65 $66 0 $66 6.283185307179586232 $39 $67 forward 7 unknown #
attrib_hh_coedge_geombuild-attrib_entity_geombuild-individual_entity_attribute-attrib_HH-attrib $-1 $-1 $-1 $26 F #
coedge $68 $42 $42 $26 $43 forward $69 $-1 #
edge $70 $71 0 $71 6.283185307179586232 $42 $72 forward 7 unknown #
attrib_hh_coedge_geombuild-attrib_entity_geombuild-individual_entity_attribute-attrib_HH-attrib $-1 $-1 $-1 $28 F #
loop $-1 $-1 $28 $32 #
attrib_hh_edge_geombuild-attrib_entity_geombuild-individual_entity_attribute-attrib_HH-attrib $-1 $-1 $-1 $29 F #
vertex $73 $29 $74 #
ellipse-curve $-1 -4.744699999999999918 0 5.869699999999999918 -0.7071067811865474617 0 0.7071067811865474617 0.7071067811865474617 0 0.7071067811865474617 1 I I #
aggregate_stitch_attribute-aggregate_stitch_base_attribute-aggregate_body_attribute-attrib_HH-attrib $-1 $75 $30 $0 F #
attrib_hh_face_geombuild-attrib_entity_geombuild-individual_entity_attribute-attrib_HH-attrib $-1 $-1 $-1 $32 F #
face $76 $77 $78 $4 $-1 $79 forward single #
loop $-1 $45 $61 $32 #
cone-surface $-1 -4.327436288421818489 0 5.452436288421818489 -0.7071067811865474617 0 0.7071067811865474617 -0.7071067811865474617 0 -0.7071067811865474617 1 I I 0 1 1 forward I I I I #
loop $-1 $-1 $80 $21 #
coedge $81 $55 $55 $82 $83 forward $33 $-1 #
coedge $84 $56 $56 $85 $86 forward $35 $-1 #
attrib_hh_coedge_geombuild-attrib_entity_geombuild-individual_entity_attribute-attrib_HH-attrib $-1 $-1 $-1 $36 F #
coedge $87 $58 $58 $36 $59 reversed $88 $-1 #
edge $89 $90 0 $90 6.283185307179586232 $58 $91 forward 7 unknown #
attrib_hh_coedge_geombuild-attrib_entity_geombuild-individual_entity_attribute-attrib_HH-attrib $-1 $-1 $-1 $37 F #
coedge $92 $61 $61 $37 $62 reversed $52 $-1 #
edge $93 $94 -3.141592653589793116 $94 3.141592653589793116 $37 $95 forward 7 unknown #
attrib_hh_coedge_geombuild-attrib_entity_geombuild-individual_entity_attribute-attrib_HH-attrib $-1 $-1 $-1 $39 F #
loop $-1 $-1 $39 $51 #
attrib_hh_edge_geombuild-attrib_entity_geombuild-individual_entity_attribute-attrib_HH-attrib $-1 $-1 $-1 $40 F #
vertex $96 $40 $97 #
ellipse-curve $-1 -4.442765404433344223 0 5.567765404433344223 -0.7071067811865474617 0 0.7071067811865474617 1.410678028467162282 0 1.410678028467162282 1 I I #
attrib_hh_coedge_geombuild-attrib_entity_geombuild-individual_entity_attribute-attrib_HH-attrib $-1 $-1 $-1 $42 F #
loop $-1 $98 $42 $99 #
attrib_hh_edge_geombuild-attrib_entity_geombuild-individual_entity_attribute-attrib_HH-attrib $-1 $-1 $-1 $43 F #
vertex $100 $43 $101 #
ellipse-curve $-1 -4.744699999999999918 0 5.869699999999999918 -0.7071067811865474617 0 0.7071067811865474617 0.6629126073623882176 0 0.6629126073623882176 1 I I #
attrib_hh_vertex_geombuild-attrib_entity_geombuild-individual_entity_attribute-attrib_HH-attrib $-1 $-1 $-1 $47 F #
point $-1 -4.037593218813452012 0 6.576806781186547823 #
aggregate_simgeom_attribute-aggregate_simgeom_base_attribute-aggregate_body_attribute-attrib_HH-attrib $-1 $-1 $49 $0 F #
attrib_hh_face_geombuild-attrib_entity_geombuild-individual_entity_attribute-attrib_HH-attrib $-1 $-1 $-1 $51 F #
face $102 $103 $104 $4 $-1 $105 reversed single #
loop $-1 $64 $106 $51 #
cone-surface $-1 -4.327436288421818489 0 5.452436288421818489 -0.7071067811865474617 0 0.7071067811865474617 -1.410678028467162282 0 -1.410678028467162282 1 I I 0 1 1.995000000000000107 forward I I I I #
coedge $107 $80 $80 $108 $109 forward $54 $-1 #
attrib_hh_coedge_geombuild-attrib_entity_geombuild-individual_entity_attribute-attrib_HH-attrib $-1 $-1 $-1 $55 F #
coedge $110 $82 $82 $55 $83 reversed $98 $-1 #
edge $111 $112 0 $112 6.283185307179586232 $82 $113 forward 7 unknown #
attrib_hh_coedge_geombuild-attrib_entity_geombuild-individual_entity_attribute-attrib_HH-attrib $-1 $-1 $-1 $56 F #
coedge $114 $85 $85 $56 $86 reversed $115 $-1 #
edge $116 $117 -3.141592653589793116 $117 3.141592653589793116 $56 $118 forward 7 unknown #
attrib_hh_coedge_geombuild-attrib_entity_geombuild-individual_entity_attribute-attrib_HH-attrib $-1 $-1 $-1 $58 F #
loop $-1 $-1 $58 $119 #
attrib_hh_edge_geombuild-attrib_entity_geombuild-individual_entity_attribute-attrib_HH-attrib $-1 $-1 $-1 $59 F #
vertex $120 $59 $121 #
ellipse-curve $-1 -4.347305988973159785 0 5.472305988973159785 -0.7071067811865474617 0 0.7071067811865474617 1.362594767346476887 0 1.362594767346476887 1 I I #
attrib_hh_coedge_geombuild-attrib_entity_geombuild-individual_entity_attribute-attrib_HH-attrib $-1 $-1 $-1 $61 F #
attrib_hh_edge_geombuild-attrib_entity_geombuild-individual_entity_attribute-attrib_HH-attrib $-1 $-1 $-1 $62 F #
vertex $122 $62 $123 #
ellipse-curve $-1 -4.442765404433344223 0 5.567765404433344223 0.7071067811865474617 0 -0.7071067811865474617 0.7071067811865474617 0 0.7071067811865474617 1 I I #
attrib_hh_vertex_geombuild-attrib_entity_geombuild-individual_entity_attribute-attrib_HH-attrib $-1 $-1 $-1 $66 F #
point $-1 -3.032087375966181941 0 6.978443432900506949 #
loop $-1 $-1 $82 $99 #
face $124 $-1 $69 $4 $-1 $125 reversed single #
attrib_hh_vertex_geombuild-attrib_entity_geombuild-individual_entity_attribute-attrib_HH-attrib $-1 $-1 $-1 $71 F #
point $-1 -4.081787392637611589 0 6.532612607362388246 #
attrib_hh_face_geombuild-attrib_entity_geombuild-individual_entity_attribute-attrib_HH-attrib $-1 $-1 $-1 $77 F #
face $126 $119 $115 $4 $-1 $127 forward single #
loop $-1 $128 $129 $77 #
torus-surface $-1 -4.37205472631468961 0 5.49705472631468961 -0.7071067811865474617 0 0.7071067811865474617 1.995000000000000107 0.02500000000000000139 0.7071067811865474617 0 0.7071067811865474617 forward_v I I I I #
coedge $130 $106 $106 $131 $132 forward $78 $-1 #
attrib_hh_coedge_geombuild-attrib_entity_geombuild-individual_entity_attribute-attrib_HH-attrib $-1 $-1 $-1 $80 F #
coedge $133 $108 $108 $80 $109 reversed $134 $-1 #
edge $135 $136 -3.141592653589793116 $136 3.141592653589793116 $80 $137 forward 7 unknown #
attrib_hh_coedge_geombuild-attrib_entity_geombuild-individual_entity_attribute-attrib_HH-attrib $-1 $-1 $-1 $82 F #
attrib_hh_edge_geombuild-attrib_entity_geombuild-individual_entity_attribute-attrib_HH-attrib $-1 $-1 $-1 $83 F #
vertex $138 $83 $139 #
ellipse-curve $-1 -4.36144812459689124 0 5.48644812459689124 -0.7071067811865474617 0 0.7071067811865474617 0.6629126073623882176 0 0.6629126073623882176 1 I I #
attrib_hh_coedge_geombuild-attrib_entity_geombuild-individual_entity_attribute-attrib_HH-attrib $-1 $-1 $-1 $85 F #
loop $-1 $140 $85 $103 #
attrib_hh_edge_geombuild-attrib_entity_geombuild-individual_entity_attribute-attrib_HH-attrib $-1 $-1 $-1 $86 F #
vertex $141 $86 $142 #
ellipse-curve $-1 -4.347305988973159785 0 5.472305988973159785 0.7071067811865474617 0 -0.7071067811865474617 1.410678028467162282 0 1.410678028467162282 1 I I #
face $143 $99 $134 $4 $-1 $144 reversed single #
attrib_hh_vertex_geombuild-attrib_entity_geombuild-individual_entity_attribute-attrib_HH-attrib $-1 $-1 $-1 $90 F #
point $-1 -2.984711221626682676 0 6.83490075631963645 #
attrib_hh_vertex_geombuild-attrib_entity_geombuild-individual_entity_attribute-attrib_HH-attrib $-1 $-1 $-1 $94 F #
point $-1 -5.149872185619891241 0 4.860658623246797205 #
attrib_hh_face_geombuild-attrib_entity_geombuild-individual_entity_attribute-attrib_HH-attrib $-1 $-1 $-1 $99 F #
cone-surface $-1 -4.327436288421818489 0 5.452436288421818489 -0.7071067811865474617 0 0.7071067811865474617 -0.6629126073623882176 0 -0.6629126073623882176 1 I I 0 1 0.9375 forward I I I I #
attrib_hh_face_geombuild-attrib_entity_geombuild-individual_entity_attribute-attrib_HH-attrib $-1 $-1 $-1 $103 F #
cone-surface $-1 -4.327436288421818489 0 5.452436288421818489 -0.7071067811865474617 0 0.7071067811865474617 -1.410678028467162282 0 -1.410678028467162282 1 I I 0 1 1.995000000000000107 forward I I I I #
loop $-1 $-1 $131 $77 #
coedge $145 $129 $129 $146 $147 forward $104 $-1 #
attrib_hh_coedge_geombuild-attrib_entity_geombuild-individual_entity_attribute-attrib_HH-attrib $-1 $-1 $-1 $106 F #
coedge $148 $131 $131 $106 $132 reversed $128 $-1 #
edge $149 $150 -3.141592653589793116 $150 3.141592653589793116 $131 $151 forward 7 unknown #
attrib_hh_coedge_geombuild-attrib_entity_geombuild-individual_entity_attribute-attrib_HH-attrib $-1 $-1 $-1 $108 F #
loop $-1 $88 $108 $119 #
attrib_hh_edge_geombuild-attrib_entity_geombuild-individual_entity_attribute-attrib_HH-attrib $-1 $-1 $-1 $109 F #
vertex $152 $109 $153 #
ellipse-curve $-1 -4.361448124596892129 0 5.486448124596892129 0.7071067811865474617 0 -0.7071067811865474617 1.33809986991864327 0 1.33809986991864327 1 I I #
attrib_hh_vertex_geombuild-attrib_entity_geombuild-individual_entity_attribute-attrib_HH-attrib $-1 $-1 $-1 $112 F #
point $-1 -3.698535517234502912 0 6.149360731959279569 #
loop $-1 $-1 $146 $103 #
attrib_hh_vertex_geombuild-attrib_entity_geombuild-individual_entity_attribute-attrib_HH-attrib $-1 $-1 $-1 $117 F #
point $-1 -5.757984017440322511 0 4.061627960505997947 #
attrib_hh_face_geombuild-attrib_entity_geombuild-individual_entity_attribute-attrib_HH-attrib $-1 $-1 $-1 $119 F #
cone-surface $-1 -4.347305988973159785 0 5.472305988973159785 0.7071067811865474617 0 -0.7071067811865474617 1.362594767346476887 0 1.362594767346476887 1 I I 0.8660254037844390407 0.4999999999999990008 1.927000000000000046 forward I I I I #
attrib_hh_coedge_geombuild-attrib_entity_geombuild-individual_entity_attribute-attrib_HH-attrib $-1 $-1 $-1 $129 F #
coedge $154 $146 $146 $129 $147 reversed $140 $-1 #
edge $155 $156 -3.141592653589793116 $156 3.141592653589793116 $146 $157 forward 7 unknown #
attrib_hh_coedge_geombuild-attrib_entity_geombuild-individual_entity_attribute-attrib_HH-attrib $-1 $-1 $-1 $131 F #
attrib_hh_edge_geombuild-attrib_entity_geombuild-individual_entity_attribute-attrib_HH-attrib $-1 $-1 $-1 $132 F #
vertex $158 $132 $159 #
ellipse-curve $-1 -4.389732395844353263 0 5.514732395844353263 -0.7071067811865474617 0 0.7071067811865474617 1.410678028467162282 0 1.410678028467162282 1 I I #
attrib_hh_vertex_geombuild-attrib_entity_geombuild-individual_entity_attribute-attrib_HH-attrib $-1 $-1 $-1 $136 F #
point $-1 -5.699547994515535621 0 4.148348254678248637 #
attrib_hh_coedge_geombuild-attrib_entity_geombuild-individual_entity_attribute-attrib_HH-attrib $-1 $-1 $-1 $146 F #
attrib_hh_edge_geombuild-attrib_entity_geombuild-individual_entity_attribute-attrib_HH-attrib $-1 $-1 $-1 $147 F #
vertex $160 $147 $161 #
ellipse-curve $-1 -4.354377056785025957 0 5.479377056785025957 -0.7071067811865474617 0 0.7071067811865474617 1.410678028467162282 0 1.410678028467162282 1 I I #
attrib_hh_vertex_geombuild-attrib_entity_geombuild-individual_entity_attribute-attrib_HH-attrib $-1 $-1 $-1 $150 F #
point $-1 -5.800410424311515101 0 4.104054367377190538 #
attrib_hh_vertex_geombuild-attrib_entity_geombuild-individual_entity_attribute-attrib_HH-attrib $-1 $-1 $-1 $156 F #
point $-1 -5.765055085252187794 0 4.068699028317863231 #
End-of-ACIS-data 