**ABCDEFGHIJKLMNOPQRSTUVWXYZabcdefghijklmnopqrstuvwxyz**************************
**PARASOLID !"#$%&'()*+,-./:;<=>?@[\]^_`{|}~0123456789**************************
**PART1;MC=sparc;MC_MODEL=sun4c;MC_ID=chaos;OS=SunOS;OS_RELEASE=4.1.2;FRU=sdl_pa
rasolid_test_sparc;APPL=unknown;SITE=sdl-cambridge-u.k.;USER=brown;FORMAT=text;G
UISE=transmit;KEY=support1;FILE=support1.xmt_txt;DATE=14-feb-1992;
**PART2;SCH=SCH_401021_4039;USFLD_SIZE=0;
**PART3;
**END_OF_HEADER*****************************************************************
T50 : TRANSMIT FILE created by modeller version 40102115 SCH_401021_40390 12 1 1
314 2 3 0 0 0 1e3 1e-8 4 2 0 5 6 1 7 1e-8 0 0 81 2 2 1314 8 1 0 0 0 0 9 10 70 3
 0 1 0 0 4 1 20 4 11 11 1 102 8 4 support113 7 2 0 1 0 12 13 14 15 16 17 14 12 1
232 0 18 0 19 7 15 -16 13 1260 0 20 0 21 16 18 14 947 0 22 0 23 17 51 15 1277 0
 12 24 0 0 +-4.33 4.33 -8.07 1 0 0 .025 0 0 -1 38 16 1290 0 13 25 0 0 +1e-8 26 2
4 27 28 28 29 17 1025 0 14 29 0 -3.337268610013505 .61 -9.07 29 29 1026 0 23 30
 17 -5.32273138998649 .61 -9.07 18 23 948 0 31 14 32 29 29 30 1028 0 32 33 29 -5
.32273138998649 -.61 -9.07 18 32 950 0 34 23 35 30 29 33 1029 0 35 36 30 -3.3372
68610013505 -.61 -9.07 18 35 951 0 37 32 38 33 29 36 1031 0 38 39 33 -5.32273138
998649 .61 -9.32 18 38 953 0 40 35 41 36 29 39 1032 0 41 42 36 -3.33726861001350
5 .61 -9.32 18 41 954 0 43 38 44 39 29 42 1034 0 44 45 39 -3.337268610013505 -.6
1 -9.32 18 44 956 0 46 41 47 42 29 45 804 0 47 48 42 -5.32273138998649 -.61 -9.3
2 18 47 802 0 49 44 50 45 29 48 530 0 50 51 45 -4.92160797830996 4.5 -8.57 18 50
 512 0 52 47 53 48 29 51 473 0 53 54 48 -3.73839202169004 4.5 -9.32 18 53 471 0
 55 50 56 51 29 54 469 0 56 57 51 -4.92160797830996 4.5 -9.32 18 56 467 0 58 53
 59 54 29 57 460 0 59 60 54 -3.73839202169004 4.5 -8.57 18 59 458 0 61 56 62 57
 29 60 450 0 62 63 57 -3.73839202169004 -4.5 -8.57 18 62 432 0 64 59 65 60 29 63
 393 0 65 66 60 -3.73839202169004 -4.5 -9.32 18 65 391 0 67 62 68 63 29 66 389 0
 68 69 63 -4.92160797830996 -4.5 -9.32 18 68 387 0 70 65 71 66 29 69 376 0 71 72
 66 -4.92160797830996 -4.5 -8.57 18 71 374 0 73 68 74 69 29 72 346 0 74 75 69 -3
.728611149383055 4.5 -9.32 18 74 268 0 76 71 77 72 29 75 348 0 78 79 72 -3.72861
1149383055 -4.5 -9.32 18 78 270 0 80 81 82 75 29 79 349 0 82 83 75 -4.9313888506
1695 -4.5 -9.32 18 82 271 0 84 78 85 79 29 83 351 0 85 86 79 -3.728611149383055
 -4.5 -8.57 18 85 273 0 87 82 88 83 29 86 353 0 77 89 83 -3.728611149383055 4.5
 -8.57 18 77 275 0 90 74 81 86 29 89 354 0 81 91 86 -4.93138885061695 4.5 -8.57
 18 81 276 0 92 77 78 89 29 91 103 0 88 93 89 -4.93138885061695 4.5 -9.32 18 88
 101 0 94 85 95 91 29 93 91 0 95 0 91 -4.93138885061695 -4.5 -8.57 18 95 89 0 96
 88 0 93 17 96 97 98 99 95 100 101 0 15 97 824 0 34 102 0 17 98 97 94 96 81 103
 104 0 17 99 97 96 49 82 105 106 0 17 100 107 108 109 82 96 101 0 16 101 241 0 9
6 110 111 112 16 110 243 0 108 113 101 114 16 111 240 0 80 101 115 116 30 112 31
9 0 101 114 116 0 -1e-8 -4.93138885061695 -4.5 -8.57 0 0 -1 30 114 321 0 110 117
 112 0 +1e-8 -4.33 -4.5 -9.32 1 0 0 30 116 318 0 111 112 118 0 +1e-8 -3.72861114
9383055 -4.5 -8.57 0 0 -1 30 118 313 0 119 116 120 0 +1e-8 -4.93138885061695 4.5
 -8.57 0 0 -1 16 119 235 0 94 121 113 118 30 120 312 0 121 118 122 0 -1e-8 -3.72
8611149383055 4.5 -8.57 0 0 -1 16 121 234 0 90 123 119 120 30 122 381 0 123 120
 124 0 +1e-8 20.27 -4.5 -8.57 1 0 0 16 123 379 0 87 125 121 122 30 124 394 0 125
 122 126 0 +1e-8 -4.33 -4.5 -9.32 1 0 0 16 125 392 0 127 128 123 124 30 126 402
 0 128 124 129 0 -1e-8 -3.73839202169004 -4.5 -8.57 0 0 -1 16 128 400 0 64 130 1
25 126 30 129 407 0 130 126 131 0 +1e-8 -4.92160797830996 -4.5 -8.57 0 0 -1 16 1
30 405 0 70 132 128 129 31 131 448 0 132 129 133 0 +1e-8 -4.33 -4.4 -8.57 0 0 -1
 -1 0 0 .6 16 132 430 0 134 135 130 131 31 133 447 0 135 131 136 0 +1e-8 -4.33 -
4.4 -9.32 0 0 1 1 0 0 .6 16 135 429 0 137 138 132 133 30 136 461 0 138 133 139 0
 +1e-8 -4.33 4.5 -8.57 1 0 0 16 138 459 0 140 141 135 136 30 139 474 0 141 136 1
42 0 +1e-8 20.27 4.5 -9.32 1 0 0 16 141 472 0 76 143 138 139 30 142 482 0 143 13
9 144 0 -1e-8 -4.92160797830996 4.5 -8.57 0 0 -1 16 143 480 0 52 145 141 142 30
 144 487 0 145 142 146 0 +1e-8 -3.73839202169004 4.5 -8.57 0 0 -1 16 145 485 0 5
5 147 143 144 31 146 528 0 147 144 148 0 +1e-8 -4.33 4.4 -8.57 0 0 -1 -1 0 0 .6
 16 147 510 0 149 150 145 146 31 148 527 0 150 146 151 0 +1e-8 -4.33 4.4 -9.32 0
 0 1 1 0 0 .6 16 150 509 0 152 153 147 148 31 151 562 0 153 148 154 0 +1e-8 -4.3
3 -4.33 -8.57 0 0 1 1 0 0 .29 16 153 560 0 155 156 150 151 31 154 628 0 156 151
 157 0 +1e-8 -4.33 4.33 -8.57 0 0 1 1 0 0 .29 16 156 626 0 158 159 153 154 31 15
7 687 0 159 154 160 0 -1e-8 -4.33 -4.33 -9.02 0 0 1 1 0 0 .29 16 159 684 0 161 1
62 156 157 31 160 723 0 162 157 163 0 +1e-8 -4.33 -4.33 -9.02 0 0 -1 -1 0 0 .45
 16 162 708 0 164 165 159 160 31 163 722 0 165 160 166 0 +1e-8 -4.33 -4.33 -9.32
 0 0 1 1 0 0 .45 16 165 707 0 167 168 162 163 31 166 753 0 168 163 169 0 -1e-8 -
4.33 4.33 -9.02 0 0 1 1 0 0 .29 16 168 750 0 170 171 165 166 31 169 789 0 171 16
6 172 0 +1e-8 -4.33 4.33 -9.02 0 0 -1 -1 0 0 .45 16 171 774 0 173 174 168 169 31
 172 788 0 174 169 175 0 +1e-8 -4.33 4.33 -9.32 0 0 1 1 0 0 .45 16 174 773 0 176
 106 171 172 31 175 805 0 106 172 177 0 +1e-8 20.27 0 -9.32 0 0 1 1 0 0 25.6 16
 106 803 0 99 178 174 175 31 177 831 0 178 175 179 0 +1e-8 -28.93 0 -9.32 0 0 1
 1 0 0 25.6 16 178 829 0 180 181 106 177 30 179 843 0 181 177 182 0 +1e-8 20.27
 -.61 -9.32 -1 0 0 16 181 841 0 183 184 178 179 30 182 1008 0 184 179 185 0 +1e-
8 -4.33 .61 -9.32 -1 0 0 16 184 930 0 40 186 181 182 30 185 1000 0 186 182 187 0
 +1e-8 -4.33 -.61 -9.07 -1 0 0 16 186 922 0 188 189 184 185 30 187 998 0 189 185
 190 0 -1e-8 -5.32273138998649 -.61 -8.57 0 0 -1 16 189 920 0 191 192 186 187 30
 190 997 0 192 187 193 0 +1e-8 -3.337268610013505 -.61 -8.57 0 0 -1 16 192 919 0
 194 195 189 190 30 193 995 0 195 190 196 0 +1e-8 -4.33 .61 -9.07 1 0 0 16 195 9
17 0 197 198 192 193 31 196 993 0 198 193 199 0 -1e-8 20.27 0 -9.07 0 0 1 1 0 0
 25.6 16 198 915 0 200 201 195 196 31 199 990 0 201 196 202 0 -1e-8 -28.93 0 -9.
07 0 0 1 1 0 0 25.6 16 201 912 0 203 204 198 199 30 202 989 0 204 199 205 0 +1e-
8 -5.32273138998649 .61 -8.57 0 0 -1 16 204 911 0 206 207 201 202 30 205 988 0 2
07 202 208 0 -1e-8 -3.337268610013505 .61 -8.57 0 0 -1 16 207 910 0 209 210 204
 205 31 208 1051 0 210 205 211 0 +1e-8 -4.33 .4 -8.57 0 0 1 1 0 0 .07 16 210 104
8 0 212 213 207 208 31 211 1057 0 213 208 214 0 +1e-8 -4.33 .4 -9.07 0 0 1 1 0 0
 .07 16 213 1054 0 215 216 210 211 31 214 1079 0 216 211 217 0 +1e-8 -4.33 -.4 -
8.57 0 0 1 1 0 0 .07 16 216 1076 0 218 219 213 214 31 217 1085 0 219 214 220 0 +
1e-8 -4.33 -.4 -9.07 0 0 1 1 0 0 .07 16 219 1082 0 221 222 216 217 31 220 1197 0
 222 217 223 0 +1e-8 -4.33 -4.33 -8.57 0 0 1 1 0 0 .5 16 222 1165 0 224 225 219
 220 31 223 1196 0 225 220 226 0 +1e-8 -4.33 -4.33 -4.81 0 0 -1 -1 0 0 .5 16 225
 1164 0 227 228 222 223 31 226 1195 0 228 223 229 0 +1e-8 -4.33 -4.33 -4.81 0 0
 1 1 0 0 .335 16 228 1163 0 230 231 225 226 31 229 1194 0 231 226 232 0 +1e-8 -4
.33 -4.33 -5.09 0 0 1 1 0 0 .05 16 231 1162 0 233 234 228 229 31 232 1193 0 234
 229 235 0 +1e-8 -4.33 -4.33 -5.21 0 0 1 1 0 0 .05 16 234 1161 0 236 237 231 232
 31 235 1192 0 237 232 238 0 +1e-8 -4.33 -4.33 -8.57 0 0 -1 -1 0 0 .125 16 237 1
160 0 239 240 234 235 31 238 1191 0 240 235 241 0 +1e-8 -4.33 -4.33 -7.92 0 0 -1
 -1 0 0 .125 16 240 1159 0 242 243 237 238 38 241 1190 0 243 238 244 0 +1e-8 245
 246 247 248 248 16 243 1158 0 249 250 240 241 38 244 1189 0 250 241 251 0 +1e-8
 252 246 253 254 254 51 245 1178 0 255 256 252 1 +-4.33 -4.33 -8.57 0 0 1 .5 1 0
 0 51 246 1176 0 7 252 257 2 +-4.33 -4.33 -8.07 1 0 0 .025 0 0 -1 40 20 247 0 20
 .001411669042370666 .337746570317449 ??-3.83031772603917 -4.34782203942692 -8.0
8753211084454 -3.830121349716715 -4.34101521633752 -8.09244248223877 -3.83000879
158634 -4.33296504789943 -8.09482354710661 -3.830029306712235 -4.324586511905105
 -8.09440684630686 -3.830173676835845 -4.31682249370329 -8.09124507773109 -3.830
378968225735 -4.310536582807225 -8.08568997741171 -3.83055541316877 -4.306439340
311 -8.07836034180037 -3.830625383081475 -4.30500016045103 -8.0700895685531 -3.8
3055835873622 -4.306376982162665 -8.06181751698707 -3.83038389556522 -4.31041050
818899 -8.05446771714826 -3.83017814107725 -4.31665423876255 -8.04886021151967 -
3.830031277703075 -4.324407440230185 -8.04563356252504 -3.83000776090456 -4.3327
85829199685 -8.04515570174728 -3.830117580335225 -4.34084280914203 -8.0474737155
7692 -3.83031274960559 -4.347681962370595 -8.052326624354 -3.830508110420915 -4.
352535577310455 -8.05917651833815 -3.83061781267981 -4.354848158630045 -8.067248
81612825 -3.830593732073785 -4.35435938332572 -8.07562320584638 -3.8304467173364
15 -4.351130967323685 -8.08335972379824 -3.83031772603917 -4.347822039426925 -8.
08753211084454 41 1 248 H-3.83031772603917 -4.34782203942692 -8.08753211084454 5
1 252 1177 0 258 245 246 1 +-4.33 -4.33 -8.57 0 0 1 .125 1 0 0 51 257 1175 0 259
 246 260 0 +-4.33 -4.33 -8.07 1 0 0 .025 0 0 -1 14 259 1126 0 261 262 263 7 257
 -50 260 1285 0 264 257 265 0 +-4.33 4.33 -8.57 0 0 -1 -1 0 0 14 264 1249 0 262
 266 267 7 260 +50 265 1284 0 266 260 268 0 +-4.33 4.33 -4.89 0 0 1 1 0 0 14 266
 1246 0 264 269 270 7 265 +50 268 1283 0 271 265 272 0 +-4.33 4.33 -4.99 0 0 -1
 -1 0 0 14 271 1241 0 269 273 274 7 268 -51 272 1282 0 269 268 275 0 +-4.33 4.33
 -4.99 0 0 1 .375 1 0 0 14 269 1243 0 266 271 276 7 272 -50 275 1281 0 18 272 27
7 0 +-4.33 4.33 -7.92 0 0 1 1 0 0 14 18 1235 0 273 12 278 7 275 -51 277 1280 0 2
62 275 26 1 +-4.33 4.33 -8.57 0 0 1 .5 1 0 0 14 262 1252 0 259 264 279 7 277 +51
 26 1279 0 273 277 24 1 +-4.33 4.33 -8.57 0 0 1 .125 1 0 0 14 273 1237 0 271 18
 280 7 26 -51 24 1278 0 7 26 15 2 +-4.33 4.33 -8.07 1 0 0 .025 0 0 -1 15 280 123
8 0 20 273 281 17 20 280 20 20 0 282 13 0 15 281 1239 0 283 273 284 17 283 281 2
83 283 0 285 286 0 15 284 1240 0 287 273 0 17 287 284 287 287 0 288 289 0 17 288
 290 288 288 0 287 289 0 16 289 1263 0 287 286 291 292 16 286 1262 0 285 21 289
 293 16 291 1264 0 294 289 295 296 31 292 1293 0 289 296 293 0 +1e-8 -4.33 4.33
 -8.57 0 0 -1 -1 0 0 .125 31 296 1294 0 291 297 292 0 +1e-8 -4.33 4.33 -4.99 0 0
 1 1 0 0 .375 31 293 1292 0 286 292 25 0 +1e-8 -4.33 4.33 -7.92 0 0 -1 -1 0 0 .1
25 38 25 1291 0 21 293 16 0 +1e-8 277 24 298 299 299 16 21 1261 0 300 13 286 25
 40 20 298 0 20 .001411669042370666 .337746570317449 ??-3.83031772603917 4.31217
796057308 -8.08753211084454 -3.830121349716715 4.31898478366248 -8.0924424822387
7 -3.83000879158634 4.32703495210057 -8.09482354710661 -3.830029306712235 4.3354
13488094895 -8.09440684630686 -3.830173676835845 4.34317750629671 -8.09124507773
109 -3.830378968225735 4.349463417192775 -8.08568997741171 -3.83055541316877 4.3
53560659689005 -8.07836034180037 -3.830625383081475 4.35499983954897 -8.07008956
85531 -3.83055835873622 4.353623017837335 -8.06181751698707 -3.83038389556522 4.
34958949181101 -8.05446771714826 -3.83017814107725 4.34334576123745 -8.048860211
51967 -3.830031277703075 4.33559255976982 -8.04563356252504 -3.83000776090456 4.
327214170800315 -8.04515570174728 -3.830117580335225 4.31915719085797 -8.0474737
1557692 -3.83031274960559 4.312318037629405 -8.052326624354 -3.830508110420915 4
.307464422689545 -8.05917651833815 -3.83061781267981 4.305151841369955 -8.067248
81612825 -3.830593732073785 4.305640616674285 -8.07562320584638 -3.8304467173364
15 4.308869032676315 -8.08335972379824 -3.83031772603917 4.312177960573075 -8.08
753211084454 41 1 299 H-3.83031772603917 4.31217796057308 -8.08753211084454 17 3
00 19 300 300 0 301 21 0 15 19 1233 0 300 12 302 17 301 279 301 301 0 300 21 0 1
5 279 1253 0 301 262 303 15 303 1254 0 304 262 305 17 304 303 304 304 0 306 307
 0 15 305 1255 0 308 262 0 17 308 305 308 308 0 309 310 0 17 309 311 309 309 0 3
08 310 0 16 310 1267 0 308 307 250 251 16 307 1266 0 304 295 310 312 16 250 1157
 0 313 310 243 244 31 251 1297 0 310 244 312 0 +1e-8 -4.33 4.33 -8.57 0 0 1 1 0
 0 .5 31 312 1296 0 307 251 297 0 +1e-8 -4.33 4.33 -4.89 0 0 -1 -1 0 0 .5 31 297
 1295 0 295 312 296 0 +1e-8 -4.33 4.33 -4.89 0 0 1 1 0 0 .375 16 295 1265 0 314
 291 307 297 17 314 276 314 314 0 315 295 0 15 276 1244 0 314 269 316 17 315 270
 315 315 0 314 295 0 15 270 1247 0 315 266 317 15 317 1248 0 306 266 0 17 306 31
7 306 306 0 304 307 0 15 316 1245 0 318 269 0 17 318 316 318 318 0 294 291 0 17
 294 274 294 294 0 318 291 0 15 274 1242 0 294 271 0 17 313 319 313 313 0 320 25
0 0 15 319 1132 0 313 258 321 17 320 322 320 320 0 313 250 0 15 322 1128 0 320 2
59 0 14 258 1131 0 323 261 319 7 252 -15 321 1133 0 324 258 325 17 324 321 324 3
24 0 242 240 0 15 325 1134 0 239 258 0 17 239 325 239 239 0 326 237 0 17 326 327
 326 326 0 239 237 0 15 327 1148 0 326 328 0 14 328 1146 0 255 329 330 7 331 +14
 255 1149 0 332 328 333 7 245 +14 329 1143 0 328 334 335 7 336 +15 330 1147 0 33
7 328 327 50 331 1184 0 328 338 336 0 +-4.33 -4.33 -8.57 0 0 -1 -1 0 0 51 338 10
98 0 332 339 331 0 +-4.33 -.4 -8.57 0 0 -1 .07 -1 0 0 50 336 1183 0 329 331 340
 0 +-4.33 -4.33 -4.81 0 0 1 1 0 0 52 340 1182 0 334 336 341 0 +-4.33 -4.33 -5.09
 0 0 1 .05 .713336431514775 .700821757277674 1 0 0 14 334 1140 0 329 342 343 7 3
40 -50 341 1181 0 323 340 344 0 +-4.33 -4.33 -5.21 0 0 -1 -1 0 0 14 323 1135 0 3
42 258 345 7 341 -51 344 1180 0 342 341 256 0 +-4.33 -4.33 -5.09 0 0 -1 .05 -1 0
 0 14 342 1137 0 334 323 346 7 344 -50 256 1179 0 261 344 245 0 +-4.33 -4.33 -7.
92 0 0 1 1 0 0 14 261 1129 0 258 259 347 7 256 -15 347 1130 0 242 261 0 17 242 3
47 242 242 0 324 240 0 15 346 1138 0 348 342 349 17 348 346 348 348 0 236 234 0
 15 349 1139 0 233 342 0 17 233 349 233 233 0 350 231 0 17 350 351 350 350 0 233
 231 0 15 351 1142 0 350 334 0 17 236 345 236 236 0 348 234 0 15 345 1136 0 236
 323 0 15 343 1141 0 230 334 351 17 230 343 230 230 0 352 228 0 17 352 335 352 3
52 0 230 228 0 15 335 1144 0 352 329 353 15 353 1145 0 354 329 0 17 354 353 354
 354 0 227 225 0 17 227 355 227 227 0 354 225 0 15 355 1151 0 227 255 356 15 356
 1152 0 224 255 0 17 224 356 224 224 0 357 222 0 17 357 358 357 357 0 224 222 0
 15 358 1312 0 357 359 360 14 359 413 0 361 362 363 7 364 +15 360 1118 0 365 359
 0 17 365 360 87 73 62 134 132 0 17 87 360 366 365 85 367 123 0 17 73 360 365 10
3 71 109 368 0 17 134 369 70 64 71 365 132 0 15 369 416 0 134 361 0 17 70 369 13
7 134 68 370 130 0 17 64 369 134 137 62 371 128 0 17 137 369 64 70 65 372 135 0
 17 371 373 127 367 65 64 128 0 15 373 401 0 371 374 0 17 127 373 375 371 78 67
 125 0 17 367 373 371 375 62 87 123 0 17 375 373 367 127 85 80 111 0 17 80 376 3
77 378 78 375 111 0 15 376 855 0 22 379 0 17 377 376 37 80 44 380 381 0 17 378 3
76 80 90 85 366 382 0 17 90 376 378 180 77 383 121 0 17 366 360 61 87 77 378 382
 0 16 382 133 0 366 368 384 385 16 368 140 0 73 381 382 386 16 384 102 0 387 382
 104 388 31 385 135 0 382 388 386 0 +1e-8 -28.93 0 -8.57 0 0 1 1 0 0 25.6 31 388
 104 0 384 389 385 0 +1e-8 20.27 0 -9.32 0 0 1 1 0 0 25.6 30 386 142 0 368 385 3
90 0 +1e-8 20.27 -4.5 -8.57 1 0 0 31 390 153 0 381 386 391 0 +1e-8 -28.93 0 -9.3
2 0 0 1 1 0 0 25.6 16 381 151 0 377 115 368 390 30 391 169 0 115 390 117 0 +1e-8
 20.27 4.5 -9.32 1 0 0 16 115 167 0 58 111 381 391 30 117 330 0 113 391 114 0 +1
e-8 -4.33 4.5 -8.57 1 0 0 16 113 252 0 392 119 110 117 17 392 393 394 395 50 92
 113 0 15 393 481 0 394 396 0 17 394 393 397 392 56 52 143 0 17 395 393 392 397
 81 94 119 0 17 92 360 103 398 81 392 113 0 17 103 360 73 92 95 98 104 0 17 398
 360 92 61 50 149 147 0 17 61 360 398 366 59 140 138 0 17 149 399 55 52 59 398 1
47 0 15 399 496 0 149 400 0 17 55 399 152 149 53 401 145 0 17 52 399 149 152 50
 394 143 0 17 152 399 52 55 56 402 150 0 17 402 403 76 58 53 152 150 0 15 403 74
1 0 58 404 0 17 76 403 405 402 74 406 141 0 17 58 403 402 407 56 397 115 0 17 40
7 403 58 40 88 387 384 0 17 397 393 395 394 88 58 115 0 17 40 403 407 405 38 408
 184 0 17 387 97 31 94 38 407 384 0 17 31 97 34 387 23 206 204 0 17 94 97 387 98
 88 395 119 0 17 34 97 49 31 32 200 198 0 17 206 409 408 410 38 31 204 0 15 409
 904 0 209 411 0 17 408 409 209 206 41 40 184 0 17 410 409 206 209 23 197 195 0
 17 209 409 410 408 14 43 207 0 17 197 412 203 200 14 410 195 0 15 412 898 0 203
 413 0 17 203 412 188 197 35 22 201 0 17 200 412 197 188 23 34 198 0 17 188 412
 200 203 32 414 186 0 17 414 415 194 191 35 188 186 0 15 415 900 0 194 416 0 17
 194 415 183 414 44 37 192 0 17 191 415 414 183 32 49 189 0 17 183 415 191 194 4
7 46 181 0 17 49 97 99 34 47 191 189 0 17 46 417 380 105 44 183 181 0 15 417 680
 0 372 362 0 17 380 417 67 46 78 377 381 0 17 105 417 46 84 47 99 106 0 17 84 41
7 105 372 82 108 110 0 17 372 417 84 67 68 137 135 0 17 108 107 370 100 68 84 11
0 0 15 107 406 0 370 418 0 17 370 107 109 108 71 70 130 0 17 109 107 100 370 95
 73 368 0 14 418 403 0 396 361 107 7 419 +14 396 218 0 374 418 393 7 420 +14 361
 415 0 418 359 369 7 421 +50 419 404 0 418 420 421 0 +-4.33 -4.5 -8.57 0 -1 0 0
 0 -1 50 420 301 0 396 422 419 0 +-4.33 4.5 -8.57 0 1 0 0 0 1 51 421 437 0 361 4
19 364 0 +-4.33 -4.4 -8.57 0 0 -1 .6 -1 0 0 50 364 436 0 359 421 423 0 +-4.33 -4
.4 -8.57 0 0 1 1 0 0 50 423 435 0 362 364 424 0 +-4.33 -4.4 -9.32 0 0 -1 -1 0 0
 14 362 411 0 359 404 425 7 423 +50 424 479 0 404 423 426 0 +20.27 0 -9.32 0 0 -
1 -1 0 0 14 404 478 0 362 427 428 7 424 +50 426 484 0 427 424 429 0 +-4.33 4.5 -
8.57 0 1 0 0 0 1 14 427 483 0 404 400 430 7 426 +51 429 517 0 400 426 431 0 +-4.
33 4.4 -8.57 0 0 -1 .6 -1 0 0 14 400 495 0 427 432 399 7 429 +51 431 586 0 432 4
29 433 0 +-4.33 -4.33 -9.32 0 0 1 .29 1 0 0 14 432 575 0 400 434 435 7 431 -51 4
33 652 0 434 431 436 0 +-4.33 4.33 -9.32 0 0 1 .29 1 0 0 14 434 641 0 432 437 43
8 7 433 -51 436 716 0 437 433 439 0 +-4.33 -4.33 -9.32 0 0 1 .45 1 0 0 14 437 70
1 0 434 440 441 7 436 -50 439 714 0 440 436 442 0 +-4.33 -4.33 -9.02 0 0 1 1 0 0
 14 440 691 0 437 443 444 7 439 -51 442 782 0 443 439 445 0 +-4.33 4.33 -9.32 0
 0 1 .45 1 0 0 14 443 767 0 440 446 447 7 442 -50 445 780 0 446 442 448 0 +-4.33
 4.33 -9.02 0 0 1 1 0 0 14 446 757 0 443 411 449 7 445 -50 448 984 0 411 445 450
 0 +-4.33 .61 -9.32 0 1 0 0 0 1 14 411 903 0 446 416 409 7 448 -50 450 982 0 416
 448 451 0 +-4.33 -.61 -9.32 0 -1 0 0 0 -1 14 416 899 0 411 413 415 7 450 -50 45
1 981 0 413 450 339 0 +-4.33 0 -9.07 0 0 1 1 0 0 14 413 897 0 416 452 453 7 451
 -51 339 1070 0 452 451 338 0 +-4.33 .4 -8.57 0 0 -1 .07 -1 0 0 14 452 1065 0 41
3 332 454 7 339 -14 332 1093 0 452 255 455 7 338 -15 454 1066 0 456 452 457 17 4
56 454 456 456 0 215 213 0 15 457 1067 0 212 452 0 17 212 457 212 212 0 458 210
 0 17 458 459 458 458 0 212 210 0 15 459 1050 0 458 359 311 15 311 1310 0 309 35
9 358 17 215 460 215 215 0 456 213 0 15 460 1055 0 215 413 412 15 455 1094 0 461
 332 462 17 461 455 461 461 0 221 219 0 15 462 1095 0 218 332 0 17 218 462 218 2
18 0 463 216 0 17 463 363 463 463 0 218 216 0 15 363 1078 0 463 359 459 17 221 4
53 221 221 0 461 219 0 15 453 1083 0 221 413 460 15 449 758 0 173 446 464 17 173
 449 173 173 0 465 171 0 15 464 759 0 466 446 0 17 466 464 466 466 0 170 168 0 1
7 170 438 170 170 0 466 168 0 15 438 751 0 170 434 467 15 467 642 0 158 434 0 17
 158 467 158 158 0 468 156 0 17 468 267 468 468 0 158 156 0 15 267 1250 0 468 26
4 290 15 290 1251 0 288 264 0 17 465 447 465 465 0 173 171 0 15 447 768 0 465 44
3 469 15 469 769 0 470 443 0 17 470 469 470 470 0 176 174 0 17 176 428 176 176 0
 470 174 0 15 428 1311 0 176 404 403 15 444 692 0 164 440 471 17 164 444 164 164
 0 472 162 0 15 471 693 0 473 440 0 17 473 471 473 473 0 161 159 0 17 161 435 16
1 161 0 473 159 0 15 435 685 0 161 432 474 15 474 576 0 155 432 0 17 155 474 155
 155 0 337 153 0 17 337 330 337 337 0 155 153 0 17 472 441 472 472 0 164 162 0 1
5 441 702 0 472 437 475 15 475 703 0 476 437 0 17 476 475 476 476 0 167 165 0 17
 167 425 167 167 0 476 165 0 15 425 1313 0 167 362 417 15 430 486 0 401 427 0 17
 401 430 140 406 59 55 145 0 17 140 430 383 401 77 61 138 0 17 406 430 401 383 5
3 76 141 0 17 383 430 406 140 74 90 121 0 50 422 303 0 374 477 420 0 +-4.33 -4.5
 -8.57 0 -1 0 0 0 -1 14 374 222 0 379 396 373 7 422 +51 477 181 0 379 478 422 0
 +-28.93 0 -8.57 0 0 -1 25.6 -1 0 0 14 379 180 0 102 374 376 7 477 +51 478 127 0
 102 0 477 0 +20.27 0 -8.57 0 0 -1 25.6 -1 0 0 14 102 126 0 0 379 97 7 478 +17 6
7 417 372 380 65 127 125 0 17 37 376 22 377 35 194 192 0 17 22 376 43 37 14 203
 201 0 17 43 376 180 22 41 209 207 0 17 180 376 90 43 74 405 178 0 17 405 403 40
 76 41 180 178 0 16 104 94 0 98 384 0 389 31 389 96 0 104 0 388 0 +1e-8 20.27 0
 -8.57 0 0 -1 -1 0 0 25.6 15 333 1150 0 479 255 355 17 479 333 479 479 0 249 243
 0 17 249 263 249 249 0 479 243 0 15 263 1127 0 249 259 322 15 302 1234 0 282 12
 0 17 282 302 282 282 0 20 13 0 17 285 278 285 285 0 283 286 0 15 278 1236 0 285
 18 0 40 20 253 0 20 .0014496056188993 .343739012368467 ??-4.20633130822771 -4.3
4819490795058 -8.08714483376035 -4.20553060494342 -4.341505202920815 -8.09219527
665407 -4.2050488362199 -4.33349380451632 -8.09475466279313 -4.20509304105798 -4
.32517800789541 -8.09453056037157 -4.20562838951026 -4.31748191291815 -8.0916401
824348 -4.20643852510263 -4.31109069220764 -8.08635353413834 -4.20718509338416 -
4.30672987509827 -8.07913790386565 -4.207522250834115 -4.305015985925825 -8.0708
9389078836 -4.20730772472427 -4.3060917255398 -8.06269285196977 -4.2066504996849
6 -4.309753993677025 -8.05533373844601 -4.205819865355015 -4.315706849208345 -8.
04948888495359 -4.20517665097188 -4.323356842813565 -8.04589878711358 -4.2050114
4952049 -4.331691818261815 -8.04505731067088 -4.205377647883915 -4.3397092406013
3 -8.04696240796122 -4.206117516551675 -4.34667723882047 -8.05137556161048 -4.20
693304810916 -4.35189806731877 -8.0579387128505 -4.207457631114975 -4.3546651135
8269 -8.06592174400594 -4.20745174053664 -4.35463582964913 -8.0742515758842 -4.2
06938229902055 -4.351927169000145 -8.08200829961481 -4.20633130822771 -4.3481949
0795058 -8.08714483376035 41 1 254 H-4.20633130822771 -4.34819490795058 -8.08714
483376035 40 20 27 0 20 .0014496056188993 .343739012368467 ??-4.20633130822771 4
.31180509204942 -8.08714483376035 -4.20553060494342 4.318494797079185 -8.0921952
7665407 -4.2050488362199 4.32650619548368 -8.09475466279313 -4.20509304105798 4.
33482199210459 -8.09453056037157 -4.20562838951026 4.34251808708185 -8.091640182
4348 -4.20643852510263 4.34890930779236 -8.08635353413834 -4.20718509338416 4.35
327012490173 -8.07913790386565 -4.207522250834115 4.354984014074175 -8.070893890
78836 -4.20730772472427 4.3539082744602 -8.06269285196977 -4.20665049968496 4.35
0246006322975 -8.05533373844601 -4.205819865355015 4.344293150791655 -8.04948888
495359 -4.20517665097188 4.336643157186435 -8.04589878711358 -4.20501144952049 4
.328308181738185 -8.04505731067088 -4.205377647883915 4.32029075939867 -8.046962
40796122 -4.206117516551675 4.31332276117953 -8.05137556161048 -4.20693304810916
 4.30810193268123 -8.0579387128505 -4.207457631114975 4.30533488641731 -8.065921
74400594 -4.20745174053664 4.30536417035087 -8.0742515758842 -4.206938229902055
 4.308072830999855 -8.08200829961481 -4.20633130822771 4.31180509204942 -8.08714
483376035 41 1 28 H-4.20633130822771 4.31180509204942 -8.08714483376035 74 20 11
 1 0 2 0 0 0 0 0 0 0 0 0 0 0 0 0 0 0 0 0 0 0 80 2 8 480 8004 481 0 0 0 0 3 5 0 0
 FFTFFFFFFFFF2 3 83 1 9 .28 84 7 10 density79 16 481 SDL/TYSA_DENSITY1 0 
