600 0 1 0           
83 GICL ACIS Healer - Source: /gicl/data5/repository/UMD/AES94-die/AES94-die.sat - 6 0 18 ACIS 6.0.3 Solaris 24 Sun Apr 14 00:35:01 2002 
1 9.999999999999999547e-07 1.000000000000000036e-10 
body $1 $2 $-1 $-1 #
f_body-rbase-attrib $-1 $-1 $-1 $0 #
lump $-1 $-1 $3 $0 #
shell $-1 $-1 $-1 $4 $-1 $2 #
face $5 $6 $7 $3 $-1 $8 forward single #
fface-rbase-attrib $-1 $-1 $-1 $4 #
face $9 $10 $11 $3 $-1 $12 forward single #
loop $-1 $-1 $13 $4 #
plane-surface $-1 20 45 2.5 0 0 1 0.7071067811865460184 0.707106781186549016 0 forward_v I I I I #
fface-rbase-attrib $-1 $-1 $-1 $6 #
face $14 $15 $16 $3 $-1 $17 reversed single #
loop $-1 $-1 $18 $6 #
plane-surface $-1 14.69669914110090048 39.69669914110090048 5 0.7071067811865460184 0.707106781186549016 0 0 0 -1 forward_v I I I I #
coedge $19 $20 $21 $22 $23 reversed $7 $-1 #
fface-rbase-attrib $-1 $-1 $-1 $10 #
face $24 $25 $26 $3 $-1 $27 forward single #
loop $-1 $-1 $28 $10 #
plane-surface $-1 0 45 0 0 -1 0 0 0 -1 forward_v I I I I #
coedge $29 $30 $31 $28 $32 reversed $11 $-1 #
copar-rbase-attrib $-1 $-1 $-1 $13 #
coedge $33 $21 $13 $31 $34 reversed $7 $-1 #
coedge $35 $13 $20 $36 $37 reversed $7 $-1 #
coedge $38 $39 $28 $13 $23 forward $16 $-1 #
edge $40 $41 -0.6066017177982097053 $42 10 $22 $43 forward 7 unknown #
fface-rbase-attrib $-1 $-1 $-1 $15 #
face $44 $45 $46 $3 $-1 $47 forward single #
loop $-1 $-1 $48 $15 #
plane-surface $-1 20 -45 2.5 0 0 1 0.7071067811865460184 0.707106781186549016 0 forward_v I I I I #
coedge $49 $22 $50 $18 $32 forward $16 $-1 #
copar-rbase-attrib $-1 $-1 $-1 $18 #
coedge $51 $52 $18 $53 $54 reversed $11 $-1 #
coedge $55 $18 $52 $20 $34 forward $11 $-1 #
edge $56 $57 -5 $41 0 $28 $58 forward 7 unknown #
copar-rbase-attrib $-1 $-1 $-1 $20 #
edge $59 $60 -7.49999999999999023 $41 7.499999999999998224 $31 $61 forward 7 unknown #
copar-rbase-attrib $-1 $-1 $-1 $21 #
coedge $62 $63 $64 $21 $37 forward $65 $-1 #
edge $66 $42 -22.5 $60 -11.89339828220180095 $36 $67 forward 7 unknown #
copar-rbase-attrib $-1 $-1 $-1 $22 #
coedge $68 $69 $22 $64 $70 forward $16 $-1 #
epar-rbase-attrib $-1 $-1 $-1 $23 #
vertex $-1 $23 $71 #
vertex $-1 $37 $72 #
straight-curve $-1 10 45 2.5 1 0 -0 I I #
fface-rbase-attrib $-1 $-1 $-1 $25 #
face $73 $74 $75 $3 $-1 $76 forward single #
loop $-1 $-1 $77 $25 #
plane-surface $-1 14.69669914110090048 -39.69669914110090048 5 0.707106781186549016 -0.7071067811865460184 0 0 0 -1 forward_v I I I I #
coedge $78 $79 $80 $81 $82 reversed $26 $-1 #
copar-rbase-attrib $-1 $-1 $-1 $28 #
coedge $83 $28 $84 $85 $86 reversed $16 $-1 #
copar-rbase-attrib $-1 $-1 $-1 $30 #
coedge $87 $31 $30 $63 $88 reversed $11 $-1 #
coedge $89 $85 $90 $30 $54 forward $75 $-1 #
edge $91 $92 1.338834764831853708 $57 16.33883476483184083 $53 $93 forward 7 unknown #
copar-rbase-attrib $-1 $-1 $-1 $31 #
epar-rbase-attrib $-1 $-1 $-1 $32 #
vertex $-1 $32 $94 #
straight-curve $-1 9.393398282201760097 45 2.5 0 0 -1 I I #
epar-rbase-attrib $-1 $-1 $-1 $34 #
vertex $-1 $37 $95 #
straight-curve $-1 14.69669914110090048 39.69669914110090048 2.5 -0.707106781186549016 0.7071067811865460184 0 I I #
copar-rbase-attrib $-1 $-1 $-1 $36 #
coedge $96 $97 $36 $52 $88 forward $65 $-1 #
coedge $98 $36 $99 $39 $70 reversed $65 $-1 #
loop $-1 $-1 $63 $100 #
epar-rbase-attrib $-1 $-1 $-1 $37 #
straight-curve $-1 20 22.5 2.5 0 -1 0 I I #
copar-rbase-attrib $-1 $-1 $-1 $39 #
coedge $101 $102 $39 $103 $104 reversed $16 $-1 #
edge $105 $42 -2.5 $106 7.5 $64 $107 forward 7 unknown #
point $-1 9.393398282201790295 45 2.5 #
point $-1 20 45 2.5 #
fface-rbase-attrib $-1 $-1 $-1 $45 #
face $108 $109 $110 $3 $-1 $111 reversed single #
loop $-1 $-1 $53 $45 #
plane-surface $-1 0 0 7.5 0 0 1 1 0 0 forward_v I I I I #
coedge $112 $113 $114 $115 $116 reversed $46 $-1 #
copar-rbase-attrib $-1 $-1 $-1 $48 #
coedge $117 $80 $48 $118 $119 reversed $26 $-1 #
coedge $120 $48 $79 $114 $121 reversed $26 $-1 #
coedge $122 $123 $124 $48 $82 forward $125 $-1 #
edge $126 $127 -10 $128 0.6066017177982097053 $81 $129 forward 7 unknown #
copar-rbase-attrib $-1 $-1 $-1 $50 #
coedge $130 $50 $131 $132 $133 forward $16 $-1 #
coedge $134 $135 $53 $50 $86 forward $75 $-1 #
edge $136 $57 -9.393398282201790295 $137 5 $50 $138 forward 7 unknown #
copar-rbase-attrib $-1 $-1 $-1 $52 #
edge $139 $60 0 $92 5 $63 $140 forward 7 unknown #
copar-rbase-attrib $-1 $-1 $-1 $53 #
coedge $141 $53 $142 $97 $143 forward $75 $-1 #
epar-rbase-attrib $-1 $-1 $-1 $54 #
vertex $-1 $143 $144 #
straight-curve $-1 20.94669914110090048 33.44669914110090048 7.5 -0.707106781186549016 0.7071067811865460184 0 I I #
point $-1 9.393398282201790295 45 7.5 #
point $-1 20 34.39339828220180095 2.5 #
copar-rbase-attrib $-1 $-1 $-1 $63 #
coedge $145 $146 $63 $90 $143 reversed $65 $-1 #
copar-rbase-attrib $-1 $-1 $-1 $64 #
coedge $147 $64 $146 $148 $149 reversed $65 $-1 #
face $150 $151 $65 $3 $-1 $111 reversed single #
copar-rbase-attrib $-1 $-1 $-1 $69 #
coedge $152 $153 $69 $154 $155 reversed $16 $-1 #
coedge $156 $148 $157 $69 $104 forward $158 $-1 #
edge $159 $160 -20 $106 20 $69 $161 forward 7 unknown #
epar-rbase-attrib $-1 $-1 $-1 $70 #
vertex $-1 $149 $162 #
straight-curve $-1 20 45 0 0 0 -1 I I #
fface-rbase-attrib $-1 $-1 $-1 $74 #
face $163 $164 $165 $3 $-1 $166 forward single #
loop $-1 $167 $115 $74 #
plane-surface $-1 20 0 0 -1 0 0 0 -0 1 forward_v I I I I #
copar-rbase-attrib $-1 $-1 $-1 $77 #
coedge $168 $169 $77 $170 $171 reversed $46 $-1 #
coedge $172 $77 $169 $80 $121 forward $46 $-1 #
coedge $173 $118 $174 $77 $116 forward $110 $-1 #
edge $175 $176 -5 $177 -0 $115 $178 forward 7 unknown #
copar-rbase-attrib $-1 $-1 $-1 $79 #
coedge $179 $180 $115 $79 $119 forward $110 $-1 #
edge $181 $177 11.89339828220180095 $127 22.5 $118 $182 forward 7 unknown #
copar-rbase-attrib $-1 $-1 $-1 $80 #
edge $183 $128 -7.499999999999998224 $177 7.49999999999999023 $114 $184 forward 7 unknown #
copar-rbase-attrib $-1 $-1 $-1 $81 #
coedge $185 $186 $81 $169 $187 forward $125 $-1 #
coedge $188 $81 $189 $180 $190 reversed $125 $-1 #
loop $-1 $-1 $123 $191 #
epar-rbase-attrib $-1 $-1 $-1 $82 #
vertex $-1 $119 $192 #
vertex $-1 $82 $193 #
straight-curve $-1 10 -45 2.5 -1 0 0 I I #
copar-rbase-attrib $-1 $-1 $-1 $84 #
coedge $194 $84 $195 $196 $197 forward $16 $-1 #
coedge $198 $199 $200 $84 $133 reversed $201 $-1 #
edge $202 $203 -3.75 $137 6.25 $84 $204 forward 7 unknown #
copar-rbase-attrib $-1 $-1 $-1 $85 #
coedge $205 $206 $85 $200 $207 forward $75 $-1 #
epar-rbase-attrib $-1 $-1 $-1 $86 #
vertex $-1 $86 $208 #
straight-curve $-1 0 45 7.5 -1 0 0 I I #
epar-rbase-attrib $-1 $-1 $-1 $88 #
straight-curve $-1 20 34.39339828220180095 2.5 0 0 1 I I #
copar-rbase-attrib $-1 $-1 $-1 $90 #
coedge $209 $90 $210 $211 $212 forward $75 $-1 #
edge $213 $214 25 $92 34.39339828220180095 $97 $215 forward 7 unknown #
point $-1 20 34.39339828220180095 7.5 #
copar-rbase-attrib $-1 $-1 $-1 $97 #
coedge $216 $99 $97 $217 $218 forward $65 $-1 #
copar-rbase-attrib $-1 $-1 $-1 $99 #
coedge $219 $220 $103 $99 $149 forward $158 $-1 #
edge $221 $106 -45 $222 -25 $99 $223 forward 7 unknown #
fface-rbase-attrib $-1 $-1 $-1 $100 #
face $224 $225 $226 $3 $-1 $227 reversed single #
copar-rbase-attrib $-1 $-1 $-1 $102 #
coedge $228 $195 $102 $229 $230 forward $16 $-1 #
coedge $231 $232 $233 $102 $155 forward $234 $-1 #
edge $235 $236 -2.5 $160 7.5 $102 $237 forward 7 unknown #
copar-rbase-attrib $-1 $-1 $-1 $103 #
coedge $238 $103 $239 $232 $240 forward $158 $-1 #
loop $-1 $-1 $241 $242 #
epar-rbase-attrib $-1 $-1 $-1 $104 #
vertex $-1 $104 $243 #
straight-curve $-1 0 45 -7.5 1 0 0 I I #
point $-1 20 45 -7.5 #
fface-rbase-attrib $-1 $-1 $-1 $109 #
face $244 $242 $245 $3 $-1 $246 forward single #
loop $-1 $-1 $247 $109 #
plane-surface $-1 15 20 0 0 1 0 0 0 1 forward_v I I I I #
loop $-1 $248 $249 $74 #
copar-rbase-attrib $-1 $-1 $-1 $113 #
coedge $250 $114 $113 $123 $187 reversed $46 $-1 #
coedge $251 $252 $253 $113 $171 forward $75 $-1 #
edge $254 $255 -16.33883476483184438 $176 -1.338834764831853708 $170 $256 forward 7 unknown #
copar-rbase-attrib $-1 $-1 $-1 $114 #
copar-rbase-attrib $-1 $-1 $-1 $115 #
coedge $257 $115 $258 $252 $259 reversed $110 $-1 #
epar-rbase-attrib $-1 $-1 $-1 $116 #
vertex $-1 $116 $260 #
vertex $-1 $119 $261 #
straight-curve $-1 20 -34.39339828220180095 2.5 -0 -0 -1 I I #
copar-rbase-attrib $-1 $-1 $-1 $118 #
coedge $262 $263 $118 $124 $190 forward $110 $-1 #
epar-rbase-attrib $-1 $-1 $-1 $119 #
straight-curve $-1 20 -22.5 2.5 0 -1 0 I I #
epar-rbase-attrib $-1 $-1 $-1 $121 #
straight-curve $-1 14.69669914110090048 -39.69669914110090048 2.5 0.7071067811865460184 0.707106781186549016 0 I I #
copar-rbase-attrib $-1 $-1 $-1 $123 #
coedge $264 $265 $123 $253 $266 reversed $125 $-1 #
edge $267 $128 0 $255 5 $123 $268 forward 7 unknown #
copar-rbase-attrib $-1 $-1 $-1 $124 #
coedge $269 $124 $270 $239 $271 reversed $125 $-1 #
edge $272 $127 -2.5 $273 7.5 $180 $274 forward 7 unknown #
face $275 $276 $125 $3 $-1 $277 reversed single #
point $-1 20 -45 2.5 #
point $-1 9.393398282201790295 -45 2.5 #
copar-rbase-attrib $-1 $-1 $-1 $131 #
coedge $278 $131 $153 $279 $280 forward $16 $-1 #
coedge $281 $282 $283 $131 $197 reversed $284 $-1 #
edge $285 $286 -10 $203 0 $131 $287 forward 7 unknown #
copar-rbase-attrib $-1 $-1 $-1 $132 #
coedge $288 $289 $132 $283 $290 forward $201 $-1 #
coedge $291 $132 $289 $135 $207 reversed $201 $-1 #
loop $-1 $-1 $289 $292 #
epar-rbase-attrib $-1 $-1 $-1 $133 #
vertex $-1 $197 $293 #
straight-curve $-1 -5 45 1.25 0 0 1 I I #
copar-rbase-attrib $-1 $-1 $-1 $135 #
coedge $294 $295 $135 $296 $297 forward $75 $-1 #
edge $298 $137 -30 $299 0 $135 $300 forward 7 unknown #
point $-1 -5 45 7.5 #
copar-rbase-attrib $-1 $-1 $-1 $142 #
coedge $301 $142 $302 $303 $304 forward $75 $-1 #
coedge $305 $306 $217 $142 $212 reversed $245 $-1 #
edge $307 $308 6.830127018922199866 $214 12.5 $142 $309 forward 7 unknown #
epar-rbase-attrib $-1 $-1 $-1 $143 #
vertex $-1 $218 $310 #
straight-curve $-1 20 0 7.5 0 1 0 I I #
copar-rbase-attrib $-1 $-1 $-1 $146 #
coedge $311 $211 $312 $146 $218 reversed $245 $-1 #
edge $313 $214 -7.5 $222 7.5 $146 $314 forward 7 unknown #
copar-rbase-attrib $-1 $-1 $-1 $148 #
coedge $315 $316 $148 $312 $317 forward $158 $-1 #
epar-rbase-attrib $-1 $-1 $-1 $149 #
vertex $-1 $149 $318 #
straight-curve $-1 20 0 -7.5 0 -1 0 I I #
fface-rbase-attrib $-1 $-1 $-1 $151 #
face $319 $320 $321 $3 $-1 $322 reversed single #
loop $-1 $-1 $323 $151 #
cone-surface $-1 10 22.5 0 0 0 1 5 0 0 1 I I 0 1 5 forward I I I I #
copar-rbase-attrib $-1 $-1 $-1 $153 #
coedge $324 $325 $326 $153 $230 reversed $327 $-1 #
edge $328 $236 -11.25 $329 -6.25 $153 $330 forward 7 unknown #
copar-rbase-attrib $-1 $-1 $-1 $154 #
coedge $331 $332 $154 $157 $240 reversed $234 $-1 #
coedge $333 $154 $332 $325 $334 forward $234 $-1 #
loop $-1 $-1 $233 $276 #
epar-rbase-attrib $-1 $-1 $-1 $155 #
vertex $-1 $334 $335 #
straight-curve $-1 -20 45 0 0 0 -1 I I #
copar-rbase-attrib $-1 $-1 $-1 $157 #
coedge $336 $157 $337 $189 $271 forward $158 $-1 #
edge $338 $339 -45 $160 45 $232 $340 forward 7 unknown #
coedge $341 $342 $316 $343 $344 forward $158 $-1 #
face $345 $346 $158 $3 $-1 $347 reversed single #
point $-1 -20 45 -7.5 #
fface-rbase-attrib $-1 $-1 $-1 $164 #
loop $-1 $-1 $306 $164 #
plane-surface $-1 15 25 0 0 -1 0 0 0 -1 forward_v I I I I #
coedge $348 $349 $343 $350 $351 reversed $165 $-1 #
loop $-1 $-1 $352 $74 #
coedge $353 $249 $249 $354 $355 forward $167 $-1 #
copar-rbase-attrib $-1 $-1 $-1 $169 #
copar-rbase-attrib $-1 $-1 $-1 $170 #
coedge $356 $357 $170 $174 $259 forward $75 $-1 #
coedge $358 $170 $359 $186 $266 forward $75 $-1 #
epar-rbase-attrib $-1 $-1 $-1 $171 #
vertex $-1 $266 $360 #
straight-curve $-1 20.94669914110090048 -33.44669914110090048 7.5 0.7071067811865460184 0.707106781186549016 -0 I I #
copar-rbase-attrib $-1 $-1 $-1 $174 #
coedge $361 $174 $263 $362 $363 forward $110 $-1 #
edge $364 $176 -34.39339828220180095 $365 -10 $174 $215 forward 7 unknown #
point $-1 20 -34.39339828220180095 7.5 #
point $-1 20 -34.39339828220180095 2.5 #
copar-rbase-attrib $-1 $-1 $-1 $180 #
coedge $366 $258 $180 $337 $367 reversed $110 $-1 #
copar-rbase-attrib $-1 $-1 $-1 $186 #
coedge $368 $369 $186 $370 $371 forward $125 $-1 #
edge $372 $373 -5 $255 9.393398282201790295 $186 $374 forward 7 unknown #
epar-rbase-attrib $-1 $-1 $-1 $187 #
straight-curve $-1 9.393398282201760097 -45 2.5 -0 0 1 I I #
copar-rbase-attrib $-1 $-1 $-1 $189 #
coedge $375 $189 $376 $332 $377 forward $125 $-1 #
edge $378 $273 -20 $339 20 $189 $379 forward 7 unknown #
epar-rbase-attrib $-1 $-1 $-1 $190 #
vertex $-1 $190 $380 #
straight-curve $-1 20 -45 0 0 0 -1 I I #
fface-rbase-attrib $-1 $-1 $-1 $191 #
face $381 $-1 $234 $3 $-1 $382 reversed single #
plane-surface $-1 0 -45 0 0 1 -0 -0 0 1 forward_v I I I I #
copar-rbase-attrib $-1 $-1 $-1 $195 #
coedge $383 $384 $385 $195 $280 reversed $386 $-1 #
edge $387 $329 -1.25 $286 3.75 $195 $388 forward 7 unknown #
copar-rbase-attrib $-1 $-1 $-1 $196 #
coedge $389 $390 $196 $385 $391 reversed $284 $-1 #
coedge $392 $196 $390 $199 $290 reversed $284 $-1 #
loop $-1 $-1 $283 $393 #
epar-rbase-attrib $-1 $-1 $-1 $197 #
vertex $-1 $197 $394 #
straight-curve $-1 -5 45 -2.5 1 0 -0 I I #
copar-rbase-attrib $-1 $-1 $-1 $199 #
coedge $395 $200 $199 $396 $397 forward $201 $-1 #
edge $398 $203 -15 $399 15 $199 $400 forward 7 unknown #
copar-rbase-attrib $-1 $-1 $-1 $200 #
face $401 $402 $201 $3 $-1 $403 forward single #
point $-1 -5 45 -2.5 #
copar-rbase-attrib $-1 $-1 $-1 $206 #
coedge $404 $405 $206 $406 $407 forward $75 $-1 #
coedge $408 $396 $409 $206 $297 reversed $410 $-1 #
edge $411 $299 0 $412 3.141592653589793116 $206 $413 forward 7 unknown #
epar-rbase-attrib $-1 $-1 $-1 $207 #
vertex $-1 $297 $414 #
straight-curve $-1 -5 15 7.5 0 -1 0 I I #
copar-rbase-attrib $-1 $-1 $-1 $210 #
coedge $415 $210 $416 $349 $417 forward $75 $-1 #
coedge $418 $350 $323 $210 $304 reversed $226 $-1 #
edge $419 $420 0.5235987755982982605 $308 5.759586531581287971 $210 $421 forward 7 unknown #
copar-rbase-attrib $-1 $-1 $-1 $211 #
coedge $422 $312 $211 $323 $423 reversed $245 $-1 #
epar-rbase-attrib $-1 $-1 $-1 $212 #
vertex $-1 $304 $424 #
straight-curve $-1 7.5 25 7.5 1 0 -0 I I #
point $-1 20 25 7.5 #
copar-rbase-attrib $-1 $-1 $-1 $217 #
coedge $425 $217 $306 $220 $317 reversed $245 $-1 #
epar-rbase-attrib $-1 $-1 $-1 $218 #
straight-curve $-1 20 25 0 -0 -0 -1 I I #
copar-rbase-attrib $-1 $-1 $-1 $220 #
coedge $426 $241 $220 $427 $428 forward $158 $-1 #
edge $429 $222 -12.5 $430 -6.830127018922199866 $220 $431 forward 7 unknown #
point $-1 20 25 -7.5 #
fface-rbase-attrib $-1 $-1 $-1 $225 #
face $432 $433 $434 $3 $-1 $435 forward single #
loop $-1 $436 $437 $225 #
cone-surface $-1 7.5 -30 0 1 0 -3.491481338843129805e-15 -8.728703347107830233e-15 0 -2.5 1 I I 0 1 2.5 forward I I I I #
coedge $438 $303 $427 $306 $423 forward $226 $-1 #
copar-rbase-attrib $-1 $-1 $-1 $229 #
coedge $439 $440 $229 $233 $334 reversed $327 $-1 #
coedge $441 $229 $442 $384 $443 forward $327 $-1 #
loop $-1 $-1 $326 $444 #
epar-rbase-attrib $-1 $-1 $-1 $230 #
vertex $-1 $230 $445 #
straight-curve $-1 -8.75 45 2.5 1 0 -0 I I #
copar-rbase-attrib $-1 $-1 $-1 $232 #
coedge $446 $233 $232 $270 $377 reversed $234 $-1 #
copar-rbase-attrib $-1 $-1 $-1 $233 #
edge $447 $448 -45 $236 45 $233 $449 forward 7 unknown #
point $-1 -20 45 2.5 #
copar-rbase-attrib $-1 $-1 $-1 $239 #
coedge $450 $239 $451 $263 $367 forward $158 $-1 #
epar-rbase-attrib $-1 $-1 $-1 $240 #
vertex $-1 $240 $452 #
straight-curve $-1 -20 0 -7.5 0 1 0 I I #
copar-rbase-attrib $-1 $-1 $-1 $241 #
coedge $453 $454 $241 $455 $456 forward $158 $-1 #
coedge $457 $247 $458 $241 $344 reversed $165 $-1 #
edge $459 $460 6.830127018922199866 $461 12.5 $241 $462 forward 7 unknown #
fface-rbase-attrib $-1 $-1 $-1 $242 #
face $463 $100 $464 $3 $-1 $111 reversed single #
plane-surface $-1 0 0 -7.5 0 0 1 1 0 0 forward_v I I I I #
copar-rbase-attrib $-1 $-1 $-1 $247 #
coedge $465 $458 $247 $302 $417 reversed $165 $-1 #
coedge $466 $427 $303 $247 $351 forward $226 $-1 #
edge $467 $420 -7.5 $460 7.5 $350 $468 forward 7 unknown #
coedge $469 $352 $352 $470 $471 forward $248 $-1 #
copar-rbase-attrib $-1 $-1 $-1 $249 #
coedge $472 $354 $354 $249 $355 reversed $473 $-1 #
edge $474 $475 -0 $475 6.283185307179586232 $249 $476 forward 7 unknown #
copar-rbase-attrib $-1 $-1 $-1 $252 #
coedge $477 $478 $252 $479 $480 forward $75 $-1 #
copar-rbase-attrib $-1 $-1 $-1 $253 #
coedge $481 $253 $405 $482 $483 forward $75 $-1 #
point $-1 9.393398282201790295 -45 7.5 #
copar-rbase-attrib $-1 $-1 $-1 $258 #
coedge $484 $485 $479 $258 $363 reversed $486 $-1 #
edge $487 $488 -7.5 $365 7.5 $258 $489 forward 7 unknown #
epar-rbase-attrib $-1 $-1 $-1 $259 #
vertex $-1 $259 $490 #
copar-rbase-attrib $-1 $-1 $-1 $263 #
edge $491 $488 10 $273 45 $263 $223 forward 7 unknown #
copar-rbase-attrib $-1 $-1 $-1 $265 #
coedge $492 $493 $265 $494 $495 forward $125 $-1 #
coedge $496 $482 $497 $265 $371 reversed $434 $-1 #
edge $498 $373 -6.25 $499 3.75 $265 $500 forward 7 unknown #
epar-rbase-attrib $-1 $-1 $-1 $266 #
vertex $-1 $371 $501 #
straight-curve $-1 0 -45 7.5 1 0 0 I I #
copar-rbase-attrib $-1 $-1 $-1 $270 #
coedge $502 $270 $493 $440 $503 forward $125 $-1 #
edge $504 $448 -2.5 $339 7.5 $332 $505 forward 7 unknown #
epar-rbase-attrib $-1 $-1 $-1 $271 #
straight-curve $-1 0 -45 -7.5 -1 0 0 I I #
point $-1 20 -45 -7.5 #
fface-rbase-attrib $-1 $-1 $-1 $276 #
plane-surface $-1 -20 0 0 1 0 0 0 0 -1 forward_v I I I I #
copar-rbase-attrib $-1 $-1 $-1 $279 #
coedge $506 $507 $279 $326 $443 reversed $386 $-1 #
coedge $508 $279 $507 $282 $391 forward $386 $-1 #
loop $-1 $-1 $384 $509 #
epar-rbase-attrib $-1 $-1 $-1 $280 #
straight-curve $-1 -15 45 1.25 0 0 -1 I I #
copar-rbase-attrib $-1 $-1 $-1 $282 #
coedge $510 $283 $282 $511 $512 reversed $284 $-1 #
edge $513 $514 -15 $286 15 $385 $515 forward 7 unknown #
copar-rbase-attrib $-1 $-1 $-1 $283 #
face $516 $517 $284 $3 $-1 $518 forward single #
point $-1 -15 45 -2.5 #
copar-rbase-attrib $-1 $-1 $-1 $289 #
coedge $519 $511 $296 $289 $397 reversed $410 $-1 #
edge $520 $399 -5 $299 5 $289 $521 reversed 7 unknown #
epar-rbase-attrib $-1 $-1 $-1 $290 #
vertex $-1 $397 $522 #
straight-curve $-1 -5 30 -2.5 0 -1 0 I I #
fface-rbase-attrib $-1 $-1 $-1 $292 #
face $523 $524 $525 $3 $-1 $526 forward single #
plane-surface $-1 -5 30 2.5 -1 0 0 0 0 1 forward_v I I I I #
copar-rbase-attrib $-1 $-1 $-1 $295 #
coedge $527 $359 $295 $528 $529 forward $75 $-1 #
coedge $530 $531 $532 $295 $407 reversed $525 $-1 #
edge $533 $412 -15 $534 15 $295 $535 forward 7 unknown #
copar-rbase-attrib $-1 $-1 $-1 $296 #
coedge $536 $296 $537 $531 $538 reversed $410 $-1 #
loop $-1 $-1 $396 $539 #
epar-rbase-attrib $-1 $-1 $-1 $297 #
vertex $-1 $538 $540 #
ellipse-curve $-1 -10 15 7.5 -0 -0 -1 5 0 0 1 I I #
point $-1 -5 15 7.5 #
copar-rbase-attrib $-1 $-1 $-1 $302 #
coedge $541 $302 $542 $543 $544 forward $75 $-1 #
edge $545 $546 -12.5 $420 -6.830127018922199866 $302 $547 forward 7 unknown #
copar-rbase-attrib $-1 $-1 $-1 $303 #
epar-rbase-attrib $-1 $-1 $-1 $304 #
vertex $-1 $417 $548 #
ellipse-curve $-1 10 22.5 7.5 -0 -0 -1 5 0 0 1 I I #
copar-rbase-attrib $-1 $-1 $-1 $306 #
edge $549 $430 -7.5 $308 7.5 $323 $550 forward 7 unknown #
point $-1 14.33012701892219987 25 7.5 #
copar-rbase-attrib $-1 $-1 $-1 $312 #
copar-rbase-attrib $-1 $-1 $-1 $316 #
coedge $551 $323 $350 $316 $428 reversed $226 $-1 #
edge $552 $430 0.5235987755982982605 $460 5.759586531581287971 $316 $553 forward 7 unknown #
epar-rbase-attrib $-1 $-1 $-1 $317 #
vertex $-1 $317 $554 #
straight-curve $-1 7.5 25 -7.5 -1 0 0 I I #
fface-rbase-attrib $-1 $-1 $-1 $320 #
face $555 $556 $557 $3 $-1 $558 reversed single #
loop $-1 $-1 $370 $320 #
plane-surface $-1 -5 -30 2.5 -1 0 0 0 0 1 forward_v I I I I #
loop $-1 $-1 $470 $225 #
coedge $559 $437 $437 $560 $561 reversed $321 $-1 #
copar-rbase-attrib $-1 $-1 $-1 $323 #
copar-rbase-attrib $-1 $-1 $-1 $325 #
coedge $562 $563 $325 $376 $503 reversed $327 $-1 #
copar-rbase-attrib $-1 $-1 $-1 $326 #
coedge $564 $326 $563 $565 $566 reversed $327 $-1 #
edge $567 $568 15 $329 45 $326 $569 reversed 7 unknown #
face $570 $191 $327 $3 $-1 $571 forward single #
point $-1 -15 45 2.5 #
copar-rbase-attrib $-1 $-1 $-1 $332 #
epar-rbase-attrib $-1 $-1 $-1 $334 #
vertex $-1 $503 $572 #
straight-curve $-1 -20 0 2.5 0 1 0 I I #
copar-rbase-attrib $-1 $-1 $-1 $337 #
coedge $573 $337 $574 $485 $575 forward $158 $-1 #
point $-1 -20 -45 -7.5 #
copar-rbase-attrib $-1 $-1 $-1 $342 #
coedge $576 $577 $342 $578 $579 forward $158 $-1 #
coedge $580 $581 $582 $342 $456 reversed $464 $-1 #
edge $583 $461 -20 $584 -10 $455 $223 forward 7 unknown #
copar-rbase-attrib $-1 $-1 $-1 $343 #
coedge $585 $343 $349 $581 $586 reversed $165 $-1 #
epar-rbase-attrib $-1 $-1 $-1 $344 #
vertex $-1 $428 $587 #
vertex $-1 $586 $588 #
straight-curve $-1 7.5 20 -7.5 1 0 0 I I #
fface-rbase-attrib $-1 $-1 $-1 $346 #
loop $-1 $-1 $581 $346 #
copar-rbase-attrib $-1 $-1 $-1 $349 #
copar-rbase-attrib $-1 $-1 $-1 $350 #
epar-rbase-attrib $-1 $-1 $-1 $351 #
straight-curve $-1 14.33012701892219987 20 0 -0 0 -1 I I #
copar-rbase-attrib $-1 $-1 $-1 $352 #
coedge $589 $470 $470 $352 $471 reversed $436 $-1 #
edge $590 $591 -0 $591 6.283185307179586232 $352 $592 forward 7 unknown #
copar-rbase-attrib $-1 $-1 $-1 $354 #
loop $-1 $-1 $354 $433 #
epar-rbase-attrib $-1 $-1 $-1 $355 #
vertex $-1 $355 $593 #
ellipse-curve $-1 20 -20 -4.36435167355391985e-14 -1 0 0 -8.728703347107830233e-15 0 -2.5 1 I I #
copar-rbase-attrib $-1 $-1 $-1 $357 #
coedge $594 $595 $357 $596 $597 forward $75 $-1 #
coedge $598 $362 $599 $357 $480 reversed $486 $-1 #
edge $600 $365 -12.5 $601 -5 $357 $602 forward 7 unknown #
copar-rbase-attrib $-1 $-1 $-1 $359 #
coedge $603 $604 $370 $359 $483 reversed $434 $-1 #
edge $605 $606 0 $373 30 $359 $607 forward 7 unknown #
copar-rbase-attrib $-1 $-1 $-1 $362 #
coedge $608 $599 $362 $451 $575 reversed $486 $-1 #
loop $-1 $-1 $599 $609 #
epar-rbase-attrib $-1 $-1 $-1 $363 #
vertex $-1 $363 $610 #
straight-curve $-1 20 -10 0 0 -0 1 I I #
point $-1 20 -10 7.5 #
epar-rbase-attrib $-1 $-1 $-1 $367 #
copar-rbase-attrib $-1 $-1 $-1 $369 #
coedge $611 $376 $369 $612 $613 forward $125 $-1 #
coedge $614 $615 $616 $369 $495 reversed $617 $-1 #
edge $618 $499 0 $619 10 $369 $620 forward 7 unknown #
copar-rbase-attrib $-1 $-1 $-1 $370 #
coedge $621 $370 $560 $615 $622 forward $434 $-1 #
epar-rbase-attrib $-1 $-1 $-1 $371 #
vertex $-1 $495 $623 #
straight-curve $-1 -5 -45 1.25 -0 0 -1 I I #
point $-1 -5 -45 7.5 #
copar-rbase-attrib $-1 $-1 $-1 $376 #
edge $624 $625 6.25 $448 11.25 $376 $626 forward 7 unknown #
epar-rbase-attrib $-1 $-1 $-1 $377 #
straight-curve $-1 -20 -45 0 0 0 -1 I I #
copar-rbase-attrib $-1 $-1 $-1 $384 #
coedge $627 $385 $384 $537 $628 reversed $386 $-1 #
copar-rbase-attrib $-1 $-1 $-1 $385 #
face $629 $292 $386 $3 $-1 $630 forward single #
copar-rbase-attrib $-1 $-1 $-1 $390 #
coedge $631 $537 $396 $390 $512 forward $410 $-1 #
edge $632 $399 0 $514 3.141592653589793116 $390 $633 forward 7 unknown #
epar-rbase-attrib $-1 $-1 $-1 $391 #
vertex $-1 $391 $634 #
straight-curve $-1 -15 30 -2.5 0 1 0 I I #
fface-rbase-attrib $-1 $-1 $-1 $393 #
face $635 $636 $637 $3 $-1 $638 reversed single #
plane-surface $-1 -10 30 -2.5 0 0 1 1 0 0 forward_v I I I I #
copar-rbase-attrib $-1 $-1 $-1 $396 #
epar-rbase-attrib $-1 $-1 $-1 $397 #
straight-curve $-1 -5 15 2.5 0 0 -1 I I #
point $-1 -5 15 -2.5 #
fface-rbase-attrib $-1 $-1 $-1 $402 #
face $639 $444 $640 $3 $-1 $641 forward single #
loop $-1 $-1 $531 $402 #
plane-surface $-1 -15 0 5 -1 0 0 0 0 1 forward_v I I I I #
copar-rbase-attrib $-1 $-1 $-1 $405 #
coedge $642 $643 $644 $405 $529 reversed $637 $-1 #
edge $645 $534 -3.141592653589793116 $606 0 $405 $646 forward 7 unknown #
copar-rbase-attrib $-1 $-1 $-1 $406 #
coedge $647 $565 $406 $409 $538 forward $525 $-1 #
coedge $648 $406 $565 $643 $649 forward $525 $-1 #
epar-rbase-attrib $-1 $-1 $-1 $407 #
vertex $-1 $407 $650 #
straight-curve $-1 -15 0 7.5 0 -1 0 I I #
copar-rbase-attrib $-1 $-1 $-1 $409 #
coedge $651 $409 $511 $507 $628 forward $410 $-1 #
edge $652 $412 -3.75 $568 1.25 $531 $653 forward 7 unknown #
face $654 $393 $410 $3 $-1 $655 reversed single #
point $-1 -15 15 7.5 #
copar-rbase-attrib $-1 $-1 $-1 $416 #
coedge $656 $416 $657 $658 $659 forward $75 $-1 #
coedge $660 $582 $581 $416 $544 reversed $464 $-1 #
edge $661 $662 10 $546 20 $543 $215 forward 7 unknown #
epar-rbase-attrib $-1 $-1 $-1 $417 #
vertex $-1 $544 $663 #
straight-curve $-1 7.5 20 7.5 -1 0 0 I I #
point $-1 14.33012701892219987 20 7.5 #
epar-rbase-attrib $-1 $-1 $-1 $423 #
straight-curve $-1 14.33012701892219987 25 0 0 0 1 I I #
copar-rbase-attrib $-1 $-1 $-1 $427 #
epar-rbase-attrib $-1 $-1 $-1 $428 #
ellipse-curve $-1 10 22.5 -7.5 0 0 1 5 0 0 1 I I #
point $-1 14.33012701892219987 25 -7.5 #
fface-rbase-attrib $-1 $-1 $-1 $433 #
face $664 $665 $666 $3 $-1 $667 reversed single #
loop $-1 $473 $668 $433 #
cone-surface $-1 7.5 -20 0 1 0 -3.491481338843129805e-15 -8.728703347107830233e-15 0 -2.5 1 I I 0 1 2.5 forward I I I I #
copar-rbase-attrib $-1 $-1 $-1 $437 #
coedge $669 $497 $670 $437 $561 forward $434 $-1 #
edge $671 $672 0 $672 6.283185307179586232 $560 $673 forward 7 unknown #
copar-rbase-attrib $-1 $-1 $-1 $440 #
coedge $674 $442 $440 $675 $676 forward $327 $-1 #
copar-rbase-attrib $-1 $-1 $-1 $442 #
coedge $677 $532 $531 $442 $566 forward $525 $-1 #
edge $678 $568 -15 $679 15 $565 $569 forward 7 unknown #
epar-rbase-attrib $-1 $-1 $-1 $443 #
vertex $-1 $443 $680 #
straight-curve $-1 -15 0 2.5 0 -1 0 I I #
fface-rbase-attrib $-1 $-1 $-1 $444 #
plane-surface $-1 -17.5 0 2.5 0 0 1 1 0 0 forward_v I I I I #
point $-1 -20 -45 2.5 #
copar-rbase-attrib $-1 $-1 $-1 $451 #
coedge $681 $451 $682 $683 $684 forward $158 $-1 #
edge $685 $686 5 $488 12.5 $451 $687 forward 7 unknown #
copar-rbase-attrib $-1 $-1 $-1 $454 #
coedge $688 $682 $454 $689 $690 forward $158 $-1 #
coedge $691 $692 $693 $454 $579 reversed $694 $-1 #
edge $695 $584 -12.5 $696 -5 $454 $697 forward 7 unknown #
copar-rbase-attrib $-1 $-1 $-1 $455 #
coedge $698 $543 $455 $458 $586 forward $464 $-1 #
coedge $699 $455 $543 $692 $700 forward $464 $-1 #
epar-rbase-attrib $-1 $-1 $-1 $456 #
vertex $-1 $456 $701 #
copar-rbase-attrib $-1 $-1 $-1 $458 #
edge $702 $461 -7.5 $546 7.5 $581 $703 forward 7 unknown #
point $-1 14.33012701892219987 20 -7.5 #
point $-1 20 20 -7.5 #
copar-rbase-attrib $-1 $-1 $-1 $470 #
epar-rbase-attrib $-1 $-1 $-1 $471 #
vertex $-1 $471 $704 #
ellipse-curve $-1 20 -30 -4.36435167355391985e-14 -1 0 0 -8.728703347107830233e-15 0 -2.5 1 I I #
point $-1 20 -20 -2.500000000000039968 #
copar-rbase-attrib $-1 $-1 $-1 $478 #
coedge $705 $657 $478 $706 $707 forward $75 $-1 #
coedge $708 $709 $710 $478 $597 reversed $711 $-1 #
edge $712 $601 0 $713 4.712388980384689674 $478 $714 forward 7 unknown #
copar-rbase-attrib $-1 $-1 $-1 $479 #
coedge $715 $479 $485 $709 $716 forward $486 $-1 #
epar-rbase-attrib $-1 $-1 $-1 $480 #
vertex $-1 $480 $717 #
straight-curve $-1 7.5 -10 7.5 -1 0 0 I I #
copar-rbase-attrib $-1 $-1 $-1 $482 #
coedge $718 $719 $482 $644 $720 forward $434 $-1 #
epar-rbase-attrib $-1 $-1 $-1 $483 #
vertex $-1 $529 $721 #
straight-curve $-1 -5 -15 7.5 0 -1 0 I I #
copar-rbase-attrib $-1 $-1 $-1 $485 #
face $722 $723 $486 $3 $-1 $724 forward single #
point $-1 20 -10 -7.5 #
copar-rbase-attrib $-1 $-1 $-1 $493 #
coedge $725 $726 $675 $493 $613 reversed $640 $-1 #
edge $727 $619 -3.75 $625 1.25 $493 $728 forward 7 unknown #
copar-rbase-attrib $-1 $-1 $-1 $494 #
coedge $729 $730 $494 $497 $622 reversed $617 $-1 #
coedge $731 $494 $732 $726 $733 reversed $617 $-1 #
loop $-1 $-1 $616 $636 #
epar-rbase-attrib $-1 $-1 $-1 $495 #
vertex $-1 $495 $734 #
straight-curve $-1 -5 -45 -2.5 -1 0 0 I I #
copar-rbase-attrib $-1 $-1 $-1 $497 #
edge $735 $672 0 $499 15 $497 $736 forward 7 unknown #
point $-1 -5 -45 -2.5 #
epar-rbase-attrib $-1 $-1 $-1 $503 #
vertex $-1 $503 $737 #
straight-curve $-1 -8.75 -45 2.5 -1 0 0 I I #
copar-rbase-attrib $-1 $-1 $-1 $507 #
edge $738 $514 -5 $568 -0 $507 $739 reversed 7 unknown #
fface-rbase-attrib $-1 $-1 $-1 $509 #
plane-surface $-1 -15 30 2.5 1 0 0 0 0 -1 forward_v I I I I #
copar-rbase-attrib $-1 $-1 $-1 $511 #
epar-rbase-attrib $-1 $-1 $-1 $512 #
ellipse-curve $-1 -10 15 -2.5 0 0 -1 5 0 0 1 I I #
point $-1 -15 15 -2.5 #
fface-rbase-attrib $-1 $-1 $-1 $517 #
face $740 $509 $617 $3 $-1 $741 forward single #
loop $-1 $-1 $643 $517 #
cone-surface $-1 -10 -15 2.5 0 0 1 5 0 0 1 I I 0 1 5 forward I I I I #
fface-rbase-attrib $-1 $-1 $-1 $524 #
loop $-1 $-1 $675 $524 #
plane-surface $-1 -15 -30 2.5 1 0 0 0 0 -1 forward_v I I I I #
copar-rbase-attrib $-1 $-1 $-1 $528 #
coedge $742 $743 $528 $532 $649 reversed $637 $-1 #
coedge $744 $528 $745 $604 $720 reversed $637 $-1 #
epar-rbase-attrib $-1 $-1 $-1 $529 #
ellipse-curve $-1 -10 -15 7.5 -0 -0 -1 5 0 0 1 I I #
copar-rbase-attrib $-1 $-1 $-1 $531 #
copar-rbase-attrib $-1 $-1 $-1 $532 #
edge $746 $679 -1.25 $534 3.75 $532 $747 forward 7 unknown #
point $-1 -15 -15 7.5 #
copar-rbase-attrib $-1 $-1 $-1 $537 #
epar-rbase-attrib $-1 $-1 $-1 $538 #
straight-curve $-1 -15 15 3.75 0 0 -1 I I #
fface-rbase-attrib $-1 $-1 $-1 $539 #
cone-surface $-1 -10 15 2.5 0 0 1 5 0 0 1 I I 0 1 5 forward I I I I #
copar-rbase-attrib $-1 $-1 $-1 $542 #
coedge $748 $542 $595 $749 $750 forward $75 $-1 #
coedge $751 $693 $692 $542 $659 reversed $694 $-1 #
edge $752 $753 5 $662 12.5 $542 $754 forward 7 unknown #
copar-rbase-attrib $-1 $-1 $-1 $543 #
epar-rbase-attrib $-1 $-1 $-1 $544 #
vertex $-1 $700 $755 #
point $-1 20 20 7.5 #
fface-rbase-attrib $-1 $-1 $-1 $556 #
face $756 $757 $758 $3 $-1 $759 forward single #
loop $-1 $-1 $749 $556 #
cone-surface $-1 10 10 0 0 0 1 2.5 0 0 1 I I 0 1 2.5 forward I I I I #
coedge $760 $668 $668 $761 $762 reversed $557 $-1 #
copar-rbase-attrib $-1 $-1 $-1 $560 #
coedge $763 $560 $761 $730 $764 forward $434 $-1 #
epar-rbase-attrib $-1 $-1 $-1 $561 #
vertex $-1 $764 $765 #
ellipse-curve $-1 -5.00000000000000977 -30 4.36435167355391985e-14 1 -0 -0 -8.728703347107830233e-15 0 -2.5 1 I I #
copar-rbase-attrib $-1 $-1 $-1 $563 #
coedge $766 $612 $767 $563 $676 reversed $640 $-1 #
edge $768 $625 -45 $679 -15 $563 $569 reversed 7 unknown #
copar-rbase-attrib $-1 $-1 $-1 $565 #
epar-rbase-attrib $-1 $-1 $-1 $566 #
vertex $-1 $566 $769 #
point $-1 -15 15 2.5 #
copar-rbase-attrib $-1 $-1 $-1 $574 #
coedge $770 $574 $577 $771 $772 forward $158 $-1 #
coedge $773 $710 $709 $574 $684 reversed $711 $-1 #
edge $774 $775 1.570796326794896558 $686 6.283185307179586232 $574 $776 forward 7 unknown #
epar-rbase-attrib $-1 $-1 $-1 $575 #
vertex $-1 $684 $777 #
straight-curve $-1 7.5 -10 -7.5 1 0 0 I I #
copar-rbase-attrib $-1 $-1 $-1 $577 #
coedge $778 $779 $780 $577 $690 reversed $666 $-1 #
edge $781 $696 0 $782 4.712388980384689674 $577 $783 forward 7 unknown #
copar-rbase-attrib $-1 $-1 $-1 $578 #
coedge $784 $658 $578 $582 $700 reversed $694 $-1 #
coedge $785 $578 $658 $779 $786 forward $694 $-1 #
loop $-1 $-1 $693 $723 #
epar-rbase-attrib $-1 $-1 $-1 $579 #
vertex $-1 $579 $787 #
straight-curve $-1 7.5 10 -7.5 -1 0 0 I I #
copar-rbase-attrib $-1 $-1 $-1 $581 #
copar-rbase-attrib $-1 $-1 $-1 $582 #
edge $788 $662 -7.5 $584 7.5 $582 $789 forward 7 unknown #
point $-1 20 10 -7.5 #
epar-rbase-attrib $-1 $-1 $-1 $586 #
straight-curve $-1 20 20 0 0 -0 1 I I #
point $-1 20 -30 -2.500000000000039968 #
copar-rbase-attrib $-1 $-1 $-1 $595 #
coedge $790 $791 $792 $595 $707 reversed $758 $-1 #
edge $793 $713 -7.5 $794 7.5 $595 $795 forward 7 unknown #
copar-rbase-attrib $-1 $-1 $-1 $596 #
coedge $796 $683 $596 $599 $716 reversed $711 $-1 #
coedge $797 $596 $683 $791 $798 reversed $711 $-1 #
loop $-1 $-1 $709 $757 #
epar-rbase-attrib $-1 $-1 $-1 $597 #
vertex $-1 $798 $799 #
ellipse-curve $-1 10 -10 7.5 -0 -0 -1 2.5 0 0 1 I I #
copar-rbase-attrib $-1 $-1 $-1 $599 #
edge $800 $686 -7.5 $601 7.5 $599 $801 forward 7 unknown #
point $-1 12.5 -10 7.5 #
copar-rbase-attrib $-1 $-1 $-1 $604 #
coedge $802 $761 $604 $803 $804 forward $434 $-1 #
edge $805 $606 -5 $806 5 $604 $807 forward 7 unknown #
point $-1 -5 -15 7.5 #
fface-rbase-attrib $-1 $-1 $-1 $609 #
face $808 $539 $694 $3 $-1 $809 forward single #
plane-surface $-1 15 -10 0 0 1 0 0 0 1 forward_v I I I I #
copar-rbase-attrib $-1 $-1 $-1 $612 #
coedge $810 $767 $612 $616 $733 forward $640 $-1 #
epar-rbase-attrib $-1 $-1 $-1 $613 #
straight-curve $-1 -15 -45 1.25 -0 0 1 I I #
copar-rbase-attrib $-1 $-1 $-1 $615 #
coedge $811 $803 $615 $670 $764 reversed $617 $-1 #
copar-rbase-attrib $-1 $-1 $-1 $616 #
coedge $812 $616 $803 $745 $813 reversed $617 $-1 #
edge $814 $619 -15 $815 15 $726 $816 forward 7 unknown #
point $-1 -15 -45 -2.5 #
epar-rbase-attrib $-1 $-1 $-1 $622 #
straight-curve $-1 -5 -30 -2.5 0 -1 0 I I #
point $-1 -15 -45 2.5 #
epar-rbase-attrib $-1 $-1 $-1 $628 #
straight-curve $-1 -15 15 2.5 0 0 -1 I I #
fface-rbase-attrib $-1 $-1 $-1 $636 #
plane-surface $-1 -10 -30 -2.5 0 0 1 1 0 0 forward_v I I I I #
copar-rbase-attrib $-1 $-1 $-1 $643 #
coedge $817 $745 $643 $767 $818 reversed $637 $-1 #
copar-rbase-attrib $-1 $-1 $-1 $644 #
coedge $819 $644 $743 $732 $813 forward $637 $-1 #
epar-rbase-attrib $-1 $-1 $-1 $649 #
straight-curve $-1 -15 -15 3.75 0 0 1 I I #
copar-rbase-attrib $-1 $-1 $-1 $657 #
coedge $820 $780 $779 $657 $750 reversed $666 $-1 #
edge $821 $794 1.570796326794896558 $753 6.283185307179586232 $657 $822 forward 7 unknown #
copar-rbase-attrib $-1 $-1 $-1 $658 #
epar-rbase-attrib $-1 $-1 $-1 $659 #
vertex $-1 $750 $823 #
straight-curve $-1 7.5 10 7.5 1 0 -0 I I #
point $-1 20 10 7.5 #
fface-rbase-attrib $-1 $-1 $-1 $665 #
face $824 $609 $711 $3 $-1 $825 reversed single #
loop $-1 $-1 $792 $665 #
plane-surface $-1 10 0 0 1 0 0 0 0 -1 forward_v I I I I #
copar-rbase-attrib $-1 $-1 $-1 $668 #
coedge $826 $670 $719 $668 $762 forward $434 $-1 #
edge $827 $828 0 $828 6.283185307179586232 $761 $829 forward 7 unknown #
copar-rbase-attrib $-1 $-1 $-1 $670 #
edge $830 $828 -10 $672 0 $670 $736 forward 7 unknown #
point $-1 -5.00000000000000977 -30 -2.499999999999960032 #
copar-rbase-attrib $-1 $-1 $-1 $675 #
coedge $831 $675 $726 $743 $818 forward $640 $-1 #
epar-rbase-attrib $-1 $-1 $-1 $676 #
point $-1 -15 -15 2.5 #
copar-rbase-attrib $-1 $-1 $-1 $682 #
coedge $832 $792 $791 $682 $772 reversed $758 $-1 #
edge $833 $782 -7.5 $775 7.5 $682 $834 forward 7 unknown #
copar-rbase-attrib $-1 $-1 $-1 $683 #
epar-rbase-attrib $-1 $-1 $-1 $684 #
vertex $-1 $772 $835 #
ellipse-curve $-1 10 -10 -7.5 0 0 1 2.5 0 0 1 I I #
point $-1 12.5 -10 -7.5 #
copar-rbase-attrib $-1 $-1 $-1 $689 #
coedge $836 $749 $689 $693 $786 reversed $666 $-1 #
coedge $837 $689 $749 $792 $838 reversed $666 $-1 #
epar-rbase-attrib $-1 $-1 $-1 $690 #
vertex $-1 $838 $839 #
ellipse-curve $-1 10 10 -7.5 0 0 1 2.5 0 0 1 I I #
copar-rbase-attrib $-1 $-1 $-1 $692 #
copar-rbase-attrib $-1 $-1 $-1 $693 #
edge $840 $753 -7.5 $696 7.5 $693 $841 forward 7 unknown #
point $-1 12.5 10 -7.5 #
epar-rbase-attrib $-1 $-1 $-1 $700 #
straight-curve $-1 20 10 0 -0 -0 -1 I I #
copar-rbase-attrib $-1 $-1 $-1 $706 #
coedge $842 $771 $706 $710 $798 forward $758 $-1 #
coedge $843 $706 $771 $780 $838 forward $758 $-1 #
epar-rbase-attrib $-1 $-1 $-1 $707 #
vertex $-1 $707 $844 #
straight-curve $-1 10 0 7.5 0 1 0 I I #
copar-rbase-attrib $-1 $-1 $-1 $709 #
copar-rbase-attrib $-1 $-1 $-1 $710 #
edge $845 $713 -7.5 $775 7.5 $791 $846 forward 7 unknown #
point $-1 10 -7.5 7.5 #
epar-rbase-attrib $-1 $-1 $-1 $716 #
straight-curve $-1 12.5 -10 0 0 0 1 I I #
copar-rbase-attrib $-1 $-1 $-1 $719 #
coedge $847 $732 $730 $719 $804 reversed $617 $-1 #
edge $848 $806 -15 $828 -10 $719 $736 forward 7 unknown #
epar-rbase-attrib $-1 $-1 $-1 $720 #
vertex $-1 $804 $849 #
straight-curve $-1 -5 -15 2.5 0 0 -1 I I #
fface-rbase-attrib $-1 $-1 $-1 $723 #
plane-surface $-1 15 10 0 0 -1 0 0 0 -1 forward_v I I I I #
copar-rbase-attrib $-1 $-1 $-1 $726 #
copar-rbase-attrib $-1 $-1 $-1 $730 #
copar-rbase-attrib $-1 $-1 $-1 $732 #
edge $850 $815 -3.141592653589793116 $806 0 $732 $851 forward 7 unknown #
epar-rbase-attrib $-1 $-1 $-1 $733 #
vertex $-1 $733 $852 #
straight-curve $-1 -15 -30 -2.5 0 1 0 I I #
copar-rbase-attrib $-1 $-1 $-1 $743 #
edge $853 $815 -5 $679 -0 $767 $854 reversed 7 unknown #
copar-rbase-attrib $-1 $-1 $-1 $745 #
copar-rbase-attrib $-1 $-1 $-1 $749 #
epar-rbase-attrib $-1 $-1 $-1 $750 #
ellipse-curve $-1 10 10 7.5 -0 -0 -1 2.5 0 0 1 I I #
point $-1 12.5 10 7.5 #
fface-rbase-attrib $-1 $-1 $-1 $757 #
cone-surface $-1 10 -10 0 0 0 1 2.5 0 0 1 I I 0 1 2.5 forward I I I I #
copar-rbase-attrib $-1 $-1 $-1 $761 #
epar-rbase-attrib $-1 $-1 $-1 $762 #
vertex $-1 $804 $855 #
ellipse-curve $-1 -5.00000000000000977 -20 4.36435167355391985e-14 1 -0 -0 -8.728703347107830233e-15 0 -2.5 1 I I #
epar-rbase-attrib $-1 $-1 $-1 $764 #
copar-rbase-attrib $-1 $-1 $-1 $767 #
copar-rbase-attrib $-1 $-1 $-1 $771 #
epar-rbase-attrib $-1 $-1 $-1 $772 #
straight-curve $-1 10 0 -7.5 0 -1 0 I I #
point $-1 10 -7.5 -7.5 #
copar-rbase-attrib $-1 $-1 $-1 $779 #
copar-rbase-attrib $-1 $-1 $-1 $780 #
edge $856 $782 -7.5 $794 7.5 $792 $857 forward 7 unknown #
point $-1 10 7.5 -7.5 #
epar-rbase-attrib $-1 $-1 $-1 $786 #
straight-curve $-1 12.5 10 0 -0 -0 -1 I I #
copar-rbase-attrib $-1 $-1 $-1 $791 #
copar-rbase-attrib $-1 $-1 $-1 $792 #
point $-1 10 7.5 7.5 #
epar-rbase-attrib $-1 $-1 $-1 $798 #
straight-curve $-1 10 -7.5 0 -0 -0 -1 I I #
copar-rbase-attrib $-1 $-1 $-1 $803 #
epar-rbase-attrib $-1 $-1 $-1 $804 #
point $-1 -5 -15 -2.5 #
epar-rbase-attrib $-1 $-1 $-1 $813 #
ellipse-curve $-1 -10 -15 -2.5 0 0 -1 5 0 0 1 I I #
point $-1 -15 -15 -2.5 #
epar-rbase-attrib $-1 $-1 $-1 $818 #
straight-curve $-1 -15 -15 2.5 0 0 -1 I I #
point $-1 -5.00000000000000977 -20 -2.499999999999960032 #
epar-rbase-attrib $-1 $-1 $-1 $838 #
straight-curve $-1 10 7.5 0 0 0 1 I I #
End-of-ACIS-data 