**ABCDEFGHIJKLMNOPQRSTUVWXYZabcdefghijklmnopqrstuvwxyz**************************
**PARASOLID !"#$%&'()*+,-./:;<=>?@[\]^_`{|}~0123456789**************************
**PART1;MC=sparc;MC_MODEL=sun4c;MC_ID=cosmos;OS=SunOS;OS_RELEASE=4.1.1;FRU=sdl_p
arasolid_test_sparc;APPL=unknown;SITE=sdl-cambridge-u.k.;USER=kramer;FORMAT=text
;GUISE=transmit;KEY=block_hole;FILE=block_hole.xmt_txt;DATE=11-feb-1992;
**PART2;SCH=SCH_400062_4035;USFLD_SIZE=0;
**PART3;
**END_OF_HEADER*****************************************************************
T50 : TRANSMIT FILE created by modeller version 40006215 SCH_400062_40350 12 1 8
7 0 0 0 0 0 1e3 1e-8 2 2 0 0 0 1 3 1e-8 0 0 102 10 2 block_hole13 3 2 0 1 0 4 5
 6 7 8 9 14 4 77 0 10 0 11 3 7 -16 5 66 0 12 0 13 8 18 6 20 0 14 0 15 9 52 7 82
 0 4 16 0 0 +0 0 2 0 0 -1 3 .447213595499958 .894427190999916 -1 0 0 31 8 69 0 5
 17 0 0 +1e-8 0 0 2 0 0 1 1 0 0 3 29 9 55 0 6 18 0 -5 -5 2 29 18 54 0 15 19 9 -5
 5 2 18 15 18 0 20 6 21 18 29 19 53 0 21 22 18 5 5 2 18 21 16 0 23 15 24 19 29 2
2 52 0 24 25 19 5 -5 2 18 24 14 0 26 21 27 22 29 25 38 0 28 29 22 -5 -5 0 18 28
 8 0 30 31 32 25 29 29 37 0 31 33 25 -5 5 0 18 31 10 0 34 27 28 29 29 33 36 0 27
 35 29 5 5 0 18 27 12 0 36 24 31 33 29 35 35 0 32 0 33 5 -5 0 18 32 7 0 37 28 0
 35 17 37 38 26 39 32 40 41 0 15 38 29 0 26 42 0 17 26 38 43 37 24 44 45 0 17 39
 38 37 43 28 14 46 0 17 40 47 48 49 28 37 41 0 16 41 9 0 37 50 51 52 16 50 11 0
 30 53 41 54 16 51 3 0 36 41 0 55 30 52 39 0 41 0 55 0 +1e-8 0 -5 0 1 0 0 30 55
 40 0 51 52 56 0 +1e-8 5 0 0 0 1 0 30 56 41 0 53 55 54 0 +1e-8 0 5 0 -1 0 0 16 5
3 13 0 34 45 50 56 30 54 42 0 50 56 57 0 +1e-8 -5 0 0 0 -1 0 30 57 47 0 45 54 58
 0 +1e-8 5 -5 0 0 0 1 16 45 15 0 26 59 53 57 30 58 48 0 59 57 60 0 +1e-8 5 5 0 0
 0 1 16 59 17 0 23 61 45 58 30 60 49 0 61 58 62 0 +1e-8 -5 5 0 0 0 1 16 61 19 0
 20 46 59 60 30 62 50 0 46 60 63 0 +1e-8 -5 -5 0 0 0 1 16 46 21 0 14 64 61 62 30
 63 56 0 64 62 65 0 +1e-8 5 0 2 0 -1 0 16 64 22 0 66 67 46 63 30 65 57 0 67 63 6
8 0 +1e-8 0 5 2 1 0 0 16 67 25 0 69 70 64 65 30 68 58 0 70 65 71 0 +1e-8 -5 0 2
 0 1 0 16 70 28 0 72 73 67 68 30 71 59 0 73 68 17 0 +1e-8 0 -5 2 -1 0 0 16 73 31
 0 43 13 70 71 31 17 63 0 13 71 8 0 +1e-8 0 0 0 0 0 -1 -1 0 0 4 16 13 60 0 74 5
 73 17 17 74 11 74 74 0 75 13 0 15 11 78 0 74 4 76 17 75 77 75 75 0 74 13 0 15 7
7 62 0 75 78 47 14 78 6 0 79 80 77 3 81 +15 47 5 0 49 78 0 17 49 47 40 82 32 36
 51 0 17 82 47 49 48 27 34 53 0 17 36 83 23 44 27 49 51 0 15 83 4 0 36 79 0 17 2
3 83 66 36 21 84 59 0 17 44 83 36 66 32 26 45 0 17 66 83 44 23 24 85 64 0 17 85
 86 87 88 21 66 64 0 15 86 32 0 88 10 0 17 87 86 89 85 15 69 67 0 17 88 86 85 89
 24 43 73 0 17 89 86 88 87 6 72 70 0 17 43 38 39 26 6 88 73 0 17 72 90 91 14 15
 89 70 0 15 90 26 0 14 92 0 17 91 90 30 72 31 20 61 0 17 14 90 72 30 6 39 46 0 1
7 30 90 14 91 28 48 50 0 17 48 47 82 40 31 30 50 0 17 20 93 69 34 15 91 61 0 15
 93 23 0 20 80 0 17 69 93 84 20 21 87 67 0 17 34 93 20 84 31 82 53 0 17 84 93 34
 69 27 23 59 0 14 80 24 0 78 92 93 3 94 +14 92 27 0 80 42 90 3 95 +50 94 44 0 80
 96 95 0 +0 5 0 0 1 0 0 0 1 50 96 43 0 79 81 94 0 +5 0 0 1 0 0 0 0 -1 50 95 45 0
 92 94 97 0 +-5 0 0 -1 0 0 0 0 1 50 97 46 0 42 95 16 0 +0 -5 0 0 -1 0 0 0 -1 14
 42 30 0 92 10 38 3 97 +50 16 51 0 10 97 7 0 +0 0 2 0 0 1 1 0 0 14 10 33 0 42 4
 98 3 16 +15 98 68 0 99 10 86 17 99 98 99 99 0 12 5 0 17 12 76 12 12 0 99 5 0 15
 76 79 0 12 4 0 14 79 1 0 0 78 83 3 96 +50 81 34 0 78 0 96 0 +0 0 0 0 0 -1 -1 0
 0 1 0 
