600 0 1 0           
66 GICL ACIS Healer - Source: spacer_87_link_short_link1_43.sat - 6 0 18 ACIS 6.0.3 Solaris 24 Fri Mar 29 22:10:30 2002 
1 9.999999999999999547e-07 1.000000000000000036e-10 
body $1 $2 $-1 $-1 #
aggregate_advspl_attribute-aggregate_geombuild_base_attribute-aggregate_body_attribute-attrib_HH-attrib $-1 $3 $-1 $0 F #
lump $-1 $-1 $4 $0 #
aggregate_secndry_attribute-aggregate_geombuild_base_attribute-aggregate_body_attribute-attrib_HH-attrib $-1 $5 $1 $0 F #
shell $-1 $-1 $-1 $6 $-1 $2 #
aggregate_sharped_attribute-aggregate_geombuild_base_attribute-aggregate_body_attribute-attrib_HH-attrib $-1 $7 $3 $0 F #
face $8 $9 $10 $4 $-1 $11 forward single #
aggregate_reblend_attribute-aggregate_geombuild_base_attribute-aggregate_body_attribute-attrib_HH-attrib $-1 $12 $5 $0 F #
attrib_hh_face_geombuild-attrib_entity_geombuild-individual_entity_attribute-attrib_HH-attrib $-1 $-1 $-1 $6 F #
face $13 $14 $15 $4 $-1 $16 reversed single #
loop $-1 $17 $18 $6 #
plane-surface $-1 -3.005199999999999871 5.029999999999999361 4.130200000000000315 0 1 0 0.7071067811865473507 0 0.7071067811865473507 forward_v I I I I #
aggregate_isospline_attribute-aggregate_geombuild_base_attribute-aggregate_body_attribute-attrib_HH-attrib $-1 $19 $7 $0 F #
attrib_hh_face_geombuild-attrib_entity_geombuild-individual_entity_attribute-attrib_HH-attrib $-1 $-1 $-1 $9 F #
face $20 $21 $22 $4 $-1 $23 reversed single #
loop $-1 $24 $25 $9 #
plane-surface $-1 -3.005199999999999871 4.998999999999999666 4.130200000000000315 0 1 0 0.7071067811865473507 0 0.7071067811865473507 forward_v I I I I #
loop $-1 $-1 $26 $6 #
coedge $27 $18 $18 $28 $29 forward $10 $-1 #
aggregate_analytic_solver_attribute-aggregate_geombuild_base_attribute-aggregate_body_attribute-attrib_HH-attrib $-1 $30 $12 $0 F #
attrib_hh_face_geombuild-attrib_entity_geombuild-individual_entity_attribute-attrib_HH-attrib $-1 $-1 $-1 $14 F #
face $31 $32 $33 $4 $-1 $34 reversed single #
loop $-1 $35 $36 $14 #
plane-surface $-1 -3.005199999999999871 4.955000000000000071 4.130200000000000315 0 1 0 0.7071067811865473507 0 0.7071067811865473507 forward_v I I I I #
loop $-1 $-1 $37 $9 #
coedge $38 $25 $25 $39 $40 forward $15 $-1 #
coedge $41 $26 $26 $42 $43 forward $17 $-1 #
attrib_hh_coedge_geombuild-attrib_entity_geombuild-individual_entity_attribute-attrib_HH-attrib $-1 $-1 $-1 $18 F #
coedge $44 $28 $28 $18 $29 reversed $45 $-1 #
edge $46 $47 -1.142407273854105241e-15 $47 6.283185307179585344 $28 $48 forward 7 unknown #
aggregate_geombuild_attribute-aggregate_geombuild_base_attribute-aggregate_body_attribute-attrib_HH-attrib $-1 $49 $19 $0 #
attrib_hh_face_geombuild-attrib_entity_geombuild-individual_entity_attribute-attrib_HH-attrib $-1 $-1 $-1 $21 F #
face $50 $51 $52 $4 $-1 $53 forward single #
loop $-1 $54 $42 $21 #
cone-surface $-1 -3.005199999999999871 4.951249999999999929 4.130200000000000315 0 1 0 -0.08838834764831841884 0 -0.08838834764831841884 1 I I 0 1 0.1249999999999999861 forward I I I I #
loop $-1 $-1 $55 $14 #
coedge $56 $36 $36 $57 $58 forward $22 $-1 #
coedge $59 $37 $37 $60 $61 forward $24 $-1 #
attrib_hh_coedge_geombuild-attrib_entity_geombuild-individual_entity_attribute-attrib_HH-attrib $-1 $-1 $-1 $25 F #
coedge $62 $39 $39 $25 $40 reversed $63 $-1 #
edge $64 $65 -1.677670348322460109e-15 $65 6.283185307179584456 $39 $66 forward 7 unknown #
attrib_hh_coedge_geombuild-attrib_entity_geombuild-individual_entity_attribute-attrib_HH-attrib $-1 $-1 $-1 $26 F #
coedge $67 $42 $42 $26 $43 reversed $33 $-1 #
edge $68 $69 -3.141592653589793116 $69 3.141592653589793116 $26 $70 forward 7 unknown #
attrib_hh_coedge_geombuild-attrib_entity_geombuild-individual_entity_attribute-attrib_HH-attrib $-1 $-1 $-1 $28 F #
loop $-1 $-1 $28 $32 #
attrib_hh_edge_geombuild-attrib_entity_geombuild-individual_entity_attribute-attrib_HH-attrib $-1 $-1 $-1 $29 F #
vertex $71 $29 $72 #
ellipse-curve $-1 -3.005199999999999871 5.029999999999999361 4.130200000000000315 0 1 0 0.1986970055134198165 0 0.1986970055134198165 1 I I #
aggregate_stitch_attribute-aggregate_stitch_base_attribute-aggregate_body_attribute-attrib_HH-attrib $-1 $73 $30 $0 F #
attrib_hh_face_geombuild-attrib_entity_geombuild-individual_entity_attribute-attrib_HH-attrib $-1 $-1 $-1 $32 F #
face $74 $-1 $75 $4 $-1 $76 forward single #
loop $-1 $45 $60 $32 #
cone-surface $-1 -3.005199999999999871 4.951249999999999929 4.130200000000000315 0 1 0 -0.1986970055134198165 0 -0.1986970055134198165 1 I I 0 1 0.280999999999999972 forward I I I I #
loop $-1 $-1 $57 $21 #
coedge $77 $55 $55 $78 $79 forward $35 $-1 #
attrib_hh_coedge_geombuild-attrib_entity_geombuild-individual_entity_attribute-attrib_HH-attrib $-1 $-1 $-1 $36 F #
coedge $80 $57 $57 $36 $58 reversed $54 $-1 #
edge $81 $82 -3.141592653589793116 $82 3.141592653589793116 $57 $83 forward 7 unknown #
attrib_hh_coedge_geombuild-attrib_entity_geombuild-individual_entity_attribute-attrib_HH-attrib $-1 $-1 $-1 $37 F #
coedge $84 $60 $60 $37 $61 reversed $52 $-1 #
edge $85 $86 -3.141592653589793116 $86 3.141592653589793116 $37 $87 forward 7 unknown #
attrib_hh_coedge_geombuild-attrib_entity_geombuild-individual_entity_attribute-attrib_HH-attrib $-1 $-1 $-1 $39 F #
loop $-1 $-1 $39 $51 #
attrib_hh_edge_geombuild-attrib_entity_geombuild-individual_entity_attribute-attrib_HH-attrib $-1 $-1 $-1 $40 F #
vertex $88 $40 $89 #
ellipse-curve $-1 -3.005199999999999871 4.998999999999999666 4.130200000000000315 0 1 0 0.1325825214724776213 0 0.1325825214724776213 1 I I #
attrib_hh_coedge_geombuild-attrib_entity_geombuild-individual_entity_attribute-attrib_HH-attrib $-1 $-1 $-1 $42 F #
attrib_hh_edge_geombuild-attrib_entity_geombuild-individual_entity_attribute-attrib_HH-attrib $-1 $-1 $-1 $43 F #
vertex $90 $43 $91 #
ellipse-curve $-1 -3.005199999999999871 5.029999999999999361 4.130200000000000315 0 -1 0 0.08838834764831841884 0 0.08838834764831841884 1 I I #
attrib_hh_vertex_geombuild-attrib_entity_geombuild-individual_entity_attribute-attrib_HH-attrib $-1 $-1 $-1 $47 F #
point $-1 -2.806502994486580249 5.029999999999999361 4.328897005513420382 #
aggregate_simgeom_attribute-aggregate_simgeom_base_attribute-aggregate_body_attribute-attrib_HH-attrib $-1 $-1 $49 $0 F #
attrib_hh_face_geombuild-attrib_entity_geombuild-individual_entity_attribute-attrib_HH-attrib $-1 $-1 $-1 $51 F #
loop $-1 $63 $78 $51 #
cone-surface $-1 -3.005199999999999871 4.951249999999999929 4.130200000000000315 0 1 0 -0.1325825214724776213 0 -0.1325825214724776213 1 I I 0 1 0.1874999999999999722 forward I I I I #
attrib_hh_coedge_geombuild-attrib_entity_geombuild-individual_entity_attribute-attrib_HH-attrib $-1 $-1 $-1 $55 F #
coedge $92 $78 $78 $55 $79 reversed $75 $-1 #
edge $93 $94 -3.14159265358979134 $94 3.141592653589794892 $55 $95 forward 7 unknown #
attrib_hh_coedge_geombuild-attrib_entity_geombuild-individual_entity_attribute-attrib_HH-attrib $-1 $-1 $-1 $57 F #
attrib_hh_edge_geombuild-attrib_entity_geombuild-individual_entity_attribute-attrib_HH-attrib $-1 $-1 $-1 $58 F #
vertex $96 $58 $97 #
ellipse-curve $-1 -3.005199999999999871 4.955000000000000071 4.130200000000000315 0 1 0 0.08838834764831841884 0 0.08838834764831841884 1 I I #
attrib_hh_coedge_geombuild-attrib_entity_geombuild-individual_entity_attribute-attrib_HH-attrib $-1 $-1 $-1 $60 F #
attrib_hh_edge_geombuild-attrib_entity_geombuild-individual_entity_attribute-attrib_HH-attrib $-1 $-1 $-1 $61 F #
vertex $98 $61 $99 #
ellipse-curve $-1 -3.005199999999999871 4.998999999999999666 4.130200000000000315 0 -1 0 0.1986970055134198165 0 0.1986970055134198165 1 I I #
attrib_hh_vertex_geombuild-attrib_entity_geombuild-individual_entity_attribute-attrib_HH-attrib $-1 $-1 $-1 $65 F #
point $-1 -2.872617478527522472 4.998999999999999666 4.262782521472478159 #
attrib_hh_vertex_geombuild-attrib_entity_geombuild-individual_entity_attribute-attrib_HH-attrib $-1 $-1 $-1 $69 F #
point $-1 -3.093588347648318138 5.029999999999999361 4.041811652351682049 #
attrib_hh_coedge_geombuild-attrib_entity_geombuild-individual_entity_attribute-attrib_HH-attrib $-1 $-1 $-1 $78 F #
attrib_hh_edge_geombuild-attrib_entity_geombuild-individual_entity_attribute-attrib_HH-attrib $-1 $-1 $-1 $79 F #
vertex $100 $79 $101 #
ellipse-curve $-1 -3.005199999999999871 4.955000000000000071 4.130200000000000315 0 -1 0 0.1325825214724776213 0 0.1325825214724776213 1 I I #
attrib_hh_vertex_geombuild-attrib_entity_geombuild-individual_entity_attribute-attrib_HH-attrib $-1 $-1 $-1 $82 F #
point $-1 -3.093588347648318138 4.955000000000000071 4.041811652351682049 #
attrib_hh_vertex_geombuild-attrib_entity_geombuild-individual_entity_attribute-attrib_HH-attrib $-1 $-1 $-1 $86 F #
point $-1 -3.203897005513419494 4.998999999999999666 3.931502994486580693 #
attrib_hh_vertex_geombuild-attrib_entity_geombuild-individual_entity_attribute-attrib_HH-attrib $-1 $-1 $-1 $94 F #
point $-1 -3.137782521472477271 4.955000000000000071 3.997617478527522472 #
End-of-ACIS-data 