X-Sun-Data-Type: default
X-Sun-Data-Description: default
X-Sun-Data-Name: HW2.sat
X-Sun-Charset: us-ascii
X-Sun-Content-Lines: 919

200 0 1 0           
23 ACIS Test Harness - 2.0 11 ACIS 2.0 NT 24 Thu Dec 05 09:46:37 1996 
-1 9.9999999999999995e-007 1e-010 
body $-1 $1 $-1 $2 #
lump $-1 $-1 $3 $0 #
transform $-1 1 0 0 0 1 0 0 0 1 0 0 0 1 no_rotate no_reflect no_shear #
shell $-1 $-1 $-1 $4 $-1 $1 #
face $-1 $5 $6 $3 $-1 $7 reversed single #
face $-1 $8 $9 $3 $-1 $10 forward single #
loop $-1 $-1 $11 $4 #
cone-surface $-1 6.5000000000002096 77 185 -1 0 3.4914833611093821e-015 2.4688515610404431e-014 -7.0710678118654746 7.0710678118654746 1 I I 0 1 forward I I I I #
face $-1 $12 $13 $3 $-1 $14 reversed single #
loop $-1 $-1 $15 $5 #
plane-surface $-1 6.5000000000002442 86 195 -3.4914833611093821e-015 0 -1 -1 0 3.4914833611093821e-015 forward_v I I I I #
coedge $-1 $16 $17 $18 $19 1 $6 $-1 #
face $-1 $20 $21 $3 $-1 $22 reversed single #
loop $-1 $23 $24 $8 #
cone-surface $-1 6.499999999999825 87 75 1 0 -3.4914833611093821e-015 -2.2694641847210983e-014 0 -6.5 1 I I 0 1 forward I I I I #
coedge $-1 $25 $26 $27 $28 1 $9 $-1 #
coedge $-1 $29 $11 $30 $31 1 $6 $-1 #
coedge $-1 $11 $29 $25 $32 1 $6 $-1 #
coedge $-1 $27 $33 $11 $19 0 $34 $-1 #
edge $-1 $35 $36 $18 $37 forward #
face $-1 $38 $39 $3 $-1 $40 reversed single #
loop $-1 $41 $42 $12 #
cone-surface $-1 6.500000000000175 87 175 1 0 -3.4914833611093821e-015 -2.2694641847210983e-014 0 -6.5 1 I I 0 1 forward I I I I #
loop $-1 $-1 $43 $8 #
coedge $-1 $24 $24 $44 $45 1 $13 $-1 #
coedge $-1 $46 $15 $17 $32 0 $9 $-1 #
coedge $-1 $15 $47 $48 $49 1 $9 $-1 #
coedge $-1 $50 $18 $15 $28 0 $34 $-1 #
edge $-1 $36 $51 $27 $52 forward #
coedge $-1 $17 $16 $53 $54 1 $6 $-1 #
coedge $-1 $55 $56 $16 $31 0 $57 $-1 #
edge $-1 $58 $35 $30 $59 forward #
edge $-1 $36 $60 $25 $61 forward #
coedge $-1 $18 $62 $55 $63 0 $34 $-1 #
loop $-1 $-1 $27 $64 #
vertex $-1 $19 $65 #
vertex $-1 $19 $66 #
ellipse-curve $-1 -19.499999999999361 77 185.00000000000009 -1 0 0 2.4688515610404431e-014 -7.0710678118654746 7.0710678118654746 1 I I #
face $-1 $67 $68 $3 $-1 $69 forward single #
loop $-1 $-1 $70 $20 #
cone-surface $-1 6.4999999999997904 77 65 -1 0 3.4914833611093821e-015 -2.4688515610404431e-014 -7.0710678118654746 -7.0710678118654746 1 I I 0 1 forward I I I I #
loop $-1 $-1 $71 $12 #
coedge $-1 $42 $42 $72 $73 1 $21 $-1 #
coedge $-1 $43 $43 $74 $75 0 $23 $-1 #
coedge $-1 $44 $44 $24 $45 0 $76 $-1 #
edge $-1 $77 $77 $44 $78 forward #
coedge $-1 $47 $25 $79 $80 0 $9 $-1 #
coedge $-1 $26 $46 $81 $82 1 $9 $-1 #
coedge $-1 $83 $84 $26 $49 0 $85 $-1 #
edge $-1 $51 $86 $48 $87 forward #
coedge $-1 $88 $27 $84 $89 0 $34 $-1 #
vertex $-1 $89 $90 #
straight-curve $-1 -19.5 90.5 195.00000000000011 0 1 0 I I #
coedge $-1 $91 $79 $29 $54 0 $92 $-1 #
edge $-1 $60 $58 $53 $93 forward #
coedge $-1 $94 $30 $33 $63 1 $57 $-1 #
coedge $-1 $30 $94 $91 $95 0 $57 $-1 #
loop $-1 $-1 $55 $96 #
vertex $-1 $31 $97 #
straight-curve $-1 6.5000000000002096 67 185 1 0 -3.4914833611093821e-015 F -81 F 81 #
vertex $-1 $80 $98 #
straight-curve $-1 6.5000000000002442 77 195 -1 0 3.4914833611093821e-015 F -81 F 81 #
coedge $-1 $33 $99 $70 $100 0 $34 $-1 #
edge $-1 $101 $35 $33 $102 forward #
face $-1 $103 $34 $3 $-1 $104 forward single #
point $-1 -19.5 67 185.00000000000009 #
point $-1 -19.5 77 195.00000000000009 #
face $-1 $96 $105 $3 $-1 $106 forward single #
loop $-1 $-1 $107 $38 #
plane-surface $-1 6.4999999999997558 86 55 3.4914833611093821e-015 0 1 1 0 -3.4914833611093821e-015 forward_v I I I I #
coedge $-1 $108 $109 $62 $100 1 $39 $-1 #
coedge $-1 $71 $71 $110 $111 0 $41 $-1 #
coedge $-1 $72 $72 $42 $73 0 $112 $-1 #
edge $-1 $113 $113 $72 $114 forward #
coedge $-1 $74 $74 $43 $75 1 $105 $-1 #
edge $-1 $115 $115 $74 $116 forward #
loop $-1 $112 $44 $117 #
vertex $-1 $45 $118 #
ellipse-curve $-1 -56.499999999999737 87 75.000000000000213 1 0 0 -2.2694641847210983e-014 0 -6.5 1 I I #
coedge $-1 $53 $119 $46 $80 1 $92 $-1 #
edge $-1 $60 $120 $46 $121 forward #
coedge $-1 $122 $123 $47 $82 0 $124 $-1 #
edge $-1 $86 $120 $81 $125 forward #
coedge $-1 $126 $48 $123 $127 0 $85 $-1 #
coedge $-1 $48 $128 $50 $89 1 $85 $-1 #
loop $-1 $-1 $48 $129 #
vertex $-1 $127 $130 #
straight-curve $-1 -15.749999999999766 91.249999999999773 195.00000000000009 -0.70710678118654757 0.70710678118654757 2.4688515610404436e-015 I I #
coedge $-1 $131 $50 $132 $133 0 $34 $-1 #
edge $-1 $51 $134 $84 $135 forward #
point $-1 -19.5 95 195.00000000000009 #
coedge $-1 $136 $53 $56 $95 1 $92 $-1 #
loop $-1 $-1 $53 $67 #
ellipse-curve $-1 -43.499999999999794 77 185.00000000000017 1 0 -3.4914833611093821e-015 2.4688515610404431e-014 -7.0710678118654746 7.0710678118654746 1 I I #
coedge $-1 $56 $55 $109 $137 0 $57 $-1 #
edge $-1 $138 $58 $56 $139 forward #
face $-1 $140 $57 $3 $-1 $141 forward single #
point $-1 -43.499999999999794 67 185.00000000000017 #
point $-1 -43.499999999999758 77 195.00000000000017 #
coedge $-1 $62 $142 $107 $143 0 $34 $-1 #
edge $-1 $144 $101 $62 $145 forward #
vertex $-1 $100 $146 #
straight-curve $-1 -19.5 67 63.5 0 0 1 I I #
face $-1 $147 $148 $3 $-1 $149 forward single #
plane-surface $-1 -19.5 95 2 1 0 0 0 0 -1 forward_v I I I I #
loop $-1 $150 $74 $67 #
plane-surface $-1 -43.5 86 125.00000000000017 1 0 -3.4914833611093821e-015 -3.4914833611093821e-015 0 -1 forward_v I I I I #
coedge $-1 $151 $152 $99 $143 1 $68 $-1 #
coedge $-1 $153 $70 $152 $154 1 $39 $-1 #
coedge $-1 $70 $153 $94 $137 1 $39 $-1 #
coedge $-1 $110 $110 $71 $111 1 $150 $-1 #
edge $-1 $155 $155 $110 $156 forward #
loop $-1 $157 $72 $117 #
vertex $-1 $73 $158 #
ellipse-curve $-1 -56.499999999999389 87 175.00000000000023 1 0 0 -2.2694641847210983e-014 0 -6.5 1 I I #
vertex $-1 $75 $159 #
ellipse-curve $-1 -43.500000000000178 87 75.000000000000171 1 0 -3.4914833611093821e-015 -2.2694641847210983e-014 0 -6.5 1 I I #
face $-1 $160 $76 $3 $-1 $161 reversed single #
point $-1 -56.499999999999716 87.000000000000043 81.500000000000213 #
coedge $-1 $79 $162 $122 $163 1 $92 $-1 #
vertex $-1 $82 $164 #
straight-curve $-1 -43.499999999999758 86 195.00000000000017 0 1 0 I I #
coedge $-1 $165 $81 $119 $163 0 $124 $-1 #
coedge $-1 $81 $166 $83 $127 1 $124 $-1 #
loop $-1 $-1 $81 $167 #
straight-curve $-1 -37.499999999999538 105 195.00000000000017 -1 0 3.4914833611093821e-015 I I #
coedge $-1 $128 $83 $168 $169 0 $85 $-1 #
edge $-1 $86 $170 $83 $171 forward #
coedge $-1 $84 $126 $172 $173 0 $85 $-1 #
face $-1 $167 $85 $3 $-1 $174 forward single #
point $-1 -29.5 105 195.00000000000011 #
coedge $-1 $175 $88 $176 $177 1 $34 $-1 #
coedge $-1 $172 $178 $88 $133 1 $179 $-1 #
edge $-1 $134 $180 $88 $181 forward #
vertex $-1 $173 $182 #
straight-curve $-1 -19.5 95 0 0 0 1 I I #
coedge $-1 $162 $91 $153 $183 0 $92 $-1 #
edge $-1 $101 $138 $94 $184 forward #
vertex $-1 $95 $185 #
straight-curve $-1 -43.5 67 125.00000000000017 3.4914833611093821e-015 0 1 I I #
face $-1 $129 $186 $3 $-1 $174 forward single #
plane-surface $-1 6.5 67 125 0 1 0 1 0 -3.4914833611093821e-015 forward_v I I I I #
coedge $-1 $99 $175 $187 $188 0 $34 $-1 #
edge $-1 $189 $144 $99 $190 forward #
vertex $-1 $100 $191 #
ellipse-curve $-1 -19.49999999999978 77 65.000000000000085 -1 0 0 -2.4688515610404431e-014 -7.0710678118654746 -7.0710678118654746 1 I I #
point $-1 -19.5 67 65.000000000000085 #
face $-1 $192 $193 $3 $-1 $194 forward single #
loop $-1 $-1 $195 $103 #
cone-surface $-1 -9.5 65.728042876759758 2 0 0 1 -8.7461970713939792 -4.8480962024633332 0 1 I I 0 -1 forward I I I I #
loop $-1 $92 $110 $67 #
coedge $-1 $196 $107 $197 $198 1 $68 $-1 #
coedge $-1 $107 $199 $108 $154 0 $68 $-1 #
coedge $-1 $109 $108 $136 $183 1 $39 $-1 #
edge $-1 $200 $144 $152 $201 forward #
vertex $-1 $111 $202 #
ellipse-curve $-1 -43.499999999999822 87 175.00000000000017 1 0 -3.4914833611093821e-015 -2.2694641847210983e-014 0 -6.5 1 I I #
loop $-1 $203 $204 $117 #
point $-1 -56.499999999999368 87.000000000000043 181.50000000000023 #
point $-1 -43.500000000000149 87.000000000000043 81.500000000000171 #
face $-1 $205 $206 $3 $-1 $207 reversed single #
plane-surface $-1 -56.5 200 0 1 0 0 0 0 -1 forward_v I I I I #
coedge $-1 $119 $136 $199 $208 1 $92 $-1 #
edge $-1 $120 $209 $122 $210 forward #
point $-1 -43.499999999999758 105 195.00000000000017 #
coedge $-1 $211 $122 $196 $212 0 $124 $-1 #
coedge $-1 $123 $213 $214 $215 0 $124 $-1 #
face $-1 $216 $124 $3 $-1 $217 forward single #
coedge $-1 $214 $218 $126 $169 1 $219 $-1 #
edge $-1 $170 $220 $126 $221 forward #
vertex $-1 $215 $222 #
straight-curve $-1 -29.5 105 0 0 0 1 I I #
coedge $-1 $223 $132 $128 $173 1 $179 $-1 #
edge $-1 $220 $134 $128 $224 forward #
plane-surface $-1 -29.5 105 0 0.70710678118654757 0.70710678118654757 0 0 0 -1 forward_v I I I I #
coedge $-1 $142 $131 $225 $226 1 $34 $-1 #
coedge $-1 $195 $227 $131 $177 0 $148 $-1 #
edge $-1 $228 $180 $131 $229 forward #
coedge $-1 $132 $230 $195 $231 1 $179 $-1 #
loop $-1 $-1 $232 $233 #
vertex $-1 $133 $234 #
straight-curve $-1 -19.5 44.452964230659084 280 0 -1 0 I I #
point $-1 -19.5 95 280 #
edge $-1 $138 $200 $136 $235 forward #
straight-curve $-1 6.4999999999997904 67 65 -1 0 3.4914833611093821e-015 F -81 F 81 #
point $-1 -43.500000000000206 67 65.000000000000171 #
loop $-1 $-1 $197 $140 #
coedge $-1 $236 $197 $142 $188 1 $186 $-1 #
edge $-1 $237 $189 $187 $135 forward #
vertex $-1 $198 $238 #
straight-curve $-1 -19.5 90.5 55.000000000000085 0 -1 0 I I #
point $-1 -19.5 77 55.000000000000092 #
face $-1 $-1 $239 $3 $-1 $240 reversed single #
loop $-1 $-1 $241 $147 #
plane-surface $-1 -14.79919264233212 57.24756191519554 2 0.5299192642332119 0.84804809615642163 0 0 0 -1 forward_v I I I I #
coedge $-1 $242 $176 $178 $231 0 $148 $-1 #
coedge $-1 $199 $151 $165 $212 1 $68 $-1 #
coedge $-1 $187 $243 $151 $198 0 $186 $-1 #
edge $-1 $244 $189 $197 $245 forward #
coedge $-1 $152 $196 $162 $208 0 $68 $-1 #
vertex $-1 $183 $246 #
straight-curve $-1 6.4999999999997558 77 55 1 0 -3.4914833611093821e-015 F -81 F 81 #
point $-1 -43.499999999999801 87.000000000000043 181.50000000000017 #
loop $-1 $-1 $247 $117 #
coedge $-1 $204 $204 $248 $249 0 $157 $-1 #
face $-1 $64 $250 $3 $-1 $251 forward single #
loop $-1 $-1 $252 $160 #
plane-surface $-1 -40.333333333333329 58.833333333333329 0 0 0 1 1 0 0 forward_v I I I I #
edge $-1 $209 $200 $199 $253 forward #
vertex $-1 $212 $254 #
straight-curve $-1 -43.500000000000213 105 62.500000000000021 -3.4914833611093821e-015 0 -1 I I #
coedge $-1 $255 $165 $243 $256 1 $124 $-1 #
edge $-1 $209 $244 $165 $257 forward #
coedge $-1 $166 $258 $259 $260 0 $124 $-1 #
coedge $-1 $261 $168 $166 $215 1 $219 $-1 #
edge $-1 $262 $170 $166 $263 forward #
face $-1 $264 $265 $3 $-1 $266 forward single #
plane-surface $-1 -81.5 105 0 0 1 0 0 0 1 forward_v I I I I #
coedge $-1 $168 $267 $223 $268 1 $219 $-1 #
loop $-1 $-1 $267 $269 #
vertex $-1 $169 $270 #
ellipse-curve $-1 -26.170103643591233 101.67010364359125 295 -0.70710678118654757 -0.70710678118654757 0 -10.885598912704754 10.885598912704754 -3.3750779948604759e-014 0.97437006478523469 I I #
point $-1 -29.499999999999993 105 280.71904158142144 #
coedge $-1 $232 $172 $218 $268 0 $179 $-1 #
straight-curve $-1 0.58665616112018526 74.913343838879811 280 0.70710678118654757 -0.70710678118654757 0 I I #
coedge $-1 $271 $272 $175 $226 0 $206 $-1 #
edge $-1 $237 $228 $225 $273 forward #
coedge $-1 $176 $242 $271 $274 1 $148 $-1 #
vertex $-1 $274 $275 #
straight-curve $-1 -19.5 65.728042876759758 1 0 0 1 F -1 F 474 #
coedge $-1 $178 $276 $277 $278 1 $179 $-1 #
edge $-1 $180 $279 $195 $280 forward #
coedge $-1 $281 $223 $282 $283 1 $179 $-1 #
face $-1 $284 $179 $3 $-1 $285 forward single #
point $-1 -19.5 65.728042876759758 280 #
ellipse-curve $-1 -43.500000000000206 77 65.000000000000171 1 0 -3.4914833611093821e-015 -2.4688515610404431e-014 -7.0710678118654746 -7.0710678118654746 1 I I #
coedge $-1 $243 $187 $272 $286 1 $186 $-1 #
vertex $-1 $286 $287 #
point $-1 -19.5 95 55.000000000000092 #
loop $-1 $-1 $288 $192 #
plane-surface $-1 -56.933282763486034 99.372271180556737 1 -0.52991926423320301 -0.84804809615642718 0 0 0 1 forward_v I I I I #
coedge $-1 $289 $290 $291 $292 0 $193 $-1 #
coedge $-1 $227 $195 $293 $294 0 $148 $-1 #
coedge $-1 $197 $236 $211 $256 0 $186 $-1 #
vertex $-1 $212 $295 #
straight-curve $-1 -15.750000000000012 91.250000000000014 55.000000000000078 0.70710678118654757 -0.70710678118654757 -2.4688515610404436e-015 I I #
point $-1 -43.500000000000242 77 55.000000000000171 #
coedge $-1 $296 $297 $298 $299 1 $203 $-1 #
coedge $-1 $248 $248 $204 $249 1 $300 $-1 #
edge $-1 $301 $301 $204 $302 forward #
loop $-1 $-1 $303 $205 #
cone-surface $-1 -63.0720776557325 115 2 0 0 1 -2.7563735581699818 -9.6126169593831907 0 1 I I 0 -1 forward I I I I #
coedge $-1 $304 $305 $296 $306 0 $206 $-1 #
straight-curve $-1 -43.500000000000242 86 55.000000000000171 0 -1 0 I I #
point $-1 -43.500000000000242 105 55.000000000000171 #
coedge $-1 $298 $211 $304 $307 1 $124 $-1 #
edge $-1 $308 $244 $243 $171 forward #
straight-curve $-1 -37.500000000000021 105 55.000000000000156 1 0 -3.4914833611093821e-015 I I #
coedge $-1 $213 $309 $310 $311 0 $124 $-1 #
coedge $-1 $312 $313 $213 $260 1 $314 $-1 #
edge $-1 $315 $262 $213 $316 forward #
coedge $-1 $317 $214 $313 $318 1 $219 $-1 #
vertex $-1 $215 $319 #
ellipse-curve $-1 -24.089353465436872 105 295 0 -1 0 -17.687676050431421 0 -1.7763568394002505e-015 0.84804809615642707 I I #
face $-1 $320 $321 $3 $-1 $322 reversed single #
loop $-1 $-1 $323 $216 #
plane-surface $-1 8.5 45 125 0 -1 0 -1 0 3.4914833611093821e-015 forward_v I I I I #
coedge $-1 $218 $317 $324 $325 1 $219 $-1 #
edge $-1 $220 $326 $223 $327 forward #
face $-1 $328 $219 $3 $-1 $329 reversed single #
point $-1 -26.170103643591233 101.67010364359125 280 #
coedge $-1 $330 $225 $227 $274 0 $206 $-1 #
coedge $-1 $225 $304 $236 $286 0 $206 $-1 #
straight-curve $-1 -19.5 55.666666666666664 0 0 -1 0 I I #
edge $-1 $228 $331 $271 $332 forward #
point $-1 -19.5 65.728042876759758 0 #
coedge $-1 $230 $333 $334 $335 1 $179 $-1 #
coedge $-1 $290 $293 $230 $278 0 $193 $-1 #
edge $-1 $279 $336 $277 $337 forward #
vertex $-1 $294 $338 #
ellipse-curve $-1 -9.5 65.728042876759758 280 0 0 1 -8.7461970713939792 -4.8480962024633332 0 1 I I #
coedge $-1 $333 $232 $339 $340 1 $179 $-1 #
coedge $-1 $324 $341 $232 $283 0 $342 $-1 #
edge $-1 $343 $326 $282 $344 forward #
face $-1 $345 $346 $3 $-1 $347 forward single #
plane-surface $-1 -20.247446894201087 -6.0940715386818347 280 0 0 1 0.52991926423320301 0.84804809615642718 0 forward_v I I I I #
edge $-1 $308 $237 $272 $348 forward #
point $-1 -19.5 95 0 #
coedge $-1 $349 $350 $351 $352 1 $239 $-1 #
coedge $-1 $353 $241 $354 $355 1 $193 $-1 #
coedge $-1 $241 $277 $356 $357 1 $193 $-1 #
coedge $-1 $358 $359 $241 $292 1 $360 $-1 #
edge $-1 $361 $362 $241 $363 forward #
coedge $-1 $277 $353 $242 $294 1 $193 $-1 #
edge $-1 $279 $331 $293 $364 forward #
point $-1 -29.5 105 55.000000000000128 #
coedge $-1 $365 $247 $252 $306 1 $203 $-1 #
coedge $-1 $247 $365 $366 $367 1 $203 $-1 #
coedge $-1 $309 $255 $247 $299 0 $124 $-1 #
edge $-1 $368 $369 $298 $370 forward #
loop $-1 $371 $248 $372 #
vertex $-1 $249 $373 #
ellipse-curve $-1 -56.499999999999559 35 125.00000000000023 1 0 0 -2.2694641847210983e-014 0 -6.5 1 I I #
coedge $-1 $310 $374 $312 $375 0 $250 $-1 #
coedge $-1 $272 $252 $255 $307 0 $206 $-1 #
coedge $-1 $252 $376 $377 $378 0 $206 $-1 #
edge $-1 $379 $368 $252 $380 forward #
edge $-1 $368 $308 $304 $381 forward #
vertex $-1 $307 $382 #
coedge $-1 $258 $298 $383 $384 0 $124 $-1 #
coedge $-1 $385 $303 $258 $311 1 $250 $-1 #
edge $-1 $386 $315 $258 $387 forward #
coedge $-1 $388 $259 $303 $375 1 $314 $-1 #
coedge $-1 $259 $389 $261 $318 0 $314 $-1 #
loop $-1 $-1 $389 $328 #
vertex $-1 $375 $390 #
straight-curve $-1 3.6526642678458074 105 202.46996133216558 0.45287769344245243 0 -0.89157265255403839 I I #
coedge $-1 $267 $261 $391 $392 1 $219 $-1 #
edge $-1 $393 $262 $313 $394 forward #
point $-1 -40.333938294531279 105 289.06564155937502 #
face $-1 $395 $396 $3 $-1 $397 forward single #
loop $-1 $-1 $398 $264 #
cone-surface $-1 8.4999999999998597 35 85 -1 0 3.4914833611093821e-015 -2.4688515610404431e-014 7.0710678118654746 -7.0710678118654746 1 I I 0 1 forward I I I I #
coedge $-1 $399 $400 $401 $402 1 $265 $-1 #
coedge $-1 $403 $282 $267 $325 0 $342 $-1 #
edge $-1 $326 $404 $324 $405 forward #
vertex $-1 $325 $406 #
straight-curve $-1 -72.935835713613926 26.829287836051154 280 -0.52991926423320301 -0.84804809615642718 0 F -246.5 F 246.5 #
face $-1 $407 $314 $3 $-1 $408 reversed single #
cone-surface $-1 -72.935835713613926 26.829287836051154 295 -0.52991926423320301 -0.84804809615642718 0 -6.9927884047076505 4.3695791584887074 -12.530270879142531 1 I I 0 1 forward I I I I #
coedge $-1 $376 $271 $353 $409 0 $206 $-1 #
vertex $-1 $409 $410 #
ellipse-curve $-1 -9.5 65.728042876759758 0 0 0 1 -8.7461970713939792 -4.8480962024633332 0 1 I I #
coedge $-1 $276 $281 $411 $412 1 $179 $-1 #
coedge $-1 $413 $356 $276 $335 0 $414 $-1 #
edge $-1 $336 $415 $334 $416 forward #
vertex $-1 $278 $417 #
straight-curve $-1 -2.5255748135945133 49.578154296969359 280 0.84804809615642163 -0.5299192642332119 0 I I #
point $-1 -14.79919264233212 57.24756191519554 280 #
coedge $-1 $418 $419 $281 $340 0 $420 $-1 #
edge $-1 $421 $343 $339 $422 forward #
coedge $-1 $282 $423 $418 $424 0 $342 $-1 #
loop $-1 $-1 $282 $425 #
vertex $-1 $283 $426 #
straight-curve $-1 -81.5 -3.0470357693409174 280 0 1 0 I I #
face $-1 $425 $420 $3 $-1 $427 forward single #
loop $-1 $-1 $411 $284 #
plane-surface $-1 -30 0 0 0 -1 0 0 0 -1 forward_v I I I I #
straight-curve $-1 -29.5 105 0 0.70710678118654746 -0.70710678118654746 0 I I #
coedge $-1 $428 $288 $429 $430 0 $239 $-1 #
coedge $-1 $288 $428 $431 $432 1 $239 $-1 #
coedge $-1 $433 $434 $288 $352 0 $435 $-1 #
edge $-1 $436 $437 $288 $438 forward #
coedge $-1 $293 $289 $330 $409 1 $193 $-1 #
coedge $-1 $439 $440 $289 $355 0 $414 $-1 #
edge $-1 $441 $362 $354 $442 forward #
coedge $-1 $334 $443 $290 $357 0 $414 $-1 #
edge $-1 $361 $336 $356 $442 forward #
coedge $-1 $444 $291 $443 $445 1 $360 $-1 #
coedge $-1 $291 $446 $439 $447 1 $360 $-1 #
loop $-1 $-1 $359 $448 #
vertex $-1 $357 $449 #
vertex $-1 $292 $450 #
ellipse-curve $-1 20.804348877533293 35 124.99999999999996 -0.5299192642332119 -0.84804809615642163 0 -22.404683406574296 14 7.8225579324977629e-014 0.5299192642332119 I I #
straight-curve $-1 -14.79919264233212 57.24756191519554 1 0 0 -1 F -474 F 1 #
coedge $-1 $297 $296 $451 $452 0 $203 $-1 #
coedge $-1 $453 $383 $297 $367 0 $454 $-1 #
edge $-1 $369 $455 $297 $456 forward #
vertex $-1 $307 $457 #
vertex $-1 $299 $458 #
straight-curve $-1 -56.5 105 0 0 0 1 I I #
loop $-1 $-1 $459 $372 #
face $-1 $448 $300 $3 $-1 $460 reversed single #
point $-1 -56.499999999999538 35.000000000000043 131.50000000000023 #
coedge $-1 $303 $461 $462 $463 0 $250 $-1 #
edge $-1 $464 $315 $303 $465 forward #
coedge $-1 $305 $330 $440 $466 0 $206 $-1 #
coedge $-1 $467 $451 $305 $378 1 $346 $-1 #
edge $-1 $468 $379 $305 $469 forward #
vertex $-1 $452 $470 #
straight-curve $-1 -56.5 129.41666666666666 0 0 1 0 I I #
straight-curve $-1 -81.5 105 0 1 0 0 I I #
point $-1 -29.5 105 0 #
coedge $-1 $366 $471 $309 $384 1 $454 $-1 #
edge $-1 $369 $386 $309 $472 forward #
coedge $-1 $473 $310 $471 $474 0 $250 $-1 #
vertex $-1 $311 $475 #
straight-curve $-1 -63.0720776557325 105 2 0 0 1 I I #
coedge $-1 $476 $312 $477 $478 1 $314 $-1 #
coedge $-1 $313 $476 $479 $480 1 $314 $-1 #
point $-1 -63.0720776557325 105 333.82983179871087 #
coedge $-1 $479 $481 $317 $392 0 $482 $-1 #
edge $-1 $404 $393 $391 $483 forward #
vertex $-1 $392 $484 #
straight-curve $-1 -84.61870676848244 34.129555900547047 289.06564155937502 0.52991926423320301 0.84804809615642718 0 F -246.5 F 246.5 #
face $-1 $485 $486 $3 $-1 $487 reversed single #
loop $-1 $-1 $488 $320 #
plane-surface $-1 8.4999999999998259 25 75 3.4914833611093821e-015 0 1 1 0 -3.4914833611093821e-015 forward_v I I I I #
coedge $-1 $489 $490 $491 $492 1 $321 $-1 #
coedge $-1 $493 $323 $446 $494 1 $265 $-1 #
coedge $-1 $323 $493 $489 $495 0 $265 $-1 #
coedge $-1 $491 $439 $323 $402 0 $414 $-1 #
edge $-1 $496 $497 $401 $498 forward #
coedge $-1 $423 $324 $481 $499 1 $342 $-1 #
vertex $-1 $392 $500 #
ellipse-curve $-1 -81.5 13.123760016167244 295 1 0 0 0 28.306198721997976 -3.5527136788005009e-015 0.52991926423320301 I I #
point $-1 -81.5 13.123760016167244 280 #
face $-1 $233 $501 $3 $-1 $502 forward single #
plane-surface $-1 -93.179583163653831 39.478985185373631 312.5 -0.77885807032456777 0.48668453763305963 -0.39562389604166415 -0.3355080918321216 0.20964872390347189 0.91841261581100608 forward_v I I I I #
edge $-1 $331 $441 $330 $503 forward #
point $-1 -14.79919264233212 57.24756191519554 0 #
coedge $-1 $504 $467 $333 $412 0 $346 $-1 #
edge $-1 $415 $421 $411 $505 forward #
coedge $-1 $440 $334 $467 $506 1 $414 $-1 #
loop $-1 $-1 $439 $507 #
vertex $-1 $412 $508 #
straight-curve $-1 -14.999713673608429 24.000458122226512 280 -0.52999894000318004 -0.84799830400508802 0 I I #
point $-1 0 48 280 #
coedge $-1 $509 $339 $341 $424 1 $420 $-1 #
coedge $-1 $339 $509 $504 $510 0 $420 $-1 #
loop $-1 $-1 $339 $345 #
vertex $-1 $340 $511 #
straight-curve $-1 -38.826194795798465 -4.7356818316507852 280 -0.96592582628906809 0.25881904510252135 0 I I #
coedge $-1 $341 $403 $512 $513 0 $342 $-1 #
edge $-1 $514 $343 $341 $515 forward #
face $-1 $516 $342 $3 $-1 $517 forward single #
point $-1 -81.5 6.6987298107780857 280 #
plane-surface $-1 -56.499999999999993 0 2 -0.25881904510252135 -0.96592582628906809 0 0 0 -1 forward_v I I I I #
coedge $-1 $350 $349 $518 $519 0 $239 $-1 #
coedge $-1 $520 $521 $349 $430 1 $522 $-1 #
edge $-1 $436 $523 $349 $524 forward #
coedge $-1 $461 $473 $350 $432 0 $250 $-1 #
edge $-1 $437 $525 $350 $526 forward #
coedge $-1 $527 $351 $473 $528 0 $435 $-1 #
coedge $-1 $351 $529 $520 $530 0 $435 $-1 #
loop $-1 $-1 $434 $531 #
vertex $-1 $430 $532 #
vertex $-1 $432 $533 #
straight-curve $-1 -24.730458762690237 79.249713417529449 165.09065288868015 0.42272748791602105 -0.26414945140834084 -0.86690630305753513 I I #
coedge $-1 $401 $354 $359 $447 0 $414 $-1 #
coedge $-1 $354 $413 $376 $466 1 $414 $-1 #
vertex $-1 $409 $534 #
straight-curve $-1 0 48 0 0 0 1 I I #
coedge $-1 $356 $535 $358 $445 0 $414 $-1 #
coedge $-1 $536 $358 $537 $538 0 $360 $-1 #
edge $-1 $539 $361 $443 $540 forward #
coedge $-1 $359 $536 $399 $494 0 $360 $-1 #
edge $-1 $362 $496 $439 $540 forward #
face $-1 $541 $360 $3 $-1 $542 reversed single #
point $-1 0 48 130.19615242270666 #
point $-1 0 48 119.8038475772934 #
coedge $-1 $377 $504 $365 $452 1 $346 $-1 #
edge $-1 $379 $455 $451 $543 forward #
coedge $-1 $512 $366 $509 $544 1 $454 $-1 #
loop $-1 $-1 $545 $546 #
vertex $-1 $510 $547 #
straight-curve $-1 -56.5 200 252 0 -1 0 I I #
point $-1 -56.5 105 0 #
point $-1 -56.5 105 252 #
coedge $-1 $459 $459 $548 $549 0 $371 $-1 #
cone-surface $-1 8.5 35 125 1 0 -3.4914833611093821e-015 -2.2694641847210983e-014 0 -6.5 1 I I 0 1 forward I I I I #
coedge $-1 $374 $431 $550 $551 0 $250 $-1 #
coedge $-1 $552 $477 $374 $463 1 $553 $-1 #
edge $-1 $554 $464 $374 $555 forward #
vertex $-1 $375 $556 #
ellipse-curve $-1 -63.0720776557325 115 346.13152900412462 0.77885807032456777 -0.48668453763305963 0.39562389604166415 8.4804809615642718 -5.299192642332029 -23.214285714285708 0.3956238960416642 I I #
edge $-1 $441 $468 $376 $557 forward #
coedge $-1 $411 $377 $413 $506 0 $346 $-1 #
vertex $-1 $378 $558 #
straight-curve $-1 -30 0 0 -1 0 0 I I #
point $-1 -56.499999999999993 0 0 #
coedge $-1 $383 $545 $385 $474 1 $454 $-1 #
straight-curve $-1 -140.75 105 252 -1 0 0 I I #
coedge $-1 $431 $385 $433 $528 1 $250 $-1 #
edge $-1 $386 $559 $385 $560 forward #
point $-1 -63.0720776557325 105 252 #
coedge $-1 $389 $388 $561 $562 1 $314 $-1 #
coedge $-1 $462 $563 $388 $478 0 $553 $-1 #
edge $-1 $564 $464 $477 $565 forward #
coedge $-1 $566 $391 $389 $480 0 $482 $-1 #
edge $-1 $393 $567 $479 $568 forward #
coedge $-1 $391 $569 $403 $499 0 $482 $-1 #
loop $-1 $-1 $391 $516 #
intcurve-curve $-1 forward { surfintcur nubs 3 open 9 
	3.6777708972760803 3 5.297584965734802 2 7.063446620979736 2 8.1313780758629441 2 9.1993095307461523 2 
	10.26724098562936 2 11.335172440512567 2 13.582228291146446 2 14.530979747091289 3 
	-81.5 26.637681108802504 281.81986469144692 
	-81.5 27.186675148825746 281.97793436457511 
	-81.545889959210868 27.726585839204969 282.16721263750907 
	-81.719868049577371 28.798682241071543 282.6279471040653 
	-81.854890267759174 29.325640154949514 282.90573645376975 
	-82.110524814483711 30.091720091702911 283.39567250086998 
	-82.221936882166887 30.380732480622768 283.60199608385545 
	-82.467104615483436 30.938807676661817 284.05319278051553 
	-82.600781092827447 31.207873727566579 284.29810490641358 
	-82.878226786409044 31.711908384679788 284.81612198288695 
	-83.021995366598745 31.947072319745384 285.08939147993891 
	-83.306241186015384 32.376018331995276 285.64863095031359 
	-83.446652296306425 32.569864785183341 285.9345851537409 
	-83.858371942202382 33.104097820578083 286.80985519520908 
	-84.140004987022337 33.417442244900826 287.46346672705505 
	-84.507479476214016 33.788112382762741 288.455197563686 
	-84.61247763192732 33.888909213537069 288.75734209592542 
	-84.71173954950207 33.980672328748611 289.06564155937502 
	0.001 
	cone -72.935835713613926 26.829287836051154 295 -0.52991926423320301 -0.84804809615642718 0 -6.9927884047076505 4.3695791584887074 -12.530270879142531 1 I I 0 1 forward I I I I 
	cone -91.5 26.637681108802504 2 0 0 1 8.7461970713939508 4.8480962024633811 0 1 I I 0 -1 forward I I I I 
	nullbs 
	nullbs 
	F 3.6777708972760803 F 14.530979747091289 } I I #
point $-1 -84.71173954950207 33.980672328748611 289.06564155937502 #
face $-1 $372 $570 $3 $-1 $571 forward single #
loop $-1 $-1 $572 $395 #
cone-surface $-1 8.4999999999998597 15 85 -1 0 3.4914833611093821e-015 -2.4688515610404431e-014 -7.0710678118654746 -7.0710678118654746 1 I I 0 1 forward I I I I #
coedge $-1 $573 $574 $575 $576 1 $396 $-1 #
coedge $-1 $577 $398 $400 $495 1 $321 $-1 #
coedge $-1 $398 $577 $573 $578 1 $321 $-1 #
coedge $-1 $575 $401 $398 $492 0 $414 $-1 #
edge $-1 $497 $579 $491 $580 forward #
coedge $-1 $400 $399 $581 $582 0 $265 $-1 #
edge $-1 $583 $496 $399 $584 forward #
edge $-1 $585 $497 $400 $586 forward #
vertex $-1 $447 $587 #
vertex $-1 $402 $588 #
straight-curve $-1 -1.8749999999999991 45 62.5 0 0 -1 I I #
edge $-1 $589 $404 $403 $590 forward #
point $-1 -81.5 26.637681108802504 281.81986469144692 #
loop $-1 $553 $591 $407 #
plane-surface $-1 -105.0522565098438 46.897854884638463 377.5 0.84804809615642718 -0.52991926423320301 0 0 0 -1 forward_v I I I I #
straight-curve $-1 -16.937809605516641 58.583918110962969 0 0.84804809615642163 -0.5299192642332119 0 I I #
coedge $-1 $451 $411 $419 $510 1 $346 $-1 #
straight-curve $-1 -25.123723447100545 0 280 -1 0 0 I I #
edge $-1 $468 $415 $467 $592 forward #
face $-1 $593 $414 $3 $-1 $594 forward single #
point $-1 -30 0 280 #
coedge $-1 $419 $418 $453 $544 0 $420 $-1 #
edge $-1 $455 $421 $419 $543 forward #
point $-1 -56.499999999999993 0 280 #
coedge $-1 $595 $453 $423 $513 1 $454 $-1 #
edge $-1 $589 $514 $423 $596 forward #
vertex $-1 $424 $597 #
straight-curve $-1 -81.5 6.6987298107780857 2 0 0 1 I I #
face $-1 $598 $482 $3 $-1 $599 forward single #
plane-surface $-1 -81.5 0 0 -1 0 0 0 0 1 forward_v I I I I #
coedge $-1 $600 $550 $428 $519 1 $601 $-1 #
edge $-1 $523 $525 $428 $602 forward #
coedge $-1 $603 $429 $434 $530 1 $522 $-1 #
coedge $-1 $429 $603 $600 $604 0 $522 $-1 #
loop $-1 $-1 $520 $605 #
vertex $-1 $430 $606 #
straight-curve $-1 -86.614966128960987 117.91944542871884 2 0 0 1 I I #
vertex $-1 $432 $607 #
straight-curve $-1 -68.37127029806453 106.51951903843573 0.5 0 0 1 F -0.5 F 474.5 #
coedge $-1 $529 $433 $545 $608 0 $435 $-1 #
edge $-1 $437 $559 $473 $609 forward #
coedge $-1 $434 $527 $610 $611 0 $435 $-1 #
edge $-1 $612 $436 $520 $613 forward #
face $-1 $605 $435 $3 $-1 $614 forward single #
point $-1 -86.614966128960987 117.91944542871884 292 #
point $-1 -68.37127029806453 106.51951903843573 254.58683109339097 #
point $-1 0 48 0 #
coedge $-1 $443 $615 $616 $617 0 $414 $-1 #
coedge $-1 $446 $444 $618 $619 0 $360 $-1 #
coedge $-1 $616 $620 $444 $538 1 $621 $-1 #
edge $-1 $539 $622 $537 $623 forward #
vertex $-1 $445 $624 #
ellipse-curve $-1 -8.125 35 125.00000000000006 -0.84799830400508802 0.52999894000318004 0 8.75 14 -3.0550479409707093e-014 0.84799830400508802 I I #
face $-1 $625 $626 $3 $-1 $627 forward single #
cone-surface $-1 8.5 35 125 1 0 -3.4914833611093821e-015 -4.8880767055531349e-014 0 -14 1 I I 0 1 forward I I I I #
straight-curve $-1 -56.499999999999993 0 2 0 0 1 I I #
edge $-1 $514 $455 $509 $628 forward #
coedge $-1 $471 $629 $527 $608 1 $454 $-1 #
face $-1 $117 $454 $3 $-1 $630 reversed single #
point $-1 -56.5 0 252 #
coedge $-1 $548 $548 $459 $549 1 $626 $-1 #
edge $-1 $631 $631 $548 $632 forward #
coedge $-1 $518 $633 $461 $551 1 $601 $-1 #
edge $-1 $525 $554 $461 $634 forward #
coedge $-1 $563 $462 $633 $635 1 $553 $-1 #
loop $-1 $-1 $563 $407 #
vertex $-1 $463 $636 #
straight-curve $-1 -67.95160920177743 106.27130182151127 2 0 0 -1 I I #
point $-1 -67.95160920177743 106.27130182151127 345 #
straight-curve $-1 0 48 0 -0.52999894000318004 -0.84799830400508802 0 I I #
point $-1 -30 0 0 #
vertex $-1 $608 $637 #
ellipse-curve $-1 -63.0720776557325 115 252 0 0 -1 -2.7563735581699818 -9.6126169593831907 0 1 I I #
coedge $-1 $638 $639 $476 $562 0 $640 $-1 #
edge $-1 $567 $564 $561 $641 forward #
coedge $-1 $477 $552 $638 $642 1 $553 $-1 #
vertex $-1 $562 $643 #
straight-curve $-1 -105.0522565098438 46.897854884638463 345 0.52991926423320301 0.84804809615642718 0 F -401.5 F 401.5 #
coedge $-1 $569 $479 $639 $644 0 $482 $-1 #
vertex $-1 $644 $645 #
ellipse-curve $-1 -91.5 26.637681108802504 293.39644959638974 0.77885807032456777 -0.48668453763305963 0.39562389604166415 8.4804809615642718 -5.299192642332029 -23.214285714285708 0.3956238960416642 I I #
coedge $-1 $481 $566 $595 $646 0 $482 $-1 #
loop $-1 $-1 $647 $485 #
plane-surface $-1 8.5 5 125 0 1 0 1 0 -3.4914833611093821e-015 forward_v I I I I #
coedge $-1 $648 $649 $650 $651 1 $486 $-1 #
coedge $-1 $652 $488 $490 $578 0 $396 $-1 #
coedge $-1 $488 $652 $648 $653 0 $396 $-1 #
coedge $-1 $650 $491 $488 $576 0 $414 $-1 #
edge $-1 $579 $654 $575 $655 forward #
coedge $-1 $490 $489 $656 $657 1 $321 $-1 #
edge $-1 $579 $658 $573 $659 forward #
vertex $-1 $492 $660 #
ellipse-curve $-1 -8.1250000000000018 35 85.000000000000057 -0.84799830400508802 0.52999894000318004 0 6.25 10 -7.5495165674510645e-014 0.84799830400508791 I I #
coedge $-1 $618 $656 $493 $582 1 $661 $-1 #
edge $-1 $583 $585 $493 $662 forward #
vertex $-1 $582 $663 #
straight-curve $-1 8.4999999999999662 45 115.20204102886728 1 0 -3.4914833611093821e-015 I I #
vertex $-1 $657 $664 #
straight-curve $-1 8.4999999999998597 45 85 1 0 -3.4914833611093821e-015 F -81 F 81 #
point $-1 -1.875 45 115.20204102886733 #
point $-1 -1.875 45 85.000000000000043 #
vertex $-1 $499 $665 #
straight-curve $-1 -81.5 26.637681108802504 0.5 0 0 1 F -0.5 F 474.5 #
coedge $-1 $591 $591 $666 $667 0 $501 $-1 #
straight-curve $-1 -30 0 0 0 0 1 I I #
face $-1 $668 $669 $3 $-1 $670 reversed single #
plane-surface $-1 0 48 0 0.84799830400508802 -0.52999894000318004 0 0 0 -1 forward_v I I I I #
coedge $-1 $629 $512 $569 $646 1 $454 $-1 #
straight-curve $-1 -81.5 0 252 0 -1 0 I I #
point $-1 -81.5 6.6987298107780857 252 #
face $-1 $671 $640 $3 $-1 $672 reversed single #
cone-surface $-1 -91.5 26.637681108802504 2 0 0 1 8.7461970713939508 4.8480962024633811 0 1 I I 0 -1 forward I I I I #
coedge $-1 $673 $518 $521 $604 1 $601 $-1 #
loop $-1 $-1 $633 $671 #
straight-curve $-1 -56.933282763486034 99.372271180556737 475 0.84804809615642718 -0.52991926423320301 0 I I #
coedge $-1 $521 $520 $674 $675 0 $522 $-1 #
edge $-1 $676 $523 $521 $677 forward #
face $-1 $546 $678 $3 $-1 $679 reversed single #
point $-1 -86.614966128960987 117.91944542871884 475 #
point $-1 -68.37127029806453 106.51951903843573 475 #
edge $-1 $559 $680 $545 $681 forward #
ellipse-curve $-1 -63.0720776557325 115 254.58683109339097 0.73517823985394937 -0.45939035027537506 0.49847112425808282 8.4804809615642718 -5.299192642332029 -17.391304347826079 0.49847112425808293 I I #
coedge $-1 $682 $674 $529 $611 1 $640 $-1 #
edge $-1 $680 $612 $610 $683 forward #
vertex $-1 $675 $684 #
straight-curve $-1 -138.30495376266819 35.198173412791895 292 0.52991926423320301 0.84804809615642718 0 F -113.08742639732148 F 238.17370131696597 #
plane-surface $-1 -128.55240065686928 29.104101874110061 272 -0.73517823985394937 0.45939035027537506 -0.49847112425808282 -0.56119316561746435 0 0.82768486204850278 forward_v I I I I #
coedge $-1 $535 $685 $686 $687 0 $414 $-1 #
coedge $-1 $688 $537 $535 $617 1 $621 $-1 #
edge $-1 $689 $539 $535 $690 forward #
coedge $-1 $691 $581 $536 $619 1 $661 $-1 #
edge $-1 $622 $583 $618 $692 forward #
coedge $-1 $537 $688 $691 $693 0 $621 $-1 #
loop $-1 $-1 $616 $694 #
vertex $-1 $619 $695 #
straight-curve $-1 8.5000000000000338 45 134.79795897113272 -1 0 3.4914833611093821e-015 I I #
point $-1 -1.875 45 134.79795897113274 #
face $-1 $694 $696 $3 $-1 $697 reversed single #
loop $-1 $661 $548 $541 #
plane-surface $-1 -41.5 25 125.00000000000017 1 0 -3.4914833611093821e-015 -3.4914833611093821e-015 0 -1 forward_v I I I I #
straight-curve $-1 -123.44366136076671 17.937500000000039 252 0.96592582628906809 -0.25881904510252135 0 I I #
coedge $-1 $545 $595 $682 $698 1 $454 $-1 #
plane-surface $-1 -200 0 252 0 0 1 1 0 0 forward_v I I I I #
vertex $-1 $549 $699 #
ellipse-curve $-1 -41.5 35 125.00000000000017 1 0 -3.4914833611093821e-015 -2.2694641847210983e-014 0 -6.5 1 I I #
coedge $-1 $550 $673 $552 $635 0 $601 $-1 #
ellipse-curve $-1 -63.0720776557325 115 475 0 0 1 -2.7563735581699818 -9.6126169593831907 0 1 F -0.27925268031909173 F 0.27925268031909173 #
edge $-1 $700 $554 $633 $701 forward #
point $-1 -67.95160920177743 106.27130182151127 475 #
point $-1 -67.050911268849902 105.82563990901124 252 #
coedge $-1 $702 $561 $563 $642 0 $640 $-1 #
coedge $-1 $561 $682 $566 $644 1 $640 $-1 #
loop $-1 $-1 $561 $598 #
straight-curve $-1 -45.253945566670737 9.5317230803056603 181.30939309243362 -0.3355080918321216 0.20964872390347189 0.91841261581100608 I I #
edge $-1 $564 $700 $638 $703 forward #
point $-1 -105.0522565098438 46.89785488463847 345 #
edge $-1 $567 $704 $639 $705 forward #
point $-1 -86.200807357667969 35.118162070366779 293.39644959638974 #
edge $-1 $704 $589 $569 $706 forward #
coedge $-1 $707 $708 $709 $710 1 $570 $-1 #
coedge $-1 $711 $572 $574 $653 1 $486 $-1 #
coedge $-1 $572 $711 $707 $712 1 $486 $-1 #
coedge $-1 $709 $575 $572 $651 0 $414 $-1 #
edge $-1 $654 $713 $650 $714 forward #
coedge $-1 $574 $573 $715 $716 0 $396 $-1 #
edge $-1 $717 $654 $574 $718 forward #
vertex $-1 $651 $719 #
straight-curve $-1 -3.9747191011235818 41.640449438202268 75.000000000000043 -0.52999894000318004 -0.84799830400508802 1.8504824804267126e-015 I I #
coedge $-1 $581 $715 $577 $657 0 $661 $-1 #
edge $-1 $658 $585 $656 $720 forward #
vertex $-1 $716 $721 #
straight-curve $-1 8.4999999999998259 35 75 -1 0 3.4914833611093821e-015 F -81 F 81 #
point $-1 -8.125 35 75.000000000000057 #
loop $-1 $-1 $581 $541 #
straight-curve $-1 -41.5 45 125.00000000000017 -3.4914833611093821e-015 0 -1 I I #
point $-1 -41.500000000000036 45 115.20204102886746 #
point $-1 -41.500000000000142 45 85.000000000000171 #
point $-1 -81.5 26.637681108802504 252 #
coedge $-1 $666 $666 $591 $667 1 $722 $-1 #
edge $-1 $723 $723 $591 $724 forward #
face $-1 $725 $726 $3 $-1 $727 reversed single #
loop $-1 $728 $729 $593 #
cone-surface $-1 -109.45289095696232 64.387406521625451 307 0.84804809615642718 -0.52991926423320301 -3.4914833611093821e-015 2.649596321166015 4.2402404807821359 0 1 I I 0 1 forward I I I I #
face $-1 $531 $601 $3 $-1 $730 forward single #
plane-surface $-1 -94.027631259810249 40.008904449606831 1 0.52991926423320301 0.84804809615642718 0 0 0 -1 forward_v I I I I #
coedge $-1 $633 $600 $702 $731 1 $601 $-1 #
coedge $-1 $610 $702 $603 $675 1 $640 $-1 #
edge $-1 $612 $676 $603 $732 forward #
vertex $-1 $675 $733 #
straight-curve $-1 -105.16214037712309 88.237762063243892 475 0.52991926423320301 0.84804809615642718 0 I I #
loop $-1 $734 $735 $605 #
plane-surface $-1 -105.16214037712309 88.237762063243892 1 0.84804809615642718 -0.52991926423320301 0 0 0 -1 forward_v I I I I #
vertex $-1 $698 $736 #
straight-curve $-1 -118.79984755107036 23.010030335428226 252 -0.52991926423320301 -0.84804809615642718 0 F -238.17370131696597 F 113.08742639732148 #
coedge $-1 $639 $610 $629 $698 0 $640 $-1 #
straight-curve $-1 -61.824807259014449 19.886346686579529 165.09065288868015 -0.42272748791602105 0.26414945140834084 0.86690630305753513 I I #
point $-1 -123.7093146252852 58.556078697768939 292 #
coedge $-1 $615 $737 $738 $739 0 $414 $-1 #
coedge $-1 $740 $741 $615 $687 1 $696 $-1 #
edge $-1 $742 $689 $615 $743 forward #
coedge $-1 $620 $616 $741 $744 0 $621 $-1 #
vertex $-1 $687 $745 #
straight-curve $-1 -1.8749999999999991 45 62.5 0 0 -1 I I #
coedge $-1 $746 $618 $620 $693 1 $661 $-1 #
ellipse-curve $-1 -41.5 35 125.00000000000017 -1 0 3.4914833611093821e-015 -4.8880767055531349e-014 0 -14 1 I I #
edge $-1 $747 $622 $620 $662 forward #
face $-1 $748 $621 $3 $-1 $266 forward single #
point $-1 -41.499999999999964 45 134.79795897113289 #
loop $-1 $-1 $686 $625 #
cone-surface $-1 8.5000000000001403 35 165 -1 0 3.4914833611093821e-015 2.4688515610404431e-014 7.0710678118654746 7.0710678118654746 1 I I 0 1 forward I I I I #
edge $-1 $680 $704 $682 $749 forward #
point $-1 -41.499999999999979 35.000000000000043 131.50000000000017 #
vertex $-1 $731 $750 #
straight-curve $-1 -110.77803337701086 37.734696458526486 475 0.52991926423320301 0.84804809615642718 0 I I #
coedge $-1 $674 $638 $673 $731 0 $640 $-1 #
straight-curve $-1 -105.0522565098438 46.89785488463847 189.25 0 0 1 I I #
vertex $-1 $646 $751 #
straight-curve $-1 -86.200807357667969 35.118162070366779 0.5 0 0 -1 F -474.5 F 0.5 #
ellipse-curve $-1 -91.5 26.637681108802504 252 0 0 -1 8.7461970713939508 4.8480962024633811 0 1 I I #
coedge $-1 $752 $647 $649 $712 0 $570 $-1 #
coedge $-1 $647 $752 $753 $754 0 $570 $-1 #
coedge $-1 $737 $650 $647 $710 0 $414 $-1 #
edge $-1 $713 $755 $709 $756 forward #
coedge $-1 $649 $648 $757 $758 1 $486 $-1 #
edge $-1 $713 $759 $707 $760 forward #
vertex $-1 $710 $761 #
ellipse-curve $-1 -20.625 15 85.000000000000099 -0.84799830400508802 0.52999894000318004 0 -6.25 -10 7.5495165674510645e-014 0.84799830400508791 I I #
coedge $-1 $656 $757 $652 $716 1 $661 $-1 #
edge $-1 $658 $717 $652 $762 forward #
vertex $-1 $653 $763 #
straight-curve $-1 8.4999999999998259 15 75 1 0 -3.4914833611093821e-015 F -81 F 81 #
point $-1 -20.625 15 75.000000000000099 #
ellipse-curve $-1 -41.500000000000142 35 85.000000000000171 1 0 -3.4914833611093821e-015 -2.4688515610404431e-014 7.0710678118654746 -7.0710678118654746 1 I I #
point $-1 -41.500000000000178 35 75.000000000000171 #
loop $-1 $764 $666 $765 #
vertex $-1 $667 $766 #
ellipse-curve $-1 -86.505082261681522 76.579538250113302 440.00000000000028 -0.84804809615642718 0.52991926423320301 0 7.9487889634980453 12.720721442346408 0 1 I I #
face $-1 $767 $768 $3 $-1 $769 reversed single #
loop $-1 $-1 $770 $668 #
plane-surface $-1 -101.82045809155447 59.61813314352662 307 0.84804809615642718 -0.52991926423320301 -3.4914833611093821e-015 0.52991926423320301 0.84804809615642718 0 forward_v I I I I #
loop $-1 $-1 $771 $593 #
coedge $-1 $729 $729 $735 $772 1 $669 $-1 #
plane-surface $-1 -81.5 6.6987298107780857 475 0 0 1 1 0 0 forward_v I I I I #
edge $-1 $700 $676 $702 $773 forward #
straight-curve $-1 -123.7093146252852 58.556078697768939 2 0 0 1 I I #
point $-1 -123.7093146252852 58.556078697768939 475 #
loop $-1 $774 $775 $605 #
coedge $-1 $735 $735 $729 $772 0 $678 $-1 #
point $-1 -104.20420841368738 46.367935620405262 252 #
coedge $-1 $685 $709 $776 $777 0 $414 $-1 #
coedge $-1 $778 $779 $685 $739 1 $780 $-1 #
edge $-1 $781 $742 $685 $782 forward #
coedge $-1 $783 $686 $779 $784 1 $696 $-1 #
coedge $-1 $686 $783 $688 $744 1 $696 $-1 #
vertex $-1 $687 $785 #
ellipse-curve $-1 -8.1250000000000018 35 165.00000000000006 -0.84799830400508802 0.52999894000318004 0 6.25 10 -7.5495165674510645e-014 0.84799830400508791 I I #
edge $-1 $689 $747 $688 $786 forward #
point $-1 -1.875 45 165.00000000000003 #
coedge $-1 $787 $691 $783 $788 0 $661 $-1 #
vertex $-1 $693 $789 #
face $-1 $790 $791 $3 $-1 $792 reversed single #
straight-curve $-1 -123.1445893684411 58.203199192517936 252 0.84804809615642718 -0.52991926423320301 0 I I #
point $-1 -105.0522565098438 46.89785488463847 475 #
point $-1 -86.200807357667969 35.118162070366779 252 #
coedge $-1 $708 $707 $793 $794 0 $570 $-1 #
coedge $-1 $795 $776 $708 $754 1 $791 $-1 #
edge $-1 $796 $755 $708 $797 forward #
vertex $-1 $777 $798 #
straight-curve $-1 -26.875 5 62.5 0 0 1 I I #
coedge $-1 $715 $793 $711 $758 0 $661 $-1 #
edge $-1 $759 $717 $757 $799 forward #
vertex $-1 $794 $800 #
straight-curve $-1 8.4999999999998597 5 85 -1 0 3.4914833611093821e-015 F -81 F 81 #
point $-1 -26.875 5 85.000000000000128 #
straight-curve $-1 -41.500000000000178 25 75.000000000000171 0 -1 0 I I #
point $-1 -41.500000000000178 15 75.000000000000171 #
loop $-1 $-1 $801 $765 #
face $-1 $269 $722 $3 $-1 $802 reversed single #
point $-1 -94.453871225179569 63.858816807766893 440.00000000000017 #
face $-1 $803 $804 $3 $-1 $805 reversed single #
loop $-1 $806 $807 $725 #
cone-surface $-1 -85.606524066468182 102.54957084866467 307 0.84804809615642718 -0.52991926423320301 -3.4914833611093821e-015 2.649596321166015 4.2402404807821359 0 1 I I 0 1 forward I I I I #
coedge $-1 $770 $770 $771 $808 1 $726 $-1 #
coedge $-1 $771 $771 $770 $808 0 $728 $-1 #
edge $-1 $809 $809 $735 $810 forward #
straight-curve $-1 -94.027631259810249 40.008904449606831 475 -0.84804809615642718 0.52991926423320301 0 I I #
loop $-1 $811 $812 $605 #
coedge $-1 $775 $775 $807 $813 0 $734 $-1 #
coedge $-1 $753 $814 $737 $777 1 $791 $-1 #
edge $-1 $755 $781 $737 $815 forward #
coedge $-1 $816 $738 $814 $817 0 $780 $-1 #
coedge $-1 $738 $816 $740 $784 0 $780 $-1 #
loop $-1 $-1 $738 $790 #
vertex $-1 $777 $818 #
straight-curve $-1 -3.974719101123485 41.640449438202424 175.00000000000003 0.52999894000318004 0.84799830400508802 -1.8504824804267126e-015 I I #
coedge $-1 $741 $740 $746 $788 1 $696 $-1 #
edge $-1 $819 $742 $779 $820 forward #
point $-1 -8.125 35 175.00000000000006 #
straight-curve $-1 8.5000000000001403 45 165 -1 0 3.4914833611093821e-015 F -81 F 81 #
coedge $-1 $821 $746 $816 $822 1 $661 $-1 #
edge $-1 $747 $819 $746 $823 forward #
point $-1 -41.499999999999858 45 165.00000000000017 #
face $-1 $507 $780 $3 $-1 $824 forward single #
loop $-1 $-1 $776 $748 #
cone-surface $-1 8.5000000000001403 15 165 -1 0 3.4914833611093821e-015 2.4688515610404431e-014 -7.0710678118654746 7.0710678118654746 1 I I 0 1 forward I I I I #
coedge $-1 $757 $821 $752 $794 1 $661 $-1 #
edge $-1 $759 $796 $752 $825 forward #
coedge $-1 $814 $753 $821 $826 1 $791 $-1 #
vertex $-1 $754 $827 #
straight-curve $-1 8.5000000000001403 5 165 1 0 -3.4914833611093821e-015 F -81 F 81 #
point $-1 -26.875 5 165.00000000000011 #
ellipse-curve $-1 -41.500000000000142 15 85.000000000000171 1 0 -3.4914833611093821e-015 -2.4688515610404431e-014 -7.0710678118654746 -7.0710678118654746 1 I I #
point $-1 -41.500000000000142 5 85.000000000000171 #
coedge $-1 $801 $801 $828 $829 1 $764 $-1 #
cone-surface $-1 -11.452825751837896 29.681683365474953 440 0.84804809615642718 -0.52991926423320301 -3.4914833611093821e-015 7.9487889634980453 12.720721442346408 0 1 I I 0 1 forward I I I I #
face $-1 $830 $831 $3 $-1 $832 reversed single #
loop $-1 $-1 $833 $767 #
plane-surface $-1 -77.974091201060332 97.780297470565841 307 0.84804809615642718 -0.52991926423320301 -3.4914833611093821e-015 0.52991926423320301 0.84804809615642718 0 forward_v I I I I #
loop $-1 $-1 $834 $725 #
coedge $-1 $807 $807 $775 $813 1 $768 $-1 #
edge $-1 $835 $835 $770 $836 forward #
vertex $-1 $772 $837 #
ellipse-curve $-1 -117.08532382236926 69.156679899723713 307.00000000000006 0.84804809615642718 -0.52991926423320301 0 2.649596321166015 4.2402404807821359 0 1 I I #
loop $-1 $838 $839 $605 #
coedge $-1 $812 $812 $840 $841 0 $774 $-1 #
edge $-1 $842 $842 $775 $843 forward #
coedge $-1 $776 $795 $778 $817 1 $791 $-1 #
ellipse-curve $-1 -20.625 15 165.00000000000011 -0.84799830400508802 0.52999894000318004 0 -6.25 -10 7.5495165674510645e-014 0.84799830400508791 I I #
coedge $-1 $779 $778 $787 $822 0 $780 $-1 #
edge $-1 $781 $844 $778 $845 forward #
point $-1 -20.625 15 175.00000000000011 #
vertex $-1 $784 $846 #
straight-curve $-1 8.5000000000001741 35 175 1 0 -3.4914833611093821e-015 F -81 F 81 #
coedge $-1 $793 $787 $795 $826 0 $661 $-1 #
edge $-1 $844 $819 $816 $847 forward #
ellipse-curve $-1 -41.499999999999858 35 165.00000000000017 1 0 -3.4914833611093821e-015 2.4688515610404431e-014 7.0710678118654746 7.0710678118654746 1 I I #
plane-surface $-1 8.5000000000001741 25 175 -3.4914833611093821e-015 0 -1 -1 0 3.4914833611093821e-015 forward_v I I I I #
straight-curve $-1 -41.5 5 125.00000000000017 3.4914833611093821e-015 0 1 I I #
edge $-1 $844 $796 $821 $848 forward #
point $-1 -41.499999999999858 5 165.00000000000017 #
coedge $-1 $828 $828 $801 $829 0 $838 $-1 #
edge $-1 $849 $849 $828 $850 forward #
face $-1 $851 $852 $3 $-1 $853 reversed single #
loop $-1 $854 $840 $803 #
cone-surface $-1 -85.606524066468182 102.54957084866467 367 0.84804809615642718 -0.52991926423320301 -3.4914833611093821e-015 2.649596321166015 4.2402404807821359 0 1 I I 0 1 forward I I I I #
coedge $-1 $833 $833 $834 $855 1 $804 $-1 #
coedge $-1 $834 $834 $833 $855 0 $806 $-1 #
vertex $-1 $808 $856 #
ellipse-curve $-1 -101.82045809155447 59.61813314352662 307 0.84804809615642718 -0.52991926423320301 -3.4914833611093821e-015 2.649596321166015 4.2402404807821359 0 1 I I #
point $-1 -114.43572750120416 73.396920380506415 307 #
loop $-1 $522 $828 $605 #
coedge $-1 $839 $839 $857 $858 0 $811 $-1 #
coedge $-1 $840 $840 $812 $841 1 $831 $-1 #
edge $-1 $859 $859 $812 $860 forward #
vertex $-1 $813 $861 #
ellipse-curve $-1 -93.238956931875123 107.31884422676293 307.00000000000006 0.84804809615642718 -0.52991926423320301 0 2.649596321166015 4.2402404807821359 0 1 I I #
vertex $-1 $822 $862 #
straight-curve $-1 8.5000000000001741 15 175 -1 0 3.4914833611093821e-015 F -81 F 81 #
point $-1 -41.499999999999822 35 175.00000000000017 #
straight-curve $-1 -41.499999999999822 25 175.00000000000017 0 1 0 I I #
ellipse-curve $-1 -41.499999999999858 15 165.00000000000017 1 0 -3.4914833611093821e-015 2.4688515610404431e-014 -7.0710678118654746 7.0710678118654746 1 I I #
vertex $-1 $829 $863 #
ellipse-curve $-1 -105.16214037712179 88.237762063243082 440.0000000000004 0.84804809615642718 -0.52991926423320301 0 7.9487889634980453 12.720721442346408 0 1 I I #
face $-1 $864 $865 $3 $-1 $866 reversed single #
loop $-1 $-1 $867 $830 #
plane-surface $-1 -77.974091201060332 97.780297470565841 366.99999999999994 0.84804809615642718 -0.52991926423320301 -3.4914833611093821e-015 0.52991926423320301 0.84804809615642718 0 forward_v I I I I #
loop $-1 $-1 $868 $803 #
edge $-1 $869 $869 $833 $870 forward #
point $-1 -99.170861770388456 63.858373624308761 307 #
coedge $-1 $857 $857 $839 $858 1 $865 $-1 #
edge $-1 $871 $871 $839 $872 forward #
vertex $-1 $841 $873 #
ellipse-curve $-1 -93.238956931874952 107.31884422676282 367.00000000000006 0.84804809615642718 -0.52991926423320301 0 2.649596321166015 4.2402404807821359 0 1 I I #
point $-1 -90.589360610710017 111.55908470754564 307 #
point $-1 -41.499999999999822 15 175.00000000000017 #
point $-1 -113.11092934061983 75.51704062089668 440.00000000000051 #
face $-1 $765 $874 $3 $-1 $875 reversed single #
loop $-1 $876 $857 $851 #
cone-surface $-1 -109.45289095696232 64.387406521625451 367 0.84804809615642718 -0.52991926423320301 -3.4914833611093821e-015 2.649596321166015 4.2402404807821359 0 1 I I 0 1 forward I I I I #
coedge $-1 $867 $867 $868 $877 1 $852 $-1 #
coedge $-1 $868 $868 $867 $877 0 $854 $-1 #
vertex $-1 $855 $878 #
ellipse-curve $-1 -77.974091201060332 97.780297470565841 307 0.84804809615642718 -0.52991926423320301 -3.4914833611093821e-015 2.649596321166015 4.2402404807821359 0 1 I I #
vertex $-1 $858 $879 #
ellipse-curve $-1 -117.08532382236908 69.156679899723599 367.00000000000006 0.84804809615642718 -0.52991926423320301 0 2.649596321166015 4.2402404807821359 0 1 I I #
point $-1 -90.589360610710017 111.55908470754564 367.00000000000006 #
loop $-1 $-1 $880 $864 #
plane-surface $-1 -101.82045809155447 59.61813314352662 366.99999999999994 0.84804809615642718 -0.52991926423320301 -3.4914833611093821e-015 0.52991926423320301 0.84804809615642718 0 forward_v I I I I #
loop $-1 $-1 $881 $851 #
edge $-1 $882 $882 $867 $883 forward #
point $-1 -75.324494879894331 102.02053795134798 307 #
point $-1 -114.43572750120416 73.396920380506415 367.00000000000006 #
coedge $-1 $880 $880 $881 $884 1 $874 $-1 #
coedge $-1 $881 $881 $880 $884 0 $876 $-1 #
vertex $-1 $877 $885 #
ellipse-curve $-1 -77.974091201060332 97.780297470565841 366.99999999999994 0.84804809615642718 -0.52991926423320301 -3.4914833611093821e-015 2.649596321166015 4.2402404807821359 0 1 I I #
edge $-1 $886 $886 $880 $887 forward #
point $-1 -75.324494879894331 102.02053795134798 366.99999999999994 #
vertex $-1 $884 $888 #
ellipse-curve $-1 -101.82045809155447 59.61813314352662 366.99999999999994 0.84804809615642718 -0.52991926423320301 -3.4914833611093821e-015 2.649596321166015 4.2402404807821359 0 1 I I #
point $-1 -99.170861770388456 63.858373624308761 366.99999999999994 #
End-of-ACIS-data 

