600 0 1 0           
122 GICL ACIS Healer - Source: /gicl/data5/repository/NIST/Manfred_Osti/spectrometer/flange_pt202_16/flange_pt202_16.sat - 6 0 18 ACIS 6.0.3 Solaris 24 Sun Apr 14 00:37:52 2002 
1 9.999999999999999547e-07 1.000000000000000036e-10 
body $-1 $1 $-1 $2 #
lump $-1 $-1 $3 $0 #
transform $-1 1 0 0 0 1 0 0 0 1 0 0 0 1 no_rotate no_reflect no_shear #
shell $-1 $-1 $-1 $4 $-1 $1 #
face $-1 $5 $6 $3 $-1 $7 reversed single #
face $-1 $8 $9 $3 $-1 $10 forward single #
loop $-1 $-1 $11 $4 #
plane-surface $-1 -0.6892974684416010023 -1.5625 0 0 1 0 0 0 1 forward_v I I I I #
face $-1 $12 $13 $3 $-1 $14 forward single #
loop $-1 $-1 $15 $5 #
plane-surface $-1 -0.6892974684416010023 1.5625 0 0 1 0 0 0 1 forward_v I I I I #
coedge $-1 $11 $11 $16 $17 forward $6 $-1 #
face $-1 $18 $19 $3 $-1 $20 forward single #
loop $-1 $21 $22 $8 #
plane-surface $-1 0 0 -0.3987499999999999933 0 0 -1 -1 0 0 forward_v I I I I #
coedge $-1 $15 $15 $23 $24 reversed $9 $-1 #
coedge $-1 $16 $16 $11 $17 reversed $25 $-1 #
edge $-1 $26 -3.141592653589793116 $26 3.141592653589793116 $16 $27 forward 7 unknown #
face $-1 $28 $29 $3 $-1 $20 forward single #
loop $-1 $-1 $30 $12 #
plane-surface $-1 0 0 -0.4000000000000000222 0 0 -1 -1 0 0 forward_v I I I I #
loop $-1 $-1 $31 $8 #
coedge $-1 $22 $22 $32 $33 reversed $13 $-1 #
coedge $-1 $23 $23 $15 $24 forward $34 $-1 #
edge $-1 $35 0 $35 6.283185307179586232 $23 $36 forward 7 unknown #
loop $-1 $37 $16 $38 #
vertex $-1 $17 $39 #
ellipse-curve $-1 -0.4060000000000000275 -1.5625 -0.3400000000000000244 0 -1 0 -0.09500000000000000111 0 0 1 I I #
face $-1 $40 $41 $3 $-1 $20 forward single #
loop $-1 $-1 $42 $18 #
coedge $-1 $30 $30 $43 $44 reversed $19 $-1 #
coedge $-1 $31 $31 $45 $46 reversed $21 $-1 #
coedge $-1 $32 $32 $22 $33 forward $47 $-1 #
edge $-1 $48 0 $48 6.283185307179586232 $32 $49 forward 7 unknown #
loop $-1 $50 $23 $51 #
vertex $-1 $24 $52 #
ellipse-curve $-1 -0.4060000000000000275 1.5625 -0.3400000000000000244 0 -1 0 0.09500000000000000111 0 0 1 I I #
loop $-1 $-1 $53 $38 #
face $-1 $54 $25 $3 $-1 $55 reversed single #
point $-1 -0.3109999999999999987 -1.5625 -0.3400000000000000244 #
face $-1 $56 $57 $3 $-1 $58 reversed single #
loop $-1 $-1 $59 $28 #
coedge $-1 $42 $42 $60 $61 reversed $29 $-1 #
coedge $-1 $43 $43 $30 $44 forward $62 $-1 #
edge $-1 $63 0 $63 6.283185307179586232 $43 $64 forward 7 unknown #
coedge $-1 $45 $45 $31 $46 forward $65 $-1 #
edge $-1 $66 0 $66 6.283185307179586232 $45 $67 forward 7 unknown #
loop $-1 $68 $32 $69 #
vertex $-1 $33 $70 #
ellipse-curve $-1 0 -1.875 -0.3987499999999999933 0 0 -1 -0.140625 0 0 1 I I #
loop $-1 $-1 $71 $51 #
face $-1 $72 $34 $3 $-1 $73 reversed single #
point $-1 -0.3109999999999999987 1.5625 -0.3400000000000000244 #
coedge $-1 $53 $53 $74 $75 forward $37 $-1 #
face $-1 $76 $77 $3 $-1 $78 reversed single #
cone-surface $-1 -0.4060000000000000275 -2.125 -0.3400000000000000244 0 1 0 0.09500000000000000111 0 0 1 I I 0 1 0.09500000000000000111 forward I I I I #
face $-1 $79 $80 $3 $-1 $81 reversed single #
loop $-1 $-1 $82 $40 #
plane-surface $-1 2.233999999999999986 -0.0625 -0.6500000000000000222 0 -1 0 0 0 -1 forward_v I I I I #
coedge $-1 $59 $59 $83 $84 reversed $41 $-1 #
coedge $-1 $60 $60 $42 $61 forward $85 $-1 #
edge $-1 $86 0 $86 6.283185307179586232 $60 $87 forward 7 unknown #
loop $-1 $88 $43 $89 #
vertex $-1 $44 $90 #
ellipse-curve $-1 0 1.094000000000000083 -0.4000000000000000222 0 0 1 0.05999999999999999778 0 0 1 I I #
loop $-1 $91 $45 $92 #
vertex $-1 $46 $93 #
ellipse-curve $-1 0 -1.875 -0.3987499999999999933 0 0 1 0.203125 0 0 1 I I #
loop $-1 $-1 $94 $69 #
face $-1 $95 $47 $3 $-1 $96 reversed single #
point $-1 -0.140625 -1.875 -0.3987499999999999933 #
coedge $-1 $71 $71 $97 $98 reversed $50 $-1 #
face $-1 $99 $100 $3 $-1 $101 reversed single #
cone-surface $-1 -0.4060000000000000275 2.125 -0.3400000000000000244 0 1 0 0.09500000000000000111 0 0 1 I I 0 1 0.09500000000000000111 forward I I I I #
coedge $-1 $74 $74 $53 $75 reversed $102 $-1 #
edge $-1 $103 0 $103 6.283185307179586232 $53 $104 forward 7 unknown #
face $-1 $105 $106 $3 $-1 $107 reversed single #
loop $-1 $108 $109 $54 #
cone-surface $-1 0.4060000000000000275 -2.125 -0.3400000000000000244 0 1 0 0.09500000000000000111 0 0 1 I I 0 1 0.09500000000000000111 forward I I I I #
face $-1 $110 $111 $3 $-1 $112 reversed single #
loop $-1 $-1 $113 $56 #
plane-surface $-1 2.233999999999999986 0.0625 -0.6500000000000000222 0 0 1 1 0 0 forward_v I I I I #
coedge $-1 $114 $115 $116 $117 reversed $57 $-1 #
coedge $-1 $83 $83 $59 $84 forward $118 $-1 #
edge $-1 $119 0 $119 6.283185307179586232 $83 $120 forward 7 unknown #
loop $-1 $121 $60 $122 #
vertex $-1 $61 $123 #
ellipse-curve $-1 1.09375 0 -0.4000000000000000222 0 0 1 0.05999999999999999778 0 0 1 I I #
loop $-1 $-1 $124 $89 #
face $-1 $125 $62 $3 $-1 $126 reversed single #
point $-1 0.05999999999999999778 1.094000000000000083 -0.4000000000000000222 #
loop $-1 $-1 $127 $92 #
face $-1 $128 $65 $3 $-1 $129 reversed single #
point $-1 0.203125 -1.875 -0.3987499999999999933 #
coedge $-1 $94 $94 $130 $131 reversed $68 $-1 #
face $-1 $132 $133 $3 $-1 $134 reversed single #
cone-surface $-1 0 -1.875 0 0 0 1 -0.140625 0 0 1 I I 0 1 0.140625 forward I I I I #
coedge $-1 $97 $97 $71 $98 forward $135 $-1 #
edge $-1 $136 -3.141592653589793116 $136 3.141592653589793116 $71 $137 forward 7 unknown #
face $-1 $38 $138 $3 $-1 $7 reversed single #
loop $-1 $139 $140 $72 #
cone-surface $-1 0.4060000000000000275 2.125 -0.3400000000000000244 0 1 0 0.09500000000000000111 0 0 1 I I 0 1 0.09500000000000000111 forward I I I I #
loop $-1 $141 $74 $142 #
vertex $-1 $75 $143 #
ellipse-curve $-1 -0.4060000000000000275 -2.125 -0.3400000000000000244 0 -1 0 0.09500000000000000111 0 0 1 I I #
face $-1 $-1 $144 $3 $-1 $145 reversed single #
loop $-1 $146 $147 $76 #
plane-surface $-1 0 0 -0.5500000000000000444 0 0 1 1 0 0 forward_v I I I I #
loop $-1 $-1 $148 $54 #
coedge $-1 $109 $109 $149 $150 reversed $77 $-1 #
face $-1 $151 $152 $3 $-1 $153 reversed single #
loop $-1 $-1 $154 $79 #
plane-surface $-1 2.233999999999999986 0.0625 -0.6800000000000000488 0 1 0 0 0 1 forward_v I I I I #
coedge $-1 $155 $156 $157 $158 reversed $80 $-1 #
coedge $-1 $159 $82 $160 $161 reversed $57 $-1 #
coedge $-1 $82 $159 $162 $163 forward $57 $-1 #
coedge $-1 $164 $165 $82 $117 forward $166 $-1 #
edge $-1 $167 -0.6093279241593598794 $168 0 $82 $169 forward 7 unknown #
loop $-1 $170 $83 $171 #
vertex $-1 $84 $172 #
ellipse-curve $-1 0 -1.094000000000000083 -0.4000000000000000222 0 0 1 0.05999999999999999778 0 0 1 I I #
loop $-1 $-1 $173 $122 #
face $-1 $174 $85 $3 $-1 $175 reversed single #
point $-1 1.153750000000000053 0 -0.4000000000000000222 #
coedge $-1 $124 $124 $176 $177 reversed $88 $-1 #
face $-1 $122 $178 $3 $-1 $179 reversed single #
cone-surface $-1 0 1.094000000000000083 -0.5899999999999999689 0 0 -1 0.05999999999999999778 0 0 1 I I 0 1 0.05999999999999999778 forward I I I I #
coedge $-1 $127 $127 $180 $181 reversed $91 $-1 #
face $-1 $69 $182 $3 $-1 $183 reversed single #
cone-surface $-1 0 -1.875 -0.6800000000000000488 0 0 -1 0.203125 0 0 1 I I 0 1 0.203125 forward I I I I #
coedge $-1 $130 $130 $94 $131 forward $184 $-1 #
edge $-1 $185 -3.141592653589793116 $185 3.141592653589793116 $94 $186 forward 7 unknown #
face $-1 $51 $187 $3 $-1 $10 forward single #
loop $-1 $188 $189 $95 #
cone-surface $-1 0 1.875 0 0 0 1 -0.140625 0 0 1 I I 0 1 0.140625 forward I I I I #
loop $-1 $190 $97 $191 #
vertex $-1 $98 $192 #
ellipse-curve $-1 -0.4060000000000000275 2.125 -0.3400000000000000244 0 -1 0 -0.09500000000000000111 0 0 1 I I #
loop $-1 $-1 $149 $99 #
loop $-1 $-1 $193 $72 #
coedge $-1 $140 $140 $194 $195 forward $100 $-1 #
loop $-1 $-1 $196 $142 #
face $-1 $197 $198 $3 $-1 $199 reversed single #
point $-1 -0.3109999999999999987 -2.125 -0.3400000000000000244 #
loop $-1 $200 $201 $105 #
cone-surface $-1 0 0 -0.5899999999999999689 0 0 1 1.245000000000000107 0 0 1 I I 0 1 1.245000000000000107 forward I I I I #
loop $-1 $202 $203 $76 #
coedge $-1 $147 $147 $201 $204 forward $106 $-1 #
coedge $-1 $148 $148 $196 $205 forward $108 $-1 #
coedge $-1 $149 $149 $109 $150 forward $138 $-1 #
edge $-1 $206 -3.141592653589793116 $206 3.141592653589793116 $109 $207 forward 7 unknown #
face $-1 $208 $209 $3 $-1 $210 forward single #
loop $-1 $211 $212 $110 #
plane-surface $-1 0 0 -0.6800000000000000488 0 0 1 1 0 0 forward_v I I I I #
coedge $-1 $213 $214 $215 $216 reversed $111 $-1 #
coedge $-1 $217 $113 $159 $218 reversed $80 $-1 #
coedge $-1 $113 $217 $213 $219 forward $80 $-1 #
coedge $-1 $215 $162 $113 $158 forward $220 $-1 #
edge $-1 $221 -0.05596074840397798067 $222 0 $113 $223 forward 7 unknown #
coedge $-1 $115 $114 $155 $218 forward $57 $-1 #
coedge $-1 $224 $225 $114 $161 forward $226 $-1 #
edge $-1 $227 -0.03000000000000002665 $167 0 $114 $228 forward 7 unknown #
coedge $-1 $157 $229 $115 $163 reversed $220 $-1 #
edge $-1 $221 -0.03000000000000002665 $168 0 $115 $230 forward 7 unknown #
coedge $-1 $231 $116 $229 $232 reversed $166 $-1 #
coedge $-1 $116 $233 $224 $234 forward $166 $-1 #
loop $-1 $235 $231 $236 #
vertex $-1 $161 $237 #
vertex $-1 $163 $238 #
straight-curve $-1 2.233125556255179944 -0.06249999999999920203 -0.6800000000000000488 1 1.298207211062510005e-15 0 I I #
loop $-1 $-1 $239 $171 #
face $-1 $89 $118 $3 $-1 $240 reversed single #
point $-1 0.05999999999999999778 -1.094000000000000083 -0.4000000000000000222 #
coedge $-1 $173 $173 $241 $242 reversed $121 $-1 #
face $-1 $92 $243 $3 $-1 $14 forward single #
cone-surface $-1 1.09375 0 -0.5899999999999999689 0 0 -1 0.05999999999999999778 0 0 1 I I 0 1 0.05999999999999999778 forward I I I I #
coedge $-1 $176 $176 $124 $177 forward $244 $-1 #
edge $-1 $245 -3.141592653589793116 $245 3.141592653589793116 $176 $246 forward 7 unknown #
loop $-1 $247 $248 $125 #
cone-surface $-1 -1.094000000000000083 0 -0.5899999999999999689 0 0 -1 0.05999999999999999778 0 0 1 I I 0 1 0.05999999999999999778 forward I I I I #
coedge $-1 $180 $180 $127 $181 forward $249 $-1 #
edge $-1 $250 -3.141592653589793116 $250 3.141592653589793116 $127 $251 forward 7 unknown #
loop $-1 $252 $253 $128 #
cone-surface $-1 0 1.875 -0.6800000000000000488 0 0 -1 0.2030000000000000138 0 0 1 I I 0 1 0.2030000000000000138 forward I I I I #
loop $-1 $254 $130 $208 #
vertex $-1 $131 $255 #
ellipse-curve $-1 0 -1.875 0 0 0 -1 0.140625 0 0 1 I I #
loop $-1 $-1 $194 $132 #
loop $-1 $-1 $256 $95 #
coedge $-1 $189 $189 $257 $258 forward $133 $-1 #
loop $-1 $-1 $259 $191 #
face $-1 $142 $260 $3 $-1 $261 reversed single #
point $-1 -0.3109999999999999987 2.125 -0.3400000000000000244 #
coedge $-1 $193 $193 $259 $262 reversed $139 $-1 #
coedge $-1 $194 $194 $140 $195 reversed $187 $-1 #
edge $-1 $263 0 $263 6.283185307179586232 $140 $264 forward 7 unknown #
coedge $-1 $196 $196 $148 $205 reversed $141 $-1 #
face $-1 $171 $265 $3 $-1 $20 forward single #
loop $-1 $102 $266 $142 #
plane-surface $-1 0.6892974684416010023 -2.125 0 0 1 0 0 0 1 forward_v I I I I #
loop $-1 $-1 $267 $105 #
coedge $-1 $201 $201 $147 $204 reversed $144 $-1 #
loop $-1 $244 $268 $76 #
coedge $-1 $203 $203 $269 $270 reversed $146 $-1 #
edge $-1 $271 -3.141592653589793116 $271 3.141592653589793116 $201 $272 forward 7 unknown #
edge $-1 $273 0 $273 6.283185307179586232 $148 $274 forward 7 unknown #
vertex $-1 $150 $275 #
ellipse-curve $-1 0.4060000000000000275 -1.5625 -0.3400000000000000244 0 -1 0 -0.09500000000000000111 0 0 1 I I #
face $-1 $276 $277 $3 $-1 $278 forward single #
loop $-1 $-1 $279 $151 #
cone-surface $-1 0 0 -0.713999999999999968 0 0 1 -2.233999999999999986 0 0 1 I I 0 1 2.233999999999999986 forward I I I I #
loop $-1 $280 $281 $110 #
coedge $-1 $212 $212 $282 $283 forward $152 $-1 #
coedge $-1 $284 $154 $156 $219 reversed $111 $-1 #
coedge $-1 $154 $284 $285 $286 forward $111 $-1 #
coedge $-1 $287 $157 $154 $216 forward $220 $-1 #
edge $-1 $222 -0.03000000000000002665 $288 0 $154 $289 forward 7 unknown #
coedge $-1 $156 $155 $225 $290 reversed $80 $-1 #
edge $-1 $227 -0.6093279241593598794 $221 0 $159 $291 forward 7 unknown #
edge $-1 $292 -0.6093279241593598794 $222 0 $156 $293 forward 7 unknown #
loop $-1 $-1 $294 $276 #
vertex $-1 $218 $295 #
vertex $-1 $219 $296 #
ellipse-curve $-1 0 0 -0.6500000000000000222 0 0 1 2.233125556255179944 0.06249999999999920203 0 1 I I #
coedge $-1 $297 $160 $165 $234 reversed $226 $-1 #
coedge $-1 $160 $298 $217 $290 forward $226 $-1 #
loop $-1 $-1 $299 $300 #
vertex $-1 $161 $301 #
straight-curve $-1 1.623797632095820065 -0.0625 -0.6800000000000000488 1.480297366166870128e-14 -2.498001805406600007e-14 -1 I I #
coedge $-1 $162 $294 $164 $232 forward $220 $-1 #
straight-curve $-1 2.233125556255179944 -0.06249999999999920203 -0.6800000000000000488 0 2.382353573674810133e-14 -1 I I #
coedge $-1 $302 $164 $266 $303 reversed $166 $-1 #
edge $-1 $304 -1.229149195767548219 $168 0 $164 $305 forward 7 unknown #
coedge $-1 $165 $302 $306 $307 forward $166 $-1 #
edge $-1 $308 -3.064650598775136903 $167 -4.309504758308313078e-16 $224 $309 forward 7 unknown #
loop $-1 $310 $311 $236 #
face $-1 $312 $249 $3 $-1 $153 reversed single #
point $-1 1.623797632095820065 -0.0625 -0.6800000000000000488 #
point $-1 2.233125556255179944 -0.06249999999999920203 -0.6800000000000000488 #
coedge $-1 $239 $239 $268 $313 reversed $170 $-1 #
cone-surface $-1 0 -1.094000000000000083 -0.5899999999999999689 0 0 -1 0.05999999999999999778 0 0 1 I I 0 1 0.05999999999999999778 forward I I I I #
coedge $-1 $241 $241 $173 $242 forward $314 $-1 #
edge $-1 $315 -3.141592653589793116 $315 3.141592653589793116 $241 $316 forward 7 unknown #
loop $-1 $317 $257 $174 #
loop $-1 $318 $176 $76 #
vertex $-1 $177 $319 #
ellipse-curve $-1 0 1.094000000000000083 -0.5500000000000000444 0 0 1 -0.05999999999999999778 0 0 1 I I #
loop $-1 $-1 $320 $125 #
coedge $-1 $248 $248 $321 $322 forward $178 $-1 #
loop $-1 $166 $180 $236 #
vertex $-1 $181 $323 #
ellipse-curve $-1 0 -1.875 -0.6800000000000000488 0 0 1 -0.203125 0 0 1 I I #
loop $-1 $-1 $282 $128 #
coedge $-1 $253 $253 $324 $325 forward $182 $-1 #
loop $-1 $-1 $326 $208 #
point $-1 -0.140625 -1.875 0 #
coedge $-1 $256 $256 $326 $327 reversed $188 $-1 #
coedge $-1 $257 $257 $189 $258 reversed $243 $-1 #
edge $-1 $328 0 $328 6.283185307179586232 $189 $329 forward 7 unknown #
coedge $-1 $259 $259 $193 $262 forward $190 $-1 #
loop $-1 $135 $330 $191 #
plane-surface $-1 -0.6892974684416010023 2.125 0 0 -1 0 0 0 -1 forward_v I I I I #
edge $-1 $331 -3.141592653589793116 $331 3.141592653589793116 $193 $332 forward 7 unknown #
vertex $-1 $195 $333 #
ellipse-curve $-1 0.4060000000000000275 1.5625 -0.3400000000000000244 0 -1 0 0.09500000000000000111 0 0 1 I I #
loop $-1 $-1 $321 $197 #
coedge $-1 $334 $335 $231 $303 forward $198 $-1 #
coedge $-1 $267 $267 $336 $337 forward $200 $-1 #
coedge $-1 $268 $268 $239 $313 forward $202 $-1 #
coedge $-1 $269 $269 $203 $270 forward $338 $-1 #
edge $-1 $339 -3.141592653589793116 $339 3.141592653589793116 $203 $340 forward 7 unknown #
vertex $-1 $204 $341 #
ellipse-curve $-1 0 0 -0.5500000000000000444 0 0 -1 -1.245000000000000107 0 0 1 I I #
vertex $-1 $205 $342 #
ellipse-curve $-1 0.4060000000000000275 -2.125 -0.3400000000000000244 0 -1 0 0.09500000000000000111 0 0 1 I I #
point $-1 0.5010000000000000009 -1.5625 -0.3400000000000000244 #
face $-1 $236 $220 $3 $-1 $210 forward single #
loop $-1 $343 $344 $208 #
plane-surface $-1 0 0 0 0 0 1 1 0 0 forward_v I I I I #
coedge $-1 $345 $346 $335 $347 reversed $209 $-1 #
loop $-1 $348 $349 $110 #
coedge $-1 $350 $351 $330 $352 reversed $211 $-1 #
coedge $-1 $282 $282 $212 $283 reversed $252 $-1 #
edge $-1 $353 -3.141592653589793116 $353 3.141592653589793116 $282 $354 forward 7 unknown #
coedge $-1 $214 $213 $298 $355 forward $111 $-1 #
coedge $-1 $356 $350 $214 $286 reversed $211 $-1 #
edge $-1 $357 -0.6093279241593598794 $288 0 $214 $358 forward 7 unknown #
coedge $-1 $359 $215 $350 $360 reversed $220 $-1 #
vertex $-1 $216 $361 #
straight-curve $-1 2.233125556255179944 0.0625 -0.6800000000000000488 -2.960594732333749723e-14 2.636779683484740157e-14 -1 I I #
edge $-1 $292 -0.07694205481465633822 $227 0 $217 $362 forward 7 unknown #
straight-curve $-1 2.233125556255179944 -0.06249999999999990286 -0.6500000000000000222 1 -1.104614907658449932e-15 0 I I #
vertex $-1 $290 $363 #
straight-curve $-1 2.233125556255179944 0.06249999999999920203 -0.6500000000000000222 1 -1.298207211062510005e-15 0 I I #
coedge $-1 $229 $364 $334 $365 forward $220 $-1 #
point $-1 2.233125556255179944 -0.06249999999999990286 -0.6500000000000000222 #
point $-1 2.233125556255179944 0.06249999999999920203 -0.6500000000000000222 #
coedge $-1 $299 $224 $366 $367 reversed $226 $-1 #
coedge $-1 $225 $368 $284 $355 reversed $226 $-1 #
coedge $-1 $369 $297 $370 $371 forward $226 $-1 #
face $-1 $372 $373 $3 $-1 $374 reversed single #
point $-1 1.623797632095820065 -0.06249999999999929917 -0.6500000000000000222 #
coedge $-1 $233 $231 $346 $375 reversed $166 $-1 #
edge $-1 $376 -1.378594936883202005 $304 0 $266 $377 forward 7 unknown #
vertex $-1 $365 $378 #
ellipse-curve $-1 0 0 -0.6800000000000000488 0 0 1 2.233125556255179944 -0.06249999999999920203 0 1 I I #
coedge $-1 $379 $366 $233 $307 reversed $380 $-1 #
edge $-1 $381 -0.6093279241593598794 $308 0 $306 $382 forward 7 unknown #
vertex $-1 $367 $383 #
ellipse-curve $-1 0 0 -0.6800000000000000488 0 0 1 1.623797632095820065 -0.06249999999999929917 0 1 I I #
loop $-1 $384 $385 $236 #
coedge $-1 $311 $311 $386 $387 reversed $235 $-1 #
face $-1 $388 $389 $3 $-1 $390 reversed single #
edge $-1 $391 -3.141592653589793116 $391 3.141592653589793116 $268 $392 forward 7 unknown #
loop $-1 $-1 $241 $76 #
vertex $-1 $242 $393 #
ellipse-curve $-1 1.09375 0 -0.5500000000000000444 0 0 1 -0.05999999999999999778 0 0 1 I I #
loop $-1 $-1 $324 $174 #
loop $-1 $314 $394 $76 #
point $-1 0.05999999999999999778 1.094000000000000083 -0.5500000000000000444 #
coedge $-1 $320 $320 $394 $395 reversed $247 $-1 #
coedge $-1 $321 $321 $248 $322 reversed $265 $-1 #
edge $-1 $396 0 $396 6.283185307179586232 $248 $397 forward 7 unknown #
point $-1 0.203125 -1.875 -0.6800000000000000488 #
coedge $-1 $324 $324 $253 $325 reversed $317 $-1 #
edge $-1 $398 0 $398 6.283185307179586232 $253 $399 forward 7 unknown #
coedge $-1 $326 $326 $256 $327 forward $254 $-1 #
edge $-1 $400 -3.141592653589793116 $400 3.141592653589793116 $256 $401 forward 7 unknown #
vertex $-1 $258 $402 #
ellipse-curve $-1 0 1.875 -0.3987499999999999933 0 0 -1 -0.140625 0 0 1 I I #
coedge $-1 $403 $404 $281 $352 forward $260 $-1 #
vertex $-1 $262 $405 #
ellipse-curve $-1 0.4060000000000000275 2.125 -0.3400000000000000244 0 -1 0 -0.09500000000000000111 0 0 1 I I #
point $-1 0.5010000000000000009 1.5625 -0.3400000000000000244 #
coedge $-1 $406 $266 $294 $365 reversed $198 $-1 #
coedge $-1 $266 $406 $279 $347 forward $198 $-1 #
coedge $-1 $336 $336 $267 $337 reversed $407 $-1 #
edge $-1 $408 0 $408 6.283185307179586232 $267 $409 forward 7 unknown #
loop $-1 $-1 $269 $410 #
vertex $-1 $270 $411 #
ellipse-curve $-1 0 0 -0.5500000000000000444 0 0 -1 -0.9375 0 0 1 I I #
point $-1 1.245000000000000107 0 -0.5500000000000000444 #
point $-1 0.5010000000000000009 -2.125 -0.3400000000000000244 #
loop $-1 $412 $413 $208 #
coedge $-1 $344 $344 $414 $415 reversed $277 $-1 #
coedge $-1 $416 $279 $417 $418 forward $209 $-1 #
coedge $-1 $279 $419 $302 $375 forward $209 $-1 #
edge $-1 $420 -0.6800000000000000488 $376 0 $335 $421 forward 7 unknown #
loop $-1 $422 $423 $110 #
coedge $-1 $349 $349 $424 $425 reversed $280 $-1 #
coedge $-1 $285 $281 $287 $360 forward $211 $-1 #
coedge $-1 $281 $426 $427 $428 forward $211 $-1 #
edge $-1 $429 -1.378594936883202005 $430 0 $330 $431 forward 7 unknown #
vertex $-1 $283 $432 #
ellipse-curve $-1 0 1.875 -0.6800000000000000488 0 0 1 -0.2030000000000000138 0 0 1 I I #
edge $-1 $292 -0.03000000000000002665 $357 0 $284 $433 forward 7 unknown #
coedge $-1 $426 $285 $368 $434 reversed $211 $-1 #
vertex $-1 $355 $435 #
straight-curve $-1 2.233125556255179944 0.0625 -0.6800000000000000488 1 0 0 I I #
coedge $-1 $364 $287 $404 $436 reversed $220 $-1 #
edge $-1 $429 -1.229149195767548219 $288 -3.559294101735785427e-16 $350 $437 forward 7 unknown #
point $-1 2.233125556255179944 0.0625 -0.6800000000000000488 #
ellipse-curve $-1 0 0 -0.6500000000000000222 0 0 -1 1.623797632095820065 -0.06249999999999929917 0 1 I I #
point $-1 1.623797632095820065 0.0625 -0.6500000000000000222 #
coedge $-1 $294 $359 $438 $439 forward $220 $-1 #
edge $-1 $440 -0.6800000000000000488 $304 0 $334 $441 forward 7 unknown #
coedge $-1 $306 $442 $297 $367 forward $380 $-1 #
edge $-1 $443 -0.03000000000000002665 $308 -0 $366 $444 forward 7 unknown #
coedge $-1 $298 $369 $356 $434 forward $226 $-1 #
coedge $-1 $368 $299 $445 $446 forward $226 $-1 #
coedge $-1 $447 $448 $299 $371 reversed $449 $-1 #
edge $-1 $443 -0.07694205481465603291 $450 4.309504758308313078e-16 $370 $451 forward 7 unknown #
face $-1 $410 $452 $3 $-1 $453 forward single #
loop $-1 $226 $454 $300 #
cone-surface $-1 0 0 -0.713999999999999968 0 0 1 -1.625 0 0 1 I I 0 1 1.625 forward I I I I #
edge $-1 $381 -1.229149195767547997 $376 0 $302 $455 forward 7 unknown #
vertex $-1 $347 $456 #
straight-curve $-1 0.6892974684416010023 -2.125 -0.6800000000000000488 1 0 0 I I #
point $-1 0.6892974684416010023 -2.125 -0.6800000000000000488 #
coedge $-1 $442 $306 $419 $457 reversed $380 $-1 #
loop $-1 $-1 $306 $458 #
vertex $-1 $457 $459 #
straight-curve $-1 -1.623797632095820065 -0.0625 -0.6800000000000000488 1 0 0 I I #
point $-1 -1.623797632095820065 -0.0625 -0.6800000000000000488 #
loop $-1 $460 $461 $236 #
coedge $-1 $385 $385 $462 $463 reversed $310 $-1 #
coedge $-1 $386 $386 $311 $387 forward $464 $-1 #
edge $-1 $465 0 $465 6.283185307179586232 $386 $466 forward 7 unknown #
face $-1 $467 $468 $3 $-1 $469 forward single #
loop $-1 $407 $470 $312 #
plane-surface $-1 0 0 -0.5899999999999999689 0 0 1 1 0 0 forward_v I I I I #
vertex $-1 $313 $471 #
ellipse-curve $-1 0 -1.094000000000000083 -0.5500000000000000444 0 0 1 -0.05999999999999999778 0 0 1 I I #
point $-1 1.153750000000000053 0 -0.5500000000000000444 #
coedge $-1 $394 $394 $320 $395 forward $318 $-1 #
edge $-1 $472 -3.141592653589793116 $472 3.141592653589793116 $394 $473 forward 7 unknown #
vertex $-1 $322 $474 #
ellipse-curve $-1 -1.094000000000000083 0 -0.4000000000000000222 0 0 1 0.05999999999999999778 0 0 1 I I #
vertex $-1 $325 $475 #
ellipse-curve $-1 0 1.875 -0.3987499999999999933 0 0 1 0.2030000000000000138 0 0 1 I I #
vertex $-1 $327 $476 #
ellipse-curve $-1 0 1.875 0 0 0 -1 0.140625 0 0 1 I I #
point $-1 -0.140625 1.875 -0.3987499999999999933 #
coedge $-1 $477 $330 $416 $478 reversed $260 $-1 #
coedge $-1 $330 $477 $359 $436 forward $260 $-1 #
point $-1 0.5010000000000000009 2.125 -0.3400000000000000244 #
coedge $-1 $335 $334 $479 $480 reversed $198 $-1 #
loop $-1 $-1 $336 $312 #
vertex $-1 $337 $481 #
ellipse-curve $-1 0 0 -0.5899999999999999689 0 0 -1 1.245000000000000107 0 0 1 I I #
face $-1 $482 $483 $3 $-1 $484 reversed single #
point $-1 0.9375 0 -0.5500000000000000444 #
loop $-1 $485 $486 $208 #
coedge $-1 $413 $413 $487 $488 forward $343 $-1 #
coedge $-1 $414 $414 $344 $415 forward $489 $-1 #
edge $-1 $490 0 $490 6.283185307179586232 $414 $491 forward 7 unknown #
coedge $-1 $427 $345 $403 $478 forward $209 $-1 #
coedge $-1 $479 $492 $345 $418 reversed $493 $-1 #
edge $-1 $420 -2.514259139939074128 $494 0 $345 $495 forward 7 unknown #
coedge $-1 $346 $496 $379 $457 forward $209 $-1 #
vertex $-1 $347 $497 #
straight-curve $-1 -0.6892974684416010023 -2.125 -0.6800000000000000488 0 0 -1 I I #
loop $-1 $498 $499 $110 #
coedge $-1 $423 $423 $500 $501 reversed $348 $-1 #
coedge $-1 $424 $424 $349 $425 forward $502 $-1 #
edge $-1 $503 0 $503 6.283185307179586232 $424 $504 forward 7 unknown #
coedge $-1 $351 $356 $505 $506 reversed $211 $-1 #
coedge $-1 $507 $416 $351 $428 reversed $209 $-1 #
edge $-1 $508 -1.229149195767547997 $430 0 $351 $509 forward 7 unknown #
vertex $-1 $436 $510 #
vertex $-1 $478 $511 #
straight-curve $-1 -0.6892974684416010023 2.125 -0.6800000000000000488 -1 0 0 I I #
point $-1 0.2030000000000000138 1.875 -0.6800000000000000488 #
straight-curve $-1 1.623797632095820065 0.0625 -0.6800000000000000488 0 0 -1 I I #
edge $-1 $512 -3.064650598775136903 $357 -4.309504758308313078e-16 $368 $513 forward 7 unknown #
point $-1 1.623797632095820065 0.0625 -0.6800000000000000488 #
edge $-1 $514 -0.6800000000000000488 $429 0 $404 $515 forward 7 unknown #
ellipse-curve $-1 0 0 -0.6800000000000000488 0 0 -1 2.233125556255179944 0.06249999999999920203 0 1 I I #
coedge $-1 $492 $479 $364 $439 reversed $493 $-1 #
edge $-1 $514 -2.514259139939074128 $440 4.449117627169738686e-16 $364 $516 forward 7 unknown #
vertex $-1 $365 $517 #
straight-curve $-1 0.6892974684416010023 -2.125 -0.6800000000000000488 1.469412826709770058e-15 0 -1 I I #
coedge $-1 $366 $379 $447 $518 forward $380 $-1 #
vertex $-1 $518 $519 #
straight-curve $-1 -1.623797632095820065 -0.0625 -0.6800000000000000488 -1.480297366166870128e-14 -1.711593829630449877e-14 -1 I I #
coedge $-1 $520 $505 $369 $446 reversed $521 $-1 #
edge $-1 $450 -0.03000000000000002665 $512 0 $445 $522 forward 7 unknown #
coedge $-1 $523 $370 $442 $518 reversed $449 $-1 #
coedge $-1 $370 $523 $520 $524 forward $449 $-1 #
loop $-1 $-1 $523 $525 #
vertex $-1 $524 $526 #
ellipse-curve $-1 0 0 -0.6500000000000000222 0 0 -1 -1.623797632095820065 0.06249999999999929917 0 1 I I #
loop $-1 $527 $528 $372 #
cone-surface $-1 0 0 -0.5600000000000000533 0 0 1 1.625 0 0 1 I I 0.9848077530122080203 0.1736481776669299981 1.625 forward I I I I #
coedge $-1 $454 $454 $529 $530 forward $373 $-1 #
ellipse-curve $-1 0 0 -0.6800000000000000488 0 0 1 -0.6892974684416010023 -2.125 0 1 I I #
point $-1 -0.6892974684416010023 -2.125 -0.6800000000000000488 #
edge $-1 $531 -0.03000000000000002665 $381 0 $379 $532 forward 7 unknown #
face $-1 $533 $380 $3 $-1 $58 reversed single #
point $-1 -2.233125556255179944 -0.0625 -0.6800000000000000488 #
loop $-1 $-1 $534 $236 #
coedge $-1 $461 $461 $535 $536 reversed $384 $-1 #
coedge $-1 $462 $462 $385 $463 forward $537 $-1 #
edge $-1 $538 0 $538 6.283185307179586232 $462 $539 forward 7 unknown #
loop $-1 $540 $386 $541 #
vertex $-1 $387 $542 #
ellipse-curve $-1 1.675917471975469919 -0.6941877463102740231 -0.6800000000000000488 0 0 -1 -0.1300000000000000044 0 0 1 I I #
face $-1 $543 $544 $3 $-1 $545 reversed single #
loop $-1 $546 $547 $388 #
plane-surface $-1 0 0 -0.3119999999999999996 0 0 1 1 0 0 forward_v I I I I #
coedge $-1 $470 $470 $528 $548 forward $389 $-1 #
point $-1 0.05999999999999999778 -1.094000000000000083 -0.5500000000000000444 #
vertex $-1 $395 $549 #
ellipse-curve $-1 -1.094000000000000083 0 -0.5500000000000000444 0 0 1 -0.05999999999999999778 0 0 1 I I #
point $-1 -1.03400000000000003 0 -0.4000000000000000222 #
point $-1 0.2030000000000000138 1.875 -0.3987499999999999933 #
point $-1 -0.140625 1.875 0 #
coedge $-1 $404 $403 $492 $550 reversed $260 $-1 #
edge $-1 $494 -0.6800000000000000488 $430 0 $403 $551 forward 7 unknown #
coedge $-1 $438 $417 $406 $480 forward $493 $-1 #
edge $-1 $420 -1.378594936883200894 $440 0 $406 $552 forward 7 unknown #
point $-1 1.245000000000000107 0 -0.5899999999999999689 #
face $-1 $553 $554 $3 $-1 $555 reversed single #
loop $-1 $338 $556 $410 #
cone-surface $-1 0 0 -0.713999999999999968 0 0 1 -0.9375 0 0 1 I I 0 1 0.9375 forward I I I I #
loop $-1 $557 $558 $208 #
coedge $-1 $486 $486 $559 $560 forward $412 $-1 #
coedge $-1 $487 $487 $413 $488 reversed $561 $-1 #
edge $-1 $562 -3.141592653589793116 $562 3.141592653589793116 $487 $563 forward 7 unknown #
loop $-1 $564 $414 $565 #
vertex $-1 $415 $566 #
ellipse-curve $-1 0 0 0 0 0 1 1 0 0 1 I I #
coedge $-1 $417 $438 $477 $550 forward $493 $-1 #
loop $-1 $184 $479 $208 #
vertex $-1 $478 $567 #
ellipse-curve $-1 0 0 0 0 0 -1 -0.6892974684416010023 2.125 0 1 I I #
coedge $-1 $419 $507 $523 $568 forward $209 $-1 #
point $-1 -0.6892974684416010023 -2.125 0 #
loop $-1 $-1 $569 $110 #
coedge $-1 $499 $499 $570 $571 reversed $422 $-1 #
coedge $-1 $500 $500 $423 $501 forward $572 $-1 #
edge $-1 $573 0 $573 6.283185307179586232 $500 $574 forward 7 unknown #
loop $-1 $575 $424 $576 #
vertex $-1 $425 $577 #
ellipse-curve $-1 1.675917471975469919 0.6941877463102720247 -0.6800000000000000488 0 0 -1 -0.1300000000000000044 0 0 1 I I #
coedge $-1 $445 $578 $426 $506 forward $521 $-1 #
edge $-1 $508 -0.6093279241593598794 $512 0 $505 $579 forward 7 unknown #
coedge $-1 $496 $427 $578 $580 reversed $209 $-1 #
vertex $-1 $580 $581 #
ellipse-curve $-1 0 0 -0.6800000000000000488 0 0 -1 -0.6892974684416010023 2.125 0 1 I I #
point $-1 0.6892974684416010023 2.125 -0.6800000000000000488 #
point $-1 -0.6892974684416010023 2.125 -0.6800000000000000488 #
vertex $-1 $446 $582 #
ellipse-curve $-1 0 0 -0.6800000000000000488 0 0 -1 1.623797632095820065 0.06249999999999929917 0 1 I I #
vertex $-1 $436 $583 #
straight-curve $-1 0.6892974684416010023 2.125 -0.6800000000000000488 0 0 -1 I I #
ellipse-curve $-1 0 0 0 0 0 -1 0.6892974684416010023 -2.125 0 1 I I #
point $-1 0.6892974684416000031 -2.125 0 #
edge $-1 $531 -0.6093279241593598794 $443 0 $442 $584 forward 7 unknown #
point $-1 -1.623797632095820065 -0.0624999999999995004 -0.6500000000000000222 #
coedge $-1 $578 $445 $448 $524 reversed $521 $-1 #
loop $-1 $-1 $578 $585 #
straight-curve $-1 -1.623797632095820065 0.0625 -0.6800000000000000488 0 0 -1 I I #
coedge $-1 $448 $447 $496 $568 reversed $449 $-1 #
edge $-1 $586 -0.6093279241593598794 $450 0 $448 $587 forward 7 unknown #
face $-1 $458 $449 $3 $-1 $81 reversed single #
point $-1 -1.623797632095820065 0.0625 -0.6500000000000000222 #
loop $-1 $-1 $529 $372 #
coedge $-1 $528 $528 $470 $548 reversed $452 $-1 #
coedge $-1 $529 $529 $454 $530 reversed $527 $-1 #
edge $-1 $588 -3.141592653589793116 $588 3.141592653589793116 $529 $589 forward 7 unknown #
vertex $-1 $457 $590 #
straight-curve $-1 -2.233125556255179944 -0.0625 -0.6800000000000000488 2.960594732333749723e-14 -2.636779683484740157e-14 -1 I I #
face $-1 $591 $592 $3 $-1 $593 reversed single #
coedge $-1 $534 $534 $594 $595 reversed $460 $-1 #
coedge $-1 $535 $535 $461 $536 forward $596 $-1 #
edge $-1 $597 0 $597 6.283185307179586232 $535 $598 forward 7 unknown #
loop $-1 $599 $462 $600 #
vertex $-1 $463 $601 #
ellipse-curve $-1 -1.675917471975469919 -0.6941877463102720247 -0.6800000000000000488 0 0 -1 -0.1300000000000000044 0 0 1 I I #
loop $-1 $-1 $602 $541 #
face $-1 $191 $464 $3 $-1 $603 reversed single #
point $-1 1.545917471975470026 -0.6941877463102740231 -0.6800000000000000488 #
face $-1 $300 $604 $3 $-1 $605 forward single #
loop $-1 $606 $607 $467 #
plane-surface $-1 0 0 -0.25 0 0 1 1 0 0 forward_v I I I I #
loop $-1 $-1 $608 $388 #
coedge $-1 $547 $547 $609 $610 forward $468 $-1 #
edge $-1 $611 -3.141592653589793116 $611 3.141592653589793116 $470 $612 forward 7 unknown #
point $-1 -1.03400000000000003 0 -0.5500000000000000444 #
edge $-1 $514 -1.378594936883202005 $494 0 $477 $613 forward 7 unknown #
straight-curve $-1 -0.6892974684416010023 2.125 -0.6800000000000000488 0 0 -1 I I #
straight-curve $-1 0.6892974684416000031 -2.125 0 1 0 0 I I #
face $-1 $565 $614 $3 $-1 $615 reversed single #
loop $-1 $616 $617 $482 #
cone-surface $-1 0 0 -0.713999999999999968 0 0 1 -1.0625 0 0 1 I I 0 1 1.0625 forward I I I I #
coedge $-1 $556 $556 $608 $618 reversed $483 $-1 #
loop $-1 $619 $620 $208 #
coedge $-1 $558 $558 $621 $622 forward $485 $-1 #
coedge $-1 $559 $559 $486 $560 reversed $623 $-1 #
edge $-1 $624 -3.141592653589793116 $624 3.141592653589793116 $559 $625 forward 7 unknown #
loop $-1 $-1 $487 $533 #
vertex $-1 $488 $626 #
ellipse-curve $-1 0.6941877463102730239 -1.675917471975469919 0 0 0 -1 0.1300000000000000044 0 0 1 I I #
loop $-1 $-1 $627 $565 #
face $-1 $585 $489 $3 $-1 $628 reversed single #
point $-1 1 0 0 #
point $-1 -0.6892974684416010023 2.125 0 #
edge $-1 $586 -0.05596074840397798067 $531 0 $523 $629 forward 7 unknown #
coedge $-1 $569 $569 $630 $631 reversed $498 $-1 #
coedge $-1 $570 $570 $499 $571 forward $632 $-1 #
edge $-1 $633 0 $633 6.283185307179586232 $570 $634 forward 7 unknown #
loop $-1 $635 $500 $636 #
vertex $-1 $501 $637 #
ellipse-curve $-1 0.6941877463102740231 1.675917471975469919 -0.6800000000000000488 0 0 -1 -0.1300000000000000044 0 0 1 I I #
loop $-1 $-1 $638 $576 #
face $-1 $541 $502 $3 $-1 $639 reversed single #
point $-1 1.545917471975470026 0.6941877463102720247 -0.6800000000000000488 #
coedge $-1 $505 $520 $507 $580 forward $521 $-1 #
straight-curve $-1 -1.623797632095820065 0.0625 -0.6800000000000000488 1 5.921646927653550447e-16 0 I I #
edge $-1 $586 -0.03000000000000002665 $508 0 $578 $640 forward 7 unknown #
point $-1 -2.233125556255179944 0.06249999999999959754 -0.6800000000000000488 #
point $-1 -1.623797632095820065 0.0625 -0.6800000000000000488 #
point $-1 0.6892974684416010023 2.125 0 #
straight-curve $-1 -1.623797632095820065 -0.0624999999999995004 -0.6500000000000000222 1 -4.555113021271950277e-16 0 I I #
face $-1 $525 $521 $3 $-1 $112 reversed single #
vertex $-1 $524 $641 #
straight-curve $-1 -1.623797632095820065 0.0625 -0.6500000000000000222 1 1.252656080849790049e-16 0 I I #
vertex $-1 $530 $642 #
ellipse-curve $-1 0 0 -0.5600000000000000533 0 0 1 1.625 0 0 1 I I #
point $-1 -2.233125556255179944 -0.06249999999999920203 -0.6500000000000000222 #
face $-1 $600 $596 $3 $-1 $643 reversed single #
loop $-1 $561 $594 $533 #
cone-surface $-1 0.6941877463102730239 -1.675917471975469919 0 0 0 1 -0.1300000000000000044 0 0 1 I I 0 1 0.1300000000000000044 forward I I I I #
coedge $-1 $594 $594 $534 $595 forward $592 $-1 #
edge $-1 $644 0 $644 6.283185307179586232 $594 $645 forward 7 unknown #
loop $-1 $623 $535 $591 #
vertex $-1 $536 $646 #
ellipse-curve $-1 -0.6941877463102740231 -1.675917471975469919 -0.6800000000000000488 0 0 -1 -0.1300000000000000044 0 0 1 I I #
loop $-1 $-1 $621 $600 #
face $-1 $647 $537 $3 $-1 $648 reversed single #
point $-1 -1.805917471975470034 -0.6941877463102720247 -0.6800000000000000488 #
coedge $-1 $602 $602 $649 $650 reversed $540 $-1 #
cone-surface $-1 1.675917471975469919 -0.6941877463102740231 0 0 0 1 -0.1300000000000000044 0 0 1 I I 0 1 0.1300000000000000044 forward I I I I #
loop $-1 $651 $652 $543 #
plane-surface $-1 0 0 -0.1400000000000000133 0 0 1 1 0 0 forward_v I I I I #
loop $-1 $-1 $653 $467 #
coedge $-1 $607 $607 $654 $655 forward $544 $-1 #
coedge $-1 $608 $608 $556 $618 forward $546 $-1 #
coedge $-1 $609 $609 $547 $610 reversed $616 $-1 #
edge $-1 $656 0 $656 6.283185307179586232 $609 $657 forward 7 unknown #
vertex $-1 $548 $658 #
ellipse-curve $-1 0 0 -0.5899999999999999689 0 0 -1 1.454861545411469947 0 0 1 I I #
straight-curve $-1 -0.6892974684416010023 2.125 0 -1 0 0 I I #
loop $-1 $659 $660 $553 #
cone-surface $-1 0 0 -0.713999999999999968 0 0 1 -0.9375 0 0 1 I I 0 1 0.9375 forward I I I I #
loop $-1 $-1 $609 $482 #
coedge $-1 $617 $617 $653 $661 reversed $554 $-1 #
edge $-1 $662 -3.141592653589793116 $662 3.141592653589793116 $608 $663 forward 7 unknown #
loop $-1 $664 $665 $208 #
coedge $-1 $620 $620 $666 $667 forward $557 $-1 #
coedge $-1 $621 $621 $558 $622 reversed $599 $-1 #
edge $-1 $668 -3.141592653589793116 $668 3.141592653589793116 $621 $669 forward 7 unknown #
loop $-1 $-1 $559 $591 #
vertex $-1 $560 $670 #
ellipse-curve $-1 -0.6941877463102740231 -1.675917471975469919 0 0 0 -1 0.1300000000000000044 0 0 1 I I #
point $-1 0.5641877463102730195 -1.675917471975469919 0 #
coedge $-1 $627 $627 $652 $671 reversed $564 $-1 #
cone-surface $-1 0 0 -0.713999999999999968 0 0 1 -1 0 0 1 I I 0 1 1 forward I I I I #
ellipse-curve $-1 0 0 -0.6500000000000000222 0 0 1 -2.233125556255179944 -0.06249999999999920203 0 1 I I #
coedge $-1 $630 $630 $569 $631 forward $672 $-1 #
edge $-1 $673 0 $673 6.283185307179586232 $630 $674 forward 7 unknown #
loop $-1 $675 $570 $676 #
vertex $-1 $571 $677 #
ellipse-curve $-1 -0.6941877463102720247 1.675917471975469919 -0.6800000000000000488 0 0 -1 -0.1300000000000000044 0 0 1 I I #
loop $-1 $-1 $678 $636 #
face $-1 $576 $572 $3 $-1 $679 reversed single #
point $-1 0.5641877463102740187 1.675917471975469919 -0.6800000000000000488 #
coedge $-1 $638 $638 $680 $681 reversed $575 $-1 #
cone-surface $-1 1.675917471975469919 0.6941877463102720247 0 0 0 1 -0.1300000000000000044 0 0 1 I I 0 1 0.1300000000000000044 forward I I I I #
straight-curve $-1 -2.233125556255179944 0.06249999999999959754 -0.6800000000000000488 2.960594732333749723e-14 -9.483155002006539664e-15 -1 I I #
point $-1 -2.233125556255179944 0.06249999999999990286 -0.6500000000000000222 #
point $-1 -1.625 0 -0.5600000000000000533 #
cone-surface $-1 -0.6941877463102740231 -1.675917471975469919 0 0 0 1 -0.1300000000000000044 0 0 1 I I 0 1 0.1300000000000000044 forward I I I I #
vertex $-1 $595 $682 #
ellipse-curve $-1 0.6941877463102730239 -1.675917471975469919 -0.6800000000000000488 0 0 -1 -0.1300000000000000044 0 0 1 I I #
point $-1 -0.8241877463102740276 -1.675917471975469919 -0.6800000000000000488 #
face $-1 $676 $672 $3 $-1 $683 reversed single #
cone-surface $-1 -1.675917471975469919 -0.6941877463102720247 0 0 0 1 -0.1300000000000000044 0 0 1 I I 0 1 0.1300000000000000044 forward I I I I #
coedge $-1 $649 $649 $602 $650 forward $684 $-1 #
edge $-1 $685 -3.141592653589793116 $685 3.141592653589793116 $602 $686 forward 7 unknown #
loop $-1 $-1 $687 $543 #
coedge $-1 $652 $652 $627 $671 forward $604 $-1 #
coedge $-1 $653 $653 $617 $661 forward $606 $-1 #
coedge $-1 $654 $654 $607 $655 reversed $659 $-1 #
edge $-1 $688 0 $688 6.283185307179586232 $654 $689 forward 7 unknown #
vertex $-1 $610 $690 #
ellipse-curve $-1 0 0 -0.3119999999999999996 0 0 1 1.0625 0 0 1 I I #
point $-1 -1.454861545411469947 0 -0.5899999999999999689 #
loop $-1 $-1 $654 $553 #
coedge $-1 $660 $660 $687 $691 reversed $614 $-1 #
edge $-1 $692 -3.141592653589793116 $692 3.141592653589793116 $653 $693 forward 7 unknown #
vertex $-1 $618 $694 #
ellipse-curve $-1 0 0 -0.3119999999999999996 0 0 -1 0.9375 0 0 1 I I #
loop $-1 $695 $696 $208 #
coedge $-1 $665 $665 $697 $698 forward $619 $-1 #
coedge $-1 $666 $666 $620 $667 reversed $699 $-1 #
edge $-1 $700 -3.141592653589793116 $700 3.141592653589793116 $666 $701 forward 7 unknown #
vertex $-1 $622 $702 #
ellipse-curve $-1 -1.675917471975469919 -0.6941877463102720247 0 0 0 -1 0.1300000000000000044 0 0 1 I I #
point $-1 -0.8241877463102740276 -1.675917471975469919 0 #
edge $-1 $703 0 $703 6.283185307179586232 $627 $704 forward 7 unknown #
loop $-1 $699 $630 $647 #
vertex $-1 $631 $705 #
ellipse-curve $-1 -1.675917471975469919 0.6941877463102740231 -0.6800000000000000488 0 0 -1 -0.1300000000000000044 0 0 1 I I #
loop $-1 $-1 $697 $676 #
face $-1 $636 $632 $3 $-1 $706 reversed single #
point $-1 -0.8241877463102720291 1.675917471975469919 -0.6800000000000000488 #
coedge $-1 $678 $678 $696 $707 reversed $635 $-1 #
cone-surface $-1 0.6941877463102740231 1.675917471975469919 0 0 0 1 -0.1300000000000000044 0 0 1 I I 0 1 0.1300000000000000044 forward I I I I #
coedge $-1 $680 $680 $638 $681 forward $695 $-1 #
edge $-1 $708 -3.141592653589793116 $708 3.141592653589793116 $638 $709 forward 7 unknown #
point $-1 0.5641877463102730195 -1.675917471975469919 -0.6800000000000000488 #
cone-surface $-1 -1.675917471975469919 0.6941877463102740231 0 0 0 1 -0.1300000000000000044 0 0 1 I I 0 1 0.1300000000000000044 forward I I I I #
loop $-1 $493 $649 $208 #
vertex $-1 $650 $710 #
ellipse-curve $-1 1.675917471975469919 -0.6941877463102740231 0 0 0 -1 0.1300000000000000044 0 0 1 I I #
coedge $-1 $687 $687 $660 $691 forward $651 $-1 #
vertex $-1 $655 $711 #
ellipse-curve $-1 0 0 -0.25 0 0 1 0.9375 0 0 1 I I #
point $-1 1.0625 0 -0.3119999999999999996 #
edge $-1 $712 -3.141592653589793116 $712 3.141592653589793116 $687 $713 forward 7 unknown #
vertex $-1 $661 $714 #
ellipse-curve $-1 0 0 -0.25 0 0 -1 1.0625 0 0 1 I I #
point $-1 -0.9375 0 -0.3119999999999999996 #
loop $-1 $684 $680 $208 #
coedge $-1 $696 $696 $678 $707 forward $664 $-1 #
coedge $-1 $697 $697 $665 $698 reversed $675 $-1 #
edge $-1 $715 -3.141592653589793116 $715 3.141592653589793116 $697 $716 forward 7 unknown #
loop $-1 $-1 $666 $647 #
vertex $-1 $667 $717 #
ellipse-curve $-1 -1.675917471975469919 0.6941877463102740231 0 0 0 -1 0.1300000000000000044 0 0 1 I I #
point $-1 -1.805917471975470034 -0.6941877463102720247 0 #
vertex $-1 $671 $718 #
ellipse-curve $-1 0 0 -0.1400000000000000133 0 0 1 1 0 0 1 I I #
point $-1 -1.805917471975470034 0.6941877463102740231 -0.6800000000000000488 #
cone-surface $-1 -0.6941877463102720247 1.675917471975469919 0 0 0 1 -0.1300000000000000044 0 0 1 I I 0 1 0.1300000000000000044 forward I I I I #
edge $-1 $719 -3.141592653589793116 $719 3.141592653589793116 $678 $720 forward 7 unknown #
vertex $-1 $681 $721 #
ellipse-curve $-1 1.675917471975469919 0.6941877463102720247 0 0 0 -1 0.1300000000000000044 0 0 1 I I #
point $-1 1.545917471975470026 -0.6941877463102740231 0 #
point $-1 0.9375 0 -0.25 #
vertex $-1 $691 $722 #
ellipse-curve $-1 0 0 -0.1400000000000000133 0 0 -1 0.9375 0 0 1 I I #
point $-1 -1.0625 0 -0.25 #
vertex $-1 $698 $723 #
ellipse-curve $-1 -0.6941877463102720247 1.675917471975469919 0 0 0 -1 0.1300000000000000044 0 0 1 I I #
point $-1 -1.805917471975470034 0.6941877463102740231 0 #
point $-1 1 0 -0.1400000000000000133 #
vertex $-1 $707 $724 #
ellipse-curve $-1 0.6941877463102740231 1.675917471975469919 0 0 0 -1 0.1300000000000000044 0 0 1 I I #
point $-1 1.545917471975470026 0.6941877463102720247 0 #
point $-1 -0.9375 0 -0.1400000000000000133 #
point $-1 -0.8241877463102720291 1.675917471975469919 0 #
point $-1 0.5641877463102740187 1.675917471975469919 0 #
End-of-ACIS-data 