600 0 1 0           
108 GICL ACIS Healer - Source: /gicl/data5/repository/PTC/V20/NC_Training_Rel20/DEMO/part_trian_ll.prt.sat - 6 0 18 ACIS 6.0.3 Solaris 24 Sat Apr 13 20:49:53 2002 
1 9.999999999999999547e-07 1.000000000000000036e-10 
body $-1 $1 $-1 $-1 #
lump $-1 $-1 $2 $0 #
shell $-1 $-1 $-1 $3 $-1 $1 #
face $-1 $4 $5 $2 $-1 $6 reversed single #
face $-1 $7 $8 $2 $-1 $9 reversed single #
loop $-1 $-1 $10 $3 #
plane-surface $-1 0 5.079999999999999183 0 0 -1 0 25.39999999999999858 0 0 forward_v I I I I #
face $-1 $11 $12 $2 $-1 $13 forward single #
loop $-1 $-1 $14 $4 #
plane-surface $-1 0 2.539999999999999591 63.5 1 0 0 0 0 25.39999999999999858 forward_v I I I I #
coedge $-1 $15 $16 $17 $18 forward $5 $-1 #
face $-1 $19 $20 $2 $-1 $21 forward single #
loop $-1 $-1 $22 $7 #
plane-surface $-1 0 0 0 0 -1 0 25.39999999999999858 0 0 forward_v I I I I #
coedge $-1 $23 $24 $25 $26 forward $8 $-1 #
coedge $-1 $27 $10 $28 $29 forward $5 $-1 #
coedge $-1 $10 $27 $30 $31 forward $5 $-1 #
coedge $-1 $24 $23 $10 $18 reversed $8 $-1 #
edge $-1 $32 0 $33 5 $10 $34 forward 7 unknown #
face $-1 $35 $36 $2 $-1 $37 reversed single #
loop $-1 $-1 $38 $11 #
plane-surface $-1 203.1999999999999886 2.539999999999999591 63.5 1 0 0 0 0 25.39999999999999858 forward_v I I I I #
coedge $-1 $39 $40 $41 $42 forward $12 $-1 #
coedge $-1 $17 $14 $43 $44 forward $8 $-1 #
coedge $-1 $14 $17 $45 $46 forward $8 $-1 #
coedge $-1 $40 $39 $14 $26 reversed $12 $-1 #
edge $-1 $47 0 $48 5 $25 $49 forward 7 unknown #
coedge $-1 $16 $15 $38 $50 reversed $5 $-1 #
coedge $-1 $43 $51 $15 $29 reversed $36 $-1 #
edge $-1 $33 0 $52 8 $15 $53 forward 7 unknown #
coedge $-1 $54 $45 $16 $31 reversed $55 $-1 #
edge $-1 $56 0 $32 9.429579400197116712 $16 $57 forward 7 unknown #
vertex $-1 $31 $58 #
vertex $-1 $29 $59 #
straight-curve $-1 0 5.079999999999999183 0 0 0 25.39999999999999858 I I #
face $-1 $-1 $55 $2 $-1 $60 forward single #
loop $-1 $-1 $51 $19 #
plane-surface $-1 101.5999999999999943 2.539999999999999591 127 0 0 -1 25.39999999999999858 0 0 forward_v I I I I #
coedge $-1 $61 $62 $27 $50 forward $20 $-1 #
coedge $-1 $25 $22 $63 $64 reversed $12 $-1 #
coedge $-1 $22 $25 $65 $66 reversed $12 $-1 #
coedge $-1 $62 $61 $22 $42 reversed $20 $-1 #
edge $-1 $67 0 $68 0.008310139379468737056 $22 $69 forward 7 unknown #
coedge $-1 $63 $28 $23 $44 reversed $36 $-1 #
edge $-1 $48 0 $33 0.1999999999999999833 $43 $70 forward 7 unknown #
coedge $-1 $30 $65 $24 $46 reversed $55 $-1 #
edge $-1 $32 0 $47 0.1999999999999999833 $24 $71 forward 7 unknown #
vertex $-1 $66 $72 #
vertex $-1 $64 $73 #
straight-curve $-1 0 0 0 0 0 25.39999999999999858 I I #
edge $-1 $56 0 $52 0.008310139379468737056 $27 $74 forward 7 unknown #
coedge $-1 $28 $63 $61 $75 forward $36 $-1 #
vertex $-1 $50 $76 #
straight-curve $-1 0 5.079999999999999183 127 25.39999999999999858 0 0 I I #
coedge $-1 $65 $30 $62 $77 forward $55 $-1 #
loop $-1 $-1 $54 $35 #
vertex $-1 $31 $78 #
straight-curve $-1 203.1999999999999886 5.079999999999999183 126.7889224597614941 -21.54921140976365024 0 -13.44587251231068414 I I #
point $-1 0 5.079999999999999183 0 #
point $-1 0 5.079999999999999183 127 #
plane-surface $-1 101.5999999999999943 2.539999999999999591 63.39446122988074706 0.5293650595397907388 0 -0.8483941499906949568 -21.54921140976365024 0 -13.44587251231068414 forward_v I I I I #
coedge $-1 $41 $38 $51 $75 reversed $20 $-1 #
coedge $-1 $38 $41 $54 $77 reversed $20 $-1 #
coedge $-1 $51 $43 $39 $64 forward $36 $-1 #
edge $-1 $48 0 $68 8 $63 $79 forward 7 unknown #
coedge $-1 $45 $54 $40 $66 forward $55 $-1 #
edge $-1 $67 0 $47 9.429579400197116712 $40 $80 forward 7 unknown #
vertex $-1 $66 $81 #
vertex $-1 $64 $82 #
straight-curve $-1 203.1999999999999886 0 126.7889224597614941 0 0 25.39999999999999858 I I #
straight-curve $-1 0 0 127 0 25.39999999999999858 0 I I #
straight-curve $-1 0 5.079999999999999183 0 0 -25.39999999999999858 0 I I #
point $-1 0 0 0 #
point $-1 0 0 127 #
straight-curve $-1 203.1999999999999886 5.079999999999999183 126.7889224597614941 0 0 25.39999999999999858 I I #
edge $-1 $68 0 $52 0.1999999999999999833 $51 $83 forward 7 unknown #
point $-1 203.1999999999999886 5.079999999999999183 127 #
edge $-1 $56 0 $67 0.1999999999999999833 $62 $84 forward 7 unknown #
point $-1 203.1999999999999886 5.079999999999999183 126.7889224597614941 #
straight-curve $-1 0 0 127 25.39999999999999858 0 0 I I #
straight-curve $-1 203.1999999999999886 0 126.7889224597614941 -21.54921140976365024 0 -13.44587251231068414 I I #
point $-1 203.1999999999999886 0 126.7889224597614941 #
point $-1 203.1999999999999886 0 127 #
straight-curve $-1 203.1999999999999886 0 127 0 25.39999999999999858 0 I I #
straight-curve $-1 203.1999999999999886 5.079999999999999183 126.7889224597614941 0 -25.39999999999999858 0 I I #
End-of-ACIS-data 