700 0 2 0           
24 FBMach with ACIS - 7.0.3 13 ACIS 7.0.3 NT 24 Tue May 14 16:34:01 2002 
1 9.9999999999999995e-007 1e-010 
body $2 -1 $-1 $3 $-1 $4 #
bdycol-kcp $-1 -1 1 3 $5 $6 $7 #
model_id-kcp-attrib $-1 -1 $-1 $-1 $0 1 1021408441 1021408441 -10944511 1 #
lump $-1 -1 $-1 $-1 $8 $0 #
transform $-1 -1 1 0 0 0 1 0 0 0 1 -1.4210854715202004e-014 0 -2.8421709430404007e-014 1 rotate no_reflect no_shear #
body $9 -1 $-1 $10 $-1 $11 #
body $12 -1 $-1 $13 $-1 $14 #
body $15 -1 $-1 $16 $-1 $17 #
shell $-1 -1 $-1 $-1 $-1 $18 $-1 $3 #
rgb_color-st-attrib $-1 -1 $19 $-1 $5 0.5 1 1 #
lump $-1 -1 $-1 $-1 $20 $5 #
transform $-1 -1 1 0 0 0 1 0 0 0 1 0 0 0 1 no_rotate no_reflect no_shear #
model_id-kcp-attrib $-1 -1 $-1 $-1 $6 1 1021408441 1021408441 -10944510 1 #
lump $-1 -1 $-1 $-1 $21 $6 #
transform $-1 -1 1 0 0 0 1 0 0 0 1 88.900000000000006 2.5399999999999996 76.199999999999989 1 no_rotate no_reflect no_shear #
rgb_color-st-attrib $-1 -1 $22 $-1 $7 0.5 1 1 #
lump $-1 -1 $-1 $-1 $23 $7 #
transform $-1 -1 1 0 0 0 1 0 0 0 1 88.900000000000006 2.5399999999999996 76.199999999999989 1 no_rotate no_reflect no_shear #
face $24 -1 $-1 $25 $26 $8 $-1 $27 reversed single #
model_id-kcp-attrib $-1 -1 $-1 $9 $5 1 1021408441 1021408441 -13303804 1 #
shell $-1 -1 $-1 $-1 $-1 $28 $-1 $10 #
shell $-1 -1 $-1 $-1 $-1 $29 $-1 $13 #
model_id-kcp-attrib $-1 -1 $-1 $15 $7 1 1021408441 1021408441 -1114109 1 #
shell $-1 -1 $-1 $-1 $-1 $30 $-1 $16 #
model_id-kcp-attrib $-1 -1 $-1 $-1 $18 1 1021408441 1021408441 -10944511 2 #
face $31 -1 $-1 $32 $33 $8 $-1 $34 forward single #
loop $-1 -1 $-1 $35 $36 $18 #
plane-surface $-1 -1 $-1 0 5.0799999999999992 0 0 -1 0 25.399999999999999 0 0 forward_v I I I I #
face $-1 -1 $-1 $37 $38 $20 $-1 $39 forward single #
face $40 -1 $-1 $41 $42 $21 $-1 $43 forward single #
face $-1 -1 $-1 $44 $45 $23 $-1 $46 reversed single #
model_id-kcp-attrib $-1 -1 $-1 $-1 $25 1 1021408441 1021408441 -10944511 3 #
face $47 -1 $-1 $48 $49 $8 $-1 $50 forward single #
loop $-1 -1 $-1 $-1 $51 $25 #
plane-surface $-1 -1 $-1 44.449999999999996 2.5399999999999996 139.69999999999999 0 0 1 25.399999999999999 0 0 forward_v I I I I #
loop $-1 -1 $-1 $-1 $52 $18 #
coedge $-1 -1 $-1 $53 $54 $55 $56 forward $26 $-1 #
face $-1 -1 $-1 $57 $58 $20 $-1 $59 forward single #
loop $-1 -1 $-1 $-1 $60 $28 #
plane-surface $-1 -1 $-1 152.33384813091229 5.0799999999999992 23.239785364768686 0 0 -1 -1 0 0 forward_v I I I I #
model_id-kcp-attrib $-1 -1 $-1 $-1 $29 1 1021408441 1021408441 -10944510 3 #
face $61 -1 $-1 $62 $63 $21 $-1 $64 reversed single #
loop $-1 -1 $-1 $-1 $65 $29 #
plane-surface $-1 -1 $-1 0 0 63.499999999999993 0 0 1 1 0 0 forward_v I I I I #
face $-1 -1 $-1 $66 $67 $23 $-1 $68 reversed single #
loop $-1 -1 $-1 $-1 $69 $30 #
plane-surface $-1 -1 $-1 76.199999999999989 2.5399999999999996 -25.399999999999991 0.70710678118654735 0 0.70710678118654779 0 1 0 forward_v I I I I #
model_id-kcp-attrib $-1 -1 $-1 $-1 $32 1 1021408441 1021408441 -10944511 4 #
face $70 -1 $-1 $71 $72 $8 $-1 $73 forward single #
loop $-1 -1 $-1 $-1 $74 $32 #
plane-surface $-1 -1 $-1 12.699999999999999 2.5399999999999996 76.199999999999989 -1 0 0 0 0 25.399999999999999 forward_v I I I I #
coedge $-1 -1 $-1 $75 $55 $76 $77 forward $33 $-1 #
coedge $-1 -1 $-1 $78 $79 $80 $81 forward $35 $-1 #
coedge $-1 -1 $-1 $82 $36 $83 $84 forward $26 $-1 #
coedge $-1 -1 $-1 $36 $85 $86 $87 forward $26 $-1 #
coedge $-1 -1 $-1 $51 $88 $36 $56 reversed $33 $-1 #
edge $89 -1 $-1 $90 0 $91 2.5000000000000009 $36 $92 forward @7 unknown #
face $-1 -1 $-1 $93 $94 $20 $-1 $95 forward single #
loop $-1 -1 $-1 $-1 $96 $37 #
plane-surface $-1 -1 $-1 25.738967971530229 5.0799999999999992 23.239785364768686 -1 0 0 0 0 1 forward_v I I I I #
coedge $-1 -1 $-1 $97 $98 $99 $100 forward $38 $-1 #
model_id-kcp-attrib $-1 -1 $-1 $-1 $41 1 1021408441 1021408441 -10944510 5 #
face $101 -1 $-1 $102 $103 $21 $-1 $104 reversed single #
loop $-1 -1 $-1 $-1 $105 $41 #
plane-surface $-1 -1 $-1 0 0 -63.499999999999993 0 0 1 1 0 0 forward_v I I I I #
coedge $-1 -1 $-1 $106 $107 $108 $109 forward $42 $-1 #
face $-1 -1 $-1 $110 $111 $23 $-1 $112 reversed single #
loop $-1 -1 $-1 $-1 $113 $44 #
plane-surface $-1 -1 $-1 0 2.5399999999999996 0 0 -1 0 0 0 -1 forward_v I I I I #
coedge $-1 -1 $-1 $114 $115 $113 $116 reversed $45 $-1 #
model_id-kcp-attrib $-1 -1 $-1 $-1 $48 1 1021408441 1021408441 -10944511 5 #
face $117 -1 $-1 $118 $119 $8 $-1 $120 forward single #
loop $-1 -1 $-1 $-1 $121 $48 #
plane-surface $-1 -1 $-1 88.899999999999991 2.5399999999999996 12.699999999999999 0 0 -1 -25.399999999999999 0 0 forward_v I I I I #
coedge $-1 -1 $-1 $122 $86 $123 $124 forward $49 $-1 #
coedge $-1 -1 $-1 $88 $51 $125 $126 forward $33 $-1 #
coedge $-1 -1 $-1 $86 $122 $51 $77 reversed $49 $-1 #
edge $127 -1 $-1 $90 0 $128 0.19999999999999998 $76 $129 forward @7 unknown #
coedge $-1 -1 $-1 $130 $52 $131 $132 forward $35 $-1 #
coedge $-1 -1 $-1 $52 $130 $133 $134 forward $35 $-1 #
coedge $-1 -1 $-1 $135 $136 $52 $81 reversed $137 $-1 #
edge $138 -1 $-1 $139 0 $140 5.3019418843317414 $52 $141 forward @7 unknown #
coedge $-1 -1 $-1 $85 $53 $142 $143 forward $26 $-1 #
coedge $-1 -1 $-1 $144 $145 $53 $84 reversed $146 $-1 #
edge $147 -1 $-1 $91 3.9561384785732927e-016 $148 4.9497474683058327 $53 $149 forward @7 unknown #
coedge $-1 -1 $-1 $54 $82 $150 $151 forward $26 $-1 #
coedge $-1 -1 $-1 $74 $76 $54 $87 reversed $49 $-1 #
edge $152 -1 $-1 $153 0 $90 5 $54 $154 forward @7 unknown #
coedge $-1 -1 $-1 $55 $75 $144 $155 reversed $33 $-1 #
attrib_edge_convexity-kcp-attrib $-1 -1 $156 $-1 $56 1 #
vertex $-1 -1 $-1 $87 $157 #
vertex $-1 -1 $-1 $84 $158 #
straight-curve $-1 -1 $-1 12.699999999999976 5.0799999999999992 139.69999999999999 25.399999999999999 0 0 I I #
face $-1 -1 $-1 $159 $160 $20 $-1 $161 forward single #
loop $-1 -1 $-1 $-1 $162 $57 #
plane-surface $-1 -1 $-1 25.738967971530229 5.0799999999999992 128.77181383451955 0 0 1 1 0 0 forward_v I I I I #
coedge $-1 -1 $-1 $163 $164 $165 $166 forward $58 $-1 #
coedge $-1 -1 $-1 $167 $60 $164 $168 reversed $38 $-1 #
coedge $-1 -1 $-1 $60 $167 $169 $170 forward $38 $-1 #
coedge $-1 -1 $-1 $171 $165 $60 $100 reversed $172 $-1 #
edge $-1 -1 $-1 $173 -4.984050399975672 $174 -2.7974123455122054e-016 $60 $175 forward @7 unknown #
model_id-kcp-attrib $-1 -1 $-1 $-1 $62 1 1021408441 1021408441 -10944510 7 #
face $176 -1 $-1 $177 $178 $21 $-1 $179 reversed single #
loop $-1 -1 $-1 $-1 $180 $62 #
plane-surface $-1 -1 $-1 0 -2.5399999999999996 0 0 1 0 0 0 1 forward_v I I I I #
coedge $-1 -1 $-1 $181 $182 $183 $184 forward $63 $-1 #
coedge $-1 -1 $-1 $185 $65 $186 $187 forward $42 $-1 #
coedge $-1 -1 $-1 $65 $185 $188 $189 forward $42 $-1 #
coedge $-1 -1 $-1 $190 $191 $65 $109 reversed $192 $-1 #
edge $-1 -1 $-1 $193 -2.5399999999999996 $194 2.5399999999999996 $108 $195 forward @7 unknown #
face $-1 -1 $-1 $196 $197 $23 $-1 $198 forward single #
loop $-1 -1 $-1 $-1 $199 $66 #
plane-surface $-1 -1 $-1 0 -2.5399999999999996 0 0 1 0 0 0 1 forward_v I I I I #
coedge $-1 -1 $-1 $200 $201 $69 $116 forward $67 $-1 #
coedge $-1 -1 $-1 $202 $69 $203 $204 reversed $45 $-1 #
coedge $-1 -1 $-1 $69 $202 $205 $206 reversed $45 $-1 #
edge $-1 -1 $-1 $207 -35.921024484276614 $208 89.80256121069155 $113 $209 forward @7 unknown #
model_id-kcp-attrib $-1 -1 $-1 $-1 $71 1 1021408441 1021408441 -10944511 6 #
face $210 -1 $-1 $211 $146 $8 $-1 $212 forward single #
loop $-1 -1 $-1 $-1 $213 $71 #
plane-surface $-1 -1 $-1 165.09999999999999 2.5399999999999996 31.75 1 0 0 0 0 -25.399999999999999 forward_v I I I I #
coedge $-1 -1 $-1 $214 $150 $215 $216 forward $72 $-1 #
coedge $-1 -1 $-1 $76 $74 $217 $218 forward $49 $-1 #
coedge $-1 -1 $-1 $150 $214 $74 $124 reversed $72 $-1 #
edge $219 -1 $-1 $153 0 $220 0.19999999999999998 $74 $221 forward @7 unknown #
coedge $-1 -1 $-1 $217 $222 $75 $126 reversed $223 $-1 #
edge $224 -1 $-1 $128 0 $225 2.5000000000000009 $75 $226 forward @7 unknown #
attrib_edge_convexity-kcp-attrib $-1 -1 $227 $-1 $77 1 #
vertex $-1 -1 $-1 $77 $228 #
straight-curve $-1 -1 $-1 12.699999999999999 5.0799999999999992 139.69999999999999 0 -25.399999999999999 0 I I #
coedge $-1 -1 $-1 $79 $78 $229 $230 forward $35 $-1 #
coedge $-1 -1 $-1 $231 $232 $78 $132 reversed $233 $-1 #
edge $234 -1 $-1 $140 0 $235 1.6903914590747329 $78 $236 forward @7 unknown #
coedge $-1 -1 $-1 $237 $238 $79 $134 reversed $239 $-1 #
edge $240 -1 $-1 $241 0 $139 4.984050399975672 $79 $242 forward @7 unknown #
coedge $-1 -1 $-1 $243 $80 $238 $244 forward $137 $-1 #
coedge $-1 -1 $-1 $80 $243 $231 $245 reversed $137 $-1 #
loop $-1 -1 $-1 $-1 $135 $246 #
attrib_edge_convexity-kcp-attrib $-1 -1 $247 $-1 $81 1 #
vertex $-1 -1 $-1 $134 $248 #
vertex $-1 -1 $-1 $132 $249 #
straight-curve $-1 -1 $-1 152.33384813091229 5.0799999999999992 23.239785364768686 -15.778923821498706 0 19.904410642753046 I I #
coedge $-1 -1 $-1 $213 $215 $82 $143 reversed $119 $-1 #
edge $250 -1 $-1 $148 0 $251 1.4999999999999998 $82 $252 forward @7 unknown #
coedge $-1 -1 $-1 $253 $83 $88 $155 forward $146 $-1 #
coedge $-1 -1 $-1 $83 $253 $213 $254 reversed $146 $-1 #
loop $-1 -1 $-1 $-1 $144 $118 #
attrib_edge_convexity-kcp-attrib $-1 -1 $255 $-1 $84 1 #
vertex $-1 -1 $-1 $143 $256 #
straight-curve $-1 -1 $-1 76.199999999999974 5.0799999999999992 139.69999999999999 17.960512242138311 0 -17.9605122421383 I I #
coedge $-1 -1 $-1 $121 $123 $85 $151 reversed $72 $-1 #
edge $257 -1 $-1 $251 0 $153 6.0000000000000009 $85 $258 forward @7 unknown #
attrib_edge_convexity-kcp-attrib $-1 -1 $259 $-1 $87 1 #
vertex $-1 -1 $-1 $87 $260 #
straight-curve $-1 -1 $-1 12.699999999999999 5.0799999999999992 12.699999999999999 0 0 25.399999999999999 I I #
edge $261 -1 $-1 $91 0 $225 0.19999999999999998 $144 $262 forward @7 unknown #
convexity-sys-attrib $-1 -1 $-1 $89 $56 #
point $-1 -1 $-1 12.699999999999976 5.0799999999999992 139.69999999999999 #
point $-1 -1 $-1 76.199999999999989 5.0799999999999992 139.69999999999999 #
face $-1 -1 $-1 $263 $172 $20 $-1 $264 reversed single #
loop $-1 -1 $-1 $-1 $265 $93 #
plane-surface $-1 -1 $-1 68.674911032028433 5.0799999999999992 128.77181383451955 0.78363821428161595 0 0.62121747328735055 0.62121747328735055 0 -0.78363821428161595 forward_v I I I I #
coedge $-1 -1 $-1 $266 $267 $268 $269 forward $94 $-1 #
coedge $-1 -1 $-1 $270 $96 $267 $271 reversed $58 $-1 #
coedge $-1 -1 $-1 $96 $270 $97 $168 forward $58 $-1 #
coedge $-1 -1 $-1 $99 $268 $96 $166 reversed $172 $-1 #
edge $-1 -1 $-1 $174 -4.1548042704626322 $272 0 $96 $273 forward @7 unknown #
coedge $-1 -1 $-1 $98 $97 $274 $275 forward $38 $-1 #
edge $-1 -1 $-1 $276 0 $174 5.0799999999999992 $164 $277 forward @7 unknown #
coedge $-1 -1 $-1 $278 $265 $98 $170 reversed $160 $-1 #
edge $-1 -1 $-1 $279 0 $173 5.0799999999999992 $98 $280 forward @7 unknown #
coedge $-1 -1 $-1 $268 $99 $265 $281 reversed $172 $-1 #
loop $-1 -1 $-1 $-1 $99 $159 #
vertex $-1 -1 $-1 $170 $282 #
vertex $-1 -1 $-1 $168 $283 #
straight-curve $-1 -1 $-1 25.738967971530222 0 23.239785364768686 -25.399999999999999 0 0 I I #
model_id-kcp-attrib $-1 -1 $-1 $-1 $102 1 1021408441 1021408441 -10944510 4 #
face $284 -1 $-1 $285 $286 $21 $-1 $287 reversed single #
loop $-1 -1 $-1 $-1 $288 $102 #
plane-surface $-1 -1 $-1 -76.200000000000017 0 0 1 0 0 0 0 -1 forward_v I I I I #
coedge $-1 -1 $-1 $289 $188 $290 $291 forward $103 $-1 #
coedge $-1 -1 $-1 $292 $105 $289 $293 forward $63 $-1 #
coedge $-1 -1 $-1 $105 $292 $294 $295 forward $63 $-1 #
coedge $-1 -1 $-1 $191 $190 $105 $184 reversed $192 $-1 #
edge $-1 -1 $-1 $296 -2.5399999999999996 $297 2.5399999999999996 $183 $298 forward @7 unknown #
coedge $-1 -1 $-1 $107 $106 $299 $300 forward $42 $-1 #
coedge $-1 -1 $-1 $301 $302 $106 $187 reversed $286 $-1 #
edge $-1 -1 $-1 $194 -76.200000000000017 $303 76.200000000000017 $186 $304 forward @7 unknown #
coedge $-1 -1 $-1 $180 $305 $107 $189 reversed $103 $-1 #
edge $-1 -1 $-1 $306 -76.200000000000017 $193 76.200000000000017 $188 $307 forward @7 unknown #
coedge $-1 -1 $-1 $183 $108 $305 $308 forward $192 $-1 #
coedge $-1 -1 $-1 $108 $183 $301 $309 reversed $192 $-1 #
loop $-1 -1 $-1 $-1 $190 $285 #
vertex $-1 -1 $-1 $109 $310 #
vertex $-1 -1 $-1 $109 $311 #
straight-curve $-1 -1 $-1 76.200000000000017 0 63.499999999999993 0 1 0 I I #
face $-1 -1 $-1 $-1 $312 $23 $-1 $313 reversed single #
loop $-1 -1 $-1 $-1 $205 $110 #
plane-surface $-1 -1 $-1 0 0 63.499999999999993 0 0 1 1 0 0 forward_v I I I I #
coedge $-1 -1 $-1 $314 $315 $202 $316 forward $111 $-1 #
coedge $-1 -1 $-1 $201 $113 $317 $318 reversed $67 $-1 #
coedge $-1 -1 $-1 $113 $200 $319 $320 forward $67 $-1 #
coedge $-1 -1 $-1 $115 $114 $199 $316 reversed $45 $-1 #
coedge $-1 -1 $-1 $319 $321 $114 $204 forward $312 $-1 #
edge $-1 -1 $-1 $322 -3.8099999999999996 $207 1.2699999999999998 $203 $323 forward @7 unknown #
coedge $-1 -1 $-1 $324 $317 $115 $206 forward $197 $-1 #
edge $-1 -1 $-1 $208 -1.2699999999999998 $325 3.8099999999999996 $205 $326 forward @7 unknown #
vertex $-1 -1 $-1 $116 $327 #
vertex $-1 -1 $-1 $116 $328 #
straight-curve $-1 -1 $-1 50.799999999999983 2.5399999999999996 1.7763568394002505e-015 -0.70710678118654779 0 0.70710678118654735 I I #
model_id-kcp-attrib $-1 -1 $-1 $-1 $118 1 1021408441 1021408441 -10944511 7 #
face $329 -1 $-1 $330 $223 $8 $-1 $331 forward single #
plane-surface $-1 -1 $-1 120.64999999999999 2.5399999999999996 95.25 0.70710678118654735 0 0.70710678118654779 17.960512242138314 0 -17.9605122421383 forward_v I I I I #
coedge $-1 -1 $-1 $332 $142 $145 $254 forward $119 $-1 #
coedge $-1 -1 $-1 $123 $121 $333 $334 forward $72 $-1 #
coedge $-1 -1 $-1 $142 $332 $121 $216 reversed $119 $-1 #
edge $-1 -1 $-1 $251 0 $335 0.19999999999999998 $121 $336 forward @7 unknown #
coedge $-1 -1 $-1 $333 $125 $122 $218 reversed $223 $-1 #
edge $337 -1 $-1 $220 0 $128 5 $122 $338 forward @7 unknown #
attrib_edge_convexity-kcp-attrib $-1 -1 $339 $-1 $124 1 #
vertex $-1 -1 $-1 $218 $340 #
straight-curve $-1 -1 $-1 12.699999999999999 5.0799999999999992 12.699999999999999 0 -25.399999999999999 0 I I #
coedge $-1 -1 $-1 $125 $341 $253 $342 reversed $223 $-1 #
loop $-1 -1 $-1 $343 $333 $211 #
model_id-kcp-attrib $-1 -1 $344 $-1 $126 1 1021408441 1021408441 -10944511 15 #
vertex $-1 -1 $-1 $342 $345 #
straight-curve $-1 -1 $-1 12.699999999999976 0 139.69999999999999 25.399999999999999 0 0 I I #
convexity-sys-attrib $-1 -1 $-1 $127 $77 #
point $-1 -1 $-1 12.699999999999976 0 139.69999999999999 #
coedge $-1 -1 $-1 $346 $347 $130 $230 reversed $348 $-1 #
edge $349 -1 $-1 $235 0 $241 4.1548042704626322 $130 $350 forward @7 unknown #
coedge $-1 -1 $-1 $351 $131 $136 $245 forward $233 $-1 #
coedge $-1 -1 $-1 $131 $351 $346 $352 reversed $233 $-1 #
loop $-1 -1 $-1 $-1 $231 $353 #
attrib_edge_convexity-kcp-attrib $-1 -1 $354 $-1 $132 1 #
vertex $-1 -1 $-1 $230 $355 #
straight-curve $-1 -1 $-1 68.674911032028433 5.0799999999999992 128.77181383451955 -25.399999999999999 0 0 I I #
coedge $-1 -1 $-1 $356 $133 $347 $357 forward $239 $-1 #
coedge $-1 -1 $-1 $133 $356 $135 $244 reversed $239 $-1 #
loop $-1 -1 $-1 $-1 $237 $358 #
attrib_edge_convexity-kcp-attrib $-1 -1 $359 $-1 $134 1 #
vertex $-1 -1 $-1 $134 $360 #
straight-curve $-1 -1 $-1 25.738967971530222 5.0799999999999992 23.239785364768686 25.399999999999999 0 0 I I #
coedge $-1 -1 $-1 $136 $135 $361 $362 forward $137 $-1 #
edge $-1 -1 $-1 $139 0 $363 0.19999999999999998 $238 $364 forward @7 unknown #
edge $-1 -1 $-1 $140 0 $365 0.19999999999999998 $231 $366 forward @7 unknown #
face $367 -1 $-1 $358 $137 $8 $-1 $368 forward single #
convexity-sys-attrib $-1 -1 $-1 $138 $81 #
point $-1 -1 $-1 152.33384813091229 5.0799999999999992 23.239785364768686 #
point $-1 -1 $-1 68.674911032028433 5.0799999999999992 128.77181383451955 #
attrib_edge_convexity-kcp-attrib $-1 -1 $369 $-1 $143 1 #
vertex $-1 -1 $-1 $151 $370 #
straight-curve $-1 -1 $-1 165.09999999999999 5.0799999999999992 50.799999999999997 0 0 -25.399999999999999 I I #
coedge $-1 -1 $-1 $145 $144 $222 $342 forward $146 $-1 #
edge $371 -1 $-1 $148 0 $372 0.19999999999999998 $213 $373 forward @7 unknown #
convexity-sys-attrib $-1 -1 $-1 $147 $84 #
point $-1 -1 $-1 165.09999999999999 5.0799999999999992 50.799999999999997 #
attrib_edge_convexity-kcp-attrib $-1 -1 $374 $-1 $151 1 #
straight-curve $-1 -1 $-1 165.09999999999999 5.0799999999999992 12.699999999999999 -25.399999999999999 0 0 I I #
convexity-sys-attrib $-1 -1 $-1 $152 $87 #
point $-1 -1 $-1 12.699999999999999 5.0799999999999992 12.699999999999999 #
attrib_edge_convexity-kcp-attrib $-1 -1 $375 $-1 $155 1 #
straight-curve $-1 -1 $-1 76.199999999999974 5.0799999999999992 139.69999999999999 0 -25.399999999999999 0 I I #
face $-1 -1 $-1 $-1 $376 $20 $-1 $377 forward single #
plane-surface $-1 -1 $-1 75.405997624569153 0 65.232057801380805 4.4158821410473259e-032 1 1.4605861433049482e-031 0 -1.4605861433049482e-031 1 forward_v I I I I #
coedge $-1 -1 $-1 $169 $378 $171 $281 forward $160 $-1 #
coedge $-1 -1 $-1 $379 $162 $378 $380 reversed $94 $-1 #
coedge $-1 -1 $-1 $162 $379 $163 $271 forward $94 $-1 #
coedge $-1 -1 $-1 $165 $171 $162 $269 reversed $172 $-1 #
edge $-1 -1 $-1 $272 -1.6903914590747324 $381 0 $162 $382 forward @7 unknown #
coedge $-1 -1 $-1 $164 $163 $383 $384 forward $58 $-1 #
edge $-1 -1 $-1 $385 0 $272 5.0799999999999992 $267 $386 forward @7 unknown #
vertex $-1 -1 $-1 $271 $387 #
straight-curve $-1 -1 $-1 25.738967971530222 0 128.77181383451955 0 0 25.399999999999999 I I #
coedge $-1 -1 $-1 $383 $388 $167 $275 reversed $376 $-1 #
edge $-1 -1 $-1 $276 0 $279 4.984050399975672 $167 $389 forward @7 unknown #
vertex $-1 -1 $-1 $384 $390 #
straight-curve $-1 -1 $-1 25.738967971530229 5.0799999999999992 23.239785364768686 0 -1 0 I I #
coedge $-1 -1 $-1 $378 $169 $388 $391 forward $160 $-1 #
vertex $-1 -1 $-1 $391 $392 #
straight-curve $-1 -1 $-1 152.33384813091229 5.0799999999999992 23.239785364768686 0 -1 0 I I #
edge $-1 -1 $-1 $381 -5.3019418843317414 $173 0 $265 $393 forward @7 unknown #
point $-1 -1 $-1 152.33384813091229 0 23.239785364768686 #
point $-1 -1 $-1 25.738967971530229 0 23.239785364768686 #
model_id-kcp-attrib $-1 -1 $-1 $-1 $177 1 1021408441 1021408441 -10944510 2 #
face $394 -1 $-1 $-1 $192 $21 $-1 $395 reversed single #
loop $-1 -1 $-1 $-1 $301 $177 #
plane-surface $-1 -1 $-1 0 2.5399999999999996 0 0 -1 0 0 0 -1 forward_v I I I I #
coedge $-1 -1 $-1 $396 $299 $302 $397 forward $178 $-1 #
coedge $-1 -1 $-1 $305 $180 $181 $293 reversed $103 $-1 #
coedge $-1 -1 $-1 $299 $396 $180 $291 reversed $178 $-1 #
edge $-1 -1 $-1 $306 -63.499999999999993 $398 63.499999999999993 $290 $399 forward @7 unknown #
coedge $-1 -1 $-1 $182 $181 $396 $400 forward $63 $-1 #
edge $-1 -1 $-1 $297 -76.200000000000017 $398 76.200000000000017 $289 $401 forward @7 unknown #
coedge $-1 -1 $-1 $302 $301 $182 $295 reversed $286 $-1 #
edge $-1 -1 $-1 $402 -76.200000000000017 $296 76.200000000000017 $294 $403 forward @7 unknown #
vertex $-1 -1 $-1 $184 $404 #
vertex $-1 -1 $-1 $308 $405 #
straight-curve $-1 -1 $-1 76.200000000000017 0 -63.499999999999993 0 -1 0 I I #
coedge $-1 -1 $-1 $288 $290 $185 $300 reversed $178 $-1 #
edge $-1 -1 $-1 $303 -2.5399999999999996 $306 2.5399999999999996 $299 $406 forward @7 unknown #
coedge $-1 -1 $-1 $294 $186 $191 $309 forward $286 $-1 #
coedge $-1 -1 $-1 $186 $294 $288 $397 reversed $286 $-1 #
vertex $-1 -1 $-1 $187 $407 #
straight-curve $-1 -1 $-1 0 2.5399999999999996 63.499999999999993 -1 0 0 I I #
coedge $-1 -1 $-1 $188 $289 $190 $308 reversed $103 $-1 #
vertex $-1 -1 $-1 $300 $408 #
straight-curve $-1 -1 $-1 0 -2.5399999999999996 63.499999999999993 1 0 0 I I #
edge $-1 -1 $-1 $193 -63.499999999999993 $297 63.499999999999993 $190 $409 forward @7 unknown #
edge $-1 -1 $-1 $194 -63.499999999999993 $296 63.499999999999993 $191 $410 forward @7 unknown #
point $-1 -1 $-1 76.200000000000017 -2.5399999999999996 63.499999999999993 #
point $-1 -1 $-1 76.200000000000017 2.5399999999999996 63.499999999999993 #
loop $-1 -1 $-1 $-1 $203 $196 #
plane-surface $-1 -1 $-1 76.200000000000017 0 0 -1 0 0 0 0 1 forward_v I I I I #
coedge $-1 -1 $-1 $315 $199 $321 $411 reversed $111 $-1 #
coedge $-1 -1 $-1 $199 $314 $324 $412 reversed $111 $-1 #
edge $-1 -1 $-1 $325 -89.80256121069155 $322 35.921024484276614 $199 $413 forward @7 unknown #
coedge $-1 -1 $-1 $205 $414 $200 $318 forward $197 $-1 #
edge $-1 -1 $-1 $415 -76.200000000000017 $208 12.700000000000044 $200 $416 forward @7 unknown #
coedge $-1 -1 $-1 $417 $203 $201 $320 reversed $312 $-1 #
edge $-1 -1 $-1 $415 -63.499999999999993 $207 25.399999999999991 $319 $418 forward @7 unknown #
coedge $-1 -1 $-1 $203 $417 $314 $411 forward $312 $-1 #
vertex $-1 -1 $-1 $316 $419 #
straight-curve $-1 -1 $-1 76.200000000000017 1.2699999999999998 -25.400000000000023 0 1 0 I I #
coedge $-1 -1 $-1 $414 $205 $315 $412 forward $197 $-1 #
vertex $-1 -1 $-1 $412 $420 #
straight-curve $-1 -1 $-1 -12.700000000000053 1.2699999999999998 63.499999999999986 0 -1 0 I I #
point $-1 -1 $-1 76.199999999999989 2.5399999999999996 -25.399999999999991 #
point $-1 -1 $-1 -12.700000000000044 2.5399999999999996 63.499999999999993 #
model_id-kcp-attrib $-1 -1 $-1 $-1 $211 1 1021408441 1021408441 -10944511 8 #
face $421 -1 $-1 $353 $348 $8 $-1 $422 forward single #
plane-surface $-1 -1 $-1 0 0 0 0 -1 0 25.399999999999999 0 0 forward_v I I I I #
coedge $-1 -1 $-1 $215 $213 $341 $423 forward $119 $-1 #
coedge $-1 -1 $-1 $341 $217 $214 $334 reversed $223 $-1 #
edge $424 -1 $-1 $335 0 $220 6.0000000000000009 $214 $425 forward @7 unknown #
vertex $-1 -1 $-1 $334 $426 #
straight-curve $-1 -1 $-1 165.09999999999999 5.0799999999999992 12.699999999999999 0 -25.399999999999999 0 I I #
model_id-kcp-attrib $-1 -1 $427 $-1 $218 1 1021408441 1021408441 -10944511 14 #
straight-curve $-1 -1 $-1 12.699999999999999 0 12.699999999999999 0 0 25.399999999999999 I I #
convexity-sys-attrib $-1 -1 $-1 $219 $124 #
point $-1 -1 $-1 12.699999999999999 0 12.699999999999999 #
coedge $-1 -1 $-1 $222 $333 $332 $423 reversed $223 $-1 #
edge $428 -1 $-1 $225 3.9561384785732927e-016 $372 4.9497474683058336 $253 $429 forward @7 unknown #
loop $-1 -1 $-1 $-1 $430 $211 #
attrib_edge_convexity-kcp-attrib $-1 -1 $431 $224 $126 1 #
point $-1 -1 $-1 76.199999999999989 0 139.69999999999999 #
coedge $-1 -1 $-1 $432 $229 $232 $352 forward $348 $-1 #
coedge $-1 -1 $-1 $229 $432 $237 $357 reversed $348 $-1 #
loop $-1 -1 $-1 $-1 $346 $330 #
attrib_edge_convexity-kcp-attrib $-1 -1 $433 $-1 $230 1 #
straight-curve $-1 -1 $-1 25.738967971530222 5.0799999999999992 128.77181383451955 0 0 -25.399999999999999 I I #
coedge $-1 -1 $-1 $232 $231 $434 $435 forward $233 $-1 #
edge $-1 -1 $-1 $235 0 $436 0.19999999999999998 $346 $437 forward @7 unknown #
face $438 -1 $-1 $246 $233 $8 $-1 $439 forward single #
convexity-sys-attrib $-1 -1 $-1 $234 $132 #
point $-1 -1 $-1 25.738967971530222 5.0799999999999992 128.77181383451955 #
coedge $-1 -1 $-1 $238 $237 $440 $441 forward $239 $-1 #
edge $-1 -1 $-1 $241 0 $442 0.19999999999999998 $237 $443 forward @7 unknown #
face $444 -1 $-1 $-1 $239 $8 $-1 $445 forward single #
convexity-sys-attrib $-1 -1 $-1 $240 $134 #
point $-1 -1 $-1 25.738967971530222 5.0799999999999992 23.239785364768686 #
coedge $-1 -1 $-1 $440 $434 $243 $362 reversed $343 $-1 #
edge $-1 -1 $-1 $363 0 $365 5.3019418843317423 $361 $446 forward @7 unknown #
vertex $-1 -1 $-1 $441 $447 #
straight-curve $-1 -1 $-1 152.33384813091229 5.0799999999999992 23.239785364768686 0 -25.399999999999999 0 I I #
vertex $-1 -1 $-1 $362 $448 #
straight-curve $-1 -1 $-1 68.674911032028419 5.0799999999999992 128.77181383451955 0 -25.399999999999999 0 I I #
model_id-kcp-attrib $-1 -1 $-1 $-1 $246 1 1021408441 1021408441 -10944511 11 #
plane-surface $-1 -1 $-1 110.50437958147036 2.5399999999999996 76.005799599644121 -0.78363821428161595 0 -0.62121747328735055 -15.778923821498703 0 19.904410642753046 forward_v I I I I #
convexity-sys-attrib $-1 -1 $-1 $250 $143 #
point $-1 -1 $-1 165.09999999999999 5.0799999999999992 12.699999999999999 #
attrib_edge_convexity-kcp-attrib $-1 -1 $449 $-1 $254 1 #
vertex $-1 -1 $-1 $423 $450 #
straight-curve $-1 -1 $-1 165.09999999999999 5.0799999999999992 50.799999999999997 0 -25.399999999999999 0 I I #
convexity-sys-attrib $-1 -1 $-1 $257 $151 #
convexity-sys-attrib $-1 -1 $-1 $261 $155 #
loop $-1 -1 $-1 $-1 $388 $263 #
plane-surface $-1 -1 $-1 75.405997624569153 5.0799999999999992 65.232057801380805 4.4158821410473259e-032 1 1.4605861433049482e-031 0 -1.4605861433049482e-031 1 forward_v I I I I #
coedge $-1 -1 $-1 $265 $278 $266 $380 forward $160 $-1 #
coedge $-1 -1 $-1 $267 $266 $451 $452 forward $94 $-1 #
edge $-1 -1 $-1 $453 0 $381 5.0799999999999992 $378 $454 forward @7 unknown #
vertex $-1 -1 $-1 $380 $455 #
straight-curve $-1 -1 $-1 68.674911032028433 0 128.77181383451955 25.399999999999999 0 0 I I #
coedge $-1 -1 $-1 $451 $274 $270 $384 reversed $376 $-1 #
edge $-1 -1 $-1 $385 0 $276 4.1548042704626322 $270 $456 forward @7 unknown #
vertex $-1 -1 $-1 $452 $457 #
straight-curve $-1 -1 $-1 25.738967971530229 5.0799999999999992 128.77181383451955 0 -1 0 I I #
point $-1 -1 $-1 25.738967971530229 0 128.77181383451955 #
coedge $-1 -1 $-1 $274 $451 $278 $391 reversed $376 $-1 #
straight-curve $-1 -1 $-1 25.738967971530222 5.0799999999999992 23.239785364768686 25.399999999999999 0 0 I I #
point $-1 -1 $-1 25.738967971530222 5.0799999999999992 23.239785364768686 #
edge $-1 -1 $-1 $279 0 $453 5.3019418843317414 $278 $458 forward @7 unknown #
point $-1 -1 $-1 152.33384813091229 5.0799999999999992 23.239785364768686 #
straight-curve $-1 -1 $-1 152.33384813091229 0 23.239785364768686 15.778923821498706 0 -19.904410642753046 I I #
model_id-kcp-attrib $-1 -1 $-1 $-1 $285 1 1021408441 1021408441 -10944510 6 #
plane-surface $-1 -1 $-1 76.200000000000017 0 0 -1 0 0 0 0 1 forward_v I I I I #
coedge $-1 -1 $-1 $290 $288 $292 $400 reversed $178 $-1 #
edge $-1 -1 $-1 $303 -63.499999999999993 $402 63.499999999999993 $302 $459 forward @7 unknown #
vertex $-1 -1 $-1 $400 $460 #
straight-curve $-1 -1 $-1 -76.200000000000017 -2.5399999999999996 0 0 0 -1 I I #
edge $-1 -1 $-1 $398 -2.5399999999999996 $402 2.5399999999999996 $396 $461 forward @7 unknown #
straight-curve $-1 -1 $-1 0 -2.5399999999999996 -63.499999999999993 -1 0 0 I I #
vertex $-1 -1 $-1 $295 $462 #
straight-curve $-1 -1 $-1 0 2.5399999999999996 -63.499999999999993 1 0 0 I I #
point $-1 -1 $-1 76.200000000000017 2.5399999999999996 -63.499999999999993 #
point $-1 -1 $-1 76.200000000000017 -2.5399999999999996 -63.499999999999993 #
straight-curve $-1 -1 $-1 -76.200000000000017 0 63.499999999999993 0 -1 0 I I #
point $-1 -1 $-1 -76.200000000000017 2.5399999999999996 63.499999999999993 #
point $-1 -1 $-1 -76.200000000000017 -2.5399999999999996 63.499999999999993 #
straight-curve $-1 -1 $-1 76.200000000000017 -2.5399999999999996 0 0 0 -1 I I #
straight-curve $-1 -1 $-1 76.200000000000017 2.5399999999999996 0 0 0 -1 I I #
edge $-1 -1 $-1 $463 -63.499999999999993 $322 25.399999999999991 $321 $464 forward @7 unknown #
edge $-1 -1 $-1 $325 -12.700000000000044 $463 76.200000000000017 $315 $465 forward @7 unknown #
straight-curve $-1 -1 $-1 50.799999999999983 -2.54 1.7763568394002505e-015 0.70710678118654779 0 -0.70710678118654735 I I #
coedge $-1 -1 $-1 $317 $324 $417 $466 forward $197 $-1 #
vertex $-1 -1 $-1 $466 $467 #
straight-curve $-1 -1 $-1 0 2.5399999999999996 63.499999999999993 -1 0 0 I I #
coedge $-1 -1 $-1 $321 $319 $414 $466 reversed $312 $-1 #
straight-curve $-1 -1 $-1 76.200000000000017 2.5399999999999996 0 0 0 -1 I I #
point $-1 -1 $-1 76.199999999999989 -2.5399999999999996 -25.399999999999991 #
point $-1 -1 $-1 -12.700000000000044 -2.5399999999999996 63.499999999999993 #
model_id-kcp-attrib $-1 -1 $-1 $-1 $330 1 1021408441 1021408441 -10944511 9 #
plane-surface $-1 -1 $-1 25.738967971530222 2.5399999999999996 76.005799599644121 1 0 0 0 0 -25.399999999999999 forward_v I I I I #
edge $468 -1 $-1 $372 0 $335 1.4999999999999998 $332 $469 forward @7 unknown #
model_id-kcp-attrib $-1 -1 $-1 $-1 $334 1 1021408441 1021408441 -10944511 17 #
straight-curve $-1 -1 $-1 165.09999999999999 0 12.699999999999999 -25.399999999999999 0 0 I I #
point $-1 -1 $-1 165.09999999999999 0 12.699999999999999 #
attrib_edge_convexity-kcp-attrib $-1 -1 $470 $337 $218 1 #
attrib_edge_convexity-kcp-attrib $-1 -1 $471 $-1 $342 1 #
straight-curve $-1 -1 $-1 76.199999999999974 0 139.69999999999999 17.960512242138311 0 -17.9605122421383 I I #
coedge $-1 -1 $-1 $434 $440 $432 $472 reversed $343 $-1 #
convexity-sys-attrib $-1 -1 $-1 $344 $126 #
coedge $-1 -1 $-1 $347 $346 $430 $472 forward $348 $-1 #
convexity-sys-attrib $-1 -1 $-1 $349 $230 #
coedge $-1 -1 $-1 $361 $430 $351 $435 reversed $343 $-1 #
edge $-1 -1 $-1 $365 5.5948246910244108e-016 $436 1.6903914590747329 $434 $473 forward @7 unknown #
vertex $-1 -1 $-1 $435 $474 #
straight-curve $-1 -1 $-1 25.738967971530222 5.0799999999999992 128.77181383451955 0 -25.399999999999999 0 I I #
model_id-kcp-attrib $-1 -1 $-1 $-1 $353 1 1021408441 1021408441 -10944511 10 #
plane-surface $-1 -1 $-1 47.206939501779324 2.5399999999999996 128.77181383451955 0 0 -1 -25.399999999999999 0 0 forward_v I I I I #
coedge $-1 -1 $-1 $430 $361 $356 $441 reversed $343 $-1 #
edge $-1 -1 $-1 $442 0 $363 4.984050399975672 $440 $475 forward @7 unknown #
vertex $-1 -1 $-1 $441 $476 #
straight-curve $-1 -1 $-1 25.738967971530222 5.0799999999999992 23.239785364768686 0 -25.399999999999999 0 I I #
model_id-kcp-attrib $-1 -1 $-1 $-1 $358 1 1021408441 1021408441 -10944511 12 #
plane-surface $-1 -1 $-1 89.036408051221258 2.5399999999999996 23.239785364768686 0 0 1 25.399999999999999 0 0 forward_v I I I I #
straight-curve $-1 -1 $-1 152.33384813091229 0 23.239785364768686 -15.778923821498706 0 19.904410642753046 I I #
point $-1 -1 $-1 152.33384813091229 0 23.239785364768686 #
point $-1 -1 $-1 68.674911032028419 0 128.77181383451955 #
convexity-sys-attrib $-1 -1 $-1 $371 $254 #
point $-1 -1 $-1 165.10000000000002 0 50.799999999999997 #
coedge $-1 -1 $-1 $388 $383 $379 $452 reversed $376 $-1 #
edge $-1 -1 $-1 $453 0 $385 1.6903914590747329 $379 $477 forward @7 unknown #
vertex $-1 -1 $-1 $391 $478 #
straight-curve $-1 -1 $-1 68.674911032028433 5.0799999999999992 128.77181383451955 0 -1 0 I I #
point $-1 -1 $-1 68.674911032028433 0 128.77181383451955 #
straight-curve $-1 -1 $-1 25.738967971530222 5.0799999999999992 128.77181383451955 0 0 -25.399999999999999 I I #
point $-1 -1 $-1 25.738967971530222 5.0799999999999992 128.77181383451955 #
straight-curve $-1 -1 $-1 152.33384813091229 5.0799999999999992 23.239785364768686 -15.778923821498706 0 19.904410642753046 I I #
straight-curve $-1 -1 $-1 -76.200000000000017 2.5399999999999996 0 0 0 -1 I I #
point $-1 -1 $-1 -76.200000000000017 -2.5399999999999996 -63.499999999999993 #
straight-curve $-1 -1 $-1 -76.200000000000017 0 -63.499999999999993 0 1 0 I I #
point $-1 -1 $-1 -76.200000000000017 2.5399999999999996 -63.499999999999993 #
vertex $-1 -1 $-1 $466 $479 #
straight-curve $-1 -1 $-1 76.200000000000017 -2.5399999999999996 0 0 0 -1 I I #
straight-curve $-1 -1 $-1 0 -2.5399999999999996 63.499999999999993 1 0 0 I I #
edge $-1 -1 $-1 $463 -2.5399999999999996 $415 2.5399999999999996 $417 $480 forward @7 unknown #
point $-1 -1 $-1 76.200000000000017 2.5399999999999996 63.499999999999993 #
model_id-kcp-attrib $-1 -1 $-1 $-1 $423 1 1021408441 1021408441 -10944511 16 #
straight-curve $-1 -1 $-1 165.09999999999999 0 50.799999999999997 0 0 -25.399999999999999 I I #
convexity-sys-attrib $-1 -1 $-1 $427 $218 #
convexity-sys-attrib $-1 -1 $-1 $428 $342 #
edge $-1 -1 $-1 $436 0 $442 4.1548042704626322 $430 $481 forward @7 unknown #
straight-curve $-1 -1 $-1 68.674911032028433 0 128.77181383451955 -25.399999999999999 0 0 I I #
point $-1 -1 $-1 25.738967971530222 0 128.77181383451955 #
straight-curve $-1 -1 $-1 25.738967971530222 0 23.239785364768686 25.399999999999999 0 0 I I #
point $-1 -1 $-1 25.738967971530222 0 23.239785364768686 #
straight-curve $-1 -1 $-1 68.674911032028433 5.0799999999999992 128.77181383451955 -25.399999999999999 0 0 I I #
point $-1 -1 $-1 68.674911032028433 5.0799999999999992 128.77181383451955 #
point $-1 -1 $-1 76.200000000000017 -2.5399999999999996 63.499999999999993 #
straight-curve $-1 -1 $-1 76.200000000000017 0 63.499999999999993 0 1 0 I I #
straight-curve $-1 -1 $-1 25.738967971530222 0 128.77181383451955 0 0 -25.399999999999999 I I #
End-of-ACIS-data 