600 0 1 0           
108 GICL ACIS Healer - Source: /gicl/data5/repository/PTC/V20/NC_Training_Rel20/DEMO/part_multi_12.prt.sat - 6 0 18 ACIS 6.0.3 Solaris 24 Sat Apr 13 20:50:00 2002 
1 9.999999999999999547e-07 1.000000000000000036e-10 
body $-1 $1 $-1 $-1 #
lump $-1 $-1 $2 $0 #
shell $-1 $-1 $-1 $3 $-1 $1 #
face $-1 $4 $5 $2 $-1 $6 reversed single #
face $-1 $7 $8 $2 $-1 $9 forward single #
loop $-1 $-1 $10 $3 #
plane-surface $-1 0 5.079999999999999183 0 0 -1 0 25.39999999999999858 0 0 forward_v I I I I #
face $-1 $11 $12 $2 $-1 $13 forward single #
loop $-1 $-1 $14 $4 #
plane-surface $-1 71.11999999999999034 2.539999999999999591 57.14999999999999858 0.6055218324832623011 0 0.7958286941208592147 20.2140488306698245 0 -15.38025454507486245 forward_v I I I I #
coedge $-1 $15 $16 $17 $18 forward $5 $-1 #
face $-1 $19 $20 $2 $-1 $21 forward single #
loop $-1 $-1 $22 $7 #
plane-surface $-1 12.69999999999999929 2.539999999999999591 57.14999999999999858 -1 0 0 0 0 25.39999999999999858 forward_v I I I I #
coedge $-1 $23 $17 $24 $25 forward $8 $-1 #
coedge $-1 $16 $10 $26 $27 forward $5 $-1 #
coedge $-1 $10 $15 $28 $29 forward $5 $-1 #
coedge $-1 $14 $30 $10 $18 reversed $8 $-1 #
edge $-1 $31 3.339391520769821784e-16 $32 5.780138406647370886 $10 $33 forward 7 unknown #
face $-1 $-1 $34 $2 $-1 $35 forward single #
loop $-1 $-1 $36 $11 #
plane-surface $-1 71.11999999999999034 2.539999999999999591 12.69999999999999929 0 0 -1 -25.39999999999999858 0 0 forward_v I I I I #
coedge $-1 $37 $28 $38 $39 forward $12 $-1 #
coedge $-1 $30 $14 $40 $41 forward $8 $-1 #
coedge $-1 $28 $37 $14 $25 reversed $12 $-1 #
edge $-1 $31 0 $42 0.1999999999999999833 $24 $43 forward 7 unknown #
coedge $-1 $36 $38 $15 $27 reversed $20 $-1 #
edge $-1 $32 0 $44 4.599999999999999645 $15 $45 forward 7 unknown #
coedge $-1 $22 $24 $16 $29 reversed $12 $-1 #
edge $-1 $44 0 $31 3.5 $16 $46 forward 7 unknown #
coedge $-1 $17 $23 $36 $47 reversed $8 $-1 #
vertex $-1 $29 $48 #
vertex $-1 $27 $49 #
straight-curve $-1 12.69999999999998863 5.079999999999999183 101.5999999999999943 20.21404883066982094 0 -15.38025454507486423 I I #
loop $-1 $-1 $50 $19 #
plane-surface $-1 0 0 0 0 -1 0 25.39999999999999858 0 0 forward_v I I I I #
coedge $-1 $51 $26 $30 $47 forward $20 $-1 #
coedge $-1 $24 $22 $52 $53 forward $12 $-1 #
coedge $-1 $26 $51 $22 $39 reversed $20 $-1 #
edge $-1 $44 0 $54 0.1999999999999999833 $22 $55 forward 7 unknown #
coedge $-1 $52 $50 $23 $41 reversed $34 $-1 #
edge $-1 $42 3.339391520769821784e-16 $56 5.780138406647370886 $40 $57 forward 7 unknown #
vertex $-1 $53 $58 #
straight-curve $-1 12.69999999999998863 5.079999999999999183 101.5999999999999943 0 -25.39999999999999858 0 I I #
vertex $-1 $29 $59 #
straight-curve $-1 129.539999999999992 5.079999999999999183 12.69999999999999929 -25.39999999999999858 0 0 I I #
straight-curve $-1 12.69999999999999929 5.079999999999999183 12.69999999999999929 0 0 25.39999999999999858 I I #
edge $-1 $32 0 $56 0.1999999999999999833 $36 $60 forward 7 unknown #
point $-1 12.69999999999999929 5.079999999999999183 101.5999999999999943 #
point $-1 129.539999999999992 5.079999999999999183 12.69999999999999929 #
coedge $-1 $40 $52 $51 $61 reversed $34 $-1 #
coedge $-1 $38 $36 $50 $61 forward $20 $-1 #
coedge $-1 $50 $40 $37 $53 reversed $34 $-1 #
edge $-1 $54 0 $42 3.5 $52 $62 forward 7 unknown #
vertex $-1 $53 $63 #
straight-curve $-1 12.69999999999999929 5.079999999999999183 12.69999999999999929 0 -25.39999999999999858 0 I I #
vertex $-1 $41 $64 #
straight-curve $-1 12.69999999999998863 0 101.5999999999999943 20.21404883066982094 0 -15.38025454507486423 I I #
point $-1 12.69999999999999929 0 101.5999999999999943 #
point $-1 12.69999999999999929 5.079999999999999183 12.69999999999999929 #
straight-curve $-1 129.539999999999992 5.079999999999999183 12.69999999999999929 0 -25.39999999999999858 0 I I #
edge $-1 $56 0 $54 4.599999999999999645 $50 $65 forward 7 unknown #
straight-curve $-1 12.69999999999999929 0 12.69999999999999929 0 0 25.39999999999999858 I I #
point $-1 12.69999999999999929 0 12.69999999999999929 #
point $-1 129.539999999999992 0 12.70000000000000462 #
straight-curve $-1 129.539999999999992 0 12.69999999999999929 -25.39999999999999858 0 0 I I #
End-of-ACIS-data 