600 0 1 0           
111 GICL Pro/E ACIS Translator - Source: f:/data5/repository/PTC/V20/NC_Training_Rel20/DEMO/part_grain_11.prt - 6 0 13 ACIS 6.0.3 NT 24 Thu Apr 04 13:13:11 2002 
1 9.9999999999999995e-007 1e-010 
body $-1 $1 $-1 $2 #
lump $-1 $-1 $3 $0 #
transform $-1 1 0 0 0 1 0 0 0 1 0 0 0 25.399999999999999 no_rotate no_reflect no_shear #
shell $-1 $-1 $-1 $4 $-1 $1 #
face $-1 $5 $6 $3 $-1 $7 reversed single #
face $-1 $8 $9 $3 $-1 $10 forward single #
loop $-1 $-1 $11 $4 #
plane-surface $-1 0 0.19999999999999998 0 0 -1 0 1 0 0 forward_v I I I I #
face $-1 $12 $13 $3 $-1 $14 forward single #
loop $-1 $-1 $15 $5 #
plane-surface $-1 4.9939578110580971 0.099999999999999992 5.6756916173919594 -0.94138764633466143 0 -0.33732669525029652 -0.33732669525029652 0 0.94138764633466143 forward_v I I I I #
coedge $-1 $16 $17 $18 $19 forward $6 $-1 #
face $-1 $20 $21 $3 $-1 $22 reversed single #
loop $-1 $-1 $23 $8 #
plane-surface $-1 2.734248096354305 0.099999999999999992 4.3513832347839188 0 0 1 1 0 0 forward_v I I I I #
coedge $-1 $24 $18 $25 $26 forward $9 $-1 #
coedge $-1 $27 $11 $28 $29 forward $6 $-1 #
coedge $-1 $11 $30 $31 $32 forward $6 $-1 #
coedge $-1 $15 $33 $11 $19 reversed $9 $-1 #
edge $-1 $34 0 $35 2.8135240307524736 $11 $36 forward 7 unknown #
face $-1 $37 $38 $3 $-1 $39 reversed single #
loop $-1 $-1 $40 $12 #
plane-surface $-1 0 0.099999999999999992 3.5 1 0 0 0 0 1 forward_v I I I I #
coedge $-1 $41 $31 $42 $43 forward $13 $-1 #
coedge $-1 $33 $15 $44 $45 forward $9 $-1 #
coedge $-1 $31 $41 $15 $26 reversed $13 $-1 #
edge $-1 $34 0 $46 0.19999999999999998 $25 $47 forward 7 unknown #
coedge $-1 $48 $16 $49 $50 reversed $6 $-1 #
coedge $-1 $51 $52 $16 $29 reversed $53 $-1 #
edge $-1 $35 -6.2895533633577997e-016 $54 4.9295030147596792 $16 $55 forward 7 unknown #
coedge $-1 $17 $56 $40 $57 forward $6 $-1 #
coedge $-1 $23 $25 $17 $32 reversed $13 $-1 #
edge $-1 $58 0 $34 5.46849619270861 $17 $59 forward 7 unknown #
coedge $-1 $18 $24 $51 $60 reversed $9 $-1 #
vertex $-1 $32 $61 #
vertex $-1 $29 $62 #
straight-curve $-1 5.46849619270861 0.19999999999999998 4.3513832347839188 -0.33732669525029652 0 0.94138764633466143 I I #
face $-1 $63 $64 $3 $-1 $65 forward single #
loop $-1 $-1 $66 $20 #
plane-surface $-1 2.734248096354305 0.099999999999999992 2.7493817008113264 0 0 1 1 0 0 forward_v I I I I #
coedge $-1 $67 $42 $30 $57 reversed $21 $-1 #
coedge $-1 $25 $23 $68 $69 forward $13 $-1 #
coedge $-1 $40 $70 $23 $43 reversed $21 $-1 #
edge $-1 $58 0 $71 0.19999999999999998 $42 $72 forward 7 unknown #
coedge $-1 $68 $73 $24 $45 reversed $74 $-1 #
edge $-1 $46 0 $75 2.813524030752474 $44 $76 forward 7 unknown #
vertex $-1 $69 $77 #
straight-curve $-1 5.46849619270861 0.19999999999999998 4.3513832347839188 0 -1 0 I I #
coedge $-1 $78 $27 $79 $80 forward $6 $-1 #
coedge $-1 $81 $82 $27 $50 forward $83 $-1 #
edge $-1 $84 0 $54 0.023497254047652127 $27 $85 forward 7 unknown #
coedge $-1 $86 $28 $33 $60 forward $53 $-1 #
coedge $-1 $28 $86 $81 $87 reversed $53 $-1 #
loop $-1 $-1 $51 $88 #
vertex $-1 $50 $89 #
straight-curve $-1 4.5194194294075851 0.19999999999999998 6.9999999999999991 0.70607129363163579 0 -0.70814075458862569 I I #
coedge $-1 $30 $78 $90 $91 reversed $6 $-1 #
edge $-1 $92 0 $58 1.6020015339725928 $30 $93 forward 7 unknown #
vertex $-1 $32 $94 #
straight-curve $-1 0 0.19999999999999998 4.3513832347839188 1 0 0 I I #
edge $-1 $35 0 $75 0.19999999999999998 $51 $95 forward 7 unknown #
point $-1 5.46849619270861 0.19999999999999998 4.3513832347839188 #
point $-1 4.5194194294075851 0.19999999999999998 7 #
face $-1 $96 $97 $3 $-1 $98 forward single #
loop $-1 $-1 $99 $37 #
plane-surface $-1 4.9888398867886341 0.099999999999999992 1.3772437788354361 -0.94398526989658915 0 0.32998759100648611 0.32998759100648611 0 0.94398526989658915 forward_v I I I I #
coedge $-1 $100 $90 $101 $102 forward $38 $-1 #
coedge $-1 $70 $40 $103 $104 forward $21 $-1 #
coedge $-1 $105 $44 $41 $69 reversed $74 $-1 #
edge $-1 $71 0 $46 5.46849619270861 $68 $106 forward 7 unknown #
coedge $-1 $42 $67 $105 $107 forward $21 $-1 #
vertex $-1 $69 $108 #
straight-curve $-1 0 0.19999999999999998 4.3513832347839188 0 -1 0 I I #
coedge $-1 $44 $109 $86 $110 reversed $74 $-1 #
loop $-1 $-1 $105 $111 #
vertex $-1 $45 $112 #
straight-curve $-1 5.46849619270861 0 4.3513832347839188 -0.33732669525029652 0 0.94138764633466143 I I #
point $-1 5.46849619270861 0 4.3513832347839188 #
coedge $-1 $56 $48 $113 $114 forward $6 $-1 #
coedge $-1 $115 $116 $48 $80 reversed $97 $-1 #
edge $-1 $84 0 $117 4.9295516414095282 $48 $118 forward 7 unknown #
coedge $-1 $119 $49 $52 $87 forward $83 $-1 #
coedge $-1 $49 $119 $115 $120 reversed $83 $-1 #
loop $-1 $-1 $49 $96 #
vertex $-1 $80 $121 #
straight-curve $-1 8 0.19999999999999998 3.485720761333523 0 0 1 I I #
coedge $-1 $52 $51 $73 $110 forward $53 $-1 #
edge $-1 $54 0 $122 0.19999999999999998 $81 $123 forward 7 unknown #
face $-1 $111 $53 $3 $-1 $124 forward single #
point $-1 8 0.19999999999999998 3.5092180153811752 #
coedge $-1 $66 $103 $56 $91 forward $38 $-1 #
edge $-1 $92 0 $125 5.46849619270861 $56 $126 forward 7 unknown #
vertex $-1 $57 $127 #
straight-curve $-1 0 0.19999999999999998 2.7493817008113268 0 0 1 I I #
point $-1 0 0.19999999999999998 4.3513832347839196 #
straight-curve $-1 4.5194194294075842 0.19999999999999998 7 0 -1 0 I I #
face $-1 $88 $83 $3 $-1 $128 forward single #
loop $-1 $-1 $115 $63 #
plane-surface $-1 6.2545917904343291 0.099999999999999992 1.7454133090965347 0.70607129363163557 0 -0.70814075458862602 -0.70814075458862602 0 -0.70607129363163557 forward_v I I I I #
coedge $-1 $129 $113 $116 $130 forward $64 $-1 #
coedge $-1 $103 $66 $131 $132 reversed $38 $-1 #
coedge $-1 $113 $129 $66 $102 reversed $64 $-1 #
edge $-1 $125 0 $133 0.19999999999999998 $66 $134 forward 7 unknown #
coedge $-1 $90 $100 $67 $104 reversed $38 $-1 #
edge $-1 $92 0 $135 0.19999999999999998 $67 $136 forward 7 unknown #
coedge $-1 $131 $68 $70 $107 reversed $74 $-1 #
straight-curve $-1 0 0 4.3513832347839188 1 0 0 I I #
edge $-1 $135 -4.4408920985006262e-016 $71 1.6020015339725928 $105 $137 forward 7 unknown #
point $-1 0 0 4.3513832347839196 #
coedge $-1 $73 $138 $119 $139 forward $74 $-1 #
edge $-1 $75 -1.2560726221091494e-015 $122 4.9295030147596792 $73 $140 forward 7 unknown #
face $-1 $-1 $74 $3 $-1 $141 forward single #
point $-1 4.5194194294075842 0 7 #
coedge $-1 $99 $101 $78 $114 reversed $64 $-1 #
edge $-1 $117 -8.5152777250627614e-017 $125 2.9071172310267173 $78 $142 forward 7 unknown #
coedge $-1 $143 $79 $82 $120 forward $97 $-1 #
coedge $-1 $79 $143 $99 $130 reversed $97 $-1 #
vertex $-1 $114 $144 #
straight-curve $-1 8 0.19999999999999998 3.485720761333523 -0.70814075458862602 0 -0.70607129363163557 I I #
coedge $-1 $82 $81 $109 $139 reversed $83 $-1 #
edge $-1 $84 0 $145 0.19999999999999998 $82 $146 forward 7 unknown #
point $-1 8 0.19999999999999998 3.485720761333523 #
vertex $-1 $110 $147 #
straight-curve $-1 8 0.19999999999999998 3.5092180153811761 0 -1 0 I I #
plane-surface $-1 6.2597097147037921 0.099999999999999992 5.254609007690588 0.70814075458862569 0 0.70607129363163601 0.7060712936316359 0 -0.70814075458862558 forward_v I I I I #
vertex $-1 $91 $148 #
straight-curve $-1 0 0.19999999999999998 2.7493817008113264 1 0 0 I I #
point $-1 0 0.19999999999999998 2.7493817008113268 #
plane-surface $-1 8 0.099999999999999992 3.5 1 0 0 0 0 1 forward_v I I I I #
coedge $-1 $101 $99 $149 $150 forward $64 $-1 #
edge $-1 $117 0 $151 0.19999999999999998 $99 $152 forward 7 unknown #
coedge $-1 $149 $105 $100 $132 forward $74 $-1 #
edge $-1 $135 0 $133 5.46849619270861 $131 $153 forward 7 unknown #
vertex $-1 $150 $154 #
straight-curve $-1 5.46849619270861 0.19999999999999998 2.7493817008113264 0 -1 0 I I #
vertex $-1 $132 $155 #
straight-curve $-1 0 0.19999999999999998 2.7493817008113264 0 -1 0 I I #
straight-curve $-1 0 0 2.7493817008113268 0 0 1 I I #
coedge $-1 $109 $149 $143 $156 reversed $74 $-1 #
edge $-1 $145 0 $122 0.023497254047653016 $109 $157 forward 7 unknown #
straight-curve $-1 4.5194194294075851 0 6.9999999999999991 0.70607129363163579 0 -0.70814075458862569 I I #
plane-surface $-1 0 0 0 0 -1 0 1 0 0 forward_v I I I I #
straight-curve $-1 4.5091835808686573 0.19999999999999998 0.0051058568595452325 0.32998759100648606 0 0.94398526989658915 I I #
coedge $-1 $116 $115 $138 $156 forward $97 $-1 #
point $-1 4.5091835808686573 0.19999999999999998 0.0051058568595451423 #
vertex $-1 $139 $158 #
straight-curve $-1 8 0.19999999999999998 3.485720761333523 0 -1 0 I I #
point $-1 8 0 3.5092180153811761 #
point $-1 5.46849619270861 0.19999999999999998 2.7493817008113259 #
coedge $-1 $138 $131 $129 $150 reversed $74 $-1 #
edge $-1 $151 1.3411220386469779e-015 $133 2.9071172310267173 $149 $159 forward 7 unknown #
vertex $-1 $156 $160 #
straight-curve $-1 4.5091835808686582 0.19999999999999998 0.0051058568595463427 0 -1 0 I I #
straight-curve $-1 0 0 2.7493817008113264 1 0 0 I I #
point $-1 5.46849619270861 0 2.7493817008113259 #
point $-1 0 0 2.7493817008113264 #
edge $-1 $145 0 $151 4.9295516414095264 $138 $161 forward 7 unknown #
straight-curve $-1 8 0 3.485720761333523 0 0 1 I I #
point $-1 8 0 3.485720761333523 #
straight-curve $-1 4.5091835808686573 0 0.0051058568595452325 0.32998759100648606 0 0.94398526989658915 I I #
point $-1 4.5091835808686582 0 0.0051058568595463427 #
straight-curve $-1 8 0 3.485720761333523 -0.70814075458862602 0 -0.70607129363163557 I I #
End-of-ACIS-data 