600 0 1 0           
111 GICL Pro/E ACIS Translator - Source: f:/data5/repository/PTC/V20/NC_Training_Rel20/DEMO/part_trian_ll.prt - 6 0 13 ACIS 6.0.3 NT 24 Thu Apr 04 13:13:14 2002 
1 9.9999999999999995e-007 1e-010 
body $-1 $1 $-1 $2 #
lump $-1 $-1 $3 $0 #
transform $-1 1 0 0 0 1 0 0 0 1 0 0 0 25.399999999999999 no_rotate no_reflect no_shear #
shell $-1 $-1 $-1 $4 $-1 $1 #
face $-1 $5 $6 $3 $-1 $7 reversed single #
face $-1 $8 $9 $3 $-1 $10 reversed single #
loop $-1 $-1 $11 $4 #
plane-surface $-1 0 0.19999999999999998 0 0 -1 0 1 0 0 forward_v I I I I #
face $-1 $12 $13 $3 $-1 $14 forward single #
loop $-1 $-1 $15 $5 #
plane-surface $-1 0 0.099999999999999992 2.5 1 0 0 0 0 1 forward_v I I I I #
coedge $-1 $16 $17 $18 $19 forward $6 $-1 #
face $-1 $20 $21 $3 $-1 $22 forward single #
loop $-1 $-1 $23 $8 #
plane-surface $-1 0 0 0 0 -1 0 1 0 0 forward_v I I I I #
coedge $-1 $24 $25 $26 $27 forward $9 $-1 #
coedge $-1 $28 $11 $29 $30 forward $6 $-1 #
coedge $-1 $11 $28 $31 $32 forward $6 $-1 #
coedge $-1 $25 $24 $11 $19 reversed $9 $-1 #
edge $-1 $33 0 $34 5 $11 $35 forward 7 unknown #
face $-1 $36 $37 $3 $-1 $38 reversed single #
loop $-1 $-1 $39 $12 #
plane-surface $-1 8 0.099999999999999992 2.5 1 0 0 0 0 1 forward_v I I I I #
coedge $-1 $40 $41 $42 $43 forward $13 $-1 #
coedge $-1 $18 $15 $44 $45 forward $9 $-1 #
coedge $-1 $15 $18 $46 $47 forward $9 $-1 #
coedge $-1 $41 $40 $15 $27 reversed $13 $-1 #
edge $-1 $48 0 $49 5 $26 $50 forward 7 unknown #
coedge $-1 $17 $16 $39 $51 reversed $6 $-1 #
coedge $-1 $44 $52 $16 $30 reversed $37 $-1 #
edge $-1 $34 0 $53 8 $16 $54 forward 7 unknown #
coedge $-1 $55 $46 $17 $32 reversed $56 $-1 #
edge $-1 $57 0 $33 9.4295794001971167 $17 $58 forward 7 unknown #
vertex $-1 $32 $59 #
vertex $-1 $30 $60 #
straight-curve $-1 0 0.19999999999999998 0 0 0 1 I I #
face $-1 $-1 $56 $3 $-1 $61 forward single #
loop $-1 $-1 $52 $20 #
plane-surface $-1 4 0.099999999999999992 5 0 0 -1 1 0 0 forward_v I I I I #
coedge $-1 $62 $63 $28 $51 forward $21 $-1 #
coedge $-1 $26 $23 $64 $65 reversed $13 $-1 #
coedge $-1 $23 $26 $66 $67 reversed $13 $-1 #
coedge $-1 $63 $62 $23 $43 reversed $21 $-1 #
edge $-1 $68 0 $69 0.0083101393794686729 $23 $70 forward 7 unknown #
coedge $-1 $64 $29 $24 $45 reversed $37 $-1 #
edge $-1 $49 0 $34 0.19999999999999998 $44 $71 forward 7 unknown #
coedge $-1 $31 $66 $25 $47 reversed $56 $-1 #
edge $-1 $33 0 $48 0.19999999999999998 $25 $72 forward 7 unknown #
vertex $-1 $67 $73 #
vertex $-1 $65 $74 #
straight-curve $-1 0 0 0 0 0 1 I I #
edge $-1 $57 0 $53 0.0083101393794686729 $28 $75 forward 7 unknown #
coedge $-1 $29 $64 $62 $76 forward $37 $-1 #
vertex $-1 $51 $77 #
straight-curve $-1 0 0.19999999999999998 5 1 0 0 I I #
coedge $-1 $66 $31 $63 $78 forward $56 $-1 #
loop $-1 $-1 $55 $36 #
vertex $-1 $32 $79 #
straight-curve $-1 8 0.19999999999999998 4.9916898606205313 -0.84839414999069496 0 -0.52936505953979074 I I #
point $-1 0 0.19999999999999998 0 #
point $-1 0 0.19999999999999998 5 #
plane-surface $-1 4 0.099999999999999992 2.4958449303102657 0.52936505953979074 0 -0.84839414999069496 -0.84839414999069496 0 -0.52936505953979074 forward_v I I I I #
coedge $-1 $42 $39 $52 $76 reversed $21 $-1 #
coedge $-1 $39 $42 $55 $78 reversed $21 $-1 #
coedge $-1 $52 $44 $40 $65 forward $37 $-1 #
edge $-1 $49 0 $69 8 $64 $80 forward 7 unknown #
coedge $-1 $46 $55 $41 $67 forward $56 $-1 #
edge $-1 $68 0 $48 9.4295794001971167 $41 $81 forward 7 unknown #
vertex $-1 $67 $82 #
vertex $-1 $65 $83 #
straight-curve $-1 8 0 4.9916898606205313 0 0 1 I I #
straight-curve $-1 0 0 5 0 1 0 I I #
straight-curve $-1 0 0.19999999999999998 0 0 -1 0 I I #
point $-1 0 0 0 #
point $-1 0 0 5 #
straight-curve $-1 8 0.19999999999999998 4.9916898606205313 0 0 1 I I #
edge $-1 $69 0 $53 0.19999999999999998 $52 $84 forward 7 unknown #
point $-1 8 0.19999999999999998 5 #
edge $-1 $57 0 $68 0.19999999999999998 $63 $85 forward 7 unknown #
point $-1 8 0.19999999999999998 4.9916898606205313 #
straight-curve $-1 0 0 5 1 0 0 I I #
straight-curve $-1 8 0 4.9916898606205313 -0.84839414999069496 0 -0.52936505953979074 I I #
point $-1 8 0 4.9916898606205313 #
point $-1 8 0 5 #
straight-curve $-1 8 0 5 0 1 0 I I #
straight-curve $-1 8 0.19999999999999998 4.9916898606205313 0 -1 0 I I #
End-of-ACIS-data 