700 0 2 0           
24 FBMach with ACIS - 7.0.3 13 ACIS 7.0.3 NT 24 Tue May 14 16:13:18 2002 
1 9.9999999999999995e-007 1e-010 
body $2 -1 $-1 $3 $-1 $4 #
bdycol-kcp $-1 -1 1 2 $5 $6 #
model_id-kcp-attrib $-1 -1 $-1 $-1 $0 1 1021407198 1021407198 796852225 1 #
lump $-1 -1 $-1 $-1 $7 $0 #
transform $-1 -1 1 0 0 0 1 0 0 0 1 0 0 -7.1054273576010019e-015 1 rotate no_reflect no_shear #
body $8 -1 $-1 $9 $-1 $10 #
body $11 -1 $-1 $12 $-1 $13 #
shell $-1 -1 $-1 $-1 $-1 $14 $-1 $3 #
model_id-kcp-attrib $-1 -1 $-1 $-1 $5 1 1021407198 1021407198 796852226 1 #
lump $-1 -1 $-1 $-1 $15 $5 #
transform $-1 -1 1 0 0 0 1 0 0 0 1 101.59999999999999 2.5399999999999996 63.5 1 no_rotate no_reflect no_shear #
rgb_color-st-attrib $-1 -1 $16 $-1 $6 0.5 1 1 #
lump $-1 -1 $-1 $-1 $17 $6 #
transform $-1 -1 1 0 0 0 1 0 0 0 1 101.59999999999999 2.5399999999999996 63.5 1 no_rotate no_reflect no_shear #
face $18 -1 $-1 $19 $20 $7 $-1 $21 reversed single #
shell $-1 -1 $-1 $-1 $-1 $22 $-1 $9 #
model_id-kcp-attrib $-1 -1 $-1 $11 $6 1 1021407198 1021407198 804126723 1 #
shell $-1 -1 $-1 $-1 $-1 $23 $-1 $12 #
model_id-kcp-attrib $-1 -1 $-1 $-1 $14 1 1021407198 1021407198 796852225 2 #
face $24 -1 $-1 $25 $26 $7 $-1 $27 reversed single #
loop $-1 -1 $-1 $-1 $28 $14 #
plane-surface $-1 -1 $-1 0 5.0799999999999992 0 0 -1 0 25.399999999999999 0 0 forward_v I I I I #
face $29 -1 $-1 $30 $31 $15 $-1 $32 forward single #
face $-1 -1 $-1 $33 $34 $17 $-1 $35 reversed single #
model_id-kcp-attrib $-1 -1 $-1 $-1 $19 1 1021407198 1021407198 796852225 3 #
face $36 -1 $-1 $37 $38 $7 $-1 $39 forward single #
loop $-1 -1 $-1 $-1 $40 $19 #
plane-surface $-1 -1 $-1 0 2.5399999999999996 63.5 1 0 0 0 0 25.399999999999999 forward_v I I I I #
coedge $-1 -1 $-1 $41 $42 $43 $44 forward $20 $-1 #
model_id-kcp-attrib $-1 -1 $-1 $-1 $22 1 1021407198 1021407198 796852226 6 #
face $-1 -1 $-1 $45 $46 $15 $-1 $47 reversed single #
loop $-1 -1 $-1 $-1 $48 $22 #
plane-surface $-1 -1 $-1 0 0 63.5 0 0 1 1 0 0 forward_v I I I I #
face $-1 -1 $-1 $49 $50 $17 $-1 $51 reversed single #
loop $-1 -1 $-1 $-1 $52 $23 #
plane-surface $-1 -1 $-1 -101.59999999999999 2.5399999999999996 -63.499999999999972 0.52936505953979074 0 -0.84839414999069496 0 1 0 forward_v I I I I #
model_id-kcp-attrib $-1 -1 $-1 $-1 $25 1 1021407198 1021407198 796852225 4 #
face $53 -1 $-1 $54 $55 $7 $-1 $56 forward single #
loop $-1 -1 $-1 $-1 $57 $25 #
plane-surface $-1 -1 $-1 0 0 0 0 -1 0 25.399999999999999 0 0 forward_v I I I I #
coedge $-1 -1 $-1 $58 $59 $60 $61 forward $26 $-1 #
coedge $-1 -1 $-1 $62 $28 $63 $64 forward $20 $-1 #
coedge $-1 -1 $-1 $28 $62 $65 $66 forward $20 $-1 #
coedge $-1 -1 $-1 $59 $58 $28 $44 reversed $26 $-1 #
edge $67 -1 $-1 $68 0 $69 5 $28 $70 forward @7 unknown #
face $71 -1 $-1 $72 $73 $15 $-1 $74 reversed single #
loop $-1 -1 $-1 $-1 $75 $30 #
plane-surface $-1 -1 $-1 0 0 -63.5 0 0 1 1 0 0 forward_v I I I I #
coedge $-1 -1 $-1 $76 $77 $78 $79 forward $31 $-1 #
face $-1 -1 $-1 $80 $81 $17 $-1 $82 reversed single #
loop $-1 -1 $-1 $-1 $83 $33 #
plane-surface $-1 -1 $-1 101.59999999999999 0 0 -1 0 0 0 0 1 forward_v I I I I #
coedge $-1 -1 $-1 $84 $85 $86 $87 reversed $34 $-1 #
model_id-kcp-attrib $-1 -1 $-1 $-1 $37 1 1021407198 1021407198 796852225 5 #
face $88 -1 $-1 $89 $90 $7 $-1 $91 reversed single #
loop $-1 -1 $-1 $-1 $92 $37 #
plane-surface $-1 -1 $-1 203.19999999999999 2.5399999999999996 63.5 1 0 0 0 0 25.399999999999999 forward_v I I I I #
coedge $-1 -1 $-1 $93 $94 $95 $96 forward $38 $-1 #
coedge $-1 -1 $-1 $43 $40 $97 $98 forward $26 $-1 #
coedge $-1 -1 $-1 $40 $43 $99 $100 forward $26 $-1 #
coedge $-1 -1 $-1 $94 $93 $40 $61 reversed $38 $-1 #
edge $101 -1 $-1 $102 0 $103 5 $60 $104 forward @7 unknown #
coedge $-1 -1 $-1 $42 $41 $92 $105 reversed $20 $-1 #
coedge $-1 -1 $-1 $97 $106 $41 $64 reversed $90 $-1 #
edge $107 -1 $-1 $69 0 $108 8 $41 $109 forward @7 unknown #
coedge $-1 -1 $-1 $110 $99 $42 $66 reversed $111 $-1 #
edge $112 -1 $-1 $113 0 $68 9.4295794001971167 $42 $114 forward @7 unknown #
attrib_edge_convexity-kcp-attrib $-1 -1 $115 $-1 $44 1 #
vertex $-1 -1 $-1 $66 $116 #
vertex $-1 -1 $-1 $64 $117 #
straight-curve $-1 -1 $-1 0 5.0799999999999992 0 0 0 25.399999999999999 I I #
model_id-kcp-attrib $-1 -1 $-1 $-1 $45 1 1021407198 1021407198 796852226 4 #
face $118 -1 $-1 $119 $120 $15 $-1 $121 reversed single #
loop $-1 -1 $-1 $-1 $122 $45 #
plane-surface $-1 -1 $-1 0 -2.5399999999999996 0 0 1 0 0 0 1 forward_v I I I I #
coedge $-1 -1 $-1 $123 $124 $125 $126 forward $46 $-1 #
coedge $-1 -1 $-1 $127 $48 $128 $129 forward $31 $-1 #
coedge $-1 -1 $-1 $48 $127 $130 $131 forward $31 $-1 #
coedge $-1 -1 $-1 $132 $133 $48 $79 reversed $134 $-1 #
edge $-1 -1 $-1 $135 -2.5399999999999996 $136 2.5399999999999996 $78 $137 forward @7 unknown #
face $-1 -1 $-1 $138 $139 $17 $-1 $140 reversed single #
loop $-1 -1 $-1 $-1 $141 $49 #
plane-surface $-1 -1 $-1 0 -2.5399999999999996 0 0 1 0 0 0 1 forward_v I I I I #
coedge $-1 -1 $-1 $142 $143 $85 $144 forward $50 $-1 #
coedge $-1 -1 $-1 $145 $52 $146 $147 reversed $34 $-1 #
coedge $-1 -1 $-1 $52 $145 $83 $144 reversed $34 $-1 #
coedge $-1 -1 $-1 $148 $149 $52 $87 forward $150 $-1 #
edge $-1 -1 $-1 $151 -59.905763459915661 $152 179.60555330509112 $86 $153 forward @7 unknown #
model_id-kcp-attrib $-1 -1 $-1 $-1 $54 1 1021407198 1021407198 796852225 6 #
face $154 -1 $-1 $-1 $111 $7 $-1 $155 forward single #
loop $-1 -1 $-1 $-1 $106 $54 #
plane-surface $-1 -1 $-1 101.59999999999999 2.5399999999999996 127 0 0 -1 25.399999999999999 0 0 forward_v I I I I #
coedge $-1 -1 $-1 $156 $157 $62 $105 forward $55 $-1 #
coedge $-1 -1 $-1 $60 $57 $158 $159 reversed $38 $-1 #
coedge $-1 -1 $-1 $57 $60 $160 $161 reversed $38 $-1 #
coedge $-1 -1 $-1 $157 $156 $57 $96 reversed $55 $-1 #
edge $162 -1 $-1 $163 0 $164 0.0083101393794687371 $57 $165 forward @7 unknown #
coedge $-1 -1 $-1 $158 $63 $58 $98 reversed $90 $-1 #
edge $166 -1 $-1 $103 0 $69 0.19999999999999998 $97 $167 forward @7 unknown #
coedge $-1 -1 $-1 $65 $160 $59 $100 reversed $111 $-1 #
edge $168 -1 $-1 $68 0 $102 0.19999999999999998 $59 $169 forward @7 unknown #
model_id-kcp-attrib $-1 -1 $170 $-1 $61 1 1021407198 1021407198 796852225 9 #
vertex $-1 -1 $-1 $161 $171 #
vertex $-1 -1 $-1 $159 $172 #
straight-curve $-1 -1 $-1 0 0 0 0 0 25.399999999999999 I I #
edge $173 -1 $-1 $113 0 $108 0.0083101393794687371 $62 $174 forward @7 unknown #
coedge $-1 -1 $-1 $63 $158 $156 $175 forward $90 $-1 #
attrib_edge_convexity-kcp-attrib $-1 -1 $176 $-1 $64 1 #
vertex $-1 -1 $-1 $105 $177 #
straight-curve $-1 -1 $-1 0 5.0799999999999992 127 25.399999999999999 0 0 I I #
coedge $-1 -1 $-1 $160 $65 $157 $178 forward $111 $-1 #
loop $-1 -1 $-1 $-1 $110 $89 #
attrib_edge_convexity-kcp-attrib $-1 -1 $179 $-1 $66 1 #
vertex $-1 -1 $-1 $66 $180 #
straight-curve $-1 -1 $-1 203.19999999999999 5.0799999999999992 126.78892245976149 -21.54921140976365 0 -13.445872512310684 I I #
convexity-sys-attrib $-1 -1 $-1 $67 $44 #
point $-1 -1 $-1 0 5.0799999999999992 0 #
point $-1 -1 $-1 0 5.0799999999999992 127 #
model_id-kcp-attrib $-1 -1 $-1 $-1 $72 1 1021407198 1021407198 796852226 3 #
face $181 -1 $-1 $182 $183 $15 $-1 $184 reversed single #
loop $-1 -1 $-1 $-1 $185 $72 #
plane-surface $-1 -1 $-1 -101.59999999999999 0 0 1 0 0 0 0 -1 forward_v I I I I #
coedge $-1 -1 $-1 $186 $130 $187 $188 forward $73 $-1 #
coedge $-1 -1 $-1 $189 $75 $186 $190 forward $46 $-1 #
coedge $-1 -1 $-1 $75 $189 $191 $192 forward $46 $-1 #
coedge $-1 -1 $-1 $133 $132 $75 $126 reversed $134 $-1 #
edge $-1 -1 $-1 $193 -2.5399999999999996 $194 2.5399999999999996 $125 $195 forward @7 unknown #
coedge $-1 -1 $-1 $77 $76 $196 $197 forward $31 $-1 #
coedge $-1 -1 $-1 $198 $199 $76 $129 reversed $183 $-1 #
edge $-1 -1 $-1 $136 -101.59999999999999 $200 101.59999999999999 $128 $201 forward @7 unknown #
coedge $-1 -1 $-1 $122 $202 $77 $131 reversed $73 $-1 #
edge $-1 -1 $-1 $203 -101.59999999999999 $135 101.59999999999999 $130 $204 forward @7 unknown #
coedge $-1 -1 $-1 $125 $78 $202 $205 forward $134 $-1 #
coedge $-1 -1 $-1 $78 $125 $198 $206 reversed $134 $-1 #
loop $-1 -1 $-1 $-1 $132 $182 #
vertex $-1 -1 $-1 $79 $207 #
vertex $-1 -1 $-1 $79 $208 #
straight-curve $-1 -1 $-1 101.59999999999999 0 63.5 0 1 0 I I #
face $-1 -1 $-1 $-1 $150 $17 $-1 $209 reversed single #
loop $-1 -1 $-1 $-1 $210 $80 #
plane-surface $-1 -1 $-1 0 0 -63.5 0 0 1 1 0 0 forward_v I I I I #
coedge $-1 -1 $-1 $211 $212 $145 $213 forward $81 $-1 #
coedge $-1 -1 $-1 $214 $83 $212 $215 forward $50 $-1 #
coedge $-1 -1 $-1 $83 $214 $148 $216 reversed $50 $-1 #
edge $-1 -1 $-1 $152 -1.2699999999999998 $217 3.8099999999999996 $83 $218 forward @7 unknown #
coedge $-1 -1 $-1 $85 $84 $141 $213 reversed $34 $-1 #
coedge $-1 -1 $-1 $219 $220 $84 $147 forward $139 $-1 #
edge $-1 -1 $-1 $221 -2.5399999999999996 $151 2.5399999999999996 $146 $222 forward @7 unknown #
coedge $-1 -1 $-1 $149 $86 $143 $216 forward $150 $-1 #
coedge $-1 -1 $-1 $86 $148 $219 $223 reversed $150 $-1 #
loop $-1 -1 $-1 $-1 $86 $138 #
vertex $-1 -1 $-1 $223 $224 #
vertex $-1 -1 $-1 $216 $225 #
straight-curve $-1 -1 $-1 -50.776300729881221 2.5399999999999996 -31.787981959265103 0.84839414999069496 0 0.52936505953979074 I I #
model_id-kcp-attrib $-1 -1 $-1 $-1 $89 1 1021407198 1021407198 796852225 7 #
plane-surface $-1 -1 $-1 101.59999999999999 2.5399999999999996 63.394461229880747 0.52936505953979074 0 -0.84839414999069496 -21.54921140976365 0 -13.445872512310684 forward_v I I I I #
coedge $-1 -1 $-1 $95 $92 $106 $175 reversed $55 $-1 #
coedge $-1 -1 $-1 $92 $95 $110 $178 reversed $55 $-1 #
coedge $-1 -1 $-1 $106 $97 $93 $159 forward $90 $-1 #
edge $226 -1 $-1 $103 0 $164 8 $158 $227 forward @7 unknown #
coedge $-1 -1 $-1 $99 $110 $94 $161 forward $111 $-1 #
edge $228 -1 $-1 $163 0 $102 9.4295794001971167 $94 $229 forward @7 unknown #
model_id-kcp-attrib $-1 -1 $-1 $-1 $96 1 1021407198 1021407198 796852225 11 #
vertex $-1 -1 $-1 $161 $230 #
vertex $-1 -1 $-1 $159 $231 #
straight-curve $-1 -1 $-1 203.19999999999999 0 126.78892245976149 0 0 25.399999999999999 I I #
attrib_edge_convexity-kcp-attrib $-1 -1 $232 $-1 $98 1 #
straight-curve $-1 -1 $-1 0 0 127 0 25.399999999999999 0 I I #
attrib_edge_convexity-kcp-attrib $-1 -1 $233 $-1 $100 1 #
straight-curve $-1 -1 $-1 0 5.0799999999999992 0 0 -25.399999999999999 0 I I #
attrib_edge_convexity-kcp-attrib $-1 -1 $234 $101 $61 1 #
point $-1 -1 $-1 0 0 0 #
point $-1 -1 $-1 0 0 127 #
attrib_edge_convexity-kcp-attrib $-1 -1 $235 $-1 $105 1 #
straight-curve $-1 -1 $-1 203.19999999999999 5.0799999999999992 126.78892245976149 0 0 25.399999999999999 I I #
edge $236 -1 $-1 $164 0 $108 0.19999999999999998 $106 $237 forward @7 unknown #
convexity-sys-attrib $-1 -1 $-1 $107 $64 #
point $-1 -1 $-1 203.19999999999999 5.0799999999999992 127 #
edge $238 -1 $-1 $113 0 $163 0.19999999999999998 $157 $239 forward @7 unknown #
convexity-sys-attrib $-1 -1 $-1 $112 $66 #
point $-1 -1 $-1 203.19999999999999 5.0799999999999992 126.78892245976149 #
model_id-kcp-attrib $-1 -1 $-1 $-1 $119 1 1021407198 1021407198 796852226 2 #
face $240 -1 $-1 $-1 $134 $15 $-1 $241 reversed single #
loop $-1 -1 $-1 $-1 $198 $119 #
plane-surface $-1 -1 $-1 0 2.5399999999999996 0 0 -1 0 0 0 -1 forward_v I I I I #
coedge $-1 -1 $-1 $242 $196 $199 $243 forward $120 $-1 #
coedge $-1 -1 $-1 $202 $122 $123 $190 reversed $73 $-1 #
coedge $-1 -1 $-1 $196 $242 $122 $188 reversed $120 $-1 #
edge $-1 -1 $-1 $203 -63.5 $244 63.5 $187 $245 forward @7 unknown #
coedge $-1 -1 $-1 $124 $123 $242 $246 forward $46 $-1 #
edge $-1 -1 $-1 $194 -101.59999999999999 $244 101.59999999999999 $186 $247 forward @7 unknown #
coedge $-1 -1 $-1 $199 $198 $124 $192 reversed $183 $-1 #
edge $-1 -1 $-1 $248 -101.59999999999999 $193 101.59999999999999 $191 $249 forward @7 unknown #
vertex $-1 -1 $-1 $126 $250 #
vertex $-1 -1 $-1 $205 $251 #
straight-curve $-1 -1 $-1 101.59999999999999 0 -63.5 0 -1 0 I I #
coedge $-1 -1 $-1 $185 $187 $127 $197 reversed $120 $-1 #
edge $-1 -1 $-1 $200 -2.5399999999999996 $203 2.5399999999999996 $196 $252 forward @7 unknown #
coedge $-1 -1 $-1 $191 $128 $133 $206 forward $183 $-1 #
coedge $-1 -1 $-1 $128 $191 $185 $243 reversed $183 $-1 #
vertex $-1 -1 $-1 $129 $253 #
straight-curve $-1 -1 $-1 0 2.5399999999999996 63.5 -1 0 0 I I #
coedge $-1 -1 $-1 $130 $186 $132 $205 reversed $73 $-1 #
vertex $-1 -1 $-1 $197 $254 #
straight-curve $-1 -1 $-1 0 -2.5399999999999996 63.5 1 0 0 I I #
edge $-1 -1 $-1 $135 -63.5 $194 63.5 $132 $255 forward @7 unknown #
edge $-1 -1 $-1 $136 -63.5 $193 63.5 $133 $256 forward @7 unknown #
point $-1 -1 $-1 101.59999999999999 -2.5399999999999996 63.5 #
point $-1 -1 $-1 101.59999999999999 2.5399999999999996 63.5 #
plane-surface $-1 -1 $-1 0 2.5399999999999996 0 0 -1 0 0 0 -1 forward_v I I I I #
coedge $-1 -1 $-1 $220 $219 $214 $257 forward $139 $-1 #
coedge $-1 -1 $-1 $212 $141 $220 $258 reversed $81 $-1 #
coedge $-1 -1 $-1 $141 $211 $142 $215 reversed $81 $-1 #
edge $-1 -1 $-1 $217 -179.60555330509112 $221 59.905763459915661 $141 $259 forward @7 unknown #
coedge $-1 -1 $-1 $143 $142 $210 $257 reversed $50 $-1 #
edge $-1 -1 $-1 $217 -63.288922459761494 $260 63.5 $142 $261 forward @7 unknown #
edge $-1 -1 $-1 $152 -63.288922459761494 $262 63.5 $143 $263 forward @7 unknown #
vertex $-1 -1 $-1 $215 $264 #
straight-curve $-1 -1 $-1 101.60000000000001 1.2699999999999998 63.288922459761508 0 -1 0 I I #
coedge $-1 -1 $-1 $210 $146 $149 $223 forward $139 $-1 #
coedge $-1 -1 $-1 $146 $210 $211 $258 forward $139 $-1 #
vertex $-1 -1 $-1 $147 $265 #
straight-curve $-1 -1 $-1 -101.59999999999999 0 -63.5 0 1 0 I I #
edge $-1 -1 $-1 $151 -101.59999999999999 $262 101.59999999999999 $149 $266 forward @7 unknown #
point $-1 -1 $-1 -101.59999999999999 2.5399999999999996 -63.5 #
point $-1 -1 $-1 101.59999999999999 2.5399999999999996 63.288922459761494 #
model_id-kcp-attrib $-1 -1 $267 $-1 $159 1 1021407198 1021407198 796852225 10 #
straight-curve $-1 -1 $-1 0 0 127 25.399999999999999 0 0 I I #
attrib_edge_convexity-kcp-attrib $-1 -1 $268 $-1 $161 1 #
straight-curve $-1 -1 $-1 203.19999999999999 0 126.78892245976149 -21.54921140976365 0 -13.445872512310684 I I #
point $-1 -1 $-1 203.19999999999999 0 126.78892245976149 #
point $-1 -1 $-1 203.19999999999999 0 127 #
convexity-sys-attrib $-1 -1 $-1 $166 $98 #
convexity-sys-attrib $-1 -1 $-1 $168 $100 #
convexity-sys-attrib $-1 -1 $-1 $170 $61 #
convexity-sys-attrib $-1 -1 $-1 $173 $105 #
attrib_edge_convexity-kcp-attrib $-1 -1 $269 $-1 $175 1 #
straight-curve $-1 -1 $-1 203.19999999999999 0 127 0 25.399999999999999 0 I I #
attrib_edge_convexity-kcp-attrib $-1 -1 $270 $-1 $178 1 #
straight-curve $-1 -1 $-1 203.19999999999999 5.0799999999999992 126.78892245976149 0 -25.399999999999999 0 I I #
model_id-kcp-attrib $-1 -1 $-1 $-1 $182 1 1021407198 1021407198 796852226 5 #
plane-surface $-1 -1 $-1 101.59999999999999 0 0 -1 0 0 0 0 1 forward_v I I I I #
coedge $-1 -1 $-1 $187 $185 $189 $246 reversed $120 $-1 #
edge $-1 -1 $-1 $200 -63.5 $248 63.5 $199 $271 forward @7 unknown #
vertex $-1 -1 $-1 $246 $272 #
straight-curve $-1 -1 $-1 -101.59999999999999 -2.5399999999999996 0 0 0 -1 I I #
edge $-1 -1 $-1 $244 -2.5399999999999996 $248 2.5399999999999996 $242 $273 forward @7 unknown #
straight-curve $-1 -1 $-1 0 -2.5399999999999996 -63.5 -1 0 0 I I #
vertex $-1 -1 $-1 $192 $274 #
straight-curve $-1 -1 $-1 0 2.5399999999999996 -63.5 1 0 0 I I #
point $-1 -1 $-1 101.59999999999999 2.5399999999999996 -63.5 #
point $-1 -1 $-1 101.59999999999999 -2.5399999999999996 -63.5 #
straight-curve $-1 -1 $-1 -101.59999999999999 0 63.5 0 -1 0 I I #
point $-1 -1 $-1 -101.59999999999999 2.5399999999999996 63.5 #
point $-1 -1 $-1 -101.59999999999999 -2.5399999999999996 63.5 #
straight-curve $-1 -1 $-1 101.59999999999999 -2.5399999999999996 0 0 0 -1 I I #
straight-curve $-1 -1 $-1 101.59999999999999 2.5399999999999996 0 0 0 -1 I I #
edge $-1 -1 $-1 $262 -2.5399999999999996 $260 2.5399999999999996 $214 $275 forward @7 unknown #
edge $-1 -1 $-1 $260 -101.59999999999999 $221 101.59999999999999 $211 $276 forward @7 unknown #
straight-curve $-1 -1 $-1 -50.776300729881221 -2.5399999999999996 -31.787981959265103 -0.84839414999069496 0 -0.52936505953979074 I I #
vertex $-1 -1 $-1 $215 $277 #
straight-curve $-1 -1 $-1 101.59999999999999 -2.5399999999999996 0 0 0 -1 I I #
vertex $-1 -1 $-1 $257 $278 #
straight-curve $-1 -1 $-1 101.59999999999999 2.5399999999999996 0 0 0 -1 I I #
point $-1 -1 $-1 101.59999999999999 -2.5399999999999996 63.288922459761494 #
point $-1 -1 $-1 -101.59999999999999 -2.5399999999999996 -63.5 #
straight-curve $-1 -1 $-1 0 2.5399999999999996 -63.5 1 0 0 I I #
attrib_edge_convexity-kcp-attrib $-1 -1 $279 $226 $159 1 #
convexity-sys-attrib $-1 -1 $-1 $228 $161 #
convexity-sys-attrib $-1 -1 $-1 $236 $175 #
convexity-sys-attrib $-1 -1 $-1 $238 $178 #
straight-curve $-1 -1 $-1 -101.59999999999999 2.5399999999999996 0 0 0 -1 I I #
point $-1 -1 $-1 -101.59999999999999 -2.5399999999999996 -63.5 #
straight-curve $-1 -1 $-1 -101.59999999999999 0 -63.5 0 1 0 I I #
point $-1 -1 $-1 -101.59999999999999 2.5399999999999996 -63.5 #
straight-curve $-1 -1 $-1 101.59999999999999 0 -63.5 0 -1 0 I I #
straight-curve $-1 -1 $-1 0 -2.5399999999999996 -63.5 -1 0 0 I I #
point $-1 -1 $-1 101.59999999999999 -2.5399999999999996 -63.5 #
point $-1 -1 $-1 101.59999999999999 2.5399999999999996 -63.5 #
convexity-sys-attrib $-1 -1 $-1 $267 $159 #
End-of-ACIS-data 