600 0 1 0           
111 GICL Pro/E ACIS Translator - Source: f:/data5/repository/PTC/V20/NC_Training_Rel20/DEMO/part_multi_31.prt - 6 0 13 ACIS 6.0.3 NT 24 Thu Apr 04 13:13:16 2002 
1 9.9999999999999995e-007 1e-010 
body $-1 $1 $-1 $2 #
lump $-1 $-1 $3 $0 #
transform $-1 1 0 0 0 1 0 0 0 1 0 0 0 25.399999999999999 no_rotate no_reflect no_shear #
shell $-1 $-1 $-1 $4 $-1 $1 #
face $-1 $5 $6 $3 $-1 $7 reversed single #
face $-1 $8 $9 $3 $-1 $10 forward single #
loop $-1 $-1 $11 $4 #
plane-surface $-1 0 0.19999999999999998 0 0 -1 0 1 0 0 forward_v I I I I #
face $-1 $12 $13 $3 $-1 $14 forward single #
loop $-1 $-1 $15 $5 #
plane-surface $-1 2.375 0.099999999999999992 2.5 0 0 1 1 0 0 forward_v I I I I #
coedge $-1 $16 $17 $18 $19 forward $6 $-1 #
face $-1 $20 $21 $3 $-1 $22 forward single #
loop $-1 $-1 $23 $8 #
plane-surface $-1 0.5 0.099999999999999992 1.5 -1 0 0 0 0 1 forward_v I I I I #
coedge $-1 $24 $18 $25 $26 forward $9 $-1 #
coedge $-1 $27 $11 $28 $29 forward $6 $-1 #
coedge $-1 $11 $30 $31 $32 forward $6 $-1 #
coedge $-1 $15 $33 $11 $19 reversed $9 $-1 #
edge $-1 $34 0 $35 3.75 $11 $36 forward 7 unknown #
face $-1 $37 $38 $3 $-1 $39 forward single #
loop $-1 $-1 $40 $12 #
plane-surface $-1 5 0.099999999999999992 0.5 0 0 -1 -1 0 0 forward_v I I I I #
coedge $-1 $41 $31 $42 $43 forward $13 $-1 #
coedge $-1 $33 $15 $44 $45 forward $9 $-1 #
coedge $-1 $31 $41 $15 $26 reversed $13 $-1 #
edge $-1 $34 0 $46 0.19999999999999998 $25 $47 forward 7 unknown #
coedge $-1 $48 $16 $49 $50 forward $6 $-1 #
coedge $-1 $51 $52 $16 $29 reversed $53 $-1 #
edge $-1 $35 0 $54 4 $16 $55 forward 7 unknown #
coedge $-1 $17 $56 $57 $58 forward $6 $-1 #
coedge $-1 $23 $25 $17 $32 reversed $13 $-1 #
edge $-1 $59 0 $34 2.0000000000000009 $17 $60 forward 7 unknown #
coedge $-1 $18 $24 $51 $61 reversed $9 $-1 #
vertex $-1 $32 $62 #
vertex $-1 $29 $63 #
straight-curve $-1 0.5 0.19999999999999998 2.5 1 0 0 I I #
face $-1 $64 $65 $3 $-1 $66 forward single #
loop $-1 $-1 $67 $20 #
plane-surface $-1 9.5 0.099999999999999992 1.5 1 0 0 0 0 -1 forward_v I I I I #
coedge $-1 $68 $57 $69 $70 forward $21 $-1 #
coedge $-1 $25 $23 $71 $72 forward $13 $-1 #
coedge $-1 $57 $68 $23 $43 reversed $21 $-1 #
edge $-1 $59 0 $73 0.19999999999999998 $23 $74 forward 7 unknown #
coedge $-1 $71 $75 $24 $45 reversed $76 $-1 #
edge $-1 $46 0 $77 3.75 $44 $78 forward 7 unknown #
vertex $-1 $72 $79 #
straight-curve $-1 0.5 0.19999999999999998 2.5 0 -1 0 I I #
coedge $-1 $80 $27 $81 $82 forward $6 $-1 #
coedge $-1 $83 $84 $27 $50 reversed $85 $-1 #
edge $-1 $54 0 $86 1.5 $27 $87 forward 7 unknown #
coedge $-1 $88 $28 $33 $61 forward $53 $-1 #
coedge $-1 $28 $88 $83 $89 reversed $53 $-1 #
loop $-1 $-1 $51 $90 #
vertex $-1 $50 $91 #
straight-curve $-1 4.25 0.19999999999999998 2.5 0 0 1 I I #
coedge $-1 $30 $80 $92 $93 forward $6 $-1 #
coedge $-1 $40 $42 $30 $58 reversed $21 $-1 #
edge $-1 $94 0 $59 9 $30 $95 forward 7 unknown #
vertex $-1 $32 $96 #
straight-curve $-1 0.5 0.19999999999999998 0.49999999999999889 0 0 1 I I #
edge $-1 $35 0 $77 0.19999999999999998 $51 $97 forward 7 unknown #
point $-1 0.5 0.19999999999999998 2.5 #
point $-1 4.25 0.19999999999999998 2.5 #
face $-1 $98 $99 $3 $-1 $100 forward single #
loop $-1 $-1 $101 $37 #
plane-surface $-1 7.625 0.099999999999999992 2.5 0 0 1 1 0 0 forward_v I I I I #
coedge $-1 $102 $92 $103 $104 forward $38 $-1 #
coedge $-1 $42 $40 $105 $106 forward $21 $-1 #
coedge $-1 $92 $102 $40 $70 reversed $38 $-1 #
edge $-1 $94 0 $107 0.19999999999999998 $40 $108 forward 7 unknown #
coedge $-1 $105 $44 $41 $72 reversed $76 $-1 #
edge $-1 $73 0 $46 2.0000000000000009 $71 $109 forward 7 unknown #
vertex $-1 $72 $110 #
straight-curve $-1 0.5 0.19999999999999998 0.5 0 -1 0 I I #
coedge $-1 $44 $111 $88 $112 reversed $76 $-1 #
loop $-1 $-1 $105 $113 #
vertex $-1 $45 $114 #
straight-curve $-1 0.5 0 2.5 1 0 0 I I #
point $-1 0.5 0 2.5 #
coedge $-1 $56 $48 $115 $116 forward $6 $-1 #
coedge $-1 $117 $118 $48 $82 reversed $99 $-1 #
edge $-1 $86 0 $119 4 $48 $120 forward 7 unknown #
coedge $-1 $121 $49 $52 $89 forward $85 $-1 #
coedge $-1 $49 $121 $117 $122 reversed $85 $-1 #
loop $-1 $-1 $83 $98 #
vertex $-1 $82 $123 #
straight-curve $-1 4.25 0.19999999999999998 6.5 1 0 0 I I #
coedge $-1 $52 $51 $75 $112 forward $53 $-1 #
edge $-1 $54 0 $124 0.19999999999999998 $83 $125 forward 7 unknown #
face $-1 $113 $53 $3 $-1 $126 forward single #
point $-1 4.25 0.19999999999999998 6.5 #
coedge $-1 $67 $69 $56 $93 reversed $38 $-1 #
edge $-1 $127 0 $94 2 $56 $128 forward 7 unknown #
vertex $-1 $58 $129 #
straight-curve $-1 9.5 0.19999999999999998 0.5 -1 0 0 I I #
point $-1 0.5 0.19999999999999998 0.49999999999999889 #
straight-curve $-1 4.25 0.19999999999999998 2.5 0 -1 0 I I #
face $-1 $90 $85 $3 $-1 $130 forward single #
loop $-1 $-1 $117 $64 #
plane-surface $-1 5.75 0.099999999999999992 4.5 1 0 0 0 0 -1 forward_v I I I I #
coedge $-1 $131 $115 $118 $132 forward $65 $-1 #
coedge $-1 $69 $67 $133 $134 forward $38 $-1 #
coedge $-1 $115 $131 $67 $104 reversed $65 $-1 #
edge $-1 $127 0 $135 0.19999999999999998 $67 $136 forward 7 unknown #
coedge $-1 $133 $71 $68 $106 reversed $76 $-1 #
edge $-1 $107 0 $73 9 $105 $137 forward 7 unknown #
vertex $-1 $134 $138 #
straight-curve $-1 9.5 0.19999999999999998 0.5 0 -1 0 I I #
straight-curve $-1 0.5 0 0.49999999999999889 0 0 1 I I #
point $-1 0.5 0 0.49999999999999889 #
coedge $-1 $75 $139 $121 $140 reversed $76 $-1 #
edge $-1 $77 0 $124 4 $75 $141 forward 7 unknown #
face $-1 $-1 $76 $3 $-1 $142 forward single #
point $-1 4.25 0 2.5 #
coedge $-1 $101 $103 $80 $116 reversed $65 $-1 #
edge $-1 $119 0 $127 3.75 $80 $143 forward 7 unknown #
coedge $-1 $144 $81 $84 $122 forward $99 $-1 #
coedge $-1 $81 $144 $101 $132 reversed $99 $-1 #
vertex $-1 $116 $145 #
straight-curve $-1 5.75 0.19999999999999998 6.5 0 0 -1 I I #
coedge $-1 $84 $83 $111 $140 forward $85 $-1 #
edge $-1 $86 0 $146 0.19999999999999998 $117 $147 forward 7 unknown #
point $-1 5.75 0.19999999999999998 6.5 #
vertex $-1 $112 $148 #
straight-curve $-1 4.25 0.19999999999999998 6.5 0 -1 0 I I #
plane-surface $-1 4.25 0.099999999999999992 4.5 -1 0 0 0 0 1 forward_v I I I I #
vertex $-1 $93 $149 #
straight-curve $-1 9.5 0.19999999999999998 2.5 0 0 -1 I I #
point $-1 9.5 0.19999999999999998 0.5 #
plane-surface $-1 5 0.099999999999999992 6.5 0 0 1 1 0 0 forward_v I I I I #
coedge $-1 $103 $101 $150 $151 forward $65 $-1 #
edge $-1 $119 0 $152 0.19999999999999998 $101 $153 forward 7 unknown #
coedge $-1 $150 $105 $102 $134 reversed $76 $-1 #
edge $-1 $135 0 $107 2 $133 $154 forward 7 unknown #
vertex $-1 $151 $155 #
straight-curve $-1 9.5 0.19999999999999998 2.5 0 -1 0 I I #
straight-curve $-1 9.5 0 0.5 -1 0 0 I I #
point $-1 9.5 0 0.5 #
coedge $-1 $111 $150 $144 $156 reversed $76 $-1 #
edge $-1 $124 0 $146 1.5 $111 $157 forward 7 unknown #
straight-curve $-1 4.25 0 2.5 0 0 1 I I #
plane-surface $-1 0 0 0 0 -1 0 1 0 0 forward_v I I I I #
straight-curve $-1 5.75 0.19999999999999998 2.5 1 0 0 I I #
coedge $-1 $118 $117 $139 $156 forward $99 $-1 #
point $-1 5.75 0.19999999999999998 2.5 #
vertex $-1 $140 $158 #
straight-curve $-1 5.75 0.19999999999999998 6.5 0 -1 0 I I #
point $-1 4.25 0 6.5 #
point $-1 9.5 0.19999999999999998 2.5 #
coedge $-1 $139 $133 $131 $151 reversed $76 $-1 #
edge $-1 $152 0 $135 3.75 $150 $159 forward 7 unknown #
vertex $-1 $156 $160 #
straight-curve $-1 5.75 0.19999999999999998 2.5 0 -1 0 I I #
straight-curve $-1 9.5 0 2.5 0 0 -1 I I #
point $-1 9.5 0 2.5 #
edge $-1 $146 0 $152 4 $139 $161 forward 7 unknown #
straight-curve $-1 4.25 0 6.5 1 0 0 I I #
point $-1 5.75 0 6.5 #
straight-curve $-1 5.75 0 2.5 1 0 0 I I #
point $-1 5.75 0 2.5 #
straight-curve $-1 5.75 0 6.5 0 0 -1 I I #
End-of-ACIS-data 