600 0 1 0           
108 GICL ACIS Healer - Source: /gicl/data5/repository/PTC/V20/NC_Training_Rel20/DEMO/part_multi_21.prt.sat - 6 0 18 ACIS 6.0.3 Solaris 24 Sat Apr 13 20:49:56 2002 
1 9.999999999999999547e-07 1.000000000000000036e-10 
body $-1 $1 $-1 $-1 #
lump $-1 $-1 $2 $0 #
shell $-1 $-1 $-1 $3 $-1 $1 #
face $-1 $4 $5 $2 $-1 $6 reversed single #
face $-1 $7 $8 $2 $-1 $9 forward single #
loop $-1 $10 $11 $3 #
plane-surface $-1 0 5.079999999999999183 0 0 -1 0 25.39999999999999858 0 0 forward_v I I I I #
face $-1 $12 $13 $2 $-1 $14 forward single #
loop $-1 $-1 $15 $4 #
plane-surface $-1 44.44999999999999574 2.539999999999999591 139.6999999999999886 0 0 1 25.39999999999999858 0 0 forward_v I I I I #
loop $-1 $-1 $16 $3 #
coedge $-1 $17 $18 $19 $20 forward $5 $-1 #
face $-1 $21 $22 $2 $-1 $23 forward single #
loop $-1 $-1 $24 $7 #
plane-surface $-1 12.69999999999999929 2.539999999999999591 76.19999999999998863 -1 0 0 0 0 25.39999999999999858 forward_v I I I I #
coedge $-1 $25 $19 $26 $27 forward $8 $-1 #
coedge $-1 $28 $29 $30 $31 forward $10 $-1 #
coedge $-1 $32 $11 $33 $34 forward $5 $-1 #
coedge $-1 $11 $35 $36 $37 forward $5 $-1 #
coedge $-1 $15 $38 $11 $20 reversed $8 $-1 #
edge $-1 $39 0 $40 2.500000000000000888 $11 $41 forward 7 unknown #
face $-1 $42 $43 $2 $-1 $44 forward single #
loop $-1 $-1 $45 $12 #
plane-surface $-1 88.89999999999999147 2.539999999999999591 12.69999999999999929 0 0 -1 -25.39999999999999858 0 0 forward_v I I I I #
coedge $-1 $46 $36 $47 $48 forward $13 $-1 #
coedge $-1 $38 $15 $49 $50 forward $8 $-1 #
coedge $-1 $36 $46 $15 $27 reversed $13 $-1 #
edge $-1 $39 0 $51 0.1999999999999999833 $26 $52 forward 7 unknown #
coedge $-1 $53 $16 $54 $55 forward $10 $-1 #
coedge $-1 $16 $53 $56 $57 forward $10 $-1 #
coedge $-1 $58 $59 $16 $31 reversed $60 $-1 #
edge $-1 $61 0 $62 5.301941884331741406 $16 $63 forward 7 unknown #
coedge $-1 $35 $17 $64 $65 forward $5 $-1 #
coedge $-1 $66 $67 $17 $34 reversed $68 $-1 #
edge $-1 $40 3.956138478573292698e-16 $69 4.949747468305832676 $17 $70 forward 7 unknown #
coedge $-1 $18 $32 $71 $72 forward $5 $-1 #
coedge $-1 $24 $26 $18 $37 reversed $13 $-1 #
edge $-1 $73 0 $39 5 $18 $74 forward 7 unknown #
coedge $-1 $19 $25 $66 $75 reversed $8 $-1 #
vertex $-1 $37 $76 #
vertex $-1 $34 $77 #
straight-curve $-1 12.6999999999999762 5.079999999999999183 139.6999999999999886 25.39999999999999858 0 0 I I #
face $-1 $78 $68 $2 $-1 $79 forward single #
loop $-1 $-1 $80 $21 #
plane-surface $-1 165.0999999999999943 2.539999999999999591 31.75 1 0 0 0 0 -25.39999999999999858 forward_v I I I I #
coedge $-1 $81 $71 $82 $83 forward $22 $-1 #
coedge $-1 $26 $24 $84 $85 forward $13 $-1 #
coedge $-1 $71 $81 $24 $48 reversed $22 $-1 #
edge $-1 $73 0 $86 0.1999999999999999833 $24 $87 forward 7 unknown #
coedge $-1 $84 $88 $25 $50 reversed $89 $-1 #
edge $-1 $51 0 $90 2.500000000000000888 $25 $91 forward 7 unknown #
vertex $-1 $27 $92 #
straight-curve $-1 12.69999999999999929 5.079999999999999183 139.6999999999999886 0 -25.39999999999999858 0 I I #
coedge $-1 $29 $28 $93 $94 forward $10 $-1 #
coedge $-1 $95 $96 $28 $55 reversed $97 $-1 #
edge $-1 $62 0 $98 1.690391459074732872 $28 $99 forward 7 unknown #
coedge $-1 $100 $101 $29 $57 reversed $102 $-1 #
edge $-1 $103 0 $61 4.984050399975672008 $29 $104 forward 7 unknown #
coedge $-1 $105 $30 $101 $106 forward $60 $-1 #
coedge $-1 $30 $105 $95 $107 reversed $60 $-1 #
loop $-1 $-1 $58 $108 #
vertex $-1 $57 $109 #
vertex $-1 $55 $110 #
straight-curve $-1 152.3338481309122869 5.079999999999999183 23.23978536476868584 -15.7789238214987062 0 19.90441064275304583 I I #
coedge $-1 $80 $82 $32 $65 reversed $43 $-1 #
edge $-1 $69 0 $111 1.499999999999999778 $32 $112 forward 7 unknown #
coedge $-1 $113 $33 $38 $75 forward $68 $-1 #
coedge $-1 $33 $113 $80 $114 reversed $68 $-1 #
loop $-1 $-1 $66 $42 #
vertex $-1 $65 $115 #
straight-curve $-1 76.19999999999997442 5.079999999999999183 139.6999999999999886 17.96051224213831077 0 -17.96051224213830011 I I #
coedge $-1 $45 $47 $35 $72 reversed $22 $-1 #
edge $-1 $111 0 $73 6.000000000000000888 $35 $116 forward 7 unknown #
vertex $-1 $37 $117 #
straight-curve $-1 12.69999999999999929 5.079999999999999183 12.69999999999999929 0 0 25.39999999999999858 I I #
edge $-1 $40 0 $90 0.1999999999999999833 $66 $118 forward 7 unknown #
point $-1 12.6999999999999762 5.079999999999999183 139.6999999999999886 #
point $-1 76.19999999999998863 5.079999999999999183 139.6999999999999886 #
face $-1 $119 $89 $2 $-1 $120 forward single #
plane-surface $-1 120.6499999999999915 2.539999999999999591 95.25 0.7071067811865473507 0 0.7071067811865477948 17.96051224213831432 0 -17.96051224213830011 forward_v I I I I #
coedge $-1 $121 $64 $67 $114 forward $43 $-1 #
coedge $-1 $47 $45 $122 $123 forward $22 $-1 #
coedge $-1 $64 $121 $45 $83 reversed $43 $-1 #
edge $-1 $111 0 $124 0.1999999999999999833 $45 $125 forward 7 unknown #
coedge $-1 $122 $49 $46 $85 reversed $89 $-1 #
edge $-1 $86 0 $51 5 $46 $126 forward 7 unknown #
vertex $-1 $85 $127 #
straight-curve $-1 12.69999999999999929 5.079999999999999183 12.69999999999999929 0 -25.39999999999999858 0 I I #
coedge $-1 $49 $128 $113 $129 reversed $89 $-1 #
loop $-1 $130 $122 $78 #
vertex $-1 $129 $131 #
straight-curve $-1 12.6999999999999762 0 139.6999999999999886 25.39999999999999858 0 0 I I #
point $-1 12.6999999999999762 0 139.6999999999999886 #
coedge $-1 $132 $133 $53 $94 reversed $134 $-1 #
edge $-1 $98 0 $103 4.154804270462632232 $53 $135 forward 7 unknown #
coedge $-1 $136 $54 $59 $107 forward $97 $-1 #
coedge $-1 $54 $136 $132 $137 reversed $97 $-1 #
loop $-1 $-1 $95 $138 #
vertex $-1 $94 $139 #
straight-curve $-1 68.67491103202843306 5.079999999999999183 128.7718138345195484 -25.39999999999999858 0 0 I I #
coedge $-1 $140 $56 $133 $141 forward $102 $-1 #
coedge $-1 $56 $140 $58 $106 reversed $102 $-1 #
loop $-1 $-1 $100 $142 #
vertex $-1 $57 $143 #
straight-curve $-1 25.7389679715302222 5.079999999999999183 23.23978536476868584 25.39999999999999858 0 0 I I #
coedge $-1 $59 $58 $144 $145 forward $60 $-1 #
edge $-1 $61 0 $146 0.1999999999999999833 $101 $147 forward 7 unknown #
edge $-1 $62 0 $148 0.1999999999999999833 $95 $149 forward 7 unknown #
face $-1 $142 $60 $2 $-1 $150 forward single #
point $-1 152.3338481309122869 5.079999999999999183 23.23978536476868584 #
point $-1 68.67491103202843306 5.079999999999999183 128.7718138345195484 #
vertex $-1 $72 $151 #
straight-curve $-1 165.0999999999999943 5.079999999999999183 50.79999999999999716 0 0 -25.39999999999999858 I I #
coedge $-1 $67 $66 $88 $129 forward $68 $-1 #
edge $-1 $69 0 $152 0.1999999999999999833 $80 $153 forward 7 unknown #
point $-1 165.0999999999999943 5.079999999999999183 50.79999999999999716 #
straight-curve $-1 165.0999999999999943 5.079999999999999183 12.69999999999999929 -25.39999999999999858 0 0 I I #
point $-1 12.69999999999999929 5.079999999999999183 12.69999999999999929 #
straight-curve $-1 76.19999999999997442 5.079999999999999183 139.6999999999999886 0 -25.39999999999999858 0 I I #
face $-1 $138 $134 $2 $-1 $154 forward single #
plane-surface $-1 0 0 0 0 -1 0 25.39999999999999858 0 0 forward_v I I I I #
coedge $-1 $82 $80 $128 $155 forward $43 $-1 #
coedge $-1 $128 $84 $81 $123 reversed $89 $-1 #
edge $-1 $124 0 $86 6.000000000000000888 $81 $156 forward 7 unknown #
vertex $-1 $123 $157 #
straight-curve $-1 165.0999999999999943 5.079999999999999183 12.69999999999999929 0 -25.39999999999999858 0 I I #
straight-curve $-1 12.69999999999999929 0 12.69999999999999929 0 0 25.39999999999999858 I I #
point $-1 12.69999999999999929 0 12.69999999999999929 #
coedge $-1 $88 $122 $121 $155 reversed $89 $-1 #
edge $-1 $90 3.956138478573292698e-16 $152 4.949747468305833564 $113 $158 forward 7 unknown #
loop $-1 $-1 $159 $78 #
point $-1 76.19999999999998863 0 139.6999999999999886 #
coedge $-1 $160 $93 $96 $137 forward $134 $-1 #
coedge $-1 $93 $160 $100 $141 reversed $134 $-1 #
loop $-1 $-1 $132 $119 #
straight-curve $-1 25.7389679715302222 5.079999999999999183 128.7718138345195484 0 0 -25.39999999999999858 I I #
coedge $-1 $96 $95 $161 $162 forward $97 $-1 #
edge $-1 $98 0 $163 0.1999999999999999833 $132 $164 forward 7 unknown #
face $-1 $108 $97 $2 $-1 $165 forward single #
point $-1 25.7389679715302222 5.079999999999999183 128.7718138345195484 #
coedge $-1 $101 $100 $166 $167 forward $102 $-1 #
edge $-1 $103 0 $168 0.1999999999999999833 $100 $169 forward 7 unknown #
face $-1 $-1 $102 $2 $-1 $170 forward single #
point $-1 25.7389679715302222 5.079999999999999183 23.23978536476868584 #
coedge $-1 $166 $161 $105 $145 reversed $130 $-1 #
edge $-1 $146 0 $148 5.301941884331742294 $144 $171 forward 7 unknown #
vertex $-1 $167 $172 #
straight-curve $-1 152.3338481309122869 5.079999999999999183 23.23978536476868584 0 -25.39999999999999858 0 I I #
vertex $-1 $145 $173 #
straight-curve $-1 68.67491103202841884 5.079999999999999183 128.7718138345195484 0 -25.39999999999999858 0 I I #
plane-surface $-1 110.50437958147036 2.539999999999999591 76.00579959964412069 -0.7836382142816159524 0 -0.6212174732873505523 -15.77892382149870265 0 19.90441064275304583 forward_v I I I I #
point $-1 165.0999999999999943 5.079999999999999183 12.69999999999999929 #
vertex $-1 $155 $174 #
straight-curve $-1 165.0999999999999943 5.079999999999999183 50.79999999999999716 0 -25.39999999999999858 0 I I #
plane-surface $-1 25.7389679715302222 2.539999999999999591 76.00579959964412069 1 0 0 0 0 -25.39999999999999858 forward_v I I I I #
edge $-1 $152 0 $124 1.499999999999999778 $121 $175 forward 7 unknown #
straight-curve $-1 165.0999999999999943 0 12.69999999999999929 -25.39999999999999858 0 0 I I #
point $-1 165.0999999999999943 0 12.69999999999999929 #
straight-curve $-1 76.19999999999997442 0 139.6999999999999886 17.96051224213831077 0 -17.96051224213830011 I I #
coedge $-1 $161 $166 $160 $176 reversed $130 $-1 #
coedge $-1 $133 $132 $159 $176 forward $134 $-1 #
coedge $-1 $144 $159 $136 $162 reversed $130 $-1 #
edge $-1 $148 5.594824691024410835e-16 $163 1.690391459074732872 $161 $177 forward 7 unknown #
vertex $-1 $162 $178 #
straight-curve $-1 25.7389679715302222 5.079999999999999183 128.7718138345195484 0 -25.39999999999999858 0 I I #
plane-surface $-1 47.20693950177932408 2.539999999999999591 128.7718138345195484 0 0 -1 -25.39999999999999858 0 0 forward_v I I I I #
coedge $-1 $159 $144 $140 $167 reversed $130 $-1 #
edge $-1 $168 0 $146 4.984050399975672008 $166 $179 forward 7 unknown #
vertex $-1 $167 $180 #
straight-curve $-1 25.7389679715302222 5.079999999999999183 23.23978536476868584 0 -25.39999999999999858 0 I I #
plane-surface $-1 89.03640805122125812 2.539999999999999591 23.23978536476868584 0 0 1 25.39999999999999858 0 0 forward_v I I I I #
straight-curve $-1 152.3338481309122869 0 23.23978536476868584 -15.7789238214987062 0 19.90441064275304583 I I #
point $-1 152.3338481309122869 0 23.23978536476868584 #
point $-1 68.67491103202841884 0 128.7718138345195484 #
point $-1 165.1000000000000227 0 50.79999999999999716 #
straight-curve $-1 165.0999999999999943 0 50.79999999999999716 0 0 -25.39999999999999858 I I #
edge $-1 $163 0 $168 4.154804270462632232 $159 $181 forward 7 unknown #
straight-curve $-1 68.67491103202843306 0 128.7718138345195484 -25.39999999999999858 0 0 I I #
point $-1 25.7389679715302222 0 128.7718138345195484 #
straight-curve $-1 25.7389679715302222 0 23.23978536476868584 25.39999999999999858 0 0 I I #
point $-1 25.7389679715302222 0 23.23978536476868584 #
straight-curve $-1 25.7389679715302222 0 128.7718138345195484 0 0 -25.39999999999999858 I I #
End-of-ACIS-data 