600 0 2 0           
24 FBMach with ACIS - 6.0.3 13 ACIS 6.0.3 NT 24 Wed May 23 20:18:48 2001 
1 9.9999999999999995e-007 1e-010 
body $2 $3 $-1 $4 #
bdycol-kcp $-1 1 3 $5 $6 $7 #
model_id-kcp-attrib $-1 $-1 $-1 $0 1 990663528 50 -2043543551 1 #
lump $-1 $-1 $8 $0 #
transform $-1 1 0 0 0 1 0 0 0 1 0 0 0 1 no_rotate no_reflect no_shear #
body $9 $10 $-1 $11 #
body $12 $13 $-1 $14 #
body $15 $16 $-1 $17 #
shell $-1 $-1 $-1 $18 $-1 $3 #
model_id-kcp-attrib $-1 $-1 $-1 $5 1 990663528 50 -2043543550 1 #
lump $-1 $-1 $19 $5 #
transform $-1 1 0 0 0 1 0 0 0 1 0 0 0 1 no_rotate no_reflect no_shear #
rgb_color-st-attrib $-1 $20 $-1 $6 0.5 1 1 #
lump $-1 $-1 $21 $6 #
transform $-1 1 0 0 0 1 0 0 0 1 0 0 0 1 no_rotate no_reflect no_shear #
rgb_color-st-attrib $-1 $22 $-1 $7 1 0 0 #
lump $-1 $-1 $23 $7 #
transform $-1 1 0 0 0 1 0 0 0 1 0 0 0 1 no_rotate no_reflect no_shear #
face $24 $25 $26 $8 $-1 $27 forward single #
shell $-1 $-1 $-1 $28 $-1 $10 #
model_id-kcp-attrib $-1 $-1 $12 $6 1 990663528 90 -2040922109 1 #
shell $-1 $-1 $-1 $29 $-1 $13 #
model_id-kcp-attrib $-1 $-1 $15 $7 1 990663528 250 -2030436348 1 #
shell $-1 $-1 $-1 $30 $-1 $16 #
model_id-kcp-attrib $-1 $-1 $-1 $18 1 990663528 50 -2043543551 2 #
face $31 $32 $33 $8 $-1 $34 forward single #
loop $-1 $-1 $35 $18 #
plane-surface $-1 20 20 10 0 -1 0 0 0 -1 forward_v I I I I #
face $36 $37 $38 $19 $-1 $39 forward single #
face $-1 $40 $41 $21 $-1 $42 reversed single #
face $-1 $43 $44 $23 $-1 $45 forward single #
model_id-kcp-attrib $-1 $-1 $-1 $25 1 990663528 50 -2043543551 3 #
face $46 $47 $48 $8 $-1 $49 forward single #
loop $-1 $-1 $50 $25 #
plane-surface $-1 20 0 0 0 0 1 1 0 0 forward_v I I I I #
coedge $-1 $51 $52 $53 $54 reversed $26 $-1 #
model_id-kcp-attrib $-1 $-1 $-1 $28 1 990663528 50 -2043543550 2 #
face $55 $56 $57 $19 $-1 $58 reversed single #
loop $-1 $-1 $59 $28 #
plane-surface $-1 0 0 20 0 0 1 1 0 0 forward_v I I I I #
face $-1 $60 $61 $21 $-1 $42 reversed single #
loop $-1 $-1 $62 $29 #
cone-surface $-1 -3.5527136788005009e-015 -3.944304526105059e-031 20 0 0 1 40 3.944304526105059e-031 0 1 I I 0 1 40 forward I I I I #
face $-1 $63 $64 $23 $-1 $65 forward single #
loop $-1 $-1 $66 $30 #
cone-surface $-1 -3.5527136788005009e-015 -3.944304526105059e-031 0 0 0 1 40 3.944304526105059e-031 0 1 I I 0 1 40 forward I I I I #
model_id-kcp-attrib $-1 $-1 $-1 $32 1 990663528 50 -2043543551 4 #
face $67 $68 $69 $8 $-1 $70 forward single #
loop $-1 $-1 $71 $32 #
plane-surface $-1 20 -20 10 0 1 0 0 0 1 forward_v I I I I #
coedge $-1 $72 $73 $74 $75 reversed $33 $-1 #
coedge $-1 $76 $35 $77 $78 reversed $26 $-1 #
coedge $-1 $35 $76 $72 $79 forward $26 $-1 #
coedge $-1 $74 $80 $35 $54 forward $81 $-1 #
edge $-1 $82 -20 $83 0 $53 $84 forward 7 unknown #
model_id-kcp-attrib $-1 $-1 $-1 $37 1 990663528 50 -2043543550 3 #
face $-1 $85 $86 $19 $-1 $87 reversed single #
loop $-1 $-1 $88 $37 #
plane-surface $-1 0 0 -20 0 0 1 1 0 0 forward_v I I I I #
coedge $-1 $89 $90 $91 $92 forward $38 $-1 #
face $-1 $93 $94 $21 $-1 $42 reversed single #
loop $-1 $-1 $95 $40 #
coedge $-1 $96 $97 $98 $99 reversed $41 $-1 #
face $-1 $100 $101 $23 $-1 $102 forward single #
loop $-1 $-1 $103 $43 #
plane-surface $-1 34.641016151377549 -20 0 0 -1 0 0 0 -1 forward_v I I I I #
coedge $-1 $104 $105 $106 $107 forward $44 $-1 #
model_id-kcp-attrib $-1 $-1 $-1 $47 1 990663528 50 -2043543551 5 #
face $108 $109 $110 $8 $-1 $111 forward single #
loop $-1 $-1 $112 $47 #
plane-surface $-1 0 0 10 1 0 0 0 0 -1 forward_v I I I I #
coedge $-1 $113 $114 $115 $116 reversed $48 $-1 #
coedge $-1 $117 $50 $52 $79 reversed $33 $-1 #
coedge $-1 $50 $117 $113 $118 reversed $33 $-1 #
coedge $-1 $115 $53 $50 $75 forward $81 $-1 #
edge $-1 $83 -0.52359877559829882 $119 0.52359877559829882 $74 $120 forward 7 unknown #
coedge $-1 $52 $51 $112 $121 forward $26 $-1 #
coedge $-1 $122 $123 $51 $78 forward $110 $-1 #
edge $124 $125 -10 $82 24.641016151377549 $77 $126 forward 7 unknown #
edge $-1 $127 -20 $83 14.641016151377549 $52 $128 forward 7 unknown #
coedge $-1 $53 $115 $122 $129 reversed $81 $-1 #
loop $-1 $130 $115 $109 #
vertex $-1 $54 $131 #
vertex $-1 $75 $132 #
straight-curve $-1 34.641016151377549 20 0 0 0 -1 I I #
face $-1 $133 $134 $19 $-1 $135 reversed single #
loop $-1 $-1 $136 $56 #
plane-surface $-1 0 -40 0 0 1 0 0 0 1 forward_v I I I I #
coedge $-1 $137 $138 $139 $140 forward $57 $-1 #
coedge $-1 $141 $59 $142 $143 forward $38 $-1 #
coedge $-1 $59 $141 $144 $145 forward $38 $-1 #
coedge $-1 $146 $147 $59 $92 reversed $148 $-1 #
edge $-1 $149 -40 $150 40 $91 $151 forward 7 unknown #
face $-1 $152 $153 $21 $-1 $42 reversed single #
loop $-1 $-1 $154 $60 #
coedge $-1 $155 $156 $157 $158 reversed $61 $-1 #
coedge $-1 $159 $62 $160 $161 reversed $41 $-1 #
coedge $-1 $62 $159 $162 $163 reversed $41 $-1 #
coedge $-1 $164 $165 $166 $99 forward $167 $-1 #
edge $-1 $168 -40 $169 0 $98 $170 forward 7 unknown #
face $-1 $171 $172 $23 $-1 $173 forward single #
loop $-1 $-1 $174 $63 #
plane-surface $-1 0 -20 0 -1 0 0 0 0 1 forward_v I I I I #
coedge $-1 $175 $176 $177 $178 forward $64 $-1 #
coedge $-1 $179 $66 $176 $180 reversed $44 $-1 #
coedge $-1 $66 $179 $181 $182 forward $44 $-1 #
coedge $-1 $183 $177 $66 $107 reversed $184 $-1 #
edge $-1 $185 -0.5235987755982987 $186 0.5235987755982987 $66 $187 forward 7 unknown #
model_id-kcp-attrib $-1 $188 $-1 $68 1 990663528 50 -2043543551 9 #
face $189 $190 $81 $8 $-1 $191 forward single #
loop $-1 $-1 $192 $68 #
plane-surface $-1 0 0 20 0 0 1 1 0 0 forward_v I I I I #
coedge $-1 $193 $194 $76 $121 reversed $69 $-1 #
coedge $-1 $195 $71 $73 $118 forward $48 $-1 #
coedge $-1 $71 $195 $192 $196 reversed $48 $-1 #
coedge $-1 $80 $74 $71 $116 forward $81 $-1 #
edge $-1 $119 0 $197 20 $115 $198 forward 7 unknown #
coedge $-1 $73 $72 $194 $199 reversed $33 $-1 #
edge $-1 $119 -14.641016151377549 $200 20 $113 $201 forward 7 unknown #
vertex $-1 $75 $202 #
ellipse-curve $-1 0 0 0 0 0 -1 40 0 0 1 I I #
edge $-1 $125 -10 $127 10 $76 $203 forward 7 unknown #
coedge $-1 $192 $77 $80 $129 forward $110 $-1 #
coedge $-1 $77 $192 $193 $204 forward $110 $-1 #
attrib_edge_convexity-kcp-attrib $-1 $205 $-1 $78 1 #
vertex $-1 $204 $206 #
straight-curve $-1 10 20 20 1 0 0 I I #
vertex $-1 $79 $207 #
straight-curve $-1 20 20 0 1 0 0 I I #
edge $208 $82 0.52359877559829882 $197 5.7595865315812871 $122 $209 forward 7 unknown #
loop $-1 $-1 $210 $109 #
point $-1 34.641016151377549 20 20 #
point $-1 34.641016151377549 20 0 #
face $-1 $211 $212 $19 $-1 $213 reversed single #
loop $-1 $-1 $214 $85 #
plane-surface $-1 -40 0 0 1 0 0 0 0 -1 forward_v I I I I #
coedge $-1 $215 $144 $216 $217 forward $86 $-1 #
coedge $-1 $218 $88 $215 $219 forward $57 $-1 #
coedge $-1 $88 $218 $220 $221 forward $57 $-1 #
coedge $-1 $147 $146 $88 $140 reversed $148 $-1 #
edge $-1 $222 -40 $223 40 $139 $224 forward 7 unknown #
coedge $-1 $90 $89 $225 $226 forward $38 $-1 #
coedge $-1 $227 $228 $89 $143 reversed $212 $-1 #
edge $-1 $150 -40 $229 40 $142 $230 forward 7 unknown #
coedge $-1 $136 $231 $90 $145 reversed $86 $-1 #
edge $-1 $232 -40 $149 40 $144 $233 forward 7 unknown #
coedge $-1 $139 $91 $231 $234 forward $148 $-1 #
coedge $-1 $91 $139 $227 $235 reversed $148 $-1 #
loop $-1 $-1 $146 $211 #
vertex $-1 $92 $236 #
vertex $-1 $92 $237 #
straight-curve $-1 40 0 20 0 1 0 I I #
face $-1 $238 $239 $21 $-1 $240 reversed single #
loop $-1 $-1 $241 $93 #
coedge $-1 $242 $243 $244 $245 reversed $94 $-1 #
coedge $-1 $246 $95 $247 $248 reversed $61 $-1 #
coedge $-1 $95 $246 $62 $99 forward $61 $-1 #
coedge $-1 $249 $250 $95 $158 forward $251 $-1 #
edge $-1 $252 -3.1415926535897931 $169 -1.5707963267948966 $157 $253 forward 7 unknown #
coedge $-1 $97 $96 $243 $254 forward $41 $-1 #
coedge $-1 $255 $256 $96 $161 forward $257 $-1 #
edge $-1 $258 -9.8607613152626481e-033 $168 1.5707963267948966 $160 $259 forward 7 unknown #
coedge $-1 $260 $261 $97 $163 forward $262 $-1 #
edge $-1 $169 -1.5707963267948966 $263 9.8607613152626481e-033 $162 $253 forward 7 unknown #
coedge $-1 $264 $98 $261 $265 reversed $167 $-1 #
coedge $-1 $98 $264 $255 $266 reversed $167 $-1 #
coedge $-1 $267 $268 $156 $99 reversed $269 $-1 #
loop $-1 $-1 $98 $270 #
vertex $-1 $266 $271 #
vertex $-1 $272 $273 #
straight-curve $-1 -3.5527136788005009e-015 40 20 0 0 1 I I #
face $-1 $274 $184 $23 $-1 $275 forward single #
loop $-1 $-1 $276 $100 #
plane-surface $-1 0 20 0 0 1 0 0 0 1 forward_v I I I I #
coedge $-1 $277 $278 $279 $280 forward $101 $-1 #
coedge $-1 $281 $103 $278 $282 reversed $64 $-1 #
coedge $-1 $103 $281 $104 $180 forward $64 $-1 #
coedge $-1 $106 $279 $103 $178 reversed $184 $-1 #
edge $-1 $186 -14.641016151377549 $283 20 $103 $284 forward 7 unknown #
coedge $-1 $105 $104 $285 $286 reversed $44 $-1 #
edge $-1 $287 0 $186 20 $176 $288 forward 7 unknown #
coedge $-1 $289 $276 $105 $182 reversed $172 $-1 #
edge $-1 $290 0 $185 20 $105 $291 forward 7 unknown #
coedge $-1 $279 $106 $276 $292 reversed $184 $-1 #
loop $-1 $-1 $106 $171 #
vertex $-1 $182 $293 #
vertex $-1 $180 $294 #
ellipse-curve $-1 -3.5527136788005009e-015 -3.944304526105059e-031 20 0 0 -1 40 3.944304526105059e-031 0 1 I I #
model_id-kcp-attrib $-1 $-1 $108 $68 1 990663528 50 -2043543551 6 #
model_id-kcp-attrib $-1 $-1 $-1 $109 1 990663528 50 -2043543551 7 #
face $295 $-1 $296 $8 $-1 $297 forward single #
cone-surface $-1 0 0 0 0 0 1 40 0 0 1 I I 0 1 40 forward I I I I #
coedge $-1 $123 $122 $114 $196 forward $110 $-1 #
coedge $-1 $298 $112 $123 $204 reversed $69 $-1 #
coedge $-1 $112 $298 $117 $199 forward $69 $-1 #
coedge $-1 $114 $113 $298 $299 reversed $48 $-1 #
edge $300 $197 -24.641016151377549 $301 10 $192 $302 forward 7 unknown #
vertex $-1 $129 $303 #
straight-curve $-1 34.641016151377549 -20 0 0 0 1 I I #
edge $-1 $200 -20 $127 20 $194 $304 forward 7 unknown #
vertex $-1 $199 $305 #
straight-curve $-1 20 -20 0 -1 0 0 I I #
point $-1 34.641016151377549 -20 0 #
straight-curve $-1 0 20 10 0 0 -1 I I #
edge $306 $301 -20 $125 20 $123 $307 forward 7 unknown #
convexity-sys-attrib $-1 $-1 $124 $78 #
point $-1 0 20 20 #
point $-1 0 20 0 #
attrib_edge_convexity-kcp-attrib $-1 $308 $-1 $129 1 #
ellipse-curve $-1 0 0 20 0 0 1 40 0 0 1 I I #
coedge $-1 $210 $210 $309 $310 reversed $130 $-1 #
face $-1 $-1 $148 $19 $-1 $311 reversed single #
loop $-1 $-1 $227 $133 #
plane-surface $-1 0 40 0 0 -1 0 0 0 -1 forward_v I I I I #
coedge $-1 $312 $225 $228 $313 forward $134 $-1 #
coedge $-1 $231 $136 $137 $219 reversed $86 $-1 #
coedge $-1 $225 $312 $136 $217 reversed $134 $-1 #
edge $-1 $232 -20 $314 20 $216 $315 forward 7 unknown #
coedge $-1 $138 $137 $312 $316 forward $57 $-1 #
edge $-1 $223 -40 $314 40 $215 $317 forward 7 unknown #
coedge $-1 $228 $227 $138 $221 reversed $212 $-1 #
edge $-1 $318 -40 $222 40 $220 $319 forward 7 unknown #
vertex $-1 $140 $320 #
vertex $-1 $234 $321 #
straight-curve $-1 40 0 -20 0 -1 0 I I #
coedge $-1 $214 $216 $141 $226 reversed $134 $-1 #
edge $-1 $229 -40 $232 40 $225 $322 forward 7 unknown #
coedge $-1 $220 $142 $147 $235 forward $212 $-1 #
coedge $-1 $142 $220 $214 $313 reversed $212 $-1 #
vertex $-1 $143 $323 #
straight-curve $-1 0 40 20 -1 0 0 I I #
coedge $-1 $144 $215 $146 $234 reversed $86 $-1 #
vertex $-1 $226 $324 #
straight-curve $-1 0 -40 20 1 0 0 I I #
edge $-1 $149 -20 $223 20 $146 $325 forward 7 unknown #
edge $-1 $150 -20 $222 20 $147 $326 forward 7 unknown #
point $-1 40 -40 20 #
point $-1 40 40 20 #
face $-1 $327 $269 $21 $-1 $328 reversed single #
loop $-1 $-1 $329 $152 #
plane-surface $-1 40 0 0 -1 0 0 0 0 1 forward_v I I I I #
coedge $-1 $330 $331 $332 $333 reversed $153 $-1 #
coedge $-1 $334 $154 $331 $335 forward $94 $-1 #
coedge $-1 $154 $334 $336 $254 reversed $94 $-1 #
coedge $-1 $337 $338 $154 $245 forward $339 $-1 #
edge $-1 $340 -1.5707963267948966 $258 -9.8607613152626481e-033 $244 $259 forward 7 unknown #
coedge $-1 $156 $155 $341 $342 reversed $61 $-1 #
coedge $-1 $343 $344 $345 $248 forward $346 $-1 #
edge $-1 $347 -40 $252 0 $247 $348 forward 7 unknown #
coedge $-1 $250 $157 $268 $272 forward $251 $-1 #
coedge $-1 $157 $249 $343 $349 forward $251 $-1 #
loop $-1 $-1 $157 $350 #
vertex $-1 $351 $352 #
ellipse-curve $-1 -3.5527136788005009e-015 -3.944304526105059e-031 20 0 0 -1 40 3.944304526105059e-031 0 1 I I #
edge $-1 $258 -40 $263 0 $336 $353 forward 7 unknown #
coedge $-1 $256 $160 $165 $266 forward $257 $-1 #
coedge $-1 $160 $255 $354 $355 forward $257 $-1 #
loop $-1 $-1 $160 $356 #
vertex $-1 $357 $358 #
ellipse-curve $-1 -3.5527136788005009e-015 -3.944304526105059e-031 -20 0 0 1 40 3.944304526105059e-031 0 1 I I #
coedge $-1 $261 $162 $359 $360 forward $262 $-1 #
coedge $-1 $162 $260 $164 $265 forward $262 $-1 #
loop $-1 $-1 $162 $361 #
vertex $-1 $360 $362 #
coedge $-1 $165 $164 $363 $364 forward $167 $-1 #
edge $-1 $365 -40 $169 3.5527136788005009e-015 $164 $366 forward 7 unknown #
edge $-1 $168 -3.5527136788005009e-015 $367 40 $165 $368 forward 7 unknown #
coedge $-1 $369 $166 $370 $371 reversed $269 $-1 #
coedge $-1 $166 $369 $249 $272 reversed $269 $-1 #
loop $-1 $-1 $166 $238 #
face $-1 $372 $167 $21 $-1 $328 reversed single #
point $-1 -3.5527136788005009e-015 40 -20 #
edge $-1 $169 3.5527136788005009e-015 $373 40 $268 $366 forward 7 unknown #
point $-1 -3.5527136788005009e-015 40 20 #
face $-1 $-1 $374 $23 $-1 $375 reversed single #
plane-surface $-1 18.42382656899067 8.949333814952845e-017 20 0 0 1 1 0 0 forward_v I I I I #
coedge $-1 $181 $376 $183 $292 forward $172 $-1 #
coedge $-1 $377 $174 $376 $378 reversed $101 $-1 #
coedge $-1 $174 $377 $175 $282 forward $101 $-1 #
coedge $-1 $177 $183 $174 $280 reversed $184 $-1 #
edge $-1 $283 -20 $379 20 $174 $380 forward 7 unknown #
coedge $-1 $176 $175 $381 $382 reversed $64 $-1 #
edge $383 $384 0 $283 20 $278 $385 forward 7 unknown #
vertex $-1 $282 $386 #
straight-curve $-1 20 -20 20 -1 0 0 I I #
coedge $-1 $381 $387 $179 $286 forward $374 $-1 #
edge $388 $290 -0.5235987755982987 $287 0.5235987755982987 $179 $389 forward 7 unknown #
vertex $-1 $286 $390 #
straight-curve $-1 34.641016151377549 -20 0 0 0 1 I I #
coedge $-1 $376 $181 $387 $391 reversed $172 $-1 #
vertex $-1 $391 $392 #
straight-curve $-1 34.641016151377549 20 0 0 0 1 I I #
edge $-1 $379 -20 $185 14.641016151377549 $276 $393 forward 7 unknown #
point $-1 34.641016151377549 20 20 #
point $-1 34.641016151377549 -20 20 #
model_id-kcp-attrib $-1 $-1 $-1 $190 1 990663528 50 -2043543551 8 #
loop $-1 $-1 $309 $190 #
plane-surface $-1 0 0 -20 0 0 -1 -1 0 0 forward_v I I I I #
coedge $-1 $194 $193 $195 $299 forward $69 $-1 #
edge $-1 $301 -10 $200 10 $298 $394 forward 7 unknown #
attrib_edge_convexity-kcp-attrib $-1 $395 $-1 $196 1 #
vertex $-1 $196 $396 #
straight-curve $-1 10 -20 20 -1 0 0 I I #
point $-1 34.641016151377549 -20 20 #
straight-curve $-1 0 0 0 0 1 0 I I #
point $-1 0 -20 0 #
attrib_edge_convexity-kcp-attrib $-1 $397 $-1 $204 1 #
straight-curve $-1 0 0 20 0 1 0 I I #
convexity-sys-attrib $-1 $-1 $208 $129 #
coedge $-1 $309 $309 $210 $310 forward $296 $-1 #
edge $-1 $398 0 $398 6.2831853071795862 $309 $399 forward 7 unknown #
plane-surface $-1 40 0 0 -1 0 0 0 0 1 forward_v I I I I #
coedge $-1 $216 $214 $218 $316 reversed $134 $-1 #
edge $-1 $229 -20 $318 20 $228 $400 forward 7 unknown #
vertex $-1 $316 $401 #
straight-curve $-1 -40 -40 0 0 0 -1 I I #
edge $-1 $314 -40 $318 40 $312 $402 forward 7 unknown #
straight-curve $-1 0 -40 -20 -1 0 0 I I #
vertex $-1 $221 $403 #
straight-curve $-1 0 40 -20 1 0 0 I I #
point $-1 40 40 -20 #
point $-1 40 -40 -20 #
straight-curve $-1 -40 0 20 0 -1 0 I I #
point $-1 -40 40 20 #
point $-1 -40 -40 20 #
straight-curve $-1 40 -40 0 0 0 -1 I I #
straight-curve $-1 40 40 0 0 0 -1 I I #
face $-1 $404 $405 $21 $-1 $406 reversed single #
plane-surface $-1 0 40 0 0 -1 0 0 0 -1 forward_v I I I I #
coedge $-1 $354 $359 $159 $254 reversed $239 $-1 #
coedge $-1 $407 $241 $155 $248 forward $153 $-1 #
coedge $-1 $241 $407 $408 $335 reversed $153 $-1 #
coedge $-1 $409 $410 $241 $333 forward $411 $-1 #
edge $-1 $347 -3.1415926535897931 $340 -1.5707963267948966 $332 $259 forward 7 unknown #
coedge $-1 $243 $242 $412 $413 reversed $94 $-1 #
edge $-1 $340 -40 $414 0 $408 $415 forward 7 unknown #
coedge $-1 $416 $417 $329 $254 forward $418 $-1 #
coedge $-1 $338 $244 $417 $357 forward $339 $-1 #
coedge $-1 $244 $337 $419 $420 forward $339 $-1 #
loop $-1 $-1 $244 $421 #
vertex $-1 $422 $423 #
coedge $-1 $424 $370 $246 $342 forward $425 $-1 #
edge $-1 $168 1.5707963267948966 $347 3.1415926535897931 $341 $259 forward 7 unknown #
coedge $-1 $426 $247 $250 $349 reversed $346 $-1 #
coedge $-1 $247 $426 $424 $427 reversed $346 $-1 #
coedge $-1 $428 $429 $330 $248 reversed $405 $-1 #
loop $-1 $-1 $247 $430 #
vertex $-1 $427 $431 #
straight-curve $-1 -40 -3.944304526105059e-031 20 0 0 1 I I #
edge $-1 $373 -40 $252 3.944304526105059e-031 $343 $432 forward 7 unknown #
face $-1 $361 $251 $21 $-1 $433 forward single #
edge $-1 $252 3.944304526105059e-031 $434 40 $429 $432 forward 7 unknown #
point $-1 -40 -3.944304526105059e-031 20 #
straight-curve $-1 40 -3.944304526105059e-031 20 0 0 1 I I #
coedge $-1 $363 $329 $256 $355 reversed $239 $-1 #
edge $-1 $367 -40 $258 3.944304526105059e-031 $354 $435 forward 7 unknown #
face $-1 $436 $257 $21 $-1 $437 reversed single #
edge $-1 $258 3.944304526105059e-031 $438 40 $417 $435 forward 7 unknown #
point $-1 40 -3.944304526105059e-031 -20 #
coedge $-1 $329 $363 $260 $360 reversed $239 $-1 #
edge $-1 $263 -3.944304526105059e-031 $365 40 $359 $439 forward 7 unknown #
face $-1 $440 $262 $21 $-1 $433 forward single #
point $-1 40 -3.944304526105059e-031 20 #
coedge $-1 $359 $354 $264 $364 reversed $239 $-1 #
edge $-1 $365 -20 $367 20 $363 $441 forward 7 unknown #
vertex $-1 $360 $442 #
straight-curve $-1 0 40 20 -1 0 0 I I #
vertex $-1 $355 $443 #
straight-curve $-1 0 40 -20 1 0 0 I I #
coedge $-1 $268 $267 $426 $444 reversed $269 $-1 #
coedge $-1 $341 $424 $267 $371 forward $425 $-1 #
edge $-1 $445 -40 $168 -3.5527136788005009e-015 $267 $368 forward 7 unknown #
face $-1 $-1 $418 $21 $-1 $240 reversed single #
vertex $-1 $272 $446 #
loop $-1 $-1 $387 $274 #
plane-surface $-1 18.42382656899067 8.949333814952845e-017 0 0 0 1 1 0 0 forward_v I I I I #
coedge $-1 $276 $289 $277 $378 forward $172 $-1 #
coedge $-1 $278 $277 $447 $448 reversed $101 $-1 #
edge $449 $450 0 $379 20 $376 $451 forward 7 unknown #
vertex $-1 $378 $452 #
straight-curve $-1 0 0 20 0 1 0 I I #
coedge $-1 $447 $285 $281 $382 forward $374 $-1 #
edge $453 $287 -14.641016151377549 $384 20 $281 $454 forward 7 unknown #
convexity-sys-attrib $-1 $-1 $-1 $282 #
vertex $-1 $382 $455 #
straight-curve $-1 0 -20 0 0 0 1 I I #
point $-1 0 -20 20 #
coedge $-1 $285 $447 $289 $391 forward $374 $-1 #
convexity-sys-attrib $-1 $-1 $-1 $286 #
ellipse-curve $-1 -3.5527136788005009e-015 -3.944304526105059e-031 0 0 0 -1 40 3.944304526105059e-031 0 1 I I #
point $-1 34.641016151377549 -20 0 #
edge $456 $450 -20 $290 14.641016151377549 $289 $457 forward 7 unknown #
point $-1 34.641016151377549 20 0 #
straight-curve $-1 20 20 20 1 0 0 I I #
straight-curve $-1 0 -20 10 0 0 -1 I I #
convexity-sys-attrib $-1 $-1 $300 $196 #
point $-1 0 -20 20 #
convexity-sys-attrib $-1 $-1 $306 $204 #
vertex $-1 $310 $458 #
ellipse-curve $-1 0 0 -20 0 0 -1 40 0 0 1 I I #
straight-curve $-1 -40 40 0 0 0 -1 I I #
point $-1 -40 -40 -20 #
straight-curve $-1 -40 0 -20 0 1 0 I I #
point $-1 -40 40 -20 #
face $-1 $350 $459 $21 $-1 $433 forward single #
loop $-1 $-1 $345 $327 #
plane-surface $-1 -40 0 0 1 0 0 0 0 -1 forward_v I I I I #
coedge $-1 $331 $330 $460 $461 reversed $153 $-1 #
coedge $-1 $462 $463 $464 $335 forward $465 $-1 #
coedge $-1 $410 $332 $463 $422 forward $411 $-1 #
coedge $-1 $332 $409 $428 $466 forward $411 $-1 #
loop $-1 $-1 $332 $467 #
coedge $-1 $468 $469 $334 $413 forward $470 $-1 #
edge $-1 $263 9.8607613152626481e-033 $414 1.5707963267948966 $412 $253 forward 7 unknown #
vertex $-1 $471 $472 #
straight-curve $-1 -3.5527136788005009e-015 -40 20 0 0 1 I I #
coedge $-1 $473 $336 $469 $474 reversed $418 $-1 #
coedge $-1 $336 $473 $337 $357 reversed $418 $-1 #
loop $-1 $-1 $336 $372 #
coedge $-1 $475 $464 $338 $420 reversed $476 $-1 #
edge $-1 $438 -40 $340 3.5527136788005009e-015 $419 $477 forward 7 unknown #
face $-1 $356 $339 $21 $-1 $437 reversed single #
edge $-1 $340 3.5527136788005009e-015 $478 40 $463 $477 forward 7 unknown #
point $-1 -3.5527136788005009e-015 -40 -20 #
coedge $-1 $370 $341 $344 $427 forward $425 $-1 #
loop $-1 $-1 $341 $436 #
coedge $-1 $344 $343 $369 $444 forward $346 $-1 #
edge $-1 $347 -3.944304526105059e-031 $445 40 $344 $479 forward 7 unknown #
coedge $-1 $480 $345 $410 $466 reversed $405 $-1 #
coedge $-1 $345 $480 $481 $351 reversed $405 $-1 #
face $-1 $270 $346 $21 $-1 $406 reversed single #
point $-1 -40 -3.944304526105059e-031 -20 #
straight-curve $-1 -40 0 20 0 -1 0 I I #
plane-surface $-1 0 0 20 0 0 1 1 0 0 forward_v I I I I #
vertex $-1 $351 $482 #
straight-curve $-1 40 0 -20 0 -1 0 I I #
face $-1 $483 $425 $21 $-1 $437 reversed single #
plane-surface $-1 0 0 -20 0 0 1 1 0 0 forward_v I I I I #
vertex $-1 $484 $485 #
straight-curve $-1 40 0 20 0 1 0 I I #
face $-1 $486 $470 $21 $-1 $433 forward single #
straight-curve $-1 40 40 0 0 0 -1 I I #
point $-1 40 40 20 #
point $-1 40 40 -20 #
edge $-1 $373 -20 $445 20 $369 $487 forward 7 unknown #
vertex $-1 $371 $488 #
point $-1 -40 40 20 #
coedge $-1 $387 $381 $377 $448 forward $374 $-1 #
edge $489 $384 -20 $450 20 $377 $490 forward 7 unknown #
convexity-sys-attrib $-1 $-1 $-1 $378 #
vertex $-1 $391 $491 #
straight-curve $-1 0 20 0 0 0 1 I I #
point $-1 0 20 20 #
convexity-sys-attrib $-1 $-1 $-1 $382 #
straight-curve $-1 20 -20 0 -1 0 0 I I #
point $-1 0 -20 0 #
convexity-sys-attrib $-1 $-1 $-1 $391 #
straight-curve $-1 20 20 0 1 0 0 I I #
point $-1 40 0 -20 #
loop $-1 $-1 $460 $404 #
coedge $-1 $481 $492 $407 $461 forward $459 $-1 #
edge $-1 $414 1.5707963267948966 $252 3.1415926535897931 $460 $253 forward 7 unknown #
coedge $-1 $493 $408 $492 $494 reversed $465 $-1 #
coedge $-1 $408 $493 $409 $422 reversed $465 $-1 #
coedge $-1 $419 $495 $242 $335 reversed $476 $-1 #
loop $-1 $-1 $408 $483 #
edge $-1 $478 -40 $347 -3.944304526105059e-031 $428 $479 forward 7 unknown #
face $-1 $421 $411 $21 $-1 $437 reversed single #
coedge $-1 $469 $412 $495 $471 forward $470 $-1 #
coedge $-1 $412 $468 $416 $474 forward $470 $-1 #
loop $-1 $-1 $412 $440 #
edge $-1 $414 -3.5527136788005009e-015 $496 40 $495 $497 forward 7 unknown #
point $-1 -3.5527136788005009e-015 -40 20 #
coedge $-1 $417 $416 $475 $484 forward $418 $-1 #
edge $-1 $496 -40 $263 -3.944304526105059e-031 $416 $439 forward 7 unknown #
coedge $-1 $495 $419 $473 $484 reversed $476 $-1 #
loop $-1 $-1 $464 $486 #
straight-curve $-1 0 -40 -20 -1 0 0 I I #
vertex $-1 $466 $498 #
straight-curve $-1 -40 0 -20 0 1 0 I I #
coedge $-1 $429 $428 $493 $499 reversed $405 $-1 #
coedge $-1 $492 $460 $429 $351 forward $459 $-1 #
point $-1 -40 -40 20 #
face $-1 $430 $465 $21 $-1 $500 reversed single #
edge $-1 $496 -20 $438 20 $473 $501 forward 7 unknown #
point $-1 40 -40 -20 #
face $-1 $467 $476 $21 $-1 $500 reversed single #
straight-curve $-1 -40 40 0 0 0 -1 I I #
point $-1 -40 40 -20 #
convexity-sys-attrib $-1 $-1 $-1 $448 #
straight-curve $-1 0 0 0 0 1 0 I I #
point $-1 0 20 0 #
coedge $-1 $460 $481 $462 $494 forward $459 $-1 #
coedge $-1 $463 $462 $480 $499 forward $465 $-1 #
edge $-1 $434 -40 $414 -3.5527136788005009e-015 $462 $497 forward 7 unknown #
coedge $-1 $464 $475 $468 $471 reversed $476 $-1 #
vertex $-1 $474 $502 #
straight-curve $-1 0 -40 20 1 0 0 I I #
point $-1 -40 -40 -20 #
edge $-1 $434 -20 $478 20 $480 $503 forward 7 unknown #
plane-surface $-1 0 -40 0 0 1 0 0 0 1 forward_v I I I I #
straight-curve $-1 40 -40 0 0 0 -1 I I #
point $-1 40 -40 20 #
straight-curve $-1 -40 -40 0 0 0 -1 I I #
End-of-ACIS-data 