700 0 2 0           
24 FBMach with ACIS - 7.0.3 13 ACIS 7.0.3 NT 24 Tue May 14 09:19:58 2002 
1 9.9999999999999995e-007 1e-010 
body $2 -1 $-1 $3 $-1 $4 #
bdycol-kcp $-1 -1 1 3 $5 $6 $7 #
model_id-kcp-attrib $-1 -1 $-1 $-1 $0 1 1021382397 1021382397 -434634751 1 #
lump $-1 -1 $-1 $-1 $8 $0 #
transform $-1 -1 1 0 0 0 1 0 0 0 1 0 0 0 1 rotate no_reflect no_shear #
body $9 -1 $-1 $10 $-1 $11 #
body $12 -1 $-1 $13 $-1 $14 #
body $15 -1 $-1 $16 $-1 $17 #
shell $-1 -1 $-1 $-1 $-1 $18 $-1 $3 #
model_id-kcp-attrib $-1 -1 $-1 $-1 $5 1 1021382397 1021382397 -434634750 1 #
lump $-1 -1 $-1 $-1 $19 $5 #
transform $-1 -1 1 0 0 0 1 0 0 0 1 0 0 0 1 no_rotate no_reflect no_shear #
rgb_color-st-attrib $-1 -1 $20 $-1 $6 0.5 1 1 #
lump $-1 -1 $-1 $-1 $21 $6 #
transform $-1 -1 1 0 0 0 1 0 0 0 1 0 0 0 1 no_rotate no_reflect no_shear #
rgb_color-st-attrib $-1 -1 $22 $-1 $7 1 0 0 #
lump $-1 -1 $-1 $-1 $23 $7 #
transform $-1 -1 1 0 0 0 1 0 0 0 1 0 0 0 1 no_rotate no_reflect no_shear #
face $24 -1 $-1 $25 $26 $8 $-1 $27 forward single #
shell $-1 -1 $-1 $-1 $-1 $28 $-1 $10 #
model_id-kcp-attrib $-1 -1 $-1 $12 $6 1 1021382397 1021382397 -432668669 1 #
shell $-1 -1 $-1 $-1 $-1 $29 $-1 $13 #
model_id-kcp-attrib $-1 -1 $-1 $15 $7 1 1021382397 1021382398 -436076540 1 #
shell $-1 -1 $-1 $-1 $-1 $30 $-1 $16 #
model_id-kcp-attrib $-1 -1 $-1 $-1 $18 1 1021382397 1021382397 -434634751 2 #
face $31 -1 $-1 $32 $33 $8 $-1 $34 forward single #
loop $-1 -1 $-1 $-1 $35 $18 #
plane-surface $-1 -1 $-1 20 20 10 0 -1 0 0 0 -1 forward_v I I I I #
face $36 -1 $-1 $37 $38 $19 $-1 $39 forward single #
face $-1 -1 $-1 $40 $41 $21 $-1 $42 reversed single #
face $-1 -1 $-1 $43 $44 $23 $-1 $45 forward single #
model_id-kcp-attrib $-1 -1 $-1 $-1 $25 1 1021382397 1021382397 -434634751 3 #
face $46 -1 $-1 $47 $48 $8 $-1 $49 forward single #
loop $-1 -1 $-1 $-1 $50 $25 #
plane-surface $-1 -1 $-1 20 0 0 0 0 1 1 0 0 forward_v I I I I #
coedge $-1 -1 $-1 $51 $52 $53 $54 reversed $26 $-1 #
model_id-kcp-attrib $-1 -1 $-1 $-1 $28 1 1021382397 1021382397 -434634750 2 #
face $55 -1 $-1 $56 $57 $19 $-1 $58 reversed single #
loop $-1 -1 $-1 $-1 $59 $28 #
plane-surface $-1 -1 $-1 0 0 20 0 0 1 1 0 0 forward_v I I I I #
face $-1 -1 $-1 $60 $61 $21 $-1 $42 reversed single #
loop $-1 -1 $-1 $-1 $62 $29 #
cone-surface $-1 -1 $-1 -3.5527136788005009e-015 -3.944304526105059e-031 20 0 0 1 40 3.944304526105059e-031 0 1 I I 0 1 40 forward I I I I #
face $-1 -1 $-1 $63 $64 $23 $-1 $65 forward single #
loop $-1 -1 $-1 $-1 $66 $30 #
cone-surface $-1 -1 $-1 -3.5527136788005009e-015 -3.944304526105059e-031 0 0 0 1 40 3.944304526105059e-031 0 1 I I 0 1 40 forward I I I I #
model_id-kcp-attrib $-1 -1 $-1 $-1 $32 1 1021382397 1021382397 -434634751 4 #
face $67 -1 $-1 $68 $69 $8 $-1 $70 forward single #
loop $-1 -1 $-1 $-1 $71 $32 #
plane-surface $-1 -1 $-1 20 -20 10 0 1 0 0 0 1 forward_v I I I I #
coedge $-1 -1 $-1 $72 $73 $74 $75 reversed $33 $-1 #
coedge $-1 -1 $-1 $76 $35 $77 $78 reversed $26 $-1 #
coedge $-1 -1 $-1 $35 $76 $72 $79 forward $26 $-1 #
coedge $-1 -1 $-1 $74 $80 $35 $54 forward $81 $-1 #
edge $-1 -1 $-1 $82 -20 $83 0 $53 $84 forward @7 unknown #
model_id-kcp-attrib $-1 -1 $-1 $-1 $37 1 1021382397 1021382397 -434634750 3 #
face $-1 -1 $-1 $85 $86 $19 $-1 $87 reversed single #
loop $-1 -1 $-1 $-1 $88 $37 #
plane-surface $-1 -1 $-1 0 0 -20 0 0 1 1 0 0 forward_v I I I I #
coedge $-1 -1 $-1 $89 $90 $91 $92 forward $38 $-1 #
face $-1 -1 $-1 $93 $94 $21 $-1 $42 reversed single #
loop $-1 -1 $-1 $-1 $95 $40 #
coedge $-1 -1 $-1 $96 $97 $98 $99 reversed $41 $-1 #
face $-1 -1 $-1 $100 $101 $23 $-1 $102 forward single #
loop $-1 -1 $-1 $-1 $103 $43 #
plane-surface $-1 -1 $-1 34.641016151377549 -20 0 0 -1 0 0 0 -1 forward_v I I I I #
coedge $-1 -1 $-1 $104 $105 $106 $107 forward $44 $-1 #
model_id-kcp-attrib $-1 -1 $-1 $-1 $47 1 1021382397 1021382397 -434634751 5 #
face $108 -1 $-1 $109 $110 $8 $-1 $111 forward single #
loop $-1 -1 $-1 $-1 $112 $47 #
plane-surface $-1 -1 $-1 0 0 10 1 0 0 0 0 -1 forward_v I I I I #
coedge $-1 -1 $-1 $113 $114 $115 $116 reversed $48 $-1 #
coedge $-1 -1 $-1 $117 $50 $52 $79 reversed $33 $-1 #
coedge $-1 -1 $-1 $50 $117 $113 $118 reversed $33 $-1 #
coedge $-1 -1 $-1 $115 $53 $50 $75 forward $81 $-1 #
edge $119 -1 $-1 $83 -0.52359877559829882 $120 0.52359877559829882 $74 $121 forward @7 unknown #
coedge $-1 -1 $-1 $52 $51 $112 $122 forward $26 $-1 #
coedge $-1 -1 $-1 $123 $124 $51 $78 forward $110 $-1 #
edge $125 -1 $-1 $126 -10 $82 24.641016151377549 $77 $127 forward @7 unknown #
edge $128 -1 $-1 $129 -20 $83 14.641016151377549 $52 $130 forward @7 unknown #
coedge $-1 -1 $-1 $53 $115 $123 $131 reversed $81 $-1 #
loop $-1 -1 $-1 $132 $115 $109 #
vertex $-1 -1 $-1 $54 $133 #
vertex $-1 -1 $-1 $75 $134 #
straight-curve $-1 -1 $-1 34.641016151377549 20 0 0 0 -1 I I #
face $-1 -1 $-1 $135 $136 $19 $-1 $137 reversed single #
loop $-1 -1 $-1 $-1 $138 $56 #
plane-surface $-1 -1 $-1 0 -40 0 0 1 0 0 0 1 forward_v I I I I #
coedge $-1 -1 $-1 $139 $140 $141 $142 forward $57 $-1 #
coedge $-1 -1 $-1 $143 $59 $144 $145 forward $38 $-1 #
coedge $-1 -1 $-1 $59 $143 $146 $147 forward $38 $-1 #
coedge $-1 -1 $-1 $148 $149 $59 $92 reversed $150 $-1 #
edge $-1 -1 $-1 $151 -40 $152 40 $91 $153 forward @7 unknown #
face $-1 -1 $-1 $154 $155 $21 $-1 $42 reversed single #
loop $-1 -1 $-1 $-1 $156 $60 #
coedge $-1 -1 $-1 $157 $158 $159 $160 reversed $61 $-1 #
coedge $-1 -1 $-1 $161 $62 $162 $163 reversed $41 $-1 #
coedge $-1 -1 $-1 $62 $161 $164 $165 reversed $41 $-1 #
coedge $-1 -1 $-1 $166 $167 $168 $99 forward $169 $-1 #
edge $-1 -1 $-1 $170 -40 $171 0 $98 $172 forward @7 unknown #
face $-1 -1 $-1 $173 $174 $23 $-1 $175 forward single #
loop $-1 -1 $-1 $-1 $176 $63 #
plane-surface $-1 -1 $-1 0 -20 0 -1 0 0 0 0 1 forward_v I I I I #
coedge $-1 -1 $-1 $177 $178 $179 $180 forward $64 $-1 #
coedge $-1 -1 $-1 $181 $66 $178 $182 reversed $44 $-1 #
coedge $-1 -1 $-1 $66 $181 $183 $184 forward $44 $-1 #
coedge $-1 -1 $-1 $185 $179 $66 $107 reversed $186 $-1 #
edge $-1 -1 $-1 $187 -0.5235987755982987 $188 0.5235987755982987 $66 $189 forward @7 unknown #
model_id-kcp-attrib $-1 -1 $-1 $-1 $68 1 1021382397 1021382397 -434634751 6 #
face $190 -1 $-1 $191 $81 $8 $-1 $192 forward single #
loop $-1 -1 $-1 $-1 $193 $68 #
plane-surface $-1 -1 $-1 0 0 20 0 0 1 1 0 0 forward_v I I I I #
coedge $-1 -1 $-1 $194 $195 $76 $122 reversed $69 $-1 #
coedge $-1 -1 $-1 $196 $71 $73 $118 forward $48 $-1 #
coedge $-1 -1 $-1 $71 $196 $193 $197 reversed $48 $-1 #
coedge $-1 -1 $-1 $80 $74 $71 $116 forward $81 $-1 #
edge $-1 -1 $-1 $120 0 $198 20 $115 $199 forward @7 unknown #
coedge $-1 -1 $-1 $73 $72 $195 $200 reversed $33 $-1 #
edge $201 -1 $-1 $120 -14.641016151377549 $202 20 $113 $203 forward @7 unknown #
attrib_edge_convexity-kcp-attrib $-1 -1 $204 $-1 $75 1 #
vertex $-1 -1 $-1 $75 $205 #
ellipse-curve $-1 -1 $-1 0 0 0 0 0 -1 40 0 0 1 I I #
edge $206 -1 $-1 $126 -10 $129 10 $76 $207 forward @7 unknown #
coedge $-1 -1 $-1 $193 $77 $80 $131 forward $110 $-1 #
coedge $-1 -1 $-1 $77 $193 $194 $208 forward $110 $-1 #
attrib_edge_convexity-kcp-attrib $-1 -1 $209 $-1 $78 1 #
vertex $-1 -1 $-1 $208 $210 #
straight-curve $-1 -1 $-1 10 20 20 1 0 0 I I #
attrib_edge_convexity-kcp-attrib $-1 -1 $211 $-1 $79 2 #
vertex $-1 -1 $-1 $79 $212 #
straight-curve $-1 -1 $-1 20 20 0 1 0 0 I I #
edge $213 -1 $-1 $82 0.52359877559829882 $198 5.7595865315812871 $123 $214 forward @7 unknown #
loop $-1 -1 $-1 $-1 $215 $109 #
point $-1 -1 $-1 34.641016151377549 20 20 #
point $-1 -1 $-1 34.641016151377549 20 0 #
face $-1 -1 $-1 $216 $217 $19 $-1 $218 reversed single #
loop $-1 -1 $-1 $-1 $219 $85 #
plane-surface $-1 -1 $-1 -40 0 0 1 0 0 0 0 -1 forward_v I I I I #
coedge $-1 -1 $-1 $220 $146 $221 $222 forward $86 $-1 #
coedge $-1 -1 $-1 $223 $88 $220 $224 forward $57 $-1 #
coedge $-1 -1 $-1 $88 $223 $225 $226 forward $57 $-1 #
coedge $-1 -1 $-1 $149 $148 $88 $142 reversed $150 $-1 #
edge $-1 -1 $-1 $227 -40 $228 40 $141 $229 forward @7 unknown #
coedge $-1 -1 $-1 $90 $89 $230 $231 forward $38 $-1 #
coedge $-1 -1 $-1 $232 $233 $89 $145 reversed $217 $-1 #
edge $-1 -1 $-1 $152 -40 $234 40 $144 $235 forward @7 unknown #
coedge $-1 -1 $-1 $138 $236 $90 $147 reversed $86 $-1 #
edge $-1 -1 $-1 $237 -40 $151 40 $146 $238 forward @7 unknown #
coedge $-1 -1 $-1 $141 $91 $236 $239 forward $150 $-1 #
coedge $-1 -1 $-1 $91 $141 $232 $240 reversed $150 $-1 #
loop $-1 -1 $-1 $-1 $148 $216 #
vertex $-1 -1 $-1 $92 $241 #
vertex $-1 -1 $-1 $92 $242 #
straight-curve $-1 -1 $-1 40 0 20 0 1 0 I I #
face $-1 -1 $-1 $243 $244 $21 $-1 $245 reversed single #
loop $-1 -1 $-1 $-1 $246 $93 #
coedge $-1 -1 $-1 $247 $248 $249 $250 reversed $94 $-1 #
coedge $-1 -1 $-1 $251 $95 $252 $253 reversed $61 $-1 #
coedge $-1 -1 $-1 $95 $251 $62 $99 forward $61 $-1 #
coedge $-1 -1 $-1 $254 $255 $95 $160 forward $256 $-1 #
edge $-1 -1 $-1 $257 -3.1415926535897931 $171 -1.5707963267948966 $159 $258 forward @7 unknown #
coedge $-1 -1 $-1 $97 $96 $248 $259 forward $41 $-1 #
coedge $-1 -1 $-1 $260 $261 $96 $163 forward $262 $-1 #
edge $-1 -1 $-1 $263 -9.8607613152626481e-033 $170 1.5707963267948966 $162 $264 forward @7 unknown #
coedge $-1 -1 $-1 $265 $266 $97 $165 forward $267 $-1 #
edge $-1 -1 $-1 $171 -1.5707963267948966 $268 9.8607613152626481e-033 $164 $258 forward @7 unknown #
coedge $-1 -1 $-1 $269 $98 $266 $270 reversed $169 $-1 #
coedge $-1 -1 $-1 $98 $269 $260 $271 reversed $169 $-1 #
coedge $-1 -1 $-1 $272 $273 $158 $99 reversed $274 $-1 #
loop $-1 -1 $-1 $-1 $98 $275 #
vertex $-1 -1 $-1 $271 $276 #
vertex $-1 -1 $-1 $277 $278 #
straight-curve $-1 -1 $-1 -3.5527136788005009e-015 40 20 0 0 1 I I #
face $-1 -1 $-1 $279 $186 $23 $-1 $280 forward single #
loop $-1 -1 $-1 $-1 $281 $100 #
plane-surface $-1 -1 $-1 0 20 0 0 1 0 0 0 1 forward_v I I I I #
coedge $-1 -1 $-1 $282 $283 $284 $285 forward $101 $-1 #
coedge $-1 -1 $-1 $286 $103 $283 $287 reversed $64 $-1 #
coedge $-1 -1 $-1 $103 $286 $104 $182 forward $64 $-1 #
coedge $-1 -1 $-1 $106 $284 $103 $180 reversed $186 $-1 #
edge $-1 -1 $-1 $188 -14.641016151377549 $288 20 $103 $289 forward @7 unknown #
coedge $-1 -1 $-1 $105 $104 $290 $291 reversed $44 $-1 #
edge $-1 -1 $-1 $292 0 $188 20 $178 $293 forward @7 unknown #
coedge $-1 -1 $-1 $294 $281 $105 $184 reversed $174 $-1 #
edge $-1 -1 $-1 $295 0 $187 20 $105 $296 forward @7 unknown #
coedge $-1 -1 $-1 $284 $106 $281 $297 reversed $186 $-1 #
loop $-1 -1 $-1 $-1 $106 $173 #
vertex $-1 -1 $-1 $184 $298 #
vertex $-1 -1 $-1 $182 $299 #
ellipse-curve $-1 -1 $-1 -3.5527136788005009e-015 -3.944304526105059e-031 20 0 0 -1 40 3.944304526105059e-031 0 1 I I #
model_id-kcp-attrib $-1 -1 $-1 $-1 $109 1 1021382397 1021382397 -434634751 7 #
face $300 -1 $-1 $-1 $301 $8 $-1 $302 forward single #
cone-surface $-1 -1 $-1 0 0 0 0 0 1 40 0 0 1 I I 0 1 40 forward I I I I #
coedge $-1 -1 $-1 $124 $123 $114 $197 forward $110 $-1 #
coedge $-1 -1 $-1 $303 $112 $124 $208 reversed $69 $-1 #
coedge $-1 -1 $-1 $112 $303 $117 $200 forward $69 $-1 #
coedge $-1 -1 $-1 $114 $113 $303 $304 reversed $48 $-1 #
edge $305 -1 $-1 $198 -24.641016151377549 $306 10 $193 $307 forward @7 unknown #
vertex $-1 -1 $-1 $131 $308 #
straight-curve $-1 -1 $-1 34.641016151377549 -20 0 0 0 1 I I #
edge $309 -1 $-1 $202 -20 $129 20 $195 $310 forward @7 unknown #
attrib_edge_convexity-kcp-attrib $-1 -1 $311 $-1 $118 2 #
vertex $-1 -1 $-1 $200 $312 #
straight-curve $-1 -1 $-1 20 -20 0 -1 0 0 I I #
convexity-sys-attrib $-1 -1 $-1 $119 $75 #
point $-1 -1 $-1 34.641016151377549 -20 0 #
attrib_edge_convexity-kcp-attrib $-1 -1 $313 $-1 $122 2 #
straight-curve $-1 -1 $-1 0 20 10 0 0 -1 I I #
edge $314 -1 $-1 $306 -20 $126 20 $124 $315 forward @7 unknown #
convexity-sys-attrib $-1 -1 $-1 $125 $78 #
point $-1 -1 $-1 0 20 20 #
convexity-sys-attrib $-1 -1 $-1 $128 $79 #
point $-1 -1 $-1 0 20 0 #
attrib_edge_convexity-kcp-attrib $-1 -1 $316 $-1 $131 1 #
ellipse-curve $-1 -1 $-1 0 0 20 0 0 1 40 0 0 1 I I #
coedge $-1 -1 $-1 $215 $215 $317 $318 reversed $132 $-1 #
face $-1 -1 $-1 $-1 $150 $19 $-1 $319 reversed single #
loop $-1 -1 $-1 $-1 $232 $135 #
plane-surface $-1 -1 $-1 0 40 0 0 -1 0 0 0 -1 forward_v I I I I #
coedge $-1 -1 $-1 $320 $230 $233 $321 forward $136 $-1 #
coedge $-1 -1 $-1 $236 $138 $139 $224 reversed $86 $-1 #
coedge $-1 -1 $-1 $230 $320 $138 $222 reversed $136 $-1 #
edge $-1 -1 $-1 $237 -20 $322 20 $221 $323 forward @7 unknown #
coedge $-1 -1 $-1 $140 $139 $320 $324 forward $57 $-1 #
edge $-1 -1 $-1 $228 -40 $322 40 $220 $325 forward @7 unknown #
coedge $-1 -1 $-1 $233 $232 $140 $226 reversed $217 $-1 #
edge $-1 -1 $-1 $326 -40 $227 40 $225 $327 forward @7 unknown #
vertex $-1 -1 $-1 $142 $328 #
vertex $-1 -1 $-1 $239 $329 #
straight-curve $-1 -1 $-1 40 0 -20 0 -1 0 I I #
coedge $-1 -1 $-1 $219 $221 $143 $231 reversed $136 $-1 #
edge $-1 -1 $-1 $234 -40 $237 40 $230 $330 forward @7 unknown #
coedge $-1 -1 $-1 $225 $144 $149 $240 forward $217 $-1 #
coedge $-1 -1 $-1 $144 $225 $219 $321 reversed $217 $-1 #
vertex $-1 -1 $-1 $145 $331 #
straight-curve $-1 -1 $-1 0 40 20 -1 0 0 I I #
coedge $-1 -1 $-1 $146 $220 $148 $239 reversed $86 $-1 #
vertex $-1 -1 $-1 $231 $332 #
straight-curve $-1 -1 $-1 0 -40 20 1 0 0 I I #
edge $-1 -1 $-1 $151 -20 $228 20 $148 $333 forward @7 unknown #
edge $-1 -1 $-1 $152 -20 $227 20 $149 $334 forward @7 unknown #
point $-1 -1 $-1 40 -40 20 #
point $-1 -1 $-1 40 40 20 #
face $-1 -1 $-1 $335 $274 $21 $-1 $336 reversed single #
loop $-1 -1 $-1 $-1 $337 $154 #
plane-surface $-1 -1 $-1 40 0 0 -1 0 0 0 0 1 forward_v I I I I #
coedge $-1 -1 $-1 $338 $339 $340 $341 reversed $155 $-1 #
coedge $-1 -1 $-1 $342 $156 $339 $343 forward $94 $-1 #
coedge $-1 -1 $-1 $156 $342 $344 $259 reversed $94 $-1 #
coedge $-1 -1 $-1 $345 $346 $156 $250 forward $347 $-1 #
edge $-1 -1 $-1 $348 -1.5707963267948966 $263 -9.8607613152626481e-033 $249 $264 forward @7 unknown #
coedge $-1 -1 $-1 $158 $157 $349 $350 reversed $61 $-1 #
coedge $-1 -1 $-1 $351 $352 $353 $253 forward $354 $-1 #
edge $-1 -1 $-1 $355 -40 $257 0 $252 $356 forward @7 unknown #
coedge $-1 -1 $-1 $255 $159 $273 $277 forward $256 $-1 #
coedge $-1 -1 $-1 $159 $254 $351 $357 forward $256 $-1 #
loop $-1 -1 $-1 $-1 $159 $358 #
vertex $-1 -1 $-1 $359 $360 #
ellipse-curve $-1 -1 $-1 -3.5527136788005009e-015 -3.944304526105059e-031 20 0 0 -1 40 3.944304526105059e-031 0 1 I I #
edge $-1 -1 $-1 $263 -40 $268 0 $344 $361 forward @7 unknown #
coedge $-1 -1 $-1 $261 $162 $167 $271 forward $262 $-1 #
coedge $-1 -1 $-1 $162 $260 $362 $363 forward $262 $-1 #
loop $-1 -1 $-1 $-1 $162 $364 #
vertex $-1 -1 $-1 $365 $366 #
ellipse-curve $-1 -1 $-1 -3.5527136788005009e-015 -3.944304526105059e-031 -20 0 0 1 40 3.944304526105059e-031 0 1 I I #
coedge $-1 -1 $-1 $266 $164 $367 $368 forward $267 $-1 #
coedge $-1 -1 $-1 $164 $265 $166 $270 forward $267 $-1 #
loop $-1 -1 $-1 $-1 $164 $369 #
vertex $-1 -1 $-1 $368 $370 #
coedge $-1 -1 $-1 $167 $166 $371 $372 forward $169 $-1 #
edge $-1 -1 $-1 $373 -40 $171 3.5527136788005009e-015 $166 $374 forward @7 unknown #
edge $-1 -1 $-1 $170 -3.5527136788005009e-015 $375 40 $167 $376 forward @7 unknown #
coedge $-1 -1 $-1 $377 $168 $378 $379 reversed $274 $-1 #
coedge $-1 -1 $-1 $168 $377 $254 $277 reversed $274 $-1 #
loop $-1 -1 $-1 $-1 $168 $243 #
face $-1 -1 $-1 $380 $169 $21 $-1 $336 reversed single #
point $-1 -1 $-1 -3.5527136788005009e-015 40 -20 #
edge $-1 -1 $-1 $171 3.5527136788005009e-015 $381 40 $273 $374 forward @7 unknown #
point $-1 -1 $-1 -3.5527136788005009e-015 40 20 #
face $-1 -1 $-1 $-1 $382 $23 $-1 $383 reversed single #
plane-surface $-1 -1 $-1 18.42382656899067 8.949333814952845e-017 20 0 0 1 1 0 0 forward_v I I I I #
coedge $-1 -1 $-1 $183 $384 $185 $297 forward $174 $-1 #
coedge $-1 -1 $-1 $385 $176 $384 $386 reversed $101 $-1 #
coedge $-1 -1 $-1 $176 $385 $177 $287 forward $101 $-1 #
coedge $-1 -1 $-1 $179 $185 $176 $285 reversed $186 $-1 #
edge $-1 -1 $-1 $288 -20 $387 20 $176 $388 forward @7 unknown #
coedge $-1 -1 $-1 $178 $177 $389 $390 reversed $64 $-1 #
edge $391 -1 $-1 $392 0 $288 20 $283 $393 forward @7 unknown #
vertex $-1 -1 $-1 $287 $394 #
straight-curve $-1 -1 $-1 20 -20 20 -1 0 0 I I #
coedge $-1 -1 $-1 $389 $395 $181 $291 forward $382 $-1 #
edge $396 -1 $-1 $295 -0.5235987755982987 $292 0.5235987755982987 $181 $397 forward @7 unknown #
vertex $-1 -1 $-1 $291 $398 #
straight-curve $-1 -1 $-1 34.641016151377549 -20 0 0 0 1 I I #
coedge $-1 -1 $-1 $384 $183 $395 $399 reversed $174 $-1 #
vertex $-1 -1 $-1 $399 $400 #
straight-curve $-1 -1 $-1 34.641016151377549 20 0 0 0 1 I I #
edge $-1 -1 $-1 $387 -20 $187 14.641016151377549 $281 $401 forward @7 unknown #
point $-1 -1 $-1 34.641016151377549 20 20 #
point $-1 -1 $-1 34.641016151377549 -20 20 #
model_id-kcp-attrib $-1 -1 $-1 $-1 $191 1 1021382397 1021382397 -434634751 8 #
loop $-1 -1 $-1 $-1 $317 $191 #
plane-surface $-1 -1 $-1 0 0 -20 0 0 -1 -1 0 0 forward_v I I I I #
coedge $-1 -1 $-1 $195 $194 $196 $304 forward $69 $-1 #
edge $402 -1 $-1 $306 -10 $202 10 $303 $403 forward @7 unknown #
attrib_edge_convexity-kcp-attrib $-1 -1 $404 $-1 $197 1 #
vertex $-1 -1 $-1 $197 $405 #
straight-curve $-1 -1 $-1 10 -20 20 -1 0 0 I I #
point $-1 -1 $-1 34.641016151377549 -20 20 #
attrib_edge_convexity-kcp-attrib $-1 -1 $406 $-1 $200 2 #
straight-curve $-1 -1 $-1 0 0 0 0 1 0 I I #
convexity-sys-attrib $-1 -1 $-1 $201 $118 #
point $-1 -1 $-1 0 -20 0 #
convexity-sys-attrib $-1 -1 $-1 $206 $122 #
attrib_edge_convexity-kcp-attrib $-1 -1 $407 $-1 $208 1 #
straight-curve $-1 -1 $-1 0 0 20 0 1 0 I I #
convexity-sys-attrib $-1 -1 $-1 $213 $131 #
coedge $-1 -1 $-1 $317 $317 $215 $318 forward $301 $-1 #
edge $-1 -1 $-1 $408 0 $408 6.2831853071795862 $317 $409 forward @7 unknown #
plane-surface $-1 -1 $-1 40 0 0 -1 0 0 0 0 1 forward_v I I I I #
coedge $-1 -1 $-1 $221 $219 $223 $324 reversed $136 $-1 #
edge $-1 -1 $-1 $234 -20 $326 20 $233 $410 forward @7 unknown #
vertex $-1 -1 $-1 $324 $411 #
straight-curve $-1 -1 $-1 -40 -40 0 0 0 -1 I I #
edge $-1 -1 $-1 $322 -40 $326 40 $320 $412 forward @7 unknown #
straight-curve $-1 -1 $-1 0 -40 -20 -1 0 0 I I #
vertex $-1 -1 $-1 $226 $413 #
straight-curve $-1 -1 $-1 0 40 -20 1 0 0 I I #
point $-1 -1 $-1 40 40 -20 #
point $-1 -1 $-1 40 -40 -20 #
straight-curve $-1 -1 $-1 -40 0 20 0 -1 0 I I #
point $-1 -1 $-1 -40 40 20 #
point $-1 -1 $-1 -40 -40 20 #
straight-curve $-1 -1 $-1 40 -40 0 0 0 -1 I I #
straight-curve $-1 -1 $-1 40 40 0 0 0 -1 I I #
face $-1 -1 $-1 $414 $415 $21 $-1 $416 reversed single #
plane-surface $-1 -1 $-1 0 40 0 0 -1 0 0 0 -1 forward_v I I I I #
coedge $-1 -1 $-1 $362 $367 $161 $259 reversed $244 $-1 #
coedge $-1 -1 $-1 $417 $246 $157 $253 forward $155 $-1 #
coedge $-1 -1 $-1 $246 $417 $418 $343 reversed $155 $-1 #
coedge $-1 -1 $-1 $419 $420 $246 $341 forward $421 $-1 #
edge $-1 -1 $-1 $355 -3.1415926535897931 $348 -1.5707963267948966 $340 $264 forward @7 unknown #
coedge $-1 -1 $-1 $248 $247 $422 $423 reversed $94 $-1 #
edge $-1 -1 $-1 $348 -40 $424 0 $418 $425 forward @7 unknown #
coedge $-1 -1 $-1 $426 $427 $337 $259 forward $428 $-1 #
coedge $-1 -1 $-1 $346 $249 $427 $365 forward $347 $-1 #
coedge $-1 -1 $-1 $249 $345 $429 $430 forward $347 $-1 #
loop $-1 -1 $-1 $-1 $249 $431 #
vertex $-1 -1 $-1 $432 $433 #
coedge $-1 -1 $-1 $434 $378 $251 $350 forward $435 $-1 #
edge $-1 -1 $-1 $170 1.5707963267948966 $355 3.1415926535897931 $349 $264 forward @7 unknown #
coedge $-1 -1 $-1 $436 $252 $255 $357 reversed $354 $-1 #
coedge $-1 -1 $-1 $252 $436 $434 $437 reversed $354 $-1 #
coedge $-1 -1 $-1 $438 $439 $338 $253 reversed $415 $-1 #
loop $-1 -1 $-1 $-1 $252 $440 #
vertex $-1 -1 $-1 $437 $441 #
straight-curve $-1 -1 $-1 -40 -3.944304526105059e-031 20 0 0 1 I I #
edge $-1 -1 $-1 $381 -40 $257 3.944304526105059e-031 $351 $442 forward @7 unknown #
face $-1 -1 $-1 $369 $256 $21 $-1 $443 forward single #
edge $-1 -1 $-1 $257 3.944304526105059e-031 $444 40 $439 $442 forward @7 unknown #
point $-1 -1 $-1 -40 -3.944304526105059e-031 20 #
straight-curve $-1 -1 $-1 40 -3.944304526105059e-031 20 0 0 1 I I #
coedge $-1 -1 $-1 $371 $337 $261 $363 reversed $244 $-1 #
edge $-1 -1 $-1 $375 -40 $263 3.944304526105059e-031 $362 $445 forward @7 unknown #
face $-1 -1 $-1 $446 $262 $21 $-1 $447 reversed single #
edge $-1 -1 $-1 $263 3.944304526105059e-031 $448 40 $427 $445 forward @7 unknown #
point $-1 -1 $-1 40 -3.944304526105059e-031 -20 #
coedge $-1 -1 $-1 $337 $371 $265 $368 reversed $244 $-1 #
edge $-1 -1 $-1 $268 -3.944304526105059e-031 $373 40 $367 $449 forward @7 unknown #
face $-1 -1 $-1 $450 $267 $21 $-1 $443 forward single #
point $-1 -1 $-1 40 -3.944304526105059e-031 20 #
coedge $-1 -1 $-1 $367 $362 $269 $372 reversed $244 $-1 #
edge $-1 -1 $-1 $373 -20 $375 20 $371 $451 forward @7 unknown #
vertex $-1 -1 $-1 $368 $452 #
straight-curve $-1 -1 $-1 0 40 20 -1 0 0 I I #
vertex $-1 -1 $-1 $363 $453 #
straight-curve $-1 -1 $-1 0 40 -20 1 0 0 I I #
coedge $-1 -1 $-1 $273 $272 $436 $454 reversed $274 $-1 #
coedge $-1 -1 $-1 $349 $434 $272 $379 forward $435 $-1 #
edge $-1 -1 $-1 $455 -40 $170 -3.5527136788005009e-015 $272 $376 forward @7 unknown #
face $-1 -1 $-1 $-1 $428 $21 $-1 $245 reversed single #
vertex $-1 -1 $-1 $277 $456 #
loop $-1 -1 $-1 $-1 $395 $279 #
plane-surface $-1 -1 $-1 18.42382656899067 8.949333814952845e-017 0 0 0 1 1 0 0 forward_v I I I I #
coedge $-1 -1 $-1 $281 $294 $282 $386 forward $174 $-1 #
coedge $-1 -1 $-1 $283 $282 $457 $458 reversed $101 $-1 #
edge $459 -1 $-1 $460 0 $387 20 $384 $461 forward @7 unknown #
vertex $-1 -1 $-1 $386 $462 #
straight-curve $-1 -1 $-1 0 0 20 0 1 0 I I #
coedge $-1 -1 $-1 $457 $290 $286 $390 forward $382 $-1 #
edge $463 -1 $-1 $292 -14.641016151377549 $392 20 $286 $464 forward @7 unknown #
convexity-sys-attrib $-1 -1 $-1 $-1 $287 #
vertex $-1 -1 $-1 $390 $465 #
straight-curve $-1 -1 $-1 0 -20 0 0 0 1 I I #
point $-1 -1 $-1 0 -20 20 #
coedge $-1 -1 $-1 $290 $457 $294 $399 forward $382 $-1 #
convexity-sys-attrib $-1 -1 $-1 $-1 $291 #
ellipse-curve $-1 -1 $-1 -3.5527136788005009e-015 -3.944304526105059e-031 0 0 0 -1 40 3.944304526105059e-031 0 1 I I #
point $-1 -1 $-1 34.641016151377549 -20 0 #
edge $466 -1 $-1 $460 -20 $295 14.641016151377549 $294 $467 forward @7 unknown #
point $-1 -1 $-1 34.641016151377549 20 0 #
straight-curve $-1 -1 $-1 20 20 20 1 0 0 I I #
attrib_edge_convexity-kcp-attrib $-1 -1 $468 $-1 $304 2 #
straight-curve $-1 -1 $-1 0 -20 10 0 0 -1 I I #
convexity-sys-attrib $-1 -1 $-1 $305 $197 #
point $-1 -1 $-1 0 -20 20 #
convexity-sys-attrib $-1 -1 $-1 $309 $200 #
convexity-sys-attrib $-1 -1 $-1 $314 $208 #
vertex $-1 -1 $-1 $318 $469 #
ellipse-curve $-1 -1 $-1 0 0 -20 0 0 -1 40 0 0 1 I I #
straight-curve $-1 -1 $-1 -40 40 0 0 0 -1 I I #
point $-1 -1 $-1 -40 -40 -20 #
straight-curve $-1 -1 $-1 -40 0 -20 0 1 0 I I #
point $-1 -1 $-1 -40 40 -20 #
face $-1 -1 $-1 $358 $470 $21 $-1 $443 forward single #
loop $-1 -1 $-1 $-1 $353 $335 #
plane-surface $-1 -1 $-1 -40 0 0 1 0 0 0 0 -1 forward_v I I I I #
coedge $-1 -1 $-1 $339 $338 $471 $472 reversed $155 $-1 #
coedge $-1 -1 $-1 $473 $474 $475 $343 forward $476 $-1 #
coedge $-1 -1 $-1 $420 $340 $474 $432 forward $421 $-1 #
coedge $-1 -1 $-1 $340 $419 $438 $477 forward $421 $-1 #
loop $-1 -1 $-1 $-1 $340 $478 #
coedge $-1 -1 $-1 $479 $480 $342 $423 forward $481 $-1 #
edge $-1 -1 $-1 $268 9.8607613152626481e-033 $424 1.5707963267948966 $422 $258 forward @7 unknown #
vertex $-1 -1 $-1 $482 $483 #
straight-curve $-1 -1 $-1 -3.5527136788005009e-015 -40 20 0 0 1 I I #
coedge $-1 -1 $-1 $484 $344 $480 $485 reversed $428 $-1 #
coedge $-1 -1 $-1 $344 $484 $345 $365 reversed $428 $-1 #
loop $-1 -1 $-1 $-1 $344 $380 #
coedge $-1 -1 $-1 $486 $475 $346 $430 reversed $487 $-1 #
edge $-1 -1 $-1 $448 -40 $348 3.5527136788005009e-015 $429 $488 forward @7 unknown #
face $-1 -1 $-1 $364 $347 $21 $-1 $447 reversed single #
edge $-1 -1 $-1 $348 3.5527136788005009e-015 $489 40 $474 $488 forward @7 unknown #
point $-1 -1 $-1 -3.5527136788005009e-015 -40 -20 #
coedge $-1 -1 $-1 $378 $349 $352 $437 forward $435 $-1 #
loop $-1 -1 $-1 $-1 $349 $446 #
coedge $-1 -1 $-1 $352 $351 $377 $454 forward $354 $-1 #
edge $-1 -1 $-1 $355 -3.944304526105059e-031 $455 40 $352 $490 forward @7 unknown #
coedge $-1 -1 $-1 $491 $353 $420 $477 reversed $415 $-1 #
coedge $-1 -1 $-1 $353 $491 $492 $359 reversed $415 $-1 #
face $-1 -1 $-1 $275 $354 $21 $-1 $416 reversed single #
point $-1 -1 $-1 -40 -3.944304526105059e-031 -20 #
straight-curve $-1 -1 $-1 -40 0 20 0 -1 0 I I #
plane-surface $-1 -1 $-1 0 0 20 0 0 1 1 0 0 forward_v I I I I #
vertex $-1 -1 $-1 $359 $493 #
straight-curve $-1 -1 $-1 40 0 -20 0 -1 0 I I #
face $-1 -1 $-1 $494 $435 $21 $-1 $447 reversed single #
plane-surface $-1 -1 $-1 0 0 -20 0 0 1 1 0 0 forward_v I I I I #
vertex $-1 -1 $-1 $495 $496 #
straight-curve $-1 -1 $-1 40 0 20 0 1 0 I I #
face $-1 -1 $-1 $497 $481 $21 $-1 $443 forward single #
straight-curve $-1 -1 $-1 40 40 0 0 0 -1 I I #
point $-1 -1 $-1 40 40 20 #
point $-1 -1 $-1 40 40 -20 #
edge $-1 -1 $-1 $381 -20 $455 20 $377 $498 forward @7 unknown #
vertex $-1 -1 $-1 $379 $499 #
point $-1 -1 $-1 -40 40 20 #
coedge $-1 -1 $-1 $395 $389 $385 $458 forward $382 $-1 #
edge $500 -1 $-1 $392 -20 $460 20 $385 $501 forward @7 unknown #
convexity-sys-attrib $-1 -1 $-1 $-1 $386 #
vertex $-1 -1 $-1 $399 $502 #
straight-curve $-1 -1 $-1 0 20 0 0 0 1 I I #
point $-1 -1 $-1 0 20 20 #
convexity-sys-attrib $-1 -1 $-1 $-1 $390 #
straight-curve $-1 -1 $-1 20 -20 0 -1 0 0 I I #
point $-1 -1 $-1 0 -20 0 #
convexity-sys-attrib $-1 -1 $-1 $-1 $399 #
straight-curve $-1 -1 $-1 20 20 0 1 0 0 I I #
convexity-sys-attrib $-1 -1 $-1 $402 $304 #
point $-1 -1 $-1 40 0 -20 #
loop $-1 -1 $-1 $-1 $471 $414 #
coedge $-1 -1 $-1 $492 $503 $417 $472 forward $470 $-1 #
edge $-1 -1 $-1 $424 1.5707963267948966 $257 3.1415926535897931 $471 $258 forward @7 unknown #
coedge $-1 -1 $-1 $504 $418 $503 $505 reversed $476 $-1 #
coedge $-1 -1 $-1 $418 $504 $419 $432 reversed $476 $-1 #
coedge $-1 -1 $-1 $429 $506 $247 $343 reversed $487 $-1 #
loop $-1 -1 $-1 $-1 $418 $494 #
edge $-1 -1 $-1 $489 -40 $355 -3.944304526105059e-031 $438 $490 forward @7 unknown #
face $-1 -1 $-1 $431 $421 $21 $-1 $447 reversed single #
coedge $-1 -1 $-1 $480 $422 $506 $482 forward $481 $-1 #
coedge $-1 -1 $-1 $422 $479 $426 $485 forward $481 $-1 #
loop $-1 -1 $-1 $-1 $422 $450 #
edge $-1 -1 $-1 $424 -3.5527136788005009e-015 $507 40 $506 $508 forward @7 unknown #
point $-1 -1 $-1 -3.5527136788005009e-015 -40 20 #
coedge $-1 -1 $-1 $427 $426 $486 $495 forward $428 $-1 #
edge $-1 -1 $-1 $507 -40 $268 -3.944304526105059e-031 $426 $449 forward @7 unknown #
coedge $-1 -1 $-1 $506 $429 $484 $495 reversed $487 $-1 #
loop $-1 -1 $-1 $-1 $475 $497 #
straight-curve $-1 -1 $-1 0 -40 -20 -1 0 0 I I #
vertex $-1 -1 $-1 $477 $509 #
straight-curve $-1 -1 $-1 -40 0 -20 0 1 0 I I #
coedge $-1 -1 $-1 $439 $438 $504 $510 reversed $415 $-1 #
coedge $-1 -1 $-1 $503 $471 $439 $359 forward $470 $-1 #
point $-1 -1 $-1 -40 -40 20 #
face $-1 -1 $-1 $440 $476 $21 $-1 $511 reversed single #
edge $-1 -1 $-1 $507 -20 $448 20 $484 $512 forward @7 unknown #
point $-1 -1 $-1 40 -40 -20 #
face $-1 -1 $-1 $478 $487 $21 $-1 $511 reversed single #
straight-curve $-1 -1 $-1 -40 40 0 0 0 -1 I I #
point $-1 -1 $-1 -40 40 -20 #
convexity-sys-attrib $-1 -1 $-1 $-1 $458 #
straight-curve $-1 -1 $-1 0 0 0 0 1 0 I I #
point $-1 -1 $-1 0 20 0 #
coedge $-1 -1 $-1 $471 $492 $473 $505 forward $470 $-1 #
coedge $-1 -1 $-1 $474 $473 $491 $510 forward $476 $-1 #
edge $-1 -1 $-1 $444 -40 $424 -3.5527136788005009e-015 $473 $508 forward @7 unknown #
coedge $-1 -1 $-1 $475 $486 $479 $482 reversed $487 $-1 #
vertex $-1 -1 $-1 $485 $513 #
straight-curve $-1 -1 $-1 0 -40 20 1 0 0 I I #
point $-1 -1 $-1 -40 -40 -20 #
edge $-1 -1 $-1 $444 -20 $489 20 $491 $514 forward @7 unknown #
plane-surface $-1 -1 $-1 0 -40 0 0 1 0 0 0 1 forward_v I I I I #
straight-curve $-1 -1 $-1 40 -40 0 0 0 -1 I I #
point $-1 -1 $-1 40 -40 20 #
straight-curve $-1 -1 $-1 -40 -40 0 0 0 -1 I I #
End-of-ACIS-data 