106 0 1 0           
body $-1 $1 $-1 $-1 #
lump $-1 $-1 $2 $0 #
shell $-1 $-1 $-1 $3 $1 #
face $-1 $4 $5 $2 $-1 $6 forward single #
face $-1 $7 $8 $2 $-1 $9 forward single #
loop $-1 $-1 $10 $3 #
plane-surface $-1 20 20 10 0 -1 0 0 0 -1 0 I I I I #
face $-1 $11 $12 $2 $-1 $13 forward single #
loop $-1 $-1 $14 $4 #
plane-surface $-1 20 0 0 0 0 1 1 0 0 0 I I I I #
coedge $-1 $15 $16 $17 $18 1 $5 $-1 #
face $-1 $19 $20 $2 $-1 $21 forward single #
loop $-1 $-1 $22 $7 #
plane-surface $-1 20 -20 10 0 1 0 0 0 1 0 I I I I #
coedge $-1 $23 $24 $25 $26 1 $8 $-1 #
coedge $-1 $27 $10 $28 $29 1 $5 $-1 #
coedge $-1 $10 $27 $23 $30 0 $5 $-1 #
coedge $-1 $25 $31 $10 $18 0 $32 $-1 #
edge $-1 $33 $34 $17 $35 0 #
face $-1 $36 $37 $2 $-1 $38 forward single #
loop $-1 $-1 $39 $11 #
plane-surface $-1 0 0 10 1 0 0 0 0 -1 0 I I I I #
coedge $-1 $40 $41 $42 $43 1 $12 $-1 #
coedge $-1 $44 $14 $16 $30 1 $8 $-1 #
coedge $-1 $14 $44 $40 $45 1 $8 $-1 #
coedge $-1 $42 $17 $14 $26 0 $32 $-1 #
edge $-1 $34 $46 $25 $47 0 #
coedge $-1 $16 $15 $39 $48 0 $5 $-1 #
coedge $-1 $49 $50 $15 $29 0 $37 $-1 #
edge $-1 $51 $33 $28 $52 0 #
edge $-1 $53 $34 $16 $54 0 #
coedge $-1 $17 $42 $49 $55 1 $32 $-1 #
loop $-1 $56 $42 $36 #
vertex $-1 $18 $57 #
vertex $-1 $26 $58 #
straight-curve $-1 34.641016151377549 20 0 0 0 -1 I I #
face $-1 $59 $32 $2 $-1 $60 forward single #
loop $-1 $-1 $61 $19 #
plane-surface $-1 0 0 20 0 0 1 1 0 0 0 I I I I #
coedge $-1 $62 $63 $27 $48 1 $20 $-1 #
coedge $-1 $64 $22 $24 $45 0 $12 $-1 #
coedge $-1 $22 $64 $61 $65 1 $12 $-1 #
coedge $-1 $31 $25 $22 $43 0 $32 $-1 #
edge $-1 $46 $66 $42 $67 0 #
coedge $-1 $24 $23 $63 $68 1 $8 $-1 #
edge $-1 $46 $69 $40 $70 0 #
vertex $-1 $26 $71 #
ellipse-curve $-1 0 0 0 0 0 -1 40 0 0 1 I I #
edge $-1 $51 $53 $27 $72 0 #
coedge $-1 $61 $28 $31 $55 0 $37 $-1 #
coedge $-1 $28 $61 $62 $73 0 $37 $-1 #
vertex $-1 $73 $74 #
straight-curve $-1 10 20 20 1 0 0 I I #
vertex $-1 $30 $75 #
straight-curve $-1 20 20 0 1 0 0 I I #
edge $-1 $33 $66 $49 $76 0 #
loop $-1 $-1 $77 $36 #
point $-1 34.641016151377549 20 20 #
point $-1 34.641016151377549 20 0 #
face $-1 $-1 $78 $2 $-1 $79 forward single #
cone-surface $-1 0 0 0 0 0 1 40 0 0 1 I I 0 1 0 I I I I #
coedge $-1 $50 $49 $41 $65 0 $37 $-1 #
coedge $-1 $80 $39 $50 $73 1 $20 $-1 #
coedge $-1 $39 $80 $44 $68 0 $20 $-1 #
coedge $-1 $41 $40 $80 $81 1 $12 $-1 #
edge $-1 $66 $82 $61 $83 0 #
vertex $-1 $55 $84 #
straight-curve $-1 34.641016151377549 -20 0 0 0 1 I I #
edge $-1 $69 $53 $63 $85 0 #
vertex $-1 $68 $86 #
straight-curve $-1 20 -20 0 -1 0 0 I I #
point $-1 34.641016151377549 -20 0 #
straight-curve $-1 0 20 10 0 0 -1 I I #
edge $-1 $82 $51 $50 $87 0 #
point $-1 0 20 20 #
point $-1 0 20 0 #
ellipse-curve $-1 0 0 20 0 0 1 40 0 0 1 I I #
coedge $-1 $77 $77 $88 $89 1 $56 $-1 #
loop $-1 $-1 $88 $59 #
plane-surface $-1 0 0 -20 0 0 -1 -1 0 0 0 I I I I #
coedge $-1 $63 $62 $64 $81 0 $20 $-1 #
edge $-1 $82 $69 $80 $90 0 #
vertex $-1 $65 $91 #
straight-curve $-1 10 -20 20 -1 0 0 I I #
point $-1 34.641016151377549 -20 20 #
straight-curve $-1 0 0 0 0 1 0 I I #
point $-1 0 -20 0 #
straight-curve $-1 0 0 20 0 1 0 I I #
coedge $-1 $88 $88 $77 $89 0 $78 $-1 #
edge $-1 $92 $92 $88 $93 0 #
straight-curve $-1 0 -20 10 0 0 -1 I I #
point $-1 0 -20 20 #
vertex $-1 $89 $94 #
ellipse-curve $-1 0 0 -20 0 0 -1 40 0 0 1 I I #
point $-1 40 0 -20 #
End-of-ACIS-data 