600 0 1 0           
81 GICL ACIS Healer - Source: /gicl/data5/repository/Heriot_Watt/ex27/ex27.sat - 6 0 18 ACIS 6.0.3 Solaris 24 Sat Apr 13 23:38:44 2002 
1 9.999999999999999547e-07 1.000000000000000036e-10 
body $-1 $1 $-1 $-1 #
lump $-1 $-1 $2 $0 #
shell $-1 $-1 $-1 $3 $-1 $1 #
face $-1 $4 $5 $2 $-1 $6 forward single #
face $-1 $7 $8 $2 $-1 $9 forward single #
loop $-1 $-1 $10 $3 #
plane-surface $-1 20 20 10 0 -1 0 0 0 -1 forward_v I I I I #
face $-1 $11 $12 $2 $-1 $13 forward single #
loop $-1 $-1 $14 $4 #
plane-surface $-1 20 0 0 0 0 1 1 0 0 forward_v I I I I #
coedge $-1 $15 $16 $17 $18 reversed $5 $-1 #
face $-1 $19 $20 $2 $-1 $21 forward single #
loop $-1 $-1 $22 $7 #
plane-surface $-1 20 -20 10 0 1 0 0 0 1 forward_v I I I I #
coedge $-1 $23 $24 $25 $26 reversed $8 $-1 #
coedge $-1 $27 $10 $28 $29 reversed $5 $-1 #
coedge $-1 $10 $27 $23 $30 forward $5 $-1 #
coedge $-1 $25 $31 $10 $18 forward $32 $-1 #
edge $-1 $33 -20 $34 0 $17 $35 forward 7 unknown #
face $-1 $36 $37 $2 $-1 $38 forward single #
loop $-1 $-1 $39 $11 #
plane-surface $-1 0 0 10 1 0 0 0 0 -1 forward_v I I I I #
coedge $-1 $40 $41 $42 $43 reversed $12 $-1 #
coedge $-1 $44 $14 $16 $30 reversed $8 $-1 #
coedge $-1 $14 $44 $40 $45 reversed $8 $-1 #
coedge $-1 $42 $17 $14 $26 forward $32 $-1 #
edge $-1 $34 -0.5235987755982988157 $46 0.5235987755982988157 $25 $47 forward 7 unknown #
coedge $-1 $16 $15 $39 $48 forward $5 $-1 #
coedge $-1 $49 $50 $15 $29 forward $37 $-1 #
edge $-1 $51 -10 $33 24.64101615137754919 $28 $52 forward 7 unknown #
edge $-1 $53 -20 $34 14.64101615137754919 $16 $54 forward 7 unknown #
coedge $-1 $17 $42 $49 $55 reversed $32 $-1 #
loop $-1 $56 $42 $36 #
vertex $-1 $18 $57 #
vertex $-1 $26 $58 #
straight-curve $-1 34.64101615137754919 20 0 0 0 -1 I I #
face $-1 $59 $32 $2 $-1 $60 forward single #
loop $-1 $-1 $61 $19 #
plane-surface $-1 0 0 20 0 0 1 1 0 0 forward_v I I I I #
coedge $-1 $62 $63 $27 $48 reversed $20 $-1 #
coedge $-1 $64 $22 $24 $45 forward $12 $-1 #
coedge $-1 $22 $64 $61 $65 reversed $12 $-1 #
coedge $-1 $31 $25 $22 $43 forward $32 $-1 #
edge $-1 $46 0 $66 20 $42 $67 forward 7 unknown #
coedge $-1 $24 $23 $63 $68 reversed $8 $-1 #
edge $-1 $46 -14.64101615137754919 $69 20 $40 $70 forward 7 unknown #
vertex $-1 $26 $71 #
ellipse-curve $-1 0 0 0 0 0 -1 40 0 0 1 I I #
edge $-1 $51 -10 $53 10 $27 $72 forward 7 unknown #
coedge $-1 $61 $28 $31 $55 forward $37 $-1 #
coedge $-1 $28 $61 $62 $73 forward $37 $-1 #
vertex $-1 $73 $74 #
straight-curve $-1 10 20 20 1 0 0 I I #
vertex $-1 $30 $75 #
straight-curve $-1 20 20 0 1 0 0 I I #
edge $-1 $33 0.5235987755982988157 $66 5.759586531581287083 $49 $76 forward 7 unknown #
loop $-1 $-1 $77 $36 #
point $-1 34.64101615137754919 20 20 #
point $-1 34.64101615137754919 20 0 #
face $-1 $-1 $78 $2 $-1 $79 forward single #
cone-surface $-1 0 0 0 0 0 1 40 0 0 1 I I 0 1 40 forward I I I I #
coedge $-1 $50 $49 $41 $65 forward $37 $-1 #
coedge $-1 $80 $39 $50 $73 reversed $20 $-1 #
coedge $-1 $39 $80 $44 $68 forward $20 $-1 #
coedge $-1 $41 $40 $80 $81 reversed $12 $-1 #
edge $-1 $66 -24.64101615137754919 $82 10 $61 $83 forward 7 unknown #
vertex $-1 $55 $84 #
straight-curve $-1 34.64101615137754919 -20 0 0 0 1 I I #
edge $-1 $69 -20 $53 20 $63 $85 forward 7 unknown #
vertex $-1 $68 $86 #
straight-curve $-1 20 -20 0 -1 0 0 I I #
point $-1 34.64101615137754919 -20 0 #
straight-curve $-1 0 20 10 0 0 -1 I I #
edge $-1 $82 -20 $51 20 $50 $87 forward 7 unknown #
point $-1 0 20 20 #
point $-1 0 20 0 #
ellipse-curve $-1 0 0 20 0 0 1 40 0 0 1 I I #
coedge $-1 $77 $77 $88 $89 reversed $56 $-1 #
loop $-1 $-1 $88 $59 #
plane-surface $-1 0 0 -20 0 0 -1 -1 0 0 forward_v I I I I #
coedge $-1 $63 $62 $64 $81 forward $20 $-1 #
edge $-1 $82 -10 $69 10 $80 $90 forward 7 unknown #
vertex $-1 $65 $91 #
straight-curve $-1 10 -20 20 -1 0 0 I I #
point $-1 34.64101615137754919 -20 20 #
straight-curve $-1 0 0 0 0 1 0 I I #
point $-1 0 -20 0 #
straight-curve $-1 0 0 20 0 1 0 I I #
coedge $-1 $88 $88 $77 $89 forward $78 $-1 #
edge $-1 $92 0 $92 6.283185307179586232 $88 $93 forward 7 unknown #
straight-curve $-1 0 -20 10 0 0 -1 I I #
point $-1 0 -20 20 #
vertex $-1 $89 $94 #
ellipse-curve $-1 0 0 -20 0 0 -1 40 0 0 1 I I #
point $-1 40 0 -20 #
End-of-ACIS-data 