104 116 0 0                             
body $-1 $1 $-1 $2 #
lump $-1 $-1 $3 $0 #
transform $-1 1 0 0 0 1 0 0 0 1 0 0 0 1 0 0 0 #
shell $-1 $-1 $-1 $4 $1 #
face $5 $6 $7 $3 $-1 $8 1 #
face_name-twe-attrib $-1 $-1 $-1 $4 1 #
face $9 $10 $11 $3 $-1 $12 0 #
loop $13 $14 $15 $4 #
plane-surface $16 0 0 0 0 -1 0 0 0 -1 0 #
face_name-twe-attrib $-1 $-1 $-1 $6 2 #
face $17 $18 $19 $3 $-1 $20 0 #
loop $21 $22 $23 $6 #
plane-surface $24 0 -0.25 0 0 -1 0 0 0 -1 0 #
loop_type-twe-attrib $-1 $-1 $-1 $7 0 #
loop $25 $-1 $26 $4 #
coedge $-1 $15 $15 $27 $28 1 $7 $-1 #
surf-twe-attrib $-1 $-1 $-1 $8 4 #
face_name-twe-attrib $-1 $-1 $-1 $10 3 #
face $29 $30 $31 $3 $-1 $32 0 #
loop $33 $34 $35 $10 #
plane-surface $36 0 -0.5 0 0 -1 0 0 0 -1 0 #
loop_type-twe-attrib $-1 $-1 $-1 $11 1 #
loop $37 $-1 $38 $6 #
coedge $-1 $23 $23 $39 $40 1 $11 $-1 #
surf-twe-attrib $-1 $-1 $-1 $12 6 #
loop_type-twe-attrib $-1 $-1 $-1 $14 1 #
coedge $-1 $26 $26 $41 $42 1 $14 $-1 #
coedge $-1 $27 $27 $15 $28 0 $31 $-1 #
edge $43 $44 $44 $27 $45 0 #
face_name-twe-attrib $-1 $-1 $-1 $18 4 #
face $46 $47 $48 $3 $-1 $49 0 #
loop $50 $51 $27 $18 #
cone-surface $52 0 -0.03 0 0 -1 0 -0.5 0 0 1 0.707106781186548 0.707106781186547 0 #
loop_type-twe-attrib $-1 $-1 $-1 $19 0 #
loop $53 $-1 $54 $10 #
coedge $-1 $35 $35 $55 $56 0 $19 $-1 #
surf-twe-attrib $-1 $-1 $-1 $20 10 #
loop_type-twe-attrib $-1 $-1 $-1 $22 0 #
coedge $-1 $38 $38 $57 $58 0 $22 $-1 #
coedge $-1 $39 $39 $23 $40 0 $59 $-1 #
edge $60 $61 $61 $39 $62 0 #
coedge $-1 $41 $41 $26 $42 0 $63 $-1 #
edge $64 $65 $65 $41 $66 0 #
edge_name-twe-attrib $-1 $-1 $-1 $28 1 8448 #
vertex $-1 $28 $67 #
ellipse-curve $68 0 0 0 0 -1 0 -0.47 0 0 1 #
face_name-twe-attrib $-1 $-1 $-1 $30 5 #
face $69 $70 $59 $3 $-1 $71 0 #
loop $72 $73 $74 $30 #
cone-surface $75 0 0.025 0 0 -1 0 -0.5 0 0 1 0 1 0 #
loop_type-twe-attrib $-1 $-1 $-1 $31 0 #
loop $76 $-1 $77 $18 #
surf-twe-attrib $-1 $-1 $-1 $32 18 #
loop_type-twe-attrib $-1 $-1 $-1 $34 1 #
coedge $-1 $54 $54 $78 $79 0 $34 $-1 #
coedge $-1 $55 $55 $35 $56 1 $80 $-1 #
edge $81 $82 $82 $55 $83 0 #
coedge $-1 $57 $57 $38 $58 1 $73 $-1 #
edge $84 $85 $85 $57 $86 0 #
loop $87 $80 $39 $47 #
edge_name-twe-attrib $-1 $-1 $-1 $40 4 4608 #
vertex $-1 $40 $88 #
ellipse-curve $89 0 -0.25 0 0 -1 0 -0.25 0 0 1 #
loop $90 $91 $41 $70 #
edge_name-twe-attrib $-1 $-1 $-1 $42 6 8704 #
vertex $-1 $42 $92 #
ellipse-curve $93 0 0 0 0 1 0 0.125 0 0 1 #
point $-1 -0.47 0 0 #
cur-twe-attrib $-1 $-1 $-1 $45 28 #
face_name-twe-attrib $-1 $-1 $-1 $47 6 #
face $94 $-1 $63 $3 $-1 $95 1 #
cone-surface $96 0 0.025 0 0 -1 0 -0.25 0 0 1 0 1 0 #
loop_type-twe-attrib $-1 $-1 $-1 $48 0 #
loop $97 $-1 $57 $30 #
coedge $-1 $74 $74 $77 $98 0 $48 $-1 #
surf-twe-attrib $-1 $-1 $-1 $49 30 #
loop_type-twe-attrib $-1 $-1 $-1 $51 1 #
coedge $-1 $77 $77 $74 $98 1 $51 $-1 #
coedge $-1 $78 $78 $54 $79 1 $91 $-1 #
edge $99 $100 $100 $78 $101 0 #
loop $102 $-1 $55 $47 #
edge_name-twe-attrib $-1 $-1 $-1 $56 5 8704 #
vertex $-1 $56 $103 #
ellipse-curve $104 0 -0.5 0 0 -1 0 -0.25 0 0 1 #
edge_name-twe-attrib $-1 $-1 $-1 $58 3 8704 #
vertex $-1 $58 $105 #
ellipse-curve $106 0 -0.25 0 0 -1 0 -0.5 0 0 1 #
loop_type-twe-attrib $-1 $-1 $-1 $59 0 #
point $-1 -0.25 -0.25 0 #
cur-twe-attrib $-1 $-1 $-1 $62 40 #
loop_type-twe-attrib $-1 $-1 $-1 $63 0 #
loop $107 $-1 $78 $70 #
point $-1 0.125 0 0 #
cur-twe-attrib $-1 $-1 $-1 $66 42 #
face_name-twe-attrib $-1 $-1 $-1 $70 7 #
cone-surface $108 0 0 0 0 -1 0 0.125 0 0 1 0 1 0 #
surf-twe-attrib $-1 $-1 $-1 $71 47 #
loop_type-twe-attrib $-1 $-1 $-1 $73 1 #
edge $109 $110 $110 $74 $111 0 #
edge_name-twe-attrib $-1 $-1 $-1 $79 7 8704 #
vertex $-1 $79 $112 #
ellipse-curve $113 0 -0.5 0 0 1 0 -0.125 0 0 1 #
loop_type-twe-attrib $-1 $-1 $-1 $80 1 #
point $-1 0.25 -0.5 3.06161646971843e-17 #
cur-twe-attrib $-1 $-1 $-1 $83 56 #
point $-1 0.5 -0.25 6.12323293943686e-17 #
cur-twe-attrib $-1 $-1 $-1 $86 58 #
loop_type-twe-attrib $-1 $-1 $-1 $91 1 #
surf-twe-attrib $-1 $-1 $-1 $95 70 #
edge_name-twe-attrib $-1 $-1 $-1 $98 2 8448 #
vertex $-1 $98 $114 #
ellipse-curve $115 0 -0.03 0 0 -1 0 -0.5 0 0 1 #
point $-1 0.125 -0.5 0 #
cur-twe-attrib $-1 $-1 $-1 $101 79 #
point $-1 0.5 -0.03 -6.12323293943686e-17 #
cur-twe-attrib $-1 $-1 $-1 $111 98 #
