600 0 2 0           
24 FBMach with ACIS - 6.0.3 13 ACIS 6.0.3 NT 24 Wed May 23 21:58:30 2001 
1 9.9999999999999995e-007 1e-010 
body $2 $3 $-1 $4 #
bdycol-kcp $-1 1 5 $5 $6 $7 $8 $9 #
model_id-kcp-attrib $-1 $-1 $-1 $0 1 990669510 50 691142657 1 #
lump $-1 $-1 $10 $0 #
transform $-1 1 0 0 0 1 0 0 0 1 0 0 0 1 no_rotate no_reflect no_shear #
body $11 $12 $-1 $13 #
body $14 $15 $-1 $16 #
body $17 $18 $-1 $19 #
body $20 $21 $-1 $22 #
body $23 $24 $-1 $25 #
shell $-1 $-1 $-1 $26 $-1 $3 #
model_id-kcp-attrib $-1 $-1 $-1 $5 1 990669510 50 691142658 1 #
lump $-1 $-1 $27 $5 #
transform $-1 1 0 0 0 1 0 0 0 1 0 -0.25 0 1 no_rotate no_reflect no_shear #
rgb_color-st-attrib $-1 $28 $-1 $6 1 1 0.5 #
lump $-1 $-1 $29 $6 #
transform $-1 -1 0 0 0 0 1 0 1 0 0 -0.014999999999999999 0 1 rotate no_reflect no_shear #
rgb_color-st-attrib $-1 $30 $-1 $7 0.5 1 1 #
lump $-1 $-1 $31 $7 #
transform $-1 1 0 0 0 -3.8285889215894375e-016 1 0 -1 -3.8285889215894375e-016 0 -0.24999999999999994 -9.5714723039735914e-017 1 rotate no_reflect no_shear #
rgb_color-st-attrib $-1 $32 $-1 $8 0.5 1 1 #
lump $-1 $-1 $33 $8 #
transform $-1 1 0 0 0 1 0 0 0 1 0 -0.25 0 1 no_rotate no_reflect no_shear #
rgb_color-st-attrib $-1 $34 $-1 $9 1 0.5 1 #
lump $-1 $-1 $35 $9 #
transform $-1 1 0 0 0 1 0 0 0 1 0 -0.25 0 1 no_rotate no_reflect no_shear #
face $36 $37 $38 $10 $-1 $39 reversed single #
shell $-1 $-1 $-1 $40 $-1 $12 #
model_id-kcp-attrib $-1 $-1 $14 $6 1 990669510 70 692453379 1 #
shell $-1 $-1 $-1 $41 $-1 $15 #
model_id-kcp-attrib $-1 $-1 $17 $7 1 990669510 90 693764100 1 #
shell $-1 $-1 $-1 $42 $-1 $18 #
model_id-kcp-attrib $-1 $-1 $20 $8 1 990669510 130 696385541 1 #
shell $-1 $-1 $-1 $43 $-1 $21 #
model_id-kcp-attrib $-1 $-1 $23 $9 1 990669510 220 702283782 1 #
shell $-1 $-1 $-1 $44 $-1 $24 #
model_id-kcp-attrib $-1 $45 $-1 $26 1 990669510 50 691142657 9 #
face $46 $47 $48 $10 $-1 $49 forward single #
loop $50 $51 $52 $26 #
plane-surface $53 0 0 0 0 -1 0 0 0 -1 forward_v I I I I #
face $-1 $54 $55 $27 $-1 $56 forward single #
face $-1 $57 $58 $29 $-1 $59 reversed single #
face $-1 $60 $61 $31 $-1 $62 forward single #
face $-1 $63 $64 $33 $-1 $65 reversed single #
face $-1 $66 $67 $35 $-1 $68 forward single #
model_id-kcp-attrib $-1 $69 $36 $26 1 990669510 50 691142657 2 #
model_id-kcp-attrib $-1 $70 $-1 $37 1 990669510 50 691142657 3 #
face $71 $72 $73 $10 $-1 $74 forward single #
loop $75 $76 $77 $37 #
plane-surface $78 0 -0.25 0 0 -1 0 0 0 -1 forward_v I I I I #
loop_type-twe-attrib $-1 $-1 $-1 $38 0 #
loop $79 $-1 $80 $26 #
coedge $-1 $52 $52 $81 $82 reversed $38 $-1 #
surf-twe-attrib $-1 $-1 $-1 $39 4 #
face $-1 $83 $84 $27 $-1 $85 reversed single #
loop $-1 $-1 $86 $40 #
plane-surface $-1 0 0 0.5 0 0 1 1 0 0 forward_v I I I I #
face $-1 $87 $88 $29 $-1 $89 forward single #
loop $-1 $90 $91 $41 #
cone-surface $-1 0 0 0.23499999999999965 0 0 1 0.25 0 0 1 I I -0.70710678118654802 0.70710678118654713 0.25 forward I I I I #
face $-1 $92 $93 $31 $-1 $94 forward single #
loop $-1 $95 $96 $42 #
cone-surface $-1 0 0 0 0 0 1 0.125 0 0 1 I I 0 1 0.125 forward I I I I #
face $-1 $97 $98 $33 $-1 $65 reversed single #
loop $-1 $-1 $99 $43 #
cone-surface $-1 1.8745759022776718e-033 0.25 0 0 1 0 -0.5 0 0 1 I I 0 1 0.5 forward I I I I #
face $-1 $100 $101 $35 $-1 $102 forward single #
loop $-1 $103 $104 $44 #
cone-surface $-1 0 0 0 0 -1 0 -0.25 0 0 1 I I 0 -1 0.25 forward I I I I #
face_name-twe-attrib $-1 $-1 $45 $26 1 #
face_name-twe-attrib $-1 $-1 $46 $37 2 #
model_id-kcp-attrib $-1 $105 $-1 $47 1 990669510 50 691142657 10 #
face $106 $107 $108 $10 $-1 $109 forward single #
loop $110 $111 $112 $47 #
plane-surface $113 0 -0.5 0 0 -1 0 0 0 -1 forward_v I I I I #
loop_type-twe-attrib $-1 $-1 $-1 $48 1 #
loop $114 $-1 $115 $37 #
coedge $-1 $77 $77 $116 $117 reversed $48 $-1 #
surf-twe-attrib $-1 $-1 $-1 $49 6 #
model_id-kcp-attrib $-1 $118 $-1 $51 1 990669510 50 691142657 13 #
coedge $-1 $80 $80 $119 $120 reversed $51 $-1 #
coedge $-1 $81 $81 $52 $82 forward $108 $-1 #
edge $121 $122 0 $122 6.2831853071795862 $81 $123 forward 7 unknown #
face $124 $125 $126 $27 $-1 $127 reversed single #
loop $-1 $-1 $128 $54 #
plane-surface $-1 0 0 -0.5 0 0 1 1 0 0 forward_v I I I I #
coedge $-1 $129 $130 $131 $132 forward $55 $-1 #
face $-1 $-1 $133 $29 $-1 $134 forward single #
loop $-1 $135 $136 $57 #
cone-surface $-1 0 0 0 0 0 1 0.5 0 0 1 I I 0 1 0.5 forward I I I I #
loop $-1 $-1 $137 $41 #
coedge $-1 $91 $91 $138 $139 reversed $58 $-1 #
face $-1 $-1 $140 $31 $-1 $141 forward single #
loop $-1 $-1 $142 $60 #
plane-surface $-1 0 0 -0.25 0 0 -1 -1 0 0 forward_v I I I I #
loop $-1 $-1 $143 $42 #
coedge $-1 $96 $96 $142 $144 reversed $61 $-1 #
face $-1 $145 $146 $33 $-1 $65 reversed single #
loop $-1 $-1 $147 $63 #
coedge $-1 $148 $149 $150 $151 reversed $64 $-1 #
face $-1 $152 $153 $35 $-1 $154 reversed single #
loop $-1 $155 $156 $66 #
cone-surface $-1 1.8745759022776718e-033 0 0 0 -1 0 -0.5 0 0 1 I I 0 1 0.5 forward I I I I #
loop $-1 $-1 $157 $44 #
coedge $-1 $104 $104 $158 $159 forward $67 $-1 #
model_id-kcp-attrib $-1 $160 $71 $47 1 990669510 50 691142657 4 #
model_id-kcp-attrib $-1 $161 $-1 $72 1 990669510 50 691142657 5 #
face $162 $163 $164 $10 $-1 $165 forward single #
loop $166 $167 $81 $72 #
cone-surface $168 0 -0.029999999999999999 0 0 -1 0 -0.5 0 0 1 I I 0.70710678118654802 0.70710678118654702 0.5 forward I I I I #
loop_type-twe-attrib $-1 $-1 $-1 $73 0 #
loop $169 $-1 $170 $47 #
coedge $-1 $112 $112 $171 $172 forward $73 $-1 #
surf-twe-attrib $-1 $-1 $-1 $74 10 #
loop_type-twe-attrib $-1 $-1 $-1 $76 0 #
coedge $-1 $115 $115 $173 $174 forward $76 $-1 #
coedge $-1 $116 $116 $77 $117 forward $175 $-1 #
edge $176 $177 0 $177 6.2831853071795862 $116 $178 forward 7 unknown #
loop_type-twe-attrib $-1 $-1 $79 $51 1 #
coedge $-1 $119 $119 $80 $120 forward $179 $-1 #
edge $180 $181 0 $181 6.2831853071795862 $119 $182 forward 7 unknown #
attrib_edge_convexity-kcp-attrib $-1 $183 $-1 $82 1 #
vertex $-1 $82 $184 #
ellipse-curve $185 0 0 0 0 -1 0 -0.46999999999999997 0 0 1 I I #
model_id-kcp-attrib $-1 $-1 $-1 $83 1 990669510 50 691142658 3 #
face $-1 $186 $187 $27 $-1 $188 reversed single #
loop $-1 $-1 $189 $83 #
plane-surface $-1 0 -0.25 0 0 1 0 0 0 1 forward_v I I I I #
coedge $-1 $190 $191 $192 $193 forward $84 $-1 #
coedge $-1 $194 $86 $195 $196 forward $55 $-1 #
coedge $-1 $86 $194 $197 $198 forward $55 $-1 #
coedge $-1 $199 $200 $86 $132 reversed $201 $-1 #
edge $-1 $202 -0.25 $203 0.25 $131 $204 forward 7 unknown #
loop $-1 $205 $138 $87 #
plane-surface $-1 0 0 0.014999999999999999 0 0 1 1 0 0 forward_v I I I I #
loop $-1 $-1 $206 $57 #
coedge $-1 $136 $136 $137 $207 reversed $88 $-1 #
coedge $-1 $137 $137 $136 $207 forward $90 $-1 #
coedge $-1 $138 $138 $91 $139 forward $133 $-1 #
edge $-1 $208 -3.1415926535897931 $208 3.1415926535897931 $138 $209 forward 7 unknown #
loop $-1 $-1 $210 $92 #
plane-surface $-1 0 0 0.25 0 0 1 1 0 0 forward_v I I I I #
coedge $-1 $142 $142 $96 $144 forward $93 $-1 #
coedge $-1 $143 $143 $210 $211 reversed $95 $-1 #
edge $-1 $212 0 $212 6.2831853071795862 $142 $213 forward 7 unknown #
face $-1 $214 $215 $33 $-1 $65 reversed single #
loop $-1 $-1 $216 $97 #
coedge $-1 $217 $218 $219 $220 reversed $98 $-1 #
coedge $-1 $221 $99 $222 $223 forward $64 $-1 #
coedge $-1 $99 $221 $224 $225 reversed $64 $-1 #
coedge $-1 $226 $227 $99 $151 forward $228 $-1 #
edge $-1 $229 0 $230 1.5707963267948966 $150 $231 forward 7 unknown #
face $-1 $-1 $232 $35 $-1 $233 forward single #
loop $-1 $234 $235 $100 #
plane-surface $-1 0.022727272727272721 -0.25 2.2020803215406346e-018 0 1 0 0 0 1 forward_v I I I I #
loop $-1 $-1 $236 $66 #
coedge $-1 $156 $156 $235 $237 forward $101 $-1 #
coedge $-1 $157 $157 $238 $239 reversed $103 $-1 #
coedge $-1 $158 $158 $104 $159 reversed $234 $-1 #
edge $-1 $240 0 $240 6.2831853071795862 $104 $241 forward 7 unknown #
face_name-twe-attrib $-1 $-1 $105 $47 3 #
face_name-twe-attrib $-1 $-1 $106 $72 4 #
model_id-kcp-attrib $-1 $242 $-1 $107 1 990669510 50 691142657 6 #
face $243 $244 $175 $10 $-1 $245 forward single #
loop $246 $247 $248 $107 #
cone-surface $249 0 0.025000000000000001 0 0 -1 0 -0.5 0 0 1 I I 0 1 0.5 forward I I I I #
loop_type-twe-attrib $-1 $-1 $-1 $108 0 #
loop $250 $-1 $251 $72 #
surf-twe-attrib $-1 $-1 $-1 $109 18 #
model_id-kcp-attrib $-1 $252 $-1 $111 1 990669510 50 691142657 14 #
coedge $-1 $170 $170 $253 $254 forward $111 $-1 #
coedge $-1 $171 $171 $112 $172 reversed $255 $-1 #
edge $256 $257 -3.1415926535897931 $257 3.1415926535897931 $171 $258 forward 7 unknown #
coedge $-1 $173 $173 $115 $174 reversed $247 $-1 #
edge $259 $260 -3.1415926535897931 $260 3.1415926535897931 $173 $261 forward 7 unknown #
loop $262 $255 $116 $163 #
edge_name-twe-attrib $-1 $-1 $-1 $117 4 4608 #
vertex $-1 $117 $263 #
ellipse-curve $264 0 -0.25 0 0 -1 0 -0.25 0 0 1 I I #
loop $265 $266 $119 $244 #
attrib_edge_convexity-kcp-attrib $-1 $267 $-1 $120 1 #
vertex $268 $120 $269 #
ellipse-curve $270 0 0 0 0 1 0 0.125 0 0 1 I I #
convexity-sys-attrib $-1 $271 $121 $82 #
point $-1 -0.46999999999999997 0 0 #
cur-twe-attrib $-1 $-1 $-1 $123 28 #
face $272 $273 $274 $27 $-1 $275 reversed single #
loop $-1 $-1 $276 $125 #
plane-surface $-1 -0.5 0 0 1 0 0 0 0 -1 forward_v I I I I #
coedge $-1 $277 $197 $278 $279 forward $126 $-1 #
coedge $-1 $280 $128 $277 $281 forward $84 $-1 #
coedge $-1 $128 $280 $282 $283 forward $84 $-1 #
coedge $-1 $200 $199 $128 $193 reversed $201 $-1 #
edge $-1 $284 -0.25 $285 0.25 $192 $286 forward 7 unknown #
coedge $-1 $130 $129 $287 $288 forward $55 $-1 #
coedge $-1 $289 $290 $129 $196 reversed $274 $-1 #
edge $-1 $203 -0.5 $291 0.5 $195 $292 forward 7 unknown #
coedge $-1 $189 $293 $130 $198 reversed $126 $-1 #
edge $-1 $294 -0.5 $202 0.5 $197 $295 forward 7 unknown #
coedge $-1 $192 $131 $293 $296 forward $201 $-1 #
coedge $-1 $131 $192 $289 $297 reversed $201 $-1 #
loop $-1 $-1 $199 $273 #
vertex $-1 $132 $298 #
vertex $-1 $132 $299 #
straight-curve $-1 0.5 0 0.5 0 1 0 I I #
loop $-1 $-1 $300 $87 #
coedge $-1 $206 $206 $300 $301 reversed $135 $-1 #
edge $-1 $302 0 $302 6.2831853071795862 $136 $303 forward 7 unknown #
vertex $-1 $139 $304 #
ellipse-curve $-1 0 0 0.015000000000000013 0 0 -1 0.46999999999999997 0 0 1 I I #
coedge $-1 $210 $210 $143 $211 forward $140 $-1 #
edge $-1 $305 0 $305 6.2831853071795862 $210 $306 forward 7 unknown #
vertex $-1 $144 $307 #
ellipse-curve $-1 0 0 -0.25 0 0 -1 0.125 0 0 1 I I #
face $-1 $308 $309 $33 $-1 $310 forward single #
loop $-1 $-1 $311 $145 #
coedge $-1 $312 $313 $311 $314 forward $146 $-1 #
coedge $-1 $315 $147 $316 $317 reversed $98 $-1 #
coedge $-1 $147 $315 $149 $225 forward $98 $-1 #
coedge $-1 $318 $319 $147 $220 forward $320 $-1 #
edge $-1 $321 -3.1415926535897931 $322 -1.5707963267948966 $219 $323 forward 7 unknown #
coedge $-1 $149 $148 $324 $325 reversed $64 $-1 #
coedge $-1 $313 $312 $326 $223 reversed $146 $-1 #
edge $-1 $229 -0.5 $327 0 $326 $328 forward 7 unknown #
coedge $-1 $329 $330 $331 $225 forward $332 $-1 #
edge $-1 $230 -0.5 $322 0 $224 $333 forward 7 unknown #
coedge $-1 $227 $150 $330 $334 reversed $228 $-1 #
coedge $-1 $150 $226 $335 $336 forward $228 $-1 #
loop $-1 $-1 $150 $337 #
vertex $-1 $338 $339 #
vertex $-1 $340 $341 #
ellipse-curve $-1 1.8745759022776718e-033 -0.25 0 0 1 0 -0.5 0 0 1 I I #
loop $-1 $342 $343 $152 #
plane-surface $-1 0.022727272727272721 0 2.2020803215406346e-018 0 1 0 0 0 1 forward_v I I I I #
loop $-1 $-1 $158 $100 #
coedge $-1 $235 $235 $156 $237 reversed $153 $-1 #
coedge $-1 $236 $236 $343 $344 reversed $155 $-1 #
edge $-1 $345 -3.1415926535897931 $345 3.1415926535897931 $156 $346 forward 7 unknown #
coedge $-1 $238 $238 $157 $239 forward $342 $-1 #
edge $-1 $347 0 $347 6.2831853071795862 $157 $348 forward 7 unknown #
vertex $-1 $159 $349 #
ellipse-curve $-1 0 -0.25 0 0 -1 0 -0.25 0 0 1 I I #
face_name-twe-attrib $-1 $-1 $162 $107 5 #
model_id-kcp-attrib $-1 $350 $-1 $163 1 990669510 50 691142657 7 #
face $351 $-1 $179 $10 $-1 $352 reversed single #
cone-surface $353 0 0.025000000000000001 0 0 -1 0 -0.25 0 0 1 I I 0 1 0.25 forward I I I I #
loop_type-twe-attrib $-1 $-1 $-1 $164 0 #
loop $354 $-1 $173 $107 #
coedge $-1 $248 $248 $251 $355 forward $164 $-1 #
surf-twe-attrib $-1 $-1 $-1 $165 30 #
loop_type-twe-attrib $-1 $-1 $-1 $167 1 #
coedge $-1 $251 $251 $248 $355 reversed $167 $-1 #
loop_type-twe-attrib $-1 $-1 $169 $111 1 #
coedge $-1 $253 $253 $170 $254 reversed $266 $-1 #
edge $356 $357 -3.1415926535897931 $357 3.1415926535897931 $253 $358 forward 7 unknown #
loop $359 $-1 $171 $163 #
edge_name-twe-attrib $-1 $-1 $-1 $172 5 8704 #
vertex $-1 $172 $360 #
ellipse-curve $361 0 -0.5 0 0 -1 0 -0.25 0 0 1 I I #
edge_name-twe-attrib $-1 $-1 $-1 $174 3 8704 #
vertex $-1 $174 $362 #
ellipse-curve $363 0 -0.25 0 0 -1 0 -0.5 0 0 1 I I #
loop_type-twe-attrib $-1 $-1 $-1 $175 0 #
point $-1 -0.25 -0.25 0 #
cur-twe-attrib $-1 $-1 $-1 $178 40 #
model_id-kcp-attrib $-1 $364 $-1 $179 1 990669510 50 691142657 11 #
loop $365 $-1 $253 $244 #
convexity-sys-attrib $-1 $366 $180 $120 #
model_id-kcp-attrib $-1 $-1 $-1 $181 1 990669510 50 691142657 15 #
point $-1 0.125 0 0 #
cur-twe-attrib $-1 $-1 $-1 $182 42 #
edge_name-twe-attrib $-1 $-1 $183 $82 1 8448 #
model_id-kcp-attrib $-1 $-1 $-1 $186 1 990669510 50 691142658 2 #
face $-1 $-1 $201 $27 $-1 $367 reversed single #
loop $-1 $-1 $289 $186 #
plane-surface $-1 0 0.25 0 0 -1 0 0 0 -1 forward_v I I I I #
coedge $-1 $368 $287 $290 $369 forward $187 $-1 #
coedge $-1 $293 $189 $190 $281 reversed $126 $-1 #
coedge $-1 $287 $368 $189 $279 reversed $187 $-1 #
edge $-1 $294 -0.5 $370 0.5 $278 $371 forward 7 unknown #
coedge $-1 $191 $190 $368 $372 forward $84 $-1 #
edge $-1 $285 -0.5 $370 0.5 $277 $373 forward 7 unknown #
coedge $-1 $290 $289 $191 $283 reversed $274 $-1 #
edge $-1 $374 -0.5 $284 0.5 $282 $375 forward 7 unknown #
vertex $-1 $193 $376 #
vertex $-1 $296 $377 #
straight-curve $-1 0.5 0 -0.5 0 -1 0 I I #
coedge $-1 $276 $278 $194 $288 reversed $187 $-1 #
edge $-1 $291 -0.25 $294 0.25 $287 $378 forward 7 unknown #
coedge $-1 $282 $195 $200 $297 forward $274 $-1 #
coedge $-1 $195 $282 $276 $369 reversed $274 $-1 #
vertex $-1 $196 $379 #
straight-curve $-1 0 0.25 0.5 -1 0 0 I I #
coedge $-1 $197 $277 $199 $296 reversed $126 $-1 #
vertex $-1 $288 $380 #
straight-curve $-1 0 -0.25 0.5 1 0 0 I I #
edge $-1 $202 -0.5 $285 0.5 $199 $381 forward 7 unknown #
edge $-1 $203 -0.5 $284 0.5 $200 $382 forward 7 unknown #
point $-1 0.5 -0.25 0.5 #
point $-1 0.5 0.25 0.5 #
coedge $-1 $300 $300 $206 $301 forward $205 $-1 #
edge $-1 $383 0 $383 6.2831853071795862 $300 $384 forward 7 unknown #
vertex $-1 $207 $385 #
ellipse-curve $-1 0 0 -0.014999999999999999 0 0 -1 0.5 0 0 1 I I #
point $-1 -0.46999999999999997 5.7556498629651732e-017 0.015000000000000013 #
vertex $-1 $211 $386 #
ellipse-curve $-1 0 0 0.25 0 0 1 0.125 0 0 1 I I #
point $-1 0.125 0 -0.25 #
face $-1 $387 $388 $33 $-1 $389 reversed single #
loop $-1 $-1 $331 $214 #
plane-surface $-1 0 0 0.5 0 0 1 1 0 0 forward_v I I I I #
coedge $-1 $390 $391 $392 $314 reversed $215 $-1 #
coedge $-1 $222 $216 $393 $394 reversed $146 $-1 #
coedge $-1 $216 $222 $395 $396 reversed $146 $-1 #
edge $-1 $397 -0.5 $398 0 $392 $399 forward 7 unknown #
coedge $-1 $218 $217 $400 $401 reversed $98 $-1 #
coedge $-1 $402 $403 $404 $317 forward $405 $-1 #
edge $-1 $406 -0.5 $321 0 $316 $407 forward 7 unknown #
coedge $-1 $319 $219 $408 $409 reversed $320 $-1 #
coedge $-1 $219 $318 $402 $410 forward $320 $-1 #
loop $-1 $-1 $219 $411 #
vertex $-1 $412 $413 #
vertex $-1 $414 $415 #
ellipse-curve $-1 1.8745759022776718e-033 0.25 0 0 -1 0 -0.5 0 0 1 I I #
coedge $-1 $416 $417 $221 $325 forward $418 $-1 #
edge $-1 $322 -1.5707963267948966 $327 0 $324 $323 forward 7 unknown #
coedge $-1 $419 $420 $421 $223 forward $388 $-1 #
vertex $-1 $422 $423 #
straight-curve $-1 -0.5 0.25 0 0 1 0 I I #
coedge $-1 $424 $224 $417 $414 forward $332 $-1 #
coedge $-1 $224 $424 $226 $334 forward $332 $-1 #
coedge $-1 $425 $408 $218 $225 reversed $309 $-1 #
loop $-1 $-1 $224 $426 #
straight-curve $-1 1.8745759022776718e-033 0.25 0.5 0 1 0 I I #
edge $-1 $427 -0.5 $230 1.8745759022776718e-033 $226 $428 forward 7 unknown #
coedge $-1 $429 $421 $227 $336 reversed $430 $-1 #
edge $-1 $427 -0.5 $229 0 $335 $431 forward 7 unknown #
face $-1 $432 $228 $33 $-1 $433 reversed single #
edge $-1 $229 0 $434 0.5 $420 $431 forward 7 unknown #
point $-1 -0.5 -0.25 0 #
edge $-1 $230 1.8745759022776718e-033 $435 0.5 $436 $428 forward 7 unknown #
point $-1 1.8745759022776718e-033 -0.25 0.5 #
loop $-1 $-1 $238 $152 #
coedge $-1 $343 $343 $236 $344 forward $232 $-1 #
edge $437 $438 -3.1415926535897931 $438 3.1415926535897931 $236 $439 forward 7 unknown #
vertex $-1 $237 $440 #
ellipse-curve $-1 1.8745759022776718e-033 -0.25 0 0 1 0 -0.5 0 0 1 I I #
vertex $-1 $239 $441 #
ellipse-curve $-1 0 0 0 0 -1 0 -0.25 0 0 1 I I #
point $-1 -0.25 -0.25 0 #
face_name-twe-attrib $-1 $-1 $243 $163 6 #
model_id-kcp-attrib $-1 $442 $-1 $244 1 990669510 50 691142657 8 #
cone-surface $443 0 0 0 0 -1 0 0.125 0 0 1 I I 0 1 0.125 forward I I I I #
surf-twe-attrib $-1 $-1 $-1 $245 47 #
loop_type-twe-attrib $-1 $-1 $-1 $247 1 #
edge $444 $445 -3.1415926535897931 $445 3.1415926535897931 $248 $446 forward 7 unknown #
attrib_edge_convexity-kcp-attrib $-1 $447 $-1 $254 1 #
vertex $448 $254 $449 #
ellipse-curve $450 0 -0.5 0 0 1 0 -0.125 0 0 1 I I #
loop_type-twe-attrib $-1 $-1 $-1 $255 1 #
point $-1 0.25 -0.5 3.0616164697184302e-017 #
cur-twe-attrib $-1 $-1 $-1 $258 56 #
point $-1 0.5 -0.25 6.1232329394368604e-017 #
cur-twe-attrib $-1 $-1 $-1 $261 58 #
loop_type-twe-attrib $-1 $-1 $265 $179 0 #
model_id-kcp-attrib $-1 $451 $-1 $266 1 990669510 50 691142657 12 #
edge_name-twe-attrib $-1 $-1 $267 $120 6 8704 #
plane-surface $-1 0.5 0 0 -1 0 0 0 0 1 forward_v I I I I #
coedge $-1 $278 $276 $280 $372 reversed $187 $-1 #
edge $-1 $291 -0.5 $374 0.5 $290 $452 forward 7 unknown #
vertex $-1 $372 $453 #
straight-curve $-1 -0.5 -0.25 0 0 0 -1 I I #
edge $-1 $370 -0.25 $374 0.25 $368 $454 forward 7 unknown #
straight-curve $-1 0 -0.25 -0.5 -1 0 0 I I #
vertex $-1 $283 $455 #
straight-curve $-1 0 0.25 -0.5 1 0 0 I I #
point $-1 0.5 0.25 -0.5 #
point $-1 0.5 -0.25 -0.5 #
straight-curve $-1 -0.5 0 0.5 0 -1 0 I I #
point $-1 -0.5 0.25 0.5 #
point $-1 -0.5 -0.25 0.5 #
straight-curve $-1 0.5 -0.25 0 0 0 -1 I I #
straight-curve $-1 0.5 0.25 0 0 0 -1 I I #
vertex $-1 $301 $456 #
ellipse-curve $-1 0 0 0.014999999999999999 0 0 1 0.5 0 0 1 I I #
point $-1 0.5 0 -0.014999999999999999 #
point $-1 0.125 0 0.25 #
face $-1 $457 $458 $33 $-1 $459 reversed single #
loop $-1 $-1 $326 $308 #
plane-surface $-1 -0.5 0 0 1 0 0 0 0 -1 forward_v I I I I #
coedge $-1 $460 $311 $461 $462 reversed $215 $-1 #
coedge $-1 $311 $460 $463 $464 reversed $215 $-1 #
coedge $-1 $465 $466 $467 $314 forward $468 $-1 #
coedge $-1 $469 $470 $312 $394 forward $471 $-1 #
edge $-1 $327 0 $398 1.5707963267948966 $393 $323 forward 7 unknown #
coedge $-1 $472 $473 $313 $396 forward $474 $-1 #
edge $-1 $397 -1.5707963267948966 $229 0 $395 $231 forward 7 unknown #
vertex $-1 $475 $476 #
vertex $-1 $477 $478 #
straight-curve $-1 1.8745759022776718e-033 0.25 -0.5 0 1 0 I I #
coedge $-1 $479 $436 $315 $401 forward $480 $-1 #
edge $-1 $230 1.5707963267948966 $406 3.1415926535897931 $400 $231 forward 7 unknown #
coedge $-1 $481 $316 $319 $410 reversed $405 $-1 #
coedge $-1 $316 $481 $479 $482 forward $405 $-1 #
coedge $-1 $483 $484 $460 $317 reversed $458 $-1 #
loop $-1 $-1 $316 $485 #
vertex $-1 $486 $487 #
straight-curve $-1 0.5 0.25 0 0 1 0 I I #
coedge $-1 $331 $488 $318 $409 forward $309 $-1 #
edge $-1 $489 -0.5 $322 -1.8745759022776718e-033 $318 $490 forward 7 unknown #
edge $-1 $489 -0.5 $321 0 $402 $491 forward 7 unknown #
face $-1 $492 $320 $33 $-1 $493 reversed single #
edge $-1 $321 0 $494 0.5 $484 $491 forward 7 unknown #
point $-1 0.5 0.25 0 #
edge $-1 $322 -1.8745759022776718e-033 $495 0.5 $417 $490 forward 7 unknown #
point $-1 1.8745759022776718e-033 0.25 0.5 #
coedge $-1 $417 $324 $496 $497 reversed $418 $-1 #
coedge $-1 $324 $416 $329 $414 reversed $418 $-1 #
loop $-1 $-1 $324 $492 #
coedge $-1 $498 $326 $470 $422 forward $388 $-1 #
coedge $-1 $326 $498 $472 $338 reversed $388 $-1 #
coedge $-1 $335 $496 $148 $223 reversed $430 $-1 #
edge $-1 $327 0 $499 0.5 $470 $500 forward 7 unknown #
point $-1 -0.5 0.25 0 #
coedge $-1 $330 $329 $429 $501 forward $332 $-1 #
coedge $-1 $488 $331 $436 $340 forward $309 $-1 #
face $-1 $502 $332 $33 $-1 $310 forward single #
vertex $-1 $501 $503 #
straight-curve $-1 0 -0.25 0.5 1 0 0 I I #
coedge $-1 $496 $335 $424 $501 reversed $430 $-1 #
loop $-1 $-1 $421 $504 #
straight-curve $-1 -0.5 -0.25 0 0 0 -1 I I #
face $-1 $505 $480 $33 $-1 $433 reversed single #
plane-surface $-1 0 -0.25 0 0 1 0 0 0 1 forward_v I I I I #
vertex $-1 $506 $507 #
vertex $-1 $508 $509 #
coedge $-1 $400 $479 $425 $340 reversed $480 $-1 #
convexity-sys-attrib $-1 $-1 $-1 $344 #
vertex $-1 $344 $510 #
ellipse-curve $-1 1.8745759022776718e-033 0 0 0 1 0 -0.5 0 0 1 I I #
point $-1 0.5 -0.25 -6.1230317691118863e-017 #
point $-1 -0.25 0 0 #
face_name-twe-attrib $-1 $-1 $351 $244 7 #
surf-twe-attrib $-1 $-1 $-1 $352 70 #
attrib_edge_convexity-kcp-attrib $-1 $511 $-1 $355 1 #
vertex $-1 $355 $512 #
ellipse-curve $513 0 -0.029999999999999999 0 0 -1 0 -0.5 0 0 1 I I #
convexity-sys-attrib $-1 $514 $356 $254 #
model_id-kcp-attrib $-1 $-1 $-1 $357 1 990669510 50 691142657 16 #
point $-1 0.125 -0.5 0 #
cur-twe-attrib $-1 $-1 $-1 $358 79 #
loop_type-twe-attrib $-1 $-1 $365 $266 1 #
straight-curve $-1 -0.5 0.25 0 0 0 -1 I I #
point $-1 -0.5 -0.25 -0.5 #
straight-curve $-1 -0.5 0 -0.5 0 1 0 I I #
point $-1 -0.5 0.25 -0.5 #
point $-1 0.5 0 0.014999999999999999 #
face $-1 $411 $515 $33 $-1 $493 reversed single #
loop $-1 $-1 $404 $387 #
plane-surface $-1 0.5 0 0 -1 0 0 0 0 1 forward_v I I I I #
coedge $-1 $391 $390 $217 $317 forward $215 $-1 #
coedge $-1 $516 $517 $390 $462 forward $518 $-1 #
edge $-1 $406 -3.1415926535897931 $397 -1.5707963267948966 $461 $231 forward 7 unknown #
coedge $-1 $519 $520 $391 $464 forward $515 $-1 #
edge $-1 $398 1.5707963267948966 $321 3.1415926535897931 $463 $323 forward 7 unknown #
coedge $-1 $521 $392 $520 $477 forward $468 $-1 #
coedge $-1 $392 $521 $516 $522 forward $468 $-1 #
coedge $-1 $523 $524 $216 $314 reversed $525 $-1 #
loop $-1 $-1 $392 $502 #
coedge $-1 $470 $393 $524 $526 reversed $471 $-1 #
coedge $-1 $393 $469 $419 $422 reversed $471 $-1 #
loop $-1 $-1 $393 $527 #
coedge $-1 $473 $395 $420 $338 forward $474 $-1 #
coedge $-1 $395 $472 $523 $475 reversed $474 $-1 #
loop $-1 $-1 $395 $528 #
edge $-1 $397 -1.8745759022776718e-033 $434 0.5 $473 $529 forward 7 unknown #
point $-1 1.8745759022776718e-033 -0.25 -0.5 #
edge $-1 $398 1.8745759022776718e-033 $494 0.5 $520 $530 forward 7 unknown #
point $-1 1.8745759022776718e-033 0.25 -0.5 #
coedge $-1 $436 $400 $403 $482 reversed $480 $-1 #
loop $-1 $-1 $400 $432 #
coedge $-1 $403 $402 $488 $508 reversed $405 $-1 #
edge $-1 $435 -0.5 $406 0 $403 $531 forward 7 unknown #
coedge $-1 $532 $404 $517 $486 forward $458 $-1 #
coedge $-1 $404 $532 $519 $412 reversed $458 $-1 #
face $-1 $-1 $405 $33 $-1 $459 reversed single #
edge $-1 $406 0 $533 0.5 $483 $531 forward 7 unknown #
point $-1 0.5 -0.25 0 #
coedge $-1 $408 $425 $481 $508 forward $309 $-1 #
vertex $-1 $508 $534 #
straight-curve $-1 0 0.25 0.5 -1 0 0 I I #
straight-curve $-1 0.5 0.25 0 0 0 -1 I I #
face $-1 $527 $418 $33 $-1 $493 reversed single #
plane-surface $-1 0 0.25 0 0 -1 0 0 0 -1 forward_v I I I I #
vertex $-1 $535 $536 #
vertex $-1 $414 $537 #
coedge $-1 $421 $429 $416 $497 forward $430 $-1 #
edge $-1 $495 -0.5 $327 0 $416 $500 forward 7 unknown #
coedge $-1 $420 $419 $538 $506 reversed $388 $-1 #
vertex $-1 $526 $539 #
straight-curve $-1 -0.5 0.25 0 0 0 -1 I I #
edge $-1 $495 -0.25 $427 0.25 $429 $540 forward 7 unknown #
face $-1 $504 $468 $33 $-1 $541 reversed single #
point $-1 -0.5 -0.25 0.5 #
face $-1 $485 $430 $33 $-1 $389 reversed single #
face $-1 $542 $518 $33 $-1 $433 reversed single #
edge $-1 $434 -0.25 $499 0.25 $498 $543 forward 7 unknown #
point $-1 -0.5 -0.25 -0.5 #
edge $-1 $435 -0.25 $489 0.25 $481 $544 forward 7 unknown #
point $-1 0.5 -0.25 0.5 #
point $-1 0.5 0 -6.1230317691118863e-017 #
convexity-sys-attrib $-1 $545 $444 $355 #
point $-1 0.5 -0.029999999999999999 -6.1232329394368604e-017 #
cur-twe-attrib $-1 $-1 $-1 $446 98 #
edge_name-twe-attrib $-1 $-1 $447 $254 7 8704 #
loop $-1 $-1 $463 $457 #
coedge $-1 $517 $461 $466 $522 reversed $518 $-1 #
coedge $-1 $461 $516 $483 $486 reversed $518 $-1 #
loop $-1 $-1 $461 $505 #
coedge $-1 $520 $463 $484 $412 forward $515 $-1 #
coedge $-1 $463 $519 $465 $477 reversed $515 $-1 #
coedge $-1 $466 $465 $532 $535 forward $468 $-1 #
edge $-1 $533 -0.5 $397 -1.8745759022776718e-033 $516 $529 forward 7 unknown #
coedge $-1 $538 $467 $473 $475 forward $525 $-1 #
coedge $-1 $467 $538 $469 $526 forward $525 $-1 #
loop $-1 $-1 $467 $542 #
edge $-1 $499 -0.5 $398 1.8745759022776718e-033 $469 $530 forward 7 unknown #
face $-1 $528 $471 $33 $-1 $493 reversed single #
face $-1 $337 $474 $33 $-1 $433 reversed single #
straight-curve $-1 0 -0.25 -0.5 -1 0 0 I I #
straight-curve $-1 0 0.25 -0.5 1 0 0 I I #
straight-curve $-1 0.5 -0.25 0 0 0 -1 I I #
coedge $-1 $484 $483 $521 $535 reversed $458 $-1 #
vertex $-1 $486 $546 #
point $-1 0.5 0.25 0.5 #
edge $-1 $494 -0.25 $533 0.25 $532 $547 forward 7 unknown #
point $-1 0.5 0.25 -0.5 #
point $-1 -0.5 0.25 0.5 #
coedge $-1 $524 $523 $498 $506 forward $525 $-1 #
point $-1 -0.5 0.25 -0.5 #
straight-curve $-1 -0.5 0 0.5 0 -1 0 I I #
plane-surface $-1 0 0 -0.5 0 0 1 1 0 0 forward_v I I I I #
face $-1 $426 $525 $33 $-1 $541 reversed single #
straight-curve $-1 -0.5 0 -0.5 0 1 0 I I #
straight-curve $-1 0.5 0 0.5 0 1 0 I I #
edge_name-twe-attrib $-1 $-1 $511 $355 2 8448 #
point $-1 0.5 -0.25 -0.5 #
straight-curve $-1 0.5 0 -0.5 0 -1 0 I I #
End-of-ACIS-data 