600 0 1 0           
111 GICL ACIS Healer - Source: /gicl/data5/repository/ICEM-CDC/Fixture_Models/KnurledKnob10/KnurledKnob10.sat - 6 0 18 ACIS 6.0.3 Solaris 24 Sat Apr 13 23:06:42 2002 
1 9.999999999999999547e-07 1.000000000000000036e-10 
body $-1 $1 $-1 $2 #
lump $-1 $-1 $3 $0 #
transform $-1 1 0 0 0 1 0 0 0 1 0 0 0 1 no_rotate no_reflect no_shear #
shell $-1 $-1 $-1 $4 $-1 $1 #
face $5 $6 $7 $3 $-1 $8 reversed single #
face_name-twe-attrib $-1 $-1 $-1 $4 1 #
face $9 $10 $11 $3 $-1 $12 forward single #
loop $13 $14 $15 $4 #
plane-surface $16 0 0 0 0 -1 0 0 0 -1 forward_v I I I I #
face_name-twe-attrib $-1 $-1 $-1 $6 2 #
face $17 $18 $19 $3 $-1 $20 forward single #
loop $21 $22 $23 $6 #
plane-surface $24 0 -0.25 0 0 -1 0 0 0 -1 forward_v I I I I #
loop_type-twe-attrib $-1 $-1 $-1 $7 0 #
loop $25 $-1 $26 $4 #
coedge $-1 $15 $15 $27 $28 reversed $7 $-1 #
surf-twe-attrib $-1 $-1 $-1 $8 4 #
face_name-twe-attrib $-1 $-1 $-1 $10 3 #
face $29 $30 $31 $3 $-1 $32 forward single #
loop $33 $34 $35 $10 #
plane-surface $36 0 -0.5 0 0 -1 0 0 0 -1 forward_v I I I I #
loop_type-twe-attrib $-1 $-1 $-1 $11 1 #
loop $37 $-1 $38 $6 #
coedge $-1 $23 $23 $39 $40 reversed $11 $-1 #
surf-twe-attrib $-1 $-1 $-1 $12 6 #
loop_type-twe-attrib $-1 $-1 $-1 $14 1 #
coedge $-1 $26 $26 $41 $42 reversed $14 $-1 #
coedge $-1 $27 $27 $15 $28 forward $31 $-1 #
edge $43 $44 0 $44 6.283185307179586232 $27 $45 forward 7 unknown #
face_name-twe-attrib $-1 $-1 $-1 $18 4 #
face $46 $47 $48 $3 $-1 $49 forward single #
loop $50 $51 $27 $18 #
cone-surface $52 0 -0.02999999999999999889 0 0 -1 0 -0.5 0 0 1 I I 0.7071067811865480168 0.7071067811865470176 0.5 forward I I I I #
loop_type-twe-attrib $-1 $-1 $-1 $19 0 #
loop $53 $-1 $54 $10 #
coedge $-1 $35 $35 $55 $56 forward $19 $-1 #
surf-twe-attrib $-1 $-1 $-1 $20 10 #
loop_type-twe-attrib $-1 $-1 $-1 $22 0 #
coedge $-1 $38 $38 $57 $58 forward $22 $-1 #
coedge $-1 $39 $39 $23 $40 forward $59 $-1 #
edge $60 $61 0 $61 6.283185307179586232 $39 $62 forward 7 unknown #
coedge $-1 $41 $41 $26 $42 forward $63 $-1 #
edge $64 $65 0 $65 6.283185307179586232 $41 $66 forward 7 unknown #
edge_name-twe-attrib $-1 $-1 $-1 $28 1 8448 #
vertex $-1 $28 $67 #
ellipse-curve $68 0 0 0 0 -1 0 -0.4699999999999999734 0 0 1 I I #
face_name-twe-attrib $-1 $-1 $-1 $30 5 #
face $69 $70 $59 $3 $-1 $71 forward single #
loop $72 $73 $74 $30 #
cone-surface $75 0 0.02500000000000000139 0 0 -1 0 -0.5 0 0 1 I I 0 1 0.5 forward I I I I #
loop_type-twe-attrib $-1 $-1 $-1 $31 0 #
loop $76 $-1 $77 $18 #
surf-twe-attrib $-1 $-1 $-1 $32 18 #
loop_type-twe-attrib $-1 $-1 $-1 $34 1 #
coedge $-1 $54 $54 $78 $79 forward $34 $-1 #
coedge $-1 $55 $55 $35 $56 reversed $80 $-1 #
edge $81 $82 -3.141592653589793116 $82 3.141592653589793116 $55 $83 forward 7 unknown #
coedge $-1 $57 $57 $38 $58 reversed $73 $-1 #
edge $84 $85 -3.141592653589793116 $85 3.141592653589793116 $57 $86 forward 7 unknown #
loop $87 $80 $39 $47 #
edge_name-twe-attrib $-1 $-1 $-1 $40 4 4608 #
vertex $-1 $40 $88 #
ellipse-curve $89 0 -0.25 0 0 -1 0 -0.25 0 0 1 I I #
loop $90 $91 $41 $70 #
edge_name-twe-attrib $-1 $-1 $-1 $42 6 8704 #
vertex $-1 $42 $92 #
ellipse-curve $93 0 0 0 0 1 0 0.125 0 0 1 I I #
point $-1 -0.4699999999999999734 0 0 #
cur-twe-attrib $-1 $-1 $-1 $45 28 #
face_name-twe-attrib $-1 $-1 $-1 $47 6 #
face $94 $-1 $63 $3 $-1 $95 reversed single #
cone-surface $96 0 0.02500000000000000139 0 0 -1 0 -0.25 0 0 1 I I 0 1 0.25 forward I I I I #
loop_type-twe-attrib $-1 $-1 $-1 $48 0 #
loop $97 $-1 $57 $30 #
coedge $-1 $74 $74 $77 $98 forward $48 $-1 #
surf-twe-attrib $-1 $-1 $-1 $49 30 #
loop_type-twe-attrib $-1 $-1 $-1 $51 1 #
coedge $-1 $77 $77 $74 $98 reversed $51 $-1 #
coedge $-1 $78 $78 $54 $79 reversed $91 $-1 #
edge $99 $100 -3.141592653589793116 $100 3.141592653589793116 $78 $101 forward 7 unknown #
loop $102 $-1 $55 $47 #
edge_name-twe-attrib $-1 $-1 $-1 $56 5 8704 #
vertex $-1 $56 $103 #
ellipse-curve $104 0 -0.5 0 0 -1 0 -0.25 0 0 1 I I #
edge_name-twe-attrib $-1 $-1 $-1 $58 3 8704 #
vertex $-1 $58 $105 #
ellipse-curve $106 0 -0.25 0 0 -1 0 -0.5 0 0 1 I I #
loop_type-twe-attrib $-1 $-1 $-1 $59 0 #
point $-1 -0.25 -0.25 0 #
cur-twe-attrib $-1 $-1 $-1 $62 40 #
loop_type-twe-attrib $-1 $-1 $-1 $63 0 #
loop $107 $-1 $78 $70 #
point $-1 0.125 0 0 #
cur-twe-attrib $-1 $-1 $-1 $66 42 #
face_name-twe-attrib $-1 $-1 $-1 $70 7 #
cone-surface $108 0 0 0 0 -1 0 0.125 0 0 1 I I 0 1 0.125 forward I I I I #
surf-twe-attrib $-1 $-1 $-1 $71 47 #
loop_type-twe-attrib $-1 $-1 $-1 $73 1 #
edge $109 $110 -3.141592653589793116 $110 3.141592653589793116 $74 $111 forward 7 unknown #
edge_name-twe-attrib $-1 $-1 $-1 $79 7 8704 #
vertex $-1 $79 $112 #
ellipse-curve $113 0 -0.5 0 0 1 0 -0.125 0 0 1 I I #
loop_type-twe-attrib $-1 $-1 $-1 $80 1 #
point $-1 0.25 -0.5 3.06161646971843021e-17 #
cur-twe-attrib $-1 $-1 $-1 $83 56 #
point $-1 0.5 -0.25 6.12323293943686042e-17 #
cur-twe-attrib $-1 $-1 $-1 $86 58 #
loop_type-twe-attrib $-1 $-1 $-1 $91 1 #
surf-twe-attrib $-1 $-1 $-1 $95 70 #
edge_name-twe-attrib $-1 $-1 $-1 $98 2 8448 #
vertex $-1 $98 $114 #
ellipse-curve $115 0 -0.02999999999999999889 0 0 -1 0 -0.5 0 0 1 I I #
point $-1 0.125 -0.5 0 #
cur-twe-attrib $-1 $-1 $-1 $101 79 #
point $-1 0.5 -0.02999999999999999889 -6.12323293943686042e-17 #
cur-twe-attrib $-1 $-1 $-1 $111 98 #
End-of-ACIS-data 