700 0 2 0           
24 FBMach with ACIS - 7.0.3 13 ACIS 7.0.3 NT 24 Tue May 14 10:17:33 2002 
1 9.9999999999999995e-007 1e-010 
body $2 -1 $-1 $3 $-1 $4 #
bdycol-kcp $-1 -1 1 5 $5 $6 $7 $8 $9 #
model_id-kcp-attrib $-1 -1 $-1 $-1 $0 1 1021385853 1021385853 846790657 1 #
lump $-1 -1 $-1 $-1 $10 $0 #
transform $-1 -1 1 0 0 0 1 0 0 0 1 0 0 0 1 rotate no_reflect no_shear #
body $11 -1 $-1 $12 $-1 $13 #
body $14 -1 $-1 $15 $-1 $16 #
body $17 -1 $-1 $18 $-1 $19 #
body $20 -1 $-1 $21 $-1 $22 #
body $23 -1 $-1 $24 $-1 $25 #
shell $-1 -1 $-1 $-1 $-1 $26 $-1 $3 #
rgb_color-st-attrib $-1 -1 $27 $-1 $5 1 0.5 1 #
lump $-1 -1 $-1 $-1 $28 $5 #
transform $-1 -1 1 0 0 0 1 0 0 0 1 0 -0.25 0 1 no_rotate no_reflect no_shear #
model_id-kcp-attrib $-1 -1 $-1 $-1 $6 1 1021385853 1021385853 846790658 1 #
lump $-1 -1 $-1 $-1 $29 $6 #
transform $-1 -1 1 0 0 0 1 0 0 0 1 0 -0.25 0 1 no_rotate no_reflect no_shear #
rgb_color-st-attrib $-1 -1 $30 $-1 $7 1 1 0.5 #
lump $-1 -1 $-1 $-1 $31 $7 #
transform $-1 -1 -1 0 0 0 0 1 0 1 0 0 -0.014999999999999999 0 1 rotate no_reflect no_shear #
rgb_color-st-attrib $-1 -1 $32 $-1 $8 0.5 1 1 #
lump $-1 -1 $-1 $-1 $33 $8 #
transform $-1 -1 1 0 0 0 -3.8285889215894375e-016 1 0 -1 -3.8285889215894375e-016 0 -0.24999999999999994 -9.5714723039735914e-017 1 rotate no_reflect no_shear #
rgb_color-st-attrib $-1 -1 $34 $-1 $9 0.5 1 1 #
lump $-1 -1 $-1 $-1 $35 $9 #
transform $-1 -1 1 0 0 0 1 0 0 0 1 0 -0.25 0 1 no_rotate no_reflect no_shear #
face $36 -1 $-1 $37 $38 $10 $-1 $39 reversed single #
model_id-kcp-attrib $-1 -1 $-1 $11 $5 1 1021385853 1021385853 841809926 1 #
shell $-1 -1 $-1 $-1 $-1 $40 $-1 $12 #
shell $-1 -1 $-1 $-1 $-1 $41 $-1 $15 #
model_id-kcp-attrib $-1 -1 $-1 $17 $7 1 1021385853 1021385853 847446019 1 #
shell $-1 -1 $-1 $-1 $-1 $42 $-1 $18 #
model_id-kcp-attrib $-1 -1 $-1 $20 $8 1 1021385853 1021385853 848756740 1 #
shell $-1 -1 $-1 $-1 $-1 $43 $-1 $21 #
model_id-kcp-attrib $-1 -1 $-1 $23 $9 1 1021385853 1021385853 851378181 1 #
shell $-1 -1 $-1 $-1 $-1 $44 $-1 $24 #
model_id-kcp-attrib $-1 -1 $45 $-1 $26 1 1021385853 1021385853 846790657 2 #
face $46 -1 $-1 $47 $48 $10 $-1 $49 forward single #
loop $50 -1 $-1 $51 $52 $26 #
plane-surface $53 -1 $-1 0 0 0 0 -1 0 0 0 -1 forward_v I I I I #
face $-1 -1 $-1 $54 $55 $28 $-1 $56 forward single #
face $-1 -1 $-1 $57 $58 $29 $-1 $59 forward single #
face $-1 -1 $-1 $60 $61 $31 $-1 $62 reversed single #
face $-1 -1 $-1 $63 $64 $33 $-1 $65 forward single #
face $-1 -1 $-1 $66 $67 $35 $-1 $68 reversed single #
face_name-twe-attrib $-1 -1 $-1 $36 $26 1 #
model_id-kcp-attrib $-1 -1 $69 $-1 $37 1 1021385853 1021385853 846790657 3 #
face $70 -1 $-1 $71 $72 $10 $-1 $73 forward single #
loop $74 -1 $-1 $75 $76 $37 #
plane-surface $77 -1 $-1 0 -0.25 0 0 -1 0 0 0 -1 forward_v I I I I #
loop_type-twe-attrib $-1 -1 $-1 $-1 $38 0 #
loop $78 -1 $-1 $-1 $79 $26 #
coedge $-1 -1 $-1 $52 $52 $80 $81 reversed $38 $-1 #
surf-twe-attrib $-1 -1 $-1 $-1 $39 4 #
face $-1 -1 $-1 $82 $83 $28 $-1 $84 forward single #
loop $-1 -1 $-1 $85 $86 $40 #
cone-surface $-1 -1 $-1 0 0 0 0 -1 0 -0.25 0 0 1 I I 0 -1 0.25 forward I I I I #
face $-1 -1 $-1 $87 $88 $29 $-1 $89 reversed single #
loop $-1 -1 $-1 $-1 $90 $41 #
plane-surface $-1 -1 $-1 0 0 0.5 0 0 1 1 0 0 forward_v I I I I #
face $-1 -1 $-1 $91 $92 $31 $-1 $93 forward single #
loop $-1 -1 $-1 $94 $95 $42 #
cone-surface $-1 -1 $-1 0 0 0.23499999999999965 0 0 1 0.25 0 0 1 I I -0.70710678118654802 0.70710678118654713 0.25 forward I I I I #
face $-1 -1 $-1 $96 $97 $33 $-1 $98 forward single #
loop $-1 -1 $-1 $99 $100 $43 #
cone-surface $-1 -1 $-1 0 0 0 0 0 1 0.125 0 0 1 I I 0 1 0.125 forward I I I I #
face $-1 -1 $-1 $101 $102 $35 $-1 $68 reversed single #
loop $-1 -1 $-1 $-1 $103 $44 #
cone-surface $-1 -1 $-1 1.8745759022776718e-033 0.25 0 0 1 0 -0.5 0 0 1 I I 0 1 0.5 forward I I I I #
face_name-twe-attrib $-1 -1 $-1 $46 $37 2 #
model_id-kcp-attrib $-1 -1 $104 $-1 $47 1 1021385853 1021385853 846790657 4 #
face $105 -1 $-1 $106 $107 $10 $-1 $108 forward single #
loop $109 -1 $-1 $110 $111 $47 #
plane-surface $112 -1 $-1 0 -0.5 0 0 -1 0 0 0 -1 forward_v I I I I #
loop_type-twe-attrib $-1 -1 $-1 $-1 $48 1 #
loop $113 -1 $-1 $-1 $114 $37 #
coedge $-1 -1 $-1 $76 $76 $115 $116 reversed $48 $-1 #
surf-twe-attrib $-1 -1 $-1 $-1 $49 6 #
model_id-kcp-attrib $-1 -1 $117 $-1 $51 1 1021385853 1021385853 846790657 13 #
coedge $-1 -1 $-1 $79 $79 $118 $119 reversed $51 $-1 #
coedge $-1 -1 $-1 $80 $80 $52 $81 forward $107 $-1 #
edge $120 -1 $-1 $121 0 $121 6.2831853071795862 $80 $122 forward @7 unknown #
face $-1 -1 $-1 $123 $124 $28 $-1 $125 reversed single #
loop $-1 -1 $-1 $126 $127 $54 #
cone-surface $-1 -1 $-1 1.8745759022776718e-033 0 0 0 -1 0 -0.5 0 0 1 I I 0 1 0.5 forward I I I I #
loop $-1 -1 $-1 $-1 $128 $40 #
coedge $-1 -1 $-1 $86 $86 $129 $130 forward $55 $-1 #
face $131 -1 $-1 $132 $133 $29 $-1 $134 reversed single #
loop $-1 -1 $-1 $-1 $135 $57 #
plane-surface $-1 -1 $-1 0 0 -0.5 0 0 1 1 0 0 forward_v I I I I #
coedge $-1 -1 $-1 $136 $137 $138 $139 forward $58 $-1 #
face $-1 -1 $-1 $-1 $140 $31 $-1 $141 forward single #
loop $-1 -1 $-1 $142 $143 $60 #
cone-surface $-1 -1 $-1 0 0 0 0 0 1 0.5 0 0 1 I I 0 1 0.5 forward I I I I #
loop $-1 -1 $-1 $-1 $144 $42 #
coedge $-1 -1 $-1 $95 $95 $145 $146 reversed $61 $-1 #
face $-1 -1 $-1 $-1 $147 $33 $-1 $148 forward single #
loop $-1 -1 $-1 $-1 $149 $63 #
plane-surface $-1 -1 $-1 0 0 -0.25 0 0 -1 -1 0 0 forward_v I I I I #
loop $-1 -1 $-1 $-1 $150 $43 #
coedge $-1 -1 $-1 $100 $100 $149 $151 reversed $64 $-1 #
face $-1 -1 $-1 $152 $153 $35 $-1 $68 reversed single #
loop $-1 -1 $-1 $-1 $154 $66 #
coedge $-1 -1 $-1 $155 $156 $157 $158 reversed $67 $-1 #
face_name-twe-attrib $-1 -1 $-1 $70 $47 3 #
model_id-kcp-attrib $-1 -1 $159 $-1 $71 1 1021385853 1021385853 846790657 5 #
face $160 -1 $-1 $161 $162 $10 $-1 $163 forward single #
loop $164 -1 $-1 $165 $80 $71 #
cone-surface $166 -1 $-1 0 -0.029999999999999999 0 0 -1 0 -0.5 0 0 1 I I 0.70710678118654802 0.70710678118654702 0.5 forward I I I I #
loop_type-twe-attrib $-1 -1 $-1 $-1 $72 0 #
loop $167 -1 $-1 $-1 $168 $47 #
coedge $-1 -1 $-1 $111 $111 $169 $170 forward $72 $-1 #
surf-twe-attrib $-1 -1 $-1 $-1 $73 10 #
loop_type-twe-attrib $-1 -1 $-1 $-1 $75 0 #
coedge $-1 -1 $-1 $114 $114 $171 $172 forward $75 $-1 #
coedge $-1 -1 $-1 $115 $115 $76 $116 forward $173 $-1 #
edge $174 -1 $-1 $175 0 $175 6.2831853071795862 $115 $176 forward @7 unknown #
loop_type-twe-attrib $-1 -1 $-1 $78 $51 1 #
coedge $-1 -1 $-1 $118 $118 $79 $119 forward $177 $-1 #
edge $178 -1 $-1 $179 0 $179 6.2831853071795862 $118 $180 forward @7 unknown #
attrib_edge_convexity-kcp-attrib $-1 -1 $181 $-1 $81 1 #
vertex $-1 -1 $-1 $81 $182 #
ellipse-curve $183 -1 $-1 0 0 0 0 -1 0 -0.46999999999999997 0 0 1 I I #
face $-1 -1 $-1 $-1 $184 $28 $-1 $185 forward single #
loop $-1 -1 $-1 $186 $187 $82 #
plane-surface $-1 -1 $-1 0.022727272727272721 -0.25 2.2020803215406346e-018 0 1 0 0 0 1 forward_v I I I I #
loop $-1 -1 $-1 $-1 $188 $54 #
coedge $-1 -1 $-1 $127 $127 $187 $189 forward $83 $-1 #
coedge $-1 -1 $-1 $128 $128 $190 $191 reversed $85 $-1 #
coedge $-1 -1 $-1 $129 $129 $86 $130 reversed $186 $-1 #
edge $-1 -1 $-1 $192 0 $192 6.2831853071795862 $86 $193 forward @7 unknown #
model_id-kcp-attrib $-1 -1 $-1 $-1 $87 1 1021385853 1021385853 846790658 3 #
face $-1 -1 $-1 $194 $195 $29 $-1 $196 reversed single #
loop $-1 -1 $-1 $-1 $197 $87 #
plane-surface $-1 -1 $-1 0 -0.25 0 0 1 0 0 0 1 forward_v I I I I #
coedge $-1 -1 $-1 $198 $199 $200 $201 forward $88 $-1 #
coedge $-1 -1 $-1 $202 $90 $203 $204 forward $58 $-1 #
coedge $-1 -1 $-1 $90 $202 $205 $206 forward $58 $-1 #
coedge $-1 -1 $-1 $207 $208 $90 $139 reversed $209 $-1 #
edge $-1 -1 $-1 $210 -0.25 $211 0.25 $138 $212 forward @7 unknown #
loop $-1 -1 $-1 $213 $145 $91 #
plane-surface $-1 -1 $-1 0 0 0.014999999999999999 0 0 1 1 0 0 forward_v I I I I #
loop $-1 -1 $-1 $-1 $214 $60 #
coedge $-1 -1 $-1 $143 $143 $144 $215 reversed $92 $-1 #
coedge $-1 -1 $-1 $144 $144 $143 $215 forward $94 $-1 #
coedge $-1 -1 $-1 $145 $145 $95 $146 forward $140 $-1 #
edge $-1 -1 $-1 $216 -3.1415926535897931 $216 3.1415926535897931 $145 $217 forward @7 unknown #
loop $-1 -1 $-1 $-1 $218 $96 #
plane-surface $-1 -1 $-1 0 0 0.25 0 0 1 1 0 0 forward_v I I I I #
coedge $-1 -1 $-1 $149 $149 $100 $151 forward $97 $-1 #
coedge $-1 -1 $-1 $150 $150 $218 $219 reversed $99 $-1 #
edge $-1 -1 $-1 $220 0 $220 6.2831853071795862 $149 $221 forward @7 unknown #
face $-1 -1 $-1 $222 $223 $35 $-1 $68 reversed single #
loop $-1 -1 $-1 $-1 $224 $101 #
coedge $-1 -1 $-1 $225 $226 $227 $228 reversed $102 $-1 #
coedge $-1 -1 $-1 $229 $103 $230 $231 forward $67 $-1 #
coedge $-1 -1 $-1 $103 $229 $232 $233 reversed $67 $-1 #
coedge $-1 -1 $-1 $234 $235 $103 $158 forward $236 $-1 #
edge $-1 -1 $-1 $237 0 $238 1.5707963267948966 $157 $239 forward @7 unknown #
face_name-twe-attrib $-1 -1 $-1 $105 $71 4 #
model_id-kcp-attrib $-1 -1 $240 $-1 $106 1 1021385853 1021385853 846790657 6 #
face $241 -1 $-1 $242 $173 $10 $-1 $243 forward single #
loop $244 -1 $-1 $245 $246 $106 #
cone-surface $247 -1 $-1 0 0.025000000000000001 0 0 -1 0 -0.5 0 0 1 I I 0 1 0.5 forward I I I I #
loop_type-twe-attrib $-1 -1 $-1 $-1 $107 0 #
loop $248 -1 $-1 $-1 $249 $71 #
surf-twe-attrib $-1 -1 $-1 $-1 $108 18 #
model_id-kcp-attrib $-1 -1 $250 $-1 $110 1 1021385853 1021385853 846790657 14 #
coedge $-1 -1 $-1 $168 $168 $251 $252 forward $110 $-1 #
coedge $-1 -1 $-1 $169 $169 $111 $170 reversed $253 $-1 #
edge $254 -1 $-1 $255 -3.1415926535897931 $255 3.1415926535897931 $169 $256 forward @7 unknown #
coedge $-1 -1 $-1 $171 $171 $114 $172 reversed $245 $-1 #
edge $257 -1 $-1 $258 -3.1415926535897931 $258 3.1415926535897931 $171 $259 forward @7 unknown #
loop $260 -1 $-1 $253 $115 $161 #
attrib_edge_convexity-kcp-attrib $-1 -1 $261 $-1 $116 2 #
vertex $-1 -1 $-1 $116 $262 #
ellipse-curve $263 -1 $-1 0 -0.25 0 0 -1 0 -0.25 0 0 1 I I #
loop $264 -1 $-1 $265 $118 $242 #
attrib_edge_convexity-kcp-attrib $-1 -1 $266 $-1 $119 1 #
vertex $267 -1 $-1 $119 $268 #
ellipse-curve $269 -1 $-1 0 0 0 0 1 0 0.125 0 0 1 I I #
convexity-sys-attrib $-1 -1 $270 $120 $81 #
point $-1 -1 $-1 -0.46999999999999997 0 0 #
cur-twe-attrib $-1 -1 $-1 $-1 $122 28 #
loop $-1 -1 $-1 $271 $272 $123 #
plane-surface $-1 -1 $-1 0.022727272727272721 0 2.2020803215406346e-018 0 1 0 0 0 1 forward_v I I I I #
loop $-1 -1 $-1 $-1 $129 $82 #
coedge $-1 -1 $-1 $187 $187 $127 $189 reversed $124 $-1 #
coedge $-1 -1 $-1 $188 $188 $272 $273 reversed $126 $-1 #
edge $-1 -1 $-1 $274 -3.1415926535897931 $274 3.1415926535897931 $127 $275 forward @7 unknown #
coedge $-1 -1 $-1 $190 $190 $128 $191 forward $271 $-1 #
edge $276 -1 $-1 $277 0 $277 6.2831853071795862 $128 $278 forward @7 unknown #
vertex $-1 -1 $-1 $130 $279 #
ellipse-curve $-1 -1 $-1 0 -0.25 0 0 -1 0 -0.25 0 0 1 I I #
face $280 -1 $-1 $281 $282 $29 $-1 $283 reversed single #
loop $-1 -1 $-1 $-1 $284 $132 #
plane-surface $-1 -1 $-1 -0.5 0 0 1 0 0 0 0 -1 forward_v I I I I #
coedge $-1 -1 $-1 $285 $205 $286 $287 forward $133 $-1 #
coedge $-1 -1 $-1 $288 $135 $285 $289 forward $88 $-1 #
coedge $-1 -1 $-1 $135 $288 $290 $291 forward $88 $-1 #
coedge $-1 -1 $-1 $208 $207 $135 $201 reversed $209 $-1 #
edge $-1 -1 $-1 $292 -0.25 $293 0.25 $200 $294 forward @7 unknown #
coedge $-1 -1 $-1 $137 $136 $295 $296 forward $58 $-1 #
coedge $-1 -1 $-1 $297 $298 $136 $204 reversed $282 $-1 #
edge $-1 -1 $-1 $211 -0.5 $299 0.5 $203 $300 forward @7 unknown #
coedge $-1 -1 $-1 $197 $301 $137 $206 reversed $133 $-1 #
edge $-1 -1 $-1 $302 -0.5 $210 0.5 $205 $303 forward @7 unknown #
coedge $-1 -1 $-1 $200 $138 $301 $304 forward $209 $-1 #
coedge $-1 -1 $-1 $138 $200 $297 $305 reversed $209 $-1 #
loop $-1 -1 $-1 $-1 $207 $281 #
vertex $-1 -1 $-1 $139 $306 #
vertex $-1 -1 $-1 $139 $307 #
straight-curve $-1 -1 $-1 0.5 0 0.5 0 1 0 I I #
loop $-1 -1 $-1 $-1 $308 $91 #
coedge $-1 -1 $-1 $214 $214 $308 $309 reversed $142 $-1 #
edge $-1 -1 $-1 $310 0 $310 6.2831853071795862 $143 $311 forward @7 unknown #
vertex $-1 -1 $-1 $146 $312 #
ellipse-curve $-1 -1 $-1 0 0 0.015000000000000013 0 0 -1 0.46999999999999997 0 0 1 I I #
coedge $-1 -1 $-1 $218 $218 $150 $219 forward $147 $-1 #
edge $-1 -1 $-1 $313 0 $313 6.2831853071795862 $218 $314 forward @7 unknown #
vertex $-1 -1 $-1 $151 $315 #
ellipse-curve $-1 -1 $-1 0 0 -0.25 0 0 -1 0.125 0 0 1 I I #
face $-1 -1 $-1 $316 $317 $35 $-1 $318 forward single #
loop $-1 -1 $-1 $-1 $319 $152 #
coedge $-1 -1 $-1 $320 $321 $319 $322 forward $153 $-1 #
coedge $-1 -1 $-1 $323 $154 $324 $325 reversed $102 $-1 #
coedge $-1 -1 $-1 $154 $323 $156 $233 forward $102 $-1 #
coedge $-1 -1 $-1 $326 $327 $154 $228 forward $328 $-1 #
edge $-1 -1 $-1 $329 -3.1415926535897931 $330 -1.5707963267948966 $227 $331 forward @7 unknown #
coedge $-1 -1 $-1 $156 $155 $332 $333 reversed $67 $-1 #
coedge $-1 -1 $-1 $321 $320 $334 $231 reversed $153 $-1 #
edge $-1 -1 $-1 $237 -0.5 $335 0 $334 $336 forward @7 unknown #
coedge $-1 -1 $-1 $337 $338 $339 $233 forward $340 $-1 #
edge $-1 -1 $-1 $238 -0.5 $330 0 $232 $341 forward @7 unknown #
coedge $-1 -1 $-1 $235 $157 $338 $342 reversed $236 $-1 #
coedge $-1 -1 $-1 $157 $234 $343 $344 forward $236 $-1 #
loop $-1 -1 $-1 $-1 $157 $345 #
vertex $-1 -1 $-1 $346 $347 #
vertex $-1 -1 $-1 $348 $349 #
ellipse-curve $-1 -1 $-1 1.8745759022776718e-033 -0.25 0 0 1 0 -0.5 0 0 1 I I #
face_name-twe-attrib $-1 -1 $-1 $160 $106 5 #
model_id-kcp-attrib $-1 -1 $350 $-1 $161 1 1021385853 1021385853 846790657 7 #
face $351 -1 $-1 $-1 $177 $10 $-1 $352 reversed single #
cone-surface $353 -1 $-1 0 0.025000000000000001 0 0 -1 0 -0.25 0 0 1 I I 0 1 0.25 forward I I I I #
loop_type-twe-attrib $-1 -1 $-1 $-1 $162 0 #
loop $354 -1 $-1 $-1 $171 $106 #
coedge $-1 -1 $-1 $246 $246 $249 $355 forward $162 $-1 #
surf-twe-attrib $-1 -1 $-1 $-1 $163 30 #
loop_type-twe-attrib $-1 -1 $-1 $-1 $165 1 #
coedge $-1 -1 $-1 $249 $249 $246 $355 reversed $165 $-1 #
loop_type-twe-attrib $-1 -1 $-1 $167 $110 1 #
coedge $-1 -1 $-1 $251 $251 $168 $252 reversed $265 $-1 #
edge $356 -1 $-1 $357 -3.1415926535897931 $357 3.1415926535897931 $251 $358 forward @7 unknown #
loop $359 -1 $-1 $-1 $169 $161 #
edge_name-twe-attrib $-1 -1 $-1 $-1 $170 5 8704 #
vertex $-1 -1 $-1 $170 $360 #
ellipse-curve $361 -1 $-1 0 -0.5 0 0 -1 0 -0.25 0 0 1 I I #
attrib_edge_convexity-kcp-attrib $-1 -1 $362 $-1 $172 1 #
vertex $-1 -1 $-1 $172 $363 #
ellipse-curve $364 -1 $-1 0 -0.25 0 0 -1 0 -0.5 0 0 1 I I #
loop_type-twe-attrib $-1 -1 $-1 $-1 $173 0 #
convexity-sys-attrib $-1 -1 $365 $174 $116 #
point $-1 -1 $-1 -0.25 -0.25 0 #
cur-twe-attrib $-1 -1 $-1 $-1 $176 40 #
model_id-kcp-attrib $-1 -1 $366 $-1 $177 1 1021385853 1021385853 846790657 11 #
loop $367 -1 $-1 $-1 $251 $242 #
convexity-sys-attrib $-1 -1 $368 $178 $119 #
model_id-kcp-attrib $-1 -1 $-1 $-1 $179 1 1021385853 1021385853 846790657 15 #
point $-1 -1 $-1 0.125 0 0 #
cur-twe-attrib $-1 -1 $-1 $-1 $180 42 #
edge_name-twe-attrib $-1 -1 $-1 $181 $81 1 8448 #
loop $-1 -1 $-1 $-1 $190 $123 #
coedge $-1 -1 $-1 $272 $272 $188 $273 forward $184 $-1 #
edge $369 -1 $-1 $370 -3.1415926535897931 $370 3.1415926535897931 $188 $371 forward @7 unknown #
vertex $-1 -1 $-1 $189 $372 #
ellipse-curve $-1 -1 $-1 1.8745759022776718e-033 -0.25 0 0 1 0 -0.5 0 0 1 I I #
convexity-sys-attrib $-1 -1 $-1 $-1 $191 #
vertex $-1 -1 $-1 $191 $373 #
ellipse-curve $-1 -1 $-1 0 0 0 0 -1 0 -0.25 0 0 1 I I #
point $-1 -1 $-1 -0.25 -0.25 0 #
model_id-kcp-attrib $-1 -1 $-1 $-1 $194 1 1021385853 1021385853 846790658 2 #
face $-1 -1 $-1 $-1 $209 $29 $-1 $374 reversed single #
loop $-1 -1 $-1 $-1 $297 $194 #
plane-surface $-1 -1 $-1 0 0.25 0 0 -1 0 0 0 -1 forward_v I I I I #
coedge $-1 -1 $-1 $375 $295 $298 $376 forward $195 $-1 #
coedge $-1 -1 $-1 $301 $197 $198 $289 reversed $133 $-1 #
coedge $-1 -1 $-1 $295 $375 $197 $287 reversed $195 $-1 #
edge $-1 -1 $-1 $302 -0.5 $377 0.5 $286 $378 forward @7 unknown #
coedge $-1 -1 $-1 $199 $198 $375 $379 forward $88 $-1 #
edge $-1 -1 $-1 $293 -0.5 $377 0.5 $285 $380 forward @7 unknown #
coedge $-1 -1 $-1 $298 $297 $199 $291 reversed $282 $-1 #
edge $-1 -1 $-1 $381 -0.5 $292 0.5 $290 $382 forward @7 unknown #
vertex $-1 -1 $-1 $201 $383 #
vertex $-1 -1 $-1 $304 $384 #
straight-curve $-1 -1 $-1 0.5 0 -0.5 0 -1 0 I I #
coedge $-1 -1 $-1 $284 $286 $202 $296 reversed $195 $-1 #
edge $-1 -1 $-1 $299 -0.25 $302 0.25 $295 $385 forward @7 unknown #
coedge $-1 -1 $-1 $290 $203 $208 $305 forward $282 $-1 #
coedge $-1 -1 $-1 $203 $290 $284 $376 reversed $282 $-1 #
vertex $-1 -1 $-1 $204 $386 #
straight-curve $-1 -1 $-1 0 0.25 0.5 -1 0 0 I I #
coedge $-1 -1 $-1 $205 $285 $207 $304 reversed $133 $-1 #
vertex $-1 -1 $-1 $296 $387 #
straight-curve $-1 -1 $-1 0 -0.25 0.5 1 0 0 I I #
edge $-1 -1 $-1 $210 -0.5 $293 0.5 $207 $388 forward @7 unknown #
edge $-1 -1 $-1 $211 -0.5 $292 0.5 $208 $389 forward @7 unknown #
point $-1 -1 $-1 0.5 -0.25 0.5 #
point $-1 -1 $-1 0.5 0.25 0.5 #
coedge $-1 -1 $-1 $308 $308 $214 $309 forward $213 $-1 #
edge $-1 -1 $-1 $390 0 $390 6.2831853071795862 $308 $391 forward @7 unknown #
vertex $-1 -1 $-1 $215 $392 #
ellipse-curve $-1 -1 $-1 0 0 -0.014999999999999999 0 0 -1 0.5 0 0 1 I I #
point $-1 -1 $-1 -0.46999999999999997 5.7556498629651732e-017 0.015000000000000013 #
vertex $-1 -1 $-1 $219 $393 #
ellipse-curve $-1 -1 $-1 0 0 0.25 0 0 1 0.125 0 0 1 I I #
point $-1 -1 $-1 0.125 0 -0.25 #
face $-1 -1 $-1 $394 $395 $35 $-1 $396 reversed single #
loop $-1 -1 $-1 $-1 $339 $222 #
plane-surface $-1 -1 $-1 0 0 0.5 0 0 1 1 0 0 forward_v I I I I #
coedge $-1 -1 $-1 $397 $398 $399 $322 reversed $223 $-1 #
coedge $-1 -1 $-1 $230 $224 $400 $401 reversed $153 $-1 #
coedge $-1 -1 $-1 $224 $230 $402 $403 reversed $153 $-1 #
edge $-1 -1 $-1 $404 -0.5 $405 0 $399 $406 forward @7 unknown #
coedge $-1 -1 $-1 $226 $225 $407 $408 reversed $102 $-1 #
coedge $-1 -1 $-1 $409 $410 $411 $325 forward $412 $-1 #
edge $-1 -1 $-1 $413 -0.5 $329 0 $324 $414 forward @7 unknown #
coedge $-1 -1 $-1 $327 $227 $415 $416 reversed $328 $-1 #
coedge $-1 -1 $-1 $227 $326 $409 $417 forward $328 $-1 #
loop $-1 -1 $-1 $-1 $227 $418 #
vertex $-1 -1 $-1 $419 $420 #
vertex $-1 -1 $-1 $421 $422 #
ellipse-curve $-1 -1 $-1 1.8745759022776718e-033 0.25 0 0 -1 0 -0.5 0 0 1 I I #
coedge $-1 -1 $-1 $423 $424 $229 $333 forward $425 $-1 #
edge $-1 -1 $-1 $330 -1.5707963267948966 $335 0 $332 $331 forward @7 unknown #
coedge $-1 -1 $-1 $426 $427 $428 $231 forward $395 $-1 #
vertex $-1 -1 $-1 $429 $430 #
straight-curve $-1 -1 $-1 -0.5 0.25 0 0 1 0 I I #
coedge $-1 -1 $-1 $431 $232 $424 $421 forward $340 $-1 #
coedge $-1 -1 $-1 $232 $431 $234 $342 forward $340 $-1 #
coedge $-1 -1 $-1 $432 $415 $226 $233 reversed $317 $-1 #
loop $-1 -1 $-1 $-1 $232 $433 #
straight-curve $-1 -1 $-1 1.8745759022776718e-033 0.25 0.5 0 1 0 I I #
edge $-1 -1 $-1 $434 -0.5 $238 1.8745759022776718e-033 $234 $435 forward @7 unknown #
coedge $-1 -1 $-1 $436 $428 $235 $344 reversed $437 $-1 #
edge $-1 -1 $-1 $434 -0.5 $237 0 $343 $438 forward @7 unknown #
face $-1 -1 $-1 $439 $236 $35 $-1 $440 reversed single #
edge $-1 -1 $-1 $237 0 $441 0.5 $427 $438 forward @7 unknown #
point $-1 -1 $-1 -0.5 -0.25 0 #
edge $-1 -1 $-1 $238 1.8745759022776718e-033 $442 0.5 $443 $435 forward @7 unknown #
point $-1 -1 $-1 1.8745759022776718e-033 -0.25 0.5 #
face_name-twe-attrib $-1 -1 $-1 $241 $161 6 #
model_id-kcp-attrib $-1 -1 $444 $-1 $242 1 1021385853 1021385853 846790657 8 #
cone-surface $445 -1 $-1 0 0 0 0 -1 0 0.125 0 0 1 I I 0 1 0.125 forward I I I I #
surf-twe-attrib $-1 -1 $-1 $-1 $243 47 #
loop_type-twe-attrib $-1 -1 $-1 $-1 $245 1 #
edge $446 -1 $-1 $447 -3.1415926535897931 $447 3.1415926535897931 $246 $448 forward @7 unknown #
attrib_edge_convexity-kcp-attrib $-1 -1 $449 $-1 $252 1 #
vertex $450 -1 $-1 $252 $451 #
ellipse-curve $452 -1 $-1 0 -0.5 0 0 1 0 -0.125 0 0 1 I I #
loop_type-twe-attrib $-1 -1 $-1 $-1 $253 1 #
point $-1 -1 $-1 0.25 -0.5 3.0616164697184302e-017 #
cur-twe-attrib $-1 -1 $-1 $-1 $256 56 #
convexity-sys-attrib $-1 -1 $453 $257 $172 #
point $-1 -1 $-1 0.5 -0.25 6.1232329394368604e-017 #
cur-twe-attrib $-1 -1 $-1 $-1 $259 58 #
edge_name-twe-attrib $-1 -1 $-1 $261 $116 4 4608 #
loop_type-twe-attrib $-1 -1 $-1 $264 $177 0 #
model_id-kcp-attrib $-1 -1 $454 $-1 $265 1 1021385853 1021385853 846790657 12 #
edge_name-twe-attrib $-1 -1 $-1 $266 $119 6 8704 #
convexity-sys-attrib $-1 -1 $-1 $-1 $273 #
vertex $-1 -1 $-1 $273 $455 #
ellipse-curve $-1 -1 $-1 1.8745759022776718e-033 0 0 0 1 0 -0.5 0 0 1 I I #
point $-1 -1 $-1 0.5 -0.25 -6.1230317691118863e-017 #
point $-1 -1 $-1 -0.25 0 0 #
plane-surface $-1 -1 $-1 0.5 0 0 -1 0 0 0 0 1 forward_v I I I I #
coedge $-1 -1 $-1 $286 $284 $288 $379 reversed $195 $-1 #
edge $-1 -1 $-1 $299 -0.5 $381 0.5 $298 $456 forward @7 unknown #
vertex $-1 -1 $-1 $379 $457 #
straight-curve $-1 -1 $-1 -0.5 -0.25 0 0 0 -1 I I #
edge $-1 -1 $-1 $377 -0.25 $381 0.25 $375 $458 forward @7 unknown #
straight-curve $-1 -1 $-1 0 -0.25 -0.5 -1 0 0 I I #
vertex $-1 -1 $-1 $291 $459 #
straight-curve $-1 -1 $-1 0 0.25 -0.5 1 0 0 I I #
point $-1 -1 $-1 0.5 0.25 -0.5 #
point $-1 -1 $-1 0.5 -0.25 -0.5 #
straight-curve $-1 -1 $-1 -0.5 0 0.5 0 -1 0 I I #
point $-1 -1 $-1 -0.5 0.25 0.5 #
point $-1 -1 $-1 -0.5 -0.25 0.5 #
straight-curve $-1 -1 $-1 0.5 -0.25 0 0 0 -1 I I #
straight-curve $-1 -1 $-1 0.5 0.25 0 0 0 -1 I I #
vertex $-1 -1 $-1 $309 $460 #
ellipse-curve $-1 -1 $-1 0 0 0.014999999999999999 0 0 1 0.5 0 0 1 I I #
point $-1 -1 $-1 0.5 0 -0.014999999999999999 #
point $-1 -1 $-1 0.125 0 0.25 #
face $-1 -1 $-1 $461 $462 $35 $-1 $463 reversed single #
loop $-1 -1 $-1 $-1 $334 $316 #
plane-surface $-1 -1 $-1 -0.5 0 0 1 0 0 0 0 -1 forward_v I I I I #
coedge $-1 -1 $-1 $464 $319 $465 $466 reversed $223 $-1 #
coedge $-1 -1 $-1 $319 $464 $467 $468 reversed $223 $-1 #
coedge $-1 -1 $-1 $469 $470 $471 $322 forward $472 $-1 #
coedge $-1 -1 $-1 $473 $474 $320 $401 forward $475 $-1 #
edge $-1 -1 $-1 $335 0 $405 1.5707963267948966 $400 $331 forward @7 unknown #
coedge $-1 -1 $-1 $476 $477 $321 $403 forward $478 $-1 #
edge $-1 -1 $-1 $404 -1.5707963267948966 $237 0 $402 $239 forward @7 unknown #
vertex $-1 -1 $-1 $479 $480 #
vertex $-1 -1 $-1 $481 $482 #
straight-curve $-1 -1 $-1 1.8745759022776718e-033 0.25 -0.5 0 1 0 I I #
coedge $-1 -1 $-1 $483 $443 $323 $408 forward $484 $-1 #
edge $-1 -1 $-1 $238 1.5707963267948966 $413 3.1415926535897931 $407 $239 forward @7 unknown #
coedge $-1 -1 $-1 $485 $324 $327 $417 reversed $412 $-1 #
coedge $-1 -1 $-1 $324 $485 $483 $486 forward $412 $-1 #
coedge $-1 -1 $-1 $487 $488 $464 $325 reversed $462 $-1 #
loop $-1 -1 $-1 $-1 $324 $489 #
vertex $-1 -1 $-1 $490 $491 #
straight-curve $-1 -1 $-1 0.5 0.25 0 0 1 0 I I #
coedge $-1 -1 $-1 $339 $492 $326 $416 forward $317 $-1 #
edge $-1 -1 $-1 $493 -0.5 $330 -1.8745759022776718e-033 $326 $494 forward @7 unknown #
edge $-1 -1 $-1 $493 -0.5 $329 0 $409 $495 forward @7 unknown #
face $-1 -1 $-1 $496 $328 $35 $-1 $497 reversed single #
edge $-1 -1 $-1 $329 0 $498 0.5 $488 $495 forward @7 unknown #
point $-1 -1 $-1 0.5 0.25 0 #
edge $-1 -1 $-1 $330 -1.8745759022776718e-033 $499 0.5 $424 $494 forward @7 unknown #
point $-1 -1 $-1 1.8745759022776718e-033 0.25 0.5 #
coedge $-1 -1 $-1 $424 $332 $500 $501 reversed $425 $-1 #
coedge $-1 -1 $-1 $332 $423 $337 $421 reversed $425 $-1 #
loop $-1 -1 $-1 $-1 $332 $496 #
coedge $-1 -1 $-1 $502 $334 $474 $429 forward $395 $-1 #
coedge $-1 -1 $-1 $334 $502 $476 $346 reversed $395 $-1 #
coedge $-1 -1 $-1 $343 $500 $155 $231 reversed $437 $-1 #
edge $-1 -1 $-1 $335 0 $503 0.5 $474 $504 forward @7 unknown #
point $-1 -1 $-1 -0.5 0.25 0 #
coedge $-1 -1 $-1 $338 $337 $436 $505 forward $340 $-1 #
coedge $-1 -1 $-1 $492 $339 $443 $348 forward $317 $-1 #
face $-1 -1 $-1 $506 $340 $35 $-1 $318 forward single #
vertex $-1 -1 $-1 $505 $507 #
straight-curve $-1 -1 $-1 0 -0.25 0.5 1 0 0 I I #
coedge $-1 -1 $-1 $500 $343 $431 $505 reversed $437 $-1 #
loop $-1 -1 $-1 $-1 $428 $508 #
straight-curve $-1 -1 $-1 -0.5 -0.25 0 0 0 -1 I I #
face $-1 -1 $-1 $509 $484 $35 $-1 $440 reversed single #
plane-surface $-1 -1 $-1 0 -0.25 0 0 1 0 0 0 1 forward_v I I I I #
vertex $-1 -1 $-1 $510 $511 #
vertex $-1 -1 $-1 $512 $513 #
coedge $-1 -1 $-1 $407 $483 $432 $348 reversed $484 $-1 #
face_name-twe-attrib $-1 -1 $-1 $351 $242 7 #
surf-twe-attrib $-1 -1 $-1 $-1 $352 70 #
attrib_edge_convexity-kcp-attrib $-1 -1 $514 $-1 $355 1 #
vertex $-1 -1 $-1 $355 $515 #
ellipse-curve $516 -1 $-1 0 -0.029999999999999999 0 0 -1 0 -0.5 0 0 1 I I #
convexity-sys-attrib $-1 -1 $517 $356 $252 #
model_id-kcp-attrib $-1 -1 $-1 $-1 $357 1 1021385853 1021385853 846790657 16 #
point $-1 -1 $-1 0.125 -0.5 0 #
cur-twe-attrib $-1 -1 $-1 $-1 $358 79 #
edge_name-twe-attrib $-1 -1 $-1 $362 $172 3 8704 #
loop_type-twe-attrib $-1 -1 $-1 $367 $265 1 #
point $-1 -1 $-1 0.5 0 -6.1230317691118863e-017 #
straight-curve $-1 -1 $-1 -0.5 0.25 0 0 0 -1 I I #
point $-1 -1 $-1 -0.5 -0.25 -0.5 #
straight-curve $-1 -1 $-1 -0.5 0 -0.5 0 1 0 I I #
point $-1 -1 $-1 -0.5 0.25 -0.5 #
point $-1 -1 $-1 0.5 0 0.014999999999999999 #
face $-1 -1 $-1 $418 $518 $35 $-1 $497 reversed single #
loop $-1 -1 $-1 $-1 $411 $394 #
plane-surface $-1 -1 $-1 0.5 0 0 -1 0 0 0 0 1 forward_v I I I I #
coedge $-1 -1 $-1 $398 $397 $225 $325 forward $223 $-1 #
coedge $-1 -1 $-1 $519 $520 $397 $466 forward $521 $-1 #
edge $-1 -1 $-1 $413 -3.1415926535897931 $404 -1.5707963267948966 $465 $239 forward @7 unknown #
coedge $-1 -1 $-1 $522 $523 $398 $468 forward $518 $-1 #
edge $-1 -1 $-1 $405 1.5707963267948966 $329 3.1415926535897931 $467 $331 forward @7 unknown #
coedge $-1 -1 $-1 $524 $399 $523 $481 forward $472 $-1 #
coedge $-1 -1 $-1 $399 $524 $519 $525 forward $472 $-1 #
coedge $-1 -1 $-1 $526 $527 $224 $322 reversed $528 $-1 #
loop $-1 -1 $-1 $-1 $399 $506 #
coedge $-1 -1 $-1 $474 $400 $527 $529 reversed $475 $-1 #
coedge $-1 -1 $-1 $400 $473 $426 $429 reversed $475 $-1 #
loop $-1 -1 $-1 $-1 $400 $530 #
coedge $-1 -1 $-1 $477 $402 $427 $346 forward $478 $-1 #
coedge $-1 -1 $-1 $402 $476 $526 $479 reversed $478 $-1 #
loop $-1 -1 $-1 $-1 $402 $531 #
edge $-1 -1 $-1 $404 -1.8745759022776718e-033 $441 0.5 $477 $532 forward @7 unknown #
point $-1 -1 $-1 1.8745759022776718e-033 -0.25 -0.5 #
edge $-1 -1 $-1 $405 1.8745759022776718e-033 $498 0.5 $523 $533 forward @7 unknown #
point $-1 -1 $-1 1.8745759022776718e-033 0.25 -0.5 #
coedge $-1 -1 $-1 $443 $407 $410 $486 reversed $484 $-1 #
loop $-1 -1 $-1 $-1 $407 $439 #
coedge $-1 -1 $-1 $410 $409 $492 $512 reversed $412 $-1 #
edge $-1 -1 $-1 $442 -0.5 $413 0 $410 $534 forward @7 unknown #
coedge $-1 -1 $-1 $535 $411 $520 $490 forward $462 $-1 #
coedge $-1 -1 $-1 $411 $535 $522 $419 reversed $462 $-1 #
face $-1 -1 $-1 $-1 $412 $35 $-1 $463 reversed single #
edge $-1 -1 $-1 $413 0 $536 0.5 $487 $534 forward @7 unknown #
point $-1 -1 $-1 0.5 -0.25 0 #
coedge $-1 -1 $-1 $415 $432 $485 $512 forward $317 $-1 #
vertex $-1 -1 $-1 $512 $537 #
straight-curve $-1 -1 $-1 0 0.25 0.5 -1 0 0 I I #
straight-curve $-1 -1 $-1 0.5 0.25 0 0 0 -1 I I #
face $-1 -1 $-1 $530 $425 $35 $-1 $497 reversed single #
plane-surface $-1 -1 $-1 0 0.25 0 0 -1 0 0 0 -1 forward_v I I I I #
vertex $-1 -1 $-1 $538 $539 #
vertex $-1 -1 $-1 $421 $540 #
coedge $-1 -1 $-1 $428 $436 $423 $501 forward $437 $-1 #
edge $-1 -1 $-1 $499 -0.5 $335 0 $423 $504 forward @7 unknown #
coedge $-1 -1 $-1 $427 $426 $541 $510 reversed $395 $-1 #
vertex $-1 -1 $-1 $529 $542 #
straight-curve $-1 -1 $-1 -0.5 0.25 0 0 0 -1 I I #
edge $-1 -1 $-1 $499 -0.25 $434 0.25 $436 $543 forward @7 unknown #
face $-1 -1 $-1 $508 $472 $35 $-1 $544 reversed single #
point $-1 -1 $-1 -0.5 -0.25 0.5 #
face $-1 -1 $-1 $489 $437 $35 $-1 $396 reversed single #
face $-1 -1 $-1 $545 $521 $35 $-1 $440 reversed single #
edge $-1 -1 $-1 $441 -0.25 $503 0.25 $502 $546 forward @7 unknown #
point $-1 -1 $-1 -0.5 -0.25 -0.5 #
edge $-1 -1 $-1 $442 -0.25 $493 0.25 $485 $547 forward @7 unknown #
point $-1 -1 $-1 0.5 -0.25 0.5 #
convexity-sys-attrib $-1 -1 $548 $446 $355 #
point $-1 -1 $-1 0.5 -0.029999999999999999 -6.1232329394368604e-017 #
cur-twe-attrib $-1 -1 $-1 $-1 $448 98 #
edge_name-twe-attrib $-1 -1 $-1 $449 $252 7 8704 #
loop $-1 -1 $-1 $-1 $467 $461 #
coedge $-1 -1 $-1 $520 $465 $470 $525 reversed $521 $-1 #
coedge $-1 -1 $-1 $465 $519 $487 $490 reversed $521 $-1 #
loop $-1 -1 $-1 $-1 $465 $509 #
coedge $-1 -1 $-1 $523 $467 $488 $419 forward $518 $-1 #
coedge $-1 -1 $-1 $467 $522 $469 $481 reversed $518 $-1 #
coedge $-1 -1 $-1 $470 $469 $535 $538 forward $472 $-1 #
edge $-1 -1 $-1 $536 -0.5 $404 -1.8745759022776718e-033 $519 $532 forward @7 unknown #
coedge $-1 -1 $-1 $541 $471 $477 $479 forward $528 $-1 #
coedge $-1 -1 $-1 $471 $541 $473 $529 forward $528 $-1 #
loop $-1 -1 $-1 $-1 $471 $545 #
edge $-1 -1 $-1 $503 -0.5 $405 1.8745759022776718e-033 $473 $533 forward @7 unknown #
face $-1 -1 $-1 $531 $475 $35 $-1 $497 reversed single #
face $-1 -1 $-1 $345 $478 $35 $-1 $440 reversed single #
straight-curve $-1 -1 $-1 0 -0.25 -0.5 -1 0 0 I I #
straight-curve $-1 -1 $-1 0 0.25 -0.5 1 0 0 I I #
straight-curve $-1 -1 $-1 0.5 -0.25 0 0 0 -1 I I #
coedge $-1 -1 $-1 $488 $487 $524 $538 reversed $462 $-1 #
vertex $-1 -1 $-1 $490 $549 #
point $-1 -1 $-1 0.5 0.25 0.5 #
edge $-1 -1 $-1 $498 -0.25 $536 0.25 $535 $550 forward @7 unknown #
point $-1 -1 $-1 0.5 0.25 -0.5 #
point $-1 -1 $-1 -0.5 0.25 0.5 #
coedge $-1 -1 $-1 $527 $526 $502 $510 forward $528 $-1 #
point $-1 -1 $-1 -0.5 0.25 -0.5 #
straight-curve $-1 -1 $-1 -0.5 0 0.5 0 -1 0 I I #
plane-surface $-1 -1 $-1 0 0 -0.5 0 0 1 1 0 0 forward_v I I I I #
face $-1 -1 $-1 $433 $528 $35 $-1 $544 reversed single #
straight-curve $-1 -1 $-1 -0.5 0 -0.5 0 1 0 I I #
straight-curve $-1 -1 $-1 0.5 0 0.5 0 1 0 I I #
edge_name-twe-attrib $-1 -1 $-1 $514 $355 2 8448 #
point $-1 -1 $-1 0.5 -0.25 -0.5 #
straight-curve $-1 -1 $-1 0.5 0 -0.5 0 -1 0 I I #
End-of-ACIS-data 