  0
SECTION
  2
HEADER
  9
$ACADVER
  1
AC1009
  9
$INSBASE
 10
0.0
 20
0.0
 30
0.0
  9
$EXTMIN
 10
0.0
 20
0.0
 30
0.0
  9
$EXTMAX
 10
3.0
 20
3.0
 30
3.0
  9
$LIMMIN
 10
0.0
 20
0.0
  9
$LIMMAX
 10
12.0
 20
9.0
  9
$ORTHOMODE
 70
     0
  9
$REGENMODE
 70
     1
  9
$FILLMODE
 70
     1
  9
$QTEXTMODE
 70
     0
  9
$MIRRTEXT
 70
     1
  9
$DRAGMODE
 70
     2
  9
$LTSCALE
 40
1.0
  9
$OSMODE
 70
     0
  9
$ATTMODE
 70
     1
  9
$TEXTSIZE
 40
0.2
  9
$TRACEWID
 40
0.05
  9
$TEXTSTYLE
  7
STANDARD
  9
$CLAYER
  8
0
  9
$CELTYPE
  6
BYLAYER
  9
$CECOLOR
 62
   256
  9
$DIMSCALE
 40
1.0
  9
$DIMASZ
 40
0.18
  9
$DIMEXO
 40
0.0625
  9
$DIMDLI
 40
0.38
  9
$DIMRND
 40
0.0
  9
$DIMDLE
 40
0.0
  9
$DIMEXE
 40
0.18
  9
$DIMTP
 40
0.0
  9
$DIMTM
 40
0.0
  9
$DIMTXT
 40
0.18
  9
$DIMCEN
 40
0.09
  9
$DIMTSZ
 40
0.0
  9
$DIMTOL
 70
     0
  9
$DIMLIM
 70
     0
  9
$DIMTIH
 70
     1
  9
$DIMTOH
 70
     1
  9
$DIMSE1
 70
     0
  9
$DIMSE2
 70
     0
  9
$DIMTAD
 70
     0
  9
$DIMZIN
 70
     0
  9
$DIMBLK
  1

  9
$DIMASO
 70
     1
  9
$DIMSHO
 70
     1
  9
$DIMPOST
  1

  9
$DIMAPOST
  1

  9
$DIMALT
 70
     0
  9
$DIMALTD
 70
     2
  9
$DIMALTF
 40
25.4
  9
$DIMLFAC
 40
1.0
  9
$DIMTOFL
 70
     0
  9
$DIMTVP
 40
0.0
  9
$DIMTIX
 70
     0
  9
$DIMSOXD
 70
     0
  9
$DIMSAH
 70
     0
  9
$DIMBLK1
  1

  9
$DIMBLK2
  1

  9
$DIMSTYLE
  2
*UNNAMED
  9
$DIMCLRD
 70
     0
  9
$DIMCLRE
 70
     0
  9
$DIMCLRT
 70
     0
  9
$DIMTFAC
 40
1.0
  9
$DIMGAP
 40
0.09
  9
$LUNITS
 70
     2
  9
$LUPREC
 70
     4
  9
$SKETCHINC
 40
0.1
  9
$FILLETRAD
 40
0.0
  9
$AUNITS
 70
     0
  9
$AUPREC
 70
     0
  9
$MENU
  1
acad
  9
$ELEVATION
 40
0.0
  9
$PELEVATION
 40
0.0
  9
$THICKNESS
 40
0.0
  9
$LIMCHECK
 70
     0
  9
$BLIPMODE
 70
     1
  9
$CHAMFERA
 40
0.0
  9
$CHAMFERB
 40
0.0
  9
$SKPOLY
 70
     0
  9
$TDCREATE
 40
2448820.892632094
  9
$TDUPDATE
 40
2448820.893942384
  9
$TDINDWG
 40
0.0013102894
  9
$TDUSRTIMER
 40
0.0013102894
  9
$USRTIMER
 70
     1
  9
$ANGBASE
 50
0.0
  9
$ANGDIR
 70
     0
  9
$PDMODE
 70
     0
  9
$PDSIZE
 40
0.0
  9
$PLINEWID
 40
0.0
  9
$COORDS
 70
     0
  9
$SPLFRAME
 70
     0
  9
$SPLINETYPE
 70
     6
  9
$SPLINESEGS
 70
     8
  9
$ATTDIA
 70
     0
  9
$ATTREQ
 70
     1
  9
$HANDLING
 70
     1
  9
$HANDSEED
  5
DB
  9
$SURFTAB1
 70
     6
  9
$SURFTAB2
 70
     6
  9
$SURFTYPE
 70
     6
  9
$SURFU
 70
     6
  9
$SURFV
 70
     6
  9
$UCSNAME
  2

  9
$UCSORG
 10
0.0
 20
0.0
 30
0.0
  9
$UCSXDIR
 10
1.0
 20
0.0
 30
0.0
  9
$UCSYDIR
 10
0.0
 20
1.0
 30
0.0
  9
$PUCSNAME
  2

  9
$PUCSORG
 10
0.0
 20
0.0
 30
0.0
  9
$PUCSXDIR
 10
1.0
 20
0.0
 30
0.0
  9
$PUCSYDIR
 10
0.0
 20
1.0
 30
0.0
  9
$USERI1
 70
     0
  9
$USERI2
 70
     0
  9
$USERI3
 70
     0
  9
$USERI4
 70
     0
  9
$USERI5
 70
     0
  9
$USERR1
 40
0.0
  9
$USERR2
 40
0.0
  9
$USERR3
 40
0.0
  9
$USERR4
 40
0.0
  9
$USERR5
 40
0.0
  9
$WORLDVIEW
 70
     1
  9
$SHADEDGE
 70
     3
  9
$SHADEDIF
 70
    70
  9
$TILEMODE
 70
     1
  9
$MAXACTVP
 70
    16
  9
$PINSBASE
 10
0.0
 20
0.0
 30
0.0
  9
$PLIMCHECK
 70
     0
  9
$PEXTMIN
 10
1.000000E+20
 20
1.000000E+20
 30
1.000000E+20
  9
$PEXTMAX
 10
-1.000000E+20
 20
-1.000000E+20
 30
-1.000000E+20
  9
$PLIMMIN
 10
0.0
 20
0.0
  9
$PLIMMAX
 10
12.0
 20
9.0
  9
$UNITMODE
 70
     0
  9
$VISRETAIN
 70
     0
  9
$PLINEGEN
 70
     0
  9
$PSLTSCALE
 70
     0
  9
$TREEDEPTH
 70
  3020
  9
$DWGCODEPAGE
  3
undefined
  0
ENDSEC
  0
SECTION
  2
TABLES
  0
TABLE
  2
VPORT
 70
     2
  0
VPORT
  2
*ACTIVE
 70
     0
 10
0.0
 20
0.0
 11
1.0
 21
1.0
 12
1.785329
 22
0.0
 13
0.0
 23
0.0
 14
1.0
 24
1.0
 15
0.0
 25
0.0
 16
1.0
 26
1.0
 36
1.0
 17
0.0
 27
0.0
 37
0.0
 40
4.898979
 41
1.594883
 42
50.0
 43
0.0
 44
0.0
 50
0.0
 51
0.0
 71
     0
 72
   100
 73
     1
 74
     1
 75
     0
 76
     0
 77
     0
 78
     0
  0
ENDTAB
  0
TABLE
  2
LTYPE
 70
     1
  0
LTYPE
  2
CONTINUOUS
 70
    64
  3
Solid line
 72
    65
 73
     0
 40
0.0
  0
ENDTAB
  0
TABLE
  2
LAYER
 70
     2
  0
LAYER
  2
0
 70
    64
 62
     7
  6
CONTINUOUS
  0
LAYER
  2
AME_FRZ
 70
    65
 62
     7
  6
CONTINUOUS
  0
ENDTAB
  0
TABLE
  2
STYLE
 70
     1
  0
STYLE
  2
STANDARD
 70
     0
 40
0.0
 41
1.0
 50
0.0
 71
     0
 42
0.2
  3
txt
  4

  0
ENDTAB
  0
TABLE
  2
VIEW
 70
     0
  0
ENDTAB
  0
TABLE
  2
UCS
 70
     0
  0
ENDTAB
  0
TABLE
  2
APPID
 70
     2
  0
APPID
  2
ACAD
 70
    64
  0
APPID
  2
AME_SOL
 70
    64
  0
ENDTAB
  0
TABLE
  2
DIMSTYLE
 70
     0
  0
ENDTAB
  0
ENDSEC
  0
SECTION
  2
BLOCKS
  0
BLOCK
  8
0
  5
1
  2
AME_NIL
 70
    64
 10
0.0
 20
0.0
 30
0.0
  1
AME_NIL
  3
AME_NIL
  0
ENDBLK
  8
0
  5
2
  0
BLOCK
  8
0
  5
4
  2
AME_SOL
 70
    64
 10
0.0
 20
0.0
 30
0.0
  1
AME_SOL
  3
AME_SOL
  0
ENDBLK
  8
0
  5
5
  0
BLOCK
  8
0
  5
7
  2
*U2
 70
    65
 10
0.0
 20
0.0
 30
0.0
  1
*U
  3
*U
  0
LINE
  8
0
 62
     0
  5
8
 10
3.0
 20
3.0
 30
0.0
 11
3.0
 21
3.0
 31
3.0
1001
AME_SOL
1070
     1
1071
       18
  0
LINE
  8
0
 62
     0
  5
9
 10
3.0
 20
3.0
 30
3.0
 11
3.0
 21
0.0
 31
3.0
1001
AME_SOL
1070
     1
1071
       17
  0
LINE
  8
0
 62
     0
  5
A
 10
0.0
 20
3.0
 30
3.0
 11
3.0
 21
3.0
 31
3.0
1001
AME_SOL
1070
     1
1071
       16
  0
LINE
  8
0
 62
     0
  5
B
 10
0.0
 20
3.0
 30
0.0
 11
0.0
 21
3.0
 31
3.0
1001
AME_SOL
1070
     1
1071
       15
  0
LINE
  8
0
 62
     0
  5
C
 10
0.0
 20
3.0
 30
3.0
 11
0.0
 21
0.0
 31
3.0
1001
AME_SOL
1070
     1
1071
       14
  0
LINE
  8
0
 62
     0
  5
D
 10
0.0
 20
0.0
 30
0.0
 11
0.0
 21
0.0
 31
3.0
1001
AME_SOL
1070
     1
1071
       13
  0
LINE
  8
0
 62
     0
  5
E
 10
3.0
 20
0.0
 30
3.0
 11
3.0
 21
0.0
 31
0.0
1001
AME_SOL
1070
     1
1071
       12
  0
LINE
  8
0
 62
     0
  5
F
 10
0.0
 20
0.0
 30
3.0
 11
3.0
 21
0.0
 31
3.0
1001
AME_SOL
1070
     1
1071
       11
  0
LINE
  8
0
 62
     0
  5
10
 10
0.0
 20
0.0
 30
0.0
 11
3.0
 21
0.0
 31
0.0
1001
AME_SOL
1070
     1
1071
       10
  0
LINE
  8
0
 62
     0
  5
11
 10
0.0
 20
3.0
 30
0.0
 11
0.0
 21
0.0
 31
0.0
1001
AME_SOL
1070
     1
1071
        9
  0
LINE
  8
0
 62
     0
  5
12
 10
3.0
 20
0.0
 30
0.0
 11
3.0
 21
3.0
 31
0.0
1001
AME_SOL
1070
     1
1071
        8
  0
LINE
  8
0
 62
     0
  5
13
 10
3.0
 20
3.0
 30
0.0
 11
0.0
 21
3.0
 31
0.0
1001
AME_SOL
1070
     1
1071
        7
  0
ENDBLK
  8
0
  5
14
  0
BLOCK
  8
0
  5
18
  2
*U3
 70
    65
 10
0.0
 20
0.0
 30
0.0
  1
*U
  3
*U
  0
LINE
  8
0
 62
     0
  5
19
 10
1.0
 20
2.0
 30
0.0
 11
1.0
 21
2.0
 31
3.0
1001
AME_SOL
1070
     1
1071
       18
  0
LINE
  8
0
 62
     0
  5
1A
 10
1.0
 20
2.0
 30
3.0
 11
1.0
 21
0.0
 31
3.0
1001
AME_SOL
1070
     1
1071
       17
  0
LINE
  8
0
 62
     0
  5
1B
 10
0.0
 20
2.0
 30
3.0
 11
1.0
 21
2.0
 31
3.0
1001
AME_SOL
1070
     1
1071
       16
  0
LINE
  8
0
 62
     0
  5
1C
 10
0.0
 20
2.0
 30
0.0
 11
0.0
 21
2.0
 31
3.0
1001
AME_SOL
1070
     1
1071
       15
  0
LINE
  8
0
 62
     0
  5
1D
 10
0.0
 20
2.0
 30
3.0
 11
0.0
 21
0.0
 31
3.0
1001
AME_SOL
1070
     1
1071
       14
  0
LINE
  8
0
 62
     0
  5
1E
 10
0.0
 20
0.0
 30
0.0
 11
0.0
 21
0.0
 31
3.0
1001
AME_SOL
1070
     1
1071
       13
  0
LINE
  8
0
 62
     0
  5
1F
 10
1.0
 20
0.0
 30
3.0
 11
1.0
 21
0.0
 31
0.0
1001
AME_SOL
1070
     1
1071
       12
  0
LINE
  8
0
 62
     0
  5
20
 10
0.0
 20
0.0
 30
3.0
 11
1.0
 21
0.0
 31
3.0
1001
AME_SOL
1070
     1
1071
       11
  0
LINE
  8
0
 62
     0
  5
21
 10
0.0
 20
0.0
 30
0.0
 11
1.0
 21
0.0
 31
0.0
1001
AME_SOL
1070
     1
1071
       10
  0
LINE
  8
0
 62
     0
  5
22
 10
0.0
 20
2.0
 30
0.0
 11
0.0
 21
0.0
 31
0.0
1001
AME_SOL
1070
     1
1071
        9
  0
LINE
  8
0
 62
     0
  5
23
 10
1.0
 20
0.0
 30
0.0
 11
1.0
 21
2.0
 31
0.0
1001
AME_SOL
1070
     1
1071
        8
  0
LINE
  8
0
 62
     0
  5
24
 10
1.0
 20
2.0
 30
0.0
 11
0.0
 21
2.0
 31
0.0
1001
AME_SOL
1070
     1
1071
        7
  0
ENDBLK
  8
0
  5
25
  0
BLOCK
  8
0
  5
29
  2
*U4
 70
    65
 10
0.0
 20
0.0
 30
0.0
  1
*U
  3
*U
  0
LINE
  8
0
 62
     0
  5
2A
 10
1.0
 20
1.0
 30
0.0
 11
1.0
 21
1.0
 31
1.0
1001
AME_SOL
1070
     1
1071
       18
  0
LINE
  8
0
 62
     0
  5
2B
 10
1.0
 20
1.0
 30
1.0
 11
1.0
 21
0.0
 31
1.0
1001
AME_SOL
1070
     1
1071
       17
  0
LINE
  8
0
 62
     0
  5
2C
 10
0.0
 20
1.0
 30
1.0
 11
1.0
 21
1.0
 31
1.0
1001
AME_SOL
1070
     1
1071
       16
  0
LINE
  8
0
 62
     0
  5
2D
 10
0.0
 20
1.0
 30
0.0
 11
0.0
 21
1.0
 31
1.0
1001
AME_SOL
1070
     1
1071
       15
  0
LINE
  8
0
 62
     0
  5
2E
 10
0.0
 20
1.0
 30
1.0
 11
0.0
 21
0.0
 31
1.0
1001
AME_SOL
1070
     1
1071
       14
  0
LINE
  8
0
 62
     0
  5
2F
 10
0.0
 20
0.0
 30
0.0
 11
0.0
 21
0.0
 31
1.0
1001
AME_SOL
1070
     1
1071
       13
  0
LINE
  8
0
 62
     0
  5
30
 10
1.0
 20
0.0
 30
1.0
 11
1.0
 21
0.0
 31
0.0
1001
AME_SOL
1070
     1
1071
       12
  0
LINE
  8
0
 62
     0
  5
31
 10
0.0
 20
0.0
 30
1.0
 11
1.0
 21
0.0
 31
1.0
1001
AME_SOL
1070
     1
1071
       11
  0
LINE
  8
0
 62
     0
  5
32
 10
0.0
 20
0.0
 30
0.0
 11
1.0
 21
0.0
 31
0.0
1001
AME_SOL
1070
     1
1071
       10
  0
LINE
  8
0
 62
     0
  5
33
 10
0.0
 20
1.0
 30
0.0
 11
0.0
 21
0.0
 31
0.0
1001
AME_SOL
1070
     1
1071
        9
  0
LINE
  8
0
 62
     0
  5
34
 10
1.0
 20
0.0
 30
0.0
 11
1.0
 21
1.0
 31
0.0
1001
AME_SOL
1070
     1
1071
        8
  0
LINE
  8
0
 62
     0
  5
35
 10
1.0
 20
1.0
 30
0.0
 11
0.0
 21
1.0
 31
0.0
1001
AME_SOL
1070
     1
1071
        7
  0
ENDBLK
  8
0
  5
36
  0
BLOCK
  8
0
  5
3C
  2
*U5
 70
    65
 10
0.0
 20
0.0
 30
0.0
  1
*U
  3
*U
  0
LINE
  8
0
 62
     7
  5
3D
 10
3.0
 20
3.0
 30
0.0
 11
3.0
 21
3.0
 31
2.0
1001
AME_SOL
1070
     1
1071
       41
  0
LINE
  8
0
 62
     7
  5
3E
 10
3.0
 20
2.0
 30
3.0
 11
3.0
 21
0.0
 31
3.0
1001
AME_SOL
1070
     1
1071
       40
  0
LINE
  8
0
 62
     7
  5
3F
 10
0.0
 20
3.0
 30
3.0
 11
1.0
 21
3.0
 31
3.0
1001
AME_SOL
1070
     1
1071
       39
  0
LINE
  8
0
 62
     7
  5
40
 10
0.0
 20
3.0
 30
0.0
 11
0.0
 21
3.0
 31
3.0
1001
AME_SOL
1070
     1
1071
       38
  0
LINE
  8
0
 62
     7
  5
41
 10
0.0
 20
3.0
 30
3.0
 11
0.0
 21
0.0
 31
3.0
1001
AME_SOL
1070
     1
1071
       37
  0
LINE
  8
0
 62
     7
  5
42
 10
0.0
 20
0.0
 30
0.0
 11
0.0
 21
0.0
 31
3.0
1001
AME_SOL
1070
     1
1071
       36
  0
LINE
  8
0
 62
     7
  5
43
 10
3.0
 20
0.0
 30
3.0
 11
3.0
 21
0.0
 31
0.0
1001
AME_SOL
1070
     1
1071
       35
  0
LINE
  8
0
 62
     7
  5
44
 10
0.0
 20
0.0
 30
3.0
 11
3.0
 21
0.0
 31
3.0
1001
AME_SOL
1070
     1
1071
       34
  0
LINE
  8
0
 62
     7
  5
45
 10
0.0
 20
0.0
 30
0.0
 11
3.0
 21
0.0
 31
0.0
1001
AME_SOL
1070
     1
1071
       33
  0
LINE
  8
0
 62
     7
  5
46
 10
0.0
 20
3.0
 30
0.0
 11
0.0
 21
0.0
 31
0.0
1001
AME_SOL
1070
     1
1071
       32
  0
LINE
  8
0
 62
     7
  5
47
 10
3.0
 20
0.0
 30
0.0
 11
3.0
 21
3.0
 31
0.0
1001
AME_SOL
1070
     1
1071
       31
  0
LINE
  8
0
 62
     7
  5
48
 10
1.0
 20
3.0
 30
0.0
 11
0.0
 21
3.0
 31
0.0
1001
AME_SOL
1070
     1
1071
       30
  0
LINE
  8
0
 62
     7
  5
49
 10
3.0
 20
3.0
 30
0.0
 11
2.0
 21
3.0
 31
0.0
1001
AME_SOL
1070
     1
1071
       29
  0
LINE
  8
0
 62
     7
  5
4A
 10
2.0
 20
3.0
 30
0.0
 11
2.0
 21
1.0
 31
0.0
1001
AME_SOL
1070
     1
1071
       28
  0
LINE
  8
0
 62
     7
  5
4B
 10
2.0
 20
3.0
 30
2.0
 11
2.0
 21
3.0
 31
0.0
1001
AME_SOL
1070
     1
1071
       27
  0
LINE
  8
0
 62
     7
  5
4C
 10
2.0
 20
1.0
 30
3.0
 11
2.0
 21
2.0
 31
3.0
1001
AME_SOL
1070
     1
1071
       26
  0
LINE
  8
0
 62
     7
  5
4D
 10
1.0
 20
1.0
 30
0.0
 11
1.0
 21
3.0
 31
0.0
1001
AME_SOL
1070
     1
1071
       25
  0
LINE
  8
0
 62
     7
  5
4E
 10
1.0
 20
3.0
 30
0.0
 11
1.0
 21
3.0
 31
3.0
1001
AME_SOL
1070
     1
1071
       24
  0
LINE
  8
0
 62
     7
  5
4F
 10
1.0
 20
3.0
 30
3.0
 11
1.0
 21
1.0
 31
3.0
1001
AME_SOL
1070
     1
1071
       23
  0
LINE
  8
0
 62
     7
  5
50
 10
2.0
 20
1.0
 30
0.0
 11
1.0
 21
1.0
 31
0.0
1001
AME_SOL
1070
     1
1071
       22
  0
LINE
  8
0
 62
     7
  5
51
 10
1.0
 20
1.0
 30
0.0
 11
1.0
 21
1.0
 31
3.0
1001
AME_SOL
1070
     1
1071
       21
  0
LINE
  8
0
 62
     7
  5
52
 10
1.0
 20
1.0
 30
3.0
 11
2.0
 21
1.0
 31
3.0
1001
AME_SOL
1070
     1
1071
       20
  0
LINE
  8
0
 62
     7
  5
53
 10
2.0
 20
1.0
 30
3.0
 11
2.0
 21
1.0
 31
0.0
1001
AME_SOL
1070
     1
1071
       19
  0
LINE
  8
0
 62
     7
  5
54
 10
3.0
 20
2.0
 30
3.0
 11
3.0
 21
2.0
 31
2.0
1001
AME_SOL
1070
     1
1071
       18
  0
LINE
  8
0
 62
     7
  5
55
 10
2.0
 20
2.0
 30
3.0
 11
3.0
 21
2.0
 31
3.0
1001
AME_SOL
1070
     1
1071
       17
  0
LINE
  8
0
 62
     7
  5
56
 10
2.0
 20
2.0
 30
3.0
 11
2.0
 21
2.0
 31
2.0
1001
AME_SOL
1070
     1
1071
       16
  0
LINE
  8
0
 62
     7
  5
57
 10
3.0
 20
2.0
 30
2.0
 11
3.0
 21
3.0
 31
2.0
1001
AME_SOL
1070
     1
1071
       15
  0
LINE
  8
0
 62
     7
  5
58
 10
3.0
 20
3.0
 30
2.0
 11
2.0
 21
3.0
 31
2.0
1001
AME_SOL
1070
     1
1071
       14
  0
LINE
  8
0
 62
     7
  5
59
 10
2.0
 20
2.0
 30
2.0
 11
2.0
 21
3.0
 31
2.0
1001
AME_SOL
1070
     1
1071
       13
  0
LINE
  8
0
 62
     7
  5
5A
 10
2.0
 20
2.0
 30
2.0
 11
3.0
 21
2.0
 31
2.0
1001
AME_SOL
1070
     1
1071
       12
  0
ENDBLK
  8
0
  5
5B
  0
BLOCK
  8
0
  5
5F
  2
*U6
 70
    65
 10
0.0
 20
0.0
 30
0.0
  1
*U
  3
*U
  0
POLYLINE
  8
0
 62
     7
  5
60
 66
     1
 10
0.0
 20
0.0
 30
0.0
 70
    64
  0
VERTEX
  8
0
  5
61
 10
3.0
 20
2.0
 30
2.0
 70
   192
  0
VERTEX
  8
0
  5
62
 10
3.0
 20
0.0
 30
3.0
 70
   192
  0
VERTEX
  8
0
  5
63
 10
3.0
 20
3.0
 30
0.0
 70
   192
  0
VERTEX
  8
0
  5
64
 10
3.0
 20
3.0
 30
2.0
 70
   192
  0
VERTEX
  8
0
  5
65
 10
3.0
 20
0.0
 30
0.0
 70
   192
  0
VERTEX
  8
0
  5
66
 10
3.0
 20
2.0
 30
3.0
 70
   192
  0
VERTEX
  8
0
 62
     7
  5
67
 10
0.0
 20
0.0
 30
0.0
 70
   128
 71
    -1
 72
    -2
 73
    -3
  0
VERTEX
  8
0
 62
     7
  5
68
 10
0.0
 20
0.0
 30
0.0
 70
   128
 71
     3
 72
     4
 73
    -1
  0
VERTEX
  8
0
 62
     7
  5
69
 10
0.0
 20
0.0
 30
0.0
 70
   128
 71
     2
 72
     5
 73
    -3
  0
VERTEX
  8
0
 62
     7
  5
6A
 10
0.0
 20
0.0
 30
0.0
 70
   128
 71
     1
 72
     6
 73
    -2
  0
SEQEND
  8
0
 62
     7
  5
6B
  0
POLYLINE
  8
0
 62
     7
  5
6C
 66
     1
 10
0.0
 20
0.0
 30
0.0
 70
    64
  0
VERTEX
  8
0
  5
6D
 10
3.0
 20
3.0
 30
0.0
 70
   192
  0
VERTEX
  8
0
  5
6E
 10
2.0
 20
3.0
 30
0.0
 70
   192
  0
VERTEX
  8
0
  5
6F
 10
2.0
 20
3.0
 30
2.0
 70
   192
  0
VERTEX
  8
0
  5
70
 10
3.0
 20
3.0
 30
2.0
 70
   192
  0
VERTEX
  8
0
  5
71
 10
1.0
 20
3.0
 30
0.0
 70
   192
  0
VERTEX
  8
0
  5
72
 10
0.0
 20
3.0
 30
0.0
 70
   192
  0
VERTEX
  8
0
  5
73
 10
0.0
 20
3.0
 30
3.0
 70
   192
  0
VERTEX
  8
0
  5
74
 10
1.0
 20
3.0
 30
3.0
 70
   192
  0
VERTEX
  8
0
 62
     7
  5
75
 10
0.0
 20
0.0
 30
0.0
 70
   128
 71
     1
 72
     2
 73
    -3
  0
VERTEX
  8
0
 62
     7
  5
76
 10
0.0
 20
0.0
 30
0.0
 70
   128
 71
     3
 72
     4
 73
    -1
  0
VERTEX
  8
0
 62
     7
  5
77
 10
0.0
 20
0.0
 30
0.0
 70
   128
 71
     5
 72
     6
 73
    -7
  0
VERTEX
  8
0
 62
     7
  5
78
 10
0.0
 20
0.0
 30
0.0
 70
   128
 71
     7
 72
     8
 73
    -5
  0
SEQEND
  8
0
 62
     7
  5
79
  0
POLYLINE
  8
0
 62
     7
  5
7A
 66
     1
 10
0.0
 20
0.0
 30
0.0
 70
    64
  0
VERTEX
  8
0
  5
7B
 10
1.0
 20
1.0
 30
3.0
 70
   192
  0
VERTEX
  8
0
  5
7C
 10
0.0
 20
0.0
 30
3.0
 70
   192
  0
VERTEX
  8
0
  5
7D
 10
2.0
 20
1.0
 30
3.0
 70
   192
  0
VERTEX
  8
0
  5
7E
 10
3.0
 20
0.0
 30
3.0
 70
   192
  0
VERTEX
  8
0
  5
7F
 10
0.0
 20
3.0
 30
3.0
 70
   192
  0
VERTEX
  8
0
  5
80
 10
1.0
 20
3.0
 30
3.0
 70
   192
  0
VERTEX
  8
0
  5
81
 10
2.0
 20
2.0
 30
3.0
 70
   192
  0
VERTEX
  8
0
  5
82
 10
3.0
 20
2.0
 30
3.0
 70
   192
  0
VERTEX
  8
0
 62
     7
  5
83
 10
0.0
 20
0.0
 30
0.0
 70
   128
 71
    -1
 72
    -2
 73
     3
  0
VERTEX
  8
0
 62
     7
  5
84
 10
0.0
 20
0.0
 30
0.0
 70
   128
 71
     2
 72
    -4
 73
    -3
  0
VERTEX
  8
0
 62
     7
  5
85
 10
0.0
 20
0.0
 30
0.0
 70
   128
 71
    -1
 72
     5
 73
    -2
  0
VERTEX
  8
0
 62
     7
  5
86
 10
0.0
 20
0.0
 30
0.0
 70
   128
 71
     1
 72
     6
 73
    -5
  0
VERTEX
  8
0
 62
     7
  5
87
 10
0.0
 20
0.0
 30
0.0
 70
   128
 71
    -4
 72
     7
 73
    -3
  0
VERTEX
  8
0
 62
     7
  5
88
 10
0.0
 20
0.0
 30
0.0
 70
   128
 71
     4
 72
     8
 73
    -7
  0
SEQEND
  8
0
 62
     7
  5
89
  0
POLYLINE
  8
0
 62
     7
  5
8A
 66
     1
 10
0.0
 20
0.0
 30
0.0
 70
    64
  0
VERTEX
  8
0
  5
8B
 10
0.0
 20
0.0
 30
0.0
 70
   192
  0
VERTEX
  8
0
  5
8C
 10
0.0
 20
0.0
 30
3.0
 70
   192
  0
VERTEX
  8
0
  5
8D
 10
0.0
 20
3.0
 30
3.0
 70
   192
  0
VERTEX
  8
0
  5
8E
 10
0.0
 20
3.0
 30
0.0
 70
   192
  0
VERTEX
  8
0
 62
     7
  5
8F
 10
0.0
 20
0.0
 30
0.0
 70
   128
 71
     1
 72
     2
 73
    -3
  0
VERTEX
  8
0
 62
     7
  5
90
 10
0.0
 20
0.0
 30
0.0
 70
   128
 71
     3
 72
     4
 73
    -1
  0
SEQEND
  8
0
 62
     7
  5
91
  0
POLYLINE
  8
0
 62
     7
  5
92
 66
     1
 10
0.0
 20
0.0
 30
0.0
 70
    64
  0
VERTEX
  8
0
  5
93
 10
3.0
 20
0.0
 30
0.0
 70
   192
  0
VERTEX
  8
0
  5
94
 10
3.0
 20
0.0
 30
3.0
 70
   192
  0
VERTEX
  8
0
  5
95
 10
0.0
 20
0.0
 30
0.0
 70
   192
  0
VERTEX
  8
0
  5
96
 10
0.0
 20
0.0
 30
3.0
 70
   192
  0
VERTEX
  8
0
 62
     7
  5
97
 10
0.0
 20
0.0
 30
0.0
 70
   128
 71
     1
 72
    -2
 73
     3
  0
VERTEX
  8
0
 62
     7
  5
98
 10
0.0
 20
0.0
 30
0.0
 70
   128
 71
     2
 72
     4
 73
    -3
  0
SEQEND
  8
0
 62
     7
  5
99
  0
POLYLINE
  8
0
 62
     7
  5
9A
 66
     1
 10
0.0
 20
0.0
 30
0.0
 70
    64
  0
VERTEX
  8
0
  5
9B
 10
2.0
 20
1.0
 30
0.0
 70
   192
  0
VERTEX
  8
0
  5
9C
 10
0.0
 20
0.0
 30
0.0
 70
   192
  0
VERTEX
  8
0
  5
9D
 10
1.0
 20
1.0
 30
0.0
 70
   192
  0
VERTEX
  8
0
  5
9E
 10
3.0
 20
0.0
 30
0.0
 70
   192
  0
VERTEX
  8
0
  5
9F
 10
2.0
 20
3.0
 30
0.0
 70
   192
  0
VERTEX
  8
0
  5
A0
 10
1.0
 20
3.0
 30
0.0
 70
   192
  0
VERTEX
  8
0
  5
A1
 10
0.0
 20
3.0
 30
0.0
 70
   192
  0
VERTEX
  8
0
  5
A2
 10
3.0
 20
3.0
 30
0.0
 70
   192
  0
VERTEX
  8
0
 62
     7
  5
A3
 10
0.0
 20
0.0
 30
0.0
 70
   128
 71
    -1
 72
    -2
 73
     3
  0
VERTEX
  8
0
 62
     7
  5
A4
 10
0.0
 20
0.0
 30
0.0
 70
   128
 71
    -1
 72
     4
 73
    -2
  0
VERTEX
  8
0
 62
     7
  5
A5
 10
0.0
 20
0.0
 30
0.0
 70
   128
 71
     1
 72
    -5
 73
    -4
  0
VERTEX
  8
0
 62
     7
  5
A6
 10
0.0
 20
0.0
 30
0.0
 70
   128
 71
    -2
 72
     6
 73
    -3
  0
VERTEX
  8
0
 62
     7
  5
A7
 10
0.0
 20
0.0
 30
0.0
 70
   128
 71
     2
 72
     7
 73
    -6
  0
VERTEX
  8
0
 62
     7
  5
A8
 10
0.0
 20
0.0
 30
0.0
 70
   128
 71
     5
 72
     8
 73
    -4
  0
SEQEND
  8
0
 62
     7
  5
A9
  0
POLYLINE
  8
0
 62
     7
  5
AA
 66
     1
 10
0.0
 20
0.0
 30
0.0
 70
    64
  0
VERTEX
  8
0
  5
AB
 10
2.0
 20
2.0
 30
2.0
 70
   192
  0
VERTEX
  8
0
  5
AC
 10
2.0
 20
1.0
 30
0.0
 70
   192
  0
VERTEX
  8
0
  5
AD
 10
2.0
 20
3.0
 30
2.0
 70
   192
  0
VERTEX
  8
0
  5
AE
 10
2.0
 20
1.0
 30
3.0
 70
   192
  0
VERTEX
  8
0
  5
AF
 10
2.0
 20
2.0
 30
3.0
 70
   192
  0
VERTEX
  8
0
  5
B0
 10
2.0
 20
3.0
 30
0.0
 70
   192
  0
VERTEX
  8
0
 62
     7
  5
B1
 10
0.0
 20
0.0
 30
0.0
 70
   128
 71
     1
 72
    -3
 73
    -2
  0
VERTEX
  8
0
 62
     7
  5
B2
 10
0.0
 20
0.0
 30
0.0
 70
   128
 71
    -1
 72
     2
 73
    -4
  0
VERTEX
  8
0
 62
     7
  5
B3
 10
0.0
 20
0.0
 30
0.0
 70
   128
 71
    -1
 72
     4
 73
     5
  0
VERTEX
  8
0
 62
     7
  5
B4
 10
0.0
 20
0.0
 30
0.0
 70
   128
 71
    -2
 72
     3
 73
     6
  0
SEQEND
  8
0
 62
     7
  5
B5
  0
POLYLINE
  8
0
 62
     7
  5
B6
 66
     1
 10
0.0
 20
0.0
 30
0.0
 70
    64
  0
VERTEX
  8
0
  5
B7
 10
1.0
 20
1.0
 30
3.0
 70
   192
  0
VERTEX
  8
0
  5
B8
 10
1.0
 20
3.0
 30
3.0
 70
   192
  0
VERTEX
  8
0
  5
B9
 10
1.0
 20
3.0
 30
0.0
 70
   192
  0
VERTEX
  8
0
  5
BA
 10
1.0
 20
1.0
 30
0.0
 70
   192
  0
VERTEX
  8
0
 62
     7
  5
BB
 10
0.0
 20
0.0
 30
0.0
 70
   128
 71
    -1
 72
     3
 73
     2
  0
VERTEX
  8
0
 62
     7
  5
BC
 10
0.0
 20
0.0
 30
0.0
 70
   128
 71
    -3
 72
     1
 73
     4
  0
SEQEND
  8
0
 62
     7
  5
BD
  0
POLYLINE
  8
0
 62
     7
  5
BE
 66
     1
 10
0.0
 20
0.0
 30
0.0
 70
    64
  0
VERTEX
  8
0
  5
BF
 10
2.0
 20
1.0
 30
3.0
 70
   192
  0
VERTEX
  8
0
  5
C0
 10
1.0
 20
1.0
 30
3.0
 70
   192
  0
VERTEX
  8
0
  5
C1
 10
2.0
 20
1.0
 30
0.0
 70
   192
  0
VERTEX
  8
0
  5
C2
 10
1.0
 20
1.0
 30
0.0
 70
   192
  0
VERTEX
  8
0
 62
     7
  5
C3
 10
0.0
 20
0.0
 30
0.0
 70
   128
 71
     1
 72
    -3
 73
     2
  0
VERTEX
  8
0
 62
     7
  5
C4
 10
0.0
 20
0.0
 30
0.0
 70
   128
 71
    -2
 72
     3
 73
     4
  0
SEQEND
  8
0
 62
     7
  5
C5
  0
POLYLINE
  8
0
 62
     7
  5
C6
 66
     1
 10
0.0
 20
0.0
 30
0.0
 70
    64
  0
VERTEX
  8
0
  5
C7
 10
3.0
 20
2.0
 30
2.0
 70
   192
  0
VERTEX
  8
0
  5
C8
 10
2.0
 20
2.0
 30
3.0
 70
   192
  0
VERTEX
  8
0
  5
C9
 10
2.0
 20
2.0
 30
2.0
 70
   192
  0
VERTEX
  8
0
  5
CA
 10
3.0
 20
2.0
 30
3.0
 70
   192
  0
VERTEX
  8
0
 62
     7
  5
CB
 10
0.0
 20
0.0
 30
0.0
 70
   128
 71
     1
 72
     3
 73
    -2
  0
VERTEX
  8
0
 62
     7
  5
CC
 10
0.0
 20
0.0
 30
0.0
 70
   128
 71
    -1
 72
     2
 73
     4
  0
SEQEND
  8
0
 62
     7
  5
CD
  0
POLYLINE
  8
0
 62
     7
  5
CE
 66
     1
 10
0.0
 20
0.0
 30
0.0
 70
    64
  0
VERTEX
  8
0
  5
CF
 10
2.0
 20
3.0
 30
2.0
 70
   192
  0
VERTEX
  8
0
  5
D0
 10
3.0
 20
3.0
 30
2.0
 70
   192
  0
VERTEX
  8
0
  5
D1
 10
3.0
 20
2.0
 30
2.0
 70
   192
  0
VERTEX
  8
0
  5
D2
 10
2.0
 20
2.0
 30
2.0
 70
   192
  0
VERTEX
  8
0
 62
     7
  5
D3
 10
0.0
 20
0.0
 30
0.0
 70
   128
 71
    -1
 72
     3
 73
     2
  0
VERTEX
  8
0
 62
     7
  5
D4
 10
0.0
 20
0.0
 30
0.0
 70
   128
 71
    -3
 72
     1
 73
     4
  0
SEQEND
  8
0
 62
     7
  5
D5
  0
ENDBLK
  8
0
  5
D6
  0
BLOCK
  8
0
  5
D8
  2
AME_MAT
 70
    64
 10
0.0
 20
0.0
 30
0.0
  1
AME_MAT
  3
AME_MAT
  0
ENDBLK
  8
0
  5
D9
  0
ENDSEC
  0
SECTION
  2
ENTITIES
  0
INSERT
  8
AME_FRZ
  5
3
  2
AME_NIL
 10
0.0
 20
0.0
 30
0.0
  0
INSERT
  8
AME_FRZ
  5
6
  2
AME_SOL
 10
0.0
 20
0.0
 30
0.0
1001
AME_SOL
1000
1.0
1000
sq cm
1070
     3
1070
     0
1070
     3
1000
wire
1040
0.0
1000
NONE
1040
1.0
1000
cm
1000
gm
1000
MILD_STEEL
1070
    25
1000
CSG
1070
     3
1070
     2
1070
     3
1000
cu cm
1070
     4
1070
     0
1005
3
  0
INSERT
  8
AME_FRZ
  5
15
  2
*U2
 10
0.0
 20
0.0
 30
0.0
1001
AME_SOL
1002
{
1070
     0
1071
  2125272
1070
  1536
1010
3.0
1020
3.0
1030
3.0
1005
0
1005
0
1005
5C
1040
0.0
1040
1.0
1000
MILD_STEEL
1000
0
1010
0.0
1020
0.0
1030
0.0
1010
0.0
1020
0.0
1030
1.0
1040
0.0
1002
}
  0
INSERT
  8
AME_FRZ
  5
26
  2
*U3
 10
1.0
 20
1.0
 30
0.0
1001
AME_SOL
1002
{
1070
     0
1071
  1919120
1070
  1536
1010
1.0
1020
2.0
1030
3.0
1005
0
1005
0
1005
3A
1040
0.0
1040
1.0
1000
MILD_STEEL
1000
0
1010
1.0
1020
1.0
1030
0.0
1010
0.0
1020
0.0
1030
1.0
1040
0.0
1002
}
  0
INSERT
  8
AME_FRZ
  5
37
  2
*U4
 10
2.0
 20
2.0
 30
2.0
1001
AME_SOL
1002
{
1070
     0
1071
  2002168
1070
  1536
1010
1.0
1020
1.0
1030
1.0
1005
0
1005
0
1005
3A
1040
0.0
1040
1.0
1000
MILD_STEEL
1000
0
1010
2.0
1020
2.0
1030
2.0
1010
0.0
1020
0.0
1030
1.0
1040
0.0
1002
}
  0
INSERT
  8
AME_FRZ
  5
3A
  2
AME_NIL
 10
0.0
 20
0.0
 30
0.0
1001
AME_SOL
1002
{
1070
     0
1071
  1991672
1070
   775
1070
     2
1005
26
1005
37
1005
0
1005
0
1005
5C
1040
0.0
1040
1.0
1000
MILD_STEEL
1000
0
1010
0.0
1020
0.0
1030
0.0
1010
0.0
1020
0.0
1030
1.0
1040
0.0
1002
}
  0
INSERT
  8
0
  5
5C
  2
*U6
 10
0.0
 20
0.0
 30
0.0
1001
AME_SOL
1002
{
1070
     0
1071
  1939512
1070
  9223
1070
     0
1005
15
1005
3A
1005
D7
1005
5D
1005
0
1040
60.000001
1040
1.0
1000
MILD_STEEL
1000
0
1002
}
  0
INSERT
  8
AME_FRZ
  5
5D
  2
AME_NIL
 10
1.0
 20
1.0
 30
1.0
1001
AME_SOL
1004
E903A9FB0100F0FFFFFF000052F70B0001000000E14626BAE14626BAE14626BA650A4040650A4040650A404001000000FBF2040000F4FF3F00F4FF3F00F4FF3F0006404000064040000600400100844E105C1C00FFFF0000010032010000844E0000000000000000803F000000000000803F000000000000
1004
000000000040000000400000004005000000000000000000000000000000000000000000844E0000000000000000803F000000000000803F0000000000000000000000400000004000000040050000000000000000000000000000000000FFFFFFFFFBF2040000F4FF3F00F4FF3F00F4FF3F000640400006
1004
0040000640400100844E90CD1D00FFFF0000010031010000844E00000000803F000000000000000000000000000000000000803F00000040000000400000004005000000000000000000000000000000000000000000844E00000000803F000000000000000000000000000000000000803F000000400000
1004
004000000040050000000000000000000000000000000000FFFFFFFFFBF2040011E27F3F11E27F3F5077EFB97C070040F80E803F7B0740400100844E08C71D00FFFF0000010095010000844E00000000803F000000000000000000000000000000000000803F0000803F0000803F00000000050000000000
1004
00000000000000000000000000000000844E00000000803F000000000000000000000000000000000000803F0000803F0000803F00000000050000000000000000000000000000000000FFFFFFFFFBF2040011E27F3F11E27F3F5077EFB9F80E803F7B0740407B0740400100844EE8C71D00FFFF00000100
1004
94010000844E000000000000000000000000803F000000000000803F000000000000803F0000803F0000000005000000000000000000000000000000000000000000844E000000000000000000000000803F000000000000803F000000000000803F0000803F000000000500000000000000000000000000
1004
00000000FFFFFFFFFBF2060008F1FF3F11E27F3F5077EFB97C0700407B0740407B0740400100844E88C61D00FFFF0000010091010000844E000000000080000080BF000000800000008000000080000080BF00000040000040400000404005000000000000000000000000000000000000000000844E0000
1004
00000080000080BF000000800000008000000080000080BF000000400000404000004040050000000000000000000000000000000000FFFFFFFFFBF20800E14626BAE14626BAE14626BA650A4040650A4040E146263A0100844E28B91D00010000000100FA010000844E0000000000000000803F00000000
1004
0000803F000000000000000000000000000000000000000005000000000000000000000000000000000000000000844E0000000000000000803F000000000000803F000000000000000000000000000000000000000005000000000000000000000000000000000001000000FBF20400E14626BAE14626BA
1004
E14626BA650A4040E146263A650A40400100844EB8B91D00010000000100F9010000844E00000000803F000000000000000000000000000000000000803F00000000000000000000000005000000000000000000000000000000000000000000844E00000000803F00000000000000000000000000000000
1004
0000803F00000000000000000000000005000000000000000000000000000000000001000000FBF20400E14626BAE14626BAE14626BAE146263A650A4040650A40400100844E70B91D00010000000100F8010000844E000000000000000000000000803F000000000000803F000000000000000000000000
1004
0000000005000000000000000000000000000000000000000000844E000000000000000000000000803F000000000000803F0000000000000000000000000000000005000000000000000000000000000000000001000000FBF20800E14626BAE14626BA9BF53F40650A4040650A4040650A40400100844E
1004
E0B81D00010000000100F7010000844E0000000080BF000000800000008000000080000080BF0000008000004040000040400000404005000000000000000000000000000000000000000000844E0000000080BF000000800000008000000080000080BF0000008000004040000040400000404005000000
1004
000000000000000000000000000001000000FBF20800E14626BA9BF53F40E14626BA650A4040650A4040650A40400100844E98471D00010000000100F6010000844E00000000008000000080000080BF000080BF000000800000008000004040000040400000404005000000000000000000000000000000
1004
000000000000844E00000000008000000080000080BF000080BF000000800000008000004040000040400000404005000000000000000000000000000000000001000000FBF206009BF53F40E14626BAE14626BA650A4040650A4040650A40400100844E88461D00010000000100F5010000844E00000000
1004
0080000080BF000000800000008000000080000080BF00004040000040400000404005000000000000000000000000000000000000000000844E000000000080000080BF000000800000008000000080000080BF00004040000040400000404005000000000000000000000000000000000001000000A4EE
1004
00F4FF3F00F4FF3F00F4FF3F00064040000600400006004000000000FFFF7F3F02009675887D200000000100FFFF105C1C0090CD1D000000020090CD1D00105C1C00FFFFFFFFFFFFFFFF9675000000000000000080BF000000000000000000000000000080BF000000400000004000000040020000000000
1004
FFFF7F3FA4EE00F4FF3F00F4FF3F00F4FF3F7C0700400006404000060040010000BFFCFFFF3E02009675506D20000000FFFF0100105C1C0088C61D0000000200105C1C0088C61D00FFFFFFFFFFFFFFFF967500000000803F00000000000000000000000000000000000080BF000000400000204000000040
1004
0200010000BFFCFFFF3EA4EE00F4FF3F9BF53F4000F4FF3F000640400006404000060040FCFFFFBE0100003F02009675186A200000000100FFFF105C1C0098471D000000020098471D00105C1C0001000000FFFFFFFF96750000000000000000803F000000000000000000000000000080BF000020400000
1004
4040000000400200FCFFFFBE0100003FA4EE9BF53F4000F4FF3F00F4FF3F000640400006404000060040010000BFFCFFFF3E02009675E0651C0000000100FFFF105C1C0088461D000000020088461D00105C1C0001000000FFFFFFFF967500000000803F00000000000000000000000000000000000080BF
1004
0000404000002040000000400200010000BFFCFFFF3EA4EE00F4FF3F00F4FF3F00F4FF3F7C0700400006004000064040FCFFFFBE0100003F02009675E84B1D000000FFFF010090CD1D0088C61D000000020090CD1D0088C61D00FFFFFFFFFFFFFFFF967500000000803F0000000000000000000000000000
1004
80BF000000000000004000000040000020400200FCFFFFBE0100003FA4EE00F4FF3F00F4FF3F9BF53F40000640400006004000064040010000BFFCFFFF3E02009675A04B1D0000000100FFFF90CD1D00E0B81D0000000200E0B81D0090CD1D0001000000FFFFFFFF9675000000000000000000000000803F
1004
00000000000080BF000000000000204000000040000040400200010000BFFCFFFF3EA4EE9BF53F4000F4FF3F00F4FF3F000640400006004000064040FCFFFFBE0100003F0200967570561D0000000100FFFF90CD1D0088461D000000020088461D0090CD1D0001000000FFFFFFFF967500000000803F0000
1004
00000000000000000000000080BF000000000000404000000040000020400200FCFFFFBE0100003FA4EE08F1FF3F11E27F3F5077EFB97C070040F80E803F7B0740400000C0BF0000C03F0200967500571D0000000100FFFF08C71D0088C61D000000020088C61D0008C71D00FFFFFFFFFFFFFFFF96750000
1004
0000803F000000000000000000000000000080BF00000000000000400000803F0000C03F02000000C0BF0000C03FA4EE11E27F3F11E27F3F9BF53F407C070040F80E803F7B074040000080BF000000800200967590571D0000000100FFFF08C71D00E0B81D0000000200E0B81D0008C71D0001000000FFFF
1004
FFFF9675000000000000000000000000803F00000000000080BF00000000000000400100803F000040400200000080BF00000080A4EE11E27F3F11E27F3F5077EFB9F80E803FF80E803F7B074040000000000000404002009675805B1D0000000100FFFF08C71D00E8C71D0000000200E8C71D0008C71D00
1004
FFFFFFFFFFFFFFFF96750000000080BF000000000000000000000000000080BF000000000000803F0000803F0000000002000000000000004040A4EE11E27F3F11E27F3F5077EFB97C070040F80E803FE146263A0000C0BF000000BF0200967588591D0000000100FFFF08C71D0028B91D000000020028B9
1004
1D0008C71D0001000000FFFFFFFF967500000000000000000000000080BF00000000000080BF000000000000003F0000803F0000000002000000C0BF000000BFA4EE11E27F3F11E27F3F9BF53F40F80E803F7B0740407B074040FFFF7FBF0000803F0200967500561D0000000100FFFFE8C71D00E0B81D00
1004
00000200E0B81D00E8C71D0001000000FFFFFFFF9675000000000000000000000000803F000080BF00000000000000000100803F00000040000040400200FFFF7FBF0000803FA4EE11E27F3F9BF53F405077EFB9F80E803F7B0740407B0740400000C0BF0000C03F02009675584A1D0000000100FFFFE8C7
1004
1D0098471D000000020098471D00E8C71D0001000000FFFFFFFF96750000000000000000803F00000000000080BF00000000000000000100803F000040400000C03F02000000C0BF0000C03FA4EE11E27F3F11E27F3F5077EFB9F80E803F7B074040E146263A0000003FFFFF1F4002009675F06B1D000000
1004
0100FFFFE8C71D0028B91D000000020028B91D00E8C71D0001000000FFFFFFFF967500000000000000000000000080BF000080BF00000000000000000000803F0000003F0000000002000000003FFFFF1F40A4EE08F1FF3F11E27F3F9BF53F407C0700407B0740407B074040FFFFFFBFFFFF7FBF02009675
1004
A0BA1D0000000100FFFF88C61D00E0B81D0000000200E0B81D0088C61D0001000000FFFFFFFF9675000000000000000000000000803F0000803F00000000000000000000004000004040000040400200FFFFFFBFFFFF7FBFA4EE08F1FF3F9BF53F405077EFB97C0700407B0740407B074040FFFF7F3F0000
1004
40400200967590BB1D0000000100FFFF88C61D0098471D000000020098471D0088C61D0001000000FFFFFFFF96750000000000000000803F000000000000803F00000080000000000000004000004040000040400200FFFF7F3F00004040A4EE08F1FF3F11E27F3F5077EFB97C0700407B074040E146263A
1004
0000C0BFFFFFFF3E0200967580BC1D0000000100FFFF88C61D0028B91D000000020028B91D0088C61D0001000000FFFFFFFF967500000000000000000000000080BF0000803F0000000000000000000000400000C03F0000000002000000C0BFFFFFFF3EA4EEE14626BA9BF53F40E14626BA650A4040650A
1004
4040E146263A0000C0BF010000BF0200967570BD1D000000FFFF010028B91D0098471D000000020028B91D0098471D00010000000100000096750000000000000000803F000000000000000000000000000080BF0000C03F000040400000000002000000C0BF010000BFA4EEE14626BA9BF53F40E14626BA
1004
650A4040650A4040E146263AFFFFFF3E0000C03F0200967560BE1D000000FFFF010028B91D0098471D000000020028B91D0098471D00010000000100000096750000000000000000803F000000000000000000000000000080BF0000C03F00004040000000000200FFFFFF3E0000C03FA4EE9BF53F40E146
1004
26BAE14626BA650A4040650A4040E146263A0000C0BF0000C03F0200967550BF1D000000FFFF010028B91D0088461D000000020028B91D0088461D000100000001000000967500000000803F00000000000000000000000000000000000080BF000040400000C03F0000000002000000C0BF0000C03FA4EE
1004
E14626BAE14626BAE14626BAE146263A650A4040E146263A000040C0000000800200967540C01D000000FFFF010028B91D0070B91D000000020028B91D0070B91D00010000000100000096750000000080BF00000000000000000000000000000000000080BF0000000000000000000000000200000040C0
1004
00000080A4EEE14626BAE14626BAE14626BA650A4040E146263AE146263A000000000000404002009675883E1D000000FFFF010028B91D00B8B91D000000020028B91D00B8B91D0001000000010000009675000000000000000080BF000000000000000000000000000080BF000000000000000000000000
1004
02000000000000004040A4EEE14626BAE14626BA9BF53F40650A4040E146263A650A40400000C0BF0000C03F02009675783F1D000000FFFF0100B8B91D00E0B81D0000000200B8B91D00E0B81D0001000000010000009675000000000000000000000000803F00000000000080BF000000000000C03F0000
1004
00000000404002000000C0BF0000C03FA4EE9BF53F40E14626BAE14626BA650A4040E146263A650A40400000C0BF0000C03F0200967568401D000000FFFF0100B8B91D0088461D0000000200B8B91D0088461D000100000001000000967500000000803F000000000000000000000000000080BF00000000
1004
00004040000000000000C03F02000000C0BF0000C03FA4EEE14626BAE14626BAE14626BAE146263AE146263A650A404000000000000040400200967558411D000000FFFF0100B8B91D0070B91D0000000200B8B91D0070B91D00010000000100000096750000000080BF0000000000000000000000000000
1004
80BF0000000000000000000000000000000002000000000000004040A4EEE14626BAE14626BA9BF53F40E146263A650A4040650A40400000C0BF0000C03F0200967548421D000000FFFF010070B91D00E0B81D000000020070B91D00E0B81D0001000000010000009675000000000000000000000000803F
1004
000080BF0000000000000000000000000000C03F0000404002000000C0BF0000C03FA4EEE14626BA9BF53F40E14626BAE146263A650A4040650A40400000C0BF0000C03F0200967538431D000000FFFF010070B91D0098471D000000020070B91D0098471D00010000000100000096750000000000000000
1004
803F00000000000080BF000000000000000000000000000040400000C03F02000000C0BF0000C03FA4EEE14626BA9BF53F409BF53F40650A4040650A4040650A4040000040C0FFFFFFBF0200967578441D000000FFFF0100E0B81D0098471D0000000200E0B81D0098471D00010000000100000096750000
1004
000000000000803F0000000000000000000000000000803F0000404000004040000040400200000040C0FFFFFFBFA4EE9BF53F40E14626BA9BF53F40650A4040650A4040650A4040FFFF7F3F0000404002009675A8E81D000000FFFF0100E0B81D0088461D0000000200E0B81D0088461D00010000000100
1004
0000967500000000803F000000000000000000000080000000000000803F0000404000004040000040400200FFFF7F3F00004040A4EE9BF53F409BF53F40E14626BA650A4040650A4040650A4040000040C0FFFF7FBF0200967598E91D000000FFFF010098471D0088461D000000020098471D0088461D00
1004
0100000001000000967500000000803F0000000000000000000000000000803F000000000000404000004040000040400200000040C0FFFF7FBF19FC
1005
5E
  0
INSERT
  8
AME_FRZ
  5
5E
  2
AME_NIL
 10
1.0
 20
1.0
 30
1.0
1001
AME_SOL
1004

1005
0
  0
INSERT
  8
AME_FRZ
  5
D7
  2
*U5
 10
0.0
 20
0.0
 30
0.0
  0
INSERT
  8
AME_FRZ
  5
DA
  2
AME_MAT
 10
0.0
 20
0.0
 30
0.0
1001
AME_SOL
1000
MILD_STEEL
1040
7860.0
1040
220.0
1040
0.275
1040
207.0
1040
345.0
1040
56.0
1040
12.0
1040
0.46
  0
ENDSEC
  0
EOF
