700 0 2 0           
24 FBMach with ACIS - 7.0.3 13 ACIS 7.0.3 NT 24 Tue May 14 14:31:16 2002 
1 9.9999999999999995e-007 1e-010 
body $2 -1 $-1 $3 $-1 $4 #
bdycol-kcp $-1 -1 1 6 $5 $6 $7 $8 $9 $10 #
model_id-kcp-attrib $-1 -1 $-1 $-1 $0 1 1021401075 1021401076 -902692863 1 #
lump $-1 -1 $-1 $-1 $11 $0 #
transform $-1 -1 1 0 0 0 1 0 0 0 1 0 0 0 1 rotate no_reflect no_shear #
body $12 -1 $-1 $13 $-1 $14 #
body $15 -1 $-1 $16 $-1 $17 #
body $18 -1 $-1 $19 $-1 $20 #
body $21 -1 $-1 $22 $-1 $23 #
body $24 -1 $-1 $25 $-1 $26 #
body $27 -1 $-1 $28 $-1 $29 #
shell $-1 -1 $-1 $-1 $-1 $30 $-1 $3 #
model_id-kcp-attrib $-1 -1 $-1 $-1 $5 1 1021401075 1021401076 -902692862 1 #
lump $-1 -1 $-1 $-1 $31 $5 #
transform $-1 -1 1 0 0 0 1 0 0 0 1 0 0 -9.7225000000000001 1 no_rotate no_reflect no_shear #
rgb_color-st-attrib $-1 -1 $32 $-1 $6 1 1 0.5 #
lump $-1 -1 $-1 $-1 $33 $6 #
transform $-1 -1 1 0 0 0 -1 0 0 0 -1 0 0 -10.574999999999999 1 rotate no_reflect no_shear #
rgb_color-st-attrib $-1 -1 $34 $-1 $7 1 1 0.5 #
lump $-1 -1 $-1 $-1 $35 $7 #
transform $-1 -1 1 0 0 0 1 0 0 0 1 0 0 -8.8554999999999993 1 rotate no_reflect no_shear #
rgb_color-st-attrib $-1 -1 $36 $-1 $8 1 0.5 1 #
lump $-1 -1 $-1 $-1 $37 $8 #
transform $-1 -1 1 0 0 0 1 0 0 0 1 0 0 -9.7225000000000001 1 no_rotate no_reflect no_shear #
rgb_color-st-attrib $-1 -1 $38 $-1 $9 1 0.5 1 #
lump $-1 -1 $-1 $-1 $39 $9 #
transform $-1 -1 1 0 0 0 1 0 0 0 1 0 0 -9.7225000000000001 1 no_rotate no_reflect no_shear #
rgb_color-st-attrib $-1 -1 $40 $-1 $10 0.5 1 1 #
lump $-1 -1 $-1 $-1 $41 $10 #
transform $-1 -1 1 0 0 0 1 0 0 0 1 0 0 -9.7225000000000001 1 no_rotate no_reflect no_shear #
face $42 -1 $-1 $43 $44 $11 $-1 $45 reversed single #
shell $-1 -1 $-1 $-1 $-1 $46 $-1 $13 #
model_id-kcp-attrib $-1 -1 $-1 $15 $6 1 1021401075 1021401076 -901382141 1 #
shell $-1 -1 $-1 $-1 $-1 $47 $-1 $16 #
model_id-kcp-attrib $-1 -1 $-1 $18 $7 1 1021401075 1021401076 -901382140 1 #
shell $-1 -1 $-1 $-1 $-1 $48 $-1 $19 #
model_id-kcp-attrib $-1 -1 $-1 $21 $8 1 1021401075 1021401076 -901119994 1 #
shell $-1 -1 $-1 $-1 $-1 $49 $-1 $22 #
model_id-kcp-attrib $-1 -1 $-1 $24 $9 1 1021401075 1021401076 -896466937 1 #
shell $-1 -1 $-1 $-1 $-1 $50 $-1 $25 #
model_id-kcp-attrib $-1 -1 $-1 $27 $10 1 1021401075 1021401076 -895483899 1 #
shell $-1 -1 $-1 $-1 $-1 $51 $-1 $28 #
model_id-kcp-attrib $-1 -1 $-1 $-1 $30 1 1021401075 1021401076 -902692863 2 #
face $52 -1 $-1 $53 $54 $11 $-1 $55 reversed single #
loop $-1 -1 $-1 $-1 $56 $30 #
plane-surface $-1 -1 $-1 0 0 -10.605 0 0 1 1 0 0 forward_v I I I I #
face $57 -1 $-1 $58 $59 $31 $-1 $60 forward single #
face $-1 -1 $-1 $61 $62 $33 $-1 $63 reversed single #
face $-1 -1 $-1 $64 $65 $35 $-1 $66 reversed single #
face $-1 -1 $-1 $67 $68 $37 $-1 $69 forward single #
face $-1 -1 $-1 $70 $71 $39 $-1 $72 forward single #
face $-1 -1 $-1 $73 $74 $41 $-1 $75 reversed single #
model_id-kcp-attrib $-1 -1 $-1 $-1 $43 1 1021401075 1021401076 -902692863 3 #
face $76 -1 $-1 $77 $78 $11 $-1 $79 reversed single #
loop $-1 -1 $-1 $80 $81 $43 #
plane-surface $-1 -1 $-1 0 0 -10.026 0 0 1 1 0 0 forward_v I I I I #
coedge $-1 -1 $-1 $56 $56 $82 $83 reversed $44 $-1 #
model_id-kcp-attrib $-1 -1 $-1 $-1 $46 1 1021401075 1021401076 -902692862 3 #
face $84 -1 $-1 $85 $86 $31 $-1 $87 reversed single #
loop $-1 -1 $-1 $-1 $88 $46 #
plane-surface $-1 -1 $-1 0 0 0.88250000000000028 0 0 1 1 0 0 forward_v I I I I #
face $-1 -1 $-1 $89 $90 $33 $-1 $91 forward single #
loop $-1 -1 $-1 $92 $93 $47 #
cone-surface $-1 -1 $-1 0 0 0.032500000000000639 0 0 1 0.0625 0 0 1 I I -0.70710678118654746 0.70710678118654746 0.0625 forward I I I I #
face $-1 -1 $-1 $94 $95 $35 $-1 $96 forward single #
loop $-1 -1 $-1 $97 $98 $48 #
cone-surface $-1 -1 $-1 0 0 0.11724999999999852 0 0 1 0.13275000000000001 0 0 1 I I -0.70710678118654835 0.70710678118654668 0.13275000000000001 forward I I I I #
face $-1 -1 $-1 $99 $100 $37 $-1 $101 forward single #
loop $-1 -1 $-1 $102 $103 $49 #
cone-surface $-1 -1 $-1 0 0 0.83650000000000002 0 0 -1 -0.2185 0 0 1 I I 0 -1 0.2185 forward I I I I #
face $-1 -1 $-1 $104 $105 $39 $-1 $106 forward single #
loop $-1 -1 $-1 $107 $108 $50 #
cone-surface $-1 -1 $-1 0 0 0.36850000000000005 0 0 -1 -0.1875 0 0 1 I I 0 -1 0.1875 forward I I I I #
face $-1 -1 $-1 $109 $110 $41 $-1 $75 reversed single #
loop $-1 -1 $-1 $-1 $111 $51 #
cone-surface $-1 -1 $-1 -9.953998041094437e-034 0 -0.88250000000000028 0 0 -1 0.26550000000000001 0 0 1 I I 0 1 0.26550000000000001 forward I I I I #
model_id-kcp-attrib $-1 -1 $-1 $-1 $53 1 1021401075 1021401076 -902692863 4 #
face $112 -1 $-1 $113 $114 $11 $-1 $115 reversed single #
loop $-1 -1 $-1 $116 $117 $53 #
plane-surface $-1 -1 $-1 0 0 -9.3539999999999992 0 0 1 1 0 0 forward_v I I I I #
loop $-1 -1 $-1 $-1 $118 $43 #
coedge $-1 -1 $-1 $81 $81 $119 $120 forward $54 $-1 #
coedge $-1 -1 $-1 $82 $82 $56 $83 forward $121 $-1 #
edge $122 -1 $-1 $123 0 $123 6.2831853071795862 $82 $124 forward @7 unknown #
model_id-kcp-attrib $-1 -1 $-1 $-1 $58 1 1021401075 1021401076 -902692862 2 #
face $-1 -1 $-1 $125 $126 $31 $-1 $127 reversed single #
loop $-1 -1 $-1 $-1 $128 $58 #
plane-surface $-1 -1 $-1 0 0 -0.88250000000000028 0 0 1 1 0 0 forward_v I I I I #
coedge $-1 -1 $-1 $129 $130 $131 $132 forward $59 $-1 #
face $-1 -1 $-1 $-1 $133 $33 $-1 $134 forward single #
loop $-1 -1 $-1 $135 $136 $61 #
cone-surface $-1 -1 $-1 0 0 0 0 0 1 0.125 0 0 1 I I 0 1 0.125 forward I I I I #
loop $-1 -1 $-1 $-1 $137 $47 #
coedge $-1 -1 $-1 $93 $93 $138 $139 reversed $62 $-1 #
face $-1 -1 $-1 $-1 $140 $35 $-1 $141 forward single #
loop $-1 -1 $-1 $142 $143 $64 #
cone-surface $-1 -1 $-1 0 0 0 0 0 1 0.26550000000000001 0 0 1 I I 0 1 0.26550000000000001 forward I I I I #
loop $-1 -1 $-1 $-1 $144 $48 #
coedge $-1 -1 $-1 $98 $98 $145 $146 reversed $65 $-1 #
face $-1 -1 $-1 $147 $148 $37 $-1 $149 reversed single #
loop $-1 -1 $-1 $150 $151 $67 #
cone-surface $-1 -1 $-1 -9.953998041094437e-034 0 0.83650000000000002 0 0 -1 0.26550000000000001 0 0 1 I I 0 1 0.26550000000000001 forward I I I I #
loop $-1 -1 $-1 $-1 $152 $49 #
coedge $-1 -1 $-1 $103 $103 $153 $154 forward $68 $-1 #
face $-1 -1 $-1 $155 $156 $39 $-1 $157 reversed single #
loop $-1 -1 $-1 $158 $159 $70 #
cone-surface $-1 -1 $-1 -9.953998041094437e-034 0 0.36850000000000005 0 0 -1 0.26550000000000001 0 0 1 I I 0 1 0.26550000000000001 forward I I I I #
loop $-1 -1 $-1 $-1 $160 $50 #
coedge $-1 -1 $-1 $108 $108 $161 $162 forward $71 $-1 #
face $-1 -1 $-1 $163 $164 $41 $-1 $75 reversed single #
loop $-1 -1 $-1 $-1 $165 $73 #
coedge $-1 -1 $-1 $166 $167 $168 $169 forward $74 $-1 #
model_id-kcp-attrib $-1 -1 $-1 $-1 $77 1 1021401075 1021401076 -902692863 5 #
face $170 -1 $-1 $171 $172 $11 $-1 $173 forward single #
loop $-1 -1 $-1 $174 $175 $77 #
plane-surface $-1 -1 $-1 0 0 -8.8859999999999992 0 0 1 1 0 0 forward_v I I I I #
loop $-1 -1 $-1 $-1 $176 $53 #
coedge $-1 -1 $-1 $117 $117 $177 $178 forward $78 $-1 #
coedge $-1 -1 $-1 $118 $118 $179 $180 reversed $80 $-1 #
coedge $-1 -1 $-1 $119 $119 $81 $120 reversed $181 $-1 #
edge $-1 -1 $-1 $182 -3.1415926535897931 $182 3.1415926535897931 $119 $183 forward @7 unknown #
loop $-1 -1 $-1 $184 $82 $171 #
attrib_edge_convexity-kcp-attrib $-1 -1 $185 $-1 $83 1 #
vertex $-1 -1 $-1 $83 $186 #
ellipse-curve $-1 -1 $-1 0 0 -10.605 0 0 1 0.065000000000000002 0 0 1 I I #
face $-1 -1 $-1 $187 $188 $31 $-1 $189 reversed single #
loop $-1 -1 $-1 $-1 $190 $85 #
plane-surface $-1 -1 $-1 0 -0.26550000000000001 0 0 1 0 0 0 1 forward_v I I I I #
coedge $-1 -1 $-1 $191 $192 $193 $194 forward $86 $-1 #
coedge $-1 -1 $-1 $195 $88 $196 $197 forward $59 $-1 #
coedge $-1 -1 $-1 $88 $195 $198 $199 forward $59 $-1 #
coedge $-1 -1 $-1 $200 $201 $88 $132 reversed $202 $-1 #
edge $-1 -1 $-1 $203 -0.26550000000000001 $204 0.26550000000000001 $131 $205 forward @7 unknown #
loop $-1 -1 $-1 $206 $138 $89 #
plane-surface $-1 -1 $-1 0 0 0.030000000000000249 0 0 1 1 0 0 forward_v I I I I #
loop $-1 -1 $-1 $-1 $207 $61 #
coedge $-1 -1 $-1 $136 $136 $137 $208 reversed $90 $-1 #
coedge $-1 -1 $-1 $137 $137 $136 $208 forward $92 $-1 #
coedge $-1 -1 $-1 $138 $138 $93 $139 forward $133 $-1 #
edge $-1 -1 $-1 $209 -3.1415926535897931 $209 3.1415926535897931 $138 $210 forward @7 unknown #
loop $-1 -1 $-1 $211 $145 $94 #
plane-surface $-1 -1 $-1 0 0 0.015500000000000291 0 0 1 1 0 0 forward_v I I I I #
loop $-1 -1 $-1 $-1 $212 $64 #
coedge $-1 -1 $-1 $143 $143 $144 $213 reversed $95 $-1 #
coedge $-1 -1 $-1 $144 $144 $143 $213 forward $97 $-1 #
coedge $-1 -1 $-1 $145 $145 $98 $146 forward $140 $-1 #
edge $-1 -1 $-1 $214 -3.1415926535897931 $214 3.1415926535897931 $145 $215 forward @7 unknown #
face $-1 -1 $-1 $-1 $216 $37 $-1 $217 forward single #
loop $-1 -1 $-1 $218 $219 $99 #
plane-surface $-1 -1 $-1 -0.022207456799398943 4.2265352002426253e-018 0.36850000000000005 1.0425180592542922e-031 -2.0850361185085848e-032 1 1 0 -1.0425180592542922e-031 forward_v I I I I #
loop $-1 -1 $-1 $-1 $220 $67 #
coedge $-1 -1 $-1 $151 $151 $219 $221 forward $100 $-1 #
coedge $-1 -1 $-1 $152 $152 $222 $223 reversed $102 $-1 #
coedge $-1 -1 $-1 $153 $153 $103 $154 reversed $218 $-1 #
edge $-1 -1 $-1 $224 0 $224 6.2831853071795862 $103 $225 forward @7 unknown #
face $-1 -1 $-1 $-1 $226 $39 $-1 $227 forward single #
loop $-1 -1 $-1 $228 $229 $104 #
plane-surface $-1 -1 $-1 -0.021201384708007216 1.4832174802104493e-018 -0.30350000000000055 0 0 1 1 0 0 forward_v I I I I #
loop $-1 -1 $-1 $-1 $230 $70 #
coedge $-1 -1 $-1 $159 $159 $229 $231 forward $105 $-1 #
coedge $-1 -1 $-1 $160 $160 $232 $233 reversed $107 $-1 #
coedge $-1 -1 $-1 $161 $161 $108 $162 reversed $228 $-1 #
edge $-1 -1 $-1 $234 0 $234 6.2831853071795862 $108 $235 forward @7 unknown #
face $-1 -1 $-1 $236 $237 $41 $-1 $75 reversed single #
loop $-1 -1 $-1 $-1 $238 $109 #
coedge $-1 -1 $-1 $239 $168 $240 $241 reversed $110 $-1 #
coedge $-1 -1 $-1 $242 $111 $243 $244 reversed $74 $-1 #
coedge $-1 -1 $-1 $111 $242 $245 $246 reversed $74 $-1 #
coedge $-1 -1 $-1 $165 $247 $248 $169 reversed $110 $-1 #
edge $-1 -1 $-1 $249 -1.7650000000000006 $250 0 $248 $251 forward @7 unknown #
model_id-kcp-attrib $-1 -1 $-1 $-1 $113 1 1021401075 1021401076 -902692863 6 #
face $252 -1 $-1 $253 $121 $11 $-1 $254 forward single #
loop $-1 -1 $-1 $-1 $255 $113 #
plane-surface $-1 -1 $-1 0 0 -8.8399999999999999 0 0 1 1 0 0 forward_v I I I I #
loop $-1 -1 $-1 $-1 $256 $77 #
coedge $-1 -1 $-1 $175 $175 $257 $258 forward $114 $-1 #
coedge $-1 -1 $-1 $176 $176 $259 $260 reversed $116 $-1 #
coedge $-1 -1 $-1 $177 $177 $117 $178 reversed $261 $-1 #
edge $262 -1 $-1 $263 -3.1415926535897931 $263 3.1415926535897931 $177 $264 forward @7 unknown #
coedge $-1 -1 $-1 $179 $179 $118 $180 forward $265 $-1 #
edge $-1 -1 $-1 $266 0 $266 6.2831853071795862 $179 $267 forward @7 unknown #
loop $-1 -1 $-1 $-1 $119 $268 #
vertex $-1 -1 $-1 $120 $269 #
ellipse-curve $-1 -1 $-1 0 0 -10.026 0 0 1 0.095000000000000001 0 0 1 I I #
loop $-1 -1 $-1 $-1 $270 $171 #
convexity-sys-attrib $-1 -1 $-1 $122 $83 #
point $-1 -1 $-1 0.065000000000000002 0 -10.605 #
face $-1 -1 $-1 $271 $272 $31 $-1 $273 reversed single #
loop $-1 -1 $-1 $-1 $274 $125 #
plane-surface $-1 -1 $-1 -0.26550000000000001 0 0 1 0 0 0 0 -1 forward_v I I I I #
coedge $-1 -1 $-1 $275 $198 $276 $277 forward $126 $-1 #
coedge $-1 -1 $-1 $278 $128 $275 $279 forward $86 $-1 #
coedge $-1 -1 $-1 $128 $278 $280 $281 forward $86 $-1 #
coedge $-1 -1 $-1 $201 $200 $128 $194 reversed $202 $-1 #
edge $-1 -1 $-1 $282 -0.26550000000000001 $283 0.26550000000000001 $193 $284 forward @7 unknown #
coedge $-1 -1 $-1 $130 $129 $285 $286 forward $59 $-1 #
coedge $-1 -1 $-1 $287 $288 $129 $197 reversed $272 $-1 #
edge $-1 -1 $-1 $204 -0.26550000000000001 $289 0.26550000000000001 $196 $290 forward @7 unknown #
coedge $-1 -1 $-1 $190 $291 $130 $199 reversed $126 $-1 #
edge $-1 -1 $-1 $292 -0.26550000000000001 $203 0.26550000000000001 $198 $293 forward @7 unknown #
coedge $-1 -1 $-1 $193 $131 $291 $294 forward $202 $-1 #
coedge $-1 -1 $-1 $131 $193 $287 $295 reversed $202 $-1 #
loop $-1 -1 $-1 $-1 $200 $271 #
vertex $-1 -1 $-1 $132 $296 #
vertex $-1 -1 $-1 $132 $297 #
straight-curve $-1 -1 $-1 0.26550000000000001 0 0.88250000000000028 0 1 0 I I #
loop $-1 -1 $-1 $-1 $298 $89 #
coedge $-1 -1 $-1 $207 $207 $298 $299 reversed $135 $-1 #
edge $-1 -1 $-1 $300 0 $300 6.2831853071795862 $136 $301 forward @7 unknown #
vertex $-1 -1 $-1 $139 $302 #
ellipse-curve $-1 -1 $-1 0 0 0.030000000000000249 0 0 -1 0.065000000000000391 0 0 1 I I #
loop $-1 -1 $-1 $-1 $303 $94 #
coedge $-1 -1 $-1 $212 $212 $303 $304 reversed $142 $-1 #
edge $-1 -1 $-1 $305 0 $305 6.2831853071795862 $143 $306 forward @7 unknown #
vertex $-1 -1 $-1 $146 $307 #
ellipse-curve $-1 -1 $-1 0 0 0.015500000000000291 0 0 -1 0.23449999999999849 0 0 1 I I #
loop $-1 -1 $-1 $308 $309 $147 #
plane-surface $-1 -1 $-1 -0.022207456799398943 4.2265352002426253e-018 0.83650000000000002 1.0425180592542922e-031 -2.0850361185085848e-032 1 1 0 -1.0425180592542922e-031 forward_v I I I I #
loop $-1 -1 $-1 $-1 $153 $99 #
coedge $-1 -1 $-1 $219 $219 $151 $221 reversed $148 $-1 #
coedge $-1 -1 $-1 $220 $220 $309 $310 reversed $150 $-1 #
edge $-1 -1 $-1 $311 -3.1415926535897931 $311 3.1415926535897931 $151 $312 forward @7 unknown #
coedge $-1 -1 $-1 $222 $222 $152 $223 forward $308 $-1 #
edge $313 -1 $-1 $314 0 $314 6.2831853071795862 $152 $315 forward @7 unknown #
vertex $-1 -1 $-1 $154 $316 #
ellipse-curve $-1 -1 $-1 0 0 0.36850000000000005 0 0 -1 -0.2185 0 0 1 I I #
loop $-1 -1 $-1 $317 $318 $155 #
plane-surface $-1 -1 $-1 -0.021201384708007216 1.4832174802104493e-018 0.36850000000000005 0 0 1 1 0 0 forward_v I I I I #
loop $-1 -1 $-1 $-1 $161 $104 #
coedge $-1 -1 $-1 $229 $229 $159 $231 reversed $156 $-1 #
coedge $-1 -1 $-1 $230 $230 $318 $319 reversed $158 $-1 #
edge $-1 -1 $-1 $320 -3.1415926535897931 $320 3.1415926535897931 $159 $321 forward @7 unknown #
coedge $-1 -1 $-1 $232 $232 $160 $233 forward $317 $-1 #
edge $322 -1 $-1 $323 0 $323 6.2831853071795862 $160 $324 forward @7 unknown #
vertex $-1 -1 $-1 $162 $325 #
ellipse-curve $-1 -1 $-1 0 0 -0.30350000000000055 0 0 -1 -0.1875 0 0 1 I I #
face $-1 -1 $-1 $326 $327 $41 $-1 $328 reversed single #
loop $-1 -1 $-1 $-1 $329 $163 #
coedge $-1 -1 $-1 $330 $331 $332 $333 reversed $164 $-1 #
coedge $-1 -1 $-1 $247 $165 $334 $335 forward $110 $-1 #
coedge $-1 -1 $-1 $336 $337 $165 $241 forward $338 $-1 #
edge $-1 -1 $-1 $339 -3.1415926535897931 $249 -1.5707963267948966 $240 $340 forward @7 unknown #
coedge $-1 -1 $-1 $167 $166 $341 $342 reversed $74 $-1 #
coedge $-1 -1 $-1 $343 $344 $166 $244 forward $345 $-1 #
edge $-1 -1 $-1 $346 0 $250 1.5707963267948966 $243 $347 forward @7 unknown #
coedge $-1 -1 $-1 $348 $349 $167 $246 forward $350 $-1 #
edge $-1 -1 $-1 $249 -1.5707963267948966 $351 0 $245 $340 forward @7 unknown #
coedge $-1 -1 $-1 $168 $239 $352 $353 reversed $110 $-1 #
coedge $-1 -1 $-1 $354 $355 $356 $169 forward $357 $-1 #
vertex $-1 -1 $-1 $358 $359 #
vertex $-1 -1 $-1 $360 $361 #
straight-curve $-1 -1 $-1 -9.953998041094437e-034 0.26550000000000001 -0.88250000000000028 0 0 -1 I I #
model_id-kcp-attrib $-1 -1 $-1 $-1 $171 1 1021401075 1021401076 -902692863 7 #
face $362 -1 $-1 $363 $364 $11 $-1 $365 forward single #
cone-surface $-1 -1 $-1 0 0 -10.545 0 0 1 0.125 0 0 1 I I 0.70710678118654702 0.70710678118654802 0.125 forward I I I I #
coedge $-1 -1 $-1 $255 $255 $366 $367 forward $172 $-1 #
coedge $-1 -1 $-1 $256 $256 $368 $369 reversed $174 $-1 #
coedge $-1 -1 $-1 $257 $257 $175 $258 reversed $370 $-1 #
edge $371 -1 $-1 $372 -3.1415926535897931 $372 3.1415926535897931 $257 $373 forward @7 unknown #
coedge $-1 -1 $-1 $259 $259 $176 $260 forward $374 $-1 #
edge $375 -1 $-1 $376 0 $376 6.2831853071795862 $259 $377 forward @7 unknown #
loop $-1 -1 $-1 $-1 $177 $378 #
attrib_edge_convexity-kcp-attrib $-1 -1 $379 $-1 $178 2 #
vertex $-1 -1 $-1 $178 $380 #
ellipse-curve $-1 -1 $-1 0 0 -9.3539999999999992 0 0 1 0.1875 0 0 1 I I #
loop $-1 -1 $-1 $261 $179 $378 #
vertex $-1 -1 $-1 $180 $381 #
ellipse-curve $-1 -1 $-1 0 0 -10.026 0 0 1 0.1875 0 0 1 I I #
face $382 -1 $-1 $378 $383 $11 $-1 $384 forward single #
point $-1 -1 $-1 -0.095000000000000001 0 -10.026 #
coedge $-1 -1 $-1 $270 $270 $385 $386 reversed $184 $-1 #
face $-1 -1 $-1 $-1 $202 $31 $-1 $387 reversed single #
loop $-1 -1 $-1 $-1 $287 $187 #
plane-surface $-1 -1 $-1 0 0.26550000000000001 0 0 -1 0 0 0 -1 forward_v I I I I #
coedge $-1 -1 $-1 $388 $285 $288 $389 forward $188 $-1 #
coedge $-1 -1 $-1 $291 $190 $191 $279 reversed $126 $-1 #
coedge $-1 -1 $-1 $285 $388 $190 $277 reversed $188 $-1 #
edge $-1 -1 $-1 $292 -0.88250000000000028 $390 0.88250000000000028 $276 $391 forward @7 unknown #
coedge $-1 -1 $-1 $192 $191 $388 $392 forward $86 $-1 #
edge $-1 -1 $-1 $283 -0.26550000000000001 $390 0.26550000000000001 $275 $393 forward @7 unknown #
coedge $-1 -1 $-1 $288 $287 $192 $281 reversed $272 $-1 #
edge $-1 -1 $-1 $394 -0.26550000000000001 $282 0.26550000000000001 $280 $395 forward @7 unknown #
vertex $-1 -1 $-1 $194 $396 #
vertex $-1 -1 $-1 $294 $397 #
straight-curve $-1 -1 $-1 0.26550000000000001 0 -0.88250000000000028 0 -1 0 I I #
coedge $-1 -1 $-1 $274 $276 $195 $286 reversed $188 $-1 #
edge $-1 -1 $-1 $289 -0.26550000000000001 $292 0.26550000000000001 $285 $398 forward @7 unknown #
coedge $-1 -1 $-1 $280 $196 $201 $295 forward $272 $-1 #
coedge $-1 -1 $-1 $196 $280 $274 $389 reversed $272 $-1 #
vertex $-1 -1 $-1 $197 $399 #
straight-curve $-1 -1 $-1 0 0.26550000000000001 0.88250000000000028 -1 0 0 I I #
coedge $-1 -1 $-1 $198 $275 $200 $294 reversed $126 $-1 #
vertex $-1 -1 $-1 $286 $400 #
straight-curve $-1 -1 $-1 0 -0.26550000000000001 0.88250000000000028 1 0 0 I I #
edge $-1 -1 $-1 $203 -0.88250000000000028 $283 0.88250000000000028 $200 $401 forward @7 unknown #
edge $-1 -1 $-1 $204 -0.88250000000000028 $282 0.88250000000000028 $201 $402 forward @7 unknown #
point $-1 -1 $-1 0.26550000000000001 -0.26550000000000001 0.88250000000000028 #
point $-1 -1 $-1 0.26550000000000001 0.26550000000000001 0.88250000000000028 #
coedge $-1 -1 $-1 $298 $298 $207 $299 forward $206 $-1 #
edge $-1 -1 $-1 $403 0 $403 6.2831853071795862 $298 $404 forward @7 unknown #
vertex $-1 -1 $-1 $208 $405 #
ellipse-curve $-1 -1 $-1 0 0 -0.030000000000000249 0 0 -1 0.125 0 0 1 I I #
point $-1 -1 $-1 -0.065000000000000391 7.9599412998455004e-018 0.030000000000000249 #
coedge $-1 -1 $-1 $303 $303 $212 $304 forward $211 $-1 #
edge $-1 -1 $-1 $406 0 $406 6.2831853071795862 $303 $407 forward @7 unknown #
vertex $-1 -1 $-1 $213 $408 #
ellipse-curve $-1 -1 $-1 0 0 -0.015500000000000291 0 0 -1 0.26550000000000001 0 0 1 I I #
point $-1 -1 $-1 -0.23449999999999849 2.8717018997134562e-017 0.015500000000000291 #
loop $-1 -1 $-1 $-1 $222 $147 #
coedge $-1 -1 $-1 $309 $309 $220 $310 forward $216 $-1 #
edge $409 -1 $-1 $410 -3.1415926535897931 $410 3.1415926535897931 $220 $411 forward @7 unknown #
vertex $-1 -1 $-1 $221 $412 #
ellipse-curve $-1 -1 $-1 -9.953998041094437e-034 0 0.36850000000000005 0 0 1 0.26550000000000001 0 0 1 I I #
convexity-sys-attrib $-1 -1 $-1 $-1 $223 #
vertex $-1 -1 $-1 $223 $413 #
ellipse-curve $-1 -1 $-1 0 0 0.83650000000000002 0 0 -1 -0.2185 0 0 1 I I #
point $-1 -1 $-1 -0.2185 0 0.36850000000000094 #
loop $-1 -1 $-1 $-1 $232 $155 #
coedge $-1 -1 $-1 $318 $318 $230 $319 forward $226 $-1 #
edge $414 -1 $-1 $415 -3.1415926535897931 $415 3.1415926535897931 $230 $416 forward @7 unknown #
vertex $-1 -1 $-1 $231 $417 #
ellipse-curve $-1 -1 $-1 -9.953998041094437e-034 0 -0.30350000000000055 0 0 1 0.26550000000000001 0 0 1 I I #
convexity-sys-attrib $-1 -1 $-1 $-1 $233 #
vertex $-1 -1 $-1 $233 $418 #
ellipse-curve $-1 -1 $-1 0 0 0.36850000000000005 0 0 -1 -0.1875 0 0 1 I I #
point $-1 -1 $-1 -0.1875 0 -0.30349999999999966 #
face $-1 -1 $-1 $419 $357 $41 $-1 $420 reversed single #
loop $-1 -1 $-1 $-1 $341 $236 #
plane-surface $-1 -1 $-1 0.26550000000000001 0 0 -1 0 0 0 0 1 forward_v I I I I #
coedge $-1 -1 $-1 $334 $421 $422 $423 reversed $237 $-1 #
coedge $-1 -1 $-1 $424 $238 $425 $426 reversed $164 $-1 #
coedge $-1 -1 $-1 $238 $424 $242 $342 forward $164 $-1 #
coedge $-1 -1 $-1 $427 $428 $238 $333 forward $429 $-1 #
edge $-1 -1 $-1 $430 -1.5707963267948966 $346 0 $332 $347 forward @7 unknown #
coedge $-1 -1 $-1 $431 $329 $432 $335 reversed $237 $-1 #
edge $-1 -1 $-1 $339 -1.7650000000000006 $433 0 $432 $434 forward @7 unknown #
coedge $-1 -1 $-1 $337 $240 $355 $358 forward $338 $-1 #
coedge $-1 -1 $-1 $240 $336 $435 $436 forward $338 $-1 #
loop $-1 -1 $-1 $-1 $240 $437 #
vertex $-1 -1 $-1 $438 $439 #
ellipse-curve $-1 -1 $-1 -9.953998041094437e-034 0 0.88250000000000028 0 0 -1 0.26550000000000001 0 0 1 I I #
coedge $-1 -1 $-1 $440 $441 $442 $342 forward $327 $-1 #
edge $-1 -1 $-1 $351 -1.7650000000000006 $346 0 $341 $443 forward @7 unknown #
coedge $-1 -1 $-1 $344 $243 $444 $360 forward $345 $-1 #
coedge $-1 -1 $-1 $243 $343 $440 $445 forward $345 $-1 #
loop $-1 -1 $-1 $-1 $243 $446 #
vertex $-1 -1 $-1 $447 $448 #
ellipse-curve $-1 -1 $-1 -9.953998041094437e-034 0 -0.88250000000000028 0 0 1 0.26550000000000001 0 0 1 I I #
coedge $-1 -1 $-1 $349 $245 $441 $449 forward $350 $-1 #
coedge $-1 -1 $-1 $245 $348 $450 $451 forward $350 $-1 #
loop $-1 -1 $-1 $-1 $245 $452 #
vertex $-1 -1 $-1 $449 $453 #
coedge $-1 -1 $-1 $454 $455 $247 $353 forward $456 $-1 #
edge $-1 -1 $-1 $250 1.5707963267948966 $433 3.1415926535897931 $352 $347 forward @7 unknown #
coedge $-1 -1 $-1 $457 $248 $455 $458 reversed $357 $-1 #
coedge $-1 -1 $-1 $248 $457 $336 $358 reversed $357 $-1 #
coedge $-1 -1 $-1 $450 $444 $111 $169 reversed $459 $-1 #
loop $-1 -1 $-1 $-1 $248 $326 #
edge $-1 -1 $-1 $249 9.953998041094437e-034 $460 0.26550000000000001 $355 $461 forward @7 unknown #
point $-1 -1 $-1 -9.953998041094437e-034 0.26550000000000001 0.88250000000000028 #
edge $-1 -1 $-1 $250 -9.953998041094437e-034 $462 0.26550000000000001 $444 $463 forward @7 unknown #
point $-1 -1 $-1 -9.953998041094437e-034 0.26550000000000001 -0.88250000000000028 #
model_id-kcp-attrib $-1 -1 $-1 $-1 $253 1 1021401075 1021401076 -902692863 8 #
face $464 -1 $-1 $268 $465 $11 $-1 $466 forward single #
loop $-1 -1 $-1 $467 $385 $253 #
cone-surface $-1 -1 $-1 0 0 -8.7517499999999995 0 0 1 -0.125 0 0 1 I I 0 1 0.125 forward I I I I #
coedge $-1 -1 $-1 $366 $366 $255 $367 reversed $468 $-1 #
edge $469 -1 $-1 $470 -3.1415926535897931 $470 3.1415926535897931 $366 $471 forward @7 unknown #
coedge $-1 -1 $-1 $368 $368 $256 $369 forward $472 $-1 #
edge $473 -1 $-1 $474 0 $474 6.2831853071795862 $368 $475 forward @7 unknown #
loop $-1 -1 $-1 $-1 $257 $476 #
attrib_edge_convexity-kcp-attrib $-1 -1 $477 $-1 $258 2 #
vertex $-1 -1 $-1 $258 $478 #
ellipse-curve $-1 -1 $-1 0 0 -8.8859999999999992 0 0 1 0.2185 0 0 1 I I #
loop $-1 -1 $-1 $370 $259 $476 #
attrib_edge_convexity-kcp-attrib $-1 -1 $479 $-1 $260 1 #
vertex $-1 -1 $-1 $260 $480 #
ellipse-curve $-1 -1 $-1 0 0 -9.3539999999999992 0 0 1 0.2185 0 0 1 I I #
face $481 -1 $-1 $476 $265 $11 $-1 $482 forward single #
convexity-sys-attrib $-1 -1 $-1 $262 $178 #
point $-1 -1 $-1 -0.1875 0 -9.3539999999999992 #
point $-1 -1 $-1 0.1875 0 -10.026 #
model_id-kcp-attrib $-1 -1 $-1 $-1 $268 1 1021401075 1021401076 -902692863 10 #
loop $-1 -1 $-1 $181 $483 $268 #
cone-surface $-1 -1 $-1 0 0 -8.7517499999999995 0 0 1 -0.095000000000000001 0 0 1 I I 0 1 0.095000000000000001 forward I I I I #
coedge $-1 -1 $-1 $385 $385 $270 $386 forward $364 $-1 #
edge $484 -1 $-1 $485 -3.1415926535897931 $485 3.1415926535897931 $385 $486 forward @7 unknown #
plane-surface $-1 -1 $-1 0.26550000000000001 0 0 -1 0 0 0 0 1 forward_v I I I I #
coedge $-1 -1 $-1 $276 $274 $278 $392 reversed $188 $-1 #
edge $-1 -1 $-1 $289 -0.88250000000000028 $394 0.88250000000000028 $288 $487 forward @7 unknown #
vertex $-1 -1 $-1 $392 $488 #
straight-curve $-1 -1 $-1 -0.26550000000000001 -0.26550000000000001 0 0 0 -1 I I #
edge $-1 -1 $-1 $390 -0.26550000000000001 $394 0.26550000000000001 $388 $489 forward @7 unknown #
straight-curve $-1 -1 $-1 0 -0.26550000000000001 -0.88250000000000028 -1 0 0 I I #
vertex $-1 -1 $-1 $281 $490 #
straight-curve $-1 -1 $-1 0 0.26550000000000001 -0.88250000000000028 1 0 0 I I #
point $-1 -1 $-1 0.26550000000000001 0.26550000000000001 -0.88250000000000028 #
point $-1 -1 $-1 0.26550000000000001 -0.26550000000000001 -0.88250000000000028 #
straight-curve $-1 -1 $-1 -0.26550000000000001 0 0.88250000000000028 0 -1 0 I I #
point $-1 -1 $-1 -0.26550000000000001 0.26550000000000001 0.88250000000000028 #
point $-1 -1 $-1 -0.26550000000000001 -0.26550000000000001 0.88250000000000028 #
straight-curve $-1 -1 $-1 0.26550000000000001 -0.26550000000000001 0 0 0 -1 I I #
straight-curve $-1 -1 $-1 0.26550000000000001 0.26550000000000001 0 0 0 -1 I I #
vertex $-1 -1 $-1 $299 $491 #
ellipse-curve $-1 -1 $-1 0 0 0.030000000000000249 0 0 1 0.125 0 0 1 I I #
point $-1 -1 $-1 0.125 0 -0.030000000000000249 #
vertex $-1 -1 $-1 $304 $492 #
ellipse-curve $-1 -1 $-1 0 0 0.015500000000000291 0 0 1 0.26550000000000001 0 0 1 I I #
point $-1 -1 $-1 0.26550000000000001 0 -0.015500000000000291 #
convexity-sys-attrib $-1 -1 $-1 $-1 $310 #
vertex $-1 -1 $-1 $310 $493 #
ellipse-curve $-1 -1 $-1 -9.953998041094437e-034 0 0.83650000000000002 0 0 1 0.26550000000000001 0 0 1 I I #
point $-1 -1 $-1 -0.26550000000000001 -3.2513298693984116e-017 0.36850000000000005 #
point $-1 -1 $-1 -0.2185 0 0.83650000000000091 #
convexity-sys-attrib $-1 -1 $-1 $-1 $319 #
vertex $-1 -1 $-1 $319 $494 #
ellipse-curve $-1 -1 $-1 -9.953998041094437e-034 0 0.36850000000000005 0 0 1 0.26550000000000001 0 0 1 I I #
point $-1 -1 $-1 -0.26550000000000001 -3.2513298693984116e-017 -0.30350000000000055 #
point $-1 -1 $-1 -0.1875 0 0.36850000000000094 #
face $-1 -1 $-1 $495 $496 $41 $-1 $497 reversed single #
plane-surface $-1 -1 $-1 0 0.26550000000000001 0 0 -1 0 0 0 -1 forward_v I I I I #
coedge $-1 -1 $-1 $329 $431 $330 $426 forward $237 $-1 #
coedge $-1 -1 $-1 $498 $499 $329 $423 forward $500 $-1 #
edge $-1 -1 $-1 $433 -3.1415926535897931 $430 -1.5707963267948966 $422 $347 forward @7 unknown #
coedge $-1 -1 $-1 $331 $330 $501 $502 reversed $164 $-1 #
coedge $-1 -1 $-1 $503 $504 $505 $426 forward $506 $-1 #
edge $-1 -1 $-1 $507 -1.7650000000000006 $430 0 $425 $508 forward @7 unknown #
coedge $-1 -1 $-1 $428 $332 $509 $447 forward $429 $-1 #
coedge $-1 -1 $-1 $332 $427 $503 $510 forward $429 $-1 #
loop $-1 -1 $-1 $-1 $332 $511 #
vertex $-1 -1 $-1 $512 $513 #
coedge $-1 -1 $-1 $421 $334 $514 $515 reversed $237 $-1 #
coedge $-1 -1 $-1 $516 $517 $518 $335 forward $496 $-1 #
vertex $-1 -1 $-1 $519 $520 #
straight-curve $-1 -1 $-1 -0.26550000000000001 0 -0.88250000000000028 0 0 -1 I I #
coedge $-1 -1 $-1 $521 $518 $337 $436 reversed $522 $-1 #
edge $-1 -1 $-1 $460 -0.26550000000000001 $339 0 $435 $523 forward @7 unknown #
face $-1 -1 $-1 $452 $338 $41 $-1 $524 forward single #
edge $-1 -1 $-1 $339 0 $525 0.26550000000000001 $517 $523 forward @7 unknown #
point $-1 -1 $-1 -0.26550000000000001 0 0.88250000000000028 #
coedge $-1 -1 $-1 $526 $341 $344 $445 reversed $327 $-1 #
coedge $-1 -1 $-1 $341 $526 $348 $449 reversed $327 $-1 #
coedge $-1 -1 $-1 $527 $509 $331 $342 reversed $528 $-1 #
straight-curve $-1 -1 $-1 0.26550000000000001 0 -0.88250000000000028 0 0 -1 I I #
coedge $-1 -1 $-1 $356 $529 $343 $360 reversed $459 $-1 #
edge $-1 -1 $-1 $462 -0.26550000000000001 $346 0 $440 $530 forward @7 unknown #
face $-1 -1 $-1 $531 $345 $41 $-1 $532 reversed single #
edge $-1 -1 $-1 $346 0 $533 0.26550000000000001 $509 $530 forward @7 unknown #
point $-1 -1 $-1 0.26550000000000001 0 -0.88250000000000028 #
edge $-1 -1 $-1 $351 0 $534 0.26550000000000001 $441 $535 forward @7 unknown #
coedge $-1 -1 $-1 $529 $356 $349 $451 reversed $459 $-1 #
edge $-1 -1 $-1 $534 -0.26550000000000001 $249 9.953998041094437e-034 $450 $461 forward @7 unknown #
face $-1 -1 $-1 $536 $350 $41 $-1 $524 forward single #
point $-1 -1 $-1 0.26550000000000001 0 0.88250000000000028 #
coedge $-1 -1 $-1 $455 $352 $537 $519 forward $456 $-1 #
coedge $-1 -1 $-1 $352 $454 $354 $458 forward $456 $-1 #
loop $-1 -1 $-1 $-1 $352 $531 #
coedge $-1 -1 $-1 $355 $354 $521 $538 reversed $357 $-1 #
edge $-1 -1 $-1 $539 -0.26550000000000001 $250 -9.953998041094437e-034 $354 $463 forward @7 unknown #
loop $-1 -1 $-1 $-1 $356 $540 #
vertex $-1 -1 $-1 $358 $541 #
straight-curve $-1 -1 $-1 0 0.26550000000000001 0.88250000000000028 -1 0 0 I I #
vertex $-1 -1 $-1 $445 $542 #
straight-curve $-1 -1 $-1 0 0.26550000000000001 -0.88250000000000028 1 0 0 I I #
model_id-kcp-attrib $-1 -1 $-1 $-1 $363 1 1021401075 1021401076 -902692863 9 #
loop $-1 -1 $-1 $543 $544 $363 #
cone-surface $-1 -1 $-1 0 0 -10.106 0 0 -1 0.125 0 0 1 I I 0.70710678118654702 0.70710678118654802 0.125 forward I I I I #
loop $-1 -1 $-1 $-1 $545 $253 #
loop $-1 -1 $-1 $-1 $366 $546 #
attrib_edge_convexity-kcp-attrib $-1 -1 $547 $-1 $367 1 #
vertex $-1 -1 $-1 $367 $548 #
ellipse-curve $-1 -1 $-1 0 0 -8.8399999999999999 0 0 1 0.23449999999999999 0 0 1 I I #
loop $-1 -1 $-1 $549 $368 $550 #
attrib_edge_convexity-kcp-attrib $-1 -1 $551 $-1 $369 1 #
vertex $-1 -1 $-1 $369 $552 #
ellipse-curve $-1 -1 $-1 0 0 -8.8859999999999992 0 0 1 0.26550000000000001 0 0 1 I I #
face $553 -1 $-1 $550 $374 $11 $-1 $554 forward single #
convexity-sys-attrib $-1 -1 $-1 $371 $258 #
point $-1 -1 $-1 -0.2185 0 -8.8859999999999992 #
convexity-sys-attrib $-1 -1 $-1 $375 $260 #
point $-1 -1 $-1 0.2185 0 -9.3539999999999992 #
model_id-kcp-attrib $-1 -1 $-1 $-1 $378 1 1021401075 1021401076 -902692863 11 #
cone-surface $-1 -1 $-1 0 0 -8.7517499999999995 0 0 1 -0.1875 0 0 1 I I 0 1 0.1875 forward I I I I #
coedge $-1 -1 $-1 $483 $483 $555 $556 forward $383 $-1 #
attrib_edge_convexity-kcp-attrib $-1 -1 $557 $-1 $386 1 #
vertex $-1 -1 $-1 $386 $558 #
ellipse-curve $-1 -1 $-1 0 0 -10.545 0 0 1 0.125 0 0 1 I I #
straight-curve $-1 -1 $-1 -0.26550000000000001 0.26550000000000001 0 0 0 -1 I I #
point $-1 -1 $-1 -0.26550000000000001 -0.26550000000000001 -0.88250000000000028 #
straight-curve $-1 -1 $-1 -0.26550000000000001 0 -0.88250000000000028 0 1 0 I I #
point $-1 -1 $-1 -0.26550000000000001 0.26550000000000001 -0.88250000000000028 #
point $-1 -1 $-1 0.125 0 0.030000000000000249 #
point $-1 -1 $-1 0.26550000000000001 0 0.015500000000000291 #
point $-1 -1 $-1 -0.26550000000000001 -3.2513298693984116e-017 0.83650000000000002 #
point $-1 -1 $-1 -0.26550000000000001 -3.2513298693984116e-017 0.36850000000000005 #
face $-1 -1 $-1 $437 $559 $41 $-1 $524 forward single #
loop $-1 -1 $-1 $-1 $432 $419 #
plane-surface $-1 -1 $-1 -0.26550000000000001 0 0 1 0 0 0 0 -1 forward_v I I I I #
coedge $-1 -1 $-1 $499 $422 $560 $512 forward $500 $-1 #
coedge $-1 -1 $-1 $422 $498 $516 $561 forward $500 $-1 #
loop $-1 -1 $-1 $-1 $422 $562 #
coedge $-1 -1 $-1 $563 $564 $424 $502 forward $565 $-1 #
edge $-1 -1 $-1 $351 0 $507 1.5707963267948966 $501 $340 forward @7 unknown #
coedge $-1 -1 $-1 $566 $425 $428 $510 reversed $506 $-1 #
coedge $-1 -1 $-1 $425 $566 $563 $567 reversed $506 $-1 #
coedge $-1 -1 $-1 $568 $560 $421 $426 reversed $569 $-1 #
loop $-1 -1 $-1 $-1 $425 $570 #
vertex $-1 -1 $-1 $567 $571 #
straight-curve $-1 -1 $-1 -9.953998041094437e-034 -0.26550000000000001 -0.88250000000000028 0 0 -1 I I #
coedge $-1 -1 $-1 $442 $572 $427 $447 reversed $528 $-1 #
edge $-1 -1 $-1 $533 -0.26550000000000001 $430 9.953998041094437e-034 $503 $573 forward @7 unknown #
face $-1 -1 $-1 $446 $429 $41 $-1 $532 reversed single #
edge $-1 -1 $-1 $430 9.953998041094437e-034 $574 0.26550000000000001 $560 $573 forward @7 unknown #
point $-1 -1 $-1 -9.953998041094437e-034 -0.26550000000000001 -0.88250000000000028 #
coedge $-1 -1 $-1 $575 $576 $431 $515 forward $559 $-1 #
edge $-1 -1 $-1 $507 1.5707963267948966 $339 3.1415926535897931 $514 $340 forward @7 unknown #
coedge $-1 -1 $-1 $577 $432 $499 $561 reversed $496 $-1 #
coedge $-1 -1 $-1 $432 $577 $575 $438 reversed $496 $-1 #
coedge $-1 -1 $-1 $435 $537 $239 $335 reversed $522 $-1 #
edge $-1 -1 $-1 $433 0 $539 0.26550000000000001 $537 $578 forward @7 unknown #
point $-1 -1 $-1 -0.26550000000000001 0 -0.88250000000000028 #
coedge $-1 -1 $-1 $537 $435 $457 $538 forward $522 $-1 #
loop $-1 -1 $-1 $-1 $518 $579 #
straight-curve $-1 -1 $-1 -0.26550000000000001 0 0.88250000000000028 0 -1 0 I I #
plane-surface $-1 -1 $-1 0 0 0.88250000000000028 0 0 1 1 0 0 forward_v I I I I #
vertex $-1 -1 $-1 $438 $580 #
coedge $-1 -1 $-1 $441 $440 $529 $581 reversed $327 $-1 #
coedge $-1 -1 $-1 $572 $442 $564 $582 reversed $528 $-1 #
loop $-1 -1 $-1 $-1 $442 $583 #
coedge $-1 -1 $-1 $444 $450 $526 $581 forward $459 $-1 #
straight-curve $-1 -1 $-1 0.26550000000000001 0 -0.88250000000000028 0 -1 0 I I #
face $-1 -1 $-1 $584 $456 $41 $-1 $532 reversed single #
plane-surface $-1 -1 $-1 0 0 -0.88250000000000028 0 0 1 1 0 0 forward_v I I I I #
vertex $-1 -1 $-1 $585 $586 #
vertex $-1 -1 $-1 $449 $587 #
straight-curve $-1 -1 $-1 0.26550000000000001 0 0.88250000000000028 0 1 0 I I #
face $-1 -1 $-1 $570 $565 $41 $-1 $524 forward single #
coedge $-1 -1 $-1 $518 $521 $454 $519 reversed $522 $-1 #
edge $-1 -1 $-1 $460 -0.88250000000000028 $539 0.88250000000000028 $457 $588 forward @7 unknown #
vertex $-1 -1 $-1 $458 $589 #
face $-1 -1 $-1 $583 $459 $41 $-1 $420 reversed single #
point $-1 -1 $-1 -0.26550000000000001 0.26550000000000001 0.88250000000000028 #
point $-1 -1 $-1 0.26550000000000001 0.26550000000000001 -0.88250000000000028 #
loop $-1 -1 $-1 $-1 $555 $363 #
coedge $-1 -1 $-1 $544 $544 $545 $590 forward $465 $-1 #
coedge $-1 -1 $-1 $545 $545 $544 $590 reversed $467 $-1 #
face $591 -1 $-1 $-1 $592 $11 $-1 $593 forward single #
convexity-sys-attrib $-1 -1 $-1 $469 $367 #
point $-1 -1 $-1 -0.23449999999999999 0 -8.8399999999999999 #
loop $-1 -1 $-1 $-1 $594 $550 #
face $595 -1 $-1 $546 $472 $11 $-1 $596 forward single #
convexity-sys-attrib $-1 -1 $-1 $473 $369 #
point $-1 -1 $-1 0.26550000000000001 0 -8.8859999999999992 #
model_id-kcp-attrib $-1 -1 $-1 $-1 $476 1 1021401075 1021401076 -902692863 12 #
cone-surface $-1 -1 $-1 0 0 -8.7517499999999995 0 0 1 -0.2185 0 0 1 I I 0 1 0.2185 forward I I I I #
coedge $-1 -1 $-1 $555 $555 $483 $556 reversed $543 $-1 #
edge $-1 -1 $-1 $597 -3.1415926535897931 $597 3.1415926535897931 $483 $598 forward @7 unknown #
convexity-sys-attrib $-1 -1 $-1 $484 $386 #
point $-1 -1 $-1 -0.125 0 -10.545 #
loop $-1 -1 $-1 $-1 $514 $495 #
coedge $-1 -1 $-1 $505 $599 $498 $512 reversed $569 $-1 #
edge $-1 -1 $-1 $574 -0.26550000000000001 $433 0 $516 $578 forward @7 unknown #
face $-1 -1 $-1 $511 $500 $41 $-1 $532 reversed single #
coedge $-1 -1 $-1 $564 $501 $504 $567 forward $565 $-1 #
coedge $-1 -1 $-1 $501 $563 $527 $582 forward $565 $-1 #
loop $-1 -1 $-1 $-1 $501 $536 #
coedge $-1 -1 $-1 $504 $503 $572 $585 reversed $506 $-1 #
edge $-1 -1 $-1 $507 -9.953998041094437e-034 $600 0.26550000000000001 $504 $601 forward @7 unknown #
coedge $-1 -1 $-1 $599 $505 $576 $602 reversed $569 $-1 #
loop $-1 -1 $-1 $-1 $505 $584 #
face $-1 -1 $-1 $562 $506 $41 $-1 $603 reversed single #
point $-1 -1 $-1 -9.953998041094437e-034 -0.26550000000000001 0.88250000000000028 #
coedge $-1 -1 $-1 $509 $527 $566 $585 forward $528 $-1 #
straight-curve $-1 -1 $-1 0 -0.26550000000000001 -0.88250000000000028 -1 0 0 I I #
vertex $-1 -1 $-1 $561 $604 #
coedge $-1 -1 $-1 $576 $514 $517 $438 forward $559 $-1 #
coedge $-1 -1 $-1 $514 $575 $568 $602 forward $559 $-1 #
coedge $-1 -1 $-1 $517 $516 $599 $605 reversed $496 $-1 #
straight-curve $-1 -1 $-1 -0.26550000000000001 0 -0.88250000000000028 0 1 0 I I #
face $-1 -1 $-1 $540 $522 $41 $-1 $497 reversed single #
point $-1 -1 $-1 -0.26550000000000001 -0.26550000000000001 0.88250000000000028 #
edge $-1 -1 $-1 $534 -0.88250000000000028 $462 0.88250000000000028 $526 $606 forward @7 unknown #
edge $-1 -1 $-1 $600 -0.26550000000000001 $351 0 $527 $535 forward @7 unknown #
face $-1 -1 $-1 $-1 $528 $41 $-1 $328 reversed single #
face $-1 -1 $-1 $579 $569 $41 $-1 $603 reversed single #
edge $-1 -1 $-1 $600 -0.88250000000000028 $533 0.88250000000000028 $572 $607 forward @7 unknown #
point $-1 -1 $-1 0.26550000000000001 -0.26550000000000001 -0.88250000000000028 #
point $-1 -1 $-1 0.26550000000000001 0.26550000000000001 0.88250000000000028 #
straight-curve $-1 -1 $-1 -0.26550000000000001 0.26550000000000001 0 0 0 -1 I I #
point $-1 -1 $-1 -0.26550000000000001 0.26550000000000001 -0.88250000000000028 #
edge $-1 -1 $-1 $608 -3.1415926535897931 $608 3.1415926535897931 $544 $609 forward @7 unknown #
model_id-kcp-attrib $-1 -1 $-1 $-1 $546 1 1021401075 1021401076 -902692863 14 #
loop $-1 -1 $-1 $468 $610 $546 #
cone-surface $-1 -1 $-1 0 0 -8.8710000000000004 0 0 -1 0.26550000000000001 0 0 1 I I 0.70710678118654902 0.70710678118654602 0.26550000000000001 forward I I I I #
coedge $-1 -1 $-1 $594 $594 $610 $611 reversed $549 $-1 #
model_id-kcp-attrib $-1 -1 $-1 $-1 $550 1 1021401075 1021401076 -902692863 13 #
cone-surface $-1 -1 $-1 0 0 -8.7517499999999995 0 0 1 -0.26550000000000001 0 0 1 I I 0 1 0.26550000000000001 forward I I I I #
vertex $-1 -1 $-1 $556 $612 #
ellipse-curve $-1 -1 $-1 0 0 -10.076000000000001 0 0 1 0.095000000000000001 0 0 1 I I #
coedge $-1 -1 $-1 $560 $568 $577 $605 forward $569 $-1 #
vertex $-1 -1 $-1 $582 $613 #
straight-curve $-1 -1 $-1 0 -0.26550000000000001 0.88250000000000028 1 0 0 I I #
edge $-1 -1 $-1 $525 -0.26550000000000001 $507 -9.953998041094437e-034 $568 $601 forward @7 unknown #
plane-surface $-1 -1 $-1 0 -0.26550000000000001 0 0 1 0 0 0 1 forward_v I I I I #
point $-1 -1 $-1 -0.26550000000000001 -0.26550000000000001 -0.88250000000000028 #
edge $-1 -1 $-1 $525 -0.88250000000000028 $574 0.88250000000000028 $577 $614 forward @7 unknown #
straight-curve $-1 -1 $-1 0.26550000000000001 0.26550000000000001 0 0 0 -1 I I #
straight-curve $-1 -1 $-1 0.26550000000000001 -0.26550000000000001 0 0 0 -1 I I #
vertex $-1 -1 $-1 $590 $615 #
ellipse-curve $-1 -1 $-1 0 0 -10.106 0 0 1 0.125 0 0 1 I I #
coedge $-1 -1 $-1 $610 $610 $594 $611 forward $592 $-1 #
edge $616 -1 $-1 $617 -3.1415926535897931 $617 3.1415926535897931 $610 $618 forward @7 unknown #
point $-1 -1 $-1 -0.095000000000000001 0 -10.076000000000001 #
point $-1 -1 $-1 0.26550000000000001 -0.26550000000000001 0.88250000000000028 #
straight-curve $-1 -1 $-1 -0.26550000000000001 -0.26550000000000001 0 0 0 -1 I I #
point $-1 -1 $-1 -0.125 0 -10.106 #
attrib_edge_convexity-kcp-attrib $-1 -1 $619 $-1 $611 1 #
vertex $-1 -1 $-1 $611 $620 #
ellipse-curve $-1 -1 $-1 0 0 -8.8710000000000004 0 0 1 0.26550000000000001 0 0 1 I I #
convexity-sys-attrib $-1 -1 $-1 $616 $611 #
point $-1 -1 $-1 -0.26550000000000001 0 -8.8710000000000004 #
End-of-ACIS-data 