600 0 1 0           
126 GICL ACIS Healer - Source: /gicl/data5/repository/NIST/Manfred_Osti/spectrometer/bearing_shaft2_57/bearing_shaft2_57.sat - 6 0 18 ACIS 6.0.3 Solaris 24 Sun Apr 14 00:38:06 2002 
1 9.999999999999999547e-07 1.000000000000000036e-10 
body $-1 $1 $-1 $2 #
lump $-1 $-1 $3 $0 #
transform $-1 1 0 0 0 1 0 0 0 1 0 0 0 1 no_rotate no_reflect no_shear #
shell $-1 $-1 $-1 $4 $-1 $1 #
face $-1 $5 $6 $3 $-1 $7 reversed single #
face $-1 $8 $9 $3 $-1 $10 reversed single #
loop $-1 $-1 $11 $4 #
plane-surface $-1 0 0 -10.60500000000000043 0 0 1 1 0 0 forward_v I I I I #
face $-1 $12 $13 $3 $-1 $14 reversed single #
loop $-1 $15 $16 $5 #
plane-surface $-1 0 0 -10.0259999999999998 0 0 1 1 0 0 forward_v I I I I #
coedge $-1 $11 $11 $17 $18 reversed $6 $-1 #
face $-1 $19 $20 $3 $-1 $21 reversed single #
loop $-1 $22 $23 $8 #
plane-surface $-1 0 0 -9.353999999999999204 0 0 1 1 0 0 forward_v I I I I #
loop $-1 $-1 $24 $5 #
coedge $-1 $16 $16 $25 $26 forward $9 $-1 #
coedge $-1 $17 $17 $11 $18 forward $27 $-1 #
edge $-1 $28 0 $28 6.283185307179586232 $17 $29 forward 7 unknown #
face $-1 $30 $31 $3 $-1 $32 forward single #
loop $-1 $33 $34 $12 #
plane-surface $-1 0 0 -8.885999999999999233 0 0 1 1 0 0 forward_v I I I I #
loop $-1 $-1 $35 $8 #
coedge $-1 $23 $23 $36 $37 forward $13 $-1 #
coedge $-1 $24 $24 $38 $39 reversed $15 $-1 #
coedge $-1 $25 $25 $16 $26 reversed $40 $-1 #
edge $-1 $41 -3.141592653589793116 $41 3.141592653589793116 $25 $42 forward 7 unknown #
loop $-1 $43 $17 $30 #
vertex $-1 $18 $44 #
ellipse-curve $-1 0 0 -10.60500000000000043 0 0 1 0.06500000000000000222 0 0 1 I I #
face $-1 $45 $27 $3 $-1 $46 forward single #
loop $-1 $-1 $47 $19 #
plane-surface $-1 0 0 -8.839999999999999858 0 0 1 1 0 0 forward_v I I I I #
loop $-1 $-1 $48 $12 #
coedge $-1 $34 $34 $49 $50 forward $20 $-1 #
coedge $-1 $35 $35 $51 $52 reversed $22 $-1 #
coedge $-1 $36 $36 $23 $37 reversed $53 $-1 #
edge $-1 $54 -3.141592653589793116 $54 3.141592653589793116 $36 $55 forward 7 unknown #
coedge $-1 $38 $38 $24 $39 forward $56 $-1 #
edge $-1 $57 0 $57 6.283185307179586232 $38 $58 forward 7 unknown #
loop $-1 $-1 $25 $59 #
vertex $-1 $26 $60 #
ellipse-curve $-1 0 0 -10.0259999999999998 0 0 1 0.09500000000000000111 0 0 1 I I #
loop $-1 $-1 $61 $30 #
point $-1 0.06500000000000000222 0 -10.60500000000000043 #
face $-1 $62 $63 $3 $-1 $64 forward single #
cone-surface $-1 0 0 -10.54499999999999993 0 0 1 0.125 0 0 1 I I 0.7071067811865470176 0.7071067811865480168 0.125 forward I I I I #
coedge $-1 $47 $47 $65 $66 forward $31 $-1 #
coedge $-1 $48 $48 $67 $68 reversed $33 $-1 #
coedge $-1 $49 $49 $34 $50 reversed $69 $-1 #
edge $-1 $70 -3.141592653589793116 $70 3.141592653589793116 $49 $71 forward 7 unknown #
coedge $-1 $51 $51 $35 $52 forward $72 $-1 #
edge $-1 $73 0 $73 6.283185307179586232 $51 $74 forward 7 unknown #
loop $-1 $-1 $36 $75 #
vertex $-1 $37 $76 #
ellipse-curve $-1 0 0 -9.353999999999999204 0 0 1 0.1875 0 0 1 I I #
loop $-1 $53 $38 $75 #
vertex $-1 $39 $77 #
ellipse-curve $-1 0 0 -10.0259999999999998 0 0 1 0.1875 0 0 1 I I #
face $-1 $75 $78 $3 $-1 $79 forward single #
point $-1 -0.09500000000000000111 0 -10.0259999999999998 #
coedge $-1 $61 $61 $80 $81 reversed $43 $-1 #
face $-1 $59 $82 $3 $-1 $83 forward single #
loop $-1 $84 $80 $45 #
cone-surface $-1 0 0 -8.751749999999999474 0 0 1 -0.125 0 0 1 I I 0 1 0.125 forward I I I I #
coedge $-1 $65 $65 $47 $66 reversed $85 $-1 #
edge $-1 $86 -3.141592653589793116 $86 3.141592653589793116 $65 $87 forward 7 unknown #
coedge $-1 $67 $67 $48 $68 forward $88 $-1 #
edge $-1 $89 0 $89 6.283185307179586232 $67 $90 forward 7 unknown #
loop $-1 $-1 $49 $91 #
vertex $-1 $50 $92 #
ellipse-curve $-1 0 0 -8.885999999999999233 0 0 1 0.2184999999999999998 0 0 1 I I #
loop $-1 $69 $51 $91 #
vertex $-1 $52 $93 #
ellipse-curve $-1 0 0 -9.353999999999999204 0 0 1 0.2184999999999999998 0 0 1 I I #
face $-1 $91 $56 $3 $-1 $94 forward single #
point $-1 -0.1875 0 -9.353999999999999204 #
point $-1 0.1875 0 -10.0259999999999998 #
loop $-1 $40 $95 $59 #
cone-surface $-1 0 0 -8.751749999999999474 0 0 1 -0.09500000000000000111 0 0 1 I I 0 1 0.09500000000000000111 forward I I I I #
coedge $-1 $80 $80 $61 $81 forward $63 $-1 #
edge $-1 $96 -3.141592653589793116 $96 3.141592653589793116 $80 $97 forward 7 unknown #
loop $-1 $98 $99 $62 #
cone-surface $-1 0 0 -10.10599999999999987 0 0 -1 0.125 0 0 1 I I 0.7071067811865470176 0.7071067811865480168 0.125 forward I I I I #
loop $-1 $-1 $100 $45 #
loop $-1 $-1 $65 $101 #
vertex $-1 $66 $102 #
ellipse-curve $-1 0 0 -8.839999999999999858 0 0 1 0.2344999999999999862 0 0 1 I I #
loop $-1 $103 $67 $104 #
vertex $-1 $68 $105 #
ellipse-curve $-1 0 0 -8.885999999999999233 0 0 1 0.2655000000000000138 0 0 1 I I #
face $-1 $104 $72 $3 $-1 $106 forward single #
point $-1 -0.2184999999999999998 0 -8.885999999999999233 #
point $-1 0.2184999999999999998 0 -9.353999999999999204 #
cone-surface $-1 0 0 -8.751749999999999474 0 0 1 -0.1875 0 0 1 I I 0 1 0.1875 forward I I I I #
coedge $-1 $95 $95 $107 $108 forward $78 $-1 #
vertex $-1 $81 $109 #
ellipse-curve $-1 0 0 -10.54499999999999993 0 0 1 0.125 0 0 1 I I #
loop $-1 $-1 $107 $62 #
coedge $-1 $99 $99 $100 $110 forward $82 $-1 #
coedge $-1 $100 $100 $99 $110 reversed $84 $-1 #
face $-1 $-1 $111 $3 $-1 $112 forward single #
point $-1 -0.2344999999999999862 0 -8.839999999999999858 #
loop $-1 $-1 $113 $104 #
face $-1 $101 $88 $3 $-1 $114 forward single #
point $-1 0.2655000000000000138 0 -8.885999999999999233 #
cone-surface $-1 0 0 -8.751749999999999474 0 0 1 -0.2184999999999999998 0 0 1 I I 0 1 0.2184999999999999998 forward I I I I #
coedge $-1 $107 $107 $95 $108 reversed $98 $-1 #
edge $-1 $115 -3.141592653589793116 $115 3.141592653589793116 $95 $116 forward 7 unknown #
point $-1 -0.125 0 -10.54499999999999993 #
edge $-1 $117 -3.141592653589793116 $117 3.141592653589793116 $99 $118 forward 7 unknown #
loop $-1 $85 $119 $101 #
cone-surface $-1 0 0 -8.871000000000000441 0 0 -1 0.2655000000000000138 0 0 1 I I 0.707106781186549016 0.7071067811865460184 0.2655000000000000138 forward I I I I #
coedge $-1 $113 $113 $119 $120 reversed $103 $-1 #
cone-surface $-1 0 0 -8.751749999999999474 0 0 1 -0.2655000000000000138 0 0 1 I I 0 1 0.2655000000000000138 forward I I I I #
vertex $-1 $108 $121 #
ellipse-curve $-1 0 0 -10.07600000000000051 0 0 1 0.09500000000000000111 0 0 1 I I #
vertex $-1 $110 $122 #
ellipse-curve $-1 0 0 -10.10599999999999987 0 0 1 0.125 0 0 1 I I #
coedge $-1 $119 $119 $113 $120 forward $111 $-1 #
edge $-1 $123 -3.141592653589793116 $123 3.141592653589793116 $119 $124 forward 7 unknown #
point $-1 -0.09500000000000000111 0 -10.07600000000000051 #
point $-1 -0.125 0 -10.10599999999999987 #
vertex $-1 $120 $125 #
ellipse-curve $-1 0 0 -8.871000000000000441 0 0 1 0.2655000000000000138 0 0 1 I I #
point $-1 -0.2655000000000000138 0 -8.871000000000000441 #
End-of-ACIS-data 