105 366 1 0                             
body $-1 $1 $-1 $2 #
lump $-1 $-1 $3 $0 #
transform $-1 1 0 0 0 1 0 0 0 1 0 0 0 1 0 0 0 #
shell $-1 $-1 $-1 $4 $1 #
face $5 $6 $7 $3 $-1 $8 forward single #
pid_name-sg-attrib $-1 $-1 $-1 $4 7 114 119 105 108 115 111 110 784252905 1257 1 #
face $9 $10 $11 $3 $-1 $12 forward single #
loop $-1 $-1 $13 $4 #
plane-surface $-1 0.345299869678516 0.063 0 0 1 0 0 0 1 0 #
pid_name-sg-attrib $-1 $-1 $-1 $6 7 114 119 105 108 115 111 110 784252905 1258 1 #
face $14 $15 $16 $3 $-1 $17 forward single #
loop $-1 $-1 $18 $6 #
cone-surface $-1 0 0 0 0 0 1 0.351 0 0 1 0 1 0 #
coedge $-1 $19 $20 $21 $22 0 $7 $-1 #
pid_name-sg-attrib $-1 $-1 $-1 $10 7 114 119 105 108 115 111 110 784252905 1259 1 #
face $23 $24 $25 $3 $-1 $26 forward single #
loop $-1 $-1 $27 $10 #
cone-surface $-1 0.325039997538764 0.025 0 0 0 -1 0.0249263801793531 0.00191717791411043 0 1 0 1 0 #
coedge $-1 $28 $29 $19 $30 1 $11 $-1 #
coedge $-1 $31 $13 $18 $30 0 $7 $-1 #
coedge $-1 $13 $31 $32 $33 0 $7 $-1 #
coedge $-1 $34 $35 $13 $22 1 $36 $-1 #
edge $-1 $37 $38 $21 $39 1 #
pid_name-sg-attrib $-1 $-1 $-1 $15 7 114 119 105 108 115 111 110 784252905 1260 1 #
face $40 $41 $36 $3 $-1 $42 forward single #
loop $-1 $-1 $43 $15 #
plane-surface $-1 0.215479128049496 0 0 0 -1 0 0 0 -1 0 #
coedge $-1 $44 $45 $46 $47 0 $16 $-1 #
coedge $-1 $48 $18 $35 $49 0 $11 $-1 #
coedge $-1 $18 $48 $50 $51 0 $11 $-1 #
edge $-1 $38 $52 $18 $53 1 #
coedge $-1 $20 $19 $54 $55 0 $7 $-1 #
coedge $-1 $56 $57 $20 $33 1 $58 $-1 #
edge $-1 $59 $37 $32 $60 0 #
coedge $-1 $61 $21 $57 $62 0 $36 $-1 #
coedge $-1 $21 $46 $28 $49 1 $36 $-1 #
loop $-1 $-1 $34 $24 #
vertex $-1 $22 $63 #
vertex $-1 $30 $64 #
straight-curve $-1 0.345299869678516 0.063 0.06 -1 0 0 #
pid_name-sg-attrib $-1 $-1 $-1 $24 7 114 119 105 108 115 111 110 784252905 1261 1 #
face $65 $66 $67 $3 $-1 $68 reversed single #
plane-surface $-1 0 0 0.06 0 0 1 1 0 0 0 #
coedge $-1 $69 $70 $44 $71 1 $25 $-1 #
coedge $-1 $72 $27 $43 $71 0 $16 $-1 #
coedge $-1 $27 $72 $48 $73 0 $16 $-1 #
coedge $-1 $35 $74 $27 $47 1 $36 $-1 #
edge $-1 $75 $76 $46 $77 0 #
coedge $-1 $29 $28 $45 $73 1 $11 $-1 #
edge $-1 $38 $75 $35 $78 1 #
coedge $-1 $79 $54 $29 $51 1 $80 $-1 #
edge $-1 $81 $52 $50 $82 0 #
vertex $-1 $30 $83 #
straight-curve $-1 0.345299869678516 0.063 0 0 0 1 #
coedge $-1 $50 $84 $31 $55 1 $80 $-1 #
edge $-1 $52 $59 $54 $85 0 #
coedge $-1 $86 $32 $84 $87 0 $58 $-1 #
coedge $-1 $32 $86 $34 $62 1 $58 $-1 #
loop $-1 $88 $57 $89 #
vertex $-1 $33 $90 #
straight-curve $-1 3.85751001454049e-18 0.063 0 0 0 1 #
coedge $-1 $91 $34 $92 $93 1 $36 $-1 #
edge $-1 $37 $94 $57 $95 1 #
point $-1 0 0.063 0.06 #
point $-1 0.345299869678516 0.063 0.06 #
pid_name-sg-attrib $-1 $-1 $-1 $41 7 114 119 105 108 115 111 110 784252905 1262 1 #
face $96 $97 $98 $3 $-1 $99 forward single #
loop $-1 $-1 $100 $41 #
cone-surface $-1 0.224894541134491 -0.063 0 0 0 1 0 0.063 0 1 0 1 0 #
coedge $-1 $101 $43 $74 $102 0 $25 $-1 #
coedge $-1 $43 $101 $103 $104 0 $25 $-1 #
edge $-1 $76 $105 $43 $106 1 #
coedge $-1 $45 $44 $79 $107 0 $16 $-1 #
edge $-1 $81 $75 $48 $108 0 #
coedge $-1 $46 $91 $69 $102 1 $36 $-1 #
vertex $-1 $73 $109 #
vertex $-1 $71 $110 #
ellipse-curve $-1 0.325039997538764 0.025 0.06 0 0 -1 0.0249263801793531 0.00191717791411043 0 1 #
ellipse-curve $-1 0 0 0.06 0 0 1 0.349966377718118 0.0269171779141104 0 1 #
coedge $-1 $103 $50 $72 $107 1 $80 $-1 #
loop $-1 $111 $84 $112 #
vertex $-1 $73 $113 #
ellipse-curve $-1 0 0 0 0 0 1 0.349966377718118 0.0269171779141104 0 1 #
point $-1 0.345299869678516 0.063 0 #
coedge $-1 $54 $114 $56 $87 1 $80 $-1 #
straight-curve $-1 0.345299869678516 0.063 0 -1 0 0 #
coedge $-1 $57 $56 $115 $116 1 $58 $-1 #
edge $-1 $59 $117 $84 $118 0 #
loop $-1 $-1 $119 $89 #
face $120 $112 $58 $3 $-1 $121 forward single #
point $-1 3.85751001454049e-18 0.063 0 #
coedge $-1 $74 $61 $100 $122 1 $36 $-1 #
coedge $-1 $115 $123 $61 $93 0 $98 $-1 #
edge $-1 $124 $94 $61 $125 1 #
vertex $-1 $93 $126 #
ellipse-curve $-1 0 0 0.06 0 0 1 0.0184194173975324 -0.0602471996256712 0 1 #
pid_name-sg-attrib $-1 $-1 $-1 $66 7 114 119 105 108 115 111 110 784252905 1263 1 #
face $127 $128 $129 $3 $-1 $130 reversed single #
loop $-1 $-1 $131 $66 #
plane-surface $-1 0.0184194173975324 -0.0602471996256712 0 0.292371704722737 -0.956304755963035 0 0 0 -1 0 #
coedge $-1 $132 $133 $91 $122 0 $67 $-1 #
coedge $-1 $70 $69 $133 $134 1 $25 $-1 #
edge $-1 $76 $135 $74 $136 1 #
coedge $-1 $137 $79 $70 $104 1 $80 $-1 #
edge $-1 $138 $105 $103 $139 0 #
vertex $-1 $71 $140 #
straight-curve $-1 0.325039997538764 0 0 0 0 1 #
edge $-1 $105 $81 $79 $141 1 #
straight-curve $-1 0.349966377718118 0.0269171779141104 0 0 0 1 #
point $-1 0.349966377718118 0.0269171779141104 0.06 #
point $-1 0.325039997538764 0 0.06 #
loop $-1 $-1 $142 $112 #
face $143 $-1 $80 $3 $-1 $144 reversed single #
point $-1 0.349966377718118 0.0269171779141104 0 #
coedge $-1 $84 $137 $131 $145 1 $80 $-1 #
coedge $-1 $131 $92 $86 $116 0 $98 $-1 #
edge $-1 $94 $117 $86 $146 1 #
vertex $-1 $116 $147 #
ellipse-curve $-1 0 0 0 0 0 1 -0.063 0 0 1 #
coedge $-1 $148 $149 $150 $151 1 $88 $-1 #
pid_name-sg-attrib $-1 $-1 $-1 $89 7 114 119 105 108 115 111 110 784252905 1276 1 #
cone-surface $-1 0 0 0 0 0 1 0.063 0 0 1 0 1 0 #
edge $-1 $135 $124 $91 $152 0 #
coedge $-1 $92 $131 $132 $153 1 $98 $-1 #
vertex $-1 $153 $154 #
straight-curve $-1 0.0184194173975324 -0.0602471996256712 0.06 0.956304755963035 0.292371704722737 0 #
point $-1 0.0184194173975324 -0.0602471996256712 0.06 #
pid_name-sg-attrib $-1 $-1 $-1 $97 7 114 119 105 108 115 111 110 784252905 1264 1 #
face $155 $156 $157 $3 $-1 $158 forward single #
loop $-1 $-1 $159 $97 #
cone-surface $-1 0 0 0.222 0 0 1 0.067 0 0 1 0 1 0 #
coedge $-1 $123 $115 $114 $145 0 $98 $-1 #
coedge $-1 $160 $100 $123 $153 0 $67 $-1 #
coedge $-1 $100 $160 $101 $134 0 $67 $-1 #
edge $-1 $138 $135 $101 $161 0 #
vertex $-1 $134 $162 #
straight-curve $-1 0.224894541134491 0 0.06 1 0 0 #
coedge $-1 $114 $103 $160 $163 1 $80 $-1 #
vertex $-1 $134 $164 #
straight-curve $-1 0.224894541134491 0 0 1 0 0 #
point $-1 0.325039997538764 0 0 #
ellipse-curve $-1 0.325039997538764 0.025 0 0 0 -1 0.0249263801793531 0.00191717791411043 0 1 #
coedge $-1 $142 $142 $165 $166 1 $111 $-1 #
pid_name-sg-attrib $-1 $-1 $-1 $112 7 114 119 105 108 115 111 110 784252905 1277 1 #
plane-surface $-1 0 0 0 0 0 1 1 0 0 0 #
edge $-1 $117 $167 $114 $168 0 #
straight-curve $-1 0.0184194173975324 -0.0602471996256712 0 0 0 1 #
point $-1 0.0184194173975324 -0.0602471996256712 0 #
coedge $-1 $169 $119 $170 $171 1 $88 $-1 #
coedge $-1 $119 $169 $172 $173 1 $88 $-1 #
coedge $-1 $174 $175 $119 $151 0 $176 $-1 #
edge $-1 $177 $178 $119 $179 0 #
ellipse-curve $-1 0.224894541134491 -0.063 0.06 0 0 1 0 0.063 0 1 #
edge $-1 $124 $167 $123 $180 1 #
point $-1 0.206475123736958 -0.00275280037432878 0.06 #
pid_name-sg-attrib $-1 $-1 $-1 $128 7 114 119 105 108 115 111 110 784252905 1265 1 #
face $181 $182 $183 $3 $-1 $184 forward single #
loop $-1 $-1 $185 $128 #
plane-surface $-1 -0.0602762199466172 -0.0183242273765371 0.222 0.275637355816999 -0.961261695938319 0 0 0 -1 0 #
coedge $-1 $186 $187 $188 $189 0 $129 $-1 #
coedge $-1 $133 $132 $137 $163 0 $67 $-1 #
straight-curve $-1 0.224894541134491 0 0 0 0 1 #
point $-1 0.224894541134491 0 0.06 #
edge $-1 $167 $138 $137 $190 1 #
point $-1 0.224894541134491 0 0 #
coedge $-1 $165 $165 $142 $166 0 $191 $-1 #
edge $-1 $192 $192 $142 $193 0 #
vertex $-1 $153 $194 #
straight-curve $-1 0.0184197799396262 -0.0602470887854299 0 0.956304755963035 0.292371704722737 0 #
coedge $-1 $149 $148 $195 $196 1 $88 $-1 #
coedge $-1 $197 $198 $148 $171 0 $199 $-1 #
edge $-1 $200 $177 $148 $201 0 #
coedge $-1 $202 $203 $149 $173 0 $204 $-1 #
edge $-1 $178 $205 $149 $206 1 #
coedge $-1 $207 $150 $203 $208 0 $176 $-1 #
coedge $-1 $150 $207 $197 $209 0 $176 $-1 #
loop $-1 $-1 $174 $210 #
vertex $-1 $209 $211 #
vertex $-1 $208 $212 #
ellipse-curve $-1 0 0 0.166 3.03116999193072e-16 3.19714455274977e-16 1 -0.0433452141817539 -0.0457186221089162 2.77555756156289e-17 1 #
straight-curve $-1 0.206475123736958 -0.00275280037432878 0 -4.62592926927149e-16 -1.15648231731787e-16 1 #
pid_name-sg-attrib $-1 $-1 $-1 $156 7 114 119 105 108 115 111 110 784252905 1266 1 #
face $213 $214 $215 $3 $-1 $216 forward single #
loop $-1 $-1 $217 $156 #
plane-surface $-1 -0.259265020547529 -0.0753833477665282 0.222 -0.961261695938319 -0.275637355817 0 0 0 1 0 #
coedge $-1 $218 $219 $220 $221 0 $157 $-1 #
coedge $-1 $222 $159 $223 $224 0 $129 $-1 #
coedge $-1 $159 $222 $207 $225 0 $129 $-1 #
coedge $-1 $203 $226 $159 $189 1 $204 $-1 #
edge $-1 $227 $228 $188 $229 0 #
ellipse-curve $-1 0.224894541134491 -0.063 0 0 0 1 0 0.063 0 1 #
loop $-1 $-1 $165 $230 #
vertex $-1 $166 $231 #
ellipse-curve $-1 0 0 0 0 0 -1 -0.03175 0 0 1 #
point $-1 0.206475123736958 -0.00275280037432878 0 #
coedge $-1 $232 $233 $169 $196 0 $234 $-1 #
edge $-1 $205 $200 $169 $235 0 #
coedge $-1 $236 $170 $175 $209 1 $199 $-1 #
coedge $-1 $170 $237 $232 $238 0 $199 $-1 #
loop $-1 $-1 $197 $239 #
vertex $-1 $238 $240 #
straight-curve $-1 -0.0433452141817537 -0.0457186221089164 0.077 7.79651000439014e-17 -7.79651000439014e-17 1 #
coedge $-1 $241 $172 $233 $242 0 $204 $-1 #
coedge $-1 $172 $188 $174 $208 1 $204 $-1 #
loop $-1 $-1 $202 $243 #
vertex $-1 $242 $244 #
straight-curve $-1 -0.0423640999839774 0.0466292079339502 0.077 -1.55930200087803e-16 -7.79651000439014e-17 1 #
coedge $-1 $175 $174 $187 $225 1 $176 $-1 #
edge $-1 $178 $227 $203 $245 1 #
edge $-1 $246 $177 $197 $247 0 #
face $248 $239 $249 $3 $-1 $250 forward single #
point $-1 -0.0433452141817539 -0.0457186221089162 0.166 #
point $-1 -0.0423640999839776 0.04662920793395 0.166 #
pid_name-sg-attrib $-1 $-1 $-1 $182 7 114 119 105 108 115 111 110 784252905 1267 1 #
face $251 $252 $253 $3 $-1 $254 forward single #
loop $-1 $-1 $255 $182 #
plane-surface $-1 -0.273322525694196 -0.0263590012736739 0.222 -0.275637355816999 0.961261695938319 0 0 0 1 0 #
coedge $-1 $256 $257 $258 $259 1 $183 $-1 #
coedge $-1 $260 $185 $261 $262 1 $157 $-1 #
coedge $-1 $185 $260 $237 $263 1 $157 $-1 #
coedge $-1 $264 $265 $185 $221 1 $253 $-1 #
edge $-1 $266 $267 $220 $268 0 #
coedge $-1 $187 $186 $236 $269 0 $129 $-1 #
coedge $-1 $270 $264 $186 $224 1 $253 $-1 #
edge $-1 $228 $271 $223 $272 1 #
edge $-1 $246 $227 $207 $273 1 #
coedge $-1 $188 $241 $270 $274 0 $204 $-1 #
vertex $-1 $225 $275 #
vertex $-1 $189 $276 #
straight-curve $-1 -0.0555880566349896 0.0374027801044947 0.166 -4.95635278850516e-16 -2.47817639425258e-16 1 #
face $277 $210 $278 $3 $-1 $279 reversed single #
point $-1 0.03175 3.88812517338605e-18 0 #
coedge $-1 $280 $195 $198 $238 1 $234 $-1 #
coedge $-1 $195 $281 $202 $242 1 $234 $-1 #
loop $-1 $-1 $195 $282 #
ellipse-curve $-1 0 0 0.077 0 0 1 -0.063 0 0 1 #
coedge $-1 $283 $197 $222 $269 1 $199 $-1 #
coedge $-1 $198 $283 $219 $263 0 $199 $-1 #
edge $-1 $284 $200 $232 $285 0 #
face $286 $89 $199 $3 $-1 $287 reversed single #
point $-1 -0.0433452141817537 -0.0457186221089164 0.077 #
coedge $-1 $226 $202 $288 $289 0 $204 $-1 #
edge $-1 $205 $290 $233 $291 1 #
face $292 $230 $204 $3 $-1 $293 reversed single #
point $-1 -0.0423640999839774 0.0466292079339502 0.077 #
ellipse-curve $-1 -0.0847281999679549 0.0932584158679004 0.166 0 0 1 0.0291401433329652 -0.0558556357634057 0 1 #
vertex $-1 $225 $294 #
ellipse-curve $-1 -0.0866904283635074 -0.0914372442178328 0.166 0 0 -1 0.0303202656006702 0.0552239213919549 0 1 #
pid_name-sg-attrib $-1 $-1 $-1 $210 7 114 119 105 108 115 111 110 784252905 1274 1 #
loop $-1 $176 $295 $210 #
plane-surface $-1 0 0 0.166 0 0 1 1 0 0 0 #
pid_name-sg-attrib $-1 $-1 $-1 $214 7 114 119 105 108 115 111 110 784252905 1268 1 #
face $296 $297 $298 $3 $-1 $299 reversed single #
loop $-1 $300 $270 $214 #
plane-surface $-1 0 0 0.222 0 0 1 1 0 0 0 #
coedge $-1 $258 $288 $281 $301 0 $215 $-1 #
coedge $-1 $261 $217 $302 $303 0 $183 $-1 #
coedge $-1 $217 $261 $265 $304 0 $183 $-1 #
coedge $-1 $305 $255 $217 $259 0 $215 $-1 #
edge $-1 $306 $307 $217 $308 1 #
coedge $-1 $219 $218 $280 $309 0 $157 $-1 #
coedge $-1 $257 $256 $218 $262 0 $183 $-1 #
edge $-1 $310 $267 $218 $311 1 #
edge $-1 $266 $284 $219 $312 1 #
coedge $-1 $223 $220 $283 $313 1 $253 $-1 #
coedge $-1 $220 $314 $257 $304 1 $253 $-1 #
vertex $-1 $263 $315 #
vertex $-1 $262 $316 #
straight-curve $-1 -0.104055581779978 -0.0308777573737187 0.222 -0.961261695938319 -0.275637355816999 0 #
edge $-1 $271 $246 $236 $317 0 #
coedge $-1 $314 $223 $226 $274 1 $253 $-1 #
vertex $-1 $269 $318 #
ellipse-curve $-1 0 0 0.222 0 0 -1 -0.0563701627628371 -0.0362133228258779 0 1 #
ellipse-curve $-1 0 0 0.166 0 0 1 -0.0555880566349896 0.0374027801044947 0 1 #
edge $-1 $319 $228 $270 $320 0 #
point $-1 -0.0555880566349896 0.0374027801044947 0.166 #
point $-1 -0.0555880566349897 0.0374027801044947 0.222 #
pid_name-sg-attrib $-1 $-1 $-1 $230 7 114 119 105 108 115 111 110 784252905 1273 1 #
loop $-1 $191 $321 $230 #
cone-surface $-1 0 0 0.222 0 0 -1 -0.03175 0 0 1 0 1 0 #
coedge $-1 $302 $232 $260 $309 1 $234 $-1 #
coedge $-1 $233 $302 $255 $301 1 $234 $-1 #
face $322 $243 $323 $3 $-1 $324 forward single #
coedge $-1 $237 $236 $264 $313 0 $199 $-1 #
vertex $-1 $263 $325 #
ellipse-curve $-1 -0.0866904283635074 -0.0914372442178328 0.077 0 0 -1 -0.017365153416471 0.0605594868441141 0 1 #
pid_name-sg-attrib $-1 $-1 $-1 $239 7 114 119 105 108 115 111 110 784252905 1275 1 #
cone-surface $-1 -0.0866904283635074 -0.0914372442178328 0.077 0 0 -1 -0.017365153416471 0.0605594868441141 0 1 0 1 0 #
coedge $-1 $255 $305 $241 $289 1 $215 $-1 #
edge $-1 $290 $319 $288 $326 0 #
vertex $-1 $289 $327 #
ellipse-curve $-1 -0.0847281999679549 0.0932584158679004 0.077 0 0 1 0.017365153416471 -0.0605594868441141 0 1 #
pid_name-sg-attrib $-1 $-1 $-1 $243 7 114 119 105 108 115 111 110 784252905 1272 1 #
cone-surface $-1 -0.0847281999679549 0.0932584158679004 0.077 0 0 1 0.017365153416471 -0.0605594868441141 0 1 0 1 0 #
point $-1 -0.0563701627628371 -0.0362133228258779 0.166 #
coedge $-1 $295 $295 $321 $328 0 $249 $-1 #
pid_name-sg-attrib $-1 $-1 $-1 $252 7 114 119 105 108 115 111 110 784252905 1269 1 #
face $329 $282 $330 $3 $-1 $331 reversed single #
loop $-1 $332 $333 $252 #
cone-surface $-1 -0.219900973228862 -0.0370481035007075 1.202 0 0 1 1 0 0 1 0.707106781186547 0.707106781186548 0 #
loop $-1 $-1 $334 $214 #
edge $-1 $290 $306 $281 $335 1 #
coedge $-1 $281 $280 $256 $303 1 $234 $-1 #
edge $-1 $306 $310 $302 $336 1 #
edge $-1 $267 $307 $265 $337 0 #
coedge $-1 $288 $258 $314 $338 0 $215 $-1 #
vertex $-1 $259 $339 #
vertex $-1 $259 $340 #
straight-curve $-1 -0.273322525694196 -0.0263590012736739 0.222 0 0 -1 #
edge $-1 $310 $284 $280 $341 1 #
vertex $-1 $262 $342 #
straight-curve $-1 -0.259265020547529 -0.0753833477665282 0.222 0 0 -1 #
straight-curve $-1 -0.104055581779978 -0.0308777573737187 0.077 0 0 1 #
edge $-1 $271 $266 $264 $343 1 #
coedge $-1 $265 $270 $305 $338 1 $253 $-1 #
point $-1 -0.104055581779978 -0.0308777573737187 0.222 #
point $-1 -0.259265020547529 -0.0753833477665282 0.222 #
straight-curve $-1 -0.0563701627628371 -0.0362133228258779 0.222 -1.23908819712629e-16 1.23908819712629e-16 -1 #
point $-1 -0.0563701627628371 -0.0362133228258779 0.222 #
vertex $-1 $289 $344 #
ellipse-curve $-1 -0.0847281999679549 0.0932584158679004 0.222 0 0 1 0.017365153416471 -0.0605594868441141 0 1 #
coedge $-1 $321 $321 $295 $328 1 $278 $-1 #
pid_name-sg-attrib $-1 $-1 $-1 $282 7 114 119 105 108 115 111 110 784252905 1271 1 #
loop $-1 $234 $345 $282 #
plane-surface $-1 0 0 0.077 0 0 -1 -1 0 0 0 #
point $-1 -0.104055581779978 -0.0308777573737187 0.077 #
straight-curve $-1 -0.0673630465514839 0.0326989290237863 0.077 0 0 1 #
point $-1 -0.0673630465514839 0.0326989290237863 0.077 #
edge $-1 $346 $346 $321 $347 0 #
pid_name-sg-attrib $-1 $-1 $-1 $297 7 114 119 105 108 115 111 110 784252905 1270 1 #
loop $-1 $348 $349 $297 #
cone-surface $-1 -0.219900973228862 -0.0370481035007075 0.222 0 0 1 0.01125 0 0 1 0 1 0 #
loop $-1 $-1 $350 $252 #
coedge $-1 $333 $333 $334 $351 0 $298 $-1 #
coedge $-1 $334 $334 $333 $351 1 $300 $-1 #
straight-curve $-1 -0.273322525694196 -0.0263590012736739 0.077 0.961261695938319 0.275637355816999 0 #
straight-curve $-1 -0.259265020547529 -0.0753833477665282 0.077 -0.275637355817 0.961261695938319 0 #
straight-curve $-1 -0.259265020547529 -0.0753833477665282 0.222 -0.275637355817 0.961261695938319 0 #
edge $-1 $307 $319 $314 $352 0 #
point $-1 -0.273322525694196 -0.0263590012736739 0.077 #
point $-1 -0.273322525694196 -0.0263590012736739 0.222 #
straight-curve $-1 -0.104055581779978 -0.0308777573737187 0.077 -0.961261695938319 -0.275637355816999 0 #
point $-1 -0.259265020547529 -0.0753833477665282 0.077 #
ellipse-curve $-1 -0.0866904283635074 -0.0914372442178328 0.222 0 0 -1 -0.017365153416471 0.0605594868441141 0 1 #
point $-1 -0.0673630465514839 0.0326989290237863 0.222 #
coedge $-1 $345 $345 $353 $354 1 $323 $-1 #
vertex $-1 $328 $355 #
ellipse-curve $-1 0 0 0.166 8.74191357972564e-16 0 -1 0.03175 0 2.77555756156289e-17 1 #
loop $-1 $-1 $353 $297 #
coedge $-1 $349 $349 $350 $356 1 $330 $-1 #
coedge $-1 $350 $350 $349 $356 0 $332 $-1 #
edge $-1 $357 $357 $334 $358 1 #
straight-curve $-1 -0.273322525694196 -0.0263590012736739 0.222 0.961261695938319 0.275637355816999 0 #
coedge $-1 $353 $353 $345 $354 0 $348 $-1 #
edge $-1 $359 $359 $345 $360 1 #
point $-1 0.03175 0 0.166 #
edge $-1 $361 $361 $349 $362 1 #
vertex $-1 $351 $363 #
ellipse-curve $-1 -0.219900973228862 -0.0370481035007075 0.222 0 0 -1 -0.02 0 0 1 #
vertex $-1 $354 $364 #
ellipse-curve $-1 -0.219900973228862 -0.0370481035007075 0.077 0 0 1 0.01125 0 0 1 #
vertex $-1 $356 $365 #
ellipse-curve $-1 -0.219900973228862 -0.0370481035007075 0.21325 0 0 1 -0.01125 0 0 1 #
point $-1 -0.239900973228862 -0.0370481035007075 0.222 #
point $-1 -0.208650973228862 -0.0370481035007075 0.077 #
point $-1 -0.231150973228862 -0.0370481035007075 0.21325 #
