600 0 1 0           
125 GICL ACIS Healer - Source: /gicl/data5/repository/Sandia/Randy_Wilson/discriminator/sh-r44371-000-u/sh-r44371-000-u.sat - 6 0 18 ACIS 6.0.3 Solaris 24 Sat Apr 13 23:37:43 2002 
1 9.999999999999999547e-07 1.000000000000000036e-10 
body $-1 $1 $-1 $2 #
lump $-1 $-1 $3 $0 #
transform $-1 1 0 0 0 1 0 0 0 1 0 0 0 1 no_rotate no_reflect no_shear #
shell $-1 $-1 $-1 $4 $-1 $1 #
face $5 $6 $7 $3 $-1 $8 forward single #
pid_name-sg-attrib $-1 $-1 $-1 $4 7 rwilson 784252905 1257 1 #
face $9 $10 $11 $3 $-1 $12 forward single #
loop $-1 $-1 $13 $4 #
plane-surface $-1 0.3452998696785160027 0.06300000000000000044 0 0 1 0 0 0 1 forward_v I I I I #
pid_name-sg-attrib $-1 $-1 $-1 $6 7 rwilson 784252905 1258 1 #
face $14 $15 $16 $3 $-1 $17 forward single #
loop $-1 $-1 $18 $6 #
cone-surface $-1 0 0 0 0 0 1 0.3509999999999999787 0 0 1 I I 0 1 0.3509999999999999787 forward I I I I #
coedge $-1 $19 $20 $21 $22 forward $7 $-1 #
pid_name-sg-attrib $-1 $-1 $-1 $10 7 rwilson 784252905 1259 1 #
face $23 $24 $25 $3 $-1 $26 forward single #
loop $-1 $-1 $27 $10 #
cone-surface $-1 0.3250399975387640028 0.02500000000000000139 0 0 0 -1 0.0249263801793530998 0.001917177914110430089 0 1 I I 0 1 0.02499999999999999792 forward I I I I #
coedge $-1 $28 $29 $19 $30 reversed $11 $-1 #
coedge $-1 $31 $13 $18 $30 forward $7 $-1 #
coedge $-1 $13 $31 $32 $33 forward $7 $-1 #
coedge $-1 $34 $35 $13 $22 reversed $36 $-1 #
edge $-1 $37 -0.3452998696785160027 $38 -0 $21 $39 reversed 7 unknown #
pid_name-sg-attrib $-1 $-1 $-1 $15 7 rwilson 784252905 1260 1 #
face $40 $41 $36 $3 $-1 $42 forward single #
loop $-1 $-1 $43 $15 #
plane-surface $-1 0.2154791280494960104 0 0 0 -1 0 0 0 -1 forward_v I I I I #
coedge $-1 $44 $45 $46 $47 forward $16 $-1 #
coedge $-1 $48 $18 $35 $49 forward $11 $-1 #
coedge $-1 $18 $48 $50 $51 forward $11 $-1 #
edge $-1 $38 -0.05999999999999999778 $52 -0 $18 $53 reversed 7 unknown #
coedge $-1 $20 $19 $54 $55 forward $7 $-1 #
coedge $-1 $56 $57 $20 $33 reversed $58 $-1 #
edge $-1 $59 0 $37 0.05999999999999999778 $32 $60 forward 7 unknown #
coedge $-1 $61 $21 $57 $62 forward $36 $-1 #
coedge $-1 $21 $46 $28 $49 reversed $36 $-1 #
loop $-1 $-1 $34 $24 #
vertex $-1 $22 $63 #
vertex $-1 $30 $64 #
straight-curve $-1 0.3452998696785160027 0.06300000000000000044 0.05999999999999999778 -1 0 0 I I #
pid_name-sg-attrib $-1 $-1 $-1 $24 7 rwilson 784252905 1261 1 #
face $65 $66 $67 $3 $-1 $68 reversed single #
plane-surface $-1 0 0 0.05999999999999999778 0 0 1 1 0 0 forward_v I I I I #
coedge $-1 $69 $70 $44 $71 reversed $25 $-1 #
coedge $-1 $72 $27 $43 $71 forward $16 $-1 #
coedge $-1 $27 $72 $48 $73 forward $16 $-1 #
coedge $-1 $35 $74 $27 $47 reversed $36 $-1 #
edge $-1 $75 4.065758146820497266e-15 $76 1.647558808030358035 $46 $77 forward 7 unknown #
coedge $-1 $29 $28 $45 $73 reversed $11 $-1 #
edge $-1 $38 -0.1037026591605544751 $75 -0 $35 $78 reversed 7 unknown #
coedge $-1 $79 $54 $29 $51 reversed $80 $-1 #
edge $-1 $81 0 $52 0.1037026591605544751 $50 $82 forward 7 unknown #
vertex $-1 $30 $83 #
straight-curve $-1 0.3452998696785160027 0.06300000000000000044 0 0 0 1 I I #
coedge $-1 $50 $84 $31 $55 reversed $80 $-1 #
edge $-1 $52 0 $59 0.3452998696785160027 $54 $85 forward 7 unknown #
coedge $-1 $86 $32 $84 $87 forward $58 $-1 #
coedge $-1 $32 $86 $34 $62 reversed $58 $-1 #
loop $-1 $88 $57 $89 #
vertex $-1 $33 $90 #
straight-curve $-1 3.857510014540490101e-18 0.06300000000000000044 0 0 0 1 I I #
coedge $-1 $91 $34 $92 $93 reversed $36 $-1 #
edge $-1 $37 -2.844886680750757346 $94 -0 $57 $95 reversed 7 unknown #
point $-1 0 0.06300000000000000044 0.05999999999999999778 #
point $-1 0.3452998696785160027 0.06300000000000000044 0.05999999999999999778 #
pid_name-sg-attrib $-1 $-1 $-1 $41 7 rwilson 784252905 1262 1 #
face $96 $97 $98 $3 $-1 $99 forward single #
loop $-1 $-1 $100 $41 #
cone-surface $-1 0.224894541134491005 -0.06300000000000000044 0 0 0 1 0 0.06300000000000000044 0 1 I I 0 1 0.06300000000000000044 forward I I I I #
coedge $-1 $101 $43 $74 $102 forward $25 $-1 #
coedge $-1 $43 $101 $103 $104 forward $25 $-1 #
edge $-1 $76 -0.05999999999999999778 $105 -0 $43 $106 reversed 7 unknown #
coedge $-1 $45 $44 $79 $107 forward $16 $-1 #
edge $-1 $81 0 $75 0.05999999999999999778 $48 $108 forward 7 unknown #
coedge $-1 $46 $91 $69 $102 reversed $36 $-1 #
vertex $-1 $73 $109 #
vertex $-1 $71 $110 #
ellipse-curve $-1 0.3250399975387640028 0.02500000000000000139 0.05999999999999999778 0 0 -1 0.0249263801793530998 0.001917177914110430089 0 1 I I #
ellipse-curve $-1 0 0 0.05999999999999999778 0 0 1 0.3499663777181180047 0.02691717791411039895 0 1 I I #
coedge $-1 $103 $50 $72 $107 reversed $80 $-1 #
loop $-1 $111 $84 $112 #
vertex $-1 $73 $113 #
ellipse-curve $-1 0 0 0 0 0 1 0.3499663777181180047 0.02691717791411039895 0 1 I I #
point $-1 0.3452998696785160027 0.06300000000000000044 0 #
coedge $-1 $54 $114 $56 $87 reversed $80 $-1 #
straight-curve $-1 0.3452998696785160027 0.06300000000000000044 0 -1 0 0 I I #
coedge $-1 $57 $56 $115 $116 reversed $58 $-1 #
edge $-1 $59 -1.57079632679489678 $117 1.867502299633932772 $84 $118 forward 7 unknown #
loop $-1 $-1 $119 $89 #
face $120 $112 $58 $3 $-1 $121 forward single #
point $-1 3.857510014540490101e-18 0.06300000000000000044 0 #
coedge $-1 $74 $61 $100 $122 reversed $36 $-1 #
coedge $-1 $115 $123 $61 $93 forward $98 $-1 #
edge $-1 $124 -0.1966483018795053828 $94 -0 $61 $125 reversed 7 unknown #
vertex $-1 $93 $126 #
ellipse-curve $-1 0 0 0.05999999999999999778 0 0 1 0.01841941739753239979 -0.06024719962567119669 0 1 I I #
pid_name-sg-attrib $-1 $-1 $-1 $66 7 rwilson 784252905 1263 1 #
face $127 $128 $129 $3 $-1 $130 reversed single #
loop $-1 $-1 $131 $66 #
plane-surface $-1 0.01841941739753239979 -0.06024719962567119669 0 0.2923717047227371024 -0.9563047559630354355 0 0 0 -1 forward_v I I I I #
coedge $-1 $132 $133 $91 $122 forward $67 $-1 #
coedge $-1 $70 $69 $133 $134 reversed $25 $-1 #
edge $-1 $76 -0.1001454564042729978 $135 -0 $74 $136 reversed 7 unknown #
coedge $-1 $137 $79 $70 $104 reversed $80 $-1 #
edge $-1 $138 0 $105 0.1001454564042729978 $103 $139 forward 7 unknown #
vertex $-1 $71 $140 #
straight-curve $-1 0.3250399975387640028 0 0 0 0 1 I I #
edge $-1 $105 -1.647558808030358035 $81 -4.065758146820497266e-15 $79 $141 reversed 7 unknown #
straight-curve $-1 0.3499663777181180047 0.02691717791411039895 0 0 0 1 I I #
point $-1 0.3499663777181180047 0.02691717791411039895 0.05999999999999999778 #
point $-1 0.3250399975387640028 0 0.05999999999999999778 #
loop $-1 $-1 $142 $112 #
face $143 $-1 $80 $3 $-1 $144 reversed single #
point $-1 0.3499663777181180047 0.02691717791411039895 0 #
coedge $-1 $84 $137 $131 $145 reversed $80 $-1 #
coedge $-1 $131 $92 $86 $116 forward $98 $-1 #
edge $-1 $94 -0.05999999999999999778 $117 -0 $86 $146 reversed 7 unknown #
vertex $-1 $116 $147 #
ellipse-curve $-1 0 0 0 0 0 1 -0.06300000000000000044 0 0 1 I I #
coedge $-1 $148 $149 $150 $151 reversed $88 $-1 #
pid_name-sg-attrib $-1 $-1 $-1 $89 7 rwilson 784252905 1276 1 #
cone-surface $-1 0 0 0 0 0 1 0.06300000000000000044 0 0 1 I I 0 1 0.06300000000000000044 forward I I I I #
edge $-1 $135 0 $124 0.2967059728390450402 $91 $152 forward 7 unknown #
coedge $-1 $92 $131 $132 $153 reversed $98 $-1 #
vertex $-1 $153 $154 #
straight-curve $-1 0.01841941739753239979 -0.06024719962567119669 0.05999999999999999778 0.9563047559630349914 0.2923717047227369914 0 I I #
point $-1 0.01841941739753239979 -0.06024719962567119669 0.05999999999999999778 #
pid_name-sg-attrib $-1 $-1 $-1 $97 7 rwilson 784252905 1264 1 #
face $155 $156 $157 $3 $-1 $158 forward single #
loop $-1 $-1 $159 $97 #
cone-surface $-1 0 0 0.2220000000000000029 0 0 1 0.067000000000000004 0 0 1 I I 0 1 0.067000000000000004 forward I I I I #
coedge $-1 $123 $115 $114 $145 forward $98 $-1 #
coedge $-1 $160 $100 $123 $153 forward $67 $-1 #
coedge $-1 $100 $160 $101 $134 forward $67 $-1 #
edge $-1 $138 0 $135 0.05999999999999999778 $101 $161 forward 7 unknown #
vertex $-1 $134 $162 #
straight-curve $-1 0.224894541134491005 0 0.05999999999999999778 1 0 0 I I #
coedge $-1 $114 $103 $160 $163 reversed $80 $-1 #
vertex $-1 $134 $164 #
straight-curve $-1 0.224894541134491005 0 0 1 0 0 I I #
point $-1 0.3250399975387640028 0 0 #
ellipse-curve $-1 0.3250399975387640028 0.02500000000000000139 0 0 0 -1 0.0249263801793530998 0.001917177914110430089 0 1 I I #
coedge $-1 $142 $142 $165 $166 reversed $111 $-1 #
pid_name-sg-attrib $-1 $-1 $-1 $112 7 rwilson 784252905 1277 1 #
plane-surface $-1 0 0 0 0 0 1 1 0 0 forward_v I I I I #
edge $-1 $117 -3.791072788384958979e-07 $167 0.1966479227722265355 $114 $168 forward 7 unknown #
straight-curve $-1 0.01841941739753239979 -0.06024719962567119669 0 0 0 1 I I #
point $-1 0.01841941739753239979 -0.06024719962567119669 0 #
coedge $-1 $169 $119 $170 $171 reversed $88 $-1 #
coedge $-1 $119 $169 $172 $173 reversed $88 $-1 #
coedge $-1 $174 $175 $119 $151 forward $176 $-1 #
edge $-1 $177 -4.309824677397339078e-46 $178 4.637857373530812843 $119 $179 forward 7 unknown #
ellipse-curve $-1 0.224894541134491005 -0.06300000000000000044 0.05999999999999999778 0 0 1 0 0.06300000000000000044 0 1 I I #
edge $-1 $124 -0.05999999999999999778 $167 -0 $123 $180 reversed 7 unknown #
point $-1 0.206475123736958005 -0.002752800374328779904 0.05999999999999999778 #
pid_name-sg-attrib $-1 $-1 $-1 $128 7 rwilson 784252905 1265 1 #
face $181 $182 $183 $3 $-1 $184 forward single #
loop $-1 $-1 $185 $128 #
plane-surface $-1 -0.06027621994661720023 -0.0183242273765370986 0.2220000000000000029 0.2756373558169989968 -0.9612616959383190052 0 0 0 -1 forward_v I I I I #
coedge $-1 $186 $187 $188 $189 forward $129 $-1 #
coedge $-1 $133 $132 $137 $163 forward $67 $-1 #
straight-curve $-1 0.224894541134491005 0 0 0 0 1 I I #
point $-1 0.224894541134491005 0 0.05999999999999999778 #
edge $-1 $167 -0.2967059728390450402 $138 -0 $137 $190 reversed 7 unknown #
point $-1 0.224894541134491005 0 0 #
coedge $-1 $165 $165 $142 $166 forward $191 $-1 #
edge $-1 $192 -3.141592653589793116 $192 3.141592653589793116 $142 $193 forward 7 unknown #
vertex $-1 $153 $194 #
straight-curve $-1 0.01841977993962620047 -0.06024708878542989893 0 0.9563047559630349914 0.2923717047227369914 0 I I #
coedge $-1 $149 $148 $195 $196 reversed $88 $-1 #
coedge $-1 $197 $198 $148 $171 forward $199 $-1 #
edge $-1 $200 0 $177 0.08900000000000000966 $148 $201 forward 7 unknown #
coedge $-1 $202 $203 $149 $173 forward $204 $-1 #
edge $-1 $178 -0.08900000000000000966 $205 -0 $149 $206 reversed 7 unknown #
coedge $-1 $207 $150 $203 $208 forward $176 $-1 #
coedge $-1 $150 $207 $197 $209 forward $176 $-1 #
loop $-1 $-1 $174 $210 #
vertex $-1 $209 $211 #
vertex $-1 $208 $212 #
ellipse-curve $-1 0 0 0.1660000000000000087 3.031169991930719918e-16 3.197144552749770017e-16 1 -0.04334521418175389662 -0.04571862210891620287 2.775557561562890118e-17 1 I I #
straight-curve $-1 0.206475123736958005 -0.002752800374328779904 0 -4.625929269271489858e-16 -1.156482317317869999e-16 1 I I #
pid_name-sg-attrib $-1 $-1 $-1 $156 7 rwilson 784252905 1266 1 #
face $213 $214 $215 $3 $-1 $216 forward single #
loop $-1 $-1 $217 $156 #
plane-surface $-1 -0.2592650205475289793 -0.07538334776652820535 0.2220000000000000029 -0.9612616959383187831 -0.2756373558169999405 0 0 0 1 forward_v I I I I #
coedge $-1 $218 $219 $220 $221 forward $157 $-1 #
coedge $-1 $222 $159 $223 $224 forward $129 $-1 #
coedge $-1 $159 $222 $207 $225 forward $129 $-1 #
coedge $-1 $203 $226 $159 $189 reversed $204 $-1 #
edge $-1 $227 0 $228 0.05599999999999999423 $188 $229 forward 7 unknown #
ellipse-curve $-1 0.224894541134491005 -0.06300000000000000044 0 0 0 1 0 0.06300000000000000044 0 1 I I #
loop $-1 $-1 $165 $230 #
vertex $-1 $166 $231 #
ellipse-curve $-1 0 0 0 0 0 -1 -0.03175000000000000044 0 0 1 I I #
point $-1 0.206475123736958005 -0.002752800374328779904 0 #
coedge $-1 $232 $233 $169 $196 forward $234 $-1 #
edge $-1 $205 -0.8332876846358610035 $200 0.8120402490129211559 $169 $235 forward 7 unknown #
coedge $-1 $236 $170 $175 $209 reversed $199 $-1 #
coedge $-1 $170 $237 $232 $238 forward $199 $-1 #
loop $-1 $-1 $197 $239 #
vertex $-1 $238 $240 #
straight-curve $-1 -0.04334521418175370233 -0.04571862210891639716 0.076999999999999999 7.796510004390139868e-17 -7.796510004390139868e-17 1 I I #
coedge $-1 $241 $172 $233 $242 forward $204 $-1 #
coedge $-1 $172 $188 $174 $208 reversed $204 $-1 #
loop $-1 $-1 $202 $243 #
vertex $-1 $242 $244 #
straight-curve $-1 -0.04236409998397740184 0.0466292079339502008 0.076999999999999999 -1.559302000878029946e-16 -7.796510004390139868e-17 1 I I #
coedge $-1 $175 $174 $187 $225 reversed $176 $-1 #
edge $-1 $178 -0.2566484872397926109 $227 -1.420471478187103879e-15 $203 $245 reversed 7 unknown #
edge $-1 $246 1.529738514970728878e-15 $177 0.2566484872397921113 $197 $247 forward 7 unknown #
face $248 $239 $249 $3 $-1 $250 forward single #
point $-1 -0.04334521418175389662 -0.04571862210891620287 0.1660000000000000087 #
point $-1 -0.04236409998397760307 0.04662920793394999958 0.1660000000000000087 #
pid_name-sg-attrib $-1 $-1 $-1 $182 7 rwilson 784252905 1267 1 #
face $251 $252 $253 $3 $-1 $254 forward single #
loop $-1 $-1 $255 $182 #
plane-surface $-1 -0.2733225256941960168 -0.02635900127367389947 0.2220000000000000029 -0.2756373558169989968 0.9612616959383190052 0 0 0 1 forward_v I I I I #
coedge $-1 $256 $257 $258 $259 reversed $183 $-1 #
coedge $-1 $260 $185 $261 $262 reversed $157 $-1 #
coedge $-1 $185 $260 $237 $263 reversed $157 $-1 #
coedge $-1 $264 $265 $185 $221 reversed $253 $-1 #
edge $-1 $266 0 $267 0.1614642915902791964 $220 $268 forward 7 unknown #
coedge $-1 $187 $186 $236 $269 forward $129 $-1 #
coedge $-1 $270 $264 $186 $224 reversed $253 $-1 #
edge $-1 $228 -1.163303716038809776 $271 -0 $223 $272 reversed 7 unknown #
edge $-1 $246 -1.163303716038810665 $227 -0 $207 $273 reversed 7 unknown #
coedge $-1 $188 $241 $270 $274 forward $204 $-1 #
vertex $-1 $225 $275 #
vertex $-1 $189 $276 #
straight-curve $-1 -0.05558805663498959937 0.03740278010449470114 0.1660000000000000087 -4.95635278850516031e-16 -2.478176394252580155e-16 1 I I #
face $277 $210 $278 $3 $-1 $279 reversed single #
point $-1 0.03175000000000000044 3.88812517338604973e-18 0 #
coedge $-1 $280 $195 $198 $238 reversed $234 $-1 #
coedge $-1 $195 $281 $202 $242 reversed $234 $-1 #
loop $-1 $-1 $195 $282 #
ellipse-curve $-1 0 0 0.076999999999999999 0 0 1 -0.06300000000000000044 0 0 1 I I #
coedge $-1 $283 $197 $222 $269 reversed $199 $-1 #
coedge $-1 $198 $283 $219 $263 forward $199 $-1 #
edge $-1 $284 6.282854615058359024e-15 $200 1.038008758101068851 $232 $285 forward 7 unknown #
face $286 $89 $199 $3 $-1 $287 reversed single #
point $-1 -0.04334521418175370233 -0.04571862210891639716 0.076999999999999999 #
coedge $-1 $226 $202 $288 $289 forward $204 $-1 #
edge $-1 $205 -0.4582559618399432155 $290 -5.463351839181171042e-17 $233 $291 reversed 7 unknown #
face $292 $230 $204 $3 $-1 $293 reversed single #
point $-1 -0.04236409998397740184 0.0466292079339502008 0.076999999999999999 #
ellipse-curve $-1 -0.08472819996795490083 0.09325841586790040161 0.1660000000000000087 0 0 1 0.02914014333296520085 -0.05585563576340570047 0 1 I I #
vertex $-1 $225 $294 #
ellipse-curve $-1 -0.08669042836350740466 -0.09143724421783279432 0.1660000000000000087 0 0 -1 0.0303202656006702001 0.05522392139195490129 0 1 I I #
pid_name-sg-attrib $-1 $-1 $-1 $210 7 rwilson 784252905 1274 1 #
loop $-1 $176 $295 $210 #
plane-surface $-1 0 0 0.1660000000000000087 0 0 1 1 0 0 forward_v I I I I #
pid_name-sg-attrib $-1 $-1 $-1 $214 7 rwilson 784252905 1268 1 #
face $296 $297 $298 $3 $-1 $299 reversed single #
loop $-1 $300 $270 $214 #
plane-surface $-1 0 0 0.2220000000000000029 0 0 1 1 0 0 forward_v I I I I #
coedge $-1 $258 $288 $281 $301 forward $215 $-1 #
coedge $-1 $261 $217 $302 $303 forward $183 $-1 #
coedge $-1 $217 $261 $265 $304 forward $183 $-1 #
coedge $-1 $305 $255 $217 $259 forward $215 $-1 #
edge $-1 $306 -0.1450000000000000178 $307 -0 $217 $308 reversed 7 unknown #
coedge $-1 $219 $218 $280 $309 forward $157 $-1 #
coedge $-1 $257 $256 $218 $262 forward $183 $-1 #
edge $-1 $310 -0.1450000000000000178 $267 -0 $218 $311 reversed 7 unknown #
edge $-1 $266 -0.1450000000000000178 $284 -0 $219 $312 reversed 7 unknown #
coedge $-1 $223 $220 $283 $313 reversed $253 $-1 #
coedge $-1 $220 $314 $257 $304 reversed $253 $-1 #
vertex $-1 $263 $315 #
vertex $-1 $262 $316 #
straight-curve $-1 -0.1040555817799779931 -0.03087775737371870055 0.2220000000000000029 -0.9612616959383190052 -0.2756373558169989968 0 I I #
edge $-1 $271 0 $246 0.05599999999999999423 $236 $317 forward 7 unknown #
coedge $-1 $314 $223 $226 $274 reversed $253 $-1 #
vertex $-1 $269 $318 #
ellipse-curve $-1 0 0 0.2220000000000000029 0 0 -1 -0.05637016276283710048 -0.03621332282587789997 0 1 I I #
ellipse-curve $-1 0 0 0.1660000000000000087 0 0 1 -0.05558805663498959937 0.03740278010449470114 0 1 I I #
edge $-1 $319 5.463351839181171042e-17 $228 0.2016074746001459972 $270 $320 forward 7 unknown #
point $-1 -0.05558805663498959937 0.03740278010449470114 0.1660000000000000087 #
point $-1 -0.05558805663498970345 0.03740278010449470114 0.2220000000000000029 #
pid_name-sg-attrib $-1 $-1 $-1 $230 7 rwilson 784252905 1273 1 #
loop $-1 $191 $321 $230 #
cone-surface $-1 0 0 0.2220000000000000029 0 0 -1 -0.03175000000000000044 0 0 1 I I 0 1 0.03175000000000000044 forward I I I I #
coedge $-1 $302 $232 $260 $309 reversed $234 $-1 #
coedge $-1 $233 $302 $255 $301 reversed $234 $-1 #
face $322 $243 $323 $3 $-1 $324 forward single #
coedge $-1 $237 $236 $264 $313 forward $199 $-1 #
vertex $-1 $263 $325 #
ellipse-curve $-1 -0.08669042836350740466 -0.09143724421783279432 0.076999999999999999 0 0 -1 -0.01736515341647100127 0.06055948684411410071 0 1 I I #
pid_name-sg-attrib $-1 $-1 $-1 $239 7 rwilson 784252905 1275 1 #
cone-surface $-1 -0.08669042836350740466 -0.09143724421783279432 0.076999999999999999 0 0 -1 -0.01736515341647100127 0.06055948684411410071 0 1 I I 0 1 0.0630000000000000282 forward I I I I #
coedge $-1 $255 $305 $241 $289 reversed $215 $-1 #
edge $-1 $290 0 $319 0.1450000000000000178 $288 $326 forward 7 unknown #
vertex $-1 $289 $327 #
ellipse-curve $-1 -0.08472819996795490083 0.09325841586790040161 0.076999999999999999 0 0 1 0.01736515341647100127 -0.06055948684411410071 0 1 I I #
pid_name-sg-attrib $-1 $-1 $-1 $243 7 rwilson 784252905 1272 1 #
cone-surface $-1 -0.08472819996795490083 0.09325841586790040161 0.076999999999999999 0 0 1 0.01736515341647100127 -0.06055948684411410071 0 1 I I 0 1 0.0630000000000000282 forward I I I I #
point $-1 -0.05637016276283710048 -0.03621332282587789997 0.1660000000000000087 #
coedge $-1 $295 $295 $321 $328 forward $249 $-1 #
pid_name-sg-attrib $-1 $-1 $-1 $252 7 rwilson 784252905 1269 1 #
face $329 $282 $330 $3 $-1 $331 reversed single #
loop $-1 $332 $333 $252 #
cone-surface $-1 -0.2199009732288620123 -0.03704810350070750213 1.201999999999999957 0 0 1 1 0 0 1 I I 0.7071067811865470176 0.7071067811865480168 1 forward I I I I #
loop $-1 $-1 $334 $214 #
edge $-1 $290 -0.2142595299625128513 $306 -0 $281 $335 reversed 7 unknown #
coedge $-1 $281 $280 $256 $303 reversed $234 $-1 #
edge $-1 $306 -0.05100000000000005917 $310 -0 $302 $336 reversed 7 unknown #
edge $-1 $267 0 $307 0.05100000000000005917 $265 $337 forward 7 unknown #
coedge $-1 $288 $258 $314 $338 forward $215 $-1 #
vertex $-1 $259 $339 #
vertex $-1 $259 $340 #
straight-curve $-1 -0.2733225256941960168 -0.02635900127367389947 0.2220000000000000029 0 0 -1 I I #
edge $-1 $310 -0.1614642915902791964 $284 -0 $280 $341 reversed 7 unknown #
vertex $-1 $262 $342 #
straight-curve $-1 -0.2592650205475289793 -0.07538334776652820535 0.2220000000000000029 0 0 -1 I I #
straight-curve $-1 -0.1040555817799779931 -0.03087775737371870055 0.076999999999999999 0 0 1 I I #
edge $-1 $271 -0.781360270861274131 $266 -6.282854615058359024e-15 $264 $343 reversed 7 unknown #
coedge $-1 $265 $270 $305 $338 reversed $253 $-1 #
point $-1 -0.1040555817799779931 -0.03087775737371870055 0.2220000000000000029 #
point $-1 -0.2592650205475289793 -0.07538334776652820535 0.2220000000000000029 #
straight-curve $-1 -0.05637016276283710048 -0.03621332282587789997 0.2220000000000000029 -1.239088197126290077e-16 1.239088197126290077e-16 -1 I I #
point $-1 -0.05637016276283710048 -0.03621332282587789997 0.2220000000000000029 #
vertex $-1 $289 $344 #
ellipse-curve $-1 -0.08472819996795490083 0.09325841586790040161 0.2220000000000000029 0 0 1 0.01736515341647100127 -0.06055948684411410071 0 1 I I #
coedge $-1 $321 $321 $295 $328 reversed $278 $-1 #
pid_name-sg-attrib $-1 $-1 $-1 $282 7 rwilson 784252905 1271 1 #
loop $-1 $234 $345 $282 #
plane-surface $-1 0 0 0.076999999999999999 0 0 -1 -1 0 0 forward_v I I I I #
point $-1 -0.1040555817799779931 -0.03087775737371870055 0.076999999999999999 #
straight-curve $-1 -0.06736304655148389608 0.0326989290237863009 0.076999999999999999 0 0 1 I I #
point $-1 -0.06736304655148389608 0.0326989290237863009 0.076999999999999999 #
edge $-1 $346 0 $346 6.283185307179586232 $321 $347 forward 7 unknown #
pid_name-sg-attrib $-1 $-1 $-1 $297 7 rwilson 784252905 1270 1 #
loop $-1 $348 $349 $297 #
cone-surface $-1 -0.2199009732288620123 -0.03704810350070750213 0.2220000000000000029 0 0 1 0.01124999999999999958 0 0 1 I I 0 1 0.01124999999999999958 forward I I I I #
loop $-1 $-1 $350 $252 #
coedge $-1 $333 $333 $334 $351 forward $298 $-1 #
coedge $-1 $334 $334 $333 $351 reversed $300 $-1 #
straight-curve $-1 -0.2733225256941960168 -0.02635900127367389947 0.076999999999999999 0.9612616959383190052 0.2756373558169989968 0 I I #
straight-curve $-1 -0.2592650205475289793 -0.07538334776652820535 0.076999999999999999 -0.275637355816999996 0.9612616959383190052 0 I I #
straight-curve $-1 -0.2592650205475289793 -0.07538334776652820535 0.2220000000000000029 -0.275637355816999996 0.9612616959383190052 0 I I #
edge $-1 $307 0 $319 0.2142595299625128513 $314 $352 forward 7 unknown #
point $-1 -0.2733225256941960168 -0.02635900127367389947 0.076999999999999999 #
point $-1 -0.2733225256941960168 -0.02635900127367389947 0.2220000000000000029 #
straight-curve $-1 -0.1040555817799779931 -0.03087775737371870055 0.076999999999999999 -0.9612616959383190052 -0.2756373558169989968 0 I I #
point $-1 -0.2592650205475289793 -0.07538334776652820535 0.076999999999999999 #
ellipse-curve $-1 -0.08669042836350740466 -0.09143724421783279432 0.2220000000000000029 0 0 -1 -0.01736515341647100127 0.06055948684411410071 0 1 I I #
point $-1 -0.06736304655148389608 0.0326989290237863009 0.2220000000000000029 #
coedge $-1 $345 $345 $353 $354 reversed $323 $-1 #
vertex $-1 $328 $355 #
ellipse-curve $-1 0 0 0.1660000000000000087 8.741913579725640327e-16 0 -1 0.03175000000000000044 0 2.775557561562890118e-17 1 I I #
loop $-1 $-1 $353 $297 #
coedge $-1 $349 $349 $350 $356 reversed $330 $-1 #
coedge $-1 $350 $350 $349 $356 forward $332 $-1 #
edge $-1 $357 -6.283185307179586232 $357 -0 $334 $358 reversed 7 unknown #
straight-curve $-1 -0.2733225256941960168 -0.02635900127367389947 0.2220000000000000029 0.9612616959383190052 0.2756373558169989968 0 I I #
coedge $-1 $353 $353 $345 $354 forward $348 $-1 #
edge $-1 $359 -6.283185307179586232 $359 -0 $345 $360 reversed 7 unknown #
point $-1 0.03175000000000000044 0 0.1660000000000000087 #
edge $-1 $361 -6.283185307179586232 $361 -0 $349 $362 reversed 7 unknown #
vertex $-1 $351 $363 #
ellipse-curve $-1 -0.2199009732288620123 -0.03704810350070750213 0.2220000000000000029 0 0 -1 -0.02000000000000000042 0 0 1 I I #
vertex $-1 $354 $364 #
ellipse-curve $-1 -0.2199009732288620123 -0.03704810350070750213 0.076999999999999999 0 0 1 0.01124999999999999958 0 0 1 I I #
vertex $-1 $356 $365 #
ellipse-curve $-1 -0.2199009732288620123 -0.03704810350070750213 0.2132499999999999951 0 0 1 -0.01124999999999999958 0 0 1 I I #
point $-1 -0.2399009732288620023 -0.03704810350070750213 0.2220000000000000029 #
point $-1 -0.2086509732288620023 -0.03704810350070750213 0.076999999999999999 #
point $-1 -0.2311509732288619945 -0.03704810350070750213 0.2132499999999999951 #
End-of-ACIS-data 