600 0 2 0           
24 FBMach with ACIS - 6.0.3 13 ACIS 6.0.3 NT 24 Tue May 22 12:24:11 2001 
1 9.9999999999999995e-007 1e-010 
body $2 $3 $-1 $4 #
bdycol-kcp $-1 1 3 $5 $6 $7 #
model_id-kcp-attrib $-1 $-1 $-1 $0 1 990548651 50 -2060320767 1 #
lump $-1 $-1 $8 $0 #
transform $-1 1 0 0 0 1 0 0 0 1 0 0 3.5 1 rotate no_reflect no_shear #
body $9 $10 $-1 $11 #
body $12 $13 $-1 $14 #
body $15 $16 $-1 $17 #
shell $-1 $-1 $-1 $18 $-1 $3 #
model_id-kcp-attrib $-1 $-1 $-1 $5 1 990548651 50 -2060320766 1 #
lump $-1 $-1 $19 $5 #
transform $-1 1 0 0 0 1 0 0 0 1 0 0 7.5 1 no_rotate no_reflect no_shear #
rgb_color-st-attrib $-1 $20 $-1 $6 0.5 1 1 #
lump $-1 $-1 $21 $6 #
transform $-1 1 0 0 0 1 0 0 0 1 0 0 7.5 1 no_rotate no_reflect no_shear #
rgb_color-st-attrib $-1 $22 $-1 $7 1 0.5 1 #
lump $-1 $-1 $23 $7 #
transform $-1 1 0 0 0 1 0 0 0 1 0 0 7.5 1 no_rotate no_reflect no_shear #
face $24 $25 $26 $8 $-1 $27 forward single #
shell $-1 $-1 $-1 $28 $-1 $10 #
model_id-kcp-attrib $-1 $-1 $12 $6 1 990548651 140 -2054422525 1 #
shell $-1 $-1 $-1 $29 $-1 $13 #
model_id-kcp-attrib $-1 $-1 $15 $7 1 990548651 220 -2049179644 1 #
shell $-1 $-1 $-1 $30 $-1 $16 #
model_id-kcp-attrib $-1 $31 $-1 $18 1 990548651 50 -2060320767 8 #
face $32 $33 $34 $8 $-1 $35 forward single #
loop $-1 $-1 $36 $18 #
plane-surface $-1 0 0 11.5 0 0 1 1 0 0 forward_v I I I I #
face $37 $38 $39 $19 $-1 $40 forward single #
face $-1 $41 $42 $21 $-1 $43 reversed single #
face $-1 $44 $45 $23 $-1 $46 forward single #
model_id-kcp-attrib $-1 $-1 $24 $18 1 990548651 50 -2060320767 2 #
model_id-kcp-attrib $-1 $-1 $-1 $25 1 990548651 50 -2060320767 3 #
face $47 $48 $49 $8 $-1 $50 reversed single #
loop $-1 $51 $52 $25 #
cone-surface $-1 0 0 11.5 0 0 1 2.5 0 0 1 I I 0 1 2.5 forward I I I I #
coedge $-1 $36 $36 $53 $54 forward $26 $-1 #
model_id-kcp-attrib $-1 $-1 $-1 $28 1 990548651 50 -2060320766 2 #
face $55 $56 $57 $19 $-1 $58 reversed single #
loop $-1 $-1 $59 $28 #
plane-surface $-1 0 0 7.5 0 0 1 1 0 0 forward_v I I I I #
face $-1 $60 $61 $21 $-1 $43 reversed single #
loop $-1 $-1 $62 $29 #
cone-surface $-1 2.3347805520718955e-030 0 7.5 0 0 1 6 -3.8498501261918783e-014 0 1 I I 0 1 6 forward I I I I #
face $-1 $63 $64 $23 $-1 $65 forward single #
loop $-1 $66 $67 $30 #
cone-surface $-1 0 0 -0.5 0 0 1 2.5 0 0 1 I I 0 -1 2.5 forward I I I I #
model_id-kcp-attrib $-1 $-1 $-1 $33 1 990548651 50 -2060320767 4 #
face $68 $69 $70 $8 $-1 $71 forward single #
loop $-1 $72 $73 $33 #
torus-surface $-1 0 0 -3.5 0 0 1 6 5 1 0 0 forward_v I I I I #
loop $-1 $-1 $53 $25 #
coedge $-1 $52 $52 $74 $75 reversed $34 $-1 #
coedge $-1 $53 $53 $36 $54 reversed $51 $-1 #
edge $76 $77 -3.1415926535897998 $77 3.1415926535897865 $53 $78 forward 7 unknown #
model_id-kcp-attrib $-1 $-1 $-1 $38 1 990548651 50 -2060320766 3 #
face $-1 $79 $80 $19 $-1 $81 reversed single #
loop $-1 $-1 $82 $38 #
plane-surface $-1 0 0 -7.5 0 0 1 1 0 0 forward_v I I I I #
coedge $-1 $83 $84 $85 $86 forward $39 $-1 #
face $-1 $87 $88 $21 $-1 $43 reversed single #
loop $-1 $-1 $89 $41 #
coedge $-1 $90 $91 $92 $93 reversed $42 $-1 #
face $-1 $94 $95 $23 $-1 $96 forward single #
loop $-1 $97 $98 $44 #
cone-surface $-1 2.3347805520718955e-030 0 -0.5 0 0 1 6 -3.8498501261918783e-014 0 1 I I 0 1 6 forward I I I I #
loop $-1 $-1 $99 $30 #
coedge $-1 $67 $67 $100 $101 forward $45 $-1 #
model_id-kcp-attrib $-1 $-1 $-1 $48 1 990548651 50 -2060320767 5 #
face $102 $103 $104 $8 $-1 $105 forward single #
loop $-1 $106 $107 $48 #
cone-surface $-1 0 0 0 0 0 1 6 0 0 1 I I 0 1 6 forward I I I I #
loop $-1 $-1 $108 $33 #
coedge $-1 $73 $73 $107 $109 reversed $49 $-1 #
coedge $-1 $74 $74 $52 $75 forward $110 $-1 #
edge $-1 $111 -3.1415926535897998 $111 3.1415926535897865 $74 $112 forward 7 unknown #
attrib_edge_convexity-kcp-attrib $-1 $113 $-1 $54 1 #
vertex $-1 $54 $114 #
ellipse-curve $-1 0 0 11.5 0 0 1 2.5 0 0 1 I I #
face $-1 $115 $116 $19 $-1 $117 reversed single #
loop $-1 $-1 $118 $56 #
plane-surface $-1 0 -6 0 0 1 0 0 0 1 forward_v I I I I #
coedge $-1 $119 $120 $121 $122 forward $57 $-1 #
coedge $-1 $123 $59 $124 $125 forward $39 $-1 #
coedge $-1 $59 $123 $126 $127 forward $39 $-1 #
coedge $-1 $128 $129 $59 $86 reversed $130 $-1 #
edge $-1 $131 -6 $132 6 $85 $133 forward 7 unknown #
face $-1 $134 $135 $21 $-1 $43 reversed single #
loop $-1 $-1 $136 $60 #
coedge $-1 $137 $138 $139 $140 reversed $61 $-1 #
coedge $-1 $141 $62 $142 $143 reversed $42 $-1 #
coedge $-1 $62 $141 $144 $145 reversed $42 $-1 #
coedge $-1 $146 $147 $148 $93 forward $149 $-1 #
edge $-1 $150 -15 $151 0 $92 $152 forward 7 unknown #
face $-1 $-1 $153 $23 $-1 $154 reversed single #
loop $-1 $155 $156 $63 #
plane-surface $-1 -0.45187165775401034 1.9292552912005025e-015 7.5 0 0 1 1 0 0 forward_v I I I I #
loop $-1 $-1 $157 $44 #
coedge $-1 $98 $98 $156 $158 forward $64 $-1 #
coedge $-1 $99 $99 $159 $160 reversed $66 $-1 #
coedge $-1 $100 $100 $67 $101 reversed $155 $-1 #
edge $-1 $161 -3.1415926535897865 $161 3.1415926535897998 $67 $162 forward 7 unknown #
model_id-kcp-attrib $-1 $-1 $-1 $69 1 990548651 50 -2060320767 6 #
face $163 $-1 $110 $8 $-1 $164 forward single #
loop $-1 $-1 $165 $69 #
plane-surface $-1 0 0 -3.5 0 0 -1 -1 0 0 forward_v I I I I #
loop $-1 $-1 $166 $48 #
coedge $-1 $107 $107 $73 $109 forward $70 $-1 #
coedge $-1 $108 $108 $165 $167 reversed $72 $-1 #
edge $-1 $168 -3.1415926535897998 $168 3.1415926535897865 $107 $169 forward 7 unknown #
loop $-1 $170 $74 $103 #
vertex $-1 $75 $171 #
ellipse-curve $-1 0 0 3.5 0 0 -1 2.5 0 0 1 I I #
convexity-sys-attrib $-1 $-1 $76 $54 #
point $-1 -2.5 1.7457406694215701e-014 11.5 #
face $-1 $172 $173 $19 $-1 $174 reversed single #
loop $-1 $-1 $175 $79 #
plane-surface $-1 -6 0 0 1 0 0 0 0 -1 forward_v I I I I #
coedge $-1 $176 $126 $177 $178 forward $80 $-1 #
coedge $-1 $179 $82 $176 $180 forward $57 $-1 #
coedge $-1 $82 $179 $181 $182 forward $57 $-1 #
coedge $-1 $129 $128 $82 $122 reversed $130 $-1 #
edge $-1 $183 -6 $184 6 $121 $185 forward 7 unknown #
coedge $-1 $84 $83 $186 $187 forward $39 $-1 #
coedge $-1 $188 $189 $83 $125 reversed $173 $-1 #
edge $-1 $132 -6 $190 6 $124 $191 forward 7 unknown #
coedge $-1 $118 $192 $84 $127 reversed $80 $-1 #
edge $-1 $193 -6 $131 6 $126 $194 forward 7 unknown #
coedge $-1 $121 $85 $192 $195 forward $130 $-1 #
coedge $-1 $85 $121 $188 $196 reversed $130 $-1 #
loop $-1 $-1 $128 $172 #
vertex $-1 $86 $197 #
vertex $-1 $86 $198 #
straight-curve $-1 6 0 7.5 0 1 0 I I #
face $-1 $199 $200 $21 $-1 $201 reversed single #
loop $-1 $-1 $202 $87 #
coedge $-1 $203 $204 $205 $206 reversed $88 $-1 #
coedge $-1 $207 $89 $208 $209 reversed $61 $-1 #
coedge $-1 $89 $207 $62 $93 forward $61 $-1 #
coedge $-1 $210 $211 $89 $140 forward $212 $-1 #
edge $-1 $213 -3.1415926535897993 $151 -1.570796326794903 $139 $214 forward 7 unknown #
coedge $-1 $91 $90 $204 $215 forward $42 $-1 #
coedge $-1 $216 $217 $90 $143 forward $218 $-1 #
edge $-1 $219 6.4164168769864638e-015 $150 1.570796326794903 $142 $220 forward 7 unknown #
coedge $-1 $221 $222 $91 $145 forward $223 $-1 #
edge $-1 $151 -1.570796326794903 $224 -6.4164168769864638e-015 $144 $214 forward 7 unknown #
coedge $-1 $225 $92 $222 $226 reversed $149 $-1 #
coedge $-1 $92 $225 $216 $227 reversed $149 $-1 #
coedge $-1 $228 $229 $138 $93 reversed $230 $-1 #
loop $-1 $-1 $92 $231 #
vertex $-1 $227 $232 #
vertex $-1 $233 $234 #
straight-curve $-1 2.3347805520718955e-030 6 7.5 0 0 1 I I #
loop $-1 $235 $236 $94 #
plane-surface $-1 -0.45187165775401034 1.9292552912005025e-015 -0.49999999999999994 0 0 1 1 0 0 forward_v I I I I #
loop $-1 $-1 $100 $63 #
coedge $-1 $156 $156 $98 $158 reversed $95 $-1 #
coedge $-1 $157 $157 $236 $237 reversed $97 $-1 #
edge $-1 $238 -3.1415926535897931 $238 3.1415926535897931 $98 $239 forward 7 unknown #
coedge $-1 $159 $159 $99 $160 forward $235 $-1 #
edge $-1 $240 -3.1415926535897865 $240 3.1415926535897998 $99 $241 forward 7 unknown #
vertex $-1 $101 $242 #
ellipse-curve $-1 0 0 7.5 0 0 1 2.5 0 0 1 I I #
model_id-kcp-attrib $-1 $-1 $-1 $103 1 990548651 50 -2060320767 7 #
plane-surface $-1 0 0 3.5 0 0 1 1 0 0 forward_v I I I I #
coedge $-1 $165 $165 $108 $167 forward $104 $-1 #
coedge $-1 $166 $166 $243 $244 reversed $106 $-1 #
edge $-1 $245 -3.1415926535897998 $245 3.1415926535897865 $165 $246 forward 7 unknown #
vertex $-1 $109 $247 #
ellipse-curve $-1 0 0 1.5 0 0 1 6 0 0 1 I I #
loop $-1 $-1 $243 $103 #
point $-1 -2.5 -1.7457406694215701e-014 3.5 #
face $-1 $-1 $130 $19 $-1 $248 reversed single #
loop $-1 $-1 $188 $115 #
plane-surface $-1 0 6 0 0 -1 0 0 0 -1 forward_v I I I I #
coedge $-1 $249 $186 $189 $250 forward $116 $-1 #
coedge $-1 $192 $118 $119 $180 reversed $80 $-1 #
coedge $-1 $186 $249 $118 $178 reversed $116 $-1 #
edge $-1 $193 -7.5 $251 7.5 $177 $252 forward 7 unknown #
coedge $-1 $120 $119 $249 $253 forward $57 $-1 #
edge $-1 $184 -6 $251 6 $176 $254 forward 7 unknown #
coedge $-1 $189 $188 $120 $182 reversed $173 $-1 #
edge $-1 $255 -6 $183 6 $181 $256 forward 7 unknown #
vertex $-1 $122 $257 #
vertex $-1 $195 $258 #
straight-curve $-1 6 0 -7.5 0 -1 0 I I #
coedge $-1 $175 $177 $123 $187 reversed $116 $-1 #
edge $-1 $190 -6 $193 6 $186 $259 forward 7 unknown #
coedge $-1 $181 $124 $129 $196 forward $173 $-1 #
coedge $-1 $124 $181 $175 $250 reversed $173 $-1 #
vertex $-1 $125 $260 #
straight-curve $-1 0 6 7.5 -1 0 0 I I #
coedge $-1 $126 $176 $128 $195 reversed $80 $-1 #
vertex $-1 $187 $261 #
straight-curve $-1 0 -6 7.5 1 0 0 I I #
edge $-1 $131 -7.5 $184 7.5 $128 $262 forward 7 unknown #
edge $-1 $132 -7.5 $183 7.5 $129 $263 forward 7 unknown #
point $-1 6 -6 7.5 #
point $-1 6 6 7.5 #
face $-1 $264 $230 $21 $-1 $265 reversed single #
loop $-1 $-1 $266 $134 #
plane-surface $-1 6 0 0 -1 0 0 0 0 1 forward_v I I I I #
coedge $-1 $267 $268 $269 $270 reversed $135 $-1 #
coedge $-1 $271 $136 $268 $272 forward $88 $-1 #
coedge $-1 $136 $271 $273 $215 reversed $88 $-1 #
coedge $-1 $274 $275 $136 $206 forward $276 $-1 #
edge $-1 $277 -1.5707963267948901 $219 6.4164168769864638e-015 $205 $220 forward 7 unknown #
coedge $-1 $138 $137 $278 $279 reversed $61 $-1 #
coedge $-1 $280 $281 $282 $209 forward $283 $-1 #
edge $-1 $284 -15 $213 0 $208 $285 forward 7 unknown #
coedge $-1 $211 $139 $229 $233 forward $212 $-1 #
coedge $-1 $139 $210 $280 $286 forward $212 $-1 #
loop $-1 $-1 $139 $287 #
vertex $-1 $288 $289 #
ellipse-curve $-1 2.3347805520718955e-030 0 7.5 0 0 -1 6 -3.8498501261918783e-014 0 1 I I #
edge $-1 $219 -15 $224 0 $273 $290 forward 7 unknown #
coedge $-1 $217 $142 $147 $227 forward $218 $-1 #
coedge $-1 $142 $216 $291 $292 forward $218 $-1 #
loop $-1 $-1 $142 $293 #
vertex $-1 $294 $295 #
ellipse-curve $-1 2.3347805520718955e-030 0 -7.5 0 0 1 6 -3.8498501261918783e-014 0 1 I I #
coedge $-1 $222 $144 $296 $297 forward $223 $-1 #
coedge $-1 $144 $221 $146 $226 forward $223 $-1 #
loop $-1 $-1 $144 $298 #
vertex $-1 $297 $299 #
coedge $-1 $147 $146 $300 $301 forward $149 $-1 #
edge $-1 $302 -6 $151 -2.3347805520718955e-030 $146 $303 forward 7 unknown #
edge $-1 $150 2.3347805520718955e-030 $304 6 $147 $305 forward 7 unknown #
coedge $-1 $306 $148 $307 $308 reversed $230 $-1 #
coedge $-1 $148 $306 $210 $233 reversed $230 $-1 #
loop $-1 $-1 $148 $199 #
face $-1 $309 $149 $21 $-1 $265 reversed single #
point $-1 2.3347805520718955e-030 6 -7.5 #
edge $-1 $151 -2.3347805520718955e-030 $310 6 $229 $303 forward 7 unknown #
point $-1 2.3347805520718955e-030 6 7.5 #
loop $-1 $-1 $159 $94 #
coedge $-1 $236 $236 $157 $237 forward $153 $-1 #
edge $311 $312 -3.1415926535897931 $312 3.1415926535897931 $157 $313 forward 7 unknown #
vertex $-1 $158 $314 #
ellipse-curve $-1 2.3347805520718955e-030 0 7.5 0 0 -1 6 -3.8498501261918783e-014 0 1 I I #
vertex $-1 $160 $315 #
ellipse-curve $-1 0 0 -0.5 0 0 1 2.5 0 0 1 I I #
point $-1 -2.5 -1.7457406694215705e-014 7.5 #
coedge $-1 $243 $243 $166 $244 forward $170 $-1 #
edge $-1 $316 0 $316 6.2831853071795862 $243 $317 forward 7 unknown #
vertex $-1 $167 $318 #
ellipse-curve $-1 0 0 -3.5 0 0 -1 1 0 0 1 I I #
point $-1 -6 4.18977760661176e-014 1.5 #
plane-surface $-1 6 0 0 -1 0 0 0 0 1 forward_v I I I I #
coedge $-1 $177 $175 $179 $253 reversed $116 $-1 #
edge $-1 $190 -7.5 $255 7.5 $189 $319 forward 7 unknown #
vertex $-1 $253 $320 #
straight-curve $-1 -6 -6 0 0 0 -1 I I #
edge $-1 $251 -6 $255 6 $249 $321 forward 7 unknown #
straight-curve $-1 0 -6 -7.5 -1 0 0 I I #
vertex $-1 $182 $322 #
straight-curve $-1 0 6 -7.5 1 0 0 I I #
point $-1 6 6 -7.5 #
point $-1 6 -6 -7.5 #
straight-curve $-1 -6 0 7.5 0 -1 0 I I #
point $-1 -6 6 7.5 #
point $-1 -6 -6 7.5 #
straight-curve $-1 6 -6 0 0 0 -1 I I #
straight-curve $-1 6 6 0 0 0 -1 I I #
face $-1 $323 $324 $21 $-1 $325 reversed single #
plane-surface $-1 0 6 0 0 -1 0 0 0 -1 forward_v I I I I #
coedge $-1 $291 $296 $141 $215 reversed $200 $-1 #
coedge $-1 $326 $202 $137 $209 forward $135 $-1 #
coedge $-1 $202 $326 $327 $272 reversed $135 $-1 #
coedge $-1 $328 $329 $202 $270 forward $330 $-1 #
edge $-1 $284 -3.1415926535897869 $277 -1.5707963267948901 $269 $220 forward 7 unknown #
coedge $-1 $204 $203 $331 $332 reversed $88 $-1 #
edge $-1 $277 -15 $333 0 $327 $334 forward 7 unknown #
coedge $-1 $335 $336 $266 $215 forward $337 $-1 #
coedge $-1 $275 $205 $336 $294 forward $276 $-1 #
coedge $-1 $205 $274 $338 $339 forward $276 $-1 #
loop $-1 $-1 $205 $340 #
vertex $-1 $341 $342 #
coedge $-1 $343 $307 $207 $279 forward $344 $-1 #
edge $-1 $150 1.570796326794903 $284 3.1415926535897993 $278 $220 forward 7 unknown #
coedge $-1 $345 $208 $211 $286 reversed $283 $-1 #
coedge $-1 $208 $345 $343 $346 reversed $283 $-1 #
coedge $-1 $347 $348 $267 $209 reversed $324 $-1 #
loop $-1 $-1 $208 $349 #
vertex $-1 $346 $350 #
straight-curve $-1 -6 0 7.5 0 0 1 I I #
edge $-1 $310 -6 $213 0 $280 $351 forward 7 unknown #
face $-1 $298 $212 $21 $-1 $352 forward single #
edge $-1 $213 0 $353 6 $348 $351 forward 7 unknown #
point $-1 -6 0 7.5 #
straight-curve $-1 6 0 7.5 0 0 1 I I #
coedge $-1 $300 $266 $217 $292 reversed $200 $-1 #
edge $-1 $304 -6 $219 0 $291 $354 forward 7 unknown #
face $-1 $355 $218 $21 $-1 $356 reversed single #
edge $-1 $219 0 $357 6 $336 $354 forward 7 unknown #
point $-1 6 0 -7.5 #
coedge $-1 $266 $300 $221 $297 reversed $200 $-1 #
edge $-1 $224 0 $302 6 $296 $358 forward 7 unknown #
face $-1 $359 $223 $21 $-1 $352 forward single #
point $-1 6 0 7.5 #
coedge $-1 $296 $291 $225 $301 reversed $200 $-1 #
edge $-1 $302 -7.5 $304 7.5 $300 $360 forward 7 unknown #
vertex $-1 $297 $361 #
straight-curve $-1 0 6 7.5 -1 0 0 I I #
vertex $-1 $292 $362 #
straight-curve $-1 0 6 -7.5 1 0 0 I I #
coedge $-1 $229 $228 $345 $363 reversed $230 $-1 #
coedge $-1 $278 $343 $228 $308 forward $344 $-1 #
edge $-1 $364 -6 $150 2.3347805520718955e-030 $228 $305 forward 7 unknown #
face $-1 $-1 $337 $21 $-1 $201 reversed single #
vertex $-1 $233 $365 #
convexity-sys-attrib $-1 $-1 $-1 $237 #
vertex $-1 $237 $366 #
ellipse-curve $-1 2.3347805520718955e-030 0 -0.5 0 0 -1 6 -3.8498501261918783e-014 0 1 I I #
point $-1 -6 3.9233265074212209e-014 7.5 #
point $-1 -2.5 -1.7457406694215701e-014 -0.5 #
vertex $-1 $244 $367 #
ellipse-curve $-1 0 0 3.5 0 0 1 6 0 0 1 I I #
point $-1 -1 -6.9829626776862699e-015 -3.5 #
straight-curve $-1 -6 6 0 0 0 -1 I I #
point $-1 -6 -6 -7.5 #
straight-curve $-1 -6 0 -7.5 0 1 0 I I #
point $-1 -6 6 -7.5 #
face $-1 $287 $368 $21 $-1 $352 forward single #
loop $-1 $-1 $282 $264 #
plane-surface $-1 -6 0 0 1 0 0 0 0 -1 forward_v I I I I #
coedge $-1 $268 $267 $369 $370 reversed $135 $-1 #
coedge $-1 $371 $372 $373 $272 forward $374 $-1 #
coedge $-1 $329 $269 $372 $341 forward $330 $-1 #
coedge $-1 $269 $328 $347 $375 forward $330 $-1 #
loop $-1 $-1 $269 $376 #
coedge $-1 $377 $378 $271 $332 forward $379 $-1 #
edge $-1 $224 -6.4164168769864638e-015 $333 1.5707963267948901 $331 $214 forward 7 unknown #
vertex $-1 $380 $381 #
straight-curve $-1 2.3347805520718955e-030 -6 7.5 0 0 1 I I #
coedge $-1 $382 $273 $378 $383 reversed $337 $-1 #
coedge $-1 $273 $382 $274 $294 reversed $337 $-1 #
loop $-1 $-1 $273 $309 #
coedge $-1 $384 $373 $275 $339 reversed $385 $-1 #
edge $-1 $357 -6 $277 -2.3347805520718955e-030 $338 $386 forward 7 unknown #
face $-1 $293 $276 $21 $-1 $356 reversed single #
edge $-1 $277 -2.3347805520718955e-030 $387 6 $372 $386 forward 7 unknown #
point $-1 2.3347805520718955e-030 -6 -7.5 #
coedge $-1 $307 $278 $281 $346 forward $344 $-1 #
loop $-1 $-1 $278 $355 #
coedge $-1 $281 $280 $306 $363 forward $283 $-1 #
edge $-1 $284 0 $364 6 $281 $388 forward 7 unknown #
coedge $-1 $389 $282 $329 $375 reversed $324 $-1 #
coedge $-1 $282 $389 $390 $288 reversed $324 $-1 #
face $-1 $231 $283 $21 $-1 $325 reversed single #
point $-1 -6 0 -7.5 #
straight-curve $-1 -6 0 7.5 0 -1 0 I I #
plane-surface $-1 0 0 7.5 0 0 1 1 0 0 forward_v I I I I #
vertex $-1 $288 $391 #
straight-curve $-1 6 0 -7.5 0 -1 0 I I #
face $-1 $392 $344 $21 $-1 $356 reversed single #
plane-surface $-1 0 0 -7.5 0 0 1 1 0 0 forward_v I I I I #
vertex $-1 $393 $394 #
straight-curve $-1 6 0 7.5 0 1 0 I I #
face $-1 $395 $379 $21 $-1 $352 forward single #
straight-curve $-1 6 6 0 0 0 -1 I I #
point $-1 6 6 7.5 #
point $-1 6 6 -7.5 #
edge $-1 $310 -7.5 $364 7.5 $306 $396 forward 7 unknown #
vertex $-1 $308 $397 #
point $-1 -6 6 7.5 #
point $-1 -6 3.9233265074212209e-014 -0.5 #
point $-1 6 0 3.5 #
loop $-1 $-1 $369 $323 #
coedge $-1 $390 $398 $326 $370 forward $368 $-1 #
edge $-1 $333 1.5707963267948901 $213 3.1415926535897869 $369 $214 forward 7 unknown #
coedge $-1 $399 $327 $398 $400 reversed $374 $-1 #
coedge $-1 $327 $399 $328 $341 reversed $374 $-1 #
coedge $-1 $338 $401 $203 $272 reversed $385 $-1 #
loop $-1 $-1 $327 $392 #
edge $-1 $387 -6 $284 0 $347 $388 forward 7 unknown #
face $-1 $340 $330 $21 $-1 $356 reversed single #
coedge $-1 $378 $331 $401 $380 forward $379 $-1 #
coedge $-1 $331 $377 $335 $383 forward $379 $-1 #
loop $-1 $-1 $331 $359 #
edge $-1 $333 2.3347805520718955e-030 $402 6 $401 $403 forward 7 unknown #
point $-1 2.3347805520718955e-030 -6 7.5 #
coedge $-1 $336 $335 $384 $393 forward $337 $-1 #
edge $-1 $402 -6 $224 0 $335 $358 forward 7 unknown #
coedge $-1 $401 $338 $382 $393 reversed $385 $-1 #
loop $-1 $-1 $373 $395 #
straight-curve $-1 0 -6 -7.5 -1 0 0 I I #
vertex $-1 $375 $404 #
straight-curve $-1 -6 0 -7.5 0 1 0 I I #
coedge $-1 $348 $347 $399 $405 reversed $324 $-1 #
coedge $-1 $398 $369 $348 $288 forward $368 $-1 #
point $-1 -6 -6 7.5 #
face $-1 $349 $374 $21 $-1 $406 reversed single #
edge $-1 $402 -7.5 $357 7.5 $382 $407 forward 7 unknown #
point $-1 6 -6 -7.5 #
face $-1 $376 $385 $21 $-1 $406 reversed single #
straight-curve $-1 -6 6 0 0 0 -1 I I #
point $-1 -6 6 -7.5 #
coedge $-1 $369 $390 $371 $400 forward $368 $-1 #
coedge $-1 $372 $371 $389 $405 forward $374 $-1 #
edge $-1 $353 -6 $333 2.3347805520718955e-030 $371 $403 forward 7 unknown #
coedge $-1 $373 $384 $377 $380 reversed $385 $-1 #
vertex $-1 $383 $408 #
straight-curve $-1 0 -6 7.5 1 0 0 I I #
point $-1 -6 -6 -7.5 #
edge $-1 $353 -7.5 $387 7.5 $389 $409 forward 7 unknown #
plane-surface $-1 0 -6 0 0 1 0 0 0 1 forward_v I I I I #
straight-curve $-1 6 -6 0 0 0 -1 I I #
point $-1 6 -6 7.5 #
straight-curve $-1 -6 -6 0 0 0 -1 I I #
End-of-ACIS-data 