105 56 1 0                              
body $-1 $1 $-1 $2 #
lump $-1 $-1 $3 $0 #
transform $-1 1 0 0 0 1 0 0 0 1 0 0 3.5 1 0 0 0 #
shell $-1 $-1 $-1 $4 $1 #
face $-1 $5 $6 $3 $-1 $7 forward single #
face $-1 $8 $9 $3 $-1 $10 forward single #
loop $-1 $-1 $11 $4 #
plane-surface $-1 0 0 11.5 0 0 1 1 0 0 0 #
face $-1 $12 $13 $3 $-1 $14 reversed single #
loop $-1 $15 $16 $5 #
cone-surface $-1 0 0 11.5 0 0 1 2.5 0 0 1 0 1 0 #
coedge $-1 $11 $11 $17 $18 0 $6 $-1 #
face $-1 $19 $20 $3 $-1 $21 forward single #
loop $-1 $22 $23 $8 #
torus-surface $-1 0 0 -3.5 0 0 1 6 5 1 0 0 0 #
loop $-1 $-1 $17 $5 #
coedge $-1 $16 $16 $24 $25 1 $9 $-1 #
coedge $-1 $17 $17 $11 $18 1 $15 $-1 #
edge $-1 $26 $26 $17 $27 0 #
face $-1 $28 $29 $3 $-1 $30 forward single #
loop $-1 $31 $32 $12 #
cone-surface $-1 0 0 0 0 0 1 6 0 0 1 0 1 0 #
loop $-1 $-1 $33 $8 #
coedge $-1 $23 $23 $32 $34 1 $13 $-1 #
coedge $-1 $24 $24 $16 $25 0 $35 $-1 #
edge $-1 $36 $36 $24 $37 0 #
vertex $-1 $18 $38 #
ellipse-curve $-1 0 0 11.5 0 0 1 2.5 0 0 1 #
face $-1 $-1 $35 $3 $-1 $39 forward single #
loop $-1 $-1 $40 $19 #
plane-surface $-1 0 0 -3.5 0 0 -1 -1 0 0 0 #
loop $-1 $-1 $41 $12 #
coedge $-1 $32 $32 $23 $34 0 $20 $-1 #
coedge $-1 $33 $33 $40 $42 1 $22 $-1 #
edge $-1 $43 $43 $32 $44 0 #
loop $-1 $45 $24 $28 #
vertex $-1 $25 $46 #
ellipse-curve $-1 0 0 3.5 -0 -0 -1 2.5 0 0 1 #
point $-1 -2.5 1.74574066942157e-14 11.5 #
plane-surface $-1 0 0 3.5 0 0 1 1 0 0 0 #
coedge $-1 $40 $40 $33 $42 0 $29 $-1 #
coedge $-1 $41 $41 $47 $48 1 $31 $-1 #
edge $-1 $49 $49 $40 $50 0 #
vertex $-1 $34 $51 #
ellipse-curve $-1 0 0 1.5 0 0 1 6 0 0 1 #
loop $-1 $-1 $47 $28 #
point $-1 -2.5 -1.74574066942157e-14 3.5 #
coedge $-1 $47 $47 $41 $48 0 $45 $-1 #
edge $-1 $52 $52 $47 $53 0 #
vertex $-1 $42 $54 #
ellipse-curve $-1 0 0 -3.5 0 0 -1 1 0 0 1 #
point $-1 -6 4.18977760661176e-14 1.5 #
vertex $-1 $48 $55 #
ellipse-curve $-1 0 0 3.5 0 0 1 6 0 0 1 #
point $-1 -1 -6.98296267768627e-15 -3.5 #
point $-1 6 0 3.5 #
