  0
SECTION
  2
HEADER
  9
$ACADVER
  1
AC1009
  9
$INSBASE
 10
0.0
 20
0.0
 30
0.0
  9
$EXTMIN
 10
-1.0
 20
0.0
 30
0.0
  9
$EXTMAX
 10
3.0
 20
6.0
 30
3.0
  9
$LIMMIN
 10
0.0
 20
0.0
  9
$LIMMAX
 10
12.0
 20
9.0
  9
$ORTHOMODE
 70
     0
  9
$REGENMODE
 70
     1
  9
$FILLMODE
 70
     1
  9
$QTEXTMODE
 70
     0
  9
$MIRRTEXT
 70
     1
  9
$DRAGMODE
 70
     2
  9
$LTSCALE
 40
1.0
  9
$OSMODE
 70
     0
  9
$ATTMODE
 70
     1
  9
$TEXTSIZE
 40
0.2
  9
$TRACEWID
 40
0.05
  9
$TEXTSTYLE
  7
STANDARD
  9
$CLAYER
  8
0
  9
$CELTYPE
  6
BYLAYER
  9
$CECOLOR
 62
   256
  9
$DIMSCALE
 40
1.0
  9
$DIMASZ
 40
0.18
  9
$DIMEXO
 40
0.0625
  9
$DIMDLI
 40
0.38
  9
$DIMRND
 40
0.0
  9
$DIMDLE
 40
0.0
  9
$DIMEXE
 40
0.18
  9
$DIMTP
 40
0.0
  9
$DIMTM
 40
0.0
  9
$DIMTXT
 40
0.18
  9
$DIMCEN
 40
0.09
  9
$DIMTSZ
 40
0.0
  9
$DIMTOL
 70
     0
  9
$DIMLIM
 70
     0
  9
$DIMTIH
 70
     1
  9
$DIMTOH
 70
     1
  9
$DIMSE1
 70
     0
  9
$DIMSE2
 70
     0
  9
$DIMTAD
 70
     0
  9
$DIMZIN
 70
     0
  9
$DIMBLK
  1

  9
$DIMASO
 70
     1
  9
$DIMSHO
 70
     1
  9
$DIMPOST
  1

  9
$DIMAPOST
  1

  9
$DIMALT
 70
     0
  9
$DIMALTD
 70
     2
  9
$DIMALTF
 40
25.4
  9
$DIMLFAC
 40
1.0
  9
$DIMTOFL
 70
     0
  9
$DIMTVP
 40
0.0
  9
$DIMTIX
 70
     0
  9
$DIMSOXD
 70
     0
  9
$DIMSAH
 70
     0
  9
$DIMBLK1
  1

  9
$DIMBLK2
  1

  9
$DIMSTYLE
  2
*UNNAMED
  9
$DIMCLRD
 70
     0
  9
$DIMCLRE
 70
     0
  9
$DIMCLRT
 70
     0
  9
$DIMTFAC
 40
1.0
  9
$DIMGAP
 40
0.09
  9
$LUNITS
 70
     2
  9
$LUPREC
 70
     4
  9
$SKETCHINC
 40
0.1
  9
$FILLETRAD
 40
0.0
  9
$AUNITS
 70
     0
  9
$AUPREC
 70
     0
  9
$MENU
  1
acad
  9
$ELEVATION
 40
0.0
  9
$PELEVATION
 40
0.0
  9
$THICKNESS
 40
0.0
  9
$LIMCHECK
 70
     0
  9
$BLIPMODE
 70
     1
  9
$CHAMFERA
 40
0.0
  9
$CHAMFERB
 40
0.0
  9
$SKPOLY
 70
     0
  9
$TDCREATE
 40
2449408.793376226
  9
$TDUPDATE
 40
2449408.793937442
  9
$TDINDWG
 40
0.0005612153
  9
$TDUSRTIMER
 40
0.0005612153
  9
$USRTIMER
 70
     1
  9
$ANGBASE
 50
0.0
  9
$ANGDIR
 70
     0
  9
$PDMODE
 70
     0
  9
$PDSIZE
 40
0.0
  9
$PLINEWID
 40
0.0
  9
$COORDS
 70
     1
  9
$SPLFRAME
 70
     0
  9
$SPLINETYPE
 70
     6
  9
$SPLINESEGS
 70
     8
  9
$ATTDIA
 70
     0
  9
$ATTREQ
 70
     1
  9
$HANDLING
 70
     1
  9
$HANDSEED
  5
46
  9
$SURFTAB1
 70
     6
  9
$SURFTAB2
 70
     6
  9
$SURFTYPE
 70
     6
  9
$SURFU
 70
     6
  9
$SURFV
 70
     6
  9
$UCSNAME
  2

  9
$UCSORG
 10
0.0
 20
0.0
 30
0.0
  9
$UCSXDIR
 10
1.0
 20
0.0
 30
0.0
  9
$UCSYDIR
 10
0.0
 20
1.0
 30
0.0
  9
$PUCSNAME
  2

  9
$PUCSORG
 10
0.0
 20
0.0
 30
0.0
  9
$PUCSXDIR
 10
1.0
 20
0.0
 30
0.0
  9
$PUCSYDIR
 10
0.0
 20
1.0
 30
0.0
  9
$USERI1
 70
     0
  9
$USERI2
 70
     0
  9
$USERI3
 70
     0
  9
$USERI4
 70
     0
  9
$USERI5
 70
     0
  9
$USERR1
 40
0.0
  9
$USERR2
 40
0.0
  9
$USERR3
 40
0.0
  9
$USERR4
 40
0.0
  9
$USERR5
 40
0.0
  9
$WORLDVIEW
 70
     1
  9
$SHADEDGE
 70
     3
  9
$SHADEDIF
 70
    70
  9
$TILEMODE
 70
     1
  9
$MAXACTVP
 70
    16
  9
$PINSBASE
 10
0.0
 20
0.0
 30
0.0
  9
$PLIMCHECK
 70
     0
  9
$PEXTMIN
 10
1.000000E+20
 20
1.000000E+20
 30
1.000000E+20
  9
$PEXTMAX
 10
-1.000000E+20
 20
-1.000000E+20
 30
-1.000000E+20
  9
$PLIMMIN
 10
0.0
 20
0.0
  9
$PLIMMAX
 10
12.0
 20
9.0
  9
$UNITMODE
 70
     0
  9
$VISRETAIN
 70
     0
  9
$PLINEGEN
 70
     0
  9
$PSLTSCALE
 70
     1
  9
$TREEDEPTH
 70
  3020
  9
$DWGCODEPAGE
  3
ascii
  0
ENDSEC
  0
SECTION
  2
TABLES
  0
TABLE
  2
VPORT
 70
     2
  0
VPORT
  2
*ACTIVE
 70
     0
 10
0.0
 20
0.0
 11
1.0
 21
1.0
 12
1.830077
 22
0.091287
 13
0.0
 23
0.0
 14
1.0
 24
1.0
 15
0.0
 25
0.0
 16
1.0
 26
2.0
 36
1.0
 17
0.0
 27
0.0
 37
0.0
 40
5.6598
 41
1.594883
 42
50.0
 43
0.0
 44
0.0
 50
0.0
 51
0.0
 71
     0
 72
   100
 73
     1
 74
     1
 75
     0
 76
     0
 77
     0
 78
     0
  0
ENDTAB
  0
TABLE
  2
LTYPE
 70
     1
  0
LTYPE
  2
CONTINUOUS
 70
    64
  3
Solid line
 72
    65
 73
     0
 40
0.0
  0
ENDTAB
  0
TABLE
  2
LAYER
 70
     2
  0
LAYER
  2
0
 70
    64
 62
     7
  6
CONTINUOUS
  0
LAYER
  2
AME_FRZ
 70
    65
 62
     7
  6
CONTINUOUS
  0
ENDTAB
  0
TABLE
  2
STYLE
 70
     1
  0
STYLE
  2
STANDARD
 70
     0
 40
0.0
 41
1.0
 50
0.0
 71
     0
 42
0.2
  3
txt
  4

  0
ENDTAB
  0
TABLE
  2
VIEW
 70
     0
  0
ENDTAB
  0
TABLE
  2
UCS
 70
     0
  0
ENDTAB
  0
TABLE
  2
APPID
 70
     3
  0
APPID
  2
ACAD
 70
    64
  0
APPID
  2
AME_SOL
 70
    64
  0
APPID
  2
AVE_INVOKE
 70
    64
  0
ENDTAB
  0
TABLE
  2
DIMSTYLE
 70
     0
  0
ENDTAB
  0
ENDSEC
  0
SECTION
  2
BLOCKS
  0
BLOCK
  8
0
  5
1
  2
AME_NIL
 70
    64
 10
0.0
 20
0.0
 30
0.0
  1
AME_NIL
  3
AME_NIL
  0
ENDBLK
  8
0
  5
2
  0
BLOCK
  8
0
  5
4
  2
AME_SOL
 70
    64
 10
0.0
 20
0.0
 30
0.0
  1
AME_SOL
  3
AME_SOL
  0
ENDBLK
  8
0
  5
5
  0
BLOCK
  8
0
  5
25
  2
*U4
 70
    65
 10
0.0
 20
0.0
 30
0.0
  1
*U
  3
*U
  0
LINE
  8
0
 62
     7
  5
26
 10
2.0
 20
5.0
 30
2.0
 11
2.0
 21
5.0
 31
3.0
1001
AME_SOL
1070
     1
1071
       33
  0
LINE
  8
0
 62
     7
  5
27
 10
2.0
 20
5.0
 30
0.0
 11
2.0
 21
5.0
 31
1.0
1001
AME_SOL
1070
     1
1071
       32
  0
LINE
  8
0
 62
     7
  5
28
 10
2.0
 20
5.0
 30
3.0
 11
2.0
 21
0.0
 31
3.0
1001
AME_SOL
1070
     1
1071
       31
  0
LINE
  8
0
 62
     7
  5
29
 10
0.0
 20
5.0
 30
3.0
 11
2.0
 21
5.0
 31
3.0
1001
AME_SOL
1070
     1
1071
       30
  0
LINE
  8
0
 62
     7
  5
2A
 10
0.0
 20
5.0
 30
2.0
 11
0.0
 21
5.0
 31
3.0
1001
AME_SOL
1070
     1
1071
       29
  0
LINE
  8
0
 62
     7
  5
2B
 10
0.0
 20
5.0
 30
0.0
 11
0.0
 21
5.0
 31
1.0
1001
AME_SOL
1070
     1
1071
       28
  0
LINE
  8
0
 62
     7
  5
2C
 10
0.0
 20
5.0
 30
3.0
 11
0.0
 21
0.0
 31
3.0
1001
AME_SOL
1070
     1
1071
       27
  0
LINE
  8
0
 62
     7
  5
2D
 10
0.0
 20
0.0
 30
0.0
 11
0.0
 21
0.0
 31
3.0
1001
AME_SOL
1070
     1
1071
       26
  0
LINE
  8
0
 62
     7
  5
2E
 10
2.0
 20
0.0
 30
3.0
 11
2.0
 21
0.0
 31
0.0
1001
AME_SOL
1070
     1
1071
       25
  0
LINE
  8
0
 62
     7
  5
2F
 10
0.0
 20
0.0
 30
3.0
 11
2.0
 21
0.0
 31
3.0
1001
AME_SOL
1070
     1
1071
       24
  0
LINE
  8
0
 62
     7
  5
30
 10
0.0
 20
0.0
 30
0.0
 11
2.0
 21
0.0
 31
0.0
1001
AME_SOL
1070
     1
1071
       23
  0
LINE
  8
0
 62
     7
  5
31
 10
0.0
 20
5.0
 30
0.0
 11
0.0
 21
0.0
 31
0.0
1001
AME_SOL
1070
     1
1071
       22
  0
LINE
  8
0
 62
     7
  5
32
 10
2.0
 20
0.0
 30
0.0
 11
2.0
 21
5.0
 31
0.0
1001
AME_SOL
1070
     1
1071
       21
  0
LINE
  8
0
 62
     7
  5
33
 10
2.0
 20
5.0
 30
0.0
 11
0.0
 21
5.0
 31
0.0
1001
AME_SOL
1070
     1
1071
       20
  0
LINE
  8
0
 62
     7
  5
34
 10
0.0
 20
2.267949
 30
2.0
 11
0.0
 21
5.0
 31
2.0
1001
AME_SOL
1070
     1
1071
       19
  0
LINE
  8
0
 62
     7
  5
35
 10
2.0
 20
5.0
 30
2.0
 11
2.0
 21
2.267949
 31
2.0
1001
AME_SOL
1070
     1
1071
       18
  0
LINE
  8
0
 62
     7
  5
36
 10
0.0
 20
5.0
 30
2.0
 11
2.0
 21
5.0
 31
2.0
1001
AME_SOL
1070
     1
1071
       17
  0
LINE
  8
0
 62
     7
  5
37
 10
0.0
 20
5.0
 30
1.0
 11
0.0
 21
2.267949
 31
1.0
1001
AME_SOL
1070
     1
1071
       16
  0
LINE
  8
0
 62
     7
  5
38
 10
2.0
 20
2.267949
 30
1.0
 11
2.0
 21
5.0
 31
1.0
1001
AME_SOL
1070
     1
1071
       15
  0
LINE
  8
0
 62
     7
  5
39
 10
2.0
 20
5.0
 30
1.0
 11
0.0
 21
5.0
 31
1.0
1001
AME_SOL
1070
     1
1071
       14
  0
ARC
  8
0
 62
     7
  5
3A
 10
1.0
 20
4.0
 30
1.0
 40
2.0
 50
240.0
 51
300.0
1001
AME_SOL
1070
     1
1071
       13
  0
LINE
  8
0
 62
     7
  5
3B
 10
0.0
 20
2.267949
 30
1.0
 11
0.0
 21
2.267949
 31
2.0
1001
AME_SOL
1070
     1
1071
       12
  0
LINE
  8
0
 62
     7
  5
3C
 10
2.0
 20
2.267949
 30
1.0
 11
2.0
 21
2.267949
 31
2.0
1001
AME_SOL
1070
     1
1071
       11
  0
ARC
  8
0
 62
     7
  5
3D
 10
1.0
 20
4.0
 30
2.0
 40
2.0
 50
240.0
 51
300.0
1001
AME_SOL
1070
     1
1071
       10
  0
LINE
  8
0
 62
     7
  5
3E
 10
1.0
 20
2.0
 30
1.0
 11
1.0
 21
2.0
 31
2.0
1001
AME_SOL
1070
     0
1071
        1
  0
ENDBLK
  8
0
  5
3F
  0
BLOCK
  8
0
  5
43
  2
AME_JNK
 70
     0
 10
0.0
 20
0.0
 30
0.0
  1
AME_JNK
  3
AME_JNK
  0
ENDBLK
  8
0
  5
44
  0
ENDSEC
  0
SECTION
  2
ENTITIES
  0
INSERT
  8
AME_FRZ
  5
3
  2
AME_NIL
 10
0.0
 20
0.0
 30
0.0
  0
INSERT
  8
AME_FRZ
  5
6
  2
AME_SOL
 10
0.0
 20
0.0
 30
0.0
1001
AME_SOL
1000
R2.1
1000
AME2
1000
sq cm
1070
     3
1070
     0
1070
     3
1000
wire
1040
45.0
1000
U
1040
1.0
1000
cm
1000
gm
1000
MILD_STEEL
1070
    25
1000
CSG
1070
     1
1070
     3
1070
     3
1070
     3
1070
     0
1000
cu cm
1070
     1
1070
     0
1005
3
  0
INSERT
  8
AME_FRZ
  5
15
  2
AME_NIL
 10
0.0
 20
0.0
 30
0.0
1001
AME_SOL
1002
{
1070
     1
1071
  2485112
1070
  1536
1070
     1
1010
2.0
1020
5.0
1030
3.0
1005
0
1005
0
1005
40
1040
0.0
1040
1.0
1070
     0
1000
MILD_STEEL
1000
0
1010
0.0
1020
0.0
1030
0.0
1010
0.0
1020
0.0
1030
1.0
1040
0.0
1002
}
1001
AVE_INVOKE
1000
SOLAVEMESH
  0
INSERT
  8
AME_FRZ
  5
21
  2
AME_NIL
 10
1.0
 20
4.0
 30
1.0
1001
AME_SOL
1002
{
1070
     1
1071
  2417816
1070
  1538
1070
     1
1010
2.0
1020
2.0
1030
1.0
1005
0
1005
0
1005
40
1040
0.0
1040
1.0
1070
     0
1000
MILD_STEEL
1000
0
1010
1.0
1020
4.0
1030
1.0
1010
0.0
1020
0.0
1030
1.0
1040
0.0
1002
}
1001
AVE_INVOKE
1000
SOLAVEMESH
  0
INSERT
  8
0
  5
40
  2
*U4
 10
0.0
 20
0.0
 30
0.0
1001
AME_SOL
1002
{
1070
     1
1071
  2426552
1070
  1543
1070
     1
1070
     0
1005
15
1005
21
1005
0
1005
41
1005
0
1040
0.0
1040
1.0
1070
     0
1000
MILD_STEEL
1000
0
1002
}
1001
AVE_INVOKE
1000
SOLAVEMESH
  0
INSERT
  8
AME_FRZ
  5
41
  2
AME_NIL
 10
1.0
 20
1.0
 30
1.0
1001
AME_SOL
1004
C7CF01001101880187018501810179016D0179005E014C0137015200DB0038018800FB004D013901D8005B003A0158009000F0007A016E01FE0032006F011F005F014E013B01820030003C01E40024010700F3004F013D012501E7005F000300040082017B0140007001600150013E01BC002601C200FC00
1004
0D00C0006101140008007C01710148006201190051018400EE00720163015201A4003F01EF00CD00800064019F008F00860183017D017301650196005301E600F8006601750054014001270160001801C800B0002801DF0019010D01AD008B002C004E00740125006701CF000C007E01750168015501B700
1004
1000560106004700BF007601690157019200180058014101C1007000420129016F0026002A0173001A013D009E006A01590143012B011B016500D1001C0166004D002C011D015E005D001E015500740044012D011F010E01120035000F01D900A20020011001D300A8001101A900AB002E01210112010101
1004
090000010201F70023001301030128002E00040191002F002201140105013100D0000601930094001501070195007C000801CB0097005A0145011A001D0046011E002F01230116010901CA00C9000A019800500017010B015900B1000C01AF00AE000B0084017F013F00FF008001770101006B015B01E000
1004
47010500B8005C014801A00030011300F900490131011B00560032019C00780078016C015D014A013301F400F20034014600EA004B0135012D00570036016D00380024000200000078C7AF18F575816E4A36B5B821764BB0B9C530460C682ABE29823060157C530460C02AB2F5A78FA72E44EB0D4CA6A4B2
1004
4597AD3C7D397239C16F08FC530460C682AA65070ABA21358EF2D83D3AB4399C98B2F5A78FA72E44EB0D4CA6A4B2434F5A78FA791CBC68E86BFA56B772BBEEF1A3FF859FFFFFFF859FFF859FA893F0B1D5FE4FE4FFFFFF78D1FFC2CFFFFFFFC2CFFFC2CFD449F858EAFF27F27FFFFE15571BC63DE8117F85
1004
9FFFFFFF859FFF85551FA893F0B1F834A03A0070B5072340D280E801C2D41C3CB9FD71BC6FF408BFC2CFFFFFFFC2CFF289AD6B5A7267F27E163F069407400E16A0E4681A501D00385A83879F7FFE157F9DFC2C6B5AD6B5AC7F834A03A0070B507235F8556B5AD6B5AC069407400E16A0E1E5CFFCEFE163F5
1004
D16B5ABA2D6B5CFFCEFE162E378DCE8117F859FFFFFFF859FFF9727EA24FC2C7E0D280E801C2D41C8D034A03A0070B5070F2E7F5C6F1FA045FE167FFFFFFE167F944D6B5AD3933F5927E163F069407400E16A0E4681A501D00385A8387973F82DE11F8A608C18D0554CA0E1574426B1DE5B07A7568733931
1004
65EB4F1F4E5C89D61A994D496482982306341639364707BBA95ADDCAFC39B23FF859FFFFFCEFE157F9DFC2CFD449F858EAFFFFFFFFFF9B23FF859FFFFFCEFE157F9DFC2CFD449F858EAFFFFFFFFFE15416F08FC530460C682AA65070ABA213589941C2AE884D62CBD69E3E9CB913AC35329A92C90D3D69E3
1004
E9E4726C8EEB7952B5BB95F8F3647FF0B3FFFFFFF0B3FFF0B3F5127F23ABFFFFFFFFFE6C8FFE167FFFFFFE167FFE167EA24FE4757FFFFFFFFF0AA0B7847EF8A608C18055F14C118300ABE298230601534F5A78FA790A561A994D48B11F14C118300C726C8EEFBC495CEE45733647FFFF0B3FFF0B3FFFFFFF
1004
FFDD5FFFFFFFFFF3647FFFF0B3FFF0B3FFFFFFFFFDD5FFFFFFFFFC2C05BC23F7C530460C02AF8A608C18055F14C118300A9A7AD3C7D3C8F8A608C18062CBD69E3E9CB91C9B23828D2573B95DC399B23FF859FFFFFFFFF859FFFFFEEAFFFFFFFFFF9B23FF859FFFFFFFFF859FFFFFEEAFFFFFFFFFE1602DE1
1004
2F7C530460C02AF8A608C18055F14C118300ABE298230601852B0D4CA6A4588B2F5A78FA72E4726C8EEC5E2573B91CB99B23FFFFFF859FFF859FFFFFFFEEAFFFFFFFFFF9B23FFFFFF859FFF859FFFFFFFEEAFFFFFFFFFE1602DE11FBE29823060157C530460C02A3C0268C2D4771D8869EB4F1F4F214AC35
1004
329A91622CBD69E3E9CB91C9B23831DC4AE772BB7733647FF0ABFCEFF3BFCEFE157F9DFE4FCB13F2E4757FFFFFFFFFCD91FFC2AFF3BFCEFF3BF855FE77F93F2C4FCB91D5FFFFFFFFFC2C05BC25EF8A608C18055E079A3975BB6ED11F14C118300A9A7AD3C7D3C852B0D4CA6A4588B2F5A78FA72E4726C8EA
1004
2BD4AE772BB5733647FF9DFE77F0ABF855FE77F9DFE4FCB13F2E4757FFFFFFFFFCD91FFE77F9DFC2AFE157F9DFE77F93F2C4FCB91D5FFFFFFFFFC2C05BC25E9941C2AE884D63E29823060157C530460C02A69EB4F1F4F214AC35329A91622CBD69E3E9CB91C9B2398BE4AE772F2399B23FFCEFE157F9DFE7
1004
7F9DFC2AFF27E589F9723ABFFFFFFFFFE6C8FFF3BF855FE77F9DFE77F0ABFC9F9627E5C8EAFFFFFFFFFE161C1B8A608C18D0554CA0E1574426B13283855D109AC597AD3C7D397227586A653525921A7AD3C7D3C8B896E791E7042D255702DCF23CE085A0557E51A2464A0F7B96B50D7F4AEB7952EFDD6F2A
1004
5435FD2B5AD6B5AD69468BFC2CFFFFFFFC2CFFFC2CFD449FC83FFE4FE45C4B73C8F3821692AB816E791E7042D02A9C1BA65070ABA213589941C2AE884D63BCB60F4EAD0E67261A7AD3C7D3C852B0D4CA6A458869EB4F1F4F27FFE163F4089198C976B5CA1AFE94C5F25DFA1AFE94C5F256B5AD73A045FE16
1004
7FFFFFFE167FB9F9175D7497511B4A27AF93F0B1FFFFE161C1BBE29823060154CA0E1574426B1DE5B07A7568733931F14C118300C29586A653522C434F5A78FA793FFF0B1FA0445577AF7B96B50D7F4AEC5E25DFBB178950D7F4AE76B5AD408BFC2CFFFFFFFC2CFFF95288A0BAEBA4BA88DA513D7C9F858F
1004
FFFF0B0E0DC530460C682AA65070ABA21358EF2D83D3AB4399C98B2F5A78FA72E44EB0D4CA6A4B2414C11831A0B1712DCF23CE085A4AAE05B9E479C10B40AAFCA3440A507BDAD7286BFA507BBA977E86BFA507BBA95AD6B5AD6B4A345FE167FFFFFFE167FFE167EA24FC2C1FFF27F22E25B9E479C10B4955
1004
C0B73C8F382168154E0DDF14C118300ABC0F3472EB76DDA23BCB60F4EAD0E67261A7AD3C7D3C852B0D4CA6A45882982306341639F7457F4363F4089E75FA2ECFB96B41EEEA5515EA5DFA8AF5283DDD4AE76B5AD408BFFFC2CFFFFFFFC2AFE86CFCB13F0B1FB9F7457F4361C1BA65070ABA213589941C2AE8
1004
84D63BCB60F4EAD0E67261A7AD3C7D3C852B0D4CA6A4588298230634162E65B51BAE75BC0970A8FFDD18FD022595DB3DEE5AD07BBA94C5F25DF98BE4A0F7752B9DAD6B5022FF0B3FFFFFFFFF0ABFC9FAE813F0B1FAE65B51BAE75BC0970A8FFDD18706EF8A608C180553283855D109AC7796C1E9D5A1CCE4
1004
C7C530460C030A561A994D48B10530460C682C73E5CAAE539ADF5C8596D5C2ABF4089768B0F7B96B41EEEA5762F12EFDD8BC4A0F7752B9DAD6B5022FF0ABFFFFFFFFF855FFFE4FC2C7EE7CB955CA735BEB90B2DAB85538377C530460C02AF03CD1CBADDB76889941C2AE884D61A7AD3C7D3C852B0D4CA6A4
1004
58869EB4F1F4F27E86AB9F7463F4089192C3DEE5AD75BCA95457A977EA2BD4AEB7952B9DAD6B5022FFFF0B3FFFFFFF0B3F4367E589FC8FFF4355CFBA30E0DD3283855D109AC4CA0E1574426B13283855D109AC34F5A78FA790A561A994D48B10D3D69E3E9E41FFBA2AB996D46EB9D6F025C23F408965DE7B
1004
DCB5AEB795298BE4BBF317C95D6F2A573B5AD6A045FE167FFFFF3BFFF859FC9FAE813F91F8FFDD155CCB6A375CEB7812E10E0DDF14C118300AA65070ABA213589941C2AE884D63E298230601852B0D4CA6A458869EB4F1F4F22E539ADF5C8596D5C2C73E5C8FD0222EBA6F7B96B5D6F2A5762F12EFDD8BC4
1004
AEB7952B9DAD6B5022FF0ABFFFFFFFFF859FFFC9FC8FD729CD6FAE42CB6AE1639F2E438377C530460C02AF03CD1CBADDB7688F8A608C18054D3D69E3E9E429586A653522C47C530460C033F0ABF858FD0225D55D37BDAD72EFBC495457A977EEFBC495457A95CEE7408BFFFC2CFFFFFFFC2AFE167E589FEF
1004
FF0ABF858706E9941C2AE884D63E29823060157C530460C02A69EB4F1F4F214AC35329A91623E2982306019F8F95FC7C8FD022464BAAF7B5AE5DF789298BE4BBF77DE24A62F92B9DCE8117F859FFFFFFFFF855FE4FC7C9FEFFF1F2BF8F90E0DDF14C118300ABE29823060157C530460C02AF8A608C180614
1004
AC35329A91623E2982306019F962BFCEBF408818BACF7B5AE5DF7892BB178977EEFBC495D8BC4AE773A045FE157FFFFFFFFF0ABFFFFFEFFF2C57F9D38377C530460C02AF8A608C18055F14C118300A9A7AD3C7D3C8F8A608C18063E2982306019FFFC8FD022762EE9EF6B5CBBEF125051A4BBF77DE24A0A3
1004
495CEE7408BFFFC2AFFFFFFFE157FFFFFDFFFFF21C1BBE29823060157C530460C02A3C0268C2D4771D8869EB4F1F4F23E2982306018B2F5A78FA72E4FC2AFE163F408919AEEDEF6B5C828D25063B8977E0A349418EE2573B9D022FFFFFF0B3FFF0ABFFF859FFF9723FFC2AFE161C1BA65070ABA21358F8A6
1004
08C18055F14C118300A9A7AD3C7D3C8F8A608C18062CBD69E3E9CB93F4357F4363F4088AAEF1EF6B5C828D25317C977E0A3494C5F2573B9D022FF0B3FFFFFFF0ABFFFC9FFFA1B1FFE86AFE86C38377C530460C02AF8A608C18055F14C118300ABE2982306018F8A608C18062CBD69E3E9CB93FFF2E47E811
1004
2EE503DED6B9051A4AEC5E25DF828D25762F12B9DCE8117F855FFFFFFFC2AFFFFFFFFBFFFFCB90E0DDF14C118300ABE29823060151E0134616A3B8EC47C530460C030A561A994D48B1165EB4F1F4E5C9F8F95FC7C8FD022745DFBDED6B9762F12831DC4BBF762F12831DC4AE773A045FFFFFE167E157FFFF
1004
FFF1F27E5C8FFF1F2BF8F90E0DDF14C118300ABC0F3472EB76DDA23E29823060157C530460C030A561A994D48B1165EB4F1F4E5C9FA1AAD6B5AD6A34ABF4088EAFC9EF6B5CBB17895457A977EEC5E25515EA573B9D022FFFF0B3FFF0ABFFFFFFF9627E86C7FFA1AAD6B5AD6A34A9C1BBE2982306015781E6
1004
8E5D6EDBB447C530460C02AF8A608C180614AC35329A91622CBD69E3E9CB91CFBA33F4363F40897E68D8F7B5AE5D8BC4AA2BD4BBF762F12A8AF52B9DCE8117FFF859FFF855FFFFFFFCB13F4363F73EE8CFD0D8706EF8A608C18055E079A3975BB6ED107804D185A8EE3B10D3D69E3E9E429586A653522C45
1004
97AD3C7D39727F2BFCEBF4089185FBBDED6B9063B895457A977E0C7712A8AF52B9DCE8117FFF859FFFFFFF859FC9F9627E5C8FFF95FE74E0DD3283855D109AC7C530460C02A3C0268C2D4771D8869EB4F1F4F214AC35329A91622CBD69E3E9CB93FFF2C47E8112D57ECF7B5AE418EE25317C977E0C771298
1004
BE4AE773A045FE167FFFFF3BFFF859FC9F9627E5C8FFFFF2C438374CA0E1574426B1E079A3975BB6ED11F14C118300A9A7AD3C7D3C852B0D4CA6A4588B2F5A78FA72E4FCB956B5AD6B5AABF4088EA337BDAD72A2BD4A62F92EFD457A94C5F2573B9D022FF0B3FFFFFFF0B3FFF93F2C4FCB91FFE5CAB5AD6B
1004
5AD54E0DD3283855D109AC781E68E5D6EDBB447C530460C02A69EB4F1F4F214AC35329A91622CBD69E3E9CB91AD6B5AD392BFCEBF40881EBF57BDAD72A2BD4A62F92EFD457A94C5F2573B9D022FF0B3FFFFFFF0B3FFF93F2C4FCB91FB5AD6B5A7257F9D3451AEC49
1005
42
  0
INSERT
  8
AME_FRZ
  5
42
  2
AME_NIL
 10
1.0
 20
1.0
 30
1.0
1001
AME_SOL
1004

1005
0
  0
ENDSEC
  0
EOF
