600 0 1 0           
93 GICL Pro/E ACIS Translator - Source: f:/data5/repository/PTC/V18/reel18/mechan_simp.prt - 6 0 13 ACIS 6.0.3 NT 24 Thu Apr 04 13:29:44 2002 
1 9.9999999999999995e-007 1e-010 
body $-1 $1 $-1 $2 #
lump $-1 $-1 $3 $0 #
transform $-1 1 0 0 0 1 0 0 0 1 0 0 0 25.399999999999999 no_rotate no_reflect no_shear #
shell $-1 $-1 $-1 $4 $-1 $1 #
face $-1 $5 $6 $3 $-1 $7 forward single #
face $-1 $8 $9 $3 $-1 $10 forward single #
loop $-1 $-1 $11 $4 #
cone-surface $-1 -4.2919556388189566 0 0 1 0 0 0 -0.09375 0 1 I I 0 1 0.09375 forward I I I I #
face $-1 $12 $13 $3 $-1 $14 forward single #
loop $-1 $15 $16 $5 #
plane-surface $-1 -0.64489313881895605 0 0 1 0 0 0 -1 0 forward_v I I I I #
coedge $-1 $17 $18 $16 $19 forward $6 $-1 #
face $-1 $20 $21 $3 $-1 $22 reversed single #
loop $-1 $-1 $23 $8 #
cone-surface $-1 -4.2919556388189566 0 0 1 0 0 0 -0.09375 0 1 I I 0 1 0.09375 forward I I I I #
loop $-1 $-1 $24 $5 #
coedge $-1 $25 $25 $11 $19 reversed $9 $-1 #
coedge $-1 $26 $11 $27 $28 reversed $6 $-1 #
coedge $-1 $11 $26 $29 $30 forward $6 $-1 #
edge $-1 $31 1.2246063538223773e-016 $32 3.1415926535897931 $11 $33 forward 7 unknown #
face $-1 $34 $35 $3 $-1 $36 forward single #
loop $-1 $37 $38 $12 #
plane-surface $-1 1.2213568611810435 0 0 1 0 0 0 -1 0 forward_v I I I I #
coedge $-1 $27 $29 $39 $40 forward $13 $-1 #
coedge $-1 $41 $42 $43 $44 forward $15 $-1 #
coedge $-1 $16 $16 $45 $46 forward $9 $-1 #
coedge $-1 $18 $17 $47 $48 reversed $6 $-1 #
coedge $-1 $45 $23 $17 $28 forward $13 $-1 #
edge $-1 $49 0 $32 1.8662499999999991 $17 $50 forward 7 unknown #
coedge $-1 $23 $45 $18 $30 reversed $13 $-1 #
edge $-1 $51 0 $31 1.8662499999999995 $18 $52 forward 7 unknown #
vertex $-1 $30 $53 #
vertex $-1 $28 $54 #
ellipse-curve $-1 -0.64489313881895605 0 0 1 0 0 0 0.09375 0 1 I I #
face $-1 $55 $56 $3 $-1 $57 forward single #
loop $-1 $-1 $58 $20 #
cone-surface $-1 -4.2919556388189566 0 0 1 0 0 0 -0.34375 0 1 I I 0 1 0.34375 forward I I I I #
loop $-1 $-1 $47 $12 #
coedge $-1 $59 $59 $60 $61 forward $21 $-1 #
coedge $-1 $47 $47 $23 $40 reversed $37 $-1 #
edge $-1 $51 0 $49 3.1415926535897931 $39 $62 forward 7 unknown #
coedge $-1 $63 $24 $64 $65 reversed $15 $-1 #
coedge $-1 $24 $63 $66 $67 forward $15 $-1 #
coedge $-1 $68 $69 $24 $44 reversed $70 $-1 #
edge $-1 $71 -9.2593817862443309e-017 $72 0.77988315405001551 $24 $73 forward 7 unknown #
coedge $-1 $29 $27 $25 $46 reversed $13 $-1 #
edge $-1 $31 -1.2246063538223773e-016 $32 3.1415926535897931 $25 $74 forward 7 unknown #
coedge $-1 $39 $39 $26 $48 forward $37 $-1 #
edge $-1 $51 2.765784567938285e-061 $49 3.1415926535897931 $26 $75 forward 7 unknown #
vertex $-1 $48 $76 #
straight-curve $-1 1.221356861181043 -0.09375 -2.2961369134169574e-017 -1 0 0 I I #
vertex $-1 $30 $77 #
straight-curve $-1 1.221356861181043 0.09375 1.1480684567084787e-017 -1 0 0 I I #
point $-1 -0.64489313881895649 0.09375 1.1480684567084787e-017 #
point $-1 -0.64489313881895605 -0.09375 0 #
face $-1 $78 $79 $3 $-1 $80 forward single #
loop $-1 $-1 $81 $34 #
cone-surface $-1 0.94635686118104401 0 0 1 0 0 0 -0.83333333333333237 0 1 I I -0.64018439966447938 0.76822127959737618 0.83333333333333237 forward I I I I #
coedge $-1 $82 $83 $84 $85 forward $35 $-1 #
coedge $-1 $38 $38 $86 $87 reversed $21 $-1 #
coedge $-1 $83 $82 $38 $61 reversed $35 $-1 #
edge $-1 $88 0 $89 3.1415926535897931 $38 $90 forward 7 unknown #
ellipse-curve $-1 1.2213568611810435 -3.4694469519536142e-018 -3.4694469519536142e-018 -1 -4.736951571734001e-015 -7.553925226318825e-031 -4.4408920985006262e-016 0.09375 1.4950131519038401e-017 1 I I #
coedge $-1 $42 $41 $91 $92 forward $15 $-1 #
coedge $-1 $93 $94 $41 $65 forward $95 $-1 #
edge $-1 $96 0 $72 3.1415926535897931 $41 $97 forward 7 unknown #
coedge $-1 $98 $99 $42 $67 reversed $100 $-1 #
edge $-1 $101 0 $71 0.38927015040971225 $42 $102 forward 7 unknown #
coedge $-1 $103 $43 $99 $104 reversed $70 $-1 #
coedge $-1 $43 $105 $93 $106 reversed $70 $-1 #
loop $-1 $-1 $91 $107 #
vertex $-1 $67 $108 #
vertex $-1 $65 $109 #
ellipse-curve $-1 -0.64489313881895605 -5.4123372450476381e-016 2.0122792321330962e-016 1 0 0 0 -0.19463507520485557 0.19249999999999978 1 I I #
ellipse-curve $-1 -0.64489313881895605 0 0 -1 0 0 0 0.09375 0 1 I I #
ellipse-curve $-1 1.2213568611810435 0 3.4694469519536142e-018 1 4.736951571734001e-015 4.0478767586698838e-031 -4.4408920985006262e-016 0.09375 8.0112376151311726e-018 1 I I #
point $-1 1.221356861181043 -0.09375 -2.2961369134169574e-017 #
point $-1 1.221356861181043 0.09375 1.1480684567084787e-017 #
face $-1 $110 $111 $3 $-1 $112 forward single #
loop $-1 $-1 $113 $55 #
cone-surface $-1 0.94635686118104401 0 0 1 0 0 0 -0.83333333333333237 0 1 I I -0.64018439966447938 0.76822127959737618 0.83333333333333237 forward I I I I #
coedge $-1 $84 $114 $115 $116 forward $56 $-1 #
coedge $-1 $60 $58 $117 $118 forward $35 $-1 #
coedge $-1 $58 $60 $119 $120 reversed $35 $-1 #
coedge $-1 $114 $81 $58 $85 reversed $56 $-1 #
edge $-1 $121 0 $122 3.1415926535897931 $84 $123 forward 7 unknown #
coedge $-1 $117 $119 $59 $87 forward $124 $-1 #
edge $-1 $88 0 $89 3.1415926535897931 $86 $125 forward 7 unknown #
vertex $-1 $87 $126 #
vertex $-1 $118 $127 #
ellipse-curve $-1 1.2213568611810435 0 0 -1 0 0 0 0.34375 0 1 I I #
coedge $-1 $128 $129 $63 $92 reversed $70 $-1 #
edge $-1 $96 -2.5950314955322718e-061 $101 0.77988315405001507 $63 $130 forward 7 unknown #
coedge $-1 $131 $64 $69 $106 forward $95 $-1 #
coedge $-1 $64 $131 $128 $132 reversed $95 $-1 #
loop $-1 $-1 $64 $133 #
vertex $-1 $92 $134 #
ellipse-curve $-1 -0.64489313881895605 6.9388939039072284e-018 1.3877787807814457e-017 -1 -1.6222436889500003e-015 -1.1642116207057647e-031 -4.4408920985006262e-016 0.27374999999999999 1.9645811128073121e-017 1 I I #
coedge $-1 $135 $66 $129 $136 reversed $100 $-1 #
coedge $-1 $66 $137 $68 $104 forward $100 $-1 #
loop $-1 $-1 $99 $138 #
vertex $-1 $67 $139 #
straight-curve $-1 -0.64489313881895605 0.19463507520485612 0.1925 0 -1 0 I I #
coedge $-1 $129 $68 $140 $141 reversed $70 $-1 #
edge $-1 $142 0 $71 0.10671499743789581 $68 $143 forward 7 unknown #
coedge $-1 $69 $128 $144 $145 forward $70 $-1 #
edge $-1 $72 0 $146 0.5699999999999994 $69 $147 forward 7 unknown #
face $-1 $133 $70 $3 $-1 $148 forward single #
point $-1 -0.64489313881895605 -0.19463507520485612 0.1925 #
point $-1 -0.64489313881895649 -0.27374999999999999 -6.7047197871775155e-017 #
face $-1 $149 $150 $3 $-1 $151 forward single #
loop $-1 $-1 $152 $78 #
cone-surface $-1 1.6901068611810439 0 0.38 0 0 -1 -0.15625 0 0 1 I I 0 1 0.15625 forward I I I I #
coedge $-1 $153 $154 $155 $156 reversed $79 $-1 #
coedge $-1 $81 $84 $157 $158 reversed $56 $-1 #
coedge $-1 $157 $153 $81 $116 reversed $79 $-1 #
edge $-1 $159 1.4214949210266767e-016 $122 0.53695466521858359 $115 $160 forward 7 unknown #
coedge $-1 $161 $86 $82 $118 reversed $124 $-1 #
edge $-1 $122 0 $89 0.31249999999999956 $117 $162 forward 7 unknown #
coedge $-1 $86 $163 $83 $120 forward $124 $-1 #
edge $-1 $121 0 $88 0.31249999999999956 $119 $164 forward 7 unknown #
vertex $-1 $165 $166 #
vertex $-1 $116 $167 #
ellipse-curve $-1 1.533856861181043 1.3877787807814457e-017 -1.3877787807814457e-017 -1 0 0 0 0.34375 5.5973631220458675e-017 1 I I #
loop $-1 $-1 $119 $168 #
ellipse-curve $-1 1.2213568611810435 0 0 1 0 0 0 0.34375 0 1 I I #
point $-1 1.2213568611810435 0.34375 0 #
point $-1 1.2213568611810435 -0.34375 0 #
coedge $-1 $105 $91 $94 $132 forward $70 $-1 #
coedge $-1 $91 $103 $98 $136 forward $70 $-1 #
ellipse-curve $-1 -0.64489313881895605 4.9960036108132044e-016 1.9428902930940239e-016 1 1.6222436889500035e-015 -9.5269663862928261e-031 -4.4408920985006262e-016 0.27374999999999949 -1.6076543037351482e-016 1 I I #
coedge $-1 $94 $93 $169 $170 reversed $95 $-1 #
edge $-1 $96 0 $171 0.5699999999999994 $128 $172 forward 7 unknown #
face $-1 $173 $95 $3 $-1 $174 forward single #
point $-1 -0.64489313881895649 0.27374999999999999 3.3523598935887578e-017 #
coedge $-1 $175 $98 $176 $177 forward $100 $-1 #
edge $-1 $178 0 $101 0.25282124858785604 $129 $179 forward 7 unknown #
coedge $-1 $99 $175 $180 $181 forward $100 $-1 #
face $-1 $182 $183 $3 $-1 $184 reversed single #
point $-1 -0.64489313881895605 0.19463507520485612 0.1925 #
coedge $-1 $180 $176 $103 $141 forward $185 $-1 #
edge $-1 $178 0 $142 1 $103 $186 forward 7 unknown #
vertex $-1 $141 $187 #
straight-curve $-1 -0.75160813625685186 -0.19463507520485612 0.1925 1 0 0 I I #
coedge $-1 $169 $169 $105 $145 reversed $188 $-1 #
edge $-1 $171 0 $146 3.1415926535897931 $105 $189 forward 7 unknown #
vertex $-1 $106 $190 #
straight-curve $-1 -0.64489313881895649 -0.27374999999999999 -6.7047197871775155e-017 -1 0 0 I I #
cone-surface $-1 -4.2919556388189566 0 0 1 0 0 0 -0.27374999999999999 0 1 I I 0 1 0.27374999999999999 forward I I I I #
face $-1 $191 $192 $3 $-1 $193 reversed single #
loop $-1 $-1 $194 $110 #
cone-surface $-1 1.6901068611810439 0 0.38 0 0 -1 -0.15625 0 0 1 I I 0 1 0.15625 forward I I I I #
coedge $-1 $195 $155 $196 $197 reversed $111 $-1 #
coedge $-1 $115 $113 $161 $198 forward $79 $-1 #
coedge $-1 $113 $199 $200 $201 reversed $79 $-1 #
coedge $-1 $152 $202 $113 $156 forward $111 $-1 #
edge $-1 $203 0 $204 0.99999999999999989 $113 $205 forward 7 unknown #
coedge $-1 $199 $115 $114 $158 forward $79 $-1 #
edge $-1 $159 0 $121 0.53695466521858359 $157 $206 forward 7 unknown #
vertex $-1 $158 $207 #
straight-curve $-1 1.9463568611810442 1.1102230246251565e-016 4.9303806576313238e-032 -0.76822127959737629 -0.64018439966447915 -1.567947766894171e-016 I I #
coedge $-1 $163 $117 $153 $198 reversed $124 $-1 #
straight-curve $-1 1.533856861181043 -0.34375 -8.4191686825288437e-017 -1 0 0 I I #
coedge $-1 $119 $161 $199 $165 reversed $124 $-1 #
straight-curve $-1 1.533856861181043 0.34375 4.2095843412644218e-017 -1 0 0 I I #
edge $-1 $121 -1.2343170799063418e-061 $203 1.5707963231866027 $199 $208 forward 7 unknown #
point $-1 1.533856861181043 0.34375 4.2095843412644218e-017 #
point $-1 1.533856861181043 -0.34375 -8.4191686825288437e-017 #
face $-1 $-1 $124 $3 $-1 $209 forward single #
coedge $-1 $144 $144 $131 $170 forward $188 $-1 #
edge $-1 $171 0 $146 3.1415926535897931 $169 $210 forward 7 unknown #
vertex $-1 $145 $211 #
straight-curve $-1 -0.64489313881895649 0.27374999999999999 3.3523598935887578e-017 -1 0 0 I I #
face $-1 $212 $213 $3 $-1 $214 forward single #
cone-surface $-1 -4.2919556388189566 0 0 1 0 0 0 -0.27374999999999999 0 1 I I 0 1 0.27374999999999999 forward I I I I #
coedge $-1 $137 $135 $215 $216 reversed $100 $-1 #
coedge $-1 $140 $217 $135 $177 reversed $185 $-1 #
edge $-1 $178 0 $218 0.12744009713097465 $135 $219 forward 7 unknown #
vertex $-1 $136 $220 #
straight-curve $-1 -0.89771438740681209 0.1946350752048561 0.1925 1 1.0978339744249692e-016 0 I I #
coedge $-1 $221 $140 $137 $181 reversed $185 $-1 #
edge $-1 $222 0 $142 2.5509061525829351 $137 $223 forward 7 unknown #
face $-1 $224 $225 $3 $-1 $226 forward single #
loop $-1 $100 $227 $138 #
plane-surface $-1 0.00056644236689779351 0.30973586358641214 0.1925 0 0 1 -1 0 0 forward_v I I I I #
loop $-1 $-1 $228 $191 #
intcurve-curve $-1 forward { surfintcur full nurbs 3 open 9 
	0 3 0.12406875453150136 1 0.24862072362719445 1 0.37340695658082673 1 0.49814061834781448 1 
	0.623073366227616 1 0.74852281546878163 1 0.87426301109435167 1 1 3 
	-0.89771438740681209 0.19463507520485612 0.19249999999999998 1 
	-0.89623526058969782 0.18215192409734107 0.20519160867591973 1 
	-0.89205929258543826 0.15492957093272972 0.22781319179039827 1 
	-0.88244252599996387 0.10623083377322796 0.25436193831220016 1 
	-0.86853682094113493 0.053115937939765621 0.27038546571859273 1 
	-0.85093751903457415 -0.00037395376065831986 0.27545584465771761 0.99999999999999989 
	-0.82975072786007942 -0.053347489165665431 0.27028249729413628 1.0000000000000002 
	-0.80496116424715625 -0.10547118348289926 0.25459085797510672 0.99999999999999967 
	-0.77796473330843618 -0.15382167955090026 0.22862869927398866 1.0000000000000004 
	-0.76042149816075433 -0.18166538323935902 0.20556111516091674 0.99999999999999989 
	-0.75160813625685163 -0.19463507520485612 0.19249999999999998 1 
	0.001 
	cone -4.2919556388189566 0 0 1 0 0 0 -0.27374999999999999 0 1 I I 0 1 0.27374999999999999 forward I I I I 
	cone 0.00056644236689779351 0.30973586358641214 -0.81999999999999995 0 0 1 -0.90562500000000035 0 0 1 I I 0 1 0.90562500000000035 forward I I I I 
	nullbs 
	nullbs 
	I I 
	0 
	0 
	0 
	} I I #
point $-1 -0.75160813625685186 -0.19463507520485612 0.1925 #
loop $-1 $-1 $144 $173 #
ellipse-curve $-1 -1.2148931388189559 0 1.3877787807814457e-017 1 0 0 0 0.27374999999999999 -1.3877787807814457e-017 1 I I #
point $-1 -1.2148931388189559 -0.27374999999999999 0 #
face $-1 $229 $185 $3 $-1 $230 forward single #
loop $-1 $231 $232 $149 #
plane-surface $-1 0.00056644236689779351 0.30973586358641214 0.38 0 0 1 1 0 0 forward_v I I I I #
coedge $-1 $233 $200 $202 $234 reversed $150 $-1 #
coedge $-1 $202 $152 $235 $236 forward $111 $-1 #
coedge $-1 $200 $233 $152 $197 forward $150 $-1 #
edge $-1 $237 0 $204 0.29666666666666675 $196 $238 forward 7 unknown #
edge $-1 $203 8.7503403641973307e-025 $122 1.57079633040319 $153 $239 forward 7 unknown #
coedge $-1 $154 $157 $163 $165 forward $79 $-1 #
coedge $-1 $194 $196 $154 $201 forward $150 $-1 #
edge $-1 $204 0 $203 0.99999999999999989 $154 $240 forward 7 unknown #
coedge $-1 $155 $195 $194 $234 forward $111 $-1 #
vertex $-1 $201 $241 #
vertex $-1 $201 $242 #
intcurve-curve $-1 forward { surfintcur full nurbs 3 open 24 
	0 3 0.043318760988160156 1 0.086811482655672151 1 0.13055611619973448 1 0.1745251401800226 1 
	0.21860644075502814 1 0.26273549194156992 1 0.30687800937970461 1 0.35097783532348609 1 0.39497507471774979 1 
	0.43881755682925766 1 0.48249083666597764 1 0.52600649639898778 1 0.56936192170744049 1 0.61256908994076009 1 
	0.65562819652492388 1 0.6985334360953227 1 0.7413535273756322 1 0.78414851610317127 1 0.82700807923088016 1 
	0.8699735138945649 1 0.91311234189195367 1 0.95645386395445453 1 0.99999999999999989 3 
	1.5338568611810441 1.140366426057544e-009 0.3437499999999995 1 
	1.533790671498924 -0.007914289166532619 0.34383480791833299 1 
	1.5350760122873806 -0.024000868541289421 0.34217996718348853 1.0000000000000002 
	1.5409833762103835 -0.04917335285052124 0.33457338427417505 0.99999999999999989 
	1.5518393489274946 -0.074558977932853654 0.32060512845647715 1 
	1.5673438543346163 -0.097964488800054511 0.30068203125280513 1.0000000000000002 
	1.5858544791559244 -0.11735084674255786 0.27694575558488732 0.99999999999999978 
	1.6062134186165544 -0.13259642795458984 0.25091789927065511 1 
	1.6277519077873239 -0.14392176968998097 0.22350233326470573 0.99999999999999978 
	1.6495856860907607 -0.1514589053657239 0.19588956634065086 1 
	1.6709506623355912 -0.15554360065831879 0.16912825924143154 1 
	1.6911439018771801 -0.1566495934280609 0.14419926080641451 0.99999999999999978 
	1.7099561625089637 -0.15534554046451449 0.12148285530063635 0.99999999999999989 
	1.7275964171511859 -0.15202209234476416 0.10092463091247354 1.0000000000000002 
	1.7439928208412858 -0.14698758869433465 0.082934160333897861 0.99999999999999989 
	1.7594877976863501 -0.14034288856639138 0.06768429770969657 1 
	1.7743862412011346 -0.13194377444808189 0.055988777269490739 1 
	1.7884038644402844 -0.12187370840985236 0.049715431683024065 1.0000000000000002 
	1.8011931949736777 -0.11029358103010105 0.049842055552480904 1 
	1.8117813722981551 -0.098455868759934603 0.054051005563875175 0.99999999999999978 
	1.8214516583904534 -0.085183583668969109 0.060324972835926173 1 
	1.8302152724497978 -0.070006050768037342 0.067547744515279159 1 
	1.8382150812584868 -0.051319253034493507 0.075026955745382207 1 
	1.8446232260118789 -0.028089988886498107 0.081529755115797395 0.99999999999999978 
	1.8461468673755248 -0.0098482705331721706 0.083080890917273137 1 
	1.8463568611810439 -1.5313226309094731e-016 0.083333333333333259 1 
	0.001 
	cone 0.94635686118104401 0 0 1 0 0 0 -0.83333333333333237 0 1 I I -0.64018439966447938 0.76822127959737618 0.83333333333333237 forward I I I I 
	cone 1.6901068611810439 0 0.38 0 0 -1 -0.15625 0 0 1 I I 0 1 0.15625 forward I I I I 
	nullbs 
	nullbs 
	I I 
	0 
	0 
	0 
	} I I #
straight-curve $-1 1.9463568611810442 -1.1102230246251565e-016 -2.4651903288156619e-032 -0.76822127959737629 0.64018439966447915 7.8397388344708551e-017 I I #
point $-1 1.9463568611810442 -1.1102230246251565e-016 -2.4651903288156619e-032 #
ellipse-curve $-1 1.5338568611810437 -6.2450045135165055e-017 -5.5511151231257827e-017 1 1.9378438248002731e-015 5.5024614349963303e-031 -6.6613381477509392e-016 0.34375000000000006 9.7606994643902045e-017 1 I I #
cone-surface $-1 -4.2919556388189566 0 0 1 0 0 0 -0.34375 0 1 I I 0 1 0.34375 forward I I I I #
ellipse-curve $-1 -1.2148931388189559 0 -1.3877787807814457e-017 -1 0 0 0 0.27374999999999999 1.3877787807814457e-017 1 I I #
point $-1 -1.2148931388189559 0.27374999999999999 0 #
face $-1 $243 $244 $3 $-1 $245 forward single #
loop $-1 $188 $246 $173 #
plane-surface $-1 -1.2148931388189559 0 0 1 0 0 0 -1 0 forward_v I I I I #
coedge $-1 $247 $248 $175 $216 forward $249 $-1 #
edge $-1 $222 0 $218 3.1415926535897931 $215 $250 forward 7 unknown #
coedge $-1 $176 $228 $247 $251 forward $185 $-1 #
vertex $-1 $251 $252 #
ellipse-curve $-1 0.00056644236687364291 0.30973586358641081 0.1925 0 0 -1 -0.89828082977368573 -0.11510078838155471 0 1 I I #
point $-1 -0.89771438740681209 0.1946350752048561 0.1925 #
coedge $-1 $253 $180 $248 $254 reversed $185 $-1 #
vertex $-1 $216 $255 #
ellipse-curve $-1 0.00056644236689776251 0.30973586358641225 0.1925 0 0 -1 0.90562500000000046 -1.1102230246251565e-016 0 1 I I #
face $-1 $256 $257 $3 $-1 $258 forward single #
loop $-1 $-1 $259 $182 #
cone-surface $-1 0.00056644236689779351 0.30973586358641214 -0.81999999999999995 0 0 1 -0.1875 0 0 1 I I 0 1 0.1875 forward I I I I #
coedge $-1 $260 $260 $259 $261 reversed $183 $-1 #
coedge $-1 $217 $253 $262 $263 forward $185 $-1 #
face $-1 $264 $265 $3 $-1 $266 forward single #
cone-surface $-1 0.00056644236689779351 0.30973586358641214 -0.81999999999999995 0 0 1 -0.90562500000000035 0 0 1 I I 0 1 0.90562500000000035 forward I I I I #
loop $-1 $-1 $235 $149 #
coedge $-1 $267 $268 $253 $269 forward $192 $-1 #
coedge $-1 $196 $194 $270 $271 forward $150 $-1 #
edge $-1 $272 0 $203 0.036250000000000504 $194 $273 forward 7 unknown #
coedge $-1 $270 $270 $195 $236 reversed $231 $-1 #
edge $-1 $237 0 $272 3.1415926535897927 $235 $274 forward 7 unknown #
vertex $-1 $271 $275 #
straight-curve $-1 1.8463568611810439 1.9134474278474645e-017 0.38 0 0 -1 I I #
ellipse-curve $-1 1.5338568611810437 4.163336342344337e-017 -6.9388939039072284e-018 1 -2.3307696036435638e-024 -6.459479416000911e-016 2.2204460492503131e-016 1.2403508079425113e-009 0.34375 1 I I #
intcurve-curve $-1 forward { surfintcur full nurbs 3 open 28 
	0 3 0.037185749965044979 1 0.074211077959958502 1 0.11109445994567611 1 0.14786076077257693 1 
	0.18453523649543579 1 0.22111094366365197 1 0.25759208381110499 1 0.29401821759611158 1 0.33043865632500408 1 
	0.36689531132801367 1 0.40341505290471524 1 0.44000576858541568 1 0.4766542376993822 1 0.51338740918557046 1 
	0.55022706659292853 1 0.58718097138035441 1 0.62425396378022435 1 0.66144880932451244 1 0.69877326169097032 1 
	0.7362331483756358 1 0.77383195763900625 1 0.81157142677305527 1 0.84946279139501635 1 0.88742801753921663 1 
	0.92519648080938921 1 0.96269674265662464 1 0.99999999999999989 3 
	1.8463568611810439 -1.5313226309094731e-016 0.083333333333333259 1 
	1.846186081237283 0.0089808553651070447 0.08313218574533672 1 
	1.8449060942645661 0.025685011766386198 0.081823658627667925 1 
	1.8395479837947386 0.047047332879126158 0.076362141368602227 0.99999999999999989 
	1.8326913661438169 0.064721525694872439 0.069808721728847611 1 
	1.8249232805639346 0.079516516627505307 0.063076464781152169 0.99999999999999989 
	1.816443876928532 0.092332973375832017 0.056875379587168789 1.0000000000000004 
	1.8076057892259247 0.10328601047294235 0.052161793762348752 1 
	1.7986750387576949 0.11260107110803046 0.049728117989690207 1 
	1.789547932976306 0.12071871251634225 0.050027212509955767 0.99999999999999989 
	1.7802301516134293 0.12781245067890373 0.053196236760067343 1 
	1.7706813309713094 0.13403154492110048 0.058926672702933176 1.0000000000000002 
	1.7607464599103504 0.13952780132206666 0.06684168861601307 0.99999999999999967 
	1.7502625469834163 0.144357736044982 0.076691562157837803 1 
	1.7395515457651651 0.14837161515323122 0.087801828204018065 0.99999999999999989 
	1.7280501035730562 0.15174125420697496 0.10050548059317795 1.0000000000000002 
	1.7155058366367268 0.15436162041289517 0.11498434772302467 0.99999999999999978 
	1.7018491401750095 0.15602579065415279 0.13124032841522845 1.0000000000000002 
	1.6870198951392659 0.15647173426712388 0.14928458602615577 0.99999999999999989 
	1.6710418246251677 0.15538082559891969 0.16903758827065074 1 
	1.6538617605139261 0.15235140013707146 0.19052436193409653 1.0000000000000002 
	1.6355330143371469 0.14686686188955467 0.21364596413091805 1.0000000000000002 
	1.6161812303537118 0.13825641472187852 0.2382159586242896 0.99999999999999989 
	1.5961625696673492 0.12568238859604736 0.26375578440188452 1 
	1.5757910628950538 0.1078743706791509 0.28984064835287204 1 
	1.556558257762406 0.083156647486150467 0.31453638745392482 1.0000000000000002 
	1.5428836751429429 0.05521236218097704 0.33212697653445272 1 
	1.5353759391705191 0.026865585542163915 0.34179372972928174 1 
	1.5337661280735804 0.00886751833893476 0.34386614870414928 1 
	1.5338568611810441 1.2403508495758727e-009 0.3437499999999995 1 
	0.001 
	cone 0.94635686118104401 0 0 1 0 0 0 -0.83333333333333237 0 1 I I -0.64018439966447938 0.76822127959737618 0.83333333333333237 forward I I I I 
	cone 1.6901068611810439 0 0.38 0 0 -1 -0.15625 0 0 1 I I 0 1 0.15625 forward I I I I 
	nullbs 
	nullbs 
	I I 
	0 
	0 
	0 
	} I I #
point $-1 1.5338568611810441 1.2403508495758727e-009 0.3437499999999995 #
point $-1 1.8463568611810439 -1.5313226309094731e-016 0.083333333333333259 #
face $-1 $276 $277 $3 $-1 $278 forward single #
loop $-1 $-1 $279 $212 #
cone-surface $-1 -4.2919556388189566 0 0 1 0 0 0 -0.37375000000000003 0 1 I I 0 1 0.37375000000000003 forward I I I I #
coedge $-1 $280 $280 $279 $281 reversed $213 $-1 #
coedge $-1 $282 $215 $217 $251 reversed $249 $-1 #
coedge $-1 $215 $283 $221 $254 forward $249 $-1 #
loop $-1 $-1 $248 $284 #
ellipse-curve $-1 0.00056644236689781802 0.3097358635864122 0.1925 0 0 1 0.90562500000000035 -5.5511151231257827e-017 0 1 I I #
edge $-1 $285 0 $218 0.1875 $247 $286 forward 7 unknown #
point $-1 -0.9050585576331025 0.30973586358641214 0.1925 #
coedge $-1 $228 $221 $232 $269 reversed $185 $-1 #
edge $-1 $287 0 $222 0.1875 $248 $288 forward 7 unknown #
point $-1 0.90619144236689819 0.30973586358641214 0.1925 #
face $-1 $107 $289 $3 $-1 $290 reversed single #
loop $-1 $-1 $291 $224 #
cone-surface $-1 0.00056644236689779351 0.30973586358641214 -0.81999999999999995 0 0 1 -0.1875 0 0 1 I I 0 1 0.1875 forward I I I I #
coedge $-1 $292 $293 $227 $261 forward $225 $-1 #
coedge $-1 $227 $227 $294 $295 forward $183 $-1 #
edge $-1 $296 0 $297 3.1415926535897931 $227 $298 forward 7 unknown #
coedge $-1 $299 $300 $228 $263 reversed $265 $-1 #
edge $-1 $301 4.0610157973449229e-016 $285 2.3049895079499954 $262 $302 forward 7 unknown #
face $-1 $303 $304 $3 $-1 $305 reversed single #
loop $-1 $-1 $306 $229 #
plane-surface $-1 0.00056644236689779351 0.30973586358641214 0.38 0 0 1 -1 0 0 forward_v I I I I #
coedge $-1 $307 $232 $283 $308 forward $192 $-1 #
coedge $-1 $232 $309 $310 $311 reversed $192 $-1 #
edge $-1 $301 -1.5567227223155559e-015 $287 0.83660314563979765 $253 $312 forward 7 unknown #
coedge $-1 $235 $235 $233 $271 reversed $231 $-1 #
edge $-1 $272 0 $237 3.1415926535897936 $270 $313 forward 7 unknown #
vertex $-1 $271 $314 #
straight-curve $-1 1.5338568611810439 0 0.38 0 0 -1 I I #
ellipse-curve $-1 1.6901068611810439 0 0.38 0 0 -1 0.15625 0 0 1 I I #
point $-1 1.8463568611810439 0 0.38 #
face $-1 $315 $316 $3 $-1 $317 reversed single #
loop $-1 $-1 $318 $243 #
cone-surface $-1 -4.2919556388189566 0 0 1 0 0 0 -0.37375000000000003 0 1 I I 0 1 0.37375000000000003 forward I I I I #
coedge $-1 $319 $320 $246 $281 forward $244 $-1 #
coedge $-1 $246 $246 $321 $322 forward $213 $-1 #
edge $-1 $323 3.4803946700043293e-062 $324 3.1415926535897931 $246 $325 forward 7 unknown #
coedge $-1 $283 $247 $300 $326 reversed $249 $-1 #
coedge $-1 $248 $282 $267 $308 reversed $249 $-1 #
face $-1 $138 $249 $3 $-1 $327 forward single #
vertex $-1 $263 $328 #
straight-curve $-1 -0.9050585576331025 0.30973586358641192 0.38 0 0 -1 I I #
vertex $-1 $308 $329 #
straight-curve $-1 0.90619144236689819 0.30973586358641225 0.38 0 0 -1 I I #
loop $-1 $-1 $330 $256 #
plane-surface $-1 0.00056644236689779351 0.30973586358641214 -0.745 0 0 1 -1 0 0 forward_v I I I I #
coedge $-1 $331 $332 $330 $333 forward $257 $-1 #
coedge $-1 $334 $259 $331 $335 forward $225 $-1 #
coedge $-1 $259 $334 $332 $336 reversed $225 $-1 #
coedge $-1 $332 $331 $260 $295 reversed $257 $-1 #
edge $-1 $296 0 $297 3.1415926535897931 $260 $337 forward 7 unknown #
vertex $-1 $295 $338 #
vertex $-1 $295 $339 #
ellipse-curve $-1 0.0005664423668977972 0.30973586358641214 0.1925 0 0 -1 0.1875 0 0 1 I I #
coedge $-1 $306 $262 $340 $341 reversed $265 $-1 #
coedge $-1 $262 $306 $282 $326 forward $265 $-1 #
vertex $-1 $341 $342 #
ellipse-curve $-1 0.00056644236689781108 0.30973586358641203 0.38 0 0 -1 0.60675825779978021 -0.67231023881596208 0 1 I I #
face $-1 $343 $344 $3 $-1 $345 forward single #
loop $-1 $-1 $346 $264 #
cone-surface $-1 1.2721050366691142 0.95870223528583898 0.38 0 0 1 0.625 0 0 1 I I 0 1 0.625 forward I I I I #
coedge $-1 $300 $299 $347 $348 forward $265 $-1 #
coedge $-1 $349 $267 $350 $351 reversed $192 $-1 #
edge $-1 $287 0 $352 0.16839228094385922 $283 $353 forward 7 unknown #
coedge $-1 $268 $354 $355 $356 reversed $192 $-1 #
coedge $-1 $357 $340 $268 $311 forward $344 $-1 #
edge $-1 $301 -2.2318058565219089e-015 $358 0.10326118808179618 $268 $359 forward 7 unknown #
ellipse-curve $-1 0.00056644236689851191 0.30973586358641181 0.38 0 0 1 0.60675825779978032 -0.67231023881596119 0 1 I I #
ellipse-curve $-1 1.6901068611810439 0 0.38 0 0 -1 -0.15625 -5.5511151231257827e-017 0 1 I I #
point $-1 1.5338568611810439 -5.5511151231257827e-017 0.38 #
face $-1 $360 $361 $3 $-1 $362 forward single #
loop $-1 $363 $364 $276 #
plane-surface $-1 -1.4148931388189561 0 0 1 0 0 0 -1 0 forward_v I I I I #
coedge $-1 $365 $366 $367 $368 forward $277 $-1 #
coedge $-1 $369 $279 $365 $370 forward $244 $-1 #
coedge $-1 $279 $369 $366 $371 reversed $244 $-1 #
coedge $-1 $366 $365 $280 $322 reversed $277 $-1 #
edge $-1 $323 0 $324 3.1415926535897931 $280 $372 forward 7 unknown #
vertex $-1 $322 $373 #
vertex $-1 $322 $374 #
ellipse-curve $-1 -1.2148931388189559 -1.3877787807814457e-017 -1.3877787807814457e-017 -1 -1.1881985547827762e-015 -1.8962679390357653e-031 -4.4408920985006262e-016 0.37375000000000003 5.9647450281925806e-017 1 I I #
edge $-1 $352 1.6920899155603837e-016 $285 2.9732003726459362 $300 $375 forward 7 unknown #
cone-surface $-1 0.00056644236689779351 0.30973586358641214 -0.81999999999999995 0 0 1 -0.90562500000000035 0 0 1 I I 0 1 0.90562500000000035 forward I I I I #
point $-1 -0.9050585576331025 0.30973586358641192 0.38 #
point $-1 0.90619144236689819 0.30973586358641214 0.38 #
coedge $-1 $376 $376 $291 $333 reversed $289 $-1 #
coedge $-1 $294 $291 $292 $335 reversed $257 $-1 #
coedge $-1 $291 $294 $293 $336 forward $257 $-1 #
edge $-1 $377 0 $378 3.1415926535897931 $291 $379 forward 7 unknown #
coedge $-1 $293 $292 $376 $380 reversed $225 $-1 #
edge $-1 $297 0 $378 0.9375 $331 $381 forward 7 unknown #
edge $-1 $296 0 $377 0.9375 $332 $382 forward 7 unknown #
ellipse-curve $-1 0.00056644236689778332 0.30973586358641214 0.1925 0 0 1 0.1875 0 0 1 I I #
point $-1 0.18806644236689779 0.30973586358641214 0.1925 #
point $-1 -0.18693355763310221 0.30973586358641214 0.1925 #
coedge $-1 $310 $383 $299 $341 forward $344 $-1 #
edge $-1 $384 0 $301 4.6039503323974236 $299 $385 forward 7 unknown #
point $-1 0.60732470016667772 -0.36257437522955027 0.38 #
face $-1 $386 $387 $3 $-1 $388 reversed single #
loop $-1 $-1 $310 $303 #
cone-surface $-1 0.27189233611099484 0.18321452147779016 0.38 0 0 1 0.640625 0 0 1 I I 0 1 0.640625 forward I I I I #
coedge $-1 $389 $347 $383 $390 forward $304 $-1 #
coedge $-1 $346 $350 $306 $348 reversed $304 $-1 #
edge $-1 $384 0 $352 0.2603160974207232 $306 $391 forward 7 unknown #
coedge $-1 $392 $307 $393 $394 reversed $192 $-1 #
coedge $-1 $347 $395 $307 $351 forward $304 $-1 #
edge $-1 $396 0 $352 0.38468056621135049 $307 $397 forward 7 unknown #
vertex $-1 $326 $398 #
ellipse-curve $-1 0.00056644236690855942 0.30973586358641292 0.38 0 0 1 0.90562499999998969 -7.7715611723760958e-016 0 1 I I #
coedge $-1 $309 $392 $399 $400 reversed $192 $-1 #
coedge $-1 $401 $402 $309 $356 forward $387 $-1 #
edge $-1 $358 0 $403 0.6449966636320833 $309 $404 forward 7 unknown #
coedge $-1 $405 $310 $402 $406 forward $344 $-1 #
vertex $-1 $311 $407 #
ellipse-curve $-1 0.27189233611099484 0.18321452147779016 0.38 0 0 1 0.335432364055684 -0.54578889670733954 0 1 I I #
face $-1 $408 $409 $3 $-1 $410 forward single #
loop $-1 $-1 $411 $315 #
cone-surface $-1 -4.2919556388189566 0 0 1 0 0 0 -0.17375000000000002 0 1 I I 0 1 0.17375000000000002 forward I I I I #
loop $-1 $-1 $367 $276 #
coedge $-1 $412 $412 $411 $413 reversed $316 $-1 #
coedge $-1 $321 $318 $319 $370 reversed $277 $-1 #
coedge $-1 $318 $321 $320 $371 forward $277 $-1 #
coedge $-1 $414 $414 $318 $368 reversed $363 $-1 #
edge $-1 $415 1.2246063538223773e-016 $416 3.1415926535897931 $318 $417 forward 7 unknown #
coedge $-1 $320 $319 $414 $418 reversed $244 $-1 #
edge $-1 $324 0 $416 0.19999999999999973 $365 $419 forward 7 unknown #
edge $-1 $323 0 $415 0.20000000000000018 $366 $420 forward 7 unknown #
ellipse-curve $-1 -1.2148931388189559 0 1.3877787807814457e-017 1 1.1881985547827762e-015 1.013883060543342e-031 -4.4408920985006262e-016 0.37375000000000003 3.1891874666296898e-017 1 I I #
point $-1 -1.2148931388189563 0.37375000000000003 4.5769662474111355e-017 #
point $-1 -1.2148931388189563 -0.37375000000000003 0 #
ellipse-curve $-1 0.00056644236689773475 0.30973586358641197 0.38 0 0 1 0.89281537879136008 0.15178056535222489 0 1 I I #
coedge $-1 $330 $330 $334 $380 forward $289 $-1 #
vertex $-1 $336 $421 #
vertex $-1 $335 $422 #
ellipse-curve $-1 0.00056644236689779026 0.30973586358641214 -0.745 0 0 1 0.1875 0 0 1 I I #
edge $-1 $377 0 $378 3.1415926535897931 $376 $423 forward 7 unknown #
straight-curve $-1 -0.18693355763310221 0.30973586358641209 0.1925 0 0 -1 I I #
straight-curve $-1 0.18806644236689779 0.30973586358641214 0.1925 0 0 -1 I I #
coedge $-1 $340 $405 $346 $390 reversed $344 $-1 #
vertex $-1 $341 $424 #
ellipse-curve $-1 0.27189233611099484 0.18321452147779016 0.38 0 0 1 0.50628050275164571 0.39253081810036472 0 1 I I #
face $-1 $425 $426 $3 $-1 $427 forward single #
loop $-1 $-1 $401 $343 #
cone-surface $-1 1.0421911180271621 -0.82099981182136628 0.38 0 0 1 0.625 0 0 1 I I 0 1 0.625 forward I I I I #
coedge $-1 $395 $346 $428 $429 reversed $304 $-1 #
edge $-1 $384 1.2120519116677006e-029 $430 0.059999999999999998 $383 $431 forward 7 unknown #
ellipse-curve $-1 1.2721050366691142 0.95870223528583898 0.38 0 0 1 -0.49393219780647368 -0.3829568957076841 0 1 I I #
coedge $-1 $354 $349 $432 $433 reversed $192 $-1 #
coedge $-1 $434 $435 $349 $394 forward $436 $-1 #
edge $-1 $437 -7.3039364854371223e-018 $396 0.65493446788246601 $349 $438 forward 7 unknown #
coedge $-1 $350 $389 $434 $439 reversed $304 $-1 #
vertex $-1 $394 $440 #
ellipse-curve $-1 1.2721050366691142 0.95870223528583898 0.38 0 0 -1 -0.16447002817076184 -0.60297148343309637 0 1 I I #
point $-1 0.89338182115825782 0.46151642893863704 0.38 #
coedge $-1 $441 $442 $354 $400 forward $426 $-1 #
edge $-1 $403 0 $443 0.6549344678824679 $354 $444 forward 7 unknown #
coedge $-1 $445 $355 $442 $446 forward $387 $-1 #
coedge $-1 $355 $445 $357 $406 reversed $387 $-1 #
vertex $-1 $356 $447 #
ellipse-curve $-1 1.0421911180271621 -0.82099981182136628 0.38 0 0 -1 -0.38039446020551437 0.49590831274032432 0 1 I I #
coedge $-1 $383 $357 $448 $449 reversed $344 $-1 #
edge $-1 $358 6.9847059316443763e-030 $450 0.059999999999999998 $357 $451 forward 7 unknown #
point $-1 0.66179665782164776 -0.32509149908104196 0.38 #
face $-1 $452 $453 $3 $-1 $454 reversed single #
loop $-1 $-1 $455 $360 #
cone-surface $-1 -4.2919556388189566 0 0 1 0 0 0 -0.17375000000000002 0 1 I I 0 1 0.17375000000000002 forward I I I I #
coedge $-1 $456 $457 $364 $413 forward $361 $-1 #
coedge $-1 $364 $364 $458 $459 forward $316 $-1 #
edge $-1 $460 0 $461 3.1415926535897931 $364 $462 forward 7 unknown #
coedge $-1 $367 $367 $369 $418 forward $363 $-1 #
vertex $-1 $371 $463 #
vertex $-1 $370 $464 #
ellipse-curve $-1 -1.4148931388189561 0 0 1 0 0 0 0.37375000000000003 0 1 I I #
edge $-1 $415 -1.2246063538223773e-016 $416 3.1415926535897931 $414 $465 forward 7 unknown #
straight-curve $-1 -1.2148931388189563 -0.37375000000000003 -9.153932494822271e-017 -1 0 0 I I #
straight-curve $-1 -1.2148931388189563 0.37375000000000003 4.5769662474111355e-017 -1 0 0 I I #
point $-1 0.18806644236689779 0.30973586358641214 -0.745 #
point $-1 -0.18693355763310221 0.30973586358641214 -0.745 #
ellipse-curve $-1 0.00056644236689779026 0.30973586358641214 -0.745 0 0 -1 0.1875 0 0 1 I I #
point $-1 0.77817283886264055 0.57574533957815488 0.38 #
face $-1 $466 $467 $3 $-1 $468 forward single #
loop $-1 $-1 $441 $386 #
plane-surface $-1 1.0363552116570878 -0.19602705865780667 0.38 0.0093374501921185959 -0.99995640506169559 0 0.99995640506169559 0.0093374501921185959 0 forward_v I I I I #
coedge $-1 $448 $469 $389 $429 forward $470 $-1 #
edge $-1 $471 0 $430 0.64499666363208641 $428 $472 forward 7 unknown #
vertex $-1 $449 $473 #
straight-curve $-1 0.77817283886263555 0.57574533957816065 0.38 -1.8503717077085944e-015 -3.7007434154171887e-015 1 I I #
coedge $-1 $474 $475 $392 $433 forward $467 $-1 #
edge $-1 $443 0 $437 2.8659671139645524 $392 $476 forward 7 unknown #
coedge $-1 $477 $393 $395 $439 forward $436 $-1 #
coedge $-1 $393 $477 $474 $478 reversed $436 $-1 #
loop $-1 $-1 $434 $466 #
vertex $-1 $433 $479 #
straight-curve $-1 1.739485900739242 0.18338340724053123 0.38 -0.96475437349295412 0.26315204507321904 0 I I #
edge $-1 $396 0 $471 0.059999999999999998 $434 $480 forward 7 unknown #
point $-1 1.1076350084983524 0.35573075185274261 0.38 #
coedge $-1 $481 $399 $475 $482 forward $426 $-1 #
coedge $-1 $399 $481 $401 $446 reversed $426 $-1 #
vertex $-1 $400 $483 #
straight-curve $-1 1.0363552116570867 -0.19602705865780667 0.38 0.99995640506169559 0.0093374501921185769 0 I I #
coedge $-1 $402 $401 $484 $485 reversed $387 $-1 #
edge $-1 $403 2.0543252740130517e-031 $486 0.059999999999999998 $401 $487 forward 7 unknown #
point $-1 1.0363552116570867 -0.19602705865780667 0.38 #
coedge $-1 $484 $428 $405 $449 forward $470 $-1 #
edge $-1 $430 0 $450 4.7072115204791896 $448 $488 forward 7 unknown #
vertex $-1 $449 $489 #
straight-curve $-1 0.66179665782164687 -0.32509149908104251 0.38 5.5511151231257827e-015 3.7007434154171887e-015 1 I I #
face $-1 $490 $491 $3 $-1 $492 forward single #
loop $-1 $493 $494 $408 #
plane-surface $-1 -2.2448931388189561 0 0 1 0 0 0 -1 0 forward_v I I I I #
coedge $-1 $495 $496 $497 $498 forward $409 $-1 #
coedge $-1 $499 $411 $495 $500 forward $361 $-1 #
coedge $-1 $411 $499 $496 $501 reversed $361 $-1 #
coedge $-1 $496 $495 $412 $459 reversed $409 $-1 #
edge $-1 $460 0 $461 3.1415926535897927 $412 $502 forward 7 unknown #
vertex $-1 $459 $503 #
vertex $-1 $459 $504 #
ellipse-curve $-1 -1.4148931388189561 -6.9388939039072284e-018 0 -1 -2.5559091214392092e-015 -3.1299825499070253e-031 -4.4408920985006262e-016 0.17375000000000002 2.1277535397663806e-017 1 I I #
point $-1 -1.4148931388189565 0.37375000000000003 4.5769662474111355e-017 #
point $-1 -1.4148931388189561 -0.37375000000000003 0 #
ellipse-curve $-1 -1.4148931388189561 0 0 -1 0 0 0 0.37375000000000003 0 1 I I #
face $-1 $505 $436 $3 $-1 $506 forward single #
loop $-1 $-1 $474 $425 #
cone-surface $-1 1.6894870121753311 8.0076276869678331e-005 0.38 0 0 1 0.19 0 0 1 I I 0 1 0.19 forward I I I I #
coedge $-1 $428 $507 $477 $508 forward $470 $-1 #
loop $-1 $509 $484 $505 #
vertex $-1 $429 $510 #
ellipse-curve $-1 1.2721050366691291 0.95870223528586762 0.44 0 0 -1 -0.16447002817077672 -0.60297148343312501 0 1 I I #
point $-1 0.77817283886262123 0.57574533957817553 0.44 #
coedge $-1 $511 $432 $435 $478 forward $467 $-1 #
coedge $-1 $432 $511 $441 $482 reversed $467 $-1 #
ellipse-curve $-1 1.6894870121753311 8.0076276869678331e-005 0.38 0 0 1 0.0017741155365025296 -0.18999171696172212 0 1 I I #
coedge $-1 $435 $434 $469 $508 reversed $436 $-1 #
edge $-1 $437 2.0543252740130517e-031 $512 0.059999999999999998 $474 $513 forward 7 unknown #
point $-1 1.739485900739242 0.1833834072405312 0.38 #
straight-curve $-1 1.1076350084983524 0.35573075185274261 0.38 0 0 1 I I #
coedge $-1 $442 $441 $514 $515 reversed $426 $-1 #
edge $-1 $443 0 $516 0.059999999999999998 $441 $517 forward 7 unknown #
point $-1 1.6912611277118337 -0.18991164068485245 0.38 #
coedge $-1 $514 $448 $445 $485 forward $470 $-1 #
edge $-1 $450 0 $486 0.64499666363208208 $484 $518 forward 7 unknown #
vertex $-1 $515 $519 #
straight-curve $-1 1.0363552116570878 -0.19602705865780656 0.38 0 -1.8503717077085944e-015 1 I I #
ellipse-curve $-1 0.27189233611099428 0.18321452147778816 0.44 0 0 1 0.50628050275162695 0.39253081810038737 0 1 I I #
point $-1 0.66179665782165364 -0.3250914990810384 0.44 #
face $-1 $520 $521 $3 $-1 $522 forward single #
loop $-1 $-1 $523 $452 #
cone-surface $-1 -4.2919556388189566 0 0 1 0 0 0 -0.09375 0 1 I I 0 1 0.09375 forward I I I I #
loop $-1 $-1 $497 $408 #
coedge $-1 $524 $524 $523 $525 reversed $453 $-1 #
coedge $-1 $458 $455 $456 $500 reversed $409 $-1 #
coedge $-1 $455 $458 $457 $501 forward $409 $-1 #
coedge $-1 $526 $526 $455 $498 reversed $493 $-1 #
edge $-1 $527 1.224606353822377e-016 $528 3.1415926535897931 $455 $529 forward 7 unknown #
coedge $-1 $457 $456 $526 $530 reversed $361 $-1 #
edge $-1 $461 0 $528 0.82999999999999963 $495 $531 forward 7 unknown #
edge $-1 $460 0 $527 0.83000000000000007 $496 $532 forward 7 unknown #
ellipse-curve $-1 -1.4148931388189561 -1.3877787807814457e-017 -3.4694469519536142e-017 1 2.5559091214392092e-015 8.2336321101071422e-031 -4.4408920985006262e-016 0.17375000000000002 5.5972004917199948e-017 1 I I #
point $-1 -1.4148931388189565 0.17375000000000002 2.1277535397663806e-017 #
point $-1 -1.4148931388189565 -0.17375000000000002 0 #
face $-1 $533 $470 $3 $-1 $534 forward single #
plane-surface $-1 1.7394859007392427 0.18338340724053104 0.38 0.2631520450732191 0.96475437349295423 0 -0.96475437349295412 0.26315204507321904 0 forward_v I I I I #
coedge $-1 $469 $514 $511 $535 forward $470 $-1 #
edge $-1 $512 -6.9378306653387736e-016 $471 0.65493446788246601 $469 $536 forward 7 unknown #
loop $-1 $-1 $537 $505 #
point $-1 1.1076350084983524 0.35573075185274261 0.44 #
coedge $-1 $475 $474 $507 $535 reversed $467 $-1 #
vertex $-1 $508 $538 #
straight-curve $-1 1.7394859007392427 0.18338340724053098 0.38 0 9.2518585385429718e-016 1 I I #
coedge $-1 $507 $484 $481 $515 forward $470 $-1 #
edge $-1 $486 1.1101746245208938e-015 $516 0.6549344678824679 $514 $539 forward 7 unknown #
vertex $-1 $535 $540 #
straight-curve $-1 1.6912611277118339 -0.18991164068485245 0.38 0 0 1 I I #
ellipse-curve $-1 1.0421911180271606 -0.8209998118213585 0.44 0 0 -1 -0.38039446020550693 0.4959083127403201 0 1 I I #
point $-1 1.0363552116570878 -0.19602705865780667 0.44 #
face $-1 $168 $541 $3 $-1 $542 reversed single #
loop $-1 $-1 $543 $490 #
cone-surface $-1 -4.2919556388189566 0 0 1 0 0 0 -0.09375 0 1 I I 0 1 0.09375 forward I I I I #
coedge $-1 $544 $545 $494 $525 forward $491 $-1 #
coedge $-1 $494 $494 $546 $547 forward $453 $-1 #
edge $-1 $548 0 $549 3.1415926535897931 $494 $550 forward 7 unknown #
coedge $-1 $497 $497 $499 $530 forward $493 $-1 #
vertex $-1 $501 $551 #
vertex $-1 $500 $552 #
ellipse-curve $-1 -2.2448931388189561 -6.9388939039072284e-018 6.9388939039072284e-018 1 0 0 0 0.17375000000000002 -6.9388939039072284e-018 1 I I #
edge $-1 $527 -1.224606353822377e-016 $528 3.1415926535897931 $526 $553 forward 7 unknown #
straight-curve $-1 -1.4148931388189565 -0.17375000000000002 -4.2555070795327613e-017 -1 0 0 I I #
straight-curve $-1 -1.4148931388189565 0.17375000000000002 2.1277535397663806e-017 -1 0 0 I I #
face $-1 $554 $555 $3 $-1 $556 forward single #
plane-surface $-1 0.00056644236689779351 0.30973586358641214 0.44 0 0 1 1 0 0 forward_v I I I I #
edge $-1 $516 0 $512 2.8659671139645488 $507 $557 forward 7 unknown #
straight-curve $-1 1.739485900739242 0.18338340724053123 0.44 -0.96475437349295412 0.26315204507321904 0 I I #
coedge $-1 $558 $558 $559 $560 reversed $509 $-1 #
point $-1 1.7394859007392427 0.18338340724053104 0.44 #
straight-curve $-1 1.0363552116570867 -0.19602705865780667 0.44 0.99995640506169559 0.0093374501921185769 0 I I #
point $-1 1.6912611277118337 -0.18991164068485247 0.44 #
loop $-1 $-1 $561 $520 #
plane-surface $-1 -3.9948931388189561 0 0 1 0 0 0 -1 0 forward_v I I I I #
coedge $-1 $562 $563 $561 $564 forward $521 $-1 #
coedge $-1 $565 $523 $562 $566 forward $491 $-1 #
coedge $-1 $523 $565 $563 $567 reversed $491 $-1 #
coedge $-1 $563 $562 $524 $547 reversed $521 $-1 #
edge $-1 $548 2.765784567938285e-061 $549 3.1415926535897931 $524 $568 forward 7 unknown #
vertex $-1 $547 $569 #
vertex $-1 $547 $570 #
ellipse-curve $-1 -2.2448931388189561 -3.4694469519536142e-018 -3.4694469519536142e-018 -1 -4.736951571734001e-015 -7.553925226318825e-031 -4.4408920985006262e-016 0.09375 1.4950131519038401e-017 1 I I #
point $-1 -2.2448931388189566 0.17375000000000002 2.1277535397663806e-017 #
point $-1 -2.2448931388189561 -0.17375000000000002 0 #
ellipse-curve $-1 -2.2448931388189561 -6.9388939039072284e-018 -6.9388939039072284e-018 -1 0 0 0 0.17375000000000002 6.9388939039072284e-018 1 I I #
face $-1 $571 $572 $3 $-1 $573 forward single #
loop $-1 $-1 $574 $533 #
cone-surface $-1 0.00056644236689779351 0.30973586358641214 -0.81999999999999995 0 0 1 -0.171875 0 0 1 I I 0 1 0.171875 forward I I I I #
ellipse-curve $-1 1.6894870121753311 8.0076276869678331e-005 0.44 0 0 1 0.0017741155365025296 -0.18999171696172212 0 1 I I #
coedge $-1 $537 $537 $575 $576 reversed $509 $-1 #
coedge $-1 $574 $577 $537 $560 forward $555 $-1 #
edge $-1 $578 0 $579 3.1415926535897931 $559 $580 forward 7 unknown #
coedge $-1 $581 $581 $543 $564 reversed $541 $-1 #
coedge $-1 $546 $543 $544 $566 reversed $521 $-1 #
coedge $-1 $543 $546 $545 $567 forward $521 $-1 #
edge $-1 $582 0 $583 3.1415926535897931 $543 $584 forward 7 unknown #
coedge $-1 $545 $544 $581 $585 reversed $491 $-1 #
edge $-1 $549 0 $583 1.7499999999999996 $562 $586 forward 7 unknown #
edge $-1 $548 0 $582 1.7499999999999996 $563 $587 forward 7 unknown #
ellipse-curve $-1 -2.2448931388189561 0 3.4694469519536142e-018 1 4.736951571734001e-015 4.0478767586698838e-031 -4.4408920985006262e-016 0.09375 8.0112376151311726e-018 1 I I #
point $-1 -2.2448931388189566 0.09375 1.1480684567084787e-017 #
point $-1 -2.2448931388189566 -0.09375 0 #
face $-1 $284 $588 $3 $-1 $589 forward single #
loop $-1 $-1 $590 $554 #
cone-surface $-1 0.00056644236689779351 0.30973586358641214 -0.81999999999999995 0 0 1 -0.171875 0 0 1 I I 0 1 0.171875 forward I I I I #
coedge $-1 $591 $559 $592 $593 reversed $555 $-1 #
coedge $-1 $590 $592 $558 $576 forward $572 $-1 #
edge $-1 $579 0 $578 3.1415926535897931 $575 $594 forward 7 unknown #
coedge $-1 $559 $591 $590 $595 forward $555 $-1 #
vertex $-1 $576 $596 #
vertex $-1 $576 $597 #
ellipse-curve $-1 0.00056644236689779026 0.30973586358641214 0.44 0 0 1 -0.171875 0 0 1 I I #
coedge $-1 $561 $561 $565 $585 forward $541 $-1 #
vertex $-1 $567 $598 #
vertex $-1 $566 $599 #
ellipse-curve $-1 -3.9948931388189561 0 0 1 0 0 0 0.09375 0 1 I I #
edge $-1 $582 0 $583 3.1415926535897931 $581 $600 forward 7 unknown #
straight-curve $-1 -2.2448931388189566 -0.09375 -2.2961369134169574e-017 -1 0 0 I I #
straight-curve $-1 -2.2448931388189566 0.09375 1.1480684567084787e-017 -1 0 0 I I #
loop $-1 $-1 $601 $571 #
plane-surface $-1 0.00056644236689779351 0.30973586358641214 0.755 0 0 1 -1 0 0 forward_v I I I I #
coedge $-1 $602 $575 $577 $595 reversed $572 $-1 #
coedge $-1 $577 $574 $601 $603 forward $555 $-1 #
coedge $-1 $575 $602 $574 $593 forward $572 $-1 #
edge $-1 $604 0 $579 0.315 $592 $605 forward 7 unknown #
ellipse-curve $-1 0.00056644236689779026 0.30973586358641214 0.44 0 0 1 0.171875 0 0 1 I I #
edge $-1 $606 0 $578 0.315 $590 $607 forward 7 unknown #
point $-1 -0.17130855763310221 0.30973586358641214 0.44 #
point $-1 0.17244144236689779 0.30973586358641214 0.44 #
point $-1 -3.9948931388189561 0.09375 0 #
point $-1 -3.9948931388189561 -0.09375 0 #
ellipse-curve $-1 -3.9948931388189561 0 0 -1 0 0 0 0.09375 0 1 I I #
coedge $-1 $608 $608 $591 $603 reversed $588 $-1 #
coedge $-1 $592 $590 $608 $609 reversed $572 $-1 #
edge $-1 $604 0 $606 3.1415926535897931 $601 $610 forward 7 unknown #
vertex $-1 $609 $611 #
straight-curve $-1 0.17244144236689779 0.30973586358641214 0.755 0 0 -1 I I #
vertex $-1 $609 $612 #
straight-curve $-1 -0.17130855763310221 0.30973586358641209 0.755 0 0 -1 I I #
coedge $-1 $601 $601 $602 $609 forward $588 $-1 #
edge $-1 $604 0 $606 3.1415926535897931 $608 $613 forward 7 unknown #
ellipse-curve $-1 0.0005664423668977972 0.30973586358641214 0.755 0 0 -1 0.171875 0 0 1 I I #
point $-1 0.17244144236689779 0.30973586358641214 0.755 #
point $-1 -0.17130855763310221 0.30973586358641214 0.755 #
ellipse-curve $-1 0.00056644236689778332 0.30973586358641214 0.755 0 0 1 0.171875 0 0 1 I I #
End-of-ACIS-data 