600 0 1 0           
86 GICL ACIS Healer - Source: /gicl/data5/repository/PTC/V18/reel18/mechan_simp.sat - 6 0 18 ACIS 6.0.3 Solaris 24 Sat Apr 13 20:58:10 2002 
1 9.999999999999999547e-07 1.000000000000000036e-10 
body $-1 $1 $-1 $-1 #
lump $-1 $-1 $2 $0 #
shell $-1 $-1 $-1 $3 $-1 $1 #
face $-1 $4 $5 $2 $-1 $6 forward single #
face $-1 $7 $8 $2 $-1 $9 forward single #
loop $-1 $-1 $10 $3 #
cone-surface $-1 -109.0156732260014962 0 0 1 0 0 0 -2.381249999999999645 0 1 I I 0 1 2.381249999999999645 forward I I I I #
face $-1 $11 $12 $2 $-1 $13 forward single #
loop $-1 $14 $15 $4 #
plane-surface $-1 -16.38028572600148181 0 0 1 0 0 0 -25.39999999999999858 0 forward_v I I I I #
coedge $-1 $16 $17 $15 $18 forward $5 $-1 #
face $-1 $19 $20 $2 $-1 $21 reversed single #
loop $-1 $-1 $22 $7 #
cone-surface $-1 -109.0156732260014962 0 0 1 0 0 0 -2.381249999999999645 0 1 I I 0 1 2.381249999999999645 forward I I I I #
loop $-1 $-1 $23 $4 #
coedge $-1 $24 $24 $10 $18 reversed $8 $-1 #
coedge $-1 $25 $10 $26 $27 reversed $5 $-1 #
coedge $-1 $10 $25 $28 $29 forward $5 $-1 #
edge $-1 $30 1.224606353822377258e-16 $31 3.141592653589793116 $10 $32 forward 7 unknown #
face $-1 $33 $34 $2 $-1 $35 forward single #
loop $-1 $36 $37 $11 #
plane-surface $-1 31.02246427399850148 0 0 1 0 0 0 -25.39999999999999858 0 forward_v I I I I #
coedge $-1 $26 $28 $38 $39 forward $12 $-1 #
coedge $-1 $40 $41 $42 $43 forward $14 $-1 #
coedge $-1 $15 $15 $44 $45 forward $8 $-1 #
coedge $-1 $17 $16 $46 $47 reversed $5 $-1 #
coedge $-1 $44 $22 $16 $27 forward $12 $-1 #
edge $-1 $48 0 $31 1.866249999999998854 $16 $49 forward 7 unknown #
coedge $-1 $22 $44 $17 $29 reversed $12 $-1 #
edge $-1 $50 0 $30 1.86624999999999952 $17 $51 forward 7 unknown #
vertex $-1 $29 $52 #
vertex $-1 $27 $53 #
ellipse-curve $-1 -16.38028572600148181 0 0 1 0 0 0 2.381249999999999645 0 1 I I #
face $-1 $54 $55 $2 $-1 $56 forward single #
loop $-1 $-1 $57 $19 #
cone-surface $-1 -109.0156732260014962 0 0 1 0 0 0 -8.731249999999999289 0 1 I I 0 1 8.731249999999999289 forward I I I I #
loop $-1 $-1 $46 $11 #
coedge $-1 $58 $58 $59 $60 forward $20 $-1 #
coedge $-1 $46 $46 $22 $39 reversed $36 $-1 #
edge $-1 $50 0 $48 3.141592653589793116 $38 $61 forward 7 unknown #
coedge $-1 $62 $23 $63 $64 reversed $14 $-1 #
coedge $-1 $23 $62 $65 $66 forward $14 $-1 #
coedge $-1 $67 $68 $23 $43 reversed $69 $-1 #
edge $-1 $70 7.348260082083665542e-17 $71 0.7798831540500156256 $23 $72 forward 7 unknown #
coedge $-1 $28 $26 $24 $45 reversed $12 $-1 #
edge $-1 $30 -1.224606353822377258e-16 $31 3.141592653589793116 $24 $73 forward 7 unknown #
coedge $-1 $38 $38 $25 $47 forward $36 $-1 #
edge $-1 $50 0 $48 3.141592653589793116 $25 $74 forward 7 unknown #
vertex $-1 $47 $75 #
straight-curve $-1 31.02246427399849082 -2.381249999999999645 -5.832187760079071298e-16 -25.39999999999999858 0 0 I I #
vertex $-1 $29 $76 #
straight-curve $-1 31.02246427399849082 2.381249999999999645 2.916093880039535649e-16 -25.39999999999999858 0 0 I I #
point $-1 -16.38028572600149246 2.381249999999999645 2.916093880039535649e-16 #
point $-1 -16.38028572600148181 -2.381249999999999645 0 #
face $-1 $77 $78 $2 $-1 $79 forward single #
loop $-1 $-1 $80 $33 #
cone-surface $-1 24.03746427399851626 0 0 1 0 0 0 -21.16666666666663943 0 1 I I -0.6401843996644793755 0.7682212795973761832 21.16666666666663943 forward I I I I #
coedge $-1 $81 $82 $83 $84 forward $34 $-1 #
coedge $-1 $37 $37 $85 $86 reversed $20 $-1 #
coedge $-1 $82 $81 $37 $60 reversed $34 $-1 #
edge $-1 $87 0 $88 3.141592653589793116 $37 $89 forward 7 unknown #
ellipse-curve $-1 31.02246427399850148 -8.812395257962179547e-17 -8.812395257962179547e-17 -1 -4.736951571734000976e-15 -7.553925226318824971e-31 -1.127986593019158982e-14 2.381249999999999645 3.79733340583575385e-16 1 I I #
coedge $-1 $41 $40 $90 $91 forward $14 $-1 #
coedge $-1 $92 $93 $40 $64 forward $94 $-1 #
edge $-1 $95 0 $71 3.141592653589793116 $40 $96 forward 7 unknown #
coedge $-1 $97 $98 $41 $66 reversed $99 $-1 #
edge $-1 $100 0 $70 0.3892701504097122456 $41 $101 forward 7 unknown #
coedge $-1 $102 $42 $98 $103 reversed $69 $-1 #
coedge $-1 $42 $104 $92 $105 reversed $69 $-1 #
loop $-1 $-1 $90 $106 #
vertex $-1 $66 $107 #
vertex $-1 $64 $108 #
ellipse-curve $-1 -16.38028572600148181 -1.37473366024209996e-14 5.111189249618063792e-15 1 0 0 0 -4.943730910203330886 4.889499999999994628 1 I I #
ellipse-curve $-1 -16.38028572600148181 0 0 -1 0 0 0 2.381249999999999645 0 1 I I #
ellipse-curve $-1 31.02246427399850148 0 8.812395257962179547e-17 1 4.736951571734000976e-15 4.047876758669883808e-31 -1.127986593019158982e-14 2.381249999999999645 2.034854354243317694e-16 1 I I #
point $-1 31.02246427399849082 -2.381249999999999645 -5.832187760079071298e-16 #
point $-1 31.02246427399849082 2.381249999999999645 2.916093880039535649e-16 #
face $-1 $109 $110 $2 $-1 $111 forward single #
loop $-1 $-1 $112 $54 #
cone-surface $-1 24.03746427399851626 0 0 1 0 0 0 -21.16666666666663943 0 1 I I -0.6401843996644793755 0.7682212795973761832 21.16666666666663943 forward I I I I #
coedge $-1 $83 $113 $114 $115 forward $55 $-1 #
coedge $-1 $59 $57 $116 $117 forward $34 $-1 #
coedge $-1 $57 $59 $118 $119 reversed $34 $-1 #
coedge $-1 $113 $80 $57 $84 reversed $55 $-1 #
edge $-1 $120 0 $121 3.141592653589793116 $83 $122 forward 7 unknown #
coedge $-1 $116 $118 $58 $86 forward $123 $-1 #
edge $-1 $87 0 $88 3.141592653589793116 $85 $124 forward 7 unknown #
vertex $-1 $86 $125 #
vertex $-1 $117 $126 #
ellipse-curve $-1 31.02246427399850148 0 0 -1 0 0 0 8.731249999999999289 0 1 I I #
coedge $-1 $127 $128 $62 $91 reversed $69 $-1 #
edge $-1 $95 1.305313205450116298e-31 $100 0.7798831540500149595 $62 $129 forward 7 unknown #
coedge $-1 $130 $63 $68 $105 forward $94 $-1 #
coedge $-1 $63 $130 $127 $131 reversed $94 $-1 #
loop $-1 $-1 $63 $132 #
vertex $-1 $91 $133 #
ellipse-curve $-1 -16.38028572600148181 1.762479051592435909e-16 3.524958103184871819e-16 -1 -1.622243688950000334e-15 -1.164211620705764681e-31 -1.127986593019158982e-14 6.953249999999999709 4.990036026530572237e-16 1 I I #
coedge $-1 $134 $65 $128 $135 reversed $99 $-1 #
coedge $-1 $65 $136 $67 $103 forward $99 $-1 #
loop $-1 $-1 $98 $137 #
vertex $-1 $66 $138 #
straight-curve $-1 -16.38028572600148181 4.943730910203345097 4.889499999999999957 0 -25.39999999999999858 0 I I #
coedge $-1 $128 $67 $139 $140 reversed $69 $-1 #
edge $-1 $141 0 $70 0.1067149974378958505 $67 $142 forward 7 unknown #
coedge $-1 $68 $127 $143 $144 forward $69 $-1 #
edge $-1 $71 0 $145 0.569999999999999396 $68 $146 forward 7 unknown #
face $-1 $132 $69 $2 $-1 $147 forward single #
point $-1 -16.38028572600148181 -4.943730910203345097 4.889499999999999957 #
point $-1 -16.38028572600149246 -6.953249999999999709 -1.702998825943088811e-15 #
face $-1 $148 $149 $2 $-1 $150 forward single #
loop $-1 $-1 $151 $77 #
cone-surface $-1 42.92871427399851569 0 9.651999999999999247 0 0 -1 -3.96875 0 0 1 I I 0 1 3.96875 forward I I I I #
coedge $-1 $152 $153 $154 $155 reversed $78 $-1 #
coedge $-1 $80 $83 $156 $157 reversed $55 $-1 #
coedge $-1 $156 $152 $80 $115 reversed $78 $-1 #
edge $-1 $158 1.421494921026676191e-16 $121 0.5369546652185835933 $114 $159 forward 7 unknown #
coedge $-1 $160 $85 $81 $117 reversed $123 $-1 #
edge $-1 $121 0 $88 0.3124999999999994449 $116 $161 forward 7 unknown #
coedge $-1 $85 $162 $82 $119 forward $123 $-1 #
edge $-1 $120 0 $87 0.3124999999999994449 $118 $163 forward 7 unknown #
vertex $-1 $164 $165 #
vertex $-1 $115 $166 #
ellipse-curve $-1 38.95996427399848727 3.524958103184871819e-16 -3.524958103184871819e-16 -1 0 0 0 8.731249999999999289 1.421730232999650187e-15 1 I I #
loop $-1 $-1 $118 $167 #
ellipse-curve $-1 31.02246427399850148 0 0 1 0 0 0 8.731249999999999289 0 1 I I #
point $-1 31.02246427399850148 8.731249999999999289 0 #
point $-1 31.02246427399850148 -8.731249999999999289 0 #
coedge $-1 $104 $90 $93 $131 forward $69 $-1 #
coedge $-1 $90 $102 $97 $135 forward $69 $-1 #
ellipse-curve $-1 -16.38028572600148181 1.268984917146553894e-14 4.934941344458820349e-15 1 1.62224368895000349e-15 -9.526966386292826069e-31 -1.127986593019158982e-14 6.953249999999986386 -4.083441931487276141e-15 1 I I #
coedge $-1 $93 $92 $168 $169 reversed $94 $-1 #
edge $-1 $95 0 $170 0.569999999999999396 $127 $171 forward 7 unknown #
face $-1 $172 $94 $2 $-1 $173 forward single #
point $-1 -16.38028572600149246 6.953249999999999709 8.514994129715444055e-16 #
coedge $-1 $174 $97 $175 $176 forward $99 $-1 #
edge $-1 $177 0 $100 0.25282124858785604 $128 $178 forward 7 unknown #
coedge $-1 $98 $174 $179 $180 forward $99 $-1 #
face $-1 $181 $182 $2 $-1 $183 reversed single #
point $-1 -16.38028572600148181 4.943730910203345097 4.889499999999999957 #
coedge $-1 $179 $175 $102 $140 forward $184 $-1 #
edge $-1 $177 0 $141 1 $102 $185 forward 7 unknown #
vertex $-1 $140 $186 #
straight-curve $-1 -19.09084666092403637 -4.943730910203345097 4.889499999999999957 25.39999999999999858 0 0 I I #
coedge $-1 $168 $168 $104 $144 reversed $187 $-1 #
edge $-1 $170 0 $145 3.141592653589793116 $104 $188 forward 7 unknown #
vertex $-1 $105 $189 #
straight-curve $-1 -16.38028572600149246 -6.953249999999999709 -1.702998825943088811e-15 -25.39999999999999858 0 0 I I #
cone-surface $-1 -109.0156732260014962 0 0 1 0 0 0 -6.953249999999999709 0 1 I I 0 1 6.953249999999999709 forward I I I I #
face $-1 $190 $191 $2 $-1 $192 reversed single #
loop $-1 $-1 $193 $109 #
cone-surface $-1 42.92871427399851569 0 9.651999999999999247 0 0 -1 -3.96875 0 0 1 I I 0 1 3.96875 forward I I I I #
coedge $-1 $194 $154 $195 $196 reversed $110 $-1 #
coedge $-1 $114 $112 $160 $197 forward $78 $-1 #
coedge $-1 $112 $198 $199 $200 reversed $78 $-1 #
coedge $-1 $151 $201 $112 $155 forward $110 $-1 #
edge $-1 $202 0 $203 0.999999999999999889 $112 $204 forward 7 unknown #
coedge $-1 $198 $114 $113 $157 forward $78 $-1 #
edge $-1 $158 0 $120 0.5369546652185835933 $156 $205 forward 7 unknown #
vertex $-1 $157 $206 #
straight-curve $-1 49.43746427399852195 2.819966482547897455e-15 1.252316687038356171e-30 -19.51282050177335847 -16.2606837514777709 -3.982587327911194518e-15 I I #
coedge $-1 $162 $116 $152 $197 reversed $123 $-1 #
straight-curve $-1 38.95996427399848727 -8.731249999999999289 -2.138468845362326208e-15 -25.39999999999999858 0 0 I I #
coedge $-1 $118 $160 $198 $164 reversed $123 $-1 #
straight-curve $-1 38.95996427399848727 8.731249999999999289 1.069234422681163104e-15 -25.39999999999999858 0 0 I I #
edge $-1 $120 0 $202 1.570796323186602672 $198 $207 forward 7 unknown #
point $-1 38.95996427399848727 8.731249999999999289 1.069234422681163104e-15 #
point $-1 38.95996427399848727 -8.731249999999999289 -2.138468845362326208e-15 #
face $-1 $-1 $123 $2 $-1 $208 forward single #
coedge $-1 $143 $143 $130 $169 forward $187 $-1 #
edge $-1 $170 0 $145 3.141592653589793116 $168 $209 forward 7 unknown #
vertex $-1 $144 $210 #
straight-curve $-1 -16.38028572600149246 6.953249999999999709 8.514994129715444055e-16 -25.39999999999999858 0 0 I I #
face $-1 $211 $212 $2 $-1 $213 forward single #
cone-surface $-1 -109.0156732260014962 0 0 1 0 0 0 -6.953249999999999709 0 1 I I 0 1 6.953249999999999709 forward I I I I #
coedge $-1 $136 $134 $214 $215 reversed $99 $-1 #
coedge $-1 $139 $216 $134 $176 reversed $184 $-1 #
edge $-1 $177 -2.685690485358556078e-17 $217 0.1274400971309746777 $134 $218 forward 7 unknown #
vertex $-1 $135 $219 #
straight-curve $-1 -22.80194544013302504 4.943730910203344209 4.889499999999999957 25.39999999999999858 2.788498295039421512e-15 0 I I #
coedge $-1 $220 $139 $136 $180 reversed $184 $-1 #
edge $-1 $221 -6.757034650995659074e-18 $141 2.550906152582935071 $136 $222 forward 7 unknown #
face $-1 $223 $224 $2 $-1 $225 forward single #
loop $-1 $99 $226 $137 #
plane-surface $-1 0.01438763611920395452 7.867290935094867876 4.889499999999999957 0 0 1 -25.39999999999999858 0 0 forward_v I I I I #
loop $-1 $-1 $227 $190 #
intcurve-curve $-1 forward { surfintcur full nurbs 3 open 9 
	0 3 0.1240687545315013601 1 0.248620723627194451 1 0.3734069565808267321 1 0.4981406183478144789 1 
	0.623073366227615999 1 0.7485228154687816327 1 0.8742630110943516719 1 1 3 
	-22.80194544013302504 4.943730910203345097 4.889499999999999069 1 
	-22.76437561897832396 4.626658872072463069 5.21186686036836111 1 
	-22.65830603167012924 3.935211101691334701 5.786455071476115819 1 
	-22.41404016039908242 2.698263177839990146 6.460793233129884072 1 
	-22.06083525190482675 1.349144823670046733 6.867790829252254703 1 
	-21.61381298347818358 -0.009498425520721323276 6.996578454306026984 0.999999999999999889 
	-21.0756684876460163 -1.355026224807901913 6.865175431271061335 1.000000000000000222 
	-20.44601357187776713 -2.678968060465641177 6.466607792567710788 0.9999999999999996669 
	-19.76030422603427894 -3.907070660592866229 5.807168961559311171 1.000000000000000444 
	-19.31470605328316026 -4.614300734279718874 5.221252325087284873 0.999999999999999889 
	-19.09084666092402927 -4.943730910203345097 4.889499999999999069 1 
	0.02539999999999999897 
	cone -109.0156732260014962 0 0 1 0 0 0 -6.953249999999999709 0 1 I I 0 1 6.953249999999999709 forward I I I I 
	cone 0.01438763611920395452 7.867290935094867876 -20.82799999999999585 0 0 1 -23.00287500000000662 0 0 1 I I 0 1 23.00287500000000662 forward I I I I 
	nullbs 
	nullbs 
	I I 
	0 
	0 
	0 
	} I I #
point $-1 -19.09084666092403637 -4.943730910203345097 4.889499999999999957 #
loop $-1 $-1 $143 $172 #
ellipse-curve $-1 -30.85828572600147623 0 3.524958103184871819e-16 1 0 0 0 6.953249999999999709 -3.524958103184871819e-16 1 I I #
point $-1 -30.85828572600147623 -6.953249999999999709 0 #
face $-1 $228 $184 $2 $-1 $229 forward single #
loop $-1 $230 $231 $148 #
plane-surface $-1 0.01438763611920395452 7.867290935094867876 9.651999999999999247 0 0 1 25.39999999999999858 0 0 forward_v I I I I #
coedge $-1 $232 $199 $201 $233 reversed $149 $-1 #
coedge $-1 $201 $151 $234 $235 forward $110 $-1 #
coedge $-1 $199 $232 $151 $196 forward $149 $-1 #
edge $-1 $236 0 $203 0.2966666666666667451 $195 $237 forward 7 unknown #
edge $-1 $202 0 $121 1.570796330403190222 $152 $238 forward 7 unknown #
coedge $-1 $153 $156 $162 $164 forward $78 $-1 #
coedge $-1 $193 $195 $153 $200 forward $149 $-1 #
edge $-1 $203 0 $202 0.999999999999999889 $153 $239 forward 7 unknown #
coedge $-1 $154 $194 $193 $233 forward $110 $-1 #
vertex $-1 $200 $240 #
vertex $-1 $200 $241 #
intcurve-curve $-1 forward { surfintcur full nurbs 3 open 24 
	0 3 0.04331876098816015569 1 0.08681148265567215083 1 0.1305561161997344788 1 0.1745251401800226032 1 
	0.2186064407550281363 1 0.2627354919415699208 1 0.3068780093797046082 1 0.350977835323486087 1 0.3949750747177497856 1 
	0.43881755682925766 1 0.4824908366659776404 1 0.5260064963989877773 1 0.5693619217074404881 1 0.612569089940760092 1 
	0.6556281965249238786 1 0.6985334360953227018 1 0.7413535273756322042 1 0.784148516103171267 1 0.8270080792308801554 1 
	0.8699735138945648982 1 0.9131123418919536716 1 0.9564538639544545306 1 0.999999999999999889 3 
	38.95996427399851569 2.896530722186161625e-08 8.731249999999986855 1 
	38.95828305607266628 -0.2010229448299285238 8.733404121125657227 1 
	38.9909307120994626 -0.6096220609487512654 8.691371166460609032 1.000000000000000222 
	39.14097775574374083 -1.249003162403239386 8.498163960564045993 0.999999999999999889 
	39.41671946275835836 -1.893798039494482666 8.143370262794519476 1 
	39.81053390009925153 -2.488298015521384521 7.637323593821249368 1.000000000000000222 
	40.28070377056047846 -2.980711507260969562 7.034422191856137374 0.999999999999999778 
	40.79782083286048078 -3.367949270046581844 6.37331464147463933 1 
	41.34489845779802408 -3.655612950125516125 5.676959264923524984 0.999999999999999778 
	41.89947642670531991 -3.847056196289386776 4.975594985052531172 1 
	42.44214682332401622 -3.950807456721296962 4.295857784732360685 1 
	42.95505510768037283 -3.978899673072746612 3.662661224482928635 0.999999999999999778 
	43.43288652772767477 -3.945776727798667949 3.08566452463616292 0.999999999999999889 
	43.88094899564011797 -3.8613611455570096 2.563485625176827654 1.000000000000000222 
	44.29741764936865422 -3.733484752836099929 2.106527672481005364 0.999999999999999889 
	44.69099006123329332 -3.56470936958634077 1.719181161826292881 1 
	45.06941052650881829 -3.351371870981279866 1.422114942645064772 1 
	45.42545815678322185 -3.09559219361024951 1.262771964748811149 1.000000000000000222 
	45.7503071523314091 -2.801456958164566302 1.265988211033014954 1 
	46.01924685637313672 -2.500779066502338832 1.372895541322429303 0.999999999999999778 
	46.26487212311751307 -2.163663025191815414 1.532254310032524769 1 
	46.48746792022485863 -1.77815368950814845 1.715712710688090503 1 
	46.69066306396555888 -1.303509027076134918 1.905684675932707961 1 
	46.85342994070172296 -0.7134857177170519371 2.070855779941253694 0.999999999999999778 
	46.89213043133833025 -0.2501460715425731229 2.110254629298737417 1 
	46.89746427399851569 -3.889559482510061658e-15 2.116666666666664476 1 
	0.02539999999999999897 
	cone 24.03746427399851626 0 0 1 0 0 0 -21.16666666666663943 0 1 I I -0.6401843996644793755 0.7682212795973761832 21.16666666666663943 forward I I I I 
	cone 42.92871427399851569 0 9.651999999999999247 0 0 -1 -3.96875 0 0 1 I I 0 1 3.96875 forward I I I I 
	nullbs 
	nullbs 
	I I 
	0 
	0 
	0 
	} I I #
straight-curve $-1 49.43746427399852195 -2.819966482547897455e-15 -6.261583435191780855e-31 -19.51282050177335847 16.2606837514777709 1.991293663955597259e-15 I I #
point $-1 49.43746427399852195 -2.819966482547897455e-15 -6.261583435191780855e-31 #
ellipse-curve $-1 38.95996427399850859 -1.586231146433192368e-15 -1.409983241273948727e-15 1 1.937843824800273091e-15 5.502461434996330321e-31 -1.691979889528738315e-14 8.731250000000001066 2.479217663955111634e-15 1 I I #
cone-surface $-1 -109.0156732260014962 0 0 1 0 0 0 -8.731249999999999289 0 1 I I 0 1 8.731249999999999289 forward I I I I #
ellipse-curve $-1 -30.85828572600147623 0 -3.524958103184871819e-16 -1 0 0 0 6.953249999999999709 3.524958103184871819e-16 1 I I #
point $-1 -30.85828572600147623 6.953249999999999709 0 #
face $-1 $242 $243 $2 $-1 $244 forward single #
loop $-1 $187 $245 $172 #
plane-surface $-1 -30.85828572600147623 0 0 1 0 0 0 -25.39999999999999858 0 forward_v I I I I #
coedge $-1 $246 $247 $174 $215 forward $248 $-1 #
edge $-1 $221 -1.592729596306120486e-17 $217 3.141592653589793116 $214 $249 forward 7 unknown #
coedge $-1 $175 $227 $246 $250 forward $184 $-1 #
vertex $-1 $250 $251 #
ellipse-curve $-1 0.01438763611859052854 7.867290935094834126 4.889499999999999957 0 0 -1 -22.81633307625161677 -2.923560024891489473 0 1 I I #
point $-1 -22.80194544013302504 4.943730910203344209 4.889499999999999957 #
coedge $-1 $252 $179 $247 $253 reversed $184 $-1 #
vertex $-1 $215 $254 #
ellipse-curve $-1 0.01438763611920316696 7.867290935094870541 4.889499999999999957 0 0 -1 23.00287500000001017 -2.819966482547897455e-15 0 1 I I #
face $-1 $255 $256 $2 $-1 $257 forward single #
loop $-1 $-1 $258 $181 #
cone-surface $-1 0.01438763611920395452 7.867290935094867876 -20.82799999999999585 0 0 1 -4.762499999999999289 0 0 1 I I 0 1 4.762499999999999289 forward I I I I #
coedge $-1 $259 $259 $258 $260 reversed $182 $-1 #
coedge $-1 $216 $252 $261 $262 forward $184 $-1 #
face $-1 $263 $264 $2 $-1 $265 forward single #
cone-surface $-1 0.01438763611920395452 7.867290935094867876 -20.82799999999999585 0 0 1 -23.00287500000000662 0 0 1 I I 0 1 23.00287500000000662 forward I I I I #
loop $-1 $-1 $234 $148 #
coedge $-1 $266 $267 $252 $268 forward $191 $-1 #
coedge $-1 $195 $193 $269 $270 forward $149 $-1 #
edge $-1 $271 0 $202 0.03625000000000049016 $193 $272 forward 7 unknown #
coedge $-1 $269 $269 $194 $235 reversed $230 $-1 #
edge $-1 $236 0 $271 3.141592653589792672 $234 $273 forward 7 unknown #
vertex $-1 $270 $274 #
straight-curve $-1 46.89746427399851569 4.860156466732559744e-16 9.651999999999999247 0 0 -25.39999999999999858 I I #
ellipse-curve $-1 38.95996427399850859 1.057487430955461447e-15 -1.762479051592435909e-16 1 -2.330769603643563835e-24 -6.45947941600091096e-16 5.63993296509579491e-15 3.150491052173978497e-08 8.731249999999999289 1 I I #
intcurve-curve $-1 forward { surfintcur full nurbs 3 open 28 
	0 3 0.03718574996504497854 1 0.07421107795995850187 1 0.1110944599456761134 1 0.1478607607725769268 1 
	0.1845352364954357949 1 0.2211109436636519709 1 0.2575920838111049882 1 0.2940182175961115751 1 0.3304386563250040765 1 
	0.3668953113280136735 1 0.4034150529047152434 1 0.4400057685854156797 1 0.4766542376993821994 1 0.5133874091855704647 1 
	0.5502270665929285265 1 0.5871809713803544106 1 0.6242539637802243524 1 0.6614488093245124434 1 0.6987732616909703154 1 
	0.7362331483756358042 1 0.7738319576390062515 1 0.8115714267730552711 1 0.8494627913950163478 1 0.8874280175392166292 1 
	0.9251964808093892101 1 0.9626967426566246377 1 0.999999999999999889 3 
	46.89746427399851569 -3.889559482510061658e-15 2.116666666666664476 1 
	46.89312646342698798 0.2281137262737189253 2.111557517931552663 1 
	46.86061479431997867 0.6523992988662093984 2.078320929142765117 1 
	46.72451878838635508 1.195002255129804292 1.939598390762496516 0.999999999999999889 
	46.55036070005294846 1.643926752649759848 1.773141531912729274 1 
	46.35305132632393565 2.019719522338634832 1.602142205441265066 0.999999999999999889 
	46.13767447398470978 2.345257523746133277 1.444634641514087159 1.000000000000000444 
	45.91318704633848569 2.623464666012735425 1.324909561563658134 1 
	45.68634598444544537 2.860067206143973362 1.263094196938131297 1 
	45.45451749759816806 3.066255297915092992 1.270691197752876311 0.999999999999999889 
	45.21784585098109943 3.246436247244154583 1.351184413705710519 1 
	44.97530580667125832 3.404401240995952094 1.49673748665450268 1.000000000000000222 
	44.72296008172289561 3.544006153580492757 1.697778890846731947 0.9999999999999996669 
	44.45666869337877358 3.66668649554254289 1.947965678809080003 1 
	44.18460926243519538 3.768639024892072698 2.230166436382058581 0.999999999999999889 
	43.89247263075562699 3.854227856857163736 2.552839207066719851 1.000000000000000222 
	43.57384825057285838 3.920785158487536837 2.92060243216482629 0.999999999999999778 
	43.22696816044523871 3.963055082615480451 3.333504341746802435 1.000000000000000222 
	42.85030533653735318 3.974382050384946297 3.791828485064356435 0.999999999999999889 
	42.44446234547925911 3.946672970212560028 4.293554742074528363 1 
	42.00808871705371672 3.869725563481615005 4.83931879312605151 1.000000000000000222 
	41.54253856416352875 3.730418291994688218 5.426607488925317746 1.000000000000000222 
	41.05100325098427305 3.511712933935714265 6.050685349056955431 0.999999999999999889 
	40.54252926955066272 3.192332670339602885 6.699396923807866777 1 
	40.02509299753436522 2.740009015250432611 7.361952468162949792 1 
	39.53657974716510637 2.112178846148221822 7.989224241329689669 1.000000000000000222 
	39.18924534863074882 1.402393999396816637 8.436025203975098918 1 
	38.99854885493117962 0.6823858727709634087 8.681560735123754924 1 
	38.95765965306893719 0.2252349658089428941 8.734200177085391203 1 
	38.95996427399851569 3.150491157922716695e-08 8.731249999999986855 1 
	0.02539999999999999897 
	cone 24.03746427399851626 0 0 1 0 0 0 -21.16666666666663943 0 1 I I -0.6401843996644793755 0.7682212795973761832 21.16666666666663943 forward I I I I 
	cone 42.92871427399851569 0 9.651999999999999247 0 0 -1 -3.96875 0 0 1 I I 0 1 3.96875 forward I I I I 
	nullbs 
	nullbs 
	I I 
	0 
	0 
	0 
	} I I #
point $-1 38.95996427399851569 3.150491157922716695e-08 8.731249999999986855 #
point $-1 46.89746427399851569 -3.889559482510061658e-15 2.116666666666664476 #
face $-1 $275 $276 $2 $-1 $277 forward single #
loop $-1 $-1 $278 $211 #
cone-surface $-1 -109.0156732260014962 0 0 1 0 0 0 -9.493249999999999744 0 1 I I 0 1 9.493249999999999744 forward I I I I #
coedge $-1 $279 $279 $278 $280 reversed $212 $-1 #
coedge $-1 $281 $214 $216 $250 reversed $248 $-1 #
coedge $-1 $214 $282 $220 $253 forward $248 $-1 #
loop $-1 $-1 $247 $283 #
ellipse-curve $-1 0.01438763611920457729 7.867290935094869653 4.889499999999999957 0 0 1 23.00287500000000662 -1.409983241273948727e-15 0 1 I I #
edge $-1 $284 0 $217 0.1874999999999999722 $246 $285 forward 7 unknown #
point $-1 -22.98848736388080383 7.867290935094867876 4.889499999999999957 #
coedge $-1 $227 $220 $231 $268 reversed $184 $-1 #
edge $-1 $286 0 $221 0.1874999999999999722 $247 $287 forward 7 unknown #
point $-1 23.01726263611921297 7.867290935094867876 4.889499999999999957 #
face $-1 $106 $288 $2 $-1 $289 reversed single #
loop $-1 $-1 $290 $223 #
cone-surface $-1 0.01438763611920395452 7.867290935094867876 -20.82799999999999585 0 0 1 -4.762499999999999289 0 0 1 I I 0 1 4.762499999999999289 forward I I I I #
coedge $-1 $291 $292 $226 $260 forward $224 $-1 #
coedge $-1 $226 $226 $293 $294 forward $182 $-1 #
edge $-1 $295 0 $296 3.141592653589793116 $226 $297 forward 7 unknown #
coedge $-1 $298 $299 $227 $262 reversed $264 $-1 #
edge $-1 $300 4.297104776573460955e-16 $284 2.304989507949994909 $261 $301 forward 7 unknown #
face $-1 $302 $303 $2 $-1 $304 reversed single #
loop $-1 $-1 $305 $228 #
plane-surface $-1 0.01438763611920395452 7.867290935094867876 9.651999999999999247 0 0 1 -25.39999999999999858 0 0 forward_v I I I I #
coedge $-1 $306 $231 $282 $307 forward $191 $-1 #
coedge $-1 $231 $308 $309 $310 reversed $191 $-1 #
edge $-1 $300 -1.611414291215050212e-15 $286 0.8366031456397975408 $252 $311 forward 7 unknown #
coedge $-1 $234 $234 $232 $270 reversed $230 $-1 #
edge $-1 $271 0 $236 3.14159265358979356 $269 $312 forward 7 unknown #
vertex $-1 $270 $313 #
straight-curve $-1 38.95996427399851569 0 9.651999999999999247 0 0 -25.39999999999999858 I I #
ellipse-curve $-1 42.92871427399851569 0 9.651999999999999247 0 0 -1 3.96875 0 0 1 I I #
point $-1 46.89746427399851569 0 9.651999999999999247 #
face $-1 $314 $315 $2 $-1 $316 reversed single #
loop $-1 $-1 $317 $242 #
cone-surface $-1 -109.0156732260014962 0 0 1 0 0 0 -9.493249999999999744 0 1 I I 0 1 9.493249999999999744 forward I I I I #
coedge $-1 $318 $319 $245 $280 forward $243 $-1 #
coedge $-1 $245 $245 $320 $321 forward $212 $-1 #
edge $-1 $322 0 $323 3.141592653589793116 $245 $324 forward 7 unknown #
coedge $-1 $282 $246 $299 $325 reversed $248 $-1 #
coedge $-1 $247 $281 $266 $307 reversed $248 $-1 #
face $-1 $137 $248 $2 $-1 $326 forward single #
vertex $-1 $262 $327 #
straight-curve $-1 -22.98848736388080383 7.867290935094862547 9.651999999999999247 0 0 -25.39999999999999858 I I #
vertex $-1 $307 $328 #
straight-curve $-1 23.01726263611921297 7.867290935094870541 9.651999999999999247 0 0 -25.39999999999999858 I I #
loop $-1 $-1 $329 $255 #
plane-surface $-1 0.01438763611920395452 7.867290935094867876 -18.92299999999999827 0 0 1 -25.39999999999999858 0 0 forward_v I I I I #
coedge $-1 $330 $331 $329 $332 forward $256 $-1 #
coedge $-1 $333 $258 $330 $334 forward $224 $-1 #
coedge $-1 $258 $333 $331 $335 reversed $224 $-1 #
coedge $-1 $331 $330 $259 $294 reversed $256 $-1 #
edge $-1 $295 0 $296 3.141592653589793116 $259 $336 forward 7 unknown #
vertex $-1 $294 $337 #
vertex $-1 $294 $338 #
ellipse-curve $-1 0.0143876361192040482 7.867290935094867876 4.889499999999999957 0 0 -1 4.762499999999999289 0 0 1 I I #
coedge $-1 $305 $261 $339 $340 reversed $264 $-1 #
coedge $-1 $261 $305 $281 $325 forward $264 $-1 #
vertex $-1 $340 $341 #
ellipse-curve $-1 0.01438763611920440035 7.867290935094865212 9.651999999999999247 0 0 -1 15.41165974811441686 -17.07668006592543719 0 1 I I #
face $-1 $342 $343 $2 $-1 $344 forward single #
loop $-1 $-1 $345 $263 #
cone-surface $-1 32.311467931395498 24.35103677626030816 9.651999999999999247 0 0 1 15.875 0 0 1 I I 0 1 15.875 forward I I I I #
coedge $-1 $299 $298 $346 $347 forward $264 $-1 #
coedge $-1 $348 $266 $349 $350 reversed $191 $-1 #
edge $-1 $286 8.687615979851646408e-18 $351 0.1683922809438592461 $282 $352 forward 7 unknown #
coedge $-1 $267 $353 $354 $355 reversed $191 $-1 #
coedge $-1 $356 $339 $267 $310 forward $343 $-1 #
edge $-1 $300 -2.200537923414248805e-15 $357 0.1032611880817961431 $267 $358 forward 7 unknown #
ellipse-curve $-1 0.01438763611922220208 7.867290935094859883 9.651999999999999247 0 0 1 15.41165974811441863 -17.07668006592541232 0 1 I I #
ellipse-curve $-1 42.92871427399851569 0 9.651999999999999247 0 0 -1 -3.96875 -1.409983241273948727e-15 0 1 I I #
point $-1 38.95996427399851569 -1.409983241273948727e-15 9.651999999999999247 #
face $-1 $359 $360 $2 $-1 $361 forward single #
loop $-1 $362 $363 $275 #
plane-surface $-1 -35.93828572600148163 0 0 1 0 0 0 -25.39999999999999858 0 forward_v I I I I #
coedge $-1 $364 $365 $366 $367 forward $276 $-1 #
coedge $-1 $368 $278 $364 $369 forward $243 $-1 #
coedge $-1 $278 $368 $365 $370 reversed $243 $-1 #
coedge $-1 $365 $364 $279 $321 reversed $276 $-1 #
edge $-1 $322 0 $323 3.141592653589793116 $279 $371 forward 7 unknown #
vertex $-1 $321 $372 #
vertex $-1 $321 $373 #
ellipse-curve $-1 -30.85828572600147623 -3.524958103184871819e-16 -3.524958103184871819e-16 -1 -1.188198554782776228e-15 -1.89626793903576534e-31 -1.127986593019158982e-14 9.493249999999999744 1.515045237160915344e-15 1 I I #
edge $-1 $351 1.611414291215047057e-16 $284 2.973200372645936174 $299 $374 forward 7 unknown #
cone-surface $-1 0.01438763611920395452 7.867290935094867876 -20.82799999999999585 0 0 1 -23.00287500000000662 0 0 1 I I 0 1 23.00287500000000662 forward I I I I #
point $-1 -22.98848736388080383 7.867290935094862547 9.651999999999999247 #
point $-1 23.01726263611921297 7.867290935094867876 9.651999999999999247 #
coedge $-1 $375 $375 $290 $332 reversed $288 $-1 #
coedge $-1 $293 $290 $291 $334 reversed $256 $-1 #
coedge $-1 $290 $293 $292 $335 forward $256 $-1 #
edge $-1 $376 0 $377 3.141592653589793116 $290 $378 forward 7 unknown #
coedge $-1 $292 $291 $375 $379 reversed $224 $-1 #
edge $-1 $296 0 $377 0.9375 $330 $380 forward 7 unknown #
edge $-1 $295 0 $376 0.9375 $331 $381 forward 7 unknown #
ellipse-curve $-1 0.01438763611920369605 7.867290935094867876 4.889499999999999957 0 0 1 4.762499999999999289 0 0 1 I I #
point $-1 4.776887636119203862 7.867290935094867876 4.889499999999999957 #
point $-1 -4.748112363880795606 7.867290935094867876 4.889499999999999957 #
coedge $-1 $309 $382 $298 $340 forward $343 $-1 #
edge $-1 $383 -1.073433133372802311e-16 $300 4.603950332397423573 $298 $384 forward 7 unknown #
point $-1 15.42604738423361255 -9.20938913083057642 9.651999999999999247 #
face $-1 $385 $386 $2 $-1 $387 reversed single #
loop $-1 $-1 $309 $302 #
cone-surface $-1 6.906065337219268407 4.653648845535870215 9.651999999999999247 0 0 1 16.27187499999999787 0 0 1 I I 0 1 16.27187499999999787 forward I I I I #
coedge $-1 $388 $346 $382 $389 forward $303 $-1 #
coedge $-1 $345 $349 $305 $347 reversed $303 $-1 #
edge $-1 $383 5.638878428749021734e-17 $351 0.2603160974207233136 $305 $390 forward 7 unknown #
coedge $-1 $391 $306 $392 $393 reversed $191 $-1 #
coedge $-1 $346 $394 $306 $350 forward $303 $-1 #
edge $-1 $395 -1.127775685749802621e-16 $351 0.3846805662113504387 $306 $396 forward 7 unknown #
vertex $-1 $325 $397 #
ellipse-curve $-1 0.01438763611947740939 7.867290935094887416 9.651999999999999247 0 0 1 23.00287499999973662 -1.97397653778352814e-14 0 1 I I #
coedge $-1 $308 $391 $398 $399 reversed $191 $-1 #
coedge $-1 $400 $401 $308 $355 forward $386 $-1 #
edge $-1 $357 -1.127775685749802868e-16 $402 0.6449966636320833002 $308 $403 forward 7 unknown #
coedge $-1 $404 $309 $401 $405 forward $343 $-1 #
vertex $-1 $310 $406 #
ellipse-curve $-1 6.906065337219268407 4.653648845535870215 9.651999999999999247 0 0 1 8.51998204701437345 -13.86303797636642443 0 1 I I #
face $-1 $407 $408 $2 $-1 $409 forward single #
loop $-1 $-1 $410 $314 #
cone-surface $-1 -109.0156732260014962 0 0 1 0 0 0 -4.413250000000000561 0 1 I I 0 1 4.413250000000000561 forward I I I I #
loop $-1 $-1 $366 $275 #
coedge $-1 $411 $411 $410 $412 reversed $315 $-1 #
coedge $-1 $320 $317 $318 $369 reversed $276 $-1 #
coedge $-1 $317 $320 $319 $370 forward $276 $-1 #
coedge $-1 $413 $413 $317 $367 reversed $362 $-1 #
edge $-1 $414 1.224606353822377258e-16 $415 3.141592653589793116 $317 $416 forward 7 unknown #
coedge $-1 $319 $318 $413 $417 reversed $243 $-1 #
edge $-1 $323 0 $415 0.199999999999999678 $364 $418 forward 7 unknown #
edge $-1 $322 0 $414 0.2000000000000002331 $365 $419 forward 7 unknown #
ellipse-curve $-1 -30.85828572600147623 0 3.524958103184871819e-16 1 1.188198554782776228e-15 1.013883060543341982e-31 -1.127986593019158982e-14 9.493249999999999744 8.100536165239411774e-16 1 I I #
point $-1 -30.85828572600149045 9.493249999999999744 1.162549426842428261e-15 #
point $-1 -30.85828572600149045 -9.493249999999999744 0 #
ellipse-curve $-1 0.01438763611920246266 7.867290935094863435 9.651999999999999247 0 0 1 22.67751062130054507 3.855226359946512193 0 1 I I #
coedge $-1 $329 $329 $333 $379 forward $288 $-1 #
vertex $-1 $335 $420 #
vertex $-1 $334 $421 #
ellipse-curve $-1 0.01438763611920387125 7.867290935094867876 -18.92299999999999827 0 0 1 4.762499999999999289 0 0 1 I I #
edge $-1 $376 0 $377 3.141592653589793116 $375 $422 forward 7 unknown #
straight-curve $-1 -4.748112363880795606 7.8672909350948661 4.889499999999999957 0 0 -25.39999999999999858 I I #
straight-curve $-1 4.776887636119203862 7.867290935094867876 4.889499999999999957 0 0 -25.39999999999999858 I I #
coedge $-1 $339 $404 $345 $389 reversed $343 $-1 #
vertex $-1 $340 $423 #
ellipse-curve $-1 6.906065337219268407 4.653648845535870215 9.651999999999999247 0 0 1 12.85952476989180049 9.970282779749263469 0 1 I I #
face $-1 $424 $425 $2 $-1 $426 forward single #
loop $-1 $-1 $400 $342 #
cone-surface $-1 26.47165439788991748 -20.85339522026270132 9.651999999999999247 0 0 1 15.875 0 0 1 I I 0 1 15.875 forward I I I I #
coedge $-1 $394 $345 $427 $428 reversed $303 $-1 #
edge $-1 $383 1.216419374848673374e-29 $429 0.06000000000000003941 $382 $430 forward 7 unknown #
ellipse-curve $-1 32.311467931395498 24.35103677626030816 9.651999999999999247 0 0 1 -12.54587782428442999 -9.727105150975175363 0 1 I I #
coedge $-1 $353 $348 $431 $432 reversed $191 $-1 #
coedge $-1 $433 $434 $348 $393 forward $435 $-1 #
edge $-1 $436 -9.201809745432591735e-18 $395 0.6549344678824657873 $348 $437 forward 7 unknown #
coedge $-1 $349 $388 $433 $438 reversed $303 $-1 #
vertex $-1 $393 $439 #
ellipse-curve $-1 32.311467931395498 24.35103677626030816 9.651999999999999247 0 0 -1 -4.177538715537350456 -15.31547567920064701 0 1 I I #
point $-1 22.69189825741974786 11.72251729504137963 9.651999999999999247 #
coedge $-1 $440 $441 $353 $399 forward $425 $-1 #
edge $-1 $402 0 $442 0.6549344678824674526 $353 $443 forward 7 unknown #
coedge $-1 $444 $354 $441 $445 forward $386 $-1 #
coedge $-1 $354 $444 $356 $405 reversed $386 $-1 #
vertex $-1 $355 $446 #
ellipse-curve $-1 26.47165439788991748 -20.85339522026270132 9.651999999999999247 0 0 -1 -9.662019289220063811 12.5960711436042363 0 1 I I #
coedge $-1 $382 $356 $447 $448 reversed $343 $-1 #
edge $-1 $357 6.729128456609682347e-30 $449 0.06000000000000003941 $356 $450 forward 7 unknown #
point $-1 16.80963510866985189 -8.257324076658465017 9.651999999999999247 #
face $-1 $451 $452 $2 $-1 $453 reversed single #
loop $-1 $-1 $454 $359 #
cone-surface $-1 -109.0156732260014962 0 0 1 0 0 0 -4.413250000000000561 0 1 I I 0 1 4.413250000000000561 forward I I I I #
coedge $-1 $455 $456 $363 $412 forward $360 $-1 #
coedge $-1 $363 $363 $457 $458 forward $315 $-1 #
edge $-1 $459 0 $460 3.141592653589793116 $363 $461 forward 7 unknown #
coedge $-1 $366 $366 $368 $417 forward $362 $-1 #
vertex $-1 $370 $462 #
vertex $-1 $369 $463 #
ellipse-curve $-1 -35.93828572600148163 0 0 1 0 0 0 9.493249999999999744 0 1 I I #
edge $-1 $414 -1.224606353822377258e-16 $415 3.141592653589793116 $413 $464 forward 7 unknown #
straight-curve $-1 -30.85828572600149045 -9.493249999999999744 -2.325098853684856521e-15 -25.39999999999999858 0 0 I I #
straight-curve $-1 -30.85828572600149045 9.493249999999999744 1.162549426842428261e-15 -25.39999999999999858 0 0 I I #
point $-1 4.776887636119203862 7.867290935094867876 -18.92299999999999827 #
point $-1 -4.748112363880795606 7.867290935094867876 -18.92299999999999827 #
ellipse-curve $-1 0.01438763611920387125 7.867290935094867876 -18.92299999999999827 0 0 -1 4.762499999999999289 0 0 1 I I #
point $-1 19.76559010711106978 14.6239316252851328 9.651999999999999247 #
face $-1 $465 $466 $2 $-1 $467 forward single #
loop $-1 $-1 $440 $385 #
plane-surface $-1 26.32342237609002922 -4.979087289908289193 9.651999999999999247 0.009337450192118595949 -0.9999564050616955857 0 25.3988926885670665 0.2371712348798123149 0 forward_v I I I I #
coedge $-1 $447 $468 $388 $428 forward $469 $-1 #
edge $-1 $470 -1.691663528624533217e-16 $429 0.6449966636320861868 $427 $471 forward 7 unknown #
vertex $-1 $448 $472 #
straight-curve $-1 19.76559010711094189 14.62393162528528023 9.651999999999999247 -4.699944137579829144e-14 -9.399888275159658288e-14 25.39999999999999858 I I #
coedge $-1 $473 $474 $391 $432 forward $466 $-1 #
edge $-1 $442 -1.382399578009704643e-16 $436 2.865967113964551949 $391 $475 forward 7 unknown #
coedge $-1 $476 $392 $394 $438 forward $435 $-1 #
coedge $-1 $392 $476 $473 $477 reversed $435 $-1 #
loop $-1 $-1 $433 $465 #
vertex $-1 $432 $478 #
straight-curve $-1 44.18294187877674517 4.657938543909493134 9.651999999999999247 -24.50476108672103237 6.684061944859763571 0 I I #
edge $-1 $395 0 $470 0.06000000000000003941 $433 $479 forward 7 unknown #
point $-1 28.13392921585814932 9.035561097059661151 9.651999999999999247 #
coedge $-1 $480 $398 $474 $481 forward $425 $-1 #
coedge $-1 $398 $480 $400 $445 reversed $425 $-1 #
vertex $-1 $399 $482 #
straight-curve $-1 26.3234223760900008 -4.979087289908289193 9.651999999999999247 25.3988926885670665 0.2371712348798118153 0 I I #
coedge $-1 $401 $400 $483 $484 reversed $386 $-1 #
edge $-1 $402 1.941094747098946427e-31 $485 0.06000000000000003941 $400 $486 forward 7 unknown #
point $-1 26.3234223760900008 -4.979087289908289193 9.651999999999999247 #
coedge $-1 $483 $427 $404 $448 forward $469 $-1 #
edge $-1 $429 -2.146866266745611032e-16 $449 4.707211520479189559 $447 $487 forward 7 unknown #
vertex $-1 $448 $488 #
straight-curve $-1 16.80963510866983057 -8.257324076658479228 9.651999999999999247 1.409983241273948806e-13 9.399888275159658288e-14 25.39999999999999858 I I #
face $-1 $489 $490 $2 $-1 $491 forward single #
loop $-1 $492 $493 $407 #
plane-surface $-1 -57.02028572600148237 0 0 1 0 0 0 -25.39999999999999858 0 forward_v I I I I #
coedge $-1 $494 $495 $496 $497 forward $408 $-1 #
coedge $-1 $498 $410 $494 $499 forward $360 $-1 #
coedge $-1 $410 $498 $495 $500 reversed $360 $-1 #
coedge $-1 $495 $494 $411 $458 reversed $408 $-1 #
edge $-1 $459 4.050264391503595212e-32 $460 3.141592653589792672 $411 $501 forward 7 unknown #
vertex $-1 $458 $502 #
vertex $-1 $458 $503 #
ellipse-curve $-1 -35.93828572600148163 -1.762479051592435909e-16 0 -1 -2.555909121439209188e-15 -3.129982549907025277e-31 -1.127986593019158982e-14 4.413250000000000561 5.40449399100660649e-16 1 I I #
point $-1 -35.93828572600149585 9.493249999999999744 1.162549426842428261e-15 #
point $-1 -35.93828572600148163 -9.493249999999999744 0 #
ellipse-curve $-1 -35.93828572600148163 0 0 -1 0 0 0 9.493249999999999744 0 1 I I #
face $-1 $504 $435 $2 $-1 $505 forward single #
loop $-1 $-1 $473 $424 #
cone-surface $-1 42.91297010925340771 0.002033937432489829524 9.651999999999999247 0 0 1 4.825999999999999623 0 0 1 I I 0 1 4.825999999999999623 forward I I I I #
coedge $-1 $427 $506 $476 $507 forward $469 $-1 #
loop $-1 $508 $483 $504 #
vertex $-1 $428 $509 #
ellipse-curve $-1 32.31146793139587459 24.35103677626103647 11.17600000000000016 0 0 -1 -4.177538715537727931 -15.31547567920137354 0 1 I I #
point $-1 19.76559010711057951 14.62393162528565682 11.17600000000000016 #
coedge $-1 $510 $431 $434 $477 forward $466 $-1 #
coedge $-1 $431 $510 $440 $481 reversed $466 $-1 #
ellipse-curve $-1 42.91297010925340771 0.002033937432489829524 9.651999999999999247 0 0 1 0.0450625346271642524 -4.825789610827741605 0 1 I I #
coedge $-1 $434 $433 $468 $507 reversed $435 $-1 #
edge $-1 $436 1.941094747098946427e-31 $511 0.06000000000000003941 $473 $512 forward 7 unknown #
point $-1 44.18294187877674517 4.657938543909492246 9.651999999999999247 #
straight-curve $-1 28.13392921585814932 9.035561097059661151 9.651999999999999247 0 0 25.39999999999999858 I I #
coedge $-1 $441 $440 $513 $514 reversed $425 $-1 #
edge $-1 $442 0 $515 0.06000000000000003941 $440 $516 forward 7 unknown #
point $-1 42.9580326438805713 -4.823755673395251797 9.651999999999999247 #
coedge $-1 $513 $447 $444 $484 forward $469 $-1 #
edge $-1 $449 -5.638878428749154855e-17 $485 0.644996663632082079 $483 $517 forward 7 unknown #
vertex $-1 $514 $518 #
straight-curve $-1 26.32342237609002922 -4.979087289908286529 9.651999999999999247 0 -4.699944137579829144e-14 25.39999999999999858 I I #
ellipse-curve $-1 6.906065337219254197 4.653648845535818701 11.17600000000000016 0 0 1 12.85952476989132442 9.970282779749839008 0 1 I I #
point $-1 16.8096351086700011 -8.257324076658374423 11.17600000000000016 #
face $-1 $519 $520 $2 $-1 $521 forward single #
loop $-1 $-1 $522 $451 #
cone-surface $-1 -109.0156732260014962 0 0 1 0 0 0 -2.381249999999999645 0 1 I I 0 1 2.381249999999999645 forward I I I I #
loop $-1 $-1 $496 $407 #
coedge $-1 $523 $523 $522 $524 reversed $452 $-1 #
coedge $-1 $457 $454 $455 $499 reversed $408 $-1 #
coedge $-1 $454 $457 $456 $500 forward $408 $-1 #
coedge $-1 $525 $525 $454 $497 reversed $492 $-1 #
edge $-1 $526 1.224606353822377012e-16 $527 3.141592653589793116 $454 $528 forward 7 unknown #
coedge $-1 $456 $455 $525 $529 reversed $360 $-1 #
edge $-1 $460 0 $527 0.8299999999999995159 $494 $530 forward 7 unknown #
edge $-1 $459 0 $526 0.8300000000000000711 $495 $531 forward 7 unknown #
ellipse-curve $-1 -35.93828572600148163 -3.524958103184871819e-16 -8.81239525796218004e-16 1 2.555909121439209188e-15 8.233632110107142184e-31 -1.127986593019158982e-14 4.413250000000000561 1.421688924896878554e-15 1 I I #
point $-1 -35.93828572600149585 4.413250000000000561 5.40449399100660649e-16 #
point $-1 -35.93828572600149585 -4.413250000000000561 0 #
face $-1 $532 $469 $2 $-1 $533 forward single #
plane-surface $-1 44.18294187877675938 4.657938543909487805 9.651999999999999247 0.2631520450732190985 0.9647543734929542314 0 -24.50476108672103237 6.684061944859763571 0 forward_v I I I I #
coedge $-1 $468 $513 $510 $534 forward $469 $-1 #
edge $-1 $511 -5.94974017431812292e-16 $470 0.6549344678824657873 $468 $535 forward 7 unknown #
loop $-1 $-1 $536 $504 #
point $-1 28.13392921585814932 9.035561097059661151 11.17600000000000016 #
coedge $-1 $474 $473 $506 $534 reversed $466 $-1 #
vertex $-1 $507 $537 #
straight-curve $-1 44.18294187877675938 4.657938543909486917 9.651999999999999247 0 2.349972068789914572e-14 25.39999999999999858 I I #
coedge $-1 $506 $483 $480 $514 forward $469 $-1 #
edge $-1 $485 1.11891615699743619e-15 $515 0.6549344678824674526 $513 $538 forward 7 unknown #
vertex $-1 $534 $539 #
straight-curve $-1 42.95803264388057841 -4.823755673395251797 9.651999999999999247 0 0 25.39999999999999858 I I #
ellipse-curve $-1 26.4716543978898784 -20.85339522026250592 11.17600000000000016 0 0 -1 -9.662019289219875517 12.59607114360412972 0 1 I I #
point $-1 26.32342237609002922 -4.979087289908289193 11.17600000000000016 #
face $-1 $167 $540 $2 $-1 $541 reversed single #
loop $-1 $-1 $542 $489 #
cone-surface $-1 -109.0156732260014962 0 0 1 0 0 0 -2.381249999999999645 0 1 I I 0 1 2.381249999999999645 forward I I I I #
coedge $-1 $543 $544 $493 $524 forward $490 $-1 #
coedge $-1 $493 $493 $545 $546 forward $452 $-1 #
edge $-1 $547 0 $548 3.141592653589793116 $493 $549 forward 7 unknown #
coedge $-1 $496 $496 $498 $529 forward $492 $-1 #
vertex $-1 $500 $550 #
vertex $-1 $499 $551 #
ellipse-curve $-1 -57.02028572600148237 -1.762479051592435909e-16 1.762479051592435909e-16 1 0 0 0 4.413250000000000561 -1.762479051592435909e-16 1 I I #
edge $-1 $526 -1.224606353822377012e-16 $527 3.141592653589793116 $525 $552 forward 7 unknown #
straight-curve $-1 -35.93828572600149585 -4.413250000000000561 -1.080898798201321298e-15 -25.39999999999999858 0 0 I I #
straight-curve $-1 -35.93828572600149585 4.413250000000000561 5.40449399100660649e-16 -25.39999999999999858 0 0 I I #
face $-1 $553 $554 $2 $-1 $555 forward single #
plane-surface $-1 0.01438763611920395452 7.867290935094867876 11.17600000000000016 0 0 1 25.39999999999999858 0 0 forward_v I I I I #
edge $-1 $515 -1.406234053492630466e-16 $511 2.86596711396454884 $506 $556 forward 7 unknown #
straight-curve $-1 44.18294187877674517 4.657938543909493134 11.17600000000000016 -24.50476108672103237 6.684061944859763571 0 I I #
coedge $-1 $557 $557 $558 $559 reversed $508 $-1 #
point $-1 44.18294187877675938 4.657938543909487805 11.17600000000000016 #
straight-curve $-1 26.3234223760900008 -4.979087289908289193 11.17600000000000016 25.3988926885670665 0.2371712348798118153 0 I I #
point $-1 42.9580326438805713 -4.823755673395252686 11.17600000000000016 #
loop $-1 $-1 $560 $519 #
plane-surface $-1 -101.4702857260014781 0 0 1 0 0 0 -25.39999999999999858 0 forward_v I I I I #
coedge $-1 $561 $562 $560 $563 forward $520 $-1 #
coedge $-1 $564 $522 $561 $565 forward $490 $-1 #
coedge $-1 $522 $564 $562 $566 reversed $490 $-1 #
coedge $-1 $562 $561 $523 $546 reversed $520 $-1 #
edge $-1 $547 0 $548 3.141592653589793116 $523 $567 forward 7 unknown #
vertex $-1 $546 $568 #
vertex $-1 $546 $569 #
ellipse-curve $-1 -57.02028572600148237 -8.812395257962179547e-17 -8.812395257962179547e-17 -1 -4.736951571734000976e-15 -7.553925226318824971e-31 -1.127986593019158982e-14 2.381249999999999645 3.79733340583575385e-16 1 I I #
point $-1 -57.02028572600149658 4.413250000000000561 5.40449399100660649e-16 #
point $-1 -57.02028572600148237 -4.413250000000000561 0 #
ellipse-curve $-1 -57.02028572600148237 -1.762479051592435909e-16 -1.762479051592435909e-16 -1 0 0 0 4.413250000000000561 1.762479051592435909e-16 1 I I #
face $-1 $570 $571 $2 $-1 $572 forward single #
loop $-1 $-1 $573 $532 #
cone-surface $-1 0.01438763611920395452 7.867290935094867876 -20.82799999999999585 0 0 1 -4.365624999999999645 0 0 1 I I 0 1 4.365624999999999645 forward I I I I #
ellipse-curve $-1 42.91297010925340771 0.002033937432489829524 11.17600000000000016 0 0 1 0.0450625346271642524 -4.825789610827741605 0 1 I I #
coedge $-1 $536 $536 $574 $575 reversed $508 $-1 #
coedge $-1 $573 $576 $536 $559 forward $554 $-1 #
edge $-1 $577 0 $578 3.141592653589793116 $558 $579 forward 7 unknown #
coedge $-1 $580 $580 $542 $563 reversed $540 $-1 #
coedge $-1 $545 $542 $543 $565 reversed $520 $-1 #
coedge $-1 $542 $545 $544 $566 forward $520 $-1 #
edge $-1 $581 0 $582 3.141592653589793116 $542 $583 forward 7 unknown #
coedge $-1 $544 $543 $580 $584 reversed $490 $-1 #
edge $-1 $548 0 $582 1.749999999999999334 $561 $585 forward 7 unknown #
edge $-1 $547 0 $581 1.749999999999999334 $562 $586 forward 7 unknown #
ellipse-curve $-1 -57.02028572600148237 0 8.812395257962179547e-17 1 4.736951571734000976e-15 4.047876758669883808e-31 -1.127986593019158982e-14 2.381249999999999645 2.034854354243317694e-16 1 I I #
point $-1 -57.02028572600149658 2.381249999999999645 2.916093880039535649e-16 #
point $-1 -57.02028572600149658 -2.381249999999999645 0 #
face $-1 $283 $587 $2 $-1 $588 forward single #
loop $-1 $-1 $589 $553 #
cone-surface $-1 0.01438763611920395452 7.867290935094867876 -20.82799999999999585 0 0 1 -4.365624999999999645 0 0 1 I I 0 1 4.365624999999999645 forward I I I I #
coedge $-1 $590 $558 $591 $592 reversed $554 $-1 #
coedge $-1 $589 $591 $557 $575 forward $571 $-1 #
edge $-1 $578 0 $577 3.141592653589793116 $574 $593 forward 7 unknown #
coedge $-1 $558 $590 $589 $594 forward $554 $-1 #
vertex $-1 $575 $595 #
vertex $-1 $575 $596 #
ellipse-curve $-1 0.01438763611920387125 7.867290935094867876 11.17600000000000016 0 0 1 -4.365624999999999645 0 0 1 I I #
coedge $-1 $560 $560 $564 $584 forward $540 $-1 #
vertex $-1 $566 $597 #
vertex $-1 $565 $598 #
ellipse-curve $-1 -101.4702857260014781 0 0 1 0 0 0 2.381249999999999645 0 1 I I #
edge $-1 $581 0 $582 3.141592653589793116 $580 $599 forward 7 unknown #
straight-curve $-1 -57.02028572600149658 -2.381249999999999645 -5.832187760079071298e-16 -25.39999999999999858 0 0 I I #
straight-curve $-1 -57.02028572600149658 2.381249999999999645 2.916093880039535649e-16 -25.39999999999999858 0 0 I I #
loop $-1 $-1 $600 $570 #
plane-surface $-1 0.01438763611920395452 7.867290935094867876 19.1769999999999996 0 0 1 -25.39999999999999858 0 0 forward_v I I I I #
coedge $-1 $601 $574 $576 $594 reversed $571 $-1 #
coedge $-1 $576 $573 $600 $602 forward $554 $-1 #
coedge $-1 $574 $601 $573 $592 forward $571 $-1 #
edge $-1 $603 0 $578 0.3150000000000000022 $591 $604 forward 7 unknown #
ellipse-curve $-1 0.01438763611920387125 7.867290935094867876 11.17600000000000016 0 0 1 4.365624999999999645 0 0 1 I I #
edge $-1 $605 0 $577 0.3150000000000000022 $589 $606 forward 7 unknown #
point $-1 -4.351237363880795961 7.867290935094867876 11.17600000000000016 #
point $-1 4.380012636119203329 7.867290935094867876 11.17600000000000016 #
point $-1 -101.4702857260014781 2.381249999999999645 0 #
point $-1 -101.4702857260014781 -2.381249999999999645 0 #
ellipse-curve $-1 -101.4702857260014781 0 0 -1 0 0 0 2.381249999999999645 0 1 I I #
coedge $-1 $607 $607 $590 $602 reversed $587 $-1 #
coedge $-1 $591 $589 $607 $608 reversed $571 $-1 #
edge $-1 $603 0 $605 3.141592653589793116 $600 $609 forward 7 unknown #
vertex $-1 $608 $610 #
straight-curve $-1 4.380012636119203329 7.867290935094867876 19.1769999999999996 0 0 -25.39999999999999858 I I #
vertex $-1 $608 $611 #
straight-curve $-1 -4.351237363880795961 7.8672909350948661 19.1769999999999996 0 0 -25.39999999999999858 I I #
coedge $-1 $600 $600 $601 $608 forward $587 $-1 #
edge $-1 $603 0 $605 3.141592653589793116 $607 $612 forward 7 unknown #
ellipse-curve $-1 0.0143876361192040482 7.867290935094867876 19.1769999999999996 0 0 -1 4.365624999999999645 0 0 1 I I #
point $-1 4.380012636119203329 7.867290935094867876 19.1769999999999996 #
point $-1 -4.351237363880795961 7.867290935094867876 19.1769999999999996 #
ellipse-curve $-1 0.01438763611920369605 7.867290935094867876 19.1769999999999996 0 0 1 4.365624999999999645 0 0 1 I I #
End-of-ACIS-data 