600 0 1 0           
107 GICL ACIS Healer - Source: /gicl/data5/repository/Parasolid/NIST/Tom_Kramer/clevis2/clevis21.step.sat - 6 0 18 ACIS 6.0.3 Solaris 24 Sun Apr 14 00:33:37 2002 
1 9.999999999999999547e-07 1.000000000000000036e-10 
body $-1 $1 $-1 $-1 #
lump $-1 $-1 $2 $0 #
shell $-1 $-1 $-1 $3 $-1 $1 #
face $-1 $4 $5 $2 $-1 $6 reversed single #
face $-1 $7 $8 $2 $-1 $9 reversed single #
loop $-1 $-1 $10 $3 #
plane-surface $-1 6249.999999999993634 759.0645988504101069 1299.999999999999318 0 1 -6.123031769111889989e-17 0 1.555250069354420065e-15 25.39999999999999858 forward_v I I I I #
face $-1 $11 $12 $2 $-1 $13 reversed single #
loop $-1 $14 $15 $4 #
cone-surface $-1 6249.999999999993634 759.0645988504101069 1299.999999999999318 0 -1 6.123031769111889989e-17 0 -6.12303176911189203e-20 -0.001000000000000000454 1 I I 0.857164986989643829 0.5150419255546520025 0.001000000000000000454 forward I I I I #
coedge $-1 $10 $10 $16 $17 forward $5 $-1 #
face $-1 $18 $19 $2 $-1 $20 reversed single #
loop $-1 $21 $22 $7 #
cone-surface $-1 6249.999999999993634 699.9999999999990905 1299.999999999999318 0 -1 6.123031769111889989e-17 0 -6.018940229036987695e-15 -98.29999999999998295 1 I I 0 1 98.29999999999998295 forward I I I I #
loop $-1 $-1 $16 $4 #
coedge $-1 $15 $15 $23 $24 forward $8 $-1 #
coedge $-1 $16 $16 $10 $17 reversed $14 $-1 #
edge $-1 $25 0 $25 6.283185307179586232 $10 $26 forward 7 unknown #
face $-1 $27 $28 $2 $-1 $29 reversed single #
loop $-1 $30 $31 $11 #
plane-surface $-1 6249.999999999993634 200.0000000000000853 1299.999999999999318 0 1 -6.123031769111889989e-17 0 1.555250069354420065e-15 25.39999999999999858 forward_v I I I I #
loop $-1 $-1 $23 $7 #
coedge $-1 $22 $22 $32 $33 forward $12 $-1 #
coedge $-1 $23 $23 $15 $24 reversed $21 $-1 #
edge $-1 $34 0 $34 6.283185307179586232 $15 $35 forward 7 unknown #
vertex $-1 $17 $36 #
ellipse-curve $-1 6249.999999999993634 759.0645988504101069 1299.999999999999318 0 -1 6.123031769111889989e-17 0 -6.12303176911189203e-20 -0.001000000000000000454 1 I I #
face $-1 $37 $38 $2 $-1 $39 reversed single #
loop $-1 $40 $41 $18 #
cone-surface $-1 6249.999999999993634 200.0000000000000853 1299.999999999999318 0 -1 6.123031769111889989e-17 0 -7.653789711389868908e-15 -125.0000000000001137 1 I I 0 1 125.0000000000001137 forward I I I I #
loop $-1 $-1 $32 $11 #
coedge $-1 $31 $31 $42 $43 forward $19 $-1 #
coedge $-1 $32 $32 $22 $33 reversed $30 $-1 #
edge $-1 $44 0 $44 6.283185307179586232 $22 $45 forward 7 unknown #
vertex $-1 $24 $46 #
ellipse-curve $-1 6249.999999999993634 699.9999999999990905 1299.999999999999318 0 -1 6.123031769111889989e-17 0 -6.018940229036987695e-15 -98.29999999999998295 1 I I #
point $-1 6249.999999999993634 759.0645988504101069 1299.999000000000478 #
face $-1 $47 $48 $2 $-1 $49 reversed single #
loop $-1 $-1 $50 $27 #
plane-surface $-1 3250.000000000005002 759.0645988504101069 1299.999999999999318 0 1 -6.123031769111889989e-17 0 1.555250069354420065e-15 25.39999999999999858 forward_v I I I I #
loop $-1 $-1 $42 $18 #
coedge $-1 $41 $41 $51 $52 forward $28 $-1 #
coedge $-1 $42 $42 $31 $43 reversed $40 $-1 #
edge $-1 $53 0 $53 6.283185307179586232 $31 $54 forward 7 unknown #
vertex $-1 $33 $55 #
ellipse-curve $-1 6249.999999999993634 200.0000000000000853 1299.999999999999318 0 -1 6.123031769111889989e-17 0 6.018940229036987695e-15 98.29999999999998295 1 I I #
point $-1 6249.999999999993634 699.9999999999990905 1201.699999999998909 #
face $-1 $56 $57 $2 $-1 $58 reversed single #
loop $-1 $59 $60 $37 #
cone-surface $-1 3250.000000000005002 759.0645988504101069 1299.999999999999318 0 -1 6.123031769111889989e-17 0 -6.12303176911189203e-20 -0.001000000000000000454 1 I I 0.857164986989643829 0.5150419255546520025 0.001000000000000000454 forward I I I I #
coedge $-1 $50 $50 $61 $62 forward $38 $-1 #
coedge $-1 $51 $51 $41 $52 reversed $63 $-1 #
edge $-1 $64 0 $64 6.283185307179586232 $41 $65 forward 7 unknown #
vertex $-1 $43 $66 #
ellipse-curve $-1 6249.999999999993634 200.0000000000000853 1299.999999999999318 0 -1 6.123031769111889989e-17 0 -7.653789711389868908e-15 -125.0000000000001137 1 I I #
point $-1 6249.999999999993634 200.0000000000000853 1398.299999999999727 #
face $-1 $67 $68 $2 $-1 $69 reversed single #
loop $-1 $70 $71 $47 #
cone-surface $-1 3250.000000000005002 699.9999999999990905 1299.999999999999318 0 -1 6.123031769111889989e-17 0 -6.018940229036987695e-15 -98.29999999999998295 1 I I 0 1 98.29999999999998295 forward I I I I #
loop $-1 $-1 $61 $37 #
coedge $-1 $60 $60 $72 $73 forward $48 $-1 #
coedge $-1 $61 $61 $50 $62 reversed $59 $-1 #
edge $-1 $74 0 $74 6.283185307179586232 $50 $75 forward 7 unknown #
loop $-1 $76 $51 $77 #
vertex $-1 $52 $78 #
ellipse-curve $-1 6249.999999999993634 7.959941299845453441e-14 1299.999999999999318 0 -1 0 0 0 -125.0000000000001137 1 I I #
point $-1 6249.999999999993634 200.0000000000000853 1174.999999999998863 #
face $-1 $79 $80 $2 $-1 $81 reversed single #
loop $-1 $82 $83 $56 #
plane-surface $-1 3250.000000000005002 200.0000000000000853 1299.999999999999318 0 1 -6.123031769111889989e-17 0 1.555250069354420065e-15 25.39999999999999858 forward_v I I I I #
loop $-1 $-1 $72 $47 #
coedge $-1 $71 $71 $84 $85 forward $57 $-1 #
coedge $-1 $72 $72 $60 $73 reversed $70 $-1 #
edge $-1 $86 0 $86 6.283185307179586232 $60 $87 forward 7 unknown #
vertex $-1 $62 $88 #
ellipse-curve $-1 3250.000000000005002 759.0645988504101069 1299.999999999999318 0 -1 6.123031769111889989e-17 0 -6.12303176911189203e-20 -0.001000000000000000454 1 I I #
loop $-1 $89 $90 $77 #
face $-1 $91 $63 $2 $-1 $92 forward single #
point $-1 6249.999999999993634 7.959941299845453441e-14 1174.999999999998863 #
face $-1 $93 $94 $2 $-1 $95 reversed single #
loop $-1 $96 $97 $67 #
cone-surface $-1 3250.000000000005002 200.0000000000000853 1299.999999999999318 0 -1 6.123031769111889989e-17 0 -7.653789711389868908e-15 -125.0000000000001137 1 I I 0 1 125.0000000000001137 forward I I I I #
loop $-1 $-1 $84 $56 #
coedge $-1 $83 $83 $98 $99 forward $68 $-1 #
coedge $-1 $84 $84 $71 $85 reversed $82 $-1 #
edge $-1 $100 0 $100 6.283185307179586232 $71 $101 forward 7 unknown #
vertex $-1 $73 $102 #
ellipse-curve $-1 3250.000000000005002 699.9999999999990905 1299.999999999999318 0 -1 6.123031769111889989e-17 0 -6.018940229036987695e-15 -98.29999999999998295 1 I I #
point $-1 3250.000000000005002 759.0645988504101069 1299.999000000000478 #
loop $-1 $103 $104 $77 #
coedge $-1 $90 $90 $97 $105 reversed $76 $-1 #
face $-1 $106 $107 $2 $-1 $108 reversed single #
plane-surface $-1 3250.000000000005002 0 0 0 -1 0 0 0 -25.39999999999999858 forward_v I I I I #
face $-1 $109 $110 $2 $-1 $111 reversed single #
loop $-1 $-1 $112 $79 #
plane-surface $-1 250 759.0645988504101069 1299.999999999999318 0 1 -6.123031769111889989e-17 0 1.555250069354420065e-15 25.39999999999999858 forward_v I I I I #
loop $-1 $-1 $98 $67 #
coedge $-1 $97 $97 $90 $105 forward $80 $-1 #
coedge $-1 $98 $98 $83 $99 reversed $96 $-1 #
edge $-1 $113 0 $113 6.283185307179586232 $83 $114 forward 7 unknown #
vertex $-1 $85 $115 #
ellipse-curve $-1 3250.000000000005002 200.0000000000000853 1299.999999999999318 0 -1 6.123031769111889989e-17 0 6.018940229036987695e-15 98.29999999999998295 1 I I #
point $-1 3250.000000000005002 699.9999999999990905 1201.699999999998909 #
loop $-1 $-1 $116 $77 #
coedge $-1 $104 $104 $117 $118 reversed $89 $-1 #
edge $-1 $119 0 $119 6.283185307179586232 $97 $120 forward 7 unknown #
face $-1 $121 $122 $2 $-1 $123 reversed single #
loop $-1 $-1 $124 $91 #
plane-surface $-1 3250.000000000005002 699.9999999999990905 10.00000000000000355 0 6.123031769111889989e-17 1 25.39999999999999858 0 0 forward_v I I I I #
face $-1 $125 $126 $2 $-1 $127 reversed single #
loop $-1 $128 $129 $93 #
cone-surface $-1 250 759.0645988504101069 1299.999999999999318 0 -1 6.123031769111889989e-17 0 -6.12303176911189203e-20 -0.001000000000000000454 1 I I 0.857164986989643829 0.5150419255546520025 0.001000000000000000454 forward I I I I #
coedge $-1 $112 $112 $130 $131 forward $94 $-1 #
vertex $-1 $99 $132 #
ellipse-curve $-1 3250.000000000005002 200.0000000000000853 1299.999999999999318 0 -1 6.123031769111889989e-17 0 -7.653789711389868908e-15 -125.0000000000001137 1 I I #
point $-1 3250.000000000005002 200.0000000000000853 1398.299999999999727 #
coedge $-1 $133 $134 $135 $136 forward $103 $-1 #
coedge $-1 $117 $117 $104 $118 forward $137 $-1 #
edge $-1 $138 0 $138 6.283185307179586232 $117 $139 forward 7 unknown #
vertex $-1 $105 $140 #
ellipse-curve $-1 3250.000000000005002 7.959941299845453441e-14 1299.999999999999318 0 -1 0 0 0 -125.0000000000001137 1 I I #
face $-1 $141 $142 $2 $-1 $143 reversed single #
loop $-1 $-1 $144 $106 #
plane-surface $-1 3250.000000000005002 699.9999999999990905 -490.0000000000007958 0 1 -6.123031769111889989e-17 0 1.555250069354420065e-15 25.39999999999999858 forward_v I I I I #
coedge $-1 $145 $146 $147 $148 reversed $107 $-1 #
face $-1 $149 $150 $2 $-1 $151 reversed single #
loop $-1 $152 $153 $109 #
cone-surface $-1 250 699.9999999999990905 1299.999999999999318 0 -1 6.123031769111889989e-17 0 -6.018940229036987695e-15 -98.29999999999998295 1 I I 0 1 98.29999999999998295 forward I I I I #
loop $-1 $-1 $130 $93 #
coedge $-1 $129 $129 $154 $155 forward $110 $-1 #
coedge $-1 $130 $130 $112 $131 reversed $128 $-1 #
edge $-1 $156 0 $156 6.283185307179586232 $112 $157 forward 7 unknown #
point $-1 3250.000000000005002 200.0000000000000853 1174.999999999998863 #
coedge $-1 $158 $116 $159 $160 forward $103 $-1 #
coedge $-1 $116 $158 $161 $162 forward $103 $-1 #
coedge $-1 $163 $164 $116 $136 reversed $165 $-1 #
edge $-1 $166 -125.9842519685041395 $167 125.984251968503969 $135 $168 forward 7 unknown #
loop $-1 $169 $117 $149 #
vertex $-1 $118 $170 #
ellipse-curve $-1 250 7.959941299845453441e-14 1299.999999999999318 0 -1 0 0 0 -125.0000000000001137 1 I I #
point $-1 3250.000000000005002 7.959941299845453441e-14 1174.999999999998863 #
face $-1 $171 $172 $2 $-1 $173 reversed single #
loop $-1 $-1 $174 $121 #
plane-surface $-1 3250.000000000005002 699.9999999999990905 1990.000000000000455 0 1 -6.123031769111889989e-17 0 1.555250069354420065e-15 25.39999999999999858 forward_v I I I I #
coedge $-1 $175 $176 $177 $178 forward $122 $-1 #
coedge $-1 $177 $124 $179 $180 reversed $107 $-1 #
coedge $-1 $124 $177 $181 $182 reversed $107 $-1 #
coedge $-1 $183 $184 $124 $148 forward $185 $-1 #
edge $-1 $186 -125.9842519685041395 $187 125.984251968503969 $124 $188 forward 7 unknown #
face $-1 $189 $137 $2 $-1 $190 reversed single #
loop $-1 $191 $192 $125 #
plane-surface $-1 250 200.0000000000000853 1299.999999999999318 0 1 -6.123031769111889989e-17 0 1.555250069354420065e-15 25.39999999999999858 forward_v I I I I #
loop $-1 $-1 $154 $109 #
coedge $-1 $153 $153 $193 $194 forward $126 $-1 #
coedge $-1 $154 $154 $129 $155 reversed $152 $-1 #
edge $-1 $195 0 $195 6.283185307179586232 $129 $196 forward 7 unknown #
vertex $-1 $131 $197 #
ellipse-curve $-1 250 759.0645988504101069 1299.999999999999318 0 -1 6.123031769111889989e-17 0 -6.12303176911189203e-20 -0.001000000000000000454 1 I I #
coedge $-1 $134 $133 $198 $199 forward $103 $-1 #
coedge $-1 $200 $201 $133 $160 reversed $202 $-1 #
edge $-1 $167 9.842519685039405886 $203 29.133858267716505 $133 $204 forward 7 unknown #
coedge $-1 $205 $206 $134 $162 reversed $207 $-1 #
edge $-1 $208 -29.133858267716505 $166 -9.842519685039405886 $134 $209 forward 7 unknown #
coedge $-1 $210 $135 $206 $211 reversed $165 $-1 #
coedge $-1 $135 $210 $200 $212 reversed $165 $-1 #
loop $-1 $-1 $135 $213 #
vertex $-1 $136 $214 #
vertex $-1 $136 $215 #
straight-curve $-1 3250.000000000005002 6.123031769111892602e-14 1000.000000000000568 25.39999999999999858 0 0 I I #
loop $-1 $-1 $216 $149 #
point $-1 250 7.959941299845453441e-14 1174.999999999998863 #
face $-1 $217 $202 $2 $-1 $218 reversed single #
loop $-1 $-1 $219 $141 #
plane-surface $-1 3250.000000000005002 699.9999999999990905 1489.999999999998863 0 -6.123031769111889989e-17 -1 -25.39999999999999858 0 0 forward_v I I I I #
coedge $-1 $220 $221 $222 $223 forward $142 $-1 #
coedge $-1 $224 $144 $225 $226 reversed $122 $-1 #
coedge $-1 $144 $224 $227 $228 reversed $122 $-1 #
coedge $-1 $146 $145 $144 $178 reversed $107 $-1 #
edge $-1 $229 -125.984251968503969 $230 125.9842519685041395 $177 $231 forward 7 unknown #
coedge $-1 $232 $225 $145 $180 forward $207 $-1 #
edge $-1 $230 51.18110236220481113 $186 78.7401574803150055 $145 $233 forward 7 unknown #
coedge $-1 $227 $234 $146 $182 forward $202 $-1 #
edge $-1 $187 -78.7401574803150055 $229 -51.18110236220481113 $146 $235 forward 7 unknown #
coedge $-1 $236 $147 $234 $237 forward $185 $-1 #
coedge $-1 $147 $236 $232 $238 forward $185 $-1 #
loop $-1 $-1 $236 $239 #
vertex $-1 $148 $240 #
vertex $-1 $148 $241 #
straight-curve $-1 3250.000000000005002 6.123031769111893194e-16 10.00000000000000355 25.39999999999999858 0 0 I I #
face $-1 $242 $243 $2 $-1 $244 reversed single #
cone-surface $-1 250 200.0000000000000853 1299.999999999999318 0 -1 6.123031769111889989e-17 0 -7.653789711389868908e-15 -125.0000000000001137 1 I I 0 1 125.0000000000001137 forward I I I I #
loop $-1 $-1 $193 $125 #
coedge $-1 $192 $192 $216 $245 forward $150 $-1 #
coedge $-1 $193 $193 $153 $194 reversed $191 $-1 #
edge $-1 $246 0 $246 6.283185307179586232 $153 $247 forward 7 unknown #
vertex $-1 $155 $248 #
ellipse-curve $-1 250 699.9999999999990905 1299.999999999999318 0 -1 6.123031769111889989e-17 0 -6.018940229036987695e-15 -98.29999999999998295 1 I I #
point $-1 250 759.0645988504101069 1299.999000000000478 #
coedge $-1 $249 $250 $158 $199 reversed $172 $-1 #
edge $-1 $203 -125.984251968503969 $208 125.9842519685041395 $158 $251 forward 7 unknown #
coedge $-1 $252 $159 $164 $212 forward $202 $-1 #
coedge $-1 $159 $253 $249 $254 forward $202 $-1 #
loop $-1 $-1 $159 $171 #
vertex $-1 $160 $255 #
straight-curve $-1 6450.000000000005457 4.592273826833926078e-14 749.9999999999996589 0 1.555250069354420065e-15 25.39999999999999858 I I #
coedge $-1 $256 $161 $250 $257 forward $207 $-1 #
coedge $-1 $161 $258 $163 $211 forward $207 $-1 #
loop $-1 $-1 $258 $259 #
vertex $-1 $199 $260 #
straight-curve $-1 49.99999999999990052 4.592273826833926078e-14 749.9999999999996589 0 -1.555250069354420065e-15 -25.39999999999999858 I I #
coedge $-1 $164 $163 $261 $262 reversed $165 $-1 #
edge $-1 $263 70.86614173228350921 $166 78.7401574803150055 $163 $264 forward 7 unknown #
edge $-1 $167 -78.7401574803150055 $265 -70.86614173228350921 $164 $266 forward 7 unknown #
face $-1 $267 $165 $2 $-1 $268 reversed single #
point $-1 49.99999999999990052 6.123031769111892602e-14 1000.000000000000568 #
point $-1 6450.000000000005457 6.123031769111892602e-14 1000.000000000000568 #
coedge $-1 $216 $216 $192 $245 reversed $169 $-1 #
face $-1 $269 $270 $2 $-1 $271 reversed single #
plane-surface $-1 6450.000000000005457 2000.000000000001137 749.9999999999996589 -1 0 0 0 0 25.39999999999999858 forward_v I I I I #
coedge $-1 $250 $249 $272 $273 reversed $172 $-1 #
coedge $-1 $272 $174 $256 $274 reversed $142 $-1 #
coedge $-1 $174 $272 $253 $275 reversed $142 $-1 #
coedge $-1 $276 $277 $174 $223 reversed $278 $-1 #
edge $-1 $279 -125.984251968503969 $280 125.9842519685041395 $174 $281 forward 7 unknown #
coedge $-1 $176 $175 $282 $283 forward $122 $-1 #
coedge $-1 $179 $284 $175 $226 forward $207 $-1 #
edge $-1 $285 -29.52755905511809686 $230 -29.13385826771652276 $175 $286 forward 7 unknown #
coedge $-1 $287 $181 $176 $228 forward $202 $-1 #
edge $-1 $229 29.13385826771652276 $288 29.52755905511809686 $176 $289 forward 7 unknown #
vertex $-1 $178 $290 #
vertex $-1 $180 $291 #
straight-curve $-1 3250.000000000005002 699.9999999999990905 10.00000000000000355 -25.39999999999999858 0 0 I I #
coedge $-1 $292 $179 $184 $238 reversed $207 $-1 #
straight-curve $-1 49.99999999999990052 2000.000000000001137 9.999999999999877431 0 -25.39999999999999858 1.555250069354420065e-15 I I #
coedge $-1 $181 $293 $183 $237 reversed $202 $-1 #
straight-curve $-1 6450.000000000005457 2000.000000000001137 9.999999999999877431 0 25.39999999999999858 -1.555250069354420065e-15 I I #
coedge $-1 $184 $183 $294 $295 forward $185 $-1 #
edge $-1 $187 -29.13385826771652276 $296 -9.842519685039397004 $234 $297 forward 7 unknown #
edge $-1 $298 9.842519685039397004 $186 29.13385826771652276 $232 $299 forward 7 unknown #
face $-1 $300 $301 $2 $-1 $302 forward single #
point $-1 49.99999999999990052 6.123031769111893194e-16 10.00000000000000355 #
point $-1 6450.000000000005457 6.123031769111893194e-16 10.00000000000000355 #
face $-1 $303 $304 $2 $-1 $305 reversed single #
loop $-1 $-1 $306 $189 #
plane-surface $-1 6249.999999999993634 759.0645988504101069 200.0000000000000853 0 1 -6.123031769111889989e-17 0 1.555250069354420065e-15 25.39999999999999858 forward_v I I I I #
edge $-1 $307 0 $307 6.283185307179586232 $192 $308 forward 7 unknown #
vertex $-1 $194 $309 #
ellipse-curve $-1 250 200.0000000000000853 1299.999999999999318 0 -1 6.123031769111889989e-17 0 6.018940229036987695e-15 98.29999999999998295 1 I I #
point $-1 250 699.9999999999990905 1201.699999999998909 #
coedge $-1 $219 $198 $201 $254 reversed $172 $-1 #
coedge $-1 $198 $219 $205 $257 reversed $172 $-1 #
straight-curve $-1 3250.000000000005002 9.12331733597671436e-14 1489.999999999998863 -25.39999999999999858 0 0 I I #
coedge $-1 $293 $200 $310 $311 forward $202 $-1 #
coedge $-1 $201 $312 $221 $275 forward $202 $-1 #
edge $-1 $313 51.18110236220481113 $203 78.7401574803150055 $249 $314 forward 7 unknown #
point $-1 6450.000000000005457 9.12331733597671436e-14 1489.999999999998863 #
coedge $-1 $315 $205 $220 $274 forward $207 $-1 #
edge $-1 $208 -78.7401574803150055 $316 -51.18110236220481113 $250 $317 forward 7 unknown #
coedge $-1 $206 $292 $318 $319 forward $207 $-1 #
face $-1 $320 $207 $2 $-1 $321 reversed single #
point $-1 49.99999999999990052 9.12331733597671436e-14 1489.999999999998863 #
coedge $-1 $318 $310 $210 $262 forward $322 $-1 #
edge $-1 $265 -125.984251968503969 $263 125.9842519685041395 $261 $323 forward 7 unknown #
vertex $-1 $262 $324 #
straight-curve $-1 49.99999999999990052 2000.000000000001137 1000.000000000000568 0 -25.39999999999999858 1.555250069354420065e-15 I I #
vertex $-1 $262 $325 #
straight-curve $-1 6450.000000000005457 2000.000000000001137 1000.000000000000568 0 25.39999999999999858 -1.555250069354420065e-15 I I #
face $-1 $77 $326 $2 $-1 $327 reversed single #
plane-surface $-1 3250.000000000005002 200.0000000000000853 1000.000000000000568 0 6.123031769111889989e-17 1 25.39999999999999858 0 0 forward_v I I I I #
face $-1 $259 $328 $2 $-1 $329 reversed single #
loop $-1 $-1 $330 $217 #
plane-surface $-1 6950.000000000011823 2000.000000000001137 749.9999999999996589 0 1 -6.123031769111889989e-17 0 1.555250069354420065e-15 25.39999999999999858 forward_v I I I I #
coedge $-1 $221 $220 $219 $273 forward $142 $-1 #
edge $-1 $316 -125.9842519685041395 $313 125.984251968503969 $272 $331 forward 7 unknown #
edge $-1 $316 29.133858267716505 $280 29.52755905511809686 $220 $332 forward 7 unknown #
edge $-1 $279 -29.52755905511809686 $313 -29.133858267716505 $221 $333 forward 7 unknown #
coedge $-1 $334 $222 $312 $335 reversed $278 $-1 #
coedge $-1 $222 $336 $315 $337 reversed $278 $-1 #
loop $-1 $-1 $222 $320 #
vertex $-1 $223 $338 #
vertex $-1 $223 $339 #
straight-curve $-1 3250.000000000005002 699.9999999999990905 1499.999999999999318 -25.39999999999999858 0 0 I I #
coedge $-1 $340 $341 $224 $283 reversed $342 $-1 #
edge $-1 $285 -125.9842519685041395 $288 125.984251968503969 $224 $343 forward 7 unknown #
coedge $-1 $225 $344 $340 $345 forward $207 $-1 #
vertex $-1 $226 $346 #
straight-curve $-1 49.99999999999990052 699.9999999999990905 749.9999999999996589 0 1.555250069354420065e-15 25.39999999999999858 I I #
coedge $-1 $347 $227 $341 $348 forward $202 $-1 #
vertex $-1 $283 $349 #
straight-curve $-1 6450.000000000005457 699.9999999999990905 749.9999999999996589 0 -1.555250069354420065e-15 -25.39999999999999858 I I #
point $-1 6450.000000000005457 699.9999999999990905 10.00000000000000355 #
point $-1 49.99999999999990052 699.9999999999990905 10.00000000000000355 #
coedge $-1 $258 $232 $350 $351 forward $207 $-1 #
coedge $-1 $234 $252 $352 $353 forward $202 $-1 #
coedge $-1 $352 $350 $236 $295 reversed $326 $-1 #
edge $-1 $296 -125.984251968503969 $298 125.9842519685041395 $294 $354 forward 7 unknown #
vertex $-1 $295 $355 #
straight-curve $-1 6450.000000000005457 4.592273826833926078e-14 749.9999999999996589 0 1.555250069354420065e-15 25.39999999999999858 I I #
vertex $-1 $351 $356 #
straight-curve $-1 49.99999999999990052 4.592273826833926078e-14 749.9999999999996589 0 -1.555250069354420065e-15 -25.39999999999999858 I I #
face $-1 $357 $358 $2 $-1 $359 forward single #
loop $-1 $360 $361 $239 #
plane-surface $-1 3250.000000000005002 0 0 0 -1 0 0 0 -25.39999999999999858 forward_v I I I I #
face $-1 $362 $363 $2 $-1 $364 reversed single #
loop $-1 $365 $366 $242 #
cone-surface $-1 6249.999999999993634 759.0645988504101069 200.0000000000000853 0 -1 6.123031769111889989e-17 0 -6.12303176911189203e-20 -0.001000000000000000454 1 I I 0.857164986989643829 0.5150419255546520025 0.001000000000000000454 forward I I I I #
coedge $-1 $306 $306 $367 $368 forward $243 $-1 #
vertex $-1 $245 $369 #
ellipse-curve $-1 250 200.0000000000000853 1299.999999999999318 0 -1 6.123031769111889989e-17 0 -7.653789711389868908e-15 -125.0000000000001137 1 I I #
point $-1 250 200.0000000000000853 1398.299999999999727 #
coedge $-1 $261 $370 $252 $311 reversed $322 $-1 #
edge $-1 $265 -9.842519685039405886 $371 9.842519685039397004 $310 $372 forward 7 unknown #
coedge $-1 $253 $347 $276 $335 forward $202 $-1 #
vertex $-1 $273 $373 #
straight-curve $-1 6450.000000000005457 2000.000000000001137 1489.999999999998863 0 -25.39999999999999858 1.555250069354420065e-15 I I #
coedge $-1 $344 $256 $277 $337 forward $207 $-1 #
vertex $-1 $274 $374 #
straight-curve $-1 49.99999999999990052 2000.000000000001137 1489.999999999998863 0 25.39999999999999858 -1.555250069354420065e-15 I I #
coedge $-1 $370 $261 $258 $319 reversed $322 $-1 #
edge $-1 $375 -9.842519685039397004 $263 9.842519685039405886 $318 $376 forward 7 unknown #
face $-1 $239 $278 $2 $-1 $377 forward single #
plane-surface $-1 49.99999999999990052 2000.000000000001137 749.9999999999996589 1 0 0 0 0 -25.39999999999999858 forward_v I I I I #
loop $-1 $-1 $261 $378 #
straight-curve $-1 3250.000000000005002 200.0000000000000853 1000.000000000000568 -25.39999999999999858 0 0 I I #
point $-1 49.99999999999990052 200.0000000000000853 1000.000000000000568 #
point $-1 6450.000000000005457 200.0000000000000853 1000.000000000000568 #
loop $-1 $-1 $379 $267 #
plane-surface $-1 3250.000000000005002 200.0000000000000853 499.9999999999989768 0 -6.123031769111889989e-17 -1 -25.39999999999999858 0 0 forward_v I I I I #
loop $-1 $-1 $380 $269 #
plane-surface $-1 -450.0000000000007958 2000.000000000001137 749.9999999999996589 0 1 -6.123031769111889989e-17 0 1.555250069354420065e-15 25.39999999999999858 forward_v I I I I #
coedge $-1 $381 $382 $334 $383 forward $270 $-1 #
straight-curve $-1 3250.000000000005002 699.9999999999990905 1489.999999999998863 25.39999999999999858 0 0 I I #
straight-curve $-1 49.99999999999990052 699.9999999999990905 749.9999999999996589 0 1.555250069354420065e-15 25.39999999999999858 I I #
straight-curve $-1 6450.000000000005457 699.9999999999990905 749.9999999999996589 0 -1.555250069354420065e-15 -25.39999999999999858 I I #
coedge $-1 $384 $276 $330 $383 reversed $278 $-1 #
edge $-1 $385 -19.68503937007881177 $279 31.49606299212599581 $312 $386 forward 7 unknown #
coedge $-1 $277 $387 $380 $388 reversed $278 $-1 #
edge $-1 $280 -31.49606299212599581 $389 19.68503937007881177 $315 $390 forward 7 unknown #
point $-1 6450.000000000005457 699.9999999999990905 1499.999999999999318 #
point $-1 49.99999999999990052 699.9999999999990905 1499.999999999999318 #
coedge $-1 $391 $282 $284 $345 reversed $342 $-1 #
coedge $-1 $282 $392 $287 $348 reversed $342 $-1 #
loop $-1 $-1 $282 $393 #
straight-curve $-1 3250.000000000005002 699.9999999999990905 0 25.39999999999999858 0 0 I I #
coedge $-1 $284 $315 $394 $395 reversed $207 $-1 #
edge $-1 $396 -19.68503937007881177 $285 31.49606299212599581 $284 $397 forward 7 unknown #
point $-1 49.99999999999990052 699.9999999999990905 0 #
coedge $-1 $312 $287 $381 $398 reversed $202 $-1 #
edge $-1 $288 -31.49606299212599581 $399 19.68503937007881177 $287 $400 forward 7 unknown #
point $-1 6450.000000000005457 699.9999999999990905 0 #
coedge $-1 $294 $379 $292 $351 reversed $326 $-1 #
edge $-1 $298 -78.7401574803150055 $375 -70.86614173228350921 $350 $401 forward 7 unknown #
coedge $-1 $379 $294 $293 $353 reversed $326 $-1 #
edge $-1 $371 70.86614173228350921 $296 78.7401574803150055 $352 $402 forward 7 unknown #
straight-curve $-1 3250.000000000005002 3.061515884555933679e-14 499.9999999999989768 -25.39999999999999858 0 0 I I #
point $-1 6450.000000000005457 3.061515884555933679e-14 499.9999999999989768 #
point $-1 49.99999999999990052 3.061515884555933679e-14 499.9999999999989768 #
face $-1 $393 $403 $2 $-1 $404 forward single #
loop $-1 $-1 $405 $300 #
plane-surface $-1 0 1499.999999999999318 0 -1 0 0 0 0 25.39999999999999858 forward_v I I I I #
loop $-1 $406 $407 $239 #
coedge $-1 $361 $361 $408 $409 reversed $301 $-1 #
face $-1 $410 $411 $2 $-1 $412 reversed single #
loop $-1 $413 $414 $303 #
cone-surface $-1 6249.999999999993634 699.9999999999990905 200.0000000000000853 0 -1 6.123031769111889989e-17 0 -6.018940229036987695e-15 -98.29999999999998295 1 I I 0 1 98.29999999999998295 forward I I I I #
loop $-1 $-1 $367 $242 #
coedge $-1 $366 $366 $415 $416 forward $304 $-1 #
coedge $-1 $367 $367 $306 $368 reversed $365 $-1 #
edge $-1 $417 0 $417 6.283185307179586232 $306 $418 forward 7 unknown #
point $-1 250 200.0000000000000853 1174.999999999998863 #
coedge $-1 $310 $318 $379 $419 forward $322 $-1 #
vertex $-1 $419 $420 #
straight-curve $-1 6450.000000000005457 200.0000000000000853 749.9999999999996589 0 -1.555250069354420065e-15 -25.39999999999999858 I I #
point $-1 6450.000000000005457 699.9999999999990905 1489.999999999998863 #
point $-1 49.99999999999990052 699.9999999999990905 1489.999999999998863 #
vertex $-1 $319 $421 #
straight-curve $-1 49.99999999999990052 200.0000000000000853 749.9999999999996589 0 1.555250069354420065e-15 25.39999999999999858 I I #
plane-surface $-1 3250.000000000005002 1499.999999999999318 1499.999999999999318 0 0 1 25.39999999999999858 0 0 forward_v I I I I #
face $-1 $213 $322 $2 $-1 $422 reversed single #
coedge $-1 $350 $352 $370 $419 reversed $326 $-1 #
coedge $-1 $423 $394 $336 $388 forward $328 $-1 #
coedge $-1 $424 $330 $347 $398 forward $270 $-1 #
coedge $-1 $330 $424 $425 $426 forward $270 $-1 #
edge $-1 $427 -127.9527559055120207 $385 -125.984251968503969 $330 $428 forward 7 unknown #
coedge $-1 $429 $334 $430 $431 reversed $278 $-1 #
vertex $-1 $398 $432 #
straight-curve $-1 6450.000000000005457 1499.999999999999318 1499.999999999999318 0 -25.39999999999999858 0 I I #
coedge $-1 $336 $429 $433 $434 reversed $278 $-1 #
edge $-1 $389 125.9842519685041395 $435 127.9527559055120207 $380 $436 forward 7 unknown #
vertex $-1 $388 $437 #
straight-curve $-1 49.99999999999990052 1499.999999999999318 1499.999999999999318 0 25.39999999999999858 0 I I #
coedge $-1 $438 $340 $439 $440 reversed $342 $-1 #
coedge $-1 $341 $441 $424 $442 reversed $342 $-1 #
face $-1 $443 $342 $2 $-1 $444 forward single #
coedge $-1 $380 $439 $344 $395 forward $328 $-1 #
edge $-1 $396 -29.52755905511809686 $389 29.52755905511809686 $394 $445 forward 7 unknown #
vertex $-1 $440 $446 #
straight-curve $-1 49.99999999999990052 1499.999999999999318 0 0 -25.39999999999999858 0 I I #
edge $-1 $385 -29.52755905511809686 $399 29.52755905511809686 $347 $447 forward 7 unknown #
vertex $-1 $348 $448 #
straight-curve $-1 6450.000000000005457 1499.999999999999318 0 0 25.39999999999999858 0 I I #
straight-curve $-1 49.99999999999990052 2000.000000000001137 499.9999999999989768 0 25.39999999999999858 -1.555250069354420065e-15 I I #
straight-curve $-1 6450.000000000005457 2000.000000000001137 499.9999999999989768 0 -25.39999999999999858 1.555250069354420065e-15 I I #
loop $-1 $-1 $449 $357 #
plane-surface $-1 3250.000000000005002 2999.999999999988631 0 0 1 0 0 0 25.39999999999999858 forward_v I I I I #
coedge $-1 $433 $450 $423 $451 reversed $358 $-1 #
loop $-1 $185 $452 $239 #
coedge $-1 $407 $407 $453 $454 reversed $360 $-1 #
coedge $-1 $408 $408 $361 $409 forward $455 $-1 #
edge $-1 $456 0 $456 6.283185307179586232 $408 $457 forward 7 unknown #
face $-1 $458 $455 $2 $-1 $459 reversed single #
loop $-1 $460 $461 $362 #
plane-surface $-1 6249.999999999993634 200.0000000000000853 200.0000000000000853 0 1 -6.123031769111889989e-17 0 1.555250069354420065e-15 25.39999999999999858 forward_v I I I I #
loop $-1 $-1 $415 $303 #
coedge $-1 $414 $414 $462 $463 forward $363 $-1 #
coedge $-1 $415 $415 $366 $416 reversed $413 $-1 #
edge $-1 $464 0 $464 6.283185307179586232 $366 $465 forward 7 unknown #
vertex $-1 $368 $466 #
ellipse-curve $-1 6249.999999999993634 759.0645988504101069 200.0000000000000853 0 -1 6.123031769111889989e-17 0 -6.12303176911189203e-20 -0.001000000000000000454 1 I I #
edge $-1 $375 -125.9842519685041395 $371 125.984251968503969 $370 $467 forward 7 unknown #
point $-1 6450.000000000005457 200.0000000000000853 499.9999999999989768 #
point $-1 49.99999999999990052 200.0000000000000853 499.9999999999989768 #
plane-surface $-1 3250.000000000005002 200.0000000000000853 749.9999999999996589 0 1 -6.123031769111889989e-17 0 1.555250069354420065e-15 25.39999999999999858 forward_v I I I I #
coedge $-1 $439 $380 $405 $451 forward $328 $-1 #
coedge $-1 $382 $381 $392 $442 forward $270 $-1 #
coedge $-1 $468 $430 $382 $426 reversed $469 $-1 #
edge $-1 $470 -3.615963643176310398e-15 $427 59.05511811023619373 $382 $471 forward 7 unknown #
vertex $-1 $383 $472 #
straight-curve $-1 3250.000000000005002 2000.000000000001137 1499.999999999999318 -25.39999999999999858 0 0 I I #
coedge $-1 $387 $384 $473 $474 reversed $278 $-1 #
coedge $-1 $425 $475 $384 $431 forward $469 $-1 #
edge $-1 $476 -59.05511811023580293 $427 -19.68503937007881177 $384 $477 forward 7 unknown #
point $-1 6450.000000000005457 2000.000000000001137 1499.999999999999318 #
coedge $-1 $478 $405 $387 $434 forward $358 $-1 #
edge $-1 $435 19.68503937007881177 $479 59.05511811023580293 $387 $480 forward 7 unknown #
vertex $-1 $388 $481 #
straight-curve $-1 3250.000000000005002 2000.000000000001137 1499.999999999999318 -25.39999999999999858 0 0 I I #
point $-1 49.99999999999990052 2000.000000000001137 1499.999999999999318 #
coedge $-1 $482 $391 $450 $483 reversed $342 $-1 #
coedge $-1 $394 $423 $391 $440 forward $328 $-1 #
edge $-1 $484 -127.9527559055120207 $396 -125.9842519685041395 $439 $485 forward 7 unknown #
coedge $-1 $392 $482 $468 $486 reversed $342 $-1 #
edge $-1 $399 125.984251968503969 $470 127.9527559055120207 $424 $487 forward 7 unknown #
face $-1 $-1 $469 $2 $-1 $488 forward single #
plane-surface $-1 3250.000000000005002 1499.999999999999318 0 0 0 -1 -25.39999999999999858 0 0 forward_v I I I I #
straight-curve $-1 49.99999999999990052 2000.000000000001137 749.9999999999996589 0 1.555250069354420065e-15 25.39999999999999858 I I #
point $-1 49.99999999999990052 2000.000000000001137 -5.719166459861043778e-15 #
straight-curve $-1 6450.000000000005457 2000.000000000001137 749.9999999999996589 0 -1.555250069354420065e-15 -25.39999999999999858 I I #
point $-1 6450.000000000005457 2000.000000000001137 -1.143833291972206231e-14 #
coedge $-1 $473 $489 $478 $490 forward $403 $-1 #
coedge $-1 $405 $478 $438 $483 forward $358 $-1 #
edge $-1 $435 -59.05511811023619373 $484 -1.20532121439209985e-15 $423 $491 forward 7 unknown #
coedge $-1 $452 $452 $492 $493 reversed $406 $-1 #
coedge $-1 $453 $453 $407 $454 forward $494 $-1 #
edge $-1 $495 0 $495 6.283185307179586232 $453 $496 forward 7 unknown #
loop $-1 $497 $408 $410 #
vertex $-1 $409 $498 #
ellipse-curve $-1 6249.999999999993634 1.224606353822376154e-14 200.0000000000000853 0 -1 0 0 0 -125.0000000000001137 1 I I #
face $-1 $499 $500 $2 $-1 $501 reversed single #
cone-surface $-1 6249.999999999993634 200.0000000000000853 200.0000000000000853 0 -1 6.123031769111889989e-17 0 -7.653789711389868908e-15 -125.0000000000001137 1 I I 0 1 125.0000000000001137 forward I I I I #
loop $-1 $-1 $462 $362 #
coedge $-1 $461 $461 $502 $503 forward $411 $-1 #
coedge $-1 $462 $462 $414 $463 reversed $460 $-1 #
edge $-1 $504 0 $504 6.283185307179586232 $414 $505 forward 7 unknown #
vertex $-1 $416 $506 #
ellipse-curve $-1 6249.999999999993634 699.9999999999990905 200.0000000000000853 0 -1 6.123031769111889989e-17 0 -6.018940229036987695e-15 -98.29999999999998295 1 I I #
point $-1 6249.999999999993634 759.0645988504101069 199.9990000000000805 #
straight-curve $-1 3250.000000000005002 200.0000000000000853 499.9999999999989768 25.39999999999999858 0 0 I I #
coedge $-1 $475 $425 $441 $486 forward $469 $-1 #
loop $-1 $-1 $425 $443 #
vertex $-1 $442 $507 #
straight-curve $-1 6500.000000000010004 2000.000000000001137 -3.061515884555933679e-14 0 1.555250069354420065e-15 25.39999999999999858 I I #
point $-1 6500.000000000010004 2000.000000000001137 1499.999999999999318 #
coedge $-1 $508 $449 $429 $474 forward $403 $-1 #
edge $-1 $479 -127.9527559055120207 $476 127.9527559055120207 $429 $509 forward 7 unknown #
coedge $-1 $430 $468 $508 $510 forward $469 $-1 #
vertex $-1 $431 $511 #
straight-curve $-1 6500.000000000010004 1499.999999999999318 1499.999999999999318 0 -25.39999999999999858 0 I I #
coedge $-1 $450 $433 $449 $490 reversed $358 $-1 #
vertex $-1 $474 $512 #
straight-curve $-1 0 1499.999999999999318 1499.999999999999318 0 25.39999999999999858 0 I I #
point $-1 0 2000.000000000001137 1499.999999999999318 #
coedge $-1 $441 $438 $489 $513 reversed $342 $-1 #
edge $-1 $514 -59.05511811023580293 $484 -19.68503937007881177 $450 $515 forward 7 unknown #
vertex $-1 $451 $516 #
straight-curve $-1 3250.000000000005002 2000.000000000001137 0 25.39999999999999858 0 0 I I #
edge $-1 $470 19.68503937007881177 $517 59.05511811023580293 $441 $518 forward 7 unknown #
straight-curve $-1 3250.000000000005002 2000.000000000001137 0 25.39999999999999858 0 0 I I #
plane-surface $-1 6500.000000000010004 1499.999999999999318 0 1 0 0 0 0 -25.39999999999999858 forward_v I I I I #
coedge $-1 $449 $508 $482 $513 forward $403 $-1 #
edge $-1 $514 0 $479 59.05511811023619373 $478 $519 forward 7 unknown #
straight-curve $-1 0 2000.000000000001137 -3.061515884555933679e-14 0 -1.555250069354420065e-15 -25.39999999999999858 I I #
coedge $-1 $492 $492 $452 $493 forward $520 $-1 #
edge $-1 $521 0 $521 6.283185307179586232 $492 $522 forward 7 unknown #
loop $-1 $523 $453 $524 #
vertex $-1 $454 $525 #
ellipse-curve $-1 3250.000000000005002 1.224606353822376154e-14 200.0000000000000853 0 -1 0 0 0 -125.0000000000001137 1 I I #
loop $-1 $-1 $502 $410 #
point $-1 6249.999999999993634 1.224606353822376154e-14 74.99999999999997158 #
face $-1 $526 $527 $2 $-1 $528 reversed single #
loop $-1 $-1 $529 $458 #
plane-surface $-1 3250.000000000005002 759.0645988504101069 200.0000000000000853 0 1 -6.123031769111889989e-17 0 1.555250069354420065e-15 25.39999999999999858 forward_v I I I I #
coedge $-1 $502 $502 $461 $503 reversed $497 $-1 #
edge $-1 $530 0 $530 6.283185307179586232 $461 $531 forward 7 unknown #
vertex $-1 $463 $532 #
ellipse-curve $-1 6249.999999999993634 200.0000000000000853 200.0000000000000853 0 -1 6.123031769111889989e-17 0 6.018940229036987695e-15 98.29999999999998295 1 I I #
point $-1 6249.999999999993634 699.9999999999990905 101.7000000000001023 #
point $-1 6500.000000000010004 2000.000000000001137 -1.224606353822375996e-13 #
coedge $-1 $489 $473 $475 $510 reversed $403 $-1 #
straight-curve $-1 3250.000000000005002 2999.999999999988631 1499.999999999999318 25.39999999999999858 0 0 I I #
edge $-1 $517 0 $476 59.05511811023619373 $508 $533 forward 7 unknown #
point $-1 6500.000000000010004 2999.999999999988631 1499.999999999999318 #
point $-1 0 2999.999999999988631 1499.999999999999318 #
edge $-1 $517 -127.9527559055120207 $514 127.9527559055120207 $489 $534 forward 7 unknown #
vertex $-1 $490 $535 #
straight-curve $-1 0 1499.999999999999318 0 0 -25.39999999999999858 0 I I #
point $-1 -4.163336342344342075e-14 2000.000000000001137 0 #
vertex $-1 $510 $536 #
straight-curve $-1 6500.000000000010004 1499.999999999999318 0 0 25.39999999999999858 0 I I #
straight-curve $-1 0 2999.999999999988631 0 0 0 25.39999999999999858 I I #
loop $-1 $537 $492 $538 #
vertex $-1 $493 $539 #
ellipse-curve $-1 250 1.224606353822376154e-14 200.0000000000000853 0 -1 0 0 0 -125.0000000000001137 1 I I #
loop $-1 $-1 $540 $524 #
face $-1 $541 $494 $2 $-1 $542 reversed single #
point $-1 3250.000000000005002 1.224606353822376154e-14 74.99999999999997158 #
face $-1 $543 $544 $2 $-1 $545 reversed single #
loop $-1 $546 $547 $499 #
cone-surface $-1 3250.000000000005002 759.0645988504101069 200.0000000000000853 0 -1 6.123031769111889989e-17 0 -6.12303176911189203e-20 -0.001000000000000000454 1 I I 0.857164986989643829 0.5150419255546520025 0.001000000000000000454 forward I I I I #
coedge $-1 $529 $529 $548 $549 forward $500 $-1 #
vertex $-1 $503 $550 #
ellipse-curve $-1 6249.999999999993634 200.0000000000000853 200.0000000000000853 0 -1 6.123031769111889989e-17 0 -7.653789711389868908e-15 -125.0000000000001137 1 I I #
point $-1 6249.999999999993634 200.0000000000000853 298.3000000000005798 #
straight-curve $-1 6500.000000000010004 2999.999999999988631 0 0 0 25.39999999999999858 I I #
straight-curve $-1 3250.000000000005002 2999.999999999988631 0 -25.39999999999999858 0 0 I I #
point $-1 0 2999.999999999988631 0 #
point $-1 6500.000000000010004 2999.999999999988631 0 #
loop $-1 $-1 $551 $538 #
face $-1 $378 $520 $2 $-1 $552 reversed single #
point $-1 250 1.224606353822376154e-14 74.99999999999997158 #
coedge $-1 $540 $540 $553 $554 reversed $523 $-1 #
face $-1 $555 $556 $2 $-1 $557 reversed single #
cone-surface $-1 3250.000000000005002 200.0000000000000853 200.0000000000000853 0 -1 6.123031769111889989e-17 0 -7.653789711389868908e-15 -125.0000000000001137 1 I I 0 1 125.0000000000001137 forward I I I I #
face $-1 $524 $558 $2 $-1 $559 reversed single #
loop $-1 $560 $561 $526 #
cone-surface $-1 3250.000000000005002 699.9999999999990905 200.0000000000000853 0 -1 6.123031769111889989e-17 0 -6.018940229036987695e-15 -98.29999999999998295 1 I I 0 1 98.29999999999998295 forward I I I I #
loop $-1 $-1 $548 $499 #
coedge $-1 $547 $547 $562 $563 forward $527 $-1 #
coedge $-1 $548 $548 $529 $549 reversed $546 $-1 #
edge $-1 $564 0 $564 6.283185307179586232 $529 $565 forward 7 unknown #
point $-1 6249.999999999993634 200.0000000000000853 74.99999999999997158 #
coedge $-1 $551 $551 $566 $567 reversed $537 $-1 #
cone-surface $-1 250 200.0000000000000853 200.0000000000000853 0 -1 6.123031769111889989e-17 0 -7.653789711389868908e-15 -125.0000000000001137 1 I I 0 1 125.0000000000001137 forward I I I I #
coedge $-1 $553 $553 $540 $554 forward $558 $-1 #
edge $-1 $568 0 $568 6.283185307179586232 $553 $569 forward 7 unknown #
face $-1 $570 $571 $2 $-1 $572 reversed single #
loop $-1 $-1 $573 $541 #
plane-surface $-1 250 759.0645988504101069 200.0000000000000853 0 1 -6.123031769111889989e-17 0 1.555250069354420065e-15 25.39999999999999858 forward_v I I I I #
loop $-1 $574 $553 $543 #
plane-surface $-1 3250.000000000005002 200.0000000000000853 200.0000000000000853 0 1 -6.123031769111889989e-17 0 1.555250069354420065e-15 25.39999999999999858 forward_v I I I I #
loop $-1 $-1 $562 $526 #
coedge $-1 $561 $561 $575 $576 forward $544 $-1 #
coedge $-1 $562 $562 $547 $563 reversed $560 $-1 #
edge $-1 $577 0 $577 6.283185307179586232 $547 $578 forward 7 unknown #
vertex $-1 $549 $579 #
ellipse-curve $-1 3250.000000000005002 759.0645988504101069 200.0000000000000853 0 -1 6.123031769111889989e-17 0 -6.12303176911189203e-20 -0.001000000000000000454 1 I I #
coedge $-1 $566 $566 $551 $567 forward $580 $-1 #
edge $-1 $581 0 $581 6.283185307179586232 $566 $582 forward 7 unknown #
vertex $-1 $554 $583 #
ellipse-curve $-1 3250.000000000005002 200.0000000000000853 200.0000000000000853 0 -1 6.123031769111889989e-17 0 -7.653789711389868908e-15 -125.0000000000001137 1 I I #
face $-1 $584 $585 $2 $-1 $586 reversed single #
loop $-1 $587 $588 $555 #
cone-surface $-1 250 759.0645988504101069 200.0000000000000853 0 -1 6.123031769111889989e-17 0 -6.12303176911189203e-20 -0.001000000000000000454 1 I I 0.857164986989643829 0.5150419255546520025 0.001000000000000000454 forward I I I I #
coedge $-1 $573 $573 $589 $590 forward $556 $-1 #
loop $-1 $-1 $575 $543 #
coedge $-1 $575 $575 $561 $576 reversed $574 $-1 #
edge $-1 $591 0 $591 6.283185307179586232 $561 $592 forward 7 unknown #
vertex $-1 $563 $593 #
ellipse-curve $-1 3250.000000000005002 699.9999999999990905 200.0000000000000853 0 -1 6.123031769111889989e-17 0 -6.018940229036987695e-15 -98.29999999999998295 1 I I #
point $-1 3250.000000000005002 759.0645988504101069 199.9990000000000805 #
loop $-1 $594 $566 $584 #
vertex $-1 $567 $595 #
ellipse-curve $-1 250 200.0000000000000853 200.0000000000000853 0 -1 6.123031769111889989e-17 0 -7.653789711389868908e-15 -125.0000000000001137 1 I I #
point $-1 3250.000000000005002 200.0000000000000853 74.99999999999997158 #
face $-1 $538 $580 $2 $-1 $596 reversed single #
loop $-1 $597 $598 $570 #
cone-surface $-1 250 699.9999999999990905 200.0000000000000853 0 -1 6.123031769111889989e-17 0 -6.018940229036987695e-15 -98.29999999999998295 1 I I 0 1 98.29999999999998295 forward I I I I #
loop $-1 $-1 $589 $555 #
coedge $-1 $588 $588 $599 $600 forward $571 $-1 #
coedge $-1 $589 $589 $573 $590 reversed $587 $-1 #
edge $-1 $601 0 $601 6.283185307179586232 $573 $602 forward 7 unknown #
vertex $-1 $576 $603 #
ellipse-curve $-1 3250.000000000005002 200.0000000000000853 200.0000000000000853 0 -1 6.123031769111889989e-17 0 6.018940229036987695e-15 98.29999999999998295 1 I I #
point $-1 3250.000000000005002 699.9999999999990905 101.7000000000001023 #
loop $-1 $-1 $604 $584 #
point $-1 250 200.0000000000000853 74.99999999999997158 #
plane-surface $-1 250 200.0000000000000853 200.0000000000000853 0 1 -6.123031769111889989e-17 0 1.555250069354420065e-15 25.39999999999999858 forward_v I I I I #
loop $-1 $-1 $599 $570 #
coedge $-1 $598 $598 $604 $605 forward $585 $-1 #
coedge $-1 $599 $599 $588 $600 reversed $597 $-1 #
edge $-1 $606 0 $606 6.283185307179586232 $588 $607 forward 7 unknown #
vertex $-1 $590 $608 #
ellipse-curve $-1 250 759.0645988504101069 200.0000000000000853 0 -1 6.123031769111889989e-17 0 -6.12303176911189203e-20 -0.001000000000000000454 1 I I #
point $-1 3250.000000000005002 200.0000000000000853 298.3000000000005798 #
coedge $-1 $604 $604 $598 $605 reversed $594 $-1 #
edge $-1 $609 0 $609 6.283185307179586232 $598 $610 forward 7 unknown #
vertex $-1 $600 $611 #
ellipse-curve $-1 250 699.9999999999990905 200.0000000000000853 0 -1 6.123031769111889989e-17 0 -6.018940229036987695e-15 -98.29999999999998295 1 I I #
point $-1 250 759.0645988504101069 199.9990000000000805 #
vertex $-1 $605 $612 #
ellipse-curve $-1 250 200.0000000000000853 200.0000000000000853 0 -1 6.123031769111889989e-17 0 6.018940229036987695e-15 98.29999999999998295 1 I I #
point $-1 250 699.9999999999990905 101.7000000000001023 #
point $-1 250 200.0000000000000853 298.3000000000005798 #
End-of-ACIS-data 