600 0 1 0           
107 GICL ACIS Healer - Source: /gicl/data5/repository/Parasolid/NIST/Tom_Kramer/clevis2/clevis23.step.sat - 6 0 18 ACIS 6.0.3 Solaris 24 Sun Apr 14 00:33:40 2002 
1 9.999999999999999547e-07 1.000000000000000036e-10 
body $-1 $1 $-1 $-1 #
lump $-1 $-1 $2 $0 #
shell $-1 $-1 $-1 $3 $-1 $1 #
face $-1 $4 $5 $2 $-1 $6 reversed single #
face $-1 $7 $8 $2 $-1 $9 reversed single #
loop $-1 $10 $11 $3 #
plane-surface $-1 5049.999999999992724 600.0000000000002274 499.9999999999989768 0 -6.123031769111889989e-17 1 25.39999999999999858 0 0 forward_v I I I I #
face $-1 $12 $13 $2 $-1 $14 reversed single #
loop $-1 $15 $16 $4 #
plane-surface $-1 1849.999999999999091 600.0000000000002274 400.0000000000001705 0 -6.123031769111889989e-17 1 25.39999999999999858 0 0 forward_v I I I I #
loop $-1 $17 $18 $3 #
coedge $-1 $11 $11 $19 $20 reversed $5 $-1 #
face $-1 $21 $22 $2 $-1 $23 reversed single #
loop $-1 $24 $25 $7 #
plane-surface $-1 1849.999999999999091 600.0000000000002274 1099.999999999999318 0 -1 0 0 0 -25.39999999999999858 forward_v I I I I #
loop $-1 $-1 $26 $4 #
coedge $-1 $27 $28 $29 $30 reversed $8 $-1 #
loop $-1 $-1 $31 $3 #
coedge $-1 $32 $33 $34 $35 forward $10 $-1 #
coedge $-1 $19 $19 $11 $20 forward $36 $-1 #
edge $-1 $37 0 $37 6.283185307179586232 $11 $38 forward 7 unknown #
face $-1 $39 $40 $2 $-1 $41 reversed single #
loop $-1 $42 $43 $12 #
cone-surface $-1 1849.999999999999091 1499.999999999999318 299.9999999999988631 0 0 1 499.9999999999989768 0 0 1 I I 0 1 499.9999999999989768 forward I I I I #
loop $-1 $44 $45 $7 #
coedge $-1 $46 $47 $48 $49 reversed $13 $-1 #
coedge $-1 $26 $26 $43 $50 reversed $15 $-1 #
coedge $-1 $51 $16 $52 $53 forward $8 $-1 #
coedge $-1 $16 $54 $55 $56 reversed $8 $-1 #
coedge $-1 $57 $58 $16 $30 forward $59 $-1 #
edge $-1 $60 1.968503937007910043 $61 21.65354330708660058 $16 $62 forward 7 unknown #
coedge $-1 $31 $31 $63 $64 reversed $17 $-1 #
coedge $-1 $65 $18 $66 $67 reversed $10 $-1 #
coedge $-1 $18 $68 $69 $70 reversed $10 $-1 #
coedge $-1 $71 $72 $18 $35 reversed $73 $-1 #
edge $-1 $74 -3.141592653589793116 $75 -1.570796326794896558 $18 $76 forward 7 unknown #
loop $-1 $77 $19 $39 #
vertex $-1 $20 $78 #
ellipse-curve $-1 4400.000000000001819 1600.000000000000682 499.9999999999989768 0 6.123031769111889989e-17 -1 0 -250 -1.530757942277972519e-14 1 I I #
face $-1 $79 $36 $2 $-1 $80 reversed single #
loop $-1 $81 $63 $21 #
cone-surface $-1 5250.000000000005457 1600.000000000000682 400.0000000000001705 0 0 1 250 0 0 1 I I 0 1 250 forward I I I I #
loop $-1 $-1 $82 $12 #
coedge $-1 $43 $43 $26 $50 forward $22 $-1 #
loop $-1 $83 $84 $7 #
coedge $-1 $85 $86 $54 $87 forward $24 $-1 #
coedge $-1 $88 $25 $89 $90 reversed $13 $-1 #
coedge $-1 $25 $88 $91 $92 reversed $13 $-1 #
coedge $-1 $93 $94 $25 $49 forward $95 $-1 #
edge $-1 $96 -29.13385826771652276 $97 29.133858267716505 $25 $98 forward 7 unknown #
edge $-1 $99 0 $99 6.283185307179586232 $26 $100 forward 7 unknown #
coedge $-1 $101 $27 $102 $103 reversed $8 $-1 #
coedge $-1 $104 $105 $27 $53 reversed $106 $-1 #
edge $-1 $60 1.570796326794896558 $107 4.712388980384689674 $27 $108 forward 7 unknown #
coedge $-1 $28 $101 $45 $87 reversed $8 $-1 #
coedge $-1 $109 $110 $28 $56 forward $111 $-1 #
edge $-1 $61 -1.570796326794896558 $112 0 $28 $113 forward 7 unknown #
coedge $-1 $114 $29 $110 $115 reversed $59 $-1 #
coedge $-1 $29 $114 $104 $116 reversed $59 $-1 #
loop $-1 $-1 $58 $117 #
vertex $-1 $30 $118 #
vertex $-1 $30 $119 #
straight-curve $-1 850.0000000000010232 1550.000000000000227 400.0000000000001705 0 -25.39999999999999858 -1.555250069354420065e-15 I I #
coedge $-1 $63 $63 $31 $64 forward $40 $-1 #
edge $-1 $120 0 $120 6.283185307179586232 $31 $121 forward 7 unknown #
coedge $-1 $122 $32 $123 $124 reversed $10 $-1 #
coedge $-1 $125 $126 $32 $67 forward $127 $-1 #
edge $-1 $128 -17.71653543307090217 $75 25.59055118110240912 $32 $129 forward 7 unknown #
coedge $-1 $33 $130 $131 $132 forward $10 $-1 #
coedge $-1 $133 $134 $33 $70 forward $135 $-1 #
edge $-1 $74 -23.62204724409498979 $136 41.33858267716497892 $33 $137 forward 7 unknown #
coedge $-1 $138 $34 $134 $139 forward $73 $-1 #
coedge $-1 $34 $138 $125 $140 forward $73 $-1 #
loop $-1 $-1 $34 $141 #
vertex $-1 $35 $142 #
vertex $-1 $35 $143 #
ellipse-curve $-1 5650.000000000005457 2000.000000000001137 499.9999999999989768 0 6.123031769111889989e-17 -1 0 -100.0000000000000426 -6.123031769111893391e-15 1 I I #
loop $-1 $-1 $144 $39 #
point $-1 4400.000000000001819 1350 499.9999999999989768 #
face $-1 $141 $145 $2 $-1 $146 forward single #
cone-surface $-1 4400.000000000001819 1600.000000000000682 400.0000000000001705 0 0 1 250 0 0 1 I I 0 1 250 forward I I I I #
loop $-1 $-1 $147 $21 #
coedge $-1 $82 $82 $148 $149 reversed $42 $-1 #
loop $-1 $150 $151 $7 #
coedge $-1 $84 $84 $152 $153 reversed $44 $-1 #
coedge $-1 $154 $45 $155 $156 reversed $24 $-1 #
coedge $-1 $45 $154 $109 $157 reversed $24 $-1 #
edge $-1 $112 -55.11811023622040295 $158 55.11811023622070849 $54 $159 forward 7 unknown #
coedge $-1 $47 $46 $160 $161 reversed $13 $-1 #
coedge $-1 $162 $163 $46 $90 forward $164 $-1 #
edge $-1 $165 -125.9842519685041395 $96 125.984251968503969 $46 $166 forward 7 unknown #
coedge $-1 $167 $168 $47 $92 forward $169 $-1 #
edge $-1 $97 -125.984251968503969 $170 125.9842519685041395 $47 $171 forward 7 unknown #
coedge $-1 $172 $48 $168 $173 forward $95 $-1 #
coedge $-1 $48 $174 $162 $175 forward $95 $-1 #
loop $-1 $-1 $94 $176 #
vertex $-1 $49 $177 #
vertex $-1 $49 $178 #
straight-curve $-1 6450.000000000005457 600.0000000000002274 749.9999999999996589 0 0 25.39999999999999858 I I #
vertex $-1 $50 $179 #
ellipse-curve $-1 1849.999999999999091 1499.999999999999318 400.0000000000001705 0 6.123031769111889989e-17 -1 0 -499.9999999999989768 -3.061515884555938728e-14 1 I I #
coedge $-1 $54 $51 $180 $181 reversed $8 $-1 #
coedge $-1 $182 $183 $51 $103 forward $184 $-1 #
edge $-1 $185 -21.65354330708660058 $107 -1.968503937007910043 $51 $186 forward 7 unknown #
coedge $-1 $187 $52 $58 $116 forward $106 $-1 #
coedge $-1 $52 $187 $182 $188 forward $106 $-1 #
loop $-1 $-1 $52 $189 #
vertex $-1 $53 $190 #
ellipse-curve $-1 1849.999999999999091 1499.999999999999318 400.0000000000001705 0 6.123031769111889989e-17 -1 0 -1000.000000000000568 -6.123031769111892602e-14 1 I I #
coedge $-1 $191 $55 $86 $157 forward $111 $-1 #
coedge $-1 $55 $191 $57 $115 forward $111 $-1 #
loop $-1 $-1 $110 $192 #
vertex $-1 $87 $193 #
ellipse-curve $-1 450.0000000000007958 1000.000000000000568 400.0000000000001705 0 6.123031769111889989e-17 -1 0 -400.0000000000001705 -2.449212707644757356e-14 1 I I #
coedge $-1 $58 $57 $194 $195 forward $59 $-1 #
edge $-1 $196 -27.952755905511804 $61 -0.3937007874015994169 $110 $197 forward 7 unknown #
edge $-1 $60 0.3937007874015994169 $198 27.952755905511804 $104 $199 forward 7 unknown #
face $-1 $200 $59 $2 $-1 $201 reversed single #
point $-1 850.0000000000010232 1499.999999999999318 400.0000000000001705 #
point $-1 850.0000000000010232 1000.000000000000568 400.0000000000001705 #
vertex $-1 $64 $202 #
ellipse-curve $-1 5250.000000000005457 1600.000000000000682 499.9999999999989768 0 6.123031769111889989e-17 -1 0 -250 -1.530757942277972519e-14 1 I I #
coedge $-1 $203 $65 $204 $205 reversed $10 $-1 #
coedge $-1 $206 $207 $65 $124 forward $208 $-1 #
edge $-1 $209 0 $128 1.570796326794896558 $65 $210 forward 7 unknown #
coedge $-1 $211 $66 $72 $140 reversed $127 $-1 #
coedge $-1 $66 $211 $206 $212 reversed $127 $-1 #
loop $-1 $-1 $126 $213 #
vertex $-1 $67 $214 #
straight-curve $-1 5750.000000000011823 1350 499.9999999999989768 0 25.39999999999999858 1.555250069354420065e-15 I I #
coedge $-1 $68 $203 $215 $216 reversed $10 $-1 #
coedge $-1 $217 $218 $68 $132 reversed $145 $-1 #
edge $-1 $219 1.570796326794896558 $136 3.141592653589793116 $68 $220 forward 7 unknown #
coedge $-1 $221 $69 $218 $222 reversed $135 $-1 #
coedge $-1 $69 $221 $71 $139 reversed $135 $-1 #
loop $-1 $-1 $134 $223 #
vertex $-1 $132 $224 #
straight-curve $-1 5049.999999999992724 2099.999999999999545 499.9999999999989768 -25.39999999999999858 0 0 I I #
coedge $-1 $72 $71 $225 $226 forward $73 $-1 #
edge $-1 $74 4.330708661417300931 $227 24.0157480314961056 $71 $228 forward 7 unknown #
edge $-1 $229 -24.0157480314961056 $75 -4.330708661417300931 $72 $230 forward 7 unknown #
face $-1 $231 $73 $2 $-1 $232 forward single #
point $-1 5650.000000000005457 2099.999999999999545 499.9999999999989768 #
point $-1 5750.000000000011823 2000.000000000001137 499.9999999999989768 #
coedge $-1 $144 $144 $233 $234 reversed $77 $-1 #
loop $-1 $-1 $131 $79 #
cone-surface $-1 4000.000000000002274 2000.000000000001137 389.9999999999995453 0 0 -1 -100.0000000000000426 0 0 1 I I 0 1 100.0000000000000426 forward I I I I #
coedge $-1 $147 $147 $235 $236 reversed $81 $-1 #
coedge $-1 $148 $148 $82 $149 forward $237 $-1 #
edge $-1 $238 0 $238 6.283185307179586232 $82 $239 forward 7 unknown #
loop $-1 $240 $241 $7 #
coedge $-1 $151 $151 $242 $243 reversed $83 $-1 #
coedge $-1 $152 $152 $84 $153 forward $244 $-1 #
edge $-1 $245 0 $245 6.283185307179586232 $84 $246 forward 7 unknown #
coedge $-1 $86 $85 $247 $248 reversed $24 $-1 #
coedge $-1 $180 $249 $85 $156 forward $250 $-1 #
edge $-1 $251 -27.952755905511804 $158 -0.3937007874015994169 $85 $252 forward 7 unknown #
edge $-1 $112 0.3937007874015994169 $253 27.952755905511804 $86 $254 forward 7 unknown #
vertex $-1 $181 $255 #
straight-curve $-1 1849.999999999999091 600.0000000000002274 400.0000000000001705 25.39999999999999858 0 0 I I #
coedge $-1 $256 $257 $88 $161 forward $258 $-1 #
edge $-1 $170 -15.35433070866140071 $165 42.9133858267716306 $88 $259 forward 7 unknown #
coedge $-1 $260 $89 $94 $175 reversed $164 $-1 #
coedge $-1 $89 $260 $256 $261 reversed $164 $-1 #
loop $-1 $-1 $89 $262 #
vertex $-1 $90 $263 #
straight-curve $-1 3250.000000000005002 600.0000000000002274 10.00000000000000355 25.39999999999999858 0 0 I I #
coedge $-1 $264 $91 $257 $265 reversed $169 $-1 #
coedge $-1 $91 $264 $93 $173 reversed $169 $-1 #
loop $-1 $-1 $168 $266 #
vertex $-1 $161 $267 #
straight-curve $-1 3250.000000000005002 600.0000000000002274 1489.999999999998863 -25.39999999999999858 0 0 I I #
coedge $-1 $268 $93 $269 $270 reversed $95 $-1 #
edge $-1 $97 55.11811023622050953 $271 78.7401574803150055 $168 $272 forward 7 unknown #
coedge $-1 $94 $273 $274 $275 reversed $95 $-1 #
edge $-1 $276 -78.7401574803150055 $96 -55.11811023622050953 $162 $277 forward 7 unknown #
face $-1 $278 $95 $2 $-1 $279 reversed single #
point $-1 6450.000000000005457 600.0000000000002274 10.00000000000000355 #
point $-1 6450.000000000005457 600.0000000000002274 1489.999999999998863 #
point $-1 1849.999999999999091 1000.000000000000568 400.0000000000001705 #
coedge $-1 $280 $155 $101 $181 forward $250 $-1 #
edge $-1 $158 0 $185 1.570796326794896558 $101 $281 forward 7 unknown #
coedge $-1 $282 $102 $105 $188 reversed $184 $-1 #
coedge $-1 $102 $282 $280 $283 reversed $184 $-1 #
loop $-1 $-1 $183 $200 #
vertex $-1 $103 $284 #
straight-curve $-1 2850.000000000004547 1550.000000000000227 400.0000000000001705 0 25.39999999999999858 1.555250069354420065e-15 I I #
coedge $-1 $105 $104 $285 $286 forward $106 $-1 #
edge $-1 $287 -27.952755905511804 $107 -0.3937007874015994169 $105 $288 forward 7 unknown #
face $-1 $289 $106 $2 $-1 $290 forward single #
point $-1 2850.000000000004547 1499.999999999999318 400.0000000000001705 #
coedge $-1 $110 $109 $291 $292 forward $111 $-1 #
face $-1 $189 $111 $2 $-1 $293 reversed single #
point $-1 450.0000000000007958 600.0000000000002274 400.0000000000001705 #
coedge $-1 $291 $285 $114 $195 reversed $294 $-1 #
edge $-1 $196 15.74803149606300678 $198 35.43307086614169776 $114 $295 forward 7 unknown #
vertex $-1 $115 $296 #
straight-curve $-1 850.0000000000010232 1000.000000000000568 389.9999999999995453 0 0 -25.39999999999999858 I I #
vertex $-1 $116 $297 #
straight-curve $-1 850.0000000000010232 1499.999999999999318 389.9999999999995453 0 0 25.39999999999999858 I I #
face $-1 $298 $184 $2 $-1 $299 reversed single #
plane-surface $-1 850.0000000000010232 1550.000000000000227 389.9999999999995453 1 0 0 0 0 -25.39999999999999858 forward_v I I I I #
point $-1 5250.000000000005457 1350 499.9999999999989768 #
coedge $-1 $130 $122 $300 $301 reversed $10 $-1 #
coedge $-1 $302 $303 $122 $205 forward $240 $-1 #
edge $-1 $304 -57.08661417322800702 $209 39.37007874015798592 $122 $305 forward 7 unknown #
coedge $-1 $306 $123 $126 $212 forward $208 $-1 #
coedge $-1 $123 $306 $302 $307 forward $208 $-1 #
loop $-1 $-1 $207 $308 #
vertex $-1 $124 $309 #
ellipse-curve $-1 6050.000000000005457 899.9999999999990905 499.9999999999989768 0 6.123031769111889989e-17 -1 0 -299.9999999999988631 -1.836909530733560208e-14 1 I I #
coedge $-1 $126 $125 $310 $311 reversed $127 $-1 #
edge $-1 $128 4.330708661417300931 $312 24.0157480314961056 $126 $313 forward 7 unknown #
face $-1 $308 $127 $2 $-1 $314 reversed single #
point $-1 5750.000000000011823 899.9999999999990905 499.9999999999989768 #
coedge $-1 $315 $316 $130 $216 forward $317 $-1 #
edge $-1 $219 -25.59055118110240912 $318 17.71653543307090217 $130 $319 forward 7 unknown #
coedge $-1 $320 $131 $316 $321 forward $145 $-1 #
coedge $-1 $131 $320 $133 $222 forward $145 $-1 #
vertex $-1 $216 $322 #
ellipse-curve $-1 4000.000000000002274 2000.000000000001137 499.9999999999989768 0 6.123031769111889989e-17 -1 0 -100.0000000000000426 -6.123031769111893391e-15 1 I I #
coedge $-1 $134 $133 $323 $324 reversed $135 $-1 #
edge $-1 $325 -24.0157480314961056 $136 -4.330708661417300931 $218 $326 forward 7 unknown #
face $-1 $213 $135 $2 $-1 $327 reversed single #
point $-1 4000.000000000002274 2099.999999999999545 499.9999999999989768 #
coedge $-1 $323 $310 $138 $226 reversed $328 $-1 #
edge $-1 $227 1.570796326794896558 $229 3.141592653589793116 $138 $329 forward 7 unknown #
vertex $-1 $139 $330 #
straight-curve $-1 5650.000000000005457 2099.999999999999545 389.9999999999995453 0 0 25.39999999999999858 I I #
vertex $-1 $226 $331 #
straight-curve $-1 5750.000000000011823 2000.000000000001137 389.9999999999995453 0 0 -25.39999999999999858 I I #
face $-1 $223 $317 $2 $-1 $332 reversed single #
cone-surface $-1 5650.000000000005457 2000.000000000001137 389.9999999999995453 0 0 -1 -100.0000000000000426 0 0 1 I I 0 1 100.0000000000000426 forward I I I I #
coedge $-1 $233 $233 $144 $234 forward $333 $-1 #
edge $-1 $334 0 $334 6.283185307179586232 $144 $335 forward 7 unknown #
coedge $-1 $235 $235 $147 $236 forward $336 $-1 #
edge $-1 $337 0 $337 6.283185307179586232 $147 $338 forward 7 unknown #
loop $-1 $294 $148 $339 #
vertex $-1 $149 $340 #
ellipse-curve $-1 1849.999999999999091 1499.999999999999318 1099.999999999999318 0 0 -1 -499.9999999999989768 0 0 1 I I #
loop $-1 $341 $303 $7 #
coedge $-1 $241 $241 $342 $343 reversed $150 $-1 #
coedge $-1 $242 $242 $151 $243 forward $344 $-1 #
edge $-1 $345 0 $345 6.283185307179586232 $151 $346 forward 7 unknown #
loop $-1 $347 $152 $348 #
vertex $-1 $153 $349 #
ellipse-curve $-1 6249.999999999993634 600.0000000000002274 200.0000000000000853 0 1 6.123031769111889989e-17 0 6.018940229036987695e-15 -98.29999999999998295 1 I I #
coedge $-1 $350 $291 $154 $248 forward $294 $-1 #
edge $-1 $253 -55.11811023622040295 $251 55.11811023622070849 $154 $351 forward 7 unknown #
coedge $-1 $155 $280 $350 $352 forward $250 $-1 #
loop $-1 $-1 $155 $289 #
vertex $-1 $156 $353 #
straight-curve $-1 3250.000000000005002 600.0000000000002274 389.9999999999995453 0 0 -25.39999999999999858 I I #
vertex $-1 $248 $354 #
straight-curve $-1 450.0000000000007958 600.0000000000002274 389.9999999999995453 0 0 25.39999999999999858 I I #
point $-1 3250.000000000005002 600.0000000000002274 400.0000000000001705 #
coedge $-1 $355 $160 $163 $261 forward $258 $-1 #
coedge $-1 $160 $356 $167 $265 forward $258 $-1 #
loop $-1 $-1 $160 $278 #
straight-curve $-1 49.99999999999990052 600.0000000000002274 1099.999999999999318 0 0 -25.39999999999999858 I I #
coedge $-1 $163 $162 $357 $358 reversed $164 $-1 #
edge $-1 $165 55.11811023622050953 $359 78.7401574803150055 $163 $360 forward 7 unknown #
face $-1 $266 $164 $2 $-1 $361 reversed single #
point $-1 49.99999999999990052 600.0000000000002274 10.00000000000000355 #
coedge $-1 $168 $167 $362 $363 reversed $169 $-1 #
edge $-1 $364 -78.7401574803150055 $170 -55.11811023622050953 $167 $365 forward 7 unknown #
face $-1 $176 $169 $2 $-1 $366 reversed single #
point $-1 49.99999999999990052 600.0000000000002274 1489.999999999998863 #
coedge $-1 $367 $172 $368 $369 forward $95 $-1 #
coedge $-1 $362 $370 $172 $270 forward $371 $-1 #
edge $-1 $372 9.842519685039405886 $271 29.133858267716505 $269 $373 forward 7 unknown #
vertex $-1 $270 $374 #
straight-curve $-1 6450.000000000005457 2000.000000000001137 1489.999999999998863 0 -25.39999999999999858 1.555250069354420065e-15 I I #
coedge $-1 $174 $367 $375 $376 forward $95 $-1 #
coedge $-1 $377 $357 $174 $275 forward $378 $-1 #
edge $-1 $276 -29.13385826771652276 $379 -9.842519685039397004 $174 $380 forward 7 unknown #
vertex $-1 $175 $381 #
straight-curve $-1 6450.000000000005457 2000.000000000001137 10.00000000000000355 0 25.39999999999999858 -1.555250069354420065e-15 I I #
face $-1 $382 $258 $2 $-1 $383 reversed single #
plane-surface $-1 6450.000000000005457 2000.000000000001137 749.9999999999996589 -1 0 0 0 0 25.39999999999999858 forward_v I I I I #
coedge $-1 $249 $180 $183 $283 forward $250 $-1 #
ellipse-curve $-1 3250.000000000005002 1000.000000000000568 400.0000000000001705 0 6.123031769111889989e-17 -1 0 -400.0000000000001705 -2.449212707644757356e-14 1 I I #
coedge $-1 $183 $182 $384 $385 forward $184 $-1 #
edge $-1 $185 0.3937007874015994169 $386 27.952755905511804 $280 $387 forward 7 unknown #
point $-1 2850.000000000004547 1000.000000000000568 400.0000000000001705 #
coedge $-1 $194 $384 $187 $286 reversed $294 $-1 #
edge $-1 $198 0 $287 3.141592653589793116 $187 $388 forward 7 unknown #
vertex $-1 $286 $389 #
straight-curve $-1 2850.000000000004547 1499.999999999999318 389.9999999999995453 0 0 -25.39999999999999858 I I #
face $-1 $117 $250 $2 $-1 $390 reversed single #
cone-surface $-1 1849.999999999999091 1499.999999999999318 389.9999999999995453 0 0 -1 -1000.000000000000568 0 0 1 I I 0 1 1000.000000000000568 forward I I I I #
coedge $-1 $247 $194 $191 $292 reversed $294 $-1 #
edge $-1 $253 1.570796326794896558 $196 3.141592653589793116 $191 $391 forward 7 unknown #
cone-surface $-1 450.0000000000007958 1000.000000000000568 389.9999999999995453 0 0 1 400.0000000000001705 0 0 1 I I 0 1 400.0000000000001705 forward I I I I #
loop $-1 $-1 $194 $339 #
straight-curve $-1 850.0000000000010232 600.0000000000002274 1099.999999999999318 0 25.39999999999999858 0 I I #
point $-1 850.0000000000010232 1000.000000000000568 1099.999999999999318 #
point $-1 850.0000000000010232 1499.999999999999318 1099.999999999999318 #
face $-1 $339 $336 $2 $-1 $392 reversed single #
plane-surface $-1 2850.000000000004547 1550.000000000000227 389.9999999999995453 -1 0 0 0 0 25.39999999999999858 forward_v I I I I #
coedge $-1 $393 $394 $203 $301 forward $395 $-1 #
edge $-1 $318 -1.570796326794896558 $304 0 $203 $396 forward 7 unknown #
coedge $-1 $397 $204 $207 $307 reversed $240 $-1 #
coedge $-1 $204 $397 $393 $398 reversed $240 $-1 #
vertex $-1 $205 $399 #
straight-curve $-1 5049.999999999992724 600.0000000000002274 499.9999999999989768 25.39999999999999858 0 0 I I #
coedge $-1 $207 $206 $400 $401 reversed $208 $-1 #
edge $-1 $402 -24.0157480314961056 $209 -4.330708661417300931 $302 $403 forward 7 unknown #
face $-1 $404 $208 $2 $-1 $405 reversed single #
point $-1 6050.000000000005457 600.0000000000002274 499.9999999999989768 #
coedge $-1 $225 $400 $211 $311 forward $328 $-1 #
edge $-1 $312 -19.68503937007880467 $229 23.62204724409450662 $211 $406 forward 7 unknown #
vertex $-1 $212 $407 #
straight-curve $-1 5750.000000000011823 899.9999999999990905 389.9999999999995453 0 0 25.39999999999999858 I I #
plane-surface $-1 5750.000000000011823 1350 389.9999999999995453 -1 0 0 0 0 25.39999999999999858 forward_v I I I I #
coedge $-1 $408 $215 $394 $409 reversed $317 $-1 #
coedge $-1 $215 $408 $217 $321 reversed $317 $-1 #
loop $-1 $-1 $316 $231 #
vertex $-1 $301 $410 #
straight-curve $-1 3899.999999999994998 1350 499.9999999999989768 0 -25.39999999999999858 -1.555250069354420065e-15 I I #
coedge $-1 $218 $217 $411 $412 forward $145 $-1 #
edge $-1 $219 4.330708661417300931 $413 24.0157480314961056 $217 $414 forward 7 unknown #
point $-1 3899.999999999994998 2000.000000000001137 499.9999999999989768 #
coedge $-1 $411 $225 $221 $324 forward $328 $-1 #
edge $-1 $227 -23.62204724409498979 $325 41.33858267716497892 $221 $415 forward 7 unknown #
vertex $-1 $412 $416 #
straight-curve $-1 4000.000000000002274 2099.999999999999545 389.9999999999995453 0 0 -25.39999999999999858 I I #
plane-surface $-1 4825.000000000003638 2099.999999999999545 389.9999999999995453 0 -1 0 0 0 -25.39999999999999858 forward_v I I I I #
loop $-1 $-1 $417 $298 #
ellipse-curve $-1 5650.000000000005457 2000.000000000001137 1000.000000000000568 0 0 -1 -100.0000000000000426 0 0 1 I I #
point $-1 5650.000000000005457 2099.999999999999545 1000.000000000000568 #
point $-1 5750.000000000011823 2000.000000000001137 1000.000000000000568 #
plane-surface $-1 3899.999999999994998 1350 389.9999999999995453 1 0 0 0 0 -25.39999999999999858 forward_v I I I I #
loop $-1 $328 $233 $298 #
vertex $-1 $234 $418 #
ellipse-curve $-1 4400.000000000001819 1600.000000000000682 1000.000000000000568 0 0 -1 -250 0 0 1 I I #
loop $-1 $333 $235 $298 #
vertex $-1 $236 $419 #
ellipse-curve $-1 5250.000000000005457 1600.000000000000682 1000.000000000000568 0 0 -1 -250 0 0 1 I I #
face $-1 $420 $237 $2 $-1 $421 reversed single #
point $-1 1350 1499.999999999999318 1099.999999999999318 #
loop $-1 $422 $423 $7 #
coedge $-1 $342 $342 $241 $343 forward $424 $-1 #
edge $-1 $425 0 $425 6.283185307179586232 $241 $426 forward 7 unknown #
loop $-1 $427 $242 $428 #
vertex $-1 $243 $429 #
ellipse-curve $-1 3250.000000000005002 600.0000000000002274 200.0000000000000853 0 1 6.123031769111889989e-17 0 6.018940229036987695e-15 -98.29999999999998295 1 I I #
loop $-1 $-1 $430 $348 #
face $-1 $431 $244 $2 $-1 $432 reversed single #
point $-1 6249.999999999993634 600.0000000000002274 101.7000000000001023 #
coedge $-1 $384 $247 $249 $352 reversed $294 $-1 #
straight-curve $-1 1849.999999999999091 600.0000000000002274 1099.999999999999318 25.39999999999999858 0 0 I I #
edge $-1 $386 0 $251 1.570796326794896558 $249 $433 forward 7 unknown #
point $-1 3250.000000000005002 600.0000000000002274 1099.999999999999318 #
point $-1 450.0000000000007958 600.0000000000002274 1099.999999999999318 #
coedge $-1 $434 $256 $435 $436 reversed $258 $-1 #
coedge $-1 $257 $437 $438 $439 reversed $258 $-1 #
coedge $-1 $274 $435 $260 $358 forward $378 $-1 #
edge $-1 $359 -125.9842519685041395 $276 125.984251968503969 $260 $440 forward 7 unknown #
vertex $-1 $358 $441 #
straight-curve $-1 49.99999999999990052 2000.000000000001137 10.00000000000000355 0 -25.39999999999999858 1.555250069354420065e-15 I I #
plane-surface $-1 3250.000000000005002 699.9999999999990905 10.00000000000000355 0 6.123031769111889989e-17 1 25.39999999999999858 0 0 forward_v I I I I #
coedge $-1 $438 $269 $264 $363 forward $371 $-1 #
edge $-1 $271 -125.984251968503969 $364 125.9842519685041395 $362 $442 forward 7 unknown #
vertex $-1 $363 $443 #
straight-curve $-1 49.99999999999990052 2000.000000000001137 1489.999999999998863 0 25.39999999999999858 -1.555250069354420065e-15 I I #
plane-surface $-1 3250.000000000005002 699.9999999999990905 1489.999999999998863 0 -6.123031769111889989e-17 -1 -25.39999999999999858 0 0 forward_v I I I I #
coedge $-1 $273 $268 $444 $445 forward $95 $-1 #
coedge $-1 $446 $447 $268 $369 reversed $448 $-1 #
edge $-1 $372 -78.7401574803150055 $449 -70.86614173228350921 $368 $450 forward 7 unknown #
coedge $-1 $269 $438 $446 $451 forward $371 $-1 #
loop $-1 $-1 $370 $452 #
vertex $-1 $451 $453 #
straight-curve $-1 6450.000000000005457 4.592273826833926078e-14 749.9999999999996589 0 1.555250069354420065e-15 25.39999999999999858 I I #
point $-1 6450.000000000005457 9.12331733597671436e-14 1489.999999999998863 #
coedge $-1 $454 $455 $273 $376 reversed $456 $-1 #
edge $-1 $457 70.86614173228350921 $379 78.7401574803150055 $375 $458 forward 7 unknown #
coedge $-1 $435 $274 $455 $459 forward $378 $-1 #
loop $-1 $-1 $377 $382 #
vertex $-1 $459 $460 #
straight-curve $-1 6450.000000000005457 4.592273826833926078e-14 749.9999999999996589 0 1.555250069354420065e-15 25.39999999999999858 I I #
point $-1 6450.000000000005457 6.123031769111867556e-16 10.00000000000000355 #
face $-1 $-1 $461 $2 $-1 $462 forward single #
plane-surface $-1 49.99999999999990052 2000.000000000001137 749.9999999999996589 1 0 0 0 0 -25.39999999999999858 forward_v I I I I #
coedge $-1 $285 $350 $282 $385 reversed $294 $-1 #
edge $-1 $287 39.37007874015750986 $386 59.05511811023620794 $282 $463 forward 7 unknown #
vertex $-1 $283 $464 #
straight-curve $-1 2850.000000000004547 1000.000000000000568 389.9999999999995453 0 0 25.39999999999999858 I I #
ellipse-curve $-1 1849.999999999999091 1499.999999999999318 1099.999999999999318 0 0 -1 -1000.000000000000568 0 0 1 I I #
point $-1 2850.000000000004547 1499.999999999999318 1099.999999999999318 #
cone-surface $-1 3250.000000000005002 1000.000000000000568 389.9999999999995453 0 0 1 400.0000000000001705 0 0 1 I I 0 1 400.0000000000001705 forward I I I I #
ellipse-curve $-1 450.0000000000007958 1000.000000000000568 1099.999999999999318 0 0 1 -400.0000000000001705 0 0 1 I I #
plane-surface $-1 5049.999999999992724 1400.000000000000682 1000.000000000000568 0 0 -1 -25.39999999999999858 0 0 forward_v I I I I #
coedge $-1 $465 $300 $303 $398 forward $395 $-1 #
coedge $-1 $300 $465 $315 $409 forward $395 $-1 #
loop $-1 $-1 $394 $404 #
ellipse-curve $-1 3600.000000000001364 899.9999999999990905 499.9999999999989768 0 6.123031769111889989e-17 -1 0 -299.9999999999988631 -1.836909530733560208e-14 1 I I #
coedge $-1 $303 $302 $466 $467 reversed $240 $-1 #
edge $-1 $304 4.330708661417300931 $468 24.0157480314961056 $303 $469 forward 7 unknown #
point $-1 3600.000000000001364 600.0000000000002274 499.9999999999989768 #
coedge $-1 $310 $466 $306 $401 forward $328 $-1 #
edge $-1 $402 -1.570796326794896558 $312 0 $306 $470 forward 7 unknown #
vertex $-1 $307 $471 #
straight-curve $-1 6050.000000000005457 600.0000000000002274 389.9999999999995453 0 0 -25.39999999999999858 I I #
face $-1 $192 $395 $2 $-1 $472 reversed single #
cone-surface $-1 6050.000000000005457 899.9999999999990905 389.9999999999995453 0 0 1 299.9999999999988631 0 0 1 I I 0 1 299.9999999999988631 forward I I I I #
straight-curve $-1 5750.000000000011823 1400.000000000000682 1000.000000000000568 0 25.39999999999999858 0 I I #
point $-1 5750.000000000011823 899.9999999999990905 1000.000000000000568 #
coedge $-1 $316 $315 $417 $473 reversed $317 $-1 #
edge $-1 $474 -24.0157480314961056 $318 -4.330708661417300931 $315 $475 forward 7 unknown #
point $-1 3899.999999999994998 899.9999999999990905 499.9999999999989768 #
coedge $-1 $417 $323 $320 $412 reversed $328 $-1 #
edge $-1 $413 0 $325 1.570796326794896558 $320 $476 forward 7 unknown #
vertex $-1 $321 $477 #
straight-curve $-1 3899.999999999994998 2000.000000000001137 389.9999999999995453 0 0 25.39999999999999858 I I #
straight-curve $-1 5049.999999999992724 2099.999999999999545 1000.000000000000568 -25.39999999999999858 0 0 I I #
point $-1 4000.000000000002274 2099.999999999999545 1000.000000000000568 #
coedge $-1 $478 $411 $408 $473 forward $328 $-1 #
point $-1 4150.000000000010914 1600.000000000000682 1000.000000000000568 #
point $-1 4999.999999999989996 1600.000000000000682 1000.000000000000568 #
face $-1 $479 $480 $2 $-1 $481 reversed single #
plane-surface $-1 1849.999999999999091 1600.000000000000682 1099.999999999999318 0 0 -1 -25.39999999999999858 0 0 forward_v I I I I #
loop $-1 $482 $483 $7 #
coedge $-1 $423 $423 $484 $485 reversed $341 $-1 #
loop $-1 $486 $342 $487 #
vertex $-1 $343 $488 #
ellipse-curve $-1 250 600.0000000000002274 200.0000000000000853 0 1 6.123031769111889989e-17 0 6.018940229036987695e-15 -98.29999999999998295 1 I I #
loop $-1 $-1 $489 $428 #
face $-1 $490 $344 $2 $-1 $491 reversed single #
point $-1 3250.000000000005002 600.0000000000002274 101.7000000000001023 #
coedge $-1 $430 $430 $492 $493 forward $347 $-1 #
face $-1 $494 $495 $2 $-1 $496 reversed single #
cone-surface $-1 6249.999999999993634 699.9999999999990905 200.0000000000000853 0 -1 6.123031769111889989e-17 0 -6.018940229036987695e-15 -98.29999999999998295 1 I I 0 1 98.29999999999998295 forward I I I I #
ellipse-curve $-1 3250.000000000005002 1000.000000000000568 1099.999999999999318 0 0 1 -400.0000000000001705 0 0 1 I I #
coedge $-1 $497 $355 $498 $499 forward $258 $-1 #
coedge $-1 $357 $377 $355 $436 forward $378 $-1 #
edge $-1 $500 9.842519685039397004 $359 29.13385826771652276 $355 $501 forward 7 unknown #
coedge $-1 $356 $497 $502 $503 forward $258 $-1 #
coedge $-1 $370 $362 $356 $439 forward $371 $-1 #
edge $-1 $364 -29.133858267716505 $504 -9.842519685039405886 $438 $505 forward 7 unknown #
straight-curve $-1 3250.000000000005002 6.123031769111867556e-16 10.00000000000000355 25.39999999999999858 0 0 I I #
point $-1 49.99999999999990052 6.123031769111867556e-16 10.00000000000000355 #
straight-curve $-1 3250.000000000005002 9.12331733597671436e-14 1489.999999999998863 -25.39999999999999858 0 0 I I #
point $-1 49.99999999999990052 9.12331733597671436e-14 1489.999999999998863 #
coedge $-1 $506 $507 $367 $445 reversed $508 $-1 #
edge $-1 $449 -9.842519685039405886 $457 9.842519685039397004 $444 $509 forward 7 unknown #
coedge $-1 $502 $368 $370 $451 reversed $448 $-1 #
coedge $-1 $368 $502 $506 $510 reversed $448 $-1 #
loop $-1 $-1 $446 $511 #
vertex $-1 $510 $512 #
straight-curve $-1 6450.000000000005457 2000.000000000001137 1000.000000000000568 0 25.39999999999999858 -1.555250069354420065e-15 I I #
edge $-1 $504 -125.9842519685041395 $372 125.984251968503969 $446 $513 forward 7 unknown #
face $-1 $262 $514 $2 $-1 $515 forward single #
point $-1 6450.000000000005457 6.123031769111892602e-14 1000.000000000000568 #
coedge $-1 $498 $375 $507 $516 reversed $456 $-1 #
coedge $-1 $375 $498 $377 $459 reversed $456 $-1 #
loop $-1 $-1 $454 $517 #
vertex $-1 $516 $518 #
straight-curve $-1 6450.000000000005457 2000.000000000001137 499.9999999999989768 0 -25.39999999999999858 1.555250069354420065e-15 I I #
edge $-1 $379 -125.984251968503969 $500 125.9842519685041395 $455 $519 forward 7 unknown #
point $-1 6450.000000000005457 3.061515884555933679e-14 499.9999999999989768 #
loop $-1 $520 $521 $382 #
plane-surface $-1 3250.000000000005002 0 0 0 -1 0 0 0 -25.39999999999999858 forward_v I I I I #
straight-curve $-1 2850.000000000004547 2500 1099.999999999999318 0 -25.39999999999999858 0 I I #
point $-1 2850.000000000004547 1000.000000000000568 1099.999999999999318 #
coedge $-1 $394 $393 $478 $522 reversed $395 $-1 #
coedge $-1 $400 $478 $397 $467 forward $328 $-1 #
edge $-1 $468 -57.08661417322800702 $402 39.37007874015798592 $397 $523 forward 7 unknown #
vertex $-1 $398 $524 #
straight-curve $-1 3600.000000000001364 600.0000000000002274 389.9999999999995453 0 0 25.39999999999999858 I I #
ellipse-curve $-1 6050.000000000005457 899.9999999999990905 1000.000000000000568 0 0 -1 -299.9999999999988631 0 0 1 I I #
point $-1 6050.000000000005457 600.0000000000002274 1000.000000000000568 #
cone-surface $-1 3600.000000000001364 899.9999999999990905 389.9999999999995453 0 0 1 299.9999999999988631 0 0 1 I I 0 1 299.9999999999988631 forward I I I I #
edge $-1 $413 -23.62204724409450662 $474 19.68503937007880467 $408 $525 forward 7 unknown #
vertex $-1 $409 $526 #
straight-curve $-1 3899.999999999994998 899.9999999999990905 389.9999999999995453 0 0 -25.39999999999999858 I I #
ellipse-curve $-1 4000.000000000002274 2000.000000000001137 1000.000000000000568 0 0 -1 -100.0000000000000426 0 0 1 I I #
point $-1 3899.999999999994998 2000.000000000001137 1000.000000000000568 #
coedge $-1 $466 $417 $465 $522 forward $328 $-1 #
face $-1 $527 $528 $2 $-1 $529 reversed single #
loop $-1 $530 $531 $420 #
cone-surface $-1 6249.999999999993634 699.9999999999990905 1299.999999999999318 0 -1 6.123031769111889989e-17 0 -6.018940229036987695e-15 -98.29999999999998295 1 I I 0 1 98.29999999999998295 forward I I I I #
loop $-1 $-1 $532 $7 #
coedge $-1 $483 $483 $533 $534 reversed $422 $-1 #
coedge $-1 $484 $484 $423 $485 forward $535 $-1 #
edge $-1 $536 0 $536 6.283185307179586232 $423 $537 forward 7 unknown #
loop $-1 $-1 $538 $487 #
face $-1 $539 $424 $2 $-1 $540 reversed single #
point $-1 250 600.0000000000002274 101.7000000000001023 #
coedge $-1 $489 $489 $541 $542 forward $427 $-1 #
face $-1 $543 $544 $2 $-1 $545 reversed single #
cone-surface $-1 3250.000000000005002 699.9999999999990905 200.0000000000000853 0 -1 6.123031769111889989e-17 0 -6.018940229036987695e-15 -98.29999999999998295 1 I I 0 1 98.29999999999998295 forward I I I I #
coedge $-1 $492 $492 $430 $493 reversed $546 $-1 #
edge $-1 $547 0 $547 6.283185307179586232 $430 $548 forward 7 unknown #
face $-1 $428 $549 $2 $-1 $550 reversed single #
loop $-1 $546 $551 $431 #
plane-surface $-1 6249.999999999993634 200.0000000000000853 200.0000000000000853 0 1 -6.123031769111889989e-17 0 1.555250069354420065e-15 25.39999999999999858 forward_v I I I I #
coedge $-1 $437 $434 $552 $553 forward $258 $-1 #
coedge $-1 $455 $454 $434 $499 reversed $456 $-1 #
edge $-1 $500 -78.7401574803150055 $554 -70.86614173228350921 $498 $555 forward 7 unknown #
vertex $-1 $499 $556 #
straight-curve $-1 49.99999999999990052 4.592273826833926078e-14 749.9999999999996589 0 -1.555250069354420065e-15 -25.39999999999999858 I I #
coedge $-1 $447 $446 $437 $503 reversed $448 $-1 #
edge $-1 $557 70.86614173228350921 $504 78.7401574803150055 $502 $558 forward 7 unknown #
vertex $-1 $451 $559 #
straight-curve $-1 49.99999999999990052 4.592273826833926078e-14 749.9999999999996589 0 -1.555250069354420065e-15 -25.39999999999999858 I I #
coedge $-1 $552 $444 $447 $510 forward $508 $-1 #
coedge $-1 $444 $552 $454 $516 forward $508 $-1 #
loop $-1 $-1 $506 $560 #
straight-curve $-1 6450.000000000005457 200.0000000000000853 749.9999999999996589 0 -1.555250069354420065e-15 -25.39999999999999858 I I #
edge $-1 $449 -125.984251968503969 $557 125.9842519685041395 $506 $561 forward 7 unknown #
face $-1 $517 $448 $2 $-1 $562 reversed single #
point $-1 6450.000000000005457 200.0000000000000853 1000.000000000000568 #
straight-curve $-1 3250.000000000005002 6.123031769111892602e-14 1000.000000000000568 25.39999999999999858 0 0 I I #
loop $-1 $563 $564 $452 #
plane-surface $-1 3250.000000000005002 0 0 0 -1 0 0 0 -25.39999999999999858 forward_v I I I I #
edge $-1 $554 -125.9842519685041395 $457 125.984251968503969 $507 $565 forward 7 unknown #
face $-1 $452 $456 $2 $-1 $566 reversed single #
point $-1 6450.000000000005457 200.0000000000000853 499.9999999999989768 #
straight-curve $-1 3250.000000000005002 3.061515884555933679e-14 499.9999999999989768 -25.39999999999999858 0 0 I I #
loop $-1 $567 $568 $382 #
coedge $-1 $521 $521 $569 $570 reversed $461 $-1 #
edge $-1 $474 -3.141592653589793116 $468 -1.570796326794896558 $465 $571 forward 7 unknown #
straight-curve $-1 5049.999999999992724 600.0000000000002274 1000.000000000000568 25.39999999999999858 0 0 I I #
point $-1 3600.000000000001364 600.0000000000002274 1000.000000000000568 #
straight-curve $-1 3899.999999999994998 1400.000000000000682 1000.000000000000568 0 -25.39999999999999858 0 I I #
point $-1 3899.999999999994998 899.9999999999990905 1000.000000000000568 #
face $-1 $572 $573 $2 $-1 $574 reversed single #
loop $-1 $575 $576 $479 #
plane-surface $-1 6249.999999999993634 200.0000000000000853 1299.999999999999318 0 1 -6.123031769111889989e-17 0 1.555250069354420065e-15 25.39999999999999858 forward_v I I I I #
loop $-1 $-1 $577 $420 #
coedge $-1 $531 $531 $532 $578 forward $480 $-1 #
coedge $-1 $532 $532 $531 $578 reversed $482 $-1 #
coedge $-1 $533 $533 $483 $534 forward $579 $-1 #
edge $-1 $580 0 $580 6.283185307179586232 $483 $581 forward 7 unknown #
loop $-1 $582 $484 $572 #
vertex $-1 $485 $583 #
ellipse-curve $-1 3250.000000000005002 600.0000000000002274 1299.999999999999318 0 1 0 0 0 -98.29999999999998295 1 I I #
coedge $-1 $538 $538 $584 $585 forward $486 $-1 #
face $-1 $586 $587 $2 $-1 $588 reversed single #
cone-surface $-1 250 699.9999999999990905 200.0000000000000853 0 -1 6.123031769111889989e-17 0 -6.018940229036987695e-15 -98.29999999999998295 1 I I 0 1 98.29999999999998295 forward I I I I #
coedge $-1 $541 $541 $489 $542 reversed $589 $-1 #
edge $-1 $590 0 $590 6.283185307179586232 $489 $591 forward 7 unknown #
face $-1 $487 $592 $2 $-1 $593 reversed single #
loop $-1 $589 $594 $490 #
plane-surface $-1 3250.000000000005002 200.0000000000000853 200.0000000000000853 0 1 -6.123031769111889989e-17 0 1.555250069354420065e-15 25.39999999999999858 forward_v I I I I #
loop $-1 $-1 $492 $431 #
vertex $-1 $493 $595 #
ellipse-curve $-1 6249.999999999993634 200.0000000000000853 200.0000000000000853 0 -1 6.123031769111889989e-17 0 6.018940229036987695e-15 98.29999999999998295 1 I I #
loop $-1 $596 $569 $494 #
cone-surface $-1 6249.999999999993634 200.0000000000000853 200.0000000000000853 0 -1 6.123031769111889989e-17 0 -7.653789711389868908e-15 -125.0000000000001137 1 I I 0 1 125.0000000000001137 forward I I I I #
coedge $-1 $551 $551 $597 $598 forward $495 $-1 #
coedge $-1 $507 $506 $497 $553 reversed $508 $-1 #
edge $-1 $554 -9.842519685039397004 $557 9.842519685039405886 $552 $599 forward 7 unknown #
vertex $-1 $553 $600 #
straight-curve $-1 49.99999999999990052 2000.000000000001137 499.9999999999989768 0 25.39999999999999858 -1.555250069354420065e-15 I I #
point $-1 49.99999999999990052 3.061515884555933679e-14 499.9999999999989768 #
vertex $-1 $510 $601 #
straight-curve $-1 49.99999999999990052 2000.000000000001137 1000.000000000000568 0 -25.39999999999999858 1.555250069354420065e-15 I I #
point $-1 49.99999999999990052 6.123031769111892602e-14 1000.000000000000568 #
face $-1 $511 $508 $2 $-1 $602 reversed single #
straight-curve $-1 3250.000000000005002 200.0000000000000853 1000.000000000000568 -25.39999999999999858 0 0 I I #
plane-surface $-1 3250.000000000005002 200.0000000000000853 1000.000000000000568 0 6.123031769111889989e-17 1 25.39999999999999858 0 0 forward_v I I I I #
loop $-1 $603 $604 $452 #
coedge $-1 $564 $564 $605 $606 reversed $514 $-1 #
straight-curve $-1 3250.000000000005002 200.0000000000000853 499.9999999999989768 25.39999999999999858 0 0 I I #
plane-surface $-1 3250.000000000005002 200.0000000000000853 499.9999999999989768 0 -6.123031769111889989e-17 -1 -25.39999999999999858 0 0 forward_v I I I I #
loop $-1 $378 $607 $382 #
coedge $-1 $568 $568 $608 $609 reversed $520 $-1 #
coedge $-1 $569 $569 $521 $570 forward $549 $-1 #
edge $-1 $610 0 $610 6.283185307179586232 $569 $611 forward 7 unknown #
ellipse-curve $-1 3600.000000000001364 899.9999999999990905 1000.000000000000568 0 0 -1 -299.9999999999988631 0 0 1 I I #
face $-1 $612 $535 $2 $-1 $613 reversed single #
loop $-1 $614 $605 $527 #
cone-surface $-1 6249.999999999993634 200.0000000000000853 1299.999999999999318 0 -1 6.123031769111889989e-17 0 -7.653789711389868908e-15 -125.0000000000001137 1 I I 0 1 125.0000000000001137 forward I I I I #
loop $-1 $-1 $615 $479 #
coedge $-1 $576 $576 $616 $617 forward $528 $-1 #
coedge $-1 $577 $577 $615 $618 forward $530 $-1 #
edge $-1 $619 0 $619 6.283185307179586232 $532 $620 forward 7 unknown #
loop $-1 $621 $533 $622 #
vertex $-1 $534 $623 #
ellipse-curve $-1 250 600.0000000000002274 1299.999999999999318 0 1 0 0 0 -98.29999999999998295 1 I I #
loop $-1 $-1 $624 $572 #
point $-1 3250.000000000005002 600.0000000000002274 1201.699999999998909 #
coedge $-1 $584 $584 $538 $585 reversed $625 $-1 #
edge $-1 $626 0 $626 6.283185307179586232 $538 $627 forward 7 unknown #
face $-1 $560 $628 $2 $-1 $629 reversed single #
loop $-1 $625 $630 $539 #
plane-surface $-1 250 200.0000000000000853 200.0000000000000853 0 1 -6.123031769111889989e-17 0 1.555250069354420065e-15 25.39999999999999858 forward_v I I I I #
loop $-1 $-1 $541 $490 #
vertex $-1 $542 $631 #
ellipse-curve $-1 3250.000000000005002 200.0000000000000853 200.0000000000000853 0 -1 6.123031769111889989e-17 0 6.018940229036987695e-15 98.29999999999998295 1 I I #
loop $-1 $632 $608 $543 #
cone-surface $-1 3250.000000000005002 200.0000000000000853 200.0000000000000853 0 -1 6.123031769111889989e-17 0 -7.653789711389868908e-15 -125.0000000000001137 1 I I 0 1 125.0000000000001137 forward I I I I #
coedge $-1 $594 $594 $633 $634 forward $544 $-1 #
point $-1 6249.999999999993634 200.0000000000000853 298.3000000000005798 #
loop $-1 $-1 $597 $494 #
coedge $-1 $597 $597 $551 $598 reversed $596 $-1 #
edge $-1 $635 0 $635 6.283185307179586232 $551 $636 forward 7 unknown #
straight-curve $-1 49.99999999999990052 200.0000000000000853 749.9999999999996589 0 1.555250069354420065e-15 25.39999999999999858 I I #
point $-1 49.99999999999990052 200.0000000000000853 499.9999999999989768 #
point $-1 49.99999999999990052 200.0000000000000853 1000.000000000000568 #
plane-surface $-1 3250.000000000005002 200.0000000000000853 749.9999999999996589 0 1 -6.123031769111889989e-17 0 1.555250069354420065e-15 25.39999999999999858 forward_v I I I I #
loop $-1 $371 $637 $452 #
coedge $-1 $604 $604 $638 $639 reversed $563 $-1 #
coedge $-1 $605 $605 $564 $606 forward $573 $-1 #
edge $-1 $640 0 $640 6.283185307179586232 $605 $641 forward 7 unknown #
coedge $-1 $607 $607 $642 $643 reversed $567 $-1 #
coedge $-1 $608 $608 $568 $609 forward $592 $-1 #
edge $-1 $644 0 $644 6.283185307179586232 $608 $645 forward 7 unknown #
vertex $-1 $570 $646 #
ellipse-curve $-1 6249.999999999993634 1.224606353822376154e-14 200.0000000000000853 0 -1 0 0 0 -125.0000000000001137 1 I I #
face $-1 $647 $648 $2 $-1 $649 reversed single #
cone-surface $-1 3250.000000000005002 699.9999999999990905 1299.999999999999318 0 -1 6.123031769111889989e-17 0 -6.018940229036987695e-15 -98.29999999999998295 1 I I 0 1 98.29999999999998295 forward I I I I #
loop $-1 $-1 $616 $527 #
coedge $-1 $615 $615 $577 $618 reversed $575 $-1 #
coedge $-1 $616 $616 $576 $617 reversed $614 $-1 #
edge $-1 $650 0 $650 6.283185307179586232 $576 $651 forward 7 unknown #
edge $-1 $652 0 $652 6.283185307179586232 $577 $653 forward 7 unknown #
vertex $-1 $578 $654 #
ellipse-curve $-1 6249.999999999993634 600.0000000000002274 1299.999999999999318 0 1 0 0 0 -98.29999999999998295 1 I I #
loop $-1 $-1 $655 $622 #
face $-1 $656 $579 $2 $-1 $657 reversed single #
point $-1 250 600.0000000000002274 1201.699999999998909 #
coedge $-1 $624 $624 $658 $659 forward $582 $-1 #
loop $-1 $-1 $584 $539 #
vertex $-1 $585 $660 #
ellipse-curve $-1 250 200.0000000000000853 200.0000000000000853 0 -1 6.123031769111889989e-17 0 6.018940229036987695e-15 98.29999999999998295 1 I I #
loop $-1 $661 $642 $586 #
cone-surface $-1 250 200.0000000000000853 200.0000000000000853 0 -1 6.123031769111889989e-17 0 -7.653789711389868908e-15 -125.0000000000001137 1 I I 0 1 125.0000000000001137 forward I I I I #
coedge $-1 $630 $630 $662 $663 forward $587 $-1 #
point $-1 3250.000000000005002 200.0000000000000853 298.3000000000005798 #
loop $-1 $-1 $633 $543 #
coedge $-1 $633 $633 $594 $634 reversed $632 $-1 #
edge $-1 $664 0 $664 6.283185307179586232 $594 $665 forward 7 unknown #
vertex $-1 $598 $666 #
ellipse-curve $-1 6249.999999999993634 200.0000000000000853 200.0000000000000853 0 -1 6.123031769111889989e-17 0 -7.653789711389868908e-15 -125.0000000000001137 1 I I #
coedge $-1 $637 $637 $667 $668 reversed $603 $-1 #
coedge $-1 $638 $638 $604 $639 forward $669 $-1 #
edge $-1 $670 0 $670 6.283185307179586232 $638 $671 forward 7 unknown #
vertex $-1 $606 $672 #
ellipse-curve $-1 6249.999999999993634 7.959941299845453441e-14 1299.999999999999318 0 -1 0 0 0 -125.0000000000001137 1 I I #
coedge $-1 $642 $642 $607 $643 forward $628 $-1 #
edge $-1 $673 0 $673 6.283185307179586232 $642 $674 forward 7 unknown #
vertex $-1 $609 $675 #
ellipse-curve $-1 3250.000000000005002 1.224606353822376154e-14 200.0000000000000853 0 -1 0 0 0 -125.0000000000001137 1 I I #
point $-1 6249.999999999993634 1.224606353822376154e-14 74.99999999999997158 #
face $-1 $622 $669 $2 $-1 $676 reversed single #
loop $-1 $677 $678 $612 #
plane-surface $-1 3250.000000000005002 200.0000000000000853 1299.999999999999318 0 1 -6.123031769111889989e-17 0 1.555250069354420065e-15 25.39999999999999858 forward_v I I I I #
vertex $-1 $617 $679 #
ellipse-curve $-1 6249.999999999993634 200.0000000000000853 1299.999999999999318 0 -1 6.123031769111889989e-17 0 -7.653789711389868908e-15 -125.0000000000001137 1 I I #
vertex $-1 $618 $680 #
ellipse-curve $-1 6249.999999999993634 200.0000000000000853 1299.999999999999318 0 -1 6.123031769111889989e-17 0 6.018940229036987695e-15 98.29999999999998295 1 I I #
point $-1 6249.999999999993634 600.0000000000002274 1201.699999999998909 #
coedge $-1 $655 $655 $681 $682 forward $621 $-1 #
face $-1 $683 $684 $2 $-1 $685 reversed single #
cone-surface $-1 250 699.9999999999990905 1299.999999999999318 0 -1 6.123031769111889989e-17 0 -6.018940229036987695e-15 -98.29999999999998295 1 I I 0 1 98.29999999999998295 forward I I I I #
coedge $-1 $658 $658 $624 $659 reversed $677 $-1 #
edge $-1 $686 0 $686 6.283185307179586232 $624 $687 forward 7 unknown #
point $-1 250 200.0000000000000853 298.3000000000005798 #
loop $-1 $-1 $662 $586 #
coedge $-1 $662 $662 $630 $663 reversed $661 $-1 #
edge $-1 $688 0 $688 6.283185307179586232 $630 $689 forward 7 unknown #
vertex $-1 $634 $690 #
ellipse-curve $-1 3250.000000000005002 200.0000000000000853 200.0000000000000853 0 -1 6.123031769111889989e-17 0 -7.653789711389868908e-15 -125.0000000000001137 1 I I #
point $-1 6249.999999999993634 200.0000000000000853 74.99999999999997158 #
coedge $-1 $667 $667 $637 $668 forward $691 $-1 #
edge $-1 $692 0 $692 6.283185307179586232 $667 $693 forward 7 unknown #
loop $-1 $694 $638 $647 #
vertex $-1 $639 $695 #
ellipse-curve $-1 3250.000000000005002 7.959941299845453441e-14 1299.999999999999318 0 -1 0 0 0 -125.0000000000001137 1 I I #
point $-1 6249.999999999993634 7.959941299845453441e-14 1174.999999999998863 #
vertex $-1 $643 $696 #
ellipse-curve $-1 250 1.224606353822376154e-14 200.0000000000000853 0 -1 0 0 0 -125.0000000000001137 1 I I #
point $-1 3250.000000000005002 1.224606353822376154e-14 74.99999999999997158 #
cone-surface $-1 3250.000000000005002 200.0000000000000853 1299.999999999999318 0 -1 6.123031769111889989e-17 0 -7.653789711389868908e-15 -125.0000000000001137 1 I I 0 1 125.0000000000001137 forward I I I I #
loop $-1 $-1 $658 $612 #
coedge $-1 $678 $678 $697 $698 forward $648 $-1 #
point $-1 6249.999999999993634 200.0000000000000853 1174.999999999998863 #
point $-1 6249.999999999993634 200.0000000000000853 1398.299999999999727 #
coedge $-1 $681 $681 $655 $682 reversed $699 $-1 #
edge $-1 $700 0 $700 6.283185307179586232 $655 $701 forward 7 unknown #
face $-1 $348 $691 $2 $-1 $702 reversed single #
loop $-1 $699 $703 $656 #
plane-surface $-1 250 200.0000000000000853 1299.999999999999318 0 1 -6.123031769111889989e-17 0 1.555250069354420065e-15 25.39999999999999858 forward_v I I I I #
vertex $-1 $659 $704 #
ellipse-curve $-1 3250.000000000005002 200.0000000000000853 1299.999999999999318 0 -1 6.123031769111889989e-17 0 6.018940229036987695e-15 98.29999999999998295 1 I I #
vertex $-1 $663 $705 #
ellipse-curve $-1 250 200.0000000000000853 200.0000000000000853 0 -1 6.123031769111889989e-17 0 -7.653789711389868908e-15 -125.0000000000001137 1 I I #
point $-1 3250.000000000005002 200.0000000000000853 74.99999999999997158 #
loop $-1 $706 $667 $683 #
vertex $-1 $668 $707 #
ellipse-curve $-1 250 7.959941299845453441e-14 1299.999999999999318 0 -1 0 0 0 -125.0000000000001137 1 I I #
loop $-1 $-1 $697 $647 #
point $-1 3250.000000000005002 7.959941299845453441e-14 1174.999999999998863 #
point $-1 250 1.224606353822376154e-14 74.99999999999997158 #
coedge $-1 $697 $697 $678 $698 reversed $694 $-1 #
edge $-1 $708 0 $708 6.283185307179586232 $678 $709 forward 7 unknown #
loop $-1 $-1 $681 $656 #
vertex $-1 $682 $710 #
ellipse-curve $-1 250 200.0000000000000853 1299.999999999999318 0 -1 6.123031769111889989e-17 0 6.018940229036987695e-15 98.29999999999998295 1 I I #
cone-surface $-1 250 200.0000000000000853 1299.999999999999318 0 -1 6.123031769111889989e-17 0 -7.653789711389868908e-15 -125.0000000000001137 1 I I 0 1 125.0000000000001137 forward I I I I #
coedge $-1 $703 $703 $711 $712 forward $684 $-1 #
point $-1 3250.000000000005002 200.0000000000000853 1398.299999999999727 #
point $-1 250 200.0000000000000853 74.99999999999997158 #
loop $-1 $-1 $711 $683 #
point $-1 250 7.959941299845453441e-14 1174.999999999998863 #
vertex $-1 $698 $713 #
ellipse-curve $-1 3250.000000000005002 200.0000000000000853 1299.999999999999318 0 -1 6.123031769111889989e-17 0 -7.653789711389868908e-15 -125.0000000000001137 1 I I #
point $-1 250 200.0000000000000853 1398.299999999999727 #
coedge $-1 $711 $711 $703 $712 reversed $706 $-1 #
edge $-1 $714 0 $714 6.283185307179586232 $703 $715 forward 7 unknown #
point $-1 3250.000000000005002 200.0000000000000853 1174.999999999998863 #
vertex $-1 $712 $716 #
ellipse-curve $-1 250 200.0000000000000853 1299.999999999999318 0 -1 6.123031769111889989e-17 0 -7.653789711389868908e-15 -125.0000000000001137 1 I I #
point $-1 250 200.0000000000000853 1174.999999999998863 #
End-of-ACIS-data 