**ABCDEFGHIJKLMNOPQRSTUVWXYZabcdefghijklmnopqrstuvwxyz**************************
**PARASOLID !"#$%&'()*+,-./:;<=>?@[\]^_`{|}~0123456789**************************
**PART1;MC=sun;MC_MODEL=Sun-3;MC_ID=unknown;OS=SunOS;OS_RELEASE=unknown;FRU=sdl_
parasolid_test_sun;APPL=unknown;SITE=sdl-cambridge-u.k.;USER=kramer;FORMAT=text;
GUISE=transmit;KEY=olps_workpiece_out;FILE=olps_workpiece_out.xmt_txt;DATE=30-ma
y-1990;
**PART2;SCH=SCH_210_1012;USFLD_SIZE=0;
**PART3;
**END_OF_HEADER*****************************************************************
T47 : TRANSMIT FILE created by modeller version 22012 SCH_210_10120 12 1 1467 0
 0 0 0 0 1e3 1e-8 2 2 0 0 0 1 3 102 18 2 olps_workpiece_out13 3 2 0 1 0 4 5 6 7
 8 9 14 4 1193 0 10 0 11 3 12 -16 5 1204 0 13 0 14 15 18 6 813 0 16 0 17 9 51 7
 1210 0 18 12 0 0 +6.25 .7 1.3 0 -1 612303176911189e-31 .0983 31 8 1215 0 14 15
 0 0 +6.25 .7 1.3 0 -1 612303176911189e-31 .0983 29 9 871 0 6 19 0 .05 .2 1 29 1
9 872 0 17 20 9 6.45 .2 1 18 17 814 0 21 6 22 19 29 20 873 0 22 23 19 6.45 61230
3176911189e-31 1 18 22 815 0 24 17 25 20 29 23 874 0 25 26 20 .05 61230317691118
9e-31 1 18 25 816 0 27 22 28 23 29 26 876 0 28 29 23 6.45 3061515884555945e-32 .
5 18 28 818 0 30 25 31 26 29 29 877 0 31 32 26 6.45 .2 .5 18 31 819 0 33 28 34 2
9 29 32 878 0 34 35 29 .05 .2 .5 18 34 820 0 36 31 37 32 29 35 718 0 37 38 32 .0
5 3061515884555945e-32 .5 18 37 716 0 39 34 40 35 29 38 682 0 40 41 35 6.45 .7 0
 18 40 632 0 42 37 43 38 29 41 684 0 43 44 38 .05 .7 .01 18 43 634 0 45 40 46 41
 29 44 685 0 46 47 41 6.45 .7 .01 18 46 635 0 48 43 49 44 29 47 688 0 49 50 44 6
.45 612303176911189e-33 .01 18 49 638 0 51 46 52 47 29 50 689 0 52 53 47 .05 612
303176911189e-33 .01 18 52 639 0 54 49 55 50 29 53 549 0 55 56 50 .05 .7 0 18 55
 547 0 57 52 58 53 29 56 520 0 58 59 53 .05 .7 1.5 18 58 470 0 60 55 61 56 29 59
 521 0 61 62 56 6.45 .7 1.5 18 61 471 0 63 58 64 59 29 62 525 0 64 65 59 6.45 91
2331733597671e-31 1.49 18 64 475 0 66 61 67 62 29 65 526 0 67 68 62 6.45 .7 1.49
 18 67 476 0 69 64 70 65 29 68 527 0 70 71 65 .05 .7 1.49 18 70 477 0 72 67 73 6
8 29 71 387 0 73 74 68 .05 912331733597671e-31 1.49 18 73 385 0 75 70 76 71 29 7
4 359 0 76 77 71 6.5 2 1.5 18 76 309 0 78 73 79 74 29 77 361 0 79 80 74 6.45 2 -
1143833291972206e-32 18 79 311 0 81 76 82 77 29 80 362 0 82 83 77 6.45 2 1.5 18
 82 312 0 84 79 85 80 29 83 222 0 85 86 80 6.5 2 -1224606353822376e-31 18 85 220
 0 87 82 88 83 29 86 199 0 88 89 83 0 2 1.5 18 88 149 0 90 85 91 86 29 89 200 0
 91 92 86 -4163336342344335e-32 2 0 18 91 150 0 93 88 94 89 29 92 201 0 94 95 89
 .05 2 1.5 18 94 151 0 96 91 97 92 29 95 70 0 97 98 92 .05 2 -571916645986104e-3
2 18 97 68 0 99 94 100 95 29 98 54 0 100 101 95 0 3 1.5 18 100 18 0 102 97 103 9
8 29 101 53 0 103 104 98 6.5 3 1.5 18 103 16 0 105 100 106 101 29 104 37 0 107 1
08 101 0 3 0 18 107 10 0 109 106 0 104 29 108 36 0 106 0 104 6.5 3 0 18 106 12 0
 110 103 107 108 17 110 111 105 87 106 112 113 15 111 229 0 87 114 0 17 105 111
 115 110 103 116 117 17 87 111 110 115 85 118 119 17 112 120 121 122 85 110 113
 16 113 221 0 110 123 124 125 16 123 238 0 126 127 113 128 16 124 125 0 129 113
 130 131 30 125 223 0 113 131 128 0 +6.5 1.5 0 0 1 0 30 131 175 0 124 132 125 0
 +3.25 2 1.5 -1 0 0 30 128 240 0 123 125 133 0 +3.25 2 0 1 0 0 30 133 341 0 127
 128 134 0 +6.45 2 .75 0 -612303176911189e-31 -1 16 127 291 0 81 119 123 133 30
 134 339 0 119 133 135 0 +6.5 2 -3061515884555945e-32 0 612303176911189e-31 1 16
 119 289 0 118 136 127 134 30 135 337 0 136 134 137 0 +3.25 2 1.5 -1 0 0 16 136
 287 0 138 139 119 135 30 137 335 0 139 135 140 0 +6.45 1.5 1.5 0 -1 0 16 139 28
5 0 141 142 136 137 30 140 388 0 142 137 143 0 +.05 459227382683392e-31 .75 0 -6
12303176911189e-31 -1 16 142 386 0 144 145 139 140 30 143 401 0 145 140 146 0 +.
05 1.5 1.5 0 1 0 16 145 399 0 147 148 142 143 30 146 410 0 148 143 149 0 +.05 2
 1.49 0 1 -612303176911189e-31 16 148 408 0 150 151 145 146 30 149 507 0 151 146
 152 0 +3.25 .7 1.49 1 0 0 16 151 457 0 153 154 148 149 30 152 505 0 154 149 155
 0 +3.25 912331733597671e-31 1.49 -1 0 0 16 154 455 0 75 156 151 152 30 155 502
 0 156 152 157 0 +6.45 2 1.49 0 -1 612303176911189e-31 16 156 452 0 66 158 154 1
55 30 157 498 0 158 155 159 0 +3.25 .7 1.5 -1 0 0 16 158 448 0 160 161 156 157 3
0 159 497 0 161 157 162 0 +.05 .7 .75 0 612303176911189e-31 1 16 161 447 0 60 16
3 158 159 30 162 496 0 163 159 164 0 +6.45 .7 .75 0 -612303176911189e-31 -1 16 1
63 446 0 69 165 161 162 30 164 546 0 165 162 166 0 +6.45 1.5 0 0 1 0 16 165 544
 0 167 168 163 164 30 166 563 0 168 164 169 0 +6.45 459227382683392e-31 .75 0 61
2303176911189e-31 1 16 168 561 0 170 171 165 166 30 169 572 0 171 166 172 0 +.05
 .7 .75 0 612303176911189e-31 1 16 171 570 0 173 174 168 169 30 172 669 0 174 16
9 175 0 +3.25 612303176911189e-33 .01 1 0 0 16 174 619 0 51 176 171 172 30 175 6
64 0 176 172 177 0 +3.25 .7 .01 -1 0 0 16 176 614 0 45 178 174 175 30 177 662 0
 178 175 179 0 +3.25 .7 0 1 0 0 16 178 612 0 180 181 176 177 30 179 660 0 181 17
7 182 0 +6.45 .7 .75 0 -612303176911189e-31 -1 16 181 610 0 42 183 178 179 30 18
2 659 0 183 179 184 0 +.05 2 .00999999999999989 0 -1 612303176911189e-31 16 183
 609 0 54 185 181 182 30 184 658 0 185 182 186 0 +6.45 2 .00999999999999989 0 1
 -612303176911189e-31 16 185 608 0 48 187 183 184 30 186 711 0 187 184 188 0 +6.
45 459227382683392e-31 .75 0 612303176911189e-31 1 16 187 709 0 189 190 185 186
 30 188 719 0 190 186 191 0 +.05 459227382683392e-31 .75 0 -612303176911189e-31
 -1 16 190 717 0 192 193 187 188 30 191 733 0 193 188 194 0 +.05 2 .5 0 1 -61230
3176911189e-31 16 193 731 0 195 196 190 191 30 194 858 0 196 191 197 0 +3.25 .2
 .5 1 0 0 16 196 800 0 198 199 193 194 30 197 856 0 199 194 200 0 +3.25 30615158
84555945e-32 .5 -1 0 0 16 199 798 0 39 201 196 197 30 200 853 0 201 197 202 0 +6
.45 2 .5 0 -1 612303176911189e-31 16 201 795 0 30 203 199 200 30 202 852 0 203 2
00 204 0 +3.25 612303176911189e-31 1 1 0 0 16 203 794 0 24 205 201 202 30 204 85
0 0 205 202 206 0 +3.25 .2 1 -1 0 0 16 205 792 0 207 208 203 204 30 206 848 0 20
8 204 209 0 +.05 2 1 0 -1 612303176911189e-31 16 208 790 0 27 210 205 206 30 209
 847 0 210 206 211 0 +6.45 2 1 0 1 -612303176911189e-31 16 210 789 0 21 212 208
 209 30 211 844 0 212 209 213 0 +.05 .2 .75 0 612303176911189e-31 1 16 212 786 0
 16 214 210 211 30 213 843 0 214 211 215 0 +6.45 .2 .75 0 -612303176911189e-31 -
1 16 214 785 0 33 216 212 213 31 215 1219 0 216 213 217 0 +.25 1224606353822376e
-32 .2 0 -1 0 .125 16 216 1216 0 218 219 214 215 31 217 1254 0 219 215 220 0 +.2
5 .2 .2 0 -1 612303176911189e-31 .125 16 219 1245 0 221 222 216 217 31 220 1225
 0 222 217 223 0 -.25 .2 .2 0 1 -612303176911189e-31 .0983 16 222 1222 0 224 225
 219 220 31 223 1048 0 226 220 227 0 +.25 .759064598850409 .2 0 -1 6123031769111
89e-31 1e-6 16 226 1039 0 228 229 225 223 31 227 1050 0 225 223 230 0 +.25 .7 .2
 0 -1 612303176911189e-31 .0983 16 225 1041 0 231 226 222 227 31 230 1261 0 229
 227 232 0 +3.25 1224606353822376e-32 .2 0 -1 0 .125 16 229 1258 0 233 234 226 2
30 31 232 1296 0 234 230 235 0 +3.25 .2 .2 0 -1 612303176911189e-31 .125 16 234
 1287 0 236 237 229 232 31 235 1267 0 237 232 238 0 -3.25 .2 .2 0 1 -61230317691
1189e-31 .0983 16 237 1264 0 239 240 234 235 31 238 1081 0 241 235 242 0 +3.25 .
759064598850409 .2 0 -1 612303176911189e-31 1e-6 16 241 1072 0 243 244 240 238 3
1 242 1083 0 240 238 245 0 +3.25 .7 .2 0 -1 612303176911189e-31 .0983 16 240 107
4 0 246 241 237 242 31 245 1303 0 244 242 247 0 +6.25 1224606353822376e-32 .2 0
 -1 0 .125 16 244 1300 0 248 249 241 245 31 247 1338 0 249 245 250 0 +6.25 .2 .2
 0 -1 612303176911189e-31 .125 16 249 1329 0 251 252 244 247 31 250 1309 0 252 2
47 253 0 -6.25 .2 .2 0 1 -612303176911189e-31 .0983 16 252 1306 0 254 255 249 25
0 31 253 1114 0 256 250 257 0 +6.25 .759064598850409 .2 0 -1 612303176911189e-31
 1e-6 16 256 1105 0 258 259 255 253 31 257 1116 0 255 253 260 0 +6.25 .7 .2 0 -1
 612303176911189e-31 .0983 16 255 1107 0 261 256 252 257 31 260 1345 0 259 257 2
62 0 +.25 795994129984545e-31 1.3 0 -1 0 .125 16 259 1342 0 263 264 256 260 31 2
62 1380 0 264 260 265 0 +.25 .2 1.3 0 -1 612303176911189e-31 .125 16 264 1371 0
 266 267 259 262 31 265 1351 0 267 262 268 0 -.25 .2 1.3 0 1 -612303176911189e-3
1 .0983 16 267 1348 0 269 270 264 265 31 268 1147 0 271 265 272 0 +.25 .75906459
8850409 1.3 0 -1 612303176911189e-31 1e-6 16 271 1138 0 273 274 270 268 31 272 1
149 0 270 268 275 0 +.25 .7 1.3 0 -1 612303176911189e-31 .0983 16 270 1140 0 276
 271 267 272 31 275 1387 0 274 272 277 0 +3.25 795994129984545e-31 1.3 0 -1 0 .1
25 16 274 1384 0 278 279 271 275 31 277 1422 0 279 275 280 0 +3.25 .2 1.3 0 -1 6
12303176911189e-31 .125 16 279 1413 0 281 282 274 277 31 280 1393 0 282 277 283
 0 -3.25 .2 1.3 0 1 -612303176911189e-31 .0983 16 282 1390 0 284 285 279 280 31
 283 1180 0 286 280 287 0 +3.25 .759064598850409 1.3 0 -1 612303176911189e-31 1e
-6 16 286 1171 0 288 289 285 283 31 287 1182 0 285 283 290 0 +3.25 .7 1.3 0 -1 6
12303176911189e-31 .0983 16 285 1173 0 291 286 282 287 31 290 1429 0 289 287 292
 0 +6.25 795994129984545e-31 1.3 0 -1 0 .125 16 289 1426 0 293 294 286 290 31 29
2 1464 0 294 290 295 0 +6.25 .2 1.3 0 -1 612303176911189e-31 .125 16 294 1455 0
 296 297 289 292 31 295 1435 0 297 292 15 0 -6.25 .2 1.3 0 1 -612303176911189e-3
1 .0983 16 297 1432 0 298 14 294 295 31 15 1213 0 5 295 8 0 +6.25 .7590645988504
09 1.3 0 -1 612303176911189e-31 1e-6 17 298 299 298 298 0 300 297 16 14 1206 0 3
01 5 297 8 17 301 302 301 301 0 303 14 15 302 1196 0 301 10 304 17 303 305 303 3
03 0 301 14 15 305 1202 0 303 18 0 14 18 1200 0 306 10 299 3 7 -14 306 1442 0 30
7 18 308 3 309 -14 10 1195 0 18 4 302 3 310 -15 299 1433 0 298 18 305 52 310 120
8 0 10 309 12 0 +6.25 .759064598850409 1.3 0 -1 612303176911189e-31 1e-6 .857164
987595668 .51504192454607 50 309 1457 0 306 311 310 0 +6.25 .2 1.3 0 1 -61230317
6911189e-31 50 12 1209 0 4 310 7 0 +6.25 .759064598850409 1.3 0 1 -6123031769111
89e-31 51 311 1458 0 307 312 309 0 +6.25 .2 1.3 0 -1 612303176911189e-31 .125 14
 307 1449 0 313 306 314 3 311 -51 312 1177 0 315 316 311 0 +3.25 .7 1.3 0 -1 612
303176911189e-31 .0983 14 315 1167 0 317 318 319 3 312 -50 316 1176 0 313 320 31
2 0 +3.25 .759064598850409 1.3 0 1 -612303176911189e-31 14 313 1160 0 318 307 32
1 3 316 -52 320 1175 0 318 322 316 0 +3.25 .759064598850409 1.3 0 -1 61230317691
1189e-31 1e-6 .857164987595668 .51504192454607 14 318 1162 0 315 313 323 3 320 -
50 322 1415 0 317 324 320 0 +3.25 .2 1.3 0 1 -612303176911189e-31 14 317 1400 0
 325 315 326 3 322 -51 324 1416 0 325 327 322 0 +3.25 .2 1.3 0 -1 61230317691118
9e-31 .125 14 325 1407 0 328 317 329 3 324 -51 327 1144 0 330 331 324 0 +.25 .7
 1.3 0 -1 612303176911189e-31 .0983 14 330 1134 0 332 333 334 3 327 -50 331 1143
 0 328 335 327 0 +.25 .759064598850409 1.3 0 1 -612303176911189e-31 14 328 1127
 0 333 325 336 3 331 -52 335 1142 0 333 337 331 0 +.25 .759064598850409 1.3 0 -1
 612303176911189e-31 1e-6 .857164987595668 .51504192454607 14 333 1129 0 330 328
 338 3 335 -50 337 1373 0 332 339 335 0 +.25 .2 1.3 0 1 -612303176911189e-31 14
 332 1358 0 340 330 341 3 337 -51 339 1374 0 340 342 337 0 +.25 .2 1.3 0 -1 6123
03176911189e-31 .125 14 340 1365 0 343 332 344 3 339 -51 342 1111 0 345 346 339
 0 +6.25 .7 .2 0 -1 612303176911189e-31 .0983 14 345 1101 0 347 348 349 3 342 -5
0 346 1110 0 343 350 342 0 +6.25 .759064598850409 .2 0 1 -612303176911189e-31 14
 343 1094 0 348 340 351 3 346 -52 350 1109 0 348 352 346 0 +6.25 .75906459885040
9 .2 0 -1 612303176911189e-31 1e-6 .857164987595668 .51504192454607 14 348 1096
 0 345 343 353 3 350 -50 352 1331 0 347 354 350 0 +6.25 .2 .2 0 1 -6123031769111
89e-31 14 347 1316 0 355 345 356 3 352 -51 354 1332 0 355 357 352 0 +6.25 .2 .2
 0 -1 612303176911189e-31 .125 14 355 1323 0 358 347 359 3 354 -51 357 1078 0 36
0 361 354 0 +3.25 .7 .2 0 -1 612303176911189e-31 .0983 14 360 1068 0 362 363 364
 3 357 -50 361 1077 0 358 365 357 0 +3.25 .759064598850409 .2 0 1 -6123031769111
89e-31 14 358 1061 0 363 355 366 3 361 -52 365 1076 0 363 367 361 0 +3.25 .75906
4598850409 .2 0 -1 612303176911189e-31 1e-6 .857164987595668 .51504192454607 14
 363 1063 0 360 358 368 3 365 -50 367 1289 0 362 369 365 0 +3.25 .2 .2 0 1 -6123
03176911189e-31 14 362 1274 0 370 360 371 3 367 -51 369 1290 0 370 372 367 0 +3.
25 .2 .2 0 -1 612303176911189e-31 .125 14 370 1281 0 373 362 374 3 369 -51 372 1
045 0 375 376 369 0 +.25 .7 .2 0 -1 612303176911189e-31 .0983 14 375 1035 0 377
 378 379 3 372 -50 376 1044 0 373 380 372 0 +.25 .759064598850409 .2 0 1 -612303
176911189e-31 14 373 1028 0 378 370 381 3 376 -52 380 1043 0 378 382 376 0 +.25
 .759064598850409 .2 0 -1 612303176911189e-31 1e-6 .857164987595668 .51504192454
607 14 378 1030 0 375 373 383 3 380 -50 382 1247 0 377 384 380 0 +.25 .2 .2 0 1
 -612303176911189e-31 14 377 1232 0 385 375 386 3 382 -51 384 1248 0 385 387 382
 0 +.25 .2 .2 0 -1 612303176911189e-31 .125 14 385 1239 0 388 377 389 3 384 -50
 387 829 0 388 390 384 0 +3.25 .2 .75 0 1 -612303176911189e-31 14 388 757 0 391
 385 392 3 387 -50 390 833 0 391 393 387 0 +3.25 .2 1 0 612303176911189e-31 1 14
 391 765 0 394 388 395 3 390 -50 393 835 0 394 396 390 0 +3.25 .2 .5 0 -61230317
6911189e-31 -1 14 394 769 0 397 391 398 3 393 -50 396 724 0 397 399 393 0 +3.25
 0 0 0 -1 0 14 397 723 0 400 394 401 3 396 +50 399 648 0 400 402 396 0 +3.25 .7
 .01 0 612303176911189e-31 1 14 400 588 0 403 397 404 3 399 -50 402 650 0 403 40
5 399 0 +3.25 .7 -.49 0 1 -612303176911189e-31 14 403 592 0 406 400 407 3 402 -5
0 405 486 0 406 408 402 0 +3.25 .7 1.99 0 1 -612303176911189e-31 14 406 426 0 40
9 403 410 3 405 -50 408 488 0 409 411 405 0 +3.25 .7 1.49 0 -612303176911189e-31
 -1 14 409 430 0 412 406 413 3 408 -50 411 331 0 412 414 408 0 +6.45 2 .75 -1 0
 0 14 412 277 0 415 409 416 3 411 -50 414 332 0 415 417 411 0 +6.95 2 .75 0 1 -6
12303176911189e-31 14 415 279 0 418 412 419 3 414 -50 417 172 0 418 420 414 0 +-
.45 2 .75 0 1 -612303176911189e-31 14 418 119 0 421 415 422 3 417 -50 420 173 0
 421 423 417 0 +.05 2 .75 1 0 0 14 421 121 0 424 418 425 3 420 -50 423 51 0 424
 426 420 0 +3.25 1.5 1.5 0 0 1 14 424 33 0 427 421 428 3 423 +50 426 46 0 427 42
9 423 0 +3.25 0 0 0 -1 0 14 427 30 0 430 424 431 3 426 +50 429 45 0 430 432 426
 0 +0 1.5 0 -1 0 0 14 430 27 0 433 427 434 3 429 +50 432 44 0 433 435 429 0 +3.2
5 3 0 0 1 0 14 433 24 0 436 430 437 3 432 +50 435 43 0 114 438 432 0 +6.5 1.5 0
 1 0 0 14 114 1 0 0 436 111 3 435 +50 438 34 0 436 0 435 0 +3.25 1.5 0 0 0 -1 14
 436 6 0 114 433 120 3 438 +15 120 552 0 57 436 0 17 57 120 99 439 55 180 178 17
 99 120 93 57 97 440 441 17 439 120 57 121 40 167 165 17 180 407 442 443 40 57 1
78 15 407 593 0 45 403 0 17 442 407 45 180 46 42 181 17 443 407 180 45 55 173 17
1 17 45 407 443 442 43 444 176 17 173 425 54 440 43 443 171 15 425 122 0 16 421
 0 17 54 425 445 173 52 446 183 17 440 425 173 447 55 99 441 17 447 425 440 147
 97 448 449 16 441 129 0 440 130 449 450 16 130 126 0 451 124 441 132 16 449 131
 0 448 441 452 453 30 450 179 0 441 453 132 0 +.05 1.5 0 0 -1 0 30 453 181 0 449
 454 450 0 +.05 2 .75 0 612303176911189e-31 1 30 132 176 0 130 450 131 0 +0 2 -3
061515884555945e-32 0 -612303176911189e-31 -1 30 454 80 0 452 455 453 0 +0 1.5 1
.5 0 1 0 16 452 78 0 456 449 457 454 30 455 74 0 457 458 454 0 +3.25 2 0 1 0 0 1
6 457 72 0 459 452 460 455 30 458 57 0 460 461 455 0 +3.25 3 1.5 1 0 0 16 460 25
 0 462 457 463 458 30 461 56 0 463 464 458 0 +6.5 1.5 1.5 0 -1 0 16 463 22 0 115
 460 465 461 30 464 49 0 465 466 461 0 +0 3 0 0 0 1 16 465 19 0 102 463 117 464
 30 466 48 0 117 467 464 0 +6.5 3 0 0 0 1 16 117 17 0 105 465 468 466 30 467 42
 0 469 470 466 0 +0 1.5 0 0 -1 0 16 469 11 0 471 468 0 467 30 470 41 0 468 0 467
 0 +3.25 3 0 -1 0 0 16 468 13 0 109 117 469 470 17 109 437 102 116 107 122 468 1
5 437 23 0 102 433 0 17 102 437 462 109 100 472 465 17 116 437 109 462 106 105 1
17 17 122 120 112 473 106 109 468 17 473 120 122 93 107 471 469 17 93 120 473 99
 91 459 457 17 471 434 90 472 91 473 469 15 434 82 0 90 430 0 17 90 434 456 471
 88 451 130 17 472 434 471 456 107 102 465 17 456 434 472 90 100 474 452 17 474
 428 96 475 88 456 452 15 428 403 0 63 424 0 17 96 428 476 474 94 129 124 17 475
 428 474 477 100 462 460 17 477 428 475 78 103 115 463 17 462 437 116 102 103 47
5 460 17 78 428 477 84 76 138 136 17 115 111 87 105 76 477 463 17 84 428 78 63 8
2 141 139 17 138 419 81 118 82 78 136 15 419 280 0 138 415 0 17 81 419 126 138 7
9 478 127 17 118 419 138 126 76 87 119 17 126 419 118 81 85 121 123 17 121 120 4
39 112 79 126 123 17 478 416 141 167 82 81 127 15 416 278 0 479 412 0 17 141 416
 69 478 61 84 139 17 167 416 478 42 79 439 165 17 42 416 167 48 40 442 181 17 48
 416 42 480 46 481 185 17 480 416 48 30 49 170 168 17 481 404 482 444 49 48 185
 15 404 589 0 482 400 0 17 482 404 446 481 52 51 174 17 444 404 481 446 46 45 17
6 17 446 404 444 482 43 54 183 17 51 483 170 192 49 482 174 15 483 721 0 39 427
 0 17 170 483 39 51 28 480 168 17 192 483 51 39 52 445 190 17 39 483 192 170 37
 484 199 17 445 425 195 54 37 192 190 17 195 425 16 445 34 485 193 17 16 425 27
 195 6 36 212 17 485 398 484 486 37 195 193 15 398 770 0 486 394 0 17 484 398 48
7 485 28 39 199 17 486 398 485 487 34 198 196 17 487 398 486 484 31 30 201 17 19
8 392 488 36 31 486 196 15 392 758 0 207 388 0 17 488 392 207 198 17 33 214 17 3
6 392 198 207 34 16 212 17 207 392 36 488 6 489 205 17 489 395 490 491 17 207 20
5 15 395 766 0 492 391 0 17 490 395 492 489 22 21 210 17 491 395 489 492 6 27 20
8 17 492 395 491 490 25 24 203 17 27 425 493 16 25 491 208 17 493 425 150 27 73
 144 142 17 150 425 60 493 70 494 148 17 144 495 24 75 25 493 142 15 495 726 0 2
4 397 0 17 24 495 189 144 22 492 203 17 75 495 144 189 73 496 154 17 189 495 75
 24 64 479 187 17 496 413 497 494 64 75 154 15 413 431 0 498 409 0 17 497 413 49
8 496 67 66 156 17 494 413 496 498 73 150 148 17 498 413 494 497 70 153 151 17 1
53 410 499 72 67 498 151 15 410 427 0 160 406 0 17 499 410 160 153 61 69 163 17
 72 410 153 160 70 60 161 17 160 410 72 499 58 63 158 17 60 425 147 150 58 72 16
1 17 147 425 447 60 94 476 145 17 476 428 63 96 58 147 145 17 63 428 84 476 61 1
60 158 17 69 416 66 141 67 499 163 17 66 416 479 69 64 497 156 17 479 416 21 66
 22 189 187 17 21 416 33 479 17 490 210 17 33 416 30 21 31 488 214 17 30 416 480
 33 28 487 201 17 129 422 451 448 88 96 124 15 422 120 0 129 418 0 17 451 422 45
9 129 91 90 130 17 448 422 129 459 94 447 449 17 459 422 448 451 97 93 457 15 43
1 1302 0 500 427 501 17 500 431 500 500 0 248 244 15 501 1260 0 502 427 503 17 5
02 501 502 502 0 233 229 15 503 1218 0 504 427 483 17 504 503 504 504 0 218 216
 17 218 389 218 218 0 504 216 15 389 1240 0 218 385 505 15 505 1241 0 506 385 0
 17 506 505 506 506 0 221 219 17 221 386 221 221 0 506 219 15 386 1233 0 221 377
 507 15 507 1234 0 508 377 0 17 508 507 508 508 0 224 222 17 224 379 224 224 0 5
08 222 15 379 1223 0 224 375 509 15 509 1037 0 510 375 0 17 510 509 510 510 0 23
1 225 17 231 383 231 231 0 510 225 15 383 1031 0 231 378 511 15 511 1032 0 512 3
78 0 17 512 511 512 512 0 228 226 17 228 381 228 228 0 512 226 15 381 1029 0 228
 373 0 17 233 374 233 233 0 502 229 15 374 1282 0 233 370 513 15 513 1283 0 514
 370 0 17 514 513 514 514 0 236 234 17 236 371 236 236 0 514 234 15 371 1275 0 2
36 362 515 15 515 1276 0 516 362 0 17 516 515 516 516 0 239 237 17 239 364 239 2
39 0 516 237 15 364 1265 0 239 360 517 15 517 1070 0 518 360 0 17 518 517 518 51
8 0 246 240 17 246 368 246 246 0 518 240 15 368 1064 0 246 363 519 15 519 1065 0
 520 363 0 17 520 519 520 520 0 243 241 17 243 366 243 243 0 520 241 15 366 1062
 0 243 358 0 17 248 359 248 248 0 500 244 15 359 1324 0 248 355 521 15 521 1325
 0 522 355 0 17 522 521 522 522 0 251 249 17 251 356 251 251 0 522 249 15 356 13
17 0 251 347 523 15 523 1318 0 524 347 0 17 524 523 524 524 0 254 252 17 254 349
 254 254 0 524 252 15 349 1307 0 254 345 525 15 525 1103 0 526 345 0 17 526 525
 526 526 0 261 255 17 261 353 261 261 0 526 255 15 353 1097 0 261 348 527 15 527
 1098 0 528 348 0 17 528 527 528 528 0 258 256 17 258 351 258 258 0 528 256 15 3
51 1095 0 258 343 0 15 401 1428 0 529 397 530 17 529 401 529 529 0 293 289 15 53
0 1386 0 531 397 532 17 531 530 531 531 0 278 274 15 532 1344 0 533 397 495 17 5
33 532 533 533 0 263 259 17 263 344 263 263 0 533 259 15 344 1366 0 263 340 534
 15 534 1367 0 535 340 0 17 535 534 535 535 0 266 264 17 266 341 266 266 0 535 2
64 15 341 1359 0 266 332 536 15 536 1360 0 537 332 0 17 537 536 537 537 0 269 26
7 17 269 334 269 269 0 537 267 15 334 1349 0 269 330 538 15 538 1136 0 539 330 0
 17 539 538 539 539 0 276 270 17 276 338 276 276 0 539 270 15 338 1130 0 276 333
 540 15 540 1131 0 541 333 0 17 541 540 541 541 0 273 271 17 273 336 273 273 0 5
41 271 15 336 1128 0 273 328 0 17 278 329 278 278 0 531 274 15 329 1408 0 278 32
5 542 15 542 1409 0 543 325 0 17 543 542 543 543 0 281 279 17 281 326 281 281 0
 543 279 15 326 1401 0 281 317 544 15 544 1402 0 545 317 0 17 545 544 545 545 0
 284 282 17 284 319 284 284 0 545 282 15 319 1391 0 284 315 546 15 546 1169 0 54
7 315 0 17 547 546 547 547 0 291 285 17 291 323 291 291 0 547 285 15 323 1163 0
 291 318 548 15 548 1164 0 549 318 0 17 549 548 549 549 0 288 286 17 288 321 288
 288 0 549 286 15 321 1161 0 288 313 0 17 293 314 293 293 0 529 289 15 314 1450
 0 293 307 550 15 550 1451 0 551 307 0 17 551 550 551 551 0 296 294 17 296 308 2
96 296 0 551 294 15 308 1443 0 296 306 552 15 552 1444 0 300 306 0 17 300 552 30
0 300 0 298 297 15 304 1197 0 553 10 0 17 553 304 553 553 0 13 5 17 13 11 13 13
 0 553 5 15 11 1194 0 13 4 0 1 0 
