**ABCDEFGHIJKLMNOPQRSTUVWXYZabcdefghijklmnopqrstuvwxyz**************************
**PARASOLID !"#$%&'()*+,-./:;<=>?@[\]^_`{|}~0123456789**************************
**PART1;MC=sun;MC_MODEL=Sun-3;MC_ID=unknown;OS=SunOS;OS_RELEASE=unknown;FRU=sdl_
parasolid_test_sun;APPL=unknown;SITE=sdl-cambridge-u.k.;USER=kramer;FORMAT=text;
GUISE=transmit;KEY=olps_workpiece_out;FILE=olps_workpiece_out.xmt_txt;DATE=30-ma
y-1990;
**PART2;SCH=SCH_210_1012;USFLD_SIZE=0;
**PART3;
**END_OF_HEADER*****************************************************************
T47 : TRANSMIT FILE created by modeller version 22012 SCH_210_10120 12 1 4312 0
 0 0 0 0 1e3 1e-8 2 2 0 0 0 1 3 102 18 2 olps_workpiece_out13 3 2 0 1 0 4 5 6 7
 8 9 14 4 4267 0 10 0 11 3 7 -16 5 4280 0 12 0 13 8 18 6 3838 0 14 0 15 9 50 7 4
282 0 4 16 0 0 +1.85 1.5 .3 0 0 -1 31 8 4289 0 5 17 0 0 +1.85 1.5 .3 0 0 1 .5 29
 9 4090 0 6 18 0 3.9 2 1 29 18 4091 0 15 19 9 4 2.1 1 18 15 3839 0 20 6 21 18 29
 19 4092 0 21 22 18 5.65 2.1 1 18 21 3840 0 23 15 24 19 29 22 4093 0 24 25 19 5.
75 2 1 18 24 3841 0 26 21 27 22 29 25 4094 0 27 28 22 5.75 .9 1 18 27 3842 0 29
 24 30 25 29 28 4095 0 30 31 25 3.9 .9 1 18 30 3843 0 32 27 33 28 29 31 4096 0 3
3 34 28 3.6 .6 1 18 33 3844 0 35 30 36 31 29 34 4098 0 36 37 31 6.05 .6 1 18 36
 3846 0 38 33 39 34 29 37 4136 0 39 40 34 6.45 .6 .39 18 39 3884 0 41 36 42 37 2
9 40 4137 0 42 43 37 2.85 1 .39 18 42 3885 0 44 39 45 40 29 43 4138 0 45 46 40 2
.85 1.5 .39 18 45 3886 0 47 42 48 43 29 46 4139 0 48 49 43 3.6 .6 .39 18 48 3887
 0 50 45 51 46 29 49 4140 0 51 52 46 3.25 .6 .39 18 51 3888 0 53 48 54 49 29 52
 4141 0 54 55 49 3.9 2 .39 18 54 3889 0 56 51 57 52 29 55 4142 0 57 58 52 3.9 .9
 .39 18 57 3890 0 59 54 60 55 29 58 4143 0 60 61 55 5.65 2.1 .39 18 60 3891 0 62
 57 63 58 29 61 4144 0 63 64 58 4 2.1 .39 18 63 3892 0 65 60 66 61 29 64 4145 0
 66 67 61 5.75 .9 .39 18 66 3893 0 68 63 69 64 29 67 4146 0 69 70 64 5.75 2 .39
 18 69 3894 0 71 66 72 67 29 70 4148 0 72 73 67 6.05 .6 .39 18 72 3896 0 74 69 7
5 70 29 73 4153 0 75 76 70 .85 1.5 .39 18 75 3901 0 77 72 78 73 29 76 4154 0 78
 79 73 .85 1 .39 18 78 3902 0 80 75 81 76 29 79 4155 0 81 82 76 .45 .6 .39 18 81
 3903 0 83 78 84 79 29 82 4157 0 84 85 79 .45 .6 1.1 18 84 3905 0 86 81 87 82 29
 85 4172 0 87 88 82 3.25 .6 1.1 18 87 3920 0 89 84 90 85 29 88 4173 0 90 91 85 2
.85 1 1.1 18 90 3921 0 92 87 93 88 29 91 4174 0 93 94 88 2.85 1.5 1.1 18 93 3922
 0 95 90 96 91 29 94 4175 0 96 97 91 .85 1.5 1.1 18 96 3923 0 98 93 99 94 29 97
 4176 0 99 100 94 .85 1 1.1 18 99 3924 0 101 96 102 97 29 100 3547 0 102 103 97
 .05 .6 .39 18 102 3545 0 104 99 105 100 29 103 3200 0 105 106 100 6.45 .6 1.49
 18 105 3198 0 107 102 108 103 29 106 3145 0 108 109 103 .05 .6 1.49 18 108 3049
 0 110 105 111 106 29 109 2736 0 111 112 106 6.45 2 .39 18 111 2514 0 113 108 11
4 109 29 112 2737 0 114 115 109 .05 2 .39 18 114 2515 0 116 111 117 112 29 115 2
738 0 117 118 112 0 2 .39 18 117 2516 0 119 114 120 115 29 118 2739 0 120 121 11
5 -4163336342344335e-32 3 .39 18 120 2517 0 122 117 123 118 29 121 2740 0 123 12
4 118 6.5 3 .39 18 123 2518 0 125 120 126 121 29 124 2124 0 126 127 121 6.5 2 .3
9 18 126 2122 0 128 123 129 124 29 127 871 0 129 130 124 .05 .2 1 18 129 813 0 1
31 126 132 127 29 130 872 0 132 133 127 6.45 .2 1 18 132 814 0 134 129 135 130 2
9 133 873 0 135 136 130 6.45 612303176911189e-31 1 18 135 815 0 137 132 138 133
 29 136 874 0 138 139 133 .05 612303176911189e-31 1 18 138 816 0 140 135 141 136
 29 139 876 0 141 142 136 6.45 3061515884555945e-32 .5 18 141 818 0 143 138 144
 139 29 142 877 0 144 145 139 6.45 .2 .5 18 144 819 0 146 141 147 142 29 145 878
 0 147 148 142 .05 .2 .5 18 147 820 0 149 144 150 145 29 148 718 0 150 151 145 .
05 3061515884555945e-32 .5 18 150 716 0 152 147 153 148 29 151 682 0 153 154 148
 6.45 .7 0 18 153 632 0 155 150 156 151 29 154 684 0 156 157 151 .05 .7 .01 18 1
56 634 0 158 153 159 154 29 157 685 0 159 160 154 6.45 .7 .01 18 159 635 0 161 1
56 162 157 29 160 688 0 162 163 157 6.45 612303176911189e-33 .01 18 162 638 0 16
4 159 165 160 29 163 689 0 165 166 160 .05 612303176911189e-33 .01 18 165 639 0
 167 162 168 163 29 166 549 0 168 169 163 .05 .7 0 18 168 547 0 170 165 171 166
 29 169 525 0 171 172 166 6.45 912331733597671e-31 1.49 18 171 475 0 173 168 174
 169 29 172 387 0 174 175 169 .05 912331733597671e-31 1.49 18 174 385 0 176 171
 177 172 29 175 361 0 177 178 172 6.45 2 -1143833291972206e-32 18 177 311 0 179
 174 180 175 29 178 222 0 180 181 175 6.5 2 -1224606353822376e-31 18 180 220 0 1
82 177 183 178 29 181 200 0 183 184 178 -4163336342344335e-32 2 0 18 183 150 0 1
85 180 186 181 29 184 70 0 186 187 181 .05 2 -571916645986104e-32 18 186 68 0 18
8 183 189 184 29 187 37 0 190 191 184 0 3 0 18 190 10 0 192 189 0 187 29 191 36
 0 189 0 187 6.5 3 0 18 189 12 0 193 186 190 191 17 193 194 195 182 189 196 197
 15 194 2131 0 128 198 0 17 195 194 128 193 123 199 200 17 182 194 193 128 180 2
01 202 17 196 203 204 205 180 193 197 16 197 221 0 193 206 207 208 16 206 238 0
 209 202 197 210 16 207 129 0 211 197 212 213 30 208 223 0 197 213 210 0 +6.5 1.
5 0 0 1 0 30 213 179 0 207 214 208 0 +.05 1.5 0 0 -1 0 30 210 240 0 206 208 215
 0 +3.25 2 0 1 0 0 30 215 339 0 202 210 216 0 +6.5 2 -3061515884555945e-32 0 612
303176911189e-31 1 16 202 289 0 201 217 206 215 30 216 388 0 217 215 218 0 +.05
 459227382683392e-31 .75 0 -612303176911189e-31 -1 16 217 386 0 219 220 202 216
 30 218 410 0 220 216 221 0 +.05 2 1.49 0 1 -612303176911189e-31 16 220 408 0 22
2 223 217 218 30 221 505 0 223 218 224 0 +3.25 912331733597671e-31 1.49 -1 0 0 1
6 223 455 0 176 225 220 221 30 224 546 0 225 221 226 0 +6.45 1.5 0 0 1 0 16 225
 544 0 227 228 223 224 30 226 563 0 228 224 229 0 +6.45 459227382683392e-31 .75
 0 612303176911189e-31 1 16 228 561 0 230 231 225 226 30 229 572 0 231 226 232 0
 +.05 .7 .75 0 612303176911189e-31 1 16 231 570 0 233 234 228 229 30 232 669 0 2
34 229 235 0 +3.25 612303176911189e-33 .01 1 0 0 16 234 619 0 164 236 231 232 30
 235 664 0 236 232 237 0 +3.25 .7 .01 -1 0 0 16 236 614 0 158 238 234 235 30 237
 662 0 238 235 239 0 +3.25 .7 0 1 0 0 16 238 612 0 240 241 236 237 30 239 660 0
 241 237 242 0 +6.45 .7 .75 0 -612303176911189e-31 -1 16 241 610 0 155 243 238 2
39 30 242 659 0 243 239 244 0 +.05 2 .00999999999999989 0 -1 612303176911189e-31
 16 243 609 0 167 245 241 242 30 244 658 0 245 242 246 0 +6.45 2 .00999999999999
989 0 1 -612303176911189e-31 16 245 608 0 161 247 243 244 30 246 711 0 247 244 2
48 0 +6.45 459227382683392e-31 .75 0 612303176911189e-31 1 16 247 709 0 249 250
 245 246 30 248 719 0 250 246 251 0 +.05 459227382683392e-31 .75 0 -612303176911
189e-31 -1 16 250 717 0 252 253 247 248 30 251 733 0 253 248 254 0 +.05 2 .5 0 1
 -612303176911189e-31 16 253 731 0 255 256 250 251 30 254 858 0 256 251 257 0 +3
.25 .2 .5 1 0 0 16 256 800 0 258 259 253 254 30 257 856 0 259 254 260 0 +3.25 30
61515884555945e-32 .5 -1 0 0 16 259 798 0 152 261 256 257 30 260 853 0 261 257 2
62 0 +6.45 2 .5 0 -1 612303176911189e-31 16 261 795 0 143 263 259 260 30 262 852
 0 263 260 264 0 +3.25 612303176911189e-31 1 1 0 0 16 263 794 0 137 265 261 262
 30 264 850 0 265 262 266 0 +3.25 .2 1 -1 0 0 16 265 792 0 267 268 263 264 30 26
6 848 0 268 264 269 0 +.05 2 1 0 -1 612303176911189e-31 16 268 790 0 140 270 265
 266 30 269 847 0 270 266 271 0 +6.45 2 1 0 1 -612303176911189e-31 16 270 789 0
 134 272 268 269 30 271 844 0 272 269 273 0 +.05 .2 .75 0 612303176911189e-31 1
 16 272 786 0 131 274 270 271 30 273 843 0 274 271 275 0 +6.45 .2 .75 0 -6123031
76911189e-31 -1 16 274 785 0 146 276 272 273 31 275 1219 0 276 273 277 0 +.25 12
24606353822376e-32 .2 0 -1 0 .125 16 276 1216 0 278 279 274 275 31 277 1254 0 27
9 275 280 0 +.25 .2 .2 0 -1 612303176911189e-31 .125 16 279 1245 0 281 282 276 2
77 31 280 1225 0 282 277 283 0 -.25 .2 .2 0 1 -612303176911189e-31 .0983 16 282
 1222 0 284 285 279 280 31 283 1048 0 286 280 287 0 +.25 .759064598850409 .2 0 -
1 612303176911189e-31 1e-6 16 286 1039 0 288 289 285 283 31 287 1050 0 285 283 2
90 0 +.25 .7 .2 0 -1 612303176911189e-31 .0983 16 285 1041 0 291 286 282 287 31
 290 1261 0 289 287 292 0 +3.25 1224606353822376e-32 .2 0 -1 0 .125 16 289 1258
 0 293 294 286 290 31 292 1296 0 294 290 295 0 +3.25 .2 .2 0 -1 612303176911189e
-31 .125 16 294 1287 0 296 297 289 292 31 295 1267 0 297 292 298 0 -3.25 .2 .2 0
 1 -612303176911189e-31 .0983 16 297 1264 0 299 300 294 295 31 298 1081 0 301 29
5 302 0 +3.25 .759064598850409 .2 0 -1 612303176911189e-31 1e-6 16 301 1072 0 30
3 304 300 298 31 302 1083 0 300 298 305 0 +3.25 .7 .2 0 -1 612303176911189e-31 .
0983 16 300 1074 0 306 301 297 302 31 305 1303 0 304 302 307 0 +6.25 12246063538
22376e-32 .2 0 -1 0 .125 16 304 1300 0 308 309 301 305 31 307 1338 0 309 305 310
 0 +6.25 .2 .2 0 -1 612303176911189e-31 .125 16 309 1329 0 311 312 304 307 31 31
0 1309 0 312 307 313 0 -6.25 .2 .2 0 1 -612303176911189e-31 .0983 16 312 1306 0
 314 315 309 310 31 313 1114 0 316 310 317 0 +6.25 .759064598850409 .2 0 -1 6123
03176911189e-31 1e-6 16 316 1105 0 318 319 315 313 31 317 1116 0 315 313 320 0 +
6.25 .7 .2 0 -1 612303176911189e-31 .0983 16 315 1107 0 321 316 312 317 31 320 1
345 0 319 317 322 0 +.25 795994129984545e-31 1.3 0 -1 0 .125 16 319 1342 0 323 3
24 316 320 31 322 1380 0 324 320 325 0 +.25 .2 1.3 0 -1 612303176911189e-31 .125
 16 324 1371 0 326 327 319 322 31 325 1351 0 327 322 328 0 -.25 .2 1.3 0 1 -6123
03176911189e-31 .0983 16 327 1348 0 329 330 324 325 31 328 1387 0 330 325 331 0
 +3.25 795994129984545e-31 1.3 0 -1 0 .125 16 330 1384 0 332 333 327 328 31 331
 1422 0 333 328 334 0 +3.25 .2 1.3 0 -1 612303176911189e-31 .125 16 333 1413 0 3
35 336 330 331 31 334 1393 0 336 331 337 0 -3.25 .2 1.3 0 1 -612303176911189e-31
 .0983 16 336 1390 0 338 339 333 334 31 337 1429 0 339 334 340 0 +6.25 795994129
984545e-31 1.3 0 -1 0 .125 16 339 1426 0 341 342 336 337 31 340 1464 0 342 337 3
43 0 +6.25 .2 1.3 0 -1 612303176911189e-31 .125 16 342 1455 0 344 345 339 340 31
 343 1435 0 345 340 346 0 -6.25 .2 1.3 0 1 -612303176911189e-31 .0983 16 345 143
2 0 347 348 342 343 30 346 2147 0 348 343 349 0 +0 2 -3061515884555945e-32 0 -61
2303176911189e-31 -1 16 348 2145 0 350 351 345 346 30 349 2178 0 351 346 352 0 +
6.45 2 .75 0 -612303176911189e-31 -1 16 351 2176 0 179 353 348 349 30 352 2181 0
 353 349 354 0 +6.95 2 .39 -1 0 0 16 353 2179 0 113 355 351 352 30 354 2643 0 35
5 352 356 0 +6.5 1.5 .39 0 1 0 16 355 2421 0 357 358 353 354 30 356 2642 0 358 3
54 359 0 +3.25 3 .39 -1 0 0 16 358 2420 0 360 361 355 356 30 359 2641 0 361 356
 362 0 +0 1.5 .39 0 -1 0 16 361 2419 0 363 364 358 359 30 362 2640 0 364 359 365
 0 +-.45 2 .39 -1 0 0 16 364 2418 0 119 366 361 362 30 365 2638 0 366 362 367 0
 +6.45 2 .39 0 -1 0 16 366 2416 0 41 368 364 365 31 367 2839 0 368 365 369 0 -.2
5 .6 1.3 0 -1 0 .0983 16 368 2836 0 370 371 366 367 31 369 2845 0 371 367 372 0
 -3.25 .6 1.3 0 -1 0 .0983 16 371 2842 0 373 374 368 369 30 372 3102 0 374 369 3
75 0 +.05 .6 1.1 0 0 -1 16 374 3006 0 104 376 371 372 30 375 3201 0 376 372 377
 0 +6.45 2 1.49 0 -1 612303176911189e-31 16 376 3199 0 173 378 374 375 30 377 32
14 0 378 375 379 0 +3.25 .6 1.49 -1 0 0 16 378 3212 0 110 380 376 377 31 379 322
3 0 380 377 381 0 -6.25 .6 1.3 0 -1 0 .0983 16 380 3220 0 382 383 378 379 30 381
 3495 0 383 379 384 0 +5.05 .6 1 1 0 0 16 383 3401 0 385 386 380 381 30 384 3551
 0 386 381 387 0 +.05 2 .39 0 1 0 16 386 3549 0 116 388 383 384 30 387 3557 0 38
8 384 389 0 +6.45 .6 .75 0 0 1 16 388 3555 0 107 390 386 387 30 389 3570 0 390 3
87 391 0 +1.85 .6 1.1 1 0 0 16 390 3568 0 392 393 388 389 30 391 4085 0 393 389
 394 0 +.85 .6 1.1 0 1 0 16 393 3833 0 395 396 390 391 30 394 4084 0 396 391 397
 0 +2.85 2.5 1.1 0 -1 0 16 396 3832 0 398 399 393 394 31 397 4075 0 399 394 400
 0 -.45 1 1.1 0 0 -1 .4 16 399 3823 0 401 402 396 397 31 400 4074 0 402 397 403
 0 -3.25 1 1.1 0 0 -1 .4 16 402 3822 0 404 405 399 400 30 403 4067 0 405 400 406
 0 +-.25 .6 .39 1 0 0 16 405 3815 0 407 408 402 403 30 406 4066 0 408 403 409 0
 +.45 .6 .39 0 0 1 16 408 3814 0 410 411 405 406 30 409 4064 0 411 406 412 0 +.8
5 .6 .39 0 1 0 16 411 3812 0 413 414 408 409 30 412 4061 0 414 409 415 0 +5.75 .
6 .39 1 0 0 16 414 3809 0 416 417 411 412 30 415 4060 0 417 412 418 0 +5.75 2.1
 .39 0 -1 0 16 417 3808 0 419 420 414 415 30 418 4059 0 420 415 421 0 +3.9 2.1 .
39 1 0 0 16 420 3807 0 422 423 417 418 30 421 4058 0 423 418 424 0 +3.9 .6 .39 0
 1 0 16 423 3806 0 425 426 420 421 30 424 4057 0 426 421 427 0 +2.85 .6 .39 1 0
 0 16 426 3805 0 428 429 423 424 30 427 4056 0 429 424 430 0 +2.85 2.5 .39 0 -1
 0 16 429 3804 0 431 432 426 427 31 430 4055 0 432 427 433 0 +.45 1 .39 0 0 -1 .
4 16 432 3803 0 434 435 429 430 31 433 4054 0 435 430 436 0 +3.25 1 .39 0 0 -1 .
4 16 435 3802 0 437 438 432 433 31 436 4053 0 438 433 439 0 +3.6 .9 .39 0 0 -1 .
3 16 438 3801 0 440 441 435 436 31 439 4052 0 441 436 442 0 +6.05 .9 .39 0 0 -1
 .3 16 441 3800 0 443 444 438 439 30 442 4040 0 444 439 445 0 +5.75 .9 .39 0 0 1
 16 444 3788 0 446 447 441 442 30 445 4038 0 447 442 448 0 +5.65 2.1 .39 0 0 1 1
6 447 3786 0 449 450 444 445 30 448 4036 0 450 445 451 0 +3.9 2 .39 0 0 1 16 450
 3784 0 452 453 447 448 30 451 4035 0 453 448 454 0 +3.25 .6 .39 0 0 -1 16 453 3
783 0 455 456 450 451 30 454 4034 0 456 451 457 0 +3.6 .6 .39 0 0 1 16 456 3782
 0 458 459 453 454 30 457 4033 0 459 454 460 0 +2.85 1.5 .39 0 0 -1 16 459 3781
 0 461 462 456 457 30 460 4032 0 462 457 463 0 +2.85 1 .39 0 0 1 16 462 3780 0 4
64 465 459 460 30 463 4031 0 465 460 466 0 +.85 1 .39 0 0 -1 16 465 3779 0 467 4
68 462 463 30 466 4030 0 468 463 469 0 +.85 1.5 .39 0 0 1 16 468 3778 0 470 471
 465 466 31 469 4028 0 471 466 472 0 -5.65 2 .39 0 0 -1 .1 16 471 3776 0 473 474
 468 469 31 472 4026 0 474 469 475 0 -4 2 .39 0 0 -1 .1 16 474 3774 0 476 477 47
1 472 31 475 4025 0 477 472 478 0 -1.85 1.5 .39 0 0 -1 1 16 477 3773 0 479 480 4
74 475 31 478 4024 0 480 475 481 0 +1.85 1.5 1.1 0 0 -1 1 16 480 3772 0 482 483
 477 478 30 481 3982 0 483 478 484 0 +6.05 .6 .39 0 0 -1 16 483 3730 0 485 486 4
80 481 30 484 3977 0 486 481 487 0 +3.9 .9 .39 0 0 -1 16 486 3725 0 488 489 483
 484 31 487 3976 0 489 484 490 0 +3.6 .9 1 0 0 -1 .3 16 489 3724 0 35 491 486 48
7 31 490 3974 0 491 487 492 0 +6.05 .9 1 0 0 -1 .3 16 491 3722 0 29 493 489 490
 30 492 3973 0 493 490 494 0 +5.75 2 .39 0 0 -1 16 493 3721 0 495 496 491 492 30
 494 3972 0 496 492 497 0 +5.75 1.4 1 0 1 0 16 496 3720 0 26 498 493 494 30 497
 3970 0 498 494 499 0 +4 2.1 .39 0 0 -1 16 498 3718 0 500 501 496 497 30 499 396
9 0 501 497 502 0 +5.05 2.1 1 -1 0 0 16 501 3717 0 20 503 498 499 30 502 3967 0
 503 499 504 0 +3.9 1.4 1 0 -1 0 16 503 3715 0 32 505 501 502 31 504 3966 0 505
 502 506 0 +5.65 2 1 0 0 -1 .1 16 505 3714 0 507 508 503 504 31 506 3965 0 508 5
04 509 0 +4 2 1 0 0 -1 .1 16 508 3713 0 510 511 505 506 31 509 4206 0 511 506 51
2 0 +4.4 1.6 1 0 0 -1 .25 16 511 4203 0 513 514 508 509 31 512 4229 0 514 509 51
5 0 +4.4 1.6 .4 0 0 1 .25 16 514 4222 0 516 517 511 512 31 515 4227 0 517 512 51
8 0 +4.4 1.6 .24978484524311 0 0 1 1e-6 16 517 4220 0 519 520 514 515 31 518 423
3 0 520 515 521 0 +5.25 1.6 1 0 0 -1 .25 16 520 4230 0 522 523 517 518 31 521 42
56 0 523 518 524 0 +5.25 1.6 .4 0 0 1 .25 16 523 4249 0 525 526 520 521 31 524 4
254 0 526 521 17 0 +5.25 1.6 .24978484524311 0 0 1 1e-6 16 526 4247 0 527 13 523
 524 31 17 4260 0 13 524 8 0 +1.85 1.5 1.1 0 0 -1 .5 16 13 4257 0 528 5 526 17 1
7 528 529 528 528 0 530 13 15 529 4258 0 528 531 532 17 530 533 530 530 0 528 13
 15 533 4275 0 530 10 534 14 10 4274 0 535 4 533 3 16 -15 534 4276 0 536 10 0 17
 536 534 536 536 0 12 5 17 12 11 12 12 0 536 5 15 11 4268 0 12 4 0 14 535 4237 0
 537 10 538 3 539 -51 16 4283 0 10 540 7 0 +1.85 1.5 .3 0 0 1 .5 52 540 4250 0 5
37 539 16 0 +5.25 1.6 .24978484524311 0 0 1 1e-6 .857166391194846 .5150395885813
1 14 537 4239 0 541 535 542 3 540 -50 539 4251 0 535 543 540 0 +5.25 1.6 .249784
84524311 0 0 -1 51 543 4252 0 541 544 539 0 +5.25 1.6 .4 0 0 1 .25 14 541 4244 0
 545 537 546 3 543 -52 544 4223 0 547 548 543 0 +4.4 1.6 .24978484524311 0 0 1 1
e-6 .857166391194846 .51503958858131 14 547 4212 0 549 545 550 3 544 -50 548 422
4 0 545 551 544 0 +4.4 1.6 .24978484524311 0 0 -1 14 545 4210 0 547 541 552 3 54
8 -51 551 4225 0 549 553 548 0 +4.4 1.6 .4 0 0 1 .25 14 549 4217 0 554 547 555 3
 551 -51 553 3929 0 554 556 551 0 +4 2 .39 0 0 -1 .1 14 554 3641 0 557 549 558 3
 553 +51 556 3930 0 557 559 553 0 +5.65 2 .39 0 0 -1 .1 14 557 3643 0 560 554 56
1 3 556 +50 559 3931 0 560 562 556 0 +3.9 1.35 .39 1 0 0 14 560 3645 0 563 557 5
64 3 559 -50 562 3932 0 563 565 559 0 +4.825 2.1 .39 0 -1 0 14 563 3647 0 566 56
0 567 3 562 -50 565 3933 0 566 568 562 0 +5.75 1.35 .39 -1 0 0 14 566 3649 0 569
 563 570 3 565 -51 568 3934 0 569 571 565 0 +6.05 .9 .39 0 0 1 .3 14 569 3651 0
 572 566 573 3 568 -51 571 3935 0 572 574 568 0 +3.6 .9 .39 0 0 1 .3 14 572 3653
 0 575 569 576 3 571 -51 574 3941 0 575 577 571 0 +.45 1 .39 0 0 1 .4 14 575 366
5 0 578 572 579 3 574 -51 577 3942 0 578 580 574 0 +1.85 1.5 .39 0 0 -1 1 14 578
 3667 0 581 575 582 3 577 +51 580 3943 0 581 583 577 0 +3.25 1 .39 0 0 1 .4 14 5
81 3669 0 584 578 585 3 580 -50 583 3952 0 584 586 580 0 +.85 1.55 .39 1 0 0 14
 584 3687 0 587 581 588 3 583 -50 586 3953 0 587 589 583 0 +2.85 1.55 .39 -1 0 0
 14 587 3689 0 590 584 591 3 586 -50 589 3437 0 590 592 586 0 +5.05 1.4 1 0 0 -1
 14 590 3328 0 593 587 594 3 589 -50 592 3082 0 593 595 589 0 +1.85 .6 1.1 0 -1
 0 14 593 2968 0 531 590 596 3 592 -50 595 3085 0 531 597 592 0 +1.85 1.6 1.1 0
 0 -1 14 531 2976 0 598 593 529 3 595 -50 597 2581 0 598 599 595 0 +.84 .61 .39
 0 0 -1 14 598 2332 0 600 531 601 3 597 -51 599 1210 0 600 602 597 0 +6.25 .7 1.
3 0 -1 612303176911189e-31 .0983 14 600 1200 0 603 598 604 3 599 -50 602 1457 0
 603 605 599 0 +6.25 .2 1.3 0 1 -612303176911189e-31 14 603 1442 0 606 600 607 3
 602 -51 605 1458 0 606 608 602 0 +6.25 .2 1.3 0 -1 612303176911189e-31 .125 14
 606 1449 0 609 603 610 3 605 -51 608 1177 0 609 611 605 0 +3.25 .7 1.3 0 -1 612
303176911189e-31 .0983 14 609 1167 0 612 606 613 3 608 -50 611 1415 0 612 614 60
8 0 +3.25 .2 1.3 0 1 -612303176911189e-31 14 612 1400 0 615 609 616 3 611 -51 61
4 1416 0 615 617 611 0 +3.25 .2 1.3 0 -1 612303176911189e-31 .125 14 615 1407 0
 618 612 619 3 614 -51 617 1144 0 618 620 614 0 +.25 .7 1.3 0 -1 612303176911189
e-31 .0983 14 618 1134 0 621 615 622 3 617 -50 620 1373 0 621 623 617 0 +.25 .2
 1.3 0 1 -612303176911189e-31 14 621 1358 0 624 618 625 3 620 -51 623 1374 0 624
 626 620 0 +.25 .2 1.3 0 -1 612303176911189e-31 .125 14 624 1365 0 627 621 628 3
 623 -51 626 1111 0 629 630 623 0 +6.25 .7 .2 0 -1 612303176911189e-31 .0983 14
 629 1101 0 631 632 633 3 626 -50 630 1110 0 627 634 626 0 +6.25 .75906459885040
9 .2 0 1 -612303176911189e-31 14 627 1094 0 632 624 635 3 630 -52 634 1109 0 632
 636 630 0 +6.25 .759064598850409 .2 0 -1 612303176911189e-31 1e-6 .857164987595
668 .51504192454607 14 632 1096 0 629 627 637 3 634 -50 636 1331 0 631 638 634 0
 +6.25 .2 .2 0 1 -612303176911189e-31 14 631 1316 0 639 629 640 3 636 -51 638 13
32 0 639 641 636 0 +6.25 .2 .2 0 -1 612303176911189e-31 .125 14 639 1323 0 642 6
31 643 3 638 -51 641 1078 0 644 645 638 0 +3.25 .7 .2 0 -1 612303176911189e-31 .
0983 14 644 1068 0 646 647 648 3 641 -50 645 1077 0 642 649 641 0 +3.25 .7590645
98850409 .2 0 1 -612303176911189e-31 14 642 1061 0 647 639 650 3 645 -52 649 107
6 0 647 651 645 0 +3.25 .759064598850409 .2 0 -1 612303176911189e-31 1e-6 .85716
4987595668 .51504192454607 14 647 1063 0 644 642 652 3 649 -50 651 1289 0 646 65
3 649 0 +3.25 .2 .2 0 1 -612303176911189e-31 14 646 1274 0 654 644 655 3 651 -51
 653 1290 0 654 656 651 0 +3.25 .2 .2 0 -1 612303176911189e-31 .125 14 654 1281
 0 657 646 658 3 653 -51 656 1045 0 659 660 653 0 +.25 .7 .2 0 -1 61230317691118
9e-31 .0983 14 659 1035 0 661 662 663 3 656 -50 660 1044 0 657 664 656 0 +.25 .7
59064598850409 .2 0 1 -612303176911189e-31 14 657 1028 0 662 654 665 3 660 -52 6
64 1043 0 662 666 660 0 +.25 .759064598850409 .2 0 -1 612303176911189e-31 1e-6 .
857164987595668 .51504192454607 14 662 1030 0 659 657 667 3 664 -50 666 1247 0 6
61 668 664 0 +.25 .2 .2 0 1 -612303176911189e-31 14 661 1232 0 669 659 670 3 666
 -51 668 1248 0 669 671 666 0 +.25 .2 .2 0 -1 612303176911189e-31 .125 14 669 12
39 0 672 661 673 3 668 -50 671 829 0 672 674 668 0 +3.25 .2 .75 0 1 -61230317691
1189e-31 14 672 757 0 675 669 676 3 671 -50 674 833 0 675 677 671 0 +3.25 .2 1 0
 612303176911189e-31 1 14 675 765 0 678 672 679 3 674 -50 677 835 0 678 680 674
 0 +3.25 .2 .5 0 -612303176911189e-31 -1 14 678 769 0 681 675 682 3 677 -50 680
 724 0 681 683 677 0 +3.25 0 0 0 -1 0 14 681 723 0 684 678 685 3 680 +50 683 648
 0 684 686 680 0 +3.25 .7 .01 0 612303176911189e-31 1 14 684 588 0 687 681 688 3
 683 -50 686 650 0 687 689 683 0 +3.25 .7 -.49 0 1 -612303176911189e-31 14 687 5
92 0 690 684 691 3 686 -50 689 488 0 690 692 686 0 +3.25 .7 1.49 0 -612303176911
189e-31 -1 14 690 430 0 693 687 694 3 689 -50 692 331 0 693 695 689 0 +6.45 2 .7
5 -1 0 0 14 693 277 0 696 690 697 3 692 -50 695 332 0 696 698 692 0 +6.95 2 .75
 0 1 -612303176911189e-31 14 696 279 0 699 693 700 3 695 -50 698 172 0 699 701 6
95 0 +-.45 2 .75 0 1 -612303176911189e-31 14 699 119 0 702 696 703 3 698 -50 701
 173 0 702 704 698 0 +.05 2 .75 1 0 0 14 702 121 0 705 699 706 3 701 -50 704 46
 0 705 707 701 0 +3.25 0 0 0 -1 0 14 705 30 0 708 702 709 3 704 +50 707 45 0 708
 710 704 0 +0 1.5 0 -1 0 0 14 708 27 0 711 705 712 3 707 +50 710 44 0 711 713 70
7 0 +3.25 3 0 0 1 0 14 711 24 0 714 708 715 3 710 +50 713 43 0 198 716 710 0 +6.
5 1.5 0 1 0 0 14 198 1 0 0 714 194 3 713 +50 716 34 0 714 0 713 0 +3.25 1.5 0 0
 0 -1 14 714 6 0 198 711 203 3 716 +15 203 552 0 170 714 0 17 170 203 188 717 16
8 240 238 17 188 203 185 170 186 211 207 17 717 203 170 204 153 227 225 17 240 6
91 718 719 153 170 238 15 691 593 0 158 687 0 17 718 691 158 240 159 155 241 17
 719 691 240 158 168 233 231 17 158 691 719 718 156 720 236 17 233 706 167 211 1
56 719 231 15 706 122 0 104 702 0 17 167 706 721 233 165 722 243 17 211 706 233
 723 168 188 207 17 723 706 211 116 186 724 212 17 116 706 723 104 114 725 386 1
7 724 703 119 726 114 723 212 16 212 131 0 724 207 727 214 16 727 72 0 726 212 7
28 729 30 214 181 0 212 729 213 0 +.05 2 .75 0 612303176911189e-31 1 30 729 74 0
 727 730 214 0 +3.25 2 0 1 0 0 30 730 49 0 728 731 729 0 +0 3 0 0 0 1 16 728 19
 0 732 727 200 730 30 731 48 0 200 733 730 0 +6.5 3 0 0 0 1 16 200 17 0 195 728
 734 731 30 733 42 0 735 736 731 0 +0 1.5 0 0 -1 0 16 735 11 0 737 734 0 733 30
 736 41 0 734 0 733 0 +3.25 3 0 -1 0 0 16 734 13 0 192 200 735 736 17 192 715 73
2 199 190 205 734 15 715 2140 0 125 711 0 17 732 715 125 192 120 738 728 17 199
 715 192 125 189 195 200 17 205 203 196 739 189 192 734 17 739 203 205 185 190 7
37 735 17 185 203 739 188 183 726 727 17 737 712 740 738 183 739 735 15 712 2149
 0 122 708 0 17 740 712 122 737 117 350 348 17 738 712 737 122 190 732 728 17 12
2 712 738 740 120 363 361 17 363 601 741 360 117 122 361 15 601 4309 0 742 598 0
 17 741 601 725 363 114 119 364 17 360 601 363 357 120 125 358 17 357 601 360 74
3 123 128 355 17 125 715 199 732 123 360 358 17 743 601 357 742 126 113 353 17 1
28 194 182 195 126 357 355 17 742 601 743 416 111 41 366 17 113 700 179 201 111
 743 353 15 700 280 0 201 696 0 17 179 700 209 113 177 744 351 17 201 700 113 20
9 126 182 202 17 209 700 201 179 180 204 206 17 204 203 717 196 177 209 206 17 7
44 697 41 227 111 179 351 15 697 278 0 41 693 0 17 41 697 107 744 39 742 366 17
 227 697 744 155 177 717 225 17 155 697 227 161 153 718 241 17 161 697 155 745 1
59 746 245 17 745 697 161 143 162 230 228 17 746 688 747 720 162 161 245 15 688
 589 0 747 684 0 17 747 688 722 746 165 164 234 17 720 688 746 722 159 158 236 1
7 722 688 720 747 156 167 243 17 164 748 230 252 162 747 234 15 748 721 0 152 70
5 0 17 230 748 152 164 141 745 228 17 252 748 164 152 165 721 250 17 152 748 252
 230 150 749 259 17 721 706 255 167 150 252 250 17 255 706 131 721 147 750 253 1
7 131 706 140 255 129 149 272 17 750 682 749 751 150 255 253 15 682 770 0 751 67
8 0 17 749 682 752 750 141 152 259 17 751 682 750 752 147 258 256 17 752 682 751
 749 144 143 261 17 258 676 753 149 144 751 256 15 676 758 0 267 672 0 17 753 67
6 267 258 132 146 274 17 149 676 258 267 147 131 272 17 267 676 149 753 129 754
 265 17 754 679 755 756 132 267 265 15 679 766 0 757 675 0 17 755 679 757 754 13
5 134 270 17 756 679 754 757 129 140 268 17 757 679 756 755 138 137 263 17 140 7
06 758 131 138 756 268 17 758 706 222 140 174 219 217 17 222 706 104 758 108 759
 220 17 219 760 137 176 138 758 217 15 760 726 0 137 681 0 17 137 760 249 219 13
5 757 263 17 176 760 219 249 174 761 223 17 249 760 176 137 171 762 247 17 761 6
94 763 759 171 176 223 15 694 431 0 763 690 0 17 763 694 110 761 105 173 376 17
 759 694 761 110 174 222 220 17 110 694 759 763 108 764 378 17 764 596 765 766 1
05 110 378 15 596 4312 0 764 593 767 17 765 596 768 764 39 107 388 17 766 596 76
4 769 108 104 374 17 769 596 766 83 102 407 405 17 104 706 116 222 102 766 374 1
7 83 596 769 770 81 410 408 17 407 601 80 725 81 769 405 17 80 601 413 407 78 43
4 432 17 725 601 407 741 102 116 386 17 413 601 47 80 75 771 411 17 434 579 410
 467 81 80 432 15 579 3666 0 434 575 0 17 410 579 401 434 84 83 408 17 467 579 4
34 401 78 772 465 17 401 579 467 410 99 86 399 17 772 588 395 771 99 467 465 15
 588 3688 0 771 584 0 17 395 588 77 772 96 101 393 17 771 588 772 77 78 413 411
 17 77 588 771 395 75 470 468 17 470 582 482 479 96 77 468 15 582 3668 0 479 578
 0 17 482 582 461 470 93 98 480 17 479 582 470 461 75 47 477 17 461 582 479 482
 45 773 459 17 47 601 431 413 45 479 477 17 431 601 53 47 42 774 429 17 53 601 4
28 431 51 437 435 17 774 591 773 44 45 431 429 15 591 3690 0 774 587 0 17 773 59
1 398 774 93 461 459 17 44 591 774 398 42 464 462 17 398 591 44 773 90 95 396 17
 464 585 404 437 90 44 462 15 585 3670 0 437 581 0 17 404 585 455 464 87 92 402
 17 437 585 464 455 42 53 435 17 455 585 437 404 51 89 453 17 89 596 770 775 87
 455 453 17 770 596 83 89 84 392 390 17 775 596 89 50 51 428 426 17 50 596 775 7
76 48 458 456 17 428 601 59 53 48 775 426 17 59 601 425 428 57 440 438 17 425 60
1 65 59 54 777 423 17 440 576 458 488 48 59 438 15 576 3654 0 488 572 0 17 458 5
76 778 440 33 50 456 17 488 576 440 778 57 779 486 17 778 576 488 458 30 35 489
 17 779 564 780 777 30 488 486 15 564 3646 0 56 560 0 17 780 564 56 779 6 32 503
 17 777 564 779 56 57 425 423 17 56 564 777 780 54 452 450 17 452 558 510 476 6
 56 450 15 558 3642 0 510 554 0 17 510 558 500 452 15 14 508 17 476 558 452 500
 54 65 474 17 500 558 476 510 63 781 498 17 65 601 422 425 63 476 474 17 422 601
 71 65 60 782 420 17 71 601 419 422 69 473 471 17 782 567 781 62 63 422 420 15 5
67 3648 0 62 563 0 17 781 567 783 782 15 500 498 17 62 567 782 783 60 449 447 17
 783 567 62 781 21 20 501 17 449 561 507 473 21 62 447 15 561 3644 0 507 557 0 1
7 507 561 495 449 24 23 505 17 473 561 449 495 60 71 471 17 495 561 473 507 69 7
84 493 17 784 570 785 786 24 495 493 15 570 3650 0 68 566 0 17 785 570 68 784 27
 26 496 17 786 570 784 68 69 419 417 17 68 570 786 785 66 446 444 17 419 601 74
 71 66 786 417 17 74 601 416 419 72 443 441 17 416 601 742 74 39 768 414 17 443
 573 446 485 66 74 441 15 573 3652 0 485 569 0 17 446 573 787 443 27 68 444 17 4
85 573 443 787 72 38 483 17 787 573 485 446 36 29 491 17 38 596 776 768 36 485 4
83 17 776 596 50 38 33 385 383 17 768 596 38 765 72 416 414 17 385 788 29 35 36
 776 383 15 788 3329 0 32 590 0 17 29 788 26 385 27 787 491 17 35 788 385 32 33
 778 489 17 32 788 35 14 30 780 503 17 14 788 32 20 6 510 508 17 20 788 14 23 15
 783 501 17 23 788 20 26 21 507 505 17 26 788 23 29 24 785 496 17 392 532 92 86
 87 770 390 15 532 2978 0 101 531 0 17 92 532 95 392 90 404 402 17 86 532 392 10
1 84 401 399 17 101 532 86 98 99 395 393 17 98 532 101 95 96 482 480 17 95 532 9
8 92 93 398 396 17 107 697 173 41 105 765 388 17 173 697 762 107 171 763 376 17
 762 697 134 173 135 249 247 17 134 697 146 762 132 755 270 17 146 697 143 134 1
44 753 274 17 143 697 745 146 141 752 261 15 767 2971 0 789 593 790 17 789 767 7
89 789 0 373 371 15 790 2969 0 791 593 792 17 791 790 791 791 0 370 368 15 792 3
332 0 793 593 0 17 793 792 793 793 0 382 380 17 382 604 382 382 0 793 380 15 604
 3221 0 382 600 794 15 794 1433 0 347 600 0 17 347 794 347 347 0 795 345 17 795
 796 795 795 0 347 345 15 796 1444 0 795 603 0 17 370 622 370 370 0 791 368 15 6
22 2837 0 370 618 797 15 797 1349 0 329 618 0 17 329 797 329 329 0 798 327 17 79
8 799 798 798 0 329 327 15 799 1360 0 798 621 0 17 373 613 373 373 0 789 371 15
 613 2843 0 373 609 800 15 800 1391 0 338 609 0 17 338 800 338 338 0 801 336 17
 801 802 801 801 0 338 336 15 802 1402 0 801 612 0 17 119 703 350 724 117 741 36
4 15 703 120 0 724 699 0 17 350 703 726 119 183 740 348 17 726 703 724 350 186 1
85 727 15 709 1302 0 803 705 804 17 803 709 803 803 0 308 304 15 804 1260 0 805
 705 806 17 805 804 805 805 0 293 289 15 806 1218 0 807 705 748 17 807 806 807 8
07 0 278 276 17 278 673 278 278 0 807 276 15 673 1240 0 278 669 808 15 808 1241
 0 809 669 0 17 809 808 809 809 0 281 279 17 281 670 281 281 0 809 279 15 670 12
33 0 281 661 810 15 810 1234 0 811 661 0 17 811 810 811 811 0 284 282 17 284 663
 284 284 0 811 282 15 663 1223 0 284 659 812 15 812 1037 0 813 659 0 17 813 812
 813 813 0 291 285 17 291 667 291 291 0 813 285 15 667 1031 0 291 662 814 15 814
 1032 0 815 662 0 17 815 814 815 815 0 288 286 17 288 665 288 288 0 815 286 15 6
65 1029 0 288 657 0 17 293 658 293 293 0 805 289 15 658 1282 0 293 654 816 15 81
6 1283 0 817 654 0 17 817 816 817 817 0 296 294 17 296 655 296 296 0 817 294 15
 655 1275 0 296 646 818 15 818 1276 0 819 646 0 17 819 818 819 819 0 299 297 17
 299 648 299 299 0 819 297 15 648 1265 0 299 644 820 15 820 1070 0 821 644 0 17
 821 820 821 821 0 306 300 17 306 652 306 306 0 821 300 15 652 1064 0 306 647 82
2 15 822 1065 0 823 647 0 17 823 822 823 823 0 303 301 17 303 650 303 303 0 823
 301 15 650 1062 0 303 642 0 17 308 643 308 308 0 803 304 15 643 1324 0 308 639
 824 15 824 1325 0 825 639 0 17 825 824 825 825 0 311 309 17 311 640 311 311 0 8
25 309 15 640 1317 0 311 631 826 15 826 1318 0 827 631 0 17 827 826 827 827 0 31
4 312 17 314 633 314 314 0 827 312 15 633 1307 0 314 629 828 15 828 1103 0 829 6
29 0 17 829 828 829 829 0 321 315 17 321 637 321 321 0 829 315 15 637 1097 0 321
 632 830 15 830 1098 0 831 632 0 17 831 830 831 831 0 318 316 17 318 635 318 318
 0 831 316 15 635 1095 0 318 627 0 15 685 1428 0 832 681 833 17 832 685 832 832
 0 341 339 15 833 1386 0 834 681 835 17 834 833 834 834 0 332 330 15 835 1344 0
 836 681 760 17 836 835 836 836 0 323 319 17 323 628 323 323 0 836 319 15 628 13
66 0 323 624 837 15 837 1367 0 838 624 0 17 838 837 838 838 0 326 324 17 326 625
 326 326 0 838 324 15 625 1359 0 326 621 799 17 332 619 332 332 0 834 330 15 619
 1408 0 332 615 839 15 839 1409 0 840 615 0 17 840 839 840 840 0 335 333 17 335
 616 335 335 0 840 333 15 616 1401 0 335 612 802 17 341 610 341 341 0 832 339 15
 610 1450 0 341 606 841 15 841 1451 0 842 606 0 17 842 841 842 842 0 344 342 17
 344 607 344 344 0 842 342 15 607 1443 0 344 603 796 15 594 4231 0 522 590 843 1
7 522 594 522 522 0 844 520 15 843 4204 0 513 590 788 17 513 843 513 513 0 845 5
11 17 845 555 845 845 0 513 511 15 555 4218 0 845 549 846 15 846 4219 0 847 549
 0 17 847 846 847 847 0 516 514 17 516 550 516 516 0 847 514 15 550 4213 0 516 5
47 848 15 848 4214 0 849 547 0 17 849 848 849 849 0 519 517 17 519 552 519 519 0
 849 517 15 552 4211 0 519 545 0 17 844 546 844 844 0 522 520 15 546 4245 0 844
 541 850 15 850 4246 0 851 541 0 17 851 850 851 851 0 525 523 17 525 542 525 525
 0 851 523 15 542 4240 0 525 537 852 15 852 4241 0 853 537 0 17 853 852 853 853
 0 527 526 17 527 538 527 527 0 853 526 15 538 4238 0 527 535 0 1 0 
