600 0 1 0           
114 GICL ACIS STEP Translator - Source: f:/data5/repository/Parasolid/NIST/Tom_Kramer/clevis2/clevis2_block.step - 6 0 13 ACIS 6.0.3 NT 24 Mon Apr 08 10:56:12 2002 
1 9.9999999999999995e-007 1e-010 
body $-1 $1 $-1 $-1 #
lump $-1 $-1 $2 $0 #
shell $-1 $-1 $-1 $3 $-1 $1 #
face $-1 $4 $5 $2 $-1 $6 forward single #
face $-1 $7 $8 $2 $-1 $9 forward single #
loop $-1 $-1 $10 $3 #
plane-surface $-1 3250.000000000005 1499.9999999999993 1499.9999999999993 0 0 1 25.399999999999999 0 0 forward_v I I I I #
face $-1 $11 $12 $2 $-1 $13 forward single #
loop $-1 $-1 $14 $4 #
plane-surface $-1 3250.000000000005 0 0 0 -1 0 0 0 -25.399999999999999 forward_v I I I I #
coedge $-1 $15 $16 $17 $18 reversed $5 $-1 #
face $-1 $19 $20 $2 $-1 $21 forward single #
loop $-1 $-1 $22 $7 #
plane-surface $-1 0 1499.9999999999993 0 -1 0 0 0 0 25.399999999999999 forward_v I I I I #
coedge $-1 $17 $23 $24 $25 forward $8 $-1 #
coedge $-1 $26 $10 $27 $28 reversed $5 $-1 #
coedge $-1 $10 $26 $29 $30 reversed $5 $-1 #
coedge $-1 $31 $14 $10 $18 forward $8 $-1 #
edge $-1 $32 -127.95275590551201 $33 127.95275590551201 $10 $34 forward 7 unknown #
face $-1 $35 $36 $2 $-1 $37 forward single #
loop $-1 $-1 $38 $11 #
plane-surface $-1 3250.000000000005 2999.9999999999886 0 0 1 0 0 0 25.399999999999999 forward_v I I I I #
coedge $-1 $29 $39 $31 $40 forward $12 $-1 #
coedge $-1 $14 $31 $41 $42 forward $8 $-1 #
coedge $-1 $43 $27 $14 $25 reversed $44 $-1 #
edge $-1 $45 0 $32 59.055118110236201 $14 $46 forward 7 unknown #
coedge $-1 $16 $15 $47 $48 reversed $5 $-1 #
coedge $-1 $24 $49 $15 $28 forward $44 $-1 #
edge $-1 $50 -59.055118110235803 $32 59.055118110236201 $15 $51 forward 7 unknown #
coedge $-1 $52 $22 $16 $30 forward $12 $-1 #
edge $-1 $33 -59.055118110236201 $53 59.055118110235803 $16 $54 forward 7 unknown #
coedge $-1 $23 $17 $22 $40 reversed $8 $-1 #
vertex $-1 $18 $55 #
vertex $-1 $18 $56 #
straight-curve $-1 3250.000000000005 0 1499.9999999999993 -25.399999999999999 0 0 I I #
face $-1 $-1 $44 $2 $-1 $57 forward single #
loop $-1 $-1 $58 $19 #
plane-surface $-1 3250.000000000005 1499.9999999999993 0 0 0 -1 -25.399999999999999 0 0 forward_v I I I I #
coedge $-1 $47 $59 $52 $60 forward $20 $-1 #
coedge $-1 $22 $52 $61 $62 forward $12 $-1 #
edge $-1 $63 0 $33 59.055118110236201 $31 $64 forward 7 unknown #
coedge $-1 $61 $58 $23 $42 reversed $36 $-1 #
edge $-1 $63 -127.95275590551201 $45 127.95275590551201 $23 $65 forward 7 unknown #
coedge $-1 $49 $24 $58 $66 forward $44 $-1 #
loop $-1 $-1 $43 $35 #
vertex $-1 $25 $67 #
straight-curve $-1 6500.00000000001 0 0 0 0 25.399999999999999 I I #
coedge $-1 $68 $38 $26 $48 forward $20 $-1 #
edge $-1 $53 -127.95275590551201 $50 127.95275590551201 $26 $69 forward 7 unknown #
coedge $-1 $27 $43 $68 $70 forward $44 $-1 #
vertex $-1 $28 $71 #
straight-curve $-1 6500.00000000001 1499.9999999999993 1499.9999999999993 0 -25.399999999999999 0 I I #
coedge $-1 $39 $29 $38 $60 reversed $12 $-1 #
vertex $-1 $48 $72 #
straight-curve $-1 0 1499.9999999999993 1499.9999999999993 0 25.399999999999999 0 I I #
point $-1 6500.00000000001 0 1499.9999999999993 #
point $-1 0 0 1499.9999999999993 #
plane-surface $-1 6500.00000000001 1499.9999999999993 0 1 0 0 0 0 -25.399999999999999 forward_v I I I I #
coedge $-1 $41 $73 $43 $66 reversed $36 $-1 #
coedge $-1 $38 $68 $73 $74 forward $20 $-1 #
edge $-1 $75 0 $53 59.055118110236201 $52 $76 forward 7 unknown #
coedge $-1 $73 $41 $39 $62 reversed $36 $-1 #
edge $-1 $75 -59.055118110235803 $63 59.055118110236201 $39 $77 forward 7 unknown #
vertex $-1 $40 $78 #
straight-curve $-1 0 0 0 0 0 25.399999999999999 I I #
straight-curve $-1 3250.000000000005 0 0 25.399999999999999 0 0 I I #
edge $-1 $45 -59.055118110236201 $79 59.055118110235803 $58 $80 forward 7 unknown #
point $-1 6500.00000000001 0 0 #
coedge $-1 $59 $47 $49 $70 reversed $20 $-1 #
straight-curve $-1 3250.000000000005 2999.9999999999886 1499.9999999999993 25.399999999999999 0 0 I I #
edge $-1 $79 0 $50 59.055118110236201 $68 $81 forward 7 unknown #
point $-1 6500.00000000001 2999.9999999999886 1499.9999999999993 #
point $-1 0 2999.9999999999886 1499.9999999999993 #
coedge $-1 $58 $61 $59 $74 reversed $36 $-1 #
edge $-1 $79 -127.95275590551201 $75 127.95275590551201 $59 $82 forward 7 unknown #
vertex $-1 $60 $83 #
straight-curve $-1 0 2999.9999999999886 0 0 0 25.399999999999999 I I #
straight-curve $-1 0 1499.9999999999993 0 0 -25.399999999999999 0 I I #
point $-1 0 0 0 #
vertex $-1 $70 $84 #
straight-curve $-1 6500.00000000001 1499.9999999999993 0 0 25.399999999999999 0 I I #
straight-curve $-1 6500.00000000001 2999.9999999999886 0 0 0 25.399999999999999 I I #
straight-curve $-1 3250.000000000005 2999.9999999999886 0 -25.399999999999999 0 0 I I #
point $-1 0 2999.9999999999886 0 #
point $-1 6500.00000000001 2999.9999999999886 0 #
End-of-ACIS-data 