**ABCDEFGHIJKLMNOPQRSTUVWXYZabcdefghijklmnopqrstuvwxyz**************************
**PARASOLID !"#$%&'()*+,-./:;<=>?@[\]^_`{|}~0123456789**************************
**PART1;MC=sun;MC_MODEL=Sun-3;MC_ID=unknown;OS=SunOS;OS_RELEASE=unknown;FRU=sdl_
parasolid_test_sun;APPL=unknown;SITE=sdl-cambridge-u.k.;USER=kramer;FORMAT=text;
GUISE=transmit;KEY=olps_workpiece_in;FILE=olps_workpiece_in.xmt_txt;DATE=30-may-
1990;
**PART2;SCH=SCH_210_1012;USFLD_SIZE=0;
**PART3;
**END_OF_HEADER*****************************************************************
T47 : TRANSMIT FILE created by modeller version 22012 SCH_210_10120 12 1 59 0 0
 0 0 0 1e3 1e-8 2 2 0 3 0 1 4 102 17 2 olps_workpiece_in13 4 2 0 1 0 5 6 7 8 9 1
0 14 5 33 0 11 0 12 4 8 +16 6 31 0 13 0 14 9 18 7 20 0 15 0 16 10 50 8 51 0 5 17
 0 0 +3.25 1.5 1.5 0 0 1 30 9 59 0 6 18 0 0 +3.25 0 1.5 -1 0 0 29 10 55 0 7 19 0
 0 0 1.5 29 19 54 0 16 20 10 0 3 1.5 18 16 18 0 21 7 22 19 29 20 53 0 22 23 19 6
.5 3 1.5 18 22 16 0 24 16 25 20 29 23 52 0 25 26 20 6.5 0 1.5 18 25 14 0 27 22 2
8 23 29 26 38 0 29 30 23 0 0 0 18 29 8 0 31 32 33 26 29 30 37 0 32 34 26 0 3 0 1
8 32 10 0 35 28 29 30 29 34 36 0 28 36 30 6.5 3 0 18 28 12 0 37 25 32 34 29 36 3
5 0 33 0 34 6.5 0 0 18 33 7 0 38 29 0 36 17 38 39 27 40 33 41 42 15 39 29 0 27 1
1 0 17 27 39 13 38 25 43 44 17 40 39 38 13 29 15 45 17 41 46 47 48 29 38 42 16 4
2 9 0 38 49 50 51 16 49 11 0 31 52 42 53 16 50 3 0 37 42 0 54 30 51 39 0 42 0 54
 0 +3.25 0 0 1 0 0 30 54 40 0 50 51 55 0 +6.5 1.5 0 0 1 0 30 55 41 0 52 54 53 0
 +3.25 3 0 -1 0 0 16 52 13 0 35 44 49 55 30 53 42 0 49 55 56 0 +0 1.5 0 0 -1 0 3
0 56 47 0 44 53 57 0 +6.5 0 0 0 0 1 16 44 15 0 27 58 52 56 30 57 48 0 58 56 59 0
 +6.5 3 0 0 0 1 16 58 17 0 24 60 44 57 30 59 49 0 60 57 61 0 +0 3 0 0 0 1 16 60
 19 0 21 45 58 59 30 61 50 0 45 59 62 0 +0 0 0 0 0 1 16 45 21 0 15 63 60 61 30 6
2 56 0 63 61 64 0 +6.5 1.5 1.5 0 -1 0 16 63 22 0 65 66 45 62 30 64 57 0 66 62 18
 0 +3.25 3 1.5 1 0 0 16 66 25 0 67 14 63 64 30 18 58 0 14 64 9 0 +0 1.5 1.5 0 1
 0 16 14 28 0 68 6 66 18 17 68 69 70 15 16 71 14 15 69 26 0 15 72 0 17 70 69 31
 68 32 21 60 17 15 69 68 31 7 40 45 17 71 12 73 74 7 68 14 15 12 32 0 73 5 0 17
 73 12 75 71 25 13 6 17 74 12 71 75 16 67 66 17 75 12 74 73 22 65 63 17 67 76 77
 21 22 74 66 15 76 23 0 21 78 0 17 77 76 35 67 28 24 58 17 21 76 67 35 16 70 60
 17 35 76 21 77 32 79 52 17 79 46 48 47 28 35 52 15 46 5 0 48 80 0 17 48 46 41 7
9 33 37 50 17 47 46 79 41 32 31 49 17 31 69 15 70 29 47 49 17 37 81 24 43 28 48
 50 15 81 4 0 37 82 0 17 24 81 65 37 22 77 58 17 43 81 37 65 33 27 44 17 65 81 4
3 24 25 75 63 14 82 1 0 0 80 81 4 83 +14 80 6 0 82 78 46 4 84 +50 83 43 0 82 84
 85 0 +6.5 1.5 0 1 0 0 50 84 34 0 80 0 83 0 +3.25 1.5 0 0 0 -1 50 85 44 0 78 83
 86 0 +3.25 3 0 0 1 0 14 78 24 0 80 72 76 4 85 +50 86 45 0 72 85 17 0 +0 1.5 0 -
1 0 0 14 72 27 0 78 11 69 4 86 +50 17 46 0 11 86 8 0 +3.25 0 0 0 -1 0 14 11 30 0
 72 5 39 4 17 +17 13 39 40 27 7 73 6 1 0 
