**ABCDEFGHIJKLMNOPQRSTUVWXYZabcdefghijklmnopqrstuvwxyz**************************
**PARASOLID !"#$%&'()*+,-./:;<=>?@[\]^_`{|}~0123456789**************************
**PART1;MC=sun;MC_MODEL=Sun-3;MC_ID=unknown;OS=SunOS;OS_RELEASE=unknown;FRU=sdl_
parasolid_test_sun;APPL=unknown;SITE=sdl-cambridge-u.k.;USER=kramer;FORMAT=text;
GUISE=transmit;KEY=olps_workpiece_out;FILE=olps_workpiece_out.xmt_txt;DATE=30-ma
y-1990;
**PART2;SCH=SCH_210_1012;USFLD_SIZE=0;
**PART3;
**END_OF_HEADER*****************************************************************
T47 : TRANSMIT FILE created by modeller version 22012 SCH_210_10120 12 1 5615 0
 0 0 0 0 1e3 1e-8 2 2 0 0 0 1 3 102 18 2 olps_workpiece_out13 3 2 0 1 0 4 5 6 7
 8 9 14 4 5416 0 10 0 11 3 7 -16 5 5456 0 12 0 13 8 18 6 5485 0 14 0 15 9 50 7 5
512 0 4 16 0 0 +5.05 .6 .5 0 -612303176911189e-31 1 31 8 5540 0 5 17 0 0 -5.65 2
 .5 0 -612303176911189e-31 1 .1 29 9 5569 0 6 18 0 6.45 .6 .01 29 18 5573 0 15 1
9 9 5.75 2 .5 18 15 5489 0 20 6 21 18 29 19 5574 0 21 22 18 5.75 .9 .5 18 21 549
0 0 23 15 24 19 29 22 5575 0 24 25 19 3.9 2 .5 18 24 5491 0 26 21 27 22 29 25 55
76 0 27 28 22 3.9 .9 .5 18 27 5492 0 29 24 30 25 29 28 5577 0 30 31 25 4 2.1 .5
 18 30 5493 0 32 27 33 28 29 31 5578 0 33 34 28 5.65 2.1 .5 18 33 5494 0 35 30 3
6 31 29 34 5580 0 36 37 31 6.05 .6 .5 18 36 5496 0 38 33 39 34 29 37 5581 0 39 4
0 34 3.6 .6 .5 18 39 5497 0 41 36 42 37 29 40 5242 0 42 43 37 .85 1 .4 18 42 515
8 0 44 39 45 40 29 43 5243 0 45 46 40 .85 1.5 .4 18 45 5159 0 47 42 48 43 29 46
 5244 0 48 49 43 2.85 1.5 .4 18 48 5160 0 50 45 51 46 29 49 5245 0 51 52 46 2.85
 1 .4 18 51 5161 0 53 48 54 49 29 52 5249 0 54 55 49 3.25 .6 .4 18 54 5165 0 56
 51 57 52 29 55 5250 0 57 58 52 .45 .6 .4 18 57 5166 0 59 54 60 55 29 58 4936 0
 60 61 55 .05 .6 .01 18 60 4934 0 62 57 63 58 29 61 4090 0 63 64 58 3.9 2 1 18 6
3 3838 0 65 60 66 61 29 64 4091 0 66 67 61 4 2.1 1 18 66 3839 0 68 63 69 64 29 6
7 4092 0 69 70 64 5.65 2.1 1 18 69 3840 0 71 66 72 67 29 70 4093 0 72 73 67 5.75
 2 1 18 72 3841 0 74 69 75 70 29 73 4094 0 75 76 70 5.75 .9 1 18 75 3842 0 77 72
 78 73 29 76 4095 0 78 79 73 3.9 .9 1 18 78 3843 0 80 75 81 76 29 79 4096 0 81 8
2 76 3.6 .6 1 18 81 3844 0 83 78 84 79 29 82 4098 0 84 85 79 6.05 .6 1 18 84 384
6 0 86 81 87 82 29 85 4157 0 87 88 82 .45 .6 1.1 18 87 3905 0 89 84 90 85 29 88
 4172 0 90 91 85 3.25 .6 1.1 18 90 3920 0 92 87 93 88 29 91 4173 0 93 94 88 2.85
 1 1.1 18 93 3921 0 95 90 96 91 29 94 4174 0 96 97 91 2.85 1.5 1.1 18 96 3922 0
 98 93 99 94 29 97 4175 0 99 100 94 .85 1.5 1.1 18 99 3923 0 101 96 102 97 29 10
0 4176 0 102 103 97 .85 1 1.1 18 102 3924 0 104 99 105 100 29 103 3200 0 105 106
 100 6.45 .6 1.49 18 105 3198 0 107 102 108 103 29 106 3145 0 108 109 103 .05 .6
 1.49 18 108 3049 0 110 105 111 106 29 109 871 0 111 112 106 .05 .2 1 18 111 813
 0 113 108 114 109 29 112 872 0 114 115 109 6.45 .2 1 18 114 814 0 116 111 117 1
12 29 115 873 0 117 118 112 6.45 612303176911189e-31 1 18 117 815 0 119 114 120
 115 29 118 874 0 120 121 115 .05 612303176911189e-31 1 18 120 816 0 122 117 123
 118 29 121 876 0 123 124 118 6.45 3061515884555945e-32 .5 18 123 818 0 125 120
 126 121 29 124 877 0 126 127 121 6.45 .2 .5 18 126 819 0 128 123 129 124 29 127
 878 0 129 130 124 .05 .2 .5 18 129 820 0 131 126 132 127 29 130 718 0 132 133 1
27 .05 3061515884555945e-32 .5 18 132 716 0 134 129 135 130 29 133 688 0 135 136
 130 6.45 612303176911188e-33 .01 18 135 638 0 137 132 138 133 29 136 689 0 138
 139 133 .05 612303176911188e-33 .01 18 138 639 0 140 135 141 136 29 139 525 0 1
41 142 136 6.45 912331733597671e-31 1.49 18 141 475 0 143 138 144 139 29 142 387
 0 144 0 139 .05 912331733597671e-31 1.49 18 144 385 0 145 141 0 142 17 145 146
 147 148 144 149 150 15 146 726 0 119 151 0 17 147 146 119 145 120 152 153 17 14
8 146 145 119 141 154 155 17 149 156 157 158 141 145 150 16 150 455 0 145 159 16
0 161 16 159 561 0 162 163 150 164 16 160 408 0 165 150 153 166 30 161 505 0 150
 166 164 0 +3.25 912331733597671e-31 1.49 -1 0 0 30 166 410 0 160 167 161 0 +.05
 2 1.49 0 1 -612303176911189e-31 30 164 563 0 159 161 168 0 +6.45 45922738268339
2e-31 .75 0 612303176911189e-31 1 30 168 669 0 163 164 169 0 +3.25 6123031769111
88e-33 .01 1 0 0 16 163 619 0 137 170 159 168 30 169 658 0 170 168 171 0 +6.45 2
 .01 0 1 -612303176911189e-31 16 170 608 0 172 155 163 169 30 171 711 0 155 169
 173 0 +6.45 459227382683392e-31 .75 0 612303176911189e-31 1 16 155 709 0 148 17
4 170 171 30 173 719 0 174 171 175 0 +.05 459227382683392e-31 .75 0 -61230317691
1189e-31 -1 16 174 717 0 176 177 155 173 30 175 733 0 177 173 178 0 +.05 2 .5 0
 1 -612303176911189e-31 16 177 731 0 179 180 174 175 30 178 858 0 180 175 181 0
 +3.25 .2 .5 1 0 0 16 180 800 0 182 183 177 178 30 181 856 0 183 178 184 0 +3.25
 3061515884555945e-32 .5 -1 0 0 16 183 798 0 134 185 180 181 30 184 853 0 185 18
1 186 0 +6.45 2 .5 0 -1 612303176911189e-31 16 185 795 0 125 187 183 184 30 186
 852 0 187 184 188 0 +3.25 612303176911189e-31 1 1 0 0 16 187 794 0 119 189 185
 186 30 188 850 0 189 186 190 0 +3.25 .2 1 -1 0 0 16 189 792 0 191 192 187 188 3
0 190 848 0 192 188 193 0 +.05 2 1 0 -1 612303176911189e-31 16 192 790 0 122 194
 189 190 30 193 847 0 194 190 195 0 +6.45 2 1 0 1 -612303176911189e-31 16 194 78
9 0 116 196 192 193 30 195 844 0 196 193 197 0 +.05 .2 .75 0 612303176911189e-31
 1 16 196 786 0 113 198 194 195 30 197 843 0 198 195 199 0 +6.45 .2 .75 0 -61230
3176911189e-31 -1 16 198 785 0 128 200 196 197 31 199 1219 0 200 197 201 0 +.25
 1224606353822376e-32 .2 0 -1 0 .125 16 200 1216 0 202 203 198 199 31 201 1254 0
 203 199 204 0 +.25 .2 .2 0 -1 612303176911189e-31 .125 16 203 1245 0 205 206 20
0 201 31 204 1225 0 206 201 207 0 -.25 .2 .2 0 1 -612303176911189e-31 .0983 16 2
06 1222 0 208 209 203 204 31 207 1261 0 209 204 210 0 +3.25 1224606353822376e-32
 .2 0 -1 0 .125 16 209 1258 0 211 212 206 207 31 210 1296 0 212 207 213 0 +3.25
 .2 .2 0 -1 612303176911189e-31 .125 16 212 1287 0 214 215 209 210 31 213 1267 0
 215 210 216 0 -3.25 .2 .2 0 1 -612303176911189e-31 .0983 16 215 1264 0 217 218
 212 213 31 216 1303 0 218 213 219 0 +6.25 1224606353822376e-32 .2 0 -1 0 .125 1
6 218 1300 0 220 221 215 216 31 219 1338 0 221 216 222 0 +6.25 .2 .2 0 -1 612303
176911189e-31 .125 16 221 1329 0 223 224 218 219 31 222 1309 0 224 219 225 0 -6.
25 .2 .2 0 1 -612303176911189e-31 .0983 16 224 1306 0 226 227 221 222 31 225 134
5 0 227 222 228 0 +.25 795994129984545e-31 1.3 0 -1 0 .125 16 227 1342 0 229 230
 224 225 31 228 1380 0 230 225 231 0 +.25 .2 1.3 0 -1 612303176911189e-31 .125 1
6 230 1371 0 232 233 227 228 31 231 1351 0 233 228 234 0 -.25 .2 1.3 0 1 -612303
176911189e-31 .0983 16 233 1348 0 235 236 230 231 31 234 1387 0 236 231 237 0 +3
.25 795994129984545e-31 1.3 0 -1 0 .125 16 236 1384 0 238 239 233 234 31 237 142
2 0 239 234 240 0 +3.25 .2 1.3 0 -1 612303176911189e-31 .125 16 239 1413 0 241 2
42 236 237 31 240 1393 0 242 237 243 0 -3.25 .2 1.3 0 1 -612303176911189e-31 .09
83 16 242 1390 0 244 245 239 240 31 243 1429 0 245 240 246 0 +6.25 7959941299845
45e-31 1.3 0 -1 0 .125 16 245 1426 0 247 248 242 243 31 246 1464 0 248 243 249 0
 +6.25 .2 1.3 0 -1 612303176911189e-31 .125 16 248 1455 0 250 251 245 246 31 249
 1435 0 251 246 252 0 -6.25 .2 1.3 0 1 -612303176911189e-31 .0983 16 251 1432 0
 253 254 248 249 31 252 2839 0 254 249 255 0 -.25 .6 1.3 0 -1 0 .0983 16 254 283
6 0 256 257 251 252 31 255 2845 0 257 252 258 0 -3.25 .6 1.3 0 -1 0 .0983 16 257
 2842 0 259 260 254 255 30 258 3201 0 260 255 261 0 +6.45 2 1.49 0 -1 6123031769
11189e-31 16 260 3199 0 143 262 257 258 30 261 3214 0 262 258 263 0 +3.25 .6 1.4
9 -1 0 0 16 262 3212 0 110 264 260 261 31 263 3223 0 264 261 265 0 -6.25 .6 1.3
 0 -1 0 .0983 16 264 3220 0 266 267 262 263 30 265 3495 0 267 263 268 0 +5.05 .6
 1 1 0 0 16 267 3401 0 269 270 264 265 30 268 3570 0 270 265 271 0 +1.85 .6 1.1
 1 0 0 16 270 3568 0 272 273 267 268 30 271 4085 0 273 268 274 0 +.85 .6 1.1 0 1
 0 16 273 3833 0 275 276 270 271 30 274 4084 0 276 271 277 0 +2.85 2.5 1.1 0 -1
 0 16 276 3832 0 278 279 273 274 31 277 4075 0 279 274 280 0 -.45 1 1.1 0 0 -1 .
4 16 279 3823 0 281 282 276 277 31 280 4074 0 282 277 283 0 -3.25 1 1.1 0 0 -1 .
4 16 282 3822 0 284 285 279 280 30 283 4035 0 285 280 286 0 +3.25 .6 .39 0 0 -1
 16 285 3783 0 287 288 282 283 30 286 4033 0 288 283 289 0 +2.85 1.5 .39 0 0 -1
 16 288 3781 0 290 291 285 286 30 289 4031 0 291 286 292 0 +.85 1 .39 0 0 -1 16
 291 3779 0 293 294 288 289 31 292 4024 0 294 289 295 0 +1.85 1.5 1.1 0 0 -1 1 1
6 294 3772 0 296 297 291 292 30 295 3982 0 297 292 298 0 +6.05 .6 .39 0 0 -1 16
 297 3730 0 299 300 294 295 30 298 3977 0 300 295 301 0 +3.9 .9 .39 0 0 -1 16 30
0 3725 0 302 303 297 298 31 301 3976 0 303 298 304 0 +3.6 .9 1 0 0 -1 .3 16 303
 3724 0 83 305 300 301 31 304 3974 0 305 301 306 0 +6.05 .9 1 0 0 -1 .3 16 305 3
722 0 77 307 303 304 30 306 3973 0 307 304 308 0 +5.75 2 .39 0 0 -1 16 307 3721
 0 309 310 305 306 30 308 3972 0 310 306 311 0 +5.75 1.4 1 0 1 0 16 310 3720 0 7
4 312 307 308 30 311 3970 0 312 308 313 0 +4 2.1 .39 0 0 -1 16 312 3718 0 314 31
5 310 311 30 313 3969 0 315 311 316 0 +5.05 2.1 1 -1 0 0 16 315 3717 0 68 317 31
2 313 30 316 3967 0 317 313 318 0 +3.9 1.4 1 0 -1 0 16 317 3715 0 80 319 315 316
 31 318 3966 0 319 316 320 0 +5.65 2 1 0 0 -1 .1 16 319 3714 0 321 322 317 318 3
1 320 3965 0 322 318 323 0 +4 2 1 0 0 -1 .1 16 322 3713 0 324 325 319 320 31 323
 4206 0 325 320 326 0 +4.4 1.6 1 0 0 -1 .25 16 325 4203 0 327 328 322 323 31 326
 4233 0 328 323 329 0 +5.25 1.6 1 0 0 -1 .25 16 328 4230 0 330 331 325 326 31 32
9 4260 0 331 326 332 0 +1.85 1.5 1.1 0 0 -1 .5 16 331 4257 0 333 334 328 329 30
 332 4937 0 334 329 335 0 +.05 2 .01 0 -1 612303176911189e-31 16 334 4935 0 140
 336 331 332 30 335 4941 0 336 332 337 0 +.05 .6 1.1 0 0 -1 16 336 4939 0 62 338
 334 335 31 337 4963 0 338 335 339 0 -.25 .6 .2 0 -1 -612303176911189e-31 .0983
 16 338 4960 0 340 341 336 337 31 339 4969 0 341 337 342 0 -3.25 .6 .2 0 -1 -612
303176911189e-31 .0983 16 341 4966 0 343 344 338 339 30 342 4983 0 344 339 345 0
 +.45 .6 .39 0 0 1 16 344 4981 0 346 347 341 342 30 345 5001 0 347 342 348 0 +2.
85 1 .39 0 0 1 16 347 4999 0 349 350 344 345 30 348 5014 0 350 345 351 0 +.85 1.
5 .39 0 0 1 16 350 5012 0 352 353 347 348 31 351 5060 0 353 348 354 0 -1.85 1.5
 .4 0 -612303176911189e-31 1 .5 16 353 5057 0 355 356 350 351 30 354 5219 0 356
 351 357 0 +1.85 .6 .4 1 0 0 16 356 5135 0 56 358 353 354 30 357 5214 0 358 354
 359 0 +2.85 1.55 .4 0 1 612303176911189e-31 16 358 5130 0 50 360 356 357 31 359
 5213 0 360 357 361 0 -3.25 1 .4 0 -612303176911189e-31 1 .4 16 360 5129 0 53 36
2 358 359 31 361 5211 0 362 359 363 0 -1.85 1.5 .4 0 -612303176911189e-31 1 1 16
 362 5127 0 364 365 360 361 30 363 5210 0 365 361 366 0 +.85 1.55 .4 0 -1 -61230
3176911189e-31 16 365 5126 0 44 367 362 363 31 366 5209 0 367 363 368 0 -.45 1 .
4 0 -612303176911189e-31 1 .4 16 367 5125 0 59 369 365 366 30 368 5282 0 369 366
 370 0 +6.45 .6 .75 0 0 1 16 369 5280 0 107 371 367 368 30 370 5291 0 371 368 37
2 0 +3.25 .6 .01 1 0 0 16 371 5289 0 14 373 369 370 31 372 5300 0 373 370 374 0
 -6.25 .6 .2 0 -1 -612303176911189e-31 .0983 16 373 5297 0 375 376 371 372 30 37
4 5306 0 376 372 377 0 +3.6 .6 .39 0 0 1 16 376 5304 0 378 379 373 374 30 377 53
37 0 379 374 380 0 +5.75 .9 .39 0 0 1 16 379 5335 0 381 382 376 377 30 380 5355
 0 382 377 383 0 +5.65 2.1 .39 0 0 1 16 382 5353 0 384 385 379 380 30 383 5368 0
 385 380 386 0 +3.9 2 .39 0 0 1 16 385 5366 0 387 388 382 383 31 386 5387 0 388
 383 389 0 -4.4 1.6 .5 0 -612303176911189e-31 1 .25 16 388 5384 0 390 391 385 38
6 31 389 5393 0 391 386 392 0 -5.25 1.6 .5 0 -612303176911189e-31 1 .25 16 391 5
390 0 393 394 388 389 30 392 5550 0 394 389 395 0 +5.05 .6 .5 1 0 0 16 394 5466
 0 38 396 391 392 30 395 5547 0 396 392 397 0 +5.05 2.1 .5 -1 0 0 16 396 5463 0
 32 398 394 395 31 397 5545 0 398 395 399 0 -3.6 .9 .5 0 -612303176911189e-31 1
 .3 16 398 5461 0 41 400 396 397 30 399 5544 0 400 397 401 0 +3.9 1.35 .5 0 -1 -
612303176911189e-31 16 400 5460 0 29 402 398 399 31 401 5543 0 402 399 403 0 -4
 2 .5 0 -612303176911189e-31 1 .1 16 402 5459 0 404 405 400 401 31 403 5542 0 40
5 401 17 0 -6.05 .9 .5 0 -612303176911189e-31 1 .3 16 405 5458 0 23 13 402 403 3
0 17 5541 0 13 403 8 0 +5.75 1.35 .5 0 1 612303176911189e-31 16 13 5457 0 20 5 4
05 17 17 20 406 407 408 15 409 13 15 406 3650 0 408 410 0 17 407 406 411 20 72 3
09 307 17 408 406 20 411 21 381 379 17 409 412 413 12 21 20 13 15 412 5418 0 12
 4 414 17 413 412 415 409 36 23 405 17 12 412 409 416 15 35 5 17 416 412 12 404
 33 32 396 17 35 417 384 309 33 12 5 15 417 5375 0 35 418 0 17 384 417 321 35 69
 419 382 17 309 417 35 321 15 407 307 17 321 417 309 384 72 71 319 17 71 420 68
 74 69 321 319 15 420 3329 0 80 421 0 17 68 420 65 71 66 422 315 17 74 420 71 77
 72 411 310 17 77 420 74 269 75 423 305 17 411 406 408 407 75 74 310 17 269 420
 77 83 84 424 267 17 423 425 299 381 84 77 305 15 425 3652 0 299 426 0 17 299 42
5 23 423 36 86 297 17 381 425 423 23 75 408 379 17 23 425 381 299 21 413 405 17
 86 427 424 38 84 299 297 15 427 4312 0 428 429 430 17 424 427 428 86 81 269 267
 17 38 427 86 428 36 415 394 17 428 427 38 424 39 378 376 17 415 412 431 413 39
 38 394 17 431 412 432 415 27 41 398 17 432 412 404 431 24 29 400 17 41 433 378
 302 39 431 398 15 433 3654 0 302 434 0 17 378 433 435 41 81 428 376 17 302 433
 41 435 27 436 300 17 435 433 302 378 78 83 303 17 436 437 438 29 78 302 300 15
 437 3646 0 439 440 0 17 438 437 439 436 63 80 317 17 29 437 436 439 27 432 400
 17 439 437 29 438 24 387 385 17 387 441 324 26 63 439 385 15 441 5380 0 26 442
 0 17 324 441 314 387 66 65 322 17 26 441 387 314 24 404 402 17 314 441 26 324 3
0 443 312 17 404 412 416 432 30 26 402 17 443 444 422 32 66 314 312 15 444 3648
 0 419 445 0 17 422 444 419 443 69 68 315 17 32 444 443 419 30 416 396 17 419 44
4 32 422 33 384 382 14 445 3647 0 410 440 444 3 446 -14 410 3649 0 426 445 406 3
 447 -14 440 3645 0 445 418 437 3 448 -50 446 3932 0 445 447 448 0 +4.825 2.1 .3
9 0 -1 0 50 447 3933 0 410 449 446 0 +5.75 1.35 .39 -1 0 0 50 448 3931 0 440 446
 450 0 +3.9 1.35 .39 1 0 0 51 450 3930 0 418 448 451 0 +5.65 2 .39 0 0 -1 .1 14
 418 3643 0 440 442 417 3 450 +51 451 3929 0 442 450 452 0 +4 2 .39 0 0 -1 .1 14
 442 3641 0 418 453 441 3 451 +51 452 4225 0 453 451 454 0 +4.4 1.6 .4 0 0 1 .25
 14 453 4217 0 442 455 456 3 452 -51 454 4252 0 455 452 457 0 +5.25 1.6 .4 0 0 1
 .25 14 455 4244 0 453 458 459 3 454 -51 457 4283 0 458 454 460 0 +1.85 1.5 .3 0
 0 1 .5 14 458 4274 0 455 429 461 3 457 -50 460 4988 0 429 457 16 0 +1.85 .6 1.1
 0 -1 0 14 429 4987 0 458 10 462 3 460 -50 16 5182 0 10 460 7 0 +1.85 .6 .4 0 -6
12303176911189e-31 1 14 10 5087 0 429 4 463 3 16 -15 463 5088 0 464 10 465 17 46
4 463 364 466 45 44 365 15 465 5089 0 467 10 0 17 467 465 467 467 0 355 353 17 3
55 461 355 355 0 467 353 15 461 5058 0 355 458 468 15 468 4275 0 469 458 0 17 46
9 468 469 469 0 333 331 17 333 470 333 333 0 469 331 15 470 4258 0 333 471 472 1
4 471 2976 0 473 421 470 3 474 -15 472 2978 0 104 471 0 17 104 472 89 101 102 27
5 273 17 89 472 272 104 87 281 279 17 101 472 104 98 99 296 294 17 275 475 476 4
77 99 104 273 15 475 3688 0 476 478 0 17 476 475 44 275 45 352 350 17 477 475 27
5 44 102 293 291 17 44 475 477 476 42 464 365 17 293 479 59 281 42 477 291 15 47
9 3666 0 293 480 0 17 59 479 346 293 57 466 367 17 281 479 293 346 102 89 279 17
 346 479 281 59 87 481 344 17 481 482 56 483 57 346 344 15 482 5613 0 56 429 484
 17 56 482 92 481 54 485 356 17 483 482 481 92 87 272 270 17 92 482 483 56 90 28
7 285 17 272 472 95 89 90 483 270 17 95 472 98 272 93 284 282 17 98 472 101 95 9
6 278 276 17 284 486 287 349 90 95 282 15 486 3670 0 287 487 0 17 287 486 53 284
 54 92 285 17 349 486 284 53 93 488 347 17 53 486 349 287 51 489 360 17 488 490
 50 278 51 349 347 15 490 3690 0 488 491 0 17 50 490 492 488 48 493 358 17 278 4
90 488 492 93 98 276 17 492 490 278 50 96 290 288 17 290 494 47 296 48 492 288 1
5 494 5034 0 47 495 0 17 47 494 352 290 45 364 362 17 296 494 290 352 96 101 294
 17 352 494 296 47 99 476 350 17 364 463 493 464 48 47 362 17 493 463 489 364 51
 50 358 17 489 463 485 493 54 53 360 17 485 463 466 489 57 56 356 17 466 463 464
 485 42 59 367 14 495 3667 0 487 480 494 3 496 +14 487 3669 0 478 495 486 3 497
 -14 480 3665 0 495 434 479 3 498 -51 496 3942 0 495 497 498 0 +1.85 1.5 .39 0 0
 -1 1 51 497 3943 0 487 499 496 0 +3.25 1 .39 0 0 1 .4 51 498 3941 0 480 496 500
 0 +.45 1 .39 0 0 1 .4 51 500 3935 0 434 498 449 0 +3.6 .9 .39 0 0 1 .3 14 434 3
653 0 480 426 433 3 500 -51 449 3934 0 426 500 447 0 +6.05 .9 .39 0 0 1 .3 14 42
6 3651 0 434 410 425 3 449 -50 499 3952 0 478 501 497 0 +.85 1.55 .39 1 0 0 14 4
78 3687 0 491 487 475 3 499 -50 501 3953 0 491 502 499 0 +2.85 1.55 .39 -1 0 0 1
4 491 3689 0 421 478 490 3 501 -50 502 3437 0 421 474 501 0 +5.05 1.4 1 0 0 -1 1
4 421 3328 0 471 491 503 3 502 -50 474 3085 0 471 504 502 0 +1.85 1.6 1.1 0 0 -1
 51 504 1210 0 473 505 474 0 +6.25 .7 1.3 0 -1 612303176911189e-31 .0983 14 473
 1200 0 506 471 507 3 504 -50 505 1457 0 506 508 504 0 +6.25 .2 1.3 0 1 -6123031
76911189e-31 14 506 1442 0 509 473 510 3 505 -51 508 1458 0 509 511 505 0 +6.25
 .2 1.3 0 -1 612303176911189e-31 .125 14 509 1449 0 512 506 513 3 508 -51 511 11
77 0 512 514 508 0 +3.25 .7 1.3 0 -1 612303176911189e-31 .0983 14 512 1167 0 515
 509 516 3 511 -50 514 1415 0 515 517 511 0 +3.25 .2 1.3 0 1 -612303176911189e-3
1 14 515 1400 0 518 512 519 3 514 -51 517 1416 0 518 520 514 0 +3.25 .2 1.3 0 -1
 612303176911189e-31 .125 14 518 1407 0 521 515 522 3 517 -51 520 1144 0 521 523
 517 0 +.25 .7 1.3 0 -1 612303176911189e-31 .0983 14 521 1134 0 524 518 525 3 52
0 -50 523 1373 0 524 526 520 0 +.25 .2 1.3 0 1 -612303176911189e-31 14 524 1358
 0 527 521 528 3 523 -51 526 1374 0 527 529 523 0 +.25 .2 1.3 0 -1 6123031769111
89e-31 .125 14 527 1365 0 530 524 531 3 526 -51 529 1111 0 530 532 526 0 +6.25 .
7 .2 0 -1 612303176911189e-31 .0983 14 530 1101 0 533 527 534 3 529 -50 532 1331
 0 533 535 529 0 +6.25 .2 .2 0 1 -612303176911189e-31 14 533 1316 0 536 530 537
 3 532 -51 535 1332 0 536 538 532 0 +6.25 .2 .2 0 -1 612303176911189e-31 .125 14
 536 1323 0 539 533 540 3 535 -51 538 1078 0 539 541 535 0 +3.25 .7 .2 0 -1 6123
03176911189e-31 .0983 14 539 1068 0 542 536 543 3 538 -50 541 1289 0 542 544 538
 0 +3.25 .2 .2 0 1 -612303176911189e-31 14 542 1274 0 545 539 546 3 541 -51 544
 1290 0 545 547 541 0 +3.25 .2 .2 0 -1 612303176911189e-31 .125 14 545 1281 0 54
8 542 549 3 544 -51 547 1045 0 548 550 544 0 +.25 .7 .2 0 -1 612303176911189e-31
 .0983 14 548 1035 0 551 545 552 3 547 -50 550 1247 0 551 553 547 0 +.25 .2 .2 0
 1 -612303176911189e-31 14 551 1232 0 554 548 555 3 550 -51 553 1248 0 554 556 5
50 0 +.25 .2 .2 0 -1 612303176911189e-31 .125 14 554 1239 0 557 551 558 3 553 -5
0 556 829 0 557 559 553 0 +3.25 .2 .75 0 1 -612303176911189e-31 14 557 757 0 560
 554 561 3 556 -50 559 833 0 560 562 556 0 +3.25 .2 1 0 612303176911189e-31 1 14
 560 765 0 563 557 564 3 559 -50 562 835 0 563 565 559 0 +3.25 .2 .5 0 -61230317
6911189e-31 -1 14 563 769 0 151 560 566 3 562 -50 565 724 0 151 567 562 0 +3.25
 0 0 0 -1 0 14 151 723 0 568 563 569 3 565 +50 567 648 0 568 570 565 0 +3.25 .7
 .01 0 612303176911189e-31 1 14 568 588 0 571 151 572 3 567 -50 570 488 0 571 57
3 567 0 +3.25 .7 1.49 0 -612303176911189e-31 -1 14 571 430 0 574 568 156 3 570 -
50 573 331 0 574 575 570 0 +6.45 2 .75 -1 0 0 14 574 277 0 576 571 577 3 573 -50
 575 173 0 576 578 573 0 +.05 2 .75 1 0 0 14 576 121 0 579 574 580 3 575 -50 578
 46 0 579 0 575 0 +3.25 0 0 0 -1 0 14 579 30 0 0 576 581 3 578 +15 581 1302 0 58
2 579 583 17 582 581 582 582 0 220 218 15 583 1260 0 584 579 585 17 584 583 584
 584 0 211 209 15 585 1218 0 586 579 587 17 586 585 586 586 0 202 200 15 587 721
 0 134 579 0 17 134 587 176 162 132 588 183 17 176 587 137 134 138 589 174 17 16
2 587 134 137 123 590 159 17 588 566 591 592 123 134 183 15 566 770 0 593 563 0
 17 591 566 593 588 126 125 185 17 592 566 588 593 132 179 177 17 593 566 592 59
1 129 182 180 17 179 580 113 589 129 592 177 15 580 122 0 62 576 0 17 113 580 12
2 179 111 131 196 17 589 580 179 140 132 176 174 17 140 580 589 62 138 594 334 1
7 62 580 140 165 60 595 336 17 594 572 14 596 60 140 334 15 572 589 0 14 568 0 1
7 14 572 597 594 6 598 371 17 596 572 594 597 138 137 163 17 597 572 596 14 135
 172 170 17 137 587 162 176 135 596 163 17 172 577 107 590 6 597 170 15 577 278
 0 172 574 0 17 107 577 143 172 105 599 369 17 590 577 172 125 135 162 159 17 12
5 577 590 128 123 591 185 17 128 577 125 116 126 600 198 17 116 577 128 154 114
 601 194 17 600 561 191 182 114 128 198 15 561 758 0 191 557 0 17 191 561 131 60
0 111 602 189 17 182 561 600 131 126 593 180 17 131 561 182 191 129 113 196 17 6
02 564 601 603 114 191 189 15 564 766 0 604 560 0 17 601 564 604 602 117 116 194
 17 603 564 602 604 111 122 192 17 604 564 603 601 120 119 187 17 122 580 152 11
3 120 603 192 17 152 580 165 122 144 147 153 17 165 580 62 152 108 158 160 16 15
3 386 0 147 160 0 167 30 167 388 0 153 0 166 0 +.05 459227382683392e-31 .75 0 -6
12303176911189e-31 -1 17 158 156 149 110 144 165 160 15 156 431 0 157 571 0 17 1
10 156 158 157 108 605 262 17 157 156 110 149 105 143 260 17 605 462 599 595 105
 110 262 15 462 5615 0 599 429 482 17 599 462 598 605 6 107 369 17 595 462 605 5
98 108 62 336 17 598 462 595 599 60 14 371 17 143 577 154 107 141 157 260 17 154
 577 116 143 117 148 155 17 119 146 148 147 117 604 187 17 202 558 202 202 0 586
 200 15 558 1240 0 202 554 606 15 606 1241 0 607 554 0 17 607 606 607 607 0 205
 203 17 205 555 205 205 0 607 203 15 555 1233 0 205 551 608 15 608 1234 0 609 55
1 0 17 609 608 609 609 0 208 206 17 208 610 208 208 0 609 206 15 610 1223 0 208
 548 0 17 211 549 211 211 0 584 209 15 549 1282 0 211 545 611 15 611 1283 0 612
 545 0 17 612 611 612 612 0 214 212 17 214 546 214 214 0 612 212 15 546 1275 0 2
14 542 613 15 613 1276 0 614 542 0 17 614 613 614 614 0 217 215 17 217 615 217 2
17 0 614 215 15 615 1265 0 217 539 0 17 220 540 220 220 0 582 218 15 540 1324 0
 220 536 616 15 616 1325 0 617 536 0 17 617 616 617 617 0 223 221 17 223 537 223
 223 0 617 221 15 537 1317 0 223 533 618 15 618 1318 0 619 533 0 17 619 618 619
 619 0 226 224 17 226 620 226 226 0 619 224 15 620 1307 0 226 530 0 15 569 1428
 0 621 151 622 17 621 569 621 621 0 247 245 15 622 1386 0 623 151 624 17 623 622
 623 623 0 238 236 15 624 1344 0 625 151 146 17 625 624 625 625 0 229 227 17 229
 531 229 229 0 625 227 15 531 1366 0 229 527 626 15 626 1367 0 627 527 0 17 627
 626 627 627 0 232 230 17 232 528 232 232 0 627 230 15 528 1359 0 232 524 628 15
 628 1360 0 629 524 0 17 629 628 629 629 0 235 233 17 235 630 235 235 0 629 233
 15 630 1349 0 235 521 0 17 238 522 238 238 0 623 236 15 522 1408 0 238 518 631
 15 631 1409 0 632 518 0 17 632 631 632 632 0 241 239 17 241 519 241 241 0 632 2
39 15 519 1401 0 241 515 633 15 633 1402 0 634 515 0 17 634 633 634 634 0 244 24
2 17 244 635 244 244 0 634 242 15 635 1391 0 244 512 0 17 247 513 247 247 0 621
 245 15 513 1450 0 247 509 636 15 636 1451 0 637 509 0 17 637 636 637 637 0 250
 248 17 250 510 250 250 0 637 248 15 510 1443 0 250 506 638 15 638 1444 0 639 50
6 0 17 639 638 639 639 0 253 251 17 253 640 253 253 0 639 251 15 640 1433 0 253
 473 0 15 552 4961 0 340 548 610 17 340 552 340 340 0 641 338 17 641 642 641 641
 0 340 338 15 642 5076 0 641 429 427 15 543 4967 0 343 539 615 17 343 543 343 34
3 0 643 341 17 643 644 643 643 0 343 341 15 644 5077 0 643 429 642 15 534 5298 0
 375 530 620 17 375 534 375 375 0 645 373 17 645 484 645 645 0 375 373 15 484 54
05 0 645 429 644 15 525 2837 0 256 521 630 17 256 525 256 256 0 646 254 17 646 6
47 646 646 0 256 254 15 647 2969 0 646 429 648 15 648 3332 0 649 429 0 17 649 64
8 649 649 0 266 264 17 266 507 266 266 0 649 264 15 507 3221 0 266 473 640 15 51
6 2843 0 259 512 635 17 259 516 259 259 0 650 257 17 650 430 650 650 0 259 257 1
5 430 2971 0 650 429 647 15 503 4231 0 330 421 651 17 330 503 330 330 0 652 328
 15 651 4204 0 327 421 420 17 327 651 327 327 0 653 325 17 653 654 653 653 0 327
 325 15 654 4218 0 653 453 0 17 652 655 652 652 0 330 328 15 655 4245 0 652 455
 0 15 459 5391 0 393 455 655 17 393 459 393 393 0 656 391 17 656 414 656 656 0 3
93 391 15 414 5419 0 656 4 0 15 456 5385 0 390 453 654 17 390 456 390 390 0 657
 388 17 657 11 657 657 0 390 388 15 11 5417 0 657 4 412 17 65 420 80 68 63 324 3
22 17 80 420 83 65 78 438 317 17 83 420 269 80 81 435 303 1 0 
