  0
SECTION
  2
HEADER
  9
$ACADVER
  1
AC1009
  9
$INSBASE
 10
0.0
 20
0.0
 30
0.0
  9
$EXTMIN
 10
0.0
 20
0.0
 30
0.0
  9
$EXTMAX
 10
2.0
 20
2.0
 30
2.0
  9
$LIMMIN
 10
0.0
 20
0.0
  9
$LIMMAX
 10
12.0
 20
9.0
  9
$ORTHOMODE
 70
     0
  9
$REGENMODE
 70
     1
  9
$FILLMODE
 70
     1
  9
$QTEXTMODE
 70
     0
  9
$MIRRTEXT
 70
     1
  9
$DRAGMODE
 70
     2
  9
$LTSCALE
 40
1.0
  9
$OSMODE
 70
     0
  9
$ATTMODE
 70
     1
  9
$TEXTSIZE
 40
0.2
  9
$TRACEWID
 40
0.05
  9
$TEXTSTYLE
  7
STANDARD
  9
$CLAYER
  8
0
  9
$CELTYPE
  6
BYLAYER
  9
$CECOLOR
 62
   256
  9
$DIMSCALE
 40
1.0
  9
$DIMASZ
 40
0.18
  9
$DIMEXO
 40
0.0625
  9
$DIMDLI
 40
0.38
  9
$DIMRND
 40
0.0
  9
$DIMDLE
 40
0.0
  9
$DIMEXE
 40
0.18
  9
$DIMTP
 40
0.0
  9
$DIMTM
 40
0.0
  9
$DIMTXT
 40
0.18
  9
$DIMCEN
 40
0.09
  9
$DIMTSZ
 40
0.0
  9
$DIMTOL
 70
     0
  9
$DIMLIM
 70
     0
  9
$DIMTIH
 70
     1
  9
$DIMTOH
 70
     1
  9
$DIMSE1
 70
     0
  9
$DIMSE2
 70
     0
  9
$DIMTAD
 70
     0
  9
$DIMZIN
 70
     0
  9
$DIMBLK
  1

  9
$DIMASO
 70
     1
  9
$DIMSHO
 70
     1
  9
$DIMPOST
  1

  9
$DIMAPOST
  1

  9
$DIMALT
 70
     0
  9
$DIMALTD
 70
     2
  9
$DIMALTF
 40
25.4
  9
$DIMLFAC
 40
1.0
  9
$DIMTOFL
 70
     0
  9
$DIMTVP
 40
0.0
  9
$DIMTIX
 70
     0
  9
$DIMSOXD
 70
     0
  9
$DIMSAH
 70
     0
  9
$DIMBLK1
  1

  9
$DIMBLK2
  1

  9
$DIMSTYLE
  2
*UNNAMED
  9
$DIMCLRD
 70
     0
  9
$DIMCLRE
 70
     0
  9
$DIMCLRT
 70
     0
  9
$DIMTFAC
 40
1.0
  9
$DIMGAP
 40
0.09
  9
$LUNITS
 70
     2
  9
$LUPREC
 70
     4
  9
$SKETCHINC
 40
0.1
  9
$FILLETRAD
 40
0.0
  9
$AUNITS
 70
     0
  9
$AUPREC
 70
     0
  9
$MENU
  1
acad
  9
$ELEVATION
 40
0.0
  9
$PELEVATION
 40
0.0
  9
$THICKNESS
 40
0.0
  9
$LIMCHECK
 70
     0
  9
$BLIPMODE
 70
     1
  9
$CHAMFERA
 40
0.0
  9
$CHAMFERB
 40
0.0
  9
$SKPOLY
 70
     0
  9
$TDCREATE
 40
2448820.910389676
  9
$TDUPDATE
 40
2448820.911536423
  9
$TDINDWG
 40
0.0011467477
  9
$TDUSRTIMER
 40
0.0011467477
  9
$USRTIMER
 70
     1
  9
$ANGBASE
 50
0.0
  9
$ANGDIR
 70
     0
  9
$PDMODE
 70
     0
  9
$PDSIZE
 40
0.0
  9
$PLINEWID
 40
0.0
  9
$COORDS
 70
     0
  9
$SPLFRAME
 70
     0
  9
$SPLINETYPE
 70
     6
  9
$SPLINESEGS
 70
     8
  9
$ATTDIA
 70
     0
  9
$ATTREQ
 70
     1
  9
$HANDLING
 70
     1
  9
$HANDSEED
  5
9E
  9
$SURFTAB1
 70
     6
  9
$SURFTAB2
 70
     6
  9
$SURFTYPE
 70
     6
  9
$SURFU
 70
     6
  9
$SURFV
 70
     6
  9
$UCSNAME
  2

  9
$UCSORG
 10
0.0
 20
0.0
 30
0.0
  9
$UCSXDIR
 10
1.0
 20
0.0
 30
0.0
  9
$UCSYDIR
 10
0.0
 20
1.0
 30
0.0
  9
$PUCSNAME
  2

  9
$PUCSORG
 10
0.0
 20
0.0
 30
0.0
  9
$PUCSXDIR
 10
1.0
 20
0.0
 30
0.0
  9
$PUCSYDIR
 10
0.0
 20
1.0
 30
0.0
  9
$USERI1
 70
     0
  9
$USERI2
 70
     0
  9
$USERI3
 70
     0
  9
$USERI4
 70
     0
  9
$USERI5
 70
     0
  9
$USERR1
 40
0.0
  9
$USERR2
 40
0.0
  9
$USERR3
 40
0.0
  9
$USERR4
 40
0.0
  9
$USERR5
 40
0.0
  9
$WORLDVIEW
 70
     1
  9
$SHADEDGE
 70
     3
  9
$SHADEDIF
 70
    70
  9
$TILEMODE
 70
     1
  9
$MAXACTVP
 70
    16
  9
$PINSBASE
 10
0.0
 20
0.0
 30
0.0
  9
$PLIMCHECK
 70
     0
  9
$PEXTMIN
 10
1.000000E+20
 20
1.000000E+20
 30
1.000000E+20
  9
$PEXTMAX
 10
-1.000000E+20
 20
-1.000000E+20
 30
-1.000000E+20
  9
$PLIMMIN
 10
0.0
 20
0.0
  9
$PLIMMAX
 10
12.0
 20
9.0
  9
$UNITMODE
 70
     0
  9
$VISRETAIN
 70
     0
  9
$PLINEGEN
 70
     0
  9
$PSLTSCALE
 70
     0
  9
$TREEDEPTH
 70
  3020
  9
$DWGCODEPAGE
  3
undefined
  0
ENDSEC
  0
SECTION
  2
TABLES
  0
TABLE
  2
VPORT
 70
     2
  0
VPORT
  2
*ACTIVE
 70
     0
 10
0.0
 20
0.0
 11
1.0
 21
1.0
 12
1.190219
 22
0.0
 13
0.0
 23
0.0
 14
1.0
 24
1.0
 15
0.0
 25
0.0
 16
1.0
 26
1.0
 36
1.0
 17
0.0
 27
0.0
 37
0.0
 40
3.265986
 41
1.594883
 42
50.0
 43
0.0
 44
0.0
 50
0.0
 51
0.0
 71
     0
 72
   100
 73
     1
 74
     1
 75
     0
 76
     0
 77
     0
 78
     0
  0
ENDTAB
  0
TABLE
  2
LTYPE
 70
     1
  0
LTYPE
  2
CONTINUOUS
 70
    64
  3
Solid line
 72
    65
 73
     0
 40
0.0
  0
ENDTAB
  0
TABLE
  2
LAYER
 70
     2
  0
LAYER
  2
0
 70
    64
 62
     7
  6
CONTINUOUS
  0
LAYER
  2
AME_FRZ
 70
    65
 62
     7
  6
CONTINUOUS
  0
ENDTAB
  0
TABLE
  2
STYLE
 70
     1
  0
STYLE
  2
STANDARD
 70
     0
 40
0.0
 41
1.0
 50
0.0
 71
     0
 42
0.2
  3
txt
  4

  0
ENDTAB
  0
TABLE
  2
VIEW
 70
     0
  0
ENDTAB
  0
TABLE
  2
UCS
 70
     0
  0
ENDTAB
  0
TABLE
  2
APPID
 70
     2
  0
APPID
  2
ACAD
 70
    64
  0
APPID
  2
AME_SOL
 70
    64
  0
ENDTAB
  0
TABLE
  2
DIMSTYLE
 70
     0
  0
ENDTAB
  0
ENDSEC
  0
SECTION
  2
BLOCKS
  0
BLOCK
  8
0
  5
1
  2
AME_NIL
 70
    64
 10
0.0
 20
0.0
 30
0.0
  1
AME_NIL
  3
AME_NIL
  0
ENDBLK
  8
0
  5
2
  0
BLOCK
  8
0
  5
4
  2
AME_SOL
 70
    64
 10
0.0
 20
0.0
 30
0.0
  1
AME_SOL
  3
AME_SOL
  0
ENDBLK
  8
0
  5
5
  0
BLOCK
  8
0
  5
7
  2
*U2
 70
    65
 10
0.0
 20
0.0
 30
0.0
  1
*U
  3
*U
  0
LINE
  8
0
 62
     0
  5
8
 10
2.0
 20
1.0
 30
0.0
 11
2.0
 21
1.0
 31
2.0
1001
AME_SOL
1070
     1
1071
       18
  0
LINE
  8
0
 62
     0
  5
9
 10
2.0
 20
1.0
 30
2.0
 11
2.0
 21
0.0
 31
2.0
1001
AME_SOL
1070
     1
1071
       17
  0
LINE
  8
0
 62
     0
  5
A
 10
0.0
 20
1.0
 30
2.0
 11
2.0
 21
1.0
 31
2.0
1001
AME_SOL
1070
     1
1071
       16
  0
LINE
  8
0
 62
     0
  5
B
 10
0.0
 20
1.0
 30
0.0
 11
0.0
 21
1.0
 31
2.0
1001
AME_SOL
1070
     1
1071
       15
  0
LINE
  8
0
 62
     0
  5
C
 10
0.0
 20
1.0
 30
2.0
 11
0.0
 21
0.0
 31
2.0
1001
AME_SOL
1070
     1
1071
       14
  0
LINE
  8
0
 62
     0
  5
D
 10
0.0
 20
0.0
 30
0.0
 11
0.0
 21
0.0
 31
2.0
1001
AME_SOL
1070
     1
1071
       13
  0
LINE
  8
0
 62
     0
  5
E
 10
2.0
 20
0.0
 30
2.0
 11
2.0
 21
0.0
 31
0.0
1001
AME_SOL
1070
     1
1071
       12
  0
LINE
  8
0
 62
     0
  5
F
 10
0.0
 20
0.0
 30
2.0
 11
2.0
 21
0.0
 31
2.0
1001
AME_SOL
1070
     1
1071
       11
  0
LINE
  8
0
 62
     0
  5
10
 10
0.0
 20
0.0
 30
0.0
 11
2.0
 21
0.0
 31
0.0
1001
AME_SOL
1070
     1
1071
       10
  0
LINE
  8
0
 62
     0
  5
11
 10
0.0
 20
1.0
 30
0.0
 11
0.0
 21
0.0
 31
0.0
1001
AME_SOL
1070
     1
1071
        9
  0
LINE
  8
0
 62
     0
  5
12
 10
2.0
 20
0.0
 30
0.0
 11
2.0
 21
1.0
 31
0.0
1001
AME_SOL
1070
     1
1071
        8
  0
LINE
  8
0
 62
     0
  5
13
 10
2.0
 20
1.0
 30
0.0
 11
0.0
 21
1.0
 31
0.0
1001
AME_SOL
1070
     1
1071
        7
  0
ENDBLK
  8
0
  5
14
  0
BLOCK
  8
0
  5
18
  2
*U3
 70
    65
 10
0.0
 20
0.0
 30
0.0
  1
*U
  3
*U
  0
LINE
  8
0
 62
     0
  5
19
 10
1.0
 20
1.0
 30
0.0
 11
1.0
 21
1.0
 31
1.0
1001
AME_SOL
1070
     1
1071
       18
  0
LINE
  8
0
 62
     0
  5
1A
 10
1.0
 20
1.0
 30
1.0
 11
1.0
 21
0.0
 31
1.0
1001
AME_SOL
1070
     1
1071
       17
  0
LINE
  8
0
 62
     0
  5
1B
 10
0.0
 20
1.0
 30
1.0
 11
1.0
 21
1.0
 31
1.0
1001
AME_SOL
1070
     1
1071
       16
  0
LINE
  8
0
 62
     0
  5
1C
 10
0.0
 20
1.0
 30
0.0
 11
0.0
 21
1.0
 31
1.0
1001
AME_SOL
1070
     1
1071
       15
  0
LINE
  8
0
 62
     0
  5
1D
 10
0.0
 20
1.0
 30
1.0
 11
0.0
 21
0.0
 31
1.0
1001
AME_SOL
1070
     1
1071
       14
  0
LINE
  8
0
 62
     0
  5
1E
 10
0.0
 20
0.0
 30
0.0
 11
0.0
 21
0.0
 31
1.0
1001
AME_SOL
1070
     1
1071
       13
  0
LINE
  8
0
 62
     0
  5
1F
 10
1.0
 20
0.0
 30
1.0
 11
1.0
 21
0.0
 31
0.0
1001
AME_SOL
1070
     1
1071
       12
  0
LINE
  8
0
 62
     0
  5
20
 10
0.0
 20
0.0
 30
1.0
 11
1.0
 21
0.0
 31
1.0
1001
AME_SOL
1070
     1
1071
       11
  0
LINE
  8
0
 62
     0
  5
21
 10
0.0
 20
0.0
 30
0.0
 11
1.0
 21
0.0
 31
0.0
1001
AME_SOL
1070
     1
1071
       10
  0
LINE
  8
0
 62
     0
  5
22
 10
0.0
 20
1.0
 30
0.0
 11
0.0
 21
0.0
 31
0.0
1001
AME_SOL
1070
     1
1071
        9
  0
LINE
  8
0
 62
     0
  5
23
 10
1.0
 20
0.0
 30
0.0
 11
1.0
 21
1.0
 31
0.0
1001
AME_SOL
1070
     1
1071
        8
  0
LINE
  8
0
 62
     0
  5
24
 10
1.0
 20
1.0
 30
0.0
 11
0.0
 21
1.0
 31
0.0
1001
AME_SOL
1070
     1
1071
        7
  0
ENDBLK
  8
0
  5
25
  0
BLOCK
  8
0
  5
2A
  2
*U4
 70
    65
 10
0.0
 20
0.0
 30
0.0
  1
*U
  3
*U
  0
LINE
  8
0
 62
     7
  5
2B
 10
1.0
 20
2.0
 30
0.0
 11
1.0
 21
2.0
 31
1.0
1001
AME_SOL
1070
     1
1071
       30
  0
LINE
  8
0
 62
     7
  5
2C
 10
1.0
 20
2.0
 30
1.0
 11
1.0
 21
1.0
 31
1.0
1001
AME_SOL
1070
     1
1071
       29
  0
LINE
  8
0
 62
     7
  5
2D
 10
0.0
 20
2.0
 30
1.0
 11
1.0
 21
2.0
 31
1.0
1001
AME_SOL
1070
     1
1071
       28
  0
LINE
  8
0
 62
     7
  5
2E
 10
0.0
 20
2.0
 30
0.0
 11
0.0
 21
2.0
 31
1.0
1001
AME_SOL
1070
     1
1071
       27
  0
LINE
  8
0
 62
     7
  5
2F
 10
0.0
 20
2.0
 30
1.0
 11
0.0
 21
1.0
 31
1.0
1001
AME_SOL
1070
     1
1071
       26
  0
LINE
  8
0
 62
     7
  5
30
 10
0.0
 20
2.0
 30
0.0
 11
0.0
 21
0.0
 31
0.0
1001
AME_SOL
1070
     1
1071
       25
  0
LINE
  8
0
 62
     7
  5
31
 10
1.0
 20
1.0
 30
0.0
 11
1.0
 21
2.0
 31
0.0
1001
AME_SOL
1070
     1
1071
       24
  0
LINE
  8
0
 62
     7
  5
32
 10
1.0
 20
2.0
 30
0.0
 11
0.0
 21
2.0
 31
0.0
1001
AME_SOL
1070
     1
1071
       23
  0
LINE
  8
0
 62
     7
  5
33
 10
2.0
 20
1.0
 30
0.0
 11
2.0
 21
0.0
 31
0.0
1001
AME_SOL
1070
     1
1071
       22
  0
LINE
  8
0
 62
     7
  5
34
 10
1.0
 20
1.0
 30
0.0
 11
2.0
 21
1.0
 31
0.0
1001
AME_SOL
1070
     1
1071
       21
  0
LINE
  8
0
 62
     7
  5
35
 10
0.0
 20
1.0
 30
2.0
 11
0.0
 21
1.0
 31
1.0
1001
AME_SOL
1070
     1
1071
       20
  0
LINE
  8
0
 62
     7
  5
36
 10
1.0
 20
1.0
 30
0.0
 11
1.0
 21
1.0
 31
1.0
1001
AME_SOL
1070
     1
1071
       19
  0
LINE
  8
0
 62
     7
  5
37
 10
1.0
 20
1.0
 30
1.0
 11
0.0
 21
1.0
 31
1.0
1001
AME_SOL
1070
     1
1071
       18
  0
LINE
  8
0
 62
     7
  5
38
 10
2.0
 20
1.0
 30
0.0
 11
2.0
 21
1.0
 31
2.0
1001
AME_SOL
1070
     1
1071
       17
  0
LINE
  8
0
 62
     7
  5
39
 10
0.0
 20
0.0
 30
2.0
 11
0.0
 21
1.0
 31
2.0
1001
AME_SOL
1070
     1
1071
       16
  0
LINE
  8
0
 62
     7
  5
3A
 10
2.0
 20
1.0
 30
2.0
 11
2.0
 21
0.0
 31
2.0
1001
AME_SOL
1070
     1
1071
       15
  0
LINE
  8
0
 62
     7
  5
3B
 10
0.0
 20
1.0
 30
2.0
 11
2.0
 21
1.0
 31
2.0
1001
AME_SOL
1070
     1
1071
       14
  0
LINE
  8
0
 62
     7
  5
3C
 10
2.0
 20
0.0
 30
0.0
 11
0.0
 21
0.0
 31
0.0
1001
AME_SOL
1070
     1
1071
       13
  0
LINE
  8
0
 62
     7
  5
3D
 10
0.0
 20
0.0
 30
0.0
 11
0.0
 21
0.0
 31
2.0
1001
AME_SOL
1070
     1
1071
       12
  0
LINE
  8
0
 62
     7
  5
3E
 10
2.0
 20
0.0
 30
2.0
 11
2.0
 21
0.0
 31
0.0
1001
AME_SOL
1070
     1
1071
       11
  0
LINE
  8
0
 62
     7
  5
3F
 10
0.0
 20
0.0
 30
2.0
 11
2.0
 21
0.0
 31
2.0
1001
AME_SOL
1070
     1
1071
       10
  0
ENDBLK
  8
0
  5
40
  0
BLOCK
  8
0
  5
44
  2
*U5
 70
    65
 10
0.0
 20
0.0
 30
0.0
  1
*U
  3
*U
  0
POLYLINE
  8
0
 62
     7
  5
45
 66
     1
 10
0.0
 20
0.0
 30
0.0
 70
    64
  0
VERTEX
  8
0
  5
46
 10
1.0
 20
1.0
 30
0.0
 70
   192
  0
VERTEX
  8
0
  5
47
 10
1.0
 20
2.0
 30
0.0
 70
   192
  0
VERTEX
  8
0
  5
48
 10
1.0
 20
1.0
 30
1.0
 70
   192
  0
VERTEX
  8
0
  5
49
 10
1.0
 20
2.0
 30
1.0
 70
   192
  0
VERTEX
  8
0
 62
     7
  5
4A
 10
0.0
 20
0.0
 30
0.0
 70
   128
 71
     1
 72
    -2
 73
     3
  0
VERTEX
  8
0
 62
     7
  5
4B
 10
0.0
 20
0.0
 30
0.0
 70
   128
 71
     2
 72
     4
 73
    -3
  0
SEQEND
  8
0
 62
     7
  5
4C
  0
POLYLINE
  8
0
 62
     7
  5
4D
 66
     1
 10
0.0
 20
0.0
 30
0.0
 70
    64
  0
VERTEX
  8
0
  5
4E
 10
0.0
 20
2.0
 30
0.0
 70
   192
  0
VERTEX
  8
0
  5
4F
 10
1.0
 20
2.0
 30
1.0
 70
   192
  0
VERTEX
  8
0
  5
50
 10
1.0
 20
2.0
 30
0.0
 70
   192
  0
VERTEX
  8
0
  5
51
 10
0.0
 20
2.0
 30
1.0
 70
   192
  0
VERTEX
  8
0
 62
     7
  5
52
 10
0.0
 20
0.0
 30
0.0
 70
   128
 71
    -1
 72
     2
 73
     3
  0
VERTEX
  8
0
 62
     7
  5
53
 10
0.0
 20
0.0
 30
0.0
 70
   128
 71
     1
 72
     4
 73
    -2
  0
SEQEND
  8
0
 62
     7
  5
54
  0
POLYLINE
  8
0
 62
     7
  5
55
 66
     1
 10
0.0
 20
0.0
 30
0.0
 70
    64
  0
VERTEX
  8
0
  5
56
 10
1.0
 20
2.0
 30
1.0
 70
   192
  0
VERTEX
  8
0
  5
57
 10
0.0
 20
2.0
 30
1.0
 70
   192
  0
VERTEX
  8
0
  5
58
 10
0.0
 20
1.0
 30
1.0
 70
   192
  0
VERTEX
  8
0
  5
59
 10
1.0
 20
1.0
 30
1.0
 70
   192
  0
VERTEX
  8
0
 62
     7
  5
5A
 10
0.0
 20
0.0
 30
0.0
 70
   128
 71
     1
 72
     2
 73
    -3
  0
VERTEX
  8
0
 62
     7
  5
5B
 10
0.0
 20
0.0
 30
0.0
 70
   128
 71
     3
 72
     4
 73
    -1
  0
SEQEND
  8
0
 62
     7
  5
5C
  0
POLYLINE
  8
0
 62
     7
  5
5D
 66
     1
 10
0.0
 20
0.0
 30
0.0
 70
    64
  0
VERTEX
  8
0
  5
5E
 10
0.0
 20
0.0
 30
2.0
 70
   192
  0
VERTEX
  8
0
  5
5F
 10
0.0
 20
1.0
 30
1.0
 70
   192
  0
VERTEX
  8
0
  5
60
 10
0.0
 20
2.0
 30
0.0
 70
   192
  0
VERTEX
  8
0
  5
61
 10
0.0
 20
0.0
 30
0.0
 70
   192
  0
VERTEX
  8
0
  5
62
 10
0.0
 20
2.0
 30
1.0
 70
   192
  0
VERTEX
  8
0
  5
63
 10
0.0
 20
1.0
 30
2.0
 70
   192
  0
VERTEX
  8
0
 62
     7
  5
64
 10
0.0
 20
0.0
 30
0.0
 70
   128
 71
    -1
 72
    -2
 73
    -3
  0
VERTEX
  8
0
 62
     7
  5
65
 10
0.0
 20
0.0
 30
0.0
 70
   128
 71
     3
 72
     4
 73
    -1
  0
VERTEX
  8
0
 62
     7
  5
66
 10
0.0
 20
0.0
 30
0.0
 70
   128
 71
     2
 72
     5
 73
    -3
  0
VERTEX
  8
0
 62
     7
  5
67
 10
0.0
 20
0.0
 30
0.0
 70
   128
 71
     1
 72
     6
 73
    -2
  0
SEQEND
  8
0
 62
     7
  5
68
  0
POLYLINE
  8
0
 62
     7
  5
69
 66
     1
 10
0.0
 20
0.0
 30
0.0
 70
    64
  0
VERTEX
  8
0
  5
6A
 10
0.0
 20
2.0
 30
0.0
 70
   192
  0
VERTEX
  8
0
  5
6B
 10
1.0
 20
1.0
 30
0.0
 70
   192
  0
VERTEX
  8
0
  5
6C
 10
2.0
 20
0.0
 30
0.0
 70
   192
  0
VERTEX
  8
0
  5
6D
 10
0.0
 20
0.0
 30
0.0
 70
   192
  0
VERTEX
  8
0
  5
6E
 10
2.0
 20
1.0
 30
0.0
 70
   192
  0
VERTEX
  8
0
  5
6F
 10
1.0
 20
2.0
 30
0.0
 70
   192
  0
VERTEX
  8
0
 62
     7
  5
70
 10
0.0
 20
0.0
 30
0.0
 70
   128
 71
    -1
 72
    -2
 73
    -3
  0
VERTEX
  8
0
 62
     7
  5
71
 10
0.0
 20
0.0
 30
0.0
 70
   128
 71
     3
 72
     4
 73
    -1
  0
VERTEX
  8
0
 62
     7
  5
72
 10
0.0
 20
0.0
 30
0.0
 70
   128
 71
     2
 72
     5
 73
    -3
  0
VERTEX
  8
0
 62
     7
  5
73
 10
0.0
 20
0.0
 30
0.0
 70
   128
 71
     1
 72
     6
 73
    -2
  0
SEQEND
  8
0
 62
     7
  5
74
  0
POLYLINE
  8
0
 62
     7
  5
75
 66
     1
 10
0.0
 20
0.0
 30
0.0
 70
    64
  0
VERTEX
  8
0
  5
76
 10
2.0
 20
0.0
 30
0.0
 70
   192
  0
VERTEX
  8
0
  5
77
 10
2.0
 20
1.0
 30
2.0
 70
   192
  0
VERTEX
  8
0
  5
78
 10
2.0
 20
0.0
 30
2.0
 70
   192
  0
VERTEX
  8
0
  5
79
 10
2.0
 20
1.0
 30
0.0
 70
   192
  0
VERTEX
  8
0
 62
     7
  5
7A
 10
0.0
 20
0.0
 30
0.0
 70
   128
 71
    -1
 72
     2
 73
     3
  0
VERTEX
  8
0
 62
     7
  5
7B
 10
0.0
 20
0.0
 30
0.0
 70
   128
 71
     1
 72
     4
 73
    -2
  0
SEQEND
  8
0
 62
     7
  5
7C
  0
POLYLINE
  8
0
 62
     7
  5
7D
 66
     1
 10
0.0
 20
0.0
 30
0.0
 70
    64
  0
VERTEX
  8
0
  5
7E
 10
2.0
 20
1.0
 30
0.0
 70
   192
  0
VERTEX
  8
0
  5
7F
 10
1.0
 20
1.0
 30
1.0
 70
   192
  0
VERTEX
  8
0
  5
80
 10
0.0
 20
1.0
 30
2.0
 70
   192
  0
VERTEX
  8
0
  5
81
 10
2.0
 20
1.0
 30
2.0
 70
   192
  0
VERTEX
  8
0
  5
82
 10
0.0
 20
1.0
 30
1.0
 70
   192
  0
VERTEX
  8
0
  5
83
 10
1.0
 20
1.0
 30
0.0
 70
   192
  0
VERTEX
  8
0
 62
     7
  5
84
 10
0.0
 20
0.0
 30
0.0
 70
   128
 71
    -1
 72
    -2
 73
    -3
  0
VERTEX
  8
0
 62
     7
  5
85
 10
0.0
 20
0.0
 30
0.0
 70
   128
 71
     3
 72
     4
 73
    -1
  0
VERTEX
  8
0
 62
     7
  5
86
 10
0.0
 20
0.0
 30
0.0
 70
   128
 71
     2
 72
     5
 73
    -3
  0
VERTEX
  8
0
 62
     7
  5
87
 10
0.0
 20
0.0
 30
0.0
 70
   128
 71
     1
 72
     6
 73
    -2
  0
SEQEND
  8
0
 62
     7
  5
88
  0
POLYLINE
  8
0
 62
     7
  5
89
 66
     1
 10
0.0
 20
0.0
 30
0.0
 70
    64
  0
VERTEX
  8
0
  5
8A
 10
2.0
 20
0.0
 30
2.0
 70
   192
  0
VERTEX
  8
0
  5
8B
 10
0.0
 20
1.0
 30
2.0
 70
   192
  0
VERTEX
  8
0
  5
8C
 10
0.0
 20
0.0
 30
2.0
 70
   192
  0
VERTEX
  8
0
  5
8D
 10
2.0
 20
1.0
 30
2.0
 70
   192
  0
VERTEX
  8
0
 62
     7
  5
8E
 10
0.0
 20
0.0
 30
0.0
 70
   128
 71
    -1
 72
     2
 73
     3
  0
VERTEX
  8
0
 62
     7
  5
8F
 10
0.0
 20
0.0
 30
0.0
 70
   128
 71
     1
 72
     4
 73
    -2
  0
SEQEND
  8
0
 62
     7
  5
90
  0
POLYLINE
  8
0
 62
     7
  5
91
 66
     1
 10
0.0
 20
0.0
 30
0.0
 70
    64
  0
VERTEX
  8
0
  5
92
 10
0.0
 20
0.0
 30
0.0
 70
   192
  0
VERTEX
  8
0
  5
93
 10
2.0
 20
0.0
 30
0.0
 70
   192
  0
VERTEX
  8
0
  5
94
 10
2.0
 20
0.0
 30
2.0
 70
   192
  0
VERTEX
  8
0
  5
95
 10
0.0
 20
0.0
 30
2.0
 70
   192
  0
VERTEX
  8
0
 62
     7
  5
96
 10
0.0
 20
0.0
 30
0.0
 70
   128
 71
     1
 72
     2
 73
    -3
  0
VERTEX
  8
0
 62
     7
  5
97
 10
0.0
 20
0.0
 30
0.0
 70
   128
 71
     3
 72
     4
 73
    -1
  0
SEQEND
  8
0
 62
     7
  5
98
  0
ENDBLK
  8
0
  5
99
  0
BLOCK
  8
0
  5
9B
  2
AME_MAT
 70
    64
 10
0.0
 20
0.0
 30
0.0
  1
AME_MAT
  3
AME_MAT
  0
ENDBLK
  8
0
  5
9C
  0
ENDSEC
  0
SECTION
  2
ENTITIES
  0
INSERT
  8
AME_FRZ
  5
3
  2
AME_NIL
 10
0.0
 20
0.0
 30
0.0
  0
INSERT
  8
AME_FRZ
  5
6
  2
AME_SOL
 10
0.0
 20
0.0
 30
0.0
1001
AME_SOL
1000
1.0
1000
sq cm
1070
     3
1070
     0
1070
     3
1000
wire
1040
0.0
1000
NONE
1040
1.0
1000
cm
1000
gm
1000
MILD_STEEL
1070
    25
1000
CSG
1070
     3
1070
     2
1070
     3
1000
cu cm
1070
     4
1070
     0
1005
3
  0
INSERT
  8
AME_FRZ
  5
15
  2
*U2
 10
0.0
 20
0.0
 30
0.0
1001
AME_SOL
1002
{
1070
     0
1071
  2002184
1070
  1536
1010
2.0
1020
1.0
1030
2.0
1005
0
1005
0
1005
41
1040
0.0
1040
1.0
1000
MILD_STEEL
1000
0
1010
0.0
1020
0.0
1030
0.0
1010
0.0
1020
0.0
1030
1.0
1040
0.0
1002
}
  0
INSERT
  8
AME_FRZ
  5
26
  2
*U3
 10
0.0
 20
1.0
 30
0.0
1001
AME_SOL
1002
{
1070
     0
1071
  1987952
1070
  1536
1010
1.0
1020
1.0
1030
1.0
1005
0
1005
0
1005
41
1040
0.0
1040
1.0
1000
MILD_STEEL
1000
0
1010
0.0
1020
1.0
1030
0.0
1010
0.0
1020
0.0
1030
1.0
1040
0.0
1002
}
  0
INSERT
  8
0
  5
41
  2
*U5
 10
0.0
 20
0.0
 30
0.0
1001
AME_SOL
1002
{
1070
     0
1071
  1927648
1070
  9223
1070
     2
1005
26
1005
15
1005
9A
1005
42
1005
0
1040
20.0
1040
1.0
1000
MILD_STEEL
1000
0
1002
}
  0
INSERT
  8
AME_FRZ
  5
42
  2
AME_NIL
 10
1.0
 20
1.0
 30
1.0
1001
AME_SOL
1004
E903A9FB0100F0FFFFFF000052F70900010000000000C0B90000C0B90000C0B900060040000400400006004001000000FBF204000000C0B90000C0B90000C0B9000600400000C039000600400100844E60631E00010000000100CD000000844E00000000803F000000000000000000000000000000000000
1004
803F00000000000000000000000005000000000000000000000000000000000000000000844E00000000803F000000000000000000000000000000000000803F00000000000000000000000005000000000000000000000000000000000001000000FBF204000000C0B90000C0B900F4FF3F00060040000C
1004
803F000600400100844ED0621E00010000000100CB000000844E0000000080BF000000800000008000000080000080BF00000080000000400000803F0000004005000000000000000000000000000000000000000000844E0000000080BF000000800000008000000080000080BF00000080000000400000
1004
803F0000004005000000000000000000000000000000000001000000FBF206000000C0B900E87F3F0000C0B900060040000C803F000600400100844E10651E00010000000100CA000000844E00000000008000000080000080BF000080BF0000008000000080000000400000803F00000040050000000000
1004
00000000000000000000000000000000844E0000000080BF000000800000008000000000000000000000803F000000000000803F0000000005000000000000000000000000000000000001000000FBF2040000F4FF3F0000C0B90000C0B900060040000C803F000600400100844E80641E00010000000100
1004
C9000000844E000000000080000080BF000000800000008000000080000080BF000000400000803F0000004005000000000000000000000000000000000000000000844E000000000080000080BF000000800000008000000080000080BF000000400000803F000000400500000000000000000000000000
1004
0000000001000000FBF206000000C0B90000C0B90000C0B900060040000C803F0000C0390100844EF0631E00010000000200CE000000844E0000000000000000803F000000000000803F00000000000000000000000000000000000000000500000000000000000000000000000000000000000032010000
1004
844E0000000000000000803F000000000000803F0000000000000000000000000000803F0000000005000000000000000000000000000000000000000000844E0000000000000000803F000000000000803F0000000000000000000000000000803F00000000050000000000000000000000000000000000
1004
01000000FBF206000000C0B90000C0B90000C0B90000C039000C803F000600400100844EE0851E00010000000200CC000000844E000000000000000000000000803F000000000000803F000000000000000000000000000000000500000000000000000000000000000000000000000030010000844E0000
1004
00000000000000000000803F000000000000803F00000000000000000000803F0000000005000000000000000000000000000000000000000000844E000000000000000000000000803F000000000000803F00000000000000000000803F0000000005000000000000000000000000000000000001000000
1004
FBF20400000080B900F07F3F00F07F3F0008803F000400400008803F0100844EC08F1E000100000001002F010000844E0000000080BF000000800000008000000080000080BF000000800000803F000000400000803F05000000000000000000000000000000000000000000844E0000000080BF00000080
1004
0000008000000080000080BF000000800000803F000000400000803F05000000000000000000000000000000000001000000FBF20400000080B900F8FF3F000080B90008803F000400400008803F0100844E60881E000100000001002E010000844E00000000008000000080000080BF000080BF00000080
1004
000000800000803F000000400000803F05000000000000000000000000000000000000000000844E00000000008000000080000080BF000080BF00000080000000800000803F000000400000803F05000000000000000000000000000000000001000000FBF2040000F07F3F00F07F3F000080B90008803F
1004
000400400008803F0100844E30841E000100000001002D010000844E000000000080000080BF000000800000008000000080000080BF0000803F000000400000803F05000000000000000000000000000000000000000000844E000000000080000080BF000000800000008000000080000080BF0000803F
1004
000000400000803F05000000000000000000000000000000000001000000A4EE0000C0B90000C0B900F4FF3F000600400000C03900060040000080BF0000803F02009675D8681E000000FFFF010060631E00D0621E000000020060631E00D0621E0001000000010000009675000000000000000000000000
1004
803F00000000000080BF000000000000803F00000000000000400200000080BF0000803FA4EE00F4FF3F0000C0B90000C0B9000600400000C03900060040000080BF0000803F0200967520681E000000FFFF010060631E0080641E000000020060631E0080641E000100000001000000967500000000803F
1004
000000000000000000000000000080BF0000000000000040000000000000803F0200000080BF0000803FA4EE0000C0B90000C0B90000C0B90000C0390000C03900060040000000000000004002009675E07F1E000000FFFF010060631E00E0851E000000020060631E00E0851E0001000000010000009675
1004
0000000080BF000000000000000000000000000080BF0000000000000000000000000000000002000000000000000040A4EE0000C0B90000C0B90000C0B9000600400000C0390000C039000000C0000000800200967540601E000000FFFF010060631E00F0631E000000020060631E00F0631E0001000000
1004
01000000967500000000000000000000000080BF00000000000080BF000000000000000000000000000000000200000000C000000080A4EE0000C0B900E87F3F00F4FF3F00060040000C803F00060040000080BF0000803F0200967500551E000000FFFF0100D0621E0010651E0000000200D0621E001065
1004
1E00010000000100000096750000000000000000803F0000000000000000000000000000803F0000803F0000803F000000400200000080BF0000803FA4EE00F4FF3F0000C0B900F4FF3F00060040000C803F00060040000000000000803F0200967508531E000000FFFF0100D0621E0080641E0000000200
1004
D0621E0080641E000100000001000000967500000000803F000000000000000000000080000000000000803F000000400000803F000000400200000000000000803FA4EE0000C0B90000C0B900F4FF3F0000C039000C803F00060040000080BF000000800200967588801E000000FFFF0100D0621E00E085
1004
1E0000000200D0621E00E0851E00010000000100000096750000000080BF000000000000000000000000000000000000803F000000000000803F000000400200000080BF00000080A4EE00F4FF3F00E87F3F0000C0B900060040000C803F00060040000080BF0000803F02009675A85C1C000000FFFF0100
1004
10651E0080641E000000020010651E0080641E000100000001000000967500000000803F0000000000000000000000000000803F00000000000000400000803F0000803F0200000080BF0000803FA4EE000080B900F07F3F00F07F3F0008803F000C803F0008803F000000BF0000003F02009675785F1C00
1004
00000100FFFF10651E00C08F1E0000000200C08F1E0010651E0001000000010000009675000000000000000000000000803F000000000000803F000000800000003F0000803F0000803F0200000000BF0000003FA4EE00F07F3F00F07F3F000080B90008803F000C803F0008803F000000BF0000003F0200
1004
967508601C0000000100FFFF10651E0030841E000000020030841E0010651E000100000001000000967500000000803F0000000000000000000000000000803F000000000000803F0000803F0000003F0200000000BF0000003FA4EE0000C0B900E87F3F0000C0B90000C039000C803F00060040000000C0
1004
000080BF0200967598601C000000FFFF010010651E00E0851E000000020010651E00E0851E00010000000100000096750000000080BF0000000000000000000000000000803F00000000000000000000803F000000000200000000C0000080BFA4EE0000C0B900E87F3F0000C0B900060040000C803F0000
1004
C0390000803F000000400200967540421D000000FFFF010010651E00F0631E000000020010651E00F0631E000100000001000000967500000000000000000000000080BF000000000000803F00000000000000000000803F0000000002000000803F00000040A4EE00F4FF3F0000C0B90000C0B900060040
1004
000C803F0000C039000000000000803F0200967560431D000000FFFF010080641E00F0631E000000020080641E00F0631E000100000001000000967500000000000000000000000080BF0000803F0000000000000000000000400000803F000000000200000000000000803FA4EE000080B900F8FF3F0000
1004
80B90008803F0004004000008039000000BF0000003F02009675F0431D000000FFFF0100F0631E0060881E0000000200F0631E0060881E00010000000100000096750000000000000000803F000000000000000000000000000080BF0000003F00000040000000000200000000BF0000003FA4EE00F07F3F
1004
00F07F3F000080B90008803F000400400000C039000000BF0000003F0200967598471D000000FFFF0100F0631E0030841E0000000200F0631E0030841E000100000001000000967500000000803F00000000000000000000000000000000000080BF0000803F0000C03F000000000200000000BF0000003F
1004
A4EE0000C0B90000C0B90000C0B90000C039000400400000C039000080BF0000803F02009675D8491D000000FFFF0100F0631E00E0851E0000000200F0631E00E0851E00010000000100000096750000000080BF00000000000000000000000000000000000080BF000000000000803F0000000002000000
1004
80BF0000803FA4EE000080B900F07F3F00F07F3F0000C039000400400008803F000000BF0000003F0200967570481D000000FFFF0100E0851E00C08F1E0000000200E0851E00C08F1E0001000000010000009675000000000000000000000000803F000080BF0000000000000000000000000000C03F0000
1004
803F0200000000BF0000003FA4EE000080B900F8FF3F000080B900008039000400400008803F000000BF0000003F0200967550471D000000FFFF0100E0851E0060881E0000000200E0851E0060881E00010000000100000096750000000000000000803F00000000000080BF000000000000000000000000
1004
000000400000003F0200000000BF0000003FA4EE000080B900F8FF3F00F07F3F0008803F000400400008803F000080BF0000008002009675184C1D000000FFFF0100C08F1E0060881E0000000200C08F1E0060881E00010000000100000096750000000000000000803F0000000000000000000000000000
1004
803F0000803F000000400000803F0200000080BF00000080A4EE00F07F3F00F07F3F00F07F3F0008803F000400400008803F000000000000803F02009675684A1D000000FFFF0100C08F1E0030841E0000000200C08F1E0030841E000100000001000000967500000000803F000000000000000000000080
1004
000000000000803F0000803F000000400000803F0200000000000000803FA4EE00F07F3F00F8FF3F000080B90008803F000400400008803F000080BF0000008002009675D03F1D000000FFFF010060881E0030841E000000020060881E0030841E000100000001000000967500000000803F000000000000
1004
0000000000000000803F000000000000803F000000400000803F0200000080BF0000008019FC
1005
43
  0
INSERT
  8
AME_FRZ
  5
43
  2
AME_NIL
 10
1.0
 20
1.0
 30
1.0
1001
AME_SOL
1004

1005
0
  0
INSERT
  8
AME_FRZ
  5
9A
  2
*U4
 10
0.0
 20
0.0
 30
0.0
  0
INSERT
  8
AME_FRZ
  5
9D
  2
AME_MAT
 10
0.0
 20
0.0
 30
0.0
1001
AME_SOL
1000
MILD_STEEL
1040
7860.0
1040
220.0
1040
0.275
1040
207.0
1040
345.0
1040
56.0
1040
12.0
1040
0.46
  0
ENDSEC
  0
EOF
