  0
SECTION
  2
HEADER
  9
$ACADVER
  1
AC1009
  9
$INSBASE
 10
0.0
 20
0.0
 30
0.0
  9
$EXTMIN
 10
-2.5
 20
-2.5
 30
-0.23668
  9
$EXTMAX
 10
10.0
 20
12.5
 30
14.733593
  9
$LIMMIN
 10
0.0
 20
0.0
  9
$LIMMAX
 10
12.0
 20
9.0
  9
$ORTHOMODE
 70
     0
  9
$REGENMODE
 70
     1
  9
$FILLMODE
 70
     1
  9
$QTEXTMODE
 70
     0
  9
$MIRRTEXT
 70
     1
  9
$DRAGMODE
 70
     2
  9
$LTSCALE
 40
1.0
  9
$OSMODE
 70
     0
  9
$ATTMODE
 70
     1
  9
$TEXTSIZE
 40
0.2
  9
$TRACEWID
 40
0.05
  9
$TEXTSTYLE
  7
STANDARD
  9
$CLAYER
  8
0
  9
$CELTYPE
  6
BYLAYER
  9
$CECOLOR
 62
   256
  9
$DIMSCALE
 40
1.0
  9
$DIMASZ
 40
0.18
  9
$DIMEXO
 40
0.0625
  9
$DIMDLI
 40
0.38
  9
$DIMRND
 40
0.0
  9
$DIMDLE
 40
0.0
  9
$DIMEXE
 40
0.18
  9
$DIMTP
 40
0.0
  9
$DIMTM
 40
0.0
  9
$DIMTXT
 40
0.18
  9
$DIMCEN
 40
0.09
  9
$DIMTSZ
 40
0.0
  9
$DIMTOL
 70
     0
  9
$DIMLIM
 70
     0
  9
$DIMTIH
 70
     1
  9
$DIMTOH
 70
     1
  9
$DIMSE1
 70
     0
  9
$DIMSE2
 70
     0
  9
$DIMTAD
 70
     0
  9
$DIMZIN
 70
     0
  9
$DIMBLK
  1

  9
$DIMASO
 70
     1
  9
$DIMSHO
 70
     1
  9
$DIMPOST
  1

  9
$DIMAPOST
  1

  9
$DIMALT
 70
     0
  9
$DIMALTD
 70
     2
  9
$DIMALTF
 40
25.4
  9
$DIMLFAC
 40
1.0
  9
$DIMTOFL
 70
     0
  9
$DIMTVP
 40
0.0
  9
$DIMTIX
 70
     0
  9
$DIMSOXD
 70
     0
  9
$DIMSAH
 70
     0
  9
$DIMBLK1
  1

  9
$DIMBLK2
  1

  9
$DIMSTYLE
  2
*UNNAMED
  9
$DIMCLRD
 70
     0
  9
$DIMCLRE
 70
     0
  9
$DIMCLRT
 70
     0
  9
$DIMTFAC
 40
1.0
  9
$DIMGAP
 40
0.09
  9
$LUNITS
 70
     2
  9
$LUPREC
 70
     4
  9
$SKETCHINC
 40
0.1
  9
$FILLETRAD
 40
0.0
  9
$AUNITS
 70
     0
  9
$AUPREC
 70
     0
  9
$MENU
  1
acad
  9
$ELEVATION
 40
0.0
  9
$PELEVATION
 40
0.0
  9
$THICKNESS
 40
0.0
  9
$LIMCHECK
 70
     0
  9
$BLIPMODE
 70
     1
  9
$CHAMFERA
 40
0.0
  9
$CHAMFERB
 40
0.0
  9
$SKPOLY
 70
     0
  9
$TDCREATE
 40
2449183.815443032
  9
$TDUPDATE
 40
2449183.815443032
  9
$TDINDWG
 40
0.0000000000
  9
$TDUSRTIMER
 40
0.0000000000
  9
$USRTIMER
 70
     1
  9
$ANGBASE
 50
0.0
  9
$ANGDIR
 70
     0
  9
$PDMODE
 70
     0
  9
$PDSIZE
 40
0.0
  9
$PLINEWID
 40
0.0
  9
$COORDS
 70
     0
  9
$SPLFRAME
 70
     0
  9
$SPLINETYPE
 70
     6
  9
$SPLINESEGS
 70
     8
  9
$ATTDIA
 70
     0
  9
$ATTREQ
 70
     1
  9
$HANDLING
 70
     1
  9
$HANDSEED
  5
F5
  9
$SURFTAB1
 70
     6
  9
$SURFTAB2
 70
     6
  9
$SURFTYPE
 70
     6
  9
$SURFU
 70
     6
  9
$SURFV
 70
     6
  9
$UCSNAME
  2

  9
$UCSORG
 10
0.0
 20
0.0
 30
0.0
  9
$UCSXDIR
 10
1.0
 20
0.0
 30
0.0
  9
$UCSYDIR
 10
0.0
 20
1.0
 30
0.0
  9
$PUCSNAME
  2

  9
$PUCSORG
 10
0.0
 20
0.0
 30
0.0
  9
$PUCSXDIR
 10
1.0
 20
0.0
 30
0.0
  9
$PUCSYDIR
 10
0.0
 20
1.0
 30
0.0
  9
$USERI1
 70
     0
  9
$USERI2
 70
     0
  9
$USERI3
 70
     0
  9
$USERI4
 70
     0
  9
$USERI5
 70
     0
  9
$USERR1
 40
0.0
  9
$USERR2
 40
0.0
  9
$USERR3
 40
0.0
  9
$USERR4
 40
0.0
  9
$USERR5
 40
0.0
  9
$WORLDVIEW
 70
     1
  9
$SHADEDGE
 70
     3
  9
$SHADEDIF
 70
    70
  9
$TILEMODE
 70
     1
  9
$MAXACTVP
 70
    16
  9
$PINSBASE
 10
0.0
 20
0.0
 30
0.0
  9
$PLIMCHECK
 70
     0
  9
$PEXTMIN
 10
1.000000E+20
 20
1.000000E+20
 30
1.000000E+20
  9
$PEXTMAX
 10
-1.000000E+20
 20
-1.000000E+20
 30
-1.000000E+20
  9
$PLIMMIN
 10
0.0
 20
0.0
  9
$PLIMMAX
 10
12.0
 20
9.0
  9
$UNITMODE
 70
     0
  9
$VISRETAIN
 70
     0
  9
$PLINEGEN
 70
     0
  9
$PSLTSCALE
 70
     0
  9
$TREEDEPTH
 70
  3020
  9
$DWGCODEPAGE
  3
undefined
  0
ENDSEC
  0
SECTION
  2
TABLES
  0
TABLE
  2
VPORT
 70
     2
  0
VPORT
  2
*ACTIVE
 70
     0
 10
0.0
 20
0.0
 11
1.0
 21
1.0
 12
3.638269
 22
0.415227
 13
0.0
 23
0.0
 14
1.0
 24
1.0
 15
0.0
 25
0.0
 16
0.5
 26
1.0
 36
0.75
 17
0.0
 27
0.0
 37
0.0
 40
15.778641
 41
1.594883
 42
50.0
 43
0.0
 44
0.0
 50
0.0
 51
0.0
 71
     0
 72
   100
 73
     1
 74
     1
 75
     0
 76
     0
 77
     0
 78
     0
  0
ENDTAB
  0
TABLE
  2
LTYPE
 70
     1
  0
LTYPE
  2
CONTINUOUS
 70
    64
  3
Solid line
 72
    65
 73
     0
 40
0.0
  0
ENDTAB
  0
TABLE
  2
LAYER
 70
     2
  0
LAYER
  2
0
 70
    64
 62
     7
  6
CONTINUOUS
  0
LAYER
  2
AME_FRZ
 70
    65
 62
     7
  6
CONTINUOUS
  0
ENDTAB
  0
TABLE
  2
STYLE
 70
     1
  0
STYLE
  2
STANDARD
 70
     0
 40
0.0
 41
1.0
 50
0.0
 71
     0
 42
0.2
  3
txt
  4

  0
ENDTAB
  0
TABLE
  2
VIEW
 70
     0
  0
ENDTAB
  0
TABLE
  2
UCS
 70
     0
  0
ENDTAB
  0
TABLE
  2
APPID
 70
     2
  0
APPID
  2
ACAD
 70
    64
  0
APPID
  2
AME_SOL
 70
    64
  0
ENDTAB
  0
TABLE
  2
DIMSTYLE
 70
     0
  0
ENDTAB
  0
ENDSEC
  0
SECTION
  2
BLOCKS
  0
BLOCK
  8
0
  5
1
  2
AME_NIL
 70
    64
 10
0.0
 20
0.0
 30
0.0
  1
AME_NIL
  3
AME_NIL
  0
ENDBLK
  8
0
  5
2
  0
BLOCK
  8
0
  5
4
  2
AME_SOL
 70
    64
 10
0.0
 20
0.0
 30
0.0
  1
AME_SOL
  3
AME_SOL
  0
ENDBLK
  8
0
  5
5
  0
BLOCK
  8
0
  5
7
  2
*U2
 70
    65
 10
0.0
 20
0.0
 30
0.0
  1
*U
  3
*U
  0
LINE
  8
0
 62
     0
  5
8
 10
10.0
 20
10.0
 30
0.0
 11
10.0
 21
10.0
 31
10.0
1001
AME_SOL
1070
     1
1071
       18
  0
LINE
  8
0
 62
     0
  5
9
 10
10.0
 20
10.0
 30
10.0
 11
10.0
 21
0.0
 31
10.0
1001
AME_SOL
1070
     1
1071
       17
  0
LINE
  8
0
 62
     0
  5
A
 10
0.0
 20
10.0
 30
10.0
 11
10.0
 21
10.0
 31
10.0
1001
AME_SOL
1070
     1
1071
       16
  0
LINE
  8
0
 62
     0
  5
B
 10
0.0
 20
10.0
 30
0.0
 11
0.0
 21
10.0
 31
10.0
1001
AME_SOL
1070
     1
1071
       15
  0
LINE
  8
0
 62
     0
  5
C
 10
0.0
 20
10.0
 30
10.0
 11
0.0
 21
0.0
 31
10.0
1001
AME_SOL
1070
     1
1071
       14
  0
LINE
  8
0
 62
     0
  5
D
 10
0.0
 20
0.0
 30
0.0
 11
0.0
 21
0.0
 31
10.0
1001
AME_SOL
1070
     1
1071
       13
  0
LINE
  8
0
 62
     0
  5
E
 10
10.0
 20
0.0
 30
10.0
 11
10.0
 21
0.0
 31
0.0
1001
AME_SOL
1070
     1
1071
       12
  0
LINE
  8
0
 62
     0
  5
F
 10
0.0
 20
0.0
 30
10.0
 11
10.0
 21
0.0
 31
10.0
1001
AME_SOL
1070
     1
1071
       11
  0
LINE
  8
0
 62
     0
  5
10
 10
0.0
 20
0.0
 30
0.0
 11
10.0
 21
0.0
 31
0.0
1001
AME_SOL
1070
     1
1071
       10
  0
LINE
  8
0
 62
     0
  5
11
 10
0.0
 20
10.0
 30
0.0
 11
0.0
 21
0.0
 31
0.0
1001
AME_SOL
1070
     1
1071
        9
  0
LINE
  8
0
 62
     0
  5
12
 10
10.0
 20
0.0
 30
0.0
 11
10.0
 21
10.0
 31
0.0
1001
AME_SOL
1070
     1
1071
        8
  0
LINE
  8
0
 62
     0
  5
13
 10
10.0
 20
10.0
 30
0.0
 11
0.0
 21
10.0
 31
0.0
1001
AME_SOL
1070
     1
1071
        7
  0
ENDBLK
  8
0
  5
14
  0
BLOCK
  8
0
  5
18
  2
AME_MAT
 70
    64
 10
0.0
 20
0.0
 30
0.0
  1
AME_MAT
  3
AME_MAT
  0
ENDBLK
  8
0
  5
19
  0
BLOCK
  8
0
  5
1E
  2
*U4
 70
    65
 10
0.0
 20
0.0
 30
0.0
  1
*U
  3
*U
  0
CIRCLE
  8
0
 62
     0
  5
1F
 10
0.0
 20
0.0
 30
0.0
 40
2.5
1001
AME_SOL
1070
     1
1071
        5
  0
CIRCLE
  8
0
 62
     0
  5
20
 10
0.0
 20
0.0
 30
5.0
 40
2.5
1001
AME_SOL
1070
     1
1071
        4
  0
LINE
  8
0
 62
     0
  5
21
 10
-0.956708
 20
2.309699
 30
0.0
 11
-0.956708
 21
2.309699
 31
5.0
1001
AME_SOL
1070
     0
1071
        1
  0
LINE
  8
0
 62
     0
  5
22
 10
-1.767767
 20
1.767767
 30
0.0
 11
-1.767767
 21
1.767767
 31
5.0
1001
AME_SOL
1070
     0
1071
        1
  0
LINE
  8
0
 62
     0
  5
23
 10
-2.309699
 20
0.956709
 30
0.0
 11
-2.309699
 21
0.956709
 31
5.0
1001
AME_SOL
1070
     0
1071
        1
  0
LINE
  8
0
 62
     0
  5
24
 10
-2.5
 20
0.0
 30
0.0
 11
-2.5
 21
0.0
 31
5.0
1001
AME_SOL
1070
     0
1071
        1
  0
LINE
  8
0
 62
     0
  5
25
 10
-2.309699
 20
-0.956708
 30
0.0
 11
-2.309699
 21
-0.956708
 31
5.0
1001
AME_SOL
1070
     0
1071
        1
  0
LINE
  8
0
 62
     0
  5
26
 10
-1.767767
 20
-1.767767
 30
0.0
 11
-1.767767
 21
-1.767767
 31
5.0
1001
AME_SOL
1070
     0
1071
        1
  0
LINE
  8
0
 62
     0
  5
27
 10
-0.956709
 20
-2.309699
 30
0.0
 11
-0.956709
 21
-2.309699
 31
5.0
1001
AME_SOL
1070
     0
1071
        1
  0
LINE
  8
0
 62
     0
  5
28
 10
0.0
 20
-2.5
 30
0.0
 11
0.0
 21
-2.5
 31
5.0
1001
AME_SOL
1070
     0
1071
        1
  0
LINE
  8
0
 62
     0
  5
29
 10
0.956708
 20
-2.309699
 30
0.0
 11
0.956708
 21
-2.309699
 31
5.0
1001
AME_SOL
1070
     0
1071
        1
  0
LINE
  8
0
 62
     0
  5
2A
 10
1.767767
 20
-1.767767
 30
0.0
 11
1.767767
 21
-1.767767
 31
5.0
1001
AME_SOL
1070
     0
1071
        1
  0
LINE
  8
0
 62
     0
  5
2B
 10
2.309699
 20
-0.956709
 30
0.0
 11
2.309699
 21
-0.956709
 31
5.0
1001
AME_SOL
1070
     0
1071
        1
  0
LINE
  8
0
 62
     0
  5
2C
 10
2.5
 20
0.0
 30
0.0
 11
2.5
 21
0.0
 31
5.0
1001
AME_SOL
1070
     0
1071
        1
  0
LINE
  8
0
 62
     0
  5
2D
 10
2.309699
 20
0.956709
 30
0.0
 11
2.309699
 21
0.956709
 31
5.0
1001
AME_SOL
1070
     0
1071
        1
  0
LINE
  8
0
 62
     0
  5
2E
 10
1.767767
 20
1.767767
 30
0.0
 11
1.767767
 21
1.767767
 31
5.0
1001
AME_SOL
1070
     0
1071
        1
  0
LINE
  8
0
 62
     0
  5
2F
 10
0.956709
 20
2.309699
 30
0.0
 11
0.956709
 21
2.309699
 31
5.0
1001
AME_SOL
1070
     0
1071
        1
  0
LINE
  8
0
 62
     0
  5
30
 10
0.0
 20
2.5
 30
0.0
 11
0.0
 21
2.5
 31
5.0
1001
AME_SOL
1070
     0
1071
        1
  0
ENDBLK
  8
0
  5
31
  0
BLOCK
  8
0
  5
90
  2
SOLAXES
 70
     0
 10
0.0
 20
0.0
 30
0.0
  1
SOLAXES
  3
SOLAXES
  0
LINE
  8
0
 62
     0
  5
91
 10
0.0
 20
0.0
 30
0.0
 11
4.733593
 21
0.0
 31
0.0
  0
LINE
  8
0
 62
     0
  5
92
 10
0.0
 20
0.0
 30
0.0
 11
0.0
 21
4.733593
 31
0.0
  0
LINE
  8
0
 62
     0
  5
93
 10
0.0
 20
0.0
 30
0.0
 11
0.0
 21
0.0
 31
4.733593
  0
CIRCLE
  8
0
 62
     0
  5
94
 10
0.0
 20
0.0
 30
4.260233
 40
0.23668
210
1.0
220
0.0
230
0.0
  0
LINE
  8
0
 62
     0
  5
95
 10
4.260233
 20
0.23668
 30
0.0
 11
4.733593
 21
0.0
 31
0.0
  0
LINE
  8
0
 62
     0
  5
96
 10
4.260233
 20
0.0
 30
0.23668
 11
4.733593
 21
0.0
 31
0.0
  0
LINE
  8
0
 62
     0
  5
97
 10
4.260233
 20
-0.23668
 30
0.0
 11
4.733593
 21
0.0
 31
0.0
  0
LINE
  8
0
 62
     0
  5
98
 10
4.260233
 20
0.0
 30
-0.23668
 11
4.733593
 21
0.0
 31
0.0
  0
CIRCLE
  8
0
 62
     0
  5
99
 10
0.0
 20
0.0
 30
4.260233
 40
0.23668
210
0.0
220
1.0
230
0.0
  0
LINE
  8
0
 62
     0
  5
9A
 10
0.23668
 20
4.260233
 30
0.0
 11
0.0
 21
4.733593
 31
0.0
  0
LINE
  8
0
 62
     0
  5
9B
 10
0.0
 20
4.260233
 30
0.23668
 11
0.0
 21
4.733593
 31
0.0
  0
LINE
  8
0
 62
     0
  5
9C
 10
-0.23668
 20
4.260233
 30
0.0
 11
0.0
 21
4.733593
 31
0.0
  0
LINE
  8
0
 62
     0
  5
9D
 10
0.0
 20
4.260233
 30
-0.23668
 11
0.0
 21
4.733593
 31
0.0
  0
CIRCLE
  8
0
 62
     0
  5
9E
 10
0.0
 20
0.0
 30
3.786874
 40
0.23668
210
0.0
220
1.0
230
0.0
  0
LINE
  8
0
 62
     0
  5
9F
 10
0.23668
 20
3.786874
 30
0.0
 11
0.0
 21
4.260233
 31
0.0
  0
LINE
  8
0
 62
     0
  5
A0
 10
0.0
 20
3.786874
 30
0.23668
 11
0.0
 21
4.260233
 31
0.0
  0
LINE
  8
0
 62
     0
  5
A1
 10
-0.23668
 20
3.786874
 30
0.0
 11
0.0
 21
4.260233
 31
0.0
  0
LINE
  8
0
 62
     0
  5
A2
 10
0.0
 20
3.786874
 30
-0.23668
 11
0.0
 21
4.260233
 31
0.0
  0
CIRCLE
  8
0
 62
     0
  5
A3
 10
0.0
 20
0.0
 30
4.260233
 40
0.23668
  0
LINE
  8
0
 62
     0
  5
A4
 10
0.23668
 20
0.0
 30
4.260233
 11
0.0
 21
0.0
 31
4.733593
  0
LINE
  8
0
 62
     0
  5
A5
 10
0.0
 20
0.23668
 30
4.260233
 11
0.0
 21
0.0
 31
4.733593
  0
LINE
  8
0
 62
     0
  5
A6
 10
-0.23668
 20
0.0
 30
4.260233
 11
0.0
 21
0.0
 31
4.733593
  0
LINE
  8
0
 62
     0
  5
A7
 10
0.0
 20
-0.23668
 30
4.260233
 11
0.0
 21
0.0
 31
4.733593
  0
CIRCLE
  8
0
 62
     0
  5
A8
 10
0.0
 20
0.0
 30
3.786874
 40
0.23668
  0
LINE
  8
0
 62
     0
  5
A9
 10
0.23668
 20
0.0
 30
3.786874
 11
0.0
 21
0.0
 31
4.260233
  0
LINE
  8
0
 62
     0
  5
AA
 10
0.0
 20
0.23668
 30
3.786874
 11
0.0
 21
0.0
 31
4.260233
  0
LINE
  8
0
 62
     0
  5
AB
 10
-0.23668
 20
0.0
 30
3.786874
 11
0.0
 21
0.0
 31
4.260233
  0
LINE
  8
0
 62
     0
  5
AC
 10
0.0
 20
-0.23668
 30
3.786874
 11
0.0
 21
0.0
 31
4.260233
  0
CIRCLE
  8
0
 62
     0
  5
AD
 10
0.0
 20
0.0
 30
3.313515
 40
0.23668
  0
LINE
  8
0
 62
     0
  5
AE
 10
0.23668
 20
0.0
 30
3.313515
 11
0.0
 21
0.0
 31
3.786874
  0
LINE
  8
0
 62
     0
  5
AF
 10
0.0
 20
0.23668
 30
3.313515
 11
0.0
 21
0.0
 31
3.786874
  0
LINE
  8
0
 62
     0
  5
B0
 10
-0.23668
 20
0.0
 30
3.313515
 11
0.0
 21
0.0
 31
3.786874
  0
LINE
  8
0
 62
     0
  5
B1
 10
0.0
 20
-0.23668
 30
3.313515
 11
0.0
 21
0.0
 31
3.786874
  0
ENDBLK
  8
0
  5
B2
  0
BLOCK
  8
0
  5
5A
  2
*U6
 70
    65
 10
0.0
 20
0.0
 30
0.0
  1
*U
  3
*U
  0
LINE
  8
0
 62
     7
  5
5B
 10
10.0
 20
10.0
 30
0.0
 11
10.0
 21
10.0
 31
10.0
1001
AME_SOL
1070
     1
1071
       26
  0
LINE
  8
0
 62
     7
  5
5C
 10
10.0
 20
10.0
 30
10.0
 11
10.0
 21
0.0
 31
10.0
1001
AME_SOL
1070
     1
1071
       25
  0
LINE
  8
0
 62
     7
  5
5D
 10
7.5
 20
10.0
 30
10.0
 11
10.0
 21
10.0
 31
10.0
1001
AME_SOL
1070
     1
1071
       24
  0
LINE
  8
0
 62
     7
  5
5E
 10
0.0
 20
10.0
 30
10.0
 11
2.5
 21
10.0
 31
10.0
1001
AME_SOL
1070
     1
1071
       23
  0
LINE
  8
0
 62
     7
  5
5F
 10
0.0
 20
10.0
 30
0.0
 11
0.0
 21
10.0
 31
10.0
1001
AME_SOL
1070
     1
1071
       22
  0
LINE
  8
0
 62
     7
  5
60
 10
0.0
 20
10.0
 30
10.0
 11
0.0
 21
0.0
 31
10.0
1001
AME_SOL
1070
     1
1071
       21
  0
LINE
  8
0
 62
     7
  5
61
 10
0.0
 20
0.0
 30
0.0
 11
0.0
 21
0.0
 31
10.0
1001
AME_SOL
1070
     1
1071
       20
  0
LINE
  8
0
 62
     7
  5
62
 10
10.0
 20
0.0
 30
10.0
 11
10.0
 21
0.0
 31
0.0
1001
AME_SOL
1070
     1
1071
       19
  0
LINE
  8
0
 62
     7
  5
63
 10
0.0
 20
0.0
 30
10.0
 11
10.0
 21
0.0
 31
10.0
1001
AME_SOL
1070
     1
1071
       18
  0
LINE
  8
0
 62
     7
  5
64
 10
0.0
 20
0.0
 30
0.0
 11
10.0
 21
0.0
 31
0.0
1001
AME_SOL
1070
     1
1071
       17
  0
LINE
  8
0
 62
     7
  5
65
 10
0.0
 20
10.0
 30
0.0
 11
0.0
 21
0.0
 31
0.0
1001
AME_SOL
1070
     1
1071
       16
  0
LINE
  8
0
 62
     7
  5
66
 10
10.0
 20
0.0
 30
0.0
 11
10.0
 21
10.0
 31
0.0
1001
AME_SOL
1070
     1
1071
       15
  0
LINE
  8
0
 62
     7
  5
67
 10
10.0
 20
10.0
 30
0.0
 11
0.0
 21
10.0
 31
0.0
1001
AME_SOL
1070
     1
1071
       14
  0
LINE
  8
0
 62
     7
  5
68
 10
7.5
 20
10.0
 30
5.0
 11
2.5
 21
10.0
 31
5.0
1001
AME_SOL
1070
     1
1071
       13
  0
LINE
  8
0
 62
     7
  5
69
 10
7.5
 20
10.0
 30
5.0
 11
7.5
 21
10.0
 31
10.0
1001
AME_SOL
1070
     1
1071
       12
  0
LINE
  8
0
 62
     7
  5
6A
 10
2.5
 20
10.0
 30
5.0
 11
2.5
 21
10.0
 31
10.0
1001
AME_SOL
1070
     1
1071
       11
  0
ARC
  8
0
 62
     7
  5
6B
 10
5.0
 20
10.0
 30
10.0
 40
2.5
 50
180.0
 51
0.0
1001
AME_SOL
1070
     1
1071
       10
  0
ARC
  8
0
 62
     7
  5
6C
 10
5.0
 20
10.0
 30
5.0
 40
2.5
 50
180.0
 51
0.0
1001
AME_SOL
1070
     1
1071
        9
  0
LINE
  8
0
 62
     7
  5
6D
 10
7.5
 20
10.0
 30
5.0
 11
7.5
 21
10.0
 31
10.0
1001
AME_SOL
1070
     0
1071
        1
  0
LINE
  8
0
 62
     7
  5
6E
 10
7.309699
 20
9.043291
 30
5.0
 11
7.309699
 21
9.043291
 31
10.0
1001
AME_SOL
1070
     0
1071
        1
  0
LINE
  8
0
 62
     7
  5
6F
 10
6.767766
 20
8.232233
 30
5.0
 11
6.767766
 21
8.232233
 31
10.0
1001
AME_SOL
1070
     0
1071
        1
  0
LINE
  8
0
 62
     7
  5
70
 10
5.956708
 20
7.690301
 30
5.0
 11
5.956708
 21
7.690301
 31
10.0
1001
AME_SOL
1070
     0
1071
        1
  0
LINE
  8
0
 62
     7
  5
71
 10
5.0
 20
7.5
 30
5.0
 11
5.0
 21
7.5
 31
10.0
1001
AME_SOL
1070
     0
1071
        1
  0
LINE
  8
0
 62
     7
  5
72
 10
4.043291
 20
7.690301
 30
5.0
 11
4.043291
 21
7.690301
 31
10.0
1001
AME_SOL
1070
     0
1071
        1
  0
LINE
  8
0
 62
     7
  5
73
 10
3.232233
 20
8.232233
 30
5.0
 11
3.232233
 21
8.232233
 31
10.0
1001
AME_SOL
1070
     0
1071
        1
  0
LINE
  8
0
 62
     7
  5
74
 10
2.690301
 20
9.043292
 30
5.0
 11
2.690301
 21
9.043292
 31
10.0
1001
AME_SOL
1070
     0
1071
        1
  0
LINE
  8
0
 62
     7
  5
75
 10
2.5
 20
10.0
 30
5.0
 11
2.5
 21
10.0
 31
10.0
1001
AME_SOL
1070
     0
1071
        1
  0
ENDBLK
  8
0
  5
76
  0
BLOCK
  8
0
  5
B5
  2
*U8
 70
    65
 10
0.0
 20
0.0
 30
0.0
  1
*U
  3
*U
  0
LINE
  8
0
 62
     0
  5
B6
 10
2.0
 20
5.0
 30
0.0
 11
2.0
 21
5.0
 31
2.0
1001
AME_SOL
1070
     1
1071
       18
  0
LINE
  8
0
 62
     0
  5
B7
 10
2.0
 20
5.0
 30
2.0
 11
2.0
 21
0.0
 31
2.0
1001
AME_SOL
1070
     1
1071
       17
  0
LINE
  8
0
 62
     0
  5
B8
 10
0.0
 20
5.0
 30
2.0
 11
2.0
 21
5.0
 31
2.0
1001
AME_SOL
1070
     1
1071
       16
  0
LINE
  8
0
 62
     0
  5
B9
 10
0.0
 20
5.0
 30
0.0
 11
0.0
 21
5.0
 31
2.0
1001
AME_SOL
1070
     1
1071
       15
  0
LINE
  8
0
 62
     0
  5
BA
 10
0.0
 20
5.0
 30
2.0
 11
0.0
 21
0.0
 31
2.0
1001
AME_SOL
1070
     1
1071
       14
  0
LINE
  8
0
 62
     0
  5
BB
 10
0.0
 20
0.0
 30
0.0
 11
0.0
 21
0.0
 31
2.0
1001
AME_SOL
1070
     1
1071
       13
  0
LINE
  8
0
 62
     0
  5
BC
 10
2.0
 20
0.0
 30
2.0
 11
2.0
 21
0.0
 31
0.0
1001
AME_SOL
1070
     1
1071
       12
  0
LINE
  8
0
 62
     0
  5
BD
 10
0.0
 20
0.0
 30
2.0
 11
2.0
 21
0.0
 31
2.0
1001
AME_SOL
1070
     1
1071
       11
  0
LINE
  8
0
 62
     0
  5
BE
 10
0.0
 20
0.0
 30
0.0
 11
2.0
 21
0.0
 31
0.0
1001
AME_SOL
1070
     1
1071
       10
  0
LINE
  8
0
 62
     0
  5
BF
 10
0.0
 20
5.0
 30
0.0
 11
0.0
 21
0.0
 31
0.0
1001
AME_SOL
1070
     1
1071
        9
  0
LINE
  8
0
 62
     0
  5
C0
 10
2.0
 20
0.0
 30
0.0
 11
2.0
 21
5.0
 31
0.0
1001
AME_SOL
1070
     1
1071
        8
  0
LINE
  8
0
 62
     0
  5
C1
 10
2.0
 20
5.0
 30
0.0
 11
0.0
 21
5.0
 31
0.0
1001
AME_SOL
1070
     1
1071
        7
  0
ENDBLK
  8
0
  5
C2
  0
BLOCK
  8
0
  5
C8
  2
*U9
 70
    65
 10
0.0
 20
0.0
 30
0.0
  1
*U
  3
*U
  0
LINE
  8
0
 62
     7
  5
C9
 10
10.0
 20
10.0
 30
0.0
 11
10.0
 21
10.0
 31
10.0
1001
AME_SOL
1070
     1
1071
       42
  0
LINE
  8
0
 62
     7
  5
CA
 10
10.0
 20
10.0
 30
10.0
 11
10.0
 21
0.0
 31
10.0
1001
AME_SOL
1070
     1
1071
       41
  0
LINE
  8
0
 62
     7
  5
CB
 10
7.5
 20
10.0
 30
10.0
 11
10.0
 21
10.0
 31
10.0
1001
AME_SOL
1070
     1
1071
       40
  0
LINE
  8
0
 62
     7
  5
CC
 10
0.0
 20
10.0
 30
10.0
 11
2.5
 21
10.0
 31
10.0
1001
AME_SOL
1070
     1
1071
       39
  0
LINE
  8
0
 62
     7
  5
CD
 10
0.0
 20
10.0
 30
0.0
 11
0.0
 21
10.0
 31
10.0
1001
AME_SOL
1070
     1
1071
       38
  0
LINE
  8
0
 62
     7
  5
CE
 10
0.0
 20
10.0
 30
10.0
 11
0.0
 21
0.0
 31
10.0
1001
AME_SOL
1070
     1
1071
       37
  0
LINE
  8
0
 62
     7
  5
CF
 10
0.0
 20
0.0
 30
0.0
 11
0.0
 21
0.0
 31
10.0
1001
AME_SOL
1070
     1
1071
       36
  0
LINE
  8
0
 62
     7
  5
D0
 10
10.0
 20
0.0
 30
10.0
 11
10.0
 21
0.0
 31
0.0
1001
AME_SOL
1070
     1
1071
       35
  0
LINE
  8
0
 62
     7
  5
D1
 10
0.0
 20
0.0
 30
10.0
 11
10.0
 21
0.0
 31
10.0
1001
AME_SOL
1070
     1
1071
       34
  0
LINE
  8
0
 62
     7
  5
D2
 10
0.0
 20
0.0
 30
0.0
 11
10.0
 21
0.0
 31
0.0
1001
AME_SOL
1070
     1
1071
       33
  0
LINE
  8
0
 62
     7
  5
D3
 10
0.0
 20
10.0
 30
0.0
 11
0.0
 21
0.0
 31
0.0
1001
AME_SOL
1070
     1
1071
       32
  0
LINE
  8
0
 62
     7
  5
D4
 10
10.0
 20
0.0
 30
0.0
 11
10.0
 21
10.0
 31
0.0
1001
AME_SOL
1070
     1
1071
       31
  0
LINE
  8
0
 62
     7
  5
D5
 10
10.0
 20
10.0
 30
0.0
 11
0.0
 21
10.0
 31
0.0
1001
AME_SOL
1070
     1
1071
       30
  0
LINE
  8
0
 62
     7
  5
D6
 10
7.5
 20
10.0
 30
5.0
 11
2.5
 21
10.0
 31
5.0
1001
AME_SOL
1070
     1
1071
       29
  0
LINE
  8
0
 62
     7
  5
D7
 10
7.5
 20
10.0
 30
5.0
 11
7.5
 21
10.0
 31
10.0
1001
AME_SOL
1070
     1
1071
       28
  0
LINE
  8
0
 62
     7
  5
D8
 10
2.5
 20
10.0
 30
5.0
 11
2.5
 21
10.0
 31
10.0
1001
AME_SOL
1070
     1
1071
       27
  0
ARC
  8
0
 62
     7
  5
D9
 10
5.0
 20
10.0
 30
10.0
 40
2.5
 50
293.578188
 51
0.0
1001
AME_SOL
1070
     1
1071
       26
  0
ARC
  8
0
 62
     7
  5
DA
 10
5.0
 20
10.0
 30
10.0
 40
2.5
 50
180.0
 51
246.421822
1001
AME_SOL
1070
     1
1071
       25
  0
ARC
  8
0
 62
     7
  5
DB
 10
5.0
 20
10.0
 30
5.0
 40
2.5
 50
180.0
 51
0.0
1001
AME_SOL
1070
     1
1071
       24
  0
LINE
  8
0
 62
     7
  5
DC
 10
6.0
 20
5.0
 30
10.0
 11
6.0
 21
7.708713
 31
10.0
1001
AME_SOL
1070
     1
1071
       23
  0
LINE
  8
0
 62
     7
  5
DD
 10
6.0
 20
7.708712
 30
8.0
 11
6.0
 21
7.708712
 31
10.0
1001
AME_SOL
1070
     1
1071
       22
  0
LINE
  8
0
 62
     7
  5
DE
 10
4.0
 20
7.708712
 30
10.0
 11
4.0
 21
5.0
 31
10.0
1001
AME_SOL
1070
     1
1071
       21
  0
LINE
  8
0
 62
     7
  5
DF
 10
4.0
 20
7.708712
 30
8.0
 11
4.0
 21
7.708712
 31
10.0
1001
AME_SOL
1070
     1
1071
       20
  0
LINE
  8
0
 62
     7
  5
E0
 10
4.0
 20
5.0
 30
8.0
 11
4.0
 21
5.0
 31
10.0
1001
AME_SOL
1070
     1
1071
       19
  0
LINE
  8
0
 62
     7
  5
E1
 10
4.0
 20
5.0
 30
10.0
 11
6.0
 21
5.0
 31
10.0
1001
AME_SOL
1070
     1
1071
       18
  0
LINE
  8
0
 62
     7
  5
E2
 10
6.0
 20
5.0
 30
10.0
 11
6.0
 21
5.0
 31
8.0
1001
AME_SOL
1070
     1
1071
       17
  0
LINE
  8
0
 62
     7
  5
E3
 10
4.0
 20
7.708712
 30
8.0
 11
4.0
 21
5.0
 31
8.0
1001
AME_SOL
1070
     1
1071
       16
  0
ARC
  8
0
 62
     7
  5
E4
 10
5.0
 20
10.0
 30
8.0
 40
2.5
 50
246.421822
 51
293.578188
1001
AME_SOL
1070
     1
1071
       15
  0
LINE
  8
0
 62
     7
  5
E5
 10
6.0
 20
5.0
 30
8.0
 11
6.0
 21
7.708712
 31
8.0
1001
AME_SOL
1070
     1
1071
       14
  0
LINE
  8
0
 62
     7
  5
E6
 10
4.0
 20
5.0
 30
8.0
 11
6.0
 21
5.0
 31
8.0
1001
AME_SOL
1070
     1
1071
       13
  0
LINE
  8
0
 62
     7
  5
E7
 10
7.5
 20
10.0
 30
5.0
 11
7.5
 21
10.0
 31
10.0
1001
AME_SOL
1070
     0
1071
        5
  0
LINE
  8
0
 62
     7
  5
E8
 10
7.309699
 20
9.043291
 30
5.0
 11
7.309699
 21
9.043291
 31
10.0
1001
AME_SOL
1070
     0
1071
        5
  0
LINE
  8
0
 62
     7
  5
E9
 10
6.767766
 20
8.232233
 30
5.0
 11
6.767766
 21
8.232233
 31
10.0
1001
AME_SOL
1070
     0
1071
        5
  0
LINE
  8
0
 62
     7
  5
EA
 10
5.956708
 20
7.690301
 30
5.0
 11
5.956708
 21
7.690301
 31
8.0
1001
AME_SOL
1070
     0
1071
        5
  0
LINE
  8
0
 62
     7
  5
EB
 10
5.0
 20
7.5
 30
5.0
 11
5.0
 21
7.5
 31
8.0
1001
AME_SOL
1070
     0
1071
        5
  0
LINE
  8
0
 62
     7
  5
EC
 10
4.043291
 20
7.690301
 30
5.0
 11
4.043291
 21
7.690301
 31
8.0
1001
AME_SOL
1070
     0
1071
        5
  0
LINE
  8
0
 62
     7
  5
ED
 10
3.232233
 20
8.232233
 30
5.0
 11
3.232233
 21
8.232233
 31
10.0
1001
AME_SOL
1070
     0
1071
        5
  0
LINE
  8
0
 62
     7
  5
EE
 10
2.690301
 20
9.043292
 30
5.0
 11
2.690301
 21
9.043292
 31
10.0
1001
AME_SOL
1070
     0
1071
        5
  0
LINE
  8
0
 62
     7
  5
EF
 10
2.5
 20
10.0
 30
5.0
 11
2.5
 21
10.0
 31
10.0
1001
AME_SOL
1070
     0
1071
        5
  0
ENDBLK
  8
0
  5
F0
  0
ENDSEC
  0
SECTION
  2
ENTITIES
  0
INSERT
  8
AME_FRZ
  5
15
  2
*U2
 10
0.0
 20
0.0
 30
0.0
1001
AME_SOL
1002
{
1070
     0
1071
  1927216
1070
  1536
1010
10.0
1020
10.0
1030
10.0
1005
0
1005
0
1005
77
1040
0.0
1040
1.0
1000
MILD_STEEL
1000
0
1010
0.0
1020
0.0
1030
0.0
1010
0.0
1020
0.0
1030
1.0
1040
0.0
1002
}
  0
INSERT
  8
AME_FRZ
  5
32
  2
*U4
 10
5.0
 20
10.0
 30
5.0
1001
AME_SOL
1002
{
1070
     0
1071
  1927472
1070
  1538
1010
2.5
1020
2.5
1030
5.0
1005
0
1005
0
1005
77
1040
0.0
1040
1.0
1000
MILD_STEEL
1000
0
1010
5.0
1020
10.0
1030
5.0
1010
0.0
1020
0.0
1030
1.0
1040
0.0
1002
}
  0
INSERT
  8
AME_FRZ
  5
77
  2
*U6
 10
0.0
 20
0.0
 30
0.0
1001
AME_SOL
1002
{
1070
     0
1071
  1858928
1070
  1543
1070
     0
1005
15
1005
32
1005
0
1005
0
1005
F1
1040
0.0
1040
1.0
1000
MILD_STEEL
1000
0
1010
0.0
1020
0.0
1030
0.0
1010
0.0
1020
0.0
1030
1.0
1040
0.0
1002
}
  0
INSERT
  8
AME_FRZ
  5
7B
  2
AME_NIL
 10
0.0
 20
0.0
 30
0.0
  0
INSERT
  8
AME_FRZ
  5
7C
  2
AME_SOL
 10
0.0
 20
0.0
 30
0.0
1001
AME_SOL
1000
1.0
1000
sq cm
1070
     3
1070
     0
1070
     3
1000
wire
1040
0.0
1000
NONE
1040
1.0
1000
cm
1000
gm
1000
MILD_STEEL
1070
    25
1000
CSG
1070
     3
1070
     2
1070
     3
1000
cu cm
1070
     4
1070
     0
1005
7B
  0
INSERT
  8
AME_FRZ
 62
     7
  5
C3
  2
*U8
 10
4.0
 20
5.0
 30
8.0
1001
AME_SOL
1002
{
1070
     0
1071
  1916376
1070
  1536
1010
2.0
1020
5.0
1030
-2.0
1005
0
1005
0
1005
F1
1040
0.0
1040
1.0
1000
MILD_STEEL
1000
0
1010
4.0
1020
5.0
1030
8.0
1010
0.0
1020
0.0
1030
1.0
1040
0.0
1002
}
  0
INSERT
  8
0
  5
F1
  2
*U9
 10
0.0
 20
0.0
 30
0.0
1001
AME_SOL
1002
{
1070
     0
1071
  1945456
1070
  1543
1070
     0
1005
77
1005
C3
1005
0
1005
F2
1005
0
1040
0.0
1040
1.0
1000
MILD_STEEL
1000
0
1002
}
  0
INSERT
  8
AME_FRZ
  5
F2
  2
AME_NIL
 10
1.0
 20
1.0
 30
1.0
1001
AME_SOL
1004
E903A9FB0100F0FFFFFF000052F70C000100000066900ABB66900ABB66900ABBA908204100054841A908204101000000FBF2040000EC7F4000F69F4000F6FF40000AC04000052041000500410100844E287B1E00FFFF00000100CE000000844E0000000000000000803F000000000000803F000000000000
1004
0000000080400000A0400000004105000000000000000000000000000000000000000000844E0000000000000000803F000000000000803F0000000000000000000080400000A04000000041050000000000000000000000000000000000FFFFFFFFFBF2040000EC7F4000F69F4000F6FF40000AC040000A
1004
A040000520410100844E187C1E00FFFF00000100CD000000844E00000000803F000000000000000000000000000000000000803F000080400000A0400000004105000000000000000000000000000000000000000000844E00000000803F000000000000000000000000000000000000803F000080400000
1004
A04000000041050000000000000000000000000000000000FFFFFFFFFBF2040000EC7F4000F69F4000F6FF40000A804000052041000520410100844E087D1E00FFFF00000100CC000000844E000000000000000000000000803F000000000000803F00000000000080400000A04000000041050000000000
1004
00000000000000000000000000000000844E000000000000000000000000803F000000000000803F00000000000080400000A04000000041050000000000000000000000000000000000FFFFFFFFFBF2040000F6BF4000F69F4000F6FF40000AC04000052041000520410100844EC8851E00FFFF00000100
1004
C9000000844E000000000080000080BF000000800000008000000080000080BF0000C040000020410000204105000000000000000000000000000000000000000000844E000000000080000080BF000000800000008000000080000080BF0000C04000002041000020410500000000000000000000000000
1004
00000000FFFFFFFFFBF2080000EC1F4000F6EF4000F69F40000AF04000054841000520410100EA4EB8861E00FFFF0000010093010000EA4E00000000803F0000000000000000000000000000803F000000000000A040000020410000A04005000000204000002040000000000000000000000000EA4E0000
1004
0000803F0000000000000000000000000000803F000000000000A040000020410000A040050000002040000020400000000000000000FFFFFFFF4DEA0F000000967500000000803F0000000000000000000000000000803F00000000A662814087F444410000A0400200B3A302E0B3A30260010000000000
1004
00004DEA0E000000967500000000803F0000000000000000000000000000803F00000000EADC4E40C7483C410000A0400200B3A302E0B3A3026001000000000000004DEA0D000000967500000000803F0000000000000000000000000000803F00000000E62D2C40AE4E2F410000A0400200B3A302E0B3A3
1004
026001000000000000004DEA0C000000967500000000803F0000000000000000000000000000803F0000000000002040000020410000A0400200B3A302E0B3A30260000000000000000002000000B3A302E00000A0C00000A040B3A30260020000000000A0C0000000000200F6010000F601000000000000
1004
0000A0400200F60100006DFEFFFF01000000000000000000A0404DEA0B000000967500000000803F0000000000000000000000000000803F00000000E42D2C4053B110410000A0400200B3A302E0B3A3026000000000010000000000A0C00000008002000000B3A302E00000A0C00000A040B3A302600100
1004
0000000000800000A04002006DFEFFFF6DFEFFFF01000000000000800000A0404DEA0A000000967500000000803F0000000000000000000000000000803F00000000E7DC4E403AB703410000A0400200B3A302E0B3A3026000000000010000000000A0C00000008002000000B3A302E00000A0C00000A040
1004
B3A3026001000000000000800000A04002006DFEFFFF6DFEFFFF01000000000000800000A0404DEA09000000967500000000803F0000000000000000000000000000803F00000000A4628140F216F6400000A0400200B3A302E0B3A3026000000000010000000000A0C00000008002000000B3A302E00000
1004
A0C000004040B3A3026001000000000000800000404002006DFEFFFF6DFEFFFF0100000000000080000040404DEA08000000967500000000803F0000000000000000000000000000803F000000000000A0400000F0400000A0400200B3A302E0B3A3026000000000010000000000A0C00000008002000000
1004
B3A302E00000A0C000004040B3A3026001000000000000800000404002006DFEFFFF6DFEFFFF0100000000000080000040404DEA07000000967500000000803F0000000000000000000000000000803F000000005A9DBE40F216F6400000A0400200B3A302E0B3A3026000000000010000000000A0C00000
1004
000002000000B3A302E00000A0C000004040B3A3026001000000000000000000404002006DFEFFFF6DFEFFFF0100000000000000000040404DEA06000000967500000000803F0000000000000000000000000000803F000000008B91D8403AB703410000A0400200B3A302E0B3A302600000000001000000
1004
0000A0C00000000002000000B3A302E00000A0C00000A040B3A3026001000000000000000000A04002006DFEFFFF6DFEFFFF01000000000000000000A0404DEA05000000967500000000803F0000000000000000000000000000803F000000000EE9E94052B110410000A0400200B3A302E0B3A302600000
1004
0000010000000000A0C00000000002000000B3A302E00000A0C00000A040B3A3026001000000000000000000A04002006DFEFFFF6DFEFFFF01000000000000000000A0404DEA04000000967500000000803F0000000000000000000000000000803F000000000000F040000020410000A0400200B3A302E0
1004
B3A30260000000000000000002000000B3A302E00000A0C00000A040B3A30260020000000000A0C0000000000200F6010000F6010000000000000000A04002006DFEFFFFF601000001000000000000000000A0404DEA03000000967500000000803F0000000000000000000000000000803F000000000EE9
1004
E940AD4E2F410000A0400200B3A302E0B3A3026001000000000000004DEA02000000967500000000803F0000000000000000000000000000803F000000008C91D840C5483C410000A0400200B3A302E0B3A3026001000000000000004DEA01000000967500000000803F0000000000000000000000000000
1004
803F000000005C9DBE4087F444410000A0400200B3A302E0B3A3026001000000000000004DEA00000000967500000000803F0000000000000000000000000000803F000000000000A040000048410000A0400200B3A302E0B3A302600100000000000000FBF2020000EC1F4000F6EF4000F69F40000AF040
1004
00054841000AA0400100844EC82D1E00FFFF0000010092010000844E00000000803F000000000000000000000080000080BF000000800000A040000020410000A04005000000000000000000000000000000000000000000844E00000000803F000000000000000000000080000080BF000000800000A040
1004
000020410000A040050000000000000000000000000000000000FFFFFFFFFBF2040066900ABB66900ABB66900ABBA9082041A908204166900A3B0100844E30521E00010000000100FA010000844E0000000000000000803F000000000000803F000000000000000000000000000000000000000005000000
1004
000000000000000000000000000000000000844E0000000000000000803F000000000000803F000000000000000000000000000000000000000005000000000000000000000000000000000001000000FBF2040066900ABB66900ABB66900ABBA908204166900A3BA90820410100844E20531E0001000000
1004
0100F9010000844E00000000803F000000000000000000000000000000000000803F00000000000000000000000005000000000000000000000000000000000000000000844E00000000803F000000000000000000000000000000000000803F000000000000000000000000050000000000000000000000
1004
00000000000001000000FBF2040066900ABB66900ABB66900ABB66900A3BA9082041A90820410100844E10541E00010000000100F8010000844E000000000000000000000000803F000000000000803F0000000000000000000000000000000005000000000000000000000000000000000000000000844E
1004
000000000000000000000000803F000000000000803F0000000000000000000000000000000005000000000000000000000000000000000001000000FBF20A0066900ABB66900ABB57F71F41A9082041A9082041A90820410100844E00551E00010000000100F7010000844E0000000080BF000000800000
1004
008000000080000080BF0000008000002041000020410000204105000000000000000000000000000000000000000000844E0000000080BF000000800000008000000080000080BF0000008000002041000020410000204105000000000000000000000000000000000001000000FBF2080066900ABB57F7
1004
1F4166900ABBA9082041A9082041A90820410100844EF0551E00010000000100F6010000844E00000000008000000080000080BF000080BF000000800000008000002041000020410000204105000000000000000000000000000000000000000000844E00000000008000000080000080BF000080BF0000
1004
00800000008000002041000020410000204105000000000000000000000000000000000001000000FBF2040057F71F4166900ABB66900ABBA9082041A9082041A90820410100844EE0561E00010000000100F5010000844E000000000080000080BF000000800000008000000080000080BF000020410000
1004
20410000204105000000000000000000000000000000000000000000844E000000000080000080BF000000800000008000000080000080BF00002041000020410000204105000000000000000000000000000000000001000000A4EE00EC7F4000F69F4000F6FF40000AC040000AA0400005004100000000
1004
010000400200967538571E0000000100FFFF287B1E00187C1E0000000200187C1E00287B1E00FFFFFFFFFFFFFFFF9675000000000000000080BF000000000000000000000000000080BF000080400000A0400000004102000000000001000040A4EE00F6BF4000F69F4000F6FF40000AC040000520410005
1004
0041000020C0AAB8553E0200967528581E0000000100FFFF287B1E00C8851E0000000200C8851E00287B1E00FFFFFFFFFFFFFFFF967500000000803F00000000000000000000000000000000000080BF0000C0400000F040000000410200000020C0AAB8553EA4EE00EC7F4000F6EF4000F6FF40000AC040
1004
000520410005004170BCFDBF446394BF0200FC7518591E000000FFFF0100287B1E00B8861E0000000200287B1E00B8861E00FFFFFFFFFFFFFFFFFC7500000000803F0000000000000000000000000000803F000000000000A04000002041000000410400000020400000204070BCFDBF446394BFA4EE00EC
1004
7F4000F69F4000F6FF40000A804000052041000500418A5B2DC00000008002009675085A1E0000000100FFFF287B1E00087D1E0000000200087D1E00287B1E00FFFFFFFFFFFFFFFF96750000000080BF00000000000000000000000000000000000080BF000080400000A0400000004102008A5B2DC00000
1004
0080A4EE00F6BF4000F69F4000F6FF40000AC040000AA04000052041020080BFFAFF7F3F02009675F85A1E0000000100FFFF187C1E00C8851E0000000200C8851E00187C1E00FFFFFFFFFFFFFFFF967500000000803F000000000000000000000000000080BF000000000000C0400000A040000010410200
1004
020080BFFAFF7F3FA4EE00EC7F4000F69F4057F71F41000AC040000AA04000052041020040C0020080BF02009675E85B1E0000000100FFFF187C1E0000551E000000020000551E00187C1E0001000000FFFFFFFF9675000000000000000000000000803F00000000000080BF000000000100E0400000A040
1004
000020410200020040C0020080BFA4EE00EC7F4000F69F4000F6FF40000A8040000AA0400005204100000000FFFFFF3F02009675D85C1E0000000100FFFF187C1E00087D1E0000000200087D1E00187C1E00FFFFFFFFFFFFFFFF96750000000080BF000000000000000000000000000080BF000000000000
1004
80400000A04000000041020000000000FFFFFF3FA4EE00EC7F4000F6EF4000F6FF40000A80400005204100052041000040400000A04002009675488F1E0000000100FFFF087D1E00B8861E0000000200B8861E00087D1E00FFFFFFFFFFFFFFFF967500000000803F0000000000000000000000000000803F
1004
0000000000008040C5ADF6400000A0400200000040400000A040A4EE00EC7F4000F69F4057F71F41000A80400005204100052041A2B855BE000020400200967538901E0000000100FFFF087D1E0000551E000000020000551E00087D1E0001000000FFFFFFFF9675000000000000000000000000803F0000
1004
80BF0000000000000000000080400000F040000020410200A2B855BE00002040A4EE00F6BF4000F6EF4000F6FF40000AC0400005204100052041000040400000A0400200967528911E000000FFFF0100C8851E00B8861E0000000200C8851E00B8861E00FFFFFFFFFFFFFFFF967500000000803F00000000
1004
00000000000000000000803F000000000000C040C5ADF6400000A0400200000040400000A040A4EE00F6BF4000F69F4057F71F41000AC04000052041000520410000A0C075A412C00200967518921E0000000100FFFFC8851E0000551E000000020000551E00C8851E0001000000FFFFFFFF967500000000
1004
0000000000000000803F0000803F00000000000000000000C040000020410000204102000000A0C075A412C0A4EE00EC1F4000F6EF4000F69F40000AF04000054841000AA040DB0F49C0000000800200FC7508931E000000FFFF0100B8861E00C82D1E0000000200B8861E00C82D1E00FFFFFFFFFFFFFFFF
1004
FC7500000000803F0000000000000000000000000000803F000000000000A040000020410000A04004000000204000002040DB0F49C000000080A4EE00EC1F4000F6EF4057F71F41000AF040A908204100052041DB0F49C070BCFDBF0200FC75F8931E0000000100FFFFB8861E0000551E00000002000055
1004
1E00B8861E0001000000FFFFFFFFFC7500000000803F0000000000000000000000000000803F000000000000A040000020410000204104000000204000002040DB0F49C070BCFDBFA4EE00EC1F4000F6EF4057F71F41000AF040A908204100052041446394BF000000800200FC75E8941E0000000100FFFF
1004
B8861E0000551E000000020000551E00B8861E0001000000FFFFFFFFFC7500000000803F0000000000000000000000000000803F000000000000A040000020410000204104000000204000002040446394BF00000080A4EE00EC1F4057F71F4100F69F40000AF040A908204100052041000000000000A040
1004
02009675D8951E0000000100FFFFB8861E00F0551E0000000200F0551E00B8861E0001000000FFFFFFFF967500000000803F0000000000000000000000000000803F0000000000002040000020410000A0400200000000000000A040A4EE00EC1F4057F71F4100F69F40000AF040A9082041000520410000
1004
00000000A04002009675C8961E000000FFFF0100B8861E00F0551E0000000200B8861E00F0551E00FFFFFFFF01000000967500000000803F0000000000000000000000000000803F000000000000F040000020410000A0400200000000000000A040A4EE00EC1F4057F71F4100F69F40000AF040A9082041
1004
000AA040000000000000A04002009675B8971E0000000100FFFFC82D1E00F0551E0000000200F0551E00C82D1E0001000000FFFFFFFF96750000000000000000803F000000000000000000000000000080BF0000F040000020410000A0400200000000000000A040A4EE66900ABB57F71F4166900ABBA908
1004
2041A908204166900A3B0000A0C00000A04002009675A8981E000000FFFF010030521E00F0551E000000020030521E00F0551E00010000000100000096750000000000000000803F000000000000000000000000000080BF0000A040000020410000000002000000A0C00000A040A4EE57F71F4166900ABB
1004
66900ABBA9082041A908204166900A3B0000A0C00000A0400200967598991E000000FFFF010030521E00E0561E000000020030521E00E0561E000100000001000000967500000000803F00000000000000000000000000000000000080BF000020410000A0400000000002000000A0C00000A040A4EE6690
1004
0ABB66900ABB66900ABB66900A3BA908204166900A3B000020C10000008002009675889A1E000000FFFF010030521E0010541E000000020030521E0010541E00010000000100000096750000000080BF00000000000000000000000000000000000080BF0000000000000000000000000200000020C10000
1004
0080A4EE66900ABB66900ABB66900ABBA908204166900A3B66900A3B000000000000204102009675789B1E000000FFFF010030521E0020531E000000020030521E0020531E0001000000010000009675000000000000000080BF000000000000000000000000000080BF0000000000000000000000000200
1004
0000000000002041A4EE66900ABB66900ABB57F71F41A908204166900A3BA90820410000A0C00000A04002009675689C1E000000FFFF010020531E0000551E000000020020531E0000551E0001000000010000009675000000000000000000000000803F00000000000080BF000000000000A04000000000
1004
0000204102000000A0C00000A040A4EE57F71F4166900ABB66900ABBA908204166900A3BA90820410000A0C00000A04002009675589D1E000000FFFF010020531E00E0561E000000020020531E00E0561E000100000001000000967500000000803F000000000000000000000000000080BF000000000000
1004
2041000000000000A04002000000A0C00000A040A4EE66900ABB66900ABB66900ABB66900A3B66900A3BA9082041000000000000204102009675489E1E000000FFFF010020531E0010541E000000020020531E0010541E00010000000100000096750000000080BF000000000000000000000000000080BF
1004
0000000000000000000000000000000002000000000000002041A4EE66900ABB66900ABB57F71F4166900A3BA9082041A90820410000A0C00000A04002009675489F1E000000FFFF010010541E0000551E000000020010541E0000551E0001000000010000009675000000000000000000000000803F0000
1004
80BF0000000000000000000000000000A0400000204102000000A0C00000A040A4EE66900ABB57F71F4166900ABB66900A3BA9082041A90820410000A0C00000A0400200967538A01E000000FFFF010010541E00F0551E000000020010541E00F0551E00010000000100000096750000000000000000803F
1004
00000000000080BF000000000000000000000000000020410000A04002000000A0C00000A040A4EE66900ABB57F71F4157F71F41A9082041A9082041A9082041000020C10000F0C00200967528A11E000000FFFF010000551E00F0551E000000020000551E00F0551E000100000001000000967500000000
1004
00000000803F0000000000000000000000000000803F0000204100002041000020410200000020C10000F0C0A4EE66900ABB57F71F4157F71F41A9082041A9082041A9082041000020C0000000800200967518A21E000000FFFF010000551E00F0551E000000020000551E00F0551E000100000001000000
1004
96750000000000000000803F0000000000000000000000000000803F0000204100002041000020410200000020C000000080A4EE57F71F4166900ABB57F71F41A9082041A9082041A908204100000000000020410200967508A31E000000FFFF010000551E00E0561E000000020000551E00E0561E000100
1004
000001000000967500000000803F000000000000000000000000000000000000803F00002041000020410000204102000000000000002041A4EE57F71F4157F71F4166900ABBA9082041A9082041A9082041000020C10000008002009675F8A31E000000FFFF0100F0551E00E0561E0000000200F0551E00
1004
E0561E000100000001000000967500000000803F0000000000000000000000000000803F000000000000204100002041000020410200000020C10000008019FC
1005
F3
  0
INSERT
  8
AME_FRZ
  5
F3
  2
AME_NIL
 10
1.0
 20
1.0
 30
1.0
1001
AME_SOL
1004

1005
0
  0
INSERT
  8
AME_FRZ
  5
F4
  2
AME_MAT
 10
0.0
 20
0.0
 30
0.0
1001
AME_SOL
1000
MILD_STEEL
1040
7860.0
1040
220.0
1040
0.275
1040
207.0
1040
345.0
1040
56.0
1040
12.0
1040
0.46
  0
ENDSEC
  0
EOF
