  0
SECTION
  2
HEADER
  9
$ACADVER
  1
AC1009
  9
$INSBASE
 10
0.0
 20
0.0
 30
0.0
  9
$EXTMIN
 10
0.0
 20
0.0
 30
0.0
  9
$EXTMAX
 10
4.0
 20
4.0
 30
2.0
  9
$LIMMIN
 10
0.0
 20
0.0
  9
$LIMMAX
 10
12.0
 20
9.0
  9
$ORTHOMODE
 70
     0
  9
$REGENMODE
 70
     1
  9
$FILLMODE
 70
     1
  9
$QTEXTMODE
 70
     0
  9
$MIRRTEXT
 70
     1
  9
$DRAGMODE
 70
     2
  9
$LTSCALE
 40
1.0
  9
$OSMODE
 70
     0
  9
$ATTMODE
 70
     1
  9
$TEXTSIZE
 40
0.2
  9
$TRACEWID
 40
0.05
  9
$TEXTSTYLE
  7
STANDARD
  9
$CLAYER
  8
0
  9
$CELTYPE
  6
BYLAYER
  9
$CECOLOR
 62
   256
  9
$DIMSCALE
 40
1.0
  9
$DIMASZ
 40
0.18
  9
$DIMEXO
 40
0.0625
  9
$DIMDLI
 40
0.38
  9
$DIMRND
 40
0.0
  9
$DIMDLE
 40
0.0
  9
$DIMEXE
 40
0.18
  9
$DIMTP
 40
0.0
  9
$DIMTM
 40
0.0
  9
$DIMTXT
 40
0.18
  9
$DIMCEN
 40
0.09
  9
$DIMTSZ
 40
0.0
  9
$DIMTOL
 70
     0
  9
$DIMLIM
 70
     0
  9
$DIMTIH
 70
     1
  9
$DIMTOH
 70
     1
  9
$DIMSE1
 70
     0
  9
$DIMSE2
 70
     0
  9
$DIMTAD
 70
     0
  9
$DIMZIN
 70
     0
  9
$DIMBLK
  1

  9
$DIMASO
 70
     1
  9
$DIMSHO
 70
     1
  9
$DIMPOST
  1

  9
$DIMAPOST
  1

  9
$DIMALT
 70
     0
  9
$DIMALTD
 70
     2
  9
$DIMALTF
 40
25.4
  9
$DIMLFAC
 40
1.0
  9
$DIMTOFL
 70
     0
  9
$DIMTVP
 40
0.0
  9
$DIMTIX
 70
     0
  9
$DIMSOXD
 70
     0
  9
$DIMSAH
 70
     0
  9
$DIMBLK1
  1

  9
$DIMBLK2
  1

  9
$DIMSTYLE
  2
*UNNAMED
  9
$DIMCLRD
 70
     0
  9
$DIMCLRE
 70
     0
  9
$DIMCLRT
 70
     0
  9
$DIMTFAC
 40
1.0
  9
$DIMGAP
 40
0.09
  9
$LUNITS
 70
     2
  9
$LUPREC
 70
     4
  9
$SKETCHINC
 40
0.1
  9
$FILLETRAD
 40
0.0
  9
$AUNITS
 70
     0
  9
$AUPREC
 70
     0
  9
$MENU
  1
acad
  9
$ELEVATION
 40
0.0
  9
$PELEVATION
 40
0.0
  9
$THICKNESS
 40
0.0
  9
$LIMCHECK
 70
     0
  9
$BLIPMODE
 70
     1
  9
$CHAMFERA
 40
0.0
  9
$CHAMFERB
 40
0.0
  9
$SKPOLY
 70
     0
  9
$TDCREATE
 40
2448818.859605694
  9
$TDUPDATE
 40
2448818.899977060
  9
$TDINDWG
 40
0.0403713657
  9
$TDUSRTIMER
 40
0.0403713657
  9
$USRTIMER
 70
     1
  9
$ANGBASE
 50
0.0
  9
$ANGDIR
 70
     0
  9
$PDMODE
 70
     0
  9
$PDSIZE
 40
0.0
  9
$PLINEWID
 40
0.0
  9
$COORDS
 70
     0
  9
$SPLFRAME
 70
     0
  9
$SPLINETYPE
 70
     6
  9
$SPLINESEGS
 70
     8
  9
$ATTDIA
 70
     0
  9
$ATTREQ
 70
     1
  9
$HANDLING
 70
     1
  9
$HANDSEED
  5
14E
  9
$SURFTAB1
 70
     6
  9
$SURFTAB2
 70
     6
  9
$SURFTYPE
 70
     6
  9
$SURFU
 70
     6
  9
$SURFV
 70
     6
  9
$UCSNAME
  2

  9
$UCSORG
 10
0.0
 20
0.0
 30
0.0
  9
$UCSXDIR
 10
1.0
 20
0.0
 30
0.0
  9
$UCSYDIR
 10
0.0
 20
1.0
 30
0.0
  9
$PUCSNAME
  2

  9
$PUCSORG
 10
0.0
 20
0.0
 30
0.0
  9
$PUCSXDIR
 10
1.0
 20
0.0
 30
0.0
  9
$PUCSYDIR
 10
0.0
 20
1.0
 30
0.0
  9
$USERI1
 70
     0
  9
$USERI2
 70
     0
  9
$USERI3
 70
     0
  9
$USERI4
 70
     0
  9
$USERI5
 70
     0
  9
$USERR1
 40
0.0
  9
$USERR2
 40
0.0
  9
$USERR3
 40
0.0
  9
$USERR4
 40
0.0
  9
$USERR5
 40
0.0
  9
$WORLDVIEW
 70
     1
  9
$SHADEDGE
 70
     3
  9
$SHADEDIF
 70
    70
  9
$TILEMODE
 70
     1
  9
$MAXACTVP
 70
    16
  9
$PINSBASE
 10
0.0
 20
0.0
 30
0.0
  9
$PLIMCHECK
 70
     0
  9
$PEXTMIN
 10
1.000000E+20
 20
1.000000E+20
 30
1.000000E+20
  9
$PEXTMAX
 10
-1.000000E+20
 20
-1.000000E+20
 30
-1.000000E+20
  9
$PLIMMIN
 10
0.0
 20
0.0
  9
$PLIMMAX
 10
12.0
 20
9.0
  9
$UNITMODE
 70
     0
  9
$VISRETAIN
 70
     0
  9
$PLINEGEN
 70
     0
  9
$PSLTSCALE
 70
     0
  9
$TREEDEPTH
 70
  3020
  9
$DWGCODEPAGE
  3
undefined
  0
ENDSEC
  0
SECTION
  2
TABLES
  0
TABLE
  2
VPORT
 70
     2
  0
VPORT
  2
*ACTIVE
 70
     0
 10
0.0
 20
0.0
 11
1.0
 21
1.0
 12
1.078222
 22
-0.816497
 13
0.0
 23
0.0
 14
1.0
 24
1.0
 15
0.0
 25
0.0
 16
1.0
 26
1.0
 36
1.0
 17
0.0
 27
0.0
 37
0.0
 40
4.898979
 41
1.594883
 42
50.0
 43
0.0
 44
0.0
 50
0.0
 51
0.0
 71
     0
 72
   100
 73
     1
 74
     1
 75
     0
 76
     0
 77
     0
 78
     0
  0
ENDTAB
  0
TABLE
  2
LTYPE
 70
     1
  0
LTYPE
  2
CONTINUOUS
 70
    64
  3
Solid line
 72
    65
 73
     0
 40
0.0
  0
ENDTAB
  0
TABLE
  2
LAYER
 70
     2
  0
LAYER
  2
0
 70
    64
 62
     7
  6
CONTINUOUS
  0
LAYER
  2
AME_FRZ
 70
    65
 62
     7
  6
CONTINUOUS
  0
ENDTAB
  0
TABLE
  2
STYLE
 70
     1
  0
STYLE
  2
STANDARD
 70
     0
 40
0.0
 41
1.0
 50
0.0
 71
     0
 42
0.2
  3
txt
  4

  0
ENDTAB
  0
TABLE
  2
VIEW
 70
     0
  0
ENDTAB
  0
TABLE
  2
UCS
 70
     0
  0
ENDTAB
  0
TABLE
  2
APPID
 70
     2
  0
APPID
  2
ACAD
 70
    64
  0
APPID
  2
AME_SOL
 70
    64
  0
ENDTAB
  0
TABLE
  2
DIMSTYLE
 70
     0
  0
ENDTAB
  0
ENDSEC
  0
SECTION
  2
BLOCKS
  0
BLOCK
  8
0
  5
1
  2
AME_NIL
 70
    64
 10
0.0
 20
0.0
 30
0.0
  1
AME_NIL
  3
AME_NIL
  0
ENDBLK
  8
0
  5
2
  0
BLOCK
  8
0
  5
4
  2
AME_SOL
 70
    64
 10
0.0
 20
0.0
 30
0.0
  1
AME_SOL
  3
AME_SOL
  0
ENDBLK
  8
0
  5
5
  0
BLOCK
  8
0
  5
1A
  2
SOLAXES
 70
     0
 10
0.0
 20
0.0
 30
0.0
  1
SOLAXES
  3
SOLAXES
  0
LINE
  8
0
 62
     0
  5
1B
 10
0.0
 20
0.0
 30
0.0
 11
1.10227
 21
0.0
 31
0.0
  0
LINE
  8
0
 62
     0
  5
1C
 10
0.0
 20
0.0
 30
0.0
 11
0.0
 21
1.10227
 31
0.0
  0
LINE
  8
0
 62
     0
  5
1D
 10
0.0
 20
0.0
 30
0.0
 11
0.0
 21
0.0
 31
1.10227
  0
CIRCLE
  8
0
 62
     0
  5
1E
 10
0.0
 20
0.0
 30
0.992043
 40
0.055114
210
1.0
220
0.0
230
0.0
  0
LINE
  8
0
 62
     0
  5
1F
 10
0.992043
 20
0.055114
 30
0.0
 11
1.10227
 21
0.0
 31
0.0
  0
LINE
  8
0
 62
     0
  5
20
 10
0.992043
 20
0.0
 30
0.055114
 11
1.10227
 21
0.0
 31
0.0
  0
LINE
  8
0
 62
     0
  5
21
 10
0.992043
 20
-0.055114
 30
0.0
 11
1.10227
 21
0.0
 31
0.0
  0
LINE
  8
0
 62
     0
  5
22
 10
0.992043
 20
0.0
 30
-0.055114
 11
1.10227
 21
0.0
 31
0.0
  0
CIRCLE
  8
0
 62
     0
  5
23
 10
0.0
 20
0.0
 30
0.992043
 40
0.055114
210
0.0
220
1.0
230
0.0
  0
LINE
  8
0
 62
     0
  5
24
 10
0.055114
 20
0.992043
 30
0.0
 11
0.0
 21
1.10227
 31
0.0
  0
LINE
  8
0
 62
     0
  5
25
 10
0.0
 20
0.992043
 30
0.055114
 11
0.0
 21
1.10227
 31
0.0
  0
LINE
  8
0
 62
     0
  5
26
 10
-0.055114
 20
0.992043
 30
0.0
 11
0.0
 21
1.10227
 31
0.0
  0
LINE
  8
0
 62
     0
  5
27
 10
0.0
 20
0.992043
 30
-0.055114
 11
0.0
 21
1.10227
 31
0.0
  0
CIRCLE
  8
0
 62
     0
  5
28
 10
0.0
 20
0.0
 30
0.881816
 40
0.055114
210
0.0
220
1.0
230
0.0
  0
LINE
  8
0
 62
     0
  5
29
 10
0.055114
 20
0.881816
 30
0.0
 11
0.0
 21
0.992043
 31
0.0
  0
LINE
  8
0
 62
     0
  5
2A
 10
0.0
 20
0.881816
 30
0.055114
 11
0.0
 21
0.992043
 31
0.0
  0
LINE
  8
0
 62
     0
  5
2B
 10
-0.055114
 20
0.881816
 30
0.0
 11
0.0
 21
0.992043
 31
0.0
  0
LINE
  8
0
 62
     0
  5
2C
 10
0.0
 20
0.881816
 30
-0.055114
 11
0.0
 21
0.992043
 31
0.0
  0
CIRCLE
  8
0
 62
     0
  5
2D
 10
0.0
 20
0.0
 30
0.992043
 40
0.055114
  0
LINE
  8
0
 62
     0
  5
2E
 10
0.055114
 20
0.0
 30
0.992043
 11
0.0
 21
0.0
 31
1.10227
  0
LINE
  8
0
 62
     0
  5
2F
 10
0.0
 20
0.055114
 30
0.992043
 11
0.0
 21
0.0
 31
1.10227
  0
LINE
  8
0
 62
     0
  5
30
 10
-0.055114
 20
0.0
 30
0.992043
 11
0.0
 21
0.0
 31
1.10227
  0
LINE
  8
0
 62
     0
  5
31
 10
0.0
 20
-0.055114
 30
0.992043
 11
0.0
 21
0.0
 31
1.10227
  0
CIRCLE
  8
0
 62
     0
  5
32
 10
0.0
 20
0.0
 30
0.881816
 40
0.055114
  0
LINE
  8
0
 62
     0
  5
33
 10
0.055114
 20
0.0
 30
0.881816
 11
0.0
 21
0.0
 31
0.992043
  0
LINE
  8
0
 62
     0
  5
34
 10
0.0
 20
0.055114
 30
0.881816
 11
0.0
 21
0.0
 31
0.992043
  0
LINE
  8
0
 62
     0
  5
35
 10
-0.055114
 20
0.0
 30
0.881816
 11
0.0
 21
0.0
 31
0.992043
  0
LINE
  8
0
 62
     0
  5
36
 10
0.0
 20
-0.055114
 30
0.881816
 11
0.0
 21
0.0
 31
0.992043
  0
CIRCLE
  8
0
 62
     0
  5
37
 10
0.0
 20
0.0
 30
0.771589
 40
0.055114
  0
LINE
  8
0
 62
     0
  5
38
 10
0.055114
 20
0.0
 30
0.771589
 11
0.0
 21
0.0
 31
0.881816
  0
LINE
  8
0
 62
     0
  5
39
 10
0.0
 20
0.055114
 30
0.771589
 11
0.0
 21
0.0
 31
0.881816
  0
LINE
  8
0
 62
     0
  5
3A
 10
-0.055114
 20
0.0
 30
0.771589
 11
0.0
 21
0.0
 31
0.881816
  0
LINE
  8
0
 62
     0
  5
3B
 10
0.0
 20
-0.055114
 30
0.771589
 11
0.0
 21
0.0
 31
0.881816
  0
ENDBLK
  8
0
  5
3C
  0
BLOCK
  8
0
  5
3F
  2
*U4
 70
    65
 10
0.0
 20
0.0
 30
0.0
  1
*U
  3
*U
  0
LINE
  8
0
 62
     0
  5
40
 10
4.0
 20
4.0
 30
0.0
 11
4.0
 21
4.0
 31
2.0
1001
AME_SOL
1070
     1
1071
       18
  0
LINE
  8
0
 62
     0
  5
41
 10
4.0
 20
4.0
 30
2.0
 11
4.0
 21
0.0
 31
2.0
1001
AME_SOL
1070
     1
1071
       17
  0
LINE
  8
0
 62
     0
  5
42
 10
0.0
 20
4.0
 30
2.0
 11
4.0
 21
4.0
 31
2.0
1001
AME_SOL
1070
     1
1071
       16
  0
LINE
  8
0
 62
     0
  5
43
 10
0.0
 20
4.0
 30
0.0
 11
0.0
 21
4.0
 31
2.0
1001
AME_SOL
1070
     1
1071
       15
  0
LINE
  8
0
 62
     0
  5
44
 10
0.0
 20
4.0
 30
2.0
 11
0.0
 21
0.0
 31
2.0
1001
AME_SOL
1070
     1
1071
       14
  0
LINE
  8
0
 62
     0
  5
45
 10
0.0
 20
0.0
 30
0.0
 11
0.0
 21
0.0
 31
2.0
1001
AME_SOL
1070
     1
1071
       13
  0
LINE
  8
0
 62
     0
  5
46
 10
4.0
 20
0.0
 30
2.0
 11
4.0
 21
0.0
 31
0.0
1001
AME_SOL
1070
     1
1071
       12
  0
LINE
  8
0
 62
     0
  5
47
 10
0.0
 20
0.0
 30
2.0
 11
4.0
 21
0.0
 31
2.0
1001
AME_SOL
1070
     1
1071
       11
  0
LINE
  8
0
 62
     0
  5
48
 10
0.0
 20
0.0
 30
0.0
 11
4.0
 21
0.0
 31
0.0
1001
AME_SOL
1070
     1
1071
       10
  0
LINE
  8
0
 62
     0
  5
49
 10
0.0
 20
4.0
 30
0.0
 11
0.0
 21
0.0
 31
0.0
1001
AME_SOL
1070
     1
1071
        9
  0
LINE
  8
0
 62
     0
  5
4A
 10
4.0
 20
0.0
 30
0.0
 11
4.0
 21
4.0
 31
0.0
1001
AME_SOL
1070
     1
1071
        8
  0
LINE
  8
0
 62
     0
  5
4B
 10
4.0
 20
4.0
 30
0.0
 11
0.0
 21
4.0
 31
0.0
1001
AME_SOL
1070
     1
1071
        7
  0
ENDBLK
  8
0
  5
4C
  0
BLOCK
  8
0
  5
51
  2
*U5
 70
    65
 10
0.0
 20
0.0
 30
0.0
  1
*U
  3
*U
  0
LINE
  8
0
 62
     0
  5
52
 10
2.0
 20
3.0
 30
0.0
 11
2.0
 21
3.0
 31
2.0
1001
AME_SOL
1070
     1
1071
       18
  0
LINE
  8
0
 62
     0
  5
53
 10
2.0
 20
3.0
 30
2.0
 11
2.0
 21
0.0
 31
2.0
1001
AME_SOL
1070
     1
1071
       17
  0
LINE
  8
0
 62
     0
  5
54
 10
0.0
 20
3.0
 30
2.0
 11
2.0
 21
3.0
 31
2.0
1001
AME_SOL
1070
     1
1071
       16
  0
LINE
  8
0
 62
     0
  5
55
 10
0.0
 20
3.0
 30
0.0
 11
0.0
 21
3.0
 31
2.0
1001
AME_SOL
1070
     1
1071
       15
  0
LINE
  8
0
 62
     0
  5
56
 10
0.0
 20
3.0
 30
2.0
 11
0.0
 21
0.0
 31
2.0
1001
AME_SOL
1070
     1
1071
       14
  0
LINE
  8
0
 62
     0
  5
57
 10
0.0
 20
0.0
 30
0.0
 11
0.0
 21
0.0
 31
2.0
1001
AME_SOL
1070
     1
1071
       13
  0
LINE
  8
0
 62
     0
  5
58
 10
2.0
 20
0.0
 30
2.0
 11
2.0
 21
0.0
 31
0.0
1001
AME_SOL
1070
     1
1071
       12
  0
LINE
  8
0
 62
     0
  5
59
 10
0.0
 20
0.0
 30
2.0
 11
2.0
 21
0.0
 31
2.0
1001
AME_SOL
1070
     1
1071
       11
  0
LINE
  8
0
 62
     0
  5
5A
 10
0.0
 20
0.0
 30
0.0
 11
2.0
 21
0.0
 31
0.0
1001
AME_SOL
1070
     1
1071
       10
  0
LINE
  8
0
 62
     0
  5
5B
 10
0.0
 20
3.0
 30
0.0
 11
0.0
 21
0.0
 31
0.0
1001
AME_SOL
1070
     1
1071
        9
  0
LINE
  8
0
 62
     0
  5
5C
 10
2.0
 20
0.0
 30
0.0
 11
2.0
 21
3.0
 31
0.0
1001
AME_SOL
1070
     1
1071
        8
  0
LINE
  8
0
 62
     0
  5
5D
 10
2.0
 20
3.0
 30
0.0
 11
0.0
 21
3.0
 31
0.0
1001
AME_SOL
1070
     1
1071
        7
  0
ENDBLK
  8
0
  5
5E
  0
BLOCK
  8
0
  5
63
  2
*U6
 70
    65
 10
0.0
 20
0.0
 30
0.0
  1
*U
  3
*U
  0
LINE
  8
0
 62
     7
  5
64
 10
4.0
 20
4.0
 30
0.0
 11
4.0
 21
4.0
 31
2.0
1001
AME_SOL
1070
     1
1071
       33
  0
LINE
  8
0
 62
     7
  5
65
 10
4.0
 20
4.0
 30
2.0
 11
4.0
 21
0.0
 31
2.0
1001
AME_SOL
1070
     1
1071
       32
  0
LINE
  8
0
 62
     7
  5
66
 10
3.0
 20
4.0
 30
2.0
 11
4.0
 21
4.0
 31
2.0
1001
AME_SOL
1070
     1
1071
       31
  0
LINE
  8
0
 62
     7
  5
67
 10
0.0
 20
4.0
 30
2.0
 11
1.0
 21
4.0
 31
2.0
1001
AME_SOL
1070
     1
1071
       30
  0
LINE
  8
0
 62
     7
  5
68
 10
0.0
 20
4.0
 30
0.0
 11
0.0
 21
4.0
 31
2.0
1001
AME_SOL
1070
     1
1071
       29
  0
LINE
  8
0
 62
     7
  5
69
 10
0.0
 20
4.0
 30
2.0
 11
0.0
 21
0.0
 31
2.0
1001
AME_SOL
1070
     1
1071
       28
  0
LINE
  8
0
 62
     7
  5
6A
 10
0.0
 20
0.0
 30
0.0
 11
0.0
 21
0.0
 31
2.0
1001
AME_SOL
1070
     1
1071
       27
  0
LINE
  8
0
 62
     7
  5
6B
 10
4.0
 20
0.0
 30
2.0
 11
4.0
 21
0.0
 31
0.0
1001
AME_SOL
1070
     1
1071
       26
  0
LINE
  8
0
 62
     7
  5
6C
 10
0.0
 20
0.0
 30
2.0
 11
4.0
 21
0.0
 31
2.0
1001
AME_SOL
1070
     1
1071
       25
  0
LINE
  8
0
 62
     7
  5
6D
 10
0.0
 20
0.0
 30
0.0
 11
4.0
 21
0.0
 31
0.0
1001
AME_SOL
1070
     1
1071
       24
  0
LINE
  8
0
 62
     7
  5
6E
 10
0.0
 20
4.0
 30
0.0
 11
0.0
 21
0.0
 31
0.0
1001
AME_SOL
1070
     1
1071
       23
  0
LINE
  8
0
 62
     7
  5
6F
 10
4.0
 20
0.0
 30
0.0
 11
4.0
 21
4.0
 31
0.0
1001
AME_SOL
1070
     1
1071
       22
  0
LINE
  8
0
 62
     7
  5
70
 10
1.0
 20
4.0
 30
0.0
 11
0.0
 21
4.0
 31
0.0
1001
AME_SOL
1070
     1
1071
       21
  0
LINE
  8
0
 62
     7
  5
71
 10
4.0
 20
4.0
 30
0.0
 11
3.0
 21
4.0
 31
0.0
1001
AME_SOL
1070
     1
1071
       20
  0
LINE
  8
0
 62
     7
  5
72
 10
3.0
 20
4.0
 30
0.0
 11
3.0
 21
1.0
 31
0.0
1001
AME_SOL
1070
     1
1071
       19
  0
LINE
  8
0
 62
     7
  5
73
 10
3.0
 20
4.0
 30
2.0
 11
3.0
 21
4.0
 31
0.0
1001
AME_SOL
1070
     1
1071
       18
  0
LINE
  8
0
 62
     7
  5
74
 10
3.0
 20
1.0
 30
2.0
 11
3.0
 21
4.0
 31
2.0
1001
AME_SOL
1070
     1
1071
       17
  0
LINE
  8
0
 62
     7
  5
75
 10
1.0
 20
1.0
 30
0.0
 11
1.0
 21
4.0
 31
0.0
1001
AME_SOL
1070
     1
1071
       16
  0
LINE
  8
0
 62
     7
  5
76
 10
1.0
 20
4.0
 30
0.0
 11
1.0
 21
4.0
 31
2.0
1001
AME_SOL
1070
     1
1071
       15
  0
LINE
  8
0
 62
     7
  5
77
 10
1.0
 20
4.0
 30
2.0
 11
1.0
 21
1.0
 31
2.0
1001
AME_SOL
1070
     1
1071
       14
  0
LINE
  8
0
 62
     7
  5
78
 10
3.0
 20
1.0
 30
0.0
 11
1.0
 21
1.0
 31
0.0
1001
AME_SOL
1070
     1
1071
       13
  0
LINE
  8
0
 62
     7
  5
79
 10
1.0
 20
1.0
 30
0.0
 11
1.0
 21
1.0
 31
2.0
1001
AME_SOL
1070
     1
1071
       12
  0
LINE
  8
0
 62
     7
  5
7A
 10
1.0
 20
1.0
 30
2.0
 11
3.0
 21
1.0
 31
2.0
1001
AME_SOL
1070
     1
1071
       11
  0
LINE
  8
0
 62
     7
  5
7B
 10
3.0
 20
1.0
 30
2.0
 11
3.0
 21
1.0
 31
0.0
1001
AME_SOL
1070
     1
1071
       10
  0
ENDBLK
  8
0
  5
7C
  0
BLOCK
  8
0
  5
80
  2
*U7
 70
    65
 10
0.0
 20
0.0
 30
0.0
  1
*U
  3
*U
  0
LINE
  8
0
 62
     0
  5
81
 10
1.0
 20
1.0
 30
0.0
 11
1.0
 21
1.0
 31
2.0
1001
AME_SOL
1070
     1
1071
       18
  0
LINE
  8
0
 62
     0
  5
82
 10
1.0
 20
1.0
 30
2.0
 11
1.0
 21
0.0
 31
2.0
1001
AME_SOL
1070
     1
1071
       17
  0
LINE
  8
0
 62
     0
  5
83
 10
0.0
 20
1.0
 30
2.0
 11
1.0
 21
1.0
 31
2.0
1001
AME_SOL
1070
     1
1071
       16
  0
LINE
  8
0
 62
     0
  5
84
 10
0.0
 20
1.0
 30
0.0
 11
0.0
 21
1.0
 31
2.0
1001
AME_SOL
1070
     1
1071
       15
  0
LINE
  8
0
 62
     0
  5
85
 10
0.0
 20
1.0
 30
2.0
 11
0.0
 21
0.0
 31
2.0
1001
AME_SOL
1070
     1
1071
       14
  0
LINE
  8
0
 62
     0
  5
86
 10
0.0
 20
0.0
 30
0.0
 11
0.0
 21
0.0
 31
2.0
1001
AME_SOL
1070
     1
1071
       13
  0
LINE
  8
0
 62
     0
  5
87
 10
1.0
 20
0.0
 30
2.0
 11
1.0
 21
0.0
 31
0.0
1001
AME_SOL
1070
     1
1071
       12
  0
LINE
  8
0
 62
     0
  5
88
 10
0.0
 20
0.0
 30
2.0
 11
1.0
 21
0.0
 31
2.0
1001
AME_SOL
1070
     1
1071
       11
  0
LINE
  8
0
 62
     0
  5
89
 10
0.0
 20
0.0
 30
0.0
 11
1.0
 21
0.0
 31
0.0
1001
AME_SOL
1070
     1
1071
       10
  0
LINE
  8
0
 62
     0
  5
8A
 10
0.0
 20
1.0
 30
0.0
 11
0.0
 21
0.0
 31
0.0
1001
AME_SOL
1070
     1
1071
        9
  0
LINE
  8
0
 62
     0
  5
8B
 10
1.0
 20
0.0
 30
0.0
 11
1.0
 21
1.0
 31
0.0
1001
AME_SOL
1070
     1
1071
        8
  0
LINE
  8
0
 62
     0
  5
8C
 10
1.0
 20
1.0
 30
0.0
 11
0.0
 21
1.0
 31
0.0
1001
AME_SOL
1070
     1
1071
        7
  0
ENDBLK
  8
0
  5
8D
  0
BLOCK
  8
0
  5
92
  2
*U8
 70
    65
 10
0.0
 20
0.0
 30
0.0
  1
*U
  3
*U
  0
LINE
  8
0
 62
     7
  5
93
 10
4.0
 20
4.0
 30
0.0
 11
4.0
 21
4.0
 31
2.0
1001
AME_SOL
1070
     1
1071
       48
  0
LINE
  8
0
 62
     7
  5
94
 10
4.0
 20
4.0
 30
2.0
 11
4.0
 21
0.0
 31
2.0
1001
AME_SOL
1070
     1
1071
       47
  0
LINE
  8
0
 62
     7
  5
95
 10
3.0
 20
4.0
 30
2.0
 11
4.0
 21
4.0
 31
2.0
1001
AME_SOL
1070
     1
1071
       46
  0
LINE
  8
0
 62
     7
  5
96
 10
0.0
 20
4.0
 30
2.0
 11
1.0
 21
4.0
 31
2.0
1001
AME_SOL
1070
     1
1071
       45
  0
LINE
  8
0
 62
     7
  5
97
 10
0.0
 20
4.0
 30
0.0
 11
0.0
 21
4.0
 31
2.0
1001
AME_SOL
1070
     1
1071
       44
  0
LINE
  8
0
 62
     7
  5
98
 10
0.0
 20
4.0
 30
2.0
 11
0.0
 21
0.0
 31
2.0
1001
AME_SOL
1070
     1
1071
       43
  0
LINE
  8
0
 62
     7
  5
99
 10
0.0
 20
0.0
 30
0.0
 11
0.0
 21
0.0
 31
2.0
1001
AME_SOL
1070
     1
1071
       42
  0
LINE
  8
0
 62
     7
  5
9A
 10
4.0
 20
0.0
 30
2.0
 11
4.0
 21
0.0
 31
0.0
1001
AME_SOL
1070
     1
1071
       41
  0
LINE
  8
0
 62
     7
  5
9B
 10
0.0
 20
0.0
 30
2.0
 11
4.0
 21
0.0
 31
2.0
1001
AME_SOL
1070
     1
1071
       40
  0
LINE
  8
0
 62
     7
  5
9C
 10
0.0
 20
0.0
 30
0.0
 11
4.0
 21
0.0
 31
0.0
1001
AME_SOL
1070
     1
1071
       39
  0
LINE
  8
0
 62
     7
  5
9D
 10
0.0
 20
4.0
 30
0.0
 11
0.0
 21
0.0
 31
0.0
1001
AME_SOL
1070
     1
1071
       38
  0
LINE
  8
0
 62
     7
  5
9E
 10
4.0
 20
0.0
 30
0.0
 11
4.0
 21
4.0
 31
0.0
1001
AME_SOL
1070
     1
1071
       37
  0
LINE
  8
0
 62
     7
  5
9F
 10
1.0
 20
4.0
 30
0.0
 11
0.0
 21
4.0
 31
0.0
1001
AME_SOL
1070
     1
1071
       36
  0
LINE
  8
0
 62
     7
  5
A0
 10
4.0
 20
4.0
 30
0.0
 11
3.0
 21
4.0
 31
0.0
1001
AME_SOL
1070
     1
1071
       35
  0
LINE
  8
0
 62
     7
  5
A1
 10
3.0
 20
4.0
 30
0.0
 11
3.0
 21
1.0
 31
0.0
1001
AME_SOL
1070
     1
1071
       34
  0
LINE
  8
0
 62
     7
  5
A2
 10
3.0
 20
4.0
 30
2.0
 11
3.0
 21
4.0
 31
0.0
1001
AME_SOL
1070
     1
1071
       33
  0
LINE
  8
0
 62
     7
  5
A3
 10
3.0
 20
1.0
 30
2.0
 11
3.0
 21
4.0
 31
2.0
1001
AME_SOL
1070
     1
1071
       32
  0
LINE
  8
0
 62
     7
  5
A4
 10
1.0
 20
3.0
 30
0.0
 11
1.0
 21
4.0
 31
0.0
1001
AME_SOL
1070
     1
1071
       31
  0
LINE
  8
0
 62
     7
  5
A5
 10
1.0
 20
1.0
 30
0.0
 11
1.0
 21
2.0
 31
0.0
1001
AME_SOL
1070
     1
1071
       30
  0
LINE
  8
0
 62
     7
  5
A6
 10
1.0
 20
4.0
 30
0.0
 11
1.0
 21
4.0
 31
2.0
1001
AME_SOL
1070
     1
1071
       29
  0
LINE
  8
0
 62
     7
  5
A7
 10
1.0
 20
2.0
 30
2.0
 11
1.0
 21
1.0
 31
2.0
1001
AME_SOL
1070
     1
1071
       28
  0
LINE
  8
0
 62
     7
  5
A8
 10
1.0
 20
4.0
 30
2.0
 11
1.0
 21
3.0
 31
2.0
1001
AME_SOL
1070
     1
1071
       27
  0
LINE
  8
0
 62
     7
  5
A9
 10
3.0
 20
1.0
 30
0.0
 11
1.0
 21
1.0
 31
0.0
1001
AME_SOL
1070
     1
1071
       26
  0
LINE
  8
0
 62
     7
  5
AA
 10
1.0
 20
1.0
 30
0.0
 11
1.0
 21
1.0
 31
2.0
1001
AME_SOL
1070
     1
1071
       25
  0
LINE
  8
0
 62
     7
  5
AB
 10
3.0
 20
1.0
 30
2.0
 11
3.0
 21
1.0
 31
0.0
1001
AME_SOL
1070
     1
1071
       24
  0
LINE
  8
0
 62
     7
  5
AC
 10
1.0
 20
1.0
 30
2.0
 11
3.0
 21
1.0
 31
2.0
1001
AME_SOL
1070
     1
1071
       23
  0
LINE
  8
0
 62
     7
  5
AD
 10
2.0
 20
3.0
 30
0.0
 11
2.0
 21
2.0
 31
0.0
1001
AME_SOL
1070
     1
1071
       22
  0
LINE
  8
0
 62
     7
  5
AE
 10
2.0
 20
2.0
 30
2.0
 11
2.0
 21
3.0
 31
2.0
1001
AME_SOL
1070
     1
1071
       21
  0
LINE
  8
0
 62
     7
  5
AF
 10
1.0
 20
3.0
 30
0.0
 11
2.0
 21
3.0
 31
0.0
1001
AME_SOL
1070
     1
1071
       20
  0
LINE
  8
0
 62
     7
  5
B0
 10
1.0
 20
3.0
 30
2.0
 11
1.0
 21
3.0
 31
0.0
1001
AME_SOL
1070
     1
1071
       19
  0
LINE
  8
0
 62
     7
  5
B1
 10
2.0
 20
3.0
 30
0.0
 11
2.0
 21
3.0
 31
2.0
1001
AME_SOL
1070
     1
1071
       18
  0
LINE
  8
0
 62
     7
  5
B2
 10
2.0
 20
3.0
 30
2.0
 11
1.0
 21
3.0
 31
2.0
1001
AME_SOL
1070
     1
1071
       17
  0
LINE
  8
0
 62
     7
  5
B3
 10
2.0
 20
2.0
 30
0.0
 11
1.0
 21
2.0
 31
0.0
1001
AME_SOL
1070
     1
1071
       16
  0
LINE
  8
0
 62
     7
  5
B4
 10
1.0
 20
2.0
 30
0.0
 11
1.0
 21
2.0
 31
2.0
1001
AME_SOL
1070
     1
1071
       15
  0
LINE
  8
0
 62
     7
  5
B5
 10
2.0
 20
2.0
 30
2.0
 11
2.0
 21
2.0
 31
0.0
1001
AME_SOL
1070
     1
1071
       14
  0
LINE
  8
0
 62
     7
  5
B6
 10
1.0
 20
2.0
 30
2.0
 11
2.0
 21
2.0
 31
2.0
1001
AME_SOL
1070
     1
1071
       13
  0
ENDBLK
  8
0
  5
B7
  0
BLOCK
  8
0
  5
BB
  2
*U9
 70
    65
 10
0.0
 20
0.0
 30
0.0
  1
*U
  3
*U
  0
POLYLINE
  8
0
 62
     7
  5
BC
 66
     1
 10
0.0
 20
0.0
 30
0.0
 70
    64
  0
VERTEX
  8
0
  5
BD
 10
4.0
 20
4.0
 30
0.0
 70
   192
  0
VERTEX
  8
0
  5
BE
 10
4.0
 20
4.0
 30
2.0
 70
   192
  0
VERTEX
  8
0
  5
BF
 10
4.0
 20
0.0
 30
0.0
 70
   192
  0
VERTEX
  8
0
  5
C0
 10
4.0
 20
0.0
 30
2.0
 70
   192
  0
VERTEX
  8
0
 62
     7
  5
C1
 10
0.0
 20
0.0
 30
0.0
 70
   128
 71
     1
 72
    -2
 73
     3
  0
VERTEX
  8
0
 62
     7
  5
C2
 10
0.0
 20
0.0
 30
0.0
 70
   128
 71
     2
 72
     4
 73
    -3
  0
SEQEND
  8
0
 62
     7
  5
C3
  0
POLYLINE
  8
0
 62
     7
  5
C4
 66
     1
 10
0.0
 20
0.0
 30
0.0
 70
    64
  0
VERTEX
  8
0
  5
C5
 10
3.0
 20
4.0
 30
2.0
 70
   192
  0
VERTEX
  8
0
  5
C6
 10
4.0
 20
4.0
 30
0.0
 70
   192
  0
VERTEX
  8
0
  5
C7
 10
3.0
 20
4.0
 30
0.0
 70
   192
  0
VERTEX
  8
0
  5
C8
 10
4.0
 20
4.0
 30
2.0
 70
   192
  0
VERTEX
  8
0
  5
C9
 10
0.0
 20
4.0
 30
0.0
 70
   192
  0
VERTEX
  8
0
  5
CA
 10
0.0
 20
4.0
 30
2.0
 70
   192
  0
VERTEX
  8
0
  5
CB
 10
1.0
 20
4.0
 30
2.0
 70
   192
  0
VERTEX
  8
0
  5
CC
 10
1.0
 20
4.0
 30
0.0
 70
   192
  0
VERTEX
  8
0
 62
     7
  5
CD
 10
0.0
 20
0.0
 30
0.0
 70
   128
 71
    -1
 72
     2
 73
     3
  0
VERTEX
  8
0
 62
     7
  5
CE
 10
0.0
 20
0.0
 30
0.0
 70
   128
 71
     1
 72
     4
 73
    -2
  0
VERTEX
  8
0
 62
     7
  5
CF
 10
0.0
 20
0.0
 30
0.0
 70
   128
 71
     5
 72
     6
 73
    -7
  0
VERTEX
  8
0
 62
     7
  5
D0
 10
0.0
 20
0.0
 30
0.0
 70
   128
 71
     7
 72
     8
 73
    -5
  0
SEQEND
  8
0
 62
     7
  5
D1
  0
POLYLINE
  8
0
 62
     7
  5
D2
 66
     1
 10
0.0
 20
0.0
 30
0.0
 70
    64
  0
VERTEX
  8
0
  5
D3
 10
1.0
 20
4.0
 30
2.0
 70
   192
  0
VERTEX
  8
0
  5
D4
 10
0.0
 20
0.0
 30
2.0
 70
   192
  0
VERTEX
  8
0
  5
D5
 10
1.0
 20
1.0
 30
2.0
 70
   192
  0
VERTEX
  8
0
  5
D6
 10
1.0
 20
2.0
 30
2.0
 70
   192
  0
VERTEX
  8
0
  5
D7
 10
3.0
 20
1.0
 30
2.0
 70
   192
  0
VERTEX
  8
0
  5
D8
 10
4.0
 20
0.0
 30
2.0
 70
   192
  0
VERTEX
  8
0
  5
D9
 10
1.0
 20
3.0
 30
2.0
 70
   192
  0
VERTEX
  8
0
  5
DA
 10
2.0
 20
3.0
 30
2.0
 70
   192
  0
VERTEX
  8
0
  5
DB
 10
2.0
 20
2.0
 30
2.0
 70
   192
  0
VERTEX
  8
0
  5
DC
 10
3.0
 20
4.0
 30
2.0
 70
   192
  0
VERTEX
  8
0
  5
DD
 10
4.0
 20
4.0
 30
2.0
 70
   192
  0
VERTEX
  8
0
  5
DE
 10
0.0
 20
4.0
 30
2.0
 70
   192
  0
VERTEX
  8
0
 62
     7
  5
DF
 10
0.0
 20
0.0
 30
0.0
 70
   128
 71
    -1
 72
    -2
 73
    -3
  0
VERTEX
  8
0
 62
     7
  5
E0
 10
0.0
 20
0.0
 30
0.0
 70
   128
 71
     3
 72
    -4
 73
    -1
  0
VERTEX
  8
0
 62
     7
  5
E1
 10
0.0
 20
0.0
 30
0.0
 70
   128
 71
    -2
 72
     5
 73
    -3
  0
VERTEX
  8
0
 62
     7
  5
E2
 10
0.0
 20
0.0
 30
0.0
 70
   128
 71
     2
 72
    -6
 73
    -5
  0
VERTEX
  8
0
 62
     7
  5
E3
 10
0.0
 20
0.0
 30
0.0
 70
   128
 71
    -4
 72
     7
 73
    -1
  0
VERTEX
  8
0
 62
     7
  5
E4
 10
0.0
 20
0.0
 30
0.0
 70
   128
 71
    -4
 72
     8
 73
    -7
  0
VERTEX
  8
0
 62
     7
  5
E5
 10
0.0
 20
0.0
 30
0.0
 70
   128
 71
     4
 72
     9
 73
    -8
  0
VERTEX
  8
0
 62
     7
  5
E6
 10
0.0
 20
0.0
 30
0.0
 70
   128
 71
    -6
 72
    10
 73
    -5
  0
VERTEX
  8
0
 62
     7
  5
E7
 10
0.0
 20
0.0
 30
0.0
 70
   128
 71
     6
 72
    11
 73
   -10
  0
VERTEX
  8
0
 62
     7
  5
E8
 10
0.0
 20
0.0
 30
0.0
 70
   128
 71
     1
 72
    12
 73
    -2
  0
SEQEND
  8
0
 62
     7
  5
E9
  0
POLYLINE
  8
0
 62
     7
  5
EA
 66
     1
 10
0.0
 20
0.0
 30
0.0
 70
    64
  0
VERTEX
  8
0
  5
EB
 10
0.0
 20
0.0
 30
0.0
 70
   192
  0
VERTEX
  8
0
  5
EC
 10
0.0
 20
4.0
 30
2.0
 70
   192
  0
VERTEX
  8
0
  5
ED
 10
0.0
 20
4.0
 30
0.0
 70
   192
  0
VERTEX
  8
0
  5
EE
 10
0.0
 20
0.0
 30
2.0
 70
   192
  0
VERTEX
  8
0
 62
     7
  5
EF
 10
0.0
 20
0.0
 30
0.0
 70
   128
 71
    -1
 72
     2
 73
     3
  0
VERTEX
  8
0
 62
     7
  5
F0
 10
0.0
 20
0.0
 30
0.0
 70
   128
 71
     1
 72
     4
 73
    -2
  0
SEQEND
  8
0
 62
     7
  5
F1
  0
POLYLINE
  8
0
 62
     7
  5
F2
 66
     1
 10
0.0
 20
0.0
 30
0.0
 70
    64
  0
VERTEX
  8
0
  5
F3
 10
4.0
 20
0.0
 30
2.0
 70
   192
  0
VERTEX
  8
0
  5
F4
 10
0.0
 20
0.0
 30
2.0
 70
   192
  0
VERTEX
  8
0
  5
F5
 10
0.0
 20
0.0
 30
0.0
 70
   192
  0
VERTEX
  8
0
  5
F6
 10
4.0
 20
0.0
 30
0.0
 70
   192
  0
VERTEX
  8
0
 62
     7
  5
F7
 10
0.0
 20
0.0
 30
0.0
 70
   128
 71
     1
 72
     2
 73
    -3
  0
VERTEX
  8
0
 62
     7
  5
F8
 10
0.0
 20
0.0
 30
0.0
 70
   128
 71
     3
 72
     4
 73
    -1
  0
SEQEND
  8
0
 62
     7
  5
F9
  0
POLYLINE
  8
0
 62
     7
  5
FA
 66
     1
 10
0.0
 20
0.0
 30
0.0
 70
    64
  0
VERTEX
  8
0
  5
FB
 10
1.0
 20
2.0
 30
0.0
 70
   192
  0
VERTEX
  8
0
  5
FC
 10
1.0
 20
1.0
 30
0.0
 70
   192
  0
VERTEX
  8
0
  5
FD
 10
0.0
 20
0.0
 30
0.0
 70
   192
  0
VERTEX
  8
0
  5
FE
 10
1.0
 20
3.0
 30
0.0
 70
   192
  0
VERTEX
  8
0
  5
FF
 10
4.0
 20
0.0
 30
0.0
 70
   192
  0
VERTEX
  8
0
  5
100
 10
3.0
 20
1.0
 30
0.0
 70
   192
  0
VERTEX
  8
0
  5
101
 10
4.0
 20
4.0
 30
0.0
 70
   192
  0
VERTEX
  8
0
  5
102
 10
2.0
 20
2.0
 30
0.0
 70
   192
  0
VERTEX
  8
0
  5
103
 10
2.0
 20
3.0
 30
0.0
 70
   192
  0
VERTEX
  8
0
  5
104
 10
1.0
 20
4.0
 30
0.0
 70
   192
  0
VERTEX
  8
0
  5
105
 10
0.0
 20
4.0
 30
0.0
 70
   192
  0
VERTEX
  8
0
  5
106
 10
3.0
 20
4.0
 30
0.0
 70
   192
  0
VERTEX
  8
0
 62
     7
  5
107
 10
0.0
 20
0.0
 30
0.0
 70
   128
 71
     1
 72
    -2
 73
    -3
  0
VERTEX
  8
0
 62
     7
  5
108
 10
0.0
 20
0.0
 30
0.0
 70
   128
 71
    -3
 72
    -4
 73
    -1
  0
VERTEX
  8
0
 62
     7
  5
109
 10
0.0
 20
0.0
 30
0.0
 70
   128
 71
    -2
 72
     5
 73
    -3
  0
VERTEX
  8
0
 62
     7
  5
10A
 10
0.0
 20
0.0
 30
0.0
 70
   128
 71
     2
 72
    -6
 73
    -5
  0
VERTEX
  8
0
 62
     7
  5
10B
 10
0.0
 20
0.0
 30
0.0
 70
   128
 71
    -6
 72
     7
 73
    -5
  0
VERTEX
  8
0
 62
     7
  5
10C
 10
0.0
 20
0.0
 30
0.0
 70
   128
 71
    -4
 72
     8
 73
    -1
  0
VERTEX
  8
0
 62
     7
  5
10D
 10
0.0
 20
0.0
 30
0.0
 70
   128
 71
     4
 72
     9
 73
    -8
  0
VERTEX
  8
0
 62
     7
  5
10E
 10
0.0
 20
0.0
 30
0.0
 70
   128
 71
    -3
 72
    10
 73
    -4
  0
VERTEX
  8
0
 62
     7
  5
10F
 10
0.0
 20
0.0
 30
0.0
 70
   128
 71
     3
 72
    11
 73
   -10
  0
VERTEX
  8
0
 62
     7
  5
110
 10
0.0
 20
0.0
 30
0.0
 70
   128
 71
     6
 72
    12
 73
    -7
  0
SEQEND
  8
0
 62
     7
  5
111
  0
POLYLINE
  8
0
 62
     7
  5
112
 66
     1
 10
0.0
 20
0.0
 30
0.0
 70
    64
  0
VERTEX
  8
0
  5
113
 10
3.0
 20
1.0
 30
0.0
 70
   192
  0
VERTEX
  8
0
  5
114
 10
3.0
 20
4.0
 30
0.0
 70
   192
  0
VERTEX
  8
0
  5
115
 10
3.0
 20
1.0
 30
2.0
 70
   192
  0
VERTEX
  8
0
  5
116
 10
3.0
 20
4.0
 30
2.0
 70
   192
  0
VERTEX
  8
0
 62
     7
  5
117
 10
0.0
 20
0.0
 30
0.0
 70
   128
 71
     1
 72
    -3
 73
     2
  0
VERTEX
  8
0
 62
     7
  5
118
 10
0.0
 20
0.0
 30
0.0
 70
   128
 71
    -2
 72
     3
 73
     4
  0
SEQEND
  8
0
 62
     7
  5
119
  0
POLYLINE
  8
0
 62
     7
  5
11A
 66
     1
 10
0.0
 20
0.0
 30
0.0
 70
    64
  0
VERTEX
  8
0
  5
11B
 10
1.0
 20
3.0
 30
2.0
 70
   192
  0
VERTEX
  8
0
  5
11C
 10
1.0
 20
4.0
 30
0.0
 70
   192
  0
VERTEX
  8
0
  5
11D
 10
1.0
 20
3.0
 30
0.0
 70
   192
  0
VERTEX
  8
0
  5
11E
 10
1.0
 20
4.0
 30
2.0
 70
   192
  0
VERTEX
  8
0
  5
11F
 10
1.0
 20
2.0
 30
2.0
 70
   192
  0
VERTEX
  8
0
  5
120
 10
1.0
 20
2.0
 30
0.0
 70
   192
  0
VERTEX
  8
0
  5
121
 10
1.0
 20
1.0
 30
0.0
 70
   192
  0
VERTEX
  8
0
  5
122
 10
1.0
 20
1.0
 30
2.0
 70
   192
  0
VERTEX
  8
0
 62
     7
  5
123
 10
0.0
 20
0.0
 30
0.0
 70
   128
 71
     1
 72
     3
 73
    -2
  0
VERTEX
  8
0
 62
     7
  5
124
 10
0.0
 20
0.0
 30
0.0
 70
   128
 71
    -1
 72
     2
 73
     4
  0
VERTEX
  8
0
 62
     7
  5
125
 10
0.0
 20
0.0
 30
0.0
 70
   128
 71
    -5
 72
     7
 73
     6
  0
VERTEX
  8
0
 62
     7
  5
126
 10
0.0
 20
0.0
 30
0.0
 70
   128
 71
    -7
 72
     5
 73
     8
  0
SEQEND
  8
0
 62
     7
  5
127
  0
POLYLINE
  8
0
 62
     7
  5
128
 66
     1
 10
0.0
 20
0.0
 30
0.0
 70
    64
  0
VERTEX
  8
0
  5
129
 10
1.0
 20
1.0
 30
2.0
 70
   192
  0
VERTEX
  8
0
  5
12A
 10
1.0
 20
1.0
 30
0.0
 70
   192
  0
VERTEX
  8
0
  5
12B
 10
3.0
 20
1.0
 30
0.0
 70
   192
  0
VERTEX
  8
0
  5
12C
 10
3.0
 20
1.0
 30
2.0
 70
   192
  0
VERTEX
  8
0
 62
     7
  5
12D
 10
0.0
 20
0.0
 30
0.0
 70
   128
 71
    -1
 72
     3
 73
     2
  0
VERTEX
  8
0
 62
     7
  5
12E
 10
0.0
 20
0.0
 30
0.0
 70
   128
 71
    -3
 72
     1
 73
     4
  0
SEQEND
  8
0
 62
     7
  5
12F
  0
POLYLINE
  8
0
 62
     7
  5
130
 66
     1
 10
0.0
 20
0.0
 30
0.0
 70
    64
  0
VERTEX
  8
0
  5
131
 10
2.0
 20
3.0
 30
2.0
 70
   192
  0
VERTEX
  8
0
  5
132
 10
2.0
 20
2.0
 30
2.0
 70
   192
  0
VERTEX
  8
0
  5
133
 10
2.0
 20
3.0
 30
0.0
 70
   192
  0
VERTEX
  8
0
  5
134
 10
2.0
 20
2.0
 30
0.0
 70
   192
  0
VERTEX
  8
0
 62
     7
  5
135
 10
0.0
 20
0.0
 30
0.0
 70
   128
 71
     1
 72
    -2
 73
     3
  0
VERTEX
  8
0
 62
     7
  5
136
 10
0.0
 20
0.0
 30
0.0
 70
   128
 71
     2
 72
     4
 73
    -3
  0
SEQEND
  8
0
 62
     7
  5
137
  0
POLYLINE
  8
0
 62
     7
  5
138
 66
     1
 10
0.0
 20
0.0
 30
0.0
 70
    64
  0
VERTEX
  8
0
  5
139
 10
2.0
 20
3.0
 30
2.0
 70
   192
  0
VERTEX
  8
0
  5
13A
 10
1.0
 20
3.0
 30
0.0
 70
   192
  0
VERTEX
  8
0
  5
13B
 10
1.0
 20
3.0
 30
2.0
 70
   192
  0
VERTEX
  8
0
  5
13C
 10
2.0
 20
3.0
 30
0.0
 70
   192
  0
VERTEX
  8
0
 62
     7
  5
13D
 10
0.0
 20
0.0
 30
0.0
 70
   128
 71
    -1
 72
     2
 73
     3
  0
VERTEX
  8
0
 62
     7
  5
13E
 10
0.0
 20
0.0
 30
0.0
 70
   128
 71
     1
 72
     4
 73
    -2
  0
SEQEND
  8
0
 62
     7
  5
13F
  0
POLYLINE
  8
0
 62
     7
  5
140
 66
     1
 10
0.0
 20
0.0
 30
0.0
 70
    64
  0
VERTEX
  8
0
  5
141
 10
1.0
 20
2.0
 30
0.0
 70
   192
  0
VERTEX
  8
0
  5
142
 10
2.0
 20
2.0
 30
0.0
 70
   192
  0
VERTEX
  8
0
  5
143
 10
2.0
 20
2.0
 30
2.0
 70
   192
  0
VERTEX
  8
0
  5
144
 10
1.0
 20
2.0
 30
2.0
 70
   192
  0
VERTEX
  8
0
 62
     7
  5
145
 10
0.0
 20
0.0
 30
0.0
 70
   128
 71
     1
 72
     2
 73
    -3
  0
VERTEX
  8
0
 62
     7
  5
146
 10
0.0
 20
0.0
 30
0.0
 70
   128
 71
     3
 72
     4
 73
    -1
  0
SEQEND
  8
0
 62
     7
  5
147
  0
ENDBLK
  8
0
  5
148
  0
BLOCK
  8
0
  5
14A
  2
AME_MAT
 70
    64
 10
0.0
 20
0.0
 30
0.0
  1
AME_MAT
  3
AME_MAT
  0
ENDBLK
  8
0
  5
14B
  0
ENDSEC
  0
SECTION
  2
ENTITIES
  0
INSERT
  8
AME_FRZ
  5
3
  2
AME_NIL
 10
0.0
 20
0.0
 30
0.0
  0
INSERT
  8
AME_FRZ
  5
6
  2
AME_SOL
 10
0.0
 20
0.0
 30
0.0
1001
AME_SOL
1000
1.0
1000
sq cm
1070
     3
1070
     0
1070
     3
1000
wire
1040
0.0
1000
NONE
1040
1.0
1000
cm
1000
gm
1000
MILD_STEEL
1070
    25
1000
CSG
1070
     3
1070
     2
1070
     3
1000
cu cm
1070
     4
1070
     0
1005
3
  0
INSERT
  8
AME_FRZ
 62
     7
  5
4D
  2
*U4
 10
0.0
 20
0.0
 30
0.0
1001
AME_SOL
1002
{
1070
     0
1071
  1858912
1070
  1536
1010
4.0
1020
4.0
1030
2.0
1005
0
1005
0
1005
7D
1040
0.0
1040
1.0
1000
MILD_STEEL
1000
0
1010
0.0
1020
0.0
1030
0.0
1010
0.0
1020
0.0
1030
1.0
1040
0.0
1002
}
  0
INSERT
  8
AME_FRZ
  5
5F
  2
*U5
 10
1.0
 20
1.0
 30
0.0
1001
AME_SOL
1002
{
1070
     0
1071
  1860304
1070
  1536
1010
2.0
1020
3.0
1030
2.0
1005
0
1005
0
1005
7D
1040
0.0
1040
1.0
1000
MILD_STEEL
1000
0
1010
1.0
1020
1.0
1030
0.0
1010
0.0
1020
0.0
1030
1.0
1040
0.0
1002
}
  0
INSERT
  8
AME_FRZ
  5
7D
  2
*U6
 10
0.0
 20
0.0
 30
0.0
1001
AME_SOL
1002
{
1070
     0
1071
  1938624
1070
  1543
1070
     0
1005
4D
1005
5F
1005
0
1005
0
1005
B8
1040
0.0
1040
1.0
1000
MILD_STEEL
1000
0
1010
0.0
1020
0.0
1030
0.0
1010
0.0
1020
0.0
1030
1.0
1040
0.0
1002
}
  0
INSERT
  8
AME_FRZ
  5
8E
  2
*U7
 10
1.0
 20
2.0
 30
0.0
1001
AME_SOL
1002
{
1070
     0
1071
  1930528
1070
  1536
1010
1.0
1020
1.0
1030
2.0
1005
0
1005
0
1005
B8
1040
0.0
1040
1.0
1000
MILD_STEEL
1000
0
1010
1.0
1020
2.0
1030
0.0
1010
0.0
1020
0.0
1030
1.0
1040
0.0
1002
}
  0
INSERT
  8
0
  5
B8
  2
*U9
 10
0.0
 20
0.0
 30
0.0
1001
AME_SOL
1002
{
1070
     0
1071
  1957208
1070
  9223
1070
     2
1005
7D
1005
8E
1005
149
1005
B9
1005
0
1040
70.0
1040
1.0
1000
MILD_STEEL
1000
0
1002
}
  0
INSERT
  8
AME_FRZ
  5
B9
  2
AME_NIL
 10
1.0
 20
1.0
 30
1.0
1001
AME_SOL
1004
E903A9FB0100F0FFFFFF000052F70C0001000000000040BA000040BA000040BA0006804000068040000C004001000000FBF2040000E07F3F00F0FF3F000000BA0008004000080040000800400100844EB8171E00010000000100CD000000844E00000000803F000000000000000000000000000000000000
1004
803F0000803F000000400000000005000000000000000000000000000000000000000000844E00000000803F000000000000000000000000000000000000803F0000803F000000400000000005000000000000000000000000000000000001000000FBF2040000E07F3F00F83F40000000BA000800400008
1004
4040000800400100844E701B1E00010000000100CA000000844E00000000008000000080000080BF000080BF000000800000008000000040000040400000004005000000000000000000000000000000000000000000844E00000000008000000080000080BF000080BF0000008000000080000000400000
1004
40400000004005000000000000000000000000000000000001000000FBF2040000F0FF3F00F0FF3F000000BA0008004000084040000800400100844E601C1E00010000000100C9000000844E000000000080000080BF000000800000008000000080000080BF000000400000404000000040050000000000
1004
00000000000000000000000000000000844E000000000080000080BF000000800000008000000080000080BF00000040000040400000004005000000000000000000000000000000000001000000FBF2040004DF7F3F04DF7F3F7BF003BA3F0840407E10803F3F0800400100844E10831E00FFFF00000100
1004
95010000844E00000000803F000000000000000000000000000000000000803F0000803F0000803F0000000005000000000000000000000000000000000000000000844E00000000803F000000000000000000000000000000000000803F0000803F0000803F000000000500000000000000000000000000
1004
00000000FFFFFFFFFBF2080004DF7F3F04DF7F3F7BF003BA7E10803F200480403F0800400100844E00841E00FFFF0000010094010000844E000000000000000000000000803F000000000000803F000000000000803F0000803F0000000005000000000000000000000000000000000000000000844E0000
1004
00000000000000000000803F000000000000803F000000000000803F0000803F00000000050000000000000000000000000000000000FFFFFFFFFBF20400C1F73F4004DF7F3F7BF003BA3F084040200480403F0800400100844EF0841E00FFFF0000010091010000844E000000000080000080BF00000080
1004
0000008000000080000080BF00004040000080400000004005000000000000000000000000000000000000000000844E000000000080000080BF000000800000008000000080000080BF000040400000804000000040050000000000000000000000000000000000FFFFFFFFFBF20C0000E07F3F00F0FF3F
1004
000000BA00080040000840400000003A0100844EF0851E00010000000200CE000000844E0000000000000000803F000000000000803F00000000000000000000803F000000400000000005000000000000000000000000000000000000000000FA010000844E0000000000000000803F000000000000803F
1004
000000000000000000000000000000000000000005000000000000000000000000000000000000000000844E0000000000000000803F000000000000803F000000000000000000000000000000000000000005000000000000000000000000000000000001000000FBF20400000040BA000040BA000040BA
1004
000680400000403A000C00400100844EE0861E00010000000100F9010000844E00000000803F000000000000000000000000000000000000803F00000000000000000000000005000000000000000000000000000000000000000000844E00000000803F000000000000000000000000000000000000803F
1004
00000000000000000000000005000000000000000000000000000000000001000000FBF20400000040BA000040BA000040BA0000403A00068040000C00400100844E50A81E00010000000100F8010000844E000000000000000000000000803F000000000000803F00000000000000000000000000000000
1004
05000000000000000000000000000000000000000000844E000000000000000000000000803F000000000000803F0000000000000000000000000000000005000000000000000000000000000000000001000000FBF20C0000E07F3F00F0FF3F00F0FF3F0008004000084040000800400100844E40A91E00
1004
010000000200CB000000844E0000000080BF000000800000008000000080000080BF0000008000000040000040400000004005000000000000000000000000000000000000000000F7010000844E0000000080BF000000800000008000000080000080BF0000008000008040000080400000004005000000
1004
000000000000000000000000000000000000844E0000000080BF000000800000008000000080000080BF0000008000008040000080400000004005000000000000000000000000000000000001000000FBF20800000040BA00F47F40000040BA0006804000068040000C00400100844E30AA1E0001000000
1004
0100F6010000844E00000000008000000080000080BF000080BF000000800000008000008040000080400000004005000000000000000000000000000000000000000000844E00000000008000000080000080BF000080BF0000008000000080000080400000804000000040050000000000000000000000
1004
00000000000001000000FBF2040000F47F40000040BA000040BA0006804000068040000C00400100844E20AB1E00010000000100F5010000844E000000000080000080BF000000800000008000000080000080BF00008040000080400000004005000000000000000000000000000000000000000000844E
1004
000000000080000080BF000000800000008000000080000080BF00008040000080400000004005000000000000000000000000000000000001000000A4EE00E07F3F00F0FF3F00E8FF3F0008004000080040000800400000C0BF000000BF0200967578AB1E000000FFFF0100B8171E0040A91E0000000200
1004
B8171E0040A91E0001000000010000009675000000000000000000000000803F00000000000080BF0000000000002040000000400000004002000000C0BF000000BFA4EE00F0FF3F00F0FF3F000000BA000800400008004000080040000080BF0000803F0200967568AC1E000000FFFF0100B8171E00601C
1004
1E0000000200B8171E00601C1E000100000001000000967500000000803F000000000000000000000000000080BF0000000000000040000000400000803F0200000080BF0000803FA4EE00E07F3F00F0FF3F000000BA7E10803F000800400008004000000000000000400200967558AD1E000000FFFF0100
1004
B8171E0000841E0000000200B8171E0000841E0001000000FFFFFFFF96750000000080BF000000000000000000000000000080BF000000000000803F000000400000000002000000000000000040A4EE00E07F3F00F0FF3F000000BA00080040000800400000403A0000C0BF000000BF02009675580D1E00
1004
0000FFFF0100B8171E00F0851E0000000200B8171E00F0851E000100000001000000967500000000000000000000000080BF00000000000080BF000000000000003F000000400000000002000000C0BF000000BFA4EE00E07F3F00F83F4000E8FF3F0008004000084040000800400000803F000000400200
1004
9675480E1E000000FFFF0100701B1E0040A91E0000000200701B1E0040A91E0001000000010000009675000000000000000000000000803F000000000000803F0000008000004040000040400000004002000000803F00000040A4EE00F0FF3F00F83F40000000BA000800400008404000080040000000C0
1004
0000008002009675380F1E000000FFFF0100701B1E00601C1E0000000200701B1E00601C1E000100000001000000967500000000803F0000000000000000000000000000803F000000000000004000004040000000400200000000C000000080A4EE00E07F3F00F83F40000000BA7E10803F000840400008
1004
0040000080BF0000803F0200967528101E000000FFFF0100701B1E0000841E0000000200701B1E0000841E0001000000FFFFFFFF96750000000080BF0000000000000000000000000000803F000000000000803F000040400000803F0200000080BF0000803FA4EE00E07F3F00F83F40000000BA00080040
1004
000840400000403A000000000000803F0200967518111E000000FFFF0100701B1E00F0851E0000000200701B1E00F0851E000100000001000000967500000000000000000000000080BF000000000000803F000000000000803F00004040000000000200000000000000803FA4EE00F0FF3F00F0FF3F00E8
1004
FF3F0008004000084040000800400000C0BF000000BF0200967508121E000000FFFF0100601C1E0040A91E0000000200601C1E0040A91E0001000000010000009675000000000000000000000000803F0000803F000000000000000000000040000060400000004002000000C0BF000000BFA4EE00F0FF3F
1004
00F0FF3F000000BA00080040000840400000403A0000C0BF000000BF02009675F8121E000000FFFF0100601C1E00F0851E0000000200601C1E00F0851E000100000001000000967500000000000000000000000080BF0000803F0000000000000000000000400000C03F0000000002000000C0BF000000BF
1004
A4EE04DF7F3F04DF7F3F00E8FF3F3F0840407E10803F3F0800400000C0BF0000003F02009675E8131E0000000100FFFF10831E0040A91E000000020040A91E0010831E0001000000FFFFFFFF9675000000000000000000000000803F00000000000080BF00000000000020400000803F0000004002000000
1004
C0BF0000003FA4EEC1F73F4004DF7F3F7BF003BA3F0840407E10803F3F080040000080BF0000803F0200967588141E0000000100FFFF10831E00F0841E0000000200F0841E0010831E00FFFFFFFFFFFFFFFF967500000000803F000000000000000000000000000080BF00000000000040400000803F0000
1004
803F0200000080BF0000803FA4EE04DF7F3F04DF7F3F7BF003BA7E10803F7E10803F3F08004000000000000000400200967580451D0000000100FFFF10831E0000841E000000020000841E0010831E00FFFFFFFFFFFFFFFF96750000000080BF000000000000000000000000000080BF000000000000803F
1004
0000803F0000000002000000000000000040A4EE04DF7F3F04DF7F3F7BF003BA3F0840407E10803F0000403A000020C0000000BF02009675E85F1D0000000100FFFF10831E00F0851E0000000200F0851E0010831E0001000000FFFFFFFF967500000000000000000000000080BF00000000000080BF0000
1004
00000000003F0000803F000000000200000020C0000000BFA4EE04DF7F3F04DF7F3F00E8FF3F7E10803F200480403F0800400000C0BF000000BF0200967598611D0000000100FFFF00841E0040A91E000000020040A91E0000841E0001000000FFFFFFFF9675000000000000000000000000803F000080BF
1004
00000000000000000000803F000020400000004002000000C0BF000000BFA4EE04DF7F3F04DF7F3F00E8FF3F7E10803F200480403F0800400000003F0000C03F02009675804B1D0000000100FFFF00841E0040A91E000000020040A91E0000841E0001000000FFFFFFFF9675000000000000000000000000
1004
803F000080BF00000000000000000000803F000020400000004002000000003F0000C03FA4EE04DF7F3F00F47F407BF003BA7E10803F200480403F080040000080BF0000803F02009675104E1D0000000100FFFF00841E0030AA1E000000020030AA1E0000841E0001000000FFFFFFFF9675000000000000
1004
0000803F00000000000080BF00000000000000000000803F000080400000803F0200000080BF0000803FA4EE04DF7F3F04DF7F3F7BF003BA7E10803F200480400000403A0000003F0000C03F0200967558441D0000000100FFFF00841E00F0851E0000000200F0851E0000841E0001000000FFFFFFFF9675
1004
00000000000000000000000080BF000080BF00000000000000000000803F0000003F0000000002000000003F0000C03FA4EE04DF7F3F04DF7F3F7BF003BA7E10803F200480400000403A00002040000060400200967590511D0000000100FFFF00841E00F0851E0000000200F0851E0000841E0001000000
1004
FFFFFFFF967500000000000000000000000080BF000080BF00000000000000000000803F0000003F0000000002000000204000006040A4EEC1F73F4004DF7F3F00E8FF3F3F084040200480403F080040000040C0000000800200967528591D0000000100FFFFF0841E0040A91E000000020040A91E00F084
1004
1E0001000000FFFFFFFF9675000000000000000000000000803F0000803F00000000000000000000404000008040000000400200000040C000000080A4EEC1F73F4000F47F407BF003BA3F084040200480403F08004000000000000000400200967560551D0000000100FFFFF0841E0030AA1E0000000200
1004
30AA1E00F0841E0001000000FFFFFFFF96750000000000000000803F000000000000803F000000000000000000004040000080400000004002000000000000000040A4EEC1F73F4004DF7F3F7BF003BA3F084040200480400000403A000000C00000803F02009675B0531D0000000100FFFFF0841E00F085
1004
1E0000000200F0851E00F0841E0001000000FFFFFFFF967500000000000000000000000080BF0000803F00000000000000000000404000000040000000000200000000C00000803FA4EE000040BA00F47F40000040BA00068040000680400000403A000000C0000080BF0200967578001E000000FFFF0100
1004
F0851E0030AA1E0000000200F0851E0030AA1E00010000000100000096750000000000000000803F000000000000000000000000000080BF0000004000008040000000000200000000C0000080BFA4EE000040BA00F47F40000040BA00068040000680400000403A0000803F0000004002009675E0FD1D00
1004
0000FFFF0100F0851E0030AA1E0000000200F0851E0030AA1E00010000000100000096750000000000000000803F000000000000000000000000000080BF00000040000080400000000002000000803F00000040A4EE00F47F40000040BA000040BA00068040000680400000403A000000C0000000400200
1004
9675886E1D000000FFFF0100F0851E0020AB1E0000000200F0851E0020AB1E000100000001000000967500000000803F00000000000000000000000000000000000080BF0000804000000040000000000200000000C000000040A4EE000040BA000040BA000040BA0000403A000680400000403A000080C0
1004
0000008002009675386B1D000000FFFF0100F0851E0050A81E0000000200F0851E0050A81E00010000000100000096750000000080BF00000000000000000000000000000000000080BF0000000000000000000000000200000080C000000080A4EE000040BA000040BA000040BA000680400000403A0000
1004
403A00000000000080400200967540811D000000FFFF0100F0851E00E0861E0000000200F0851E00E0861E0001000000010000009675000000000000000080BF000000000000000000000000000080BF00000000000000000000000002000000000000008040A4EE000040BA000040BA00E8FF3F00068040
1004
0000403A000C0040000000C00000004002009675908A1D000000FFFF0100E0861E0040A91E0000000200E0861E0040A91E0001000000010000009675000000000000000000000000803F00000000000080BF000000000000004000000000000000400200000000C000000040A4EE00F47F40000040BA0000
1004
40BA000680400000403A000C0040000080BF0000803F02009675D88C1D000000FFFF0100E0861E0020AB1E0000000200E0861E0020AB1E000100000001000000967500000000803F000000000000000000000000000080BF0000000000008040000000000000803F0200000080BF0000803FA4EE000040BA
1004
000040BA000040BA0000403A0000403A000C0040000000000000004002009675208D1D000000FFFF0100E0861E0050A81E0000000200E0861E0050A81E00010000000100000096750000000080BF000000000000000000000000000080BF0000000000000000000000000000000002000000000000000040
1004
A4EE000040BA000040BA00E8FF3F0000403A00068040000C0040000000C00000004002009675D88A1D000000FFFF010050A81E0040A91E000000020050A81E0040A91E0001000000010000009675000000000000000000000000803F000080BF000000000000000000000000000000400000004002000000
1004
00C000000040A4EE000040BA00F47F40000040BA0000403A00068040000C0040000080BF0000803F02009675507D1D000000FFFF010050A81E0030AA1E000000020050A81E0030AA1E00010000000100000096750000000000000000803F00000000000080BF000000000000000000000000000080400000
1004
803F0200000080BF0000803FA4EE000040BA00F47F4000E8FF3F0006804000068040000C0040000080C0000040C00200967578CA1D000000FFFF010040A91E0030AA1E000000020040A91E0030AA1E00010000000100000096750000000000000000803F0000000000000000000000000000803F00008040
1004
00008040000000400200000080C0000040C0A4EE000040BA00F47F4000E8FF3F0006804000068040000C0040000080BF000000800200967568D01D000000FFFF010040A91E0030AA1E000000020040A91E0030AA1E00010000000100000096750000000000000000803F0000000000000000000000000000
1004
803F0000804000008040000000400200000080BF00000080A4EE00F47F40000040BA00E8FF3F0006804000068040000C004000000000000080400200967570741D000000FFFF010040A91E0020AB1E000000020040A91E0020AB1E000100000001000000967500000000803F000000000000000000000080
1004
000000000000803F00008040000080400000004002000000000000008040A4EE00F47F4000F47F40000040BA0006804000068040000C0040000000C0000000800200967598711D000000FFFF010030AA1E0020AB1E000000020030AA1E0020AB1E000100000001000000967500000000803F000000000000
1004
0000000000000000803F000000000000804000008040000000400200000000C00000008019FC
1005
BA
  0
INSERT
  8
AME_FRZ
  5
BA
  2
AME_NIL
 10
1.0
 20
1.0
 30
1.0
1001
AME_SOL
1004

1005
0
  0
INSERT
  8
AME_FRZ
  5
149
  2
*U8
 10
0.0
 20
0.0
 30
0.0
  0
INSERT
  8
AME_FRZ
  5
14D
  2
AME_MAT
 10
0.0
 20
0.0
 30
0.0
1001
AME_SOL
1000
MILD_STEEL
1040
7860.0
1040
220.0
1040
0.275
1040
207.0
1040
345.0
1040
56.0
1040
12.0
1040
0.46
  0
ENDSEC
  0
EOF
