700 0 2 0           
24 FBMach with ACIS - 7.0.3 13 ACIS 7.0.3 NT 24 Tue May 14 10:16:52 2002 
1 9.9999999999999995e-007 1e-010 
body $2 -1 $-1 $3 $-1 $4 #
bdycol-kcp $-1 -1 1 2 $5 $6 #
model_id-kcp-attrib $-1 -1 $-1 $-1 $0 1 1021385811 1021385811 1840447489 1 #
lump $-1 -1 $-1 $-1 $7 $0 #
transform $-1 -1 1 0 0 0 1 0 0 0 1 0 0 0 1 rotate no_reflect no_shear #
body $8 -1 $-1 $9 $-1 $10 #
body $11 -1 $-1 $12 $-1 $13 #
shell $-1 -1 $-1 $-1 $-1 $14 $-1 $3 #
rgb_color-st-attrib $-1 -1 $15 $-1 $5 0.5 1 1 #
lump $-1 -1 $-1 $16 $17 $5 #
transform $-1 -1 1 0 0 0 1 0 0 0 1 2 0.625 1 1 no_rotate no_reflect no_shear #
model_id-kcp-attrib $-1 -1 $-1 $-1 $6 1 1021385811 1021385811 1840447490 1 #
lump $-1 -1 $-1 $-1 $18 $6 #
transform $-1 -1 1 0 0 0 1 0 0 0 1 2 0.625 1 1 no_rotate no_reflect no_shear #
face $19 -1 $-1 $20 $21 $7 $-1 $22 reversed single #
model_id-kcp-attrib $-1 -1 $-1 $8 $5 1 1021385811 1021385811 1832845315 1 #
lump $-1 -1 $-1 $-1 $23 $5 #
shell $-1 -1 $-1 $-1 $-1 $24 $-1 $9 #
shell $-1 -1 $-1 $-1 $-1 $25 $-1 $12 #
model_id-kcp-attrib $-1 -1 $26 $-1 $14 1 1021385811 1021385811 1840447489 2 #
face $27 -1 $-1 $28 $29 $7 $-1 $30 forward single #
loop $31 -1 $-1 $-1 $32 $14 #
plane-surface $33 -1 $-1 0 0 0 0 0 1 1 0 0 forward_v I I I I #
shell $-1 -1 $-1 $-1 $-1 $34 $-1 $16 #
face $-1 -1 $-1 $35 $36 $17 $-1 $37 reversed single #
face $38 -1 $-1 $39 $40 $18 $-1 $41 forward single #
face_name-twe-attrib $-1 -1 $-1 $19 $14 1 #
model_id-kcp-attrib $-1 -1 $42 $-1 $20 1 1021385811 1021385811 1840447489 3 #
face $43 -1 $-1 $44 $45 $7 $-1 $46 forward single #
loop $47 -1 $-1 $-1 $48 $20 #
plane-surface $49 -1 $-1 0 0 2 0 0 1 1 0 0 forward_v I I I I #
loop_type-twe-attrib $-1 -1 $-1 $-1 $21 0 #
coedge $-1 -1 $-1 $50 $51 $52 $53 forward $21 $-1 #
surf-twe-attrib $-1 -1 $-1 $-1 $22 4 #
face $-1 -1 $-1 $54 $55 $23 $-1 $56 reversed single #
face $-1 -1 $-1 $57 $58 $17 $-1 $59 reversed single #
loop $-1 -1 $-1 $-1 $60 $24 #
cone-surface $-1 -1 $-1 0.09375 -0.59375 -1 0 0 -1 0 -0.03125 0 1 I I 0 -1 0.03125 forward I I I I #
model_id-kcp-attrib $-1 -1 $-1 $-1 $25 1 1021385811 1021385811 1840447490 3 #
face $61 -1 $-1 $62 $63 $18 $-1 $64 reversed single #
loop $-1 -1 $-1 $-1 $65 $25 #
plane-surface $-1 -1 $-1 0 0 1 0 0 1 1 0 0 forward_v I I I I #
face_name-twe-attrib $-1 -1 $-1 $27 $20 2 #
model_id-kcp-attrib $-1 -1 $66 $-1 $28 1 1021385811 1021385811 1840447489 4 #
face $67 -1 $-1 $68 $69 $7 $-1 $70 forward single #
loop $71 -1 $-1 $-1 $52 $28 #
plane-surface $72 -1 $-1 0 0 0 -1 0 0 0 0 1 forward_v I I I I #
loop_type-twe-attrib $-1 -1 $-1 $-1 $29 0 #
coedge $-1 -1 $-1 $73 $74 $75 $76 reversed $29 $-1 #
surf-twe-attrib $-1 -1 $-1 $-1 $30 6 #
coedge $-1 -1 $-1 $77 $32 $78 $79 forward $21 $-1 #
coedge $-1 -1 $-1 $32 $80 $81 $82 forward $21 $-1 #
coedge $-1 -1 $-1 $83 $84 $32 $53 reversed $45 $-1 #
edge $85 -1 $-1 $86 -0.875 $87 0 $52 $88 forward @7 unknown #
face $-1 -1 $-1 $89 $90 $23 $-1 $91 reversed single #
loop $-1 -1 $-1 $-1 $92 $34 #
plane-surface $-1 -1 $-1 0 0 -1 0 0 1 1 0 0 forward_v I I I I #
face $-1 -1 $-1 $93 $94 $17 $-1 $95 reversed single #
loop $-1 -1 $-1 $-1 $96 $35 #
plane-surface $-1 -1 $-1 0.125 1.5 -1 -1 0 0 0 0 -1 forward_v I I I I #
coedge $-1 -1 $-1 $97 $98 $99 $100 reversed $36 $-1 #
model_id-kcp-attrib $-1 -1 $-1 $-1 $39 1 1021385811 1021385811 1840447490 2 #
face $101 -1 $-1 $102 $103 $18 $-1 $104 reversed single #
loop $-1 -1 $-1 $-1 $105 $39 #
plane-surface $-1 -1 $-1 0 0 -1 0 0 1 1 0 0 forward_v I I I I #
coedge $-1 -1 $-1 $106 $107 $108 $109 forward $40 $-1 #
face_name-twe-attrib $-1 -1 $-1 $43 $28 3 #
model_id-kcp-attrib $-1 -1 $110 $-1 $44 1 1021385811 1021385811 1840447489 5 #
face $111 -1 $-1 $112 $113 $7 $-1 $114 forward single #
loop $115 -1 $-1 $-1 $81 $44 #
plane-surface $116 -1 $-1 0 -0.875 0 0 -1 0 0 0 -1 forward_v I I I I #
loop_type-twe-attrib $-1 -1 $-1 $-1 $45 0 #
surf-twe-attrib $-1 -1 $-1 $-1 $46 10 #
coedge $-1 -1 $-1 $117 $48 $118 $119 reversed $29 $-1 #
coedge $-1 -1 $-1 $48 $120 $121 $122 reversed $29 $-1 #
coedge $-1 -1 $-1 $84 $83 $48 $76 forward $45 $-1 #
edge $123 -1 $-1 $124 -0.875 $125 0 $75 $126 forward @7 unknown #
coedge $-1 -1 $-1 $127 $50 $128 $129 forward $21 $-1 #
coedge $-1 -1 $-1 $130 $131 $50 $79 reversed $132 $-1 #
edge $133 -1 $-1 $87 -2.09375 $134 0 $78 $135 forward @7 unknown #
coedge $-1 -1 $-1 $51 $136 $137 $138 forward $21 $-1 #
coedge $-1 -1 $-1 $139 $140 $51 $82 reversed $69 $-1 #
edge $141 -1 $-1 $142 -4 $86 0 $81 $143 forward @7 unknown #
coedge $-1 -1 $-1 $75 $52 $140 $144 reversed $45 $-1 #
coedge $-1 -1 $-1 $52 $75 $130 $145 forward $45 $-1 #
attrib_edge_convexity-kcp-attrib $-1 -1 $146 $-1 $53 1 #
vertex $-1 -1 $-1 $144 $147 #
vertex $-1 -1 $-1 $145 $148 #
straight-curve $149 -1 $-1 0 0 0 0 1 0 I I #
face $-1 -1 $-1 $150 $151 $23 $-1 $152 forward single #
loop $-1 -1 $-1 $-1 $153 $54 #
plane-surface $-1 -1 $-1 2 0 0 -1 0 0 0 0 1 forward_v I I I I #
coedge $-1 -1 $-1 $154 $155 $156 $157 forward $55 $-1 #
face $-1 -1 $-1 $158 $159 $17 $-1 $160 reversed single #
loop $-1 -1 $-1 $-1 $161 $57 #
plane-surface $-1 -1 $-1 0.09375 -0.625 -1 0 1 0 0 0 -1 forward_v I I I I #
coedge $-1 -1 $-1 $162 $163 $164 $165 reversed $58 $-1 #
coedge $-1 -1 $-1 $166 $60 $167 $168 reversed $36 $-1 #
coedge $-1 -1 $-1 $60 $166 $162 $169 forward $36 $-1 #
coedge $-1 -1 $-1 $164 $170 $60 $100 forward $171 $-1 #
edge $-1 -1 $-1 $172 0 $173 1.5707963267948966 $99 $174 forward @7 unknown #
model_id-kcp-attrib $-1 -1 $-1 $-1 $62 1 1021385811 1021385811 1840447490 5 #
face $175 -1 $-1 $176 $177 $18 $-1 $178 reversed single #
loop $-1 -1 $-1 $-1 $179 $62 #
plane-surface $-1 -1 $-1 0 -1.5 0 0 1 0 0 0 1 forward_v I I I I #
coedge $-1 -1 $-1 $180 $181 $182 $183 forward $63 $-1 #
coedge $-1 -1 $-1 $184 $65 $185 $186 forward $40 $-1 #
coedge $-1 -1 $-1 $65 $184 $187 $188 forward $40 $-1 #
coedge $-1 -1 $-1 $189 $190 $65 $109 reversed $191 $-1 #
edge $-1 -1 $-1 $192 -1.5 $193 1.5 $108 $194 forward @7 unknown #
face_name-twe-attrib $-1 -1 $-1 $67 $44 4 #
model_id-kcp-attrib $-1 -1 $195 $-1 $68 1 1021385811 1021385811 1840447489 6 #
face $196 -1 $-1 $197 $198 $7 $-1 $199 forward single #
loop $200 -1 $-1 $-1 $137 $68 #
plane-surface $201 -1 $-1 4 -0.875 0 1 0 0 0 0 -1 forward_v I I I I #
loop_type-twe-attrib $-1 -1 $-1 $-1 $69 0 #
surf-twe-attrib $-1 -1 $-1 $-1 $70 17 #
coedge $-1 -1 $-1 $202 $73 $203 $204 reversed $29 $-1 #
coedge $-1 -1 $-1 $140 $139 $73 $119 forward $69 $-1 #
edge $205 -1 $-1 $206 -4 $124 0 $118 $207 forward @7 unknown #
coedge $-1 -1 $-1 $74 $208 $209 $210 reversed $29 $-1 #
coedge $-1 -1 $-1 $131 $130 $74 $122 forward $132 $-1 #
edge $211 -1 $-1 $125 -2.09375 $212 0 $121 $213 forward @7 unknown #
model_id-kcp-attrib $-1 -1 $214 $-1 $76 1 1021385811 1021385811 1840447489 17 #
vertex $-1 -1 $-1 $144 $215 #
vertex $-1 -1 $-1 $145 $216 #
straight-curve $217 -1 $-1 0 0 2 0 1 0 I I #
coedge $-1 -1 $-1 $218 $77 $219 $220 forward $21 $-1 #
coedge $-1 -1 $-1 $221 $222 $77 $129 reversed $223 $-1 #
edge $224 -1 $-1 $134 -1.5707963267948966 $225 0 $128 $226 forward @7 unknown #
coedge $-1 -1 $-1 $121 $78 $84 $145 reversed $132 $-1 #
coedge $-1 -1 $-1 $78 $121 $221 $227 forward $132 $-1 #
loop $228 -1 $-1 $-1 $78 $229 #
attrib_edge_convexity-kcp-attrib $-1 -1 $230 $-1 $79 1 #
vertex $-1 -1 $-1 $227 $231 #
straight-curve $232 -1 $-1 2.09375 0 0 1 0 0 I I #
coedge $-1 -1 $-1 $80 $233 $234 $235 forward $21 $-1 #
coedge $-1 -1 $-1 $236 $237 $80 $138 reversed $113 $-1 #
edge $238 -1 $-1 $239 -0.875 $142 0 $137 $240 forward @7 unknown #
coedge $-1 -1 $-1 $118 $81 $237 $241 reversed $69 $-1 #
coedge $-1 -1 $-1 $81 $118 $83 $144 forward $69 $-1 #
attrib_edge_convexity-kcp-attrib $-1 -1 $242 $-1 $82 1 #
vertex $-1 -1 $-1 $241 $243 #
straight-curve $244 -1 $-1 0 -0.875 0 -1 0 0 I I #
edge $245 -1 $-1 $124 -2 $86 0 $140 $246 forward @7 unknown #
edge $247 -1 $-1 $125 -2 $87 0 $130 $248 forward @7 unknown #
convexity-sys-attrib $-1 -1 $249 $85 $53 #
point $-1 -1 $-1 0 -0.875 0 #
point $-1 -1 $-1 0 0 0 #
cur-twe-attrib $-1 -1 $-1 $-1 $88 26 #
face $-1 -1 $-1 $250 $251 $23 $-1 $160 reversed single #
loop $-1 -1 $-1 $-1 $252 $89 #
plane-surface $-1 -1 $-1 0 0 1 0 0 1 1 0 0 forward_v I I I I #
coedge $-1 -1 $-1 $253 $254 $255 $256 forward $90 $-1 #
coedge $-1 -1 $-1 $257 $92 $258 $259 forward $55 $-1 #
coedge $-1 -1 $-1 $92 $260 $261 $262 forward $55 $-1 #
coedge $-1 -1 $-1 $263 $264 $92 $157 reversed $265 $-1 #
edge $-1 -1 $-1 $266 -0.296875 $267 1.796875 $92 $268 forward @7 unknown #
face $-1 -1 $-1 $269 $171 $17 $-1 $152 forward single #
loop $-1 -1 $-1 $-1 $270 $93 #
plane-surface $-1 -1 $-1 0 1.5 0 0 -1 0 0 0 -1 forward_v I I I I #
coedge $-1 -1 $-1 $271 $167 $170 $272 reversed $94 $-1 #
coedge $-1 -1 $-1 $273 $96 $98 $169 reversed $58 $-1 #
coedge $-1 -1 $-1 $96 $273 $270 $274 reversed $58 $-1 #
coedge $-1 -1 $-1 $275 $99 $96 $165 forward $171 $-1 #
edge $-1 -1 $-1 $173 -1.34375 $276 0.75 $164 $277 forward @7 unknown #
coedge $-1 -1 $-1 $98 $97 $278 $279 reversed $36 $-1 #
coedge $-1 -1 $-1 $161 $280 $97 $168 forward $94 $-1 #
edge $-1 -1 $-1 $281 0 $172 2 $97 $282 forward @7 unknown #
edge $-1 -1 $-1 $283 0 $173 2 $162 $284 forward @7 unknown #
coedge $-1 -1 $-1 $99 $285 $161 $272 forward $171 $-1 #
loop $-1 -1 $-1 $-1 $170 $158 #
vertex $-1 -1 $-1 $100 $286 #
vertex $-1 -1 $-1 $165 $287 #
ellipse-curve $-1 -1 $-1 0.09375 -0.59375 1 0 0 1 0 -0.03125 0 1 I I #
model_id-kcp-attrib $-1 -1 $-1 $-1 $102 1 1021385811 1021385811 1840447490 4 #
face $288 -1 $-1 $289 $290 $18 $-1 $291 reversed single #
loop $-1 -1 $-1 $-1 $292 $102 #
plane-surface $-1 -1 $-1 -2 0 0 1 0 0 0 0 -1 forward_v I I I I #
coedge $-1 -1 $-1 $293 $187 $294 $295 forward $103 $-1 #
coedge $-1 -1 $-1 $296 $105 $293 $297 forward $63 $-1 #
coedge $-1 -1 $-1 $105 $296 $298 $299 forward $63 $-1 #
coedge $-1 -1 $-1 $190 $189 $105 $183 reversed $191 $-1 #
edge $-1 -1 $-1 $300 -1.5 $301 1.5 $182 $302 forward @7 unknown #
coedge $-1 -1 $-1 $107 $106 $303 $304 forward $40 $-1 #
coedge $-1 -1 $-1 $305 $306 $106 $186 reversed $290 $-1 #
edge $-1 -1 $-1 $193 -2 $307 2 $185 $308 forward @7 unknown #
coedge $-1 -1 $-1 $179 $309 $107 $188 reversed $103 $-1 #
edge $-1 -1 $-1 $310 -2 $192 2 $187 $311 forward @7 unknown #
coedge $-1 -1 $-1 $182 $108 $309 $312 forward $191 $-1 #
coedge $-1 -1 $-1 $108 $182 $305 $313 reversed $191 $-1 #
loop $-1 -1 $-1 $-1 $189 $289 #
vertex $-1 -1 $-1 $109 $314 #
vertex $-1 -1 $-1 $109 $315 #
straight-curve $-1 -1 $-1 2 0 1 0 1 0 I I #
face_name-twe-attrib $-1 -1 $-1 $111 $68 5 #
model_id-kcp-attrib $-1 -1 $316 $-1 $112 1 1021385811 1021385811 1840447489 7 #
face $317 -1 $-1 $318 $319 $7 $-1 $320 reversed single #
loop $321 -1 $-1 $-1 $234 $112 #
plane-surface $322 -1 $-1 4 0 0 0 1 0 0 0 1 forward_v I I I I #
loop_type-twe-attrib $-1 -1 $-1 $-1 $113 0 #
surf-twe-attrib $-1 -1 $-1 $-1 $114 28 #
coedge $-1 -1 $-1 $323 $117 $324 $325 reversed $29 $-1 #
coedge $-1 -1 $-1 $237 $236 $117 $204 forward $113 $-1 #
edge $326 -1 $-1 $327 -0.875 $206 0 $203 $328 forward @7 unknown #
model_id-kcp-attrib $-1 -1 $329 $-1 $119 1 1021385811 1021385811 1840447489 16 #
vertex $-1 -1 $-1 $241 $330 #
straight-curve $331 -1 $-1 0 -0.875 2 -1 0 0 I I #
coedge $-1 -1 $-1 $120 $332 $333 $334 reversed $29 $-1 #
coedge $-1 -1 $-1 $222 $221 $120 $210 forward $223 $-1 #
edge $335 -1 $-1 $212 -1.5707963267948966 $336 0 $209 $337 forward @7 unknown #
attrib_edge_convexity-kcp-attrib $-1 -1 $338 $-1 $122 1 #
vertex $-1 -1 $-1 $227 $339 #
straight-curve $340 -1 $-1 2.09375 0 2 1 0 0 I I #
attrib_edge_convexity-kcp-attrib $-1 -1 $341 $123 $76 1 #
point $-1 -1 $-1 0 -0.875 2 #
point $-1 -1 $-1 0 0 2 #
cur-twe-attrib $-1 -1 $-1 $-1 $126 36 #
coedge $-1 -1 $-1 $342 $127 $343 $344 forward $21 $-1 #
coedge $-1 -1 $-1 $345 $346 $127 $220 reversed $347 $-1 #
edge $348 -1 $-1 $225 -2.09375 $349 0 $219 $350 forward @7 unknown #
coedge $-1 -1 $-1 $209 $128 $131 $227 reversed $223 $-1 #
coedge $-1 -1 $-1 $128 $209 $345 $351 forward $223 $-1 #
loop $352 -1 $-1 $-1 $128 $353 #
attrib_edge_convexity-kcp-attrib $-1 -1 $354 $-1 $129 1 #
vertex $-1 -1 $-1 $351 $355 #
ellipse-curve $356 -1 $-1 2.09375 0.03125 0 0 0 1 0.03125 0 0 1 I I #
edge $357 -1 $-1 $212 -2 $134 0 $131 $358 forward @7 unknown #
loop_type-twe-attrib $-1 -1 $-1 $-1 $132 0 #
face $359 -1 $-1 $-1 $132 $7 $-1 $360 forward single #
convexity-sys-attrib $-1 -1 $361 $133 $79 #
point $-1 -1 $-1 2.09375 0 0 #
cur-twe-attrib $-1 -1 $362 $-1 $135 39 #
coedge $-1 -1 $-1 $136 $342 $363 $364 forward $21 $-1 #
coedge $-1 -1 $-1 $365 $366 $136 $235 reversed $198 $-1 #
edge $367 -1 $-1 $368 -0.96875 $239 0 $234 $369 forward @7 unknown #
coedge $-1 -1 $-1 $203 $137 $366 $370 reversed $113 $-1 #
coedge $-1 -1 $-1 $137 $203 $139 $241 forward $113 $-1 #
attrib_edge_convexity-kcp-attrib $-1 -1 $371 $-1 $138 1 #
vertex $-1 -1 $-1 $370 $372 #
straight-curve $373 -1 $-1 4 -0.875 0 0 -1 0 I I #
edge $374 -1 $-1 $206 -2 $142 0 $237 $375 forward @7 unknown #
convexity-sys-attrib $-1 -1 $376 $141 $82 #
point $-1 -1 $-1 4 -0.875 0 #
cur-twe-attrib $-1 -1 $-1 $-1 $143 42 #
attrib_edge_convexity-kcp-attrib $-1 -1 $377 $-1 $144 1 #
straight-curve $378 -1 $-1 0 -0.875 0 0 0 -1 I I #
attrib_edge_convexity-kcp-attrib $-1 -1 $379 $-1 $145 1 #
straight-curve $380 -1 $-1 0 0 0 0 0 -1 I I #
edge_name-twe-attrib $-1 -1 $-1 $146 $53 1 8704 #
face $-1 -1 $-1 $381 $265 $23 $-1 $382 reversed single #
loop $-1 -1 $-1 $-1 $383 $150 #
coedge $-1 -1 $-1 $384 $385 $386 $387 forward $151 $-1 #
coedge $-1 -1 $-1 $388 $153 $257 $389 reversed $90 $-1 #
coedge $-1 -1 $-1 $153 $388 $390 $391 reversed $90 $-1 #
coedge $-1 -1 $-1 $392 $393 $153 $256 reversed $394 $-1 #
edge $-1 -1 $-1 $395 -1.5 $396 0.5 $153 $397 forward @7 unknown #
coedge $-1 -1 $-1 $260 $154 $253 $389 forward $55 $-1 #
coedge $-1 -1 $-1 $383 $398 $154 $259 reversed $251 $-1 #
edge $-1 -1 $-1 $267 1 $399 2 $258 $400 forward @7 unknown #
coedge $-1 -1 $-1 $155 $257 $393 $401 forward $55 $-1 #
coedge $-1 -1 $-1 $402 $403 $155 $262 reversed $404 $-1 #
edge $-1 -1 $-1 $405 -1.5707963267948966 $266 0 $155 $406 forward @7 unknown #
coedge $-1 -1 $-1 $386 $156 $403 $407 forward $265 $-1 #
coedge $-1 -1 $-1 $156 $386 $383 $408 reversed $265 $-1 #
loop $-1 -1 $-1 $-1 $386 $250 #
vertex $-1 -1 $-1 $262 $409 #
vertex $-1 -1 $-1 $259 $410 #
straight-curve $-1 -1 $-1 1 -0.296875 -1 0 1 0 I I #
face $-1 -1 $-1 $411 $412 $17 $-1 $56 reversed single #
coedge $-1 -1 $-1 $413 $414 $163 $274 forward $159 $-1 #
coedge $-1 -1 $-1 $280 $161 $415 $416 reversed $94 $-1 #
edge $-1 -1 $-1 $417 -2.046875 $172 0.046875 $170 $418 forward @7 unknown #
coedge $-1 -1 $-1 $163 $162 $419 $420 reversed $58 $-1 #
edge $-1 -1 $-1 $276 -1.5 $421 0.5 $270 $422 forward @7 unknown #
coedge $-1 -1 $-1 $285 $164 $414 $423 forward $171 $-1 #
vertex $-1 -1 $-1 $423 $424 #
straight-curve $-1 -1 $-1 0.125 0.75 1 0 1 0 I I #
coedge $-1 -1 $-1 $425 $419 $166 $279 forward $412 $-1 #
edge $-1 -1 $-1 $283 -1.5707963267948966 $281 0 $278 $426 forward @7 unknown #
coedge $-1 -1 $-1 $167 $271 $425 $427 reversed $94 $-1 #
vertex $-1 -1 $-1 $279 $428 #
straight-curve $-1 -1 $-1 0.09375 -0.625 -1 0 0 1 I I #
vertex $-1 -1 $-1 $420 $429 #
straight-curve $-1 -1 $-1 0.125 -0.59375 -1 0 0 1 I I #
coedge $-1 -1 $-1 $170 $275 $430 $431 forward $171 $-1 #
point $-1 -1 $-1 0.09375 -0.625 1 #
point $-1 -1 $-1 0.125 -0.59375 1 #
model_id-kcp-attrib $-1 -1 $-1 $-1 $176 1 1021385811 1021385811 1840447490 7 #
face $432 -1 $-1 $-1 $191 $18 $-1 $433 reversed single #
loop $-1 -1 $-1 $-1 $305 $176 #
plane-surface $-1 -1 $-1 0 1.5 0 0 -1 0 0 0 -1 forward_v I I I I #
coedge $-1 -1 $-1 $434 $303 $306 $435 forward $177 $-1 #
coedge $-1 -1 $-1 $309 $179 $180 $297 reversed $103 $-1 #
coedge $-1 -1 $-1 $303 $434 $179 $295 reversed $177 $-1 #
edge $-1 -1 $-1 $310 -1 $436 1 $294 $437 forward @7 unknown #
coedge $-1 -1 $-1 $181 $180 $434 $438 forward $63 $-1 #
edge $-1 -1 $-1 $301 -2 $436 2 $293 $439 forward @7 unknown #
coedge $-1 -1 $-1 $306 $305 $181 $299 reversed $290 $-1 #
edge $-1 -1 $-1 $440 -2 $300 2 $298 $441 forward @7 unknown #
vertex $-1 -1 $-1 $183 $442 #
vertex $-1 -1 $-1 $312 $443 #
straight-curve $-1 -1 $-1 2 0 -1 0 -1 0 I I #
coedge $-1 -1 $-1 $292 $294 $184 $304 reversed $177 $-1 #
edge $-1 -1 $-1 $307 -1.5 $310 1.5 $303 $444 forward @7 unknown #
coedge $-1 -1 $-1 $298 $185 $190 $313 forward $290 $-1 #
coedge $-1 -1 $-1 $185 $298 $292 $435 reversed $290 $-1 #
vertex $-1 -1 $-1 $186 $445 #
straight-curve $-1 -1 $-1 0 1.5 1 -1 0 0 I I #
coedge $-1 -1 $-1 $187 $293 $189 $312 reversed $103 $-1 #
vertex $-1 -1 $-1 $304 $446 #
straight-curve $-1 -1 $-1 0 -1.5 1 1 0 0 I I #
edge $-1 -1 $-1 $192 -1 $301 1 $189 $447 forward @7 unknown #
edge $-1 -1 $-1 $193 -1 $300 1 $190 $448 forward @7 unknown #
point $-1 -1 $-1 2 -1.5 1 #
point $-1 -1 $-1 2 1.5 1 #
face_name-twe-attrib $-1 -1 $-1 $196 $112 6 #
model_id-kcp-attrib $-1 -1 $449 $-1 $197 1 1021385811 1021385811 1840447489 8 #
face $450 -1 $-1 $451 $452 $7 $-1 $453 forward single #
loop $454 -1 $-1 $-1 $363 $197 #
cone-surface $455 -1 $-1 3.03125 0.03125 0 0 0 1 0.03125 0 0 1 I I 0 1 0.03125 forward I I I I #
loop_type-twe-attrib $-1 -1 $-1 $-1 $198 0 #
surf-twe-attrib $-1 -1 $456 $-1 $199 119 #
coedge $-1 -1 $-1 $457 $202 $458 $459 reversed $29 $-1 #
coedge $-1 -1 $-1 $366 $365 $202 $325 forward $198 $-1 #
edge $460 -1 $-1 $461 -0.96875 $327 0 $324 $462 forward @7 unknown #
model_id-kcp-attrib $-1 -1 $463 $-1 $204 1 1021385811 1021385811 1840447489 15 #
vertex $-1 -1 $-1 $370 $464 #
straight-curve $465 -1 $-1 4 -0.875 2 0 -1 0 I I #
attrib_edge_convexity-kcp-attrib $-1 -1 $466 $205 $119 1 #
point $-1 -1 $-1 4 -0.875 2 #
cur-twe-attrib $-1 -1 $-1 $-1 $207 57 #
coedge $-1 -1 $-1 $208 $457 $467 $468 reversed $29 $-1 #
coedge $-1 -1 $-1 $346 $345 $208 $334 forward $347 $-1 #
edge $469 -1 $-1 $336 -2.09375 $470 0 $333 $471 forward @7 unknown #
attrib_edge_convexity-kcp-attrib $-1 -1 $472 $-1 $210 1 #
vertex $-1 -1 $-1 $351 $473 #
ellipse-curve $474 -1 $-1 2.09375 0.03125 2 0 0 1 0.03125 0 0 1 I I #
convexity-sys-attrib $-1 -1 $475 $211 $122 #
point $-1 -1 $-1 2.09375 0 2 #
cur-twe-attrib $-1 -1 $476 $-1 $213 60 #
convexity-sys-attrib $-1 -1 $477 $214 $76 #
coedge $-1 -1 $-1 $233 $218 $478 $479 forward $21 $-1 #
coedge $-1 -1 $-1 $480 $481 $218 $344 reversed $482 $-1 #
edge $483 -1 $-1 $349 -0.875 $484 0 $343 $485 forward @7 unknown #
coedge $-1 -1 $-1 $333 $219 $222 $351 reversed $347 $-1 #
coedge $-1 -1 $-1 $219 $333 $480 $486 forward $347 $-1 #
loop $487 -1 $-1 $-1 $219 $488 #
attrib_edge_convexity-kcp-attrib $-1 -1 $489 $-1 $220 1 #
vertex $-1 -1 $-1 $486 $490 #
straight-curve $491 -1 $-1 2.125 2.125 0 0 1 0 I I #
edge $492 -1 $-1 $336 -2 $225 0 $222 $493 forward @7 unknown #
loop_type-twe-attrib $-1 -1 $-1 $-1 $223 0 #
face $494 -1 $-1 $229 $223 $7 $-1 $495 reversed single #
convexity-sys-attrib $-1 -1 $496 $224 $129 #
point $-1 -1 $-1 2.125 0.03125 0 #
cur-twe-attrib $-1 -1 $-1 $-1 $226 67 #
attrib_edge_convexity-kcp-attrib $-1 -1 $497 $-1 $227 4 #
straight-curve $498 -1 $-1 2.09375 0 0 0 0 -1 I I #
model_id-kcp-attrib $-1 -1 $499 $-1 $229 1 1021385811 1021385811 1840447489 13 #
plane-surface $500 -1 $-1 2.09375 0 0 0 1 0 0 0 1 forward_v I I I I #
edge_name-twe-attrib $-1 -1 $-1 $230 $79 27 8704 #
cur-twe-attrib $-1 -1 $-1 $232 $135 124 #
coedge $-1 -1 $-1 $501 $502 $233 $364 reversed $319 $-1 #
edge $503 -1 $-1 $504 -1.5707963267948966 $368 0 $363 $505 forward @7 unknown #
coedge $-1 -1 $-1 $324 $234 $502 $506 reversed $198 $-1 #
coedge $-1 -1 $-1 $234 $324 $236 $370 forward $198 $-1 #
attrib_edge_convexity-kcp-attrib $-1 -1 $507 $-1 $235 1 #
vertex $-1 -1 $-1 $506 $508 #
straight-curve $509 -1 $-1 4 0 0 1 0 0 I I #
edge $510 -1 $-1 $327 -2 $239 0 $366 $511 forward @7 unknown #
convexity-sys-attrib $-1 -1 $512 $238 $138 #
point $-1 -1 $-1 4 0 0 #
cur-twe-attrib $-1 -1 $-1 $-1 $240 76 #
attrib_edge_convexity-kcp-attrib $-1 -1 $513 $-1 $241 1 #
straight-curve $514 -1 $-1 4 -0.875 0 0 0 -1 I I #
edge_name-twe-attrib $-1 -1 $-1 $242 $82 3 8704 #
convexity-sys-attrib $-1 -1 $515 $245 $144 #
cur-twe-attrib $-1 -1 $-1 $-1 $246 82 #
convexity-sys-attrib $-1 -1 $516 $247 $145 #
cur-twe-attrib $-1 -1 $-1 $-1 $248 83 #
face $-1 -1 $-1 $517 $404 $23 $-1 $518 reversed single #
plane-surface $-1 -1 $-1 1 -0.59375 -1 1 0 0 0 0 1 forward_v I I I I #
coedge $-1 -1 $-1 $519 $258 $264 $408 forward $251 $-1 #
coedge $-1 -1 $-1 $520 $252 $521 $522 forward $151 $-1 #
coedge $-1 -1 $-1 $252 $390 $519 $523 forward $151 $-1 #
coedge $-1 -1 $-1 $264 $263 $252 $387 reversed $265 $-1 #
edge $-1 -1 $-1 $524 -1.796875 $525 0.296875 $252 $526 forward @7 unknown #
coedge $-1 -1 $-1 $254 $253 $398 $527 reversed $90 $-1 #
edge $-1 -1 $-1 $399 -1.5 $396 0.625 $253 $528 forward @7 unknown #
coedge $-1 -1 $-1 $385 $520 $254 $391 forward $151 $-1 #
edge $-1 -1 $-1 $395 -0.625 $529 1.5 $254 $530 forward @7 unknown #
coedge $-1 -1 $-1 $531 $255 $520 $532 reversed $394 $-1 #
coedge $-1 -1 $-1 $255 $531 $260 $401 reversed $394 $-1 #
loop $-1 -1 $-1 $-1 $392 $517 #
vertex $-1 -1 $-1 $391 $533 #
vertex $-1 -1 $-1 $401 $534 #
straight-curve $-1 -1 $-1 2 -0.625 -0.5 0 0 -1 I I #
coedge $-1 -1 $-1 $258 $519 $388 $527 forward $251 $-1 #
vertex $-1 -1 $-1 $389 $535 #
straight-curve $-1 -1 $-1 0 1.5 -1 1 0 0 I I #
edge $-1 -1 $-1 $396 -1 $405 -0.03125 $260 $536 forward @7 unknown #
coedge $-1 -1 $-1 $521 $261 $531 $537 forward $404 $-1 #
coedge $-1 -1 $-1 $261 $521 $263 $407 reversed $404 $-1 #
loop $-1 -1 $-1 $-1 $521 $381 #
vertex $-1 -1 $-1 $262 $538 #
ellipse-curve $-1 -1 $-1 1.03125 -0.59375 -1 0 0 -1 -0.03125 0 0 1 I I #
edge $-1 -1 $-1 $266 0 $525 2 $403 $539 forward @7 unknown #
edge $-1 -1 $-1 $267 -0.5 $524 1.5 $383 $540 forward @7 unknown #
point $-1 -1 $-1 1 -0.59375 -1 #
point $-1 -1 $-1 1 1.5 -1 #
face $-1 -1 $-1 $-1 $541 $17 $-1 $542 reversed single #
loop $-1 -1 $-1 $-1 $425 $269 #
coedge $-1 -1 $-1 $543 $270 $544 $545 reversed $159 $-1 #
coedge $-1 -1 $-1 $270 $543 $275 $423 reversed $159 $-1 #
coedge $-1 -1 $-1 $430 $546 $271 $416 forward $541 $-1 #
edge $-1 -1 $-1 $547 -0.5 $417 1.5 $415 $548 forward @7 unknown #
vertex $-1 -1 $-1 $416 $549 #
straight-curve $-1 -1 $-1 0.046875 -0.625 1 1 0 0 I I #
coedge $-1 -1 $-1 $278 $544 $273 $420 forward $412 $-1 #
edge $-1 -1 $-1 $421 -0.75 $283 1.34375 $419 $550 forward @7 unknown #
vertex $-1 -1 $-1 $274 $551 #
straight-curve $-1 -1 $-1 0.125 1.5 -0.5 0 0 -1 I I #
edge $-1 -1 $-1 $276 -0.125 $552 2 $414 $553 forward @7 unknown #
point $-1 -1 $-1 0.125 1.5 1 #
coedge $-1 -1 $-1 $554 $278 $280 $427 forward $412 $-1 #
ellipse-curve $-1 -1 $-1 0.09375 -0.59375 -1 0 0 -1 0 -0.03125 0 1 I I #
edge $-1 -1 $-1 $281 -0.046875 $547 2.046875 $425 $555 forward @7 unknown #
point $-1 -1 $-1 0.09375 -0.625 -1 #
point $-1 -1 $-1 0.125 -0.59375 -1 #
coedge $-1 -1 $-1 $556 $415 $285 $431 reversed $541 $-1 #
edge $-1 -1 $-1 $552 -1.5 $417 0.625 $430 $557 forward @7 unknown #
model_id-kcp-attrib $-1 -1 $-1 $-1 $289 1 1021385811 1021385811 1840447490 6 #
plane-surface $-1 -1 $-1 2 0 0 -1 0 0 0 0 1 forward_v I I I I #
coedge $-1 -1 $-1 $294 $292 $296 $438 reversed $177 $-1 #
edge $-1 -1 $-1 $307 -1 $440 1 $306 $558 forward @7 unknown #
vertex $-1 -1 $-1 $438 $559 #
straight-curve $-1 -1 $-1 -2 -1.5 0 0 0 -1 I I #
edge $-1 -1 $-1 $436 -1.5 $440 1.5 $434 $560 forward @7 unknown #
straight-curve $-1 -1 $-1 0 -1.5 -1 -1 0 0 I I #
vertex $-1 -1 $-1 $299 $561 #
straight-curve $-1 -1 $-1 0 1.5 -1 1 0 0 I I #
point $-1 -1 $-1 2 1.5 -1 #
point $-1 -1 $-1 2 -1.5 -1 #
straight-curve $-1 -1 $-1 -2 0 1 0 -1 0 I I #
point $-1 -1 $-1 -2 1.5 1 #
point $-1 -1 $-1 -2 -1.5 1 #
straight-curve $-1 -1 $-1 2 -1.5 0 0 0 -1 I I #
straight-curve $-1 -1 $-1 2 1.5 0 0 0 -1 I I #
face_name-twe-attrib $-1 -1 $-1 $317 $197 7 #
model_id-kcp-attrib $-1 -1 $562 $-1 $318 1 1021385811 1021385811 1840447489 9 #
face $563 -1 $-1 $488 $482 $7 $-1 $564 forward single #
loop $565 -1 $-1 $-1 $478 $318 #
plane-surface $566 -1 $-1 3 0.03125 0 1 0 0 0 0 -1 forward_v I I I I #
loop_type-twe-attrib $-1 -1 $-1 $-1 $319 0 #
surf-twe-attrib $-1 -1 $-1 $-1 $320 88 #
surf-twe-attrib $-1 -1 $-1 $322 $199 50 #
coedge $-1 -1 $-1 $332 $323 $567 $568 reversed $29 $-1 #
coedge $-1 -1 $-1 $502 $501 $323 $459 forward $319 $-1 #
edge $569 -1 $-1 $570 -1.5707963267948966 $461 0 $458 $571 forward @7 unknown #
attrib_edge_convexity-kcp-attrib $-1 -1 $572 $-1 $325 1 #
vertex $-1 -1 $-1 $506 $573 #
straight-curve $574 -1 $-1 4 0 2 1 -3.5813645955650202e-018 0 I I #
edge_name-twe-attrib $-1 -1 $-1 $326 $204 7 8704 #
point $-1 -1 $-1 4 0 2 #
cur-twe-attrib $-1 -1 $-1 $-1 $328 95 #
convexity-sys-attrib $-1 -1 $575 $329 $119 #
coedge $-1 -1 $-1 $481 $480 $332 $468 forward $482 $-1 #
edge $576 -1 $-1 $470 -0.875 $577 0 $467 $578 forward @7 unknown #
attrib_edge_convexity-kcp-attrib $-1 -1 $579 $-1 $334 1 #
vertex $-1 -1 $-1 $486 $580 #
straight-curve $581 -1 $-1 2.125 2.125 2 0 1 0 I I #
convexity-sys-attrib $-1 -1 $582 $335 $210 #
point $-1 -1 $-1 2.125 0.03125 2 #
cur-twe-attrib $-1 -1 $-1 $-1 $337 101 #
edge_name-twe-attrib $-1 -1 $-1 $338 $122 29 8704 #
cur-twe-attrib $-1 -1 $-1 $340 $213 145 #
edge_name-twe-attrib $-1 -1 $-1 $341 $76 2 8704 #
coedge $-1 -1 $-1 $583 $584 $342 $479 reversed $452 $-1 #
edge $585 -1 $-1 $484 -2.09375 $504 0 $478 $586 forward @7 unknown #
coedge $-1 -1 $-1 $467 $343 $346 $486 reversed $482 $-1 #
coedge $-1 -1 $-1 $343 $467 $583 $587 forward $482 $-1 #
loop $588 -1 $-1 $-1 $343 $451 #
attrib_edge_convexity-kcp-attrib $-1 -1 $589 $-1 $344 1 #
vertex $-1 -1 $-1 $587 $590 #
straight-curve $591 -1 $-1 3 2.125 0 1 0 0 I I #
edge $592 -1 $-1 $470 -2 $349 0 $346 $593 forward @7 unknown #
loop_type-twe-attrib $-1 -1 $-1 $-1 $347 0 #
face $594 -1 $-1 $353 $347 $7 $-1 $595 forward single #
convexity-sys-attrib $-1 -1 $596 $348 $220 #
point $-1 -1 $-1 2.125 2.125 0 #
cur-twe-attrib $-1 -1 $-1 $-1 $350 110 #
attrib_edge_convexity-kcp-attrib $-1 -1 $597 $-1 $351 4 #
straight-curve $598 -1 $-1 2.125 0.03125 0 0 0 -1 I I #
model_id-kcp-attrib $-1 -1 $599 $-1 $353 1 1021385811 1021385811 1840447489 12 #
cone-surface $600 -1 $-1 2.09375 0.03125 0 0 0 1 0.03125 0 0 1 I I 0 1 0.03125 forward I I I I #
edge_name-twe-attrib $-1 -1 $-1 $354 $129 24 8704 #
convexity-sys-attrib $-1 -1 $601 $357 $227 #
cur-twe-attrib $-1 -1 $-1 $-1 $358 117 #
face_name-twe-attrib $-1 -1 $-1 $359 $229 12 #
surf-twe-attrib $-1 -1 $602 $-1 $360 119 #
coedge $-1 -1 $-1 $458 $363 $584 $603 reversed $319 $-1 #
coedge $-1 -1 $-1 $363 $458 $365 $506 forward $319 $-1 #
attrib_edge_convexity-kcp-attrib $-1 -1 $604 $-1 $364 1 #
vertex $-1 -1 $-1 $603 $605 #
ellipse-curve $606 -1 $-1 3.03125 0.03125 0 0 0 1 0 -0.03125 0 1 I I #
edge $607 -1 $-1 $461 -2 $368 0 $502 $608 forward @7 unknown #
convexity-sys-attrib $-1 -1 $609 $367 $235 #
point $-1 -1 $-1 3.03125 0 0 #
cur-twe-attrib $-1 -1 $610 $-1 $369 39 #
attrib_edge_convexity-kcp-attrib $-1 -1 $611 $-1 $370 1 #
straight-curve $612 -1 $-1 4 0 0 0 0 -1 I I #
edge_name-twe-attrib $-1 -1 $-1 $371 $138 6 8704 #
convexity-sys-attrib $-1 -1 $613 $374 $241 #
cur-twe-attrib $-1 -1 $-1 $-1 $375 130 #
edge_name-twe-attrib $-1 -1 $-1 $377 $144 5 8704 #
edge_name-twe-attrib $-1 -1 $-1 $379 $145 28 8704 #
face $-1 -1 $-1 $-1 $394 $23 $-1 $614 reversed single #
cone-surface $-1 -1 $-1 1.03125 -0.59375 -1 0 0 -1 -0.03125 0 0 1 I I 0 -1 0.03125 forward I I I I #
coedge $-1 -1 $-1 $398 $383 $385 $523 reversed $251 $-1 #
coedge $-1 -1 $-1 $390 $384 $392 $532 forward $151 $-1 #
coedge $-1 -1 $-1 $403 $402 $384 $522 reversed $404 $-1 #
edge $-1 -1 $-1 $525 0 $615 1.5707963267948966 $384 $616 forward @7 unknown #
edge $-1 -1 $-1 $529 -2 $524 -1 $519 $553 forward @7 unknown #
vertex $-1 -1 $-1 $408 $617 #
vertex $-1 -1 $-1 $522 $618 #
straight-curve $-1 -1 $-1 1 -0.296875 1 0 -1 0 I I #
edge $-1 -1 $-1 $529 -1 $399 1 $388 $619 forward @7 unknown #
straight-curve $-1 -1 $-1 2 0 -1 0 -1 0 I I #
vertex $-1 -1 $-1 $391 $620 #
straight-curve $-1 -1 $-1 2 0 1 0 1 0 I I #
coedge $-1 -1 $-1 $393 $392 $402 $537 reversed $394 $-1 #
edge $-1 -1 $-1 $615 0.03125 $395 1 $520 $621 forward @7 unknown #
point $-1 -1 $-1 2 -0.625 1 #
point $-1 -1 $-1 2 -0.625 -1 #
point $-1 -1 $-1 2 1.5 -1 #
straight-curve $-1 -1 $-1 1 -0.625 -1 -1 0 0 I I #
edge $-1 -1 $-1 $405 0 $615 2 $531 $622 forward @7 unknown #
point $-1 -1 $-1 1.03125 -0.625 -1 #
straight-curve $-1 -1 $-1 1 -0.59375 -1 0 0 1 I I #
straight-curve $-1 -1 $-1 1 1.5 -0.5 0 0 1 I I #
loop $-1 -1 $-1 $-1 $415 $411 #
plane-surface $-1 -1 $-1 -2 0 0 1 0 0 0 0 -1 forward_v I I I I #
coedge $-1 -1 $-1 $414 $413 $556 $623 reversed $159 $-1 #
coedge $-1 -1 $-1 $419 $554 $413 $545 forward $412 $-1 #
edge $-1 -1 $-1 $624 -2 $421 0.125 $413 $400 forward @7 unknown #
coedge $-1 -1 $-1 $415 $556 $554 $625 reversed $541 $-1 #
vertex $-1 -1 $-1 $625 $626 #
straight-curve $-1 -1 $-1 -2 -0.625 -0.5 0 0 1 I I #
point $-1 -1 $-1 -2 -0.625 1 #
straight-curve $-1 -1 $-1 0.125 0.75 -1 0 -1 0 I I #
point $-1 -1 $-1 0.125 1.5 -1 #
vertex $-1 -1 $-1 $423 $627 #
straight-curve $-1 -1 $-1 0 1.5 1 -1 0 0 I I #
coedge $-1 -1 $-1 $544 $425 $546 $625 forward $412 $-1 #
straight-curve $-1 -1 $-1 0.046875 -0.625 -1 -1 0 0 I I #
coedge $-1 -1 $-1 $546 $430 $543 $623 forward $541 $-1 #
straight-curve $-1 -1 $-1 -2 0 1 0 -1 0 I I #
straight-curve $-1 -1 $-1 -2 1.5 0 0 0 -1 I I #
point $-1 -1 $-1 -2 -1.5 -1 #
straight-curve $-1 -1 $-1 -2 0 -1 0 1 0 I I #
point $-1 -1 $-1 -2 1.5 -1 #
face_name-twe-attrib $-1 -1 $-1 $450 $318 8 #
model_id-kcp-attrib $-1 -1 $628 $-1 $451 1 1021385811 1021385811 1840447489 10 #
plane-surface $629 -1 $-1 3 2.125 0 0 1 0 0 0 1 forward_v I I I I #
loop_type-twe-attrib $-1 -1 $-1 $-1 $452 0 #
surf-twe-attrib $-1 -1 $-1 $-1 $453 138 #
coedge $-1 -1 $-1 $584 $583 $457 $568 forward $452 $-1 #
edge $630 -1 $-1 $577 -2.09375 $570 0 $567 $631 forward @7 unknown #
attrib_edge_convexity-kcp-attrib $-1 -1 $632 $-1 $459 1 #
vertex $-1 -1 $-1 $603 $633 #
ellipse-curve $634 -1 $-1 3.03125 0.03125 2 0 0 1 0 -0.03125 0 1 I I #
convexity-sys-attrib $-1 -1 $635 $460 $325 #
point $-1 -1 $-1 3.03125 3.46944695195361e-018 2 #
cur-twe-attrib $-1 -1 $636 $-1 $462 60 #
edge_name-twe-attrib $-1 -1 $-1 $466 $119 4 8704 #
model_id-kcp-attrib $-1 -1 $637 $-1 $468 1 1021385811 1021385811 1840447489 18 #
vertex $-1 -1 $-1 $587 $638 #
straight-curve $639 -1 $-1 3 2.125 2 1 0 0 I I #
convexity-sys-attrib $-1 -1 $640 $469 $334 #
point $-1 -1 $-1 2.125 2.125 2 #
cur-twe-attrib $-1 -1 $-1 $-1 $471 153 #
edge_name-twe-attrib $-1 -1 $-1 $472 $210 25 8704 #
coedge $-1 -1 $-1 $567 $478 $481 $587 reversed $452 $-1 #
coedge $-1 -1 $-1 $478 $567 $501 $603 forward $452 $-1 #
attrib_edge_convexity-kcp-attrib $-1 -1 $641 $-1 $479 1 #
straight-curve $642 -1 $-1 3 0.03125 0 0 -1 0 I I #
edge $643 -1 $-1 $577 -2 $484 0 $481 $644 forward @7 unknown #
loop_type-twe-attrib $-1 -1 $-1 $-1 $482 0 #
convexity-sys-attrib $-1 -1 $645 $483 $344 #
point $-1 -1 $-1 3 2.125 0 #
cur-twe-attrib $-1 -1 $-1 $-1 $485 161 #
attrib_edge_convexity-kcp-attrib $-1 -1 $646 $-1 $486 1 #
straight-curve $647 -1 $-1 2.125 2.125 0 0 0 -1 I I #
model_id-kcp-attrib $-1 -1 $648 $-1 $488 1 1021385811 1021385811 1840447489 11 #
plane-surface $649 -1 $-1 2.125 2.125 0 -1 0 0 0 0 1 forward_v I I I I #
edge_name-twe-attrib $-1 -1 $-1 $489 $220 21 8704 #
convexity-sys-attrib $-1 -1 $650 $492 $351 #
cur-twe-attrib $-1 -1 $-1 $-1 $493 168 #
face_name-twe-attrib $-1 -1 $-1 $494 $353 11 #
surf-twe-attrib $-1 -1 $-1 $-1 $495 170 #
edge_name-twe-attrib $-1 -1 $-1 $497 $227 30 20480 #
surf-twe-attrib $-1 -1 $-1 $500 $360 50 #
edge $651 -1 $-1 $570 -2 $504 0 $584 $652 forward @7 unknown #
convexity-sys-attrib $-1 -1 $653 $503 $364 #
point $-1 -1 $-1 3 0.03125 0 #
cur-twe-attrib $-1 -1 $-1 $-1 $505 179 #
attrib_edge_convexity-kcp-attrib $-1 -1 $654 $-1 $506 4 #
straight-curve $655 -1 $-1 3.03125 0 0 0 -1.7347234759768102e-018 -1 I I #
edge_name-twe-attrib $-1 -1 $-1 $507 $235 9 8704 #
cur-twe-attrib $-1 -1 $-1 $509 $369 124 #
convexity-sys-attrib $-1 -1 $656 $510 $370 #
cur-twe-attrib $-1 -1 $-1 $-1 $511 185 #
edge_name-twe-attrib $-1 -1 $-1 $513 $241 8 8704 #
plane-surface $-1 -1 $-1 2 -0.625 -1 0 1 0 0 0 -1 forward_v I I I I #
vertex $-1 -1 $-1 $522 $657 #
ellipse-curve $-1 -1 $-1 1.03125 -0.59375 1 0 0 1 -0.03125 0 0 1 I I #
point $-1 -1 $-1 1 1.5 1 #
point $-1 -1 $-1 1 -0.59375 1 #
straight-curve $-1 -1 $-1 2 1.5 0 0 0 -1 I I #
point $-1 -1 $-1 2 1.5 1 #
straight-curve $-1 -1 $-1 1 -0.625 1 1 0 0 I I #
straight-curve $-1 -1 $-1 1.03125 -0.625 -1 0 0 1 I I #
edge $-1 -1 $-1 $552 -1 $624 1 $543 $658 forward @7 unknown #
vertex $-1 -1 $-1 $545 $659 #
edge $-1 -1 $-1 $547 -0.625 $624 1.5 $546 $660 forward @7 unknown #
point $-1 -1 $-1 -2 -0.625 -1 #
point $-1 -1 $-1 -2 1.5 1 #
face_name-twe-attrib $-1 -1 $-1 $563 $451 9 #
surf-twe-attrib $-1 -1 $-1 $-1 $564 193 #
attrib_edge_convexity-kcp-attrib $-1 -1 $661 $-1 $568 1 #
straight-curve $662 -1 $-1 3 0.03125 2 0 -1 0 I I #
convexity-sys-attrib $-1 -1 $663 $569 $459 #
point $-1 -1 $-1 3 0.03125 2 #
cur-twe-attrib $-1 -1 $-1 $-1 $571 201 #
edge_name-twe-attrib $-1 -1 $-1 $572 $325 10 8704 #
cur-twe-attrib $-1 -1 $-1 $574 $462 145 #
edge_name-twe-attrib $-1 -1 $-1 $576 $468 19 8704 #
point $-1 -1 $-1 3 2.125 2 #
cur-twe-attrib $-1 -1 $-1 $-1 $578 208 #
edge_name-twe-attrib $-1 -1 $-1 $579 $334 22 8704 #
convexity-sys-attrib $-1 -1 $664 $585 $479 #
cur-twe-attrib $-1 -1 $-1 $-1 $586 216 #
attrib_edge_convexity-kcp-attrib $-1 -1 $665 $-1 $587 1 #
straight-curve $666 -1 $-1 3 2.125 0 0 0 -1 I I #
edge_name-twe-attrib $-1 -1 $-1 $589 $344 18 8704 #
convexity-sys-attrib $-1 -1 $667 $592 $486 #
cur-twe-attrib $-1 -1 $-1 $-1 $593 223 #
face_name-twe-attrib $-1 -1 $-1 $594 $488 10 #
surf-twe-attrib $-1 -1 $-1 $-1 $595 225 #
edge_name-twe-attrib $-1 -1 $-1 $597 $351 26 20480 #
attrib_edge_convexity-kcp-attrib $-1 -1 $668 $-1 $603 4 #
straight-curve $669 -1 $-1 3 0.03125 0 0 6.9388939039072299e-018 -1 I I #
edge_name-twe-attrib $-1 -1 $-1 $604 $364 12 8704 #
convexity-sys-attrib $-1 -1 $670 $607 $506 #
cur-twe-attrib $-1 -1 $-1 $-1 $608 239 #
edge_name-twe-attrib $-1 -1 $-1 $611 $370 11 8704 #
point $-1 -1 $-1 1.03125 -0.625 1 #
straight-curve $-1 -1 $-1 -2 1.5 0 0 0 -1 I I #
point $-1 -1 $-1 -2 1.5 -1 #
straight-curve $-1 -1 $-1 -2 0 -1 0 1 0 I I #
convexity-sys-attrib $-1 -1 $671 $630 $568 #
cur-twe-attrib $-1 -1 $-1 $-1 $631 250 #
edge_name-twe-attrib $-1 -1 $-1 $632 $459 13 8704 #
edge_name-twe-attrib $-1 -1 $-1 $641 $479 15 8704 #
convexity-sys-attrib $-1 -1 $672 $643 $587 #
cur-twe-attrib $-1 -1 $-1 $-1 $644 265 #
edge_name-twe-attrib $-1 -1 $-1 $646 $486 23 8704 #
convexity-sys-attrib $-1 -1 $673 $651 $603 #
cur-twe-attrib $-1 -1 $-1 $-1 $652 276 #
edge_name-twe-attrib $-1 -1 $-1 $654 $506 14 20480 #
edge_name-twe-attrib $-1 -1 $-1 $661 $568 16 8704 #
edge_name-twe-attrib $-1 -1 $-1 $665 $587 20 8704 #
edge_name-twe-attrib $-1 -1 $-1 $668 $603 17 20480 #
End-of-ACIS-data 