600 0 2 0           
24 FBMach with ACIS - 6.0.3 13 ACIS 6.0.3 NT 24 Wed May 23 21:57:59 2001 
1 9.9999999999999995e-007 1e-010 
body $2 $3 $-1 $4 #
bdycol-kcp $-1 1 2 $5 $6 #
model_id-kcp-attrib $-1 $-1 $-1 $0 1 990669479 80 961544193 1 #
lump $-1 $-1 $7 $0 #
transform $-1 1 0 0 0 1 0 0 0 1 0 0 0 1 no_rotate no_reflect no_shear #
body $8 $9 $-1 $10 #
body $11 $12 $-1 $13 #
shell $-1 $-1 $-1 $14 $-1 $3 #
model_id-kcp-attrib $-1 $-1 $-1 $5 1 990669479 90 962199554 1 #
lump $-1 $-1 $15 $5 #
transform $-1 1 0 0 0 1 0 0 0 1 2 0.625 1 1 no_rotate no_reflect no_shear #
rgb_color-st-attrib $-1 $16 $-1 $6 0.5 1 1 #
lump $-1 $17 $18 $6 #
transform $-1 1 0 0 0 1 0 0 0 1 2 0.625 1 1 no_rotate no_reflect no_shear #
face $19 $20 $21 $7 $-1 $22 reversed single #
shell $-1 $-1 $-1 $23 $-1 $9 #
model_id-kcp-attrib $-1 $-1 $11 $6 1 990669479 220 970719235 1 #
lump $-1 $-1 $24 $6 #
shell $-1 $-1 $-1 $25 $-1 $12 #
model_id-kcp-attrib $-1 $26 $-1 $14 1 990669479 80 961544193 14 #
face $27 $28 $29 $7 $-1 $30 forward single #
loop $31 $-1 $32 $14 #
plane-surface $33 0 0 0 0 0 1 1 0 0 forward_v I I I I #
face $34 $35 $36 $15 $-1 $37 forward single #
shell $-1 $-1 $-1 $38 $-1 $17 #
face $-1 $39 $40 $18 $-1 $41 reversed single #
model_id-kcp-attrib $-1 $42 $19 $14 1 990669479 80 961544193 2 #
model_id-kcp-attrib $-1 $43 $-1 $20 1 990669479 80 961544193 3 #
face $44 $45 $46 $7 $-1 $47 forward single #
loop $48 $-1 $49 $20 #
plane-surface $50 0 0 2 0 0 1 1 0 0 forward_v I I I I #
loop_type-twe-attrib $-1 $-1 $-1 $21 0 #
coedge $-1 $51 $52 $53 $54 forward $21 $-1 #
surf-twe-attrib $-1 $-1 $-1 $22 4 #
model_id-kcp-attrib $-1 $-1 $-1 $23 1 990669479 90 962199554 3 #
face $55 $56 $57 $15 $-1 $58 reversed single #
loop $-1 $-1 $59 $23 #
plane-surface $-1 0 0 1 0 0 1 1 0 0 forward_v I I I I #
face $-1 $60 $61 $24 $-1 $62 reversed single #
face $-1 $63 $64 $18 $-1 $65 reversed single #
loop $-1 $-1 $66 $25 #
cone-surface $-1 0.09375 -0.59375 -1 0 0 -1 0 -0.03125 0 1 I I 0 -1 0.03125 forward I I I I #
face_name-twe-attrib $-1 $-1 $26 $14 1 #
face_name-twe-attrib $-1 $-1 $27 $20 2 #
model_id-kcp-attrib $-1 $67 $-1 $28 1 990669479 80 961544193 4 #
face $68 $69 $70 $7 $-1 $71 forward single #
loop $72 $-1 $53 $28 #
plane-surface $73 0 0 0 -1 0 0 0 0 1 forward_v I I I I #
loop_type-twe-attrib $-1 $-1 $-1 $29 0 #
coedge $-1 $74 $75 $76 $77 reversed $29 $-1 #
surf-twe-attrib $-1 $-1 $-1 $30 6 #
coedge $-1 $78 $32 $79 $80 forward $21 $-1 #
coedge $-1 $32 $81 $82 $83 forward $21 $-1 #
coedge $-1 $84 $85 $32 $54 reversed $46 $-1 #
edge $86 $87 -0.875 $88 0 $53 $89 forward 7 unknown #
model_id-kcp-attrib $-1 $-1 $-1 $35 1 990669479 90 962199554 2 #
face $90 $91 $92 $15 $-1 $93 reversed single #
loop $-1 $-1 $94 $35 #
plane-surface $-1 0 0 -1 0 0 1 1 0 0 forward_v I I I I #
coedge $-1 $95 $96 $97 $98 forward $36 $-1 #
face $-1 $99 $100 $24 $-1 $101 reversed single #
loop $-1 $-1 $102 $38 #
plane-surface $-1 0 0 -1 0 0 1 1 0 0 forward_v I I I I #
face $-1 $103 $104 $18 $-1 $105 reversed single #
loop $-1 $-1 $106 $39 #
plane-surface $-1 0.125 1.5 -1 -1 0 0 0 0 -1 forward_v I I I I #
coedge $-1 $107 $108 $109 $110 reversed $40 $-1 #
face_name-twe-attrib $-1 $-1 $44 $28 3 #
model_id-kcp-attrib $-1 $111 $-1 $45 1 990669479 80 961544193 5 #
face $112 $113 $114 $7 $-1 $115 forward single #
loop $116 $-1 $82 $45 #
plane-surface $117 0 -0.875 0 0 -1 0 0 0 -1 forward_v I I I I #
loop_type-twe-attrib $-1 $-1 $-1 $46 0 #
surf-twe-attrib $-1 $-1 $-1 $47 10 #
coedge $-1 $118 $49 $119 $120 reversed $29 $-1 #
coedge $-1 $49 $121 $122 $123 reversed $29 $-1 #
coedge $-1 $85 $84 $49 $77 forward $46 $-1 #
edge $124 $125 -0.875 $126 0 $76 $127 forward 7 unknown #
coedge $-1 $128 $51 $129 $130 forward $21 $-1 #
coedge $-1 $131 $132 $51 $80 reversed $133 $-1 #
edge $134 $88 -2.09375 $135 0 $79 $136 forward 7 unknown #
coedge $-1 $52 $137 $138 $139 forward $21 $-1 #
coedge $-1 $140 $141 $52 $83 reversed $70 $-1 #
edge $142 $143 -4 $87 0 $82 $144 forward 7 unknown #
coedge $-1 $76 $53 $141 $145 reversed $46 $-1 #
coedge $-1 $53 $76 $131 $146 forward $46 $-1 #
attrib_edge_convexity-kcp-attrib $-1 $147 $-1 $54 1 #
vertex $-1 $145 $148 #
vertex $-1 $146 $149 #
straight-curve $150 0 0 0 0 1 0 I I #
model_id-kcp-attrib $-1 $-1 $-1 $56 1 990669479 90 962199554 5 #
face $151 $152 $153 $15 $-1 $154 reversed single #
loop $-1 $-1 $155 $56 #
plane-surface $-1 0 -1.5 0 0 1 0 0 0 1 forward_v I I I I #
coedge $-1 $156 $157 $158 $159 forward $57 $-1 #
coedge $-1 $160 $59 $161 $162 forward $36 $-1 #
coedge $-1 $59 $160 $163 $164 forward $36 $-1 #
coedge $-1 $165 $166 $59 $98 reversed $167 $-1 #
edge $-1 $168 -1.5 $169 1.5 $97 $170 forward 7 unknown #
face $-1 $171 $172 $24 $-1 $173 forward single #
loop $-1 $-1 $174 $60 #
plane-surface $-1 2 0 0 -1 0 0 0 0 1 forward_v I I I I #
coedge $-1 $175 $176 $177 $178 forward $61 $-1 #
face $-1 $179 $180 $18 $-1 $181 reversed single #
loop $-1 $-1 $182 $63 #
plane-surface $-1 0.09375 -0.625 -1 0 1 0 0 0 -1 forward_v I I I I #
coedge $-1 $183 $184 $185 $186 reversed $64 $-1 #
coedge $-1 $187 $66 $188 $189 reversed $40 $-1 #
coedge $-1 $66 $187 $183 $190 forward $40 $-1 #
coedge $-1 $185 $191 $66 $110 forward $192 $-1 #
edge $-1 $193 0 $194 1.5707963267948966 $109 $195 forward 7 unknown #
face_name-twe-attrib $-1 $-1 $68 $45 4 #
model_id-kcp-attrib $-1 $196 $-1 $69 1 990669479 80 961544193 6 #
face $197 $198 $199 $7 $-1 $200 forward single #
loop $201 $-1 $138 $69 #
plane-surface $202 4 -0.875 0 1 0 0 0 0 -1 forward_v I I I I #
loop_type-twe-attrib $-1 $-1 $-1 $70 0 #
surf-twe-attrib $-1 $-1 $-1 $71 17 #
coedge $-1 $203 $74 $204 $205 reversed $29 $-1 #
coedge $-1 $141 $140 $74 $120 forward $70 $-1 #
edge $206 $207 -4 $125 0 $119 $208 forward 7 unknown #
coedge $-1 $75 $209 $210 $211 reversed $29 $-1 #
coedge $-1 $132 $131 $75 $123 forward $133 $-1 #
edge $212 $126 -2.09375 $213 0 $122 $214 forward 7 unknown #
model_id-kcp-attrib $-1 $215 $-1 $77 1 990669479 80 961544193 17 #
vertex $-1 $145 $216 #
vertex $-1 $146 $217 #
straight-curve $218 0 0 2 0 1 0 I I #
coedge $-1 $219 $78 $220 $221 forward $21 $-1 #
coedge $-1 $222 $223 $78 $130 reversed $224 $-1 #
edge $225 $135 -1.5707963267948966 $226 0 $129 $227 forward 7 unknown #
coedge $-1 $122 $79 $85 $146 reversed $133 $-1 #
coedge $-1 $79 $122 $222 $228 forward $133 $-1 #
loop $229 $-1 $79 $230 #
attrib_edge_convexity-kcp-attrib $-1 $231 $-1 $80 1 #
vertex $-1 $228 $232 #
straight-curve $233 2.09375 0 0 1 0 0 I I #
coedge $-1 $81 $234 $235 $236 forward $21 $-1 #
coedge $-1 $237 $238 $81 $139 reversed $114 $-1 #
edge $239 $240 -0.875 $143 0 $138 $241 forward 7 unknown #
coedge $-1 $119 $82 $238 $242 reversed $70 $-1 #
coedge $-1 $82 $119 $84 $145 forward $70 $-1 #
attrib_edge_convexity-kcp-attrib $-1 $243 $-1 $83 1 #
vertex $-1 $242 $244 #
straight-curve $245 0 -0.875 0 -1 0 0 I I #
edge $246 $125 -2 $87 0 $141 $247 forward 7 unknown #
edge $248 $126 -2 $88 0 $131 $249 forward 7 unknown #
convexity-sys-attrib $-1 $250 $86 $54 #
point $-1 0 -0.875 0 #
point $-1 0 0 0 #
cur-twe-attrib $-1 $-1 $-1 $89 26 #
model_id-kcp-attrib $-1 $-1 $-1 $91 1 990669479 90 962199554 4 #
face $251 $252 $253 $15 $-1 $254 reversed single #
loop $-1 $-1 $255 $91 #
plane-surface $-1 -2 0 0 1 0 0 0 0 -1 forward_v I I I I #
coedge $-1 $256 $163 $257 $258 forward $92 $-1 #
coedge $-1 $259 $94 $256 $260 forward $57 $-1 #
coedge $-1 $94 $259 $261 $262 forward $57 $-1 #
coedge $-1 $166 $165 $94 $159 reversed $167 $-1 #
edge $-1 $263 -1.5 $264 1.5 $158 $265 forward 7 unknown #
coedge $-1 $96 $95 $266 $267 forward $36 $-1 #
coedge $-1 $268 $269 $95 $162 reversed $253 $-1 #
edge $-1 $169 -2 $270 2 $161 $271 forward 7 unknown #
coedge $-1 $155 $272 $96 $164 reversed $92 $-1 #
edge $-1 $273 -2 $168 2 $163 $274 forward 7 unknown #
coedge $-1 $158 $97 $272 $275 forward $167 $-1 #
coedge $-1 $97 $158 $268 $276 reversed $167 $-1 #
loop $-1 $-1 $165 $252 #
vertex $-1 $98 $277 #
vertex $-1 $98 $278 #
straight-curve $-1 2 0 1 0 1 0 I I #
face $-1 $279 $280 $24 $-1 $181 reversed single #
loop $-1 $-1 $281 $99 #
plane-surface $-1 0 0 1 0 0 1 1 0 0 forward_v I I I I #
coedge $-1 $282 $283 $284 $285 forward $100 $-1 #
coedge $-1 $286 $102 $287 $288 forward $61 $-1 #
coedge $-1 $102 $289 $290 $291 forward $61 $-1 #
coedge $-1 $292 $293 $102 $178 reversed $294 $-1 #
edge $-1 $295 -0.296875 $296 1.796875 $102 $297 forward 7 unknown #
face $-1 $298 $192 $18 $-1 $173 forward single #
loop $-1 $-1 $299 $103 #
plane-surface $-1 0 1.5 0 0 -1 0 0 0 -1 forward_v I I I I #
coedge $-1 $300 $188 $191 $301 reversed $104 $-1 #
coedge $-1 $302 $106 $108 $190 reversed $64 $-1 #
coedge $-1 $106 $302 $299 $303 reversed $64 $-1 #
coedge $-1 $304 $109 $106 $186 forward $192 $-1 #
edge $-1 $194 -1.34375 $305 0.75 $185 $306 forward 7 unknown #
coedge $-1 $108 $107 $307 $308 reversed $40 $-1 #
coedge $-1 $182 $309 $107 $189 forward $104 $-1 #
edge $-1 $310 0 $193 2 $107 $311 forward 7 unknown #
edge $-1 $312 0 $194 2 $183 $313 forward 7 unknown #
coedge $-1 $109 $314 $182 $301 forward $192 $-1 #
loop $-1 $-1 $191 $179 #
vertex $-1 $110 $315 #
vertex $-1 $186 $316 #
ellipse-curve $-1 0.09375 -0.59375 1 0 0 1 0 -0.03125 0 1 I I #
face_name-twe-attrib $-1 $-1 $112 $69 5 #
model_id-kcp-attrib $-1 $317 $-1 $113 1 990669479 80 961544193 7 #
face $318 $319 $320 $7 $-1 $321 reversed single #
loop $322 $-1 $235 $113 #
plane-surface $323 4 0 0 0 1 0 0 0 1 forward_v I I I I #
loop_type-twe-attrib $-1 $-1 $-1 $114 0 #
surf-twe-attrib $-1 $-1 $-1 $115 28 #
coedge $-1 $324 $118 $325 $326 reversed $29 $-1 #
coedge $-1 $238 $237 $118 $205 forward $114 $-1 #
edge $327 $328 -0.875 $207 0 $204 $329 forward 7 unknown #
model_id-kcp-attrib $-1 $330 $-1 $120 1 990669479 80 961544193 16 #
vertex $-1 $242 $331 #
straight-curve $332 0 -0.875 2 -1 0 0 I I #
coedge $-1 $121 $333 $334 $335 reversed $29 $-1 #
coedge $-1 $223 $222 $121 $211 forward $224 $-1 #
edge $336 $213 -1.5707963267948966 $337 0 $210 $338 forward 7 unknown #
edge_name-twe-attrib $-1 $-1 $-1 $123 29 8704 #
vertex $-1 $228 $339 #
straight-curve $340 2.09375 0 2 1 0 0 I I #
attrib_edge_convexity-kcp-attrib $-1 $341 $124 $77 1 #
point $-1 0 -0.875 2 #
point $-1 0 0 2 #
cur-twe-attrib $-1 $-1 $-1 $127 36 #
coedge $-1 $342 $128 $343 $344 forward $21 $-1 #
coedge $-1 $345 $346 $128 $221 reversed $347 $-1 #
edge $348 $226 -2.09375 $349 0 $220 $350 forward 7 unknown #
coedge $-1 $210 $129 $132 $228 reversed $224 $-1 #
coedge $-1 $129 $210 $345 $351 forward $224 $-1 #
loop $352 $-1 $129 $353 #
attrib_edge_convexity-kcp-attrib $-1 $354 $-1 $130 1 #
vertex $-1 $351 $355 #
ellipse-curve $356 2.09375 0.03125 0 0 0 1 0.03125 0 0 1 I I #
edge $357 $213 -2 $135 0 $132 $358 forward 7 unknown #
loop_type-twe-attrib $-1 $-1 $-1 $133 0 #
face $359 $-1 $133 $7 $-1 $360 forward single #
convexity-sys-attrib $-1 $361 $134 $80 #
point $-1 2.09375 0 0 #
cur-twe-attrib $-1 $362 $-1 $136 39 #
coedge $-1 $137 $342 $363 $364 forward $21 $-1 #
coedge $-1 $365 $366 $137 $236 reversed $199 $-1 #
edge $367 $368 -0.96875 $240 0 $235 $369 forward 7 unknown #
coedge $-1 $204 $138 $366 $370 reversed $114 $-1 #
coedge $-1 $138 $204 $140 $242 forward $114 $-1 #
attrib_edge_convexity-kcp-attrib $-1 $371 $-1 $139 1 #
vertex $-1 $370 $372 #
straight-curve $373 4 -0.875 0 0 -1 0 I I #
edge $374 $207 -2 $143 0 $238 $375 forward 7 unknown #
convexity-sys-attrib $-1 $376 $142 $83 #
point $-1 4 -0.875 0 #
cur-twe-attrib $-1 $-1 $-1 $144 42 #
attrib_edge_convexity-kcp-attrib $-1 $377 $-1 $145 1 #
straight-curve $378 0 -0.875 0 0 0 -1 I I #
attrib_edge_convexity-kcp-attrib $-1 $379 $-1 $146 1 #
straight-curve $380 0 0 0 0 0 -1 I I #
edge_name-twe-attrib $-1 $-1 $147 $54 1 8704 #
model_id-kcp-attrib $-1 $-1 $-1 $152 1 990669479 90 962199554 7 #
face $381 $-1 $167 $15 $-1 $382 reversed single #
loop $-1 $-1 $268 $152 #
plane-surface $-1 0 1.5 0 0 -1 0 0 0 -1 forward_v I I I I #
coedge $-1 $383 $266 $269 $384 forward $153 $-1 #
coedge $-1 $272 $155 $156 $260 reversed $92 $-1 #
coedge $-1 $266 $383 $155 $258 reversed $153 $-1 #
edge $-1 $273 -1 $385 1 $257 $386 forward 7 unknown #
coedge $-1 $157 $156 $383 $387 forward $57 $-1 #
edge $-1 $264 -2 $385 2 $256 $388 forward 7 unknown #
coedge $-1 $269 $268 $157 $262 reversed $253 $-1 #
edge $-1 $389 -2 $263 2 $261 $390 forward 7 unknown #
vertex $-1 $159 $391 #
vertex $-1 $275 $392 #
straight-curve $-1 2 0 -1 0 -1 0 I I #
coedge $-1 $255 $257 $160 $267 reversed $153 $-1 #
edge $-1 $270 -1.5 $273 1.5 $266 $393 forward 7 unknown #
coedge $-1 $261 $161 $166 $276 forward $253 $-1 #
coedge $-1 $161 $261 $255 $384 reversed $253 $-1 #
vertex $-1 $162 $394 #
straight-curve $-1 0 1.5 1 -1 0 0 I I #
coedge $-1 $163 $256 $165 $275 reversed $92 $-1 #
vertex $-1 $267 $395 #
straight-curve $-1 0 -1.5 1 1 0 0 I I #
edge $-1 $168 -1 $264 1 $165 $396 forward 7 unknown #
edge $-1 $169 -1 $263 1 $166 $397 forward 7 unknown #
point $-1 2 -1.5 1 #
point $-1 2 1.5 1 #
face $-1 $398 $294 $24 $-1 $399 reversed single #
loop $-1 $-1 $400 $171 #
coedge $-1 $401 $402 $403 $404 forward $172 $-1 #
coedge $-1 $405 $174 $286 $406 reversed $100 $-1 #
coedge $-1 $174 $405 $407 $408 reversed $100 $-1 #
coedge $-1 $409 $410 $174 $285 reversed $411 $-1 #
edge $-1 $412 -1.5 $413 0.5 $174 $414 forward 7 unknown #
coedge $-1 $289 $175 $282 $406 forward $61 $-1 #
coedge $-1 $400 $415 $175 $288 reversed $280 $-1 #
edge $-1 $296 1 $416 2 $287 $417 forward 7 unknown #
coedge $-1 $176 $286 $410 $418 forward $61 $-1 #
coedge $-1 $419 $420 $176 $291 reversed $421 $-1 #
edge $-1 $422 -1.5707963267948966 $295 0 $176 $423 forward 7 unknown #
coedge $-1 $403 $177 $420 $424 forward $294 $-1 #
coedge $-1 $177 $403 $400 $425 reversed $294 $-1 #
loop $-1 $-1 $403 $279 #
vertex $-1 $291 $426 #
vertex $-1 $288 $427 #
straight-curve $-1 1 -0.296875 -1 0 1 0 I I #
face $-1 $428 $429 $18 $-1 $62 reversed single #
coedge $-1 $430 $431 $184 $303 forward $180 $-1 #
coedge $-1 $309 $182 $432 $433 reversed $104 $-1 #
edge $-1 $434 -2.046875 $193 0.046875 $191 $435 forward 7 unknown #
coedge $-1 $184 $183 $436 $437 reversed $64 $-1 #
edge $-1 $305 -1.5 $438 0.5 $299 $439 forward 7 unknown #
coedge $-1 $314 $185 $431 $440 forward $192 $-1 #
vertex $-1 $440 $441 #
straight-curve $-1 0.125 0.75 1 0 1 0 I I #
coedge $-1 $442 $436 $187 $308 forward $429 $-1 #
edge $-1 $312 -1.5707963267948966 $310 0 $307 $443 forward 7 unknown #
coedge $-1 $188 $300 $442 $444 reversed $104 $-1 #
vertex $-1 $308 $445 #
straight-curve $-1 0.09375 -0.625 -1 0 0 1 I I #
vertex $-1 $437 $446 #
straight-curve $-1 0.125 -0.59375 -1 0 0 1 I I #
coedge $-1 $191 $304 $447 $448 forward $192 $-1 #
point $-1 0.09375 -0.625 1 #
point $-1 0.125 -0.59375 1 #
face_name-twe-attrib $-1 $-1 $197 $113 6 #
model_id-kcp-attrib $-1 $449 $-1 $198 1 990669479 80 961544193 8 #
face $450 $451 $452 $7 $-1 $453 forward single #
loop $454 $-1 $363 $198 #
cone-surface $455 3.03125 0.03125 0 0 0 1 0.03125 0 0 1 I I 0 1 0.03125 forward I I I I #
loop_type-twe-attrib $-1 $-1 $-1 $199 0 #
surf-twe-attrib $-1 $456 $-1 $200 119 #
coedge $-1 $457 $203 $458 $459 reversed $29 $-1 #
coedge $-1 $366 $365 $203 $326 forward $199 $-1 #
edge $460 $461 -0.96875 $328 0 $325 $462 forward 7 unknown #
model_id-kcp-attrib $-1 $463 $-1 $205 1 990669479 80 961544193 15 #
vertex $-1 $370 $464 #
straight-curve $465 4 -0.875 2 0 -1 0 I I #
attrib_edge_convexity-kcp-attrib $-1 $466 $206 $120 1 #
point $-1 4 -0.875 2 #
cur-twe-attrib $-1 $-1 $-1 $208 57 #
coedge $-1 $209 $457 $467 $468 reversed $29 $-1 #
coedge $-1 $346 $345 $209 $335 forward $347 $-1 #
edge $469 $337 -2.09375 $470 0 $334 $471 forward 7 unknown #
edge_name-twe-attrib $-1 $-1 $-1 $211 25 8704 #
vertex $-1 $351 $472 #
ellipse-curve $473 2.09375 0.03125 2 0 0 1 0.03125 0 0 1 I I #
point $-1 2.09375 0 2 #
cur-twe-attrib $-1 $474 $-1 $214 60 #
convexity-sys-attrib $-1 $475 $215 $77 #
coedge $-1 $234 $219 $476 $477 forward $21 $-1 #
coedge $-1 $478 $479 $219 $344 reversed $480 $-1 #
edge $481 $349 -0.875 $482 0 $343 $483 forward 7 unknown #
coedge $-1 $334 $220 $223 $351 reversed $347 $-1 #
coedge $-1 $220 $334 $478 $484 forward $347 $-1 #
loop $485 $-1 $220 $486 #
attrib_edge_convexity-kcp-attrib $-1 $487 $-1 $221 1 #
vertex $-1 $484 $488 #
straight-curve $489 2.125 2.125 0 0 1 0 I I #
edge $490 $337 -2 $226 0 $223 $491 forward 7 unknown #
loop_type-twe-attrib $-1 $-1 $-1 $224 0 #
face $492 $230 $224 $7 $-1 $493 reversed single #
convexity-sys-attrib $-1 $494 $225 $130 #
point $-1 2.125 0.03125 0 #
cur-twe-attrib $-1 $-1 $-1 $227 67 #
edge_name-twe-attrib $-1 $-1 $-1 $228 30 20480 #
straight-curve $495 2.09375 0 0 0 0 -1 I I #
model_id-kcp-attrib $-1 $496 $-1 $230 1 990669479 80 961544193 13 #
plane-surface $497 2.09375 0 0 0 1 0 0 0 1 forward_v I I I I #
edge_name-twe-attrib $-1 $-1 $231 $80 27 8704 #
cur-twe-attrib $-1 $-1 $233 $136 124 #
coedge $-1 $498 $499 $234 $364 reversed $320 $-1 #
edge $500 $501 -1.5707963267948966 $368 0 $363 $502 forward 7 unknown #
coedge $-1 $325 $235 $499 $503 reversed $199 $-1 #
coedge $-1 $235 $325 $237 $370 forward $199 $-1 #
attrib_edge_convexity-kcp-attrib $-1 $504 $-1 $236 1 #
vertex $-1 $503 $505 #
straight-curve $506 4 0 0 1 0 0 I I #
edge $507 $328 -2 $240 0 $366 $508 forward 7 unknown #
convexity-sys-attrib $-1 $509 $239 $139 #
point $-1 4 0 0 #
cur-twe-attrib $-1 $-1 $-1 $241 76 #
attrib_edge_convexity-kcp-attrib $-1 $510 $-1 $242 1 #
straight-curve $511 4 -0.875 0 0 0 -1 I I #
edge_name-twe-attrib $-1 $-1 $243 $83 3 8704 #
convexity-sys-attrib $-1 $512 $246 $145 #
cur-twe-attrib $-1 $-1 $-1 $247 82 #
convexity-sys-attrib $-1 $513 $248 $146 #
cur-twe-attrib $-1 $-1 $-1 $249 83 #
model_id-kcp-attrib $-1 $-1 $-1 $252 1 990669479 90 962199554 6 #
plane-surface $-1 2 0 0 -1 0 0 0 0 1 forward_v I I I I #
coedge $-1 $257 $255 $259 $387 reversed $153 $-1 #
edge $-1 $270 -1 $389 1 $269 $514 forward 7 unknown #
vertex $-1 $387 $515 #
straight-curve $-1 -2 -1.5 0 0 0 -1 I I #
edge $-1 $385 -1.5 $389 1.5 $383 $516 forward 7 unknown #
straight-curve $-1 0 -1.5 -1 -1 0 0 I I #
vertex $-1 $262 $517 #
straight-curve $-1 0 1.5 -1 1 0 0 I I #
point $-1 2 1.5 -1 #
point $-1 2 -1.5 -1 #
straight-curve $-1 -2 0 1 0 -1 0 I I #
point $-1 -2 1.5 1 #
point $-1 -2 -1.5 1 #
straight-curve $-1 2 -1.5 0 0 0 -1 I I #
straight-curve $-1 2 1.5 0 0 0 -1 I I #
face $-1 $518 $421 $24 $-1 $519 reversed single #
plane-surface $-1 1 -0.59375 -1 1 0 0 0 0 1 forward_v I I I I #
coedge $-1 $520 $287 $293 $425 forward $280 $-1 #
coedge $-1 $521 $281 $522 $523 forward $172 $-1 #
coedge $-1 $281 $407 $520 $524 forward $172 $-1 #
coedge $-1 $293 $292 $281 $404 reversed $294 $-1 #
edge $-1 $525 -1.796875 $526 0.296875 $281 $527 forward 7 unknown #
coedge $-1 $283 $282 $415 $528 reversed $100 $-1 #
edge $-1 $416 -1.5 $413 0.625 $282 $529 forward 7 unknown #
coedge $-1 $402 $521 $283 $408 forward $172 $-1 #
edge $-1 $412 -0.625 $530 1.5 $283 $531 forward 7 unknown #
coedge $-1 $532 $284 $521 $533 reversed $411 $-1 #
coedge $-1 $284 $532 $289 $418 reversed $411 $-1 #
loop $-1 $-1 $409 $518 #
vertex $-1 $408 $534 #
vertex $-1 $418 $535 #
straight-curve $-1 2 -0.625 -0.5 0 0 -1 I I #
coedge $-1 $287 $520 $405 $528 forward $280 $-1 #
vertex $-1 $406 $536 #
straight-curve $-1 0 1.5 -1 1 0 0 I I #
edge $-1 $413 -1 $422 -0.03125 $289 $537 forward 7 unknown #
coedge $-1 $522 $290 $532 $538 forward $421 $-1 #
coedge $-1 $290 $522 $292 $424 reversed $421 $-1 #
loop $-1 $-1 $522 $398 #
vertex $-1 $291 $539 #
ellipse-curve $-1 1.03125 -0.59375 -1 0 0 -1 -0.03125 0 0 1 I I #
edge $-1 $295 0 $526 2 $420 $540 forward 7 unknown #
edge $-1 $296 -0.5 $525 1.5 $400 $541 forward 7 unknown #
point $-1 1 -0.59375 -1 #
point $-1 1 1.5 -1 #
face $-1 $-1 $542 $18 $-1 $543 reversed single #
loop $-1 $-1 $442 $298 #
coedge $-1 $544 $299 $545 $546 reversed $180 $-1 #
coedge $-1 $299 $544 $304 $440 reversed $180 $-1 #
coedge $-1 $447 $547 $300 $433 forward $542 $-1 #
edge $-1 $548 -0.5 $434 1.5 $432 $549 forward 7 unknown #
vertex $-1 $433 $550 #
straight-curve $-1 0.046875 -0.625 1 1 0 0 I I #
coedge $-1 $307 $545 $302 $437 forward $429 $-1 #
edge $-1 $438 -0.75 $312 1.34375 $436 $551 forward 7 unknown #
vertex $-1 $303 $552 #
straight-curve $-1 0.125 1.5 -0.5 0 0 -1 I I #
edge $-1 $305 -0.125 $553 2 $431 $554 forward 7 unknown #
point $-1 0.125 1.5 1 #
coedge $-1 $555 $307 $309 $444 forward $429 $-1 #
ellipse-curve $-1 0.09375 -0.59375 -1 0 0 -1 0 -0.03125 0 1 I I #
edge $-1 $310 -0.046875 $548 2.046875 $442 $556 forward 7 unknown #
point $-1 0.09375 -0.625 -1 #
point $-1 0.125 -0.59375 -1 #
coedge $-1 $557 $432 $314 $448 reversed $542 $-1 #
edge $-1 $553 -1.5 $434 0.625 $447 $558 forward 7 unknown #
face_name-twe-attrib $-1 $-1 $318 $198 7 #
model_id-kcp-attrib $-1 $559 $-1 $319 1 990669479 80 961544193 9 #
face $560 $486 $480 $7 $-1 $561 forward single #
loop $562 $-1 $476 $319 #
plane-surface $563 3 0.03125 0 1 0 0 0 0 -1 forward_v I I I I #
loop_type-twe-attrib $-1 $-1 $-1 $320 0 #
surf-twe-attrib $-1 $-1 $-1 $321 88 #
surf-twe-attrib $-1 $-1 $323 $200 50 #
coedge $-1 $333 $324 $564 $565 reversed $29 $-1 #
coedge $-1 $499 $498 $324 $459 forward $320 $-1 #
edge $566 $567 -1.5707963267948966 $461 0 $458 $568 forward 7 unknown #
edge_name-twe-attrib $-1 $-1 $-1 $326 10 8704 #
vertex $-1 $503 $569 #
straight-curve $570 4 0 2 1 -3.5813645955650202e-018 0 I I #
edge_name-twe-attrib $-1 $-1 $327 $205 7 8704 #
point $-1 4 0 2 #
cur-twe-attrib $-1 $-1 $-1 $329 95 #
convexity-sys-attrib $-1 $571 $330 $120 #
coedge $-1 $479 $478 $333 $468 forward $480 $-1 #
edge $572 $470 -0.875 $573 0 $467 $574 forward 7 unknown #
edge_name-twe-attrib $-1 $-1 $-1 $335 22 8704 #
vertex $-1 $484 $575 #
straight-curve $576 2.125 2.125 2 0 1 0 I I #
point $-1 2.125 0.03125 2 #
cur-twe-attrib $-1 $-1 $-1 $338 101 #
cur-twe-attrib $-1 $-1 $340 $214 145 #
edge_name-twe-attrib $-1 $-1 $341 $77 2 8704 #
coedge $-1 $577 $578 $342 $477 reversed $452 $-1 #
edge $579 $482 -2.09375 $501 0 $476 $580 forward 7 unknown #
coedge $-1 $467 $343 $346 $484 reversed $480 $-1 #
coedge $-1 $343 $467 $577 $581 forward $480 $-1 #
loop $582 $-1 $343 $451 #
attrib_edge_convexity-kcp-attrib $-1 $583 $-1 $344 1 #
vertex $-1 $581 $584 #
straight-curve $585 3 2.125 0 1 0 0 I I #
edge $586 $470 -2 $349 0 $346 $587 forward 7 unknown #
loop_type-twe-attrib $-1 $-1 $-1 $347 0 #
face $588 $353 $347 $7 $-1 $589 forward single #
convexity-sys-attrib $-1 $590 $348 $221 #
point $-1 2.125 2.125 0 #
cur-twe-attrib $-1 $-1 $-1 $350 110 #
edge_name-twe-attrib $-1 $-1 $-1 $351 26 20480 #
straight-curve $591 2.125 0.03125 0 0 0 -1 I I #
model_id-kcp-attrib $-1 $592 $-1 $353 1 990669479 80 961544193 12 #
cone-surface $593 2.09375 0.03125 0 0 0 1 0.03125 0 0 1 I I 0 1 0.03125 forward I I I I #
edge_name-twe-attrib $-1 $-1 $354 $130 24 8704 #
cur-twe-attrib $-1 $-1 $-1 $358 117 #
face_name-twe-attrib $-1 $-1 $359 $230 12 #
surf-twe-attrib $-1 $594 $-1 $360 119 #
coedge $-1 $458 $363 $578 $595 reversed $320 $-1 #
coedge $-1 $363 $458 $365 $503 forward $320 $-1 #
attrib_edge_convexity-kcp-attrib $-1 $596 $-1 $364 1 #
vertex $-1 $595 $597 #
ellipse-curve $598 3.03125 0.03125 0 0 0 1 0 -0.03125 0 1 I I #
edge $599 $461 -2 $368 0 $499 $600 forward 7 unknown #
convexity-sys-attrib $-1 $601 $367 $236 #
point $-1 3.03125 0 0 #
cur-twe-attrib $-1 $602 $-1 $369 39 #
edge_name-twe-attrib $-1 $-1 $-1 $370 11 8704 #
straight-curve $603 4 0 0 0 0 -1 I I #
edge_name-twe-attrib $-1 $-1 $371 $139 6 8704 #
convexity-sys-attrib $-1 $604 $374 $242 #
cur-twe-attrib $-1 $-1 $-1 $375 130 #
edge_name-twe-attrib $-1 $-1 $377 $145 5 8704 #
edge_name-twe-attrib $-1 $-1 $379 $146 28 8704 #
straight-curve $-1 -2 1.5 0 0 0 -1 I I #
point $-1 -2 -1.5 -1 #
straight-curve $-1 -2 0 -1 0 1 0 I I #
point $-1 -2 1.5 -1 #
face $-1 $-1 $411 $24 $-1 $605 reversed single #
cone-surface $-1 1.03125 -0.59375 -1 0 0 -1 -0.03125 0 0 1 I I 0 -1 0.03125 forward I I I I #
coedge $-1 $415 $400 $402 $524 reversed $280 $-1 #
coedge $-1 $407 $401 $409 $533 forward $172 $-1 #
coedge $-1 $420 $419 $401 $523 reversed $421 $-1 #
edge $-1 $526 0 $606 1.5707963267948966 $401 $607 forward 7 unknown #
edge $-1 $530 -2 $525 -1 $520 $554 forward 7 unknown #
vertex $-1 $425 $608 #
vertex $-1 $523 $609 #
straight-curve $-1 1 -0.296875 1 0 -1 0 I I #
edge $-1 $530 -1 $416 1 $405 $610 forward 7 unknown #
straight-curve $-1 2 0 -1 0 -1 0 I I #
vertex $-1 $408 $611 #
straight-curve $-1 2 0 1 0 1 0 I I #
coedge $-1 $410 $409 $419 $538 reversed $411 $-1 #
edge $-1 $606 0.03125 $412 1 $521 $612 forward 7 unknown #
point $-1 2 -0.625 1 #
point $-1 2 -0.625 -1 #
point $-1 2 1.5 -1 #
straight-curve $-1 1 -0.625 -1 -1 0 0 I I #
edge $-1 $422 0 $606 2 $532 $613 forward 7 unknown #
point $-1 1.03125 -0.625 -1 #
straight-curve $-1 1 -0.59375 -1 0 0 1 I I #
straight-curve $-1 1 1.5 -0.5 0 0 1 I I #
loop $-1 $-1 $432 $428 #
plane-surface $-1 -2 0 0 1 0 0 0 0 -1 forward_v I I I I #
coedge $-1 $431 $430 $557 $614 reversed $180 $-1 #
coedge $-1 $436 $555 $430 $546 forward $429 $-1 #
edge $-1 $615 -2 $438 0.125 $430 $417 forward 7 unknown #
coedge $-1 $432 $557 $555 $616 reversed $542 $-1 #
vertex $-1 $616 $617 #
straight-curve $-1 -2 -0.625 -0.5 0 0 1 I I #
point $-1 -2 -0.625 1 #
straight-curve $-1 0.125 0.75 -1 0 -1 0 I I #
point $-1 0.125 1.5 -1 #
vertex $-1 $440 $618 #
straight-curve $-1 0 1.5 1 -1 0 0 I I #
coedge $-1 $545 $442 $547 $616 forward $429 $-1 #
straight-curve $-1 0.046875 -0.625 -1 -1 0 0 I I #
coedge $-1 $547 $447 $544 $614 forward $542 $-1 #
straight-curve $-1 -2 0 1 0 -1 0 I I #
face_name-twe-attrib $-1 $-1 $450 $319 8 #
model_id-kcp-attrib $-1 $619 $-1 $451 1 990669479 80 961544193 10 #
plane-surface $620 3 2.125 0 0 1 0 0 0 1 forward_v I I I I #
loop_type-twe-attrib $-1 $-1 $-1 $452 0 #
surf-twe-attrib $-1 $-1 $-1 $453 138 #
coedge $-1 $578 $577 $457 $565 forward $452 $-1 #
edge $621 $573 -2.09375 $567 0 $564 $622 forward 7 unknown #
edge_name-twe-attrib $-1 $-1 $-1 $459 13 8704 #
vertex $-1 $595 $623 #
ellipse-curve $624 3.03125 0.03125 2 0 0 1 0 -0.03125 0 1 I I #
point $-1 3.03125 3.46944695195361e-018 2 #
cur-twe-attrib $-1 $625 $-1 $462 60 #
edge_name-twe-attrib $-1 $-1 $466 $120 4 8704 #
model_id-kcp-attrib $-1 $626 $-1 $468 1 990669479 80 961544193 18 #
vertex $-1 $581 $627 #
straight-curve $628 3 2.125 2 1 0 0 I I #
point $-1 2.125 2.125 2 #
cur-twe-attrib $-1 $-1 $-1 $471 153 #
coedge $-1 $564 $476 $479 $581 reversed $452 $-1 #
coedge $-1 $476 $564 $498 $595 forward $452 $-1 #
attrib_edge_convexity-kcp-attrib $-1 $629 $-1 $477 1 #
straight-curve $630 3 0.03125 0 0 -1 0 I I #
edge $631 $573 -2 $482 0 $479 $632 forward 7 unknown #
loop_type-twe-attrib $-1 $-1 $-1 $480 0 #
convexity-sys-attrib $-1 $633 $481 $344 #
point $-1 3 2.125 0 #
cur-twe-attrib $-1 $-1 $-1 $483 161 #
edge_name-twe-attrib $-1 $-1 $-1 $484 23 8704 #
straight-curve $634 2.125 2.125 0 0 0 -1 I I #
model_id-kcp-attrib $-1 $635 $-1 $486 1 990669479 80 961544193 11 #
plane-surface $636 2.125 2.125 0 -1 0 0 0 0 1 forward_v I I I I #
edge_name-twe-attrib $-1 $-1 $487 $221 21 8704 #
cur-twe-attrib $-1 $-1 $-1 $491 168 #
face_name-twe-attrib $-1 $-1 $492 $353 11 #
surf-twe-attrib $-1 $-1 $-1 $493 170 #
surf-twe-attrib $-1 $-1 $497 $360 50 #
edge $637 $567 -2 $501 0 $578 $638 forward 7 unknown #
convexity-sys-attrib $-1 $639 $500 $364 #
point $-1 3 0.03125 0 #
cur-twe-attrib $-1 $-1 $-1 $502 179 #
edge_name-twe-attrib $-1 $-1 $-1 $503 14 20480 #
straight-curve $640 3.03125 0 0 0 -1.7347234759768102e-018 -1 I I #
edge_name-twe-attrib $-1 $-1 $504 $236 9 8704 #
cur-twe-attrib $-1 $-1 $506 $369 124 #
cur-twe-attrib $-1 $-1 $-1 $508 185 #
edge_name-twe-attrib $-1 $-1 $510 $242 8 8704 #
plane-surface $-1 2 -0.625 -1 0 1 0 0 0 -1 forward_v I I I I #
vertex $-1 $523 $641 #
ellipse-curve $-1 1.03125 -0.59375 1 0 0 1 -0.03125 0 0 1 I I #
point $-1 1 1.5 1 #
point $-1 1 -0.59375 1 #
straight-curve $-1 2 1.5 0 0 0 -1 I I #
point $-1 2 1.5 1 #
straight-curve $-1 1 -0.625 1 1 0 0 I I #
straight-curve $-1 1.03125 -0.625 -1 0 0 1 I I #
edge $-1 $553 -1 $615 1 $544 $642 forward 7 unknown #
vertex $-1 $546 $643 #
edge $-1 $548 -0.625 $615 1.5 $547 $644 forward 7 unknown #
point $-1 -2 -0.625 -1 #
point $-1 -2 1.5 1 #
face_name-twe-attrib $-1 $-1 $560 $451 9 #
surf-twe-attrib $-1 $-1 $-1 $561 193 #
edge_name-twe-attrib $-1 $-1 $-1 $565 16 8704 #
straight-curve $645 3 0.03125 2 0 -1 0 I I #
point $-1 3 0.03125 2 #
cur-twe-attrib $-1 $-1 $-1 $568 201 #
cur-twe-attrib $-1 $-1 $570 $462 145 #
edge_name-twe-attrib $-1 $-1 $572 $468 19 8704 #
point $-1 3 2.125 2 #
cur-twe-attrib $-1 $-1 $-1 $574 208 #
convexity-sys-attrib $-1 $646 $579 $477 #
cur-twe-attrib $-1 $-1 $-1 $580 216 #
edge_name-twe-attrib $-1 $-1 $-1 $581 20 8704 #
straight-curve $647 3 2.125 0 0 0 -1 I I #
edge_name-twe-attrib $-1 $-1 $583 $344 18 8704 #
cur-twe-attrib $-1 $-1 $-1 $587 223 #
face_name-twe-attrib $-1 $-1 $588 $486 10 #
surf-twe-attrib $-1 $-1 $-1 $589 225 #
edge_name-twe-attrib $-1 $-1 $-1 $595 17 20480 #
straight-curve $648 3 0.03125 0 0 6.9388939039072299e-018 -1 I I #
edge_name-twe-attrib $-1 $-1 $596 $364 12 8704 #
cur-twe-attrib $-1 $-1 $-1 $600 239 #
point $-1 1.03125 -0.625 1 #
straight-curve $-1 -2 1.5 0 0 0 -1 I I #
point $-1 -2 1.5 -1 #
straight-curve $-1 -2 0 -1 0 1 0 I I #
cur-twe-attrib $-1 $-1 $-1 $622 250 #
edge_name-twe-attrib $-1 $-1 $629 $477 15 8704 #
cur-twe-attrib $-1 $-1 $-1 $632 265 #
cur-twe-attrib $-1 $-1 $-1 $638 276 #
End-of-ACIS-data 