**ABCDEFGHIJKLMNOPQRSTUVWXYZabcdefghijklmnopqrstuvwxyz**************************
**PARASOLID !"#$%&'()*+,-./:;<=>?@[\]^_`{|}~0123456789**************************
**PART1;MC=sun;MC_MODEL=sun3;MC_ID=cosmos;OS=SunOS;OS_RELEASE=4.1;FRU=sdl_paraso
lid_test_sun;APPL=unknown;SITE=sdl-cambridge-u.k.;USER=kramer;FORMAT=text;GUISE=
transmit;KEY=coupon;FILE=coupon.xmt_txt;DATE=7-oct-1991;
**PART2;SCH=SCH_301017_3000;USFLD_SIZE=0;
**PART3;
**END_OF_HEADER*****************************************************************
T50 : TRANSMIT FILE created by modeller version 30101715 SCH_301017_30000 12 1 8
43 0 0 0 0 0 1e3 1e-8 2 2 0 0 3 1 4 102 6 2 coupon13 4 2 0 1 0 5 6 7 8 9 10 14 5
 733 0 11 0 12 4 8 -16 6 753 0 13 0 14 9 18 7 777 0 15 0 16 10 51 8 793 0 5 17 0
 0 +6.644337567297 .6875 0 0 0 1 .375 1 0 0 31 9 803 0 6 18 0 0 +6.644337567297
 .6875 0 0 0 1 1 0 0 .375 29 10 827 0 7 19 0 6.851626616695 1 0 29 19 828 0 16 2
0 10 7.68042195912193 .499999999999883 0 18 16 778 0 21 7 22 19 29 20 829 0 22 2
3 19 7.14837338330579 1 0 18 22 779 0 24 16 25 20 29 23 830 0 25 26 20 7.1483733
83305 1 .0625 18 25 780 0 27 22 28 23 29 26 831 0 28 29 23 6.5 0 0 18 28 781 0 3
0 25 31 26 29 29 832 0 31 32 26 6.5 .1875 0 18 31 782 0 33 28 34 29 29 32 833 0
 34 35 29 6.319578040878 .5 0 18 34 783 0 13 31 36 32 29 35 835 0 36 37 32 7.5 0
 0 18 36 785 0 38 34 39 35 29 37 836 0 39 40 35 6.5 0 .0625 18 39 786 0 41 36 42
 37 29 40 837 0 42 43 37 6.5 .1875 .0625 18 42 787 0 44 39 45 40 29 43 838 0 45
 46 40 6.319578040878 .5 .0625 18 45 788 0 47 42 48 43 29 46 839 0 48 49 43 6.85
1626616695 1 .0625 18 48 789 0 50 45 51 46 29 49 840 0 51 52 46 7.680421959122 .
5 .0625 18 51 790 0 53 48 54 49 29 52 841 0 54 55 49 7.5 .1875 .0625 18 54 791 0
 56 51 57 52 29 55 842 0 57 58 52 7.5 0 .0625 18 57 792 0 59 54 60 55 29 58 658
 0 60 61 55 7.5 .1875 0 18 60 656 0 62 57 63 58 29 61 631 0 63 64 58 4.851626616
695 1 0 18 63 581 0 65 60 66 61 29 64 632 0 66 67 61 5.68042195912193 .499999999
999883 0 18 66 582 0 68 63 69 64 29 67 633 0 69 70 64 5.14837338330579 1 0 18 69
 583 0 71 66 72 67 29 70 634 0 72 73 67 5.148373383305 1 .0625 18 72 584 0 74 69
 75 70 29 73 635 0 75 76 70 4.5 0 0 18 75 585 0 77 72 78 73 29 76 636 0 78 79 73
 4.5 .1875 0 18 78 586 0 80 75 81 76 29 79 637 0 81 82 76 4.319578040878 .5 0 18
 81 587 0 83 78 84 79 29 82 639 0 84 85 79 5.5 0 0 18 84 589 0 86 81 87 82 29 85
 640 0 87 88 82 4.5 0 .0625 18 87 590 0 89 84 90 85 29 88 641 0 90 91 85 4.5 .18
75 .0625 18 90 591 0 92 87 93 88 29 91 642 0 93 94 88 4.319578040878 .5 .0625 18
 93 592 0 95 90 96 91 29 94 643 0 96 97 91 4.851626616695 1 .0625 18 96 593 0 98
 93 99 94 29 97 644 0 99 100 94 5.680421959122 .5 .0625 18 99 594 0 101 96 102 9
7 29 100 645 0 102 103 97 5.5 .1875 .0625 18 102 595 0 104 99 105 100 29 103 646
 0 105 106 100 5.5 0 .0625 18 105 596 0 107 102 108 103 29 106 462 0 108 109 103
 5.5 .1875 0 18 108 460 0 110 105 111 106 29 109 435 0 111 112 106 2.85162661669
5 1 0 18 111 385 0 113 108 114 109 29 112 436 0 114 115 109 3.68042195912193 .49
9999999999883 0 18 114 386 0 116 111 117 112 29 115 437 0 117 118 112 3.14837338
3305785 1 0 18 117 387 0 119 114 120 115 29 118 438 0 120 121 115 3.148373383305
 1 .0625 18 120 388 0 122 117 123 118 29 121 439 0 123 124 118 2.5 0 0 18 123 38
9 0 125 120 126 121 29 124 440 0 126 127 121 2.5 .1875 0 18 126 390 0 128 123 12
9 124 29 127 441 0 129 130 124 2.319578040878 .5 0 18 129 391 0 131 126 132 127
 29 130 443 0 132 133 127 3.5 0 0 18 132 393 0 134 129 135 130 29 133 444 0 135
 136 130 2.5 0 .0625 18 135 394 0 137 132 138 133 29 136 445 0 138 139 133 2.5 .
1875 .0625 18 138 395 0 140 135 141 136 29 139 446 0 141 142 136 2.319578040878
 .5 .0625 18 141 396 0 143 138 144 139 29 142 447 0 144 145 139 2.851626616695 1
 .0625 18 144 397 0 146 141 147 142 29 145 448 0 147 148 142 3.680421959122 .5 .
0625 18 147 398 0 149 144 150 145 29 148 449 0 150 151 145 3.5 .1875 .0625 18 15
0 399 0 152 147 153 148 29 151 450 0 153 154 148 3.5 0 .0625 18 153 400 0 155 15
0 156 151 29 154 266 0 156 157 151 3.5 .1875 0 18 156 264 0 158 153 159 154 29 1
57 239 0 159 160 154 .851626616695 1 0 18 159 189 0 161 156 162 157 29 160 240 0
 162 163 157 1.68042195912193 .499999999999883 0 18 162 190 0 164 159 165 160 29
 163 241 0 165 166 160 1.148373383305786 1 0 18 165 191 0 167 162 168 163 29 166
 242 0 168 169 163 1.148373383305 1 .0625 18 168 192 0 170 165 171 166 29 169 24
3 0 171 172 166 .5 0 0 18 171 193 0 173 168 174 169 29 172 244 0 174 175 169 .5
 .1875 0 18 174 194 0 176 171 177 172 29 175 245 0 177 178 172 .319578040878 .5
 0 18 177 195 0 179 174 180 175 29 178 247 0 180 181 175 1.5 0 0 18 180 197 0 18
2 177 183 178 29 181 248 0 183 184 178 .5 0 .0625 18 183 198 0 185 180 186 181 2
9 184 249 0 186 187 181 .5 .1875 .0625 18 186 199 0 188 183 189 184 29 187 250 0
 189 190 184 .319578040878 .5 .0625 18 189 200 0 191 186 192 187 29 190 251 0 19
2 193 187 .851626616695 1 .0625 18 192 201 0 194 189 195 190 29 193 252 0 195 19
6 190 1.680421959122 .5 .0625 18 195 202 0 197 192 198 193 29 196 253 0 198 199
 193 1.5 .1875 .0625 18 198 203 0 200 195 201 196 29 199 254 0 201 202 196 1.5 0
 .0625 18 201 204 0 203 198 204 199 29 202 70 0 204 205 199 1.5 .1875 0 18 204 6
8 0 206 201 207 202 29 205 55 0 207 208 202 0 0 .0625 18 207 20 0 209 204 210 20
5 29 208 54 0 210 211 205 0 1.75 .0625 18 210 18 0 212 207 213 208 29 211 53 0 2
13 214 208 8 1.75 .0625 18 213 16 0 215 210 216 211 29 214 52 0 216 217 211 8 0
 .0625 18 216 14 0 218 213 219 214 29 217 38 0 220 221 214 0 0 0 18 220 8 0 222
 223 224 217 29 221 37 0 223 225 217 0 1.75 0 18 223 10 0 226 219 220 221 29 225
 36 0 219 227 221 8 1.75 0 18 219 12 0 228 216 223 225 29 227 35 0 224 0 225 8 0
 0 18 224 7 0 229 220 0 227 17 229 230 218 38 224 231 232 15 230 694 0 38 233 0
 17 218 230 234 229 216 235 236 17 38 230 229 234 36 237 238 17 231 239 62 240 3
6 229 232 16 232 653 0 229 241 242 243 16 241 661 0 244 245 232 246 16 242 557 0
 83 232 247 248 30 243 655 0 232 248 246 0 +4 0 0 1 0 0 31 248 607 0 242 249 243
 0 +4.644337567297 .6875 0 0 0 1 1 0 0 .375 30 246 663 0 241 243 250 0 +6.922696
23254934 -.81241945662413 0 -.500000000000503 -.866025403784148 0 30 250 692 0 2
45 246 251 0 +4 0 .0625 -1 0 0 16 245 690 0 252 253 241 250 30 251 826 0 253 250
 254 0 +7.5 0 .0625 0 1 0 16 253 776 0 255 256 245 251 30 254 825 0 256 251 257
 0 +7.5 .1875 .0625 .500000000000503 .866025403784148 0 16 256 775 0 258 259 253
 254 30 257 824 0 259 254 260 0 +7.148373383305 1 .0625 -1 0 0 16 259 774 0 261
 262 256 257 30 260 823 0 262 257 263 0 +6.319578040878 .5 .0625 .50000000000050
3 -.866025403784148 0 16 262 773 0 264 265 259 260 30 263 822 0 265 260 266 0 +6
.5 .1875 .0625 0 -1 0 16 265 772 0 267 268 262 263 30 266 820 0 268 263 269 0 +7
.5 0 0 0 1 0 16 268 770 0 62 270 265 266 30 269 818 0 270 266 271 0 +7.148373383
305 1 0 -1 0 0 16 270 768 0 15 272 268 269 30 271 817 0 272 269 273 0 +6.3195780
40878 .5 0 .500000000000503 -.866025403784148 0 16 272 767 0 33 274 270 271 30 2
73 816 0 274 271 275 0 +6.5 .1875 0 0 -1 0 16 274 766 0 30 276 272 273 30 275 81
4 0 276 273 277 0 +7.5 .1875 0 0 0 1 16 276 764 0 278 279 274 275 30 277 813 0 2
79 275 280 0 +6.851626616695 1 0 0 0 1 16 279 763 0 281 282 276 277 30 280 812 0
 282 277 283 0 +6.319578040878 .5 0 0 0 1 16 282 762 0 284 285 279 280 30 283 81
1 0 285 280 286 0 +6.5 .1875 0 0 0 1 16 285 761 0 287 288 282 283 30 286 810 0 2
88 283 289 0 +6.5 0 0 0 0 1 16 288 760 0 41 238 285 286 30 289 809 0 238 286 290
 0 +7.5 0 0 0 0 1 16 238 759 0 237 291 288 289 31 290 808 0 291 289 292 0 +7.355
662432703 .6875 .0625 0 0 -1 -1 0 0 .375 16 291 758 0 53 293 238 290 31 292 807
 0 293 290 294 0 +7.355662432703 .6875 0 0 0 1 1 0 0 .375 16 293 757 0 24 295 29
1 292 30 294 806 0 295 292 296 0 +7.68042195912193 .499999999999883 0 0 0 1 16 2
95 756 0 297 298 293 294 30 296 805 0 298 294 18 0 +7.14837338330533 .9999999999
99694 0 0 0 1 16 298 755 0 299 14 295 296 31 18 804 0 14 296 9 0 +6.644337567297
 .6875 .0625 0 0 -1 -1 0 0 .375 16 14 754 0 50 6 298 18 17 50 300 27 47 48 301 1
4 15 300 728 0 44 302 0 17 27 300 53 50 25 261 259 17 47 300 50 44 45 264 262 17
 301 12 303 281 45 50 14 15 12 734 0 304 5 0 17 303 12 304 301 34 284 282 17 281
 12 301 304 48 305 279 17 304 12 281 303 7 13 6 17 305 306 307 261 7 281 279 15
 306 746 0 305 308 0 17 307 306 299 305 22 15 270 17 261 306 305 299 48 27 259 1
7 299 306 261 307 25 309 298 17 309 310 21 311 22 299 298 15 310 738 0 21 11 0 1
7 21 310 297 309 16 24 293 17 311 310 309 297 25 53 291 17 297 310 311 21 51 312
 295 17 53 300 56 27 51 311 291 17 56 300 59 53 54 258 256 17 59 300 313 56 57 2
55 253 17 258 314 312 278 51 56 256 15 314 748 0 312 315 0 17 312 314 244 258 16
 297 295 17 278 314 258 244 54 316 276 17 244 314 278 312 60 317 241 17 316 318
 319 255 60 278 276 15 318 750 0 319 320 0 17 319 318 237 316 36 62 268 17 255 3
18 316 237 54 59 253 17 237 318 255 319 57 38 238 17 62 239 317 231 60 319 268 1
5 239 681 0 30 321 0 17 317 239 24 62 16 244 241 17 24 239 15 317 22 21 293 17 1
5 239 13 24 7 307 270 17 13 239 33 15 34 304 6 17 33 239 30 13 31 322 272 17 30
 239 323 33 28 324 274 17 322 325 284 326 34 33 272 15 325 744 0 326 327 0 17 28
4 325 264 322 45 303 282 17 326 325 322 264 31 287 285 17 264 325 326 284 42 47
 262 17 287 328 267 324 42 326 285 15 328 742 0 329 330 0 17 267 328 329 287 39
 44 265 17 324 328 287 329 31 30 274 17 329 328 324 267 28 41 288 17 41 331 252
 332 39 329 288 15 331 699 0 41 333 0 17 252 331 86 41 105 334 245 17 332 331 41
 86 28 323 335 17 86 331 332 252 84 336 337 17 323 239 110 30 84 332 335 16 335
 457 0 332 338 339 340 16 338 465 0 341 342 335 343 16 339 361 0 131 335 344 345
 30 340 459 0 335 345 343 0 +4 0 0 1 0 0 31 345 411 0 339 346 340 0 +2.644337567
297 .6875 0 0 0 1 1 0 0 .375 30 343 467 0 338 340 347 0 +5.42269623255035 .05360
59471608897 0 -.500000000000503 -.866025403784148 0 30 347 496 0 342 343 348 0 +
4 0 .0625 -1 0 0 16 342 494 0 349 350 338 347 30 348 630 0 350 347 351 0 +5.5 0
 .0625 0 1 0 16 350 580 0 352 353 342 348 30 351 629 0 353 348 354 0 +5.5 .1875
 .0625 .500000000000503 .866025403784148 0 16 353 579 0 355 356 350 351 30 354 6
28 0 356 351 357 0 +5.148373383305 1 .0625 -1 0 0 16 356 578 0 358 359 353 354 3
0 357 627 0 359 354 360 0 +4.319578040878 .5 .0625 .500000000000503 -.8660254037
84148 0 16 359 577 0 361 362 356 357 30 360 626 0 362 357 363 0 +4.5 .1875 .0625
 0 -1 0 16 362 576 0 364 365 359 360 30 363 624 0 365 360 366 0 +5.5 0 0 0 1 0 1
6 365 574 0 110 367 362 363 30 366 622 0 367 363 368 0 +5.148373383305 1 0 -1 0
 0 16 367 572 0 65 369 365 366 30 368 621 0 369 366 370 0 +4.319578040878 .5 0 .
500000000000503 -.866025403784148 0 16 369 571 0 80 371 367 368 30 370 620 0 371
 368 372 0 +4.5 .1875 0 0 -1 0 16 371 570 0 77 373 369 370 30 372 618 0 373 370
 374 0 +5.5 .1875 0 0 0 1 16 373 568 0 375 376 371 372 30 374 617 0 376 372 377
 0 +4.851626616695 1 0 0 0 1 16 376 567 0 378 379 373 374 30 377 616 0 379 374 3
80 0 +4.319578040878 .5 0 0 0 1 16 379 566 0 381 382 376 377 30 380 615 0 382 37
7 383 0 +4.5 .1875 0 0 0 1 16 382 565 0 384 385 379 380 30 383 614 0 385 380 386
 0 +4.5 0 0 0 0 1 16 385 564 0 89 337 382 383 30 386 613 0 337 383 387 0 +5.5 0
 0 0 0 1 16 337 563 0 336 388 385 386 31 387 612 0 388 386 389 0 +5.355662432703
 .6875 .0625 0 0 -1 -1 0 0 .375 16 388 562 0 101 390 337 387 31 389 611 0 390 38
7 391 0 +5.355662432703 .6875 0 0 0 1 1 0 0 .375 16 390 561 0 71 392 388 389 30
 391 610 0 392 389 393 0 +5.68042195912193 .499999999999883 0 0 0 1 16 392 560 0
 394 395 390 391 30 393 609 0 395 391 249 0 +5.14837338330533 .999999999999694 0
 0 0 1 16 395 559 0 396 247 392 393 31 249 608 0 247 393 248 0 +4.644337567297 .
6875 .0625 0 0 -1 -1 0 0 .375 16 247 558 0 98 242 395 249 17 98 300 74 95 96 397
 247 17 74 300 101 98 72 358 356 17 95 300 98 92 93 361 359 17 397 398 399 378 9
3 98 247 15 398 538 0 400 401 0 17 399 398 400 397 81 381 379 17 378 398 397 400
 96 402 376 17 400 398 378 399 63 83 242 17 402 403 404 358 63 378 376 15 403 55
0 0 402 405 0 17 404 403 396 402 69 65 367 17 358 403 402 396 96 74 356 17 396 4
03 358 404 72 406 395 17 406 407 68 408 69 396 395 15 407 542 0 68 409 0 17 68 4
07 394 406 66 71 390 17 408 407 406 394 72 101 388 17 394 407 408 68 99 410 392
 17 101 300 104 74 99 408 388 17 104 300 107 101 102 355 353 17 107 300 334 104
 105 352 350 17 355 411 410 375 99 104 353 15 411 552 0 410 412 0 17 410 411 341
 355 66 394 392 17 375 411 355 341 102 413 373 17 341 411 375 410 108 414 338 17
 413 415 416 352 108 375 373 15 415 554 0 416 417 0 17 416 415 336 413 84 110 36
5 17 352 415 413 336 102 107 350 17 336 415 352 416 105 86 337 17 110 239 414 32
3 108 416 365 17 414 239 71 110 66 341 338 17 71 239 65 414 69 68 390 17 65 239
 83 71 63 404 367 17 83 239 80 65 81 400 242 17 80 239 77 83 78 418 369 17 77 23
9 419 80 75 420 371 17 418 421 381 422 81 80 369 15 421 548 0 422 423 0 17 381 4
21 361 418 93 399 379 17 422 421 418 361 78 384 382 17 361 421 422 381 90 95 359
 17 384 424 364 420 90 422 382 15 424 546 0 425 426 0 17 364 424 425 384 87 92 3
62 17 420 424 384 425 78 77 371 17 425 424 420 364 75 89 385 17 89 427 349 428 8
7 425 385 15 427 503 0 89 429 0 17 349 427 134 89 153 430 342 17 428 427 89 134
 75 419 431 17 134 427 428 349 132 432 433 17 419 239 158 77 132 428 431 16 431
 261 0 428 434 435 436 16 434 269 0 437 438 431 439 16 435 165 0 179 431 440 441
 30 436 263 0 431 441 439 0 +4 0 0 1 0 0 31 441 215 0 435 442 436 0 +.6443375672
97 .6875 0 0 0 1 1 0 0 .375 30 439 271 0 434 436 443 0 +3.92269623255135 .919631
350945909 0 -.500000000000503 -.866025403784148 0 30 443 300 0 438 439 444 0 +4
 0 .0625 -1 0 0 16 438 298 0 445 446 434 443 30 444 434 0 446 443 447 0 +3.5 0 .
0625 0 1 0 16 446 384 0 448 449 438 444 30 447 433 0 449 444 450 0 +3.5 .1875 .0
625 .500000000000503 .866025403784148 0 16 449 383 0 451 452 446 447 30 450 432
 0 452 447 453 0 +3.148373383305 1 .0625 -1 0 0 16 452 382 0 454 455 449 450 30
 453 431 0 455 450 456 0 +2.319578040878 .5 .0625 .500000000000503 -.86602540378
4148 0 16 455 381 0 457 458 452 453 30 456 430 0 458 453 459 0 +2.5 .1875 .0625
 0 -1 0 16 458 380 0 460 461 455 456 30 459 428 0 461 456 462 0 +3.5 0 0 0 1 0 1
6 461 378 0 158 463 458 459 30 462 426 0 463 459 464 0 +3.148373383305 1 0 -1 0
 0 16 463 376 0 113 465 461 462 30 464 425 0 465 462 466 0 +2.319578040878 .5 0
 .500000000000503 -.866025403784148 0 16 465 375 0 128 467 463 464 30 466 424 0
 467 464 468 0 +2.5 .1875 0 0 -1 0 16 467 374 0 125 469 465 466 30 468 422 0 469
 466 470 0 +3.5 .1875 0 0 0 1 16 469 372 0 471 472 467 468 30 470 421 0 472 468
 473 0 +2.851626616695 1 0 0 0 1 16 472 371 0 474 475 469 470 30 473 420 0 475 4
70 476 0 +2.319578040878 .5 0 0 0 1 16 475 370 0 477 478 472 473 30 476 419 0 47
8 473 479 0 +2.5 .1875 0 0 0 1 16 478 369 0 480 481 475 476 30 479 418 0 481 476
 482 0 +2.5 0 0 0 0 1 16 481 368 0 137 433 478 479 30 482 417 0 433 479 483 0 +3
.5 0 0 0 0 1 16 433 367 0 432 484 481 482 31 483 416 0 484 482 485 0 +3.35566243
2703 .6875 .0625 0 0 -1 -1 0 0 .375 16 484 366 0 149 486 433 483 31 485 415 0 48
6 483 487 0 +3.355662432703 .6875 0 0 0 1 1 0 0 .375 16 486 365 0 119 488 484 48
5 30 487 414 0 488 485 489 0 +3.68042195912193 .499999999999883 0 0 0 1 16 488 3
64 0 490 491 486 487 30 489 413 0 491 487 346 0 +3.148373383305325 .999999999999
694 0 0 0 1 16 491 363 0 492 344 488 489 31 346 412 0 344 489 345 0 +2.644337567
297 .6875 .0625 0 0 -1 -1 0 0 .375 16 344 362 0 146 339 491 346 17 146 300 122 1
43 144 493 344 17 122 300 149 146 120 454 452 17 143 300 146 140 141 457 455 17
 493 494 495 474 141 146 344 15 494 342 0 496 497 0 17 495 494 496 493 129 477 4
75 17 474 494 493 496 144 498 472 17 496 494 474 495 111 131 339 17 498 499 500
 454 111 474 472 15 499 354 0 498 501 0 17 500 499 492 498 117 113 463 17 454 49
9 498 492 144 122 452 17 492 499 454 500 120 502 491 17 502 503 116 504 117 492
 491 15 503 346 0 116 505 0 17 116 503 490 502 114 119 486 17 504 503 502 490 12
0 149 484 17 490 503 504 116 147 506 488 17 149 300 152 122 147 504 484 17 152 3
00 155 149 150 451 449 17 155 300 430 152 153 448 446 17 451 507 506 471 147 152
 449 15 507 356 0 506 508 0 17 506 507 437 451 114 490 488 17 471 507 451 437 15
0 509 469 17 437 507 471 506 156 510 434 17 509 511 512 448 156 471 469 15 511 3
58 0 512 513 0 17 512 511 432 509 132 158 461 17 448 511 509 432 150 155 446 17
 432 511 448 512 153 134 433 17 158 239 510 419 156 512 461 17 510 239 119 158 1
14 437 434 17 119 239 113 510 117 116 486 17 113 239 131 119 111 500 463 17 131
 239 128 113 129 496 339 17 128 239 125 131 126 514 465 17 125 239 515 128 123 5
16 467 17 514 517 477 518 129 128 465 15 517 352 0 518 519 0 17 477 517 457 514
 141 495 475 17 518 517 514 457 126 480 478 17 457 517 518 477 138 143 455 17 48
0 520 460 516 138 518 478 15 520 350 0 521 522 0 17 460 520 521 480 135 140 458
 17 516 520 480 521 126 125 467 17 521 520 516 460 123 137 481 17 137 523 445 52
4 135 521 481 15 523 307 0 137 525 0 17 445 523 182 137 201 526 438 17 524 523 1
37 182 123 515 527 17 182 523 524 445 180 528 529 17 515 239 206 125 180 524 527
 16 527 65 0 524 530 531 532 16 530 73 0 533 534 527 535 16 531 31 0 234 527 536
 537 30 532 67 0 527 537 535 0 +4 0 0 1 0 0 30 537 59 0 531 538 532 0 +4 0 .0625
 -1 0 0 30 535 75 0 530 532 539 0 +2.42269623255236 1.78565675473093 0 -.5000000
00000503 -.866025403784148 0 30 539 104 0 534 535 540 0 +4 0 .0625 -1 0 0 16 534
 102 0 541 542 530 539 30 540 238 0 542 539 543 0 +1.5 0 .0625 0 1 0 16 542 188
 0 544 545 534 540 30 543 237 0 545 540 546 0 +1.5 .1875 .0625 .500000000000503
 .866025403784148 0 16 545 187 0 547 548 542 543 30 546 236 0 548 543 549 0 +1.1
48373383305 1 .0625 -1 0 0 16 548 186 0 550 551 545 546 30 549 235 0 551 546 552
 0 +.319578040878 .5 .0625 .500000000000503 -.866025403784148 0 16 551 185 0 553
 554 548 549 30 552 234 0 554 549 555 0 +.5 .1875 .0625 0 -1 0 16 554 184 0 556
 557 551 552 30 555 232 0 557 552 558 0 +1.5 0 0 0 1 0 16 557 182 0 206 559 554
 555 30 558 230 0 559 555 560 0 +1.148373383305 1 0 -1 0 0 16 559 180 0 161 561
 557 558 30 560 229 0 561 558 562 0 +.319578040878 .5 0 .500000000000503 -.86602
5403784148 0 16 561 179 0 176 563 559 560 30 562 228 0 563 560 564 0 +.5 .1875 0
 0 -1 0 16 563 178 0 173 565 561 562 30 564 226 0 565 562 566 0 +1.5 .1875 0 0 0
 1 16 565 176 0 567 568 563 564 30 566 225 0 568 564 569 0 +.851626616695 1 0 0
 0 1 16 568 175 0 570 571 565 566 30 569 224 0 571 566 572 0 +.319578040878 .5 0
 0 0 1 16 571 174 0 573 574 568 569 30 572 223 0 574 569 575 0 +.5 .1875 0 0 0 1
 16 574 173 0 576 577 571 572 30 575 222 0 577 572 578 0 +.5 0 0 0 0 1 16 577 17
2 0 185 529 574 575 30 578 221 0 529 575 579 0 +1.5 0 0 0 0 1 16 529 171 0 528 5
80 577 578 31 579 220 0 580 578 581 0 +1.355662432703 .6875 .0625 0 0 -1 -1 0 0
 .375 16 580 170 0 197 582 529 579 31 581 219 0 582 579 583 0 +1.355662432703 .6
875 0 0 0 1 1 0 0 .375 16 582 169 0 167 584 580 581 30 583 218 0 584 581 585 0 +
1.68042195912193 .499999999999883 0 0 0 1 16 584 168 0 586 587 582 583 30 585 21
7 0 587 583 442 0 +1.148373383305326 .999999999999694 0 0 0 1 16 587 167 0 588 4
40 584 585 31 442 216 0 440 585 441 0 +.644337567297 .6875 .0625 0 0 -1 -1 0 0 .
375 16 440 166 0 194 435 587 442 17 194 300 170 191 192 589 440 17 170 300 197 1
94 168 550 548 17 191 300 194 188 189 553 551 17 589 590 591 570 189 194 440 15
 590 146 0 592 593 0 17 591 590 592 589 177 573 571 17 570 590 589 592 192 594 5
68 17 592 590 570 591 159 179 435 17 594 595 596 550 159 570 568 15 595 158 0 59
4 597 0 17 596 595 588 594 165 161 559 17 550 595 594 588 192 170 548 17 588 595
 550 596 168 598 587 17 598 599 164 600 165 588 587 15 599 150 0 164 601 0 17 16
4 599 586 598 162 167 582 17 600 599 598 586 168 197 580 17 586 599 600 164 195
 602 584 17 197 300 200 170 195 600 580 17 200 300 203 197 198 547 545 17 203 30
0 526 200 201 544 542 17 547 603 602 567 195 200 545 15 603 160 0 602 604 0 17 6
02 603 533 547 162 586 584 17 567 603 547 533 198 605 565 17 533 603 567 602 204
 606 530 17 605 607 608 544 204 567 565 15 607 162 0 608 609 0 17 608 607 528 60
5 180 206 557 17 544 607 605 528 198 203 542 17 528 607 544 608 201 182 529 17 2
06 239 606 515 204 608 557 17 606 239 167 206 162 533 530 17 167 239 161 606 165
 164 582 17 161 239 179 167 159 596 559 17 179 239 176 161 177 592 435 17 176 23
9 173 179 174 610 561 17 173 239 611 176 171 612 563 17 610 613 573 614 177 176
 561 15 613 156 0 614 615 0 17 573 613 553 610 189 591 571 17 614 613 610 553 17
4 576 574 17 553 613 614 573 186 191 551 17 576 616 556 612 186 614 574 15 616 1
54 0 617 618 0 17 556 616 617 576 183 188 554 17 612 616 576 617 174 173 563 17
 617 616 612 556 171 185 577 17 185 619 541 620 183 617 577 15 619 111 0 185 621
 0 17 541 619 622 185 207 623 534 17 620 619 185 622 171 611 624 17 622 619 620
 541 220 209 625 17 611 239 626 173 220 620 624 16 624 9 0 620 627 628 629 16 62
7 11 0 222 630 624 631 16 628 3 0 228 624 0 632 30 629 39 0 624 0 632 0 +4 0 0 1
 0 0 30 632 40 0 628 629 633 0 +8 .875 0 0 1 0 30 633 41 0 630 632 631 0 +4 1.75
 0 -1 0 0 16 630 13 0 226 236 627 633 30 631 42 0 627 633 634 0 +0 .875 0 0 -1 0
 30 634 47 0 236 631 635 0 +8 0 0 0 0 1 16 236 15 0 218 636 630 634 30 635 48 0
 636 634 637 0 +8 1.75 0 0 0 1 16 636 17 0 215 638 236 635 30 637 49 0 638 635 6
39 0 +0 1.75 0 0 0 1 16 638 19 0 212 625 636 637 30 639 50 0 625 637 640 0 +0 0
 0 0 0 1 16 625 21 0 209 641 638 639 30 640 56 0 641 639 642 0 +8 .875 .0625 0 -
1 0 16 641 22 0 643 644 625 640 30 642 57 0 644 640 538 0 +4 1.75 .0625 1 0 0 16
 644 25 0 645 536 641 642 30 538 58 0 536 642 537 0 +0 .875 .0625 0 1 0 16 536 2
8 0 646 531 644 538 17 646 647 648 209 210 649 536 15 647 26 0 209 650 0 17 648
 647 222 646 223 212 638 17 209 647 646 222 207 622 625 17 649 300 623 651 207 6
46 536 17 623 300 188 649 183 541 534 17 651 300 649 652 210 645 644 17 652 300
 651 313 213 643 641 17 645 653 654 212 213 651 644 15 653 23 0 212 655 0 17 654
 653 226 645 219 215 636 17 212 653 645 226 210 648 638 17 226 653 212 654 223 6
56 630 17 656 239 240 626 219 226 630 17 240 239 231 656 224 228 628 17 626 239
 656 611 223 222 627 17 222 647 209 648 220 626 627 17 228 657 215 235 219 240 6
28 15 657 4 0 228 658 0 17 215 657 643 228 213 654 636 17 235 657 228 643 224 21
8 236 17 643 657 235 215 216 652 641 14 658 1 0 0 321 657 4 659 +14 321 6 0 658
 655 239 4 660 +50 659 43 0 658 660 661 0 +8 .875 0 1 0 0 0 0 -1 50 660 34 0 321
 0 659 0 +4 .875 0 0 0 -1 -1 0 0 50 661 44 0 655 659 662 0 +4 1.75 0 0 1 0 0 0 1
 14 655 24 0 321 650 653 4 661 +50 662 45 0 650 661 663 0 +0 .875 0 -1 0 0 0 0 1
 14 650 27 0 655 233 647 4 662 +50 663 46 0 233 662 664 0 +4 0 0 0 -1 0 0 0 -1 1
4 233 30 0 650 302 230 4 663 +50 664 51 0 302 663 665 0 +4 .875 .0625 0 0 1 1 0
 0 14 302 33 0 233 621 300 4 664 +50 665 109 0 621 664 666 0 +4 0 0 0 -1 0 0 0 -
1 14 621 108 0 302 609 619 4 665 +50 666 213 0 609 665 667 0 +1.5 .09375 0 1 0 0
 0 0 -1 14 609 161 0 621 604 607 4 666 -50 667 212 0 604 666 668 0 +1.5902109795
61 .34375 0 .866025403784148 -.500000000000503 0 .500000000000503 .8660254037841
48 0 14 604 159 0 609 597 603 4 667 -50 668 211 0 597 667 669 0 +1 1 0 0 1 0 0 0
 1 14 597 157 0 604 615 595 4 668 -50 669 210 0 615 668 670 0 +.409789020439 .34
375 0 -.866025403784148 -.500000000000503 0 .500000000000503 -.866025403784148 0
 14 615 155 0 597 618 613 4 669 -50 670 209 0 618 669 671 0 +.5 .09375 0 -1 0 0
 0 0 1 14 618 153 0 615 601 616 4 670 -51 671 207 0 601 670 672 0 +1.35566243270
3 .6875 0 0 0 1 .375 1 0 0 14 601 149 0 618 593 599 4 671 -51 672 205 0 593 671
 673 0 +.644337567297 .6875 0 0 0 1 .375 1 0 0 14 593 145 0 601 525 590 4 672 -5
0 673 305 0 525 672 674 0 +4 0 0 0 -1 0 0 0 -1 14 525 304 0 593 513 523 4 673 +5
0 674 409 0 513 673 675 0 +3.5 .09375 0 1 0 0 0 0 -1 14 513 357 0 525 508 511 4
 674 -50 675 408 0 508 674 676 0 +3.590210979561 .34375 0 .866025403784148 -.500
000000000503 0 .500000000000503 .866025403784148 0 14 508 355 0 513 501 507 4 67
5 -50 676 407 0 501 675 677 0 +3 1 0 0 1 0 0 0 1 14 501 353 0 508 519 499 4 676
 -50 677 406 0 519 676 678 0 +2.409789020439 .34375 0 -.866025403784148 -.500000
000000503 0 .500000000000503 -.866025403784148 0 14 519 351 0 501 522 517 4 677
 -50 678 405 0 522 677 679 0 +2.5 .09375 0 -1 0 0 0 0 1 14 522 349 0 519 505 520
 4 678 -51 679 403 0 505 678 680 0 +3.355662432703 .6875 0 0 0 1 .375 1 0 0 14 5
05 345 0 522 497 503 4 679 -51 680 401 0 497 679 681 0 +2.644337567297 .6875 0 0
 0 1 .375 1 0 0 14 497 341 0 505 429 494 4 680 -50 681 501 0 429 680 682 0 +4 0
 0 0 -1 0 0 0 -1 14 429 500 0 497 417 427 4 681 +50 682 605 0 417 681 683 0 +5.5
 .09375 0 1 0 0 0 0 -1 14 417 553 0 429 412 415 4 682 -50 683 604 0 412 682 684
 0 +5.590210979561 .34375 0 .866025403784148 -.500000000000503 0 .50000000000050
3 .866025403784148 0 14 412 551 0 417 405 411 4 683 -50 684 603 0 405 683 685 0
 +5 1 0 0 1 0 0 0 1 14 405 549 0 412 423 403 4 684 -50 685 602 0 423 684 686 0 +
4.409789020439 .34375 0 -.866025403784148 -.500000000000503 0 .500000000000503 -
.866025403784148 0 14 423 547 0 405 426 421 4 685 -50 686 601 0 426 685 687 0 +4
.5 .09375 0 -1 0 0 0 0 1 14 426 545 0 423 409 424 4 686 -51 687 599 0 409 686 68
8 0 +5.355662432703 .6875 0 0 0 1 .375 1 0 0 14 409 541 0 426 401 407 4 687 -51
 688 597 0 401 687 689 0 +4.644337567297 .6875 0 0 0 1 .375 1 0 0 14 401 537 0 4
09 333 398 4 688 -50 689 697 0 333 688 690 0 +4 0 0 0 -1 0 0 0 -1 14 333 696 0 4
01 320 331 4 689 +50 690 801 0 320 689 691 0 +7.5 .09375 0 1 0 0 0 0 -1 14 320 7
49 0 333 315 318 4 690 -50 691 800 0 315 690 692 0 +7.590210979561 .34375 0 .866
025403784148 -.500000000000503 0 .500000000000503 .866025403784148 0 14 315 747
 0 320 308 314 4 691 -50 692 799 0 308 691 693 0 +7 1 0 0 1 0 0 0 1 14 308 745 0
 315 327 306 4 692 -50 693 798 0 327 692 694 0 +6.409789020439 .34375 0 -.866025
403784148 -.500000000000503 0 .500000000000503 -.866025403784148 0 14 327 743 0
 308 330 325 4 693 -50 694 797 0 330 693 17 0 +6.5 .09375 0 -1 0 0 0 0 1 14 330
 741 0 327 11 328 4 694 -51 17 795 0 11 694 8 0 +7.355662432703 .6875 0 0 0 1 .3
75 1 0 0 14 11 737 0 330 5 310 4 17 -17 313 300 652 59 216 234 531 17 234 230 38
 218 57 313 531 17 188 300 191 623 186 556 554 17 526 300 140 203 135 445 438 17
 140 300 143 526 138 460 458 17 430 300 92 155 87 349 342 17 92 300 95 430 90 36
4 362 17 334 300 44 107 39 252 245 17 44 300 47 334 42 267 265 1 0 
