600 0 1 0           
106 GICL ACIS STEP Translator - Source: f:/data5/repository/Parasolid/NIST/Tom_Kramer/coupon/coupon.step - 6 0 13 ACIS 6.0.3 NT 24 Mon Apr 08 10:55:20 2002 
1 9.9999999999999995e-007 1e-010 
body $-1 $1 $-1 $-1 #
lump $-1 $-1 $2 $0 #
shell $-1 $-1 $-1 $3 $-1 $1 #
face $-1 $4 $5 $2 $-1 $6 reversed single #
face $-1 $7 $8 $2 $-1 $9 reversed single #
loop $-1 $-1 $10 $3 #
cone-surface $-1 6644.3375672969923 687.5000000000008 0 0 0 1 375.00000000000114 0 0 1 I I 0 1 375.00000000000114 forward I I I I #
face $-1 $11 $12 $2 $-1 $13 reversed single #
loop $-1 $-1 $14 $4 #
cone-surface $-1 7355.6624327029886 687.5000000000008 0 0 0 1 375.00000000000114 0 0 1 I I 0 1 375.00000000000114 forward I I I I #
coedge $-1 $15 $16 $17 $18 reversed $5 $-1 #
face $-1 $19 $20 $2 $-1 $21 reversed single #
loop $-1 $-1 $22 $7 #
plane-surface $-1 6500.00000000001 93.749999999999901 0 -1 0 0 0 0 25.399999999999999 forward_v I I I I #
coedge $-1 $23 $24 $25 $26 reversed $8 $-1 #
coedge $-1 $27 $10 $28 $29 forward $5 $-1 #
coedge $-1 $10 $27 $30 $31 reversed $5 $-1 #
coedge $-1 $32 $33 $10 $18 forward $34 $-1 #
edge $-1 $35 0.98511078333597579 $36 3.6651914291883254 $10 $37 forward 7 unknown #
face $-1 $38 $39 $2 $-1 $40 reversed single #
loop $-1 $-1 $41 $11 #
plane-surface $-1 6409.7890204389914 343.74999999999909 0 -0.86602540378414827 -0.50000000000050315 0 0 0 25.399999999999999 forward_v I I I I #
coedge $-1 $42 $43 $44 $45 reversed $12 $-1 #
coedge $-1 $46 $14 $47 $48 forward $8 $-1 #
coedge $-1 $14 $46 $49 $50 reversed $8 $-1 #
coedge $-1 $33 $51 $14 $26 forward $34 $-1 #
edge $-1 $52 -0.5235987755988698 $53 2.1564818702520112 $14 $54 forward 7 unknown #
coedge $-1 $16 $15 $55 $56 reversed $5 $-1 #
coedge $-1 $57 $58 $15 $29 reversed $39 $-1 #
edge $-1 $35 0 $59 2.4606299212598399 $15 $60 forward 7 unknown #
coedge $-1 $61 $62 $16 $31 forward $20 $-1 #
edge $-1 $36 0 $63 2.4606299212598399 $16 $64 forward 7 unknown #
coedge $-1 $65 $17 $62 $66 forward $34 $-1 #
coedge $-1 $17 $25 $57 $67 forward $34 $-1 #
loop $-1 $-1 $65 $68 #
vertex $-1 $18 $69 #
vertex $-1 $18 $70 #
ellipse-curve $-1 6644.3375672969923 687.5000000000008 0 0 0 1 375.00000000000114 0 0 1 I I #
face $-1 $71 $72 $2 $-1 $73 reversed single #
loop $-1 $-1 $28 $19 #
plane-surface $-1 6999.99999999999 1000.0000000000006 0 0 1 0 0 0 25.399999999999999 forward_v I I I I #
coedge $-1 $62 $61 $74 $75 reversed $20 $-1 #
coedge $-1 $74 $22 $65 $76 reversed $12 $-1 #
coedge $-1 $22 $74 $77 $78 forward $12 $-1 #
coedge $-1 $79 $80 $22 $45 forward $81 $-1 #
edge $-1 $82 0 $83 2.4606299212598399 $22 $84 forward 7 unknown #
coedge $-1 $24 $23 $85 $86 reversed $8 $-1 #
coedge $-1 $87 $88 $23 $48 reversed $72 $-1 #
edge $-1 $52 0 $89 2.4606299212598399 $23 $90 forward 7 unknown #
coedge $-1 $58 $57 $24 $50 forward $39 $-1 #
edge $-1 $53 0 $91 2.4606299212598399 $24 $92 forward 7 unknown #
coedge $-1 $25 $93 $87 $94 reversed $34 $-1 #
vertex $-1 $26 $95 #
vertex $-1 $26 $96 #
ellipse-curve $-1 7355.6624327029886 687.5000000000008 0 0 0 1 375.00000000000114 0 0 1 I I #
coedge $-1 $97 $98 $27 $56 forward $99 $-1 #
edge $-1 $63 -0.52359877559853252 $59 2.1564818702538173 $27 $100 forward 7 unknown #
coedge $-1 $49 $28 $33 $67 reversed $39 $-1 #
coedge $-1 $28 $49 $97 $101 forward $39 $-1 #
vertex $-1 $29 $102 #
straight-curve $-1 6851.6266166950008 1000.0000000000006 0 0 0 25.399999999999999 I I #
coedge $-1 $41 $30 $98 $103 forward $20 $-1 #
coedge $-1 $30 $41 $32 $66 reversed $20 $-1 #
vertex $-1 $56 $104 #
straight-curve $-1 6319.5780408780001 499.99999999999898 0 0 0 25.399999999999999 I I #
coedge $-1 $105 $32 $42 $76 forward $34 $-1 #
edge $-1 $36 0 $106 14.206453474159103 $62 $107 forward 7 unknown #
edge $-1 $53 -3.1036506698001176e-011 $35 11.68294356732298 $57 $108 forward 7 unknown #
face $-1 $109 $34 $2 $-1 $110 forward single #
point $-1 6851.6266166950008 1000.0000000000006 0 #
point $-1 6319.5780408780001 499.99999999999898 0 #
face $-1 $111 $112 $2 $-1 $113 reversed single #
loop $-1 $-1 $47 $38 #
plane-surface $-1 7590.2109795609895 343.74999999999909 0 0.86602540378414827 -0.50000000000050315 0 0 0 -25.399999999999999 forward_v I I I I #
coedge $-1 $43 $42 $41 $75 forward $12 $-1 #
edge $-1 $106 0 $114 2.4606299212598399 $74 $115 forward 7 unknown #
edge $-1 $106 0 $82 7.3818897637795304 $42 $116 forward 7 unknown #
coedge $-1 $98 $117 $43 $78 reversed $99 $-1 #
edge $-1 $114 0 $83 7.3818897637795304 $43 $118 forward 7 unknown #
coedge $-1 $119 $44 $117 $120 forward $81 $-1 #
coedge $-1 $44 $119 $105 $121 forward $81 $-1 #
loop $-1 $-1 $44 $111 #
vertex $-1 $45 $122 #
vertex $-1 $45 $123 #
straight-curve $-1 6500.00000000001 0 0 0 0 25.399999999999999 I I #
coedge $-1 $124 $97 $46 $86 forward $99 $-1 #
edge $-1 $91 0.9851107833360303 $89 3.6651914291882908 $46 $125 forward 7 unknown #
coedge $-1 $126 $47 $51 $94 forward $72 $-1 #
coedge $-1 $47 $126 $124 $127 forward $72 $-1 #
vertex $-1 $48 $128 #
straight-curve $-1 7680.4219591219307 499.99999999988211 0 0 0 25.399999999999999 I I #
vertex $-1 $86 $129 #
straight-curve $-1 7148.3733833053348 999.99999999969316 0 0 0 25.399999999999999 I I #
coedge $-1 $51 $130 $131 $132 forward $34 $-1 #
edge $-1 $52 -59.663443037152021 $133 -45.456989562998395 $87 $134 forward 7 unknown #
point $-1 7680.4219591219307 499.99999999988211 0 #
point $-1 7148.3733833057931 1000.0000000000006 0 #
coedge $-1 $85 $55 $58 $101 reversed $99 $-1 #
coedge $-1 $55 $77 $61 $103 reversed $99 $-1 #
loop $-1 $-1 $77 $135 #
ellipse-curve $-1 6644.3375672969923 687.5000000000008 62.499999999999929 0 0 -1 -375.00000000000114 0 0 1 I I #
edge $-1 $91 0 $59 11.68294356732298 $58 $136 forward 7 unknown #
point $-1 6851.6266166950008 1000.0000000000006 62.499999999999929 #
edge $-1 $63 0 $114 14.206453474159103 $61 $137 forward 7 unknown #
point $-1 6319.5780408780001 499.99999999999898 62.499999999999929 #
coedge $-1 $138 $65 $80 $121 reversed $34 $-1 #
vertex $-1 $76 $139 #
straight-curve $-1 6319.5780408780001 499.99999999999898 0 12.700000000012777 -21.99704525611736 0 I I #
straight-curve $-1 7148.3733833050046 1000.0000000000006 0 -25.399999999999999 0 0 I I #
face $-1 $-1 $140 $2 $-1 $141 forward single #
plane-surface $-1 4000.0000000000023 875.00000000000011 0 0 0 -1 -25.399999999999999 0 0 forward_v I I I I #
face $-1 $142 $81 $2 $-1 $143 forward single #
loop $-1 $-1 $131 $71 #
plane-surface $-1 7499.9999999999964 93.749999999999901 0 1 0 0 0 0 -25.399999999999999 forward_v I I I I #
vertex $-1 $75 $144 #
straight-curve $-1 6500.00000000001 187.50000000000006 0 0 0 25.399999999999999 I I #
straight-curve $-1 6500.00000000001 187.50000000000006 0 0 -25.399999999999999 0 I I #
coedge $-1 $77 $145 $79 $120 reversed $99 $-1 #
straight-curve $-1 6500.00000000001 187.50000000000006 62.499999999999929 0 -25.399999999999999 0 I I #
coedge $-1 $80 $79 $146 $147 reversed $81 $-1 #
edge $-1 $83 -98.425196850394002 $148 -59.055118110235981 $79 $149 forward 7 unknown #
edge $-1 $150 59.055118110235981 $82 98.425196850394002 $80 $151 forward 7 unknown #
point $-1 6500.00000000001 0 0 #
point $-1 6500.00000000001 0 62.499999999999929 #
coedge $-1 $152 $85 $88 $127 reversed $99 $-1 #
ellipse-curve $-1 7355.6624327029886 687.5000000000008 62.499999999999929 0 0 -1 -375.00000000000114 0 0 1 I I #
coedge $-1 $88 $87 $153 $154 forward $72 $-1 #
edge $-1 $155 0 $89 14.206453474159117 $88 $156 forward 7 unknown #
point $-1 7680.4219591220071 499.99999999999898 62.499999999999929 #
point $-1 7148.3733833050046 1000.0000000000006 62.499999999999929 #
coedge $-1 $93 $157 $158 $159 reversed $34 $-1 #
coedge $-1 $160 $153 $93 $132 reversed $112 $-1 #
edge $-1 $161 0 $133 7.3818897637795304 $131 $162 forward 7 unknown #
vertex $-1 $94 $163 #
straight-curve $-1 6922.6962325493378 -812.41945662413116 0 -12.700000000012777 -21.99704525611736 0 I I #
face $-1 $164 $99 $2 $-1 $165 forward single #
straight-curve $-1 7148.3733833050046 1000.0000000000006 62.499999999999929 -25.399999999999999 0 0 I I #
straight-curve $-1 6319.5780408780001 499.99999999999898 62.499999999999929 12.700000000012777 -21.99704525611736 0 I I #
coedge $-1 $166 $105 $167 $168 forward $34 $-1 #
point $-1 6500.00000000001 187.50000000000006 0 #
loop $-1 $-1 $169 $109 #
plane-surface $-1 8000.0000000000045 875.00000000000011 0 1 0 0 0 0 -25.399999999999999 forward_v I I I I #
face $-1 $170 $171 $2 $-1 $172 reversed single #
plane-surface $-1 4000.0000000000023 0 0 0 -1 0 0 0 -25.399999999999999 forward_v I I I I #
point $-1 6500.00000000001 187.50000000000006 62.499999999999929 #
coedge $-1 $117 $173 $174 $175 reversed $99 $-1 #
coedge $-1 $174 $167 $119 $147 forward $176 $-1 #
edge $-1 $150 0 $148 2.4606299212598399 $119 $177 forward 7 unknown #
vertex $-1 $120 $178 #
straight-curve $-1 4000.0000000000023 0 62.499999999999929 -25.399999999999999 0 0 I I #
vertex $-1 $147 $179 #
straight-curve $-1 4000.0000000000023 0 0 25.399999999999999 0 0 I I #
coedge $-1 $180 $124 $181 $182 reversed $99 $-1 #
coedge $-1 $131 $181 $126 $154 reversed $112 $-1 #
edge $-1 $133 0 $155 2.4606299212598399 $126 $183 forward 7 unknown #
vertex $-1 $154 $184 #
straight-curve $-1 7499.9999999999964 187.50000000000006 62.499999999999929 12.700000000012777 21.99704525611736 0 I I #
coedge $-1 $130 $185 $169 $186 reversed $34 $-1 #
coedge $-1 $187 $188 $130 $159 forward $189 $-1 #
edge $-1 $161 137.79527559055097 $190 157.48031496063001 $158 $191 forward 7 unknown #
coedge $-1 $181 $131 $188 $192 forward $112 $-1 #
vertex $-1 $132 $193 #
straight-curve $-1 7499.9999999999964 0 0 0 25.399999999999999 0 I I #
point $-1 7499.9999999999964 187.50000000000006 0 #
face $-1 $194 $189 $2 $-1 $195 forward single #
plane-surface $-1 4000.0000000000023 875.00000000000011 62.499999999999929 0 0 1 25.399999999999999 0 0 forward_v I I I I #
coedge $-1 $196 $138 $197 $198 reversed $34 $-1 #
coedge $-1 $146 $199 $138 $168 reversed $176 $-1 #
edge $-1 $150 0 $200 7.3818897637795304 $167 $201 forward 7 unknown #
coedge $-1 $202 $203 $157 $186 forward $140 $-1 #
face $-1 $204 $205 $2 $-1 $206 reversed single #
loop $-1 $-1 $207 $142 #
cone-surface $-1 4644.3375672969914 687.5000000000008 0 0 0 1 375.00000000000114 0 0 1 I I 0 1 375.00000000000114 forward I I I I #
coedge $-1 $145 $208 $209 $210 reversed $99 $-1 #
coedge $-1 $199 $146 $145 $175 forward $176 $-1 #
edge $-1 $148 0 $211 7.3818897637795304 $174 $212 forward 7 unknown #
loop $-1 $-1 $167 $213 #
straight-curve $-1 5499.9999999999955 0 0 0 0 25.399999999999999 I I #
point $-1 5499.9999999999955 0 62.499999999999929 #
point $-1 5499.9999999999955 0 0 #
coedge $-1 $214 $152 $215 $216 reversed $99 $-1 #
coedge $-1 $153 $160 $152 $182 forward $112 $-1 #
edge $-1 $217 0 $155 7.3818897637795304 $181 $218 forward 7 unknown #
straight-curve $-1 7499.9999999999964 187.50000000000006 0 0 0 25.399999999999999 I I #
point $-1 7499.9999999999964 187.50000000000006 62.499999999999929 #
coedge $-1 $157 $219 $220 $221 reversed $34 $-1 #
edge $-1 $190 -34.4488188976378 $222 34.4488188976378 $157 $223 forward 7 unknown #
coedge $-1 $215 $158 $203 $224 forward $189 $-1 #
coedge $-1 $158 $215 $160 $192 reversed $189 $-1 #
loop $-1 $-1 $188 $164 #
vertex $-1 $159 $225 #
straight-curve $-1 4000.0000000000023 0 0 25.399999999999999 0 0 I I #
edge $-1 $161 0 $217 2.4606299212598399 $160 $226 forward 7 unknown #
point $-1 7499.9999999999964 0 0 #
face $-1 $227 $228 $2 $-1 $229 forward single #
plane-surface $-1 4000.0000000000023 0 0 0 -1 0 0 0 -25.399999999999999 forward_v I I I I #
coedge $-1 $230 $166 $231 $232 forward $34 $-1 #
coedge $-1 $233 $234 $166 $198 forward $235 $-1 #
edge $-1 $236 -20.293364296954547 $200 -6.0869108228009248 $197 $237 forward 7 unknown #
coedge $-1 $167 $174 $233 $238 reversed $176 $-1 #
vertex $-1 $198 $239 #
straight-curve $-1 5499.9999999999955 0 0 0 25.399999999999999 0 I I #
coedge $-1 $240 $169 $241 $242 forward $140 $-1 #
coedge $-1 $169 $240 $187 $224 reversed $140 $-1 #
face $-1 $243 $244 $2 $-1 $245 reversed single #
loop $-1 $-1 $231 $170 #
cone-surface $-1 5355.6624327029876 687.5000000000008 0 0 0 1 375.00000000000114 0 0 1 I I 0 1 375.00000000000114 forward I I I I #
coedge $-1 $246 $247 $248 $249 reversed $171 $-1 #
coedge $-1 $173 $250 $251 $252 forward $99 $-1 #
coedge $-1 $234 $233 $173 $210 forward $235 $-1 #
edge $-1 $211 0 $253 14.206453474159103 $209 $254 forward 7 unknown #
vertex $-1 $238 $255 #
straight-curve $-1 5499.9999999999955 0 62.499999999999929 0 25.399999999999999 0 I I #
face $-1 $256 $176 $2 $-1 $257 reversed single #
coedge $-1 $258 $180 $240 $259 reversed $99 $-1 #
coedge $-1 $188 $187 $180 $216 forward $189 $-1 #
edge $-1 $260 -157.48031496063001 $217 -137.79527559055097 $180 $261 forward 7 unknown #
vertex $-1 $192 $262 #
straight-curve $-1 7499.9999999999964 0 62.499999999999929 0 25.399999999999999 0 I I #
coedge $-1 $185 $263 $264 $265 reversed $34 $-1 #
coedge $-1 $266 $241 $185 $221 forward $267 $-1 #
edge $-1 $222 -157.48031496063001 $268 157.48031496063001 $220 $269 forward 7 unknown #
vertex $-1 $242 $270 #
straight-curve $-1 8000.0000000000045 875.00000000000011 0 0 25.399999999999999 0 I I #
edge $-1 $190 0 $260 2.4606299212598399 $187 $271 forward 7 unknown #
point $-1 8000.0000000000045 0 0 #
straight-curve $-1 7499.9999999999964 0 0 0 0 25.399999999999999 I I #
face $-1 $68 $267 $2 $-1 $272 forward single #
loop $-1 $-1 $273 $194 #
plane-surface $-1 0 875.00000000000011 0 -1 0 0 0 0 25.399999999999999 forward_v I I I I #
coedge $-1 $248 $196 $274 $275 forward $34 $-1 #
coedge $-1 $276 $277 $196 $232 reversed $205 $-1 #
edge $-1 $236 -0.52359877559886892 $278 2.1564818702520112 $231 $279 forward 7 unknown #
coedge $-1 $209 $197 $199 $238 forward $235 $-1 #
coedge $-1 $197 $209 $276 $280 reversed $235 $-1 #
loop $-1 $-1 $234 $281 #
vertex $-1 $232 $282 #
straight-curve $-1 5422.69623255036 53.605947160889734 0 -12.700000000012777 -21.99704525611736 0 I I #
edge $-1 $200 0 $211 2.4606299212598399 $233 $283 forward 7 unknown #
point $-1 5499.9999999999955 187.50000000000006 0 #
coedge $-1 $203 $202 $214 $259 forward $140 $-1 #
coedge $-1 $220 $284 $202 $242 reversed $267 $-1 #
edge $-1 $222 0 $285 2.4606299212598399 $241 $286 forward 7 unknown #
face $-1 $287 $288 $2 $-1 $289 reversed single #
loop $-1 $-1 $290 $204 #
plane-surface $-1 4500.0000000000082 93.749999999999901 0 -1 0 0 0 0 25.399999999999999 forward_v I I I I #
coedge $-1 $291 $207 $292 $293 forward $171 $-1 #
coedge $-1 $207 $291 $294 $295 reversed $171 $-1 #
coedge $-1 $296 $230 $207 $249 forward $34 $-1 #
edge $-1 $297 0.98511078333597579 $298 3.6651914291883245 $207 $299 forward 7 unknown #
coedge $-1 $208 $300 $301 $302 reversed $99 $-1 #
coedge $-1 $277 $276 $208 $252 reversed $205 $-1 #
edge $-1 $303 0.98511078333603352 $253 3.6651914291882908 $251 $304 forward 7 unknown #
vertex $-1 $280 $305 #
straight-curve $-1 5499.9999999999955 187.50000000000006 62.499999999999929 12.700000000012777 21.99704525611736 0 I I #
point $-1 5499.9999999999955 187.50000000000006 62.499999999999929 #
face $-1 $306 $307 $2 $-1 $308 forward single #
plane-surface $-1 5499.9999999999955 93.749999999999901 0 1 0 0 0 0 -25.399999999999999 forward_v I I I I #
coedge $-1 $309 $214 $284 $310 reversed $99 $-1 #
edge $-1 $285 -34.4488188976378 $260 34.4488188976378 $214 $311 forward 7 unknown #
vertex $-1 $216 $312 #
straight-curve $-1 4000.0000000000023 0 62.499999999999929 -25.399999999999999 0 0 I I #
point $-1 7499.9999999999964 0 62.499999999999929 #
coedge $-1 $219 $313 $314 $315 reversed $34 $-1 #
coedge $-1 $273 $316 $219 $265 forward $228 $-1 #
edge $-1 $268 -34.4488188976378 $317 34.4488188976378 $264 $318 forward 7 unknown #
coedge $-1 $284 $220 $316 $319 forward $267 $-1 #
loop $-1 $-1 $266 $227 #
vertex $-1 $319 $320 #
straight-curve $-1 4000.0000000000023 1750.0000000000002 0 -25.399999999999999 0 0 I I #
point $-1 8000.0000000000045 1750.0000000000002 0 #
straight-curve $-1 8000.0000000000045 0 0 0 0 25.399999999999999 I I #
plane-surface $-1 4000.0000000000023 1750.0000000000002 0 0 1 0 0 0 25.399999999999999 forward_v I I I I #
coedge $-1 $321 $264 $322 $323 forward $228 $-1 #
coedge $-1 $324 $292 $230 $275 reversed $325 $-1 #
edge $-1 $278 -3.0979663279140368e-011 $297 11.682943567323008 $274 $326 forward 7 unknown #
coedge $-1 $251 $231 $234 $280 forward $205 $-1 #
coedge $-1 $231 $251 $324 $327 reversed $205 $-1 #
vertex $-1 $232 $328 #
ellipse-curve $-1 5355.6624327029876 687.5000000000008 0 0 0 1 375.00000000000114 0 0 1 I I #
edge $-1 $236 0 $253 2.4606299212598399 $276 $329 forward 7 unknown #
face $-1 $213 $235 $2 $-1 $330 reversed single #
point $-1 5680.4219591219298 499.99999999988211 0 #
straight-curve $-1 5499.9999999999955 187.50000000000006 0 0 0 25.399999999999999 I I #
coedge $-1 $241 $266 $258 $310 forward $267 $-1 #
vertex $-1 $259 $331 #
straight-curve $-1 8000.0000000000045 1750.0000000000002 0 0 0 25.399999999999999 I I #
face $-1 $281 $325 $2 $-1 $332 reversed single #
loop $-1 $-1 $333 $243 #
plane-surface $-1 4409.7890204389905 343.74999999999909 0 -0.86602540378414827 -0.50000000000050315 0 0 0 25.399999999999999 forward_v I I I I #
coedge $-1 $334 $335 $336 $337 reversed $244 $-1 #
coedge $-1 $247 $246 $300 $338 reversed $171 $-1 #
coedge $-1 $274 $301 $246 $293 reversed $325 $-1 #
edge $-1 $297 0 $339 2.4606299212598399 $246 $340 forward 7 unknown #
coedge $-1 $341 $342 $247 $295 forward $288 $-1 #
edge $-1 $298 0 $343 2.4606299212598399 $247 $344 forward 7 unknown #
coedge $-1 $345 $248 $342 $346 forward $34 $-1 #
vertex $-1 $249 $347 #
vertex $-1 $249 $348 #
ellipse-curve $-1 4644.3375672969914 687.5000000000008 0 0 0 1 375.00000000000114 0 0 1 I I #
coedge $-1 $250 $349 $291 $338 forward $99 $-1 #
coedge $-1 $292 $324 $250 $302 forward $325 $-1 #
edge $-1 $303 0 $339 11.682943567323008 $301 $350 forward 7 unknown #
vertex $-1 $252 $351 #
ellipse-curve $-1 5355.6624327029876 687.5000000000008 62.499999999999929 0 0 -1 -375.00000000000114 0 0 1 I I #
point $-1 5680.4219591220053 499.99999999999898 62.499999999999929 #
face $-1 $352 $353 $2 $-1 $354 reversed single #
loop $-1 $-1 $336 $256 #
plane-surface $-1 4000.0000000000023 0 0 0 -1 0 0 0 -25.399999999999999 forward_v I I I I #
coedge $-1 $355 $258 $321 $356 reversed $99 $-1 #
edge $-1 $357 -157.48031496063001 $285 157.48031496063001 $258 $358 forward 7 unknown #
straight-curve $-1 8000.0000000000045 875.00000000000011 62.499999999999929 0 -25.399999999999999 0 I I #
point $-1 8000.0000000000045 0 62.499999999999929 #
coedge $-1 $263 $359 $360 $361 forward $34 $-1 #
coedge $-1 $362 $322 $263 $315 forward $363 $-1 #
edge $-1 $317 -157.48031496063001 $364 -137.79527559055131 $314 $365 forward 7 unknown #
coedge $-1 $264 $321 $266 $319 reversed $228 $-1 #
vertex $-1 $323 $366 #
straight-curve $-1 0 875.00000000000011 0 0 -25.399999999999999 0 I I #
edge $-1 $268 0 $357 2.4606299212598399 $316 $367 forward 7 unknown #
point $-1 0 1750.0000000000002 0 #
coedge $-1 $316 $273 $309 $356 forward $228 $-1 #
coedge $-1 $314 $368 $273 $323 reversed $363 $-1 #
edge $-1 $317 0 $369 2.4606299212598399 $322 $370 forward 7 unknown #
coedge $-1 $301 $274 $277 $327 forward $325 $-1 #
loop $-1 $-1 $292 $287 #
straight-curve $-1 5148.3733833050046 1000.0000000000006 0 -25.399999999999999 0 0 I I #
edge $-1 $278 0 $303 2.4606299212598399 $277 $371 forward 7 unknown #
point $-1 5148.3733833057913 1000.0000000000006 0 #
straight-curve $-1 5680.4219591219298 499.99999999988211 0 0 0 25.399999999999999 I I #
plane-surface $-1 5590.2109795609886 343.74999999999909 0 0.86602540378414827 -0.50000000000050315 0 0 0 -25.399999999999999 forward_v I I I I #
point $-1 8000.0000000000045 1750.0000000000002 62.499999999999929 #
plane-surface $-1 4999.99999999999 1000.0000000000006 0 0 1 0 0 0 25.399999999999999 forward_v I I I I #
coedge $-1 $342 $341 $372 $373 reversed $288 $-1 #
coedge $-1 $372 $290 $345 $374 reversed $244 $-1 #
coedge $-1 $290 $372 $375 $376 forward $244 $-1 #
coedge $-1 $377 $378 $290 $337 forward $307 $-1 #
edge $-1 $379 0 $380 2.4606299212598399 $290 $381 forward 7 unknown #
edge $-1 $343 -0.52359877559853163 $339 2.1564818702538173 $291 $382 forward 7 unknown #
vertex $-1 $293 $383 #
straight-curve $-1 4851.6266166949999 1000.0000000000006 0 0 0 25.399999999999999 I I #
coedge $-1 $333 $294 $349 $384 forward $288 $-1 #
coedge $-1 $294 $333 $296 $346 reversed $288 $-1 #
vertex $-1 $338 $385 #
straight-curve $-1 4319.5780408779983 499.99999999999898 0 0 0 25.399999999999999 I I #
coedge $-1 $386 $296 $334 $374 forward $34 $-1 #
edge $-1 $298 0 $387 14.206453474159103 $342 $388 forward 7 unknown #
point $-1 4851.6266166949999 1000.0000000000006 0 #
point $-1 4319.5780408779983 499.99999999999898 0 #
coedge $-1 $300 $375 $341 $384 reversed $99 $-1 #
straight-curve $-1 5148.3733833050046 1000.0000000000006 62.499999999999929 -25.399999999999999 0 0 I I #
point $-1 5148.3733833050046 1000.0000000000006 62.499999999999929 #
face $-1 $389 $390 $2 $-1 $391 reversed single #
loop $-1 $-1 $392 $306 #
cone-surface $-1 2644.3375672969905 687.5000000000008 0 0 0 1 375.00000000000114 0 0 1 I I 0 1 375.00000000000114 forward I I I I #
coedge $-1 $393 $309 $368 $394 reversed $99 $-1 #
edge $-1 $369 -34.4488188976378 $357 34.4488188976378 $309 $395 forward 7 unknown #
vertex $-1 $310 $396 #
straight-curve $-1 4000.0000000000023 1750.0000000000002 62.499999999999929 25.399999999999999 0 0 I I #
coedge $-1 $313 $397 $398 $399 forward $34 $-1 #
coedge $-1 $400 $401 $313 $361 reversed $402 $-1 #
edge $-1 $403 0 $364 7.3818897637795304 $360 $404 forward 7 unknown #
coedge $-1 $368 $314 $401 $405 forward $363 $-1 #
loop $-1 $-1 $362 $406 #
vertex $-1 $405 $407 #
straight-curve $-1 4000.0000000000023 0 0 25.399999999999999 0 0 I I #
point $-1 0 0 0 #
straight-curve $-1 0 1750.0000000000002 0 0 0 25.399999999999999 I I #
coedge $-1 $322 $362 $355 $394 forward $363 $-1 #
vertex $-1 $394 $408 #
straight-curve $-1 0 0 0 0 0 25.399999999999999 I I #
straight-curve $-1 5148.3733833053348 999.99999999969316 0 0 0 25.399999999999999 I I #
coedge $-1 $335 $334 $333 $373 forward $244 $-1 #
edge $-1 $387 0 $409 2.4606299212598399 $372 $410 forward 7 unknown #
edge $-1 $387 0 $379 7.3818897637795304 $334 $411 forward 7 unknown #
coedge $-1 $349 $412 $335 $376 reversed $99 $-1 #
edge $-1 $409 0 $380 7.3818897637795304 $335 $413 forward 7 unknown #
coedge $-1 $414 $336 $412 $415 forward $307 $-1 #
coedge $-1 $336 $414 $386 $416 forward $307 $-1 #
vertex $-1 $337 $417 #
vertex $-1 $337 $418 #
straight-curve $-1 4500.0000000000082 0 0 0 0 25.399999999999999 I I #
ellipse-curve $-1 4644.3375672969914 687.5000000000008 62.499999999999929 0 0 -1 -375.00000000000114 0 0 1 I I #
point $-1 4851.6266166949999 1000.0000000000006 62.499999999999929 #
edge $-1 $343 0 $409 14.206453474159103 $341 $419 forward 7 unknown #
point $-1 4319.5780408779983 499.99999999999898 62.499999999999929 #
coedge $-1 $420 $345 $378 $416 reversed $34 $-1 #
vertex $-1 $374 $421 #
straight-curve $-1 4319.5780408779983 499.99999999999898 0 12.700000000012777 -21.99704525611736 0 I I #
face $-1 $422 $423 $2 $-1 $424 reversed single #
loop $-1 $-1 $425 $352 #
cone-surface $-1 3355.6624327030122 687.5000000000008 0 0 0 1 375.00000000000114 0 0 1 I I 0 1 375.00000000000114 forward I I I I #
coedge $-1 $426 $427 $428 $429 reversed $353 $-1 #
coedge $-1 $430 $355 $431 $432 reversed $99 $-1 #
edge $-1 $433 137.79527559055131 $369 157.48031496063001 $368 $434 forward 7 unknown #
straight-curve $-1 0 875.00000000000011 62.499999999999929 0 25.399999999999999 0 I I #
point $-1 0 1750.0000000000002 62.499999999999929 #
coedge $-1 $359 $435 $436 $437 forward $34 $-1 #
coedge $-1 $438 $439 $359 $399 reversed $440 $-1 #
edge $-1 $441 0 $403 14.206453474158904 $398 $442 forward 7 unknown #
coedge $-1 $431 $360 $439 $443 forward $402 $-1 #
coedge $-1 $360 $431 $362 $405 reversed $402 $-1 #
loop $-1 $-1 $401 $444 #
vertex $-1 $361 $445 #
straight-curve $-1 499.99999999999898 187.50000000000006 0 0 -25.399999999999999 0 I I #
edge $-1 $364 0 $433 2.4606299212598399 $401 $446 forward 7 unknown #
face $-1 $135 $363 $2 $-1 $447 forward single #
point $-1 499.99999999999898 0 0 #
point $-1 0 0 62.499999999999929 #
vertex $-1 $373 $448 #
straight-curve $-1 4500.0000000000082 187.50000000000006 0 0 0 25.399999999999999 I I #
straight-curve $-1 4500.0000000000082 187.50000000000006 0 0 -25.399999999999999 0 I I #
coedge $-1 $375 $449 $377 $415 reversed $99 $-1 #
straight-curve $-1 4500.0000000000082 187.50000000000006 62.499999999999929 0 -25.399999999999999 0 I I #
coedge $-1 $378 $377 $450 $451 reversed $307 $-1 #
edge $-1 $380 -19.685039370078982 $452 19.685039370079011 $377 $453 forward 7 unknown #
edge $-1 $454 -19.685039370079011 $379 19.685039370078982 $378 $455 forward 7 unknown #
point $-1 4500.0000000000082 0 0 #
point $-1 4500.0000000000082 0 62.499999999999929 #
straight-curve $-1 4319.5780408779983 499.99999999999898 62.499999999999929 12.700000000012777 -21.99704525611736 0 I I #
coedge $-1 $456 $386 $457 $458 forward $34 $-1 #
point $-1 4500.0000000000082 187.50000000000006 0 #
face $-1 $459 $460 $2 $-1 $461 reversed single #
loop $-1 $-1 $462 $389 #
plane-surface $-1 2500 93.749999999999901 0 -1 0 0 0 0 25.399999999999999 forward_v I I I I #
coedge $-1 $463 $464 $465 $466 reversed $390 $-1 #
coedge $-1 $467 $392 $468 $469 forward $353 $-1 #
coedge $-1 $392 $467 $470 $471 reversed $353 $-1 #
coedge $-1 $472 $473 $392 $429 forward $34 $-1 #
edge $-1 $474 0.98511078333597579 $475 3.6651914291883285 $392 $476 forward 7 unknown #
coedge $-1 $477 $393 $478 $479 reversed $99 $-1 #
coedge $-1 $401 $400 $393 $432 forward $402 $-1 #
edge $-1 $480 0 $433 7.3818897637795304 $431 $481 forward 7 unknown #
vertex $-1 $405 $482 #
straight-curve $-1 4000.0000000000023 0 62.499999999999929 -25.399999999999999 0 0 I I #
coedge $-1 $397 $483 $484 $485 forward $34 $-1 #
coedge $-1 $486 $487 $397 $437 reversed $488 $-1 #
edge $-1 $489 0.98511078333599278 $441 3.6651914291883148 $436 $490 forward 7 unknown #
coedge $-1 $478 $398 $487 $491 forward $440 $-1 #
coedge $-1 $398 $478 $400 $443 reversed $440 $-1 #
loop $-1 $-1 $439 $492 #
vertex $-1 $437 $493 #
straight-curve $-1 319.57804087799934 499.99999999999898 0 12.700000000012777 -21.99704525611736 0 I I #
edge $-1 $403 0 $480 2.4606299212598399 $400 $494 forward 7 unknown #
face $-1 $492 $402 $2 $-1 $495 reversed single #
point $-1 499.99999999999898 187.50000000000006 0 #
straight-curve $-1 499.99999999999898 0 0 0 0 25.399999999999999 I I #
plane-surface $-1 4000.0000000000023 0 0 0 -1 0 0 0 -25.399999999999999 forward_v I I I I #
point $-1 4500.0000000000082 187.50000000000006 62.499999999999929 #
coedge $-1 $412 $496 $497 $498 reversed $99 $-1 #
coedge $-1 $497 $457 $414 $451 forward $499 $-1 #
edge $-1 $454 0 $452 2.4606299212598399 $414 $500 forward 7 unknown #
vertex $-1 $415 $501 #
straight-curve $-1 4000.0000000000023 0 62.499999999999929 -25.399999999999999 0 0 I I #
vertex $-1 $451 $502 #
straight-curve $-1 4000.0000000000023 0 0 25.399999999999999 0 0 I I #
coedge $-1 $465 $420 $503 $504 reversed $34 $-1 #
coedge $-1 $450 $505 $420 $458 reversed $499 $-1 #
edge $-1 $454 0 $506 7.3818897637795304 $457 $507 forward 7 unknown #
face $-1 $508 $509 $2 $-1 $510 reversed single #
loop $-1 $-1 $511 $422 #
plane-surface $-1 2409.7890204390001 343.74999999999909 0 -0.86602540378414827 -0.50000000000050315 0 0 0 25.399999999999999 forward_v I I I I #
coedge $-1 $512 $513 $514 $515 reversed $423 $-1 #
coedge $-1 $516 $425 $517 $518 forward $390 $-1 #
coedge $-1 $425 $516 $519 $520 reversed $390 $-1 #
coedge $-1 $473 $456 $425 $466 forward $34 $-1 #
edge $-1 $521 -0.52359877559890355 $522 2.1564818702520672 $425 $523 forward 7 unknown #
coedge $-1 $427 $426 $524 $525 reversed $353 $-1 #
coedge $-1 $526 $527 $426 $469 reversed $509 $-1 #
edge $-1 $474 0 $528 2.4606299212598399 $426 $529 forward 7 unknown #
coedge $-1 $530 $531 $427 $471 forward $460 $-1 #
edge $-1 $475 0 $532 2.4606299212598399 $427 $533 forward 7 unknown #
coedge $-1 $534 $428 $531 $535 forward $34 $-1 #
coedge $-1 $428 $465 $526 $536 forward $34 $-1 #
vertex $-1 $429 $537 #
vertex $-1 $429 $538 #
ellipse-curve $-1 2644.3375672969905 687.5000000000008 0 0 0 1 375.00000000000114 0 0 1 I I #
coedge $-1 $539 $430 $540 $541 forward $99 $-1 #
coedge $-1 $439 $438 $430 $479 forward $440 $-1 #
edge $-1 $542 0 $480 14.206453474158904 $478 $543 forward 7 unknown #
vertex $-1 $443 $544 #
straight-curve $-1 499.99999999999898 187.50000000000006 62.499999999999929 0 -25.399999999999999 0 I I #
point $-1 499.99999999999898 0 62.499999999999929 #
coedge $-1 $435 $545 $546 $547 forward $34 $-1 #
coedge $-1 $548 $549 $435 $485 reversed $550 $-1 #
edge $-1 $551 -3.0901503578206757e-011 $489 11.682943567322802 $484 $552 forward 7 unknown #
coedge $-1 $540 $436 $549 $553 forward $488 $-1 #
coedge $-1 $436 $540 $438 $491 reversed $488 $-1 #
loop $-1 $-1 $436 $554 #
vertex $-1 $437 $555 #
ellipse-curve $-1 644.33756729699974 687.5000000000008 0 0 0 1 375.00000000000114 0 0 1 I I #
edge $-1 $441 0 $542 2.4606299212598399 $487 $556 forward 7 unknown #
face $-1 $557 $440 $2 $-1 $558 reversed single #
point $-1 319.57804087799934 499.99999999999898 0 #
straight-curve $-1 499.99999999999898 187.50000000000006 0 0 0 25.399999999999999 I I #
plane-surface $-1 499.99999999999898 93.749999999999901 0 -1 0 0 0 0 25.399999999999999 forward_v I I I I #
coedge $-1 $449 $559 $560 $561 reversed $99 $-1 #
coedge $-1 $505 $450 $449 $498 forward $499 $-1 #
edge $-1 $452 0 $562 7.3818897637795304 $497 $563 forward 7 unknown #
loop $-1 $-1 $457 $564 #
straight-curve $-1 3499.999999999995 0 0 0 0 25.399999999999999 I I #
point $-1 3499.999999999995 0 62.499999999999929 #
point $-1 3499.999999999995 0 0 #
coedge $-1 $565 $517 $456 $504 forward $566 $-1 #
edge $-1 $521 19.076714443242345 $506 33.283167917395957 $503 $567 forward 7 unknown #
coedge $-1 $457 $497 $565 $568 reversed $499 $-1 #
vertex $-1 $504 $569 #
straight-curve $-1 3499.999999999995 0 0 0 25.399999999999999 0 I I #
face $-1 $564 $566 $2 $-1 $570 reversed single #
loop $-1 $-1 $468 $459 #
plane-surface $-1 2999.9999999999886 1000.0000000000006 0 0 1 0 0 0 25.399999999999999 forward_v I I I I #
coedge $-1 $531 $530 $571 $572 reversed $460 $-1 #
coedge $-1 $571 $462 $534 $573 reversed $423 $-1 #
coedge $-1 $462 $571 $574 $575 forward $423 $-1 #
coedge $-1 $576 $577 $462 $515 forward $578 $-1 #
edge $-1 $579 0 $580 2.4606299212598399 $462 $581 forward 7 unknown #
coedge $-1 $464 $463 $559 $582 reversed $390 $-1 #
coedge $-1 $503 $560 $463 $518 reversed $566 $-1 #
edge $-1 $521 0 $583 2.4606299212598399 $463 $584 forward 7 unknown #
coedge $-1 $527 $526 $464 $520 forward $509 $-1 #
edge $-1 $522 0 $585 2.4606299212598399 $464 $586 forward 7 unknown #
vertex $-1 $466 $587 #
vertex $-1 $466 $588 #
ellipse-curve $-1 3355.6624327030122 687.5000000000008 0 0 0 1 375.00000000000114 0 0 1 I I #
coedge $-1 $589 $590 $467 $525 forward $99 $-1 #
edge $-1 $532 -0.5235987755985354 $528 2.1564818702538173 $467 $591 forward 7 unknown #
coedge $-1 $519 $468 $473 $536 reversed $509 $-1 #
coedge $-1 $468 $519 $589 $592 forward $509 $-1 #
vertex $-1 $469 $593 #
straight-curve $-1 2851.626616694999 1000.0000000000006 0 0 0 25.399999999999999 I I #
coedge $-1 $511 $470 $590 $594 forward $460 $-1 #
coedge $-1 $470 $511 $472 $535 reversed $460 $-1 #
vertex $-1 $525 $595 #
straight-curve $-1 2319.5780408780001 499.99999999999898 0 0 0 25.399999999999999 I I #
coedge $-1 $596 $472 $512 $573 forward $34 $-1 #
edge $-1 $475 0 $597 14.206453474158904 $531 $598 forward 7 unknown #
edge $-1 $522 -3.099387413385557e-011 $474 11.682943567323008 $526 $599 forward 7 unknown #
point $-1 2851.626616694999 1000.0000000000006 0 #
point $-1 2319.5780408780001 499.99999999999898 0 #
coedge $-1 $600 $477 $601 $602 reversed $99 $-1 #
coedge $-1 $487 $486 $477 $541 reversed $488 $-1 #
edge $-1 $542 -0.52359877559852175 $603 2.1564818702538004 $540 $604 forward 7 unknown #
vertex $-1 $541 $605 #
straight-curve $-1 319.57804087799934 499.99999999999898 62.499999999999929 12.700000000012777 -21.99704525611736 0 I I #
point $-1 499.99999999999898 187.50000000000006 62.499999999999929 #
coedge $-1 $483 $606 $607 $608 reversed $34 $-1 #
coedge $-1 $609 $610 $483 $547 reversed $611 $-1 #
edge $-1 $612 -0.52359877559888668 $551 2.1564818702520565 $546 $613 forward 7 unknown #
coedge $-1 $601 $484 $610 $614 forward $550 $-1 #
coedge $-1 $484 $601 $486 $553 reversed $550 $-1 #
loop $-1 $-1 $549 $557 #
vertex $-1 $547 $615 #
straight-curve $-1 1148.3733833050001 1000.0000000000006 0 -25.399999999999999 0 0 I I #
edge $-1 $489 0 $603 2.4606299212598399 $486 $616 forward 7 unknown #
face $-1 $617 $488 $2 $-1 $618 reversed single #
point $-1 851.62661669500085 1000.0000000000006 0 #
straight-curve $-1 319.57804087799934 499.99999999999898 0 0 0 25.399999999999999 I I #
face $-1 $619 $550 $2 $-1 $620 reversed single #
plane-surface $-1 409.78902043899916 343.74999999999909 0 -0.86602540378414827 -0.50000000000050315 0 0 0 25.399999999999999 forward_v I I I I #
coedge $-1 $496 $589 $516 $582 forward $99 $-1 #
coedge $-1 $517 $565 $496 $561 forward $566 $-1 #
edge $-1 $562 0 $583 14.206453474159103 $560 $621 forward 7 unknown #
vertex $-1 $568 $622 #
straight-curve $-1 3499.999999999995 0 62.499999999999929 0 25.399999999999999 0 I I #
face $-1 $623 $499 $2 $-1 $624 reversed single #
coedge $-1 $560 $503 $505 $568 forward $566 $-1 #
loop $-1 $-1 $517 $508 #
straight-curve $-1 3922.6962325513559 919.63135094590814 0 -12.700000000012777 -21.99704525611736 0 I I #
edge $-1 $506 0 $562 2.4606299212598399 $565 $625 forward 7 unknown #
point $-1 3499.999999999995 187.50000000000006 0 #
plane-surface $-1 3590.2109795609877 343.74999999999909 0 0.86602540378414827 -0.50000000000050315 0 0 0 -25.399999999999999 forward_v I I I I #
coedge $-1 $513 $512 $511 $572 forward $423 $-1 #
edge $-1 $597 0 $626 2.4606299212598399 $571 $627 forward 7 unknown #
edge $-1 $597 0 $579 7.3818897637795304 $512 $628 forward 7 unknown #
coedge $-1 $590 $629 $513 $575 reversed $99 $-1 #
edge $-1 $626 0 $580 7.3818897637795304 $513 $630 forward 7 unknown #
coedge $-1 $631 $514 $629 $632 forward $578 $-1 #
coedge $-1 $514 $631 $596 $633 forward $578 $-1 #
loop $-1 $-1 $514 $623 #
vertex $-1 $515 $634 #
vertex $-1 $515 $635 #
straight-curve $-1 2500 0 0 0 0 25.399999999999999 I I #
edge $-1 $585 0.98511078333597657 $583 3.6651914291883245 $516 $636 forward 7 unknown #
vertex $-1 $518 $637 #
straight-curve $-1 3680.4219591219285 499.99999999988211 0 0 0 25.399999999999999 I I #
vertex $-1 $582 $638 #
straight-curve $-1 3148.3733833053334 999.99999999969316 0 0 0 25.399999999999999 I I #
point $-1 3680.4219591219285 499.99999999988211 0 #
point $-1 3148.3733833057909 1000.0000000000006 0 #
coedge $-1 $559 $524 $527 $592 reversed $99 $-1 #
coedge $-1 $524 $574 $530 $594 reversed $99 $-1 #
ellipse-curve $-1 2644.3375672969905 687.5000000000008 62.499999999999929 0 0 -1 -375.00000000000114 0 0 1 I I #
edge $-1 $585 0 $528 11.682943567323008 $527 $639 forward 7 unknown #
point $-1 2851.626616694999 1000.0000000000006 62.499999999999929 #
edge $-1 $532 0 $626 14.206453474158904 $530 $640 forward 7 unknown #
point $-1 2319.5780408780001 499.99999999999898 62.499999999999929 #
coedge $-1 $606 $534 $577 $633 reversed $34 $-1 #
vertex $-1 $573 $641 #
straight-curve $-1 2319.5780408780001 499.99999999999898 0 12.700000000012777 -21.99704525611736 0 I I #
straight-curve $-1 3148.3733833050037 1000.0000000000006 0 -25.399999999999999 0 0 I I #
coedge $-1 $642 $539 $643 $644 forward $99 $-1 #
coedge $-1 $549 $548 $539 $602 forward $550 $-1 #
edge $-1 $645 0 $603 11.682943567322802 $601 $646 forward 7 unknown #
vertex $-1 $553 $647 #
ellipse-curve $-1 644.33756729699974 687.5000000000008 62.499999999999929 0 0 -1 -375.00000000000114 0 0 1 I I #
point $-1 319.57804087799934 499.99999999999898 62.499999999999929 #
coedge $-1 $545 $596 $648 $649 forward $34 $-1 #
coedge $-1 $650 $651 $545 $608 forward $652 $-1 #
edge $-1 $612 58.446793183439468 $653 72.653246657593016 $607 $654 forward 7 unknown #
coedge $-1 $643 $546 $651 $655 forward $611 $-1 #
coedge $-1 $546 $643 $548 $614 reversed $611 $-1 #
loop $-1 $-1 $546 $617 #
vertex $-1 $547 $656 #
ellipse-curve $-1 1355.6624327030013 687.5000000000008 0 0 0 1 375.00000000000114 0 0 1 I I #
edge $-1 $551 0 $645 2.4606299212598399 $610 $657 forward 7 unknown #
point $-1 1148.373383305785 1000.0000000000006 0 #
straight-curve $-1 851.62661669500085 1000.0000000000006 0 0 0 25.399999999999999 I I #
face $-1 $444 $611 $2 $-1 $658 reversed single #
cone-surface $-1 644.33756729699974 687.5000000000008 0 0 0 1 375.00000000000114 0 0 1 I I 0 1 375.00000000000114 forward I I I I #
face $-1 $659 $652 $2 $-1 $660 reversed single #
plane-surface $-1 1000.0000000000006 1000.0000000000006 0 0 1 0 0 0 25.399999999999999 forward_v I I I I #
straight-curve $-1 3499.999999999995 187.50000000000006 62.499999999999929 12.700000000012777 21.99704525611736 0 I I #
point $-1 3499.999999999995 187.50000000000006 62.499999999999929 #
face $-1 $554 $578 $2 $-1 $661 forward single #
plane-surface $-1 3499.999999999995 93.749999999999901 0 1 0 0 0 0 -25.399999999999999 forward_v I I I I #
straight-curve $-1 3499.999999999995 187.50000000000006 0 0 0 25.399999999999999 I I #
vertex $-1 $572 $662 #
straight-curve $-1 2500 187.50000000000006 0 0 0 25.399999999999999 I I #
straight-curve $-1 2500 187.50000000000006 0 0 -25.399999999999999 0 I I #
coedge $-1 $574 $663 $576 $632 reversed $99 $-1 #
straight-curve $-1 2500 187.50000000000006 62.499999999999929 0 -25.399999999999999 0 I I #
coedge $-1 $577 $576 $664 $665 reversed $578 $-1 #
edge $-1 $580 59.055118110236307 $666 98.425196850393803 $576 $667 forward 7 unknown #
edge $-1 $668 -98.425196850393803 $579 -59.055118110236307 $577 $669 forward 7 unknown #
point $-1 2500 0 0 #
point $-1 2500 0 62.499999999999929 #
ellipse-curve $-1 3355.6624327030122 687.5000000000008 62.499999999999929 0 0 -1 -375.00000000000114 0 0 1 I I #
point $-1 3680.4219591220049 499.99999999999898 62.499999999999929 #
point $-1 3148.3733833050037 1000.0000000000006 62.499999999999929 #
straight-curve $-1 3148.3733833050037 1000.0000000000006 62.499999999999929 -25.399999999999999 0 0 I I #
straight-curve $-1 2319.5780408780001 499.99999999999898 62.499999999999929 12.700000000012777 -21.99704525611736 0 I I #
point $-1 2500 187.50000000000006 0 #
coedge $-1 $663 $600 $670 $671 reversed $99 $-1 #
coedge $-1 $610 $609 $600 $644 reversed $611 $-1 #
edge $-1 $645 0.98511078333599256 $672 3.6651914291883183 $643 $673 forward 7 unknown #
vertex $-1 $644 $674 #
straight-curve $-1 1148.3733833050001 1000.0000000000006 62.499999999999929 -25.399999999999999 0 0 I I #
point $-1 851.62661669500085 1000.0000000000006 62.499999999999929 #
coedge $-1 $664 $675 $606 $649 reversed $676 $-1 #
edge $-1 $668 0 $653 7.3818897637795304 $648 $677 forward 7 unknown #
coedge $-1 $670 $607 $675 $678 forward $652 $-1 #
coedge $-1 $607 $670 $609 $655 reversed $652 $-1 #
loop $-1 $-1 $651 $619 #
vertex $-1 $608 $679 #
straight-curve $-1 2422.69623255236 1785.6567547309303 0 -12.700000000012777 -21.99704525611736 0 I I #
edge $-1 $612 0 $672 2.4606299212598399 $609 $680 forward 7 unknown #
point $-1 1680.4219591219303 499.99999999988211 0 #
straight-curve $-1 1148.373383305325 999.99999999969316 0 0 0 25.399999999999999 I I #
cone-surface $-1 1355.6624327030013 687.5000000000008 0 0 0 1 375.00000000000114 0 0 1 I I 0 1 375.00000000000114 forward I I I I #
face $-1 $406 $676 $2 $-1 $681 reversed single #
plane-surface $-1 1590.2109795609992 343.74999999999909 0 0.86602540378414827 -0.50000000000050315 0 0 0 -25.399999999999999 forward_v I I I I #
plane-surface $-1 4000.0000000000023 0 0 0 -1 0 0 0 -25.399999999999999 forward_v I I I I #
point $-1 2500 187.50000000000006 62.499999999999929 #
coedge $-1 $629 $642 $682 $683 reversed $99 $-1 #
coedge $-1 $682 $648 $631 $665 forward $676 $-1 #
edge $-1 $668 0 $666 2.4606299212598399 $631 $684 forward 7 unknown #
vertex $-1 $632 $685 #
straight-curve $-1 4000.0000000000023 0 62.499999999999929 -25.399999999999999 0 0 I I #
vertex $-1 $665 $686 #
straight-curve $-1 4000.0000000000023 0 0 25.399999999999999 0 0 I I #
coedge $-1 $651 $650 $642 $671 forward $652 $-1 #
edge $-1 $687 0 $672 14.2064534741589 $670 $688 forward 7 unknown #
vertex $-1 $655 $689 #
ellipse-curve $-1 1355.6624327030013 687.5000000000008 62.499999999999929 0 0 -1 -375.00000000000114 0 0 1 I I #
point $-1 1148.3733833050001 1000.0000000000006 62.499999999999929 #
coedge $-1 $648 $682 $650 $678 reversed $676 $-1 #
loop $-1 $-1 $648 $659 #
straight-curve $-1 1499.9999999999993 0 0 0 25.399999999999999 0 I I #
edge $-1 $653 0 $687 2.4606299212598399 $650 $690 forward 7 unknown #
point $-1 1499.9999999999993 187.50000000000006 0 #
straight-curve $-1 1680.4219591219303 499.99999999988211 0 0 0 25.399999999999999 I I #
plane-surface $-1 1499.9999999999993 93.749999999999901 0 1 0 0 0 0 -25.399999999999999 forward_v I I I I #
coedge $-1 $675 $664 $663 $683 forward $676 $-1 #
edge $-1 $666 0 $687 7.3818897637795304 $682 $691 forward 7 unknown #
straight-curve $-1 1499.9999999999993 0 0 0 0 25.399999999999999 I I #
point $-1 1499.9999999999993 0 62.499999999999929 #
point $-1 1499.9999999999993 0 0 #
vertex $-1 $678 $692 #
straight-curve $-1 1499.9999999999993 187.50000000000006 62.499999999999929 12.700000000012777 21.99704525611736 0 I I #
point $-1 1680.421959121999 499.99999999999898 62.499999999999929 #
straight-curve $-1 1499.9999999999993 187.50000000000006 0 0 0 25.399999999999999 I I #
straight-curve $-1 1499.9999999999993 0 62.499999999999929 0 25.399999999999999 0 I I #
point $-1 1499.9999999999993 187.50000000000006 62.499999999999929 #
End-of-ACIS-data 