600 0 1 0           
76 GICL ACIS Healer - Source: /gicl/data5/repository/new/Scanner/base.sat - 6 0 18 ACIS 6.0.3 Solaris 24 Sat Apr 13 20:36:02 2002 
1 9.999999999999999547e-07 1.000000000000000036e-10 
body $-1 $1 $-1 $-1 #
lump $-1 $-1 $2 $0 #
shell $-1 $-1 $-1 $3 $-1 $1 #
face $-1 $4 $5 $2 $-1 $6 reversed single #
face $-1 $7 $8 $2 $-1 $9 reversed single #
loop $-1 $-1 $10 $3 #
cone-surface $-1 3.94319999999999915 13.55930000000000035 7.5 0 0 -1 0 -1.999999999260011929 0 1 I I 0 1 1.999999999260011929 forward I I I I #
face $-1 $11 $12 $2 $-1 $13 reversed single #
loop $-1 $-1 $14 $4 #
plane-surface $-1 3.943199999260011523 11.55930000073998798 7.5 -3.699940352727087976e-10 -1 0 0 0 -1 forward_v I I I I #
coedge $-1 $15 $16 $17 $18 reversed $5 $-1 #
face $-1 $19 $20 $2 $-1 $21 reversed single #
loop $-1 $-1 $22 $7 #
plane-surface $-1 5.94319999999999915 11.55930000000000035 7.5 -1 0 0 0 0 1 forward_v I I I I #
coedge $-1 $23 $24 $25 $26 reversed $8 $-1 #
coedge $-1 $27 $10 $28 $29 reversed $5 $-1 #
coedge $-1 $10 $27 $23 $30 forward $5 $-1 #
coedge $-1 $25 $31 $10 $18 forward $32 $-1 #
edge $-1 $33 -3.141592653636041899 $34 -3.699940355464997901e-10 $17 $35 forward 7 unknown #
face $-1 $36 $37 $2 $-1 $38 reversed single #
loop $-1 $-1 $39 $11 #
cone-surface $-1 3.94319999999999915 1.559300000000000352 7.5 0 0 -1 0 -1.999999999260011929 0 1 I I 0 1 1.999999999260011929 forward I I I I #
coedge $-1 $40 $41 $42 $43 reversed $12 $-1 #
coedge $-1 $44 $14 $16 $30 reversed $8 $-1 #
coedge $-1 $14 $45 $46 $47 reversed $8 $-1 #
coedge $-1 $48 $17 $14 $26 forward $32 $-1 #
edge $-1 $34 -4.000000001109983216 $49 -2.000000000369992925 $25 $50 forward 7 unknown #
coedge $-1 $16 $15 $51 $52 reversed $5 $-1 #
coedge $-1 $53 $54 $15 $29 forward $55 $-1 #
edge $-1 $56 -0 $33 5 $15 $57 forward 7 unknown #
edge $-1 $58 0 $34 5 $23 $59 forward 7 unknown #
coedge $-1 $17 $60 $53 $61 forward $32 $-1 #
loop $-1 $62 $48 $63 #
vertex $-1 $18 $64 #
vertex $-1 $18 $65 #
ellipse-curve $-1 3.94319999999999915 13.55930000000000035 2.5 0 0 1 0 -1.999999999260011929 0 1 I I #
face $-1 $66 $67 $2 $-1 $68 reversed single #
loop $-1 $-1 $69 $19 #
plane-surface $-1 3.943199999907500697 -0.4406999992600120208 7.5 -4.62492266706249211e-11 -1 0 0 0 -1 forward_v I I I I #
coedge $-1 $70 $71 $72 $73 reversed $20 $-1 #
coedge $-1 $74 $22 $45 $75 reversed $12 $-1 #
coedge $-1 $22 $74 $76 $77 forward $12 $-1 #
coedge $-1 $78 $79 $22 $43 forward $80 $-1 #
edge $-1 $81 0 $82 7.99999999556007424 $42 $83 forward 7 unknown #
coedge $-1 $45 $23 $84 $85 reversed $8 $-1 #
coedge $-1 $24 $44 $40 $75 forward $8 $-1 #
coedge $-1 $86 $87 $24 $47 forward $88 $-1 #
edge $-1 $49 0 $81 2.5 $46 $89 forward 7 unknown #
coedge $-1 $60 $25 $87 $90 forward $32 $-1 #
vertex $-1 $90 $91 #
straight-curve $-1 7.943200000369993852 11.55929999926001273 2.5 1 -3.699940352727087976e-10 0 I I #
coedge $-1 $92 $84 $27 $52 forward $93 $-1 #
edge $-1 $58 3.699940355464997901e-10 $56 3.141592653636041899 $51 $94 reversed 7 unknown #
coedge $-1 $95 $28 $31 $61 reversed $55 $-1 #
coedge $-1 $28 $95 $92 $96 reversed $55 $-1 #
loop $-1 $-1 $53 $97 #
vertex $-1 $52 $98 #
straight-curve $-1 3.943200000092497604 15.55930000000000035 7.5 0 0 -1 I I #
vertex $-1 $52 $99 #
straight-curve $-1 3.943199999260011079 11.55930000073998798 7.5 0 0 -1 I I #
coedge $-1 $31 $48 $100 $101 forward $32 $-1 #
edge $-1 $102 -3.99999999986125232 $33 12.00000000013874946 $31 $103 forward 7 unknown #
loop $-1 $104 $105 $63 #
face $-1 $106 $32 $2 $-1 $107 reversed single #
point $-1 3.943200000092497159 15.55929999926001273 2.5 #
point $-1 3.943199999260011079 11.55930000073998798 2.5 #
face $-1 $108 $109 $2 $-1 $110 reversed single #
loop $-1 $-1 $111 $36 #
cone-surface $-1 19.94320000000000093 1.559300000000000352 7.5 0 0 -1 0 1.999999999260011929 0 1 I I 0 1 1.999999999260011929 forward I I I I #
coedge $-1 $112 $113 $114 $115 reversed $37 $-1 #
coedge $-1 $116 $39 $117 $118 reversed $20 $-1 #
coedge $-1 $39 $116 $112 $119 forward $20 $-1 #
coedge $-1 $114 $120 $39 $73 forward $104 $-1 #
edge $-1 $121 -3.141592653959786929 $122 -4.62492266706249211e-11 $72 $123 forward 7 unknown #
coedge $-1 $41 $40 $124 $125 reversed $12 $-1 #
edge $-1 $126 -0 $81 2.5 $40 $127 reversed 7 unknown #
coedge $-1 $128 $129 $41 $77 reversed $130 $-1 #
edge $-1 $131 -0 $82 2.5 $76 $132 reversed 7 unknown #
coedge $-1 $133 $42 $129 $134 reversed $80 $-1 #
coedge $-1 $42 $133 $86 $135 reversed $80 $-1 #
loop $-1 $-1 $133 $106 #
vertex $-1 $47 $136 #
vertex $-1 $77 $137 #
straight-curve $-1 5.94319999999999915 11.55930000000000035 5 0 -1 0 I I #
coedge $-1 $51 $124 $44 $85 forward $93 $-1 #
edge $-1 $126 2.12500000036999559 $58 4.125000001109983216 $84 $138 reversed 7 unknown #
coedge $-1 $139 $46 $79 $135 forward $88 $-1 #
coedge $-1 $46 $140 $48 $90 reversed $88 $-1 #
loop $-1 $-1 $86 $141 #
straight-curve $-1 5.943200000000000927 11.55930000000000035 2.5 0 0 1 I I #
edge $-1 $49 -2.000000000369992925 $142 11.99999999889001856 $48 $143 forward 7 unknown #
point $-1 5.943200000000000927 11.55930000000000035 2.5 #
coedge $-1 $144 $51 $54 $96 forward $93 $-1 #
loop $-1 $145 $51 $146 #
ellipse-curve $-1 3.94319999999999915 13.55930000000000035 7.5 0 0 1 0 -1.999999999260011929 0 1 I I #
coedge $-1 $54 $53 $147 $148 reversed $55 $-1 #
edge $-1 $56 -12.12500000013874946 $149 3.87499999986125232 $92 $150 reversed 7 unknown #
face $-1 $146 $55 $2 $-1 $151 reversed single #
point $-1 3.943200000092497159 15.55929999926001273 7.5 #
point $-1 3.943199999260011079 11.55930000073998798 7.5 #
coedge $-1 $152 $147 $60 $101 reversed $153 $-1 #
edge $-1 $142 -3.141592653959786929 $102 -4.62492266706249211e-11 $60 $154 forward 7 unknown #
vertex $-1 $101 $155 #
straight-curve $-1 15.94320000023124706 15.55929999944500963 2.5 -1 4.624925442620053673e-11 0 I I #
loop $-1 $-1 $120 $63 #
coedge $-1 $156 $157 $158 $159 forward $62 $-1 #
face $-1 $-1 $80 $2 $-1 $160 forward single #
plane-surface $-1 11.94320000000000093 7.559300000000000352 2.5 0 0 1 1 0 0 forward_v I I I I #
face $-1 $161 $162 $2 $-1 $163 reversed single #
loop $-1 $-1 $164 $66 #
plane-surface $-1 19.94320000073998855 3.559299999260012726 7.5 3.699938132281037691e-10 1 0 0 0 1 forward_v I I I I #
coedge $-1 $165 $166 $167 $168 reversed $67 $-1 #
coedge $-1 $169 $69 $71 $119 reversed $37 $-1 #
coedge $-1 $69 $169 $165 $170 forward $37 $-1 #
coedge $-1 $167 $72 $69 $115 forward $104 $-1 #
edge $-1 $122 -3.999999999861253208 $171 12.00000000013874768 $114 $172 forward 7 unknown #
coedge $-1 $71 $70 $173 $174 reversed $20 $-1 #
coedge $-1 $175 $128 $70 $118 forward $130 $-1 #
edge $-1 $176 0 $121 5 $70 $177 forward 7 unknown #
edge $-1 $178 0 $122 5 $112 $179 forward 7 unknown #
coedge $-1 $72 $180 $175 $181 forward $104 $-1 #
vertex $-1 $181 $182 #
vertex $-1 $73 $183 #
ellipse-curve $-1 3.94319999999999915 1.559300000000000352 2.5 0 0 1 0 -1.999999999260011929 0 1 I I #
coedge $-1 $84 $184 $74 $125 forward $93 $-1 #
edge $-1 $131 -5.99999999556007424 $126 2 $124 $185 reversed 7 unknown #
vertex $-1 $85 $186 #
straight-curve $-1 5.94319999999999915 11.55930000000000035 7.5 0 0 1 I I #
coedge $-1 $117 $76 $184 $187 reversed $130 $-1 #
coedge $-1 $76 $188 $78 $134 forward $130 $-1 #
loop $-1 $-1 $129 $189 #
vertex $-1 $125 $190 #
straight-curve $-1 5.94319999999999915 3.559300004439926113 7.5 0 -0 1 I I #
coedge $-1 $79 $78 $191 $192 forward $80 $-1 #
edge $-1 $193 -5.00000000110998144 $82 6.999999998890020336 $129 $194 reversed 7 unknown #
edge $-1 $81 1.000000000369992925 $195 13.00000000036999381 $86 $196 reversed 7 unknown #
point $-1 5.94319999999999915 11.55930000000000035 5 #
point $-1 5.94319999999999915 3.559300004439926113 5 #
straight-curve $-1 8.06820000036999474 11.5592999992137635 7.5 1 -3.699940352727087976e-10 0 I I #
coedge $-1 $197 $86 $198 $199 reversed $88 $-1 #
coedge $-1 $87 $197 $152 $200 forward $88 $-1 #
face $-1 $63 $88 $2 $-1 $9 reversed single #
vertex $-1 $90 $201 #
straight-curve $-1 7.943200000369993852 11.55929999926001273 2.5 1 -3.699940352727087976e-10 0 I I #
coedge $-1 $202 $92 $203 $204 forward $93 $-1 #
loop $-1 $-1 $205 $146 #
face $-1 $206 $93 $2 $-1 $207 forward single #
coedge $-1 $100 $203 $95 $148 forward $153 $-1 #
edge $-1 $149 0 $102 5 $95 $208 forward 7 unknown #
vertex $-1 $204 $209 #
straight-curve $-1 16.06820000023124706 15.55929999943922937 7.5 -1 4.624925442620053673e-11 0 I I #
plane-surface $-1 19.94320000009249938 15.55929999926001273 7.5 4.624925442620053673e-11 1 0 0 0 1 forward_v I I I I #
coedge $-1 $203 $100 $140 $200 reversed $153 $-1 #
loop $-1 $-1 $100 $161 #
ellipse-curve $-1 19.94320000000000093 13.55930000000000035 2.5 0 0 1 0 1.999999999260011929 0 1 I I #
point $-1 19.94320000009249938 15.55929999926001273 2.5 #
coedge $-1 $210 $105 $211 $212 forward $62 $-1 #
coedge $-1 $105 $210 $213 $214 forward $62 $-1 #
coedge $-1 $215 $216 $105 $159 reversed $217 $-1 #
edge $-1 $218 -10 $219 10 $158 $220 reversed 7 unknown #
plane-surface $-1 5.943200000000000927 11.55930000000000035 5 0 0 1 1 0 0 forward_v I I I I #
face $-1 $97 $153 $2 $-1 $221 reversed single #
loop $-1 $-1 $191 $108 #
plane-surface $-1 17.94320000000000093 3.559300000000000352 7.5 1 0 0 0 0 -1 forward_v I I I I #
coedge $-1 $222 $223 $180 $224 reversed $109 $-1 #
coedge $-1 $225 $111 $113 $170 reversed $67 $-1 #
coedge $-1 $111 $225 $222 $226 forward $67 $-1 #
coedge $-1 $180 $114 $111 $168 forward $104 $-1 #
edge $-1 $171 -3.141592653636042343 $227 -3.69993813501894865e-10 $167 $228 forward 7 unknown #
coedge $-1 $113 $112 $229 $230 reversed $37 $-1 #
edge $-1 $231 0 $171 5 $165 $232 forward 7 unknown #
vertex $-1 $115 $233 #
straight-curve $-1 7.943199999768753905 -0.4406999994450089275 2.5 1 -4.62492266706249211e-11 0 I I #
coedge $-1 $184 $229 $116 $174 forward $93 $-1 #
edge $-1 $178 4.62492266706249211e-11 $176 3.141592653959786929 $173 $234 reversed 7 unknown #
coedge $-1 $188 $117 $120 $181 reversed $130 $-1 #
vertex $-1 $187 $235 #
straight-curve $-1 3.943200000739986777 3.55930000517991374 7.5 0 0 -1 I I #
vertex $-1 $174 $236 #
straight-curve $-1 3.943199999907500697 -0.4406999992600120208 7.5 0 0 -1 I I #
coedge $-1 $120 $167 $164 $224 forward $104 $-1 #
edge $-1 $237 -2.000000000369993813 $121 11.99999999889002034 $120 $238 forward 7 unknown #
point $-1 3.943200000739986777 3.55930000517991374 2.5 #
point $-1 3.943199999907500697 -0.4406999992600115768 2.5 #
coedge $-1 $124 $173 $128 $187 forward $93 $-1 #
straight-curve $-1 5.94319999999999915 9.559300000000000352 7.5 0 -1 0 I I #
point $-1 5.94319999999999915 11.55930000000000035 7.5 #
edge $-1 $176 -12.12499999889002034 $131 -10.12499999963000796 $184 $239 reversed 7 unknown #
coedge $-1 $129 $175 $223 $240 forward $130 $-1 #
face $-1 $141 $130 $2 $-1 $110 reversed single #
point $-1 5.94319999999999915 3.559300004439926113 7.5 #
coedge $-1 $241 $198 $133 $192 reversed $162 $-1 #
edge $-1 $193 -4 $195 3.999999995560070687 $133 $242 forward 7 unknown #
vertex $-1 $240 $243 #
straight-curve $-1 12.94319999889001949 3.559300001849969419 5 1 -3.699938132281037691e-10 0 I I #
vertex $-1 $199 $244 #
straight-curve $-1 4.943199999630006225 11.55930000036999417 5 -1 3.699940352727087976e-10 0 I I #
coedge $-1 $140 $139 $202 $245 reversed $88 $-1 #
coedge $-1 $191 $246 $139 $199 forward $162 $-1 #
edge $-1 $247 -0 $195 2.5 $139 $248 reversed 7 unknown #
edge $-1 $249 0 $142 5 $152 $250 forward 7 unknown #
point $-1 19.9431999992600133 11.55929999482008341 2.5 #
coedge $-1 $251 $144 $197 $245 forward $93 $-1 #
coedge $-1 $147 $152 $144 $204 reversed $153 $-1 #
edge $-1 $149 4.62492266706249211e-11 $249 3.141592653959786929 $144 $252 reversed 7 unknown #
coedge $-1 $253 $254 $255 $256 forward $145 $-1 #
face $-1 $257 $258 $2 $-1 $259 reversed single #
plane-surface $-1 12.19320000000000093 7.559300000000000352 7.5 0 0 1 1 0 0 forward_v I I I I #
straight-curve $-1 19.94320000009249938 15.55929999926001273 7.5 0 0 -1 I I #
point $-1 19.94320000009249938 15.55929999926001273 7.5 #
coedge $-1 $157 $156 $260 $261 forward $62 $-1 #
coedge $-1 $262 $263 $156 $212 reversed $258 $-1 #
edge $-1 $219 -12.625 $264 12.375 $211 $265 reversed 7 unknown #
coedge $-1 $266 $267 $157 $214 reversed $268 $-1 #
edge $-1 $269 -12.375 $218 12.625 $213 $270 reversed 7 unknown #
coedge $-1 $255 $158 $267 $271 reversed $217 $-1 #
coedge $-1 $158 $255 $262 $272 forward $217 $-1 #
loop $-1 $-1 $216 $273 #
vertex $-1 $159 $274 #
vertex $-1 $272 $275 #
straight-curve $-1 24.69320000000000093 7.559300000000000352 2.5 0 1 -0 I I #
cone-surface $-1 19.94320000000000093 13.55930000000000035 7.5 0 0 -1 0 1.999999999260011929 0 1 I I 0 1 1.999999999260011929 forward I I I I #
coedge $-1 $276 $164 $166 $226 reversed $109 $-1 #
coedge $-1 $164 $277 $188 $240 reversed $109 $-1 #
edge $-1 $227 -4.00000000110998144 $237 -2.000000000369993813 $180 $278 forward 7 unknown #
coedge $-1 $166 $165 $279 $280 reversed $67 $-1 #
edge $-1 $281 0 $227 5 $222 $282 forward 7 unknown #
vertex $-1 $168 $283 #
ellipse-curve $-1 19.94320000000000093 1.559300000000000352 2.5 0 0 1 0 1.999999999260011929 0 1 I I #
coedge $-1 $173 $279 $169 $230 forward $93 $-1 #
edge $-1 $231 -11.87500000013874768 $178 4.124999999861254096 $229 $284 reversed 7 unknown #
vertex $-1 $230 $285 #
straight-curve $-1 19.94319999990750247 -0.4406999999999996476 7.5 0 0 -1 I I #
point $-1 19.94319999990750247 -0.4406999999999996476 2.5 #
ellipse-curve $-1 3.94319999999999915 1.559300000000000352 7.5 0 0 1 0 -1.999999999260011929 0 1 I I #
point $-1 3.943200000739986777 3.55930000517991374 7.5 #
point $-1 3.943199999907500697 -0.4406999992600115768 7.5 #
vertex $-1 $181 $286 #
straight-curve $-1 15.94319999963000711 3.559300000739987979 2.5 -1 3.699938132281037691e-10 0 I I #
straight-curve $-1 16.06819999963000711 3.559300000693738752 7.5 -1 3.699938132281037691e-10 0 I I #
edge $-1 $237 0 $193 2.5 $188 $287 forward 7 unknown #
coedge $-1 $246 $191 $277 $288 reversed $162 $-1 #
straight-curve $-1 17.94320000000000093 7.559300000000000352 5 0 1 0 I I #
point $-1 17.94320000000000093 3.559300000000000352 5 #
point $-1 17.94320000000000093 11.55929999556007104 5 #
edge $-1 $249 -11.87499999889001856 $247 -9.874999999630006187 $202 $289 reversed 7 unknown #
coedge $-1 $198 $241 $251 $290 reversed $162 $-1 #
vertex $-1 $290 $291 #
straight-curve $-1 17.94320000000000093 11.55929999556007104 7.5 -0 0 1 I I #
vertex $-1 $245 $292 #
straight-curve $-1 19.9431999992600133 11.55929999482008341 7.5 0 0 -1 I I #
coedge $-1 $293 $202 $246 $290 forward $93 $-1 #
ellipse-curve $-1 19.94320000000000093 13.55930000000000035 7.5 0 0 1 0 1.999999999260011929 0 1 I I #
coedge $-1 $294 $205 $295 $296 forward $145 $-1 #
coedge $-1 $205 $294 $297 $298 forward $145 $-1 #
coedge $-1 $216 $215 $205 $256 reversed $217 $-1 #
edge $-1 $299 -10 $300 10 $255 $301 forward 7 unknown #
face $-1 $302 $303 $2 $-1 $304 reversed single #
loop $-1 $-1 $263 $206 #
plane-surface $-1 12.19320000000000093 -2.440699999999999648 5 0 1 0 0 0 1 forward_v I I I I #
coedge $-1 $305 $306 $210 $261 reversed $303 $-1 #
edge $-1 $264 -10 $269 10 $260 $307 reversed 7 unknown #
coedge $-1 $297 $211 $216 $272 reversed $258 $-1 #
coedge $-1 $211 $297 $305 $308 forward $258 $-1 #
vertex $-1 $261 $309 #
straight-curve $-1 12.06820000000000093 -2.440699999999999648 2.5 1 0 0 I I #
coedge $-1 $295 $213 $306 $310 reversed $268 $-1 #
coedge $-1 $213 $295 $215 $271 forward $268 $-1 #
loop $-1 $-1 $267 $302 #
vertex $-1 $214 $311 #
straight-curve $-1 12.06820000000000093 17.55930000000000035 2.5 -1 0 0 I I #
edge $-1 $300 -2.5 $218 2.5 $215 $312 reversed 7 unknown #
edge $-1 $299 -2.5 $219 2.5 $216 $313 forward 7 unknown #
face $-1 $189 $217 $2 $-1 $314 reversed single #
point $-1 24.69320000000000093 17.55930000000000035 2.5 #
point $-1 24.69320000000000093 -2.440699999999999648 2.5 #
coedge $-1 $277 $222 $293 $315 reversed $109 $-1 #
coedge $-1 $223 $276 $241 $288 forward $109 $-1 #
straight-curve $-1 15.94319999963000711 3.559300000739987979 2.5 -1 3.699938132281037691e-10 0 I I #
coedge $-1 $229 $293 $225 $280 forward $93 $-1 #
edge $-1 $281 3.69993813501894865e-10 $231 3.141592653636042343 $279 $316 reversed 7 unknown #
vertex $-1 $280 $317 #
straight-curve $-1 19.94320000073998855 3.559299999260012726 7.5 0 0 -1 I I #
point $-1 19.94320000073998855 3.559299999260012282 2.5 #
straight-curve $-1 8.068199999768754793 -0.4406999994507900809 7.5 1 -4.62492266706249211e-11 0 I I #
point $-1 19.94319999990750247 -0.4406999999999996476 7.5 #
point $-1 17.94320000000000093 3.559300000000000352 2.5 #
straight-curve $-1 17.94320000000000093 3.559300000000000352 2.5 0 0 1 I I #
edge $-1 $318 -0 $193 2.5 $241 $319 reversed 7 unknown #
straight-curve $-1 8.06820000036999474 11.5592999992137635 7.5 1 -3.699940352727087976e-10 0 I I #
edge $-1 $247 -5.999999995560072463 $318 2 $251 $320 reversed 7 unknown #
point $-1 17.94320000000000093 11.55929999556007282 7.5 #
point $-1 19.9431999992600133 11.55929999482008341 7.5 #
coedge $-1 $279 $251 $276 $315 forward $93 $-1 #
coedge $-1 $254 $253 $321 $322 forward $145 $-1 #
coedge $-1 $267 $266 $253 $296 reversed $268 $-1 #
edge $-1 $300 -12.5 $323 12.5 $295 $324 forward 7 unknown #
coedge $-1 $263 $262 $254 $298 reversed $258 $-1 #
edge $-1 $325 -12.5 $299 12.5 $297 $326 forward 7 unknown #
vertex $-1 $256 $327 #
vertex $-1 $256 $328 #
straight-curve $-1 24.69320000000000093 7.559300000000000352 7.5 0 1 -0 I I #
face $-1 $273 $268 $2 $-1 $329 reversed single #
loop $-1 $-1 $306 $257 #
plane-surface $-1 -0.3067999999999990735 7.559300000000000352 5 1 0 0 0 0 -1 forward_v I I I I #
coedge $-1 $321 $260 $263 $308 reversed $303 $-1 #
coedge $-1 $260 $321 $266 $310 forward $303 $-1 #
straight-curve $-1 -0.3067999999999990735 7.559300000000000352 2.5 0 -1 0 I I #
edge $-1 $325 -2.5 $264 2.5 $305 $330 reversed 7 unknown #
point $-1 -0.3067999999999990735 -2.440699999999999648 2.5 #
edge $-1 $323 -2.5 $269 2.5 $266 $331 reversed 7 unknown #
point $-1 -0.3067999999999990735 17.55930000000000035 2.5 #
straight-curve $-1 24.69320000000000093 17.55930000000000035 5 0 0 1 I I #
straight-curve $-1 24.69320000000000093 -2.440699999999999648 5 0 0 -1 I I #
plane-surface $-1 24.69320000000000093 7.559300000000000352 5 -1 0 0 0 0 1 forward_v I I I I #
edge $-1 $318 1.875000000369993813 $281 3.87500000110998144 $293 $332 reversed 7 unknown #
ellipse-curve $-1 19.94320000000000093 1.559300000000000352 7.5 0 0 1 0 1.999999999260011929 0 1 I I #
point $-1 19.94320000073998855 3.559299999260012282 7.5 #
vertex $-1 $315 $333 #
straight-curve $-1 17.94320000000000093 3.559300000000000352 7.5 0 0 1 I I #
straight-curve $-1 17.94320000000000093 5.559300000000000352 7.5 0 1 0 I I #
coedge $-1 $306 $305 $294 $322 reversed $303 $-1 #
edge $-1 $323 -10 $325 10 $321 $334 forward 7 unknown #
vertex $-1 $296 $335 #
straight-curve $-1 12.19320000000000093 17.55930000000000035 7.5 -1 0 0 I I #
vertex $-1 $322 $336 #
straight-curve $-1 12.19320000000000093 -2.440699999999999648 7.5 1 0 0 I I #
point $-1 24.69320000000000093 -2.440699999999999648 7.5 #
point $-1 24.69320000000000093 17.55930000000000035 7.5 #
plane-surface $-1 12.19320000000000093 17.55930000000000035 5 0 -1 0 0 0 -1 forward_v I I I I #
straight-curve $-1 -0.3067999999999990735 -2.440699999999999648 5 0 0 1 I I #
straight-curve $-1 -0.3067999999999990735 17.55930000000000035 5 -0 0 1 I I #
straight-curve $-1 16.06819999963000711 3.559300000693738752 7.5 -1 3.699938132281037691e-10 0 I I #
point $-1 17.94320000000000093 3.559300000000000352 7.5 #
straight-curve $-1 -0.3067999999999990735 7.559300000000000352 7.5 0 -1 0 I I #
point $-1 -0.3067999999999990735 17.55930000000000035 7.5 #
point $-1 -0.3067999999999990735 -2.440699999999999648 7.5 #
End-of-ACIS-data 