600 0 1 0           
88 GICL ACIS Healer - Source: /gicl/data5/repository/new/Scanner/lens_housing_v15.sat - 6 0 18 ACIS 6.0.3 Solaris 24 Sat Apr 13 20:36:06 2002 
1 9.999999999999999547e-07 1.000000000000000036e-10 
body $-1 $1 $-1 $-1 #
lump $-1 $-1 $2 $0 #
shell $-1 $-1 $-1 $3 $-1 $1 #
face $-1 $4 $5 $2 $-1 $6 reversed single #
face $-1 $7 $8 $2 $-1 $6 reversed single #
loop $-1 $9 $10 $3 #
cone-surface $-1 11.99129999999999896 5.615550000000000708 15.24729999999999741 0 1 -0 -0.750000000000000111 0 0 1 I I 0 1 0.750000000000000111 forward I I I I #
face $-1 $11 $12 $2 $-1 $6 reversed single #
loop $-1 $13 $14 $4 #
loop $-1 $-1 $15 $3 #
coedge $-1 $10 $10 $16 $17 reversed $5 $-1 #
face $-1 $18 $19 $2 $-1 $20 forward single #
loop $-1 $21 $22 $7 #
loop $-1 $-1 $23 $4 #
coedge $-1 $14 $14 $24 $25 reversed $8 $-1 #
coedge $-1 $15 $15 $26 $27 reversed $9 $-1 #
coedge $-1 $16 $16 $10 $17 forward $28 $-1 #
edge $-1 $29 -3.141592653589800221 $29 3.141592653589786011 $16 $30 forward 7 unknown #
face $-1 $31 $32 $2 $-1 $33 reversed single #
loop $-1 $34 $24 $11 #
plane-surface $-1 11.99130000000000074 5.743399999999999395 15.24730000000000096 0 -1 0 -0.7071067811865475727 0 -0.7071067811865475727 forward_v I I I I #
loop $-1 $-1 $35 $7 #
coedge $-1 $22 $22 $36 $37 reversed $12 $-1 #
coedge $-1 $23 $23 $38 $39 reversed $13 $-1 #
coedge $-1 $24 $24 $14 $25 forward $19 $-1 #
edge $-1 $40 -3.141592653589800221 $40 3.141592653589786011 $24 $41 forward 7 unknown #
coedge $-1 $26 $26 $15 $27 forward $42 $-1 #
edge $-1 $43 -3.141592653589800221 $43 3.141592653589786011 $26 $44 forward 7 unknown #
loop $-1 $45 $16 $46 #
vertex $-1 $17 $47 #
ellipse-curve $-1 11.99129999999999896 1.607660096012960338 15.24729999999999741 0 1 -0 -0.750000000000000111 0 0 1 I I #
face $-1 $48 $49 $2 $-1 $50 reversed single #
loop $-1 $51 $52 $18 #
torus-surface $-1 11.99129999999999896 5.743400936329381423 15.24729999999999741 0 -1 0 2 0.5 0 0 -1.000000000000000222 forward_v I I I I #
loop $-1 $-1 $53 $11 #
coedge $-1 $35 $35 $54 $55 reversed $21 $-1 #
coedge $-1 $36 $36 $22 $37 forward $56 $-1 #
edge $-1 $57 -3.141592653589800221 $57 3.141592653589786011 $36 $58 forward 7 unknown #
coedge $-1 $38 $38 $23 $39 forward $59 $-1 #
edge $-1 $60 -3.141592653589800221 $60 3.141592653589786011 $38 $61 forward 7 unknown #
vertex $-1 $25 $62 #
ellipse-curve $-1 11.99129999999999896 5.743399999999999395 15.24729999999999741 0 1 -0 -0.750000000000000111 0 0 1 I I #
loop $-1 $63 $26 $48 #
vertex $-1 $27 $64 #
ellipse-curve $-1 11.99129999999999896 1.857790228647901998 15.24729999999999741 0 -1 0 -0.750000000000000111 0 0 1 I I #
loop $-1 $-1 $65 $46 #
face $-1 $66 $28 $2 $-1 $67 forward single #
point $-1 12.74129999999999896 1.607660096012960338 15.24730000000000274 #
face $-1 $68 $42 $2 $-1 $69 reversed single #
loop $-1 $70 $71 $31 #
cone-surface $-1 11.99129999999999896 3.695180860397098144 15.24729999999999741 0 -1 0 -1.24869238465262189 0 -1.248692384652621001 1 I I -0.3511234415883917048 0.9363291775690445462 1.765917705607738863 forward I I I I #
loop $-1 $-1 $72 $18 #
coedge $-1 $52 $52 $53 $73 reversed $32 $-1 #
coedge $-1 $53 $53 $52 $73 forward $34 $-1 #
coedge $-1 $54 $54 $35 $55 forward $74 $-1 #
edge $-1 $75 -3.141592653589800221 $75 3.141592653589786011 $54 $76 forward 7 unknown #
loop $-1 $77 $36 $78 #
vertex $-1 $37 $79 #
ellipse-curve $-1 11.99129999999999896 9.623699999999999477 15.24729999999999741 0 -1 0 -0.750000000000000111 0 0 1 I I #
loop $-1 $80 $38 $81 #
vertex $-1 $39 $82 #
ellipse-curve $-1 11.99129999999999896 5.993399999999999395 15.24729999999999741 0 -1 0 -0.750000000000000111 0 0 1 I I #
point $-1 12.74129999999999896 5.743399999999999395 15.24730000000000274 #
loop $-1 $-1 $83 $48 #
point $-1 12.74129999999999896 1.857790228647901998 15.24729999999999208 #
coedge $-1 $65 $65 $84 $85 forward $45 $-1 #
face $-1 $86 $87 $2 $-1 $88 forward single #
torus-surface $-1 11.99129999999999896 2.357400000000001938 15.24729999999999741 0 1 -0 0.7302496488764824711 0.75 0 -0 1.000000000000000222 forward_v I I I I #
face $-1 $89 $90 $2 $-1 $91 reversed single #
torus-surface $-1 11.99129999999999896 2.357400000000001938 15.24729999999999741 0 1 -0 0.7302496488764824711 0.5 0 -0 1.000000000000000222 forward_v I I I I #
loop $-1 $-1 $92 $31 #
coedge $-1 $71 $71 $72 $93 reversed $49 $-1 #
coedge $-1 $72 $72 $71 $93 forward $51 $-1 #
edge $-1 $94 7.034373084027456967e-15 $94 6.283185307179593337 $53 $95 forward 7 unknown #
loop $-1 $96 $54 $97 #
vertex $-1 $55 $98 #
ellipse-curve $-1 11.99129999999999896 9.373699999999999477 15.24729999999999741 0 1 -0 -0.750000000000000111 0 0 1 I I #
loop $-1 $-1 $99 $78 #
face $-1 $97 $56 $2 $-1 $100 forward single #
point $-1 12.74129999999999896 9.623699999999999477 15.24729999999999208 #
loop $-1 $-1 $101 $81 #
face $-1 $-1 $59 $2 $-1 $102 forward single #
point $-1 12.74129999999999896 5.993399999999999395 15.24729999999999208 #
coedge $-1 $83 $83 $92 $103 reversed $63 $-1 #
coedge $-1 $84 $84 $65 $85 reversed $104 $-1 #
edge $-1 $105 -3.141592653589786455 $105 3.141592653589799777 $84 $106 forward 7 unknown #
face $-1 $107 $108 $2 $-1 $109 forward single #
loop $-1 $110 $111 $66 #
torus-surface $-1 11.99129999999999896 5.743400936329381423 15.24729999999999741 0 -1 0 2 0.75 0 0 -1.000000000000000222 forward_v I I I I #
face $-1 $112 $113 $2 $-1 $91 reversed single #
loop $-1 $114 $115 $68 #
cone-surface $-1 11.99129999999999896 7.607400000000000162 15.24729999999999741 0 1 -0 1.767766952966369987 0 1.767766952966369098 1 I I 0 1 2.500000000000000888 forward I I I I #
coedge $-1 $92 $92 $83 $103 forward $70 $-1 #
edge $-1 $116 -3.141592653589799333 $116 3.141592653589786899 $72 $117 forward 7 unknown #
vertex $-1 $73 $118 #
ellipse-curve $-1 11.99129999999999896 5.743399999999999395 15.24729999999999741 0 -1 0 -1.76776695296574915 0 -1.76776695296574915 1 I I #
loop $-1 $-1 $119 $97 #
face $-1 $81 $74 $2 $-1 $120 forward single #
point $-1 12.74129999999999896 9.373699999999999477 15.24730000000000274 #
coedge $-1 $99 $99 $121 $122 forward $77 $-1 #
plane-surface $-1 11.99130000000000074 9.623699999999999477 15.24730000000000096 0 1 -0 0.7071067811865476838 0 0.7071067811865476838 forward_v I I I I #
coedge $-1 $101 $101 $115 $123 forward $80 $-1 #
plane-surface $-1 11.99130000000000074 5.993399999999999395 15.24730000000000096 0 1 -0 0.7071067811865475727 0 0.7071067811865475727 forward_v I I I I #
edge $-1 $124 -3.141592653589801998 $124 3.141592653589784234 $92 $125 forward 7 unknown #
loop $-1 $126 $84 $107 #
vertex $-1 $85 $127 #
ellipse-curve $-1 11.99129999999999896 2.094057418808706217 15.24729999999999741 -3.507370353341458966e-15 -1 -1.577721810442023611e-30 -1.01292801184107728 3.552713678800500929e-15 -1.012928011841076392 1 I I #
face $-1 $128 $104 $2 $-1 $129 forward single #
loop $-1 $130 $131 $86 #
torus-surface $-1 11.99129999999999896 9.623733047033631749 15.24729999999999741 0 1 -0 2 0.75 0 -0 1.000000000000000222 forward_v I I I I #
loop $-1 $-1 $132 $66 #
coedge $-1 $111 $111 $133 $134 forward $87 $-1 #
face $-1 $135 $136 $2 $-1 $137 reversed single #
loop $-1 $138 $121 $89 #
loop $-1 $139 $140 $68 #
coedge $-1 $115 $115 $101 $123 reversed $90 $-1 #
vertex $-1 $93 $141 #
ellipse-curve $-1 11.99129999999999896 5.56783921553518546 15.24729999999999741 0 -1 0 -1.745255917814042768 0 -1.745255917814041435 1 I I #
point $-1 10.22353304703364252 5.743400936329381423 13.4795330470336161 #
coedge $-1 $119 $119 $140 $142 forward $96 $-1 #
plane-surface $-1 11.99130000000000074 9.373699999999999477 15.24730000000000096 0 -1 0 -0.7071067811865476838 0 -0.7071067811865476838 forward_v I I I I #
coedge $-1 $121 $121 $99 $122 reversed $113 $-1 #
edge $-1 $143 -3.141592653589799777 $143 3.141592653589786455 $99 $144 forward 7 unknown #
edge $-1 $145 -3.141592653589799777 $145 3.141592653589786455 $101 $146 forward 7 unknown #
vertex $-1 $103 $147 #
ellipse-curve $-1 11.99129999999999896 2.181838279205805975 15.24729999999999741 0 -1 0 -0.8474068341206034694 0 -0.8474068341206028032 1 I I #
loop $-1 $-1 $148 $107 #
point $-1 13.00422801184107158 2.094057418808702664 16.26022801184108246 #
face $-1 $149 $150 $2 $-1 $151 forward single #
cone-surface $-1 11.99129999999999896 3.607400000000000162 15.24729999999999741 0 -1 0 -1.414213562373095368 0 -1.414213562373095368 1 I I -0.3511234415883917048 0.9363291775690445462 2.000000000000000444 forward I I I I #
loop $-1 $-1 $152 $86 #
coedge $-1 $131 $131 $153 $154 forward $108 $-1 #
coedge $-1 $132 $132 $148 $155 forward $110 $-1 #
coedge $-1 $133 $133 $111 $134 reversed $156 $-1 #
edge $-1 $157 -3.141592653589799777 $157 3.141592653589786455 $133 $158 forward 7 unknown #
face $-1 $159 $160 $2 $-1 $137 reversed single #
loop $-1 $161 $162 $112 #
cone-surface $-1 11.99130000000000074 7.607400000000000162 15.25 0 -0 1.000000000000000222 0 -1 0 1 I I 0 1 1 forward I I I I #
loop $-1 $-1 $163 $89 #
loop $-1 $164 $165 $68 #
coedge $-1 $140 $140 $119 $142 reversed $114 $-1 #
point $-1 13.73655591781405505 5.56783921553518546 16.99255591781403041 #
edge $-1 $166 -3.141592653589800221 $166 3.141592653589786011 $119 $167 forward 7 unknown #
vertex $-1 $122 $168 #
ellipse-curve $-1 11.99129999999999896 9.623699999999999477 15.24729999999999741 0 1 -0 1.767766952966369987 0 1.767766952966369098 1 I I #
vertex $-1 $123 $169 #
ellipse-curve $-1 11.99129999999999896 5.993399999999999395 15.24729999999999741 0 1 -0 1.767766952966369987 0 1.767766952966369098 1 I I #
point $-1 12.83870683412061098 2.181838279205805975 16.09470683412059344 #
coedge $-1 $148 $148 $132 $155 reversed $126 $-1 #
face $-1 $78 $170 $2 $-1 $171 reversed single #
loop $-1 $172 $173 $128 #
cone-surface $-1 11.99129999999999896 7.607400000000000162 15.24729999999999741 0 1 -0 1.944543648263006075 0 1.944543648263006075 1 I I 0 1 2.750000000000000444 forward I I I I #
coedge $-1 $152 $152 $174 $175 forward $130 $-1 #
coedge $-1 $153 $153 $131 $154 reversed $176 $-1 #
edge $-1 $177 -3.141592653589800221 $177 3.141592653589786011 $153 $178 forward 7 unknown #
edge $-1 $179 -3.141592653589786011 $179 3.141592653589800221 $148 $180 forward 7 unknown #
loop $-1 $176 $133 $128 #
vertex $-1 $134 $181 #
ellipse-curve $-1 11.99129999999999896 5.743400936329381423 15.24729999999999741 0 -1 0 -1.944543648263006519 0 -1.944543648263006519 1 I I #
face $-1 $182 $183 $2 $-1 $184 reversed single #
loop $-1 $185 $186 $135 #
loop $-1 $-1 $187 $112 #
coedge $-1 $162 $162 $188 $189 reversed $136 $-1 #
coedge $-1 $163 $163 $190 $191 forward $138 $-1 #
loop $-1 $-1 $192 $68 #
coedge $-1 $165 $165 $186 $193 forward $139 $-1 #
vertex $-1 $142 $194 #
ellipse-curve $-1 11.99129999999999896 9.373699999999999477 15.24729999999999741 0 -1 0 1.767766952966369987 0 1.767766952966369098 1 I I #
point $-1 10.22353304703364074 9.623699999999999477 13.4795330470336161 #
point $-1 10.22353304703364074 5.993399999999999395 13.4795330470336161 #
loop $-1 $195 $196 $149 #
plane-surface $-1 11.99129999999999896 13.64150000000000063 15.24730000000000274 0 -1 0 0 0 -1.000000000000000222 forward_v I I I I #
loop $-1 $156 $188 $128 #
coedge $-1 $173 $173 $197 $198 forward $150 $-1 #
coedge $-1 $174 $174 $152 $175 reversed $199 $-1 #
edge $-1 $200 -3.141592653589785566 $200 3.141592653589800666 $174 $201 forward 7 unknown #
loop $-1 $-1 $153 $128 #
vertex $-1 $154 $202 #
ellipse-curve $-1 11.99129999999999896 9.623733047033631749 15.24729999999999741 0 1 -0 1.944543648263006519 0 1.944543648263006519 1 I I #
vertex $-1 $155 $203 #
ellipse-curve $-1 11.99130000000000251 5.480058355138087478 15.24729999999999919 0 1 -0 -1.910777095534516246 0 -1.910777095534517134 1 I I #
point $-1 13.93584364826302036 5.743400936329381423 17.19184364826299216 #
face $-1 $204 $205 $2 $-1 $206 reversed single #
loop $-1 $207 $190 $159 #
torus-surface $-1 11.99129999999999896 9.623733047033631749 15.24729999999999741 0 1 -0 2 0.5 0 -0 1.000000000000000222 forward_v I I I I #
loop $-1 $-1 $197 $135 #
coedge $-1 $186 $186 $165 $193 reversed $160 $-1 #
coedge $-1 $187 $187 $192 $208 reversed $161 $-1 #
coedge $-1 $188 $188 $162 $189 forward $172 $-1 #
edge $-1 $209 0 $209 6.087908169052066221 $188 $210 forward 7 unknown #
coedge $-1 $190 $190 $163 $191 reversed $183 $-1 #
edge $-1 $211 -3.141592653589800221 $211 3.141592653589786011 $190 $212 forward 7 unknown #
coedge $-1 $192 $192 $187 $208 forward $164 $-1 #
edge $-1 $213 0 $213 6.101834684415482712 $165 $214 forward 7 unknown #
point $-1 10.22353304703361587 9.373699999999999477 13.47953304703364097 #
loop $-1 $-1 $215 $149 #
coedge $-1 $196 $196 $216 $217 forward $170 $-1 #
coedge $-1 $197 $197 $173 $198 reversed $185 $-1 #
edge $-1 $218 0 $218 6.087908169052064444 $173 $219 forward 7 unknown #
loop $-1 $220 $174 $221 #
vertex $-1 $175 $222 #
ellipse-curve $-1 11.99129999999999896 10.15406313292354312 15.24729999999999741 -4.964071580824058825e-16 -1 4.964071580824054881e-16 1.789213562373095145 -0 1.789213562373096034 1 I I #
point $-1 10.04675635173700776 9.623733047033631749 13.30275635173697779 #
point $-1 13.90207709553453164 5.480058355138087478 17.15807709553450167 #
face $-1 $223 $224 $2 $-1 $225 forward single #
loop $-1 $226 $227 $182 #
cone-surface $-1 11.99129999999999896 10.11116991411009103 15.24729999999999741 0 -1 0 1.569543648263006519 -0 1.569543648263007407 1 I I 0.7071067811865475727 0.7071067811865475727 2.219669914110090847 forward I I I I #
loop $-1 $-1 $228 $159 #
edge $-1 $229 0 $229 6.101834684415482712 $192 $230 forward 7 unknown #
vertex $-1 $189 $231 #
intcurve-curve $-1 forward { surfintcur full nubs 3 periodic 17 
	0 3 0.3806220021378298179 2 0.7612440042756596359 2 1.141610523269341648 2 1.521977042263023439 2 
	1.902343561256705229 2 2.282710080250387019 2 2.663332082388210065 2 3.04395408452603311 2 3.424576086663868146 2 
	3.805198088801703182 2 4.185564607795383196 2 4.565931126789063654 2 4.946297645782744112 2 5.32666416477642457 2 
	5.70728616691424584 2 6.087908169052066221 3 
	12.99130000000000251 7.607400000000000162 12.68556230851010014 
	12.99130000000000251 7.73427400071260962 12.68556230851010014 
	12.96570486279660095 7.868707976217137912 12.67514350295128978 
	12.86331551505492499 8.114682804533728699 12.63865233280382583 
	12.7865733475773844 8.22634021479571409 12.61322255784672386 
	12.61029939443183956 8.402614167941255374 12.56632028206930229 
	12.49861890694516475 8.479401611789509019 12.54164561505970532 
	12.2525566747126522 8.581825092761569351 12.50691990329409542 
	12.11808883966455319 8.607400000000001938 12.49729999999999919 
	11.86451116033543229 8.607399999999998386 12.49729999999999919 
	11.73004332528733684 8.581825092761565799 12.50691990329409897 
	11.48398109305482251 8.479401611789501914 12.5416456150597071 
	11.37230060556814948 8.402614167941246492 12.56632028206930585 
	11.19602665242260997 8.226340214795705208 12.61322255784672564 
	11.11928448494506938 8.114682804533718041 12.63865233280382583 
	11.01689513720339875 7.868707976217132583 12.67514350295129155 
	10.99130000000000074 7.734274000712607844 12.68556230851010014 
	10.99130000000000074 7.480525999287387151 12.68556230851010014 
	11.01689513720340052 7.34609202378285886 12.67514350295128622 
	11.11928448494507649 7.100117195466268072 12.63865233280382228 
	11.19602665242262418 6.988459785204280905 12.61322255784672031 
	11.37230060556816902 6.812185832058739621 12.56632028206929874 
	11.48398109305484205 6.735398388210485976 12.54164561505970354 
	11.73004332528735638 6.632974907238429196 12.50691990329409364 
	11.86451116033545361 6.607399999999998386 12.49729999999999741 
	12.11808883966457451 6.607400000000001938 12.49729999999999741 
	12.25255667471266996 6.632974907238436302 12.5069199032940972 
	12.49861890694518074 6.735398388210500187 12.5416456150597071 
	12.61029939443185377 6.812185832058757384 12.56632028206930585 
	12.7865733475773915 6.988459785204298669 12.61322255784672564 
	12.86331551505493209 7.100117195466282283 12.63865233280382583 
	12.96570486279660273 7.346092023782867741 12.67514350295128978 
	12.99130000000000251 7.480525999287394256 12.68556230851010014 
	12.99130000000000251 7.607400000000000162 12.68556230851010014 
	0.001000000000000000021 
	cone 11.99130000000000074 7.607400000000000162 15.25 0 -0 1.000000000000000222 0 -1 0 1 I I 0 1 1 forward I I I I 
	cone 11.99129999999999896 7.607400000000000162 15.24729999999999741 0 1 -0 1.944543648263006075 0 1.944543648263006075 1 I I 0 1 2.750000000000000444 forward I I I I 
	nullbs 
	nullbs 
	I I 
	0 
	0 
	0 
	} I I #
vertex $-1 $191 $232 #
ellipse-curve $-1 11.99129999999999896 9.623733047033631749 15.24729999999999741 0 1 -0 1.767766952966369987 0 1.767766952966369098 1 I I #
vertex $-1 $193 $233 #
intcurve-curve $-1 forward { surfintcur full nubs 3 periodic 17 
	0 3 0.3815576652526466717 2 0.7631153305052933433 2 1.144287000804578458 2 1.525458671103863795 2 
	1.90663034140315002 2 2.287802011702436022 2 2.669359676955088467 2 3.050917342207741356 2 3.432475007460392913 2 
	3.81403267271304447 2 4.195204343012328252 2 4.576376013311612034 2 4.957547683610895817 2 5.338719353910179599 2 
	5.720277019162830712 2 6.101834684415482712 3 
	12.99130000000000251 7.607400000000000162 17.53858784747792043 
	12.99130000000000251 7.73458588841754846 17.53858784747792043 
	12.96558910036032763 7.869120299055925472 17.55029791689272756 
	12.86313295557011749 8.114986762271399812 17.59100342433966446 
	12.78644722583285542 8.226466336540235957 17.61925405089756325 
	12.61045540084276517 8.402458161530331537 17.67115120878518297 
	12.49894211534256883 8.479211436364321841 17.69838038279582193 
	12.25294415384705715 8.581719283827592193 17.73668504427037718 
	12.11835722343310096 8.607400000000000162 17.74729999999999919 
	11.86424277656691117 8.607400000000001938 17.74729999999999919 
	11.72965584615296031 8.581719283827597522 17.73668504427037718 
	11.48365788465744686 8.479211436364328947 17.69838038279582193 
	11.37214459915724341 8.402458161530338643 17.67115120878518297 
	11.1961527741671496 8.226466336540244839 17.61925405089756325 
	11.11946704442988754 8.114986762271408693 17.59100342433966446 
	11.01701089963967384 7.869120299055930801 17.55029791689272756 
	10.99130000000000074 7.734585888417550237 17.53858784747792043 
	10.99130000000000074 7.480214111582450087 17.53858784747792043 
	11.01701089963967384 7.345679700944069523 17.55029791689272756 
	11.11946704442988576 7.099813237728591631 17.59100342433966446 
	11.19615277416714783 6.988333663459757261 17.61925405089756325 
	11.37214459915724163 6.812341838469663458 17.67115120878518297 
	11.48365788465744153 6.735588563635673154 17.69838038279582193 
	11.72965584615295143 6.633080716172404578 17.73668504427037718 
	11.86424277656690585 6.607400000000000162 17.74729999999999919 
	12.11835722343309563 6.607400000000000162 17.74729999999999919 
	12.25294415384705005 6.633080716172404578 17.73668504427037718 
	12.49894211534255817 6.735588563635673154 17.69838038279582193 
	12.61045540084275984 6.812341838469663458 17.67115120878518297 
	12.78644722583285187 6.988333663459757261 17.61925405089756325 
	12.86313295557011216 7.099813237728593407 17.59100342433966091 
	12.96558910036032763 7.345679700944069523 17.55029791689272756 
	12.99130000000000251 7.480214111582448311 17.53858784747792043 
	12.99130000000000251 7.607400000000000162 17.53858784747792043 
	0.001000000000000000021 
	cone 11.99130000000000074 7.607400000000000162 15.25 0 -0 1.000000000000000222 0 -1 0 1 I I 0 1 1 forward I I I I 
	cone 11.99129999999999896 7.607400000000000162 15.24729999999999741 0 1 -0 1.767766952966369987 0 1.767766952966369098 1 I I 0 -1 2.500000000000000888 forward I I I I 
	nullbs 
	nullbs 
	I I 
	0 
	0 
	0 
	} I I #
coedge $-1 $215 $215 $234 $235 reversed $195 $-1 #
coedge $-1 $216 $216 $196 $217 reversed $236 $-1 #
edge $-1 $237 -3.141592653589786011 $237 3.141592653589800221 $196 $238 forward 7 unknown #
vertex $-1 $198 $239 #
intcurve-curve $-1 forward { surfintcur full nubs 3 periodic 17 
	0 3 0.3806220021378208807 2 0.7612440042756417613 2 1.141610523269322108 2 1.521977042263002344 2 
	1.902343561256682136 2 2.282710080250361706 2 2.663332082388197186 2 3.043954084526032222 2 3.424576086663855268 2 
	3.805198088801678313 2 4.185564607795360104 2 4.56593112678904145 2 4.946297645782722796 2 5.32666416477640503 2 
	5.707286166914235181 2 6.087908169052064444 3 
	12.99130000000000251 7.607400000000000162 17.80903769148989824 
	12.99130000000000251 7.480525999287394256 17.80903769148989824 
	12.9657048627966045 7.346092023782869518 17.8194564970487086 
	12.86331551505493387 7.100117195466284059 17.85594766719617255 
	12.78657334757738973 6.988459785204298669 17.88137744215327274 
	12.61029939443185732 6.812185832058757384 17.92827971793069253 
	12.49861890694518252 6.73539838821049841 17.95295438494029128 
	12.25255667471266996 6.632974907238434525 17.98768009670590118 
	12.11808883966457451 6.607400000000001938 17.99729999999999919 
	11.86451116033545361 6.607399999999998386 17.99729999999999919 
	11.73004332528735993 6.63297490723842742 17.98768009670590473 
	11.48398109305484738 6.7353983882104842 17.95295438494029483 
	11.37230060556816724 6.812185832058741397 17.92827971793069963 
	11.19602665242262418 6.988459785204279129 17.88137744215327984 
	11.11928448494507649 7.100117195466269848 17.85594766719617255 
	11.01689513720339875 7.346092023782862412 17.81945649704870505 
	10.99130000000000074 7.480525999287387151 17.80903769148989824 
	10.99130000000000074 7.734274000712607844 17.80903769148989824 
	11.01689513720339697 7.868707976217132583 17.8194564970487086 
	11.1192844849450676 8.114682804533718041 17.85594766719617255 
	11.19602665242261175 8.226340214795705208 17.88137744215327274 
	11.37230060556814948 8.402614167941246492 17.92827971793069253 
	11.48398109305482073 8.479401611789501914 17.95295438494029128 
	11.73004332528733684 8.581825092761565799 17.98768009670590118 
	11.86451116033543407 8.607399999999998386 17.99729999999999919 
	12.11808883966455319 8.607400000000001938 17.99729999999999919 
	12.25255667471265042 8.581825092761569351 17.98768009670590118 
	12.49861890694516475 8.479401611789509019 17.95295438494029128 
	12.61029939443183956 8.402614167941255374 17.92827971793069608 
	12.78657334757738084 8.22634021479571409 17.88137744215327274 
	12.86331551505492676 8.114682804533728699 17.85594766719617255 
	12.96570486279660273 7.868707976217137912 17.8194564970487086 
	12.99130000000000251 7.734274000712611397 17.80903769148989824 
	12.99130000000000251 7.607400000000000162 17.80903769148989824 
	0.001000000000000000021 
	cone 11.99130000000000074 7.607400000000000162 15.25 0 -0 1.000000000000000222 0 -1 0 1 I I 0 1 1 forward I I I I 
	cone 11.99129999999999896 7.607400000000000162 15.24729999999999741 0 1 -0 1.944543648263006075 0 1.944543648263006075 1 I I 0 1 2.750000000000000444 forward I I I I 
	nullbs 
	nullbs 
	I I 
	0 
	0 
	0 
	} I I #
loop $-1 $-1 $240 $221 #
face $-1 $241 $199 $2 $-1 $242 forward single #
point $-1 10.20208643762691914 10.15406313292354312 13.45808643762688916 #
face $-1 $243 $244 $2 $-1 $245 reversed single #
loop $-1 $246 $247 $204 #
plane-surface $-1 11.50109999999999921 10.39150000000000063 18.06150000000000233 0 -1 0 0 0 -1.000000000000000222 forward_v I I I I #
loop $-1 $-1 $248 $182 #
coedge $-1 $227 $227 $247 $249 reversed $205 $-1 #
coedge $-1 $228 $228 $248 $250 reversed $207 $-1 #
vertex $-1 $208 $251 #
intcurve-curve $-1 forward { surfintcur full nubs 3 periodic 17 
	0 3 0.3815576652526515566 2 0.7631153305053031133 2 1.144287000804586896 2 1.525458671103870678 2 
	1.906630341403154461 2 2.287802011702438243 2 2.6693596769550898 2 3.050917342207741356 2 3.432475007460394245 2 
	3.81403267271304669 2 4.195204343012332693 2 4.57637601331161914 2 4.957547683610904699 2 5.338719353910189369 2 
	5.720277019162836041 2 6.101834684415482712 3 
	12.99130000000000074 7.607400000000000162 12.95601215252207794 
	12.99130000000000074 7.480214111582448311 12.95601215252207794 
	12.96558910036032941 7.345679700944073076 12.94430208310727082 
	12.86313295557011571 7.099813237728595183 12.90359657566033391 
	12.78644722583285187 6.988333663459757261 12.87534594910243513 
	12.61045540084275807 6.812341838469663458 12.8234487912148154 
	12.49894211534255817 6.735588563635673154 12.79621961720417822 
	12.25294415384704827 6.633080716172404578 12.75791495572962297 
	12.11835722343309385 6.607400000000000162 12.74729999999999919 
	11.86424277656690762 6.607400000000000162 12.74729999999999919 
	11.7296558461529532 6.633080716172404578 12.75791495572962297 
	11.4836578846574433 6.735588563635673154 12.79621961720417822 
	11.37214459915724163 6.812341838469663458 12.8234487912148154 
	11.19615277416714783 6.988333663459757261 12.87534594910243513 
	11.11946704442988754 7.099813237728591631 12.90359657566033391 
	11.01701089963967384 7.345679700944069523 12.94430208310726904 
	10.99130000000000074 7.480214111582450087 12.95601215252207794 
	10.99130000000000074 7.734585888417550237 12.95601215252207794 
	11.01701089963967384 7.869120299055930801 12.94430208310727082 
	11.11946704442988754 8.114986762271408693 12.90359657566033391 
	11.1961527741671496 8.226466336540244839 12.87534594910243513 
	11.37214459915724341 8.402458161530336866 12.82344879121481362 
	11.48365788465744686 8.479211436364330723 12.79621961720418 
	11.72965584615295853 8.581719283827599298 12.75791495572962297 
	11.86424277656691295 8.607400000000000162 12.74729999999999919 
	12.11835722343310451 8.607399999999998386 12.74729999999999919 
	12.25294415384705715 8.581719283827593969 12.75791495572962475 
	12.49894211534256705 8.479211436364321841 12.79621961720418 
	12.61045540084276695 8.402458161530329761 12.8234487912148154 
	12.7864472258328572 8.226466336540235957 12.87534594910243513 
	12.86313295557011749 8.114986762271399812 12.90359657566033569 
	12.96558910036032763 7.869120299055925472 12.94430208310727082 
	12.99130000000000074 7.73458588841754846 12.95601215252207794 
	12.99130000000000074 7.607400000000000162 12.95601215252207794 
	0.001000000000000000021 
	cone 11.99130000000000074 7.607400000000000162 15.25 0 -0 1.000000000000000222 0 -1 0 1 I I 0 1 1 forward I I I I 
	cone 11.99129999999999896 7.607400000000000162 15.24729999999999741 0 1 -0 1.767766952966369987 0 1.767766952966369098 1 I I 0 -1 2.500000000000000888 forward I I I I 
	nullbs 
	nullbs 
	I I 
	0 
	0 
	0 
	} I I #
point $-1 12.99130000000000251 7.607400000000000162 12.68556230851010014 #
point $-1 10.22353304703364252 9.623733047033631749 13.4795330470336161 #
point $-1 12.99130000000000251 7.607400000000000162 17.53858784747792043 #
coedge $-1 $234 $234 $215 $235 forward $252 $-1 #
edge $-1 $253 1.11022302462515516e-15 $253 6.28318530717958712 $234 $254 forward 7 unknown #
loop $-1 $255 $216 $243 #
vertex $-1 $217 $256 #
ellipse-curve $-1 11.99130000000000074 13.64150000000000063 15.24730000000000096 0 -1 0 -1.250000000000000222 0 0 1 I I #
point $-1 12.99130000000000251 7.607400000000000162 17.80903769148989824 #
coedge $-1 $240 $240 $257 $258 reversed $220 $-1 #
face $-1 $46 $259 $2 $-1 $260 reversed single #
cone-surface $-1 11.99129999999999896 10.28794660940672756 15.24729999999999741 0 -1 0 1.694543648263006075 0 1.694543648263006075 1 I I 0.7071067811865475727 0.7071067811865475727 2.396446609406726491 forward I I I I #
face $-1 $261 $236 $2 $-1 $262 reversed single #
loop $-1 $263 $264 $223 #
torus-surface $-1 11.99130000000000074 10.89150000000000063 15.24730000000000096 0 -1 0 1.75 -0.5 0 0 -1.000000000000000222 forward_v I I I I #
loop $-1 $-1 $265 $204 #
coedge $-1 $247 $247 $227 $249 forward $224 $-1 #
coedge $-1 $248 $248 $228 $250 forward $226 $-1 #
edge $-1 $266 -3.141592653589799777 $266 3.141592653589786455 $247 $267 forward 7 unknown #
edge $-1 $268 -3.141592653589800221 $268 3.141592653589786011 $248 $269 forward 7 unknown #
point $-1 12.99130000000000074 7.607400000000000162 12.95601215252207794 #
loop $-1 $270 $234 $271 #
vertex $-1 $235 $272 #
ellipse-curve $-1 11.99130000000000074 13.64150000000000063 15.24730000000000096 6.123031769111887524e-17 -1 6.123031769111887524e-17 -1.5 -9.184547653667829437e-17 -1.11022302462515654e-16 1 I I #
loop $-1 $-1 $273 $243 #
point $-1 13.24130000000000251 13.64150000000000063 15.24730000000000985 #
coedge $-1 $257 $257 $240 $258 forward $274 $-1 #
edge $-1 $275 -3.141592653589786011 $275 3.141592653589800221 $240 $276 forward 7 unknown #
loop $-1 $277 $278 $241 #
plane-surface $-1 11.50109999999999921 10.64150000000000063 18.06150000000000233 0 -1 0 0 0 -1.000000000000000222 forward_v I I I I #
face $-1 $279 $280 $2 $-1 $281 forward single #
cone-surface $-1 11.99130000000000074 13.64150000000000063 15.24730000000000096 7.38051387058546514e-17 -1 0 -1.250000000000000222 0 0 1 I I 0 1 1.25 forward I I I I #
loop $-1 $-1 $282 $223 #
coedge $-1 $264 $264 $265 $283 reversed $244 $-1 #
coedge $-1 $265 $265 $264 $283 forward $246 $-1 #
vertex $-1 $249 $284 #
ellipse-curve $-1 11.99129999999999896 10.39150000000000063 15.24729999999999741 0 -1 0 1.371320343559644162 -0 1.37132034355964505 1 I I #
vertex $-1 $250 $285 #
ellipse-curve $-1 11.99129999999999896 9.97728643762690659 15.24729999999999741 0 -1 0 1.66421356237309559 -0 1.664213562373096478 1 I I #
loop $-1 $-1 $286 $271 #
face $-1 $221 $252 $2 $-1 $287 forward single #
point $-1 10.49129999999999896 13.64150000000000063 15.24729999999999919 #
coedge $-1 $273 $273 $282 $288 forward $255 $-1 #
loop $-1 $-1 $257 $279 #
vertex $-1 $258 $289 #
ellipse-curve $-1 11.99129999999999896 10.56827669529663893 15.24729999999999741 -5.935750479654711023e-16 1 5.935750479654714967e-16 1.496320343559643051 0 1.496320343559642163 1 I I #
loop $-1 $-1 $290 $241 #
coedge $-1 $278 $278 $291 $292 reversed $259 $-1 #
face $-1 $271 $293 $2 $-1 $294 forward single #
loop $-1 $295 $296 $261 #
torus-surface $-1 11.99130000000000074 10.89150000000000063 15.24730000000000096 0 -1 0 1.75 -0.25 0 0 -1.000000000000000222 forward_v I I I I #
coedge $-1 $282 $282 $273 $288 reversed $263 $-1 #
edge $-1 $297 -3.141592653589800221 $297 3.141592653589786011 $264 $298 forward 7 unknown #
point $-1 10.61997965644034636 10.39150000000000063 13.87597965644036258 #
point $-1 10.32708643762689249 9.97728643762690659 13.58308643762691403 #
coedge $-1 $286 $286 $296 $299 reversed $270 $-1 #
cone-surface $-1 11.99130000000000074 13.64150000000000063 15.24730000000000096 7.38051387058546514e-17 -1 0 -1.5 -1.107077080587819525e-16 -1.11022302462515654e-16 1 I I 0 1 1.5 forward I I I I #
edge $-1 $300 -3.141592653589801554 $300 3.141592653589784678 $282 $301 forward 7 unknown #
point $-1 10.49497965644034636 10.56827669529663893 13.7509796564403679 #
coedge $-1 $290 $290 $302 $303 reversed $277 $-1 #
coedge $-1 $291 $291 $278 $292 forward $295 $-1 #
edge $-1 $304 -3.141592653589786011 $304 3.141592653589800221 $278 $305 forward 7 unknown #
loop $-1 $274 $302 $279 #
torus-surface $-1 11.99129999999999896 10.39150000000000063 15.24729999999999741 0 -1 0 1.939339828220179918 0.25 0 0 -1.000000000000000222 forward_v I I I I #
loop $-1 $-1 $291 $261 #
coedge $-1 $296 $296 $286 $299 forward $280 $-1 #
vertex $-1 $283 $306 #
ellipse-curve $-1 11.99130000000000074 10.39150000000000063 15.24730000000000096 0 1 -0 0 0 -1.750000000000000222 1 I I #
edge $-1 $307 -3.141592653589801554 $307 3.141592653589784678 $286 $308 forward 7 unknown #
vertex $-1 $288 $309 #
ellipse-curve $-1 11.99130000000000074 10.89150000000000063 15.24730000000000096 7.38051387058546514e-17 -1 0 -1.250000000000000222 0 0 1 I I #
coedge $-1 $302 $302 $290 $303 forward $293 $-1 #
edge $-1 $310 -3.141592653589800221 $310 3.141592653589786011 $290 $311 forward 7 unknown #
vertex $-1 $292 $312 #
ellipse-curve $-1 11.99130000000000074 10.64150000000000063 15.24730000000000096 0 1 -0 -1.750000000000000444 0 -1.11022302462515654e-16 1 I I #
point $-1 11.9912999999999883 10.39150000000000063 16.99730000000000274 #
vertex $-1 $299 $313 #
ellipse-curve $-1 11.99130000000000074 10.89150000000000063 15.24730000000000096 0 -1 0 -1.5 -1.107077080587819525e-16 -1.11022302462515654e-16 1 I I #
point $-1 13.24130000000000074 10.89150000000000063 15.24729999999999031 #
vertex $-1 $303 $314 #
ellipse-curve $-1 11.99129999999999896 10.64150000000000063 15.24729999999999741 0 -1 0 1.371320343559643717 0 1.371320343559643717 1 I I #
point $-1 13.74130000000000251 10.64150000000000063 15.24729999999998853 #
point $-1 13.49130000000000074 10.89150000000000063 15.24729999999998853 #
point $-1 10.61997965644034636 10.64150000000000063 13.87597965644036435 #
End-of-ACIS-data 