600 0 2 0           
24 FBMach with ACIS - 6.0.3 13 ACIS 6.0.3 NT 24 Wed May 23 12:28:14 2001 
1 9.9999999999999995e-007 1e-010 
body $2 $3 $-1 $4 #
bdycol-kcp $-1 1 7 $5 $6 $7 $8 $9 $10 $11 #
model_id-kcp-attrib $-1 $-1 $-1 $0 1 990635292 80 -883949567 1 #
lump $-1 $-1 $12 $0 #
transform $-1 -0.70710678118654757 0 -0.70710678118654757 0.70710678118654757 0 -0.70710678118654757 0 -1 0 11.991300000000001 5.8683999999999994 15.247300000000001 1 rotate no_reflect no_shear #
body $13 $14 $-1 $15 #
body $16 $17 $-1 $18 #
body $19 $20 $-1 $21 #
body $22 $23 $-1 $24 #
body $25 $26 $-1 $27 #
body $28 $29 $-1 $30 #
body $31 $32 $-1 $33 #
shell $-1 $-1 $-1 $34 $-1 $3 #
model_id-kcp-attrib $-1 $-1 $-1 $5 1 990635292 100 -882638846 1 #
lump $-1 $-1 $35 $5 #
transform $-1 1 0 0 0 1 0 0 0 1 11.991299999999999 7.6245800480064805 15.247299999999997 1 no_rotate no_reflect no_shear #
rgb_color-st-attrib $-1 $36 $-1 $6 0.5 1 1 #
lump $-1 $-1 $37 $6 #
transform $-1 1 0 0 0 -3.8285889215894375e-016 -1 0 1 -3.8285889215894375e-016 11.991299999999999 5.6156800480064799 15.247299999999997 1 rotate no_reflect no_shear #
rgb_color-st-attrib $-1 $38 $-1 $7 0.5 1 1 #
lump $-1 $-1 $39 $7 #
transform $-1 1 0 0 0 1 0 0 0 1 11.991300000000001 7.6074000000000002 15.247299999999999 1 no_rotate no_reflect no_shear #
rgb_color-st-attrib $-1 $40 $-1 $8 0.5 1 1 #
lump $-1 $-1 $41 $8 #
transform $-1 1 0 0 0 -3.8285889215894375e-016 1 0 -1 -3.8285889215894375e-016 11.991300000000001 12.266500000000002 15.247300000000001 1 rotate no_reflect no_shear #
rgb_color-st-attrib $-1 $42 $-1 $9 0.5 1 1 #
lump $-1 $-1 $43 $9 #
transform $-1 1 0 0 0 1 0 0 0 1 11.991299999999999 7.6245800480064805 15.247299999999997 1 no_rotate no_reflect no_shear #
rgb_color-st-attrib $-1 $44 $-1 $10 1 0.5 1 #
lump $-1 $-1 $45 $10 #
transform $-1 1 0 0 0 1 0 0 0 1 11.991299999999999 7.6245800480064805 15.247299999999997 1 no_rotate no_reflect no_shear #
rgb_color-st-attrib $-1 $46 $-1 $11 1 0.5 1 #
lump $-1 $-1 $47 $11 #
transform $-1 1 0 0 0 1 0 0 0 1 11.991299999999999 7.6245800480064805 15.247299999999997 1 no_rotate no_reflect no_shear #
face $48 $49 $50 $12 $-1 $51 reversed single #
shell $-1 $-1 $-1 $52 $-1 $14 #
model_id-kcp-attrib $-1 $-1 $16 $6 1 990635292 510 -872546301 1 #
shell $-1 $-1 $-1 $53 $-1 $17 #
model_id-kcp-attrib $-1 $-1 $19 $7 1 990635292 520 -888668156 1 #
shell $-1 $-1 $-1 $54 $-1 $20 #
model_id-kcp-attrib $-1 $-1 $22 $8 1 990635292 520 -888668155 1 #
shell $-1 $-1 $-1 $55 $-1 $23 #
model_id-kcp-attrib $-1 $-1 $25 $9 1 990635292 751 -873529338 1 #
shell $-1 $-1 $-1 $56 $-1 $26 #
model_id-kcp-attrib $-1 $-1 $28 $10 1 990635292 1392 -881852409 1 #
shell $-1 $-1 $-1 $57 $-1 $29 #
model_id-kcp-attrib $-1 $-1 $31 $11 1 990635292 1522 -873332728 1 #
shell $-1 $-1 $-1 $58 $-1 $32 #
model_id-kcp-attrib $-1 $-1 $-1 $34 1 990635292 80 -883949567 2 #
face $59 $60 $61 $12 $-1 $51 reversed single #
loop $62 $63 $64 $34 #
cone-surface $-1 3.5527136788005009e-015 8.8817841970012523e-016 0.25284999999999869 0 0 -1 0.53033008588991071 -0.53033008588991071 0 1 I I 0 1 0.75000000000000011 forward I I I I #
face $-1 $65 $66 $35 $-1 $67 forward single #
face $-1 $68 $69 $37 $-1 $70 forward single #
face $-1 $71 $72 $39 $-1 $73 forward single #
face $-1 $74 $75 $41 $-1 $76 forward single #
face $-1 $77 $78 $43 $-1 $79 reversed single #
face $-1 $80 $81 $45 $-1 $82 reversed single #
face $-1 $83 $84 $47 $-1 $85 forward single #
model_id-kcp-attrib $-1 $-1 $-1 $49 1 990635292 80 -883949567 3 #
face $86 $87 $88 $12 $-1 $51 reversed single #
loop $-1 $89 $90 $49 #
model_id-kcp-attrib $-1 $-1 $-1 $50 1 990635292 80 -883949567 33 #
loop $91 $-1 $92 $34 #
coedge $-1 $64 $64 $93 $94 reversed $50 $-1 #
face $-1 $95 $96 $35 $-1 $97 reversed single #
loop $-1 $-1 $98 $52 #
plane-surface $-1 0 0 3.8890872965260126 0 0 1 1 0 0 forward_v I I I I #
face $-1 $99 $100 $37 $-1 $101 forward single #
loop $-1 $102 $103 $53 #
cone-surface $-1 0 0 0 0 0 1 0.75000000000000011 0 0 1 I I 0 1 0.75000000000000011 forward I I I I #
face $-1 $104 $105 $39 $-1 $106 forward single #
loop $-1 $107 $108 $54 #
cone-surface $-1 0 0 0 0 0 1 1 0 0 1 I I 0 1 1 forward I I I I #
face $-1 $109 $110 $41 $-1 $111 forward single #
loop $-1 $112 $113 $55 #
cone-surface $-1 0 0 0 0 0 1 1.25 0 0 1 I I 0 1 1.25 forward I I I I #
face $-1 $114 $115 $43 $-1 $116 forward single #
loop $-1 $117 $118 $56 #
cone-surface $-1 0 6.0169199519935201 0 0 1 0 -0.99999999999999956 0 2.5617376914899013 1 I I 0 1 2.7500000000000013 forward I I I I #
face $-1 $119 $120 $45 $-1 $121 forward single #
loop $-1 $122 $123 $57 #
plane-surface $-1 0 6.0169199519935201 0 0 -1 0 0 0 -1 forward_v I I I I #
face $-1 $124 $125 $47 $-1 $126 reversed single #
loop $-1 $127 $128 $58 #
torus-surface $-1 -1.0775411102027983e-016 -1.8811791116770991 4.1252876143295069e-016 0 -1 0 2 0.5 0 0 -1.0000000000000002 forward_v I I I I #
model_id-kcp-attrib $-1 $-1 $-1 $60 1 990635292 80 -883949567 4 #
face $129 $130 $131 $12 $-1 $132 forward single #
loop $-1 $133 $134 $60 #
loop $-1 $-1 $135 $49 #
coedge $-1 $90 $90 $136 $137 reversed $61 $-1 #
model_id-kcp-attrib $-1 $-1 $-1 $63 1 990635292 80 -883949567 34 #
coedge $-1 $92 $92 $138 $139 reversed $63 $-1 #
coedge $-1 $93 $93 $64 $94 forward $140 $-1 #
edge $141 $142 -3.1415926535897998 $142 3.1415926535897865 $93 $143 forward 7 unknown #
face $-1 $144 $145 $35 $-1 $146 reversed single #
loop $-1 $-1 $147 $65 #
plane-surface $-1 0 0 -3.8890872965260126 0 0 1 1 0 0 forward_v I I I I #
coedge $-1 $148 $149 $150 $151 forward $66 $-1 #
face $-1 $-1 $152 $37 $-1 $153 forward single #
loop $-1 $-1 $154 $68 #
plane-surface $-1 0 0 -4.0080199519935196 0 0 -1 -1 0 0 forward_v I I I I #
loop $-1 $-1 $155 $53 #
coedge $-1 $103 $103 $156 $157 reversed $69 $-1 #
face $-1 $-1 $158 $39 $-1 $159 forward single #
loop $-1 $-1 $160 $71 #
plane-surface $-1 0 0 -2.7510000000000012 0 0 -1 -1 0 0 forward_v I I I I #
loop $-1 $-1 $161 $54 #
coedge $-1 $108 $108 $162 $163 reversed $72 $-1 #
face $-1 $-1 $164 $41 $-1 $165 forward single #
loop $-1 $-1 $166 $74 #
plane-surface $-1 0 0 -1.375 0 0 -1 -1 0 0 forward_v I I I I #
loop $-1 $-1 $167 $55 #
coedge $-1 $113 $113 $166 $168 reversed $75 $-1 #
face $-1 $169 $170 $43 $-1 $171 reversed single #
loop $-1 $-1 $172 $77 #
plane-surface $-1 0 0 3.8890872965260126 0 0 1 1 0 0 forward_v I I I I #
loop $-1 $-1 $173 $56 #
coedge $-1 $118 $118 $174 $175 reversed $78 $-1 #
face $-1 $176 $177 $45 $-1 $178 reversed single #
loop $-1 $179 $180 $80 #
cone-surface $-1 0 6.0169199519935201 0 0 1 0 -0.99999999999999956 0 2.5617376914899013 1 I I 0 1 2.7500000000000013 forward I I I I #
loop $-1 $-1 $181 $57 #
coedge $-1 $123 $123 $182 $183 forward $81 $-1 #
face $-1 $184 $185 $47 $-1 $186 forward single #
loop $-1 $187 $188 $83 #
plane-surface $-1 -0.13935433237522041 -2.056740832471295 -0.12362006664095189 0 1 0 0 0 1 forward_v I I I I #
loop $-1 $-1 $189 $58 #
coedge $-1 $128 $128 $190 $191 reversed $84 $-1 #
model_id-kcp-attrib $-1 $-1 $-1 $87 1 990635292 80 -883949567 5 #
face $192 $193 $194 $12 $-1 $195 reversed single #
loop $-1 $196 $136 $87 #
plane-surface $-1 0 0 0.125 0 0 1 1 0 0 forward_v I I I I #
loop $-1 $-1 $197 $60 #
coedge $-1 $134 $134 $198 $199 reversed $88 $-1 #
coedge $-1 $135 $135 $200 $201 reversed $89 $-1 #
coedge $-1 $136 $136 $90 $137 forward $131 $-1 #
edge $202 $203 -3.1415926535897998 $203 3.1415926535897865 $136 $204 forward 7 unknown #
coedge $-1 $138 $138 $92 $139 forward $205 $-1 #
edge $206 $207 -3.1415926535897998 $207 3.1415926535897865 $138 $208 forward 7 unknown #
loop $209 $210 $93 $211 #
attrib_edge_convexity-kcp-attrib $-1 $212 $-1 $94 1 #
vertex $-1 $94 $213 #
ellipse-curve $-1 3.5527136788005009e-015 8.8817841970012523e-016 4.2607399039870391 0 0 -1 0.53033008588991071 -0.53033008588991071 0 1 I I #
face $-1 $214 $215 $35 $-1 $216 reversed single #
loop $-1 $-1 $217 $95 #
plane-surface $-1 0 -6.0169199519935201 0 0 1 0 0 0 1 forward_v I I I I #
coedge $-1 $218 $219 $220 $221 forward $96 $-1 #
coedge $-1 $222 $98 $223 $224 forward $66 $-1 #
coedge $-1 $98 $222 $225 $226 forward $66 $-1 #
coedge $-1 $227 $228 $98 $151 reversed $229 $-1 #
edge $-1 $230 -6.0169199519935201 $231 6.0169199519935201 $150 $232 forward 7 unknown #
loop $-1 $-1 $156 $99 #
plane-surface $-1 0 0 4.0080199519935196 0 0 1 1 0 0 forward_v I I I I #
coedge $-1 $154 $154 $155 $233 forward $100 $-1 #
coedge $-1 $155 $155 $154 $233 reversed $102 $-1 #
coedge $-1 $156 $156 $103 $157 forward $152 $-1 #
edge $-1 $234 0 $234 6.2831853071795862 $156 $235 forward 7 unknown #
loop $-1 $-1 $162 $104 #
plane-surface $-1 0 0 2.7510000000000012 0 0 1 1 0 0 forward_v I I I I #
coedge $-1 $160 $160 $161 $236 forward $105 $-1 #
coedge $-1 $161 $161 $160 $236 reversed $107 $-1 #
coedge $-1 $162 $162 $108 $163 forward $158 $-1 #
edge $-1 $237 0 $237 6.2831853071795862 $162 $238 forward 7 unknown #
loop $-1 $-1 $239 $109 #
plane-surface $-1 0 0 1.375 0 0 1 1 0 0 forward_v I I I I #
coedge $-1 $166 $166 $113 $168 forward $110 $-1 #
coedge $-1 $167 $167 $239 $240 reversed $112 $-1 #
edge $-1 $241 0 $241 6.2831853071795862 $166 $242 forward 7 unknown #
face $-1 $243 $244 $43 $-1 $245 reversed single #
loop $-1 $-1 $246 $114 #
plane-surface $-1 0 0 -3.8890872965260126 0 0 1 1 0 0 forward_v I I I I #
coedge $-1 $247 $248 $249 $250 forward $115 $-1 #
coedge $-1 $173 $173 $251 $252 reversed $117 $-1 #
coedge $-1 $174 $174 $118 $175 forward $244 $-1 #
edge $-1 $253 -3.1415926535897931 $253 3.1415926535897931 $174 $254 forward 7 unknown #
face $-1 $255 $256 $45 $-1 $257 reversed single #
loop $-1 $258 $259 $119 #
plane-surface $-1 0 3.0169199519935219 1.7763568394002505e-015 0 1 0 -1 0 0 forward_v I I I I #
loop $-1 $-1 $260 $80 #
coedge $-1 $180 $180 $181 $261 reversed $120 $-1 #
coedge $-1 $181 $181 $180 $261 forward $122 $-1 #
coedge $-1 $182 $182 $123 $183 reversed $262 $-1 #
edge $-1 $263 8.1416355139178094e-016 $263 6.2831853071795871 $123 $264 forward 7 unknown #
face $-1 $-1 $265 $47 $-1 $266 forward single #
loop $-1 $267 $268 $124 #
cone-surface $-1 -1.1102230246251595e-016 -1.8811800480064811 4.1252876143295069e-016 0 -1 0 0.75000000000000011 0 4.9041581342765269e-015 1 I I 0 -1 0.75000000000000011 forward I I I I #
loop $-1 $-1 $269 $83 #
coedge $-1 $188 $188 $268 $270 reversed $125 $-1 #
coedge $-1 $189 $189 $269 $271 forward $127 $-1 #
coedge $-1 $190 $190 $128 $191 forward $265 $-1 #
edge $272 $273 0.78539816339744151 $273 7.0685834705770274 $190 $274 forward 7 unknown #
model_id-kcp-attrib $-1 $-1 $-1 $130 1 990635292 80 -883949567 6 #
face $275 $276 $277 $12 $-1 $278 reversed single #
loop $-1 $279 $280 $130 #
torus-surface $-1 3.5527136788005009e-015 8.8817841970012523e-016 0.12499906367061797 0 0 1 2 0.5 0.70710678118654757 0.70710678118654757 0 forward_v I I I I #
loop $-1 $-1 $281 $87 #
coedge $-1 $197 $197 $282 $283 reversed $133 $-1 #
coedge $-1 $198 $198 $134 $199 forward $284 $-1 #
edge $285 $286 -3.1415926535897998 $286 3.1415926535897865 $198 $287 forward 7 unknown #
coedge $-1 $200 $200 $135 $201 forward $288 $-1 #
edge $289 $290 -3.1415926535897998 $290 3.1415926535897865 $200 $291 forward 7 unknown #
attrib_edge_convexity-kcp-attrib $-1 $292 $-1 $137 1 #
vertex $-1 $137 $293 #
ellipse-curve $-1 3.5527136788005009e-015 8.8817841970012523e-016 0.125 0 0 -1 0.53033008588991071 -0.53033008588991071 0 1 I I #
loop $294 $295 $138 $276 #
attrib_edge_convexity-kcp-attrib $-1 $296 $-1 $139 1 #
vertex $-1 $139 $297 #
ellipse-curve $-1 3.5527136788005009e-015 8.8817841970012523e-016 4.0106097713520974 0 0 1 0.53033008588991071 -0.53033008588991071 0 1 I I #
model_id-kcp-attrib $-1 $-1 $-1 $140 1 990635292 80 -883949567 35 #
loop $298 $-1 $299 $211 #
face $300 $301 $140 $12 $-1 $302 forward single #
convexity-sys-attrib $-1 $-1 $141 $94 #
point $-1 -0.53033008588991082 0.53033008588990793 4.2607399039870391 #
face $303 $304 $305 $35 $-1 $306 reversed single #
loop $-1 $-1 $307 $144 #
plane-surface $-1 -3.8890872965260126 0 0 1 0 0 0 0 -1 forward_v I I I I #
coedge $-1 $308 $225 $309 $310 forward $145 $-1 #
coedge $-1 $311 $147 $308 $312 forward $96 $-1 #
coedge $-1 $147 $311 $313 $314 forward $96 $-1 #
coedge $-1 $228 $227 $147 $221 reversed $229 $-1 #
edge $-1 $315 -6.0169199519935201 $316 6.0169199519935201 $220 $317 forward 7 unknown #
coedge $-1 $149 $148 $318 $319 forward $66 $-1 #
coedge $-1 $320 $321 $148 $224 reversed $305 $-1 #
edge $-1 $231 -3.8890872965260126 $322 3.8890872965260126 $223 $323 forward 7 unknown #
coedge $-1 $217 $324 $149 $226 reversed $145 $-1 #
edge $-1 $325 -3.8890872965260126 $230 3.8890872965260126 $225 $326 forward 7 unknown #
coedge $-1 $220 $150 $324 $327 forward $229 $-1 #
coedge $-1 $150 $220 $320 $328 reversed $229 $-1 #
loop $-1 $-1 $227 $304 #
vertex $-1 $151 $329 #
vertex $-1 $151 $330 #
straight-curve $-1 3.8890872965260126 0 3.8890872965260126 0 1 0 I I #
edge $-1 $331 0 $331 6.2831853071795862 $154 $332 forward 7 unknown #
vertex $-1 $157 $333 #
ellipse-curve $-1 0 0 4.0080199519935196 0 0 1 0.75000000000000011 0 0 1 I I #
edge $-1 $334 0 $334 6.2831853071795862 $160 $335 forward 7 unknown #
vertex $-1 $163 $336 #
ellipse-curve $-1 0 0 2.7510000000000012 0 0 1 1 0 0 1 I I #
coedge $-1 $239 $239 $167 $240 forward $164 $-1 #
edge $-1 $337 0 $337 6.2831853071795862 $239 $338 forward 7 unknown #
vertex $-1 $168 $339 #
ellipse-curve $-1 0 0 -1.375 0 0 -1 1.25 0 0 1 I I #
face $-1 $340 $341 $43 $-1 $342 reversed single #
loop $-1 $343 $174 $169 #
plane-surface $-1 0 -6.0169199519935201 0 0 1 0 0 0 1 forward_v I I I I #
coedge $-1 $344 $345 $346 $347 forward $170 $-1 #
coedge $-1 $348 $172 $349 $350 forward $115 $-1 #
coedge $-1 $172 $348 $351 $352 forward $115 $-1 #
coedge $-1 $353 $354 $172 $250 reversed $355 $-1 #
edge $-1 $356 -6.0169199519935201 $357 6.0169199519935201 $249 $358 forward 7 unknown #
coedge $-1 $251 $251 $173 $252 forward $359 $-1 #
edge $-1 $360 -3.1415926535897931 $360 3.1415926535897931 $251 $361 forward 7 unknown #
vertex $-1 $175 $362 #
ellipse-curve $-1 0 -6.0169199519935201 0 0 1 0 -0.99999999999999956 0 2.5617376914899013 1 I I #
face $-1 $-1 $262 $45 $-1 $363 reversed single #
loop $-1 $364 $365 $176 #
torus-surface $-1 1.7763568394002505e-015 3.2669199519935201 3.5527136788005009e-015 0 -1 0 1.75 -0.25 0 0 -1.0000000000000002 forward_v I I I I #
loop $-1 $-1 $366 $119 #
coedge $-1 $259 $259 $367 $368 reversed $177 $-1 #
coedge $-1 $260 $260 $366 $369 reversed $179 $-1 #
edge $-1 $370 -3.1415926535897931 $370 3.1415926535897931 $181 $371 forward 7 unknown #
loop $-1 $372 $182 $255 #
vertex $-1 $183 $373 #
ellipse-curve $-1 1.7763568394002505e-015 6.0169199519935201 3.5527136788005009e-015 0 -1 0 -1.5 -1.1070770805878195e-016 -1.1102230246251565e-016 1 I I #
loop $-1 $374 $190 $184 #
plane-surface $-1 -0.13935433237522041 -1.8811800480064811 -0.12362006664095189 0 1 0 0 0 1 forward_v I I I I #
loop $-1 $-1 $375 $124 #
coedge $-1 $268 $268 $188 $270 forward $185 $-1 #
coedge $-1 $269 $269 $189 $271 reversed $187 $-1 #
edge $-1 $376 -3.1415926535897931 $376 3.1415926535897931 $268 $377 forward 7 unknown #
edge $-1 $378 -2.3561944901923382 $378 3.9269908169872481 $269 $379 forward 7 unknown #
convexity-sys-attrib $-1 $-1 $-1 $191 #
vertex $-1 $191 $380 #
ellipse-curve $-1 -1.0775411102027983e-016 -1.8811800480064811 4.1252876143295069e-016 0 1 0 0 0 -2.4999999999991234 1 I I #
model_id-kcp-attrib $-1 $-1 $-1 $193 1 990635292 80 -883949567 7 #
face $381 $382 $205 $12 $-1 $383 reversed single #
loop $-1 $384 $385 $193 #
cone-surface $-1 3.5527136788005009e-015 8.8817841970012523e-016 2.1732191396029013 0 0 1 1.7659177056077389 -6.2802410841222844e-016 0 1 I I -0.3511234415883917 0.93632917756904455 1.7659177056077389 forward I I I I #
loop $-1 $-1 $386 $130 #
coedge $-1 $280 $280 $281 $387 reversed $194 $-1 #
coedge $-1 $281 $281 $280 $387 forward $196 $-1 #
coedge $-1 $282 $282 $197 $283 forward $388 $-1 #
edge $389 $390 -3.1415926535897998 $390 3.1415926535897865 $282 $391 forward 7 unknown #
loop $-1 $392 $198 $393 #
attrib_edge_convexity-kcp-attrib $-1 $394 $-1 $199 1 #
vertex $-1 $199 $395 #
ellipse-curve $-1 3.5527136788005009e-015 8.8817841970012523e-016 -3.7553000000000001 0 0 1 0.53033008588991071 -0.53033008588991071 0 1 I I #
loop $-1 $396 $200 $397 #
attrib_edge_convexity-kcp-attrib $-1 $398 $-1 $201 1 #
vertex $-1 $201 $399 #
ellipse-curve $-1 3.5527136788005009e-015 8.8817841970012523e-016 -0.125 0 0 1 0.53033008588991071 -0.53033008588991071 0 1 I I #
convexity-sys-attrib $-1 $-1 $202 $137 #
point $-1 -0.53033008588991082 0.53033008588990793 0.125 #
model_id-kcp-attrib $-1 $-1 $-1 $205 1 990635292 80 -883949567 37 #
loop $400 $-1 $401 $276 #
convexity-sys-attrib $-1 $-1 $206 $139 #
point $-1 -0.53033008588990349 0.53033008588991526 4.0106097713520974 #
model_id-kcp-attrib $-1 $-1 $-1 $210 1 990635292 80 -883949567 36 #
coedge $-1 $299 $299 $402 $403 forward $210 $-1 #
model_id-kcp-attrib $-1 $-1 $-1 $211 1 990635292 80 -883949567 23 #
face $404 $405 $406 $12 $-1 $407 forward single #
torus-surface $-1 3.5527136788005009e-015 8.8817841970012523e-016 3.5109999999999975 0 0 -1 0.73024964887648247 0.75 -0.70710678118654757 -0.70710678118654757 0 forward_v I I I I #
model_id-kcp-attrib $-1 $-1 $-1 $214 1 990635292 100 -882638846 2 #
face $-1 $-1 $229 $35 $-1 $408 reversed single #
loop $-1 $-1 $320 $214 #
plane-surface $-1 0 6.0169199519935201 0 0 -1 0 0 0 -1 forward_v I I I I #
coedge $-1 $409 $318 $321 $410 forward $215 $-1 #
coedge $-1 $324 $217 $218 $312 reversed $145 $-1 #
coedge $-1 $318 $409 $217 $310 reversed $215 $-1 #
edge $-1 $325 -3.8890872965260126 $411 3.8890872965260126 $309 $412 forward 7 unknown #
coedge $-1 $219 $218 $409 $413 forward $96 $-1 #
edge $-1 $316 -3.8890872965260126 $411 3.8890872965260126 $308 $414 forward 7 unknown #
coedge $-1 $321 $320 $219 $314 reversed $305 $-1 #
edge $-1 $415 -3.8890872965260126 $315 3.8890872965260126 $313 $416 forward 7 unknown #
vertex $-1 $221 $417 #
vertex $-1 $327 $418 #
straight-curve $-1 3.8890872965260126 0 -3.8890872965260126 0 -1 0 I I #
coedge $-1 $307 $309 $222 $319 reversed $215 $-1 #
edge $-1 $322 -6.0169199519935201 $325 6.0169199519935201 $318 $419 forward 7 unknown #
coedge $-1 $313 $223 $228 $328 forward $305 $-1 #
coedge $-1 $223 $313 $307 $410 reversed $305 $-1 #
vertex $-1 $224 $420 #
straight-curve $-1 0 6.0169199519935201 3.8890872965260126 -1 0 0 I I #
coedge $-1 $225 $308 $227 $327 reversed $145 $-1 #
vertex $-1 $319 $421 #
straight-curve $-1 0 -6.0169199519935201 3.8890872965260126 1 0 0 I I #
edge $-1 $230 -3.8890872965260126 $316 3.8890872965260126 $227 $422 forward 7 unknown #
edge $-1 $231 -3.8890872965260126 $315 3.8890872965260126 $228 $423 forward 7 unknown #
point $-1 3.8890872965260126 -6.0169199519935201 3.8890872965260126 #
point $-1 3.8890872965260126 6.0169199519935201 3.8890872965260126 #
vertex $-1 $233 $424 #
ellipse-curve $-1 0 0 -4.0080199519935196 0 0 -1 0.75000000000000011 0 0 1 I I #
point $-1 0.75000000000000011 0 4.0080199519935196 #
vertex $-1 $236 $425 #
ellipse-curve $-1 0 0 -2.7510000000000012 0 0 -1 1 0 0 1 I I #
point $-1 1 0 2.7510000000000012 #
vertex $-1 $240 $426 #
ellipse-curve $-1 0 0 1.375 0 0 1 1.25 0 0 1 I I #
point $-1 1.25 0 -1.375 #
face $-1 $427 $359 $43 $-1 $428 reversed single #
loop $-1 $-1 $429 $243 #
plane-surface $-1 -3.8890872965260126 0 0 1 0 0 0 0 -1 forward_v I I I I #
loop $-1 $-1 $430 $169 #
coedge $-1 $431 $246 $432 $433 forward $170 $-1 #
coedge $-1 $246 $431 $434 $435 forward $170 $-1 #
coedge $-1 $354 $353 $246 $347 reversed $355 $-1 #
edge $-1 $436 -6.0169199519935201 $437 6.0169199519935201 $346 $438 forward 7 unknown #
coedge $-1 $248 $247 $439 $440 forward $115 $-1 #
coedge $-1 $441 $442 $247 $350 reversed $443 $-1 #
edge $-1 $357 -3.8890872965260126 $444 3.8890872965260126 $349 $445 forward 7 unknown #
coedge $-1 $430 $446 $248 $352 reversed $343 $-1 #
edge $-1 $447 -3.8890872965260126 $356 3.8890872965260126 $351 $448 forward 7 unknown #
coedge $-1 $346 $249 $446 $449 forward $355 $-1 #
coedge $-1 $249 $346 $441 $450 reversed $355 $-1 #
loop $-1 $-1 $353 $427 #
vertex $-1 $250 $451 #
vertex $-1 $250 $452 #
straight-curve $-1 3.8890872965260126 0 3.8890872965260126 0 1 0 I I #
loop $-1 $443 $251 $340 #
vertex $-1 $252 $453 #
ellipse-curve $-1 0 6.0169199519935201 0 0 -1 0 -0.99999999999999956 0 2.5617376914899013 1 I I #
point $-1 0.99999999999999922 -6.0169199519935201 -2.5617376914899013 #
cone-surface $-1 1.7763568394002505e-015 6.0169199519935201 3.5527136788005009e-015 7.3805138705854651e-017 -1 0 -1.5 -1.1070770805878195e-016 -1.1102230246251565e-016 1 I I 0 1 1.5 forward I I I I #
loop $-1 $-1 $367 $176 #
coedge $-1 $365 $365 $454 $455 reversed $256 $-1 #
coedge $-1 $366 $366 $260 $369 forward $258 $-1 #
coedge $-1 $367 $367 $259 $368 forward $364 $-1 #
edge $456 $457 1.5707963267948897 $457 7.8539816339744757 $259 $458 forward 7 unknown #
edge $459 $460 -3.1415926535897931 $460 3.1415926535897931 $260 $461 forward 7 unknown #
vertex $-1 $261 $462 #
ellipse-curve $-1 0 6.0169199519935201 0 0 1 0 -0.99999999999999956 0 2.5617376914899013 1 I I #
loop $-1 $-1 $454 $255 #
point $-1 -1.4999999999999991 6.0169199519935201 2.2204460492503131e-015 #
loop $-1 $-1 $463 $184 #
coedge $-1 $375 $375 $463 $464 reversed $267 $-1 #
vertex $-1 $270 $465 #
ellipse-curve $-1 -1.1102230246251595e-016 -2.056740832471295 4.1252876143295069e-016 0 -1 0 0.75000000000000011 0 4.9041581342765269e-015 1 I I #
vertex $-1 $271 $466 #
ellipse-curve $-1 -1.0775411102027983e-016 -2.056740832471295 4.1252876143295069e-016 0 1 0 0 0 -2.4681645887845223 1 I I #
point $-1 -1.7677669529663571 -1.8811791116770991 -1.7677669529663806 #
model_id-kcp-attrib $-1 $-1 $-1 $276 1 990635292 80 -883949567 8 #
face $467 $468 $469 $12 $-1 $470 reversed single #
torus-surface $-1 3.5527136788005009e-015 8.8817841970012523e-016 3.5109999999999975 0 0 -1 0.73024964887648247 0.5 -0.70710678118654757 -0.70710678118654757 0 forward_v I I I I #
loop $471 $-1 $472 $193 #
coedge $-1 $385 $385 $386 $473 reversed $277 $-1 #
coedge $-1 $386 $386 $385 $473 forward $279 $-1 #
edge $-1 $474 6.7501559897209522e-015 $474 6.2831853071795933 $281 $475 forward 7 unknown #
loop $-1 $476 $282 $477 #
attrib_edge_convexity-kcp-attrib $-1 $478 $-1 $283 1 #
vertex $-1 $283 $479 #
ellipse-curve $-1 3.5527136788005009e-015 8.8817841970012523e-016 -3.5053000000000001 0 0 -1 0.53033008588991071 -0.53033008588991071 0 1 I I #
loop $-1 $-1 $480 $393 #
face $481 $477 $284 $12 $-1 $482 forward single #
convexity-sys-attrib $-1 $-1 $285 $199 #
point $-1 -0.53033008588990349 0.53033008588991526 -3.7553000000000001 #
loop $-1 $-1 $483 $397 #
face $484 $-1 $288 $12 $-1 $485 forward single #
convexity-sys-attrib $-1 $-1 $289 $201 #
point $-1 -0.53033008588990349 0.53033008588991526 -0.125 #
model_id-kcp-attrib $-1 $-1 $-1 $295 1 990635292 80 -883949567 38 #
coedge $-1 $401 $401 $472 $486 reversed $295 $-1 #
coedge $-1 $402 $402 $299 $403 reversed $487 $-1 #
edge $488 $489 -3.1415926535897865 $489 3.1415926535897998 $402 $490 forward 7 unknown #
model_id-kcp-attrib $-1 $-1 $-1 $301 1 990635292 80 -883949567 24 #
face $491 $492 $493 $12 $-1 $494 forward single #
loop $495 $496 $497 $301 #
torus-surface $-1 3.5527136788005009e-015 8.8817841970012523e-016 0.12499906367061797 0 0 1 2 0.75 0.70710678118654757 0.70710678118654757 0 forward_v I I I I #
plane-surface $-1 3.8890872965260126 0 0 -1 0 0 0 0 1 forward_v I I I I #
coedge $-1 $309 $307 $311 $413 reversed $215 $-1 #
edge $-1 $322 -3.8890872965260126 $415 3.8890872965260126 $321 $498 forward 7 unknown #
vertex $-1 $413 $499 #
straight-curve $-1 -3.8890872965260126 -6.0169199519935201 0 0 0 -1 I I #
edge $-1 $411 -6.0169199519935201 $415 6.0169199519935201 $409 $500 forward 7 unknown #
straight-curve $-1 0 -6.0169199519935201 -3.8890872965260126 -1 0 0 I I #
vertex $-1 $314 $501 #
straight-curve $-1 0 6.0169199519935201 -3.8890872965260126 1 0 0 I I #
point $-1 3.8890872965260126 6.0169199519935201 -3.8890872965260126 #
point $-1 3.8890872965260126 -6.0169199519935201 -3.8890872965260126 #
straight-curve $-1 -3.8890872965260126 0 3.8890872965260126 0 -1 0 I I #
point $-1 -3.8890872965260126 6.0169199519935201 3.8890872965260126 #
point $-1 -3.8890872965260126 -6.0169199519935201 3.8890872965260126 #
straight-curve $-1 3.8890872965260126 -6.0169199519935201 0 0 0 -1 I I #
straight-curve $-1 3.8890872965260126 6.0169199519935201 0 0 0 -1 I I #
point $-1 0.75000000000000011 0 -4.0080199519935196 #
point $-1 1 0 -2.7510000000000012 #
point $-1 1.25 0 1.375 #
face $-1 $-1 $355 $43 $-1 $502 reversed single #
plane-surface $-1 0 6.0169199519935201 0 0 -1 0 0 0 -1 forward_v I I I I #
coedge $-1 $503 $439 $442 $504 forward $341 $-1 #
coedge $-1 $432 $351 $505 $506 forward $343 $-1 #
coedge $-1 $345 $344 $503 $507 forward $170 $-1 #
coedge $-1 $446 $430 $344 $433 reversed $343 $-1 #
edge $-1 $437 -3.8890872965260126 $508 3.8890872965260126 $432 $509 forward 7 unknown #
coedge $-1 $442 $441 $345 $435 reversed $443 $-1 #
edge $-1 $510 -3.8890872965260126 $436 3.8890872965260126 $434 $511 forward 7 unknown #
vertex $-1 $347 $512 #
vertex $-1 $449 $513 #
straight-curve $-1 3.8890872965260126 0 -3.8890872965260126 0 -1 0 I I #
coedge $-1 $429 $505 $348 $440 reversed $341 $-1 #
edge $-1 $444 -6.0169199519935201 $447 6.0169199519935201 $439 $514 forward 7 unknown #
coedge $-1 $434 $349 $354 $450 forward $443 $-1 #
coedge $-1 $349 $434 $429 $504 reversed $443 $-1 #
loop $-1 $-1 $441 $340 #
vertex $-1 $350 $515 #
straight-curve $-1 0 6.0169199519935201 3.8890872965260126 -1 0 0 I I #
coedge $-1 $351 $432 $353 $449 reversed $343 $-1 #
vertex $-1 $440 $516 #
straight-curve $-1 0 -6.0169199519935201 3.8890872965260126 1 0 0 I I #
edge $-1 $356 -3.8890872965260126 $437 3.8890872965260126 $353 $517 forward 7 unknown #
edge $-1 $357 -3.8890872965260126 $436 3.8890872965260126 $354 $518 forward 7 unknown #
point $-1 3.8890872965260126 -6.0169199519935201 3.8890872965260126 #
point $-1 3.8890872965260126 6.0169199519935201 3.8890872965260126 #
point $-1 0.99999999999999989 6.0169199519935201 -2.5617376914899013 #
coedge $-1 $454 $454 $365 $455 forward $372 $-1 #
edge $519 $520 -3.1415926535898016 $520 3.1415926535897847 $454 $521 forward 7 unknown #
convexity-sys-attrib $-1 $-1 $-1 $368 #
vertex $-1 $368 $522 #
ellipse-curve $-1 1.7763568394002505e-015 3.0169199519935219 3.5527136788005009e-015 0 -1 0 0 0 -1.75 1 I I #
convexity-sys-attrib $-1 $-1 $-1 $369 #
vertex $-1 $369 $523 #
ellipse-curve $-1 0 3.0169199519935219 0 0 -1 0 -0.99999999999999956 0 2.5617376914899013 1 I I #
point $-1 0.99999999999999989 6.0169199519935201 -2.5617376914899013 #
coedge $-1 $463 $463 $375 $464 forward $374 $-1 #
edge $-1 $524 -3.1415926535897931 $524 3.1415926535897931 $375 $525 forward 7 unknown #
point $-1 -0.75000000000000022 -2.056740832471295 -4.6629367034256575e-015 #
point $-1 1.7452559178140561 -2.056740832471295 1.7452559178140326 #
model_id-kcp-attrib $-1 $-1 $-1 $382 1 990635292 80 -883949567 9 #
face $526 $527 $528 $12 $-1 $470 reversed single #
loop $-1 $529 $530 $382 #
cone-surface $-1 3.5527136788005009e-015 8.8817841970012523e-016 -1.7390000000000008 0 0 -1 -2.5000000000000009 6.2807831852085272e-016 0 1 I I 0 1 2.5000000000000009 forward I I I I #
model_id-kcp-attrib $-1 $-1 $-1 $384 1 990635292 80 -883949567 43 #
coedge $-1 $472 $472 $401 $486 forward $384 $-1 #
edge $-1 $531 -3.1415926535897993 $531 3.1415926535897869 $386 $532 forward 7 unknown #
vertex $-1 $387 $533 #
ellipse-curve $-1 3.5527136788005009e-015 8.8817841970012523e-016 0.125 0 0 1 2.4999999999991234 0 0 1 I I #
loop $-1 $-1 $534 $477 #
face $535 $397 $388 $12 $-1 $536 forward single #
convexity-sys-attrib $-1 $-1 $389 $283 #
point $-1 -0.53033008588991082 0.53033008588990793 -3.5053000000000001 #
coedge $-1 $480 $480 $537 $538 forward $392 $-1 #
model_id-kcp-attrib $-1 $-1 $-1 $393 1 990635292 80 -883949567 29 #
plane-surface $-1 0 0 -3.7553000000000001 0 0 -1 -1.0000000000000002 0 0 forward_v I I I I #
coedge $-1 $483 $483 $530 $539 forward $396 $-1 #
model_id-kcp-attrib $-1 $-1 $-1 $397 1 990635292 80 -883949567 31 #
plane-surface $-1 0 0 -0.125 0 0 -1 -1 0 0 forward_v I I I I #
edge $540 $541 -3.1415926535898016 $541 3.1415926535897847 $472 $542 forward 7 unknown #
loop $543 $544 $402 $492 #
attrib_edge_convexity-kcp-attrib $-1 $545 $-1 $403 3 #
vertex $-1 $403 $546 #
ellipse-curve $-1 3.5527136788005009e-015 8.8817841970012523e-016 3.7743425811912932 2.4800853609804039e-015 -2.4800853609804015e-015 1 1.4324965320532657 -6.2802410841222844e-016 -3.5527136788005009e-015 1 I I #
model_id-kcp-attrib $-1 $-1 $-1 $405 1 990635292 80 -883949567 25 #
face $547 $548 $487 $12 $-1 $549 forward single #
loop $-1 $550 $551 $405 #
torus-surface $-1 3.5527136788005009e-015 8.8817841970012523e-016 -3.7553330470336324 0 0 -1 2 0.75 -0.70710678118654757 -0.70710678118654757 0 forward_v I I I I #
model_id-kcp-attrib $-1 $-1 $-1 $406 1 990635292 80 -883949567 41 #
loop $552 $-1 $553 $301 #
coedge $-1 $497 $497 $554 $555 forward $406 $-1 #
straight-curve $-1 -3.8890872965260126 6.0169199519935201 0 0 0 -1 I I #
point $-1 -3.8890872965260126 -6.0169199519935201 -3.8890872965260126 #
straight-curve $-1 -3.8890872965260126 0 -3.8890872965260126 0 1 0 I I #
point $-1 -3.8890872965260126 6.0169199519935201 -3.8890872965260126 #
plane-surface $-1 3.8890872965260126 0 0 -1 0 0 0 0 1 forward_v I I I I #
coedge $-1 $505 $429 $431 $507 reversed $341 $-1 #
edge $-1 $444 -3.8890872965260126 $510 3.8890872965260126 $442 $556 forward 7 unknown #
coedge $-1 $439 $503 $430 $506 reversed $341 $-1 #
edge $-1 $447 -3.8890872965260126 $508 3.8890872965260126 $505 $557 forward 7 unknown #
edge $-1 $508 -6.0169199519935201 $510 6.0169199519935201 $503 $558 forward 7 unknown #
vertex $-1 $507 $559 #
straight-curve $-1 0 -6.0169199519935201 -3.8890872965260126 -1 0 0 I I #
vertex $-1 $435 $560 #
straight-curve $-1 0 6.0169199519935201 -3.8890872965260126 1 0 0 I I #
point $-1 3.8890872965260126 6.0169199519935201 -3.8890872965260126 #
point $-1 3.8890872965260126 -6.0169199519935201 -3.8890872965260126 #
straight-curve $-1 -3.8890872965260126 0 3.8890872965260126 0 -1 0 I I #
point $-1 -3.8890872965260126 6.0169199519935201 3.8890872965260126 #
point $-1 -3.8890872965260126 -6.0169199519935201 3.8890872965260126 #
straight-curve $-1 3.8890872965260126 -6.0169199519935201 0 0 0 -1 I I #
straight-curve $-1 3.8890872965260126 6.0169199519935201 0 0 0 -1 I I #
convexity-sys-attrib $-1 $-1 $-1 $455 #
vertex $-1 $455 $561 #
ellipse-curve $-1 1.7763568394002505e-015 3.2669199519935201 3.5527136788005009e-015 0 -1 0 -1.5 -1.1070770805878195e-016 -1.1102230246251565e-016 1 I I #
point $-1 1.7500000000000029 3.0169199519935201 -8.4376949871511897e-015 #
point $-1 0.99999999999999989 3.0169199519935219 -2.5617376914899013 #
vertex $-1 $464 $562 #
ellipse-curve $-1 -1.1102230246251595e-016 -1.8811800480064811 4.1252876143295069e-016 0 -1 0 0.75000000000000011 0 4.9041581342765269e-015 1 I I #
model_id-kcp-attrib $-1 $-1 $-1 $468 1 990635292 80 -883949567 10 #
face $563 $564 $565 $12 $-1 $566 reversed single #
loop $-1 $567 $537 $468 #
loop $-1 $568 $569 $382 #
coedge $-1 $530 $530 $483 $539 reversed $469 $-1 #
vertex $-1 $473 $570 #
ellipse-curve $-1 3.5527136788005009e-015 8.8817841970012523e-016 0.30056078446481393 0 0 1 2.4681645887845218 -9.420632676726548e-016 0 1 I I #
point $-1 2.5000000000000036 1.7763568394002505e-014 0.12499906367061797 #
coedge $-1 $534 $534 $569 $571 forward $476 $-1 #
model_id-kcp-attrib $-1 $-1 $-1 $477 1 990635292 80 -883949567 30 #
plane-surface $-1 0 0 -3.5053000000000001 0 0 1 1.0000000000000002 0 0 forward_v I I I I #
coedge $-1 $537 $537 $480 $538 reversed $528 $-1 #
edge $572 $573 -3.1415926535897998 $573 3.1415926535897865 $480 $574 forward 7 unknown #
edge $-1 $575 -3.1415926535897998 $575 3.1415926535897865 $483 $576 forward 7 unknown #
attrib_edge_convexity-kcp-attrib $-1 $577 $-1 $486 4 #
vertex $-1 $486 $578 #
ellipse-curve $-1 3.5527136788005009e-015 8.8817841970012523e-016 3.6865617207941934 0 0 1 1.1984142376610045 -4.710316338363274e-016 0 1 I I #
model_id-kcp-attrib $-1 $-1 $-1 $487 1 990635292 80 -883949567 39 #
loop $579 $-1 $580 $492 #
convexity-sys-attrib $-1 $-1 $488 $403 #
point $-1 -1.4324965320532641 -7.9936057773011271e-015 3.7743425811912967 #
model_id-kcp-attrib $-1 $-1 $-1 $492 1 990635292 80 -883949567 26 #
face $581 $582 $583 $12 $-1 $584 forward single #
cone-surface $-1 3.5527136788005009e-015 8.8817841970012523e-016 2.2609999999999992 0 0 1 2.0000000000000004 0 0 1 I I -0.3511234415883917 0.93632917756904455 2.0000000000000004 forward I I I I #
loop $-1 $-1 $585 $405 #
coedge $-1 $551 $551 $586 $587 forward $493 $-1 #
model_id-kcp-attrib $-1 $-1 $-1 $496 1 990635292 80 -883949567 42 #
coedge $-1 $553 $553 $580 $588 forward $496 $-1 #
coedge $-1 $554 $554 $497 $555 reversed $589 $-1 #
edge $590 $591 -3.1415926535898002 $591 3.141592653589786 $554 $592 forward 7 unknown #
straight-curve $-1 -3.8890872965260126 6.0169199519935201 0 0 0 -1 I I #
straight-curve $-1 -3.8890872965260126 -6.0169199519935201 0 0 0 -1 I I #
straight-curve $-1 -3.8890872965260126 0 -3.8890872965260126 0 1 0 I I #
point $-1 -3.8890872965260126 -6.0169199519935201 -3.8890872965260126 #
point $-1 -3.8890872965260126 6.0169199519935201 -3.8890872965260126 #
point $-1 1.5000000000000013 3.2669199519935201 -8.992806499463768e-015 #
point $-1 -0.75000000000000022 -1.8811800480064811 -4.5834748493802545e-015 #
model_id-kcp-attrib $-1 $-1 $-1 $527 1 990635292 80 -883949567 11 #
face $593 $594 $595 $12 $-1 $566 reversed single #
loop $596 $597 $598 $527 #
cone-surface $-1 -0.001909188309202392 -0.0019091883092032802 -1.7390000000000008 -0.70710678118654757 -0.70710678118654757 0 0 0 1 1 I I 0 1 1 forward I I I I #
loop $-1 $-1 $599 $468 #
loop $-1 $600 $601 $382 #
coedge $-1 $569 $569 $534 $571 reversed $529 $-1 #
point $-1 -2.4681645887845214 1.7763568394002505e-014 0.30056078446481393 #
edge $-1 $602 -3.1415926535897998 $602 3.1415926535897865 $534 $603 forward 7 unknown #
attrib_edge_convexity-kcp-attrib $-1 $604 $-1 $538 2 #
vertex $-1 $538 $605 #
ellipse-curve $-1 3.5527136788005009e-015 8.8817841970012523e-016 -3.7553000000000001 0 0 -1 -2.5000000000000009 6.2807831852085272e-016 0 1 I I #
vertex $-1 $539 $606 #
ellipse-curve $-1 3.5527136788005009e-015 8.8817841970012523e-016 -0.125 0 0 -1 -2.5000000000000009 6.2807831852085272e-016 0 1 I I #
convexity-sys-attrib $-1 $-1 $540 $486 #
point $-1 -1.1984142376610016 1.1546319456101628e-014 3.6865617207941934 #
model_id-kcp-attrib $-1 $-1 $-1 $544 1 990635292 80 -883949567 40 #
coedge $-1 $580 $580 $553 $588 reversed $544 $-1 #
model_id-kcp-attrib $-1 $-1 $-1 $548 1 990635292 80 -883949567 27 #
face $607 $393 $608 $12 $-1 $609 reversed single #
loop $-1 $610 $611 $548 #
cone-surface $-1 3.5527136788005009e-015 8.8817841970012523e-016 -1.7390000000000008 0 0 -1 -2.7500000000000004 0 0 1 I I 0 1 2.7500000000000004 forward I I I I #
coedge $-1 $585 $585 $612 $613 forward $550 $-1 #
coedge $-1 $586 $586 $551 $587 reversed $614 $-1 #
edge $-1 $615 -3.1415926535898007 $615 3.1415926535897856 $586 $616 forward 7 unknown #
edge $617 $618 -3.141592653589786 $618 3.1415926535898002 $580 $619 forward 7 unknown #
loop $620 $614 $554 $548 #
attrib_edge_convexity-kcp-attrib $-1 $621 $-1 $555 3 #
vertex $-1 $555 $622 #
ellipse-curve $-1 3.5527136788005009e-015 8.8817841970012523e-016 0.12499906367061797 0 0 1 2.7500000000000009 0 0 1 I I #
model_id-kcp-attrib $-1 $-1 $-1 $564 1 990635292 80 -883949567 12 #
face $623 $624 $625 $12 $-1 $626 reversed single #
loop $-1 $627 $628 $564 #
model_id-kcp-attrib $-1 $-1 $-1 $565 1 990635292 80 -883949567 45 #
loop $629 $-1 $630 $527 #
coedge $-1 $598 $598 $631 $632 reversed $565 $-1 #
coedge $-1 $599 $599 $633 $634 forward $567 $-1 #
loop $635 $-1 $636 $382 #
coedge $-1 $601 $601 $628 $637 forward $568 $-1 #
vertex $-1 $571 $638 #
ellipse-curve $-1 3.5527136788005009e-015 8.8817841970012523e-016 -3.5053000000000001 0 0 1 -2.5000000000000009 6.2807831852085272e-016 0 1 I I #
convexity-sys-attrib $-1 $-1 $572 $538 #
point $-1 2.5000000000000044 1.7717516906726189e-014 -3.7553000000000001 #
point $-1 2.5000000000000044 1.7717516906726189e-014 -0.125 #
model_id-kcp-attrib $-1 $639 $-1 $582 1 990635292 80 -883949567 32 #
loop $640 $641 $642 $582 #
plane-surface $-1 0 -3.5527136788005009e-015 -7.7731000000000012 0 0 1 0.70710678118654757 0.70710678118654757 0 forward_v I I I I #
loop $643 $589 $631 $548 #
coedge $-1 $611 $611 $644 $645 forward $583 $-1 #
coedge $-1 $612 $612 $585 $613 reversed $646 $-1 #
edge $-1 $647 -3.1415926535897856 $647 3.1415926535898007 $612 $648 forward 7 unknown #
loop $-1 $-1 $586 $548 #
vertex $-1 $587 $649 #
ellipse-curve $-1 3.5527136788005009e-015 8.8817841970012523e-016 -3.7553330470336324 0 0 -1 -2.7500000000000009 0 0 1 I I #
attrib_edge_convexity-kcp-attrib $-1 $650 $-1 $588 3 #
vertex $-1 $588 $651 #
ellipse-curve $-1 0 1.7763568394002505e-015 0.38834164486191192 0 0 -1 2.7022468831767843 6.2796989830360417e-016 0 1 I I #
model_id-kcp-attrib $-1 $-1 $-1 $589 1 990635292 80 -883949567 44 #
convexity-sys-attrib $-1 $-1 $590 $555 #
point $-1 -2.75 2.042810365310288e-014 0.12499906367061797 #
model_id-kcp-attrib $-1 $-1 $-1 $594 1 990635292 80 -883949567 13 #
face $652 $653 $654 $12 $-1 $655 reversed single #
loop $-1 $656 $633 $594 #
torus-surface $-1 3.5527136788005009e-015 8.8817841970012523e-016 -3.7553330470336324 0 0 -1 2 0.5 -0.70710678118654757 -0.70710678118654757 0 forward_v I I I I #
loop $-1 $-1 $644 $564 #
coedge $-1 $628 $628 $601 $637 reversed $595 $-1 #
model_id-kcp-attrib $-1 $-1 $-1 $597 1 990635292 80 -883949567 46 #
coedge $-1 $630 $630 $636 $657 reversed $597 $-1 #
coedge $-1 $631 $631 $598 $632 forward $610 $-1 #
edge $658 $659 0 $659 6.0879081690520662 $631 $660 forward 7 unknown #
coedge $-1 $633 $633 $599 $634 reversed $625 $-1 #
edge $-1 $661 -3.1415926535897998 $661 3.1415926535897865 $633 $662 forward 7 unknown #
model_id-kcp-attrib $-1 $-1 $-1 $600 1 990635292 80 -883949567 48 #
coedge $-1 $636 $636 $630 $657 forward $600 $-1 #
edge $663 $664 0 $664 6.1018346844154827 $601 $665 forward 7 unknown #
point $-1 2.5000000000000044 -1.7197316704367644e-014 -3.5053000000000001 #
model_id-kcp-attrib $-1 $-1 $607 $582 1 990635292 80 -883949567 28 #
model_id-kcp-attrib $-1 $-1 $-1 $608 1 990635292 80 -883949567 53 #
loop $-1 $-1 $666 $582 #
coedge $-1 $642 $642 $667 $668 forward $608 $-1 #
model_id-kcp-attrib $-1 $-1 $-1 $610 1 990635292 80 -883949567 47 #
coedge $-1 $644 $644 $611 $645 reversed $627 $-1 #
edge $669 $670 0 $670 6.0879081690520644 $611 $671 forward 7 unknown #
loop $-1 $672 $612 $673 #
vertex $-1 $613 $674 #
ellipse-curve $-1 3.5527136788005009e-015 8.8817841970012523e-016 -4.2856631329235437 2.0918006608475865e-031 -7.0202573541922304e-016 1 -2.5303300858899114 -6.2796989830360417e-016 0 1 I I #
point $-1 2.7500000000000036 2.2204460492503131e-014 -3.7553330470336324 #
convexity-sys-attrib $-1 $-1 $617 $588 #
point $-1 -2.7022468831767839 2.042810365310288e-014 0.38834164486191192 #
model_id-kcp-attrib $-1 $-1 $-1 $624 1 990635292 80 -883949567 14 #
face $675 $676 $677 $12 $-1 $678 forward single #
loop $-1 $679 $680 $624 #
cone-surface $-1 3.5527136788005009e-015 8.8817841970012523e-016 -4.2427699141100916 0 0 1 -2.2196699141100908 -6.2807831852085272e-016 0 1 I I 0.70710678118654757 0.70710678118654757 2.2196699141100908 forward I I I I #
loop $-1 $-1 $681 $594 #
edge $682 $683 0 $683 6.1018346844154827 $636 $684 forward 7 unknown #
attrib_edge_convexity-kcp-attrib $-1 $685 $-1 $632 1 #
vertex $-1 $632 $686 #
intcurve-curve $-1 forward { surfintcur full nubs 3 periodic 17 
	0 3 0.38062200213782982 2 0.76124400427565964 2 1.1416105232693416 2 1.5219770422630234 2 
	1.9023435612567052 2 2.282710080250387 2 2.6633320823882101 2 3.0439540845260331 2 3.4245760866638681 2 
	3.8051980888017032 2 4.1855646077953832 2 4.5659311267890637 2 4.9462976457827441 2 5.3266641647764246 2 
	5.7072861669142458 2 6.0879081690520662 3 
	1.1043153120871327 2.518528874460229 -1.7390000000000008 
	1.1043153120871327 2.518528874460229 -1.8658740007126102 
	1.1297810152315559 2.5077975874408027 -2.0003079762171385 
	1.2279843712056664 2.4612005391961 -2.2462828045337293 
	1.3002308445482047 2.4249171984859919 -2.3579402147957147 
	1.4580402694192749 2.3334376081255148 -2.534214167941256 
	1.5544579238133274 2.2719152024634739 -2.6110016117895096 
	1.7530049830898289 2.1224777157289565 -2.71342509276157 
	1.8548903999574282 2.0341968965685862 -2.7390000000000025 
	2.0341968965685968 1.8548903999574176 -2.738999999999999 
	2.1224777157289623 1.7530049830898182 -2.7134250927615664 
	2.2719152024634806 1.5544579238133167 -2.6110016117895025 
	2.3334376081255215 1.4580402694192633 -2.5342141679412471 
	2.4249171984859945 1.3002308445481976 -2.3579402147957058 
	2.4612005391961045 1.2279843712056611 -2.2462828045337186 
	2.5077975874408036 1.1297810152315533 -2.0003079762171332 
	2.5185288744602286 1.1043153120871336 -1.8658740007126084 
	2.5185288744602286 1.1043153120871336 -1.6121259992873878 
	2.5077975874408054 1.1297810152315577 -1.4776920237828595 
	2.4612005391961027 1.2279843712056699 -1.2317171954662687 
	2.4249171984859892 1.3002308445482109 -1.1200597852042815 
	2.3334376081255108 1.4580402694192811 -0.94378583205874023 
	2.2719152024634699 1.5544579238133323 -0.86699838821048658 
	2.1224777157289516 1.7530049830898347 -0.7645749072384298 
	2.0341968965685826 1.8548903999574331 -0.73899999999999899 
	1.854890399957414 2.0341968965686017 -0.73900000000000254 
	1.7530049830898147 2.1224777157289672 -0.76457490723843691 
	1.5544579238133149 2.2719152024634828 -0.86699838821050079 
	1.4580402694192625 2.3334376081255224 -0.94378583205875799 
	1.3002308445481976 2.4249171984859945 -1.1200597852042993 
	1.2279843712056611 2.4612005391961049 -1.2317171954662829 
	1.1297810152315542 2.5077975874408036 -1.4776920237828683 
	1.1043153120871327 2.518528874460229 -1.6121259992873949 
	1.1043153120871327 2.518528874460229 -1.7390000000000008 
	0.001 
	cone -0.001909188309202392 -0.0019091883092032802 -1.7390000000000008 -0.70710678118654757 -0.70710678118654757 0 0 0 1 1 I I 0 1 1 forward I I I I 
	cone 3.5527136788005009e-015 8.8817841970012523e-016 -1.7390000000000008 0 0 -1 -2.7500000000000004 0 0 1 I I 0 1 2.7500000000000004 forward I I I I 
	nullbs 
	nullbs 
	I I 
	0 
	0 
	0 
	} I I #
vertex $-1 $634 $687 #
ellipse-curve $-1 3.5527136788005009e-015 8.8817841970012523e-016 -3.7553330470336324 0 0 -1 -2.5000000000000009 4.7108584394495168e-016 0 1 I I #
attrib_edge_convexity-kcp-attrib $-1 $688 $-1 $637 1 #
vertex $-1 $637 $689 #
intcurve-curve $-1 forward { surfintcur full nubs 3 periodic 17 
	0 3 0.38155766525264667 2 0.76311533050529334 2 1.1442870008045785 2 1.5254586711038638 2 
	1.90663034140315 2 2.287802011702436 2 2.6693596769550885 2 3.0509173422077414 2 3.4324750074603929 2 
	3.8140326727130445 2 4.1952043430123283 2 4.576376013311612 2 4.9575476836108958 2 5.3387193539101796 2 
	5.7202770191628307 2 6.1018346844154827 3 
	-2.3272919557885139 -0.9130783934154163 -1.7390000000000008 
	-2.3272919557885139 -0.9130783934154163 -1.8661858884175491 
	-2.3173918737942678 -0.93953901439241161 -2.0007202990559261 
	-2.2737275793862466 -1.0407695894951683 -2.2465867622714004 
	-2.2394787894806498 -1.1149707986244835 -2.3580663365402366 
	-2.1517306088634065 -1.2761126437750185 -2.5340581615303321 
	-2.0921327420828568 -1.374218377733631 -2.6108114363643224 
	-1.9452714012310253 -1.5752506903448866 -2.7133192838275928 
	-1.857609977254647 -1.6779239286780872 -2.7390000000000008 
	-1.6779239286780943 -1.8576099772546391 -2.7390000000000025 
	-1.5752506903448982 -1.9452714012310164 -2.7133192838275981 
	-1.3742183777336408 -2.0921327420828462 -2.6108114363643296 
	-1.2761126437750221 -2.1517306088634003 -2.5340581615303392 
	-1.114970798624487 -2.2394787894806472 -2.3580663365402454 
	-1.0407695894951701 -2.2737275793862448 -2.2465867622714093 
	-0.9395390143924125 -2.3173918737942678 -2.0007202990559314 
	-0.91307839341541808 -2.3272919557885121 -1.8661858884175508 
	-0.91307839341541808 -2.3272919557885121 -1.6118141115824507 
	-0.9395390143924125 -2.3173918737942678 -1.4772797009440701 
	-1.0407695894951701 -2.2737275793862457 -1.2314132377285922 
	-1.114970798624487 -2.2394787894806489 -1.1199336634597579 
	-1.2761126437750221 -2.1517306088634021 -0.94394183846966406 
	-1.3742183777336372 -2.0921327420828506 -0.86718856363567376 
	-1.5752506903448911 -1.9452714012310208 -0.76468071617240518 
	-1.6779239286780907 -1.8576099772546426 -0.73900000000000077 
	-1.8576099772546435 -1.6779239286780925 -0.73900000000000077 
	-1.9452714012310217 -1.5752506903448928 -0.76468071617240518 
	-2.0921327420828497 -1.3742183777336372 -0.86718856363567376 
	-2.1517306088634029 -1.276112643775023 -0.94394183846966406 
	-2.2394787894806463 -1.114970798624487 -1.1199336634597579 
	-2.273727579386243 -1.0407695894951718 -1.231413237728594 
	-2.3173918737942678 -0.9395390143924125 -1.4772797009440701 
	-2.3272919557885139 -0.9130783934154163 -1.6118141115824489 
	-2.3272919557885139 -0.9130783934154163 -1.7390000000000008 
	0.001 
	cone -0.001909188309202392 -0.0019091883092032802 -1.7390000000000008 -0.70710678118654757 -0.70710678118654757 0 0 0 1 1 I I 0 1 1 forward I I I I 
	cone 3.5527136788005009e-015 8.8817841970012523e-016 -1.7390000000000008 0 0 -1 -2.5000000000000009 6.2807831852085272e-016 0 1 I I 0 -1 2.5000000000000009 forward I I I I 
	nullbs 
	nullbs 
	I I 
	0 
	0 
	0 
	} I I #
coedge $-1 $666 $666 $690 $691 reversed $641 $-1 #
coedge $-1 $667 $667 $642 $668 reversed $692 $-1 #
edge $693 $694 -3.141592653589786 $694 3.1415926535898002 $642 $695 forward 7 unknown #
attrib_edge_convexity-kcp-attrib $-1 $696 $-1 $645 1 #
vertex $-1 $645 $697 #
intcurve-curve $-1 forward { surfintcur full nubs 3 periodic 17 
	0 3 0.38062200213782088 2 0.76124400427564176 2 1.1416105232693221 2 1.5219770422630023 2 
	1.9023435612566821 2 2.2827100802503617 2 2.6633320823881972 2 3.0439540845260322 2 3.4245760866638553 2 
	3.8051980888016783 2 4.1855646077953601 2 4.5659311267890414 2 4.9462976457827228 2 5.326664164776405 2 
	5.7072861669142352 2 6.0879081690520644 3 
	-2.5185288744602268 -1.1043153120871301 -1.7390000000000008 
	-2.5185288744602268 -1.1043153120871301 -1.6121259992873949 
	-2.5077975874408018 -1.1297810152315506 -1.4776920237828701 
	-2.4612005391961027 -1.2279843712056575 -1.2317171954662847 
	-2.4249171984859927 -1.3002308445481958 -1.1200597852042993 
	-2.3334376081255215 -1.458040269419258 -0.94378583205875799 
	-2.2719152024634823 -1.5544579238133123 -0.86699838821049902 
	-2.1224777157289658 -1.753004983089812 -0.76457490723843513 
	-2.0341968965685986 -1.8548903999574096 -0.73900000000000254 
	-1.85489039995743 -2.034196896568579 -0.73899999999999899 
	-1.7530049830898342 -2.1224777157289472 -0.76457490723842803 
	-1.5544579238133345 -2.2719152024634646 -0.8669983882104848 
	-1.4580402694192784 -2.3334376081255099 -0.943785832058742 
	-1.30023084454821 -2.4249171984859883 -1.1200597852042797 
	-1.2279843712056646 -2.4612005391960974 -1.2317171954662705 
	-1.1297810152315506 -2.5077975874408009 -1.477692023782863 
	-1.104315312087131 -2.5185288744602259 -1.6121259992873878 
	-1.104315312087131 -2.5185288744602259 -1.8658740007126084 
	-1.1297810152315506 -2.5077975874408018 -2.0003079762171332 
	-1.2279843712056575 -2.4612005391961027 -2.2462828045337186 
	-1.3002308445481958 -2.4249171984859927 -2.3579402147957058 
	-1.4580402694192607 -2.3334376081255179 -2.5342141679412471 
	-1.5544579238133132 -2.2719152024634797 -2.6110016117895025 
	-1.7530049830898164 -2.1224777157289623 -2.7134250927615664 
	-1.8548903999574158 -2.0341968965685933 -2.738999999999999 
	-2.0341968965685844 -1.8548903999574256 -2.7390000000000025 
	-2.1224777157289516 -1.7530049830898253 -2.71342509276157 
	-2.2719152024634681 -1.5544579238133238 -2.6110016117895096 
	-2.3334376081255108 -1.4580402694192713 -2.534214167941256 
	-2.4249171984859856 -1.300230844548202 -2.3579402147957147 
	-2.4612005391960992 -1.227984371205662 -2.2462828045337293 
	-2.5077975874408018 -1.1297810152315533 -2.0003079762171385 
	-2.5185288744602268 -1.1043153120871301 -1.865874000712612 
	-2.5185288744602268 -1.1043153120871301 -1.7390000000000008 
	0.001 
	cone -0.001909188309202392 -0.0019091883092032802 -1.7390000000000008 -0.70710678118654757 -0.70710678118654757 0 0 0 1 1 I I 0 1 1 forward I I I I 
	cone 3.5527136788005009e-015 8.8817841970012523e-016 -1.7390000000000008 0 0 -1 -2.7500000000000004 0 0 1 I I 0 1 2.7500000000000004 forward I I I I 
	nullbs 
	nullbs 
	I I 
	0 
	0 
	0 
	} I I #
loop $-1 $-1 $698 $673 #
face $699 $700 $646 $12 $-1 $701 forward single #
point $-1 2.5303300858899131 2.1316282072803006e-014 -4.2856631329235437 #
model_id-kcp-attrib $-1 $-1 $-1 $653 1 990635292 80 -883949567 15 #
face $702 $703 $704 $12 $-1 $705 reversed single #
loop $-1 $706 $707 $653 #
plane-surface $-1 -1.6433161594775356 -2.3365636477528291 -4.5231000000000012 0 0 1 0.70710678118654757 0.70710678118654757 0 forward_v I I I I #
loop $-1 $-1 $708 $624 #
coedge $-1 $680 $680 $707 $709 reversed $654 $-1 #
coedge $-1 $681 $681 $708 $710 reversed $656 $-1 #
attrib_edge_convexity-kcp-attrib $-1 $711 $-1 $657 1 #
vertex $-1 $657 $712 #
intcurve-curve $-1 forward { surfintcur full nubs 3 periodic 17 
	0 3 0.38155766525265156 2 0.76311533050530311 2 1.1442870008045869 2 1.5254586711038707 2 
	1.9066303414031545 2 2.2878020117024382 2 2.6693596769550898 2 3.0509173422077414 2 3.4324750074603942 2 
	3.8140326727130467 2 4.1952043430123327 2 4.5763760133116191 2 4.9575476836109047 2 5.3387193539101894 2 
	5.720277019162836 2 6.1018346844154827 3 
	0.91307839341541985 2.3272919557885157 -1.7390000000000008 
	0.91307839341541985 2.3272919557885157 -1.6118141115824489 
	0.93953901439241427 2.3173918737942714 -1.4772797009440737 
	1.0407695894951736 2.2737275793862488 -1.2314132377285958 
	1.1149707986244906 2.2394787894806512 -1.1199336634597579 
	1.2761126437750256 2.1517306088634043 -0.94394183846966406 
	1.374218377733639 2.0921327420828515 -0.86718856363567376 
	1.5752506903448946 1.9452714012310217 -0.76468071617240518 
	1.677923928678096 1.8576099772546453 -0.73900000000000077 
	1.8576099772546453 1.6779239286780951 -0.73900000000000077 
	1.9452714012310217 1.5752506903448946 -0.76468071617240518 
	2.0921327420828515 1.374218377733639 -0.86718856363567376 
	2.1517306088634047 1.2761126437750256 -0.94394183846966406 
	2.2394787894806516 1.1149707986244897 -1.1199336634597579 
	2.2737275793862484 1.0407695894951745 -1.2314132377285922 
	2.3173918737942714 0.93953901439241516 -1.4772797009440701 
	2.3272919557885157 0.91307839341541985 -1.6118141115824507 
	2.3272919557885157 0.91307839341541985 -1.8661858884175508 
	2.3173918737942696 0.93953901439241427 -2.0007202990559314 
	2.2737275793862466 1.0407695894951736 -2.2465867622714093 
	2.2394787894806498 1.1149707986244906 -2.3580663365402454 
	2.1517306088634047 1.2761126437750265 -2.5340581615303375 
	2.0921327420828479 1.3742183777336408 -2.6108114363643313 
	1.9452714012310182 1.5752506903448973 -2.7133192838275999 
	1.8576099772546417 1.6779239286780996 -2.7390000000000008 
	1.6779239286780889 1.8576099772546515 -2.738999999999999 
	1.5752506903448875 1.945271401231027 -2.7133192838275946 
	1.3742183777336319 2.0921327420828568 -2.6108114363643224 
	1.2761126437750185 2.1517306088634096 -2.5340581615303304 
	1.1149707986244852 2.2394787894806534 -2.3580663365402366 
	1.0407695894951701 2.2737275793862501 -2.2465867622714004 
	0.93953901439241427 2.31739187379427 -2.0007202990559261 
	0.91307839341541985 2.3272919557885157 -1.8661858884175491 
	0.91307839341541985 2.3272919557885157 -1.7390000000000008 
	0.001 
	cone -0.001909188309202392 -0.0019091883092032802 -1.7390000000000008 -0.70710678118654757 -0.70710678118654757 0 0 0 1 1 I I 0 1 1 forward I I I I 
	cone 3.5527136788005009e-015 8.8817841970012523e-016 -1.7390000000000008 0 0 -1 -2.5000000000000009 6.2807831852085272e-016 0 1 I I 0 -1 2.5000000000000009 forward I I I I 
	nullbs 
	nullbs 
	I I 
	0 
	0 
	0 
	} I I #
convexity-sys-attrib $-1 $-1 $658 $632 #
point $-1 1.1043153120871327 2.518528874460229 -1.7390000000000008 #
point $-1 2.5000000000000036 1.7763568394002505e-014 -3.7553330470336324 #
convexity-sys-attrib $-1 $-1 $663 $637 #
point $-1 -2.3272919557885139 -0.9130783934154163 -1.7390000000000008 #
coedge $-1 $690 $690 $666 $691 forward $713 $-1 #
edge $714 $715 7.894919286223331e-016 $715 6.2831853071795871 $690 $716 forward 7 unknown #
loop $717 $718 $667 $703 #
attrib_edge_convexity-kcp-attrib $-1 $719 $-1 $668 1 #
vertex $-1 $668 $720 #
ellipse-curve $-1 0 0 -7.7731000000000012 0 0 1 0.88388347648318444 -0.88388347648318444 0 1 I I #
convexity-sys-attrib $-1 $-1 $669 $645 #
point $-1 -2.5185288744602268 -1.1043153120871301 -1.7390000000000008 #
coedge $-1 $698 $698 $721 $722 reversed $672 $-1 #
model_id-kcp-attrib $-1 $-1 $-1 $673 1 990635292 80 -883949567 21 #
face $723 $211 $724 $12 $-1 $725 reversed single #
cone-surface $-1 3.5527136788005009e-015 8.8817841970012523e-016 -4.4195466094067282 0 0 1 -2.3964466094067265 0 0 1 I I 0.70710678118654757 0.70710678118654757 2.3964466094067265 forward I I I I #
model_id-kcp-attrib $-1 $-1 $-1 $676 1 990635292 80 -883949567 16 #
face $726 $727 $692 $12 $-1 $728 reversed single #
loop $729 $730 $731 $676 #
torus-surface $-1 0 0 -5.0231000000000012 0 0 1 1.75 -0.5 0.70710678118654757 0.70710678118654757 0 forward_v I I I I #
loop $732 $-1 $733 $653 #
coedge $-1 $707 $707 $680 $709 forward $677 $-1 #
coedge $-1 $708 $708 $681 $710 forward $679 $-1 #
edge $-1 $734 -3.1415926535897993 $734 3.1415926535897869 $707 $735 forward 7 unknown #
edge $-1 $736 -3.1415926535898002 $736 3.141592653589786 $708 $737 forward 7 unknown #
convexity-sys-attrib $-1 $-1 $682 $657 #
point $-1 0.91307839341541985 2.3272919557885157 -1.7390000000000008 #
loop $-1 $738 $690 $739 #
attrib_edge_convexity-kcp-attrib $-1 $740 $-1 $691 1 #
vertex $-1 $691 $741 #
ellipse-curve $-1 0 0 -7.7731000000000012 -8.6592745707193554e-017 0 1 1.0606601717798214 -1.0606601717798212 9.1845476536678294e-017 1 I I #
model_id-kcp-attrib $-1 $-1 $-1 $692 1 990635292 80 -883949567 49 #
loop $742 $-1 $743 $703 #
convexity-sys-attrib $-1 $-1 $693 $668 #
point $-1 -0.88388347648319154 0.88388347648317911 -7.7731000000000012 #
coedge $-1 $721 $721 $698 $722 forward $744 $-1 #
edge $-1 $745 -3.1415926535897865 $745 3.1415926535897998 $698 $746 forward 7 unknown #
model_id-kcp-attrib $-1 $-1 $-1 $700 1 990635292 80 -883949567 22 #
loop $-1 $747 $748 $700 #
plane-surface $-1 -1.6433161594775356 -2.3365636477528291 -4.7731000000000012 0 0 1 0.70710678118654757 0.70710678118654757 0 forward_v I I I I #
model_id-kcp-attrib $-1 $-1 $-1 $703 1 990635292 80 -883949567 17 #
face $749 $750 $751 $12 $-1 $752 forward single #
cone-surface $-1 0 0 -7.7731000000000012 -5.2188114065323547e-017 5.2188114065323547e-017 1 0.88388347648318444 -0.88388347648318444 0 1 I I 0 1 1.25 forward I I I I #
model_id-kcp-attrib $-1 $-1 $-1 $704 1 990635292 80 -883949567 51 #
loop $753 $-1 $754 $676 #
coedge $-1 $731 $731 $733 $755 reversed $704 $-1 #
model_id-kcp-attrib $-1 $-1 $-1 $706 1 990635292 80 -883949567 54 #
coedge $-1 $733 $733 $731 $755 forward $706 $-1 #
vertex $-1 $709 $756 #
ellipse-curve $-1 3.5527136788005009e-015 8.8817841970012523e-016 -4.5231000000000012 0 0 1 -1.9393398282201815 -6.2802410841222844e-016 0 1 I I #
vertex $-1 $710 $757 #
ellipse-curve $-1 3.5527136788005009e-015 8.8817841970012523e-016 -4.1088864376269072 0 0 1 -2.3535533905932748 -6.2807831852085272e-016 0 1 I I #
loop $-1 $-1 $758 $739 #
face $759 $673 $713 $12 $-1 $760 forward single #
convexity-sys-attrib $-1 $-1 $714 $691 #
point $-1 1.0606601717798227 -1.060660171779821 -7.7731000000000012 #
model_id-kcp-attrib $-1 $-1 $-1 $718 1 990635292 80 -883949567 50 #
coedge $-1 $743 $743 $754 $761 forward $718 $-1 #
loop $-1 $-1 $721 $750 #
vertex $-1 $722 $762 #
ellipse-curve $-1 3.5527136788005009e-015 8.8817841970012523e-016 -4.6998766952966395 -2.7889873007157659e-031 -8.3944188311902985e-016 -1 -2.1161165235168156 6.2807831852085272e-016 0 1 I I #
loop $-1 $-1 $763 $700 #
coedge $-1 $748 $748 $764 $765 reversed $724 $-1 #
model_id-kcp-attrib $-1 $-1 $-1 $727 1 990635292 80 -883949567 18 #
face $766 $739 $767 $12 $-1 $768 forward single #
loop $-1 $769 $770 $727 #
torus-surface $-1 0 0 -5.0231000000000012 0 0 1 1.75 -0.25 0.70710678118654757 0.70710678118654757 0 forward_v I I I I #
model_id-kcp-attrib $-1 $-1 $-1 $730 1 990635292 80 -883949567 52 #
coedge $-1 $754 $754 $743 $761 reversed $730 $-1 #
edge $771 $772 -3.1415926535898002 $772 3.141592653589786 $731 $773 forward 7 unknown #
point $-1 1.9393398282201844 -1.0658141036401503e-014 -4.5231000000000012 #
point $-1 2.3535533905932766 -1.5099033134902129e-014 -4.1088864376269072 #
coedge $-1 $758 $758 $770 $774 reversed $738 $-1 #
model_id-kcp-attrib $-1 $-1 $-1 $739 1 990635292 80 -883949567 20 #
cone-surface $-1 0 0 -7.7731000000000012 -5.2188114065323547e-017 5.2188114065323547e-017 1 1.0606601717798214 -1.0606601717798212 1.1070770805878195e-016 1 I I 0 1 1.5 forward I I I I #
edge $775 $776 -3.1415926535898011 $776 3.1415926535897851 $754 $777 forward 7 unknown #
point $-1 2.1161165235168173 -1.4210854715202004e-014 -4.6998766952966395 #
coedge $-1 $763 $763 $778 $779 reversed $747 $-1 #
coedge $-1 $764 $764 $748 $765 forward $769 $-1 #
edge $-1 $780 -3.1415926535897865 $780 3.1415926535897998 $748 $781 forward 7 unknown #
model_id-kcp-attrib $-1 $-1 $-1 $750 1 990635292 80 -883949567 19 #
loop $-1 $744 $778 $750 #
torus-surface $-1 3.5527136788005009e-015 8.8817841970012523e-016 -4.5231000000000012 0 0 1 1.9393398282201799 0.25 0.70710678118654757 0.70710678118654757 0 forward_v I I I I #
loop $-1 $-1 $764 $727 #
coedge $-1 $770 $770 $758 $774 forward $751 $-1 #
attrib_edge_convexity-kcp-attrib $-1 $782 $-1 $755 3 #
vertex $-1 $755 $783 #
ellipse-curve $-1 0 0 -4.5231000000000012 0 0 -1 1.2374368670764582 1.2374368670764582 0 1 I I #
edge $-1 $784 -3.1415926535898016 $784 3.1415926535897847 $758 $785 forward 7 unknown #
attrib_edge_convexity-kcp-attrib $-1 $786 $-1 $761 3 #
vertex $-1 $761 $787 #
ellipse-curve $-1 0 0 -5.0231000000000012 -5.2188114065323547e-017 5.2188114065323547e-017 1 0.88388347648318444 -0.88388347648318444 0 1 I I #
coedge $-1 $778 $778 $763 $779 forward $767 $-1 #
edge $-1 $788 -3.1415926535897993 $788 3.1415926535897869 $763 $789 forward 7 unknown #
vertex $-1 $765 $790 #
ellipse-curve $-1 0 0 -4.7731000000000012 0 0 -1 1.2374368670764584 -1.2374368670764582 0 1 I I #
convexity-sys-attrib $-1 $-1 $771 $755 #
point $-1 -1.2374368670764504 -1.2374368670764682 -4.5231000000000012 #
vertex $-1 $774 $791 #
ellipse-curve $-1 0 0 -5.0231000000000012 0 0 1 1.0606601717798214 -1.0606601717798212 1.1070770805878195e-016 1 I I #
convexity-sys-attrib $-1 $-1 $775 $761 #
point $-1 -0.88388347648317733 0.88388347648319154 -5.0231000000000012 #
vertex $-1 $779 $792 #
ellipse-curve $-1 3.5527136788005009e-015 8.8817841970012523e-016 -4.7731000000000012 0 0 1 -1.9393398282201801 0 0 1 I I #
point $-1 -1.2374368670764504 1.2374368670764673 -4.7731000000000012 #
point $-1 -1.0606601717798121 1.0606601717798299 -5.0231000000000012 #
point $-1 1.9393398282201826 -1.1546319456101628e-014 -4.7731000000000012 #
End-of-ACIS-data 