106 0 1 0           
body $-1 $1 $-1 $2 #
lump $-1 $-1 $3 $0 #
transform $-1 -0.70710678118654757 0 -0.70710678118654757 0.70710678118654757 0 -0.70710678118654757 0 -1 0 11.991300000000001 5.8683999999999994 15.247300000000001 1 1 0 0 #
shell $-1 $-1 $-1 $4 $1 #
face $-1 $5 $6 $3 $-1 $7 reversed single #
face $-1 $8 $9 $3 $-1 $7 reversed single #
loop $-1 $10 $11 $4 #
cone-surface $-1 3.5527136788005009e-015 8.8817841970012523e-016 0.25284999999999869 0 0 -1 0.53033008588991071 -0.53033008588991071 0 1 I I 0 1 0 I I I I #
face $-1 $12 $13 $3 $-1 $7 reversed single #
loop $-1 $14 $15 $5 #
loop $-1 $-1 $16 $4 #
coedge $-1 $11 $11 $17 $18 1 $6 $-1 #
face $-1 $19 $20 $3 $-1 $21 forward single #
loop $-1 $22 $23 $8 #
loop $-1 $-1 $24 $5 #
coedge $-1 $15 $15 $25 $26 1 $9 $-1 #
coedge $-1 $16 $16 $27 $28 1 $10 $-1 #
coedge $-1 $17 $17 $11 $18 0 $29 $-1 #
edge $-1 $30 $30 $17 $31 0 #
face $-1 $32 $33 $3 $-1 $34 reversed single #
loop $-1 $35 $25 $12 #
plane-surface $-1 0 0 0.125 0 0 1 1 0 0 0 I I I I #
loop $-1 $-1 $36 $8 #
coedge $-1 $23 $23 $37 $38 1 $13 $-1 #
coedge $-1 $24 $24 $39 $40 1 $14 $-1 #
coedge $-1 $25 $25 $15 $26 0 $20 $-1 #
edge $-1 $41 $41 $25 $42 0 #
coedge $-1 $27 $27 $16 $28 0 $43 $-1 #
edge $-1 $44 $44 $27 $45 0 #
loop $-1 $46 $17 $47 #
vertex $-1 $18 $48 #
ellipse-curve $-1 3.5527136788005009e-015 8.8817841970012523e-016 4.2607399039870391 0 0 -1 0.53033008588991071 -0.53033008588991071 0 1 I I #
face $-1 $49 $50 $3 $-1 $51 reversed single #
loop $-1 $52 $53 $19 #
torus-surface $-1 3.5527136788005009e-015 8.8817841970012523e-016 0.12499906367061797 0 0 1 2 0.5 0.70710678118654757 0.70710678118654757 0 0 I I I I #
loop $-1 $-1 $54 $12 #
coedge $-1 $36 $36 $55 $56 1 $22 $-1 #
coedge $-1 $37 $37 $23 $38 0 $57 $-1 #
edge $-1 $58 $58 $37 $59 0 #
coedge $-1 $39 $39 $24 $40 0 $60 $-1 #
edge $-1 $61 $61 $39 $62 0 #
vertex $-1 $26 $63 #
ellipse-curve $-1 3.5527136788005009e-015 8.8817841970012523e-016 0.125 0 0 -1 0.53033008588991071 -0.53033008588991071 0 1 I I #
loop $-1 $64 $27 $49 #
vertex $-1 $28 $65 #
ellipse-curve $-1 3.5527136788005009e-015 8.8817841970012523e-016 4.0106097713520974 0 0 1 0.53033008588991071 -0.53033008588991071 0 1 I I #
loop $-1 $-1 $66 $47 #
face $-1 $67 $29 $3 $-1 $68 forward single #
point $-1 -0.53033008588991082 0.53033008588990793 4.2607399039870391 #
face $-1 $69 $43 $3 $-1 $70 reversed single #
loop $-1 $71 $72 $32 #
cone-surface $-1 3.5527136788005009e-015 8.8817841970012523e-016 2.1732191396029013 0 0 1 1.7659177056077389 -6.2802410841222844e-016 0 1 I I -0.3511234415883917 0.93632917756904455 0 I I I I #
loop $-1 $-1 $73 $19 #
coedge $-1 $53 $53 $54 $74 1 $33 $-1 #
coedge $-1 $54 $54 $53 $74 0 $35 $-1 #
coedge $-1 $55 $55 $36 $56 0 $75 $-1 #
edge $-1 $76 $76 $55 $77 0 #
loop $-1 $78 $37 $79 #
vertex $-1 $38 $80 #
ellipse-curve $-1 3.5527136788005009e-015 8.8817841970012523e-016 -3.7553000000000001 0 0 1 0.53033008588991071 -0.53033008588991071 0 1 I I #
loop $-1 $81 $39 $82 #
vertex $-1 $40 $83 #
ellipse-curve $-1 3.5527136788005009e-015 8.8817841970012523e-016 -0.125 0 0 1 0.53033008588991071 -0.53033008588991071 0 1 I I #
point $-1 -0.53033008588991082 0.53033008588990793 0.125 #
loop $-1 $-1 $84 $49 #
point $-1 -0.53033008588990349 0.53033008588991526 4.0106097713520974 #
coedge $-1 $66 $66 $85 $86 0 $46 $-1 #
face $-1 $87 $88 $3 $-1 $89 forward single #
torus-surface $-1 3.5527136788005009e-015 8.8817841970012523e-016 3.5109999999999975 0 0 -1 0.73024964887648247 0.75 -0.70710678118654757 -0.70710678118654757 0 0 I I I I #
face $-1 $90 $91 $3 $-1 $92 reversed single #
torus-surface $-1 3.5527136788005009e-015 8.8817841970012523e-016 3.5109999999999975 0 0 -1 0.73024964887648247 0.5 -0.70710678118654757 -0.70710678118654757 0 0 I I I I #
loop $-1 $-1 $93 $32 #
coedge $-1 $72 $72 $73 $94 1 $50 $-1 #
coedge $-1 $73 $73 $72 $94 0 $52 $-1 #
edge $-1 $95 $95 $54 $96 0 #
loop $-1 $97 $55 $98 #
vertex $-1 $56 $99 #
ellipse-curve $-1 3.5527136788005009e-015 8.8817841970012523e-016 -3.5053000000000001 0 0 -1 0.53033008588991071 -0.53033008588991071 0 1 I I #
loop $-1 $-1 $100 $79 #
face $-1 $98 $57 $3 $-1 $101 forward single #
point $-1 -0.53033008588990349 0.53033008588991526 -3.7553000000000001 #
loop $-1 $-1 $102 $82 #
face $-1 $-1 $60 $3 $-1 $103 forward single #
point $-1 -0.53033008588990349 0.53033008588991526 -0.125 #
coedge $-1 $84 $84 $93 $104 1 $64 $-1 #
coedge $-1 $85 $85 $66 $86 1 $105 $-1 #
edge $-1 $106 $106 $85 $107 0 #
face $-1 $108 $109 $3 $-1 $110 forward single #
loop $-1 $111 $112 $67 #
torus-surface $-1 3.5527136788005009e-015 8.8817841970012523e-016 0.12499906367061797 0 0 1 2 0.75 0.70710678118654757 0.70710678118654757 0 0 I I I I #
face $-1 $113 $114 $3 $-1 $92 reversed single #
loop $-1 $115 $116 $69 #
cone-surface $-1 3.5527136788005009e-015 8.8817841970012523e-016 -1.7390000000000008 0 0 -1 -2.5000000000000009 6.2807831852085272e-016 0 1 I I 0 1 0 I I I I #
coedge $-1 $93 $93 $84 $104 0 $71 $-1 #
edge $-1 $117 $117 $73 $118 0 #
vertex $-1 $74 $119 #
ellipse-curve $-1 3.5527136788005009e-015 8.8817841970012523e-016 0.125 0 0 1 2.4999999999991234 0 0 1 I I #
loop $-1 $-1 $120 $98 #
face $-1 $82 $75 $3 $-1 $121 forward single #
point $-1 -0.53033008588991082 0.53033008588990793 -3.5053000000000001 #
coedge $-1 $100 $100 $122 $123 0 $78 $-1 #
plane-surface $-1 0 0 -3.7553000000000001 0 0 -1 -1.0000000000000002 0 0 0 I I I I #
coedge $-1 $102 $102 $116 $124 0 $81 $-1 #
plane-surface $-1 0 0 -0.125 0 0 -1 -1 0 0 0 I I I I #
edge $-1 $125 $125 $93 $126 0 #
loop $-1 $127 $85 $108 #
vertex $-1 $86 $128 #
ellipse-curve $-1 3.5527136788005009e-015 8.8817841970012523e-016 3.7743425811912932 2.4800853609804039e-015 -2.4800853609804015e-015 1 1.4324965320532657 -6.2802410841222844e-016 -3.5527136788005009e-015 1 I I #
face $-1 $129 $105 $3 $-1 $130 forward single #
loop $-1 $131 $132 $87 #
torus-surface $-1 3.5527136788005009e-015 8.8817841970012523e-016 -3.7553330470336324 0 0 -1 2 0.75 -0.70710678118654757 -0.70710678118654757 0 0 I I I I #
loop $-1 $-1 $133 $67 #
coedge $-1 $112 $112 $134 $135 0 $88 $-1 #
face $-1 $136 $137 $3 $-1 $138 reversed single #
loop $-1 $139 $122 $90 #
loop $-1 $140 $141 $69 #
coedge $-1 $116 $116 $102 $124 1 $91 $-1 #
vertex $-1 $94 $142 #
ellipse-curve $-1 3.5527136788005009e-015 8.8817841970012523e-016 0.30056078446481393 0 0 1 2.4681645887845218 -9.420632676726548e-016 0 1 I I #
point $-1 2.5000000000000036 1.7763568394002505e-014 0.12499906367061797 #
coedge $-1 $120 $120 $141 $143 0 $97 $-1 #
plane-surface $-1 0 0 -3.5053000000000001 0 0 1 1.0000000000000002 0 0 0 I I I I #
coedge $-1 $122 $122 $100 $123 1 $114 $-1 #
edge $-1 $144 $144 $100 $145 0 #
edge $-1 $146 $146 $102 $147 0 #
vertex $-1 $104 $148 #
ellipse-curve $-1 3.5527136788005009e-015 8.8817841970012523e-016 3.6865617207941934 0 0 1 1.1984142376610045 -4.710316338363274e-016 0 1 I I #
loop $-1 $-1 $149 $108 #
point $-1 -1.4324965320532641 -7.9936057773011271e-015 3.7743425811912967 #
face $-1 $150 $151 $3 $-1 $152 forward single #
cone-surface $-1 3.5527136788005009e-015 8.8817841970012523e-016 2.2609999999999992 0 0 1 2.0000000000000004 0 0 1 I I -0.3511234415883917 0.93632917756904455 0 I I I I #
loop $-1 $-1 $153 $87 #
coedge $-1 $132 $132 $154 $155 0 $109 $-1 #
coedge $-1 $133 $133 $149 $156 0 $111 $-1 #
coedge $-1 $134 $134 $112 $135 1 $157 $-1 #
edge $-1 $158 $158 $134 $159 0 #
face $-1 $160 $161 $3 $-1 $138 reversed single #
loop $-1 $162 $163 $113 #
cone-surface $-1 -0.001909188309202392 -0.0019091883092032802 -1.7390000000000008 -0.70710678118654757 -0.70710678118654757 0 0 0 1 1 I I 0 1 0 I I I I #
loop $-1 $-1 $164 $90 #
loop $-1 $165 $166 $69 #
coedge $-1 $141 $141 $120 $143 1 $115 $-1 #
point $-1 -2.4681645887845214 1.7763568394002505e-014 0.30056078446481393 #
edge $-1 $167 $167 $120 $168 0 #
vertex $-1 $123 $169 #
ellipse-curve $-1 3.5527136788005009e-015 8.8817841970012523e-016 -3.7553000000000001 0 0 -1 -2.5000000000000009 6.2807831852085272e-016 0 1 I I #
vertex $-1 $124 $170 #
ellipse-curve $-1 3.5527136788005009e-015 8.8817841970012523e-016 -0.125 0 0 -1 -2.5000000000000009 6.2807831852085272e-016 0 1 I I #
point $-1 -1.1984142376610016 1.1546319456101628e-014 3.6865617207941934 #
coedge $-1 $149 $149 $133 $156 1 $127 $-1 #
face $-1 $79 $171 $3 $-1 $172 reversed single #
loop $-1 $173 $174 $129 #
cone-surface $-1 3.5527136788005009e-015 8.8817841970012523e-016 -1.7390000000000008 0 0 -1 -2.7500000000000004 0 0 1 I I 0 1 0 I I I I #
coedge $-1 $153 $153 $175 $176 0 $131 $-1 #
coedge $-1 $154 $154 $132 $155 1 $177 $-1 #
edge $-1 $178 $178 $154 $179 0 #
edge $-1 $180 $180 $149 $181 0 #
loop $-1 $177 $134 $129 #
vertex $-1 $135 $182 #
ellipse-curve $-1 3.5527136788005009e-015 8.8817841970012523e-016 0.12499906367061797 0 0 1 2.7500000000000009 0 0 1 I I #
face $-1 $183 $184 $3 $-1 $185 reversed single #
loop $-1 $186 $187 $136 #
loop $-1 $-1 $188 $113 #
coedge $-1 $163 $163 $189 $190 1 $137 $-1 #
coedge $-1 $164 $164 $191 $192 0 $139 $-1 #
loop $-1 $-1 $193 $69 #
coedge $-1 $166 $166 $187 $194 0 $140 $-1 #
vertex $-1 $143 $195 #
ellipse-curve $-1 3.5527136788005009e-015 8.8817841970012523e-016 -3.5053000000000001 0 0 1 -2.5000000000000009 6.2807831852085272e-016 0 1 I I #
point $-1 2.5000000000000044 1.7717516906726189e-014 -3.7553000000000001 #
point $-1 2.5000000000000044 1.7717516906726189e-014 -0.125 #
loop $-1 $196 $197 $150 #
plane-surface $-1 0 -3.5527136788005009e-015 -7.7731000000000012 0 0 1 0.70710678118654757 0.70710678118654757 0 0 I I I I #
loop $-1 $157 $189 $129 #
coedge $-1 $174 $174 $198 $199 0 $151 $-1 #
coedge $-1 $175 $175 $153 $176 1 $200 $-1 #
edge $-1 $201 $201 $175 $202 0 #
loop $-1 $-1 $154 $129 #
vertex $-1 $155 $203 #
ellipse-curve $-1 3.5527136788005009e-015 8.8817841970012523e-016 -3.7553330470336324 0 0 -1 -2.7500000000000009 0 0 1 I I #
vertex $-1 $156 $204 #
ellipse-curve $-1 0 1.7763568394002505e-015 0.38834164486191192 0 0 -1 2.7022468831767843 6.2796989830360417e-016 0 1 I I #
point $-1 -2.75 2.042810365310288e-014 0.12499906367061797 #
face $-1 $205 $206 $3 $-1 $207 reversed single #
loop $-1 $208 $191 $160 #
torus-surface $-1 3.5527136788005009e-015 8.8817841970012523e-016 -3.7553330470336324 0 0 -1 2 0.5 -0.70710678118654757 -0.70710678118654757 0 0 I I I I #
loop $-1 $-1 $198 $136 #
coedge $-1 $187 $187 $166 $194 1 $161 $-1 #
coedge $-1 $188 $188 $193 $209 1 $162 $-1 #
coedge $-1 $189 $189 $163 $190 0 $173 $-1 #
edge $-1 $210 $210 $189 $211 0 #
coedge $-1 $191 $191 $164 $192 1 $184 $-1 #
edge $-1 $212 $212 $191 $213 0 #
coedge $-1 $193 $193 $188 $209 0 $165 $-1 #
edge $-1 $214 $214 $166 $215 0 #
point $-1 2.5000000000000044 -1.7197316704367644e-014 -3.5053000000000001 #
loop $-1 $-1 $216 $150 #
coedge $-1 $197 $197 $217 $218 0 $171 $-1 #
coedge $-1 $198 $198 $174 $199 1 $186 $-1 #
edge $-1 $219 $219 $174 $220 0 #
loop $-1 $221 $175 $222 #
vertex $-1 $176 $223 #
ellipse-curve $-1 3.5527136788005009e-015 8.8817841970012523e-016 -4.2856631329235437 2.0918006608475865e-031 -7.0202573541922304e-016 1 -2.5303300858899114 -6.2796989830360417e-016 0 1 I I #
point $-1 2.7500000000000036 2.2204460492503131e-014 -3.7553330470336324 #
point $-1 -2.7022468831767839 2.042810365310288e-014 0.38834164486191192 #
face $-1 $224 $225 $3 $-1 $226 forward single #
loop $-1 $227 $228 $183 #
cone-surface $-1 3.5527136788005009e-015 8.8817841970012523e-016 -4.2427699141100916 0 0 1 -2.2196699141100908 -6.2807831852085272e-016 0 1 I I 0.70710678118654757 0.70710678118654757 0 I I I I #
loop $-1 $-1 $229 $160 #
edge $-1 $230 $230 $193 $231 0 #
vertex $-1 $190 $232 #
intcurve-curve $-1 0 { surfintcur nubs 3 periodic 17 
	0 3 0.38062200213782982 2 0.76124400427565964 2 1.1416105232693416 2 1.5219770422630234 2 
	1.9023435612567052 2 2.282710080250387 2 2.6633320823882101 2 3.0439540845260331 2 3.4245760866638681 2 
	3.8051980888017032 2 4.1855646077953832 2 4.5659311267890637 2 4.9462976457827441 2 5.3266641647764246 2 
	5.7072861669142458 2 6.0879081690520662 3 
	1.1043153120871327 2.518528874460229 -1.7390000000000008 
	1.1043153120871327 2.518528874460229 -1.8658740007126102 
	1.1297810152315559 2.5077975874408027 -2.0003079762171385 
	1.2279843712056664 2.4612005391961 -2.2462828045337293 
	1.3002308445482047 2.4249171984859919 -2.3579402147957147 
	1.4580402694192749 2.3334376081255148 -2.534214167941256 
	1.5544579238133274 2.2719152024634739 -2.6110016117895096 
	1.7530049830898289 2.1224777157289565 -2.71342509276157 
	1.8548903999574282 2.0341968965685862 -2.7390000000000025 
	2.0341968965685968 1.8548903999574176 -2.738999999999999 
	2.1224777157289623 1.7530049830898182 -2.7134250927615664 
	2.2719152024634806 1.5544579238133167 -2.6110016117895025 
	2.3334376081255215 1.4580402694192633 -2.5342141679412471 
	2.4249171984859945 1.3002308445481976 -2.3579402147957058 
	2.4612005391961045 1.2279843712056611 -2.2462828045337186 
	2.5077975874408036 1.1297810152315533 -2.0003079762171332 
	2.5185288744602286 1.1043153120871336 -1.8658740007126084 
	2.5185288744602286 1.1043153120871336 -1.6121259992873878 
	2.5077975874408054 1.1297810152315577 -1.4776920237828595 
	2.4612005391961027 1.2279843712056699 -1.2317171954662687 
	2.4249171984859892 1.3002308445482109 -1.1200597852042815 
	2.3334376081255108 1.4580402694192811 -0.94378583205874023 
	2.2719152024634699 1.5544579238133323 -0.86699838821048658 
	2.1224777157289516 1.7530049830898347 -0.7645749072384298 
	2.0341968965685826 1.8548903999574331 -0.73899999999999899 
	1.854890399957414 2.0341968965686017 -0.73900000000000254 
	1.7530049830898147 2.1224777157289672 -0.76457490723843691 
	1.5544579238133149 2.2719152024634828 -0.86699838821050079 
	1.4580402694192625 2.3334376081255224 -0.94378583205875799 
	1.3002308445481976 2.4249171984859945 -1.1200597852042993 
	1.2279843712056611 2.4612005391961049 -1.2317171954662829 
	1.1297810152315542 2.5077975874408036 -1.4776920237828683 
	1.1043153120871327 2.518528874460229 -1.6121259992873949 
	1.1043153120871327 2.518528874460229 -1.7390000000000008 
	0.001 
	cone -0.001909188309202392 -0.0019091883092032802 -1.7390000000000008 -0.70710678118654757 -0.70710678118654757 0 0 0 1 1 I I 0 1 0 I I I I 
	cone 3.5527136788005009e-015 8.8817841970012523e-016 -1.7390000000000008 0 0 -1 -2.7500000000000004 0 0 1 I I 0 1 0 I I I I 
	nullbs 
	nullbs 
	} I I #
vertex $-1 $192 $233 #
ellipse-curve $-1 3.5527136788005009e-015 8.8817841970012523e-016 -3.7553330470336324 0 0 -1 -2.5000000000000009 4.7108584394495168e-016 0 1 I I #
vertex $-1 $194 $234 #
intcurve-curve $-1 0 { surfintcur nubs 3 periodic 17 
	0 3 0.38155766525264667 2 0.76311533050529334 2 1.1442870008045785 2 1.5254586711038638 2 
	1.90663034140315 2 2.287802011702436 2 2.6693596769550885 2 3.0509173422077414 2 3.4324750074603929 2 
	3.8140326727130445 2 4.1952043430123283 2 4.576376013311612 2 4.9575476836108958 2 5.3387193539101796 2 
	5.7202770191628307 2 6.1018346844154827 3 
	-2.3272919557885139 -0.9130783934154163 -1.7390000000000008 
	-2.3272919557885139 -0.9130783934154163 -1.8661858884175491 
	-2.3173918737942678 -0.93953901439241161 -2.0007202990559261 
	-2.2737275793862466 -1.0407695894951683 -2.2465867622714004 
	-2.2394787894806498 -1.1149707986244835 -2.3580663365402366 
	-2.1517306088634065 -1.2761126437750185 -2.5340581615303321 
	-2.0921327420828568 -1.374218377733631 -2.6108114363643224 
	-1.9452714012310253 -1.5752506903448866 -2.7133192838275928 
	-1.857609977254647 -1.6779239286780872 -2.7390000000000008 
	-1.6779239286780943 -1.8576099772546391 -2.7390000000000025 
	-1.5752506903448982 -1.9452714012310164 -2.7133192838275981 
	-1.3742183777336408 -2.0921327420828462 -2.6108114363643296 
	-1.2761126437750221 -2.1517306088634003 -2.5340581615303392 
	-1.114970798624487 -2.2394787894806472 -2.3580663365402454 
	-1.0407695894951701 -2.2737275793862448 -2.2465867622714093 
	-0.9395390143924125 -2.3173918737942678 -2.0007202990559314 
	-0.91307839341541808 -2.3272919557885121 -1.8661858884175508 
	-0.91307839341541808 -2.3272919557885121 -1.6118141115824507 
	-0.9395390143924125 -2.3173918737942678 -1.4772797009440701 
	-1.0407695894951701 -2.2737275793862457 -1.2314132377285922 
	-1.114970798624487 -2.2394787894806489 -1.1199336634597579 
	-1.2761126437750221 -2.1517306088634021 -0.94394183846966406 
	-1.3742183777336372 -2.0921327420828506 -0.86718856363567376 
	-1.5752506903448911 -1.9452714012310208 -0.76468071617240518 
	-1.6779239286780907 -1.8576099772546426 -0.73900000000000077 
	-1.8576099772546435 -1.6779239286780925 -0.73900000000000077 
	-1.9452714012310217 -1.5752506903448928 -0.76468071617240518 
	-2.0921327420828497 -1.3742183777336372 -0.86718856363567376 
	-2.1517306088634029 -1.276112643775023 -0.94394183846966406 
	-2.2394787894806463 -1.114970798624487 -1.1199336634597579 
	-2.273727579386243 -1.0407695894951718 -1.231413237728594 
	-2.3173918737942678 -0.9395390143924125 -1.4772797009440701 
	-2.3272919557885139 -0.9130783934154163 -1.6118141115824489 
	-2.3272919557885139 -0.9130783934154163 -1.7390000000000008 
	0.001 
	cone -0.001909188309202392 -0.0019091883092032802 -1.7390000000000008 -0.70710678118654757 -0.70710678118654757 0 0 0 1 1 I I 0 1 0 I I I I 
	cone 3.5527136788005009e-015 8.8817841970012523e-016 -1.7390000000000008 0 0 -1 -2.5000000000000009 6.2807831852085272e-016 0 1 I I 0 -1 0 I I I I 
	nullbs 
	nullbs 
	} I I #
coedge $-1 $216 $216 $235 $236 1 $196 $-1 #
coedge $-1 $217 $217 $197 $218 1 $237 $-1 #
edge $-1 $238 $238 $197 $239 0 #
vertex $-1 $199 $240 #
intcurve-curve $-1 0 { surfintcur nubs 3 periodic 17 
	0 3 0.38062200213782088 2 0.76124400427564176 2 1.1416105232693221 2 1.5219770422630023 2 
	1.9023435612566821 2 2.2827100802503617 2 2.6633320823881972 2 3.0439540845260322 2 3.4245760866638553 2 
	3.8051980888016783 2 4.1855646077953601 2 4.5659311267890414 2 4.9462976457827228 2 5.326664164776405 2 
	5.7072861669142352 2 6.0879081690520644 3 
	-2.5185288744602268 -1.1043153120871301 -1.7390000000000008 
	-2.5185288744602268 -1.1043153120871301 -1.6121259992873949 
	-2.5077975874408018 -1.1297810152315506 -1.4776920237828701 
	-2.4612005391961027 -1.2279843712056575 -1.2317171954662847 
	-2.4249171984859927 -1.3002308445481958 -1.1200597852042993 
	-2.3334376081255215 -1.458040269419258 -0.94378583205875799 
	-2.2719152024634823 -1.5544579238133123 -0.86699838821049902 
	-2.1224777157289658 -1.753004983089812 -0.76457490723843513 
	-2.0341968965685986 -1.8548903999574096 -0.73900000000000254 
	-1.85489039995743 -2.034196896568579 -0.73899999999999899 
	-1.7530049830898342 -2.1224777157289472 -0.76457490723842803 
	-1.5544579238133345 -2.2719152024634646 -0.8669983882104848 
	-1.4580402694192784 -2.3334376081255099 -0.943785832058742 
	-1.30023084454821 -2.4249171984859883 -1.1200597852042797 
	-1.2279843712056646 -2.4612005391960974 -1.2317171954662705 
	-1.1297810152315506 -2.5077975874408009 -1.477692023782863 
	-1.104315312087131 -2.5185288744602259 -1.6121259992873878 
	-1.104315312087131 -2.5185288744602259 -1.8658740007126084 
	-1.1297810152315506 -2.5077975874408018 -2.0003079762171332 
	-1.2279843712056575 -2.4612005391961027 -2.2462828045337186 
	-1.3002308445481958 -2.4249171984859927 -2.3579402147957058 
	-1.4580402694192607 -2.3334376081255179 -2.5342141679412471 
	-1.5544579238133132 -2.2719152024634797 -2.6110016117895025 
	-1.7530049830898164 -2.1224777157289623 -2.7134250927615664 
	-1.8548903999574158 -2.0341968965685933 -2.738999999999999 
	-2.0341968965685844 -1.8548903999574256 -2.7390000000000025 
	-2.1224777157289516 -1.7530049830898253 -2.71342509276157 
	-2.2719152024634681 -1.5544579238133238 -2.6110016117895096 
	-2.3334376081255108 -1.4580402694192713 -2.534214167941256 
	-2.4249171984859856 -1.300230844548202 -2.3579402147957147 
	-2.4612005391960992 -1.227984371205662 -2.2462828045337293 
	-2.5077975874408018 -1.1297810152315533 -2.0003079762171385 
	-2.5185288744602268 -1.1043153120871301 -1.865874000712612 
	-2.5185288744602268 -1.1043153120871301 -1.7390000000000008 
	0.001 
	cone -0.001909188309202392 -0.0019091883092032802 -1.7390000000000008 -0.70710678118654757 -0.70710678118654757 0 0 0 1 1 I I 0 1 0 I I I I 
	cone 3.5527136788005009e-015 8.8817841970012523e-016 -1.7390000000000008 0 0 -1 -2.7500000000000004 0 0 1 I I 0 1 0 I I I I 
	nullbs 
	nullbs 
	} I I #
loop $-1 $-1 $241 $222 #
face $-1 $242 $200 $3 $-1 $243 forward single #
point $-1 2.5303300858899131 2.1316282072803006e-014 -4.2856631329235437 #
face $-1 $244 $245 $3 $-1 $246 reversed single #
loop $-1 $247 $248 $205 #
plane-surface $-1 -1.6433161594775356 -2.3365636477528291 -4.5231000000000012 0 0 1 0.70710678118654757 0.70710678118654757 0 0 I I I I #
loop $-1 $-1 $249 $183 #
coedge $-1 $228 $228 $248 $250 1 $206 $-1 #
coedge $-1 $229 $229 $249 $251 1 $208 $-1 #
vertex $-1 $209 $252 #
intcurve-curve $-1 0 { surfintcur nubs 3 periodic 17 
	0 3 0.38155766525265156 2 0.76311533050530311 2 1.1442870008045869 2 1.5254586711038707 2 
	1.9066303414031545 2 2.2878020117024382 2 2.6693596769550898 2 3.0509173422077414 2 3.4324750074603942 2 
	3.8140326727130467 2 4.1952043430123327 2 4.5763760133116191 2 4.9575476836109047 2 5.3387193539101894 2 
	5.720277019162836 2 6.1018346844154827 3 
	0.91307839341541985 2.3272919557885157 -1.7390000000000008 
	0.91307839341541985 2.3272919557885157 -1.6118141115824489 
	0.93953901439241427 2.3173918737942714 -1.4772797009440737 
	1.0407695894951736 2.2737275793862488 -1.2314132377285958 
	1.1149707986244906 2.2394787894806512 -1.1199336634597579 
	1.2761126437750256 2.1517306088634043 -0.94394183846966406 
	1.374218377733639 2.0921327420828515 -0.86718856363567376 
	1.5752506903448946 1.9452714012310217 -0.76468071617240518 
	1.677923928678096 1.8576099772546453 -0.73900000000000077 
	1.8576099772546453 1.6779239286780951 -0.73900000000000077 
	1.9452714012310217 1.5752506903448946 -0.76468071617240518 
	2.0921327420828515 1.374218377733639 -0.86718856363567376 
	2.1517306088634047 1.2761126437750256 -0.94394183846966406 
	2.2394787894806516 1.1149707986244897 -1.1199336634597579 
	2.2737275793862484 1.0407695894951745 -1.2314132377285922 
	2.3173918737942714 0.93953901439241516 -1.4772797009440701 
	2.3272919557885157 0.91307839341541985 -1.6118141115824507 
	2.3272919557885157 0.91307839341541985 -1.8661858884175508 
	2.3173918737942696 0.93953901439241427 -2.0007202990559314 
	2.2737275793862466 1.0407695894951736 -2.2465867622714093 
	2.2394787894806498 1.1149707986244906 -2.3580663365402454 
	2.1517306088634047 1.2761126437750265 -2.5340581615303375 
	2.0921327420828479 1.3742183777336408 -2.6108114363643313 
	1.9452714012310182 1.5752506903448973 -2.7133192838275999 
	1.8576099772546417 1.6779239286780996 -2.7390000000000008 
	1.6779239286780889 1.8576099772546515 -2.738999999999999 
	1.5752506903448875 1.945271401231027 -2.7133192838275946 
	1.3742183777336319 2.0921327420828568 -2.6108114363643224 
	1.2761126437750185 2.1517306088634096 -2.5340581615303304 
	1.1149707986244852 2.2394787894806534 -2.3580663365402366 
	1.0407695894951701 2.2737275793862501 -2.2465867622714004 
	0.93953901439241427 2.31739187379427 -2.0007202990559261 
	0.91307839341541985 2.3272919557885157 -1.8661858884175491 
	0.91307839341541985 2.3272919557885157 -1.7390000000000008 
	0.001 
	cone -0.001909188309202392 -0.0019091883092032802 -1.7390000000000008 -0.70710678118654757 -0.70710678118654757 0 0 0 1 1 I I 0 1 0 I I I I 
	cone 3.5527136788005009e-015 8.8817841970012523e-016 -1.7390000000000008 0 0 -1 -2.5000000000000009 6.2807831852085272e-016 0 1 I I 0 -1 0 I I I I 
	nullbs 
	nullbs 
	} I I #
point $-1 1.1043153120871327 2.518528874460229 -1.7390000000000008 #
point $-1 2.5000000000000036 1.7763568394002505e-014 -3.7553330470336324 #
point $-1 -2.3272919557885139 -0.9130783934154163 -1.7390000000000008 #
coedge $-1 $235 $235 $216 $236 0 $253 $-1 #
edge $-1 $254 $254 $235 $255 0 #
loop $-1 $256 $217 $244 #
vertex $-1 $218 $257 #
ellipse-curve $-1 0 0 -7.7731000000000012 0 0 1 0.88388347648318444 -0.88388347648318444 0 1 I I #
point $-1 -2.5185288744602268 -1.1043153120871301 -1.7390000000000008 #
coedge $-1 $241 $241 $258 $259 1 $221 $-1 #
face $-1 $47 $260 $3 $-1 $261 reversed single #
cone-surface $-1 3.5527136788005009e-015 8.8817841970012523e-016 -4.4195466094067282 0 0 1 -2.3964466094067265 0 0 1 I I 0.70710678118654757 0.70710678118654757 0 I I I I #
face $-1 $262 $237 $3 $-1 $263 reversed single #
loop $-1 $264 $265 $224 #
torus-surface $-1 0 0 -5.0231000000000012 0 0 1 1.75 -0.5 0.70710678118654757 0.70710678118654757 0 0 I I I I #
loop $-1 $-1 $266 $205 #
coedge $-1 $248 $248 $228 $250 0 $225 $-1 #
coedge $-1 $249 $249 $229 $251 0 $227 $-1 #
edge $-1 $267 $267 $248 $268 0 #
edge $-1 $269 $269 $249 $270 0 #
point $-1 0.91307839341541985 2.3272919557885157 -1.7390000000000008 #
loop $-1 $271 $235 $272 #
vertex $-1 $236 $273 #
ellipse-curve $-1 0 0 -7.7731000000000012 -8.6592745707193554e-017 0 1 1.0606601717798214 -1.0606601717798212 9.1845476536678294e-017 1 I I #
loop $-1 $-1 $274 $244 #
point $-1 -0.88388347648319154 0.88388347648317911 -7.7731000000000012 #
coedge $-1 $258 $258 $241 $259 0 $275 $-1 #
edge $-1 $276 $276 $241 $277 0 #
loop $-1 $278 $279 $242 #
plane-surface $-1 -1.6433161594775356 -2.3365636477528291 -4.7731000000000012 0 0 1 0.70710678118654757 0.70710678118654757 0 0 I I I I #
face $-1 $280 $281 $3 $-1 $282 forward single #
cone-surface $-1 0 0 -7.7731000000000012 -5.2188114065323547e-017 5.2188114065323547e-017 1 0.88388347648318444 -0.88388347648318444 0 1 I I 0 1 0 I I I I #
loop $-1 $-1 $283 $224 #
coedge $-1 $265 $265 $266 $284 1 $245 $-1 #
coedge $-1 $266 $266 $265 $284 0 $247 $-1 #
vertex $-1 $250 $285 #
ellipse-curve $-1 3.5527136788005009e-015 8.8817841970012523e-016 -4.5231000000000012 0 0 1 -1.9393398282201815 -6.2802410841222844e-016 0 1 I I #
vertex $-1 $251 $286 #
ellipse-curve $-1 3.5527136788005009e-015 8.8817841970012523e-016 -4.1088864376269072 0 0 1 -2.3535533905932748 -6.2807831852085272e-016 0 1 I I #
loop $-1 $-1 $287 $272 #
face $-1 $222 $253 $3 $-1 $288 forward single #
point $-1 1.0606601717798227 -1.060660171779821 -7.7731000000000012 #
coedge $-1 $274 $274 $283 $289 0 $256 $-1 #
loop $-1 $-1 $258 $280 #
vertex $-1 $259 $290 #
ellipse-curve $-1 3.5527136788005009e-015 8.8817841970012523e-016 -4.6998766952966395 -2.7889873007157659e-031 -8.3944188311902985e-016 -1 -2.1161165235168156 6.2807831852085272e-016 0 1 I I #
loop $-1 $-1 $291 $242 #
coedge $-1 $279 $279 $292 $293 1 $260 $-1 #
face $-1 $272 $294 $3 $-1 $295 forward single #
loop $-1 $296 $297 $262 #
torus-surface $-1 0 0 -5.0231000000000012 0 0 1 1.75 -0.25 0.70710678118654757 0.70710678118654757 0 0 I I I I #
coedge $-1 $283 $283 $274 $289 1 $264 $-1 #
edge $-1 $298 $298 $265 $299 0 #
point $-1 1.9393398282201844 -1.0658141036401503e-014 -4.5231000000000012 #
point $-1 2.3535533905932766 -1.5099033134902129e-014 -4.1088864376269072 #
coedge $-1 $287 $287 $297 $300 1 $271 $-1 #
cone-surface $-1 0 0 -7.7731000000000012 -5.2188114065323547e-017 5.2188114065323547e-017 1 1.0606601717798214 -1.0606601717798212 1.1070770805878195e-016 1 I I 0 1 0 I I I I #
edge $-1 $301 $301 $283 $302 0 #
point $-1 2.1161165235168173 -1.4210854715202004e-014 -4.6998766952966395 #
coedge $-1 $291 $291 $303 $304 1 $278 $-1 #
coedge $-1 $292 $292 $279 $293 0 $296 $-1 #
edge $-1 $305 $305 $279 $306 0 #
loop $-1 $275 $303 $280 #
torus-surface $-1 3.5527136788005009e-015 8.8817841970012523e-016 -4.5231000000000012 0 0 1 1.9393398282201799 0.25 0.70710678118654757 0.70710678118654757 0 0 I I I I #
loop $-1 $-1 $292 $262 #
coedge $-1 $297 $297 $287 $300 0 $281 $-1 #
vertex $-1 $284 $307 #
ellipse-curve $-1 0 0 -4.5231000000000012 0 0 -1 1.2374368670764582 1.2374368670764582 0 1 I I #
edge $-1 $308 $308 $287 $309 0 #
vertex $-1 $289 $310 #
ellipse-curve $-1 0 0 -5.0231000000000012 -5.2188114065323547e-017 5.2188114065323547e-017 1 0.88388347648318444 -0.88388347648318444 0 1 I I #
coedge $-1 $303 $303 $291 $304 0 $294 $-1 #
edge $-1 $311 $311 $291 $312 0 #
vertex $-1 $293 $313 #
ellipse-curve $-1 0 0 -4.7731000000000012 0 0 -1 1.2374368670764584 -1.2374368670764582 0 1 I I #
point $-1 -1.2374368670764504 -1.2374368670764682 -4.5231000000000012 #
vertex $-1 $300 $314 #
ellipse-curve $-1 0 0 -5.0231000000000012 0 0 1 1.0606601717798214 -1.0606601717798212 1.1070770805878195e-016 1 I I #
point $-1 -0.88388347648317733 0.88388347648319154 -5.0231000000000012 #
vertex $-1 $304 $315 #
ellipse-curve $-1 3.5527136788005009e-015 8.8817841970012523e-016 -4.7731000000000012 0 0 1 -1.9393398282201801 0 0 1 I I #
point $-1 -1.2374368670764504 1.2374368670764673 -4.7731000000000012 #
point $-1 -1.0606601717798121 1.0606601717798299 -5.0231000000000012 #
point $-1 1.9393398282201826 -1.1546319456101628e-014 -4.7731000000000012 #
End-of-ACIS-data 