600 0 2 0           
24 FBMach with ACIS - 6.0.3 13 ACIS 6.0.3 NT 24 Wed May 23 12:28:18 2001 
1 9.9999999999999995e-007 1e-010 
body $2 $3 $-1 $4 #
bdycol-kcp $-1 1 4 $5 $6 $7 $8 #
model_id-kcp-attrib $-1 $-1 $-1 $0 1 990635297 50 1815216129 1 #
lump $-1 $-1 $9 $0 #
transform $-1 1 0 0 0 1 0 0 0 1 0 0 0 1 no_rotate no_reflect no_shear #
body $10 $11 $-1 $12 #
body $13 $14 $-1 $15 #
body $16 $17 $-1 $18 #
body $19 $20 $-1 $21 #
shell $-1 $-1 $-1 $22 $-1 $3 #
model_id-kcp-attrib $-1 $-1 $-1 $5 1 990635297 50 1815216130 1 #
lump $-1 $-1 $23 $5 #
transform $-1 1 0 0 0 1 0 0 0 1 11.964 7.5801000000000016 22.5 1 no_rotate no_reflect no_shear #
rgb_color-st-attrib $-1 $24 $-1 $6 0.5 1 1 #
lump $-1 $-1 $25 $6 #
transform $-1 1 0 0 0 1 0 0 0 1 11.964 7.5801000000000016 22.5 1 no_rotate no_reflect no_shear #
rgb_color-st-attrib $-1 $26 $-1 $7 1 0.5 1 #
lump $-1 $-1 $27 $7 #
transform $-1 1 0 0 0 1 0 0 0 1 11.964 7.5801000000000016 22.5 1 no_rotate no_reflect no_shear #
rgb_color-st-attrib $-1 $28 $-1 $8 1 0.5 1 #
lump $-1 $-1 $29 $8 #
transform $-1 1 0 0 0 1 0 0 0 1 11.964 7.5801000000000016 22.5 1 no_rotate no_reflect no_shear #
face $30 $31 $32 $9 $-1 $33 forward single #
shell $-1 $-1 $-1 $34 $-1 $11 #
model_id-kcp-attrib $-1 $-1 $13 $6 1 990635297 110 1819148291 1 #
shell $-1 $-1 $-1 $35 $-1 $14 #
model_id-kcp-attrib $-1 $-1 $16 $7 1 990635297 200 1825046532 1 #
shell $-1 $-1 $-1 $36 $-1 $17 #
model_id-kcp-attrib $-1 $-1 $19 $8 1 990635297 260 1812201477 1 #
shell $-1 $-1 $-1 $37 $-1 $20 #
model_id-kcp-attrib $-1 $-1 $-1 $22 1 990635297 50 1815216129 2 #
face $38 $39 $40 $9 $-1 $41 reversed single #
loop $-1 $42 $43 $22 #
cone-surface $-1 11.964 7.5801000000000007 17 0 0 1 -1 0 0 1 I I 0 1 1 forward I I I I #
face $44 $45 $46 $23 $-1 $47 forward single #
face $-1 $48 $49 $25 $-1 $50 reversed single #
face $-1 $51 $52 $27 $-1 $53 forward single #
face $-1 $54 $55 $29 $-1 $56 forward single #
model_id-kcp-attrib $-1 $57 $-1 $31 1 990635297 50 1815216129 9 #
face $58 $59 $60 $9 $-1 $61 forward single #
loop $-1 $-1 $62 $31 #
plane-surface $-1 11.963999999999999 7.5801000000000034 17 0 0 1 1 0 0 forward_v I I I I #
loop $-1 $-1 $63 $22 #
coedge $-1 $43 $43 $64 $65 reversed $32 $-1 #
model_id-kcp-attrib $-1 $-1 $-1 $34 1 990635297 50 1815216130 3 #
face $66 $67 $68 $23 $-1 $69 reversed single #
loop $-1 $-1 $70 $34 #
plane-surface $-1 0 0 5.5 0 0 1 1 0 0 forward_v I I I I #
face $-1 $71 $72 $25 $-1 $50 reversed single #
loop $-1 $-1 $73 $35 #
cone-surface $-1 0 -8.8817841970012523e-016 -5.5 0 0 -1 3 0 0 1 I I 0 1 3 forward I I I I #
face $-1 $74 $75 $27 $-1 $76 forward single #
loop $-1 $77 $78 $36 #
cone-surface $-1 0 -8.8817841970012523e-016 0.5 0 0 -1 1.5 0 0 1 I I 0 -1 1.5 forward I I I I #
face $-1 $79 $80 $29 $-1 $81 forward single #
loop $-1 $82 $83 $37 #
cone-surface $-1 0 -8.8817841970012523e-016 -4.4999999999999982 0 0 -1 -1 0 0 1 I I 0 -1 1 forward I I I I #
model_id-kcp-attrib $-1 $-1 $38 $31 1 990635297 50 1815216129 3 #
model_id-kcp-attrib $-1 $-1 $-1 $39 1 990635297 50 1815216129 4 #
face $84 $85 $86 $9 $-1 $87 forward single #
loop $-1 $88 $89 $39 #
cone-surface $-1 11.964 7.5801000000000007 20.5 0 0 1 1.5 0 0 1 I I 0 1 1.5 forward I I I I #
coedge $-1 $62 $62 $63 $90 reversed $40 $-1 #
coedge $-1 $63 $63 $62 $90 forward $42 $-1 #
coedge $-1 $64 $64 $43 $65 forward $86 $-1 #
edge $-1 $91 -3.141592653589786 $91 3.1415926535898002 $64 $92 forward 7 unknown #
model_id-kcp-attrib $-1 $-1 $-1 $45 1 990635297 50 1815216130 2 #
face $-1 $93 $94 $23 $-1 $95 reversed single #
loop $-1 $-1 $96 $45 #
plane-surface $-1 0 0 -5.5 0 0 1 1 0 0 forward_v I I I I #
coedge $-1 $97 $98 $99 $100 forward $46 $-1 #
face $-1 $101 $102 $25 $-1 $50 reversed single #
loop $-1 $-1 $103 $48 #
coedge $-1 $104 $105 $106 $107 forward $49 $-1 #
face $-1 $108 $109 $27 $-1 $110 reversed single #
loop $-1 $111 $112 $51 #
cone-surface $-1 0 -8.8817841970012523e-016 0.5 0 0 -1 3 0 0 1 I I 0 1 3 forward I I I I #
loop $-1 $-1 $113 $36 #
coedge $-1 $78 $78 $114 $115 forward $52 $-1 #
face $-1 $116 $117 $29 $-1 $118 reversed single #
loop $-1 $119 $120 $54 #
cone-surface $-1 0 -8.8817841970012523e-016 -4.4999999999999982 0 0 -1 3 0 0 1 I I 0 1 3 forward I I I I #
loop $-1 $-1 $121 $37 #
coedge $-1 $83 $83 $122 $123 forward $55 $-1 #
model_id-kcp-attrib $-1 $-1 $-1 $59 1 990635297 50 1815216129 5 #
face $124 $125 $126 $9 $-1 $127 forward single #
loop $-1 $128 $64 $59 #
plane-surface $-1 11.964 7.5801000000000007 18 0 0 -1 -1 0 0 forward_v I I I I #
loop $-1 $-1 $129 $39 #
coedge $-1 $89 $89 $130 $131 reversed $60 $-1 #
edge $132 $133 0 $133 6.2831853071795862 $63 $134 forward 7 unknown #
vertex $-1 $65 $135 #
ellipse-curve $-1 11.964 7.5801000000000007 18 0 0 1 -1 0 0 1 I I #
face $-1 $136 $137 $23 $-1 $138 reversed single #
loop $-1 $-1 $139 $67 #
plane-surface $-1 0 -3.0000000000000004 0 0 1 0 0 0 1 forward_v I I I I #
coedge $-1 $140 $141 $142 $143 forward $68 $-1 #
coedge $-1 $144 $70 $145 $146 forward $46 $-1 #
coedge $-1 $70 $144 $147 $148 forward $46 $-1 #
coedge $-1 $149 $150 $70 $100 reversed $151 $-1 #
edge $-1 $152 -3.0000000000000004 $153 3.0000000000000004 $99 $154 forward 7 unknown #
face $-1 $155 $156 $25 $-1 $50 reversed single #
loop $-1 $-1 $157 $71 #
coedge $-1 $158 $106 $159 $160 reversed $72 $-1 #
coedge $-1 $161 $73 $162 $163 reversed $49 $-1 #
coedge $-1 $73 $161 $164 $165 reversed $49 $-1 #
coedge $-1 $103 $166 $167 $107 reversed $72 $-1 #
edge $-1 $168 -11 $169 0 $167 $170 forward 7 unknown #
face $-1 $-1 $171 $27 $-1 $172 forward single #
loop $-1 $173 $174 $74 #
plane-surface $-1 -0.13636363636363624 -8.8169456216254897e-016 -4.5 0 0 1 1 0 0 forward_v I I I I #
loop $-1 $-1 $175 $51 #
coedge $-1 $112 $112 $174 $176 forward $75 $-1 #
coedge $-1 $113 $113 $177 $178 reversed $77 $-1 #
coedge $-1 $114 $114 $78 $115 reversed $173 $-1 #
edge $-1 $179 0 $179 6.2831853071795862 $78 $180 forward 7 unknown #
face $-1 $-1 $181 $29 $-1 $182 forward single #
loop $-1 $183 $184 $79 #
plane-surface $-1 -0.18181818181818171 -7.4680092050386199e-016 -5.4999999999999991 -5.9164567891575911e-033 4.535950205020817e-032 1 1 0 5.9164567891575911e-033 forward_v I I I I #
loop $-1 $-1 $185 $54 #
coedge $-1 $120 $120 $184 $186 forward $80 $-1 #
coedge $-1 $121 $121 $187 $188 reversed $82 $-1 #
coedge $-1 $122 $122 $83 $123 reversed $183 $-1 #
edge $-1 $189 -3.1415926535898002 $189 3.141592653589786 $83 $190 forward 7 unknown #
model_id-kcp-attrib $-1 $-1 $-1 $85 1 990635297 50 1815216129 6 #
face $191 $192 $193 $9 $-1 $194 forward single #
loop $-1 $195 $196 $85 #
cone-surface $-1 11.964 7.5801000000000007 25.5 0 0 1 3 0 0 1 I I 0 1 3 forward I I I I #
loop $-1 $-1 $130 $59 #
coedge $-1 $129 $129 $197 $198 reversed $88 $-1 #
coedge $-1 $130 $130 $89 $131 forward $128 $-1 #
edge $-1 $199 0 $199 6.2831853071795862 $130 $200 forward 7 unknown #
attrib_edge_convexity-kcp-attrib $-1 $201 $-1 $90 1 #
vertex $-1 $90 $202 #
ellipse-curve $-1 11.964 7.5801000000000007 17 0 0 1 -1 0 0 1 I I #
point $-1 12.964 7.5801000000000078 18 #
face $-1 $203 $204 $23 $-1 $205 reversed single #
loop $-1 $-1 $206 $93 #
plane-surface $-1 -3 0 0 1 0 0 0 0 -1 forward_v I I I I #
coedge $-1 $207 $147 $208 $209 forward $94 $-1 #
coedge $-1 $210 $96 $207 $211 forward $68 $-1 #
coedge $-1 $96 $210 $212 $213 forward $68 $-1 #
coedge $-1 $150 $149 $96 $143 reversed $151 $-1 #
edge $-1 $214 -3.0000000000000004 $215 3.0000000000000004 $142 $216 forward 7 unknown #
coedge $-1 $98 $97 $217 $218 forward $46 $-1 #
coedge $-1 $219 $220 $97 $146 reversed $204 $-1 #
edge $-1 $153 -3 $221 3 $145 $222 forward 7 unknown #
coedge $-1 $139 $223 $98 $148 reversed $94 $-1 #
edge $-1 $224 -3 $152 3 $147 $225 forward 7 unknown #
coedge $-1 $142 $99 $223 $226 forward $151 $-1 #
coedge $-1 $99 $142 $219 $227 reversed $151 $-1 #
loop $-1 $-1 $149 $203 #
vertex $-1 $100 $228 #
vertex $-1 $100 $229 #
straight-curve $-1 3 0 5.5 0 1 0 I I #
face $-1 $230 $231 $25 $-1 $232 reversed single #
loop $-1 $-1 $233 $101 #
coedge $-1 $234 $235 $236 $237 reversed $102 $-1 #
coedge $-1 $166 $103 $238 $239 forward $72 $-1 #
coedge $-1 $240 $241 $103 $160 forward $242 $-1 #
edge $-1 $243 -3.1415926535897931 $168 -1.5707963267948966 $159 $244 forward 7 unknown #
coedge $-1 $105 $104 $245 $246 reversed $49 $-1 #
coedge $-1 $247 $248 $104 $163 forward $249 $-1 #
edge $-1 $250 0 $169 1.5707963267948966 $162 $251 forward 7 unknown #
coedge $-1 $252 $253 $105 $165 forward $254 $-1 #
edge $-1 $168 -1.5707963267948966 $255 0 $164 $244 forward 7 unknown #
coedge $-1 $106 $158 $256 $257 reversed $72 $-1 #
coedge $-1 $258 $259 $260 $107 forward $261 $-1 #
vertex $-1 $262 $263 #
vertex $-1 $264 $265 #
straight-curve $-1 0 3.0000000000000004 -5.5 0 0 -1 I I #
loop $-1 $266 $267 $108 #
plane-surface $-1 -0.13636363636363624 -8.8169456216254897e-016 0.5 0 0 1 1 0 0 forward_v I I I I #
loop $-1 $-1 $114 $74 #
coedge $-1 $174 $174 $112 $176 reversed $109 $-1 #
coedge $-1 $175 $175 $267 $268 reversed $111 $-1 #
edge $-1 $269 -3.1415926535897931 $269 3.1415926535897931 $112 $270 forward 7 unknown #
coedge $-1 $177 $177 $113 $178 forward $266 $-1 #
edge $-1 $271 0 $271 6.2831853071795862 $113 $272 forward 7 unknown #
vertex $-1 $115 $273 #
ellipse-curve $-1 0 -8.8817841970012523e-016 -4.5 0 0 -1 1.5 0 0 1 I I #
loop $-1 $274 $275 $116 #
plane-surface $-1 -0.18181818181818171 -7.4680092050386199e-016 -4.4999999999999991 -5.9164567891575911e-033 4.535950205020817e-032 1 1 0 5.9164567891575911e-033 forward_v I I I I #
loop $-1 $-1 $122 $79 #
coedge $-1 $184 $184 $120 $186 reversed $117 $-1 #
coedge $-1 $185 $185 $275 $276 reversed $119 $-1 #
edge $-1 $277 -3.1415926535897931 $277 3.1415926535897931 $120 $278 forward 7 unknown #
coedge $-1 $187 $187 $121 $188 forward $274 $-1 #
edge $-1 $279 -3.1415926535898002 $279 3.141592653589786 $121 $280 forward 7 unknown #
vertex $-1 $123 $281 #
ellipse-curve $-1 0 -8.8817841970012523e-016 -5.4999999999999982 0 0 -1 -1 0 0 1 I I #
model_id-kcp-attrib $-1 $-1 $-1 $125 1 990635297 50 1815216129 7 #
face $282 $-1 $283 $9 $-1 $284 forward single #
loop $-1 $285 $197 $125 #
plane-surface $-1 11.964 7.5801000000000007 23 0 0 -1 -1 0 0 forward_v I I I I #
loop $-1 $-1 $286 $85 #
coedge $-1 $196 $196 $287 $288 reversed $126 $-1 #
coedge $-1 $197 $197 $129 $198 forward $193 $-1 #
edge $-1 $289 0 $289 6.2831853071795862 $197 $290 forward 7 unknown #
vertex $-1 $131 $291 #
ellipse-curve $-1 11.964 7.5801000000000007 18 0 0 -1 1.5 0 0 1 I I #
convexity-sys-attrib $-1 $-1 $132 $90 #
point $-1 10.964 7.5801000000000007 17 #
face $-1 $-1 $151 $23 $-1 $292 reversed single #
loop $-1 $-1 $219 $136 #
plane-surface $-1 0 3.0000000000000004 0 0 -1 0 0 0 -1 forward_v I I I I #
coedge $-1 $293 $217 $220 $294 forward $137 $-1 #
coedge $-1 $223 $139 $140 $211 reversed $94 $-1 #
coedge $-1 $217 $293 $139 $209 reversed $137 $-1 #
edge $-1 $224 -5.5 $295 5.5 $208 $296 forward 7 unknown #
coedge $-1 $141 $140 $293 $297 forward $68 $-1 #
edge $-1 $215 -3 $295 3 $207 $298 forward 7 unknown #
coedge $-1 $220 $219 $141 $213 reversed $204 $-1 #
edge $-1 $299 -3 $214 3 $212 $300 forward 7 unknown #
vertex $-1 $143 $301 #
vertex $-1 $226 $302 #
straight-curve $-1 3 0 -5.5 0 -1 0 I I #
coedge $-1 $206 $208 $144 $218 reversed $137 $-1 #
edge $-1 $221 -3.0000000000000004 $224 3.0000000000000004 $217 $303 forward 7 unknown #
coedge $-1 $212 $145 $150 $227 forward $204 $-1 #
coedge $-1 $145 $212 $206 $294 reversed $204 $-1 #
vertex $-1 $146 $304 #
straight-curve $-1 0 3.0000000000000004 5.5 -1 0 0 I I #
coedge $-1 $147 $207 $149 $226 reversed $94 $-1 #
vertex $-1 $218 $305 #
straight-curve $-1 0 -3.0000000000000004 5.5 1 0 0 I I #
edge $-1 $152 -5.5 $215 5.5 $149 $306 forward 7 unknown #
edge $-1 $153 -5.5 $214 5.5 $150 $307 forward 7 unknown #
point $-1 3 -3.0000000000000004 5.5 #
point $-1 3 3.0000000000000004 5.5 #
face $-1 $308 $261 $25 $-1 $309 reversed single #
loop $-1 $-1 $245 $155 #
plane-surface $-1 3 0 0 -1 0 0 0 0 1 forward_v I I I I #
coedge $-1 $238 $310 $311 $312 reversed $156 $-1 #
coedge $-1 $313 $157 $314 $315 reversed $102 $-1 #
coedge $-1 $157 $313 $161 $246 forward $102 $-1 #
coedge $-1 $316 $317 $157 $237 forward $318 $-1 #
edge $-1 $319 -1.5707963267948966 $250 0 $236 $251 forward 7 unknown #
coedge $-1 $320 $233 $321 $239 reversed $156 $-1 #
edge $-1 $243 -11 $322 0 $321 $323 forward 7 unknown #
coedge $-1 $241 $159 $259 $262 forward $242 $-1 #
coedge $-1 $159 $240 $324 $325 forward $242 $-1 #
loop $-1 $-1 $159 $326 #
vertex $-1 $327 $328 #
ellipse-curve $-1 0 -8.8817841970012523e-016 5.5 0 0 -1 3 0 0 1 I I #
coedge $-1 $329 $330 $331 $246 forward $231 $-1 #
edge $-1 $255 -11 $250 0 $245 $332 forward 7 unknown #
coedge $-1 $248 $162 $333 $264 forward $249 $-1 #
coedge $-1 $162 $247 $329 $334 forward $249 $-1 #
loop $-1 $-1 $162 $335 #
vertex $-1 $336 $337 #
ellipse-curve $-1 0 -8.8817841970012523e-016 -5.5 0 0 1 3 0 0 1 I I #
coedge $-1 $253 $164 $330 $338 forward $254 $-1 #
coedge $-1 $164 $252 $339 $340 forward $254 $-1 #
loop $-1 $-1 $164 $341 #
vertex $-1 $338 $342 #
coedge $-1 $343 $344 $166 $257 forward $345 $-1 #
edge $-1 $169 1.5707963267948966 $322 3.1415926535897931 $256 $251 forward 7 unknown #
coedge $-1 $346 $167 $344 $347 reversed $261 $-1 #
coedge $-1 $167 $346 $240 $262 reversed $261 $-1 #
coedge $-1 $339 $333 $73 $107 reversed $348 $-1 #
loop $-1 $-1 $167 $230 #
edge $-1 $168 0 $349 3 $259 $350 forward 7 unknown #
point $-1 0 3.0000000000000004 5.5 #
edge $-1 $169 0 $351 3 $333 $352 forward 7 unknown #
point $-1 0 3.0000000000000004 -5.5 #
loop $-1 $-1 $177 $108 #
coedge $-1 $267 $267 $175 $268 forward $171 $-1 #
edge $353 $354 -3.1415926535897931 $354 3.1415926535897931 $175 $355 forward 7 unknown #
vertex $-1 $176 $356 #
ellipse-curve $-1 0 -8.8817841970012523e-016 -4.5 0 0 1 3 0 0 1 I I #
vertex $-1 $178 $357 #
ellipse-curve $-1 0 -8.8817841970012523e-016 0.5 0 0 -1 1.5 0 0 1 I I #
point $-1 1.5 -8.8817841970012523e-016 -4.5 #
loop $-1 $-1 $187 $116 #
coedge $-1 $275 $275 $185 $276 forward $181 $-1 #
edge $358 $359 -3.1415926535897931 $359 3.1415926535897931 $185 $360 forward 7 unknown #
vertex $-1 $186 $361 #
ellipse-curve $-1 0 -8.8817841970012523e-016 -5.4999999999999982 0 0 1 3 0 0 1 I I #
vertex $-1 $188 $362 #
ellipse-curve $-1 0 -8.8817841970012523e-016 -4.4999999999999982 0 0 -1 -1 0 0 1 I I #
point $-1 1 6.2172489379008766e-015 -5.5 #
model_id-kcp-attrib $-1 $-1 $-1 $192 1 990635297 50 1815216129 8 #
loop $-1 $-1 $363 $192 #
plane-surface $-1 11.964 7.5801000000000007 28 0 0 1 1 0 0 forward_v I I I I #
loop $-1 $-1 $287 $125 #
coedge $-1 $286 $286 $363 $364 reversed $195 $-1 #
coedge $-1 $287 $287 $196 $288 forward $285 $-1 #
edge $-1 $365 0 $365 6.2831853071795862 $287 $366 forward 7 unknown #
vertex $-1 $198 $367 #
ellipse-curve $-1 11.964 7.5801000000000007 23 0 0 1 1.5 0 0 1 I I #
point $-1 13.464 7.5801000000000007 18 #
plane-surface $-1 3 0 0 -1 0 0 0 0 1 forward_v I I I I #
coedge $-1 $208 $206 $210 $297 reversed $137 $-1 #
edge $-1 $221 -5.5 $299 5.5 $220 $368 forward 7 unknown #
vertex $-1 $297 $369 #
straight-curve $-1 -3 -3.0000000000000004 0 0 0 -1 I I #
edge $-1 $295 -3.0000000000000004 $299 3.0000000000000004 $293 $370 forward 7 unknown #
straight-curve $-1 0 -3.0000000000000004 -5.5 -1 0 0 I I #
vertex $-1 $213 $371 #
straight-curve $-1 0 3.0000000000000004 -5.5 1 0 0 I I #
point $-1 3 3.0000000000000004 -5.5 #
point $-1 3 -3.0000000000000004 -5.5 #
straight-curve $-1 -3 0 5.5 0 -1 0 I I #
point $-1 -3 3.0000000000000004 5.5 #
point $-1 -3 -3.0000000000000004 5.5 #
straight-curve $-1 3 -3.0000000000000004 0 0 0 -1 I I #
straight-curve $-1 3 3.0000000000000004 0 0 0 -1 I I #
face $-1 $372 $373 $25 $-1 $374 reversed single #
plane-surface $-1 0 3.0000000000000004 0 0 -1 0 0 0 -1 forward_v I I I I #
coedge $-1 $233 $320 $234 $315 forward $156 $-1 #
coedge $-1 $375 $376 $233 $312 forward $377 $-1 #
edge $-1 $322 -3.1415926535897931 $319 -1.5707963267948966 $311 $251 forward 7 unknown #
coedge $-1 $235 $234 $378 $379 reversed $102 $-1 #
coedge $-1 $380 $381 $382 $315 forward $383 $-1 #
edge $-1 $384 -11 $319 0 $314 $385 forward 7 unknown #
coedge $-1 $317 $236 $386 $336 forward $318 $-1 #
coedge $-1 $236 $316 $380 $387 forward $318 $-1 #
loop $-1 $-1 $236 $388 #
vertex $-1 $389 $390 #
coedge $-1 $310 $238 $391 $392 reversed $156 $-1 #
coedge $-1 $393 $394 $395 $239 forward $373 $-1 #
vertex $-1 $396 $397 #
straight-curve $-1 -3 -8.8817841970012523e-016 -5.5 0 0 -1 I I #
coedge $-1 $398 $395 $241 $325 reversed $399 $-1 #
edge $-1 $349 -3.0000000000000004 $243 8.8817841970012523e-016 $324 $400 forward 7 unknown #
face $-1 $341 $242 $25 $-1 $401 forward single #
edge $-1 $243 8.8817841970012523e-016 $402 3.0000000000000004 $394 $400 forward 7 unknown #
point $-1 -3 -8.8817841970012523e-016 5.5 #
coedge $-1 $403 $245 $248 $334 reversed $231 $-1 #
coedge $-1 $245 $403 $252 $338 reversed $231 $-1 #
coedge $-1 $404 $386 $235 $246 reversed $405 $-1 #
straight-curve $-1 3 -8.8817841970012523e-016 -5.5 0 0 -1 I I #
coedge $-1 $260 $406 $247 $264 reversed $348 $-1 #
edge $-1 $351 -3.0000000000000004 $250 8.8817841970012523e-016 $329 $407 forward 7 unknown #
face $-1 $408 $249 $25 $-1 $409 reversed single #
edge $-1 $250 8.8817841970012523e-016 $410 3.0000000000000004 $386 $407 forward 7 unknown #
point $-1 3 -8.8817841970012523e-016 -5.5 #
edge $-1 $255 -8.8817841970012523e-016 $411 3.0000000000000004 $330 $412 forward 7 unknown #
coedge $-1 $406 $260 $253 $340 reversed $348 $-1 #
edge $-1 $411 -3 $168 0 $339 $350 forward 7 unknown #
face $-1 $413 $254 $25 $-1 $401 forward single #
point $-1 3 -8.8817841970012523e-016 5.5 #
coedge $-1 $344 $256 $414 $396 forward $345 $-1 #
coedge $-1 $256 $343 $258 $347 forward $345 $-1 #
loop $-1 $-1 $256 $408 #
coedge $-1 $259 $258 $398 $415 reversed $261 $-1 #
edge $-1 $416 -3 $169 0 $258 $352 forward 7 unknown #
loop $-1 $-1 $260 $417 #
vertex $-1 $262 $418 #
straight-curve $-1 0 3.0000000000000004 5.5 -1 0 0 I I #
vertex $-1 $334 $419 #
straight-curve $-1 0 3.0000000000000004 -5.5 1 0 0 I I #
convexity-sys-attrib $-1 $-1 $-1 $268 #
vertex $-1 $268 $420 #
ellipse-curve $-1 0 -8.8817841970012523e-016 0.5 0 0 1 3 0 0 1 I I #
point $-1 -3 -1.2555603258468384e-015 -4.5 #
point $-1 1.5 -8.8817841970012523e-016 0.5 #
convexity-sys-attrib $-1 $-1 $-1 $276 #
vertex $-1 $276 $421 #
ellipse-curve $-1 0 -8.8817841970012523e-016 -4.4999999999999982 0 0 1 3 0 0 1 I I #
point $-1 -3 -1.2555603258468384e-015 -5.4999999999999982 #
point $-1 1 6.2172489379008766e-015 -4.5 #
coedge $-1 $363 $363 $286 $364 forward $283 $-1 #
edge $-1 $422 0 $422 6.2831853071795862 $363 $423 forward 7 unknown #
vertex $-1 $288 $424 #
ellipse-curve $-1 11.964 7.5801000000000007 23 0 0 -1 3 0 0 1 I I #
point $-1 13.464 7.5801000000000007 23 #
straight-curve $-1 -3 3.0000000000000004 0 0 0 -1 I I #
point $-1 -3 -3.0000000000000004 -5.5 #
straight-curve $-1 -3 0 -5.5 0 1 0 I I #
point $-1 -3 3.0000000000000004 -5.5 #
face $-1 $326 $425 $25 $-1 $401 forward single #
loop $-1 $-1 $321 $308 #
plane-surface $-1 -3 0 0 1 0 0 0 0 -1 forward_v I I I I #
coedge $-1 $376 $311 $426 $389 forward $377 $-1 #
coedge $-1 $311 $375 $393 $427 forward $377 $-1 #
loop $-1 $-1 $311 $428 #
coedge $-1 $429 $430 $313 $379 forward $431 $-1 #
edge $-1 $255 0 $384 1.5707963267948966 $378 $244 forward 7 unknown #
coedge $-1 $432 $314 $317 $387 reversed $383 $-1 #
coedge $-1 $314 $432 $429 $433 reversed $383 $-1 #
coedge $-1 $434 $426 $310 $315 reversed $435 $-1 #
loop $-1 $-1 $314 $436 #
vertex $-1 $433 $437 #
straight-curve $-1 0 -3.0000000000000004 -5.5 0 0 -1 I I #
coedge $-1 $331 $438 $316 $336 reversed $405 $-1 #
edge $-1 $410 -3 $319 0 $380 $439 forward 7 unknown #
face $-1 $335 $318 $25 $-1 $409 reversed single #
edge $-1 $319 0 $440 3 $426 $439 forward 7 unknown #
point $-1 0 -3.0000000000000004 -5.5 #
coedge $-1 $441 $442 $320 $392 forward $425 $-1 #
edge $-1 $384 1.5707963267948966 $243 3.1415926535897931 $391 $244 forward 7 unknown #
coedge $-1 $443 $321 $376 $427 reversed $373 $-1 #
coedge $-1 $321 $443 $441 $327 reversed $373 $-1 #
coedge $-1 $324 $414 $158 $239 reversed $399 $-1 #
edge $-1 $322 -8.8817841970012523e-016 $416 3.0000000000000004 $414 $444 forward 7 unknown #
point $-1 -3 -8.8817841970012523e-016 -5.5 #
coedge $-1 $414 $324 $346 $415 forward $399 $-1 #
loop $-1 $-1 $395 $445 #
straight-curve $-1 -3 0 5.5 0 -1 0 I I #
plane-surface $-1 0 0 5.5 0 0 1 1 0 0 forward_v I I I I #
vertex $-1 $327 $446 #
coedge $-1 $330 $329 $406 $447 reversed $231 $-1 #
coedge $-1 $438 $331 $430 $448 reversed $405 $-1 #
loop $-1 $-1 $331 $449 #
coedge $-1 $333 $339 $403 $447 forward $348 $-1 #
straight-curve $-1 3 0 -5.5 0 -1 0 I I #
face $-1 $450 $345 $25 $-1 $409 reversed single #
plane-surface $-1 0 0 -5.5 0 0 1 1 0 0 forward_v I I I I #
vertex $-1 $451 $452 #
vertex $-1 $338 $453 #
straight-curve $-1 3 0 5.5 0 1 0 I I #
face $-1 $436 $431 $25 $-1 $401 forward single #
coedge $-1 $395 $398 $343 $396 reversed $399 $-1 #
edge $-1 $349 -5.5 $416 5.5 $346 $454 forward 7 unknown #
vertex $-1 $347 $455 #
face $-1 $449 $348 $25 $-1 $309 reversed single #
point $-1 -3 3.0000000000000004 5.5 #
point $-1 3 3.0000000000000004 -5.5 #
point $-1 -3 -1.2555603258468384e-015 0.5 #
point $-1 -3 -1.2555603258468384e-015 -4.4999999999999982 #
vertex $-1 $364 $456 #
ellipse-curve $-1 11.964 7.5801000000000007 28 0 0 1 3 0 0 1 I I #
point $-1 14.964 7.5801000000000007 23 #
loop $-1 $-1 $391 $372 #
coedge $-1 $382 $457 $375 $389 reversed $435 $-1 #
edge $-1 $440 -3.0000000000000004 $322 -8.8817841970012523e-016 $393 $444 forward 7 unknown #
face $-1 $388 $377 $25 $-1 $409 reversed single #
coedge $-1 $430 $378 $381 $433 forward $431 $-1 #
coedge $-1 $378 $429 $404 $448 forward $431 $-1 #
loop $-1 $-1 $378 $413 #
coedge $-1 $381 $380 $438 $451 reversed $383 $-1 #
edge $-1 $384 0 $458 3 $381 $459 forward 7 unknown #
coedge $-1 $457 $382 $442 $460 reversed $435 $-1 #
loop $-1 $-1 $382 $450 #
face $-1 $428 $383 $25 $-1 $461 reversed single #
point $-1 0 -3.0000000000000004 5.5 #
coedge $-1 $386 $404 $432 $451 forward $405 $-1 #
straight-curve $-1 0 -3.0000000000000004 -5.5 -1 0 0 I I #
vertex $-1 $427 $462 #
coedge $-1 $442 $391 $394 $327 forward $425 $-1 #
coedge $-1 $391 $441 $434 $460 forward $425 $-1 #
coedge $-1 $394 $393 $457 $463 reversed $373 $-1 #
straight-curve $-1 -3 0 -5.5 0 1 0 I I #
face $-1 $417 $399 $25 $-1 $374 reversed single #
point $-1 -3 -3.0000000000000004 5.5 #
edge $-1 $411 -5.5 $351 5.5 $403 $464 forward 7 unknown #
edge $-1 $458 -3.0000000000000004 $255 -8.8817841970012523e-016 $404 $412 forward 7 unknown #
face $-1 $-1 $405 $25 $-1 $232 reversed single #
face $-1 $445 $435 $25 $-1 $461 reversed single #
edge $-1 $458 -5.5 $410 5.5 $438 $465 forward 7 unknown #
point $-1 3 -3.0000000000000004 -5.5 #
point $-1 3 3.0000000000000004 5.5 #
straight-curve $-1 -3 3.0000000000000004 0 0 0 -1 I I #
point $-1 -3 3.0000000000000004 -5.5 #
point $-1 14.964 7.5801000000000007 28 #
coedge $-1 $426 $434 $443 $463 forward $435 $-1 #
vertex $-1 $448 $466 #
straight-curve $-1 0 -3.0000000000000004 5.5 1 0 0 I I #
edge $-1 $402 -3 $384 0 $434 $459 forward 7 unknown #
plane-surface $-1 0 -3.0000000000000004 0 0 1 0 0 0 1 forward_v I I I I #
point $-1 -3 -3.0000000000000004 -5.5 #
edge $-1 $402 -5.5 $440 5.5 $443 $467 forward 7 unknown #
straight-curve $-1 3 3.0000000000000004 0 0 0 -1 I I #
straight-curve $-1 3 -3.0000000000000004 0 0 0 -1 I I #
point $-1 3 -3.0000000000000004 5.5 #
straight-curve $-1 -3 -3.0000000000000004 0 0 0 -1 I I #
End-of-ACIS-data 