106 0 1 0           
body $-1 $1 $-1 $-1 #
lump $-1 $-1 $2 $0 #
shell $-1 $-1 $-1 $3 $1 #
face $-1 $4 $5 $2 $-1 $6 forward single #
face $-1 $7 $8 $2 $-1 $9 reversed single #
loop $-1 $10 $11 $3 #
cone-surface $-1 11.964 7.5801000000000007 17 0 0 1 -1 0 0 1 I I 0 1 0 I I I I #
face $-1 $12 $13 $2 $-1 $14 forward single #
loop $-1 $-1 $15 $4 #
plane-surface $-1 11.963999999999999 7.5801000000000034 17 0 0 1 1 0 0 0 I I I I #
loop $-1 $-1 $16 $3 #
coedge $-1 $11 $11 $17 $18 1 $5 $-1 #
face $-1 $19 $20 $2 $-1 $21 forward single #
loop $-1 $22 $23 $7 #
cone-surface $-1 11.964 7.5801000000000007 20.5 0 0 1 1.5 0 0 1 I I 0 1 0 I I I I #
coedge $-1 $15 $15 $16 $24 1 $8 $-1 #
coedge $-1 $16 $16 $15 $24 0 $10 $-1 #
coedge $-1 $17 $17 $11 $18 0 $20 $-1 #
edge $-1 $25 $25 $17 $26 0 #
face $-1 $27 $28 $2 $-1 $29 forward single #
loop $-1 $30 $17 $12 #
plane-surface $-1 11.964 7.5801000000000007 18 0 0 -1 -1 0 0 0 I I I I #
loop $-1 $-1 $31 $7 #
coedge $-1 $23 $23 $32 $33 1 $13 $-1 #
edge $-1 $34 $34 $16 $35 0 #
vertex $-1 $18 $36 #
ellipse-curve $-1 11.964 7.5801000000000007 18 0 0 1 -1 0 0 1 I I #
face $-1 $37 $38 $2 $-1 $39 forward single #
loop $-1 $40 $41 $19 #
cone-surface $-1 11.964 7.5801000000000007 25.5 0 0 1 3 0 0 1 I I 0 1 0 I I I I #
loop $-1 $-1 $32 $12 #
coedge $-1 $31 $31 $42 $43 1 $22 $-1 #
coedge $-1 $32 $32 $23 $33 0 $30 $-1 #
edge $-1 $44 $44 $32 $45 0 #
vertex $-1 $24 $46 #
ellipse-curve $-1 11.964 7.5801000000000007 17 0 0 1 -1 0 0 1 I I #
point $-1 12.964 7.5801000000000078 18 #
face $-1 $-1 $47 $2 $-1 $48 forward single #
loop $-1 $49 $42 $27 #
plane-surface $-1 11.964 7.5801000000000007 23 0 0 -1 -1 0 0 0 I I I I #
loop $-1 $-1 $50 $19 #
coedge $-1 $41 $41 $51 $52 1 $28 $-1 #
coedge $-1 $42 $42 $31 $43 0 $38 $-1 #
edge $-1 $53 $53 $42 $54 0 #
vertex $-1 $33 $55 #
ellipse-curve $-1 11.964 7.5801000000000007 18 0 0 -1 1.5 0 0 1 I I #
point $-1 10.964 7.5801000000000007 17 #
loop $-1 $-1 $56 $37 #
plane-surface $-1 11.964 7.5801000000000007 28 0 0 1 1 0 0 0 I I I I #
loop $-1 $-1 $51 $27 #
coedge $-1 $50 $50 $56 $57 1 $40 $-1 #
coedge $-1 $51 $51 $41 $52 0 $49 $-1 #
edge $-1 $58 $58 $51 $59 0 #
vertex $-1 $43 $60 #
ellipse-curve $-1 11.964 7.5801000000000007 23 0 0 1 1.5 0 0 1 I I #
point $-1 13.464 7.5801000000000007 18 #
coedge $-1 $56 $56 $50 $57 0 $47 $-1 #
edge $-1 $61 $61 $56 $62 0 #
vertex $-1 $52 $63 #
ellipse-curve $-1 11.964 7.5801000000000007 23 0 0 -1 3 0 0 1 I I #
point $-1 13.464 7.5801000000000007 23 #
vertex $-1 $57 $64 #
ellipse-curve $-1 11.964 7.5801000000000007 28 0 0 1 3 0 0 1 I I #
point $-1 14.964 7.5801000000000007 23 #
point $-1 14.964 7.5801000000000007 28 #
End-of-ACIS-data 