600 0 2 0           
24 FBMach with ACIS - 6.0.3 13 ACIS 6.0.3 NT 24 Wed May 23 12:28:21 2001 
1 9.9999999999999995e-007 1e-010 
body $2 $3 $-1 $4 #
bdycol-kcp $-1 1 3 $5 $6 $7 #
model_id-kcp-attrib $-1 $-1 $-1 $0 1 990635300 50 -2060320767 1 #
lump $-1 $-1 $8 $0 #
transform $-1 1 0 0 0 1 0 0 0 1 0 0 0 1 no_rotate no_reflect no_shear #
body $9 $10 $-1 $11 #
body $12 $13 $-1 $14 #
body $15 $16 $-1 $17 #
shell $-1 $-1 $-1 $18 $-1 $3 #
model_id-kcp-attrib $-1 $-1 $-1 $5 1 990635300 60 -2059665406 1 #
lump $-1 $-1 $19 $5 #
transform $-1 1 0 0 0 1 0 0 0 1 11.964 7.5801000000000007 9.25 1 no_rotate no_reflect no_shear #
rgb_color-st-attrib $-1 $20 $-1 $6 0.5 1 1 #
lump $-1 $-1 $21 $6 #
transform $-1 1 0 0 0 1 0 0 0 1 11.964 7.5801000000000007 9.25 1 no_rotate no_reflect no_shear #
rgb_color-st-attrib $-1 $22 $-1 $7 1 0.5 1 #
lump $-1 $-1 $23 $7 #
transform $-1 1 0 0 0 1 0 0 0 1 11.964 7.5801000000000007 9.25 1 no_rotate no_reflect no_shear #
face $24 $25 $26 $8 $-1 $27 reversed single #
shell $-1 $-1 $-1 $28 $-1 $10 #
model_id-kcp-attrib $-1 $-1 $12 $6 1 990635300 110 -2056388605 1 #
shell $-1 $-1 $-1 $29 $-1 $13 #
model_id-kcp-attrib $-1 $-1 $15 $7 1 990635300 200 -2050490364 1 #
shell $-1 $-1 $-1 $30 $-1 $16 #
model_id-kcp-attrib $-1 $31 $-1 $18 1 990635300 50 -2060320767 7 #
face $32 $33 $34 $8 $-1 $35 forward single #
loop $-1 $-1 $36 $18 #
plane-surface $-1 11.964000000000002 7.5801000000000034 13.5 0 0 -1 -1 0 0 forward_v I I I I #
face $37 $38 $39 $19 $-1 $40 forward single #
face $-1 $41 $42 $21 $-1 $43 reversed single #
face $-1 $44 $45 $23 $-1 $46 forward single #
model_id-kcp-attrib $-1 $-1 $24 $18 1 990635300 50 -2060320767 2 #
model_id-kcp-attrib $-1 $-1 $-1 $25 1 990635300 50 -2060320767 3 #
face $47 $48 $49 $8 $-1 $50 forward single #
loop $-1 $51 $52 $25 #
cone-surface $-1 11.964 7.5800999999999998 10 0 0 1 1 0 0 1 I I 0 1 1 forward I I I I #
coedge $-1 $36 $36 $52 $53 reversed $26 $-1 #
model_id-kcp-attrib $-1 $-1 $-1 $28 1 990635300 60 -2059665406 2 #
face $54 $55 $56 $19 $-1 $57 reversed single #
loop $-1 $-1 $58 $28 #
plane-surface $-1 0 0 4.25 0 0 1 1 0 0 forward_v I I I I #
face $-1 $59 $60 $21 $-1 $43 reversed single #
loop $-1 $-1 $61 $29 #
cone-surface $-1 0 0 4.25 0 0 1 1.5036 0 0 1 I I 0 1 1.5036 forward I I I I #
face $-1 $62 $63 $23 $-1 $64 forward single #
loop $-1 $65 $66 $30 #
cone-surface $-1 0 -8.8817841970012523e-016 -1.7499999999999982 0 0 1 1 0 0 1 I I 0 -1 1 forward I I I I #
model_id-kcp-attrib $-1 $-1 $-1 $33 1 990635300 50 -2060320767 4 #
face $67 $68 $69 $8 $-1 $70 forward single #
loop $-1 $71 $72 $33 #
cone-surface $-1 11.964 7.5801000000000007 6.25 0 -6.1230317691118863e-017 -1 1.5036 0 0 1 I I 0 1 1.5036 forward I I I I #
loop $-1 $-1 $73 $25 #
coedge $-1 $52 $52 $36 $53 forward $34 $-1 #
edge $74 $75 0 $75 6.2831853071795862 $52 $76 forward 7 unknown #
model_id-kcp-attrib $-1 $-1 $-1 $38 1 990635300 60 -2059665406 3 #
face $-1 $77 $78 $19 $-1 $79 reversed single #
loop $-1 $-1 $80 $38 #
plane-surface $-1 0 0 -4.25 0 0 1 1 0 0 forward_v I I I I #
coedge $-1 $81 $82 $83 $84 forward $39 $-1 #
face $-1 $85 $86 $21 $-1 $43 reversed single #
loop $-1 $-1 $87 $41 #
coedge $-1 $88 $89 $90 $91 reversed $42 $-1 #
face $-1 $92 $93 $23 $-1 $94 forward single #
loop $-1 $95 $96 $44 #
cone-surface $-1 0 0 -1.7499999999999982 0 0 1 1.5036 0 0 1 I I 0 1 1.5036 forward I I I I #
loop $-1 $-1 $97 $30 #
coedge $-1 $66 $66 $98 $99 forward $45 $-1 #
model_id-kcp-attrib $-1 $-1 $-1 $48 1 990635300 50 -2060320767 5 #
face $100 $-1 $101 $8 $-1 $102 forward single #
loop $-1 $103 $104 $48 #
plane-surface $-1 11.964 7.5801000000000007 7.5 0 6.1230317691118863e-017 1 -1 0 0 forward_v I I I I #
loop $-1 $-1 $105 $33 #
coedge $-1 $72 $72 $106 $107 reversed $49 $-1 #
coedge $-1 $73 $73 $104 $108 reversed $51 $-1 #
attrib_edge_convexity-kcp-attrib $-1 $109 $-1 $53 1 #
vertex $-1 $53 $110 #
ellipse-curve $-1 11.964 7.5801000000000007 13.5 0 0 -1 1 0 0 1 I I #
face $-1 $111 $112 $19 $-1 $113 reversed single #
loop $-1 $-1 $114 $55 #
plane-surface $-1 0 -1.5035999999999996 0 0 1 0 0 0 1 forward_v I I I I #
coedge $-1 $115 $116 $117 $118 forward $56 $-1 #
coedge $-1 $119 $58 $120 $121 forward $39 $-1 #
coedge $-1 $58 $119 $122 $123 forward $39 $-1 #
coedge $-1 $124 $125 $58 $84 reversed $126 $-1 #
edge $-1 $127 -1.5035999999999996 $128 1.5035999999999996 $83 $129 forward 7 unknown #
face $-1 $130 $131 $21 $-1 $43 reversed single #
loop $-1 $-1 $132 $59 #
coedge $-1 $133 $134 $135 $136 reversed $60 $-1 #
coedge $-1 $137 $61 $138 $139 reversed $42 $-1 #
coedge $-1 $61 $137 $140 $141 reversed $42 $-1 #
coedge $-1 $142 $143 $144 $91 forward $145 $-1 #
edge $-1 $146 -8.5 $147 0 $90 $148 forward 7 unknown #
face $-1 $-1 $149 $23 $-1 $150 reversed single #
loop $-1 $151 $152 $62 #
plane-surface $-1 -0.045781818181818174 -3.494608470383483e-016 4.2500000000000018 -1.8144115782579535e-032 2.4192154376772707e-032 1 1 0 1.8144115782579535e-032 forward_v I I I I #
loop $-1 $-1 $153 $44 #
coedge $-1 $96 $96 $152 $154 forward $63 $-1 #
coedge $-1 $97 $97 $155 $156 reversed $65 $-1 #
coedge $-1 $98 $98 $66 $99 reversed $151 $-1 #
edge $-1 $157 1.6315034041390372e-031 $157 6.2831853071795862 $66 $158 forward 7 unknown #
model_id-kcp-attrib $-1 $-1 $-1 $68 1 990635300 50 -2060320767 6 #
loop $-1 $-1 $159 $68 #
plane-surface $-1 11.964 7.5801000000000007 5 0 -6.1230317691118863e-017 -1 1 0 0 forward_v I I I I #
loop $-1 $-1 $106 $48 #
coedge $-1 $104 $104 $73 $108 forward $69 $-1 #
coedge $-1 $105 $105 $159 $160 reversed $71 $-1 #
coedge $-1 $106 $106 $72 $107 forward $103 $-1 #
edge $-1 $161 0 $161 6.2831853071795862 $106 $162 forward 7 unknown #
edge $-1 $163 -5.4383446804634572e-032 $163 6.2831853071795862 $104 $164 forward 7 unknown #
convexity-sys-attrib $-1 $-1 $74 $53 #
point $-1 12.964 7.5801000000000007 13.5 #
face $-1 $165 $166 $19 $-1 $167 reversed single #
loop $-1 $-1 $168 $77 #
plane-surface $-1 -1.5036000000000005 0 0 1 0 0 0 0 -1 forward_v I I I I #
coedge $-1 $169 $122 $170 $171 forward $78 $-1 #
coedge $-1 $172 $80 $169 $173 forward $56 $-1 #
coedge $-1 $80 $172 $174 $175 forward $56 $-1 #
coedge $-1 $125 $124 $80 $118 reversed $126 $-1 #
edge $-1 $176 -1.5035999999999996 $177 1.5035999999999996 $117 $178 forward 7 unknown #
coedge $-1 $82 $81 $179 $180 forward $39 $-1 #
coedge $-1 $181 $182 $81 $121 reversed $166 $-1 #
edge $-1 $128 -1.5036000000000005 $183 1.5036000000000005 $120 $184 forward 7 unknown #
coedge $-1 $114 $185 $82 $123 reversed $78 $-1 #
edge $-1 $186 -1.5036000000000005 $127 1.5036000000000005 $122 $187 forward 7 unknown #
coedge $-1 $117 $83 $185 $188 forward $126 $-1 #
coedge $-1 $83 $117 $181 $189 reversed $126 $-1 #
loop $-1 $-1 $124 $165 #
vertex $-1 $84 $190 #
vertex $-1 $84 $191 #
straight-curve $-1 1.5036000000000005 0 4.25 0 1 0 I I #
face $-1 $192 $193 $21 $-1 $194 reversed single #
loop $-1 $-1 $195 $85 #
coedge $-1 $196 $197 $198 $199 reversed $86 $-1 #
coedge $-1 $200 $87 $201 $202 reversed $60 $-1 #
coedge $-1 $87 $200 $61 $91 forward $60 $-1 #
coedge $-1 $203 $204 $87 $136 forward $205 $-1 #
edge $-1 $206 -3.1415926535897931 $147 -1.5707963267948966 $135 $207 forward 7 unknown #
coedge $-1 $89 $88 $197 $208 forward $42 $-1 #
coedge $-1 $209 $210 $88 $139 forward $211 $-1 #
edge $-1 $212 0 $146 1.5707963267948966 $138 $213 forward 7 unknown #
coedge $-1 $214 $215 $89 $141 forward $216 $-1 #
edge $-1 $147 -1.5707963267948966 $217 0 $140 $207 forward 7 unknown #
coedge $-1 $218 $90 $215 $219 reversed $145 $-1 #
coedge $-1 $90 $218 $209 $220 reversed $145 $-1 #
coedge $-1 $221 $222 $134 $91 reversed $223 $-1 #
loop $-1 $-1 $90 $224 #
vertex $-1 $220 $225 #
vertex $-1 $226 $227 #
straight-curve $-1 0 1.5035999999999996 4.25 0 0 1 I I #
loop $-1 $228 $229 $92 #
plane-surface $-1 -0.045781818181818174 -3.494608470383483e-016 -1.7499999999999982 -1.8144115782579535e-032 2.4192154376772707e-032 1 1 0 1.8144115782579535e-032 forward_v I I I I #
loop $-1 $-1 $98 $62 #
coedge $-1 $152 $152 $96 $154 reversed $93 $-1 #
coedge $-1 $153 $153 $229 $230 reversed $95 $-1 #
edge $-1 $231 -3.1415926535897931 $231 3.1415926535897931 $96 $232 forward 7 unknown #
coedge $-1 $155 $155 $97 $156 forward $228 $-1 #
edge $-1 $233 1.6315034041390372e-031 $233 6.2831853071795862 $97 $234 forward 7 unknown #
vertex $-1 $99 $235 #
ellipse-curve $-1 0 -8.8817841970012523e-016 4.2500000000000018 0 6.1230317691118863e-017 1 1 0 0 1 I I #
coedge $-1 $159 $159 $105 $160 forward $101 $-1 #
edge $-1 $236 0 $236 6.2831853071795862 $159 $237 forward 7 unknown #
vertex $-1 $107 $238 #
ellipse-curve $-1 11.964 7.5801000000000007 7.5 0 6.1230317691118863e-017 1 1.5036 0 0 1 I I #
vertex $-1 $108 $239 #
ellipse-curve $-1 11.964 7.5800999999999998 7.5 0 -6.1230317691118863e-017 -1 1 0 0 1 I I #
face $-1 $-1 $126 $19 $-1 $240 reversed single #
loop $-1 $-1 $181 $111 #
plane-surface $-1 0 1.5035999999999996 0 0 -1 0 0 0 -1 forward_v I I I I #
coedge $-1 $241 $179 $182 $242 forward $112 $-1 #
coedge $-1 $185 $114 $115 $173 reversed $78 $-1 #
coedge $-1 $179 $241 $114 $171 reversed $112 $-1 #
edge $-1 $186 -4.25 $243 4.25 $170 $244 forward 7 unknown #
coedge $-1 $116 $115 $241 $245 forward $56 $-1 #
edge $-1 $177 -1.5036000000000005 $243 1.5036000000000005 $169 $246 forward 7 unknown #
coedge $-1 $182 $181 $116 $175 reversed $166 $-1 #
edge $-1 $247 -1.5036000000000005 $176 1.5036000000000005 $174 $248 forward 7 unknown #
vertex $-1 $118 $249 #
vertex $-1 $188 $250 #
straight-curve $-1 1.5036000000000005 0 -4.25 0 -1 0 I I #
coedge $-1 $168 $170 $119 $180 reversed $112 $-1 #
edge $-1 $183 -1.5035999999999996 $186 1.5035999999999996 $179 $251 forward 7 unknown #
coedge $-1 $174 $120 $125 $189 forward $166 $-1 #
coedge $-1 $120 $174 $168 $242 reversed $166 $-1 #
vertex $-1 $121 $252 #
straight-curve $-1 0 1.5035999999999996 4.25 -1 0 0 I I #
coedge $-1 $122 $169 $124 $188 reversed $78 $-1 #
vertex $-1 $180 $253 #
straight-curve $-1 0 -1.5035999999999996 4.25 1 0 0 I I #
edge $-1 $127 -4.25 $177 4.25 $124 $254 forward 7 unknown #
edge $-1 $128 -4.25 $176 4.25 $125 $255 forward 7 unknown #
point $-1 1.5036000000000005 -1.5035999999999996 4.25 #
point $-1 1.5036000000000005 1.5035999999999996 4.25 #
face $-1 $256 $223 $21 $-1 $257 reversed single #
loop $-1 $-1 $258 $130 #
plane-surface $-1 1.5036000000000005 0 0 -1 0 0 0 0 1 forward_v I I I I #
coedge $-1 $259 $260 $261 $262 reversed $131 $-1 #
coedge $-1 $263 $132 $260 $264 forward $86 $-1 #
coedge $-1 $132 $263 $265 $208 reversed $86 $-1 #
coedge $-1 $266 $267 $132 $199 forward $268 $-1 #
edge $-1 $269 -1.5707963267948966 $212 0 $198 $213 forward 7 unknown #
coedge $-1 $134 $133 $270 $271 reversed $60 $-1 #
coedge $-1 $272 $273 $274 $202 forward $275 $-1 #
edge $-1 $276 -8.5 $206 0 $201 $277 forward 7 unknown #
coedge $-1 $204 $135 $222 $226 forward $205 $-1 #
coedge $-1 $135 $203 $272 $278 forward $205 $-1 #
loop $-1 $-1 $135 $279 #
vertex $-1 $280 $281 #
ellipse-curve $-1 0 0 4.25 0 0 -1 1.5036 0 0 1 I I #
edge $-1 $212 -8.5 $217 0 $265 $282 forward 7 unknown #
coedge $-1 $210 $138 $143 $220 forward $211 $-1 #
coedge $-1 $138 $209 $283 $284 forward $211 $-1 #
loop $-1 $-1 $138 $285 #
vertex $-1 $286 $287 #
ellipse-curve $-1 0 0 -4.25 0 0 1 1.5036 0 0 1 I I #
coedge $-1 $215 $140 $288 $289 forward $216 $-1 #
coedge $-1 $140 $214 $142 $219 forward $216 $-1 #
loop $-1 $-1 $140 $290 #
vertex $-1 $289 $291 #
coedge $-1 $143 $142 $292 $293 forward $145 $-1 #
edge $-1 $294 -1.5036000000000005 $147 0 $142 $295 forward 7 unknown #
edge $-1 $146 0 $296 1.5036000000000005 $143 $297 forward 7 unknown #
coedge $-1 $298 $144 $299 $300 reversed $223 $-1 #
coedge $-1 $144 $298 $203 $226 reversed $223 $-1 #
loop $-1 $-1 $144 $192 #
face $-1 $301 $145 $21 $-1 $257 reversed single #
point $-1 0 1.5035999999999996 -4.25 #
edge $-1 $147 0 $302 1.5036000000000005 $222 $295 forward 7 unknown #
point $-1 0 1.5035999999999996 4.25 #
loop $-1 $-1 $155 $92 #
coedge $-1 $229 $229 $153 $230 forward $149 $-1 #
edge $303 $304 -3.1415926535897931 $304 3.1415926535897931 $153 $305 forward 7 unknown #
vertex $-1 $154 $306 #
ellipse-curve $-1 0 0 4.2500000000000018 0 -6.1230317691118863e-017 -1 1.5036 0 0 1 I I #
vertex $-1 $156 $307 #
ellipse-curve $-1 0 -8.8817841970012523e-016 -1.7499999999999982 0 6.1230317691118863e-017 1 1 0 0 1 I I #
point $-1 1 -8.8817841970012523e-016 4.2499999999999991 #
vertex $-1 $160 $308 #
ellipse-curve $-1 11.964 7.5801000000000007 5 0 -6.1230317691118863e-017 -1 1.5036 0 0 1 I I #
point $-1 13.467600000000001 7.5801000000000007 7.5 #
point $-1 12.964 7.5800999999999998 7.4999999999999991 #
plane-surface $-1 1.5036000000000005 0 0 -1 0 0 0 0 1 forward_v I I I I #
coedge $-1 $170 $168 $172 $245 reversed $112 $-1 #
edge $-1 $183 -4.25 $247 4.25 $182 $309 forward 7 unknown #
vertex $-1 $245 $310 #
straight-curve $-1 -1.5036000000000005 -1.5035999999999996 0 0 0 -1 I I #
edge $-1 $243 -1.5035999999999996 $247 1.5035999999999996 $241 $311 forward 7 unknown #
straight-curve $-1 0 -1.5035999999999996 -4.25 -1 0 0 I I #
vertex $-1 $175 $312 #
straight-curve $-1 0 1.5035999999999996 -4.25 1 0 0 I I #
point $-1 1.5036000000000005 1.5035999999999996 -4.25 #
point $-1 1.5036000000000005 -1.5035999999999996 -4.25 #
straight-curve $-1 -1.5036000000000005 0 4.25 0 -1 0 I I #
point $-1 -1.5036000000000005 1.5035999999999996 4.25 #
point $-1 -1.5036000000000005 -1.5035999999999996 4.25 #
straight-curve $-1 1.5036000000000005 -1.5035999999999996 0 0 0 -1 I I #
straight-curve $-1 1.5036000000000005 1.5035999999999996 0 0 0 -1 I I #
face $-1 $313 $314 $21 $-1 $315 reversed single #
plane-surface $-1 0 1.5035999999999996 0 0 -1 0 0 0 -1 forward_v I I I I #
coedge $-1 $283 $288 $137 $208 reversed $193 $-1 #
coedge $-1 $316 $195 $133 $202 forward $131 $-1 #
coedge $-1 $195 $316 $317 $264 reversed $131 $-1 #
coedge $-1 $318 $319 $195 $262 forward $320 $-1 #
edge $-1 $276 -3.1415926535897931 $269 -1.5707963267948966 $261 $213 forward 7 unknown #
coedge $-1 $197 $196 $321 $322 reversed $86 $-1 #
edge $-1 $269 -8.5 $323 0 $317 $324 forward 7 unknown #
coedge $-1 $325 $326 $258 $208 forward $327 $-1 #
coedge $-1 $267 $198 $326 $286 forward $268 $-1 #
coedge $-1 $198 $266 $328 $329 forward $268 $-1 #
loop $-1 $-1 $198 $330 #
vertex $-1 $331 $332 #
coedge $-1 $333 $299 $200 $271 forward $334 $-1 #
edge $-1 $146 1.5707963267948966 $276 3.1415926535897931 $270 $213 forward 7 unknown #
coedge $-1 $335 $201 $204 $278 reversed $275 $-1 #
coedge $-1 $201 $335 $333 $336 reversed $275 $-1 #
coedge $-1 $337 $338 $259 $202 reversed $314 $-1 #
loop $-1 $-1 $201 $339 #
vertex $-1 $336 $340 #
straight-curve $-1 -1.5036000000000005 0 4.25 0 0 1 I I #
edge $-1 $302 -1.5035999999999996 $206 0 $272 $341 forward 7 unknown #
face $-1 $290 $205 $21 $-1 $342 forward single #
edge $-1 $206 0 $343 1.5035999999999996 $338 $341 forward 7 unknown #
point $-1 -1.5036000000000005 0 4.25 #
straight-curve $-1 1.5036000000000005 0 4.25 0 0 1 I I #
coedge $-1 $292 $258 $210 $284 reversed $193 $-1 #
edge $-1 $296 -1.5035999999999996 $212 0 $283 $344 forward 7 unknown #
face $-1 $345 $211 $21 $-1 $346 reversed single #
edge $-1 $212 0 $347 1.5035999999999996 $326 $344 forward 7 unknown #
point $-1 1.5036000000000005 0 -4.25 #
coedge $-1 $258 $292 $214 $289 reversed $193 $-1 #
edge $-1 $217 0 $294 1.5035999999999996 $288 $348 forward 7 unknown #
face $-1 $349 $216 $21 $-1 $342 forward single #
point $-1 1.5036000000000005 0 4.25 #
coedge $-1 $288 $283 $218 $293 reversed $193 $-1 #
edge $-1 $294 -4.25 $296 4.25 $292 $350 forward 7 unknown #
vertex $-1 $289 $351 #
straight-curve $-1 0 1.5035999999999996 4.25 -1 0 0 I I #
vertex $-1 $284 $352 #
straight-curve $-1 0 1.5035999999999996 -4.25 1 0 0 I I #
coedge $-1 $222 $221 $335 $353 reversed $223 $-1 #
coedge $-1 $270 $333 $221 $300 forward $334 $-1 #
edge $-1 $354 -1.5036000000000005 $146 0 $221 $297 forward 7 unknown #
face $-1 $-1 $327 $21 $-1 $194 reversed single #
vertex $-1 $226 $355 #
convexity-sys-attrib $-1 $-1 $-1 $230 #
vertex $-1 $230 $356 #
ellipse-curve $-1 0 0 -1.7499999999999982 0 -6.1230317691118863e-017 -1 1.5036 0 0 1 I I #
point $-1 -1.5036 1.8413181136073264e-016 4.2500000000000018 #
point $-1 1 -8.8817841970012523e-016 -1.7500000000000009 #
point $-1 13.467600000000001 7.5801000000000007 5 #
straight-curve $-1 -1.5036000000000005 1.5035999999999996 0 0 0 -1 I I #
point $-1 -1.5036000000000005 -1.5035999999999996 -4.25 #
straight-curve $-1 -1.5036000000000005 0 -4.25 0 1 0 I I #
point $-1 -1.5036000000000005 1.5035999999999996 -4.25 #
face $-1 $279 $357 $21 $-1 $342 forward single #
loop $-1 $-1 $274 $256 #
plane-surface $-1 -1.5036000000000005 0 0 1 0 0 0 0 -1 forward_v I I I I #
coedge $-1 $260 $259 $358 $359 reversed $131 $-1 #
coedge $-1 $360 $361 $362 $264 forward $363 $-1 #
coedge $-1 $319 $261 $361 $331 forward $320 $-1 #
coedge $-1 $261 $318 $337 $364 forward $320 $-1 #
loop $-1 $-1 $261 $365 #
coedge $-1 $366 $367 $263 $322 forward $368 $-1 #
edge $-1 $217 0 $323 1.5707963267948966 $321 $207 forward 7 unknown #
vertex $-1 $369 $370 #
straight-curve $-1 0 -1.5035999999999996 4.25 0 0 1 I I #
coedge $-1 $371 $265 $367 $372 reversed $327 $-1 #
coedge $-1 $265 $371 $266 $286 reversed $327 $-1 #
loop $-1 $-1 $265 $301 #
coedge $-1 $373 $362 $267 $329 reversed $374 $-1 #
edge $-1 $347 -1.5036000000000005 $269 0 $328 $375 forward 7 unknown #
face $-1 $285 $268 $21 $-1 $346 reversed single #
edge $-1 $269 0 $376 1.5036000000000005 $361 $375 forward 7 unknown #
point $-1 0 -1.5035999999999996 -4.25 #
coedge $-1 $299 $270 $273 $336 forward $334 $-1 #
loop $-1 $-1 $270 $345 #
coedge $-1 $273 $272 $298 $353 forward $275 $-1 #
edge $-1 $276 0 $354 1.5035999999999996 $273 $377 forward 7 unknown #
coedge $-1 $378 $274 $319 $364 reversed $314 $-1 #
coedge $-1 $274 $378 $379 $280 reversed $314 $-1 #
face $-1 $224 $275 $21 $-1 $315 reversed single #
point $-1 -1.5036000000000005 0 -4.25 #
straight-curve $-1 -1.5036000000000005 0 4.25 0 -1 0 I I #
plane-surface $-1 0 0 4.25 0 0 1 1 0 0 forward_v I I I I #
vertex $-1 $280 $380 #
straight-curve $-1 1.5036000000000005 0 -4.25 0 -1 0 I I #
face $-1 $381 $334 $21 $-1 $346 reversed single #
plane-surface $-1 0 0 -4.25 0 0 1 1 0 0 forward_v I I I I #
vertex $-1 $382 $383 #
straight-curve $-1 1.5036000000000005 0 4.25 0 1 0 I I #
face $-1 $384 $368 $21 $-1 $342 forward single #
straight-curve $-1 1.5036000000000005 1.5035999999999996 0 0 0 -1 I I #
point $-1 1.5036000000000005 1.5035999999999996 4.25 #
point $-1 1.5036000000000005 1.5035999999999996 -4.25 #
edge $-1 $302 -4.25 $354 4.25 $298 $385 forward 7 unknown #
vertex $-1 $300 $386 #
point $-1 -1.5036000000000005 1.5035999999999996 4.25 #
point $-1 -1.5036 1.8413181136073264e-016 -1.7499999999999982 #
loop $-1 $-1 $358 $313 #
coedge $-1 $379 $387 $316 $359 forward $357 $-1 #
edge $-1 $323 1.5707963267948966 $206 3.1415926535897931 $358 $207 forward 7 unknown #
coedge $-1 $388 $317 $387 $389 reversed $363 $-1 #
coedge $-1 $317 $388 $318 $331 reversed $363 $-1 #
coedge $-1 $328 $390 $196 $264 reversed $374 $-1 #
loop $-1 $-1 $317 $381 #
edge $-1 $376 -1.5035999999999996 $276 0 $337 $377 forward 7 unknown #
face $-1 $330 $320 $21 $-1 $346 reversed single #
coedge $-1 $367 $321 $390 $369 forward $368 $-1 #
coedge $-1 $321 $366 $325 $372 forward $368 $-1 #
loop $-1 $-1 $321 $349 #
edge $-1 $323 0 $391 1.5036000000000005 $390 $392 forward 7 unknown #
point $-1 0 -1.5035999999999996 4.25 #
coedge $-1 $326 $325 $373 $382 forward $327 $-1 #
edge $-1 $391 -1.5035999999999996 $217 0 $325 $348 forward 7 unknown #
coedge $-1 $390 $328 $371 $382 reversed $374 $-1 #
loop $-1 $-1 $362 $384 #
straight-curve $-1 0 -1.5035999999999996 -4.25 -1 0 0 I I #
vertex $-1 $364 $393 #
straight-curve $-1 -1.5036000000000005 0 -4.25 0 1 0 I I #
coedge $-1 $338 $337 $388 $394 reversed $314 $-1 #
coedge $-1 $387 $358 $338 $280 forward $357 $-1 #
point $-1 -1.5036000000000005 -1.5035999999999996 4.25 #
face $-1 $339 $363 $21 $-1 $395 reversed single #
edge $-1 $391 -4.25 $347 4.25 $371 $396 forward 7 unknown #
point $-1 1.5036000000000005 -1.5035999999999996 -4.25 #
face $-1 $365 $374 $21 $-1 $395 reversed single #
straight-curve $-1 -1.5036000000000005 1.5035999999999996 0 0 0 -1 I I #
point $-1 -1.5036000000000005 1.5035999999999996 -4.25 #
coedge $-1 $358 $379 $360 $389 forward $357 $-1 #
coedge $-1 $361 $360 $378 $394 forward $363 $-1 #
edge $-1 $343 -1.5036000000000005 $323 0 $360 $392 forward 7 unknown #
coedge $-1 $362 $373 $366 $369 reversed $374 $-1 #
vertex $-1 $372 $397 #
straight-curve $-1 0 -1.5035999999999996 4.25 1 0 0 I I #
point $-1 -1.5036000000000005 -1.5035999999999996 -4.25 #
edge $-1 $343 -4.25 $376 4.25 $378 $398 forward 7 unknown #
plane-surface $-1 0 -1.5035999999999996 0 0 1 0 0 0 1 forward_v I I I I #
straight-curve $-1 1.5036000000000005 -1.5035999999999996 0 0 0 -1 I I #
point $-1 1.5036000000000005 -1.5035999999999996 4.25 #
straight-curve $-1 -1.5036000000000005 -1.5035999999999996 0 0 0 -1 I I #
End-of-ACIS-data 