106 0 1 0           
body $-1 $1 $-1 $-1 #
lump $-1 $-1 $2 $0 #
shell $-1 $-1 $-1 $3 $1 #
face $-1 $4 $5 $2 $-1 $6 reversed single #
face $-1 $7 $8 $2 $-1 $9 forward single #
loop $-1 $-1 $10 $3 #
plane-surface $-1 11.964000000000002 7.5801000000000034 13.5 0 0 -1 -1 0 0 0 I I I I #
face $-1 $11 $12 $2 $-1 $13 forward single #
loop $-1 $14 $15 $4 #
cone-surface $-1 11.964 7.5800999999999998 10 0 0 1 1 0 0 1 I I 0 1 0 I I I I #
coedge $-1 $10 $10 $15 $16 1 $5 $-1 #
face $-1 $17 $18 $2 $-1 $19 forward single #
loop $-1 $20 $21 $7 #
cone-surface $-1 11.964 7.5801000000000007 6.25 0 -6.1230317691118863e-017 -1 1.5036 0 0 1 I I 0 1 0 I I I I #
loop $-1 $-1 $22 $4 #
coedge $-1 $15 $15 $10 $16 0 $8 $-1 #
edge $-1 $23 $23 $15 $24 0 #
face $-1 $-1 $25 $2 $-1 $26 forward single #
loop $-1 $27 $28 $11 #
plane-surface $-1 11.964 7.5801000000000007 7.5 0 6.1230317691118863e-017 1 -1 0 0 0 I I I I #
loop $-1 $-1 $29 $7 #
coedge $-1 $21 $21 $30 $31 1 $12 $-1 #
coedge $-1 $22 $22 $28 $32 1 $14 $-1 #
vertex $-1 $16 $33 #
ellipse-curve $-1 11.964 7.5801000000000007 13.5 0 0 -1 1 0 0 1 I I #
loop $-1 $-1 $34 $17 #
plane-surface $-1 11.964 7.5801000000000007 5 0 -6.1230317691118863e-017 -1 1 0 0 0 I I I I #
loop $-1 $-1 $30 $11 #
coedge $-1 $28 $28 $22 $32 0 $18 $-1 #
coedge $-1 $29 $29 $34 $35 1 $20 $-1 #
coedge $-1 $30 $30 $21 $31 0 $27 $-1 #
edge $-1 $36 $36 $30 $37 0 #
edge $-1 $38 $38 $28 $39 0 #
point $-1 12.964 7.5801000000000007 13.5 #
coedge $-1 $34 $34 $29 $35 0 $25 $-1 #
edge $-1 $40 $40 $34 $41 0 #
vertex $-1 $31 $42 #
ellipse-curve $-1 11.964 7.5801000000000007 7.5 0 6.1230317691118863e-017 1 1.5036 0 0 1 I I #
vertex $-1 $32 $43 #
ellipse-curve $-1 11.964 7.5800999999999998 7.5 0 -6.1230317691118863e-017 -1 1 0 0 1 I I #
vertex $-1 $35 $44 #
ellipse-curve $-1 11.964 7.5801000000000007 5 0 -6.1230317691118863e-017 -1 1.5036 0 0 1 I I #
point $-1 13.467600000000001 7.5801000000000007 7.5 #
point $-1 12.964 7.5800999999999998 7.4999999999999991 #
point $-1 13.467600000000001 7.5801000000000007 5 #
End-of-ACIS-data 