600 0 1 0           
83 GICL ACIS Healer - Source: /gicl/data5/repository/new/Scanner/pivot_screw.sat - 6 0 18 ACIS 6.0.3 Solaris 24 Sat Apr 13 20:36:12 2002 
1 9.999999999999999547e-07 1.000000000000000036e-10 
body $-1 $1 $-1 $-1 #
lump $-1 $-1 $2 $0 #
shell $-1 $-1 $-1 $3 $-1 $1 #
face $-1 $4 $5 $2 $-1 $6 reversed single #
face $-1 $7 $8 $2 $-1 $9 forward single #
loop $-1 $-1 $10 $3 #
plane-surface $-1 11.96400000000000219 7.580100000000003391 13.5 0 0 -1 -1 0 0 forward_v I I I I #
face $-1 $11 $12 $2 $-1 $13 forward single #
loop $-1 $14 $15 $4 #
cone-surface $-1 11.96400000000000041 7.580099999999999838 10 0 0 1 1 0 0 1 I I 0 1 1 forward I I I I #
coedge $-1 $10 $10 $15 $16 reversed $5 $-1 #
face $-1 $17 $18 $2 $-1 $19 forward single #
loop $-1 $20 $21 $7 #
cone-surface $-1 11.96400000000000041 7.580100000000000726 6.25 0 -6.123031769111886291e-17 -1 1.503600000000000048 0 0 1 I I 0 1 1.503600000000000048 forward I I I I #
loop $-1 $-1 $22 $4 #
coedge $-1 $15 $15 $10 $16 forward $8 $-1 #
edge $-1 $23 0 $23 6.283185307179586232 $15 $24 forward 7 unknown #
face $-1 $-1 $25 $2 $-1 $26 forward single #
loop $-1 $27 $28 $11 #
plane-surface $-1 11.96400000000000041 7.580100000000000726 7.5 0 6.123031769111886291e-17 1 -1 0 0 forward_v I I I I #
loop $-1 $-1 $29 $7 #
coedge $-1 $21 $21 $30 $31 reversed $12 $-1 #
coedge $-1 $22 $22 $28 $32 reversed $14 $-1 #
vertex $-1 $16 $33 #
ellipse-curve $-1 11.96400000000000041 7.580100000000000726 13.5 0 0 -1 1 0 0 1 I I #
loop $-1 $-1 $34 $17 #
plane-surface $-1 11.96400000000000041 7.580100000000000726 5 0 -6.123031769111886291e-17 -1 1 0 0 forward_v I I I I #
loop $-1 $-1 $30 $11 #
coedge $-1 $28 $28 $22 $32 forward $18 $-1 #
coedge $-1 $29 $29 $34 $35 reversed $20 $-1 #
coedge $-1 $30 $30 $21 $31 forward $27 $-1 #
edge $-1 $36 0 $36 6.283185307179586232 $30 $37 forward 7 unknown #
edge $-1 $38 -5.43834468046345724e-32 $38 6.283185307179586232 $28 $39 forward 7 unknown #
point $-1 12.96400000000000041 7.580100000000000726 13.5 #
coedge $-1 $34 $34 $29 $35 forward $25 $-1 #
edge $-1 $40 0 $40 6.283185307179586232 $34 $41 forward 7 unknown #
vertex $-1 $31 $42 #
ellipse-curve $-1 11.96400000000000041 7.580100000000000726 7.5 0 6.123031769111886291e-17 1 1.503600000000000048 0 0 1 I I #
vertex $-1 $32 $43 #
ellipse-curve $-1 11.96400000000000041 7.580099999999999838 7.5 0 -6.123031769111886291e-17 -1 1 0 0 1 I I #
vertex $-1 $35 $44 #
ellipse-curve $-1 11.96400000000000041 7.580100000000000726 5 0 -6.123031769111886291e-17 -1 1.503600000000000048 0 0 1 I I #
point $-1 13.4676000000000009 7.580100000000000726 7.5 #
point $-1 12.96400000000000041 7.580099999999999838 7.499999999999999112 #
point $-1 13.4676000000000009 7.580100000000000726 5 #
End-of-ACIS-data 