600 0 1 0           
118 GICL Pro/E ACIS Translator - Source: f:/data5/repository/PTC/V20/web_demos/models/sketchedtool/rout_work2.prt.17 - 6 0 13 ACIS 6.0.3 NT 24 Thu Apr 04 13:12:13 2002 
1 9.9999999999999995e-007 1e-010 
body $-1 $1 $-1 $2 #
lump $-1 $-1 $3 $0 #
transform $-1 1 0 0 0 1 0 0 0 1 0 0 0 25.399999999999999 no_rotate no_reflect no_shear #
shell $-1 $-1 $-1 $4 $-1 $1 #
face $-1 $5 $6 $3 $-1 $7 reversed single #
face $-1 $8 $9 $3 $-1 $10 forward single #
loop $-1 $-1 $11 $4 #
plane-surface $-1 0 0 0 0 0 1 1 0 0 forward_v I I I I #
face $-1 $12 $13 $3 $-1 $14 forward single #
loop $-1 $-1 $15 $5 #
plane-surface $-1 0 0 0 0 -1 0 1 0 0 forward_v I I I I #
coedge $-1 $16 $17 $18 $19 reversed $6 $-1 #
face $-1 $20 $21 $3 $-1 $22 reversed single #
loop $-1 $-1 $23 $8 #
plane-surface $-1 0 0 5 0 0 1 1 0 0 forward_v I I I I #
coedge $-1 $24 $25 $26 $27 reversed $9 $-1 #
coedge $-1 $28 $11 $29 $30 forward $6 $-1 #
coedge $-1 $11 $31 $32 $33 forward $6 $-1 #
coedge $-1 $25 $24 $11 $19 forward $9 $-1 #
edge $-1 $34 0 $35 34.789968897469777 $11 $36 forward 7 unknown #
face $-1 $37 $38 $3 $-1 $39 forward single #
loop $-1 $-1 $40 $12 #
spline-surface $-1 forward { sweepsur angled 
	intcurve forward { exactcur full nurbs 3 open 7 
	0 3 0.22970472293472524 2 0.36860175414508051 2 0.59605380518951612 2 0.75076113125075772 2 
	0.85268111008949143 2 1 3 
	-1.1102230246251565e-015 20 0 1 
	7.2143910262750293 27.134427267987341 0 1 
	9.7920610027176753 24.064324604382872 0 1 
	13.424953932309679 18.031324372295511 0 1 
	14.679195943755776 15.505843979112683 0 1 
	20.385224085317812 13.652544037393351 0 1 
	26.365806725182868 17.389981442277112 0 1 
	30.423333274865826 13.522807005370648 0 1 
	30.416314139878065 9.1633659445421642 0 1 
	33.719240228186763 6.9360139591100971 0 1 
	35.898228508934366 7.3606804711781475 0 1 
	40.406256312480508 7.4505481019705826 0 1 
	42.369792491920975 6.6931956085802877 0 1 
	40 -4.8849813083506888e-015 0 1 
	0 
	null_surface 
	null_surface 
	nullbs 
	nullbs 
	I I 
	0 
	0 
	4 0.22970472293472524 0.36860175414508051 0.59605380518951612 0.75076113125075772 
	F 1 F 0 } I I 
	straight 0 0 0 0 0 1 I I 
	angled 
	0 0 1 
	0 0 0 
	1 0 0 
	0 1 0 
	0 0 1 
	0 5 
	0 0 10 VEC(1,0,0) 
	0 
	1 0 
	0 
	55 VEC(0.57735026918963,0.57735026918963,0.57735026918963) 
	0 
	full nubs 3 3 open open none none 23 2 
	0.010677465189755807 3 0.071345350228438312 2 0.1320132352671208 2 0.19268112030580331 1 0.25334900534448579 1 
	0.31401689038316827 1 0.34435083290250951 1 0.36710128979201545 1 0.43535266046053323 2 0.526354488018557 2 
	0.58702237305723948 1 0.60218934431691018 2 0.61735631557658077 2 0.67802420061526325 1 0.73869208565394573 1 
	0.75385905691361632 2 0.76902602817328702 1 0.79935997069262821 1 0.8600278557313108 2 0.92069574076999328 2 
	0.95102968328933457 2 0.96619665454900516 1 0.98136362580867575 3 
	0 3 5 3 
	0.97642744949294435 20.929706688082288 0 
	2.769946525862764 22.567746536790622 0 
	4.2554449967335159 23.52789531150118 0 
	6.764356337003413 24.431271587551588 0 
	7.7900412330277424 24.379499184029232 0 
	9.5394004239548238 23.611361519384122 0 
	10.989634110283514 22.184285733901842 0 
	12.739368984082798 19.112854787749121 0 
	14.251934925024397 16.65069336537255 0 
	15.658538321866436 15.34438700195005 0 
	17.401685569839223 14.436565257403789 0 
	19.10239416754596 14.543464840663567 0 
	22.222885985264728 15.08820138044176 0 
	24.114307872354733 15.668487566659882 0 
	26.805401114542942 15.916715607815329 0 
	27.99876749346879 15.803676696588006 0 
	28.819949386759916 15.063720951375263 0 
	29.117295465798584 14.714779427877675 0 
	29.251767606226473 14.516121706435275 0 
	29.867789788908176 13.424943867891697 0 
	30.501793235358367 11.06793782198822 0 
	31.40962953598882 8.6112048160782031 0 
	32.326455036953426 7.8633727597778025 0 
	32.732471015956328 7.6236835436830557 0 
	33.396096020001508 7.3468228006935048 0 
	35.247980657064574 7.1687921854759056 0 
	37.070088911238308 7.4156560037677783 0 
	39.199187156191414 7.3817320582485584 0 
	40.11528453431881 7.1854597622737746 0 
	40.882134598494893 6.0798154451638338 0 
	41.038031481017569 5.5780601569747148 0 
	41.071269894125358 4.5538387966732943 0 
	41.0280632546555 3.7825290112465426 0 
	40.835492055628812 2.8080851737927466 0 
	40.698674493544104 2.2655398204355626 0 
	0.97642744949294435 20.929706688082288 1.6666666666647245 
	2.769946525862764 22.567746536790622 1.6666666666647245 
	4.2554449967335159 23.52789531150118 1.6666666666647245 
	6.764356337003413 24.431271587551588 1.6666666666647245 
	7.7900412330277424 24.379499184029232 1.6666666666647245 
	9.5394004239548238 23.611361519384122 1.6666666666647245 
	10.989634110283514 22.184285733901842 1.6666666666647245 
	12.739368984082798 19.112854787749121 1.6666666666647245 
	14.251934925024397 16.65069336537255 1.6666666666647245 
	15.658538321866436 15.34438700195005 1.6666666666647245 
	17.401685569839223 14.436565257403789 1.6666666666647245 
	19.10239416754596 14.543464840663567 1.6666666666647245 
	22.222885985264728 15.08820138044176 1.6666666666647245 
	24.114307872354733 15.668487566659882 1.6666666666647245 
	26.805401114542942 15.916715607815329 1.6666666666647245 
	27.99876749346879 15.803676696588006 1.6666666666647245 
	28.819949386759916 15.063720951375263 1.6666666666647245 
	29.117295465798584 14.714779427877675 1.6666666666647245 
	29.251767606226473 14.516121706435275 1.6666666666647245 
	29.867789788908176 13.424943867891697 1.6666666666647245 
	30.501793235358367 11.06793782198822 1.6666666666647245 
	31.40962953598882 8.6112048160782031 1.6666666666647245 
	32.326455036953426 7.8633727597778025 1.6666666666647245 
	32.732471015956328 7.6236835436830557 1.6666666666647245 
	33.396096020001508 7.3468228006935048 1.6666666666647245 
	35.247980657064574 7.1687921854759056 1.6666666666647245 
	37.070088911238308 7.4156560037677783 1.6666666666647245 
	39.199187156191414 7.3817320582485584 1.6666666666647245 
	40.11528453431881 7.1854597622737746 1.6666666666647245 
	40.882134598494893 6.0798154451638338 1.6666666666647245 
	41.038031481017569 5.5780601569747148 1.6666666666647245 
	41.071269894125358 4.5538387966732943 1.6666666666647245 
	41.0280632546555 3.7825290112465426 1.6666666666647245 
	40.835492055628812 2.8080851737927466 1.6666666666647245 
	40.698674493544104 2.2655398204355626 1.6666666666647245 
	0.97642744949294435 20.929706688082288 3.3333333333352755 
	2.769946525862764 22.567746536790622 3.3333333333352755 
	4.2554449967335159 23.52789531150118 3.3333333333352755 
	6.764356337003413 24.431271587551588 3.3333333333352755 
	7.7900412330277424 24.379499184029232 3.3333333333352755 
	9.5394004239548238 23.611361519384122 3.3333333333352755 
	10.989634110283514 22.184285733901842 3.3333333333352755 
	12.739368984082798 19.112854787749121 3.3333333333352755 
	14.251934925024397 16.65069336537255 3.3333333333352755 
	15.658538321866436 15.34438700195005 3.3333333333352755 
	17.401685569839223 14.436565257403789 3.3333333333352755 
	19.10239416754596 14.543464840663567 3.3333333333352755 
	22.222885985264728 15.08820138044176 3.3333333333352755 
	24.114307872354733 15.668487566659882 3.3333333333352755 
	26.805401114542942 15.916715607815329 3.3333333333352755 
	27.99876749346879 15.803676696588006 3.3333333333352755 
	28.819949386759916 15.063720951375263 3.3333333333352755 
	29.117295465798584 14.714779427877675 3.3333333333352755 
	29.251767606226473 14.516121706435275 3.3333333333352755 
	29.867789788908176 13.424943867891697 3.3333333333352755 
	30.501793235358367 11.06793782198822 3.3333333333352755 
	31.40962953598882 8.6112048160782031 3.3333333333352755 
	32.326455036953426 7.8633727597778025 3.3333333333352755 
	32.732471015956328 7.6236835436830557 3.3333333333352755 
	33.396096020001508 7.3468228006935048 3.3333333333352755 
	35.247980657064574 7.1687921854759056 3.3333333333352755 
	37.070088911238308 7.4156560037677783 3.3333333333352755 
	39.199187156191414 7.3817320582485584 3.3333333333352755 
	40.11528453431881 7.1854597622737746 3.3333333333352755 
	40.882134598494893 6.0798154451638338 3.3333333333352755 
	41.038031481017569 5.5780601569747148 3.3333333333352755 
	41.071269894125358 4.5538387966732943 3.3333333333352755 
	41.0280632546555 3.7825290112465426 3.3333333333352755 
	40.835492055628812 2.8080851737927466 3.3333333333352755 
	40.698674493544104 2.2655398204355626 3.3333333333352755 
	0.97642744949294435 20.929706688082288 5 
	2.769946525862764 22.567746536790622 5 
	4.2554449967335159 23.52789531150118 5 
	6.764356337003413 24.431271587551588 5 
	7.7900412330277424 24.379499184029232 5 
	9.5394004239548238 23.611361519384122 5 
	10.989634110283514 22.184285733901842 5 
	12.739368984082798 19.112854787749121 5 
	14.251934925024397 16.65069336537255 5 
	15.658538321866436 15.34438700195005 5 
	17.401685569839223 14.436565257403789 5 
	19.10239416754596 14.543464840663567 5 
	22.222885985264728 15.08820138044176 5 
	24.114307872354733 15.668487566659882 5 
	26.805401114542942 15.916715607815329 5 
	27.99876749346879 15.803676696588006 5 
	28.819949386759916 15.063720951375263 5 
	29.117295465798584 14.714779427877675 5 
	29.251767606226473 14.516121706435275 5 
	29.867789788908176 13.424943867891697 5 
	30.501793235358367 11.06793782198822 5 
	31.40962953598882 8.6112048160782031 5 
	32.326455036953426 7.8633727597778025 5 
	32.732471015956328 7.6236835436830557 5 
	33.396096020001508 7.3468228006935048 5 
	35.247980657064574 7.1687921854759056 5 
	37.070088911238308 7.4156560037677783 5 
	39.199187156191414 7.3817320582485584 5 
	40.11528453431881 7.1854597622737746 5 
	40.882134598494893 6.0798154451638338 5 
	41.038031481017569 5.5780601569747148 5 
	41.071269894125358 4.5538387966732943 5 
	41.0280632546555 3.7825290112465426 5 
	40.835492055628812 2.8080851737927466 5 
	40.698674493544104 2.2655398204355626 5 
	0.001 
	0 
	0 
	0 
	0 
	0 
	0 
	} I I I I #
tcoedge-coedge $-1 $41 $42 $43 $44 forward $13 $45 0 0.99999999999999989 #
coedge $-1 $18 $15 $46 $47 forward $9 $-1 #
coedge $-1 $15 $18 $48 $49 reversed $9 $-1 #
coedge $-1 $42 $50 $15 $27 forward $13 $-1 #
edge $-1 $51 0 $52 34.789968897469777 $26 $53 forward 7 unknown #
coedge $-1 $54 $16 $55 $56 reversed $6 $-1 #
coedge $-1 $46 $57 $16 $30 reversed $58 $-1 #
edge $-1 $34 0 $59 1.5707963267948966 $16 $60 forward 7 unknown #
tcoedge-coedge $-1 $17 $54 $40 $61 reversed $6 $62 -0.99999999999999989 0 #
coedge $-1 $63 $48 $17 $33 reversed $64 $-1 #
edge $-1 $65 0 $35 1.3234622264669134 $17 $66 forward 7 unknown #
vertex $-1 $30 $67 #
vertex $-1 $33 $68 #
straight-curve $-1 3 0 0 1 0 0 I I #
face $-1 $69 $70 $3 $-1 $71 forward single #
loop $-1 $-1 $72 $20 #
cone-surface $-1 3 18.714948432011347 5.0790535044510108 0 0 -1 -2.0235725505070548 2.2147582560709367 0 1 I I 0 1 3.0000000000000004 forward I I I I #
tcoedge-coedge $-1 $73 $74 $31 $61 forward $21 $75 0 0.99999999999999989 #
coedge $-1 $76 $23 $72 $77 forward $13 $-1 #
coedge $-1 $23 $26 $78 $79 forward $13 $-1 #
tcoedge-coedge $-1 $74 $73 $23 $44 reversed $21 $80 -0.99999999999999989 0 #
tedge-edge $-1 $81 0 $82 0.99999999999999989 $23 $83 forward 7 unknown 0.00029341825650412446 #
pcurve $-1 0 forward { exppc nurbs 3 open 58 
	0 3 0.017590888916546164 1 0.035139136248135611 1 0.052641097546151087 1 0.070091227303199083 1 
	0.087499428012118158 1 0.10488553655570529 1 0.1222690639602905 1 0.13966934302831724 1 0.15710141594645757 1 
	0.17457697435768499 1 0.19210761851331745 1 0.20968469789320951 1 0.2272627505658025 1 0.24480423984698088 1 
	0.26229757462617942 1 0.27974690708785493 1 0.29717325064034239 1 0.31460585765087934 1 0.33207226280937141 1 
	0.34958806149978233 1 0.36716471916553145 1 0.38478502938247378 1 0.40239175631851165 1 0.41994572631647331 1 
	0.43744221149208079 1 0.45488903996676339 1 0.47230789786317545 1 0.48972861125865913 1 0.50717694004280822 1 
	0.52467134208416244 1 0.54222475126111791 1 0.55984855730212502 1 0.57755250418066362 1 0.59529616635590943 1 
	0.61299735275518752 1 0.63062596114421365 1 0.64818710642562605 1 0.66569413496406227 1 0.68318538218601021 1 
	0.70070366286352537 1 0.71827508548854035 1 0.73591225240404201 1 0.75362422615137314 1 0.77138009555491105 1 
	0.78910267029686609 1 0.80675550406278129 1 0.82434085881361696 1 0.84186872863503504 1 0.85935640242416889 1 
	0.8768263344222903 1 0.89430401396172665 1 0.91181544713733209 1 0.92937655489372362 1 0.94698271909385756 1 
	0.96462158741893833 1 0.98229277208440458 1 0.99999999999999989 3 
	40.698674493544118 2.2655398204355861 1 
	40.794726369691034 2.6459370665159283 1.0000000000000002 
	40.949979569900783 3.3660072705326267 0.99999999999999978 
	41.07052216064875 4.3351430457343225 1 
	41.065211215812553 5.1696545648256249 1 
	40.944112957754143 5.8185088620775414 0.99999999999999989 
	40.741798550376792 6.2997293223009603 1 
	40.473952357410575 6.6657903172958042 1 
	40.134188339036818 6.9520312476996935 1 
	39.68781551558569 7.1778617577658554 1.0000000000000002 
	39.105212876560834 7.3329333259217639 0.99999999999999989 
	38.372232140649686 7.4066774671308524 1 
	37.453023879333266 7.3984674858711932 1 
	36.362471486336126 7.3258118409201947 1 
	35.277447480064289 7.258937935020632 1.0000000000000002 
	34.320875882697599 7.2617975807366788 1 
	33.526478985898201 7.3579571971271065 1.0000000000000002 
	32.901614629711304 7.5397802385214687 0.99999999999999978 
	32.390662133108357 7.8046523565288348 1.0000000000000002 
	31.939194649966833 8.1933911770562187 1 
	31.50780724497913 8.7595833720415399 0.99999999999999989 
	31.106555042537568 9.5249771466507056 0.99999999999999978 
	30.724787502476278 10.524813902733461 1 
	30.359460070270917 11.706935945618175 0.99999999999999967 
	30.011205514897242 12.832785461579718 1 
	29.661418701698821 13.760291972353677 1.0000000000000002 
	29.290957566656562 14.479040162247292 1 
	28.904300507072318 14.993758413434646 1 
	28.486307402972567 15.352394985228347 1.0000000000000002 
	27.992847713746144 15.616063043731215 1.0000000000000002 
	27.367452279290475 15.797863186188067 1 
	26.571560282198135 15.874106196515497 1 
	25.585276922719892 15.821764869458972 0.99999999999999989 
	24.39712528365585 15.635466250732998 1.0000000000000002 
	22.946195920571512 15.315481450006022 0.99999999999999978 
	21.344459501192329 14.94105518956667 1.0000000000000002 
	19.900842590616591 14.670803047286764 1 
	18.681640087493999 14.555729063144245 0.99999999999999989 
	17.667745195410177 14.597446637140964 0.99999999999999989 
	16.861339539224552 14.770076335123315 1 
	16.150678732242302 15.074902848390657 1 
	15.42818235295541 15.559351045125789 1 
	14.673601866921143 16.284945132655295 1 
	13.903363794752877 17.267897875839417 0.99999999999999978 
	13.093119985175036 18.53652404915919 0.99999999999999978 
	12.250757466117442 19.990252945224331 1.0000000000000002 
	11.448865749837212 21.306318319694626 1 
	10.688362607754391 22.36305596020863 0.99999999999999989 
	9.9482171883932757 23.163566645180939 1.0000000000000002 
	9.2347595545177921 23.718549464778224 1 
	8.5456889500426971 24.071385337541184 0.99999999999999978 
	7.8567011134802831 24.266896858605506 1 
	7.1194209955884951 24.326091085812784 1 
	6.2730252571399401 24.229117952755352 0.99999999999999989 
	5.2960455666187878 23.92855471458126 1 
	4.2452936834665751 23.417805798236675 1.0000000000000002 
	3.181353511361416 22.741931291953321 0.99999999999999967 
	2.0976017712377137 21.918367790287071 1.0000000000000004 
	1.3539997283455867 21.274685602699385 1 
	0.97642744949293747 20.929706688082284 1 
	0 
	plane 0 0 5 0 0 1 1 0 0 forward_v I I I I 
	} 0 0 #
coedge $-1 $84 $29 $24 $47 reversed $58 $-1 #
edge $-1 $51 0 $34 5 $24 $85 forward 7 unknown #
coedge $-1 $32 $78 $25 $49 forward $64 $-1 #
edge $-1 $52 0 $35 5 $25 $86 forward 7 unknown #
coedge $-1 $26 $76 $84 $87 forward $13 $-1 #
vertex $-1 $27 $88 #
vertex $-1 $79 $89 #
straight-curve $-1 3 0 5 1 0 0 I I #
coedge $-1 $31 $28 $90 $91 forward $6 $-1 #
coedge $-1 $92 $93 $28 $56 forward $70 $-1 #
edge $-1 $94 -1.0658141036401503e-014 $59 15.714948432011347 $28 $95 forward 7 unknown #
coedge $-1 $29 $84 $92 $96 forward $58 $-1 #
loop $-1 $-1 $84 $69 #
vertex $-1 $56 $97 #
ellipse-curve $-1 3 3 0 0 0 -1 0 -3 0 1 I I #
tedge-edge $-1 $65 0 $98 0.99999999999999989 $31 $99 forward 7 unknown 0.00029341825650105167 #
pcurve $-1 0 forward { exppc nurbs 3 open 58 
	-0.99999999999999989 3 -0.98229277208440458 1 -0.96462158741893833 1 -0.94698271909385756 1 -0.92937655489372362 1 
	-0.91181544713733209 1 -0.89430401396172665 1 -0.8768263344222903 1 -0.85935640242416889 1 -0.84186872863503504 1 
	-0.82434085881361696 1 -0.80675550406278129 1 -0.78910267029686609 1 -0.77138009555491105 1 -0.75362422615137314 1 
	-0.73591225240404201 1 -0.71827508548854035 1 -0.70070366286352537 1 -0.68318538218601021 1 -0.66569413496406227 1 
	-0.64818710642562605 1 -0.63062596114421365 1 -0.61299735275518752 1 -0.59529616635590943 1 -0.57755250418066362 1 
	-0.55984855730212502 1 -0.54222475126111791 1 -0.52467134208416244 1 -0.50717694004280822 1 -0.48972861125865902 1 
	-0.4723078978631754 1 -0.45488903996676328 1 -0.43744221149208073 1 -0.41994572631647326 1 -0.4023917563185116 1 
	-0.38478502938247366 1 -0.36716471916553139 1 -0.34958806149978228 1 -0.33207226280937135 1 -0.31460585765087923 1 
	-0.29717325064034239 1 -0.27974690708785493 1 -0.26229757462617942 1 -0.24480423984698088 1 -0.2272627505658025 1 
	-0.20968469789320951 1 -0.19210761851331742 1 -0.17457697435768496 1 -0.15710141594645755 1 -0.13966934302831721 1 
	-0.12226906396029047 1 -0.10488553655570526 1 -0.087499428012118158 1 -0.070091227303199055 1 -0.052641097546151087 1 
	-0.035139136248135611 1 -0.017590888916546164 1 0 3 
	0.97642744949295945 20.929706688082298 1 
	1.3539997283455978 21.274685602699389 1 
	2.0976017712377075 21.918367790287078 1.0000000000000004 
	3.1813535113614164 22.741931291953318 0.99999999999999967 
	4.2452936834665751 23.417805798236667 1.0000000000000002 
	5.2960455666187878 23.92855471458126 1 
	6.2730252571399392 24.229117952755352 0.99999999999999989 
	7.1194209955884959 24.326091085812784 1 
	7.8567011134802849 24.266896858605509 1 
	8.5456889500426954 24.07138533754118 0.99999999999999978 
	9.2347595545177903 23.718549464778238 1 
	9.9482171883932757 23.163566645180936 1.0000000000000002 
	10.688362607754391 22.363055960208627 0.99999999999999989 
	11.448865749837211 21.30631831969464 1 
	12.250757466117445 19.990252945224324 1.0000000000000002 
	13.093119985175036 18.53652404915919 0.99999999999999978 
	13.903363794752877 17.267897875839413 0.99999999999999978 
	14.673601866921137 16.284945132655302 1 
	15.428182352955414 15.559351045125789 1 
	16.150678732242291 15.074902848390664 1 
	16.861339539224552 14.770076335123317 1 
	17.667745195410181 14.59744663714096 0.99999999999999989 
	18.681640087493999 14.555729063144247 0.99999999999999989 
	19.900842590616591 14.670803047286764 1 
	21.344459501192329 14.94105518956667 1.0000000000000002 
	22.946195920571508 15.315481450006018 0.99999999999999978 
	24.397125283655857 15.635466250733005 1 
	25.585276922719896 15.821764869458972 1.0000000000000002 
	26.571560282198114 15.874106196515491 1.0000000000000004 
	27.367452279290479 15.797863186188071 0.99999999999999989 
	27.992847713746144 15.616063043731215 1.0000000000000002 
	28.486307402972567 15.352394985228347 1.0000000000000002 
	28.904300507072318 14.993758413434646 1 
	29.290957566656562 14.479040162247292 1 
	29.661418701698821 13.760291972353677 1.0000000000000002 
	30.011205514897242 12.832785461579718 1 
	30.359460070270924 11.706935945618175 0.99999999999999967 
	30.724787502476268 10.524813902733461 1 
	31.106555042537572 9.5249771466507056 0.99999999999999978 
	31.507807244979119 8.759583372041547 0.99999999999999989 
	31.939194649966851 8.1933911770562116 0.99999999999999978 
	32.390662133108336 7.8046523565288393 1.0000000000000004 
	32.901614629711318 7.5397802385214678 0.99999999999999989 
	33.526478985898208 7.3579571971271038 1.0000000000000002 
	34.320875882697592 7.2617975807366788 1 
	35.277447480064303 7.258937935020632 1.0000000000000004 
	36.362471486336105 7.3258118409201947 0.99999999999999978 
	37.453023879333266 7.398467485871195 0.99999999999999978 
	38.3722321406497 7.4066774671308506 1.0000000000000002 
	39.105212876560806 7.3329333259217711 0.99999999999999967 
	39.687815515585704 7.1778617577658519 1.0000000000000004 
	40.134188339036797 6.9520312476996953 0.99999999999999967 
	40.47395235741061 6.6657903172957962 1 
	40.741798550376785 6.2997293223009656 1 
	40.944112957754157 5.8185088620775289 0.99999999999999978 
	41.065211215812553 5.1696545648256302 1 
	41.07052216064875 4.3351430457343216 1 
	40.949979569900783 3.3660072705326267 0.99999999999999978 
	40.794726369691034 2.6459370665159243 1.0000000000000002 
	40.698674493544118 2.2655398204355861 1 
	0 
	plane 0 0 0 0 0 -1 1 0 0 reverse_v I I I I 
	} 0 0 #
coedge $-1 $78 $32 $74 $100 reversed $64 $-1 #
loop $-1 $-1 $78 $101 #
tvertex-vertex $-1 $33 $102 2.3536728122053319e-014 #
ellipse-curve $-1 37.78996889746977 3.0000000000000089 0 0 0 -1 2.9087055960743484 -0.73446017956444631 0 1 I I #
point $-1 3 0 0 #
point $-1 37.789968897469777 0 0 #
face $-1 $101 $58 $3 $-1 $103 forward single #
loop $-1 $-1 $55 $37 #
plane-surface $-1 0 20 0 -1 0 0 0 -1 0 forward_v I I I I #
coedge $-1 $104 $105 $41 $77 reversed $38 $-1 #
coedge $-1 $43 $40 $104 $106 reversed $21 $107 #
coedge $-1 $40 $43 $63 $100 forward $21 $108 #
pcurve $-1 0 forward { exppc nurbs 3 open 58 
	0 3 0.017434445428224681 1 0.034878692266608544 1 0.052329441795157201 1 0.069774280135123407 1 
	0.087206888688263706 1 0.10463310651320645 1 0.1220642669916933 1 0.13951432889781692 1 0.15699096847678382 1 
	0.17449818818834059 1 0.19204329678243404 1 0.20961968069189732 1 0.22719420999034937 1 0.24474256164735719 1 
	0.26225731657289231 1 0.27973874515715569 1 0.29720256425600278 1 0.31467320171272883 1 0.33217140504384834 1 
	0.34970436660065668 1 0.36727897990134306 1 0.38488326818073232 1 0.40247781273200833 1 0.42003812326723305 1 
	0.43756222746159967 1 0.45505231068406449 1 0.47252297087539785 1 0.48999948229845958 1 0.50750307276681583 1 
	0.52504328496767871 1 0.54262274065320082 1 0.56024614630693081 1 0.57792296289067158 1 0.59562661047350596 1 
	0.61329985690207178 1 0.63092456051755752 1 0.64850405928369337 1 0.66604328164313242 1 0.68357369532077517 1 
	0.70113300948651258 1 0.71873911502658783 1 0.73639519902385464 1 0.75410669258206608 1 0.77185061992497805 1 
	0.78956851258311622 1 0.80723586268233127 1 0.82485490044451371 1 0.84242790797301914 1 0.8599624164527393 1 
	0.87747319160008352 1 0.8949789504150274 1 0.91249487305450327 1 0.93002057399627935 1 0.94754003131890296 1 
	0.9650413670094784 1 0.98252658616724353 1 0.99999999999999989 3 
	0.98136362580867575 0 1 
	0.97783130583868039 0 0.99999999999999989 
	0.97058473616123064 0 1.0000000000000004 
	0.95915569796392919 0 1 
	0.94721736833832959 0 1 
	0.93569615799861738 0 0.99999999999999989 
	0.92500141733024255 0 1 
	0.91469430884528802 0 0.99999999999999989 
	0.90415930781544895 0 1.0000000000000002 
	0.89247299675203451 0 0.99999999999999967 
	0.87923935606832782 0 0.99999999999999989 
	0.86437103408877269 0 1.0000000000000002 
	0.84725264205400919 0 1.0000000000000002 
	0.82800741766715569 0 0.99999999999999989 
	0.80903249968189317 0 1 
	0.79171188376634982 0 1 
	0.77629111577677057 0 0.99999999999999989 
	0.76293552656984409 0 1 
	0.75064905361465495 0 1 
	0.73795970784053211 0 1 
	0.7235132433334085 0 1.0000000000000002 
	0.707203025680743 0 1 
	0.68836725391805564 0 1 
	0.66748395038177322 0 0.99999999999999989 
	0.64737976042200007 0 0.99999999999999978 
	0.62945569886354769 0 1.0000000000000004 
	0.61352257663680287 0 0.99999999999999978 
	0.59965517717747197 0 1.0000000000000002 
	0.58700430756051547 0 0.99999999999999989 
	0.57397037034797171 0 1 
	0.55927996186699702 0 0.99999999999999956 
	0.54246576300659444 0 1.0000000000000002 
	0.52344352417994 0 0.99999999999999978 
	0.50211263949332452 0 1 
	0.47737069129992693 0 1 
	0.45067137602843521 0 0.99999999999999989 
	0.42626903424370582 0 1 
	0.40476185273270399 0 1.0000000000000004 
	0.38568262592880304 0 0.99999999999999978 
	0.36924857198885336 0 1 
	0.35336167935813728 0 1.0000000000000002 
	0.33560734892980215 0 0.99999999999999989 
	0.31504314970461106 0 1 
	0.29181099782073361 0 1 
	0.26518394375662774 0 0.99999999999999978 
	0.23620837920722479 0 1 
	0.20921389576454996 0 1 
	0.18530250746592858 0 1.0000000000000002 
	0.16403107581938783 0 0.99999999999999978 
	0.14542468443739018 0 1.0000000000000002 
	0.12905645660574003 0 1 
	0.1140669324645258 0 1 
	0.099342580627053687 0 1.0000000000000002 
	0.083886682903158899 0 0.99999999999999978 
	0.067694451470250216 0 1 
	0.05191317440327757 0 0.99999999999999978 
	0.037323400333399037 0 1.0000000000000004 
	0.023646292247819101 0 0.99999999999999978 
	0.014922772816994195 0 1 
	0.010677465189755807 0 1 
	0.001 
	spline forward { ref 0 } I I I I 
	} 0 0 #
coedge $-1 $50 $41 $109 $110 forward $13 $-1 #
edge $-1 $82 4.0461461341894561e-015 $111 0.83047633158595613 $41 $112 forward 7 unknown #
coedge $-1 $48 $63 $42 $79 reversed $64 $-1 #
edge $-1 $52 0 $81 1.3234622264669205 $42 $113 forward 7 unknown #
pcurve $-1 0 forward { exppc nurbs 3 open 58 
	-0.99999999999999989 3 -0.98252658616724386 1 -0.96504136700947873 1 -0.9475400313189033 1 -0.93002057399627969 1 
	-0.91249487305450361 1 -0.89497895041502773 1 -0.87747319160008386 1 -0.85996241645273963 1 -0.84242790797301947 1 
	-0.82485490044451404 1 -0.80723586268233161 1 -0.78956851258311656 1 -0.77185061992497839 1 -0.75410669258206642 1 
	-0.73639519902385486 1 -0.71873911502658805 1 -0.70113300948651269 1 -0.68357369532077539 1 -0.66604328164313253 1 
	-0.6485040592836937 1 -0.63092456051755774 1 -0.613299856902072 1 -0.59562661047350618 1 -0.57792296289067191 1 
	-0.56024614630693104 1 -0.54262274065320115 1 -0.52504328496767894 1 -0.50750307276681594 1 -0.48999948229845969 1 
	-0.47252297087539796 1 -0.4550523106840646 1 -0.43756222746159978 1 -0.42003812326723322 1 -0.40247781273200856 1 
	-0.38488326818073249 1 -0.36727897990134317 1 -0.34970436660065674 1 -0.33217140504384846 1 -0.31467320171272894 1 
	-0.29720256425600278 1 -0.27973874515715569 1 -0.26225731657289231 1 -0.24474256164735719 1 -0.22719420999034945 1 
	-0.20961968069189729 1 -0.19204329678243415 1 -0.17449818818834062 1 -0.15699096847678384 1 -0.1395143288978169 1 
	-0.12206426699169337 1 -0.10463310651320645 1 -0.087206888688263762 1 -0.069774280135123434 1 -0.052329441795157194 1 
	-0.034878692266608557 1 -0.017434445428224699 1 0 3 
	0.010677465189755809 5 1 
	0.014922772816994194 5 1 
	0.023646292247819087 5 0.99999999999999978 
	0.037323400333399037 4.9999999999999991 1.0000000000000004 
	0.051913174403277591 5 0.99999999999999978 
	0.067694451470250189 5 1 
	0.083886682903158927 5 0.99999999999999978 
	0.0993425806270537 5 1.0000000000000002 
	0.11406693246452576 5 1 
	0.12905645660574011 5 1 
	0.14542468443739037 5 1.0000000000000002 
	0.16403107581938775 4.9999999999999991 0.99999999999999978 
	0.18530250746592852 5.0000000000000009 1.0000000000000002 
	0.20921389576455013 4.9999999999999991 1 
	0.23620837920722465 5 1 
	0.26518394375662757 5 0.99999999999999978 
	0.29181099782073361 5.0000000000000009 1 
	0.31504314970461111 5 1 
	0.33560734892980204 5.0000000000000009 0.99999999999999989 
	0.35336167935813767 5 1.0000000000000002 
	0.36924857198885336 5 1 
	0.38568262592880292 5 0.99999999999999978 
	0.40476185273270399 4.9999999999999991 1.0000000000000004 
	0.42626903424370582 5.0000000000000009 1 
	0.45067137602843516 5.0000000000000009 0.99999999999999989 
	0.47737069129992715 5.0000000000000009 1 
	0.50211263949332452 5 1 
	0.52344352417993989 5 1 
	0.54246576300659455 5 1.0000000000000002 
	0.55927996186699691 5 0.99999999999999978 
	0.57397037034797171 5 1 
	0.58700430756051547 5.0000000000000009 0.99999999999999989 
	0.59965517717747197 4.9999999999999991 1.0000000000000002 
	0.61352257663680287 5.0000000000000009 0.99999999999999978 
	0.62945569886354769 4.9999999999999991 1.0000000000000004 
	0.64737976042200007 5 0.99999999999999978 
	0.66748395038177322 5.0000000000000009 0.99999999999999989 
	0.68836725391805564 5.0000000000000009 1 
	0.70720302568074322 5 1 
	0.7235132433334085 5 1 
	0.737959707840532 5 1.0000000000000002 
	0.75064905361465484 5 0.99999999999999967 
	0.76293552656984409 4.9999999999999991 1.0000000000000002 
	0.77629111577677057 5 0.99999999999999989 
	0.79171188376634982 5 1 
	0.80903249968189317 5 1 
	0.82800741766715613 5.0000000000000009 0.99999999999999989 
	0.84725264205400919 5 1.0000000000000002 
	0.86437103408877247 4.9999999999999991 1.0000000000000002 
	0.87923935606832859 5.0000000000000018 0.99999999999999967 
	0.89247299675203418 4.9999999999999991 1 
	0.90415930781544895 5.0000000000000009 1 
	0.91469430884528757 5 0.99999999999999989 
	0.9250014173302431 5.0000000000000009 0.99999999999999989 
	0.93569615799861694 4.9999999999999991 1 
	0.9472173683383297 5 1 
	0.95915569796392908 5.0000000000000009 0.99999999999999989 
	0.97058473616123064 4.9999999999999982 1.0000000000000004 
	0.97783130583868039 5.0000000000000018 0.99999999999999989 
	0.98136362580867575 5 1 
	0.001 
	spline forward { ref 0 } I I I I 
	} 0 0 #
tvertex-vertex $-1 $79 $114 2.3536728122053319e-014 #
tvertex-vertex $-1 $77 $115 1.1990922647076558e-014 #
intcurve-curve $-1 forward { exactcur full nurbs 3 open 58 
	0 3 0.017590888916546164 1 0.035139136248135611 1 0.052641097546151087 1 0.070091227303199083 1 
	0.087499428012118158 1 0.10488553655570529 1 0.1222690639602905 1 0.13966934302831724 1 0.15710141594645757 1 
	0.17457697435768499 1 0.19210761851331745 1 0.20968469789320951 1 0.2272627505658025 1 0.24480423984698088 1 
	0.26229757462617942 1 0.27974690708785493 1 0.29717325064034239 1 0.31460585765087934 1 0.33207226280937141 1 
	0.34958806149978233 1 0.36716471916553145 1 0.38478502938247378 1 0.40239175631851165 1 0.41994572631647331 1 
	0.43744221149208079 1 0.45488903996676339 1 0.47230789786317545 1 0.48972861125865913 1 0.50717694004280822 1 
	0.52467134208416244 1 0.54222475126111791 1 0.55984855730212502 1 0.57755250418066362 1 0.59529616635590943 1 
	0.61299735275518752 1 0.63062596114421365 1 0.64818710642562605 1 0.66569413496406227 1 0.68318538218601021 1 
	0.70070366286352537 1 0.71827508548854035 1 0.73591225240404201 1 0.75362422615137314 1 0.77138009555491105 1 
	0.78910267029686609 1 0.80675550406278129 1 0.82434085881361696 1 0.84186872863503504 1 0.85935640242416889 1 
	0.8768263344222903 1 0.89430401396172665 1 0.91181544713733209 1 0.92937655489372362 1 0.94698271909385756 1 
	0.96462158741893833 1 0.98229277208440458 1 0.99999999999999989 3 
	40.698674493544118 2.2655398204355861 5 1 
	40.794726369691034 2.6459370665159279 5 1.0000000000000002 
	40.949979569900783 3.3660072705326267 5.0000000000000009 0.99999999999999978 
	41.07052216064875 4.3351430457343225 4.9999999999999991 1 
	41.065211215812553 5.1696545648256249 5 1 
	40.944112957754143 5.8185088620775414 5 0.99999999999999989 
	40.741798550376792 6.2997293223009603 5.0000000000000009 1 
	40.473952357410575 6.6657903172958042 5 1 
	40.134188339036818 6.9520312476996935 5 1 
	39.68781551558569 7.1778617577658554 5 1.0000000000000002 
	39.105212876560834 7.3329333259217639 5.0000000000000009 0.99999999999999989 
	38.372232140649686 7.4066774671308524 4.9999999999999991 1 
	37.453023879333266 7.3984674858711932 5.0000000000000018 1 
	36.362471486336126 7.3258118409201947 4.9999999999999991 1 
	35.277447480064289 7.258937935020632 5 1.0000000000000002 
	34.320875882697599 7.2617975807366788 5 1 
	33.526478985898201 7.3579571971271065 5 1.0000000000000002 
	32.901614629711304 7.5397802385214687 5 0.99999999999999978 
	32.390662133108357 7.8046523565288348 5.0000000000000009 1.0000000000000002 
	31.939194649966833 8.1933911770562187 4.9999999999999991 1 
	31.50780724497913 8.7595833720415399 5.0000000000000009 0.99999999999999989 
	31.106555042537568 9.5249771466507056 5 0.99999999999999978 
	30.724787502476278 10.524813902733461 5 1 
	30.359460070270917 11.706935945618175 5.0000000000000009 0.99999999999999967 
	30.011205514897242 12.832785461579718 4.9999999999999991 1 
	29.661418701698821 13.760291972353677 5 1.0000000000000002 
	29.290957566656562 14.479040162247292 4.9999999999999991 1 
	28.904300507072318 14.993758413434646 5 1 
	28.486307402972567 15.352394985228347 5 1.0000000000000002 
	27.992847713746144 15.616063043731215 4.9999999999999991 1.0000000000000002 
	27.367452279290475 15.797863186188067 5 1 
	26.571560282198135 15.874106196515497 5 1 
	25.585276922719892 15.821764869458972 5.0000000000000009 0.99999999999999989 
	24.39712528365585 15.635466250732998 5 1.0000000000000002 
	22.946195920571512 15.315481450006022 5 0.99999999999999978 
	21.344459501192329 14.94105518956667 4.9999999999999991 1.0000000000000002 
	19.900842590616591 14.670803047286764 5.0000000000000009 1 
	18.681640087493999 14.555729063144245 5 0.99999999999999989 
	17.667745195410177 14.597446637140964 5.0000000000000009 0.99999999999999989 
	16.861339539224552 14.770076335123315 5 1 
	16.150678732242302 15.074902848390657 4.9999999999999982 1 
	15.42818235295541 15.559351045125789 5.0000000000000009 1 
	14.673601866921143 16.284945132655295 4.9999999999999991 1 
	13.903363794752877 17.267897875839417 5 0.99999999999999978 
	13.093119985175036 18.53652404915919 5.0000000000000009 0.99999999999999978 
	12.250757466117442 19.990252945224331 5.0000000000000009 1.0000000000000002 
	11.448865749837212 21.306318319694626 4.9999999999999991 1 
	10.688362607754391 22.36305596020863 5.0000000000000009 0.99999999999999989 
	9.9482171883932757 23.163566645180939 4.9999999999999991 1.0000000000000002 
	9.2347595545177921 23.718549464778224 5 1 
	8.5456889500426971 24.071385337541184 4.9999999999999991 0.99999999999999978 
	7.8567011134802831 24.266896858605506 5 1 
	7.1194209955884951 24.326091085812784 5 1 
	6.2730252571399401 24.229117952755352 5.0000000000000009 0.99999999999999989 
	5.2960455666187878 23.92855471458126 5 1 
	4.2452936834665751 23.417805798236675 5 1.0000000000000002 
	3.181353511361416 22.741931291953321 5.0000000000000009 0.99999999999999967 
	2.0976017712377137 21.918367790287071 4.9999999999999991 1.0000000000000004 
	1.3539997283455867 21.274685602699385 5 1 
	0.97642744949293747 20.929706688082284 5 1 
	0 
	null_surface 
	null_surface 
	nullbs 
	nullbs 
	I I 
	0 
	0 
	56 0.017590888916546164 0.035139136248135611 0.052641097546151087 0.070091227303199083 0.087499428012118158 0.10488553655570529 0.1222690639602905 0.13966934302831724 0.15710141594645757 0.17457697435768499 0.19210761851331745 0.20968469789320951 0.2272627505658025 0.24480423984698088 0.26229757462617942 0.27974690708785493 0.29717325064034239 0.31460585765087934 0.33207226280937141 0.34958806149978233 0.36716471916553145 0.38478502938247378 0.40239175631851165 0.41994572631647331 0.43744221149208079 0.45488903996676339 0.47230789786317545 0.48972861125865913 0.50717694004280822 0.52467134208416244 0.54222475126111791 0.55984855730212502 0.57755250418066362 0.59529616635590943 0.61299735275518752 0.63062596114421365 0.64818710642562605 0.66569413496406227 0.68318538218601021 0.70070366286352537 0.71827508548854035 0.73591225240404201 0.75362422615137314 0.77138009555491105 0.78910267029686609 0.80675550406278129 0.82434085881361696 0.84186872863503504 0.85935640242416889 0.8768263344222903 0.89430401396172665 0.91181544713733209 0.92937655489372362 0.94698271909385756 0.96462158741893833 0.98229277208440458 
	F 1 F 0 } I I #
coedge $-1 $57 $46 $50 $87 reversed $58 $-1 #
straight-curve $-1 3 0 5 0 0 -1 I I #
straight-curve $-1 37.789968897469777 0 5 0 0 -1 I I #
edge $-1 $116 0 $51 1.5707963267948966 $50 $117 forward 7 unknown #
point $-1 3 0 5 #
point $-1 37.789968897469777 0 5 #
coedge $-1 $105 $104 $54 $91 reversed $38 $-1 #
edge $-1 $94 0 $98 0.83047633158596312 $54 $118 forward 7 unknown #
coedge $-1 $109 $55 $57 $96 reversed $70 $-1 #
coedge $-1 $55 $109 $105 $119 forward $70 $-1 #
vertex $-1 $91 $120 #
straight-curve $-1 0 18.714948432011347 0 0 -1 0 I I #
edge $-1 $116 0 $59 5 $92 $121 forward 7 unknown #
point $-1 0 3 0 #
tvertex-vertex $-1 $61 $122 2.0334061274143119e-014 #
intcurve-curve $-1 forward { exactcur full nurbs 3 open 58 
	0 3 0.017590888916546164 1 0.035139136248135611 1 0.052641097546151087 1 0.070091227303199055 1 
	0.087499428012118158 1 0.10488553655570526 1 0.12226906396029047 1 0.13966934302831721 1 0.15710141594645755 1 
	0.17457697435768496 1 0.19210761851331742 1 0.20968469789320951 1 0.2272627505658025 1 0.24480423984698088 1 
	0.26229757462617942 1 0.27974690708785493 1 0.29717325064034239 1 0.31460585765087923 1 0.33207226280937135 1 
	0.34958806149978228 1 0.36716471916553139 1 0.38478502938247366 1 0.4023917563185116 1 0.41994572631647326 1 
	0.43744221149208073 1 0.45488903996676328 1 0.4723078978631754 1 0.48972861125865902 1 0.50717694004280822 1 
	0.52467134208416244 1 0.54222475126111791 1 0.55984855730212502 1 0.57755250418066362 1 0.59529616635590943 1 
	0.61299735275518752 1 0.63062596114421365 1 0.64818710642562605 1 0.66569413496406227 1 0.68318538218601021 1 
	0.70070366286352537 1 0.71827508548854035 1 0.73591225240404201 1 0.75362422615137314 1 0.77138009555491105 1 
	0.78910267029686609 1 0.80675550406278129 1 0.82434085881361696 1 0.84186872863503504 1 0.85935640242416889 1 
	0.8768263344222903 1 0.89430401396172665 1 0.91181544713733209 1 0.92937655489372362 1 0.94698271909385756 1 
	0.96462158741893833 1 0.98229277208440458 1 0.99999999999999989 3 
	40.698674493544118 2.2655398204355861 0 1 
	40.794726369691034 2.6459370665159239 0 1.0000000000000002 
	40.949979569900783 3.3660072705326267 0 0.99999999999999978 
	41.07052216064875 4.3351430457343216 0 1 
	41.065211215812553 5.1696545648256302 0 1 
	40.944112957754157 5.8185088620775289 0 0.99999999999999978 
	40.741798550376785 6.2997293223009656 0 1 
	40.47395235741061 6.6657903172957962 0 1 
	40.134188339036797 6.9520312476996953 0 0.99999999999999967 
	39.687815515585704 7.1778617577658519 0 1.0000000000000004 
	39.105212876560806 7.3329333259217711 0 0.99999999999999967 
	38.3722321406497 7.4066774671308506 0 1.0000000000000002 
	37.453023879333266 7.398467485871195 0 0.99999999999999978 
	36.362471486336105 7.3258118409201947 0 0.99999999999999978 
	35.277447480064303 7.258937935020632 0 1.0000000000000004 
	34.320875882697592 7.2617975807366788 0 1 
	33.526478985898208 7.3579571971271038 0 1.0000000000000002 
	32.901614629711318 7.5397802385214678 0 0.99999999999999989 
	32.390662133108336 7.8046523565288393 0 1.0000000000000004 
	31.939194649966851 8.1933911770562116 0 0.99999999999999978 
	31.507807244979119 8.759583372041547 0 0.99999999999999989 
	31.106555042537572 9.5249771466507056 0 0.99999999999999978 
	30.724787502476268 10.524813902733461 0 1 
	30.359460070270924 11.706935945618175 0 0.99999999999999967 
	30.011205514897242 12.832785461579718 0 1 
	29.661418701698821 13.760291972353677 0 1.0000000000000002 
	29.290957566656562 14.479040162247292 0 1 
	28.904300507072318 14.993758413434646 0 1 
	28.486307402972567 15.352394985228347 0 1.0000000000000002 
	27.992847713746144 15.616063043731215 0 1.0000000000000002 
	27.367452279290479 15.797863186188071 0 0.99999999999999989 
	26.571560282198114 15.874106196515491 0 1.0000000000000004 
	25.585276922719896 15.821764869458972 0 1.0000000000000002 
	24.397125283655857 15.635466250733005 0 1 
	22.946195920571508 15.315481450006018 0 0.99999999999999978 
	21.344459501192329 14.94105518956667 0 1.0000000000000002 
	19.900842590616591 14.670803047286764 0 1 
	18.681640087493999 14.555729063144247 0 0.99999999999999989 
	17.667745195410181 14.59744663714096 0 0.99999999999999989 
	16.861339539224552 14.770076335123317 0 1 
	16.150678732242291 15.074902848390664 0 1 
	15.428182352955414 15.559351045125789 0 1 
	14.673601866921137 16.284945132655302 0 1 
	13.903363794752877 17.267897875839413 0 0.99999999999999978 
	13.093119985175036 18.53652404915919 0 0.99999999999999978 
	12.250757466117445 19.990252945224324 0 1.0000000000000002 
	11.448865749837211 21.30631831969464 0 1 
	10.688362607754391 22.363055960208627 0 0.99999999999999989 
	9.9482171883932757 23.163566645180936 0 1.0000000000000002 
	9.2347595545177903 23.718549464778238 0 1 
	8.5456889500426954 24.07138533754118 0 0.99999999999999978 
	7.8567011134802849 24.266896858605509 0 1 
	7.1194209955884959 24.326091085812784 0 1 
	6.2730252571399392 24.229117952755352 0 0.99999999999999989 
	5.2960455666187878 23.92855471458126 0 1 
	4.2452936834665751 23.417805798236667 0 1.0000000000000002 
	3.1813535113614164 22.741931291953318 0 0.99999999999999967 
	2.0976017712377075 21.918367790287078 0 1.0000000000000004 
	1.3539997283455978 21.274685602699389 0 1 
	0.97642744949295945 20.929706688082298 0 1 
	0 
	null_surface 
	null_surface 
	nullbs 
	nullbs 
	I I 
	0 
	0 
	56 0.017590888916546164 0.035139136248135611 0.052641097546151087 0.070091227303199055 0.087499428012118158 0.10488553655570526 0.12226906396029047 0.13966934302831721 0.15710141594645755 0.17457697435768496 0.19210761851331742 0.20968469789320951 0.2272627505658025 0.24480423984698088 0.26229757462617942 0.27974690708785493 0.29717325064034239 0.31460585765087923 0.33207226280937135 0.34958806149978228 0.36716471916553139 0.38478502938247366 0.4023917563185116 0.41994572631647326 0.43744221149208073 0.45488903996676328 0.4723078978631754 0.48972861125865902 0.50717694004280822 0.52467134208416244 0.54222475126111791 0.55984855730212502 0.57755250418066362 0.59529616635590943 0.61299735275518752 0.63062596114421365 0.64818710642562605 0.66569413496406227 0.68318538218601021 0.70070366286352537 0.71827508548854035 0.73591225240404201 0.75362422615137314 0.77138009555491105 0.78910267029686609 0.80675550406278129 0.82434085881361696 0.84186872863503504 0.85935640242416889 0.8768263344222903 0.89430401396172665 0.91181544713733209 0.92937655489372362 0.94698271909385756 0.96462158741893833 0.98229277208440458 
	F 1 F 0 } I I #
edge $-1 $81 0 $65 5 $74 $123 forward 7 unknown #
face $-1 $-1 $64 $3 $-1 $124 forward single #
point $-1 40.698674493544118 2.2655398204355626 0 #
cone-surface $-1 3 3 5.0790535044510117 0 0 -1 -3 0 0 1 I I 0 1 3 forward I I I I #
coedge $-1 $90 $72 $73 $106 forward $38 $-1 #
coedge $-1 $72 $90 $93 $119 reversed $38 $-1 #
edge $-1 $82 0 $98 5 $73 $125 forward 7 unknown #
pcurve $-1 0 forward { exppc nurbs 3 open 2 
	-5 3 0 3 
	0.010677465189755807 0 1 
	0.010677465189755807 1.6666666666666665 1 
	0.010677465189755809 3.333333333333333 1 
	0.010677465189755809 5 1 
	0.001 
	spline forward { ref 0 } I I I I 
	} 0 0 #
pcurve $-1 0 forward { exppc nurbs 3 open 2 
	0 3 5 3 
	0.98136362580867575 5 1 
	0.98136362580867575 3.333333333333333 1 
	0.98136362580867575 1.6666666666666665 1 
	0.98136362580867575 0 1 
	0.001 
	spline forward { ref 0 } I I I I 
	} 0 0 #
coedge $-1 $93 $92 $76 $110 reversed $70 $-1 #
edge $-1 $111 -3.5527136788005009e-015 $116 15.714948432011351 $76 $126 forward 7 unknown #
vertex $-1 $110 $127 #
ellipse-curve $-1 2.9999999999999987 18.714948432011347 5 0 0 1 -2.0235725505070508 2.2147582560709402 0 1 I I #
ellipse-curve $-1 37.789968897469784 2.9999999999999982 5 0 0 1 -7.1054273576010019e-015 -2.9999999999999982 0 1 I I #
point $-1 40.698674493544118 2.2655398204355626 5 #
point $-1 0.97642744949293825 20.92970668808228 5 #
vertex $-1 $87 $128 #
ellipse-curve $-1 3 3 5 0 0 1 -3 0 0 1 I I #
ellipse-curve $-1 2.9999999999999911 18.714948432011351 0 -2.9605947323337585e-016 7.01209693529792e-031 -1 -2.999999999999992 7.1054273576010019e-015 8.8817841970012523e-016 1 I I #
edge $-1 $111 0 $94 4.9999999999999991 $93 $129 forward 7 unknown #
point $-1 -6.6613381477509392e-016 18.714948432011358 8.8817841970012523e-016 #
straight-curve $-1 0 3 5 0 0 -1 I I #
point $-1 0.9764274494929589 20.929706688082302 0 #
straight-curve $-1 40.698674493544118 2.2655398204355626 5 0 0 -1 I I #
cone-surface $-1 37.789968897469777 3 5.0790535044510117 0 0 -1 0 -3 0 1 I I 0 1 3 forward I I I I #
straight-curve $-1 0.97642744949294791 20.929706688082288 5 0 0 -1 I I #
straight-curve $-1 0 18.714948432011351 5 0 -1 0 I I #
point $-1 -4.4408920985006262e-016 18.714948432011354 5 #
point $-1 0 3 5 #
straight-curve $-1 0 18.714948432011354 5 0 7.1054273576010032e-016 -1 I I #
End-of-ACIS-data 