600 0 1 0           
116 GICL Pro/E ACIS Translator - Source: f:/data5/repository/PTC/V20/web_demos/models/sketchedtool/rout_work.prt.5 - 6 0 13 ACIS 6.0.3 NT 24 Thu Apr 04 13:12:10 2002 
1 9.9999999999999995e-007 1e-010 
body $-1 $1 $-1 $2 #
lump $-1 $-1 $3 $0 #
transform $-1 1 0 0 0 1 0 0 0 1 0 0 0 25.399999999999999 no_rotate no_reflect no_shear #
shell $-1 $-1 $-1 $4 $-1 $1 #
face $-1 $5 $6 $3 $-1 $7 reversed single #
face $-1 $8 $9 $3 $-1 $10 forward single #
loop $-1 $-1 $11 $4 #
plane-surface $-1 0 0 0 0 0 1 1 0 0 forward_v I I I I #
face $-1 $12 $13 $3 $-1 $14 forward single #
loop $-1 $-1 $15 $5 #
plane-surface $-1 0 0 0 0 -1 0 1 0 0 forward_v I I I I #
coedge $-1 $16 $17 $18 $19 reversed $6 $-1 #
face $-1 $20 $21 $3 $-1 $22 reversed single #
loop $-1 $-1 $23 $8 #
plane-surface $-1 0 0 5 0 0 1 1 0 0 forward_v I I I I #
coedge $-1 $24 $25 $26 $27 reversed $9 $-1 #
coedge $-1 $28 $11 $29 $30 forward $6 $-1 #
coedge $-1 $11 $31 $32 $33 forward $6 $-1 #
coedge $-1 $25 $24 $11 $19 forward $9 $-1 #
edge $-1 $34 0 $35 34.789968897469763 $11 $36 forward 7 unknown #
face $-1 $37 $38 $3 $-1 $39 forward single #
loop $-1 $-1 $40 $12 #
spline-surface $-1 forward { sweepsur angled 
	intcurve forward { exactcur full nurbs 3 open 7 
	0 3 0.22970472293472521 2 0.3686017541450804 2 0.59605380518951601 2 0.75076113125075761 2 
	0.85268111008949132 2 0.99999999999999989 3 
	-2.6645352591003757e-015 20 0 1 
	7.2143910262750257 27.134427267987348 0 1 
	9.79206100271767 24.064324604382875 0 1 
	13.424953932309673 18.031324372295515 0 1 
	14.67919594375577 15.505843979112687 0 1 
	20.385224085317812 13.652544037393355 0 1 
	26.365806725182864 17.389981442277115 0 1 
	30.423333274865815 13.522807005370655 0 1 
	30.416314139878054 9.1633659445421696 0 1 
	33.719240228186756 6.9360139591101042 0 1 
	35.898228508934366 7.3606804711781546 0 1 
	40.406256312480501 7.4505481019705915 0 1 
	42.369792491920975 6.6931956085802975 0 1 
	40 5.3290705182007514e-015 0 1 
	0 
	null_surface 
	null_surface 
	nullbs 
	nullbs 
	I I 
	0 
	0 
	4 0.22970472293472521 0.3686017541450804 0.59605380518951601 0.75076113125075761 
	F 1 F 0 } I I 
	straight 0 0 0 0 0 1 I I 
	angled 
	0 0 1 
	0 0 0 
	1 0 0 
	0 1 0 
	0 0 1 
	0 5 
	0 0 10 VEC(1,0,0) 
	0 
	1 0 
	0 
	55 VEC(0.57735026918963,0.57735026918963,0.57735026918963) 
	0 
	full nubs 3 3 open open none none 23 2 
	0.010677465189755818 3 0.071345350228438312 2 0.1320132352671208 2 0.19268112030580331 1 0.25334900534448579 1 
	0.31401689038316827 1 0.34435083290250951 1 0.36710128979201545 1 0.43535266046053323 2 0.526354488018557 2 
	0.58702237305723948 1 0.60218934431691018 2 0.61735631557658077 2 0.67802420061526325 1 0.73869208565394573 1 
	0.75385905691361632 2 0.76902602817328702 1 0.79935997069262821 1 0.8600278557313108 2 0.92069574076999328 2 
	0.95102968328933457 2 0.96619665454900516 1 0.98136362580867575 3 
	0 3 5 3 
	0.97642744949294369 20.929706688082295 0 
	2.7699465258627178 22.567746536789194 0 
	4.2554449967327939 23.527895311499027 0 
	6.764356337004128 24.431271587553749 0 
	7.7900412330273818 24.379499184029243 0 
	9.5394004239551826 23.611361519384133 0 
	10.989634110283509 22.184285733901113 0 
	12.739368984081711 19.112854787748049 0 
	14.251934925024127 16.650693365373087 0 
	15.658538321866709 15.344387001950283 0 
	17.401685569839291 14.436565257403576 0 
	19.10239416754678 14.543464840663574 0 
	22.222885985263662 15.088201380441767 0 
	24.114307872355813 15.668487566658804 0 
	26.805401114542221 15.916715607816046 0 
	27.998767493468154 15.803676696587567 0 
	28.819949386760275 15.063720951375444 0 
	29.117295465798225 14.714779427877497 0 
	29.251767606226654 14.516121706435369 0 
	29.867789788907459 13.424943867891344 0 
	30.501793235358356 11.067937821988217 0 
	31.409629535986976 8.6112048160780148 0 
	32.32645503695452 7.8633727597779437 0 
	32.732471015955262 7.6236835436829269 0 
	33.396096020002751 7.3468228006935714 0 
	35.247980657065639 7.1687921854759198 0 
	37.070088911233995 7.4156560037670669 0 
	39.19918715619572 7.381732058249284 0 
	40.11528453431881 7.1854597622737799 0 
	40.882134598494893 6.0798154451638391 0 
	41.038031481016844 5.5780601569748072 0 
	41.071269894125713 4.5538387966732525 0 
	41.028063254655471 3.7825290112465408 0 
	40.835492055628457 2.8080851737927892 0 
	40.698674493544104 2.2655398204355599 0 
	0.97642744949294369 20.929706688082295 1.6666666666647245 
	2.7699465258627178 22.567746536789194 1.6666666666647245 
	4.2554449967327939 23.527895311499027 1.6666666666647245 
	6.764356337004128 24.431271587553749 1.6666666666647245 
	7.7900412330273818 24.379499184029243 1.6666666666647245 
	9.5394004239551826 23.611361519384133 1.6666666666647245 
	10.989634110283509 22.184285733901113 1.6666666666647245 
	12.739368984081711 19.112854787748049 1.6666666666647245 
	14.251934925024127 16.650693365373087 1.6666666666647245 
	15.658538321866709 15.344387001950283 1.6666666666647245 
	17.401685569839291 14.436565257403576 1.6666666666647245 
	19.10239416754678 14.543464840663574 1.6666666666647245 
	22.222885985263662 15.088201380441767 1.6666666666647245 
	24.114307872355813 15.668487566658804 1.6666666666647245 
	26.805401114542221 15.916715607816046 1.6666666666647245 
	27.998767493468154 15.803676696587567 1.6666666666647245 
	28.819949386760275 15.063720951375444 1.6666666666647245 
	29.117295465798225 14.714779427877497 1.6666666666647245 
	29.251767606226654 14.516121706435369 1.6666666666647245 
	29.867789788907459 13.424943867891344 1.6666666666647245 
	30.501793235358356 11.067937821988217 1.6666666666647245 
	31.409629535986976 8.6112048160780148 1.6666666666647245 
	32.32645503695452 7.8633727597779437 1.6666666666647245 
	32.732471015955262 7.6236835436829269 1.6666666666647245 
	33.396096020002751 7.3468228006935714 1.6666666666647245 
	35.247980657065639 7.1687921854759198 1.6666666666647245 
	37.070088911233995 7.4156560037670669 1.6666666666647245 
	39.19918715619572 7.381732058249284 1.6666666666647245 
	40.11528453431881 7.1854597622737799 1.6666666666647245 
	40.882134598494893 6.0798154451638391 1.6666666666647245 
	41.038031481016844 5.5780601569748072 1.6666666666647245 
	41.071269894125713 4.5538387966732525 1.6666666666647245 
	41.028063254655471 3.7825290112465408 1.6666666666647245 
	40.835492055628457 2.8080851737927892 1.6666666666647245 
	40.698674493544104 2.2655398204355599 1.6666666666647245 
	0.97642744949294369 20.929706688082295 3.3333333333352755 
	2.7699465258627178 22.567746536789194 3.3333333333352755 
	4.2554449967327939 23.527895311499027 3.3333333333352755 
	6.764356337004128 24.431271587553749 3.3333333333352755 
	7.7900412330273818 24.379499184029243 3.3333333333352755 
	9.5394004239551826 23.611361519384133 3.3333333333352755 
	10.989634110283509 22.184285733901113 3.3333333333352755 
	12.739368984081711 19.112854787748049 3.3333333333352755 
	14.251934925024127 16.650693365373087 3.3333333333352755 
	15.658538321866709 15.344387001950283 3.3333333333352755 
	17.401685569839291 14.436565257403576 3.3333333333352755 
	19.10239416754678 14.543464840663574 3.3333333333352755 
	22.222885985263662 15.088201380441767 3.3333333333352755 
	24.114307872355813 15.668487566658804 3.3333333333352755 
	26.805401114542221 15.916715607816046 3.3333333333352755 
	27.998767493468154 15.803676696587567 3.3333333333352755 
	28.819949386760275 15.063720951375444 3.3333333333352755 
	29.117295465798225 14.714779427877497 3.3333333333352755 
	29.251767606226654 14.516121706435369 3.3333333333352755 
	29.867789788907459 13.424943867891344 3.3333333333352755 
	30.501793235358356 11.067937821988217 3.3333333333352755 
	31.409629535986976 8.6112048160780148 3.3333333333352755 
	32.32645503695452 7.8633727597779437 3.3333333333352755 
	32.732471015955262 7.6236835436829269 3.3333333333352755 
	33.396096020002751 7.3468228006935714 3.3333333333352755 
	35.247980657065639 7.1687921854759198 3.3333333333352755 
	37.070088911233995 7.4156560037670669 3.3333333333352755 
	39.19918715619572 7.381732058249284 3.3333333333352755 
	40.11528453431881 7.1854597622737799 3.3333333333352755 
	40.882134598494893 6.0798154451638391 3.3333333333352755 
	41.038031481016844 5.5780601569748072 3.3333333333352755 
	41.071269894125713 4.5538387966732525 3.3333333333352755 
	41.028063254655471 3.7825290112465408 3.3333333333352755 
	40.835492055628457 2.8080851737927892 3.3333333333352755 
	40.698674493544104 2.2655398204355599 3.3333333333352755 
	0.97642744949294369 20.929706688082295 5 
	2.7699465258627178 22.567746536789194 5 
	4.2554449967327939 23.527895311499027 5 
	6.764356337004128 24.431271587553749 5 
	7.7900412330273818 24.379499184029243 5 
	9.5394004239551826 23.611361519384133 5 
	10.989634110283509 22.184285733901113 5 
	12.739368984081711 19.112854787748049 5 
	14.251934925024127 16.650693365373087 5 
	15.658538321866709 15.344387001950283 5 
	17.401685569839291 14.436565257403576 5 
	19.10239416754678 14.543464840663574 5 
	22.222885985263662 15.088201380441767 5 
	24.114307872355813 15.668487566658804 5 
	26.805401114542221 15.916715607816046 5 
	27.998767493468154 15.803676696587567 5 
	28.819949386760275 15.063720951375444 5 
	29.117295465798225 14.714779427877497 5 
	29.251767606226654 14.516121706435369 5 
	29.867789788907459 13.424943867891344 5 
	30.501793235358356 11.067937821988217 5 
	31.409629535986976 8.6112048160780148 5 
	32.32645503695452 7.8633727597779437 5 
	32.732471015955262 7.6236835436829269 5 
	33.396096020002751 7.3468228006935714 5 
	35.247980657065639 7.1687921854759198 5 
	37.070088911233995 7.4156560037670669 5 
	39.19918715619572 7.381732058249284 5 
	40.11528453431881 7.1854597622737799 5 
	40.882134598494893 6.0798154451638391 5 
	41.038031481016844 5.5780601569748072 5 
	41.071269894125713 4.5538387966732525 5 
	41.028063254655471 3.7825290112465408 5 
	40.835492055628457 2.8080851737927892 5 
	40.698674493544104 2.2655398204355599 5 
	0.001 
	0 
	0 
	0 
	0 
	0 
	0 
	} I I I I #
tcoedge-coedge $-1 $41 $42 $43 $44 forward $13 $45 0 0.99999999999999989 #
coedge $-1 $18 $15 $46 $47 forward $9 $-1 #
coedge $-1 $15 $18 $48 $49 reversed $9 $-1 #
coedge $-1 $42 $50 $15 $27 forward $13 $-1 #
edge $-1 $51 0 $52 34.789968897469763 $26 $53 forward 7 unknown #
coedge $-1 $54 $16 $55 $56 reversed $6 $-1 #
coedge $-1 $46 $57 $16 $30 reversed $58 $-1 #
edge $-1 $34 0 $59 1.5707963267948966 $16 $60 forward 7 unknown #
tcoedge-coedge $-1 $17 $54 $40 $61 reversed $6 $62 -0.99999999999999989 0 #
coedge $-1 $63 $48 $17 $33 reversed $64 $-1 #
edge $-1 $65 0 $35 1.3234622264669196 $17 $66 forward 7 unknown #
vertex $-1 $30 $67 #
vertex $-1 $33 $68 #
straight-curve $-1 3 0 0 1 0 0 I I #
face $-1 $69 $70 $3 $-1 $71 forward single #
loop $-1 $-1 $72 $20 #
cone-surface $-1 3 18.714948432011358 5.0790535044510117 0 0 -1 -2.0235725505070561 2.2147582560709345 0 1 I I 0 1 3 forward I I I I #
tcoedge-coedge $-1 $73 $74 $31 $61 forward $21 $75 0 0.99999999999999989 #
coedge $-1 $76 $23 $72 $77 forward $13 $-1 #
coedge $-1 $23 $26 $78 $79 forward $13 $-1 #
tcoedge-coedge $-1 $74 $73 $23 $44 reversed $21 $80 -0.99999999999999989 0 #
tedge-edge $-1 $81 0 $82 0.99999999999999989 $23 $83 forward 7 unknown 0.00029341825650305181 #
pcurve $-1 0 forward { exppc nurbs 3 open 58 
	0 3 0.017590888916546175 1 0.035139136248135611 1 0.052641097546151108 1 0.070091227303199069 1 
	0.087499428012118158 1 0.10488553655570527 1 0.12226906396029048 1 0.13966934302831724 1 0.15710141594645757 1 
	0.17457697435768502 1 0.19210761851331748 1 0.20968469789320954 1 0.22726275056580256 1 0.24480423984698088 1 
	0.26229757462617942 1 0.27974690708785493 1 0.29717325064034239 1 0.31460585765087928 1 0.33207226280937141 1 
	0.34958806149978233 1 0.36716471916553145 1 0.38478502938247372 1 0.40239175631851165 1 0.41994572631647331 1 
	0.43744221149208073 1 0.45488903996676333 1 0.47230789786317545 1 0.48972861125865902 1 0.50717694004280822 1 
	0.52467134208416244 1 0.54222475126111791 1 0.55984855730212502 1 0.57755250418066362 1 0.59529616635590943 1 
	0.61299735275518752 1 0.63062596114421365 1 0.64818710642562605 1 0.66569413496406227 1 0.68318538218601021 1 
	0.70070366286352537 1 0.71827508548854024 1 0.73591225240404201 1 0.75362422615137314 1 0.77138009555491116 1 
	0.7891026702968662 1 0.8067555040627814 1 0.82434085881361696 1 0.84186872863503504 1 0.85935640242416889 1 
	0.8768263344222903 1 0.89430401396172676 1 0.9118154471373322 1 0.92937655489372373 1 0.94698271909385767 1 
	0.96462158741893833 1 0.98229277208440469 1 0.99999999999999989 3 
	40.698674493544104 2.2655398204355723 1 
	40.794726369691027 2.6459370665159292 1 
	40.949979569900776 3.3660072705326498 1 
	41.070522160648736 4.3351430457343403 1.0000000000000002 
	41.065211215812546 5.1696545648256365 1 
	40.944112957754129 5.8185088620775618 0.99999999999999989 
	40.741798550376771 6.2997293223009727 1 
	40.473952357410575 6.6657903172958068 0.99999999999999978 
	40.134188339036811 6.9520312476997077 1 
	39.687815515585633 7.1778617577658759 1.0000000000000002 
	39.105212876560856 7.3329333259217666 0.99999999999999978 
	38.372232140649665 7.4066774671308657 1.0000000000000002 
	37.453023879333259 7.3984674858712003 0.99999999999999967 
	36.362471486336098 7.3258118409202009 1 
	35.277447480064254 7.2589379350206382 1 
	34.320875882697599 7.2617975807366895 1 
	33.526478985898173 7.3579571971271136 1.0000000000000002 
	32.901614629711275 7.5397802385214829 0.99999999999999978 
	32.390662133108343 7.804652356528849 1.0000000000000002 
	31.939194649966812 8.1933911770562293 1 
	31.507807244979119 8.7595833720415648 0.99999999999999989 
	31.106555042537551 9.5249771466507163 0.99999999999999978 
	30.724787502476268 10.524813902733488 1 
	30.359460070270906 11.706935945618197 0.99999999999999967 
	30.011205514897231 12.832785461579739 1 
	29.661418701698814 13.760291972353684 1.0000000000000002 
	29.290957566656552 14.479040162247298 1 
	28.90430050707231 14.993758413434655 1 
	28.48630740297256 15.352394985228353 1.0000000000000002 
	27.992847713746144 15.616063043731222 1.0000000000000002 
	27.367452279290479 15.797863186188076 0.99999999999999989 
	26.571560282198103 15.8741061965155 1.0000000000000004 
	25.585276922719899 15.821764869458978 1.0000000000000002 
	24.397125283655843 15.635466250733005 1 
	22.946195920571512 15.315481450006022 0.99999999999999978 
	21.34445950119234 14.941055189566679 1.0000000000000002 
	19.900842590616602 14.670803047286768 1 
	18.681640087493985 14.55572906314425 0.99999999999999989 
	17.667745195410198 14.597446637140964 0.99999999999999989 
	16.861339539224559 14.770076335123315 1 
	16.150678732242294 15.074902848390661 1 
	15.42818235295541 15.559351045125783 1 
	14.673601866921132 16.284945132655306 1 
	13.903363794752883 17.267897875839413 0.99999999999999989 
	13.093119985175029 18.53652404915918 1.0000000000000002 
	12.250757466117442 19.990252945224338 1 
	11.448865749837209 21.306318319694633 1.0000000000000002 
	10.688362607754387 22.363055960208627 0.99999999999999989 
	9.9482171883932651 23.16356664518095 1.0000000000000002 
	9.2347595545177974 23.718549464778228 1 
	8.5456889500426971 24.071385337541184 0.99999999999999978 
	7.8567011134802902 24.266896858605516 1 
	7.1194209955884951 24.326091085812781 1 
	6.2730252571399454 24.229117952755367 0.99999999999999989 
	5.2960455666187896 23.928554714581253 1 
	4.2452936834665804 23.417805798236689 1.0000000000000002 
	3.1813535113614195 22.741931291953328 0.99999999999999967 
	2.0976017712377222 21.918367790287096 1.0000000000000004 
	1.3539997283455896 21.274685602699385 1 
	0.97642744949293703 20.92970668808228 1 
	0 
	plane 0 0 5 0 0 1 1 0 0 forward_v I I I I 
	} 0 0 #
coedge $-1 $84 $29 $24 $47 reversed $58 $-1 #
edge $-1 $51 0 $34 5 $24 $85 forward 7 unknown #
coedge $-1 $32 $78 $25 $49 forward $64 $-1 #
edge $-1 $52 0 $35 5 $25 $86 forward 7 unknown #
coedge $-1 $26 $76 $84 $87 forward $13 $-1 #
vertex $-1 $27 $88 #
vertex $-1 $79 $89 #
straight-curve $-1 3 0 5 1 0 0 I I #
coedge $-1 $31 $28 $90 $91 forward $6 $-1 #
coedge $-1 $92 $93 $28 $56 forward $70 $-1 #
edge $-1 $94 7.1054273576010019e-015 $59 15.714948432011361 $28 $95 forward 7 unknown #
coedge $-1 $29 $84 $92 $96 forward $58 $-1 #
loop $-1 $-1 $84 $69 #
vertex $-1 $56 $97 #
ellipse-curve $-1 3 3 0 0 0 -1 0 -3 0 1 I I #
tedge-edge $-1 $65 0 $98 0.99999999999999989 $31 $99 forward 7 unknown 0.00029341825650343572 #
pcurve $-1 0 forward { exppc nurbs 3 open 58 
	-0.99999999999999989 3 -0.98229277208440446 1 -0.96462158741893822 1 -0.94698271909385756 1 -0.92937655489372362 1 
	-0.91181544713733209 1 -0.89430401396172665 1 -0.87682633442229019 1 -0.85935640242416877 1 -0.84186872863503492 1 
	-0.82434085881361685 1 -0.80675550406278129 1 -0.78910267029686609 1 -0.77138009555491105 1 -0.75362422615137314 1 
	-0.73591225240404201 1 -0.71827508548854024 1 -0.70070366286352537 1 -0.68318538218601021 1 -0.66569413496406227 1 
	-0.64818710642562605 1 -0.63062596114421365 1 -0.61299735275518752 1 -0.59529616635590943 1 -0.57755250418066362 1 
	-0.55984855730212502 1 -0.54222475126111791 1 -0.52467134208416244 1 -0.50717694004280822 1 -0.48972861125865902 1 
	-0.47230789786317545 1 -0.45488903996676333 1 -0.43744221149208073 1 -0.41994572631647331 1 -0.40239175631851165 1 
	-0.38478502938247372 1 -0.36716471916553145 1 -0.34958806149978233 1 -0.33207226280937141 1 -0.31460585765087928 1 
	-0.29717325064034239 1 -0.27974690708785493 1 -0.26229757462617942 1 -0.24480423984698088 1 -0.22726275056580256 1 
	-0.20968469789320954 1 -0.19210761851331748 1 -0.17457697435768502 1 -0.15710141594645757 1 -0.13966934302831724 1 
	-0.12226906396029048 1 -0.10488553655570529 1 -0.087499428012118172 1 -0.070091227303199083 1 -0.052641097546151122 1 
	-0.035139136248135611 1 -0.017590888916546168 1 0 3 
	0.9764274494929549 20.929706688082305 1 
	1.3539997283455958 21.2746856026994 1 
	2.0976017712377164 21.918367790287078 1.0000000000000004 
	3.1813535113614115 22.741931291953328 0.99999999999999967 
	4.2452936834665751 23.417805798236678 1.0000000000000002 
	5.2960455666187807 23.928554714581256 1 
	6.2730252571399427 24.229117952755374 0.99999999999999989 
	7.1194209955884888 24.326091085812784 1 
	7.8567011134802804 24.266896858605506 1 
	8.5456889500426954 24.071385337541191 0.99999999999999978 
	9.2347595545177974 23.718549464778228 1 
	9.9482171883932686 23.163566645180953 1.0000000000000002 
	10.688362607754389 22.363055960208619 0.99999999999999989 
	11.448865749837204 21.30631831969464 1 
	12.250757466117438 19.990252945224338 1.0000000000000002 
	13.093119985175036 18.536524049159176 0.99999999999999978 
	13.903363794752885 17.267897875839413 0.99999999999999978 
	14.673601866921132 16.284945132655302 1 
	15.428182352955405 15.559351045125794 1 
	16.150678732242298 15.074902848390657 1 
	16.861339539224556 14.770076335123315 1 
	17.667745195410202 14.597446637140964 0.99999999999999989 
	18.681640087493985 14.55572906314425 0.99999999999999989 
	19.900842590616602 14.670803047286768 1 
	21.34445950119234 14.941055189566679 1.0000000000000002 
	22.946195920571512 15.315481450006022 0.99999999999999978 
	24.397125283655843 15.635466250733005 1 
	25.585276922719899 15.821764869458978 1.0000000000000002 
	26.571560282198103 15.8741061965155 1.0000000000000004 
	27.367452279290479 15.797863186188076 0.99999999999999989 
	27.992847713746144 15.61606304373122 1.0000000000000002 
	28.486307402972557 15.352394985228358 1.0000000000000002 
	28.90430050707231 14.993758413434648 1 
	29.290957566656552 14.479040162247298 1 
	29.661418701698814 13.760291972353686 1.0000000000000002 
	30.011205514897231 12.832785461579734 1 
	30.359460070270906 11.706935945618191 0.99999999999999967 
	30.724787502476268 10.524813902733479 1 
	31.106555042537554 9.5249771466507092 0.99999999999999978 
	31.507807244979119 8.7595833720415666 0.99999999999999989 
	31.939194649966815 8.193391177056224 1 
	32.390662133108336 7.8046523565288517 1.0000000000000002 
	32.90161462971129 7.5397802385214785 0.99999999999999978 
	33.526478985898173 7.3579571971271154 1.0000000000000002 
	34.320875882697599 7.2617975807366895 1 
	35.277447480064254 7.2589379350206382 1 
	36.362471486336098 7.3258118409202044 1 
	37.453023879333252 7.3984674858711994 0.99999999999999967 
	38.3722321406497 7.4066774671308648 1.0000000000000002 
	39.105212876560863 7.3329333259217613 0.99999999999999978 
	39.687815515585633 7.1778617577658759 1.0000000000000002 
	40.134188339036811 6.9520312476997059 1 
	40.473952357410575 6.6657903172958104 0.99999999999999989 
	40.741798550376771 6.2997293223009727 1 
	40.944112957754129 5.8185088620775556 0.99999999999999978 
	41.06521121581256 5.1696545648256338 1 
	41.070522160648743 4.3351430457343394 1 
	40.949979569900783 3.3660072705326383 0.99999999999999978 
	40.794726369691027 2.6459370665159301 1.0000000000000002 
	40.698674493544111 2.2655398204355839 1 
	0 
	plane 0 0 0 0 0 -1 1 0 0 reverse_v I I I I 
	} 0 0 #
coedge $-1 $78 $32 $74 $100 reversed $64 $-1 #
loop $-1 $-1 $78 $101 #
tvertex-vertex $-1 $33 $102 1.7245305484923179e-014 #
ellipse-curve $-1 37.789968897469755 2.9999999999999991 0 0 0 -1 2.9087055960743413 -0.734460179564425 0 1 I I #
point $-1 3 0 0 #
point $-1 37.789968897469763 0 0 #
face $-1 $101 $58 $3 $-1 $103 forward single #
loop $-1 $-1 $55 $37 #
plane-surface $-1 0 20 0 -1 0 0 0 -1 0 forward_v I I I I #
coedge $-1 $104 $105 $41 $77 reversed $38 $-1 #
coedge $-1 $43 $40 $104 $106 reversed $21 $107 #
coedge $-1 $40 $43 $63 $100 forward $21 $108 #
pcurve $-1 0 forward { exppc nurbs 3 open 58 
	0 3 0.017434445428224685 1 0.034878692266608551 1 0.052329441795157236 1 0.069774280135123462 1 
	0.087206888688263762 1 0.10463310651320652 1 0.12206426699169336 1 0.13951432889781698 1 0.15699096847678382 1 
	0.17449818818834062 1 0.19204329678243409 1 0.20961968069189738 1 0.22719420999034945 1 0.24474256164735725 1 
	0.26225731657289247 1 0.2797387451571558 1 0.29720256425600289 1 0.31467320171272894 1 0.33217140504384846 1 
	0.34970436660065679 1 0.36727897990134317 1 0.38488326818073249 1 0.4024778127320085 1 0.42003812326723328 1 
	0.4375622274615999 1 0.45505231068406465 1 0.47252297087539802 1 0.4899994822984598 1 0.50750307276681594 1 
	0.52504328496767894 1 0.54262274065320104 1 0.56024614630693104 1 0.5779229628906718 1 0.59562661047350618 1 
	0.613299856902072 1 0.63092456051755774 1 0.64850405928369359 1 0.66604328164313265 1 0.68357369532077539 1 
	0.7011330094865128 1 0.71873911502658805 1 0.73639519902385486 1 0.75410669258206642 1 0.7718506199249785 1 
	0.78956851258311667 1 0.80723586268233161 1 0.82485490044451415 1 0.84242790797301959 1 0.85996241645273974 1 
	0.87747319160008386 1 0.89497895041502773 1 0.91249487305450372 1 0.9300205739962798 1 0.9475400313189033 1 
	0.96504136700947885 1 0.98252658616724386 1 0.99999999999999989 3 
	0.98136362580867575 0 1 
	0.97783130583868016 0 1 
	0.97058473616123064 0 1.0000000000000002 
	0.95915569796392897 0 0.99999999999999989 
	0.94721736833832959 0 1.0000000000000002 
	0.93569615799861694 0 1 
	0.92500141733024266 0 1 
	0.91469430884528802 0 0.99999999999999978 
	0.90415930781544873 0 1.0000000000000002 
	0.89247299675203307 0 0.99999999999999989 
	0.87923935606832937 0 1 
	0.86437103408877258 0 1 
	0.84725264205400908 0 1 
	0.82800741766715535 0 1.0000000000000002 
	0.80903249968189295 0 0.99999999999999989 
	0.79171188376634993 0 0.99999999999999989 
	0.77629111577676979 0 1.0000000000000002 
	0.76293552656984409 0 0.99999999999999978 
	0.75064905361465462 0 1 
	0.73795970784053189 0 1 
	0.72351324333340838 0 1.0000000000000002 
	0.70720302568074289 0 1 
	0.68836725391805553 0 1 
	0.66748395038177288 0 0.99999999999999989 
	0.64737976042199974 0 0.99999999999999978 
	0.62945569886354746 0 1.0000000000000004 
	0.6135225766368031 0 0.99999999999999978 
	0.59965517717747174 0 1.0000000000000002 
	0.58700430756051525 0 0.99999999999999989 
	0.57397037034797183 0 1 
	0.5592799618669968 0 0.99999999999999978 
	0.54246576300659433 0 1.0000000000000002 
	0.52344352417994 0 0.99999999999999978 
	0.5021126394933243 0 1.0000000000000002 
	0.47737069129992693 0 1 
	0.45067137602843543 0 0.99999999999999989 
	0.42626903424370605 0 1 
	0.4047618527327036 0 1.0000000000000004 
	0.38568262592880337 0 0.99999999999999978 
	0.36924857198885341 0 1 
	0.35336167935813784 0 1.0000000000000002 
	0.33560734892980204 0 0.99999999999999989 
	0.31504314970461111 0 1 
	0.29181099782073372 0 1 
	0.2651839437566279 0 0.99999999999999978 
	0.23620837920722459 0 1 
	0.20921389576454996 0 1 
	0.18530250746592855 0 1.0000000000000002 
	0.16403107581938769 0 0.99999999999999978 
	0.14542468443739054 0 1.0000000000000002 
	0.12905645660574011 0 1 
	0.11406693246452587 0 1 
	0.099342580627053548 0 1.0000000000000002 
	0.08388668290315901 0 0.99999999999999978 
	0.067694451470250105 0 1 
	0.05191317440327764 0 0.99999999999999978 
	0.037323400333398982 0 1.0000000000000004 
	0.023646292247819205 0 0.99999999999999978 
	0.014922772816994247 0 1 
	0.010677465189755818 0 1 
	0.001 
	spline forward { ref 0 } I I I I 
	} 0 0 #
coedge $-1 $50 $41 $109 $110 forward $13 $-1 #
edge $-1 $82 3.1579677144893391e-015 $111 0.83047633158595702 $41 $112 forward 7 unknown #
coedge $-1 $48 $63 $42 $79 reversed $64 $-1 #
edge $-1 $52 0 $81 1.3234622264669236 $42 $113 forward 7 unknown #
pcurve $-1 0 forward { exppc nurbs 3 open 58 
	-0.99999999999999989 3 -0.98252658616724353 1 -0.9650413670094784 1 -0.94754003131890296 1 -0.93002057399627935 1 
	-0.91249487305450327 1 -0.8949789504150274 1 -0.87747319160008352 1 -0.8599624164527393 1 -0.84242790797301914 1 
	-0.82485490044451371 1 -0.80723586268233127 1 -0.78956851258311622 1 -0.77185061992497805 1 -0.75410669258206608 1 
	-0.73639519902385464 1 -0.71873911502658783 1 -0.70113300948651269 1 -0.68357369532077517 1 -0.66604328164313253 1 
	-0.64850405928369348 1 -0.63092456051755752 1 -0.61329985690207178 1 -0.59562661047350596 1 -0.57792296289067169 1 
	-0.56024614630693081 1 -0.54262274065320093 1 -0.52504328496767871 1 -0.50750307276681594 1 -0.48999948229845969 1 
	-0.47252297087539796 1 -0.45505231068406449 1 -0.43756222746159978 1 -0.42003812326723311 1 -0.40247781273200833 1 
	-0.38488326818073237 1 -0.36727897990134317 1 -0.34970436660065674 1 -0.33217140504384846 1 -0.31467320171272894 1 
	-0.29720256425600278 1 -0.2797387451571558 1 -0.26225731657289231 1 -0.24474256164735719 1 -0.22719420999034934 1 
	-0.20961968069189729 1 -0.19204329678243404 1 -0.17449818818834062 1 -0.15699096847678384 1 -0.1395143288978169 1 
	-0.12206426699169337 1 -0.10463310651320645 1 -0.087206888688263762 1 -0.069774280135123434 1 -0.052329441795157194 1 
	-0.034878692266608557 1 -0.017434445428224699 1 0 3 
	0.010677465189755826 5 1 
	0.014922772816994254 5 1 
	0.023646292247819216 5 0.99999999999999978 
	0.037323400333399127 4.9999999999999991 1.0000000000000004 
	0.051913174403277682 5 0.99999999999999978 
	0.067694451470250244 5 1 
	0.083886682903159024 5 0.99999999999999978 
	0.099342580627053728 5 1.0000000000000002 
	0.11406693246452598 5 1 
	0.12905645660574028 5 1 
	0.1454246844373904 5 1.0000000000000002 
	0.16403107581938764 4.9999999999999991 0.99999999999999978 
	0.18530250746592858 5.0000000000000009 1.0000000000000002 
	0.20921389576455013 4.9999999999999991 1 
	0.23620837920722459 5 1 
	0.26518394375662779 5 0.99999999999999978 
	0.29181099782073372 5.0000000000000009 1 
	0.31504314970461111 5 1 
	0.33560734892980204 5.0000000000000009 0.99999999999999989 
	0.35336167935813784 5 1.0000000000000002 
	0.36924857198885341 5 1 
	0.38568262592880337 5 0.99999999999999978 
	0.4047618527327036 4.9999999999999991 1.0000000000000004 
	0.42626903424370605 5.0000000000000009 1 
	0.45067137602843543 5.0000000000000009 0.99999999999999989 
	0.47737069129992693 5.0000000000000009 1 
	0.50211263949332441 5 1 
	0.52344352417994 4.9999999999999991 0.99999999999999978 
	0.54246576300659433 5.0000000000000009 1.0000000000000002 
	0.55927996186699691 5.0000000000000009 0.99999999999999956 
	0.57397037034797171 5.0000000000000009 1 
	0.58700430756051547 5.0000000000000009 0.99999999999999989 
	0.59965517717747174 4.9999999999999991 1.0000000000000002 
	0.6135225766368031 5.0000000000000009 0.99999999999999978 
	0.62945569886354746 4.9999999999999991 1.0000000000000004 
	0.64737976042199974 5 0.99999999999999978 
	0.66748395038177288 5.0000000000000009 0.99999999999999989 
	0.6883672539180552 5.0000000000000009 1 
	0.707203025680743 5 1 
	0.72351324333340827 5 1.0000000000000002 
	0.73795970784053155 5 1 
	0.75064905361465495 5 1 
	0.76293552656984343 5 1 
	0.77629111577677001 5 1 
	0.79171188376634993 5 1 
	0.80903249968189261 5 1.0000000000000002 
	0.82800741766715558 5.0000000000000009 0.99999999999999989 
	0.84725264205400885 5 1.0000000000000002 
	0.86437103408877203 4.9999999999999982 1 
	0.87923935606832904 5 1 
	0.89247299675203329 5 0.99999999999999967 
	0.90415930781544918 5 1 
	0.9146943088452878 5 0.99999999999999989 
	0.92500141733024277 5.0000000000000009 0.99999999999999989 
	0.93569615799861694 4.9999999999999991 1 
	0.9472173683383297 5 1 
	0.95915569796392897 5.0000000000000009 0.99999999999999989 
	0.97058473616123042 4.9999999999999982 1.0000000000000004 
	0.97783130583868016 5.0000000000000018 0.99999999999999989 
	0.98136362580867575 5 1 
	0.001 
	spline forward { ref 0 } I I I I 
	} 0 0 #
tvertex-vertex $-1 $79 $114 1.5888218580782548e-014 #
tvertex-vertex $-1 $77 $115 9.8159036263484246e-015 #
intcurve-curve $-1 forward { exactcur full nurbs 3 open 58 
	0 3 0.017590888916546175 1 0.035139136248135611 1 0.052641097546151108 1 0.070091227303199069 1 
	0.087499428012118158 1 0.10488553655570527 1 0.12226906396029048 1 0.13966934302831724 1 0.15710141594645757 1 
	0.17457697435768502 1 0.19210761851331748 1 0.20968469789320954 1 0.22726275056580256 1 0.24480423984698088 1 
	0.26229757462617942 1 0.27974690708785493 1 0.29717325064034239 1 0.31460585765087928 1 0.33207226280937141 1 
	0.34958806149978233 1 0.36716471916553145 1 0.38478502938247372 1 0.40239175631851165 1 0.41994572631647331 1 
	0.43744221149208073 1 0.45488903996676333 1 0.47230789786317545 1 0.48972861125865902 1 0.50717694004280822 1 
	0.52467134208416244 1 0.54222475126111791 1 0.55984855730212502 1 0.57755250418066362 1 0.59529616635590943 1 
	0.61299735275518752 1 0.63062596114421365 1 0.64818710642562605 1 0.66569413496406227 1 0.68318538218601021 1 
	0.70070366286352537 1 0.71827508548854024 1 0.73591225240404201 1 0.75362422615137314 1 0.77138009555491116 1 
	0.7891026702968662 1 0.8067555040627814 1 0.82434085881361696 1 0.84186872863503504 1 0.85935640242416889 1 
	0.8768263344222903 1 0.89430401396172676 1 0.9118154471373322 1 0.92937655489372373 1 0.94698271909385767 1 
	0.96462158741893833 1 0.98229277208440469 1 0.99999999999999989 3 
	40.698674493544104 2.2655398204355723 5 1 
	40.794726369691027 2.6459370665159292 5 1 
	40.949979569900776 3.3660072705326498 5.0000000000000009 1 
	41.070522160648736 4.3351430457343403 5 1.0000000000000002 
	41.065211215812546 5.1696545648256365 5 1 
	40.944112957754129 5.8185088620775618 5 0.99999999999999989 
	40.741798550376771 6.2997293223009727 5 1 
	40.473952357410575 6.6657903172958068 5.0000000000000009 0.99999999999999978 
	40.134188339036811 6.9520312476997077 4.9999999999999982 1 
	39.687815515585633 7.1778617577658759 5.0000000000000009 1.0000000000000002 
	39.105212876560856 7.3329333259217666 4.9999999999999982 0.99999999999999978 
	38.372232140649665 7.4066774671308657 5.0000000000000018 1.0000000000000002 
	37.453023879333259 7.3984674858712003 5 0.99999999999999967 
	36.362471486336098 7.3258118409202009 5 1 
	35.277447480064254 7.2589379350206382 5.0000000000000009 1 
	34.320875882697599 7.2617975807366895 4.9999999999999991 1 
	33.526478985898173 7.3579571971271136 5.0000000000000009 1.0000000000000002 
	32.901614629711275 7.5397802385214829 5 0.99999999999999978 
	32.390662133108343 7.804652356528849 5.0000000000000009 1.0000000000000002 
	31.939194649966812 8.1933911770562293 4.9999999999999991 1 
	31.507807244979119 8.7595833720415648 5.0000000000000009 0.99999999999999989 
	31.106555042537551 9.5249771466507163 5 0.99999999999999978 
	30.724787502476268 10.524813902733488 5 1 
	30.359460070270906 11.706935945618197 5.0000000000000009 0.99999999999999967 
	30.011205514897231 12.832785461579739 4.9999999999999991 1 
	29.661418701698814 13.760291972353684 5 1.0000000000000002 
	29.290957566656552 14.479040162247298 4.9999999999999991 1 
	28.90430050707231 14.993758413434655 5 1 
	28.48630740297256 15.352394985228353 5 1.0000000000000002 
	27.992847713746144 15.616063043731222 4.9999999999999991 1.0000000000000002 
	27.367452279290479 15.797863186188076 5 0.99999999999999989 
	26.571560282198103 15.8741061965155 5 1.0000000000000004 
	25.585276922719899 15.821764869458978 5 1.0000000000000002 
	24.397125283655843 15.635466250733005 5 1 
	22.946195920571512 15.315481450006022 5 0.99999999999999978 
	21.34445950119234 14.941055189566679 4.9999999999999991 1.0000000000000002 
	19.900842590616602 14.670803047286768 5.0000000000000009 1 
	18.681640087493985 14.55572906314425 5 0.99999999999999989 
	17.667745195410198 14.597446637140964 5.0000000000000009 0.99999999999999989 
	16.861339539224559 14.770076335123315 5 1 
	16.150678732242294 15.074902848390661 4.9999999999999982 1 
	15.42818235295541 15.559351045125783 5.0000000000000009 1 
	14.673601866921132 16.284945132655306 4.9999999999999991 1 
	13.903363794752883 17.267897875839413 5 0.99999999999999989 
	13.093119985175029 18.53652404915918 5.0000000000000009 1.0000000000000002 
	12.250757466117442 19.990252945224338 5 1 
	11.448865749837209 21.306318319694633 5 1.0000000000000002 
	10.688362607754387 22.363055960208627 5.0000000000000009 0.99999999999999989 
	9.9482171883932651 23.16356664518095 4.9999999999999991 1.0000000000000002 
	9.2347595545177974 23.718549464778228 5 1 
	8.5456889500426971 24.071385337541184 4.9999999999999991 0.99999999999999978 
	7.8567011134802902 24.266896858605516 5 1 
	7.1194209955884951 24.326091085812781 5 1 
	6.2730252571399454 24.229117952755367 5.0000000000000009 0.99999999999999989 
	5.2960455666187896 23.928554714581253 5 1 
	4.2452936834665804 23.417805798236689 5 1.0000000000000002 
	3.1813535113614195 22.741931291953328 5.0000000000000009 0.99999999999999967 
	2.0976017712377222 21.918367790287096 4.9999999999999991 1.0000000000000004 
	1.3539997283455896 21.274685602699385 5 1 
	0.97642744949293703 20.92970668808228 5 1 
	0 
	null_surface 
	null_surface 
	nullbs 
	nullbs 
	I I 
	0 
	0 
	56 0.017590888916546175 0.035139136248135611 0.052641097546151108 0.070091227303199069 0.087499428012118158 0.10488553655570527 0.12226906396029048 0.13966934302831724 0.15710141594645757 0.17457697435768502 0.19210761851331748 0.20968469789320954 0.22726275056580256 0.24480423984698088 0.26229757462617942 0.27974690708785493 0.29717325064034239 0.31460585765087928 0.33207226280937141 0.34958806149978233 0.36716471916553145 0.38478502938247372 0.40239175631851165 0.41994572631647331 0.43744221149208073 0.45488903996676333 0.47230789786317545 0.48972861125865902 0.50717694004280822 0.52467134208416244 0.54222475126111791 0.55984855730212502 0.57755250418066362 0.59529616635590943 0.61299735275518752 0.63062596114421365 0.64818710642562605 0.66569413496406227 0.68318538218601021 0.70070366286352537 0.71827508548854024 0.73591225240404201 0.75362422615137314 0.77138009555491116 0.7891026702968662 0.8067555040627814 0.82434085881361696 0.84186872863503504 0.85935640242416889 0.8768263344222903 0.89430401396172676 0.9118154471373322 0.92937655489372373 0.94698271909385767 0.96462158741893833 0.98229277208440469 
	F 1 F 0 } I I #
coedge $-1 $57 $46 $50 $87 reversed $58 $-1 #
straight-curve $-1 3 0 5 0 0 -1 I I #
straight-curve $-1 37.789968897469763 0 5 0 0 -1 I I #
edge $-1 $116 0 $51 1.5707963267948966 $50 $117 forward 7 unknown #
point $-1 3 0 5 #
point $-1 37.789968897469763 0 5 #
coedge $-1 $105 $104 $54 $91 reversed $38 $-1 #
edge $-1 $94 0 $98 0.83047633158596157 $54 $118 forward 7 unknown #
coedge $-1 $109 $55 $57 $96 reversed $70 $-1 #
coedge $-1 $55 $109 $105 $119 forward $70 $-1 #
vertex $-1 $91 $120 #
straight-curve $-1 0 18.714948432011361 0 0 -1 0 I I #
edge $-1 $116 0 $59 5 $92 $121 forward 7 unknown #
point $-1 0 3 0 #
tvertex-vertex $-1 $61 $122 2.2006233529256947e-014 #
intcurve-curve $-1 forward { exactcur full nurbs 3 open 58 
	0 3 0.017590888916546168 1 0.035139136248135611 1 0.052641097546151122 1 0.070091227303199083 1 
	0.087499428012118172 1 0.10488553655570529 1 0.12226906396029048 1 0.13966934302831724 1 0.15710141594645757 1 
	0.17457697435768502 1 0.19210761851331748 1 0.20968469789320954 1 0.22726275056580256 1 0.24480423984698088 1 
	0.26229757462617942 1 0.27974690708785493 1 0.29717325064034239 1 0.31460585765087928 1 0.33207226280937141 1 
	0.34958806149978233 1 0.36716471916553145 1 0.38478502938247372 1 0.40239175631851165 1 0.41994572631647331 1 
	0.43744221149208073 1 0.45488903996676333 1 0.47230789786317545 1 0.48972861125865902 1 0.50717694004280822 1 
	0.52467134208416244 1 0.54222475126111791 1 0.55984855730212502 1 0.57755250418066362 1 0.59529616635590943 1 
	0.61299735275518752 1 0.63062596114421365 1 0.64818710642562605 1 0.66569413496406227 1 0.68318538218601021 1 
	0.70070366286352537 1 0.71827508548854024 1 0.73591225240404201 1 0.75362422615137314 1 0.77138009555491105 1 
	0.78910267029686609 1 0.80675550406278129 1 0.82434085881361685 1 0.84186872863503492 1 0.85935640242416877 1 
	0.87682633442229019 1 0.89430401396172665 1 0.91181544713733209 1 0.92937655489372362 1 0.94698271909385756 1 
	0.96462158741893822 1 0.98229277208440446 1 0.99999999999999989 3 
	40.698674493544111 2.2655398204355839 0 1 
	40.794726369691027 2.6459370665159296 0 1.0000000000000002 
	40.949979569900783 3.3660072705326383 0 0.99999999999999978 
	41.070522160648743 4.3351430457343394 0 1 
	41.06521121581256 5.1696545648256338 0 1 
	40.944112957754129 5.8185088620775556 0 0.99999999999999978 
	40.741798550376771 6.2997293223009727 0 1 
	40.473952357410575 6.6657903172958104 0 0.99999999999999989 
	40.134188339036811 6.9520312476997059 0 1 
	39.687815515585633 7.1778617577658759 0 1.0000000000000002 
	39.105212876560863 7.3329333259217613 0 0.99999999999999978 
	38.3722321406497 7.4066774671308648 0 1.0000000000000002 
	37.453023879333252 7.3984674858711994 0 0.99999999999999967 
	36.362471486336098 7.3258118409202044 0 1 
	35.277447480064254 7.2589379350206382 0 1 
	34.320875882697599 7.2617975807366895 0 1 
	33.526478985898173 7.3579571971271154 0 1.0000000000000002 
	32.90161462971129 7.5397802385214785 0 0.99999999999999978 
	32.390662133108336 7.8046523565288517 0 1.0000000000000002 
	31.939194649966815 8.193391177056224 0 1 
	31.507807244979119 8.7595833720415666 0 0.99999999999999989 
	31.106555042537554 9.5249771466507092 0 0.99999999999999978 
	30.724787502476268 10.524813902733479 0 1 
	30.359460070270906 11.706935945618191 0 0.99999999999999967 
	30.011205514897231 12.832785461579734 0 1 
	29.661418701698814 13.760291972353686 0 1.0000000000000002 
	29.290957566656552 14.479040162247298 0 1 
	28.90430050707231 14.993758413434648 0 1 
	28.486307402972557 15.352394985228358 0 1.0000000000000002 
	27.992847713746144 15.61606304373122 0 1.0000000000000002 
	27.367452279290479 15.797863186188076 0 0.99999999999999989 
	26.571560282198103 15.8741061965155 0 1.0000000000000004 
	25.585276922719899 15.821764869458978 0 1.0000000000000002 
	24.397125283655843 15.635466250733005 0 1 
	22.946195920571512 15.315481450006022 0 0.99999999999999978 
	21.34445950119234 14.941055189566679 0 1.0000000000000002 
	19.900842590616602 14.670803047286768 0 1 
	18.681640087493985 14.55572906314425 0 0.99999999999999989 
	17.667745195410202 14.597446637140964 0 0.99999999999999989 
	16.861339539224556 14.770076335123315 0 1 
	16.150678732242298 15.074902848390657 0 1 
	15.428182352955405 15.559351045125794 0 1 
	14.673601866921132 16.284945132655302 0 1 
	13.903363794752885 17.267897875839413 0 0.99999999999999978 
	13.093119985175036 18.536524049159176 0 0.99999999999999978 
	12.250757466117438 19.990252945224338 0 1.0000000000000002 
	11.448865749837204 21.30631831969464 0 1 
	10.688362607754389 22.363055960208619 0 0.99999999999999989 
	9.9482171883932686 23.163566645180953 0 1.0000000000000002 
	9.2347595545177974 23.718549464778228 0 1 
	8.5456889500426954 24.071385337541191 0 0.99999999999999978 
	7.8567011134802804 24.266896858605506 0 1 
	7.1194209955884888 24.326091085812784 0 1 
	6.2730252571399427 24.229117952755374 0 0.99999999999999989 
	5.2960455666187807 23.928554714581256 0 1 
	4.2452936834665751 23.417805798236678 0 1.0000000000000002 
	3.1813535113614115 22.741931291953328 0 0.99999999999999967 
	2.0976017712377164 21.918367790287078 0 1.0000000000000004 
	1.3539997283455958 21.2746856026994 0 1 
	0.9764274494929549 20.929706688082305 0 1 
	0 
	null_surface 
	null_surface 
	nullbs 
	nullbs 
	I I 
	0 
	0 
	56 0.017590888916546168 0.035139136248135611 0.052641097546151122 0.070091227303199083 0.087499428012118172 0.10488553655570529 0.12226906396029048 0.13966934302831724 0.15710141594645757 0.17457697435768502 0.19210761851331748 0.20968469789320954 0.22726275056580256 0.24480423984698088 0.26229757462617942 0.27974690708785493 0.29717325064034239 0.31460585765087928 0.33207226280937141 0.34958806149978233 0.36716471916553145 0.38478502938247372 0.40239175631851165 0.41994572631647331 0.43744221149208073 0.45488903996676333 0.47230789786317545 0.48972861125865902 0.50717694004280822 0.52467134208416244 0.54222475126111791 0.55984855730212502 0.57755250418066362 0.59529616635590943 0.61299735275518752 0.63062596114421365 0.64818710642562605 0.66569413496406227 0.68318538218601021 0.70070366286352537 0.71827508548854024 0.73591225240404201 0.75362422615137314 0.77138009555491105 0.78910267029686609 0.80675550406278129 0.82434085881361685 0.84186872863503492 0.85935640242416877 0.87682633442229019 0.89430401396172665 0.91181544713733209 0.92937655489372362 0.94698271909385756 0.96462158741893822 0.98229277208440446 
	F 1 F 0 } I I #
edge $-1 $81 0 $65 5 $74 $123 forward 7 unknown #
face $-1 $-1 $64 $3 $-1 $124 forward single #
point $-1 40.698674493544097 2.2655398204355741 0 #
cone-surface $-1 3 3 5.0790535044510117 0 0 -1 -3 0 0 1 I I 0 1 3 forward I I I I #
coedge $-1 $90 $72 $73 $106 forward $38 $-1 #
coedge $-1 $72 $90 $93 $119 reversed $38 $-1 #
edge $-1 $82 8.4210901632342988e-030 $98 5 $73 $125 forward 7 unknown #
pcurve $-1 0 forward { exppc nurbs 3 open 2 
	-5 3 0 3 
	0.010677465189755818 0 1 
	0.010677465189755819 1.6666666666666665 1 
	0.010677465189755823 3.333333333333333 1 
	0.010677465189755826 5 1 
	0.001 
	spline forward { ref 0 } I I I I 
	} 0 0 #
pcurve $-1 0 forward { exppc nurbs 3 open 2 
	0 3 5 3 
	0.98136362580867575 5 1 
	0.98136362580867575 3.333333333333333 1 
	0.98136362580867575 1.6666666666666665 1 
	0.98136362580867575 0 1 
	0.001 
	spline forward { ref 0 } I I I I 
	} 0 0 #
coedge $-1 $93 $92 $76 $110 reversed $70 $-1 #
edge $-1 $111 3.5527136788005009e-015 $116 15.714948432011358 $76 $126 forward 7 unknown #
vertex $-1 $110 $127 #
ellipse-curve $-1 2.9999999999999991 18.714948432011358 5 0 0 1 -2.0235725505070552 2.2147582560709331 0 1 I I #
ellipse-curve $-1 37.789968897469763 2.9999999999999929 5 0 0 1 0 -2.9999999999999929 0 1 I I #
point $-1 40.698674493544097 2.2655398204355741 5 #
point $-1 0.97642744949293758 20.929706688082284 5 #
vertex $-1 $87 $128 #
ellipse-curve $-1 3 3 5 0 0 1 -3 0 0 1 I I #
ellipse-curve $-1 3.0000000000000018 18.714948432011354 0 2.9605947323337491e-016 0 -1 -3.0000000000000018 0 -8.8817841970012523e-016 1 I I #
edge $-1 $111 0 $94 5.0000000000000009 $93 $129 forward 7 unknown #
point $-1 2.2204460492503131e-016 18.714948432011354 -8.8817841970012523e-016 #
straight-curve $-1 0 3 5 0 0 -1 I I #
point $-1 0.97642744949295424 20.929706688082305 0 #
straight-curve $-1 40.698674493544097 2.2655398204355741 5 0 0 -1 I I #
cone-surface $-1 37.789968897469755 3 5.0790535044510117 0 0 -1 0 -3 0 1 I I 0 1 3 forward I I I I #
straight-curve $-1 0.97642744949294391 20.929706688082291 5 -5.3290705182007502e-016 -7.1054273576010003e-016 -1 I I #
straight-curve $-1 0 18.714948432011358 5 0 -1 0 I I #
point $-1 2.2204460492503131e-016 18.714948432011354 5 #
point $-1 0 3 5 #
straight-curve $-1 0 18.714948432011354 5 0 0 -1 I I #
End-of-ACIS-data 