104 426 0 0                             
body $-1 $1 $-1 $2 #
lump $-1 $-1 $3 $0 #
transform $-1 1 0 0 0 1 0 0 0 1 0 0 0 1 0 0 0 #
shell $-1 $-1 $-1 $4 $1 #
face $-1 $5 $6 $3 $-1 $7 0 #
face $-1 $8 $9 $3 $-1 $10 0 #
loop $-1 $11 $12 $4 #
plane-surface $-1 0 0 0.09 0 0 -1 -1 0 0 0 #
face $-1 $13 $14 $3 $-1 $15 1 #
loop $-1 $-1 $16 $5 #
plane-surface $-1 0 0 0.07 0 0 -1 -1 0 0 0 #
loop $-1 $17 $18 $4 #
coedge $-1 $12 $12 $19 $20 0 $6 $-1 #
face $-1 $21 $22 $3 $-1 $23 1 #
loop $-1 $24 $25 $8 #
cone-surface $-1 -0.085 0.19 0 0 0 1 0.0805 0 0 1 0 1 0 #
coedge $-1 $26 $27 $28 $29 0 $9 $-1 #
loop $-1 $30 $31 $4 #
coedge $-1 $18 $18 $25 $32 0 $11 $-1 #
coedge $-1 $19 $19 $12 $20 1 $33 $-1 #
edge $-1 $34 $34 $19 $35 0 #
face $-1 $36 $37 $3 $-1 $38 1 #
loop $-1 $-1 $39 $13 #
plane-surface $-1 0 0.68 0 0 -1 0 0 0 -1 0 #
loop $-1 $-1 $40 $8 #
coedge $-1 $25 $25 $18 $32 1 $14 $-1 #
coedge $-1 $41 $16 $42 $43 1 $9 $-1 #
coedge $-1 $16 $41 $44 $45 1 $9 $-1 #
coedge $-1 $46 $47 $16 $29 1 $48 $-1 #
edge $-1 $49 $50 $28 $51 0 #
loop $-1 $-1 $52 $4 #
coedge $-1 $53 $54 $55 $56 0 $17 $-1 #
edge $-1 $57 $57 $25 $58 0 #
loop $-1 $-1 $19 $59 #
vertex $-1 $20 $60 #
ellipse-curve $-1 -0.085 -0.19 0.09 3.44789759200359e-16 0 1 -0.0805 0 2.77555756156289e-17 1 #
face $-1 $61 $62 $3 $-1 $63 1 #
loop $-1 $-1 $44 $21 #
plane-surface $-1 0.225 0.59 0.07 0 -1 0 0 0 -1 0 #
coedge $-1 $64 $65 $66 $67 0 $22 $-1 #
coedge $-1 $40 $40 $68 $69 1 $24 $-1 #
coedge $-1 $27 $26 $70 $71 1 $9 $-1 #
coedge $-1 $72 $73 $26 $43 0 $74 $-1 #
edge $-1 $75 $50 $26 $76 0 #
coedge $-1 $77 $78 $27 $45 0 $37 $-1 #
edge $-1 $49 $79 $27 $80 0 #
coedge $-1 $55 $28 $78 $81 1 $48 $-1 #
coedge $-1 $28 $82 $72 $83 1 $48 $-1 #
loop $-1 $-1 $84 $85 #
vertex $-1 $45 $86 #
vertex $-1 $43 $87 #
straight-curve $-1 0.225 0.59 0.07 0 -1 0 #
coedge $-1 $88 $89 $90 $91 1 $30 $-1 #
coedge $-1 $92 $31 $93 $94 1 $17 $-1 #
coedge $-1 $31 $95 $96 $97 1 $17 $-1 #
coedge $-1 $98 $46 $31 $56 1 $48 $-1 #
edge $-1 $99 $100 $55 $101 0 #
vertex $-1 $32 $102 #
ellipse-curve $-1 -0.085 0.19 0.09 3.44789759200359e-16 0 1 -0.0805 0 2.77555756156289e-17 1 #
face $-1 $-1 $103 $3 $-1 $104 1 #
point $-1 -0.00449999999999999 -0.19 0.09 #
face $-1 $105 $74 $3 $-1 $106 1 #
loop $-1 $-1 $107 $36 #
plane-surface $-1 0.175 0.59 0.07 1 0 0 0 0 -1 0 #
coedge $-1 $96 $39 $98 $108 0 $22 $-1 #
coedge $-1 $39 $96 $109 $110 0 $22 $-1 #
coedge $-1 $111 $112 $39 $67 1 $113 $-1 #
edge $-1 $114 $115 $66 $116 1 #
coedge $-1 $68 $68 $40 $69 0 $117 $-1 #
edge $-1 $118 $118 $40 $119 1 #
coedge $-1 $107 $120 $41 $71 0 $62 $-1 #
edge $-1 $79 $75 $41 $121 0 #
coedge $-1 $122 $42 $47 $83 0 $74 $-1 #
coedge $-1 $42 $122 $107 $123 0 $74 $-1 #
loop $-1 $-1 $122 $61 #
vertex $-1 $123 $124 #
straight-curve $-1 0.175 0.29 0.07 1 0 0 #
coedge $-1 $93 $44 $120 $125 1 $37 $-1 #
coedge $-1 $44 $93 $46 $81 0 $37 $-1 #
vertex $-1 $125 $126 #
straight-curve $-1 0.225 0.59 0.07 -1 0 0 #
edge $-1 $100 $49 $46 $127 1 #
coedge $-1 $47 $128 $129 $130 1 $48 $-1 #
edge $-1 $50 $131 $47 $132 0 #
coedge $-1 $133 $98 $112 $134 1 $48 $-1 #
face $-1 $135 $48 $3 $-1 $136 0 #
point $-1 0.225 0.59 0.07 #
point $-1 0.225 0.29 0.07 #
coedge $-1 $137 $52 $138 $139 1 $30 $-1 #
coedge $-1 $52 $137 $140 $141 1 $30 $-1 #
coedge $-1 $142 $143 $52 $91 0 $144 $-1 #
edge $-1 $145 $146 $52 $147 1 #
coedge $-1 $148 $53 $149 $150 1 $17 $-1 #
coedge $-1 $78 $77 $53 $94 0 $37 $-1 #
edge $-1 $151 $100 $53 $152 1 #
coedge $-1 $54 $153 $154 $155 0 $17 $-1 #
coedge $-1 $65 $64 $54 $97 0 $22 $-1 #
edge $-1 $99 $156 $54 $157 1 #
coedge $-1 $84 $55 $64 $108 1 $48 $-1 #
vertex $-1 $97 $158 #
vertex $-1 $94 $159 #
straight-curve $-1 0.225 0.68 0.09 0 -1 0 #
point $-1 -0.00449999999999999 0.19 0.09 #
loop $-1 $33 $160 $59 #
cone-surface $-1 -0.085 -0.19 0 0 0 1 0.0805 0 0 1 0 1 0 #
face $-1 $85 $161 $3 $-1 $162 1 #
plane-surface $-1 0.175 0.29 0.07 0 1 0 0 0 1 0 #
coedge $-1 $149 $70 $73 $123 1 $62 $-1 #
edge $-1 $115 $99 $98 $163 0 #
coedge $-1 $154 $164 $65 $110 1 $165 $-1 #
edge $-1 $156 $114 $109 $166 1 #
coedge $-1 $167 $66 $164 $168 0 $113 $-1 #
coedge $-1 $66 $167 $84 $134 0 $113 $-1 #
loop $-1 $117 $111 $169 #
vertex $-1 $67 $170 #
vertex $-1 $67 $171 #
straight-curve $-1 0.225 0.68 0.18 -1 0 0 #
loop $-1 $172 $68 $169 #
vertex $-1 $69 $173 #
ellipse-curve $-1 -0.085 0.19 0.18 3.44789759200359e-16 0 1 -0.0805 0 2.77555756156289e-17 1 #
coedge $-1 $70 $149 $77 $125 0 $62 $-1 #
straight-curve $-1 0.175 0.59 0.07 0 -1 0 #
coedge $-1 $73 $72 $148 $174 0 $74 $-1 #
edge $-1 $175 $75 $107 $176 1 #
point $-1 0.175 0.29 0.07 #
edge $-1 $151 $79 $77 $177 1 #
point $-1 0.175 0.59 0.07 #
straight-curve $-1 0.225 0.59 0.07 0 0 1 #
coedge $-1 $82 $178 $179 $180 1 $48 $-1 #
coedge $-1 $181 $148 $82 $130 0 $17 $-1 #
edge $-1 $131 $182 $82 $183 0 #
vertex $-1 $174 $184 #
straight-curve $-1 0.225 0.29 0.07 0 0 1 #
coedge $-1 $185 $84 $186 $187 1 $48 $-1 #
edge $-1 $188 $115 $84 $189 1 #
face $-1 $190 $191 $3 $-1 $10 0 #
plane-surface $-1 0.225 0.7175 0 1 0 0 0 0 -1 0 #
coedge $-1 $89 $88 $192 $193 1 $30 $-1 #
coedge $-1 $194 $195 $88 $139 0 $196 $-1 #
edge $-1 $197 $145 $88 $198 1 #
coedge $-1 $199 $200 $89 $141 0 $201 $-1 #
edge $-1 $146 $202 $89 $203 1 #
coedge $-1 $204 $90 $200 $205 0 $144 $-1 #
coedge $-1 $90 $204 $194 $206 1 $144 $-1 #
loop $-1 $-1 $142 $207 #
vertex $-1 $206 $208 #
vertex $-1 $205 $209 #
ellipse-curve $-1 0.0965 -0.1385 0.09 0 0 1 -0.0235 0 0 1 #
coedge $-1 $129 $92 $122 $174 1 $17 $-1 #
coedge $-1 $120 $107 $92 $150 0 $62 $-1 #
edge $-1 $175 $151 $92 $210 1 #
vertex $-1 $125 $211 #
straight-curve $-1 0.225 0.59 0.09 -1 0 0 #
coedge $-1 $95 $212 $213 $214 1 $17 $-1 #
coedge $-1 $215 $109 $95 $155 1 $165 $-1 #
edge $-1 $216 $156 $154 $217 1 #
vertex $-1 $97 $218 #
straight-curve $-1 -0.225 0.68 0.09 1 0 0 #
point $-1 0.225 0.68 0.09 #
point $-1 0.225 0.59 0.09 #
coedge $-1 $160 $160 $219 $220 1 $103 $-1 #
loop $-1 $-1 $221 $105 #
plane-surface $-1 0.175 -0.59 0.07 0 1 0 0 0 1 0 #
straight-curve $-1 0.225 0.68 0.18 0 0 -1 #
coedge $-1 $109 $215 $111 $168 1 $165 $-1 #
loop $-1 $-1 $154 $222 #
straight-curve $-1 -0.225 0.68 0.18 0 0 -1 #
coedge $-1 $112 $111 $223 $224 1 $113 $-1 #
edge $-1 $114 $225 $164 $226 0 #
face $-1 $227 $228 $3 $-1 $229 0 #
point $-1 -0.225 0.68 0.18 #
point $-1 0.225 0.68 0.18 #
loop $-1 $-1 $219 $169 #
point $-1 -0.00449999999999999 0.19 0.18 #
edge $-1 $131 $175 $148 $230 1 #
vertex $-1 $123 $231 #
straight-curve $-1 0.175 0.29 0.07 0 0 1 #
straight-curve $-1 0.175 0.59 0.07 0 0 1 #
coedge $-1 $128 $232 $233 $234 1 $48 $-1 #
coedge $-1 $235 $236 $128 $180 0 $237 $-1 #
edge $-1 $182 $238 $128 $239 1 #
coedge $-1 $240 $129 $236 $241 1 $17 $-1 #
vertex $-1 $241 $242 #
straight-curve $-1 0.225 0.29 0.09 0 -1 0 #
point $-1 0.225 0.29 0.09 #
coedge $-1 $232 $133 $243 $244 1 $48 $-1 #
coedge $-1 $223 $245 $133 $187 0 $246 $-1 #
edge $-1 $247 $188 $133 $248 1 #
vertex $-1 $224 $249 #
straight-curve $-1 0.225 0.68 0.18 0 -1 0 #
face $-1 $250 $237 $3 $-1 $251 1 #
loop $-1 $-1 $252 $135 #
coedge $-1 $253 $254 $137 $193 0 $255 $-1 #
edge $-1 $202 $197 $137 $256 1 #
coedge $-1 $257 $138 $143 $206 0 $196 $-1 #
coedge $-1 $138 $257 $253 $258 1 $196 $-1 #
loop $-1 $-1 $194 $227 #
vertex $-1 $258 $259 #
straight-curve $-1 0.12 -0.1385 0.09 0 1 0 #
coedge $-1 $260 $140 $254 $261 1 $201 $-1 #
coedge $-1 $140 $260 $142 $205 1 $201 $-1 #
loop $-1 $-1 $199 $262 #
vertex $-1 $261 $263 #
straight-curve $-1 0.073 0.1385 0.09 0 -1 0 #
coedge $-1 $143 $142 $264 $265 0 $144 $-1 #
edge $-1 $146 $266 $200 $267 1 #
edge $-1 $145 $268 $143 $269 1 #
face $-1 $270 $144 $3 $-1 $271 1 #
point $-1 0.12 -0.1385 0.09 #
point $-1 0.073 -0.1385 0.09 #
straight-curve $-1 0.175 0.59 0.09 0 -1 0 #
point $-1 0.175 0.59 0.09 #
coedge $-1 $153 $272 $273 $274 1 $17 $-1 #
coedge $-1 $275 $276 $153 $214 0 $246 $-1 #
edge $-1 $216 $277 $153 $278 0 #
coedge $-1 $164 $154 $276 $279 1 $165 $-1 #
vertex $-1 $214 $280 #
straight-curve $-1 -0.225 0.68 0.09 0 -1 0 #
point $-1 -0.225 0.68 0.09 #
coedge $-1 $219 $219 $160 $220 0 $172 $-1 #
edge $-1 $281 $281 $160 $282 1 #
coedge $-1 $283 $284 $285 $286 1 $161 $-1 #
face $-1 $169 $165 $3 $-1 $287 1 #
coedge $-1 $276 $186 $167 $224 0 $246 $-1 #
edge $-1 $188 $225 $167 $288 0 #
vertex $-1 $224 $289 #
straight-curve $-1 -0.225 0.68 0.18 0 -1 0 #
face $-1 $290 $196 $3 $-1 $291 1 #
loop $-1 $113 $292 $169 #
plane-surface $-1 0 0 0.18 0 0 1 1 0 0 0 #
straight-curve $-1 0.175 0.29 0.09 1 0 0 #
point $-1 0.175 0.29 0.09 #
coedge $-1 $178 $185 $293 $294 1 $48 $-1 #
coedge $-1 $295 $296 $178 $234 0 $191 $-1 #
edge $-1 $238 $297 $178 $298 0 #
coedge $-1 $299 $179 $296 $300 0 $237 $-1 #
coedge $-1 $179 $299 $181 $241 0 $237 $-1 #
loop $-1 $-1 $235 $190 #
vertex $-1 $300 $301 #
straight-curve $-1 0.225 -0.29 0.07 0 0 1 #
coedge $-1 $272 $181 $302 $303 1 $17 $-1 #
edge $-1 $304 $182 $181 $305 1 #
point $-1 0.225 -0.29 0.09 #
coedge $-1 $306 $307 $185 $244 0 $308 $-1 #
edge $-1 $309 $247 $185 $310 0 #
coedge $-1 $186 $311 $306 $312 0 $246 $-1 #
loop $-1 $-1 $213 $313 #
vertex $-1 $312 $314 #
straight-curve $-1 0.225 -0.68 0.18 0 0 -1 #
point $-1 0.225 -0.68 0.18 #
face $-1 $315 $316 $3 $-1 $317 0 #
plane-surface $-1 0.225 -0.29 0.07 0 -1 0 0 0 -1 0 #
coedge $-1 $296 $295 $318 $319 1 $191 $-1 #
coedge $-1 $320 $192 $195 $258 0 $255 $-1 #
coedge $-1 $192 $320 $199 $261 0 $255 $-1 #
loop $-1 $-1 $253 $290 #
ellipse-curve $-1 0.0965 0.1385 0.09 0 0 1 0.0235 0 0 1 #
coedge $-1 $195 $194 $321 $322 0 $196 $-1 #
edge $-1 $197 $323 $195 $324 1 #
point $-1 0.12 0.1385 0.09 #
coedge $-1 $200 $199 $325 $326 0 $201 $-1 #
edge $-1 $327 $202 $199 $328 0 #
face $-1 $207 $201 $3 $-1 $329 1 #
point $-1 0.073 0.1385 0.09 #
coedge $-1 $325 $321 $204 $265 1 $228 $-1 #
edge $-1 $266 $268 $264 $330 0 #
vertex $-1 $205 $331 #
straight-curve $-1 0.073 -0.1385 0.18 0 0 -1 #
vertex $-1 $206 $332 #
straight-curve $-1 0.12 -0.1385 0.18 0 0 -1 #
face $-1 $59 $308 $3 $-1 $7 0 #
cone-surface $-1 0.0965 -0.1385 0.18 0 0 1 0 0.0235 0 1 0 1 0 #
coedge $-1 $212 $240 $333 $334 1 $17 $-1 #
coedge $-1 $335 $336 $212 $274 0 $337 $-1 #
edge $-1 $277 $338 $212 $339 0 #
coedge $-1 $340 $213 $336 $341 0 $246 $-1 #
coedge $-1 $213 $223 $215 $279 0 $246 $-1 #
vertex $-1 $341 $342 #
straight-curve $-1 -0.225 -0.68 0.09 1 0 0 #
edge $-1 $225 $216 $215 $343 0 #
point $-1 -0.225 -0.68 0.09 #
vertex $-1 $220 $344 #
ellipse-curve $-1 -0.085 -0.19 0.18 3.44789759200359e-16 0 1 -0.0805 0 2.77555756156289e-17 1 #
coedge $-1 $293 $221 $295 $345 0 $161 $-1 #
coedge $-1 $221 $293 $307 $346 0 $161 $-1 #
coedge $-1 $347 $318 $221 $286 0 $348 $-1 #
edge $-1 $349 $350 $221 $351 0 #
plane-surface $-1 -0.225 0.7175 0 1 0 0 0 0 -1 0 #
straight-curve $-1 0.225 -0.68 0.18 -1 0 0 #
point $-1 -0.225 -0.68 0.18 #
face $-1 $262 $255 $3 $-1 $352 1 #
plane-surface $-1 0.12 -0.1385 0.18 1 0 0 0 0 -1 0 #
coedge $-1 $321 $325 $320 $353 1 $228 $-1 #
coedge $-1 $284 $283 $232 $294 0 $161 $-1 #
edge $-1 $297 $309 $232 $354 0 #
coedge $-1 $252 $233 $283 $345 1 $191 $-1 #
coedge $-1 $233 $252 $235 $300 1 $191 $-1 #
vertex $-1 $345 $355 #
straight-curve $-1 0.225 -0.29 0.07 0 -1 0 #
coedge $-1 $236 $235 $356 $357 1 $237 $-1 #
edge $-1 $238 $358 $296 $359 0 #
point $-1 0.225 -0.29 0.07 #
coedge $-1 $356 $360 $240 $303 0 $348 $-1 #
edge $-1 $361 $304 $240 $362 1 #
vertex $-1 $357 $363 #
straight-curve $-1 0.225 -0.29 0.09 -1 0 0 #
coedge $-1 $364 $243 $245 $312 1 $308 $-1 #
coedge $-1 $243 $364 $284 $346 1 $308 $-1 #
loop $-1 $-1 $364 $270 #
vertex $-1 $346 $365 #
straight-curve $-1 0.225 -0.59 0.09 0 -1 0 #
coedge $-1 $245 $340 $366 $367 0 $246 $-1 #
edge $-1 $368 $247 $306 $369 0 #
face $-1 $222 $246 $3 $-1 $370 1 #
point $-1 0.225 -0.68 0.09 #
face $-1 $371 $348 $3 $-1 $372 1 #
loop $-1 $-1 $373 $250 #
plane-surface $-1 0 0 0.15 0 0 -1 -1 0 0 0 #
coedge $-1 $285 $356 $252 $319 0 $348 $-1 #
edge $-1 $358 $349 $252 $374 0 #
coedge $-1 $254 $253 $292 $353 0 $255 $-1 #
coedge $-1 $264 $292 $257 $322 1 $228 $-1 #
edge $-1 $268 $323 $321 $375 0 #
vertex $-1 $258 $376 #
straight-curve $-1 0.12 0.1385 0.18 0 0 -1 #
coedge $-1 $292 $264 $260 $326 1 $228 $-1 #
edge $-1 $327 $266 $325 $377 0 #
vertex $-1 $261 $378 #
straight-curve $-1 0.073 0.1385 0.18 0 0 -1 #
plane-surface $-1 0.073 0.1385 0.18 -1 0 0 0 0 1 0 #
ellipse-curve $-1 0.0965 -0.1385 0.18 0 0 1 -0.0235 0 0 1 #
point $-1 0.073 -0.1385 0.18 #
point $-1 0.12 -0.1385 0.18 #
coedge $-1 $379 $380 $272 $334 0 $381 $-1 #
edge $-1 $338 $361 $272 $382 0 #
coedge $-1 $383 $273 $380 $384 0 $337 $-1 #
coedge $-1 $273 $383 $275 $341 1 $337 $-1 #
loop $-1 $-1 $273 $385 #
vertex $-1 $384 $386 #
straight-curve $-1 0.075 -0.68 0.09 0 1 0 #
coedge $-1 $311 $275 $387 $388 0 $246 $-1 #
edge $-1 $277 $389 $336 $390 1 #
point $-1 0.075 -0.68 0.09 #
straight-curve $-1 -0.225 -0.68 0.18 0 0 -1 #
point $-1 -0.1655 -0.19 0.18 #
edge $-1 $349 $297 $295 $391 0 #
edge $-1 $309 $350 $307 $392 1 #
coedge $-1 $366 $285 $364 $393 0 $348 $-1 #
loop $-1 $-1 $394 $315 #
vertex $-1 $286 $395 #
vertex $-1 $286 $396 #
straight-curve $-1 0.175 -0.59 0.07 0 0 1 #
cone-surface $-1 0.0965 0.1385 0.18 0 0 1 0 0.0235 0 1 0 1 0 #
edge $-1 $323 $327 $292 $397 0 #
straight-curve $-1 0.225 -0.59 0.07 0 0 1 #
point $-1 0.225 -0.59 0.07 #
coedge $-1 $318 $302 $299 $357 0 $348 $-1 #
edge $-1 $304 $358 $299 $398 1 #
vertex $-1 $357 $399 #
straight-curve $-1 0.225 -0.29 0.07 -1 0 0 #
coedge $-1 $302 $394 $379 $400 1 $348 $-1 #
vertex $-1 $400 $401 #
straight-curve $-1 0.175 -0.29 0.09 0 -1 0 #
point $-1 0.175 -0.29 0.09 #
coedge $-1 $307 $306 $347 $393 1 $308 $-1 #
point $-1 0.225 -0.59 0.09 #
coedge $-1 $394 $347 $311 $367 1 $348 $-1 #
edge $-1 $402 $368 $366 $403 0 #
vertex $-1 $367 $404 #
straight-curve $-1 0.175 -0.68 0.09 1 0 0 #
plane-surface $-1 0 -0.68 0 0 1 0 0 0 1 0 #
face $-1 $385 $381 $3 $-1 $405 1 #
plane-surface $-1 0.175 -0.29 0.07 1 0 0 0 0 -1 0 #
coedge $-1 $406 $387 $383 $407 1 $316 $-1 #
straight-curve $-1 0.175 -0.29 0.07 0 -1 0 #
straight-curve $-1 0.12 -0.1385 0.18 0 1 0 #
point $-1 0.12 0.1385 0.18 #
straight-curve $-1 0.073 0.1385 0.18 0 -1 0 #
point $-1 0.073 0.1385 0.18 #
coedge $-1 $408 $333 $360 $400 0 $381 $-1 #
coedge $-1 $333 $408 $335 $384 1 $381 $-1 #
loop $-1 $-1 $379 $371 #
ellipse-curve $-1 0.125 -0.55 0.09 0 0 -1 -0.05 0 0 1 #
coedge $-1 $336 $335 $373 $407 0 $337 $-1 #
edge $-1 $338 $409 $380 $410 0 #
face $-1 $313 $337 $3 $-1 $411 1 #
point $-1 0.075 -0.55 0.09 #
coedge $-1 $373 $412 $340 $388 1 $316 $-1 #
edge $-1 $389 $402 $387 $413 0 #
vertex $-1 $341 $414 #
straight-curve $-1 0.075 -0.68 0.15 0 0 -1 #
straight-curve $-1 0.175 -0.59 0.07 1 0 0 #
straight-curve $-1 0.175 -0.59 0.09 1 0 0 #
edge $-1 $350 $368 $364 $415 0 #
coedge $-1 $360 $366 $412 $416 1 $348 $-1 #
point $-1 0.175 -0.59 0.07 #
point $-1 0.175 -0.59 0.09 #
ellipse-curve $-1 0.0965 0.1385 0.18 0 0 1 0.0235 0 0 1 #
straight-curve $-1 0.175 -0.29 0.07 0 0 1 #
point $-1 0.175 -0.29 0.07 #
edge $-1 $361 $417 $360 $418 0 #
point $-1 0.175 -0.55 0.09 #
vertex $-1 $388 $419 #
straight-curve $-1 0.175 -0.68 0.15 0 -3.70074341541719e-15 -1 #
point $-1 0.175 -0.68 0.09 #
cone-surface $-1 0.125 -0.55 0.09 0 0 -1 0.05 0 0 1 0 1 0 #
coedge $-1 $412 $373 $408 $420 1 $316 $-1 #
edge $-1 $409 $389 $373 $421 1 #
coedge $-1 $380 $379 $406 $420 0 $381 $-1 #
vertex $-1 $384 $422 #
straight-curve $-1 0.075 -0.55 0.09 0 0 1 #
plane-surface $-1 0.075 -0.7925 0.09 -1 0 0 0 0 1 0 #
coedge $-1 $387 $406 $394 $416 0 $316 $-1 #
straight-curve $-1 0.075 -0.68 0.15 1 0 0 #
point $-1 0.075 -0.68 0.15 #
straight-curve $-1 0.175 -0.59 0.09 0 -1 0 #
edge $-1 $417 $402 $394 $423 0 #
vertex $-1 $420 $424 #
straight-curve $-1 0.175 -0.55 0.09 0 0 1 #
point $-1 0.175 -0.68 0.15 #
edge $-1 $417 $409 $406 $425 1 #
straight-curve $-1 0.075 -0.68 0.15 0 1 0 #
point $-1 0.075 -0.55 0.15 #
straight-curve $-1 0.175 -0.55 0.15 0 -1 0 #
point $-1 0.175 -0.55 0.15 #
ellipse-curve $-1 0.125 -0.55 0.15 5.55111512312578e-16 0 -1 -0.05 0 -2.77555756156289e-17 1 #
