600 0 2 0           
24 FBMach with ACIS - 6.0.3 13 ACIS 6.0.3 NT 24 Wed May 23 10:53:24 2001 
1 9.9999999999999995e-007 1e-010 
body $2 $3 $-1 $4 #
bdycol-kcp $-1 1 2 $5 $6 #
model_id-kcp-attrib $-1 $-1 $-1 $0 1 990629604 50 305266689 1 #
lump $-1 $-1 $7 $0 #
transform $-1 -3.4914833611093801e-015 -1 0 1 -3.4914833611093801e-015 0 0 0 1 -200 0 0 1 rotate no_reflect no_shear #
body $8 $9 $-1 $10 #
body $11 $12 $-1 $13 #
shell $-1 $-1 $-1 $14 $-1 $3 #
model_id-kcp-attrib $-1 $-1 $-1 $5 1 990629604 50 305266690 1 #
lump $-1 $-1 $15 $5 #
transform $-1 1 0 0 0 1 0 0 0 1 60.000000000000028 -9.2548191332753049e-013 0 1 no_rotate no_reflect no_shear #
rgb_color-st-attrib $-1 $16 $-1 $6 0.5 1 1 #
lump $-1 $-1 $17 $6 #
transform $-1 1 0 0 0 1 0 0 0 1 60.000000000000028 -9.2548191332753049e-013 0 1 no_rotate no_reflect no_shear #
face $18 $19 $20 $7 $-1 $21 forward single #
shell $-1 $-1 $-1 $22 $-1 $9 #
model_id-kcp-attrib $-1 $-1 $11 $6 1 990629604 120 309854211 1 #
shell $-1 $-1 $-1 $23 $-1 $12 #
model_id-kcp-attrib $-1 $24 $-1 $14 1 990629604 50 305266689 2 #
face $25 $26 $27 $7 $-1 $28 forward single #
loop $-1 $-1 $29 $14 #
sphere-surface $-1 3.3750779948604803e-014 500 0 20 1 0 0 0 0 1 forward_v I I I I #
face $-1 $30 $31 $15 $-1 $32 forward single #
face $-1 $33 $34 $17 $-1 $35 reversed single #
sti_colour_lwattr-sg-attrib $-1 $-1 $18 $14 4 2 1 0.964999973773956 0.800000011920929 0.699999988079071 0.5 0.5 0 30 0 1 0 0 0.5 #
model_id-kcp-attrib $-1 $36 $-1 $19 1 990629604 50 305266689 3 #
face $37 $38 $39 $7 $-1 $40 forward single #
loop $-1 $41 $42 $19 #
cone-surface $-1 0 400 0 0 1 0 20 0 0 1 I I 0 1 20 forward I I I I #
coedge $-1 $29 $29 $42 $43 forward $20 $-1 #
face $-1 $44 $45 $15 $-1 $46 reversed single #
loop $-1 $-1 $47 $22 #
plane-surface $-1 0 0 20 0 0 1 1 0 0 forward_v I I I I #
face $-1 $48 $49 $17 $-1 $35 reversed single #
loop $-1 $-1 $50 $23 #
cone-surface $-1 -260 9.2548191332753049e-013 0 -1 3.4914833611093801e-015 0 -6.9829667222187603e-014 -20 0 1 I I 0 1 20 forward I I I I #
sti_colour_lwattr-sg-attrib $-1 $-1 $25 $19 4 2 1 0.964999973773956 0.800000011920929 0.699999988079071 0.5 0.5 0 30 0 1 0 0 0.5 #
model_id-kcp-attrib $-1 $51 $-1 $26 1 990629604 50 305266689 4 #
face $52 $53 $54 $7 $-1 $55 forward single #
loop $-1 $56 $57 $26 #
cone-surface $-1 0 155 0 0 1 0 12.5 0 0 1 I I 0.0516550854280401 0.99866498494210898 12.5 forward I I I I #
loop $-1 $-1 $58 $19 #
coedge $-1 $42 $42 $29 $43 reversed $27 $-1 #
edge $-1 $59 0 $59 6.2831853071795862 $29 $60 forward 7 unknown #
face $-1 $61 $62 $15 $-1 $63 reversed single #
loop $-1 $-1 $64 $30 #
plane-surface $-1 0 0 -20 0 0 1 1 0 0 forward_v I I I I #
coedge $-1 $65 $66 $67 $68 forward $31 $-1 #
face $-1 $69 $70 $17 $-1 $35 reversed single #
loop $-1 $-1 $71 $33 #
coedge $-1 $72 $73 $74 $75 reversed $34 $-1 #
sti_colour_lwattr-sg-attrib $-1 $-1 $37 $26 4 2 1 0.964999973773956 0.800000011920929 0.699999988079071 0.5 0.5 0 30 0 1 0 0 0.5 #
model_id-kcp-attrib $-1 $76 $-1 $38 1 990629604 50 305266689 8 #
face $77 $78 $79 $7 $-1 $80 forward single #
loop $-1 $-1 $81 $38 #
plane-surface $-1 5 0 0 0 -1 0 0 0 -1 forward_v I I I I #
loop $-1 $-1 $82 $26 #
coedge $-1 $57 $57 $58 $83 reversed $39 $-1 #
coedge $-1 $58 $58 $57 $83 forward $41 $-1 #
vertex $-1 $43 $84 #
ellipse-curve $-1 0 500 0 0 1 0 20 0 0 1 I I #
face $85 $86 $87 $15 $-1 $88 reversed single #
loop $-1 $-1 $89 $44 #
plane-surface $-1 0 -20.000000000000924 0 0 1 0 0 0 1 forward_v I I I I #
coedge $-1 $90 $91 $92 $93 forward $45 $-1 #
coedge $-1 $94 $47 $95 $96 forward $31 $-1 #
coedge $-1 $47 $94 $97 $98 forward $31 $-1 #
coedge $-1 $99 $100 $47 $68 reversed $101 $-1 #
edge $-1 $102 -20.000000000000924 $103 20.000000000000924 $67 $104 forward 7 unknown #
face $-1 $105 $106 $17 $-1 $35 reversed single #
loop $-1 $-1 $107 $48 #
coedge $-1 $108 $109 $110 $111 reversed $49 $-1 #
coedge $-1 $112 $50 $113 $114 forward $34 $-1 #
coedge $-1 $50 $112 $115 $116 reversed $34 $-1 #
coedge $-1 $117 $118 $50 $75 forward $119 $-1 #
edge $-1 $120 1.5707963267948966 $121 3.1415926535897931 $74 $122 forward 7 unknown #
model_id-kcp-attrib $-1 $123 $52 $38 1 990629604 50 305266689 5 #
model_id-kcp-attrib $-1 $124 $-1 $53 1 990629604 50 305266689 6 #
face $125 $-1 $126 $7 $-1 $127 forward single #
loop $-1 $128 $129 $53 #
plane-surface $-1 7.5 10 0 0 1 0 0 0 1 forward_v I I I I #
coedge $-1 $81 $81 $130 $131 reversed $54 $-1 #
coedge $-1 $82 $82 $129 $132 forward $56 $-1 #
edge $-1 $133 0 $133 6.2831853071795862 $58 $134 forward 7 unknown #
point $-1 20 500 0 #
model_id-kcp-attrib $-1 $-1 $-1 $61 1 990629604 50 305266690 2 #
face $-1 $135 $136 $15 $-1 $137 reversed single #
loop $-1 $-1 $138 $61 #
plane-surface $-1 -260.00000000000011 0 0 1 0 0 0 0 -1 forward_v I I I I #
coedge $-1 $139 $97 $140 $141 forward $62 $-1 #
coedge $-1 $142 $64 $139 $143 forward $45 $-1 #
coedge $-1 $64 $142 $144 $145 forward $45 $-1 #
coedge $-1 $100 $99 $64 $93 reversed $101 $-1 #
edge $-1 $146 -20.000000000000924 $147 20.000000000000924 $92 $148 forward 7 unknown #
coedge $-1 $66 $65 $149 $150 forward $31 $-1 #
coedge $-1 $151 $152 $65 $96 reversed $136 $-1 #
edge $-1 $103 -260.00000000000011 $153 260.00000000000011 $95 $154 forward 7 unknown #
coedge $-1 $89 $155 $66 $98 reversed $62 $-1 #
edge $-1 $156 -260.00000000000011 $102 260.00000000000011 $97 $157 forward 7 unknown #
coedge $-1 $92 $67 $155 $158 forward $101 $-1 #
coedge $-1 $67 $92 $151 $159 reversed $101 $-1 #
loop $-1 $-1 $99 $135 #
vertex $-1 $68 $160 #
vertex $-1 $68 $161 #
straight-curve $-1 260.00000000000011 0 20 0 1 0 I I #
face $-1 $162 $163 $17 $-1 $164 reversed single #
loop $-1 $-1 $165 $69 #
coedge $-1 $166 $167 $165 $168 forward $70 $-1 #
coedge $-1 $169 $71 $170 $171 reversed $49 $-1 #
coedge $-1 $71 $169 $73 $116 forward $49 $-1 #
coedge $-1 $172 $173 $71 $111 forward $174 $-1 #
edge $-1 $175 1.5707963267948966 $176 3.1415926535897931 $110 $177 forward 7 unknown #
coedge $-1 $73 $72 $178 $179 reversed $34 $-1 #
coedge $-1 $167 $166 $180 $114 reversed $70 $-1 #
edge $-1 $120 -520.00000000000011 $181 1.1368683772161603e-013 $180 $182 forward 7 unknown #
coedge $-1 $183 $184 $185 $116 forward $186 $-1 #
edge $-1 $121 -520 $176 1.7053025658242404e-013 $115 $187 forward 7 unknown #
coedge $-1 $118 $74 $184 $188 reversed $119 $-1 #
coedge $-1 $74 $117 $189 $190 reversed $119 $-1 #
loop $-1 $-1 $74 $191 #
vertex $-1 $190 $192 #
vertex $-1 $193 $194 #
ellipse-curve $-1 260.00000000000011 -8.9008943444934758e-013 0 -1 0 0 -6.9829667222187603e-014 -20 0 1 I I #
sti_colour_lwattr-sg-attrib $-1 $-1 $76 $38 4 2 1 0.964999973773956 0.800000011920929 0.699999988079071 0.5 0.5 0 30 0 1 0 0 0.5 #
sti_colour_lwattr-sg-attrib $-1 $-1 $77 $53 4 2 1 0.964999973773956 0.800000011920929 0.699999988079071 0.5 0.5 0 30 0 1 0 0 0.5 #
model_id-kcp-attrib $-1 $195 $-1 $78 1 990629604 50 305266689 7 #
loop $-1 $196 $197 $78 #
torus-surface $-1 0 5 0 0 1 0 10 5 0 0 1 forward_v I I I I #
loop $-1 $-1 $198 $53 #
coedge $-1 $129 $129 $82 $132 reversed $79 $-1 #
coedge $-1 $130 $130 $81 $131 forward $196 $-1 #
edge $199 $200 0 $200 6.2831853071795862 $130 $201 forward 7 unknown #
edge $-1 $202 0 $202 6.2831853071795862 $82 $203 forward 7 unknown #
vertex $-1 $83 $204 #
ellipse-curve $-1 0 300 0 0 1 0 20 0 0 1 I I #
face $-1 $-1 $101 $15 $-1 $205 reversed single #
loop $-1 $-1 $151 $86 #
plane-surface $-1 0 20.000000000000924 0 0 -1 0 0 0 -1 forward_v I I I I #
coedge $-1 $206 $149 $152 $207 forward $87 $-1 #
coedge $-1 $155 $89 $90 $143 reversed $62 $-1 #
coedge $-1 $149 $206 $89 $141 reversed $87 $-1 #
edge $-1 $156 -20 $208 20 $140 $209 forward 7 unknown #
coedge $-1 $91 $90 $206 $210 forward $45 $-1 #
edge $-1 $147 -260.00000000000011 $208 260.00000000000011 $139 $211 forward 7 unknown #
coedge $-1 $152 $151 $91 $145 reversed $136 $-1 #
edge $-1 $212 -260.00000000000011 $146 260.00000000000011 $144 $213 forward 7 unknown #
vertex $-1 $93 $214 #
vertex $-1 $158 $215 #
straight-curve $-1 260.00000000000011 0 -20 0 -1 0 I I #
coedge $-1 $138 $140 $94 $150 reversed $87 $-1 #
edge $-1 $153 -20.000000000000924 $156 20.000000000000924 $149 $216 forward 7 unknown #
coedge $-1 $144 $95 $100 $159 forward $136 $-1 #
coedge $-1 $95 $144 $138 $207 reversed $136 $-1 #
vertex $-1 $96 $217 #
straight-curve $-1 0 20.000000000000924 20 -1 0 0 I I #
coedge $-1 $97 $139 $99 $158 reversed $62 $-1 #
vertex $-1 $150 $218 #
straight-curve $-1 0 -20.000000000000924 20 1 0 0 I I #
edge $-1 $102 -20 $147 20 $99 $219 forward 7 unknown #
edge $-1 $103 -20 $146 20 $100 $220 forward 7 unknown #
point $-1 260.00000000000011 -20.000000000000924 20 #
point $-1 260.00000000000011 20.000000000000924 20 #
face $-1 $221 $222 $17 $-1 $223 forward single #
loop $-1 $-1 $185 $105 #
plane-surface $-1 0 20.000000000000924 0 0 -1 0 0 0 -1 forward_v I I I I #
coedge $-1 $224 $225 $226 $168 reversed $106 $-1 #
coedge $-1 $113 $107 $227 $228 reversed $70 $-1 #
coedge $-1 $107 $113 $229 $230 reversed $70 $-1 #
edge $-1 $231 -520.00000000000023 $232 5.6843418860808015e-014 $226 $233 forward 7 unknown #
coedge $-1 $109 $108 $234 $235 reversed $49 $-1 #
coedge $-1 $236 $237 $238 $171 forward $239 $-1 #
edge $-1 $240 -520.00000000000011 $175 1.1368683772161603e-013 $170 $241 forward 7 unknown #
coedge $-1 $173 $110 $242 $243 forward $174 $-1 #
coedge $-1 $110 $172 $236 $244 reversed $174 $-1 #
loop $-1 $-1 $110 $245 #
vertex $-1 $244 $246 #
vertex $-1 $243 $247 #
ellipse-curve $-1 -260.00000000000011 9.254819133275309e-013 0 1 0 0 -6.9829667222187603e-014 -20 0 1 I I #
coedge $-1 $248 $249 $112 $179 forward $250 $-1 #
edge $-1 $176 -3.1415926535897931 $181 -1.5707963267948966 $178 $177 forward 7 unknown #
coedge $-1 $251 $252 $253 $114 forward $222 $-1 #
vertex $-1 $254 $255 #
straight-curve $-1 -260 9.2548191332753049e-013 20 -1 3.4914833611093801e-015 0 I I #
coedge $-1 $256 $115 $249 $257 reversed $186 $-1 #
coedge $-1 $115 $256 $117 $188 forward $186 $-1 #
coedge $-1 $258 $242 $109 $116 reversed $163 $-1 #
loop $-1 $-1 $115 $259 #
straight-curve $-1 -259.99999999999994 20.000000000000924 0 -1 3.4914833611093801e-015 0 I I #
edge $-1 $260 -20 $121 0 $117 $261 forward 7 unknown #
coedge $-1 $262 $253 $118 $190 forward $263 $-1 #
edge $-1 $120 -8.9008943444934778e-013 $260 20.000000000000924 $118 $264 forward 7 unknown #
face $-1 $265 $119 $17 $-1 $266 reversed single #
point $-1 260.00000000000011 -8.9008943444934778e-013 20 #
edge $-1 $121 0 $267 20 $268 $261 forward 7 unknown #
point $-1 260.00000000000011 20.00000000000092 0 #
sti_colour_lwattr-sg-attrib $-1 $-1 $125 $78 4 2 1 0.964999973773956 0.800000011920929 0.699999988079071 0.5 0.5 0 30 0 1 0 0 0.5 #
loop $-1 $-1 $130 $78 #
coedge $-1 $197 $197 $198 $269 reversed $126 $-1 #
coedge $-1 $198 $198 $197 $269 forward $128 $-1 #
attrib_edge_convexity-kcp-attrib $-1 $270 $-1 $131 3 #
vertex $-1 $131 $271 #
ellipse-curve $-1 0 0 0 0 1 0 10 0 0 1 I I #
vertex $-1 $132 $272 #
ellipse-curve $-1 0 10 0 0 1 0 5 0 0 1 I I #
point $-1 20 300 0 #
plane-surface $-1 260.00000000000011 0 0 -1 0 0 0 0 1 forward_v I I I I #
coedge $-1 $140 $138 $142 $210 reversed $87 $-1 #
edge $-1 $153 -20 $212 20 $152 $273 forward 7 unknown #
vertex $-1 $210 $274 #
straight-curve $-1 -260.00000000000011 -20.000000000000924 0 0 0 -1 I I #
edge $-1 $208 -20.000000000000924 $212 20.000000000000924 $206 $275 forward 7 unknown #
straight-curve $-1 0 -20.000000000000924 -20 -1 0 0 I I #
vertex $-1 $145 $276 #
straight-curve $-1 0 20.000000000000924 -20 1 0 0 I I #
point $-1 260.00000000000011 20.000000000000924 -20 #
point $-1 260.00000000000011 -20.000000000000924 -20 #
straight-curve $-1 -260.00000000000011 0 20 0 -1 0 I I #
point $-1 -260.00000000000011 20.000000000000924 20 #
point $-1 -260.00000000000011 -20.000000000000924 20 #
straight-curve $-1 260.00000000000011 -20.000000000000924 0 0 0 -1 I I #
straight-curve $-1 260.00000000000011 20.000000000000924 0 0 0 -1 I I #
face $-1 $245 $277 $17 $-1 $278 reversed single #
loop $-1 $-1 $180 $162 #
plane-surface $-1 0 0 20 0 0 1 1 0 0 forward_v I I I I #
coedge $-1 $279 $165 $280 $281 reversed $106 $-1 #
coedge $-1 $165 $279 $282 $283 reversed $106 $-1 #
coedge $-1 $284 $285 $286 $168 forward $287 $-1 #
coedge $-1 $288 $289 $166 $228 forward $290 $-1 #
edge $-1 $181 -1.5707963267948966 $232 0 $227 $177 forward 7 unknown #
coedge $-1 $291 $292 $167 $230 forward $293 $-1 #
edge $-1 $231 0 $120 1.5707963267948966 $229 $122 forward 7 unknown #
vertex $-1 $294 $295 #
vertex $-1 $296 $297 #
straight-curve $-1 -260.00000000000006 -20.000000000000924 0 -1 3.4914833611093801e-015 0 I I #
coedge $-1 $298 $268 $169 $235 forward $299 $-1 #
edge $-1 $121 -3.1415926535897931 $240 -1.5707963267948966 $234 $122 forward 7 unknown #
coedge $-1 $300 $170 $173 $244 forward $239 $-1 #
coedge $-1 $170 $300 $298 $301 forward $239 $-1 #
coedge $-1 $302 $303 $279 $171 reversed $304 $-1 #
loop $-1 $-1 $170 $305 #
vertex $-1 $306 $307 #
straight-curve $-1 -260 9.2548191332753049e-013 -20 -1 3.4914833611093801e-015 0 I I #
coedge $-1 $185 $308 $172 $243 reversed $163 $-1 #
edge $-1 $176 0 $309 20 $242 $310 forward 7 unknown #
edge $-1 $175 9.254819133275309e-013 $309 20.000000000000924 $173 $311 forward 7 unknown #
face $-1 $312 $174 $17 $-1 $278 reversed single #
point $-1 -260.00000000000011 9.254819133275309e-013 -20 #
point $-1 -260.00000000000011 20.000000000000924 0 #
coedge $-1 $249 $178 $313 $314 reversed $250 $-1 #
coedge $-1 $178 $248 $183 $257 forward $250 $-1 #
loop $-1 $-1 $178 $312 #
coedge $-1 $315 $180 $289 $254 forward $222 $-1 #
coedge $-1 $180 $315 $291 $316 forward $222 $-1 #
coedge $-1 $189 $313 $72 $114 reversed $263 $-1 #
edge $-1 $181 -9.254819133275309e-013 $317 20.000000000000924 $289 $318 forward 7 unknown #
point $-1 -260.00000000000011 9.254819133275309e-013 20 #
coedge $-1 $184 $183 $262 $319 reversed $186 $-1 #
edge $-1 $320 -20 $176 0 $183 $310 forward 7 unknown #
coedge $-1 $308 $185 $268 $193 forward $163 $-1 #
face $-1 $-1 $186 $17 $-1 $164 reversed single #
vertex $-1 $190 $321 #
straight-curve $-1 260.00000000000011 20.000000000000924 0 0 0 -1 I I #
coedge $-1 $313 $189 $256 $319 forward $263 $-1 #
loop $-1 $-1 $253 $322 #
straight-curve $-1 260.00000000000011 0 20 0 1 0 I I #
face $-1 $323 $299 $17 $-1 $266 reversed single #
plane-surface $-1 260.00000000000011 0 0 -1 0 0 0 0 1 forward_v I I I I #
vertex $-1 $301 $324 #
coedge $-1 $234 $298 $258 $193 reversed $299 $-1 #
edge $-1 $325 0 $325 6.2831853071795862 $198 $326 forward 7 unknown #
convexity-sys-attrib $-1 $-1 $199 $131 #
point $-1 10 0 0 #
point $-1 5 10 0 #
straight-curve $-1 -260.00000000000011 20.000000000000924 0 0 0 -1 I I #
point $-1 -260.00000000000011 -20.000000000000924 -20 #
straight-curve $-1 -260.00000000000011 0 -20 0 1 0 I I #
point $-1 -260.00000000000011 20.000000000000924 -20 #
loop $-1 $-1 $282 $221 #
plane-surface $-1 -260.00000000000011 0 0 1 0 0 0 0 -1 forward_v I I I I #
coedge $-1 $225 $224 $108 $171 forward $106 $-1 #
coedge $-1 $327 $328 $224 $281 forward $329 $-1 #
edge $-1 $240 -1.5707963267948966 $231 0 $280 $122 forward 7 unknown #
coedge $-1 $330 $331 $225 $283 forward $277 $-1 #
edge $-1 $232 0 $175 1.5707963267948966 $282 $177 forward 7 unknown #
coedge $-1 $332 $226 $331 $296 forward $287 $-1 #
coedge $-1 $226 $332 $327 $294 reversed $287 $-1 #
coedge $-1 $333 $334 $107 $168 reversed $335 $-1 #
loop $-1 $-1 $226 $336 #
coedge $-1 $289 $227 $334 $337 reversed $290 $-1 #
coedge $-1 $227 $288 $251 $254 reversed $290 $-1 #
loop $-1 $-1 $227 $338 #
coedge $-1 $292 $229 $252 $316 reversed $293 $-1 #
coedge $-1 $229 $291 $333 $339 forward $293 $-1 #
loop $-1 $-1 $229 $340 #
edge $-1 $231 0 $341 20 $327 $342 forward 7 unknown #
point $-1 260.00000000000011 -20.000000000000927 0 #
edge $-1 $232 0 $343 20 $331 $344 forward 7 unknown #
point $-1 -260.00000000000011 -20.000000000000924 0 #
coedge $-1 $268 $234 $237 $301 reversed $299 $-1 #
loop $-1 $-1 $234 $265 #
coedge $-1 $237 $236 $308 $345 forward $239 $-1 #
edge $-1 $267 -20.000000000000924 $240 8.9008943444934778e-013 $298 $346 forward 7 unknown #
coedge $-1 $347 $238 $328 $306 forward $304 $-1 #
coedge $-1 $238 $347 $330 $348 forward $304 $-1 #
loop $-1 $-1 $238 $349 #
face $-1 $336 $239 $17 $-1 $350 reversed single #
edge $-1 $240 8.9008943444934778e-013 $341 20.000000000000924 $328 $346 forward 7 unknown #
point $-1 260.00000000000011 -8.9008943444934778e-013 -20 #
coedge $-1 $242 $258 $300 $345 reversed $163 $-1 #
vertex $-1 $345 $351 #
straight-curve $-1 -260.00000000000011 20.000000000000924 0 0 0 -1 I I #
straight-curve $-1 -260.00000000000011 0 -20 0 1 0 I I #
face $-1 $338 $250 $17 $-1 $278 reversed single #
coedge $-1 $253 $262 $248 $314 forward $263 $-1 #
edge $-1 $320 -20.000000000000924 $181 -9.254819133275309e-013 $248 $318 forward 7 unknown #
coedge $-1 $252 $251 $352 $353 forward $222 $-1 #
edge $-1 $354 -20.000000000000924 $120 -8.9008943444934778e-013 $291 $264 forward 7 unknown #
vertex $-1 $254 $355 #
straight-curve $-1 -260.00000000000011 0 20 0 -1 0 I I #
edge $-1 $260 -260.00000000000011 $320 260.00000000000011 $256 $356 forward 7 unknown #
vertex $-1 $319 $357 #
point $-1 260.00000000000011 20.000000000000924 20 #
face $-1 $305 $263 $17 $-1 $223 forward single #
face $-1 $358 $329 $17 $-1 $266 reversed single #
point $-1 260.00000000000011 20.000000000000924 -20 #
vertex $-1 $269 $359 #
ellipse-curve $-1 0 10 0 0 1 0 10 0 0 1 I I #
coedge $-1 $328 $280 $285 $294 forward $329 $-1 #
coedge $-1 $280 $327 $302 $306 reversed $329 $-1 #
loop $-1 $-1 $280 $323 #
coedge $-1 $331 $282 $303 $348 reversed $277 $-1 #
coedge $-1 $282 $330 $284 $296 reversed $277 $-1 #
coedge $-1 $285 $284 $347 $360 reversed $287 $-1 #
coedge $-1 $352 $286 $292 $339 reversed $335 $-1 #
coedge $-1 $286 $352 $288 $337 forward $335 $-1 #
loop $-1 $-1 $286 $358 #
face $-1 $259 $287 $17 $-1 $361 reversed single #
edge $-1 $317 -20 $232 0 $288 $344 forward 7 unknown #
face $-1 $349 $290 $17 $-1 $278 reversed single #
edge $-1 $354 -20 $231 0 $292 $342 forward 7 unknown #
face $-1 $191 $293 $17 $-1 $266 reversed single #
vertex $-1 $294 $362 #
straight-curve $-1 260.00000000000011 -20.000000000000924 0 0 0 -1 I I #
vertex $-1 $348 $363 #
straight-curve $-1 -260.00000000000011 -20.000000000000924 0 0 0 -1 I I #
edge $-1 $309 -260.00000000000011 $267 260.00000000000011 $308 $364 forward 7 unknown #
straight-curve $-1 260.00000000000011 0 -20 0 -1 0 I I #
coedge $-1 $303 $302 $332 $360 forward $304 $-1 #
edge $-1 $343 -20.000000000000924 $175 9.254819133275309e-013 $330 $311 forward 7 unknown #
face $-1 $340 $304 $17 $-1 $350 reversed single #
plane-surface $-1 0 0 -20 0 0 1 1 0 0 forward_v I I I I #
point $-1 -260.00000000000011 20.000000000000924 -20 #
coedge $-1 $334 $333 $315 $353 reversed $335 $-1 #
edge $-1 $317 -260.00000000000011 $354 260.00000000000011 $352 $365 forward 7 unknown #
vertex $-1 $316 $366 #
point $-1 -260.00000000000011 -20.000000000000924 20 #
straight-curve $-1 0 20.000000000000924 20 -1 0 0 I I #
point $-1 -260.00000000000011 20.000000000000924 20 #
face $-1 $322 $335 $17 $-1 $361 reversed single #
point $-1 10 10 0 #
edge $-1 $341 -260.00000000000011 $343 260.00000000000011 $332 $367 forward 7 unknown #
plane-surface $-1 0 -20.000000000000924 0 0 1 0 0 0 1 forward_v I I I I #
point $-1 260.00000000000011 -20.000000000000924 -20 #
point $-1 -260.00000000000011 -20.000000000000924 -20 #
straight-curve $-1 0 20.000000000000924 -20 1 0 0 I I #
straight-curve $-1 0 -20.000000000000924 20 1 0 0 I I #
point $-1 260.00000000000011 -20.000000000000924 20 #
straight-curve $-1 0 -20.000000000000924 -20 -1 0 0 I I #
End-of-ACIS-data 