600 0 1 0           
86 GICL ACIS Healer - Source: /gicl/data5/repository/new/Models/Spatial/bracket.sat - 6 0 18 ACIS 6.0.3 Solaris 24 Sat Apr 13 20:27:44 2002 
1 9.999999999999999547e-07 1.000000000000000036e-10 
body $-1 $1 $-1 $-1 #
lump $-1 $-1 $2 $0 #
shell $-1 $-1 $-1 $3 $-1 $1 #
face $4 $5 $6 $2 $-1 $7 forward single #
fmesh-eye-attrib $-1 $8 $-1 $3 #
face $9 $10 $11 $2 $-1 $12 reversed single #
loop $-1 $-1 $13 $3 #
plane-surface $-1 2.131628207280300558e-14 -99.99999999999992895 1.776356839400250465e-14 1.000000000000000222 -2.775557561562891351e-16 -4.440892098500626162e-16 4.440892098500626162e-16 3.330669073875469621e-16 -1.000000000000000444 forward_v I I I I #
colour-tsl-attrib $-1 $-1 $4 $3 1 #
fmesh-eye-attrib $-1 $14 $-1 $5 #
face $15 $16 $17 $2 $-1 $18 forward single #
loop $-1 $-1 $19 $5 #
sphere-surface $-1 0 0 10 45 0.35355339059327201 0.3535533905932730092 -0.8660254037844400399 0.6123724356957940262 0.6123724356957960246 0.4999999999999980016 forward_v I I I I #
coedge $-1 $20 $21 $19 $22 reversed $6 $-1 #
sti_colour_lwattr-sg-attrib $-1 $-1 $9 $5 1 1 1 1 0 1 0.5 0.5 #
fmesh-eye-attrib $-1 $23 $-1 $10 #
face $24 $25 $26 $2 $-1 $27 reversed single #
loop $-1 $-1 $28 $10 #
torus-surface $-1 1.332267629550187849e-15 0 -1.068132690783320626 4.440892098500626162e-16 3.330669073875469621e-16 -1.000000000000000222 53.87482193696060051 10 -0.7071067811865463515 -0.7071067811865484609 0 forward_v I I I I #
coedge $-1 $29 $30 $13 $22 forward $11 $-1 #
coedge $-1 $31 $13 $32 $33 forward $6 $-1 #
coedge $-1 $13 $34 $28 $35 reversed $6 $-1 #
edge $-1 $36 -1.958393013450076214 $37 -0.1849742816780143295 $19 $38 forward 7 unknown #
sti_colour_lwattr-sg-attrib $-1 $-1 $15 $10 1 1 1 1 0 1 0.5 0.5 #
fmesh-eye-attrib $-1 $39 $-1 $16 #
face $40 $41 $42 $2 $-1 $43 forward single #
loop $-1 $-1 $44 $16 #
cone-surface $-1 4.884981308350688778e-15 3.108624468950438313e-15 -3.552713678800500929e-15 4.440892098500626162e-16 3.330669073875469621e-16 -1.000000000000000222 -4.973799150320701301e-14 43.87482193696057209 1.243449787580175325e-14 1 I I 0 1 43.8748219369605863 forward I I I I #
coedge $-1 $45 $46 $21 $35 forward $17 $-1 #
coedge $-1 $47 $19 $46 $48 reversed $11 $-1 #
coedge $-1 $19 $49 $50 $51 forward $11 $-1 #
coedge $-1 $52 $20 $53 $54 reversed $6 $-1 #
coedge $-1 $50 $55 $20 $33 reversed $56 $-1 #
edge $-1 $36 54.99999999999999289 $57 59.99999999999999289 $32 $58 reversed 7 unknown #
coedge $-1 $21 $59 $44 $60 reversed $6 $-1 #
edge $-1 $37 -1.773418731772058221 $61 -1.570796326794892783 $28 $62 forward 7 unknown #
vertex $-1 $22 $63 #
vertex $-1 $48 $64 #
ellipse-curve $-1 -6.081940506774690406e-15 3.155443620884047222e-30 10 1.000000000000000222 -2.775557561562891351e-16 -4.440892098500626162e-16 -2.131628207280300558e-14 -41.66190448976480809 -17.00840128541518226 1 I I #
sti_colour_lwattr-sg-attrib $-1 $-1 $24 $16 1 1 1 1 0 1 0.5 0.5 #
fmesh-eye-attrib $-1 $65 $-1 $25 #
face $66 $67 $68 $2 $-1 $69 forward single #
loop $-1 $70 $71 $25 #
plane-surface $-1 9.769962616701377556e-15 6.217248937900876626e-15 -10.00000000000000711 4.440892098500626162e-16 3.330669073875469621e-16 -1.000000000000000222 -1.000000000000000222 2.775557561562891351e-16 4.440892098500626162e-16 forward_v I I I I #
coedge $-1 $72 $73 $34 $60 forward $26 $-1 #
coedge $-1 $74 $28 $73 $75 forward $17 $-1 #
coedge $-1 $28 $74 $29 $48 forward $17 $-1 #
coedge $-1 $49 $29 $76 $77 forward $11 $-1 #
edge $-1 $78 -3.141592653589772688 $37 0.7853981633974468357 $29 $79 forward 7 unknown #
coedge $-1 $30 $47 $80 $81 reversed $11 $-1 #
coedge $-1 $82 $32 $30 $51 reversed $56 $-1 #
edge $-1 $83 -2.451817652804294756 $36 -2.094395102393193042 $30 $84 forward 7 unknown #
coedge $-1 $85 $31 $86 $87 reversed $6 $-1 #
coedge $-1 $88 $89 $31 $54 forward $90 $-1 #
edge $-1 $91 0.2331370881709955989 $57 1.958393013450076214 $53 $92 forward 7 unknown #
coedge $-1 $32 $93 $88 $94 reversed $56 $-1 #
loop $-1 $-1 $55 $67 #
vertex $-1 $54 $95 #
straight-curve $-1 1.065814103640150279e-14 9.32587340685131494e-15 0 4.440892098500626162e-16 3.330669073875469621e-16 -1.000000000000000444 I I #
coedge $-1 $34 $96 $97 $98 reversed $6 $-1 #
edge $-1 $61 1.06813269078333084 $99 10.00000000000001243 $44 $100 forward 7 unknown #
vertex $-1 $60 $101 #
ellipse-curve $-1 6.750155989720951766e-14 -53.87482193696060762 -1.068132690783295757 -1.000000000000000222 2.775557561562891351e-16 4.440892098500626162e-16 4.884981308350688778e-15 3.108624468950438313e-15 -10.00000000000000355 1 I I #
point $-1 -2.309263891220325604e-14 -1.776356839400250465e-14 55.00000000000001421 #
point $-1 3.552713678800500929e-15 -44.07939976660419745 0.9442550711772597083 #
sti_colour_lwattr-sg-attrib $-1 $-1 $40 $25 1 1 1 1 0 1 0.5 0.5 #
fmesh-eye-attrib $-1 $102 $-1 $41 #
face $103 $104 $56 $2 $-1 $105 forward single #
loop $-1 $-1 $106 $41 #
cone-surface $-1 6.394884621840901673e-14 -11.47279415073622211 -5.000000000000067502 -7.716050021144837956e-15 -7.549516567451064475e-15 1.000000000000000222 3.197442310920450836e-14 -59.99999999999999289 -4.298783551348606125e-13 1 I I 0 1 60.00000000000001421 forward I I I I #
loop $-1 $-1 $97 $25 #
coedge $-1 $71 $71 $107 $108 reversed $42 $-1 #
coedge $-1 $109 $44 $110 $111 reversed $26 $-1 #
coedge $-1 $44 $109 $45 $75 reversed $26 $-1 #
coedge $-1 $46 $45 $112 $113 forward $17 $-1 #
edge $-1 $61 -0.7853981633974466137 $114 3.141592653589772688 $73 $115 forward 7 unknown #
coedge $-1 $112 $116 $47 $77 reversed $117 $-1 #
edge $-1 $78 2.415371473014331194 $118 2.45181765280429298 $47 $84 forward 7 unknown #
vertex $-1 $113 $119 #
ellipse-curve $-1 1.332267629550187849e-15 0 0.94425507117728813 -4.440892098500626162e-16 -3.330669073875469621e-16 1.000000000000000222 -31.16884248559846071 -31.16884248559856019 1.421085471520200372e-14 1 I I #
coedge $-1 $120 $121 $49 $81 forward $122 $-1 #
edge $-1 $83 -3.141592653589813544 $118 1.9668970399242386e-16 $49 $123 forward 7 unknown #
coedge $-1 $124 $50 $121 $125 reversed $56 $-1 #
vertex $-1 $51 $126 #
ellipse-curve $-1 -3.691058819433775742e-16 3.691058819433760458e-16 10 0.707106781186549016 -0.7071067811865460184 -3.198396408832227295e-18 -27.55675960631073096 -27.55675960631081978 -22.49999999999991118 1 I I #
coedge $-1 $127 $52 $128 $129 reversed $6 $-1 #
coedge $-1 $130 $131 $52 $87 forward $132 $-1 #
edge $-1 $133 2.886579864025392806e-15 $91 1.725255925279067348 $86 $134 forward 7 unknown #
coedge $-1 $135 $53 $55 $94 forward $90 $-1 #
coedge $-1 $53 $136 $130 $137 reversed $90 $-1 #
loop $-1 $-1 $53 $138 #
vertex $-1 $87 $139 #
ellipse-curve $-1 -6.081940506774690406e-15 3.155443620884047222e-30 10 -1.000000000000000222 2.775557561562891351e-16 4.440892098500626162e-16 -1.776356839400250465e-14 -46.29100498862759139 -18.89822365046132546 1 I I #
coedge $-1 $55 $140 $141 $142 reversed $56 $-1 #
edge $-1 $57 2.094395102393193042 $143 2.469478765765956485 $88 $144 forward 7 unknown #
point $-1 -2.309263891220325604e-14 -1.598721155460225418e-14 60.00000000000002132 #
coedge $-1 $59 $127 $106 $145 reversed $6 $-1 #
coedge $-1 $146 $110 $59 $98 forward $70 $-1 #
edge $-1 $99 -6.125178063039362186 $147 21.47279415073621678 $97 $148 forward 7 unknown #
vertex $-1 $111 $149 #
straight-curve $-1 3.197442310920450836e-14 -43.8748219369605863 0 4.440892098500626162e-16 3.330669073875469621e-16 -1.000000000000000444 I I #
point $-1 -3.552713678800500929e-15 -43.87482193696062183 -1.068132690783331284 #
sti_colour_lwattr-sg-attrib $-1 $-1 $66 $41 1 1 1 1 0 1 0.5 0.5 #
fmesh-eye-attrib $-1 $150 $-1 $67 #
face $151 $152 $117 $2 $-1 $105 forward single #
plane-surface $-1 70.71067811865462716 70.71067811865484032 -1.421085471520200372e-14 0.707106781186549016 -0.7071067811865460184 -3.198396408832227295e-18 4.440892098500626162e-16 3.330669073875469621e-16 -1.000000000000000444 forward_v I I I I #
coedge $-1 $153 $154 $96 $145 forward $68 $-1 #
coedge $-1 $107 $107 $71 $108 forward $155 $-1 #
edge $-1 $156 -3.141592653589786011 $156 3.141592653589800221 $71 $157 forward 7 unknown #
coedge $-1 $73 $72 $158 $159 forward $26 $-1 #
coedge $-1 $97 $160 $72 $111 forward $70 $-1 #
edge $-1 $161 -0.7853981633974479459 $99 3.141592653589785566 $110 $162 forward 7 unknown #
coedge $-1 $158 $76 $74 $113 reversed $117 $-1 #
edge $-1 $114 1.570796326794899445 $78 1.77341873177206355 $74 $163 forward 7 unknown #
vertex $-1 $75 $164 #
ellipse-curve $-1 1.332267629550187849e-15 0 -1.068132690783320626 4.440892098500626162e-16 3.330669073875469621e-16 -1.000000000000000222 -31.02418411497706785 -31.02418411497717088 -3.552713678800500929e-15 1 I I #
coedge $-1 $76 $165 $120 $166 reversed $117 $-1 #
loop $-1 $-1 $112 $104 #
vertex $-1 $81 $167 #
point $-1 31.16884248559784965 31.16884248559924231 0.9442550711772739191 #
coedge $-1 $168 $80 $116 $166 forward $122 $-1 #
coedge $-1 $80 $168 $82 $125 forward $122 $-1 #
loop $-1 $-1 $121 $169 #
ellipse-curve $-1 21.25698718379987184 21.2569871837999429 27.35625735639703038 -0.6123724356957940262 -0.6123724356957960246 -0.4999999999999980016 10.12448345789823101 10.12448345789825943 -24.79981838109984338 1 I I #
coedge $-1 $170 $82 $171 $172 reversed $56 $-1 #
edge $-1 $173 -1.570796326794896336 $83 -0.6897750007855025789 $121 $174 forward 7 unknown #
point $-1 11.13250372590206183 11.13250372590126247 52.15607573749687731 #
coedge $-1 $96 $85 $175 $176 reversed $6 $-1 #
coedge $-1 $177 $178 $85 $129 forward $179 $-1 #
edge $-1 $180 -18.47279415073628073 $133 -1.38093031466047611 $128 $181 forward 7 unknown #
coedge $-1 $182 $86 $89 $137 forward $132 $-1 #
coedge $-1 $86 $182 $177 $183 forward $132 $-1 #
loop $-1 $-1 $86 $184 #
vertex $-1 $183 $185 #
ellipse-curve $-1 0 -51.38093031466045346 2.000000000000023093 1.000000000000000222 -2.775557561562891351e-16 -4.440892098500626162e-16 1.554312234475219157e-15 1.332267629550187849e-15 -2.000000000000000444 1 I I #
coedge $-1 $136 $88 $186 $187 reversed $90 $-1 #
coedge $-1 $89 $135 $188 $189 forward $90 $-1 #
edge $-1 $91 -0.7853981633974475018 $190 3.141592653589813988 $89 $191 forward 7 unknown #
face $192 $193 $90 $2 $-1 $194 forward single #
point $-1 3.197442310920450836e-14 -49.40474068717352196 2.307692307692303046 #
coedge $-1 $93 $195 $196 $197 reversed $56 $-1 #
coedge $-1 $198 $186 $93 $142 forward $199 $-1 #
edge $-1 $143 -2.469478765765935169 $200 -1.570796326794896114 $141 $201 forward 7 unknown #
vertex $-1 $187 $202 #
ellipse-curve $-1 -3.691058819433775742e-16 3.691058819433760458e-16 10 -0.707106781186549016 0.7071067811865460184 3.198396408832227295e-18 -30.61862178478970264 -30.61862178478980212 -24.99999999999990052 1 I I #
edge $-1 $147 -4.999999999999583444 $203 1.999999999999521716 $106 $204 forward 7 unknown #
coedge $-1 $205 $97 $154 $206 reversed $70 $-1 #
vertex $-1 $206 $207 #
straight-curve $-1 -3.552713678800500929e-15 -49.99999999999997868 -10.00000000000000711 2.775557561562891351e-16 -0.9999999999999991118 3.330669073875469621e-16 I I #
point $-1 -2.771116669464390725e-13 -43.87482193696062183 -10.00000000000001776 #
colour-tsl-attrib $-1 $-1 $103 $67 1 #
fmesh-eye-attrib $-1 $208 $-1 $104 #
face $209 $210 $199 $2 $-1 $211 forward single #
coedge $-1 $212 $106 $213 $214 reversed $68 $-1 #
coedge $-1 $106 $212 $146 $206 forward $68 $-1 #
loop $-1 $-1 $107 $193 #
vertex $-1 $108 $215 #
ellipse-curve $-1 -79.99999999999994316 7.815970093361102045e-14 -10.00000000000056843 4.440892098500626162e-16 3.330669073875469621e-16 -1.000000000000000222 -10.00000000000000533 0 -6.705747068735945504e-14 1 I I #
coedge $-1 $216 $112 $109 $159 reversed $117 $-1 #
edge $-1 $161 -9.99999999999996092 $114 -1.068132690783300642 $109 $217 forward 7 unknown #
coedge $-1 $110 $218 $216 $219 forward $70 $-1 #
vertex $-1 $159 $220 #
ellipse-curve $-1 9.769962616701377556e-15 6.217248937900876626e-15 -10.00000000000000711 -4.440892098500626162e-16 -3.330669073875469621e-16 1.000000000000000222 -4.973799150320701301e-14 43.87482193696057209 1.243449787580175325e-14 1 I I #
ellipse-curve $-1 38.09525192684257178 38.09525192684269257 -1.068132690783333061 -0.707106781186549016 0.7071067811865460184 3.198396408832227295e-18 4.884981308350688778e-15 3.108624468950438313e-15 -10.00000000000000355 1 I I #
point $-1 31.02418411497646389 31.02418411497784589 -1.068132690783311745 #
coedge $-1 $116 $221 $222 $223 reversed $117 $-1 #
edge $-1 $118 0.6897750007854962506 $224 1.570796326794896558 $120 $225 forward 7 unknown #
point $-1 31.38147064169804423 31.3814706416981366 2.556438975297137262 #
coedge $-1 $121 $120 $226 $227 forward $122 $-1 #
face $228 $229 $122 $2 $-1 $230 forward single #
coedge $-1 $195 $124 $231 $232 reversed $56 $-1 #
coedge $-1 $226 $233 $124 $172 forward $234 $-1 #
edge $-1 $235 -50.00000000000000711 $173 7.573593128807099006 $171 $236 forward 7 unknown #
vertex $-1 $227 $237 #
ellipse-curve $-1 13.60639344276865081 13.60639344276870055 61.52409256805177051 -0.707106781186549016 0.7071067811865460184 3.198396408832227295e-18 -6.123724356957939818 -6.123724356957960246 -4.99999999999998046 1 I I #
coedge $-1 $238 $213 $127 $176 forward $239 $-1 #
edge $-1 $203 1.570796326795010911 $180 3.141592653589803774 $175 $240 forward 7 unknown #
coedge $-1 $241 $128 $131 $183 reversed $179 $-1 #
coedge $-1 $128 $242 $238 $243 reversed $179 $-1 #
loop $-1 $244 $128 $245 #
vertex $-1 $176 $246 #
straight-curve $-1 3.552713678800500929e-15 -49.99999999999997158 1.065814103640150279e-14 -2.775557561562891351e-16 0.9999999999999991118 -3.330669073875469621e-16 I I #
coedge $-1 $131 $130 $247 $248 forward $132 $-1 #
edge $-1 $249 -3.141592653589813544 $133 0.7853981633974468357 $177 $250 forward 7 unknown #
face $251 $138 $132 $2 $-1 $252 forward single #
point $-1 3.552713678800500929e-15 -51.38093031466044636 1.421085471520200372e-14 #
coedge $-1 $141 $253 $135 $187 forward $199 $-1 #
edge $-1 $254 -7.250218719593493997e-17 $143 3.141592653589813544 $135 $255 forward 7 unknown #
coedge $-1 $256 $247 $136 $189 reversed $117 $-1 #
edge $-1 $254 -2.469478765765956041 $190 -2.463534279507312519 $136 $144 forward 7 unknown #
vertex $-1 $137 $257 #
ellipse-curve $-1 2.664535259100375697e-15 1.776356839400250465e-15 2.307692307692307487 4.440892098500626162e-16 3.330669073875469621e-16 -1.000000000000000222 -34.93442716266328318 -34.93442716266339687 3.552713678800500929e-14 1 I I #
fmesh-eye-attrib $-1 $258 $-1 $138 #
face $259 $260 $261 $2 $-1 $262 reversed single #
sphere-surface $-1 0 0 10 50 0.35355339059327201 0.3535533905932730092 -0.8660254037844400399 0.6123724356957940262 0.6123724356957960246 0.4999999999999980016 forward_v I I I I #
coedge $-1 $140 $170 $263 $264 reversed $56 $-1 #
coedge $-1 $265 $266 $140 $197 forward $267 $-1 #
edge $-1 $200 -8.527117293344600668 $268 48 $196 $269 forward 7 unknown #
coedge $-1 $253 $141 $266 $270 forward $199 $-1 #
loop $-1 $-1 $141 $152 #
vertex $-1 $197 $271 #
ellipse-curve $-1 13.72958830882256365 13.72958830882261516 59.31527967821413938 0.707106781186549016 -0.7071067811865460184 -3.198396408832227295e-18 1.837117307087382079 1.837117307087388074 1.499999999999994005 1 I I #
point $-1 12.95244180077651386 12.952441800775647 56.52384875303223311 #
vertex $-1 $214 $272 #
straight-curve $-1 4.263256414560601115e-14 -71.47279415073616349 -5.000000000000490274 -7.716050021144837956e-15 -7.549516567451064475e-15 1.000000000000000222 I I #
coedge $-1 $273 $146 $274 $275 reversed $70 $-1 #
edge $-1 $276 -0.6162969373960721642 $147 -8.881784197001226685e-16 $146 $277 forward 7 unknown #
point $-1 3.552713678800500929e-14 -71.4727941507361777 -10.00000000000007461 #
colour-tsl-attrib $-1 $-1 $151 $104 1 #
fmesh-eye-attrib $-1 $278 $-1 $152 #
face $279 $280 $267 $2 $-1 $281 forward single #
torus-surface $-1 25.39685019840053926 25.39685019840062452 30.73644135332761707 -0.6123724356957940262 -0.6123724356957960246 -0.4999999999999980016 33 -3 -0.35355339059327201 -0.3535533905932730092 0.8660254037844400399 forward_v I I I I #
coedge $-1 $154 $153 $282 $283 reversed $68 $-1 #
coedge $-1 $175 $284 $153 $214 forward $239 $-1 #
edge $-1 $285 -0.6162969373960723862 $203 -7.993605777301102636e-16 $153 $286 forward 7 unknown #
point $-1 -70 7.105427357601001859e-15 -10.00000000000050449 #
coedge $-1 $287 $158 $160 $219 reversed $117 $-1 #
straight-curve $-1 31.0241841149770643 31.02418411497716022 -1.065814103640150279e-14 -4.440892098500626162e-16 -3.330669073875469621e-16 1.000000000000000444 I I #
coedge $-1 $160 $288 $289 $290 reversed $70 $-1 #
edge $-1 $291 -20.36574798149053933 $161 6.125178063039329324 $160 $292 forward 7 unknown #
point $-1 31.02418411497711759 31.02418411497721351 -9.999999999999975131 #
coedge $-1 $165 $293 $294 $295 reversed $117 $-1 #
coedge $-1 $233 $226 $165 $223 forward $234 $-1 #
edge $-1 $224 -7.57359312880709723 $296 50.00000000000000711 $222 $297 forward 7 unknown #
vertex $-1 $166 $298 #
ellipse-curve $-1 38.35513078429769251 38.35513078429781331 0.9023143031409652792 -0.707106781186549016 0.7071067811865460184 3.198396408832227295e-18 -6.123724356957939818 -6.123724356957960246 -4.99999999999998046 1 I I #
coedge $-1 $222 $171 $168 $227 reversed $234 $-1 #
edge $-1 $224 1.377769440350575263e-16 $173 3.141592653589813544 $226 $299 forward 7 unknown #
fmesh-eye-attrib $-1 $300 $-1 $169 #
face $301 $302 $239 $2 $-1 $303 forward single #
torus-surface $-1 25.98076211353317078 25.98076211353325604 31.21320343559636612 -0.6123724356957940262 -0.6123724356957960246 -0.4999999999999980016 35 10 -0.35355339059327201 -0.3535533905932730092 0.8660254037844400399 forward_v I I I I #
coedge $-1 $304 $305 $170 $232 forward $306 $-1 #
edge $-1 $307 -57.33012701892211282 $235 -54.33012701892211282 $231 $308 forward 7 unknown #
coedge $-1 $171 $222 $304 $309 reversed $234 $-1 #
loop $-1 $-1 $171 $310 #
vertex $-1 $172 $311 #
straight-curve $-1 21.7797870199579009 21.77978701995797906 56.65063509461090518 -0.6123724356957940262 -0.6123724356957960246 -0.4999999999999980016 I I #
point $-1 17.14192734870173496 17.14192734870106705 52.86383853020736723 #
coedge $-1 $284 $175 $178 $243 forward $239 $-1 #
loop $-1 $-1 $175 $229 #
ellipse-curve $-1 0 -68.47279415073626296 -3.000000000001307399 -1.000000000000000222 2.775557561562891351e-16 4.440892098500626162e-16 3.774758283725532237e-15 3.330669073875469621e-15 -2.999999999999999112 1 I I #
coedge $-1 $312 $177 $313 $314 forward $179 $-1 #
coedge $-1 $178 $315 $316 $317 reversed $179 $-1 #
edge $-1 $180 -5.453727138509575603e-16 $318 0.6162969373960706099 $178 $319 forward 7 unknown #
loop $-1 $-1 $320 $245 #
face $321 $184 $179 $2 $-1 $322 forward single #
point $-1 2.842170943040400743e-14 -68.47279415073623454 -9.574563364367350005e-13 #
coedge $-1 $188 $313 $182 $248 reversed $117 $-1 #
edge $-1 $190 -1.725255925279081559 $249 -2.614203943708688339e-14 $182 $323 forward 7 unknown #
vertex $-1 $314 $324 #
ellipse-curve $-1 4.884981308350688778e-15 3.108624468950438313e-15 -3.552713678800500929e-15 -4.440892098500626162e-16 -3.330669073875469621e-16 1.000000000000000222 -36.33180424916982076 -36.33180424916993445 6.03961325396085158e-14 1 I I #
fmesh-eye-attrib $-1 $325 $-1 $184 #
torus-surface $-1 6.217248937900876626e-15 5.329070518200751394e-15 1.999999999999998224 -4.440892098500626162e-16 -3.330669073875469621e-16 1.000000000000000222 51.3809303146605032 -2 0.7071067811865463515 0.7071067811865484609 0 forward_v I I I I #
coedge $-1 $186 $198 $256 $326 forward $199 $-1 #
vertex $-1 $189 $327 #
ellipse-curve $-1 23.95929264000055881 23.95929264000063696 29.56268052200722352 0.6123724356957940262 0.6123724356957960246 0.4999999999999980016 11.00685083922450147 11.00685083922453344 -26.96116823102500959 1 I I #
coedge $-1 $328 $188 $253 $326 reversed $117 $-1 #
point $-1 34.93442716266402215 34.93442716266268633 2.307692307692306599 #
sti_colour_lwattr-sg-attrib $-1 $-1 $192 $138 1 1 1 1 0 1 0.5 0.5 #
fmesh-eye-attrib $-1 $329 $-1 $193 #
face $330 $331 $332 $2 $-1 $333 forward single #
loop $-1 $155 $334 $193 #
cone-surface $-1 -80.00000000000002842 -1.421085471520200372e-14 -5.186961971048731357e-13 -7.716050021144837956e-15 -7.549516567451064475e-15 1.000000000000000222 -10.00000000000000533 0 -6.705747068735945504e-14 1 I I 0 1 10.00000000000000355 forward I I I I #
coedge $-1 $335 $336 $195 $264 forward $337 $-1 #
edge $-1 $268 -1.414213562373095145 $307 1.414213562373093813 $263 $338 forward 7 unknown #
coedge $-1 $339 $196 $336 $340 reversed $267 $-1 #
coedge $-1 $196 $339 $198 $270 reversed $267 $-1 #
loop $-1 $-1 $196 $210 #
vertex $-1 $340 $341 #
straight-curve $-1 20.01202006699154268 20.01202006699161018 60.98076211353310327 0.6123724356957940262 0.6123724356957960246 0.4999999999999980016 I I #
edge $-1 $200 -3.141592653589813544 $342 4.940020112423065461e-17 $266 $343 forward 7 unknown #
point $-1 14.79024848060281982 14.79024848060199382 56.71720346686082337 #
point $-1 -3.552713678800500929e-15 -71.47279415073620612 -3.000000000000968114 #
coedge $-1 $344 $205 $345 $346 reversed $70 $-1 #
coedge $-1 $282 $347 $205 $275 forward $348 $-1 #
edge $-1 $349 28.23529411764702246 $276 104.5544116985273604 $274 $350 forward 7 unknown #
vertex $-1 $275 $351 #
ellipse-curve $-1 5.684341886080801487e-14 -11.47279415073623099 -10.0000000000000675 -4.440892098500626162e-16 -3.330669073875469621e-16 1.000000000000000222 3.197442310920450836e-14 -59.99999999999999289 -4.298783551348606125e-13 1 I I #
sti_colour_lwattr-sg-attrib $-1 $-1 $209 $152 1 1 1 1 0 1 0.5 0.5 #
fmesh-eye-attrib $-1 $352 $-1 $210 #
face $353 $354 $337 $2 $-1 $355 forward single #
cone-surface $-1 30.61862178478970264 30.61862178478980212 34.99999999999990052 0.6123724356957940262 0.6123724356957960246 0.4999999999999980016 10.60660171779815997 10.60660171779819017 -25.98076211353320275 1 I I 0 1 30 forward I I I I #
coedge $-1 $356 $274 $212 $283 forward $348 $-1 #
edge $-1 $276 -4.999999999999952927 $285 2.000000000000688782 $282 $357 forward 7 unknown #
coedge $-1 $213 $238 $358 $359 reversed $239 $-1 #
vertex $-1 $283 $360 #
ellipse-curve $-1 1.243449787580175325e-14 -11.47279415073627185 -3.000000000000937916 -4.440892098500626162e-16 -3.330669073875469621e-16 1.000000000000000222 3.197442310920450836e-14 -59.99999999999999289 -4.298783551348606125e-13 1 I I #
coedge $-1 $361 $216 $362 $363 reversed $117 $-1 #
coedge $-1 $218 $344 $364 $365 forward $70 $-1 #
coedge $-1 $366 $362 $218 $290 forward $367 $-1 #
edge $-1 $291 86.08063123816243944 $368 104.5544116985273178 $289 $369 forward 7 unknown #
vertex $-1 $219 $370 #
straight-curve $-1 35.35533905932730647 35.35533905932740595 -10.00000000000002842 -0.7071067811865463515 -0.7071067811865485719 0 I I #
coedge $-1 $221 $328 $371 $372 reversed $117 $-1 #
coedge $-1 $305 $304 $221 $295 forward $306 $-1 #
edge $-1 $296 -4.330127018922095949 $373 -1.330127018922100168 $294 $308 forward 7 unknown #
vertex $-1 $309 $374 #
straight-curve $-1 39.45745654962150439 39.45745654962162519 13.34936490538889942 0.6123724356957940262 0.6123724356957960246 0.4999999999999980016 I I #
point $-1 34.81959687836496897 34.81959687836508266 9.562568340985365012 #
ellipse-curve $-1 25.98076211353317078 25.98076211353325604 31.21320343559636612 0.6123724356957940262 0.6123724356957960246 0.4999999999999980016 8.838834764831799973 8.838834764831824842 -21.65063509461100111 1 I I #
sti_colour_lwattr-sg-attrib $-1 $-1 $228 $169 1 1 1 1 0 1 0.5 0.5 #
fmesh-eye-attrib $-1 $375 $-1 $229 #
face $376 $377 $378 $2 $-1 $379 forward single #
torus-surface $-1 1.065814103640150279e-14 -11.47279415073627362 -3.000000000001332268 4.440892098500626162e-16 3.330669073875469621e-16 -1.000000000000000222 57 3 -0.7071067811865463515 -0.7071067811865484609 0 forward_v I I I I #
coedge $-1 $294 $231 $233 $309 forward $306 $-1 #
coedge $-1 $231 $294 $335 $380 reversed $306 $-1 #
loop $-1 $-1 $231 $354 #
vertex $-1 $232 $381 #
straight-curve $-1 71.60700942365065202 71.6070094236508794 34.59936490538887455 0.35355339059327201 0.3535533905932730092 -0.8660254037844400399 I I #
edge $-1 $235 -3.141592653589793116 $296 -1.377769440350575263e-16 $304 $382 forward 7 unknown #
face $383 $384 $234 $2 $-1 $385 reversed single #
point $-1 52.39840880474760354 52.39840880474778118 81.65063509461080571 #
coedge $-1 $386 $241 $387 $388 reversed $179 $-1 #
coedge $-1 $247 $361 $241 $314 reversed $117 $-1 #
edge $-1 $249 -41.04547655653227878 $389 -25.10406879356834153 $241 $390 forward 7 unknown #
coedge $-1 $242 $391 $392 $393 reversed $179 $-1 #
coedge $-1 $394 $358 $242 $317 forward $378 $-1 #
edge $-1 $318 -104.5544116985274314 $395 -28.23529411764700825 $242 $396 forward 7 unknown #
vertex $-1 $243 $397 #
ellipse-curve $-1 7.993605777301127091e-15 -11.4727941507362754 -9.166001291305292398e-13 4.440892098500626162e-16 3.330669073875469621e-16 -1.000000000000000222 -1.065814103640150279e-14 -56.99999999999994316 -4.085620730620576069e-13 1 I I #
coedge $-1 $320 $320 $334 $398 reversed $244 $-1 #
fmesh-eye-attrib $-1 $399 $-1 $245 #
plane-surface $-1 119.9999999999999716 1.421085471520200372e-14 -2.131628207280300558e-14 -4.440892098500626162e-16 -3.330669073875469621e-16 1.000000000000000222 1.000000000000000222 -2.775557561562891351e-16 -4.440892098500626162e-16 forward_v I I I I #
ellipse-curve $-1 36.33180424916987761 36.33180424916999129 1.999999999999989342 0.707106781186549016 -0.7071067811865460184 -3.198396408832227295e-18 1.554312234475219157e-15 1.332267629550187849e-15 -2.000000000000000444 1 I I #
point $-1 36.33180424917059526 36.33180424916920259 6.03961325396085158e-14 #
sti_colour_lwattr-sg-attrib $-1 $-1 $251 $184 1 1 1 1 0 1 0.5 0.5 #
edge $-1 $342 1.570796326794897446 $254 2.469478765765936057 $253 $400 forward 7 unknown #
point $-1 34.96614347922506028 34.96614347922516686 2.601512290982213926 #
coedge $-1 $293 $256 $339 $401 reversed $117 $-1 #
sti_colour_lwattr-sg-attrib $-1 $-1 $259 $193 1 1 1 1 0 1 0.5 0.5 #
fmesh-eye-attrib $-1 $402 $-1 $260 #
face $403 $404 $405 $2 $-1 $406 forward single #
loop $-1 $-1 $407 $260 #
cone-surface $-1 -85.39896195328765316 3.552713678800500929e-14 -5.000000000000637712 -7.716050021144837956e-15 -7.549516567451064475e-15 1.000000000000000222 -20.00000000000004619 -7.105427357601001859e-15 -1.634248292248230428e-13 1 I I 0 1 20.00000000000004619 forward I I I I #
coedge $-1 $334 $334 $320 $398 forward $261 $-1 #
coedge $-1 $371 $263 $305 $380 forward $337 $-1 #
coedge $-1 $263 $371 $265 $340 forward $337 $-1 #
loop $-1 $-1 $263 $280 #
straight-curve $-1 50.37182280667872192 50.37182280667889245 84.61473670974856987 0.6830127018922182991 0.6830127018922202975 -0.258819045102523293 I I #
coedge $-1 $266 $265 $328 $401 forward $267 $-1 #
edge $-1 $408 -4.940020112423066693e-17 $268 3.141592653589772688 $265 $409 forward 7 unknown #
point $-1 49.4058969803892154 49.4058969803902599 84.9807621135330038 #
vertex $-1 $270 $410 #
ellipse-curve $-1 25.39685019840053926 25.39685019840062452 30.73644135332761707 -0.6123724356957940262 -0.6123724356957960246 -0.4999999999999980016 10.60660171779815997 10.60660171779819017 -25.98076211353320275 1 I I #
coedge $-1 $288 $273 $411 $412 reversed $70 $-1 #
coedge $-1 $413 $414 $273 $346 forward $332 $-1 #
edge $-1 $415 -0.9544993893988279465 $349 0.954499389398825171 $273 $416 forward 7 unknown #
coedge $-1 $274 $356 $413 $417 reversed $348 $-1 #
loop $-1 $-1 $356 $404 #
vertex $-1 $417 $418 #
straight-curve $-1 -119.9999999999999858 -4.263256414560601115e-14 -10.00000000000002487 0.8160244811016558186 -0.5780173407803389507 6.938893903907228378e-17 I I #
point $-1 -34.68104044682025489 -60.43426301683547308 -10.00000000000061817 #
sti_colour_lwattr-sg-attrib $-1 $-1 $279 $210 1 1 1 1 0 1 0.5 0.5 #
fmesh-eye-attrib $-1 $419 $-1 $280 #
face $420 $421 $306 $2 $-1 $422 forward single #
cone-surface $-1 60.62487113388360882 60.62487113388380777 59.49999999999980105 0.6123724356957940262 0.6123724356957960246 0.4999999999999980016 -10.25304832720474479 -10.25304832720506099 25.11473670974876171 1 I I -0.7071067811865470176 0.7071067811865470176 29 forward I I I I #
coedge $-1 $347 $282 $423 $424 reversed $348 $-1 #
straight-curve $-1 -34.68104044682031173 -60.43426301683552992 -5.000000000000664357 -7.716050021144837956e-15 -7.549516567451064475e-15 1.000000000000000222 I I #
coedge $-1 $316 $423 $284 $359 forward $378 $-1 #
edge $-1 $285 -0.7853981633974441712 $318 0.785398163397453053 $358 $425 forward 7 unknown #
point $-1 -34.68104044682034726 -60.43426301683555835 -2.999999999999975131 #
coedge $-1 $313 $287 $426 $427 reversed $117 $-1 #
coedge $-1 $289 $428 $287 $363 forward $367 $-1 #
edge $-1 $429 -1.999999999999938716 $291 5.000000000000000888 $362 $430 forward 7 unknown #
coedge $-1 $431 $432 $288 $365 reversed $433 $-1 #
edge $-1 $434 -0.6162969373960719421 $368 0.6162969373960721642 $288 $435 reversed 7 unknown #
coedge $-1 $428 $289 $432 $436 forward $367 $-1 #
loop $-1 $-1 $362 $384 #
vertex $-1 $290 $437 #
straight-curve $-1 119.9999999999999432 0 -10.00000000000003908 -0.8160244811016558186 0.5780173407803389507 -6.938893903907228378e-17 I I #
point $-1 49.75609756097547631 49.75609756097563263 -9.999999999999996447 #
coedge $-1 $336 $335 $293 $372 forward $337 $-1 #
edge $-1 $373 -1.414213562373098698 $408 1.414213562373098698 $371 $438 forward 7 unknown #
vertex $-1 $380 $439 #
point $-1 70.07607833441120704 70.07607833441143441 38.34936490538879639 #
sti_colour_lwattr-sg-attrib $-1 $-1 $301 $229 1 1 1 1 0 1 0.5 0.5 #
fmesh-eye-attrib $-1 $440 $-1 $302 #
face $441 $442 $443 $2 $-1 $444 forward single #
loop $-1 $-1 $316 $302 #
cone-surface $-1 -64.08612258551634966 -35.92930287612934137 -3.000000000000003553 0.8160244811016549304 -0.5780173407803393948 -4.302114220422481594e-16 -1.22615994392757921 -1.731049332603638469 2.121320343559647714 1 I I 0 1 3.000000000000000888 forward I I I I #
edge $-1 $307 -3.141592653589772244 $373 -4.61605061633722218e-17 $305 $445 forward 7 unknown #
point $-1 51.33774863296737578 51.33774863296837054 84.24871130596412172 #
ellipse-curve $-1 61.23724356957940529 61.23724356957960424 59.99999999999980105 -0.6123724356957940262 -0.6123724356957960246 -0.4999999999999980016 8.838834764831799973 8.838834764831824842 -21.65063509461100111 1 I I #
fmesh-eye-attrib $-1 $446 $-1 $310 #
face $447 $169 $367 $2 $-1 $448 forward single #
cone-surface $-1 30.61862178478970264 30.61862178478980212 34.99999999999990052 0.6123724356957940262 0.6123724356957960246 0.4999999999999980016 8.838834764831799973 8.838834764831824842 -21.65063509461100111 1 I I 0 1 25 forward I I I I #
coedge $-1 $391 $312 $449 $450 reversed $179 $-1 #
coedge $-1 $426 $451 $312 $388 forward $452 $-1 #
edge $-1 $453 -104.5544116985274314 $389 -86.5928263601136905 $312 $454 forward 7 unknown #
vertex $-1 $388 $455 #
straight-curve $-1 65.35533905932722121 65.35533905932743437 0 0.7071067811865463515 0.7071067811865485719 0 I I #
coedge $-1 $315 $386 $456 $457 reversed $179 $-1 #
coedge $-1 $458 $459 $315 $393 forward $443 $-1 #
edge $-1 $395 -0.9544993893988248379 $460 0.9544993893988263922 $315 $461 forward 7 unknown #
coedge $-1 $423 $316 $459 $462 reversed $378 $-1 #
vertex $-1 $317 $463 #
straight-curve $-1 -118.2659479776590103 2.448073443304934926 -2.131628207280300558e-14 -0.8160244811016558186 0.5780173407803389507 -6.938893903907228378e-17 I I #
point $-1 -32.94698842447930076 -57.98618957353065184 0 #
edge $-1 $464 -3.141592653589788231 $464 3.141592653589798001 $320 $465 forward 7 unknown #
sti_colour_lwattr-sg-attrib $-1 $-1 $321 $245 1 1 1 1 0 1 0.5 0.5 #
ellipse-curve $-1 37.06411208797851486 37.06411208797863566 2.15760302844109475 0.707106781186549016 -0.7071067811865460184 -3.198396408832227295e-18 1.837117307087382079 1.837117307087388074 1.499999999999994005 1 I I #
edge $-1 $408 -47.99999999999998579 $342 8.527117293344607774 $339 $466 forward 7 unknown #
sti_colour_lwattr-sg-attrib $-1 $-1 $330 $260 1 1 1 1 0 1 0.5 0.5 #
fmesh-eye-attrib $-1 $467 $-1 $331 #
face $468 $-1 $348 $2 $-1 $469 forward single #
loop $-1 $-1 $470 $331 #
plane-surface $-1 -119.9999999999999858 -4.263256414560601115e-14 -10.00000000000002487 -0.5780173407803391727 0.8160244811016549304 1.11022302462515654e-16 -4.440892098500626162e-16 -3.330669073875469621e-16 1.000000000000000444 forward_v I I I I #
coedge $-1 $414 $413 $471 $472 reversed $332 $-1 #
vertex $-1 $372 $473 #
ellipse-curve $-1 60.01249869818781235 60.0124986981880113 58.99999999999980105 0.6123724356957940262 0.6123724356957960246 0.4999999999999980016 10.60660171779815997 10.60660171779819017 -25.98076211353320275 1 I I #
point $-1 36.00345191619869922 36.00345191619881291 4.755679239794414315 #
coedge $-1 $474 $475 $344 $412 forward $405 $-1 #
edge $-1 $434 42.49999999999996447 $415 118.8191175808801177 $411 $476 forward 7 unknown #
coedge $-1 $407 $345 $347 $417 forward $332 $-1 #
coedge $-1 $345 $407 $474 $477 reversed $332 $-1 #
vertex $-1 $412 $478 #
ellipse-curve $-1 -85.39896195328759632 8.52651282912120223e-14 -10.00000000000059686 -4.440892098500626162e-16 -3.330669073875469621e-16 1.000000000000000222 -20.00000000000004619 -7.105427357601001859e-15 -1.634248292248230428e-13 1 I I #
edge $-1 $349 -4.999999999999963585 $479 1.999999999999207301 $347 $480 forward 7 unknown #
point $-1 -96.959308768894374 -16.32048962203301556 -10.00000000000075318 #
sti_colour_lwattr-sg-attrib $-1 $-1 $353 $280 1 1 1 1 0 1 0.5 0.5 #
fmesh-eye-attrib $-1 $481 $-1 $354 #
face $482 $310 $452 $2 $-1 $483 forward single #
plane-surface $-1 61.23724356957940529 61.23724356957960424 59.99999999999980105 0.6123724356957940262 0.6123724356957960246 0.4999999999999980016 0.35355339059327201 0.3535533905932730092 -0.8660254037844400399 forward_v I I I I #
coedge $-1 $358 $394 $356 $424 forward $378 $-1 #
edge $-1 $479 28.23529411764702246 $285 104.5544116985273462 $356 $484 forward 7 unknown #
ellipse-curve $-1 -32.94698842447930787 -57.98618957353066605 -2.999999999999989342 -0.8160244811016554856 0.5780173407803386176 -8.326672684688674053e-17 -1.226159943927576101 -1.731049332603645574 2.121320343559645938 1 I I #
coedge $-1 $485 $387 $361 $427 forward $452 $-1 #
edge $-1 $389 -1.570796326794889897 $429 1.606122642291077676e-14 $426 $486 forward 7 unknown #
coedge $-1 $362 $366 $485 $487 reversed $367 $-1 #
vertex $-1 $363 $488 #
straight-curve $-1 49.75609756097549052 49.75609756097563974 -4.999999999999992895 4.440892098500626162e-16 3.330669073875469621e-16 -1.000000000000000444 I I #
coedge $-1 $489 $364 $475 $490 forward $433 $-1 #
coedge $-1 $364 $489 $366 $436 reversed $433 $-1 #
loop $-1 $-1 $489 $491 #
vertex $-1 $490 $492 #
ellipse-curve $-1 9.769962616701377556e-15 11.47279415073628961 -10.00000000000002487 -4.440892098500626162e-16 -3.330669073875469621e-16 1.000000000000000222 -1.421085471520200372e-14 60.00000000000000711 -1.776356839400250465e-14 1 I I #
edge $-1 $368 -0 $493 7.000000000000017764 $366 $494 reversed 7 unknown #
point $-1 34.68104044682037568 60.43426301683558677 -10.00000000000000355 #
straight-curve $-1 70.87791946108849572 70.8779194610887231 34.38526329025103934 -0.183012701892220353 -0.1830127018922210469 -0.9659258262890685343 I I #
point $-1 71.13673850619102268 71.13673850619125005 35.75128869403548038 #
sti_colour_lwattr-sg-attrib $-1 $-1 $376 $302 1 1 1 1 0 1 0.5 0.5 #
fmesh-eye-attrib $-1 $495 $-1 $377 #
face $496 $497 $498 $2 $-1 $499 forward single #
loop $-1 $-1 $392 $377 #
torus-surface $-1 -85.39896195328768158 7.105427357601001859e-15 -3.000000000001559641 4.440892098500626162e-16 3.330669073875469621e-16 -1.000000000000000222 17 3 -0.7071067811865463515 -0.7071067811865484609 0 forward_v I I I I #
ellipse-curve $-1 61.23724356957940529 61.23724356957960424 59.99999999999980105 -0.6123724356957940262 -0.6123724356957960246 -0.4999999999999980016 9.899494936611615614 9.899494936611644036 -24.24871130596432067 1 I I #
sti_colour_lwattr-sg-attrib $-1 $-1 $383 $310 1 1 1 1 0 1 0.5 0.5 #
fmesh-eye-attrib $-1 $500 $-1 $384 #
plane-surface $-1 -1.065814103640150279e-14 84.99999999999991473 -10.00000000000003197 0.5780173407803390617 0.8160244811016548194 -2.775557561562891351e-16 4.440892098500626162e-16 3.330669073875469621e-16 -1.000000000000000444 forward_v I I I I #
coedge $-1 $501 $502 $386 $450 forward $503 $-1 #
edge $-1 $504 -0.6162969373960727193 $453 0.6162969373960701658 $386 $505 forward 7 unknown #
coedge $-1 $387 $485 $501 $506 forward $452 $-1 #
loop $-1 $-1 $426 $421 #
vertex $-1 $450 $507 #
straight-curve $-1 118.2659479776589819 -2.448073443304956243 -1.421085471520200372e-14 0.8160244811016558186 -0.5780173407803389507 6.938893903907228378e-17 I I #
point $-1 47.60408178002148816 47.60408178002164448 -2.131628207280300558e-14 #
coedge $-1 $508 $509 $391 $457 forward $498 $-1 #
edge $-1 $460 -118.8191175808802029 $504 -42.49999999999998579 $391 $510 forward 7 unknown #
coedge $-1 $471 $392 $509 $511 reversed $443 $-1 #
coedge $-1 $392 $471 $394 $462 forward $443 $-1 #
vertex $-1 $393 $512 #
ellipse-curve $-1 -85.39896195328765316 4.263256414560601115e-14 -1.435296326235402375e-12 4.440892098500626162e-16 3.330669073875469621e-16 -1.000000000000000222 -16.9999999999999396 2.131628207280300558e-14 -9.237055564881302416e-14 1 I I #
edge $-1 $479 -0.7853981633974697063 $395 0.7853981633974692622 $459 $513 forward 7 unknown #
point $-1 -95.22525674655344119 -13.87241617872807709 -1.474376176702207886e-12 #
vertex $-1 $398 $514 #
ellipse-curve $-1 -79.99999999999998579 2.842170943040400743e-14 -1.410427330483798869e-12 -4.440892098500626162e-16 -3.330669073875469621e-16 1.000000000000000222 -10.00000000000000533 0 -6.705747068735945504e-14 1 I I #
straight-curve $-1 41.22522350258786616 41.22522350258799406 9.019237886466697773 -0.6123724356957940262 -0.6123724356957960246 -0.4999999999999980016 I I #
sti_colour_lwattr-sg-attrib $-1 $-1 $403 $331 1 1 1 1 0 1 0.5 0.5 #
fmesh-eye-attrib $-1 $515 $-1 $404 #
plane-surface $-1 -2.131628207280300558e-14 -84.99999999999997158 -10.00000000000002487 -0.5780173407803390617 -0.8160244811016548194 2.775557561562891351e-16 -4.440892098500626162e-16 -3.330669073875469621e-16 1.000000000000000444 forward_v I I I I #
coedge $-1 $475 $474 $516 $517 reversed $405 $-1 #
coedge $-1 $459 $458 $407 $472 forward $443 $-1 #
edge $-1 $518 -0.954499389398820508 $479 0.9544993893988286127 $407 $519 forward 7 unknown #
point $-1 70.61910041598596877 70.61910041598619614 33.0192378864665983 #
coedge $-1 $470 $411 $414 $477 forward $405 $-1 #
coedge $-1 $411 $470 $431 $490 reversed $405 $-1 #
straight-curve $-1 -1.065814103640150279e-14 84.99999999999991473 -10.00000000000003197 -0.8160244811016559296 -0.5780173407803388397 2.775557561562891351e-16 I I #
edge $-1 $415 -4.999999999999958256 $518 2.00000000000054845 $474 $520 forward 7 unknown #
point $-1 -96.95930876889433137 16.32048962203320031 -10.00000000000054712 #
vertex $-1 $417 $521 #
straight-curve $-1 -96.95930876889443084 -16.32048962203307241 -5.000000000000788702 -7.716050021144837956e-15 -7.549516567451064475e-15 1.000000000000000222 I I #
sti_colour_lwattr-sg-attrib $-1 $-1 $420 $354 1 1 1 1 0 1 0.5 0.5 #
fmesh-eye-attrib $-1 $522 $-1 $421 #
cone-surface $-1 64.08612258551642071 35.92930287612939821 -3.000000000000031974 -0.8160244811016548194 0.5780173407803395058 1.665334536937734811e-16 1.226159943927578322 1.731049332603639801 2.121320343559639277 1 I I 0 1 2.999999999999996891 forward I I I I #
straight-curve $-1 -120 -4.263256414560601115e-14 -3 0.8160244811016558186 -0.5780173407803389507 6.938893903907228378e-17 I I #
coedge $-1 $451 $426 $428 $487 forward $452 $-1 #
ellipse-curve $-1 47.60408178002148105 47.60408178002163027 -3.000000000000010658 -0.707106781186549016 0.7071067811865460184 3.198396408832227295e-18 2.152015780954058322 2.152015780954065427 5.551115123125782702e-15 0.9857364255104079653 I I #
edge $-1 $429 86.08063123816243944 $493 104.5544116985273178 $428 $523 forward 7 unknown #
point $-1 49.75609756097550473 49.75609756097566816 -3.000000000000053291 #
coedge $-1 $432 $431 $524 $525 reversed $433 $-1 #
edge $-1 $434 0 $526 6.999999999999915623 $475 $527 forward 7 unknown #
face $528 $245 $433 $2 $-1 $529 forward single #
point $-1 -34.68104044682036147 60.43426301683555835 -9.999999999999978684 #
vertex $-1 $436 $530 #
straight-curve $-1 34.68104044682037568 60.43426301683558677 -10.00000000000000355 4.440892098500626162e-16 3.330669073875469621e-16 -1.000000000000000444 I I #
sti_colour_lwattr-sg-attrib $-1 $-1 $441 $377 1 1 1 1 0 1 0.5 0.5 #
fmesh-eye-attrib $-1 $531 $-1 $442 #
face $532 $491 $503 $2 $-1 $533 forward single #
loop $-1 $-1 $456 $442 #
cone-surface $-1 -64.08612258551633545 35.92930287612939111 -2.99999999999998046 -0.8160244811016552635 -0.5780173407803383956 -5.551115123125782702e-16 -1.226159943927582319 1.731049332603638691 2.121320343559643717 1 I I 0 1 3 forward I I I I #
sti_colour_lwattr-sg-attrib $-1 $-1 $447 $384 1 1 1 1 0 1 0.5 0.5 #
coedge $-1 $524 $449 $451 $506 reversed $503 $-1 #
coedge $-1 $449 $524 $508 $534 forward $503 $-1 #
loop $-1 $-1 $449 $497 #
vertex $-1 $457 $535 #
ellipse-curve $-1 -1.11022302462515654e-15 11.47279415073627895 -2.664535259100375697e-14 4.440892098500626162e-16 3.330669073875469621e-16 -1.000000000000000222 3.197442310920450836e-14 56.99999999999996447 -3.907985046680551022e-14 1 I I #
edge $-1 $493 -0.7853981633974411736 $453 0.785398163397438398 $451 $536 forward 7 unknown #
point $-1 32.94698842447928655 57.98618957353063763 -2.842170943040400743e-14 #
coedge $-1 $516 $456 $502 $534 reversed $498 $-1 #
coedge $-1 $456 $516 $458 $511 forward $498 $-1 #
straight-curve $-1 1.734052022340996757 82.55192655669497981 -6.03961325396085158e-14 0.8160244811016559296 0.5780173407803388397 -2.775557561562891351e-16 I I #
edge $-1 $518 -0.7853981633974473908 $460 0.7853981633974500554 $509 $537 forward 7 unknown #
point $-1 -95.22525674655338435 13.87241617872819432 -4.263256414560601115e-14 #
ellipse-curve $-1 -95.22525674655344119 -13.87241617872808419 -3.000000000001460165 -0.8160244811016549304 0.5780173407803395058 -5.662137425588298356e-15 -1.226159943927626061 -1.731049332603701085 2.1213203435596375 1 I I #
point $-1 -70.00000000000005684 7.815970093361102045e-14 -4.742872761198668741e-13 #
sti_colour_lwattr-sg-attrib $-1 $-1 $468 $404 1 1 1 1 0 1 0.5 0.5 #
coedge $-1 $509 $508 $470 $517 forward $498 $-1 #
edge $-1 $526 42.49999999999995026 $518 118.8191175808802882 $470 $538 forward 7 unknown #
vertex $-1 $477 $539 #
ellipse-curve $-1 -85.39896195328765316 3.552713678800500929e-14 -3.000000000001424638 -4.440892098500626162e-16 -3.330669073875469621e-16 1.000000000000000222 -19.99999999999998579 5.417888360170763917e-14 -1.127986593019159045e-13 1 I I #
straight-curve $-1 -96.95930876889438821 16.32048962203314346 -5.000000000000587974 -7.716050021144837956e-15 -7.549516567451064475e-15 1.000000000000000222 I I #
point $-1 -96.95930876889443084 -16.32048962203307951 -3.000000000001580958 #
sti_colour_lwattr-sg-attrib $-1 $-1 $482 $421 1 1 1 1 0 1 0.5 0.5 #
straight-curve $-1 119.9999999999999432 0 -3.000000000000007105 -0.8160244811016558186 0.5780173407803389507 -6.938893903907228378e-17 I I #
coedge $-1 $502 $501 $489 $525 forward $503 $-1 #
edge $-1 $493 -0.6162969373960721642 $526 0.616296937396071498 $489 $540 forward 7 unknown #
vertex $-1 $490 $541 #
straight-curve $-1 -34.68104044682036147 60.43426301683555835 -9.999999999999978684 -4.440892098500626162e-16 -3.330669073875469621e-16 1.000000000000000444 I I #
fmesh-eye-attrib $-1 $542 $-1 $491 #
cone-surface $-1 4.884981308350688778e-15 11.47279415073628428 -5.000000000000026645 -4.440892098500626162e-16 -3.330669073875469621e-16 1.000000000000000222 -1.421085471520200372e-14 60.00000000000000711 -1.776356839400250465e-14 1 I I 0 1 60.00000000000003553 forward I I I I #
point $-1 34.68104044682037568 60.43426301683558677 -2.999999999999982236 #
sti_colour_lwattr-sg-attrib $-1 $-1 $496 $442 1 1 1 1 0 1 0.5 0.5 #
fmesh-eye-attrib $-1 $543 $-1 $497 #
torus-surface $-1 -5.162537064506977913e-15 11.47279415073627362 -3.000000000000008882 -4.440892098500626162e-16 -3.330669073875469621e-16 1.000000000000000222 57 3 0.7071067811865463515 0.7071067811865484609 0 forward_v I I I I #
edge $-1 $526 -0.7853981633974659315 $504 0.7853981633974571608 $502 $544 forward 7 unknown #
point $-1 -32.94698842447937892 57.98618957353062342 -1.243449787580175325e-14 #
ellipse-curve $-1 32.94698842447927944 57.98618957353062342 -3.000000000000017764 0.8160244811016554856 -0.5780173407803386176 8.326672684688674053e-17 1.226159943927570772 1.731049332603626478 2.121320343559644606 1 I I #
ellipse-curve $-1 -95.22525674655338435 13.87241617872818722 -3.000000000000030198 0.8160244811016554856 0.5780173407803382846 5.551115123125782702e-17 -1.226159943927575213 1.731049332603645796 2.121320343559626842 1 I I #
straight-curve $-1 -1.065814103640150279e-14 84.99999999999991473 -3.000000000000003553 -0.8160244811016559296 -0.5780173407803388397 2.775557561562891351e-16 I I #
point $-1 -96.95930876889444505 16.32048962203307951 -3.00000000000003908 #
ellipse-curve $-1 -2.109423746787797427e-15 11.47279415073627717 -3.000000000000007105 -4.440892098500626162e-16 -3.330669073875469621e-16 1.000000000000000222 -1.421085471520200372e-14 60.00000000000000711 -1.776356839400250465e-14 1 I I #
point $-1 -34.68104044682036147 60.43426301683557256 -3.000000000000060396 #
sti_colour_lwattr-sg-attrib $-1 $-1 $528 $491 1 1 1 1 0 1 0.5 0.5 #
sti_colour_lwattr-sg-attrib $-1 $-1 $532 $497 1 1 1 1 0 1 0.5 0.5 #
ellipse-curve $-1 -32.94698842447937182 57.98618957353063053 -2.999999999999982236 0.8160244811016554856 0.5780173407803382846 5.551115123125782702e-17 -1.226159943927589424 1.731049332603659785 2.121320343559626842 1 I I #
End-of-ACIS-data 