600 0 2 0           
83 GICL ACIS Healer - Source: /gicl/data5/repository/new/Models/Spatial/dice.sat - 6 0 18 ACIS 6.0.3 Solaris 24 Sat Apr 13 20:27:45 2002 
1 9.999999999999999547e-07 1.000000000000000036e-10 
body $-1 $2 $-1 $-1 #
eye_refinement $3 5 grid  1 3 tri 3 4 surf 0 3 adj 0 4 grad 0 9 postcheck 0 4 stol 0 4 ntol 0 4 dsil 0 8 flatness 0.5 7 pixarea 0 4 hmax 0 6 gridar 0 5 mgrid 10000 5 ugrid 0 5 vgrid 0 10 end_fields #
lump $-1 $-1 $4 $0 #
colour-tsl-attrib $-1 $-1 $-1 $1 2 #
shell $-1 $-1 $-1 $5 $-1 $2 #
face $6 $7 $8 $4 $-1 $9 reversed single #
colour-tsl-attrib $-1 $-1 $-1 $5 7 #
face $10 $11 $12 $4 $-1 $13 reversed single #
loop $-1 $-1 $14 $5 #
sphere-surface $-1 0 65 0 20 1 0 0 0 0 1 forward_v I I I I #
colour-tsl-attrib $-1 $-1 $-1 $7 7 #
face $15 $16 $17 $4 $-1 $18 reversed single #
loop $-1 $-1 $19 $7 #
sphere-surface $-1 25 -65 -30 20 1 0 0 0 0 1 forward_v I I I I #
coedge $-1 $14 $14 $20 $21 reversed $8 $-1 #
colour-tsl-attrib $-1 $-1 $-1 $11 7 #
face $22 $23 $24 $4 $-1 $25 reversed single #
loop $-1 $-1 $26 $11 #
sphere-surface $-1 25 -65 0 20 1 0 0 0 0 1 forward_v I I I I #
coedge $-1 $19 $19 $27 $28 reversed $12 $-1 #
coedge $-1 $20 $20 $14 $21 forward $29 $-1 #
edge $-1 $30 -3.141592653589799777 $30 3.141592653589786455 $20 $31 forward 7 unknown #
colour-tsl-attrib $-1 $-1 $-1 $16 7 #
face $32 $33 $34 $4 $-1 $35 reversed single #
loop $-1 $-1 $36 $16 #
sphere-surface $-1 25 -65 30 20 1 0 0 0 0 1 forward_v I I I I #
coedge $-1 $26 $26 $37 $38 reversed $17 $-1 #
coedge $-1 $27 $27 $19 $28 forward $39 $-1 #
edge $-1 $40 -3.141592653589800666 $40 3.141592653589785566 $27 $41 forward 7 unknown #
loop $-1 $42 $20 $43 #
vertex $-1 $21 $44 #
ellipse-curve $-1 0 50 0 0 -1 0 0 0 -13.22875655532300065 1 I I #
colour-tsl-attrib $-1 $-1 $-1 $23 7 #
face $45 $46 $47 $4 $-1 $48 reversed single #
loop $-1 $-1 $49 $23 #
sphere-surface $-1 -25 -65 -30 20 1 0 0 0 0 1 forward_v I I I I #
coedge $-1 $36 $36 $50 $51 reversed $24 $-1 #
coedge $-1 $37 $37 $26 $38 forward $52 $-1 #
edge $-1 $53 -3.141592653589800666 $53 3.141592653589785566 $37 $54 forward 7 unknown #
loop $-1 $52 $27 $55 #
vertex $-1 $28 $56 #
ellipse-curve $-1 25 -50 -30 0 1 0 0 0 13.22875655532300065 1 I I #
loop $-1 $-1 $57 $43 #
face $58 $59 $29 $4 $-1 $60 reversed single #
point $-1 9.237596680215350222e-14 50 13.22875655532300065 #
colour-tsl-attrib $-1 $-1 $-1 $33 7 #
face $61 $62 $63 $4 $-1 $64 reversed single #
loop $-1 $-1 $65 $33 #
sphere-surface $-1 -25 -65 0 20 1 0 0 0 0 1 forward_v I I I I #
coedge $-1 $49 $49 $66 $67 reversed $34 $-1 #
coedge $-1 $50 $50 $36 $51 forward $68 $-1 #
edge $-1 $69 -3.141592653589800666 $69 3.141592653589785566 $50 $70 forward 7 unknown #
loop $-1 $68 $37 $55 #
vertex $-1 $38 $71 #
ellipse-curve $-1 25 -50 0 0 1 0 0 0 13.22875655532300065 1 I I #
face $72 $73 $39 $4 $-1 $74 reversed single #
point $-1 25.00000000000009948 -50 -43.22875655532300243 #
coedge $-1 $75 $76 $77 $78 reversed $42 $-1 #
colour-tsl-attrib $-1 $-1 $-1 $43 1 #
face $79 $80 $81 $4 $-1 $82 forward single #
plane-surface $-1 0 50 0 0 -1 0 0 0 -1 forward_v I I I I #
colour-tsl-attrib $-1 $-1 $-1 $46 7 #
face $83 $84 $85 $4 $-1 $86 reversed single #
loop $-1 $-1 $87 $46 #
sphere-surface $-1 -25 -65 30 20 1 0 0 0 0 1 forward_v I I I I #
coedge $-1 $65 $65 $88 $89 reversed $47 $-1 #
coedge $-1 $66 $66 $49 $67 forward $90 $-1 #
edge $-1 $91 -3.141592653589800666 $91 3.141592653589785566 $66 $92 forward 7 unknown #
loop $-1 $90 $50 $55 #
vertex $-1 $51 $93 #
ellipse-curve $-1 25 -50 30 0 1 0 0 0 13.22875655532300065 1 I I #
point $-1 25.00000000000009948 -50 -13.22875655532300065 #
colour-tsl-attrib $-1 $-1 $-1 $55 1 #
face $94 $95 $96 $4 $-1 $97 forward single #
plane-surface $-1 0 -50 0 0 1 0 0 0 1 forward_v I I I I #
coedge $-1 $98 $57 $99 $100 reversed $42 $-1 #
coedge $-1 $57 $98 $101 $102 reversed $42 $-1 #
coedge $-1 $103 $104 $57 $78 forward $105 $-1 #
edge $-1 $106 -45 $107 45 $57 $108 forward 7 unknown #
colour-tsl-attrib $-1 $-1 $-1 $59 1 #
face $109 $110 $111 $4 $-1 $112 reversed single #
loop $-1 $-1 $113 $59 #
cone-surface $-1 -2.5 45 45 -1 0 0 0 3.535533905932739973 3.535533905932739973 1 I I 0 1 5.000000000000003553 forward I I I I #
colour-tsl-attrib $-1 $-1 $-1 $62 7 #
face $114 $115 $116 $4 $-1 $117 reversed single #
loop $-1 $-1 $118 $62 #
sphere-surface $-1 -65 -20 -20 20 1 0 0 0 0 1 forward_v I I I I #
coedge $-1 $87 $87 $119 $120 reversed $63 $-1 #
coedge $-1 $88 $88 $65 $89 forward $121 $-1 #
edge $-1 $122 -3.141592653589800666 $122 3.141592653589785566 $88 $123 forward 7 unknown #
loop $-1 $121 $66 $55 #
vertex $-1 $67 $124 #
ellipse-curve $-1 -25 -50 -30 0 1 0 0 0 13.22875655532300065 1 I I #
point $-1 25.00000000000009948 -50 16.77124344467700112 #
colour-tsl-attrib $-1 $-1 $-1 $73 1 #
face $125 $126 $127 $4 $-1 $128 forward single #
loop $-1 $-1 $129 $73 #
cone-surface $-1 45 -45 -2.5 0 0 -1 3.535533905932739973 -3.535533905932739973 0 1 I I 0 1 5.000000000000003553 forward I I I I #
coedge $-1 $76 $75 $130 $131 reversed $42 $-1 #
coedge $-1 $113 $132 $75 $100 forward $81 $-1 #
edge $-1 $133 -45 $106 45 $75 $134 forward 7 unknown #
coedge $-1 $135 $136 $76 $102 forward $137 $-1 #
edge $-1 $107 -45 $138 45 $76 $139 forward 7 unknown #
coedge $-1 $140 $77 $141 $142 reversed $105 $-1 #
coedge $-1 $77 $140 $143 $144 forward $105 $-1 #
loop $-1 $-1 $77 $145 #
vertex $-1 $100 $146 #
vertex $-1 $78 $147 #
straight-curve $-1 -45 50 0 0 0 -1 I I #
colour-tsl-attrib $-1 $-1 $-1 $80 1 #
face $148 $149 $150 $4 $-1 $151 forward single #
loop $-1 $152 $153 $80 #
plane-surface $-1 -50 0 0 1 0 0 0 0 -1 forward_v I I I I #
coedge $-1 $154 $99 $155 $156 reversed $81 $-1 #
colour-tsl-attrib $-1 $-1 $-1 $84 7 #
face $157 $158 $159 $4 $-1 $160 reversed single #
loop $-1 $-1 $161 $84 #
sphere-surface $-1 -65 -20 20 20 1 0 0 0 0 1 forward_v I I I I #
coedge $-1 $118 $118 $153 $162 reversed $85 $-1 #
coedge $-1 $119 $119 $87 $120 forward $163 $-1 #
edge $-1 $164 -3.141592653589800666 $164 3.141592653589785566 $119 $165 forward 7 unknown #
loop $-1 $163 $88 $55 #
vertex $-1 $89 $166 #
ellipse-curve $-1 -25 -50 0 0 1 0 0 0 13.22875655532300065 1 I I #
point $-1 -24.99999999999990052 -50 -43.22875655532300243 #
colour-tsl-attrib $-1 $-1 $-1 $95 1 #
face $167 $168 $169 $4 $-1 $170 forward single #
loop $-1 $-1 $171 $95 #
sphere-surface $-1 45 -45 45 5 1 0 0 0 0 1 forward_v I I I I #
coedge $-1 $172 $173 $174 $175 reversed $96 $-1 #
coedge $-1 $176 $177 $98 $131 forward $178 $-1 #
edge $-1 $138 -45 $133 45 $98 $179 forward 7 unknown #
coedge $-1 $99 $154 $180 $181 reversed $81 $-1 #
vertex $-1 $100 $182 #
straight-curve $-1 0 50 45 -1 0 0 I I #
coedge $-1 $183 $101 $184 $185 forward $137 $-1 #
coedge $-1 $101 $183 $186 $187 reversed $137 $-1 #
loop $-1 $-1 $136 $188 #
vertex $-1 $189 $190 #
straight-curve $-1 0 50 -45 1 0 0 I I #
coedge $-1 $104 $103 $191 $192 forward $105 $-1 #
coedge $-1 $186 $193 $103 $142 forward $194 $-1 #
edge $-1 $195 -0.785398163397448279 $107 0.785398163397448279 $141 $196 forward 7 unknown #
coedge $-1 $197 $155 $104 $144 reversed $198 $-1 #
edge $-1 $199 -0.785398163397448279 $106 0.785398163397448279 $104 $200 forward 7 unknown #
face $201 $202 $105 $4 $-1 $203 forward single #
point $-1 -45 50 45 #
point $-1 -45 50 -45 #
colour-tsl-attrib $-1 $-1 $-1 $110 1 #
face $204 $205 $206 $4 $-1 $207 forward single #
loop $-1 $-1 $208 $110 #
cone-surface $-1 -2.5 -45 -45 -1 0 0 0 -3.535533905932739973 -3.535533905932739973 1 I I 0 1 5.000000000000003553 forward I I I I #
loop $-1 $209 $210 $80 #
coedge $-1 $153 $153 $118 $162 forward $111 $-1 #
coedge $-1 $132 $113 $211 $212 forward $81 $-1 #
coedge $-1 $143 $197 $113 $156 forward $198 $-1 #
edge $-1 $213 -0.785398163397448279 $106 0.785398163397448279 $113 $214 forward 7 unknown #
colour-tsl-attrib $-1 $-1 $-1 $115 7 #
face $215 $216 $217 $4 $-1 $218 reversed single #
loop $-1 $-1 $219 $115 #
sphere-surface $-1 -65 20 20 20 1 0 0 0 0 1 forward_v I I I I #
coedge $-1 $161 $161 $210 $220 reversed $116 $-1 #
edge $-1 $221 -3.141592653589800666 $221 3.141592653589785566 $153 $222 forward 7 unknown #
loop $-1 $223 $119 $55 #
vertex $-1 $120 $224 #
ellipse-curve $-1 -25 -50 30 0 1 0 0 0 13.22875655532300065 1 I I #
point $-1 -24.99999999999990052 -50 -13.22875655532300065 #
colour-tsl-attrib $-1 $-1 $-1 $126 1 #
face $225 $226 $227 $4 $-1 $228 forward single #
loop $-1 $-1 $229 $126 #
cone-surface $-1 -2.5 -45 45 1 0 0 0 -3.535533905932739973 3.535533905932739973 1 I I 0 1 5.000000000000003553 forward I I I I #
coedge $-1 $230 $231 $232 $233 forward $127 $-1 #
coedge $-1 $234 $129 $235 $236 forward $96 $-1 #
coedge $-1 $129 $234 $237 $238 forward $96 $-1 #
coedge $-1 $239 $240 $129 $175 forward $206 $-1 #
edge $-1 $241 -0.785398163397448279 $242 0.785398163397448279 $129 $243 forward 7 unknown #
coedge $-1 $244 $130 $245 $246 forward $178 $-1 #
coedge $-1 $130 $244 $247 $189 reversed $178 $-1 #
loop $-1 $-1 $177 $248 #
straight-curve $-1 45 50 0 0 0 1 I I #
coedge $-1 $249 $245 $132 $181 forward $250 $-1 #
edge $-1 $133 -0.785398163397448279 $251 0.785398163397448279 $180 $252 forward 7 unknown #
point $-1 45 50 45 #
coedge $-1 $136 $135 $253 $254 forward $137 $-1 #
coedge $-1 $247 $255 $135 $185 reversed $256 $-1 #
edge $-1 $138 -0.785398163397448279 $257 0.785398163397448279 $135 $258 forward 7 unknown #
coedge $-1 $193 $141 $136 $187 forward $194 $-1 #
edge $-1 $107 -0.785398163397448279 $259 0.785398163397448279 $136 $260 forward 7 unknown #
face $261 $43 $137 $4 $-1 $262 forward single #
edge $-1 $138 -0.785398163397448279 $263 0.785398163397448279 $177 $264 forward 7 unknown #
point $-1 45 50 -45 #
coedge $-1 $265 $266 $140 $192 reversed $267 $-1 #
edge $-1 $195 -45 $199 45 $191 $268 forward 7 unknown #
coedge $-1 $141 $186 $269 $270 reversed $194 $-1 #
loop $-1 $-1 $186 $202 #
vertex $-1 $192 $271 #
ellipse-curve $-1 -45 45 -45 0 0 -1 -3.535533905932739973 3.535533905932739973 0 1 I I #
coedge $-1 $155 $143 $272 $273 reversed $198 $-1 #
loop $-1 $-1 $155 $274 #
vertex $-1 $192 $275 #
ellipse-curve $-1 -45 45 45 0 0 -1 -3.535533905932739973 3.535533905932739973 0 1 I I #
colour-tsl-attrib $-1 $-1 $-1 $145 1 #
face $276 $277 $194 $4 $-1 $278 forward single #
cone-surface $-1 -45 45 0 0 0 -1 -3.535533905932739973 3.535533905932739973 0 1 I I 0 1 5.000000000000003553 forward I I I I #
colour-tsl-attrib $-1 $-1 $-1 $149 1 #
face $279 $280 $281 $4 $-1 $282 forward single #
loop $-1 $-1 $239 $149 #
sphere-surface $-1 45 -45 -45 5 1 0 0 0 0 1 forward_v I I I I #
coedge $-1 $283 $284 $285 $286 reversed $150 $-1 #
loop $-1 $287 $288 $80 #
coedge $-1 $210 $210 $161 $220 forward $152 $-1 #
coedge $-1 $289 $290 $154 $212 reversed $291 $-1 #
edge $-1 $213 -45 $251 45 $211 $292 forward 7 unknown #
vertex $-1 $156 $293 #
ellipse-curve $-1 -45 45 45 -1 0 0 0 3.535533905932739973 3.535533905932739973 1 I I #
colour-tsl-attrib $-1 $-1 $-1 $158 7 #
face $294 $295 $296 $4 $-1 $297 reversed single #
loop $-1 $-1 $298 $158 #
sphere-surface $-1 -65 20 -20 20 1 0 0 0 0 1 forward_v I I I I #
coedge $-1 $219 $219 $288 $299 reversed $159 $-1 #
edge $-1 $300 -3.141592653589800666 $300 3.141592653589785566 $210 $301 forward 7 unknown #
vertex $-1 $162 $302 #
ellipse-curve $-1 -50 -20 -20 1 0 0 0 0 -13.22875655532300065 1 I I #
loop $-1 $-1 $303 $55 #
point $-1 -24.99999999999990052 -50 16.77124344467700112 #
colour-tsl-attrib $-1 $-1 $-1 $168 1 #
face $304 $305 $306 $4 $-1 $307 reversed single #
loop $-1 $-1 $232 $168 #
cone-surface $-1 45 0 45 0 1 0 3.535533905932739973 0 3.535533905932739973 1 I I 0 1 5.000000000000003553 forward I I I I #
coedge $-1 $308 $309 $310 $311 reversed $169 $-1 #
coedge $-1 $231 $171 $312 $313 reversed $127 $-1 #
coedge $-1 $171 $230 $234 $314 forward $127 $-1 #
coedge $-1 $315 $316 $171 $233 reversed $227 $-1 #
edge $-1 $317 -0.785398163397448279 $318 0.785398163397448279 $232 $319 forward 7 unknown #
coedge $-1 $173 $172 $231 $314 reversed $96 $-1 #
coedge $-1 $320 $321 $172 $236 reversed $322 $-1 #
edge $-1 $241 -45 $317 45 $235 $323 forward 7 unknown #
coedge $-1 $324 $325 $173 $238 reversed $223 $-1 #
edge $-1 $326 -45 $242 45 $237 $327 forward 7 unknown #
coedge $-1 $240 $174 $328 $329 forward $206 $-1 #
coedge $-1 $174 $239 $330 $331 reversed $206 $-1 #
vertex $-1 $175 $332 #
vertex $-1 $238 $333 #
ellipse-curve $-1 45 -45 -45 0 0 -1 3.535533905932739973 -3.535533905932739973 0 1 I I #
coedge $-1 $177 $176 $334 $335 forward $178 $-1 #
coedge $-1 $180 $249 $176 $246 reversed $250 $-1 #
edge $-1 $133 -0.785398163397448279 $336 0.785398163397448279 $176 $337 forward 7 unknown #
coedge $-1 $255 $184 $177 $189 forward $256 $-1 #
face $338 $339 $178 $4 $-1 $340 forward single #
coedge $-1 $245 $180 $341 $342 forward $250 $-1 #
loop $-1 $-1 $249 $305 #
vertex $-1 $212 $343 #
ellipse-curve $-1 45 45 45 1 0 0 0 3.535533905932739973 3.535533905932739973 1 I I #
coedge $-1 $344 $345 $183 $254 reversed $346 $-1 #
edge $-1 $257 -45 $259 45 $253 $347 forward 7 unknown #
coedge $-1 $184 $247 $348 $349 forward $256 $-1 #
loop $-1 $-1 $255 $280 #
vertex $-1 $350 $351 #
ellipse-curve $-1 45 45 -45 -1 0 0 0 3.535533905932739973 -3.535533905932739973 1 I I #
vertex $-1 $254 $352 #
ellipse-curve $-1 -45 45 -45 -1 0 0 0 3.535533905932739973 -3.535533905932739973 1 I I #
colour-tsl-attrib $-1 $-1 $-1 $188 1 #
cone-surface $-1 -2.5 45 -45 1 0 0 0 3.535533905932739973 -3.535533905932739973 1 I I 0 1 5.000000000000003553 forward I I I I #
vertex $-1 $335 $353 #
ellipse-curve $-1 45 45 -45 0 0 -1 3.535533905932739973 3.535533905932739973 0 1 I I #
coedge $-1 $354 $191 $355 $356 reversed $267 $-1 #
coedge $-1 $191 $354 $357 $358 reversed $267 $-1 #
loop $-1 $-1 $191 $80 #
straight-curve $-1 -50 45 0 0 0 1 I I #
coedge $-1 $359 $355 $193 $270 forward $360 $-1 #
edge $-1 $195 -0.785398163397448279 $259 0.785398163397448279 $269 $361 forward 7 unknown #
point $-1 -50 45 -45 #
coedge $-1 $357 $362 $197 $273 forward $363 $-1 #
edge $-1 $213 -0.785398163397448279 $199 0.785398163397448279 $272 $364 forward 7 unknown #
face $365 $145 $198 $4 $-1 $366 forward single #
point $-1 -50 45 45 #
colour-tsl-attrib $-1 $-1 $-1 $202 1 #
face $367 $368 $360 $4 $-1 $369 forward single #
sphere-surface $-1 -45 45 -45 5 1 0 0 0 0 1 forward_v I I I I #
colour-tsl-attrib $-1 $-1 $-1 $205 1 #
face $370 $55 $256 $4 $-1 $371 forward single #
loop $-1 $-1 $372 $205 #
cone-surface $-1 45 0 -45 0 -1 0 3.535533905932739973 0 -3.535533905932739973 1 I I 0 1 5.000000000000003553 forward I I I I #
coedge $-1 $328 $208 $373 $374 forward $150 $-1 #
coedge $-1 $208 $328 $325 $375 forward $150 $-1 #
coedge $-1 $376 $377 $208 $286 forward $378 $-1 #
edge $-1 $379 -0.785398163397448279 $380 0.785398163397448279 $208 $381 forward 7 unknown #
loop $-1 $267 $382 $80 #
coedge $-1 $288 $288 $219 $299 forward $209 $-1 #
coedge $-1 $383 $211 $362 $384 reversed $291 $-1 #
coedge $-1 $211 $383 $316 $385 reversed $291 $-1 #
loop $-1 $-1 $289 $339 #
straight-curve $-1 0 45 50 1 0 0 I I #
point $-1 -45 45 50 #
colour-tsl-attrib $-1 $-1 $-1 $216 7 #
face $386 $387 $388 $4 $-1 $389 reversed single #
loop $-1 $-1 $390 $216 #
sphere-surface $-1 65 0 0 20 1 0 0 0 0 1 forward_v I I I I #
coedge $-1 $298 $298 $382 $391 reversed $217 $-1 #
edge $-1 $392 -3.141592653589800666 $392 3.141592653589785566 $288 $393 forward 7 unknown #
vertex $-1 $220 $394 #
ellipse-curve $-1 -50 -20 20 1 0 0 0 0 -13.22875655532300065 1 I I #
point $-1 -50 -19.99999999999990052 -6.771243444677049972 #
coedge $-1 $325 $324 $395 $396 reversed $223 $-1 #
colour-tsl-attrib $-1 $-1 $-1 $226 1 #
face $397 $248 $250 $4 $-1 $398 forward single #
loop $-1 $399 $400 $226 #
plane-surface $-1 50 0 0 -1 0 0 0 0 1 forward_v I I I I #
coedge $-1 $312 $229 $324 $401 forward $169 $-1 #
coedge $-1 $229 $312 $383 $402 forward $169 $-1 #
coedge $-1 $403 $404 $229 $311 forward $405 $-1 #
edge $-1 $406 -0.785398163397448279 $407 0.785398163397448279 $229 $408 forward 7 unknown #
coedge $-1 $309 $308 $230 $313 forward $169 $-1 #
edge $-1 $326 -0.785398163397448279 $318 0.785398163397448279 $312 $409 forward 7 unknown #
edge $-1 $326 -0.785398163397448279 $317 0.785398163397448279 $231 $410 forward 7 unknown #
coedge $-1 $341 $232 $321 $411 forward $227 $-1 #
coedge $-1 $232 $341 $290 $385 forward $227 $-1 #
vertex $-1 $236 $412 #
vertex $-1 $385 $413 #
ellipse-curve $-1 45 -45 45 0 -1 0 3.535533905932739973 0 3.535533905932739973 1 I I #
coedge $-1 $334 $235 $414 $415 reversed $322 $-1 #
coedge $-1 $235 $334 $315 $411 reversed $322 $-1 #
loop $-1 $-1 $320 $226 #
straight-curve $-1 50 -45 0 0 0 1 I I #
coedge $-1 $303 $237 $308 $401 reversed $223 $-1 #
coedge $-1 $237 $303 $284 $375 reversed $223 $-1 #
vertex $-1 $238 $416 #
straight-curve $-1 45 -50 0 0 0 -1 I I #
coedge $-1 $284 $283 $239 $329 reversed $150 $-1 #
edge $-1 $242 -0.785398163397448279 $417 0.785398163397448279 $239 $418 forward 7 unknown #
coedge $-1 $372 $414 $240 $331 forward $281 $-1 #
edge $-1 $241 -0.785398163397448279 $417 0.785398163397448279 $330 $419 forward 7 unknown #
point $-1 50 -45 -45 #
point $-1 45 -50 -45 #
coedge $-1 $321 $320 $244 $335 reversed $322 $-1 #
edge $-1 $336 -45 $263 45 $334 $420 forward 7 unknown #
vertex $-1 $411 $421 #
ellipse-curve $-1 45 45 45 0 0 -1 3.535533905932739973 3.535533905932739973 0 1 I I #
colour-tsl-attrib $-1 $-1 $-1 $248 1 #
face $422 $-1 $423 $4 $-1 $424 forward single #
cone-surface $-1 45 45 -2.5 0 0 -1 3.535533905932739973 3.535533905932739973 0 1 I I 0 1 5.000000000000003553 forward I I I I #
coedge $-1 $316 $315 $249 $342 reversed $227 $-1 #
edge $-1 $251 -0.785398163397448279 $336 0.785398163397448279 $341 $425 forward 7 unknown #
point $-1 45 45 50 #
coedge $-1 $373 $253 $372 $350 reversed $346 $-1 #
coedge $-1 $253 $373 $359 $426 reversed $346 $-1 #
loop $-1 $-1 $345 $427 #
straight-curve $-1 0 45 -50 -1 0 0 I I #
coedge $-1 $414 $372 $255 $349 reversed $281 $-1 #
edge $-1 $263 -0.785398163397448279 $257 0.785398163397448279 $255 $428 forward 7 unknown #
edge $-1 $417 -45 $257 45 $344 $429 forward 7 unknown #
point $-1 45 45 -50 #
point $-1 -45 45 -50 #
point $-1 50 45 -45 #
coedge $-1 $266 $265 $430 $431 reversed $267 $-1 #
coedge $-1 $269 $432 $265 $356 forward $360 $-1 #
edge $-1 $433 -45 $195 45 $265 $434 forward 7 unknown #
coedge $-1 $435 $272 $266 $358 forward $363 $-1 #
edge $-1 $199 -45 $436 45 $266 $437 forward 7 unknown #
coedge $-1 $432 $269 $345 $426 forward $360 $-1 #
loop $-1 $-1 $359 $277 #
ellipse-curve $-1 -45 45 -45 0 -1 0 -3.535533905932739973 0 -3.535533905932739973 1 I I #
coedge $-1 $272 $435 $289 $384 forward $363 $-1 #
loop $-1 $-1 $362 $438 #
ellipse-curve $-1 -45 45 45 0 -1 0 -3.535533905932739973 0 3.535533905932739973 1 I I #
colour-tsl-attrib $-1 $-1 $-1 $274 1 #
sphere-surface $-1 -45 45 45 5 1 0 0 0 0 1 forward_v I I I I #
colour-tsl-attrib $-1 $-1 $-1 $277 1 #
face $439 $440 $378 $4 $-1 $441 forward single #
cone-surface $-1 -45 0 -45 0 1 0 -3.535533905932739973 0 -3.535533905932739973 1 I I 0 1 5.000000000000003553 forward I I I I #
colour-tsl-attrib $-1 $-1 $-1 $280 1 #
sphere-surface $-1 45 45 -45 5 1 0 0 0 0 1 forward_v I I I I #
coedge $-1 $348 $330 $344 $350 forward $281 $-1 #
coedge $-1 $345 $344 $283 $374 reversed $346 $-1 #
edge $-1 $379 -45 $417 45 $373 $442 forward 7 unknown #
edge $-1 $242 -45 $380 45 $325 $443 forward 7 unknown #
coedge $-1 $377 $285 $444 $445 reversed $378 $-1 #
coedge $-1 $285 $376 $432 $446 forward $378 $-1 #
loop $-1 $-1 $285 $368 #
vertex $-1 $426 $447 #
vertex $-1 $375 $448 #
ellipse-curve $-1 -45 -45 -45 -1 0 0 0 -3.535533905932739973 -3.535533905932739973 1 I I #
coedge $-1 $382 $382 $298 $391 forward $287 $-1 #
coedge $-1 $290 $289 $309 $402 reversed $291 $-1 #
edge $-1 $407 -45 $213 45 $289 $449 forward 7 unknown #
edge $-1 $251 -45 $318 45 $290 $450 forward 7 unknown #
colour-tsl-attrib $-1 $-1 $-1 $295 7 #
face $451 $452 $453 $4 $-1 $454 reversed single #
loop $-1 $-1 $455 $295 #
sphere-surface $-1 65 25 -25 20 1 0 0 0 0 1 forward_v I I I I #
coedge $-1 $390 $390 $400 $456 reversed $296 $-1 #
edge $-1 $457 -3.141592653589800666 $457 3.141592653589785566 $382 $458 forward 7 unknown #
vertex $-1 $299 $459 #
ellipse-curve $-1 -50 20 20 1 0 0 0 0 -13.22875655532300065 1 I I #
point $-1 -50 -19.99999999999990052 33.22875655532300243 #
coedge $-1 $460 $444 $303 $396 forward $461 $-1 #
edge $-1 $380 -45 $406 45 $303 $462 forward 7 unknown #
colour-tsl-attrib $-1 $-1 $-1 $305 1 #
sphere-surface $-1 45 45 45 5 1 0 0 0 0 1 forward_v I I I I #
loop $-1 $463 $464 $226 #
coedge $-1 $400 $400 $390 $456 forward $306 $-1 #
edge $-1 $406 -45 $326 45 $324 $465 forward 7 unknown #
edge $-1 $318 -45 $407 45 $383 $466 forward 7 unknown #
coedge $-1 $404 $310 $435 $467 reversed $405 $-1 #
coedge $-1 $310 $403 $460 $468 forward $405 $-1 #
loop $-1 $-1 $310 $469 #
vertex $-1 $311 $470 #
vertex $-1 $402 $471 #
ellipse-curve $-1 -45 -45 45 -1 0 0 0 -3.535533905932739973 3.535533905932739973 1 I I #
ellipse-curve $-1 45 -45 45 -1 0 0 0 -3.535533905932739973 3.535533905932739973 1 I I #
ellipse-curve $-1 45 -45 45 0 0 1 3.535533905932739973 -3.535533905932739973 0 1 I I #
edge $-1 $317 -45 $336 45 $321 $472 forward 7 unknown #
point $-1 50 -45 45 #
point $-1 45 -45 50 #
coedge $-1 $330 $348 $320 $415 forward $281 $-1 #
edge $-1 $263 -45 $241 45 $320 $473 forward 7 unknown #
point $-1 45 -50 45 #
vertex $-1 $374 $474 #
ellipse-curve $-1 45 -45 -45 1 0 0 0 -3.535533905932739973 -3.535533905932739973 1 I I #
ellipse-curve $-1 45 -45 -45 0 1 0 3.535533905932739973 0 -3.535533905932739973 1 I I #
straight-curve $-1 50 45 0 0 0 -1 I I #
point $-1 50 45 45 #
colour-tsl-attrib $-1 $-1 $-1 $339 1 #
loop $-1 $475 $476 $339 #
plane-surface $-1 0 0 50 0 0 1 1 0 0 forward_v I I I I #
ellipse-curve $-1 45 45 45 0 1 0 3.535533905932739973 0 3.535533905932739973 1 I I #
edge $-1 $259 -45 $379 45 $345 $477 forward 7 unknown #
face $478 $188 $479 $4 $-1 $480 reversed single #
ellipse-curve $-1 45 45 -45 0 1 0 3.535533905932739973 0 -3.535533905932739973 1 I I #
straight-curve $-1 45 0 -50 0 1 0 I I #
coedge $-1 $444 $460 $354 $431 forward $461 $-1 #
edge $-1 $436 -45 $433 45 $354 $481 forward 7 unknown #
coedge $-1 $355 $359 $377 $446 reversed $360 $-1 #
vertex $-1 $356 $482 #
straight-curve $-1 -50 0 -45 0 1 0 I I #
coedge $-1 $362 $357 $403 $467 forward $363 $-1 #
vertex $-1 $431 $483 #
straight-curve $-1 -50 0 45 0 -1 0 I I #
face $484 $427 $363 $4 $-1 $485 forward single #
colour-tsl-attrib $-1 $-1 $-1 $368 1 #
face $486 $469 $461 $4 $-1 $487 forward single #
sphere-surface $-1 -45 -45 -45 5 1 0 0 0 0 1 forward_v I I I I #
straight-curve $-1 0 -45 -50 1 0 0 I I #
straight-curve $-1 0 -50 -45 -1 0 0 I I #
coedge $-1 $395 $430 $376 $445 forward $461 $-1 #
edge $-1 $433 -0.785398163397448279 $380 0.785398163397448279 $444 $488 forward 7 unknown #
edge $-1 $433 -0.785398163397448279 $379 0.785398163397448279 $377 $489 forward 7 unknown #
point $-1 -45 -45 -50 #
point $-1 -45 -50 -45 #
straight-curve $-1 -45 0 50 0 1 0 I I #
straight-curve $-1 45 0 50 0 -1 0 I I #
colour-tsl-attrib $-1 $-1 $-1 $387 7 #
face $490 $491 $492 $4 $-1 $493 reversed single #
loop $-1 $-1 $494 $387 #
sphere-surface $-1 65 -25 25 20 1 0 0 0 0 1 forward_v I I I I #
coedge $-1 $455 $455 $464 $495 reversed $388 $-1 #
edge $-1 $496 -3.141592653589799777 $496 3.141592653589786455 $400 $497 forward 7 unknown #
vertex $-1 $391 $498 #
ellipse-curve $-1 -50 20 -20 1 0 0 0 0 -13.22875655532300065 1 I I #
point $-1 -50 20.00000000000009948 33.22875655532300243 #
coedge $-1 $430 $395 $404 $468 reversed $461 $-1 #
loop $-1 $-1 $395 $440 #
straight-curve $-1 -45 -50 0 0 0 1 I I #
loop $-1 $322 $499 $226 #
coedge $-1 $464 $464 $455 $495 forward $399 $-1 #
straight-curve $-1 0 -50 45 1 0 0 I I #
straight-curve $-1 0 -45 50 -1 0 0 I I #
edge $-1 $436 -0.785398163397448279 $407 0.785398163397448279 $435 $500 forward 7 unknown #
edge $-1 $436 -0.785398163397448279 $406 0.785398163397448279 $404 $501 forward 7 unknown #
face $502 $438 $405 $4 $-1 $503 forward single #
point $-1 -45 -50 45 #
point $-1 -45 -45 50 #
straight-curve $-1 50 0 45 0 1 0 I I #
straight-curve $-1 50 0 -45 0 -1 0 I I #
point $-1 45 -45 -50 #
loop $-1 $504 $505 $339 #
coedge $-1 $476 $476 $506 $507 forward $423 $-1 #
straight-curve $-1 -45 0 -50 0 -1 0 I I #
colour-tsl-attrib $-1 $-1 $-1 $427 1 #
loop $-1 $508 $509 $427 #
plane-surface $-1 0 0 -50 0 0 1 1 0 0 forward_v I I I I #
straight-curve $-1 -50 -45 0 0 0 -1 I I #
point $-1 -50 -45 -45 #
point $-1 -50 -45 45 #
colour-tsl-attrib $-1 $-1 $-1 $438 1 #
cone-surface $-1 -45 0 45 0 -1 0 -3.535533905932739973 0 3.535533905932739973 1 I I 0 1 5.000000000000003553 forward I I I I #
colour-tsl-attrib $-1 $-1 $-1 $440 1 #
cone-surface $-1 -45 -45 0 0 0 -1 -3.535533905932739973 -3.535533905932739973 0 1 I I 0 1 5.000000000000003553 forward I I I I #
ellipse-curve $-1 -45 -45 -45 0 0 1 -3.535533905932739973 -3.535533905932739973 0 1 I I #
ellipse-curve $-1 -45 -45 -45 0 -1 0 -3.535533905932739973 0 -3.535533905932739973 1 I I #
colour-tsl-attrib $-1 $-1 $-1 $452 7 #
face $510 $511 $512 $4 $-1 $513 reversed single #
loop $-1 $-1 $514 $452 #
sphere-surface $-1 20 20 -65 20 1 0 0 0 0 1 forward_v I I I I #
coedge $-1 $494 $494 $499 $515 reversed $453 $-1 #
edge $-1 $516 -3.141592653589800666 $516 3.141592653589785566 $464 $517 forward 7 unknown #
vertex $-1 $456 $518 #
ellipse-curve $-1 50 0 0 -1 0 0 0 0 13.22875655532300065 1 I I #
point $-1 -50 20.00000000000009948 -6.771243444677049972 #
coedge $-1 $499 $499 $494 $515 forward $463 $-1 #
ellipse-curve $-1 -45 -45 45 0 1 0 -3.535533905932739973 0 3.535533905932739973 1 I I #
ellipse-curve $-1 -45 -45 45 0 0 1 -3.535533905932739973 -3.535533905932739973 0 1 I I #
colour-tsl-attrib $-1 $-1 $-1 $469 1 #
sphere-surface $-1 -45 -45 45 5 1 0 0 0 0 1 forward_v I I I I #
loop $-1 $519 $520 $339 #
coedge $-1 $505 $505 $521 $522 forward $475 $-1 #
coedge $-1 $506 $506 $476 $507 reversed $523 $-1 #
edge $-1 $524 -3.141592653589799777 $524 3.141592653589786455 $476 $525 forward 7 unknown #
loop $-1 $346 $526 $427 #
coedge $-1 $509 $509 $514 $527 forward $479 $-1 #
colour-tsl-attrib $-1 $-1 $-1 $491 7 #
face $528 $529 $523 $4 $-1 $530 reversed single #
loop $-1 $-1 $531 $491 #
sphere-surface $-1 -20 -20 -65 20 1 0 0 0 0 1 forward_v I I I I #
coedge $-1 $514 $514 $509 $527 reversed $492 $-1 #
edge $-1 $532 -3.141592653589800666 $532 3.141592653589785566 $499 $533 forward 7 unknown #
vertex $-1 $495 $534 #
ellipse-curve $-1 50 25 -25 -1 0 0 0 0 13.22875655532300065 1 I I #
point $-1 50 9.237596680215350222e-14 -13.22875655532300065 #
loop $-1 $535 $536 $339 #
coedge $-1 $520 $520 $537 $538 forward $504 $-1 #
coedge $-1 $521 $521 $505 $522 reversed $539 $-1 #
edge $-1 $540 -3.141592653589800666 $540 3.141592653589785566 $505 $541 forward 7 unknown #
loop $-1 $-1 $506 $511 #
vertex $-1 $507 $542 #
ellipse-curve $-1 0 0 50 0 0 -1 0 13.22875655532300065 0 1 I I #
coedge $-1 $526 $526 $531 $543 forward $508 $-1 #
edge $-1 $544 -3.141592653589800666 $544 3.141592653589785566 $509 $545 forward 7 unknown #
colour-tsl-attrib $-1 $-1 $-1 $511 7 #
face $546 $547 $539 $4 $-1 $548 reversed single #
sphere-surface $-1 0 0 65 20 1 0 0 0 0 1 forward_v I I I I #
coedge $-1 $531 $531 $526 $543 reversed $512 $-1 #
vertex $-1 $515 $549 #
ellipse-curve $-1 50 -25 25 -1 0 0 0 0 13.22875655532300065 1 I I #
point $-1 50 25.00000000000009948 -38.22875655532300243 #
loop $-1 $291 $550 $339 #
coedge $-1 $536 $536 $551 $552 forward $519 $-1 #
coedge $-1 $537 $537 $520 $538 reversed $553 $-1 #
edge $-1 $554 -3.141592653589800666 $554 3.141592653589785566 $520 $555 forward 7 unknown #
loop $-1 $-1 $521 $529 #
vertex $-1 $522 $556 #
ellipse-curve $-1 25 -25 50 0 0 -1 0 13.22875655532300065 0 1 I I #
point $-1 9.237596680215350222e-14 -13.22875655532300065 50 #
edge $-1 $557 -3.141592653589800666 $557 3.141592653589785566 $526 $558 forward 7 unknown #
vertex $-1 $527 $559 #
ellipse-curve $-1 20 20 -50 0 0 1 0 -13.22875655532300065 0 1 I I #
colour-tsl-attrib $-1 $-1 $-1 $529 7 #
face $560 $561 $553 $4 $-1 $562 reversed single #
sphere-surface $-1 25 -25 65 20 1 0 0 0 0 1 forward_v I I I I #
point $-1 50 -24.99999999999990052 11.77124344467699935 #
coedge $-1 $550 $550 $563 $564 forward $535 $-1 #
coedge $-1 $551 $551 $536 $552 reversed $565 $-1 #
edge $-1 $566 -3.141592653589800666 $566 3.141592653589785566 $536 $567 forward 7 unknown #
loop $-1 $-1 $537 $547 #
vertex $-1 $538 $568 #
ellipse-curve $-1 -25 -25 50 0 0 -1 0 13.22875655532300065 0 1 I I #
point $-1 25.00000000000009948 -38.22875655532300243 50 #
vertex $-1 $543 $569 #
ellipse-curve $-1 -20 -20 -50 0 0 1 0 -13.22875655532300065 0 1 I I #
point $-1 20.00000000000009948 33.22875655532300243 -50 #
colour-tsl-attrib $-1 $-1 $-1 $547 7 #
face $570 $571 $565 $4 $-1 $572 reversed single #
sphere-surface $-1 -25 -25 65 20 1 0 0 0 0 1 forward_v I I I I #
coedge $-1 $563 $563 $550 $564 reversed $573 $-1 #
edge $-1 $574 -3.141592653589800666 $574 3.141592653589785566 $550 $575 forward 7 unknown #
loop $-1 $-1 $551 $561 #
vertex $-1 $552 $576 #
ellipse-curve $-1 -25 25 50 0 0 -1 0 13.22875655532300065 0 1 I I #
point $-1 -24.99999999999990052 -38.22875655532300243 50 #
point $-1 -19.99999999999990052 -6.771243444677049972 -50 #
colour-tsl-attrib $-1 $-1 $-1 $561 7 #
face $577 $274 $573 $4 $-1 $578 reversed single #
sphere-surface $-1 -25 25 65 20 1 0 0 0 0 1 forward_v I I I I #
loop $-1 $-1 $563 $571 #
vertex $-1 $564 $579 #
ellipse-curve $-1 25 25 50 0 0 -1 0 13.22875655532300065 0 1 I I #
point $-1 -24.99999999999990052 11.77124344467699935 50 #
colour-tsl-attrib $-1 $-1 $-1 $571 7 #
sphere-surface $-1 25 25 65 20 1 0 0 0 0 1 forward_v I I I I #
point $-1 25.00000000000009948 11.77124344467699935 50 #
End-of-ACIS-data 