300 0 7 0           
7 Unknown 11 ACIS 3.0 NT 24 Tue Sep 23 14:35:08 1997 
1 9.9999999999999995e-007 1e-010 
rh_material-rh_entity $7 4 15 wrapped checker 4 size -2 15 9 odd color -4 1 1 1 10 even color -4 0 0 0 5 phong 14 ambient factor -2 1 14 diffuse factor -2 0.75 15 specular factor -2 0.5 8 exponent -2 10 14 specular color -4 1 1 1 4 none 4 none #
rh_material-rh_entity $8 4 5 plain 5 color -4 1 0 0 5 phong 14 ambient factor -2 1 14 diffuse factor -2 0.75 15 specular factor -2 0.5 8 exponent -2 10 14 specular color -4 1 1 1 4 none 4 none #
rh_light-rh_entity $9 4 7 distant 9 intensity -2 0.31000000238418601 5 color -4 1 1 1 8 location -5 -126.543670654297 65.772750854492202 0 2 to -5 0 0 0 7 shadows -6 0 17 shadow resolution -1 256 14 shadow quality -1 4 15 shadow softness -2 1 #
body $10 $11 $-1 $12 #
body $13 $14 $-1 $-1 #
eye_refinement $15 5 grid  1 3 tri 3 4 surf 0 3 adj 1 4 grad 0 9 postcheck 0 4 stol 0 4 ntol 0 4 dsil 0 8 flatness 0.5 7 pixarea 0 4 hmax 0 6 gridar 4 5 mgrid 0 10 end_fields #
rh_light-rh_entity $16 4 3 eye 9 intensity -2 1 5 color -4 1 1 1 #
named_string_attribute-named_attribute-st-attrib $-1 $17 $-1 $0 8 material2 m2#
named_string_attribute-named_attribute-st-attrib $-1 $18 $-1 $1 8 material2 m1#
named_string_attribute-named_attribute-st-attrib $-1 $19 $-1 $2 5 light2 l1#
render-rbase-attrib $-1 $20 $-1 $3 $1 $-1 0 1 1 0 0 0 1 0 0 0 1 0 0 20 1 no_rotate no_reflect no_shear #
lump $-1 $-1 $21 $3 #
transform $-1 1 0 0 0 1 0 0 0 1 0 0 20 1 no_rotate no_reflect no_shear #
render-rbase-attrib $-1 $22 $-1 $4 $0 $-1 0 0 #
lump $-1 $-1 $23 $4 #
display_attribute-st-attrib $-1 $24 $-1 $5 1 #
display_attribute-st-attrib $-1 $25 $-1 $6 1 #
display_attribute-st-attrib $-1 $26 $7 $0 1 #
display_attribute-st-attrib $-1 $27 $8 $1 1 #
display_attribute-st-attrib $-1 $28 $9 $2 2 #
display_attribute-st-attrib $-1 $29 $10 $3 2 #
shell $-1 $-1 $-1 $30 $-1 $11 #
display_attribute-st-attrib $-1 $31 $13 $4 2 #
shell $-1 $-1 $-1 $32 $-1 $14 #
colour-tsl-attrib $-1 $33 $15 $5 2 #
id_attribute-st-attrib $-1 $-1 $16 $6 7 #
colour-tsl-attrib $-1 $34 $17 $0 2 #
colour-tsl-attrib $-1 $35 $18 $1 2 #
colour-tsl-attrib $-1 $36 $19 $2 2 #
id_attribute-st-attrib $-1 $-1 $20 $3 4 #
face $37 $-1 $-1 $21 $-1 $38 forward single #
id_attribute-st-attrib $-1 $-1 $22 $4 5 #
face $39 $40 $41 $23 $-1 $42 forward single #
id_attribute-st-attrib $-1 $-1 $24 $5 6 #
id_attribute-st-attrib $-1 $-1 $26 $0 1 #
id_attribute-st-attrib $-1 $-1 $27 $1 2 #
id_attribute-st-attrib $-1 $-1 $28 $2 3 #
fmesh-eye-attrib $-1 $-1 $-1 $30 #
sphere-surface $-1 0 0 0 10 1 0 0 0 0 1 forward_v I I I I #
fmesh-eye-attrib $-1 $-1 $-1 $32 #
face $43 $44 $45 $23 $-1 $46 reversed single #
loop $-1 $-1 $47 $32 #
spline-surface $-1 forward { exactsur nubs 3 3 open open none none 3 3 
	0 3 50 1 100 3 
	0 3 50 1 100 3 
	-50 -50 10 
	-38.2148869802242 -50 21.7851130197758 
	0 -50 10 
	38.2148869802242 -50 -1.7851130197757901 
	50 -50 10 
	-50 -38.2148869802242 21.7851130197758 
	-38.2148869802242 -38.2148869802242 25.713484026367698 
	0 -38.2148869802242 11.964185503295999 
	38.2148869802242 -38.2148869802242 -9.6418550329596595 
	50 -38.2148869802242 -1.7851130197757901 
	-50 0 -1.7851130197757901 
	-38.2148869802242 0 0.17907248352017299 
	0 0 10 
	38.2148869802242 0 -3.7492985230717601 
	50 0 10 
	-50 38.2148869802242 21.7851130197758 
	-38.2148869802242 38.2148869802242 13.928371006591901 
	0 38.2148869802242 31.606040536255598 
	38.2148869802242 38.2148869802242 10 
	50 38.2148869802242 21.7851130197758 
	-50 50 10 
	-38.2148869802242 50 -1.7851130197757901 
	0 50 21.7851130197758 
	38.2148869802242 50 -1.7851130197757901 
	50 50 10 
	0 
	0 
	0 
	0 
	0 
	0 
	0 
	F 1 F 0 F 1 F 0 } I I I I #
fmesh-eye-attrib $-1 $-1 $-1 $40 #
face $48 $49 $50 $23 $-1 $51 reversed single #
loop $-1 $-1 $52 $40 #
plane-surface $-1 0 0 -10 0 0 1 1 0 0 forward_v I I I I #
coedge $-1 $53 $54 $55 $56 forward $41 $57 #
fmesh-eye-attrib $-1 $-1 $-1 $44 #
face $58 $59 $60 $23 $-1 $61 reversed single #
loop $-1 $-1 $62 $44 #
plane-surface $-1 0 -50 0 0 1 0 0 0 1 forward_v I I I I #
coedge $-1 $63 $64 $65 $66 forward $45 $-1 #
coedge $-1 $67 $47 $68 $69 forward $41 $70 #
coedge $-1 $47 $67 $71 $72 forward $41 $73 #
coedge $-1 $74 $75 $47 $56 reversed $76 $-1 #
edge $77 $78 $79 $55 $80 forward #
pcurve $-1 1 $80 0 0 #
fmesh-eye-attrib $-1 $-1 $-1 $49 #
face $81 $82 $83 $23 $-1 $84 reversed single #
loop $-1 $-1 $85 $49 #
plane-surface $-1 -50 0 0 1 0 0 0 0 -1 forward_v I I I I #
coedge $-1 $86 $71 $87 $88 forward $50 $-1 #
coedge $-1 $89 $52 $86 $90 forward $45 $-1 #
coedge $-1 $52 $89 $91 $92 forward $45 $-1 #
coedge $-1 $75 $74 $52 $66 reversed $76 $-1 #
edge $93 $94 $95 $65 $96 forward #
coedge $-1 $54 $53 $97 $98 forward $41 $99 #
coedge $-1 $100 $101 $53 $69 reversed $83 $-1 #
edge $102 $79 $103 $68 $104 reversed #
pcurve $-1 -2 $104 0 0 #
coedge $-1 $62 $105 $54 $72 reversed $50 $-1 #
edge $106 $107 $78 $71 $108 forward #
pcurve $-1 1 $108 0 0 #
coedge $-1 $65 $55 $105 $109 forward $76 $-1 #
coedge $-1 $55 $65 $100 $110 reversed $76 $-1 #
loop $-1 $-1 $74 $82 #
ptlist-eye-attrib $-1 $-1 $-1 $56 #
vertex $-1 $56 $111 #
vertex $-1 $56 $112 #
intcurve-curve $-1 forward { exactcur nubs 3 open 3 
	0 3 50 1 100 3 
	50 -50 10 
	50 -38.2148869802242 -1.7851130197757901 
	50 0 10 
	50 38.2148869802242 21.7851130197758 
	50 50 10 
	0 
	spline forward { ref 0 } I I I I 
	plane 50 0 0 1 0 0 0 0 1 reverse_v I I I I 
	nubs 1 open 2 
	0 1 100 1 
	100 0 
	100 100 
	
	nullbs 
	I I 
	0 
	0 
	0 
	F 1 F 0 } I I #
fmesh-eye-attrib $-1 $-1 $-1 $59 #
face $113 $-1 $76 $23 $-1 $114 reversed single #
loop $-1 $-1 $100 $59 #
plane-surface $-1 0 50 0 0 -1 0 0 0 -1 forward_v I I I I #
coedge $-1 $115 $97 $101 $116 forward $60 $-1 #
coedge $-1 $105 $62 $63 $90 reversed $50 $-1 #
coedge $-1 $97 $115 $62 $88 reversed $60 $-1 #
edge $117 $107 $118 $87 $119 forward #
coedge $-1 $64 $63 $115 $120 forward $45 $-1 #
edge $121 $95 $118 $86 $122 forward #
coedge $-1 $101 $100 $64 $92 reversed $83 $-1 #
edge $123 $124 $94 $91 $125 forward #
ptlist-eye-attrib $-1 $-1 $-1 $66 #
vertex $-1 $66 $126 #
vertex $-1 $109 $127 #
straight-curve $-1 50 0 -10 0 -1 0 I I #
coedge $-1 $85 $87 $67 $98 reversed $60 $-1 #
edge $128 $103 $107 $97 $129 reversed #
pcurve $-1 -2 $129 0 0 #
coedge $-1 $91 $68 $75 $110 forward $83 $-1 #
coedge $-1 $68 $91 $85 $116 reversed $83 $-1 #
ptlist-eye-attrib $-1 $-1 $-1 $69 #
vertex $-1 $69 $130 #
intcurve-curve $-1 forward { exactcur nubs 3 open 3 
	0 3 50 1 100 3 
	-50 50 10 
	-38.2148869802242 50 -1.7851130197757901 
	0 50 21.7851130197758 
	38.2148869802242 50 -1.7851130197757901 
	50 50 10 
	0 
	plane 0 50 0 0 1 0 0 0 -1 reverse_v I I I I 
	spline forward { ref 0 } I I I I 
	nullbs 
	nubs 1 open 2 
	0 1 100 1 
	0 100 
	100 100 
	
	I I 
	0 
	0 
	0 
	F 1 F 0 } I I #
coedge $-1 $71 $86 $74 $109 reversed $50 $-1 #
ptlist-eye-attrib $-1 $-1 $-1 $72 #
vertex $-1 $98 $131 #
intcurve-curve $-1 forward { exactcur nubs 3 open 3 
	0 3 50 1 100 3 
	-50 -50 10 
	-38.2148869802242 -50 21.7851130197758 
	0 -50 10 
	38.2148869802242 -50 -1.7851130197757901 
	50 -50 10 
	0 
	spline forward { ref 0 } I I I I 
	plane 0 -50 0 0 -1 0 0 0 1 reverse_v I I I I 
	nubs 1 open 2 
	0 1 100 1 
	0 0 
	100 0 
	
	nullbs 
	I I 
	0 
	0 
	0 
	F 1 F 0 } I I #
edge $132 $78 $95 $74 $133 forward #
edge $134 $79 $94 $75 $135 forward #
point $-1 50 -50 10 #
point $-1 50 50 10 #
fmesh-eye-attrib $-1 $-1 $-1 $82 #
plane-surface $-1 50 0 0 -1 0 0 0 0 1 forward_v I I I I #
coedge $-1 $87 $85 $89 $120 reversed $60 $-1 #
edge $136 $103 $124 $101 $137 forward #
ptlist-eye-attrib $-1 $-1 $-1 $88 #
vertex $-1 $120 $138 #
straight-curve $-1 -50 -50 0 0 0 -1 I I #
edge $139 $118 $124 $115 $140 forward #
ptlist-eye-attrib $-1 $-1 $-1 $90 #
straight-curve $-1 0 -50 -10 -1 0 0 I I #
ptlist-eye-attrib $-1 $-1 $-1 $92 #
vertex $-1 $92 $141 #
straight-curve $-1 0 50 -10 1 0 0 I I #
point $-1 50 50 -10 #
point $-1 50 -50 -10 #
ptlist-eye-attrib $-1 $-1 $-1 $98 #
intcurve-curve $-1 forward { exactcur nubs 3 open 3 
	0 3 50 1 100 3 
	-50 -50 10 
	-50 -38.2148869802242 21.7851130197758 
	-50 0 -1.7851130197757901 
	-50 38.2148869802242 21.7851130197758 
	-50 50 10 
	0 
	plane -50 0 0 -1 0 0 0 0 -1 reverse_v I I I I 
	spline forward { ref 0 } I I I I 
	nullbs 
	nubs 1 open 2 
	0 1 100 1 
	0 0 
	0 100 
	
	I I 
	0 
	0 
	0 
	F 1 F 0 } I I #
point $-1 -50 50 10 #
point $-1 -50 -50 10 #
ptlist-eye-attrib $-1 $-1 $-1 $109 #
straight-curve $-1 50 -50 0 0 0 -1 I I #
ptlist-eye-attrib $-1 $-1 $-1 $110 #
straight-curve $-1 50 50 0 0 0 -1 I I #
ptlist-eye-attrib $-1 $-1 $-1 $116 #
straight-curve $-1 -50 50 0 0 0 -1 I I #
point $-1 -50 -50 -10 #
ptlist-eye-attrib $-1 $-1 $-1 $120 #
straight-curve $-1 -50 0 -10 0 1 0 I I #
point $-1 -50 50 -10 #
End-of-ACIS-data 