600 0 1 0           
102 GICL ACIS Healer - Source: /gicl/data5/repository/UIUC/interactingPockets/interactingPockets.sat - 6 0 18 ACIS 6.0.3 Solaris 24 Sun Apr 14 00:06:30 2002 
1 9.999999999999999547e-07 1.000000000000000036e-10 
body $1 $2 $-1 $-1 #
named_string_attribute-named_attribute-st-attrib $-1 $3 $-1 $0 4 name 18 interactingPockets #
lump $-1 $-1 $4 $0 #
rgb_color-st-attrib $-1 $-1 $1 $0 0 1 0 #
shell $-1 $-1 $-1 $5 $-1 $2 #
face $6 $7 $8 $4 $-1 $9 forward single #
fmesh-eye-attrib $-1 $-1 $-1 $5 #
face $10 $11 $12 $4 $-1 $13 forward single #
loop $-1 $-1 $14 $5 #
cone-surface $-1 22.5 7.5 2.5 0 0 -1 1.767766952966368654 -1.767766952966368654 0 1 I I 0 -1 2.5 forward I I I I #
fmesh-eye-attrib $-1 $-1 $-1 $7 #
face $15 $16 $17 $4 $-1 $18 forward single #
loop $-1 $-1 $19 $7 #
plane-surface $-1 25 15 2.5 -1 0 0 0 0 1 forward_v I I I I #
coedge $-1 $20 $21 $22 $23 forward $8 $-1 #
fmesh-eye-attrib $-1 $-1 $-1 $11 #
face $24 $25 $26 $4 $-1 $27 forward single #
loop $-1 $-1 $28 $11 #
cone-surface $-1 25 5 7.5 0 0 -1 1.767766952966368654 -1.767766952966368654 0 1 I I 0 -1 2.5 forward I I I I #
coedge $-1 $29 $30 $31 $32 reversed $12 $-1 #
coedge $-1 $31 $14 $33 $34 reversed $8 $-1 #
coedge $-1 $14 $31 $35 $36 reversed $8 $-1 #
coedge $-1 $37 $38 $14 $23 reversed $39 $-1 #
edge $-1 $40 -2.5 $41 2.5 $22 $42 forward 7 unknown #
fmesh-eye-attrib $-1 $-1 $-1 $16 #
face $43 $44 $45 $4 $-1 $46 forward single #
loop $-1 $47 $48 $16 #
plane-surface $-1 15 15 5 0 0 1 1 0 0 forward_v I I I I #
coedge $-1 $49 $50 $51 $52 forward $17 $-1 #
coedge $-1 $53 $19 $54 $55 reversed $12 $-1 #
coedge $-1 $19 $53 $56 $57 forward $12 $-1 #
coedge $-1 $21 $20 $19 $32 forward $8 $-1 #
edge $-1 $58 -2.5 $59 2.5 $19 $60 forward 7 unknown #
coedge $-1 $48 $54 $20 $34 forward $26 $-1 #
edge $-1 $58 -0.785398163397448279 $41 0.785398163397448279 $33 $61 forward 7 unknown #
coedge $-1 $56 $62 $21 $36 forward $63 $-1 #
edge $-1 $40 -0.785398163397448279 $59 0.785398163397448279 $35 $64 forward 7 unknown #
coedge $-1 $65 $22 $62 $66 forward $39 $-1 #
coedge $-1 $22 $65 $48 $67 reversed $39 $-1 #
loop $-1 $-1 $22 $68 #
vertex $-1 $66 $69 #
vertex $-1 $67 $70 #
straight-curve $-1 22.5 5 2.5 0 0 1 F -10.25 F 10.25 #
fmesh-eye-attrib $-1 $-1 $-1 $25 #
face $71 $72 $73 $4 $-1 $74 forward single #
loop $-1 $-1 $75 $25 #
plane-surface $-1 27.5 15 7.5 -1 0 0 0 0 1 forward_v I I I I #
loop $-1 $-1 $76 $16 #
coedge $-1 $77 $33 $38 $67 forward $26 $-1 #
coedge $-1 $78 $28 $79 $80 reversed $17 $-1 #
coedge $-1 $28 $78 $76 $81 reversed $17 $-1 #
coedge $-1 $82 $83 $28 $52 reversed $84 $-1 #
edge $-1 $85 -2.5 $86 2.5 $51 $87 forward 7 unknown #
coedge $-1 $30 $29 $88 $89 reversed $12 $-1 #
coedge $-1 $33 $90 $29 $55 forward $26 $-1 #
edge $-1 $91 -7.5 $58 7.5 $54 $92 forward 7 unknown #
coedge $-1 $93 $35 $30 $57 reversed $63 $-1 #
edge $-1 $94 -7.5 $59 7.5 $30 $95 forward 7 unknown #
vertex $-1 $34 $96 #
vertex $-1 $32 $97 #
straight-curve $-1 25 7.5 2.5 0 0 -1 F -10.25 F 10.25 #
ellipse-curve $-1 22.5 7.5 5 -0 -0 -1 1.767766952966368654 -1.767766952966368654 0 1 I I #
coedge $-1 $35 $98 $37 $66 reversed $63 $-1 #
loop $-1 $99 $35 $100 #
ellipse-curve $-1 22.5 7.5 0 0 0 1 1.767766952966368654 -1.767766952966368654 0 1 I I #
coedge $-1 $38 $37 $101 $102 reversed $39 $-1 #
edge $-1 $40 -7.5 $103 7.5 $37 $104 forward 7 unknown #
edge $-1 $41 -7.5 $105 7.5 $48 $106 forward 7 unknown #
face $107 $108 $39 $4 $-1 $109 forward single #
point $-1 22.5 5 0 #
point $-1 22.5 5 5 #
fmesh-eye-attrib $-1 $-1 $-1 $44 #
face $110 $111 $112 $4 $-1 $113 forward single #
loop $-1 $-1 $114 $44 #
cone-surface $-1 25 25 7.5 -0 -0 -1 1.767766952966368654 1.767766952966368654 0 1 I I 0 -1 2.5 forward I I I I #
coedge $-1 $115 $116 $78 $117 reversed $45 $-1 #
coedge $-1 $118 $119 $50 $81 forward $47 $-1 #
coedge $-1 $120 $48 $121 $122 forward $26 $-1 #
coedge $-1 $50 $49 $75 $117 forward $17 $-1 #
coedge $-1 $123 $124 $49 $80 forward $125 $-1 #
edge $-1 $126 -0.785398163397448279 $86 0.785398163397448279 $79 $127 forward 7 unknown #
edge $-1 $85 -0.785398163397448279 $128 0.785398163397448279 $76 $129 forward 7 unknown #
coedge $-1 $130 $51 $119 $131 forward $84 $-1 #
coedge $-1 $51 $130 $123 $132 reversed $84 $-1 #
loop $-1 $-1 $51 $133 #
vertex $-1 $131 $134 #
vertex $-1 $132 $135 #
straight-curve $-1 25 2.5 7.5 0 0 1 F -10.25 F 10.25 #
coedge $-1 $136 $137 $53 $89 forward $112 $-1 #
edge $-1 $94 -2.5 $91 2.5 $53 $138 forward 7 unknown #
coedge $-1 $54 $139 $136 $140 forward $26 $-1 #
vertex $-1 $55 $141 #
straight-curve $-1 25 15 5 0 -1 0 I I #
coedge $-1 $142 $56 $137 $143 forward $63 $-1 #
vertex $-1 $57 $144 #
straight-curve $-1 25 15 0 0 -1 0 I I #
point $-1 25 7.5 5 #
point $-1 25 7.5 0 #
coedge $-1 $62 $145 $146 $147 forward $63 $-1 #
loop $-1 $148 $149 $100 #
face $150 $68 $63 $4 $-1 $151 forward single #
coedge $-1 $146 $121 $65 $102 forward $152 $-1 #
edge $-1 $105 -2.5 $103 2.5 $65 $153 forward 7 unknown #
vertex $-1 $147 $154 #
straight-curve $-1 15 5 0 -1 0 0 I I #
vertex $-1 $122 $155 #
straight-curve $-1 15 5 5 -1 0 0 I I #
fmesh-eye-attrib $-1 $156 $-1 $68 #
face $157 $133 $158 $4 $-1 $159 forward single #
plane-surface $-1 15 5 2.5 0 1 0 0 0 1 forward_v I I I I #
fmesh-eye-attrib $-1 $-1 $-1 $72 #
face $160 $161 $162 $4 $-1 $163 forward single #
loop $-1 $-1 $88 $72 #
cone-surface $-1 22.5 22.5 2.5 -0 -0 -1 1.767766952966368654 1.767766952966368654 0 1 I I 0 -1 2.5 forward I I I I #
coedge $-1 $164 $165 $166 $167 forward $73 $-1 #
coedge $-1 $166 $75 $124 $168 reversed $45 $-1 #
coedge $-1 $75 $166 $118 $169 forward $45 $-1 #
edge $-1 $126 -2.5 $128 2.5 $75 $170 forward 7 unknown #
coedge $-1 $171 $76 $116 $169 reversed $47 $-1 #
coedge $-1 $76 $172 $82 $131 reversed $47 $-1 #
coedge $-1 $173 $77 $174 $175 forward $26 $-1 #
coedge $-1 $101 $176 $77 $122 reversed $152 $-1 #
edge $-1 $105 -0.785398163397448279 $177 0.785398163397448279 $77 $178 forward 7 unknown #
coedge $-1 $179 $79 $83 $132 forward $125 $-1 #
coedge $-1 $79 $180 $115 $168 forward $125 $-1 #
loop $-1 $181 $123 $182 #
vertex $-1 $80 $183 #
ellipse-curve $-1 25 5 10 -0 -0 -1 1.767766952966368654 -1.767766952966368654 0 1 I I #
vertex $-1 $117 $184 #
ellipse-curve $-1 25 5 5 0 0 1 1.767766952966368654 -1.767766952966368654 0 1 I I #
coedge $-1 $83 $82 $185 $186 reversed $84 $-1 #
edge $-1 $85 -10 $187 10 $82 $188 forward 7 unknown #
edge $-1 $86 -10 $189 10 $123 $190 forward 7 unknown #
face $191 $192 $84 $4 $-1 $193 forward single #
point $-1 25 2.5 5 #
point $-1 25 2.5 10 #
coedge $-1 $194 $88 $90 $140 reversed $112 $-1 #
coedge $-1 $88 $194 $93 $143 reversed $112 $-1 #
straight-curve $-1 25 22.5 2.5 0 0 1 F -10.25 F 10.25 #
coedge $-1 $90 $173 $195 $196 forward $26 $-1 #
edge $-1 $197 -0.785398163397448279 $91 0.785398163397448279 $90 $198 forward 7 unknown #
point $-1 25 22.5 5 #
coedge $-1 $199 $93 $200 $201 reversed $63 $-1 #
edge $-1 $94 -0.785398163397448279 $202 0.785398163397448279 $93 $203 forward 7 unknown #
point $-1 25 22.5 0 #
coedge $-1 $98 $199 $204 $205 reversed $63 $-1 #
coedge $-1 $176 $101 $98 $147 reversed $152 $-1 #
edge $-1 $206 -0.785398163397448279 $103 0.785398163397448279 $98 $207 forward 7 unknown #
loop $-1 $-1 $208 $100 #
coedge $-1 $209 $210 $211 $212 forward $99 $-1 #
fmesh-eye-attrib $-1 $213 $-1 $100 #
plane-surface $-1 15 15 0 0 0 1 1 0 0 forward_v I I I I #
loop $-1 $-1 $176 $214 #
straight-curve $-1 7.5 5 2.5 0 0 -1 F -10.25 F 10.25 #
point $-1 7.5 5 0 #
point $-1 7.5 5 5 #
fmesh-eye-attrib $-1 $-1 $107 $68 #
fmesh-eye-attrib $-1 $215 $-1 $108 #
loop $-1 $-1 $216 $108 #
plane-surface $-1 15 25 2.5 0 -1 0 0 0 -1 forward_v I I I I #
fmesh-eye-attrib $-1 $-1 $-1 $111 #
face $217 $218 $219 $4 $-1 $220 forward single #
loop $-1 $-1 $221 $111 #
cone-surface $-1 7.5 22.5 2.5 0 0 -1 -1.767766952966368654 1.767766952966368654 0 1 I I 0 -1 2.5 forward I I I I #
coedge $-1 $222 $114 $180 $223 reversed $73 $-1 #
coedge $-1 $114 $222 $171 $224 reversed $73 $-1 #
coedge $-1 $116 $115 $114 $167 reversed $45 $-1 #
edge $-1 $225 -2.5 $226 2.5 $166 $227 forward 7 unknown #
edge $-1 $226 -10 $126 10 $124 $228 forward 7 unknown #
edge $-1 $225 -10 $128 10 $116 $229 forward 7 unknown #
straight-curve $-1 27.5 5 7.5 0 0 -1 F -10.25 F 10.25 #
coedge $-1 $230 $118 $165 $224 forward $47 $-1 #
coedge $-1 $119 $231 $232 $233 forward $47 $-1 #
coedge $-1 $139 $120 $234 $235 forward $26 $-1 #
coedge $-1 $236 $237 $120 $175 reversed $219 $-1 #
edge $-1 $177 -7.5 $238 7.5 $120 $239 forward 7 unknown #
coedge $-1 $121 $146 $236 $240 forward $152 $-1 #
vertex $-1 $175 $241 #
ellipse-curve $-1 7.5 7.5 5 -0 -0 -1 -1.767766952966368654 -1.767766952966368654 0 1 I I #
coedge $-1 $242 $123 $243 $244 forward $125 $-1 #
coedge $-1 $124 $245 $164 $223 forward $125 $-1 #
loop $-1 $-1 $246 $182 #
face $247 $248 $125 $4 $-1 $249 forward single #
point $-1 27.5 5 10 #
point $-1 27.5 5 5 #
coedge $-1 $232 $243 $130 $186 forward $250 $-1 #
edge $-1 $189 -2.5 $187 2.5 $130 $251 forward 7 unknown #
vertex $-1 $233 $252 #
straight-curve $-1 15 2.5 5 -1 0 0 I I #
vertex $-1 $244 $253 #
straight-curve $-1 15 2.5 10 -1 0 0 I I #
fmesh-eye-attrib $-1 $254 $-1 $133 #
face $255 $182 $256 $4 $-1 $257 forward single #
plane-surface $-1 15 2.5 7.5 0 1 0 0 0 1 forward_v I I I I #
coedge $-1 $137 $136 $216 $258 forward $112 $-1 #
coedge $-1 $259 $216 $139 $196 reversed $158 $-1 #
edge $-1 $260 -7.5 $197 7.5 $139 $261 forward 7 unknown #
vertex $-1 $140 $262 #
ellipse-curve $-1 22.5 22.5 5 -0 -0 -1 1.767766952966368654 1.767766952966368654 0 1 I I #
coedge $-1 $145 $142 $263 $264 forward $63 $-1 #
coedge $-1 $216 $259 $142 $201 forward $158 $-1 #
edge $-1 $265 -7.5 $202 7.5 $200 $266 forward 7 unknown #
vertex $-1 $143 $267 #
ellipse-curve $-1 22.5 22.5 0 0 0 1 1.767766952966368654 1.767766952966368654 0 1 I I #
coedge $-1 $237 $236 $145 $205 forward $219 $-1 #
edge $-1 $206 -7.5 $268 7.5 $204 $269 forward 7 unknown #
vertex $-1 $205 $270 #
ellipse-curve $-1 7.5 7.5 0 0 0 1 -1.767766952966368654 -1.767766952966368654 0 1 I I #
coedge $-1 $271 $272 $273 $274 forward $148 $-1 #
coedge $-1 $275 $149 $276 $277 forward $99 $-1 #
coedge $-1 $149 $278 $279 $280 forward $99 $-1 #
coedge $-1 $281 $282 $149 $212 reversed $283 $-1 #
edge $-1 $284 -2.5 $285 -1 $149 $286 forward 7 unknown #
fmesh-eye-attrib $-1 $-1 $150 $100 #
face $287 $288 $152 $4 $-1 $289 forward single #
fmesh-eye-attrib $-1 $-1 $157 $108 #
coedge $-1 $195 $200 $194 $258 reversed $158 $-1 #
fmesh-eye-attrib $-1 $-1 $-1 $161 #
face $290 $291 $292 $4 $-1 $293 forward single #
loop $-1 $-1 $237 $161 #
plane-surface $-1 5 15 2.5 1 0 0 0 0 -1 forward_v I I I I #
coedge $-1 $234 $263 $259 $294 forward $162 $-1 #
coedge $-1 $165 $164 $295 $296 forward $73 $-1 #
edge $-1 $297 -0.785398163397448279 $226 0.785398163397448279 $180 $298 forward 7 unknown #
edge $-1 $225 -0.785398163397448279 $299 0.785398163397448279 $171 $300 forward 7 unknown #
vertex $-1 $169 $301 #
vertex $-1 $168 $302 #
straight-curve $-1 27.5 25 7.5 0 0 1 F -10.25 F 10.25 #
straight-curve $-1 27.5 15 10 0 -1 0 I I #
straight-curve $-1 27.5 15 5 0 -1 0 I I #
coedge $-1 $303 $171 $304 $305 reversed $47 $-1 #
coedge $-1 $172 $303 $306 $307 reversed $47 $-1 #
coedge $-1 $308 $185 $172 $233 reversed $250 $-1 #
edge $-1 $309 -0.785398163397448279 $187 0.785398163397448279 $172 $310 forward 7 unknown #
coedge $-1 $311 $221 $173 $235 reversed $162 $-1 #
edge $-1 $238 -0.785398163397448279 $260 0.785398163397448279 $173 $312 forward 7 unknown #
coedge $-1 $204 $174 $176 $240 reversed $219 $-1 #
coedge $-1 $174 $204 $311 $313 reversed $219 $-1 #
vertex $-1 $235 $314 #
straight-curve $-1 5 15 5 0 1 0 I I #
edge $-1 $206 -2.5 $177 2.5 $236 $315 forward 7 unknown #
point $-1 5 7.5 5 #
coedge $-1 $316 $179 $317 $318 forward $125 $-1 #
coedge $-1 $185 $308 $179 $244 reversed $250 $-1 #
edge $-1 $189 -0.785398163397448279 $319 0.785398163397448279 $179 $320 forward 7 unknown #
coedge $-1 $180 $316 $321 $322 forward $125 $-1 #
coedge $-1 $323 $324 $325 $326 forward $181 $-1 #
fmesh-eye-attrib $-1 $327 $-1 $182 #
face $328 $329 $330 $4 $-1 $331 reversed single #
plane-surface $-1 15 15 10 0 0 1 1 0 0 forward_v I I I I #
loop $-1 $-1 $308 $288 #
straight-curve $-1 5 2.5 7.5 0 0 -1 F -10.25 F 10.25 #
point $-1 5 2.5 5 #
point $-1 5 2.5 10 #
fmesh-eye-attrib $-1 $-1 $191 $133 #
fmesh-eye-attrib $-1 $332 $-1 $192 #
loop $-1 $-1 $295 $192 #
plane-surface $-1 15 27.5 7.5 0 -1 0 0 0 -1 forward_v I I I I #
edge $-1 $197 -2.5 $202 2.5 $216 $333 forward 7 unknown #
coedge $-1 $200 $195 $221 $294 reversed $158 $-1 #
vertex $-1 $196 $334 #
straight-curve $-1 15 25 5 1 0 0 I I #
point $-1 22.5 25 5 #
coedge $-1 $221 $311 $199 $264 reversed $162 $-1 #
edge $-1 $265 -0.785398163397448279 $268 0.785398163397448279 $199 $335 forward 7 unknown #
vertex $-1 $201 $336 #
straight-curve $-1 15 25 0 1 0 0 I I #
point $-1 22.5 25 0 #
vertex $-1 $313 $337 #
straight-curve $-1 5 15 0 0 1 0 I I #
point $-1 5 7.5 0 #
coedge $-1 $338 $208 $339 $340 forward $148 $-1 #
coedge $-1 $208 $341 $342 $343 forward $148 $-1 #
coedge $-1 $344 $345 $208 $274 reversed $346 $-1 #
edge $-1 $347 -2.5 $348 -1 $208 $349 forward 7 unknown #
coedge $-1 $350 $209 $351 $352 forward $99 $-1 #
coedge $-1 $353 $354 $209 $277 reversed $355 $-1 #
edge $-1 $285 -0.785398163397448279 $356 0.785398163397448279 $209 $357 forward 7 unknown #
coedge $-1 $210 $358 $359 $360 forward $99 $-1 #
coedge $-1 $361 $362 $210 $280 reversed $363 $-1 #
edge $-1 $364 -9.25 $284 -1.25 $210 $365 forward 7 unknown #
coedge $-1 $366 $211 $362 $367 forward $283 $-1 #
coedge $-1 $211 $366 $353 $368 reversed $283 $-1 #
loop $-1 $-1 $282 $369 #
vertex $-1 $212 $370 #
vertex $-1 $277 $371 #
straight-curve $-1 12.5 15 0 0 -1 0 I I #
fmesh-eye-attrib $-1 $-1 $-1 $214 #
face $372 $373 $250 $4 $-1 $374 forward single #
cone-surface $-1 7.5 7.5 2.5 -0 -0 -1 -1.767766952966368654 -1.767766952966368654 0 1 I I 0 -1 2.5 forward I I I I #
fmesh-eye-attrib $-1 $-1 $-1 $218 #
face $375 $214 $376 $4 $-1 $377 forward single #
loop $-1 $-1 $378 $218 #
cone-surface $-1 5 25 7.5 0 0 -1 -1.767766952966368654 1.767766952966368654 0 1 I I 0 -1 2.5 forward I I I I #
edge $-1 $265 -2.5 $260 2.5 $259 $379 forward 7 unknown #
coedge $-1 $321 $304 $222 $296 reversed $256 $-1 #
edge $-1 $297 -2.5 $299 2.5 $295 $380 forward 7 unknown #
vertex $-1 $223 $381 #
ellipse-curve $-1 25 25 10 -0 -0 -1 1.767766952966368654 1.767766952966368654 0 1 I I #
vertex $-1 $224 $382 #
ellipse-curve $-1 25 25 5 0 0 1 1.767766952966368654 1.767766952966368654 0 1 I I #
point $-1 27.5 25 5 #
point $-1 27.5 25 10 #
coedge $-1 $231 $230 $383 $384 forward $47 $-1 #
coedge $-1 $295 $385 $230 $305 forward $256 $-1 #
edge $-1 $386 -10 $299 10 $304 $387 forward 7 unknown #
coedge $-1 $388 $389 $231 $307 forward $376 $-1 #
edge $-1 $309 -10 $390 10 $306 $391 forward 7 unknown #
coedge $-1 $243 $232 $389 $392 forward $250 $-1 #
vertex $-1 $307 $393 #
ellipse-curve $-1 5 5 5 0 0 1 -1.767766952966368654 -1.767766952966368654 0 1 I I #
coedge $-1 $263 $234 $237 $313 forward $162 $-1 #
ellipse-curve $-1 7.5 22.5 5 -0 -0 -1 -1.767766952966368654 1.767766952966368654 0 1 I I #
edge $-1 $238 -2.5 $268 2.5 $237 $394 forward 7 unknown #
point $-1 5 22.5 5 #
straight-curve $-1 5 7.5 2.5 0 0 1 F -10.25 F 10.25 #
coedge $-1 $245 $242 $395 $396 forward $125 $-1 #
coedge $-1 $389 $388 $242 $318 reversed $376 $-1 #
edge $-1 $319 -10 $397 10 $242 $398 forward 7 unknown #
vertex $-1 $318 $399 #
ellipse-curve $-1 5 5 10 -0 -0 -1 -1.767766952966368654 -1.767766952966368654 0 1 I I #
coedge $-1 $385 $295 $245 $322 reversed $256 $-1 #
edge $-1 $400 -10 $297 10 $245 $401 forward 7 unknown #
coedge $-1 $402 $246 $403 $404 forward $181 $-1 #
coedge $-1 $246 $402 $405 $406 forward $181 $-1 #
coedge $-1 $407 $408 $246 $326 reversed $409 $-1 #
edge $-1 $410 -15 $411 15 $325 $412 forward 7 unknown #
fmesh-eye-attrib $-1 $-1 $247 $182 #
fmesh-eye-attrib $-1 $413 $-1 $248 #
face $414 $415 $416 $4 $-1 $417 reversed single #
loop $-1 $-1 $418 $248 #
plane-surface $-1 30 30 -10 0 0 1 1 0 0 forward_v I I I I #
fmesh-eye-attrib $-1 $-1 $255 $192 #
straight-curve $-1 22.5 25 2.5 0 0 -1 F -10.25 F 10.25 #
point $-1 7.5 25 5 #
ellipse-curve $-1 7.5 22.5 0 0 0 1 -1.767766952966368654 1.767766952966368654 0 1 I I #
point $-1 7.5 25 0 #
point $-1 5 22.5 0 #
coedge $-1 $419 $271 $420 $421 forward $148 $-1 #
coedge $-1 $422 $423 $271 $340 reversed $424 $-1 #
edge $-1 $348 -0.785398163397448279 $425 0.785398163397448279 $271 $426 forward 7 unknown #
coedge $-1 $272 $427 $428 $429 forward $148 $-1 #
coedge $-1 $430 $431 $272 $343 reversed $432 $-1 #
edge $-1 $433 -9.25 $347 -1.25 $272 $434 forward 7 unknown #
coedge $-1 $435 $273 $431 $436 forward $346 $-1 #
coedge $-1 $273 $435 $422 $437 reversed $346 $-1 #
loop $-1 $-1 $345 $438 #
vertex $-1 $274 $439 #
vertex $-1 $340 $440 #
straight-curve $-1 17.5 15 0 0 1 0 I I #
coedge $-1 $441 $275 $442 $443 forward $99 $-1 #
coedge $-1 $444 $445 $275 $352 reversed $446 $-1 #
edge $-1 $356 1.625 $447 4.625 $275 $448 forward 7 unknown #
coedge $-1 $449 $276 $282 $368 forward $355 $-1 #
coedge $-1 $276 $449 $444 $450 forward $355 $-1 #
loop $-1 $-1 $353 $373 #
vertex $-1 $352 $451 #
ellipse-curve $-1 11.5 16 0 -0 -0 -1 0.7071067811865474617 -0.7071067811865474617 0 1 I I #
coedge $-1 $278 $452 $453 $454 forward $99 $-1 #
coedge $-1 $455 $456 $278 $360 reversed $457 $-1 #
edge $-1 $458 -0.785398163397448279 $364 0.785398163397448279 $278 $459 forward 7 unknown #
coedge $-1 $460 $279 $456 $461 reversed $363 $-1 #
coedge $-1 $279 $460 $281 $367 reversed $363 $-1 #
loop $-1 $-1 $361 $462 #
vertex $-1 $280 $463 #
straight-curve $-1 11.25 17.5 0 -1 1.224646799147353207e-16 0 I I #
coedge $-1 $282 $281 $464 $465 forward $283 $-1 #
edge $-1 $284 -2.5 $466 2.5 $362 $467 forward 7 unknown #
edge $-1 $285 -2.5 $468 2.5 $282 $469 forward 7 unknown #
face $470 $471 $283 $4 $-1 $472 reversed single #
point $-1 12.5 17.5 0 #
point $-1 12.5 16 0 #
fmesh-eye-attrib $-1 $-1 $-1 $288 #
face $473 $369 $355 $4 $-1 $474 forward single #
cone-surface $-1 5 5 7.5 -0 -0 -1 -1.767766952966368654 -1.767766952966368654 0 1 I I 0 -1 2.5 forward I I I I #
fmesh-eye-attrib $-1 $-1 $-1 $291 #
loop $-1 $-1 $388 $291 #
plane-surface $-1 2.5 15 7.5 1 0 0 0 0 -1 forward_v I I I I #
coedge $-1 $395 $383 $385 $475 forward $292 $-1 #
straight-curve $-1 7.5 25 2.5 0 0 1 F -10.25 F 10.25 #
straight-curve $-1 25 27.5 7.5 0 0 -1 F -10.25 F 10.25 #
point $-1 25 27.5 10 #
point $-1 25 27.5 5 #
coedge $-1 $378 $476 $303 $384 reversed $292 $-1 #
edge $-1 $386 -0.785398163397448279 $390 0.785398163397448279 $303 $477 forward 7 unknown #
coedge $-1 $304 $321 $378 $475 reversed $256 $-1 #
vertex $-1 $305 $478 #
straight-curve $-1 15 27.5 5 1 0 0 I I #
coedge $-1 $317 $306 $476 $479 reversed $376 $-1 #
coedge $-1 $306 $317 $308 $392 reversed $376 $-1 #
vertex $-1 $479 $480 #
straight-curve $-1 2.5 15 5 0 1 0 I I #
edge $-1 $309 -2.5 $319 2.5 $389 $481 forward 7 unknown #
point $-1 2.5 5 5 #
straight-curve $-1 5 22.5 2.5 0 0 -1 F -10.25 F 10.25 #
coedge $-1 $476 $378 $316 $396 reversed $292 $-1 #
edge $-1 $397 -0.785398163397448279 $400 0.785398163397448279 $316 $482 forward 7 unknown #
vertex $-1 $396 $483 #
straight-curve $-1 2.5 15 10 0 1 0 I I #
point $-1 2.5 5 10 #
vertex $-1 $322 $484 #
straight-curve $-1 15 27.5 10 1 0 0 I I #
coedge $-1 $324 $323 $485 $486 forward $181 $-1 #
coedge $-1 $487 $488 $323 $404 reversed $489 $-1 #
edge $-1 $411 -15 $490 15 $403 $491 forward 7 unknown #
coedge $-1 $492 $493 $324 $406 reversed $416 $-1 #
edge $-1 $494 -15 $410 15 $405 $495 forward 7 unknown #
coedge $-1 $496 $325 $493 $497 forward $409 $-1 #
coedge $-1 $325 $496 $487 $498 reversed $409 $-1 #
loop $-1 $-1 $407 $499 #
vertex $-1 $326 $500 #
vertex $-1 $326 $501 #
straight-curve $-1 30 15 10 0 1 0 I I #
fmesh-eye-attrib $-1 $502 $328 $248 #
fmesh-eye-attrib $-1 $503 $-1 $329 #
face $504 $505 $506 $4 $-1 $507 reversed single #
loop $-1 $-1 $492 $329 #
plane-surface $-1 15 0 5 0 1 0 0 0 1 forward_v I I I I #
coedge $-1 $508 $509 $510 $511 reversed $330 $-1 #
coedge $-1 $512 $338 $513 $514 forward $148 $-1 #
coedge $-1 $515 $516 $338 $421 reversed $517 $-1 #
edge $-1 $425 1.625 $518 4.625 $338 $519 forward 7 unknown #
coedge $-1 $520 $339 $345 $437 forward $424 $-1 #
coedge $-1 $339 $520 $515 $521 forward $424 $-1 #
loop $-1 $-1 $422 $522 #
vertex $-1 $421 $523 #
ellipse-curve $-1 18.5 14 0 -0 -0 -1 -0.7071067811865474617 0.7071067811865474617 0 1 I I #
coedge $-1 $341 $524 $525 $526 forward $148 $-1 #
coedge $-1 $527 $528 $341 $429 reversed $529 $-1 #
edge $-1 $530 -0.785398163397448279 $433 0.785398163397448279 $341 $531 forward 7 unknown #
coedge $-1 $532 $342 $528 $533 reversed $432 $-1 #
coedge $-1 $342 $532 $344 $436 reversed $432 $-1 #
loop $-1 $-1 $430 $534 #
vertex $-1 $343 $535 #
straight-curve $-1 18.75 12.5 0 1 0 0 I I #
coedge $-1 $345 $344 $536 $537 forward $346 $-1 #
edge $-1 $347 -2.5 $538 2.5 $344 $539 forward 7 unknown #
edge $-1 $348 -2.5 $540 2.5 $345 $541 forward 7 unknown #
face $542 $462 $346 $4 $-1 $543 reversed single #
point $-1 17.5 12.5 0 #
point $-1 17.5 14 0 #
coedge $-1 $544 $350 $545 $546 forward $99 $-1 #
coedge $-1 $547 $548 $350 $443 reversed $549 $-1 #
edge $-1 $447 -0.78539816339744839 $550 0.785398163397448279 $350 $551 forward 7 unknown #
coedge $-1 $552 $351 $354 $450 reversed $446 $-1 #
coedge $-1 $351 $552 $547 $553 reversed $446 $-1 #
loop $-1 $-1 $444 $554 #
vertex $-1 $443 $555 #
straight-curve $-1 13.125 15 0 -1 1.224646799147353207e-16 0 I I #
coedge $-1 $354 $353 $556 $557 reversed $355 $-1 #
edge $-1 $558 -2.5 $356 2.5 $444 $559 forward 7 unknown #
point $-1 11.5 15 0 #
coedge $-1 $358 $560 $561 $562 forward $99 $-1 #
coedge $-1 $563 $564 $358 $454 reversed $565 $-1 #
edge $-1 $566 -3 $458 -2 $358 $567 forward 7 unknown #
coedge $-1 $568 $359 $564 $569 forward $457 $-1 #
coedge $-1 $359 $568 $361 $461 forward $457 $-1 #
loop $-1 $-1 $456 $570 #
vertex $-1 $360 $571 #
ellipse-curve $-1 20.5 19.5 0 -0 -0 -1 1.414213562373094923 -1.414213562373094923 0 1 I I #
coedge $-1 $362 $361 $572 $573 forward $363 $-1 #
edge $-1 $574 -5 $364 0 $361 $575 forward 7 unknown #
face $576 $577 $363 $4 $-1 $578 forward single #
point $-1 20.5 17.5 0 #
coedge $-1 $572 $556 $366 $465 reversed $579 $-1 #
edge $-1 $466 0 $468 1.5 $464 $580 forward 7 unknown #
vertex $-1 $465 $581 #
straight-curve $-1 12.5 17.5 -2.5 0 0 -1 I I #
vertex $-1 $368 $582 #
straight-curve $-1 12.5 16 -2.5 -0 -0 -1 F -5.599999999999999645 F 5.599999999999999645 #
fmesh-eye-attrib $-1 $-1 $-1 $369 #
face $583 $554 $549 $4 $-1 $584 forward single #
plane-surface $-1 12.5 15 -2.5 1 0 0 0 0 -1 forward_v I I I I #
fmesh-eye-attrib $-1 $-1 $-1 $373 #
cone-surface $-1 11.5 16 -2.5 0 0 1 0.7071067811865474617 -0.7071067811865474617 0 1 I I 0 -1 0.999999999999999889 forward I I I I #
edge $-1 $386 -2.5 $400 2.5 $385 $585 forward 7 unknown #
coedge $-1 $383 $395 $388 $479 forward $292 $-1 #
ellipse-curve $-1 5 25 5 0 0 1 -1.767766952966368654 1.767766952966368654 0 1 I I #
point $-1 5 27.5 5 #
edge $-1 $397 -2.5 $390 2.5 $388 $586 forward 7 unknown #
point $-1 2.5 25 5 #
straight-curve $-1 2.5 5 7.5 0 0 1 F -10.25 F 10.25 #
ellipse-curve $-1 5 25 10 -0 -0 -1 -1.767766952966368654 1.767766952966368654 0 1 I I #
point $-1 2.5 25 10 #
point $-1 5 27.5 10 #
coedge $-1 $587 $588 $402 $486 reversed $506 $-1 #
edge $-1 $490 -15 $494 15 $485 $589 forward 7 unknown #
coedge $-1 $510 $403 $408 $498 forward $489 $-1 #
coedge $-1 $403 $510 $587 $590 reversed $489 $-1 #
loop $-1 $-1 $487 $505 #
vertex $-1 $404 $591 #
straight-curve $-1 15 30 10 -1 0 0 I I #
coedge $-1 $592 $405 $588 $593 forward $416 $-1 #
coedge $-1 $405 $592 $407 $497 reversed $416 $-1 #
vertex $-1 $486 $594 #
straight-curve $-1 15 0 10 1 0 0 I I #
coedge $-1 $408 $407 $508 $595 forward $409 $-1 #
edge $-1 $410 -5 $596 15 $407 $597 forward 7 unknown #
edge $-1 $411 -5 $598 15 $408 $599 forward 7 unknown #
face $600 $-1 $409 $4 $-1 $601 reversed single #
point $-1 30 0 10 #
point $-1 30 30 10 #
fmesh-eye-attrib $-1 $-1 $413 $248 #
fmesh-eye-attrib $-1 $602 $414 $329 #
fmesh-eye-attrib $-1 $603 $-1 $415 #
face $604 $499 $489 $4 $-1 $605 reversed single #
loop $-1 $-1 $587 $415 #
plane-surface $-1 0 15 5 1 0 0 0 0 -1 forward_v I I I I #
coedge $-1 $606 $418 $496 $595 reversed $330 $-1 #
coedge $-1 $418 $606 $607 $608 reversed $330 $-1 #
coedge $-1 $488 $487 $418 $511 forward $489 $-1 #
edge $-1 $598 -15 $609 15 $510 $610 forward 7 unknown #
coedge $-1 $611 $419 $612 $613 forward $148 $-1 #
coedge $-1 $614 $615 $419 $514 reversed $616 $-1 #
edge $-1 $518 -0.785398163397448279 $617 0.785398163397448279 $419 $618 forward 7 unknown #
coedge $-1 $619 $420 $423 $521 reversed $517 $-1 #
coedge $-1 $420 $619 $614 $620 reversed $517 $-1 #
loop $-1 $-1 $516 $621 #
vertex $-1 $514 $622 #
straight-curve $-1 16.875 15 0 1 0 0 I I #
coedge $-1 $423 $422 $623 $624 reversed $424 $-1 #
edge $-1 $625 -2.5 $425 2.5 $515 $626 forward 7 unknown #
face $627 $438 $424 $4 $-1 $628 forward single #
point $-1 18.5 15 0 #
coedge $-1 $427 $629 $630 $631 forward $148 $-1 #
coedge $-1 $632 $633 $427 $526 reversed $634 $-1 #
edge $-1 $635 -3 $530 -2 $427 $636 forward 7 unknown #
coedge $-1 $637 $428 $633 $638 forward $529 $-1 #
coedge $-1 $428 $637 $430 $533 forward $529 $-1 #
loop $-1 $-1 $528 $639 #
vertex $-1 $429 $640 #
ellipse-curve $-1 9.5 10.5 0 -0 -0 -1 -1.414213562373094923 1.414213562373094923 0 1 I I #
coedge $-1 $431 $430 $641 $642 forward $432 $-1 #
edge $-1 $643 -5 $433 0 $430 $644 forward 7 unknown #
face $645 $621 $432 $4 $-1 $646 forward single #
point $-1 9.5 12.5 0 #
coedge $-1 $641 $623 $435 $537 reversed $647 $-1 #
edge $-1 $538 0 $540 1.5 $536 $648 forward 7 unknown #
vertex $-1 $642 $649 #
straight-curve $-1 17.5 12.5 -2.5 0 0 -1 I I #
vertex $-1 $437 $650 #
straight-curve $-1 17.5 14 -2.5 -0 -0 -1 F -5.599999999999999645 F 5.599999999999999645 #
fmesh-eye-attrib $-1 $-1 $-1 $438 #
plane-surface $-1 17.5 15 -2.5 -1 0 0 0 0 1 forward_v I I I I #
coedge $-1 $560 $441 $651 $652 forward $99 $-1 #
coedge $-1 $653 $654 $441 $546 reversed $655 $-1 #
edge $-1 $550 -2.125 $656 2.375 $441 $657 forward 7 unknown #
coedge $-1 $658 $442 $445 $553 forward $549 $-1 #
coedge $-1 $442 $658 $653 $659 forward $549 $-1 #
loop $-1 $-1 $548 $471 #
vertex $-1 $546 $660 #
ellipse-curve $-1 8.5 16 0 -0 -0 -1 -0.7071067811865475727 -0.7071067811865474617 0 1 I I #
coedge $-1 $445 $444 $661 $662 forward $446 $-1 #
edge $-1 $447 -2.5 $663 2.5 $445 $664 forward 7 unknown #
face $665 $666 $446 $4 $-1 $667 forward single #
point $-1 8.5 15.00000000000000178 0 #
coedge $-1 $464 $661 $449 $557 forward $579 $-1 #
edge $-1 $558 -0.785398163397448279 $468 0.785398163397448279 $556 $668 forward 7 unknown #
vertex $-1 $662 $669 #
straight-curve $-1 11.5 15 -2.5 0 0 1 F -5.599999999999999645 F 5.599999999999999645 #
coedge $-1 $452 $544 $670 $671 forward $99 $-1 #
coedge $-1 $672 $673 $452 $562 reversed $674 $-1 #
edge $-1 $675 -0.785398163397448279 $566 0.785398163397448279 $452 $676 forward 7 unknown #
coedge $-1 $677 $453 $673 $678 reversed $565 $-1 #
coedge $-1 $453 $677 $455 $569 reversed $565 $-1 #
loop $-1 $-1 $563 $679 #
vertex $-1 $454 $680 #
straight-curve $-1 22.5 17.5 0 -1.224646799147353207e-16 -1 0 I I #
coedge $-1 $456 $455 $681 $682 reversed $457 $-1 #
edge $-1 $458 0 $683 5 $564 $684 forward 7 unknown #
face $685 $679 $457 $4 $-1 $686 forward single #
point $-1 22.5 19.5 0 #
coedge $-1 $681 $464 $460 $573 reversed $579 $-1 #
edge $-1 $574 -1.75 $466 6.25 $572 $687 forward 7 unknown #
vertex $-1 $573 $688 #
straight-curve $-1 20.5 17.5 0 0 0 1 F -11.19999999999999929 F 6.200000000000000178 #
fmesh-eye-attrib $-1 $689 $-1 $462 #
face $690 $534 $579 $4 $-1 $691 reversed single #
plane-surface $-1 7.499999999999999112 17.5 0 1.224646799147353207e-16 1 0 0 0 -1 forward_v I I I I #
loop $-1 $-1 $556 $577 #
straight-curve $-1 12.5 17.5 -5 0 -1 0 I I #
point $-1 12.5 17.5 -5 #
point $-1 12.5 16 -5 #
fmesh-eye-attrib $-1 $-1 $-1 $471 #
cone-surface $-1 8.5 16 -2.5 0 0 -1 -0.7071067811865475727 -0.7071067811865474617 0 1 I I 0 -1 1 forward I I I I #
straight-curve $-1 5 27.5 7.5 0 0 1 F -10.25 F 10.25 #
straight-curve $-1 2.5 25 7.5 0 0 -1 F -10.25 F 10.25 #
coedge $-1 $607 $485 $488 $590 forward $506 $-1 #
coedge $-1 $485 $607 $492 $593 reversed $506 $-1 #
straight-curve $-1 0 15 10 0 -1 0 I I #
edge $-1 $490 -5 $609 15 $488 $692 forward 7 unknown #
point $-1 0 30 10 #
coedge $-1 $493 $492 $606 $693 forward $416 $-1 #
edge $-1 $494 -5 $694 15 $588 $695 forward 7 unknown #
point $-1 0 0 10 #
edge $-1 $596 -15 $598 15 $496 $696 forward 7 unknown #
vertex $-1 $497 $697 #
straight-curve $-1 30 0 5 0 0 -1 I I #
vertex $-1 $498 $698 #
straight-curve $-1 30 30 5 0 0 -1 I I #
fmesh-eye-attrib $-1 $699 $-1 $499 #
plane-surface $-1 30 15 5 -1 0 0 0 0 1 forward_v I I I I #
fmesh-eye-attrib $-1 $-1 $503 $329 #
fmesh-eye-attrib $-1 $700 $504 $415 #
fmesh-eye-attrib $-1 $701 $-1 $505 #
plane-surface $-1 15 30 5 0 -1 0 0 0 -1 forward_v I I I I #
coedge $-1 $509 $508 $592 $693 reversed $330 $-1 #
coedge $-1 $588 $587 $509 $608 forward $506 $-1 #
edge $-1 $609 -15 $694 15 $607 $702 forward 7 unknown #
vertex $-1 $590 $703 #
straight-curve $-1 15 30 -10 -1 -0 -0 I I #
coedge $-1 $629 $512 $704 $705 forward $148 $-1 #
coedge $-1 $706 $707 $512 $613 reversed $708 $-1 #
edge $-1 $617 -2.125 $709 2.375 $512 $710 forward 7 unknown #
coedge $-1 $711 $513 $516 $620 forward $616 $-1 #
coedge $-1 $513 $711 $706 $712 forward $616 $-1 #
loop $-1 $-1 $615 $713 #
vertex $-1 $613 $714 #
ellipse-curve $-1 21.5 14 0 -0 -0 -1 0.7071067811865474617 0.7071067811865474617 0 1 I I #
coedge $-1 $516 $515 $715 $716 forward $517 $-1 #
edge $-1 $518 -2.5 $717 2.5 $516 $718 forward 7 unknown #
face $719 $100 $517 $4 $-1 $720 forward single #
point $-1 21.5 15 0 #
coedge $-1 $536 $715 $520 $624 forward $647 $-1 #
edge $-1 $625 -0.785398163397448279 $540 0.785398163397448279 $623 $721 forward 7 unknown #
vertex $-1 $716 $722 #
straight-curve $-1 18.5 15 -2.5 0 0 1 F -5.599999999999999645 F 5.599999999999999645 #
fmesh-eye-attrib $-1 $-1 $-1 $522 #
cone-surface $-1 18.5 14 -2.5 0 0 1 -0.7071067811865474617 0.7071067811865474617 0 1 I I 0 -1 0.999999999999999889 forward I I I I #
coedge $-1 $524 $611 $723 $724 forward $148 $-1 #
coedge $-1 $725 $726 $524 $631 reversed $727 $-1 #
edge $-1 $728 -0.785398163397448279 $635 0.785398163397448279 $524 $729 forward 7 unknown #
coedge $-1 $730 $525 $726 $731 reversed $634 $-1 #
coedge $-1 $525 $730 $527 $638 reversed $634 $-1 #
loop $-1 $-1 $633 $732 #
vertex $-1 $526 $733 #
straight-curve $-1 7.5 12.5 0 0 1 0 I I #
coedge $-1 $528 $527 $734 $735 reversed $529 $-1 #
edge $-1 $530 0 $736 5 $633 $737 forward 7 unknown #
face $738 $739 $529 $4 $-1 $740 forward single #
point $-1 7.5 10.5 0 #
coedge $-1 $734 $536 $532 $642 reversed $647 $-1 #
edge $-1 $643 -1.75 $538 6.25 $641 $741 forward 7 unknown #
vertex $-1 $642 $742 #
straight-curve $-1 9.5 12.5 0 0 0 1 F -11.19999999999999929 F 6.200000000000000178 #
fmesh-eye-attrib $-1 $743 $-1 $534 #
plane-surface $-1 22.5 12.5 0 -0 -1 -0 0 0 -1 forward_v I I I I #
loop $-1 $-1 $744 $739 #
straight-curve $-1 17.5 12.5 -5 0 1 0 I I #
point $-1 17.5 12.5 -5 #
point $-1 17.5 14 -5 #
coedge $-1 $745 $746 $544 $652 reversed $747 $-1 #
edge $-1 $656 -0.785398163397448279 $748 0.785398163397448279 $544 $749 forward 7 unknown #
coedge $-1 $750 $545 $548 $659 reversed $655 $-1 #
coedge $-1 $545 $750 $745 $751 reversed $655 $-1 #
loop $-1 $-1 $653 $752 #
vertex $-1 $652 $753 #
straight-curve $-1 7.5 18.125 0 1.224646799147353207e-16 1 0 I I #
coedge $-1 $548 $547 $754 $755 reversed $549 $-1 #
edge $-1 $756 -2.5 $550 2.5 $653 $757 forward 7 unknown #
point $-1 7.5 16 0 #
coedge $-1 $556 $754 $552 $662 reversed $579 $-1 #
edge $-1 $558 -0.25 $663 2.75 $552 $758 forward 7 unknown #
vertex $-1 $553 $759 #
straight-curve $-1 8.5 15.00000000000000178 -2.5 0 0 -1 F -5.599999999999999645 F 5.599999999999999645 #
fmesh-eye-attrib $-1 $-1 $-1 $554 #
face $760 $752 $747 $4 $-1 $761 forward single #
plane-surface $-1 11.25 15 -2.5 1.224646799147353207e-16 1 0 0 0 -1 forward_v I I I I #
ellipse-curve $-1 11.5 16 -5 0 0 1 0.7071067811865474617 -0.7071067811865474617 0 1 I I #
point $-1 11.5 15 -5 #
coedge $-1 $762 $763 $560 $671 reversed $764 $-1 #
edge $-1 $748 -5.5 $675 5.5 $560 $765 forward 7 unknown #
coedge $-1 $766 $561 $763 $767 forward $674 $-1 #
coedge $-1 $561 $766 $563 $678 forward $674 $-1 #
loop $-1 $-1 $673 $768 #
vertex $-1 $562 $769 #
ellipse-curve $-1 20.5 20.5 0 -0 -0 -1 1.414213562373094923 1.414213562373094923 0 1 I I #
coedge $-1 $564 $563 $770 $771 forward $565 $-1 #
edge $-1 $772 -3.75 $566 1.25 $563 $773 forward 7 unknown #
face $774 $775 $565 $4 $-1 $776 reversed single #
point $-1 22.5 20.5 0 #
coedge $-1 $770 $572 $568 $682 forward $579 $-1 #
edge $-1 $574 -0.785398163397448279 $683 0.785398163397448279 $681 $777 forward 7 unknown #
vertex $-1 $569 $778 #
straight-curve $-1 22.5 19.5 0 0 0 -1 F -6.200000000000000178 F 11.19999999999999929 #
fmesh-eye-attrib $-1 $-1 $-1 $570 #
cone-surface $-1 20.5 19.5 0 -0 -0 -1 1.414213562373094923 -1.414213562373094923 0 1 I I 0 -1 1.999999999999999778 forward I I I I #
straight-curve $-1 18.75 17.5 -5 -1 0 0 I I #
point $-1 20.5 17.5 -5 #
fmesh-eye-attrib $-1 $-1 $576 $462 #
fmesh-eye-attrib $-1 $779 $-1 $577 #
plane-surface $-1 22.5 20 -5 0 0 -1 1 -1.224646799147353207e-16 0 forward_v I I I I #
straight-curve $-1 0 30 5 0 0 -1 I I #
edge $-1 $694 -15 $596 15 $592 $780 forward 7 unknown #
vertex $-1 $593 $781 #
straight-curve $-1 0 0 5 0 0 -1 I I #
straight-curve $-1 30 15 -10 0 1 0 I I #
point $-1 30 0 -10 #
point $-1 30 30 -10 #
fmesh-eye-attrib $-1 $-1 $600 $499 #
fmesh-eye-attrib $-1 $-1 $603 $415 #
fmesh-eye-attrib $-1 $-1 $604 $505 #
straight-curve $-1 0 15 -10 -0 -1 -0 I I #
point $-1 0 30 -10 #
coedge $-1 $782 $783 $611 $705 reversed $784 $-1 #
edge $-1 $709 -0.785398163397448279 $785 0.785398163397448279 $611 $786 forward 7 unknown #
coedge $-1 $787 $612 $615 $712 reversed $708 $-1 #
coedge $-1 $612 $787 $782 $788 reversed $708 $-1 #
loop $-1 $-1 $707 $789 #
vertex $-1 $705 $790 #
straight-curve $-1 22.5 11.875 0 0 -1 0 I I #
coedge $-1 $615 $614 $791 $792 reversed $616 $-1 #
edge $-1 $793 -2.5 $617 2.5 $706 $794 forward 7 unknown #
face $795 $789 $616 $4 $-1 $796 forward single #
point $-1 22.5 14 0 #
coedge $-1 $623 $791 $619 $716 reversed $647 $-1 #
edge $-1 $625 -0.25 $717 2.75 $619 $797 forward 7 unknown #
vertex $-1 $792 $798 #
straight-curve $-1 21.5 15 -2.5 0 0 -1 F -5.599999999999999645 F 5.599999999999999645 #
fmesh-eye-attrib $-1 $799 $-1 $621 #
plane-surface $-1 18.75 15 -2.5 0 -1 0 0 0 -1 forward_v I I I I #
ellipse-curve $-1 18.5 14 -5 0 0 1 -0.7071067811865474617 0.7071067811865474617 0 1 I I #
point $-1 18.5 15 -5 #
coedge $-1 $800 $801 $629 $724 reversed $802 $-1 #
edge $-1 $785 -5.5 $728 5.5 $629 $803 forward 7 unknown #
coedge $-1 $804 $630 $801 $805 forward $727 $-1 #
coedge $-1 $630 $804 $632 $731 forward $727 $-1 #
loop $-1 $-1 $726 $806 #
vertex $-1 $631 $807 #
ellipse-curve $-1 9.5 9.5 0 -0 -0 -1 -1.414213562373094923 -1.414213562373094923 0 1 I I #
coedge $-1 $633 $632 $808 $809 forward $634 $-1 #
edge $-1 $810 -3.75 $635 1.25 $632 $811 forward 7 unknown #
face $812 $806 $634 $4 $-1 $813 reversed single #
point $-1 7.5 9.5 0 #
coedge $-1 $808 $641 $637 $735 forward $647 $-1 #
edge $-1 $643 -0.785398163397448279 $736 0.785398163397448279 $734 $814 forward 7 unknown #
vertex $-1 $638 $815 #
straight-curve $-1 7.5 10.5 0 0 0 -1 F -6.200000000000000178 F 11.19999999999999929 #
fmesh-eye-attrib $-1 $-1 $-1 $639 #
face $816 $732 $647 $4 $-1 $817 reversed single #
cone-surface $-1 9.5 10.5 0 0 0 -1 -1.414213562373094923 1.414213562373094923 0 1 I I 0 -1 1.999999999999999778 forward I I I I #
straight-curve $-1 11.25 12.5 -5 1 0 0 I I #
point $-1 9.5 12.5 -5 #
fmesh-eye-attrib $-1 $-1 $645 $534 #
coedge $-1 $818 $819 $820 $821 forward $647 $-1 #
coedge $-1 $822 $651 $654 $751 forward $747 $-1 #
coedge $-1 $651 $822 $762 $823 forward $747 $-1 #
loop $-1 $-1 $745 $666 #
vertex $-1 $671 $824 #
ellipse-curve $-1 9.5 20.5 0 -0 -0 -1 -1.414213562373094923 1.414213562373094923 0 1 I I #
coedge $-1 $654 $653 $825 $826 forward $655 $-1 #
edge $-1 $656 -2.5 $827 2.5 $654 $828 forward 7 unknown #
face $829 $768 $655 $4 $-1 $830 forward single #
point $-1 7.5 20.5 0 #
coedge $-1 $661 $825 $658 $755 forward $579 $-1 #
edge $-1 $756 -0.785398163397448279 $663 0.78539816339744839 $754 $831 forward 7 unknown #
vertex $-1 $826 $832 #
straight-curve $-1 7.499999999999999112 16 -2.5 0 0 1 F -5.599999999999999645 F 5.599999999999999645 #
straight-curve $-1 11.25 15 -5 -1 1.224646799147353207e-16 0 I I #
point $-1 8.5 15.00000000000000178 -5 #
fmesh-eye-attrib $-1 $-1 $-1 $666 #
cone-surface $-1 9.5 20.5 -2.5 0 0 1 -1.414213562373094923 1.414213562373094923 0 1 I I 0 -1 1.999999999999999778 forward I I I I #
coedge $-1 $833 $670 $746 $823 reversed $764 $-1 #
coedge $-1 $670 $833 $672 $767 reversed $764 $-1 #
loop $-1 $-1 $762 $834 #
straight-curve $-1 15 22.5 0 1 -1.224646799147353207e-16 0 I I #
coedge $-1 $673 $672 $835 $836 reversed $674 $-1 #
edge $-1 $675 -1.25 $837 3.75 $763 $838 forward 7 unknown #
face $839 $834 $674 $4 $-1 $840 forward single #
point $-1 20.5 22.5 0 #
coedge $-1 $835 $681 $677 $771 reversed $579 $-1 #
edge $-1 $772 -0.5 $683 0.5 $770 $841 forward 7 unknown #
vertex $-1 $771 $842 #
straight-curve $-1 22.5 20.5 -1.25 0 0 1 F -9.949999999999999289 F 7.450000000000000178 #
fmesh-eye-attrib $-1 $-1 $-1 $679 #
face $843 $844 $784 $4 $-1 $845 forward single #
plane-surface $-1 22.5 20 0 1 -1.224646799147353207e-16 0 0 0 1 forward_v I I I I #
ellipse-curve $-1 20.5 19.5 -5 0 0 1 1.414213562373094923 -1.414213562373094923 0 1 I I #
point $-1 22.5 19.5 -5 #
fmesh-eye-attrib $-1 $-1 $690 $577 #
straight-curve $-1 15 0 -10 1 0 0 I I #
point $-1 0 0 -10 #
coedge $-1 $820 $704 $707 $788 forward $784 $-1 #
coedge $-1 $704 $820 $800 $846 forward $784 $-1 #
loop $-1 $-1 $782 $775 #
vertex $-1 $724 $847 #
ellipse-curve $-1 20.5 9.5 0 -0 -0 -1 1.414213562373094923 -1.414213562373094923 0 1 I I #
coedge $-1 $707 $706 $818 $848 forward $708 $-1 #
edge $-1 $709 -2.5 $849 2.5 $707 $850 forward 7 unknown #
face $851 $522 $708 $4 $-1 $852 forward single #
point $-1 22.5 9.5 0 #
coedge $-1 $715 $818 $711 $792 forward $647 $-1 #
edge $-1 $793 -0.785398163397448279 $717 0.785398163397448279 $791 $853 forward 7 unknown #
vertex $-1 $848 $854 #
straight-curve $-1 22.5 14 -2.5 0 0 1 F -5.599999999999999645 F 5.599999999999999645 #
fmesh-eye-attrib $-1 $-1 $-1 $713 #
cone-surface $-1 21.5 14 -2.5 -0 -0 -1 0.7071067811865474617 0.7071067811865474617 0 1 I I 0 -1 0.999999999999999889 forward I I I I #
straight-curve $-1 18.75 15 -5 1 0 0 I I #
point $-1 21.5 15 -5 #
fmesh-eye-attrib $-1 $-1 $719 $621 #
coedge $-1 $855 $723 $783 $846 reversed $802 $-1 #
coedge $-1 $723 $855 $725 $805 reversed $802 $-1 #
loop $-1 $-1 $800 $844 #
straight-curve $-1 15 7.5 0 -1 0 0 I I #
coedge $-1 $726 $725 $856 $857 reversed $727 $-1 #
edge $-1 $728 -1.25 $858 3.75 $801 $859 forward 7 unknown #
face $860 $713 $727 $4 $-1 $861 forward single #
point $-1 9.5 7.5 0 #
coedge $-1 $856 $734 $730 $809 reversed $647 $-1 #
edge $-1 $810 -0.5 $736 0.5 $808 $862 forward 7 unknown #
vertex $-1 $809 $863 #
straight-curve $-1 7.5 9.5 -1.25 0 0 1 F -9.949999999999999289 F 7.450000000000000178 #
fmesh-eye-attrib $-1 $-1 $-1 $732 #
plane-surface $-1 7.5 10 0 -1 0 0 0 0 1 forward_v I I I I #
ellipse-curve $-1 9.5 10.5 -5 0 0 1 -1.414213562373094923 1.414213562373094923 0 1 I I #
point $-1 7.5 10.5 -5 #
fmesh-eye-attrib $-1 $-1 $-1 $739 #
plane-surface $-1 7.5 10 -5 0 0 -1 -1 0 0 forward_v I I I I #
coedge $-1 $791 $744 $787 $848 reversed $647 $-1 #
coedge $-1 $744 $856 $855 $864 reversed $647 $-1 #
coedge $-1 $783 $782 $744 $821 reversed $784 $-1 #
edge $-1 $865 -0.785398163397448279 $849 0.785398163397448279 $744 $866 forward 7 unknown #
coedge $-1 $746 $745 $867 $868 reversed $747 $-1 #
edge $-1 $869 -2.5 $748 2.5 $762 $870 forward 7 unknown #
point $-1 9.5 22.5 0 #
coedge $-1 $754 $867 $750 $826 reversed $579 $-1 #
edge $-1 $756 -5.25 $827 -0.75 $750 $871 forward 7 unknown #
vertex $-1 $751 $872 #
straight-curve $-1 7.5 20.5 -2.5 0 0 -1 F -8.699999999999999289 F 8.699999999999999289 #
fmesh-eye-attrib $-1 $-1 $-1 $752 #
plane-surface $-1 7.5 21.25 -2.5 1 -1.224646799147353207e-16 0 0 0 1 forward_v I I I I #
ellipse-curve $-1 8.5 16 -5 0 0 1 -0.7071067811865475727 -0.7071067811865474617 0 1 I I #
point $-1 7.499999999999999112 16 -5 #
coedge $-1 $763 $762 $873 $874 forward $764 $-1 #
face $875 $570 $764 $4 $-1 $876 forward single #
coedge $-1 $873 $770 $766 $836 forward $579 $-1 #
edge $-1 $772 -0.785398163397448279 $837 0.785398163397448279 $835 $877 forward 7 unknown #
vertex $-1 $767 $878 #
straight-curve $-1 20.5 22.5 -1.25 0 0 -1 F -7.450000000000000178 F 9.949999999999999289 #
fmesh-eye-attrib $-1 $-1 $-1 $768 #
cone-surface $-1 20.5 20.5 -1.25 -0 -0 -1 1.414213562373094923 1.414213562373094923 0 1 I I 0 -1 1.999999999999999778 forward I I I I #
straight-curve $-1 22.5 20 -5 -1.224646799147353207e-16 -1 0 I I #
point $-1 22.5 20.5 -5 #
fmesh-eye-attrib $-1 $-1 $-1 $775 #
face $879 $639 $802 $4 $-1 $880 forward single #
cone-surface $-1 20.5 9.5 -2.5 0 0 1 1.414213562373094923 -1.414213562373094923 0 1 I I 0 -1 1.999999999999999778 forward I I I I #
edge $-1 $865 -2.5 $785 2.5 $800 $881 forward 7 unknown #
point $-1 20.5 7.5 0 #
edge $-1 $793 -5.25 $849 -0.75 $787 $882 forward 7 unknown #
vertex $-1 $821 $883 #
straight-curve $-1 22.5 9.5 -2.5 0 0 -1 F -8.699999999999999289 F 8.699999999999999289 #
fmesh-eye-attrib $-1 $-1 $-1 $789 #
plane-surface $-1 22.5 8.75 -2.5 -1 0 0 0 0 1 forward_v I I I I #
ellipse-curve $-1 21.5 14 -5 0 0 1 0.7071067811865474617 0.7071067811865474617 0 1 I I #
point $-1 22.5 14 -5 #
coedge $-1 $801 $800 $819 $864 forward $802 $-1 #
coedge $-1 $819 $808 $804 $857 forward $647 $-1 #
edge $-1 $810 -0.785398163397448279 $858 0.785398163397448279 $856 $884 forward 7 unknown #
vertex $-1 $857 $885 #
straight-curve $-1 9.5 7.5 -1.25 0 0 -1 F -7.450000000000000178 F 9.949999999999999289 #
fmesh-eye-attrib $-1 $-1 $-1 $806 #
cone-surface $-1 9.5 9.5 -1.25 0 0 -1 -1.414213562373094923 -1.414213562373094923 0 1 I I 0 -1 1.999999999999999778 forward I I I I #
straight-curve $-1 7.5 10 -5 0 1 0 I I #
point $-1 7.5 9.5 -5 #
edge $-1 $865 -5.5 $858 5.5 $855 $886 forward 7 unknown #
vertex $-1 $864 $887 #
ellipse-curve $-1 20.5 9.5 -5 0 0 1 1.414213562373094923 -1.414213562373094923 0 1 I I #
coedge $-1 $825 $873 $822 $868 forward $579 $-1 #
edge $-1 $869 -0.785398163397448279 $827 0.785398163397448279 $867 $888 forward 7 unknown #
vertex $-1 $874 $889 #
straight-curve $-1 9.5 22.5 -2.5 0 0 1 F -8.699999999999999289 F 8.699999999999999289 #
straight-curve $-1 7.5 21.25 -5 1.224646799147353207e-16 1 0 I I #
point $-1 7.5 20.5 -5 #
coedge $-1 $867 $835 $833 $874 reversed $579 $-1 #
edge $-1 $869 -5.5 $837 5.5 $833 $890 forward 7 unknown #
fmesh-eye-attrib $-1 $-1 $-1 $834 #
plane-surface $-1 15 22.5 -2.5 -1.224646799147353207e-16 -1 0 0 0 1 forward_v I I I I #
ellipse-curve $-1 20.5 20.5 -5 0 0 1 1.414213562373094923 1.414213562373094923 0 1 I I #
point $-1 20.5 22.5 -5 #
fmesh-eye-attrib $-1 $-1 $-1 $844 #
plane-surface $-1 15 7.5 -2.5 0 1 0 0 0 1 forward_v I I I I #
straight-curve $-1 20.5 7.5 -2.5 0 0 1 F -8.699999999999999289 F 8.699999999999999289 #
straight-curve $-1 22.5 8.75 -5 0 -1 0 I I #
point $-1 22.5 9.5 -5 #
ellipse-curve $-1 9.5 9.5 -5 0 0 1 -1.414213562373094923 -1.414213562373094923 0 1 I I #
point $-1 9.5 7.5 -5 #
straight-curve $-1 15 7.5 -5 -1 0 0 I I #
point $-1 20.5 7.5 -5 #
ellipse-curve $-1 9.5 20.5 -5 0 0 1 -1.414213562373094923 1.414213562373094923 0 1 I I #
point $-1 9.5 22.5 -5 #
straight-curve $-1 15 22.5 -5 1 -1.224646799147353207e-16 0 I I #
End-of-ACIS-data 