600 0 1 0           
126 GICL ACIS STEP Translator - Source: f:/data5/repository/Parasolid/NIST/Pete_Brown/spring_enclosure/spring_enclosure.step - 6 0 13 ACIS 6.0.3 NT 24 Mon Apr 08 10:52:28 2002 
1 9.9999999999999995e-007 1e-010 
body $-1 $1 $-1 $-1 #
lump $-1 $-1 $2 $0 #
shell $-1 $-1 $-1 $3 $-1 $1 #
face $-1 $4 $5 $2 $-1 $6 forward single #
face $-1 $7 $8 $2 $-1 $9 reversed single #
loop $-1 $10 $11 $3 #
plane-surface $-1 0 0 11099.999999999998 0 0 1 25.399999999999999 0 0 forward_v I I I I #
face $-1 $12 $13 $2 $-1 $14 forward single #
loop $-1 $15 $16 $4 #
cone-surface $-1 0 0 10850.000000000009 0 0 1 3250.000000000005 0 0 1 I I 0 1 3250.000000000005 forward I I I I #
loop $-1 $-1 $17 $3 #
coedge $-1 $11 $11 $18 $19 reversed $5 $-1 #
face $-1 $20 $21 $2 $-1 $22 forward single #
loop $-1 $23 $24 $7 #
plane-surface $-1 0 0 10850.000000000009 0 0 -1 -25.399999999999999 0 0 forward_v I I I I #
loop $-1 $-1 $25 $4 #
coedge $-1 $16 $16 $26 $27 reversed $8 $-1 #
coedge $-1 $17 $17 $28 $29 forward $10 $-1 #
coedge $-1 $18 $18 $11 $19 forward $21 $-1 #
edge $-1 $30 0 $30 6.2831853071795862 $11 $31 forward 7 unknown #
face $-1 $32 $33 $2 $-1 $34 reversed single #
loop $-1 $35 $18 $12 #
cone-surface $-1 0 0 10850.000000000009 0 0 1 4235.0000000000009 0 0 1 I I 0 1 4235.0000000000009 forward I I I I #
loop $-1 $-1 $36 $7 #
coedge $-1 $24 $24 $25 $37 reversed $13 $-1 #
coedge $-1 $25 $25 $24 $37 forward $15 $-1 #
coedge $-1 $26 $26 $16 $27 forward $38 $-1 #
edge $-1 $39 0 $39 6.2831853071795862 $16 $40 forward 7 unknown #
coedge $-1 $28 $28 $17 $29 reversed $41 $-1 #
edge $-1 $42 0 $42 6.2831853071795862 $17 $43 forward 7 unknown #
vertex $-1 $19 $44 #
ellipse-curve $-1 0 0 11099.999999999998 0 0 -1 -4235.0000000000009 0 0 1 I I #
face $-1 $45 $41 $2 $-1 $46 forward single #
loop $-1 $38 $47 $20 #
cone-surface $-1 0 0 14079.999999999991 0 0 -1 -2430.0000000000005 0 0 1 I I 0.265306878092742 0.96416402154233227 2430.0000000000005 forward I I I I #
loop $-1 $-1 $48 $12 #
coedge $-1 $36 $36 $48 $49 reversed $23 $-1 #
edge $-1 $50 0 $50 6.2831853071795862 $25 $51 forward 7 unknown #
loop $-1 $-1 $26 $20 #
vertex $-1 $27 $52 #
ellipse-curve $-1 0 0 11099.999999999998 0 0 -1 -3250.000000000005 0 0 1 I I #
loop $-1 $53 $28 $32 #
vertex $-1 $29 $54 #
ellipse-curve $-1 0 0 11099.999999999998 0 0 -1 3510.0000000000059 0 0 1 I I #
point $-1 -4235.0000000000009 0 11099.999999999998 #
face $-1 $55 $56 $2 $-1 $57 reversed single #
cone-surface $-1 0 0 14079.999999999991 0 0 -1 -2690.0000000000095 0 0 1 I I 0.265306878092742 0.96416402154233227 2690.0000000000095 forward I I I I #
coedge $-1 $47 $47 $58 $59 forward $33 $-1 #
coedge $-1 $48 $48 $36 $49 forward $35 $-1 #
edge $-1 $60 0 $60 6.2831853071795862 $36 $61 forward 7 unknown #
vertex $-1 $37 $62 #
ellipse-curve $-1 0 0 10850.000000000009 0 0 -1 -3250.000000000005 0 0 1 I I #
point $-1 -3250.000000000005 0 11099.999999999998 #
loop $-1 $-1 $63 $32 #
point $-1 3510.0000000000059 0 11099.999999999998 #
face $-1 $64 $65 $2 $-1 $66 reversed single #
loop $-1 $67 $68 $45 #
cone-surface $-1 160.00000000000006 800.00000000000034 13830 0 0 1 650.00000000000091 0 0 1 I I 0 1 650.00000000000091 forward I I I I #
coedge $-1 $58 $58 $47 $59 reversed $69 $-1 #
edge $-1 $70 0 $70 6.2831853071795862 $47 $71 forward 7 unknown #
vertex $-1 $49 $72 #
ellipse-curve $-1 0 0 10850.000000000009 0 0 1 4235.0000000000009 0 0 1 I I #
point $-1 -3250.000000000005 0 10850.000000000009 #
coedge $-1 $63 $63 $73 $74 forward $53 $-1 #
face $-1 $75 $76 $2 $-1 $77 reversed single #
loop $-1 $78 $79 $55 #
plane-surface $-1 160.00000000000006 800.00000000000034 13950.000000000004 0 0 1 25.399999999999999 0 0 forward_v I I I I #
loop $-1 $-1 $80 $45 #
coedge $-1 $68 $68 $81 $82 forward $56 $-1 #
loop $-1 $83 $58 $84 #
vertex $-1 $59 $85 #
ellipse-curve $-1 0 0 13830 0 0 1 -2498.7919463087255 0 0 1 I I #
point $-1 4235.0000000000009 0 10850.000000000009 #
coedge $-1 $73 $73 $63 $74 reversed $86 $-1 #
edge $-1 $87 0 $87 6.2831853071795862 $63 $88 forward 7 unknown #
face $-1 $84 $89 $2 $-1 $90 forward single #
loop $-1 $91 $92 $64 #
cone-surface $-1 160.00000000000006 800.00000000000034 13830 0 0 1 1129.9999999999986 0 0 1 I I 0 1 1129.9999999999986 forward I I I I #
loop $-1 $-1 $81 $55 #
coedge $-1 $79 $79 $92 $93 forward $65 $-1 #
coedge $-1 $80 $80 $94 $95 forward $67 $-1 #
coedge $-1 $81 $81 $68 $82 reversed $78 $-1 #
edge $-1 $96 0 $96 6.2831853071795862 $68 $97 forward 7 unknown #
loop $-1 $-1 $98 $84 #
face $-1 $-1 $69 $2 $-1 $99 forward single #
point $-1 -2498.7919463087255 0 13830 #
loop $-1 $-1 $73 $75 #
vertex $-1 $74 $100 #
ellipse-curve $-1 0 0 14079.999999999991 0 0 -1 -2690.0000000000095 0 0 1 I I #
loop $-1 $86 $94 $75 #
plane-surface $-1 0 0 14079.999999999991 0 0 1 25.399999999999999 0 0 forward_v I I I I #
loop $-1 $-1 $101 $64 #
coedge $-1 $92 $92 $79 $93 reversed $76 $-1 #
edge $-1 $102 0 $102 6.2831853071795862 $79 $103 forward 7 unknown #
coedge $-1 $94 $94 $80 $95 reversed $89 $-1 #
edge $-1 $104 0 $104 6.2831853071795862 $80 $105 forward 7 unknown #
vertex $-1 $82 $106 #
ellipse-curve $-1 160.00000000000006 800.00000000000034 13950.000000000004 0 0 -1 650.00000000000091 0 0 1 I I #
coedge $-1 $98 $98 $101 $107 reversed $83 $-1 #
plane-surface $-1 0 0 13830 0 0 -1 -25.399999999999999 0 0 forward_v I I I I #
point $-1 -2690.0000000000095 0 14079.999999999991 #
coedge $-1 $101 $101 $98 $107 forward $91 $-1 #
vertex $-1 $93 $108 #
ellipse-curve $-1 160.00000000000006 800.00000000000034 13950.000000000004 0 0 -1 -1129.9999999999986 0 0 1 I I #
vertex $-1 $95 $109 #
ellipse-curve $-1 160.00000000000006 800.00000000000034 14079.999999999991 0 0 1 650.00000000000091 0 0 1 I I #
point $-1 810.00000000000091 800.00000000000034 13950.000000000004 #
edge $-1 $110 0 $110 6.2831853071795862 $101 $111 forward 7 unknown #
point $-1 -969.99999999999852 800.00000000000034 13950.000000000004 #
point $-1 810.00000000000091 800.00000000000034 14079.999999999991 #
vertex $-1 $107 $112 #
ellipse-curve $-1 160.00000000000006 800.00000000000034 13830 0 0 -1 -1129.9999999999986 0 0 1 I I #
point $-1 -969.99999999999852 800.00000000000034 13830 #
End-of-ACIS-data 