600 0 2 0           
24 FBMach with ACIS - 6.0.3 13 ACIS 6.0.3 NT 24 Mon Apr 01 17:06:30 2002 
1 9.9999999999999995e-007 1e-010 
body $2 $3 $-1 $4 #
bdycol-kcp $-1 1 5 $5 $6 $7 $8 $9 #
model_id-kcp-attrib $-1 $10 $-1 $0 1 1017698790 70 -179961855 1 #
lump $-1 $-1 $11 $0 #
transform $-1 1 0 0 0 1 0 0 0 1 0 0 0 1 rotate no_reflect no_shear #
body $12 $13 $-1 $14 #
body $15 $16 $-1 $17 #
body $18 $19 $-1 $20 #
body $21 $22 $-1 $23 #
body $24 $25 $-1 $26 #
aggregate_advspl_attribute-aggregate_geombuild_base_attribute-aggregate_body_attribute-attrib_HH-attrib $-1 $27 $2 $0 F #
shell $-1 $-1 $-1 $28 $-1 $3 #
model_id-kcp-attrib $-1 $-1 $-1 $5 1 1017698790 70 -179961854 1 #
lump $-1 $-1 $29 $5 #
transform $-1 1 0 0 0 1 0 0 0 1 0 0 490.74803149606305 1 no_rotate no_reflect no_shear #
rgb_color-st-attrib $-1 $30 $-1 $6 0.5 1 1 #
lump $-1 $-1 $31 $6 #
transform $-1 1 0 0 0 1 0 0 0 1 0 0 432.0866141732285 1 no_rotate no_reflect no_shear #
rgb_color-st-attrib $-1 $32 $-1 $7 0.5 1 1 #
lump $-1 $-1 $33 $7 #
transform $-1 1 0 0 0 1 0 0 0 1 6.2992125984251999 31.496062992125999 551.77165354330702 1 no_rotate no_reflect no_shear #
rgb_color-st-attrib $-1 $34 $-1 $8 0.5 1 1 #
lump $-1 $-1 $35 $8 #
transform $-1 1 0 0 0 1 0 0 0 1 6.2992125984251999 31.496062992125999 546.85039370078744 1 no_rotate no_reflect no_shear #
rgb_color-st-attrib $-1 $36 $-1 $9 0.5 1 1 #
lump $-1 $-1 $37 $9 #
transform $-1 1 0 0 0 1 0 0 0 1 0 0 490.74803149606305 1 no_rotate no_reflect no_shear #
aggregate_secndry_attribute-aggregate_geombuild_base_attribute-aggregate_body_attribute-attrib_HH-attrib $-1 $38 $10 $0 F #
face $39 $40 $41 $11 $-1 $42 forward single #
shell $-1 $-1 $-1 $43 $-1 $13 #
model_id-kcp-attrib $-1 $-1 $15 $6 1 1017698790 140 -175374333 1 #
shell $-1 $-1 $-1 $44 $-1 $16 #
model_id-kcp-attrib $-1 $-1 $18 $7 1 1017698790 140 -175374332 1 #
shell $-1 $-1 $-1 $45 $-1 $19 #
model_id-kcp-attrib $-1 $-1 $21 $8 1 1017698790 140 -175374331 1 #
shell $-1 $-1 $-1 $46 $-1 $22 #
model_id-kcp-attrib $-1 $-1 $24 $9 1 1017698790 210 -170786810 1 #
shell $-1 $-1 $-1 $47 $-1 $25 #
aggregate_sharped_attribute-aggregate_geombuild_base_attribute-aggregate_body_attribute-attrib_HH-attrib $-1 $48 $27 $0 F #
model_id-kcp-attrib $-1 $49 $-1 $28 1 1017698790 70 -179961855 2 #
face $50 $51 $52 $11 $-1 $53 reversed single #
loop $-1 $54 $55 $28 #
plane-surface $-1 0 0 437.00787401574797 0 0 1 1 0 0 forward_v I I I I #
face $56 $57 $58 $29 $-1 $59 forward single #
face $-1 $60 $61 $31 $-1 $62 forward single #
face $-1 $63 $64 $33 $-1 $65 forward single #
face $-1 $66 $67 $35 $-1 $68 forward single #
face $-1 $69 $70 $37 $-1 $71 reversed single #
aggregate_reblend_attribute-aggregate_geombuild_base_attribute-aggregate_body_attribute-attrib_HH-attrib $-1 $72 $38 $0 F #
attrib_hh_face_geombuild-attrib_entity_geombuild-individual_entity_attribute-attrib_HH-attrib $-1 $-1 $39 $28 F #
model_id-kcp-attrib $-1 $73 $-1 $40 1 1017698790 70 -179961855 3 #
face $74 $75 $76 $11 $-1 $77 forward single #
loop $-1 $78 $79 $40 #
cone-surface $-1 0 0 427.16535433070902 0 0 1 127.95275590551201 0 0 1 I I 0 1 127.95275590551201 forward I I I I #
loop $-1 $-1 $80 $28 #
coedge $81 $55 $55 $82 $83 reversed $41 $-1 #
model_id-kcp-attrib $-1 $-1 $-1 $43 1 1017698790 70 -179961854 3 #
face $84 $85 $86 $29 $-1 $87 reversed single #
loop $-1 $-1 $88 $43 #
plane-surface $-1 0 0 63.582677165353999 0 0 1 1 0 0 forward_v I I I I #
face $-1 $89 $90 $31 $-1 $91 forward single #
loop $-1 $92 $93 $44 #
cone-surface $-1 0 0 237.42077971960731 0 0 1 63.976377952756003 0 0 1 I I -0.26530687838857797 0.96416402146092772 63.976377952756003 forward I I I I #
face $-1 $94 $95 $33 $-1 $96 forward single #
loop $-1 $97 $98 $45 #
cone-surface $-1 0 0 0 0 0 1 25.590551181102398 0 0 1 I I 0 1 25.590551181102398 forward I I I I #
face $-1 $99 $100 $35 $-1 $101 forward single #
loop $-1 $102 $103 $46 #
cone-surface $-1 0 0 0 0 0 1 44.488188976377899 0 0 1 I I 0 1 44.488188976377899 forward I I I I #
face $-1 $104 $105 $37 $-1 $71 reversed single #
loop $-1 $-1 $106 $47 #
cone-surface $-1 -1.8753139242864431e-030 0 -63.582677165354028 0 0 -1 166.73228346456699 -2.0418141371802243e-014 0 1 I I 0 1 166.73228346456699 forward I I I I #
aggregate_isospline_attribute-aggregate_geombuild_base_attribute-aggregate_body_attribute-attrib_HH-attrib $-1 $107 $48 $0 F #
attrib_hh_face_geombuild-attrib_entity_geombuild-individual_entity_attribute-attrib_HH-attrib $-1 $-1 $50 $40 F #
model_id-kcp-attrib $-1 $108 $-1 $51 1 1017698790 70 -179961855 13 #
face $109 $110 $111 $11 $-1 $112 forward single #
loop $-1 $113 $114 $51 #
plane-surface $-1 0 0 427.16535433070902 0 0 -1 -1 0 0 forward_v I I I I #
loop $-1 $-1 $115 $40 #
coedge $116 $79 $79 $117 $118 reversed $52 $-1 #
coedge $119 $80 $80 $120 $121 forward $54 $-1 #
attrib_hh_coedge_geombuild-attrib_entity_geombuild-individual_entity_attribute-attrib_HH-attrib $-1 $-1 $-1 $55 F #
coedge $122 $82 $82 $55 $83 forward $111 $-1 #
edge $123 $124 0 $124 6.2831853071795862 $55 $125 forward 7 unknown #
model_id-kcp-attrib $-1 $-1 $-1 $57 1 1017698790 70 -179961854 2 #
face $-1 $126 $127 $29 $-1 $128 reversed single #
loop $-1 $-1 $129 $57 #
plane-surface $-1 0 0 -63.582677165353999 0 0 1 1 0 0 forward_v I I I I #
coedge $-1 $130 $131 $132 $133 forward $58 $-1 #
face $-1 $-1 $134 $31 $-1 $135 forward single #
loop $-1 $136 $137 $60 #
cone-surface $-1 0 0 0 0 0 1 127.95275590551201 0 0 1 I I 0 1 127.95275590551201 forward I I I I #
loop $-1 $-1 $138 $44 #
coedge $-1 $93 $93 $139 $140 forward $61 $-1 #
face $-1 $-1 $141 $33 $-1 $142 forward single #
loop $-1 $-1 $143 $63 #
plane-surface $-1 0 0 -2.5590551181099954 0 0 -1 -1 0 0 forward_v I I I I #
loop $-1 $-1 $144 $45 #
coedge $-1 $98 $98 $143 $145 reversed $64 $-1 #
face $-1 $-1 $146 $35 $-1 $147 forward single #
loop $-1 $-1 $148 $66 #
plane-surface $-1 0 0 -2.362204724409537 0 0 -1 -1 0 0 forward_v I I I I #
loop $-1 $-1 $149 $46 #
coedge $-1 $103 $103 $148 $150 reversed $67 $-1 #
face $-1 $151 $152 $37 $-1 $71 reversed single #
loop $-1 $-1 $153 $69 #
coedge $-1 $154 $155 $156 $157 forward $70 $-1 #
aggregate_analytic_solver_attribute-aggregate_geombuild_base_attribute-aggregate_body_attribute-attrib_HH-attrib $-1 $158 $72 $0 F #
model_id-kcp-attrib $-1 $159 $74 $51 1 1017698790 70 -179961855 4 #
model_id-kcp-attrib $-1 $160 $-1 $75 1 1017698790 70 -179961855 5 #
face $161 $162 $163 $11 $-1 $164 reversed single #
loop $-1 $165 $82 $75 #
cone-surface $-1 0 0 427.16535433070902 0 0 1 166.73228346456699 0 0 1 I I 0 1 166.73228346456699 forward I I I I #
loop $-1 $-1 $166 $51 #
coedge $167 $114 $114 $115 $168 reversed $76 $-1 #
coedge $169 $115 $115 $114 $168 forward $78 $-1 #
attrib_hh_coedge_geombuild-attrib_entity_geombuild-individual_entity_attribute-attrib_HH-attrib $-1 $-1 $-1 $79 F #
coedge $170 $117 $117 $79 $118 forward $171 $-1 #
edge $172 $173 0 $173 6.2831853071795862 $79 $174 forward 7 unknown #
attrib_hh_coedge_geombuild-attrib_entity_geombuild-individual_entity_attribute-attrib_HH-attrib $-1 $-1 $-1 $80 F #
coedge $175 $120 $120 $80 $121 reversed $176 $-1 #
edge $177 $178 0 $178 6.2831853071795862 $80 $179 forward 7 unknown #
attrib_hh_coedge_geombuild-attrib_entity_geombuild-individual_entity_attribute-attrib_HH-attrib $-1 $-1 $-1 $82 F #
attrib_hh_edge_geombuild-attrib_entity_geombuild-individual_entity_attribute-attrib_HH-attrib $-1 $-1 $-1 $83 F #
vertex $180 $83 $181 #
ellipse-curve $-1 0 0 437.00787401574797 0 0 -1 -166.73228346456699 0 0 1 I I #
face $-1 $182 $183 $29 $-1 $184 reversed single #
loop $-1 $-1 $185 $85 #
plane-surface $-1 0 -166.73228346456699 0 0 1 0 0 0 1 forward_v I I I I #
coedge $-1 $186 $187 $188 $189 forward $86 $-1 #
coedge $-1 $190 $88 $191 $192 forward $58 $-1 #
coedge $-1 $88 $190 $193 $194 forward $58 $-1 #
coedge $-1 $195 $196 $88 $133 reversed $197 $-1 #
edge $-1 $198 -166.73228346456699 $199 166.73228346456699 $132 $200 forward 7 unknown #
loop $-1 $-1 $201 $89 #
plane-surface $-1 0 0 -4.9212598425194756 0 0 -1 -1 0 0 forward_v I I I I #
loop $-1 $-1 $139 $60 #
coedge $-1 $137 $137 $201 $202 reversed $90 $-1 #
coedge $-1 $138 $138 $-1 $203 reversed $92 $-1 #
coedge $-1 $139 $139 $93 $140 reversed $136 $-1 #
edge $-1 $204 0 $204 6.2831853071795862 $139 $205 forward 7 unknown #
loop $-1 $-1 $206 $94 #
plane-surface $-1 0 0 2.5590551181099954 0 0 1 1 0 0 forward_v I I I I #
coedge $-1 $143 $143 $98 $145 forward $95 $-1 #
coedge $-1 $144 $144 $206 $207 reversed $97 $-1 #
edge $-1 $208 0 $208 6.2831853071795862 $143 $209 forward 7 unknown #
loop $-1 $-1 $210 $99 #
plane-surface $-1 0 0 2.362204724409537 0 0 1 1 0 0 forward_v I I I I #
coedge $-1 $148 $148 $103 $150 forward $100 $-1 #
coedge $-1 $149 $149 $210 $211 reversed $102 $-1 #
edge $-1 $212 0 $212 6.2831853071795862 $148 $213 forward 7 unknown #
face $-1 $214 $215 $37 $-1 $71 reversed single #
loop $-1 $-1 $216 $104 #
coedge $-1 $217 $156 $218 $219 reversed $105 $-1 #
coedge $-1 $220 $106 $221 $222 reversed $70 $-1 #
coedge $-1 $106 $220 $223 $224 reversed $70 $-1 #
coedge $-1 $153 $225 $226 $157 reversed $105 $-1 #
edge $-1 $227 -127.16535433070801 $228 -2.8421709430404007e-014 $226 $229 forward 7 unknown #
aggregate_geombuild_attribute-aggregate_geombuild_base_attribute-aggregate_body_attribute-attrib_HH-attrib $-1 $230 $107 $0 #
attrib_hh_face_geombuild-attrib_entity_geombuild-individual_entity_attribute-attrib_HH-attrib $-1 $-1 $108 $51 F #
attrib_hh_face_geombuild-attrib_entity_geombuild-individual_entity_attribute-attrib_HH-attrib $-1 $-1 $109 $75 F #
model_id-kcp-attrib $-1 $231 $-1 $110 1 1017698790 70 -179961855 6 #
face $232 $233 $176 $11 $-1 $234 forward single #
loop $-1 $171 $235 $110 #
cone-surface $-1 0 0 554.33070866141702 0 0 -1 -95.669291338582696 0 0 1 I I 0.26530687838857803 0.96416402146092794 95.669291338582696 forward I I I I #
loop $-1 $-1 $236 $75 #
coedge $237 $166 $166 $236 $238 reversed $113 $-1 #
attrib_hh_coedge_geombuild-attrib_entity_geombuild-individual_entity_attribute-attrib_HH-attrib $-1 $-1 $-1 $114 F #
edge $239 $240 0 $240 6.2831853071795862 $115 $241 forward 7 unknown #
attrib_hh_coedge_geombuild-attrib_entity_geombuild-individual_entity_attribute-attrib_HH-attrib $-1 $-1 $-1 $115 F #
attrib_hh_coedge_geombuild-attrib_entity_geombuild-individual_entity_attribute-attrib_HH-attrib $-1 $-1 $-1 $117 F #
loop $-1 $-1 $117 $110 #
attrib_edge_convexity-kcp-attrib $-1 $242 $-1 $118 2 #
vertex $243 $118 $244 #
ellipse-curve $-1 0 0 437.00787401574797 0 0 -1 -127.95275590551201 0 0 1 I I #
attrib_hh_coedge_geombuild-attrib_entity_geombuild-individual_entity_attribute-attrib_HH-attrib $-1 $-1 $-1 $120 F #
loop $-1 $245 $120 $162 #
attrib_hh_edge_geombuild-attrib_entity_geombuild-individual_entity_attribute-attrib_HH-attrib $-1 $-1 $-1 $121 F #
vertex $246 $121 $247 #
ellipse-curve $-1 0 0 437.00787401574797 0 0 -1 138.188976377953 0 0 1 I I #
attrib_hh_vertex_geombuild-attrib_entity_geombuild-individual_entity_attribute-attrib_HH-attrib $-1 $-1 $-1 $124 F #
point $-1 -166.73228346456699 0 437.00787401574797 #
face $-1 $248 $249 $29 $-1 $250 reversed single #
loop $-1 $-1 $251 $126 #
plane-surface $-1 -166.73228346456699 0 0 1 0 0 0 0 -1 forward_v I I I I #
coedge $-1 $252 $193 $253 $254 forward $127 $-1 #
coedge $-1 $255 $129 $252 $256 forward $86 $-1 #
coedge $-1 $129 $255 $257 $258 forward $86 $-1 #
coedge $-1 $196 $195 $129 $189 reversed $197 $-1 #
edge $-1 $259 -166.73228346456699 $260 166.73228346456699 $188 $261 forward 7 unknown #
coedge $-1 $131 $130 $262 $263 forward $58 $-1 #
coedge $-1 $264 $265 $130 $192 reversed $249 $-1 #
edge $-1 $199 -166.73228346456699 $266 166.73228346456699 $191 $267 forward 7 unknown #
coedge $-1 $185 $268 $131 $194 reversed $127 $-1 #
edge $-1 $269 -166.73228346456699 $198 166.73228346456699 $193 $270 forward 7 unknown #
coedge $-1 $188 $132 $268 $271 forward $197 $-1 #
coedge $-1 $132 $188 $264 $272 reversed $197 $-1 #
loop $-1 $-1 $195 $248 #
vertex $-1 $133 $273 #
vertex $-1 $133 $274 #
straight-curve $-1 166.73228346456699 0 63.582677165353999 0 1 0 I I #
coedge $-1 $201 $201 $137 $202 forward $134 $-1 #
edge $-1 $275 0 $275 6.2831853071795862 $201 $276 forward 7 unknown #
edge $-1 $277 1 $277 0 $138 $-1 forward 7 unknown #
vertex $-1 $140 $278 #
ellipse-curve $-1 0 0 4.9212598425194756 0 0 1 127.95275590551201 0 0 1 I I #
coedge $-1 $206 $206 $144 $207 forward $141 $-1 #
edge $-1 $279 0 $279 6.2831853071795862 $206 $280 forward 7 unknown #
vertex $-1 $145 $281 #
ellipse-curve $-1 0 0 -2.5590551181099954 0 0 -1 25.590551181102398 0 0 1 I I #
coedge $-1 $210 $210 $149 $211 forward $146 $-1 #
edge $-1 $282 0 $282 6.2831853071795862 $210 $283 forward 7 unknown #
vertex $-1 $150 $284 #
ellipse-curve $-1 0 0 -2.362204724409537 0 0 -1 44.488188976377899 0 0 1 I I #
face $-1 $285 $286 $37 $-1 $287 reversed single #
loop $-1 $-1 $288 $151 #
coedge $-1 $289 $290 $291 $292 reversed $152 $-1 #
coedge $-1 $225 $153 $293 $294 forward $105 $-1 #
coedge $-1 $295 $296 $153 $219 forward $297 $-1 #
edge $-1 $298 -3.1415926535897931 $227 -1.5707963267948968 $218 $299 forward 7 unknown #
coedge $-1 $155 $154 $300 $301 reversed $70 $-1 #
coedge $-1 $302 $303 $154 $222 forward $304 $-1 #
edge $-1 $305 1.2246063538223773e-016 $228 1.5707963267948968 $221 $306 forward 7 unknown #
coedge $-1 $307 $308 $155 $224 forward $309 $-1 #
edge $-1 $227 -1.5707963267948968 $310 -1.2246063538223773e-016 $223 $299 forward 7 unknown #
coedge $-1 $156 $217 $311 $312 reversed $105 $-1 #
coedge $-1 $313 $314 $315 $157 forward $316 $-1 #
vertex $-1 $317 $318 #
vertex $-1 $319 $320 #
straight-curve $-1 -1.8753139242864431e-030 166.73228346456699 -63.582677165354028 0 0 -1 I I #
aggregate_stitch_attribute-aggregate_stitch_base_attribute-aggregate_body_attribute-attrib_HH-attrib $-1 $321 $158 $0 F #
attrib_hh_face_geombuild-attrib_entity_geombuild-individual_entity_attribute-attrib_HH-attrib $-1 $-1 $161 $110 F #
model_id-kcp-attrib $-1 $322 $-1 $162 1 1017698790 70 -179961855 7 #
face $323 $324 $325 $11 $-1 $326 reversed single #
cone-surface $-1 0 0 554.33070866141702 0 0 -1 -105.905511811024 0 0 1 I I 0.26530687838857803 0.96416402146092794 105.905511811024 forward I I I I #
coedge $327 $235 $235 $328 $329 forward $163 $-1 #
coedge $330 $236 $236 $166 $238 forward $165 $-1 #
attrib_hh_coedge_geombuild-attrib_entity_geombuild-individual_entity_attribute-attrib_HH-attrib $-1 $-1 $-1 $166 F #
edge $331 $332 0 $332 6.2831853071795862 $166 $333 forward 7 unknown #
attrib_edge_convexity-kcp-attrib $-1 $334 $-1 $168 1 #
vertex $335 $168 $336 #
ellipse-curve $-1 0 0 427.16535433070902 0 0 -1 -127.95275590551201 0 0 1 I I #
convexity-sys-attrib $-1 $337 $172 $118 #
attrib_hh_vertex_geombuild-attrib_entity_geombuild-individual_entity_attribute-attrib_HH-attrib $-1 $-1 $-1 $173 F #
point $-1 -127.95275590551201 0 437.00787401574797 #
loop $-1 $-1 $338 $162 #
attrib_hh_vertex_geombuild-attrib_entity_geombuild-individual_entity_attribute-attrib_HH-attrib $-1 $-1 $-1 $178 F #
point $-1 138.188976377953 0 437.00787401574797 #
face $-1 $-1 $197 $29 $-1 $339 reversed single #
loop $-1 $-1 $264 $182 #
plane-surface $-1 0 166.73228346456699 0 0 -1 0 0 0 -1 forward_v I I I I #
coedge $-1 $340 $262 $265 $341 forward $183 $-1 #
coedge $-1 $268 $185 $186 $256 reversed $127 $-1 #
coedge $-1 $262 $340 $185 $254 reversed $183 $-1 #
edge $-1 $269 -63.582677165353999 $342 63.582677165353999 $253 $343 forward 7 unknown #
coedge $-1 $187 $186 $340 $344 forward $86 $-1 #
edge $-1 $260 -166.73228346456699 $342 166.73228346456699 $252 $345 forward 7 unknown #
coedge $-1 $265 $264 $187 $258 reversed $249 $-1 #
edge $-1 $346 -166.73228346456699 $259 166.73228346456699 $257 $347 forward 7 unknown #
vertex $-1 $189 $348 #
vertex $-1 $271 $349 #
straight-curve $-1 166.73228346456699 0 -63.582677165353999 0 -1 0 I I #
coedge $-1 $251 $253 $190 $263 reversed $183 $-1 #
edge $-1 $266 -166.73228346456699 $269 166.73228346456699 $262 $350 forward 7 unknown #
coedge $-1 $257 $191 $196 $272 forward $249 $-1 #
coedge $-1 $191 $257 $251 $341 reversed $249 $-1 #
vertex $-1 $192 $351 #
straight-curve $-1 0 166.73228346456699 63.582677165353999 -1 0 0 I I #
coedge $-1 $193 $252 $195 $271 reversed $127 $-1 #
vertex $-1 $263 $352 #
straight-curve $-1 0 -166.73228346456699 63.582677165353999 1 0 0 I I #
edge $-1 $198 -63.582677165353999 $260 63.582677165353999 $195 $353 forward 7 unknown #
edge $-1 $199 -63.582677165353999 $259 63.582677165353999 $196 $354 forward 7 unknown #
point $-1 166.73228346456699 -166.73228346456699 63.582677165353999 #
point $-1 166.73228346456699 166.73228346456699 63.582677165353999 #
vertex $-1 $202 $355 #
ellipse-curve $-1 0 0 -4.9212598425194756 0 0 -1 127.95275590551201 0 0 1 I I #
vertex $-1 $203 $356 #
point $-1 127.95275590551201 0 4.9212598425194756 #
vertex $-1 $207 $357 #
ellipse-curve $-1 0 0 2.5590551181099954 0 0 1 25.590551181102398 0 0 1 I I #
point $-1 25.590551181102398 0 -2.5590551181099954 #
vertex $-1 $211 $358 #
ellipse-curve $-1 0 0 2.362204724409537 0 0 1 44.488188976377899 0 0 1 I I #
point $-1 44.488188976377899 0 -2.362204724409537 #
face $-1 $359 $316 $37 $-1 $360 reversed single #
loop $-1 $-1 $300 $214 #
plane-surface $-1 166.73228346456699 0 0 -1 0 0 0 0 1 forward_v I I I I #
coedge $-1 $293 $361 $362 $363 reversed $215 $-1 #
coedge $-1 $364 $216 $365 $366 reversed $152 $-1 #
coedge $-1 $216 $364 $220 $301 forward $152 $-1 #
coedge $-1 $367 $368 $216 $292 forward $369 $-1 #
edge $-1 $370 -1.5707963267948966 $305 1.2246063538223773e-016 $291 $306 forward 7 unknown #
coedge $-1 $371 $288 $372 $294 reversed $215 $-1 #
edge $-1 $298 -127.16535433070801 $373 -2.8421709430404007e-014 $372 $374 forward 7 unknown #
coedge $-1 $296 $218 $314 $317 forward $297 $-1 #
coedge $-1 $218 $295 $375 $376 forward $297 $-1 #
loop $-1 $-1 $218 $377 #
vertex $-1 $378 $379 #
ellipse-curve $-1 -1.8753139242864431e-030 0 63.582677165353999 0 0 -1 166.73228346456699 -2.0418141371802243e-014 0 1 I I #
coedge $-1 $380 $381 $382 $301 forward $286 $-1 #
edge $-1 $310 -127.16535433070801 $305 -2.8421709430404007e-014 $300 $383 forward 7 unknown #
coedge $-1 $303 $221 $384 $319 forward $304 $-1 #
coedge $-1 $221 $302 $380 $385 forward $304 $-1 #
loop $-1 $-1 $221 $386 #
vertex $-1 $387 $388 #
ellipse-curve $-1 -1.8753139242864431e-030 0 -63.582677165353999 0 0 1 166.73228346456699 -2.0418141371802243e-014 0 1 I I #
coedge $-1 $308 $223 $381 $389 forward $309 $-1 #
coedge $-1 $223 $307 $390 $391 forward $309 $-1 #
loop $-1 $-1 $223 $392 #
vertex $-1 $389 $393 #
coedge $-1 $394 $395 $225 $312 forward $396 $-1 #
edge $-1 $228 1.5707963267948968 $373 3.1415926535897931 $311 $306 forward 7 unknown #
coedge $-1 $397 $226 $395 $398 reversed $316 $-1 #
coedge $-1 $226 $397 $295 $317 reversed $316 $-1 #
coedge $-1 $390 $384 $106 $157 reversed $399 $-1 #
loop $-1 $-1 $226 $285 #
edge $-1 $227 1.8753139242864431e-030 $400 166.73228346456699 $314 $401 forward 7 unknown #
point $-1 -1.8753139242864431e-030 166.73228346456699 63.582677165353985 #
edge $-1 $228 -1.8753139242864431e-030 $402 166.73228346456699 $384 $403 forward 7 unknown #
point $-1 -1.8753139242864431e-030 166.73228346456699 -63.582677165353999 #
aggregate_simgeom_attribute-aggregate_simgeom_base_attribute-aggregate_body_attribute-attrib_HH-attrib $-1 $-1 $230 $0 F #
attrib_hh_face_geombuild-attrib_entity_geombuild-individual_entity_attribute-attrib_HH-attrib $-1 $-1 $232 $162 F #
model_id-kcp-attrib $-1 $404 $-1 $233 1 1017698790 70 -179961855 8 #
face $405 $406 $407 $11 $-1 $408 reversed single #
loop $409 $410 $411 $233 #
cone-surface $-1 6.2992125984251999 31.496062992125999 544.48818897637796 0 0 1 25.590551181102398 0 0 1 I I 0 1 25.590551181102398 forward I I I I #
attrib_hh_coedge_geombuild-attrib_entity_geombuild-individual_entity_attribute-attrib_HH-attrib $-1 $-1 $-1 $235 F #
coedge $412 $328 $328 $235 $329 reversed $413 $-1 #
edge $414 $415 0 $415 6.2831853071795862 $235 $416 forward 7 unknown #
attrib_hh_coedge_geombuild-attrib_entity_geombuild-individual_entity_attribute-attrib_HH-attrib $-1 $-1 $-1 $236 F #
attrib_edge_convexity-kcp-attrib $-1 $417 $-1 $238 1 #
vertex $418 $238 $419 #
ellipse-curve $-1 0 0 427.16535433070902 0 0 1 166.73228346456699 0 0 1 I I #
convexity-sys-attrib $-1 $420 $239 $168 #
attrib_hh_vertex_geombuild-attrib_entity_geombuild-individual_entity_attribute-attrib_HH-attrib $-1 $-1 $-1 $240 F #
point $-1 -127.95275590551201 0 427.16535433070902 #
attrib_hh_edge_geombuild-attrib_entity_geombuild-individual_entity_attribute-attrib_HH-attrib $-1 $-1 $242 $118 F #
coedge $421 $338 $338 $422 $423 forward $245 $-1 #
plane-surface $-1 166.73228346456699 0 0 -1 0 0 0 0 1 forward_v I I I I #
coedge $-1 $253 $251 $255 $344 reversed $183 $-1 #
edge $-1 $266 -63.582677165353999 $346 63.582677165353999 $265 $424 forward 7 unknown #
vertex $-1 $344 $425 #
straight-curve $-1 -166.73228346456699 -166.73228346456699 0 0 0 -1 I I #
edge $-1 $342 -166.73228346456699 $346 166.73228346456699 $340 $426 forward 7 unknown #
straight-curve $-1 0 -166.73228346456699 -63.582677165353999 -1 0 0 I I #
vertex $-1 $258 $427 #
straight-curve $-1 0 166.73228346456699 -63.582677165353999 1 0 0 I I #
point $-1 166.73228346456699 166.73228346456699 -63.582677165353999 #
point $-1 166.73228346456699 -166.73228346456699 -63.582677165353999 #
straight-curve $-1 -166.73228346456699 0 63.582677165353999 0 -1 0 I I #
point $-1 -166.73228346456699 166.73228346456699 63.582677165353999 #
point $-1 -166.73228346456699 -166.73228346456699 63.582677165353999 #
straight-curve $-1 166.73228346456699 -166.73228346456699 0 0 0 -1 I I #
straight-curve $-1 166.73228346456699 166.73228346456699 0 0 0 -1 I I #
point $-1 127.95275590551201 0 -4.9212598425194756 #
point $-1 0 0 469.92029959669571 #
point $-1 25.590551181102398 0 2.5590551181099954 #
point $-1 44.488188976377899 0 2.362204724409537 #
face $-1 $428 $429 $37 $-1 $430 reversed single #
plane-surface $-1 0 166.73228346456699 0 0 -1 0 0 0 -1 forward_v I I I I #
coedge $-1 $288 $371 $289 $366 forward $215 $-1 #
coedge $-1 $431 $432 $288 $363 forward $433 $-1 #
edge $-1 $373 -3.1415926535897931 $370 -1.5707963267948966 $362 $306 forward 7 unknown #
coedge $-1 $290 $289 $434 $435 reversed $152 $-1 #
coedge $-1 $436 $437 $438 $366 forward $439 $-1 #
edge $-1 $440 -127.16535433070801 $370 -2.8421709430404007e-014 $365 $441 forward 7 unknown #
coedge $-1 $368 $291 $442 $387 forward $369 $-1 #
coedge $-1 $291 $367 $436 $443 forward $369 $-1 #
loop $-1 $-1 $291 $444 #
vertex $-1 $445 $446 #
coedge $-1 $361 $293 $447 $448 reversed $215 $-1 #
coedge $-1 $449 $450 $451 $294 forward $429 $-1 #
vertex $-1 $452 $453 #
straight-curve $-1 -166.73228346456699 0 -63.582677165354028 0 0 -1 I I #
coedge $-1 $454 $451 $296 $376 reversed $455 $-1 #
edge $-1 $400 -166.73228346456699 $298 0 $375 $456 forward 7 unknown #
face $-1 $392 $297 $37 $-1 $457 forward single #
edge $-1 $298 0 $458 166.73228346456699 $450 $456 forward 7 unknown #
point $-1 -166.73228346456699 0 63.582677165353985 #
coedge $-1 $459 $300 $303 $385 reversed $286 $-1 #
coedge $-1 $300 $459 $307 $389 reversed $286 $-1 #
coedge $-1 $460 $442 $290 $301 reversed $461 $-1 #
straight-curve $-1 166.73228346456699 0 -63.582677165354028 0 0 -1 I I #
coedge $-1 $315 $462 $302 $319 reversed $399 $-1 #
edge $-1 $402 -166.73228346456699 $305 0 $380 $463 forward 7 unknown #
face $-1 $464 $304 $37 $-1 $465 reversed single #
edge $-1 $305 0 $466 166.73228346456699 $442 $463 forward 7 unknown #
point $-1 166.73228346456699 0 -63.582677165353999 #
edge $-1 $310 0 $467 166.73228346456699 $381 $468 forward 7 unknown #
coedge $-1 $462 $315 $308 $391 reversed $399 $-1 #
edge $-1 $467 -166.73228346456699 $227 1.8753139242864431e-030 $390 $401 forward 7 unknown #
face $-1 $469 $309 $37 $-1 $457 forward single #
point $-1 166.73228346456699 0 63.582677165353985 #
coedge $-1 $395 $311 $470 $452 forward $396 $-1 #
coedge $-1 $311 $394 $313 $398 forward $396 $-1 #
loop $-1 $-1 $311 $464 #
coedge $-1 $314 $313 $454 $471 reversed $316 $-1 #
edge $-1 $472 -166.73228346456699 $228 -1.8753139242864431e-030 $313 $403 forward 7 unknown #
loop $-1 $-1 $315 $473 #
vertex $-1 $317 $474 #
straight-curve $-1 0 166.73228346456699 63.582677165353999 -1 0 0 I I #
vertex $-1 $385 $475 #
straight-curve $-1 0 166.73228346456699 -63.582677165353999 1 0 0 I I #
attrib_hh_face_geombuild-attrib_entity_geombuild-individual_entity_attribute-attrib_HH-attrib $-1 $-1 $323 $233 F #
model_id-kcp-attrib $-1 $476 $-1 $324 1 1017698790 70 -179961855 9 #
face $477 $478 $479 $11 $-1 $480 reversed single #
loop $-1 $481 $482 $324 #
plane-surface $-1 6.2992125984251999 31.496062992125999 549.21259842519703 0 0 1 1 0 0 forward_v I I I I #
model_id-kcp-attrib $-1 $-1 $-1 $325 1 1017698790 70 -179961855 15 #
loop $483 $-1 $484 $233 #
coedge $485 $411 $411 $486 $487 forward $325 $-1 #
attrib_hh_coedge_geombuild-attrib_entity_geombuild-individual_entity_attribute-attrib_HH-attrib $-1 $-1 $-1 $328 F #
loop $-1 $488 $328 $489 #
attrib_hh_edge_geombuild-attrib_entity_geombuild-individual_entity_attribute-attrib_HH-attrib $-1 $-1 $-1 $329 F #
vertex $490 $329 $491 #
ellipse-curve $-1 0 0 544.48818897637796 0 0 1 -98.377635681445895 0 0 1 I I #
convexity-sys-attrib $-1 $492 $331 $238 #
attrib_hh_vertex_geombuild-attrib_entity_geombuild-individual_entity_attribute-attrib_HH-attrib $-1 $-1 $-1 $332 F #
point $-1 166.73228346456699 0 427.16535433070902 #
attrib_hh_edge_geombuild-attrib_entity_geombuild-individual_entity_attribute-attrib_HH-attrib $-1 $-1 $334 $168 F #
attrib_hh_coedge_geombuild-attrib_entity_geombuild-individual_entity_attribute-attrib_HH-attrib $-1 $-1 $-1 $338 F #
coedge $493 $422 $422 $338 $423 reversed $494 $-1 #
edge $495 $496 0 $496 6.2831853071795862 $338 $497 forward 7 unknown #
straight-curve $-1 -166.73228346456699 166.73228346456699 0 0 0 -1 I I #
point $-1 -166.73228346456699 -166.73228346456699 -63.582677165353999 #
straight-curve $-1 -166.73228346456699 0 -63.582677165353999 0 1 0 I I #
point $-1 -166.73228346456699 166.73228346456699 -63.582677165353999 #
face $-1 $377 $498 $37 $-1 $457 forward single #
loop $-1 $-1 $372 $359 #
plane-surface $-1 -166.73228346456699 0 0 1 0 0 0 0 -1 forward_v I I I I #
coedge $-1 $432 $362 $499 $445 forward $433 $-1 #
coedge $-1 $362 $431 $449 $500 forward $433 $-1 #
loop $-1 $-1 $362 $501 #
coedge $-1 $502 $503 $364 $435 forward $504 $-1 #
edge $-1 $310 -1.2246063538223773e-016 $440 1.5707963267948966 $434 $299 forward 7 unknown #
coedge $-1 $505 $365 $368 $443 reversed $439 $-1 #
coedge $-1 $365 $505 $502 $506 reversed $439 $-1 #
coedge $-1 $507 $499 $361 $366 reversed $508 $-1 #
loop $-1 $-1 $365 $509 #
vertex $-1 $506 $510 #
straight-curve $-1 -1.8753139242864431e-030 -166.73228346456699 -63.582677165354028 0 0 -1 I I #
coedge $-1 $382 $511 $367 $387 reversed $461 $-1 #
edge $-1 $466 -166.73228346456699 $370 1.8753139242864431e-030 $436 $512 forward 7 unknown #
face $-1 $386 $369 $37 $-1 $465 reversed single #
edge $-1 $370 1.8753139242864431e-030 $513 166.73228346456699 $499 $512 forward 7 unknown #
point $-1 -1.8753139242864431e-030 -166.73228346456699 -63.582677165353999 #
coedge $-1 $514 $515 $371 $448 forward $498 $-1 #
edge $-1 $440 1.5707963267948966 $298 3.1415926535897931 $447 $299 forward 7 unknown #
coedge $-1 $516 $372 $432 $500 reversed $429 $-1 #
coedge $-1 $372 $516 $514 $378 reversed $429 $-1 #
coedge $-1 $375 $470 $217 $294 reversed $455 $-1 #
edge $-1 $373 0 $472 166.73228346456699 $470 $517 forward 7 unknown #
point $-1 -166.73228346456699 0 -63.582677165353999 #
coedge $-1 $470 $375 $397 $471 forward $455 $-1 #
loop $-1 $-1 $451 $518 #
straight-curve $-1 -166.73228346456699 0 63.582677165353999 0 -1 0 I I #
plane-surface $-1 0 0 63.582677165353999 0 0 1 1 0 0 forward_v I I I I #
vertex $-1 $378 $519 #
coedge $-1 $381 $380 $462 $520 reversed $286 $-1 #
coedge $-1 $511 $382 $503 $521 reversed $461 $-1 #
loop $-1 $-1 $382 $522 #
coedge $-1 $384 $390 $459 $520 forward $399 $-1 #
straight-curve $-1 166.73228346456699 0 -63.582677165353999 0 -1 0 I I #
face $-1 $523 $396 $37 $-1 $465 reversed single #
plane-surface $-1 0 0 -63.582677165353999 0 0 1 1 0 0 forward_v I I I I #
vertex $-1 $524 $525 #
vertex $-1 $389 $526 #
straight-curve $-1 166.73228346456699 0 63.582677165353999 0 1 0 I I #
face $-1 $509 $504 $37 $-1 $457 forward single #
coedge $-1 $451 $454 $394 $452 reversed $455 $-1 #
edge $-1 $400 -63.582677165353999 $472 63.582677165353999 $397 $527 forward 7 unknown #
vertex $-1 $398 $528 #
face $-1 $522 $399 $37 $-1 $360 reversed single #
point $-1 -166.73228346456699 166.73228346456699 63.582677165353999 #
point $-1 166.73228346456699 166.73228346456699 -63.582677165353999 #
attrib_hh_face_geombuild-attrib_entity_geombuild-individual_entity_attribute-attrib_HH-attrib $-1 $-1 $405 $324 F #
model_id-kcp-attrib $-1 $529 $-1 $406 1 1017698790 70 -179961855 10 #
face $530 $489 $531 $11 $-1 $532 forward single #
loop $-1 $533 $534 $406 #
cone-surface $-1 6.2992125984251999 31.496062992125999 544.48818897637796 0 0 1 44.488188976377899 0 0 1 I I 0 1 44.488188976377899 forward I I I I #
loop $535 $-1 $486 $324 #
coedge $536 $482 $482 $534 $537 forward $407 $-1 #
model_id-kcp-attrib $-1 $-1 $-1 $410 1 1017698790 70 -179961855 16 #
coedge $538 $484 $484 $539 $540 forward $410 $-1 #
attrib_hh_coedge_geombuild-attrib_entity_geombuild-individual_entity_attribute-attrib_HH-attrib $-1 $-1 $-1 $411 F #
coedge $541 $486 $486 $411 $487 reversed $481 $-1 #
edge $542 $543 0 $543 6.2831853071795862 $411 $544 forward 7 unknown #
loop $-1 $-1 $545 $489 #
face $546 $-1 $413 $11 $-1 $547 forward single #
attrib_hh_vertex_geombuild-attrib_entity_geombuild-individual_entity_attribute-attrib_HH-attrib $-1 $-1 $-1 $415 F #
point $-1 -98.377635681445895 0 544.48818897637796 #
attrib_hh_edge_geombuild-attrib_entity_geombuild-individual_entity_attribute-attrib_HH-attrib $-1 $-1 $417 $238 F #
attrib_hh_coedge_geombuild-attrib_entity_geombuild-individual_entity_attribute-attrib_HH-attrib $-1 $-1 $-1 $422 F #
loop $-1 $-1 $422 $478 #
attrib_hh_edge_geombuild-attrib_entity_geombuild-individual_entity_attribute-attrib_HH-attrib $-1 $-1 $-1 $423 F #
vertex $548 $423 $549 #
ellipse-curve $-1 0 0 554.33070866141702 0 0 -1 -105.905511811024 0 0 1 I I #
loop $-1 $-1 $447 $428 #
coedge $-1 $438 $550 $431 $445 reversed $508 $-1 #
edge $-1 $513 -166.73228346456699 $373 0 $449 $517 forward 7 unknown #
face $-1 $444 $433 $37 $-1 $465 reversed single #
coedge $-1 $503 $434 $437 $506 forward $504 $-1 #
coedge $-1 $434 $502 $460 $521 forward $504 $-1 #
loop $-1 $-1 $434 $469 #
coedge $-1 $437 $436 $511 $524 reversed $439 $-1 #
edge $-1 $440 -1.8753139242864431e-030 $551 166.73228346456699 $437 $552 forward 7 unknown #
coedge $-1 $550 $438 $515 $553 reversed $508 $-1 #
loop $-1 $-1 $438 $523 #
face $-1 $501 $439 $37 $-1 $554 reversed single #
point $-1 -1.8753139242864431e-030 -166.73228346456699 63.582677165353985 #
coedge $-1 $442 $460 $505 $524 forward $461 $-1 #
straight-curve $-1 0 -166.73228346456699 -63.582677165353999 -1 0 0 I I #
vertex $-1 $500 $555 #
coedge $-1 $515 $447 $450 $378 forward $498 $-1 #
coedge $-1 $447 $514 $507 $553 forward $498 $-1 #
coedge $-1 $450 $449 $550 $556 reversed $429 $-1 #
straight-curve $-1 -166.73228346456699 0 -63.582677165353999 0 1 0 I I #
face $-1 $473 $455 $37 $-1 $430 reversed single #
point $-1 -166.73228346456699 -166.73228346456699 63.582677165353999 #
edge $-1 $467 -63.582677165353999 $402 63.582677165353999 $459 $557 forward 7 unknown #
edge $-1 $551 -166.73228346456699 $310 0 $460 $468 forward 7 unknown #
face $-1 $-1 $461 $37 $-1 $287 reversed single #
face $-1 $518 $508 $37 $-1 $554 reversed single #
edge $-1 $551 -63.582677165353999 $466 63.582677165353999 $511 $558 forward 7 unknown #
point $-1 166.73228346456699 -166.73228346456699 -63.582677165353999 #
point $-1 166.73228346456699 166.73228346456699 63.582677165353999 #
straight-curve $-1 -166.73228346456699 166.73228346456699 0 0 0 -1 I I #
point $-1 -166.73228346456699 166.73228346456699 -63.582677165353999 #
attrib_hh_face_geombuild-attrib_entity_geombuild-individual_entity_attribute-attrib_HH-attrib $-1 $-1 $477 $406 F #
model_id-kcp-attrib $-1 $559 $-1 $478 1 1017698790 70 -179961855 14 #
loop $560 $494 $539 $478 #
plane-surface $-1 0 0 554.33070866141702 0 0 1 1 0 0 forward_v I I I I #
loop $-1 $-1 $561 $406 #
coedge $562 $534 $534 $482 $537 reversed $479 $-1 #
model_id-kcp-attrib $-1 $-1 $-1 $481 1 1017698790 70 -179961855 17 #
attrib_hh_coedge_geombuild-attrib_entity_geombuild-individual_entity_attribute-attrib_HH-attrib $-1 $-1 $-1 $482 F #
edge $563 $564 0 $564 6.2831853071795862 $482 $565 forward 7 unknown #
attrib_hh_coedge_geombuild-attrib_entity_geombuild-individual_entity_attribute-attrib_HH-attrib $-1 $-1 $-1 $484 F #
coedge $566 $539 $539 $484 $540 reversed $531 $-1 #
edge $567 $568 0 $568 6.2831853071795862 $484 $569 forward 7 unknown #
attrib_hh_coedge_geombuild-attrib_entity_geombuild-individual_entity_attribute-attrib_HH-attrib $-1 $-1 $-1 $486 F #
attrib_edge_convexity-kcp-attrib $-1 $570 $-1 $487 1 #
vertex $571 $487 $572 #
ellipse-curve $-1 6.2992125984251999 31.496062992125999 549.21259842519703 0 0 -1 25.590551181102398 0 0 1 I I #
coedge $573 $545 $545 $561 $574 reversed $488 $-1 #
model_id-kcp-attrib $-1 $575 $-1 $489 1 1017698790 70 -179961855 12 #
plane-surface $-1 0 0 544.48818897637796 0 0 -1 -1 0 0 forward_v I I I I #
attrib_hh_vertex_geombuild-attrib_entity_geombuild-individual_entity_attribute-attrib_HH-attrib $-1 $-1 $-1 $496 F #
point $-1 -105.905511811024 0 554.33070866141702 #
coedge $-1 $499 $507 $516 $556 forward $508 $-1 #
vertex $-1 $521 $576 #
straight-curve $-1 0 -166.73228346456699 63.582677165353999 1 0 0 I I #
edge $-1 $458 -166.73228346456699 $440 -1.8753139242864431e-030 $507 $552 forward 7 unknown #
plane-surface $-1 0 -166.73228346456699 0 0 1 0 0 0 1 forward_v I I I I #
point $-1 -166.73228346456699 -166.73228346456699 -63.582677165353999 #
edge $-1 $458 -63.582677165353999 $513 63.582677165353999 $516 $577 forward 7 unknown #
straight-curve $-1 166.73228346456699 166.73228346456699 0 0 0 -1 I I #
straight-curve $-1 166.73228346456699 -166.73228346456699 0 0 0 -1 I I #
model_id-kcp-attrib $-1 $578 $530 $478 1 1017698790 70 -179961855 11 #
model_id-kcp-attrib $-1 $-1 $-1 $531 1 1017698790 70 -179961855 18 #
coedge $579 $561 $561 $545 $574 forward $533 $-1 #
attrib_hh_coedge_geombuild-attrib_entity_geombuild-individual_entity_attribute-attrib_HH-attrib $-1 $-1 $-1 $534 F #
attrib_edge_convexity-kcp-attrib $-1 $580 $-1 $537 2 #
vertex $581 $537 $582 #
ellipse-curve $-1 6.2992125984251999 31.496062992125999 549.21259842519703 0 0 -1 -44.488188976377899 0 0 1 I I #
attrib_hh_coedge_geombuild-attrib_entity_geombuild-individual_entity_attribute-attrib_HH-attrib $-1 $-1 $-1 $539 F #
attrib_edge_convexity-kcp-attrib $-1 $583 $-1 $540 1 #
vertex $584 $540 $585 #
ellipse-curve $-1 6.2992125984251999 31.496062992125999 554.33070866141702 0 0 1 25.590551181102398 0 0 1 I I #
convexity-sys-attrib $-1 $586 $542 $487 #
model_id-kcp-attrib $-1 $587 $-1 $543 1 1017698790 70 -179961855 19 #
point $-1 31.889763779527598 31.496062992125999 549.21259842519703 #
attrib_hh_coedge_geombuild-attrib_entity_geombuild-individual_entity_attribute-attrib_HH-attrib $-1 $-1 $-1 $545 F #
edge $588 $589 0 $589 6.2831853071795862 $561 $590 forward 7 unknown #
attrib_hh_face_geombuild-attrib_entity_geombuild-individual_entity_attribute-attrib_HH-attrib $-1 $-1 $546 $489 F #
point $-1 166.73228346456699 -166.73228346456699 63.582677165353999 #
straight-curve $-1 -166.73228346456699 -166.73228346456699 0 0 0 -1 I I #
attrib_hh_face_geombuild-attrib_entity_geombuild-individual_entity_attribute-attrib_HH-attrib $-1 $-1 $559 $478 F #
attrib_hh_coedge_geombuild-attrib_entity_geombuild-individual_entity_attribute-attrib_HH-attrib $-1 $-1 $-1 $561 F #
convexity-sys-attrib $-1 $591 $563 $537 #
attrib_hh_vertex_geombuild-attrib_entity_geombuild-individual_entity_attribute-attrib_HH-attrib $-1 $-1 $-1 $564 F #
point $-1 -38.188976377952699 31.496062992125999 549.21259842519703 #
convexity-sys-attrib $-1 $592 $567 $540 #
model_id-kcp-attrib $-1 $593 $-1 $568 1 1017698790 70 -179961855 20 #
point $-1 31.889763779527598 31.496062992125999 554.33070866141702 #
attrib_hh_edge_geombuild-attrib_entity_geombuild-individual_entity_attribute-attrib_HH-attrib $-1 $-1 $570 $487 F #
attrib_hh_vertex_geombuild-attrib_entity_geombuild-individual_entity_attribute-attrib_HH-attrib $-1 $-1 $571 $543 F #
attrib_edge_convexity-kcp-attrib $-1 $594 $-1 $574 1 #
vertex $595 $574 $596 #
ellipse-curve $-1 6.2992125984251999 31.496062992125999 544.48818897637796 0 0 -1 -44.488188976377899 0 0 1 I I #
attrib_hh_edge_geombuild-attrib_entity_geombuild-individual_entity_attribute-attrib_HH-attrib $-1 $-1 $580 $537 F #
attrib_hh_edge_geombuild-attrib_entity_geombuild-individual_entity_attribute-attrib_HH-attrib $-1 $-1 $583 $540 F #
attrib_hh_vertex_geombuild-attrib_entity_geombuild-individual_entity_attribute-attrib_HH-attrib $-1 $-1 $584 $568 F #
convexity-sys-attrib $-1 $597 $588 $574 #
attrib_hh_vertex_geombuild-attrib_entity_geombuild-individual_entity_attribute-attrib_HH-attrib $-1 $-1 $-1 $589 F #
point $-1 -38.188976377952699 31.496062992125999 544.48818897637796 #
attrib_hh_edge_geombuild-attrib_entity_geombuild-individual_entity_attribute-attrib_HH-attrib $-1 $-1 $594 $574 F #
End-of-ACIS-data 