**ABCDEFGHIJKLMNOPQRSTUVWXYZabcdefghijklmnopqrstuvwxyz**************************
**PARASOLID !"#$%&'()*+,-./:;<=>?@[\]^_`{|}~0123456789**************************
**PART1;MC=sparc;MC_MODEL=sun4c;MC_ID=chaos;OS=SunOS;OS_RELEASE=4.1.2;FRU=sdl_pa
rasolid_test_sparc;APPL=unknown;SITE=sdl-cambridge-u.k.;USER=brown;FORMAT=text;G
UISE=transmit;KEY=spring_enclosure;FILE=spring_enclosure.xmt_txt;DATE=14-feb-199
2;
**PART2;SCH=SCH_401021_4039;USFLD_SIZE=0;
**PART3;
**END_OF_HEADER*****************************************************************
T50 : TRANSMIT FILE created by modeller version 40102115 SCH_401021_40390 12 1 1
36 2 3 0 0 0 1e3 1e-8 4 2 0 5 6 1 7 1e-8 0 0 81 2 2 136 8 1 0 0 0 0 9 10 70 3 0
 1 0 0 4 1 20 4 11 11 1 102 16 4 spring_enclosure13 7 50 0 1 0 12 13 0 14 15 0 1
4 12 103 0 16 0 17 7 14 +16 13 118 0 18 0 19 15 50 14 123 0 12 20 0 0 +0 0 11.1
 0 0 1 1 0 0 31 15 128 0 13 21 0 0 -1e-8 0 0 11.1 0 0 1 1 0 0 3.51 31 21 130 0 1
9 22 15 0 +1e-8 0 0 10.85 0 0 -1 -1 0 0 3.25 16 19 120 0 23 13 24 21 31 22 131 0
 24 25 21 0 +1e-8 0 0 11.1 0 0 -1 -1 0 0 4.235 16 24 121 0 26 19 27 22 31 25 132
 0 27 28 22 0 +1e-8 0 0 10.85 0 0 1 1 0 0 4.235 16 27 122 0 29 24 30 25 31 28 47
 0 30 31 25 0 -1e-8 0 0 13.83 0 0 -1 -1 0 0 2.498791946308725 16 30 44 0 32 27 3
3 28 31 31 25 0 33 34 28 0 +1e-8 0 0 11.1 0 0 -1 -1 0 0 3.25 16 33 22 0 35 30 36
 31 31 34 7 0 36 37 31 0 +1e-8 0 0 14.08 0 0 -1 -1 0 0 2.69 16 36 3 0 38 33 39 3
4 31 37 93 0 39 40 34 0 -1e-8 .16 .8 13.95 0 0 1 1 0 0 .65 16 39 77 0 41 36 42 3
7 31 40 94 0 42 43 37 0 +1e-8 .16 .8 13.95 0 0 -1 -1 0 0 1.13 16 42 78 0 44 39 4
5 40 31 43 95 0 45 46 40 0 +1e-8 .16 .8 14.08 0 0 1 1 0 0 .65 16 45 79 0 47 42 4
8 43 31 46 96 0 48 0 43 0 +1e-8 .16 .8 13.83 0 0 -1 -1 0 0 1.13 16 48 80 0 49 45
 0 46 17 49 50 49 49 0 51 48 0 15 50 65 0 49 52 0 17 51 53 51 51 0 49 48 0 15 53
 71 0 51 54 0 14 54 69 0 0 55 56 7 57 +14 55 66 0 54 52 58 7 59 +15 56 70 0 60 5
4 53 50 57 90 0 54 0 59 0 +0 0 13.83 0 0 -1 -1 0 0 50 59 89 0 55 57 61 0 +0 0 14
.08 0 0 1 1 0 0 51 61 87 0 52 59 62 0 +.16 .8 13.83 0 0 1 1.13 1 0 0 14 52 63 0
 55 63 64 7 61 -50 62 86 0 63 61 65 0 +.16 .8 13.95 0 0 1 1 0 0 14 63 60 0 52 66
 67 7 62 -51 65 85 0 66 62 68 0 +.16 .8 13.83 0 0 1 .65 1 0 0 14 66 57 0 63 69 7
0 7 65 -52 68 15 0 69 65 71 0 +0 0 14.08 0 0 -1 2.69 .2653068783885775 .96416402
1460928 -1 0 0 14 69 1 0 66 72 73 7 68 +52 71 38 0 72 68 74 0 +0 0 14.08 0 0 -1
 2.43 .2653068783885775 .964164021460928 -1 0 0 14 72 33 0 69 75 76 7 71 -50 74
 127 0 77 71 78 0 +0 0 10.85 0 0 -1 -1 0 0 14 77 112 0 75 16 79 7 74 +51 78 125
 0 75 74 20 0 +0 0 10.85 0 0 1 4.235 1 0 0 14 75 115 0 72 77 80 7 78 +51 20 124
 0 16 78 14 0 +0 0 10.85 0 0 1 3.25 1 0 0 14 16 106 0 77 12 81 7 20 -15 81 107 0
 82 16 83 17 82 81 82 82 0 35 33 0 15 83 108 0 23 16 0 17 23 83 23 23 0 84 19 0
 17 84 79 84 84 0 23 19 0 15 79 113 0 84 77 85 15 85 114 0 86 77 0 17 86 85 86 8
6 0 29 27 0 17 29 87 29 29 0 86 27 0 15 87 117 0 29 75 0 17 35 88 35 35 0 82 33
 0 15 88 34 0 35 72 0 15 80 116 0 26 75 87 17 26 80 26 26 0 89 24 0 17 89 17 89
 89 0 26 24 0 15 17 104 0 89 12 90 15 90 105 0 18 12 0 17 18 90 18 18 0 91 13 0
 17 91 73 91 91 0 18 13 0 15 73 10 0 91 69 92 15 92 4 0 38 69 0 17 38 92 38 38 0
 93 36 0 17 93 94 93 93 0 38 36 0 15 94 5 0 93 55 0 15 76 45 0 32 72 88 17 32 76
 32 32 0 60 30 0 17 60 56 60 60 0 32 30 0 15 70 58 0 41 66 95 17 41 70 41 41 0 9
6 39 0 15 95 59 0 47 66 0 17 47 95 47 47 0 97 45 0 17 97 58 97 97 0 47 45 0 15 5
8 68 0 97 55 94 17 96 98 96 96 0 41 39 0 15 98 62 0 96 63 0 15 67 61 0 44 63 98
 17 44 67 44 44 0 99 42 0 17 99 64 99 99 0 44 42 0 15 64 64 0 99 52 50 74 20 11
 1 0 2 0 0 0 0 0 0 0 0 0 0 0 0 0 0 0 0 0 0 0 80 2 8 100 8004 101 0 0 0 0 3 5 0 0
 FFTFFFFFFFFF2 3 83 1 9 .098 84 7 10 density79 16 101 SDL/TYSA_DENSITY1 0 
