105 113 1 0                             
body $-1 $1 $-1 $-1 #
lump $-1 $-1 $2 $0 #
shell $-1 $-1 $-1 $3 $1 #
face $-1 $4 $5 $2 $-1 $6 forward single #
face $-1 $7 $8 $2 $-1 $9 reversed single #
loop $-1 $10 $11 $3 #
plane-surface $-1 0 0 437.007874015748 0 0 1 1 0 0 0 #
face $-1 $12 $13 $2 $-1 $14 forward single #
loop $-1 $15 $16 $4 #
cone-surface $-1 0 0 427.165354330709 0 0 1 127.952755905512 0 0 1 0 1 0 #
loop $-1 $-1 $17 $3 #
coedge $-1 $11 $11 $18 $19 1 $5 $-1 #
face $-1 $20 $21 $2 $-1 $22 forward single #
loop $-1 $23 $24 $7 #
plane-surface $-1 0 0 427.165354330709 0 0 -1 -1 0 0 0 #
loop $-1 $-1 $25 $4 #
coedge $-1 $16 $16 $26 $27 1 $8 $-1 #
coedge $-1 $17 $17 $28 $29 0 $10 $-1 #
coedge $-1 $18 $18 $11 $19 0 $21 $-1 #
edge $-1 $30 $30 $11 $31 0 #
face $-1 $32 $33 $2 $-1 $34 reversed single #
loop $-1 $35 $18 $12 #
cone-surface $-1 0 0 427.165354330709 0 0 1 166.732283464567 0 0 1 0 1 0 #
loop $-1 $-1 $36 $7 #
coedge $-1 $24 $24 $25 $37 1 $13 $-1 #
coedge $-1 $25 $25 $24 $37 0 $15 $-1 #
coedge $-1 $26 $26 $16 $27 0 $38 $-1 #
edge $-1 $39 $39 $16 $40 0 #
coedge $-1 $28 $28 $17 $29 1 $41 $-1 #
edge $-1 $42 $42 $17 $43 0 #
vertex $-1 $19 $44 #
ellipse-curve $-1 0 0 437.007874015748 0 0 -1 -166.732283464567 0 0 1 #
face $-1 $45 $41 $2 $-1 $46 forward single #
loop $-1 $38 $47 $20 #
cone-surface $-1 0 0 554.330708661417 0 0 -1 -95.6692913385827 0 0 1 0.265306878388578 0.964164021460928 0 #
loop $-1 $-1 $48 $12 #
coedge $-1 $36 $36 $48 $49 1 $23 $-1 #
edge $-1 $50 $50 $25 $51 0 #
loop $-1 $-1 $26 $20 #
vertex $-1 $27 $52 #
ellipse-curve $-1 0 0 437.007874015748 0 0 -1 -127.952755905512 0 0 1 #
loop $-1 $53 $28 $32 #
vertex $-1 $29 $54 #
ellipse-curve $-1 0 0 437.007874015748 0 0 -1 138.188976377953 0 0 1 #
point $-1 -166.732283464567 0 437.007874015748 #
face $-1 $55 $56 $2 $-1 $57 reversed single #
cone-surface $-1 0 0 554.330708661417 0 0 -1 -105.905511811024 0 0 1 0.265306878388578 0.964164021460928 0 #
coedge $-1 $47 $47 $58 $59 0 $33 $-1 #
coedge $-1 $48 $48 $36 $49 0 $35 $-1 #
edge $-1 $60 $60 $36 $61 0 #
vertex $-1 $37 $62 #
ellipse-curve $-1 0 0 427.165354330709 0 0 -1 -127.952755905512 0 0 1 #
point $-1 -127.952755905512 0 437.007874015748 #
loop $-1 $-1 $63 $32 #
point $-1 138.188976377953 0 437.007874015748 #
face $-1 $64 $65 $2 $-1 $66 reversed single #
loop $-1 $67 $68 $45 #
cone-surface $-1 6.2992125984252 31.496062992126 544.488188976378 0 0 1 25.5905511811024 0 0 1 0 1 0 #
coedge $-1 $58 $58 $47 $59 1 $69 $-1 #
edge $-1 $70 $70 $47 $71 0 #
vertex $-1 $49 $72 #
ellipse-curve $-1 0 0 427.165354330709 0 0 1 166.732283464567 0 0 1 #
point $-1 -127.952755905512 0 427.165354330709 #
coedge $-1 $63 $63 $73 $74 0 $53 $-1 #
face $-1 $75 $76 $2 $-1 $77 reversed single #
loop $-1 $78 $79 $55 #
plane-surface $-1 6.2992125984252 31.496062992126 549.212598425197 0 0 1 1 0 0 0 #
loop $-1 $-1 $80 $45 #
coedge $-1 $68 $68 $81 $82 0 $56 $-1 #
loop $-1 $83 $58 $84 #
vertex $-1 $59 $85 #
ellipse-curve $-1 0 0 544.488188976378 0 0 1 -98.3776356814459 0 0 1 #
point $-1 166.732283464567 0 427.165354330709 #
coedge $-1 $73 $73 $63 $74 1 $86 $-1 #
edge $-1 $87 $87 $63 $88 0 #
face $-1 $84 $89 $2 $-1 $90 forward single #
loop $-1 $91 $92 $64 #
cone-surface $-1 6.2992125984252 31.496062992126 544.488188976378 0 0 1 44.4881889763779 0 0 1 0 1 0 #
loop $-1 $-1 $81 $55 #
coedge $-1 $79 $79 $92 $93 0 $65 $-1 #
coedge $-1 $80 $80 $94 $95 0 $67 $-1 #
coedge $-1 $81 $81 $68 $82 1 $78 $-1 #
edge $-1 $96 $96 $68 $97 0 #
loop $-1 $-1 $98 $84 #
face $-1 $-1 $69 $2 $-1 $99 forward single #
point $-1 -98.3776356814459 0 544.488188976378 #
loop $-1 $-1 $73 $75 #
vertex $-1 $74 $100 #
ellipse-curve $-1 0 0 554.330708661417 0 0 -1 -105.905511811024 0 0 1 #
loop $-1 $86 $94 $75 #
plane-surface $-1 0 0 554.330708661417 0 0 1 1 0 0 0 #
loop $-1 $-1 $101 $64 #
coedge $-1 $92 $92 $79 $93 1 $76 $-1 #
edge $-1 $102 $102 $79 $103 0 #
coedge $-1 $94 $94 $80 $95 1 $89 $-1 #
edge $-1 $104 $104 $80 $105 0 #
vertex $-1 $82 $106 #
ellipse-curve $-1 6.2992125984252 31.496062992126 549.212598425197 0 0 -1 25.5905511811024 0 0 1 #
coedge $-1 $98 $98 $101 $107 1 $83 $-1 #
plane-surface $-1 0 0 544.488188976378 0 0 -1 -1 0 0 0 #
point $-1 -105.905511811024 0 554.330708661417 #
coedge $-1 $101 $101 $98 $107 0 $91 $-1 #
vertex $-1 $93 $108 #
ellipse-curve $-1 6.2992125984252 31.496062992126 549.212598425197 0 0 -1 -44.4881889763779 0 0 1 #
vertex $-1 $95 $109 #
ellipse-curve $-1 6.2992125984252 31.496062992126 554.330708661417 0 0 1 25.5905511811024 0 0 1 #
point $-1 31.8897637795276 31.496062992126 549.212598425197 #
edge $-1 $110 $110 $101 $111 0 #
point $-1 -38.1889763779527 31.496062992126 549.212598425197 #
point $-1 31.8897637795276 31.496062992126 554.330708661417 #
vertex $-1 $107 $112 #
ellipse-curve $-1 6.2992125984252 31.496062992126 544.488188976378 0 0 -1 -44.4881889763779 0 0 1 #
point $-1 -38.1889763779527 31.496062992126 544.488188976378 #
