600 0 2 0           
34 FBMach with ACIS3D/Toolkit - 6.0.3 13 ACIS 6.0.3 NT 24 Mon Apr 16 11:57:40 2001 
1 9.9999999999999995e-007 1e-010 
body $2 $3 $-1 $4 #
bdycol-kcp $-1 1 5 $5 $6 $7 $8 $9 #
model_id-kcp-attrib $-1 $-1 $-1 $0 1 987436658 140 -1148452863 1 #
lump $-1 $-1 $10 $0 #
transform $-1 1 0 0 0 1 0 0 0 1 0 0 0 1 no_rotate no_reflect no_shear #
body $11 $12 $-1 $13 #
body $14 $15 $-1 $16 #
body $17 $18 $-1 $19 #
body $20 $21 $-1 $22 #
body $23 $24 $-1 $25 #
shell $-1 $-1 $-1 $26 $-1 $3 #
model_id-kcp-attrib $-1 $-1 $-1 $5 1 987436658 156 -1147404286 1 #
lump $-1 $-1 $27 $5 #
transform $-1 1 0 0 0 1 0 0 0 1 0 0 490.74803149606305 1 no_rotate no_reflect no_shear #
rgb_color-st-attrib $-1 $28 $-1 $6 0.5 1 1 #
lump $-1 $-1 $29 $6 #
transform $-1 1 0 0 0 1 0 0 0 1 0 0 432.0866141732285 1 no_rotate no_reflect no_shear #
rgb_color-st-attrib $-1 $30 $-1 $7 0.5 1 1 #
lump $-1 $-1 $31 $7 #
transform $-1 1 0 0 0 1 0 0 0 1 6.2992125984251999 31.496062992125999 551.77165354330702 1 no_rotate no_reflect no_shear #
rgb_color-st-attrib $-1 $32 $-1 $8 0.5 1 1 #
lump $-1 $-1 $33 $8 #
transform $-1 1 0 0 0 1 0 0 0 1 6.2992125984251999 31.496062992125999 546.85039370078744 1 no_rotate no_reflect no_shear #
rgb_color-st-attrib $-1 $34 $-1 $9 0.5 1 1 #
lump $-1 $-1 $35 $9 #
transform $-1 1 0 0 0 1 0 0 0 1 0 0 490.74803149606305 1 no_rotate no_reflect no_shear #
face $36 $37 $38 $10 $-1 $39 forward single #
shell $-1 $-1 $-1 $40 $-1 $12 #
model_id-kcp-attrib $-1 $-1 $14 $6 1 987436658 859 -1151664125 1 #
shell $-1 $-1 $-1 $41 $-1 $15 #
model_id-kcp-attrib $-1 $-1 $17 $7 1 987436658 875 -1150615548 1 #
shell $-1 $-1 $-1 $42 $-1 $18 #
model_id-kcp-attrib $-1 $-1 $20 $8 1 987436658 890 -1149632507 1 #
shell $-1 $-1 $-1 $43 $-1 $21 #
model_id-kcp-attrib $-1 $-1 $23 $9 1 987436658 1609 -1152843770 1 #
shell $-1 $-1 $-1 $44 $-1 $24 #
model_id-kcp-attrib $-1 $-1 $-1 $26 1 987436658 140 -1148452863 2 #
face $45 $46 $47 $10 $-1 $48 reversed single #
loop $-1 $49 $50 $26 #
plane-surface $-1 0 0 437.00787401574797 0 0 1 1 0 0 forward_v I I I I #
face $51 $52 $53 $27 $-1 $54 forward single #
face $-1 $55 $56 $29 $-1 $57 forward single #
face $-1 $58 $59 $31 $-1 $60 forward single #
face $-1 $61 $62 $33 $-1 $63 forward single #
face $-1 $64 $65 $35 $-1 $66 reversed single #
model_id-kcp-attrib $-1 $-1 $-1 $37 1 987436658 140 -1148452863 3 #
face $67 $68 $69 $10 $-1 $70 forward single #
loop $-1 $71 $72 $37 #
cone-surface $-1 0 0 427.16535433070902 0 0 1 127.95275590551201 0 0 1 I I 0 1 127.95275590551201 forward I I I I #
loop $-1 $-1 $73 $26 #
coedge $-1 $50 $50 $74 $75 reversed $38 $-1 #
model_id-kcp-attrib $-1 $-1 $-1 $40 1 987436658 156 -1147404286 3 #
face $76 $77 $78 $27 $-1 $79 reversed single #
loop $-1 $-1 $80 $40 #
plane-surface $-1 0 0 63.582677165353999 0 0 1 1 0 0 forward_v I I I I #
face $-1 $81 $82 $29 $-1 $83 forward single #
loop $-1 $84 $85 $41 #
cone-surface $-1 0 0 237.42077971960731 0 0 1 63.976377952756003 0 0 1 I I -0.26530687838857797 0.96416402146092772 63.976377952756003 forward I I I I #
face $-1 $86 $87 $31 $-1 $88 forward single #
loop $-1 $89 $90 $42 #
cone-surface $-1 0 0 0 0 0 1 25.590551181102398 0 0 1 I I 0 1 25.590551181102398 forward I I I I #
face $-1 $91 $92 $33 $-1 $93 forward single #
loop $-1 $94 $95 $43 #
cone-surface $-1 0 0 0 0 0 1 44.488188976377899 0 0 1 I I 0 1 44.488188976377899 forward I I I I #
face $-1 $96 $97 $35 $-1 $66 reversed single #
loop $-1 $-1 $98 $44 #
cone-surface $-1 -1.8753139242864431e-030 0 -63.582677165354028 0 0 -1 166.73228346456699 -2.0418141371802243e-014 0 1 I I 0 1 166.73228346456699 forward I I I I #
model_id-kcp-attrib $-1 $99 $-1 $46 1 987436658 140 -1148452863 13 #
face $100 $101 $102 $10 $-1 $103 forward single #
loop $-1 $104 $105 $46 #
plane-surface $-1 0 0 427.16535433070902 0 0 -1 -1 0 0 forward_v I I I I #
loop $-1 $-1 $106 $37 #
coedge $-1 $72 $72 $107 $108 reversed $47 $-1 #
coedge $-1 $73 $73 $109 $110 forward $49 $-1 #
coedge $-1 $74 $74 $50 $75 forward $102 $-1 #
edge $-1 $111 0 $111 6.2831853071795862 $50 $112 forward 7 unknown #
model_id-kcp-attrib $-1 $-1 $-1 $52 1 987436658 156 -1147404286 2 #
face $-1 $113 $114 $27 $-1 $115 reversed single #
loop $-1 $-1 $116 $52 #
plane-surface $-1 0 0 -63.582677165353999 0 0 1 1 0 0 forward_v I I I I #
coedge $-1 $117 $118 $119 $120 forward $53 $-1 #
face $-1 $-1 $121 $29 $-1 $122 forward single #
loop $-1 $123 $124 $55 #
cone-surface $-1 0 0 0 0 0 1 127.95275590551201 0 0 1 I I 0 1 127.95275590551201 forward I I I I #
loop $-1 $-1 $125 $41 #
coedge $-1 $85 $85 $126 $127 forward $56 $-1 #
face $-1 $-1 $128 $31 $-1 $129 forward single #
loop $-1 $-1 $130 $58 #
plane-surface $-1 0 0 -2.5590551181099954 0 0 -1 -1 0 0 forward_v I I I I #
loop $-1 $-1 $131 $42 #
coedge $-1 $90 $90 $130 $132 reversed $59 $-1 #
face $-1 $-1 $133 $33 $-1 $134 forward single #
loop $-1 $-1 $135 $61 #
plane-surface $-1 0 0 -2.362204724409537 0 0 -1 -1 0 0 forward_v I I I I #
loop $-1 $-1 $136 $43 #
coedge $-1 $95 $95 $135 $137 reversed $62 $-1 #
face $-1 $138 $139 $35 $-1 $66 reversed single #
loop $-1 $-1 $140 $64 #
coedge $-1 $141 $142 $143 $144 forward $65 $-1 #
model_id-kcp-attrib $-1 $-1 $67 $46 1 987436658 140 -1148452863 4 #
model_id-kcp-attrib $-1 $-1 $-1 $68 1 987436658 140 -1148452863 5 #
face $145 $146 $147 $10 $-1 $148 reversed single #
loop $-1 $149 $74 $68 #
cone-surface $-1 0 0 427.16535433070902 0 0 1 166.73228346456699 0 0 1 I I 0 1 166.73228346456699 forward I I I I #
loop $-1 $-1 $150 $46 #
coedge $-1 $105 $105 $106 $151 reversed $69 $-1 #
coedge $-1 $106 $106 $105 $151 forward $71 $-1 #
coedge $-1 $107 $107 $72 $108 forward $152 $-1 #
edge $153 $154 0 $154 6.2831853071795862 $72 $155 forward 7 unknown #
coedge $-1 $109 $109 $73 $110 reversed $156 $-1 #
edge $-1 $157 0 $157 6.2831853071795862 $73 $158 forward 7 unknown #
vertex $-1 $75 $159 #
ellipse-curve $-1 0 0 437.00787401574797 0 0 -1 -166.73228346456699 0 0 1 I I #
face $-1 $160 $161 $27 $-1 $162 reversed single #
loop $-1 $-1 $163 $77 #
plane-surface $-1 0 -166.73228346456699 0 0 1 0 0 0 1 forward_v I I I I #
coedge $-1 $164 $165 $166 $167 forward $78 $-1 #
coedge $-1 $168 $80 $169 $170 forward $53 $-1 #
coedge $-1 $80 $168 $171 $172 forward $53 $-1 #
coedge $-1 $173 $174 $80 $120 reversed $175 $-1 #
edge $-1 $176 -166.73228346456699 $177 166.73228346456699 $119 $178 forward 7 unknown #
loop $-1 $-1 $179 $81 #
plane-surface $-1 0 0 -4.9212598425194756 0 0 -1 -1 0 0 forward_v I I I I #
loop $-1 $-1 $126 $55 #
coedge $-1 $124 $124 $179 $180 reversed $82 $-1 #
coedge $-1 $125 $125 $-1 $181 reversed $84 $-1 #
coedge $-1 $126 $126 $85 $127 reversed $123 $-1 #
edge $-1 $182 0 $182 6.2831853071795862 $126 $183 forward 7 unknown #
loop $-1 $-1 $184 $86 #
plane-surface $-1 0 0 2.5590551181099954 0 0 1 1 0 0 forward_v I I I I #
coedge $-1 $130 $130 $90 $132 forward $87 $-1 #
coedge $-1 $131 $131 $184 $185 reversed $89 $-1 #
edge $-1 $186 0 $186 6.2831853071795862 $130 $187 forward 7 unknown #
loop $-1 $-1 $188 $91 #
plane-surface $-1 0 0 2.362204724409537 0 0 1 1 0 0 forward_v I I I I #
coedge $-1 $135 $135 $95 $137 forward $92 $-1 #
coedge $-1 $136 $136 $188 $189 reversed $94 $-1 #
edge $-1 $190 0 $190 6.2831853071795862 $135 $191 forward 7 unknown #
face $-1 $192 $193 $35 $-1 $66 reversed single #
loop $-1 $-1 $194 $96 #
coedge $-1 $195 $143 $196 $197 reversed $97 $-1 #
coedge $-1 $198 $98 $199 $200 reversed $65 $-1 #
coedge $-1 $98 $198 $201 $202 reversed $65 $-1 #
coedge $-1 $140 $203 $204 $144 reversed $97 $-1 #
edge $-1 $205 -127.16535433070801 $206 -2.8421709430404007e-014 $204 $207 forward 7 unknown #
model_id-kcp-attrib $-1 $-1 $-1 $101 1 987436658 140 -1148452863 6 #
face $208 $209 $156 $10 $-1 $210 forward single #
loop $-1 $152 $211 $101 #
cone-surface $-1 0 0 554.33070866141702 0 0 -1 -95.669291338582696 0 0 1 I I 0.26530687838857803 0.96416402146092794 95.669291338582696 forward I I I I #
loop $-1 $-1 $212 $68 #
coedge $-1 $150 $150 $212 $213 reversed $104 $-1 #
edge $214 $215 0 $215 6.2831853071795862 $106 $216 forward 7 unknown #
loop $-1 $-1 $107 $101 #
attrib_edge_convexity-kcp-attrib $-1 $217 $-1 $108 2 #
vertex $-1 $108 $218 #
ellipse-curve $-1 0 0 437.00787401574797 0 0 -1 -127.95275590551201 0 0 1 I I #
loop $-1 $219 $109 $146 #
vertex $-1 $110 $220 #
ellipse-curve $-1 0 0 437.00787401574797 0 0 -1 138.188976377953 0 0 1 I I #
point $-1 -166.73228346456699 0 437.00787401574797 #
face $-1 $221 $222 $27 $-1 $223 reversed single #
loop $-1 $-1 $224 $113 #
plane-surface $-1 -166.73228346456699 0 0 1 0 0 0 0 -1 forward_v I I I I #
coedge $-1 $225 $171 $226 $227 forward $114 $-1 #
coedge $-1 $228 $116 $225 $229 forward $78 $-1 #
coedge $-1 $116 $228 $230 $231 forward $78 $-1 #
coedge $-1 $174 $173 $116 $167 reversed $175 $-1 #
edge $-1 $232 -166.73228346456699 $233 166.73228346456699 $166 $234 forward 7 unknown #
coedge $-1 $118 $117 $235 $236 forward $53 $-1 #
coedge $-1 $237 $238 $117 $170 reversed $222 $-1 #
edge $-1 $177 -166.73228346456699 $239 166.73228346456699 $169 $240 forward 7 unknown #
coedge $-1 $163 $241 $118 $172 reversed $114 $-1 #
edge $-1 $242 -166.73228346456699 $176 166.73228346456699 $171 $243 forward 7 unknown #
coedge $-1 $166 $119 $241 $244 forward $175 $-1 #
coedge $-1 $119 $166 $237 $245 reversed $175 $-1 #
loop $-1 $-1 $173 $221 #
vertex $-1 $120 $246 #
vertex $-1 $120 $247 #
straight-curve $-1 166.73228346456699 0 63.582677165353999 0 1 0 I I #
coedge $-1 $179 $179 $124 $180 forward $121 $-1 #
edge $-1 $248 0 $248 6.2831853071795862 $179 $249 forward 7 unknown #
edge $-1 $250 1 $250 0 $125 $-1 forward 7 unknown #
vertex $-1 $127 $251 #
ellipse-curve $-1 0 0 4.9212598425194756 0 0 1 127.95275590551201 0 0 1 I I #
coedge $-1 $184 $184 $131 $185 forward $128 $-1 #
edge $-1 $252 0 $252 6.2831853071795862 $184 $253 forward 7 unknown #
vertex $-1 $132 $254 #
ellipse-curve $-1 0 0 -2.5590551181099954 0 0 -1 25.590551181102398 0 0 1 I I #
coedge $-1 $188 $188 $136 $189 forward $133 $-1 #
edge $-1 $255 0 $255 6.2831853071795862 $188 $256 forward 7 unknown #
vertex $-1 $137 $257 #
ellipse-curve $-1 0 0 -2.362204724409537 0 0 -1 44.488188976377899 0 0 1 I I #
face $-1 $258 $259 $35 $-1 $260 reversed single #
loop $-1 $-1 $261 $138 #
coedge $-1 $262 $263 $264 $265 reversed $139 $-1 #
coedge $-1 $203 $140 $266 $267 forward $97 $-1 #
coedge $-1 $268 $269 $140 $197 forward $270 $-1 #
edge $-1 $271 -3.1415926535897931 $205 -1.5707963267948968 $196 $272 forward 7 unknown #
coedge $-1 $142 $141 $273 $274 reversed $65 $-1 #
coedge $-1 $275 $276 $141 $200 forward $277 $-1 #
edge $-1 $278 1.2246063538223773e-016 $206 1.5707963267948968 $199 $279 forward 7 unknown #
coedge $-1 $280 $281 $142 $202 forward $282 $-1 #
edge $-1 $205 -1.5707963267948968 $283 -1.2246063538223773e-016 $201 $272 forward 7 unknown #
coedge $-1 $143 $195 $284 $285 reversed $97 $-1 #
coedge $-1 $286 $287 $288 $144 forward $289 $-1 #
vertex $-1 $290 $291 #
vertex $-1 $292 $293 #
straight-curve $-1 -1.8753139242864431e-030 166.73228346456699 -63.582677165354028 0 0 -1 I I #
model_id-kcp-attrib $-1 $-1 $-1 $146 1 987436658 140 -1148452863 7 #
face $294 $295 $296 $10 $-1 $297 reversed single #
cone-surface $-1 0 0 554.33070866141702 0 0 -1 -105.905511811024 0 0 1 I I 0.26530687838857803 0.96416402146092794 105.905511811024 forward I I I I #
coedge $-1 $211 $211 $298 $299 forward $147 $-1 #
coedge $-1 $212 $212 $150 $213 forward $149 $-1 #
edge $300 $301 0 $301 6.2831853071795862 $150 $302 forward 7 unknown #
attrib_edge_convexity-kcp-attrib $-1 $303 $-1 $151 1 #
vertex $-1 $151 $304 #
ellipse-curve $-1 0 0 427.16535433070902 0 0 -1 -127.95275590551201 0 0 1 I I #
convexity-sys-attrib $-1 $-1 $153 $108 #
point $-1 -127.95275590551201 0 437.00787401574797 #
loop $-1 $-1 $305 $146 #
point $-1 138.188976377953 0 437.00787401574797 #
face $-1 $-1 $175 $27 $-1 $306 reversed single #
loop $-1 $-1 $237 $160 #
plane-surface $-1 0 166.73228346456699 0 0 -1 0 0 0 -1 forward_v I I I I #
coedge $-1 $307 $235 $238 $308 forward $161 $-1 #
coedge $-1 $241 $163 $164 $229 reversed $114 $-1 #
coedge $-1 $235 $307 $163 $227 reversed $161 $-1 #
edge $-1 $242 -63.582677165353999 $309 63.582677165353999 $226 $310 forward 7 unknown #
coedge $-1 $165 $164 $307 $311 forward $78 $-1 #
edge $-1 $233 -166.73228346456699 $309 166.73228346456699 $225 $312 forward 7 unknown #
coedge $-1 $238 $237 $165 $231 reversed $222 $-1 #
edge $-1 $313 -166.73228346456699 $232 166.73228346456699 $230 $314 forward 7 unknown #
vertex $-1 $167 $315 #
vertex $-1 $244 $316 #
straight-curve $-1 166.73228346456699 0 -63.582677165353999 0 -1 0 I I #
coedge $-1 $224 $226 $168 $236 reversed $161 $-1 #
edge $-1 $239 -166.73228346456699 $242 166.73228346456699 $235 $317 forward 7 unknown #
coedge $-1 $230 $169 $174 $245 forward $222 $-1 #
coedge $-1 $169 $230 $224 $308 reversed $222 $-1 #
vertex $-1 $170 $318 #
straight-curve $-1 0 166.73228346456699 63.582677165353999 -1 0 0 I I #
coedge $-1 $171 $225 $173 $244 reversed $114 $-1 #
vertex $-1 $236 $319 #
straight-curve $-1 0 -166.73228346456699 63.582677165353999 1 0 0 I I #
edge $-1 $176 -63.582677165353999 $233 63.582677165353999 $173 $320 forward 7 unknown #
edge $-1 $177 -63.582677165353999 $232 63.582677165353999 $174 $321 forward 7 unknown #
point $-1 166.73228346456699 -166.73228346456699 63.582677165353999 #
point $-1 166.73228346456699 166.73228346456699 63.582677165353999 #
vertex $-1 $180 $322 #
ellipse-curve $-1 0 0 -4.9212598425194756 0 0 -1 127.95275590551201 0 0 1 I I #
vertex $-1 $181 $323 #
point $-1 127.95275590551201 0 4.9212598425194756 #
vertex $-1 $185 $324 #
ellipse-curve $-1 0 0 2.5590551181099954 0 0 1 25.590551181102398 0 0 1 I I #
point $-1 25.590551181102398 0 -2.5590551181099954 #
vertex $-1 $189 $325 #
ellipse-curve $-1 0 0 2.362204724409537 0 0 1 44.488188976377899 0 0 1 I I #
point $-1 44.488188976377899 0 -2.362204724409537 #
face $-1 $326 $289 $35 $-1 $327 reversed single #
loop $-1 $-1 $273 $192 #
plane-surface $-1 166.73228346456699 0 0 -1 0 0 0 0 1 forward_v I I I I #
coedge $-1 $266 $328 $329 $330 reversed $193 $-1 #
coedge $-1 $331 $194 $332 $333 reversed $139 $-1 #
coedge $-1 $194 $331 $198 $274 forward $139 $-1 #
coedge $-1 $334 $335 $194 $265 forward $336 $-1 #
edge $-1 $337 -1.5707963267948966 $278 1.2246063538223773e-016 $264 $279 forward 7 unknown #
coedge $-1 $338 $261 $339 $267 reversed $193 $-1 #
edge $-1 $271 -127.16535433070801 $340 -2.8421709430404007e-014 $339 $341 forward 7 unknown #
coedge $-1 $269 $196 $287 $290 forward $270 $-1 #
coedge $-1 $196 $268 $342 $343 forward $270 $-1 #
loop $-1 $-1 $196 $344 #
vertex $-1 $345 $346 #
ellipse-curve $-1 -1.8753139242864431e-030 0 63.582677165353999 0 0 -1 166.73228346456699 -2.0418141371802243e-014 0 1 I I #
coedge $-1 $347 $348 $349 $274 forward $259 $-1 #
edge $-1 $283 -127.16535433070801 $278 -2.8421709430404007e-014 $273 $350 forward 7 unknown #
coedge $-1 $276 $199 $351 $292 forward $277 $-1 #
coedge $-1 $199 $275 $347 $352 forward $277 $-1 #
loop $-1 $-1 $199 $353 #
vertex $-1 $354 $355 #
ellipse-curve $-1 -1.8753139242864431e-030 0 -63.582677165353999 0 0 1 166.73228346456699 -2.0418141371802243e-014 0 1 I I #
coedge $-1 $281 $201 $348 $356 forward $282 $-1 #
coedge $-1 $201 $280 $357 $358 forward $282 $-1 #
loop $-1 $-1 $201 $359 #
vertex $-1 $356 $360 #
coedge $-1 $361 $362 $203 $285 forward $363 $-1 #
edge $-1 $206 1.5707963267948968 $340 3.1415926535897931 $284 $279 forward 7 unknown #
coedge $-1 $364 $204 $362 $365 reversed $289 $-1 #
coedge $-1 $204 $364 $268 $290 reversed $289 $-1 #
coedge $-1 $357 $351 $98 $144 reversed $366 $-1 #
loop $-1 $-1 $204 $258 #
edge $-1 $205 1.8753139242864431e-030 $367 166.73228346456699 $287 $368 forward 7 unknown #
point $-1 -1.8753139242864431e-030 166.73228346456699 63.582677165353985 #
edge $-1 $206 -1.8753139242864431e-030 $369 166.73228346456699 $351 $370 forward 7 unknown #
point $-1 -1.8753139242864431e-030 166.73228346456699 -63.582677165353999 #
model_id-kcp-attrib $-1 $-1 $-1 $209 1 987436658 140 -1148452863 8 #
face $371 $372 $373 $10 $-1 $374 reversed single #
loop $375 $376 $377 $209 #
cone-surface $-1 6.2992125984251999 31.496062992125999 544.48818897637796 0 0 1 25.590551181102398 0 0 1 I I 0 1 25.590551181102398 forward I I I I #
coedge $-1 $298 $298 $211 $299 reversed $378 $-1 #
edge $-1 $379 0 $379 6.2831853071795862 $211 $380 forward 7 unknown #
attrib_edge_convexity-kcp-attrib $-1 $381 $-1 $213 1 #
vertex $-1 $213 $382 #
ellipse-curve $-1 0 0 427.16535433070902 0 0 1 166.73228346456699 0 0 1 I I #
convexity-sys-attrib $-1 $-1 $214 $151 #
point $-1 -127.95275590551201 0 427.16535433070902 #
coedge $-1 $305 $305 $383 $384 forward $219 $-1 #
plane-surface $-1 166.73228346456699 0 0 -1 0 0 0 0 1 forward_v I I I I #
coedge $-1 $226 $224 $228 $311 reversed $161 $-1 #
edge $-1 $239 -63.582677165353999 $313 63.582677165353999 $238 $385 forward 7 unknown #
vertex $-1 $311 $386 #
straight-curve $-1 -166.73228346456699 -166.73228346456699 0 0 0 -1 I I #
edge $-1 $309 -166.73228346456699 $313 166.73228346456699 $307 $387 forward 7 unknown #
straight-curve $-1 0 -166.73228346456699 -63.582677165353999 -1 0 0 I I #
vertex $-1 $231 $388 #
straight-curve $-1 0 166.73228346456699 -63.582677165353999 1 0 0 I I #
point $-1 166.73228346456699 166.73228346456699 -63.582677165353999 #
point $-1 166.73228346456699 -166.73228346456699 -63.582677165353999 #
straight-curve $-1 -166.73228346456699 0 63.582677165353999 0 -1 0 I I #
point $-1 -166.73228346456699 166.73228346456699 63.582677165353999 #
point $-1 -166.73228346456699 -166.73228346456699 63.582677165353999 #
straight-curve $-1 166.73228346456699 -166.73228346456699 0 0 0 -1 I I #
straight-curve $-1 166.73228346456699 166.73228346456699 0 0 0 -1 I I #
point $-1 127.95275590551201 0 -4.9212598425194756 #
point $-1 0 0 469.92029959669571 #
point $-1 25.590551181102398 0 2.5590551181099954 #
point $-1 44.488188976377899 0 2.362204724409537 #
face $-1 $389 $390 $35 $-1 $391 reversed single #
plane-surface $-1 0 166.73228346456699 0 0 -1 0 0 0 -1 forward_v I I I I #
coedge $-1 $261 $338 $262 $333 forward $193 $-1 #
coedge $-1 $392 $393 $261 $330 forward $394 $-1 #
edge $-1 $340 -3.1415926535897931 $337 -1.5707963267948966 $329 $279 forward 7 unknown #
coedge $-1 $263 $262 $395 $396 reversed $139 $-1 #
coedge $-1 $397 $398 $399 $333 forward $400 $-1 #
edge $-1 $401 -127.16535433070801 $337 -2.8421709430404007e-014 $332 $402 forward 7 unknown #
coedge $-1 $335 $264 $403 $354 forward $336 $-1 #
coedge $-1 $264 $334 $397 $404 forward $336 $-1 #
loop $-1 $-1 $264 $405 #
vertex $-1 $406 $407 #
coedge $-1 $328 $266 $408 $409 reversed $193 $-1 #
coedge $-1 $410 $411 $412 $267 forward $390 $-1 #
vertex $-1 $413 $414 #
straight-curve $-1 -166.73228346456699 0 -63.582677165354028 0 0 -1 I I #
coedge $-1 $415 $412 $269 $343 reversed $416 $-1 #
edge $-1 $367 -166.73228346456699 $271 0 $342 $417 forward 7 unknown #
face $-1 $359 $270 $35 $-1 $418 forward single #
edge $-1 $271 0 $419 166.73228346456699 $411 $417 forward 7 unknown #
point $-1 -166.73228346456699 0 63.582677165353985 #
coedge $-1 $420 $273 $276 $352 reversed $259 $-1 #
coedge $-1 $273 $420 $280 $356 reversed $259 $-1 #
coedge $-1 $421 $403 $263 $274 reversed $422 $-1 #
straight-curve $-1 166.73228346456699 0 -63.582677165354028 0 0 -1 I I #
coedge $-1 $288 $423 $275 $292 reversed $366 $-1 #
edge $-1 $369 -166.73228346456699 $278 0 $347 $424 forward 7 unknown #
face $-1 $425 $277 $35 $-1 $426 reversed single #
edge $-1 $278 0 $427 166.73228346456699 $403 $424 forward 7 unknown #
point $-1 166.73228346456699 0 -63.582677165353999 #
edge $-1 $283 0 $428 166.73228346456699 $348 $429 forward 7 unknown #
coedge $-1 $423 $288 $281 $358 reversed $366 $-1 #
edge $-1 $428 -166.73228346456699 $205 1.8753139242864431e-030 $357 $368 forward 7 unknown #
face $-1 $430 $282 $35 $-1 $418 forward single #
point $-1 166.73228346456699 0 63.582677165353985 #
coedge $-1 $362 $284 $431 $413 forward $363 $-1 #
coedge $-1 $284 $361 $286 $365 forward $363 $-1 #
loop $-1 $-1 $284 $425 #
coedge $-1 $287 $286 $415 $432 reversed $289 $-1 #
edge $-1 $433 -166.73228346456699 $206 -1.8753139242864431e-030 $286 $370 forward 7 unknown #
loop $-1 $-1 $288 $434 #
vertex $-1 $290 $435 #
straight-curve $-1 0 166.73228346456699 63.582677165353999 -1 0 0 I I #
vertex $-1 $352 $436 #
straight-curve $-1 0 166.73228346456699 -63.582677165353999 1 0 0 I I #
model_id-kcp-attrib $-1 $-1 $-1 $295 1 987436658 140 -1148452863 9 #
face $437 $438 $439 $10 $-1 $440 reversed single #
loop $-1 $441 $442 $295 #
plane-surface $-1 6.2992125984251999 31.496062992125999 549.21259842519703 0 0 1 1 0 0 forward_v I I I I #
model_id-kcp-attrib $-1 $-1 $-1 $296 1 987436658 140 -1148452863 15 #
loop $443 $-1 $444 $209 #
coedge $-1 $377 $377 $445 $446 forward $296 $-1 #
loop $-1 $447 $298 $448 #
vertex $-1 $299 $449 #
ellipse-curve $-1 0 0 544.48818897637796 0 0 1 -98.377635681445895 0 0 1 I I #
convexity-sys-attrib $-1 $-1 $300 $213 #
point $-1 166.73228346456699 0 427.16535433070902 #
coedge $-1 $383 $383 $305 $384 reversed $450 $-1 #
edge $-1 $451 0 $451 6.2831853071795862 $305 $452 forward 7 unknown #
straight-curve $-1 -166.73228346456699 166.73228346456699 0 0 0 -1 I I #
point $-1 -166.73228346456699 -166.73228346456699 -63.582677165353999 #
straight-curve $-1 -166.73228346456699 0 -63.582677165353999 0 1 0 I I #
point $-1 -166.73228346456699 166.73228346456699 -63.582677165353999 #
face $-1 $344 $453 $35 $-1 $418 forward single #
loop $-1 $-1 $339 $326 #
plane-surface $-1 -166.73228346456699 0 0 1 0 0 0 0 -1 forward_v I I I I #
coedge $-1 $393 $329 $454 $406 forward $394 $-1 #
coedge $-1 $329 $392 $410 $455 forward $394 $-1 #
loop $-1 $-1 $329 $456 #
coedge $-1 $457 $458 $331 $396 forward $459 $-1 #
edge $-1 $283 -1.2246063538223773e-016 $401 1.5707963267948966 $395 $272 forward 7 unknown #
coedge $-1 $460 $332 $335 $404 reversed $400 $-1 #
coedge $-1 $332 $460 $457 $461 reversed $400 $-1 #
coedge $-1 $462 $454 $328 $333 reversed $463 $-1 #
loop $-1 $-1 $332 $464 #
vertex $-1 $461 $465 #
straight-curve $-1 -1.8753139242864431e-030 -166.73228346456699 -63.582677165354028 0 0 -1 I I #
coedge $-1 $349 $466 $334 $354 reversed $422 $-1 #
edge $-1 $427 -166.73228346456699 $337 1.8753139242864431e-030 $397 $467 forward 7 unknown #
face $-1 $353 $336 $35 $-1 $426 reversed single #
edge $-1 $337 1.8753139242864431e-030 $468 166.73228346456699 $454 $467 forward 7 unknown #
point $-1 -1.8753139242864431e-030 -166.73228346456699 -63.582677165353999 #
coedge $-1 $469 $470 $338 $409 forward $453 $-1 #
edge $-1 $401 1.5707963267948966 $271 3.1415926535897931 $408 $272 forward 7 unknown #
coedge $-1 $471 $339 $393 $455 reversed $390 $-1 #
coedge $-1 $339 $471 $469 $345 reversed $390 $-1 #
coedge $-1 $342 $431 $195 $267 reversed $416 $-1 #
edge $-1 $340 0 $433 166.73228346456699 $431 $472 forward 7 unknown #
point $-1 -166.73228346456699 0 -63.582677165353999 #
coedge $-1 $431 $342 $364 $432 forward $416 $-1 #
loop $-1 $-1 $412 $473 #
straight-curve $-1 -166.73228346456699 0 63.582677165353999 0 -1 0 I I #
plane-surface $-1 0 0 63.582677165353999 0 0 1 1 0 0 forward_v I I I I #
vertex $-1 $345 $474 #
coedge $-1 $348 $347 $423 $475 reversed $259 $-1 #
coedge $-1 $466 $349 $458 $476 reversed $422 $-1 #
loop $-1 $-1 $349 $477 #
coedge $-1 $351 $357 $420 $475 forward $366 $-1 #
straight-curve $-1 166.73228346456699 0 -63.582677165353999 0 -1 0 I I #
face $-1 $478 $363 $35 $-1 $426 reversed single #
plane-surface $-1 0 0 -63.582677165353999 0 0 1 1 0 0 forward_v I I I I #
vertex $-1 $479 $480 #
vertex $-1 $356 $481 #
straight-curve $-1 166.73228346456699 0 63.582677165353999 0 1 0 I I #
face $-1 $464 $459 $35 $-1 $418 forward single #
coedge $-1 $412 $415 $361 $413 reversed $416 $-1 #
edge $-1 $367 -63.582677165353999 $433 63.582677165353999 $364 $482 forward 7 unknown #
vertex $-1 $365 $483 #
face $-1 $477 $366 $35 $-1 $327 reversed single #
point $-1 -166.73228346456699 166.73228346456699 63.582677165353999 #
point $-1 166.73228346456699 166.73228346456699 -63.582677165353999 #
model_id-kcp-attrib $-1 $-1 $-1 $372 1 987436658 140 -1148452863 10 #
face $484 $448 $485 $10 $-1 $486 forward single #
loop $-1 $487 $488 $372 #
cone-surface $-1 6.2992125984251999 31.496062992125999 544.48818897637796 0 0 1 44.488188976377899 0 0 1 I I 0 1 44.488188976377899 forward I I I I #
loop $489 $-1 $445 $295 #
coedge $-1 $442 $442 $488 $490 forward $373 $-1 #
model_id-kcp-attrib $-1 $-1 $-1 $376 1 987436658 140 -1148452863 16 #
coedge $-1 $444 $444 $491 $492 forward $376 $-1 #
coedge $-1 $445 $445 $377 $446 reversed $441 $-1 #
edge $493 $494 0 $494 6.2831853071795862 $377 $495 forward 7 unknown #
loop $-1 $-1 $496 $448 #
face $497 $-1 $378 $10 $-1 $498 forward single #
point $-1 -98.377635681445895 0 544.48818897637796 #
loop $-1 $-1 $383 $438 #
vertex $-1 $384 $499 #
ellipse-curve $-1 0 0 554.33070866141702 0 0 -1 -105.905511811024 0 0 1 I I #
loop $-1 $-1 $408 $389 #
coedge $-1 $399 $500 $392 $406 reversed $463 $-1 #
edge $-1 $468 -166.73228346456699 $340 0 $410 $472 forward 7 unknown #
face $-1 $405 $394 $35 $-1 $426 reversed single #
coedge $-1 $458 $395 $398 $461 forward $459 $-1 #
coedge $-1 $395 $457 $421 $476 forward $459 $-1 #
loop $-1 $-1 $395 $430 #
coedge $-1 $398 $397 $466 $479 reversed $400 $-1 #
edge $-1 $401 -1.8753139242864431e-030 $501 166.73228346456699 $398 $502 forward 7 unknown #
coedge $-1 $500 $399 $470 $503 reversed $463 $-1 #
loop $-1 $-1 $399 $478 #
face $-1 $456 $400 $35 $-1 $504 reversed single #
point $-1 -1.8753139242864431e-030 -166.73228346456699 63.582677165353985 #
coedge $-1 $403 $421 $460 $479 forward $422 $-1 #
straight-curve $-1 0 -166.73228346456699 -63.582677165353999 -1 0 0 I I #
vertex $-1 $455 $505 #
coedge $-1 $470 $408 $411 $345 forward $453 $-1 #
coedge $-1 $408 $469 $462 $503 forward $453 $-1 #
coedge $-1 $411 $410 $500 $506 reversed $390 $-1 #
straight-curve $-1 -166.73228346456699 0 -63.582677165353999 0 1 0 I I #
face $-1 $434 $416 $35 $-1 $391 reversed single #
point $-1 -166.73228346456699 -166.73228346456699 63.582677165353999 #
edge $-1 $428 -63.582677165353999 $369 63.582677165353999 $420 $507 forward 7 unknown #
edge $-1 $501 -166.73228346456699 $283 0 $421 $429 forward 7 unknown #
face $-1 $-1 $422 $35 $-1 $260 reversed single #
face $-1 $473 $463 $35 $-1 $504 reversed single #
edge $-1 $501 -63.582677165353999 $427 63.582677165353999 $466 $508 forward 7 unknown #
point $-1 166.73228346456699 -166.73228346456699 -63.582677165353999 #
point $-1 166.73228346456699 166.73228346456699 63.582677165353999 #
straight-curve $-1 -166.73228346456699 166.73228346456699 0 0 0 -1 I I #
point $-1 -166.73228346456699 166.73228346456699 -63.582677165353999 #
model_id-kcp-attrib $-1 $509 $-1 $438 1 987436658 140 -1148452863 14 #
loop $510 $450 $491 $438 #
plane-surface $-1 0 0 554.33070866141702 0 0 1 1 0 0 forward_v I I I I #
loop $-1 $-1 $511 $372 #
coedge $-1 $488 $488 $442 $490 reversed $439 $-1 #
model_id-kcp-attrib $-1 $-1 $-1 $441 1 987436658 140 -1148452863 17 #
edge $512 $513 0 $513 6.2831853071795862 $442 $514 forward 7 unknown #
coedge $-1 $491 $491 $444 $492 reversed $485 $-1 #
edge $515 $516 0 $516 6.2831853071795862 $444 $517 forward 7 unknown #
attrib_edge_convexity-kcp-attrib $-1 $518 $-1 $446 1 #
vertex $519 $446 $520 #
ellipse-curve $-1 6.2992125984251999 31.496062992125999 549.21259842519703 0 0 -1 25.590551181102398 0 0 1 I I #
coedge $-1 $496 $496 $511 $521 reversed $447 $-1 #
model_id-kcp-attrib $-1 $-1 $-1 $448 1 987436658 140 -1148452863 12 #
plane-surface $-1 0 0 544.48818897637796 0 0 -1 -1 0 0 forward_v I I I I #
point $-1 -105.905511811024 0 554.33070866141702 #
coedge $-1 $454 $462 $471 $506 forward $463 $-1 #
vertex $-1 $476 $522 #
straight-curve $-1 0 -166.73228346456699 63.582677165353999 1 0 0 I I #
edge $-1 $419 -166.73228346456699 $401 -1.8753139242864431e-030 $462 $502 forward 7 unknown #
plane-surface $-1 0 -166.73228346456699 0 0 1 0 0 0 1 forward_v I I I I #
point $-1 -166.73228346456699 -166.73228346456699 -63.582677165353999 #
edge $-1 $419 -63.582677165353999 $468 63.582677165353999 $471 $523 forward 7 unknown #
straight-curve $-1 166.73228346456699 166.73228346456699 0 0 0 -1 I I #
straight-curve $-1 166.73228346456699 -166.73228346456699 0 0 0 -1 I I #
model_id-kcp-attrib $-1 $-1 $484 $438 1 987436658 140 -1148452863 11 #
model_id-kcp-attrib $-1 $-1 $-1 $485 1 987436658 140 -1148452863 18 #
coedge $-1 $511 $511 $496 $521 forward $487 $-1 #
attrib_edge_convexity-kcp-attrib $-1 $524 $-1 $490 2 #
vertex $-1 $490 $525 #
ellipse-curve $-1 6.2992125984251999 31.496062992125999 549.21259842519703 0 0 -1 -44.488188976377899 0 0 1 I I #
attrib_edge_convexity-kcp-attrib $-1 $526 $-1 $492 1 #
vertex $527 $492 $528 #
ellipse-curve $-1 6.2992125984251999 31.496062992125999 554.33070866141702 0 0 1 25.590551181102398 0 0 1 I I #
convexity-sys-attrib $-1 $-1 $493 $446 #
model_id-kcp-attrib $-1 $-1 $-1 $494 1 987436658 140 -1148452863 19 #
point $-1 31.889763779527598 31.496062992125999 549.21259842519703 #
edge $529 $530 0 $530 6.2831853071795862 $511 $531 forward 7 unknown #
point $-1 166.73228346456699 -166.73228346456699 63.582677165353999 #
straight-curve $-1 -166.73228346456699 -166.73228346456699 0 0 0 -1 I I #
convexity-sys-attrib $-1 $-1 $512 $490 #
point $-1 -38.188976377952699 31.496062992125999 549.21259842519703 #
convexity-sys-attrib $-1 $-1 $515 $492 #
model_id-kcp-attrib $-1 $-1 $-1 $516 1 987436658 140 -1148452863 20 #
point $-1 31.889763779527598 31.496062992125999 554.33070866141702 #
attrib_edge_convexity-kcp-attrib $-1 $532 $-1 $521 1 #
vertex $-1 $521 $533 #
ellipse-curve $-1 6.2992125984251999 31.496062992125999 544.48818897637796 0 0 -1 -44.488188976377899 0 0 1 I I #
convexity-sys-attrib $-1 $-1 $529 $521 #
point $-1 -38.188976377952699 31.496062992125999 544.48818897637796 #
End-of-ACIS-data 