700 0 2 0           
24 FBMach with ACIS - 7.0.3 13 ACIS 7.0.3 NT 24 Tue May 14 14:19:34 2002 
1 9.9999999999999995e-007 1e-010 
body $2 -1 $-1 $3 $-1 $4 #
bdycol-kcp $-1 -1 1 2 $5 $6 #
model_id-kcp-attrib $-1 -1 $-1 $-1 $0 1 1021400374 1021400374 -601751551 1 #
lump $-1 -1 $-1 $-1 $7 $0 #
transform $-1 -1 1 0 0 0 1 0 0 0 1 0 0 0 1 rotate no_reflect no_shear #
body $8 -1 $-1 $9 $-1 $10 #
body $11 -1 $-1 $12 $-1 $13 #
shell $-1 -1 $-1 $-1 $-1 $14 $-1 $3 #
model_id-kcp-attrib $-1 -1 $-1 $-1 $5 1 1021400374 1021400374 -601751550 1 #
lump $-1 -1 $-1 $-1 $15 $5 #
transform $-1 -1 1 0 0 0 1 0 0 0 1 0 0 0.39000000000000001 1 no_rotate no_reflect no_shear #
rgb_color-st-attrib $-1 -1 $16 $-1 $6 0.5 1 1 #
lump $-1 -1 $-1 $-1 $17 $6 #
transform $-1 -1 1 0 0 0 1 0 0 0 1 0 0 0.39000000000000001 1 no_rotate no_reflect no_shear #
face $18 -1 $-1 $19 $20 $7 $-1 $21 reversed single #
shell $-1 -1 $-1 $-1 $-1 $22 $-1 $9 #
model_id-kcp-attrib $-1 -1 $-1 $11 $6 1 1021400374 1021400374 -599785469 1 #
shell $-1 -1 $-1 $-1 $-1 $23 $-1 $12 #
model_id-kcp-attrib $-1 -1 $-1 $-1 $14 1 1021400374 1021400374 -601751551 2 #
face $24 -1 $-1 $25 $26 $7 $-1 $27 forward single #
loop $-1 -1 $-1 $-1 $28 $14 #
plane-surface $-1 -1 $-1 0 0 0 0 0 1 1 0 0 forward_v I I I I #
face $29 -1 $-1 $30 $31 $15 $-1 $32 forward single #
face $-1 -1 $-1 $33 $34 $17 $-1 $35 reversed single #
model_id-kcp-attrib $-1 -1 $-1 $-1 $19 1 1021400374 1021400374 -601751551 3 #
face $36 -1 $-1 $-1 $37 $7 $-1 $38 forward single #
loop $-1 -1 $-1 $-1 $39 $19 #
plane-surface $-1 -1 $-1 0 0 0.78000000000000003 0 0 1 1 0 0 forward_v I I I I #
coedge $-1 -1 $-1 $28 $28 $40 $41 forward $20 $-1 #
model_id-kcp-attrib $-1 -1 $-1 $-1 $22 1 1021400374 1021400374 -601751550 3 #
face $42 -1 $-1 $43 $44 $15 $-1 $45 reversed single #
loop $-1 -1 $-1 $-1 $46 $22 #
plane-surface $-1 -1 $-1 0 0 0.39000000000000001 0 0 1 1 0 0 forward_v I I I I #
face $-1 -1 $-1 $47 $48 $17 $-1 $35 reversed single #
loop $-1 -1 $-1 $-1 $49 $23 #
cone-surface $-1 -1 $-1 -1.1191218136597701e-032 0 -0.39000000000000001 0 0 -1 2.9849999999999999 0 0 1 I I 0 1 2.9849999999999999 forward I I I I #
model_id-kcp-attrib $-1 -1 $-1 $-1 $25 1 1021400374 1021400374 -601751551 4 #
loop $-1 -1 $-1 $50 $51 $25 #
cone-surface $-1 -1 $-1 0 0 0 0 0 1 2.9849999999999999 0 0 1 I I 0 1 2.9849999999999999 forward I I I I #
coedge $-1 -1 $-1 $39 $39 $51 $52 reversed $26 $-1 #
coedge $-1 -1 $-1 $40 $40 $28 $41 reversed $50 $-1 #
edge $53 -1 $-1 $54 -3.1415926535897931 $54 3.1415926535897931 $40 $55 forward @7 unknown #
model_id-kcp-attrib $-1 -1 $-1 $-1 $30 1 1021400374 1021400374 -601751550 2 #
face $-1 -1 $-1 $56 $57 $15 $-1 $58 reversed single #
loop $-1 -1 $-1 $-1 $59 $30 #
plane-surface $-1 -1 $-1 0 0 -0.39000000000000001 0 0 1 1 0 0 forward_v I I I I #
coedge $-1 -1 $-1 $60 $61 $62 $63 forward $31 $-1 #
face $-1 -1 $-1 $64 $65 $17 $-1 $35 reversed single #
loop $-1 -1 $-1 $-1 $66 $33 #
coedge $-1 -1 $-1 $67 $68 $69 $70 forward $34 $-1 #
loop $-1 -1 $-1 $-1 $40 $25 #
coedge $-1 -1 $-1 $51 $51 $39 $52 forward $37 $-1 #
edge $-1 -1 $-1 $71 0 $71 6.2831853071795862 $51 $72 forward @7 unknown #
attrib_edge_convexity-kcp-attrib $-1 -1 $73 $-1 $41 1 #
vertex $-1 -1 $-1 $41 $74 #
ellipse-curve $-1 -1 $-1 0 0 0 0 0 -1 -2.9849999999999999 0 0 1 I I #
face $-1 -1 $-1 $75 $76 $15 $-1 $77 reversed single #
loop $-1 -1 $-1 $-1 $78 $43 #
plane-surface $-1 -1 $-1 0 -2.9849999999999999 0 0 1 0 0 0 1 forward_v I I I I #
coedge $-1 -1 $-1 $79 $80 $81 $82 forward $44 $-1 #
coedge $-1 -1 $-1 $83 $46 $84 $85 forward $31 $-1 #
coedge $-1 -1 $-1 $46 $83 $86 $87 forward $31 $-1 #
coedge $-1 -1 $-1 $88 $89 $46 $63 reversed $90 $-1 #
edge $-1 -1 $-1 $91 -2.9849999999999999 $92 2.9849999999999999 $62 $93 forward @7 unknown #
face $-1 -1 $-1 $94 $95 $17 $-1 $35 reversed single #
loop $-1 -1 $-1 $-1 $96 $47 #
coedge $-1 -1 $-1 $97 $69 $98 $99 reversed $48 $-1 #
coedge $-1 -1 $-1 $100 $49 $101 $102 reversed $34 $-1 #
coedge $-1 -1 $-1 $49 $100 $103 $104 reversed $34 $-1 #
coedge $-1 -1 $-1 $66 $105 $106 $70 reversed $48 $-1 #
edge $-1 -1 $-1 $107 -0.78000000000000003 $108 0 $106 $109 forward @7 unknown #
vertex $-1 -1 $-1 $52 $110 #
ellipse-curve $-1 -1 $-1 0 0 0.78000000000000003 0 0 -1 2.9849999999999999 0 0 1 I I #
convexity-sys-attrib $-1 -1 $-1 $53 $41 #
point $-1 -1 $-1 2.9849999999999999 0 0 #
face $-1 -1 $-1 $111 $112 $15 $-1 $113 reversed single #
loop $-1 -1 $-1 $-1 $114 $56 #
plane-surface $-1 -1 $-1 -2.9849999999999999 0 0 1 0 0 0 0 -1 forward_v I I I I #
coedge $-1 -1 $-1 $115 $86 $116 $117 forward $57 $-1 #
coedge $-1 -1 $-1 $118 $59 $115 $119 forward $44 $-1 #
coedge $-1 -1 $-1 $59 $118 $120 $121 forward $44 $-1 #
coedge $-1 -1 $-1 $89 $88 $59 $82 reversed $90 $-1 #
edge $-1 -1 $-1 $122 -2.9849999999999999 $123 2.9849999999999999 $81 $124 forward @7 unknown #
coedge $-1 -1 $-1 $61 $60 $125 $126 forward $31 $-1 #
coedge $-1 -1 $-1 $127 $128 $60 $85 reversed $112 $-1 #
edge $-1 -1 $-1 $92 -2.9849999999999999 $129 2.9849999999999999 $84 $130 forward @7 unknown #
coedge $-1 -1 $-1 $78 $131 $61 $87 reversed $57 $-1 #
edge $-1 -1 $-1 $132 -2.9849999999999999 $91 2.9849999999999999 $86 $133 forward @7 unknown #
coedge $-1 -1 $-1 $81 $62 $131 $134 forward $90 $-1 #
coedge $-1 -1 $-1 $62 $81 $127 $135 reversed $90 $-1 #
loop $-1 -1 $-1 $-1 $88 $111 #
vertex $-1 -1 $-1 $63 $136 #
vertex $-1 -1 $-1 $63 $137 #
straight-curve $-1 -1 $-1 2.9849999999999999 0 0.39000000000000001 0 1 0 I I #
face $-1 -1 $-1 $138 $139 $17 $-1 $140 reversed single #
loop $-1 -1 $-1 $-1 $141 $64 #
coedge $-1 -1 $-1 $142 $143 $144 $145 reversed $65 $-1 #
coedge $-1 -1 $-1 $105 $66 $146 $147 forward $48 $-1 #
coedge $-1 -1 $-1 $148 $149 $66 $99 forward $150 $-1 #
edge $-1 -1 $-1 $151 -3.1415926535897931 $107 -1.5707963267948966 $98 $152 forward @7 unknown #
coedge $-1 -1 $-1 $68 $67 $153 $154 reversed $34 $-1 #
coedge $-1 -1 $-1 $155 $156 $67 $102 forward $157 $-1 #
edge $-1 -1 $-1 $158 0 $108 1.5707963267948966 $101 $159 forward @7 unknown #
coedge $-1 -1 $-1 $160 $161 $68 $104 forward $162 $-1 #
edge $-1 -1 $-1 $107 -1.5707963267948966 $163 0 $103 $152 forward @7 unknown #
coedge $-1 -1 $-1 $69 $97 $164 $165 reversed $48 $-1 #
coedge $-1 -1 $-1 $166 $167 $168 $70 forward $169 $-1 #
vertex $-1 -1 $-1 $170 $171 #
vertex $-1 -1 $-1 $172 $173 #
straight-curve $-1 -1 $-1 -1.1191218136597701e-032 2.9849999999999999 -0.39000000000000001 0 0 -1 I I #
point $-1 -1 $-1 2.9849999999999999 0 0.78000000000000003 #
face $-1 -1 $-1 $-1 $90 $15 $-1 $174 reversed single #
loop $-1 -1 $-1 $-1 $127 $75 #
plane-surface $-1 -1 $-1 0 2.9849999999999999 0 0 -1 0 0 0 -1 forward_v I I I I #
coedge $-1 -1 $-1 $175 $125 $128 $176 forward $76 $-1 #
coedge $-1 -1 $-1 $131 $78 $79 $119 reversed $57 $-1 #
coedge $-1 -1 $-1 $125 $175 $78 $117 reversed $76 $-1 #
edge $-1 -1 $-1 $132 -0.39000000000000001 $177 0.39000000000000001 $116 $178 forward @7 unknown #
coedge $-1 -1 $-1 $80 $79 $175 $179 forward $44 $-1 #
edge $-1 -1 $-1 $123 -2.9849999999999999 $177 2.9849999999999999 $115 $180 forward @7 unknown #
coedge $-1 -1 $-1 $128 $127 $80 $121 reversed $112 $-1 #
edge $-1 -1 $-1 $181 -2.9849999999999999 $122 2.9849999999999999 $120 $182 forward @7 unknown #
vertex $-1 -1 $-1 $82 $183 #
vertex $-1 -1 $-1 $134 $184 #
straight-curve $-1 -1 $-1 2.9849999999999999 0 -0.39000000000000001 0 -1 0 I I #
coedge $-1 -1 $-1 $114 $116 $83 $126 reversed $76 $-1 #
edge $-1 -1 $-1 $129 -2.9849999999999999 $132 2.9849999999999999 $125 $185 forward @7 unknown #
coedge $-1 -1 $-1 $120 $84 $89 $135 forward $112 $-1 #
coedge $-1 -1 $-1 $84 $120 $114 $176 reversed $112 $-1 #
vertex $-1 -1 $-1 $85 $186 #
straight-curve $-1 -1 $-1 0 2.9849999999999999 0.39000000000000001 -1 0 0 I I #
coedge $-1 -1 $-1 $86 $115 $88 $134 reversed $57 $-1 #
vertex $-1 -1 $-1 $126 $187 #
straight-curve $-1 -1 $-1 0 -2.9849999999999999 0.39000000000000001 1 0 0 I I #
edge $-1 -1 $-1 $91 -0.39000000000000001 $123 0.39000000000000001 $88 $188 forward @7 unknown #
edge $-1 -1 $-1 $92 -0.39000000000000001 $122 0.39000000000000001 $89 $189 forward @7 unknown #
point $-1 -1 $-1 2.9849999999999999 -2.9849999999999999 0.39000000000000001 #
point $-1 -1 $-1 2.9849999999999999 2.9849999999999999 0.39000000000000001 #
face $-1 -1 $-1 $190 $169 $17 $-1 $191 reversed single #
loop $-1 -1 $-1 $-1 $153 $94 #
plane-surface $-1 -1 $-1 2.9849999999999999 0 0 -1 0 0 0 0 1 forward_v I I I I #
coedge $-1 -1 $-1 $146 $192 $193 $194 reversed $95 $-1 #
coedge $-1 -1 $-1 $195 $96 $196 $197 reversed $65 $-1 #
coedge $-1 -1 $-1 $96 $195 $100 $154 forward $65 $-1 #
coedge $-1 -1 $-1 $198 $199 $96 $145 forward $200 $-1 #
edge $-1 -1 $-1 $201 -1.5707963267948966 $158 0 $144 $159 forward @7 unknown #
coedge $-1 -1 $-1 $202 $141 $203 $147 reversed $95 $-1 #
edge $-1 -1 $-1 $151 -0.78000000000000003 $204 0 $203 $205 forward @7 unknown #
coedge $-1 -1 $-1 $149 $98 $167 $170 forward $150 $-1 #
coedge $-1 -1 $-1 $98 $148 $206 $207 forward $150 $-1 #
loop $-1 -1 $-1 $-1 $98 $208 #
vertex $-1 -1 $-1 $209 $210 #
ellipse-curve $-1 -1 $-1 -1.1191218136597701e-032 0 0.39000000000000001 0 0 -1 2.9849999999999999 0 0 1 I I #
coedge $-1 -1 $-1 $211 $212 $213 $154 forward $139 $-1 #
edge $-1 -1 $-1 $163 -0.78000000000000003 $158 0 $153 $214 forward @7 unknown #
coedge $-1 -1 $-1 $156 $101 $215 $172 forward $157 $-1 #
coedge $-1 -1 $-1 $101 $155 $211 $216 forward $157 $-1 #
loop $-1 -1 $-1 $-1 $101 $217 #
vertex $-1 -1 $-1 $218 $219 #
ellipse-curve $-1 -1 $-1 -1.1191218136597701e-032 0 -0.39000000000000001 0 0 1 2.9849999999999999 0 0 1 I I #
coedge $-1 -1 $-1 $161 $103 $212 $220 forward $162 $-1 #
coedge $-1 -1 $-1 $103 $160 $221 $222 forward $162 $-1 #
loop $-1 -1 $-1 $-1 $103 $223 #
vertex $-1 -1 $-1 $220 $224 #
coedge $-1 -1 $-1 $225 $226 $105 $165 forward $227 $-1 #
edge $-1 -1 $-1 $108 1.5707963267948966 $204 3.1415926535897931 $164 $159 forward @7 unknown #
coedge $-1 -1 $-1 $228 $106 $226 $229 reversed $169 $-1 #
coedge $-1 -1 $-1 $106 $228 $148 $170 reversed $169 $-1 #
coedge $-1 -1 $-1 $221 $215 $49 $70 reversed $230 $-1 #
loop $-1 -1 $-1 $-1 $106 $138 #
edge $-1 -1 $-1 $107 1.1191218136597701e-032 $231 2.9849999999999999 $167 $232 forward @7 unknown #
point $-1 -1 $-1 -1.1191218136597701e-032 2.9849999999999999 0.39000000000000001 #
edge $-1 -1 $-1 $108 -1.1191218136597701e-032 $233 2.9849999999999999 $215 $234 forward @7 unknown #
point $-1 -1 $-1 -1.1191218136597701e-032 2.9849999999999999 -0.39000000000000001 #
plane-surface $-1 -1 $-1 2.9849999999999999 0 0 -1 0 0 0 0 1 forward_v I I I I #
coedge $-1 -1 $-1 $116 $114 $118 $179 reversed $76 $-1 #
edge $-1 -1 $-1 $129 -0.39000000000000001 $181 0.39000000000000001 $128 $235 forward @7 unknown #
vertex $-1 -1 $-1 $179 $236 #
straight-curve $-1 -1 $-1 -2.9849999999999999 -2.9849999999999999 0 0 0 -1 I I #
edge $-1 -1 $-1 $177 -2.9849999999999999 $181 2.9849999999999999 $175 $237 forward @7 unknown #
straight-curve $-1 -1 $-1 0 -2.9849999999999999 -0.39000000000000001 -1 0 0 I I #
vertex $-1 -1 $-1 $121 $238 #
straight-curve $-1 -1 $-1 0 2.9849999999999999 -0.39000000000000001 1 0 0 I I #
point $-1 -1 $-1 2.9849999999999999 2.9849999999999999 -0.39000000000000001 #
point $-1 -1 $-1 2.9849999999999999 -2.9849999999999999 -0.39000000000000001 #
straight-curve $-1 -1 $-1 -2.9849999999999999 0 0.39000000000000001 0 -1 0 I I #
point $-1 -1 $-1 -2.9849999999999999 2.9849999999999999 0.39000000000000001 #
point $-1 -1 $-1 -2.9849999999999999 -2.9849999999999999 0.39000000000000001 #
straight-curve $-1 -1 $-1 2.9849999999999999 -2.9849999999999999 0 0 0 -1 I I #
straight-curve $-1 -1 $-1 2.9849999999999999 2.9849999999999999 0 0 0 -1 I I #
face $-1 -1 $-1 $239 $240 $17 $-1 $241 reversed single #
plane-surface $-1 -1 $-1 0 2.9849999999999999 0 0 -1 0 0 0 -1 forward_v I I I I #
coedge $-1 -1 $-1 $141 $202 $142 $197 forward $95 $-1 #
coedge $-1 -1 $-1 $242 $243 $141 $194 forward $244 $-1 #
edge $-1 -1 $-1 $204 -3.1415926535897931 $201 -1.5707963267948966 $193 $159 forward @7 unknown #
coedge $-1 -1 $-1 $143 $142 $245 $246 reversed $65 $-1 #
coedge $-1 -1 $-1 $247 $248 $249 $197 forward $250 $-1 #
edge $-1 -1 $-1 $251 -0.78000000000000003 $201 0 $196 $252 forward @7 unknown #
coedge $-1 -1 $-1 $199 $144 $253 $218 forward $200 $-1 #
coedge $-1 -1 $-1 $144 $198 $247 $254 forward $200 $-1 #
loop $-1 -1 $-1 $-1 $144 $255 #
vertex $-1 -1 $-1 $256 $257 #
coedge $-1 -1 $-1 $192 $146 $258 $259 reversed $95 $-1 #
coedge $-1 -1 $-1 $260 $261 $262 $147 forward $240 $-1 #
vertex $-1 -1 $-1 $263 $264 #
straight-curve $-1 -1 $-1 -2.9849999999999999 0 -0.39000000000000001 0 0 -1 I I #
coedge $-1 -1 $-1 $265 $262 $149 $207 reversed $266 $-1 #
edge $-1 -1 $-1 $231 -2.9849999999999999 $151 0 $206 $267 forward @7 unknown #
face $-1 -1 $-1 $223 $150 $17 $-1 $268 forward single #
edge $-1 -1 $-1 $151 0 $269 2.9849999999999999 $261 $267 forward @7 unknown #
point $-1 -1 $-1 -2.9849999999999999 0 0.39000000000000001 #
coedge $-1 -1 $-1 $270 $153 $156 $216 reversed $139 $-1 #
coedge $-1 -1 $-1 $153 $270 $160 $220 reversed $139 $-1 #
coedge $-1 -1 $-1 $271 $253 $143 $154 reversed $272 $-1 #
straight-curve $-1 -1 $-1 2.9849999999999999 0 -0.39000000000000001 0 0 -1 I I #
coedge $-1 -1 $-1 $168 $273 $155 $172 reversed $230 $-1 #
edge $-1 -1 $-1 $233 -2.9849999999999999 $158 0 $211 $274 forward @7 unknown #
face $-1 -1 $-1 $275 $157 $17 $-1 $276 reversed single #
edge $-1 -1 $-1 $158 0 $277 2.9849999999999999 $253 $274 forward @7 unknown #
point $-1 -1 $-1 2.9849999999999999 0 -0.39000000000000001 #
edge $-1 -1 $-1 $163 0 $278 2.9849999999999999 $212 $279 forward @7 unknown #
coedge $-1 -1 $-1 $273 $168 $161 $222 reversed $230 $-1 #
edge $-1 -1 $-1 $278 -2.9849999999999999 $107 1.1191218136597701e-032 $221 $232 forward @7 unknown #
face $-1 -1 $-1 $280 $162 $17 $-1 $268 forward single #
point $-1 -1 $-1 2.9849999999999999 0 0.39000000000000001 #
coedge $-1 -1 $-1 $226 $164 $281 $263 forward $227 $-1 #
coedge $-1 -1 $-1 $164 $225 $166 $229 forward $227 $-1 #
loop $-1 -1 $-1 $-1 $164 $275 #
coedge $-1 -1 $-1 $167 $166 $265 $282 reversed $169 $-1 #
edge $-1 -1 $-1 $283 -2.9849999999999999 $108 -1.1191218136597701e-032 $166 $234 forward @7 unknown #
loop $-1 -1 $-1 $-1 $168 $284 #
vertex $-1 -1 $-1 $170 $285 #
straight-curve $-1 -1 $-1 0 2.9849999999999999 0.39000000000000001 -1 0 0 I I #
vertex $-1 -1 $-1 $216 $286 #
straight-curve $-1 -1 $-1 0 2.9849999999999999 -0.39000000000000001 1 0 0 I I #
straight-curve $-1 -1 $-1 -2.9849999999999999 2.9849999999999999 0 0 0 -1 I I #
point $-1 -1 $-1 -2.9849999999999999 -2.9849999999999999 -0.39000000000000001 #
straight-curve $-1 -1 $-1 -2.9849999999999999 0 -0.39000000000000001 0 1 0 I I #
point $-1 -1 $-1 -2.9849999999999999 2.9849999999999999 -0.39000000000000001 #
face $-1 -1 $-1 $208 $287 $17 $-1 $268 forward single #
loop $-1 -1 $-1 $-1 $203 $190 #
plane-surface $-1 -1 $-1 -2.9849999999999999 0 0 1 0 0 0 0 -1 forward_v I I I I #
coedge $-1 -1 $-1 $243 $193 $288 $256 forward $244 $-1 #
coedge $-1 -1 $-1 $193 $242 $260 $289 forward $244 $-1 #
loop $-1 -1 $-1 $-1 $193 $290 #
coedge $-1 -1 $-1 $291 $292 $195 $246 forward $293 $-1 #
edge $-1 -1 $-1 $163 0 $251 1.5707963267948966 $245 $152 forward @7 unknown #
coedge $-1 -1 $-1 $294 $196 $199 $254 reversed $250 $-1 #
coedge $-1 -1 $-1 $196 $294 $291 $295 reversed $250 $-1 #
coedge $-1 -1 $-1 $296 $288 $192 $197 reversed $297 $-1 #
loop $-1 -1 $-1 $-1 $196 $298 #
vertex $-1 -1 $-1 $295 $299 #
straight-curve $-1 -1 $-1 -1.1191218136597701e-032 -2.9849999999999999 -0.39000000000000001 0 0 -1 I I #
coedge $-1 -1 $-1 $213 $300 $198 $218 reversed $272 $-1 #
edge $-1 -1 $-1 $277 -2.9849999999999999 $201 1.1191218136597701e-032 $247 $301 forward @7 unknown #
face $-1 -1 $-1 $217 $200 $17 $-1 $276 reversed single #
edge $-1 -1 $-1 $201 1.1191218136597701e-032 $302 2.9849999999999999 $288 $301 forward @7 unknown #
point $-1 -1 $-1 -1.1191218136597701e-032 -2.9849999999999999 -0.39000000000000001 #
coedge $-1 -1 $-1 $303 $304 $202 $259 forward $287 $-1 #
edge $-1 -1 $-1 $251 1.5707963267948966 $151 3.1415926535897931 $258 $152 forward @7 unknown #
coedge $-1 -1 $-1 $305 $203 $243 $289 reversed $240 $-1 #
coedge $-1 -1 $-1 $203 $305 $303 $209 reversed $240 $-1 #
coedge $-1 -1 $-1 $206 $281 $97 $147 reversed $266 $-1 #
edge $-1 -1 $-1 $204 0 $283 2.9849999999999999 $281 $306 forward @7 unknown #
point $-1 -1 $-1 -2.9849999999999999 0 -0.39000000000000001 #
coedge $-1 -1 $-1 $281 $206 $228 $282 forward $266 $-1 #
loop $-1 -1 $-1 $-1 $262 $307 #
straight-curve $-1 -1 $-1 -2.9849999999999999 0 0.39000000000000001 0 -1 0 I I #
plane-surface $-1 -1 $-1 0 0 0.39000000000000001 0 0 1 1 0 0 forward_v I I I I #
vertex $-1 -1 $-1 $209 $308 #
coedge $-1 -1 $-1 $212 $211 $273 $309 reversed $139 $-1 #
coedge $-1 -1 $-1 $300 $213 $292 $310 reversed $272 $-1 #
loop $-1 -1 $-1 $-1 $213 $311 #
coedge $-1 -1 $-1 $215 $221 $270 $309 forward $230 $-1 #
straight-curve $-1 -1 $-1 2.9849999999999999 0 -0.39000000000000001 0 -1 0 I I #
face $-1 -1 $-1 $312 $227 $17 $-1 $276 reversed single #
plane-surface $-1 -1 $-1 0 0 -0.39000000000000001 0 0 1 1 0 0 forward_v I I I I #
vertex $-1 -1 $-1 $313 $314 #
vertex $-1 -1 $-1 $220 $315 #
straight-curve $-1 -1 $-1 2.9849999999999999 0 0.39000000000000001 0 1 0 I I #
face $-1 -1 $-1 $298 $293 $17 $-1 $268 forward single #
coedge $-1 -1 $-1 $262 $265 $225 $263 reversed $266 $-1 #
edge $-1 -1 $-1 $231 -0.39000000000000001 $283 0.39000000000000001 $228 $316 forward @7 unknown #
vertex $-1 -1 $-1 $229 $317 #
face $-1 -1 $-1 $311 $230 $17 $-1 $191 reversed single #
point $-1 -1 $-1 -2.9849999999999999 2.9849999999999999 0.39000000000000001 #
point $-1 -1 $-1 2.9849999999999999 2.9849999999999999 -0.39000000000000001 #
loop $-1 -1 $-1 $-1 $258 $239 #
coedge $-1 -1 $-1 $249 $318 $242 $256 reversed $297 $-1 #
edge $-1 -1 $-1 $302 -2.9849999999999999 $204 0 $260 $306 forward @7 unknown #
face $-1 -1 $-1 $255 $244 $17 $-1 $276 reversed single #
coedge $-1 -1 $-1 $292 $245 $248 $295 forward $293 $-1 #
coedge $-1 -1 $-1 $245 $291 $271 $310 forward $293 $-1 #
loop $-1 -1 $-1 $-1 $245 $280 #
coedge $-1 -1 $-1 $248 $247 $300 $313 reversed $250 $-1 #
edge $-1 -1 $-1 $251 -1.1191218136597701e-032 $319 2.9849999999999999 $248 $320 forward @7 unknown #
coedge $-1 -1 $-1 $318 $249 $304 $321 reversed $297 $-1 #
loop $-1 -1 $-1 $-1 $249 $312 #
face $-1 -1 $-1 $290 $250 $17 $-1 $322 reversed single #
point $-1 -1 $-1 -1.1191218136597701e-032 -2.9849999999999999 0.39000000000000001 #
coedge $-1 -1 $-1 $253 $271 $294 $313 forward $272 $-1 #
straight-curve $-1 -1 $-1 0 -2.9849999999999999 -0.39000000000000001 -1 0 0 I I #
vertex $-1 -1 $-1 $289 $323 #
coedge $-1 -1 $-1 $304 $258 $261 $209 forward $287 $-1 #
coedge $-1 -1 $-1 $258 $303 $296 $321 forward $287 $-1 #
coedge $-1 -1 $-1 $261 $260 $318 $324 reversed $240 $-1 #
straight-curve $-1 -1 $-1 -2.9849999999999999 0 -0.39000000000000001 0 1 0 I I #
face $-1 -1 $-1 $284 $266 $17 $-1 $241 reversed single #
point $-1 -1 $-1 -2.9849999999999999 -2.9849999999999999 0.39000000000000001 #
edge $-1 -1 $-1 $278 -0.39000000000000001 $233 0.39000000000000001 $270 $325 forward @7 unknown #
edge $-1 -1 $-1 $319 -2.9849999999999999 $163 0 $271 $279 forward @7 unknown #
face $-1 -1 $-1 $-1 $272 $17 $-1 $140 reversed single #
face $-1 -1 $-1 $307 $297 $17 $-1 $322 reversed single #
edge $-1 -1 $-1 $319 -0.39000000000000001 $277 0.39000000000000001 $300 $326 forward @7 unknown #
point $-1 -1 $-1 2.9849999999999999 -2.9849999999999999 -0.39000000000000001 #
point $-1 -1 $-1 2.9849999999999999 2.9849999999999999 0.39000000000000001 #
straight-curve $-1 -1 $-1 -2.9849999999999999 2.9849999999999999 0 0 0 -1 I I #
point $-1 -1 $-1 -2.9849999999999999 2.9849999999999999 -0.39000000000000001 #
coedge $-1 -1 $-1 $288 $296 $305 $324 forward $297 $-1 #
vertex $-1 -1 $-1 $310 $327 #
straight-curve $-1 -1 $-1 0 -2.9849999999999999 0.39000000000000001 1 0 0 I I #
edge $-1 -1 $-1 $269 -2.9849999999999999 $251 -1.1191218136597701e-032 $296 $320 forward @7 unknown #
plane-surface $-1 -1 $-1 0 -2.9849999999999999 0 0 1 0 0 0 1 forward_v I I I I #
point $-1 -1 $-1 -2.9849999999999999 -2.9849999999999999 -0.39000000000000001 #
edge $-1 -1 $-1 $269 -0.39000000000000001 $302 0.39000000000000001 $305 $328 forward @7 unknown #
straight-curve $-1 -1 $-1 2.9849999999999999 2.9849999999999999 0 0 0 -1 I I #
straight-curve $-1 -1 $-1 2.9849999999999999 -2.9849999999999999 0 0 0 -1 I I #
point $-1 -1 $-1 2.9849999999999999 -2.9849999999999999 0.39000000000000001 #
straight-curve $-1 -1 $-1 -2.9849999999999999 -2.9849999999999999 0 0 0 -1 I I #
End-of-ACIS-data 