700 0 2 0           
24 FBMach with ACIS - 7.0.3 13 ACIS 7.0.3 NT 24 Tue May 14 14:19:36 2002 
1 9.9999999999999995e-007 1e-010 
body $2 -1 $-1 $3 $-1 $4 #
bdycol-kcp $-1 -1 1 2 $5 $6 #
model_id-kcp-attrib $-1 -1 $-1 $-1 $0 1 1021400375 1021400376 -2027880447 1 #
lump $-1 -1 $-1 $-1 $7 $0 #
transform $-1 -1 1 0 0 0 1 0 0 0 1 0 0 0 1 rotate no_reflect no_shear #
body $8 -1 $-1 $9 $-1 $10 #
body $11 -1 $-1 $12 $-1 $13 #
shell $-1 -1 $-1 $-1 $-1 $14 $-1 $3 #
model_id-kcp-attrib $-1 -1 $-1 $-1 $5 1 1021400375 1021400376 -2027880446 1 #
lump $-1 -1 $-1 $-1 $15 $5 #
transform $-1 -1 1 0 0 0 1 0 0 0 1 0 0 9.9060000000000006 1 no_rotate no_reflect no_shear #
rgb_color-st-attrib $-1 -1 $16 $-1 $6 0.5 1 1 #
lump $-1 -1 $-1 $-1 $17 $6 #
transform $-1 -1 1 0 0 0 1 0 0 0 1 0 0 9.9060000000000006 1 no_rotate no_reflect no_shear #
face $18 -1 $-1 $19 $20 $7 $-1 $21 reversed single #
shell $-1 -1 $-1 $-1 $-1 $22 $-1 $9 #
model_id-kcp-attrib $-1 -1 $-1 $11 $6 1 1021400375 1021400376 -2019950589 1 #
shell $-1 -1 $-1 $-1 $-1 $23 $-1 $12 #
model_id-kcp-attrib $-1 -1 $-1 $-1 $14 1 1021400375 1021400376 -2027880447 2 #
face $24 -1 $-1 $25 $26 $7 $-1 $27 forward single #
loop $-1 -1 $-1 $-1 $28 $14 #
plane-surface $-1 -1 $-1 0 0 0 0 0 1 25.399999999999999 0 0 forward_v I I I I #
face $29 -1 $-1 $30 $31 $15 $-1 $32 forward single #
face $-1 -1 $-1 $33 $34 $17 $-1 $35 reversed single #
model_id-kcp-attrib $-1 -1 $-1 $-1 $19 1 1021400375 1021400376 -2027880447 3 #
face $36 -1 $-1 $37 $38 $7 $-1 $39 forward single #
loop $-1 -1 $-1 $-1 $40 $19 #
cone-surface $-1 -1 $-1 0 0 0 0 0 1 75.818999999999988 0 0 1 I I 0 1 75.818999999999988 forward I I I I #
coedge $-1 -1 $-1 $41 $41 $42 $43 reversed $20 $-1 #
model_id-kcp-attrib $-1 -1 $-1 $-1 $22 1 1021400375 1021400376 -2027880446 3 #
face $44 -1 $-1 $45 $46 $15 $-1 $47 reversed single #
loop $-1 -1 $-1 $-1 $48 $22 #
plane-surface $-1 -1 $-1 0 0 9.9060000000000006 0 0 1 1 0 0 forward_v I I I I #
face $-1 -1 $-1 $49 $50 $17 $-1 $35 reversed single #
loop $-1 -1 $-1 $-1 $51 $23 #
cone-surface $-1 -1 $-1 -2.8425694066958159e-031 0 -9.9060000000000006 0 0 -1 75.818999999999988 0 0 1 I I 0 1 75.818999999999988 forward I I I I #
model_id-kcp-attrib $-1 -1 $-1 $-1 $25 1 1021400375 1021400376 -2027880447 4 #
face $52 -1 $-1 $-1 $53 $7 $-1 $54 forward single #
loop $-1 -1 $-1 $-1 $55 $25 #
cone-surface $-1 -1 $-1 0 0 0 0 0 1 75.818999999999988 0 0 1 I I 0 1 75.818999999999988 forward I I I I #
coedge $-1 -1 $-1 $56 $42 $57 $58 forward $26 $-1 #
coedge $-1 -1 $-1 $28 $28 $59 $60 reversed $20 $-1 #
coedge $-1 -1 $-1 $40 $61 $28 $43 forward $26 $-1 #
edge $62 -1 $-1 $63 0 $64 3.1415926535897931 $28 $65 forward @7 unknown #
model_id-kcp-attrib $-1 -1 $-1 $-1 $30 1 1021400375 1021400376 -2027880446 2 #
face $-1 -1 $-1 $66 $67 $15 $-1 $68 reversed single #
loop $-1 -1 $-1 $-1 $69 $30 #
plane-surface $-1 -1 $-1 0 0 -9.9060000000000006 0 0 1 1 0 0 forward_v I I I I #
coedge $-1 -1 $-1 $70 $71 $72 $73 forward $31 $-1 #
face $-1 -1 $-1 $74 $75 $17 $-1 $35 reversed single #
loop $-1 -1 $-1 $-1 $76 $33 #
coedge $-1 -1 $-1 $77 $78 $79 $80 forward $34 $-1 #
model_id-kcp-attrib $-1 -1 $-1 $-1 $37 1 1021400375 1021400376 -2027880447 5 #
loop $-1 -1 $-1 $-1 $81 $37 #
plane-surface $-1 -1 $-1 0 0 19.812000000000001 0 0 1 25.399999999999999 0 0 forward_v I I I I #
coedge $-1 -1 $-1 $82 $59 $61 $83 forward $38 $-1 #
coedge $-1 -1 $-1 $61 $40 $81 $84 reversed $26 $-1 #
coedge $-1 -1 $-1 $59 $82 $40 $58 reversed $38 $-1 #
edge $-1 -1 $-1 $64 0 $85 0.78000000000000014 $57 $86 forward @7 unknown #
coedge $-1 -1 $-1 $55 $57 $41 $60 forward $38 $-1 #
edge $87 -1 $-1 $64 0 $63 3.1415926535897931 $41 $88 forward @7 unknown #
coedge $-1 -1 $-1 $42 $56 $55 $83 reversed $26 $-1 #
attrib_edge_convexity-kcp-attrib $-1 -1 $89 $-1 $43 1 #
vertex $-1 -1 $-1 $60 $90 #
vertex $-1 -1 $-1 $60 $91 #
ellipse-curve $-1 -1 $-1 0 0 0 0 0 1 -75.818999999999988 0 0 1 I I #
face $-1 -1 $-1 $92 $93 $15 $-1 $94 reversed single #
loop $-1 -1 $-1 $-1 $95 $45 #
plane-surface $-1 -1 $-1 0 -75.818999999999988 0 0 1 0 0 0 1 forward_v I I I I #
coedge $-1 -1 $-1 $96 $97 $98 $99 forward $46 $-1 #
coedge $-1 -1 $-1 $100 $48 $101 $102 forward $31 $-1 #
coedge $-1 -1 $-1 $48 $100 $103 $104 forward $31 $-1 #
coedge $-1 -1 $-1 $105 $106 $48 $73 reversed $107 $-1 #
edge $-1 -1 $-1 $108 -75.818999999999988 $109 75.818999999999988 $72 $110 forward @7 unknown #
face $-1 -1 $-1 $111 $112 $17 $-1 $35 reversed single #
loop $-1 -1 $-1 $-1 $113 $49 #
coedge $-1 -1 $-1 $114 $79 $115 $116 reversed $50 $-1 #
coedge $-1 -1 $-1 $117 $51 $118 $119 reversed $34 $-1 #
coedge $-1 -1 $-1 $51 $117 $120 $121 reversed $34 $-1 #
coedge $-1 -1 $-1 $76 $122 $123 $80 reversed $50 $-1 #
edge $-1 -1 $-1 $124 -19.812000000000001 $125 0 $123 $126 forward @7 unknown #
coedge $-1 -1 $-1 $127 $127 $56 $84 forward $53 $-1 #
coedge $-1 -1 $-1 $57 $55 $127 $128 reversed $38 $-1 #
edge $-1 -1 $-1 $63 0 $129 0.78000000000000014 $55 $130 forward @7 unknown #
edge $-1 -1 $-1 $129 0 $85 3.1415926535897931 $81 $131 forward @7 unknown #
vertex $-1 -1 $-1 $128 $132 #
straight-curve $-1 -1 $-1 75.818999999999988 0 0 0 0 25.399999999999999 I I #
attrib_edge_convexity-kcp-attrib $-1 -1 $133 $-1 $60 1 #
ellipse-curve $-1 -1 $-1 0 0 0 0 0 1 75.818999999999988 0 0 1 I I #
convexity-sys-attrib $-1 -1 $-1 $62 $43 #
point $-1 -1 $-1 -75.818999999999988 0 0 #
point $-1 -1 $-1 75.818999999999988 0 0 #
face $-1 -1 $-1 $134 $135 $15 $-1 $136 reversed single #
loop $-1 -1 $-1 $-1 $137 $66 #
plane-surface $-1 -1 $-1 -75.818999999999988 0 0 1 0 0 0 0 -1 forward_v I I I I #
coedge $-1 -1 $-1 $138 $103 $139 $140 forward $67 $-1 #
coedge $-1 -1 $-1 $141 $69 $138 $142 forward $46 $-1 #
coedge $-1 -1 $-1 $69 $141 $143 $144 forward $46 $-1 #
coedge $-1 -1 $-1 $106 $105 $69 $99 reversed $107 $-1 #
edge $-1 -1 $-1 $145 -75.818999999999988 $146 75.818999999999988 $98 $147 forward @7 unknown #
coedge $-1 -1 $-1 $71 $70 $148 $149 forward $31 $-1 #
coedge $-1 -1 $-1 $150 $151 $70 $102 reversed $135 $-1 #
edge $-1 -1 $-1 $109 -75.818999999999988 $152 75.818999999999988 $101 $153 forward @7 unknown #
coedge $-1 -1 $-1 $95 $154 $71 $104 reversed $67 $-1 #
edge $-1 -1 $-1 $155 -75.818999999999988 $108 75.818999999999988 $103 $156 forward @7 unknown #
coedge $-1 -1 $-1 $98 $72 $154 $157 forward $107 $-1 #
coedge $-1 -1 $-1 $72 $98 $150 $158 reversed $107 $-1 #
loop $-1 -1 $-1 $-1 $105 $134 #
vertex $-1 -1 $-1 $73 $159 #
vertex $-1 -1 $-1 $73 $160 #
straight-curve $-1 -1 $-1 75.818999999999988 0 9.9060000000000006 0 1 0 I I #
face $-1 -1 $-1 $161 $162 $17 $-1 $163 reversed single #
loop $-1 -1 $-1 $-1 $164 $74 #
coedge $-1 -1 $-1 $165 $166 $167 $168 reversed $75 $-1 #
coedge $-1 -1 $-1 $122 $76 $169 $170 forward $50 $-1 #
coedge $-1 -1 $-1 $171 $172 $76 $116 forward $173 $-1 #
edge $-1 -1 $-1 $174 -3.1415926535897931 $124 -1.5707963267948966 $115 $175 forward @7 unknown #
coedge $-1 -1 $-1 $78 $77 $176 $177 reversed $34 $-1 #
coedge $-1 -1 $-1 $178 $179 $77 $119 forward $180 $-1 #
edge $-1 -1 $-1 $181 0 $125 1.5707963267948966 $118 $182 forward @7 unknown #
coedge $-1 -1 $-1 $183 $184 $78 $121 forward $185 $-1 #
edge $-1 -1 $-1 $124 -1.5707963267948966 $186 0 $120 $175 forward @7 unknown #
coedge $-1 -1 $-1 $79 $114 $187 $188 reversed $50 $-1 #
coedge $-1 -1 $-1 $189 $190 $191 $80 forward $192 $-1 #
vertex $-1 -1 $-1 $193 $194 #
vertex $-1 -1 $-1 $195 $196 #
straight-curve $-1 -1 $-1 -2.8425694066958159e-031 75.818999999999988 -9.9060000000000006 0 0 -1 I I #
coedge $-1 -1 $-1 $81 $81 $82 $128 forward $53 $-1 #
edge $-1 -1 $-1 $85 0 $129 3.1415926535897931 $127 $197 forward @7 unknown #
vertex $-1 -1 $-1 $128 $198 #
straight-curve $-1 -1 $-1 -75.818999999999988 9.2848429140458813e-015 0 0 0 25.399999999999999 I I #
ellipse-curve $-1 -1 $-1 0 0 19.812000000000001 0 0 1 -75.818999999999988 0 0 1 I I #
point $-1 -1 $-1 75.818999999999988 0 19.812000000000001 #
convexity-sys-attrib $-1 -1 $-1 $87 $60 #
face $-1 -1 $-1 $-1 $107 $15 $-1 $199 reversed single #
loop $-1 -1 $-1 $-1 $150 $92 #
plane-surface $-1 -1 $-1 0 75.818999999999988 0 0 -1 0 0 0 -1 forward_v I I I I #
coedge $-1 -1 $-1 $200 $148 $151 $201 forward $93 $-1 #
coedge $-1 -1 $-1 $154 $95 $96 $142 reversed $67 $-1 #
coedge $-1 -1 $-1 $148 $200 $95 $140 reversed $93 $-1 #
edge $-1 -1 $-1 $155 -9.9060000000000006 $202 9.9060000000000006 $139 $203 forward @7 unknown #
coedge $-1 -1 $-1 $97 $96 $200 $204 forward $46 $-1 #
edge $-1 -1 $-1 $146 -75.818999999999988 $202 75.818999999999988 $138 $205 forward @7 unknown #
coedge $-1 -1 $-1 $151 $150 $97 $144 reversed $135 $-1 #
edge $-1 -1 $-1 $206 -75.818999999999988 $145 75.818999999999988 $143 $207 forward @7 unknown #
vertex $-1 -1 $-1 $99 $208 #
vertex $-1 -1 $-1 $157 $209 #
straight-curve $-1 -1 $-1 75.818999999999988 0 -9.9060000000000006 0 -1 0 I I #
coedge $-1 -1 $-1 $137 $139 $100 $149 reversed $93 $-1 #
edge $-1 -1 $-1 $152 -75.818999999999988 $155 75.818999999999988 $148 $210 forward @7 unknown #
coedge $-1 -1 $-1 $143 $101 $106 $158 forward $135 $-1 #
coedge $-1 -1 $-1 $101 $143 $137 $201 reversed $135 $-1 #
vertex $-1 -1 $-1 $102 $211 #
straight-curve $-1 -1 $-1 0 75.818999999999988 9.9060000000000006 -1 0 0 I I #
coedge $-1 -1 $-1 $103 $138 $105 $157 reversed $67 $-1 #
vertex $-1 -1 $-1 $149 $212 #
straight-curve $-1 -1 $-1 0 -75.818999999999988 9.9060000000000006 1 0 0 I I #
edge $-1 -1 $-1 $108 -9.9060000000000006 $146 9.9060000000000006 $105 $213 forward @7 unknown #
edge $-1 -1 $-1 $109 -9.9060000000000006 $145 9.9060000000000006 $106 $214 forward @7 unknown #
point $-1 -1 $-1 75.818999999999988 -75.818999999999988 9.9060000000000006 #
point $-1 -1 $-1 75.818999999999988 75.818999999999988 9.9060000000000006 #
face $-1 -1 $-1 $215 $192 $17 $-1 $216 reversed single #
loop $-1 -1 $-1 $-1 $176 $111 #
plane-surface $-1 -1 $-1 75.818999999999988 0 0 -1 0 0 0 0 1 forward_v I I I I #
coedge $-1 -1 $-1 $169 $217 $218 $219 reversed $112 $-1 #
coedge $-1 -1 $-1 $220 $113 $221 $222 reversed $75 $-1 #
coedge $-1 -1 $-1 $113 $220 $117 $177 forward $75 $-1 #
coedge $-1 -1 $-1 $223 $224 $113 $168 forward $225 $-1 #
edge $-1 -1 $-1 $226 -1.5707963267948966 $181 0 $167 $182 forward @7 unknown #
coedge $-1 -1 $-1 $227 $164 $228 $170 reversed $112 $-1 #
edge $-1 -1 $-1 $174 -19.812000000000001 $229 0 $228 $230 forward @7 unknown #
coedge $-1 -1 $-1 $172 $115 $190 $193 forward $173 $-1 #
coedge $-1 -1 $-1 $115 $171 $231 $232 forward $173 $-1 #
loop $-1 -1 $-1 $-1 $115 $233 #
vertex $-1 -1 $-1 $234 $235 #
ellipse-curve $-1 -1 $-1 -2.8425694066958159e-031 0 9.9060000000000006 0 0 -1 75.818999999999988 0 0 1 I I #
coedge $-1 -1 $-1 $236 $237 $238 $177 forward $162 $-1 #
edge $-1 -1 $-1 $186 -19.812000000000001 $181 0 $176 $239 forward @7 unknown #
coedge $-1 -1 $-1 $179 $118 $240 $195 forward $180 $-1 #
coedge $-1 -1 $-1 $118 $178 $236 $241 forward $180 $-1 #
loop $-1 -1 $-1 $-1 $118 $242 #
vertex $-1 -1 $-1 $243 $244 #
ellipse-curve $-1 -1 $-1 -2.8425694066958159e-031 0 -9.9060000000000006 0 0 1 75.818999999999988 0 0 1 I I #
coedge $-1 -1 $-1 $184 $120 $237 $245 forward $185 $-1 #
coedge $-1 -1 $-1 $120 $183 $246 $247 forward $185 $-1 #
loop $-1 -1 $-1 $-1 $120 $248 #
vertex $-1 -1 $-1 $245 $249 #
coedge $-1 -1 $-1 $250 $251 $122 $188 forward $252 $-1 #
edge $-1 -1 $-1 $125 1.5707963267948966 $229 3.1415926535897931 $187 $182 forward @7 unknown #
coedge $-1 -1 $-1 $253 $123 $251 $254 reversed $192 $-1 #
coedge $-1 -1 $-1 $123 $253 $171 $193 reversed $192 $-1 #
coedge $-1 -1 $-1 $246 $240 $51 $80 reversed $255 $-1 #
loop $-1 -1 $-1 $-1 $123 $161 #
edge $-1 -1 $-1 $124 2.8425694066958159e-031 $256 75.818999999999988 $190 $257 forward @7 unknown #
point $-1 -1 $-1 -2.8425694066958159e-031 75.818999999999988 9.9060000000000006 #
edge $-1 -1 $-1 $125 -2.8425694066958159e-031 $258 75.818999999999988 $240 $259 forward @7 unknown #
point $-1 -1 $-1 -2.8425694066958159e-031 75.818999999999988 -9.9060000000000006 #
ellipse-curve $-1 -1 $-1 0 0 19.812000000000001 0 0 1 75.818999999999988 0 0 1 I I #
point $-1 -1 $-1 -75.818999999999988 0 19.812000000000001 #
plane-surface $-1 -1 $-1 75.818999999999988 0 0 -1 0 0 0 0 1 forward_v I I I I #
coedge $-1 -1 $-1 $139 $137 $141 $204 reversed $93 $-1 #
edge $-1 -1 $-1 $152 -9.9060000000000006 $206 9.9060000000000006 $151 $260 forward @7 unknown #
vertex $-1 -1 $-1 $204 $261 #
straight-curve $-1 -1 $-1 -75.818999999999988 -75.818999999999988 0 0 0 -1 I I #
edge $-1 -1 $-1 $202 -75.818999999999988 $206 75.818999999999988 $200 $262 forward @7 unknown #
straight-curve $-1 -1 $-1 0 -75.818999999999988 -9.9060000000000006 -1 0 0 I I #
vertex $-1 -1 $-1 $144 $263 #
straight-curve $-1 -1 $-1 0 75.818999999999988 -9.9060000000000006 1 0 0 I I #
point $-1 -1 $-1 75.818999999999988 75.818999999999988 -9.9060000000000006 #
point $-1 -1 $-1 75.818999999999988 -75.818999999999988 -9.9060000000000006 #
straight-curve $-1 -1 $-1 -75.818999999999988 0 9.9060000000000006 0 -1 0 I I #
point $-1 -1 $-1 -75.818999999999988 75.818999999999988 9.9060000000000006 #
point $-1 -1 $-1 -75.818999999999988 -75.818999999999988 9.9060000000000006 #
straight-curve $-1 -1 $-1 75.818999999999988 -75.818999999999988 0 0 0 -1 I I #
straight-curve $-1 -1 $-1 75.818999999999988 75.818999999999988 0 0 0 -1 I I #
face $-1 -1 $-1 $264 $265 $17 $-1 $266 reversed single #
plane-surface $-1 -1 $-1 0 75.818999999999988 0 0 -1 0 0 0 -1 forward_v I I I I #
coedge $-1 -1 $-1 $164 $227 $165 $222 forward $112 $-1 #
coedge $-1 -1 $-1 $267 $268 $164 $219 forward $269 $-1 #
edge $-1 -1 $-1 $229 -3.1415926535897931 $226 -1.5707963267948966 $218 $182 forward @7 unknown #
coedge $-1 -1 $-1 $166 $165 $270 $271 reversed $75 $-1 #
coedge $-1 -1 $-1 $272 $273 $274 $222 forward $275 $-1 #
edge $-1 -1 $-1 $276 -19.812000000000001 $226 0 $221 $277 forward @7 unknown #
coedge $-1 -1 $-1 $224 $167 $278 $243 forward $225 $-1 #
coedge $-1 -1 $-1 $167 $223 $272 $279 forward $225 $-1 #
loop $-1 -1 $-1 $-1 $167 $280 #
vertex $-1 -1 $-1 $281 $282 #
coedge $-1 -1 $-1 $217 $169 $283 $284 reversed $112 $-1 #
coedge $-1 -1 $-1 $285 $286 $287 $170 forward $265 $-1 #
vertex $-1 -1 $-1 $288 $289 #
straight-curve $-1 -1 $-1 -75.818999999999988 0 -9.9060000000000006 0 0 -1 I I #
coedge $-1 -1 $-1 $290 $287 $172 $232 reversed $291 $-1 #
edge $-1 -1 $-1 $256 -75.818999999999988 $174 0 $231 $292 forward @7 unknown #
face $-1 -1 $-1 $248 $173 $17 $-1 $293 forward single #
edge $-1 -1 $-1 $174 0 $294 75.818999999999988 $286 $292 forward @7 unknown #
point $-1 -1 $-1 -75.818999999999988 0 9.9060000000000006 #
coedge $-1 -1 $-1 $295 $176 $179 $241 reversed $162 $-1 #
coedge $-1 -1 $-1 $176 $295 $183 $245 reversed $162 $-1 #
coedge $-1 -1 $-1 $296 $278 $166 $177 reversed $297 $-1 #
straight-curve $-1 -1 $-1 75.818999999999988 0 -9.9060000000000006 0 0 -1 I I #
coedge $-1 -1 $-1 $191 $298 $178 $195 reversed $255 $-1 #
edge $-1 -1 $-1 $258 -75.818999999999988 $181 0 $236 $299 forward @7 unknown #
face $-1 -1 $-1 $300 $180 $17 $-1 $301 reversed single #
edge $-1 -1 $-1 $181 0 $302 75.818999999999988 $278 $299 forward @7 unknown #
point $-1 -1 $-1 75.818999999999988 0 -9.9060000000000006 #
edge $-1 -1 $-1 $186 0 $303 75.818999999999988 $237 $304 forward @7 unknown #
coedge $-1 -1 $-1 $298 $191 $184 $247 reversed $255 $-1 #
edge $-1 -1 $-1 $303 -75.818999999999988 $124 2.8425694066958159e-031 $246 $257 forward @7 unknown #
face $-1 -1 $-1 $305 $185 $17 $-1 $293 forward single #
point $-1 -1 $-1 75.818999999999988 0 9.9060000000000006 #
coedge $-1 -1 $-1 $251 $187 $306 $288 forward $252 $-1 #
coedge $-1 -1 $-1 $187 $250 $189 $254 forward $252 $-1 #
loop $-1 -1 $-1 $-1 $187 $300 #
coedge $-1 -1 $-1 $190 $189 $290 $307 reversed $192 $-1 #
edge $-1 -1 $-1 $308 -75.818999999999988 $125 -2.8425694066958159e-031 $189 $259 forward @7 unknown #
loop $-1 -1 $-1 $-1 $191 $309 #
vertex $-1 -1 $-1 $193 $310 #
straight-curve $-1 -1 $-1 0 75.818999999999988 9.9060000000000006 -1 0 0 I I #
vertex $-1 -1 $-1 $241 $311 #
straight-curve $-1 -1 $-1 0 75.818999999999988 -9.9060000000000006 1 0 0 I I #
straight-curve $-1 -1 $-1 -75.818999999999988 75.818999999999988 0 0 0 -1 I I #
point $-1 -1 $-1 -75.818999999999988 -75.818999999999988 -9.9060000000000006 #
straight-curve $-1 -1 $-1 -75.818999999999988 0 -9.9060000000000006 0 1 0 I I #
point $-1 -1 $-1 -75.818999999999988 75.818999999999988 -9.9060000000000006 #
face $-1 -1 $-1 $233 $312 $17 $-1 $293 forward single #
loop $-1 -1 $-1 $-1 $228 $215 #
plane-surface $-1 -1 $-1 -75.818999999999988 0 0 1 0 0 0 0 -1 forward_v I I I I #
coedge $-1 -1 $-1 $268 $218 $313 $281 forward $269 $-1 #
coedge $-1 -1 $-1 $218 $267 $285 $314 forward $269 $-1 #
loop $-1 -1 $-1 $-1 $218 $315 #
coedge $-1 -1 $-1 $316 $317 $220 $271 forward $318 $-1 #
edge $-1 -1 $-1 $186 0 $276 1.5707963267948966 $270 $175 forward @7 unknown #
coedge $-1 -1 $-1 $319 $221 $224 $279 reversed $275 $-1 #
coedge $-1 -1 $-1 $221 $319 $316 $320 reversed $275 $-1 #
coedge $-1 -1 $-1 $321 $313 $217 $222 reversed $322 $-1 #
loop $-1 -1 $-1 $-1 $221 $323 #
vertex $-1 -1 $-1 $320 $324 #
straight-curve $-1 -1 $-1 -2.8425694066958159e-031 -75.818999999999988 -9.9060000000000006 0 0 -1 I I #
coedge $-1 -1 $-1 $238 $325 $223 $243 reversed $297 $-1 #
edge $-1 -1 $-1 $302 -75.818999999999988 $226 2.8425694066958159e-031 $272 $326 forward @7 unknown #
face $-1 -1 $-1 $242 $225 $17 $-1 $301 reversed single #
edge $-1 -1 $-1 $226 2.8425694066958159e-031 $327 75.818999999999988 $313 $326 forward @7 unknown #
point $-1 -1 $-1 -2.8425694066958159e-031 -75.818999999999988 -9.9060000000000006 #
coedge $-1 -1 $-1 $328 $329 $227 $284 forward $312 $-1 #
edge $-1 -1 $-1 $276 1.5707963267948966 $174 3.1415926535897931 $283 $175 forward @7 unknown #
coedge $-1 -1 $-1 $330 $228 $268 $314 reversed $265 $-1 #
coedge $-1 -1 $-1 $228 $330 $328 $234 reversed $265 $-1 #
coedge $-1 -1 $-1 $231 $306 $114 $170 reversed $291 $-1 #
edge $-1 -1 $-1 $229 0 $308 75.818999999999988 $306 $331 forward @7 unknown #
point $-1 -1 $-1 -75.818999999999988 0 -9.9060000000000006 #
coedge $-1 -1 $-1 $306 $231 $253 $307 forward $291 $-1 #
loop $-1 -1 $-1 $-1 $287 $332 #
straight-curve $-1 -1 $-1 -75.818999999999988 0 9.9060000000000006 0 -1 0 I I #
plane-surface $-1 -1 $-1 0 0 9.9060000000000006 0 0 1 1 0 0 forward_v I I I I #
vertex $-1 -1 $-1 $234 $333 #
coedge $-1 -1 $-1 $237 $236 $298 $334 reversed $162 $-1 #
coedge $-1 -1 $-1 $325 $238 $317 $335 reversed $297 $-1 #
loop $-1 -1 $-1 $-1 $238 $336 #
coedge $-1 -1 $-1 $240 $246 $295 $334 forward $255 $-1 #
straight-curve $-1 -1 $-1 75.818999999999988 0 -9.9060000000000006 0 -1 0 I I #
face $-1 -1 $-1 $337 $252 $17 $-1 $301 reversed single #
plane-surface $-1 -1 $-1 0 0 -9.9060000000000006 0 0 1 1 0 0 forward_v I I I I #
vertex $-1 -1 $-1 $338 $339 #
vertex $-1 -1 $-1 $245 $340 #
straight-curve $-1 -1 $-1 75.818999999999988 0 9.9060000000000006 0 1 0 I I #
face $-1 -1 $-1 $323 $318 $17 $-1 $293 forward single #
coedge $-1 -1 $-1 $287 $290 $250 $288 reversed $291 $-1 #
edge $-1 -1 $-1 $256 -9.9060000000000006 $308 9.9060000000000006 $253 $341 forward @7 unknown #
vertex $-1 -1 $-1 $254 $342 #
face $-1 -1 $-1 $336 $255 $17 $-1 $216 reversed single #
point $-1 -1 $-1 -75.818999999999988 75.818999999999988 9.9060000000000006 #
point $-1 -1 $-1 75.818999999999988 75.818999999999988 -9.9060000000000006 #
loop $-1 -1 $-1 $-1 $283 $264 #
coedge $-1 -1 $-1 $274 $343 $267 $281 reversed $322 $-1 #
edge $-1 -1 $-1 $327 -75.818999999999988 $229 0 $285 $331 forward @7 unknown #
face $-1 -1 $-1 $280 $269 $17 $-1 $301 reversed single #
coedge $-1 -1 $-1 $317 $270 $273 $320 forward $318 $-1 #
coedge $-1 -1 $-1 $270 $316 $296 $335 forward $318 $-1 #
loop $-1 -1 $-1 $-1 $270 $305 #
coedge $-1 -1 $-1 $273 $272 $325 $338 reversed $275 $-1 #
edge $-1 -1 $-1 $276 -2.8425694066958159e-031 $344 75.818999999999988 $273 $345 forward @7 unknown #
coedge $-1 -1 $-1 $343 $274 $329 $346 reversed $322 $-1 #
loop $-1 -1 $-1 $-1 $274 $337 #
face $-1 -1 $-1 $315 $275 $17 $-1 $347 reversed single #
point $-1 -1 $-1 -2.8425694066958159e-031 -75.818999999999988 9.9060000000000006 #
coedge $-1 -1 $-1 $278 $296 $319 $338 forward $297 $-1 #
straight-curve $-1 -1 $-1 0 -75.818999999999988 -9.9060000000000006 -1 0 0 I I #
vertex $-1 -1 $-1 $314 $348 #
coedge $-1 -1 $-1 $329 $283 $286 $234 forward $312 $-1 #
coedge $-1 -1 $-1 $283 $328 $321 $346 forward $312 $-1 #
coedge $-1 -1 $-1 $286 $285 $343 $349 reversed $265 $-1 #
straight-curve $-1 -1 $-1 -75.818999999999988 0 -9.9060000000000006 0 1 0 I I #
face $-1 -1 $-1 $309 $291 $17 $-1 $266 reversed single #
point $-1 -1 $-1 -75.818999999999988 -75.818999999999988 9.9060000000000006 #
edge $-1 -1 $-1 $303 -9.9060000000000006 $258 9.9060000000000006 $295 $350 forward @7 unknown #
edge $-1 -1 $-1 $344 -75.818999999999988 $186 0 $296 $304 forward @7 unknown #
face $-1 -1 $-1 $-1 $297 $17 $-1 $163 reversed single #
face $-1 -1 $-1 $332 $322 $17 $-1 $347 reversed single #
edge $-1 -1 $-1 $344 -9.9060000000000006 $302 9.9060000000000006 $325 $351 forward @7 unknown #
point $-1 -1 $-1 75.818999999999988 -75.818999999999988 -9.9060000000000006 #
point $-1 -1 $-1 75.818999999999988 75.818999999999988 9.9060000000000006 #
straight-curve $-1 -1 $-1 -75.818999999999988 75.818999999999988 0 0 0 -1 I I #
point $-1 -1 $-1 -75.818999999999988 75.818999999999988 -9.9060000000000006 #
coedge $-1 -1 $-1 $313 $321 $330 $349 forward $322 $-1 #
vertex $-1 -1 $-1 $335 $352 #
straight-curve $-1 -1 $-1 0 -75.818999999999988 9.9060000000000006 1 0 0 I I #
edge $-1 -1 $-1 $294 -75.818999999999988 $276 -2.8425694066958159e-031 $321 $345 forward @7 unknown #
plane-surface $-1 -1 $-1 0 -75.818999999999988 0 0 1 0 0 0 1 forward_v I I I I #
point $-1 -1 $-1 -75.818999999999988 -75.818999999999988 -9.9060000000000006 #
edge $-1 -1 $-1 $294 -9.9060000000000006 $327 9.9060000000000006 $330 $353 forward @7 unknown #
straight-curve $-1 -1 $-1 75.818999999999988 75.818999999999988 0 0 0 -1 I I #
straight-curve $-1 -1 $-1 75.818999999999988 -75.818999999999988 0 0 0 -1 I I #
point $-1 -1 $-1 75.818999999999988 -75.818999999999988 9.9060000000000006 #
straight-curve $-1 -1 $-1 -75.818999999999988 -75.818999999999988 0 0 0 -1 I I #
End-of-ACIS-data 