600 0 1 0           
121 GICL Pro/E ACIS Translator - Source: f:/data5/repository/NIST/Manfred_Osti/suitcase/flange_blank6/flange_blank6.prt - 6 0 13 ACIS 6.0.3 NT 24 Thu Apr 04 13:52:27 2002 
1 9.9999999999999995e-007 1e-010 
body $-1 $1 $-1 $2 #
lump $-1 $-1 $3 $0 #
transform $-1 1 0 0 0 1 0 0 0 1 0 0 0 25.399999999999999 no_rotate no_reflect no_shear #
shell $-1 $-1 $-1 $4 $-1 $1 #
face $-1 $5 $6 $3 $-1 $7 reversed single #
face $-1 $8 $9 $3 $-1 $10 forward single #
loop $-1 $-1 $11 $4 #
plane-surface $-1 0 0 0 0 0 1 1 0 0 forward_v I I I I #
face $-1 $12 $13 $3 $-1 $14 forward single #
loop $-1 $-1 $15 $5 #
cone-surface $-1 0 0 0 0 0 1 2.9849999999999999 0 0 1 I I 0 1 2.9849999999999999 forward I I I I #
coedge $-1 $16 $16 $17 $18 reversed $6 $-1 #
face $-1 $-1 $19 $3 $-1 $20 forward single #
loop $-1 $-1 $21 $8 #
cone-surface $-1 0 0 0 0 0 1 2.9849999999999999 0 0 1 I I 0 1 2.9849999999999999 forward I I I I #
coedge $-1 $22 $17 $23 $24 forward $9 $-1 #
coedge $-1 $11 $11 $25 $26 reversed $6 $-1 #
coedge $-1 $15 $27 $11 $18 forward $9 $-1 #
edge $-1 $28 0 $29 3.1415926535897931 $11 $30 forward 7 unknown #
loop $-1 $-1 $31 $12 #
plane-surface $-1 0 0 0.78000000000000003 0 0 1 1 0 0 forward_v I I I I #
coedge $-1 $32 $25 $27 $33 forward $13 $-1 #
coedge $-1 $27 $15 $31 $34 reversed $9 $-1 #
coedge $-1 $25 $32 $15 $24 reversed $13 $-1 #
edge $-1 $29 0 $35 0.78000000000000003 $23 $36 forward 7 unknown #
coedge $-1 $21 $23 $16 $26 forward $13 $-1 #
edge $-1 $29 0 $28 3.1415926535897931 $16 $37 forward 7 unknown #
coedge $-1 $17 $22 $21 $33 reversed $9 $-1 #
vertex $-1 $26 $38 #
vertex $-1 $26 $39 #
ellipse-curve $-1 0 0 0 0 0 1 -2.9849999999999999 0 0 1 I I #
coedge $-1 $40 $40 $22 $34 forward $19 $-1 #
coedge $-1 $23 $21 $40 $41 reversed $13 $-1 #
edge $-1 $28 0 $42 0.78000000000000003 $21 $43 forward 7 unknown #
edge $-1 $42 0 $35 3.1415926535897931 $31 $44 forward 7 unknown #
vertex $-1 $41 $45 #
straight-curve $-1 2.9849999999999999 0 0 0 0 1 I I #
ellipse-curve $-1 0 0 0 0 0 1 2.9849999999999999 0 0 1 I I #
point $-1 -2.9849999999999999 0 0 #
point $-1 2.9849999999999999 0 0 #
coedge $-1 $31 $31 $32 $41 forward $19 $-1 #
edge $-1 $35 0 $42 3.1415926535897931 $40 $46 forward 7 unknown #
vertex $-1 $41 $47 #
straight-curve $-1 -2.9849999999999999 3.655449966159796e-016 0 0 0 1 I I #
ellipse-curve $-1 0 0 0.78000000000000003 0 0 1 -2.9849999999999999 0 0 1 I I #
point $-1 2.9849999999999999 0 0.78000000000000003 #
ellipse-curve $-1 0 0 0.78000000000000003 0 0 1 2.9849999999999999 0 0 1 I I #
point $-1 -2.9849999999999999 0 0.78000000000000003 #
End-of-ACIS-data 