105 25 1 0                              
body $-1 $1 $-1 $-1 #
lump $-1 $-1 $2 $0 #
shell $-1 $-1 $-1 $3 $1 #
face $-1 $4 $5 $2 $-1 $6 reversed single #
face $-1 $7 $8 $2 $-1 $9 forward single #
loop $-1 $-1 $10 $3 #
plane-surface $-1 0 0 0 0 0 1 1 0 0 0 #
face $-1 $-1 $11 $2 $-1 $12 forward single #
loop $-1 $-1 $13 $4 #
plane-surface $-1 0 0 0.78 0 0 1 1 0 0 0 #
coedge $-1 $10 $10 $14 $15 0 $5 $-1 #
loop $-1 $16 $17 $7 #
cone-surface $-1 0 0 0 0 0 1 2.985 0 0 1 0 1 0 #
coedge $-1 $13 $13 $17 $18 1 $8 $-1 #
coedge $-1 $14 $14 $10 $15 1 $16 $-1 #
edge $-1 $19 $19 $14 $20 0 #
loop $-1 $-1 $14 $7 #
coedge $-1 $17 $17 $13 $18 0 $11 $-1 #
edge $-1 $21 $21 $17 $22 0 #
vertex $-1 $15 $23 #
ellipse-curve $-1 0 0 0 0 0 -1 -2.985 0 0 1 #
vertex $-1 $18 $24 #
ellipse-curve $-1 0 0 0.78 0 0 -1 2.985 0 0 1 #
point $-1 2.985 0 0 #
point $-1 2.985 0 0.78 #
