600 0 2 0           
24 FBMach with ACIS - 6.0.3 13 ACIS 6.0.3 NT 24 Tue May 22 15:33:55 2001 
1 9.9999999999999995e-007 1e-010 
body $2 $3 $-1 $4 #
bdycol-kcp $-1 1 2 $5 $6 #
model_id-kcp-attrib $-1 $-1 $-1 $0 1 990560034 50 -1338900479 1 #
lump $-1 $-1 $7 $0 #
transform $-1 1 0 0 0 1 0 0 0 1 0 0 0 1 no_rotate no_reflect no_shear #
body $8 $9 $-1 $10 #
body $11 $12 $-1 $13 #
shell $-1 $-1 $-1 $14 $-1 $3 #
model_id-kcp-attrib $-1 $-1 $-1 $5 1 990560034 50 -1338900478 1 #
lump $-1 $-1 $15 $5 #
transform $-1 1 0 0 0 1 0 0 0 1 0 0 0.39000000000000001 1 no_rotate no_reflect no_shear #
rgb_color-st-attrib $-1 $16 $-1 $6 0.5 1 1 #
lump $-1 $-1 $17 $6 #
transform $-1 1 0 0 0 1 0 0 0 1 0 0 0.39000000000000001 1 no_rotate no_reflect no_shear #
face $18 $19 $20 $7 $-1 $21 reversed single #
shell $-1 $-1 $-1 $22 $-1 $9 #
model_id-kcp-attrib $-1 $-1 $11 $6 1 990560034 80 -1336934397 1 #
shell $-1 $-1 $-1 $23 $-1 $12 #
model_id-kcp-attrib $-1 $24 $-1 $14 1 990560034 50 -1338900479 5 #
face $25 $26 $27 $7 $-1 $28 forward single #
loop $-1 $-1 $29 $14 #
plane-surface $-1 0 0 0 0 0 1 1 0 0 forward_v I I I I #
face $30 $31 $32 $15 $-1 $33 forward single #
face $-1 $34 $35 $17 $-1 $36 reversed single #
model_id-kcp-attrib $-1 $-1 $18 $14 1 990560034 50 -1338900479 2 #
model_id-kcp-attrib $-1 $-1 $-1 $19 1 990560034 50 -1338900479 3 #
face $37 $-1 $38 $7 $-1 $39 forward single #
loop $-1 $-1 $40 $19 #
plane-surface $-1 0 0 0.78000000000000003 0 0 1 1 0 0 forward_v I I I I #
coedge $-1 $29 $29 $41 $42 forward $20 $-1 #
model_id-kcp-attrib $-1 $-1 $-1 $22 1 990560034 50 -1338900478 3 #
face $43 $44 $45 $15 $-1 $46 reversed single #
loop $-1 $-1 $47 $22 #
plane-surface $-1 0 0 0.39000000000000001 0 0 1 1 0 0 forward_v I I I I #
face $-1 $48 $49 $17 $-1 $36 reversed single #
loop $-1 $-1 $50 $23 #
cone-surface $-1 -1.1191218136597701e-032 0 -0.39000000000000001 0 0 -1 2.9849999999999999 0 0 1 I I 0 1 2.9849999999999999 forward I I I I #
model_id-kcp-attrib $-1 $-1 $-1 $26 1 990560034 50 -1338900479 4 #
loop $-1 $51 $52 $26 #
cone-surface $-1 0 0 0 0 0 1 2.9849999999999999 0 0 1 I I 0 1 2.9849999999999999 forward I I I I #
coedge $-1 $40 $40 $52 $53 reversed $27 $-1 #
coedge $-1 $41 $41 $29 $42 reversed $51 $-1 #
edge $54 $55 -3.1415926535897931 $55 3.1415926535897931 $41 $56 forward 7 unknown #
model_id-kcp-attrib $-1 $-1 $-1 $31 1 990560034 50 -1338900478 2 #
face $-1 $57 $58 $15 $-1 $59 reversed single #
loop $-1 $-1 $60 $31 #
plane-surface $-1 0 0 -0.39000000000000001 0 0 1 1 0 0 forward_v I I I I #
coedge $-1 $61 $62 $63 $64 forward $32 $-1 #
face $-1 $65 $66 $17 $-1 $36 reversed single #
loop $-1 $-1 $67 $34 #
coedge $-1 $68 $69 $70 $71 forward $35 $-1 #
loop $-1 $-1 $41 $26 #
coedge $-1 $52 $52 $40 $53 forward $38 $-1 #
edge $-1 $72 0 $72 6.2831853071795862 $52 $73 forward 7 unknown #
attrib_edge_convexity-kcp-attrib $-1 $74 $-1 $42 1 #
vertex $-1 $42 $75 #
ellipse-curve $-1 0 0 0 0 0 -1 -2.9849999999999999 0 0 1 I I #
face $-1 $76 $77 $15 $-1 $78 reversed single #
loop $-1 $-1 $79 $44 #
plane-surface $-1 0 -2.9849999999999999 0 0 1 0 0 0 1 forward_v I I I I #
coedge $-1 $80 $81 $82 $83 forward $45 $-1 #
coedge $-1 $84 $47 $85 $86 forward $32 $-1 #
coedge $-1 $47 $84 $87 $88 forward $32 $-1 #
coedge $-1 $89 $90 $47 $64 reversed $91 $-1 #
edge $-1 $92 -2.9849999999999999 $93 2.9849999999999999 $63 $94 forward 7 unknown #
face $-1 $95 $96 $17 $-1 $36 reversed single #
loop $-1 $-1 $97 $48 #
coedge $-1 $98 $70 $99 $100 reversed $49 $-1 #
coedge $-1 $101 $50 $102 $103 reversed $35 $-1 #
coedge $-1 $50 $101 $104 $105 reversed $35 $-1 #
coedge $-1 $67 $106 $107 $71 reversed $49 $-1 #
edge $-1 $108 -0.78000000000000003 $109 0 $107 $110 forward 7 unknown #
vertex $-1 $53 $111 #
ellipse-curve $-1 0 0 0.78000000000000003 0 0 -1 2.9849999999999999 0 0 1 I I #
convexity-sys-attrib $-1 $-1 $54 $42 #
point $-1 2.9849999999999999 0 0 #
face $-1 $112 $113 $15 $-1 $114 reversed single #
loop $-1 $-1 $115 $57 #
plane-surface $-1 -2.9849999999999999 0 0 1 0 0 0 0 -1 forward_v I I I I #
coedge $-1 $116 $87 $117 $118 forward $58 $-1 #
coedge $-1 $119 $60 $116 $120 forward $45 $-1 #
coedge $-1 $60 $119 $121 $122 forward $45 $-1 #
coedge $-1 $90 $89 $60 $83 reversed $91 $-1 #
edge $-1 $123 -2.9849999999999999 $124 2.9849999999999999 $82 $125 forward 7 unknown #
coedge $-1 $62 $61 $126 $127 forward $32 $-1 #
coedge $-1 $128 $129 $61 $86 reversed $113 $-1 #
edge $-1 $93 -2.9849999999999999 $130 2.9849999999999999 $85 $131 forward 7 unknown #
coedge $-1 $79 $132 $62 $88 reversed $58 $-1 #
edge $-1 $133 -2.9849999999999999 $92 2.9849999999999999 $87 $134 forward 7 unknown #
coedge $-1 $82 $63 $132 $135 forward $91 $-1 #
coedge $-1 $63 $82 $128 $136 reversed $91 $-1 #
loop $-1 $-1 $89 $112 #
vertex $-1 $64 $137 #
vertex $-1 $64 $138 #
straight-curve $-1 2.9849999999999999 0 0.39000000000000001 0 1 0 I I #
face $-1 $139 $140 $17 $-1 $141 reversed single #
loop $-1 $-1 $142 $65 #
coedge $-1 $143 $144 $145 $146 reversed $66 $-1 #
coedge $-1 $106 $67 $147 $148 forward $49 $-1 #
coedge $-1 $149 $150 $67 $100 forward $151 $-1 #
edge $-1 $152 -3.1415926535897931 $108 -1.5707963267948966 $99 $153 forward 7 unknown #
coedge $-1 $69 $68 $154 $155 reversed $35 $-1 #
coedge $-1 $156 $157 $68 $103 forward $158 $-1 #
edge $-1 $159 0 $109 1.5707963267948966 $102 $160 forward 7 unknown #
coedge $-1 $161 $162 $69 $105 forward $163 $-1 #
edge $-1 $108 -1.5707963267948966 $164 0 $104 $153 forward 7 unknown #
coedge $-1 $70 $98 $165 $166 reversed $49 $-1 #
coedge $-1 $167 $168 $169 $71 forward $170 $-1 #
vertex $-1 $171 $172 #
vertex $-1 $173 $174 #
straight-curve $-1 -1.1191218136597701e-032 2.9849999999999999 -0.39000000000000001 0 0 -1 I I #
point $-1 2.9849999999999999 0 0.78000000000000003 #
face $-1 $-1 $91 $15 $-1 $175 reversed single #
loop $-1 $-1 $128 $76 #
plane-surface $-1 0 2.9849999999999999 0 0 -1 0 0 0 -1 forward_v I I I I #
coedge $-1 $176 $126 $129 $177 forward $77 $-1 #
coedge $-1 $132 $79 $80 $120 reversed $58 $-1 #
coedge $-1 $126 $176 $79 $118 reversed $77 $-1 #
edge $-1 $133 -0.39000000000000001 $178 0.39000000000000001 $117 $179 forward 7 unknown #
coedge $-1 $81 $80 $176 $180 forward $45 $-1 #
edge $-1 $124 -2.9849999999999999 $178 2.9849999999999999 $116 $181 forward 7 unknown #
coedge $-1 $129 $128 $81 $122 reversed $113 $-1 #
edge $-1 $182 -2.9849999999999999 $123 2.9849999999999999 $121 $183 forward 7 unknown #
vertex $-1 $83 $184 #
vertex $-1 $135 $185 #
straight-curve $-1 2.9849999999999999 0 -0.39000000000000001 0 -1 0 I I #
coedge $-1 $115 $117 $84 $127 reversed $77 $-1 #
edge $-1 $130 -2.9849999999999999 $133 2.9849999999999999 $126 $186 forward 7 unknown #
coedge $-1 $121 $85 $90 $136 forward $113 $-1 #
coedge $-1 $85 $121 $115 $177 reversed $113 $-1 #
vertex $-1 $86 $187 #
straight-curve $-1 0 2.9849999999999999 0.39000000000000001 -1 0 0 I I #
coedge $-1 $87 $116 $89 $135 reversed $58 $-1 #
vertex $-1 $127 $188 #
straight-curve $-1 0 -2.9849999999999999 0.39000000000000001 1 0 0 I I #
edge $-1 $92 -0.39000000000000001 $124 0.39000000000000001 $89 $189 forward 7 unknown #
edge $-1 $93 -0.39000000000000001 $123 0.39000000000000001 $90 $190 forward 7 unknown #
point $-1 2.9849999999999999 -2.9849999999999999 0.39000000000000001 #
point $-1 2.9849999999999999 2.9849999999999999 0.39000000000000001 #
face $-1 $191 $170 $17 $-1 $192 reversed single #
loop $-1 $-1 $154 $95 #
plane-surface $-1 2.9849999999999999 0 0 -1 0 0 0 0 1 forward_v I I I I #
coedge $-1 $147 $193 $194 $195 reversed $96 $-1 #
coedge $-1 $196 $97 $197 $198 reversed $66 $-1 #
coedge $-1 $97 $196 $101 $155 forward $66 $-1 #
coedge $-1 $199 $200 $97 $146 forward $201 $-1 #
edge $-1 $202 -1.5707963267948966 $159 0 $145 $160 forward 7 unknown #
coedge $-1 $203 $142 $204 $148 reversed $96 $-1 #
edge $-1 $152 -0.78000000000000003 $205 0 $204 $206 forward 7 unknown #
coedge $-1 $150 $99 $168 $171 forward $151 $-1 #
coedge $-1 $99 $149 $207 $208 forward $151 $-1 #
loop $-1 $-1 $99 $209 #
vertex $-1 $210 $211 #
ellipse-curve $-1 -1.1191218136597701e-032 0 0.39000000000000001 0 0 -1 2.9849999999999999 0 0 1 I I #
coedge $-1 $212 $213 $214 $155 forward $140 $-1 #
edge $-1 $164 -0.78000000000000003 $159 0 $154 $215 forward 7 unknown #
coedge $-1 $157 $102 $216 $173 forward $158 $-1 #
coedge $-1 $102 $156 $212 $217 forward $158 $-1 #
loop $-1 $-1 $102 $218 #
vertex $-1 $219 $220 #
ellipse-curve $-1 -1.1191218136597701e-032 0 -0.39000000000000001 0 0 1 2.9849999999999999 0 0 1 I I #
coedge $-1 $162 $104 $213 $221 forward $163 $-1 #
coedge $-1 $104 $161 $222 $223 forward $163 $-1 #
loop $-1 $-1 $104 $224 #
vertex $-1 $221 $225 #
coedge $-1 $226 $227 $106 $166 forward $228 $-1 #
edge $-1 $109 1.5707963267948966 $205 3.1415926535897931 $165 $160 forward 7 unknown #
coedge $-1 $229 $107 $227 $230 reversed $170 $-1 #
coedge $-1 $107 $229 $149 $171 reversed $170 $-1 #
coedge $-1 $222 $216 $50 $71 reversed $231 $-1 #
loop $-1 $-1 $107 $139 #
edge $-1 $108 1.1191218136597701e-032 $232 2.9849999999999999 $168 $233 forward 7 unknown #
point $-1 -1.1191218136597701e-032 2.9849999999999999 0.39000000000000001 #
edge $-1 $109 -1.1191218136597701e-032 $234 2.9849999999999999 $216 $235 forward 7 unknown #
point $-1 -1.1191218136597701e-032 2.9849999999999999 -0.39000000000000001 #
plane-surface $-1 2.9849999999999999 0 0 -1 0 0 0 0 1 forward_v I I I I #
coedge $-1 $117 $115 $119 $180 reversed $77 $-1 #
edge $-1 $130 -0.39000000000000001 $182 0.39000000000000001 $129 $236 forward 7 unknown #
vertex $-1 $180 $237 #
straight-curve $-1 -2.9849999999999999 -2.9849999999999999 0 0 0 -1 I I #
edge $-1 $178 -2.9849999999999999 $182 2.9849999999999999 $176 $238 forward 7 unknown #
straight-curve $-1 0 -2.9849999999999999 -0.39000000000000001 -1 0 0 I I #
vertex $-1 $122 $239 #
straight-curve $-1 0 2.9849999999999999 -0.39000000000000001 1 0 0 I I #
point $-1 2.9849999999999999 2.9849999999999999 -0.39000000000000001 #
point $-1 2.9849999999999999 -2.9849999999999999 -0.39000000000000001 #
straight-curve $-1 -2.9849999999999999 0 0.39000000000000001 0 -1 0 I I #
point $-1 -2.9849999999999999 2.9849999999999999 0.39000000000000001 #
point $-1 -2.9849999999999999 -2.9849999999999999 0.39000000000000001 #
straight-curve $-1 2.9849999999999999 -2.9849999999999999 0 0 0 -1 I I #
straight-curve $-1 2.9849999999999999 2.9849999999999999 0 0 0 -1 I I #
face $-1 $240 $241 $17 $-1 $242 reversed single #
plane-surface $-1 0 2.9849999999999999 0 0 -1 0 0 0 -1 forward_v I I I I #
coedge $-1 $142 $203 $143 $198 forward $96 $-1 #
coedge $-1 $243 $244 $142 $195 forward $245 $-1 #
edge $-1 $205 -3.1415926535897931 $202 -1.5707963267948966 $194 $160 forward 7 unknown #
coedge $-1 $144 $143 $246 $247 reversed $66 $-1 #
coedge $-1 $248 $249 $250 $198 forward $251 $-1 #
edge $-1 $252 -0.78000000000000003 $202 0 $197 $253 forward 7 unknown #
coedge $-1 $200 $145 $254 $219 forward $201 $-1 #
coedge $-1 $145 $199 $248 $255 forward $201 $-1 #
loop $-1 $-1 $145 $256 #
vertex $-1 $257 $258 #
coedge $-1 $193 $147 $259 $260 reversed $96 $-1 #
coedge $-1 $261 $262 $263 $148 forward $241 $-1 #
vertex $-1 $264 $265 #
straight-curve $-1 -2.9849999999999999 0 -0.39000000000000001 0 0 -1 I I #
coedge $-1 $266 $263 $150 $208 reversed $267 $-1 #
edge $-1 $232 -2.9849999999999999 $152 0 $207 $268 forward 7 unknown #
face $-1 $224 $151 $17 $-1 $269 forward single #
edge $-1 $152 0 $270 2.9849999999999999 $262 $268 forward 7 unknown #
point $-1 -2.9849999999999999 0 0.39000000000000001 #
coedge $-1 $271 $154 $157 $217 reversed $140 $-1 #
coedge $-1 $154 $271 $161 $221 reversed $140 $-1 #
coedge $-1 $272 $254 $144 $155 reversed $273 $-1 #
straight-curve $-1 2.9849999999999999 0 -0.39000000000000001 0 0 -1 I I #
coedge $-1 $169 $274 $156 $173 reversed $231 $-1 #
edge $-1 $234 -2.9849999999999999 $159 0 $212 $275 forward 7 unknown #
face $-1 $276 $158 $17 $-1 $277 reversed single #
edge $-1 $159 0 $278 2.9849999999999999 $254 $275 forward 7 unknown #
point $-1 2.9849999999999999 0 -0.39000000000000001 #
edge $-1 $164 0 $279 2.9849999999999999 $213 $280 forward 7 unknown #
coedge $-1 $274 $169 $162 $223 reversed $231 $-1 #
edge $-1 $279 -2.9849999999999999 $108 1.1191218136597701e-032 $222 $233 forward 7 unknown #
face $-1 $281 $163 $17 $-1 $269 forward single #
point $-1 2.9849999999999999 0 0.39000000000000001 #
coedge $-1 $227 $165 $282 $264 forward $228 $-1 #
coedge $-1 $165 $226 $167 $230 forward $228 $-1 #
loop $-1 $-1 $165 $276 #
coedge $-1 $168 $167 $266 $283 reversed $170 $-1 #
edge $-1 $284 -2.9849999999999999 $109 -1.1191218136597701e-032 $167 $235 forward 7 unknown #
loop $-1 $-1 $169 $285 #
vertex $-1 $171 $286 #
straight-curve $-1 0 2.9849999999999999 0.39000000000000001 -1 0 0 I I #
vertex $-1 $217 $287 #
straight-curve $-1 0 2.9849999999999999 -0.39000000000000001 1 0 0 I I #
straight-curve $-1 -2.9849999999999999 2.9849999999999999 0 0 0 -1 I I #
point $-1 -2.9849999999999999 -2.9849999999999999 -0.39000000000000001 #
straight-curve $-1 -2.9849999999999999 0 -0.39000000000000001 0 1 0 I I #
point $-1 -2.9849999999999999 2.9849999999999999 -0.39000000000000001 #
face $-1 $209 $288 $17 $-1 $269 forward single #
loop $-1 $-1 $204 $191 #
plane-surface $-1 -2.9849999999999999 0 0 1 0 0 0 0 -1 forward_v I I I I #
coedge $-1 $244 $194 $289 $257 forward $245 $-1 #
coedge $-1 $194 $243 $261 $290 forward $245 $-1 #
loop $-1 $-1 $194 $291 #
coedge $-1 $292 $293 $196 $247 forward $294 $-1 #
edge $-1 $164 0 $252 1.5707963267948966 $246 $153 forward 7 unknown #
coedge $-1 $295 $197 $200 $255 reversed $251 $-1 #
coedge $-1 $197 $295 $292 $296 reversed $251 $-1 #
coedge $-1 $297 $289 $193 $198 reversed $298 $-1 #
loop $-1 $-1 $197 $299 #
vertex $-1 $296 $300 #
straight-curve $-1 -1.1191218136597701e-032 -2.9849999999999999 -0.39000000000000001 0 0 -1 I I #
coedge $-1 $214 $301 $199 $219 reversed $273 $-1 #
edge $-1 $278 -2.9849999999999999 $202 1.1191218136597701e-032 $248 $302 forward 7 unknown #
face $-1 $218 $201 $17 $-1 $277 reversed single #
edge $-1 $202 1.1191218136597701e-032 $303 2.9849999999999999 $289 $302 forward 7 unknown #
point $-1 -1.1191218136597701e-032 -2.9849999999999999 -0.39000000000000001 #
coedge $-1 $304 $305 $203 $260 forward $288 $-1 #
edge $-1 $252 1.5707963267948966 $152 3.1415926535897931 $259 $153 forward 7 unknown #
coedge $-1 $306 $204 $244 $290 reversed $241 $-1 #
coedge $-1 $204 $306 $304 $210 reversed $241 $-1 #
coedge $-1 $207 $282 $98 $148 reversed $267 $-1 #
edge $-1 $205 0 $284 2.9849999999999999 $282 $307 forward 7 unknown #
point $-1 -2.9849999999999999 0 -0.39000000000000001 #
coedge $-1 $282 $207 $229 $283 forward $267 $-1 #
loop $-1 $-1 $263 $308 #
straight-curve $-1 -2.9849999999999999 0 0.39000000000000001 0 -1 0 I I #
plane-surface $-1 0 0 0.39000000000000001 0 0 1 1 0 0 forward_v I I I I #
vertex $-1 $210 $309 #
coedge $-1 $213 $212 $274 $310 reversed $140 $-1 #
coedge $-1 $301 $214 $293 $311 reversed $273 $-1 #
loop $-1 $-1 $214 $312 #
coedge $-1 $216 $222 $271 $310 forward $231 $-1 #
straight-curve $-1 2.9849999999999999 0 -0.39000000000000001 0 -1 0 I I #
face $-1 $313 $228 $17 $-1 $277 reversed single #
plane-surface $-1 0 0 -0.39000000000000001 0 0 1 1 0 0 forward_v I I I I #
vertex $-1 $314 $315 #
vertex $-1 $221 $316 #
straight-curve $-1 2.9849999999999999 0 0.39000000000000001 0 1 0 I I #
face $-1 $299 $294 $17 $-1 $269 forward single #
coedge $-1 $263 $266 $226 $264 reversed $267 $-1 #
edge $-1 $232 -0.39000000000000001 $284 0.39000000000000001 $229 $317 forward 7 unknown #
vertex $-1 $230 $318 #
face $-1 $312 $231 $17 $-1 $192 reversed single #
point $-1 -2.9849999999999999 2.9849999999999999 0.39000000000000001 #
point $-1 2.9849999999999999 2.9849999999999999 -0.39000000000000001 #
loop $-1 $-1 $259 $240 #
coedge $-1 $250 $319 $243 $257 reversed $298 $-1 #
edge $-1 $303 -2.9849999999999999 $205 0 $261 $307 forward 7 unknown #
face $-1 $256 $245 $17 $-1 $277 reversed single #
coedge $-1 $293 $246 $249 $296 forward $294 $-1 #
coedge $-1 $246 $292 $272 $311 forward $294 $-1 #
loop $-1 $-1 $246 $281 #
coedge $-1 $249 $248 $301 $314 reversed $251 $-1 #
edge $-1 $252 -1.1191218136597701e-032 $320 2.9849999999999999 $249 $321 forward 7 unknown #
coedge $-1 $319 $250 $305 $322 reversed $298 $-1 #
loop $-1 $-1 $250 $313 #
face $-1 $291 $251 $17 $-1 $323 reversed single #
point $-1 -1.1191218136597701e-032 -2.9849999999999999 0.39000000000000001 #
coedge $-1 $254 $272 $295 $314 forward $273 $-1 #
straight-curve $-1 0 -2.9849999999999999 -0.39000000000000001 -1 0 0 I I #
vertex $-1 $290 $324 #
coedge $-1 $305 $259 $262 $210 forward $288 $-1 #
coedge $-1 $259 $304 $297 $322 forward $288 $-1 #
coedge $-1 $262 $261 $319 $325 reversed $241 $-1 #
straight-curve $-1 -2.9849999999999999 0 -0.39000000000000001 0 1 0 I I #
face $-1 $285 $267 $17 $-1 $242 reversed single #
point $-1 -2.9849999999999999 -2.9849999999999999 0.39000000000000001 #
edge $-1 $279 -0.39000000000000001 $234 0.39000000000000001 $271 $326 forward 7 unknown #
edge $-1 $320 -2.9849999999999999 $164 0 $272 $280 forward 7 unknown #
face $-1 $-1 $273 $17 $-1 $141 reversed single #
face $-1 $308 $298 $17 $-1 $323 reversed single #
edge $-1 $320 -0.39000000000000001 $278 0.39000000000000001 $301 $327 forward 7 unknown #
point $-1 2.9849999999999999 -2.9849999999999999 -0.39000000000000001 #
point $-1 2.9849999999999999 2.9849999999999999 0.39000000000000001 #
straight-curve $-1 -2.9849999999999999 2.9849999999999999 0 0 0 -1 I I #
point $-1 -2.9849999999999999 2.9849999999999999 -0.39000000000000001 #
coedge $-1 $289 $297 $306 $325 forward $298 $-1 #
vertex $-1 $311 $328 #
straight-curve $-1 0 -2.9849999999999999 0.39000000000000001 1 0 0 I I #
edge $-1 $270 -2.9849999999999999 $252 -1.1191218136597701e-032 $297 $321 forward 7 unknown #
plane-surface $-1 0 -2.9849999999999999 0 0 1 0 0 0 1 forward_v I I I I #
point $-1 -2.9849999999999999 -2.9849999999999999 -0.39000000000000001 #
edge $-1 $270 -0.39000000000000001 $303 0.39000000000000001 $306 $329 forward 7 unknown #
straight-curve $-1 2.9849999999999999 2.9849999999999999 0 0 0 -1 I I #
straight-curve $-1 2.9849999999999999 -2.9849999999999999 0 0 0 -1 I I #
point $-1 2.9849999999999999 -2.9849999999999999 0.39000000000000001 #
straight-curve $-1 -2.9849999999999999 -2.9849999999999999 0 0 0 -1 I I #
End-of-ACIS-data 