600 0 1 0           
114 GICL ACIS Healer - Source: /gicl/data5/repository/NIST/Manfred_Osti/suitcase/flange_blank6/flange_blank6.sat - 6 0 18 ACIS 6.0.3 Solaris 24 Sun Apr 14 00:36:45 2002 
1 9.999999999999999547e-07 1.000000000000000036e-10 
body $-1 $1 $-1 $-1 #
lump $-1 $-1 $2 $0 #
shell $-1 $-1 $-1 $3 $-1 $1 #
face $-1 $4 $5 $2 $-1 $6 reversed single #
face $-1 $7 $8 $2 $-1 $9 forward single #
loop $-1 $-1 $10 $3 #
plane-surface $-1 0 0 0 0 0 1 1 0 0 forward_v I I I I #
face $-1 $-1 $11 $2 $-1 $12 forward single #
loop $-1 $-1 $13 $4 #
plane-surface $-1 0 0 0.7800000000000000266 0 0 1 1 0 0 forward_v I I I I #
coedge $-1 $10 $10 $14 $15 forward $5 $-1 #
loop $-1 $16 $17 $7 #
cone-surface $-1 0 0 0 0 0 1 2.984999999999999876 0 0 1 I I 0 1 2.984999999999999876 forward I I I I #
coedge $-1 $13 $13 $17 $18 reversed $8 $-1 #
coedge $-1 $14 $14 $10 $15 reversed $16 $-1 #
edge $-1 $19 -3.141592653589793116 $19 3.141592653589793116 $14 $20 forward 7 unknown #
loop $-1 $-1 $14 $7 #
coedge $-1 $17 $17 $13 $18 forward $11 $-1 #
edge $-1 $21 0 $21 6.283185307179586232 $17 $22 forward 7 unknown #
vertex $-1 $15 $23 #
ellipse-curve $-1 0 0 0 0 0 -1 -2.984999999999999876 0 0 1 I I #
vertex $-1 $18 $24 #
ellipse-curve $-1 0 0 0.7800000000000000266 0 0 -1 2.984999999999999876 0 0 1 I I #
point $-1 2.984999999999999876 0 0 #
point $-1 2.984999999999999876 0 0.7800000000000000266 #
End-of-ACIS-data 