**ABCDEFGHIJKLMNOPQRSTUVWXYZabcdefghijklmnopqrstuvwxyz**************************
**PARASOLID !"#$%&'()*+,-./:;<=>?@[\]^_`{|}~0123456789**************************
**PART1;MC=sun;MC_MODEL=sun3;MC_ID=giskard;OS=SunOS;OS_RELEASE=4.1;FRU=sdl_paras
olid_test_sun;APPL=unknown;SITE=sdl-cambridge-u.k.;USER=kramer;FORMAT=text;GUISE
=transmit;KEY=olps_workpiece_out;FILE=olps_workpiece_out.xmt_txt;DATE=16-sep-199
1;
**PART2;SCH=SCH_301017_3000;USFLD_SIZE=0;
**PART3;
**END_OF_HEADER*****************************************************************
T50 : TRANSMIT FILE created by modeller version 30101715 SCH_301017_30000 12 1 8
98 0 0 0 0 0 1e3 1e-8 2 2 0 0 3 1 4 102 18 2 olps_workpiece_out13 4 260 0 1 0 5
 6 7 8 9 10 14 5 258 0 11 0 12 4 8 +16 6 148 0 13 0 14 9 18 7 131 0 15 0 16 10 5
0 8 259 0 5 17 0 0 +3.125 1.4875 .735 0 0 1 1 0 0 31 9 150 0 6 18 0 0 +2.5083049
25730225 -.04416795708559575 .735 0 0 1 1 0 0 1.49089704190991 29 10 133 0 7 19
 0 1.688422204420485 1.201049418665906 .735 29 19 35 0 20 21 10 6.25 0 0 18 20 7
 0 22 23 24 19 29 21 36 0 16 25 19 6.25 2.975 0 18 16 12 0 26 7 23 21 29 25 37 0
 23 27 21 0 2.975 0 18 23 10 0 28 16 20 25 29 27 38 0 24 29 25 0 0 0 18 24 8 0 3
0 20 31 27 29 29 52 0 32 33 27 6.25 0 .735 18 32 14 0 34 35 36 29 29 33 53 0 35
 37 29 6.25 2.975 .735 18 35 16 0 38 39 32 33 29 37 54 0 39 40 33 0 2.975 .735 1
8 39 18 0 41 31 35 37 29 40 55 0 31 42 37 0 0 .735 18 31 20 0 43 24 39 40 29 42
 62 0 36 44 40 4.98056559892687 2.32020613611648 .735 18 36 60 0 45 32 46 42 29
 44 797 0 46 47 42 3.297314008521695 1.43595618683043 .635 18 46 507 0 48 36 49
 44 29 47 798 0 49 50 44 3.297314008521695 1.43595618683043 .735 18 49 508 0 51
 46 52 47 29 50 799 0 52 53 47 3.439198520773445 1.17006249261638 .635 18 52 509
 0 54 49 55 50 29 53 800 0 55 56 50 3.439198520773445 1.17006249261638 .735 18 5
5 510 0 57 52 58 53 29 56 801 0 58 59 53 1.79182724913829 1.494598620062076 .635
 18 58 511 0 60 55 61 56 29 59 802 0 61 62 56 1.79182724913829 1.494598620062076
 .735 18 61 512 0 63 58 64 59 29 62 803 0 64 65 59 1.80075962554094 1.3371803420
35154 .635 18 64 513 0 66 61 67 62 29 65 804 0 67 68 62 1.80075962554094 1.33718
0342035154 .735 18 67 514 0 69 64 70 65 29 68 805 0 70 71 65 2.39835986197585 1.
442669901539098 .635 18 70 515 0 72 67 73 68 29 71 806 0 73 74 68 2.397498937454
295 1.44260573871949 .635 18 73 516 0 75 70 76 71 29 74 807 0 76 77 71 2.8334034
17431885 .388665136173778 .635 18 76 517 0 78 73 79 74 29 77 808 0 79 80 74 2.83
4278204678165 .387986113738511 .635 18 79 518 0 81 76 82 77 29 80 809 0 82 83 77
 4.121088532898845 1.22225330025015 .635 18 82 519 0 84 79 85 80 29 83 810 0 85
 86 80 4.48099623884483 1.52037016341783 .635 18 85 520 0 87 82 88 83 29 86 811
 0 88 89 83 5.06036180490887 1.790048433840945 .635 18 88 521 0 90 85 91 86 29 8
9 812 0 91 92 86 5.0603303232807 1.7901024355836 .635 18 91 522 0 93 88 94 89 29
 92 813 0 94 95 89 4.73082834311026 1.91538789001646 .635 18 94 523 0 96 91 97 9
2 29 95 814 0 97 98 92 4.404117003610095 1.930733277583935 .635 18 97 524 0 99 9
4 100 95 29 98 815 0 100 101 95 3.810633363778785 2.13234574786295 .635 18 100 5
25 0 102 97 103 98 29 101 816 0 103 104 98 3.81114401769472 2.131944767811585 .6
35 18 103 526 0 105 100 106 101 29 104 817 0 106 107 101 2.52864519750609 2.3809
71333121015 .635 18 106 527 0 108 103 109 104 29 107 818 0 109 110 104 3.1922400
7000427 2.041559278405775 .635 18 109 528 0 111 106 112 107 29 110 819 0 112 113
 107 3.17510676503281 2.056772030010595 .635 18 112 529 0 114 109 115 110 29 113
 820 0 115 116 110 3.14143880544484 1.82565660117538 .635 18 115 530 0 117 112 1
18 113 29 116 821 0 118 119 113 3.14452161496713 1.82657403875474 .635 18 118 53
1 0 120 115 121 116 29 119 822 0 121 122 116 2.39723417798191 1.74969977562265 .
635 18 121 532 0 123 118 124 119 29 122 823 0 124 125 119 2.438650586393135 1.74
6953684710285 .635 18 124 533 0 126 121 127 122 29 125 824 0 127 128 122 1.99820
320172675 1.891833090531085 .635 18 127 534 0 129 124 130 125 29 128 825 0 130 1
31 125 1.397559864423886 2.00464916144746 .635 18 130 535 0 132 127 133 128 29 1
31 826 0 133 134 128 1.397559864423886 2.00464916144746 .735 18 133 536 0 135 13
0 136 131 29 134 827 0 136 137 131 1.99820320172675 1.891833090531085 .735 18 13
6 537 0 138 133 139 134 29 137 828 0 139 140 134 2.39723417798191 1.749699775622
65 .735 18 139 538 0 141 136 142 137 29 140 829 0 142 143 137 2.438650586393135
 1.746953684710285 .735 18 142 539 0 144 139 145 140 29 143 830 0 145 146 140 3.
14143880544484 1.82565660117538 .735 18 145 540 0 147 142 148 143 29 146 831 0 1
48 149 143 3.14452161496713 1.82657403875474 .735 18 148 541 0 150 145 151 146 2
9 149 832 0 151 152 146 3.19224007000427 2.041559278405775 .735 18 151 542 0 153
 148 154 149 29 152 833 0 154 155 149 3.17510676503281 2.056772030010595 .735 18
 154 543 0 156 151 157 152 29 155 834 0 157 158 152 2.52864519750609 2.380971333
121015 .735 18 157 544 0 159 154 160 155 29 158 835 0 160 161 155 3.810633363778
785 2.13234574786295 .735 18 160 545 0 162 157 163 158 29 161 836 0 163 164 158
 3.81114401769472 2.131944767811585 .735 18 163 546 0 165 160 166 161 29 164 837
 0 166 167 161 4.404117003610095 1.930733277583935 .735 18 166 547 0 168 163 169
 164 29 167 838 0 169 170 164 4.73082834311026 1.91538789001646 .735 18 169 548
 0 171 166 172 167 29 170 839 0 172 173 167 5.0603303232807 1.7901024355836 .735
 18 172 549 0 174 169 175 170 29 173 840 0 175 176 170 5.06036180490887 1.790048
433840945 .735 18 175 550 0 177 172 178 173 29 176 841 0 178 179 173 4.480996238
84483 1.52037016341783 .735 18 178 551 0 180 175 181 176 29 179 842 0 181 182 17
6 4.121088532898845 1.22225330025015 .735 18 181 552 0 183 178 184 179 29 182 84
3 0 184 185 179 2.834278204678165 .387986113738511 .735 18 184 553 0 186 181 187
 182 29 185 844 0 187 188 182 2.833403417431885 .388665136173778 .735 18 187 554
 0 189 184 190 185 29 188 845 0 190 191 185 2.39835986197585 1.442669901539098 .
735 18 190 555 0 192 187 193 188 29 191 846 0 193 194 188 2.397498937454295 1.44
260573871949 .735 18 193 556 0 195 190 196 191 29 194 847 0 196 197 191 1.397279
91837709 2.004149479284575 .635 18 196 557 0 198 193 199 194 29 197 848 0 199 20
0 194 1.39727991837709 2.004149479284575 .735 18 199 558 0 201 196 202 197 29 20
0 849 0 202 203 197 1.69451783261028 1.20509052977316 .635 18 202 559 0 204 199
 205 200 29 203 850 0 205 206 200 1.396909118470928 2.00448519004789 .635 18 205
 560 0 207 202 208 203 29 206 851 0 208 209 203 2.459632062454655 2.395219710839
895 .635 18 208 561 0 210 205 211 206 29 209 852 0 211 212 206 5.060384 1.790064
 .635 18 211 562 0 213 208 214 209 29 212 853 0 214 215 209 2.83263225021599 .38
7942450590578 .635 18 214 563 0 216 211 217 212 29 215 854 0 217 218 212 1.39690
9118470928 2.00448519004789 .735 18 217 564 0 219 214 220 215 29 218 855 0 220 2
21 215 2.459632062454655 2.395219710839895 .735 18 220 565 0 222 217 223 218 29
 221 856 0 223 224 218 5.060384 1.790064 .735 18 223 566 0 225 220 226 221 29 22
4 857 0 226 227 221 2.83263225021599 .387942450590578 .735 18 226 567 0 228 223
 229 224 29 227 859 0 229 230 224 1.69451783261028 1.20509052977316 .735 18 229
 569 0 231 226 232 227 29 230 860 0 232 233 227 1.688422204420485 1.201049418665
906 .635 18 232 570 0 234 229 235 230 29 233 861 0 235 236 230 .877 1.4999752768
37404 .635 18 235 571 0 237 232 238 233 29 236 862 0 238 239 233 .877 1.50002472
3162595 .635 18 238 572 0 240 235 241 236 29 239 863 0 241 242 236 1.26945729037
8072 .67977542070256 .635 18 241 573 0 243 238 244 239 29 242 864 0 244 245 239
 1.26943440107313 .679793863883522 .635 18 244 574 0 246 241 247 242 29 245 865
 0 247 248 242 3.336943048605285 .1 .635 18 247 575 0 249 244 250 245 29 248 866
 0 250 251 245 2.913056951394715 .1 .635 18 250 576 0 252 247 253 248 29 251 867
 0 253 254 248 4.98056559892687 .679793863883521 .635 18 253 577 0 255 250 256 2
51 29 254 868 0 256 257 251 4.98054270962193 .67977542070256 .635 18 256 578 0 2
58 253 259 254 29 257 869 0 259 260 254 5.373 1.500024723162595 .635 18 259 579
 0 261 256 262 257 29 260 870 0 262 263 257 5.373 1.499975276837404 .635 18 262
 580 0 264 259 265 260 29 263 871 0 265 266 260 1.26943440107313 2.3202061361164
8 .635 18 265 581 0 267 262 268 263 29 266 872 0 268 269 263 1.269457290378072 2
.32022457929744 .635 18 268 582 0 270 265 271 266 29 269 873 0 271 272 266 2.913
056951394715 2.9 .635 18 271 583 0 273 268 274 269 29 272 874 0 274 275 269 3.33
6943048605285 2.9 .635 18 274 584 0 276 271 277 272 29 275 875 0 277 278 272 2.9
13056951394715 2.9 .735 18 277 585 0 279 274 280 275 29 278 876 0 280 281 275 3.
336943048605285 2.9 .735 18 280 586 0 282 277 283 278 29 281 877 0 283 284 278 5
.373 1.500024723162595 .735 18 283 587 0 285 280 286 281 29 284 878 0 286 287 28
1 5.373 1.499975276837404 .735 18 286 588 0 288 283 289 284 29 287 879 0 289 290
 284 4.98056559892687 .679793863883521 .735 18 289 589 0 291 286 292 287 29 290
 880 0 292 293 287 4.98054270962193 .67977542070256 .735 18 292 590 0 294 289 29
5 290 29 293 881 0 295 296 290 3.336943048605285 .1 .735 18 295 591 0 297 292 29
8 293 29 296 882 0 298 299 293 2.913056951394715 .1 .735 18 298 592 0 300 295 30
1 296 29 299 883 0 301 302 296 1.269457290378072 .67977542070256 .735 18 301 593
 0 303 298 304 299 29 302 884 0 304 305 299 1.26943440107313 .679793863883522 .7
35 18 304 594 0 306 301 307 302 29 305 885 0 307 308 302 .877 1.499975276837404
 .735 18 307 595 0 309 304 310 305 29 308 886 0 310 311 305 .877 1.5000247231625
95 .735 18 310 596 0 312 307 313 308 29 311 887 0 313 314 308 1.26943440107313 2
.32020613611648 .735 18 313 597 0 315 310 316 311 29 314 888 0 316 317 311 1.269
457290378072 2.32022457929744 .735 18 316 598 0 318 313 319 314 29 317 889 0 319
 320 314 4.98054270962193 2.32022457929744 .635 18 319 599 0 321 316 322 317 29
 320 890 0 322 323 317 4.98056559892687 2.32020613611648 .635 18 322 600 0 324 3
19 325 320 29 323 891 0 325 0 320 4.98054270962193 2.32022457929744 .735 18 325
 601 0 326 322 0 323 17 326 327 45 282 325 328 329 15 327 124 0 306 330 331 17 4
5 327 285 326 36 332 333 17 282 327 326 279 280 334 335 17 328 336 337 338 280 3
26 329 16 329 488 0 328 339 340 341 16 339 487 0 342 343 329 344 16 340 490 0 34
5 329 346 347 31 341 778 0 329 347 344 0 +3.336943048605285 .2804 .735 0 0 1 1 0
 0 2.6196 31 347 780 0 340 348 341 0 +4.3197 1.499975276837404 .735 0 0 1 1 0 0
 1.0533 30 344 777 0 339 341 349 0 +4.261 2.9 .635 -1 0 0 30 349 776 0 343 344 3
50 0 +2.913056951394715 2.9 .635 0 0 1 16 343 486 0 351 352 339 349 30 350 775 0
 352 349 353 0 -3.336943048605285 2.9 .635 0 0 1 16 352 485 0 337 354 343 350 30
 353 774 0 354 350 355 0 +1.989 2.9 .635 -.778677881851214 -.627423904800978 0 1
6 354 484 0 356 357 352 353 30 355 773 0 357 353 358 0 +5.373 .996 .635 0 1 0 16
 357 483 0 359 360 354 355 30 358 772 0 360 355 361 0 +4.261 .1 .635 .7786778818
51214 .627423904800978 0 16 360 482 0 362 363 357 358 30 361 771 0 363 358 364 0
 +1.989 .1 .635 1 0 0 16 363 481 0 365 366 360 361 30 364 770 0 366 361 367 0 +.
877 .996 .635 .778677881851214 -.627423904800978 0 16 366 480 0 368 369 363 364
 30 367 769 0 369 364 370 0 +.877 2.004 .635 0 -1 0 16 369 479 0 371 372 366 367
 31 370 768 0 372 367 373 0 -2.913056951394715 .2804 .635 0 0 1 1 0 0 2.6196 16
 372 478 0 374 375 369 370 31 373 767 0 375 370 376 0 -1.9303 1.500024723162595
 .635 0 0 1 1 0 0 1.0533 16 375 477 0 377 378 372 373 31 376 766 0 378 373 379 0
 -1.9303 1.499975276837404 .635 0 0 1 1 0 0 1.0533 16 378 476 0 380 381 375 376
 31 379 765 0 381 376 382 0 -2.913056951394715 2.7196 .635 0 0 1 1 0 0 2.6196 16
 381 475 0 383 384 378 379 31 382 764 0 384 379 385 0 -3.336943048605285 2.7196
 .635 0 0 1 1 0 0 2.6196 16 384 474 0 386 387 381 382 31 385 763 0 387 382 388 0
 -4.3197 1.499975276837404 .635 0 0 1 1 0 0 1.0533 16 387 473 0 389 390 384 385
 31 388 762 0 390 385 391 0 -4.3197 1.500024723162595 .635 0 0 1 1 0 0 1.0533 16
 390 472 0 392 393 387 388 31 391 761 0 393 388 394 0 -3.336943048605285 .2804 .
635 0 0 1 1 0 0 2.6196 16 393 471 0 395 396 390 391 30 394 760 0 396 391 397 0 +
5.373 1.499975276837404 .635 0 0 -1 16 396 470 0 398 399 393 394 30 397 759 0 39
9 394 400 0 -5.373 1.500024723162595 .635 0 0 -1 16 399 469 0 401 402 396 397 30
 400 758 0 402 397 403 0 +4.98054270962193 .67977542070256 .635 0 0 -1 16 402 46
8 0 404 405 399 400 30 403 757 0 405 400 406 0 -4.98056559892687 .67979386388352
1 .635 0 0 -1 16 405 467 0 407 408 402 403 30 406 756 0 408 403 409 0 +2.9130569
51394715 .1 .635 0 0 -1 16 408 466 0 410 411 405 406 30 409 755 0 411 406 412 0
 -3.336943048605285 .1 .635 0 0 -1 16 411 465 0 413 414 408 409 30 412 754 0 414
 409 415 0 +1.26943440107313 .679793863883522 .635 0 0 -1 16 414 464 0 416 417 4
11 412 30 415 753 0 417 412 418 0 -1.269457290378072 .67977542070256 .635 0 0 -1
 16 417 463 0 419 420 414 415 30 418 752 0 420 415 421 0 +.877 1.500024723162595
 .635 0 0 -1 16 420 462 0 422 423 417 418 30 421 751 0 423 418 424 0 -.877 1.499
975276837404 .635 0 0 -1 16 423 461 0 425 426 420 421 30 424 750 0 426 421 427 0
 -1.269457290378072 2.32022457929744 .635 0 0 1 16 426 460 0 428 429 423 424 30
 427 749 0 429 424 430 0 -1.26943440107313 2.32020613611648 .635 0 0 -1 16 429 4
59 0 431 432 426 427 31 430 748 0 432 427 433 0 +2.508304925730225 -.04416795708
559575 .635 0 0 1 1 0 0 1.49089704190991 16 432 458 0 434 435 429 430 31 433 747
 0 435 430 436 0 +1.54003338476201 1.438115490036694 .735 0 0 1 1 0 0 .279581967
824834 16 435 457 0 437 438 432 433 30 436 746 0 438 433 439 0 +2.83263225021599
 .387942450590578 .735 .999648330000954 .02651822630388745 0 16 438 456 0 186 44
0 435 436 30 439 745 0 440 436 441 0 +5.060384 1.790064 .735 -.813051811983883 .
582191335412787 0 16 440 455 0 174 442 438 439 30 441 744 0 442 439 443 0 +2.459
632062454655 2.395219710839895 .735 .979345366497265 -.2021945922133845 0 16 442
 454 0 159 444 440 441 30 443 743 0 444 441 445 0 +1.396909118470928 2.004485190
04789 .735 .74131181374764 -.671160781629994 0 16 444 453 0 201 446 442 443 30 4
45 742 0 446 443 447 0 +2.83263225021599 .387942450590578 .635 .999648330000954
 .02651822630388745 0 16 446 452 0 81 448 444 445 30 447 741 0 448 445 449 0 +5.
060384 1.790064 .635 -.813051811983883 .582191335412787 0 16 448 451 0 93 450 44
6 447 30 449 740 0 450 447 451 0 +2.459632062454655 2.395219710839895 .635 .9793
45366497265 -.2021945922133845 0 16 450 450 0 108 452 448 449 30 451 739 0 452 4
49 453 0 +1.396909118470928 2.00448519004789 .635 .74131181374764 -.671160781629
994 0 16 452 449 0 198 454 450 451 30 453 738 0 454 451 455 0 +2.83263225021599
 .387942450590578 .635 0 0 1 16 454 448 0 456 457 452 453 30 455 737 0 457 453 4
58 0 +5.060384 1.790064 .635 0 0 1 16 457 447 0 459 460 454 455 30 458 736 0 460
 455 461 0 +2.459632062454655 2.395219710839895 .635 0 0 1 16 460 446 0 462 463
 457 458 30 461 735 0 463 458 464 0 +1.396909118470928 2.00448519004789 .635 0 0
 1 16 463 445 0 465 466 460 461 30 464 734 0 466 461 467 0 +1.688422204420485 1.
201049418665906 .635 0 0 1 16 466 444 0 468 469 463 464 30 467 733 0 469 464 470
 0 +1.768649409895385 1.25423623404475 .735 -.833476357851278 -.552555120239573
 0 16 469 443 0 15 471 466 467 30 470 732 0 471 467 472 0 +1.768649409895385 1.2
5423623404475 .635 -.833476357851278 -.552555120239573 0 16 471 442 0 234 473 46
9 470 30 472 731 0 473 470 474 0 -1.69451783261028 1.20509052977316 .635 0 0 1 1
6 473 441 0 475 476 471 472 30 474 730 0 476 472 477 0 -1.39727991837709 2.00414
9479284575 .635 0 0 -1 16 476 440 0 478 479 473 474 30 477 729 0 479 474 480 0 +
2.01161311009637 1.4138465128987 .735 .997234318675995 .0743216903388464 0 16 47
9 439 0 192 481 476 477 30 480 728 0 481 477 482 0 +3.198694930884135 .730991553
836924 .735 -.729671119604301 -.683798257686729 0 16 481 438 0 228 483 479 480 3
0 482 727 0 483 480 484 0 +4.79465532725727 1.603699602586555 .735 .818718717684
123 .574194793875445 0 16 483 437 0 225 485 481 482 30 484 726 0 485 482 486 0 +
4.07220839183292 1.92694955895453 .735 -.786503883660114 .617585330936185 0 16 4
85 436 0 162 487 483 484 30 486 725 0 487 484 488 0 +2.89521452290488 2.30528982
402067 .735 .747774435704111 -.663952854732472 0 16 487 435 0 153 489 485 486 30
 488 724 0 489 486 490 0 +3.361606410547175 1.89117801377593 .735 -.958457625018
392 -.2852349576123215 0 16 489 434 0 147 491 487 488 30 490 723 0 491 488 492 0
 +2.79711319561063 1.72318602953794 .735 -.997809083250941 .0661591519135304 0 1
6 491 433 0 141 493 489 490 30 492 722 0 493 490 494 0 +1.723922215118615 2.0868
84158325705 .735 -.969690315061936 -.244337252327766 0 16 493 432 0 219 495 491
 492 31 494 721 0 495 492 496 0 -2.79529104214335 1.857671584885165 .735 0 0 -1
 -1 0 0 1.470202497257462 16 495 431 0 183 497 493 494 31 496 720 0 497 494 498
 0 -4.012364006442945 3.2843416995544 .735 0 0 -1 -1 0 0 1.825160746220995 16 49
7 430 0 177 499 495 496 31 498 719 0 499 496 500 0 -4.65826269676464 1.228600069
618016 .735 0 0 -1 -1 0 0 .690610804489187 16 499 429 0 171 501 497 498 31 500 7
18 0 501 498 502 0 -4.436091839376585 -.874106191342871 .735 0 0 -1 -1 0 0 2.805
021717664925 16 501 428 0 168 503 499 500 31 502 717 0 503 500 504 0 -2.87860424
214645 .945393132364534 .735 0 0 -1 -1 0 0 1.5091503553355 16 503 427 0 222 505
 501 502 31 504 716 0 505 502 506 0 -1.57569324096523 1.297699204468694 .735 0 0
 -1 -1 0 0 .729047146287743 16 505 426 0 135 507 503 504 30 506 715 0 507 504 50
8 0 +1.723922215118615 2.086884158325705 .635 -.969690315061936 -.24433725232776
6 0 16 507 425 0 207 509 505 506 30 508 714 0 509 506 510 0 -1.397559864423886 2
.00464916144746 .635 0 0 1 16 509 424 0 511 512 507 508 30 510 713 0 512 508 513
 0 +2.79711319561063 1.72318602953794 .635 -.997809083250941 .0661591519135304 0
 16 512 423 0 123 514 509 510 30 513 712 0 514 510 515 0 +3.361606410547175 1.89
117801377593 .635 -.958457625018392 -.2852349576123215 0 16 514 422 0 117 516 51
2 513 30 515 711 0 516 513 517 0 +2.89521452290488 2.30528982402067 .635 .747774
435704111 -.663952854732472 0 16 516 421 0 111 518 514 515 30 517 710 0 518 515
 519 0 +4.07220839183292 1.92694955895453 .635 -.786503883660114 .61758533093618
5 0 16 518 420 0 102 520 516 517 30 519 709 0 520 517 521 0 +4.79465532725727 1.
603699602586555 .635 .818718717684123 .574194793875445 0 16 520 419 0 213 522 51
8 519 30 521 708 0 522 519 523 0 +3.198694930884135 .730991553836924 .635 -.7296
71119604301 -.683798257686729 0 16 522 418 0 216 524 520 521 30 523 707 0 524 52
1 525 0 +2.01161311009637 1.4138465128987 .635 .997234318675995 .074321690338846
4 0 16 524 417 0 72 526 522 523 31 525 706 0 526 523 527 0 +2.79529104214335 1.8
57671584885165 .635 0 0 -1 -1 0 0 1.470202497257462 16 526 416 0 528 529 524 525
 31 527 705 0 529 525 530 0 +4.012364006442945 3.2843416995544 .635 0 0 -1 -1 0
 0 1.825160746220995 16 529 415 0 531 532 526 527 31 530 704 0 532 527 533 0 +4.
65826269676464 1.228600069618016 .635 0 0 -1 -1 0 0 .690610804489187 16 532 414
 0 534 535 529 530 31 533 703 0 535 530 536 0 +4.436091839376585 -.8741061913428
71 .635 0 0 -1 -1 0 0 2.805021717664925 16 535 413 0 537 538 532 533 31 536 702
 0 538 533 539 0 +2.87860424214645 .945393132364534 .635 0 0 -1 -1 0 0 1.5091503
553355 16 538 412 0 540 541 535 536 31 539 701 0 541 536 542 0 +1.57569324096523
 1.297699204468694 .635 0 0 -1 -1 0 0 .729047146287743 16 541 411 0 543 544 538
 539 30 542 700 0 544 539 545 0 +2.438650586393135 1.746953684710285 .635 0 0 -1
 16 544 410 0 546 547 541 542 30 545 699 0 547 542 548 0 -2.39723417798191 1.749
69977562265 .635 0 0 -1 16 547 409 0 549 550 544 545 30 548 698 0 550 545 551 0
 +3.14452161496713 1.82657403875474 .635 0 0 -1 16 550 408 0 552 553 547 548 30
 551 697 0 553 548 554 0 -3.14143880544484 1.82565660117538 .635 0 0 -1 16 553 4
07 0 555 556 550 551 30 554 696 0 556 551 557 0 +3.17510676503281 2.056772030010
595 .635 0 0 -1 16 556 406 0 558 559 553 554 30 557 695 0 559 554 560 0 -3.19224
007000427 2.041559278405775 .635 0 0 -1 16 559 405 0 561 562 556 557 30 560 694
 0 562 557 563 0 -2.52864519750609 2.380971333121015 .635 0 0 -1 16 562 404 0 56
4 565 559 560 30 563 693 0 565 560 566 0 +3.81114401769472 2.131944767811585 .63
5 0 0 -1 16 565 403 0 567 568 562 563 30 566 692 0 568 563 569 0 +3.810633363778
785 2.132345747862945 .635 0 0 1 16 568 402 0 570 571 565 566 30 569 691 0 571 5
66 572 0 -5.0603303232807 1.7901024355836 .635 0 0 -1 16 571 401 0 573 574 568 5
69 30 572 690 0 574 569 575 0 -5.06036180490887 1.790048433840945 .635 0 0 1 16
 574 400 0 576 577 571 572 30 575 689 0 577 572 578 0 -2.834278204678165 .387986
113738511 .635 0 0 -1 16 577 399 0 579 580 574 575 30 578 688 0 580 575 581 0 -2
.833403417431885 .388665136173778 .635 0 0 1 16 580 398 0 582 583 577 578 30 581
 687 0 583 578 584 0 +2.397498937454295 1.44260573871949 .635 0 0 -1 16 583 397
 0 585 586 580 581 30 584 686 0 586 581 587 0 -2.39835986197585 1.44266990153909
6 .635 0 0 -1 16 586 396 0 588 589 583 584 31 587 685 0 589 584 590 0 -1.5400333
8476201 1.438115490036694 .635 0 0 -1 -1 0 0 .279581967824834 16 589 395 0 591 5
92 586 587 31 590 684 0 592 587 593 0 +1.622865411625875 1.406048664442944 .735
 0 0 -1 -1 0 0 .190759527090319 16 592 394 0 69 594 589 590 31 593 683 0 594 590
 595 0 -1.622865411625875 1.406048664442944 .635 0 0 -1 -1 0 0 .190759527090319
 16 594 393 0 596 597 592 593 31 595 682 0 597 593 598 0 +.163169551132169 .6410
474927751 .735 0 0 -1 -1 0 0 1.83877008464013 16 597 392 0 63 599 594 595 31 598
 681 0 599 595 600 0 -.163169551132169 .6410474927751 .635 0 0 -1 -1 0 0 1.83877
008464013 16 599 391 0 601 602 597 598 31 600 680 0 602 598 603 0 +2.44865739278
271 2.525262178315905 .735 0 0 -1 -1 0 0 .777265326315141 16 602 390 0 138 604 5
99 600 31 603 679 0 604 600 605 0 -2.44865739278271 2.525262178315905 .635 0 0 -
1 -1 0 0 .777265326315141 16 604 389 0 606 607 602 603 31 605 678 0 607 603 608
 0 +2.570968890220195 3.742571851212165 .735 0 0 -1 -1 0 0 2 16 607 388 0 144 60
9 604 605 31 608 677 0 609 605 610 0 -2.570968890220195 3.742571851212165 .635 0
 0 -1 -1 0 0 2 16 609 387 0 611 612 607 608 31 610 676 0 612 608 613 0 +3.108582
010307975 1.94733969950706 .735 0 0 -1 -1 0 0 .126 16 612 386 0 150 614 609 610
 31 613 675 0 614 610 615 0 -3.108582010307975 1.94733969950706 .635 0 0 -1 -1 0
 0 .126 16 614 385 0 616 617 612 613 31 615 674 0 617 613 618 0 +2.2455727684073
5 1.009887820024842 .735 0 0 -1 -1 0 0 1.4 16 617 384 0 156 619 614 615 31 618 6
73 0 619 615 620 0 -2.24557276840735 1.009887820024842 .635 0 0 -1 -1 0 0 1.4 16
 619 383 0 621 622 617 618 31 620 672 0 622 618 623 0 +4.393370502703365 2.87341
864792289 .735 0 0 -1 -1 0 0 .942746622763948 16 622 382 0 165 624 619 620 31 62
3 671 0 624 620 625 0 -4.393370502703365 2.87341864792289 .635 0 0 -1 -1 0 0 .94
2746622763948 16 624 381 0 626 627 622 623 31 625 670 0 627 623 628 0 +4.6242649
1489616 .981094695148705 .735 0 0 -1 -1 0 0 .557982028576533 16 627 380 0 180 62
9 624 625 31 628 669 0 629 625 630 0 -4.62426491489616 .981094695148705 .635 0 0
 -1 -1 0 0 .557982028576533 16 629 379 0 631 632 627 628 31 630 668 0 632 628 63
3 0 +.689822931716619 2.67604852066079 .735 0 0 -1 -1 0 0 3.134814196466285 16 6
32 378 0 189 634 629 630 31 633 667 0 634 630 635 0 -.689822931716619 2.67604852
066079 .635 0 0 -1 -1 0 0 3.134814196466285 16 634 377 0 636 637 632 633 31 635
 666 0 637 633 638 0 +3.28124822572707 1.256580660018506 .735 0 0 -1 -1 0 0 .180
093556230809 16 637 376 0 57 639 634 635 31 638 665 0 639 635 640 0 -3.281248225
72707 1.256580660018506 .635 0 0 -1 -1 0 0 .180093556230809 16 639 375 0 641 642
 637 638 31 640 664 0 642 638 643 0 +2.806920526162005 -4.039319457555685 .735 0
 0 -1 -1 0 0 5.49719284267422 16 642 374 0 51 644 639 640 31 643 663 0 644 640 6
45 0 -2.806920526162005 -4.039319457555685 .635 0 0 -1 -1 0 0 5.49719284267422 1
6 644 373 0 646 647 642 643 30 645 661 0 647 643 648 0 +1.80075962554094 1.33718
0342035154 .635 0 0 -1 16 647 371 0 649 650 644 645 30 648 660 0 650 645 651 0 +
1.79182724913829 1.494598620062076 .635 0 0 -1 16 650 370 0 652 653 647 648 30 6
51 659 0 653 648 654 0 +1.998203201726755 1.891833090531085 .635 0 0 -1 16 653 3
69 0 655 656 650 651 30 654 658 0 656 651 657 0 +4.404117003610095 1.93073327758
3935 .635 0 0 -1 16 656 368 0 658 659 653 654 30 657 657 0 659 654 660 0 +4.7308
2834311026 1.91538789001646 .635 0 0 -1 16 659 367 0 661 662 656 657 30 660 656
 0 662 657 663 0 +4.480996238844825 1.520370163417825 .635 0 0 -1 16 662 366 0 6
64 665 659 660 30 663 655 0 665 660 666 0 +4.121088532898845 1.22225330025015 .6
35 0 0 -1 16 665 365 0 667 668 662 663 30 666 654 0 668 663 669 0 +3.43919852077
345 1.17006249261638 .635 0 0 -1 16 668 364 0 670 671 665 666 30 669 653 0 671 6
66 672 0 +3.297314008521705 1.43595618683043 .635 0 0 -1 16 671 363 0 673 674 66
8 669 31 672 74 0 674 669 675 0 +4.3197 1.500024723162595 .735 0 0 1 1 0 0 1.053
3 16 674 72 0 676 677 671 672 30 675 59 0 677 672 678 0 +3.125 0 .735 -1 0 0 16
 677 31 0 679 680 674 675 30 678 58 0 681 675 682 0 +0 1.4875 .735 0 1 0 16 681
 28 0 683 684 685 678 30 682 57 0 685 678 686 0 +3.125 2.975 .735 1 0 0 16 685 2
5 0 687 681 680 682 30 686 56 0 680 682 688 0 +6.25 1.4875 .735 0 -1 0 16 680 22
 0 689 685 677 686 30 688 50 0 690 686 691 0 +0 0 0 0 0 1 16 690 21 0 43 692 684
 688 30 691 49 0 693 688 694 0 +0 2.975 0 0 0 1 16 693 19 0 41 695 692 691 30 69
4 48 0 696 691 697 0 +6.25 2.975 0 0 0 1 16 696 17 0 38 698 695 694 30 697 47 0
 684 694 699 0 +6.25 0 0 0 0 1 16 684 15 0 34 690 681 697 30 699 42 0 695 697 70
0 0 +0 1.4875 0 0 -1 0 16 695 11 0 30 696 693 699 30 700 41 0 698 699 701 0 +3.1
25 2.975 0 -1 0 0 16 698 13 0 28 14 696 700 30 701 40 0 14 700 18 0 +6.25 1.4875
 0 0 1 0 16 14 3 0 26 6 698 701 30 18 39 0 692 701 9 0 +3.125 0 0 1 0 0 16 692 9
 0 22 693 690 18 17 22 702 34 703 20 704 692 15 702 29 0 34 705 0 17 34 702 679
 22 32 706 684 17 703 702 22 679 24 43 690 17 704 707 708 709 24 22 692 15 707 5
 0 709 710 0 17 708 707 711 704 23 30 695 17 709 707 704 711 20 26 14 17 711 707
 709 708 16 28 698 17 26 712 38 706 16 709 14 15 712 4 0 26 11 0 17 38 712 689 2
6 35 713 696 17 706 712 26 689 20 34 684 17 689 712 706 38 32 714 680 17 714 331
 715 716 35 689 680 15 331 32 0 716 330 0 17 715 331 717 714 39 687 685 17 716 3
31 714 717 32 679 677 17 717 331 716 715 31 683 681 17 679 702 703 34 31 716 677
 17 683 718 719 43 39 717 681 15 718 26 0 43 720 0 17 719 718 30 683 23 41 693 1
7 43 718 683 30 31 703 690 17 30 718 43 719 24 708 695 17 41 721 687 28 39 719 6
93 15 721 23 0 41 722 0 17 687 721 713 41 35 715 685 17 28 721 41 713 23 711 698
 17 713 721 28 687 16 38 696 14 722 24 0 720 710 721 4 723 +14 720 27 0 705 722
 718 4 724 +14 710 6 0 722 11 707 4 17 +50 723 44 0 722 724 725 0 +3.125 2.975 0
 0 1 0 0 0 1 50 724 45 0 720 726 723 0 +0 1.4875 0 -1 0 0 0 0 1 50 725 43 0 11 7
23 17 0 +6.25 1.4875 0 1 0 0 0 0 -1 14 11 1 0 710 5 712 4 725 +50 17 34 0 710 72
5 8 0 +3.125 1.4875 0 0 0 -1 -1 0 0 50 726 46 0 705 727 724 0 +3.125 0 0 0 -1 0
 0 0 -1 14 705 30 0 330 720 702 4 726 +50 727 51 0 330 728 726 0 +3.125 1.4875 .
735 0 0 1 1 0 0 14 330 33 0 729 705 327 4 727 +51 728 603 0 729 730 727 0 +2.508
304925730225 -.04416795708559575 .635 0 0 1 1.49089704190991 1 0 0 14 729 261 0
 731 330 732 4 728 -51 730 604 0 731 733 728 0 +2.806920526162005 -4.03931945755
5685 .635 0 0 1 5.49719284267422 1 0 0 14 731 263 0 734 729 735 4 730 -51 733 60
5 0 734 736 730 0 +3.28124822572707 1.256580660018506 .635 0 0 1 .18009355623080
9 1 0 0 14 734 265 0 737 731 738 4 733 -51 736 606 0 737 739 733 0 +.68982293171
6619 2.67604852066079 .635 0 0 -1 3.134814196466285 -1 0 0 14 737 267 0 740 734
 741 4 736 -51 739 607 0 740 742 736 0 +2.79529104214335 1.857671584885165 .635
 0 0 -1 1.470202497257462 -1 0 0 14 740 269 0 743 737 744 4 739 +51 742 608 0 74
3 745 739 0 +4.62426491489616 .981094695148705 .635 0 0 1 .557982028576533 1 0 0
 14 743 271 0 746 740 747 4 742 -51 745 609 0 746 748 742 0 +4.012364006442945 3
.2843416995544 .635 0 0 1 1.825160746220995 1 0 0 14 746 273 0 749 743 750 4 745
 +51 748 610 0 749 751 745 0 +4.65826269676464 1.228600069618016 .635 0 0 -1 .69
0610804489187 -1 0 0 14 749 275 0 752 746 753 4 748 +51 751 611 0 752 754 748 0
 +4.436091839376585 -.874106191342871 .635 0 0 -1 2.805021717664925 -1 0 0 14 75
2 277 0 755 749 756 4 751 +51 754 612 0 755 757 751 0 +4.393370502703365 2.87341
864792289 .635 0 0 1 .942746622763948 1 0 0 14 755 279 0 758 752 759 4 754 -51 7
57 613 0 758 760 754 0 +2.87860424214645 .945393132364534 .635 0 0 1 1.509150355
3355 1 0 0 14 758 281 0 761 755 762 4 757 +51 760 614 0 761 763 757 0 +2.2455727
6840735 1.009887820024842 .635 0 0 1 1.4 1 0 0 14 761 283 0 764 758 765 4 760 -5
1 763 615 0 764 766 760 0 +3.108582010307975 1.94733969950706 .635 0 0 1 .126 1
 0 0 14 764 285 0 767 761 768 4 763 -51 766 616 0 767 769 763 0 +2.5709688902201
95 3.742571851212165 .635 0 0 1 2 1 0 0 14 767 287 0 770 764 771 4 766 -51 769 6
17 0 770 772 766 0 +2.44865739278271 2.525262178315905 .635 0 0 1 .7772653263151
41 1 0 0 14 770 289 0 773 767 774 4 769 -51 772 618 0 773 775 769 0 +1.575693240
96523 1.297699204468694 .635 0 0 1 .729047146287743 1 0 0 14 773 291 0 776 770 7
77 4 772 +51 775 619 0 776 778 772 0 +.163169551132169 .6410474927751 .635 0 0 1
 1.83877008464013 1 0 0 14 776 293 0 779 773 780 4 775 -51 778 620 0 779 781 775
 0 +1.622865411625875 1.406048664442944 .635 0 0 1 .190759527090319 1 0 0 14 779
 295 0 782 776 783 4 778 -51 781 621 0 782 784 778 0 +1.54003338476201 1.4381154
90036694 .635 0 0 -1 .279581967824834 -1 0 0 14 782 297 0 785 779 786 4 781 -50
 784 622 0 785 787 781 0 +2.42986272404409 1.44501774087392 .635 .07432169033884
65 -.997234318675995 0 .997234318675995 .0743216903388465 0 14 785 299 0 788 782
 789 4 784 +50 787 623 0 788 790 784 0 +3.015663590550065 .559467002213751 .635
 -.683798257686729 .729671119604301 0 -.729671119604301 -.683798257686729 0 14 7
88 301 0 791 785 792 4 787 +50 790 624 0 791 793 787 0 +3.28265076907138 .399880
341712685 .635 .02651822630388745 -.999648330000954 0 .999648330000954 .02651822
630388745 0 14 791 303 0 794 788 795 4 790 +50 793 625 0 794 796 790 0 +4.927519
66362863 1.69688180129328 .635 .574194793875445 -.818718717684123 0 .81871871768
4123 .574194793875445 0 14 794 305 0 797 791 798 4 793 +50 796 626 0 797 799 793
 0 +4.98624933660211 1.843148635010755 .635 .582191335412787 .813051811983883 0
 -.813051811983883 .582191335412787 0 14 797 307 0 800 794 801 4 796 +50 799 627
 0 800 802 796 0 +3.63734260462065 2.26841860531003 .635 .617585330936185 .78650
3883660114 0 -.786503883660114 .617585330936185 0 14 800 309 0 803 797 804 4 799
 +50 802 628 0 803 805 799 0 +2.67742329267977 2.35025476743028 .635 -.202194592
2133845 -.979345366497265 0 .979345366497265 -.2021945922133845 0 14 803 311 0 8
06 800 807 4 802 +50 805 629 0 806 808 802 0 +3.12841046672603 2.0982339188983 .
635 -.663952854732472 -.747774435704111 0 .747774435704111 -.663952854732472 0 1
4 806 313 0 809 803 810 4 805 +50 808 630 0 809 811 805 0 +3.0793598030789 1.807
182021656935 .635 -.2852349576123215 .958457625018392 0 -.958457625018392 -.2852
349576123215 0 14 809 315 0 812 806 813 4 808 +50 811 631 0 812 814 808 0 +2.487
35278837889 1.74372451348526 .635 .0661591519135305 .997809083250941 0 -.9978090
83250941 .0661591519135305 0 14 812 317 0 815 809 816 4 811 +50 814 632 0 815 81
7 811 0 +1.56041566679477 2.0456846741868 .635 -.244337252327766 .96969031506193
6 0 -.969690315061937 -.244337252327766 0 14 815 319 0 818 812 819 4 814 +50 817
 633 0 818 820 814 0 +1.518405391781975 1.894486223016275 .635 -.671160781629994
 -.74131181374764 0 .74131181374764 -.671160781629994 0 14 818 321 0 821 815 822
 4 817 +50 820 634 0 821 823 817 0 +1.728535807157935 1.227642826355328 .635 -.5
52555120239573 .833476357851278 0 -.833476357851278 -.552555120239573 0 14 821 3
23 0 824 818 825 4 820 +51 823 635 0 824 826 820 0 +2.913056951394715 .2804 .635
 0 0 1 2.6196 1 0 0 14 824 325 0 827 821 828 4 823 -51 826 636 0 827 829 823 0 +
1.9303 1.500024723162595 .635 0 0 -1 1.0533 -1 0 0 14 827 327 0 830 824 831 4 82
6 -51 829 637 0 830 832 826 0 +1.9303 1.499975276837404 .635 0 0 -1 1.0533 -1 0
 0 14 830 329 0 833 827 834 4 829 -51 832 638 0 833 835 829 0 +2.913056951394715
 2.7196 .635 0 0 -1 2.6196 -1 0 0 14 833 331 0 836 830 837 4 832 -51 835 639 0 8
36 838 832 0 +3.336943048605285 2.7196 .635 0 0 -1 2.6196 -1 0 0 14 836 333 0 83
9 833 840 4 835 -51 838 640 0 839 841 835 0 +4.3197 1.499975276837404 .635 0 0 -
1 1.0533 -1 0 0 14 839 335 0 842 836 843 4 838 -51 841 641 0 842 844 838 0 +4.31
97 1.500024723162595 .635 0 0 -1 1.0533 -1 0 0 14 842 337 0 845 839 846 4 841 -5
1 844 642 0 845 847 841 0 +3.336943048605285 .2804 .635 0 0 1 2.6196 1 0 0 14 84
5 339 0 848 842 336 4 844 -50 847 643 0 848 849 844 0 +1.433 2.452 .635 -.627423
904800978 .778677881851214 0 -.778677881851214 -.627423904800978 0 14 848 341 0
 850 845 851 4 847 -50 849 644 0 850 852 847 0 +.877 1.5 .635 -1 0 0 0 0 1 14 85
0 343 0 853 848 854 4 849 -50 852 645 0 853 855 849 0 +1.433 .548 .635 -.6274239
04800978 -.778677881851214 0 .778677881851214 -.627423904800978 0 14 853 345 0 8
56 850 857 4 852 -50 855 646 0 856 858 852 0 +3.125 .1 .635 0 -1 0 0 0 -1 14 856
 347 0 859 853 860 4 855 -50 858 647 0 859 861 855 0 +4.817 .548 .635 .627423904
800978 -.778677881851214 0 .778677881851214 .627423904800978 0 14 859 349 0 862
 856 863 4 858 -50 861 648 0 862 864 858 0 +5.373 1.5 .635 1 0 0 0 0 -1 14 862 3
51 0 865 859 866 4 861 -50 864 649 0 865 867 861 0 +3.125 2.9 .635 0 1 0 0 0 1 1
4 865 353 0 868 862 869 4 864 -50 867 651 0 868 870 864 0 +4.817 2.452 .635 .627
423904800978 .778677881851214 0 -.778677881851214 .627423904800978 0 14 868 358
 0 871 865 872 4 867 -50 870 652 0 871 0 867 0 +.2515 1.5 .635 0 0 1 1 0 0 14 87
1 360 0 0 868 873 4 870 +15 873 361 0 631 871 874 17 631 873 528 531 82 87 629 1
5 874 362 0 342 871 0 17 342 874 270 276 271 875 339 17 270 874 356 342 268 374
 372 17 276 874 342 876 274 395 393 17 875 869 877 273 274 342 339 15 869 354 0
 334 865 0 17 877 869 334 875 280 337 352 17 273 869 875 334 271 351 343 17 334
 869 273 877 277 282 335 17 351 828 878 374 277 273 343 15 828 326 0 374 824 0 1
7 878 828 428 351 316 279 879 17 374 828 351 428 271 270 372 17 428 828 374 878
 268 880 426 17 880 851 881 882 316 428 426 15 851 342 0 882 848 0 17 881 851 26
7 880 313 318 883 17 882 851 880 267 268 356 354 17 267 851 882 881 265 431 429
 17 356 874 240 270 265 882 354 17 240 874 371 356 238 377 375 17 371 874 246 24
0 235 884 369 17 377 831 431 422 265 240 375 15 831 328 0 377 827 0 17 431 831 8
85 377 313 267 429 17 422 831 377 885 238 886 420 17 885 831 422 431 310 315 887
 17 886 854 888 884 310 422 420 15 854 344 0 884 850 0 17 888 854 237 886 307 31
2 889 17 884 854 886 237 238 371 369 17 237 854 884 888 235 425 423 17 425 834 8
90 380 307 237 423 15 834 330 0 380 830 0 17 890 834 416 425 304 309 891 17 380
 834 425 416 235 246 378 17 416 834 380 890 244 892 414 17 246 874 368 371 244 3
80 378 17 368 874 252 246 241 893 366 17 252 874 365 368 250 383 381 17 893 857
 892 243 244 368 366 15 857 346 0 893 853 0 17 892 857 894 893 304 416 414 17 24
3 857 893 894 241 419 417 17 894 857 243 892 301 306 895 17 419 837 896 383 301
 243 417 15 837 332 0 383 833 0 17 896 837 410 419 298 303 897 17 383 837 419 41
0 241 252 381 17 410 837 383 896 250 898 408 17 898 860 899 900 298 410 408 15 8
60 348 0 900 856 0 17 899 860 249 898 295 300 901 17 900 860 898 249 250 365 363
 17 249 860 900 899 247 413 411 17 365 874 258 252 247 900 363 17 258 874 362 36
5 256 386 384 17 362 874 264 258 253 902 360 17 386 840 413 404 247 258 384 15 8
40 334 0 386 836 0 17 413 840 903 386 295 249 411 17 404 840 386 903 256 904 402
 17 903 840 404 413 292 297 346 17 904 863 905 902 292 404 402 15 863 350 0 902
 859 0 17 905 863 255 904 289 294 906 17 902 863 904 255 256 362 360 17 255 863
 902 905 253 407 405 17 407 843 345 389 289 255 405 15 843 336 0 389 839 0 17 34
5 843 398 407 286 291 340 17 389 843 407 398 253 264 387 17 398 843 389 345 262
 907 396 17 264 874 359 362 262 389 387 17 359 874 324 264 259 908 357 17 324 87
4 876 359 322 392 390 17 908 866 907 261 262 359 357 15 866 352 0 908 862 0 17 9
07 866 909 908 286 398 396 17 261 866 908 909 259 401 399 17 909 866 261 907 283
 288 910 17 401 846 676 392 283 261 399 15 846 338 0 392 842 0 17 676 846 911 40
1 36 285 674 17 392 846 401 911 259 324 390 17 911 846 392 676 322 912 913 17 91
2 872 332 914 36 911 913 16 913 504 0 911 915 916 917 16 915 503 0 338 883 913 9
18 16 916 505 0 876 913 333 919 30 917 794 0 913 919 918 0 +4.98056559892687 2.3
2020613611648 .635 0 0 -1 30 919 795 0 916 920 917 0 +5.373 2.004 .635 -.7786778
81851214 .627423904800978 0 30 918 793 0 915 917 921 0 +4.98054270962193 2.32022
457929744 .635 0 0 1 30 921 792 0 883 918 922 0 +1.989 2.9 .735 -.77867788185121
4 -.627423904800978 0 16 883 502 0 881 889 915 921 30 922 791 0 889 921 923 0 +.
877 2.004 .735 0 -1 0 16 889 501 0 888 895 883 922 30 923 790 0 895 922 924 0 +.
877 .996 .735 .778677881851214 -.627423904800978 0 16 895 500 0 894 901 889 923
 30 924 789 0 901 923 925 0 +1.989 .1 .735 1 0 0 16 901 499 0 899 906 895 924 30
 925 788 0 906 924 926 0 +4.261 .1 .735 .778677881851214 .627423904800978 0 16 9
06 498 0 905 910 901 925 30 926 787 0 910 925 927 0 +5.373 .996 .735 0 1 0 16 91
0 497 0 909 335 906 926 30 927 786 0 335 926 928 0 +4.261 2.9 .735 -1 0 0 16 335
 496 0 334 879 910 927 31 928 785 0 879 927 929 0 +2.913056951394715 .2804 .735
 0 0 1 1 0 0 2.6196 16 879 495 0 878 887 335 928 31 929 784 0 887 928 930 0 +1.9
303 1.500024723162595 .735 0 0 1 1 0 0 1.0533 16 887 494 0 885 891 879 929 31 93
0 783 0 891 929 931 0 +1.9303 1.499975276837404 .735 0 0 1 1 0 0 1.0533 16 891 4
93 0 890 897 887 930 31 931 782 0 897 930 348 0 +2.913056951394715 2.7196 .735 0
 0 1 1 0 0 2.6196 16 897 492 0 896 346 891 931 31 348 781 0 346 931 347 0 +3.336
943048605285 2.7196 .735 0 0 1 1 0 0 2.6196 16 346 491 0 903 340 897 348 30 920
 796 0 333 0 919 0 +5.373 2.004 .735 -.778677881851214 .627423904800978 0 16 333
 506 0 332 916 0 920 17 332 872 321 912 325 45 333 15 872 359 0 914 868 0 17 321
 872 914 332 319 338 915 17 914 872 912 321 322 876 916 17 338 336 328 395 325 3
21 915 15 336 340 0 395 845 0 17 395 336 338 337 319 276 393 17 337 336 395 328
 274 877 352 17 876 874 276 324 319 914 916 17 285 327 288 45 283 676 674 17 288
 327 291 285 286 909 910 17 291 327 294 288 289 345 340 17 294 327 297 291 292 9
05 906 17 297 327 300 294 295 903 346 17 300 327 303 297 298 899 901 17 303 327
 306 300 301 896 897 17 306 327 309 303 304 894 895 17 309 327 312 306 307 890 8
91 17 312 327 315 309 310 888 889 17 315 327 318 312 313 885 887 17 318 327 279
 315 316 881 883 17 279 327 282 318 277 878 879 17 528 873 932 631 79 84 526 17
 531 873 631 933 85 90 529 17 87 747 934 667 85 631 629 15 747 272 0 667 743 0 1
7 934 747 935 87 178 664 662 17 667 747 87 935 82 936 665 17 935 747 667 934 181
 180 627 17 936 744 937 84 181 667 665 15 744 270 0 938 740 0 17 937 744 938 936
 184 183 495 17 84 744 936 938 82 528 526 17 938 744 84 937 79 579 577 17 579 79
5 939 81 184 938 577 15 795 304 0 81 791 0 17 939 795 940 579 226 186 438 17 81
 795 579 940 79 932 446 17 940 795 81 939 214 456 454 17 932 873 941 528 214 81
 446 17 941 873 636 932 76 216 522 17 636 873 641 941 52 78 634 17 216 792 456 5
82 214 941 522 15 792 302 0 942 788 0 17 456 792 942 216 226 940 454 17 582 792
 216 942 76 943 580 17 942 792 582 456 187 228 481 17 943 741 944 78 187 582 580
 15 741 268 0 78 737 0 17 944 741 670 943 55 189 632 17 78 741 943 670 76 636 63
4 17 670 741 78 944 52 945 668 17 945 738 946 54 55 670 668 15 738 266 0 673 734
 0 17 946 738 673 945 49 57 637 17 54 738 945 673 52 641 639 17 673 738 54 946 4
6 947 671 17 641 873 646 636 46 54 639 17 646 873 948 641 70 48 644 17 948 873 4
34 646 73 72 524 17 48 735 947 949 46 646 644 15 735 264 0 949 731 0 17 947 735
 950 48 49 673 671 17 949 735 48 950 70 588 586 17 950 735 949 947 190 51 642 17
 588 789 195 72 190 949 586 15 789 300 0 72 785 0 17 195 789 585 588 193 192 479
 17 72 789 588 585 70 948 524 17 585 789 72 195 73 951 583 17 951 732 13 75 193
 585 583 15 732 262 0 75 729 0 17 13 732 952 951 7 953 6 17 75 732 951 952 73 43
4 432 17 952 732 75 13 232 468 466 17 434 873 954 948 232 75 432 17 954 873 591
 434 202 234 471 17 591 873 596 954 64 204 589 17 234 825 468 475 232 954 471 15
 825 324 0 955 821 0 17 468 825 955 234 7 952 466 17 475 825 234 955 202 956 473
 17 955 825 475 468 229 15 469 17 956 786 437 204 229 475 473 15 786 298 0 204 7
82 0 17 437 786 649 956 67 231 435 17 204 786 956 649 202 591 589 17 649 786 204
 437 64 957 647 17 957 783 958 66 67 649 647 15 783 296 0 652 779 0 17 958 783 6
52 957 61 69 592 17 66 783 957 652 64 596 594 17 652 783 66 958 58 959 650 17 59
6 873 601 591 58 66 594 17 601 873 960 596 196 60 599 17 960 873 961 601 205 198
 452 17 60 780 959 962 58 601 599 15 780 294 0 962 776 0 17 959 780 963 60 61 65
2 650 17 962 780 60 963 196 478 476 17 963 780 962 959 199 63 597 17 478 822 964
 198 199 962 476 15 822 322 0 198 818 0 17 964 822 965 478 217 201 444 17 198 82
2 478 965 196 960 452 17 965 822 198 964 205 465 463 17 465 819 966 207 217 965
 463 15 819 320 0 966 815 0 17 966 819 511 465 133 219 493 17 207 819 465 511 20
5 961 507 17 511 819 207 966 130 967 509 17 961 873 543 960 130 207 507 17 543 8
73 606 961 127 132 541 17 606 873 968 543 121 129 604 17 132 777 967 655 130 543
 541 15 777 292 0 132 773 0 17 967 777 969 132 133 511 509 17 655 777 132 969 12
7 970 653 17 969 777 655 967 136 135 505 17 970 774 971 129 136 655 653 15 774 2
90 0 972 770 0 17 971 774 972 970 139 138 602 17 129 774 970 972 127 606 604 17
 972 774 129 971 121 549 547 17 549 816 973 123 139 972 547 15 816 318 0 123 812
 0 17 973 816 546 549 142 141 491 17 123 816 549 546 121 968 512 17 546 816 123
 973 124 974 544 17 968 873 611 606 124 123 512 17 611 873 975 968 115 126 609 1
7 975 873 616 611 118 117 514 17 126 771 974 976 124 611 609 15 771 288 0 126 76
7 0 17 974 771 977 126 142 546 544 17 976 771 126 977 115 555 553 17 977 771 976
 974 145 144 607 17 555 813 978 117 145 976 553 15 813 316 0 117 809 0 17 978 81
3 552 555 148 147 489 17 117 813 555 552 115 975 514 17 552 813 117 978 118 979
 550 17 979 768 980 120 148 552 550 15 768 286 0 120 764 0 17 980 768 981 979 15
1 150 612 17 120 768 979 981 118 616 614 17 981 768 120 980 109 561 559 17 616 8
73 982 975 109 120 614 17 982 873 621 616 112 111 516 17 621 873 983 982 106 114
 619 17 111 810 561 558 109 982 516 15 810 314 0 111 806 0 17 561 810 984 111 15
1 981 559 17 558 810 111 984 112 985 556 17 984 810 558 561 154 153 487 17 985 7
65 986 114 154 558 556 15 765 284 0 114 761 0 17 986 765 987 985 157 156 617 17
 114 765 985 987 112 621 619 17 987 765 114 986 106 564 562 17 564 807 988 108 1
57 987 562 15 807 312 0 108 803 0 17 988 807 989 564 220 159 442 17 108 807 564
 989 106 983 450 17 989 807 108 988 208 462 460 17 983 873 540 621 208 108 450 1
7 540 873 990 983 100 210 538 17 990 873 626 540 103 102 518 17 210 762 462 991
 208 540 538 15 762 282 0 210 758 0 17 462 762 992 210 220 989 460 17 991 762 21
0 992 100 570 568 17 992 762 991 462 160 222 503 17 570 804 993 102 160 991 568
 15 804 310 0 102 800 0 17 993 804 567 570 163 162 485 17 102 804 570 567 100 99
0 518 17 567 804 102 993 103 994 565 17 994 759 995 105 163 567 565 15 759 280 0
 105 755 0 17 995 759 658 994 166 165 622 17 105 759 994 658 103 626 624 17 658
 759 105 995 97 996 656 17 626 873 537 990 97 105 624 17 537 873 534 626 94 99 5
35 17 534 873 997 537 91 96 532 17 99 756 996 661 97 537 535 15 756 278 0 661 75
2 0 17 996 756 998 99 166 658 656 17 661 756 99 998 94 999 659 17 998 756 661 99
6 169 168 501 17 999 753 1000 96 169 661 659 15 753 276 0 1001 749 0 17 1000 753
 1001 999 172 171 499 17 96 753 999 1001 94 534 532 17 1001 753 96 1000 91 573 5
71 17 573 801 1002 93 172 1001 571 15 801 308 0 93 797 0 17 1002 801 1003 573 22
3 174 440 17 93 801 573 1003 91 997 448 17 1003 801 93 1002 211 459 457 17 997 8
73 933 534 211 93 448 17 933 873 531 997 88 213 520 17 213 798 459 576 211 933 5
20 15 798 306 0 1004 794 0 17 459 798 1004 213 223 1003 457 17 576 798 213 1004
 88 1005 574 17 1004 798 576 459 175 225 483 17 1005 750 1006 90 175 576 574 15
 750 274 0 90 746 0 17 1006 750 664 1005 178 177 497 17 90 750 1005 664 88 531 5
29 17 664 750 90 1006 85 934 662 17 177 12 225 180 175 1006 497 15 12 129 0 180
 5 0 17 225 12 174 177 223 1004 483 17 180 12 177 183 178 935 627 17 183 12 180
 186 181 937 495 17 186 12 183 228 184 939 438 17 228 12 186 189 226 942 481 17
 189 12 228 57 187 944 632 17 57 12 189 51 55 946 637 17 51 12 57 192 49 950 642
 17 192 12 51 953 190 195 479 17 953 12 192 15 193 13 6 17 15 12 953 231 7 955 4
69 17 231 12 15 69 229 437 435 17 69 12 231 63 67 958 592 17 63 12 69 201 61 963
 597 17 201 12 63 219 199 964 444 17 219 12 201 135 217 966 493 17 135 12 219 13
8 133 969 505 17 138 12 135 141 136 971 602 17 141 12 138 144 139 973 491 17 144
 12 141 147 142 977 607 17 147 12 144 150 145 978 489 17 150 12 147 153 148 980
 612 17 153 12 150 156 151 984 487 17 156 12 153 159 154 986 617 17 159 12 156 2
22 157 988 442 17 222 12 159 162 220 992 503 17 162 12 222 165 160 993 485 17 16
5 12 162 168 163 995 622 17 168 12 165 171 166 998 501 17 171 12 168 174 169 100
0 499 17 174 12 171 225 172 1002 440 1 0 
