600 0 1 0           
120 GICL Pro/E ACIS Translator - Source: f:/data5/repository/PTC/V20/web_demos/models/vol_scan_type/10_inch_mill.prt.2 - 6 0 13 ACIS 6.0.3 NT 24 Thu Apr 04 13:10:03 2002 
1 9.9999999999999995e-007 1e-010 
body $-1 $1 $-1 $2 #
lump $-1 $-1 $3 $0 #
transform $-1 1 0 0 0 1 0 0 0 1 0 0 0 25.399999999999999 no_rotate no_reflect no_shear #
shell $-1 $-1 $-1 $4 $-1 $1 #
face $-1 $5 $6 $3 $-1 $7 forward single #
face $-1 $8 $9 $3 $-1 $10 forward single #
loop $-1 $-1 $11 $4 #
plane-surface $-1 0 0 0 0 -1 0 -1 0 0 forward_v I I I I #
face $-1 $12 $13 $3 $-1 $14 forward single #
loop $-1 $-1 $15 $5 #
cone-surface $-1 0 18.899999999999999 0 0 -1 0 -5 0 0 1 I I 0 1 5 forward I I I I #
coedge $-1 $16 $16 $15 $17 reversed $6 $-1 #
face $-1 $-1 $18 $3 $-1 $19 reversed single #
loop $-1 $-1 $20 $8 #
cone-surface $-1 0 18.899999999999999 0 0 -1 0 -5 0 0 1 I I 0 1 5 forward I I I I #
coedge $-1 $21 $22 $11 $17 forward $9 $-1 #
coedge $-1 $11 $11 $23 $24 forward $6 $-1 #
edge $-1 $25 0 $26 3.1415926535897931 $11 $27 forward 7 unknown #
loop $-1 $-1 $28 $12 #
plane-surface $-1 0 18 0 0 -1 0 -1 0 0 forward_v I I I I #
coedge $-1 $29 $30 $28 $31 forward $13 $-1 #
coedge $-1 $32 $15 $29 $33 forward $9 $-1 #
coedge $-1 $15 $32 $30 $34 reversed $9 $-1 #
coedge $-1 $30 $29 $16 $24 reversed $13 $-1 #
edge $-1 $25 0 $26 3.1415926535897931 $16 $35 forward 7 unknown #
vertex $-1 $24 $36 #
vertex $-1 $24 $37 #
ellipse-curve $-1 0 0 -2.2204460492503131e-016 0 1 0 5 0 8.3434778183621994e-016 1 I I #
coedge $-1 $38 $38 $20 $31 reversed $18 $-1 #
coedge $-1 $23 $20 $21 $33 reversed $13 $-1 #
coedge $-1 $20 $23 $22 $34 forward $13 $-1 #
edge $-1 $39 1.2246063538223773e-016 $40 3.1415926535897931 $20 $41 forward 7 unknown #
coedge $-1 $22 $21 $38 $42 reversed $9 $-1 #
edge $-1 $26 0 $40 18 $29 $43 forward 7 unknown #
edge $-1 $25 0 $39 18 $30 $44 forward 7 unknown #
ellipse-curve $-1 0 0 0 0 -1 0 5 0 6.1230317691118863e-016 1 I I #
point $-1 5 0 6.1230317691118863e-016 #
point $-1 -5 0 0 #
coedge $-1 $28 $28 $32 $42 forward $18 $-1 #
vertex $-1 $34 $45 #
vertex $-1 $33 $46 #
ellipse-curve $-1 0 18 0 0 -1 0 5 0 0 1 I I #
edge $-1 $39 -1.2246063538223773e-016 $40 3.1415926535897931 $38 $47 forward 7 unknown #
straight-curve $-1 -5 0 -1.2246063538223773e-015 0 1 0 I I #
straight-curve $-1 5 0 6.1230317691118863e-016 0 1 0 I I #
point $-1 5 18 6.1230317691118863e-016 #
point $-1 -5 18 0 #
ellipse-curve $-1 0 18 0 0 1 0 5 0 0 1 I I #
End-of-ACIS-data 