600 0 1 0           
113 GICL Pro/E ACIS Translator - Source: f:/data5/repository/PTC/V20/web_demos/models/vol_scan_type/clamp.prt.2 - 6 0 13 ACIS 6.0.3 NT 24 Thu Apr 04 13:09:59 2002 
1 9.9999999999999995e-007 1e-010 
body $-1 $1 $-1 $2 #
lump $-1 $-1 $3 $0 #
transform $-1 1 0 0 0 1 0 0 0 1 0 0 0 25.399999999999999 no_rotate no_reflect no_shear #
shell $-1 $-1 $-1 $4 $-1 $1 #
face $-1 $5 $6 $3 $-1 $7 reversed single #
face $-1 $8 $9 $3 $-1 $10 forward single #
loop $-1 $-1 $11 $4 #
plane-surface $-1 0 0 -3 0 0 1 1 0 0 forward_v I I I I #
face $-1 $12 $13 $3 $-1 $14 forward single #
loop $-1 $15 $16 $5 #
plane-surface $-1 -20 0 -3 0 -1 0 1 0 0 forward_v I I I I #
coedge $-1 $17 $18 $19 $20 reversed $6 $-1 #
face $-1 $21 $22 $3 $-1 $23 forward single #
loop $-1 $-1 $24 $8 #
plane-surface $-1 0 0 -3 1 0 0 0 1 0 forward_v I I I I #
loop $-1 $-1 $25 $5 #
coedge $-1 $26 $19 $27 $28 forward $9 $-1 #
coedge $-1 $29 $11 $30 $31 reversed $6 $-1 #
coedge $-1 $11 $32 $33 $34 reversed $6 $-1 #
coedge $-1 $16 $35 $11 $20 forward $9 $-1 #
edge $-1 $36 0 $37 20 $11 $38 forward 7 unknown #
face $-1 $39 $40 $3 $-1 $41 forward single #
loop $-1 $-1 $42 $12 #
plane-surface $-1 0 6 -3 0 1 0 -1 0 0 forward_v I I I I #
coedge $-1 $43 $33 $44 $45 forward $13 $-1 #
coedge $-1 $46 $46 $47 $48 reversed $15 $-1 #
coedge $-1 $35 $16 $49 $50 reversed $9 $-1 #
coedge $-1 $33 $43 $16 $28 reversed $13 $-1 #
edge $-1 $37 0 $51 6 $27 $52 forward 7 unknown #
coedge $-1 $32 $17 $53 $54 reversed $6 $-1 #
coedge $-1 $55 $56 $17 $31 forward $57 $-1 #
edge $-1 $58 0 $36 2 $17 $59 forward 7 unknown #
coedge $-1 $18 $29 $60 $61 reversed $6 $-1 #
coedge $-1 $24 $27 $18 $34 forward $13 $-1 #
edge $-1 $37 0 $62 6 $18 $63 forward 7 unknown #
coedge $-1 $19 $26 $55 $64 reversed $9 $-1 #
vertex $-1 $31 $65 #
vertex $-1 $34 $66 #
straight-curve $-1 -20 0 -3 1 0 0 I I #
face $-1 $67 $57 $3 $-1 $68 forward single #
loop $-1 $-1 $69 $21 #
plane-surface $-1 -12 6 -3 -0.44721359549995809 0.89442719099991586 0 -0.89442719099991586 -0.44721359549995809 0 forward_v I I I I #
coedge $-1 $70 $60 $71 $72 forward $22 $-1 #
coedge $-1 $27 $24 $73 $74 reversed $13 $-1 #
coedge $-1 $60 $70 $24 $45 reversed $22 $-1 #
edge $-1 $62 0 $75 6 $24 $76 forward 7 unknown #
coedge $-1 $25 $25 $77 $78 reversed $15 $-1 #
coedge $-1 $79 $80 $25 $48 forward $81 $-1 #
edge $-1 $82 0 $83 3.1415926535897931 $25 $84 forward 7 unknown #
coedge $-1 $73 $85 $26 $50 forward $86 $-1 #
edge $-1 $87 0 $51 20 $49 $88 forward 7 unknown #
vertex $-1 $74 $89 #
straight-curve $-1 0 0 -3 0 0 1 I I #
coedge $-1 $69 $71 $29 $54 forward $40 $-1 #
edge $-1 $90 0 $58 8.9442719099991592 $29 $91 forward 7 unknown #
coedge $-1 $92 $30 $35 $64 forward $57 $-1 #
coedge $-1 $30 $92 $69 $93 reversed $57 $-1 #
loop $-1 $-1 $55 $39 #
vertex $-1 $54 $94 #
straight-curve $-1 -20 2 -3 0 -1 0 I I #
coedge $-1 $42 $44 $32 $61 forward $22 $-1 #
edge $-1 $62 0 $90 12 $32 $95 forward 7 unknown #
vertex $-1 $34 $96 #
straight-curve $-1 0 0 -3 0 1 0 I I #
edge $-1 $36 0 $87 6 $55 $97 forward 7 unknown #
point $-1 -20 0 -3 #
point $-1 0 0 -3 #
face $-1 $98 $86 $3 $-1 $99 forward single #
plane-surface $-1 -20 2 -3 -1 0 0 0 -1 0 forward_v I I I I #
coedge $-1 $100 $53 $56 $93 forward $40 $-1 #
coedge $-1 $44 $42 $101 $102 reversed $22 $-1 #
coedge $-1 $53 $100 $42 $72 reversed $40 $-1 #
edge $-1 $90 0 $103 6 $42 $104 forward 7 unknown #
coedge $-1 $101 $49 $43 $74 forward $86 $-1 #
edge $-1 $51 0 $75 6 $73 $105 forward 7 unknown #
vertex $-1 $74 $106 #
straight-curve $-1 0 6 -3 0 0 1 I I #
coedge $-1 $107 $108 $46 $78 forward $109 $-1 #
edge $-1 $83 0 $82 3.1415926535897931 $46 $110 forward 7 unknown #
coedge $-1 $111 $47 $108 $112 forward $81 $-1 #
coedge $-1 $47 $111 $107 $113 reversed $81 $-1 #
loop $-1 $-1 $79 $98 #
vertex $-1 $78 $114 #
vertex $-1 $78 $115 #
ellipse-curve $-1 -3 0 0 0 -1 0 1.5 0 0 1 I I #
coedge $-1 $49 $116 $92 $117 forward $86 $-1 #
loop $-1 $-1 $101 $67 #
vertex $-1 $50 $118 #
straight-curve $-1 -20 0 3 1 0 0 I I #
point $-1 0 0 3 #
vertex $-1 $61 $119 #
straight-curve $-1 -12 6 -3 -0.89442719099991586 -0.44721359549995809 0 I I #
coedge $-1 $56 $55 $85 $117 reversed $57 $-1 #
edge $-1 $58 0 $120 6 $69 $121 forward 7 unknown #
point $-1 -20 2 -3 #
straight-curve $-1 0 6 -3 -1 0 0 I I #
point $-1 0 6 -3 #
straight-curve $-1 -20 0 -3 0 0 1 I I #
face $-1 $122 $81 $3 $-1 $123 forward single #
plane-surface $-1 0 0 3 0 0 1 1 0 0 forward_v I I I I #
coedge $-1 $71 $69 $116 $124 reversed $40 $-1 #
coedge $-1 $116 $73 $70 $102 forward $86 $-1 #
edge $-1 $75 0 $103 12 $101 $125 forward 7 unknown #
vertex $-1 $124 $126 #
straight-curve $-1 -12 6 -3 0 0 1 I I #
straight-curve $-1 0 0 3 0 1 0 I I #
point $-1 0 6 3 #
coedge $-1 $127 $77 $80 $113 forward $109 $-1 #
coedge $-1 $77 $127 $79 $112 reversed $109 $-1 #
loop $-1 $-1 $107 $122 #
ellipse-curve $-1 -3 0 0 0 -1 0 -1.5 0 0 1 I I #
coedge $-1 $80 $79 $128 $129 reversed $81 $-1 #
edge $-1 $83 0 $130 30 $108 $131 forward 7 unknown #
edge $-1 $82 0 $132 30 $107 $133 forward 7 unknown #
point $-1 -1.5 0 0 #
point $-1 -4.5 0 0 #
coedge $-1 $85 $101 $100 $124 forward $86 $-1 #
edge $-1 $120 0 $87 2 $85 $134 forward 7 unknown #
point $-1 -20 0 3 #
point $-1 -12 6 -3 #
vertex $-1 $117 $135 #
straight-curve $-1 -20 1.9999999999999982 -3 0 0 1 I I #
face $-1 $136 $109 $3 $-1 $137 forward single #
cone-surface $-1 -3 0 0 0 -1 0 -1.5 0 0 1 I I 0 1 1.5 forward I I I I #
edge $-1 $103 0 $120 8.9442719099991592 $116 $138 forward 7 unknown #
straight-curve $-1 0 6 3 -1 0 0 I I #
point $-1 -12 6 3 #
coedge $-1 $108 $107 $139 $140 reversed $109 $-1 #
coedge $-1 $139 $139 $111 $129 forward $141 $-1 #
edge $-1 $132 0 $130 3.1415926535897927 $128 $142 forward 7 unknown #
vertex $-1 $140 $143 #
straight-curve $-1 -4.5 0 0 0 -1 0 I I #
vertex $-1 $140 $144 #
straight-curve $-1 -1.5 0 -1.8369095307335659e-016 0 -1 0 I I #
straight-curve $-1 -20 2 3 0 -1 0 I I #
point $-1 -20 2 3 #
face $-1 $-1 $141 $3 $-1 $145 forward single #
cone-surface $-1 -3 0 0 0 -1 0 -1.5 0 0 1 I I 0 1 1.5 forward I I I I #
straight-curve $-1 -12 6 3 -0.89442719099991586 -0.44721359549995809 0 I I #
coedge $-1 $128 $128 $127 $140 forward $141 $-1 #
edge $-1 $130 0 $132 3.1415926535897931 $139 $146 forward 7 unknown #
loop $-1 $-1 $128 $136 #
ellipse-curve $-1 -3 -30 -4.4408920985006262e-016 0 -1 0 1.5 0 4.4408920985006262e-016 1 I I #
point $-1 -4.5 -30 0 #
point $-1 -1.5 -30 0 #
plane-surface $-1 -20 -30 -3 0 -1 0 -1 0 0 forward_v I I I I #
ellipse-curve $-1 -3 -30 0 0 -1 0 -1.5 0 0 1 I I #
End-of-ACIS-data 