600 0 1 0           
114 GICL Pro/E ACIS Translator - Source: f:/data5/repository/PTC/V20/web_demos/models/vol_scan_type/insert.prt.1 - 6 0 13 ACIS 6.0.3 NT 24 Thu Apr 04 13:10:01 2002 
1 9.9999999999999995e-007 1e-010 
body $-1 $1 $-1 $2 #
lump $-1 $-1 $3 $0 #
transform $-1 1 0 0 0 1 0 0 0 1 0 0 0 25.399999999999999 no_rotate no_reflect no_shear #
shell $-1 $-1 $-1 $4 $-1 $1 #
face $-1 $5 $6 $3 $-1 $7 forward single #
face $-1 $8 $9 $3 $-1 $10 forward single #
loop $-1 $-1 $11 $4 #
plane-surface $-1 0 -15 0 0 -1 0 1 0 0 forward_v I I I I #
face $-1 $12 $13 $3 $-1 $14 forward single #
loop $-1 $-1 $15 $5 #
plane-surface $-1 -47.5 20 -75 0 0 -1 1 0 0 forward_v I I I I #
coedge $-1 $16 $17 $18 $19 forward $6 $-1 #
face $-1 $20 $21 $3 $-1 $22 forward single #
loop $-1 $-1 $23 $8 #
plane-surface $-1 47.5 20 -75 1 0 0 0 0 1 forward_v I I I I #
coedge $-1 $18 $24 $25 $26 forward $9 $-1 #
coedge $-1 $27 $11 $28 $29 forward $6 $-1 #
coedge $-1 $11 $27 $30 $31 forward $6 $-1 #
coedge $-1 $32 $15 $11 $19 reversed $9 $-1 #
edge $-1 $33 0 $34 95 $11 $35 forward 7 unknown #
face $-1 $36 $37 $3 $-1 $38 forward single #
loop $-1 $-1 $39 $12 #
plane-surface $-1 47.5 20 30 0 0 1 -1 0 0 forward_v I I I I #
coedge $-1 $28 $40 $41 $42 forward $13 $-1 #
coedge $-1 $15 $32 $43 $44 forward $9 $-1 #
coedge $-1 $40 $28 $15 $26 reversed $13 $-1 #
edge $-1 $45 0 $34 15 $15 $46 forward 7 unknown #
coedge $-1 $17 $16 $47 $48 forward $6 $-1 #
coedge $-1 $25 $23 $16 $29 reversed $13 $-1 #
edge $-1 $34 0 $49 105 $16 $50 forward 7 unknown #
coedge $-1 $51 $52 $17 $31 reversed $37 $-1 #
edge $-1 $53 0 $33 105 $17 $54 forward 7 unknown #
coedge $-1 $24 $18 $52 $55 reversed $9 $-1 #
vertex $-1 $31 $56 #
vertex $-1 $29 $57 #
straight-curve $-1 -47.5 -15 -75 1 0 0 I I #
face $-1 $58 $59 $3 $-1 $60 forward single #
loop $-1 $-1 $52 $20 #
plane-surface $-1 -47.5 20 30 -1 0 0 0 0 -1 forward_v I I I I #
coedge $-1 $47 $61 $51 $62 forward $21 $-1 #
coedge $-1 $23 $25 $63 $64 forward $13 $-1 #
coedge $-1 $61 $47 $23 $42 reversed $21 $-1 #
edge $-1 $65 0 $49 15 $23 $66 forward 7 unknown #
coedge $-1 $67 $63 $24 $44 reversed $59 $-1 #
edge $-1 $68 0 $45 95 $24 $69 forward 7 unknown #
vertex $-1 $44 $70 #
straight-curve $-1 47.5 0 -75 0 -1 0 I I #
coedge $-1 $41 $39 $27 $48 reversed $21 $-1 #
edge $-1 $49 0 $53 95 $27 $71 forward 7 unknown #
vertex $-1 $48 $72 #
straight-curve $-1 47.5 -15 -75 0 0 1 I I #
coedge $-1 $73 $30 $39 $62 reversed $37 $-1 #
coedge $-1 $30 $73 $32 $55 forward $37 $-1 #
vertex $-1 $31 $74 #
straight-curve $-1 -47.5 -15 30 0 0 -1 I I #
edge $-1 $68 0 $33 15 $52 $75 forward 7 unknown #
point $-1 -47.5 -15 -75 #
point $-1 47.5 -15 -75 #
face $-1 $76 $77 $3 $-1 $78 forward single #
loop $-1 $79 $80 $36 #
plane-surface $-1 0 0 0 0 1 0 1 0 0 forward_v I I I I #
coedge $-1 $39 $41 $80 $81 forward $21 $-1 #
edge $-1 $82 0 $53 15 $51 $83 forward 7 unknown #
coedge $-1 $43 $80 $40 $64 reversed $59 $-1 #
edge $-1 $45 0 $65 105 $40 $84 forward 7 unknown #
vertex $-1 $64 $85 #
straight-curve $-1 47.5 0 30 0 -1 0 I I #
coedge $-1 $80 $43 $73 $86 reversed $59 $-1 #
vertex $-1 $86 $87 #
straight-curve $-1 -47.5 0 -75 1 0 0 I I #
point $-1 47.5 0 -75 #
straight-curve $-1 47.5 -15 30 -1 0 0 I I #
point $-1 47.5 -15 30 #
coedge $-1 $52 $51 $67 $86 forward $37 $-1 #
point $-1 -47.5 -15 30 #
straight-curve $-1 -47.5 0 -75 0 -1 0 I I #
face $-1 $88 $89 $3 $-1 $90 forward single #
loop $-1 $-1 $91 $58 #
plane-surface $-1 -23.203526051567749 -0.039251967182207873 -27.418458874764578 -0.97845312088866643 0.052335956242943842 0.19972590695091477 0.19999999999999998 0 0.9797958971132712 forward_v I I I I #
loop $-1 $-1 $92 $36 #
coedge $-1 $63 $67 $61 $81 reversed $59 $-1 #
edge $-1 $65 0 $82 95 $61 $93 forward 7 unknown #
vertex $-1 $86 $94 #
straight-curve $-1 -47.5 0 30 0 -1 0 I I #
straight-curve $-1 47.5 0 -75 0 0 1 I I #
point $-1 47.5 0 30 #
edge $-1 $82 0 $68 105 $73 $95 forward 7 unknown #
point $-1 -47.5 0 -75 #
face $-1 $96 $97 $3 $-1 $98 forward single #
loop $-1 $-1 $99 $76 #
cone-surface $-1 0 442.61678854850396 -30 0 1 0 0.05240777928304121 0 0 1 I I -0.052335956242943835 0.99862953475457383 0.05240777928304121 forward I I I I #
coedge $-1 $100 $101 $102 $103 reversed $77 $-1 #
coedge $-1 $104 $105 $100 $106 reversed $79 $-1 #
straight-curve $-1 47.5 0 30 -1 0 0 I I #
point $-1 -47.5 0 30 #
straight-curve $-1 -47.5 0 30 0 0 -1 I I #
face $-1 $107 $108 $3 $-1 $109 forward single #
loop $-1 $-1 $110 $88 #
plane-surface $-1 16.480221945856641 -0.039251967182207873 5.5188700143382041 0.97845312088866643 0.052335956242943842 0.19972590695091477 0.19999999999999998 0 -0.9797958971132712 forward_v I I I I #
coedge $-1 $111 $112 $113 $114 reversed $89 $-1 #
coedge $-1 $115 $91 $92 $106 forward $77 $-1 #
coedge $-1 $91 $115 $116 $117 reversed $77 $-1 #
coedge $-1 $112 $111 $91 $103 forward $89 $-1 #
edge $-1 $118 6.9293843909702248e-018 $119 10.079233184083655 $102 $120 forward 7 unknown #
coedge $-1 $121 $92 $111 $122 reversed $79 $-1 #
coedge $-1 $92 $121 $123 $124 reversed $79 $-1 #
edge $-1 $118 0 $125 29.393876913398131 $100 $126 forward 7 unknown #
face $-1 $127 $128 $3 $-1 $129 forward single #
loop $-1 $-1 $130 $96 #
cone-surface $-1 0 328.12996842213471 0 0 1 0 0.05240777928304121 0 0 1 I I -0.052335956242943835 0.99862953475457383 0.05240777928304121 forward I I I I #
coedge $-1 $131 $132 $133 $134 reversed $97 $-1 #
coedge $-1 $102 $99 $104 $122 forward $89 $-1 #
coedge $-1 $99 $102 $135 $136 reversed $89 $-1 #
coedge $-1 $132 $131 $99 $114 forward $97 $-1 #
edge $-1 $137 -4.2016686952842176e-017 $138 10.079233184083396 $113 $139 forward 7 unknown #
coedge $-1 $101 $100 $130 $140 forward $77 $-1 #
coedge $-1 $141 $142 $101 $117 forward $143 $-1 #
edge $-1 $119 2.4989160696108953e-010 $144 29.393876913123208 $101 $145 forward 7 unknown #
vertex $-1 $103 $146 #
vertex $-1 $136 $147 #
straight-curve $-1 -22.779246143649917 -1.1796119636642288e-016 -25.350205851899688 0.051278555198336004 0.99862953475457394 -0.010467191248589415 I I #
coedge $-1 $105 $104 $131 $148 reversed $79 $-1 #
edge $-1 $137 1.6221757381608095e-014 $118 3.5443084951704544 $111 $149 forward 7 unknown #
coedge $-1 $133 $130 $105 $124 forward $108 $-1 #
edge $-1 $125 0 $150 2.7388768120091318 $123 $151 forward 7 unknown #
vertex $-1 $124 $152 #
straight-curve $-1 -22.779246143649917 0 -25.350205851899688 0.20000000000000001 0 0.9797958971132712 I I #
face $-1 $153 $143 $3 $-1 $154 forward single #
loop $-1 $-1 $155 $107 #
torus-surface $-1 0 10 0 0 1 0 15.473177515173747 1.25 -0.98147747695276044 0 0.19157756192843506 forward_v I I I I #
coedge $-1 $123 $156 $115 $140 reversed $108 $-1 #
coedge $-1 $113 $110 $121 $148 forward $97 $-1 #
coedge $-1 $110 $113 $157 $158 reversed $97 $-1 #
coedge $-1 $156 $123 $110 $134 forward $108 $-1 #
edge $-1 $150 -3.2279572963951236e-017 $159 10.079233184084236 $133 $160 forward 7 unknown #
coedge $-1 $161 $162 $112 $136 forward $163 $-1 #
edge $-1 $138 -2.028962278297052e-013 $119 3.5443084951876118 $112 $164 forward 7 unknown #
vertex $-1 $114 $165 #
vertex $-1 $158 $166 #
straight-curve $-1 22.779246143649999 -1.096275847878303e-013 -25.350205851900053 -0.051278555198335955 0.99862953475457394 -0.010467191248587642 I I #
edge $-1 $125 5.692673413955569e-014 $144 10.079233184083577 $130 $167 forward 7 unknown #
coedge $-1 $168 $116 $155 $169 reversed $143 $-1 #
coedge $-1 $116 $168 $161 $170 forward $143 $-1 #
loop $-1 $-1 $142 $127 #
vertex $-1 $171 $172 #
straight-curve $-1 -22.262397628463013 10.065419945303681 -25.455707113276603 0.20000000000000084 1.7162939883056035e-014 0.97979589711327109 I I #
point $-1 -22.779246143649917 -1.1102230246251565e-016 -25.350205851899688 #
point $-1 -22.262397628412998 10.065419945304322 -25.455707113031767 #
edge $-1 $150 4.3511678576336585e-016 $137 29.393876913398515 $131 $173 forward 7 unknown #
ellipse-curve $-1 0 0 -30 0 1 0 22.779246143649921 0 4.6497941481003124 1 I I #
vertex $-1 $134 $174 #
ellipse-curve $-1 0 0 1.7763568394002505e-015 0 1 0 -16.90047076097029 0 3.4497941481003096 1 I I #
point $-1 -16.90047076097029 0 3.4497941481003114 #
face $-1 $175 $163 $3 $-1 $176 forward single #
cone-surface $-1 -21.069597852238715 10 -25.85364007138169 0.19999999999999996 0 0.97979589711327131 -1.223066401110833 0.065419945303679686 0.24965738368864338 1 I I 0 1 1.25 forward I I I I #
coedge $-1 $177 $178 $141 $169 forward $128 $-1 #
coedge $-1 $130 $133 $177 $171 reversed $108 $-1 #
coedge $-1 $179 $180 $132 $158 forward $181 $-1 #
edge $-1 $159 4.9542300866368279e-010 $138 29.393876913253585 $132 $182 forward 7 unknown #
vertex $-1 $171 $183 #
straight-curve $-1 16.90047076097029 4.163336342344337e-017 3.4497941481003123 -0.051278555198336004 0.99862953475457394 -0.010467191248588269 I I #
coedge $-1 $184 $135 $142 $170 reversed $163 $-1 #
coedge $-1 $135 $184 $179 $185 forward $163 $-1 #
loop $-1 $-1 $162 $153 #
ellipse-curve $-1 0 10.065419945303908 -30 -2.0682035262154032e-015 1 -4.2217027696765473e-016 22.262397628435011 4.7961634663806763e-014 4.5442928868605037 1 I I #
point $-1 22.779246143649925 -1.1368683772161603e-013 -25.350205851900071 #
point $-1 22.262397628434098 10.065419945303955 -25.455707113134977 #
straight-curve $-1 -16.900470760970293 -5.6850357754711922e-014 3.4497941481003087 0.051278555198335955 0.99862953475457394 -0.010467191248589141 I I #
coedge $-1 $142 $141 $186 $187 reversed $143 $-1 #
edge $-1 $188 9.9087649906745454e-013 $144 1.5184364492356566 $141 $189 forward 7 unknown #
edge $-1 $190 -9.9609445765701927e-013 $119 1.5184364492345495 $161 $191 forward 7 unknown #
edge $-1 $144 0 $159 2.7388768120552007 $156 $192 forward 7 unknown #
point $-1 -16.38362224583835 10.065419945304187 3.3442928864540225 #
straight-curve $-1 16.90047076097029 0 3.4497941481003118 0.20000000000000001 0 -0.9797958971132712 I I #
point $-1 16.90047076097029 0 3.4497941481003114 #
face $-1 $193 $181 $3 $-1 $194 forward single #
torus-surface $-1 0 10 -30 0 1 0 21.473177515173742 1.25 0.97849440013212152 0 0.20627338391096323 forward_v I I I I #
coedge $-1 $195 $155 $156 $171 forward $128 $-1 #
coedge $-1 $155 $195 $196 $197 reversed $128 $-1 #
coedge $-1 $198 $157 $162 $185 reversed $181 $-1 #
coedge $-1 $157 $198 $195 $199 forward $181 $-1 #
loop $-1 $-1 $180 $175 #
straight-curve $-1 16.383622245783389 10.065419945303681 3.3442928867233928 0.19999999999999951 9.306664584428873e-015 -0.97979589711327131 I I #
point $-1 16.38362224588241 10.065419945304901 3.3442928862379664 #
coedge $-1 $162 $161 $200 $201 reversed $163 $-1 #
edge $-1 $202 2.0679515313825811e-027 $138 1.5184364492352291 $162 $203 forward 7 unknown #
coedge $-1 $196 $200 $168 $187 forward $204 $-1 #
edge $-1 $190 3.5102826089702351e-012 $188 29.393876913398135 $186 $205 forward 7 unknown #
vertex $-1 $197 $206 #
ellipse-curve $-1 -15.160555844716118 10.000000000000004 3.0946355028213746 0.19999999999999996 -1.6876708622604715e-010 0.97979589711327131 4.3408832084423921e-011 1.2499999999999964 2.0644819187509711e-010 1 I I #
vertex $-1 $201 $207 #
ellipse-curve $-1 -21.039331227348995 9.9999999999999964 -25.705364496949645 0.19999999999999996 1.2734358245800333e-011 0.97979589711327131 -3.1832314562052488e-012 1.2500000000000036 -1.5596413049934199e-011 1 I I #
ellipse-curve $-1 0 10.065419945304111 0 4.4756897608256786e-015 1 -9.1359634667519816e-016 -16.38362224583835 7.638334409421077e-014 3.3442928864540225 1 I I #
face $-1 $208 $204 $3 $-1 $209 forward single #
cone-surface $-1 15.130289219786029 10 3.2429110774511911 0.20000000000000001 0 -0.9797958971132712 1.223066401110833 0.065419945303679686 0.24965738368864349 1 I I 0 1 1.25 forward I I I I #
coedge $-1 $178 $177 $180 $199 reversed $128 $-1 #
coedge $-1 $210 $186 $178 $197 forward $204 $-1 #
edge $-1 $188 4.4092255077351668e-013 $211 2.7388768120108953 $196 $212 forward 7 unknown #
coedge $-1 $180 $179 $210 $213 reversed $181 $-1 #
edge $-1 $211 -2.6946149918501223e-012 $159 1.5184364492340696 $195 $214 forward 7 unknown #
coedge $-1 $186 $210 $184 $201 forward $204 $-1 #
edge $-1 $202 0 $190 3.5443084951707631 $200 $215 forward 7 unknown #
vertex $-1 $201 $216 #
ellipse-curve $-1 21.039331227329214 10.000000000000004 -25.705364496852717 0.20000000000000001 -9.05631691156784e-011 -0.9797958971132712 2.2176038783072727e-011 1.2499999999999964 -1.1101164432147925e-010 1 I I #
loop $-1 $217 $186 $193 #
straight-curve $-1 -21.039331227352179 11.25 -25.705364496965242 0.19999999999999979 0 0.9797958971132712 I I #
point $-1 -15.160555844672558 11.25 3.0946355030347554 #
point $-1 -21.039331227350257 11.25 -25.705364496962051 #
face $-1 $218 $219 $3 $-1 $220 forward single #
plane-surface $-1 0 11.25 0 0 1 0 1 0 0 forward_v I I I I #
coedge $-1 $200 $196 $198 $213 forward $204 $-1 #
vertex $-1 $213 $221 #
ellipse-curve $-1 -1.0866862965031032e-012 11.25 2.986055847031821e-012 0 1 0 -15.160555844671622 0 3.0946355030248367 1 I I #
edge $-1 $211 1.4618141208452532e-011 $202 29.393876913396483 $210 $222 forward 7 unknown #
ellipse-curve $-1 15.160555844678905 9.9999999999999876 3.0946355030036097 0.20000000000000001 2.5424230861892766e-011 -0.9797958971132712 -6.3451466303376947e-012 1.2500000000000124 3.1140423573106091e-011 1 I I #
ellipse-curve $-1 3.9612757518625585e-013 11.25 -30.000000000000739 0 1 0 21.039331227350992 0 4.2946355030370107 1 I I #
point $-1 21.03933122735139 11.25 -25.705364496963728 #
loop $-1 $223 $224 $193 #
face $-1 $225 $226 $3 $-1 $227 forward single #
loop $-1 $-1 $228 $208 #
torus-surface $-1 0 11 -30 0 -1 0 9.8551248561584508 0.25 0.99984882461157432 0 -0.017387579557061023 forward_v I I I I #
point $-1 15.160555844672183 11.25 3.0946355030197537 #
straight-curve $-1 15.16055584467256 11.25 3.0946355030347501 0.19999999999999996 0 -0.9797958971132712 I I #
loop $-1 $-1 $229 $193 #
coedge $-1 $230 $230 $231 $232 forward $217 $-1 #
face $-1 $233 $234 $3 $-1 $235 reversed single #
loop $-1 $-1 $236 $218 #
torus-surface $-1 0 11 -30 0 -1 0 9.8551248561584508 0.25 -0.99984882461157432 0 0.017387579557061383 forward_v I I I I #
coedge $-1 $237 $231 $238 $239 forward $219 $-1 #
coedge $-1 $240 $240 $241 $242 forward $223 $-1 #
coedge $-1 $224 $224 $243 $244 forward $217 $-1 #
coedge $-1 $228 $245 $224 $232 reversed $219 $-1 #
edge $-1 $246 1.9827171668142156e-014 $247 3.1415926535897998 $224 $248 forward 7 unknown #
face $-1 $249 $250 $3 $-1 $251 reversed single #
loop $-1 $-1 $252 $225 #
cone-surface $-1 0 -171.27015380266283 -30 0 -1 0 0.05240777928304121 0 0 1 I I -0.052335956242943835 0.99862953475457383 0.05240777928304121 forward I I I I #
coedge $-1 $253 $243 $245 $254 forward $226 $-1 #
coedge $-1 $245 $228 $255 $256 forward $219 $-1 #
coedge $-1 $243 $253 $228 $239 reversed $226 $-1 #
edge $-1 $246 9.2370555650794971e-014 $257 1.5184364492349824 $238 $258 forward 7 unknown #
coedge $-1 $229 $229 $259 $260 forward $223 $-1 #
coedge $-1 $261 $262 $229 $242 reversed $263 $-1 #
edge $-1 $264 2.4747105846092008e-010 $265 3.141592653626863 $229 $266 forward 7 unknown #
coedge $-1 $236 $238 $230 $244 reversed $226 $-1 #
edge $-1 $247 0 $246 3.1415926535898198 $230 $267 forward 7 unknown #
coedge $-1 $231 $237 $236 $254 reversed $219 $-1 #
vertex $-1 $244 $268 #
vertex $-1 $244 $269 #
ellipse-curve $-1 1.3322676295501878e-014 11.25 -29.999999999999964 0 -1 0 9.8551248561584153 0 -1.3145040611561853e-013 1 I I #
face $-1 $270 $271 $3 $-1 $272 reversed single #
loop $-1 $-1 $273 $233 #
cone-surface $-1 0 -171.27015380266283 -30 0 -1 0 0.05240777928304121 0 0 1 I I -0.052335956242943835 0.99862953475457383 0.05240777928304121 forward I I I I #
coedge $-1 $274 $275 $276 $277 forward $234 $-1 #
coedge $-1 $238 $236 $275 $278 forward $226 $-1 #
edge $-1 $247 0 $279 1.518436449234954 $236 $280 forward 7 unknown #
coedge $-1 $273 $276 $237 $256 reversed $250 $-1 #
edge $-1 $257 0 $279 3.1415926535898775 $255 $281 forward 7 unknown #
vertex $-1 $256 $282 #
ellipse-curve $-1 9.8551248561584472 11.000000000000005 -30.000000000004022 2.533251695071078e-012 -1.5702994460298366e-011 1 -1.7763568394002505e-014 0.24999999999999467 3.9257486150745535e-012 1 I I #
coedge $-1 $283 $284 $240 $260 reversed $285 $-1 #
edge $-1 $265 0 $264 3.1415926538743335 $240 $286 forward 7 unknown #
coedge $-1 $287 $241 $284 $288 forward $263 $-1 #
coedge $-1 $241 $287 $283 $289 reversed $263 $-1 #
loop $-1 $-1 $261 $290 #
vertex $-1 $260 $291 #
vertex $-1 $260 $292 #
ellipse-curve $-1 -3.9039216304104229e-011 11.25 -9.464273809101087e-011 0 -1 0 -5.1061879044733773 0 5.69504332576719e-010 1 I I #
ellipse-curve $-1 -1.1102230246251565e-014 11.25 -30.000000000000032 0 -1 0 -9.855124856158417 0 1.3145040611561853e-013 1 I I #
point $-1 9.8551248561584064 11.25 -29.999999999999901 #
point $-1 -9.8551248561584277 11.25 -29.999999999999901 #
face $-1 $293 $294 $3 $-1 $295 reversed single #
loop $-1 $-1 $296 $249 #
torus-surface $-1 0 5.25 -30 0 -1 0 7.5510354332851213 1.75 0.99984882461157454 0 -0.017387579557061158 forward_v I I I I #
coedge $-1 $297 $255 $298 $299 forward $250 $-1 #
coedge $-1 $298 $252 $300 $301 forward $234 $-1 #
coedge $-1 $252 $298 $253 $278 reversed $234 $-1 #
coedge $-1 $255 $297 $252 $277 reversed $250 $-1 #
edge $-1 $279 4.0800215294032693e-014 $302 5.8627065480543088 $276 $303 forward 7 unknown #
edge $-1 $279 8.4698785850567756e-014 $257 3.1415926535897936 $275 $304 forward 7 unknown #
vertex $-1 $256 $305 #
ellipse-curve $-1 -9.8551248561584472 11.000000000000004 -29.999999999995961 -2.5688714837406994e-012 -1.5759837879159048e-011 -1 1.9539925233402755e-014 0.24999999999999645 -3.9399594697897555e-012 1 I I #
ellipse-curve $-1 0 11.013083989060741 -30 3.6986369367060158e-016 -1 -1.2270883925040756e-028 9.6054674724698081 3.5527136788005009e-015 -3.1867841698840493e-012 1 I I #
point $-1 9.6054674724698081 11.013083989060744 -30.000000000003187 #
coedge $-1 $306 $259 $262 $289 forward $285 $-1 #
coedge $-1 $259 $306 $261 $288 reversed $285 $-1 #
loop $-1 $-1 $283 $307 #
ellipse-curve $-1 3.9039438348709155e-011 11.25 9.4642071957196094e-011 0 -1 0 5.1061879044733764 0 -5.6950238968642591e-010 1 I I #
coedge $-1 $262 $261 $308 $309 forward $263 $-1 #
edge $-1 $264 3.1231196962652182e-010 $310 1.5184364489764233 $284 $311 forward 7 unknown #
edge $-1 $265 2.5849394142282103e-026 $312 1.5184364490000173 $283 $313 forward 7 unknown #
face $-1 $307 $263 $3 $-1 $314 forward single #
point $-1 -5.1061879044343383 11.25 -7.8877213092405229e-010 #
point $-1 5.1061879045124163 11.25 -4.7486031772922981e-010 #
face $-1 $290 $315 $3 $-1 $316 reversed single #
loop $-1 $-1 $317 $270 #
torus-surface $-1 0 5.25 -30 0 -1 0 7.5510354332851222 1.75 -0.99984882461157443 0 0.017387579557061623 forward_v I I I I #
coedge $-1 $318 $319 $320 $321 forward $271 $-1 #
coedge $-1 $276 $273 $318 $322 forward $250 $-1 #
coedge $-1 $275 $274 $273 $299 reversed $234 $-1 #
edge $-1 $257 4.4348060102209449e-014 $323 5.8627065480544376 $273 $324 forward 7 unknown #
coedge $-1 $320 $317 $274 $301 reversed $294 $-1 #
edge $-1 $302 0 $323 3.1415926535925371 $274 $325 forward 7 unknown #
vertex $-1 $277 $326 #
straight-curve $-1 -9.6054674724698081 11.013083989060789 -30 0.052335956242943765 -0.99862953475457372 0 I I #
ellipse-curve $-1 0 11.013083989060741 -30 -3.6986369367060158e-016 -1 1.2284563840230324e-028 -9.6054674724698081 3.5527136788005009e-015 3.1903368835628498e-012 1 I I #
point $-1 -9.6054674724698081 11.013083989060748 -29.999999999997623 #
coedge $-1 $284 $283 $327 $328 forward $285 $-1 #
face $-1 $329 $285 $3 $-1 $330 forward single #
coedge $-1 $331 $332 $287 $309 reversed $333 $-1 #
edge $-1 $310 4.6741334430463171e-010 $312 3.1415926535897931 $308 $334 forward 7 unknown #
vertex $-1 $328 $335 #
ellipse-curve $-1 -5.1061879045640035 11 5.4048698962828531e-009 -3.0765496306193369e-009 -1.9720033206553733e-008 -0.99999999999999978 5.1587178973022674e-011 0.25 -4.9300083017971453e-009 1 I I #
vertex $-1 $328 $336 #
ellipse-curve $-1 5.1061879045640035 11 -5.4048687612076436e-009 3.0765499183803263e-009 -1.9720033773278809e-008 0.99999999999999978 -5.1587178973022674e-011 0.25 4.9300084434784141e-009 1 I I #
torus-surface $-1 0 11 0 0 -1 0 5.1061879045640026 0.25 -0.99931172267632751 0 0.037095564716969218 forward_v I I I I #
loop $-1 $-1 $337 $293 #
plane-surface $-1 0 3.5 -30 0 -1 0 1 0 0 forward_v I I I I #
coedge $-1 $300 $338 $339 $340 forward $294 $-1 #
coedge $-1 $339 $296 $297 $322 reversed $271 $-1 #
coedge $-1 $296 $339 $337 $341 forward $271 $-1 #
coedge $-1 $338 $300 $296 $321 reversed $294 $-1 #
edge $-1 $342 -3.2971165997808688e-029 $302 1.5184364492352036 $320 $343 forward 7 unknown #
edge $-1 $323 2.7432497781181417e-012 $302 3.1415926535897927 $297 $344 forward 7 unknown #
vertex $-1 $322 $345 #
straight-curve $-1 9.6054674724698081 11.013083989060789 -30 -0.052335956242943765 -0.99862953475457372 0 I I #
ellipse-curve $-1 0 5.1584120765747521 -30 3.2475798208919487e-015 -1 -3.9717912697058505e-027 -9.2986371191056207 -3.0198066269804258e-014 1.1372236485840403e-011 1 I I #
point $-1 -9.2986371191056207 5.1584120765747219 -29.999999999988628 #
coedge $-1 $346 $347 $306 $328 reversed $348 $-1 #
edge $-1 $312 0 $310 3.1415926540572059 $327 $349 forward 7 unknown #
face $-1 $350 $348 $3 $-1 $351 reversed single #
torus-surface $-1 0 11 0 0 -1 0 5.1061879045640026 0.25 0.99931172267632751 0 -0.037095564716968968 forward_v I I I I #
coedge $-1 $352 $308 $347 $353 forward $333 $-1 #
coedge $-1 $308 $352 $346 $354 reversed $333 $-1 #
loop $-1 $-1 $331 $350 #
ellipse-curve $-1 0 11.013083989065791 0 -4.3453076556120638e-013 -1 3.9178384936185323e-022 -4.8565305208757348 2.1103119252074976e-012 4.3787698658221082e-009 1 I I #
point $-1 -4.856530520876043 11.013083989073792 2.1087626933422e-009 #
point $-1 4.8565305208757348 11.013083989067901 -4.3787686514902186e-009 #
coedge $-1 $355 $355 $319 $341 reversed $315 $-1 #
coedge $-1 $317 $320 $355 $356 forward $294 $-1 #
coedge $-1 $319 $318 $317 $340 reversed $271 $-1 #
edge $-1 $357 -2.7558907537681834e-013 $323 1.5184364492351274 $317 $358 forward 7 unknown #
edge $-1 $357 1.4161856698556154e-013 $342 3.1415926535899525 $337 $359 forward 7 unknown #
vertex $-1 $356 $360 #
ellipse-curve $-1 -7.5510354332851204 5.2500000000000036 -30.000000000009173 -1.1467528333999958e-011 -5.5036610189899292e-012 -1 3.694822225952521e-013 -1.7500000000000036 9.631406783228158e-012 1 I I #
ellipse-curve $-1 0 5.1584120765747521 -30 -3.2475798208919487e-015 -1 3.9693096756604232e-027 9.2986371191056207 -3.0198066269804258e-014 -1.1365131058482802e-011 1 I I #
point $-1 9.2986371191056136 5.1584120765745931 -29.999999999985857 #
coedge $-1 $361 $327 $332 $354 forward $348 $-1 #
coedge $-1 $327 $361 $331 $353 reversed $348 $-1 #
loop $-1 $-1 $346 $329 #
ellipse-curve $-1 0 11.013083989065791 0 4.3453076556120638e-013 -1 -3.9178374071133347e-022 4.8565305208757348 2.1103119252074976e-012 -4.3787686514902186e-009 1 I I #
face $-1 $362 $333 $3 $-1 $363 reversed single #
cone-surface $-1 0 -80.655038707885879 0 0 -1 0 0.05240777928304121 0 0 1 I I -0.052335956242943835 0.99862953475457383 0.05240777928304121 forward I I I I #
coedge $-1 $332 $331 $364 $365 forward $333 $-1 #
edge $-1 $310 -1.3063432075478351e-011 $366 1.1061879045648162 $347 $367 forward 7 unknown #
edge $-1 $312 -7.1649755511037319e-012 $368 1.1061879045645424 $346 $369 forward 7 unknown #
coedge $-1 $337 $337 $338 $356 reversed $315 $-1 #
edge $-1 $342 0 $357 3.1415926535900969 $355 $370 forward 7 unknown #
vertex $-1 $356 $371 #
ellipse-curve $-1 7.5510354332851186 5.2500000000000044 -29.999999999990813 1.1469697745743547e-011 -5.5097513852964179e-012 1 -3.659295089164516e-013 -1.7500000000000044 -9.6420649242645595e-012 1 I I #
ellipse-curve $-1 2.4025226252888388e-013 3.5 -29.999999999999396 0 -1 0 7.5510354332845129 0 -1.0587086762825493e-012 1 I I #
point $-1 -7.5510354332847509 3.5 -29.999999999999542 #
coedge $-1 $347 $346 $372 $373 forward $348 $-1 #
face $-1 $374 $375 $3 $-1 $376 reversed single #
cone-surface $-1 0 -80.655038707885879 0 0 -1 0 0.05240777928304121 0 0 1 I I -0.052335956242943835 0.99862953475457383 0.05240777928304121 forward I I I I #
coedge $-1 $377 $378 $352 $365 reversed $375 $-1 #
edge $-1 $366 1.3094525493823076e-011 $368 3.1415926535897931 $352 $379 forward 7 unknown #
vertex $-1 $353 $380 #
straight-curve $-1 -4.85653052087536 11.013083989060746 5.9473381333962658e-016 0.052335956242943453 -0.99862953475457394 -6.4090944548478979e-018 I I #
vertex $-1 $373 $381 #
straight-curve $-1 4.85653052087536 11.013083989060746 0 -0.052335956242943453 -0.99862953475457394 0 I I #
ellipse-curve $-1 -2.4047430713380891e-013 3.5 -30.000000000000611 0 -1 0 -7.5510354332845102 0 1.0693668173189508e-012 1 I I #
point $-1 7.5510354332842704 3.5 -29.999999999999385 #
coedge $-1 $382 $383 $361 $373 reversed $384 $-1 #
edge $-1 $368 0 $366 3.1415926536028875 $361 $385 forward 7 unknown #
face $-1 $386 $384 $3 $-1 $387 reversed single #
loop $-1 $-1 $378 $362 #
torus-surface $-1 0 10 0 0 -1 0 3.0510354332851195 1.75 -0.99931172267632751 0 0.037095564716969662 forward_v I I I I #
coedge $-1 $388 $364 $383 $389 reversed $375 $-1 #
coedge $-1 $364 $388 $382 $390 forward $375 $-1 #
ellipse-curve $-1 0 9.9084120765745158 0 4.0719739268479506e-014 -1 -4.384498276297927e-025 -4.7986371191055968 -1.9539925233402755e-013 5.166932931121238e-011 1 I I #
point $-1 -4.7986371191055817 9.9084120765740469 -1.1166546780521537e-011 #
point $-1 4.7986371191055959 9.9084120765743204 -5.1670311519093038e-011 #
coedge $-1 $391 $372 $378 $390 reversed $384 $-1 #
coedge $-1 $372 $391 $377 $389 forward $384 $-1 #
loop $-1 $-1 $383 $374 #
ellipse-curve $-1 0 9.9084120765745158 0 -4.0719739268479512e-014 -1 4.3845816233979805e-025 4.7986371191055959 -1.9539925233402755e-013 -5.1670311519093038e-011 1 I I #
face $-1 $-1 $392 $3 $-1 $393 reversed single #
torus-surface $-1 0 10 0 0 -1 0 3.0510354332851195 1.75 0.99931172267632751 0 -0.037095564716968975 forward_v I I I I #
coedge $-1 $378 $377 $394 $395 forward $375 $-1 #
edge $-1 $396 -1.2675574876845607e-012 $366 1.5184364492369695 $383 $397 forward 7 unknown #
edge $-1 $398 0 $368 1.5184364492371245 $382 $399 forward 7 unknown #
coedge $-1 $383 $382 $400 $401 forward $384 $-1 #
loop $-1 $-1 $394 $386 #
plane-surface $-1 0 8.25 0 0 -1 0 1 0 0 forward_v I I I I #
coedge $-1 $400 $400 $388 $395 reversed $392 $-1 #
edge $-1 $396 4.8455841658683736e-012 $398 3.1415926535932255 $394 $402 forward 7 unknown #
vertex $-1 $401 $403 #
ellipse-curve $-1 -3.0510354332851177 10.000000000000002 2.3094912432156924e-011 -1.6701828008893872e-011 6.7009479264935534e-012 -1 4.1340264544942329e-012 -1.7500000000000018 -1.1726658871432775e-011 1 I I #
vertex $-1 $401 $404 #
ellipse-curve $-1 3.0510354332851168 10.000000000000004 -2.3105856287896985e-011 1.669643727924324e-011 6.7068526311087193e-012 1 -4.1331382760745328e-012 -1.7500000000000036 1.1736992104509291e-011 1 I I #
coedge $-1 $394 $394 $391 $401 reversed $392 $-1 #
edge $-1 $398 0 $396 3.1415926535980714 $400 $405 forward 7 unknown #
ellipse-curve $-1 -1.1091128016005314e-012 8.25 -5.2364779179470133e-012 0 -1 0 -3.0510354332798748 0 1.6604731478671161e-011 1 I I #
point $-1 -3.0510354332787655 8.25 -3.4157954242814901e-012 #
point $-1 3.0510354332809837 8.25 -1.1368864183387693e-011 #
ellipse-curve $-1 1.1093348462054564e-012 8.25 5.2363668956445508e-012 0 -1 0 3.0510354332798744 0 -1.6605231079032243e-011 1 I I #
End-of-ACIS-data 