600 0 1 0           
113 GICL Pro/E ACIS Translator - Source: f:/data5/repository/PTC/V20/web_demos/models/vol_scan_type/plate.prt.2 - 6 0 13 ACIS 6.0.3 NT 24 Thu Apr 04 13:10:03 2002 
1 9.9999999999999995e-007 1e-010 
body $-1 $1 $-1 $2 #
lump $-1 $-1 $3 $0 #
transform $-1 1 0 0 0 1 0 0 0 1 0 0 0 25.399999999999999 no_rotate no_reflect no_shear #
shell $-1 $-1 $-1 $4 $-1 $1 #
face $-1 $5 $6 $3 $-1 $7 reversed single #
face $-1 $8 $9 $3 $-1 $10 reversed single #
loop $-1 $11 $12 $4 #
plane-surface $-1 0 0 0 0 0 1 1 0 0 forward_v I I I I #
face $-1 $13 $14 $3 $-1 $15 reversed single #
loop $-1 $-1 $16 $5 #
cone-surface $-1 -50 -50 12 0 0 -1 -1.5 0 0 1 I I 0 1 1.5 forward I I I I #
loop $-1 $17 $18 $4 #
coedge $-1 $19 $19 $20 $21 reversed $6 $-1 #
face $-1 $22 $23 $3 $-1 $24 forward single #
loop $-1 $-1 $25 $8 #
cone-surface $-1 -50 -50 12 0 0 -1 -1.5 0 0 1 I I 0 1 1.5 forward I I I I #
coedge $-1 $26 $20 $27 $28 reversed $9 $-1 #
loop $-1 $29 $30 $4 #
coedge $-1 $31 $31 $32 $33 reversed $11 $-1 #
coedge $-1 $12 $12 $34 $35 reversed $6 $-1 #
coedge $-1 $16 $36 $12 $21 forward $9 $-1 #
edge $-1 $37 0 $38 3.1415926535897931 $12 $39 forward 7 unknown #
face $-1 $40 $41 $3 $-1 $42 reversed single #
loop $-1 $43 $44 $13 #
plane-surface $-1 0 0 12 0 0 1 1 0 0 forward_v I I I I #
coedge $-1 $45 $34 $36 $46 reversed $14 $-1 #
coedge $-1 $36 $16 $44 $47 reversed $9 $-1 #
coedge $-1 $34 $45 $16 $28 forward $14 $-1 #
edge $-1 $48 0 $38 12 $27 $49 forward 7 unknown #
loop $-1 $50 $51 $4 #
coedge $-1 $52 $52 $53 $54 reversed $17 $-1 #
coedge $-1 $18 $18 $55 $56 reversed $11 $-1 #
coedge $-1 $57 $58 $18 $33 forward $41 $-1 #
edge $-1 $59 0 $60 3.1415926535897931 $18 $61 forward 7 unknown #
coedge $-1 $25 $27 $19 $35 forward $14 $-1 #
edge $-1 $38 0 $37 3.1415926535897931 $19 $62 forward 7 unknown #
coedge $-1 $20 $26 $25 $46 forward $9 $-1 #
vertex $-1 $35 $63 #
vertex $-1 $35 $64 #
ellipse-curve $-1 -50 -50 0 0 0 -1 1.5 0 0 1 I I #
face $-1 $65 $66 $3 $-1 $67 reversed single #
loop $-1 $-1 $57 $22 #
cone-surface $-1 -25 -50 12 0 0 -1 -1.5 0 0 1 I I 0 1 1.5 forward I I I I #
loop $-1 $68 $69 $13 #
coedge $-1 $70 $70 $26 $47 forward $23 $-1 #
coedge $-1 $27 $25 $70 $71 reversed $14 $-1 #
edge $-1 $72 0 $37 12 $25 $73 forward 7 unknown #
edge $-1 $72 0 $48 3.1415926535897931 $44 $74 forward 7 unknown #
vertex $-1 $71 $75 #
straight-curve $-1 -51.5 -50 12 0 0 -1 I I #
loop $-1 $76 $77 $4 #
coedge $-1 $78 $78 $79 $80 reversed $29 $-1 #
coedge $-1 $30 $30 $81 $82 reversed $17 $-1 #
coedge $-1 $83 $84 $30 $54 forward $85 $-1 #
edge $-1 $86 0 $87 3.1415926535897931 $30 $88 forward 7 unknown #
coedge $-1 $89 $90 $31 $56 forward $66 $-1 #
edge $-1 $60 0 $59 3.1415926535897931 $31 $91 forward 7 unknown #
coedge $-1 $92 $32 $90 $93 reversed $41 $-1 #
coedge $-1 $32 $92 $89 $94 forward $41 $-1 #
vertex $-1 $56 $95 #
vertex $-1 $56 $96 #
ellipse-curve $-1 -25 -50 0 0 0 -1 1.5 0 0 1 I I #
ellipse-curve $-1 -50 -50 0 0 0 -1 -1.5 0 0 1 I I #
point $-1 -48.5 -50 0 #
point $-1 -51.5 -50 0 #
face $-1 $97 $85 $3 $-1 $98 reversed single #
loop $-1 $-1 $89 $40 #
cone-surface $-1 -25 -50 12 0 0 -1 -1.5 0 0 1 I I 0 1 1.5 forward I I I I #
loop $-1 $99 $100 $13 #
coedge $-1 $101 $101 $92 $102 forward $43 $-1 #
coedge $-1 $44 $44 $45 $71 forward $23 $-1 #
edge $-1 $48 0 $72 3.1415926535897931 $70 $103 forward 7 unknown #
vertex $-1 $71 $104 #
straight-curve $-1 -48.5 -50 12 0 0 -1 I I #
ellipse-curve $-1 -50 -50 12 0 0 -1 1.5 0 0 1 I I #
point $-1 -51.5 -50 12 #
loop $-1 $105 $106 $4 #
coedge $-1 $107 $107 $108 $109 reversed $50 $-1 #
coedge $-1 $51 $51 $110 $111 reversed $29 $-1 #
coedge $-1 $112 $113 $51 $80 forward $114 $-1 #
edge $-1 $115 0 $116 3.1415926535897931 $51 $117 forward 7 unknown #
coedge $-1 $118 $119 $52 $82 forward $120 $-1 #
edge $-1 $87 0 $86 3.1415926535897931 $52 $121 forward 7 unknown #
coedge $-1 $122 $53 $119 $123 reversed $85 $-1 #
coedge $-1 $53 $122 $118 $124 forward $85 $-1 #
loop $-1 $-1 $83 $65 #
vertex $-1 $82 $125 #
vertex $-1 $82 $126 #
ellipse-curve $-1 0 -50 0 0 0 -1 1.5 0 0 1 I I #
coedge $-1 $127 $55 $58 $94 reversed $66 $-1 #
coedge $-1 $55 $127 $57 $93 forward $66 $-1 #
ellipse-curve $-1 -25 -50 0 0 0 -1 -1.5 0 0 1 I I #
coedge $-1 $58 $57 $69 $102 reversed $41 $-1 #
edge $-1 $128 0 $60 12 $90 $129 forward 7 unknown #
edge $-1 $130 0 $59 12 $89 $131 forward 7 unknown #
point $-1 -23.5 -50 0 #
point $-1 -26.5 -50 0 #
face $-1 $132 $120 $3 $-1 $133 reversed single #
cone-surface $-1 0 -50 12 0 0 -1 -1.5 0 0 1 I I 0 1 1.5 forward I I I I #
loop $-1 $134 $135 $13 #
coedge $-1 $136 $136 $122 $137 forward $68 $-1 #
coedge $-1 $69 $69 $127 $138 forward $43 $-1 #
edge $-1 $130 0 $128 3.1415926535897931 $69 $139 forward 7 unknown #
ellipse-curve $-1 -50 -50 12 0 0 -1 -1.5 0 0 1 I I #
point $-1 -48.5 -50 12 #
loop $-1 $140 $141 $4 #
coedge $-1 $142 $142 $143 $144 reversed $76 $-1 #
coedge $-1 $77 $77 $145 $146 reversed $50 $-1 #
coedge $-1 $147 $148 $77 $109 forward $149 $-1 #
edge $-1 $150 0 $151 3.1415926535897931 $77 $152 forward 7 unknown #
coedge $-1 $153 $154 $78 $111 forward $155 $-1 #
edge $-1 $116 0 $115 3.1415926535897931 $78 $156 forward 7 unknown #
coedge $-1 $157 $79 $154 $158 reversed $114 $-1 #
coedge $-1 $79 $157 $153 $159 forward $114 $-1 #
loop $-1 $-1 $112 $132 #
vertex $-1 $111 $160 #
vertex $-1 $111 $161 #
ellipse-curve $-1 25 -50 0 0 0 -1 1.5 0 0 1 I I #
coedge $-1 $162 $81 $84 $124 reversed $120 $-1 #
coedge $-1 $81 $162 $83 $123 forward $120 $-1 #
loop $-1 $-1 $118 $97 #
ellipse-curve $-1 0 -50 0 0 0 -1 -1.5 0 0 1 I I #
coedge $-1 $84 $83 $100 $137 reversed $85 $-1 #
edge $-1 $163 0 $87 12 $119 $164 forward 7 unknown #
edge $-1 $165 0 $86 12 $118 $166 forward 7 unknown #
point $-1 1.5 -50 0 #
point $-1 -1.5 -50 0 #
coedge $-1 $90 $89 $101 $138 reversed $66 $-1 #
vertex $-1 $138 $167 #
straight-curve $-1 -26.5 -50 12 0 0 -1 I I #
vertex $-1 $138 $168 #
straight-curve $-1 -23.5 -50 12 0 0 -1 I I #
face $-1 $169 $114 $3 $-1 $170 reversed single #
cone-surface $-1 0 -50 12 0 0 -1 -1.5 0 0 1 I I 0 1 1.5 forward I I I I #
loop $-1 $171 $172 $13 #
coedge $-1 $173 $173 $157 $174 forward $99 $-1 #
coedge $-1 $100 $100 $162 $175 forward $68 $-1 #
edge $-1 $165 0 $163 3.1415926535897931 $100 $176 forward 7 unknown #
edge $-1 $128 0 $130 3.1415926535897931 $101 $177 forward 7 unknown #
ellipse-curve $-1 -25 -50 12 0 0 -1 1.5 0 0 1 I I #
loop $-1 $178 $179 $4 #
coedge $-1 $180 $180 $181 $182 reversed $105 $-1 #
coedge $-1 $106 $106 $183 $184 reversed $76 $-1 #
coedge $-1 $185 $186 $106 $144 forward $187 $-1 #
edge $-1 $188 0 $189 3.1415926535897887 $106 $190 forward 7 unknown #
coedge $-1 $191 $192 $107 $146 forward $193 $-1 #
edge $-1 $151 0 $150 3.1415926535897931 $107 $194 forward 7 unknown #
coedge $-1 $195 $108 $192 $196 reversed $149 $-1 #
coedge $-1 $108 $195 $191 $197 forward $149 $-1 #
loop $-1 $-1 $147 $198 #
vertex $-1 $146 $199 #
vertex $-1 $146 $200 #
ellipse-curve $-1 50 -50 0 0 0 -1 1.5 0 0 1 I I #
coedge $-1 $201 $110 $113 $159 reversed $155 $-1 #
coedge $-1 $110 $201 $112 $158 forward $155 $-1 #
loop $-1 $-1 $153 $169 #
ellipse-curve $-1 25 -50 0 0 0 -1 -1.5 0 0 1 I I #
coedge $-1 $113 $112 $135 $174 reversed $114 $-1 #
edge $-1 $202 0 $116 12 $154 $203 forward 7 unknown #
edge $-1 $204 0 $115 12 $153 $205 forward 7 unknown #
point $-1 26.5 -50 0 #
point $-1 23.5 -50 0 #
coedge $-1 $119 $118 $136 $175 reversed $120 $-1 #
vertex $-1 $175 $206 #
straight-curve $-1 -1.5 -50 12 0 0 -1 I I #
vertex $-1 $175 $207 #
straight-curve $-1 1.5 -50 12 0 0 -1 I I #
point $-1 -26.5 -50 12 #
point $-1 -23.5 -50 12 #
face $-1 $198 $155 $3 $-1 $208 reversed single #
cone-surface $-1 25 -50 12 0 0 -1 -1.5 0 0 1 I I 0 1 1.5 forward I I I I #
loop $-1 $209 $210 $13 #
coedge $-1 $211 $211 $195 $212 forward $134 $-1 #
coedge $-1 $135 $135 $201 $213 forward $99 $-1 #
edge $-1 $204 0 $202 3.1415926535897931 $135 $214 forward 7 unknown #
edge $-1 $163 0 $165 3.1415926535897931 $136 $215 forward 7 unknown #
ellipse-curve $-1 0 -50 12 0 0 -1 1.5 0 0 1 I I #
ellipse-curve $-1 -25 -50 12 0 0 -1 -1.5 0 0 1 I I #
loop $-1 $216 $217 $4 #
coedge $-1 $218 $218 $219 $220 reversed $140 $-1 #
coedge $-1 $141 $141 $221 $222 reversed $105 $-1 #
coedge $-1 $223 $224 $141 $182 forward $225 $-1 #
edge $-1 $226 0 $227 3.1415926535897891 $141 $228 forward 7 unknown #
coedge $-1 $229 $230 $142 $184 forward $231 $-1 #
edge $-1 $189 0 $188 3.1415926535897887 $142 $232 forward 7 unknown #
coedge $-1 $233 $143 $230 $234 reversed $187 $-1 #
coedge $-1 $143 $233 $229 $235 forward $187 $-1 #
loop $-1 $-1 $185 $236 #
vertex $-1 $184 $237 #
vertex $-1 $184 $238 #
ellipse-curve $-1 -50 -24.999999999999996 0 0 0 -1 1.5 -3.5527136788005009e-015 0 1 I I #
coedge $-1 $239 $145 $148 $197 reversed $193 $-1 #
coedge $-1 $145 $239 $147 $196 forward $193 $-1 #
loop $-1 $-1 $191 $240 #
ellipse-curve $-1 50 -50 0 0 0 -1 -1.5 0 0 1 I I #
coedge $-1 $148 $147 $172 $212 reversed $149 $-1 #
edge $-1 $241 0 $151 12 $192 $242 forward 7 unknown #
edge $-1 $243 0 $150 12 $191 $244 forward 7 unknown #
face $-1 $240 $149 $3 $-1 $245 reversed single #
point $-1 51.5 -50 0 #
point $-1 48.5 -50 0 #
coedge $-1 $154 $153 $173 $213 reversed $155 $-1 #
vertex $-1 $213 $246 #
straight-curve $-1 23.5 -50 12 0 0 -1 I I #
vertex $-1 $213 $247 #
straight-curve $-1 26.5 -50 12 0 0 -1 I I #
point $-1 -1.5 -50 12 #
point $-1 1.5 -50 12 #
cone-surface $-1 25 -50 12 0 0 -1 -1.5 0 0 1 I I 0 1 1.5 forward I I I I #
loop $-1 $248 $249 $13 #
coedge $-1 $250 $250 $233 $251 forward $171 $-1 #
coedge $-1 $172 $172 $239 $252 forward $134 $-1 #
edge $-1 $243 0 $241 3.1415926535897931 $172 $253 forward 7 unknown #
edge $-1 $202 0 $204 3.1415926535897931 $173 $254 forward 7 unknown #
ellipse-curve $-1 25 -50 12 0 0 -1 1.5 0 0 1 I I #
ellipse-curve $-1 0 -50 12 0 0 -1 -1.5 0 0 1 I I #
loop $-1 $255 $256 $4 #
coedge $-1 $257 $257 $258 $259 reversed $178 $-1 #
coedge $-1 $179 $179 $260 $261 reversed $140 $-1 #
coedge $-1 $262 $263 $179 $220 forward $264 $-1 #
edge $-1 $265 0 $266 3.1415926535897887 $179 $267 forward 7 unknown #
coedge $-1 $268 $269 $180 $222 forward $270 $-1 #
edge $-1 $227 0 $226 3.1415926535897891 $180 $271 forward 7 unknown #
coedge $-1 $272 $181 $269 $273 reversed $225 $-1 #
coedge $-1 $181 $272 $268 $274 forward $225 $-1 #
loop $-1 $-1 $223 $275 #
vertex $-1 $222 $276 #
vertex $-1 $222 $277 #
ellipse-curve $-1 -50 3.0531133177191805e-015 0 0 0 -1 1.5 -3.0531133177191805e-015 0 1 I I #
coedge $-1 $278 $183 $186 $235 reversed $231 $-1 #
coedge $-1 $183 $278 $185 $234 forward $231 $-1 #
loop $-1 $-1 $229 $279 #
ellipse-curve $-1 -50 -25.000000000000004 0 0 0 -1 -1.5 3.5527136788005009e-015 0 1 I I #
coedge $-1 $186 $185 $210 $251 reversed $187 $-1 #
edge $-1 $280 0 $189 12 $230 $281 forward 7 unknown #
edge $-1 $282 0 $188 12 $229 $283 forward 7 unknown #
face $-1 $279 $187 $3 $-1 $284 reversed single #
point $-1 -48.5 -25 0 #
point $-1 -51.5 -25 0 #
coedge $-1 $192 $191 $211 $252 reversed $193 $-1 #
face $-1 $236 $193 $3 $-1 $285 reversed single #
vertex $-1 $252 $286 #
straight-curve $-1 48.5 -50 12 0 0 -1 I I #
vertex $-1 $252 $287 #
straight-curve $-1 51.5 -50 12 0 0 -1 I I #
cone-surface $-1 50 -50 12 0 0 -1 -1.5 0 0 1 I I 0 1 1.5 forward I I I I #
point $-1 23.5 -50 12 #
point $-1 26.5 -50 12 #
loop $-1 $288 $289 $13 #
coedge $-1 $290 $290 $272 $291 forward $209 $-1 #
coedge $-1 $210 $210 $278 $292 forward $171 $-1 #
edge $-1 $282 0 $280 3.1415926535897931 $210 $293 forward 7 unknown #
edge $-1 $241 0 $243 3.1415926535897931 $211 $294 forward 7 unknown #
ellipse-curve $-1 50 -50 12 0 0 -1 1.5 0 0 1 I I #
ellipse-curve $-1 25 -50 12 0 0 -1 -1.5 0 0 1 I I #
loop $-1 $295 $296 $4 #
coedge $-1 $297 $297 $298 $299 reversed $216 $-1 #
coedge $-1 $217 $217 $300 $301 reversed $178 $-1 #
coedge $-1 $302 $303 $217 $259 forward $304 $-1 #
edge $-1 $305 0 $306 3.1415926535897931 $217 $307 forward 7 unknown #
coedge $-1 $308 $309 $218 $261 forward $310 $-1 #
edge $-1 $266 0 $265 3.1415926535897887 $218 $311 forward 7 unknown #
coedge $-1 $312 $219 $309 $313 reversed $264 $-1 #
coedge $-1 $219 $312 $308 $314 forward $264 $-1 #
loop $-1 $-1 $262 $315 #
vertex $-1 $261 $316 #
vertex $-1 $261 $317 #
ellipse-curve $-1 -50 25.000000000000004 0 0 0 -1 1.5 -3.5527136788005009e-015 0 1 I I #
coedge $-1 $318 $221 $224 $274 reversed $270 $-1 #
coedge $-1 $221 $318 $223 $273 forward $270 $-1 #
loop $-1 $-1 $268 $319 #
ellipse-curve $-1 -50 -3.0531133177191805e-015 0 0 0 -1 -1.5 3.0531133177191805e-015 0 1 I I #
coedge $-1 $224 $223 $249 $291 reversed $225 $-1 #
edge $-1 $320 0 $227 12 $269 $321 forward 7 unknown #
edge $-1 $322 0 $226 12 $268 $323 forward 7 unknown #
face $-1 $319 $225 $3 $-1 $324 reversed single #
point $-1 -48.5 0 0 #
point $-1 -51.5 0 0 #
coedge $-1 $230 $229 $250 $292 reversed $231 $-1 #
face $-1 $275 $231 $3 $-1 $325 reversed single #
vertex $-1 $292 $326 #
straight-curve $-1 -51.5 -25 12 0 0 -1 I I #
vertex $-1 $292 $327 #
straight-curve $-1 -48.5 -25 12 0 0 -1 I I #
cone-surface $-1 -50 -25 12 0 0 -1 -1.5 0 0 1 I I 0 1 1.5 forward I I I I #
cone-surface $-1 50 -50 12 0 0 -1 -1.5 0 0 1 I I 0 1 1.5 forward I I I I #
point $-1 48.5 -50 12 #
point $-1 51.5 -50 12 #
loop $-1 $328 $329 $13 #
coedge $-1 $330 $330 $312 $331 forward $248 $-1 #
coedge $-1 $249 $249 $318 $332 forward $209 $-1 #
edge $-1 $322 0 $320 3.1415926535897931 $249 $333 forward 7 unknown #
edge $-1 $280 0 $282 3.1415926535897931 $250 $334 forward 7 unknown #
ellipse-curve $-1 -50 -25 12 0 0 -1 1.5 0 0 1 I I #
ellipse-curve $-1 50 -50 12 0 0 -1 -1.5 0 0 1 I I #
loop $-1 $335 $336 $4 #
coedge $-1 $337 $337 $338 $339 reversed $255 $-1 #
coedge $-1 $256 $256 $340 $341 reversed $216 $-1 #
coedge $-1 $342 $343 $256 $299 forward $344 $-1 #
edge $-1 $345 0 $346 3.1415926535897887 $256 $347 forward 7 unknown #
coedge $-1 $348 $349 $257 $301 forward $350 $-1 #
edge $-1 $306 0 $305 3.1415926535897931 $257 $351 forward 7 unknown #
coedge $-1 $352 $258 $349 $353 reversed $304 $-1 #
coedge $-1 $258 $352 $348 $354 forward $304 $-1 #
loop $-1 $-1 $302 $355 #
vertex $-1 $301 $356 #
vertex $-1 $301 $357 #
ellipse-curve $-1 -50 50 0 0 0 -1 1.5 0 0 1 I I #
coedge $-1 $358 $260 $263 $314 reversed $310 $-1 #
coedge $-1 $260 $358 $262 $313 forward $310 $-1 #
loop $-1 $-1 $308 $359 #
ellipse-curve $-1 -50 24.999999999999996 0 0 0 -1 -1.5 3.5527136788005009e-015 0 1 I I #
coedge $-1 $263 $262 $289 $331 reversed $264 $-1 #
edge $-1 $360 0 $266 12 $309 $361 forward 7 unknown #
edge $-1 $362 0 $265 12 $308 $363 forward 7 unknown #
face $-1 $359 $264 $3 $-1 $364 reversed single #
point $-1 -48.5 25 0 #
point $-1 -51.5 25 0 #
coedge $-1 $269 $268 $290 $332 reversed $270 $-1 #
face $-1 $315 $270 $3 $-1 $365 reversed single #
vertex $-1 $332 $366 #
straight-curve $-1 -51.5 0 12 0 0 -1 I I #
vertex $-1 $332 $367 #
straight-curve $-1 -48.5 1.8369095307335659e-016 12 0 0 -1 I I #
cone-surface $-1 -50 0 12 0 0 -1 -1.5 0 0 1 I I 0 1 1.5 forward I I I I #
cone-surface $-1 -50 -25 12 0 0 -1 -1.5 0 0 1 I I 0 1 1.5 forward I I I I #
point $-1 -51.5 -25 12 #
point $-1 -48.5 -25 12 #
loop $-1 $368 $369 $13 #
coedge $-1 $370 $370 $352 $371 forward $288 $-1 #
coedge $-1 $289 $289 $358 $372 forward $248 $-1 #
edge $-1 $362 0 $360 3.1415926535897931 $289 $373 forward 7 unknown #
edge $-1 $320 0 $322 3.1415926535897931 $290 $374 forward 7 unknown #
ellipse-curve $-1 -50 0 12 0 0 -1 1.5 0 0 1 I I #
ellipse-curve $-1 -50 -25 12 0 0 -1 -1.5 0 0 1 I I #
loop $-1 $375 $376 $4 #
coedge $-1 $377 $377 $378 $379 reversed $295 $-1 #
coedge $-1 $296 $296 $380 $381 reversed $255 $-1 #
coedge $-1 $382 $383 $296 $339 forward $384 $-1 #
edge $-1 $385 0 $386 3.1415926535897887 $296 $387 forward 7 unknown #
coedge $-1 $388 $389 $297 $341 forward $390 $-1 #
edge $-1 $346 0 $345 3.1415926535897887 $297 $391 forward 7 unknown #
coedge $-1 $392 $298 $389 $393 reversed $344 $-1 #
coedge $-1 $298 $392 $388 $394 forward $344 $-1 #
loop $-1 $-1 $342 $395 #
vertex $-1 $341 $396 #
vertex $-1 $341 $397 #
ellipse-curve $-1 -25 -24.999999999999996 0 0 0 -1 1.5 -3.5527136788005009e-015 0 1 I I #
coedge $-1 $398 $300 $303 $354 reversed $350 $-1 #
coedge $-1 $300 $398 $302 $353 forward $350 $-1 #
loop $-1 $-1 $348 $399 #
ellipse-curve $-1 -50 50 0 0 0 -1 -1.5 0 0 1 I I #
coedge $-1 $303 $302 $329 $371 reversed $304 $-1 #
edge $-1 $400 0 $306 12 $349 $401 forward 7 unknown #
edge $-1 $402 0 $305 12 $348 $403 forward 7 unknown #
face $-1 $399 $304 $3 $-1 $404 reversed single #
point $-1 -48.5 50 0 #
point $-1 -51.5 50 0 #
coedge $-1 $309 $308 $330 $372 reversed $310 $-1 #
face $-1 $355 $310 $3 $-1 $405 reversed single #
vertex $-1 $372 $406 #
straight-curve $-1 -51.5 25 12 0 0 -1 I I #
vertex $-1 $372 $407 #
straight-curve $-1 -48.5 25 12 0 0 -1 I I #
cone-surface $-1 -50 25 12 0 0 -1 -1.5 0 0 1 I I 0 1 1.5 forward I I I I #
cone-surface $-1 -50 0 12 0 0 -1 -1.5 0 0 1 I I 0 1 1.5 forward I I I I #
point $-1 -51.5 0 12 #
point $-1 -48.5 0 12 #
loop $-1 $408 $409 $13 #
coedge $-1 $410 $410 $392 $411 forward $328 $-1 #
coedge $-1 $329 $329 $398 $412 forward $288 $-1 #
edge $-1 $402 0 $400 3.1415926535897931 $329 $413 forward 7 unknown #
edge $-1 $360 0 $362 3.1415926535897931 $330 $414 forward 7 unknown #
ellipse-curve $-1 -50 25 12 0 0 -1 1.5 0 0 1 I I #
ellipse-curve $-1 -50 0 12 0 0 -1 -1.5 0 0 1 I I #
loop $-1 $415 $416 $4 #
coedge $-1 $417 $417 $418 $419 reversed $335 $-1 #
coedge $-1 $336 $336 $420 $421 reversed $295 $-1 #
coedge $-1 $422 $423 $336 $379 forward $424 $-1 #
edge $-1 $425 0 $426 3.1415926535897887 $336 $427 forward 7 unknown #
coedge $-1 $428 $429 $337 $381 forward $430 $-1 #
edge $-1 $386 0 $385 3.1415926535897887 $337 $431 forward 7 unknown #
coedge $-1 $432 $338 $429 $433 reversed $384 $-1 #
coedge $-1 $338 $432 $428 $434 forward $384 $-1 #
loop $-1 $-1 $382 $435 #
vertex $-1 $381 $436 #
vertex $-1 $381 $437 #
ellipse-curve $-1 0 -24.999999999999996 0 0 0 -1 1.5 -3.5527136788005009e-015 0 1 I I #
coedge $-1 $438 $340 $343 $394 reversed $390 $-1 #
coedge $-1 $340 $438 $342 $393 forward $390 $-1 #
loop $-1 $-1 $388 $439 #
ellipse-curve $-1 -25 -25.000000000000004 0 0 0 -1 -1.5 3.5527136788005009e-015 0 1 I I #
coedge $-1 $343 $342 $369 $411 reversed $344 $-1 #
edge $-1 $440 0 $346 12 $389 $441 forward 7 unknown #
edge $-1 $442 0 $345 12 $388 $443 forward 7 unknown #
face $-1 $439 $344 $3 $-1 $444 reversed single #
point $-1 -23.5 -25 0 #
point $-1 -26.5 -25 0 #
coedge $-1 $349 $348 $370 $412 reversed $350 $-1 #
face $-1 $395 $350 $3 $-1 $445 reversed single #
vertex $-1 $412 $446 #
straight-curve $-1 -51.5 50 12 0 0 -1 I I #
vertex $-1 $412 $447 #
straight-curve $-1 -48.5 50 12 0 0 -1 I I #
cone-surface $-1 -50 50 12 0 0 -1 -1.5 0 0 1 I I 0 1 1.5 forward I I I I #
cone-surface $-1 -50 25 12 0 0 -1 -1.5 0 0 1 I I 0 1 1.5 forward I I I I #
point $-1 -51.5 25 12 #
point $-1 -48.5 25 12 #
loop $-1 $448 $449 $13 #
coedge $-1 $450 $450 $432 $451 forward $368 $-1 #
coedge $-1 $369 $369 $438 $452 forward $328 $-1 #
edge $-1 $442 0 $440 3.1415926535897931 $369 $453 forward 7 unknown #
edge $-1 $400 0 $402 3.1415926535897931 $370 $454 forward 7 unknown #
ellipse-curve $-1 -50 50 12 0 0 -1 1.5 0 0 1 I I #
ellipse-curve $-1 -50 25 12 0 0 -1 -1.5 0 0 1 I I #
loop $-1 $455 $456 $4 #
coedge $-1 $457 $457 $458 $459 reversed $375 $-1 #
coedge $-1 $376 $376 $460 $461 reversed $335 $-1 #
coedge $-1 $462 $463 $376 $419 forward $464 $-1 #
edge $-1 $465 0 $466 3.1415926535897887 $376 $467 forward 7 unknown #
coedge $-1 $468 $469 $377 $421 forward $470 $-1 #
edge $-1 $426 0 $425 3.1415926535897887 $377 $471 forward 7 unknown #
coedge $-1 $472 $378 $469 $473 reversed $424 $-1 #
coedge $-1 $378 $472 $468 $474 forward $424 $-1 #
loop $-1 $-1 $422 $475 #
vertex $-1 $421 $476 #
vertex $-1 $421 $477 #
ellipse-curve $-1 25 -24.999999999999996 0 0 0 -1 1.5 -3.5527136788005009e-015 0 1 I I #
coedge $-1 $478 $380 $383 $434 reversed $430 $-1 #
coedge $-1 $380 $478 $382 $433 forward $430 $-1 #
loop $-1 $-1 $428 $479 #
ellipse-curve $-1 0 -25.000000000000004 0 0 0 -1 -1.5 3.5527136788005009e-015 0 1 I I #
coedge $-1 $383 $382 $409 $451 reversed $384 $-1 #
edge $-1 $480 0 $386 12 $429 $481 forward 7 unknown #
edge $-1 $482 0 $385 12 $428 $483 forward 7 unknown #
face $-1 $479 $384 $3 $-1 $484 reversed single #
point $-1 1.5 -25 0 #
point $-1 -1.5 -25 0 #
coedge $-1 $389 $388 $410 $452 reversed $390 $-1 #
face $-1 $435 $390 $3 $-1 $485 reversed single #
vertex $-1 $452 $486 #
straight-curve $-1 -26.5 -25 12 0 0 -1 I I #
vertex $-1 $452 $487 #
straight-curve $-1 -23.5 -25 12 0 0 -1 I I #
cone-surface $-1 -25 -25 12 0 0 -1 -1.5 0 0 1 I I 0 1 1.5 forward I I I I #
cone-surface $-1 -50 50 12 0 0 -1 -1.5 0 0 1 I I 0 1 1.5 forward I I I I #
point $-1 -51.5 50 12 #
point $-1 -48.5 50 12 #
loop $-1 $488 $489 $13 #
coedge $-1 $490 $490 $472 $491 forward $408 $-1 #
coedge $-1 $409 $409 $478 $492 forward $368 $-1 #
edge $-1 $482 0 $480 3.1415926535897931 $409 $493 forward 7 unknown #
edge $-1 $440 0 $442 3.1415926535897931 $410 $494 forward 7 unknown #
ellipse-curve $-1 -25 -25 12 0 0 -1 1.5 0 0 1 I I #
ellipse-curve $-1 -50 50 12 0 0 -1 -1.5 0 0 1 I I #
loop $-1 $495 $496 $4 #
coedge $-1 $497 $497 $498 $499 reversed $415 $-1 #
coedge $-1 $416 $416 $500 $501 reversed $375 $-1 #
coedge $-1 $502 $503 $416 $459 forward $504 $-1 #
edge $-1 $505 0 $506 3.1415926535897891 $416 $507 forward 7 unknown #
coedge $-1 $508 $509 $417 $461 forward $510 $-1 #
edge $-1 $466 0 $465 3.1415926535897887 $417 $511 forward 7 unknown #
coedge $-1 $512 $418 $509 $513 reversed $464 $-1 #
coedge $-1 $418 $512 $508 $514 forward $464 $-1 #
loop $-1 $-1 $462 $515 #
vertex $-1 $461 $516 #
vertex $-1 $461 $517 #
ellipse-curve $-1 50 -24.999999999999996 0 0 0 -1 1.5 -3.5527136788005009e-015 0 1 I I #
coedge $-1 $518 $420 $423 $474 reversed $470 $-1 #
coedge $-1 $420 $518 $422 $473 forward $470 $-1 #
loop $-1 $-1 $468 $519 #
ellipse-curve $-1 25 -25.000000000000004 0 0 0 -1 -1.5 3.5527136788005009e-015 0 1 I I #
coedge $-1 $423 $422 $449 $491 reversed $424 $-1 #
edge $-1 $520 0 $426 12 $469 $521 forward 7 unknown #
edge $-1 $522 0 $425 12 $468 $523 forward 7 unknown #
face $-1 $519 $424 $3 $-1 $524 reversed single #
point $-1 26.5 -25 0 #
point $-1 23.5 -25 0 #
coedge $-1 $429 $428 $450 $492 reversed $430 $-1 #
face $-1 $475 $430 $3 $-1 $525 reversed single #
vertex $-1 $492 $526 #
straight-curve $-1 -1.5 -25 12 0 0 -1 I I #
vertex $-1 $492 $527 #
straight-curve $-1 1.5 -25 12 0 0 -1 I I #
cone-surface $-1 0 -25 12 0 0 -1 -1.5 0 0 1 I I 0 1 1.5 forward I I I I #
cone-surface $-1 -25 -25 12 0 0 -1 -1.5 0 0 1 I I 0 1 1.5 forward I I I I #
point $-1 -26.5 -25 12 #
point $-1 -23.5 -25 12 #
loop $-1 $528 $529 $13 #
coedge $-1 $530 $530 $512 $531 forward $448 $-1 #
coedge $-1 $449 $449 $518 $532 forward $408 $-1 #
edge $-1 $522 0 $520 3.1415926535897931 $449 $533 forward 7 unknown #
edge $-1 $480 0 $482 3.1415926535897931 $450 $534 forward 7 unknown #
ellipse-curve $-1 0 -25 12 0 0 -1 1.5 0 0 1 I I #
ellipse-curve $-1 -25 -25 12 0 0 -1 -1.5 0 0 1 I I #
loop $-1 $535 $536 $4 #
coedge $-1 $537 $537 $538 $539 reversed $455 $-1 #
coedge $-1 $456 $456 $540 $541 reversed $415 $-1 #
coedge $-1 $542 $543 $456 $499 forward $544 $-1 #
edge $-1 $545 0 $546 3.1415926535897891 $456 $547 forward 7 unknown #
coedge $-1 $548 $549 $457 $501 forward $550 $-1 #
edge $-1 $506 0 $505 3.1415926535897891 $457 $551 forward 7 unknown #
coedge $-1 $552 $458 $549 $553 reversed $504 $-1 #
coedge $-1 $458 $552 $548 $554 forward $504 $-1 #
loop $-1 $-1 $502 $555 #
vertex $-1 $501 $556 #
vertex $-1 $501 $557 #
ellipse-curve $-1 -25 3.0531133177191805e-015 0 0 0 -1 1.5 -3.0531133177191805e-015 0 1 I I #
coedge $-1 $558 $460 $463 $514 reversed $510 $-1 #
coedge $-1 $460 $558 $462 $513 forward $510 $-1 #
loop $-1 $-1 $508 $559 #
ellipse-curve $-1 50 -25.000000000000004 0 0 0 -1 -1.5 3.5527136788005009e-015 0 1 I I #
coedge $-1 $463 $462 $489 $531 reversed $464 $-1 #
edge $-1 $560 0 $466 12 $509 $561 forward 7 unknown #
edge $-1 $562 0 $465 12 $508 $563 forward 7 unknown #
face $-1 $559 $464 $3 $-1 $564 reversed single #
point $-1 51.5 -25 0 #
point $-1 48.5 -25 0 #
coedge $-1 $469 $468 $490 $532 reversed $470 $-1 #
face $-1 $515 $470 $3 $-1 $565 reversed single #
vertex $-1 $532 $566 #
straight-curve $-1 23.5 -25 12 0 0 -1 I I #
vertex $-1 $532 $567 #
straight-curve $-1 26.5 -25 12 0 0 -1 I I #
cone-surface $-1 25 -25 12 0 0 -1 -1.5 0 0 1 I I 0 1 1.5 forward I I I I #
cone-surface $-1 0 -25 12 0 0 -1 -1.5 0 0 1 I I 0 1 1.5 forward I I I I #
point $-1 -1.5 -25 12 #
point $-1 1.5 -25 12 #
loop $-1 $568 $569 $13 #
coedge $-1 $570 $570 $552 $571 forward $488 $-1 #
coedge $-1 $489 $489 $558 $572 forward $448 $-1 #
edge $-1 $562 0 $560 3.1415926535897931 $489 $573 forward 7 unknown #
edge $-1 $520 0 $522 3.1415926535897931 $490 $574 forward 7 unknown #
ellipse-curve $-1 25 -25 12 0 0 -1 1.5 0 0 1 I I #
ellipse-curve $-1 0 -25 12 0 0 -1 -1.5 0 0 1 I I #
loop $-1 $575 $576 $4 #
coedge $-1 $577 $577 $578 $579 reversed $495 $-1 #
coedge $-1 $496 $496 $580 $581 reversed $455 $-1 #
coedge $-1 $582 $583 $496 $539 forward $584 $-1 #
edge $-1 $585 0 $586 3.1415926535897891 $496 $587 forward 7 unknown #
coedge $-1 $588 $589 $497 $541 forward $590 $-1 #
edge $-1 $546 0 $545 3.1415926535897891 $497 $591 forward 7 unknown #
coedge $-1 $592 $498 $589 $593 reversed $544 $-1 #
coedge $-1 $498 $592 $588 $594 forward $544 $-1 #
loop $-1 $-1 $542 $595 #
vertex $-1 $541 $596 #
vertex $-1 $541 $597 #
ellipse-curve $-1 0 3.0531133177191805e-015 0 0 0 -1 1.5 -3.0531133177191805e-015 0 1 I I #
coedge $-1 $598 $500 $503 $554 reversed $550 $-1 #
coedge $-1 $500 $598 $502 $553 forward $550 $-1 #
loop $-1 $-1 $548 $599 #
ellipse-curve $-1 -25 -3.0531133177191805e-015 0 0 0 -1 -1.5 3.0531133177191805e-015 0 1 I I #
coedge $-1 $503 $502 $529 $571 reversed $504 $-1 #
edge $-1 $600 0 $506 12 $549 $601 forward 7 unknown #
edge $-1 $602 0 $505 12 $548 $603 forward 7 unknown #
face $-1 $599 $504 $3 $-1 $604 reversed single #
point $-1 -23.5 0 0 #
point $-1 -26.5 0 0 #
coedge $-1 $509 $508 $530 $572 reversed $510 $-1 #
face $-1 $555 $510 $3 $-1 $605 reversed single #
vertex $-1 $572 $606 #
straight-curve $-1 48.5 -25 12 0 0 -1 I I #
vertex $-1 $572 $607 #
straight-curve $-1 51.5 -25 12 0 0 -1 I I #
cone-surface $-1 50 -25 12 0 0 -1 -1.5 0 0 1 I I 0 1 1.5 forward I I I I #
cone-surface $-1 25 -25 12 0 0 -1 -1.5 0 0 1 I I 0 1 1.5 forward I I I I #
point $-1 23.5 -25 12 #
point $-1 26.5 -25 12 #
loop $-1 $608 $609 $13 #
coedge $-1 $610 $610 $592 $611 forward $528 $-1 #
coedge $-1 $529 $529 $598 $612 forward $488 $-1 #
edge $-1 $602 0 $600 3.1415926535897931 $529 $613 forward 7 unknown #
edge $-1 $560 0 $562 3.1415926535897931 $530 $614 forward 7 unknown #
ellipse-curve $-1 50 -25 12 0 0 -1 1.5 0 0 1 I I #
ellipse-curve $-1 25 -25 12 0 0 -1 -1.5 0 0 1 I I #
loop $-1 $615 $616 $4 #
coedge $-1 $617 $617 $618 $619 reversed $535 $-1 #
coedge $-1 $536 $536 $620 $621 reversed $495 $-1 #
coedge $-1 $622 $623 $536 $579 forward $624 $-1 #
edge $-1 $625 0 $626 3.1415926535897891 $536 $627 forward 7 unknown #
coedge $-1 $628 $629 $537 $581 forward $630 $-1 #
edge $-1 $586 0 $585 3.1415926535897891 $537 $631 forward 7 unknown #
coedge $-1 $632 $538 $629 $633 reversed $584 $-1 #
coedge $-1 $538 $632 $628 $634 forward $584 $-1 #
loop $-1 $-1 $582 $635 #
vertex $-1 $581 $636 #
vertex $-1 $581 $637 #
ellipse-curve $-1 25 3.0531133177191805e-015 0 0 0 -1 1.5 -3.0531133177191805e-015 0 1 I I #
coedge $-1 $638 $540 $543 $594 reversed $590 $-1 #
coedge $-1 $540 $638 $542 $593 forward $590 $-1 #
loop $-1 $-1 $588 $639 #
ellipse-curve $-1 0 -3.0531133177191805e-015 0 0 0 -1 -1.5 3.0531133177191805e-015 0 1 I I #
coedge $-1 $543 $542 $569 $611 reversed $544 $-1 #
edge $-1 $640 0 $546 12 $589 $641 forward 7 unknown #
edge $-1 $642 0 $545 12 $588 $643 forward 7 unknown #
face $-1 $639 $544 $3 $-1 $644 reversed single #
point $-1 1.5 0 0 #
point $-1 -1.5 0 0 #
coedge $-1 $549 $548 $570 $612 reversed $550 $-1 #
face $-1 $595 $550 $3 $-1 $645 reversed single #
vertex $-1 $612 $646 #
straight-curve $-1 -26.5 0 12 0 0 -1 I I #
vertex $-1 $612 $647 #
straight-curve $-1 -23.5 1.8369095307335659e-016 12 0 0 -1 I I #
cone-surface $-1 -25 0 12 0 0 -1 -1.5 0 0 1 I I 0 1 1.5 forward I I I I #
cone-surface $-1 50 -25 12 0 0 -1 -1.5 0 0 1 I I 0 1 1.5 forward I I I I #
point $-1 48.5 -25 12 #
point $-1 51.5 -25 12 #
loop $-1 $648 $649 $13 #
coedge $-1 $650 $650 $632 $651 forward $568 $-1 #
coedge $-1 $569 $569 $638 $652 forward $528 $-1 #
edge $-1 $642 0 $640 3.1415926535897931 $569 $653 forward 7 unknown #
edge $-1 $600 0 $602 3.1415926535897931 $570 $654 forward 7 unknown #
ellipse-curve $-1 -25 0 12 0 0 -1 1.5 0 0 1 I I #
ellipse-curve $-1 50 -25 12 0 0 -1 -1.5 0 0 1 I I #
loop $-1 $655 $656 $4 #
coedge $-1 $657 $657 $658 $659 reversed $575 $-1 #
coedge $-1 $576 $576 $660 $661 reversed $535 $-1 #
coedge $-1 $662 $663 $576 $619 forward $664 $-1 #
edge $-1 $665 0 $666 3.1415926535897887 $576 $667 forward 7 unknown #
coedge $-1 $668 $669 $577 $621 forward $670 $-1 #
edge $-1 $626 0 $625 3.1415926535897891 $577 $671 forward 7 unknown #
coedge $-1 $672 $578 $669 $673 reversed $624 $-1 #
coedge $-1 $578 $672 $668 $674 forward $624 $-1 #
loop $-1 $-1 $622 $675 #
vertex $-1 $621 $676 #
vertex $-1 $621 $677 #
ellipse-curve $-1 50 3.0531133177191805e-015 0 0 0 -1 1.5 -3.0531133177191805e-015 0 1 I I #
coedge $-1 $678 $580 $583 $634 reversed $630 $-1 #
coedge $-1 $580 $678 $582 $633 forward $630 $-1 #
loop $-1 $-1 $628 $679 #
ellipse-curve $-1 25 -3.0531133177191805e-015 0 0 0 -1 -1.5 3.0531133177191805e-015 0 1 I I #
coedge $-1 $583 $582 $609 $651 reversed $584 $-1 #
edge $-1 $680 0 $586 12 $629 $681 forward 7 unknown #
edge $-1 $682 0 $585 12 $628 $683 forward 7 unknown #
face $-1 $679 $584 $3 $-1 $684 reversed single #
point $-1 26.5 0 0 #
point $-1 23.5 0 0 #
coedge $-1 $589 $588 $610 $652 reversed $590 $-1 #
face $-1 $635 $590 $3 $-1 $685 reversed single #
vertex $-1 $652 $686 #
straight-curve $-1 -1.5 0 12 0 0 -1 I I #
vertex $-1 $652 $687 #
straight-curve $-1 1.5 1.8369095307335659e-016 12 0 0 -1 I I #
cone-surface $-1 0 0 12 0 0 -1 -1.5 0 0 1 I I 0 1 1.5 forward I I I I #
cone-surface $-1 -25 0 12 0 0 -1 -1.5 0 0 1 I I 0 1 1.5 forward I I I I #
point $-1 -26.5 0 12 #
point $-1 -23.5 0 12 #
loop $-1 $688 $689 $13 #
coedge $-1 $690 $690 $672 $691 forward $608 $-1 #
coedge $-1 $609 $609 $678 $692 forward $568 $-1 #
edge $-1 $682 0 $680 3.1415926535897931 $609 $693 forward 7 unknown #
edge $-1 $640 0 $642 3.1415926535897931 $610 $694 forward 7 unknown #
ellipse-curve $-1 0 0 12 0 0 -1 1.5 0 0 1 I I #
ellipse-curve $-1 -25 0 12 0 0 -1 -1.5 0 0 1 I I #
loop $-1 $695 $696 $4 #
coedge $-1 $697 $697 $698 $699 reversed $615 $-1 #
coedge $-1 $616 $616 $700 $701 reversed $575 $-1 #
coedge $-1 $702 $703 $616 $659 forward $704 $-1 #
edge $-1 $705 0 $706 3.1415926535897887 $616 $707 forward 7 unknown #
coedge $-1 $708 $709 $617 $661 forward $710 $-1 #
edge $-1 $666 0 $665 3.1415926535897887 $617 $711 forward 7 unknown #
coedge $-1 $712 $618 $709 $713 reversed $664 $-1 #
coedge $-1 $618 $712 $708 $714 forward $664 $-1 #
loop $-1 $-1 $662 $715 #
vertex $-1 $661 $716 #
vertex $-1 $661 $717 #
ellipse-curve $-1 -25 25.000000000000004 0 0 0 -1 1.5 -3.5527136788005009e-015 0 1 I I #
coedge $-1 $718 $620 $623 $674 reversed $670 $-1 #
coedge $-1 $620 $718 $622 $673 forward $670 $-1 #
loop $-1 $-1 $668 $719 #
ellipse-curve $-1 50 -3.0531133177191805e-015 0 0 0 -1 -1.5 3.0531133177191805e-015 0 1 I I #
coedge $-1 $623 $622 $649 $691 reversed $624 $-1 #
edge $-1 $720 0 $626 12 $669 $721 forward 7 unknown #
edge $-1 $722 0 $625 12 $668 $723 forward 7 unknown #
face $-1 $719 $624 $3 $-1 $724 reversed single #
point $-1 51.5 0 0 #
point $-1 48.5 0 0 #
coedge $-1 $629 $628 $650 $692 reversed $630 $-1 #
face $-1 $675 $630 $3 $-1 $725 reversed single #
vertex $-1 $692 $726 #
straight-curve $-1 23.5 0 12 0 0 -1 I I #
vertex $-1 $692 $727 #
straight-curve $-1 26.5 1.8369095307335659e-016 12 0 0 -1 I I #
cone-surface $-1 25 0 12 0 0 -1 -1.5 0 0 1 I I 0 1 1.5 forward I I I I #
cone-surface $-1 0 0 12 0 0 -1 -1.5 0 0 1 I I 0 1 1.5 forward I I I I #
point $-1 -1.5 0 12 #
point $-1 1.5 0 12 #
loop $-1 $728 $729 $13 #
coedge $-1 $730 $730 $712 $731 forward $648 $-1 #
coedge $-1 $649 $649 $718 $732 forward $608 $-1 #
edge $-1 $722 0 $720 3.1415926535897931 $649 $733 forward 7 unknown #
edge $-1 $680 0 $682 3.1415926535897931 $650 $734 forward 7 unknown #
ellipse-curve $-1 25 0 12 0 0 -1 1.5 0 0 1 I I #
ellipse-curve $-1 0 0 12 0 0 -1 -1.5 0 0 1 I I #
loop $-1 $735 $736 $4 #
coedge $-1 $737 $737 $738 $739 reversed $655 $-1 #
coedge $-1 $656 $656 $740 $741 reversed $615 $-1 #
coedge $-1 $742 $743 $656 $699 forward $744 $-1 #
edge $-1 $745 0 $746 3.1415926535897887 $656 $747 forward 7 unknown #
coedge $-1 $748 $749 $657 $701 forward $750 $-1 #
edge $-1 $706 0 $705 3.1415926535897887 $657 $751 forward 7 unknown #
coedge $-1 $752 $658 $749 $753 reversed $704 $-1 #
coedge $-1 $658 $752 $748 $754 forward $704 $-1 #
loop $-1 $-1 $702 $755 #
vertex $-1 $701 $756 #
vertex $-1 $701 $757 #
ellipse-curve $-1 0 25.000000000000004 0 0 0 -1 1.5 -3.5527136788005009e-015 0 1 I I #
coedge $-1 $758 $660 $663 $714 reversed $710 $-1 #
coedge $-1 $660 $758 $662 $713 forward $710 $-1 #
loop $-1 $-1 $708 $759 #
ellipse-curve $-1 -25 24.999999999999996 0 0 0 -1 -1.5 3.5527136788005009e-015 0 1 I I #
coedge $-1 $663 $662 $689 $731 reversed $664 $-1 #
edge $-1 $760 0 $666 12 $709 $761 forward 7 unknown #
edge $-1 $762 0 $665 12 $708 $763 forward 7 unknown #
face $-1 $759 $664 $3 $-1 $764 reversed single #
point $-1 -23.5 25 0 #
point $-1 -26.5 25 0 #
coedge $-1 $669 $668 $690 $732 reversed $670 $-1 #
face $-1 $715 $670 $3 $-1 $765 reversed single #
vertex $-1 $732 $766 #
straight-curve $-1 48.5 0 12 0 0 -1 I I #
vertex $-1 $732 $767 #
straight-curve $-1 51.5 1.8369095307335659e-016 12 0 0 -1 I I #
cone-surface $-1 50 0 12 0 0 -1 -1.5 0 0 1 I I 0 1 1.5 forward I I I I #
cone-surface $-1 25 0 12 0 0 -1 -1.5 0 0 1 I I 0 1 1.5 forward I I I I #
point $-1 23.5 0 12 #
point $-1 26.5 0 12 #
loop $-1 $768 $769 $13 #
coedge $-1 $770 $770 $752 $771 forward $688 $-1 #
coedge $-1 $689 $689 $758 $772 forward $648 $-1 #
edge $-1 $762 0 $760 3.1415926535897931 $689 $773 forward 7 unknown #
edge $-1 $720 0 $722 3.1415926535897931 $690 $774 forward 7 unknown #
ellipse-curve $-1 50 0 12 0 0 -1 1.5 0 0 1 I I #
ellipse-curve $-1 25 0 12 0 0 -1 -1.5 0 0 1 I I #
loop $-1 $775 $776 $4 #
coedge $-1 $777 $777 $778 $779 reversed $695 $-1 #
coedge $-1 $696 $696 $780 $781 reversed $655 $-1 #
coedge $-1 $782 $783 $696 $739 forward $784 $-1 #
edge $-1 $785 0 $786 3.1415926535897887 $696 $787 forward 7 unknown #
coedge $-1 $788 $789 $697 $741 forward $790 $-1 #
edge $-1 $746 0 $745 3.1415926535897887 $697 $791 forward 7 unknown #
coedge $-1 $792 $698 $789 $793 reversed $744 $-1 #
coedge $-1 $698 $792 $788 $794 forward $744 $-1 #
loop $-1 $-1 $742 $795 #
vertex $-1 $741 $796 #
vertex $-1 $741 $797 #
ellipse-curve $-1 25 25.000000000000004 0 0 0 -1 1.5 -3.5527136788005009e-015 0 1 I I #
coedge $-1 $798 $700 $703 $754 reversed $750 $-1 #
coedge $-1 $700 $798 $702 $753 forward $750 $-1 #
loop $-1 $-1 $748 $799 #
ellipse-curve $-1 0 24.999999999999996 0 0 0 -1 -1.5 3.5527136788005009e-015 0 1 I I #
coedge $-1 $703 $702 $729 $771 reversed $704 $-1 #
edge $-1 $800 0 $706 12 $749 $801 forward 7 unknown #
edge $-1 $802 0 $705 12 $748 $803 forward 7 unknown #
face $-1 $799 $704 $3 $-1 $804 reversed single #
point $-1 1.5 25 0 #
point $-1 -1.5 25 0 #
coedge $-1 $709 $708 $730 $772 reversed $710 $-1 #
face $-1 $755 $710 $3 $-1 $805 reversed single #
vertex $-1 $772 $806 #
straight-curve $-1 -26.5 25 12 0 0 -1 I I #
vertex $-1 $772 $807 #
straight-curve $-1 -23.5 25 12 0 0 -1 I I #
cone-surface $-1 -25 25 12 0 0 -1 -1.5 0 0 1 I I 0 1 1.5 forward I I I I #
cone-surface $-1 50 0 12 0 0 -1 -1.5 0 0 1 I I 0 1 1.5 forward I I I I #
point $-1 48.5 0 12 #
point $-1 51.5 0 12 #
loop $-1 $808 $809 $13 #
coedge $-1 $810 $810 $792 $811 forward $728 $-1 #
coedge $-1 $729 $729 $798 $812 forward $688 $-1 #
edge $-1 $802 0 $800 3.1415926535897931 $729 $813 forward 7 unknown #
edge $-1 $760 0 $762 3.1415926535897931 $730 $814 forward 7 unknown #
ellipse-curve $-1 -25 25 12 0 0 -1 1.5 0 0 1 I I #
ellipse-curve $-1 50 0 12 0 0 -1 -1.5 0 0 1 I I #
loop $-1 $815 $816 $4 #
coedge $-1 $817 $817 $818 $819 reversed $735 $-1 #
coedge $-1 $736 $736 $820 $821 reversed $695 $-1 #
coedge $-1 $822 $823 $736 $779 forward $824 $-1 #
edge $-1 $825 0 $826 3.1415926535897931 $736 $827 forward 7 unknown #
coedge $-1 $828 $829 $737 $781 forward $830 $-1 #
edge $-1 $786 0 $785 3.1415926535897887 $737 $831 forward 7 unknown #
coedge $-1 $832 $738 $829 $833 reversed $784 $-1 #
coedge $-1 $738 $832 $828 $834 forward $784 $-1 #
loop $-1 $-1 $782 $835 #
vertex $-1 $781 $836 #
vertex $-1 $781 $837 #
ellipse-curve $-1 50 25.000000000000004 0 0 0 -1 1.5 -3.5527136788005009e-015 0 1 I I #
coedge $-1 $838 $740 $743 $794 reversed $790 $-1 #
coedge $-1 $740 $838 $742 $793 forward $790 $-1 #
loop $-1 $-1 $788 $839 #
ellipse-curve $-1 25 24.999999999999996 0 0 0 -1 -1.5 3.5527136788005009e-015 0 1 I I #
coedge $-1 $743 $742 $769 $811 reversed $744 $-1 #
edge $-1 $840 0 $746 12 $789 $841 forward 7 unknown #
edge $-1 $842 0 $745 12 $788 $843 forward 7 unknown #
face $-1 $839 $744 $3 $-1 $844 reversed single #
point $-1 26.5 25 0 #
point $-1 23.5 25 0 #
coedge $-1 $749 $748 $770 $812 reversed $750 $-1 #
face $-1 $795 $750 $3 $-1 $845 reversed single #
vertex $-1 $812 $846 #
straight-curve $-1 -1.5 25 12 0 0 -1 I I #
vertex $-1 $812 $847 #
straight-curve $-1 1.5 25 12 0 0 -1 I I #
cone-surface $-1 0 25 12 0 0 -1 -1.5 0 0 1 I I 0 1 1.5 forward I I I I #
cone-surface $-1 -25 25 12 0 0 -1 -1.5 0 0 1 I I 0 1 1.5 forward I I I I #
point $-1 -26.5 25 12 #
point $-1 -23.5 25 12 #
loop $-1 $848 $849 $13 #
coedge $-1 $850 $850 $832 $851 forward $768 $-1 #
coedge $-1 $769 $769 $838 $852 forward $728 $-1 #
edge $-1 $842 0 $840 3.1415926535897931 $769 $853 forward 7 unknown #
edge $-1 $800 0 $802 3.1415926535897931 $770 $854 forward 7 unknown #
ellipse-curve $-1 0 25 12 0 0 -1 1.5 0 0 1 I I #
ellipse-curve $-1 -25 25 12 0 0 -1 -1.5 0 0 1 I I #
loop $-1 $855 $856 $4 #
coedge $-1 $857 $857 $858 $859 reversed $775 $-1 #
coedge $-1 $776 $776 $860 $861 reversed $735 $-1 #
coedge $-1 $862 $863 $776 $819 forward $864 $-1 #
edge $-1 $865 0 $866 3.1415926535897931 $776 $867 forward 7 unknown #
coedge $-1 $868 $869 $777 $821 forward $870 $-1 #
edge $-1 $826 0 $825 3.1415926535897931 $777 $871 forward 7 unknown #
coedge $-1 $872 $778 $869 $873 reversed $824 $-1 #
coedge $-1 $778 $872 $868 $874 forward $824 $-1 #
loop $-1 $-1 $822 $875 #
vertex $-1 $821 $876 #
vertex $-1 $821 $877 #
ellipse-curve $-1 -25 50 0 0 0 -1 1.5 0 0 1 I I #
coedge $-1 $878 $780 $783 $834 reversed $830 $-1 #
coedge $-1 $780 $878 $782 $833 forward $830 $-1 #
loop $-1 $-1 $828 $879 #
ellipse-curve $-1 50 24.999999999999996 0 0 0 -1 -1.5 3.5527136788005009e-015 0 1 I I #
coedge $-1 $783 $782 $809 $851 reversed $784 $-1 #
edge $-1 $880 0 $786 12 $829 $881 forward 7 unknown #
edge $-1 $882 0 $785 12 $828 $883 forward 7 unknown #
face $-1 $879 $784 $3 $-1 $884 reversed single #
point $-1 51.5 25 0 #
point $-1 48.5 25 0 #
coedge $-1 $789 $788 $810 $852 reversed $790 $-1 #
face $-1 $835 $790 $3 $-1 $885 reversed single #
vertex $-1 $852 $886 #
straight-curve $-1 23.5 25 12 0 0 -1 I I #
vertex $-1 $852 $887 #
straight-curve $-1 26.5 25 12 0 0 -1 I I #
cone-surface $-1 25 25 12 0 0 -1 -1.5 0 0 1 I I 0 1 1.5 forward I I I I #
cone-surface $-1 0 25 12 0 0 -1 -1.5 0 0 1 I I 0 1 1.5 forward I I I I #
point $-1 -1.5 25 12 #
point $-1 1.5 25 12 #
loop $-1 $888 $889 $13 #
coedge $-1 $890 $890 $872 $891 forward $808 $-1 #
coedge $-1 $809 $809 $878 $892 forward $768 $-1 #
edge $-1 $882 0 $880 3.1415926535897931 $809 $893 forward 7 unknown #
edge $-1 $840 0 $842 3.1415926535897931 $810 $894 forward 7 unknown #
ellipse-curve $-1 25 25 12 0 0 -1 1.5 0 0 1 I I #
ellipse-curve $-1 0 25 12 0 0 -1 -1.5 0 0 1 I I #
loop $-1 $-1 $895 $4 #
coedge $-1 $896 $897 $898 $899 forward $815 $-1 #
coedge $-1 $816 $816 $900 $901 reversed $775 $-1 #
coedge $-1 $902 $903 $816 $859 forward $904 $-1 #
edge $-1 $905 0 $906 3.1415926535897931 $816 $907 forward 7 unknown #
coedge $-1 $908 $909 $817 $861 forward $910 $-1 #
edge $-1 $866 0 $865 3.1415926535897931 $817 $911 forward 7 unknown #
coedge $-1 $912 $818 $909 $913 reversed $864 $-1 #
coedge $-1 $818 $912 $908 $914 forward $864 $-1 #
loop $-1 $-1 $862 $915 #
vertex $-1 $861 $916 #
vertex $-1 $861 $917 #
ellipse-curve $-1 0 50 0 0 0 -1 1.5 0 0 1 I I #
coedge $-1 $918 $820 $823 $874 reversed $870 $-1 #
coedge $-1 $820 $918 $822 $873 forward $870 $-1 #
loop $-1 $-1 $868 $919 #
ellipse-curve $-1 -25 50 0 0 0 -1 -1.5 0 0 1 I I #
coedge $-1 $823 $822 $849 $891 reversed $824 $-1 #
edge $-1 $920 0 $826 12 $869 $921 forward 7 unknown #
edge $-1 $922 0 $825 12 $868 $923 forward 7 unknown #
face $-1 $919 $824 $3 $-1 $924 reversed single #
point $-1 -23.5 50 0 #
point $-1 -26.5 50 0 #
coedge $-1 $829 $828 $850 $892 reversed $830 $-1 #
face $-1 $875 $830 $3 $-1 $925 reversed single #
vertex $-1 $892 $926 #
straight-curve $-1 48.5 25 12 0 0 -1 I I #
vertex $-1 $892 $927 #
straight-curve $-1 51.5 25 12 0 0 -1 I I #
cone-surface $-1 50 25 12 0 0 -1 -1.5 0 0 1 I I 0 1 1.5 forward I I I I #
cone-surface $-1 25 25 12 0 0 -1 -1.5 0 0 1 I I 0 1 1.5 forward I I I I #
point $-1 23.5 25 12 #
point $-1 26.5 25 12 #
loop $-1 $928 $929 $13 #
coedge $-1 $930 $930 $912 $931 forward $848 $-1 #
coedge $-1 $849 $849 $918 $932 forward $808 $-1 #
edge $-1 $922 0 $920 3.1415926535897931 $849 $933 forward 7 unknown #
edge $-1 $880 0 $882 3.1415926535897931 $850 $934 forward 7 unknown #
ellipse-curve $-1 50 25 12 0 0 -1 1.5 0 0 1 I I #
ellipse-curve $-1 25 25 12 0 0 -1 -1.5 0 0 1 I I #
coedge $-1 $935 $935 $936 $937 reversed $855 $-1 #
coedge $-1 $938 $856 $939 $940 reversed $815 $-1 #
coedge $-1 $856 $941 $942 $943 reversed $815 $-1 #
coedge $-1 $944 $945 $856 $899 reversed $946 $-1 #
edge $-1 $947 0 $948 7.0710678118654764 $856 $949 forward 7 unknown #
coedge $-1 $950 $951 $857 $901 forward $952 $-1 #
edge $-1 $906 0 $905 3.1415926535897931 $857 $953 forward 7 unknown #
coedge $-1 $954 $858 $951 $955 reversed $904 $-1 #
coedge $-1 $858 $954 $950 $956 forward $904 $-1 #
loop $-1 $-1 $902 $957 #
vertex $-1 $901 $958 #
vertex $-1 $901 $959 #
ellipse-curve $-1 25 50 0 0 0 -1 1.5 0 0 1 I I #
coedge $-1 $960 $860 $863 $914 reversed $910 $-1 #
coedge $-1 $860 $960 $862 $913 forward $910 $-1 #
loop $-1 $-1 $908 $961 #
ellipse-curve $-1 0 50 0 0 0 -1 -1.5 0 0 1 I I #
coedge $-1 $863 $862 $889 $931 reversed $864 $-1 #
edge $-1 $962 0 $866 12 $909 $963 forward 7 unknown #
edge $-1 $964 0 $865 12 $908 $965 forward 7 unknown #
face $-1 $961 $864 $3 $-1 $966 reversed single #
point $-1 1.5 50 0 #
point $-1 -1.5 50 0 #
coedge $-1 $869 $868 $890 $932 reversed $870 $-1 #
face $-1 $915 $870 $3 $-1 $967 reversed single #
vertex $-1 $932 $968 #
straight-curve $-1 -26.5 50 12 0 0 -1 I I #
vertex $-1 $932 $969 #
straight-curve $-1 -23.5 50 12 0 0 -1 I I #
cone-surface $-1 -25 50 12 0 0 -1 -1.5 0 0 1 I I 0 1 1.5 forward I I I I #
cone-surface $-1 50 25 12 0 0 -1 -1.5 0 0 1 I I 0 1 1.5 forward I I I I #
point $-1 48.5 25 12 #
point $-1 51.5 25 12 #
loop $-1 $970 $971 $13 #
coedge $-1 $972 $972 $954 $973 forward $888 $-1 #
coedge $-1 $889 $889 $960 $974 forward $848 $-1 #
edge $-1 $964 0 $962 3.1415926535897931 $889 $975 forward 7 unknown #
edge $-1 $920 0 $922 3.1415926535897931 $890 $976 forward 7 unknown #
ellipse-curve $-1 -25 50 12 0 0 -1 1.5 0 0 1 I I #
ellipse-curve $-1 50 25 12 0 0 -1 -1.5 0 0 1 I I #
coedge $-1 $895 $895 $977 $978 reversed $855 $-1 #
coedge $-1 $979 $980 $895 $937 forward $981 $-1 #
edge $-1 $982 0 $983 3.1415926535897931 $895 $984 forward 7 unknown #
coedge $-1 $985 $896 $986 $987 forward $815 $-1 #
coedge $-1 $988 $989 $896 $940 forward $990 $-1 #
edge $-1 $991 0 $948 140 $896 $992 forward 7 unknown #
coedge $-1 $897 $993 $994 $995 forward $815 $-1 #
coedge $-1 $996 $997 $897 $943 forward $998 $-1 #
edge $-1 $947 0 $999 140 $897 $1000 forward 7 unknown #
coedge $-1 $1001 $898 $997 $1002 forward $946 $-1 #
coedge $-1 $898 $1001 $988 $1003 reversed $946 $-1 #
loop $-1 $-1 $1001 $1004 #
vertex $-1 $943 $1005 #
vertex $-1 $940 $1006 #
straight-curve $-1 -75 70 0 0.70710678118654746 0.70710678118654746 0 I I #
coedge $-1 $1007 $900 $903 $956 reversed $952 $-1 #
coedge $-1 $900 $1007 $902 $955 forward $952 $-1 #
loop $-1 $-1 $950 $1008 #
ellipse-curve $-1 25 50 0 0 0 -1 -1.5 0 0 1 I I #
coedge $-1 $903 $902 $929 $973 reversed $904 $-1 #
edge $-1 $1009 0 $906 12 $951 $1010 forward 7 unknown #
edge $-1 $1011 0 $905 12 $950 $1012 forward 7 unknown #
face $-1 $1008 $904 $3 $-1 $1013 reversed single #
point $-1 26.5 50 0 #
point $-1 23.5 50 0 #
coedge $-1 $909 $908 $930 $974 reversed $910 $-1 #
face $-1 $957 $910 $3 $-1 $1014 reversed single #
vertex $-1 $974 $1015 #
straight-curve $-1 -1.5 50 12 0 0 -1 I I #
vertex $-1 $974 $1016 #
straight-curve $-1 1.5 50 12 0 0 -1 I I #
cone-surface $-1 0 50 12 0 0 -1 -1.5 0 0 1 I I 0 1 1.5 forward I I I I #
cone-surface $-1 -25 50 12 0 0 -1 -1.5 0 0 1 I I 0 1 1.5 forward I I I I #
point $-1 -26.5 50 12 #
point $-1 -23.5 50 12 #
loop $-1 $-1 $1017 $13 #
coedge $-1 $1018 $1019 $1020 $1021 reversed $928 $-1 #
coedge $-1 $929 $929 $1007 $1022 forward $888 $-1 #
edge $-1 $1011 0 $1009 3.1415926535897931 $929 $1023 forward 7 unknown #
edge $-1 $962 0 $964 3.1415926535897931 $930 $1024 forward 7 unknown #
ellipse-curve $-1 0 50 12 0 0 -1 1.5 0 0 1 I I #
ellipse-curve $-1 -25 50 12 0 0 -1 -1.5 0 0 1 I I #
coedge $-1 $1025 $1026 $935 $978 forward $1027 $-1 #
edge $-1 $983 0 $982 3.1415926535897931 $935 $1028 forward 7 unknown #
coedge $-1 $1029 $936 $1026 $1030 reversed $981 $-1 #
coedge $-1 $936 $1029 $1025 $1031 forward $981 $-1 #
loop $-1 $-1 $979 $1032 #
vertex $-1 $978 $1033 #
vertex $-1 $978 $1034 #
ellipse-curve $-1 50 50 0 0 0 -1 1.5 0 0 1 I I #
coedge $-1 $1035 $938 $1036 $1037 reversed $815 $-1 #
coedge $-1 $1038 $1039 $938 $987 reversed $1040 $-1 #
edge $-1 $991 0 $1041 7.0710678118654764 $938 $1042 forward 7 unknown #
coedge $-1 $1043 $939 $945 $1003 forward $990 $-1 #
coedge $-1 $939 $1043 $1038 $1044 reversed $990 $-1 #
loop $-1 $-1 $988 $1045 #
vertex $-1 $987 $1046 #
straight-curve $-1 70 75 0 -1 0 0 I I #
coedge $-1 $941 $1035 $1047 $1048 reversed $815 $-1 #
coedge $-1 $1049 $1050 $941 $995 reversed $1051 $-1 #
edge $-1 $1052 0 $999 7.0710678118654764 $941 $1053 forward 7 unknown #
coedge $-1 $1054 $942 $1050 $1055 forward $998 $-1 #
coedge $-1 $942 $1054 $944 $1002 reversed $998 $-1 #
loop $-1 $-1 $996 $1056 #
vertex $-1 $943 $1057 #
straight-curve $-1 -75 70 0 0 -1 0 I I #
coedge $-1 $945 $944 $1058 $1059 forward $946 $-1 #
edge $-1 $947 0 $1060 12 $997 $1061 forward 7 unknown #
edge $-1 $948 0 $1062 12 $988 $1063 forward 7 unknown #
face $-1 $1045 $946 $3 $-1 $1064 forward single #
point $-1 -75 70 0 #
point $-1 -70 75 0 #
coedge $-1 $951 $950 $972 $1022 reversed $952 $-1 #
face $-1 $1065 $952 $3 $-1 $1066 reversed single #
vertex $-1 $1022 $1067 #
straight-curve $-1 23.5 50 12 0 0 -1 I I #
vertex $-1 $1022 $1068 #
straight-curve $-1 26.5 50 12 0 0 -1 I I #
cone-surface $-1 25 50 12 0 0 -1 -1.5 0 0 1 I I 0 1 1.5 forward I I I I #
cone-surface $-1 0 50 12 0 0 -1 -1.5 0 0 1 I I 0 1 1.5 forward I I I I #
point $-1 -1.5 50 12 #
point $-1 1.5 50 12 #
coedge $-1 $1069 $1069 $1029 $1070 forward $970 $-1 #
coedge $-1 $1071 $971 $1072 $1073 forward $928 $-1 #
coedge $-1 $971 $1058 $1054 $1074 forward $928 $-1 #
coedge $-1 $1050 $1049 $971 $1021 forward $1051 $-1 #
edge $-1 $1075 0 $1076 7.0710678118654764 $971 $1077 forward 7 unknown #
edge $-1 $1009 0 $1011 3.1415926535897931 $972 $1078 forward 7 unknown #
ellipse-curve $-1 25 50 12 0 0 -1 1.5 0 0 1 I I #
ellipse-curve $-1 0 50 12 0 0 -1 -1.5 0 0 1 I I #
coedge $-1 $1079 $977 $980 $1031 reversed $1027 $-1 #
coedge $-1 $977 $1079 $979 $1030 forward $1027 $-1 #
loop $-1 $-1 $1025 $1080 #
ellipse-curve $-1 50 50 0 0 0 -1 -1.5 0 0 1 I I #
coedge $-1 $980 $979 $1017 $1070 reversed $981 $-1 #
edge $-1 $1081 0 $983 12 $1026 $1082 forward 7 unknown #
edge $-1 $1083 0 $982 12 $1025 $1084 forward 7 unknown #
face $-1 $1080 $981 $3 $-1 $1085 reversed single #
point $-1 51.5 50 0 #
point $-1 48.5 50 0 #
coedge $-1 $993 $985 $1086 $1087 forward $815 $-1 #
coedge $-1 $1088 $1089 $985 $1037 forward $1090 $-1 #
edge $-1 $1091 0 $1041 140 $985 $1092 forward 7 unknown #
coedge $-1 $1093 $986 $989 $1044 forward $1040 $-1 #
coedge $-1 $986 $1093 $1088 $1094 reversed $1040 $-1 #
loop $-1 $-1 $1093 $1095 #
vertex $-1 $1037 $1096 #
straight-curve $-1 70 75 0 0.70710678118654746 -0.70710678118654746 0 I I #
coedge $-1 $989 $988 $1097 $1098 reversed $990 $-1 #
edge $-1 $991 0 $1099 12 $989 $1100 forward 7 unknown #
face $-1 $1095 $990 $3 $-1 $1101 forward single #
point $-1 70 75 0 #
coedge $-1 $1102 $1103 $993 $1048 forward $1104 $-1 #
edge $-1 $1052 0 $1105 140 $993 $1106 forward 7 unknown #
coedge $-1 $1020 $994 $1103 $1107 forward $1051 $-1 #
coedge $-1 $994 $1020 $996 $1055 reversed $1051 $-1 #
loop $-1 $-1 $1020 $1065 #
vertex $-1 $995 $1108 #
straight-curve $-1 -70 -75 0 -0.70710678118654746 0.70710678118654746 0 I I #
coedge $-1 $997 $996 $1019 $1074 reversed $998 $-1 #
edge $-1 $999 0 $1076 12 $996 $1109 forward 7 unknown #
face $-1 $1004 $998 $3 $-1 $1110 forward single #
point $-1 -75 -70 0 #
coedge $-1 $1019 $1097 $1001 $1059 reversed $928 $-1 #
edge $-1 $1060 0 $1062 7.0710678118654764 $1058 $1111 forward 7 unknown #
vertex $-1 $1074 $1112 #
straight-curve $-1 -75 70 0 0 0 1 I I #
vertex $-1 $1059 $1113 #
straight-curve $-1 -70 75 0 0 0 1 I I #
plane-surface $-1 -75 70 0 -0.70710678118654757 0.70710678118654757 0 0 0 1 forward_v I I I I #
face $-1 $1056 $1051 $3 $-1 $1114 forward single #
cone-surface $-1 25 50 12 0 0 -1 -1.5 0 0 1 I I 0 1 1.5 forward I I I I #
point $-1 23.5 50 12 #
point $-1 26.5 50 12 #
coedge $-1 $1017 $1017 $1079 $1115 forward $970 $-1 #
edge $-1 $1083 0 $1081 3.1415926535897931 $1017 $1116 forward 7 unknown #
coedge $-1 $1117 $1018 $1118 $1119 reversed $928 $-1 #
coedge $-1 $1103 $1102 $1018 $1073 reversed $1104 $-1 #
edge $-1 $1075 0 $1120 140 $1018 $1121 forward 7 unknown #
edge $-1 $1060 0 $1076 140 $1019 $1122 forward 7 unknown #
vertex $-1 $1073 $1123 #
vertex $-1 $1074 $1124 #
straight-curve $-1 -70 -75 12 -0.70710678118654746 0.70710678118654746 0 I I #
ellipse-curve $-1 25 50 12 0 0 -1 -1.5 0 0 1 I I #
coedge $-1 $1026 $1025 $1069 $1115 reversed $1027 $-1 #
face $-1 $-1 $1027 $3 $-1 $1125 reversed single #
vertex $-1 $1115 $1126 #
straight-curve $-1 48.5 50 12 0 0 -1 I I #
vertex $-1 $1115 $1127 #
straight-curve $-1 51.5 50 12 0 0 -1 I I #
cone-surface $-1 50 50 12 0 0 -1 -1.5 0 0 1 I I 0 1 1.5 forward I I I I #
coedge $-1 $1128 $1129 $1035 $1087 reversed $1130 $-1 #
edge $-1 $1091 0 $1105 7.0710678118654764 $1035 $1131 forward 7 unknown #
coedge $-1 $1132 $1036 $1039 $1094 forward $1090 $-1 #
coedge $-1 $1036 $1132 $1128 $1133 reversed $1090 $-1 #
loop $-1 $-1 $1088 $1134 #
vertex $-1 $1087 $1135 #
straight-curve $-1 75 -70 0 0 1 0 I I #
coedge $-1 $1039 $1038 $1136 $1137 forward $1040 $-1 #
edge $-1 $1041 0 $1138 12 $1088 $1139 forward 7 unknown #
face $-1 $1134 $1040 $3 $-1 $1140 forward single #
point $-1 75 70 0 #
coedge $-1 $1058 $1136 $1043 $1098 forward $928 $-1 #
edge $-1 $1099 0 $1062 140 $1097 $1141 forward 7 unknown #
vertex $-1 $1098 $1142 #
straight-curve $-1 70 75 0 0 0 1 I I #
plane-surface $-1 75 75 0 0 1 0 -1 0 0 forward_v I I I I #
coedge $-1 $1072 $1047 $1129 $1143 forward $1104 $-1 #
coedge $-1 $1047 $1072 $1049 $1107 reversed $1104 $-1 #
loop $-1 $-1 $1102 $1144 #
vertex $-1 $1048 $1145 #
straight-curve $-1 -70 -75 0 1 0 0 I I #
edge $-1 $1052 0 $1075 12 $1103 $1146 forward 7 unknown #
point $-1 -70 -75 0 #
straight-curve $-1 -75 -70 0 0 0 1 I I #
plane-surface $-1 -75 75 0 -1 0 0 0 -1 0 forward_v I I I I #
straight-curve $-1 -75 70 12 0.70710678118654746 0.70710678118654746 0 I I #
point $-1 -75 70 12 #
point $-1 -70 75 12 #
plane-surface $-1 -70 -75 0 -0.70710678118654757 -0.70710678118654757 0 0 0 1 forward_v I I I I #
edge $-1 $1081 0 $1083 3.1415926535897931 $1069 $1147 forward 7 unknown #
ellipse-curve $-1 50 50 12 0 0 -1 1.5 0 0 1 I I #
coedge $-1 $1136 $1071 $1132 $1148 forward $928 $-1 #
coedge $-1 $1129 $1128 $1071 $1119 forward $1130 $-1 #
edge $-1 $1149 0 $1120 7.0710678118654764 $1071 $1150 forward 7 unknown #
vertex $-1 $1119 $1151 #
straight-curve $-1 -70 -75 12 1 0 0 I I #
straight-curve $-1 -75 70 12 0 -1 0 I I #
point $-1 -70 -75 12 #
point $-1 -75 -70 12 #
cone-surface $-1 50 50 12 0 0 -1 -1.5 0 0 1 I I 0 1 1.5 forward I I I I #
point $-1 48.5 50 12 #
point $-1 51.5 50 12 #
coedge $-1 $1118 $1086 $1089 $1133 forward $1130 $-1 #
coedge $-1 $1086 $1118 $1102 $1143 reversed $1130 $-1 #
loop $-1 $-1 $1118 $1152 #
straight-curve $-1 75 -70 0 -0.70710678118654746 -0.70710678118654746 0 I I #
coedge $-1 $1089 $1088 $1117 $1148 reversed $1090 $-1 #
edge $-1 $1091 0 $1149 12 $1089 $1153 forward 7 unknown #
face $-1 $1152 $1090 $3 $-1 $1154 forward single #
point $-1 75 -70 0 #
coedge $-1 $1097 $1117 $1093 $1137 reversed $928 $-1 #
edge $-1 $1099 0 $1138 7.0710678118654764 $1136 $1155 forward 7 unknown #
vertex $-1 $1137 $1156 #
straight-curve $-1 75 70 0 0 0 1 I I #
plane-surface $-1 70 75 0 0.70710678118654757 0.70710678118654757 0 0 0 1 forward_v I I I I #
straight-curve $-1 70 75 12 -1 0 0 I I #
point $-1 70 75 12 #
edge $-1 $1105 0 $1120 12 $1102 $1157 forward 7 unknown #
face $-1 $1032 $1104 $3 $-1 $1158 forward single #
point $-1 70 -75 0 #
straight-curve $-1 -70 -75 0 0 0 1 I I #
ellipse-curve $-1 50 50 12 0 0 -1 -1.5 0 0 1 I I #
edge $-1 $1149 0 $1138 140 $1117 $1159 forward 7 unknown #
vertex $-1 $1148 $1160 #
straight-curve $-1 75 -70 12 -0.70710678118654746 -0.70710678118654746 0 I I #
point $-1 70 -75 12 #
face $-1 $1144 $1130 $3 $-1 $1161 forward single #
straight-curve $-1 75 -70 0 0 0 1 I I #
plane-surface $-1 75 -75 0 1 0 0 0 1 0 forward_v I I I I #
straight-curve $-1 70 75 12 0.70710678118654746 -0.70710678118654746 0 I I #
point $-1 75 70 12 #
straight-curve $-1 70 -75 0 0 0 1 I I #
plane-surface $-1 -75 -75 0 0 -1 0 1 0 0 forward_v I I I I #
straight-curve $-1 75 -70 12 0 1 0 I I #
point $-1 75 -70 12 #
plane-surface $-1 75 -70 0 0.70710678118654757 -0.70710678118654757 0 0 0 1 forward_v I I I I #
End-of-ACIS-data 