600 0 1 0           
101 GICL ACIS Healer - Source: /gicl/data5/repository/CMU/spectrometer/bearing_shaft_57_link_42.sat - 6 0 18 ACIS 6.0.3 Solaris 24 Sat Apr 13 00:29:03 2002 
1 9.999999999999999547e-07 1.000000000000000036e-10 
body $-1 $1 $-1 $-1 #
lump $-1 $-1 $2 $0 #
shell $-1 $-1 $-1 $3 $-1 $1 #
face $-1 $4 $5 $2 $-1 $6 forward single #
face $-1 $7 $8 $2 $-1 $9 forward single #
loop $-1 $-1 $10 $3 #
plane-surface $-1 3.005199999999999871 -4.920999999999999375 4.130200000000000315 0 -1 0 0.7071067811865474617 0 0.7071067811865474617 forward_v I I I I #
face $-1 $11 $12 $2 $-1 $13 forward single #
loop $-1 $14 $15 $4 #
plane-surface $-1 3.005199999999999871 -4.341999999999999638 4.130200000000000315 0 -1 0 0.7071067811865474617 0 0.7071067811865474617 forward_v I I I I #
coedge $-1 $10 $10 $16 $17 forward $5 $-1 #
face $-1 $18 $19 $2 $-1 $20 forward single #
loop $-1 $21 $22 $7 #
plane-surface $-1 3.005199999999999871 -3.669999999999999485 4.130200000000000315 0 -1 0 0.7071067811865474617 0 0.7071067811865474617 forward_v I I I I #
loop $-1 $-1 $23 $4 #
coedge $-1 $15 $15 $24 $25 forward $8 $-1 #
coedge $-1 $16 $16 $10 $17 reversed $26 $-1 #
edge $-1 $27 0 $27 6.283185307179586232 $16 $28 forward 7 unknown #
face $-1 $29 $30 $2 $-1 $31 reversed single #
loop $-1 $32 $33 $11 #
plane-surface $-1 3.005199999999999871 -3.201999999999999957 4.130200000000000315 0 -1 0 0.7071067811865474617 0 0.7071067811865474617 forward_v I I I I #
loop $-1 $-1 $34 $7 #
coedge $-1 $22 $22 $35 $36 forward $12 $-1 #
coedge $-1 $23 $23 $37 $38 forward $14 $-1 #
coedge $-1 $24 $24 $15 $25 reversed $39 $-1 #
edge $-1 $40 -3.141592653589796225 $40 3.141592653589790007 $15 $41 forward 7 unknown #
loop $-1 $-1 $16 $29 #
vertex $-1 $17 $42 #
ellipse-curve $-1 3.005199999999999871 -4.920999999999999375 4.130200000000000315 0 -1 0 0.04596194077712558584 0 0.04596194077712558584 1 I I #
face $-1 $43 $44 $2 $-1 $45 forward single #
loop $-1 $-1 $46 $18 #
plane-surface $-1 3.005199999999999871 -3.155999999999999694 4.130200000000000315 0 -1 0 0.7071067811865474617 0 0.7071067811865474617 forward_v I I I I #
loop $-1 $-1 $47 $11 #
coedge $-1 $33 $33 $48 $49 forward $19 $-1 #
coedge $-1 $34 $34 $50 $51 forward $21 $-1 #
coedge $-1 $35 $35 $22 $36 reversed $52 $-1 #
edge $-1 $53 -3.141592653589793116 $53 3.141592653589793116 $22 $54 forward 7 unknown #
coedge $-1 $37 $37 $23 $38 reversed $55 $-1 #
edge $-1 $56 0 $56 6.283185307179586232 $37 $57 forward 7 unknown #
loop $-1 $58 $24 $59 #
vertex $-1 $25 $60 #
ellipse-curve $-1 3.005199999999999871 -4.341999999999999638 4.130200000000000315 0 1 0 0.06717514421272201275 0 0.06717514421272201275 1 I I #
point $-1 3.051161940777125547 -4.920999999999999375 4.176161940777125992 #
face $-1 $61 $62 $2 $-1 $63 forward single #
loop $-1 $26 $64 $29 #
cone-surface $-1 3.005199999999999871 -4.860999999999999766 4.130200000000000315 0 1 0 0.08838834764831843271 0 0.08838834764831843271 1 I I 0.7071067811865470176 0.7071067811865480168 0.125 forward I I I I #
coedge $-1 $46 $46 $65 $66 forward $30 $-1 #
coedge $-1 $47 $47 $67 $68 forward $32 $-1 #
coedge $-1 $48 $48 $33 $49 reversed $69 $-1 #
edge $-1 $70 -3.141592653589793116 $70 3.141592653589793116 $33 $71 forward 7 unknown #
coedge $-1 $50 $50 $34 $51 reversed $72 $-1 #
edge $-1 $73 0 $73 6.283185307179586232 $50 $74 forward 7 unknown #
loop $-1 $55 $35 $75 #
vertex $-1 $36 $76 #
ellipse-curve $-1 3.005199999999999871 -3.669999999999999485 4.130200000000000315 0 1 0 0.1325825214724776491 0 0.1325825214724776491 1 I I #
loop $-1 $-1 $37 $75 #
vertex $-1 $38 $77 #
ellipse-curve $-1 3.005199999999999871 -4.341999999999999638 4.130200000000000315 0 -1 0 0.1325825214724776491 0 0.1325825214724776491 1 I I #
loop $-1 $-1 $78 $59 #
face $-1 $75 $39 $2 $-1 $79 forward single #
point $-1 2.9380248557872779 -4.341999999999999638 4.0630248557872779 #
face $-1 $59 $80 $2 $-1 $81 forward single #
loop $-1 $82 $83 $43 #
cone-surface $-1 3.005199999999999871 -3.067749999999999311 4.130200000000000315 0 -1 0 -0.08838834764831843271 0 -0.08838834764831843271 1 I I 0 1 0.125 forward I I I I #
coedge $-1 $64 $64 $84 $85 forward $44 $-1 #
coedge $-1 $65 $65 $46 $66 reversed $86 $-1 #
edge $-1 $87 -3.141592653589793116 $87 3.141592653589793116 $46 $88 forward 7 unknown #
coedge $-1 $67 $67 $47 $68 reversed $89 $-1 #
edge $-1 $90 0 $90 6.283185307179586232 $67 $91 forward 7 unknown #
loop $-1 $72 $48 $92 #
vertex $-1 $49 $93 #
ellipse-curve $-1 3.005199999999999871 -3.201999999999999957 4.130200000000000315 0 1 0 0.1545028316892606279 0 0.1545028316892606279 1 I I #
loop $-1 $-1 $50 $92 #
vertex $-1 $51 $94 #
ellipse-curve $-1 3.005199999999999871 -3.669999999999999485 4.130200000000000315 0 -1 0 0.1545028316892606279 0 0.1545028316892606279 1 I I #
face $-1 $92 $52 $2 $-1 $95 forward single #
point $-1 2.872617478527522028 -3.669999999999999485 3.997617478527522472 #
point $-1 3.137782521472477715 -4.341999999999999638 4.262782521472478159 #
coedge $-1 $78 $78 $96 $97 reversed $58 $-1 #
cone-surface $-1 3.005199999999999871 -3.067749999999999311 4.130200000000000315 0 -1 0 -0.06717514421272201275 0 -0.06717514421272201275 1 I I 0 1 0.09500000000000000111 forward I I I I #
loop $-1 $98 $96 $61 #
cone-surface $-1 3.005199999999999871 -4.421999999999999709 4.130200000000000315 0 -1 0 0.08838834764831843271 0 0.08838834764831843271 1 I I 0.7071067811865470176 0.7071067811865480168 0.125 forward I I I I #
loop $-1 $-1 $84 $43 #
coedge $-1 $83 $83 $99 $100 forward $62 $-1 #
coedge $-1 $84 $84 $64 $85 reversed $82 $-1 #
edge $-1 $101 -3.141592653589793116 $101 3.141592653589793116 $84 $102 forward 7 unknown #
loop $-1 $103 $65 $104 #
vertex $-1 $66 $105 #
ellipse-curve $-1 3.005199999999999871 -3.155999999999999694 4.130200000000000315 0 1 0 0.165816540188245376 0 0.165816540188245376 1 I I #
loop $-1 $-1 $67 $106 #
vertex $-1 $68 $107 #
ellipse-curve $-1 3.005199999999999871 -3.201999999999999957 4.130200000000000315 0 -1 0 0.1877368504050283549 0 0.1877368504050283549 1 I I #
face $-1 $106 $69 $2 $-1 $108 forward single #
point $-1 2.850697168310739382 -3.201999999999999957 3.975697168310739826 #
point $-1 3.159702831689260361 -3.669999999999999485 4.284702831689260805 #
cone-surface $-1 3.005199999999999871 -3.067749999999999311 4.130200000000000315 0 -1 0 -0.1325825214724776491 0 -0.1325825214724776491 1 I I 0 1 0.1875 forward I I I I #
coedge $-1 $96 $96 $78 $97 forward $80 $-1 #
edge $-1 $109 -3.141592653589790007 $109 3.141592653589796225 $78 $110 forward 7 unknown #
loop $-1 $-1 $99 $61 #
coedge $-1 $99 $99 $83 $100 reversed $98 $-1 #
edge $-1 $111 -3.141592653589793116 $111 3.141592653589793116 $99 $112 forward 7 unknown #
vertex $-1 $85 $113 #
ellipse-curve $-1 3.005199999999999871 -4.860999999999999766 4.130200000000000315 0 -1 0 0.08838834764831843271 0 0.08838834764831843271 1 I I #
loop $-1 $-1 $114 $104 #
face $-1 $-1 $86 $2 $-1 $115 forward single #
point $-1 2.839383459811754662 -3.155999999999999694 3.964383459811755106 #
face $-1 $104 $116 $2 $-1 $117 forward single #
point $-1 3.192936850405028171 -3.201999999999999957 4.317936850405028615 #
cone-surface $-1 3.005199999999999871 -3.067749999999999311 4.130200000000000315 0 -1 0 -0.1545028316892606279 0 -0.1545028316892606279 1 I I 0 1 0.2184999999999999998 forward I I I I #
vertex $-1 $97 $118 #
ellipse-curve $-1 3.005199999999999871 -4.39199999999999946 4.130200000000000315 0 -1 0 0.06717514421272201275 0 0.06717514421272201275 1 I I #
vertex $-1 $100 $119 #
ellipse-curve $-1 3.005199999999999871 -4.421999999999999709 4.130200000000000315 0 -1 0 0.08838834764831843271 0 0.08838834764831843271 1 I I #
point $-1 2.916811652351681605 -4.860999999999999766 4.041811652351682049 #
coedge $-1 $114 $114 $120 $121 reversed $103 $-1 #
cone-surface $-1 3.005199999999999871 -3.186999999999999389 4.130200000000000315 0 -1 0 0.1877368504050283549 0 0.1877368504050283549 1 I I 0.707106781186549016 0.7071067811865460184 0.2655000000000000138 forward I I I I #
loop $-1 $89 $120 $106 #
cone-surface $-1 3.005199999999999871 -3.067749999999999311 4.130200000000000315 0 -1 0 -0.1877368504050283549 0 -0.1877368504050283549 1 I I 0 1 0.2655000000000000138 forward I I I I #
point $-1 2.9380248557872779 -4.39199999999999946 4.0630248557872779 #
point $-1 2.916811652351681605 -4.421999999999999709 4.041811652351682049 #
coedge $-1 $120 $120 $114 $121 forward $116 $-1 #
edge $-1 $122 -3.141592653589793116 $122 3.141592653589793116 $114 $123 forward 7 unknown #
vertex $-1 $121 $124 #
ellipse-curve $-1 3.005199999999999871 -3.186999999999999389 4.130200000000000315 0 -1 0 0.1877368504050283549 0 0.1877368504050283549 1 I I #
point $-1 2.817463149594971572 -3.186999999999999389 3.942463149594972016 #
End-of-ACIS-data 