700 0 2 0           
24 FBMach with ACIS - 7.0.3 13 ACIS 7.0.3 NT 24 Mon May 13 16:56:53 2002 
1 9.9999999999999995e-007 1e-010 
body $2 -1 $-1 $3 $-1 $4 #
bdycol-kcp $-1 -1 1 6 $5 $6 $7 $8 $9 $10 #
model_id-kcp-attrib $-1 -1 $-1 $-1 $0 1 1021323412 1021323412 -1490485247 1 #
lump $-1 -1 $-1 $-1 $11 $0 #
transform $-1 -1 1 0 0 0 1 0 0 0 1 0 0 0 1 rotate no_reflect no_shear #
body $12 -1 $-1 $13 $-1 $14 #
body $15 -1 $-1 $16 $-1 $17 #
body $18 -1 $-1 $19 $-1 $20 #
body $21 -1 $-1 $22 $-1 $23 #
body $24 -1 $-1 $25 $-1 $26 #
body $27 -1 $-1 $28 $-1 $29 #
shell $-1 -1 $-1 $-1 $-1 $30 $-1 $3 #
model_id-kcp-attrib $-1 -1 $-1 $-1 $5 1 1021323412 1021323412 -1490485246 1 #
lump $-1 -1 $-1 $-1 $31 $5 #
transform $-1 -1 1 0 0 0 1 0 0 0 1 -3.0051999999999999 -4.7114999999999991 4.1302000000000003 1 no_rotate no_reflect no_shear #
rgb_color-st-attrib $-1 -1 $32 $-1 $6 1 1 0.5 #
lump $-1 -1 $-1 $-1 $33 $6 #
transform $-1 -1 1 0 0 0 0 1 0 -1 0 -3.0051999999999999 -5.5640000000000001 4.1302000000000003 1 rotate no_reflect no_shear #
rgb_color-st-attrib $-1 -1 $34 $-1 $7 1 1 0.5 #
lump $-1 -1 $-1 $-1 $35 $7 #
transform $-1 -1 -1 0 0 0 0 1 0 1 0 -3.0051999999999999 -3.8444999999999996 4.1302000000000003 1 rotate no_reflect no_shear #
rgb_color-st-attrib $-1 -1 $36 $-1 $8 0.5 1 1 #
lump $-1 -1 $-1 $-1 $37 $8 #
transform $-1 -1 1 0 0 0 1 0 0 0 1 -3.0051999999999999 -4.7114999999999991 4.1302000000000003 1 no_rotate no_reflect no_shear #
rgb_color-st-attrib $-1 -1 $38 $-1 $9 1 0.5 1 #
lump $-1 -1 $-1 $-1 $39 $9 #
transform $-1 -1 1 0 0 0 1 0 0 0 1 -3.0051999999999999 -4.7114999999999991 4.1302000000000003 1 no_rotate no_reflect no_shear #
rgb_color-st-attrib $-1 -1 $40 $-1 $10 1 0.5 1 #
lump $-1 -1 $-1 $-1 $41 $10 #
transform $-1 -1 1 0 0 0 1 0 0 0 1 -3.0051999999999999 -4.7114999999999991 4.1302000000000003 1 no_rotate no_reflect no_shear #
face $42 -1 $-1 $43 $44 $11 $-1 $45 forward single #
shell $-1 -1 $-1 $-1 $-1 $46 $-1 $13 #
model_id-kcp-attrib $-1 -1 $-1 $15 $6 1 1021323412 1021323412 -1489174525 1 #
shell $-1 -1 $-1 $-1 $-1 $47 $-1 $16 #
model_id-kcp-attrib $-1 -1 $-1 $18 $7 1 1021323412 1021323412 -1489174524 1 #
shell $-1 -1 $-1 $-1 $-1 $48 $-1 $19 #
model_id-kcp-attrib $-1 -1 $-1 $21 $8 1 1021323412 1021323412 -1483931643 1 #
shell $-1 -1 $-1 $-1 $-1 $49 $-1 $22 #
model_id-kcp-attrib $-1 -1 $-1 $24 $9 1 1021323412 1021323413 -1487994874 1 #
shell $-1 -1 $-1 $-1 $-1 $50 $-1 $25 #
model_id-kcp-attrib $-1 -1 $-1 $27 $10 1 1021323412 1021323413 -1483407353 1 #
shell $-1 -1 $-1 $-1 $-1 $51 $-1 $28 #
model_id-kcp-attrib $-1 -1 $-1 $-1 $30 1 1021323412 1021323412 -1490485247 2 #
face $52 -1 $-1 $53 $54 $11 $-1 $55 forward single #
loop $-1 -1 $-1 $-1 $56 $30 #
plane-surface $-1 -1 $-1 -3.0051999999999999 -5.5939999999999994 4.1302000000000003 0 -1 0 0.70710678118654746 0 0.70710678118654746 forward_v I I I I #
face $-1 -1 $-1 $57 $58 $31 $-1 $59 forward single #
face $-1 -1 $-1 $60 $61 $33 $-1 $62 reversed single #
face $-1 -1 $-1 $63 $64 $35 $-1 $65 reversed single #
face $-1 -1 $-1 $66 $67 $37 $-1 $68 reversed single #
face $-1 -1 $-1 $69 $70 $39 $-1 $71 forward single #
face $-1 -1 $-1 $72 $73 $41 $-1 $74 forward single #
model_id-kcp-attrib $-1 -1 $-1 $-1 $43 1 1021323412 1021323412 -1490485247 3 #
face $75 -1 $-1 $76 $77 $11 $-1 $78 forward single #
loop $-1 -1 $-1 $79 $80 $43 #
plane-surface $-1 -1 $-1 -3.0051999999999999 -5.0149999999999997 4.1302000000000003 0 -1 0 0.70710678118654746 0 0.70710678118654746 forward_v I I I I #
coedge $-1 -1 $-1 $56 $56 $81 $82 forward $44 $-1 #
face $-1 -1 $-1 $83 $84 $31 $-1 $85 reversed single #
loop $-1 -1 $-1 $-1 $86 $46 #
plane-surface $-1 -1 $-1 0 0 0.26549999999999985 0 0 1 1 0 0 forward_v I I I I #
face $-1 -1 $-1 $87 $88 $33 $-1 $89 forward single #
loop $-1 -1 $-1 $90 $91 $47 #
cone-surface $-1 -1 $-1 0 0 0.032499999999999751 0 0 1 0.062499999999999993 0 0 1 I I -0.70710678118654746 0.70710678118654757 0.062499999999999993 forward I I I I #
face $-1 -1 $-1 $92 $93 $35 $-1 $94 forward single #
loop $-1 -1 $-1 $95 $96 $48 #
cone-surface $-1 -1 $-1 0 0 0.11724999999999985 0 0 1 0.13274999999999998 0 0 1 I I -0.70710678118654879 0.70710678118654613 0.13274999999999998 forward I I I I #
face $-1 -1 $-1 $97 $98 $37 $-1 $68 reversed single #
loop $-1 -1 $-1 $-1 $99 $49 #
cone-surface $-1 -1 $-1 0 -0.88250000000000028 0 0 -1 0 0.1877368504050283 0 0.18773685040502841 1 I I 0 1 0.26549999999999996 forward I I I I #
face $-1 -1 $-1 $100 $101 $39 $-1 $102 forward single #
loop $-1 -1 $-1 $103 $104 $50 #
cone-surface $-1 -1 $-1 0 0.83649999999999958 0 0 -1 0 -0.15450283168926063 0 -0.15450283168926063 1 I I 0 -1 0.21849999999999997 forward I I I I #
face $-1 -1 $-1 $105 $106 $41 $-1 $107 forward single #
loop $-1 -1 $-1 $108 $109 $51 #
cone-surface $-1 -1 $-1 0 0.36849999999999938 0 0 -1 0 -0.13258252147247765 0 -0.13258252147247765 1 I I 0 -1 0.18749999999999997 forward I I I I #
model_id-kcp-attrib $-1 -1 $-1 $-1 $53 1 1021323412 1021323412 -1490485247 4 #
face $110 -1 $-1 $111 $112 $11 $-1 $113 forward single #
loop $-1 -1 $-1 $114 $115 $53 #
plane-surface $-1 -1 $-1 -3.0051999999999999 -4.343 4.1302000000000003 0 -1 0 0.70710678118654746 0 0.70710678118654746 forward_v I I I I #
loop $-1 -1 $-1 $-1 $116 $43 #
coedge $-1 -1 $-1 $80 $80 $117 $118 forward $54 $-1 #
coedge $-1 -1 $-1 $81 $81 $56 $82 reversed $119 $-1 #
edge $120 -1 $-1 $121 0 $121 6.2831853071795862 $81 $122 forward @7 unknown #
face $123 -1 $-1 $124 $125 $31 $-1 $126 reversed single #
loop $-1 -1 $-1 $-1 $127 $57 #
plane-surface $-1 -1 $-1 0 0 -0.26549999999999985 0 0 1 1 0 0 forward_v I I I I #
coedge $-1 -1 $-1 $128 $129 $130 $131 forward $58 $-1 #
face $-1 -1 $-1 $-1 $132 $33 $-1 $133 forward single #
loop $-1 -1 $-1 $134 $135 $60 #
cone-surface $-1 -1 $-1 0 0 0 0 0 1 0.12499999999999999 0 0 1 I I 0 1 0.12499999999999999 forward I I I I #
loop $-1 -1 $-1 $-1 $136 $47 #
coedge $-1 -1 $-1 $91 $91 $137 $138 reversed $61 $-1 #
face $-1 -1 $-1 $-1 $139 $35 $-1 $140 forward single #
loop $-1 -1 $-1 $141 $142 $63 #
cone-surface $-1 -1 $-1 0 0 0 0 0 1 0.26549999999999996 0 0 1 I I 0 1 0.26549999999999996 forward I I I I #
loop $-1 -1 $-1 $-1 $143 $48 #
coedge $-1 -1 $-1 $96 $96 $144 $145 reversed $64 $-1 #
face $-1 -1 $-1 $146 $147 $37 $-1 $68 reversed single #
loop $-1 -1 $-1 $-1 $148 $66 #
coedge $-1 -1 $-1 $149 $150 $151 $152 reversed $67 $-1 #
face $-1 -1 $-1 $153 $154 $39 $-1 $155 reversed single #
loop $-1 -1 $-1 $156 $157 $69 #
cone-surface $-1 -1 $-1 0 0.83649999999999958 0 0 -1 0 0.1877368504050283 0 0.18773685040502841 1 I I 0 1 0.26549999999999996 forward I I I I #
loop $-1 -1 $-1 $-1 $158 $50 #
coedge $-1 -1 $-1 $104 $104 $159 $160 forward $70 $-1 #
face $-1 -1 $-1 $161 $162 $41 $-1 $163 reversed single #
loop $-1 -1 $-1 $164 $165 $72 #
cone-surface $-1 -1 $-1 0 0.36849999999999938 0 0 -1 0 0.1877368504050283 0 0.18773685040502841 1 I I 0 1 0.26549999999999996 forward I I I I #
loop $-1 -1 $-1 $-1 $166 $51 #
coedge $-1 -1 $-1 $109 $109 $167 $168 forward $73 $-1 #
model_id-kcp-attrib $-1 -1 $-1 $-1 $76 1 1021323412 1021323412 -1490485247 5 #
face $169 -1 $-1 $170 $171 $11 $-1 $172 reversed single #
loop $-1 -1 $-1 $173 $174 $76 #
plane-surface $-1 -1 $-1 -3.0051999999999999 -3.875 4.1302000000000003 0 -1 0 0.70710678118654746 0 0.70710678118654746 forward_v I I I I #
loop $-1 -1 $-1 $-1 $175 $53 #
coedge $-1 -1 $-1 $115 $115 $176 $177 forward $77 $-1 #
coedge $-1 -1 $-1 $116 $116 $178 $179 forward $79 $-1 #
coedge $-1 -1 $-1 $117 $117 $80 $118 reversed $180 $-1 #
edge $-1 -1 $-1 $181 -3.1415926535897962 $181 3.14159265358979 $80 $182 forward @7 unknown #
loop $-1 -1 $-1 $-1 $81 $170 #
attrib_edge_convexity-kcp-attrib $-1 -1 $183 $-1 $82 1 #
vertex $-1 -1 $-1 $82 $184 #
ellipse-curve $-1 -1 $-1 -3.0051999999999999 -5.5939999999999994 4.1302000000000003 0 -1 0 0.045961940777125586 0 0.045961940777125586 1 I I #
model_id-kcp-attrib $-1 -1 $-1 $-1 $83 1 1021323412 1021323412 -1490485246 2 #
face $-1 -1 $-1 $185 $186 $31 $-1 $187 reversed single #
loop $-1 -1 $-1 $-1 $188 $83 #
plane-surface $-1 -1 $-1 0 -0.88249999999999984 0 0 1 0 0 0 1 forward_v I I I I #
coedge $-1 -1 $-1 $189 $190 $191 $192 forward $84 $-1 #
coedge $-1 -1 $-1 $193 $86 $194 $195 forward $58 $-1 #
coedge $-1 -1 $-1 $86 $193 $196 $197 forward $58 $-1 #
coedge $-1 -1 $-1 $198 $199 $86 $131 reversed $200 $-1 #
edge $-1 -1 $-1 $201 -0.88249999999999984 $202 0.88249999999999984 $130 $203 forward @7 unknown #
loop $-1 -1 $-1 $204 $137 $87 #
plane-surface $-1 -1 $-1 0 0 0.029999999999999805 0 0 1 1 0 0 forward_v I I I I #
loop $-1 -1 $-1 $-1 $205 $60 #
coedge $-1 -1 $-1 $135 $135 $136 $206 reversed $88 $-1 #
coedge $-1 -1 $-1 $136 $136 $135 $206 forward $90 $-1 #
coedge $-1 -1 $-1 $137 $137 $91 $138 forward $132 $-1 #
edge $-1 -1 $-1 $207 -3.1415926535897931 $207 3.1415926535897931 $137 $208 forward @7 unknown #
loop $-1 -1 $-1 $209 $144 $92 #
plane-surface $-1 -1 $-1 0 0 0.015499999999999847 0 0 1 1 0 0 forward_v I I I I #
loop $-1 -1 $-1 $-1 $210 $63 #
coedge $-1 -1 $-1 $142 $142 $143 $211 reversed $93 $-1 #
coedge $-1 -1 $-1 $143 $143 $142 $211 forward $95 $-1 #
coedge $-1 -1 $-1 $144 $144 $96 $145 forward $139 $-1 #
edge $-1 -1 $-1 $212 -3.1415926535897931 $212 3.1415926535897931 $144 $213 forward @7 unknown #
face $-1 -1 $-1 $214 $215 $37 $-1 $68 reversed single #
loop $-1 -1 $-1 $-1 $216 $97 #
coedge $-1 -1 $-1 $217 $218 $219 $220 reversed $98 $-1 #
coedge $-1 -1 $-1 $221 $99 $222 $223 forward $67 $-1 #
coedge $-1 -1 $-1 $99 $221 $224 $225 reversed $67 $-1 #
coedge $-1 -1 $-1 $226 $227 $99 $152 forward $228 $-1 #
edge $-1 -1 $-1 $229 -0.78539816339744861 $230 0.78539816339744806 $151 $231 forward @7 unknown #
face $-1 -1 $-1 $-1 $232 $39 $-1 $233 forward single #
loop $-1 -1 $-1 $234 $235 $100 #
plane-surface $-1 -1 $-1 -0.01570304329576229 0.36849999999999883 -0.015703043295762293 -2.0850361185085842e-032 1 -2.3456656333221571e-032 0 2.3456656333221571e-032 1 forward_v I I I I #
loop $-1 -1 $-1 $-1 $236 $69 #
coedge $-1 -1 $-1 $157 $157 $235 $237 forward $101 $-1 #
coedge $-1 -1 $-1 $158 $158 $238 $239 reversed $103 $-1 #
coedge $-1 -1 $-1 $159 $159 $104 $160 reversed $234 $-1 #
edge $-1 -1 $-1 $240 0 $240 6.2831853071795862 $104 $241 forward @7 unknown #
face $-1 -1 $-1 $-1 $242 $41 $-1 $243 forward single #
loop $-1 -1 $-1 $244 $245 $105 #
plane-surface $-1 -1 $-1 -0.014991642897576669 -0.30350000000000044 -0.01499164289757667 -2.3334330326283047e-032 1 -3.0626308553246513e-032 0 3.0626308553246513e-032 1 forward_v I I I I #
loop $-1 -1 $-1 $-1 $246 $72 #
coedge $-1 -1 $-1 $165 $165 $245 $247 forward $106 $-1 #
coedge $-1 -1 $-1 $166 $166 $248 $249 reversed $108 $-1 #
coedge $-1 -1 $-1 $167 $167 $109 $168 reversed $244 $-1 #
edge $-1 -1 $-1 $250 0 $250 6.2831853071795862 $109 $251 forward @7 unknown #
model_id-kcp-attrib $-1 -1 $-1 $-1 $111 1 1021323412 1021323412 -1490485247 6 #
face $252 -1 $-1 $253 $254 $11 $-1 $255 forward single #
loop $-1 -1 $-1 $-1 $256 $111 #
plane-surface $-1 -1 $-1 -3.0051999999999999 -3.8289999999999997 4.1302000000000003 0 -1 0 0.70710678118654746 0 0.70710678118654746 forward_v I I I I #
loop $-1 -1 $-1 $-1 $257 $76 #
coedge $-1 -1 $-1 $174 $174 $258 $259 forward $112 $-1 #
coedge $-1 -1 $-1 $175 $175 $260 $261 forward $114 $-1 #
coedge $-1 -1 $-1 $176 $176 $115 $177 reversed $262 $-1 #
edge $263 -1 $-1 $264 -3.1415926535897931 $264 3.1415926535897931 $115 $265 forward @7 unknown #
coedge $-1 -1 $-1 $178 $178 $116 $179 reversed $266 $-1 #
edge $-1 -1 $-1 $267 0 $267 6.2831853071795862 $178 $268 forward @7 unknown #
loop $-1 -1 $-1 $269 $117 $270 #
vertex $-1 -1 $-1 $118 $271 #
ellipse-curve $-1 -1 $-1 -3.0051999999999999 -5.0149999999999997 4.1302000000000003 0 1 0 0.067175144212722013 0 0.067175144212722013 1 I I #
convexity-sys-attrib $-1 -1 $-1 $120 $82 #
point $-1 -1 $-1 -2.9592380592228742 -5.5939999999999994 4.176161940777126 #
face $272 -1 $-1 $273 $274 $31 $-1 $275 reversed single #
loop $-1 -1 $-1 $-1 $276 $124 #
plane-surface $-1 -1 $-1 -0.26550000000000029 0 0 1 0 0 0 0 -1 forward_v I I I I #
coedge $-1 -1 $-1 $277 $196 $278 $279 forward $125 $-1 #
coedge $-1 -1 $-1 $280 $127 $277 $281 forward $84 $-1 #
coedge $-1 -1 $-1 $127 $280 $282 $283 forward $84 $-1 #
coedge $-1 -1 $-1 $199 $198 $127 $192 reversed $200 $-1 #
edge $-1 -1 $-1 $284 -0.88249999999999984 $285 0.88249999999999984 $191 $286 forward @7 unknown #
coedge $-1 -1 $-1 $129 $128 $287 $288 forward $58 $-1 #
coedge $-1 -1 $-1 $289 $290 $128 $195 reversed $274 $-1 #
edge $-1 -1 $-1 $202 -0.26550000000000029 $291 0.26550000000000029 $194 $292 forward @7 unknown #
coedge $-1 -1 $-1 $188 $293 $129 $197 reversed $125 $-1 #
edge $-1 -1 $-1 $294 -0.26550000000000029 $201 0.26550000000000029 $196 $295 forward @7 unknown #
coedge $-1 -1 $-1 $191 $130 $293 $296 forward $200 $-1 #
coedge $-1 -1 $-1 $130 $191 $289 $297 reversed $200 $-1 #
loop $-1 -1 $-1 $-1 $198 $273 #
vertex $-1 -1 $-1 $131 $298 #
vertex $-1 -1 $-1 $131 $299 #
straight-curve $-1 -1 $-1 0.26550000000000029 0 0.26549999999999985 0 1 0 I I #
loop $-1 -1 $-1 $-1 $300 $87 #
coedge $-1 -1 $-1 $205 $205 $300 $301 reversed $134 $-1 #
edge $-1 -1 $-1 $302 0 $302 6.2831853071795862 $135 $303 forward @7 unknown #
vertex $-1 -1 $-1 $138 $304 #
ellipse-curve $-1 -1 $-1 0 0 0.029999999999999805 0 0 -1 0.064999999999999933 0 0 1 I I #
loop $-1 -1 $-1 $-1 $305 $92 #
coedge $-1 -1 $-1 $210 $210 $305 $306 reversed $141 $-1 #
edge $-1 -1 $-1 $307 0 $307 6.2831853071795862 $142 $308 forward @7 unknown #
vertex $-1 -1 $-1 $145 $309 #
ellipse-curve $-1 -1 $-1 0 0 0.015499999999999847 0 0 -1 0.23450000000000037 0 0 1 I I #
face $-1 -1 $-1 $310 $311 $37 $-1 $312 forward single #
loop $-1 -1 $-1 $-1 $313 $146 #
coedge $-1 -1 $-1 $314 $315 $313 $316 forward $147 $-1 #
coedge $-1 -1 $-1 $317 $148 $318 $319 reversed $98 $-1 #
coedge $-1 -1 $-1 $148 $317 $150 $225 forward $98 $-1 #
coedge $-1 -1 $-1 $320 $321 $148 $220 forward $322 $-1 #
edge $-1 -1 $-1 $323 -2.3561944901923448 $324 -0.78539816339744806 $219 $325 forward @7 unknown #
coedge $-1 -1 $-1 $150 $149 $326 $327 reversed $67 $-1 #
coedge $-1 -1 $-1 $315 $314 $328 $223 reversed $147 $-1 #
edge $-1 -1 $-1 $229 -1.7650000000000001 $329 -4.4408920985006262e-016 $328 $330 forward @7 unknown #
coedge $-1 -1 $-1 $331 $332 $333 $225 forward $334 $-1 #
edge $-1 -1 $-1 $230 -1.7650000000000001 $324 -4.4408920985006262e-016 $224 $335 forward @7 unknown #
coedge $-1 -1 $-1 $227 $151 $332 $336 reversed $228 $-1 #
coedge $-1 -1 $-1 $151 $226 $337 $338 forward $228 $-1 #
loop $-1 -1 $-1 $-1 $151 $339 #
vertex $-1 -1 $-1 $340 $341 #
vertex $-1 -1 $-1 $342 $343 #
ellipse-curve $-1 -1 $-1 0 0.88249999999999984 0 0 -1 0 0.1877368504050283 0 0.18773685040502841 1 I I #
loop $-1 -1 $-1 $344 $345 $153 #
plane-surface $-1 -1 $-1 -0.01570304329576229 0.83649999999999924 -0.015703043295762293 -2.0850361185085842e-032 1 -2.3456656333221571e-032 0 2.3456656333221571e-032 1 forward_v I I I I #
loop $-1 -1 $-1 $-1 $159 $100 #
coedge $-1 -1 $-1 $235 $235 $157 $237 reversed $154 $-1 #
coedge $-1 -1 $-1 $236 $236 $345 $346 reversed $156 $-1 #
edge $-1 -1 $-1 $347 -3.1415926535897931 $347 3.1415926535897931 $157 $348 forward @7 unknown #
coedge $-1 -1 $-1 $238 $238 $158 $239 forward $344 $-1 #
edge $349 -1 $-1 $350 0 $350 6.2831853071795862 $158 $351 forward @7 unknown #
vertex $-1 -1 $-1 $160 $352 #
ellipse-curve $-1 -1 $-1 0 0.36849999999999916 0 0 -1 0 -0.15450283168926063 0 -0.15450283168926063 1 I I #
loop $-1 -1 $-1 $353 $354 $161 #
plane-surface $-1 -1 $-1 -0.014991642897576669 0.36849999999999927 -0.01499164289757667 -2.3334330326283047e-032 1 -3.0626308553246513e-032 0 3.0626308553246513e-032 1 forward_v I I I I #
loop $-1 -1 $-1 $-1 $167 $105 #
coedge $-1 -1 $-1 $245 $245 $165 $247 reversed $162 $-1 #
coedge $-1 -1 $-1 $246 $246 $354 $355 reversed $164 $-1 #
edge $-1 -1 $-1 $356 -3.1415926535897931 $356 3.1415926535897931 $165 $357 forward @7 unknown #
coedge $-1 -1 $-1 $248 $248 $166 $249 forward $353 $-1 #
edge $358 -1 $-1 $359 0 $359 6.2831853071795862 $166 $360 forward @7 unknown #
vertex $-1 -1 $-1 $168 $361 #
ellipse-curve $-1 -1 $-1 0 -0.30350000000000033 0 0 -1 0 -0.13258252147247765 0 -0.13258252147247765 1 I I #
model_id-kcp-attrib $-1 -1 $-1 $-1 $170 1 1021323412 1021323412 -1490485247 7 #
face $362 -1 $-1 $363 $364 $11 $-1 $365 forward single #
loop $-1 -1 $-1 $119 $366 $170 #
cone-surface $-1 -1 $-1 -3.0051999999999999 -5.5339999999999998 4.1302000000000003 0 1 0 0.088388347648318433 0 0.088388347648318433 1 I I 0.70710678118654702 0.70710678118654802 0.125 forward I I I I #
coedge $-1 -1 $-1 $256 $256 $367 $368 forward $171 $-1 #
coedge $-1 -1 $-1 $257 $257 $369 $370 forward $173 $-1 #
coedge $-1 -1 $-1 $258 $258 $174 $259 reversed $371 $-1 #
edge $372 -1 $-1 $373 -3.1415926535897931 $373 3.1415926535897931 $174 $374 forward @7 unknown #
coedge $-1 -1 $-1 $260 $260 $175 $261 reversed $375 $-1 #
edge $376 -1 $-1 $377 0 $377 6.2831853071795862 $260 $378 forward @7 unknown #
loop $-1 -1 $-1 $266 $176 $379 #
attrib_edge_convexity-kcp-attrib $-1 -1 $380 $-1 $177 2 #
vertex $-1 -1 $-1 $177 $381 #
ellipse-curve $-1 -1 $-1 -3.0051999999999999 -4.343 4.1302000000000003 0 1 0 0.13258252147247765 0 0.13258252147247765 1 I I #
loop $-1 -1 $-1 $-1 $178 $379 #
vertex $-1 -1 $-1 $179 $382 #
ellipse-curve $-1 -1 $-1 -3.0051999999999999 -5.0149999999999997 4.1302000000000003 0 -1 0 0.13258252147247765 0 0.13258252147247765 1 I I #
loop $-1 -1 $-1 $-1 $383 $270 #
face $384 -1 $-1 $379 $180 $11 $-1 $385 forward single #
point $-1 -1 $-1 -3.0723751442127218 -5.0149999999999997 4.0630248557872779 #
model_id-kcp-attrib $-1 -1 $-1 $-1 $185 1 1021323412 1021323412 -1490485246 3 #
face $-1 -1 $-1 $-1 $200 $31 $-1 $386 reversed single #
loop $-1 -1 $-1 $-1 $289 $185 #
plane-surface $-1 -1 $-1 0 0.88249999999999984 0 0 -1 0 0 0 -1 forward_v I I I I #
coedge $-1 -1 $-1 $387 $287 $290 $388 forward $186 $-1 #
coedge $-1 -1 $-1 $293 $188 $189 $281 reversed $125 $-1 #
coedge $-1 -1 $-1 $287 $387 $188 $279 reversed $186 $-1 #
edge $-1 -1 $-1 $294 -0.26549999999999985 $389 0.26549999999999985 $278 $390 forward @7 unknown #
coedge $-1 -1 $-1 $190 $189 $387 $391 forward $84 $-1 #
edge $-1 -1 $-1 $285 -0.26550000000000029 $389 0.26550000000000029 $277 $392 forward @7 unknown #
coedge $-1 -1 $-1 $290 $289 $190 $283 reversed $274 $-1 #
edge $-1 -1 $-1 $393 -0.26550000000000029 $284 0.26550000000000029 $282 $394 forward @7 unknown #
vertex $-1 -1 $-1 $192 $395 #
vertex $-1 -1 $-1 $296 $396 #
straight-curve $-1 -1 $-1 0.26550000000000029 0 -0.26549999999999985 0 -1 0 I I #
coedge $-1 -1 $-1 $276 $278 $193 $288 reversed $186 $-1 #
edge $-1 -1 $-1 $291 -0.88249999999999984 $294 0.88249999999999984 $287 $397 forward @7 unknown #
coedge $-1 -1 $-1 $282 $194 $199 $297 forward $274 $-1 #
coedge $-1 -1 $-1 $194 $282 $276 $388 reversed $274 $-1 #
vertex $-1 -1 $-1 $195 $398 #
straight-curve $-1 -1 $-1 0 0.88249999999999984 0.26549999999999985 -1 0 0 I I #
coedge $-1 -1 $-1 $196 $277 $198 $296 reversed $125 $-1 #
vertex $-1 -1 $-1 $288 $399 #
straight-curve $-1 -1 $-1 0 -0.88249999999999984 0.26549999999999985 1 0 0 I I #
edge $-1 -1 $-1 $201 -0.26549999999999985 $285 0.26549999999999985 $198 $400 forward @7 unknown #
edge $-1 -1 $-1 $202 -0.26549999999999985 $284 0.26549999999999985 $199 $401 forward @7 unknown #
point $-1 -1 $-1 0.26550000000000029 -0.88249999999999984 0.26549999999999985 #
point $-1 -1 $-1 0.26550000000000029 0.88249999999999984 0.26549999999999985 #
coedge $-1 -1 $-1 $300 $300 $205 $301 forward $204 $-1 #
edge $-1 -1 $-1 $402 0 $402 6.2831853071795862 $300 $403 forward @7 unknown #
vertex $-1 -1 $-1 $206 $404 #
ellipse-curve $-1 -1 $-1 0 0 -0.029999999999999805 0 0 -1 0.12499999999999999 0 0 1 I I #
point $-1 -1 $-1 -0.064999999999999933 7.9599412998454434e-018 0.029999999999999805 #
coedge $-1 -1 $-1 $305 $305 $210 $306 forward $209 $-1 #
edge $-1 -1 $-1 $405 0 $405 6.2831853071795862 $305 $406 forward @7 unknown #
vertex $-1 -1 $-1 $211 $407 #
ellipse-curve $-1 -1 $-1 0 0 -0.015499999999999847 0 0 -1 0.26549999999999996 0 0 1 I I #
point $-1 -1 $-1 -0.23450000000000037 2.871701899713479e-017 0.015499999999999847 #
face $-1 -1 $-1 $408 $409 $37 $-1 $410 reversed single #
loop $-1 -1 $-1 $-1 $333 $214 #
plane-surface $-1 -1 $-1 0 0 0.26549999999999985 0 0 1 1 0 0 forward_v I I I I #
coedge $-1 -1 $-1 $411 $412 $413 $316 reversed $215 $-1 #
coedge $-1 -1 $-1 $222 $216 $414 $415 reversed $147 $-1 #
coedge $-1 -1 $-1 $216 $222 $416 $417 reversed $147 $-1 #
edge $-1 -1 $-1 $418 -1.7650000000000001 $419 -4.4408920985006262e-016 $413 $420 forward @7 unknown #
coedge $-1 -1 $-1 $218 $217 $421 $422 reversed $98 $-1 #
coedge $-1 -1 $-1 $423 $424 $425 $319 forward $409 $-1 #
edge $-1 -1 $-1 $426 -1.7650000000000001 $323 -4.4408920985006262e-016 $318 $427 forward @7 unknown #
coedge $-1 -1 $-1 $321 $219 $428 $429 reversed $322 $-1 #
coedge $-1 -1 $-1 $219 $320 $423 $430 forward $322 $-1 #
loop $-1 -1 $-1 $-1 $219 $431 #
vertex $-1 -1 $-1 $432 $433 #
vertex $-1 -1 $-1 $434 $435 #
ellipse-curve $-1 -1 $-1 0 -0.88249999999999984 0 0 1 0 0.1877368504050283 0 0.18773685040502841 1 I I #
coedge $-1 -1 $-1 $436 $437 $221 $327 forward $438 $-1 #
edge $-1 -1 $-1 $324 -0.78539816339744806 $329 0.78539816339744861 $326 $325 forward @7 unknown #
coedge $-1 -1 $-1 $439 $440 $441 $223 forward $442 $-1 #
vertex $-1 -1 $-1 $443 $444 #
straight-curve $-1 -1 $-1 0.26550000000000029 -0.88250000000000028 0 0 -1 0 I I #
coedge $-1 -1 $-1 $445 $224 $437 $434 forward $334 $-1 #
coedge $-1 -1 $-1 $224 $445 $226 $336 forward $334 $-1 #
coedge $-1 -1 $-1 $446 $428 $218 $225 reversed $311 $-1 #
loop $-1 -1 $-1 $-1 $224 $447 #
straight-curve $-1 -1 $-1 0 -0.88250000000000028 0.26549999999999985 0 -1 0 I I #
edge $-1 -1 $-1 $448 -0.26550000000000029 $230 0 $226 $449 forward @7 unknown #
coedge $-1 -1 $-1 $450 $441 $227 $338 reversed $451 $-1 #
edge $-1 -1 $-1 $448 -0.26549999999999985 $229 0 $337 $452 forward @7 unknown #
face $-1 -1 $-1 $453 $228 $37 $-1 $454 reversed single #
edge $-1 -1 $-1 $229 0 $455 0.26549999999999985 $440 $452 forward @7 unknown #
point $-1 -1 $-1 0.26550000000000029 0.88249999999999984 0 #
edge $-1 -1 $-1 $230 0 $456 0.26550000000000029 $457 $449 forward @7 unknown #
point $-1 -1 $-1 0 0.88249999999999984 0.26549999999999985 #
loop $-1 -1 $-1 $-1 $238 $153 #
coedge $-1 -1 $-1 $345 $345 $236 $346 forward $232 $-1 #
edge $458 -1 $-1 $459 -3.1415926535897931 $459 3.1415926535897931 $236 $460 forward @7 unknown #
vertex $-1 -1 $-1 $237 $461 #
ellipse-curve $-1 -1 $-1 0 0.36849999999999916 0 0 1 0 0.1877368504050283 0 0.18773685040502841 1 I I #
convexity-sys-attrib $-1 -1 $-1 $-1 $239 #
vertex $-1 -1 $-1 $239 $462 #
ellipse-curve $-1 -1 $-1 0 0.83649999999999958 0 0 -1 0 -0.15450283168926063 0 -0.15450283168926063 1 I I #
point $-1 -1 $-1 -0.15450283168926049 0.36849999999999872 -0.15450283168926049 #
loop $-1 -1 $-1 $-1 $248 $161 #
coedge $-1 -1 $-1 $354 $354 $246 $355 forward $242 $-1 #
edge $463 -1 $-1 $464 -3.1415926535897931 $464 3.1415926535897931 $246 $465 forward @7 unknown #
vertex $-1 -1 $-1 $247 $466 #
ellipse-curve $-1 -1 $-1 0 -0.30350000000000033 0 0 1 0 0.1877368504050283 0 0.18773685040502841 1 I I #
convexity-sys-attrib $-1 -1 $-1 $-1 $249 #
vertex $-1 -1 $-1 $249 $467 #
ellipse-curve $-1 -1 $-1 0 0.36849999999999938 0 0 -1 0 -0.13258252147247765 0 -0.13258252147247765 1 I I #
point $-1 -1 $-1 -0.13258252147247784 -0.30350000000000055 -0.13258252147247784 #
model_id-kcp-attrib $-1 -1 $-1 $-1 $253 1 1021323412 1021323412 -1490485247 8 #
face $468 -1 $-1 $270 $469 $11 $-1 $470 forward single #
loop $-1 -1 $-1 $471 $472 $253 #
cone-surface $-1 -1 $-1 -3.0051999999999999 -3.7407499999999994 4.1302000000000003 0 -1 0 -0.088388347648318433 0 -0.088388347648318433 1 I I 0 1 0.125 forward I I I I #
coedge $-1 -1 $-1 $366 $366 $473 $474 forward $254 $-1 #
coedge $-1 -1 $-1 $367 $367 $256 $368 reversed $475 $-1 #
edge $476 -1 $-1 $477 -3.1415926535897931 $477 3.1415926535897931 $256 $478 forward @7 unknown #
coedge $-1 -1 $-1 $369 $369 $257 $370 reversed $479 $-1 #
edge $480 -1 $-1 $481 0 $481 6.2831853071795862 $369 $482 forward @7 unknown #
loop $-1 -1 $-1 $375 $258 $483 #
attrib_edge_convexity-kcp-attrib $-1 -1 $484 $-1 $259 2 #
vertex $-1 -1 $-1 $259 $485 #
ellipse-curve $-1 -1 $-1 -3.0051999999999999 -3.875 4.1302000000000003 0 1 0 0.15450283168926063 0 0.15450283168926063 1 I I #
loop $-1 -1 $-1 $-1 $260 $483 #
attrib_edge_convexity-kcp-attrib $-1 -1 $486 $-1 $261 1 #
vertex $-1 -1 $-1 $261 $487 #
ellipse-curve $-1 -1 $-1 -3.0051999999999999 -4.343 4.1302000000000003 0 -1 0 0.15450283168926063 0 0.15450283168926063 1 I I #
face $488 -1 $-1 $483 $262 $11 $-1 $489 forward single #
convexity-sys-attrib $-1 -1 $-1 $263 $177 #
point $-1 -1 $-1 -3.1377825214724777 -4.343 3.9976174785275225 #
point $-1 -1 $-1 -2.872617478527522 -5.0149999999999997 4.2627825214724782 #
coedge $-1 -1 $-1 $383 $383 $490 $491 reversed $269 $-1 #
model_id-kcp-attrib $-1 -1 $-1 $-1 $270 1 1021323412 1021323412 -1490485247 10 #
cone-surface $-1 -1 $-1 -3.0051999999999999 -3.7407499999999994 4.1302000000000003 0 -1 0 -0.067175144212722013 0 -0.067175144212722013 1 I I 0 1 0.095000000000000001 forward I I I I #
plane-surface $-1 -1 $-1 0.26550000000000029 0 0 -1 0 0 0 0 1 forward_v I I I I #
coedge $-1 -1 $-1 $278 $276 $280 $391 reversed $186 $-1 #
edge $-1 -1 $-1 $291 -0.26549999999999985 $393 0.26549999999999985 $290 $492 forward @7 unknown #
vertex $-1 -1 $-1 $391 $493 #
straight-curve $-1 -1 $-1 -0.26550000000000029 -0.88249999999999984 0 0 0 -1 I I #
edge $-1 -1 $-1 $389 -0.88249999999999984 $393 0.88249999999999984 $387 $494 forward @7 unknown #
straight-curve $-1 -1 $-1 0 -0.88249999999999984 -0.26549999999999985 -1 0 0 I I #
vertex $-1 -1 $-1 $283 $495 #
straight-curve $-1 -1 $-1 0 0.88249999999999984 -0.26549999999999985 1 0 0 I I #
point $-1 -1 $-1 0.26550000000000029 0.88249999999999984 -0.26549999999999985 #
point $-1 -1 $-1 0.26550000000000029 -0.88249999999999984 -0.26549999999999985 #
straight-curve $-1 -1 $-1 -0.26550000000000029 0 0.26549999999999985 0 -1 0 I I #
point $-1 -1 $-1 -0.26550000000000029 0.88249999999999984 0.26549999999999985 #
point $-1 -1 $-1 -0.26550000000000029 -0.88249999999999984 0.26549999999999985 #
straight-curve $-1 -1 $-1 0.26550000000000029 -0.88249999999999984 0 0 0 -1 I I #
straight-curve $-1 -1 $-1 0.26550000000000029 0.88249999999999984 0 0 0 -1 I I #
vertex $-1 -1 $-1 $301 $496 #
ellipse-curve $-1 -1 $-1 0 0 0.029999999999999805 0 0 1 0.12499999999999999 0 0 1 I I #
point $-1 -1 $-1 0.12499999999999999 0 -0.029999999999999805 #
vertex $-1 -1 $-1 $306 $497 #
ellipse-curve $-1 -1 $-1 0 0 0.015499999999999847 0 0 1 0.26549999999999996 0 0 1 I I #
point $-1 -1 $-1 0.26549999999999996 0 -0.015499999999999847 #
face $-1 -1 $-1 $498 $451 $37 $-1 $499 reversed single #
loop $-1 -1 $-1 $-1 $318 $310 #
plane-surface $-1 -1 $-1 -0.26550000000000029 0 0 1 0 0 0 0 -1 forward_v I I I I #
coedge $-1 -1 $-1 $500 $313 $501 $502 reversed $215 $-1 #
coedge $-1 -1 $-1 $313 $500 $503 $504 reversed $215 $-1 #
coedge $-1 -1 $-1 $505 $506 $507 $316 forward $508 $-1 #
coedge $-1 -1 $-1 $509 $510 $314 $415 forward $511 $-1 #
edge $-1 -1 $-1 $329 0.78539816339744861 $419 2.3561944901923453 $414 $325 forward @7 unknown #
coedge $-1 -1 $-1 $512 $513 $315 $417 forward $514 $-1 #
edge $-1 -1 $-1 $418 -2.3561944901923453 $229 -0.78539816339744861 $416 $231 forward @7 unknown #
vertex $-1 -1 $-1 $515 $516 #
vertex $-1 -1 $-1 $517 $518 #
straight-curve $-1 -1 $-1 0 -0.88250000000000028 -0.26549999999999985 0 -1 0 I I #
coedge $-1 -1 $-1 $519 $457 $317 $422 forward $520 $-1 #
edge $-1 -1 $-1 $230 0.78539816339744806 $426 2.3561944901923448 $421 $231 forward @7 unknown #
coedge $-1 -1 $-1 $521 $318 $321 $430 reversed $409 $-1 #
coedge $-1 -1 $-1 $318 $521 $519 $522 forward $409 $-1 #
coedge $-1 -1 $-1 $523 $524 $500 $319 reversed $525 $-1 #
vertex $-1 -1 $-1 $526 $527 #
straight-curve $-1 -1 $-1 -0.26550000000000029 -0.88250000000000028 0 0 -1 0 I I #
coedge $-1 -1 $-1 $333 $528 $320 $429 forward $311 $-1 #
edge $-1 -1 $-1 $529 -0.26550000000000029 $324 0 $320 $530 forward @7 unknown #
edge $-1 -1 $-1 $529 -0.26549999999999985 $323 0 $423 $531 forward @7 unknown #
face $-1 -1 $-1 $532 $322 $37 $-1 $533 reversed single #
edge $-1 -1 $-1 $323 0 $534 0.26549999999999985 $524 $531 forward @7 unknown #
point $-1 -1 $-1 -0.26550000000000029 -0.88249999999999984 0 #
edge $-1 -1 $-1 $324 0 $535 0.26550000000000029 $437 $530 forward @7 unknown #
point $-1 -1 $-1 0 -0.88249999999999984 0.26549999999999985 #
coedge $-1 -1 $-1 $437 $326 $536 $537 reversed $438 $-1 #
coedge $-1 -1 $-1 $326 $436 $331 $434 reversed $438 $-1 #
loop $-1 -1 $-1 $-1 $326 $532 #
coedge $-1 -1 $-1 $538 $328 $510 $443 forward $442 $-1 #
coedge $-1 -1 $-1 $328 $538 $512 $340 reversed $442 $-1 #
coedge $-1 -1 $-1 $337 $536 $149 $223 reversed $451 $-1 #
loop $-1 -1 $-1 $-1 $328 $539 #
edge $-1 -1 $-1 $329 0 $540 0.26549999999999985 $439 $541 forward @7 unknown #
point $-1 -1 $-1 0.26550000000000029 -0.88249999999999984 0 #
coedge $-1 -1 $-1 $332 $331 $450 $542 forward $334 $-1 #
coedge $-1 -1 $-1 $528 $333 $457 $342 forward $311 $-1 #
face $-1 -1 $-1 $543 $334 $37 $-1 $312 forward single #
vertex $-1 -1 $-1 $542 $544 #
straight-curve $-1 -1 $-1 0 0.88249999999999984 0.26549999999999985 -1 0 0 I I #
coedge $-1 -1 $-1 $536 $337 $445 $542 reversed $451 $-1 #
loop $-1 -1 $-1 $-1 $441 $408 #
straight-curve $-1 -1 $-1 0.26550000000000029 0.88249999999999984 0 0 0 -1 I I #
face $-1 -1 $-1 $545 $520 $37 $-1 $454 reversed single #
plane-surface $-1 -1 $-1 0 0.88249999999999984 0 0 -1 0 0 0 -1 forward_v I I I I #
vertex $-1 -1 $-1 $546 $547 #
vertex $-1 -1 $-1 $342 $548 #
coedge $-1 -1 $-1 $421 $519 $446 $342 reversed $520 $-1 #
convexity-sys-attrib $-1 -1 $-1 $-1 $346 #
vertex $-1 -1 $-1 $346 $549 #
ellipse-curve $-1 -1 $-1 0 0.83649999999999958 0 0 1 0 0.1877368504050283 0 0.18773685040502841 1 I I #
point $-1 -1 $-1 -0.18773685040502833 0.36849999999999916 -0.18773685040502838 #
point $-1 -1 $-1 -0.15450283168926049 0.83649999999999913 -0.15450283168926049 #
convexity-sys-attrib $-1 -1 $-1 $-1 $355 #
vertex $-1 -1 $-1 $355 $550 #
ellipse-curve $-1 -1 $-1 0 0.36849999999999938 0 0 1 0 0.1877368504050283 0 0.18773685040502841 1 I I #
point $-1 -1 $-1 -0.18773685040502833 -0.30350000000000033 -0.18773685040502838 #
point $-1 -1 $-1 -0.13258252147247784 0.36849999999999916 -0.13258252147247784 #
model_id-kcp-attrib $-1 -1 $-1 $-1 $363 1 1021323412 1021323412 -1490485247 9 #
loop $-1 -1 $-1 $551 $490 $363 #
cone-surface $-1 -1 $-1 -3.0051999999999999 -5.0949999999999998 4.1302000000000003 0 -1 0 0.088388347648318433 0 0.088388347648318433 1 I I 0.70710678118654702 0.70710678118654802 0.125 forward I I I I #
loop $-1 -1 $-1 $-1 $473 $253 #
coedge $-1 -1 $-1 $472 $472 $552 $553 forward $364 $-1 #
coedge $-1 -1 $-1 $473 $473 $366 $474 reversed $471 $-1 #
edge $554 -1 $-1 $555 -3.1415926535897931 $555 3.1415926535897931 $473 $556 forward @7 unknown #
loop $-1 -1 $-1 $557 $367 $558 #
attrib_edge_convexity-kcp-attrib $-1 -1 $559 $-1 $368 1 #
vertex $-1 -1 $-1 $368 $560 #
ellipse-curve $-1 -1 $-1 -3.0051999999999999 -3.8289999999999997 4.1302000000000003 0 1 0 0.16581654018824538 0 0.16581654018824538 1 I I #
loop $-1 -1 $-1 $-1 $369 $561 #
attrib_edge_convexity-kcp-attrib $-1 -1 $562 $-1 $370 1 #
vertex $-1 -1 $-1 $370 $563 #
ellipse-curve $-1 -1 $-1 -3.0051999999999999 -3.875 4.1302000000000003 0 -1 0 0.18773685040502835 0 0.18773685040502835 1 I I #
face $564 -1 $-1 $561 $371 $11 $-1 $565 forward single #
convexity-sys-attrib $-1 -1 $-1 $372 $259 #
point $-1 -1 $-1 -3.1597028316892604 -3.875 3.9756971683107398 #
convexity-sys-attrib $-1 -1 $-1 $376 $261 #
point $-1 -1 $-1 -2.8506971683107394 -4.343 4.2847028316892608 #
model_id-kcp-attrib $-1 -1 $-1 $-1 $379 1 1021323412 1021323412 -1490485247 11 #
cone-surface $-1 -1 $-1 -3.0051999999999999 -3.7407499999999994 4.1302000000000003 0 -1 0 -0.13258252147247765 0 -0.13258252147247765 1 I I 0 1 0.1875 forward I I I I #
coedge $-1 -1 $-1 $490 $490 $383 $491 forward $469 $-1 #
edge $-1 -1 $-1 $566 -3.14159265358979 $566 3.1415926535897962 $383 $567 forward @7 unknown #
straight-curve $-1 -1 $-1 -0.26550000000000029 0.88249999999999984 0 0 0 -1 I I #
point $-1 -1 $-1 -0.26550000000000029 -0.88249999999999984 -0.26549999999999985 #
straight-curve $-1 -1 $-1 -0.26550000000000029 0 -0.26549999999999985 0 1 0 I I #
point $-1 -1 $-1 -0.26550000000000029 0.88249999999999984 -0.26549999999999985 #
point $-1 -1 $-1 0.12499999999999999 0 0.029999999999999805 #
point $-1 -1 $-1 0.26549999999999996 0 0.015499999999999847 #
face $-1 -1 $-1 $431 $568 $37 $-1 $533 reversed single #
plane-surface $-1 -1 $-1 0.26550000000000029 0 0 -1 0 0 0 0 1 forward_v I I I I #
coedge $-1 -1 $-1 $412 $411 $217 $319 forward $215 $-1 #
coedge $-1 -1 $-1 $569 $570 $411 $502 forward $571 $-1 #
edge $-1 -1 $-1 $426 2.3561944901923448 $418 3.926990816987241 $501 $231 forward @7 unknown #
coedge $-1 -1 $-1 $572 $573 $412 $504 forward $568 $-1 #
edge $-1 -1 $-1 $419 2.3561944901923453 $323 3.9269908169872414 $503 $325 forward @7 unknown #
coedge $-1 -1 $-1 $574 $413 $573 $517 forward $508 $-1 #
coedge $-1 -1 $-1 $413 $574 $569 $575 forward $508 $-1 #
coedge $-1 -1 $-1 $576 $577 $216 $316 reversed $578 $-1 #
loop $-1 -1 $-1 $-1 $413 $543 #
coedge $-1 -1 $-1 $510 $414 $577 $579 reversed $511 $-1 #
coedge $-1 -1 $-1 $414 $509 $439 $443 reversed $511 $-1 #
loop $-1 -1 $-1 $-1 $414 $580 #
coedge $-1 -1 $-1 $513 $416 $440 $340 forward $514 $-1 #
coedge $-1 -1 $-1 $416 $512 $576 $515 reversed $514 $-1 #
loop $-1 -1 $-1 $-1 $416 $581 #
edge $-1 -1 $-1 $418 0 $455 0.26550000000000029 $513 $582 forward @7 unknown #
point $-1 -1 $-1 0 0.88249999999999984 -0.26549999999999985 #
edge $-1 -1 $-1 $419 0 $534 0.26550000000000029 $573 $583 forward @7 unknown #
point $-1 -1 $-1 0 -0.88249999999999984 -0.26549999999999985 #
coedge $-1 -1 $-1 $457 $421 $424 $522 reversed $520 $-1 #
loop $-1 -1 $-1 $-1 $421 $453 #
coedge $-1 -1 $-1 $424 $423 $528 $584 reversed $409 $-1 #
edge $-1 -1 $-1 $456 -0.26549999999999985 $426 0 $519 $585 forward @7 unknown #
coedge $-1 -1 $-1 $586 $425 $570 $526 forward $525 $-1 #
coedge $-1 -1 $-1 $425 $586 $572 $432 reversed $525 $-1 #
loop $-1 -1 $-1 $-1 $425 $587 #
edge $-1 -1 $-1 $426 0 $588 0.26549999999999985 $570 $585 forward @7 unknown #
point $-1 -1 $-1 -0.26550000000000029 0.88249999999999984 0 #
coedge $-1 -1 $-1 $428 $446 $521 $584 forward $311 $-1 #
vertex $-1 -1 $-1 $584 $589 #
straight-curve $-1 -1 $-1 0 -0.88249999999999984 0.26549999999999985 1 0 0 I I #
straight-curve $-1 -1 $-1 -0.26550000000000029 -0.88249999999999984 0 0 0 -1 I I #
face $-1 -1 $-1 $580 $438 $37 $-1 $533 reversed single #
plane-surface $-1 -1 $-1 0 -0.88249999999999984 0 0 1 0 0 0 1 forward_v I I I I #
vertex $-1 -1 $-1 $590 $591 #
vertex $-1 -1 $-1 $542 $592 #
coedge $-1 -1 $-1 $441 $450 $436 $537 forward $451 $-1 #
edge $-1 -1 $-1 $535 -0.26549999999999985 $329 0 $536 $541 forward @7 unknown #
coedge $-1 -1 $-1 $440 $439 $593 $546 reversed $442 $-1 #
face $-1 -1 $-1 $-1 $442 $37 $-1 $499 reversed single #
vertex $-1 -1 $-1 $443 $594 #
straight-curve $-1 -1 $-1 0.26550000000000029 -0.88249999999999984 0 0 0 -1 I I #
edge $-1 -1 $-1 $535 -0.88249999999999984 $448 0.88249999999999984 $450 $595 forward @7 unknown #
face $-1 -1 $-1 $587 $508 $37 $-1 $596 reversed single #
point $-1 -1 $-1 0.26550000000000029 0.88249999999999984 0.26549999999999985 #
face $-1 -1 $-1 $597 $571 $37 $-1 $454 reversed single #
edge $-1 -1 $-1 $455 -0.88249999999999984 $540 0.88249999999999984 $538 $598 forward @7 unknown #
point $-1 -1 $-1 0.26550000000000029 0.88249999999999984 -0.26549999999999985 #
point $-1 -1 $-1 -0.26550000000000029 0.88249999999999984 0.26549999999999985 #
point $-1 -1 $-1 -0.18773685040502833 0.83649999999999958 -0.18773685040502838 #
point $-1 -1 $-1 -0.18773685040502833 0.36849999999999938 -0.18773685040502838 #
loop $-1 -1 $-1 $-1 $552 $363 #
coedge $-1 -1 $-1 $552 $552 $472 $553 reversed $551 $-1 #
edge $-1 -1 $-1 $599 -3.1415926535897931 $599 3.1415926535897931 $552 $600 forward @7 unknown #
attrib_edge_convexity-kcp-attrib $-1 -1 $601 $-1 $474 1 #
vertex $-1 -1 $-1 $474 $602 #
ellipse-curve $-1 -1 $-1 -3.0051999999999999 -5.5339999999999998 4.1302000000000003 0 -1 0 0.088388347648318433 0 0.088388347648318433 1 I I #
loop $-1 -1 $-1 $-1 $603 $558 #
face $604 -1 $-1 $-1 $475 $11 $-1 $605 forward single #
convexity-sys-attrib $-1 -1 $-1 $476 $368 #
point $-1 -1 $-1 -3.1710165401882451 -3.8289999999999997 3.9643834598117551 #
face $606 -1 $-1 $558 $607 $11 $-1 $608 forward single #
convexity-sys-attrib $-1 -1 $-1 $480 $370 #
point $-1 -1 $-1 -2.8174631495949716 -3.875 4.3179368504050286 #
model_id-kcp-attrib $-1 -1 $-1 $-1 $483 1 1021323412 1021323412 -1490485247 12 #
cone-surface $-1 -1 $-1 -3.0051999999999999 -3.7407499999999994 4.1302000000000003 0 -1 0 -0.15450283168926063 0 -0.15450283168926063 1 I I 0 1 0.2185 forward I I I I #
vertex $-1 -1 $-1 $491 $609 #
ellipse-curve $-1 -1 $-1 -3.0051999999999999 -5.0649999999999995 4.1302000000000003 0 -1 0 0.067175144212722013 0 0.067175144212722013 1 I I #
loop $-1 -1 $-1 $-1 $503 $498 #
coedge $-1 -1 $-1 $570 $501 $506 $575 reversed $571 $-1 #
coedge $-1 -1 $-1 $501 $569 $523 $526 reversed $571 $-1 #
loop $-1 -1 $-1 $-1 $501 $545 #
coedge $-1 -1 $-1 $573 $503 $524 $432 forward $568 $-1 #
coedge $-1 -1 $-1 $503 $572 $505 $517 reversed $568 $-1 #
coedge $-1 -1 $-1 $506 $505 $586 $590 forward $508 $-1 #
edge $-1 -1 $-1 $588 -0.26550000000000029 $418 0 $569 $582 forward @7 unknown #
coedge $-1 -1 $-1 $593 $507 $513 $515 forward $578 $-1 #
coedge $-1 -1 $-1 $507 $593 $509 $579 forward $578 $-1 #
loop $-1 -1 $-1 $-1 $507 $597 #
edge $-1 -1 $-1 $540 -0.26550000000000029 $419 0 $509 $583 forward @7 unknown #
face $-1 -1 $-1 $581 $511 $37 $-1 $533 reversed single #
face $-1 -1 $-1 $339 $514 $37 $-1 $454 reversed single #
straight-curve $-1 -1 $-1 0 0.88249999999999984 -0.26549999999999985 1 0 0 I I #
straight-curve $-1 -1 $-1 0 -0.88249999999999984 -0.26549999999999985 -1 0 0 I I #
edge $-1 -1 $-1 $456 -0.88249999999999984 $529 0.88249999999999984 $521 $610 forward @7 unknown #
straight-curve $-1 -1 $-1 -0.26550000000000029 0.88249999999999984 0 0 0 -1 I I #
coedge $-1 -1 $-1 $524 $523 $574 $590 reversed $525 $-1 #
face $-1 -1 $-1 $539 $525 $37 $-1 $410 reversed single #
vertex $-1 -1 $-1 $575 $611 #
point $-1 -1 $-1 -0.26550000000000029 -0.88249999999999984 0.26549999999999985 #
edge $-1 -1 $-1 $534 -0.88249999999999984 $588 0.88249999999999984 $586 $612 forward @7 unknown #
point $-1 -1 $-1 -0.26550000000000029 -0.88249999999999984 -0.26549999999999985 #
point $-1 -1 $-1 0.26550000000000029 -0.88249999999999984 0.26549999999999985 #
coedge $-1 -1 $-1 $577 $576 $538 $546 forward $578 $-1 #
point $-1 -1 $-1 0.26550000000000029 -0.88249999999999984 -0.26549999999999985 #
straight-curve $-1 -1 $-1 0.26550000000000029 0 0.26549999999999985 0 1 0 I I #
plane-surface $-1 -1 $-1 0 0 -0.26549999999999985 0 0 1 1 0 0 forward_v I I I I #
face $-1 -1 $-1 $447 $578 $37 $-1 $596 reversed single #
straight-curve $-1 -1 $-1 0.26550000000000029 0 -0.26549999999999985 0 -1 0 I I #
vertex $-1 -1 $-1 $553 $613 #
ellipse-curve $-1 -1 $-1 -3.0051999999999999 -5.0949999999999998 4.1302000000000003 0 -1 0 0.088388347648318433 0 0.088388347648318433 1 I I #
convexity-sys-attrib $-1 -1 $-1 $554 $474 #
point $-1 -1 $-1 -3.0935883476483181 -5.5339999999999998 4.041811652351682 #
coedge $-1 -1 $-1 $603 $603 $614 $615 reversed $557 $-1 #
model_id-kcp-attrib $-1 -1 $-1 $-1 $558 1 1021323412 1021323412 -1490485247 14 #
cone-surface $-1 -1 $-1 -3.0051999999999999 -3.8599999999999994 4.1302000000000003 0 -1 0 0.18773685040502835 0 0.18773685040502835 1 I I 0.70710678118654902 0.70710678118654602 0.26550000000000001 forward I I I I #
model_id-kcp-attrib $-1 -1 $-1 $-1 $561 1 1021323412 1021323412 -1490485247 13 #
loop $-1 -1 $-1 $479 $614 $561 #
cone-surface $-1 -1 $-1 -3.0051999999999999 -3.7407499999999994 4.1302000000000003 0 -1 0 -0.18773685040502835 0 -0.18773685040502835 1 I I 0 1 0.26550000000000001 forward I I I I #
point $-1 -1 $-1 -3.0723751442127218 -5.0649999999999995 4.0630248557872779 #
straight-curve $-1 -1 $-1 -0.26550000000000029 0 0.26549999999999985 0 -1 0 I I #
point $-1 -1 $-1 -0.26550000000000029 0.88249999999999984 -0.26549999999999985 #
straight-curve $-1 -1 $-1 -0.26550000000000029 0 -0.26549999999999985 0 1 0 I I #
point $-1 -1 $-1 -3.0935883476483181 -5.0949999999999998 4.041811652351682 #
coedge $-1 -1 $-1 $614 $614 $603 $615 forward $607 $-1 #
edge $616 -1 $-1 $617 -3.1415926535897931 $617 3.1415926535897931 $603 $618 forward @7 unknown #
attrib_edge_convexity-kcp-attrib $-1 -1 $619 $-1 $615 1 #
vertex $-1 -1 $-1 $615 $620 #
ellipse-curve $-1 -1 $-1 -3.0051999999999999 -3.8599999999999994 4.1302000000000003 0 -1 0 0.18773685040502835 0 0.18773685040502835 1 I I #
convexity-sys-attrib $-1 -1 $-1 $616 $615 #
point $-1 -1 $-1 -3.1929368504050282 -3.8599999999999994 3.942463149594972 #
End-of-ACIS-data 