700 0 2 0           
24 FBMach with ACIS - 7.0.3 13 ACIS 7.0.3 NT 24 Mon May 13 16:55:26 2002 
1 9.9999999999999995e-007 1e-010 
body $2 -1 $-1 $3 $-1 $4 #
bdycol-kcp $-1 -1 1 4 $5 $6 $7 $8 #
model_id-kcp-attrib $-1 -1 $-1 $-1 $0 1 1021323326 1021323326 -1625882623 1 #
lump $-1 -1 $-1 $-1 $9 $0 #
transform $-1 -1 1 0 0 0 1 0 0 0 1 0 0 0 1 rotate no_reflect no_shear #
body $10 -1 $-1 $11 $-1 $12 #
body $13 -1 $-1 $14 $-1 $15 #
body $16 -1 $-1 $17 $-1 $18 #
body $19 -1 $-1 $20 $-1 $21 #
shell $-1 -1 $-1 $-1 $-1 $22 $-1 $3 #
model_id-kcp-attrib $-1 -1 $-1 $-1 $5 1 1021323326 1021323326 -1625882622 1 #
lump $-1 -1 $-1 $-1 $23 $5 #
transform $-1 -1 1 0 0 0 1 0 0 0 1 2.7755575615628914e-017 3.6395 1.125 1 no_rotate no_reflect no_shear #
rgb_color-st-attrib $-1 -1 $24 $-1 $6 0.5 1 1 #
lump $-1 -1 $-1 $-1 $25 $6 #
transform $-1 -1 1 0 0 0 -3.8285889215894375e-016 -1 0 1 -3.8285889215894375e-016 0 3.6394999999999995 1.125 1 rotate no_reflect no_shear #
rgb_color-st-attrib $-1 -1 $26 $-1 $7 0.5 1 1 #
lump $-1 -1 $-1 $-1 $27 $7 #
transform $-1 -1 1 0 0 0 1 0 0 0 1 2.7755575615628914e-017 3.6395 1.125 1 no_rotate no_reflect no_shear #
rgb_color-st-attrib $-1 -1 $28 $-1 $8 1 0.5 1 #
lump $-1 -1 $-1 $-1 $29 $8 #
transform $-1 -1 1 0 0 0 1 0 0 0 1 2.7755575615628914e-017 3.6395 1.125 1 no_rotate no_reflect no_shear #
face $30 -1 $-1 $31 $32 $9 $-1 $33 reversed single #
shell $-1 -1 $-1 $-1 $-1 $34 $-1 $11 #
model_id-kcp-attrib $-1 -1 $-1 $13 $6 1 1021323326 1021323326 -1623916541 1 #
shell $-1 -1 $-1 $-1 $-1 $35 $-1 $14 #
model_id-kcp-attrib $-1 -1 $-1 $16 $7 1 1021323326 1021323326 -1619329020 1 #
shell $-1 -1 $-1 $-1 $-1 $36 $-1 $17 #
model_id-kcp-attrib $-1 -1 $-1 $19 $8 1 1021323326 1021323326 -1612775419 1 #
shell $-1 -1 $-1 $-1 $-1 $37 $-1 $20 #
model_id-kcp-attrib $-1 -1 $-1 $-1 $22 1 1021323326 1021323326 -1625882623 2 #
face $38 -1 $-1 $39 $40 $9 $-1 $41 forward single #
loop $-1 -1 $-1 $42 $43 $22 #
plane-surface $-1 -1 $-1 0 3.7799999999999998 1.125 0 -1 0 -0.70710678118654746 0 0.70710678118654746 forward_v I I I I #
face $-1 -1 $-1 $44 $45 $23 $-1 $46 forward single #
face $-1 -1 $-1 $47 $48 $25 $-1 $49 forward single #
face $-1 -1 $-1 $50 $51 $27 $-1 $52 reversed single #
face $-1 -1 $-1 $53 $54 $29 $-1 $55 forward single #
model_id-kcp-attrib $-1 -1 $-1 $-1 $31 1 1021323326 1021323326 -1625882623 3 #
face $56 -1 $-1 $57 $58 $9 $-1 $59 forward single #
loop $-1 -1 $-1 $60 $61 $31 #
plane-surface $-1 -1 $-1 0 3.718 1.125 0 -1 0 -0.70710678118654746 0 0.70710678118654746 forward_v I I I I #
loop $62 -1 $-1 $-1 $63 $22 #
coedge $-1 -1 $-1 $43 $43 $64 $65 forward $32 $-1 #
face $-1 -1 $-1 $66 $67 $23 $-1 $68 reversed single #
loop $-1 -1 $-1 $-1 $69 $34 #
plane-surface $-1 -1 $-1 0 0 0.48450000000000004 0 0 1 1 0 0 forward_v I I I I #
face $-1 -1 $-1 $70 $71 $25 $-1 $72 forward single #
loop $-1 -1 $-1 $73 $74 $35 #
cone-surface $-1 -1 $-1 0 0 0 0 0 1 0.18749999999999997 0 0 1 I I 0 1 0.18749999999999997 forward I I I I #
face $-1 -1 $-1 $75 $76 $27 $-1 $52 reversed single #
loop $-1 -1 $-1 $-1 $77 $36 #
cone-surface $-1 -1 $-1 -2.7755575615628914e-017 0.14049999999999985 0 0 1 0 -0.34259323548488224 0 -0.34259323548488224 1 I I 0 1 0.48449999999999993 forward I I I I #
face $-1 -1 $-1 $78 $79 $29 $-1 $80 forward single #
loop $-1 -1 $-1 $81 $82 $37 #
cone-surface $-1 -1 $-1 -2.7755575615628914e-017 0.078499999999999792 0 0 -1 0 -0.30935921676911449 0 -0.30935921676911449 1 I I 0 -1 0.43749999999999994 forward I I I I #
model_id-kcp-attrib $-1 -1 $-1 $-1 $39 1 1021323326 1021323326 -1625882623 4 #
face $83 -1 $-1 $84 $85 $9 $-1 $86 forward single #
loop $-1 -1 $-1 $87 $88 $39 #
cone-surface $-1 -1 $-1 0 3.7799999999999998 1.125 0 -1 0 -0.34259323548488224 0 -0.34259323548488224 1 I I 0 1 0.48449999999999999 forward I I I I #
loop $-1 -1 $-1 $-1 $89 $31 #
coedge $-1 -1 $-1 $61 $61 $88 $90 reversed $40 $-1 #
model_id-kcp-attrib $-1 -1 $-1 $-1 $42 1 1021323326 1021323326 -1625882623 13 #
coedge $-1 -1 $-1 $63 $63 $91 $92 forward $42 $-1 #
coedge $-1 -1 $-1 $64 $64 $43 $65 reversed $87 $-1 #
edge $93 -1 $-1 $94 -3.1415926535897931 $94 3.1415926535897931 $64 $95 forward @7 unknown #
face $96 -1 $-1 $97 $98 $23 $-1 $99 reversed single #
loop $-1 -1 $-1 $-1 $100 $44 #
plane-surface $-1 -1 $-1 0 0 -0.48450000000000004 0 0 1 1 0 0 forward_v I I I I #
coedge $-1 -1 $-1 $101 $102 $103 $104 forward $45 $-1 #
face $-1 -1 $-1 $-1 $105 $25 $-1 $106 forward single #
loop $-1 -1 $-1 $-1 $107 $47 #
plane-surface $-1 -1 $-1 0 0 -0.14050000000000007 0 0 -1 -1 0 0 forward_v I I I I #
loop $-1 -1 $-1 $-1 $108 $35 #
coedge $-1 -1 $-1 $74 $74 $107 $109 reversed $48 $-1 #
face $-1 -1 $-1 $110 $111 $27 $-1 $52 reversed single #
loop $-1 -1 $-1 $-1 $112 $50 #
coedge $-1 -1 $-1 $113 $114 $115 $116 reversed $51 $-1 #
face $-1 -1 $-1 $117 $118 $29 $-1 $119 reversed single #
loop $-1 -1 $-1 $120 $121 $53 #
cone-surface $-1 -1 $-1 -2.7755575615628914e-017 0.078499999999999792 0 0 -1 0 -0.34259323548488224 0 -0.34259323548488224 1 I I 0 1 0.48449999999999993 forward I I I I #
loop $-1 -1 $-1 $-1 $122 $37 #
coedge $-1 -1 $-1 $82 $82 $123 $124 forward $54 $-1 #
model_id-kcp-attrib $-1 -1 $-1 $-1 $57 1 1021323326 1021323326 -1625882623 5 #
face $125 -1 $-1 $126 $127 $9 $-1 $128 forward single #
loop $-1 -1 $-1 $129 $130 $57 #
plane-surface $-1 -1 $-1 0 3.4989999999999997 1.125 0 -1 0 -0.70710678118654746 0 0.70710678118654746 forward_v I I I I #
loop $-1 -1 $-1 $-1 $64 $39 #
coedge $-1 -1 $-1 $88 $88 $61 $90 forward $58 $-1 #
coedge $-1 -1 $-1 $89 $89 $131 $132 forward $60 $-1 #
edge $133 -1 $-1 $134 5.9119762408936947e-017 $134 6.2831853071795862 $88 $135 forward @7 unknown #
coedge $-1 -1 $-1 $91 $91 $63 $92 reversed $136 $-1 #
edge $137 -1 $-1 $138 -3.1415926535897931 $138 3.1415926535897931 $91 $139 forward @7 unknown #
attrib_edge_convexity-kcp-attrib $-1 -1 $140 $-1 $65 1 #
vertex $-1 -1 $-1 $65 $141 #
ellipse-curve $-1 -1 $-1 0 3.7799999999999998 1.125 0 1 0 0.34259323548488224 0 0.34259323548488224 1 I I #
model_id-kcp-attrib $-1 -1 $-1 $-1 $66 1 1021323326 1021323326 -1625882622 3 #
face $-1 -1 $-1 $142 $143 $23 $-1 $144 reversed single #
loop $-1 -1 $-1 $-1 $145 $66 #
plane-surface $-1 -1 $-1 0 -0.14050000000000007 0 0 1 0 0 0 1 forward_v I I I I #
coedge $-1 -1 $-1 $146 $147 $148 $149 forward $67 $-1 #
coedge $-1 -1 $-1 $150 $69 $151 $152 forward $45 $-1 #
coedge $-1 -1 $-1 $69 $150 $153 $154 forward $45 $-1 #
coedge $-1 -1 $-1 $155 $156 $69 $104 reversed $157 $-1 #
edge $-1 -1 $-1 $158 -0.14050000000000007 $159 0.14050000000000007 $103 $160 forward @7 unknown #
loop $-1 -1 $-1 $-1 $161 $70 #
plane-surface $-1 -1 $-1 0 0 0.14050000000000007 0 0 1 1 0 0 forward_v I I I I #
coedge $-1 -1 $-1 $107 $107 $74 $109 forward $71 $-1 #
coedge $-1 -1 $-1 $108 $108 $161 $162 reversed $73 $-1 #
edge $-1 -1 $-1 $163 0 $163 6.2831853071795862 $107 $164 forward @7 unknown #
face $-1 -1 $-1 $165 $166 $27 $-1 $52 reversed single #
loop $-1 -1 $-1 $-1 $167 $75 #
coedge $-1 -1 $-1 $168 $169 $170 $171 reversed $76 $-1 #
coedge $-1 -1 $-1 $172 $77 $173 $174 forward $51 $-1 #
coedge $-1 -1 $-1 $77 $172 $175 $176 reversed $51 $-1 #
coedge $-1 -1 $-1 $177 $178 $77 $116 forward $179 $-1 #
edge $-1 -1 $-1 $180 0.78539816339744828 $181 2.3561944901923448 $115 $182 forward @7 unknown #
face $-1 -1 $-1 $-1 $183 $29 $-1 $184 forward single #
loop $-1 -1 $-1 $185 $186 $78 #
plane-surface $-1 -1 $-1 0.003021274428706127 -0.14050000000000051 0.0030212744287061374 0 1 0 0 0 1 forward_v I I I I #
loop $-1 -1 $-1 $-1 $187 $53 #
coedge $-1 -1 $-1 $121 $121 $186 $188 forward $79 $-1 #
coedge $-1 -1 $-1 $122 $122 $189 $190 reversed $81 $-1 #
coedge $-1 -1 $-1 $123 $123 $82 $124 reversed $185 $-1 #
edge $-1 -1 $-1 $191 0 $191 6.2831853071795862 $82 $192 forward @7 unknown #
model_id-kcp-attrib $-1 -1 $-1 $-1 $84 1 1021323326 1021323326 -1625882623 6 #
face $193 -1 $-1 $-1 $194 $9 $-1 $195 reversed single #
loop $-1 -1 $-1 $196 $197 $84 #
cone-surface $-1 -1 $-1 0 3.718 1.125 0 -1 0 -0.30935921676911449 0 -0.30935921676911449 1 I I 0 1 0.4375 forward I I I I #
loop $198 -1 $-1 $-1 $199 $57 #
coedge $-1 -1 $-1 $130 $130 $197 $200 reversed $85 $-1 #
coedge $-1 -1 $-1 $131 $131 $89 $132 reversed $196 $-1 #
edge $201 -1 $-1 $202 -3.1415926535897931 $202 3.1415926535897931 $131 $203 forward @7 unknown #
attrib_edge_convexity-kcp-attrib $-1 -1 $204 $-1 $90 1 #
vertex $-1 -1 $-1 $90 $205 #
ellipse-curve $-1 -1 $-1 0 3.718 1.125 0 1 0 -0.34259323548488224 0 -0.34259323548488224 1 I I #
loop $206 -1 $-1 $-1 $91 $126 #
attrib_edge_convexity-kcp-attrib $-1 -1 $207 $-1 $92 1 #
vertex $208 -1 $-1 $92 $209 #
ellipse-curve $-1 -1 $-1 0 3.7799999999999998 1.125 0 -1 0 0.13258252147247765 0 0.13258252147247765 1 I I #
convexity-sys-attrib $-1 -1 $-1 $93 $65 #
point $-1 -1 $-1 -0.34259323548488224 3.7799999999999998 0.78240676451511781 #
face $210 -1 $-1 $211 $212 $23 $-1 $213 reversed single #
loop $-1 -1 $-1 $-1 $214 $97 #
plane-surface $-1 -1 $-1 -0.48449999999999993 0 0 1 0 0 0 0 -1 forward_v I I I I #
coedge $-1 -1 $-1 $215 $153 $216 $217 forward $98 $-1 #
coedge $-1 -1 $-1 $218 $100 $215 $219 forward $67 $-1 #
coedge $-1 -1 $-1 $100 $218 $220 $221 forward $67 $-1 #
coedge $-1 -1 $-1 $156 $155 $100 $149 reversed $157 $-1 #
edge $-1 -1 $-1 $222 -0.14050000000000007 $223 0.14050000000000007 $148 $224 forward @7 unknown #
coedge $-1 -1 $-1 $102 $101 $225 $226 forward $45 $-1 #
coedge $-1 -1 $-1 $227 $228 $101 $152 reversed $212 $-1 #
edge $-1 -1 $-1 $159 -0.48449999999999993 $229 0.48449999999999993 $151 $230 forward @7 unknown #
coedge $-1 -1 $-1 $145 $231 $102 $154 reversed $98 $-1 #
edge $-1 -1 $-1 $232 -0.48449999999999993 $158 0.48449999999999993 $153 $233 forward @7 unknown #
coedge $-1 -1 $-1 $148 $103 $231 $234 forward $157 $-1 #
coedge $-1 -1 $-1 $103 $148 $227 $235 reversed $157 $-1 #
loop $-1 -1 $-1 $-1 $155 $211 #
vertex $-1 -1 $-1 $104 $236 #
vertex $-1 -1 $-1 $104 $237 #
straight-curve $-1 -1 $-1 0.48449999999999993 0 0.48450000000000004 0 1 0 I I #
coedge $-1 -1 $-1 $161 $161 $108 $162 forward $105 $-1 #
edge $-1 -1 $-1 $238 0 $238 6.2831853071795862 $161 $239 forward @7 unknown #
vertex $-1 -1 $-1 $109 $240 #
ellipse-curve $-1 -1 $-1 0 0 -0.14050000000000007 0 0 -1 0.18749999999999997 0 0 1 I I #
face $-1 -1 $-1 $241 $242 $27 $-1 $243 forward single #
loop $-1 -1 $-1 $-1 $244 $110 #
coedge $-1 -1 $-1 $245 $246 $244 $247 forward $111 $-1 #
coedge $-1 -1 $-1 $248 $112 $249 $250 reversed $76 $-1 #
coedge $-1 -1 $-1 $112 $248 $114 $176 forward $76 $-1 #
coedge $-1 -1 $-1 $251 $252 $112 $171 forward $253 $-1 #
edge $-1 -1 $-1 $254 2.3561944901923448 $255 3.9269908169872414 $170 $256 forward @7 unknown #
coedge $-1 -1 $-1 $114 $113 $257 $258 reversed $51 $-1 #
coedge $-1 -1 $-1 $246 $245 $259 $174 reversed $111 $-1 #
edge $-1 -1 $-1 $180 -0.28099999999999992 $260 2.2204460492503131e-016 $259 $261 forward @7 unknown #
coedge $-1 -1 $-1 $262 $263 $264 $176 forward $265 $-1 #
edge $-1 -1 $-1 $181 -0.28099999999999992 $255 2.2204460492503131e-016 $175 $266 forward @7 unknown #
coedge $-1 -1 $-1 $178 $115 $263 $267 reversed $179 $-1 #
coedge $-1 -1 $-1 $115 $177 $268 $269 forward $179 $-1 #
loop $-1 -1 $-1 $-1 $115 $270 #
vertex $-1 -1 $-1 $271 $272 #
vertex $-1 -1 $-1 $273 $274 #
ellipse-curve $-1 -1 $-1 -2.7755575615628914e-017 -0.14050000000000007 0 0 1 0 -0.34259323548488224 0 -0.34259323548488224 1 I I #
loop $-1 -1 $-1 $275 $276 $117 #
plane-surface $-1 -1 $-1 0.003021274428706127 0.078499999999999792 0.0030212744287061374 0 1 0 0 0 1 forward_v I I I I #
loop $-1 -1 $-1 $-1 $123 $78 #
coedge $-1 -1 $-1 $186 $186 $121 $188 reversed $118 $-1 #
coedge $-1 -1 $-1 $187 $187 $276 $277 reversed $120 $-1 #
edge $-1 -1 $-1 $278 -3.1415926535897931 $278 3.1415926535897931 $121 $279 forward @7 unknown #
coedge $-1 -1 $-1 $189 $189 $122 $190 forward $275 $-1 #
edge $280 -1 $-1 $281 0 $281 6.2831853071795862 $122 $282 forward @7 unknown #
vertex $-1 -1 $-1 $124 $283 #
ellipse-curve $-1 -1 $-1 -2.7755575615628914e-017 -0.14050000000000051 0 0 -1 0 -0.30935921676911449 0 -0.30935921676911449 1 I I #
model_id-kcp-attrib $-1 -1 $-1 $-1 $126 1 1021323326 1021323326 -1625882623 7 #
loop $284 -1 $-1 $136 $285 $126 #
cone-surface $-1 -1 $-1 0 3.4989999999999997 1.125 0 1 0 -0.13258252147247765 0 -0.13258252147247765 1 I I 0 1 0.1875 forward I I I I #
loop $-1 -1 $-1 $-1 $131 $84 #
coedge $-1 -1 $-1 $197 $197 $130 $200 forward $127 $-1 #
model_id-kcp-attrib $-1 -1 $-1 $-1 $129 1 1021323326 1021323326 -1625882623 12 #
coedge $-1 -1 $-1 $199 $199 $285 $286 reversed $129 $-1 #
edge $-1 -1 $-1 $287 0 $287 6.2831853071795862 $197 $288 forward @7 unknown #
attrib_edge_convexity-kcp-attrib $-1 -1 $289 $-1 $132 2 #
vertex $-1 -1 $-1 $132 $290 #
ellipse-curve $-1 -1 $-1 0 3.718 1.125 0 1 0 0.30935921676911449 0 0.30935921676911449 1 I I #
convexity-sys-attrib $-1 -1 $-1 $133 $90 #
point $-1 -1 $-1 -0.34259323548488224 3.718 0.78240676451511781 #
model_id-kcp-attrib $-1 -1 $-1 $-1 $136 1 1021323326 1021323326 -1625882623 11 #
convexity-sys-attrib $-1 -1 $-1 $137 $92 #
model_id-kcp-attrib $-1 -1 $-1 $-1 $138 1 1021323326 1021323326 -1625882623 15 #
point $-1 -1 $-1 -0.13258252147247765 3.7799999999999998 0.99241747852752238 #
model_id-kcp-attrib $-1 -1 $-1 $-1 $142 1 1021323326 1021323326 -1625882622 2 #
face $-1 -1 $-1 $-1 $157 $23 $-1 $291 reversed single #
loop $-1 -1 $-1 $-1 $227 $142 #
plane-surface $-1 -1 $-1 0 0.14050000000000007 0 0 -1 0 0 0 -1 forward_v I I I I #
coedge $-1 -1 $-1 $292 $225 $228 $293 forward $143 $-1 #
coedge $-1 -1 $-1 $231 $145 $146 $219 reversed $98 $-1 #
coedge $-1 -1 $-1 $225 $292 $145 $217 reversed $143 $-1 #
edge $-1 -1 $-1 $232 -0.48450000000000004 $294 0.48450000000000004 $216 $295 forward @7 unknown #
coedge $-1 -1 $-1 $147 $146 $292 $296 forward $67 $-1 #
edge $-1 -1 $-1 $223 -0.48449999999999993 $294 0.48449999999999993 $215 $297 forward @7 unknown #
coedge $-1 -1 $-1 $228 $227 $147 $221 reversed $212 $-1 #
edge $-1 -1 $-1 $298 -0.48449999999999993 $222 0.48449999999999993 $220 $299 forward @7 unknown #
vertex $-1 -1 $-1 $149 $300 #
vertex $-1 -1 $-1 $234 $301 #
straight-curve $-1 -1 $-1 0.48449999999999993 0 -0.48450000000000004 0 -1 0 I I #
coedge $-1 -1 $-1 $214 $216 $150 $226 reversed $143 $-1 #
edge $-1 -1 $-1 $229 -0.14050000000000007 $232 0.14050000000000007 $225 $302 forward @7 unknown #
coedge $-1 -1 $-1 $220 $151 $156 $235 forward $212 $-1 #
coedge $-1 -1 $-1 $151 $220 $214 $293 reversed $212 $-1 #
vertex $-1 -1 $-1 $152 $303 #
straight-curve $-1 -1 $-1 0 0.14050000000000007 0.48450000000000004 -1 0 0 I I #
coedge $-1 -1 $-1 $153 $215 $155 $234 reversed $98 $-1 #
vertex $-1 -1 $-1 $226 $304 #
straight-curve $-1 -1 $-1 0 -0.14050000000000007 0.48450000000000004 1 0 0 I I #
edge $-1 -1 $-1 $158 -0.48450000000000004 $223 0.48450000000000004 $155 $305 forward @7 unknown #
edge $-1 -1 $-1 $159 -0.48450000000000004 $222 0.48450000000000004 $156 $306 forward @7 unknown #
point $-1 -1 $-1 0.48449999999999993 -0.14050000000000007 0.48450000000000004 #
point $-1 -1 $-1 0.48449999999999993 0.14050000000000007 0.48450000000000004 #
vertex $-1 -1 $-1 $162 $307 #
ellipse-curve $-1 -1 $-1 0 0 0.14050000000000007 0 0 1 0.18749999999999997 0 0 1 I I #
point $-1 -1 $-1 0.18749999999999997 0 -0.14050000000000007 #
face $-1 -1 $-1 $308 $309 $27 $-1 $310 reversed single #
loop $-1 -1 $-1 $-1 $264 $165 #
plane-surface $-1 -1 $-1 0 0 0.48450000000000004 0 0 1 1 0 0 forward_v I I I I #
coedge $-1 -1 $-1 $311 $312 $313 $247 reversed $166 $-1 #
coedge $-1 -1 $-1 $173 $167 $314 $315 reversed $111 $-1 #
coedge $-1 -1 $-1 $167 $173 $316 $317 reversed $111 $-1 #
edge $-1 -1 $-1 $318 -0.28099999999999992 $319 2.2204460492503131e-016 $313 $320 forward @7 unknown #
coedge $-1 -1 $-1 $169 $168 $321 $322 reversed $76 $-1 #
coedge $-1 -1 $-1 $323 $324 $325 $250 forward $326 $-1 #
edge $-1 -1 $-1 $327 -0.28099999999999992 $254 2.2204460492503131e-016 $249 $328 forward @7 unknown #
coedge $-1 -1 $-1 $252 $170 $329 $330 reversed $253 $-1 #
coedge $-1 -1 $-1 $170 $251 $323 $331 forward $253 $-1 #
loop $-1 -1 $-1 $-1 $170 $332 #
vertex $-1 -1 $-1 $333 $334 #
vertex $-1 -1 $-1 $335 $336 #
ellipse-curve $-1 -1 $-1 -2.7755575615628914e-017 0.14050000000000007 0 0 -1 0 -0.34259323548488224 0 -0.34259323548488224 1 I I #
coedge $-1 -1 $-1 $337 $338 $172 $258 forward $339 $-1 #
edge $-1 -1 $-1 $255 -2.3561944901923448 $260 -0.78539816339744828 $257 $256 forward @7 unknown #
coedge $-1 -1 $-1 $340 $341 $342 $174 forward $309 $-1 #
vertex $-1 -1 $-1 $343 $344 #
straight-curve $-1 -1 $-1 -0.48449999999999993 0.14049999999999985 0 0 1 0 I I #
coedge $-1 -1 $-1 $345 $175 $338 $335 forward $265 $-1 #
coedge $-1 -1 $-1 $175 $345 $177 $267 forward $265 $-1 #
coedge $-1 -1 $-1 $346 $329 $169 $176 reversed $242 $-1 #
loop $-1 -1 $-1 $-1 $175 $347 #
straight-curve $-1 -1 $-1 -2.7755575615628914e-017 0.14049999999999985 0.48450000000000004 0 1 0 I I #
edge $-1 -1 $-1 $348 -0.48449999999999993 $181 -2.7755575615628914e-017 $177 $349 forward @7 unknown #
coedge $-1 -1 $-1 $350 $342 $178 $269 reversed $351 $-1 #
edge $-1 -1 $-1 $348 -0.48450000000000004 $180 0 $268 $352 forward @7 unknown #
face $-1 -1 $-1 $353 $179 $27 $-1 $354 reversed single #
edge $-1 -1 $-1 $180 0 $355 0.48450000000000004 $341 $352 forward @7 unknown #
point $-1 -1 $-1 -0.48449999999999993 -0.14050000000000007 0 #
edge $-1 -1 $-1 $181 -2.7755575615628914e-017 $356 0.48449999999999993 $357 $349 forward @7 unknown #
point $-1 -1 $-1 -2.7755575615628914e-017 -0.14050000000000007 0.48450000000000004 #
loop $-1 -1 $-1 $-1 $189 $117 #
coedge $-1 -1 $-1 $276 $276 $187 $277 forward $183 $-1 #
edge $358 -1 $-1 $359 -3.1415926535897931 $359 3.1415926535897931 $187 $360 forward @7 unknown #
vertex $-1 -1 $-1 $188 $361 #
ellipse-curve $-1 -1 $-1 -2.7755575615628914e-017 -0.14050000000000051 0 0 1 0 -0.34259323548488224 0 -0.34259323548488224 1 I I #
convexity-sys-attrib $-1 -1 $-1 $-1 $190 #
vertex $-1 -1 $-1 $190 $362 #
ellipse-curve $-1 -1 $-1 -2.7755575615628914e-017 0.078499999999999792 0 0 -1 0 -0.30935921676911449 0 -0.30935921676911449 1 I I #
point $-1 -1 $-1 -0.30935921676911449 -0.14050000000000029 -0.30935921676911449 #
model_id-kcp-attrib $-1 -1 $-1 $-1 $194 1 1021323326 1021323326 -1625882623 10 #
coedge $-1 -1 $-1 $285 $285 $199 $286 forward $194 $-1 #
edge $363 -1 $-1 $364 -9.8686491077791736e-017 $364 6.2831853071795862 $285 $365 forward @7 unknown #
vertex $-1 -1 $-1 $200 $366 #
ellipse-curve $-1 -1 $-1 0 3.4989999999999997 1.125 0 1 0 -0.30935921676911449 0 -0.30935921676911449 1 I I #
convexity-sys-attrib $-1 -1 $-1 $201 $132 #
point $-1 -1 $-1 -0.30935921676911449 3.718 0.81564078323088551 #
plane-surface $-1 -1 $-1 0.48449999999999993 0 0 -1 0 0 0 0 1 forward_v I I I I #
coedge $-1 -1 $-1 $216 $214 $218 $296 reversed $143 $-1 #
edge $-1 -1 $-1 $229 -0.48450000000000004 $298 0.48450000000000004 $228 $367 forward @7 unknown #
vertex $-1 -1 $-1 $296 $368 #
straight-curve $-1 -1 $-1 -0.48449999999999993 -0.14050000000000007 0 0 0 -1 I I #
edge $-1 -1 $-1 $294 -0.14050000000000007 $298 0.14050000000000007 $292 $369 forward @7 unknown #
straight-curve $-1 -1 $-1 0 -0.14050000000000007 -0.48450000000000004 -1 0 0 I I #
vertex $-1 -1 $-1 $221 $370 #
straight-curve $-1 -1 $-1 0 0.14050000000000007 -0.48450000000000004 1 0 0 I I #
point $-1 -1 $-1 0.48449999999999993 0.14050000000000007 -0.48450000000000004 #
point $-1 -1 $-1 0.48449999999999993 -0.14050000000000007 -0.48450000000000004 #
straight-curve $-1 -1 $-1 -0.48449999999999993 0 0.48450000000000004 0 -1 0 I I #
point $-1 -1 $-1 -0.48449999999999993 0.14050000000000007 0.48450000000000004 #
point $-1 -1 $-1 -0.48449999999999993 -0.14050000000000007 0.48450000000000004 #
straight-curve $-1 -1 $-1 0.48449999999999993 -0.14050000000000007 0 0 0 -1 I I #
straight-curve $-1 -1 $-1 0.48449999999999993 0.14050000000000007 0 0 0 -1 I I #
point $-1 -1 $-1 0.18749999999999997 0 0.14050000000000007 #
face $-1 -1 $-1 $371 $372 $27 $-1 $373 reversed single #
loop $-1 -1 $-1 $-1 $259 $241 #
plane-surface $-1 -1 $-1 -0.48449999999999993 0 0 1 0 0 0 0 -1 forward_v I I I I #
coedge $-1 -1 $-1 $374 $244 $375 $376 reversed $166 $-1 #
coedge $-1 -1 $-1 $244 $374 $377 $378 reversed $166 $-1 #
coedge $-1 -1 $-1 $379 $380 $381 $247 forward $382 $-1 #
coedge $-1 -1 $-1 $383 $384 $245 $315 forward $385 $-1 #
edge $-1 -1 $-1 $260 -0.78539816339744828 $319 0.78539816339744828 $314 $256 forward @7 unknown #
coedge $-1 -1 $-1 $386 $387 $246 $317 forward $388 $-1 #
edge $-1 -1 $-1 $318 -0.78539816339744828 $180 0.78539816339744828 $316 $182 forward @7 unknown #
vertex $-1 -1 $-1 $389 $390 #
vertex $-1 -1 $-1 $391 $392 #
straight-curve $-1 -1 $-1 -2.7755575615628914e-017 0.14049999999999985 -0.48450000000000004 0 1 0 I I #
coedge $-1 -1 $-1 $393 $357 $248 $322 forward $394 $-1 #
edge $-1 -1 $-1 $181 2.3561944901923448 $327 3.9269908169872414 $321 $182 forward @7 unknown #
coedge $-1 -1 $-1 $395 $249 $252 $331 reversed $326 $-1 #
coedge $-1 -1 $-1 $249 $395 $393 $396 forward $326 $-1 #
coedge $-1 -1 $-1 $397 $398 $374 $250 reversed $372 $-1 #
loop $-1 -1 $-1 $-1 $249 $399 #
vertex $-1 -1 $-1 $400 $401 #
straight-curve $-1 -1 $-1 0.48449999999999993 0.14049999999999985 0 0 1 0 I I #
coedge $-1 -1 $-1 $264 $402 $251 $330 forward $242 $-1 #
edge $-1 -1 $-1 $403 -0.48449999999999993 $255 2.7755575615628914e-017 $251 $404 forward @7 unknown #
edge $-1 -1 $-1 $403 -0.48450000000000004 $254 0 $323 $405 forward @7 unknown #
face $-1 -1 $-1 $406 $253 $27 $-1 $407 reversed single #
edge $-1 -1 $-1 $254 0 $408 0.48450000000000004 $398 $405 forward @7 unknown #
point $-1 -1 $-1 0.48449999999999993 0.14050000000000007 0 #
edge $-1 -1 $-1 $255 2.7755575615628914e-017 $409 0.48449999999999993 $338 $404 forward @7 unknown #
point $-1 -1 $-1 -2.7755575615628914e-017 0.14050000000000007 0.48450000000000004 #
coedge $-1 -1 $-1 $338 $257 $410 $411 reversed $339 $-1 #
coedge $-1 -1 $-1 $257 $337 $262 $335 reversed $339 $-1 #
loop $-1 -1 $-1 $-1 $257 $406 #
coedge $-1 -1 $-1 $412 $259 $384 $343 forward $309 $-1 #
coedge $-1 -1 $-1 $259 $412 $386 $271 reversed $309 $-1 #
coedge $-1 -1 $-1 $268 $410 $113 $174 reversed $351 $-1 #
edge $-1 -1 $-1 $260 0 $413 0.48450000000000004 $384 $414 forward @7 unknown #
point $-1 -1 $-1 -0.48449999999999993 0.14050000000000007 0 #
coedge $-1 -1 $-1 $263 $262 $350 $415 forward $265 $-1 #
coedge $-1 -1 $-1 $402 $264 $357 $273 forward $242 $-1 #
face $-1 -1 $-1 $416 $265 $27 $-1 $243 forward single #
vertex $-1 -1 $-1 $415 $417 #
straight-curve $-1 -1 $-1 0 -0.14050000000000007 0.48450000000000004 1 0 0 I I #
coedge $-1 -1 $-1 $410 $268 $345 $415 reversed $351 $-1 #
loop $-1 -1 $-1 $-1 $342 $418 #
straight-curve $-1 -1 $-1 -0.48449999999999993 -0.14050000000000007 0 0 0 -1 I I #
face $-1 -1 $-1 $419 $394 $27 $-1 $354 reversed single #
plane-surface $-1 -1 $-1 0 -0.14050000000000007 0 0 1 0 0 0 1 forward_v I I I I #
vertex $-1 -1 $-1 $420 $421 #
vertex $-1 -1 $-1 $422 $423 #
coedge $-1 -1 $-1 $321 $393 $346 $273 reversed $394 $-1 #
convexity-sys-attrib $-1 -1 $-1 $-1 $277 #
vertex $-1 -1 $-1 $277 $424 #
ellipse-curve $-1 -1 $-1 -2.7755575615628914e-017 0.078499999999999792 0 0 1 0 -0.34259323548488224 0 -0.34259323548488224 1 I I #
point $-1 -1 $-1 0.34259323548488224 -0.14050000000000051 0.34259323548488219 #
point $-1 -1 $-1 -0.30935921676911449 0.078500000000000014 -0.30935921676911449 #
attrib_edge_convexity-kcp-attrib $-1 -1 $425 $-1 $286 1 #
vertex $426 -1 $-1 $286 $427 #
ellipse-curve $-1 -1 $-1 0 3.4989999999999997 1.125 0 -1 0 -0.13258252147247765 0 -0.13258252147247765 1 I I #
point $-1 -1 $-1 -0.30935921676911449 3.4989999999999997 0.81564078323088551 #
straight-curve $-1 -1 $-1 -0.48449999999999993 0.14050000000000007 0 0 0 -1 I I #
point $-1 -1 $-1 -0.48449999999999993 -0.14050000000000007 -0.48450000000000004 #
straight-curve $-1 -1 $-1 -0.48449999999999993 0 -0.48450000000000004 0 1 0 I I #
point $-1 -1 $-1 -0.48449999999999993 0.14050000000000007 -0.48450000000000004 #
face $-1 -1 $-1 $332 $428 $27 $-1 $407 reversed single #
loop $-1 -1 $-1 $-1 $325 $308 #
plane-surface $-1 -1 $-1 0.48449999999999993 0 0 -1 0 0 0 0 1 forward_v I I I I #
coedge $-1 -1 $-1 $312 $311 $168 $250 forward $166 $-1 #
coedge $-1 -1 $-1 $429 $430 $311 $376 forward $431 $-1 #
edge $-1 -1 $-1 $327 -2.3561944901923448 $318 -0.78539816339744828 $375 $182 forward @7 unknown #
coedge $-1 -1 $-1 $432 $433 $312 $378 forward $428 $-1 #
edge $-1 -1 $-1 $319 0.78539816339744828 $254 2.3561944901923448 $377 $256 forward @7 unknown #
coedge $-1 -1 $-1 $434 $313 $433 $391 forward $382 $-1 #
coedge $-1 -1 $-1 $313 $434 $429 $435 forward $382 $-1 #
coedge $-1 -1 $-1 $436 $437 $167 $247 reversed $438 $-1 #
loop $-1 -1 $-1 $-1 $313 $416 #
coedge $-1 -1 $-1 $384 $314 $437 $439 reversed $385 $-1 #
coedge $-1 -1 $-1 $314 $383 $340 $343 reversed $385 $-1 #
loop $-1 -1 $-1 $-1 $314 $440 #
coedge $-1 -1 $-1 $387 $316 $341 $271 forward $388 $-1 #
coedge $-1 -1 $-1 $316 $386 $436 $389 reversed $388 $-1 #
loop $-1 -1 $-1 $-1 $316 $441 #
edge $-1 -1 $-1 $318 2.7755575615628914e-017 $355 0.48449999999999993 $387 $442 forward @7 unknown #
point $-1 -1 $-1 -2.7755575615628914e-017 -0.14050000000000007 -0.48450000000000004 #
edge $-1 -1 $-1 $319 -2.7755575615628914e-017 $408 0.48449999999999993 $433 $443 forward @7 unknown #
point $-1 -1 $-1 -2.7755575615628914e-017 0.14050000000000007 -0.48450000000000004 #
coedge $-1 -1 $-1 $357 $321 $324 $396 reversed $394 $-1 #
loop $-1 -1 $-1 $-1 $321 $353 #
coedge $-1 -1 $-1 $324 $323 $402 $422 reversed $326 $-1 #
edge $-1 -1 $-1 $356 -0.48450000000000004 $327 0 $324 $444 forward @7 unknown #
coedge $-1 -1 $-1 $445 $325 $430 $400 forward $372 $-1 #
coedge $-1 -1 $-1 $325 $445 $432 $333 reversed $372 $-1 #
face $-1 -1 $-1 $-1 $326 $27 $-1 $373 reversed single #
edge $-1 -1 $-1 $327 0 $446 0.48450000000000004 $397 $444 forward @7 unknown #
point $-1 -1 $-1 0.48449999999999993 -0.14050000000000007 0 #
coedge $-1 -1 $-1 $329 $346 $395 $422 forward $242 $-1 #
vertex $-1 -1 $-1 $422 $447 #
straight-curve $-1 -1 $-1 0 0.14050000000000007 0.48450000000000004 -1 0 0 I I #
straight-curve $-1 -1 $-1 0.48449999999999993 0.14050000000000007 0 0 0 -1 I I #
face $-1 -1 $-1 $440 $339 $27 $-1 $407 reversed single #
plane-surface $-1 -1 $-1 0 0.14050000000000007 0 0 -1 0 0 0 -1 forward_v I I I I #
vertex $-1 -1 $-1 $448 $449 #
vertex $-1 -1 $-1 $335 $450 #
coedge $-1 -1 $-1 $342 $350 $337 $411 forward $351 $-1 #
edge $-1 -1 $-1 $409 -0.48450000000000004 $260 0 $337 $414 forward @7 unknown #
coedge $-1 -1 $-1 $341 $340 $451 $420 reversed $309 $-1 #
vertex $-1 -1 $-1 $439 $452 #
straight-curve $-1 -1 $-1 -0.48449999999999993 0.14050000000000007 0 0 0 -1 I I #
edge $-1 -1 $-1 $409 -0.14050000000000007 $348 0.14050000000000007 $350 $453 forward @7 unknown #
face $-1 -1 $-1 $418 $382 $27 $-1 $454 reversed single #
point $-1 -1 $-1 -0.48449999999999993 -0.14050000000000007 0.48450000000000004 #
face $-1 -1 $-1 $399 $351 $27 $-1 $310 reversed single #
face $-1 -1 $-1 $455 $431 $27 $-1 $354 reversed single #
edge $-1 -1 $-1 $355 -0.14050000000000007 $413 0.14050000000000007 $412 $456 forward @7 unknown #
point $-1 -1 $-1 -0.48449999999999993 -0.14050000000000007 -0.48450000000000004 #
edge $-1 -1 $-1 $356 -0.14050000000000007 $403 0.14050000000000007 $395 $457 forward @7 unknown #
point $-1 -1 $-1 0.48449999999999993 -0.14050000000000007 0.48450000000000004 #
point $-1 -1 $-1 0.34259323548488224 0.078499999999999792 0.34259323548488219 #
convexity-sys-attrib $-1 -1 $-1 $363 $286 #
model_id-kcp-attrib $-1 -1 $-1 $-1 $364 1 1021323326 1021323326 -1625882623 14 #
point $-1 -1 $-1 -0.13258252147247765 3.4989999999999997 0.99241747852752238 #
loop $-1 -1 $-1 $-1 $377 $371 #
coedge $-1 -1 $-1 $430 $375 $380 $435 reversed $431 $-1 #
coedge $-1 -1 $-1 $375 $429 $397 $400 reversed $431 $-1 #
loop $-1 -1 $-1 $-1 $375 $419 #
coedge $-1 -1 $-1 $433 $377 $398 $333 forward $428 $-1 #
coedge $-1 -1 $-1 $377 $432 $379 $391 reversed $428 $-1 #
coedge $-1 -1 $-1 $380 $379 $445 $448 forward $382 $-1 #
edge $-1 -1 $-1 $446 -0.48449999999999993 $318 2.7755575615628914e-017 $429 $442 forward @7 unknown #
coedge $-1 -1 $-1 $451 $381 $387 $389 forward $438 $-1 #
coedge $-1 -1 $-1 $381 $451 $383 $439 forward $438 $-1 #
loop $-1 -1 $-1 $-1 $381 $455 #
edge $-1 -1 $-1 $413 -0.48449999999999993 $319 -2.7755575615628914e-017 $383 $443 forward @7 unknown #
face $-1 -1 $-1 $441 $385 $27 $-1 $407 reversed single #
face $-1 -1 $-1 $270 $388 $27 $-1 $354 reversed single #
straight-curve $-1 -1 $-1 0 -0.14050000000000007 -0.48450000000000004 -1 0 0 I I #
straight-curve $-1 -1 $-1 0 0.14050000000000007 -0.48450000000000004 1 0 0 I I #
straight-curve $-1 -1 $-1 0.48449999999999993 -0.14050000000000007 0 0 0 -1 I I #
coedge $-1 -1 $-1 $398 $397 $434 $448 reversed $372 $-1 #
vertex $-1 -1 $-1 $400 $458 #
point $-1 -1 $-1 0.48449999999999993 0.14050000000000007 0.48450000000000004 #
edge $-1 -1 $-1 $408 -0.14050000000000007 $446 0.14050000000000007 $445 $459 forward @7 unknown #
point $-1 -1 $-1 0.48449999999999993 0.14050000000000007 -0.48450000000000004 #
point $-1 -1 $-1 -0.48449999999999993 0.14050000000000007 0.48450000000000004 #
coedge $-1 -1 $-1 $437 $436 $412 $420 forward $438 $-1 #
point $-1 -1 $-1 -0.48449999999999993 0.14050000000000007 -0.48450000000000004 #
straight-curve $-1 -1 $-1 -0.48449999999999993 0 0.48450000000000004 0 -1 0 I I #
plane-surface $-1 -1 $-1 0 0 -0.48450000000000004 0 0 1 1 0 0 forward_v I I I I #
face $-1 -1 $-1 $347 $438 $27 $-1 $454 reversed single #
straight-curve $-1 -1 $-1 -0.48449999999999993 0 -0.48450000000000004 0 1 0 I I #
straight-curve $-1 -1 $-1 0.48449999999999993 0 0.48450000000000004 0 1 0 I I #
point $-1 -1 $-1 0.48449999999999993 -0.14050000000000007 -0.48450000000000004 #
straight-curve $-1 -1 $-1 0.48449999999999993 0 -0.48450000000000004 0 -1 0 I I #
End-of-ACIS-data 