700 0 2 0           
24 FBMach with ACIS - 7.0.3 13 ACIS 7.0.3 NT 24 Mon May 13 16:55:10 2002 
1 9.9999999999999995e-007 1e-010 
body $2 -1 $-1 $3 $-1 $4 #
bdycol-kcp $-1 -1 1 4 $5 $6 $7 $8 #
model_id-kcp-attrib $-1 -1 $-1 $-1 $0 1 1021323310 1021323310 -1676410879 1 #
lump $-1 -1 $-1 $-1 $9 $0 #
transform $-1 -1 1 0 0 0 1 0 0 0 1 0 0 0 1 rotate no_reflect no_shear #
body $10 -1 $-1 $11 $-1 $12 #
body $13 -1 $-1 $14 $-1 $15 #
body $16 -1 $-1 $17 $-1 $18 #
body $19 -1 $-1 $20 $-1 $21 #
shell $-1 -1 $-1 $-1 $-1 $22 $-1 $3 #
model_id-kcp-attrib $-1 -1 $-1 $-1 $5 1 1021323310 1021323310 -1676410878 1 #
lump $-1 -1 $-1 $-1 $23 $5 #
transform $-1 -1 1 0 0 0 1 0 0 0 1 0 -4.2014999999999993 7.1353999999999997 1 no_rotate no_reflect no_shear #
rgb_color-st-attrib $-1 -1 $24 $-1 $6 0.5 1 1 #
lump $-1 -1 $-1 $-1 $25 $6 #
transform $-1 -1 1 0 0 0 -3.8285889215894375e-016 1 0 -1 -3.8285889215894375e-016 0 -4.2015000000000002 7.1353999999999997 1 rotate no_reflect no_shear #
rgb_color-st-attrib $-1 -1 $26 $-1 $7 0.5 1 1 #
lump $-1 -1 $-1 $-1 $27 $7 #
transform $-1 -1 1 0 0 0 1 0 0 0 1 0 -4.2014999999999993 7.1353999999999997 1 no_rotate no_reflect no_shear #
rgb_color-st-attrib $-1 -1 $28 $-1 $8 1 0.5 1 #
lump $-1 -1 $-1 $-1 $29 $8 #
transform $-1 -1 1 0 0 0 1 0 0 0 1 0 -4.2014999999999993 7.1353999999999997 1 no_rotate no_reflect no_shear #
face $30 -1 $-1 $31 $32 $9 $-1 $33 reversed single #
shell $-1 -1 $-1 $-1 $-1 $34 $-1 $11 #
model_id-kcp-attrib $-1 -1 $-1 $13 $6 1 1021323310 1021323310 -1675100157 1 #
shell $-1 -1 $-1 $-1 $-1 $35 $-1 $14 #
model_id-kcp-attrib $-1 -1 $-1 $16 $7 1 1021323310 1021323310 -1669201916 1 #
shell $-1 -1 $-1 $-1 $-1 $36 $-1 $17 #
model_id-kcp-attrib $-1 -1 $-1 $19 $8 1 1021323310 1021323310 -1662648315 1 #
shell $-1 -1 $-1 $-1 $-1 $37 $-1 $20 #
model_id-kcp-attrib $-1 -1 $-1 $-1 $22 1 1021323310 1021323310 -1676410879 2 #
face $38 -1 $-1 $39 $40 $9 $-1 $41 forward single #
loop $-1 -1 $-1 $42 $43 $22 #
plane-surface $-1 -1 $-1 0 -4.3419999999999996 7.1353999999999997 0 1 0 0.70710678118654746 0 -0.70710678118654746 forward_v I I I I #
face $-1 -1 $-1 $44 $45 $23 $-1 $46 forward single #
face $-1 -1 $-1 $47 $48 $25 $-1 $49 forward single #
face $-1 -1 $-1 $50 $51 $27 $-1 $52 reversed single #
face $-1 -1 $-1 $53 $54 $29 $-1 $55 forward single #
model_id-kcp-attrib $-1 -1 $-1 $-1 $31 1 1021323310 1021323310 -1676410879 3 #
face $56 -1 $-1 $57 $58 $9 $-1 $59 forward single #
loop $-1 -1 $-1 $60 $61 $31 #
plane-surface $-1 -1 $-1 0 -4.2799999999999994 7.1353999999999997 0 1 0 0.70710678118654746 0 -0.70710678118654746 forward_v I I I I #
loop $62 -1 $-1 $-1 $63 $22 #
coedge $-1 -1 $-1 $43 $43 $64 $65 forward $32 $-1 #
face $-1 -1 $-1 $66 $67 $23 $-1 $68 reversed single #
loop $-1 -1 $-1 $-1 $69 $34 #
plane-surface $-1 -1 $-1 0 0 0.4845000000000006 0 0 1 1 0 0 forward_v I I I I #
face $-1 -1 $-1 $70 $71 $25 $-1 $72 forward single #
loop $-1 -1 $-1 $73 $74 $35 #
cone-surface $-1 -1 $-1 0 0 0 0 0 1 0.18749999999999997 0 0 1 I I 0 1 0.18749999999999997 forward I I I I #
face $-1 -1 $-1 $75 $76 $27 $-1 $52 reversed single #
loop $-1 -1 $-1 $-1 $77 $36 #
cone-surface $-1 -1 $-1 -6.1629758220391547e-033 -0.14050000000000029 0 0 -1 0 0.34259323548488219 0 0.3425932354848823 1 I I 0 1 0.48449999999999993 forward I I I I #
face $-1 -1 $-1 $78 $79 $29 $-1 $80 forward single #
loop $-1 -1 $-1 $81 $82 $37 #
cone-surface $-1 -1 $-1 0 -0.078500000000000014 0 0 1 0 -0.30935921676911449 0 -0.30935921676911449 1 I I 0 -1 0.43749999999999994 forward I I I I #
model_id-kcp-attrib $-1 -1 $-1 $-1 $39 1 1021323310 1021323310 -1676410879 4 #
face $83 -1 $-1 $84 $85 $9 $-1 $86 forward single #
loop $-1 -1 $-1 $87 $88 $39 #
cone-surface $-1 -1 $-1 0 -4.3419999999999996 7.1353999999999997 0 1 0 -0.34259323548488224 0 -0.34259323548488224 1 I I 0 1 0.48449999999999999 forward I I I I #
loop $-1 -1 $-1 $-1 $89 $31 #
coedge $-1 -1 $-1 $61 $61 $88 $90 reversed $40 $-1 #
model_id-kcp-attrib $-1 -1 $-1 $-1 $42 1 1021323310 1021323310 -1676410879 13 #
coedge $-1 -1 $-1 $63 $63 $91 $92 forward $42 $-1 #
coedge $-1 -1 $-1 $64 $64 $43 $65 reversed $87 $-1 #
edge $93 -1 $-1 $94 -3.1415926535897931 $94 3.1415926535897931 $64 $95 forward @7 unknown #
face $96 -1 $-1 $97 $98 $23 $-1 $99 reversed single #
loop $-1 -1 $-1 $-1 $100 $44 #
plane-surface $-1 -1 $-1 0 0 -0.4845000000000006 0 0 1 1 0 0 forward_v I I I I #
coedge $-1 -1 $-1 $101 $102 $103 $104 forward $45 $-1 #
face $-1 -1 $-1 $-1 $105 $25 $-1 $106 forward single #
loop $-1 -1 $-1 $-1 $107 $47 #
plane-surface $-1 -1 $-1 0 0 -0.14049999999999985 0 0 -1 -1 0 0 forward_v I I I I #
loop $-1 -1 $-1 $-1 $108 $35 #
coedge $-1 -1 $-1 $74 $74 $107 $109 reversed $48 $-1 #
face $-1 -1 $-1 $110 $111 $27 $-1 $52 reversed single #
loop $-1 -1 $-1 $-1 $112 $50 #
coedge $-1 -1 $-1 $113 $114 $115 $116 reversed $51 $-1 #
face $-1 -1 $-1 $117 $118 $29 $-1 $119 forward single #
loop $-1 -1 $-1 $120 $121 $53 #
cone-surface $-1 -1 $-1 -6.1629758220391547e-033 -0.078500000000000014 0 0 1 0 0.34259323548488219 0 0.3425932354848823 1 I I 0 1 0.48449999999999993 forward I I I I #
loop $-1 -1 $-1 $-1 $122 $37 #
coedge $-1 -1 $-1 $82 $82 $123 $124 forward $54 $-1 #
model_id-kcp-attrib $-1 -1 $-1 $-1 $57 1 1021323310 1021323310 -1676410879 5 #
face $125 -1 $-1 $126 $127 $9 $-1 $128 forward single #
loop $-1 -1 $-1 $129 $130 $57 #
plane-surface $-1 -1 $-1 0 -4.0609999999999999 7.1353999999999997 0 1 0 0.70710678118654746 0 -0.70710678118654746 forward_v I I I I #
loop $-1 -1 $-1 $-1 $64 $39 #
coedge $-1 -1 $-1 $88 $88 $61 $90 forward $58 $-1 #
coedge $-1 -1 $-1 $89 $89 $131 $132 forward $60 $-1 #
edge $133 -1 $-1 $134 -5.9119762408936947e-017 $134 6.2831853071795862 $88 $135 forward @7 unknown #
coedge $-1 -1 $-1 $91 $91 $63 $92 reversed $136 $-1 #
edge $137 -1 $-1 $138 -3.141592653589794 $138 3.1415926535897922 $91 $139 forward @7 unknown #
attrib_edge_convexity-kcp-attrib $-1 -1 $140 $-1 $65 1 #
vertex $-1 -1 $-1 $65 $141 #
ellipse-curve $-1 -1 $-1 0 -4.3419999999999996 7.1353999999999997 0 -1 0 0.34259323548488224 0 0.34259323548488224 1 I I #
model_id-kcp-attrib $-1 -1 $-1 $-1 $66 1 1021323310 1021323310 -1676410878 2 #
face $-1 -1 $-1 $142 $143 $23 $-1 $144 reversed single #
loop $-1 -1 $-1 $-1 $145 $66 #
plane-surface $-1 -1 $-1 0 -0.14049999999999985 0 0 1 0 0 0 1 forward_v I I I I #
coedge $-1 -1 $-1 $146 $147 $148 $149 forward $67 $-1 #
coedge $-1 -1 $-1 $150 $69 $151 $152 forward $45 $-1 #
coedge $-1 -1 $-1 $69 $150 $153 $154 forward $45 $-1 #
coedge $-1 -1 $-1 $155 $156 $69 $104 reversed $157 $-1 #
edge $-1 -1 $-1 $158 -0.14049999999999985 $159 0.14049999999999985 $103 $160 forward @7 unknown #
loop $-1 -1 $-1 $-1 $161 $70 #
plane-surface $-1 -1 $-1 0 0 0.14049999999999985 0 0 1 1 0 0 forward_v I I I I #
coedge $-1 -1 $-1 $107 $107 $74 $109 forward $71 $-1 #
coedge $-1 -1 $-1 $108 $108 $161 $162 reversed $73 $-1 #
edge $-1 -1 $-1 $163 0 $163 6.2831853071795862 $107 $164 forward @7 unknown #
face $-1 -1 $-1 $165 $166 $27 $-1 $52 reversed single #
loop $-1 -1 $-1 $-1 $167 $75 #
coedge $-1 -1 $-1 $168 $169 $170 $171 reversed $76 $-1 #
coedge $-1 -1 $-1 $172 $77 $173 $174 forward $51 $-1 #
coedge $-1 -1 $-1 $77 $172 $175 $176 reversed $51 $-1 #
coedge $-1 -1 $-1 $177 $178 $77 $116 forward $179 $-1 #
edge $-1 -1 $-1 $180 -0.78539816339744839 $181 0.78539816339744817 $115 $182 forward @7 unknown #
face $-1 -1 $-1 $-1 $183 $29 $-1 $184 reversed single #
loop $-1 -1 $-1 $185 $186 $78 #
plane-surface $-1 -1 $-1 -0.029711208827540213 0.1404999999999994 -0.029711208827540223 0 1 0 0 0 1 forward_v I I I I #
loop $-1 -1 $-1 $-1 $187 $53 #
coedge $-1 -1 $-1 $121 $121 $186 $188 forward $79 $-1 #
coedge $-1 -1 $-1 $122 $122 $189 $190 reversed $81 $-1 #
coedge $-1 -1 $-1 $123 $123 $82 $124 reversed $185 $-1 #
edge $-1 -1 $-1 $191 2.1751308237554099e-016 $191 6.2831853071795862 $82 $192 forward @7 unknown #
model_id-kcp-attrib $-1 -1 $-1 $-1 $84 1 1021323310 1021323310 -1676410879 6 #
face $193 -1 $-1 $-1 $194 $9 $-1 $195 reversed single #
loop $-1 -1 $-1 $196 $197 $84 #
cone-surface $-1 -1 $-1 0 -4.2799999999999994 7.1353999999999997 0 1 0 -0.30935921676911449 0 -0.30935921676911449 1 I I 0 1 0.4375 forward I I I I #
loop $198 -1 $-1 $-1 $199 $57 #
coedge $-1 -1 $-1 $130 $130 $197 $200 reversed $85 $-1 #
coedge $-1 -1 $-1 $131 $131 $89 $132 reversed $196 $-1 #
edge $201 -1 $-1 $202 -3.1415926535897931 $202 3.1415926535897931 $131 $203 forward @7 unknown #
attrib_edge_convexity-kcp-attrib $-1 -1 $204 $-1 $90 1 #
vertex $-1 -1 $-1 $90 $205 #
ellipse-curve $-1 -1 $-1 0 -4.2799999999999994 7.1353999999999997 0 -1 0 -0.34259323548488224 0 -0.34259323548488224 1 I I #
loop $206 -1 $-1 $-1 $91 $126 #
attrib_edge_convexity-kcp-attrib $-1 -1 $207 $-1 $92 1 #
vertex $208 -1 $-1 $92 $209 #
ellipse-curve $-1 -1 $-1 0 -4.3419999999999996 7.1353999999999997 0 1 0 0.13258252147247765 0 0.13258252147247765 1 I I #
convexity-sys-attrib $-1 -1 $-1 $93 $65 #
point $-1 -1 $-1 -0.34259323548488224 -4.3419999999999996 6.7928067645151176 #
face $210 -1 $-1 $211 $212 $23 $-1 $213 reversed single #
loop $-1 -1 $-1 $-1 $214 $97 #
plane-surface $-1 -1 $-1 -0.48449999999999993 0 0 1 0 0 0 0 -1 forward_v I I I I #
coedge $-1 -1 $-1 $215 $153 $216 $217 forward $98 $-1 #
coedge $-1 -1 $-1 $218 $100 $215 $219 forward $67 $-1 #
coedge $-1 -1 $-1 $100 $218 $220 $221 forward $67 $-1 #
coedge $-1 -1 $-1 $156 $155 $100 $149 reversed $157 $-1 #
edge $-1 -1 $-1 $222 -0.14049999999999985 $223 0.14049999999999985 $148 $224 forward @7 unknown #
coedge $-1 -1 $-1 $102 $101 $225 $226 forward $45 $-1 #
coedge $-1 -1 $-1 $227 $228 $101 $152 reversed $212 $-1 #
edge $-1 -1 $-1 $159 -0.48449999999999993 $229 0.48449999999999993 $151 $230 forward @7 unknown #
coedge $-1 -1 $-1 $145 $231 $102 $154 reversed $98 $-1 #
edge $-1 -1 $-1 $232 -0.48449999999999993 $158 0.48449999999999993 $153 $233 forward @7 unknown #
coedge $-1 -1 $-1 $148 $103 $231 $234 forward $157 $-1 #
coedge $-1 -1 $-1 $103 $148 $227 $235 reversed $157 $-1 #
loop $-1 -1 $-1 $-1 $155 $211 #
vertex $-1 -1 $-1 $104 $236 #
vertex $-1 -1 $-1 $104 $237 #
straight-curve $-1 -1 $-1 0.48449999999999993 0 0.4845000000000006 0 1 0 I I #
coedge $-1 -1 $-1 $161 $161 $108 $162 forward $105 $-1 #
edge $-1 -1 $-1 $238 0 $238 6.2831853071795862 $161 $239 forward @7 unknown #
vertex $-1 -1 $-1 $109 $240 #
ellipse-curve $-1 -1 $-1 0 0 -0.14049999999999985 0 0 -1 0.18749999999999997 0 0 1 I I #
face $-1 -1 $-1 $241 $242 $27 $-1 $243 forward single #
loop $-1 -1 $-1 $-1 $244 $110 #
coedge $-1 -1 $-1 $245 $246 $244 $247 forward $111 $-1 #
coedge $-1 -1 $-1 $248 $112 $249 $250 reversed $76 $-1 #
coedge $-1 -1 $-1 $112 $248 $114 $176 forward $76 $-1 #
coedge $-1 -1 $-1 $251 $252 $112 $171 forward $253 $-1 #
edge $-1 -1 $-1 $254 -2.3561944901923448 $255 -0.78539816339744817 $170 $256 forward @7 unknown #
coedge $-1 -1 $-1 $114 $113 $257 $258 reversed $51 $-1 #
coedge $-1 -1 $-1 $246 $245 $259 $174 reversed $111 $-1 #
edge $-1 -1 $-1 $180 -0.28100000000000014 $260 -4.4408920985006262e-016 $259 $261 forward @7 unknown #
coedge $-1 -1 $-1 $262 $263 $264 $176 forward $265 $-1 #
edge $-1 -1 $-1 $181 -0.28100000000000014 $255 -4.4408920985006262e-016 $175 $266 forward @7 unknown #
coedge $-1 -1 $-1 $178 $115 $263 $267 reversed $179 $-1 #
coedge $-1 -1 $-1 $115 $177 $268 $269 forward $179 $-1 #
loop $-1 -1 $-1 $-1 $115 $270 #
vertex $-1 -1 $-1 $271 $272 #
vertex $-1 -1 $-1 $273 $274 #
ellipse-curve $-1 -1 $-1 -6.1629758220391547e-033 0.14049999999999985 0 0 -1 0 0.34259323548488219 0 0.3425932354848823 1 I I #
loop $-1 -1 $-1 $275 $276 $117 #
plane-surface $-1 -1 $-1 -0.029711208827540213 -0.078500000000000014 -0.029711208827540223 0 1 0 0 0 1 forward_v I I I I #
loop $-1 -1 $-1 $-1 $123 $78 #
coedge $-1 -1 $-1 $186 $186 $121 $188 reversed $118 $-1 #
coedge $-1 -1 $-1 $187 $187 $276 $277 reversed $120 $-1 #
edge $-1 -1 $-1 $278 -3.1415926535897931 $278 3.1415926535897931 $121 $279 forward @7 unknown #
coedge $-1 -1 $-1 $189 $189 $122 $190 forward $275 $-1 #
edge $280 -1 $-1 $281 2.1751308237554099e-016 $281 6.2831853071795862 $122 $282 forward @7 unknown #
vertex $-1 -1 $-1 $124 $283 #
ellipse-curve $-1 -1 $-1 0 0.1404999999999994 0 0 1 0 -0.30935921676911449 0 -0.30935921676911449 1 I I #
model_id-kcp-attrib $-1 -1 $-1 $-1 $126 1 1021323310 1021323310 -1676410879 7 #
loop $284 -1 $-1 $136 $285 $126 #
cone-surface $-1 -1 $-1 0 -4.0609999999999999 7.1353999999999997 0 -1 0 -0.13258252147247765 0 -0.13258252147247765 1 I I 0 1 0.1875 forward I I I I #
loop $-1 -1 $-1 $-1 $131 $84 #
coedge $-1 -1 $-1 $197 $197 $130 $200 forward $127 $-1 #
model_id-kcp-attrib $-1 -1 $-1 $-1 $129 1 1021323310 1021323310 -1676410879 12 #
coedge $-1 -1 $-1 $199 $199 $285 $286 reversed $129 $-1 #
edge $-1 -1 $-1 $287 -2.1751308237554099e-016 $287 6.2831853071795862 $197 $288 forward @7 unknown #
attrib_edge_convexity-kcp-attrib $-1 -1 $289 $-1 $132 2 #
vertex $-1 -1 $-1 $132 $290 #
ellipse-curve $-1 -1 $-1 0 -4.2799999999999994 7.1353999999999997 0 -1 0 0.30935921676911449 0 0.30935921676911449 1 I I #
convexity-sys-attrib $-1 -1 $-1 $133 $90 #
point $-1 -1 $-1 -0.34259323548488224 -4.2799999999999994 6.7928067645151176 #
model_id-kcp-attrib $-1 -1 $-1 $-1 $136 1 1021323310 1021323310 -1676410879 11 #
convexity-sys-attrib $-1 -1 $-1 $137 $92 #
model_id-kcp-attrib $-1 -1 $-1 $-1 $138 1 1021323310 1021323310 -1676410879 15 #
point $-1 -1 $-1 -0.13258252147247765 -4.3419999999999996 7.0028174785275219 #
model_id-kcp-attrib $-1 -1 $-1 $-1 $142 1 1021323310 1021323310 -1676410878 3 #
face $-1 -1 $-1 $-1 $157 $23 $-1 $291 reversed single #
loop $-1 -1 $-1 $-1 $227 $142 #
plane-surface $-1 -1 $-1 0 0.14049999999999985 0 0 -1 0 0 0 -1 forward_v I I I I #
coedge $-1 -1 $-1 $292 $225 $228 $293 forward $143 $-1 #
coedge $-1 -1 $-1 $231 $145 $146 $219 reversed $98 $-1 #
coedge $-1 -1 $-1 $225 $292 $145 $217 reversed $143 $-1 #
edge $-1 -1 $-1 $232 -0.4845000000000006 $294 0.4845000000000006 $216 $295 forward @7 unknown #
coedge $-1 -1 $-1 $147 $146 $292 $296 forward $67 $-1 #
edge $-1 -1 $-1 $223 -0.48449999999999993 $294 0.48449999999999993 $215 $297 forward @7 unknown #
coedge $-1 -1 $-1 $228 $227 $147 $221 reversed $212 $-1 #
edge $-1 -1 $-1 $298 -0.48449999999999993 $222 0.48449999999999993 $220 $299 forward @7 unknown #
vertex $-1 -1 $-1 $149 $300 #
vertex $-1 -1 $-1 $234 $301 #
straight-curve $-1 -1 $-1 0.48449999999999993 0 -0.4845000000000006 0 -1 0 I I #
coedge $-1 -1 $-1 $214 $216 $150 $226 reversed $143 $-1 #
edge $-1 -1 $-1 $229 -0.14049999999999985 $232 0.14049999999999985 $225 $302 forward @7 unknown #
coedge $-1 -1 $-1 $220 $151 $156 $235 forward $212 $-1 #
coedge $-1 -1 $-1 $151 $220 $214 $293 reversed $212 $-1 #
vertex $-1 -1 $-1 $152 $303 #
straight-curve $-1 -1 $-1 0 0.14049999999999985 0.4845000000000006 -1 0 0 I I #
coedge $-1 -1 $-1 $153 $215 $155 $234 reversed $98 $-1 #
vertex $-1 -1 $-1 $226 $304 #
straight-curve $-1 -1 $-1 0 -0.14049999999999985 0.4845000000000006 1 0 0 I I #
edge $-1 -1 $-1 $158 -0.4845000000000006 $223 0.4845000000000006 $155 $305 forward @7 unknown #
edge $-1 -1 $-1 $159 -0.4845000000000006 $222 0.4845000000000006 $156 $306 forward @7 unknown #
point $-1 -1 $-1 0.48449999999999993 -0.14049999999999985 0.4845000000000006 #
point $-1 -1 $-1 0.48449999999999993 0.14049999999999985 0.4845000000000006 #
vertex $-1 -1 $-1 $162 $307 #
ellipse-curve $-1 -1 $-1 0 0 0.14049999999999985 0 0 1 0.18749999999999997 0 0 1 I I #
point $-1 -1 $-1 0.18749999999999997 0 -0.14049999999999985 #
face $-1 -1 $-1 $308 $309 $27 $-1 $310 reversed single #
loop $-1 -1 $-1 $-1 $264 $165 #
plane-surface $-1 -1 $-1 0 0 0.4845000000000006 0 0 1 1 0 0 forward_v I I I I #
coedge $-1 -1 $-1 $311 $312 $313 $247 reversed $166 $-1 #
coedge $-1 -1 $-1 $173 $167 $314 $315 reversed $111 $-1 #
coedge $-1 -1 $-1 $167 $173 $316 $317 reversed $111 $-1 #
edge $-1 -1 $-1 $318 -0.28100000000000014 $319 -4.4408920985006262e-016 $313 $320 forward @7 unknown #
coedge $-1 -1 $-1 $169 $168 $321 $322 reversed $76 $-1 #
coedge $-1 -1 $-1 $323 $324 $325 $250 forward $309 $-1 #
edge $-1 -1 $-1 $326 -0.28100000000000014 $254 -4.4408920985006262e-016 $249 $327 forward @7 unknown #
coedge $-1 -1 $-1 $252 $170 $328 $329 reversed $253 $-1 #
coedge $-1 -1 $-1 $170 $251 $323 $330 forward $253 $-1 #
loop $-1 -1 $-1 $-1 $170 $331 #
vertex $-1 -1 $-1 $332 $333 #
vertex $-1 -1 $-1 $334 $335 #
ellipse-curve $-1 -1 $-1 -6.1629758220391547e-033 -0.14049999999999985 0 0 1 0 0.34259323548488219 0 0.3425932354848823 1 I I #
coedge $-1 -1 $-1 $336 $337 $172 $258 forward $338 $-1 #
edge $-1 -1 $-1 $255 -0.78539816339744817 $260 0.78539816339744839 $257 $256 forward @7 unknown #
coedge $-1 -1 $-1 $339 $340 $341 $174 forward $342 $-1 #
vertex $-1 -1 $-1 $343 $344 #
straight-curve $-1 -1 $-1 0.48449999999999993 -0.14050000000000029 0 0 -1 0 I I #
coedge $-1 -1 $-1 $345 $175 $337 $334 forward $265 $-1 #
coedge $-1 -1 $-1 $175 $345 $177 $267 forward $265 $-1 #
coedge $-1 -1 $-1 $346 $328 $169 $176 reversed $242 $-1 #
loop $-1 -1 $-1 $-1 $175 $347 #
straight-curve $-1 -1 $-1 -6.1629758220391547e-033 -0.14050000000000029 0.4845000000000006 0 -1 0 I I #
edge $-1 -1 $-1 $348 -0.48449999999999993 $181 6.1629758220391547e-033 $177 $349 forward @7 unknown #
coedge $-1 -1 $-1 $350 $341 $178 $269 reversed $351 $-1 #
edge $-1 -1 $-1 $348 -0.4845000000000006 $180 0 $268 $352 forward @7 unknown #
face $-1 -1 $-1 $353 $179 $27 $-1 $354 reversed single #
edge $-1 -1 $-1 $180 0 $355 0.4845000000000006 $340 $352 forward @7 unknown #
point $-1 -1 $-1 0.48449999999999993 0.14049999999999985 0 #
edge $-1 -1 $-1 $181 6.1629758220391547e-033 $356 0.48449999999999993 $357 $349 forward @7 unknown #
point $-1 -1 $-1 -6.1629758220391547e-033 0.14049999999999985 0.4845000000000006 #
loop $-1 -1 $-1 $-1 $189 $117 #
coedge $-1 -1 $-1 $276 $276 $187 $277 forward $183 $-1 #
edge $358 -1 $-1 $359 -3.1415926535897931 $359 3.1415926535897931 $187 $360 forward @7 unknown #
vertex $-1 -1 $-1 $188 $361 #
ellipse-curve $-1 -1 $-1 -6.1629758220391547e-033 0.1404999999999994 0 0 -1 0 0.34259323548488219 0 0.3425932354848823 1 I I #
convexity-sys-attrib $-1 -1 $-1 $-1 $190 #
vertex $-1 -1 $-1 $190 $362 #
ellipse-curve $-1 -1 $-1 0 -0.078500000000000014 0 0 1 0 -0.30935921676911449 0 -0.30935921676911449 1 I I #
point $-1 -1 $-1 -0.30935921676911449 0.1404999999999994 -0.30935921676911438 #
model_id-kcp-attrib $-1 -1 $-1 $-1 $194 1 1021323310 1021323310 -1676410879 10 #
coedge $-1 -1 $-1 $285 $285 $199 $286 forward $194 $-1 #
edge $363 -1 $-1 $364 -7.894919286223331e-016 $364 6.2831853071795853 $285 $365 forward @7 unknown #
vertex $-1 -1 $-1 $200 $366 #
ellipse-curve $-1 -1 $-1 0 -4.0609999999999999 7.1353999999999997 0 -1 0 -0.30935921676911449 0 -0.30935921676911449 1 I I #
convexity-sys-attrib $-1 -1 $-1 $201 $132 #
point $-1 -1 $-1 -0.30935921676911449 -4.2799999999999994 6.8260407832308854 #
plane-surface $-1 -1 $-1 0.48449999999999993 0 0 -1 0 0 0 0 1 forward_v I I I I #
coedge $-1 -1 $-1 $216 $214 $218 $296 reversed $143 $-1 #
edge $-1 -1 $-1 $229 -0.4845000000000006 $298 0.4845000000000006 $228 $367 forward @7 unknown #
vertex $-1 -1 $-1 $296 $368 #
straight-curve $-1 -1 $-1 -0.48449999999999993 -0.14049999999999985 0 0 0 -1 I I #
edge $-1 -1 $-1 $294 -0.14049999999999985 $298 0.14049999999999985 $292 $369 forward @7 unknown #
straight-curve $-1 -1 $-1 0 -0.14049999999999985 -0.4845000000000006 -1 0 0 I I #
vertex $-1 -1 $-1 $221 $370 #
straight-curve $-1 -1 $-1 0 0.14049999999999985 -0.4845000000000006 1 0 0 I I #
point $-1 -1 $-1 0.48449999999999993 0.14049999999999985 -0.4845000000000006 #
point $-1 -1 $-1 0.48449999999999993 -0.14049999999999985 -0.4845000000000006 #
straight-curve $-1 -1 $-1 -0.48449999999999993 0 0.4845000000000006 0 -1 0 I I #
point $-1 -1 $-1 -0.48449999999999993 0.14049999999999985 0.4845000000000006 #
point $-1 -1 $-1 -0.48449999999999993 -0.14049999999999985 0.4845000000000006 #
straight-curve $-1 -1 $-1 0.48449999999999993 -0.14049999999999985 0 0 0 -1 I I #
straight-curve $-1 -1 $-1 0.48449999999999993 0.14049999999999985 0 0 0 -1 I I #
point $-1 -1 $-1 0.18749999999999997 0 0.14049999999999985 #
face $-1 -1 $-1 $371 $351 $27 $-1 $372 reversed single #
loop $-1 -1 $-1 $-1 $249 $241 #
plane-surface $-1 -1 $-1 -0.48449999999999993 0 0 1 0 0 0 0 -1 forward_v I I I I #
coedge $-1 -1 $-1 $373 $244 $374 $375 reversed $166 $-1 #
coedge $-1 -1 $-1 $244 $373 $376 $377 reversed $166 $-1 #
coedge $-1 -1 $-1 $378 $379 $380 $247 forward $381 $-1 #
coedge $-1 -1 $-1 $382 $383 $245 $315 forward $384 $-1 #
edge $-1 -1 $-1 $260 0.78539816339744839 $319 2.3561944901923453 $314 $256 forward @7 unknown #
coedge $-1 -1 $-1 $385 $386 $246 $317 forward $387 $-1 #
edge $-1 -1 $-1 $318 -2.3561944901923453 $180 -0.78539816339744839 $316 $182 forward @7 unknown #
vertex $-1 -1 $-1 $388 $389 #
vertex $-1 -1 $-1 $390 $391 #
straight-curve $-1 -1 $-1 -6.1629758220391547e-033 -0.14050000000000029 -0.4845000000000006 0 -1 0 I I #
coedge $-1 -1 $-1 $392 $357 $248 $322 forward $393 $-1 #
edge $-1 -1 $-1 $181 0.78539816339744817 $326 2.3561944901923448 $321 $182 forward @7 unknown #
coedge $-1 -1 $-1 $394 $249 $252 $330 reversed $309 $-1 #
coedge $-1 -1 $-1 $249 $394 $392 $395 forward $309 $-1 #
coedge $-1 -1 $-1 $396 $397 $373 $250 reversed $398 $-1 #
vertex $-1 -1 $-1 $399 $400 #
straight-curve $-1 -1 $-1 -0.48449999999999993 -0.14050000000000029 0 0 -1 0 I I #
coedge $-1 -1 $-1 $264 $401 $251 $329 forward $242 $-1 #
edge $-1 -1 $-1 $402 -0.48449999999999993 $255 -6.1629758220391547e-033 $251 $403 forward @7 unknown #
edge $-1 -1 $-1 $402 -0.4845000000000006 $254 0 $323 $404 forward @7 unknown #
face $-1 -1 $-1 $405 $253 $27 $-1 $406 reversed single #
edge $-1 -1 $-1 $254 0 $407 0.4845000000000006 $397 $404 forward @7 unknown #
point $-1 -1 $-1 -0.48449999999999993 -0.14049999999999985 0 #
edge $-1 -1 $-1 $255 -6.1629758220391547e-033 $408 0.48449999999999993 $337 $403 forward @7 unknown #
point $-1 -1 $-1 -6.1629758220391547e-033 -0.14049999999999985 0.4845000000000006 #
coedge $-1 -1 $-1 $337 $257 $409 $410 reversed $338 $-1 #
coedge $-1 -1 $-1 $257 $336 $262 $334 reversed $338 $-1 #
loop $-1 -1 $-1 $-1 $257 $405 #
coedge $-1 -1 $-1 $411 $259 $383 $343 forward $342 $-1 #
coedge $-1 -1 $-1 $259 $411 $385 $271 reversed $342 $-1 #
coedge $-1 -1 $-1 $268 $409 $113 $174 reversed $351 $-1 #
loop $-1 -1 $-1 $-1 $259 $412 #
edge $-1 -1 $-1 $260 0 $413 0.4845000000000006 $339 $414 forward @7 unknown #
point $-1 -1 $-1 0.48449999999999993 -0.14049999999999985 0 #
coedge $-1 -1 $-1 $263 $262 $350 $415 forward $265 $-1 #
coedge $-1 -1 $-1 $401 $264 $357 $273 forward $242 $-1 #
face $-1 -1 $-1 $416 $265 $27 $-1 $243 forward single #
vertex $-1 -1 $-1 $415 $417 #
straight-curve $-1 -1 $-1 0 0.14049999999999985 0.4845000000000006 -1 0 0 I I #
coedge $-1 -1 $-1 $409 $268 $345 $415 reversed $351 $-1 #
loop $-1 -1 $-1 $-1 $341 $308 #
straight-curve $-1 -1 $-1 0.48449999999999993 0.14049999999999985 0 0 0 -1 I I #
face $-1 -1 $-1 $418 $393 $27 $-1 $354 reversed single #
plane-surface $-1 -1 $-1 0 0.14049999999999985 0 0 -1 0 0 0 -1 forward_v I I I I #
vertex $-1 -1 $-1 $419 $420 #
vertex $-1 -1 $-1 $273 $421 #
coedge $-1 -1 $-1 $321 $392 $346 $273 reversed $393 $-1 #
convexity-sys-attrib $-1 -1 $-1 $-1 $277 #
vertex $-1 -1 $-1 $277 $422 #
ellipse-curve $-1 -1 $-1 -6.1629758220391547e-033 -0.078500000000000014 0 0 -1 0 0.34259323548488219 0 0.3425932354848823 1 I I #
point $-1 -1 $-1 -0.34259323548488213 0.1404999999999994 -0.34259323548488235 #
point $-1 -1 $-1 -0.30935921676911449 -0.078500000000000014 -0.30935921676911438 #
attrib_edge_convexity-kcp-attrib $-1 -1 $423 $-1 $286 1 #
vertex $424 -1 $-1 $286 $425 #
ellipse-curve $-1 -1 $-1 0 -4.0609999999999999 7.1353999999999997 0 1 0 -0.13258252147247765 0 -0.13258252147247765 1 I I #
point $-1 -1 $-1 -0.30935921676911449 -4.0609999999999999 6.8260407832308854 #
straight-curve $-1 -1 $-1 -0.48449999999999993 0.14049999999999985 0 0 0 -1 I I #
point $-1 -1 $-1 -0.48449999999999993 -0.14049999999999985 -0.4845000000000006 #
straight-curve $-1 -1 $-1 -0.48449999999999993 0 -0.4845000000000006 0 1 0 I I #
point $-1 -1 $-1 -0.48449999999999993 0.14049999999999985 -0.4845000000000006 #
face $-1 -1 $-1 $331 $426 $27 $-1 $406 reversed single #
plane-surface $-1 -1 $-1 0.48449999999999993 0 0 -1 0 0 0 0 1 forward_v I I I I #
coedge $-1 -1 $-1 $312 $311 $168 $250 forward $166 $-1 #
coedge $-1 -1 $-1 $427 $428 $311 $375 forward $429 $-1 #
edge $-1 -1 $-1 $326 2.3561944901923448 $318 3.926990816987241 $374 $182 forward @7 unknown #
coedge $-1 -1 $-1 $430 $431 $312 $377 forward $426 $-1 #
edge $-1 -1 $-1 $319 2.3561944901923453 $254 3.9269908169872414 $376 $256 forward @7 unknown #
coedge $-1 -1 $-1 $432 $313 $431 $390 forward $381 $-1 #
coedge $-1 -1 $-1 $313 $432 $427 $433 forward $381 $-1 #
coedge $-1 -1 $-1 $434 $435 $167 $247 reversed $436 $-1 #
loop $-1 -1 $-1 $-1 $313 $416 #
coedge $-1 -1 $-1 $383 $314 $435 $437 reversed $384 $-1 #
coedge $-1 -1 $-1 $314 $382 $339 $343 reversed $384 $-1 #
loop $-1 -1 $-1 $-1 $314 $438 #
coedge $-1 -1 $-1 $386 $316 $340 $271 forward $387 $-1 #
coedge $-1 -1 $-1 $316 $385 $434 $388 reversed $387 $-1 #
loop $-1 -1 $-1 $-1 $316 $439 #
edge $-1 -1 $-1 $318 -6.1629758220391547e-033 $355 0.48449999999999993 $386 $440 forward @7 unknown #
point $-1 -1 $-1 -6.1629758220391547e-033 0.14049999999999985 -0.4845000000000006 #
edge $-1 -1 $-1 $319 6.1629758220391547e-033 $407 0.48449999999999993 $431 $441 forward @7 unknown #
point $-1 -1 $-1 -6.1629758220391547e-033 -0.14049999999999985 -0.4845000000000006 #
coedge $-1 -1 $-1 $357 $321 $324 $395 reversed $393 $-1 #
loop $-1 -1 $-1 $-1 $321 $353 #
coedge $-1 -1 $-1 $324 $323 $401 $442 reversed $309 $-1 #
edge $-1 -1 $-1 $356 -0.4845000000000006 $326 0 $392 $443 forward @7 unknown #
coedge $-1 -1 $-1 $444 $325 $428 $399 forward $398 $-1 #
coedge $-1 -1 $-1 $325 $444 $430 $332 reversed $398 $-1 #
loop $-1 -1 $-1 $-1 $325 $445 #
edge $-1 -1 $-1 $326 0 $446 0.4845000000000006 $428 $443 forward @7 unknown #
point $-1 -1 $-1 -0.48449999999999993 0.14049999999999985 0 #
coedge $-1 -1 $-1 $328 $346 $394 $442 forward $242 $-1 #
vertex $-1 -1 $-1 $442 $447 #
straight-curve $-1 -1 $-1 0 -0.14049999999999985 0.4845000000000006 1 0 0 I I #
straight-curve $-1 -1 $-1 -0.48449999999999993 -0.14049999999999985 0 0 0 -1 I I #
face $-1 -1 $-1 $438 $338 $27 $-1 $406 reversed single #
plane-surface $-1 -1 $-1 0 -0.14049999999999985 0 0 1 0 0 0 1 forward_v I I I I #
vertex $-1 -1 $-1 $448 $449 #
vertex $-1 -1 $-1 $415 $450 #
coedge $-1 -1 $-1 $341 $350 $336 $410 forward $351 $-1 #
edge $-1 -1 $-1 $408 -0.4845000000000006 $260 0 $409 $414 forward @7 unknown #
coedge $-1 -1 $-1 $340 $339 $451 $419 reversed $342 $-1 #
face $-1 -1 $-1 $-1 $342 $27 $-1 $372 reversed single #
vertex $-1 -1 $-1 $343 $452 #
straight-curve $-1 -1 $-1 0.48449999999999993 -0.14049999999999985 0 0 0 -1 I I #
edge $-1 -1 $-1 $408 -0.14049999999999985 $348 0.14049999999999985 $350 $453 forward @7 unknown #
face $-1 -1 $-1 $445 $381 $27 $-1 $454 reversed single #
point $-1 -1 $-1 0.48449999999999993 0.14049999999999985 0.4845000000000006 #
face $-1 -1 $-1 $455 $429 $27 $-1 $354 reversed single #
edge $-1 -1 $-1 $355 -0.14049999999999985 $413 0.14049999999999985 $411 $456 forward @7 unknown #
point $-1 -1 $-1 0.48449999999999993 0.14049999999999985 -0.4845000000000006 #
point $-1 -1 $-1 -0.48449999999999993 0.14049999999999985 0.4845000000000006 #
point $-1 -1 $-1 -0.34259323548488213 -0.078500000000000014 -0.34259323548488235 #
convexity-sys-attrib $-1 -1 $-1 $363 $286 #
model_id-kcp-attrib $-1 -1 $-1 $-1 $364 1 1021323310 1021323310 -1676410879 14 #
point $-1 -1 $-1 -0.13258252147247765 -4.0609999999999999 7.0028174785275219 #
loop $-1 -1 $-1 $-1 $376 $371 #
coedge $-1 -1 $-1 $428 $374 $379 $433 reversed $429 $-1 #
coedge $-1 -1 $-1 $374 $427 $396 $399 reversed $429 $-1 #
loop $-1 -1 $-1 $-1 $374 $418 #
coedge $-1 -1 $-1 $431 $376 $397 $332 forward $426 $-1 #
coedge $-1 -1 $-1 $376 $430 $378 $390 reversed $426 $-1 #
coedge $-1 -1 $-1 $379 $378 $444 $448 forward $381 $-1 #
edge $-1 -1 $-1 $446 -0.48449999999999993 $318 -6.1629758220391547e-033 $427 $440 forward @7 unknown #
coedge $-1 -1 $-1 $451 $380 $386 $388 forward $436 $-1 #
coedge $-1 -1 $-1 $380 $451 $382 $437 forward $436 $-1 #
loop $-1 -1 $-1 $-1 $380 $455 #
edge $-1 -1 $-1 $413 -0.48449999999999993 $319 6.1629758220391547e-033 $382 $441 forward @7 unknown #
face $-1 -1 $-1 $439 $384 $27 $-1 $406 reversed single #
face $-1 -1 $-1 $270 $387 $27 $-1 $354 reversed single #
straight-curve $-1 -1 $-1 0 0.14049999999999985 -0.4845000000000006 1 0 0 I I #
straight-curve $-1 -1 $-1 0 -0.14049999999999985 -0.4845000000000006 -1 0 0 I I #
edge $-1 -1 $-1 $356 -0.14049999999999985 $402 0.14049999999999985 $394 $457 forward @7 unknown #
straight-curve $-1 -1 $-1 -0.48449999999999993 0.14049999999999985 0 0 0 -1 I I #
coedge $-1 -1 $-1 $397 $396 $432 $448 reversed $398 $-1 #
face $-1 -1 $-1 $412 $398 $27 $-1 $310 reversed single #
vertex $-1 -1 $-1 $433 $458 #
point $-1 -1 $-1 -0.48449999999999993 -0.14049999999999985 0.4845000000000006 #
edge $-1 -1 $-1 $407 -0.14049999999999985 $446 0.14049999999999985 $444 $459 forward @7 unknown #
point $-1 -1 $-1 -0.48449999999999993 -0.14049999999999985 -0.4845000000000006 #
point $-1 -1 $-1 0.48449999999999993 -0.14049999999999985 0.4845000000000006 #
coedge $-1 -1 $-1 $435 $434 $411 $419 forward $436 $-1 #
point $-1 -1 $-1 0.48449999999999993 -0.14049999999999985 -0.4845000000000006 #
straight-curve $-1 -1 $-1 0.48449999999999993 0 0.4845000000000006 0 1 0 I I #
plane-surface $-1 -1 $-1 0 0 -0.4845000000000006 0 0 1 1 0 0 forward_v I I I I #
face $-1 -1 $-1 $347 $436 $27 $-1 $454 reversed single #
straight-curve $-1 -1 $-1 0.48449999999999993 0 -0.4845000000000006 0 -1 0 I I #
straight-curve $-1 -1 $-1 -0.48449999999999993 0 0.4845000000000006 0 -1 0 I I #
point $-1 -1 $-1 -0.48449999999999993 0.14049999999999985 -0.4845000000000006 #
straight-curve $-1 -1 $-1 -0.48449999999999993 0 -0.4845000000000006 0 1 0 I I #
End-of-ACIS-data 