700 0 2 0           
24 FBMach with ACIS - 7.0.3 13 ACIS 7.0.3 NT 24 Mon May 13 16:57:20 2002 
1 9.9999999999999995e-007 1e-010 
body $2 -1 $-1 $3 $-1 $4 #
bdycol-kcp $-1 -1 1 5 $5 $6 $7 $8 $9 #
model_id-kcp-attrib $-1 -1 $-1 $-1 $0 1 1021323439 1021323439 261160961 1 #
lump $-1 -1 $-1 $-1 $10 $0 #
transform $-1 -1 1.0000000000000002 0 0 0 1 0 0 0 1.0000000000000002 8.8817841970012523e-016 0 -8.8817841970012523e-016 1 rotate no_reflect no_shear #
body $11 -1 $-1 $12 $-1 $13 #
body $14 -1 $-1 $15 $-1 $16 #
body $17 -1 $-1 $18 $-1 $19 #
body $20 -1 $-1 $21 $-1 $22 #
body $23 -1 $-1 $24 $-1 $25 #
shell $-1 -1 $-1 $-1 $-1 $26 $-1 $3 #
rgb_color-st-attrib $-1 -1 $27 $-1 $5 0.5 0.5 1 #
lump $-1 -1 $-1 $-1 $28 $5 #
transform $-1 -1 1 0 0 0 1 0 0 0 1 -4.1592000000000002 0 5.2842000000000002 1 no_rotate no_reflect no_shear #
model_id-kcp-attrib $-1 -1 $-1 $-1 $6 1 1021323439 1021323439 261160962 1 #
lump $-1 -1 $-1 $-1 $29 $6 #
transform $-1 -1 1 0 0 0 1 0 0 0 1 -4.1592000000000002 0 5.2842000000000002 1 no_rotate no_reflect no_shear #
rgb_color-st-attrib $-1 -1 $30 $-1 $7 0.5 1 1 #
lump $-1 -1 $-1 $-1 $31 $7 #
transform $-1 -1 -0.70710678118654757 8.6592745707193554e-017 -0.70710678118654746 -1.2246063538223773e-016 -1 0 -0.70710678118654746 8.6592745707193542e-017 0.70710678118654757 -4.1592000001419489 2.0074608642062241e-010 5.2841999998580516 1 rotate no_reflect no_shear #
rgb_color-st-attrib $-1 -1 $32 $-1 $8 0.5 0.5 1 #
lump $-1 -1 $-1 $-1 $33 $8 #
transform $-1 -1 1 0 0 0 1 0 0 0 1 -4.1592000000000002 0 5.2842000000000002 1 no_rotate no_reflect no_shear #
rgb_color-st-attrib $-1 -1 $34 $-1 $9 0.5 1 1 #
lump $-1 -1 $-1 $-1 $35 $9 #
transform $-1 -1 1 0 0 0 1 0 0 0 1 -4.1592000000000002 0 5.2842000000000002 1 no_rotate no_reflect no_shear #
face $36 -1 $-1 $37 $38 $10 $-1 $39 reversed single #
model_id-kcp-attrib $-1 -1 $-1 $11 $5 1 1021323439 1021323439 256901125 1 #
shell $-1 -1 $-1 $-1 $-1 $40 $-1 $12 #
shell $-1 -1 $-1 $-1 $-1 $41 $-1 $15 #
model_id-kcp-attrib $-1 -1 $-1 $17 $7 1 1021323439 1021323439 261816323 1 #
shell $-1 -1 $-1 $-1 $-1 $42 $-1 $18 #
model_id-kcp-attrib $-1 -1 $-1 $20 $8 1 1021323439 1021323439 262144006 1 #
shell $-1 -1 $-1 $-1 $-1 $43 $-1 $21 #
model_id-kcp-attrib $-1 -1 $-1 $23 $9 1 1021323439 1021323439 266469380 1 #
shell $-1 -1 $-1 $-1 $-1 $44 $-1 $24 #
model_id-kcp-attrib $-1 -1 $-1 $-1 $26 1 1021323439 1021323439 261160961 2 #
face $45 -1 $-1 $46 $47 $10 $-1 $48 forward single #
loop $49 -1 $-1 $50 $51 $26 #
cone-surface $-1 -1 $-1 -4.1592000001419489 2.0074608642062238e-010 5.2841999998580516 -0.70710678118654757 0 0.70710678118654757 0.70710678118654746 0 0.70710678118654746 1 I I 0 1 1 forward I I I I #
face $-1 -1 $-1 $52 $53 $28 $-1 $54 reversed single #
face $-1 -1 $-1 $55 $56 $29 $-1 $57 forward single #
face $-1 -1 $-1 $58 $59 $31 $-1 $60 forward single #
face $-1 -1 $-1 $61 $62 $33 $-1 $63 reversed single #
face $-1 -1 $-1 $64 $65 $35 $-1 $66 reversed single #
model_id-kcp-attrib $-1 -1 $-1 $-1 $37 1 1021323439 1021323439 261160961 3 #
face $67 -1 $-1 $68 $69 $10 $-1 $70 forward single #
loop $-1 -1 $-1 $71 $72 $37 #
cone-surface $-1 -1 $-1 -4.1592000000000002 0 5.2842000000000002 0.70710678118654757 0 -0.70710678118654757 -1.4106780284671621 0 -1.4106780284671621 1 I I 0 1 1.9949999999999999 forward I I I I #
model_id-kcp-attrib $-1 -1 $-1 $-1 $38 1 1021323439 1021323439 261160961 6 #
loop $73 -1 $-1 $-1 $74 $26 #
coedge $-1 -1 $-1 $51 $51 $75 $76 reversed $38 $-1 #
face $-1 -1 $-1 $77 $78 $28 $-1 $79 forward single #
loop $-1 -1 $-1 $-1 $80 $40 #
plane-surface $-1 -1 $-1 -0.1880904037956217 0 0.1880904037956217 -0.70710678118654757 0 0.70710678118654757 0 -1 0 forward_v I I I I #
face $-1 -1 $-1 $81 $82 $29 $-1 $83 reversed single #
loop $-1 -1 $-1 $-1 $84 $41 #
plane-surface $-1 -1 $-1 0 0 1.5987684322627835 0 0 1 1 0 0 forward_v I I I I #
face $-1 -1 $-1 $85 $86 $31 $-1 $87 forward single #
loop $-1 -1 $-1 $88 $89 $42 #
cone-surface $-1 -1 $-1 0 0 0 0 0 1 0.99999999999999989 0 0 1 I I 0 1 0.99999999999999989 forward I I I I #
face $-1 -1 $-1 $90 $91 $33 $-1 $92 forward single #
loop $-1 -1 $-1 $-1 $93 $43 #
plane-surface $-1 -1 $-1 0.1880904037956217 0 -0.18809040379562081 0.70710678118654757 0 -0.70710678118654757 0 1 0 forward_v I I I I #
face $-1 -1 $-1 $94 $95 $35 $-1 $66 reversed single #
loop $-1 -1 $-1 $-1 $96 $44 #
cone-surface $-1 -1 $-1 -0.18809040379562081 0 0.1880904037956217 -0.70710678118654757 0 0.70710678118654757 1.4106780284671621 -2.4430896758756421e-016 1.4106780284671621 1 I I 0 1 1.9949999999999997 forward I I I I #
model_id-kcp-attrib $-1 -1 $-1 $-1 $46 1 1021323439 1021323439 261160961 4 #
face $97 -1 $-1 $-1 $98 $10 $-1 $99 forward single #
loop $100 -1 $-1 $101 $75 $46 #
plane-surface $-1 -1 $-1 -4.3472904037956219 0 5.4722904037956219 -0.70710678118654757 0 0.70710678118654757 0.70710678118654735 0 0.70710678118654735 forward_v I I I I #
loop $-1 -1 $-1 $-1 $102 $37 #
coedge $-1 -1 $-1 $72 $72 $103 $104 reversed $47 $-1 #
model_id-kcp-attrib $-1 -1 $-1 $-1 $50 1 1021323439 1021323439 261160961 7 #
coedge $-1 -1 $-1 $74 $74 $105 $106 reversed $50 $-1 #
coedge $-1 -1 $-1 $75 $75 $51 $76 forward $69 $-1 #
edge $107 -1 $-1 $108 -3.1415926535897998 $108 3.1415926535897865 $75 $109 forward @7 unknown #
face $-1 -1 $-1 $110 $111 $28 $-1 $79 forward single #
loop $-1 -1 $-1 $-1 $112 $52 #
cone-surface $-1 -1 $-1 -0.18809040379562081 0 0.1880904037956217 -0.70710678118654757 0 0.70710678118654757 1.4106780284671621 -2.4430896758756421e-016 1.4106780284671621 1 I I 0 1 1.9949999999999997 forward I I I I #
coedge $-1 -1 $-1 $113 $113 $114 $115 forward $53 $-1 #
face $-1 -1 $-1 $116 $117 $29 $-1 $118 reversed single #
loop $-1 -1 $-1 $-1 $119 $55 #
plane-surface $-1 -1 $-1 0 0 -1.5987684322627835 0 0 1 1 0 0 forward_v I I I I #
coedge $-1 -1 $-1 $120 $121 $122 $123 forward $56 $-1 #
face $-1 -1 $-1 $-1 $124 $31 $-1 $125 forward single #
loop $-1 -1 $-1 $-1 $126 $58 #
plane-surface $-1 -1 $-1 0 0 -0.26600000000000001 0 0 -1 -1 0 0 forward_v I I I I #
loop $-1 -1 $-1 $-1 $127 $42 #
coedge $-1 -1 $-1 $89 $89 $126 $128 reversed $59 $-1 #
face $-1 -1 $-1 $129 $130 $33 $-1 $92 forward single #
loop $-1 -1 $-1 $-1 $131 $61 #
cone-surface $-1 -1 $-1 -0.18809040379562081 0 0.1880904037956217 -0.70710678118654757 0 0.70710678118654757 1.4106780284671621 -2.4430896758756421e-016 1.4106780284671621 1 I I 0 1 1.9949999999999997 forward I I I I #
coedge $-1 -1 $-1 $132 $132 $133 $134 forward $62 $-1 #
face $-1 -1 $-1 $135 $136 $35 $-1 $137 reversed single #
loop $-1 -1 $-1 $-1 $138 $64 #
coedge $-1 -1 $-1 $139 $140 $141 $142 reversed $65 $-1 #
model_id-kcp-attrib $-1 -1 $-1 $-1 $68 1 1021323439 1021323439 261160961 5 #
loop $143 -1 $-1 $144 $105 $68 #
plane-surface $-1 -1 $-1 -3.9711095962043785 0 5.0961095962043785 0.70710678118654757 0 -0.70710678118654757 -0.70710678118654735 0 -0.70710678118654735 forward_v I I I I #
model_id-kcp-attrib $-1 -1 $-1 $-1 $69 1 1021323439 1021323439 261160961 8 #
loop $-1 -1 $-1 $-1 $103 $46 #
coedge $-1 -1 $-1 $102 $102 $145 $146 reversed $71 $-1 #
coedge $-1 -1 $-1 $103 $103 $72 $104 forward $101 $-1 #
edge $147 -1 $-1 $148 0 $148 6.2831853071795862 $103 $149 forward @7 unknown #
coedge $-1 -1 $-1 $105 $105 $74 $106 forward $98 $-1 #
edge $150 -1 $-1 $151 -3.1415926535897998 $151 3.1415926535897865 $105 $152 forward @7 unknown #
attrib_edge_convexity-kcp-attrib $-1 -1 $153 $-1 $76 1 #
vertex $154 -1 $-1 $76 $155 #
ellipse-curve $-1 -1 $-1 -4.3472904039375706 2.0074608642062238e-010 5.4722904036536733 0.70710678118654757 0 -0.70710678118654757 0.70710678118654746 0 0.70710678118654746 1 I I #
face $-1 -1 $-1 $156 $157 $28 $-1 $158 forward single #
loop $-1 -1 $-1 $-1 $114 $77 #
coedge $-1 -1 $-1 $159 $160 $113 $161 reversed $78 $-1 #
coedge $-1 -1 $-1 $80 $80 $112 $161 forward $53 $-1 #
coedge $-1 -1 $-1 $162 $163 $80 $115 reversed $111 $-1 #
edge $164 -1 $-1 $165 -3.1415926535897931 $166 -6.1230317691118888e-017 $114 $167 forward @7 unknown #
face $-1 -1 $-1 $168 $169 $29 $-1 $170 reversed single #
loop $-1 -1 $-1 $-1 $171 $81 #
plane-surface $-1 -1 $-1 0 -1.9949999999999999 0 0 1 0 0 0 1 forward_v I I I I #
coedge $-1 -1 $-1 $172 $173 $174 $175 forward $82 $-1 #
coedge $-1 -1 $-1 $176 $84 $177 $178 forward $56 $-1 #
coedge $-1 -1 $-1 $84 $176 $179 $180 forward $56 $-1 #
coedge $-1 -1 $-1 $181 $182 $84 $123 reversed $183 $-1 #
edge $-1 -1 $-1 $184 -1.9949999999999999 $185 1.9949999999999999 $122 $186 forward @7 unknown #
loop $-1 -1 $-1 $-1 $187 $85 #
plane-surface $-1 -1 $-1 0 0 0.26600000000000001 0 0 1 1 0 0 forward_v I I I I #
coedge $-1 -1 $-1 $126 $126 $89 $128 forward $86 $-1 #
coedge $-1 -1 $-1 $127 $127 $187 $188 reversed $88 $-1 #
edge $-1 -1 $-1 $189 0 $189 6.2831853071795862 $126 $190 forward @7 unknown #
face $-1 -1 $-1 $191 $192 $33 $-1 $193 reversed single #
loop $-1 -1 $-1 $-1 $133 $90 #
coedge $-1 -1 $-1 $194 $195 $132 $196 reversed $91 $-1 #
coedge $-1 -1 $-1 $93 $93 $131 $196 forward $62 $-1 #
coedge $-1 -1 $-1 $197 $198 $93 $134 reversed $130 $-1 #
edge $199 -1 $-1 $200 -3.1415926535897931 $201 6.1230317691118875e-017 $133 $202 forward @7 unknown #
face $-1 -1 $-1 $203 $204 $35 $-1 $205 reversed single #
loop $-1 -1 $-1 $-1 $206 $94 #
plane-surface $-1 -1 $-1 0 -1.9949999999999999 0 0 1 0 0 0 1 forward_v I I I I #
coedge $-1 -1 $-1 $207 $208 $209 $210 reversed $95 $-1 #
coedge $-1 -1 $-1 $211 $96 $208 $212 forward $65 $-1 #
coedge $-1 -1 $-1 $96 $211 $213 $214 reversed $65 $-1 #
coedge $-1 -1 $-1 $215 $216 $96 $142 forward $217 $-1 #
edge $-1 -1 $-1 $218 -1.5707963267948968 $219 1.570796326794897 $141 $220 forward @7 unknown #
model_id-kcp-attrib $-1 -1 $-1 $-1 $98 1 1021323439 1021323439 261160961 9 #
loop $-1 -1 $-1 $-1 $145 $68 #
coedge $-1 -1 $-1 $145 $145 $102 $146 forward $144 $-1 #
edge $221 -1 $-1 $222 0 $222 6.2831853071795862 $145 $223 forward @7 unknown #
attrib_edge_convexity-kcp-attrib $-1 -1 $224 $-1 $104 1 #
vertex $-1 -1 $-1 $104 $225 #
ellipse-curve $-1 -1 $-1 -4.3472904037956219 0 5.4722904037956219 -0.70710678118654757 0 0.70710678118654757 -1.4106780284671621 0 -1.4106780284671621 1 I I #
attrib_edge_convexity-kcp-attrib $-1 -1 $226 $-1 $106 1 #
vertex $227 -1 $-1 $106 $228 #
ellipse-curve $-1 -1 $-1 -3.9711095963463277 2.0074608642062238e-010 5.0961095960624299 -0.70710678118654757 0 0.70710678118654757 0.70710678118654746 0 0.70710678118654746 1 I I #
convexity-sys-attrib $-1 -1 $-1 $107 $76 #
model_id-kcp-attrib $-1 -1 $-1 $-1 $108 1 1021323439 1021323439 261160961 10 #
point $-1 -1 $-1 -5.0543971851241185 2.0073910345390016e-010 4.7651836224671253 #
face $-1 -1 $-1 $-1 $229 $28 $-1 $230 reversed single #
loop $-1 -1 $-1 $-1 $231 $110 #
plane-surface $-1 -1 $-1 0 0 1.5987684322627835 0 0 1 1 0 0 forward_v I I I I #
coedge $-1 -1 $-1 $160 $112 $231 $232 reversed $78 $-1 #
coedge $-1 -1 $-1 $112 $159 $233 $234 reversed $78 $-1 #
edge $235 -1 $-1 $166 -6.1230317691118888e-017 $165 3.1415926535897931 $112 $167 forward @7 unknown #
coedge $-1 -1 $-1 $163 $114 $236 $237 reversed $111 $-1 #
coedge $-1 -1 $-1 $114 $162 $238 $239 reversed $111 $-1 #
convexity-sys-attrib $-1 -1 $-1 $-1 $115 #
vertex $-1 -1 $-1 $234 $240 #
vertex $-1 -1 $-1 $239 $241 #
ellipse-curve $-1 -1 $-1 -0.18809040379562125 0 0.18809040379562214 0.70710678118654757 0 -0.70710678118654757 1.4106780284671621 -2.4430896758756421e-016 1.4106780284671621 1 I I #
face $-1 -1 $-1 $242 $243 $29 $-1 $244 reversed single #
loop $-1 -1 $-1 $-1 $245 $116 #
plane-surface $-1 -1 $-1 -1.5987684322627835 0 0 1 0 0 0 0 -1 forward_v I I I I #
coedge $-1 -1 $-1 $246 $179 $247 $248 forward $117 $-1 #
coedge $-1 -1 $-1 $249 $119 $246 $250 forward $82 $-1 #
coedge $-1 -1 $-1 $119 $249 $251 $252 forward $82 $-1 #
coedge $-1 -1 $-1 $182 $181 $119 $175 reversed $183 $-1 #
edge $-1 -1 $-1 $253 -1.9949999999999999 $254 1.9949999999999999 $174 $255 forward @7 unknown #
coedge $-1 -1 $-1 $121 $120 $256 $257 forward $56 $-1 #
coedge $-1 -1 $-1 $258 $259 $120 $178 reversed $243 $-1 #
edge $-1 -1 $-1 $185 -1.5987684322627835 $260 1.5987684322627835 $177 $261 forward @7 unknown #
coedge $-1 -1 $-1 $171 $262 $121 $180 reversed $117 $-1 #
edge $-1 -1 $-1 $263 -1.5987684322627835 $184 1.5987684322627835 $179 $264 forward @7 unknown #
coedge $-1 -1 $-1 $174 $122 $262 $265 forward $183 $-1 #
coedge $-1 -1 $-1 $122 $174 $258 $266 reversed $183 $-1 #
loop $-1 -1 $-1 $-1 $181 $242 #
vertex $-1 -1 $-1 $123 $267 #
vertex $-1 -1 $-1 $123 $268 #
straight-curve $-1 -1 $-1 1.5987684322627835 0 1.5987684322627835 0 1 0 I I #
coedge $-1 -1 $-1 $187 $187 $127 $188 forward $124 $-1 #
edge $-1 -1 $-1 $269 0 $269 6.2831853071795862 $187 $270 forward @7 unknown #
vertex $-1 -1 $-1 $128 $271 #
ellipse-curve $-1 -1 $-1 0 0 -0.26600000000000001 0 0 -1 0.99999999999999989 0 0 1 I I #
face $-1 -1 $-1 $-1 $272 $33 $-1 $273 reversed single #
loop $-1 -1 $-1 $-1 $274 $129 #
plane-surface $-1 -1 $-1 1.5987684322627835 0 0 -1 0 0 0 0 1 forward_v I I I I #
coedge $-1 -1 $-1 $195 $131 $274 $275 reversed $91 $-1 #
coedge $-1 -1 $-1 $131 $194 $276 $277 reversed $91 $-1 #
edge $278 -1 $-1 $201 6.1230317691118875e-017 $200 3.1415926535897931 $131 $202 forward @7 unknown #
coedge $-1 -1 $-1 $198 $133 $279 $280 reversed $130 $-1 #
coedge $-1 -1 $-1 $133 $197 $281 $282 reversed $130 $-1 #
convexity-sys-attrib $-1 -1 $-1 $-1 $134 #
vertex $-1 -1 $-1 $277 $283 #
vertex $-1 -1 $-1 $282 $284 #
ellipse-curve $-1 -1 $-1 0.18809040379562175 0 -0.18809040379562086 -0.70710678118654757 0 0.70710678118654757 1.4106780284671621 -2.4430896758756421e-016 1.4106780284671621 1 I I #
face $-1 -1 $-1 $285 $286 $35 $-1 $287 reversed single #
loop $-1 -1 $-1 $-1 $288 $135 #
plane-surface $-1 -1 $-1 -1.5987684322627835 0 0 1 0 0 0 0 -1 forward_v I I I I #
coedge $-1 -1 $-1 $289 $290 $139 $212 reversed $136 $-1 #
coedge $-1 -1 $-1 $291 $138 $140 $214 forward $95 $-1 #
coedge $-1 -1 $-1 $138 $291 $292 $212 reversed $95 $-1 #
coedge $-1 -1 $-1 $293 $294 $138 $210 forward $295 $-1 #
edge $-1 -1 $-1 $219 1.570796326794897 $218 4.7123889803846897 $209 $296 forward @7 unknown #
coedge $-1 -1 $-1 $140 $139 $297 $298 reversed $65 $-1 #
edge $-1 -1 $-1 $218 -2.5269999999999992 $299 1.9950000000000001 $292 $300 forward @7 unknown #
coedge $-1 -1 $-1 $301 $302 $303 $214 forward $304 $-1 #
edge $-1 -1 $-1 $219 -2.5269999999999992 $305 1.9950000000000001 $213 $306 forward @7 unknown #
coedge $-1 -1 $-1 $307 $141 $302 $308 reversed $217 $-1 #
coedge $-1 -1 $-1 $141 $307 $289 $309 forward $217 $-1 #
loop $-1 -1 $-1 $-1 $141 $285 #
vertex $-1 -1 $-1 $309 $310 #
vertex $-1 -1 $-1 $210 $311 #
ellipse-curve $-1 -1 $-1 1.5987684322627835 0 -1.5987684322627826 -1 0 0 0 -2.4430896758756421e-016 2.8213560569343241 0.70710678118654757 I I #
attrib_edge_convexity-kcp-attrib $-1 -1 $312 $-1 $146 1 #
vertex $-1 -1 $-1 $146 $313 #
ellipse-curve $-1 -1 $-1 -3.9711095962043785 0 5.0961095962043785 0.70710678118654757 0 -0.70710678118654757 -1.4106780284671621 0 -1.4106780284671621 1 I I #
convexity-sys-attrib $-1 -1 $-1 $147 $104 #
point $-1 -1 $-1 -5.7579684322627838 0 4.0616123753284601 #
convexity-sys-attrib $-1 -1 $-1 $150 $106 #
model_id-kcp-attrib $-1 -1 $-1 $-1 $151 1 1021323439 1021323439 261160961 11 #
point $-1 -1 $-1 -4.6782163775328751 2.007530693873446e-010 4.389002814875882 #
loop $-1 -1 $-1 $-1 $236 $156 #
plane-surface $-1 -1 $-1 -1.5987684322627835 0 0 1 0 0 0 0 -1 forward_v I I I I #
coedge $-1 -1 $-1 $238 $314 $159 $232 forward $157 $-1 #
edge $-1 -1 $-1 $315 -1.5707963267948968 $166 6.1230317691118875e-017 $231 $316 forward @7 unknown #
coedge $-1 -1 $-1 $317 $236 $160 $234 forward $229 $-1 #
edge $-1 -1 $-1 $165 -3.1415926535897931 $315 -1.5707963267948968 $233 $318 forward @7 unknown #
convexity-sys-attrib $-1 -1 $-1 $-1 $161 #
coedge $-1 -1 $-1 $233 $317 $162 $237 forward $229 $-1 #
edge $-1 -1 $-1 $319 1.570796326794897 $165 3.1415926535897931 $236 $318 forward @7 unknown #
coedge $-1 -1 $-1 $314 $231 $163 $239 forward $157 $-1 #
edge $-1 -1 $-1 $166 6.1230317691118875e-017 $319 1.570796326794897 $238 $316 forward @7 unknown #
point $-1 -1 $-1 -1.5987684322627835 1.2215448379378208e-016 -1.2225876246715397 #
point $-1 -1 $-1 1.2225876246715397 -1.2215448379378201e-016 1.5987684322627835 #
face $-1 -1 $-1 $-1 $183 $29 $-1 $320 reversed single #
loop $-1 -1 $-1 $-1 $258 $168 #
plane-surface $-1 -1 $-1 0 1.9949999999999999 0 0 -1 0 0 0 -1 forward_v I I I I #
coedge $-1 -1 $-1 $321 $256 $259 $322 forward $169 $-1 #
coedge $-1 -1 $-1 $262 $171 $172 $250 reversed $117 $-1 #
coedge $-1 -1 $-1 $256 $321 $171 $248 reversed $169 $-1 #
edge $-1 -1 $-1 $263 -1.5987684322627835 $323 1.5987684322627835 $247 $324 forward @7 unknown #
coedge $-1 -1 $-1 $173 $172 $321 $325 forward $82 $-1 #
edge $-1 -1 $-1 $254 -1.5987684322627835 $323 1.5987684322627835 $246 $326 forward @7 unknown #
coedge $-1 -1 $-1 $259 $258 $173 $252 reversed $243 $-1 #
edge $-1 -1 $-1 $327 -1.5987684322627835 $253 1.5987684322627835 $251 $328 forward @7 unknown #
vertex $-1 -1 $-1 $175 $329 #
vertex $-1 -1 $-1 $265 $330 #
straight-curve $-1 -1 $-1 1.5987684322627835 0 -1.5987684322627835 0 -1 0 I I #
coedge $-1 -1 $-1 $245 $247 $176 $257 reversed $169 $-1 #
edge $-1 -1 $-1 $260 -1.9949999999999999 $263 1.9949999999999999 $256 $331 forward @7 unknown #
coedge $-1 -1 $-1 $251 $177 $182 $266 forward $243 $-1 #
coedge $-1 -1 $-1 $177 $251 $245 $322 reversed $243 $-1 #
vertex $-1 -1 $-1 $178 $332 #
straight-curve $-1 -1 $-1 0 1.9949999999999999 1.5987684322627835 -1 0 0 I I #
coedge $-1 -1 $-1 $179 $246 $181 $265 reversed $117 $-1 #
vertex $-1 -1 $-1 $257 $333 #
straight-curve $-1 -1 $-1 0 -1.9949999999999999 1.5987684322627835 1 0 0 I I #
edge $-1 -1 $-1 $184 -1.5987684322627835 $254 1.5987684322627835 $181 $334 forward @7 unknown #
edge $-1 -1 $-1 $185 -1.5987684322627835 $253 1.5987684322627835 $182 $335 forward @7 unknown #
point $-1 -1 $-1 1.5987684322627835 -1.9949999999999999 1.5987684322627835 #
point $-1 -1 $-1 1.5987684322627835 1.9949999999999999 1.5987684322627835 #
vertex $-1 -1 $-1 $188 $336 #
ellipse-curve $-1 -1 $-1 0 0 0.26600000000000001 0 0 1 0.99999999999999989 0 0 1 I I #
point $-1 -1 $-1 0.99999999999999989 0 -0.26600000000000001 #
loop $-1 -1 $-1 $-1 $279 $191 #
plane-surface $-1 -1 $-1 0 0 -1.5987684322627835 0 0 1 1 0 0 forward_v I I I I #
coedge $-1 -1 $-1 $281 $337 $194 $275 forward $192 $-1 #
edge $-1 -1 $-1 $338 -1.570796326794897 $201 -6.1230317691118863e-017 $274 $339 forward @7 unknown #
coedge $-1 -1 $-1 $340 $279 $195 $277 forward $272 $-1 #
edge $-1 -1 $-1 $200 -3.1415926535897931 $338 -1.570796326794897 $276 $341 forward @7 unknown #
convexity-sys-attrib $-1 -1 $-1 $-1 $196 #
coedge $-1 -1 $-1 $276 $340 $197 $280 forward $272 $-1 #
edge $-1 -1 $-1 $342 1.5707963267948968 $200 3.1415926535897931 $279 $341 forward @7 unknown #
coedge $-1 -1 $-1 $337 $274 $198 $282 forward $192 $-1 #
edge $-1 -1 $-1 $201 -6.1230317691118863e-017 $342 1.5707963267948968 $281 $339 forward @7 unknown #
point $-1 -1 $-1 -1.222587624671541 1.2215448379378213e-016 -1.5987684322627835 #
point $-1 -1 $-1 1.5987684322627835 -1.2215448379378206e-016 1.222587624671541 #
face $-1 -1 $-1 $343 $217 $35 $-1 $344 reversed single #
loop $-1 -1 $-1 $-1 $303 $203 #
plane-surface $-1 -1 $-1 0 1.9949999999999999 0 0 -1 0 0 0 -1 forward_v I I I I #
coedge $-1 -1 $-1 $345 $346 $291 $347 forward $204 $-1 #
coedge $-1 -1 $-1 $290 $206 $216 $309 reversed $136 $-1 #
coedge $-1 -1 $-1 $206 $289 $348 $349 reversed $136 $-1 #
coedge $-1 -1 $-1 $208 $207 $288 $347 reversed $95 $-1 #
coedge $-1 -1 $-1 $350 $351 $206 $212 forward $352 $-1 #
coedge $-1 -1 $-1 $353 $209 $351 $354 forward $295 $-1 #
coedge $-1 -1 $-1 $209 $353 $355 $356 forward $295 $-1 #
loop $-1 -1 $-1 $-1 $209 $357 #
ellipse-curve $-1 -1 $-1 1.5987684322627844 0 -1.5987684322627835 0 0 1 2.8213560569343241 -2.4430896758756421e-016 0 0.70710678118654757 I I #
coedge $-1 -1 $-1 $348 $358 $211 $298 forward $359 $-1 #
edge $-1 -1 $-1 $305 -1.570796326794897 $299 1.5707963267948968 $297 $360 forward @7 unknown #
vertex $-1 -1 $-1 $212 $361 #
straight-curve $-1 -1 $-1 -0.18809040379562081 -1.9949999999999997 0.1880904037956217 -0.70710678118654757 0 0.70710678118654757 I I #
coedge $-1 -1 $-1 $302 $213 $358 $362 reversed $304 $-1 #
coedge $-1 -1 $-1 $213 $301 $215 $308 forward $304 $-1 #
coedge $-1 -1 $-1 $355 $363 $207 $214 reversed $286 $-1 #
loop $-1 -1 $-1 $-1 $213 $364 #
vertex $-1 -1 $-1 $362 $365 #
straight-curve $-1 -1 $-1 -0.18809040379562081 1.9949999999999997 0.1880904037956217 -0.70710678118654757 0 0.70710678118654757 I I #
coedge $-1 -1 $-1 $216 $215 $366 $367 reversed $217 $-1 #
edge $-1 -1 $-1 $368 -1.5987684322627835 $219 1.5987684322627835 $215 $369 forward @7 unknown #
edge $-1 -1 $-1 $370 -1.5987684322627835 $218 1.5987684322627835 $216 $371 forward @7 unknown #
point $-1 -1 $-1 1.5987684322627835 -1.9949999999999999 -1.5987684322627835 #
point $-1 -1 $-1 1.5987684322627835 1.9949999999999999 -1.5987684322627835 #
convexity-sys-attrib $-1 -1 $-1 $221 $146 #
point $-1 -1 $-1 -5.3817876246715404 0 3.6854315677372167 #
coedge $-1 -1 $-1 $231 $238 $317 $372 forward $157 $-1 #
vertex $-1 -1 $-1 $372 $373 #
ellipse-curve $-1 -1 $-1 -1.5987684322627826 0 1.5987684322627835 0 0 1 2.8213560569343241 -2.4430896758756421e-016 0 0.70710678118654757 I I #
coedge $-1 -1 $-1 $236 $233 $314 $372 reversed $229 $-1 #
ellipse-curve $-1 -1 $-1 -1.5987684322627835 0 1.5987684322627844 -1 0 0 0 -2.4430896758756421e-016 2.8213560569343241 0.70710678118654757 I I #
vertex $-1 -1 $-1 $237 $374 #
plane-surface $-1 -1 $-1 1.5987684322627835 0 0 -1 0 0 0 0 1 forward_v I I I I #
coedge $-1 -1 $-1 $247 $245 $249 $325 reversed $169 $-1 #
edge $-1 -1 $-1 $260 -1.5987684322627835 $327 1.5987684322627835 $259 $375 forward @7 unknown #
vertex $-1 -1 $-1 $325 $376 #
straight-curve $-1 -1 $-1 -1.5987684322627835 -1.9949999999999999 0 0 0 -1 I I #
edge $-1 -1 $-1 $323 -1.9949999999999999 $327 1.9949999999999999 $321 $377 forward @7 unknown #
straight-curve $-1 -1 $-1 0 -1.9949999999999999 -1.5987684322627835 -1 0 0 I I #
vertex $-1 -1 $-1 $252 $378 #
straight-curve $-1 -1 $-1 0 1.9949999999999999 -1.5987684322627835 1 0 0 I I #
point $-1 -1 $-1 1.5987684322627835 1.9949999999999999 -1.5987684322627835 #
point $-1 -1 $-1 1.5987684322627835 -1.9949999999999999 -1.5987684322627835 #
straight-curve $-1 -1 $-1 -1.5987684322627835 0 1.5987684322627835 0 -1 0 I I #
point $-1 -1 $-1 -1.5987684322627835 1.9949999999999999 1.5987684322627835 #
point $-1 -1 $-1 -1.5987684322627835 -1.9949999999999999 1.5987684322627835 #
straight-curve $-1 -1 $-1 1.5987684322627835 -1.9949999999999999 0 0 0 -1 I I #
straight-curve $-1 -1 $-1 1.5987684322627835 1.9949999999999999 0 0 0 -1 I I #
point $-1 -1 $-1 0.99999999999999989 0 0.26600000000000001 #
coedge $-1 -1 $-1 $274 $281 $340 $379 reversed $192 $-1 #
vertex $-1 -1 $-1 $379 $380 #
ellipse-curve $-1 -1 $-1 1.5987684322627835 0 -1.5987684322627826 1 0 0 0 -2.4430896758756421e-016 2.8213560569343241 0.70710678118654757 I I #
coedge $-1 -1 $-1 $279 $276 $337 $379 forward $272 $-1 #
ellipse-curve $-1 -1 $-1 1.5987684322627844 0 -1.5987684322627835 0 0 -1 2.8213560569343241 -2.4430896758756421e-016 0 0.70710678118654757 I I #
vertex $-1 -1 $-1 $282 $381 #
face $-1 -1 $-1 $357 $359 $35 $-1 $382 forward single #
plane-surface $-1 -1 $-1 1.5987684322627835 0 0 -1 0 0 0 0 1 forward_v I I I I #
coedge $-1 -1 $-1 $383 $288 $363 $384 forward $204 $-1 #
coedge $-1 -1 $-1 $288 $383 $350 $385 reversed $204 $-1 #
edge $-1 -1 $-1 $299 1.5707963267948968 $305 4.7123889803846897 $288 $386 forward @7 unknown #
coedge $-1 -1 $-1 $366 $297 $290 $349 forward $359 $-1 #
edge $-1 -1 $-1 $299 -1.5987684322627835 $370 1.5987684322627835 $290 $387 forward @7 unknown #
coedge $-1 -1 $-1 $351 $292 $346 $385 forward $352 $-1 #
coedge $-1 -1 $-1 $292 $350 $293 $354 reversed $352 $-1 #
loop $-1 -1 $-1 $-1 $292 $388 #
coedge $-1 -1 $-1 $294 $293 $383 $389 forward $295 $-1 #
edge $-1 -1 $-1 $218 -1.5987684322627835 $390 1.5987684322627835 $351 $391 forward @7 unknown #
coedge $-1 -1 $-1 $363 $303 $294 $356 reversed $286 $-1 #
edge $-1 -1 $-1 $392 -1.5987684322627835 $219 1.5987684322627835 $355 $393 forward @7 unknown #
face $-1 -1 $-1 $388 $295 $35 $-1 $394 reversed single #
coedge $-1 -1 $-1 $297 $366 $301 $362 forward $359 $-1 #
loop $-1 -1 $-1 $-1 $297 $343 #
ellipse-curve $-1 -1 $-1 -1.5987684322627826 0 1.5987684322627835 0 0 -1 2.8213560569343241 -2.4430896758756421e-016 0 0.70710678118654757 I I #
point $-1 -1 $-1 -1.5987684322627835 -1.9949999999999999 1.5987684322627835 #
edge $-1 -1 $-1 $368 -1.5987684322627835 $305 1.5987684322627835 $301 $395 forward @7 unknown #
coedge $-1 -1 $-1 $303 $355 $345 $384 reversed $286 $-1 #
face $-1 -1 $-1 $-1 $304 $35 $-1 $287 reversed single #
point $-1 -1 $-1 -1.5987684322627835 1.9949999999999999 1.5987684322627835 #
coedge $-1 -1 $-1 $358 $348 $307 $367 forward $359 $-1 #
edge $-1 -1 $-1 $370 -1.9949999999999999 $368 1.9949999999999999 $307 $396 forward @7 unknown #
vertex $-1 -1 $-1 $367 $397 #
straight-curve $-1 -1 $-1 1.5987684322627835 1.9949999999999999 0 0 0 -1 I I #
vertex $-1 -1 $-1 $367 $398 #
straight-curve $-1 -1 $-1 1.5987684322627835 -1.9949999999999999 0 0 0 -1 I I #
edge $-1 -1 $-1 $319 -1.9949999999999999 $315 1.9949999999999999 $317 $399 forward @7 unknown #
point $-1 -1 $-1 -1.5987684322627835 -1.9949999999999999 1.5987684322627835 #
point $-1 -1 $-1 -1.5987684322627835 1.9949999999999999 1.5987684322627835 #
straight-curve $-1 -1 $-1 -1.5987684322627835 1.9949999999999999 0 0 0 -1 I I #
point $-1 -1 $-1 -1.5987684322627835 -1.9949999999999999 -1.5987684322627835 #
straight-curve $-1 -1 $-1 -1.5987684322627835 0 -1.5987684322627835 0 1 0 I I #
point $-1 -1 $-1 -1.5987684322627835 1.9949999999999999 -1.5987684322627835 #
edge $-1 -1 $-1 $338 -1.9949999999999999 $342 1.9949999999999999 $337 $400 forward @7 unknown #
point $-1 -1 $-1 1.5987684322627835 1.9949999999999999 -1.5987684322627835 #
point $-1 -1 $-1 1.5987684322627835 -1.9949999999999999 -1.5987684322627835 #
plane-surface $-1 -1 $-1 0 0 1.5987684322627835 0 0 1 1 0 0 forward_v I I I I #
coedge $-1 -1 $-1 $346 $345 $353 $389 reversed $204 $-1 #
edge $-1 -1 $-1 $305 -1.5987684322627835 $392 1.5987684322627835 $363 $401 forward @7 unknown #
edge $-1 -1 $-1 $299 -1.5987684322627835 $390 1.5987684322627835 $346 $402 forward @7 unknown #
ellipse-curve $-1 -1 $-1 -1.5987684322627835 0 1.5987684322627844 1 0 0 0 -2.4430896758756421e-016 2.8213560569343241 0.70710678118654757 I I #
straight-curve $-1 -1 $-1 0 -1.9949999999999999 1.5987684322627835 1 0 0 I I #
face $-1 -1 $-1 $364 $352 $35 $-1 $137 reversed single #
edge $-1 -1 $-1 $390 -1.9949999999999999 $392 1.9949999999999999 $383 $403 forward @7 unknown #
vertex $-1 -1 $-1 $389 $404 #
straight-curve $-1 -1 $-1 0 -1.9949999999999999 -1.5987684322627835 -1 0 0 I I #
vertex $-1 -1 $-1 $356 $405 #
straight-curve $-1 -1 $-1 0 1.9949999999999999 -1.5987684322627835 1 0 0 I I #
plane-surface $-1 -1 $-1 0 0 -1.5987684322627835 0 0 1 1 0 0 forward_v I I I I #
straight-curve $-1 -1 $-1 0 1.9949999999999999 1.5987684322627835 -1 0 0 I I #
straight-curve $-1 -1 $-1 1.5987684322627835 0 1.5987684322627835 0 1 0 I I #
point $-1 -1 $-1 1.5987684322627835 1.9949999999999999 1.5987684322627835 #
point $-1 -1 $-1 1.5987684322627835 -1.9949999999999999 1.5987684322627835 #
straight-curve $-1 -1 $-1 -1.5987684322627835 0 1.5987684322627835 0 -1 0 I I #
straight-curve $-1 -1 $-1 1.5987684322627835 0 -1.5987684322627835 0 -1 0 I I #
straight-curve $-1 -1 $-1 -1.5987684322627835 1.9949999999999999 0 0 0 -1 I I #
straight-curve $-1 -1 $-1 -1.5987684322627835 -1.9949999999999999 0 0 0 -1 I I #
straight-curve $-1 -1 $-1 -1.5987684322627835 0 -1.5987684322627835 0 1 0 I I #
point $-1 -1 $-1 -1.5987684322627835 -1.9949999999999999 -1.5987684322627835 #
point $-1 -1 $-1 -1.5987684322627835 1.9949999999999999 -1.5987684322627835 #
End-of-ACIS-data 