600 0 1 0           
89 GICL ACIS Healer - Source: /gicl/data5/repository/CMU/spectrometer/bellow_lower.sat - 6 0 18 ACIS 6.0.3 Solaris 24 Sat Apr 13 00:29:06 2002 
1 9.999999999999999547e-07 1.000000000000000036e-10 
body $-1 $1 $-1 $-1 #
lump $-1 $-1 $2 $0 #
shell $-1 $-1 $-1 $3 $-1 $1 #
face $-1 $4 $5 $2 $-1 $6 reversed single #
face $-1 $7 $8 $2 $-1 $9 forward single #
loop $-1 $10 $11 $3 #
plane-surface $-1 0 -0.001000000000000000021 -3.207999500000000115 0 0 1 -1 0 0 forward_v I I I I #
face $-1 $12 $13 $2 $-1 $14 forward single #
loop $-1 $15 $16 $4 #
plane-surface $-1 0 -0.001000000000000000021 -5.000000000698889835e-07 0 0 1 -1 0 0 forward_v I I I I #
loop $-1 $-1 $17 $3 #
coedge $-1 $11 $11 $18 $19 forward $5 $-1 #
face $-1 $20 $21 $2 $-1 $22 forward single #
loop $-1 $23 $18 $7 #
cone-surface $-1 0 -0.001000000000000000021 -3.207999500000000115 0 0 -1 -1.995000000000000107 0 0 1 I I 0.9876883405951379924 0.1564344650402310077 1.995000000000000107 forward I I I I #
loop $-1 $-1 $24 $4 #
coedge $-1 $16 $16 $25 $26 forward $8 $-1 #
coedge $-1 $17 $17 $27 $28 forward $10 $-1 #
coedge $-1 $18 $18 $11 $19 reversed $13 $-1 #
edge $-1 $29 -3.141592653589793116 $29 3.141592653589793116 $11 $30 forward 7 unknown #
face $-1 $31 $32 $2 $-1 $33 forward single #
loop $-1 $34 $35 $12 #
cone-surface $-1 0 -0.001000000000000000021 -5.000000000698889835e-07 0 0 1 -1.995000000000000107 0 0 1 I I 0.9958014932787080387 0.09153898614194780348 1.995000000000000107 forward I I I I #
loop $-1 $-1 $36 $7 #
coedge $-1 $24 $24 $37 $38 reversed $15 $-1 #
coedge $-1 $25 $25 $16 $26 reversed $34 $-1 #
edge $-1 $39 0 $39 6.283185307179586232 $25 $40 forward 7 unknown #
coedge $-1 $27 $27 $17 $28 reversed $41 $-1 #
edge $-1 $42 -3.141592653589793116 $42 3.141592653589793116 $27 $43 forward 7 unknown #
vertex $-1 $19 $44 #
ellipse-curve $-1 0 -0.001000000000000000021 -3.207999500000000115 0 0 -1 -1.995000000000000107 0 0 1 I I #
face $-1 $45 $46 $2 $-1 $47 forward single #
loop $-1 $48 $49 $20 #
cone-surface $-1 0 -0.001000000000000000021 -0.162701593046720161 0 0 -1 -1.995000000000000107 0 0 1 I I 0.9876883405951379924 0.1564344650402310077 1.995000000000000107 forward I I I I #
loop $-1 $-1 $25 $12 #
coedge $-1 $35 $35 $50 $51 forward $21 $-1 #
coedge $-1 $36 $36 $52 $53 forward $23 $-1 #
coedge $-1 $37 $37 $24 $38 forward $54 $-1 #
edge $-1 $55 0 $55 6.283185307179586232 $37 $56 forward 7 unknown #
vertex $-1 $26 $57 #
ellipse-curve $-1 0 -0.001000000000000000021 -5.000000000698889835e-07 0 0 1 -1.995000000000000107 0 0 1 I I #
loop $-1 $-1 $27 $58 #
vertex $-1 $28 $59 #
ellipse-curve $-1 0 -0.001000000000000000021 -3.207999500000000115 0 0 1 -1.300000000000000044 0 0 1 I I #
point $-1 1.995000000000000107 -0.001000000000000000021 -3.207999500000000115 #
face $-1 $60 $61 $2 $-1 $62 forward single #
loop $-1 $63 $64 $31 #
cone-surface $-1 0 -0.001000000000000000021 -0.162701593046720161 0 0 1 -1.995000000000000107 0 0 1 I I 0.9876883405951379924 0.1564344650402310077 1.995000000000000107 forward I I I I #
loop $-1 $-1 $50 $20 #
coedge $-1 $49 $49 $65 $66 forward $32 $-1 #
coedge $-1 $50 $50 $35 $51 reversed $48 $-1 #
edge $-1 $67 -3.141592653589793116 $67 3.141592653589793116 $50 $68 forward 7 unknown #
coedge $-1 $52 $52 $36 $53 reversed $69 $-1 #
edge $-1 $70 -3.141592653589793116 $70 3.141592653589793116 $52 $71 forward 7 unknown #
loop $-1 $41 $37 $58 #
vertex $-1 $38 $72 #
ellipse-curve $-1 0 -0.001000000000000000021 -5.000000000698889835e-07 0 0 1 1.300000000000000044 0 0 1 I I #
point $-1 -1.995000000000000107 -0.001000000000000000021 -5.000000000698889835e-07 #
face $-1 $-1 $54 $2 $-1 $73 reversed single #
point $-1 1.300000000000000044 -0.001000000000000000021 -3.207999500000000115 #
face $-1 $74 $75 $2 $-1 $76 forward single #
loop $-1 $77 $78 $45 #
cone-surface $-1 0 -0.001000000000000000021 -0.3686013654686199903 0 0 -1 -1.995000000000000107 0 0 1 I I 0.9876883405951379924 0.1564344650402320069 1.995000000000000107 forward I I I I #
loop $-1 $-1 $65 $31 #
coedge $-1 $64 $64 $79 $80 forward $46 $-1 #
coedge $-1 $65 $65 $49 $66 reversed $63 $-1 #
edge $-1 $81 -3.141592653589793116 $81 3.141592653589793116 $65 $82 forward 7 unknown #
vertex $-1 $51 $83 #
ellipse-curve $-1 0 -0.001000000000000000021 -0.05975170683577002428 0 0 1 -1.344999999999999973 0 0 1 I I #
loop $-1 $84 $52 $85 #
vertex $-1 $53 $86 #
ellipse-curve $-1 0 -0.001000000000000000021 -3.105049613789049978 0 0 -1 -1.344999999999999973 0 0 1 I I #
point $-1 1.300000000000000044 -0.001000000000000000021 -5.000000000698889835e-07 #
cone-surface $-1 0 -0.001000000000000000021 -5.000000000698889835e-07 0 0 -1 1.300000000000000044 0 0 1 I I 0 1 1.300000000000000044 forward I I I I #
face $-1 $87 $88 $2 $-1 $89 forward single #
loop $-1 $90 $91 $60 #
cone-surface $-1 0 -0.001000000000000000021 -0.3686013654686199903 0 0 1 -1.995000000000000107 0 0 1 I I 0.9876883405951379924 0.1564344650402320069 1.995000000000000107 forward I I I I #
loop $-1 $-1 $79 $45 #
coedge $-1 $78 $78 $92 $93 forward $61 $-1 #
coedge $-1 $79 $79 $64 $80 reversed $77 $-1 #
edge $-1 $94 -3.141592653589793116 $94 3.141592653589793116 $79 $95 forward 7 unknown #
vertex $-1 $66 $96 #
ellipse-curve $-1 0 -0.001000000000000000021 -0.162701593046720161 0 0 1 -1.995000000000000107 0 0 1 I I #
point $-1 1.344999999999999973 -0.001000000000000000021 -0.05975170683577002428 #
loop $-1 $-1 $97 $85 #
face $-1 $58 $69 $2 $-1 $98 forward single #
point $-1 1.344999999999999973 -0.001000000000000000021 -3.105049613789049978 #
face $-1 $99 $100 $2 $-1 $101 forward single #
loop $-1 $102 $103 $74 #
cone-surface $-1 0 -0.001000000000000000021 -0.5745011378905100496 0 0 -1 -1.995000000000000107 0 0 1 I I 0.9876883405951379924 0.1564344650402310077 1.995000000000000107 forward I I I I #
loop $-1 $-1 $92 $60 #
coedge $-1 $91 $91 $104 $105 forward $75 $-1 #
coedge $-1 $92 $92 $78 $93 reversed $90 $-1 #
edge $-1 $106 -3.141592653589793116 $106 3.141592653589793116 $92 $107 forward 7 unknown #
vertex $-1 $80 $108 #
ellipse-curve $-1 0 -0.001000000000000000021 -0.2656514792576700756 0 0 1 -1.344999999999999973 0 0 1 I I #
point $-1 1.995000000000000107 -0.001000000000000000021 -0.162701593046720161 #
coedge $-1 $97 $97 $109 $110 reversed $84 $-1 #
cone-surface $-1 0 -0.001000000000000000021 -3.002099727578100286 0 0 1 -1.995000000000000107 0 0 1 I I 0.9876883405951379924 0.1564344650402310077 1.995000000000000107 forward I I I I #
face $-1 $111 $112 $2 $-1 $113 forward single #
loop $-1 $114 $115 $87 #
cone-surface $-1 0 -0.001000000000000000021 -0.5745011378905100496 0 0 1 -1.995000000000000107 0 0 1 I I 0.9876883405951379924 0.1564344650402310077 1.995000000000000107 forward I I I I #
loop $-1 $-1 $104 $74 #
coedge $-1 $103 $103 $116 $117 forward $88 $-1 #
coedge $-1 $104 $104 $91 $105 reversed $102 $-1 #
edge $-1 $118 -3.141592653589793116 $118 3.141592653589793116 $104 $119 forward 7 unknown #
vertex $-1 $93 $120 #
ellipse-curve $-1 0 -0.001000000000000000021 -0.3686013654686199903 0 0 1 -1.995000000000000107 0 0 1 I I #
point $-1 1.344999999999999973 -0.001000000000000000021 -0.2656514792576700756 #
coedge $-1 $109 $109 $97 $110 forward $121 $-1 #
edge $-1 $122 -3.141592653589793116 $122 3.141592653589793116 $97 $123 forward 7 unknown #
face $-1 $124 $125 $2 $-1 $126 forward single #
loop $-1 $127 $128 $99 #
cone-surface $-1 0 -0.001000000000000000021 -0.7804009103124111002 0 0 -1 -1.995000000000000107 0 0 1 I I 0.9876883405951379924 0.1564344650402320069 1.995000000000000107 forward I I I I #
loop $-1 $-1 $116 $87 #
coedge $-1 $115 $115 $129 $130 forward $100 $-1 #
coedge $-1 $116 $116 $103 $117 reversed $114 $-1 #
edge $-1 $131 -3.141592653589793116 $131 3.141592653589793116 $116 $132 forward 7 unknown #
vertex $-1 $105 $133 #
ellipse-curve $-1 0 -0.001000000000000000021 -0.471551251679560135 0 0 1 -1.344999999999999973 0 0 1 I I #
point $-1 1.995000000000000107 -0.001000000000000000021 -0.3686013654686199903 #
loop $-1 $134 $109 $135 #
vertex $-1 $110 $136 #
ellipse-curve $-1 0 -0.001000000000000000021 -3.002099727578100286 0 0 1 -1.995000000000000107 0 0 1 I I #
face $-1 $137 $138 $2 $-1 $139 forward single #
loop $-1 $140 $141 $111 #
cone-surface $-1 0 -0.001000000000000000021 -0.7804009103124111002 0 0 1 -1.995000000000000107 0 0 1 I I 0.9876883405951379924 0.1564344650402320069 1.995000000000000107 forward I I I I #
loop $-1 $-1 $129 $99 #
coedge $-1 $128 $128 $142 $143 forward $112 $-1 #
coedge $-1 $129 $129 $115 $130 reversed $127 $-1 #
edge $-1 $144 -3.141592653589793116 $144 3.141592653589793116 $129 $145 forward 7 unknown #
vertex $-1 $117 $146 #
ellipse-curve $-1 0 -0.001000000000000000021 -0.5745011378905100496 0 0 1 -1.995000000000000107 0 0 1 I I #
point $-1 1.344999999999999973 -0.001000000000000000021 -0.471551251679560135 #
loop $-1 $-1 $147 $135 #
face $-1 $85 $121 $2 $-1 $148 forward single #
point $-1 1.995000000000000107 -0.001000000000000000021 -3.002099727578100286 #
face $-1 $149 $150 $2 $-1 $151 forward single #
loop $-1 $152 $153 $124 #
cone-surface $-1 0 -0.001000000000000000021 -0.9863006827343090421 0 0 -1 -1.995000000000000107 0 0 1 I I 0.9876883405951379924 0.1564344650402310077 1.995000000000000107 forward I I I I #
loop $-1 $-1 $142 $111 #
coedge $-1 $141 $141 $154 $155 forward $125 $-1 #
coedge $-1 $142 $142 $128 $143 reversed $140 $-1 #
edge $-1 $156 -3.141592653589793116 $156 3.141592653589793116 $142 $157 forward 7 unknown #
vertex $-1 $130 $158 #
ellipse-curve $-1 0 -0.001000000000000000021 -0.6774510241014630729 0 0 1 -1.344999999999999973 0 0 1 I I #
point $-1 1.995000000000000107 -0.001000000000000000021 -0.5745011378905100496 #
coedge $-1 $147 $147 $159 $160 reversed $134 $-1 #
cone-surface $-1 0 -0.001000000000000000021 -3.002099727578100286 0 0 -1 -1.995000000000000107 0 0 1 I I 0.9876883405951379924 0.1564344650402310077 1.995000000000000107 forward I I I I #
face $-1 $161 $162 $2 $-1 $163 forward single #
loop $-1 $164 $165 $137 #
cone-surface $-1 0 -0.001000000000000000021 -0.9863006827343090421 0 0 1 -1.995000000000000107 0 0 1 I I 0.9876883405951379924 0.1564344650402310077 1.995000000000000107 forward I I I I #
loop $-1 $-1 $154 $124 #
coedge $-1 $153 $153 $166 $167 forward $138 $-1 #
coedge $-1 $154 $154 $141 $155 reversed $152 $-1 #
edge $-1 $168 -3.141592653589793116 $168 3.141592653589793116 $154 $169 forward 7 unknown #
vertex $-1 $143 $170 #
ellipse-curve $-1 0 -0.001000000000000000021 -0.7804009103124111002 0 0 1 -1.995000000000000107 0 0 1 I I #
point $-1 1.344999999999999973 -0.001000000000000000021 -0.6774510241014630729 #
coedge $-1 $159 $159 $147 $160 forward $171 $-1 #
edge $-1 $172 -3.141592653589793116 $172 3.141592653589793116 $147 $173 forward 7 unknown #
face $-1 $174 $175 $2 $-1 $176 forward single #
loop $-1 $177 $178 $149 #
cone-surface $-1 0 -0.001000000000000000021 -1.192200455156205097 0 0 -1 -1.995000000000000107 0 0 1 I I 0.9876883405951379924 0.1564344650402320069 1.995000000000000107 forward I I I I #
loop $-1 $-1 $166 $137 #
coedge $-1 $165 $165 $179 $180 forward $150 $-1 #
coedge $-1 $166 $166 $153 $167 reversed $164 $-1 #
edge $-1 $181 -3.141592653589793116 $181 3.141592653589793116 $166 $182 forward 7 unknown #
vertex $-1 $155 $183 #
ellipse-curve $-1 0 -0.001000000000000000021 -0.8833507965233601267 0 0 1 -1.344999999999999973 0 0 1 I I #
point $-1 1.995000000000000107 -0.001000000000000000021 -0.7804009103124111002 #
loop $-1 $184 $159 $185 #
vertex $-1 $160 $186 #
ellipse-curve $-1 0 -0.001000000000000000021 -2.899149841367150149 0 0 1 -1.344999999999999973 0 0 1 I I #
face $-1 $187 $188 $2 $-1 $189 forward single #
loop $-1 $190 $191 $161 #
cone-surface $-1 0 -0.001000000000000000021 -1.192200455156205097 0 0 1 -1.995000000000000107 0 0 1 I I 0.9876883405951379924 0.1564344650402320069 1.995000000000000107 forward I I I I #
loop $-1 $-1 $179 $149 #
coedge $-1 $178 $178 $192 $193 forward $162 $-1 #
coedge $-1 $179 $179 $165 $180 reversed $177 $-1 #
edge $-1 $194 -3.141592653589793116 $194 3.141592653589793116 $179 $195 forward 7 unknown #
vertex $-1 $167 $196 #
ellipse-curve $-1 0 -0.001000000000000000021 -0.9863006827343090421 0 0 1 -1.995000000000000107 0 0 1 I I #
point $-1 1.344999999999999973 -0.001000000000000000021 -0.8833507965233601267 #
loop $-1 $-1 $197 $185 #
face $-1 $135 $171 $2 $-1 $198 forward single #
point $-1 1.344999999999999973 -0.001000000000000000021 -2.899149841367150149 #
face $-1 $199 $200 $2 $-1 $201 forward single #
loop $-1 $202 $203 $174 #
cone-surface $-1 0 -0.001000000000000000021 -1.39810022757810315 0 0 -1 -1.995000000000000107 0 0 1 I I 0.9876883405951379924 0.1564344650402310077 1.995000000000000107 forward I I I I #
loop $-1 $-1 $192 $161 #
coedge $-1 $191 $191 $204 $205 forward $175 $-1 #
coedge $-1 $192 $192 $178 $193 reversed $190 $-1 #
edge $-1 $206 -3.141592653589793116 $206 3.141592653589793116 $192 $207 forward 7 unknown #
vertex $-1 $180 $208 #
ellipse-curve $-1 0 -0.001000000000000000021 -1.089250568945256958 0 0 1 -1.344999999999999973 0 0 1 I I #
point $-1 1.995000000000000107 -0.001000000000000000021 -0.9863006827343090421 #
coedge $-1 $197 $197 $209 $210 reversed $184 $-1 #
cone-surface $-1 0 -0.001000000000000000021 -2.796199955156209782 0 0 1 -1.995000000000000107 0 0 1 I I 0.9876883405951379924 0.1564344650402310077 1.995000000000000107 forward I I I I #
face $-1 $211 $212 $2 $-1 $213 forward single #
loop $-1 $214 $215 $187 #
cone-surface $-1 0 -0.001000000000000000021 -1.39810022757810315 0 0 1 -1.995000000000000107 0 0 1 I I 0.9876883405951379924 0.1564344650402310077 1.995000000000000107 forward I I I I #
loop $-1 $-1 $204 $174 #
coedge $-1 $203 $203 $216 $217 forward $188 $-1 #
coedge $-1 $204 $204 $191 $205 reversed $202 $-1 #
edge $-1 $218 -3.141592653589793116 $218 3.141592653589793116 $204 $219 forward 7 unknown #
vertex $-1 $193 $220 #
ellipse-curve $-1 0 -0.001000000000000000021 -1.192200455156205097 0 0 1 -1.995000000000000107 0 0 1 I I #
point $-1 1.344999999999999973 -0.001000000000000000021 -1.089250568945256958 #
coedge $-1 $209 $209 $197 $210 forward $221 $-1 #
edge $-1 $222 -3.141592653589793116 $222 3.141592653589793116 $197 $223 forward 7 unknown #
face $-1 $224 $225 $2 $-1 $226 forward single #
loop $-1 $227 $228 $199 #
cone-surface $-1 0 -0.001000000000000000021 -1.604000000000000092 0 0 -1 -1.995000000000000107 0 0 1 I I 0.9876883405951379924 0.1564344650402310077 1.995000000000000107 forward I I I I #
loop $-1 $-1 $216 $187 #
coedge $-1 $215 $215 $229 $230 forward $200 $-1 #
coedge $-1 $216 $216 $203 $217 reversed $214 $-1 #
edge $-1 $231 -3.141592653589793116 $231 3.141592653589793116 $216 $232 forward 7 unknown #
vertex $-1 $205 $233 #
ellipse-curve $-1 0 -0.001000000000000000021 -1.295150341367154123 0 0 1 -1.344999999999999973 0 0 1 I I #
point $-1 1.995000000000000107 -0.001000000000000000021 -1.192200455156205097 #
loop $-1 $234 $209 $235 #
vertex $-1 $210 $236 #
ellipse-curve $-1 0 -0.001000000000000000021 -2.796199955156209782 0 0 1 -1.995000000000000107 0 0 1 I I #
face $-1 $237 $238 $2 $-1 $239 forward single #
loop $-1 $240 $241 $211 #
cone-surface $-1 0 -0.001000000000000000021 -1.604000000000000092 0 0 1 -1.995000000000000107 0 0 1 I I 0.9876883405951379924 0.1564344650402310077 1.995000000000000107 forward I I I I #
loop $-1 $-1 $229 $199 #
coedge $-1 $228 $228 $242 $243 forward $212 $-1 #
coedge $-1 $229 $229 $215 $230 reversed $227 $-1 #
edge $-1 $244 -3.141592653589793116 $244 3.141592653589793116 $229 $245 forward 7 unknown #
vertex $-1 $217 $246 #
ellipse-curve $-1 0 -0.001000000000000000021 -1.39810022757810315 0 0 1 -1.995000000000000107 0 0 1 I I #
point $-1 1.344999999999999973 -0.001000000000000000021 -1.295150341367154123 #
loop $-1 $-1 $247 $235 #
face $-1 $185 $221 $2 $-1 $248 forward single #
point $-1 1.995000000000000107 -0.001000000000000000021 -2.796199955156209782 #
face $-1 $249 $250 $2 $-1 $251 forward single #
loop $-1 $252 $253 $224 #
cone-surface $-1 0 -0.001000000000000000021 -1.809899772421897035 0 0 -1 -1.995000000000000107 0 0 1 I I 0.9876883405951379924 0.1564344650402310077 1.995000000000000107 forward I I I I #
loop $-1 $-1 $242 $211 #
coedge $-1 $241 $241 $254 $255 forward $225 $-1 #
coedge $-1 $242 $242 $228 $243 reversed $240 $-1 #
edge $-1 $256 -3.141592653589793116 $256 3.141592653589793116 $242 $257 forward 7 unknown #
vertex $-1 $230 $258 #
ellipse-curve $-1 0 -0.001000000000000000021 -1.501050113789052176 0 0 1 -1.344999999999999973 0 0 1 I I #
point $-1 1.995000000000000107 -0.001000000000000000021 -1.39810022757810315 #
coedge $-1 $247 $247 $259 $260 reversed $234 $-1 #
cone-surface $-1 0 -0.001000000000000000021 -2.796199955156209782 0 0 -1 -1.995000000000000107 0 0 1 I I 0.9958014932787080387 0.09153898614194780348 1.995000000000000107 forward I I I I #
face $-1 $261 $262 $2 $-1 $263 forward single #
loop $-1 $264 $265 $237 #
cone-surface $-1 0 -0.001000000000000000021 -1.809899772421897035 0 0 1 -1.995000000000000107 0 0 1 I I 0.9876883405951379924 0.1564344650402310077 1.995000000000000107 forward I I I I #
loop $-1 $-1 $254 $224 #
coedge $-1 $253 $253 $266 $267 forward $238 $-1 #
coedge $-1 $254 $254 $241 $255 reversed $252 $-1 #
edge $-1 $268 -3.141592653589793116 $268 3.141592653589793116 $254 $269 forward 7 unknown #
vertex $-1 $243 $270 #
ellipse-curve $-1 0 -0.001000000000000000021 -1.604000000000000092 0 0 1 -1.995000000000000107 0 0 1 I I #
point $-1 1.344999999999999973 -0.001000000000000000021 -1.501050113789052176 #
coedge $-1 $259 $259 $247 $260 forward $271 $-1 #
edge $-1 $272 -3.141592653589793116 $272 3.141592653589793116 $247 $273 forward 7 unknown #
face $-1 $274 $275 $2 $-1 $276 forward single #
loop $-1 $277 $278 $249 #
cone-surface $-1 0 -0.001000000000000000021 -2.015799544843793978 0 0 -1 -1.995000000000000107 0 0 1 I I 0.9876883405951379924 0.1564344650402310077 1.995000000000000107 forward I I I I #
loop $-1 $-1 $266 $237 #
coedge $-1 $265 $265 $279 $280 forward $250 $-1 #
coedge $-1 $266 $266 $253 $267 reversed $264 $-1 #
edge $-1 $281 -3.141592653589793116 $281 3.141592653589793116 $266 $282 forward 7 unknown #
vertex $-1 $255 $283 #
ellipse-curve $-1 0 -0.001000000000000000021 -1.706949886210949119 0 0 1 -1.344999999999999973 0 0 1 I I #
point $-1 1.995000000000000107 -0.001000000000000000021 -1.604000000000000092 #
loop $-1 $284 $259 $285 #
vertex $-1 $260 $286 #
ellipse-curve $-1 0 -0.001000000000000000021 -2.736448748320429836 0 0 1 -1.344999999999999973 0 0 1 I I #
face $-1 $287 $288 $2 $-1 $289 forward single #
loop $-1 $290 $291 $261 #
cone-surface $-1 0 -0.001000000000000000021 -2.015799544843793978 0 0 1 -1.995000000000000107 0 0 1 I I 0.9876883405951379924 0.1564344650402310077 1.995000000000000107 forward I I I I #
loop $-1 $-1 $279 $249 #
coedge $-1 $278 $278 $292 $293 forward $262 $-1 #
coedge $-1 $279 $279 $265 $280 reversed $277 $-1 #
edge $-1 $294 -3.141592653589793116 $294 3.141592653589793116 $279 $295 forward 7 unknown #
vertex $-1 $267 $296 #
ellipse-curve $-1 0 -0.001000000000000000021 -1.809899772421897035 0 0 1 -1.995000000000000107 0 0 1 I I #
point $-1 1.344999999999999973 -0.001000000000000000021 -1.706949886210949119 #
loop $-1 $-1 $297 $285 #
face $-1 $235 $271 $2 $-1 $298 forward single #
point $-1 1.344999999999999973 -0.001000000000000000021 -2.736448748320429836 #
face $-1 $299 $300 $2 $-1 $301 forward single #
loop $-1 $302 $303 $274 #
cone-surface $-1 0 -0.001000000000000000021 -2.221699317265691143 0 0 -1 -1.995000000000000107 0 0 1 I I 0.9876883405951379924 0.1564344650402310077 1.995000000000000107 forward I I I I #
loop $-1 $-1 $292 $261 #
coedge $-1 $291 $291 $304 $305 forward $275 $-1 #
coedge $-1 $292 $292 $278 $293 reversed $290 $-1 #
edge $-1 $306 -3.141592653589793116 $306 3.141592653589793116 $292 $307 forward 7 unknown #
vertex $-1 $280 $308 #
ellipse-curve $-1 0 -0.001000000000000000021 -1.912849658632846062 0 0 1 -1.344999999999999973 0 0 1 I I #
point $-1 1.995000000000000107 -0.001000000000000000021 -1.809899772421897035 #
coedge $-1 $297 $297 $309 $310 reversed $284 $-1 #
cone-surface $-1 0 -0.001000000000000000021 -2.633498862109489913 0 0 1 -1.995000000000000107 0 0 1 I I 0.9876883405951379924 0.1564344650402310077 1.995000000000000107 forward I I I I #
face $-1 $311 $312 $2 $-1 $313 forward single #
loop $-1 $314 $315 $287 #
cone-surface $-1 0 -0.001000000000000000021 -2.221699317265691143 0 0 1 -1.995000000000000107 0 0 1 I I 0.9876883405951379924 0.1564344650402310077 1.995000000000000107 forward I I I I #
loop $-1 $-1 $304 $274 #
coedge $-1 $303 $303 $316 $317 forward $288 $-1 #
coedge $-1 $304 $304 $291 $305 reversed $302 $-1 #
edge $-1 $318 -3.141592653589793116 $318 3.141592653589793116 $304 $319 forward 7 unknown #
vertex $-1 $293 $320 #
ellipse-curve $-1 0 -0.001000000000000000021 -2.015799544843793978 0 0 1 -1.995000000000000107 0 0 1 I I #
point $-1 1.344999999999999973 -0.001000000000000000021 -1.912849658632846062 #
coedge $-1 $309 $309 $297 $310 forward $321 $-1 #
edge $-1 $322 -3.141592653589793116 $322 3.141592653589793116 $297 $323 forward 7 unknown #
face $-1 $324 $325 $2 $-1 $326 forward single #
loop $-1 $327 $328 $299 #
cone-surface $-1 0 -0.001000000000000000021 -2.427599089687587863 0 0 -1 -1.995000000000000107 0 0 1 I I 0.9876883405951379924 0.1564344650402310077 1.995000000000000107 forward I I I I #
loop $-1 $-1 $316 $287 #
coedge $-1 $315 $315 $329 $330 forward $300 $-1 #
coedge $-1 $316 $316 $303 $317 reversed $314 $-1 #
edge $-1 $331 -3.141592653589793116 $331 3.141592653589793116 $316 $332 forward 7 unknown #
vertex $-1 $305 $333 #
ellipse-curve $-1 0 -0.001000000000000000021 -2.118749431054743226 0 0 1 -1.344999999999999973 0 0 1 I I #
point $-1 1.995000000000000107 -0.001000000000000000021 -2.015799544843793978 #
loop $-1 $334 $309 $324 #
vertex $-1 $310 $335 #
ellipse-curve $-1 0 -0.001000000000000000021 -2.633498862109489913 0 0 1 -1.995000000000000107 0 0 1 I I #
face $-1 $285 $321 $2 $-1 $336 forward single #
loop $-1 $337 $338 $311 #
cone-surface $-1 0 -0.001000000000000000021 -2.427599089687587863 0 0 1 -1.995000000000000107 0 0 1 I I 0.9876883405951379924 0.1564344650402310077 1.995000000000000107 forward I I I I #
loop $-1 $-1 $329 $299 #
coedge $-1 $328 $328 $339 $340 forward $312 $-1 #
coedge $-1 $329 $329 $315 $330 reversed $327 $-1 #
edge $-1 $341 -3.141592653589793116 $341 3.141592653589793116 $329 $342 forward 7 unknown #
vertex $-1 $317 $343 #
ellipse-curve $-1 0 -0.001000000000000000021 -2.221699317265691143 0 0 1 -1.995000000000000107 0 0 1 I I #
point $-1 1.344999999999999973 -0.001000000000000000021 -2.118749431054743226 #
loop $-1 $-1 $344 $324 #
point $-1 1.995000000000000107 -0.001000000000000000021 -2.633498862109489913 #
cone-surface $-1 0 -0.001000000000000000021 -2.633498862109489913 0 0 -1 -1.995000000000000107 0 0 1 I I 0.9876883405951379924 0.1564344650402310077 1.995000000000000107 forward I I I I #
loop $-1 $-1 $339 $311 #
coedge $-1 $338 $338 $344 $345 forward $325 $-1 #
coedge $-1 $339 $339 $328 $340 reversed $337 $-1 #
edge $-1 $346 -3.141592653589793116 $346 3.141592653589793116 $339 $347 forward 7 unknown #
vertex $-1 $330 $348 #
ellipse-curve $-1 0 -0.001000000000000000021 -2.324649203476639947 0 0 1 -1.344999999999999973 0 0 1 I I #
point $-1 1.995000000000000107 -0.001000000000000000021 -2.221699317265691143 #
coedge $-1 $344 $344 $338 $345 reversed $334 $-1 #
edge $-1 $349 -3.141592653589793116 $349 3.141592653589793116 $344 $350 forward 7 unknown #
vertex $-1 $340 $351 #
ellipse-curve $-1 0 -0.001000000000000000021 -2.427599089687587863 0 0 1 -1.995000000000000107 0 0 1 I I #
point $-1 1.344999999999999973 -0.001000000000000000021 -2.324649203476639947 #
vertex $-1 $345 $352 #
ellipse-curve $-1 0 -0.001000000000000000021 -2.530548975898537112 0 0 1 -1.344999999999999973 0 0 1 I I #
point $-1 1.995000000000000107 -0.001000000000000000021 -2.427599089687587863 #
point $-1 1.344999999999999973 -0.001000000000000000021 -2.530548975898537112 #
End-of-ACIS-data 