700 0 2 0           
24 FBMach with ACIS - 7.0.3 13 ACIS 7.0.3 NT 24 Mon May 13 16:54:45 2002 
1 9.9999999999999995e-007 1e-010 
body $2 -1 $-1 $3 $-1 $4 #
bdycol-kcp $-1 -1 1 2 $5 $6 #
model_id-kcp-attrib $-1 -1 $-1 $-1 $0 1 1021323284 1021323284 -1892089855 1 #
lump $-1 -1 $-1 $-1 $7 $0 #
transform $-1 -1 1 0 0 0 1 0 0 0 1 0 0 0 1 rotate no_reflect no_shear #
body $8 -1 $-1 $9 $-1 $10 #
body $11 -1 $-1 $12 $-1 $13 #
shell $-1 -1 $-1 $-1 $-1 $14 $-1 $3 #
model_id-kcp-attrib $-1 -1 $-1 $-1 $5 1 1021323284 1021323284 -1892089854 1 #
lump $-1 -1 $-1 $-1 $15 $5 #
transform $-1 -1 1 0 0 0 1 0 0 0 1 0 -0.00099999999999988987 -1.6040000000000001 1 no_rotate no_reflect no_shear #
rgb_color-st-attrib $-1 -1 $16 $-1 $6 0.5 1 1 #
lump $-1 -1 $-1 $-1 $17 $6 #
transform $-1 -1 -1 0 -1.2246063538223773e-016 0 1 0 1.2246063538223773e-016 0 -1 1.9642679792279161e-016 -0.001 -1.6039999999999999 1 rotate no_reflect no_shear #
face $18 -1 $-1 $19 $20 $7 $-1 $21 reversed single #
shell $-1 -1 $-1 $-1 $-1 $22 $-1 $9 #
model_id-kcp-attrib $-1 -1 $-1 $11 $6 1 1021323284 1021323284 -1889468413 1 #
shell $-1 -1 $-1 $-1 $-1 $23 $-1 $12 #
model_id-kcp-attrib $-1 -1 $-1 $-1 $14 1 1021323284 1021323284 -1892089855 2 #
face $24 -1 $-1 $25 $26 $7 $-1 $27 forward single #
loop $-1 -1 $-1 $28 $29 $14 #
plane-surface $-1 -1 $-1 0 -0.001 -3.2079995000000001 0 0 1 -1 0 0 forward_v I I I I #
face $30 -1 $-1 $31 $32 $15 $-1 $33 forward single #
face $-1 -1 $-1 $34 $35 $17 $-1 $36 forward single #
model_id-kcp-attrib $-1 -1 $-1 $-1 $19 1 1021323284 1021323284 -1892089855 3 #
face $37 -1 $-1 $38 $39 $7 $-1 $40 forward single #
loop $-1 -1 $-1 $41 $42 $19 #
plane-surface $-1 -1 $-1 0 -0.001 -5.0000000006988898e-007 0 0 1 -1 0 0 forward_v I I I I #
loop $43 -1 $-1 $-1 $44 $14 #
coedge $-1 -1 $-1 $29 $29 $45 $46 forward $20 $-1 #
model_id-kcp-attrib $-1 -1 $-1 $-1 $22 1 1021323284 1021323284 -1892089854 3 #
face $47 -1 $-1 $48 $49 $15 $-1 $50 reversed single #
loop $-1 -1 $-1 $-1 $51 $22 #
plane-surface $-1 -1 $-1 0 0 1.6039995 0 0 1 1 0 0 forward_v I I I I #
face $-1 -1 $-1 $52 $53 $17 $-1 $54 forward single #
loop $-1 -1 $-1 $55 $56 $23 #
cone-surface $-1 -1 $-1 0 0 0 0 0 1 1.3 0 0 1 I I 0 1 1.3 forward I I I I #
model_id-kcp-attrib $-1 -1 $-1 $-1 $25 1 1021323284 1021323284 -1892089855 4 #
face $57 -1 $-1 $58 $59 $7 $-1 $60 forward single #
loop $-1 -1 $-1 $61 $45 $25 #
cone-surface $-1 -1 $-1 0 -0.001 -3.2079995000000001 0 0 -1 -1.9950000000000001 0 0 1 I I 0.98768834059513799 0.15643446504023101 1.9950000000000001 forward I I I I #
loop $62 -1 $-1 $-1 $63 $19 #
coedge $-1 -1 $-1 $42 $42 $64 $65 forward $26 $-1 #
model_id-kcp-attrib $-1 -1 $-1 $-1 $28 1 1021323284 1021323284 -1892089855 43 #
coedge $-1 -1 $-1 $44 $44 $66 $67 forward $28 $-1 #
coedge $-1 -1 $-1 $45 $45 $29 $46 reversed $39 $-1 #
edge $68 -1 $-1 $69 -3.1415926535897931 $69 3.1415926535897931 $29 $70 forward @7 unknown #
model_id-kcp-attrib $-1 -1 $-1 $-1 $31 1 1021323284 1021323284 -1892089854 2 #
face $-1 -1 $-1 $71 $72 $15 $-1 $73 reversed single #
loop $-1 -1 $-1 $-1 $74 $31 #
plane-surface $-1 -1 $-1 0 0 -1.6039995 0 0 1 1 0 0 forward_v I I I I #
coedge $-1 -1 $-1 $75 $76 $77 $78 forward $32 $-1 #
face $-1 -1 $-1 $-1 $79 $17 $-1 $80 forward single #
loop $-1 -1 $-1 $-1 $81 $34 #
plane-surface $-1 -1 $-1 0 0 -1.6039995 0 0 -1 -1 0 0 forward_v I I I I #
loop $-1 -1 $-1 $-1 $82 $23 #
coedge $-1 -1 $-1 $56 $56 $81 $83 reversed $35 $-1 #
model_id-kcp-attrib $-1 -1 $-1 $-1 $38 1 1021323284 1021323284 -1892089855 5 #
face $84 -1 $-1 $85 $86 $7 $-1 $87 forward single #
loop $-1 -1 $-1 $88 $89 $38 #
cone-surface $-1 -1 $-1 0 -0.001 -5.0000000006988898e-007 0 0 1 -1.9950000000000001 0 0 1 I I 0.99580149327870804 0.091538986141947803 1.9950000000000001 forward I I I I #
loop $-1 -1 $-1 $-1 $90 $25 #
model_id-kcp-attrib $-1 -1 $-1 $-1 $41 1 1021323284 1021323284 -1892089855 42 #
coedge $-1 -1 $-1 $63 $63 $91 $92 reversed $41 $-1 #
coedge $-1 -1 $-1 $64 $64 $42 $65 reversed $88 $-1 #
edge $-1 -1 $-1 $93 0 $93 6.2831853071795862 $64 $94 forward @7 unknown #
coedge $-1 -1 $-1 $66 $66 $44 $67 reversed $95 $-1 #
edge $96 -1 $-1 $97 -3.1415926535897931 $97 3.1415926535897931 $66 $98 forward @7 unknown #
attrib_edge_convexity-kcp-attrib $-1 -1 $99 $-1 $46 1 #
vertex $-1 -1 $-1 $46 $100 #
ellipse-curve $-1 -1 $-1 0 -0.001 -3.2079995000000001 0 0 -1 -1.9950000000000001 0 0 1 I I #
face $-1 -1 $-1 $101 $102 $15 $-1 $103 reversed single #
loop $-1 -1 $-1 $-1 $104 $48 #
plane-surface $-1 -1 $-1 0 -1.9950000000000001 0 0 1 0 0 0 1 forward_v I I I I #
coedge $-1 -1 $-1 $105 $106 $107 $108 forward $49 $-1 #
coedge $-1 -1 $-1 $109 $51 $110 $111 forward $32 $-1 #
coedge $-1 -1 $-1 $51 $109 $112 $113 forward $32 $-1 #
coedge $-1 -1 $-1 $114 $115 $51 $78 reversed $116 $-1 #
edge $-1 -1 $-1 $117 -1.9950000000000001 $118 1.9950000000000001 $77 $119 forward @7 unknown #
loop $-1 -1 $-1 $-1 $120 $52 #
plane-surface $-1 -1 $-1 0 0 1.6039995 0 0 1 1 0 0 forward_v I I I I #
coedge $-1 -1 $-1 $81 $81 $56 $83 forward $53 $-1 #
coedge $-1 -1 $-1 $82 $82 $120 $121 reversed $55 $-1 #
edge $-1 -1 $-1 $122 0 $122 6.2831853071795862 $81 $123 forward @7 unknown #
model_id-kcp-attrib $-1 -1 $-1 $-1 $58 1 1021323284 1021323284 -1892089855 6 #
face $124 -1 $-1 $125 $126 $7 $-1 $127 forward single #
loop $-1 -1 $-1 $128 $129 $58 #
cone-surface $-1 -1 $-1 0 -0.001 -0.16270159304672016 0 0 -1 -1.9950000000000001 0 0 1 I I 0.98768834059513799 0.15643446504023101 1.9950000000000001 forward I I I I #
loop $-1 -1 $-1 $-1 $64 $38 #
coedge $-1 -1 $-1 $89 $89 $130 $131 forward $59 $-1 #
coedge $-1 -1 $-1 $90 $90 $132 $133 forward $61 $-1 #
coedge $-1 -1 $-1 $91 $91 $63 $92 forward $134 $-1 #
edge $135 -1 $-1 $136 0 $136 6.2831853071795862 $91 $137 forward @7 unknown #
vertex $-1 -1 $-1 $65 $138 #
ellipse-curve $-1 -1 $-1 0 -0.001 -5.0000000006988898e-007 0 0 1 -1.9950000000000001 0 0 1 I I #
loop $139 -1 $-1 $-1 $66 $140 #
attrib_edge_convexity-kcp-attrib $-1 -1 $141 $-1 $67 1 #
vertex $142 -1 $-1 $67 $143 #
ellipse-curve $-1 -1 $-1 0 -0.001 -3.2079995000000001 0 0 1 -1.3 0 0 1 I I #
convexity-sys-attrib $-1 -1 $-1 $68 $46 #
point $-1 -1 $-1 1.9950000000000001 -0.001 -3.2079995000000001 #
face $-1 -1 $-1 $144 $145 $15 $-1 $146 reversed single #
loop $-1 -1 $-1 $-1 $147 $71 #
plane-surface $-1 -1 $-1 -1.9950000000000001 0 0 1 0 0 0 0 -1 forward_v I I I I #
coedge $-1 -1 $-1 $148 $112 $149 $150 forward $72 $-1 #
coedge $-1 -1 $-1 $151 $74 $148 $152 forward $49 $-1 #
coedge $-1 -1 $-1 $74 $151 $153 $154 forward $49 $-1 #
coedge $-1 -1 $-1 $115 $114 $74 $108 reversed $116 $-1 #
edge $-1 -1 $-1 $155 -1.9950000000000001 $156 1.9950000000000001 $107 $157 forward @7 unknown #
coedge $-1 -1 $-1 $76 $75 $158 $159 forward $32 $-1 #
coedge $-1 -1 $-1 $160 $161 $75 $111 reversed $145 $-1 #
edge $-1 -1 $-1 $118 -1.9950000000000001 $162 1.9950000000000001 $110 $163 forward @7 unknown #
coedge $-1 -1 $-1 $104 $164 $76 $113 reversed $72 $-1 #
edge $-1 -1 $-1 $165 -1.9950000000000001 $117 1.9950000000000001 $112 $166 forward @7 unknown #
coedge $-1 -1 $-1 $107 $77 $164 $167 forward $116 $-1 #
coedge $-1 -1 $-1 $77 $107 $160 $168 reversed $116 $-1 #
loop $-1 -1 $-1 $-1 $114 $144 #
vertex $-1 -1 $-1 $78 $169 #
vertex $-1 -1 $-1 $78 $170 #
straight-curve $-1 -1 $-1 1.9950000000000001 0 1.6039995 0 1 0 I I #
coedge $-1 -1 $-1 $120 $120 $82 $121 forward $79 $-1 #
edge $-1 -1 $-1 $171 0 $171 6.2831853071795862 $120 $172 forward @7 unknown #
vertex $-1 -1 $-1 $83 $173 #
ellipse-curve $-1 -1 $-1 0 0 -1.6039995 0 0 -1 1.3 0 0 1 I I #
model_id-kcp-attrib $-1 -1 $-1 $-1 $85 1 1021323284 1021323284 -1892089855 7 #
face $174 -1 $-1 $175 $176 $7 $-1 $177 forward single #
loop $-1 -1 $-1 $178 $179 $85 #
cone-surface $-1 -1 $-1 0 -0.001 -0.16270159304672016 0 0 1 -1.9950000000000001 0 0 1 I I 0.98768834059513799 0.15643446504023101 1.9950000000000001 forward I I I I #
loop $-1 -1 $-1 $-1 $130 $58 #
coedge $-1 -1 $-1 $129 $129 $180 $181 forward $86 $-1 #
coedge $-1 -1 $-1 $130 $130 $89 $131 reversed $128 $-1 #
edge $-1 -1 $-1 $182 -3.1415926535897931 $182 3.1415926535897931 $130 $183 forward @7 unknown #
coedge $-1 -1 $-1 $132 $132 $90 $133 reversed $184 $-1 #
edge $-1 -1 $-1 $185 -3.1415926535897931 $185 3.1415926535897931 $132 $186 forward @7 unknown #
loop $187 -1 $-1 $95 $91 $140 #
attrib_edge_convexity-kcp-attrib $-1 -1 $188 $-1 $92 1 #
vertex $189 -1 $-1 $92 $190 #
ellipse-curve $-1 -1 $-1 0 -0.001 -5.0000000006988898e-007 0 0 1 1.3 0 0 1 I I #
point $-1 -1 $-1 -1.9950000000000001 -0.001 -5.0000000006988898e-007 #
model_id-kcp-attrib $-1 -1 $-1 $-1 $95 1 1021323284 1021323284 -1892089855 41 #
face $191 -1 $-1 $-1 $134 $7 $-1 $192 reversed single #
convexity-sys-attrib $-1 -1 $-1 $96 $67 #
model_id-kcp-attrib $-1 -1 $-1 $-1 $97 1 1021323284 1021323284 -1892089855 45 #
point $-1 -1 $-1 1.3 -0.001 -3.2079995000000001 #
face $-1 -1 $-1 $-1 $116 $15 $-1 $193 reversed single #
loop $-1 -1 $-1 $-1 $160 $101 #
plane-surface $-1 -1 $-1 0 1.9950000000000001 0 0 -1 0 0 0 -1 forward_v I I I I #
coedge $-1 -1 $-1 $194 $158 $161 $195 forward $102 $-1 #
coedge $-1 -1 $-1 $164 $104 $105 $152 reversed $72 $-1 #
coedge $-1 -1 $-1 $158 $194 $104 $150 reversed $102 $-1 #
edge $-1 -1 $-1 $165 -1.6039995 $196 1.6039995 $149 $197 forward @7 unknown #
coedge $-1 -1 $-1 $106 $105 $194 $198 forward $49 $-1 #
edge $-1 -1 $-1 $156 -1.9950000000000001 $196 1.9950000000000001 $148 $199 forward @7 unknown #
coedge $-1 -1 $-1 $161 $160 $106 $154 reversed $145 $-1 #
edge $-1 -1 $-1 $200 -1.9950000000000001 $155 1.9950000000000001 $153 $201 forward @7 unknown #
vertex $-1 -1 $-1 $108 $202 #
vertex $-1 -1 $-1 $167 $203 #
straight-curve $-1 -1 $-1 1.9950000000000001 0 -1.6039995 0 -1 0 I I #
coedge $-1 -1 $-1 $147 $149 $109 $159 reversed $102 $-1 #
edge $-1 -1 $-1 $162 -1.9950000000000001 $165 1.9950000000000001 $158 $204 forward @7 unknown #
coedge $-1 -1 $-1 $153 $110 $115 $168 forward $145 $-1 #
coedge $-1 -1 $-1 $110 $153 $147 $195 reversed $145 $-1 #
vertex $-1 -1 $-1 $111 $205 #
straight-curve $-1 -1 $-1 0 1.9950000000000001 1.6039995 -1 0 0 I I #
coedge $-1 -1 $-1 $112 $148 $114 $167 reversed $72 $-1 #
vertex $-1 -1 $-1 $159 $206 #
straight-curve $-1 -1 $-1 0 -1.9950000000000001 1.6039995 1 0 0 I I #
edge $-1 -1 $-1 $117 -1.6039995 $156 1.6039995 $114 $207 forward @7 unknown #
edge $-1 -1 $-1 $118 -1.6039995 $155 1.6039995 $115 $208 forward @7 unknown #
point $-1 -1 $-1 1.9950000000000001 -1.9950000000000001 1.6039995 #
point $-1 -1 $-1 1.9950000000000001 1.9950000000000001 1.6039995 #
vertex $-1 -1 $-1 $121 $209 #
ellipse-curve $-1 -1 $-1 0 0 1.6039995 0 0 1 1.3 0 0 1 I I #
point $-1 -1 $-1 1.3 0 -1.6039995 #
model_id-kcp-attrib $-1 -1 $-1 $-1 $125 1 1021323284 1021323284 -1892089855 8 #
face $210 -1 $-1 $211 $212 $7 $-1 $213 forward single #
loop $-1 -1 $-1 $214 $215 $125 #
cone-surface $-1 -1 $-1 0 -0.001 -0.36860136546861999 0 0 -1 -1.9950000000000001 0 0 1 I I 0.98768834059513799 0.15643446504023201 1.9950000000000001 forward I I I I #
loop $-1 -1 $-1 $-1 $180 $85 #
coedge $-1 -1 $-1 $179 $179 $216 $217 forward $126 $-1 #
coedge $-1 -1 $-1 $180 $180 $129 $181 reversed $178 $-1 #
edge $-1 -1 $-1 $218 -3.1415926535897931 $218 3.1415926535897931 $180 $219 forward @7 unknown #
vertex $-1 -1 $-1 $131 $220 #
ellipse-curve $-1 -1 $-1 0 -0.001 -0.059751706835770024 0 0 1 -1.345 0 0 1 I I #
loop $-1 -1 $-1 $221 $132 $222 #
vertex $-1 -1 $-1 $133 $223 #
ellipse-curve $-1 -1 $-1 0 -0.001 -3.10504961378905 0 0 -1 -1.345 0 0 1 I I #
model_id-kcp-attrib $-1 -1 $-1 $-1 $134 1 1021323284 1021323284 -1892089855 40 #
convexity-sys-attrib $-1 -1 $-1 $135 $92 #
model_id-kcp-attrib $-1 -1 $-1 $-1 $136 1 1021323284 1021323284 -1892089855 44 #
point $-1 -1 $-1 1.3 -0.001 -5.0000000006988898e-007 #
model_id-kcp-attrib $-1 -1 $-1 $-1 $140 1 1021323284 1021323284 -1892089855 36 #
cone-surface $-1 -1 $-1 0 -0.001 -5.0000000006988898e-007 0 0 -1 1.3 0 0 1 I I 0 1 1.3 forward I I I I #
plane-surface $-1 -1 $-1 1.9950000000000001 0 0 -1 0 0 0 0 1 forward_v I I I I #
coedge $-1 -1 $-1 $149 $147 $151 $198 reversed $102 $-1 #
edge $-1 -1 $-1 $162 -1.6039995 $200 1.6039995 $161 $224 forward @7 unknown #
vertex $-1 -1 $-1 $198 $225 #
straight-curve $-1 -1 $-1 -1.9950000000000001 -1.9950000000000001 0 0 0 -1 I I #
edge $-1 -1 $-1 $196 -1.9950000000000001 $200 1.9950000000000001 $194 $226 forward @7 unknown #
straight-curve $-1 -1 $-1 0 -1.9950000000000001 -1.6039995 -1 0 0 I I #
vertex $-1 -1 $-1 $154 $227 #
straight-curve $-1 -1 $-1 0 1.9950000000000001 -1.6039995 1 0 0 I I #
point $-1 -1 $-1 1.9950000000000001 1.9950000000000001 -1.6039995 #
point $-1 -1 $-1 1.9950000000000001 -1.9950000000000001 -1.6039995 #
straight-curve $-1 -1 $-1 -1.9950000000000001 0 1.6039995 0 -1 0 I I #
point $-1 -1 $-1 -1.9950000000000001 1.9950000000000001 1.6039995 #
point $-1 -1 $-1 -1.9950000000000001 -1.9950000000000001 1.6039995 #
straight-curve $-1 -1 $-1 1.9950000000000001 -1.9950000000000001 0 0 0 -1 I I #
straight-curve $-1 -1 $-1 1.9950000000000001 1.9950000000000001 0 0 0 -1 I I #
point $-1 -1 $-1 1.3 0 1.6039995 #
model_id-kcp-attrib $-1 -1 $-1 $-1 $175 1 1021323284 1021323284 -1892089855 9 #
face $228 -1 $-1 $229 $230 $7 $-1 $231 forward single #
loop $-1 -1 $-1 $232 $233 $175 #
cone-surface $-1 -1 $-1 0 -0.001 -0.36860136546861999 0 0 1 -1.9950000000000001 0 0 1 I I 0.98768834059513799 0.15643446504023201 1.9950000000000001 forward I I I I #
loop $-1 -1 $-1 $-1 $216 $125 #
coedge $-1 -1 $-1 $215 $215 $234 $235 forward $176 $-1 #
coedge $-1 -1 $-1 $216 $216 $179 $217 reversed $214 $-1 #
edge $-1 -1 $-1 $236 -3.1415926535897931 $236 3.1415926535897931 $216 $237 forward @7 unknown #
vertex $-1 -1 $-1 $181 $238 #
ellipse-curve $-1 -1 $-1 0 -0.001 -0.16270159304672016 0 0 1 -1.9950000000000001 0 0 1 I I #
point $-1 -1 $-1 1.345 -0.001 -0.059751706835770024 #
loop $-1 -1 $-1 $-1 $239 $222 #
face $240 -1 $-1 $140 $184 $7 $-1 $241 forward single #
point $-1 -1 $-1 1.345 -0.001 -3.10504961378905 #
straight-curve $-1 -1 $-1 -1.9950000000000001 1.9950000000000001 0 0 0 -1 I I #
point $-1 -1 $-1 -1.9950000000000001 -1.9950000000000001 -1.6039995 #
straight-curve $-1 -1 $-1 -1.9950000000000001 0 -1.6039995 0 1 0 I I #
point $-1 -1 $-1 -1.9950000000000001 1.9950000000000001 -1.6039995 #
model_id-kcp-attrib $-1 -1 $-1 $-1 $211 1 1021323284 1021323284 -1892089855 10 #
face $242 -1 $-1 $243 $244 $7 $-1 $245 forward single #
loop $-1 -1 $-1 $246 $247 $211 #
cone-surface $-1 -1 $-1 0 -0.001 -0.57450113789051005 0 0 -1 -1.9950000000000001 0 0 1 I I 0.98768834059513799 0.15643446504023101 1.9950000000000001 forward I I I I #
loop $-1 -1 $-1 $-1 $234 $175 #
coedge $-1 -1 $-1 $233 $233 $248 $249 forward $212 $-1 #
coedge $-1 -1 $-1 $234 $234 $215 $235 reversed $232 $-1 #
edge $-1 -1 $-1 $250 -3.1415926535897931 $250 3.1415926535897931 $234 $251 forward @7 unknown #
vertex $-1 -1 $-1 $217 $252 #
ellipse-curve $-1 -1 $-1 0 -0.001 -0.26565147925767008 0 0 1 -1.345 0 0 1 I I #
point $-1 -1 $-1 1.9950000000000001 -0.001 -0.16270159304672016 #
coedge $-1 -1 $-1 $239 $239 $253 $254 reversed $221 $-1 #
model_id-kcp-attrib $-1 -1 $-1 $-1 $222 1 1021323284 1021323284 -1892089855 35 #
cone-surface $-1 -1 $-1 0 -0.001 -3.0020997275781003 0 0 1 -1.9950000000000001 0 0 1 I I 0.98768834059513799 0.15643446504023101 1.9950000000000001 forward I I I I #
model_id-kcp-attrib $-1 -1 $-1 $-1 $229 1 1021323284 1021323284 -1892089855 11 #
face $255 -1 $-1 $256 $257 $7 $-1 $258 forward single #
loop $-1 -1 $-1 $259 $260 $229 #
cone-surface $-1 -1 $-1 0 -0.001 -0.57450113789051005 0 0 1 -1.9950000000000001 0 0 1 I I 0.98768834059513799 0.15643446504023101 1.9950000000000001 forward I I I I #
loop $-1 -1 $-1 $-1 $248 $211 #
coedge $-1 -1 $-1 $247 $247 $261 $262 forward $230 $-1 #
coedge $-1 -1 $-1 $248 $248 $233 $249 reversed $246 $-1 #
edge $-1 -1 $-1 $263 -3.1415926535897931 $263 3.1415926535897931 $248 $264 forward @7 unknown #
vertex $-1 -1 $-1 $235 $265 #
ellipse-curve $-1 -1 $-1 0 -0.001 -0.36860136546861999 0 0 1 -1.9950000000000001 0 0 1 I I #
point $-1 -1 $-1 1.345 -0.001 -0.26565147925767008 #
coedge $-1 -1 $-1 $253 $253 $239 $254 forward $266 $-1 #
edge $-1 -1 $-1 $267 -3.1415926535897931 $267 3.1415926535897931 $239 $268 forward @7 unknown #
model_id-kcp-attrib $-1 -1 $-1 $-1 $243 1 1021323284 1021323284 -1892089855 12 #
face $269 -1 $-1 $270 $271 $7 $-1 $272 forward single #
loop $-1 -1 $-1 $273 $274 $243 #
cone-surface $-1 -1 $-1 0 -0.001 -0.7804009103124111 0 0 -1 -1.9950000000000001 0 0 1 I I 0.98768834059513799 0.15643446504023201 1.9950000000000001 forward I I I I #
loop $-1 -1 $-1 $-1 $261 $229 #
coedge $-1 -1 $-1 $260 $260 $275 $276 forward $244 $-1 #
coedge $-1 -1 $-1 $261 $261 $247 $262 reversed $259 $-1 #
edge $-1 -1 $-1 $277 -3.1415926535897931 $277 3.1415926535897931 $261 $278 forward @7 unknown #
vertex $-1 -1 $-1 $249 $279 #
ellipse-curve $-1 -1 $-1 0 -0.001 -0.47155125167956013 0 0 1 -1.345 0 0 1 I I #
point $-1 -1 $-1 1.9950000000000001 -0.001 -0.36860136546861999 #
loop $-1 -1 $-1 $280 $253 $281 #
vertex $-1 -1 $-1 $254 $282 #
ellipse-curve $-1 -1 $-1 0 -0.001 -3.0020997275781003 0 0 1 -1.9950000000000001 0 0 1 I I #
model_id-kcp-attrib $-1 -1 $-1 $-1 $256 1 1021323284 1021323284 -1892089855 13 #
face $283 -1 $-1 $284 $285 $7 $-1 $286 forward single #
loop $-1 -1 $-1 $287 $288 $256 #
cone-surface $-1 -1 $-1 0 -0.001 -0.7804009103124111 0 0 1 -1.9950000000000001 0 0 1 I I 0.98768834059513799 0.15643446504023201 1.9950000000000001 forward I I I I #
loop $-1 -1 $-1 $-1 $275 $243 #
coedge $-1 -1 $-1 $274 $274 $289 $290 forward $257 $-1 #
coedge $-1 -1 $-1 $275 $275 $260 $276 reversed $273 $-1 #
edge $-1 -1 $-1 $291 -3.1415926535897931 $291 3.1415926535897931 $275 $292 forward @7 unknown #
vertex $-1 -1 $-1 $262 $293 #
ellipse-curve $-1 -1 $-1 0 -0.001 -0.57450113789051005 0 0 1 -1.9950000000000001 0 0 1 I I #
point $-1 -1 $-1 1.345 -0.001 -0.47155125167956013 #
loop $-1 -1 $-1 $-1 $294 $281 #
face $295 -1 $-1 $222 $266 $7 $-1 $296 forward single #
point $-1 -1 $-1 1.9950000000000001 -0.001 -3.0020997275781003 #
model_id-kcp-attrib $-1 -1 $-1 $-1 $270 1 1021323284 1021323284 -1892089855 14 #
face $297 -1 $-1 $298 $299 $7 $-1 $300 forward single #
loop $-1 -1 $-1 $301 $302 $270 #
cone-surface $-1 -1 $-1 0 -0.001 -0.98630068273430904 0 0 -1 -1.9950000000000001 0 0 1 I I 0.98768834059513799 0.15643446504023101 1.9950000000000001 forward I I I I #
loop $-1 -1 $-1 $-1 $289 $256 #
coedge $-1 -1 $-1 $288 $288 $303 $304 forward $271 $-1 #
coedge $-1 -1 $-1 $289 $289 $274 $290 reversed $287 $-1 #
edge $-1 -1 $-1 $305 -3.1415926535897931 $305 3.1415926535897931 $289 $306 forward @7 unknown #
vertex $-1 -1 $-1 $276 $307 #
ellipse-curve $-1 -1 $-1 0 -0.001 -0.67745102410146307 0 0 1 -1.345 0 0 1 I I #
point $-1 -1 $-1 1.9950000000000001 -0.001 -0.57450113789051005 #
coedge $-1 -1 $-1 $294 $294 $308 $309 reversed $280 $-1 #
model_id-kcp-attrib $-1 -1 $-1 $-1 $281 1 1021323284 1021323284 -1892089855 34 #
cone-surface $-1 -1 $-1 0 -0.001 -3.0020997275781003 0 0 -1 -1.9950000000000001 0 0 1 I I 0.98768834059513799 0.15643446504023101 1.9950000000000001 forward I I I I #
model_id-kcp-attrib $-1 -1 $-1 $-1 $284 1 1021323284 1021323284 -1892089855 15 #
face $310 -1 $-1 $311 $312 $7 $-1 $313 forward single #
loop $-1 -1 $-1 $314 $315 $284 #
cone-surface $-1 -1 $-1 0 -0.001 -0.98630068273430904 0 0 1 -1.9950000000000001 0 0 1 I I 0.98768834059513799 0.15643446504023101 1.9950000000000001 forward I I I I #
loop $-1 -1 $-1 $-1 $303 $270 #
coedge $-1 -1 $-1 $302 $302 $316 $317 forward $285 $-1 #
coedge $-1 -1 $-1 $303 $303 $288 $304 reversed $301 $-1 #
edge $-1 -1 $-1 $318 -3.1415926535897931 $318 3.1415926535897931 $303 $319 forward @7 unknown #
vertex $-1 -1 $-1 $290 $320 #
ellipse-curve $-1 -1 $-1 0 -0.001 -0.7804009103124111 0 0 1 -1.9950000000000001 0 0 1 I I #
point $-1 -1 $-1 1.345 -0.001 -0.67745102410146307 #
coedge $-1 -1 $-1 $308 $308 $294 $309 forward $321 $-1 #
edge $-1 -1 $-1 $322 -3.1415926535897931 $322 3.1415926535897931 $294 $323 forward @7 unknown #
model_id-kcp-attrib $-1 -1 $-1 $-1 $298 1 1021323284 1021323284 -1892089855 16 #
face $324 -1 $-1 $325 $326 $7 $-1 $327 forward single #
loop $-1 -1 $-1 $328 $329 $298 #
cone-surface $-1 -1 $-1 0 -0.001 -1.1922004551562051 0 0 -1 -1.9950000000000001 0 0 1 I I 0.98768834059513799 0.15643446504023201 1.9950000000000001 forward I I I I #
loop $-1 -1 $-1 $-1 $316 $284 #
coedge $-1 -1 $-1 $315 $315 $330 $331 forward $299 $-1 #
coedge $-1 -1 $-1 $316 $316 $302 $317 reversed $314 $-1 #
edge $-1 -1 $-1 $332 -3.1415926535897931 $332 3.1415926535897931 $316 $333 forward @7 unknown #
vertex $-1 -1 $-1 $304 $334 #
ellipse-curve $-1 -1 $-1 0 -0.001 -0.88335079652336013 0 0 1 -1.345 0 0 1 I I #
point $-1 -1 $-1 1.9950000000000001 -0.001 -0.7804009103124111 #
loop $-1 -1 $-1 $335 $308 $336 #
vertex $-1 -1 $-1 $309 $337 #
ellipse-curve $-1 -1 $-1 0 -0.001 -2.8991498413671501 0 0 1 -1.345 0 0 1 I I #
model_id-kcp-attrib $-1 -1 $-1 $-1 $311 1 1021323284 1021323284 -1892089855 17 #
face $338 -1 $-1 $339 $340 $7 $-1 $341 forward single #
loop $-1 -1 $-1 $342 $343 $311 #
cone-surface $-1 -1 $-1 0 -0.001 -1.1922004551562051 0 0 1 -1.9950000000000001 0 0 1 I I 0.98768834059513799 0.15643446504023201 1.9950000000000001 forward I I I I #
loop $-1 -1 $-1 $-1 $330 $298 #
coedge $-1 -1 $-1 $329 $329 $344 $345 forward $312 $-1 #
coedge $-1 -1 $-1 $330 $330 $315 $331 reversed $328 $-1 #
edge $-1 -1 $-1 $346 -3.1415926535897931 $346 3.1415926535897931 $330 $347 forward @7 unknown #
vertex $-1 -1 $-1 $317 $348 #
ellipse-curve $-1 -1 $-1 0 -0.001 -0.98630068273430904 0 0 1 -1.9950000000000001 0 0 1 I I #
point $-1 -1 $-1 1.345 -0.001 -0.88335079652336013 #
loop $-1 -1 $-1 $-1 $349 $336 #
face $350 -1 $-1 $281 $321 $7 $-1 $351 forward single #
point $-1 -1 $-1 1.345 -0.001 -2.8991498413671501 #
model_id-kcp-attrib $-1 -1 $-1 $-1 $325 1 1021323284 1021323284 -1892089855 18 #
face $352 -1 $-1 $353 $354 $7 $-1 $355 forward single #
loop $-1 -1 $-1 $356 $357 $325 #
cone-surface $-1 -1 $-1 0 -0.001 -1.3981002275781031 0 0 -1 -1.9950000000000001 0 0 1 I I 0.98768834059513799 0.15643446504023101 1.9950000000000001 forward I I I I #
loop $-1 -1 $-1 $-1 $344 $311 #
coedge $-1 -1 $-1 $343 $343 $358 $359 forward $326 $-1 #
coedge $-1 -1 $-1 $344 $344 $329 $345 reversed $342 $-1 #
edge $-1 -1 $-1 $360 -3.1415926535897931 $360 3.1415926535897931 $344 $361 forward @7 unknown #
vertex $-1 -1 $-1 $331 $362 #
ellipse-curve $-1 -1 $-1 0 -0.001 -1.089250568945257 0 0 1 -1.345 0 0 1 I I #
point $-1 -1 $-1 1.9950000000000001 -0.001 -0.98630068273430904 #
coedge $-1 -1 $-1 $349 $349 $363 $364 reversed $335 $-1 #
model_id-kcp-attrib $-1 -1 $-1 $-1 $336 1 1021323284 1021323284 -1892089855 33 #
cone-surface $-1 -1 $-1 0 -0.001 -2.7961999551562098 0 0 1 -1.9950000000000001 0 0 1 I I 0.98768834059513799 0.15643446504023101 1.9950000000000001 forward I I I I #
model_id-kcp-attrib $-1 -1 $-1 $-1 $339 1 1021323284 1021323284 -1892089855 19 #
face $365 -1 $-1 $366 $367 $7 $-1 $368 forward single #
loop $-1 -1 $-1 $369 $370 $339 #
cone-surface $-1 -1 $-1 0 -0.001 -1.3981002275781031 0 0 1 -1.9950000000000001 0 0 1 I I 0.98768834059513799 0.15643446504023101 1.9950000000000001 forward I I I I #
loop $-1 -1 $-1 $-1 $358 $325 #
coedge $-1 -1 $-1 $357 $357 $371 $372 forward $340 $-1 #
coedge $-1 -1 $-1 $358 $358 $343 $359 reversed $356 $-1 #
edge $-1 -1 $-1 $373 -3.1415926535897931 $373 3.1415926535897931 $358 $374 forward @7 unknown #
vertex $-1 -1 $-1 $345 $375 #
ellipse-curve $-1 -1 $-1 0 -0.001 -1.1922004551562051 0 0 1 -1.9950000000000001 0 0 1 I I #
point $-1 -1 $-1 1.345 -0.001 -1.089250568945257 #
coedge $-1 -1 $-1 $363 $363 $349 $364 forward $376 $-1 #
edge $-1 -1 $-1 $377 -3.1415926535897931 $377 3.1415926535897931 $349 $378 forward @7 unknown #
model_id-kcp-attrib $-1 -1 $-1 $-1 $353 1 1021323284 1021323284 -1892089855 20 #
face $379 -1 $-1 $380 $381 $7 $-1 $382 forward single #
loop $-1 -1 $-1 $383 $384 $353 #
cone-surface $-1 -1 $-1 0 -0.001 -1.6040000000000001 0 0 -1 -1.9950000000000001 0 0 1 I I 0.98768834059513799 0.15643446504023101 1.9950000000000001 forward I I I I #
loop $-1 -1 $-1 $-1 $371 $339 #
coedge $-1 -1 $-1 $370 $370 $385 $386 forward $354 $-1 #
coedge $-1 -1 $-1 $371 $371 $357 $372 reversed $369 $-1 #
edge $-1 -1 $-1 $387 -3.1415926535897931 $387 3.1415926535897931 $371 $388 forward @7 unknown #
vertex $-1 -1 $-1 $359 $389 #
ellipse-curve $-1 -1 $-1 0 -0.001 -1.2951503413671541 0 0 1 -1.345 0 0 1 I I #
point $-1 -1 $-1 1.9950000000000001 -0.001 -1.1922004551562051 #
loop $-1 -1 $-1 $390 $363 $391 #
vertex $-1 -1 $-1 $364 $392 #
ellipse-curve $-1 -1 $-1 0 -0.001 -2.7961999551562098 0 0 1 -1.9950000000000001 0 0 1 I I #
model_id-kcp-attrib $-1 -1 $-1 $-1 $366 1 1021323284 1021323284 -1892089855 21 #
face $393 -1 $-1 $394 $395 $7 $-1 $396 forward single #
loop $-1 -1 $-1 $397 $398 $366 #
cone-surface $-1 -1 $-1 0 -0.001 -1.6040000000000001 0 0 1 -1.9950000000000001 0 0 1 I I 0.98768834059513799 0.15643446504023101 1.9950000000000001 forward I I I I #
loop $-1 -1 $-1 $-1 $385 $353 #
coedge $-1 -1 $-1 $384 $384 $399 $400 forward $367 $-1 #
coedge $-1 -1 $-1 $385 $385 $370 $386 reversed $383 $-1 #
edge $-1 -1 $-1 $401 -3.1415926535897931 $401 3.1415926535897931 $385 $402 forward @7 unknown #
vertex $-1 -1 $-1 $372 $403 #
ellipse-curve $-1 -1 $-1 0 -0.001 -1.3981002275781031 0 0 1 -1.9950000000000001 0 0 1 I I #
point $-1 -1 $-1 1.345 -0.001 -1.2951503413671541 #
loop $-1 -1 $-1 $-1 $404 $391 #
face $405 -1 $-1 $336 $376 $7 $-1 $406 forward single #
point $-1 -1 $-1 1.9950000000000001 -0.001 -2.7961999551562098 #
model_id-kcp-attrib $-1 -1 $-1 $-1 $380 1 1021323284 1021323284 -1892089855 22 #
face $407 -1 $-1 $408 $409 $7 $-1 $410 forward single #
loop $-1 -1 $-1 $411 $412 $380 #
cone-surface $-1 -1 $-1 0 -0.001 -1.809899772421897 0 0 -1 -1.9950000000000001 0 0 1 I I 0.98768834059513799 0.15643446504023101 1.9950000000000001 forward I I I I #
loop $-1 -1 $-1 $-1 $399 $366 #
coedge $-1 -1 $-1 $398 $398 $413 $414 forward $381 $-1 #
coedge $-1 -1 $-1 $399 $399 $384 $400 reversed $397 $-1 #
edge $-1 -1 $-1 $415 -3.1415926535897931 $415 3.1415926535897931 $399 $416 forward @7 unknown #
vertex $-1 -1 $-1 $386 $417 #
ellipse-curve $-1 -1 $-1 0 -0.001 -1.5010501137890522 0 0 1 -1.345 0 0 1 I I #
point $-1 -1 $-1 1.9950000000000001 -0.001 -1.3981002275781031 #
coedge $-1 -1 $-1 $404 $404 $418 $419 reversed $390 $-1 #
model_id-kcp-attrib $-1 -1 $-1 $-1 $391 1 1021323284 1021323284 -1892089855 32 #
cone-surface $-1 -1 $-1 0 -0.001 -2.7961999551562098 0 0 -1 -1.9950000000000001 0 0 1 I I 0.99580149327870804 0.091538986141947803 1.9950000000000001 forward I I I I #
model_id-kcp-attrib $-1 -1 $-1 $-1 $394 1 1021323284 1021323284 -1892089855 23 #
face $420 -1 $-1 $421 $422 $7 $-1 $423 forward single #
loop $-1 -1 $-1 $424 $425 $394 #
cone-surface $-1 -1 $-1 0 -0.001 -1.809899772421897 0 0 1 -1.9950000000000001 0 0 1 I I 0.98768834059513799 0.15643446504023101 1.9950000000000001 forward I I I I #
loop $-1 -1 $-1 $-1 $413 $380 #
coedge $-1 -1 $-1 $412 $412 $426 $427 forward $395 $-1 #
coedge $-1 -1 $-1 $413 $413 $398 $414 reversed $411 $-1 #
edge $-1 -1 $-1 $428 -3.1415926535897931 $428 3.1415926535897931 $413 $429 forward @7 unknown #
vertex $-1 -1 $-1 $400 $430 #
ellipse-curve $-1 -1 $-1 0 -0.001 -1.6040000000000001 0 0 1 -1.9950000000000001 0 0 1 I I #
point $-1 -1 $-1 1.345 -0.001 -1.5010501137890522 #
coedge $-1 -1 $-1 $418 $418 $404 $419 forward $431 $-1 #
edge $-1 -1 $-1 $432 -3.1415926535897931 $432 3.1415926535897931 $404 $433 forward @7 unknown #
model_id-kcp-attrib $-1 -1 $-1 $-1 $408 1 1021323284 1021323284 -1892089855 24 #
face $434 -1 $-1 $435 $436 $7 $-1 $437 forward single #
loop $-1 -1 $-1 $438 $439 $408 #
cone-surface $-1 -1 $-1 0 -0.001 -2.015799544843794 0 0 -1 -1.9950000000000001 0 0 1 I I 0.98768834059513799 0.15643446504023101 1.9950000000000001 forward I I I I #
loop $-1 -1 $-1 $-1 $426 $394 #
coedge $-1 -1 $-1 $425 $425 $440 $441 forward $409 $-1 #
coedge $-1 -1 $-1 $426 $426 $412 $427 reversed $424 $-1 #
edge $-1 -1 $-1 $442 -3.1415926535897931 $442 3.1415926535897931 $426 $443 forward @7 unknown #
vertex $-1 -1 $-1 $414 $444 #
ellipse-curve $-1 -1 $-1 0 -0.001 -1.7069498862109491 0 0 1 -1.345 0 0 1 I I #
point $-1 -1 $-1 1.9950000000000001 -0.001 -1.6040000000000001 #
loop $-1 -1 $-1 $445 $418 $446 #
vertex $-1 -1 $-1 $419 $447 #
ellipse-curve $-1 -1 $-1 0 -0.001 -2.7364487483204298 0 0 1 -1.345 0 0 1 I I #
model_id-kcp-attrib $-1 -1 $-1 $-1 $421 1 1021323284 1021323284 -1892089855 25 #
face $448 -1 $-1 $449 $450 $7 $-1 $451 forward single #
loop $-1 -1 $-1 $452 $453 $421 #
cone-surface $-1 -1 $-1 0 -0.001 -2.015799544843794 0 0 1 -1.9950000000000001 0 0 1 I I 0.98768834059513799 0.15643446504023101 1.9950000000000001 forward I I I I #
loop $-1 -1 $-1 $-1 $440 $408 #
coedge $-1 -1 $-1 $439 $439 $454 $455 forward $422 $-1 #
coedge $-1 -1 $-1 $440 $440 $425 $441 reversed $438 $-1 #
edge $-1 -1 $-1 $456 -3.1415926535897931 $456 3.1415926535897931 $440 $457 forward @7 unknown #
vertex $-1 -1 $-1 $427 $458 #
ellipse-curve $-1 -1 $-1 0 -0.001 -1.809899772421897 0 0 1 -1.9950000000000001 0 0 1 I I #
point $-1 -1 $-1 1.345 -0.001 -1.7069498862109491 #
loop $-1 -1 $-1 $-1 $459 $446 #
face $460 -1 $-1 $391 $431 $7 $-1 $461 forward single #
point $-1 -1 $-1 1.345 -0.001 -2.7364487483204298 #
model_id-kcp-attrib $-1 -1 $-1 $-1 $435 1 1021323284 1021323284 -1892089855 26 #
face $462 -1 $-1 $463 $464 $7 $-1 $465 forward single #
loop $-1 -1 $-1 $466 $467 $435 #
cone-surface $-1 -1 $-1 0 -0.001 -2.2216993172656911 0 0 -1 -1.9950000000000001 0 0 1 I I 0.98768834059513799 0.15643446504023101 1.9950000000000001 forward I I I I #
loop $-1 -1 $-1 $-1 $454 $421 #
coedge $-1 -1 $-1 $453 $453 $468 $469 forward $436 $-1 #
coedge $-1 -1 $-1 $454 $454 $439 $455 reversed $452 $-1 #
edge $-1 -1 $-1 $470 -3.1415926535897931 $470 3.1415926535897931 $454 $471 forward @7 unknown #
vertex $-1 -1 $-1 $441 $472 #
ellipse-curve $-1 -1 $-1 0 -0.001 -1.9128496586328461 0 0 1 -1.345 0 0 1 I I #
point $-1 -1 $-1 1.9950000000000001 -0.001 -1.809899772421897 #
coedge $-1 -1 $-1 $459 $459 $473 $474 reversed $445 $-1 #
model_id-kcp-attrib $-1 -1 $-1 $-1 $446 1 1021323284 1021323284 -1892089855 31 #
cone-surface $-1 -1 $-1 0 -0.001 -2.6334988621094899 0 0 1 -1.9950000000000001 0 0 1 I I 0.98768834059513799 0.15643446504023101 1.9950000000000001 forward I I I I #
model_id-kcp-attrib $-1 -1 $-1 $-1 $449 1 1021323284 1021323284 -1892089855 27 #
face $475 -1 $-1 $476 $477 $7 $-1 $478 forward single #
loop $-1 -1 $-1 $479 $480 $449 #
cone-surface $-1 -1 $-1 0 -0.001 -2.2216993172656911 0 0 1 -1.9950000000000001 0 0 1 I I 0.98768834059513799 0.15643446504023101 1.9950000000000001 forward I I I I #
loop $-1 -1 $-1 $-1 $468 $435 #
coedge $-1 -1 $-1 $467 $467 $481 $482 forward $450 $-1 #
coedge $-1 -1 $-1 $468 $468 $453 $469 reversed $466 $-1 #
edge $-1 -1 $-1 $483 -3.1415926535897931 $483 3.1415926535897931 $468 $484 forward @7 unknown #
vertex $-1 -1 $-1 $455 $485 #
ellipse-curve $-1 -1 $-1 0 -0.001 -2.015799544843794 0 0 1 -1.9950000000000001 0 0 1 I I #
point $-1 -1 $-1 1.345 -0.001 -1.9128496586328461 #
coedge $-1 -1 $-1 $473 $473 $459 $474 forward $486 $-1 #
edge $-1 -1 $-1 $487 -3.1415926535897931 $487 3.1415926535897931 $459 $488 forward @7 unknown #
model_id-kcp-attrib $-1 -1 $-1 $-1 $463 1 1021323284 1021323284 -1892089855 28 #
face $489 -1 $-1 $490 $491 $7 $-1 $492 forward single #
loop $-1 -1 $-1 $493 $494 $463 #
cone-surface $-1 -1 $-1 0 -0.001 -2.4275990896875879 0 0 -1 -1.9950000000000001 0 0 1 I I 0.98768834059513799 0.15643446504023101 1.9950000000000001 forward I I I I #
loop $-1 -1 $-1 $-1 $481 $449 #
coedge $-1 -1 $-1 $480 $480 $495 $496 forward $464 $-1 #
coedge $-1 -1 $-1 $481 $481 $467 $482 reversed $479 $-1 #
edge $-1 -1 $-1 $497 -3.1415926535897931 $497 3.1415926535897931 $481 $498 forward @7 unknown #
vertex $-1 -1 $-1 $469 $499 #
ellipse-curve $-1 -1 $-1 0 -0.001 -2.1187494310547432 0 0 1 -1.345 0 0 1 I I #
point $-1 -1 $-1 1.9950000000000001 -0.001 -2.015799544843794 #
loop $-1 -1 $-1 $500 $473 $490 #
vertex $-1 -1 $-1 $474 $501 #
ellipse-curve $-1 -1 $-1 0 -0.001 -2.6334988621094899 0 0 1 -1.9950000000000001 0 0 1 I I #
model_id-kcp-attrib $-1 -1 $-1 $-1 $476 1 1021323284 1021323284 -1892089855 29 #
face $502 -1 $-1 $446 $486 $7 $-1 $503 forward single #
loop $-1 -1 $-1 $504 $505 $476 #
cone-surface $-1 -1 $-1 0 -0.001 -2.4275990896875879 0 0 1 -1.9950000000000001 0 0 1 I I 0.98768834059513799 0.15643446504023101 1.9950000000000001 forward I I I I #
loop $-1 -1 $-1 $-1 $495 $463 #
coedge $-1 -1 $-1 $494 $494 $506 $507 forward $477 $-1 #
coedge $-1 -1 $-1 $495 $495 $480 $496 reversed $493 $-1 #
edge $-1 -1 $-1 $508 -3.1415926535897931 $508 3.1415926535897931 $495 $509 forward @7 unknown #
vertex $-1 -1 $-1 $482 $510 #
ellipse-curve $-1 -1 $-1 0 -0.001 -2.2216993172656911 0 0 1 -1.9950000000000001 0 0 1 I I #
point $-1 -1 $-1 1.345 -0.001 -2.1187494310547432 #
loop $-1 -1 $-1 $-1 $511 $490 #
point $-1 -1 $-1 1.9950000000000001 -0.001 -2.6334988621094899 #
model_id-kcp-attrib $-1 -1 $-1 $-1 $490 1 1021323284 1021323284 -1892089855 30 #
cone-surface $-1 -1 $-1 0 -0.001 -2.6334988621094899 0 0 -1 -1.9950000000000001 0 0 1 I I 0.98768834059513799 0.15643446504023101 1.9950000000000001 forward I I I I #
loop $-1 -1 $-1 $-1 $506 $476 #
coedge $-1 -1 $-1 $505 $505 $511 $512 forward $491 $-1 #
coedge $-1 -1 $-1 $506 $506 $494 $507 reversed $504 $-1 #
edge $-1 -1 $-1 $513 -3.1415926535897931 $513 3.1415926535897931 $506 $514 forward @7 unknown #
vertex $-1 -1 $-1 $496 $515 #
ellipse-curve $-1 -1 $-1 0 -0.001 -2.3246492034766399 0 0 1 -1.345 0 0 1 I I #
point $-1 -1 $-1 1.9950000000000001 -0.001 -2.2216993172656911 #
coedge $-1 -1 $-1 $511 $511 $505 $512 reversed $500 $-1 #
edge $-1 -1 $-1 $516 -3.1415926535897931 $516 3.1415926535897931 $511 $517 forward @7 unknown #
vertex $-1 -1 $-1 $507 $518 #
ellipse-curve $-1 -1 $-1 0 -0.001 -2.4275990896875879 0 0 1 -1.9950000000000001 0 0 1 I I #
point $-1 -1 $-1 1.345 -0.001 -2.3246492034766399 #
vertex $-1 -1 $-1 $512 $519 #
ellipse-curve $-1 -1 $-1 0 -0.001 -2.5305489758985371 0 0 1 -1.345 0 0 1 I I #
point $-1 -1 $-1 1.9950000000000001 -0.001 -2.4275990896875879 #
point $-1 -1 $-1 1.345 -0.001 -2.5305489758985371 #
End-of-ACIS-data 