600 0 1 0           
104 GICL ACIS Healer - Source: /gicl/data5/repository/CMU/spectrometer/bellows_attach_ring_26_left.sat - 6 0 18 ACIS 6.0.3 Solaris 24 Sat Apr 13 00:29:10 2002 
1 9.999999999999999547e-07 1.000000000000000036e-10 
body $-1 $1 $-1 $-1 #
lump $-1 $-1 $2 $0 #
shell $-1 $-1 $-1 $3 $-1 $1 #
face $-1 $4 $5 $2 $-1 $6 forward single #
face $-1 $7 $8 $2 $-1 $9 forward single #
loop $-1 $10 $11 $3 #
plane-surface $-1 -4.744699999999999918 0 5.869699999999999918 -0.7071067811865474617 0 0.7071067811865474617 0.7071067811865474617 0 0.7071067811865474617 forward_v I I I I #
face $-1 $12 $13 $2 $-1 $14 reversed single #
loop $-1 $15 $16 $4 #
plane-surface $-1 -4.442765404433344223 0 5.567765404433344223 -0.7071067811865474617 0 0.7071067811865474617 0.7071067811865474617 0 0.7071067811865474617 forward_v I I I I #
loop $-1 $-1 $17 $3 #
coedge $-1 $11 $11 $18 $19 forward $5 $-1 #
face $-1 $20 $21 $2 $-1 $22 reversed single #
loop $-1 $23 $24 $7 #
plane-surface $-1 -4.347305988973159785 0 5.472305988973159785 -0.7071067811865474617 0 0.7071067811865474617 0.7071067811865474617 0 0.7071067811865474617 forward_v I I I I #
loop $-1 $-1 $25 $4 #
coedge $-1 $16 $16 $26 $27 forward $8 $-1 #
coedge $-1 $17 $17 $28 $29 reversed $10 $-1 #
coedge $-1 $18 $18 $11 $19 reversed $30 $-1 #
edge $-1 $31 0 $31 6.283185307179586232 $18 $32 forward 7 unknown #
face $-1 $33 $34 $2 $-1 $35 forward single #
loop $-1 $36 $37 $12 #
plane-surface $-1 -4.36144812459689124 0 5.48644812459689124 -0.7071067811865474617 0 0.7071067811865474617 0.7071067811865474617 0 0.7071067811865474617 forward_v I I I I #
loop $-1 $-1 $38 $7 #
coedge $-1 $24 $24 $39 $40 forward $13 $-1 #
coedge $-1 $25 $25 $41 $42 forward $15 $-1 #
coedge $-1 $26 $26 $16 $27 reversed $43 $-1 #
edge $-1 $44 0 $44 6.283185307179586232 $26 $45 forward 7 unknown #
coedge $-1 $28 $28 $17 $29 forward $46 $-1 #
edge $-1 $47 0 $47 6.283185307179586232 $28 $48 forward 7 unknown #
loop $-1 $-1 $18 $20 #
vertex $-1 $19 $49 #
ellipse-curve $-1 -4.744699999999999918 0 5.869699999999999918 -0.7071067811865474617 0 0.7071067811865474617 0.7071067811865474617 0 0.7071067811865474617 1 I I #
face $-1 $50 $51 $2 $-1 $52 forward single #
loop $-1 $30 $41 $20 #
cone-surface $-1 -4.327436288421818489 0 5.452436288421818489 -0.7071067811865474617 0 0.7071067811865474617 -0.7071067811865474617 0 -0.7071067811865474617 1 I I 0 1 1 forward I I I I #
loop $-1 $-1 $53 $12 #
coedge $-1 $37 $37 $54 $55 forward $21 $-1 #
coedge $-1 $38 $38 $56 $57 forward $23 $-1 #
coedge $-1 $39 $39 $24 $40 reversed $58 $-1 #
edge $-1 $59 0 $59 6.283185307179586232 $39 $60 forward 7 unknown #
coedge $-1 $41 $41 $25 $42 reversed $34 $-1 #
edge $-1 $61 -3.141592653589793116 $61 3.141592653589793116 $25 $62 forward 7 unknown #
loop $-1 $-1 $26 $33 #
vertex $-1 $27 $63 #
ellipse-curve $-1 -4.442765404433344223 0 5.567765404433344223 -0.7071067811865474617 0 0.7071067811865474617 1.410678028467162282 0 1.410678028467162282 1 I I #
loop $-1 $64 $28 $65 #
vertex $-1 $29 $66 #
ellipse-curve $-1 -4.744699999999999918 0 5.869699999999999918 -0.7071067811865474617 0 0.7071067811865474617 0.6629126073623882176 0 0.6629126073623882176 1 I I #
point $-1 -4.037593218813452012 0 6.576806781186547823 #
face $-1 $67 $68 $2 $-1 $69 reversed single #
loop $-1 $43 $70 $33 #
cone-surface $-1 -4.327436288421818489 0 5.452436288421818489 -0.7071067811865474617 0 0.7071067811865474617 -1.410678028467162282 0 -1.410678028467162282 1 I I 0 1 1.995000000000000107 forward I I I I #
coedge $-1 $53 $53 $71 $72 forward $36 $-1 #
coedge $-1 $54 $54 $37 $55 reversed $64 $-1 #
edge $-1 $73 0 $73 6.283185307179586232 $54 $74 forward 7 unknown #
coedge $-1 $56 $56 $38 $57 reversed $75 $-1 #
edge $-1 $76 -3.141592653589793116 $76 3.141592653589793116 $38 $77 forward 7 unknown #
loop $-1 $-1 $39 $78 #
vertex $-1 $40 $79 #
ellipse-curve $-1 -4.347305988973159785 0 5.472305988973159785 -0.7071067811865474617 0 0.7071067811865474617 1.362594767346476887 0 1.362594767346476887 1 I I #
vertex $-1 $42 $80 #
ellipse-curve $-1 -4.442765404433344223 0 5.567765404433344223 0.7071067811865474617 0 -0.7071067811865474617 0.7071067811865474617 0 0.7071067811865474617 1 I I #
point $-1 -3.032087375966181941 0 6.978443432900506949 #
loop $-1 $-1 $54 $65 #
face $-1 $-1 $46 $2 $-1 $81 reversed single #
point $-1 -4.081787392637611589 0 6.532612607362388246 #
face $-1 $78 $75 $2 $-1 $82 forward single #
loop $-1 $83 $84 $50 #
torus-surface $-1 -4.37205472631468961 0 5.49705472631468961 -0.7071067811865474617 0 0.7071067811865474617 1.995000000000000107 0.02500000000000000139 0.7071067811865474617 0 0.7071067811865474617 forward_v I I I I #
coedge $-1 $70 $70 $85 $86 forward $51 $-1 #
coedge $-1 $71 $71 $53 $72 reversed $87 $-1 #
edge $-1 $88 -3.141592653589793116 $88 3.141592653589793116 $53 $89 forward 7 unknown #
vertex $-1 $55 $90 #
ellipse-curve $-1 -4.36144812459689124 0 5.48644812459689124 -0.7071067811865474617 0 0.7071067811865474617 0.6629126073623882176 0 0.6629126073623882176 1 I I #
loop $-1 $91 $56 $67 #
vertex $-1 $57 $92 #
ellipse-curve $-1 -4.347305988973159785 0 5.472305988973159785 0.7071067811865474617 0 -0.7071067811865474617 1.410678028467162282 0 1.410678028467162282 1 I I #
face $-1 $65 $87 $2 $-1 $93 reversed single #
point $-1 -2.984711221626682676 0 6.83490075631963645 #
point $-1 -5.149872185619891241 0 4.860658623246797205 #
cone-surface $-1 -4.327436288421818489 0 5.452436288421818489 -0.7071067811865474617 0 0.7071067811865474617 -0.6629126073623882176 0 -0.6629126073623882176 1 I I 0 1 0.9375 forward I I I I #
cone-surface $-1 -4.327436288421818489 0 5.452436288421818489 -0.7071067811865474617 0 0.7071067811865474617 -1.410678028467162282 0 -1.410678028467162282 1 I I 0 1 1.995000000000000107 forward I I I I #
loop $-1 $-1 $85 $50 #
coedge $-1 $84 $84 $94 $95 forward $68 $-1 #
coedge $-1 $85 $85 $70 $86 reversed $83 $-1 #
edge $-1 $96 -3.141592653589793116 $96 3.141592653589793116 $85 $97 forward 7 unknown #
loop $-1 $58 $71 $78 #
vertex $-1 $72 $98 #
ellipse-curve $-1 -4.361448124596892129 0 5.486448124596892129 0.7071067811865474617 0 -0.7071067811865474617 1.33809986991864327 0 1.33809986991864327 1 I I #
point $-1 -3.698535517234502912 0 6.149360731959279569 #
loop $-1 $-1 $94 $67 #
point $-1 -5.757984017440322511 0 4.061627960505997947 #
cone-surface $-1 -4.347305988973159785 0 5.472305988973159785 0.7071067811865474617 0 -0.7071067811865474617 1.362594767346476887 0 1.362594767346476887 1 I I 0.8660254037844390407 0.4999999999999990008 1.927000000000000046 forward I I I I #
coedge $-1 $94 $94 $84 $95 reversed $91 $-1 #
edge $-1 $99 -3.141592653589793116 $99 3.141592653589793116 $94 $100 forward 7 unknown #
vertex $-1 $86 $101 #
ellipse-curve $-1 -4.389732395844353263 0 5.514732395844353263 -0.7071067811865474617 0 0.7071067811865474617 1.410678028467162282 0 1.410678028467162282 1 I I #
point $-1 -5.699547994515535621 0 4.148348254678248637 #
vertex $-1 $95 $102 #
ellipse-curve $-1 -4.354377056785025957 0 5.479377056785025957 -0.7071067811865474617 0 0.7071067811865474617 1.410678028467162282 0 1.410678028467162282 1 I I #
point $-1 -5.800410424311515101 0 4.104054367377190538 #
point $-1 -5.765055085252187794 0 4.068699028317863231 #
End-of-ACIS-data 