700 0 2 0           
24 FBMach with ACIS - 7.0.3 13 ACIS 7.0.3 NT 24 Mon May 13 16:58:39 2002 
1 9.9999999999999995e-007 1e-010 
body $2 -1 $-1 $3 $-1 $4 #
bdycol-kcp $-1 -1 1 4 $5 $6 $7 $8 #
model_id-kcp-attrib $-1 -1 $-1 $-1 $0 1 1021323519 1021323519 42205185 1 #
lump $-1 -1 $-1 $-1 $9 $0 #
transform $-1 -1 1.0000000000000002 0 0 0 1 0 0 0 1.0000000000000002 -4.4408920985006262e-016 0 -8.8817841970012523e-016 1 rotate no_reflect no_shear #
body $10 -1 $-1 $11 $-1 $12 #
body $13 -1 $-1 $14 $-1 $15 #
body $16 -1 $-1 $17 $-1 $18 #
body $19 -1 $-1 $20 $-1 $21 #
shell $-1 -1 $-1 $-1 $-1 $22 $-1 $3 #
rgb_color-st-attrib $-1 -1 $23 $-1 $5 0.5 1 1 #
lump $-1 -1 $-1 $-1 $24 $5 #
transform $-1 -1 1 0 0 0 1 0 0 0 1 -1.5025999999999999 -4.6870000000000003 5.6327999999999996 1 no_rotate no_reflect no_shear #
model_id-kcp-attrib $-1 -1 $-1 $-1 $6 1 1021323519 1021323519 42205186 1 #
lump $-1 -1 $-1 $-1 $25 $6 #
transform $-1 -1 1 0 0 0 1 0 0 0 1 -1.5025999999999999 -4.6870000000000003 5.6327999999999996 1 no_rotate no_reflect no_shear #
rgb_color-st-attrib $-1 -1 $26 $-1 $7 0.5 1 1 #
lump $-1 -1 $-1 $-1 $27 $7 #
transform $-1 -1 1 0 0 0 -3.8285889215894375e-016 -1 0 1 -3.8285889215894375e-016 -3.0052019100214133 -4.6870000000000003 4.1301980899785864 1 rotate no_reflect no_shear #
rgb_color-st-attrib $-1 -1 $28 $-1 $8 0.5 1 1 #
lump $-1 -1 $-1 $-1 $29 $8 #
transform $-1 -1 1 0 0 0 -3.8285889215894375e-016 -1 0 1 -3.8285889215894375e-016 1.9100214134759597e-006 -4.6870000000000003 7.1354019100214128 1 rotate no_reflect no_shear #
face $30 -1 $-1 $31 $32 $9 $-1 $33 reversed single #
model_id-kcp-attrib $-1 -1 $-1 $10 $5 1 1021323519 1021323519 35258373 1 #
shell $-1 -1 $-1 $-1 $-1 $34 $-1 $11 #
shell $-1 -1 $-1 $-1 $-1 $35 $-1 $14 #
model_id-kcp-attrib $-1 -1 $-1 $16 $7 1 1021323519 1021323519 44826627 1 #
shell $-1 -1 $-1 $-1 $-1 $36 $-1 $17 #
model_id-kcp-attrib $-1 -1 $-1 $19 $8 1 1021323519 1021323519 44826628 1 #
shell $-1 -1 $-1 $-1 $-1 $37 $-1 $20 #
model_id-kcp-attrib $-1 -1 $-1 $-1 $22 1 1021323519 1021323519 42205185 2 #
face $38 -1 $-1 $39 $40 $9 $-1 $41 forward single #
loop $42 -1 $-1 $43 $44 $22 #
plane-surface $-1 -1 $-1 -1.5025999999999999 -4.9370000000000003 5.6327999999999996 0 1 0 0.70710678118654746 0 0.70710678118654746 forward_v I I I I #
face $-1 -1 $-1 $45 $46 $24 $-1 $47 reversed single #
face $-1 -1 $-1 $48 $49 $25 $-1 $50 forward single #
face $-1 -1 $-1 $51 $52 $27 $-1 $53 forward single #
face $-1 -1 $-1 $54 $55 $29 $-1 $56 forward single #
model_id-kcp-attrib $-1 -1 $-1 $-1 $31 1 1021323519 1021323519 42205185 3 #
face $57 -1 $-1 $58 $59 $9 $-1 $60 reversed single #
loop $61 -1 $-1 $62 $63 $31 #
plane-surface $-1 -1 $-1 -1.5025999999999999 -4.4370000000000003 5.6327999999999996 0 1 0 0.70710678118654746 0 0.70710678118654746 forward_v I I I I #
model_id-kcp-attrib $-1 -1 $-1 $-1 $32 1 1021323519 1021323519 42205185 15 #
loop $64 -1 $-1 $65 $66 $22 #
coedge $-1 -1 $-1 $44 $44 $67 $68 forward $32 $-1 #
face $-1 -1 $-1 $69 $70 $24 $-1 $71 reversed single #
loop $-1 -1 $-1 $-1 $72 $34 #
plane-surface $-1 -1 $-1 -2.0329319959113237 -0.25 -0.9722718241315027 -0.70710678118654757 0 0.70710678118654757 0 -1 0 forward_v I I I I #
face $-1 -1 $-1 $73 $74 $25 $-1 $75 reversed single #
loop $-1 -1 $-1 $-1 $76 $35 #
plane-surface $-1 -1 $-1 0 0 2.2526019100214132 0 0 1 1 0 0 forward_v I I I I #
face $-1 -1 $-1 $77 $78 $27 $-1 $79 forward single #
loop $-1 -1 $-1 $80 $81 $36 #
cone-surface $-1 -1 $-1 0 0 0 0 0 1 0.43749999999999994 0 0 1 I I 0 1 0.43749999999999994 forward I I I I #
face $-1 -1 $-1 $82 $83 $29 $-1 $84 forward single #
loop $-1 -1 $-1 $85 $86 $37 #
cone-surface $-1 -1 $-1 0 0 0 0 0 1 0.43749999999999994 0 0 1 I I 0 1 0.43749999999999994 forward I I I I #
model_id-kcp-attrib $-1 -1 $-1 $-1 $39 1 1021323519 1021323519 42205185 4 #
face $87 -1 $-1 $88 $89 $9 $-1 $90 reversed single #
loop $91 -1 $-1 $92 $93 $39 #
cone-surface $-1 -1 $-1 -3.0052019100214133 -4.9370000000000003 4.1301980899785864 0 1 0 0.30935921676911449 0 0.30935921676911449 1 I I 0 1 0.4375 forward I I I I #
model_id-kcp-attrib $-1 -1 $-1 $-1 $40 1 1021323519 1021323519 42205185 14 #
loop $94 -1 $-1 $95 $96 $31 #
coedge $-1 -1 $-1 $63 $63 $93 $97 reversed $40 $-1 #
model_id-kcp-attrib $-1 -1 $-1 $-1 $43 1 1021323519 1021323519 42205185 21 #
loop $-1 -1 $-1 $-1 $98 $22 #
coedge $-1 -1 $-1 $66 $66 $99 $100 forward $43 $-1 #
coedge $-1 -1 $-1 $67 $67 $44 $68 reversed $92 $-1 #
edge $101 -1 $-1 $102 -3.1415926535897931 $102 3.1415926535897931 $67 $103 forward @7 unknown #
face $-1 -1 $-1 $104 $105 $24 $-1 $71 reversed single #
loop $-1 -1 $-1 $-1 $106 $45 #
cone-surface $-1 -1 $-1 -1.5026019100214134 -0.25 -1.5026019100214132 0 -1 0 -0.53033008588991071 0 0.53033008588991026 1 I I 0 1 0.74999999999999978 forward I I I I #
coedge $-1 -1 $-1 $107 $108 $109 $110 reversed $46 $-1 #
face $111 -1 $-1 $112 $113 $25 $-1 $114 reversed single #
loop $-1 -1 $-1 $-1 $115 $48 #
plane-surface $-1 -1 $-1 0 0 -2.2526019100214132 0 0 1 1 0 0 forward_v I I I I #
coedge $-1 -1 $-1 $116 $117 $118 $119 forward $49 $-1 #
face $-1 -1 $-1 $-1 $120 $27 $-1 $121 forward single #
loop $-1 -1 $-1 $-1 $122 $51 #
plane-surface $-1 -1 $-1 0 0 -0.25 0 0 -1 -1 0 0 forward_v I I I I #
loop $-1 -1 $-1 $-1 $123 $36 #
coedge $-1 -1 $-1 $81 $81 $122 $124 reversed $52 $-1 #
face $-1 -1 $-1 $-1 $125 $29 $-1 $126 forward single #
loop $-1 -1 $-1 $-1 $127 $54 #
plane-surface $-1 -1 $-1 0 0 -0.25 0 0 -1 -1 0 0 forward_v I I I I #
loop $-1 -1 $-1 $-1 $128 $37 #
coedge $-1 -1 $-1 $86 $86 $127 $129 reversed $55 $-1 #
model_id-kcp-attrib $-1 -1 $-1 $-1 $58 1 1021323519 1021323519 42205185 5 #
face $130 -1 $-1 $131 $132 $9 $-1 $133 forward single #
loop $134 -1 $-1 $135 $136 $58 #
cone-surface $-1 -1 $-1 1.9100214134759597e-006 -4.9370000000000003 7.1354019100214128 0 1 0 0.30935921676911449 0 0.30935921676911449 1 I I 0 1 0.4375 forward I I I I #
model_id-kcp-attrib $-1 -1 $-1 $-1 $59 1 1021323519 1021323519 42205185 12 #
loop $137 -1 $-1 $-1 $67 $39 #
coedge $-1 -1 $-1 $93 $93 $63 $97 forward $59 $-1 #
model_id-kcp-attrib $-1 -1 $-1 $-1 $62 1 1021323519 1021323519 42205185 20 #
loop $-1 -1 $-1 $-1 $138 $31 #
coedge $-1 -1 $-1 $96 $96 $136 $139 reversed $62 $-1 #
edge $140 -1 $-1 $141 0 $141 6.2831853071795862 $93 $142 forward @7 unknown #
coedge $-1 -1 $-1 $143 $144 $145 $146 forward $65 $-1 #
coedge $-1 -1 $-1 $99 $99 $66 $100 reversed $135 $-1 #
edge $147 -1 $-1 $148 -3.1415926535897931 $148 3.1415926535897931 $99 $149 forward @7 unknown #
attrib_edge_convexity-kcp-attrib $-1 -1 $150 $-1 $68 1 #
vertex $151 -1 $-1 $68 $152 #
ellipse-curve $-1 -1 $-1 -3.0052019100214133 -4.9370000000000003 4.1301980899785864 0 1 0 -0.30935921676911449 0 -0.30935921676911449 1 I I #
face $-1 -1 $-1 $153 $154 $24 $-1 $155 reversed single #
loop $-1 -1 $-1 $-1 $156 $69 #
coedge $-1 -1 $-1 $157 $158 $159 $160 reversed $70 $-1 #
coedge $-1 -1 $-1 $161 $72 $158 $162 forward $46 $-1 #
coedge $-1 -1 $-1 $72 $161 $163 $164 reversed $46 $-1 #
coedge $-1 -1 $-1 $165 $159 $72 $110 forward $166 $-1 #
edge $-1 -1 $-1 $167 -1.0624999999999998 $168 3.1875000000000009 $109 $169 forward @7 unknown #
model_id-kcp-attrib $-1 -1 $-1 $-1 $73 1 1021323519 1021323519 42205186 2 #
face $-1 -1 $-1 $170 $171 $25 $-1 $172 reversed single #
loop $-1 -1 $-1 $-1 $173 $73 #
plane-surface $-1 -1 $-1 0 -0.25 0 0 1 0 0 0 1 forward_v I I I I #
coedge $-1 -1 $-1 $174 $175 $176 $177 forward $74 $-1 #
coedge $-1 -1 $-1 $178 $76 $179 $180 forward $49 $-1 #
coedge $-1 -1 $-1 $76 $178 $181 $182 forward $49 $-1 #
coedge $-1 -1 $-1 $183 $184 $76 $119 reversed $185 $-1 #
edge $-1 -1 $-1 $186 -0.25 $187 0.25 $118 $188 forward @7 unknown #
loop $-1 -1 $-1 $-1 $189 $77 #
plane-surface $-1 -1 $-1 0 0 0.25 0 0 1 1 0 0 forward_v I I I I #
coedge $-1 -1 $-1 $122 $122 $81 $124 forward $78 $-1 #
coedge $-1 -1 $-1 $123 $123 $189 $190 reversed $80 $-1 #
edge $-1 -1 $-1 $191 0 $191 6.2831853071795862 $122 $192 forward @7 unknown #
loop $-1 -1 $-1 $-1 $193 $82 #
plane-surface $-1 -1 $-1 0 0 0.25 0 0 1 1 0 0 forward_v I I I I #
coedge $-1 -1 $-1 $127 $127 $86 $129 forward $83 $-1 #
coedge $-1 -1 $-1 $128 $128 $193 $194 reversed $85 $-1 #
edge $-1 -1 $-1 $195 0 $195 6.2831853071795862 $127 $196 forward @7 unknown #
model_id-kcp-attrib $-1 -1 $-1 $-1 $88 1 1021323519 1021323519 42205185 6 #
face $197 -1 $-1 $198 $199 $9 $-1 $200 forward single #
loop $-1 -1 $-1 $-1 $145 $88 #
cone-surface $-1 -1 $-1 1.9100214134759597e-006 -4.9370000000000003 7.1354019100214128 0 1 0 0.5303300858899106 0 0.5303300858899106 1 I I 0 1 0.75 forward I I I I #
model_id-kcp-attrib $-1 -1 $-1 $-1 $89 1 1021323519 1021323519 42205185 18 #
loop $201 -1 $-1 $-1 $99 $58 #
coedge $-1 -1 $-1 $136 $136 $96 $139 forward $89 $-1 #
model_id-kcp-attrib $-1 -1 $-1 $-1 $92 1 1021323519 1021323519 42205185 13 #
coedge $-1 -1 $-1 $202 $203 $204 $205 reversed $95 $-1 #
edge $206 -1 $-1 $207 0 $207 6.2831853071795862 $136 $208 forward @7 unknown #
attrib_edge_convexity-kcp-attrib $-1 -1 $209 $-1 $97 1 #
vertex $210 -1 $-1 $97 $211 #
ellipse-curve $-1 -1 $-1 -3.0052019100214133 -4.4370000000000003 4.1301980899785864 0 1 0 0.30935921676911449 0 0.30935921676911449 1 I I #
coedge $-1 -1 $-1 $212 $98 $213 $214 forward $65 $-1 #
coedge $-1 -1 $-1 $98 $212 $215 $216 forward $65 $-1 #
coedge $-1 -1 $-1 $217 $218 $98 $146 reversed $132 $-1 #
edge $219 -1 $-1 $220 -3.1415926535897931 $221 -7.894919286223331e-016 $145 $222 forward @7 unknown #
attrib_edge_convexity-kcp-attrib $-1 -1 $223 $-1 $100 1 #
vertex $224 -1 $-1 $100 $225 #
ellipse-curve $-1 -1 $-1 1.9100214134759597e-006 -4.9370000000000003 7.1354019100214128 0 1 0 -0.30935921676911449 0 -0.30935921676911449 1 I I #
convexity-sys-attrib $-1 -1 $-1 $101 $68 #
model_id-kcp-attrib $-1 -1 $-1 $-1 $102 1 1021323519 1021323519 42205185 17 #
point $-1 -1 $-1 -2.695842693252299 -4.9370000000000003 4.4395573067477008 #
face $-1 -1 $-1 $226 $227 $24 $-1 $155 reversed single #
loop $-1 -1 $-1 $-1 $228 $104 #
cone-surface $-1 -1 $-1 1.5026019100214134 -0.25 1.5026019100214132 0 -1 0 0.53033008588991071 0 -0.53033008588991049 1 I I 0 1 0.74999999999999989 forward I I I I #
coedge $-1 -1 $-1 $229 $230 $231 $232 reversed $105 $-1 #
coedge $-1 -1 $-1 $233 $106 $234 $235 reversed $70 $-1 #
coedge $-1 -1 $-1 $106 $233 $107 $162 reversed $70 $-1 #
coedge $-1 -1 $-1 $109 $236 $106 $160 forward $166 $-1 #
edge $-1 -1 $-1 $237 -0.78539816339744795 $167 5.9211894646675062e-016 $159 $238 forward @7 unknown #
coedge $-1 -1 $-1 $108 $107 $239 $240 reversed $46 $-1 #
edge $-1 -1 $-1 $167 0 $241 0.5 $158 $242 forward @7 unknown #
coedge $-1 -1 $-1 $243 $244 $108 $164 forward $227 $-1 #
edge $-1 -1 $-1 $168 0 $245 0.5 $108 $246 forward @7 unknown #
coedge $-1 -1 $-1 $247 $109 $244 $248 forward $166 $-1 #
loop $-1 -1 $-1 $-1 $159 $249 #
vertex $-1 -1 $-1 $160 $250 #
vertex $-1 -1 $-1 $110 $251 #
straight-curve $-1 -1 $-1 -1.2816310409006171 -0.25 -0.22097086912079611 0.70710678118654757 0 0.70710678118654757 I I #
face $252 -1 $-1 $253 $254 $25 $-1 $255 reversed single #
loop $-1 -1 $-1 $-1 $256 $112 #
plane-surface $-1 -1 $-1 -2.2526019100214132 0 0 1 0 0 0 0 -1 forward_v I I I I #
coedge $-1 -1 $-1 $257 $181 $258 $259 forward $113 $-1 #
coedge $-1 -1 $-1 $260 $115 $257 $261 forward $74 $-1 #
coedge $-1 -1 $-1 $115 $260 $262 $263 forward $74 $-1 #
coedge $-1 -1 $-1 $184 $183 $115 $177 reversed $185 $-1 #
edge $-1 -1 $-1 $264 -0.25 $265 0.25 $176 $266 forward @7 unknown #
coedge $-1 -1 $-1 $117 $116 $267 $268 forward $49 $-1 #
coedge $-1 -1 $-1 $269 $270 $116 $180 reversed $254 $-1 #
edge $-1 -1 $-1 $187 -2.2526019100214132 $271 2.2526019100214132 $179 $272 forward @7 unknown #
coedge $-1 -1 $-1 $173 $273 $117 $182 reversed $113 $-1 #
edge $-1 -1 $-1 $274 -2.2526019100214132 $186 2.2526019100214132 $181 $275 forward @7 unknown #
coedge $-1 -1 $-1 $176 $118 $273 $276 forward $185 $-1 #
coedge $-1 -1 $-1 $118 $176 $269 $277 reversed $185 $-1 #
loop $-1 -1 $-1 $-1 $183 $253 #
vertex $-1 -1 $-1 $119 $278 #
vertex $-1 -1 $-1 $119 $279 #
straight-curve $-1 -1 $-1 2.2526019100214132 0 2.2526019100214132 0 1 0 I I #
coedge $-1 -1 $-1 $189 $189 $123 $190 forward $120 $-1 #
edge $-1 -1 $-1 $280 0 $280 6.2831853071795862 $189 $281 forward @7 unknown #
vertex $-1 -1 $-1 $124 $282 #
ellipse-curve $-1 -1 $-1 0 0 -0.25 0 0 -1 0.43749999999999994 0 0 1 I I #
coedge $-1 -1 $-1 $193 $193 $128 $194 forward $125 $-1 #
edge $-1 -1 $-1 $283 0 $283 6.2831853071795862 $193 $284 forward @7 unknown #
vertex $-1 -1 $-1 $129 $285 #
ellipse-curve $-1 -1 $-1 0 0 -0.25 0 0 -1 0.43749999999999994 0 0 1 I I #
model_id-kcp-attrib $-1 -1 $-1 $-1 $131 1 1021323519 1021323519 42205185 7 #
face $286 -1 $-1 $287 $288 $9 $-1 $289 forward single #
loop $-1 -1 $-1 $-1 $215 $131 #
plane-surface $-1 -1 $-1 0.53033199591132418 -4.9370000000000003 6.6050718241315023 0.70710678118654757 0 -0.70710678118654757 0 1 0 forward_v I I I I #
model_id-kcp-attrib $-1 -1 $-1 $-1 $135 1 1021323519 1021323519 42205185 19 #
coedge $-1 -1 $-1 $290 $138 $291 $292 reversed $95 $-1 #
coedge $-1 -1 $-1 $138 $290 $293 $294 reversed $95 $-1 #
coedge $-1 -1 $-1 $218 $217 $138 $205 forward $132 $-1 #
edge $-1 -1 $-1 $295 -3.1415926535897931 $296 -7.894919286223331e-016 $204 $297 forward @7 unknown #
attrib_edge_convexity-kcp-attrib $-1 -1 $298 $-1 $139 1 #
vertex $299 -1 $-1 $139 $300 #
ellipse-curve $-1 -1 $-1 1.9100214134759597e-006 -4.4370000000000003 7.1354019100214128 0 1 0 0.30935921676911449 0 0.30935921676911449 1 I I #
convexity-sys-attrib $-1 -1 $-1 $140 $97 #
model_id-kcp-attrib $-1 -1 $-1 $-1 $141 1 1021323519 1021323519 42205185 16 #
point $-1 -1 $-1 -2.695842693252299 -4.4370000000000003 4.4395573067477008 #
coedge $-1 -1 $-1 $144 $143 $301 $302 forward $65 $-1 #
coedge $-1 -1 $-1 $303 $304 $143 $214 reversed $305 $-1 #
edge $306 -1 $-1 $221 -4.2500000000000009 $307 0 $213 $308 forward @7 unknown #
coedge $-1 -1 $-1 $309 $310 $144 $216 reversed $199 $-1 #
edge $311 -1 $-1 $312 -4.2500000000000009 $220 0 $215 $313 forward @7 unknown #
coedge $-1 -1 $-1 $204 $145 $310 $314 reversed $132 $-1 #
coedge $-1 -1 $-1 $145 $204 $303 $315 forward $132 $-1 #
attrib_edge_convexity-kcp-attrib $-1 -1 $316 $-1 $146 1 #
vertex $-1 -1 $-1 $314 $317 #
vertex $-1 -1 $-1 $315 $318 #
ellipse-curve $-1 -1 $-1 1.9100214134759597e-006 -4.9370000000000003 7.1354019100214128 0 -1 0 -0.5303300858899106 0 0.5303300858899106 1 I I #
convexity-sys-attrib $-1 -1 $-1 $147 $100 #
model_id-kcp-attrib $-1 -1 $-1 $-1 $148 1 1021323519 1021323519 42205185 23 #
point $-1 -1 $-1 0.30936112679052785 -4.9370000000000003 7.4447611267905272 #
face $-1 -1 $-1 $319 $320 $24 $-1 $71 reversed single #
loop $-1 -1 $-1 $-1 $244 $153 #
coedge $-1 -1 $-1 $321 $322 $323 $324 reversed $154 $-1 #
coedge $-1 -1 $-1 $325 $156 $326 $327 forward $105 $-1 #
coedge $-1 -1 $-1 $156 $325 $328 $329 forward $105 $-1 #
coedge $-1 -1 $-1 $330 $331 $156 $232 forward $332 $-1 #
edge $-1 -1 $-1 $333 -3.1415926535897918 $334 -2.3561944901923444 $231 $238 forward @7 unknown #
coedge $-1 -1 $-1 $158 $157 $335 $336 reversed $70 $-1 #
coedge $-1 -1 $-1 $337 $338 $339 $235 forward $340 $-1 #
edge $-1 -1 $-1 $341 -0.5 $237 0 $234 $342 forward @7 unknown #
coedge $-1 -1 $-1 $159 $247 $337 $343 forward $166 $-1 #
vertex $-1 -1 $-1 $344 $345 #
ellipse-curve $-1 -1 $-1 -1.5026019100214134 -0.25 -1.5026019100214132 0 1 0 -0.53033008588991071 0 0.53033008588991026 1 I I #
coedge $-1 -1 $-1 $335 $346 $161 $240 forward $347 $-1 #
edge $-1 -1 $-1 $245 -3.1875000000000009 $241 1.0624999999999998 $239 $348 forward @7 unknown #
vertex $-1 -1 $-1 $336 $349 #
straight-curve $-1 -1 $-1 -2.0329319959113237 -0.25 -0.9722718241315027 0 1 0 I I #
coedge $-1 -1 $-1 $350 $163 $346 $351 reversed $227 $-1 #
coedge $-1 -1 $-1 $163 $350 $165 $248 reversed $227 $-1 #
vertex $-1 -1 $-1 $240 $352 #
straight-curve $-1 -1 $-1 0.97227182413150359 -0.25 2.0329319959113246 0 1 0 I I #
coedge $-1 -1 $-1 $236 $165 $353 $354 reversed $166 $-1 #
edge $-1 -1 $-1 $168 -3.1415926535897913 $355 -2.3561944901923448 $165 $356 forward @7 unknown #
face $-1 -1 $-1 $357 $166 $24 $-1 $358 reversed single #
point $-1 -1 $-1 -2.0329319959113237 -0.25 -0.9722718241315027 #
point $-1 -1 $-1 0.97227182413150359 -0.25 2.0329319959113246 #
model_id-kcp-attrib $-1 -1 $-1 $-1 $170 1 1021323519 1021323519 42205186 3 #
face $-1 -1 $-1 $-1 $185 $25 $-1 $359 reversed single #
loop $-1 -1 $-1 $-1 $269 $170 #
plane-surface $-1 -1 $-1 0 0.25 0 0 -1 0 0 0 -1 forward_v I I I I #
coedge $-1 -1 $-1 $360 $267 $270 $361 forward $171 $-1 #
coedge $-1 -1 $-1 $273 $173 $174 $261 reversed $113 $-1 #
coedge $-1 -1 $-1 $267 $360 $173 $259 reversed $171 $-1 #
edge $-1 -1 $-1 $274 -2.2526019100214132 $362 2.2526019100214132 $258 $363 forward @7 unknown #
coedge $-1 -1 $-1 $175 $174 $360 $364 forward $74 $-1 #
edge $-1 -1 $-1 $265 -2.2526019100214132 $362 2.2526019100214132 $257 $365 forward @7 unknown #
coedge $-1 -1 $-1 $270 $269 $175 $263 reversed $254 $-1 #
edge $-1 -1 $-1 $366 -2.2526019100214132 $264 2.2526019100214132 $262 $367 forward @7 unknown #
vertex $-1 -1 $-1 $177 $368 #
vertex $-1 -1 $-1 $276 $369 #
straight-curve $-1 -1 $-1 2.2526019100214132 0 -2.2526019100214132 0 -1 0 I I #
coedge $-1 -1 $-1 $256 $258 $178 $268 reversed $171 $-1 #
edge $-1 -1 $-1 $271 -0.25 $274 0.25 $267 $370 forward @7 unknown #
coedge $-1 -1 $-1 $262 $179 $184 $277 forward $254 $-1 #
coedge $-1 -1 $-1 $179 $262 $256 $361 reversed $254 $-1 #
vertex $-1 -1 $-1 $180 $371 #
straight-curve $-1 -1 $-1 0 0.25 2.2526019100214132 -1 0 0 I I #
coedge $-1 -1 $-1 $181 $257 $183 $276 reversed $113 $-1 #
vertex $-1 -1 $-1 $268 $372 #
straight-curve $-1 -1 $-1 0 -0.25 2.2526019100214132 1 0 0 I I #
edge $-1 -1 $-1 $186 -2.2526019100214132 $265 2.2526019100214132 $183 $373 forward @7 unknown #
edge $-1 -1 $-1 $187 -2.2526019100214132 $264 2.2526019100214132 $184 $374 forward @7 unknown #
point $-1 -1 $-1 2.2526019100214132 -0.25 2.2526019100214132 #
point $-1 -1 $-1 2.2526019100214132 0.25 2.2526019100214132 #
vertex $-1 -1 $-1 $190 $375 #
ellipse-curve $-1 -1 $-1 0 0 0.25 0 0 1 0.43749999999999994 0 0 1 I I #
point $-1 -1 $-1 0.43749999999999994 0 -0.25 #
vertex $-1 -1 $-1 $194 $376 #
ellipse-curve $-1 -1 $-1 0 0 0.25 0 0 1 0.43749999999999994 0 0 1 I I #
point $-1 -1 $-1 0.43749999999999994 0 -0.25 #
model_id-kcp-attrib $-1 -1 $-1 $-1 $198 1 1021323519 1021323519 42205185 8 #
face $377 -1 $-1 $-1 $305 $9 $-1 $378 forward single #
loop $-1 -1 $-1 $-1 $301 $198 #
cone-surface $-1 -1 $-1 -3.0052019100214133 -4.9370000000000003 4.1301980899785864 0 1 0 0.5303300858899106 0 0.5303300858899106 1 I I 0 1 0.75 forward I I I I #
coedge $-1 -1 $-1 $203 $202 $379 $380 reversed $95 $-1 #
coedge $-1 -1 $-1 $310 $309 $202 $292 forward $199 $-1 #
edge $381 -1 $-1 $382 -4.2500000000000009 $295 0 $291 $383 forward @7 unknown #
coedge $-1 -1 $-1 $304 $303 $203 $294 forward $305 $-1 #
edge $-1 -1 $-1 $296 -4.2500000000000009 $384 0 $293 $385 forward @7 unknown #
vertex $-1 -1 $-1 $314 $386 #
vertex $-1 -1 $-1 $315 $387 #
ellipse-curve $-1 -1 $-1 1.9100214134759597e-006 -4.4370000000000003 7.1354019100214128 0 -1 0 -0.5303300858899106 0 0.5303300858899106 1 I I #
convexity-sys-attrib $-1 -1 $-1 $206 $139 #
model_id-kcp-attrib $-1 -1 $-1 $-1 $207 1 1021323519 1021323519 42205185 22 #
point $-1 -1 $-1 0.30936112679052785 -4.4370000000000003 7.4447611267905272 #
coedge $-1 -1 $-1 $388 $389 $212 $302 reversed $288 $-1 #
edge $390 -1 $-1 $307 -3.1415926535897931 $312 -3.9474596431116675e-016 $301 $391 forward @7 unknown #
coedge $-1 -1 $-1 $293 $213 $218 $315 reversed $305 $-1 #
coedge $-1 -1 $-1 $213 $293 $388 $392 forward $305 $-1 #
loop $-1 -1 $-1 $-1 $213 $287 #
attrib_edge_convexity-kcp-attrib $-1 -1 $393 $-1 $214 1 #
vertex $-1 -1 $-1 $392 $394 #
straight-curve $-1 -1 $-1 -3.5355319959113238 -4.9370000000000003 4.6605281758684969 -0.70710678118654746 0 -0.70710678118654746 I I #
coedge $-1 -1 $-1 $291 $215 $389 $395 reversed $199 $-1 #
coedge $-1 -1 $-1 $215 $291 $217 $314 forward $199 $-1 #
attrib_edge_convexity-kcp-attrib $-1 -1 $396 $-1 $216 1 #
vertex $-1 -1 $-1 $395 $397 #
straight-curve $-1 -1 $-1 0.53033199591132418 -4.9370000000000003 6.6050718241315023 0.70710678118654746 0 0.70710678118654746 I I #
edge $398 -1 $-1 $295 -0.5 $220 0 $310 $399 forward @7 unknown #
edge $-1 -1 $-1 $296 -0.5 $221 0 $303 $400 forward @7 unknown #
convexity-sys-attrib $-1 -1 $-1 $219 $146 #
point $-1 -1 $-1 0.53033199591132418 -4.9370000000000003 6.6050718241315023 #
point $-1 -1 $-1 -0.53032817586849712 -4.9370000000000003 7.6657319959113241 #
face $-1 -1 $-1 $401 $402 $24 $-1 $155 reversed single #
loop $-1 -1 $-1 $-1 $328 $226 #
coedge $-1 -1 $-1 $403 $228 $404 $405 reversed $154 $-1 #
coedge $-1 -1 $-1 $228 $403 $406 $407 forward $154 $-1 #
coedge $-1 -1 $-1 $331 $408 $228 $324 forward $332 $-1 #
edge $-1 -1 $-1 $409 -0.78539816339744806 $410 0 $323 $356 forward @7 unknown #
coedge $-1 -1 $-1 $230 $229 $411 $412 reversed $105 $-1 #
coedge $-1 -1 $-1 $413 $414 $229 $327 reversed $415 $-1 #
edge $-1 -1 $-1 $333 0 $416 0.5 $326 $417 forward @7 unknown #
coedge $-1 -1 $-1 $418 $419 $420 $329 reversed $320 $-1 #
edge $-1 -1 $-1 $421 -0.5 $334 0 $420 $422 forward @7 unknown #
coedge $-1 -1 $-1 $408 $231 $423 $424 reversed $332 $-1 #
coedge $-1 -1 $-1 $231 $323 $413 $425 forward $332 $-1 #
loop $-1 -1 $-1 $-1 $231 $426 #
vertex $-1 -1 $-1 $232 $427 #
vertex $-1 -1 $-1 $428 $429 #
coedge $-1 -1 $-1 $430 $239 $233 $336 forward $347 $-1 #
edge $-1 -1 $-1 $241 -5.9211894646675062e-016 $341 0.78539816339744795 $335 $431 forward @7 unknown #
coedge $-1 -1 $-1 $432 $234 $236 $343 reversed $340 $-1 #
coedge $-1 -1 $-1 $234 $432 $430 $433 forward $340 $-1 #
coedge $-1 -1 $-1 $434 $435 $436 $235 reversed $437 $-1 #
loop $-1 -1 $-1 $-1 $234 $438 #
vertex $-1 -1 $-1 $439 $440 #
straight-curve $-1 -1 $-1 -2.2526019100214132 -0.25 -1.5026019100214132 0 -1 0 I I #
edge $-1 -1 $-1 $441 -2.2526019100214132 $237 1.5026019100214132 $337 $442 forward @7 unknown #
edge $-1 -1 $-1 $237 1.5026019100214132 $443 2.2526019100214132 $435 $442 forward @7 unknown #
point $-1 -1 $-1 -2.2526019100214132 -0.25 -1.5026019100214132 #
coedge $-1 -1 $-1 $239 $444 $243 $351 forward $347 $-1 #
loop $-1 -1 $-1 $-1 $335 $445 #
straight-curve $-1 -1 $-1 -1.2816310409006171 0.25 -0.22097086912079611 -0.70710678118654757 0 -0.70710678118654757 I I #
point $-1 -1 $-1 -2.0329319959113237 0.25 -0.9722718241315027 #
coedge $-1 -1 $-1 $244 $243 $446 $447 forward $227 $-1 #
edge $-1 -1 $-1 $448 2.3561944901923448 $245 3.1415926535897913 $346 $449 forward @7 unknown #
point $-1 -1 $-1 0.97227182413150359 0.25 2.0329319959113246 #
coedge $-1 -1 $-1 $450 $451 $247 $354 forward $452 $-1 #
edge $-1 -1 $-1 $441 -2.2526019100214132 $355 1.5026019100214134 $247 $453 forward @7 unknown #
vertex $-1 -1 $-1 $454 $455 #
ellipse-curve $-1 -1 $-1 1.5026019100214134 -0.25 1.5026019100214132 0 1 0 0.53033008588991071 0 -0.53033008588991049 1 I I #
face $-1 -1 $-1 $456 $457 $24 $-1 $358 reversed single #
plane-surface $-1 -1 $-1 0 -0.25 0 0 1 0 0 0 1 forward_v I I I I #
plane-surface $-1 -1 $-1 2.2526019100214132 0 0 -1 0 0 0 0 1 forward_v I I I I #
coedge $-1 -1 $-1 $258 $256 $260 $364 reversed $171 $-1 #
edge $-1 -1 $-1 $271 -2.2526019100214132 $366 2.2526019100214132 $270 $458 forward @7 unknown #
vertex $-1 -1 $-1 $364 $459 #
straight-curve $-1 -1 $-1 -2.2526019100214132 -0.25 0 0 0 -1 I I #
edge $-1 -1 $-1 $362 -0.25 $366 0.25 $360 $460 forward @7 unknown #
straight-curve $-1 -1 $-1 0 -0.25 -2.2526019100214132 -1 0 0 I I #
vertex $-1 -1 $-1 $263 $461 #
straight-curve $-1 -1 $-1 0 0.25 -2.2526019100214132 1 0 0 I I #
point $-1 -1 $-1 2.2526019100214132 0.25 -2.2526019100214132 #
point $-1 -1 $-1 2.2526019100214132 -0.25 -2.2526019100214132 #
straight-curve $-1 -1 $-1 -2.2526019100214132 0 2.2526019100214132 0 -1 0 I I #
point $-1 -1 $-1 -2.2526019100214132 0.25 2.2526019100214132 #
point $-1 -1 $-1 -2.2526019100214132 -0.25 2.2526019100214132 #
straight-curve $-1 -1 $-1 2.2526019100214132 -0.25 0 0 0 -1 I I #
straight-curve $-1 -1 $-1 2.2526019100214132 0.25 0 0 0 -1 I I #
point $-1 -1 $-1 0.43749999999999994 0 0.25 #
point $-1 -1 $-1 0.43749999999999994 0 0.25 #
model_id-kcp-attrib $-1 -1 $-1 $-1 $287 1 1021323519 1021323519 42205185 9 #
plane-surface $-1 -1 $-1 -3.5355319959113238 -4.9370000000000003 4.6605281758684969 -0.70710678118654757 0 0.70710678118654757 0 -1 0 forward_v I I I I #
coedge $-1 -1 $-1 $389 $388 $290 $380 forward $288 $-1 #
edge $-1 -1 $-1 $384 -3.1415926535897931 $382 -3.9474596431116675e-016 $379 $462 forward @7 unknown #
attrib_edge_convexity-kcp-attrib $-1 -1 $463 $-1 $292 1 #
vertex $-1 -1 $-1 $395 $464 #
straight-curve $-1 -1 $-1 0.53033199591132418 -4.4370000000000003 6.6050718241315023 0.70710678118654746 0 0.70710678118654746 I I #
vertex $-1 -1 $-1 $392 $465 #
straight-curve $-1 -1 $-1 -3.5355319959113238 -4.4370000000000003 4.6605281758684969 -0.70710678118654746 0 -0.70710678118654746 I I #
point $-1 -1 $-1 0.53033199591132418 -4.4370000000000003 6.6050718241315023 #
point $-1 -1 $-1 -0.53032817586849712 -4.4370000000000003 7.6657319959113241 #
coedge $-1 -1 $-1 $379 $301 $304 $392 reversed $288 $-1 #
coedge $-1 -1 $-1 $301 $379 $309 $395 forward $288 $-1 #
attrib_edge_convexity-kcp-attrib $-1 -1 $466 $-1 $302 1 #
ellipse-curve $-1 -1 $-1 -3.0052019100214133 -4.9370000000000003 4.1301980899785864 0 -1 0 0.5303300858899106 0 -0.5303300858899106 1 I I #
edge $-1 -1 $-1 $384 -0.5 $307 0 $304 $467 forward @7 unknown #
convexity-sys-attrib $-1 -1 $-1 $306 $214 #
point $-1 -1 $-1 -3.5355319959113238 -4.9370000000000003 4.6605281758684969 #
edge $468 -1 $-1 $382 -0.5 $312 0 $389 $469 forward @7 unknown #
convexity-sys-attrib $-1 -1 $-1 $311 $216 #
point $-1 -1 $-1 -2.4748718241315029 -4.9370000000000003 3.5998680040886755 #
attrib_edge_convexity-kcp-attrib $-1 -1 $470 $-1 $314 3 #
straight-curve $-1 -1 $-1 0.53033199591132418 -4.9370000000000003 6.6050718241315023 0 -1 0 I I #
straight-curve $-1 -1 $-1 -0.53032817586849712 -4.9370000000000003 7.6657319959113241 0 -1 0 I I #
face $-1 -1 $-1 $471 $415 $24 $-1 $472 reversed single #
loop $-1 -1 $-1 $-1 $473 $319 #
coedge $-1 -1 $-1 $322 $321 $474 $475 reversed $154 $-1 #
coedge $-1 -1 $-1 $476 $477 $478 $405 forward $479 $-1 #
edge $-1 -1 $-1 $480 -0.5 $409 0 $404 $481 forward @7 unknown #
coedge $-1 -1 $-1 $414 $413 $322 $407 reversed $415 $-1 #
edge $-1 -1 $-1 $482 -0.5 $410 0 $406 $483 forward @7 unknown #
coedge $-1 -1 $-1 $323 $330 $476 $484 reversed $332 $-1 #
vertex $-1 -1 $-1 $484 $485 #
vertex $-1 -1 $-1 $324 $486 #
coedge $-1 -1 $-1 $487 $488 $325 $412 forward $489 $-1 #
edge $-1 -1 $-1 $421 2.3561944901923444 $416 3.1415926535897918 $411 $431 forward @7 unknown #
coedge $-1 -1 $-1 $406 $326 $331 $425 reversed $415 $-1 #
coedge $-1 -1 $-1 $326 $406 $487 $490 reversed $415 $-1 #
loop $-1 -1 $-1 $-1 $413 $401 #
vertex $-1 -1 $-1 $412 $491 #
straight-curve $-1 -1 $-1 -0.97227182413150293 -0.25 -2.0329319959113246 0 1 0 I I #
coedge $-1 -1 $-1 $436 $328 $492 $493 reversed $320 $-1 #
coedge $-1 -1 $-1 $328 $436 $494 $495 reversed $320 $-1 #
coedge $-1 -1 $-1 $496 $497 $498 $329 forward $499 $-1 #
vertex $-1 -1 $-1 $500 $501 #
straight-curve $-1 -1 $-1 -1.5026019100214134 -0.25 -2.2526019100214132 0 -1 0 I I #
coedge $-1 -1 $-1 $498 $502 $330 $424 forward $503 $-1 #
edge $-1 -1 $-1 $504 -2.2526019100214132 $334 1.5026019100214134 $330 $505 forward @7 unknown #
edge $-1 -1 $-1 $410 -1.0625 $333 3.1875000000000009 $331 $506 forward @7 unknown #
face $-1 -1 $-1 $507 $332 $24 $-1 $358 reversed single #
point $-1 -1 $-1 -0.97227182413150293 -0.25 -2.0329319959113246 #
edge $-1 -1 $-1 $334 1.5026019100214134 $443 2.2526019100214132 $508 $505 forward @7 unknown #
point $-1 -1 $-1 -1.5026019100214134 -0.25 -2.2526019100214132 #
coedge $-1 -1 $-1 $444 $335 $338 $433 reversed $347 $-1 #
ellipse-curve $-1 -1 $-1 -1.5026019100214134 0.25 -1.5026019100214132 0 -1 0 -0.53033008588991071 0 0.53033008588991026 1 I I #
coedge $-1 -1 $-1 $338 $337 $451 $509 reversed $340 $-1 #
edge $-1 -1 $-1 $510 -2.2526019100214132 $341 1.5026019100214132 $430 $511 forward @7 unknown #
coedge $-1 -1 $-1 $512 $339 $513 $439 forward $437 $-1 #
coedge $-1 -1 $-1 $339 $512 $514 $344 reversed $437 $-1 #
coedge $-1 -1 $-1 $419 $418 $157 $235 forward $320 $-1 #
loop $-1 -1 $-1 $-1 $339 $471 #
face $-1 -1 $-1 $515 $340 $24 $-1 $516 reversed single #
edge $-1 -1 $-1 $341 1.5026019100214132 $517 2.2526019100214132 $513 $511 forward @7 unknown #
point $-1 -1 $-1 -2.2526019100214132 0.25 -1.5026019100214132 #
vertex $-1 -1 $-1 $509 $518 #
straight-curve $-1 -1 $-1 -2.2526019100214132 -0.25 0 0 0 -1 I I #
vertex $-1 -1 $-1 $519 $520 #
coedge $-1 -1 $-1 $346 $430 $521 $522 reversed $347 $-1 #
face $-1 -1 $-1 $523 $347 $24 $-1 $524 reversed single #
coedge $-1 -1 $-1 $473 $525 $526 $447 reversed $402 $-1 #
edge $-1 -1 $-1 $448 -0.5 $355 0 $526 $527 forward @7 unknown #
vertex $-1 -1 $-1 $522 $528 #
ellipse-curve $-1 -1 $-1 1.5026019100214134 0.25 1.5026019100214132 0 -1 0 0.53033008588991071 0 -0.53033008588991049 1 I I #
coedge $-1 -1 $-1 $521 $353 $350 $447 reversed $452 $-1 #
coedge $-1 -1 $-1 $353 $521 $432 $509 forward $452 $-1 #
loop $-1 -1 $-1 $-1 $450 $456 #
straight-curve $-1 -1 $-1 0 -0.25 2.2526019100214132 1 0 0 I I #
edge $-1 -1 $-1 $355 1.5026019100214134 $529 2.2526019100214132 $530 $453 forward @7 unknown #
point $-1 -1 $-1 1.5026019100214134 -0.25 2.2526019100214132 #
face $-1 -1 $-1 $531 $452 $24 $-1 $532 forward single #
loop $-1 -1 $-1 $-1 $533 $357 #
straight-curve $-1 -1 $-1 -2.2526019100214132 0.25 0 0 0 -1 I I #
point $-1 -1 $-1 -2.2526019100214132 -0.25 -2.2526019100214132 #
straight-curve $-1 -1 $-1 -2.2526019100214132 0 -2.2526019100214132 0 1 0 I I #
point $-1 -1 $-1 -2.2526019100214132 0.25 -2.2526019100214132 #
ellipse-curve $-1 -1 $-1 -3.0052019100214133 -4.4370000000000003 4.1301980899785864 0 -1 0 0.5303300858899106 0 -0.5303300858899106 1 I I #
convexity-sys-attrib $-1 -1 $-1 $381 $292 #
point $-1 -1 $-1 -2.4748718241315029 -4.4370000000000003 3.5998680040886755 #
point $-1 -1 $-1 -3.5355319959113238 -4.4370000000000003 4.6605281758684969 #
convexity-sys-attrib $-1 -1 $-1 $390 $302 #
straight-curve $-1 -1 $-1 -3.5355319959113238 -4.9370000000000003 4.6605281758684969 0 -1 0 I I #
attrib_edge_convexity-kcp-attrib $-1 -1 $534 $-1 $395 3 #
straight-curve $-1 -1 $-1 -2.4748718241315029 -4.9370000000000003 3.5998680040886755 0 -1 0 I I #
convexity-sys-attrib $-1 -1 $-1 $398 $314 #
face $-1 -1 $-1 $535 $437 $24 $-1 $516 reversed single #
plane-surface $-1 -1 $-1 2.0329319959113241 -0.25 0.9722718241315027 0.70710678118654757 0 -0.70710678118654757 0 1 0 forward_v I I I I #
coedge $-1 -1 $-1 $536 $446 $537 $538 reversed $402 $-1 #
coedge $-1 -1 $-1 $539 $487 $403 $475 forward $489 $-1 #
edge $-1 -1 $-1 $482 0 $480 0.78539816339744806 $474 $449 forward @7 unknown #
coedge $-1 -1 $-1 $540 $404 $408 $484 forward $479 $-1 #
coedge $-1 -1 $-1 $404 $540 $539 $541 reversed $479 $-1 #
coedge $-1 -1 $-1 $542 $543 $536 $405 reversed $544 $-1 #
loop $-1 -1 $-1 $-1 $404 $515 #
vertex $-1 -1 $-1 $541 $545 #
straight-curve $-1 -1 $-1 2.2526019100214132 -0.25 1.5026019100214132 0 -1 0 I I #
vertex $-1 -1 $-1 $475 $546 #
straight-curve $-1 -1 $-1 2.0329319959113241 -0.25 0.9722718241315027 0 -1 0 I I #
edge $-1 -1 $-1 $409 -1.5026019100214132 $504 2.2526019100214132 $476 $547 forward @7 unknown #
point $-1 -1 $-1 2.2526019100214132 -0.25 1.5026019100214132 #
point $-1 -1 $-1 2.0329319959113241 -0.25 0.9722718241315027 #
coedge $-1 -1 $-1 $474 $411 $414 $490 forward $489 $-1 #
coedge $-1 -1 $-1 $411 $539 $548 $500 reversed $489 $-1 #
loop $-1 -1 $-1 $-1 $411 $549 #
edge $-1 -1 $-1 $416 -3.1875000000000009 $482 1.0625 $487 $550 forward @7 unknown #
point $-1 -1 $-1 -0.97227182413150293 0.25 -2.0329319959113246 #
coedge $-1 -1 $-1 $551 $513 $418 $493 forward $552 $-1 #
edge $-1 -1 $-1 $341 0.78539816339744795 $421 2.3561944901923444 $492 $431 forward @7 unknown #
coedge $-1 -1 $-1 $514 $508 $419 $495 forward $553 $-1 #
edge $-1 -1 $-1 $334 -2.3561944901923444 $237 -0.78539816339744795 $494 $238 forward @7 unknown #
coedge $-1 -1 $-1 $554 $420 $508 $428 forward $499 $-1 #
coedge $-1 -1 $-1 $420 $554 $551 $555 forward $499 $-1 #
coedge $-1 -1 $-1 $548 $423 $230 $329 reversed $503 $-1 #
loop $-1 -1 $-1 $-1 $420 $556 #
edge $-1 -1 $-1 $421 -1.5026019100214134 $557 2.2526019100214132 $488 $558 forward @7 unknown #
point $-1 -1 $-1 -1.5026019100214134 0.25 -2.2526019100214132 #
coedge $-1 -1 $-1 $423 $548 $540 $559 forward $503 $-1 #
loop $-1 -1 $-1 $-1 $498 $535 #
vertex $-1 -1 $-1 $484 $560 #
straight-curve $-1 -1 $-1 0 -0.25 -2.2526019100214132 -1 0 0 I I #
straight-curve $-1 -1 $-1 1.2816310409006175 -0.25 0.220970869120796 -0.70710678118654757 0 -0.70710678118654757 I I #
face $-1 -1 $-1 $249 $553 $24 $-1 $358 reversed single #
coedge $-1 -1 $-1 $494 $514 $496 $428 reversed $553 $-1 #
edge $-1 -1 $-1 $510 -0.25 $441 0.25 $432 $561 forward @7 unknown #
vertex $-1 -1 $-1 $522 $562 #
straight-curve $-1 -1 $-1 -2.2526019100214132 0.25 0 0 0 -1 I I #
coedge $-1 -1 $-1 $435 $434 $554 $519 reversed $437 $-1 #
coedge $-1 -1 $-1 $492 $551 $434 $439 reversed $552 $-1 #
coedge $-1 -1 $-1 $508 $494 $435 $344 forward $553 $-1 #
face $-1 -1 $-1 $-1 $479 $24 $-1 $563 reversed single #
plane-surface $-1 -1 $-1 -2.2526019100214132 0 0 1 0 0 0 0 -1 forward_v I I I I #
vertex $-1 -1 $-1 $555 $564 #
point $-1 -1 $-1 -2.2526019100214132 -0.25 2.2526019100214132 #
edge $-1 -1 $-1 $443 -0.25 $517 0.25 $512 $565 forward @7 unknown #
point $-1 -1 $-1 -2.2526019100214132 -0.25 -2.2526019100214132 #
coedge $-1 -1 $-1 $451 $450 $444 $522 forward $452 $-1 #
edge $-1 -1 $-1 $448 -1.5026019100214134 $510 2.2526019100214132 $444 $566 forward @7 unknown #
face $-1 -1 $-1 $549 $552 $24 $-1 $524 reversed single #
plane-surface $-1 -1 $-1 0 0.25 0 0 -1 0 0 0 -1 forward_v I I I I #
coedge $-1 -1 $-1 $446 $536 $533 $567 reversed $402 $-1 #
coedge $-1 -1 $-1 $568 $569 $450 $447 forward $570 $-1 #
straight-curve $-1 -1 $-1 1.5026019100214134 -0.25 2.2526019100214132 0 -1 0 I I #
point $-1 -1 $-1 1.5026019100214134 0.25 2.2526019100214132 #
vertex $-1 -1 $-1 $571 $572 #
coedge $-1 -1 $-1 $533 $573 $568 $454 reversed $457 $-1 #
face $-1 -1 $-1 $445 $574 $24 $-1 $524 reversed single #
plane-surface $-1 -1 $-1 0 0 2.2526019100214132 0 0 1 1 0 0 forward_v I I I I #
coedge $-1 -1 $-1 $573 $530 $525 $567 forward $457 $-1 #
convexity-sys-attrib $-1 -1 $-1 $468 $395 #
face $-1 -1 $-1 $426 $503 $24 $-1 $575 reversed single #
coedge $-1 -1 $-1 $525 $473 $321 $405 forward $402 $-1 #
coedge $-1 -1 $-1 $576 $577 $473 $538 forward $574 $-1 #
edge $-1 -1 $-1 $480 0.78539816339744806 $448 2.3561944901923448 $537 $449 forward @7 unknown #
coedge $-1 -1 $-1 $488 $474 $477 $541 forward $489 $-1 #
coedge $-1 -1 $-1 $477 $476 $502 $559 reversed $479 $-1 #
edge $-1 -1 $-1 $480 -1.5026019100214132 $557 2.2526019100214132 $477 $578 forward @7 unknown #
coedge $-1 -1 $-1 $579 $478 $577 $580 reversed $544 $-1 #
coedge $-1 -1 $-1 $478 $579 $573 $581 forward $544 $-1 #
loop $-1 -1 $-1 $-1 $478 $582 #
point $-1 -1 $-1 2.2526019100214132 0.25 1.5026019100214132 #
point $-1 -1 $-1 2.0329319959113241 0.25 0.9722718241315027 #
straight-curve $-1 -1 $-1 2.2526019100214132 -0.25 0 0 0 -1 I I #
coedge $-1 -1 $-1 $502 $498 $488 $500 forward $503 $-1 #
face $-1 -1 $-1 $582 $489 $24 $-1 $524 reversed single #
straight-curve $-1 -1 $-1 1.2816310409006175 0.25 0.220970869120796 0.70710678118654757 0 0.70710678118654757 I I #
coedge $-1 -1 $-1 $513 $492 $497 $555 reversed $552 $-1 #
loop $-1 -1 $-1 $-1 $492 $523 #
loop $-1 -1 $-1 $-1 $494 $507 #
coedge $-1 -1 $-1 $497 $496 $512 $519 forward $499 $-1 #
edge $-1 -1 $-1 $517 -2.2526019100214132 $421 -1.5026019100214134 $551 $558 forward @7 unknown #
face $-1 -1 $-1 $438 $499 $24 $-1 $575 reversed single #
vertex $-1 -1 $-1 $559 $583 #
straight-curve $-1 -1 $-1 0 0.25 -2.2526019100214132 1 0 0 I I #
edge $-1 -1 $-1 $557 -0.25 $504 0.25 $540 $584 forward @7 unknown #
point $-1 -1 $-1 2.2526019100214132 -0.25 -2.2526019100214132 #
straight-curve $-1 -1 $-1 -2.2526019100214132 0 2.2526019100214132 0 -1 0 I I #
point $-1 -1 $-1 -2.2526019100214132 0.25 2.2526019100214132 #
plane-surface $-1 -1 $-1 2.2526019100214132 0 0 -1 0 0 0 0 1 forward_v I I I I #
point $-1 -1 $-1 -2.2526019100214132 0.25 -2.2526019100214132 #
straight-curve $-1 -1 $-1 -2.2526019100214132 0 -2.2526019100214132 0 1 0 I I #
straight-curve $-1 -1 $-1 0 0.25 2.2526019100214132 -1 0 0 I I #
edge $-1 -1 $-1 $355 -2.3561944901923448 $409 -0.78539816339744806 $533 $356 forward @7 unknown #
coedge $-1 -1 $-1 $585 $526 $530 $454 forward $570 $-1 #
coedge $-1 -1 $-1 $526 $585 $576 $586 forward $570 $-1 #
loop $-1 -1 $-1 $-1 $526 $587 #
edge $-1 -1 $-1 $529 -0.25 $588 0.25 $579 $589 forward @7 unknown #
point $-1 -1 $-1 2.2526019100214132 -0.25 2.2526019100214132 #
coedge $-1 -1 $-1 $530 $533 $543 $581 reversed $457 $-1 #
loop $-1 -1 $-1 $-1 $537 $531 #
plane-surface $-1 -1 $-1 0 0 -2.2526019100214132 0 0 1 1 0 0 forward_v I I I I #
coedge $-1 -1 $-1 $577 $537 $569 $586 reversed $574 $-1 #
coedge $-1 -1 $-1 $537 $576 $542 $580 forward $574 $-1 #
straight-curve $-1 -1 $-1 2.2526019100214132 0.25 0 0 0 -1 I I #
coedge $-1 -1 $-1 $543 $542 $585 $571 reversed $544 $-1 #
edge $-1 -1 $-1 $588 -2.2526019100214132 $480 -1.5026019100214132 $542 $578 forward @7 unknown #
edge $-1 -1 $-1 $529 -2.2526019100214132 $409 -1.5026019100214132 $543 $547 forward @7 unknown #
face $-1 -1 $-1 $587 $544 $24 $-1 $563 reversed single #
point $-1 -1 $-1 2.2526019100214132 0.25 -2.2526019100214132 #
straight-curve $-1 -1 $-1 2.2526019100214132 0 -2.2526019100214132 0 -1 0 I I #
coedge $-1 -1 $-1 $569 $568 $579 $571 forward $570 $-1 #
edge $-1 -1 $-1 $588 -2.2526019100214132 $448 -1.5026019100214134 $576 $566 forward @7 unknown #
face $-1 -1 $-1 $556 $570 $24 $-1 $532 forward single #
vertex $-1 -1 $-1 $571 $590 #
straight-curve $-1 -1 $-1 2.2526019100214132 0 2.2526019100214132 0 1 0 I I #
point $-1 -1 $-1 2.2526019100214132 0.25 2.2526019100214132 #
End-of-ACIS-data 