700 0 2 0           
24 FBMach with ACIS - 7.0.3 13 ACIS 7.0.3 NT 24 Mon May 13 16:58:35 2002 
1 9.9999999999999995e-007 1e-010 
body $2 -1 $-1 $3 $-1 $4 #
bdycol-kcp $-1 -1 1 4 $5 $6 $7 $8 #
model_id-kcp-attrib $-1 -1 $-1 $-1 $0 1 1021323514 1021323515 1644560385 1 #
lump $-1 -1 $-1 $-1 $9 $0 #
transform $-1 -1 1.0000000000000002 0 0 0 1 0 0 0 1.0000000000000002 0 0 0 1 rotate no_reflect no_shear #
body $10 -1 $-1 $11 $-1 $12 #
body $13 -1 $-1 $14 $-1 $15 #
body $16 -1 $-1 $17 $-1 $18 #
body $19 -1 $-1 $20 $-1 $21 #
shell $-1 -1 $-1 $-1 $-1 $22 $-1 $3 #
model_id-kcp-attrib $-1 -1 $-1 $-1 $5 1 1021323514 1021323515 1644560386 1 #
lump $-1 -1 $-1 $-1 $23 $5 #
transform $-1 -1 1 0 0 0 1 0 0 0 1 1.5025999999999999 -4.0299999999999994 5.6327999999999996 1 no_rotate no_reflect no_shear #
rgb_color-st-attrib $-1 -1 $24 $-1 $6 0.5 1 1 #
lump $-1 -1 $-1 $-1 $25 $6 #
transform $-1 -1 1 0 0 0 -3.8285889215894375e-016 1 0 -1 -3.8285889215894375e-016 -1.9100214134759597e-006 -4.0299999999999994 7.1354019100214128 1 rotate no_reflect no_shear #
rgb_color-st-attrib $-1 -1 $26 $-1 $7 0.5 1 1 #
lump $-1 -1 $-1 $-1 $27 $7 #
transform $-1 -1 1 0 0 0 -3.8285889215894375e-016 1 0 -1 -3.8285889215894375e-016 3.0052019100214133 -4.0299999999999994 4.1301980899785864 1 rotate no_reflect no_shear #
rgb_color-st-attrib $-1 -1 $28 $-1 $8 0.5 1 1 #
lump $-1 -1 $-1 $-1 $29 $8 #
transform $-1 -1 1 0 0 0 1 0 0 0 1 1.5025999999999999 -4.0299999999999994 5.6327999999999996 1 no_rotate no_reflect no_shear #
face $30 -1 $-1 $31 $32 $9 $-1 $33 reversed single #
shell $-1 -1 $-1 $-1 $-1 $34 $-1 $11 #
model_id-kcp-attrib $-1 -1 $-1 $13 $6 1 1021323514 1021323515 1646526467 1 #
shell $-1 -1 $-1 $-1 $-1 $35 $-1 $14 #
model_id-kcp-attrib $-1 -1 $-1 $16 $7 1 1021323514 1021323515 1647181828 1 #
shell $-1 -1 $-1 $-1 $-1 $36 $-1 $17 #
model_id-kcp-attrib $-1 -1 $-1 $19 $8 1 1021323514 1021323515 1654390789 1 #
shell $-1 -1 $-1 $-1 $-1 $37 $-1 $20 #
model_id-kcp-attrib $-1 -1 $-1 $-1 $22 1 1021323514 1021323515 1644560385 2 #
face $38 -1 $-1 $39 $40 $9 $-1 $41 forward single #
loop $42 -1 $-1 $43 $44 $22 #
plane-surface $-1 -1 $-1 1.5025999999999999 -3.7799999999999998 5.6327999999999996 0 -1 0 0.70710678118654746 0 -0.70710678118654746 forward_v I I I I #
face $-1 -1 $-1 $45 $46 $23 $-1 $47 forward single #
face $-1 -1 $-1 $48 $49 $25 $-1 $50 forward single #
face $-1 -1 $-1 $51 $52 $27 $-1 $53 forward single #
face $-1 -1 $-1 $54 $55 $29 $-1 $56 reversed single #
model_id-kcp-attrib $-1 -1 $-1 $-1 $31 1 1021323514 1021323515 1644560385 3 #
face $57 -1 $-1 $58 $59 $9 $-1 $60 reversed single #
loop $61 -1 $-1 $62 $63 $31 #
plane-surface $-1 -1 $-1 1.5025999999999999 -4.2799999999999994 5.6327999999999996 0 -1 0 0.70710678118654746 0 -0.70710678118654746 forward_v I I I I #
model_id-kcp-attrib $-1 -1 $-1 $-1 $32 1 1021323514 1021323515 1644560385 15 #
loop $64 -1 $-1 $65 $66 $22 #
coedge $-1 -1 $-1 $44 $44 $67 $68 forward $32 $-1 #
face $-1 -1 $-1 $69 $70 $23 $-1 $71 reversed single #
loop $-1 -1 $-1 $-1 $72 $34 #
plane-surface $-1 -1 $-1 0 0 2.2526019100214132 0 0 1 1 0 0 forward_v I I I I #
face $-1 -1 $-1 $73 $74 $25 $-1 $75 forward single #
loop $-1 -1 $-1 $76 $77 $35 #
cone-surface $-1 -1 $-1 0 0 0 0 0 1 0.43749999999999994 0 0 1 I I 0 1 0.43749999999999994 forward I I I I #
face $-1 -1 $-1 $78 $79 $27 $-1 $80 forward single #
loop $-1 -1 $-1 $81 $82 $36 #
cone-surface $-1 -1 $-1 0 0 0 0 0 1 0.43749999999999994 0 0 1 I I 0 1 0.43749999999999994 forward I I I I #
face $-1 -1 $-1 $83 $84 $29 $-1 $85 reversed single #
loop $-1 -1 $-1 $-1 $86 $37 #
plane-surface $-1 -1 $-1 2.0329319959113237 0.24999999999999956 -0.9722718241315027 0.70710678118654757 0 0.70710678118654757 0 1 0 forward_v I I I I #
model_id-kcp-attrib $-1 -1 $-1 $-1 $39 1 1021323514 1021323515 1644560385 4 #
face $87 -1 $-1 $88 $89 $9 $-1 $90 reversed single #
loop $91 -1 $-1 $92 $93 $39 #
cone-surface $-1 -1 $-1 -1.9100214134759597e-006 -3.7799999999999998 7.1354019100214128 0 -1 0 0.30935921676911449 0 -0.30935921676911449 1 I I 0 1 0.4375 forward I I I I #
model_id-kcp-attrib $-1 -1 $-1 $-1 $40 1 1021323514 1021323515 1644560385 14 #
loop $94 -1 $-1 $95 $96 $31 #
coedge $-1 -1 $-1 $63 $63 $93 $97 reversed $40 $-1 #
model_id-kcp-attrib $-1 -1 $-1 $-1 $43 1 1021323514 1021323515 1644560385 21 #
loop $-1 -1 $-1 $-1 $98 $22 #
coedge $-1 -1 $-1 $66 $66 $99 $100 forward $43 $-1 #
coedge $-1 -1 $-1 $67 $67 $44 $68 reversed $92 $-1 #
edge $101 -1 $-1 $102 -3.1415926535897927 $102 3.1415926535897936 $67 $103 forward @7 unknown #
face $104 -1 $-1 $105 $106 $23 $-1 $107 reversed single #
loop $-1 -1 $-1 $-1 $108 $45 #
plane-surface $-1 -1 $-1 0 0 -2.2526019100214132 0 0 1 1 0 0 forward_v I I I I #
coedge $-1 -1 $-1 $109 $110 $111 $112 forward $46 $-1 #
face $-1 -1 $-1 $-1 $113 $25 $-1 $114 forward single #
loop $-1 -1 $-1 $-1 $115 $48 #
plane-surface $-1 -1 $-1 0 0 -0.24999999999999978 0 0 -1 -1 0 0 forward_v I I I I #
loop $-1 -1 $-1 $-1 $116 $35 #
coedge $-1 -1 $-1 $77 $77 $115 $117 reversed $49 $-1 #
face $-1 -1 $-1 $-1 $118 $27 $-1 $119 forward single #
loop $-1 -1 $-1 $-1 $120 $51 #
plane-surface $-1 -1 $-1 0 0 -0.24999999999999978 0 0 -1 -1 0 0 forward_v I I I I #
loop $-1 -1 $-1 $-1 $121 $36 #
coedge $-1 -1 $-1 $82 $82 $120 $122 reversed $52 $-1 #
face $-1 -1 $-1 $123 $124 $29 $-1 $85 reversed single #
loop $-1 -1 $-1 $-1 $125 $54 #
cone-surface $-1 -1 $-1 1.5026019100214134 0.24999999999999956 -1.5026019100214132 0 1 0 0.53033008588991071 0 0.53033008588991026 1 I I 0 1 0.74999999999999978 forward I I I I #
coedge $-1 -1 $-1 $126 $127 $128 $129 reversed $55 $-1 #
model_id-kcp-attrib $-1 -1 $-1 $-1 $58 1 1021323514 1021323515 1644560385 5 #
face $130 -1 $-1 $131 $132 $9 $-1 $133 forward single #
loop $134 -1 $-1 $135 $136 $58 #
cone-surface $-1 -1 $-1 3.0052019100214133 -3.7799999999999998 4.1301980899785864 0 -1 0 0.30935921676911449 0 -0.30935921676911449 1 I I 0 1 0.4375 forward I I I I #
model_id-kcp-attrib $-1 -1 $-1 $-1 $59 1 1021323514 1021323515 1644560385 12 #
loop $137 -1 $-1 $-1 $67 $39 #
coedge $-1 -1 $-1 $93 $93 $63 $97 forward $59 $-1 #
model_id-kcp-attrib $-1 -1 $-1 $-1 $62 1 1021323514 1021323515 1644560385 20 #
loop $-1 -1 $-1 $-1 $138 $31 #
coedge $-1 -1 $-1 $96 $96 $136 $139 reversed $62 $-1 #
edge $140 -1 $-1 $141 3.625218039592349e-016 $141 6.2831853071795862 $93 $142 forward @7 unknown #
coedge $-1 -1 $-1 $143 $144 $145 $146 forward $65 $-1 #
coedge $-1 -1 $-1 $99 $99 $66 $100 reversed $135 $-1 #
edge $147 -1 $-1 $148 -3.1415926535897931 $148 3.1415926535897931 $99 $149 forward @7 unknown #
attrib_edge_convexity-kcp-attrib $-1 -1 $150 $-1 $68 1 #
vertex $151 -1 $-1 $68 $152 #
ellipse-curve $-1 -1 $-1 -1.9100214134759597e-006 -3.7799999999999998 7.1354019100214128 0 -1 0 -0.30935921676911449 0 0.30935921676911449 1 I I #
model_id-kcp-attrib $-1 -1 $-1 $-1 $69 1 1021323514 1021323515 1644560386 3 #
face $-1 -1 $-1 $153 $154 $23 $-1 $155 reversed single #
loop $-1 -1 $-1 $-1 $156 $69 #
plane-surface $-1 -1 $-1 0 -0.24999999999999978 0 0 1 0 0 0 1 forward_v I I I I #
coedge $-1 -1 $-1 $157 $158 $159 $160 forward $70 $-1 #
coedge $-1 -1 $-1 $161 $72 $162 $163 forward $46 $-1 #
coedge $-1 -1 $-1 $72 $161 $164 $165 forward $46 $-1 #
coedge $-1 -1 $-1 $166 $167 $72 $112 reversed $168 $-1 #
edge $-1 -1 $-1 $169 -0.24999999999999978 $170 0.24999999999999978 $111 $171 forward @7 unknown #
loop $-1 -1 $-1 $-1 $172 $73 #
plane-surface $-1 -1 $-1 0 0 0.24999999999999978 0 0 1 1 0 0 forward_v I I I I #
coedge $-1 -1 $-1 $115 $115 $77 $117 forward $74 $-1 #
coedge $-1 -1 $-1 $116 $116 $172 $173 reversed $76 $-1 #
edge $-1 -1 $-1 $174 0 $174 6.2831853071795862 $115 $175 forward @7 unknown #
loop $-1 -1 $-1 $-1 $176 $78 #
plane-surface $-1 -1 $-1 0 0 0.24999999999999978 0 0 1 1 0 0 forward_v I I I I #
coedge $-1 -1 $-1 $120 $120 $82 $122 forward $79 $-1 #
coedge $-1 -1 $-1 $121 $121 $176 $177 reversed $81 $-1 #
edge $-1 -1 $-1 $178 0 $178 6.2831853071795862 $120 $179 forward @7 unknown #
face $-1 -1 $-1 $180 $181 $29 $-1 $182 reversed single #
loop $-1 -1 $-1 $-1 $183 $83 #
coedge $-1 -1 $-1 $184 $185 $186 $187 reversed $84 $-1 #
coedge $-1 -1 $-1 $188 $86 $185 $189 forward $55 $-1 #
coedge $-1 -1 $-1 $86 $188 $190 $191 reversed $55 $-1 #
coedge $-1 -1 $-1 $192 $186 $86 $129 forward $193 $-1 #
edge $-1 -1 $-1 $194 -1.0624999999999998 $195 3.1875000000000009 $128 $196 forward @7 unknown #
model_id-kcp-attrib $-1 -1 $-1 $-1 $88 1 1021323514 1021323515 1644560385 6 #
face $197 -1 $-1 $198 $199 $9 $-1 $200 forward single #
loop $-1 -1 $-1 $-1 $145 $88 #
cone-surface $-1 -1 $-1 3.0052019100214133 -3.7799999999999998 4.1301980899785864 0 -1 0 0.5303300858899106 0 -0.5303300858899106 1 I I 0 1 0.75 forward I I I I #
model_id-kcp-attrib $-1 -1 $-1 $-1 $89 1 1021323514 1021323515 1644560385 18 #
loop $201 -1 $-1 $-1 $99 $58 #
coedge $-1 -1 $-1 $136 $136 $96 $139 forward $89 $-1 #
model_id-kcp-attrib $-1 -1 $-1 $-1 $92 1 1021323514 1021323515 1644560385 13 #
coedge $-1 -1 $-1 $202 $203 $204 $205 reversed $95 $-1 #
edge $206 -1 $-1 $207 0 $207 6.2831853071795862 $136 $208 forward @7 unknown #
attrib_edge_convexity-kcp-attrib $-1 -1 $209 $-1 $97 1 #
vertex $210 -1 $-1 $97 $211 #
ellipse-curve $-1 -1 $-1 -1.9100214134759597e-006 -4.2799999999999994 7.1354019100214128 0 -1 0 0.30935921676911449 0 -0.30935921676911449 1 I I #
coedge $-1 -1 $-1 $212 $98 $213 $214 forward $65 $-1 #
coedge $-1 -1 $-1 $98 $212 $215 $216 forward $65 $-1 #
coedge $-1 -1 $-1 $217 $218 $98 $146 reversed $132 $-1 #
edge $219 -1 $-1 $220 -3.1415926535897931 $221 -3.9474596431116675e-016 $145 $222 forward @7 unknown #
attrib_edge_convexity-kcp-attrib $-1 -1 $223 $-1 $100 1 #
vertex $224 -1 $-1 $100 $225 #
ellipse-curve $-1 -1 $-1 3.0052019100214133 -3.7799999999999998 4.1301980899785864 0 -1 0 -0.30935921676911449 0 0.30935921676911449 1 I I #
convexity-sys-attrib $-1 -1 $-1 $101 $68 #
model_id-kcp-attrib $-1 -1 $-1 $-1 $102 1 1021323514 1021323515 1644560385 17 #
point $-1 -1 $-1 0.30935730674770112 -3.7799999999999998 6.8260426932522984 #
face $226 -1 $-1 $227 $228 $23 $-1 $229 reversed single #
loop $-1 -1 $-1 $-1 $230 $105 #
plane-surface $-1 -1 $-1 -2.2526019100214132 0 0 1 0 0 0 0 -1 forward_v I I I I #
coedge $-1 -1 $-1 $231 $164 $232 $233 forward $106 $-1 #
coedge $-1 -1 $-1 $234 $108 $231 $235 forward $70 $-1 #
coedge $-1 -1 $-1 $108 $234 $236 $237 forward $70 $-1 #
coedge $-1 -1 $-1 $167 $166 $108 $160 reversed $168 $-1 #
edge $-1 -1 $-1 $238 -0.24999999999999978 $239 0.24999999999999978 $159 $240 forward @7 unknown #
coedge $-1 -1 $-1 $110 $109 $241 $242 forward $46 $-1 #
coedge $-1 -1 $-1 $243 $244 $109 $163 reversed $228 $-1 #
edge $-1 -1 $-1 $170 -2.2526019100214132 $245 2.2526019100214132 $162 $246 forward @7 unknown #
coedge $-1 -1 $-1 $156 $247 $110 $165 reversed $106 $-1 #
edge $-1 -1 $-1 $248 -2.2526019100214132 $169 2.2526019100214132 $164 $249 forward @7 unknown #
coedge $-1 -1 $-1 $159 $111 $247 $250 forward $168 $-1 #
coedge $-1 -1 $-1 $111 $159 $243 $251 reversed $168 $-1 #
loop $-1 -1 $-1 $-1 $166 $227 #
vertex $-1 -1 $-1 $112 $252 #
vertex $-1 -1 $-1 $112 $253 #
straight-curve $-1 -1 $-1 2.2526019100214132 0 2.2526019100214132 0 1 0 I I #
coedge $-1 -1 $-1 $172 $172 $116 $173 forward $113 $-1 #
edge $-1 -1 $-1 $254 0 $254 6.2831853071795862 $172 $255 forward @7 unknown #
vertex $-1 -1 $-1 $117 $256 #
ellipse-curve $-1 -1 $-1 0 0 -0.24999999999999978 0 0 -1 0.43749999999999994 0 0 1 I I #
coedge $-1 -1 $-1 $176 $176 $121 $177 forward $118 $-1 #
edge $-1 -1 $-1 $257 0 $257 6.2831853071795862 $176 $258 forward @7 unknown #
vertex $-1 -1 $-1 $122 $259 #
ellipse-curve $-1 -1 $-1 0 0 -0.24999999999999978 0 0 -1 0.43749999999999994 0 0 1 I I #
face $-1 -1 $-1 $260 $261 $29 $-1 $182 reversed single #
loop $-1 -1 $-1 $-1 $262 $123 #
cone-surface $-1 -1 $-1 -1.5026019100214134 0.24999999999999956 1.5026019100214132 0 1 0 -0.53033008588991071 0 -0.53033008588991049 1 I I 0 1 0.74999999999999989 forward I I I I #
coedge $-1 -1 $-1 $263 $264 $265 $266 reversed $124 $-1 #
coedge $-1 -1 $-1 $267 $125 $268 $269 reversed $84 $-1 #
coedge $-1 -1 $-1 $125 $267 $126 $189 reversed $84 $-1 #
coedge $-1 -1 $-1 $128 $270 $125 $187 forward $193 $-1 #
edge $-1 -1 $-1 $271 -0.78539816339744795 $194 5.9211894646675062e-016 $186 $272 forward @7 unknown #
coedge $-1 -1 $-1 $127 $126 $273 $274 reversed $55 $-1 #
edge $-1 -1 $-1 $194 -2.2204460492503131e-016 $275 0.49999999999999933 $185 $276 forward @7 unknown #
coedge $-1 -1 $-1 $277 $278 $127 $191 forward $261 $-1 #
edge $-1 -1 $-1 $195 -2.2204460492503131e-016 $279 0.49999999999999933 $127 $280 forward @7 unknown #
coedge $-1 -1 $-1 $281 $128 $278 $282 forward $193 $-1 #
loop $-1 -1 $-1 $-1 $186 $283 #
vertex $-1 -1 $-1 $187 $284 #
vertex $-1 -1 $-1 $129 $285 #
straight-curve $-1 -1 $-1 1.2816310409006171 0.24999999999999978 -0.22097086912079611 -0.70710678118654757 0 0.70710678118654757 I I #
model_id-kcp-attrib $-1 -1 $-1 $-1 $131 1 1021323514 1021323515 1644560385 7 #
face $286 -1 $-1 $287 $288 $9 $-1 $289 forward single #
loop $-1 -1 $-1 $-1 $215 $131 #
plane-surface $-1 -1 $-1 3.5355319959113238 -3.7799999999999998 4.6605281758684969 0.70710678118654757 0 0.70710678118654757 0 -1 0 forward_v I I I I #
model_id-kcp-attrib $-1 -1 $-1 $-1 $135 1 1021323514 1021323515 1644560385 19 #
coedge $-1 -1 $-1 $290 $138 $291 $292 reversed $95 $-1 #
coedge $-1 -1 $-1 $138 $290 $293 $294 reversed $95 $-1 #
coedge $-1 -1 $-1 $218 $217 $138 $205 forward $132 $-1 #
edge $-1 -1 $-1 $295 -3.1415926535897931 $296 -3.9474596431116675e-016 $204 $297 forward @7 unknown #
attrib_edge_convexity-kcp-attrib $-1 -1 $298 $-1 $139 1 #
vertex $299 -1 $-1 $139 $300 #
ellipse-curve $-1 -1 $-1 3.0052019100214133 -4.2799999999999994 4.1301980899785864 0 -1 0 0.30935921676911449 0 -0.30935921676911449 1 I I #
convexity-sys-attrib $-1 -1 $-1 $140 $97 #
model_id-kcp-attrib $-1 -1 $-1 $-1 $141 1 1021323514 1021323515 1644560385 16 #
point $-1 -1 $-1 0.30935730674770112 -4.2799999999999994 6.8260426932522984 #
coedge $-1 -1 $-1 $144 $143 $301 $302 forward $65 $-1 #
coedge $-1 -1 $-1 $303 $304 $143 $214 reversed $305 $-1 #
edge $306 -1 $-1 $221 -4.2500000000000009 $307 0 $213 $308 forward @7 unknown #
coedge $-1 -1 $-1 $309 $310 $144 $216 reversed $199 $-1 #
edge $311 -1 $-1 $312 -4.2500000000000009 $220 0 $215 $313 forward @7 unknown #
coedge $-1 -1 $-1 $204 $145 $310 $314 reversed $132 $-1 #
coedge $-1 -1 $-1 $145 $204 $303 $315 forward $132 $-1 #
attrib_edge_convexity-kcp-attrib $-1 -1 $316 $-1 $146 1 #
vertex $-1 -1 $-1 $314 $317 #
vertex $-1 -1 $-1 $315 $318 #
ellipse-curve $-1 -1 $-1 3.0052019100214133 -3.7799999999999998 4.1301980899785864 0 1 0 -0.5303300858899106 0 -0.5303300858899106 1 I I #
convexity-sys-attrib $-1 -1 $-1 $147 $100 #
model_id-kcp-attrib $-1 -1 $-1 $-1 $148 1 1021323514 1021323515 1644560385 23 #
point $-1 -1 $-1 3.3145611267905277 -3.7799999999999998 3.820838873209472 #
model_id-kcp-attrib $-1 -1 $-1 $-1 $153 1 1021323514 1021323515 1644560386 2 #
face $-1 -1 $-1 $-1 $168 $23 $-1 $319 reversed single #
loop $-1 -1 $-1 $-1 $243 $153 #
plane-surface $-1 -1 $-1 0 0.24999999999999978 0 0 -1 0 0 0 -1 forward_v I I I I #
coedge $-1 -1 $-1 $320 $241 $244 $321 forward $154 $-1 #
coedge $-1 -1 $-1 $247 $156 $157 $235 reversed $106 $-1 #
coedge $-1 -1 $-1 $241 $320 $156 $233 reversed $154 $-1 #
edge $-1 -1 $-1 $248 -2.2526019100214132 $322 2.2526019100214132 $232 $323 forward @7 unknown #
coedge $-1 -1 $-1 $158 $157 $320 $324 forward $70 $-1 #
edge $-1 -1 $-1 $239 -2.2526019100214132 $322 2.2526019100214132 $231 $325 forward @7 unknown #
coedge $-1 -1 $-1 $244 $243 $158 $237 reversed $228 $-1 #
edge $-1 -1 $-1 $326 -2.2526019100214132 $238 2.2526019100214132 $236 $327 forward @7 unknown #
vertex $-1 -1 $-1 $160 $328 #
vertex $-1 -1 $-1 $250 $329 #
straight-curve $-1 -1 $-1 2.2526019100214132 0 -2.2526019100214132 0 -1 0 I I #
coedge $-1 -1 $-1 $230 $232 $161 $242 reversed $154 $-1 #
edge $-1 -1 $-1 $245 -0.24999999999999978 $248 0.24999999999999978 $241 $330 forward @7 unknown #
coedge $-1 -1 $-1 $236 $162 $167 $251 forward $228 $-1 #
coedge $-1 -1 $-1 $162 $236 $230 $321 reversed $228 $-1 #
vertex $-1 -1 $-1 $163 $331 #
straight-curve $-1 -1 $-1 0 0.24999999999999978 2.2526019100214132 -1 0 0 I I #
coedge $-1 -1 $-1 $164 $231 $166 $250 reversed $106 $-1 #
vertex $-1 -1 $-1 $242 $332 #
straight-curve $-1 -1 $-1 0 -0.24999999999999978 2.2526019100214132 1 0 0 I I #
edge $-1 -1 $-1 $169 -2.2526019100214132 $239 2.2526019100214132 $166 $333 forward @7 unknown #
edge $-1 -1 $-1 $170 -2.2526019100214132 $238 2.2526019100214132 $167 $334 forward @7 unknown #
point $-1 -1 $-1 2.2526019100214132 -0.24999999999999978 2.2526019100214132 #
point $-1 -1 $-1 2.2526019100214132 0.24999999999999978 2.2526019100214132 #
vertex $-1 -1 $-1 $173 $335 #
ellipse-curve $-1 -1 $-1 0 0 0.24999999999999978 0 0 1 0.43749999999999994 0 0 1 I I #
point $-1 -1 $-1 0.43749999999999994 0 -0.24999999999999978 #
vertex $-1 -1 $-1 $177 $336 #
ellipse-curve $-1 -1 $-1 0 0 0.24999999999999978 0 0 1 0.43749999999999994 0 0 1 I I #
point $-1 -1 $-1 0.43749999999999994 0 -0.24999999999999978 #
face $-1 -1 $-1 $337 $338 $29 $-1 $85 reversed single #
loop $-1 -1 $-1 $-1 $278 $180 #
coedge $-1 -1 $-1 $339 $340 $341 $342 reversed $181 $-1 #
coedge $-1 -1 $-1 $343 $183 $344 $345 forward $124 $-1 #
coedge $-1 -1 $-1 $183 $343 $346 $347 forward $124 $-1 #
coedge $-1 -1 $-1 $348 $349 $183 $266 forward $350 $-1 #
edge $-1 -1 $-1 $351 -3.1415926535897918 $352 -2.3561944901923444 $265 $272 forward @7 unknown #
coedge $-1 -1 $-1 $185 $184 $353 $354 reversed $84 $-1 #
coedge $-1 -1 $-1 $355 $356 $357 $269 forward $358 $-1 #
edge $-1 -1 $-1 $359 -0.49999999999999933 $271 2.2204460492503131e-016 $268 $360 forward @7 unknown #
coedge $-1 -1 $-1 $186 $281 $355 $361 forward $193 $-1 #
vertex $-1 -1 $-1 $362 $363 #
ellipse-curve $-1 -1 $-1 1.5026019100214134 0.24999999999999978 -1.5026019100214132 0 -1 0 0.53033008588991071 0 0.53033008588991026 1 I I #
coedge $-1 -1 $-1 $353 $364 $188 $274 forward $365 $-1 #
edge $-1 -1 $-1 $279 -3.1875000000000009 $275 1.0624999999999998 $273 $366 forward @7 unknown #
vertex $-1 -1 $-1 $354 $367 #
straight-curve $-1 -1 $-1 2.0329319959113237 0.24999999999999956 -0.9722718241315027 0 -1 0 I I #
coedge $-1 -1 $-1 $368 $190 $364 $369 reversed $261 $-1 #
coedge $-1 -1 $-1 $190 $368 $192 $282 reversed $261 $-1 #
vertex $-1 -1 $-1 $274 $370 #
straight-curve $-1 -1 $-1 -0.97227182413150359 0.24999999999999956 2.0329319959113246 0 -1 0 I I #
coedge $-1 -1 $-1 $270 $192 $371 $372 reversed $193 $-1 #
edge $-1 -1 $-1 $195 -3.1415926535897913 $373 -2.3561944901923448 $192 $374 forward @7 unknown #
face $-1 -1 $-1 $375 $193 $29 $-1 $376 reversed single #
point $-1 -1 $-1 2.0329319959113237 0.24999999999999978 -0.9722718241315027 #
point $-1 -1 $-1 -0.97227182413150359 0.24999999999999978 2.0329319959113246 #
model_id-kcp-attrib $-1 -1 $-1 $-1 $198 1 1021323514 1021323515 1644560385 8 #
face $377 -1 $-1 $-1 $305 $9 $-1 $378 forward single #
loop $-1 -1 $-1 $-1 $301 $198 #
cone-surface $-1 -1 $-1 -1.9100214134759597e-006 -3.7799999999999998 7.1354019100214128 0 -1 0 0.5303300858899106 0 -0.5303300858899106 1 I I 0 1 0.75 forward I I I I #
coedge $-1 -1 $-1 $203 $202 $379 $380 reversed $95 $-1 #
coedge $-1 -1 $-1 $310 $309 $202 $292 forward $199 $-1 #
edge $381 -1 $-1 $382 -4.2500000000000009 $295 0 $291 $383 forward @7 unknown #
coedge $-1 -1 $-1 $304 $303 $203 $294 forward $305 $-1 #
edge $-1 -1 $-1 $296 -4.2500000000000009 $384 0 $293 $385 forward @7 unknown #
vertex $-1 -1 $-1 $314 $386 #
vertex $-1 -1 $-1 $315 $387 #
ellipse-curve $-1 -1 $-1 3.0052019100214133 -4.2799999999999994 4.1301980899785864 0 1 0 -0.5303300858899106 0 -0.5303300858899106 1 I I #
convexity-sys-attrib $-1 -1 $-1 $206 $139 #
model_id-kcp-attrib $-1 -1 $-1 $-1 $207 1 1021323514 1021323515 1644560385 22 #
point $-1 -1 $-1 3.3145611267905277 -4.2799999999999994 3.820838873209472 #
coedge $-1 -1 $-1 $388 $389 $212 $302 reversed $288 $-1 #
edge $390 -1 $-1 $307 -3.1415926535897931 $312 -7.894919286223331e-016 $301 $391 forward @7 unknown #
coedge $-1 -1 $-1 $293 $213 $218 $315 reversed $305 $-1 #
coedge $-1 -1 $-1 $213 $293 $388 $392 forward $305 $-1 #
loop $-1 -1 $-1 $-1 $213 $287 #
attrib_edge_convexity-kcp-attrib $-1 -1 $393 $-1 $214 1 #
vertex $-1 -1 $-1 $392 $394 #
straight-curve $-1 -1 $-1 -0.53033199591132418 -3.7799999999999998 6.6050718241315023 -0.70710678118654746 0 0.70710678118654746 I I #
coedge $-1 -1 $-1 $291 $215 $389 $395 reversed $199 $-1 #
coedge $-1 -1 $-1 $215 $291 $217 $314 forward $199 $-1 #
attrib_edge_convexity-kcp-attrib $-1 -1 $396 $-1 $216 1 #
vertex $-1 -1 $-1 $395 $397 #
straight-curve $-1 -1 $-1 3.5355319959113238 -3.7799999999999998 4.6605281758684969 0.70710678118654746 0 -0.70710678118654746 I I #
edge $398 -1 $-1 $295 -0.49999999999999956 $220 0 $310 $399 forward @7 unknown #
edge $-1 -1 $-1 $296 -0.49999999999999956 $221 0 $303 $400 forward @7 unknown #
convexity-sys-attrib $-1 -1 $-1 $219 $146 #
point $-1 -1 $-1 3.5355319959113238 -3.7799999999999998 4.6605281758684969 #
point $-1 -1 $-1 2.4748718241315029 -3.7799999999999998 3.5998680040886755 #
plane-surface $-1 -1 $-1 2.2526019100214132 0 0 -1 0 0 0 0 1 forward_v I I I I #
coedge $-1 -1 $-1 $232 $230 $234 $324 reversed $154 $-1 #
edge $-1 -1 $-1 $245 -2.2526019100214132 $326 2.2526019100214132 $244 $401 forward @7 unknown #
vertex $-1 -1 $-1 $324 $402 #
straight-curve $-1 -1 $-1 -2.2526019100214132 -0.24999999999999978 0 0 0 -1 I I #
edge $-1 -1 $-1 $322 -0.24999999999999978 $326 0.24999999999999978 $320 $403 forward @7 unknown #
straight-curve $-1 -1 $-1 0 -0.24999999999999978 -2.2526019100214132 -1 0 0 I I #
vertex $-1 -1 $-1 $237 $404 #
straight-curve $-1 -1 $-1 0 0.24999999999999978 -2.2526019100214132 1 0 0 I I #
point $-1 -1 $-1 2.2526019100214132 0.24999999999999978 -2.2526019100214132 #
point $-1 -1 $-1 2.2526019100214132 -0.24999999999999978 -2.2526019100214132 #
straight-curve $-1 -1 $-1 -2.2526019100214132 0 2.2526019100214132 0 -1 0 I I #
point $-1 -1 $-1 -2.2526019100214132 0.24999999999999978 2.2526019100214132 #
point $-1 -1 $-1 -2.2526019100214132 -0.24999999999999978 2.2526019100214132 #
straight-curve $-1 -1 $-1 2.2526019100214132 -0.24999999999999978 0 0 0 -1 I I #
straight-curve $-1 -1 $-1 2.2526019100214132 0.24999999999999978 0 0 0 -1 I I #
point $-1 -1 $-1 0.43749999999999994 0 0.24999999999999978 #
point $-1 -1 $-1 0.43749999999999994 0 0.24999999999999978 #
face $-1 -1 $-1 $405 $406 $29 $-1 $182 reversed single #
loop $-1 -1 $-1 $-1 $346 $260 #
coedge $-1 -1 $-1 $407 $262 $408 $409 reversed $181 $-1 #
coedge $-1 -1 $-1 $262 $407 $410 $411 forward $181 $-1 #
coedge $-1 -1 $-1 $349 $412 $262 $342 forward $350 $-1 #
edge $-1 -1 $-1 $413 -0.78539816339744806 $414 0 $341 $374 forward @7 unknown #
coedge $-1 -1 $-1 $264 $263 $415 $416 reversed $124 $-1 #
coedge $-1 -1 $-1 $417 $418 $263 $345 reversed $419 $-1 #
edge $-1 -1 $-1 $351 -2.2204460492503131e-016 $420 0.49999999999999933 $344 $421 forward @7 unknown #
coedge $-1 -1 $-1 $422 $423 $424 $347 reversed $338 $-1 #
edge $-1 -1 $-1 $425 -0.49999999999999933 $352 2.2204460492503131e-016 $424 $426 forward @7 unknown #
coedge $-1 -1 $-1 $412 $265 $427 $428 reversed $350 $-1 #
coedge $-1 -1 $-1 $265 $341 $417 $429 forward $350 $-1 #
loop $-1 -1 $-1 $-1 $265 $430 #
vertex $-1 -1 $-1 $266 $431 #
vertex $-1 -1 $-1 $432 $433 #
coedge $-1 -1 $-1 $434 $273 $267 $354 forward $365 $-1 #
edge $-1 -1 $-1 $275 -5.9211894646675062e-016 $359 0.78539816339744795 $353 $435 forward @7 unknown #
coedge $-1 -1 $-1 $436 $268 $270 $361 reversed $358 $-1 #
coedge $-1 -1 $-1 $268 $436 $434 $437 forward $358 $-1 #
coedge $-1 -1 $-1 $438 $439 $440 $269 reversed $441 $-1 #
loop $-1 -1 $-1 $-1 $268 $442 #
vertex $-1 -1 $-1 $443 $444 #
straight-curve $-1 -1 $-1 2.2526019100214132 0.24999999999999956 -1.5026019100214132 0 1 0 I I #
edge $-1 -1 $-1 $445 -2.2526019100214132 $271 1.5026019100214132 $355 $446 forward @7 unknown #
edge $-1 -1 $-1 $271 1.5026019100214132 $447 2.2526019100214132 $439 $446 forward @7 unknown #
point $-1 -1 $-1 2.2526019100214132 0.24999999999999978 -1.5026019100214132 #
coedge $-1 -1 $-1 $273 $448 $277 $369 forward $365 $-1 #
loop $-1 -1 $-1 $-1 $353 $449 #
straight-curve $-1 -1 $-1 1.2816310409006171 -0.24999999999999978 -0.22097086912079611 0.70710678118654757 0 -0.70710678118654757 I I #
point $-1 -1 $-1 2.0329319959113237 -0.24999999999999978 -0.9722718241315027 #
coedge $-1 -1 $-1 $278 $277 $450 $451 forward $261 $-1 #
edge $-1 -1 $-1 $452 2.3561944901923448 $279 3.1415926535897913 $364 $453 forward @7 unknown #
point $-1 -1 $-1 -0.97227182413150359 -0.24999999999999978 2.0329319959113246 #
coedge $-1 -1 $-1 $454 $455 $281 $372 forward $456 $-1 #
edge $-1 -1 $-1 $445 -2.2526019100214132 $373 1.5026019100214134 $281 $457 forward @7 unknown #
vertex $-1 -1 $-1 $458 $459 #
ellipse-curve $-1 -1 $-1 -1.5026019100214134 0.24999999999999978 1.5026019100214132 0 -1 0 -0.53033008588991071 0 -0.53033008588991049 1 I I #
face $-1 -1 $-1 $460 $461 $29 $-1 $376 reversed single #
plane-surface $-1 -1 $-1 0 0.24999999999999978 0 0 -1 0 0 0 -1 forward_v I I I I #
model_id-kcp-attrib $-1 -1 $-1 $-1 $287 1 1021323514 1021323515 1644560385 9 #
plane-surface $-1 -1 $-1 -0.53033199591132418 -3.7799999999999998 6.6050718241315023 -0.70710678118654757 0 -0.70710678118654757 0 1 0 forward_v I I I I #
coedge $-1 -1 $-1 $389 $388 $290 $380 forward $288 $-1 #
edge $-1 -1 $-1 $384 -3.1415926535897931 $382 -7.894919286223331e-016 $379 $462 forward @7 unknown #
attrib_edge_convexity-kcp-attrib $-1 -1 $463 $-1 $292 1 #
vertex $-1 -1 $-1 $395 $464 #
straight-curve $-1 -1 $-1 3.5355319959113238 -4.2799999999999994 4.6605281758684969 0.70710678118654746 0 -0.70710678118654746 I I #
vertex $-1 -1 $-1 $392 $465 #
straight-curve $-1 -1 $-1 -0.53033199591132418 -4.2799999999999994 6.6050718241315023 -0.70710678118654746 0 0.70710678118654746 I I #
point $-1 -1 $-1 3.5355319959113238 -4.2799999999999994 4.6605281758684969 #
point $-1 -1 $-1 2.4748718241315029 -4.2799999999999994 3.5998680040886755 #
coedge $-1 -1 $-1 $379 $301 $304 $392 reversed $288 $-1 #
coedge $-1 -1 $-1 $301 $379 $309 $395 forward $288 $-1 #
attrib_edge_convexity-kcp-attrib $-1 -1 $466 $-1 $302 1 #
ellipse-curve $-1 -1 $-1 -1.9100214134759597e-006 -3.7799999999999998 7.1354019100214128 0 1 0 0.5303300858899106 0 0.5303300858899106 1 I I #
edge $-1 -1 $-1 $384 -0.49999999999999956 $307 0 $304 $467 forward @7 unknown #
convexity-sys-attrib $-1 -1 $-1 $306 $214 #
point $-1 -1 $-1 -0.53033199591132418 -3.7799999999999998 6.6050718241315023 #
edge $468 -1 $-1 $382 -0.49999999999999956 $312 0 $389 $469 forward @7 unknown #
convexity-sys-attrib $-1 -1 $-1 $311 $216 #
point $-1 -1 $-1 0.53032817586849712 -3.7799999999999998 7.6657319959113241 #
attrib_edge_convexity-kcp-attrib $-1 -1 $470 $-1 $314 3 #
straight-curve $-1 -1 $-1 3.5355319959113238 -3.7799999999999998 4.6605281758684969 0 1 0 I I #
straight-curve $-1 -1 $-1 2.4748718241315029 -3.7799999999999998 3.5998680040886755 0 1 0 I I #
straight-curve $-1 -1 $-1 -2.2526019100214132 0.24999999999999978 0 0 0 -1 I I #
point $-1 -1 $-1 -2.2526019100214132 -0.24999999999999978 -2.2526019100214132 #
straight-curve $-1 -1 $-1 -2.2526019100214132 0 -2.2526019100214132 0 1 0 I I #
point $-1 -1 $-1 -2.2526019100214132 0.24999999999999978 -2.2526019100214132 #
face $-1 -1 $-1 $471 $419 $29 $-1 $472 reversed single #
loop $-1 -1 $-1 $-1 $473 $337 #
coedge $-1 -1 $-1 $340 $339 $474 $475 reversed $181 $-1 #
coedge $-1 -1 $-1 $476 $477 $478 $409 forward $479 $-1 #
edge $-1 -1 $-1 $480 -0.49999999999999933 $413 2.2204460492503131e-016 $408 $481 forward @7 unknown #
coedge $-1 -1 $-1 $418 $417 $340 $411 reversed $419 $-1 #
edge $-1 -1 $-1 $482 -0.49999999999999933 $414 2.2204460492503131e-016 $410 $483 forward @7 unknown #
coedge $-1 -1 $-1 $341 $348 $476 $484 reversed $350 $-1 #
vertex $-1 -1 $-1 $484 $485 #
vertex $-1 -1 $-1 $342 $486 #
coedge $-1 -1 $-1 $487 $488 $343 $416 forward $489 $-1 #
edge $-1 -1 $-1 $425 2.3561944901923444 $420 3.1415926535897918 $415 $435 forward @7 unknown #
coedge $-1 -1 $-1 $410 $344 $349 $429 reversed $419 $-1 #
coedge $-1 -1 $-1 $344 $410 $487 $490 reversed $419 $-1 #
loop $-1 -1 $-1 $-1 $417 $405 #
vertex $-1 -1 $-1 $416 $491 #
straight-curve $-1 -1 $-1 0.97227182413150293 0.24999999999999956 -2.0329319959113246 0 -1 0 I I #
coedge $-1 -1 $-1 $440 $346 $492 $493 reversed $338 $-1 #
coedge $-1 -1 $-1 $346 $440 $494 $495 reversed $338 $-1 #
coedge $-1 -1 $-1 $496 $497 $498 $347 forward $499 $-1 #
vertex $-1 -1 $-1 $500 $501 #
straight-curve $-1 -1 $-1 1.5026019100214134 0.24999999999999956 -2.2526019100214132 0 1 0 I I #
coedge $-1 -1 $-1 $498 $502 $348 $428 forward $503 $-1 #
edge $-1 -1 $-1 $504 -2.2526019100214132 $352 1.5026019100214134 $348 $505 forward @7 unknown #
edge $-1 -1 $-1 $414 -1.0625 $351 3.1875000000000009 $349 $506 forward @7 unknown #
face $-1 -1 $-1 $507 $350 $29 $-1 $376 reversed single #
point $-1 -1 $-1 0.97227182413150293 0.24999999999999978 -2.0329319959113246 #
edge $-1 -1 $-1 $352 1.5026019100214134 $447 2.2526019100214132 $508 $505 forward @7 unknown #
point $-1 -1 $-1 1.5026019100214134 0.24999999999999978 -2.2526019100214132 #
coedge $-1 -1 $-1 $448 $353 $356 $437 reversed $365 $-1 #
ellipse-curve $-1 -1 $-1 1.5026019100214134 -0.24999999999999978 -1.5026019100214132 0 1 0 0.53033008588991071 0 0.53033008588991026 1 I I #
coedge $-1 -1 $-1 $356 $355 $455 $509 reversed $358 $-1 #
edge $-1 -1 $-1 $510 -2.2526019100214132 $359 1.5026019100214132 $356 $511 forward @7 unknown #
coedge $-1 -1 $-1 $512 $357 $513 $443 forward $441 $-1 #
coedge $-1 -1 $-1 $357 $512 $514 $362 reversed $441 $-1 #
coedge $-1 -1 $-1 $423 $422 $184 $269 forward $338 $-1 #
loop $-1 -1 $-1 $-1 $357 $471 #
face $-1 -1 $-1 $-1 $358 $29 $-1 $515 reversed single #
edge $-1 -1 $-1 $359 1.5026019100214132 $516 2.2526019100214132 $438 $511 forward @7 unknown #
point $-1 -1 $-1 2.2526019100214132 -0.24999999999999978 -1.5026019100214132 #
vertex $-1 -1 $-1 $509 $517 #
straight-curve $-1 -1 $-1 2.2526019100214132 0.24999999999999978 0 0 0 -1 I I #
vertex $-1 -1 $-1 $518 $519 #
coedge $-1 -1 $-1 $364 $434 $520 $521 reversed $365 $-1 #
face $-1 -1 $-1 $522 $365 $29 $-1 $523 reversed single #
coedge $-1 -1 $-1 $473 $524 $525 $451 reversed $406 $-1 #
edge $-1 -1 $-1 $452 -0.49999999999999933 $373 2.2204460492503131e-016 $525 $526 forward @7 unknown #
vertex $-1 -1 $-1 $521 $527 #
ellipse-curve $-1 -1 $-1 -1.5026019100214134 -0.24999999999999978 1.5026019100214132 0 1 0 -0.53033008588991071 0 -0.53033008588991049 1 I I #
coedge $-1 -1 $-1 $520 $371 $368 $451 reversed $456 $-1 #
coedge $-1 -1 $-1 $371 $520 $436 $509 forward $456 $-1 #
loop $-1 -1 $-1 $-1 $454 $460 #
straight-curve $-1 -1 $-1 0 0.24999999999999978 2.2526019100214132 -1 0 0 I I #
edge $-1 -1 $-1 $373 1.5026019100214134 $528 2.2526019100214132 $529 $457 forward @7 unknown #
point $-1 -1 $-1 -1.5026019100214134 0.24999999999999978 2.2526019100214132 #
face $-1 -1 $-1 $530 $456 $29 $-1 $531 forward single #
loop $-1 -1 $-1 $-1 $532 $375 #
ellipse-curve $-1 -1 $-1 -1.9100214134759597e-006 -4.2799999999999994 7.1354019100214128 0 1 0 0.5303300858899106 0 0.5303300858899106 1 I I #
convexity-sys-attrib $-1 -1 $-1 $381 $292 #
point $-1 -1 $-1 0.53032817586849712 -4.2799999999999994 7.6657319959113241 #
point $-1 -1 $-1 -0.53033199591132418 -4.2799999999999994 6.6050718241315023 #
convexity-sys-attrib $-1 -1 $-1 $390 $302 #
straight-curve $-1 -1 $-1 -0.53033199591132418 -3.7799999999999998 6.6050718241315023 0 1 0 I I #
attrib_edge_convexity-kcp-attrib $-1 -1 $533 $-1 $395 3 #
straight-curve $-1 -1 $-1 0.53032817586849712 -3.7799999999999998 7.6657319959113241 0 1 0 I I #
convexity-sys-attrib $-1 -1 $-1 $398 $314 #
face $-1 -1 $-1 $534 $441 $29 $-1 $515 reversed single #
plane-surface $-1 -1 $-1 -2.0329319959113241 0.24999999999999956 0.9722718241315027 -0.70710678118654757 0 -0.70710678118654757 0 -1 0 forward_v I I I I #
coedge $-1 -1 $-1 $535 $450 $536 $537 reversed $406 $-1 #
coedge $-1 -1 $-1 $538 $487 $407 $475 forward $489 $-1 #
edge $-1 -1 $-1 $482 0 $480 0.78539816339744806 $474 $453 forward @7 unknown #
coedge $-1 -1 $-1 $539 $408 $412 $484 forward $479 $-1 #
coedge $-1 -1 $-1 $408 $539 $538 $540 reversed $479 $-1 #
coedge $-1 -1 $-1 $541 $542 $535 $409 reversed $543 $-1 #
loop $-1 -1 $-1 $-1 $408 $544 #
vertex $-1 -1 $-1 $540 $545 #
straight-curve $-1 -1 $-1 -2.2526019100214132 0.24999999999999956 1.5026019100214132 0 1 0 I I #
vertex $-1 -1 $-1 $475 $546 #
straight-curve $-1 -1 $-1 -2.0329319959113241 0.24999999999999956 0.9722718241315027 0 1 0 I I #
edge $-1 -1 $-1 $413 -1.5026019100214132 $504 2.2526019100214132 $412 $547 forward @7 unknown #
point $-1 -1 $-1 -2.2526019100214132 0.24999999999999978 1.5026019100214132 #
point $-1 -1 $-1 -2.0329319959113241 0.24999999999999978 0.9722718241315027 #
coedge $-1 -1 $-1 $474 $415 $418 $490 forward $489 $-1 #
coedge $-1 -1 $-1 $415 $538 $548 $500 reversed $489 $-1 #
loop $-1 -1 $-1 $-1 $415 $549 #
edge $-1 -1 $-1 $420 -3.1875000000000009 $482 1.0625 $487 $550 forward @7 unknown #
point $-1 -1 $-1 0.97227182413150293 -0.24999999999999978 -2.0329319959113246 #
coedge $-1 -1 $-1 $551 $513 $422 $493 forward $552 $-1 #
edge $-1 -1 $-1 $359 0.78539816339744795 $425 2.3561944901923444 $492 $435 forward @7 unknown #
coedge $-1 -1 $-1 $514 $508 $423 $495 forward $553 $-1 #
edge $-1 -1 $-1 $352 -2.3561944901923444 $271 -0.78539816339744795 $494 $272 forward @7 unknown #
coedge $-1 -1 $-1 $554 $424 $508 $432 forward $499 $-1 #
coedge $-1 -1 $-1 $424 $554 $551 $555 forward $499 $-1 #
coedge $-1 -1 $-1 $548 $427 $264 $347 reversed $503 $-1 #
loop $-1 -1 $-1 $-1 $424 $556 #
edge $-1 -1 $-1 $425 -1.5026019100214134 $557 2.2526019100214132 $488 $558 forward @7 unknown #
point $-1 -1 $-1 1.5026019100214134 -0.24999999999999978 -2.2526019100214132 #
coedge $-1 -1 $-1 $427 $548 $539 $559 forward $503 $-1 #
loop $-1 -1 $-1 $-1 $498 $534 #
vertex $-1 -1 $-1 $428 $560 #
straight-curve $-1 -1 $-1 0 0.24999999999999978 -2.2526019100214132 1 0 0 I I #
straight-curve $-1 -1 $-1 -1.2816310409006175 0.24999999999999978 0.220970869120796 0.70710678118654757 0 -0.70710678118654757 I I #
face $-1 -1 $-1 $283 $553 $29 $-1 $376 reversed single #
coedge $-1 -1 $-1 $494 $514 $496 $432 reversed $553 $-1 #
edge $-1 -1 $-1 $510 -0.24999999999999978 $445 0.24999999999999978 $436 $561 forward @7 unknown #
vertex $-1 -1 $-1 $509 $562 #
straight-curve $-1 -1 $-1 2.2526019100214132 -0.24999999999999978 0 0 0 -1 I I #
coedge $-1 -1 $-1 $439 $438 $554 $518 reversed $441 $-1 #
coedge $-1 -1 $-1 $492 $551 $438 $443 reversed $552 $-1 #
coedge $-1 -1 $-1 $508 $494 $439 $362 forward $553 $-1 #
plane-surface $-1 -1 $-1 2.2526019100214132 0 0 -1 0 0 0 0 1 forward_v I I I I #
vertex $-1 -1 $-1 $443 $563 #
point $-1 -1 $-1 2.2526019100214132 0.24999999999999978 2.2526019100214132 #
edge $-1 -1 $-1 $447 -0.24999999999999978 $516 0.24999999999999978 $512 $564 forward @7 unknown #
point $-1 -1 $-1 2.2526019100214132 0.24999999999999978 -2.2526019100214132 #
coedge $-1 -1 $-1 $455 $454 $448 $521 forward $456 $-1 #
edge $-1 -1 $-1 $452 -1.5026019100214134 $510 2.2526019100214132 $448 $565 forward @7 unknown #
face $-1 -1 $-1 $549 $552 $29 $-1 $523 reversed single #
plane-surface $-1 -1 $-1 0 -0.24999999999999978 0 0 1 0 0 0 1 forward_v I I I I #
coedge $-1 -1 $-1 $450 $535 $532 $566 reversed $406 $-1 #
coedge $-1 -1 $-1 $567 $568 $454 $451 forward $569 $-1 #
straight-curve $-1 -1 $-1 -1.5026019100214134 0.24999999999999956 2.2526019100214132 0 1 0 I I #
point $-1 -1 $-1 -1.5026019100214134 -0.24999999999999978 2.2526019100214132 #
vertex $-1 -1 $-1 $458 $570 #
coedge $-1 -1 $-1 $532 $571 $567 $458 reversed $461 $-1 #
face $-1 -1 $-1 $449 $572 $29 $-1 $523 reversed single #
plane-surface $-1 -1 $-1 0 0 2.2526019100214132 0 0 1 1 0 0 forward_v I I I I #
coedge $-1 -1 $-1 $571 $529 $524 $566 forward $461 $-1 #
convexity-sys-attrib $-1 -1 $-1 $468 $395 #
face $-1 -1 $-1 $430 $503 $29 $-1 $573 reversed single #
coedge $-1 -1 $-1 $524 $473 $339 $409 forward $406 $-1 #
coedge $-1 -1 $-1 $574 $575 $473 $537 forward $572 $-1 #
edge $-1 -1 $-1 $480 0.78539816339744806 $452 2.3561944901923448 $536 $453 forward @7 unknown #
coedge $-1 -1 $-1 $488 $474 $477 $540 forward $489 $-1 #
coedge $-1 -1 $-1 $477 $476 $502 $559 reversed $479 $-1 #
edge $-1 -1 $-1 $480 -1.5026019100214132 $557 2.2526019100214132 $477 $576 forward @7 unknown #
coedge $-1 -1 $-1 $577 $478 $575 $578 reversed $543 $-1 #
coedge $-1 -1 $-1 $478 $577 $571 $579 forward $543 $-1 #
loop $-1 -1 $-1 $-1 $478 $580 #
face $-1 -1 $-1 $442 $479 $29 $-1 $581 reversed single #
point $-1 -1 $-1 -2.2526019100214132 -0.24999999999999978 1.5026019100214132 #
point $-1 -1 $-1 -2.0329319959113241 -0.24999999999999978 0.9722718241315027 #
straight-curve $-1 -1 $-1 -2.2526019100214132 0.24999999999999978 0 0 0 -1 I I #
coedge $-1 -1 $-1 $502 $498 $488 $500 forward $503 $-1 #
face $-1 -1 $-1 $580 $489 $29 $-1 $523 reversed single #
straight-curve $-1 -1 $-1 -1.2816310409006175 -0.24999999999999978 0.220970869120796 -0.70710678118654757 0 0.70710678118654757 I I #
coedge $-1 -1 $-1 $513 $492 $497 $555 reversed $552 $-1 #
loop $-1 -1 $-1 $-1 $492 $522 #
loop $-1 -1 $-1 $-1 $494 $507 #
coedge $-1 -1 $-1 $497 $496 $512 $518 forward $499 $-1 #
edge $-1 -1 $-1 $516 -2.2526019100214132 $425 -1.5026019100214134 $551 $558 forward @7 unknown #
face $-1 -1 $-1 $544 $499 $29 $-1 $573 reversed single #
vertex $-1 -1 $-1 $559 $582 #
straight-curve $-1 -1 $-1 0 -0.24999999999999978 -2.2526019100214132 -1 0 0 I I #
edge $-1 -1 $-1 $557 -0.24999999999999978 $504 0.24999999999999978 $539 $583 forward @7 unknown #
point $-1 -1 $-1 -2.2526019100214132 0.24999999999999978 -2.2526019100214132 #
straight-curve $-1 -1 $-1 2.2526019100214132 0 2.2526019100214132 0 1 0 I I #
point $-1 -1 $-1 2.2526019100214132 -0.24999999999999978 2.2526019100214132 #
point $-1 -1 $-1 2.2526019100214132 -0.24999999999999978 -2.2526019100214132 #
straight-curve $-1 -1 $-1 2.2526019100214132 0 -2.2526019100214132 0 -1 0 I I #
straight-curve $-1 -1 $-1 0 -0.24999999999999978 2.2526019100214132 1 0 0 I I #
edge $-1 -1 $-1 $373 -2.3561944901923448 $413 -0.78539816339744806 $532 $374 forward @7 unknown #
coedge $-1 -1 $-1 $584 $525 $529 $458 forward $569 $-1 #
coedge $-1 -1 $-1 $525 $584 $574 $585 forward $569 $-1 #
loop $-1 -1 $-1 $-1 $525 $586 #
point $-1 -1 $-1 -2.2526019100214132 0.24999999999999978 2.2526019100214132 #
coedge $-1 -1 $-1 $529 $532 $542 $579 reversed $461 $-1 #
loop $-1 -1 $-1 $-1 $536 $530 #
plane-surface $-1 -1 $-1 0 0 -2.2526019100214132 0 0 1 1 0 0 forward_v I I I I #
coedge $-1 -1 $-1 $575 $536 $568 $585 reversed $572 $-1 #
coedge $-1 -1 $-1 $536 $574 $541 $578 forward $572 $-1 #
straight-curve $-1 -1 $-1 -2.2526019100214132 -0.24999999999999978 0 0 0 -1 I I #
coedge $-1 -1 $-1 $542 $541 $584 $587 reversed $543 $-1 #
edge $-1 -1 $-1 $588 -2.2526019100214132 $480 -1.5026019100214132 $541 $576 forward @7 unknown #
edge $-1 -1 $-1 $528 -2.2526019100214132 $413 -1.5026019100214132 $571 $547 forward @7 unknown #
face $-1 -1 $-1 $586 $543 $29 $-1 $581 reversed single #
plane-surface $-1 -1 $-1 -2.2526019100214132 0 0 1 0 0 0 0 -1 forward_v I I I I #
point $-1 -1 $-1 -2.2526019100214132 -0.24999999999999978 -2.2526019100214132 #
straight-curve $-1 -1 $-1 -2.2526019100214132 0 -2.2526019100214132 0 1 0 I I #
coedge $-1 -1 $-1 $568 $567 $577 $587 forward $569 $-1 #
edge $-1 -1 $-1 $588 -2.2526019100214132 $452 -1.5026019100214134 $574 $565 forward @7 unknown #
face $-1 -1 $-1 $556 $569 $29 $-1 $531 forward single #
edge $-1 -1 $-1 $528 -0.24999999999999978 $588 0.24999999999999978 $577 $589 forward @7 unknown #
vertex $-1 -1 $-1 $587 $590 #
straight-curve $-1 -1 $-1 -2.2526019100214132 0 2.2526019100214132 0 -1 0 I I #
point $-1 -1 $-1 -2.2526019100214132 -0.24999999999999978 2.2526019100214132 #
End-of-ACIS-data 