201 0 1 0           
7 Unknown 11 ACIS 2.1 NT 24 Fri Jun 05 10:45:25 1998 
-1 9.9999999999999995e-007 1e-010 
body $-1 $1 $-1 $2 #
lump $-1 $-1 $3 $0 #
transform $-1 0.70710678118654746 0 0.70710678118654746 0 -1 0 0.70710678118654746 0 -0.70710678118654746 -3.0052 -5.0300 4.1302 0.99999999999999989 no_rotate no_reflect no_shear #
shell $-1 $-1 $-1 $4 $-1 $1 #
face $-1 $5 $6 $3 $-1 $7 reversed single #
face $-1 $8 $9 $3 $-1 $10 forward single #
loop $-1 $11 $12 $4 #
plane-surface $-1 0 0 0 0 1 0 0 0 1 forward_v I I I I #
face $-1 $13 $14 $3 $-1 $15 forward single #
loop $-1 $16 $17 $5 #
plane-surface $-1 0 0.187 0 0 1 0 0 0 1 forward_v I I I I #
loop $-1 $-1 $18 $4 #
coedge $-1 $19 $20 $21 $22 0 $6 $-1 #
face $-1 $23 $24 $3 $-1 $25 forward single #
loop $-1 $-1 $21 $8 #
plane-surface $-1 -0.128518519929991 0 -0.2185 -0.87400000000000011 0 -0.48592592028003606 -0.48592592028003601 0 0.874 forward_v I I I I #
loop $-1 $-1 $26 $5 #
coedge $-1 $27 $28 $29 $30 1 $9 $-1 #
coedge $-1 $18 $18 $31 $32 0 $11 $-1 #
coedge $-1 $33 $12 $34 $35 0 $6 $-1 #
coedge $-1 $12 $36 $37 $38 0 $6 $-1 #
coedge $-1 $39 $40 $12 $22 1 $14 $-1 #
edge $-1 $41 $42 $21 $43 forward #
face $-1 $44 $45 $3 $-1 $46 forward single #
loop $-1 $-1 $37 $13 #
plane-surface $-1 -0.25 0 0 -0.87400000000000011 0 0.48592592028003606 0.48592592028003601 0 0.874 forward_v I I I I #
coedge $-1 $26 $26 $47 $48 1 $16 $-1 #
coedge $-1 $49 $17 $50 $51 1 $9 $-1 #
coedge $-1 $17 $52 $53 $54 1 $9 $-1 #
coedge $-1 $40 $39 $17 $30 0 $14 $-1 #
edge $-1 $55 $56 $29 $57 forward #
coedge $-1 $31 $31 $18 $32 1 $58 $-1 #
edge $-1 $59 $59 $31 $60 forward #
coedge $-1 $61 $19 $62 $63 0 $6 $-1 #
coedge $-1 $64 $65 $19 $35 1 $66 $-1 #
edge $-1 $42 $67 $34 $68 forward #
coedge $-1 $20 $61 $69 $70 0 $6 $-1 #
coedge $-1 $71 $72 $20 $38 1 $24 $-1 #
edge $-1 $73 $41 $37 $74 forward #
coedge $-1 $29 $21 $72 $75 1 $14 $-1 #
coedge $-1 $21 $29 $64 $76 0 $14 $-1 #
vertex $-1 $75 $77 #
vertex $-1 $76 $78 #
straight-curve $-1 -0.128518519929991 0 -0.2185 0.48592592028003601 0 -0.874 I I #
face $-1 $79 $80 $3 $-1 $81 forward single #
loop $-1 $-1 $69 $23 #
plane-surface $-1 -0.128518519929991 0 0.2185 0 0 1 1 0 0 forward_v I I I I #
coedge $-1 $47 $47 $26 $48 0 $82 $-1 #
edge $-1 $83 $83 $47 $84 forward #
coedge $-1 $85 $27 $86 $87 1 $9 $-1 #
coedge $-1 $72 $71 $27 $51 0 $24 $-1 #
edge $-1 $88 $55 $50 $89 forward #
coedge $-1 $28 $85 $90 $91 1 $9 $-1 #
coedge $-1 $65 $64 $28 $54 0 $66 $-1 #
edge $-1 $56 $92 $53 $93 forward #
vertex $-1 $75 $94 #
vertex $-1 $76 $95 #
straight-curve $-1 -0.128518519929991 0.187 -0.2185 0.48592592028003601 0 -0.874 I I #
loop $-1 $-1 $31 $96 #
vertex $-1 $32 $97 #
ellipse-curve $-1 0 0 0 0 1 0 -0.125 0 0 1 I I #
coedge $-1 $36 $33 $98 $99 0 $6 $-1 #
coedge $-1 $100 $101 $33 $63 1 $102 $-1 #
edge $-1 $67 $103 $62 $104 forward #
coedge $-1 $53 $34 $40 $76 1 $66 $-1 #
coedge $-1 $34 $53 $100 $105 0 $66 $-1 #
loop $-1 $-1 $34 $106 #
vertex $-1 $105 $107 #
straight-curve $-1 0.128518519929991 0 -0.2185 1 0 0 I I #
coedge $-1 $108 $109 $36 $70 1 $45 $-1 #
edge $-1 $110 $73 $69 $111 forward #
coedge $-1 $50 $37 $109 $112 1 $24 $-1 #
coedge $-1 $37 $50 $39 $75 0 $24 $-1 #
vertex $-1 $112 $113 #
straight-curve $-1 -0.25 0 0 -0.48592592028003601 0 -0.874 I I #
edge $-1 $55 $41 $72 $114 forward #
edge $-1 $56 $42 $64 $115 forward #
point $-1 -0.25 0 0 #
point $-1 -0.128518519929991 0 -0.2185 #
face $-1 $106 $102 $3 $-1 $116 forward single #
loop $-1 $-1 $98 $44 #
plane-surface $-1 0.128518519929991 0 0.2185 0.87400000000000011 0 0.48592592028003606 0.48592592028003601 0 -0.874 forward_v I I I I #
loop $-1 $58 $47 $96 #
vertex $-1 $48 $117 #
ellipse-curve $-1 0 0.187 0 0 1 0 0.125 0 0 1 I I #
coedge $-1 $52 $49 $118 $119 1 $9 $-1 #
coedge $-1 $109 $108 $49 $87 0 $45 $-1 #
edge $-1 $120 $88 $86 $121 forward #
vertex $-1 $112 $122 #
straight-curve $-1 -0.25 0.187 0 -0.48592592028003601 0 -0.874 I I #
coedge $-1 $101 $100 $52 $91 0 $102 $-1 #
edge $-1 $92 $123 $90 $124 forward #
vertex $-1 $105 $125 #
straight-curve $-1 0.128518519929991 0.187 -0.2185 1 0 0 I I #
point $-1 -0.25 0.187 0 #
point $-1 -0.128518519929991 0.187 -0.2185 #
face $-1 $-1 $82 $3 $-1 $126 reversed single #
point $-1 0.125 0 0 #
coedge $-1 $127 $128 $61 $99 1 $80 $-1 #
edge $-1 $103 $110 $98 $129 forward #
coedge $-1 $90 $62 $65 $105 1 $102 $-1 #
coedge $-1 $62 $90 $127 $130 0 $102 $-1 #
loop $-1 $-1 $62 $79 #
vertex $-1 $130 $131 #
straight-curve $-1 0.25 0 0 0.48592592028003601 0 0.874 I I #
edge $-1 $92 $67 $65 $132 forward #
face $-1 $96 $66 $3 $-1 $133 forward single #
point $-1 0.128518519929991 0 -0.2185 #
coedge $-1 $86 $69 $128 $134 1 $45 $-1 #
coedge $-1 $69 $86 $71 $112 0 $45 $-1 #
vertex $-1 $134 $135 #
straight-curve $-1 -0.128518519929991 0 0.2185 -1 0 0 I I #
edge $-1 $88 $73 $109 $136 forward #
point $-1 -0.128518519929991 0 0.2185 #
straight-curve $-1 -0.25 0 0 0 -1 0 I I #
straight-curve $-1 -0.128518519929991 0 -0.2185 0 -1 0 I I #
plane-surface $-1 0.25 0 0 0.87400000000000011 0 -0.48592592028003606 -0.48592592028003601 0 -0.874 forward_v I I I I #
point $-1 0.125 0.187 0 #
coedge $-1 $128 $127 $85 $119 0 $80 $-1 #
edge $-1 $123 $120 $118 $137 forward #
vertex $-1 $134 $138 #
straight-curve $-1 -0.128518519929991 0.187 0.2185 -1 0 0 I I #
point $-1 -0.128518519929991 0.187 0.2185 #
vertex $-1 $130 $139 #
straight-curve $-1 0.25 0.187 0 0.48592592028003601 0 0.874 I I #
point $-1 0.128518519929991 0.187 -0.2185 #
cone-surface $-1 0 0.187 0 0 -1 0 0.125 0 0 1 I I 0 1 forward I I I I #
coedge $-1 $118 $98 $101 $130 1 $80 $-1 #
coedge $-1 $98 $118 $108 $134 0 $80 $-1 #
straight-curve $-1 0.128518519929991 0 0.2185 -0.48592592028003601 0 0.874 I I #
edge $-1 $123 $103 $101 $140 forward #
point $-1 0.25 0 0 #
straight-curve $-1 0.128518519929991 0 -0.2185 0 -1 0 I I #
plane-surface $-1 0.128518519929991 0 -0.2185 0 0 -1 -1 0 0 forward_v I I I I #
edge $-1 $120 $110 $128 $141 forward #
point $-1 0.128518519929991 0 0.2185 #
straight-curve $-1 -0.128518519929991 0 0.2185 0 -1 0 I I #
straight-curve $-1 0.128518519929991 0.187 0.2185 -0.48592592028003601 0 0.874 I I #
point $-1 0.128518519929991 0.187 0.2185 #
point $-1 0.25 0.187 0 #
straight-curve $-1 0.25 0 0 0 -1 0 I I #
straight-curve $-1 0.128518519929991 0 0.2185 0 -1 0 I I #
End-of-ACIS-data 