700 0 2 0           
24 FBMach with ACIS - 7.0.3 13 ACIS 7.0.3 NT 24 Mon May 13 16:59:49 2002 
1 9.9999999999999995e-007 1e-010 
body $2 -1 $-1 $3 $-1 $4 #
bdycol-kcp $-1 -1 1 3 $5 $6 $7 #
model_id-kcp-attrib $-1 -1 $-1 $-1 $0 1 1021323589 1021323589 210632705 1 #
lump $-1 -1 $-1 $-1 $8 $0 #
transform $-1 -1 1.0000000000000007 0 0 0 1 0 0 0 1.0000000000000007 0 0 -3.5527136788005009e-015 1 rotate no_reflect no_shear #
body $9 -1 $-1 $10 $-1 $11 #
body $12 -1 $-1 $13 $-1 $14 #
body $15 -1 $-1 $16 $-1 $17 #
shell $-1 -1 $-1 $-1 $-1 $18 $-1 $3 #
rgb_color-st-attrib $-1 -1 $19 $-1 $5 0.5 1 1 #
lump $-1 -1 $-1 $-1 $20 $5 #
transform $-1 -1 1 0 0 0 1 0 0 0 1 0 5.3104999999999993 7.1353999999999997 1 no_rotate no_reflect no_shear #
model_id-kcp-attrib $-1 -1 $-1 $-1 $6 1 1021323589 1021323589 210632706 1 #
lump $-1 -1 $-1 $-1 $21 $6 #
transform $-1 -1 1 0 0 0 1 0 0 0 1 0 5.3104999999999993 7.1353999999999997 1 no_rotate no_reflect no_shear #
rgb_color-st-attrib $-1 -1 $22 $-1 $7 0.5 1 1 #
lump $-1 -1 $-1 $-1 $23 $7 #
transform $-1 -1 1 0 0 0 -3.8285889215894375e-016 1 0 -1 -3.8285889215894375e-016 0 5.3105000000000002 7.1353999999999997 1 rotate no_reflect no_shear #
face $24 -1 $-1 $25 $26 $8 $-1 $27 reversed single #
model_id-kcp-attrib $-1 -1 $-1 $9 $5 1 1021323589 1021323589 207683588 1 #
shell $-1 -1 $-1 $-1 $-1 $28 $-1 $10 #
shell $-1 -1 $-1 $-1 $-1 $29 $-1 $13 #
model_id-kcp-attrib $-1 -1 $-1 $15 $7 1 1021323589 1021323589 211943427 1 #
shell $-1 -1 $-1 $-1 $-1 $30 $-1 $16 #
model_id-kcp-attrib $-1 -1 $-1 $-1 $18 1 1021323589 1021323589 210632705 2 #
face $31 -1 $-1 $32 $33 $8 $-1 $34 forward single #
loop $-1 -1 $-1 $35 $36 $18 #
plane-surface $-1 -1 $-1 0 5.2169999999999996 7.1353999999999997 0 1 0 -0.70710678118654735 0 0.70710678118654735 forward_v I I I I #
face $-1 -1 $-1 $37 $38 $20 $-1 $39 reversed single #
face $-1 -1 $-1 $40 $41 $21 $-1 $42 forward single #
face $-1 -1 $-1 $43 $44 $23 $-1 $45 forward single #
model_id-kcp-attrib $-1 -1 $-1 $-1 $25 1 1021323589 1021323589 210632705 3 #
face $46 -1 $-1 $47 $48 $8 $-1 $49 forward single #
loop $-1 -1 $-1 $50 $51 $25 #
plane-surface $-1 -1 $-1 0 5.4039999999999999 7.1353999999999997 0 1 0 -0.70710678118654735 0 0.70710678118654735 forward_v I I I I #
loop $52 -1 $-1 $-1 $53 $18 #
coedge $-1 -1 $-1 $54 $55 $56 $57 forward $26 $-1 #
face $-1 -1 $-1 $58 $59 $20 $-1 $60 reversed single #
loop $-1 -1 $-1 $-1 $61 $28 #
plane-surface $-1 -1 $-1 0.24537914863981566 -0.093499999999999694 -0.063626514738705175 0.70710678118654757 0 -0.70710678118654757 0 1 0 forward_v I I I I #
face $-1 -1 $-1 $62 $63 $21 $-1 $64 reversed single #
loop $-1 -1 $-1 $-1 $65 $29 #
plane-surface $-1 -1 $-1 0 0 0.2453791486398158 0 0 1 1 0 0 forward_v I I I I #
face $-1 -1 $-1 $66 $67 $23 $-1 $68 forward single #
loop $-1 -1 $-1 $69 $70 $30 #
cone-surface $-1 -1 $-1 0 0 0 0 0 1 0.12499999999999997 0 0 1 I I 0 1 0.12499999999999997 forward I I I I #
model_id-kcp-attrib $-1 -1 $-1 $-1 $32 1 1021323589 1021323589 210632705 4 #
face $71 -1 $-1 $72 $73 $8 $-1 $74 forward single #
loop $-1 -1 $-1 $-1 $56 $32 #
plane-surface $-1 -1 $-1 0.063626514738705536 5.2169999999999996 6.8900208513601839 -0.27440981337271542 0 -0.96161284014136983 -0.96161284014136961 0 0.27440981337271531 forward_v I I I I #
loop $75 -1 $-1 $-1 $76 $25 #
coedge $-1 -1 $-1 $77 $78 $79 $80 reversed $33 $-1 #
model_id-kcp-attrib $-1 -1 $-1 $-1 $35 1 1021323589 1021323589 210632705 16 #
coedge $-1 -1 $-1 $53 $53 $81 $82 forward $35 $-1 #
coedge $-1 -1 $-1 $83 $36 $84 $85 forward $26 $-1 #
coedge $-1 -1 $-1 $36 $86 $87 $88 forward $26 $-1 #
coedge $-1 -1 $-1 $89 $90 $36 $57 reversed $48 $-1 #
edge $91 -1 $-1 $92 -0.25000000000000011 $93 0 $56 $94 forward @7 unknown #
face $-1 -1 $-1 $95 $96 $20 $-1 $97 reversed single #
loop $-1 -1 $-1 $-1 $98 $37 #
plane-surface $-1 -1 $-1 0.063626514738705287 -0.093499999999999694 -0.2453791486398158 -0.27440981337271542 0 -0.96161284014136983 0 -1 0 forward_v I I I I #
coedge $-1 -1 $-1 $99 $100 $101 $102 reversed $38 $-1 #
face $103 -1 $-1 $104 $105 $21 $-1 $106 reversed single #
loop $-1 -1 $-1 $-1 $107 $40 #
plane-surface $-1 -1 $-1 0 0 -0.2453791486398158 0 0 1 1 0 0 forward_v I I I I #
coedge $-1 -1 $-1 $108 $109 $110 $111 forward $41 $-1 #
face $-1 -1 $-1 $-1 $112 $23 $-1 $113 forward single #
loop $-1 -1 $-1 $-1 $114 $43 #
plane-surface $-1 -1 $-1 0 0 -0.093500000000000139 0 0 -1 -1 0 0 forward_v I I I I #
loop $-1 -1 $-1 $-1 $115 $30 #
coedge $-1 -1 $-1 $70 $70 $114 $116 reversed $44 $-1 #
model_id-kcp-attrib $-1 -1 $-1 $-1 $47 1 1021323589 1021323589 210632705 5 #
face $117 -1 $-1 $118 $119 $8 $-1 $120 forward single #
loop $-1 -1 $-1 $-1 $87 $47 #
plane-surface $-1 -1 $-1 -0.17677669529663684 5.2169999999999996 6.9586233047033632 -0.96161284014136983 0 -0.27440981337271542 -0.27440981337271531 0 0.96161284014136961 forward_v I I I I #
model_id-kcp-attrib $-1 -1 $-1 $-1 $50 1 1021323589 1021323589 210632705 15 #
coedge $-1 -1 $-1 $76 $76 $121 $122 reversed $50 $-1 #
coedge $-1 -1 $-1 $123 $51 $124 $125 reversed $33 $-1 #
coedge $-1 -1 $-1 $51 $126 $127 $128 reversed $33 $-1 #
coedge $-1 -1 $-1 $90 $89 $51 $80 forward $48 $-1 #
edge $129 -1 $-1 $130 -0.25000000000000011 $131 0 $79 $132 forward @7 unknown #
coedge $-1 -1 $-1 $81 $81 $53 $82 reversed $133 $-1 #
edge $134 -1 $-1 $135 -3.1415926535897922 $135 3.141592653589794 $81 $136 forward @7 unknown #
coedge $-1 -1 $-1 $137 $54 $138 $139 forward $26 $-1 #
coedge $-1 -1 $-1 $140 $141 $54 $85 reversed $142 $-1 #
edge $143 -1 $-1 $93 -0.25703703985998233 $144 0 $84 $145 forward @7 unknown #
coedge $-1 -1 $-1 $55 $137 $146 $147 forward $26 $-1 #
coedge $-1 -1 $-1 $148 $149 $55 $88 reversed $73 $-1 #
edge $150 -1 $-1 $151 -0.24999999999999931 $92 0 $87 $152 forward @7 unknown #
coedge $-1 -1 $-1 $79 $56 $149 $153 reversed $48 $-1 #
coedge $-1 -1 $-1 $56 $79 $140 $154 forward $48 $-1 #
attrib_edge_convexity-kcp-attrib $-1 -1 $155 $-1 $57 1 #
vertex $-1 -1 $-1 $153 $156 #
vertex $-1 -1 $-1 $154 $157 #
straight-curve $-1 -1 $-1 0.063626514738705536 5.2169999999999996 6.8900208513601839 0.96161284014136961 0 -0.27440981337271531 I I #
face $-1 -1 $-1 $158 $159 $20 $-1 $160 reversed single #
loop $-1 -1 $-1 $-1 $161 $58 #
plane-surface $-1 -1 $-1 -0.17677669529663695 -0.093499999999999694 -0.17677669529663653 -0.96161284014136983 0 -0.27440981337271536 0 -1 0 forward_v I I I I #
coedge $-1 -1 $-1 $162 $163 $164 $165 reversed $59 $-1 #
coedge $-1 -1 $-1 $166 $61 $163 $167 forward $38 $-1 #
coedge $-1 -1 $-1 $61 $166 $168 $169 forward $38 $-1 #
coedge $-1 -1 $-1 $170 $171 $61 $102 forward $172 $-1 #
edge $-1 -1 $-1 $173 -0.19277777989498684 $174 0.06425925996499561 $101 $175 forward @7 unknown #
model_id-kcp-attrib $-1 -1 $-1 $-1 $62 1 1021323589 1021323589 210632706 2 #
face $-1 -1 $-1 $176 $177 $21 $-1 $178 reversed single #
loop $-1 -1 $-1 $-1 $179 $62 #
plane-surface $-1 -1 $-1 0 -0.093500000000000139 0 0 1 0 0 0 1 forward_v I I I I #
coedge $-1 -1 $-1 $180 $181 $182 $183 forward $63 $-1 #
coedge $-1 -1 $-1 $184 $65 $185 $186 forward $41 $-1 #
coedge $-1 -1 $-1 $65 $184 $187 $188 forward $41 $-1 #
coedge $-1 -1 $-1 $189 $190 $65 $111 reversed $191 $-1 #
edge $-1 -1 $-1 $192 -0.093500000000000139 $193 0.093500000000000139 $110 $194 forward @7 unknown #
loop $-1 -1 $-1 $-1 $195 $66 #
plane-surface $-1 -1 $-1 0 0 0.093500000000000139 0 0 1 1 0 0 forward_v I I I I #
coedge $-1 -1 $-1 $114 $114 $70 $116 forward $67 $-1 #
coedge $-1 -1 $-1 $115 $115 $195 $196 reversed $69 $-1 #
edge $-1 -1 $-1 $197 0 $197 6.2831853071795862 $114 $198 forward @7 unknown #
model_id-kcp-attrib $-1 -1 $-1 $-1 $72 1 1021323589 1021323589 210632705 6 #
face $199 -1 $-1 $200 $201 $8 $-1 $202 forward single #
loop $-1 -1 $-1 $-1 $146 $72 #
plane-surface $-1 -1 $-1 -0.24537914863981566 5.2169999999999996 7.1990265147387049 -0.70710678118654757 0 0.70710678118654757 0.70710678118654735 0 0.70710678118654735 forward_v I I I I #
coedge $-1 -1 $-1 $121 $121 $76 $122 forward $203 $-1 #
edge $204 -1 $-1 $205 8.8817841970012642e-016 $205 6.2831853071795871 $121 $206 forward @7 unknown #
coedge $-1 -1 $-1 $207 $77 $208 $209 reversed $33 $-1 #
coedge $-1 -1 $-1 $149 $148 $77 $125 forward $73 $-1 #
edge $210 -1 $-1 $211 -0.24999999999999931 $130 0 $124 $212 forward @7 unknown #
coedge $-1 -1 $-1 $78 $207 $213 $214 reversed $33 $-1 #
coedge $-1 -1 $-1 $141 $140 $78 $128 forward $142 $-1 #
edge $-1 -1 $-1 $131 -0.25703703985998233 $215 0 $127 $216 forward @7 unknown #
attrib_edge_convexity-kcp-attrib $-1 -1 $217 $-1 $80 1 #
vertex $-1 -1 $-1 $153 $218 #
vertex $-1 -1 $-1 $154 $219 #
straight-curve $-1 -1 $-1 0.063626514738705536 5.4039999999999999 6.8900208513601839 0.96161284014136961 0 -0.27440981337271531 I I #
loop $220 -1 $-1 $-1 $81 $221 #
attrib_edge_convexity-kcp-attrib $-1 -1 $222 $-1 $82 1 #
vertex $223 -1 $-1 $82 $224 #
ellipse-curve $-1 -1 $-1 0 5.2169999999999996 7.1353999999999997 0 1 0 -0.088388347648318419 0 -0.088388347648318419 1 I I #
coedge $-1 -1 $-1 $86 $83 $225 $226 forward $26 $-1 #
coedge $-1 -1 $-1 $227 $228 $83 $139 reversed $229 $-1 #
edge $230 -1 $-1 $144 -0.24999999999999931 $231 0 $138 $232 forward @7 unknown #
coedge $-1 -1 $-1 $127 $84 $90 $154 reversed $142 $-1 #
coedge $-1 -1 $-1 $84 $127 $227 $233 forward $142 $-1 #
loop $-1 -1 $-1 $-1 $84 $234 #
attrib_edge_convexity-kcp-attrib $-1 -1 $235 $-1 $85 1 #
vertex $-1 -1 $-1 $233 $236 #
straight-curve $-1 -1 $-1 0.24537914863981566 5.2169999999999996 7.0717734852612946 0.70710678118654735 0 0.70710678118654735 I I #
coedge $-1 -1 $-1 $237 $238 $86 $147 reversed $119 $-1 #
edge $239 -1 $-1 $240 -0.25703703985998233 $151 0 $146 $241 forward @7 unknown #
coedge $-1 -1 $-1 $124 $87 $238 $242 reversed $73 $-1 #
coedge $-1 -1 $-1 $87 $124 $89 $153 forward $73 $-1 #
attrib_edge_convexity-kcp-attrib $-1 -1 $243 $-1 $88 1 #
vertex $-1 -1 $-1 $242 $244 #
straight-curve $-1 -1 $-1 -0.17677669529663684 5.2169999999999996 6.9586233047033632 0.27440981337271531 0 -0.96161284014136961 I I #
edge $245 -1 $-1 $130 -0.1870000000000003 $92 0 $149 $246 forward @7 unknown #
edge $247 -1 $-1 $131 -0.1870000000000003 $93 0 $140 $248 forward @7 unknown #
convexity-sys-attrib $-1 -1 $-1 $91 $57 #
point $-1 -1 $-1 -0.17677669529663684 5.2169999999999996 6.9586233047033632 #
point $-1 -1 $-1 0.063626514738705536 5.2169999999999996 6.8900208513601839 #
face $-1 -1 $-1 $249 $250 $20 $-1 $251 reversed single #
loop $-1 -1 $-1 $-1 $252 $95 #
plane-surface $-1 -1 $-1 -0.2453791486398155 -0.093499999999999694 0.063626514738705175 -0.70710678118654757 0 0.70710678118654757 0 -1 0 forward_v I I I I #
coedge $-1 -1 $-1 $253 $254 $255 $256 reversed $96 $-1 #
coedge $-1 -1 $-1 $257 $98 $254 $258 reversed $59 $-1 #
coedge $-1 -1 $-1 $98 $257 $259 $167 reversed $59 $-1 #
coedge $-1 -1 $-1 $260 $255 $98 $165 forward $261 $-1 #
edge $-1 -1 $-1 $262 -0.18574074003500457 $173 0.064259259964995374 $164 $263 forward @7 unknown #
coedge $-1 -1 $-1 $100 $99 $264 $265 reversed $38 $-1 #
edge $-1 -1 $-1 $173 -0.14024999999999999 $266 0.046750000000000291 $259 $267 forward @7 unknown #
coedge $-1 -1 $-1 $268 $269 $270 $169 reversed $271 $-1 #
edge $-1 -1 $-1 $272 -0.046750000000000291 $174 0.14024999999999999 $270 $273 forward @7 unknown #
coedge $-1 -1 $-1 $171 $101 $274 $275 forward $172 $-1 #
coedge $-1 -1 $-1 $101 $170 $276 $277 reversed $172 $-1 #
loop $-1 -1 $-1 $-1 $101 $278 #
vertex $-1 -1 $-1 $277 $279 #
vertex $-1 -1 $-1 $275 $280 #
straight-curve $-1 -1 $-1 0.19994099016453806 0.093500000000000139 -0.10906467321398282 0.70710678118654757 0 0.70710678118654757 I I #
face $281 -1 $-1 $282 $283 $21 $-1 $284 reversed single #
loop $-1 -1 $-1 $-1 $285 $104 #
plane-surface $-1 -1 $-1 -0.24537914863981566 0 0 1 0 0 0 0 -1 forward_v I I I I #
coedge $-1 -1 $-1 $286 $187 $287 $288 forward $105 $-1 #
coedge $-1 -1 $-1 $289 $107 $286 $290 forward $63 $-1 #
coedge $-1 -1 $-1 $107 $289 $291 $292 forward $63 $-1 #
coedge $-1 -1 $-1 $190 $189 $107 $183 reversed $191 $-1 #
edge $-1 -1 $-1 $293 -0.093500000000000139 $294 0.093500000000000139 $182 $295 forward @7 unknown #
coedge $-1 -1 $-1 $109 $108 $296 $297 forward $41 $-1 #
coedge $-1 -1 $-1 $298 $299 $108 $186 reversed $283 $-1 #
edge $-1 -1 $-1 $193 -0.24537914863981566 $300 0.24537914863981566 $185 $301 forward @7 unknown #
coedge $-1 -1 $-1 $179 $302 $109 $188 reversed $105 $-1 #
edge $-1 -1 $-1 $303 -0.24537914863981566 $192 0.24537914863981566 $187 $304 forward @7 unknown #
coedge $-1 -1 $-1 $182 $110 $302 $305 forward $191 $-1 #
coedge $-1 -1 $-1 $110 $182 $298 $306 reversed $191 $-1 #
loop $-1 -1 $-1 $-1 $189 $282 #
vertex $-1 -1 $-1 $111 $307 #
vertex $-1 -1 $-1 $111 $308 #
straight-curve $-1 -1 $-1 0.24537914863981566 0 0.2453791486398158 0 1 0 I I #
coedge $-1 -1 $-1 $195 $195 $115 $196 forward $112 $-1 #
edge $-1 -1 $-1 $309 0 $309 6.2831853071795862 $195 $310 forward @7 unknown #
vertex $-1 -1 $-1 $116 $311 #
ellipse-curve $-1 -1 $-1 0 0 -0.093500000000000139 0 0 -1 0.12499999999999997 0 0 1 I I #
model_id-kcp-attrib $-1 -1 $-1 $-1 $118 1 1021323589 1021323589 210632705 7 #
face $312 -1 $-1 $234 $229 $8 $-1 $313 forward single #
loop $-1 -1 $-1 $-1 $225 $118 #
plane-surface $-1 -1 $-1 -0.063626514738705536 5.2169999999999996 7.3807791486398155 0.27440981337271542 0 0.96161284014136983 0.96161284014136961 0 -0.27440981337271531 forward_v I I I I #
loop $314 -1 $-1 $133 $121 $221 #
attrib_edge_convexity-kcp-attrib $-1 -1 $315 $-1 $122 1 #
vertex $316 -1 $-1 $122 $317 #
ellipse-curve $-1 -1 $-1 0 5.4039999999999999 7.1353999999999997 0 1 0 0.088388347648318419 0 0.088388347648318419 1 I I #
coedge $-1 -1 $-1 $126 $123 $318 $319 reversed $33 $-1 #
coedge $-1 -1 $-1 $238 $237 $123 $209 forward $119 $-1 #
edge $320 -1 $-1 $321 -0.25703703985998233 $211 0 $208 $322 forward @7 unknown #
attrib_edge_convexity-kcp-attrib $-1 -1 $323 $-1 $125 1 #
vertex $-1 -1 $-1 $242 $324 #
straight-curve $-1 -1 $-1 -0.17677669529663684 5.4039999999999999 6.9586233047033632 0.27440981337271531 0 -0.96161284014136961 I I #
coedge $-1 -1 $-1 $228 $227 $126 $214 forward $229 $-1 #
edge $-1 -1 $-1 $215 -0.24999999999999931 $325 0 $213 $326 forward @7 unknown #
vertex $-1 -1 $-1 $233 $327 #
straight-curve $-1 -1 $-1 0.24537914863981566 5.4039999999999999 7.0717734852612946 0.70710678118654735 0 0.70710678118654735 I I #
convexity-sys-attrib $-1 -1 $-1 $129 $80 #
point $-1 -1 $-1 -0.17677669529663684 5.4039999999999999 6.9586233047033632 #
point $-1 -1 $-1 0.063626514738705536 5.4039999999999999 6.8900208513601839 #
model_id-kcp-attrib $-1 -1 $-1 $-1 $133 1 1021323589 1021323589 210632705 14 #
face $328 -1 $-1 $-1 $203 $8 $-1 $329 reversed single #
convexity-sys-attrib $-1 -1 $-1 $134 $82 #
model_id-kcp-attrib $-1 -1 $-1 $-1 $135 1 1021323589 1021323589 210632705 18 #
point $-1 -1 $-1 0.088388347648318419 5.2169999999999996 7.223788347648318 #
coedge $-1 -1 $-1 $330 $331 $137 $226 reversed $201 $-1 #
edge $332 -1 $-1 $231 -0.25000000000000011 $240 0 $225 $333 forward @7 unknown #
coedge $-1 -1 $-1 $213 $138 $141 $233 reversed $229 $-1 #
coedge $-1 -1 $-1 $138 $213 $330 $334 forward $229 $-1 #
loop $-1 -1 $-1 $-1 $138 $200 #
attrib_edge_convexity-kcp-attrib $-1 -1 $335 $-1 $139 1 #
vertex $-1 -1 $-1 $334 $336 #
straight-curve $-1 -1 $-1 0.17677669529663684 5.2169999999999996 7.3121766952966363 -0.27440981337271531 0 0.96161284014136961 I I #
edge $-1 -1 $-1 $215 -0.1870000000000003 $144 0 $141 $337 forward @7 unknown #
face $338 -1 $-1 $221 $142 $8 $-1 $339 forward single #
convexity-sys-attrib $-1 -1 $-1 $143 $85 #
point $-1 -1 $-1 0.24537914863981566 5.2169999999999996 7.0717734852612946 #
coedge $-1 -1 $-1 $208 $146 $331 $340 reversed $119 $-1 #
coedge $-1 -1 $-1 $146 $208 $148 $242 forward $119 $-1 #
attrib_edge_convexity-kcp-attrib $-1 -1 $341 $-1 $147 1 #
vertex $-1 -1 $-1 $340 $342 #
straight-curve $-1 -1 $-1 -0.24537914863981566 5.2169999999999996 7.1990265147387049 -0.70710678118654735 0 -0.70710678118654735 I I #
edge $343 -1 $-1 $211 -0.1870000000000003 $151 0 $238 $344 forward @7 unknown #
convexity-sys-attrib $-1 -1 $-1 $150 $88 #
point $-1 -1 $-1 -0.24537914863981566 5.2169999999999996 7.1990265147387049 #
attrib_edge_convexity-kcp-attrib $-1 -1 $345 $-1 $153 1 #
straight-curve $-1 -1 $-1 -0.17677669529663684 5.2169999999999996 6.9586233047033632 0 -0.99999999999999989 0 I I #
attrib_edge_convexity-kcp-attrib $-1 -1 $346 $-1 $154 1 #
straight-curve $-1 -1 $-1 0.063626514738705536 5.2169999999999996 6.8900208513601839 0 -0.99999999999999989 0 I I #
face $-1 -1 $-1 $347 $271 $20 $-1 $348 reversed single #
loop $-1 -1 $-1 $-1 $349 $158 #
plane-surface $-1 -1 $-1 -0.063626514738705314 -0.093499999999999694 0.2453791486398158 0.27440981337271542 0 0.96161284014136983 0 1 0 forward_v I I I I #
coedge $-1 -1 $-1 $350 $351 $352 $353 reversed $159 $-1 #
coedge $-1 -1 $-1 $354 $161 $355 $356 reversed $96 $-1 #
coedge $-1 -1 $-1 $161 $354 $162 $258 forward $96 $-1 #
coedge $-1 -1 $-1 $164 $357 $161 $256 forward $261 $-1 #
edge $-1 -1 $-1 $358 -0.18925925996499526 $262 0.060740740035004334 $255 $359 forward @7 unknown #
coedge $-1 -1 $-1 $163 $162 $360 $361 reversed $59 $-1 #
edge $-1 -1 $-1 $362 -4.4408920985006262e-016 $262 0.18699999999999983 $162 $363 forward @7 unknown #
coedge $-1 -1 $-1 $364 $365 $366 $167 forward $367 $-1 #
coedge $-1 -1 $-1 $357 $164 $365 $368 reversed $261 $-1 #
loop $-1 -1 $-1 $-1 $164 $369 #
vertex $-1 -1 $-1 $165 $370 #
straight-curve $-1 -1 $-1 0.0018339852583834602 0.093500000000000139 -0.22774577710535265 0.96161284014136983 0 -0.27440981337271542 I I #
coedge $-1 -1 $-1 $371 $372 $166 $265 forward $373 $-1 #
edge $-1 -1 $-1 $272 -0.06425925996499561 $266 0.19277777989498684 $264 $374 forward @7 unknown #
vertex $-1 -1 $-1 $375 $376 #
straight-curve $-1 -1 $-1 0.063626514738705259 -0.046749999999999847 -0.2453791486398158 0 -1 0 I I #
coedge $-1 -1 $-1 $377 $168 $378 $379 reversed $271 $-1 #
coedge $-1 -1 $-1 $168 $377 $380 $381 reversed $271 $-1 #
coedge $-1 -1 $-1 $382 $383 $384 $169 forward $385 $-1 #
loop $-1 -1 $-1 $-1 $268 $249 #
vertex $-1 -1 $-1 $386 $387 #
straight-curve $-1 -1 $-1 0.24537914863981566 -0.046749999999999847 -0.063626514738705467 0 1 0 I I #
coedge $-1 -1 $-1 $384 $388 $170 $275 reversed $389 $-1 #
edge $-1 -1 $-1 $174 0.063626514738705175 $390 0.2453791486398158 $274 $391 forward @7 unknown #
coedge $-1 -1 $-1 $392 $366 $171 $277 forward $393 $-1 #
edge $-1 -1 $-1 $173 0.063626514738705287 $390 0.24537914863981566 $171 $394 forward @7 unknown #
face $-1 -1 $-1 $395 $172 $20 $-1 $396 reversed single #
point $-1 -1 $-1 0.063626514738705287 0.093500000000000139 -0.2453791486398158 #
point $-1 -1 $-1 0.24537914863981566 0.093500000000000139 -0.063626514738705175 #
model_id-kcp-attrib $-1 -1 $-1 $-1 $176 1 1021323589 1021323589 210632706 3 #
face $-1 -1 $-1 $-1 $191 $21 $-1 $397 reversed single #
loop $-1 -1 $-1 $-1 $298 $176 #
plane-surface $-1 -1 $-1 0 0.093500000000000139 0 0 -1 0 0 0 -1 forward_v I I I I #
coedge $-1 -1 $-1 $398 $296 $299 $399 forward $177 $-1 #
coedge $-1 -1 $-1 $302 $179 $180 $290 reversed $105 $-1 #
coedge $-1 -1 $-1 $296 $398 $179 $288 reversed $177 $-1 #
edge $-1 -1 $-1 $303 -0.2453791486398158 $400 0.2453791486398158 $287 $401 forward @7 unknown #
coedge $-1 -1 $-1 $181 $180 $398 $402 forward $63 $-1 #
edge $-1 -1 $-1 $294 -0.24537914863981566 $400 0.24537914863981566 $286 $403 forward @7 unknown #
coedge $-1 -1 $-1 $299 $298 $181 $292 reversed $283 $-1 #
edge $-1 -1 $-1 $404 -0.24537914863981566 $293 0.24537914863981566 $291 $405 forward @7 unknown #
vertex $-1 -1 $-1 $183 $406 #
vertex $-1 -1 $-1 $305 $407 #
straight-curve $-1 -1 $-1 0.24537914863981566 0 -0.2453791486398158 0 -1 0 I I #
coedge $-1 -1 $-1 $285 $287 $184 $297 reversed $177 $-1 #
edge $-1 -1 $-1 $300 -0.093500000000000139 $303 0.093500000000000139 $296 $408 forward @7 unknown #
coedge $-1 -1 $-1 $291 $185 $190 $306 forward $283 $-1 #
coedge $-1 -1 $-1 $185 $291 $285 $399 reversed $283 $-1 #
vertex $-1 -1 $-1 $186 $409 #
straight-curve $-1 -1 $-1 0 0.093500000000000139 0.2453791486398158 -1 0 0 I I #
coedge $-1 -1 $-1 $187 $286 $189 $305 reversed $105 $-1 #
vertex $-1 -1 $-1 $297 $410 #
straight-curve $-1 -1 $-1 0 -0.093500000000000139 0.2453791486398158 1 0 0 I I #
edge $-1 -1 $-1 $192 -0.2453791486398158 $294 0.2453791486398158 $189 $411 forward @7 unknown #
edge $-1 -1 $-1 $193 -0.2453791486398158 $293 0.2453791486398158 $190 $412 forward @7 unknown #
point $-1 -1 $-1 0.24537914863981566 -0.093500000000000139 0.2453791486398158 #
point $-1 -1 $-1 0.24537914863981566 0.093500000000000139 0.2453791486398158 #
vertex $-1 -1 $-1 $196 $413 #
ellipse-curve $-1 -1 $-1 0 0 0.093500000000000139 0 0 1 0.12499999999999997 0 0 1 I I #
point $-1 -1 $-1 0.12499999999999997 0 -0.093500000000000139 #
model_id-kcp-attrib $-1 -1 $-1 $-1 $200 1 1021323589 1021323589 210632705 8 #
plane-surface $-1 -1 $-1 0.17677669529663684 5.2169999999999996 7.3121766952966363 0.96161284014136983 0 0.27440981337271542 0.27440981337271531 0 -0.96161284014136961 forward_v I I I I #
model_id-kcp-attrib $-1 -1 $-1 $-1 $203 1 1021323589 1021323589 210632705 13 #
convexity-sys-attrib $-1 -1 $-1 $204 $122 #
model_id-kcp-attrib $-1 -1 $-1 $-1 $205 1 1021323589 1021323589 210632705 17 #
point $-1 -1 $-1 0.088388347648318419 5.4039999999999999 7.223788347648318 #
coedge $-1 -1 $-1 $331 $330 $207 $319 forward $201 $-1 #
edge $-1 -1 $-1 $325 -0.25000000000000011 $321 0 $318 $414 forward @7 unknown #
attrib_edge_convexity-kcp-attrib $-1 -1 $415 $-1 $209 1 #
vertex $-1 -1 $-1 $340 $416 #
straight-curve $-1 -1 $-1 -0.24537914863981566 5.4039999999999999 7.1990265147387049 -0.70710678118654735 0 -0.70710678118654735 I I #
convexity-sys-attrib $-1 -1 $-1 $210 $125 #
point $-1 -1 $-1 -0.24537914863981566 5.4039999999999999 7.1990265147387049 #
vertex $-1 -1 $-1 $334 $417 #
straight-curve $-1 -1 $-1 0.17677669529663684 5.4039999999999999 7.3121766952966363 -0.27440981337271531 0 0.96161284014136961 I I #
point $-1 -1 $-1 0.24537914863981566 5.4039999999999999 7.0717734852612946 #
model_id-kcp-attrib $-1 -1 $-1 $-1 $221 1 1021323589 1021323589 210632705 10 #
cone-surface $-1 -1 $-1 0 5.4039999999999999 7.1353999999999997 0 -1 0 0.088388347648318419 0 0.088388347648318419 1 I I 0 1 0.12499999999999999 forward I I I I #
coedge $-1 -1 $-1 $318 $225 $228 $334 reversed $201 $-1 #
coedge $-1 -1 $-1 $225 $318 $237 $340 forward $201 $-1 #
attrib_edge_convexity-kcp-attrib $-1 -1 $418 $-1 $226 1 #
straight-curve $-1 -1 $-1 -0.063626514738705536 5.2169999999999996 7.3807791486398155 -0.96161284014136961 0 0.27440981337271531 I I #
edge $-1 -1 $-1 $325 -0.1870000000000003 $231 0 $228 $419 forward @7 unknown #
convexity-sys-attrib $-1 -1 $-1 $230 $139 #
point $-1 -1 $-1 0.17677669529663684 5.2169999999999996 7.3121766952966363 #
straight-curve $-1 -1 $-1 0.24537914863981566 5.2169999999999996 7.0717734852612946 0 -0.99999999999999989 0 I I #
model_id-kcp-attrib $-1 -1 $-1 $-1 $234 1 1021323589 1021323589 210632705 9 #
plane-surface $-1 -1 $-1 0.24537914863981566 5.2169999999999996 7.0717734852612946 0.70710678118654757 0 -0.70710678118654757 -0.70710678118654735 0 -0.70710678118654735 forward_v I I I I #
edge $420 -1 $-1 $321 -0.1870000000000003 $240 0 $331 $421 forward @7 unknown #
convexity-sys-attrib $-1 -1 $-1 $239 $147 #
point $-1 -1 $-1 -0.063626514738705536 5.2169999999999996 7.3807791486398155 #
attrib_edge_convexity-kcp-attrib $-1 -1 $422 $-1 $242 1 #
straight-curve $-1 -1 $-1 -0.24537914863981566 5.2169999999999996 7.1990265147387049 0 -0.99999999999999989 0 I I #
convexity-sys-attrib $-1 -1 $-1 $245 $153 #
convexity-sys-attrib $-1 -1 $-1 $247 $154 #
face $-1 -1 $-1 $423 $367 $20 $-1 $424 reversed single #
plane-surface $-1 -1 $-1 0.17677669529663695 -0.093499999999999694 0.17677669529663653 0.96161284014136983 0 0.27440981337271536 0 1 0 forward_v I I I I #
coedge $-1 -1 $-1 $425 $426 $427 $428 reversed $250 $-1 #
coedge $-1 -1 $-1 $429 $252 $430 $431 reversed $159 $-1 #
coedge $-1 -1 $-1 $252 $429 $253 $356 forward $159 $-1 #
coedge $-1 -1 $-1 $432 $433 $252 $353 forward $434 $-1 #
edge $-1 -1 $-1 $435 -0.19277777989498707 $358 0.064259259964995444 $352 $436 forward @7 unknown #
coedge $-1 -1 $-1 $254 $253 $437 $438 reversed $96 $-1 #
coedge $-1 -1 $-1 $439 $440 $441 $356 forward $442 $-1 #
edge $-1 -1 $-1 $443 -0.046750000000000291 $358 0.14024999999999999 $355 $444 forward @7 unknown #
coedge $-1 -1 $-1 $255 $260 $439 $445 reversed $261 $-1 #
vertex $-1 -1 $-1 $445 $446 #
straight-curve $-1 -1 $-1 -0.19344455043376313 0.093500000000000152 -0.11836761975928742 0.27440981337271536 0 -0.96161284014136983 I I #
coedge $-1 -1 $-1 $437 $447 $257 $361 forward $448 $-1 #
edge $-1 -1 $-1 $266 -0.064259259964995374 $362 0.18574074003500457 $360 $449 forward @7 unknown #
vertex $-1 -1 $-1 $361 $450 #
straight-curve $-1 -1 $-1 -0.17677669529663695 -0.093499999999999694 -0.17677669529663653 0 1 0 I I #
coedge $-1 -1 $-1 $451 $259 $447 $375 forward $367 $-1 #
coedge $-1 -1 $-1 $259 $451 $260 $368 forward $367 $-1 #
coedge $-1 -1 $-1 $276 $452 $99 $167 reversed $393 $-1 #
loop $-1 -1 $-1 $-1 $259 $347 #
edge $-1 -1 $-1 $453 -0.24537914863981566 $173 0.063626514738705287 $260 $394 forward @7 unknown #
face $-1 -1 $-1 $278 $261 $20 $-1 $396 reversed single #
point $-1 -1 $-1 -0.17677669529663695 0.093500000000000139 -0.17677669529663653 #
coedge $-1 -1 $-1 $372 $264 $452 $454 reversed $373 $-1 #
coedge $-1 -1 $-1 $264 $371 $455 $386 reversed $373 $-1 #
loop $-1 -1 $-1 $-1 $264 $456 #
straight-curve $-1 -1 $-1 0.19994099016453806 -0.093500000000000139 -0.10906467321398282 -0.70710678118654757 0 -0.70710678118654757 I I #
edge $-1 -1 $-1 $266 -0.063626514738705287 $457 0.24537914863981566 $447 $458 forward @7 unknown #
point $-1 -1 $-1 0.063626514738705287 -0.093500000000000139 -0.2453791486398158 #
coedge $-1 -1 $-1 $269 $268 $426 $459 forward $271 $-1 #
coedge $-1 -1 $-1 $460 $427 $268 $379 forward $461 $-1 #
edge $-1 -1 $-1 $462 -0.060740740035004334 $272 0.18925925996499496 $378 $463 forward @7 unknown #
coedge $-1 -1 $-1 $464 $465 $269 $381 forward $466 $-1 #
edge $-1 -1 $-1 $174 -0.18925925996499496 $467 0.060740740035004334 $380 $468 forward @7 unknown #
coedge $-1 -1 $-1 $469 $270 $465 $470 reversed $385 $-1 #
coedge $-1 -1 $-1 $270 $469 $460 $471 forward $385 $-1 #
coedge $-1 -1 $-1 $455 $274 $100 $169 reversed $389 $-1 #
loop $-1 -1 $-1 $-1 $270 $423 #
edge $-1 -1 $-1 $272 0.063626514738705175 $472 0.2453791486398158 $455 $473 forward @7 unknown #
point $-1 -1 $-1 0.24537914863981566 -0.093500000000000139 -0.063626514738705175 #
coedge $-1 -1 $-1 $274 $455 $392 $474 reversed $389 $-1 #
loop $-1 -1 $-1 $-1 $384 $475 #
vertex $-1 -1 $-1 $474 $476 #
straight-curve $-1 -1 $-1 0.24537914863981566 0.093500000000000139 0 0 0 -1 I I #
coedge $-1 -1 $-1 $452 $276 $388 $474 forward $393 $-1 #
loop $-1 -1 $-1 $-1 $366 $477 #
straight-curve $-1 -1 $-1 0 0.093500000000000139 -0.2453791486398158 1 0 0 I I #
face $-1 -1 $-1 $478 $466 $20 $-1 $396 reversed single #
plane-surface $-1 -1 $-1 0 0.093500000000000139 0 0 -1 0 0 0 -1 forward_v I I I I #
plane-surface $-1 -1 $-1 0.24537914863981566 0 0 -1 0 0 0 0 1 forward_v I I I I #
coedge $-1 -1 $-1 $287 $285 $289 $402 reversed $177 $-1 #
edge $-1 -1 $-1 $300 -0.2453791486398158 $404 0.2453791486398158 $299 $479 forward @7 unknown #
vertex $-1 -1 $-1 $402 $480 #
straight-curve $-1 -1 $-1 -0.24537914863981566 -0.093500000000000139 0 0 0 -1 I I #
edge $-1 -1 $-1 $400 -0.093500000000000139 $404 0.093500000000000139 $398 $481 forward @7 unknown #
straight-curve $-1 -1 $-1 0 -0.093500000000000139 -0.2453791486398158 -1 0 0 I I #
vertex $-1 -1 $-1 $292 $482 #
straight-curve $-1 -1 $-1 0 0.093500000000000139 -0.2453791486398158 1 0 0 I I #
point $-1 -1 $-1 0.24537914863981566 0.093500000000000139 -0.2453791486398158 #
point $-1 -1 $-1 0.24537914863981566 -0.093500000000000139 -0.2453791486398158 #
straight-curve $-1 -1 $-1 -0.24537914863981566 0 0.2453791486398158 0 -1 0 I I #
point $-1 -1 $-1 -0.24537914863981566 0.093500000000000139 0.2453791486398158 #
point $-1 -1 $-1 -0.24537914863981566 -0.093500000000000139 0.2453791486398158 #
straight-curve $-1 -1 $-1 0.24537914863981566 -0.093500000000000139 0 0 0 -1 I I #
straight-curve $-1 -1 $-1 0.24537914863981566 0.093500000000000139 0 0 0 -1 I I #
point $-1 -1 $-1 0.12499999999999997 0 0.093500000000000139 #
straight-curve $-1 -1 $-1 -0.063626514738705536 5.4039999999999999 7.3807791486398155 -0.96161284014136961 0 0.27440981337271531 I I #
convexity-sys-attrib $-1 -1 $-1 $320 $209 #
point $-1 -1 $-1 -0.063626514738705536 5.4039999999999999 7.3807791486398155 #
point $-1 -1 $-1 0.17677669529663684 5.4039999999999999 7.3121766952966363 #
convexity-sys-attrib $-1 -1 $-1 $332 $226 #
straight-curve $-1 -1 $-1 0.17677669529663684 5.2169999999999996 7.3121766952966363 0 -0.99999999999999989 0 I I #
attrib_edge_convexity-kcp-attrib $-1 -1 $483 $-1 $340 1 #
straight-curve $-1 -1 $-1 -0.063626514738705536 5.2169999999999996 7.3807791486398155 0 -0.99999999999999989 0 I I #
convexity-sys-attrib $-1 -1 $-1 $343 $242 #
face $-1 -1 $-1 $484 $385 $20 $-1 $485 reversed single #
plane-surface $-1 -1 $-1 0 0 -0.2453791486398158 0 0 1 1 0 0 forward_v I I I I #
coedge $-1 -1 $-1 $486 $349 $350 $431 forward $250 $-1 #
coedge $-1 -1 $-1 $349 $486 $377 $459 reversed $250 $-1 #
coedge $-1 -1 $-1 $378 $487 $349 $428 forward $461 $-1 #
edge $-1 -1 $-1 $488 -0.064259259964994958 $462 0.18574074003500457 $427 $489 forward @7 unknown #
coedge $-1 -1 $-1 $351 $350 $490 $491 reversed $159 $-1 #
coedge $-1 -1 $-1 $492 $493 $494 $431 forward $495 $-1 #
edge $-1 -1 $-1 $488 -0.046750000000000291 $435 0.14024999999999999 $430 $496 forward @7 unknown #
coedge $-1 -1 $-1 $433 $352 $497 $498 reversed $434 $-1 #
coedge $-1 -1 $-1 $352 $432 $492 $499 reversed $434 $-1 #
loop $-1 -1 $-1 $-1 $352 $484 #
vertex $-1 -1 $-1 $499 $500 #
straight-curve $-1 -1 $-1 -0.19994099016453792 0.093500000000000139 0.10906467321398278 -0.70710678118654757 0 -0.70710678118654757 I I #
coedge $-1 -1 $-1 $501 $360 $354 $438 forward $448 $-1 #
edge $-1 -1 $-1 $362 -0.060740740035004334 $443 0.1892592599649949 $437 $502 forward @7 unknown #
coedge $-1 -1 $-1 $503 $355 $357 $445 forward $442 $-1 #
coedge $-1 -1 $-1 $355 $503 $501 $504 reversed $442 $-1 #
coedge $-1 -1 $-1 $505 $497 $351 $356 reversed $506 $-1 #
loop $-1 -1 $-1 $-1 $355 $507 #
vertex $-1 -1 $-1 $504 $508 #
straight-curve $-1 -1 $-1 -0.24537914863981566 -0.046749999999999847 0.063626514738705467 0 1 0 I I #
edge $-1 -1 $-1 $358 -0.063626514738705509 $453 0.2453791486398158 $357 $509 forward @7 unknown #
point $-1 -1 $-1 -0.24537914863981566 0.093500000000000139 0.063626514738705509 #
coedge $-1 -1 $-1 $360 $501 $364 $375 reversed $448 $-1 #
loop $-1 -1 $-1 $-1 $360 $510 #
straight-curve $-1 -1 $-1 0.0018339852583834602 -0.093500000000000139 -0.22774577710535265 -0.96161284014136983 0 0.27440981337271542 I I #
point $-1 -1 $-1 -0.17677669529663695 -0.093500000000000139 -0.17677669529663653 #
coedge $-1 -1 $-1 $365 $364 $503 $511 forward $367 $-1 #
coedge $-1 -1 $-1 $366 $392 $371 $454 forward $393 $-1 #
vertex $-1 -1 $-1 $368 $512 #
edge $-1 -1 $-1 $472 -0.24537914863981566 $266 -0.063626514738705287 $371 $458 forward @7 unknown #
coedge $-1 -1 $-1 $388 $384 $372 $386 forward $389 $-1 #
face $-1 -1 $-1 $510 $373 $20 $-1 $513 reversed single #
vertex $-1 -1 $-1 $511 $514 #
straight-curve $-1 -1 $-1 0 -0.093500000000000139 -0.2453791486398158 -1 0 0 I I #
edge $-1 -1 $-1 $462 -4.4408920985006262e-016 $467 0.18699999999999983 $426 $515 forward @7 unknown #
coedge $-1 -1 $-1 $487 $378 $383 $471 reversed $461 $-1 #
loop $-1 -1 $-1 $-1 $378 $516 #
vertex $-1 -1 $-1 $428 $517 #
straight-curve $-1 -1 $-1 0.19344455043376313 -0.093500000000000139 0.11836761975928742 0.27440981337271536 0 -0.96161284014136983 I I #
coedge $-1 -1 $-1 $518 $380 $486 $519 forward $466 $-1 #
coedge $-1 -1 $-1 $380 $518 $382 $470 forward $466 $-1 #
loop $-1 -1 $-1 $-1 $380 $395 #
vertex $-1 -1 $-1 $519 $520 #
straight-curve $-1 -1 $-1 0.19344455043376313 0.093500000000000152 0.11836761975928742 -0.27440981337271536 0 0.96161284014136983 I I #
coedge $-1 -1 $-1 $383 $382 $521 $522 reversed $385 $-1 #
edge $-1 -1 $-1 $523 -0.2453791486398158 $174 0.063626514738705175 $382 $391 forward @7 unknown #
edge $-1 -1 $-1 $524 -0.2453791486398158 $272 0.063626514738705175 $383 $473 forward @7 unknown #
vertex $-1 -1 $-1 $386 $525 #
straight-curve $-1 -1 $-1 0.24537914863981566 -0.093500000000000139 0 0 0 -1 I I #
edge $-1 -1 $-1 $390 -0.093500000000000139 $472 0.093500000000000139 $388 $526 forward @7 unknown #
face $-1 -1 $-1 $-1 $389 $20 $-1 $485 reversed single #
point $-1 -1 $-1 0.24537914863981566 0.093500000000000139 -0.2453791486398158 #
face $-1 -1 $-1 $507 $393 $20 $-1 $424 reversed single #
face $-1 -1 $-1 $516 $506 $20 $-1 $527 reversed single #
straight-curve $-1 -1 $-1 -0.24537914863981566 0.093500000000000139 0 0 0 -1 I I #
point $-1 -1 $-1 -0.24537914863981566 -0.093500000000000139 -0.2453791486398158 #
straight-curve $-1 -1 $-1 -0.24537914863981566 0 -0.2453791486398158 0 1 0 I I #
point $-1 -1 $-1 -0.24537914863981566 0.093500000000000139 -0.2453791486398158 #
convexity-sys-attrib $-1 -1 $-1 $420 $340 #
face $-1 -1 $-1 $369 $434 $20 $-1 $396 reversed single #
plane-surface $-1 -1 $-1 0.24537914863981566 0 0 -1 0 0 0 0 1 forward_v I I I I #
coedge $-1 -1 $-1 $426 $425 $464 $519 reversed $250 $-1 #
coedge $-1 -1 $-1 $427 $460 $528 $529 reversed $461 $-1 #
vertex $-1 -1 $-1 $529 $530 #
straight-curve $-1 -1 $-1 -0.0018339852583834741 -0.093500000000000139 0.22774577710535265 0.96161284014136983 0 -0.27440981337271542 I I #
coedge $-1 -1 $-1 $531 $532 $429 $491 forward $533 $-1 #
edge $-1 -1 $-1 $443 -0.064259259964995569 $488 0.19277777989498707 $490 $534 forward @7 unknown #
coedge $-1 -1 $-1 $535 $430 $433 $499 forward $495 $-1 #
coedge $-1 -1 $-1 $430 $535 $531 $536 forward $495 $-1 #
coedge $-1 -1 $-1 $528 $537 $425 $431 reversed $538 $-1 #
loop $-1 -1 $-1 $-1 $430 $539 #
straight-curve $-1 -1 $-1 -0.06362651473870487 -0.046749999999999847 0.2453791486398158 0 1 0 I I #
coedge $-1 -1 $-1 $441 $540 $432 $498 forward $506 $-1 #
edge $-1 -1 $-1 $541 -0.2453791486398158 $358 -0.063626514738705509 $432 $509 forward @7 unknown #
edge $-1 -1 $-1 $435 0.06362651473870487 $541 0.24537914863981566 $433 $542 forward @7 unknown #
point $-1 -1 $-1 -0.06362651473870487 0.093500000000000139 0.2453791486398158 #
coedge $-1 -1 $-1 $447 $437 $440 $504 forward $448 $-1 #
straight-curve $-1 -1 $-1 -0.19344455043376313 -0.093500000000000139 -0.11836761975928742 -0.27440981337271536 0 0.96161284014136983 I I #
coedge $-1 -1 $-1 $440 $439 $451 $511 reversed $442 $-1 #
edge $-1 -1 $-1 $443 -0.063626514738705175 $457 0.2453791486398158 $440 $543 forward @7 unknown #
coedge $-1 -1 $-1 $540 $441 $532 $544 reversed $506 $-1 #
loop $-1 -1 $-1 $-1 $441 $478 #
face $-1 -1 $-1 $475 $442 $20 $-1 $527 reversed single #
point $-1 -1 $-1 -0.2453791486398155 -0.093500000000000139 0.063626514738705175 #
straight-curve $-1 -1 $-1 -0.24537914863981566 0.093500000000000139 0 0 0 -1 I I #
face $-1 -1 $-1 $545 $448 $20 $-1 $513 reversed single #
edge $-1 -1 $-1 $457 -0.093500000000000139 $453 0.093500000000000139 $503 $546 forward @7 unknown #
point $-1 -1 $-1 -0.24537914863981566 0.093500000000000139 -0.2453791486398158 #
plane-surface $-1 -1 $-1 0 -0.093500000000000139 0 0 1 0 0 0 1 forward_v I I I I #
point $-1 -1 $-1 -0.24537914863981566 -0.093500000000000139 -0.2453791486398158 #
straight-curve $-1 -1 $-1 0.17677669529663695 -0.093499999999999694 0.17677669529663653 0 1 0 I I #
face $-1 -1 $-1 $456 $461 $20 $-1 $513 reversed single #
point $-1 -1 $-1 0.17677669529663695 -0.093500000000000139 0.17677669529663653 #
coedge $-1 -1 $-1 $465 $464 $537 $547 reversed $466 $-1 #
edge $-1 -1 $-1 $467 -0.18574074003500457 $435 0.064259259964994958 $464 $548 forward @7 unknown #
point $-1 -1 $-1 0.17677669529663695 0.093500000000000139 0.17677669529663653 #
coedge $-1 -1 $-1 $537 $528 $469 $522 forward $538 $-1 #
edge $-1 -1 $-1 $524 -0.093500000000000139 $523 0.093500000000000139 $469 $549 forward @7 unknown #
vertex $-1 -1 $-1 $522 $550 #
vertex $-1 -1 $-1 $522 $551 #
point $-1 -1 $-1 0.24537914863981566 -0.093500000000000139 -0.2453791486398158 #
straight-curve $-1 -1 $-1 0.24537914863981566 0 -0.2453791486398158 0 -1 0 I I #
plane-surface $-1 -1 $-1 -0.24537914863981566 0 0 1 0 0 0 0 -1 forward_v I I I I #
coedge $-1 -1 $-1 $521 $494 $487 $529 forward $538 $-1 #
edge $-1 -1 $-1 $488 -0.06362651473870487 $524 0.24537914863981566 $487 $552 forward @7 unknown #
point $-1 -1 $-1 -0.06362651473870487 -0.093500000000000139 0.2453791486398158 #
coedge $-1 -1 $-1 $532 $490 $493 $536 reversed $533 $-1 #
coedge $-1 -1 $-1 $490 $531 $505 $544 forward $533 $-1 #
loop $-1 -1 $-1 $-1 $490 $545 #
straight-curve $-1 -1 $-1 -0.19994099016453792 -0.093500000000000139 0.10906467321398278 0.70710678118654757 0 0.70710678118654757 I I #
coedge $-1 -1 $-1 $493 $492 $540 $553 forward $495 $-1 #
edge $-1 -1 $-1 $554 -0.24537914863981566 $488 -0.06362651473870487 $531 $552 forward @7 unknown #
coedge $-1 -1 $-1 $494 $521 $518 $547 forward $538 $-1 #
loop $-1 -1 $-1 $-1 $494 $555 #
face $-1 -1 $-1 $477 $495 $20 $-1 $556 forward single #
coedge $-1 -1 $-1 $497 $505 $535 $553 reversed $506 $-1 #
vertex $-1 -1 $-1 $499 $557 #
straight-curve $-1 -1 $-1 0 0.093500000000000139 0.2453791486398158 -1 0 0 I I #
straight-curve $-1 -1 $-1 -0.24537914863981566 -0.093500000000000139 0 0 0 -1 I I #
edge $-1 -1 $-1 $554 -0.2453791486398158 $443 -0.063626514738705175 $505 $543 forward @7 unknown #
face $-1 -1 $-1 $555 $533 $20 $-1 $513 reversed single #
straight-curve $-1 -1 $-1 -0.24537914863981566 0 -0.2453791486398158 0 1 0 I I #
edge $-1 -1 $-1 $523 -0.24537914863981566 $435 0.06362651473870487 $518 $542 forward @7 unknown #
straight-curve $-1 -1 $-1 -0.0018339852583834741 0.093500000000000139 0.22774577710535265 -0.96161284014136983 0 0.27440981337271542 I I #
straight-curve $-1 -1 $-1 0.24537914863981566 0 0.2453791486398158 0 1 0 I I #
point $-1 -1 $-1 0.24537914863981566 0.093500000000000139 0.2453791486398158 #
point $-1 -1 $-1 0.24537914863981566 -0.093500000000000139 0.2453791486398158 #
straight-curve $-1 -1 $-1 0 -0.093500000000000139 0.2453791486398158 1 0 0 I I #
edge $-1 -1 $-1 $541 -0.093500000000000139 $554 0.093500000000000139 $540 $558 forward @7 unknown #
vertex $-1 -1 $-1 $553 $559 #
face $-1 -1 $-1 $539 $538 $20 $-1 $556 forward single #
plane-surface $-1 -1 $-1 0 0 0.2453791486398158 0 0 1 1 0 0 forward_v I I I I #
point $-1 -1 $-1 -0.24537914863981566 0.093500000000000139 0.2453791486398158 #
straight-curve $-1 -1 $-1 -0.24537914863981566 0 0.2453791486398158 0 -1 0 I I #
point $-1 -1 $-1 -0.24537914863981566 -0.093500000000000139 0.2453791486398158 #
End-of-ACIS-data 