700 0 2 0           
24 FBMach with ACIS - 7.0.3 13 ACIS 7.0.3 NT 24 Mon May 13 16:59:58 2002 
1 9.9999999999999995e-007 1e-010 
body $2 -1 $-1 $3 $-1 $4 #
bdycol-kcp $-1 -1 1 3 $5 $6 $7 #
model_id-kcp-attrib $-1 -1 $-1 $-1 $0 1 1021323597 1021323597 1659764737 1 #
lump $-1 -1 $-1 $-1 $8 $0 #
transform $-1 -1 1.0000000000000007 0 0 0 1 0 0 0 1.0000000000000007 0 0 -5.3290705182007514e-015 1 rotate no_reflect no_shear #
body $9 -1 $-1 $10 $-1 $11 #
body $12 -1 $-1 $13 $-1 $14 #
body $15 -1 $-1 $16 $-1 $17 #
shell $-1 -1 $-1 $-1 $-1 $18 $-1 $3 #
rgb_color-st-attrib $-1 -1 $19 $-1 $5 0.5 1 1 #
lump $-1 -1 $-1 $-1 $20 $5 #
transform $-1 -1 1 0 0 0 -3.8285889215894375e-016 -1 0 1 -3.8285889215894375e-016 0 -5.3105000000000002 7.1353999999999997 1 rotate no_reflect no_shear #
rgb_color-st-attrib $-1 -1 $21 $-1 $6 0.5 1 1 #
lump $-1 -1 $-1 $-1 $22 $6 #
transform $-1 -1 1 0 0 0 1 0 0 0 1 0 -5.3104999999999993 7.1353999999999997 1 no_rotate no_reflect no_shear #
model_id-kcp-attrib $-1 -1 $-1 $-1 $7 1 1021323597 1021323597 1659764738 1 #
lump $-1 -1 $-1 $-1 $23 $7 #
transform $-1 -1 1 0 0 0 1 0 0 0 1 0 -5.3104999999999993 7.1353999999999997 1 no_rotate no_reflect no_shear #
face $24 -1 $-1 $25 $26 $8 $-1 $27 reversed single #
model_id-kcp-attrib $-1 -1 $-1 $9 $5 1 1021323597 1021323597 1644298243 1 #
shell $-1 -1 $-1 $-1 $-1 $28 $-1 $10 #
model_id-kcp-attrib $-1 -1 $-1 $12 $6 1 1021323597 1021323597 1656815620 1 #
shell $-1 -1 $-1 $-1 $-1 $29 $-1 $13 #
shell $-1 -1 $-1 $-1 $-1 $30 $-1 $16 #
model_id-kcp-attrib $-1 -1 $-1 $-1 $18 1 1021323597 1021323597 1659764737 2 #
face $31 -1 $-1 $32 $33 $8 $-1 $34 forward single #
loop $-1 -1 $-1 $35 $36 $18 #
plane-surface $-1 -1 $-1 0 -5.2169999999999996 7.1353999999999997 0 -1 0 0.70710678118654735 0 -0.70710678118654735 forward_v I I I I #
face $-1 -1 $-1 $37 $38 $20 $-1 $39 forward single #
face $-1 -1 $-1 $40 $41 $22 $-1 $42 reversed single #
face $-1 -1 $-1 $43 $44 $23 $-1 $45 forward single #
model_id-kcp-attrib $-1 -1 $-1 $-1 $25 1 1021323597 1021323597 1659764737 3 #
face $46 -1 $-1 $47 $48 $8 $-1 $49 forward single #
loop $-1 -1 $-1 $50 $51 $25 #
plane-surface $-1 -1 $-1 0 -5.4039999999999999 7.1353999999999997 0 -1 0 0.70710678118654735 0 -0.70710678118654735 forward_v I I I I #
loop $52 -1 $-1 $-1 $53 $18 #
coedge $-1 -1 $-1 $54 $55 $56 $57 forward $26 $-1 #
face $-1 -1 $-1 $58 $59 $20 $-1 $60 forward single #
loop $-1 -1 $-1 $61 $62 $28 #
cone-surface $-1 -1 $-1 0 0 0 0 0 1 0.12499999999999997 0 0 1 I I 0 1 0.12499999999999997 forward I I I I #
face $-1 -1 $-1 $63 $64 $22 $-1 $65 reversed single #
loop $-1 -1 $-1 $-1 $66 $29 #
plane-surface $-1 -1 $-1 -0.17677669529663703 0.093499999999999694 -0.17677669529663653 -0.27440981337271542 0 -0.96161284014136983 0 1 0 forward_v I I I I #
face $-1 -1 $-1 $67 $68 $23 $-1 $69 reversed single #
loop $-1 -1 $-1 $-1 $70 $30 #
plane-surface $-1 -1 $-1 0 0 0.2453791486398158 0 0 1 1 0 0 forward_v I I I I #
model_id-kcp-attrib $-1 -1 $-1 $-1 $32 1 1021323597 1021323597 1659764737 4 #
face $71 -1 $-1 $72 $73 $8 $-1 $74 forward single #
loop $-1 -1 $-1 $-1 $56 $32 #
plane-surface $-1 -1 $-1 -0.24537914863981566 -5.2169999999999996 7.1990265147387049 -0.96161284014136983 0 -0.27440981337271542 0.27440981337271531 0 -0.96161284014136961 forward_v I I I I #
loop $75 -1 $-1 $-1 $76 $25 #
coedge $-1 -1 $-1 $77 $78 $79 $80 reversed $33 $-1 #
model_id-kcp-attrib $-1 -1 $-1 $-1 $35 1 1021323597 1021323597 1659764737 16 #
coedge $-1 -1 $-1 $53 $53 $81 $82 forward $35 $-1 #
coedge $-1 -1 $-1 $83 $36 $84 $85 forward $26 $-1 #
coedge $-1 -1 $-1 $36 $86 $87 $88 forward $26 $-1 #
coedge $-1 -1 $-1 $89 $90 $36 $57 reversed $48 $-1 #
edge $91 -1 $-1 $92 -0.24999999999999931 $93 0 $56 $94 forward @7 unknown #
face $-1 -1 $-1 $-1 $95 $20 $-1 $96 forward single #
loop $-1 -1 $-1 $-1 $97 $37 #
plane-surface $-1 -1 $-1 0 0 -0.093500000000000139 0 0 -1 -1 0 0 forward_v I I I I #
loop $-1 -1 $-1 $-1 $98 $28 #
coedge $-1 -1 $-1 $62 $62 $97 $99 reversed $38 $-1 #
face $-1 -1 $-1 $100 $101 $22 $-1 $102 reversed single #
loop $-1 -1 $-1 $-1 $103 $40 #
plane-surface $-1 -1 $-1 0.063626514738705647 0.093499999999999694 -0.2453791486398158 0.70710678118654757 0 -0.70710678118654757 0 1 0 forward_v I I I I #
coedge $-1 -1 $-1 $104 $105 $106 $107 reversed $41 $-1 #
face $108 -1 $-1 $109 $110 $23 $-1 $111 reversed single #
loop $-1 -1 $-1 $-1 $112 $43 #
plane-surface $-1 -1 $-1 0 0 -0.2453791486398158 0 0 1 1 0 0 forward_v I I I I #
coedge $-1 -1 $-1 $113 $114 $115 $116 forward $44 $-1 #
model_id-kcp-attrib $-1 -1 $-1 $-1 $47 1 1021323597 1021323597 1659764737 5 #
face $117 -1 $-1 $118 $119 $8 $-1 $120 forward single #
loop $-1 -1 $-1 $-1 $87 $47 #
plane-surface $-1 -1 $-1 -0.17677669529663684 -5.2169999999999996 6.9586233047033632 -0.27440981337271542 0 -0.96161284014136983 0.96161284014136961 0 -0.27440981337271531 forward_v I I I I #
model_id-kcp-attrib $-1 -1 $-1 $-1 $50 1 1021323597 1021323597 1659764737 15 #
coedge $-1 -1 $-1 $76 $76 $121 $122 reversed $50 $-1 #
coedge $-1 -1 $-1 $123 $51 $124 $125 reversed $33 $-1 #
coedge $-1 -1 $-1 $51 $126 $127 $128 reversed $33 $-1 #
coedge $-1 -1 $-1 $90 $89 $51 $80 forward $48 $-1 #
edge $129 -1 $-1 $130 -0.24999999999999931 $131 0 $79 $132 forward @7 unknown #
coedge $-1 -1 $-1 $81 $81 $53 $82 reversed $133 $-1 #
edge $134 -1 $-1 $135 -3.141592653589794 $135 3.1415926535897922 $81 $136 forward @7 unknown #
coedge $-1 -1 $-1 $137 $54 $138 $139 forward $26 $-1 #
coedge $-1 -1 $-1 $140 $141 $54 $85 reversed $142 $-1 #
edge $143 -1 $-1 $93 -0.25703703985998233 $144 0 $84 $145 forward @7 unknown #
coedge $-1 -1 $-1 $55 $137 $146 $147 forward $26 $-1 #
coedge $-1 -1 $-1 $148 $149 $55 $88 reversed $73 $-1 #
edge $150 -1 $-1 $151 -0.25000000000000011 $92 0 $87 $152 forward @7 unknown #
coedge $-1 -1 $-1 $79 $56 $149 $153 reversed $48 $-1 #
coedge $-1 -1 $-1 $56 $79 $140 $154 forward $48 $-1 #
attrib_edge_convexity-kcp-attrib $-1 -1 $155 $-1 $57 1 #
vertex $-1 -1 $-1 $153 $156 #
vertex $-1 -1 $-1 $154 $157 #
straight-curve $-1 -1 $-1 -0.24537914863981566 -5.2169999999999996 7.1990265147387049 -0.27440981337271531 0 0.96161284014136961 I I #
loop $-1 -1 $-1 $-1 $158 $58 #
plane-surface $-1 -1 $-1 0 0 0.093500000000000139 0 0 1 1 0 0 forward_v I I I I #
coedge $-1 -1 $-1 $97 $97 $62 $99 forward $59 $-1 #
coedge $-1 -1 $-1 $98 $98 $158 $159 reversed $61 $-1 #
edge $-1 -1 $-1 $160 0 $160 6.2831853071795862 $97 $161 forward @7 unknown #
face $-1 -1 $-1 $162 $163 $22 $-1 $164 reversed single #
loop $-1 -1 $-1 $-1 $165 $63 #
plane-surface $-1 -1 $-1 0.24537914863981594 0.093499999999999694 -0.063626514738705175 0.96161284014136983 0 0.27440981337271536 0 1 0 forward_v I I I I #
coedge $-1 -1 $-1 $166 $167 $168 $169 reversed $64 $-1 #
coedge $-1 -1 $-1 $170 $66 $171 $172 reversed $41 $-1 #
coedge $-1 -1 $-1 $66 $170 $173 $174 forward $41 $-1 #
coedge $-1 -1 $-1 $175 $176 $66 $107 forward $177 $-1 #
edge $-1 -1 $-1 $178 -0.18925925996499693 $179 0.060740740035004633 $106 $180 forward @7 unknown #
model_id-kcp-attrib $-1 -1 $-1 $-1 $67 1 1021323597 1021323597 1659764738 3 #
face $-1 -1 $-1 $181 $182 $23 $-1 $183 reversed single #
loop $-1 -1 $-1 $-1 $184 $67 #
plane-surface $-1 -1 $-1 0 -0.093500000000000139 0 0 1 0 0 0 1 forward_v I I I I #
coedge $-1 -1 $-1 $185 $186 $187 $188 forward $68 $-1 #
coedge $-1 -1 $-1 $189 $70 $190 $191 forward $44 $-1 #
coedge $-1 -1 $-1 $70 $189 $192 $193 forward $44 $-1 #
coedge $-1 -1 $-1 $194 $195 $70 $116 reversed $196 $-1 #
edge $-1 -1 $-1 $197 -0.093500000000000139 $198 0.093500000000000139 $115 $199 forward @7 unknown #
model_id-kcp-attrib $-1 -1 $-1 $-1 $72 1 1021323597 1021323597 1659764737 6 #
face $200 -1 $-1 $201 $202 $8 $-1 $203 forward single #
loop $-1 -1 $-1 $-1 $146 $72 #
plane-surface $-1 -1 $-1 0.063626514738705536 -5.2169999999999996 6.8900208513601839 0.70710678118654757 0 -0.70710678118654757 0.70710678118654735 0 0.70710678118654735 forward_v I I I I #
coedge $-1 -1 $-1 $121 $121 $76 $122 forward $204 $-1 #
edge $205 -1 $-1 $206 -8.8817841970012642e-016 $206 6.2831853071795853 $121 $207 forward @7 unknown #
coedge $-1 -1 $-1 $208 $77 $209 $210 reversed $33 $-1 #
coedge $-1 -1 $-1 $149 $148 $77 $125 forward $73 $-1 #
edge $211 -1 $-1 $212 -0.25000000000000011 $130 0 $124 $213 forward @7 unknown #
coedge $-1 -1 $-1 $78 $208 $214 $215 reversed $33 $-1 #
coedge $-1 -1 $-1 $141 $140 $78 $128 forward $142 $-1 #
edge $-1 -1 $-1 $131 -0.25703703985998233 $216 0 $127 $217 forward @7 unknown #
attrib_edge_convexity-kcp-attrib $-1 -1 $218 $-1 $80 1 #
vertex $-1 -1 $-1 $153 $219 #
vertex $-1 -1 $-1 $154 $220 #
straight-curve $-1 -1 $-1 -0.24537914863981566 -5.4039999999999999 7.1990265147387049 -0.27440981337271531 0 0.96161284014136961 I I #
loop $221 -1 $-1 $-1 $81 $222 #
attrib_edge_convexity-kcp-attrib $-1 -1 $223 $-1 $82 1 #
vertex $224 -1 $-1 $82 $225 #
ellipse-curve $-1 -1 $-1 0 -5.2169999999999996 7.1353999999999997 0 -1 0 -0.088388347648318419 0 -0.088388347648318419 1 I I #
coedge $-1 -1 $-1 $86 $83 $226 $227 forward $26 $-1 #
coedge $-1 -1 $-1 $228 $229 $83 $139 reversed $230 $-1 #
edge $231 -1 $-1 $144 -0.25000000000000011 $232 0 $138 $233 forward @7 unknown #
coedge $-1 -1 $-1 $127 $84 $90 $154 reversed $142 $-1 #
coedge $-1 -1 $-1 $84 $127 $228 $234 forward $142 $-1 #
loop $-1 -1 $-1 $-1 $84 $235 #
attrib_edge_convexity-kcp-attrib $-1 -1 $236 $-1 $85 1 #
vertex $-1 -1 $-1 $234 $237 #
straight-curve $-1 -1 $-1 -0.063626514738705536 -5.2169999999999996 7.3807791486398155 0.70710678118654735 0 0.70710678118654735 I I #
coedge $-1 -1 $-1 $238 $239 $86 $147 reversed $119 $-1 #
edge $240 -1 $-1 $241 -0.25703703985998233 $151 0 $146 $242 forward @7 unknown #
coedge $-1 -1 $-1 $124 $87 $239 $243 reversed $73 $-1 #
coedge $-1 -1 $-1 $87 $124 $89 $153 forward $73 $-1 #
attrib_edge_convexity-kcp-attrib $-1 -1 $244 $-1 $88 1 #
vertex $-1 -1 $-1 $243 $245 #
straight-curve $-1 -1 $-1 -0.17677669529663684 -5.2169999999999996 6.9586233047033632 -0.96161284014136961 0 0.27440981337271531 I I #
edge $246 -1 $-1 $130 -0.1870000000000003 $92 0 $149 $247 forward @7 unknown #
edge $248 -1 $-1 $131 -0.1870000000000003 $93 0 $140 $249 forward @7 unknown #
convexity-sys-attrib $-1 -1 $-1 $91 $57 #
point $-1 -1 $-1 -0.17677669529663684 -5.2169999999999996 6.9586233047033632 #
point $-1 -1 $-1 -0.24537914863981566 -5.2169999999999996 7.1990265147387049 #
coedge $-1 -1 $-1 $158 $158 $98 $159 forward $95 $-1 #
edge $-1 -1 $-1 $250 0 $250 6.2831853071795862 $158 $251 forward @7 unknown #
vertex $-1 -1 $-1 $99 $252 #
ellipse-curve $-1 -1 $-1 0 0 -0.093500000000000139 0 0 -1 0.12499999999999997 0 0 1 I I #
face $-1 -1 $-1 $253 $254 $22 $-1 $255 reversed single #
loop $-1 -1 $-1 $-1 $256 $100 #
plane-surface $-1 -1 $-1 0.176776695296637 0.093499999999999694 0.17677669529663653 0.27440981337271542 0 0.96161284014136983 0 -1 0 forward_v I I I I #
coedge $-1 -1 $-1 $257 $258 $259 $260 reversed $101 $-1 #
coedge $-1 -1 $-1 $261 $103 $262 $263 reversed $64 $-1 #
coedge $-1 -1 $-1 $103 $261 $104 $172 forward $64 $-1 #
coedge $-1 -1 $-1 $264 $265 $103 $169 forward $266 $-1 #
edge $-1 -1 $-1 $267 -0.1927777798949869 $178 0.064259259964994625 $168 $268 forward @7 unknown #
coedge $-1 -1 $-1 $105 $104 $269 $270 reversed $41 $-1 #
coedge $-1 -1 $-1 $271 $272 $273 $172 forward $274 $-1 #
edge $-1 -1 $-1 $275 -0.046750000000000291 $178 0.14024999999999999 $171 $276 forward @7 unknown #
coedge $-1 -1 $-1 $277 $278 $105 $174 reversed $279 $-1 #
edge $-1 -1 $-1 $280 -4.4408920985006262e-016 $179 0.18699999999999983 $173 $281 forward @7 unknown #
coedge $-1 -1 $-1 $282 $106 $278 $283 forward $177 $-1 #
coedge $-1 -1 $-1 $106 $282 $271 $284 reversed $177 $-1 #
loop $-1 -1 $-1 $-1 $106 $285 #
vertex $-1 -1 $-1 $284 $286 #
vertex $-1 -1 $-1 $107 $287 #
straight-curve $-1 -1 $-1 -0.11836761975928764 -0.093500000000000139 -0.1934445504337628 -0.96161284014136983 0 0.27440981337271542 I I #
face $288 -1 $-1 $289 $290 $23 $-1 $291 reversed single #
loop $-1 -1 $-1 $-1 $292 $109 #
plane-surface $-1 -1 $-1 -0.24537914863981591 0 0 1 0 0 0 0 -1 forward_v I I I I #
coedge $-1 -1 $-1 $293 $192 $294 $295 forward $110 $-1 #
coedge $-1 -1 $-1 $296 $112 $293 $297 forward $68 $-1 #
coedge $-1 -1 $-1 $112 $296 $298 $299 forward $68 $-1 #
coedge $-1 -1 $-1 $195 $194 $112 $188 reversed $196 $-1 #
edge $-1 -1 $-1 $300 -0.093500000000000139 $301 0.093500000000000139 $187 $302 forward @7 unknown #
coedge $-1 -1 $-1 $114 $113 $303 $304 forward $44 $-1 #
coedge $-1 -1 $-1 $305 $306 $113 $191 reversed $290 $-1 #
edge $-1 -1 $-1 $198 -0.24537914863981591 $307 0.24537914863981591 $190 $308 forward @7 unknown #
coedge $-1 -1 $-1 $184 $309 $114 $193 reversed $110 $-1 #
edge $-1 -1 $-1 $310 -0.24537914863981591 $197 0.24537914863981591 $192 $311 forward @7 unknown #
coedge $-1 -1 $-1 $187 $115 $309 $312 forward $196 $-1 #
coedge $-1 -1 $-1 $115 $187 $305 $313 reversed $196 $-1 #
loop $-1 -1 $-1 $-1 $194 $289 #
vertex $-1 -1 $-1 $116 $314 #
vertex $-1 -1 $-1 $116 $315 #
straight-curve $-1 -1 $-1 0.24537914863981591 0 0.2453791486398158 0 1 0 I I #
model_id-kcp-attrib $-1 -1 $-1 $-1 $118 1 1021323597 1021323597 1659764737 7 #
face $316 -1 $-1 $235 $230 $8 $-1 $317 forward single #
loop $-1 -1 $-1 $-1 $226 $118 #
plane-surface $-1 -1 $-1 0.24537914863981566 -5.2169999999999996 7.0717734852612946 0.96161284014136983 0 0.27440981337271542 -0.27440981337271531 0 0.96161284014136961 forward_v I I I I #
loop $318 -1 $-1 $133 $121 $222 #
attrib_edge_convexity-kcp-attrib $-1 -1 $319 $-1 $122 1 #
vertex $320 -1 $-1 $122 $321 #
ellipse-curve $-1 -1 $-1 0 -5.4039999999999999 7.1353999999999997 0 -1 0 0.088388347648318419 0 0.088388347648318419 1 I I #
coedge $-1 -1 $-1 $126 $123 $322 $323 reversed $33 $-1 #
coedge $-1 -1 $-1 $239 $238 $123 $210 forward $119 $-1 #
edge $324 -1 $-1 $325 -0.25703703985998233 $212 0 $209 $326 forward @7 unknown #
attrib_edge_convexity-kcp-attrib $-1 -1 $327 $-1 $125 1 #
vertex $-1 -1 $-1 $243 $328 #
straight-curve $-1 -1 $-1 -0.17677669529663684 -5.4039999999999999 6.9586233047033632 -0.96161284014136961 0 0.27440981337271531 I I #
coedge $-1 -1 $-1 $229 $228 $126 $215 forward $230 $-1 #
edge $-1 -1 $-1 $216 -0.25000000000000011 $329 0 $214 $330 forward @7 unknown #
vertex $-1 -1 $-1 $234 $331 #
straight-curve $-1 -1 $-1 -0.063626514738705536 -5.4039999999999999 7.3807791486398155 0.70710678118654735 0 0.70710678118654735 I I #
convexity-sys-attrib $-1 -1 $-1 $129 $80 #
point $-1 -1 $-1 -0.17677669529663684 -5.4039999999999999 6.9586233047033632 #
point $-1 -1 $-1 -0.24537914863981566 -5.4039999999999999 7.1990265147387049 #
model_id-kcp-attrib $-1 -1 $-1 $-1 $133 1 1021323597 1021323597 1659764737 14 #
face $332 -1 $-1 $-1 $204 $8 $-1 $333 reversed single #
convexity-sys-attrib $-1 -1 $-1 $134 $82 #
model_id-kcp-attrib $-1 -1 $-1 $-1 $135 1 1021323597 1021323597 1659764737 18 #
point $-1 -1 $-1 0.088388347648318419 -5.2169999999999996 7.223788347648318 #
coedge $-1 -1 $-1 $334 $335 $137 $227 reversed $202 $-1 #
edge $336 -1 $-1 $232 -0.24999999999999931 $241 0 $226 $337 forward @7 unknown #
coedge $-1 -1 $-1 $214 $138 $141 $234 reversed $230 $-1 #
coedge $-1 -1 $-1 $138 $214 $334 $338 forward $230 $-1 #
loop $-1 -1 $-1 $-1 $138 $201 #
attrib_edge_convexity-kcp-attrib $-1 -1 $339 $-1 $139 1 #
vertex $-1 -1 $-1 $338 $340 #
straight-curve $-1 -1 $-1 0.17677669529663684 -5.2169999999999996 7.3121766952966363 0.96161284014136961 0 -0.27440981337271531 I I #
edge $-1 -1 $-1 $216 -0.1870000000000003 $144 0 $141 $341 forward @7 unknown #
face $342 -1 $-1 $222 $142 $8 $-1 $343 forward single #
convexity-sys-attrib $-1 -1 $-1 $143 $85 #
point $-1 -1 $-1 -0.063626514738705536 -5.2169999999999996 7.3807791486398155 #
coedge $-1 -1 $-1 $209 $146 $335 $344 reversed $119 $-1 #
coedge $-1 -1 $-1 $146 $209 $148 $243 forward $119 $-1 #
attrib_edge_convexity-kcp-attrib $-1 -1 $345 $-1 $147 1 #
vertex $-1 -1 $-1 $344 $346 #
straight-curve $-1 -1 $-1 0.063626514738705536 -5.2169999999999996 6.8900208513601839 -0.70710678118654735 0 -0.70710678118654735 I I #
edge $347 -1 $-1 $212 -0.1870000000000003 $151 0 $239 $348 forward @7 unknown #
convexity-sys-attrib $-1 -1 $-1 $150 $88 #
point $-1 -1 $-1 0.063626514738705536 -5.2169999999999996 6.8900208513601839 #
attrib_edge_convexity-kcp-attrib $-1 -1 $349 $-1 $153 1 #
straight-curve $-1 -1 $-1 -0.17677669529663684 -5.2169999999999996 6.9586233047033632 0 0.99999999999999989 0 I I #
attrib_edge_convexity-kcp-attrib $-1 -1 $350 $-1 $154 1 #
straight-curve $-1 -1 $-1 -0.24537914863981566 -5.2169999999999996 7.1990265147387049 0 0.99999999999999989 0 I I #
vertex $-1 -1 $-1 $159 $351 #
ellipse-curve $-1 -1 $-1 0 0 0.093500000000000139 0 0 1 0.12499999999999997 0 0 1 I I #
point $-1 -1 $-1 0.12499999999999997 0 -0.093500000000000139 #
face $-1 -1 $-1 $352 $279 $22 $-1 $353 reversed single #
loop $-1 -1 $-1 $-1 $354 $162 #
plane-surface $-1 -1 $-1 -0.063626514738705647 0.093499999999999694 0.2453791486398158 -0.70710678118654757 0 0.70710678118654757 0 -1 0 forward_v I I I I #
coedge $-1 -1 $-1 $355 $356 $357 $358 reversed $163 $-1 #
coedge $-1 -1 $-1 $359 $165 $356 $360 reversed $101 $-1 #
coedge $-1 -1 $-1 $165 $359 $166 $263 forward $101 $-1 #
coedge $-1 -1 $-1 $361 $357 $165 $260 forward $362 $-1 #
edge $-1 -1 $-1 $363 -0.18574074003500399 $267 0.064259259964995347 $259 $364 forward @7 unknown #
coedge $-1 -1 $-1 $167 $166 $365 $366 reversed $64 $-1 #
coedge $-1 -1 $-1 $367 $368 $369 $263 forward $370 $-1 #
edge $-1 -1 $-1 $371 -0.046750000000000291 $267 0.14024999999999999 $262 $372 forward @7 unknown #
coedge $-1 -1 $-1 $265 $168 $373 $374 reversed $266 $-1 #
coedge $-1 -1 $-1 $168 $264 $367 $375 reversed $266 $-1 #
loop $-1 -1 $-1 $-1 $168 $376 #
vertex $-1 -1 $-1 $375 $377 #
straight-curve $-1 -1 $-1 0.10906467321398319 -0.093500000000000139 -0.19994099016453826 -0.70710678118654757 0 -0.70710678118654757 I I #
coedge $-1 -1 $-1 $378 $379 $170 $270 forward $380 $-1 #
edge $-1 -1 $-1 $280 -0.060740740035004633 $275 0.18925925996499693 $269 $381 forward @7 unknown #
coedge $-1 -1 $-1 $382 $171 $176 $284 forward $274 $-1 #
coedge $-1 -1 $-1 $171 $382 $378 $383 forward $274 $-1 #
coedge $-1 -1 $-1 $384 $373 $167 $172 reversed $385 $-1 #
loop $-1 -1 $-1 $-1 $171 $386 #
vertex $-1 -1 $-1 $387 $388 #
straight-curve $-1 -1 $-1 0.06362651473870691 0.046749999999999847 -0.2453791486398158 0 -1 0 I I #
coedge $-1 -1 $-1 $389 $173 $379 $390 reversed $279 $-1 #
coedge $-1 -1 $-1 $173 $389 $175 $283 reversed $279 $-1 #
loop $-1 -1 $-1 $-1 $277 $253 #
vertex $-1 -1 $-1 $270 $391 #
straight-curve $-1 -1 $-1 -0.17677669529663703 0.093499999999999694 -0.17677669529663653 0 -1 0 I I #
coedge $-1 -1 $-1 $176 $175 $392 $393 forward $177 $-1 #
edge $-1 -1 $-1 $179 -0.18574074003500396 $394 0.064259259964995305 $175 $395 forward @7 unknown #
edge $-1 -1 $-1 $178 -0.063626514738706882 $396 0.24537914863981591 $176 $397 forward @7 unknown #
face $-1 -1 $-1 $398 $177 $22 $-1 $399 reversed single #
point $-1 -1 $-1 0.063626514738706882 -0.093500000000000139 -0.2453791486398158 #
point $-1 -1 $-1 -0.17677669529663703 -0.093500000000000139 -0.17677669529663653 #
model_id-kcp-attrib $-1 -1 $-1 $-1 $181 1 1021323597 1021323597 1659764738 2 #
face $-1 -1 $-1 $-1 $196 $23 $-1 $400 reversed single #
loop $-1 -1 $-1 $-1 $305 $181 #
plane-surface $-1 -1 $-1 0 0.093500000000000139 0 0 -1 0 0 0 -1 forward_v I I I I #
coedge $-1 -1 $-1 $401 $303 $306 $402 forward $182 $-1 #
coedge $-1 -1 $-1 $309 $184 $185 $297 reversed $110 $-1 #
coedge $-1 -1 $-1 $303 $401 $184 $295 reversed $182 $-1 #
edge $-1 -1 $-1 $310 -0.2453791486398158 $403 0.2453791486398158 $294 $404 forward @7 unknown #
coedge $-1 -1 $-1 $186 $185 $401 $405 forward $68 $-1 #
edge $-1 -1 $-1 $301 -0.24537914863981591 $403 0.24537914863981591 $293 $406 forward @7 unknown #
coedge $-1 -1 $-1 $306 $305 $186 $299 reversed $290 $-1 #
edge $-1 -1 $-1 $407 -0.24537914863981591 $300 0.24537914863981591 $298 $408 forward @7 unknown #
vertex $-1 -1 $-1 $188 $409 #
vertex $-1 -1 $-1 $312 $410 #
straight-curve $-1 -1 $-1 0.24537914863981591 0 -0.2453791486398158 0 -1 0 I I #
coedge $-1 -1 $-1 $292 $294 $189 $304 reversed $182 $-1 #
edge $-1 -1 $-1 $307 -0.093500000000000139 $310 0.093500000000000139 $303 $411 forward @7 unknown #
coedge $-1 -1 $-1 $298 $190 $195 $313 forward $290 $-1 #
coedge $-1 -1 $-1 $190 $298 $292 $402 reversed $290 $-1 #
vertex $-1 -1 $-1 $191 $412 #
straight-curve $-1 -1 $-1 0 0.093500000000000139 0.2453791486398158 -1 0 0 I I #
coedge $-1 -1 $-1 $192 $293 $194 $312 reversed $110 $-1 #
vertex $-1 -1 $-1 $304 $413 #
straight-curve $-1 -1 $-1 0 -0.093500000000000139 0.2453791486398158 1 0 0 I I #
edge $-1 -1 $-1 $197 -0.2453791486398158 $301 0.2453791486398158 $194 $414 forward @7 unknown #
edge $-1 -1 $-1 $198 -0.2453791486398158 $300 0.2453791486398158 $195 $415 forward @7 unknown #
point $-1 -1 $-1 0.24537914863981591 -0.093500000000000139 0.2453791486398158 #
point $-1 -1 $-1 0.24537914863981591 0.093500000000000139 0.2453791486398158 #
model_id-kcp-attrib $-1 -1 $-1 $-1 $201 1 1021323597 1021323597 1659764737 8 #
plane-surface $-1 -1 $-1 0.17677669529663684 -5.2169999999999996 7.3121766952966363 0.27440981337271542 0 0.96161284014136983 -0.96161284014136961 0 0.27440981337271531 forward_v I I I I #
model_id-kcp-attrib $-1 -1 $-1 $-1 $204 1 1021323597 1021323597 1659764737 13 #
convexity-sys-attrib $-1 -1 $-1 $205 $122 #
model_id-kcp-attrib $-1 -1 $-1 $-1 $206 1 1021323597 1021323597 1659764737 17 #
point $-1 -1 $-1 0.088388347648318419 -5.4039999999999999 7.223788347648318 #
coedge $-1 -1 $-1 $335 $334 $208 $323 forward $202 $-1 #
edge $-1 -1 $-1 $329 -0.24999999999999931 $325 0 $322 $416 forward @7 unknown #
attrib_edge_convexity-kcp-attrib $-1 -1 $417 $-1 $210 1 #
vertex $-1 -1 $-1 $344 $418 #
straight-curve $-1 -1 $-1 0.063626514738705536 -5.4039999999999999 6.8900208513601839 -0.70710678118654735 0 -0.70710678118654735 I I #
convexity-sys-attrib $-1 -1 $-1 $211 $125 #
point $-1 -1 $-1 0.063626514738705536 -5.4039999999999999 6.8900208513601839 #
vertex $-1 -1 $-1 $338 $419 #
straight-curve $-1 -1 $-1 0.17677669529663684 -5.4039999999999999 7.3121766952966363 0.96161284014136961 0 -0.27440981337271531 I I #
point $-1 -1 $-1 -0.063626514738705536 -5.4039999999999999 7.3807791486398155 #
model_id-kcp-attrib $-1 -1 $-1 $-1 $222 1 1021323597 1021323597 1659764737 10 #
cone-surface $-1 -1 $-1 0 -5.4039999999999999 7.1353999999999997 0 1 0 0.088388347648318419 0 0.088388347648318419 1 I I 0 1 0.12499999999999999 forward I I I I #
coedge $-1 -1 $-1 $322 $226 $229 $338 reversed $202 $-1 #
coedge $-1 -1 $-1 $226 $322 $238 $344 forward $202 $-1 #
attrib_edge_convexity-kcp-attrib $-1 -1 $420 $-1 $227 1 #
straight-curve $-1 -1 $-1 0.24537914863981566 -5.2169999999999996 7.0717734852612946 0.27440981337271531 0 -0.96161284014136961 I I #
edge $-1 -1 $-1 $329 -0.1870000000000003 $232 0 $229 $421 forward @7 unknown #
convexity-sys-attrib $-1 -1 $-1 $231 $139 #
point $-1 -1 $-1 0.17677669529663684 -5.2169999999999996 7.3121766952966363 #
straight-curve $-1 -1 $-1 -0.063626514738705536 -5.2169999999999996 7.3807791486398155 0 0.99999999999999989 0 I I #
model_id-kcp-attrib $-1 -1 $-1 $-1 $235 1 1021323597 1021323597 1659764737 9 #
plane-surface $-1 -1 $-1 -0.063626514738705536 -5.2169999999999996 7.3807791486398155 -0.70710678118654757 0 0.70710678118654757 -0.70710678118654735 0 -0.70710678118654735 forward_v I I I I #
edge $422 -1 $-1 $325 -0.1870000000000003 $241 0 $335 $423 forward @7 unknown #
convexity-sys-attrib $-1 -1 $-1 $240 $147 #
point $-1 -1 $-1 0.24537914863981566 -5.2169999999999996 7.0717734852612946 #
attrib_edge_convexity-kcp-attrib $-1 -1 $424 $-1 $243 1 #
straight-curve $-1 -1 $-1 0.063626514738705536 -5.2169999999999996 6.8900208513601839 0 0.99999999999999989 0 I I #
convexity-sys-attrib $-1 -1 $-1 $246 $153 #
convexity-sys-attrib $-1 -1 $-1 $248 $154 #
point $-1 -1 $-1 0.12499999999999997 0 0.093500000000000139 #
face $-1 -1 $-1 $425 $385 $22 $-1 $426 reversed single #
plane-surface $-1 -1 $-1 -0.24537914863981566 0.093499999999999694 0.063626514738705175 -0.96161284014136983 0 -0.27440981337271536 0 -1 0 forward_v I I I I #
coedge $-1 -1 $-1 $427 $428 $429 $430 reversed $254 $-1 #
coedge $-1 -1 $-1 $431 $256 $432 $433 reversed $163 $-1 #
coedge $-1 -1 $-1 $256 $431 $257 $360 forward $163 $-1 #
coedge $-1 -1 $-1 $259 $434 $256 $358 forward $362 $-1 #
edge $-1 -1 $-1 $435 -0.18925925996499696 $363 0.060740740035004619 $357 $436 forward @7 unknown #
coedge $-1 -1 $-1 $258 $257 $437 $438 reversed $101 $-1 #
edge $-1 -1 $-1 $439 -4.4408920985006262e-016 $363 0.18699999999999983 $257 $440 forward @7 unknown #
coedge $-1 -1 $-1 $434 $259 $441 $442 reversed $362 $-1 #
loop $-1 -1 $-1 $-1 $259 $443 #
vertex $-1 -1 $-1 $260 $444 #
straight-curve $-1 -1 $-1 0.22774577710535276 -0.093500000000000152 -0.0018339852583833874 0.27440981337271536 0 -0.96161284014136983 I I #
coedge $-1 -1 $-1 $445 $446 $261 $366 forward $447 $-1 #
edge $-1 -1 $-1 $275 -0.064259259964994625 $371 0.1927777798949869 $365 $448 forward @7 unknown #
coedge $-1 -1 $-1 $449 $262 $265 $375 forward $370 $-1 #
coedge $-1 -1 $-1 $262 $449 $445 $450 reversed $370 $-1 #
coedge $-1 -1 $-1 $451 $441 $258 $263 reversed $452 $-1 #
loop $-1 -1 $-1 $-1 $262 $453 #
vertex $-1 -1 $-1 $450 $454 #
straight-curve $-1 -1 $-1 0.24537914863981591 0.046749999999999847 -0.063626514738705509 0 -1 0 I I #
coedge $-1 -1 $-1 $273 $455 $264 $374 forward $385 $-1 #
edge $-1 -1 $-1 $456 -0.24537914863981591 $178 -0.063626514738706882 $264 $397 forward @7 unknown #
edge $-1 -1 $-1 $267 0.063626514738705175 $456 0.2453791486398158 $367 $457 forward @7 unknown #
face $-1 -1 $-1 $285 $266 $22 $-1 $399 reversed single #
point $-1 -1 $-1 0.24537914863981594 -0.093500000000000139 -0.063626514738705175 #
coedge $-1 -1 $-1 $458 $269 $272 $383 reversed $380 $-1 #
coedge $-1 -1 $-1 $269 $458 $277 $390 forward $380 $-1 #
loop $-1 -1 $-1 $-1 $269 $459 #
straight-curve $-1 -1 $-1 -0.11836761975928764 0.093500000000000139 -0.1934445504337628 0.96161284014136983 0 -0.27440981337271542 I I #
coedge $-1 -1 $-1 $272 $271 $460 $461 forward $274 $-1 #
edge $-1 -1 $-1 $462 -0.24537914863981591 $275 0.063626514738706882 $378 $463 forward @7 unknown #
coedge $-1 -1 $-1 $455 $273 $446 $387 forward $385 $-1 #
loop $-1 -1 $-1 $-1 $273 $352 #
face $-1 -1 $-1 $464 $274 $22 $-1 $426 reversed single #
edge $-1 -1 $-1 $275 0.063626514738706882 $465 0.24537914863981591 $446 $463 forward @7 unknown #
point $-1 -1 $-1 0.063626514738706882 0.093500000000000139 -0.2453791486398158 #
coedge $-1 -1 $-1 $278 $277 $428 $466 forward $279 $-1 #
edge $-1 -1 $-1 $467 -0.064259259964995721 $280 0.18574074003500396 $379 $468 forward @7 unknown #
point $-1 -1 $-1 -0.17677669529663703 0.093500000000000139 -0.17677669529663653 #
coedge $-1 -1 $-1 $469 $460 $282 $393 reversed $470 $-1 #
edge $-1 -1 $-1 $394 -0.063626514738705175 $396 0.2453791486398158 $392 $471 forward @7 unknown #
vertex $-1 -1 $-1 $393 $472 #
straight-curve $-1 -1 $-1 -0.22774577710535251 -0.093500000000000152 0.0018339852583834255 -0.27440981337271536 0 0.96161284014136983 I I #
vertex $-1 -1 $-1 $461 $473 #
straight-curve $-1 -1 $-1 0 -0.093500000000000139 -0.2453791486398158 -1 0 0 I I #
face $-1 -1 $-1 $474 $475 $22 $-1 $399 reversed single #
plane-surface $-1 -1 $-1 0 -0.093500000000000139 0 0 1 0 0 0 1 forward_v I I I I #
plane-surface $-1 -1 $-1 0.24537914863981591 0 0 -1 0 0 0 0 1 forward_v I I I I #
coedge $-1 -1 $-1 $294 $292 $296 $405 reversed $182 $-1 #
edge $-1 -1 $-1 $307 -0.2453791486398158 $407 0.2453791486398158 $306 $476 forward @7 unknown #
vertex $-1 -1 $-1 $405 $477 #
straight-curve $-1 -1 $-1 -0.24537914863981591 -0.093500000000000139 0 0 0 -1 I I #
edge $-1 -1 $-1 $403 -0.093500000000000139 $407 0.093500000000000139 $401 $478 forward @7 unknown #
straight-curve $-1 -1 $-1 0 -0.093500000000000139 -0.2453791486398158 -1 0 0 I I #
vertex $-1 -1 $-1 $299 $479 #
straight-curve $-1 -1 $-1 0 0.093500000000000139 -0.2453791486398158 1 0 0 I I #
point $-1 -1 $-1 0.24537914863981591 0.093500000000000139 -0.2453791486398158 #
point $-1 -1 $-1 0.24537914863981591 -0.093500000000000139 -0.2453791486398158 #
straight-curve $-1 -1 $-1 -0.24537914863981591 0 0.2453791486398158 0 -1 0 I I #
point $-1 -1 $-1 -0.24537914863981591 0.093500000000000139 0.2453791486398158 #
point $-1 -1 $-1 -0.24537914863981591 -0.093500000000000139 0.2453791486398158 #
straight-curve $-1 -1 $-1 0.24537914863981591 -0.093500000000000139 0 0 0 -1 I I #
straight-curve $-1 -1 $-1 0.24537914863981591 0.093500000000000139 0 0 0 -1 I I #
straight-curve $-1 -1 $-1 0.24537914863981566 -5.4039999999999999 7.0717734852612946 0.27440981337271531 0 -0.96161284014136961 I I #
convexity-sys-attrib $-1 -1 $-1 $324 $210 #
point $-1 -1 $-1 0.24537914863981566 -5.4039999999999999 7.0717734852612946 #
point $-1 -1 $-1 0.17677669529663684 -5.4039999999999999 7.3121766952966363 #
convexity-sys-attrib $-1 -1 $-1 $336 $227 #
straight-curve $-1 -1 $-1 0.17677669529663684 -5.2169999999999996 7.3121766952966363 0 0.99999999999999989 0 I I #
attrib_edge_convexity-kcp-attrib $-1 -1 $480 $-1 $344 1 #
straight-curve $-1 -1 $-1 0.24537914863981566 -5.2169999999999996 7.0717734852612946 0 0.99999999999999989 0 I I #
convexity-sys-attrib $-1 -1 $-1 $347 $243 #
face $-1 -1 $-1 $481 $452 $22 $-1 $482 reversed single #
plane-surface $-1 -1 $-1 0 0 -0.2453791486398158 0 0 1 1 0 0 forward_v I I I I #
coedge $-1 -1 $-1 $483 $354 $355 $433 forward $254 $-1 #
coedge $-1 -1 $-1 $354 $483 $484 $466 reversed $254 $-1 #
coedge $-1 -1 $-1 $485 $486 $354 $430 forward $487 $-1 #
edge $-1 -1 $-1 $488 -0.064259259964994611 $467 0.19277777989498662 $429 $489 forward @7 unknown #
coedge $-1 -1 $-1 $356 $355 $490 $491 reversed $163 $-1 #
coedge $-1 -1 $-1 $492 $493 $494 $433 forward $495 $-1 #
edge $-1 -1 $-1 $488 -0.046750000000000291 $435 0.14024999999999999 $432 $496 forward @7 unknown #
coedge $-1 -1 $-1 $357 $361 $492 $497 reversed $362 $-1 #
vertex $-1 -1 $-1 $497 $498 #
straight-curve $-1 -1 $-1 0.11836761975928763 -0.093500000000000139 0.1934445504337628 0.96161284014136983 0 -0.27440981337271542 I I #
coedge $-1 -1 $-1 $490 $499 $359 $438 forward $500 $-1 #
edge $-1 -1 $-1 $371 -0.064259259964995347 $439 0.18574074003500399 $437 $501 forward @7 unknown #
vertex $-1 -1 $-1 $438 $502 #
straight-curve $-1 -1 $-1 0.176776695296637 0.093499999999999694 0.17677669529663653 0 -1 0 I I #
coedge $-1 -1 $-1 $369 $503 $361 $442 forward $452 $-1 #
edge $-1 -1 $-1 $504 -0.2453791486398158 $267 0.063626514738705175 $441 $457 forward @7 unknown #
face $-1 -1 $-1 $376 $362 $22 $-1 $399 reversed single #
point $-1 -1 $-1 0.176776695296637 -0.093500000000000139 0.17677669529663653 #
coedge $-1 -1 $-1 $446 $365 $368 $450 forward $447 $-1 #
coedge $-1 -1 $-1 $365 $445 $384 $387 reversed $447 $-1 #
loop $-1 -1 $-1 $-1 $365 $505 #
straight-curve $-1 -1 $-1 0.10906467321398319 0.093500000000000139 -0.19994099016453826 0.70710678118654757 0 0.70710678118654757 I I #
coedge $-1 -1 $-1 $368 $367 $455 $506 reversed $370 $-1 #
edge $-1 -1 $-1 $371 0.063626514738705175 $465 0.2453791486398158 $368 $507 forward @7 unknown #
coedge $-1 -1 $-1 $503 $369 $499 $508 reversed $452 $-1 #
loop $-1 -1 $-1 $-1 $369 $425 #
face $-1 -1 $-1 $-1 $370 $22 $-1 $482 reversed single #
point $-1 -1 $-1 0.24537914863981594 0.093500000000000139 -0.063626514738705175 #
coedge $-1 -1 $-1 $373 $384 $449 $506 forward $385 $-1 #
vertex $-1 -1 $-1 $375 $509 #
straight-curve $-1 -1 $-1 0.24537914863981591 -0.093500000000000139 0 0 0 -1 I I #
coedge $-1 -1 $-1 $379 $378 $510 $511 reversed $380 $-1 #
face $-1 -1 $-1 $505 $380 $22 $-1 $512 reversed single #
coedge $-1 -1 $-1 $392 $510 $382 $461 reversed $470 $-1 #
edge $-1 -1 $-1 $396 -0.093500000000000139 $462 0.093500000000000139 $460 $513 forward @7 unknown #
vertex $-1 -1 $-1 $383 $514 #
straight-curve $-1 -1 $-1 0 0.093500000000000139 -0.2453791486398158 1 0 0 I I #
face $-1 -1 $-1 $453 $470 $22 $-1 $515 reversed single #
vertex $-1 -1 $-1 $506 $516 #
edge $-1 -1 $-1 $467 -0.046750000000000291 $394 0.14024999999999999 $484 $517 forward @7 unknown #
vertex $-1 -1 $-1 $511 $518 #
straight-curve $-1 -1 $-1 -0.22774577710535251 0.093500000000000139 0.0018339852583834255 0.27440981337271536 0 -0.96161284014136983 I I #
coedge $-1 -1 $-1 $510 $392 $389 $466 reversed $470 $-1 #
loop $-1 -1 $-1 $-1 $469 $464 #
straight-curve $-1 -1 $-1 -0.24537914863981591 -0.093500000000000139 0 0 0 -1 I I #
point $-1 -1 $-1 -0.24537914863981566 -0.093500000000000139 0.063626514738705175 #
point $-1 -1 $-1 -0.24537914863981591 -0.093500000000000139 -0.2453791486398158 #
face $-1 -1 $-1 $519 $520 $22 $-1 $521 forward single #
loop $-1 -1 $-1 $-1 $522 $398 #
straight-curve $-1 -1 $-1 -0.24537914863981591 0.093500000000000139 0 0 0 -1 I I #
point $-1 -1 $-1 -0.24537914863981591 -0.093500000000000139 -0.2453791486398158 #
straight-curve $-1 -1 $-1 -0.24537914863981591 0 -0.2453791486398158 0 1 0 I I #
point $-1 -1 $-1 -0.24537914863981591 0.093500000000000139 -0.2453791486398158 #
convexity-sys-attrib $-1 -1 $-1 $422 $344 #
face $-1 -1 $-1 $459 $487 $22 $-1 $512 reversed single #
plane-surface $-1 -1 $-1 0.24537914863981591 0 0 -1 0 0 0 0 1 forward_v I I I I #
coedge $-1 -1 $-1 $428 $427 $522 $523 reversed $254 $-1 #
coedge $-1 -1 $-1 $524 $525 $469 $466 forward $526 $-1 #
coedge $-1 -1 $-1 $486 $429 $525 $527 reversed $487 $-1 #
coedge $-1 -1 $-1 $429 $485 $528 $529 reversed $487 $-1 #
loop $-1 -1 $-1 $-1 $429 $481 #
vertex $-1 -1 $-1 $529 $530 #
straight-curve $-1 -1 $-1 -0.10906467321398319 0.093500000000000139 0.19994099016453826 -0.70710678118654757 0 -0.70710678118654757 I I #
coedge $-1 -1 $-1 $531 $437 $431 $491 forward $500 $-1 #
edge $-1 -1 $-1 $439 -0.060740740035004619 $488 0.18925925996499696 $490 $532 forward @7 unknown #
coedge $-1 -1 $-1 $533 $432 $434 $497 forward $495 $-1 #
coedge $-1 -1 $-1 $432 $533 $531 $534 forward $495 $-1 #
coedge $-1 -1 $-1 $528 $535 $427 $433 reversed $520 $-1 #
loop $-1 -1 $-1 $-1 $432 $519 #
straight-curve $-1 -1 $-1 -0.063626514738706924 0.046749999999999847 0.2453791486398158 0 -1 0 I I #
edge $-1 -1 $-1 $435 -0.06362651473870691 $504 0.24537914863981591 $434 $536 forward @7 unknown #
point $-1 -1 $-1 -0.06362651473870691 -0.093500000000000139 0.2453791486398158 #
coedge $-1 -1 $-1 $437 $531 $451 $508 forward $500 $-1 #
loop $-1 -1 $-1 $-1 $437 $537 #
straight-curve $-1 -1 $-1 0.22774577710535276 0.093500000000000139 -0.0018339852583833874 -0.27440981337271536 0 0.96161284014136983 I I #
point $-1 -1 $-1 0.176776695296637 0.093500000000000139 0.17677669529663653 #
coedge $-1 -1 $-1 $441 $451 $533 $538 reversed $452 $-1 #
vertex $-1 -1 $-1 $538 $539 #
face $-1 -1 $-1 $537 $447 $22 $-1 $512 reversed single #
edge $-1 -1 $-1 $465 -0.093500000000000139 $456 0.093500000000000139 $449 $540 forward @7 unknown #
straight-curve $-1 -1 $-1 0.24537914863981591 0.093500000000000139 0 0 0 -1 I I #
edge $-1 -1 $-1 $541 -0.2453791486398158 $371 0.063626514738705175 $451 $507 forward @7 unknown #
point $-1 -1 $-1 0.24537914863981591 -0.093500000000000139 -0.2453791486398158 #
coedge $-1 -1 $-1 $460 $469 $458 $511 forward $470 $-1 #
edge $-1 -1 $-1 $467 -0.063626514738705536 $462 0.2453791486398158 $458 $542 forward @7 unknown #
plane-surface $-1 -1 $-1 0 0.093500000000000139 0 0 -1 0 0 0 -1 forward_v I I I I #
straight-curve $-1 -1 $-1 -0.24537914863981591 0 -0.2453791486398158 0 1 0 I I #
point $-1 -1 $-1 -0.24537914863981591 0.093500000000000139 -0.2453791486398158 #
plane-surface $-1 -1 $-1 -0.24537914863981591 0 0 1 0 0 0 0 -1 forward_v I I I I #
point $-1 -1 $-1 0.24537914863981591 0.093500000000000139 -0.2453791486398158 #
straight-curve $-1 -1 $-1 -0.24537914863981591 0.046749999999999847 0.063626514738705509 0 -1 0 I I #
point $-1 -1 $-1 -0.24537914863981591 0.093500000000000139 0.063626514738705536 #
face $-1 -1 $-1 $386 $495 $22 $-1 $521 forward single #
loop $-1 -1 $-1 $-1 $494 $474 #
plane-surface $-1 -1 $-1 0 0 0.2453791486398158 0 0 1 1 0 0 forward_v I I I I #
coedge $-1 -1 $-1 $543 $544 $483 $523 forward $475 $-1 #
edge $-1 -1 $-1 $394 -0.19277777989498671 $435 0.064259259964994611 $522 $545 forward @7 unknown #
coedge $-1 -1 $-1 $546 $484 $544 $547 reversed $526 $-1 #
coedge $-1 -1 $-1 $484 $546 $485 $527 forward $526 $-1 #
loop $-1 -1 $-1 $-1 $484 $548 #
edge $-1 -1 $-1 $549 -0.2453791486398158 $467 -0.063626514738705536 $485 $542 forward @7 unknown #
coedge $-1 -1 $-1 $550 $494 $486 $529 forward $520 $-1 #
edge $-1 -1 $-1 $488 0.06362651473870691 $549 0.24537914863981591 $486 $551 forward @7 unknown #
point $-1 -1 $-1 -0.06362651473870691 0.093500000000000139 0.2453791486398158 #
coedge $-1 -1 $-1 $499 $490 $493 $534 reversed $500 $-1 #
straight-curve $-1 -1 $-1 0.11836761975928763 0.093500000000000139 0.1934445504337628 -0.96161284014136983 0 0.27440981337271542 I I #
coedge $-1 -1 $-1 $493 $492 $503 $538 forward $495 $-1 #
edge $-1 -1 $-1 $541 -0.24537914863981591 $488 0.06362651473870691 $531 $551 forward @7 unknown #
coedge $-1 -1 $-1 $494 $550 $543 $552 forward $520 $-1 #
straight-curve $-1 -1 $-1 0 -0.093500000000000139 0.2453791486398158 1 0 0 I I #
face $-1 -1 $-1 $548 $500 $22 $-1 $512 reversed single #
edge $-1 -1 $-1 $504 -0.093500000000000139 $541 0.093500000000000139 $503 $553 forward @7 unknown #
point $-1 -1 $-1 0.24537914863981591 -0.093500000000000139 0.2453791486398158 #
straight-curve $-1 -1 $-1 0.24537914863981591 0 -0.2453791486398158 0 -1 0 I I #
vertex $-1 -1 $-1 $538 $554 #
straight-curve $-1 -1 $-1 -0.24537914863981591 0.093500000000000139 0 0 0 -1 I I #
coedge $-1 -1 $-1 $544 $522 $535 $552 reversed $475 $-1 #
coedge $-1 -1 $-1 $522 $543 $524 $547 forward $475 $-1 #
straight-curve $-1 -1 $-1 -0.10906467321398319 -0.093500000000000139 0.19994099016453826 0.70710678118654757 0 0.70710678118654757 I I #
coedge $-1 -1 $-1 $525 $524 $550 $555 reversed $526 $-1 #
edge $-1 -1 $-1 $556 -0.2453791486398158 $394 -0.063626514738705175 $524 $471 forward @7 unknown #
face $-1 -1 $-1 $443 $526 $22 $-1 $515 reversed single #
vertex $-1 -1 $-1 $529 $557 #
coedge $-1 -1 $-1 $535 $528 $546 $555 forward $520 $-1 #
straight-curve $-1 -1 $-1 0 0.093500000000000139 0.2453791486398158 -1 0 0 I I #
edge $-1 -1 $-1 $556 -0.24537914863981591 $435 -0.06362651473870691 $543 $536 forward @7 unknown #
straight-curve $-1 -1 $-1 0.24537914863981591 0 0.2453791486398158 0 1 0 I I #
point $-1 -1 $-1 0.24537914863981591 0.093500000000000139 0.2453791486398158 #
edge $-1 -1 $-1 $549 -0.093500000000000139 $556 0.093500000000000139 $546 $558 forward @7 unknown #
vertex $-1 -1 $-1 $555 $559 #
point $-1 -1 $-1 -0.24537914863981591 0.093500000000000139 0.2453791486398158 #
straight-curve $-1 -1 $-1 -0.24537914863981591 0 0.2453791486398158 0 -1 0 I I #
point $-1 -1 $-1 -0.24537914863981591 -0.093500000000000139 0.2453791486398158 #
End-of-ACIS-data 