700 0 2 0           
24 FBMach with ACIS - 7.0.3 13 ACIS 7.0.3 NT 24 Mon May 13 17:00:25 2002 
1 9.9999999999999995e-007 1e-010 
body $2 -1 $-1 $3 $-1 $4 #
bdycol-kcp $-1 -1 1 3 $5 $6 $7 #
model_id-kcp-attrib $-1 -1 $-1 $-1 $0 1 1021323624 1021323624 110231553 1 #
lump $-1 -1 $-1 $-1 $8 $0 #
transform $-1 -1 1.0000000000000007 0 0 0 1 0 0 0 1.0000000000000007 -5.5511151231257827e-017 0 -5.5511151231257827e-016 1 rotate no_reflect no_shear #
body $9 -1 $-1 $10 $-1 $11 #
body $12 -1 $-1 $13 $-1 $14 #
body $15 -1 $-1 $16 $-1 $17 #
shell $-1 -1 $-1 $-1 $-1 $18 $-1 $3 #
model_id-kcp-attrib $-1 -1 $-1 $-1 $5 1 1021323624 1021323624 110231554 1 #
lump $-1 -1 $-1 $-1 $19 $5 #
transform $-1 -1 1 0 0 0 1 0 0 0 1 0 -4.7484999999999999 1.125 1 no_rotate no_reflect no_shear #
rgb_color-st-attrib $-1 -1 $20 $-1 $6 0.5 1 1 #
lump $-1 -1 $-1 $-1 $21 $6 #
transform $-1 -1 1 0 0 0 -3.8285889215894375e-016 -1 0 1 -3.8285889215894375e-016 0 -4.7484999999999999 1.125 1 rotate no_reflect no_shear #
rgb_color-st-attrib $-1 -1 $22 $-1 $7 0.5 1 1 #
lump $-1 -1 $-1 $-1 $23 $7 #
transform $-1 -1 1 0 0 0 1 0 0 0 1 0 -4.7484999999999999 1.125 1 no_rotate no_reflect no_shear #
face $24 -1 $-1 $25 $26 $8 $-1 $27 reversed single #
shell $-1 -1 $-1 $-1 $-1 $28 $-1 $10 #
model_id-kcp-attrib $-1 -1 $-1 $12 $6 1 1021323624 1021323624 111542275 1 #
shell $-1 -1 $-1 $-1 $-1 $29 $-1 $13 #
model_id-kcp-attrib $-1 -1 $-1 $15 $7 1 1021323624 1021323625 109445124 1 #
shell $-1 -1 $-1 $-1 $-1 $30 $-1 $16 #
model_id-kcp-attrib $-1 -1 $-1 $-1 $18 1 1021323624 1021323624 110231553 2 #
face $31 -1 $-1 $32 $33 $8 $-1 $34 forward single #
loop $-1 -1 $-1 $35 $36 $18 #
plane-surface $-1 -1 $-1 0 -4.6550000000000002 1.125 0 -1 0 0.70710678118654735 0 -0.70710678118654735 forward_v I I I I #
face $-1 -1 $-1 $37 $38 $19 $-1 $39 forward single #
face $-1 -1 $-1 $40 $41 $21 $-1 $42 forward single #
face $-1 -1 $-1 $43 $44 $23 $-1 $45 reversed single #
model_id-kcp-attrib $-1 -1 $-1 $-1 $25 1 1021323624 1021323624 110231553 3 #
face $46 -1 $-1 $47 $48 $8 $-1 $49 forward single #
loop $-1 -1 $-1 $50 $51 $25 #
plane-surface $-1 -1 $-1 0 -4.8420000000000005 1.125 0 -1 0 0.70710678118654735 0 -0.70710678118654735 forward_v I I I I #
loop $52 -1 $-1 $-1 $53 $18 #
coedge $-1 -1 $-1 $54 $55 $56 $57 forward $26 $-1 #
face $-1 -1 $-1 $58 $59 $19 $-1 $60 reversed single #
loop $-1 -1 $-1 $-1 $61 $28 #
plane-surface $-1 -1 $-1 0 0 0.24537914863981564 0 0 1 1 0 0 forward_v I I I I #
face $-1 -1 $-1 $62 $63 $21 $-1 $64 forward single #
loop $-1 -1 $-1 $65 $66 $29 #
cone-surface $-1 -1 $-1 0 0 0 0 0 1 0.12499999999999997 0 0 1 I I 0 1 0.12499999999999997 forward I I I I #
face $-1 -1 $-1 $67 $68 $23 $-1 $69 reversed single #
loop $-1 -1 $-1 $-1 $70 $30 #
plane-surface $-1 -1 $-1 -0.17677669529663681 0.093499999999999694 -0.17677669529663675 -0.27440981337271542 0 -0.96161284014136983 0 1 0 forward_v I I I I #
model_id-kcp-attrib $-1 -1 $-1 $-1 $32 1 1021323624 1021323624 110231553 4 #
face $71 -1 $-1 $72 $73 $8 $-1 $74 forward single #
loop $-1 -1 $-1 $-1 $56 $32 #
plane-surface $-1 -1 $-1 -0.24537914863981566 -4.6550000000000002 1.1886265147387056 -0.96161284014136983 0 -0.27440981337271542 0.27440981337271531 0 -0.96161284014136961 forward_v I I I I #
loop $75 -1 $-1 $-1 $76 $25 #
coedge $-1 -1 $-1 $77 $78 $79 $80 reversed $33 $-1 #
model_id-kcp-attrib $-1 -1 $-1 $-1 $35 1 1021323624 1021323624 110231553 16 #
coedge $-1 -1 $-1 $53 $53 $81 $82 forward $35 $-1 #
coedge $-1 -1 $-1 $83 $36 $84 $85 forward $26 $-1 #
coedge $-1 -1 $-1 $36 $86 $87 $88 forward $26 $-1 #
coedge $-1 -1 $-1 $89 $90 $36 $57 reversed $48 $-1 #
edge $91 -1 $-1 $92 -0.25000000000000006 $93 0 $56 $94 forward @7 unknown #
face $95 -1 $-1 $96 $97 $19 $-1 $98 reversed single #
loop $-1 -1 $-1 $-1 $99 $37 #
plane-surface $-1 -1 $-1 0 0 -0.24537914863981564 0 0 1 1 0 0 forward_v I I I I #
coedge $-1 -1 $-1 $100 $101 $102 $103 forward $38 $-1 #
face $-1 -1 $-1 $-1 $104 $21 $-1 $105 forward single #
loop $-1 -1 $-1 $-1 $106 $40 #
plane-surface $-1 -1 $-1 0 0 -0.093500000000000139 0 0 -1 -1 0 0 forward_v I I I I #
loop $-1 -1 $-1 $-1 $107 $29 #
coedge $-1 -1 $-1 $66 $66 $106 $108 reversed $41 $-1 #
face $-1 -1 $-1 $109 $110 $23 $-1 $111 reversed single #
loop $-1 -1 $-1 $-1 $112 $43 #
plane-surface $-1 -1 $-1 0.063626514738705536 0.093499999999999694 -0.24537914863981569 0.70710678118654757 0 -0.70710678118654757 0 1 0 forward_v I I I I #
coedge $-1 -1 $-1 $113 $114 $115 $116 reversed $44 $-1 #
model_id-kcp-attrib $-1 -1 $-1 $-1 $47 1 1021323624 1021323624 110231553 5 #
face $117 -1 $-1 $118 $119 $8 $-1 $120 forward single #
loop $-1 -1 $-1 $-1 $87 $47 #
plane-surface $-1 -1 $-1 -0.17677669529663684 -4.6550000000000002 0.94822330470336313 -0.27440981337271542 0 -0.96161284014136983 0.96161284014136961 0 -0.27440981337271531 forward_v I I I I #
model_id-kcp-attrib $-1 -1 $-1 $-1 $50 1 1021323624 1021323624 110231553 15 #
coedge $-1 -1 $-1 $76 $76 $121 $122 reversed $50 $-1 #
coedge $-1 -1 $-1 $123 $51 $124 $125 reversed $33 $-1 #
coedge $-1 -1 $-1 $51 $126 $127 $128 reversed $33 $-1 #
coedge $-1 -1 $-1 $90 $89 $51 $80 forward $48 $-1 #
edge $129 -1 $-1 $130 -0.25000000000000006 $131 0 $79 $132 forward @7 unknown #
coedge $-1 -1 $-1 $81 $81 $53 $82 reversed $133 $-1 #
edge $134 -1 $-1 $135 -3.1415926535897931 $135 3.1415926535897931 $81 $136 forward @7 unknown #
coedge $-1 -1 $-1 $137 $54 $138 $139 forward $26 $-1 #
coedge $-1 -1 $-1 $140 $141 $54 $85 reversed $142 $-1 #
edge $143 -1 $-1 $93 -0.25703703985998183 $144 0 $84 $145 forward @7 unknown #
coedge $-1 -1 $-1 $55 $137 $146 $147 forward $26 $-1 #
coedge $-1 -1 $-1 $148 $149 $55 $88 reversed $73 $-1 #
edge $150 -1 $-1 $151 -0.24999999999999997 $92 0 $87 $152 forward @7 unknown #
coedge $-1 -1 $-1 $79 $56 $149 $153 reversed $48 $-1 #
coedge $-1 -1 $-1 $56 $79 $140 $154 forward $48 $-1 #
attrib_edge_convexity-kcp-attrib $-1 -1 $155 $-1 $57 1 #
vertex $-1 -1 $-1 $153 $156 #
vertex $-1 -1 $-1 $154 $157 #
straight-curve $-1 -1 $-1 -0.24537914863981566 -4.6550000000000002 1.1886265147387056 -0.27440981337271531 0 0.96161284014136961 I I #
model_id-kcp-attrib $-1 -1 $-1 $-1 $58 1 1021323624 1021323624 110231554 3 #
face $-1 -1 $-1 $158 $159 $19 $-1 $160 reversed single #
loop $-1 -1 $-1 $-1 $161 $58 #
plane-surface $-1 -1 $-1 0 -0.093500000000000139 0 0 1 0 0 0 1 forward_v I I I I #
coedge $-1 -1 $-1 $162 $163 $164 $165 forward $59 $-1 #
coedge $-1 -1 $-1 $166 $61 $167 $168 forward $38 $-1 #
coedge $-1 -1 $-1 $61 $166 $169 $170 forward $38 $-1 #
coedge $-1 -1 $-1 $171 $172 $61 $103 reversed $173 $-1 #
edge $-1 -1 $-1 $174 -0.093500000000000139 $175 0.093500000000000139 $102 $176 forward @7 unknown #
loop $-1 -1 $-1 $-1 $177 $62 #
plane-surface $-1 -1 $-1 0 0 0.093500000000000139 0 0 1 1 0 0 forward_v I I I I #
coedge $-1 -1 $-1 $106 $106 $66 $108 forward $63 $-1 #
coedge $-1 -1 $-1 $107 $107 $177 $178 reversed $65 $-1 #
edge $-1 -1 $-1 $179 0 $179 6.2831853071795862 $106 $180 forward @7 unknown #
face $-1 -1 $-1 $181 $182 $23 $-1 $183 reversed single #
loop $-1 -1 $-1 $-1 $184 $67 #
plane-surface $-1 -1 $-1 0.24537914863981561 0.093499999999999694 -0.06362651473870562 0.96161284014136983 0 0.27440981337271542 0 1 0 forward_v I I I I #
coedge $-1 -1 $-1 $185 $186 $187 $188 reversed $68 $-1 #
coedge $-1 -1 $-1 $189 $70 $190 $191 reversed $44 $-1 #
coedge $-1 -1 $-1 $70 $189 $192 $193 forward $44 $-1 #
coedge $-1 -1 $-1 $194 $195 $70 $116 forward $196 $-1 #
edge $-1 -1 $-1 $197 -0.18925925996499565 $198 0.060740740035004494 $115 $199 forward @7 unknown #
model_id-kcp-attrib $-1 -1 $-1 $-1 $72 1 1021323624 1021323624 110231553 6 #
face $200 -1 $-1 $201 $202 $8 $-1 $203 forward single #
loop $-1 -1 $-1 $-1 $146 $72 #
plane-surface $-1 -1 $-1 0.063626514738705536 -4.6550000000000002 0.87962085136018431 0.70710678118654757 0 -0.70710678118654757 0.70710678118654735 0 0.70710678118654735 forward_v I I I I #
coedge $-1 -1 $-1 $121 $121 $76 $122 forward $204 $-1 #
edge $205 -1 $-1 $206 3.3306690738754701e-016 $206 6.2831853071795862 $121 $207 forward @7 unknown #
coedge $-1 -1 $-1 $208 $77 $209 $210 reversed $33 $-1 #
coedge $-1 -1 $-1 $149 $148 $77 $125 forward $73 $-1 #
edge $211 -1 $-1 $212 -0.24999999999999997 $130 0 $124 $213 forward @7 unknown #
coedge $-1 -1 $-1 $78 $208 $214 $215 reversed $33 $-1 #
coedge $-1 -1 $-1 $141 $140 $78 $128 forward $142 $-1 #
edge $-1 -1 $-1 $131 -0.25703703985998183 $216 0 $127 $217 forward @7 unknown #
attrib_edge_convexity-kcp-attrib $-1 -1 $218 $-1 $80 1 #
vertex $-1 -1 $-1 $153 $219 #
vertex $-1 -1 $-1 $154 $220 #
straight-curve $-1 -1 $-1 -0.24537914863981566 -4.8420000000000005 1.1886265147387056 -0.27440981337271531 0 0.96161284014136961 I I #
loop $221 -1 $-1 $-1 $81 $222 #
attrib_edge_convexity-kcp-attrib $-1 -1 $223 $-1 $82 1 #
vertex $224 -1 $-1 $82 $225 #
ellipse-curve $-1 -1 $-1 0 -4.6550000000000002 1.125 0 -1 0 -0.088388347648318419 0 -0.088388347648318419 1 I I #
coedge $-1 -1 $-1 $86 $83 $226 $227 forward $26 $-1 #
coedge $-1 -1 $-1 $228 $229 $83 $139 reversed $230 $-1 #
edge $231 -1 $-1 $144 -0.24999999999999997 $232 0 $138 $233 forward @7 unknown #
coedge $-1 -1 $-1 $127 $84 $90 $154 reversed $142 $-1 #
coedge $-1 -1 $-1 $84 $127 $228 $234 forward $142 $-1 #
loop $-1 -1 $-1 $-1 $84 $235 #
attrib_edge_convexity-kcp-attrib $-1 -1 $236 $-1 $85 1 #
vertex $-1 -1 $-1 $234 $237 #
straight-curve $-1 -1 $-1 -0.063626514738705536 -4.6550000000000002 1.3703791486398156 0.70710678118654735 0 0.70710678118654735 I I #
coedge $-1 -1 $-1 $238 $239 $86 $147 reversed $119 $-1 #
edge $240 -1 $-1 $241 -0.25703703985998189 $151 0 $146 $242 forward @7 unknown #
coedge $-1 -1 $-1 $124 $87 $239 $243 reversed $73 $-1 #
coedge $-1 -1 $-1 $87 $124 $89 $153 forward $73 $-1 #
attrib_edge_convexity-kcp-attrib $-1 -1 $244 $-1 $88 1 #
vertex $-1 -1 $-1 $243 $245 #
straight-curve $-1 -1 $-1 -0.17677669529663684 -4.6550000000000002 0.94822330470336313 -0.96161284014136961 0 0.27440981337271531 I I #
edge $246 -1 $-1 $130 -0.1870000000000003 $92 0 $149 $247 forward @7 unknown #
edge $248 -1 $-1 $131 -0.1870000000000003 $93 0 $140 $249 forward @7 unknown #
convexity-sys-attrib $-1 -1 $-1 $91 $57 #
point $-1 -1 $-1 -0.17677669529663684 -4.6550000000000002 0.94822330470336313 #
point $-1 -1 $-1 -0.24537914863981566 -4.6550000000000002 1.1886265147387056 #
face $250 -1 $-1 $251 $252 $19 $-1 $253 reversed single #
loop $-1 -1 $-1 $-1 $254 $96 #
plane-surface $-1 -1 $-1 -0.24537914863981566 0 0 1 0 0 0 0 -1 forward_v I I I I #
coedge $-1 -1 $-1 $255 $169 $256 $257 forward $97 $-1 #
coedge $-1 -1 $-1 $258 $99 $255 $259 forward $59 $-1 #
coedge $-1 -1 $-1 $99 $258 $260 $261 forward $59 $-1 #
coedge $-1 -1 $-1 $172 $171 $99 $165 reversed $173 $-1 #
edge $-1 -1 $-1 $262 -0.093500000000000139 $263 0.093500000000000139 $164 $264 forward @7 unknown #
coedge $-1 -1 $-1 $101 $100 $265 $266 forward $38 $-1 #
coedge $-1 -1 $-1 $267 $268 $100 $168 reversed $252 $-1 #
edge $-1 -1 $-1 $175 -0.24537914863981566 $269 0.24537914863981566 $167 $270 forward @7 unknown #
coedge $-1 -1 $-1 $161 $271 $101 $170 reversed $97 $-1 #
edge $-1 -1 $-1 $272 -0.24537914863981566 $174 0.24537914863981566 $169 $273 forward @7 unknown #
coedge $-1 -1 $-1 $164 $102 $271 $274 forward $173 $-1 #
coedge $-1 -1 $-1 $102 $164 $267 $275 reversed $173 $-1 #
loop $-1 -1 $-1 $-1 $171 $251 #
vertex $-1 -1 $-1 $103 $276 #
vertex $-1 -1 $-1 $103 $277 #
straight-curve $-1 -1 $-1 0.24537914863981566 0 0.24537914863981564 0 1 0 I I #
coedge $-1 -1 $-1 $177 $177 $107 $178 forward $104 $-1 #
edge $-1 -1 $-1 $278 0 $278 6.2831853071795862 $177 $279 forward @7 unknown #
vertex $-1 -1 $-1 $108 $280 #
ellipse-curve $-1 -1 $-1 0 0 -0.093500000000000139 0 0 -1 0.12499999999999997 0 0 1 I I #
face $-1 -1 $-1 $281 $282 $23 $-1 $283 reversed single #
loop $-1 -1 $-1 $-1 $284 $109 #
plane-surface $-1 -1 $-1 0.17677669529663684 0.093499999999999694 0.17677669529663675 0.27440981337271542 0 0.96161284014136983 0 -1 0 forward_v I I I I #
coedge $-1 -1 $-1 $285 $286 $287 $288 reversed $110 $-1 #
coedge $-1 -1 $-1 $289 $112 $290 $291 reversed $68 $-1 #
coedge $-1 -1 $-1 $112 $289 $113 $191 forward $68 $-1 #
coedge $-1 -1 $-1 $292 $293 $112 $188 forward $294 $-1 #
edge $-1 -1 $-1 $295 -0.19277777989498637 $197 0.064259259964995305 $187 $296 forward @7 unknown #
coedge $-1 -1 $-1 $114 $113 $297 $298 reversed $44 $-1 #
coedge $-1 -1 $-1 $299 $300 $301 $191 forward $302 $-1 #
edge $-1 -1 $-1 $303 -0.046750000000000291 $197 0.14024999999999999 $190 $304 forward @7 unknown #
coedge $-1 -1 $-1 $305 $306 $114 $193 reversed $307 $-1 #
edge $-1 -1 $-1 $308 -4.4408920985006262e-016 $198 0.18699999999999983 $192 $309 forward @7 unknown #
coedge $-1 -1 $-1 $310 $115 $306 $311 forward $196 $-1 #
coedge $-1 -1 $-1 $115 $310 $299 $312 reversed $196 $-1 #
loop $-1 -1 $-1 $-1 $115 $313 #
vertex $-1 -1 $-1 $312 $314 #
vertex $-1 -1 $-1 $116 $315 #
straight-curve $-1 -1 $-1 -0.11836761975928754 -0.093500000000000139 -0.19344455043376296 -0.96161284014136983 0 0.27440981337271542 I I #
model_id-kcp-attrib $-1 -1 $-1 $-1 $118 1 1021323624 1021323624 110231553 7 #
face $316 -1 $-1 $235 $230 $8 $-1 $317 forward single #
loop $-1 -1 $-1 $-1 $226 $118 #
plane-surface $-1 -1 $-1 0.24537914863981566 -4.6550000000000002 1.0613734852612944 0.96161284014136983 0 0.27440981337271542 -0.27440981337271531 0 0.96161284014136961 forward_v I I I I #
loop $318 -1 $-1 $133 $121 $222 #
attrib_edge_convexity-kcp-attrib $-1 -1 $319 $-1 $122 1 #
vertex $320 -1 $-1 $122 $321 #
ellipse-curve $-1 -1 $-1 0 -4.8420000000000005 1.125 0 -1 0 0.088388347648318419 0 0.088388347648318419 1 I I #
coedge $-1 -1 $-1 $126 $123 $322 $323 reversed $33 $-1 #
coedge $-1 -1 $-1 $239 $238 $123 $210 forward $119 $-1 #
edge $324 -1 $-1 $325 -0.25703703985998189 $212 0 $209 $326 forward @7 unknown #
attrib_edge_convexity-kcp-attrib $-1 -1 $327 $-1 $125 1 #
vertex $-1 -1 $-1 $243 $328 #
straight-curve $-1 -1 $-1 -0.17677669529663684 -4.8420000000000005 0.94822330470336313 -0.96161284014136961 0 0.27440981337271531 I I #
coedge $-1 -1 $-1 $229 $228 $126 $215 forward $230 $-1 #
edge $-1 -1 $-1 $216 -0.24999999999999997 $329 0 $214 $330 forward @7 unknown #
vertex $-1 -1 $-1 $234 $331 #
straight-curve $-1 -1 $-1 -0.063626514738705536 -4.8420000000000005 1.3703791486398156 0.70710678118654735 0 0.70710678118654735 I I #
convexity-sys-attrib $-1 -1 $-1 $129 $80 #
point $-1 -1 $-1 -0.17677669529663684 -4.8420000000000005 0.94822330470336313 #
point $-1 -1 $-1 -0.24537914863981566 -4.8420000000000005 1.1886265147387056 #
model_id-kcp-attrib $-1 -1 $-1 $-1 $133 1 1021323624 1021323624 110231553 14 #
face $332 -1 $-1 $-1 $204 $8 $-1 $333 reversed single #
convexity-sys-attrib $-1 -1 $-1 $134 $82 #
model_id-kcp-attrib $-1 -1 $-1 $-1 $135 1 1021323624 1021323624 110231553 18 #
point $-1 -1 $-1 0.088388347648318419 -4.6550000000000002 1.2133883476483185 #
coedge $-1 -1 $-1 $334 $335 $137 $227 reversed $202 $-1 #
edge $336 -1 $-1 $232 -0.24999999999999997 $241 0 $226 $337 forward @7 unknown #
coedge $-1 -1 $-1 $214 $138 $141 $234 reversed $230 $-1 #
coedge $-1 -1 $-1 $138 $214 $334 $338 forward $230 $-1 #
loop $-1 -1 $-1 $-1 $138 $201 #
attrib_edge_convexity-kcp-attrib $-1 -1 $339 $-1 $139 1 #
vertex $-1 -1 $-1 $338 $340 #
straight-curve $-1 -1 $-1 0.17677669529663684 -4.6550000000000002 1.3017766952966368 0.96161284014136961 0 -0.27440981337271531 I I #
edge $-1 -1 $-1 $216 -0.1870000000000003 $144 0 $141 $341 forward @7 unknown #
face $342 -1 $-1 $222 $142 $8 $-1 $343 forward single #
convexity-sys-attrib $-1 -1 $-1 $143 $85 #
point $-1 -1 $-1 -0.063626514738705536 -4.6550000000000002 1.3703791486398156 #
coedge $-1 -1 $-1 $209 $146 $335 $344 reversed $119 $-1 #
coedge $-1 -1 $-1 $146 $209 $148 $243 forward $119 $-1 #
attrib_edge_convexity-kcp-attrib $-1 -1 $345 $-1 $147 1 #
vertex $-1 -1 $-1 $344 $346 #
straight-curve $-1 -1 $-1 0.063626514738705536 -4.6550000000000002 0.87962085136018431 -0.70710678118654735 0 -0.70710678118654735 I I #
edge $347 -1 $-1 $212 -0.1870000000000003 $151 0 $239 $348 forward @7 unknown #
convexity-sys-attrib $-1 -1 $-1 $150 $88 #
point $-1 -1 $-1 0.063626514738705536 -4.6550000000000002 0.87962085136018431 #
attrib_edge_convexity-kcp-attrib $-1 -1 $349 $-1 $153 1 #
straight-curve $-1 -1 $-1 -0.17677669529663684 -4.6550000000000002 0.94822330470336313 0 0.99999999999999989 0 I I #
attrib_edge_convexity-kcp-attrib $-1 -1 $350 $-1 $154 1 #
straight-curve $-1 -1 $-1 -0.24537914863981566 -4.6550000000000002 1.1886265147387056 0 0.99999999999999989 0 I I #
model_id-kcp-attrib $-1 -1 $-1 $-1 $158 1 1021323624 1021323624 110231554 2 #
face $-1 -1 $-1 $-1 $173 $19 $-1 $351 reversed single #
loop $-1 -1 $-1 $-1 $267 $158 #
plane-surface $-1 -1 $-1 0 0.093500000000000139 0 0 -1 0 0 0 -1 forward_v I I I I #
coedge $-1 -1 $-1 $352 $265 $268 $353 forward $159 $-1 #
coedge $-1 -1 $-1 $271 $161 $162 $259 reversed $97 $-1 #
coedge $-1 -1 $-1 $265 $352 $161 $257 reversed $159 $-1 #
edge $-1 -1 $-1 $272 -0.24537914863981564 $354 0.24537914863981564 $256 $355 forward @7 unknown #
coedge $-1 -1 $-1 $163 $162 $352 $356 forward $59 $-1 #
edge $-1 -1 $-1 $263 -0.24537914863981566 $354 0.24537914863981566 $255 $357 forward @7 unknown #
coedge $-1 -1 $-1 $268 $267 $163 $261 reversed $252 $-1 #
edge $-1 -1 $-1 $358 -0.24537914863981566 $262 0.24537914863981566 $260 $359 forward @7 unknown #
vertex $-1 -1 $-1 $165 $360 #
vertex $-1 -1 $-1 $274 $361 #
straight-curve $-1 -1 $-1 0.24537914863981566 0 -0.24537914863981564 0 -1 0 I I #
coedge $-1 -1 $-1 $254 $256 $166 $266 reversed $159 $-1 #
edge $-1 -1 $-1 $269 -0.093500000000000139 $272 0.093500000000000139 $265 $362 forward @7 unknown #
coedge $-1 -1 $-1 $260 $167 $172 $275 forward $252 $-1 #
coedge $-1 -1 $-1 $167 $260 $254 $353 reversed $252 $-1 #
vertex $-1 -1 $-1 $168 $363 #
straight-curve $-1 -1 $-1 0 0.093500000000000139 0.24537914863981564 -1 0 0 I I #
coedge $-1 -1 $-1 $169 $255 $171 $274 reversed $97 $-1 #
vertex $-1 -1 $-1 $266 $364 #
straight-curve $-1 -1 $-1 0 -0.093500000000000139 0.24537914863981564 1 0 0 I I #
edge $-1 -1 $-1 $174 -0.24537914863981564 $263 0.24537914863981564 $171 $365 forward @7 unknown #
edge $-1 -1 $-1 $175 -0.24537914863981564 $262 0.24537914863981564 $172 $366 forward @7 unknown #
point $-1 -1 $-1 0.24537914863981566 -0.093500000000000139 0.24537914863981564 #
point $-1 -1 $-1 0.24537914863981566 0.093500000000000139 0.24537914863981564 #
vertex $-1 -1 $-1 $178 $367 #
ellipse-curve $-1 -1 $-1 0 0 0.093500000000000139 0 0 1 0.12499999999999997 0 0 1 I I #
point $-1 -1 $-1 0.12499999999999997 0 -0.093500000000000139 #
face $-1 -1 $-1 $368 $307 $23 $-1 $369 reversed single #
loop $-1 -1 $-1 $-1 $370 $181 #
plane-surface $-1 -1 $-1 -0.063626514738705536 0.093499999999999694 0.24537914863981558 -0.70710678118654757 0 0.70710678118654757 0 -1 0 forward_v I I I I #
coedge $-1 -1 $-1 $371 $372 $373 $374 reversed $182 $-1 #
coedge $-1 -1 $-1 $375 $184 $372 $376 reversed $110 $-1 #
coedge $-1 -1 $-1 $184 $375 $185 $291 forward $110 $-1 #
coedge $-1 -1 $-1 $377 $373 $184 $288 forward $378 $-1 #
edge $-1 -1 $-1 $379 -0.1857407400350044 $295 0.064259259964995513 $287 $380 forward @7 unknown #
coedge $-1 -1 $-1 $186 $185 $381 $382 reversed $68 $-1 #
coedge $-1 -1 $-1 $383 $384 $385 $291 forward $386 $-1 #
edge $-1 -1 $-1 $387 -0.046750000000000291 $295 0.14024999999999999 $290 $388 forward @7 unknown #
coedge $-1 -1 $-1 $293 $187 $389 $390 reversed $294 $-1 #
coedge $-1 -1 $-1 $187 $292 $383 $391 reversed $294 $-1 #
loop $-1 -1 $-1 $-1 $187 $392 #
vertex $-1 -1 $-1 $391 $393 #
straight-curve $-1 -1 $-1 0.1090646732139831 -0.093500000000000139 -0.19994099016453817 -0.70710678118654757 0 -0.70710678118654757 I I #
coedge $-1 -1 $-1 $394 $395 $189 $298 forward $396 $-1 #
edge $-1 -1 $-1 $308 -0.060740740035004494 $303 0.18925925996499565 $297 $397 forward @7 unknown #
coedge $-1 -1 $-1 $398 $190 $195 $312 forward $302 $-1 #
coedge $-1 -1 $-1 $190 $398 $394 $399 forward $302 $-1 #
coedge $-1 -1 $-1 $400 $389 $186 $191 reversed $401 $-1 #
loop $-1 -1 $-1 $-1 $190 $402 #
vertex $-1 -1 $-1 $403 $404 #
straight-curve $-1 -1 $-1 0.063626514738705814 0.046749999999999847 -0.24537914863981564 0 -1 0 I I #
coedge $-1 -1 $-1 $405 $192 $395 $406 reversed $307 $-1 #
coedge $-1 -1 $-1 $192 $405 $194 $311 reversed $307 $-1 #
loop $-1 -1 $-1 $-1 $305 $281 #
vertex $-1 -1 $-1 $298 $407 #
straight-curve $-1 -1 $-1 -0.17677669529663681 0.093499999999999694 -0.17677669529663675 0 -1 0 I I #
coedge $-1 -1 $-1 $195 $194 $408 $409 forward $196 $-1 #
edge $-1 -1 $-1 $198 -0.18574074003500443 $410 0.064259259964995527 $194 $411 forward @7 unknown #
edge $-1 -1 $-1 $197 -0.063626514738705744 $412 0.24537914863981566 $195 $413 forward @7 unknown #
face $-1 -1 $-1 $414 $196 $23 $-1 $415 reversed single #
point $-1 -1 $-1 0.063626514738705744 -0.093500000000000139 -0.24537914863981564 #
point $-1 -1 $-1 -0.17677669529663681 -0.093500000000000139 -0.17677669529663675 #
model_id-kcp-attrib $-1 -1 $-1 $-1 $201 1 1021323624 1021323624 110231553 8 #
plane-surface $-1 -1 $-1 0.17677669529663684 -4.6550000000000002 1.3017766952966368 0.27440981337271542 0 0.96161284014136983 -0.96161284014136961 0 0.27440981337271531 forward_v I I I I #
model_id-kcp-attrib $-1 -1 $-1 $-1 $204 1 1021323624 1021323624 110231553 13 #
convexity-sys-attrib $-1 -1 $-1 $205 $122 #
model_id-kcp-attrib $-1 -1 $-1 $-1 $206 1 1021323624 1021323624 110231553 17 #
point $-1 -1 $-1 0.088388347648318419 -4.8420000000000005 1.2133883476483185 #
coedge $-1 -1 $-1 $335 $334 $208 $323 forward $202 $-1 #
edge $-1 -1 $-1 $329 -0.24999999999999997 $325 0 $322 $416 forward @7 unknown #
attrib_edge_convexity-kcp-attrib $-1 -1 $417 $-1 $210 1 #
vertex $-1 -1 $-1 $344 $418 #
straight-curve $-1 -1 $-1 0.063626514738705536 -4.8420000000000005 0.87962085136018431 -0.70710678118654735 0 -0.70710678118654735 I I #
convexity-sys-attrib $-1 -1 $-1 $211 $125 #
point $-1 -1 $-1 0.063626514738705536 -4.8420000000000005 0.87962085136018431 #
vertex $-1 -1 $-1 $338 $419 #
straight-curve $-1 -1 $-1 0.17677669529663684 -4.8420000000000005 1.3017766952966368 0.96161284014136961 0 -0.27440981337271531 I I #
point $-1 -1 $-1 -0.063626514738705536 -4.8420000000000005 1.3703791486398156 #
model_id-kcp-attrib $-1 -1 $-1 $-1 $222 1 1021323624 1021323624 110231553 10 #
cone-surface $-1 -1 $-1 0 -4.8420000000000005 1.125 0 1 0 0.088388347648318419 0 0.088388347648318419 1 I I 0 1 0.12499999999999999 forward I I I I #
coedge $-1 -1 $-1 $322 $226 $229 $338 reversed $202 $-1 #
coedge $-1 -1 $-1 $226 $322 $238 $344 forward $202 $-1 #
attrib_edge_convexity-kcp-attrib $-1 -1 $420 $-1 $227 1 #
straight-curve $-1 -1 $-1 0.24537914863981566 -4.6550000000000002 1.0613734852612944 0.27440981337271531 0 -0.96161284014136961 I I #
edge $-1 -1 $-1 $329 -0.1870000000000003 $232 0 $229 $421 forward @7 unknown #
convexity-sys-attrib $-1 -1 $-1 $231 $139 #
point $-1 -1 $-1 0.17677669529663684 -4.6550000000000002 1.3017766952966368 #
straight-curve $-1 -1 $-1 -0.063626514738705536 -4.6550000000000002 1.3703791486398156 0 0.99999999999999989 0 I I #
model_id-kcp-attrib $-1 -1 $-1 $-1 $235 1 1021323624 1021323624 110231553 9 #
plane-surface $-1 -1 $-1 -0.063626514738705536 -4.6550000000000002 1.3703791486398156 -0.70710678118654757 0 0.70710678118654757 -0.70710678118654735 0 -0.70710678118654735 forward_v I I I I #
edge $422 -1 $-1 $325 -0.1870000000000003 $241 0 $335 $423 forward @7 unknown #
convexity-sys-attrib $-1 -1 $-1 $240 $147 #
point $-1 -1 $-1 0.24537914863981566 -4.6550000000000002 1.0613734852612944 #
attrib_edge_convexity-kcp-attrib $-1 -1 $424 $-1 $243 1 #
straight-curve $-1 -1 $-1 0.063626514738705536 -4.6550000000000002 0.87962085136018431 0 0.99999999999999989 0 I I #
convexity-sys-attrib $-1 -1 $-1 $246 $153 #
convexity-sys-attrib $-1 -1 $-1 $248 $154 #
plane-surface $-1 -1 $-1 0.24537914863981566 0 0 -1 0 0 0 0 1 forward_v I I I I #
coedge $-1 -1 $-1 $256 $254 $258 $356 reversed $159 $-1 #
edge $-1 -1 $-1 $269 -0.24537914863981564 $358 0.24537914863981564 $268 $425 forward @7 unknown #
vertex $-1 -1 $-1 $356 $426 #
straight-curve $-1 -1 $-1 -0.24537914863981566 -0.093500000000000139 0 0 0 -1 I I #
edge $-1 -1 $-1 $354 -0.093500000000000139 $358 0.093500000000000139 $352 $427 forward @7 unknown #
straight-curve $-1 -1 $-1 0 -0.093500000000000139 -0.24537914863981564 -1 0 0 I I #
vertex $-1 -1 $-1 $261 $428 #
straight-curve $-1 -1 $-1 0 0.093500000000000139 -0.24537914863981564 1 0 0 I I #
point $-1 -1 $-1 0.24537914863981566 0.093500000000000139 -0.24537914863981564 #
point $-1 -1 $-1 0.24537914863981566 -0.093500000000000139 -0.24537914863981564 #
straight-curve $-1 -1 $-1 -0.24537914863981566 0 0.24537914863981564 0 -1 0 I I #
point $-1 -1 $-1 -0.24537914863981566 0.093500000000000139 0.24537914863981564 #
point $-1 -1 $-1 -0.24537914863981566 -0.093500000000000139 0.24537914863981564 #
straight-curve $-1 -1 $-1 0.24537914863981566 -0.093500000000000139 0 0 0 -1 I I #
straight-curve $-1 -1 $-1 0.24537914863981566 0.093500000000000139 0 0 0 -1 I I #
point $-1 -1 $-1 0.12499999999999997 0 0.093500000000000139 #
face $-1 -1 $-1 $429 $401 $23 $-1 $430 reversed single #
plane-surface $-1 -1 $-1 -0.24537914863981566 0.093499999999999694 0.06362651473870562 -0.96161284014136983 0 -0.27440981337271547 0 -1 0 forward_v I I I I #
coedge $-1 -1 $-1 $431 $432 $433 $434 reversed $282 $-1 #
coedge $-1 -1 $-1 $435 $284 $436 $437 reversed $182 $-1 #
coedge $-1 -1 $-1 $284 $435 $285 $376 forward $182 $-1 #
coedge $-1 -1 $-1 $287 $438 $284 $374 forward $378 $-1 #
edge $-1 -1 $-1 $439 -0.18925925996499565 $379 0.060740740035004508 $373 $440 forward @7 unknown #
coedge $-1 -1 $-1 $286 $285 $441 $442 reversed $110 $-1 #
edge $-1 -1 $-1 $443 -4.4408920985006262e-016 $379 0.18699999999999983 $285 $444 forward @7 unknown #
coedge $-1 -1 $-1 $438 $287 $445 $446 reversed $378 $-1 #
loop $-1 -1 $-1 $-1 $287 $447 #
vertex $-1 -1 $-1 $288 $448 #
straight-curve $-1 -1 $-1 0.22774577710535243 -0.093500000000000139 -0.0018339852583836615 0.27440981337271542 0 -0.96161284014136983 I I #
coedge $-1 -1 $-1 $449 $450 $289 $382 forward $451 $-1 #
edge $-1 -1 $-1 $303 -0.064259259964995305 $387 0.19277777989498637 $381 $452 forward @7 unknown #
coedge $-1 -1 $-1 $453 $290 $293 $391 forward $386 $-1 #
coedge $-1 -1 $-1 $290 $453 $449 $454 reversed $386 $-1 #
coedge $-1 -1 $-1 $455 $445 $286 $291 reversed $456 $-1 #
loop $-1 -1 $-1 $-1 $290 $457 #
vertex $-1 -1 $-1 $454 $458 #
straight-curve $-1 -1 $-1 0.24537914863981566 0.046749999999999847 -0.063626514738705592 0 -1 0 I I #
coedge $-1 -1 $-1 $301 $459 $292 $390 forward $401 $-1 #
edge $-1 -1 $-1 $460 -0.24537914863981566 $197 -0.063626514738705744 $292 $413 forward @7 unknown #
edge $-1 -1 $-1 $295 0.06362651473870562 $460 0.24537914863981564 $383 $461 forward @7 unknown #
face $-1 -1 $-1 $313 $294 $23 $-1 $415 reversed single #
point $-1 -1 $-1 0.24537914863981561 -0.093500000000000139 -0.06362651473870562 #
coedge $-1 -1 $-1 $462 $297 $300 $399 reversed $396 $-1 #
coedge $-1 -1 $-1 $297 $462 $305 $406 forward $396 $-1 #
loop $-1 -1 $-1 $-1 $297 $463 #
straight-curve $-1 -1 $-1 -0.11836761975928754 0.093500000000000139 -0.19344455043376296 0.96161284014136983 0 -0.27440981337271542 I I #
coedge $-1 -1 $-1 $300 $299 $464 $465 forward $302 $-1 #
edge $-1 -1 $-1 $466 -0.24537914863981566 $303 0.063626514738705744 $394 $467 forward @7 unknown #
coedge $-1 -1 $-1 $459 $301 $450 $403 forward $401 $-1 #
loop $-1 -1 $-1 $-1 $301 $368 #
face $-1 -1 $-1 $468 $302 $23 $-1 $430 reversed single #
edge $-1 -1 $-1 $303 0.063626514738705744 $469 0.24537914863981566 $450 $467 forward @7 unknown #
point $-1 -1 $-1 0.063626514738705744 0.093500000000000139 -0.24537914863981564 #
coedge $-1 -1 $-1 $306 $305 $432 $470 forward $307 $-1 #
edge $-1 -1 $-1 $471 -0.064259259964995374 $308 0.18574074003500443 $395 $472 forward @7 unknown #
point $-1 -1 $-1 -0.17677669529663681 0.093500000000000139 -0.17677669529663675 #
coedge $-1 -1 $-1 $473 $464 $310 $409 reversed $474 $-1 #
edge $-1 -1 $-1 $410 -0.06362651473870562 $412 0.24537914863981564 $408 $475 forward @7 unknown #
vertex $-1 -1 $-1 $409 $476 #
straight-curve $-1 -1 $-1 -0.22774577710535246 -0.093500000000000139 0.0018339852583836511 -0.27440981337271547 0 0.96161284014136983 I I #
vertex $-1 -1 $-1 $465 $477 #
straight-curve $-1 -1 $-1 0 -0.093500000000000139 -0.24537914863981564 -1 0 0 I I #
face $-1 -1 $-1 $478 $479 $23 $-1 $415 reversed single #
plane-surface $-1 -1 $-1 0 -0.093500000000000139 0 0 1 0 0 0 1 forward_v I I I I #
straight-curve $-1 -1 $-1 0.24537914863981566 -4.8420000000000005 1.0613734852612944 0.27440981337271531 0 -0.96161284014136961 I I #
convexity-sys-attrib $-1 -1 $-1 $324 $210 #
point $-1 -1 $-1 0.24537914863981566 -4.8420000000000005 1.0613734852612944 #
point $-1 -1 $-1 0.17677669529663684 -4.8420000000000005 1.3017766952966368 #
convexity-sys-attrib $-1 -1 $-1 $336 $227 #
straight-curve $-1 -1 $-1 0.17677669529663684 -4.6550000000000002 1.3017766952966368 0 0.99999999999999989 0 I I #
attrib_edge_convexity-kcp-attrib $-1 -1 $480 $-1 $344 1 #
straight-curve $-1 -1 $-1 0.24537914863981566 -4.6550000000000002 1.0613734852612944 0 0.99999999999999989 0 I I #
convexity-sys-attrib $-1 -1 $-1 $347 $243 #
straight-curve $-1 -1 $-1 -0.24537914863981566 0.093500000000000139 0 0 0 -1 I I #
point $-1 -1 $-1 -0.24537914863981566 -0.093500000000000139 -0.24537914863981564 #
straight-curve $-1 -1 $-1 -0.24537914863981566 0 -0.24537914863981564 0 1 0 I I #
point $-1 -1 $-1 -0.24537914863981566 0.093500000000000139 -0.24537914863981564 #
face $-1 -1 $-1 $481 $456 $23 $-1 $482 reversed single #
plane-surface $-1 -1 $-1 0 0 -0.24537914863981564 0 0 1 1 0 0 forward_v I I I I #
coedge $-1 -1 $-1 $483 $370 $371 $437 forward $282 $-1 #
coedge $-1 -1 $-1 $370 $483 $484 $470 reversed $282 $-1 #
coedge $-1 -1 $-1 $485 $486 $370 $434 forward $487 $-1 #
edge $-1 -1 $-1 $488 -0.064259259964995347 $471 0.19277777989498651 $433 $489 forward @7 unknown #
coedge $-1 -1 $-1 $372 $371 $490 $491 reversed $182 $-1 #
coedge $-1 -1 $-1 $492 $493 $494 $437 forward $495 $-1 #
edge $-1 -1 $-1 $488 -0.046750000000000291 $439 0.14024999999999999 $436 $496 forward @7 unknown #
coedge $-1 -1 $-1 $373 $377 $492 $497 reversed $378 $-1 #
vertex $-1 -1 $-1 $497 $498 #
straight-curve $-1 -1 $-1 0.11836761975928756 -0.093500000000000139 0.19344455043376296 0.96161284014136983 0 -0.27440981337271542 I I #
coedge $-1 -1 $-1 $490 $499 $375 $442 forward $500 $-1 #
edge $-1 -1 $-1 $387 -0.064259259964995513 $443 0.1857407400350044 $441 $501 forward @7 unknown #
vertex $-1 -1 $-1 $442 $502 #
straight-curve $-1 -1 $-1 0.17677669529663684 0.093499999999999694 0.17677669529663675 0 -1 0 I I #
coedge $-1 -1 $-1 $385 $503 $377 $446 forward $456 $-1 #
edge $-1 -1 $-1 $504 -0.24537914863981564 $295 0.06362651473870562 $445 $461 forward @7 unknown #
face $-1 -1 $-1 $392 $378 $23 $-1 $415 reversed single #
point $-1 -1 $-1 0.17677669529663684 -0.093500000000000139 0.17677669529663675 #
coedge $-1 -1 $-1 $450 $381 $384 $454 forward $451 $-1 #
coedge $-1 -1 $-1 $381 $449 $400 $403 reversed $451 $-1 #
loop $-1 -1 $-1 $-1 $381 $505 #
straight-curve $-1 -1 $-1 0.1090646732139831 0.093500000000000139 -0.19994099016453817 0.70710678118654757 0 0.70710678118654757 I I #
coedge $-1 -1 $-1 $384 $383 $459 $506 reversed $386 $-1 #
edge $-1 -1 $-1 $387 0.06362651473870562 $469 0.24537914863981564 $384 $507 forward @7 unknown #
coedge $-1 -1 $-1 $503 $385 $499 $508 reversed $456 $-1 #
loop $-1 -1 $-1 $-1 $385 $429 #
face $-1 -1 $-1 $-1 $386 $23 $-1 $482 reversed single #
point $-1 -1 $-1 0.24537914863981561 0.093500000000000139 -0.06362651473870562 #
coedge $-1 -1 $-1 $389 $400 $453 $506 forward $401 $-1 #
vertex $-1 -1 $-1 $391 $509 #
straight-curve $-1 -1 $-1 0.24537914863981566 -0.093500000000000139 0 0 0 -1 I I #
coedge $-1 -1 $-1 $395 $394 $510 $511 reversed $396 $-1 #
face $-1 -1 $-1 $505 $396 $23 $-1 $512 reversed single #
coedge $-1 -1 $-1 $408 $510 $398 $465 reversed $474 $-1 #
edge $-1 -1 $-1 $412 -0.093500000000000139 $466 0.093500000000000139 $464 $513 forward @7 unknown #
vertex $-1 -1 $-1 $399 $514 #
straight-curve $-1 -1 $-1 0 0.093500000000000139 -0.24537914863981564 1 0 0 I I #
face $-1 -1 $-1 $457 $474 $23 $-1 $515 reversed single #
vertex $-1 -1 $-1 $506 $516 #
edge $-1 -1 $-1 $471 -0.046750000000000291 $410 0.14024999999999999 $484 $517 forward @7 unknown #
vertex $-1 -1 $-1 $511 $518 #
straight-curve $-1 -1 $-1 -0.22774577710535246 0.093500000000000139 0.0018339852583836511 0.27440981337271547 0 -0.96161284014136983 I I #
coedge $-1 -1 $-1 $510 $408 $405 $470 reversed $474 $-1 #
loop $-1 -1 $-1 $-1 $473 $468 #
straight-curve $-1 -1 $-1 -0.24537914863981566 -0.093500000000000139 0 0 0 -1 I I #
point $-1 -1 $-1 -0.24537914863981566 -0.093500000000000139 0.06362651473870562 #
point $-1 -1 $-1 -0.24537914863981566 -0.093500000000000139 -0.24537914863981564 #
face $-1 -1 $-1 $519 $520 $23 $-1 $521 forward single #
loop $-1 -1 $-1 $-1 $522 $414 #
convexity-sys-attrib $-1 -1 $-1 $422 $344 #
face $-1 -1 $-1 $463 $487 $23 $-1 $512 reversed single #
plane-surface $-1 -1 $-1 0.24537914863981566 0 0 -1 0 0 0 0 1 forward_v I I I I #
coedge $-1 -1 $-1 $432 $431 $522 $523 reversed $282 $-1 #
coedge $-1 -1 $-1 $524 $525 $473 $470 forward $526 $-1 #
coedge $-1 -1 $-1 $486 $433 $525 $527 reversed $487 $-1 #
coedge $-1 -1 $-1 $433 $485 $528 $529 reversed $487 $-1 #
loop $-1 -1 $-1 $-1 $433 $481 #
vertex $-1 -1 $-1 $529 $530 #
straight-curve $-1 -1 $-1 -0.10906467321398305 0.093500000000000139 0.19994099016453809 -0.70710678118654757 0 -0.70710678118654757 I I #
coedge $-1 -1 $-1 $531 $441 $435 $491 forward $500 $-1 #
edge $-1 -1 $-1 $443 -0.060740740035004508 $488 0.18925925996499565 $490 $532 forward @7 unknown #
coedge $-1 -1 $-1 $533 $436 $438 $497 forward $495 $-1 #
coedge $-1 -1 $-1 $436 $533 $531 $534 forward $495 $-1 #
coedge $-1 -1 $-1 $528 $535 $431 $437 reversed $520 $-1 #
loop $-1 -1 $-1 $-1 $436 $519 #
straight-curve $-1 -1 $-1 -0.063626514738705689 0.046749999999999847 0.24537914863981564 0 -1 0 I I #
edge $-1 -1 $-1 $439 -0.063626514738705717 $504 0.24537914863981566 $438 $536 forward @7 unknown #
point $-1 -1 $-1 -0.063626514738705717 -0.093500000000000139 0.24537914863981564 #
coedge $-1 -1 $-1 $441 $531 $455 $508 forward $500 $-1 #
loop $-1 -1 $-1 $-1 $441 $537 #
straight-curve $-1 -1 $-1 0.22774577710535243 0.093500000000000139 -0.0018339852583836615 -0.27440981337271542 0 0.96161284014136983 I I #
point $-1 -1 $-1 0.17677669529663684 0.093500000000000139 0.17677669529663675 #
coedge $-1 -1 $-1 $445 $455 $533 $538 reversed $456 $-1 #
vertex $-1 -1 $-1 $538 $539 #
face $-1 -1 $-1 $537 $451 $23 $-1 $512 reversed single #
edge $-1 -1 $-1 $469 -0.093500000000000139 $460 0.093500000000000139 $453 $540 forward @7 unknown #
straight-curve $-1 -1 $-1 0.24537914863981566 0.093500000000000139 0 0 0 -1 I I #
edge $-1 -1 $-1 $541 -0.24537914863981564 $387 0.06362651473870562 $455 $507 forward @7 unknown #
point $-1 -1 $-1 0.24537914863981566 -0.093500000000000139 -0.24537914863981564 #
coedge $-1 -1 $-1 $464 $473 $462 $511 forward $474 $-1 #
edge $-1 -1 $-1 $471 -0.063626514738705453 $466 0.24537914863981564 $462 $542 forward @7 unknown #
plane-surface $-1 -1 $-1 0 0.093500000000000139 0 0 -1 0 0 0 -1 forward_v I I I I #
straight-curve $-1 -1 $-1 -0.24537914863981566 0 -0.24537914863981564 0 1 0 I I #
point $-1 -1 $-1 -0.24537914863981566 0.093500000000000139 -0.24537914863981564 #
plane-surface $-1 -1 $-1 -0.24537914863981566 0 0 1 0 0 0 0 -1 forward_v I I I I #
point $-1 -1 $-1 0.24537914863981566 0.093500000000000139 -0.24537914863981564 #
straight-curve $-1 -1 $-1 -0.24537914863981564 0.046749999999999847 0.063626514738705495 0 -1 0 I I #
point $-1 -1 $-1 -0.24537914863981566 0.093500000000000139 0.063626514738705453 #
face $-1 -1 $-1 $402 $495 $23 $-1 $521 forward single #
loop $-1 -1 $-1 $-1 $494 $478 #
plane-surface $-1 -1 $-1 0 0 0.24537914863981564 0 0 1 1 0 0 forward_v I I I I #
coedge $-1 -1 $-1 $543 $544 $483 $523 forward $479 $-1 #
edge $-1 -1 $-1 $410 -0.19277777989498637 $439 0.064259259964995347 $522 $545 forward @7 unknown #
coedge $-1 -1 $-1 $546 $484 $544 $547 reversed $526 $-1 #
coedge $-1 -1 $-1 $484 $546 $485 $527 forward $526 $-1 #
loop $-1 -1 $-1 $-1 $484 $548 #
edge $-1 -1 $-1 $549 -0.24537914863981564 $471 -0.063626514738705453 $485 $542 forward @7 unknown #
coedge $-1 -1 $-1 $550 $494 $486 $529 forward $520 $-1 #
edge $-1 -1 $-1 $488 0.063626514738705717 $549 0.24537914863981566 $486 $551 forward @7 unknown #
point $-1 -1 $-1 -0.063626514738705717 0.093500000000000139 0.24537914863981564 #
coedge $-1 -1 $-1 $499 $490 $493 $534 reversed $500 $-1 #
straight-curve $-1 -1 $-1 0.11836761975928756 0.093500000000000139 0.19344455043376296 -0.96161284014136983 0 0.27440981337271542 I I #
coedge $-1 -1 $-1 $493 $492 $503 $538 forward $495 $-1 #
edge $-1 -1 $-1 $541 -0.24537914863981566 $488 0.063626514738705717 $531 $551 forward @7 unknown #
coedge $-1 -1 $-1 $494 $550 $543 $552 forward $520 $-1 #
straight-curve $-1 -1 $-1 0 -0.093500000000000139 0.24537914863981564 1 0 0 I I #
face $-1 -1 $-1 $548 $500 $23 $-1 $512 reversed single #
edge $-1 -1 $-1 $504 -0.093500000000000139 $541 0.093500000000000139 $503 $553 forward @7 unknown #
point $-1 -1 $-1 0.24537914863981566 -0.093500000000000139 0.24537914863981564 #
straight-curve $-1 -1 $-1 0.24537914863981566 0 -0.24537914863981564 0 -1 0 I I #
vertex $-1 -1 $-1 $538 $554 #
straight-curve $-1 -1 $-1 -0.24537914863981566 0.093500000000000139 0 0 0 -1 I I #
coedge $-1 -1 $-1 $544 $522 $535 $552 reversed $479 $-1 #
coedge $-1 -1 $-1 $522 $543 $524 $547 forward $479 $-1 #
straight-curve $-1 -1 $-1 -0.10906467321398305 -0.093500000000000139 0.19994099016453809 0.70710678118654757 0 0.70710678118654757 I I #
coedge $-1 -1 $-1 $525 $524 $550 $555 reversed $526 $-1 #
edge $-1 -1 $-1 $556 -0.24537914863981564 $410 -0.06362651473870562 $524 $475 forward @7 unknown #
face $-1 -1 $-1 $447 $526 $23 $-1 $515 reversed single #
vertex $-1 -1 $-1 $529 $557 #
coedge $-1 -1 $-1 $535 $528 $546 $555 forward $520 $-1 #
straight-curve $-1 -1 $-1 0 0.093500000000000139 0.24537914863981564 -1 0 0 I I #
edge $-1 -1 $-1 $556 -0.24537914863981566 $439 -0.063626514738705717 $543 $536 forward @7 unknown #
straight-curve $-1 -1 $-1 0.24537914863981566 0 0.24537914863981564 0 1 0 I I #
point $-1 -1 $-1 0.24537914863981566 0.093500000000000139 0.24537914863981564 #
edge $-1 -1 $-1 $549 -0.093500000000000139 $556 0.093500000000000139 $546 $558 forward @7 unknown #
vertex $-1 -1 $-1 $555 $559 #
point $-1 -1 $-1 -0.24537914863981566 0.093500000000000139 0.24537914863981564 #
straight-curve $-1 -1 $-1 -0.24537914863981566 0 0.24537914863981564 0 -1 0 I I #
point $-1 -1 $-1 -0.24537914863981566 -0.093500000000000139 0.24537914863981564 #
End-of-ACIS-data 