700 0 2 0           
24 FBMach with ACIS - 7.0.3 13 ACIS 7.0.3 NT 24 Mon May 13 17:00:10 2002 
1 9.9999999999999995e-007 1e-010 
body $2 -1 $-1 $3 $-1 $4 #
bdycol-kcp $-1 -1 1 3 $5 $6 $7 #
model_id-kcp-attrib $-1 -1 $-1 $-1 $0 1 1021323610 1021323610 -1220345855 1 #
lump $-1 -1 $-1 $-1 $8 $0 #
transform $-1 -1 1.0000000000000007 0 0 0 1 0 0 0 1.0000000000000007 -5.5511151231257827e-017 0 -5.5511151231257827e-016 1 rotate no_reflect no_shear #
body $9 -1 $-1 $10 $-1 $11 #
body $12 -1 $-1 $13 $-1 $14 #
body $15 -1 $-1 $16 $-1 $17 #
shell $-1 -1 $-1 $-1 $-1 $18 $-1 $3 #
rgb_color-st-attrib $-1 -1 $19 $-1 $5 0.5 1 1 #
lump $-1 -1 $-1 $-1 $20 $5 #
transform $-1 -1 1 0 0 0 1 0 0 0 1 0 -4.5615000000000006 1.125 1 no_rotate no_reflect no_shear #
model_id-kcp-attrib $-1 -1 $-1 $-1 $6 1 1021323610 1021323610 -1220345854 1 #
lump $-1 -1 $-1 $-1 $21 $6 #
transform $-1 -1 1 0 0 0 1 0 0 0 1 0 -4.5615000000000006 1.125 1 no_rotate no_reflect no_shear #
rgb_color-st-attrib $-1 -1 $22 $-1 $7 0.5 1 1 #
lump $-1 -1 $-1 $-1 $23 $7 #
transform $-1 -1 1 0 0 0 -3.8285889215894375e-016 -1 0 1 -3.8285889215894375e-016 0 -4.5615000000000006 1.125 1 rotate no_reflect no_shear #
face $24 -1 $-1 $25 $26 $8 $-1 $27 reversed single #
model_id-kcp-attrib $-1 -1 $-1 $9 $5 1 1021323610 1021323610 -1223360508 1 #
shell $-1 -1 $-1 $-1 $-1 $28 $-1 $10 #
shell $-1 -1 $-1 $-1 $-1 $29 $-1 $13 #
model_id-kcp-attrib $-1 -1 $-1 $15 $7 1 1021323610 1021323610 -1219035133 1 #
shell $-1 -1 $-1 $-1 $-1 $30 $-1 $16 #
model_id-kcp-attrib $-1 -1 $-1 $-1 $18 1 1021323610 1021323610 -1220345855 2 #
face $31 -1 $-1 $32 $33 $8 $-1 $34 forward single #
loop $-1 -1 $-1 $35 $36 $18 #
plane-surface $-1 -1 $-1 0 -4.468 1.125 0 -1 0 0.70710678118654735 0 -0.70710678118654735 forward_v I I I I #
face $-1 -1 $-1 $37 $38 $20 $-1 $39 reversed single #
face $-1 -1 $-1 $40 $41 $21 $-1 $42 forward single #
face $-1 -1 $-1 $43 $44 $23 $-1 $45 forward single #
model_id-kcp-attrib $-1 -1 $-1 $-1 $25 1 1021323610 1021323610 -1220345855 3 #
face $46 -1 $-1 $47 $48 $8 $-1 $49 forward single #
loop $-1 -1 $-1 $50 $51 $25 #
plane-surface $-1 -1 $-1 0 -4.6550000000000002 1.125 0 -1 0 0.70710678118654735 0 -0.70710678118654735 forward_v I I I I #
loop $52 -1 $-1 $-1 $53 $18 #
coedge $-1 -1 $-1 $54 $55 $56 $57 forward $26 $-1 #
face $-1 -1 $-1 $58 $59 $20 $-1 $60 reversed single #
loop $-1 -1 $-1 $-1 $61 $28 #
plane-surface $-1 -1 $-1 -0.17677669529663681 0.093500000000000583 -0.17677669529663675 -0.27440981337271542 0 -0.96161284014136983 0 1 0 forward_v I I I I #
face $-1 -1 $-1 $62 $63 $21 $-1 $64 reversed single #
loop $-1 -1 $-1 $-1 $65 $29 #
plane-surface $-1 -1 $-1 0 0 0.24537914863981564 0 0 1 1 0 0 forward_v I I I I #
face $-1 -1 $-1 $66 $67 $23 $-1 $68 forward single #
loop $-1 -1 $-1 $69 $70 $30 #
cone-surface $-1 -1 $-1 0 0 0 0 0 1 0.12499999999999997 0 0 1 I I 0 1 0.12499999999999997 forward I I I I #
model_id-kcp-attrib $-1 -1 $-1 $-1 $32 1 1021323610 1021323610 -1220345855 4 #
face $71 -1 $-1 $72 $73 $8 $-1 $74 forward single #
loop $-1 -1 $-1 $-1 $56 $32 #
plane-surface $-1 -1 $-1 -0.24537914863981566 -4.468 1.1886265147387056 -0.96161284014136983 0 -0.27440981337271542 0.27440981337271531 0 -0.96161284014136961 forward_v I I I I #
loop $75 -1 $-1 $-1 $76 $25 #
coedge $-1 -1 $-1 $77 $78 $79 $80 reversed $33 $-1 #
model_id-kcp-attrib $-1 -1 $-1 $-1 $35 1 1021323610 1021323610 -1220345855 16 #
coedge $-1 -1 $-1 $53 $53 $81 $82 forward $35 $-1 #
coedge $-1 -1 $-1 $83 $36 $84 $85 forward $26 $-1 #
coedge $-1 -1 $-1 $36 $86 $87 $88 forward $26 $-1 #
coedge $-1 -1 $-1 $89 $90 $36 $57 reversed $48 $-1 #
edge $91 -1 $-1 $92 -0.25000000000000006 $93 0 $56 $94 forward @7 unknown #
face $-1 -1 $-1 $95 $96 $20 $-1 $97 reversed single #
loop $-1 -1 $-1 $-1 $98 $37 #
plane-surface $-1 -1 $-1 0.063626514738705536 0.093500000000000583 -0.24537914863981569 0.70710678118654757 0 -0.70710678118654757 0 1 0 forward_v I I I I #
coedge $-1 -1 $-1 $99 $100 $101 $102 reversed $38 $-1 #
face $103 -1 $-1 $104 $105 $21 $-1 $106 reversed single #
loop $-1 -1 $-1 $-1 $107 $40 #
plane-surface $-1 -1 $-1 0 0 -0.24537914863981564 0 0 1 1 0 0 forward_v I I I I #
coedge $-1 -1 $-1 $108 $109 $110 $111 forward $41 $-1 #
face $-1 -1 $-1 $-1 $112 $23 $-1 $113 forward single #
loop $-1 -1 $-1 $-1 $114 $43 #
plane-surface $-1 -1 $-1 0 0 -0.093500000000000139 0 0 -1 -1 0 0 forward_v I I I I #
loop $-1 -1 $-1 $-1 $115 $30 #
coedge $-1 -1 $-1 $70 $70 $114 $116 reversed $44 $-1 #
model_id-kcp-attrib $-1 -1 $-1 $-1 $47 1 1021323610 1021323610 -1220345855 5 #
face $117 -1 $-1 $118 $119 $8 $-1 $120 forward single #
loop $-1 -1 $-1 $-1 $87 $47 #
plane-surface $-1 -1 $-1 -0.17677669529663684 -4.468 0.94822330470336313 -0.27440981337271542 0 -0.96161284014136983 0.96161284014136961 0 -0.27440981337271531 forward_v I I I I #
model_id-kcp-attrib $-1 -1 $-1 $-1 $50 1 1021323610 1021323610 -1220345855 15 #
coedge $-1 -1 $-1 $76 $76 $121 $122 reversed $50 $-1 #
coedge $-1 -1 $-1 $123 $51 $124 $125 reversed $33 $-1 #
coedge $-1 -1 $-1 $51 $126 $127 $128 reversed $33 $-1 #
coedge $-1 -1 $-1 $90 $89 $51 $80 forward $48 $-1 #
edge $129 -1 $-1 $130 -0.25000000000000006 $131 0 $79 $132 forward @7 unknown #
coedge $-1 -1 $-1 $81 $81 $53 $82 reversed $133 $-1 #
edge $134 -1 $-1 $135 -3.1415926535897931 $135 3.1415926535897931 $81 $136 forward @7 unknown #
coedge $-1 -1 $-1 $137 $54 $138 $139 forward $26 $-1 #
coedge $-1 -1 $-1 $140 $141 $54 $85 reversed $142 $-1 #
edge $143 -1 $-1 $93 -0.25703703985998183 $144 0 $84 $145 forward @7 unknown #
coedge $-1 -1 $-1 $55 $137 $146 $147 forward $26 $-1 #
coedge $-1 -1 $-1 $148 $149 $55 $88 reversed $73 $-1 #
edge $150 -1 $-1 $151 -0.24999999999999997 $92 0 $87 $152 forward @7 unknown #
coedge $-1 -1 $-1 $79 $56 $149 $153 reversed $48 $-1 #
coedge $-1 -1 $-1 $56 $79 $140 $154 forward $48 $-1 #
attrib_edge_convexity-kcp-attrib $-1 -1 $155 $-1 $57 1 #
vertex $-1 -1 $-1 $153 $156 #
vertex $-1 -1 $-1 $154 $157 #
straight-curve $-1 -1 $-1 -0.24537914863981566 -4.468 1.1886265147387056 -0.27440981337271531 0 0.96161284014136961 I I #
face $-1 -1 $-1 $158 $159 $20 $-1 $160 reversed single #
loop $-1 -1 $-1 $-1 $161 $58 #
plane-surface $-1 -1 $-1 0.24537914863981561 0.093500000000000583 -0.06362651473870562 0.96161284014136983 0 0.27440981337271542 0 1 0 forward_v I I I I #
coedge $-1 -1 $-1 $162 $163 $164 $165 reversed $59 $-1 #
coedge $-1 -1 $-1 $166 $61 $167 $168 reversed $38 $-1 #
coedge $-1 -1 $-1 $61 $166 $169 $170 forward $38 $-1 #
coedge $-1 -1 $-1 $171 $172 $61 $102 forward $173 $-1 #
edge $-1 -1 $-1 $174 -0.18925925996499565 $175 0.060740740035004494 $101 $176 forward @7 unknown #
model_id-kcp-attrib $-1 -1 $-1 $-1 $62 1 1021323610 1021323610 -1220345854 3 #
face $-1 -1 $-1 $177 $178 $21 $-1 $179 reversed single #
loop $-1 -1 $-1 $-1 $180 $62 #
plane-surface $-1 -1 $-1 0 -0.093500000000000139 0 0 1 0 0 0 1 forward_v I I I I #
coedge $-1 -1 $-1 $181 $182 $183 $184 forward $63 $-1 #
coedge $-1 -1 $-1 $185 $65 $186 $187 forward $41 $-1 #
coedge $-1 -1 $-1 $65 $185 $188 $189 forward $41 $-1 #
coedge $-1 -1 $-1 $190 $191 $65 $111 reversed $192 $-1 #
edge $-1 -1 $-1 $193 -0.093500000000000139 $194 0.093500000000000139 $110 $195 forward @7 unknown #
loop $-1 -1 $-1 $-1 $196 $66 #
plane-surface $-1 -1 $-1 0 0 0.093500000000000139 0 0 1 1 0 0 forward_v I I I I #
coedge $-1 -1 $-1 $114 $114 $70 $116 forward $67 $-1 #
coedge $-1 -1 $-1 $115 $115 $196 $197 reversed $69 $-1 #
edge $-1 -1 $-1 $198 0 $198 6.2831853071795862 $114 $199 forward @7 unknown #
model_id-kcp-attrib $-1 -1 $-1 $-1 $72 1 1021323610 1021323610 -1220345855 6 #
face $200 -1 $-1 $201 $202 $8 $-1 $203 forward single #
loop $-1 -1 $-1 $-1 $146 $72 #
plane-surface $-1 -1 $-1 0.063626514738705536 -4.468 0.87962085136018431 0.70710678118654757 0 -0.70710678118654757 0.70710678118654735 0 0.70710678118654735 forward_v I I I I #
coedge $-1 -1 $-1 $121 $121 $76 $122 forward $204 $-1 #
edge $205 -1 $-1 $206 3.3306690738754701e-016 $206 6.2831853071795862 $121 $207 forward @7 unknown #
coedge $-1 -1 $-1 $208 $77 $209 $210 reversed $33 $-1 #
coedge $-1 -1 $-1 $149 $148 $77 $125 forward $73 $-1 #
edge $211 -1 $-1 $212 -0.24999999999999997 $130 0 $124 $213 forward @7 unknown #
coedge $-1 -1 $-1 $78 $208 $214 $215 reversed $33 $-1 #
coedge $-1 -1 $-1 $141 $140 $78 $128 forward $142 $-1 #
edge $-1 -1 $-1 $131 -0.25703703985998183 $216 0 $127 $217 forward @7 unknown #
attrib_edge_convexity-kcp-attrib $-1 -1 $218 $-1 $80 1 #
vertex $-1 -1 $-1 $153 $219 #
vertex $-1 -1 $-1 $154 $220 #
straight-curve $-1 -1 $-1 -0.24537914863981566 -4.6550000000000002 1.1886265147387056 -0.27440981337271531 0 0.96161284014136961 I I #
loop $221 -1 $-1 $-1 $81 $222 #
attrib_edge_convexity-kcp-attrib $-1 -1 $223 $-1 $82 1 #
vertex $224 -1 $-1 $82 $225 #
ellipse-curve $-1 -1 $-1 0 -4.468 1.125 0 -1 0 -0.088388347648318419 0 -0.088388347648318419 1 I I #
coedge $-1 -1 $-1 $86 $83 $226 $227 forward $26 $-1 #
coedge $-1 -1 $-1 $228 $229 $83 $139 reversed $230 $-1 #
edge $231 -1 $-1 $144 -0.24999999999999997 $232 0 $138 $233 forward @7 unknown #
coedge $-1 -1 $-1 $127 $84 $90 $154 reversed $142 $-1 #
coedge $-1 -1 $-1 $84 $127 $228 $234 forward $142 $-1 #
loop $-1 -1 $-1 $-1 $84 $235 #
attrib_edge_convexity-kcp-attrib $-1 -1 $236 $-1 $85 1 #
vertex $-1 -1 $-1 $234 $237 #
straight-curve $-1 -1 $-1 -0.063626514738705536 -4.468 1.3703791486398156 0.70710678118654735 0 0.70710678118654735 I I #
coedge $-1 -1 $-1 $238 $239 $86 $147 reversed $119 $-1 #
edge $240 -1 $-1 $241 -0.25703703985998189 $151 0 $146 $242 forward @7 unknown #
coedge $-1 -1 $-1 $124 $87 $239 $243 reversed $73 $-1 #
coedge $-1 -1 $-1 $87 $124 $89 $153 forward $73 $-1 #
attrib_edge_convexity-kcp-attrib $-1 -1 $244 $-1 $88 1 #
vertex $-1 -1 $-1 $243 $245 #
straight-curve $-1 -1 $-1 -0.17677669529663684 -4.468 0.94822330470336313 -0.96161284014136961 0 0.27440981337271531 I I #
edge $246 -1 $-1 $130 -0.1870000000000003 $92 0 $149 $247 forward @7 unknown #
edge $248 -1 $-1 $131 -0.1870000000000003 $93 0 $140 $249 forward @7 unknown #
convexity-sys-attrib $-1 -1 $-1 $91 $57 #
point $-1 -1 $-1 -0.17677669529663684 -4.468 0.94822330470336313 #
point $-1 -1 $-1 -0.24537914863981566 -4.468 1.1886265147387056 #
face $-1 -1 $-1 $250 $251 $20 $-1 $252 reversed single #
loop $-1 -1 $-1 $-1 $253 $95 #
plane-surface $-1 -1 $-1 0.17677669529663684 0.093500000000000583 0.17677669529663675 0.27440981337271542 0 0.96161284014136983 0 -1 0 forward_v I I I I #
coedge $-1 -1 $-1 $254 $255 $256 $257 reversed $96 $-1 #
coedge $-1 -1 $-1 $258 $98 $259 $260 reversed $59 $-1 #
coedge $-1 -1 $-1 $98 $258 $99 $168 forward $59 $-1 #
coedge $-1 -1 $-1 $261 $262 $98 $165 forward $263 $-1 #
edge $-1 -1 $-1 $264 -0.19277777989498637 $174 0.064259259964995305 $164 $265 forward @7 unknown #
coedge $-1 -1 $-1 $100 $99 $266 $267 reversed $38 $-1 #
coedge $-1 -1 $-1 $268 $269 $270 $168 forward $271 $-1 #
edge $-1 -1 $-1 $272 -0.046749999999999847 $174 0.14025000000000043 $167 $273 forward @7 unknown #
coedge $-1 -1 $-1 $274 $275 $100 $170 reversed $276 $-1 #
edge $-1 -1 $-1 $277 4.4408920985006262e-016 $175 0.18700000000000072 $169 $278 forward @7 unknown #
coedge $-1 -1 $-1 $279 $101 $275 $280 forward $173 $-1 #
coedge $-1 -1 $-1 $101 $279 $268 $281 reversed $173 $-1 #
loop $-1 -1 $-1 $-1 $101 $282 #
vertex $-1 -1 $-1 $281 $283 #
vertex $-1 -1 $-1 $102 $284 #
straight-curve $-1 -1 $-1 -0.11836761975928754 -0.093500000000000139 -0.19344455043376296 -0.96161284014136983 0 0.27440981337271542 I I #
face $285 -1 $-1 $286 $287 $21 $-1 $288 reversed single #
loop $-1 -1 $-1 $-1 $289 $104 #
plane-surface $-1 -1 $-1 -0.24537914863981566 0 0 1 0 0 0 0 -1 forward_v I I I I #
coedge $-1 -1 $-1 $290 $188 $291 $292 forward $105 $-1 #
coedge $-1 -1 $-1 $293 $107 $290 $294 forward $63 $-1 #
coedge $-1 -1 $-1 $107 $293 $295 $296 forward $63 $-1 #
coedge $-1 -1 $-1 $191 $190 $107 $184 reversed $192 $-1 #
edge $-1 -1 $-1 $297 -0.093500000000000139 $298 0.093500000000000139 $183 $299 forward @7 unknown #
coedge $-1 -1 $-1 $109 $108 $300 $301 forward $41 $-1 #
coedge $-1 -1 $-1 $302 $303 $108 $187 reversed $287 $-1 #
edge $-1 -1 $-1 $194 -0.24537914863981566 $304 0.24537914863981566 $186 $305 forward @7 unknown #
coedge $-1 -1 $-1 $180 $306 $109 $189 reversed $105 $-1 #
edge $-1 -1 $-1 $307 -0.24537914863981566 $193 0.24537914863981566 $188 $308 forward @7 unknown #
coedge $-1 -1 $-1 $183 $110 $306 $309 forward $192 $-1 #
coedge $-1 -1 $-1 $110 $183 $302 $310 reversed $192 $-1 #
loop $-1 -1 $-1 $-1 $190 $286 #
vertex $-1 -1 $-1 $111 $311 #
vertex $-1 -1 $-1 $111 $312 #
straight-curve $-1 -1 $-1 0.24537914863981566 0 0.24537914863981564 0 1 0 I I #
coedge $-1 -1 $-1 $196 $196 $115 $197 forward $112 $-1 #
edge $-1 -1 $-1 $313 0 $313 6.2831853071795862 $196 $314 forward @7 unknown #
vertex $-1 -1 $-1 $116 $315 #
ellipse-curve $-1 -1 $-1 0 0 -0.093500000000000139 0 0 -1 0.12499999999999997 0 0 1 I I #
model_id-kcp-attrib $-1 -1 $-1 $-1 $118 1 1021323610 1021323610 -1220345855 7 #
face $316 -1 $-1 $235 $230 $8 $-1 $317 forward single #
loop $-1 -1 $-1 $-1 $226 $118 #
plane-surface $-1 -1 $-1 0.24537914863981566 -4.468 1.0613734852612944 0.96161284014136983 0 0.27440981337271542 -0.27440981337271531 0 0.96161284014136961 forward_v I I I I #
loop $318 -1 $-1 $133 $121 $222 #
attrib_edge_convexity-kcp-attrib $-1 -1 $319 $-1 $122 1 #
vertex $320 -1 $-1 $122 $321 #
ellipse-curve $-1 -1 $-1 0 -4.6550000000000002 1.125 0 -1 0 0.088388347648318419 0 0.088388347648318419 1 I I #
coedge $-1 -1 $-1 $126 $123 $322 $323 reversed $33 $-1 #
coedge $-1 -1 $-1 $239 $238 $123 $210 forward $119 $-1 #
edge $324 -1 $-1 $325 -0.25703703985998189 $212 0 $209 $326 forward @7 unknown #
attrib_edge_convexity-kcp-attrib $-1 -1 $327 $-1 $125 1 #
vertex $-1 -1 $-1 $243 $328 #
straight-curve $-1 -1 $-1 -0.17677669529663684 -4.6550000000000002 0.94822330470336313 -0.96161284014136961 0 0.27440981337271531 I I #
coedge $-1 -1 $-1 $229 $228 $126 $215 forward $230 $-1 #
edge $-1 -1 $-1 $216 -0.24999999999999997 $329 0 $214 $330 forward @7 unknown #
vertex $-1 -1 $-1 $234 $331 #
straight-curve $-1 -1 $-1 -0.063626514738705536 -4.6550000000000002 1.3703791486398156 0.70710678118654735 0 0.70710678118654735 I I #
convexity-sys-attrib $-1 -1 $-1 $129 $80 #
point $-1 -1 $-1 -0.17677669529663684 -4.6550000000000002 0.94822330470336313 #
point $-1 -1 $-1 -0.24537914863981566 -4.6550000000000002 1.1886265147387056 #
model_id-kcp-attrib $-1 -1 $-1 $-1 $133 1 1021323610 1021323610 -1220345855 14 #
face $332 -1 $-1 $-1 $204 $8 $-1 $333 reversed single #
convexity-sys-attrib $-1 -1 $-1 $134 $82 #
model_id-kcp-attrib $-1 -1 $-1 $-1 $135 1 1021323610 1021323610 -1220345855 18 #
point $-1 -1 $-1 0.088388347648318419 -4.468 1.2133883476483185 #
coedge $-1 -1 $-1 $334 $335 $137 $227 reversed $202 $-1 #
edge $336 -1 $-1 $232 -0.24999999999999997 $241 0 $226 $337 forward @7 unknown #
coedge $-1 -1 $-1 $214 $138 $141 $234 reversed $230 $-1 #
coedge $-1 -1 $-1 $138 $214 $334 $338 forward $230 $-1 #
loop $-1 -1 $-1 $-1 $138 $201 #
attrib_edge_convexity-kcp-attrib $-1 -1 $339 $-1 $139 1 #
vertex $-1 -1 $-1 $338 $340 #
straight-curve $-1 -1 $-1 0.17677669529663684 -4.468 1.3017766952966368 0.96161284014136961 0 -0.27440981337271531 I I #
edge $-1 -1 $-1 $216 -0.1870000000000003 $144 0 $141 $341 forward @7 unknown #
face $342 -1 $-1 $222 $142 $8 $-1 $343 forward single #
convexity-sys-attrib $-1 -1 $-1 $143 $85 #
point $-1 -1 $-1 -0.063626514738705536 -4.468 1.3703791486398156 #
coedge $-1 -1 $-1 $209 $146 $335 $344 reversed $119 $-1 #
coedge $-1 -1 $-1 $146 $209 $148 $243 forward $119 $-1 #
attrib_edge_convexity-kcp-attrib $-1 -1 $345 $-1 $147 1 #
vertex $-1 -1 $-1 $344 $346 #
straight-curve $-1 -1 $-1 0.063626514738705536 -4.468 0.87962085136018431 -0.70710678118654735 0 -0.70710678118654735 I I #
edge $347 -1 $-1 $212 -0.1870000000000003 $151 0 $239 $348 forward @7 unknown #
convexity-sys-attrib $-1 -1 $-1 $150 $88 #
point $-1 -1 $-1 0.063626514738705536 -4.468 0.87962085136018431 #
attrib_edge_convexity-kcp-attrib $-1 -1 $349 $-1 $153 1 #
straight-curve $-1 -1 $-1 -0.17677669529663684 -4.468 0.94822330470336313 0 0.99999999999999989 0 I I #
attrib_edge_convexity-kcp-attrib $-1 -1 $350 $-1 $154 1 #
straight-curve $-1 -1 $-1 -0.24537914863981566 -4.468 1.1886265147387056 0 0.99999999999999989 0 I I #
face $-1 -1 $-1 $351 $276 $20 $-1 $352 reversed single #
loop $-1 -1 $-1 $-1 $353 $158 #
plane-surface $-1 -1 $-1 -0.063626514738705536 0.093500000000000583 0.24537914863981558 -0.70710678118654757 0 0.70710678118654757 0 -1 0 forward_v I I I I #
coedge $-1 -1 $-1 $354 $355 $356 $357 reversed $159 $-1 #
coedge $-1 -1 $-1 $358 $161 $355 $359 reversed $96 $-1 #
coedge $-1 -1 $-1 $161 $358 $162 $260 forward $96 $-1 #
coedge $-1 -1 $-1 $360 $356 $161 $257 forward $361 $-1 #
edge $-1 -1 $-1 $362 -0.1857407400350044 $264 0.064259259964995513 $256 $363 forward @7 unknown #
coedge $-1 -1 $-1 $163 $162 $364 $365 reversed $59 $-1 #
coedge $-1 -1 $-1 $366 $367 $368 $260 forward $369 $-1 #
edge $-1 -1 $-1 $370 -0.046749999999999847 $264 0.14025000000000043 $259 $371 forward @7 unknown #
coedge $-1 -1 $-1 $262 $164 $372 $373 reversed $263 $-1 #
coedge $-1 -1 $-1 $164 $261 $366 $374 reversed $263 $-1 #
loop $-1 -1 $-1 $-1 $164 $375 #
vertex $-1 -1 $-1 $374 $376 #
straight-curve $-1 -1 $-1 0.1090646732139831 -0.093500000000000152 -0.19994099016453817 -0.70710678118654757 0 -0.70710678118654757 I I #
coedge $-1 -1 $-1 $377 $378 $166 $267 forward $379 $-1 #
edge $-1 -1 $-1 $277 -0.060740740035004494 $272 0.18925925996499565 $266 $380 forward @7 unknown #
coedge $-1 -1 $-1 $381 $167 $172 $281 forward $271 $-1 #
coedge $-1 -1 $-1 $167 $381 $377 $382 forward $271 $-1 #
coedge $-1 -1 $-1 $383 $372 $163 $168 reversed $384 $-1 #
loop $-1 -1 $-1 $-1 $167 $385 #
vertex $-1 -1 $-1 $386 $387 #
straight-curve $-1 -1 $-1 0.063626514738705814 0.046750000000000291 -0.24537914863981564 0 -1 0 I I #
coedge $-1 -1 $-1 $388 $169 $378 $389 reversed $276 $-1 #
coedge $-1 -1 $-1 $169 $388 $171 $280 reversed $276 $-1 #
loop $-1 -1 $-1 $-1 $274 $250 #
vertex $-1 -1 $-1 $267 $390 #
straight-curve $-1 -1 $-1 -0.17677669529663681 0.093500000000000583 -0.17677669529663675 0 -1 0 I I #
coedge $-1 -1 $-1 $172 $171 $391 $392 forward $173 $-1 #
edge $-1 -1 $-1 $175 -0.18574074003500443 $393 0.064259259964995527 $171 $394 forward @7 unknown #
edge $-1 -1 $-1 $174 -0.063626514738705744 $395 0.24537914863981566 $172 $396 forward @7 unknown #
face $-1 -1 $-1 $397 $173 $20 $-1 $398 reversed single #
point $-1 -1 $-1 0.063626514738705744 -0.093500000000000139 -0.24537914863981564 #
point $-1 -1 $-1 -0.17677669529663681 -0.093500000000000139 -0.17677669529663675 #
model_id-kcp-attrib $-1 -1 $-1 $-1 $177 1 1021323610 1021323610 -1220345854 2 #
face $-1 -1 $-1 $-1 $192 $21 $-1 $399 reversed single #
loop $-1 -1 $-1 $-1 $302 $177 #
plane-surface $-1 -1 $-1 0 0.093500000000000139 0 0 -1 0 0 0 -1 forward_v I I I I #
coedge $-1 -1 $-1 $400 $300 $303 $401 forward $178 $-1 #
coedge $-1 -1 $-1 $306 $180 $181 $294 reversed $105 $-1 #
coedge $-1 -1 $-1 $300 $400 $180 $292 reversed $178 $-1 #
edge $-1 -1 $-1 $307 -0.24537914863981564 $402 0.24537914863981564 $291 $403 forward @7 unknown #
coedge $-1 -1 $-1 $182 $181 $400 $404 forward $63 $-1 #
edge $-1 -1 $-1 $298 -0.24537914863981566 $402 0.24537914863981566 $290 $405 forward @7 unknown #
coedge $-1 -1 $-1 $303 $302 $182 $296 reversed $287 $-1 #
edge $-1 -1 $-1 $406 -0.24537914863981566 $297 0.24537914863981566 $295 $407 forward @7 unknown #
vertex $-1 -1 $-1 $184 $408 #
vertex $-1 -1 $-1 $309 $409 #
straight-curve $-1 -1 $-1 0.24537914863981566 0 -0.24537914863981564 0 -1 0 I I #
coedge $-1 -1 $-1 $289 $291 $185 $301 reversed $178 $-1 #
edge $-1 -1 $-1 $304 -0.093500000000000139 $307 0.093500000000000139 $300 $410 forward @7 unknown #
coedge $-1 -1 $-1 $295 $186 $191 $310 forward $287 $-1 #
coedge $-1 -1 $-1 $186 $295 $289 $401 reversed $287 $-1 #
vertex $-1 -1 $-1 $187 $411 #
straight-curve $-1 -1 $-1 0 0.093500000000000139 0.24537914863981564 -1 0 0 I I #
coedge $-1 -1 $-1 $188 $290 $190 $309 reversed $105 $-1 #
vertex $-1 -1 $-1 $301 $412 #
straight-curve $-1 -1 $-1 0 -0.093500000000000139 0.24537914863981564 1 0 0 I I #
edge $-1 -1 $-1 $193 -0.24537914863981564 $298 0.24537914863981564 $190 $413 forward @7 unknown #
edge $-1 -1 $-1 $194 -0.24537914863981564 $297 0.24537914863981564 $191 $414 forward @7 unknown #
point $-1 -1 $-1 0.24537914863981566 -0.093500000000000139 0.24537914863981564 #
point $-1 -1 $-1 0.24537914863981566 0.093500000000000139 0.24537914863981564 #
vertex $-1 -1 $-1 $197 $415 #
ellipse-curve $-1 -1 $-1 0 0 0.093500000000000139 0 0 1 0.12499999999999997 0 0 1 I I #
point $-1 -1 $-1 0.12499999999999997 0 -0.093500000000000139 #
model_id-kcp-attrib $-1 -1 $-1 $-1 $201 1 1021323610 1021323610 -1220345855 8 #
plane-surface $-1 -1 $-1 0.17677669529663684 -4.468 1.3017766952966368 0.27440981337271542 0 0.96161284014136983 -0.96161284014136961 0 0.27440981337271531 forward_v I I I I #
model_id-kcp-attrib $-1 -1 $-1 $-1 $204 1 1021323610 1021323610 -1220345855 13 #
convexity-sys-attrib $-1 -1 $-1 $205 $122 #
model_id-kcp-attrib $-1 -1 $-1 $-1 $206 1 1021323610 1021323610 -1220345855 17 #
point $-1 -1 $-1 0.088388347648318419 -4.6550000000000002 1.2133883476483185 #
coedge $-1 -1 $-1 $335 $334 $208 $323 forward $202 $-1 #
edge $-1 -1 $-1 $329 -0.24999999999999997 $325 0 $322 $416 forward @7 unknown #
attrib_edge_convexity-kcp-attrib $-1 -1 $417 $-1 $210 1 #
vertex $-1 -1 $-1 $344 $418 #
straight-curve $-1 -1 $-1 0.063626514738705536 -4.6550000000000002 0.87962085136018431 -0.70710678118654735 0 -0.70710678118654735 I I #
convexity-sys-attrib $-1 -1 $-1 $211 $125 #
point $-1 -1 $-1 0.063626514738705536 -4.6550000000000002 0.87962085136018431 #
vertex $-1 -1 $-1 $338 $419 #
straight-curve $-1 -1 $-1 0.17677669529663684 -4.6550000000000002 1.3017766952966368 0.96161284014136961 0 -0.27440981337271531 I I #
point $-1 -1 $-1 -0.063626514738705536 -4.6550000000000002 1.3703791486398156 #
model_id-kcp-attrib $-1 -1 $-1 $-1 $222 1 1021323610 1021323610 -1220345855 10 #
cone-surface $-1 -1 $-1 0 -4.6550000000000002 1.125 0 1 0 0.088388347648318419 0 0.088388347648318419 1 I I 0 1 0.12499999999999999 forward I I I I #
coedge $-1 -1 $-1 $322 $226 $229 $338 reversed $202 $-1 #
coedge $-1 -1 $-1 $226 $322 $238 $344 forward $202 $-1 #
attrib_edge_convexity-kcp-attrib $-1 -1 $420 $-1 $227 1 #
straight-curve $-1 -1 $-1 0.24537914863981566 -4.468 1.0613734852612944 0.27440981337271531 0 -0.96161284014136961 I I #
edge $-1 -1 $-1 $329 -0.1870000000000003 $232 0 $229 $421 forward @7 unknown #
convexity-sys-attrib $-1 -1 $-1 $231 $139 #
point $-1 -1 $-1 0.17677669529663684 -4.468 1.3017766952966368 #
straight-curve $-1 -1 $-1 -0.063626514738705536 -4.468 1.3703791486398156 0 0.99999999999999989 0 I I #
model_id-kcp-attrib $-1 -1 $-1 $-1 $235 1 1021323610 1021323610 -1220345855 9 #
plane-surface $-1 -1 $-1 -0.063626514738705536 -4.468 1.3703791486398156 -0.70710678118654757 0 0.70710678118654757 -0.70710678118654735 0 -0.70710678118654735 forward_v I I I I #
edge $422 -1 $-1 $325 -0.1870000000000003 $241 0 $335 $423 forward @7 unknown #
convexity-sys-attrib $-1 -1 $-1 $240 $147 #
point $-1 -1 $-1 0.24537914863981566 -4.468 1.0613734852612944 #
attrib_edge_convexity-kcp-attrib $-1 -1 $424 $-1 $243 1 #
straight-curve $-1 -1 $-1 0.063626514738705536 -4.468 0.87962085136018431 0 0.99999999999999989 0 I I #
convexity-sys-attrib $-1 -1 $-1 $246 $153 #
convexity-sys-attrib $-1 -1 $-1 $248 $154 #
face $-1 -1 $-1 $425 $384 $20 $-1 $426 reversed single #
plane-surface $-1 -1 $-1 -0.24537914863981566 0.093500000000000583 0.06362651473870562 -0.96161284014136983 0 -0.27440981337271547 0 -1 0 forward_v I I I I #
coedge $-1 -1 $-1 $427 $428 $429 $430 reversed $251 $-1 #
coedge $-1 -1 $-1 $431 $253 $432 $433 reversed $159 $-1 #
coedge $-1 -1 $-1 $253 $431 $254 $359 forward $159 $-1 #
coedge $-1 -1 $-1 $256 $434 $253 $357 forward $361 $-1 #
edge $-1 -1 $-1 $435 -0.18925925996499565 $362 0.060740740035004508 $356 $436 forward @7 unknown #
coedge $-1 -1 $-1 $255 $254 $437 $438 reversed $96 $-1 #
edge $-1 -1 $-1 $439 4.4408920985006262e-016 $362 0.18700000000000072 $254 $440 forward @7 unknown #
coedge $-1 -1 $-1 $434 $256 $441 $442 reversed $361 $-1 #
loop $-1 -1 $-1 $-1 $256 $443 #
vertex $-1 -1 $-1 $257 $444 #
straight-curve $-1 -1 $-1 0.22774577710535243 -0.093500000000000139 -0.0018339852583836615 0.27440981337271542 0 -0.96161284014136983 I I #
coedge $-1 -1 $-1 $445 $446 $258 $365 forward $447 $-1 #
edge $-1 -1 $-1 $272 -0.064259259964995305 $370 0.19277777989498637 $364 $448 forward @7 unknown #
coedge $-1 -1 $-1 $449 $259 $262 $374 forward $369 $-1 #
coedge $-1 -1 $-1 $259 $449 $445 $450 reversed $369 $-1 #
coedge $-1 -1 $-1 $451 $441 $255 $260 reversed $452 $-1 #
loop $-1 -1 $-1 $-1 $259 $453 #
vertex $-1 -1 $-1 $450 $454 #
straight-curve $-1 -1 $-1 0.24537914863981566 0.046750000000000291 -0.063626514738705592 0 -1 0 I I #
coedge $-1 -1 $-1 $270 $455 $261 $373 forward $384 $-1 #
edge $-1 -1 $-1 $456 -0.24537914863981566 $174 -0.063626514738705744 $261 $396 forward @7 unknown #
edge $-1 -1 $-1 $264 0.06362651473870562 $456 0.24537914863981564 $366 $457 forward @7 unknown #
face $-1 -1 $-1 $282 $263 $20 $-1 $398 reversed single #
point $-1 -1 $-1 0.24537914863981561 -0.093500000000000139 -0.06362651473870562 #
coedge $-1 -1 $-1 $458 $266 $269 $382 reversed $379 $-1 #
coedge $-1 -1 $-1 $266 $458 $274 $389 forward $379 $-1 #
loop $-1 -1 $-1 $-1 $266 $459 #
straight-curve $-1 -1 $-1 -0.11836761975928754 0.093500000000000139 -0.19344455043376296 0.96161284014136983 0 -0.27440981337271542 I I #
coedge $-1 -1 $-1 $269 $268 $460 $461 forward $271 $-1 #
edge $-1 -1 $-1 $462 -0.24537914863981566 $272 0.063626514738705744 $377 $463 forward @7 unknown #
coedge $-1 -1 $-1 $455 $270 $446 $386 forward $384 $-1 #
loop $-1 -1 $-1 $-1 $270 $351 #
face $-1 -1 $-1 $464 $271 $20 $-1 $426 reversed single #
edge $-1 -1 $-1 $272 0.063626514738705744 $465 0.24537914863981566 $446 $463 forward @7 unknown #
point $-1 -1 $-1 0.063626514738705744 0.093500000000000139 -0.24537914863981564 #
coedge $-1 -1 $-1 $275 $274 $428 $466 forward $276 $-1 #
edge $-1 -1 $-1 $467 -0.064259259964995374 $277 0.18574074003500443 $378 $468 forward @7 unknown #
point $-1 -1 $-1 -0.17677669529663681 0.093500000000000139 -0.17677669529663675 #
coedge $-1 -1 $-1 $469 $460 $279 $392 reversed $470 $-1 #
edge $-1 -1 $-1 $393 -0.06362651473870562 $395 0.24537914863981564 $391 $471 forward @7 unknown #
vertex $-1 -1 $-1 $392 $472 #
straight-curve $-1 -1 $-1 -0.22774577710535246 -0.093500000000000152 0.0018339852583836511 -0.27440981337271547 0 0.96161284014136983 I I #
vertex $-1 -1 $-1 $461 $473 #
straight-curve $-1 -1 $-1 0 -0.093500000000000139 -0.24537914863981564 -1 0 0 I I #
face $-1 -1 $-1 $474 $475 $20 $-1 $398 reversed single #
plane-surface $-1 -1 $-1 0 -0.093500000000000139 0 0 1 0 0 0 1 forward_v I I I I #
plane-surface $-1 -1 $-1 0.24537914863981566 0 0 -1 0 0 0 0 1 forward_v I I I I #
coedge $-1 -1 $-1 $291 $289 $293 $404 reversed $178 $-1 #
edge $-1 -1 $-1 $304 -0.24537914863981564 $406 0.24537914863981564 $303 $476 forward @7 unknown #
vertex $-1 -1 $-1 $404 $477 #
straight-curve $-1 -1 $-1 -0.24537914863981566 -0.093500000000000139 0 0 0 -1 I I #
edge $-1 -1 $-1 $402 -0.093500000000000139 $406 0.093500000000000139 $400 $478 forward @7 unknown #
straight-curve $-1 -1 $-1 0 -0.093500000000000139 -0.24537914863981564 -1 0 0 I I #
vertex $-1 -1 $-1 $296 $479 #
straight-curve $-1 -1 $-1 0 0.093500000000000139 -0.24537914863981564 1 0 0 I I #
point $-1 -1 $-1 0.24537914863981566 0.093500000000000139 -0.24537914863981564 #
point $-1 -1 $-1 0.24537914863981566 -0.093500000000000139 -0.24537914863981564 #
straight-curve $-1 -1 $-1 -0.24537914863981566 0 0.24537914863981564 0 -1 0 I I #
point $-1 -1 $-1 -0.24537914863981566 0.093500000000000139 0.24537914863981564 #
point $-1 -1 $-1 -0.24537914863981566 -0.093500000000000139 0.24537914863981564 #
straight-curve $-1 -1 $-1 0.24537914863981566 -0.093500000000000139 0 0 0 -1 I I #
straight-curve $-1 -1 $-1 0.24537914863981566 0.093500000000000139 0 0 0 -1 I I #
point $-1 -1 $-1 0.12499999999999997 0 0.093500000000000139 #
straight-curve $-1 -1 $-1 0.24537914863981566 -4.6550000000000002 1.0613734852612944 0.27440981337271531 0 -0.96161284014136961 I I #
convexity-sys-attrib $-1 -1 $-1 $324 $210 #
point $-1 -1 $-1 0.24537914863981566 -4.6550000000000002 1.0613734852612944 #
point $-1 -1 $-1 0.17677669529663684 -4.6550000000000002 1.3017766952966368 #
convexity-sys-attrib $-1 -1 $-1 $336 $227 #
straight-curve $-1 -1 $-1 0.17677669529663684 -4.468 1.3017766952966368 0 0.99999999999999989 0 I I #
attrib_edge_convexity-kcp-attrib $-1 -1 $480 $-1 $344 1 #
straight-curve $-1 -1 $-1 0.24537914863981566 -4.468 1.0613734852612944 0 0.99999999999999989 0 I I #
convexity-sys-attrib $-1 -1 $-1 $347 $243 #
face $-1 -1 $-1 $481 $452 $20 $-1 $482 reversed single #
plane-surface $-1 -1 $-1 0 0 -0.24537914863981564 0 0 1 1 0 0 forward_v I I I I #
coedge $-1 -1 $-1 $483 $353 $354 $433 forward $251 $-1 #
coedge $-1 -1 $-1 $353 $483 $484 $466 reversed $251 $-1 #
coedge $-1 -1 $-1 $485 $486 $353 $430 forward $487 $-1 #
edge $-1 -1 $-1 $488 -0.064259259964995347 $467 0.19277777989498651 $429 $489 forward @7 unknown #
coedge $-1 -1 $-1 $355 $354 $490 $491 reversed $159 $-1 #
coedge $-1 -1 $-1 $492 $493 $494 $433 forward $495 $-1 #
edge $-1 -1 $-1 $488 -0.046749999999999847 $435 0.14025000000000043 $432 $496 forward @7 unknown #
coedge $-1 -1 $-1 $356 $360 $492 $497 reversed $361 $-1 #
vertex $-1 -1 $-1 $497 $498 #
straight-curve $-1 -1 $-1 0.11836761975928756 -0.093500000000000139 0.19344455043376296 0.96161284014136983 0 -0.27440981337271542 I I #
coedge $-1 -1 $-1 $490 $499 $358 $438 forward $500 $-1 #
edge $-1 -1 $-1 $370 -0.064259259964995513 $439 0.1857407400350044 $437 $501 forward @7 unknown #
vertex $-1 -1 $-1 $438 $502 #
straight-curve $-1 -1 $-1 0.17677669529663684 0.093500000000000583 0.17677669529663675 0 -1 0 I I #
coedge $-1 -1 $-1 $368 $503 $360 $442 forward $452 $-1 #
edge $-1 -1 $-1 $504 -0.24537914863981564 $264 0.06362651473870562 $441 $457 forward @7 unknown #
face $-1 -1 $-1 $375 $361 $20 $-1 $398 reversed single #
point $-1 -1 $-1 0.17677669529663684 -0.093500000000000139 0.17677669529663675 #
coedge $-1 -1 $-1 $446 $364 $367 $450 forward $447 $-1 #
coedge $-1 -1 $-1 $364 $445 $383 $386 reversed $447 $-1 #
loop $-1 -1 $-1 $-1 $364 $505 #
straight-curve $-1 -1 $-1 0.1090646732139831 0.093500000000000139 -0.19994099016453817 0.70710678118654757 0 0.70710678118654757 I I #
coedge $-1 -1 $-1 $367 $366 $455 $506 reversed $369 $-1 #
edge $-1 -1 $-1 $370 0.06362651473870562 $465 0.24537914863981564 $367 $507 forward @7 unknown #
coedge $-1 -1 $-1 $503 $368 $499 $508 reversed $452 $-1 #
loop $-1 -1 $-1 $-1 $368 $425 #
face $-1 -1 $-1 $-1 $369 $20 $-1 $482 reversed single #
point $-1 -1 $-1 0.24537914863981561 0.093500000000000139 -0.06362651473870562 #
coedge $-1 -1 $-1 $372 $383 $449 $506 forward $384 $-1 #
vertex $-1 -1 $-1 $374 $509 #
straight-curve $-1 -1 $-1 0.24537914863981566 -0.093500000000000139 0 0 0 -1 I I #
coedge $-1 -1 $-1 $378 $377 $510 $511 reversed $379 $-1 #
face $-1 -1 $-1 $505 $379 $20 $-1 $512 reversed single #
coedge $-1 -1 $-1 $391 $510 $381 $461 reversed $470 $-1 #
edge $-1 -1 $-1 $395 -0.093500000000000139 $462 0.093500000000000139 $460 $513 forward @7 unknown #
vertex $-1 -1 $-1 $382 $514 #
straight-curve $-1 -1 $-1 0 0.093500000000000139 -0.24537914863981564 1 0 0 I I #
face $-1 -1 $-1 $453 $470 $20 $-1 $515 reversed single #
vertex $-1 -1 $-1 $506 $516 #
edge $-1 -1 $-1 $467 -0.046749999999999847 $393 0.14025000000000043 $484 $517 forward @7 unknown #
vertex $-1 -1 $-1 $511 $518 #
straight-curve $-1 -1 $-1 -0.22774577710535246 0.093500000000000139 0.0018339852583836511 0.27440981337271547 0 -0.96161284014136983 I I #
coedge $-1 -1 $-1 $510 $391 $388 $466 reversed $470 $-1 #
loop $-1 -1 $-1 $-1 $469 $464 #
straight-curve $-1 -1 $-1 -0.24537914863981566 -0.093500000000000139 0 0 0 -1 I I #
point $-1 -1 $-1 -0.24537914863981566 -0.093500000000000139 0.06362651473870562 #
point $-1 -1 $-1 -0.24537914863981566 -0.093500000000000139 -0.24537914863981564 #
face $-1 -1 $-1 $519 $520 $20 $-1 $521 forward single #
loop $-1 -1 $-1 $-1 $522 $397 #
straight-curve $-1 -1 $-1 -0.24537914863981566 0.093500000000000139 0 0 0 -1 I I #
point $-1 -1 $-1 -0.24537914863981566 -0.093500000000000139 -0.24537914863981564 #
straight-curve $-1 -1 $-1 -0.24537914863981566 0 -0.24537914863981564 0 1 0 I I #
point $-1 -1 $-1 -0.24537914863981566 0.093500000000000139 -0.24537914863981564 #
convexity-sys-attrib $-1 -1 $-1 $422 $344 #
face $-1 -1 $-1 $459 $487 $20 $-1 $512 reversed single #
plane-surface $-1 -1 $-1 0.24537914863981566 0 0 -1 0 0 0 0 1 forward_v I I I I #
coedge $-1 -1 $-1 $428 $427 $522 $523 reversed $251 $-1 #
coedge $-1 -1 $-1 $524 $525 $469 $466 forward $526 $-1 #
coedge $-1 -1 $-1 $486 $429 $525 $527 reversed $487 $-1 #
coedge $-1 -1 $-1 $429 $485 $528 $529 reversed $487 $-1 #
loop $-1 -1 $-1 $-1 $429 $481 #
vertex $-1 -1 $-1 $529 $530 #
straight-curve $-1 -1 $-1 -0.10906467321398305 0.093500000000000139 0.19994099016453809 -0.70710678118654757 0 -0.70710678118654757 I I #
coedge $-1 -1 $-1 $531 $437 $431 $491 forward $500 $-1 #
edge $-1 -1 $-1 $439 -0.060740740035004508 $488 0.18925925996499565 $490 $532 forward @7 unknown #
coedge $-1 -1 $-1 $533 $432 $434 $497 forward $495 $-1 #
coedge $-1 -1 $-1 $432 $533 $531 $534 forward $495 $-1 #
coedge $-1 -1 $-1 $528 $535 $427 $433 reversed $520 $-1 #
loop $-1 -1 $-1 $-1 $432 $519 #
straight-curve $-1 -1 $-1 -0.063626514738705689 0.046750000000000291 0.24537914863981564 0 -1 0 I I #
edge $-1 -1 $-1 $435 -0.063626514738705717 $504 0.24537914863981566 $434 $536 forward @7 unknown #
point $-1 -1 $-1 -0.063626514738705717 -0.093500000000000139 0.24537914863981564 #
coedge $-1 -1 $-1 $437 $531 $451 $508 forward $500 $-1 #
loop $-1 -1 $-1 $-1 $437 $537 #
straight-curve $-1 -1 $-1 0.22774577710535243 0.093500000000000139 -0.0018339852583836615 -0.27440981337271542 0 0.96161284014136983 I I #
point $-1 -1 $-1 0.17677669529663684 0.093500000000000139 0.17677669529663675 #
coedge $-1 -1 $-1 $441 $451 $533 $538 reversed $452 $-1 #
vertex $-1 -1 $-1 $538 $539 #
face $-1 -1 $-1 $537 $447 $20 $-1 $512 reversed single #
edge $-1 -1 $-1 $465 -0.093500000000000139 $456 0.093500000000000139 $449 $540 forward @7 unknown #
straight-curve $-1 -1 $-1 0.24537914863981566 0.093500000000000139 0 0 0 -1 I I #
edge $-1 -1 $-1 $541 -0.24537914863981564 $370 0.06362651473870562 $451 $507 forward @7 unknown #
point $-1 -1 $-1 0.24537914863981566 -0.093500000000000139 -0.24537914863981564 #
coedge $-1 -1 $-1 $460 $469 $458 $511 forward $470 $-1 #
edge $-1 -1 $-1 $467 -0.063626514738705453 $462 0.24537914863981564 $458 $542 forward @7 unknown #
plane-surface $-1 -1 $-1 0 0.093500000000000139 0 0 -1 0 0 0 -1 forward_v I I I I #
straight-curve $-1 -1 $-1 -0.24537914863981566 0 -0.24537914863981564 0 1 0 I I #
point $-1 -1 $-1 -0.24537914863981566 0.093500000000000139 -0.24537914863981564 #
plane-surface $-1 -1 $-1 -0.24537914863981566 0 0 1 0 0 0 0 -1 forward_v I I I I #
point $-1 -1 $-1 0.24537914863981566 0.093500000000000139 -0.24537914863981564 #
straight-curve $-1 -1 $-1 -0.24537914863981564 0.046750000000000291 0.063626514738705495 0 -1 0 I I #
point $-1 -1 $-1 -0.24537914863981566 0.093500000000000139 0.063626514738705453 #
face $-1 -1 $-1 $385 $495 $20 $-1 $521 forward single #
loop $-1 -1 $-1 $-1 $494 $474 #
plane-surface $-1 -1 $-1 0 0 0.24537914863981564 0 0 1 1 0 0 forward_v I I I I #
coedge $-1 -1 $-1 $543 $544 $483 $523 forward $475 $-1 #
edge $-1 -1 $-1 $393 -0.19277777989498637 $435 0.064259259964995347 $522 $545 forward @7 unknown #
coedge $-1 -1 $-1 $546 $484 $544 $547 reversed $526 $-1 #
coedge $-1 -1 $-1 $484 $546 $485 $527 forward $526 $-1 #
loop $-1 -1 $-1 $-1 $484 $548 #
edge $-1 -1 $-1 $549 -0.24537914863981564 $467 -0.063626514738705453 $485 $542 forward @7 unknown #
coedge $-1 -1 $-1 $550 $494 $486 $529 forward $520 $-1 #
edge $-1 -1 $-1 $488 0.063626514738705717 $549 0.24537914863981566 $486 $551 forward @7 unknown #
point $-1 -1 $-1 -0.063626514738705717 0.093500000000000139 0.24537914863981564 #
coedge $-1 -1 $-1 $499 $490 $493 $534 reversed $500 $-1 #
straight-curve $-1 -1 $-1 0.11836761975928756 0.093500000000000139 0.19344455043376296 -0.96161284014136983 0 0.27440981337271542 I I #
coedge $-1 -1 $-1 $493 $492 $503 $538 forward $495 $-1 #
edge $-1 -1 $-1 $541 -0.24537914863981566 $488 0.063626514738705717 $531 $551 forward @7 unknown #
coedge $-1 -1 $-1 $494 $550 $543 $552 forward $520 $-1 #
straight-curve $-1 -1 $-1 0 -0.093500000000000139 0.24537914863981564 1 0 0 I I #
face $-1 -1 $-1 $548 $500 $20 $-1 $512 reversed single #
edge $-1 -1 $-1 $504 -0.093500000000000139 $541 0.093500000000000139 $503 $553 forward @7 unknown #
point $-1 -1 $-1 0.24537914863981566 -0.093500000000000139 0.24537914863981564 #
straight-curve $-1 -1 $-1 0.24537914863981566 0 -0.24537914863981564 0 -1 0 I I #
vertex $-1 -1 $-1 $538 $554 #
straight-curve $-1 -1 $-1 -0.24537914863981566 0.093500000000000139 0 0 0 -1 I I #
coedge $-1 -1 $-1 $544 $522 $535 $552 reversed $475 $-1 #
coedge $-1 -1 $-1 $522 $543 $524 $547 forward $475 $-1 #
straight-curve $-1 -1 $-1 -0.10906467321398305 -0.093500000000000152 0.19994099016453809 0.70710678118654757 0 0.70710678118654757 I I #
coedge $-1 -1 $-1 $525 $524 $550 $555 reversed $526 $-1 #
edge $-1 -1 $-1 $556 -0.24537914863981564 $393 -0.06362651473870562 $524 $471 forward @7 unknown #
face $-1 -1 $-1 $443 $526 $20 $-1 $515 reversed single #
vertex $-1 -1 $-1 $529 $557 #
coedge $-1 -1 $-1 $535 $528 $546 $555 forward $520 $-1 #
straight-curve $-1 -1 $-1 0 0.093500000000000139 0.24537914863981564 -1 0 0 I I #
edge $-1 -1 $-1 $556 -0.24537914863981566 $435 -0.063626514738705717 $543 $536 forward @7 unknown #
straight-curve $-1 -1 $-1 0.24537914863981566 0 0.24537914863981564 0 1 0 I I #
point $-1 -1 $-1 0.24537914863981566 0.093500000000000139 0.24537914863981564 #
edge $-1 -1 $-1 $549 -0.093500000000000139 $556 0.093500000000000139 $546 $558 forward @7 unknown #
vertex $-1 -1 $-1 $555 $559 #
point $-1 -1 $-1 -0.24537914863981566 0.093500000000000139 0.24537914863981564 #
straight-curve $-1 -1 $-1 -0.24537914863981566 0 0.24537914863981564 0 -1 0 I I #
point $-1 -1 $-1 -0.24537914863981566 -0.093500000000000139 0.24537914863981564 #
End-of-ACIS-data 