106 0 1 0           
body $-1 $1 $-1 $2 #
lump $-1 $-1 $3 $0 #
transform $-1 0 1 0 -1 0 0 0 0 1 0.0005 0.0010 9.3750 0.99999999999999989 0 0 0 #
shell $-1 $-1 $-1 $4 $1 #
face $-1 $5 $6 $3 $-1 $7 reversed single #
face $-1 $8 $9 $3 $-1 $10 forward single #
loop $-1 $11 $12 $4 #
plane-surface $-1 0 0 0 0 0 1 1 0 0 0 I I I I #
face $-1 $13 $14 $3 $-1 $15 reversed single #
loop $-1 $16 $17 $5 #
plane-surface $-1 0 0 0.375 0 0 1 1 0 0 0 I I I I #
loop $-1 $18 $19 $4 #
coedge $-1 $12 $12 $20 $21 0 $6 $-1 #
face $-1 $22 $23 $3 $-1 $24 reversed single #
loop $-1 $25 $26 $8 #
cone-surface $-1 2.625 0 0 0 0 1 0.3125 0 0 1 I I 0 1 0 I I I I #
loop $-1 $27 $28 $5 #
coedge $-1 $17 $17 $26 $29 1 $9 $-1 #
loop $-1 $30 $31 $4 #
coedge $-1 $19 $19 $32 $33 0 $11 $-1 #
coedge $-1 $20 $20 $12 $21 1 $25 $-1 #
edge $-1 $34 $34 $20 $35 0 #
face $-1 $36 $37 $3 $-1 $38 reversed single #
loop $-1 $39 $40 $13 #
cone-surface $-1 -2.625 0 0 0 0 1 0.3125 0 0 1 I I 0 1 0 I I I I #
loop $-1 $-1 $20 $8 #
coedge $-1 $26 $26 $17 $29 0 $14 $-1 #
loop $-1 $41 $42 $5 #
coedge $-1 $28 $28 $40 $43 1 $16 $-1 #
edge $-1 $44 $44 $26 $45 0 #
loop $-1 $46 $47 $4 #
coedge $-1 $31 $31 $48 $49 0 $18 $-1 #
coedge $-1 $32 $32 $19 $33 1 $39 $-1 #
edge $-1 $50 $50 $32 $51 0 #
vertex $-1 $21 $52 #
ellipse-curve $-1 2.625 0 0 0 0 1 -0.3125 0 0 1 I I #
face $-1 $53 $54 $3 $-1 $55 reversed single #
loop $-1 $56 $57 $22 #
cone-surface $-1 -2.625 0.71799999999999997 0 0 0 1 0.0625 0 0 1 I I 0 1 0 I I I I #
loop $-1 $-1 $32 $13 #
coedge $-1 $40 $40 $28 $43 0 $23 $-1 #
loop $-1 $58 $59 $5 #
coedge $-1 $42 $42 $57 $60 1 $27 $-1 #
edge $-1 $61 $61 $40 $62 0 #
vertex $-1 $29 $63 #
ellipse-curve $-1 2.625 0 0.375 0 0 1 0.3125 0 0 1 I I #
loop $-1 $64 $65 $4 #
coedge $-1 $47 $47 $66 $67 0 $30 $-1 #
coedge $-1 $48 $48 $31 $49 1 $56 $-1 #
edge $-1 $68 $68 $48 $69 0 #
vertex $-1 $33 $70 #
ellipse-curve $-1 -2.625 0 0 0 0 1 -0.3125 0 0 1 I I #
point $-1 2.9375 0 0 #
face $-1 $71 $72 $3 $-1 $73 reversed single #
loop $-1 $74 $75 $36 #
cone-surface $-1 -2.625 -0.71899999999999997 0 0 0 1 0.0625 0 0 1 I I 0 1 0 I I I I #
loop $-1 $-1 $48 $22 #
coedge $-1 $57 $57 $42 $60 0 $37 $-1 #
loop $-1 $76 $77 $5 #
coedge $-1 $59 $59 $75 $78 1 $41 $-1 #
edge $-1 $79 $79 $57 $80 0 #
vertex $-1 $43 $81 #
ellipse-curve $-1 -2.625 0 0.375 0 0 1 0.3125 0 0 1 I I #
point $-1 2.9375 0 0.375 #
loop $-1 $82 $83 $4 #
coedge $-1 $65 $65 $84 $85 0 $46 $-1 #
coedge $-1 $66 $66 $47 $67 1 $74 $-1 #
edge $-1 $86 $86 $66 $87 0 #
vertex $-1 $49 $88 #
ellipse-curve $-1 -2.625 0.71799999999999997 0 0 0 1 -0.0625 0 0 1 I I #
point $-1 -2.3125 0 0 #
face $-1 $89 $90 $3 $-1 $91 reversed single #
loop $-1 $92 $93 $53 #
cone-surface $-1 2.625 -0.71899999999999997 0 0 0 1 0.0625 0 0 1 I I 0 1 0 I I I I #
loop $-1 $-1 $66 $36 #
coedge $-1 $75 $75 $59 $78 0 $54 $-1 #
loop $-1 $94 $95 $5 #
coedge $-1 $77 $77 $93 $96 1 $58 $-1 #
edge $-1 $97 $97 $75 $98 0 #
vertex $-1 $60 $99 #
ellipse-curve $-1 -2.625 0.71799999999999997 0.375 0 0 1 0.0625 0 0 1 I I #
point $-1 -2.3125 0 0.375 #
loop $-1 $100 $101 $4 #
coedge $-1 $83 $83 $102 $103 0 $64 $-1 #
coedge $-1 $84 $84 $65 $85 1 $92 $-1 #
edge $-1 $104 $104 $84 $105 0 #
vertex $-1 $67 $106 #
ellipse-curve $-1 -2.625 -0.71899999999999997 0 0 0 1 -0.0625 0 0 1 I I #
point $-1 -2.5625 0.71799999999999997 0 #
face $-1 $107 $108 $3 $-1 $109 reversed single #
loop $-1 $110 $111 $71 #
cone-surface $-1 2.625 0.71799999999999997 0 0 0 1 0.0625 0 0 1 I I 0 1 0 I I I I #
loop $-1 $-1 $84 $53 #
coedge $-1 $93 $93 $77 $96 0 $72 $-1 #
loop $-1 $112 $113 $5 #
coedge $-1 $95 $95 $111 $114 1 $76 $-1 #
edge $-1 $115 $115 $93 $116 0 #
vertex $-1 $78 $117 #
ellipse-curve $-1 -2.625 -0.71899999999999997 0.375 0 0 1 0.0625 0 0 1 I I #
point $-1 -2.5625 0.71799999999999997 0.375 #
loop $-1 $118 $119 $4 #
coedge $-1 $101 $101 $120 $121 0 $82 $-1 #
coedge $-1 $102 $102 $83 $103 1 $110 $-1 #
edge $-1 $122 $122 $102 $123 0 #
vertex $-1 $85 $124 #
ellipse-curve $-1 2.625 -0.71899999999999997 0 0 0 1 -0.0625 0 0 1 I I #
point $-1 -2.5625 -0.71899999999999997 0 #
face $-1 $125 $126 $3 $-1 $127 reversed single #
loop $-1 $128 $129 $89 #
cone-surface $-1 1.7350000000000001 -0.71899999999999997 0 0 0 1 0.067500000000000004 0 0 1 I I 0 1 0 I I I I #
loop $-1 $-1 $102 $71 #
coedge $-1 $111 $111 $95 $114 0 $90 $-1 #
loop $-1 $130 $131 $5 #
coedge $-1 $113 $113 $129 $132 1 $94 $-1 #
edge $-1 $133 $133 $111 $134 0 #
vertex $-1 $96 $135 #
ellipse-curve $-1 2.625 -0.71899999999999997 0.375 0 0 1 0.0625 0 0 1 I I #
point $-1 -2.5625 -0.71899999999999997 0.375 #
loop $-1 $136 $137 $4 #
coedge $-1 $119 $119 $138 $139 0 $100 $-1 #
coedge $-1 $120 $120 $101 $121 1 $128 $-1 #
edge $-1 $140 $140 $120 $141 0 #
vertex $-1 $103 $142 #
ellipse-curve $-1 2.625 0.71799999999999997 0 0 0 1 -0.0625 0 0 1 I I #
point $-1 2.6875 -0.71899999999999997 0 #
face $-1 $143 $144 $3 $-1 $145 forward single #
loop $-1 $146 $147 $107 #
cone-surface $-1 -1.734 -0.71899999999999997 0 0 0 1 0.067500000000000004 0 0 1 I I 0 1 0 I I I I #
loop $-1 $-1 $120 $89 #
coedge $-1 $129 $129 $113 $132 0 $108 $-1 #
loop $-1 $148 $149 $5 #
coedge $-1 $131 $131 $147 $150 1 $112 $-1 #
edge $-1 $151 $151 $129 $152 0 #
vertex $-1 $114 $153 #
ellipse-curve $-1 2.625 0.71799999999999997 0.375 0 0 1 0.0625 0 0 1 I I #
point $-1 2.6875 -0.71899999999999997 0.375 #
loop $-1 $154 $155 $4 #
coedge $-1 $156 $157 $158 $159 0 $118 $-1 #
coedge $-1 $138 $138 $119 $139 1 $146 $-1 #
edge $-1 $160 $160 $138 $161 0 #
vertex $-1 $121 $162 #
ellipse-curve $-1 1.7350000000000001 -0.71899999999999997 0 0 0 1 -0.067500000000000004 0 0 1 I I #
point $-1 2.6875 0.71799999999999997 0 #
face $-1 $163 $164 $3 $-1 $165 forward single #
loop $-1 $-1 $166 $125 #
plane-surface $-1 -3.125 0.875 0 -1 0 0 0 0 1 0 I I I I #
loop $-1 $-1 $138 $107 #
coedge $-1 $147 $147 $131 $150 0 $126 $-1 #
loop $-1 $167 $168 $5 #
coedge $-1 $149 $149 $169 $170 1 $130 $-1 #
edge $-1 $171 $171 $147 $172 0 #
vertex $-1 $132 $173 #
ellipse-curve $-1 1.7350000000000001 -0.71899999999999997 0.375 0 0 1 0.067500000000000004 0 0 1 I I #
point $-1 2.6875 0.71799999999999997 0.375 #
loop $-1 $174 $175 $4 #
coedge $-1 $155 $155 $176 $177 1 $136 $-1 #
coedge $-1 $178 $137 $179 $180 0 $118 $-1 #
coedge $-1 $137 $178 $181 $182 0 $118 $-1 #
coedge $-1 $183 $184 $137 $159 1 $144 $-1 #
edge $-1 $185 $186 $158 $187 0 #
vertex $-1 $139 $188 #
ellipse-curve $-1 -1.734 -0.71899999999999997 0 0 0 1 -0.067500000000000004 0 0 1 I I #
point $-1 1.8025 -0.71899999999999997 0 #
face $-1 $189 $190 $3 $-1 $191 forward single #
loop $-1 $-1 $192 $143 #
plane-surface $-1 -3.125 -0.875 0 0 -1 0 0 0 -1 0 I I I I #
coedge $-1 $193 $194 $195 $196 1 $144 $-1 #
loop $-1 $-1 $197 $5 #
coedge $-1 $168 $168 $198 $199 0 $148 $-1 #
coedge $-1 $169 $169 $149 $170 0 $200 $-1 #
edge $-1 $201 $201 $169 $202 0 #
vertex $-1 $150 $203 #
ellipse-curve $-1 -1.734 -0.71899999999999997 0.375 0 0 1 0.067500000000000004 0 0 1 I I #
point $-1 1.8025 -0.71899999999999997 0.375 #
loop $-1 $204 $205 $4 #
coedge $-1 $175 $175 $206 $207 0 $154 $-1 #
coedge $-1 $176 $176 $155 $177 0 $208 $-1 #
edge $-1 $209 $209 $176 $210 0 #
coedge $-1 $157 $156 $211 $212 0 $118 $-1 #
coedge $-1 $213 $214 $156 $180 1 $215 $-1 #
edge $-1 $186 $216 $179 $217 0 #
coedge $-1 $218 $219 $157 $182 1 $164 $-1 #
edge $-1 $220 $185 $181 $221 0 #
coedge $-1 $222 $158 $219 $223 1 $144 $-1 #
coedge $-1 $158 $193 $213 $224 0 $144 $-1 #
vertex $-1 $223 $225 #
vertex $-1 $224 $226 #
straight-curve $-1 -3.125 0.875 0 0 1 0 I I #
point $-1 -1.6665000000000001 -0.71899999999999997 0 #
face $-1 $227 $215 $3 $-1 $228 forward single #
loop $-1 $-1 $229 $163 #
plane-surface $-1 3.125 -0.875 0 1 0 0 0 0 -1 0 I I I I #
coedge $-1 $230 $231 $232 $233 0 $164 $-1 #
coedge $-1 $184 $166 $234 $235 0 $144 $-1 #
coedge $-1 $166 $236 $237 $238 0 $144 $-1 #
coedge $-1 $239 $240 $166 $196 0 $241 $-1 #
edge $-1 $242 $243 $195 $244 0 #
coedge $-1 $237 $245 $239 $246 0 $167 $-1 #
coedge $-1 $198 $198 $168 $199 1 $247 $-1 #
edge $-1 $248 $248 $198 $249 0 #
loop $-1 $250 $169 $227 #
vertex $-1 $170 $251 #
ellipse-curve $-1 1.7350000000000001 0.71799999999999997 0.375 0 0 1 -0.071999999999999995 0 0 1 I I #
point $-1 -1.6665000000000001 -0.71899999999999997 0.375 #
loop $-1 $252 $253 $4 #
coedge $-1 $205 $205 $254 $255 0 $174 $-1 #
coedge $-1 $206 $206 $175 $207 1 $256 $-1 #
edge $-1 $257 $257 $206 $258 0 #
loop $-1 $-1 $176 $259 #
vertex $-1 $177 $260 #
ellipse-curve $-1 1.7350000000000001 0.71799999999999997 0 0 0 -1 0.125 0 0 1 I I #
coedge $-1 $261 $262 $178 $212 1 $190 $-1 #
edge $-1 $216 $220 $211 $263 0 #
coedge $-1 $264 $179 $184 $224 1 $215 $-1 #
coedge $-1 $179 $265 $261 $266 0 $215 $-1 #
loop $-1 $-1 $267 $189 #
vertex $-1 $266 $268 #
straight-curve $-1 3.125 0.875 0 1 0 0 I I #
coedge $-1 $269 $181 $262 $270 1 $164 $-1 #
coedge $-1 $181 $230 $183 $223 0 $164 $-1 #
vertex $-1 $270 $271 #
straight-curve $-1 -3.125 -0.875 0 -1 0 0 I I #
coedge $-1 $236 $183 $272 $273 0 $144 $-1 #
edge $-1 $274 $185 $219 $275 0 #
edge $-1 $276 $186 $213 $277 0 #
point $-1 -3.125 -0.875 0 #
point $-1 -3.125 0.875 0 #
face $-1 $278 $200 $3 $-1 $279 reversed single #
plane-surface $-1 3.125 0.875 0 0 1 0 0 0 1 0 I I I I #
coedge $-1 $280 $281 $282 $283 1 $190 $-1 #
coedge $-1 $219 $192 $284 $285 0 $164 $-1 #
coedge $-1 $192 $286 $287 $288 0 $164 $-1 #
coedge $-1 $289 $290 $192 $233 1 $291 $-1 #
edge $-1 $292 $293 $232 $294 0 #
coedge $-1 $295 $296 $193 $235 1 $297 $-1 #
edge $-1 $242 $276 $234 $298 0 #
coedge $-1 $194 $222 $299 $300 1 $144 $-1 #
coedge $-1 $301 $197 $194 $238 1 $167 $-1 #
edge $-1 $302 $243 $194 $303 0 #
coedge $-1 $304 $195 $197 $246 1 $241 $-1 #
coedge $-1 $195 $304 $295 $305 0 $241 $-1 #
loop $-1 $-1 $239 $306 #
vertex $-1 $305 $307 #
vertex $-1 $196 $308 #
straight-curve $-1 -3.125 0.56299999999999994 0.375 0 0 1 I I #
coedge $-1 $197 $309 $310 $311 0 $167 $-1 #
edge $-1 $312 $243 $239 $313 0 #
loop $-1 $314 $198 $315 #
vertex $-1 $199 $316 #
ellipse-curve $-1 -1.7350000000000001 0.71799999999999997 0.375 0 0 -1 -0.071999999999999995 0 0 1 I I #
loop $-1 $-1 $317 $227 #
point $-1 1.663 0.71799999999999997 0.375 #
loop $-1 $318 $319 $4 #
coedge $-1 $253 $253 $320 $321 0 $204 $-1 #
coedge $-1 $254 $254 $205 $255 1 $322 $-1 #
edge $-1 $323 $323 $254 $324 0 #
loop $-1 $-1 $206 $325 #
vertex $-1 $207 $326 #
ellipse-curve $-1 -1.7350000000000001 0.71799999999999997 0 0 0 1 0.125 0 0 1 I I #
face $-1 $315 $327 $3 $-1 $328 reversed single #
point $-1 1.8600000000000001 0.71799999999999997 0 #
coedge $-1 $281 $211 $214 $266 1 $190 $-1 #
coedge $-1 $211 $329 $218 $270 0 $190 $-1 #
straight-curve $-1 3.125 -0.875 0 0 -1 0 I I #
coedge $-1 $267 $213 $296 $330 0 $215 $-1 #
coedge $-1 $214 $331 $332 $333 0 $215 $-1 #
edge $-1 $334 $216 $214 $335 0 #
coedge $-1 $336 $264 $337 $338 0 $215 $-1 #
point $-1 3.125 0.875 0 #
coedge $-1 $339 $218 $340 $341 0 $164 $-1 #
edge $-1 $342 $220 $262 $343 0 #
point $-1 3.125 -0.875 0 #
coedge $-1 $284 $344 $222 $273 1 $345 $-1 #
edge $-1 $274 $346 $272 $347 0 #
vertex $-1 $285 $348 #
straight-curve $-1 -3.125 -0.875 0 0 0 -1 I I #
vertex $-1 $330 $349 #
straight-curve $-1 -3.125 0.875 0 0 0 -1 I I #
face $-1 $259 $350 $3 $-1 $351 reversed single #
cone-surface $-1 1.7350000000000001 0.71799999999999997 0.375 0 0 -1 -0.071999999999999995 0 0 1 I I 0 1 0 I I I I #
coedge $-1 $352 $229 $353 $354 0 $190 $-1 #
coedge $-1 $229 $261 $355 $356 0 $190 $-1 #
coedge $-1 $357 $358 $229 $283 0 $359 $-1 #
edge $-1 $360 $361 $282 $362 0 #
coedge $-1 $363 $272 $230 $285 1 $345 $-1 #
edge $-1 $293 $274 $284 $364 0 #
coedge $-1 $231 $365 $366 $367 1 $164 $-1 #
coedge $-1 $368 $369 $231 $288 1 $167 $-1 #
edge $-1 $370 $292 $231 $371 0 #
coedge $-1 $372 $232 $369 $373 1 $291 $-1 #
coedge $-1 $232 $372 $363 $374 1 $291 $-1 #
loop $-1 $-1 $289 $375 #
vertex $-1 $233 $376 #
vertex $-1 $374 $377 #
straight-curve $-1 -2.782 -0.875 0.188 0 0 -1 I I #
coedge $-1 $378 $234 $240 $305 1 $297 $-1 #
coedge $-1 $234 $379 $264 $330 1 $297 $-1 #
loop $-1 $380 $234 $381 #
straight-curve $-1 -3.125 0.875 0.188 0 1 0 I I #
coedge $-1 $382 $383 $236 $300 0 $384 $-1 #
edge $-1 $302 $346 $299 $385 0 #
coedge $-1 $386 $237 $383 $387 1 $167 $-1 #
vertex $-1 $300 $388 #
straight-curve $-1 -3.125 0.56299999999999994 0.375 0 1 0 I I #
coedge $-1 $240 $239 $389 $390 1 $241 $-1 #
edge $-1 $391 $242 $240 $392 0 #
face $-1 $393 $241 $3 $-1 $394 reversed single #
point $-1 -3.125 0.56299999999999994 0.188 #
point $-1 -3.125 0.56299999999999994 0.375 #
coedge $-1 $245 $395 $396 $397 1 $167 $-1 #
coedge $-1 $398 $389 $245 $311 1 $399 $-1 #
edge $-1 $400 $312 $310 $401 0 #
vertex $-1 $390 $402 #
straight-curve $-1 -3.125 0.56299999999999994 0.375 -1 0 0 I I #
loop $-1 $-1 $403 $315 #
face $-1 $404 $247 $3 $-1 $405 reversed single #
point $-1 -1.663 0.71799999999999997 0.375 #
coedge $-1 $317 $317 $406 $407 1 $250 $-1 #
loop $-1 $408 $409 $4 #
coedge $-1 $319 $319 $410 $411 1 $252 $-1 #
coedge $-1 $320 $320 $253 $321 1 $412 $-1 #
edge $-1 $413 $413 $320 $414 0 #
loop $-1 $415 $254 $416 #
vertex $-1 $255 $417 #
ellipse-curve $-1 2.9380000000000002 -0.71899999999999997 0 0 0 1 0.088499999999999995 0 0 1 I I #
face $-1 $416 $418 $3 $-1 $419 reversed single #
point $-1 -1.8600000000000001 0.71799999999999997 0 #
loop $-1 $208 $420 $259 #
cone-surface $-1 1.7350000000000001 0.71799999999999997 0 0 0 1 0.125 0 0 1 I I 0 1 0 I I I I #
coedge $-1 $262 $352 $421 $422 0 $190 $-1 #
edge $-1 $276 $423 $296 $424 0 #
coedge $-1 $265 $425 $426 $427 0 $215 $-1 #
coedge $-1 $428 $355 $265 $333 1 $429 $-1 #
edge $-1 $430 $334 $332 $431 0 #
vertex $-1 $333 $432 #
straight-curve $-1 3.125 0.875 0 0 0 -1 I I #
coedge $-1 $433 $267 $395 $434 0 $215 $-1 #
coedge $-1 $435 $396 $267 $338 1 $436 $-1 #
edge $-1 $423 $437 $337 $438 0 #
coedge $-1 $439 $269 $440 $441 0 $164 $-1 #
coedge $-1 $421 $442 $269 $341 1 $443 $-1 #
edge $-1 $342 $444 $340 $445 0 #
vertex $-1 $422 $446 #
straight-curve $-1 3.125 -0.875 0 0 0 -1 I I #
coedge $-1 $272 $447 $382 $448 0 $345 $-1 #
loop $-1 $449 $284 $450 #
vertex $-1 $448 $451 #
straight-curve $-1 -3.125 -0.56299999999999994 0.188 0 1 0 I I #
point $-1 -3.125 -0.875 0.188 #
point $-1 -3.125 0.875 0.188 #
loop $-1 $452 $453 $278 #
plane-surface $-1 1.7350000000000001 0.71799999999999997 0.125 0 0 1 1 0 0 0 I I I I #
coedge $-1 $329 $280 $454 $455 1 $190 $-1 #
coedge $-1 $456 $457 $280 $354 1 $167 $-1 #
edge $-1 $360 $458 $280 $459 0 #
coedge $-1 $332 $460 $281 $356 1 $429 $-1 #
edge $-1 $334 $361 $355 $461 0 #
coedge $-1 $462 $282 $460 $463 1 $359 $-1 #
coedge $-1 $282 $462 $456 $464 0 $359 $-1 #
loop $-1 $-1 $358 $465 #
vertex $-1 $283 $466 #
vertex $-1 $463 $467 #
straight-curve $-1 3.125 0.56299999999999994 0.188 0 0 -1 I I #
coedge $-1 $447 $284 $290 $374 0 $345 $-1 #
straight-curve $-1 -3.125 -0.875 0.188 -1 0 0 I I #
coedge $-1 $286 $468 $469 $470 0 $164 $-1 #
coedge $-1 $471 $472 $286 $367 0 $473 $-1 #
edge $-1 $370 $474 $366 $475 0 #
coedge $-1 $476 $287 $472 $477 1 $167 $-1 #
coedge $-1 $287 $386 $289 $373 0 $167 $-1 #
vertex $-1 $367 $478 #
straight-curve $-1 -2.782 -0.875 0.375 -1 0 0 I I #
coedge $-1 $290 $289 $479 $480 1 $291 $-1 #
edge $-1 $481 $292 $289 $482 0 #
edge $-1 $293 $483 $290 $484 0 #
face $-1 $485 $291 $3 $-1 $486 forward single #
point $-1 -2.782 -0.875 0.375 #
point $-1 -2.782 -0.875 0.188 #
coedge $-1 $379 $295 $487 $488 1 $297 $-1 #
coedge $-1 $296 $378 $435 $489 1 $297 $-1 #
loop $-1 $-1 $490 $381 #
face $-1 $306 $297 $3 $-1 $491 forward single #
coedge $-1 $492 $299 $344 $448 1 $384 $-1 #
coedge $-1 $299 $492 $301 $387 0 $384 $-1 #
loop $-1 $-1 $383 $493 #
straight-curve $-1 -3.125 -0.56299999999999994 0.188 0 0 -1 I I #
coedge $-1 $369 $301 $494 $495 1 $167 $-1 #
edge $-1 $496 $302 $383 $497 0 #
point $-1 -3.125 -0.56299999999999994 0.375 #
coedge $-1 $310 $487 $304 $390 0 $399 $-1 #
edge $-1 $391 $312 $389 $498 0 #
vertex $-1 $390 $499 #
straight-curve $-1 -3.125 0.56299999999999994 0.188 -1 0 0 I I #
face $-1 $500 $399 $3 $-1 $501 reversed single #
plane-surface $-1 -3.125 0.56299999999999994 0.375 0 -1 0 0 0 -1 0 I I I I #
coedge $-1 $309 $502 $336 $434 1 $167 $-1 #
coedge $-1 $337 $503 $309 $397 0 $436 $-1 #
edge $-1 $400 $437 $396 $504 0 #
coedge $-1 $487 $310 $503 $505 1 $399 $-1 #
loop $-1 $-1 $310 $393 #
vertex $-1 $505 $506 #
ellipse-curve $-1 -2.9380000000000002 0.71899999999999997 0.375 0 0 -1 0 -0.156 0 1 I I #
point $-1 -2.9380000000000002 0.56299999999999994 0.375 #
coedge $-1 $403 $403 $507 $508 0 $314 $-1 #
face $-1 $325 $509 $3 $-1 $510 forward single #
cone-surface $-1 -1.7350000000000001 0.71799999999999997 0.375 0 0 1 0.071999999999999995 0 0 1 I I 0 1 0 I I I I #
coedge $-1 $406 $406 $317 $407 0 $452 $-1 #
edge $-1 $511 $511 $406 $512 0 #
loop $-1 $513 $514 $4 #
coedge $-1 $409 $409 $515 $516 1 $318 $-1 #
coedge $-1 $410 $410 $319 $411 0 $517 $-1 #
edge $-1 $518 $518 $410 $519 0 #
loop $-1 $520 $320 $521 #
vertex $-1 $321 $522 #
ellipse-curve $-1 2.3130000000000002 -0.71899999999999997 0 0 0 1 0.088499999999999995 0 0 1 I I #
loop $-1 $-1 $523 $416 #
face $-1 $521 $322 $3 $-1 $524 reversed single #
point $-1 2.8494999999999999 -0.71899999999999997 0 #
loop $-1 $256 $525 $325 #
cone-surface $-1 -1.7350000000000001 0.71799999999999997 0 0 0 -1 -0.125 0 0 1 I I 0 1 0 I I I I #
coedge $-1 $420 $420 $453 $526 1 $327 $-1 #
coedge $-1 $527 $340 $329 $422 1 $443 $-1 #
edge $-1 $528 $342 $421 $529 0 #
vertex $-1 $489 $530 #
straight-curve $-1 -2.782 0.875 0.188 1 0 0 I I #
coedge $-1 $331 $531 $532 $533 0 $215 $-1 #
coedge $-1 $534 $535 $331 $427 1 $536 $-1 #
edge $-1 $537 $430 $426 $538 0 #
coedge $-1 $539 $332 $535 $540 0 $429 $-1 #
loop $-1 $541 $332 $542 #
vertex $-1 $540 $543 #
straight-curve $-1 3.125 0.875 0.188 1 0 0 I I #
point $-1 3.125 0.875 0.188 #
coedge $-1 $544 $336 $545 $546 0 $215 $-1 #
edge $-1 $437 $547 $336 $548 0 #
coedge $-1 $503 $337 $379 $489 0 $436 $-1 #
loop $-1 $-1 $396 $500 #
vertex $-1 $338 $549 #
straight-curve $-1 -2.782 0.875 0.375 0 0 1 I I #
coedge $-1 $550 $339 $551 $552 0 $164 $-1 #
coedge $-1 $553 $554 $339 $441 1 $555 $-1 #
edge $-1 $444 $556 $440 $557 0 #
coedge $-1 $340 $558 $553 $559 1 $443 $-1 #
loop $-1 $560 $421 $561 #
vertex $-1 $559 $562 #
straight-curve $-1 2.782 -0.875 0.188 -1 0 0 I I #
point $-1 3.125 -0.875 0.188 #
coedge $-1 $344 $363 $563 $564 0 $345 $-1 #
edge $-1 $565 $346 $382 $566 0 #
loop $-1 $-1 $567 $450 #
face $-1 $493 $345 $3 $-1 $568 reversed single #
point $-1 -3.125 -0.56299999999999994 0.188 #
loop $-1 $-1 $406 $278 #
coedge $-1 $453 $453 $420 $526 0 $350 $-1 #
coedge $-1 $569 $570 $352 $455 0 $571 $-1 #
edge $-1 $528 $458 $454 $572 0 #
coedge $-1 $573 $353 $358 $464 1 $167 $-1 #
coedge $-1 $353 $574 $569 $575 0 $167 $-1 #
vertex $-1 $455 $576 #
straight-curve $-1 3.125 -0.56299999999999994 0.375 0 -1 0 I I #
coedge $-1 $355 $539 $357 $463 0 $429 $-1 #
straight-curve $-1 3.125 0.56299999999999994 0.188 0 -1 0 I I #
coedge $-1 $358 $357 $577 $578 0 $359 $-1 #
edge $-1 $579 $361 $357 $580 0 #
edge $-1 $581 $360 $358 $582 0 #
face $-1 $583 $359 $3 $-1 $584 forward single #
point $-1 3.125 0.56299999999999994 0.375 #
point $-1 3.125 0.56299999999999994 0.188 #
coedge $-1 $365 $585 $586 $587 0 $164 $-1 #
coedge $-1 $588 $589 $365 $470 1 $590 $-1 #
edge $-1 $591 $474 $469 $592 0 #
coedge $-1 $593 $366 $589 $594 1 $473 $-1 #
coedge $-1 $366 $593 $368 $477 0 $473 $-1 #
loop $-1 $-1 $472 $595 #
vertex $-1 $594 $596 #
straight-curve $-1 -2.4689999999999999 -0.875 0.188 0 0 -1 I I #
coedge $-1 $597 $368 $598 $599 1 $167 $-1 #
edge $-1 $600 $370 $472 $601 0 #
point $-1 -2.4689999999999999 -0.875 0.375 #
coedge $-1 $494 $563 $372 $480 0 $602 $-1 #
edge $-1 $483 $481 $372 $603 0 #
vertex $-1 $480 $604 #
straight-curve $-1 -2.782 -0.875 0.375 0 -1 0 I I #
vertex $-1 $480 $605 #
straight-curve $-1 -2.782 -0.71899999999999997 0.188 0 1 0 I I #
face $-1 $606 $607 $3 $-1 $608 forward single #
plane-surface $-1 -2.782 -0.71899999999999997 0.375 -1 0 0 0 0 1 0 I I I I #
coedge $-1 $389 $398 $378 $488 0 $399 $-1 #
edge $-1 $609 $391 $487 $610 0 #
edge $-1 $423 $609 $435 $611 0 #
coedge $-1 $490 $490 $612 $613 1 $380 $-1 #
plane-surface $-1 0 0 0.188 0 0 1 1 0 0 0 I I I I #
coedge $-1 $383 $382 $614 $615 0 $384 $-1 #
face $-1 $616 $384 $3 $-1 $617 forward single #
coedge $-1 $614 $479 $386 $495 0 $602 $-1 #
edge $-1 $481 $496 $494 $618 0 #
vertex $-1 $615 $619 #
straight-curve $-1 -3.125 -0.56299999999999994 0.375 -1 0 0 I I #
straight-curve $-1 -2.9380000000000002 0.56299999999999994 0.375 0 0 1 I I #
point $-1 -2.9380000000000002 0.56299999999999994 0.188 #
face $-1 $620 $436 $3 $-1 $621 reversed single #
cone-surface $-1 -2.9380000000000002 0.71899999999999997 0.375 0 0 1 -0.156 0 0 1 I I 0 1 0 I I I I #
coedge $-1 $395 $622 $623 $624 0 $167 $-1 #
coedge $-1 $396 $435 $398 $505 0 $436 $-1 #
straight-curve $-1 -2.782 0.875 0.375 0 1 0 I I #
edge $-1 $609 $400 $503 $625 0 #
point $-1 -2.782 0.71899999999999997 0.375 #
coedge $-1 $507 $507 $403 $508 1 $626 $-1 #
edge $-1 $627 $627 $507 $628 0 #
loop $-1 $626 $629 $404 #
plane-surface $-1 -1.7350000000000001 0.71799999999999997 0.125 0 0 -1 -1 0 0 0 I I I I #
vertex $-1 $407 $630 #
ellipse-curve $-1 1.7350000000000001 0.71799999999999997 0.125 0 0 1 0.071999999999999995 0 0 1 I I #
loop $-1 $631 $632 $4 #
coedge $-1 $514 $514 $633 $634 1 $408 $-1 #
coedge $-1 $515 $515 $409 $516 0 $635 $-1 #
edge $-1 $636 $636 $515 $637 0 #
loop $-1 $-1 $410 $638 #
vertex $-1 $411 $639 #
ellipse-curve $-1 2.3130000000000002 0.71899999999999997 0 0 0 -1 -0.088499999999999995 0 0 1 I I #
loop $-1 $-1 $640 $521 #
face $-1 $641 $412 $3 $-1 $642 reversed single #
point $-1 2.2244999999999999 -0.71899999999999997 0 #
coedge $-1 $523 $523 $643 $644 0 $415 $-1 #
cone-surface $-1 2.9380000000000002 -0.71899999999999997 0.375 0 0 -1 -0.088499999999999995 0 0 1 I I 0 1 0 I I I I #
coedge $-1 $525 $525 $629 $645 0 $418 $-1 #
edge $-1 $646 $646 $420 $647 0 #
coedge $-1 $558 $421 $570 $648 1 $443 $-1 #
vertex $-1 $648 $649 #
straight-curve $-1 3.125 -0.875 0.188 0 -1 0 I I #
point $-1 -2.782 0.875 0.188 #
coedge $-1 $425 $650 $651 $652 1 $215 $-1 #
coedge $-1 $653 $654 $425 $533 1 $167 $-1 #
edge $-1 $655 $537 $425 $656 0 #
coedge $-1 $657 $426 $654 $658 1 $536 $-1 #
coedge $-1 $426 $657 $428 $540 1 $536 $-1 #
loop $-1 $-1 $534 $659 #
vertex $-1 $427 $660 #
straight-curve $-1 2.782 0.875 0.188 0 0 -1 I I #
coedge $-1 $460 $428 $661 $662 0 $429 $-1 #
edge $-1 $430 $663 $535 $664 0 #
loop $-1 $-1 $665 $542 #
face $-1 $465 $429 $3 $-1 $666 reversed single #
point $-1 2.782 0.875 0.188 #
coedge $-1 $667 $433 $668 $669 0 $215 $-1 #
coedge $-1 $623 $670 $433 $546 1 $671 $-1 #
edge $-1 $547 $672 $545 $673 0 #
vertex $-1 $546 $674 #
straight-curve $-1 -2.4689999999999999 0.875 0.375 1 0 0 I I #
point $-1 -2.782 0.875 0.375 #
coedge $-1 $675 $439 $676 $677 0 $164 $-1 #
coedge $-1 $678 $679 $439 $552 1 $167 $-1 #
edge $-1 $556 $680 $439 $681 0 #
coedge $-1 $682 $440 $442 $559 0 $555 $-1 #
coedge $-1 $440 $682 $678 $683 0 $555 $-1 #
loop $-1 $-1 $554 $684 #
vertex $-1 $441 $685 #
straight-curve $-1 2.782 -0.875 0.375 0 0 1 I I #
coedge $-1 $442 $527 $686 $687 1 $443 $-1 #
edge $-1 $444 $688 $553 $689 0 #
loop $-1 $-1 $643 $561 #
face $-1 $690 $443 $3 $-1 $691 forward single #
point $-1 2.782 -0.875 0.188 #
coedge $-1 $479 $614 $447 $564 1 $602 $-1 #
edge $-1 $483 $565 $563 $692 0 #
vertex $-1 $615 $693 #
straight-curve $-1 -3.125 -0.56299999999999994 0.188 -1 0 0 I I #
coedge $-1 $567 $567 $694 $695 0 $449 $-1 #
plane-surface $-1 0 0 0.188 0 0 -1 -1 0 0 0 I I I I #
coedge $-1 $696 $454 $457 $575 1 $571 $-1 #
coedge $-1 $454 $696 $527 $648 0 $571 $-1 #
loop $-1 $-1 $569 $690 #
straight-curve $-1 3.125 -0.56299999999999994 0.375 0 0 1 I I #
coedge $-1 $654 $456 $697 $698 1 $167 $-1 #
coedge $-1 $457 $678 $699 $700 0 $167 $-1 #
edge $-1 $701 $458 $569 $702 0 #
point $-1 3.125 -0.56299999999999994 0.375 #
coedge $-1 $661 $697 $462 $578 1 $703 $-1 #
edge $-1 $579 $581 $577 $704 0 #
vertex $-1 $578 $705 #
straight-curve $-1 3.125 0.56299999999999994 0.188 1 0 0 I I #
vertex $-1 $578 $706 #
straight-curve $-1 3.125 0.56299999999999994 0.375 1 0 0 I I #
face $-1 $659 $703 $3 $-1 $707 reversed single #
plane-surface $-1 3.125 0.56299999999999994 0.375 0 1 0 0 0 1 0 I I I I #
coedge $-1 $468 $708 $709 $710 0 $164 $-1 #
coedge $-1 $711 $712 $468 $587 1 $713 $-1 #
edge $-1 $714 $591 $586 $715 0 #
coedge $-1 $716 $469 $712 $717 0 $590 $-1 #
coedge $-1 $469 $716 $471 $594 0 $590 $-1 #
loop $-1 $718 $469 $719 #
vertex $-1 $717 $720 #
straight-curve $-1 -2.4689999999999999 -0.875 0.188 -1 0 0 I I #
coedge $-1 $472 $471 $721 $722 0 $473 $-1 #
edge $-1 $723 $474 $471 $724 0 #
face $-1 $725 $473 $3 $-1 $726 forward single #
point $-1 -2.4689999999999999 -0.875 0.188 #
coedge $-1 $709 $476 $711 $727 0 $167 $-1 #
coedge $-1 $721 $728 $476 $599 0 $729 $-1 #
edge $-1 $730 $600 $598 $731 0 #
vertex $-1 $722 $732 #
straight-curve $-1 -2.4689999999999999 -0.875 0.375 2.8467257041670702e-015 -1 0 I I #
loop $-1 $-1 $494 $616 #
straight-curve $-1 -2.782 -0.71899999999999997 0.375 0 5.9370215220596597e-016 1 I I #
point $-1 -2.782 -0.71899999999999997 0.375 #
point $-1 -2.782 -0.71899999999999997 0.188 #
face $-1 $733 $671 $3 $-1 $734 reversed single #
loop $-1 $735 $668 $485 #
plane-surface $-1 0 0 0.188 0 0 1 1 0 0 0 I I I I #
vertex $-1 $505 $736 #
ellipse-curve $-1 -2.9380000000000002 0.71899999999999997 0.188 0 0 -1 0 -0.156 0 1 I I #
straight-curve $-1 -2.782 0.71899999999999997 0.188 0 -1 0 I I #
coedge $-1 $612 $612 $490 $613 0 $737 $-1 #
edge $-1 $738 $738 $612 $739 0 #
coedge $-1 $563 $494 $492 $615 1 $602 $-1 #
edge $-1 $565 $496 $614 $740 0 #
face $-1 $375 $602 $3 $-1 $741 reversed single #
plane-surface $-1 -3.125 -0.56299999999999994 0.375 0 -1 0 0 0 -1 0 I I I I #
ellipse-curve $-1 -2.9380000000000002 -0.71899999999999997 0.375 0 0 1 0 0.156 0 1 I I #
point $-1 -2.9380000000000002 -0.56299999999999994 0.375 #
face $-1 $742 $743 $3 $-1 $744 reversed single #
plane-surface $-1 -2.782 0.71899999999999997 0.375 1 0 0 0 0 -1 0 I I I I #
coedge $-1 $502 $745 $746 $747 0 $167 $-1 #
coedge $-1 $748 $545 $502 $624 1 $671 $-1 #
edge $-1 $749 $547 $623 $750 0 #
straight-curve $-1 -2.782 0.71899999999999997 0.375 0 5.9370215220596597e-016 1 I I #
loop $-1 $-1 $507 $404 #
vertex $-1 $508 $751 #
ellipse-curve $-1 -1.7350000000000001 0.71799999999999997 0.125 0 0 -1 -0.071999999999999995 0 0 1 I I #
coedge $-1 $629 $629 $525 $645 1 $509 $-1 #
point $-1 1.663 0.71799999999999997 0.125 #
loop $-1 $752 $753 $4 #
coedge $-1 $632 $632 $754 $755 1 $513 $-1 #
coedge $-1 $633 $633 $514 $634 0 $756 $-1 #
edge $-1 $757 $757 $633 $758 0 #
loop $-1 $-1 $515 $759 #
vertex $-1 $516 $760 #
ellipse-curve $-1 2.9380000000000002 0.71899999999999997 0 0 0 -1 -0.088499999999999995 0 0 1 I I #
face $-1 $542 $761 $3 $-1 $762 reversed single #
point $-1 2.2244999999999999 0.71899999999999997 0 #
coedge $-1 $640 $640 $763 $764 0 $520 $-1 #
face $-1 $765 $766 $3 $-1 $767 forward single #
cone-surface $-1 2.3130000000000002 -0.71899999999999997 0.375 0 0 -1 -0.088499999999999995 0 0 1 I I 0 1 0 I I I I #
coedge $-1 $643 $643 $523 $644 1 $560 $-1 #
edge $-1 $768 $768 $643 $769 0 #
edge $-1 $770 $770 $525 $771 0 #
vertex $-1 $526 $772 #
ellipse-curve $-1 1.7350000000000001 0.71799999999999997 0.125 0 0 -1 -0.125 0 0 1 I I #
edge $-1 $773 $528 $570 $774 0 #
point $-1 3.125 -0.56299999999999994 0.188 #
coedge $-1 $531 $775 $776 $777 0 $215 $-1 #
coedge $-1 $778 $779 $531 $652 0 $780 $-1 #
edge $-1 $655 $781 $651 $782 0 #
coedge $-1 $783 $532 $779 $784 1 $167 $-1 #
coedge $-1 $532 $573 $534 $658 0 $167 $-1 #
vertex $-1 $652 $785 #
straight-curve $-1 2.782 0.875 0.375 1 0 0 I I #
coedge $-1 $535 $534 $786 $787 1 $536 $-1 #
edge $-1 $788 $537 $534 $789 0 #
face $-1 $759 $536 $3 $-1 $790 forward single #
point $-1 2.782 0.875 0.375 #
coedge $-1 $786 $577 $539 $662 1 $703 $-1 #
edge $-1 $663 $579 $661 $791 0 #
vertex $-1 $787 $792 #
straight-curve $-1 2.782 0.71899999999999997 0.188 0 -1 0 I I #
coedge $-1 $665 $665 $793 $794 0 $541 $-1 #
plane-surface $-1 0 0 0.188 0 0 -1 -1 0 0 0 I I I I #
coedge $-1 $795 $544 $796 $797 1 $215 $-1 #
coedge $-1 $798 $799 $544 $669 1 $607 $-1 #
edge $-1 $672 $800 $668 $801 0 #
coedge $-1 $545 $748 $798 $802 0 $671 $-1 #
loop $-1 $-1 $623 $606 #
vertex $-1 $802 $803 #
straight-curve $-1 -2.4689999999999999 0.875 0.188 4.7496172176477301e-015 0 -1 I I #
point $-1 -2.4689999999999999 0.875 0.375 #
coedge $-1 $708 $550 $804 $805 0 $164 $-1 #
coedge $-1 $806 $807 $550 $677 1 $808 $-1 #
edge $-1 $680 $809 $676 $810 0 #
coedge $-1 $574 $551 $554 $683 1 $167 $-1 #
coedge $-1 $551 $811 $806 $812 0 $167 $-1 #
vertex $-1 $677 $813 #
straight-curve $-1 2.4689999999999999 -0.875 0.375 -1 0 0 I I #
coedge $-1 $554 $553 $814 $815 0 $555 $-1 #
edge $-1 $816 $556 $554 $817 0 #
face $-1 $818 $555 $3 $-1 $819 reversed single #
point $-1 2.782 -0.875 0.375 #
coedge $-1 $820 $814 $558 $687 0 $821 $-1 #
edge $-1 $688 $773 $686 $822 0 #
vertex $-1 $815 $823 #
straight-curve $-1 2.782 -0.71899999999999997 0.188 0 1 0 I I #
face $-1 $824 $571 $3 $-1 $825 reversed single #
plane-surface $-1 0 0 0.188 0 0 1 1 0 0 0 I I I I #
ellipse-curve $-1 -2.9380000000000002 -0.71899999999999997 0.188 0 0 1 0 0.156 0 1 I I #
point $-1 -2.9380000000000002 -0.56299999999999994 0.188 #
coedge $-1 $694 $694 $567 $695 1 $743 $-1 #
edge $-1 $826 $826 $694 $827 0 #
coedge $-1 $570 $569 $820 $828 1 $571 $-1 #
coedge $-1 $577 $786 $573 $698 0 $703 $-1 #
edge $-1 $788 $581 $697 $829 0 #
coedge $-1 $814 $820 $574 $700 1 $821 $-1 #
edge $-1 $816 $701 $699 $830 0 #
vertex $-1 $828 $831 #
straight-curve $-1 3.125 -0.56299999999999994 0.375 1 0 0 I I #
loop $-1 $-1 $697 $583 #
straight-curve $-1 2.9380000000000002 0.56299999999999994 0.375 0 0 1 I I #
point $-1 2.9380000000000002 0.56299999999999994 0.188 #
point $-1 2.9380000000000002 0.56299999999999994 0.375 #
cone-surface $-1 2.9380000000000002 0.71899999999999997 0.375 0 0 -1 0.156 0 0 1 I I 0 1 0 I I I I #
coedge $-1 $585 $675 $832 $833 1 $164 $-1 #
coedge $-1 $834 $597 $585 $710 1 $167 $-1 #
edge $-1 $835 $714 $585 $836 0 #
coedge $-1 $837 $586 $597 $727 1 $713 $-1 #
coedge $-1 $586 $837 $588 $717 1 $713 $-1 #
loop $-1 $-1 $711 $838 #
vertex $-1 $587 $839 #
straight-curve $-1 -2.157 -0.875 0.188 0 0 -1 I I #
coedge $-1 $589 $588 $840 $841 0 $590 $-1 #
edge $-1 $591 $842 $712 $843 0 #
loop $-1 $-1 $844 $719 #
face $-1 $595 $590 $3 $-1 $845 reversed single #
point $-1 -2.157 -0.875 0.188 #
coedge $-1 $840 $598 $593 $722 1 $729 $-1 #
edge $-1 $723 $600 $721 $846 0 #
vertex $-1 $722 $847 #
straight-curve $-1 -2.4689999999999999 -0.875 0.188 0 -1 0 I I #
face $-1 $838 $729 $3 $-1 $848 reversed single #
plane-surface $-1 -2.4689999999999999 -0.875 0.375 1 0 0 0 0 -1 0 I I I I #
edge $-1 $730 $714 $711 $849 0 #
coedge $-1 $598 $840 $837 $850 0 $729 $-1 #
loop $-1 $-1 $598 $725 #
vertex $-1 $850 $851 #
ellipse-curve $-1 -2.3130000000000002 -0.71899999999999997 0.375 0 0 1 -0.156 0 0 1 I I #
point $-1 -2.4689999999999999 -0.71899999999999997 0.375 #
face $-1 $852 $853 $3 $-1 $854 reversed single #
plane-surface $-1 -2.4689999999999999 0.875 0.375 -1 0 0 0 0 1 0 I I I I #
loop $-1 $-1 $855 $485 #
point $-1 -2.782 0.71899999999999997 0.188 #
loop $-1 $856 $612 $857 #
vertex $-1 $613 $858 #
ellipse-curve $-1 -2.9380000000000002 0.71899999999999997 0.188 0 0 1 0.088499999999999995 0 0 1 I I #
straight-curve $-1 -2.9380000000000002 -0.56299999999999994 0.375 0 0 1 I I #
cone-surface $-1 -2.9380000000000002 -0.71899999999999997 0.375 0 0 -1 -0.156 0 0 1 I I 0 1 0 I I I I #
face $-1 $859 $860 $3 $-1 $861 reversed single #
loop $-1 $756 $694 $620 #
cone-surface $-1 -2.9380000000000002 -0.71899999999999997 0.375 0 0 1 0.088499999999999995 0 0 1 I I 0 1 0 I I I I #
coedge $-1 $622 $862 $863 $864 1 $167 $-1 #
coedge $-1 $865 $866 $622 $747 1 $853 $-1 #
edge $-1 $867 $749 $746 $868 0 #
coedge $-1 $670 $623 $866 $869 1 $671 $-1 #
vertex $-1 $869 $870 #
straight-curve $-1 -2.4689999999999999 0.875 0.375 0 1 0 I I #
point $-1 -1.663 0.71799999999999997 0.125 #
loop $-1 $-1 $871 $4 #
coedge $-1 $753 $753 $872 $873 0 $631 $-1 #
coedge $-1 $754 $754 $632 $755 0 $874 $-1 #
edge $-1 $875 $875 $754 $876 0 #
loop $-1 $-1 $633 $620 #
vertex $-1 $634 $877 #
ellipse-curve $-1 -2.9380000000000002 -0.71899999999999997 0 0 0 -1 0.088499999999999995 0 0 1 I I #
face $-1 $719 $878 $3 $-1 $879 reversed single #
point $-1 2.8494999999999999 0.71899999999999997 0 #
loop $-1 $517 $880 $638 #
cone-surface $-1 2.3130000000000002 0.71899999999999997 0.375 0 0 1 -0.088499999999999995 0 0 1 I I 0 1 0 I I I I #
coedge $-1 $763 $763 $640 $764 1 $881 $-1 #
edge $-1 $882 $882 $763 $883 0 #
face $-1 $884 $808 $3 $-1 $885 reversed single #
loop $-1 $881 $804 $641 #
plane-surface $-1 0 0 0.188 0 0 1 1 0 0 0 I I I I #
vertex $-1 $644 $886 #
ellipse-curve $-1 2.9380000000000002 -0.71899999999999997 0.188 0 0 1 0.088499999999999995 0 0 1 I I #
vertex $-1 $645 $887 #
ellipse-curve $-1 -1.7350000000000001 0.71799999999999997 0.125 0 0 1 -0.125 0 0 1 I I #
point $-1 1.8600000000000001 0.71799999999999997 0.125 #
vertex $-1 $828 $888 #
straight-curve $-1 3.125 -0.56299999999999994 0.188 1 0 0 I I #
coedge $-1 $650 $795 $889 $890 0 $215 $-1 #
coedge $-1 $891 $892 $650 $777 1 $893 $-1 #
edge $-1 $894 $781 $776 $895 0 #
coedge $-1 $896 $651 $892 $897 1 $780 $-1 #
coedge $-1 $651 $896 $653 $784 0 $780 $-1 #
loop $-1 $-1 $779 $898 #
vertex $-1 $897 $899 #
straight-curve $-1 2.4689999999999999 0.875 0.188 0 0 -1 I I #
coedge $-1 $900 $653 $901 $902 1 $167 $-1 #
edge $-1 $903 $655 $779 $904 0 #
point $-1 2.4689999999999999 0.875 0.375 #
coedge $-1 $697 $661 $657 $787 0 $703 $-1 #
edge $-1 $663 $788 $657 $905 0 #
vertex $-1 $787 $906 #
straight-curve $-1 2.782 0.875 0.375 0 1 0 I I #
plane-surface $-1 2.782 0.71899999999999997 0.375 1 0 0 0 0 -1 0 I I I I #
ellipse-curve $-1 2.9380000000000002 0.71899999999999997 0.188 0 0 1 0 -0.156 0 1 I I #
point $-1 2.782 0.71899999999999997 0.188 #
coedge $-1 $793 $793 $665 $794 1 $878 $-1 #
edge $-1 $907 $907 $793 $908 0 #
coedge $-1 $775 $667 $862 $909 0 $215 $-1 #
coedge $-1 $910 $863 $667 $797 0 $911 $-1 #
edge $-1 $912 $800 $796 $913 0 #
coedge $-1 $914 $668 $670 $802 1 $607 $-1 #
coedge $-1 $668 $914 $910 $915 1 $607 $-1 #
vertex $-1 $915 $916 #
straight-curve $-1 -2.157 0.875 0.188 1 0 0 I I #
edge $-1 $917 $672 $670 $918 0 #
point $-1 -2.4689999999999999 0.875 0.188 #
coedge $-1 $919 $920 $675 $805 1 $766 $-1 #
edge $-1 $809 $921 $804 $922 0 #
coedge $-1 $923 $676 $679 $812 1 $808 $-1 #
coedge $-1 $676 $923 $919 $924 0 $808 $-1 #
loop $-1 $-1 $806 $765 #
vertex $-1 $924 $925 #
straight-curve $-1 2.4689999999999999 -0.875 0.188 -4.7496172176477301e-015 0 -1 I I #
coedge $-1 $679 $834 $926 $927 0 $167 $-1 #
edge $-1 $928 $680 $806 $929 0 #
point $-1 2.4689999999999999 -0.875 0.375 #
coedge $-1 $686 $699 $682 $815 1 $821 $-1 #
edge $-1 $688 $816 $682 $930 0 #
vertex $-1 $815 $931 #
straight-curve $-1 2.782 -0.875 0.375 0 -1 0 I I #
face $-1 $898 $893 $3 $-1 $932 reversed single #
plane-surface $-1 2.782 -0.71899999999999997 0.375 -1 0 0 0 0 1 0 I I I I #
coedge $-1 $699 $686 $696 $828 0 $821 $-1 #
loop $-1 $-1 $699 $824 #
ellipse-curve $-1 2.9380000000000002 -0.71899999999999997 0.188 0 0 -1 0 0.156 0 1 I I #
point $-1 2.782 -0.71899999999999997 0.188 #
face $-1 $684 $821 $3 $-1 $933 reversed single #
plane-surface $-1 3.125 -0.56299999999999994 0.375 0 1 0 0 0 1 0 I I I I #
vertex $-1 $695 $934 #
ellipse-curve $-1 -2.9380000000000002 -0.71899999999999997 0.188 0 0 -1 -0.088499999999999995 0 0 1 I I #
edge $-1 $773 $701 $820 $935 0 #
ellipse-curve $-1 2.9380000000000002 0.71899999999999997 0.375 0 0 1 0 -0.156 0 1 I I #
ellipse-curve $-1 2.9380000000000002 -0.71899999999999997 0.375 0 0 -1 0 0.156 0 1 I I #
point $-1 2.9380000000000002 -0.56299999999999994 0.375 #
coedge $-1 $936 $937 $708 $833 0 $938 $-1 #
edge $-1 $835 $921 $832 $939 0 #
coedge $-1 $811 $709 $937 $940 1 $167 $-1 #
vertex $-1 $833 $941 #
straight-curve $-1 -2.157 -0.875 0.375 -1 0 0 I I #
coedge $-1 $712 $711 $728 $850 1 $713 $-1 #
face $-1 $450 $713 $3 $-1 $942 forward single #
point $-1 -2.157 -0.875 0.375 #
coedge $-1 $728 $721 $716 $841 1 $729 $-1 #
edge $-1 $842 $723 $840 $943 0 #
vertex $-1 $850 $944 #
straight-curve $-1 -2.157 -0.71899999999999997 0.188 0 1 0 I I #
coedge $-1 $844 $844 $945 $946 0 $718 $-1 #
plane-surface $-1 0 0 0.188 0 0 -1 -1 0 0 0 I I I I #
straight-curve $-1 -2.4689999999999999 -0.71899999999999997 0.375 -2.3748086088238599e-015 0 1 I I #
point $-1 -2.4689999999999999 -0.71899999999999997 0.188 #
cone-surface $-1 -2.3130000000000002 -0.71899999999999997 0.375 0 0 -1 -0.156 0 0 1 I I 0 1 0 I I I I #
straight-curve $-1 -2.157 -0.875 0.375 0 -1 0 I I #
edge $-1 $842 $730 $837 $947 0 #
point $-1 -2.157 -0.71899999999999997 0.375 #
face $-1 $381 $911 $3 $-1 $948 reversed single #
loop $-1 $-1 $746 $733 #
cone-surface $-1 -2.3130000000000002 0.71899999999999997 0.375 0 0 1 -0.156 0 0 1 I I 0 1 0 I I I I #
coedge $-1 $855 $855 $949 $950 1 $735 $-1 #
loop $-1 $-1 $951 $857 #
face $-1 $-1 $737 $3 $-1 $952 reversed single #
point $-1 -2.8494999999999999 0.71899999999999997 0.188 #
face $-1 $857 $953 $3 $-1 $954 reversed single #
loop $-1 $874 $945 $742 #
cone-surface $-1 -2.3130000000000002 -0.71899999999999997 0.375 0 0 1 0.088499999999999995 0 0 1 I I 0 1 0 I I I I #
coedge $-1 $745 $900 $795 $909 1 $167 $-1 #
coedge $-1 $796 $955 $745 $864 0 $911 $-1 #
edge $-1 $867 $912 $863 $956 0 #
coedge $-1 $957 $746 $955 $958 1 $853 $-1 #
coedge $-1 $746 $957 $748 $869 0 $853 $-1 #
vertex $-1 $958 $959 #
ellipse-curve $-1 -2.3130000000000002 0.71899999999999997 0.375 0 0 -1 -0.156 0 0 1 I I #
edge $-1 $917 $749 $866 $960 0 #
point $-1 -2.4689999999999999 0.71899999999999997 0.375 #
coedge $-1 $871 $871 $951 $961 0 $752 $-1 #
coedge $-1 $872 $872 $753 $873 1 $962 $-1 #
edge $-1 $963 $963 $872 $964 0 #
loop $-1 $-1 $754 $742 #
vertex $-1 $755 $965 #
ellipse-curve $-1 -2.3130000000000002 -0.71899999999999997 0 0 0 -1 0.088499999999999995 0 0 1 I I #
point $-1 -2.8494999999999999 -0.71899999999999997 0 #
loop $-1 $635 $793 $759 #
cone-surface $-1 2.9380000000000002 0.71899999999999997 0.375 0 0 1 -0.088499999999999995 0 0 1 I I 0 1 0 I I I I #
coedge $-1 $880 $880 $966 $967 1 $761 $-1 #
loop $-1 $-1 $763 $641 #
vertex $-1 $764 $968 #
ellipse-curve $-1 2.3130000000000002 -0.71899999999999997 0.188 0 0 1 0.088499999999999995 0 0 1 I I #
face $-1 $969 $970 $3 $-1 $971 reversed single #
plane-surface $-1 2.4689999999999999 -0.875 0.375 1 0 0 0 0 -1 0 I I I I #
point $-1 2.8494999999999999 -0.71899999999999997 0.188 #
point $-1 -1.8600000000000001 0.71799999999999997 0.125 #
point $-1 2.9380000000000002 -0.56299999999999994 0.188 #
coedge $-1 $972 $973 $775 $890 1 $974 $-1 #
edge $-1 $975 $894 $889 $976 0 #
coedge $-1 $977 $776 $973 $978 0 $893 $-1 #
coedge $-1 $776 $977 $778 $897 0 $893 $-1 #
loop $-1 $979 $776 $818 #
vertex $-1 $978 $980 #
straight-curve $-1 2.4689999999999999 0.875 0.188 1 0 0 I I #
coedge $-1 $779 $778 $981 $982 0 $780 $-1 #
edge $-1 $983 $781 $778 $984 0 #
face $-1 $985 $780 $3 $-1 $986 forward single #
point $-1 2.4689999999999999 0.875 0.188 #
coedge $-1 $862 $783 $972 $987 0 $167 $-1 #
coedge $-1 $981 $988 $783 $902 0 $989 $-1 #
edge $-1 $990 $903 $901 $991 0 #
vertex $-1 $982 $992 #
straight-curve $-1 2.4689999999999999 0.875 0.375 -2.8467257041670702e-015 1 0 I I #
straight-curve $-1 2.782 0.71899999999999997 0.375 0 -5.9370215220596597e-016 1 I I #
point $-1 2.782 0.71899999999999997 0.375 #
vertex $-1 $794 $993 #
ellipse-curve $-1 2.9380000000000002 0.71899999999999997 0.188 0 0 -1 0.088499999999999995 0 0 1 I I #
edge $-1 $912 $975 $795 $994 0 #
coedge $-1 $955 $796 $799 $915 0 $911 $-1 #
loop $-1 $-1 $863 $852 #
vertex $-1 $797 $995 #
straight-curve $-1 -2.157 0.875 0.188 0 0 -1 I I #
coedge $-1 $799 $798 $957 $996 1 $607 $-1 #
edge $-1 $800 $997 $910 $998 0 #
point $-1 -2.157 0.875 0.188 #
vertex $-1 $869 $999 #
straight-curve $-1 -2.4689999999999999 0.875 0.188 8.5401771125012006e-015 1 0 I I #
coedge $-1 $1000 $804 $807 $924 1 $766 $-1 #
coedge $-1 $804 $1000 $936 $1001 1 $766 $-1 #
vertex $-1 $1001 $1002 #
straight-curve $-1 2.157 -0.875 0.188 -1 0 0 I I #
coedge $-1 $807 $806 $1003 $1004 1 $808 $-1 #
edge $-1 $1005 $809 $807 $1006 0 #
point $-1 2.4689999999999999 -0.875 0.188 #
coedge $-1 $1007 $1003 $811 $927 1 $970 $-1 #
edge $-1 $1008 $928 $926 $1009 0 #
vertex $-1 $1004 $1010 #
straight-curve $-1 2.4689999999999999 -0.875 0.375 0 -1 0 I I #
straight-curve $-1 2.782 -0.71899999999999997 0.375 0 -5.9370215220596597e-016 1 I I #
point $-1 2.782 -0.71899999999999997 0.375 #
plane-surface $-1 0 0 0.188 0 0 -1 -1 0 0 0 I I I I #
cone-surface $-1 2.9380000000000002 -0.71899999999999997 0.375 0 0 1 0.156 0 0 1 I I 0 1 0 I I I I #
point $-1 -2.8494999999999999 -0.71899999999999997 0.188 #
straight-curve $-1 2.9380000000000002 -0.56299999999999994 0.375 0 0 1 I I #
coedge $-1 $1011 $832 $920 $1001 0 $938 $-1 #
coedge $-1 $832 $1011 $834 $940 0 $938 $-1 #
loop $-1 $-1 $937 $969 #
straight-curve $-1 2.157 -0.875 0.188 0 0 -1 I I #
edge $-1 $1008 $835 $937 $1012 0 #
point $-1 2.157 -0.875 0.375 #
plane-surface $-1 -2.157 -0.71899999999999997 0.375 -1 0 0 0 0 1 0 I I I I #
ellipse-curve $-1 -2.3130000000000002 -0.71899999999999997 0.188 0 0 1 -0.156 0 0 1 I I #
point $-1 -2.157 -0.71899999999999997 0.188 #
coedge $-1 $945 $945 $844 $946 1 $860 $-1 #
edge $-1 $1013 $1013 $945 $1014 0 #
straight-curve $-1 -2.157 -0.71899999999999997 0.375 0 0 1 I I #
plane-surface $-1 -2.157 0.71899999999999997 0.375 1 0 0 0 0 -1 0 I I I I #
coedge $-1 $949 $949 $855 $950 0 $953 $-1 #
edge $-1 $1015 $1015 $949 $1016 0 #
coedge $-1 $951 $951 $871 $961 1 $856 $-1 #
cone-surface $-1 -2.9380000000000002 0.71899999999999997 0.375 0 0 -1 0.088499999999999995 0 0 1 I I 0 1 0 I I I I #
loop $-1 $962 $949 $859 #
cone-surface $-1 -2.3130000000000002 0.71899999999999997 0.375 0 0 -1 0.088499999999999995 0 0 1 I I 0 1 0 I I I I #
coedge $-1 $863 $910 $865 $958 0 $911 $-1 #
straight-curve $-1 -2.157 0.875 0.375 0 1 0 I I #
coedge $-1 $866 $865 $914 $996 0 $853 $-1 #
edge $-1 $997 $867 $955 $1017 0 #
point $-1 -2.157 0.71899999999999997 0.375 #
straight-curve $-1 -2.4689999999999999 0.71899999999999997 0.375 2.3748086088238599e-015 0 1 I I #
edge $-1 $1018 $1018 $951 $1019 0 #
loop $-1 $-1 $872 $859 #
vertex $-1 $873 $1020 #
ellipse-curve $-1 -2.3130000000000002 0.71899999999999997 0 0 0 1 -0.088499999999999995 0 0 1 I I #
point $-1 -2.2244999999999999 -0.71899999999999997 0 #
coedge $-1 $966 $966 $880 $967 0 $979 $-1 #
edge $-1 $1021 $1021 $880 $1022 0 #
point $-1 2.2244999999999999 -0.71899999999999997 0.188 #
face $-1 $561 $938 $3 $-1 $1023 reversed single #
loop $-1 $-1 $926 $884 #
cone-surface $-1 2.3130000000000002 -0.71899999999999997 0.375 0 0 1 0.156 0 0 1 I I 0 1 0 I I I I #
coedge $-1 $1024 $889 $900 $987 1 $974 $-1 #
coedge $-1 $889 $1024 $891 $978 1 $974 $-1 #
loop $-1 $-1 $972 $1025 #
vertex $-1 $890 $1026 #
straight-curve $-1 2.157 0.875 0.188 0 0 -1 I I #
coedge $-1 $892 $891 $1027 $1028 0 $893 $-1 #
edge $-1 $894 $1029 $973 $1030 0 #
loop $-1 $-1 $966 $818 #
point $-1 2.157 0.875 0.188 #
coedge $-1 $1027 $901 $896 $982 1 $989 $-1 #
edge $-1 $983 $903 $981 $1031 0 #
vertex $-1 $982 $1032 #
straight-curve $-1 2.4689999999999999 0.875 0.188 0 1 0 I I #
face $-1 $1025 $989 $3 $-1 $1033 reversed single #
plane-surface $-1 2.4689999999999999 0.875 0.375 -1 0 0 0 0 1 0 I I I I #
edge $-1 $990 $975 $972 $1034 0 #
coedge $-1 $901 $1027 $1024 $1035 0 $989 $-1 #
loop $-1 $-1 $901 $985 #
vertex $-1 $1035 $1036 #
ellipse-curve $-1 2.3130000000000002 0.71899999999999997 0.375 0 0 1 0.156 0 0 1 I I #
point $-1 2.4689999999999999 0.71899999999999997 0.375 #
point $-1 2.8494999999999999 0.71899999999999997 0.188 #
straight-curve $-1 2.157 0.875 0.375 1 0 0 I I #
point $-1 -2.157 0.875 0.375 #
edge $-1 $997 $917 $957 $1037 0 #
vertex $-1 $958 $1038 #
straight-curve $-1 -2.157 0.71899999999999997 0.188 0 -1 0 I I #
point $-1 -2.4689999999999999 0.71899999999999997 0.188 #
coedge $-1 $920 $919 $1039 $1040 1 $766 $-1 #
edge $-1 $921 $1041 $936 $1042 0 #
point $-1 2.157 -0.875 0.188 #
coedge $-1 $926 $1039 $923 $1004 0 $970 $-1 #
edge $-1 $1005 $928 $1003 $1043 0 #
vertex $-1 $1004 $1044 #
straight-curve $-1 2.4689999999999999 -0.875 0.188 -8.5401771125012006e-015 -1 0 I I #
coedge $-1 $1039 $926 $1011 $1045 1 $970 $-1 #
vertex $-1 $1045 $1046 #
ellipse-curve $-1 2.3130000000000002 -0.71899999999999997 0.375 0 0 -1 0.156 0 0 1 I I #
point $-1 2.4689999999999999 -0.71899999999999997 0.375 #
coedge $-1 $937 $936 $1007 $1045 0 $938 $-1 #
straight-curve $-1 2.157 -0.875 0.375 0 -1 0 I I #
vertex $-1 $946 $1047 #
ellipse-curve $-1 -2.3130000000000002 -0.71899999999999997 0.188 0 0 -1 -0.088499999999999995 0 0 1 I I #
vertex $-1 $950 $1048 #
ellipse-curve $-1 -2.3130000000000002 0.71899999999999997 0.188 0 0 1 0.088499999999999995 0 0 1 I I #
straight-curve $-1 -2.157 0.71899999999999997 0.375 0 0 1 I I #
vertex $-1 $961 $1049 #
ellipse-curve $-1 -2.9380000000000002 0.71899999999999997 0 0 0 1 -0.088499999999999995 0 0 1 I I #
point $-1 -2.2244999999999999 0.71899999999999997 0 #
vertex $-1 $967 $1050 #
ellipse-curve $-1 2.3130000000000002 0.71899999999999997 0.188 0 0 -1 0.088499999999999995 0 0 1 I I #
plane-surface $-1 2.157 -0.71899999999999997 0.375 -1 0 0 0 0 1 0 I I I I #
coedge $-1 $973 $972 $988 $1035 1 $974 $-1 #
face $-1 $638 $974 $3 $-1 $1051 forward single #
point $-1 2.157 0.875 0.375 #
coedge $-1 $988 $981 $977 $1028 1 $989 $-1 #
edge $-1 $1029 $983 $1027 $1052 0 #
vertex $-1 $1035 $1053 #
straight-curve $-1 2.157 0.71899999999999997 0.188 0 -1 0 I I #
straight-curve $-1 2.4689999999999999 0.71899999999999997 0.375 2.3748086088238599e-015 0 1 I I #
point $-1 2.4689999999999999 0.71899999999999997 0.188 #
cone-surface $-1 2.3130000000000002 0.71899999999999997 0.375 0 0 -1 0.156 0 0 1 I I 0 1 0 I I I I #
straight-curve $-1 2.157 0.875 0.375 0 1 0 I I #
edge $-1 $1029 $990 $1024 $1054 0 #
point $-1 2.157 0.71899999999999997 0.375 #
ellipse-curve $-1 -2.3130000000000002 0.71899999999999997 0.188 0 0 -1 -0.156 0 0 1 I I #
point $-1 -2.157 0.71899999999999997 0.188 #
coedge $-1 $1003 $1007 $1000 $1040 0 $970 $-1 #
edge $-1 $1041 $1005 $1039 $1055 0 #
vertex $-1 $1045 $1056 #
straight-curve $-1 2.157 -0.71899999999999997 0.188 0 1 0 I I #
straight-curve $-1 2.4689999999999999 -0.71899999999999997 0.375 -2.3748086088238599e-015 0 1 I I #
point $-1 2.4689999999999999 -0.71899999999999997 0.188 #
edge $-1 $1041 $1008 $1011 $1057 0 #
point $-1 2.157 -0.71899999999999997 0.375 #
point $-1 -2.2244999999999999 -0.71899999999999997 0.188 #
point $-1 -2.2244999999999999 0.71899999999999997 0.188 #
point $-1 -2.8494999999999999 0.71899999999999997 0 #
point $-1 2.2244999999999999 0.71899999999999997 0.188 #
plane-surface $-1 2.157 0.71899999999999997 0.375 1 0 0 0 0 -1 0 I I I I #
ellipse-curve $-1 2.3130000000000002 0.71899999999999997 0.188 0 0 1 0.156 0 0 1 I I #
point $-1 2.157 0.71899999999999997 0.188 #
straight-curve $-1 2.157 0.71899999999999997 0.375 0 0 1 I I #
ellipse-curve $-1 2.3130000000000002 -0.71899999999999997 0.188 0 0 -1 0.156 0 0 1 I I #
point $-1 2.157 -0.71899999999999997 0.188 #
straight-curve $-1 2.157 -0.71899999999999997 0.375 0 0 1 I I #
End-of-ACIS-data 