700 0 2 0           
24 FBMach with ACIS - 7.0.3 13 ACIS 7.0.3 NT 24 Mon May 13 17:04:04 2002 
1 9.9999999999999995e-007 1e-010 
body $2 -1 $-1 $3 $-1 $4 #
bdycol-kcp $-1 -1 1 4 $5 $6 $7 $8 #
model_id-kcp-attrib $-1 -1 $-1 $-1 $0 1 1021323843 1021323844 2031943681 1 #
lump $-1 -1 $-1 $-1 $9 $0 #
transform $-1 -1 1 0 0 0 1 0 0 0 1 0 0 0 1 rotate no_reflect no_shear #
body $10 -1 $-1 $11 $-1 $12 #
body $13 -1 $-1 $14 $-1 $15 #
body $16 -1 $-1 $17 $-1 $18 #
body $19 -1 $-1 $20 $-1 $21 #
shell $-1 -1 $-1 $-1 $-1 $22 $-1 $3 #
model_id-kcp-attrib $-1 -1 $-1 $-1 $5 1 1021323843 1021323844 2031943682 1 #
lump $-1 -1 $-1 $-1 $23 $5 #
transform $-1 -1 1 0 0 0 1 0 0 0 1 5.1731700000000007 2.2187500000000004 5.7240300000000008 1 no_rotate no_reflect no_shear #
rgb_color-st-attrib $-1 -1 $24 $-1 $6 0 0 1 #
lump $-1 -1 $-1 $-1 $25 $6 #
transform $-1 -1 1 0 0 0 1 0 0 0 1 5.1731700000000007 2.2187500000000004 5.7240300000000008 1 no_rotate no_reflect no_shear #
rgb_color-st-attrib $-1 -1 $26 $-1 $7 0.5 1 1 #
lump $-1 -1 $-1 $-1 $27 $7 #
transform $-1 -1 1 0 0 0 1 0 0 0 1 5.1731700000000007 2.2187500000000004 5.7240300000000008 1 no_rotate no_reflect no_shear #
rgb_color-st-attrib $-1 -1 $28 $-1 $8 1 0.5 1 #
lump $-1 -1 $-1 $-1 $29 $8 #
transform $-1 -1 1 0 0 0 1 0 0 0 1 5.1731700000000007 2.2187500000000004 5.7240300000000008 1 no_rotate no_reflect no_shear #
face $30 -1 $-1 $31 $32 $9 $-1 $33 reversed single #
shell $-1 -1 $-1 $-1 $-1 $34 $-1 $11 #
model_id-kcp-attrib $-1 -1 $-1 $13 $6 1 1021323843 1021323844 2032205828 1 #
shell $-1 -1 $-1 $-1 $-1 $35 $-1 $14 #
model_id-kcp-attrib $-1 -1 $-1 $16 $7 1 1021323843 1021323844 2037186563 1 #
shell $-1 -1 $-1 $-1 $-1 $36 $-1 $17 #
model_id-kcp-attrib $-1 -1 $-1 $19 $8 1 1021323843 1021323844 2038104069 1 #
shell $-1 -1 $-1 $-1 $-1 $37 $-1 $20 #
model_id-kcp-attrib $-1 -1 $-1 $-1 $22 1 1021323843 1021323844 2031943681 2 #
face $38 -1 $-1 $39 $40 $9 $-1 $41 reversed single #
loop $-1 -1 $-1 $-1 $42 $22 #
plane-surface $-1 -1 $-1 5.1010000000000009 2.9125100000000006 5.5990300000000008 -0.8660217547228608 0 -0.50000632030679104 0 0.99999999999999989 0 forward_v I I I I #
face $-1 -1 $-1 $43 $44 $23 $-1 $45 forward single #
face $-1 -1 $-1 $46 $47 $25 $-1 $48 forward single #
face $-1 -1 $-1 $49 $50 $27 $-1 $51 reversed single #
face $-1 -1 $-1 $52 $53 $29 $-1 $54 forward single #
model_id-kcp-attrib $-1 -1 $-1 $-1 $31 1 1021323843 1021323844 2031943681 3 #
face $55 -1 $-1 $56 $57 $9 $-1 $58 reversed single #
loop $-1 -1 $-1 $-1 $59 $31 #
plane-surface $-1 -1 $-1 5.2453400000000006 2.9125100000000006 5.5990300000000008 0 0 -1 0 0.99999999999999989 0 forward_v I I I I #
coedge $-1 -1 $-1 $60 $61 $62 $63 reversed $32 $-1 #
face $-1 -1 $-1 $64 $65 $23 $-1 $66 reversed single #
loop $-1 -1 $-1 $-1 $67 $34 #
plane-surface $-1 -1 $-1 0 0 0.1875 0 0 1 1 0 0 forward_v I I I I #
face $-1 -1 $-1 $68 $69 $25 $-1 $70 forward single #
loop $-1 -1 $-1 $-1 $71 $35 #
plane-surface $-1 -1 $-1 -0.072169999999999845 0.50005000000000033 -0.125 0 0 -1 -1 0 0 forward_v I I I I #
face $-1 -1 $-1 $72 $73 $27 $-1 $51 reversed single #
loop $-1 -1 $-1 $-1 $74 $36 #
cone-surface $-1 -1 $-1 0 0.59375 0 0 1 0 -0.1875 0 2.2961369134169574e-017 1 I I 0 1 0.1875 forward I I I I #
face $-1 -1 $-1 $75 $76 $29 $-1 $77 forward single #
loop $-1 -1 $-1 $78 $79 $37 #
cone-surface $-1 -1 $-1 0 0.40625 0 0 -1 0 0.094999999999999987 0 0 1 I I 0 -1 0.094999999999999987 forward I I I I #
model_id-kcp-attrib $-1 -1 $-1 $-1 $39 1 1021323843 1021323844 2031943681 4 #
face $80 -1 $-1 $81 $82 $9 $-1 $83 reversed single #
loop $-1 -1 $-1 $-1 $84 $39 #
plane-surface $-1 -1 $-1 5.3175100000000004 2.9125100000000006 5.7240300000000008 0.8660217547228608 0 -0.50000632030679104 0 -0.99999999999999989 0 forward_v I I I I #
coedge $-1 -1 $-1 $85 $86 $87 $88 reversed $40 $-1 #
coedge $-1 -1 $-1 $89 $42 $90 $91 forward $32 $-1 #
coedge $-1 -1 $-1 $42 $89 $85 $92 reversed $32 $-1 #
coedge $-1 -1 $-1 $87 $93 $42 $63 forward $94 $-1 #
edge $95 -1 $-1 $96 -0.10825454387499016 $97 0.036083631601908493 $62 $98 forward @7 unknown #
face $99 -1 $-1 $100 $101 $23 $-1 $102 reversed single #
loop $-1 -1 $-1 $-1 $103 $43 #
plane-surface $-1 -1 $-1 0 0 -0.1875 0 0 1 1 0 0 forward_v I I I I #
coedge $-1 -1 $-1 $104 $105 $106 $107 forward $44 $-1 #
face $-1 -1 $-1 $108 $109 $25 $-1 $110 forward single #
loop $-1 -1 $-1 $-1 $111 $46 #
plane-surface $-1 -1 $-1 0.072169999999999845 0.50005000000000033 -0.125 0.8660217547228608 0 -0.50000632030679104 -0.50000632030679104 0 -0.8660217547228608 forward_v I I I I #
coedge $-1 -1 $-1 $112 $113 $114 $115 forward $47 $-1 #
face $-1 -1 $-1 $116 $117 $27 $-1 $51 reversed single #
loop $-1 -1 $-1 $-1 $118 $49 #
coedge $-1 -1 $-1 $119 $120 $121 $122 reversed $50 $-1 #
face $-1 -1 $-1 $123 $124 $29 $-1 $125 reversed single #
loop $-1 -1 $-1 $126 $127 $52 #
cone-surface $-1 -1 $-1 0 0.40625 0 0 -1 0 -0.1875 0 2.2961369134169574e-017 1 I I 0 1 0.1875 forward I I I I #
loop $-1 -1 $-1 $-1 $128 $37 #
coedge $-1 -1 $-1 $79 $79 $129 $130 forward $53 $-1 #
model_id-kcp-attrib $-1 -1 $-1 $-1 $56 1 1021323843 1021323844 2031943681 5 #
face $131 -1 $-1 $132 $133 $9 $-1 $134 reversed single #
loop $-1 -1 $-1 $-1 $135 $56 #
plane-surface $-1 -1 $-1 5.2453400000000006 2.9125100000000006 5.8490300000000008 0.8660217547228608 0 0.50000632030679104 0 -0.99999999999999989 0 forward_v I I I I #
coedge $-1 -1 $-1 $136 $137 $138 $139 reversed $57 $-1 #
coedge $-1 -1 $-1 $140 $59 $61 $92 forward $40 $-1 #
coedge $-1 -1 $-1 $59 $140 $136 $141 reversed $40 $-1 #
coedge $-1 -1 $-1 $138 $62 $59 $88 forward $94 $-1 #
edge $142 -1 $-1 $97 -0.10825499999999978 $143 0.03608499999999993 $87 $144 forward @7 unknown #
coedge $-1 -1 $-1 $61 $60 $145 $146 reversed $32 $-1 #
coedge $-1 -1 $-1 $147 $148 $60 $91 reversed $133 $-1 #
edge $-1 -1 $-1 $96 0.10001000000000017 $149 0.19370999999999985 $90 $150 forward @7 unknown #
edge $-1 -1 $-1 $97 0.10001000000000017 $151 0.19370999999999985 $61 $152 forward @7 unknown #
coedge $-1 -1 $-1 $62 $153 $147 $154 forward $94 $-1 #
loop $-1 -1 $-1 $155 $156 $157 #
attrib_edge_convexity-kcp-attrib $-1 -1 $158 $-1 $63 1 #
vertex $-1 -1 $-1 $63 $159 #
vertex $-1 -1 $-1 $88 $160 #
straight-curve $-1 -1 $-1 5.0829579561394249 2.8125000000000004 5.630279209956659 0.50000632030679093 0 -0.86602175472286069 I I #
model_id-kcp-attrib $-1 -1 $-1 $-1 $64 1 1021323843 1021323844 2031943682 3 #
face $-1 -1 $-1 $161 $162 $23 $-1 $163 reversed single #
loop $-1 -1 $-1 $-1 $164 $64 #
plane-surface $-1 -1 $-1 0 -0.59374999999999989 0 0 1 0 0 0 1 forward_v I I I I #
coedge $-1 -1 $-1 $165 $166 $167 $168 forward $65 $-1 #
coedge $-1 -1 $-1 $169 $67 $170 $171 forward $44 $-1 #
coedge $-1 -1 $-1 $67 $169 $172 $173 forward $44 $-1 #
coedge $-1 -1 $-1 $174 $175 $67 $107 reversed $176 $-1 #
edge $-1 -1 $-1 $177 -0.59374999999999989 $178 0.59374999999999989 $106 $179 forward @7 unknown #
face $-1 -1 $-1 $180 $181 $25 $-1 $182 forward single #
loop $-1 -1 $-1 $-1 $183 $68 #
plane-surface $-1 -1 $-1 0.14433999999999969 0.50005000000000033 0 0.8660217547228608 0 0.50000632030679104 0.50000632030679104 0 -0.8660217547228608 forward_v I I I I #
coedge $-1 -1 $-1 $184 $185 $186 $187 forward $69 $-1 #
coedge $-1 -1 $-1 $188 $71 $185 $189 reversed $47 $-1 #
coedge $-1 -1 $-1 $71 $188 $190 $191 forward $47 $-1 #
coedge $-1 -1 $-1 $192 $186 $71 $115 reversed $193 $-1 #
edge $-1 -1 $-1 $194 -0.10825499999999977 $195 0.036084999999999923 $71 $196 forward @7 unknown #
face $-1 -1 $-1 $197 $198 $27 $-1 $51 reversed single #
loop $-1 -1 $-1 $-1 $199 $72 #
coedge $-1 -1 $-1 $200 $201 $202 $203 reversed $73 $-1 #
coedge $-1 -1 $-1 $204 $74 $205 $206 forward $50 $-1 #
coedge $-1 -1 $-1 $74 $204 $207 $208 reversed $50 $-1 #
coedge $-1 -1 $-1 $209 $210 $74 $122 forward $211 $-1 #
edge $-1 -1 $-1 $212 -1.2246063538223773e-016 $213 1.5707963267948966 $121 $214 forward @7 unknown #
face $-1 -1 $-1 $-1 $215 $29 $-1 $216 forward single #
loop $-1 -1 $-1 $217 $218 $75 #
plane-surface $-1 -1 $-1 0.014217618664521311 -0.59374999999999978 -4.2840369154950783e-018 0 1 0 0 0 1 forward_v I I I I #
loop $-1 -1 $-1 $-1 $219 $52 #
coedge $-1 -1 $-1 $127 $127 $218 $220 forward $76 $-1 #
coedge $-1 -1 $-1 $128 $128 $221 $222 reversed $78 $-1 #
coedge $-1 -1 $-1 $129 $129 $79 $130 reversed $217 $-1 #
edge $-1 -1 $-1 $223 0 $223 6.2831853071795862 $79 $224 forward @7 unknown #
model_id-kcp-attrib $-1 -1 $-1 $-1 $81 1 1021323843 1021323844 2031943681 6 #
face $225 -1 $-1 $226 $227 $9 $-1 $228 reversed single #
loop $-1 -1 $-1 $-1 $147 $81 #
plane-surface $-1 -1 $-1 5.028830000000001 2.9125100000000006 5.7240300000000008 -0.8660217547228608 0 0.50000632030679104 0 0.99999999999999989 0 forward_v I I I I #
coedge $-1 -1 $-1 $229 $230 $156 $231 reversed $82 $-1 #
coedge $-1 -1 $-1 $232 $84 $86 $141 forward $57 $-1 #
coedge $-1 -1 $-1 $84 $232 $229 $233 reversed $57 $-1 #
coedge $-1 -1 $-1 $156 $87 $84 $139 forward $94 $-1 #
edge $234 -1 $-1 $143 -0.10825271934035782 $235 0.036085456136540836 $138 $236 forward @7 unknown #
coedge $-1 -1 $-1 $86 $85 $237 $238 reversed $40 $-1 #
edge $-1 -1 $-1 $143 0.10001000000000017 $239 0.19370999999999985 $86 $240 forward @7 unknown #
attrib_edge_convexity-kcp-attrib $-1 -1 $241 $-1 $88 1 #
vertex $-1 -1 $-1 $139 $242 #
straight-curve $-1 -1 $-1 5.2092550000000006 2.8125000000000004 5.5990300000000008 0.99999999999999989 0 0 I I #
coedge $-1 -1 $-1 $243 $237 $89 $146 forward $244 $-1 #
edge $245 -1 $-1 $151 0 $149 0.14433817547689864 $89 $246 forward @7 unknown #
coedge $-1 -1 $-1 $247 $90 $93 $154 reversed $133 $-1 #
coedge $-1 -1 $-1 $90 $247 $243 $248 reversed $133 $-1 #
vertex $-1 -1 $-1 $91 $249 #
straight-curve $-1 -1 $-1 5.028830000000001 2.9125100000000006 5.7240300000000008 0 -0.99999999999999989 0 I I #
vertex $-1 -1 $-1 $92 $250 #
straight-curve $-1 -1 $-1 5.1010000000000009 2.9125100000000006 5.5990300000000008 0 -0.99999999999999989 0 I I #
coedge $-1 -1 $-1 $93 $156 $251 $252 forward $94 $-1 #
edge $253 -1 $-1 $254 -0.10825271934035782 $96 0.036085456136540836 $93 $255 forward @7 unknown #
loop $-1 -1 $-1 $-1 $256 $157 #
coedge $-1 -1 $-1 $153 $138 $135 $231 forward $94 $-1 #
face $257 -1 $-1 $258 $94 $9 $-1 $259 forward single #
convexity-sys-attrib $-1 -1 $-1 $95 $63 #
point $-1 -1 $-1 5.028830000000001 2.8125000000000004 5.7240300000000008 #
point $-1 -1 $-1 5.1010000000000009 2.8125000000000004 5.5990300000000008 #
face $260 -1 $-1 $261 $262 $23 $-1 $263 reversed single #
loop $-1 -1 $-1 $-1 $264 $100 #
plane-surface $-1 -1 $-1 -0.1875 0 0 1 0 0 0 0 -1 forward_v I I I I #
coedge $-1 -1 $-1 $265 $172 $266 $267 forward $101 $-1 #
coedge $-1 -1 $-1 $268 $103 $265 $269 forward $65 $-1 #
coedge $-1 -1 $-1 $103 $268 $270 $271 forward $65 $-1 #
coedge $-1 -1 $-1 $175 $174 $103 $168 reversed $176 $-1 #
edge $-1 -1 $-1 $272 -0.59374999999999989 $273 0.59374999999999989 $167 $274 forward @7 unknown #
coedge $-1 -1 $-1 $105 $104 $275 $276 forward $44 $-1 #
coedge $-1 -1 $-1 $277 $278 $104 $171 reversed $262 $-1 #
edge $-1 -1 $-1 $178 -0.1875 $279 0.1875 $170 $280 forward @7 unknown #
coedge $-1 -1 $-1 $164 $281 $105 $173 reversed $101 $-1 #
edge $-1 -1 $-1 $282 -0.1875 $177 0.1875 $172 $283 forward @7 unknown #
coedge $-1 -1 $-1 $167 $106 $281 $284 forward $176 $-1 #
coedge $-1 -1 $-1 $106 $167 $277 $285 reversed $176 $-1 #
loop $-1 -1 $-1 $-1 $174 $261 #
vertex $-1 -1 $-1 $107 $286 #
vertex $-1 -1 $-1 $107 $287 #
straight-curve $-1 -1 $-1 0.1875 0 0.1875 0 1 0 I I #
face $-1 -1 $-1 $288 $289 $25 $-1 $290 forward single #
loop $-1 -1 $-1 $-1 $291 $108 #
plane-surface $-1 -1 $-1 0.072169999999999845 0.50005000000000033 0.125 0 0 1 1 0 0 forward_v I I I I #
coedge $-1 -1 $-1 $292 $293 $294 $295 forward $109 $-1 #
coedge $-1 -1 $-1 $296 $111 $293 $297 reversed $69 $-1 #
coedge $-1 -1 $-1 $111 $296 $112 $189 forward $69 $-1 #
coedge $-1 -1 $-1 $114 $294 $111 $187 reversed $193 $-1 #
edge $-1 -1 $-1 $195 -0.10825271934035761 $298 0.036085456136541023 $111 $299 forward @7 unknown #
coedge $-1 -1 $-1 $113 $112 $300 $301 reversed $47 $-1 #
edge $302 -1 $-1 $303 0 $195 0.093699999999999672 $185 $304 forward @7 unknown #
coedge $-1 -1 $-1 $305 $306 $113 $191 reversed $307 $-1 #
edge $-1 -1 $-1 $308 0 $194 0.093699999999999672 $113 $309 forward @7 unknown #
coedge $-1 -1 $-1 $310 $114 $306 $311 reversed $193 $-1 #
loop $-1 -1 $-1 $-1 $114 $312 #
vertex $-1 -1 $-1 $191 $313 #
vertex $-1 -1 $-1 $189 $314 #
straight-curve $-1 -1 $-1 0.036084999999999923 0.59375000000000022 -0.125 1 0 0 I I #
face $-1 -1 $-1 $315 $316 $27 $-1 $317 forward single #
loop $-1 -1 $-1 $-1 $318 $116 #
coedge $-1 -1 $-1 $319 $320 $318 $321 forward $117 $-1 #
coedge $-1 -1 $-1 $322 $118 $323 $324 reversed $73 $-1 #
coedge $-1 -1 $-1 $118 $322 $120 $208 forward $73 $-1 #
coedge $-1 -1 $-1 $325 $326 $118 $203 forward $327 $-1 #
edge $-1 -1 $-1 $328 -3.1415926535897931 $329 -1.5707963267948966 $202 $330 forward @7 unknown #
coedge $-1 -1 $-1 $120 $119 $331 $332 reversed $50 $-1 #
coedge $-1 -1 $-1 $320 $319 $333 $206 reversed $117 $-1 #
edge $-1 -1 $-1 $212 -1.1875 $334 -1.1102230246251565e-016 $333 $335 forward @7 unknown #
coedge $-1 -1 $-1 $336 $337 $338 $208 forward $339 $-1 #
edge $-1 -1 $-1 $213 -1.1875 $329 -1.1102230246251565e-016 $207 $340 forward @7 unknown #
coedge $-1 -1 $-1 $210 $121 $337 $341 reversed $211 $-1 #
coedge $-1 -1 $-1 $121 $209 $342 $343 forward $211 $-1 #
loop $-1 -1 $-1 $-1 $121 $344 #
vertex $-1 -1 $-1 $345 $346 #
vertex $-1 -1 $-1 $347 $348 #
ellipse-curve $-1 -1 $-1 0 -0.59375 0 0 1 0 -0.1875 0 2.2961369134169574e-017 1 I I #
loop $-1 -1 $-1 $349 $350 $123 #
plane-surface $-1 -1 $-1 0.014217618664521311 0.40625 -4.2840369154950783e-018 0 1 0 0 0 1 forward_v I I I I #
loop $-1 -1 $-1 $-1 $129 $75 #
coedge $-1 -1 $-1 $218 $218 $127 $220 reversed $124 $-1 #
coedge $-1 -1 $-1 $219 $219 $350 $351 reversed $126 $-1 #
edge $-1 -1 $-1 $352 -3.1415926535897931 $352 3.1415926535897931 $127 $353 forward @7 unknown #
coedge $-1 -1 $-1 $221 $221 $128 $222 forward $349 $-1 #
edge $354 -1 $-1 $355 0 $355 6.2831853071795862 $128 $356 forward @7 unknown #
vertex $-1 -1 $-1 $130 $357 #
ellipse-curve $-1 -1 $-1 0 -0.59374999999999978 0 0 -1 0 0.094999999999999987 0 0 1 I I #
model_id-kcp-attrib $-1 -1 $-1 $-1 $132 1 1021323843 1021323844 2031943681 7 #
face $358 -1 $-1 $359 $244 $9 $-1 $360 reversed single #
loop $-1 -1 $-1 $-1 $251 $132 #
plane-surface $-1 -1 $-1 5.1010000000000009 2.9125100000000006 5.8490300000000008 0 0 1 0 -0.99999999999999989 0 forward_v I I I I #
coedge $-1 -1 $-1 $361 $135 $137 $233 forward $82 $-1 #
coedge $-1 -1 $-1 $135 $361 $362 $363 reversed $82 $-1 #
edge $364 -1 $-1 $235 -0.10825454387499016 $365 0.036083631601908493 $156 $366 forward @7 unknown #
coedge $-1 -1 $-1 $137 $136 $367 $368 reversed $57 $-1 #
edge $-1 -1 $-1 $235 0.10001000000000017 $369 0.19370999999999985 $137 $370 forward @7 unknown #
attrib_edge_convexity-kcp-attrib $-1 -1 $371 $-1 $139 1 #
vertex $-1 -1 $-1 $231 $372 #
straight-curve $-1 -1 $-1 5.2994670438605764 2.8125000000000004 5.692779209956659 0.50000632030679093 0 0.86602175472286069 I I #
coedge $-1 -1 $-1 $145 $367 $140 $238 forward $244 $-1 #
edge $373 -1 $-1 $239 0 $151 0.14433999999999972 $140 $374 forward @7 unknown #
vertex $-1 -1 $-1 $141 $375 #
straight-curve $-1 -1 $-1 5.2453400000000006 2.9125100000000006 5.5990300000000008 0 -0.99999999999999989 0 I I #
convexity-sys-attrib $-1 -1 $-1 $142 $88 #
point $-1 -1 $-1 5.2453400000000006 2.8125000000000004 5.5990300000000008 #
coedge $-1 -1 $-1 $376 $145 $148 $248 forward $244 $-1 #
loop $-1 -1 $-1 $-1 $377 $226 #
attrib_edge_convexity-kcp-attrib $-1 -1 $378 $-1 $146 2 #
straight-curve $-1 -1 $-1 5.1010000000000009 2.7188000000000008 5.5990300000000008 -0.50000632030679082 0 0.86602175472286058 I I #
coedge $-1 -1 $-1 $148 $147 $379 $380 forward $133 $-1 #
edge $381 -1 $-1 $149 0 $382 0.14433817547689864 $148 $383 forward @7 unknown #
point $-1 -1 $-1 5.028830000000001 2.7188000000000008 5.7240300000000008 #
point $-1 -1 $-1 5.1010000000000009 2.7188000000000008 5.5990300000000008 #
coedge $-1 -1 $-1 $362 $379 $153 $252 reversed $227 $-1 #
edge $384 -1 $-1 $365 -0.10825499999999978 $254 0.03608499999999993 $153 $385 forward @7 unknown #
attrib_edge_convexity-kcp-attrib $-1 -1 $386 $-1 $154 1 #
vertex $-1 -1 $-1 $154 $387 #
straight-curve $-1 -1 $-1 5.046872956139425 2.8125000000000004 5.7552807900433427 -0.50000632030679093 0 -0.86602175472286069 I I #
coedge $-1 -1 $-1 $256 $256 $388 $389 forward $155 $-1 #
model_id-kcp-attrib $-1 -1 $-1 $-1 $157 1 1021323843 1021323844 2031943681 11 #
face $390 -1 $-1 $391 $392 $9 $-1 $393 forward single #
plane-surface $-1 -1 $-1 5.1731700000000007 2.8125000000000004 5.7240300000000008 0 1 0 0.99999999999999989 0 0 forward_v I I I I #
model_id-kcp-attrib $-1 -1 $-1 $-1 $161 1 1021323843 1021323844 2031943682 2 #
face $-1 -1 $-1 $-1 $176 $23 $-1 $394 reversed single #
loop $-1 -1 $-1 $-1 $277 $161 #
plane-surface $-1 -1 $-1 0 0.59374999999999989 0 0 -1 0 0 0 -1 forward_v I I I I #
coedge $-1 -1 $-1 $395 $275 $278 $396 forward $162 $-1 #
coedge $-1 -1 $-1 $281 $164 $165 $269 reversed $101 $-1 #
coedge $-1 -1 $-1 $275 $395 $164 $267 reversed $162 $-1 #
edge $-1 -1 $-1 $282 -0.1875 $397 0.1875 $266 $398 forward @7 unknown #
coedge $-1 -1 $-1 $166 $165 $395 $399 forward $65 $-1 #
edge $-1 -1 $-1 $273 -0.1875 $397 0.1875 $265 $400 forward @7 unknown #
coedge $-1 -1 $-1 $278 $277 $166 $271 reversed $262 $-1 #
edge $-1 -1 $-1 $401 -0.1875 $272 0.1875 $270 $402 forward @7 unknown #
vertex $-1 -1 $-1 $168 $403 #
vertex $-1 -1 $-1 $284 $404 #
straight-curve $-1 -1 $-1 0.1875 0 -0.1875 0 -1 0 I I #
coedge $-1 -1 $-1 $264 $266 $169 $276 reversed $162 $-1 #
edge $-1 -1 $-1 $279 -0.59374999999999989 $282 0.59374999999999989 $275 $405 forward @7 unknown #
coedge $-1 -1 $-1 $270 $170 $175 $285 forward $262 $-1 #
coedge $-1 -1 $-1 $170 $270 $264 $396 reversed $262 $-1 #
vertex $-1 -1 $-1 $171 $406 #
straight-curve $-1 -1 $-1 0 0.59374999999999989 0.1875 -1 0 0 I I #
coedge $-1 -1 $-1 $172 $265 $174 $284 reversed $101 $-1 #
vertex $-1 -1 $-1 $276 $407 #
straight-curve $-1 -1 $-1 0 -0.59374999999999989 0.1875 1 0 0 I I #
edge $-1 -1 $-1 $177 -0.1875 $273 0.1875 $174 $408 forward @7 unknown #
edge $-1 -1 $-1 $178 -0.1875 $272 0.1875 $175 $409 forward @7 unknown #
point $-1 -1 $-1 0.1875 -0.59374999999999989 0.1875 #
point $-1 -1 $-1 0.1875 0.59374999999999989 0.1875 #
face $-1 -1 $-1 $312 $307 $25 $-1 $410 forward single #
loop $-1 -1 $-1 $-1 $411 $180 #
plane-surface $-1 -1 $-1 -0.072169999999999845 0.50005000000000033 0.125 -0.8660217547228608 0 0.50000632030679104 0.50000632030679104 0 0.8660217547228608 forward_v I I I I #
coedge $-1 -1 $-1 $412 $413 $414 $415 forward $181 $-1 #
coedge $-1 -1 $-1 $416 $183 $413 $417 reversed $109 $-1 #
coedge $-1 -1 $-1 $183 $416 $184 $297 forward $109 $-1 #
coedge $-1 -1 $-1 $186 $414 $183 $295 reversed $193 $-1 #
edge $-1 -1 $-1 $298 -0.10825454387499035 $418 0.036083631601908292 $183 $419 forward @7 unknown #
coedge $-1 -1 $-1 $185 $184 $420 $421 reversed $69 $-1 #
edge $-1 -1 $-1 $422 0 $298 0.093699999999999672 $293 $423 forward @7 unknown #
vertex $-1 -1 $-1 $297 $424 #
straight-curve $-1 -1 $-1 0.12629704386057572 0.59375000000000022 -0.031250790043342087 0.50000632030679104 0 0.8660217547228608 I I #
coedge $-1 -1 $-1 $420 $425 $188 $301 forward $426 $-1 #
edge $427 -1 $-1 $308 -0.10825499999999977 $303 0.036084999999999923 $188 $428 forward @7 unknown #
convexity-sys-attrib $-1 -1 $-1 $-1 $189 #
vertex $-1 -1 $-1 $301 $429 #
straight-curve $-1 -1 $-1 0.072169999999999845 0.50005000000000033 -0.125 0 1 0 I I #
coedge $-1 -1 $-1 $430 $190 $425 $431 reversed $307 $-1 #
coedge $-1 -1 $-1 $190 $430 $192 $311 forward $307 $-1 #
loop $-1 -1 $-1 $-1 $306 $288 #
vertex $-1 -1 $-1 $431 $432 #
straight-curve $-1 -1 $-1 -0.072169999999999845 0.50005000000000033 -0.125 0 1 0 I I #
coedge $-1 -1 $-1 $414 $192 $411 $433 reversed $193 $-1 #
edge $-1 -1 $-1 $434 -0.10825454387499035 $194 0.036083631601908292 $306 $435 forward @7 unknown #
face $-1 -1 $-1 $436 $193 $25 $-1 $437 forward single #
point $-1 -1 $-1 -0.072169999999999845 0.59375 -0.125 #
point $-1 -1 $-1 0.072169999999999845 0.59375 -0.125 #
face $-1 -1 $-1 $438 $439 $27 $-1 $440 reversed single #
loop $-1 -1 $-1 $-1 $338 $197 #
plane-surface $-1 -1 $-1 0 0 0.1875 0 0 1 1 0 0 forward_v I I I I #
coedge $-1 -1 $-1 $441 $442 $443 $321 reversed $198 $-1 #
coedge $-1 -1 $-1 $205 $199 $444 $445 reversed $117 $-1 #
coedge $-1 -1 $-1 $199 $205 $446 $447 reversed $117 $-1 #
edge $-1 -1 $-1 $448 -1.1875 $449 -1.1102230246251565e-016 $443 $450 forward @7 unknown #
coedge $-1 -1 $-1 $201 $200 $451 $452 reversed $73 $-1 #
coedge $-1 -1 $-1 $453 $454 $455 $324 forward $456 $-1 #
edge $-1 -1 $-1 $457 -1.1875 $328 -1.1102230246251565e-016 $323 $458 forward @7 unknown #
coedge $-1 -1 $-1 $326 $202 $459 $460 reversed $327 $-1 #
coedge $-1 -1 $-1 $202 $325 $453 $461 forward $327 $-1 #
loop $-1 -1 $-1 $-1 $202 $462 #
vertex $-1 -1 $-1 $463 $464 #
vertex $-1 -1 $-1 $465 $466 #
ellipse-curve $-1 -1 $-1 0 0.59374999999999989 0 0 -1 0 -0.1875 0 2.2961369134169574e-017 1 I I #
coedge $-1 -1 $-1 $467 $468 $204 $332 forward $469 $-1 #
edge $-1 -1 $-1 $329 -1.5707963267948966 $334 1.2246063538223773e-016 $331 $330 forward @7 unknown #
coedge $-1 -1 $-1 $470 $471 $472 $206 forward $439 $-1 #
vertex $-1 -1 $-1 $473 $474 #
straight-curve $-1 -1 $-1 -0.1875 0.59375 0 0 1 0 I I #
coedge $-1 -1 $-1 $475 $207 $468 $465 forward $339 $-1 #
coedge $-1 -1 $-1 $207 $475 $209 $341 forward $339 $-1 #
coedge $-1 -1 $-1 $476 $459 $201 $208 reversed $316 $-1 #
loop $-1 -1 $-1 $-1 $207 $477 #
straight-curve $-1 -1 $-1 0 0.59375 0.1875 0 1 0 I I #
edge $-1 -1 $-1 $478 -0.1875 $213 0 $209 $479 forward @7 unknown #
coedge $-1 -1 $-1 $480 $472 $210 $343 reversed $481 $-1 #
edge $-1 -1 $-1 $478 -0.1875 $212 0 $342 $482 forward @7 unknown #
face $-1 -1 $-1 $483 $211 $27 $-1 $484 reversed single #
edge $-1 -1 $-1 $212 0 $485 0.1875 $471 $482 forward @7 unknown #
point $-1 -1 $-1 -0.1875 -0.59375 0 #
edge $-1 -1 $-1 $213 0 $486 0.1875 $487 $479 forward @7 unknown #
point $-1 -1 $-1 0 -0.59375 0.1875 #
loop $-1 -1 $-1 $-1 $221 $123 #
coedge $-1 -1 $-1 $350 $350 $219 $351 forward $215 $-1 #
edge $488 -1 $-1 $489 -3.1415926535897931 $489 3.1415926535897931 $219 $490 forward @7 unknown #
vertex $-1 -1 $-1 $220 $491 #
ellipse-curve $-1 -1 $-1 0 -0.59374999999999978 0 0 1 0 -0.1875 0 2.2961369134169574e-017 1 I I #
convexity-sys-attrib $-1 -1 $-1 $-1 $222 #
vertex $-1 -1 $-1 $222 $492 #
ellipse-curve $-1 -1 $-1 0 0.40625 0 0 -1 0 0.094999999999999987 0 0 1 I I #
point $-1 -1 $-1 0.094999999999999751 -0.59374999999999978 0 #
model_id-kcp-attrib $-1 -1 $-1 $-1 $226 1 1021323843 1021323844 2031943681 8 #
face $493 -1 $-1 $494 $495 $9 $-1 $496 forward single #
plane-surface $-1 -1 $-1 5.2453400000000006 2.7188000000000008 5.8490300000000008 0 -1 0 -0.99999999999999989 0 0 forward_v I I I I #
coedge $-1 -1 $-1 $230 $229 $377 $497 reversed $82 $-1 #
coedge $-1 -1 $-1 $498 $251 $230 $363 forward $227 $-1 #
edge $-1 -1 $-1 $365 0.10001000000000017 $499 0.19370999999999985 $230 $500 forward @7 unknown #
attrib_edge_convexity-kcp-attrib $-1 -1 $501 $-1 $231 1 #
vertex $-1 -1 $-1 $231 $502 #
straight-curve $-1 -1 $-1 5.2633820438605765 2.8125000000000004 5.8177807900433427 -0.50000632030679093 0 0.86602175472286069 I I #
coedge $-1 -1 $-1 $237 $377 $232 $368 forward $244 $-1 #
edge $503 -1 $-1 $369 0 $239 0.14433817547689864 $232 $504 forward @7 unknown #
vertex $-1 -1 $-1 $233 $505 #
straight-curve $-1 -1 $-1 5.3175100000000004 2.9125100000000006 5.7240300000000008 0 -0.99999999999999989 0 I I #
convexity-sys-attrib $-1 -1 $-1 $234 $139 #
point $-1 -1 $-1 5.3175100000000004 2.8125000000000004 5.7240300000000008 #
attrib_edge_convexity-kcp-attrib $-1 -1 $506 $-1 $238 2 #
straight-curve $-1 -1 $-1 5.2453400000000006 2.7188000000000008 5.5990300000000008 -0.99999999999999989 0 0 I I #
point $-1 -1 $-1 5.2453400000000006 2.7188000000000008 5.5990300000000008 #
coedge $-1 -1 $-1 $377 $243 $498 $507 forward $244 $-1 #
coedge $-1 -1 $-1 $367 $376 $361 $497 forward $244 $-1 #
convexity-sys-attrib $-1 -1 $-1 $245 $146 #
coedge $-1 -1 $-1 $251 $498 $247 $380 reversed $227 $-1 #
edge $-1 -1 $-1 $254 0.10001000000000017 $382 0.19370999999999985 $379 $508 forward @7 unknown #
attrib_edge_convexity-kcp-attrib $-1 -1 $509 $-1 $248 2 #
vertex $-1 -1 $-1 $380 $510 #
straight-curve $-1 -1 $-1 5.028830000000001 2.7188000000000008 5.7240300000000008 0.50000632030679082 0 0.86602175472286058 I I #
attrib_edge_convexity-kcp-attrib $-1 -1 $511 $-1 $252 1 #
straight-curve $-1 -1 $-1 5.1370850000000008 2.8125000000000004 5.8490300000000008 -0.99999999999999989 0 0 I I #
convexity-sys-attrib $-1 -1 $-1 $253 $154 #
point $-1 -1 $-1 5.1010000000000009 2.8125000000000004 5.8490300000000008 #
coedge $-1 -1 $-1 $388 $388 $256 $389 reversed $512 $-1 #
edge $513 -1 $-1 $514 0 $514 6.2831853071795862 $256 $515 forward @7 unknown #
model_id-kcp-attrib $-1 -1 $-1 $-1 $258 1 1021323843 1021323844 2031943681 12 #
face $516 -1 $-1 $-1 $517 $9 $-1 $518 forward single #
loop $-1 -1 $-1 $519 $520 $258 #
cone-surface $-1 -1 $-1 5.1731700000000007 2.1250000000000004 5.7240300000000008 0 1 0 0.094999999999999987 0 0 1 I I 0 1 0.094999999999999987 forward I I I I #
plane-surface $-1 -1 $-1 0.1875 0 0 -1 0 0 0 0 1 forward_v I I I I #
coedge $-1 -1 $-1 $266 $264 $268 $399 reversed $162 $-1 #
edge $-1 -1 $-1 $279 -0.1875 $401 0.1875 $278 $521 forward @7 unknown #
vertex $-1 -1 $-1 $399 $522 #
straight-curve $-1 -1 $-1 -0.1875 -0.59374999999999989 0 0 0 -1 I I #
edge $-1 -1 $-1 $397 -0.59374999999999989 $401 0.59374999999999989 $395 $523 forward @7 unknown #
straight-curve $-1 -1 $-1 0 -0.59374999999999989 -0.1875 -1 0 0 I I #
vertex $-1 -1 $-1 $271 $524 #
straight-curve $-1 -1 $-1 0 0.59374999999999989 -0.1875 1 0 0 I I #
point $-1 -1 $-1 0.1875 0.59374999999999989 -0.1875 #
point $-1 -1 $-1 0.1875 -0.59374999999999989 -0.1875 #
straight-curve $-1 -1 $-1 -0.1875 0 0.1875 0 -1 0 I I #
point $-1 -1 $-1 -0.1875 0.59374999999999989 0.1875 #
point $-1 -1 $-1 -0.1875 -0.59374999999999989 0.1875 #
straight-curve $-1 -1 $-1 0.1875 -0.59374999999999989 0 0 0 -1 I I #
straight-curve $-1 -1 $-1 0.1875 0.59374999999999989 0 0 0 -1 I I #
plane-surface $-1 -1 $-1 -0.14433999999999969 0.50005000000000033 0 -0.8660217547228608 0 -0.50000632030679104 -0.50000632030679104 0 0.8660217547228608 forward_v I I I I #
coedge $-1 -1 $-1 $525 $526 $310 $433 forward $289 $-1 #
coedge $-1 -1 $-1 $527 $291 $526 $528 reversed $181 $-1 #
coedge $-1 -1 $-1 $291 $527 $292 $417 forward $181 $-1 #
coedge $-1 -1 $-1 $294 $310 $291 $415 reversed $193 $-1 #
edge $-1 -1 $-1 $418 -0.10825499999999977 $529 0.036084999999999923 $291 $530 forward @7 unknown #
coedge $-1 -1 $-1 $293 $292 $531 $532 reversed $109 $-1 #
edge $-1 -1 $-1 $533 0 $418 0.093699999999999672 $413 $534 forward @7 unknown #
vertex $-1 -1 $-1 $417 $535 #
straight-curve $-1 -1 $-1 0.090212043860575852 0.59375000000000022 0.093750790043342122 -0.50000632030679104 0 0.8660217547228608 I I #
coedge $-1 -1 $-1 $531 $300 $296 $421 forward $426 $-1 #
edge $536 -1 $-1 $303 -0.10825271934035761 $422 0.036085456136541023 $296 $537 forward @7 unknown #
vertex $-1 -1 $-1 $421 $538 #
straight-curve $-1 -1 $-1 0.14433999999999969 0.50005000000000033 0 0 1 0 I I #
point $-1 -1 $-1 0.14433999999999969 0.59375 0 #
coedge $-1 -1 $-1 $300 $539 $305 $431 forward $426 $-1 #
loop $-1 -1 $-1 $-1 $425 $436 #
convexity-sys-attrib $-1 -1 $-1 $-1 $301 #
straight-curve $-1 -1 $-1 0.036084999999999923 0.50005000000000055 -0.125 1 0 0 I I #
point $-1 -1 $-1 0.072169999999999845 0.50005000000000033 -0.125 #
coedge $-1 -1 $-1 $306 $305 $525 $540 forward $307 $-1 #
edge $541 -1 $-1 $542 -0.10825454387499035 $308 0.036083631601908292 $305 $543 forward @7 unknown #
point $-1 -1 $-1 -0.072169999999999845 0.50005000000000033 -0.125 #
edge $-1 -1 $-1 $529 -0.10825271934035761 $434 0.036085456136541023 $411 $544 forward @7 unknown #
vertex $-1 -1 $-1 $540 $545 #
straight-curve $-1 -1 $-1 -0.090212043860575852 0.59375000000000022 -0.093750790043342122 0.50000632030679104 0 -0.8660217547228608 I I #
face $-1 -1 $-1 $-1 $426 $25 $-1 $546 reversed single #
plane-surface $-1 -1 $-1 -3.8899895203321101e-018 0.59375000000000033 0 -7.0853381547563243e-032 1 -1.8894871981341596e-031 0 1.8894871981341596e-031 1 forward_v I I I I #
face $-1 -1 $-1 $547 $548 $27 $-1 $549 reversed single #
loop $-1 -1 $-1 $-1 $333 $315 #
plane-surface $-1 -1 $-1 -0.1875 0 0 1 0 0 0 0 -1 forward_v I I I I #
coedge $-1 -1 $-1 $550 $318 $551 $552 reversed $198 $-1 #
coedge $-1 -1 $-1 $318 $550 $553 $554 reversed $198 $-1 #
coedge $-1 -1 $-1 $555 $556 $557 $321 forward $558 $-1 #
coedge $-1 -1 $-1 $559 $560 $319 $445 forward $561 $-1 #
edge $-1 -1 $-1 $334 1.2246063538223773e-016 $449 1.5707963267948968 $444 $330 forward @7 unknown #
coedge $-1 -1 $-1 $562 $563 $320 $447 forward $564 $-1 #
edge $-1 -1 $-1 $448 -1.5707963267948968 $212 -1.2246063538223773e-016 $446 $214 forward @7 unknown #
vertex $-1 -1 $-1 $565 $566 #
vertex $-1 -1 $-1 $567 $568 #
straight-curve $-1 -1 $-1 0 0.59375 -0.1875 0 1 0 I I #
coedge $-1 -1 $-1 $569 $487 $322 $452 forward $570 $-1 #
edge $-1 -1 $-1 $213 1.5707963267948966 $457 3.1415926535897931 $451 $214 forward @7 unknown #
coedge $-1 -1 $-1 $571 $323 $326 $461 reversed $456 $-1 #
coedge $-1 -1 $-1 $323 $571 $569 $572 forward $456 $-1 #
coedge $-1 -1 $-1 $573 $574 $550 $324 reversed $548 $-1 #
loop $-1 -1 $-1 $-1 $323 $575 #
vertex $-1 -1 $-1 $576 $577 #
straight-curve $-1 -1 $-1 0.1875 0.59375 0 0 1 0 I I #
coedge $-1 -1 $-1 $338 $578 $325 $460 forward $316 $-1 #
edge $-1 -1 $-1 $579 -0.1875 $329 0 $325 $580 forward @7 unknown #
edge $-1 -1 $-1 $579 -0.1875 $328 0 $453 $581 forward @7 unknown #
face $-1 -1 $-1 $582 $327 $27 $-1 $583 reversed single #
edge $-1 -1 $-1 $328 0 $584 0.1875 $574 $581 forward @7 unknown #
point $-1 -1 $-1 0.1875 0.59374999999999989 0 #
edge $-1 -1 $-1 $329 0 $585 0.1875 $468 $580 forward @7 unknown #
point $-1 -1 $-1 0 0.59374999999999989 0.1875 #
coedge $-1 -1 $-1 $468 $331 $586 $587 reversed $469 $-1 #
coedge $-1 -1 $-1 $331 $467 $336 $465 reversed $469 $-1 #
loop $-1 -1 $-1 $-1 $331 $582 #
coedge $-1 -1 $-1 $588 $333 $560 $473 forward $439 $-1 #
coedge $-1 -1 $-1 $333 $588 $562 $345 reversed $439 $-1 #
coedge $-1 -1 $-1 $342 $586 $119 $206 reversed $481 $-1 #
edge $-1 -1 $-1 $334 0 $589 0.1875 $560 $590 forward @7 unknown #
point $-1 -1 $-1 -0.1875 0.59374999999999989 0 #
coedge $-1 -1 $-1 $337 $336 $480 $591 forward $339 $-1 #
coedge $-1 -1 $-1 $578 $338 $487 $347 forward $316 $-1 #
face $-1 -1 $-1 $592 $339 $27 $-1 $317 forward single #
vertex $-1 -1 $-1 $591 $593 #
straight-curve $-1 -1 $-1 0 -0.59374999999999989 0.1875 1 0 0 I I #
coedge $-1 -1 $-1 $586 $342 $475 $591 reversed $481 $-1 #
loop $-1 -1 $-1 $-1 $472 $594 #
straight-curve $-1 -1 $-1 -0.1875 -0.59374999999999989 0 0 0 -1 I I #
face $-1 -1 $-1 $595 $570 $27 $-1 $484 reversed single #
plane-surface $-1 -1 $-1 0 -0.59374999999999989 0 0 1 0 0 0 1 forward_v I I I I #
vertex $-1 -1 $-1 $596 $597 #
vertex $-1 -1 $-1 $598 $599 #
coedge $-1 -1 $-1 $451 $569 $476 $347 reversed $570 $-1 #
convexity-sys-attrib $-1 -1 $-1 $-1 $351 #
vertex $-1 -1 $-1 $351 $600 #
ellipse-curve $-1 -1 $-1 0 0.40625 0 0 1 0 -0.1875 0 2.2961369134169574e-017 1 I I #
point $-1 -1 $-1 0.1875 -0.59374999999999978 -4.5922738268339147e-017 #
point $-1 -1 $-1 0.094999999999999751 0.40625 0 #
model_id-kcp-attrib $-1 -1 $-1 $-1 $359 1 1021323843 1021323844 2031943681 9 #
face $601 -1 $-1 $157 $602 $9 $-1 $603 forward single #
loop $-1 -1 $-1 $604 $605 $359 #
plane-surface $-1 -1 $-1 5.1731700000000007 2.6250000000000004 5.7240300000000008 0 -1 0 -0.99999999999999989 0 0 forward_v I I I I #
edge $606 -1 $-1 $499 0 $369 0.14433817547689864 $361 $607 forward @7 unknown #
coedge $-1 -1 $-1 $379 $362 $376 $507 reversed $227 $-1 #
vertex $-1 -1 $-1 $363 $608 #
straight-curve $-1 -1 $-1 5.2453400000000006 2.9125100000000006 5.8490300000000008 0 -0.99999999999999989 0 I I #
convexity-sys-attrib $-1 -1 $-1 $364 $231 #
point $-1 -1 $-1 5.2453400000000006 2.8125000000000004 5.8490300000000008 #
attrib_edge_convexity-kcp-attrib $-1 -1 $609 $-1 $368 2 #
straight-curve $-1 -1 $-1 5.3175100000000004 2.7188000000000008 5.7240300000000008 -0.50000632030679082 0 -0.86602175472286058 I I #
point $-1 -1 $-1 5.3175100000000004 2.7188000000000008 5.7240300000000008 #
convexity-sys-attrib $-1 -1 $-1 $373 $238 #
edge $610 -1 $-1 $382 0 $499 0.14433999999999972 $498 $611 forward @7 unknown #
straight-curve $-1 -1 $-1 5.1010000000000009 2.9125100000000006 5.8490300000000008 0 -0.99999999999999989 0 I I #
convexity-sys-attrib $-1 -1 $-1 $381 $248 #
point $-1 -1 $-1 5.1010000000000009 2.7188000000000008 5.8490300000000008 #
convexity-sys-attrib $-1 -1 $-1 $384 $252 #
loop $-1 -1 $-1 $-1 $388 $494 #
attrib_edge_convexity-kcp-attrib $-1 -1 $612 $-1 $389 1 #
vertex $-1 -1 $-1 $389 $613 #
ellipse-curve $-1 -1 $-1 5.1731700000000007 2.8125000000000004 5.7240300000000008 0 1 0 0.1875 0 0 1 I I #
model_id-kcp-attrib $-1 -1 $-1 $-1 $391 1 1021323843 1021323844 2031943681 13 #
loop $-1 -1 $-1 $-1 $614 $391 #
plane-surface $-1 -1 $-1 5.1731700000000007 1.6250000000000007 5.7240300000000008 0 -1 0 -0.99999999999999989 0 0 forward_v I I I I #
loop $-1 -1 $-1 $-1 $615 $258 #
coedge $-1 -1 $-1 $520 $520 $614 $616 reversed $392 $-1 #
straight-curve $-1 -1 $-1 -0.1875 0.59374999999999989 0 0 0 -1 I I #
point $-1 -1 $-1 -0.1875 -0.59374999999999989 -0.1875 #
straight-curve $-1 -1 $-1 -0.1875 0 -0.1875 0 1 0 I I #
point $-1 -1 $-1 -0.1875 0.59374999999999989 -0.1875 #
coedge $-1 -1 $-1 $617 $411 $430 $540 reversed $289 $-1 #
coedge $-1 -1 $-1 $411 $617 $412 $528 forward $289 $-1 #
coedge $-1 -1 $-1 $413 $412 $618 $619 reversed $181 $-1 #
edge $-1 -1 $-1 $620 0 $529 0.093699999999999672 $526 $621 forward @7 unknown #
vertex $-1 -1 $-1 $528 $622 #
straight-curve $-1 -1 $-1 -0.036084999999999923 0.59375000000000022 0.125 -1 0 0 I I #
coedge $-1 -1 $-1 $618 $420 $416 $532 forward $426 $-1 #
edge $623 -1 $-1 $422 -0.10825454387499035 $533 0.036083631601908292 $416 $624 forward @7 unknown #
vertex $-1 -1 $-1 $532 $625 #
straight-curve $-1 -1 $-1 0.072169999999999845 0.50005000000000033 0.125 0 1 0 I I #
point $-1 -1 $-1 0.072169999999999845 0.59375 0.125 #
convexity-sys-attrib $-1 -1 $-1 $-1 $421 #
straight-curve $-1 -1 $-1 0.12629704386057572 0.50005000000000055 -0.031250790043342087 0.50000632030679104 0 0.8660217547228608 I I #
point $-1 -1 $-1 0.14433999999999969 0.50005000000000033 0 #
coedge $-1 -1 $-1 $425 $618 $617 $626 forward $426 $-1 #
edge $-1 -1 $-1 $542 0 $434 0.093699999999999672 $430 $627 forward @7 unknown #
convexity-sys-attrib $-1 -1 $-1 $-1 $431 #
vertex $-1 -1 $-1 $431 $628 #
straight-curve $-1 -1 $-1 -0.090212043860575852 0.50005000000000055 -0.093750790043342122 0.50000632030679104 0 -0.8660217547228608 I I #
straight-curve $-1 -1 $-1 -0.12629704386057572 0.59375000000000022 0.031250790043342087 -0.50000632030679104 0 -0.8660217547228608 I I #
point $-1 -1 $-1 -0.14433999999999969 0.59375 0 #
plane-surface $-1 -1 $-1 -3.8899895203321101e-018 0.50005000000000066 0 -7.0853381547563243e-032 1 -1.8894871981341596e-031 0 1.8894871981341596e-031 1 forward_v I I I I #
face $-1 -1 $-1 $462 $629 $27 $-1 $583 reversed single #
loop $-1 -1 $-1 $-1 $455 $438 #
plane-surface $-1 -1 $-1 0.1875 0 0 -1 0 0 0 0 1 forward_v I I I I #
coedge $-1 -1 $-1 $442 $441 $200 $324 forward $198 $-1 #
coedge $-1 -1 $-1 $630 $631 $441 $552 forward $632 $-1 #
edge $-1 -1 $-1 $457 -3.1415926535897931 $448 -1.5707963267948968 $551 $214 forward @7 unknown #
coedge $-1 -1 $-1 $633 $634 $442 $554 forward $629 $-1 #
edge $-1 -1 $-1 $449 1.5707963267948968 $328 3.1415926535897931 $553 $330 forward @7 unknown #
coedge $-1 -1 $-1 $635 $443 $634 $567 forward $558 $-1 #
coedge $-1 -1 $-1 $443 $635 $630 $636 forward $558 $-1 #
coedge $-1 -1 $-1 $637 $638 $199 $321 reversed $639 $-1 #
loop $-1 -1 $-1 $-1 $443 $592 #
coedge $-1 -1 $-1 $560 $444 $638 $640 reversed $561 $-1 #
coedge $-1 -1 $-1 $444 $559 $470 $473 reversed $561 $-1 #
loop $-1 -1 $-1 $-1 $444 $641 #
coedge $-1 -1 $-1 $563 $446 $471 $345 forward $564 $-1 #
coedge $-1 -1 $-1 $446 $562 $637 $565 reversed $564 $-1 #
loop $-1 -1 $-1 $-1 $446 $642 #
edge $-1 -1 $-1 $448 0 $485 0.1875 $563 $643 forward @7 unknown #
point $-1 -1 $-1 0 -0.59375 -0.1875 #
edge $-1 -1 $-1 $449 0 $584 0.1875 $634 $644 forward @7 unknown #
point $-1 -1 $-1 0 0.59374999999999989 -0.1875 #
coedge $-1 -1 $-1 $487 $451 $454 $572 reversed $570 $-1 #
loop $-1 -1 $-1 $-1 $451 $483 #
coedge $-1 -1 $-1 $454 $453 $578 $598 reversed $456 $-1 #
edge $-1 -1 $-1 $486 -0.1875 $457 0 $454 $645 forward @7 unknown #
coedge $-1 -1 $-1 $646 $455 $631 $576 forward $548 $-1 #
coedge $-1 -1 $-1 $455 $646 $633 $463 reversed $548 $-1 #
face $-1 -1 $-1 $-1 $456 $27 $-1 $549 reversed single #
edge $-1 -1 $-1 $457 0 $647 0.1875 $573 $645 forward @7 unknown #
point $-1 -1 $-1 0.1875 -0.59375 0 #
coedge $-1 -1 $-1 $459 $476 $571 $598 forward $316 $-1 #
vertex $-1 -1 $-1 $598 $648 #
straight-curve $-1 -1 $-1 0 0.59374999999999989 0.1875 -1 0 0 I I #
straight-curve $-1 -1 $-1 0.1875 0.59374999999999989 0 0 0 -1 I I #
face $-1 -1 $-1 $641 $469 $27 $-1 $583 reversed single #
plane-surface $-1 -1 $-1 0 0.59374999999999989 0 0 -1 0 0 0 -1 forward_v I I I I #
vertex $-1 -1 $-1 $649 $650 #
vertex $-1 -1 $-1 $465 $651 #
coedge $-1 -1 $-1 $472 $480 $467 $587 forward $481 $-1 #
edge $-1 -1 $-1 $585 -0.1875 $334 0 $467 $590 forward @7 unknown #
coedge $-1 -1 $-1 $471 $470 $652 $596 reversed $439 $-1 #
vertex $-1 -1 $-1 $640 $653 #
straight-curve $-1 -1 $-1 -0.1875 0.59374999999999989 0 0 0 -1 I I #
edge $-1 -1 $-1 $585 -0.59374999999999989 $478 0.59374999999999989 $480 $654 forward @7 unknown #
face $-1 -1 $-1 $594 $558 $27 $-1 $655 reversed single #
point $-1 -1 $-1 -0.1875 -0.59374999999999989 0.1875 #
face $-1 -1 $-1 $575 $481 $27 $-1 $440 reversed single #
face $-1 -1 $-1 $656 $632 $27 $-1 $484 reversed single #
edge $-1 -1 $-1 $485 -0.59374999999999989 $589 0.59374999999999989 $588 $657 forward @7 unknown #
point $-1 -1 $-1 -0.1875 -0.59374999999999989 -0.1875 #
edge $-1 -1 $-1 $486 -0.59374999999999989 $579 0.59374999999999989 $571 $658 forward @7 unknown #
point $-1 -1 $-1 0.1875 -0.59374999999999989 0.1875 #
point $-1 -1 $-1 0.1875 0.40625 -4.5922738268339147e-017 #
model_id-kcp-attrib $-1 -1 $-1 $-1 $494 1 1021323843 1021323844 2031943681 10 #
loop $-1 -1 $-1 $512 $659 $494 #
cone-surface $-1 -1 $-1 5.1731700000000007 2.7187500000000004 5.7240300000000008 0 1 0 0.1875 0 0 1 I I 0 1 0.1875 forward I I I I #
loop $-1 -1 $-1 $-1 $660 $359 #
coedge $-1 -1 $-1 $605 $605 $659 $661 forward $495 $-1 #
attrib_edge_convexity-kcp-attrib $-1 -1 $662 $-1 $497 2 #
straight-curve $-1 -1 $-1 5.2453400000000006 2.7188000000000008 5.8490300000000008 0.50000632030679082 0 -0.86602175472286058 I I #
point $-1 -1 $-1 5.2453400000000006 2.7188000000000008 5.8490300000000008 #
convexity-sys-attrib $-1 -1 $-1 $503 $368 #
attrib_edge_convexity-kcp-attrib $-1 -1 $663 $-1 $507 2 #
straight-curve $-1 -1 $-1 5.1010000000000009 2.7188000000000008 5.8490300000000008 0.99999999999999989 0 0 I I #
convexity-sys-attrib $-1 -1 $-1 $513 $389 #
point $-1 -1 $-1 5.3606700000000007 2.8125000000000004 5.7240300000000008 #
coedge $-1 -1 $-1 $614 $614 $520 $616 forward $517 $-1 #
coedge $-1 -1 $-1 $615 $615 $660 $664 forward $519 $-1 #
edge $-1 -1 $-1 $665 0 $665 6.2831853071795862 $614 $666 forward @7 unknown #
coedge $-1 -1 $-1 $526 $525 $539 $626 reversed $289 $-1 #
coedge $-1 -1 $-1 $539 $531 $527 $619 forward $426 $-1 #
edge $667 -1 $-1 $533 -0.10825499999999977 $620 0.036084999999999923 $527 $668 forward @7 unknown #
vertex $-1 -1 $-1 $619 $669 #
straight-curve $-1 -1 $-1 -0.072169999999999845 0.50005000000000033 0.125 0 1 0 I I #
point $-1 -1 $-1 -0.072169999999999845 0.59375 0.125 #
convexity-sys-attrib $-1 -1 $-1 $-1 $532 #
straight-curve $-1 -1 $-1 0.090212043860575852 0.50005000000000055 0.093750790043342122 -0.50000632030679104 0 0.8660217547228608 I I #
point $-1 -1 $-1 0.072169999999999845 0.50005000000000033 0.125 #
edge $670 -1 $-1 $620 -0.10825271934035761 $542 0.036085456136541023 $617 $671 forward @7 unknown #
straight-curve $-1 -1 $-1 -0.14433999999999969 0.50005000000000033 0 0 1 0 I I #
point $-1 -1 $-1 -0.14433999999999969 0.50005000000000033 0 #
loop $-1 -1 $-1 $-1 $553 $547 #
coedge $-1 -1 $-1 $631 $551 $556 $636 reversed $632 $-1 #
coedge $-1 -1 $-1 $551 $630 $573 $576 reversed $632 $-1 #
loop $-1 -1 $-1 $-1 $551 $595 #
coedge $-1 -1 $-1 $634 $553 $574 $463 forward $629 $-1 #
coedge $-1 -1 $-1 $553 $633 $555 $567 reversed $629 $-1 #
coedge $-1 -1 $-1 $556 $555 $646 $649 forward $558 $-1 #
edge $-1 -1 $-1 $647 -0.1875 $448 0 $630 $643 forward @7 unknown #
coedge $-1 -1 $-1 $652 $557 $563 $565 forward $639 $-1 #
coedge $-1 -1 $-1 $557 $652 $559 $640 forward $639 $-1 #
loop $-1 -1 $-1 $-1 $557 $656 #
edge $-1 -1 $-1 $589 -0.1875 $449 0 $559 $644 forward @7 unknown #
face $-1 -1 $-1 $642 $561 $27 $-1 $583 reversed single #
face $-1 -1 $-1 $344 $564 $27 $-1 $484 reversed single #
straight-curve $-1 -1 $-1 0 -0.59374999999999989 -0.1875 -1 0 0 I I #
straight-curve $-1 -1 $-1 0 0.59374999999999989 -0.1875 1 0 0 I I #
straight-curve $-1 -1 $-1 0.1875 -0.59374999999999989 0 0 0 -1 I I #
coedge $-1 -1 $-1 $574 $573 $635 $649 reversed $548 $-1 #
vertex $-1 -1 $-1 $576 $672 #
point $-1 -1 $-1 0.1875 0.59374999999999989 0.1875 #
edge $-1 -1 $-1 $584 -0.59374999999999989 $647 0.59374999999999989 $646 $673 forward @7 unknown #
point $-1 -1 $-1 0.1875 0.59374999999999989 -0.1875 #
point $-1 -1 $-1 -0.1875 0.59374999999999989 0.1875 #
coedge $-1 -1 $-1 $638 $637 $588 $596 forward $639 $-1 #
point $-1 -1 $-1 -0.1875 0.59374999999999989 -0.1875 #
straight-curve $-1 -1 $-1 -0.1875 0 0.1875 0 -1 0 I I #
plane-surface $-1 -1 $-1 0 0 -0.1875 0 0 1 1 0 0 forward_v I I I I #
face $-1 -1 $-1 $477 $639 $27 $-1 $655 reversed single #
straight-curve $-1 -1 $-1 -0.1875 0 -0.1875 0 1 0 I I #
straight-curve $-1 -1 $-1 0.1875 0 0.1875 0 1 0 I I #
coedge $-1 -1 $-1 $659 $659 $605 $661 reversed $602 $-1 #
coedge $-1 -1 $-1 $660 $660 $615 $664 reversed $604 $-1 #
edge $674 -1 $-1 $675 0 $675 6.2831853071795862 $605 $676 forward @7 unknown #
convexity-sys-attrib $-1 -1 $-1 $606 $497 #
convexity-sys-attrib $-1 -1 $-1 $610 $507 #
edge $677 -1 $-1 $678 -6.2831853071795862 $678 0 $615 $679 reversed @7 unknown #
vertex $-1 -1 $-1 $616 $680 #
ellipse-curve $-1 -1 $-1 5.1731700000000007 1.6250000000000007 5.7240300000000008 0 -1 0 0.094999999999999987 0 0 1 I I #
convexity-sys-attrib $-1 -1 $-1 $-1 $619 #
straight-curve $-1 -1 $-1 -0.036084999999999923 0.50005000000000055 0.125 -1 0 0 I I #
point $-1 -1 $-1 -0.072169999999999845 0.50005000000000033 0.125 #
convexity-sys-attrib $-1 -1 $-1 $-1 $626 #
straight-curve $-1 -1 $-1 -0.12629704386057572 0.50005000000000055 0.031250790043342087 -0.50000632030679104 0 -0.8660217547228608 I I #
point $-1 -1 $-1 0.1875 -0.59374999999999989 -0.1875 #
straight-curve $-1 -1 $-1 0.1875 0 -0.1875 0 -1 0 I I #
attrib_edge_convexity-kcp-attrib $-1 -1 $681 $-1 $661 1 #
vertex $-1 -1 $-1 $661 $682 #
ellipse-curve $-1 -1 $-1 5.1731700000000007 2.6250000000000004 5.7240300000000008 0 -1 0 0.1875 0 0 1 I I #
attrib_edge_convexity-kcp-attrib $-1 -1 $683 $-1 $664 2 #
vertex $-1 -1 $-1 $664 $684 #
ellipse-curve $-1 -1 $-1 5.1731700000000007 2.6250000000000004 5.7240300000000008 0 1 0 0.094999999999999987 0 0 1 I I #
point $-1 -1 $-1 5.2681700000000005 1.6250000000000007 5.7240300000000008 #
convexity-sys-attrib $-1 -1 $-1 $674 $661 #
point $-1 -1 $-1 5.3606700000000007 2.6250000000000004 5.7240300000000008 #
convexity-sys-attrib $-1 -1 $-1 $677 $664 #
point $-1 -1 $-1 5.2681700000000005 2.6250000000000004 5.7240300000000008 #
End-of-ACIS-data 