700 0 2 0           
24 FBMach with ACIS - 7.0.3 13 ACIS 7.0.3 NT 24 Mon May 13 17:02:58 2002 
1 9.9999999999999995e-007 1e-010 
body $2 -1 $-1 $3 $-1 $4 #
bdycol-kcp $-1 -1 1 3 $5 $6 $7 #
model_id-kcp-attrib $-1 -1 $-1 $-1 $0 1 1021323778 1021323778 1424621569 1 #
lump $-1 -1 $-1 $-1 $8 $0 #
transform $-1 -1 1 0 0 0 1 0 0 0 1 0 0 0 1 rotate no_reflect no_shear #
body $9 -1 $-1 $10 $-1 $11 #
body $12 -1 $-1 $13 $-1 $14 #
body $15 -1 $-1 $16 $-1 $17 #
shell $-1 -1 $-1 $-1 $-1 $18 $-1 $3 #
rgb_color-st-attrib $-1 -1 $19 $-1 $5 0 0 1 #
lump $-1 -1 $-1 $-1 $20 $5 #
transform $-1 -1 1 0 0 0 1 0 0 0 1 0.35352000000000006 2.8688800000000003 1.47855 1 no_rotate no_reflect no_shear #
rgb_color-st-attrib $-1 -1 $21 $-1 $6 1 0.5 1 #
lump $-1 -1 $-1 $-1 $22 $6 #
transform $-1 -1 1 0 0 0 1 0 0 0 1 0.35352000000000006 2.8688800000000003 1.47855 1 no_rotate no_reflect no_shear #
model_id-kcp-attrib $-1 -1 $-1 $-1 $7 1 1021323778 1021323778 1424621570 1 #
lump $-1 -1 $-1 $-1 $23 $7 #
transform $-1 -1 1 0 0 0 1 0 0 0 1 0.35352000000000006 2.8688800000000003 1.47855 1 no_rotate no_reflect no_shear #
face $24 -1 $-1 $25 $26 $8 $-1 $27 reversed single #
model_id-kcp-attrib $-1 -1 $-1 $9 $5 1 1021323778 1021323778 1415380995 1 #
shell $-1 -1 $-1 $-1 $-1 $28 $-1 $10 #
model_id-kcp-attrib $-1 -1 $-1 $12 $6 1 1021323778 1021323778 1422589956 1 #
shell $-1 -1 $-1 $-1 $-1 $29 $-1 $13 #
shell $-1 -1 $-1 $-1 $-1 $30 $-1 $16 #
model_id-kcp-attrib $-1 -1 $-1 $-1 $18 1 1021323778 1021323778 1424621569 2 #
face $31 -1 $-1 $32 $33 $8 $-1 $34 reversed single #
loop $-1 -1 $-1 $-1 $35 $18 #
plane-surface $-1 -1 $-1 0.33012000000000008 3.13504 1.5722499999999999 0 0 1 -0.99999999999999944 0 0 forward_v I I I I #
face $-1 -1 $-1 $36 $37 $20 $-1 $38 forward single #
face $-1 -1 $-1 $39 $40 $22 $-1 $41 forward single #
face $-1 -1 $-1 $42 $43 $23 $-1 $44 forward single #
model_id-kcp-attrib $-1 -1 $-1 $-1 $25 1 1021323778 1021323778 1424621569 3 #
face $45 -1 $-1 $46 $47 $8 $-1 $48 reversed single #
loop $-1 -1 $-1 $-1 $49 $25 #
plane-surface $-1 -1 $-1 0.33012000000000008 3.13504 1.5019500000000001 -1 0 0 0 0 -0.99999999999999944 forward_v I I I I #
coedge $-1 -1 $-1 $50 $51 $52 $53 reversed $26 $-1 #
face $-1 -1 $-1 $54 $55 $20 $-1 $56 forward single #
loop $-1 -1 $-1 $-1 $57 $28 #
plane-surface $-1 -1 $-1 -0.023399999999999976 0.22615000000000007 0.093699999999999894 -1 0 0 0 0 1 forward_v I I I I #
face $-1 -1 $-1 $58 $59 $22 $-1 $60 forward single #
loop $-1 -1 $-1 $61 $62 $29 #
cone-surface $-1 -1 $-1 0 0.18135000000000012 0 0 -1 0 0 0 -0.067999999999999949 1 I I 0 -1 0.067999999999999949 forward I I I I #
face $-1 -1 $-1 $63 $64 $23 $-1 $65 reversed single #
loop $-1 -1 $-1 $-1 $66 $30 #
plane-surface $-1 -1 $-1 0 0 0.1399999999999999 0 0 1 1 0 0 forward_v I I I I #
model_id-kcp-attrib $-1 -1 $-1 $-1 $32 1 1021323778 1021323778 1424621569 4 #
face $67 -1 $-1 $68 $69 $8 $-1 $70 reversed single #
loop $-1 -1 $-1 $-1 $71 $32 #
plane-surface $-1 -1 $-1 0.25982000000000011 3.13504 1.5019500000000001 0 0 1 -0.99999999999999944 0 0 forward_v I I I I #
coedge $-1 -1 $-1 $72 $73 $74 $75 reversed $33 $-1 #
coedge $-1 -1 $-1 $76 $35 $77 $78 forward $26 $-1 #
coedge $-1 -1 $-1 $35 $76 $72 $79 reversed $26 $-1 #
coedge $-1 -1 $-1 $74 $80 $35 $53 forward $81 $-1 #
edge $-1 -1 $-1 $82 -0.035099999999999985 $83 0.011699999999999995 $52 $84 forward @7 unknown #
face $-1 -1 $-1 $85 $86 $20 $-1 $87 forward single #
loop $-1 -1 $-1 $-1 $88 $36 #
plane-surface $-1 -1 $-1 -0.023399999999999976 0.22615000000000007 0.023400000000000087 0 0 1 1 0 0 forward_v I I I I #
coedge $-1 -1 $-1 $89 $90 $91 $92 forward $37 $-1 #
face $-1 -1 $-1 $93 $94 $22 $-1 $95 reversed single #
loop $-1 -1 $-1 $96 $97 $39 #
cone-surface $-1 -1 $-1 0 0.18135000000000012 0 0 -1 0 0 0 -0.13999999999999987 1 I I 0 1 0.13999999999999987 forward I I I I #
loop $-1 -1 $-1 $-1 $98 $29 #
coedge $-1 -1 $-1 $62 $62 $99 $100 forward $40 $-1 #
face $101 -1 $-1 $102 $103 $23 $-1 $104 reversed single #
loop $-1 -1 $-1 $-1 $105 $42 #
plane-surface $-1 -1 $-1 0 0 -0.1399999999999999 0 0 1 1 0 0 forward_v I I I I #
coedge $-1 -1 $-1 $106 $107 $108 $109 forward $43 $-1 #
model_id-kcp-attrib $-1 -1 $-1 $-1 $46 1 1021323778 1021323778 1424621569 5 #
face $110 -1 $-1 $111 $112 $8 $-1 $113 reversed single #
loop $-1 -1 $-1 $-1 $114 $46 #
plane-surface $-1 -1 $-1 0.25982000000000011 3.13504 1.4551499999999999 -1 0 0 0 0 -0.99999999999999944 forward_v I I I I #
coedge $-1 -1 $-1 $115 $116 $117 $118 reversed $47 $-1 #
coedge $-1 -1 $-1 $119 $49 $51 $79 forward $33 $-1 #
coedge $-1 -1 $-1 $49 $119 $115 $120 reversed $33 $-1 #
coedge $-1 -1 $-1 $117 $52 $49 $75 forward $81 $-1 #
edge $-1 -1 $-1 $83 -0.081999999999999892 $121 -0.011700000000000051 $74 $122 forward @7 unknown #
coedge $-1 -1 $-1 $51 $50 $123 $124 reversed $26 $-1 #
coedge $-1 -1 $-1 $125 $126 $50 $78 reversed $127 $-1 #
edge $-1 -1 $-1 $82 0.010009999999999858 $128 0.040009999999999678 $77 $129 forward @7 unknown #
edge $-1 -1 $-1 $83 0.010009999999999858 $130 0.040009999999999678 $51 $131 forward @7 unknown #
coedge $-1 -1 $-1 $52 $132 $125 $133 forward $81 $-1 #
loop $-1 -1 $-1 $134 $135 $136 #
vertex $-1 -1 $-1 $53 $137 #
vertex $-1 -1 $-1 $75 $138 #
straight-curve $-1 -1 $-1 0.34182000000000007 3.1250300000000002 1.5722499999999999 -0.99999999999999944 0 0 I I #
face $-1 -1 $-1 $139 $140 $20 $-1 $141 forward single #
loop $-1 -1 $-1 $-1 $142 $54 #
plane-surface $-1 -1 $-1 -0.09369999999999995 0.22615000000000007 0.023400000000000087 -1 0 0 0 0 1 forward_v I I I I #
coedge $-1 -1 $-1 $143 $144 $145 $146 forward $55 $-1 #
coedge $-1 -1 $-1 $147 $57 $144 $148 reversed $37 $-1 #
coedge $-1 -1 $-1 $57 $147 $149 $150 forward $37 $-1 #
coedge $-1 -1 $-1 $151 $145 $57 $92 reversed $152 $-1 #
edge $-1 -1 $-1 $153 -0.081999999999999851 $154 -0.011700000000000044 $57 $155 forward @7 unknown #
face $-1 -1 $-1 $-1 $156 $22 $-1 $157 forward single #
loop $-1 -1 $-1 $158 $159 $58 #
plane-surface $-1 -1 $-1 7.9723849838705819e-019 -0.25614999999999988 0.0065454545454545366 0 1 0 0 0 1 forward_v I I I I #
loop $-1 -1 $-1 $-1 $160 $39 #
coedge $-1 -1 $-1 $97 $97 $159 $161 forward $59 $-1 #
coedge $-1 -1 $-1 $98 $98 $162 $163 reversed $61 $-1 #
coedge $-1 -1 $-1 $99 $99 $62 $100 reversed $158 $-1 #
edge $-1 -1 $-1 $164 0 $164 6.2831853071795862 $62 $165 forward @7 unknown #
model_id-kcp-attrib $-1 -1 $-1 $-1 $63 1 1021323778 1021323778 1424621570 2 #
face $-1 -1 $-1 $166 $167 $23 $-1 $168 reversed single #
loop $-1 -1 $-1 $-1 $169 $63 #
plane-surface $-1 -1 $-1 0 -0.25614999999999988 0 0 1 0 0 0 1 forward_v I I I I #
coedge $-1 -1 $-1 $170 $171 $172 $173 forward $64 $-1 #
coedge $-1 -1 $-1 $174 $66 $175 $176 forward $43 $-1 #
coedge $-1 -1 $-1 $66 $174 $177 $178 forward $43 $-1 #
coedge $-1 -1 $-1 $179 $180 $66 $109 reversed $181 $-1 #
edge $-1 -1 $-1 $182 -0.25614999999999988 $183 0.25614999999999988 $108 $184 forward @7 unknown #
model_id-kcp-attrib $-1 -1 $-1 $-1 $68 1 1021323778 1021323778 1424621569 6 #
face $185 -1 $-1 $186 $187 $8 $-1 $188 reversed single #
loop $-1 -1 $-1 $-1 $189 $68 #
plane-surface $-1 -1 $-1 0.33012000000000008 3.13504 1.4551499999999999 0 0 -1 0.99999999999999944 0 0 forward_v I I I I #
coedge $-1 -1 $-1 $190 $191 $192 $193 reversed $69 $-1 #
coedge $-1 -1 $-1 $194 $71 $73 $120 forward $47 $-1 #
coedge $-1 -1 $-1 $71 $194 $190 $195 reversed $47 $-1 #
coedge $-1 -1 $-1 $192 $74 $71 $118 forward $81 $-1 #
edge $-1 -1 $-1 $121 -0.023449999999999985 $196 0.046850000000000031 $117 $197 forward @7 unknown #
coedge $-1 -1 $-1 $73 $72 $198 $199 reversed $33 $-1 #
edge $-1 -1 $-1 $121 0.010009999999999858 $200 0.040009999999999678 $73 $201 forward @7 unknown #
vertex $-1 -1 $-1 $118 $202 #
straight-curve $-1 -1 $-1 0.33012000000000008 3.1250300000000002 1.4902500000000001 0 0 -0.99999999999999944 I I #
coedge $-1 -1 $-1 $203 $198 $76 $124 forward $204 $-1 #
edge $205 -1 $-1 $130 -0.046799999999999994 $128 0 $76 $206 forward @7 unknown #
coedge $-1 -1 $-1 $207 $77 $80 $133 reversed $127 $-1 #
coedge $-1 -1 $-1 $77 $207 $203 $208 reversed $127 $-1 #
loop $-1 -1 $-1 $-1 $125 $209 #
vertex $-1 -1 $-1 $78 $210 #
straight-curve $-1 -1 $-1 0.37692000000000003 3.13504 1.5722499999999999 0 -0.99999999999999944 0 I I #
vertex $-1 -1 $-1 $79 $211 #
straight-curve $-1 -1 $-1 0.33012000000000008 3.13504 1.5722499999999999 0 -0.99999999999999944 0 I I #
coedge $-1 -1 $-1 $80 $212 $213 $214 forward $81 $-1 #
edge $-1 -1 $-1 $215 -0.023449999999999985 $82 0.046849999999999864 $80 $216 forward @7 unknown #
loop $-1 -1 $-1 $-1 $217 $136 #
coedge $-1 -1 $-1 $218 $219 $220 $221 forward $81 $-1 #
face $222 -1 $-1 $223 $81 $8 $-1 $224 forward single #
point $-1 -1 $-1 0.37692000000000003 3.1250300000000002 1.5722499999999999 #
point $-1 -1 $-1 0.33012000000000008 3.1250300000000002 1.5722499999999999 #
face $-1 -1 $-1 $225 $226 $20 $-1 $227 forward single #
loop $-1 -1 $-1 $-1 $228 $85 #
plane-surface $-1 -1 $-1 -0.09369999999999995 0.22615000000000007 -0.023400000000000087 0 0 -1 -1 0 0 forward_v I I I I #
coedge $-1 -1 $-1 $229 $230 $231 $232 forward $86 $-1 #
coedge $-1 -1 $-1 $233 $88 $230 $234 reversed $55 $-1 #
coedge $-1 -1 $-1 $88 $233 $89 $148 forward $55 $-1 #
coedge $-1 -1 $-1 $91 $231 $88 $146 reversed $152 $-1 #
edge $-1 -1 $-1 $154 -0.023449999999999999 $235 0.046849999999999975 $88 $236 forward @7 unknown #
coedge $-1 -1 $-1 $90 $89 $237 $238 reversed $37 $-1 #
edge $239 -1 $-1 $240 0 $154 0.029999999999999805 $144 $241 forward @7 unknown #
coedge $-1 -1 $-1 $242 $243 $90 $150 reversed $244 $-1 #
edge $-1 -1 $-1 $245 0 $153 0.029999999999999805 $90 $246 forward @7 unknown #
coedge $-1 -1 $-1 $247 $91 $243 $248 reversed $152 $-1 #
loop $-1 -1 $-1 $-1 $91 $249 #
vertex $-1 -1 $-1 $150 $250 #
vertex $-1 -1 $-1 $148 $251 #
straight-curve $-1 -1 $-1 -0.023399999999999976 0.25614999999999988 0.011700000000000044 0 0 -1 I I #
loop $-1 -1 $-1 $252 $253 $93 #
plane-surface $-1 -1 $-1 7.9723849838705819e-019 0.18135000000000012 0.0065454545454545366 0 1 0 0 0 1 forward_v I I I I #
loop $-1 -1 $-1 $-1 $99 $58 #
coedge $-1 -1 $-1 $159 $159 $97 $161 reversed $94 $-1 #
coedge $-1 -1 $-1 $160 $160 $253 $254 reversed $96 $-1 #
edge $-1 -1 $-1 $255 -3.1415926535897931 $255 3.1415926535897931 $97 $256 forward @7 unknown #
coedge $-1 -1 $-1 $162 $162 $98 $163 forward $252 $-1 #
edge $257 -1 $-1 $258 0 $258 6.2831853071795862 $98 $259 forward @7 unknown #
vertex $-1 -1 $-1 $100 $260 #
ellipse-curve $-1 -1 $-1 0 -0.25614999999999988 0 0 -1 0 0 0 -0.067999999999999949 1 I I #
face $261 -1 $-1 $262 $263 $23 $-1 $264 reversed single #
loop $-1 -1 $-1 $-1 $265 $102 #
plane-surface $-1 -1 $-1 -0.1399999999999999 0 0 1 0 0 0 0 -1 forward_v I I I I #
coedge $-1 -1 $-1 $266 $177 $267 $268 forward $103 $-1 #
coedge $-1 -1 $-1 $269 $105 $266 $270 forward $64 $-1 #
coedge $-1 -1 $-1 $105 $269 $271 $272 forward $64 $-1 #
coedge $-1 -1 $-1 $180 $179 $105 $173 reversed $181 $-1 #
edge $-1 -1 $-1 $273 -0.25614999999999988 $274 0.25614999999999988 $172 $275 forward @7 unknown #
coedge $-1 -1 $-1 $107 $106 $276 $277 forward $43 $-1 #
coedge $-1 -1 $-1 $278 $279 $106 $176 reversed $263 $-1 #
edge $-1 -1 $-1 $183 -0.1399999999999999 $280 0.1399999999999999 $175 $281 forward @7 unknown #
coedge $-1 -1 $-1 $169 $282 $107 $178 reversed $103 $-1 #
edge $-1 -1 $-1 $283 -0.1399999999999999 $182 0.1399999999999999 $177 $284 forward @7 unknown #
coedge $-1 -1 $-1 $172 $108 $282 $285 forward $181 $-1 #
coedge $-1 -1 $-1 $108 $172 $278 $286 reversed $181 $-1 #
loop $-1 -1 $-1 $-1 $179 $262 #
vertex $-1 -1 $-1 $109 $287 #
vertex $-1 -1 $-1 $109 $288 #
straight-curve $-1 -1 $-1 0.1399999999999999 0 0.1399999999999999 0 1 0 I I #
model_id-kcp-attrib $-1 -1 $-1 $-1 $111 1 1021323778 1021323778 1424621569 7 #
face $289 -1 $-1 $209 $290 $8 $-1 $291 reversed single #
loop $-1 -1 $-1 $-1 $292 $111 #
plane-surface $-1 -1 $-1 0.33012000000000008 3.13504 1.3848500000000001 -1 0 0 0 0 -0.99999999999999944 forward_v I I I I #
coedge $-1 -1 $-1 $293 $294 $295 $296 reversed $112 $-1 #
coedge $-1 -1 $-1 $297 $114 $116 $195 forward $69 $-1 #
coedge $-1 -1 $-1 $114 $297 $293 $298 reversed $69 $-1 #
coedge $-1 -1 $-1 $295 $117 $114 $193 forward $81 $-1 #
edge $-1 -1 $-1 $196 -0.035100000000000152 $299 0.011700000000000051 $192 $300 forward @7 unknown #
coedge $-1 -1 $-1 $116 $115 $301 $302 reversed $47 $-1 #
edge $-1 -1 $-1 $196 0.010009999999999858 $303 0.040009999999999678 $116 $304 forward @7 unknown #
vertex $-1 -1 $-1 $193 $305 #
straight-curve $-1 -1 $-1 0.30667000000000011 3.1250300000000002 1.5019500000000001 -0.99999999999999944 0 0 I I #
coedge $-1 -1 $-1 $123 $301 $119 $199 forward $204 $-1 #
edge $306 -1 $-1 $200 -0.070299999999999863 $130 0 $119 $307 forward @7 unknown #
vertex $-1 -1 $-1 $120 $308 #
straight-curve $-1 -1 $-1 0.33012000000000008 3.13504 1.5019500000000001 0 -0.99999999999999944 0 I I #
point $-1 -1 $-1 0.33012000000000008 3.1250300000000002 1.5019500000000001 #
coedge $-1 -1 $-1 $309 $123 $126 $208 forward $204 $-1 #
loop $-1 -1 $-1 $-1 $310 $311 #
attrib_edge_convexity-kcp-attrib $-1 -1 $312 $-1 $124 2 #
straight-curve $-1 -1 $-1 0.37692000000000003 3.0950300000000004 1.5722499999999999 0.99999999999999911 0 0 I I #
coedge $-1 -1 $-1 $126 $125 $313 $314 forward $127 $-1 #
edge $315 -1 $-1 $128 -0.070299999999999863 $316 0 $126 $317 forward @7 unknown #
face $318 -1 $-1 $319 $127 $8 $-1 $320 reversed single #
point $-1 -1 $-1 0.37692000000000003 3.0950300000000004 1.5722499999999999 #
point $-1 -1 $-1 0.33012000000000008 3.0950300000000004 1.5722499999999999 #
coedge $-1 -1 $-1 $132 $321 $322 $323 forward $81 $-1 #
coedge $-1 -1 $-1 $324 $313 $132 $214 reversed $325 $-1 #
edge $-1 -1 $-1 $326 -0.081999999999999948 $215 -0.011699999999999995 $132 $327 forward @7 unknown #
vertex $-1 -1 $-1 $133 $328 #
straight-curve $-1 -1 $-1 0.37692000000000003 3.1250300000000002 1.5254000000000001 0 0 0.99999999999999944 I I #
coedge $-1 -1 $-1 $217 $217 $329 $330 forward $134 $-1 #
coedge $-1 -1 $-1 $321 $135 $331 $332 forward $81 $-1 #
coedge $-1 -1 $-1 $135 $295 $292 $333 forward $81 $-1 #
coedge $-1 -1 $-1 $334 $335 $135 $221 reversed $290 $-1 #
edge $-1 -1 $-1 $336 -0.035099999999999985 $337 0.011699999999999995 $135 $338 forward @7 unknown #
model_id-kcp-attrib $-1 -1 $-1 $-1 $136 1 1021323778 1021323778 1424621569 18 #
face $339 -1 $-1 $-1 $340 $8 $-1 $341 forward single #
plane-surface $-1 -1 $-1 0.35352000000000006 3.1250300000000002 1.47855 0 1 0 0 0 0.99999999999999911 forward_v I I I I #
face $-1 -1 $-1 $342 $343 $20 $-1 $344 forward single #
loop $-1 -1 $-1 $-1 $345 $139 #
plane-surface $-1 -1 $-1 -0.023399999999999976 0.22615000000000007 -0.023400000000000087 -1 0 0 0 0 1 forward_v I I I I #
coedge $-1 -1 $-1 $346 $347 $348 $349 forward $140 $-1 #
coedge $-1 -1 $-1 $350 $142 $347 $351 reversed $86 $-1 #
coedge $-1 -1 $-1 $142 $350 $143 $234 forward $86 $-1 #
coedge $-1 -1 $-1 $145 $348 $142 $232 reversed $152 $-1 #
edge $-1 -1 $-1 $235 -0.035100000000000131 $352 0.011700000000000044 $142 $353 forward @7 unknown #
coedge $-1 -1 $-1 $144 $143 $354 $355 reversed $55 $-1 #
edge $-1 -1 $-1 $356 0 $235 0.029999999999999805 $230 $357 forward @7 unknown #
vertex $-1 -1 $-1 $234 $358 #
straight-curve $-1 -1 $-1 -0.046849999999999975 0.25614999999999988 0.023400000000000087 -1 0 0 I I #
coedge $-1 -1 $-1 $354 $359 $147 $238 forward $360 $-1 #
edge $361 -1 $-1 $245 -0.081999999999999851 $240 -0.011700000000000044 $147 $362 forward @7 unknown #
convexity-sys-attrib $-1 -1 $-1 $-1 $148 #
vertex $-1 -1 $-1 $238 $363 #
straight-curve $-1 -1 $-1 -0.023399999999999976 0.22615000000000007 0.023400000000000087 0 1 0 I I #
coedge $-1 -1 $-1 $364 $149 $359 $365 reversed $244 $-1 #
coedge $-1 -1 $-1 $149 $364 $151 $248 forward $244 $-1 #
loop $-1 -1 $-1 $-1 $243 $366 #
vertex $-1 -1 $-1 $365 $367 #
straight-curve $-1 -1 $-1 -0.023399999999999976 0.22615000000000007 0.093699999999999894 0 1 0 I I #
coedge $-1 -1 $-1 $368 $151 $369 $370 reversed $152 $-1 #
edge $-1 -1 $-1 $371 -0.035099999999999965 $153 0.011699999999999988 $243 $372 forward @7 unknown #
face $-1 -1 $-1 $373 $152 $20 $-1 $374 forward single #
point $-1 -1 $-1 -0.023399999999999976 0.25614999999999988 0.093699999999999894 #
point $-1 -1 $-1 -0.023399999999999976 0.25614999999999988 0.023400000000000087 #
loop $-1 -1 $-1 $-1 $162 $93 #
coedge $-1 -1 $-1 $253 $253 $160 $254 forward $156 $-1 #
edge $375 -1 $-1 $376 -3.1415926535897931 $376 3.1415926535897931 $160 $377 forward @7 unknown #
vertex $-1 -1 $-1 $161 $378 #
ellipse-curve $-1 -1 $-1 0 -0.25614999999999988 0 0 1 0 0 0 -0.13999999999999987 1 I I #
convexity-sys-attrib $-1 -1 $-1 $-1 $163 #
vertex $-1 -1 $-1 $163 $379 #
ellipse-curve $-1 -1 $-1 0 0.18135000000000012 0 0 -1 0 0 0 -0.067999999999999949 1 I I #
point $-1 -1 $-1 0 -0.25614999999999988 -0.067999999999999838 #
model_id-kcp-attrib $-1 -1 $-1 $-1 $166 1 1021323778 1021323778 1424621570 3 #
face $-1 -1 $-1 $-1 $181 $23 $-1 $380 reversed single #
loop $-1 -1 $-1 $-1 $278 $166 #
plane-surface $-1 -1 $-1 0 0.25614999999999988 0 0 -1 0 0 0 -1 forward_v I I I I #
coedge $-1 -1 $-1 $381 $276 $279 $382 forward $167 $-1 #
coedge $-1 -1 $-1 $282 $169 $170 $270 reversed $103 $-1 #
coedge $-1 -1 $-1 $276 $381 $169 $268 reversed $167 $-1 #
edge $-1 -1 $-1 $283 -0.1399999999999999 $383 0.1399999999999999 $267 $384 forward @7 unknown #
coedge $-1 -1 $-1 $171 $170 $381 $385 forward $64 $-1 #
edge $-1 -1 $-1 $274 -0.1399999999999999 $383 0.1399999999999999 $266 $386 forward @7 unknown #
coedge $-1 -1 $-1 $279 $278 $171 $272 reversed $263 $-1 #
edge $-1 -1 $-1 $387 -0.1399999999999999 $273 0.1399999999999999 $271 $388 forward @7 unknown #
vertex $-1 -1 $-1 $173 $389 #
vertex $-1 -1 $-1 $285 $390 #
straight-curve $-1 -1 $-1 0.1399999999999999 0 -0.1399999999999999 0 -1 0 I I #
coedge $-1 -1 $-1 $265 $267 $174 $277 reversed $167 $-1 #
edge $-1 -1 $-1 $280 -0.25614999999999988 $283 0.25614999999999988 $276 $391 forward @7 unknown #
coedge $-1 -1 $-1 $271 $175 $180 $286 forward $263 $-1 #
coedge $-1 -1 $-1 $175 $271 $265 $382 reversed $263 $-1 #
vertex $-1 -1 $-1 $176 $392 #
straight-curve $-1 -1 $-1 0 0.25614999999999988 0.1399999999999999 -1 0 0 I I #
coedge $-1 -1 $-1 $177 $266 $179 $285 reversed $103 $-1 #
vertex $-1 -1 $-1 $277 $393 #
straight-curve $-1 -1 $-1 0 -0.25614999999999988 0.1399999999999999 1 0 0 I I #
edge $-1 -1 $-1 $182 -0.1399999999999999 $274 0.1399999999999999 $179 $394 forward @7 unknown #
edge $-1 -1 $-1 $183 -0.1399999999999999 $273 0.1399999999999999 $180 $395 forward @7 unknown #
point $-1 -1 $-1 0.1399999999999999 -0.25614999999999988 0.1399999999999999 #
point $-1 -1 $-1 0.1399999999999999 0.25614999999999988 0.1399999999999999 #
model_id-kcp-attrib $-1 -1 $-1 $-1 $186 1 1021323778 1021323778 1424621569 8 #
loop $-1 -1 $-1 $-1 $220 $186 #
plane-surface $-1 -1 $-1 0.37692000000000003 3.13504 1.3848500000000001 0 0 -1 0.99999999999999944 0 0 forward_v I I I I #
coedge $-1 -1 $-1 $396 $397 $219 $333 reversed $187 $-1 #
coedge $-1 -1 $-1 $398 $189 $191 $298 forward $112 $-1 #
coedge $-1 -1 $-1 $189 $398 $396 $399 reversed $112 $-1 #
coedge $-1 -1 $-1 $219 $192 $189 $296 forward $81 $-1 #
edge $-1 -1 $-1 $299 -0.082000000000000003 $400 -0.011699999999999995 $295 $401 forward @7 unknown #
coedge $-1 -1 $-1 $191 $190 $402 $403 reversed $69 $-1 #
edge $-1 -1 $-1 $299 0.010009999999999858 $404 0.040009999999999678 $191 $405 forward @7 unknown #
vertex $-1 -1 $-1 $296 $406 #
straight-curve $-1 -1 $-1 0.25982000000000011 3.1250300000000002 1.46685 0 0 -0.99999999999999944 I I #
coedge $-1 -1 $-1 $198 $402 $194 $302 forward $204 $-1 #
edge $407 -1 $-1 $303 -0.070300000000000029 $200 0 $194 $408 forward @7 unknown #
vertex $-1 -1 $-1 $195 $409 #
straight-curve $-1 -1 $-1 0.25982000000000011 3.13504 1.5019500000000001 0 -0.99999999999999944 0 I I #
point $-1 -1 $-1 0.25982000000000011 3.1250300000000002 1.5019500000000001 #
attrib_edge_convexity-kcp-attrib $-1 -1 $410 $-1 $199 2 #
straight-curve $-1 -1 $-1 0.33012000000000008 3.0950300000000004 1.5722499999999999 0 0 0.99999999999999911 I I #
point $-1 -1 $-1 0.33012000000000008 3.0950300000000004 1.5019500000000001 #
coedge $-1 -1 $-1 $411 $203 $412 $413 forward $204 $-1 #
coedge $-1 -1 $-1 $414 $415 $416 $417 forward $204 $-1 #
face $418 -1 $-1 $419 $204 $8 $-1 $420 reversed single #
convexity-sys-attrib $-1 -1 $-1 $205 $124 #
coedge $-1 -1 $-1 $213 $412 $207 $314 reversed $325 $-1 #
edge $-1 -1 $-1 $215 0.010009999999999858 $316 0.040009999999999678 $313 $421 forward @7 unknown #
attrib_edge_convexity-kcp-attrib $-1 -1 $422 $-1 $208 2 #
vertex $-1 -1 $-1 $314 $423 #
straight-curve $-1 -1 $-1 0.37692000000000003 3.0950300000000004 1.5019500000000001 0 0 -0.99999999999999911 I I #
model_id-kcp-attrib $-1 -1 $-1 $-1 $209 1 1021323778 1021323778 1424621569 9 #
face $424 -1 $-1 $425 $325 $8 $-1 $426 reversed single #
plane-surface $-1 -1 $-1 0.37692000000000003 3.13504 1.5722499999999999 1 0 0 0 0 0.99999999999999944 forward_v I I I I #
coedge $-1 -1 $-1 $212 $218 $427 $428 forward $81 $-1 #
coedge $-1 -1 $-1 $429 $430 $212 $323 reversed $431 $-1 #
edge $-1 -1 $-1 $432 -0.035100000000000152 $326 0.011700000000000051 $212 $433 forward @7 unknown #
coedge $-1 -1 $-1 $412 $213 $430 $434 forward $325 $-1 #
loop $-1 -1 $-1 $-1 $213 $319 #
vertex $-1 -1 $-1 $214 $435 #
straight-curve $-1 -1 $-1 0.36522000000000004 3.1250300000000002 1.5019500000000001 -0.99999999999999944 0 0 I I #
point $-1 -1 $-1 0.37692000000000003 3.1250300000000002 1.5019500000000001 #
coedge $-1 -1 $-1 $329 $329 $217 $330 reversed $436 $-1 #
edge $-1 -1 $-1 $437 0 $437 6.2831853071795862 $217 $438 forward @7 unknown #
coedge $-1 -1 $-1 $439 $440 $218 $332 reversed $441 $-1 #
edge $-1 -1 $-1 $337 -0.081999999999999892 $442 -0.011700000000000051 $218 $443 forward @7 unknown #
edge $-1 -1 $-1 $400 -0.023449999999999985 $336 0.046849999999999864 $219 $444 forward @7 unknown #
coedge $-1 -1 $-1 $416 $220 $397 $445 forward $290 $-1 #
coedge $-1 -1 $-1 $220 $416 $439 $446 reversed $290 $-1 #
vertex $-1 -1 $-1 $221 $447 #
vertex $-1 -1 $-1 $221 $448 #
straight-curve $-1 -1 $-1 0.36522000000000004 3.1250300000000002 1.3848500000000001 0.99999999999999944 0 0 I I #
model_id-kcp-attrib $-1 -1 $-1 $-1 $223 1 1021323778 1021323778 1424621569 19 #
loop $-1 -1 $-1 $449 $450 $223 #
plane-surface $-1 -1 $-1 0.35352000000000006 3.0502300000000004 1.47855 0 -1 0 0 0 -0.99999999999999911 forward_v I I I I #
face $-1 -1 $-1 $451 $452 $20 $-1 $453 forward single #
loop $-1 -1 $-1 $-1 $454 $225 #
plane-surface $-1 -1 $-1 -0.023399999999999976 0.22615000000000007 -0.093699999999999894 0 0 -1 -1 0 0 forward_v I I I I #
coedge $-1 -1 $-1 $455 $456 $457 $458 forward $226 $-1 #
coedge $-1 -1 $-1 $459 $228 $456 $460 reversed $140 $-1 #
coedge $-1 -1 $-1 $228 $459 $229 $351 forward $140 $-1 #
coedge $-1 -1 $-1 $231 $457 $228 $349 reversed $152 $-1 #
edge $-1 -1 $-1 $352 -0.081999999999999962 $461 -0.011699999999999988 $228 $462 forward @7 unknown #
coedge $-1 -1 $-1 $230 $229 $463 $464 reversed $86 $-1 #
edge $-1 -1 $-1 $465 0 $352 0.029999999999999805 $347 $466 forward @7 unknown #
vertex $-1 -1 $-1 $351 $467 #
straight-curve $-1 -1 $-1 -0.09369999999999995 0.25614999999999988 -0.011700000000000044 0 0 -1 I I #
coedge $-1 -1 $-1 $463 $237 $233 $355 forward $360 $-1 #
edge $468 -1 $-1 $240 -0.023449999999999999 $356 0.046849999999999975 $233 $469 forward @7 unknown #
vertex $-1 -1 $-1 $355 $470 #
straight-curve $-1 -1 $-1 -0.09369999999999995 0.22615000000000007 0.023400000000000087 0 1 0 I I #
point $-1 -1 $-1 -0.09369999999999995 0.25614999999999988 0.023400000000000087 #
coedge $-1 -1 $-1 $237 $471 $242 $365 forward $360 $-1 #
loop $-1 -1 $-1 $-1 $359 $373 #
convexity-sys-attrib $-1 -1 $-1 $-1 $238 #
straight-curve $-1 -1 $-1 -0.023399999999999976 0.22615000000000007 0.011700000000000044 0 0 -1 I I #
point $-1 -1 $-1 -0.023399999999999976 0.22615000000000007 0.023400000000000087 #
coedge $-1 -1 $-1 $243 $242 $472 $473 forward $244 $-1 #
edge $474 -1 $-1 $475 -0.035099999999999965 $245 0.011699999999999988 $242 $476 forward @7 unknown #
face $-1 -1 $-1 $249 $244 $20 $-1 $477 forward single #
point $-1 -1 $-1 -0.023399999999999976 0.22615000000000007 0.093699999999999894 #
coedge $-1 -1 $-1 $478 $247 $479 $480 reversed $152 $-1 #
coedge $-1 -1 $-1 $472 $481 $247 $370 forward $482 $-1 #
edge $-1 -1 $-1 $483 -0.02344999999999986 $371 0.046849999999999947 $369 $484 forward @7 unknown #
vertex $-1 -1 $-1 $473 $485 #
straight-curve $-1 -1 $-1 -0.011699999999999988 0.25614999999999988 0.093699999999999894 -1 0 0 I I #
face $-1 -1 $-1 $-1 $360 $20 $-1 $486 reversed single #
plane-surface $-1 -1 $-1 -1.9949319973733282e-017 0.25614999999999982 0 6.767794263797826e-031 1 4.5986294356574967e-031 0 -4.5986294356574967e-031 1 forward_v I I I I #
convexity-sys-attrib $-1 -1 $-1 $-1 $254 #
vertex $-1 -1 $-1 $254 $487 #
ellipse-curve $-1 -1 $-1 0 0.18135000000000012 0 0 1 0 0 0 -0.13999999999999987 1 I I #
point $-1 -1 $-1 1.7144488953513266e-017 -0.25614999999999988 0.13999999999999987 #
point $-1 -1 $-1 0 0.18135000000000012 -0.067999999999999838 #
plane-surface $-1 -1 $-1 0.1399999999999999 0 0 -1 0 0 0 0 1 forward_v I I I I #
coedge $-1 -1 $-1 $267 $265 $269 $385 reversed $167 $-1 #
edge $-1 -1 $-1 $280 -0.1399999999999999 $387 0.1399999999999999 $279 $488 forward @7 unknown #
vertex $-1 -1 $-1 $385 $489 #
straight-curve $-1 -1 $-1 -0.1399999999999999 -0.25614999999999988 0 0 0 -1 I I #
edge $-1 -1 $-1 $383 -0.25614999999999988 $387 0.25614999999999988 $381 $490 forward @7 unknown #
straight-curve $-1 -1 $-1 0 -0.25614999999999988 -0.1399999999999999 -1 0 0 I I #
vertex $-1 -1 $-1 $272 $491 #
straight-curve $-1 -1 $-1 0 0.25614999999999988 -0.1399999999999999 1 0 0 I I #
point $-1 -1 $-1 0.1399999999999999 0.25614999999999988 -0.1399999999999999 #
point $-1 -1 $-1 0.1399999999999999 -0.25614999999999988 -0.1399999999999999 #
straight-curve $-1 -1 $-1 -0.1399999999999999 0 0.1399999999999999 0 -1 0 I I #
point $-1 -1 $-1 -0.1399999999999999 0.25614999999999988 0.1399999999999999 #
point $-1 -1 $-1 -0.1399999999999999 -0.25614999999999988 0.1399999999999999 #
straight-curve $-1 -1 $-1 0.1399999999999999 -0.25614999999999988 0 0 0 -1 I I #
straight-curve $-1 -1 $-1 0.1399999999999999 0.25614999999999988 0 0 0 -1 I I #
coedge $-1 -1 $-1 $492 $292 $294 $399 forward $187 $-1 #
coedge $-1 -1 $-1 $292 $492 $334 $445 reversed $187 $-1 #
coedge $-1 -1 $-1 $294 $293 $493 $494 reversed $112 $-1 #
edge $-1 -1 $-1 $400 0.010009999999999858 $495 0.040009999999999678 $294 $496 forward @7 unknown #
vertex $-1 -1 $-1 $333 $497 #
straight-curve $-1 -1 $-1 0.34182000000000007 3.1250300000000002 1.4551499999999999 0.99999999999999944 0 0 I I #
coedge $-1 -1 $-1 $301 $493 $297 $403 forward $204 $-1 #
edge $498 -1 $-1 $404 -0.046800000000000216 $303 0 $297 $499 forward @7 unknown #
vertex $-1 -1 $-1 $298 $500 #
straight-curve $-1 -1 $-1 0.25982000000000011 3.13504 1.4551499999999999 0 -0.99999999999999944 0 I I #
point $-1 -1 $-1 0.25982000000000011 3.1250300000000002 1.4551499999999999 #
attrib_edge_convexity-kcp-attrib $-1 -1 $501 $-1 $302 2 #
straight-curve $-1 -1 $-1 0.33012000000000008 3.0950300000000004 1.5019500000000001 0.99999999999999911 0 0 I I #
point $-1 -1 $-1 0.25982000000000011 3.0950300000000004 1.5019500000000001 #
convexity-sys-attrib $-1 -1 $-1 $306 $199 #
coedge $-1 -1 $-1 $502 $309 $503 $504 forward $204 $-1 #
coedge $-1 -1 $-1 $313 $324 $309 $413 reversed $325 $-1 #
edge $505 -1 $-1 $316 -0.070299999999999974 $506 0 $412 $507 forward @7 unknown #
coedge $-1 -1 $-1 $493 $310 $492 $508 forward $204 $-1 #
coedge $-1 -1 $-1 $310 $502 $509 $510 forward $204 $-1 #
coedge $-1 -1 $-1 $335 $334 $310 $417 reversed $290 $-1 #
edge $511 -1 $-1 $512 -0.046799999999999994 $513 0 $416 $514 forward @7 unknown #
model_id-kcp-attrib $-1 -1 $-1 $-1 $311 1 1021323778 1021323778 1424621569 14 #
face $515 -1 $-1 $516 $517 $8 $-1 $518 forward single #
plane-surface $-1 -1 $-1 0.37692000000000003 3.0950300000000004 1.3848500000000001 0 -1 0 0 0 -0.99999999999999944 forward_v I I I I #
straight-curve $-1 -1 $-1 0.37692000000000003 3.13504 1.5019500000000001 0 -0.99999999999999944 0 I I #
convexity-sys-attrib $-1 -1 $-1 $315 $208 #
point $-1 -1 $-1 0.37692000000000003 3.0950300000000004 1.5019500000000001 #
model_id-kcp-attrib $-1 -1 $-1 $-1 $319 1 1021323778 1021323778 1424621569 10 #
face $519 -1 $-1 $520 $431 $8 $-1 $521 reversed single #
plane-surface $-1 -1 $-1 0.37692000000000003 3.13504 1.5019500000000001 0 0 1 -0.99999999999999944 0 0 forward_v I I I I #
coedge $-1 -1 $-1 $522 $523 $321 $428 reversed $524 $-1 #
edge $-1 -1 $-1 $442 -0.023449999999999985 $432 0.046849999999999975 $321 $525 forward @7 unknown #
coedge $-1 -1 $-1 $503 $322 $523 $526 forward $431 $-1 #
coedge $-1 -1 $-1 $322 $503 $324 $434 reversed $431 $-1 #
loop $-1 -1 $-1 $-1 $322 $425 #
vertex $-1 -1 $-1 $323 $527 #
straight-curve $-1 -1 $-1 0.44721999999999995 3.1250300000000002 1.4902500000000001 0 0 0.99999999999999944 I I #
edge $-1 -1 $-1 $326 0.010009999999999858 $506 0.040009999999999678 $430 $528 forward @7 unknown #
point $-1 -1 $-1 0.44721999999999995 3.1250300000000002 1.5019500000000001 #
loop $-1 -1 $-1 $529 $329 $530 #
vertex $-1 -1 $-1 $330 $531 #
ellipse-curve $-1 -1 $-1 0.35352000000000006 3.1250300000000002 1.47855 0 1 0 0 0 -0.13999999999999987 1 I I #
coedge $-1 -1 $-1 $509 $331 $335 $446 forward $441 $-1 #
coedge $-1 -1 $-1 $331 $509 $522 $532 reversed $441 $-1 #
loop $-1 -1 $-1 $-1 $331 $533 #
vertex $-1 -1 $-1 $428 $534 #
straight-curve $-1 -1 $-1 0.37692000000000003 3.1250300000000002 1.46685 0 0 0.99999999999999944 I I #
straight-curve $-1 -1 $-1 0.33012000000000008 3.1250300000000002 1.4317 0 0 -0.99999999999999944 I I #
edge $-1 -1 $-1 $336 0.010009999999999858 $513 0.040009999999999678 $397 $535 forward @7 unknown #
edge $-1 -1 $-1 $337 0.010009999999999858 $512 0.040009999999999678 $335 $536 forward @7 unknown #
point $-1 -1 $-1 0.33012000000000008 3.1250300000000002 1.3848500000000001 #
point $-1 -1 $-1 0.37692000000000003 3.1250300000000002 1.3848500000000001 #
loop $-1 -1 $-1 $-1 $537 $223 #
coedge $-1 -1 $-1 $450 $450 $538 $539 forward $340 $-1 #
face $-1 -1 $-1 $540 $541 $20 $-1 $542 forward single #
loop $-1 -1 $-1 $-1 $543 $342 #
plane-surface $-1 -1 $-1 0.023399999999999976 0.22615000000000007 -0.093699999999999894 1 0 0 0 0 -1 forward_v I I I I #
coedge $-1 -1 $-1 $544 $545 $546 $547 forward $343 $-1 #
coedge $-1 -1 $-1 $548 $345 $545 $549 reversed $226 $-1 #
coedge $-1 -1 $-1 $345 $548 $346 $460 forward $226 $-1 #
coedge $-1 -1 $-1 $348 $546 $345 $458 reversed $152 $-1 #
edge $-1 -1 $-1 $461 -0.02344999999999986 $550 0.046849999999999947 $345 $551 forward @7 unknown #
coedge $-1 -1 $-1 $347 $346 $552 $553 reversed $140 $-1 #
edge $-1 -1 $-1 $554 0 $461 0.029999999999999805 $456 $555 forward @7 unknown #
vertex $-1 -1 $-1 $460 $556 #
straight-curve $-1 -1 $-1 -0.011699999999999988 0.25614999999999988 -0.023400000000000087 1 0 0 I I #
coedge $-1 -1 $-1 $552 $354 $350 $464 forward $360 $-1 #
edge $557 -1 $-1 $356 -0.035100000000000131 $465 0.011700000000000044 $350 $558 forward @7 unknown #
vertex $-1 -1 $-1 $464 $559 #
straight-curve $-1 -1 $-1 -0.09369999999999995 0.22615000000000007 -0.023400000000000087 0 1 0 I I #
point $-1 -1 $-1 -0.09369999999999995 0.25614999999999988 -0.023400000000000087 #
convexity-sys-attrib $-1 -1 $-1 $-1 $355 #
straight-curve $-1 -1 $-1 -0.046849999999999975 0.22615000000000007 0.023400000000000087 -1 0 0 I I #
point $-1 -1 $-1 -0.09369999999999995 0.22615000000000007 0.023400000000000087 #
coedge $-1 -1 $-1 $359 $560 $561 $562 forward $360 $-1 #
coedge $-1 -1 $-1 $561 $369 $364 $473 reversed $482 $-1 #
edge $-1 -1 $-1 $475 0 $371 0.029999999999999805 $364 $563 forward @7 unknown #
convexity-sys-attrib $-1 -1 $-1 $-1 $365 #
vertex $-1 -1 $-1 $365 $564 #
straight-curve $-1 -1 $-1 -0.011699999999999988 0.22615000000000007 0.093699999999999894 -1 0 0 I I #
plane-surface $-1 -1 $-1 0.023399999999999976 0.22615000000000007 0.093699999999999894 0 0 1 1 0 0 forward_v I I I I #
coedge $-1 -1 $-1 $565 $368 $566 $567 reversed $152 $-1 #
coedge $-1 -1 $-1 $568 $569 $368 $480 forward $570 $-1 #
edge $-1 -1 $-1 $571 -0.081999999999999906 $483 -0.011699999999999988 $479 $572 forward @7 unknown #
coedge $-1 -1 $-1 $369 $561 $568 $573 forward $482 $-1 #
loop $-1 -1 $-1 $-1 $369 $574 #
vertex $-1 -1 $-1 $573 $575 #
straight-curve $-1 -1 $-1 0.023399999999999976 0.25614999999999988 0.046849999999999947 0 0 1 I I #
point $-1 -1 $-1 0.023399999999999976 0.25614999999999988 0.093699999999999894 #
plane-surface $-1 -1 $-1 -1.9949319973733282e-017 0.22615000000000002 0 6.767794263797826e-031 1 4.5986294356574967e-031 0 -4.5986294356574967e-031 1 forward_v I I I I #
point $-1 -1 $-1 1.7144488953513266e-017 0.18135000000000012 0.13999999999999987 #
straight-curve $-1 -1 $-1 -0.1399999999999999 0.25614999999999988 0 0 0 -1 I I #
point $-1 -1 $-1 -0.1399999999999999 -0.25614999999999988 -0.1399999999999999 #
straight-curve $-1 -1 $-1 -0.1399999999999999 0 -0.1399999999999999 0 1 0 I I #
point $-1 -1 $-1 -0.1399999999999999 0.25614999999999988 -0.1399999999999999 #
coedge $-1 -1 $-1 $397 $396 $414 $508 reversed $187 $-1 #
coedge $-1 -1 $-1 $402 $414 $398 $494 forward $204 $-1 #
edge $576 -1 $-1 $495 -0.070300000000000029 $404 0 $398 $577 forward @7 unknown #
vertex $-1 -1 $-1 $399 $578 #
straight-curve $-1 -1 $-1 0.33012000000000008 3.13504 1.4551499999999999 0 -0.99999999999999944 0 I I #
point $-1 -1 $-1 0.33012000000000008 3.1250300000000002 1.4551499999999999 #
attrib_edge_convexity-kcp-attrib $-1 -1 $579 $-1 $403 2 #
straight-curve $-1 -1 $-1 0.25982000000000011 3.0950300000000004 1.5019500000000001 0 0 0.99999999999999911 I I #
point $-1 -1 $-1 0.25982000000000011 3.0950300000000004 1.4551499999999999 #
convexity-sys-attrib $-1 -1 $-1 $407 $302 #
coedge $-1 -1 $-1 $415 $411 $580 $581 forward $204 $-1 #
coedge $-1 -1 $-1 $430 $429 $411 $504 reversed $431 $-1 #
edge $582 -1 $-1 $506 -0.046800000000000216 $583 0 $503 $584 forward @7 unknown #
attrib_edge_convexity-kcp-attrib $-1 -1 $585 $-1 $413 2 #
vertex $-1 -1 $-1 $434 $586 #
straight-curve $-1 -1 $-1 0.44721999999999995 3.0950300000000004 1.5019500000000001 0.99999999999999911 0 0 I I #
edge $587 -1 $-1 $513 -0.070299999999999863 $495 0 $492 $588 forward @7 unknown #
coedge $-1 -1 $-1 $440 $439 $415 $510 reversed $441 $-1 #
edge $589 -1 $-1 $590 -0.070299999999999863 $512 0 $509 $591 forward @7 unknown #
attrib_edge_convexity-kcp-attrib $-1 -1 $592 $-1 $417 2 #
vertex $-1 -1 $-1 $446 $593 #
vertex $-1 -1 $-1 $445 $594 #
straight-curve $-1 -1 $-1 0.33012000000000008 3.0950300000000004 1.3848500000000001 -0.99999999999999911 0 0 I I #
model_id-kcp-attrib $-1 -1 $-1 $-1 $419 1 1021323778 1021323778 1424621569 15 #
face $595 -1 $-1 $530 $596 $8 $-1 $597 forward single #
loop $-1 -1 $-1 $598 $538 $419 #
cone-surface $-1 -1 $-1 0.35352000000000006 2.8314800000000004 1.47855 0 -1 0 0 0 -0.067999999999999949 1 I I 0 1 0.067999999999999949 forward I I I I #
model_id-kcp-attrib $-1 -1 $-1 $-1 $425 1 1021323778 1021323778 1424621569 11 #
face $599 -1 $-1 $533 $524 $8 $-1 $600 reversed single #
plane-surface $-1 -1 $-1 0.44721999999999995 3.13504 1.5019500000000001 1 0 0 0 0 0.99999999999999944 forward_v I I I I #
coedge $-1 -1 $-1 $580 $427 $440 $532 forward $524 $-1 #
coedge $-1 -1 $-1 $427 $580 $429 $526 reversed $524 $-1 #
loop $-1 -1 $-1 $-1 $427 $520 #
straight-curve $-1 -1 $-1 0.40037 3.1250300000000002 1.4551499999999999 0.99999999999999944 0 0 I I #
edge $-1 -1 $-1 $432 0.010009999999999858 $583 0.040009999999999678 $523 $601 forward @7 unknown #
point $-1 -1 $-1 0.44721999999999995 3.1250300000000002 1.4551499999999999 #
straight-curve $-1 -1 $-1 0.44721999999999995 3.13504 1.5019500000000001 0 -0.99999999999999944 0 I I #
loop $-1 -1 $-1 $-1 $602 $530 #
face $603 -1 $-1 $136 $436 $8 $-1 $604 forward single #
point $-1 -1 $-1 0.35352000000000006 3.1250300000000002 1.3385500000000001 #
edge $-1 -1 $-1 $442 0.010009999999999858 $590 0.040009999999999678 $440 $605 forward @7 unknown #
face $606 -1 $-1 $311 $441 $8 $-1 $607 reversed single #
point $-1 -1 $-1 0.37692000000000003 3.1250300000000002 1.4551499999999999 #
straight-curve $-1 -1 $-1 0.33012000000000008 3.13504 1.3848500000000001 0 -0.99999999999999944 0 I I #
straight-curve $-1 -1 $-1 0.37692000000000003 3.13504 1.3848500000000001 0 -0.99999999999999944 0 I I #
coedge $-1 -1 $-1 $537 $537 $602 $608 forward $449 $-1 #
coedge $-1 -1 $-1 $538 $538 $450 $539 reversed $517 $-1 #
edge $609 -1 $-1 $610 0 $610 6.2831853071795862 $450 $611 forward @7 unknown #
face $-1 -1 $-1 $612 $613 $20 $-1 $614 forward single #
loop $-1 -1 $-1 $-1 $615 $451 #
plane-surface $-1 -1 $-1 0.023399999999999976 0.22615000000000007 -0.023400000000000087 0 0 -1 -1 0 0 forward_v I I I I #
coedge $-1 -1 $-1 $616 $617 $618 $619 forward $452 $-1 #
coedge $-1 -1 $-1 $620 $454 $617 $621 reversed $343 $-1 #
coedge $-1 -1 $-1 $454 $620 $455 $549 forward $343 $-1 #
coedge $-1 -1 $-1 $457 $618 $454 $547 reversed $152 $-1 #
edge $-1 -1 $-1 $550 -0.035099999999999965 $622 0.011699999999999988 $454 $623 forward @7 unknown #
coedge $-1 -1 $-1 $456 $455 $624 $625 reversed $226 $-1 #
edge $-1 -1 $-1 $626 0 $550 0.029999999999999805 $545 $627 forward @7 unknown #
vertex $-1 -1 $-1 $549 $628 #
straight-curve $-1 -1 $-1 -0.023399999999999976 0.25614999999999988 -0.046849999999999947 0 0 -1 I I #
coedge $-1 -1 $-1 $624 $463 $459 $553 forward $360 $-1 #
edge $629 -1 $-1 $465 -0.081999999999999962 $554 -0.011699999999999988 $459 $630 forward @7 unknown #
vertex $-1 -1 $-1 $553 $631 #
straight-curve $-1 -1 $-1 -0.023399999999999976 0.22615000000000007 -0.023400000000000087 0 1 0 I I #
point $-1 -1 $-1 -0.023399999999999976 0.25614999999999988 -0.023400000000000087 #
convexity-sys-attrib $-1 -1 $-1 $-1 $464 #
straight-curve $-1 -1 $-1 -0.09369999999999995 0.22615000000000007 -0.011700000000000044 0 0 -1 I I #
point $-1 -1 $-1 -0.09369999999999995 0.22615000000000007 -0.023400000000000087 #
coedge $-1 -1 $-1 $471 $632 $633 $634 forward $360 $-1 #
coedge $-1 -1 $-1 $481 $472 $471 $562 reversed $482 $-1 #
edge $635 -1 $-1 $636 -0.02344999999999986 $475 0.046849999999999947 $561 $637 forward @7 unknown #
straight-curve $-1 -1 $-1 0.023399999999999976 0.22615000000000007 0.093699999999999894 0 1 0 I I #
point $-1 -1 $-1 0.023399999999999976 0.22615000000000007 0.093699999999999894 #
coedge $-1 -1 $-1 $618 $478 $615 $638 reversed $152 $-1 #
coedge $-1 -1 $-1 $639 $640 $478 $567 forward $613 $-1 #
edge $-1 -1 $-1 $641 -0.035100000000000131 $571 0.011700000000000044 $566 $642 forward @7 unknown #
coedge $-1 -1 $-1 $633 $479 $481 $573 reversed $570 $-1 #
coedge $-1 -1 $-1 $479 $633 $639 $643 forward $570 $-1 #
loop $-1 -1 $-1 $-1 $479 $612 #
vertex $-1 -1 $-1 $643 $644 #
straight-curve $-1 -1 $-1 0.011699999999999988 0.25614999999999988 0.023400000000000087 -1 0 0 I I #
edge $-1 -1 $-1 $636 0 $483 0.029999999999999805 $481 $645 forward @7 unknown #
face $-1 -1 $-1 $366 $482 $20 $-1 $646 forward single #
point $-1 -1 $-1 0.023399999999999976 0.25614999999999988 0.023400000000000087 #
attrib_edge_convexity-kcp-attrib $-1 -1 $647 $-1 $494 2 #
straight-curve $-1 -1 $-1 0.25982000000000011 3.0950300000000004 1.4551499999999999 -0.99999999999999911 0 0 I I #
point $-1 -1 $-1 0.33012000000000008 3.0950300000000004 1.4551499999999999 #
convexity-sys-attrib $-1 -1 $-1 $498 $403 #
coedge $-1 -1 $-1 $523 $522 $502 $581 reversed $524 $-1 #
edge $648 -1 $-1 $583 -0.070299999999999974 $590 0 $580 $649 forward @7 unknown #
attrib_edge_convexity-kcp-attrib $-1 -1 $650 $-1 $504 2 #
vertex $-1 -1 $-1 $526 $651 #
straight-curve $-1 -1 $-1 0.44721999999999995 3.0950300000000004 1.4551499999999999 0 0 -0.99999999999999911 I I #
convexity-sys-attrib $-1 -1 $-1 $505 $413 #
point $-1 -1 $-1 0.44721999999999995 3.0950300000000004 1.5019500000000001 #
attrib_edge_convexity-kcp-attrib $-1 -1 $652 $-1 $508 2 #
straight-curve $-1 -1 $-1 0.33012000000000008 3.0950300000000004 1.4551499999999999 0 0 0.99999999999999911 I I #
attrib_edge_convexity-kcp-attrib $-1 -1 $653 $-1 $510 2 #
vertex $-1 -1 $-1 $532 $654 #
straight-curve $-1 -1 $-1 0.37692000000000003 3.0950300000000004 1.3848500000000001 0 0 -0.99999999999999911 I I #
convexity-sys-attrib $-1 -1 $-1 $511 $417 #
point $-1 -1 $-1 0.37692000000000003 3.0950300000000004 1.3848500000000001 #
point $-1 -1 $-1 0.33012000000000008 3.0950300000000004 1.3848500000000001 #
model_id-kcp-attrib $-1 -1 $-1 $-1 $516 1 1021323778 1021323778 1424621569 16 #
loop $-1 -1 $-1 $-1 $655 $516 #
plane-surface $-1 -1 $-1 0.35352000000000006 2.6127300000000004 1.47855 0 -1 0 0 0 -0.99999999999999911 forward_v I I I I #
loop $-1 -1 $-1 $-1 $656 $419 #
model_id-kcp-attrib $-1 -1 $-1 $-1 $520 1 1021323778 1021323778 1424621569 12 #
plane-surface $-1 -1 $-1 0.44721999999999995 3.13504 1.4551499999999999 0 0 -1 0.99999999999999944 0 0 forward_v I I I I #
straight-curve $-1 -1 $-1 0.44721999999999995 3.13504 1.4551499999999999 0 -0.99999999999999944 0 I I #
coedge $-1 -1 $-1 $602 $602 $537 $608 reversed $529 $-1 #
model_id-kcp-attrib $-1 -1 $-1 $-1 $530 1 1021323778 1021323778 1424621569 17 #
cone-surface $-1 -1 $-1 0.35352000000000006 3.0876300000000003 1.47855 0 -1 0 0 0 -0.10749999999999992 1 I I -0.65592884268757656 0.75482272973893427 0.10749999999999992 forward I I I I #
straight-curve $-1 -1 $-1 0.37692000000000003 3.13504 1.4551499999999999 0 -0.99999999999999944 0 I I #
model_id-kcp-attrib $-1 -1 $-1 $-1 $533 1 1021323778 1021323778 1424621569 13 #
plane-surface $-1 -1 $-1 0.37692000000000003 3.13504 1.4551499999999999 1 0 0 0 0 0.99999999999999944 forward_v I I I I #
edge $657 -1 $-1 $658 0 $658 6.2831853071795862 $537 $659 forward @7 unknown #
attrib_edge_convexity-kcp-attrib $-1 -1 $660 $-1 $539 2 #
vertex $-1 -1 $-1 $539 $661 #
ellipse-curve $-1 -1 $-1 0.35352000000000006 3.0502300000000004 1.47855 0 1 0 0 0 -0.067999999999999949 1 I I #
face $-1 -1 $-1 $574 $570 $20 $-1 $662 forward single #
loop $-1 -1 $-1 $-1 $566 $540 #
plane-surface $-1 -1 $-1 0.093699999999999894 0.22615000000000007 -0.023400000000000087 1 0 0 0 0 -1 forward_v I I I I #
coedge $-1 -1 $-1 $663 $664 $565 $638 forward $541 $-1 #
coedge $-1 -1 $-1 $665 $543 $664 $666 reversed $452 $-1 #
coedge $-1 -1 $-1 $543 $665 $544 $621 forward $452 $-1 #
coedge $-1 -1 $-1 $546 $565 $543 $619 reversed $152 $-1 #
edge $-1 -1 $-1 $622 -0.081999999999999851 $667 -0.011700000000000044 $543 $668 forward @7 unknown #
coedge $-1 -1 $-1 $545 $544 $669 $670 reversed $343 $-1 #
edge $-1 -1 $-1 $671 0 $622 0.029999999999999805 $617 $672 forward @7 unknown #
vertex $-1 -1 $-1 $621 $673 #
straight-curve $-1 -1 $-1 0.011699999999999988 0.25614999999999988 -0.093699999999999894 1 0 0 I I #
coedge $-1 -1 $-1 $669 $552 $548 $625 forward $360 $-1 #
edge $674 -1 $-1 $554 -0.02344999999999986 $626 0.046849999999999947 $548 $675 forward @7 unknown #
vertex $-1 -1 $-1 $625 $676 #
straight-curve $-1 -1 $-1 -0.023399999999999976 0.22615000000000007 -0.093699999999999894 0 1 0 I I #
point $-1 -1 $-1 -0.023399999999999976 0.25614999999999988 -0.093699999999999894 #
convexity-sys-attrib $-1 -1 $-1 $-1 $553 #
straight-curve $-1 -1 $-1 -0.011699999999999988 0.22615000000000007 -0.023400000000000087 1 0 0 I I #
point $-1 -1 $-1 -0.023399999999999976 0.22615000000000007 -0.023400000000000087 #
coedge $-1 -1 $-1 $560 $677 $678 $679 forward $360 $-1 #
coedge $-1 -1 $-1 $569 $568 $560 $634 reversed $570 $-1 #
edge $680 -1 $-1 $681 -0.081999999999999906 $636 -0.011699999999999988 $633 $682 forward @7 unknown #
convexity-sys-attrib $-1 -1 $-1 $-1 $562 #
vertex $-1 -1 $-1 $634 $683 #
straight-curve $-1 -1 $-1 0.023399999999999976 0.22615000000000007 0.046849999999999947 0 0 1 I I #
edge $-1 -1 $-1 $667 -0.023449999999999971 $641 0.046849999999999947 $615 $684 forward @7 unknown #
coedge $-1 -1 $-1 $678 $566 $569 $643 reversed $613 $-1 #
coedge $-1 -1 $-1 $566 $678 $663 $685 forward $613 $-1 #
vertex $-1 -1 $-1 $685 $686 #
straight-curve $-1 -1 $-1 0.093699999999999894 0.25614999999999988 0.011700000000000044 0 0 1 I I #
edge $-1 -1 $-1 $681 0 $571 0.029999999999999805 $569 $687 forward @7 unknown #
point $-1 -1 $-1 0.093699999999999894 0.25614999999999988 0.023400000000000087 #
straight-curve $-1 -1 $-1 0.023399999999999976 0.22615000000000007 0.023400000000000087 0 1 0 I I #
plane-surface $-1 -1 $-1 0.023399999999999976 0.22615000000000007 0.023400000000000087 1 0 0 0 0 -1 forward_v I I I I #
convexity-sys-attrib $-1 -1 $-1 $576 $494 #
attrib_edge_convexity-kcp-attrib $-1 -1 $688 $-1 $581 2 #
straight-curve $-1 -1 $-1 0.37692000000000003 3.0950300000000004 1.4551499999999999 -0.99999999999999911 0 0 I I #
convexity-sys-attrib $-1 -1 $-1 $582 $504 #
point $-1 -1 $-1 0.44721999999999995 3.0950300000000004 1.4551499999999999 #
convexity-sys-attrib $-1 -1 $-1 $587 $508 #
convexity-sys-attrib $-1 -1 $-1 $589 $510 #
point $-1 -1 $-1 0.37692000000000003 3.0950300000000004 1.4551499999999999 #
coedge $-1 -1 $-1 $655 $655 $656 $689 forward $596 $-1 #
coedge $-1 -1 $-1 $656 $656 $655 $689 reversed $598 $-1 #
attrib_edge_convexity-kcp-attrib $-1 -1 $690 $-1 $608 1 #
vertex $-1 -1 $-1 $608 $691 #
ellipse-curve $-1 -1 $-1 0.35352000000000006 3.0502300000000004 1.47855 0 -1 0 0 0 -0.074999999999999942 1 I I #
convexity-sys-attrib $-1 -1 $-1 $609 $539 #
point $-1 -1 $-1 0.35352000000000006 3.0502300000000004 1.4105500000000002 #
plane-surface $-1 -1 $-1 0.093699999999999894 0.22615000000000007 0.023400000000000087 0 0 1 1 0 0 forward_v I I I I #
coedge $-1 -1 $-1 $692 $615 $640 $685 reversed $541 $-1 #
coedge $-1 -1 $-1 $615 $692 $616 $666 forward $541 $-1 #
coedge $-1 -1 $-1 $617 $616 $693 $694 reversed $452 $-1 #
edge $-1 -1 $-1 $695 0 $667 0.029999999999999805 $664 $696 forward @7 unknown #
vertex $-1 -1 $-1 $666 $697 #
straight-curve $-1 -1 $-1 0.023399999999999976 0.25614999999999988 -0.011700000000000044 0 0 1 I I #
coedge $-1 -1 $-1 $693 $624 $620 $670 forward $360 $-1 #
edge $698 -1 $-1 $626 -0.035099999999999965 $671 0.011699999999999988 $620 $699 forward @7 unknown #
vertex $-1 -1 $-1 $670 $700 #
straight-curve $-1 -1 $-1 0.023399999999999976 0.22615000000000007 -0.093699999999999894 0 1 0 I I #
point $-1 -1 $-1 0.023399999999999976 0.25614999999999988 -0.093699999999999894 #
convexity-sys-attrib $-1 -1 $-1 $-1 $625 #
straight-curve $-1 -1 $-1 -0.023399999999999976 0.22615000000000007 -0.046849999999999947 0 0 -1 I I #
point $-1 -1 $-1 -0.023399999999999976 0.22615000000000007 -0.093699999999999894 #
coedge $-1 -1 $-1 $632 $693 $692 $701 forward $360 $-1 #
coedge $-1 -1 $-1 $640 $639 $632 $679 reversed $613 $-1 #
edge $702 -1 $-1 $703 -0.035100000000000131 $681 0.011700000000000044 $678 $704 forward @7 unknown #
convexity-sys-attrib $-1 -1 $-1 $-1 $634 #
vertex $-1 -1 $-1 $679 $705 #
straight-curve $-1 -1 $-1 0.011699999999999988 0.22615000000000007 0.023400000000000087 -1 0 0 I I #
point $-1 -1 $-1 0.023399999999999976 0.22615000000000007 0.023400000000000087 #
straight-curve $-1 -1 $-1 0.046849999999999947 0.25614999999999988 -0.023400000000000087 1 0 0 I I #
edge $-1 -1 $-1 $703 0 $641 0.029999999999999805 $640 $706 forward @7 unknown #
point $-1 -1 $-1 0.093699999999999894 0.25614999999999988 -0.023400000000000087 #
straight-curve $-1 -1 $-1 0.093699999999999894 0.22615000000000007 0.023400000000000087 0 1 0 I I #
convexity-sys-attrib $-1 -1 $-1 $648 $581 #
edge $707 -1 $-1 $708 0 $708 6.2831853071795862 $655 $709 forward @7 unknown #
convexity-sys-attrib $-1 -1 $-1 $657 $608 #
point $-1 -1 $-1 0.35352000000000006 3.0502300000000004 1.4035500000000001 #
coedge $-1 -1 $-1 $664 $663 $677 $701 reversed $541 $-1 #
coedge $-1 -1 $-1 $677 $669 $665 $694 forward $360 $-1 #
edge $710 -1 $-1 $671 -0.081999999999999851 $695 -0.011700000000000044 $665 $711 forward @7 unknown #
vertex $-1 -1 $-1 $694 $712 #
straight-curve $-1 -1 $-1 0.023399999999999976 0.22615000000000007 -0.023400000000000087 0 1 0 I I #
point $-1 -1 $-1 0.023399999999999976 0.25614999999999988 -0.023400000000000087 #
convexity-sys-attrib $-1 -1 $-1 $-1 $670 #
straight-curve $-1 -1 $-1 0.011699999999999988 0.22615000000000007 -0.093699999999999894 1 0 0 I I #
point $-1 -1 $-1 0.023399999999999976 0.22615000000000007 -0.093699999999999894 #
edge $713 -1 $-1 $695 -0.023449999999999971 $703 0.046849999999999947 $692 $714 forward @7 unknown #
convexity-sys-attrib $-1 -1 $-1 $-1 $679 #
vertex $-1 -1 $-1 $701 $715 #
straight-curve $-1 -1 $-1 0.093699999999999894 0.22615000000000007 0.011700000000000044 0 0 1 I I #
point $-1 -1 $-1 0.093699999999999894 0.22615000000000007 0.023400000000000087 #
straight-curve $-1 -1 $-1 0.093699999999999894 0.22615000000000007 -0.023400000000000087 0 1 0 I I #
attrib_edge_convexity-kcp-attrib $-1 -1 $716 $-1 $689 1 #
vertex $-1 -1 $-1 $689 $717 #
ellipse-curve $-1 -1 $-1 0.35352000000000006 2.6127300000000004 1.47855 0 -1 0 0 0 -0.067999999999999949 1 I I #
convexity-sys-attrib $-1 -1 $-1 $-1 $694 #
straight-curve $-1 -1 $-1 0.023399999999999976 0.22615000000000007 -0.011700000000000044 0 0 1 I I #
point $-1 -1 $-1 0.023399999999999976 0.22615000000000007 -0.023400000000000087 #
convexity-sys-attrib $-1 -1 $-1 $-1 $701 #
straight-curve $-1 -1 $-1 0.046849999999999947 0.22615000000000007 -0.023400000000000087 1 0 0 I I #
point $-1 -1 $-1 0.093699999999999894 0.22615000000000007 -0.023400000000000087 #
convexity-sys-attrib $-1 -1 $-1 $707 $689 #
point $-1 -1 $-1 0.35352000000000006 2.6127300000000004 1.4105500000000002 #
End-of-ACIS-data 