700 0 2 0           
24 FBMach with ACIS - 7.0.3 13 ACIS 7.0.3 NT 24 Mon May 13 17:01:07 2002 
1 9.9999999999999995e-007 1e-010 
body $2 -1 $-1 $3 $-1 $4 #
bdycol-kcp $-1 -1 1 4 $5 $6 $7 $8 #
model_id-kcp-attrib $-1 -1 $-1 $-1 $0 1 1021323667 1021323667 1760231425 1 #
lump $-1 -1 $-1 $-1 $9 $0 #
transform $-1 -1 1 0 0 0 1 0 0 0 1 0 0 0 1 rotate no_reflect no_shear #
body $10 -1 $-1 $11 $-1 $12 #
body $13 -1 $-1 $14 $-1 $15 #
body $16 -1 $-1 $17 $-1 $18 #
body $19 -1 $-1 $20 $-1 $21 #
shell $-1 -1 $-1 $-1 $-1 $22 $-1 $3 #
rgb_color-st-attrib $-1 -1 $23 $-1 $5 1 0.5 1 #
lump $-1 -1 $-1 $-1 $24 $5 #
transform $-1 -1 1 0 0 0 1 0 0 0 1 3.7151000000000001 3.218 5.4142999999999999 1 no_rotate no_reflect no_shear #
rgb_color-st-attrib $-1 -1 $25 $-1 $6 0.5 1 1 #
lump $-1 -1 $-1 $-1 $26 $6 #
transform $-1 -1 1 0 0 0 1 0 0 0 1 3.7151000000000001 3.218 5.4142999999999999 1 no_rotate no_reflect no_shear #
rgb_color-st-attrib $-1 -1 $27 $-1 $7 0 0 1 #
lump $-1 -1 $-1 $-1 $28 $7 #
transform $-1 -1 1 0 0 0 1 0 0 0 1 3.7151000000000001 3.218 5.4142999999999999 1 no_rotate no_reflect no_shear #
model_id-kcp-attrib $-1 -1 $-1 $-1 $8 1 1021323667 1021323667 1760231426 1 #
lump $-1 -1 $-1 $-1 $29 $8 #
transform $-1 -1 1 0 0 0 1 0 0 0 1 3.7151000000000001 3.218 5.4142999999999999 1 no_rotate no_reflect no_shear #
face $30 -1 $-1 $31 $32 $9 $-1 $33 reversed single #
model_id-kcp-attrib $-1 -1 $-1 $10 $5 1 1021323667 1021323667 1747648517 1 #
shell $-1 -1 $-1 $-1 $-1 $34 $-1 $11 #
model_id-kcp-attrib $-1 -1 $-1 $13 $6 1 1021323667 1021323667 1748041731 1 #
shell $-1 -1 $-1 $-1 $-1 $35 $-1 $14 #
model_id-kcp-attrib $-1 -1 $-1 $16 $7 1 1021323667 1021323667 1759182852 1 #
shell $-1 -1 $-1 $-1 $-1 $36 $-1 $17 #
shell $-1 -1 $-1 $-1 $-1 $37 $-1 $20 #
model_id-kcp-attrib $-1 -1 $-1 $-1 $22 1 1021323667 1021323667 1760231425 2 #
face $38 -1 $-1 $39 $40 $9 $-1 $41 reversed single #
loop $-1 -1 $-1 $-1 $42 $22 #
plane-surface $-1 -1 $-1 3.7524564512500853 3.8180100000000001 5.2748797559534486 -0.25881199569454294 0 -0.96592771514467268 0.96592771514467246 0 -0.25881199569454283 forward_v I I I I #
face $-1 -1 $-1 $43 $44 $24 $-1 $45 forward single #
face $-1 -1 $-1 $46 $47 $26 $-1 $48 reversed single #
face $-1 -1 $-1 $49 $50 $28 $-1 $51 forward single #
face $-1 -1 $-1 $52 $53 $29 $-1 $54 forward single #
model_id-kcp-attrib $-1 -1 $-1 $-1 $31 1 1021323667 1021323667 1760231425 3 #
face $55 -1 $-1 $56 $57 $9 $-1 $58 reversed single #
loop $-1 -1 $-1 $-1 $59 $31 #
plane-surface $-1 -1 $-1 3.8545202440465518 3.8180100000000001 5.3769435487499146 0.70710678118654757 0 -0.70710678118654757 0.70710678118654735 0 0.70710678118654735 forward_v I I I I #
coedge $-1 -1 $-1 $60 $61 $62 $63 reversed $32 $-1 #
face $-1 -1 $-1 $64 $65 $24 $-1 $66 forward single #
loop $-1 -1 $-1 $67 $68 $34 #
cone-surface $-1 -1 $-1 0 0.25 0 0 -1 0 -0.088388347648318419 0 0.088388347648318419 1 I I 0 -1 0.12499999999999997 forward I I I I #
face $-1 -1 $-1 $69 $70 $26 $-1 $48 reversed single #
loop $-1 -1 $-1 $-1 $71 $35 #
cone-surface $-1 -1 $-1 0 -0.5 0 0 -1 0 0.13258252147247768 0 -0.13258252147247762 1 I I 0 1 0.18749999999999997 forward I I I I #
face $-1 -1 $-1 $72 $73 $28 $-1 $74 forward single #
loop $-1 -1 $-1 $-1 $75 $36 #
plane-surface $-1 -1 $-1 0.037356451250085243 0.375 -0.13942024404655129 0.70710678118654757 0 -0.70710678118654757 -0.70710678118654757 0 -0.70710678118654757 forward_v I I I I #
face $-1 -1 $-1 $76 $77 $29 $-1 $78 reversed single #
loop $-1 -1 $-1 $-1 $79 $37 #
plane-surface $-1 -1 $-1 0 0 0.1875 0 0 1 1 0 0 forward_v I I I I #
model_id-kcp-attrib $-1 -1 $-1 $-1 $39 1 1021323667 1021323667 1760231425 4 #
face $80 -1 $-1 $81 $82 $9 $-1 $83 reversed single #
loop $-1 -1 $-1 $-1 $84 $39 #
plane-surface $-1 -1 $-1 3.8171637927964666 3.8180100000000001 5.5163637927964659 0.96592771514467268 0 0.25881199569454294 -0.25881199569454283 0 0.96592771514467246 forward_v I I I I #
coedge $-1 -1 $-1 $85 $86 $87 $88 reversed $40 $-1 #
coedge $-1 -1 $-1 $89 $42 $90 $91 forward $32 $-1 #
coedge $-1 -1 $-1 $42 $89 $85 $92 reversed $32 $-1 #
coedge $-1 -1 $-1 $87 $93 $42 $63 forward $94 $-1 #
edge $-1 -1 $-1 $95 -0.10825454387499077 $96 0.036083631601908098 $62 $97 forward @7 unknown #
face $-1 -1 $-1 $98 $99 $24 $-1 $100 reversed single #
loop $-1 -1 $-1 $101 $102 $43 #
cone-surface $-1 -1 $-1 0 0.25 0 0 -1 0 0.13258252147247768 0 -0.13258252147247762 1 I I 0 1 0.18749999999999997 forward I I I I #
loop $-1 -1 $-1 $-1 $103 $34 #
coedge $-1 -1 $-1 $68 $68 $104 $105 forward $44 $-1 #
face $-1 -1 $-1 $106 $107 $26 $-1 $48 reversed single #
loop $-1 -1 $-1 $-1 $108 $46 #
coedge $-1 -1 $-1 $109 $110 $111 $112 reversed $47 $-1 #
face $-1 -1 $-1 $113 $114 $28 $-1 $115 forward single #
loop $-1 -1 $-1 $-1 $116 $49 #
plane-surface $-1 -1 $-1 0.13942024404655173 0.375 -0.037356451250085243 0.96592771514467268 0 0.25881199569454294 0.25881199569454294 0 -0.96592771514467268 forward_v I I I I #
coedge $-1 -1 $-1 $117 $118 $119 $120 forward $50 $-1 #
face $121 -1 $-1 $122 $123 $29 $-1 $124 reversed single #
loop $-1 -1 $-1 $-1 $125 $52 #
plane-surface $-1 -1 $-1 0 0 -0.1875 0 0 1 1 0 0 forward_v I I I I #
coedge $-1 -1 $-1 $126 $127 $128 $129 forward $53 $-1 #
model_id-kcp-attrib $-1 -1 $-1 $-1 $56 1 1021323667 1021323667 1760231425 5 #
face $130 -1 $-1 $131 $132 $9 $-1 $133 reversed single #
loop $-1 -1 $-1 $-1 $134 $56 #
plane-surface $-1 -1 $-1 3.6777435487499148 3.8180100000000001 5.5537202440465512 0.25881199569454294 0 0.96592771514467268 -0.96592771514467246 0 0.25881199569454283 forward_v I I I I #
coedge $-1 -1 $-1 $135 $136 $137 $138 reversed $57 $-1 #
coedge $-1 -1 $-1 $139 $59 $61 $92 forward $40 $-1 #
coedge $-1 -1 $-1 $59 $139 $135 $140 reversed $40 $-1 #
coedge $-1 -1 $-1 $137 $62 $59 $88 forward $94 $-1 #
edge $-1 -1 $-1 $96 -0.10825499999999946 $141 0.036085000000000554 $87 $142 forward @7 unknown #
coedge $-1 -1 $-1 $61 $60 $143 $144 reversed $32 $-1 #
coedge $-1 -1 $-1 $145 $146 $60 $91 reversed $132 $-1 #
edge $-1 -1 $-1 $95 0.10001000000000017 $147 0.22501000000000018 $90 $148 forward @7 unknown #
edge $-1 -1 $-1 $96 0.10001000000000017 $149 0.22501000000000018 $61 $150 forward @7 unknown #
coedge $-1 -1 $-1 $62 $151 $145 $152 forward $94 $-1 #
loop $-1 -1 $-1 $153 $154 $155 #
vertex $-1 -1 $-1 $63 $156 #
vertex $-1 -1 $-1 $88 $157 #
straight-curve $-1 -1 $-1 3.7176022714227321 3.718 5.2842186326602452 0.96592771514467246 0 -0.25881199569454283 I I #
face $-1 -1 $-1 $-1 $158 $24 $-1 $159 forward single #
loop $-1 -1 $-1 $160 $161 $64 #
plane-surface $-1 -1 $-1 -0.010445895631164898 -0.5 0.0104458956311649 0 1 0 0 0 1 forward_v I I I I #
loop $-1 -1 $-1 $-1 $162 $43 #
coedge $-1 -1 $-1 $102 $102 $161 $163 forward $65 $-1 #
coedge $-1 -1 $-1 $103 $103 $164 $165 reversed $67 $-1 #
coedge $-1 -1 $-1 $104 $104 $68 $105 reversed $160 $-1 #
edge $-1 -1 $-1 $166 0 $166 6.2831853071795862 $68 $167 forward @7 unknown #
face $-1 -1 $-1 $168 $169 $26 $-1 $48 reversed single #
loop $-1 -1 $-1 $-1 $170 $69 #
coedge $-1 -1 $-1 $171 $172 $173 $174 reversed $70 $-1 #
coedge $-1 -1 $-1 $175 $71 $176 $177 forward $47 $-1 #
coedge $-1 -1 $-1 $71 $175 $178 $179 reversed $47 $-1 #
coedge $-1 -1 $-1 $180 $181 $71 $112 forward $182 $-1 #
edge $-1 -1 $-1 $183 0.78539816339744806 $184 2.3561944901923448 $111 $185 forward @7 unknown #
face $-1 -1 $-1 $186 $187 $28 $-1 $188 forward single #
loop $-1 -1 $-1 $-1 $189 $72 #
plane-surface $-1 -1 $-1 0.10206379279646649 0.375 0.10206379279646605 0.25881199569454294 0 0.96592771514467268 0.96592771514467268 0 -0.25881199569454294 forward_v I I I I #
coedge $-1 -1 $-1 $190 $191 $192 $193 forward $73 $-1 #
coedge $-1 -1 $-1 $194 $75 $191 $195 reversed $50 $-1 #
coedge $-1 -1 $-1 $75 $194 $196 $197 forward $50 $-1 #
coedge $-1 -1 $-1 $198 $192 $75 $120 reversed $199 $-1 #
edge $-1 -1 $-1 $200 -0.10825499999999993 $201 0.036085000000000082 $75 $202 forward @7 unknown #
model_id-kcp-attrib $-1 -1 $-1 $-1 $76 1 1021323667 1021323667 1760231426 2 #
face $-1 -1 $-1 $203 $204 $29 $-1 $205 reversed single #
loop $-1 -1 $-1 $-1 $206 $76 #
plane-surface $-1 -1 $-1 0 -0.5 0 0 1 0 0 0 1 forward_v I I I I #
coedge $-1 -1 $-1 $207 $208 $209 $210 forward $77 $-1 #
coedge $-1 -1 $-1 $211 $79 $212 $213 forward $53 $-1 #
coedge $-1 -1 $-1 $79 $211 $214 $215 forward $53 $-1 #
coedge $-1 -1 $-1 $216 $217 $79 $129 reversed $218 $-1 #
edge $-1 -1 $-1 $219 -0.5 $220 0.5 $128 $221 forward @7 unknown #
model_id-kcp-attrib $-1 -1 $-1 $-1 $81 1 1021323667 1021323667 1760231425 6 #
face $222 -1 $-1 $223 $224 $9 $-1 $225 reversed single #
loop $-1 -1 $-1 $-1 $145 $81 #
plane-surface $-1 -1 $-1 3.6130362072035336 3.8180100000000001 5.3122362072035338 -0.96592771514467268 0 -0.25881199569454294 0.25881199569454283 0 -0.96592771514467246 forward_v I I I I #
coedge $-1 -1 $-1 $226 $227 $154 $228 reversed $82 $-1 #
coedge $-1 -1 $-1 $229 $84 $86 $140 forward $57 $-1 #
coedge $-1 -1 $-1 $84 $229 $226 $230 reversed $57 $-1 #
coedge $-1 -1 $-1 $154 $87 $84 $138 forward $94 $-1 #
edge $-1 -1 $-1 $141 -0.10825271934035731 $231 0.036085456136541121 $137 $232 forward @7 unknown #
coedge $-1 -1 $-1 $86 $85 $233 $234 reversed $40 $-1 #
edge $-1 -1 $-1 $141 0.10001000000000017 $235 0.22501000000000018 $86 $236 forward @7 unknown #
vertex $-1 -1 $-1 $138 $237 #
straight-curve $-1 -1 $-1 3.8290042958474348 3.718 5.3514276005507977 0.70710678118654735 0 0.70710678118654735 I I #
coedge $-1 -1 $-1 $238 $233 $89 $144 forward $239 $-1 #
edge $240 -1 $-1 $149 -0.14433817547689887 $147 0 $89 $241 forward @7 unknown #
coedge $-1 -1 $-1 $242 $90 $93 $152 reversed $132 $-1 #
coedge $-1 -1 $-1 $90 $242 $238 $243 reversed $132 $-1 #
vertex $-1 -1 $-1 $91 $244 #
straight-curve $-1 -1 $-1 3.6130362072035336 3.8180100000000001 5.3122362072035338 0 -0.99999999999999989 0 I I #
vertex $-1 -1 $-1 $92 $245 #
straight-curve $-1 -1 $-1 3.7524564512500853 3.8180100000000001 5.2748797559534486 0 -0.99999999999999989 0 I I #
coedge $-1 -1 $-1 $93 $154 $246 $247 forward $94 $-1 #
edge $-1 -1 $-1 $248 -0.10825271934035731 $95 0.036085456136541121 $93 $249 forward @7 unknown #
loop $-1 -1 $-1 $-1 $250 $155 #
coedge $-1 -1 $-1 $151 $137 $134 $228 forward $94 $-1 #
face $251 -1 $-1 $252 $94 $9 $-1 $253 forward single #
point $-1 -1 $-1 3.6130362072035336 3.718 5.3122362072035338 #
point $-1 -1 $-1 3.7524564512500853 3.718 5.2748797559534486 #
loop $-1 -1 $-1 $254 $255 $98 #
plane-surface $-1 -1 $-1 -0.010445895631164898 0.25 0.0104458956311649 0 1 0 0 0 1 forward_v I I I I #
loop $-1 -1 $-1 $-1 $104 $64 #
coedge $-1 -1 $-1 $161 $161 $102 $163 reversed $99 $-1 #
coedge $-1 -1 $-1 $162 $162 $255 $256 reversed $101 $-1 #
edge $-1 -1 $-1 $257 -3.1415926535897931 $257 3.1415926535897931 $102 $258 forward @7 unknown #
coedge $-1 -1 $-1 $164 $164 $103 $165 forward $254 $-1 #
edge $259 -1 $-1 $260 0 $260 6.2831853071795862 $103 $261 forward @7 unknown #
vertex $-1 -1 $-1 $105 $262 #
ellipse-curve $-1 -1 $-1 0 -0.5 0 0 -1 0 -0.088388347648318419 0 0.088388347648318419 1 I I #
face $-1 -1 $-1 $263 $264 $26 $-1 $265 forward single #
loop $-1 -1 $-1 $-1 $266 $106 #
coedge $-1 -1 $-1 $267 $268 $266 $269 forward $107 $-1 #
coedge $-1 -1 $-1 $270 $108 $271 $272 reversed $70 $-1 #
coedge $-1 -1 $-1 $108 $270 $110 $179 forward $70 $-1 #
coedge $-1 -1 $-1 $273 $274 $108 $174 forward $275 $-1 #
edge $-1 -1 $-1 $276 2.3561944901923453 $277 3.9269908169872414 $173 $278 forward @7 unknown #
coedge $-1 -1 $-1 $110 $109 $279 $280 reversed $47 $-1 #
coedge $-1 -1 $-1 $268 $267 $281 $177 reversed $107 $-1 #
edge $-1 -1 $-1 $183 -1 $282 0 $281 $283 forward @7 unknown #
coedge $-1 -1 $-1 $284 $285 $286 $179 forward $287 $-1 #
edge $-1 -1 $-1 $184 -1 $277 0 $178 $288 forward @7 unknown #
coedge $-1 -1 $-1 $181 $111 $285 $289 reversed $182 $-1 #
coedge $-1 -1 $-1 $111 $180 $290 $291 forward $182 $-1 #
loop $-1 -1 $-1 $-1 $111 $292 #
vertex $-1 -1 $-1 $293 $294 #
vertex $-1 -1 $-1 $295 $296 #
ellipse-curve $-1 -1 $-1 0 0.5 0 0 -1 0 0.13258252147247768 0 -0.13258252147247762 1 I I #
face $-1 -1 $-1 $297 $298 $28 $-1 $299 forward single #
loop $-1 -1 $-1 $-1 $300 $113 #
plane-surface $-1 -1 $-1 -0.037356451250085243 0.375 0.13942024404655129 -0.70710678118654757 0 0.70710678118654757 0.70710678118654757 0 0.70710678118654757 forward_v I I I I #
coedge $-1 -1 $-1 $301 $302 $303 $304 forward $114 $-1 #
coedge $-1 -1 $-1 $305 $116 $302 $306 reversed $73 $-1 #
coedge $-1 -1 $-1 $116 $305 $117 $195 forward $73 $-1 #
coedge $-1 -1 $-1 $119 $303 $116 $193 reversed $199 $-1 #
edge $-1 -1 $-1 $201 -0.10825271934035742 $307 0.036085456136540982 $116 $308 forward @7 unknown #
coedge $-1 -1 $-1 $118 $117 $309 $310 reversed $50 $-1 #
edge $311 -1 $-1 $312 0 $201 0.125 $191 $313 forward @7 unknown #
coedge $-1 -1 $-1 $314 $315 $118 $197 reversed $316 $-1 #
edge $-1 -1 $-1 $317 0 $200 0.125 $118 $318 forward @7 unknown #
coedge $-1 -1 $-1 $319 $119 $315 $320 reversed $199 $-1 #
loop $-1 -1 $-1 $-1 $119 $321 #
vertex $-1 -1 $-1 $197 $322 #
vertex $-1 -1 $-1 $195 $323 #
straight-curve $-1 -1 $-1 0.11390429584743511 0.5 -0.062872399449201866 0.70710678118654757 0 0.70710678118654757 I I #
face $324 -1 $-1 $325 $326 $29 $-1 $327 reversed single #
loop $-1 -1 $-1 $-1 $328 $122 #
plane-surface $-1 -1 $-1 -0.1875 0 0 1 0 0 0 0 -1 forward_v I I I I #
coedge $-1 -1 $-1 $329 $214 $330 $331 forward $123 $-1 #
coedge $-1 -1 $-1 $332 $125 $329 $333 forward $77 $-1 #
coedge $-1 -1 $-1 $125 $332 $334 $335 forward $77 $-1 #
coedge $-1 -1 $-1 $217 $216 $125 $210 reversed $218 $-1 #
edge $-1 -1 $-1 $336 -0.5 $337 0.5 $209 $338 forward @7 unknown #
coedge $-1 -1 $-1 $127 $126 $339 $340 forward $53 $-1 #
coedge $-1 -1 $-1 $341 $342 $126 $213 reversed $326 $-1 #
edge $-1 -1 $-1 $220 -0.1875 $343 0.1875 $212 $344 forward @7 unknown #
coedge $-1 -1 $-1 $206 $345 $127 $215 reversed $123 $-1 #
edge $-1 -1 $-1 $346 -0.1875 $219 0.1875 $214 $347 forward @7 unknown #
coedge $-1 -1 $-1 $209 $128 $345 $348 forward $218 $-1 #
coedge $-1 -1 $-1 $128 $209 $341 $349 reversed $218 $-1 #
loop $-1 -1 $-1 $-1 $216 $325 #
vertex $-1 -1 $-1 $129 $350 #
vertex $-1 -1 $-1 $129 $351 #
straight-curve $-1 -1 $-1 0.1875 0 0.1875 0 1 0 I I #
model_id-kcp-attrib $-1 -1 $-1 $-1 $131 1 1021323667 1021323667 1760231425 7 #
face $352 -1 $-1 $353 $239 $9 $-1 $354 forward single #
loop $-1 -1 $-1 $-1 $246 $131 #
plane-surface $-1 -1 $-1 3.5756797559534483 3.8180100000000001 5.4516564512500851 -0.70710678118654757 0 0.70710678118654757 -0.70710678118654735 0 -0.70710678118654735 forward_v I I I I #
coedge $-1 -1 $-1 $355 $134 $136 $230 forward $82 $-1 #
coedge $-1 -1 $-1 $134 $355 $356 $357 reversed $82 $-1 #
edge $-1 -1 $-1 $231 -0.10825454387499077 $358 0.036083631601908098 $154 $359 forward @7 unknown #
coedge $-1 -1 $-1 $136 $135 $360 $361 reversed $57 $-1 #
edge $-1 -1 $-1 $231 0.10001000000000017 $362 0.22501000000000018 $136 $363 forward @7 unknown #
vertex $-1 -1 $-1 $228 $364 #
straight-curve $-1 -1 $-1 3.8265031417147126 3.718 5.4815078506005435 -0.25881199569454283 0 0.96592771514467246 I I #
coedge $-1 -1 $-1 $143 $360 $139 $234 forward $239 $-1 #
edge $365 -1 $-1 $235 -0.14434 $149 0 $139 $366 forward @7 unknown #
vertex $-1 -1 $-1 $140 $367 #
straight-curve $-1 -1 $-1 3.8545202440465518 3.8180100000000001 5.3769435487499146 0 -0.99999999999999989 0 I I #
point $-1 -1 $-1 3.8545202440465518 3.718 5.3769435487499146 #
coedge $-1 -1 $-1 $368 $143 $146 $243 forward $239 $-1 #
loop $-1 -1 $-1 $-1 $369 $223 #
attrib_edge_convexity-kcp-attrib $-1 -1 $370 $-1 $144 2 #
straight-curve $-1 -1 $-1 3.6130362072035336 3.593 5.3122362072035338 -0.96592771514467246 0 0.25881199569454294 I I #
coedge $-1 -1 $-1 $146 $145 $371 $372 forward $132 $-1 #
edge $373 -1 $-1 $147 -0.14433817547689845 $374 0 $146 $375 forward @7 unknown #
point $-1 -1 $-1 3.6130362072035336 3.593 5.3122362072035338 #
point $-1 -1 $-1 3.7524564512500853 3.593 5.2748797559534486 #
coedge $-1 -1 $-1 $356 $371 $151 $247 reversed $224 $-1 #
edge $-1 -1 $-1 $358 -0.10825499999999946 $248 0.036085000000000554 $151 $376 forward @7 unknown #
vertex $-1 -1 $-1 $152 $377 #
straight-curve $-1 -1 $-1 3.6036968582852875 3.718 5.3470921493994563 0.25881199569454283 0 -0.96592771514467246 I I #
coedge $-1 -1 $-1 $250 $250 $378 $379 forward $153 $-1 #
model_id-kcp-attrib $-1 -1 $-1 $-1 $155 1 1021323667 1021323667 1760231425 12 #
face $380 -1 $-1 $-1 $381 $9 $-1 $382 forward single #
plane-surface $-1 -1 $-1 3.7151000000000001 3.718 5.4142999999999999 0 1 0 0.70710678118654735 0 -0.70710678118654735 forward_v I I I I #
loop $-1 -1 $-1 $-1 $164 $98 #
coedge $-1 -1 $-1 $255 $255 $162 $256 forward $158 $-1 #
edge $383 -1 $-1 $384 -3.1415926535897931 $384 3.1415926535897931 $162 $385 forward @7 unknown #
vertex $-1 -1 $-1 $163 $386 #
ellipse-curve $-1 -1 $-1 0 -0.5 0 0 1 0 0.13258252147247768 0 -0.13258252147247762 1 I I #
convexity-sys-attrib $-1 -1 $-1 $-1 $165 #
vertex $-1 -1 $-1 $165 $387 #
ellipse-curve $-1 -1 $-1 0 0.25 0 0 -1 0 -0.088388347648318419 0 0.088388347648318419 1 I I #
point $-1 -1 $-1 -0.088388347648318266 -0.5 0.088388347648318266 #
face $-1 -1 $-1 $388 $389 $26 $-1 $390 reversed single #
loop $-1 -1 $-1 $-1 $286 $168 #
plane-surface $-1 -1 $-1 0 0 0.1875 0 0 1 1 0 0 forward_v I I I I #
coedge $-1 -1 $-1 $391 $392 $393 $269 reversed $169 $-1 #
coedge $-1 -1 $-1 $176 $170 $394 $395 reversed $107 $-1 #
coedge $-1 -1 $-1 $170 $176 $396 $397 reversed $107 $-1 #
edge $-1 -1 $-1 $398 -1 $399 0 $393 $400 forward @7 unknown #
coedge $-1 -1 $-1 $172 $171 $401 $402 reversed $70 $-1 #
coedge $-1 -1 $-1 $403 $404 $405 $272 forward $406 $-1 #
edge $-1 -1 $-1 $407 -1 $276 0 $271 $408 forward @7 unknown #
coedge $-1 -1 $-1 $274 $173 $409 $410 reversed $275 $-1 #
coedge $-1 -1 $-1 $173 $273 $403 $411 forward $275 $-1 #
loop $-1 -1 $-1 $-1 $173 $412 #
vertex $-1 -1 $-1 $413 $414 #
vertex $-1 -1 $-1 $415 $416 #
ellipse-curve $-1 -1 $-1 0 -0.5 0 0 1 0 0.13258252147247768 0 -0.13258252147247762 1 I I #
coedge $-1 -1 $-1 $417 $418 $175 $280 forward $419 $-1 #
edge $-1 -1 $-1 $277 -2.3561944901923448 $282 -0.78539816339744806 $279 $278 forward @7 unknown #
coedge $-1 -1 $-1 $420 $421 $422 $177 forward $389 $-1 #
vertex $-1 -1 $-1 $423 $424 #
straight-curve $-1 -1 $-1 0.1875 -0.5 0 0 -1 0 I I #
coedge $-1 -1 $-1 $425 $178 $418 $415 forward $287 $-1 #
coedge $-1 -1 $-1 $178 $425 $180 $289 forward $287 $-1 #
coedge $-1 -1 $-1 $426 $409 $172 $179 reversed $264 $-1 #
loop $-1 -1 $-1 $-1 $178 $427 #
straight-curve $-1 -1 $-1 0 -0.5 0.1875 0 -1 0 I I #
edge $-1 -1 $-1 $428 -0.1875 $184 0 $180 $429 forward @7 unknown #
coedge $-1 -1 $-1 $430 $422 $181 $291 reversed $431 $-1 #
edge $-1 -1 $-1 $428 -0.1875 $183 0 $290 $432 forward @7 unknown #
face $-1 -1 $-1 $433 $182 $26 $-1 $434 reversed single #
edge $-1 -1 $-1 $183 0 $435 0.1875 $421 $432 forward @7 unknown #
point $-1 -1 $-1 0.1875 0.5 0 #
edge $-1 -1 $-1 $184 0 $436 0.1875 $437 $429 forward @7 unknown #
point $-1 -1 $-1 0 0.5 0.1875 #
face $-1 -1 $-1 $321 $316 $28 $-1 $438 forward single #
loop $-1 -1 $-1 $-1 $439 $186 #
plane-surface $-1 -1 $-1 -0.13942024404655173 0.375 0.037356451250085243 -0.96592771514467268 0 -0.25881199569454294 -0.25881199569454294 0 0.96592771514467268 forward_v I I I I #
coedge $-1 -1 $-1 $440 $441 $442 $443 forward $187 $-1 #
coedge $-1 -1 $-1 $444 $189 $441 $445 reversed $114 $-1 #
coedge $-1 -1 $-1 $189 $444 $190 $306 forward $114 $-1 #
coedge $-1 -1 $-1 $192 $442 $189 $304 reversed $199 $-1 #
edge $-1 -1 $-1 $307 -0.10825454387499066 $446 0.036083631601908174 $189 $447 forward @7 unknown #
coedge $-1 -1 $-1 $191 $190 $448 $449 reversed $73 $-1 #
edge $-1 -1 $-1 $450 0 $307 0.125 $302 $451 forward @7 unknown #
vertex $-1 -1 $-1 $306 $452 #
straight-curve $-1 -1 $-1 0.11140314171471255 0.5 0.067207850600543712 -0.25881199569454294 0 0.96592771514467268 I I #
coedge $-1 -1 $-1 $448 $453 $194 $310 forward $454 $-1 #
edge $455 -1 $-1 $317 -0.10825499999999993 $312 0.036085000000000082 $194 $456 forward @7 unknown #
convexity-sys-attrib $-1 -1 $-1 $-1 $195 #
vertex $-1 -1 $-1 $310 $457 #
straight-curve $-1 -1 $-1 0.13942024404655173 0.375 -0.037356451250085243 0 1 0 I I #
coedge $-1 -1 $-1 $458 $196 $453 $459 reversed $316 $-1 #
coedge $-1 -1 $-1 $196 $458 $198 $320 forward $316 $-1 #
loop $-1 -1 $-1 $-1 $315 $297 #
vertex $-1 -1 $-1 $459 $460 #
straight-curve $-1 -1 $-1 0.037356451250085243 0.375 -0.13942024404655129 0 1 0 I I #
coedge $-1 -1 $-1 $442 $198 $439 $461 reversed $199 $-1 #
edge $-1 -1 $-1 $462 -0.10825454387499066 $200 0.036083631601908174 $315 $463 forward @7 unknown #
face $-1 -1 $-1 $464 $199 $28 $-1 $465 forward single #
point $-1 -1 $-1 0.037356451250085243 0.5 -0.13942024404655129 #
point $-1 -1 $-1 0.13942024404655173 0.5 -0.037356451250085243 #
model_id-kcp-attrib $-1 -1 $-1 $-1 $203 1 1021323667 1021323667 1760231426 3 #
face $-1 -1 $-1 $-1 $218 $29 $-1 $466 reversed single #
loop $-1 -1 $-1 $-1 $341 $203 #
plane-surface $-1 -1 $-1 0 0.5 0 0 -1 0 0 0 -1 forward_v I I I I #
coedge $-1 -1 $-1 $467 $339 $342 $468 forward $204 $-1 #
coedge $-1 -1 $-1 $345 $206 $207 $333 reversed $123 $-1 #
coedge $-1 -1 $-1 $339 $467 $206 $331 reversed $204 $-1 #
edge $-1 -1 $-1 $346 -0.1875 $469 0.1875 $330 $470 forward @7 unknown #
coedge $-1 -1 $-1 $208 $207 $467 $471 forward $77 $-1 #
edge $-1 -1 $-1 $337 -0.1875 $469 0.1875 $329 $472 forward @7 unknown #
coedge $-1 -1 $-1 $342 $341 $208 $335 reversed $326 $-1 #
edge $-1 -1 $-1 $473 -0.1875 $336 0.1875 $334 $474 forward @7 unknown #
vertex $-1 -1 $-1 $210 $475 #
vertex $-1 -1 $-1 $348 $476 #
straight-curve $-1 -1 $-1 0.1875 0 -0.1875 0 -1 0 I I #
coedge $-1 -1 $-1 $328 $330 $211 $340 reversed $204 $-1 #
edge $-1 -1 $-1 $343 -0.5 $346 0.5 $339 $477 forward @7 unknown #
coedge $-1 -1 $-1 $334 $212 $217 $349 forward $326 $-1 #
coedge $-1 -1 $-1 $212 $334 $328 $468 reversed $326 $-1 #
vertex $-1 -1 $-1 $213 $478 #
straight-curve $-1 -1 $-1 0 0.5 0.1875 -1 0 0 I I #
coedge $-1 -1 $-1 $214 $329 $216 $348 reversed $123 $-1 #
vertex $-1 -1 $-1 $340 $479 #
straight-curve $-1 -1 $-1 0 -0.5 0.1875 1 0 0 I I #
edge $-1 -1 $-1 $219 -0.1875 $337 0.1875 $216 $480 forward @7 unknown #
edge $-1 -1 $-1 $220 -0.1875 $336 0.1875 $217 $481 forward @7 unknown #
point $-1 -1 $-1 0.1875 -0.5 0.1875 #
point $-1 -1 $-1 0.1875 0.5 0.1875 #
model_id-kcp-attrib $-1 -1 $-1 $-1 $223 1 1021323667 1021323667 1760231425 8 #
face $482 -1 $-1 $483 $484 $9 $-1 $485 forward single #
plane-surface $-1 -1 $-1 3.6777435487499148 3.593 5.5537202440465512 0 1 0 0.70710678118654735 0 -0.70710678118654735 forward_v I I I I #
coedge $-1 -1 $-1 $227 $226 $369 $486 reversed $82 $-1 #
coedge $-1 -1 $-1 $487 $246 $227 $357 forward $224 $-1 #
edge $-1 -1 $-1 $358 0.10001000000000017 $488 0.22501000000000018 $227 $489 forward @7 unknown #
vertex $-1 -1 $-1 $228 $490 #
straight-curve $-1 -1 $-1 3.712597728577268 3.718 5.5443813673397546 -0.96592771514467246 0 0.25881199569454283 I I #
coedge $-1 -1 $-1 $233 $369 $229 $361 forward $239 $-1 #
edge $491 -1 $-1 $362 -0.14433817547689845 $235 0 $229 $492 forward @7 unknown #
vertex $-1 -1 $-1 $230 $493 #
straight-curve $-1 -1 $-1 3.8171637927964666 3.8180100000000001 5.5163637927964659 0 -0.99999999999999989 0 I I #
point $-1 -1 $-1 3.8171637927964666 3.718 5.5163637927964659 #
attrib_edge_convexity-kcp-attrib $-1 -1 $494 $-1 $234 2 #
straight-curve $-1 -1 $-1 3.7524564512500853 3.593 5.2748797559534486 -0.70710678118654735 0 -0.70710678118654735 I I #
point $-1 -1 $-1 3.8545202440465518 3.593 5.3769435487499146 #
coedge $-1 -1 $-1 $369 $238 $487 $495 forward $239 $-1 #
coedge $-1 -1 $-1 $360 $368 $355 $486 forward $239 $-1 #
convexity-sys-attrib $-1 -1 $-1 $240 $144 #
coedge $-1 -1 $-1 $246 $487 $242 $372 reversed $224 $-1 #
edge $-1 -1 $-1 $248 0.10001000000000017 $374 0.22501000000000018 $371 $496 forward @7 unknown #
attrib_edge_convexity-kcp-attrib $-1 -1 $497 $-1 $243 2 #
vertex $-1 -1 $-1 $372 $498 #
straight-curve $-1 -1 $-1 3.5756797559534483 3.593 5.4516564512500851 -0.25881199569454294 0 0.96592771514467246 I I #
straight-curve $-1 -1 $-1 3.6011957041525653 3.718 5.4771723994492021 -0.70710678118654735 0 -0.70710678118654735 I I #
point $-1 -1 $-1 3.5756797559534483 3.718 5.4516564512500851 #
coedge $-1 -1 $-1 $378 $378 $250 $379 reversed $499 $-1 #
edge $-1 -1 $-1 $500 0 $500 6.2831853071795862 $250 $501 forward @7 unknown #
model_id-kcp-attrib $-1 -1 $-1 $-1 $252 1 1021323667 1021323667 1760231425 13 #
loop $-1 -1 $-1 $502 $503 $252 #
plane-surface $-1 -1 $-1 3.7151000000000001 3.468 5.4142999999999999 0 -1 0 -0.70710678118654735 0 0.70710678118654735 forward_v I I I I #
convexity-sys-attrib $-1 -1 $-1 $-1 $256 #
vertex $-1 -1 $-1 $256 $504 #
ellipse-curve $-1 -1 $-1 0 0.25 0 0 1 0 0.13258252147247768 0 -0.13258252147247762 1 I I #
point $-1 -1 $-1 -0.13258252147247765 -0.5 0.13258252147247765 #
point $-1 -1 $-1 -0.088388347648318266 0.25 0.088388347648318266 #
face $-1 -1 $-1 $505 $506 $26 $-1 $507 reversed single #
loop $-1 -1 $-1 $-1 $281 $263 #
plane-surface $-1 -1 $-1 0.1875 0 0 -1 0 0 0 0 1 forward_v I I I I #
coedge $-1 -1 $-1 $508 $266 $509 $510 reversed $169 $-1 #
coedge $-1 -1 $-1 $266 $508 $511 $512 reversed $169 $-1 #
coedge $-1 -1 $-1 $513 $514 $515 $269 forward $516 $-1 #
coedge $-1 -1 $-1 $517 $518 $267 $395 forward $519 $-1 #
edge $-1 -1 $-1 $282 -0.78539816339744806 $399 0.7853981633974485 $394 $278 forward @7 unknown #
coedge $-1 -1 $-1 $520 $521 $268 $397 forward $522 $-1 #
edge $-1 -1 $-1 $398 -0.7853981633974485 $183 0.78539816339744806 $396 $185 forward @7 unknown #
vertex $-1 -1 $-1 $523 $524 #
vertex $-1 -1 $-1 $525 $526 #
straight-curve $-1 -1 $-1 0 -0.5 -0.1875 0 -1 0 I I #
coedge $-1 -1 $-1 $527 $437 $270 $402 forward $528 $-1 #
edge $-1 -1 $-1 $184 2.3561944901923448 $407 3.926990816987241 $401 $185 forward @7 unknown #
coedge $-1 -1 $-1 $529 $271 $274 $411 reversed $406 $-1 #
coedge $-1 -1 $-1 $271 $529 $527 $530 forward $406 $-1 #
coedge $-1 -1 $-1 $531 $532 $508 $272 reversed $506 $-1 #
loop $-1 -1 $-1 $-1 $271 $533 #
vertex $-1 -1 $-1 $534 $535 #
straight-curve $-1 -1 $-1 -0.1875 -0.5 0 0 -1 0 I I #
coedge $-1 -1 $-1 $286 $536 $273 $410 forward $264 $-1 #
edge $-1 -1 $-1 $537 -0.1875 $277 0 $273 $538 forward @7 unknown #
edge $-1 -1 $-1 $537 -0.1875 $276 0 $403 $539 forward @7 unknown #
face $-1 -1 $-1 $540 $275 $26 $-1 $541 reversed single #
edge $-1 -1 $-1 $276 0 $542 0.1875 $532 $539 forward @7 unknown #
point $-1 -1 $-1 -0.1875 -0.5 0 #
edge $-1 -1 $-1 $277 0 $543 0.1875 $418 $538 forward @7 unknown #
point $-1 -1 $-1 0 -0.5 0.1875 #
coedge $-1 -1 $-1 $418 $279 $544 $545 reversed $419 $-1 #
coedge $-1 -1 $-1 $279 $417 $284 $415 reversed $419 $-1 #
loop $-1 -1 $-1 $-1 $279 $540 #
coedge $-1 -1 $-1 $546 $281 $518 $423 forward $389 $-1 #
coedge $-1 -1 $-1 $281 $546 $520 $293 reversed $389 $-1 #
coedge $-1 -1 $-1 $290 $544 $109 $177 reversed $431 $-1 #
edge $-1 -1 $-1 $282 0 $547 0.1875 $420 $548 forward @7 unknown #
point $-1 -1 $-1 0.1875 -0.5 0 #
coedge $-1 -1 $-1 $285 $284 $430 $549 forward $287 $-1 #
coedge $-1 -1 $-1 $536 $286 $437 $295 forward $264 $-1 #
face $-1 -1 $-1 $550 $287 $26 $-1 $265 forward single #
vertex $-1 -1 $-1 $549 $551 #
straight-curve $-1 -1 $-1 0 0.5 0.1875 -1 0 0 I I #
coedge $-1 -1 $-1 $544 $290 $425 $549 reversed $431 $-1 #
loop $-1 -1 $-1 $-1 $422 $552 #
straight-curve $-1 -1 $-1 0.1875 0.5 0 0 0 -1 I I #
face $-1 -1 $-1 $553 $528 $26 $-1 $434 reversed single #
plane-surface $-1 -1 $-1 0 0.5 0 0 -1 0 0 0 -1 forward_v I I I I #
vertex $-1 -1 $-1 $554 $555 #
vertex $-1 -1 $-1 $295 $556 #
coedge $-1 -1 $-1 $401 $527 $426 $295 reversed $528 $-1 #
plane-surface $-1 -1 $-1 -0.10206379279646649 0.375 -0.10206379279646605 -0.25881199569454294 0 -0.96592771514467268 -0.96592771514467268 0 0.25881199569454294 forward_v I I I I #
coedge $-1 -1 $-1 $557 $558 $319 $461 forward $298 $-1 #
coedge $-1 -1 $-1 $559 $300 $558 $560 reversed $187 $-1 #
coedge $-1 -1 $-1 $300 $559 $301 $445 forward $187 $-1 #
coedge $-1 -1 $-1 $303 $319 $300 $443 reversed $199 $-1 #
edge $-1 -1 $-1 $446 -0.10825499999999993 $561 0.036085000000000082 $300 $562 forward @7 unknown #
coedge $-1 -1 $-1 $302 $301 $563 $564 reversed $114 $-1 #
edge $-1 -1 $-1 $565 0 $446 0.125 $441 $566 forward @7 unknown #
vertex $-1 -1 $-1 $445 $567 #
straight-curve $-1 -1 $-1 -0.0025022714227319748 0.5 0.13008136733975476 -0.96592771514467268 0 0.25881199569454294 I I #
coedge $-1 -1 $-1 $563 $309 $305 $449 forward $454 $-1 #
edge $568 -1 $-1 $312 -0.10825271934035742 $450 0.036085456136540982 $305 $569 forward @7 unknown #
vertex $-1 -1 $-1 $449 $570 #
straight-curve $-1 -1 $-1 0.10206379279646649 0.375 0.10206379279646605 0 1 0 I I #
point $-1 -1 $-1 0.10206379279646649 0.5 0.10206379279646605 #
coedge $-1 -1 $-1 $309 $571 $314 $459 forward $454 $-1 #
loop $-1 -1 $-1 $-1 $453 $464 #
convexity-sys-attrib $-1 -1 $-1 $-1 $310 #
straight-curve $-1 -1 $-1 0.11390429584743511 0.375 -0.062872399449201866 0.70710678118654757 0 0.70710678118654757 I I #
point $-1 -1 $-1 0.13942024404655173 0.375 -0.037356451250085243 #
coedge $-1 -1 $-1 $315 $314 $557 $572 forward $316 $-1 #
edge $573 -1 $-1 $574 -0.10825454387499066 $317 0.036083631601908174 $314 $575 forward @7 unknown #
point $-1 -1 $-1 0.037356451250085243 0.375 -0.13942024404655129 #
edge $-1 -1 $-1 $561 -0.10825271934035742 $462 0.036085456136540982 $439 $576 forward @7 unknown #
vertex $-1 -1 $-1 $572 $577 #
straight-curve $-1 -1 $-1 0.0025022714227319748 0.5 -0.13008136733975476 0.96592771514467268 0 -0.25881199569454294 I I #
face $-1 -1 $-1 $-1 $454 $28 $-1 $578 reversed single #
plane-surface $-1 -1 $-1 1.7347234759768071e-018 0.5 -1.7347234759768071e-018 0 1 0 0 0 1 forward_v I I I I #
plane-surface $-1 -1 $-1 0.1875 0 0 -1 0 0 0 0 1 forward_v I I I I #
coedge $-1 -1 $-1 $330 $328 $332 $471 reversed $204 $-1 #
edge $-1 -1 $-1 $343 -0.1875 $473 0.1875 $342 $579 forward @7 unknown #
vertex $-1 -1 $-1 $471 $580 #
straight-curve $-1 -1 $-1 -0.1875 -0.5 0 0 0 -1 I I #
edge $-1 -1 $-1 $469 -0.5 $473 0.5 $467 $581 forward @7 unknown #
straight-curve $-1 -1 $-1 0 -0.5 -0.1875 -1 0 0 I I #
vertex $-1 -1 $-1 $335 $582 #
straight-curve $-1 -1 $-1 0 0.5 -0.1875 1 0 0 I I #
point $-1 -1 $-1 0.1875 0.5 -0.1875 #
point $-1 -1 $-1 0.1875 -0.5 -0.1875 #
straight-curve $-1 -1 $-1 -0.1875 0 0.1875 0 -1 0 I I #
point $-1 -1 $-1 -0.1875 0.5 0.1875 #
point $-1 -1 $-1 -0.1875 -0.5 0.1875 #
straight-curve $-1 -1 $-1 0.1875 -0.5 0 0 0 -1 I I #
straight-curve $-1 -1 $-1 0.1875 0.5 0 0 0 -1 I I #
model_id-kcp-attrib $-1 -1 $-1 $-1 $353 1 1021323667 1021323667 1760231425 9 #
face $583 -1 $-1 $584 $585 $9 $-1 $586 forward single #
loop $-1 -1 $-1 $587 $588 $353 #
cone-surface $-1 -1 $-1 3.7151000000000001 3.093 5.4142999999999999 0 -1 0 -0.088388347648318419 0 0.088388347648318419 1 I I 0 1 0.12499999999999999 forward I I I I #
edge $589 -1 $-1 $488 -0.14433817547689887 $362 0 $355 $590 forward @7 unknown #
coedge $-1 -1 $-1 $371 $356 $368 $495 reversed $224 $-1 #
vertex $-1 -1 $-1 $357 $591 #
straight-curve $-1 -1 $-1 3.6777435487499148 3.8180100000000001 5.5537202440465512 0 -0.99999999999999989 0 I I #
point $-1 -1 $-1 3.6777435487499148 3.718 5.5537202440465512 #
attrib_edge_convexity-kcp-attrib $-1 -1 $592 $-1 $361 2 #
straight-curve $-1 -1 $-1 3.8545202440465518 3.593 5.3769435487499146 0.25881199569454294 0 -0.96592771514467246 I I #
point $-1 -1 $-1 3.8171637927964666 3.593 5.5163637927964659 #
convexity-sys-attrib $-1 -1 $-1 $365 $234 #
edge $593 -1 $-1 $374 -0.14434 $488 0 $487 $594 forward @7 unknown #
straight-curve $-1 -1 $-1 3.5756797559534483 3.8180100000000001 5.4516564512500851 0 -0.99999999999999989 0 I I #
convexity-sys-attrib $-1 -1 $-1 $373 $243 #
point $-1 -1 $-1 3.5756797559534483 3.593 5.4516564512500851 #
loop $-1 -1 $-1 $595 $378 $584 #
vertex $-1 -1 $-1 $379 $596 #
ellipse-curve $-1 -1 $-1 3.7151000000000001 3.718 5.4142999999999999 0 1 0 -0.13258252147247765 0 0.13258252147247765 1 I I #
loop $-1 -1 $-1 $-1 $597 $252 #
coedge $-1 -1 $-1 $503 $503 $588 $598 forward $381 $-1 #
point $-1 -1 $-1 -0.13258252147247765 0.25 0.13258252147247765 #
face $-1 -1 $-1 $412 $599 $26 $-1 $541 reversed single #
loop $-1 -1 $-1 $-1 $405 $388 #
plane-surface $-1 -1 $-1 -0.1875 0 0 1 0 0 0 0 -1 forward_v I I I I #
coedge $-1 -1 $-1 $392 $391 $171 $272 forward $169 $-1 #
coedge $-1 -1 $-1 $600 $601 $391 $510 forward $602 $-1 #
edge $-1 -1 $-1 $407 -2.3561944901923453 $398 -0.7853981633974485 $509 $185 forward @7 unknown #
coedge $-1 -1 $-1 $603 $604 $392 $512 forward $599 $-1 #
edge $-1 -1 $-1 $399 0.7853981633974485 $276 2.3561944901923453 $511 $278 forward @7 unknown #
coedge $-1 -1 $-1 $605 $393 $604 $525 forward $516 $-1 #
coedge $-1 -1 $-1 $393 $605 $600 $606 forward $516 $-1 #
coedge $-1 -1 $-1 $607 $608 $170 $269 reversed $609 $-1 #
loop $-1 -1 $-1 $-1 $393 $550 #
coedge $-1 -1 $-1 $518 $394 $608 $610 reversed $519 $-1 #
coedge $-1 -1 $-1 $394 $517 $420 $423 reversed $519 $-1 #
loop $-1 -1 $-1 $-1 $394 $611 #
coedge $-1 -1 $-1 $521 $396 $421 $293 forward $522 $-1 #
coedge $-1 -1 $-1 $396 $520 $607 $523 reversed $522 $-1 #
loop $-1 -1 $-1 $-1 $396 $612 #
edge $-1 -1 $-1 $398 0 $435 0.1875 $521 $613 forward @7 unknown #
point $-1 -1 $-1 0 0.5 -0.1875 #
edge $-1 -1 $-1 $399 0 $542 0.1875 $604 $614 forward @7 unknown #
point $-1 -1 $-1 0 -0.5 -0.1875 #
coedge $-1 -1 $-1 $437 $401 $404 $530 reversed $528 $-1 #
loop $-1 -1 $-1 $-1 $401 $433 #
coedge $-1 -1 $-1 $404 $403 $536 $615 reversed $406 $-1 #
edge $-1 -1 $-1 $436 -0.1875 $407 0 $527 $616 forward @7 unknown #
coedge $-1 -1 $-1 $617 $405 $601 $534 forward $506 $-1 #
coedge $-1 -1 $-1 $405 $617 $603 $413 reversed $506 $-1 #
face $-1 -1 $-1 $552 $406 $26 $-1 $507 reversed single #
edge $-1 -1 $-1 $407 0 $618 0.1875 $601 $616 forward @7 unknown #
point $-1 -1 $-1 -0.1875 0.5 0 #
coedge $-1 -1 $-1 $409 $426 $529 $615 forward $264 $-1 #
vertex $-1 -1 $-1 $615 $619 #
straight-curve $-1 -1 $-1 0 -0.5 0.1875 1 0 0 I I #
straight-curve $-1 -1 $-1 -0.1875 -0.5 0 0 0 -1 I I #
face $-1 -1 $-1 $611 $419 $26 $-1 $541 reversed single #
plane-surface $-1 -1 $-1 0 -0.5 0 0 1 0 0 0 1 forward_v I I I I #
vertex $-1 -1 $-1 $620 $621 #
vertex $-1 -1 $-1 $549 $622 #
coedge $-1 -1 $-1 $422 $430 $417 $545 forward $431 $-1 #
edge $-1 -1 $-1 $543 -0.1875 $282 0 $544 $548 forward @7 unknown #
coedge $-1 -1 $-1 $421 $420 $623 $554 reversed $389 $-1 #
vertex $-1 -1 $-1 $423 $624 #
straight-curve $-1 -1 $-1 0.1875 -0.5 0 0 0 -1 I I #
edge $-1 -1 $-1 $543 -0.5 $428 0.5 $430 $625 forward @7 unknown #
face $-1 -1 $-1 $533 $516 $26 $-1 $626 reversed single #
point $-1 -1 $-1 0.1875 0.5 0.1875 #
face $-1 -1 $-1 $-1 $431 $26 $-1 $390 reversed single #
face $-1 -1 $-1 $627 $602 $26 $-1 $434 reversed single #
edge $-1 -1 $-1 $435 -0.5 $547 0.5 $546 $628 forward @7 unknown #
point $-1 -1 $-1 0.1875 0.5 -0.1875 #
point $-1 -1 $-1 -0.1875 0.5 0.1875 #
coedge $-1 -1 $-1 $629 $439 $458 $572 reversed $298 $-1 #
coedge $-1 -1 $-1 $439 $629 $440 $560 forward $298 $-1 #
coedge $-1 -1 $-1 $441 $440 $630 $631 reversed $187 $-1 #
edge $-1 -1 $-1 $632 0 $561 0.125 $558 $633 forward @7 unknown #
vertex $-1 -1 $-1 $560 $634 #
straight-curve $-1 -1 $-1 -0.11390429584743511 0.5 0.062872399449201866 -0.70710678118654757 0 -0.70710678118654757 I I #
coedge $-1 -1 $-1 $630 $448 $444 $564 forward $454 $-1 #
edge $635 -1 $-1 $450 -0.10825454387499066 $565 0.036083631601908174 $444 $636 forward @7 unknown #
vertex $-1 -1 $-1 $564 $637 #
straight-curve $-1 -1 $-1 -0.037356451250085243 0.375 0.13942024404655129 0 1 0 I I #
point $-1 -1 $-1 -0.037356451250085243 0.5 0.13942024404655129 #
convexity-sys-attrib $-1 -1 $-1 $-1 $449 #
straight-curve $-1 -1 $-1 0.11140314171471255 0.375 0.067207850600543712 -0.25881199569454294 0 0.96592771514467268 I I #
point $-1 -1 $-1 0.10206379279646649 0.375 0.10206379279646605 #
coedge $-1 -1 $-1 $453 $630 $629 $638 forward $454 $-1 #
edge $-1 -1 $-1 $574 0 $462 0.125 $458 $639 forward @7 unknown #
convexity-sys-attrib $-1 -1 $-1 $-1 $459 #
vertex $-1 -1 $-1 $459 $640 #
straight-curve $-1 -1 $-1 0.0025022714227319748 0.375 -0.13008136733975476 0.96592771514467268 0 -0.25881199569454294 I I #
straight-curve $-1 -1 $-1 -0.11140314171471255 0.5 -0.067207850600543712 0.25881199569454294 0 -0.96592771514467268 I I #
point $-1 -1 $-1 -0.10206379279646649 0.5 -0.10206379279646605 #
plane-surface $-1 -1 $-1 1.7347234759768071e-018 0.375 -1.7347234759768071e-018 0 1 0 0 0 1 forward_v I I I I #
straight-curve $-1 -1 $-1 -0.1875 0.5 0 0 0 -1 I I #
point $-1 -1 $-1 -0.1875 -0.5 -0.1875 #
straight-curve $-1 -1 $-1 -0.1875 0 -0.1875 0 1 0 I I #
point $-1 -1 $-1 -0.1875 0.5 -0.1875 #
model_id-kcp-attrib $-1 -1 $-1 $-1 $483 1 1021323667 1021323667 1760231425 10 #
face $641 -1 $-1 $155 $499 $9 $-1 $642 forward single #
loop $-1 -1 $-1 $-1 $643 $483 #
plane-surface $-1 -1 $-1 3.7151000000000001 2.718 5.4142999999999999 0 -1 0 -0.70710678118654735 0 0.70710678118654735 forward_v I I I I #
loop $-1 -1 $-1 $-1 $644 $353 #
coedge $-1 -1 $-1 $588 $588 $503 $598 reversed $484 $-1 #
attrib_edge_convexity-kcp-attrib $-1 -1 $645 $-1 $486 2 #
straight-curve $-1 -1 $-1 3.8171637927964666 3.593 5.5163637927964659 0.96592771514467246 0 -0.25881199569454294 I I #
point $-1 -1 $-1 3.6777435487499148 3.593 5.5537202440465512 #
convexity-sys-attrib $-1 -1 $-1 $491 $361 #
attrib_edge_convexity-kcp-attrib $-1 -1 $646 $-1 $495 2 #
straight-curve $-1 -1 $-1 3.6777435487499148 3.593 5.5537202440465512 0.70710678118654735 0 0.70710678118654735 I I #
loop $-1 -1 $-1 $-1 $647 $584 #
point $-1 -1 $-1 3.5825174785275222 3.718 5.5468825214724777 #
coedge $-1 -1 $-1 $597 $597 $647 $648 forward $502 $-1 #
edge $649 -1 $-1 $650 0 $650 6.2831853071795862 $503 $651 forward @7 unknown #
loop $-1 -1 $-1 $-1 $511 $505 #
coedge $-1 -1 $-1 $601 $509 $514 $606 reversed $602 $-1 #
coedge $-1 -1 $-1 $509 $600 $531 $534 reversed $602 $-1 #
loop $-1 -1 $-1 $-1 $509 $553 #
coedge $-1 -1 $-1 $604 $511 $532 $413 forward $599 $-1 #
coedge $-1 -1 $-1 $511 $603 $513 $525 reversed $599 $-1 #
coedge $-1 -1 $-1 $514 $513 $617 $620 forward $516 $-1 #
edge $-1 -1 $-1 $618 -0.1875 $398 0 $600 $613 forward @7 unknown #
coedge $-1 -1 $-1 $623 $515 $521 $523 forward $609 $-1 #
coedge $-1 -1 $-1 $515 $623 $517 $610 forward $609 $-1 #
loop $-1 -1 $-1 $-1 $515 $627 #
edge $-1 -1 $-1 $547 -0.1875 $399 0 $517 $614 forward @7 unknown #
face $-1 -1 $-1 $612 $519 $26 $-1 $541 reversed single #
face $-1 -1 $-1 $292 $522 $26 $-1 $434 reversed single #
straight-curve $-1 -1 $-1 0 0.5 -0.1875 1 0 0 I I #
straight-curve $-1 -1 $-1 0 -0.5 -0.1875 -1 0 0 I I #
edge $-1 -1 $-1 $436 -0.5 $537 0.5 $529 $652 forward @7 unknown #
straight-curve $-1 -1 $-1 -0.1875 0.5 0 0 0 -1 I I #
coedge $-1 -1 $-1 $532 $531 $605 $620 reversed $506 $-1 #
vertex $-1 -1 $-1 $606 $653 #
point $-1 -1 $-1 -0.1875 -0.5 0.1875 #
edge $-1 -1 $-1 $542 -0.5 $618 0.5 $617 $654 forward @7 unknown #
point $-1 -1 $-1 -0.1875 -0.5 -0.1875 #
point $-1 -1 $-1 0.1875 -0.5 0.1875 #
coedge $-1 -1 $-1 $608 $607 $546 $554 forward $609 $-1 #
point $-1 -1 $-1 0.1875 -0.5 -0.1875 #
straight-curve $-1 -1 $-1 0.1875 0 0.1875 0 1 0 I I #
plane-surface $-1 -1 $-1 0 0 -0.1875 0 0 1 1 0 0 forward_v I I I I #
face $-1 -1 $-1 $427 $609 $26 $-1 $626 reversed single #
straight-curve $-1 -1 $-1 0.1875 0 -0.1875 0 -1 0 I I #
coedge $-1 -1 $-1 $558 $557 $571 $638 reversed $298 $-1 #
coedge $-1 -1 $-1 $571 $563 $559 $631 forward $454 $-1 #
edge $655 -1 $-1 $565 -0.10825499999999993 $632 0.036085000000000082 $559 $656 forward @7 unknown #
vertex $-1 -1 $-1 $631 $657 #
straight-curve $-1 -1 $-1 -0.13942024404655173 0.375 0.037356451250085243 0 1 0 I I #
point $-1 -1 $-1 -0.13942024404655173 0.5 0.037356451250085243 #
convexity-sys-attrib $-1 -1 $-1 $-1 $564 #
straight-curve $-1 -1 $-1 -0.0025022714227319748 0.375 0.13008136733975476 -0.96592771514467268 0 0.25881199569454294 I I #
point $-1 -1 $-1 -0.037356451250085243 0.375 0.13942024404655129 #
edge $658 -1 $-1 $632 -0.10825271934035742 $574 0.036085456136540982 $629 $659 forward @7 unknown #
straight-curve $-1 -1 $-1 -0.10206379279646649 0.375 -0.10206379279646605 0 1 0 I I #
point $-1 -1 $-1 -0.10206379279646649 0.375 -0.10206379279646605 #
model_id-kcp-attrib $-1 -1 $-1 $-1 $584 1 1021323667 1021323667 1760231425 11 #
cone-surface $-1 -1 $-1 3.7151000000000001 3.593 5.4142999999999999 0 -1 0 -0.13258252147247765 0 0.13258252147247765 1 I I 0 1 0.1875 forward I I I I #
coedge $-1 -1 $-1 $643 $643 $644 $660 forward $585 $-1 #
coedge $-1 -1 $-1 $644 $644 $643 $660 reversed $587 $-1 #
convexity-sys-attrib $-1 -1 $-1 $589 $486 #
convexity-sys-attrib $-1 -1 $-1 $593 $495 #
coedge $-1 -1 $-1 $647 $647 $597 $648 reversed $595 $-1 #
edge $661 -1 $-1 $662 0 $662 6.2831853071795862 $597 $663 forward @7 unknown #
attrib_edge_convexity-kcp-attrib $-1 -1 $664 $-1 $598 2 #
vertex $-1 -1 $-1 $598 $665 #
ellipse-curve $-1 -1 $-1 3.7151000000000001 3.468 5.4142999999999999 0 1 0 -0.088388347648318419 0 0.088388347648318419 1 I I #
straight-curve $-1 -1 $-1 -0.1875 0 0.1875 0 -1 0 I I #
point $-1 -1 $-1 -0.1875 0.5 -0.1875 #
straight-curve $-1 -1 $-1 -0.1875 0 -0.1875 0 1 0 I I #
convexity-sys-attrib $-1 -1 $-1 $-1 $631 #
straight-curve $-1 -1 $-1 -0.11390429584743511 0.375 0.062872399449201866 -0.70710678118654757 0 -0.70710678118654757 I I #
point $-1 -1 $-1 -0.13942024404655173 0.375 0.037356451250085243 #
convexity-sys-attrib $-1 -1 $-1 $-1 $638 #
straight-curve $-1 -1 $-1 -0.11140314171471255 0.375 -0.067207850600543712 0.25881199569454294 0 -0.96592771514467268 I I #
edge $666 -1 $-1 $667 0 $667 6.2831853071795862 $643 $668 forward @7 unknown #
attrib_edge_convexity-kcp-attrib $-1 -1 $669 $-1 $648 1 #
vertex $-1 -1 $-1 $648 $670 #
ellipse-curve $-1 -1 $-1 3.7151000000000001 3.468 5.4142999999999999 0 -1 0 -0.13258252147247765 0 0.13258252147247765 1 I I #
convexity-sys-attrib $-1 -1 $-1 $649 $598 #
point $-1 -1 $-1 3.6267116523516818 3.468 5.5026883476483182 #
attrib_edge_convexity-kcp-attrib $-1 -1 $671 $-1 $660 1 #
vertex $-1 -1 $-1 $660 $672 #
ellipse-curve $-1 -1 $-1 3.7151000000000001 2.718 5.4142999999999999 0 -1 0 -0.088388347648318419 0 0.088388347648318419 1 I I #
convexity-sys-attrib $-1 -1 $-1 $661 $648 #
point $-1 -1 $-1 3.5825174785275222 3.468 5.5468825214724777 #
convexity-sys-attrib $-1 -1 $-1 $666 $660 #
point $-1 -1 $-1 3.6267116523516818 2.718 5.5026883476483182 #
End-of-ACIS-data 