106 0 1 0           
body $-1 $1 $-1 $2 #
lump $-1 $-1 $3 $0 #
transform $-1 1 0 0 0 1 0 0 0 1 0.40597000000000005 -3.1900000000000004 -4.0099900000000002 0.99999999999999944 0 0 0 #
shell $-1 $-1 $-1 $4 $1 #
face $-1 $5 $6 $3 $-1 $7 reversed single #
face $-1 $8 $9 $3 $-1 $10 reversed single #
loop $-1 $-1 $11 $4 #
plane-surface $-1 -0.034999999999999996 -0.010009999999999996 -0.12799999999999995 0 0 -1 -1 0 0 0 I I I I #
face $-1 $12 $13 $3 $-1 $14 reversed single #
loop $-1 $-1 $15 $5 #
plane-surface $-1 -0.034999999999999996 -0.010009999999999996 -0.040999999999999967 -1 0 0 0 0 1 0 I I I I #
coedge $-1 $16 $17 $18 $19 1 $6 $-1 #
face $-1 $20 $21 $3 $-1 $22 reversed single #
loop $-1 $-1 $23 $8 #
plane-surface $-1 -0.12199999999999997 -0.010009999999999996 -0.040999999999999967 0 0 -1 -1 0 0 0 I I I I #
coedge $-1 $24 $25 $26 $27 1 $9 $-1 #
coedge $-1 $28 $11 $29 $30 0 $6 $-1 #
coedge $-1 $11 $28 $24 $31 1 $6 $-1 #
coedge $-1 $26 $32 $11 $19 0 $33 $-1 #
edge $-1 $34 $35 $18 $36 0 #
face $-1 $37 $38 $3 $-1 $39 reversed single #
loop $-1 $-1 $40 $12 #
plane-surface $-1 -0.12199999999999997 -0.010009999999999996 0.035000000000000003 -1 0 0 0 0 1 0 I I I I #
coedge $-1 $41 $42 $43 $44 1 $13 $-1 #
coedge $-1 $45 $15 $17 $31 0 $9 $-1 #
coedge $-1 $15 $45 $41 $46 1 $9 $-1 #
coedge $-1 $43 $18 $15 $27 0 $33 $-1 #
edge $-1 $35 $47 $26 $48 0 #
coedge $-1 $17 $16 $49 $50 1 $6 $-1 #
coedge $-1 $51 $52 $16 $30 1 $53 $-1 #
edge $-1 $34 $54 $29 $55 0 #
edge $-1 $35 $56 $17 $57 0 #
coedge $-1 $18 $58 $51 $59 0 $33 $-1 #
loop $-1 $60 $61 $62 #
vertex $-1 $19 $63 #
vertex $-1 $27 $64 #
straight-curve $-1 -0.017499999999999998 0 -0.12799999999999995 -1 0 0 I I #
face $-1 $65 $66 $3 $-1 $67 reversed single #
loop $-1 $-1 $68 $20 #
plane-surface $-1 -0.034999999999999996 -0.010009999999999996 0.035000000000000003 0 0 1 1 0 0 0 I I I I #
coedge $-1 $69 $70 $71 $72 1 $21 $-1 #
coedge $-1 $73 $23 $25 $46 0 $13 $-1 #
coedge $-1 $23 $73 $69 $74 1 $13 $-1 #
coedge $-1 $71 $26 $23 $44 0 $33 $-1 #
edge $-1 $47 $75 $43 $76 0 #
coedge $-1 $25 $24 $77 $78 1 $9 $-1 #
edge $-1 $47 $79 $25 $80 0 #
vertex $-1 $44 $81 #
straight-curve $-1 -0.034999999999999996 0 -0.020499999999999984 0 0 1 I I #
coedge $-1 $82 $77 $28 $50 0 $83 $-1 #
edge $-1 $56 $54 $28 $84 0 #
coedge $-1 $85 $29 $32 $59 1 $53 $-1 #
coedge $-1 $29 $85 $82 $86 1 $53 $-1 #
loop $-1 $-1 $51 $87 #
vertex $-1 $30 $88 #
straight-curve $-1 0.040999999999999988 -0.010009999999999996 -0.12799999999999995 0 1 0 I I #
vertex $-1 $31 $89 #
straight-curve $-1 -0.034999999999999996 -0.010009999999999996 -0.12799999999999995 0 1 0 I I #
coedge $-1 $32 $90 $91 $92 0 $33 $-1 #
edge $-1 $93 $34 $32 $94 0 #
loop $-1 $-1 $95 $62 #
coedge $-1 $96 $97 $98 $99 0 $33 $-1 #
face $-1 $100 $33 $3 $-1 $101 forward single #
point $-1 0.040999999999999988 0 -0.12799999999999995 #
point $-1 -0.034999999999999996 0 -0.12799999999999995 #
face $-1 $87 $102 $3 $-1 $103 reversed single #
loop $-1 $-1 $104 $37 #
plane-surface $-1 -0.034999999999999996 -0.010009999999999996 0.12499999999999999 -1 0 0 0 0 1 0 I I I I #
coedge $-1 $105 $106 $107 $108 1 $38 $-1 #
coedge $-1 $109 $40 $42 $74 0 $21 $-1 #
coedge $-1 $40 $109 $105 $110 1 $21 $-1 #
coedge $-1 $107 $43 $40 $72 0 $33 $-1 #
edge $-1 $75 $111 $71 $112 0 #
coedge $-1 $42 $41 $113 $114 1 $13 $-1 #
edge $-1 $75 $115 $42 $116 0 #
vertex $-1 $72 $117 #
straight-curve $-1 -0.060999999999999985 0 -0.040999999999999967 -1 0 0 I I #
coedge $-1 $49 $113 $45 $78 0 $83 $-1 #
edge $-1 $79 $56 $45 $118 0 #
vertex $-1 $46 $119 #
straight-curve $-1 -0.034999999999999996 -0.010009999999999996 -0.040999999999999967 0 1 0 I I #
point $-1 -0.034999999999999996 0 -0.040999999999999967 #
coedge $-1 $120 $49 $52 $86 0 $83 $-1 #
loop $-1 $-1 $121 $122 #
straight-curve $-1 0.040999999999999988 0.060000000000000019 -0.12799999999999995 0.99999999999999967 0 0 I I #
coedge $-1 $52 $51 $123 $124 0 $53 $-1 #
edge $-1 $54 $125 $52 $126 0 #
face $-1 $127 $53 $3 $-1 $128 reversed single #
point $-1 0.040999999999999988 0.060000000000000019 -0.12799999999999995 #
point $-1 -0.034999999999999996 0.060000000000000019 -0.12799999999999995 #
coedge $-1 $58 $129 $130 $131 0 $33 $-1 #
coedge $-1 $132 $123 $58 $92 1 $133 $-1 #
edge $-1 $134 $93 $58 $135 0 #
vertex $-1 $59 $136 #
straight-curve $-1 0.040999999999999988 0 -0.063999999999999974 0 0 -1 I I #
coedge $-1 $95 $95 $137 $138 0 $60 $-1 #
coedge $-1 $129 $61 $139 $140 0 $33 $-1 #
coedge $-1 $61 $107 $104 $141 0 $33 $-1 #
coedge $-1 $142 $143 $61 $99 1 $102 $-1 #
edge $-1 $144 $145 $61 $146 0 #
face $-1 $-1 $147 $3 $-1 $148 forward single #
plane-surface $-1 0 0 0 0 -1 0 0 0 -0.99999999999999933 0 I I I I #
loop $-1 $-1 $98 $65 #
plane-surface $-1 0.037999999999999985 -0.010009999999999996 0.12499999999999999 0 0 1 1 0 0 0 I I I I #
coedge $-1 $149 $150 $97 $141 1 $66 $-1 #
coedge $-1 $151 $68 $70 $110 0 $38 $-1 #
coedge $-1 $68 $151 $149 $152 1 $38 $-1 #
coedge $-1 $97 $71 $68 $108 0 $33 $-1 #
edge $-1 $111 $153 $107 $154 0 #
coedge $-1 $70 $69 $155 $156 1 $21 $-1 #
edge $-1 $111 $157 $70 $158 0 #
vertex $-1 $108 $159 #
straight-curve $-1 -0.12199999999999997 0 0.017500000000000002 0 0 1 I I #
coedge $-1 $77 $155 $73 $114 0 $83 $-1 #
edge $-1 $115 $79 $73 $160 0 #
vertex $-1 $74 $161 #
straight-curve $-1 -0.12199999999999997 -0.010009999999999996 -0.040999999999999967 0 1 0 I I #
point $-1 -0.12199999999999997 0 -0.040999999999999967 #
straight-curve $-1 -0.034999999999999996 0.060000000000000019 -0.12799999999999995 0 0 -0.99999999999999967 I I #
point $-1 -0.034999999999999996 0.060000000000000019 -0.040999999999999967 #
coedge $-1 $162 $82 $163 $164 0 $83 $-1 #
coedge $-1 $165 $166 $167 $168 0 $83 $-1 #
face $-1 $169 $83 $3 $-1 $170 reversed single #
coedge $-1 $91 $163 $85 $124 1 $133 $-1 #
edge $-1 $93 $125 $123 $171 0 #
vertex $-1 $124 $172 #
straight-curve $-1 0.040999999999999988 0.060000000000000019 -0.040999999999999967 0 0 0.99999999999999967 I I #
face $-1 $173 $133 $3 $-1 $174 reversed single #
plane-surface $-1 0.040999999999999988 -0.010009999999999996 -0.12799999999999995 1 0 0 0 0 -1 0 I I I I #
coedge $-1 $90 $96 $175 $176 0 $33 $-1 #
coedge $-1 $177 $178 $90 $131 1 $179 $-1 #
edge $-1 $180 $134 $90 $181 0 #
coedge $-1 $163 $91 $178 $182 0 $133 $-1 #
loop $-1 $-1 $91 $127 #
vertex $-1 $92 $183 #
straight-curve $-1 0.020499999999999994 0 -0.040999999999999967 -1 0 0 I I #
point $-1 0.040999999999999988 0 -0.040999999999999967 #
coedge $-1 $137 $137 $95 $138 1 $184 $-1 #
edge $-1 $185 $185 $95 $186 0 #
coedge $-1 $187 $188 $96 $140 1 $189 $-1 #
edge $-1 $145 $190 $96 $191 0 #
edge $-1 $153 $144 $97 $192 0 #
coedge $-1 $167 $98 $150 $193 0 $102 $-1 #
coedge $-1 $98 $167 $187 $194 1 $102 $-1 #
vertex $-1 $99 $195 #
vertex $-1 $99 $196 #
straight-curve $-1 0.018999999999999993 0 0.12499999999999999 1 0 0 I I #
loop $-1 $197 $198 $100 #
plane-surface $-1 0 0.24999999999999983 0 0 1 0 0 0 0.99999999999999933 0 I I I I #
coedge $-1 $199 $104 $106 $152 0 $66 $-1 #
coedge $-1 $104 $199 $142 $193 1 $66 $-1 #
coedge $-1 $106 $105 $200 $201 1 $38 $-1 #
edge $-1 $153 $202 $106 $203 0 #
vertex $-1 $141 $204 #
straight-curve $-1 -0.017499999999999998 0 0.035000000000000003 1 0 0 I I #
coedge $-1 $113 $200 $109 $156 0 $83 $-1 #
edge $-1 $157 $115 $109 $205 0 #
vertex $-1 $110 $206 #
straight-curve $-1 -0.12199999999999997 -0.010009999999999996 0.035000000000000003 0 1 0 I I #
point $-1 -0.12199999999999997 0 0.035000000000000003 #
straight-curve $-1 -0.034999999999999996 0.060000000000000019 -0.040999999999999967 0.99999999999999967 0 0 I I #
point $-1 -0.12199999999999997 0.060000000000000019 -0.040999999999999967 #
coedge $-1 $207 $120 $208 $209 0 $83 $-1 #
coedge $-1 $123 $132 $120 $164 1 $133 $-1 #
edge $-1 $125 $210 $163 $211 0 #
coedge $-1 $200 $121 $199 $212 0 $83 $-1 #
coedge $-1 $121 $207 $213 $214 0 $83 $-1 #
coedge $-1 $143 $142 $121 $168 1 $102 $-1 #
edge $-1 $215 $216 $167 $217 0 #
face $-1 $218 $219 $3 $-1 $220 forward single #
plane-surface $-1 0.037999999999999985 0.060000000000000019 0.12499999999999999 0 1 0 0 0 1 0 I I I I #
straight-curve $-1 0.040999999999999988 -0.010009999999999996 -0.040999999999999967 0 1 0 I I #
point $-1 0.040999999999999988 0.060000000000000019 -0.040999999999999967 #
face $-1 $221 $179 $3 $-1 $222 reversed single #
plane-surface $-1 0.040999999999999988 -0.010009999999999996 -0.040999999999999967 0 0 -1 -1 0 0 0 I I I I #
coedge $-1 $223 $224 $129 $176 1 $225 $-1 #
edge $-1 $190 $180 $129 $226 0 #
coedge $-1 $208 $130 $224 $227 0 $179 $-1 #
coedge $-1 $130 $208 $132 $182 1 $179 $-1 #
loop $-1 $-1 $130 $173 #
vertex $-1 $131 $228 #
straight-curve $-1 0.12799999999999995 0 -0.020499999999999984 0 0 -1 I I #
edge $-1 $134 $210 $178 $229 0 #
point $-1 0.12799999999999995 0 -0.040999999999999967 #
loop $-1 $230 $137 $231 #
vertex $-1 $138 $232 #
ellipse-curve $-1 0 0 0 0 -1 0 0 0 0.18749999999999989 1 I I #
coedge $-1 $213 $139 $143 $194 0 $189 $-1 #
coedge $-1 $139 $213 $223 $233 1 $189 $-1 #
loop $-1 $-1 $139 $234 #
vertex $-1 $176 $235 #
straight-curve $-1 0.037999999999999985 0 0.017500000000000002 0 0 -1 I I #
straight-curve $-1 -0.034999999999999996 0 0.062499999999999993 0 0 1 I I #
edge $-1 $144 $216 $150 $236 0 #
edge $-1 $145 $215 $143 $237 0 #
point $-1 -0.034999999999999996 0 0.12499999999999999 #
point $-1 0.037999999999999985 0 0.12499999999999999 #
loop $-1 $-1 $238 $100 #
coedge $-1 $198 $198 $239 $240 0 $147 $-1 #
coedge $-1 $150 $149 $165 $212 1 $66 $-1 #
coedge $-1 $155 $165 $151 $201 0 $83 $-1 #
edge $-1 $202 $157 $151 $241 0 #
vertex $-1 $152 $242 #
straight-curve $-1 -0.034999999999999996 -0.010009999999999996 0.035000000000000003 0 1 0 I I #
point $-1 -0.034999999999999996 0 0.035000000000000003 #
straight-curve $-1 -0.12199999999999997 0.060000000000000019 -0.040999999999999967 0 0 -0.99999999999999967 I I #
point $-1 -0.12199999999999997 0.060000000000000019 0.035000000000000003 #
coedge $-1 $166 $162 $243 $244 0 $83 $-1 #
coedge $-1 $178 $177 $162 $209 1 $179 $-1 #
edge $-1 $210 $245 $208 $246 0 #
vertex $-1 $182 $247 #
straight-curve $-1 0.12799999999999995 0.060000000000000019 -0.040999999999999967 0.99999999999999967 0 0 I I #
edge $-1 $216 $202 $199 $248 0 #
coedge $-1 $188 $187 $166 $214 1 $189 $-1 #
edge $-1 $249 $215 $213 $250 0 #
vertex $-1 $194 $251 #
vertex $-1 $193 $252 #
straight-curve $-1 -0.034999999999999996 0.060000000000000019 0.12499999999999999 -0.99999999999999967 0 0 I I #
face $-1 $231 $253 $3 $-1 $254 forward single #
loop $-1 $255 $239 $169 #
cone-surface $-1 0 0.81249999999999978 0 0 1 0 0 0 0.12499999999999992 1 I I 0 1 0 I I I I #
face $-1 $234 $225 $3 $-1 $256 reversed single #
plane-surface $-1 0.12799999999999995 -0.010009999999999996 -0.040999999999999967 1 0 0 0 0 -1 0 I I I I #
coedge $-1 $243 $175 $188 $233 0 $225 $-1 #
coedge $-1 $175 $243 $177 $227 1 $225 $-1 #
loop $-1 $-1 $175 $221 #
straight-curve $-1 0.063999999999999974 0 0.035000000000000003 1 0 0 I I #
edge $-1 $180 $245 $224 $257 0 #
point $-1 0.12799999999999995 0 0.035000000000000003 #
straight-curve $-1 0.12799999999999995 -0.010009999999999996 -0.040999999999999967 0 1 0 I I #
loop $-1 $-1 $258 $231 #
face $-1 $62 $184 $3 $-1 $259 forward single #
point $-1 0 0 0.18749999999999989 #
edge $-1 $190 $249 $188 $260 0 #
face $-1 $122 $189 $3 $-1 $261 reversed single #
point $-1 0.037999999999999985 0 0.035000000000000003 #
straight-curve $-1 -0.034999999999999996 -0.010009999999999996 0.12499999999999999 0 1 0 I I #
straight-curve $-1 0.037999999999999985 -0.010009999999999996 0.12499999999999999 0 1 0 I I #
coedge $-1 $238 $238 $258 $262 0 $197 $-1 #
coedge $-1 $239 $239 $198 $240 1 $219 $-1 #
edge $-1 $263 $263 $198 $264 0 #
straight-curve $-1 -0.12199999999999997 0.060000000000000019 0.035000000000000003 -0.99999999999999967 0 0 I I #
point $-1 -0.034999999999999996 0.060000000000000019 0.035000000000000003 #
coedge $-1 $224 $223 $207 $244 1 $225 $-1 #
edge $-1 $245 $249 $243 $265 0 #
vertex $-1 $227 $266 #
straight-curve $-1 0.12799999999999995 0.060000000000000019 0.035000000000000003 0 0 0.99999999999999967 I I #
point $-1 0.12799999999999995 0.060000000000000019 -0.040999999999999967 #
straight-curve $-1 -0.034999999999999996 0.060000000000000019 0.035000000000000003 0 0 -0.99999999999999967 I I #
vertex $-1 $233 $267 #
straight-curve $-1 0.037999999999999985 0.060000000000000019 0.12499999999999999 0 0 0.99999999999999967 I I #
point $-1 0.037999999999999985 0.060000000000000019 0.12499999999999999 #
point $-1 -0.034999999999999996 0.060000000000000019 0.12499999999999999 #
loop $-1 $-1 $268 $218 #
plane-surface $-1 0 1.3749999999999996 0 0 1 0 0 0 0.99999999999999933 0 I I I I #
loop $-1 $-1 $269 $169 #
plane-surface $-1 0.12799999999999995 -0.010009999999999996 0.035000000000000003 0 0 1 1 0 0 0 I I I I #
straight-curve $-1 0.12799999999999995 -0.010009999999999996 0.035000000000000003 0 1 0 I I #
coedge $-1 $258 $258 $238 $262 1 $230 $-1 #
cone-surface $-1 0 0.12499999999999992 0 0 1 0 0 0 0.18749999999999989 1 I I 0 1 0 I I I I #
straight-curve $-1 0.037999999999999985 -0.010009999999999996 0.035000000000000003 0 1 0 I I #
plane-surface $-1 0.037999999999999985 -0.010009999999999996 0.035000000000000003 1 0 0 0 0 -1 0 I I I I #
edge $-1 $270 $270 $238 $271 0 #
vertex $-1 $240 $272 #
ellipse-curve $-1 0 0.24999999999999983 0 0 -1 0 0 0 0.12499999999999992 1 I I #
straight-curve $-1 0.037999999999999985 0.060000000000000019 0.035000000000000003 -0.99999999999999967 0 0 I I #
point $-1 0.12799999999999995 0.060000000000000019 0.035000000000000003 #
point $-1 0.037999999999999985 0.060000000000000019 0.035000000000000003 #
coedge $-1 $268 $268 $269 $273 0 $253 $-1 #
coedge $-1 $269 $269 $268 $273 1 $255 $-1 #
vertex $-1 $262 $274 #
ellipse-curve $-1 0 0.24999999999999983 0 0 1 0 0 0 0.18749999999999989 1 I I #
point $-1 0 0.25000000000000017 0.12499999999999992 #
edge $-1 $275 $275 $268 $276 0 #
point $-1 0 0.24999999999999983 0.18749999999999989 #
vertex $-1 $273 $277 #
ellipse-curve $-1 0 1.3749999999999996 0 0 1 0 0 0 0.12499999999999992 1 I I #
point $-1 0 1.3749999999999996 0.12499999999999992 #
End-of-ACIS-data 