700 0 2 0           
24 FBMach with ACIS - 7.0.3 13 ACIS 7.0.3 NT 24 Mon May 13 17:02:50 2002 
1 9.9999999999999995e-007 1e-010 
body $2 -1 $-1 $3 $-1 $4 #
bdycol-kcp $-1 -1 1 3 $5 $6 $7 #
model_id-kcp-attrib $-1 -1 $-1 $-1 $0 1 1021323769 1021323769 -916455423 1 #
lump $-1 -1 $-1 $-1 $8 $0 #
transform $-1 -1 1 0 0 0 1 0 0 0 1 0 0 0 1 rotate no_reflect no_shear #
body $9 -1 $-1 $10 $-1 $11 #
body $12 -1 $-1 $13 $-1 $14 #
body $15 -1 $-1 $16 $-1 $17 #
shell $-1 -1 $-1 $-1 $-1 $18 $-1 $3 #
rgb_color-st-attrib $-1 -1 $19 $-1 $5 0 0 1 #
lump $-1 -1 $-1 $-1 $20 $5 #
transform $-1 -1 1 0 0 0 1 0 0 0 1 0.35352000000000006 2.8688800000000003 0.77144000000000001 1 no_rotate no_reflect no_shear #
model_id-kcp-attrib $-1 -1 $-1 $-1 $6 1 1021323769 1021323769 -916455422 1 #
lump $-1 -1 $-1 $-1 $21 $6 #
transform $-1 -1 1 0 0 0 1 0 0 0 1 0.35352000000000006 2.8688800000000003 0.77144000000000001 1 no_rotate no_reflect no_shear #
rgb_color-st-attrib $-1 -1 $22 $-1 $7 1 0.5 1 #
lump $-1 -1 $-1 $-1 $23 $7 #
transform $-1 -1 1 0 0 0 1 0 0 0 1 0.35352000000000006 2.8688800000000003 0.77144000000000001 1 no_rotate no_reflect no_shear #
face $24 -1 $-1 $25 $26 $8 $-1 $27 reversed single #
model_id-kcp-attrib $-1 -1 $-1 $9 $5 1 1021323769 1021323769 -922484733 1 #
shell $-1 -1 $-1 $-1 $-1 $28 $-1 $10 #
shell $-1 -1 $-1 $-1 $-1 $29 $-1 $13 #
model_id-kcp-attrib $-1 -1 $-1 $15 $7 1 1021323769 1021323769 -914620412 1 #
shell $-1 -1 $-1 $-1 $-1 $30 $-1 $16 #
model_id-kcp-attrib $-1 -1 $-1 $-1 $18 1 1021323769 1021323769 -916455423 2 #
face $31 -1 $-1 $32 $33 $8 $-1 $34 reversed single #
loop $-1 -1 $-1 $-1 $35 $18 #
plane-surface $-1 -1 $-1 0.33012000000000008 3.13504 0.86513999999999991 0 0 1 -0.99999999999999944 0 0 forward_v I I I I #
face $-1 -1 $-1 $36 $37 $20 $-1 $38 forward single #
face $-1 -1 $-1 $39 $40 $21 $-1 $41 forward single #
face $-1 -1 $-1 $42 $43 $23 $-1 $44 forward single #
model_id-kcp-attrib $-1 -1 $-1 $-1 $25 1 1021323769 1021323769 -916455423 3 #
face $45 -1 $-1 $46 $47 $8 $-1 $48 reversed single #
loop $-1 -1 $-1 $-1 $49 $25 #
plane-surface $-1 -1 $-1 0.33012000000000008 3.13504 0.79483999999999999 -1 0 0 0 0 -0.99999999999999944 forward_v I I I I #
coedge $-1 -1 $-1 $50 $51 $52 $53 reversed $26 $-1 #
face $-1 -1 $-1 $54 $55 $20 $-1 $56 forward single #
loop $-1 -1 $-1 $-1 $57 $28 #
plane-surface $-1 -1 $-1 -0.023399999999999976 0.22615000000000007 0.093699999999999894 -1 0 0 0 0 1 forward_v I I I I #
face $-1 -1 $-1 $58 $59 $21 $-1 $60 reversed single #
loop $-1 -1 $-1 $-1 $61 $29 #
plane-surface $-1 -1 $-1 0 0 0.1399999999999999 0 0 1 1 0 0 forward_v I I I I #
face $-1 -1 $-1 $62 $63 $23 $-1 $64 forward single #
loop $-1 -1 $-1 $65 $66 $30 #
cone-surface $-1 -1 $-1 0 0.18135000000000012 0 0 -1 0 0 0 -0.067999999999999949 1 I I 0 -1 0.067999999999999949 forward I I I I #
model_id-kcp-attrib $-1 -1 $-1 $-1 $32 1 1021323769 1021323769 -916455423 4 #
face $67 -1 $-1 $68 $69 $8 $-1 $70 reversed single #
loop $-1 -1 $-1 $-1 $71 $32 #
plane-surface $-1 -1 $-1 0.25982000000000011 3.13504 0.79483999999999999 0 0 1 -0.99999999999999944 0 0 forward_v I I I I #
coedge $-1 -1 $-1 $72 $73 $74 $75 reversed $33 $-1 #
coedge $-1 -1 $-1 $76 $35 $77 $78 forward $26 $-1 #
coedge $-1 -1 $-1 $35 $76 $72 $79 reversed $26 $-1 #
coedge $-1 -1 $-1 $74 $80 $35 $53 forward $81 $-1 #
edge $-1 -1 $-1 $82 -0.035099999999999985 $83 0.011699999999999995 $52 $84 forward @7 unknown #
face $-1 -1 $-1 $85 $86 $20 $-1 $87 forward single #
loop $-1 -1 $-1 $-1 $88 $36 #
plane-surface $-1 -1 $-1 -0.023399999999999976 0.22615000000000007 0.023399999999999976 0 0 1 1 0 0 forward_v I I I I #
coedge $-1 -1 $-1 $89 $90 $91 $92 forward $37 $-1 #
face $93 -1 $-1 $94 $95 $21 $-1 $96 reversed single #
loop $-1 -1 $-1 $-1 $97 $39 #
plane-surface $-1 -1 $-1 0 0 -0.1399999999999999 0 0 1 1 0 0 forward_v I I I I #
coedge $-1 -1 $-1 $98 $99 $100 $101 forward $40 $-1 #
face $-1 -1 $-1 $102 $103 $23 $-1 $104 reversed single #
loop $-1 -1 $-1 $105 $106 $42 #
cone-surface $-1 -1 $-1 0 0.18135000000000012 0 0 -1 0 0 0 -0.13999999999999987 1 I I 0 1 0.13999999999999987 forward I I I I #
loop $-1 -1 $-1 $-1 $107 $30 #
coedge $-1 -1 $-1 $66 $66 $108 $109 forward $43 $-1 #
model_id-kcp-attrib $-1 -1 $-1 $-1 $46 1 1021323769 1021323769 -916455423 5 #
face $110 -1 $-1 $111 $112 $8 $-1 $113 reversed single #
loop $-1 -1 $-1 $-1 $114 $46 #
plane-surface $-1 -1 $-1 0.25982000000000011 3.13504 0.74804000000000004 -1 0 0 0 0 -0.99999999999999944 forward_v I I I I #
coedge $-1 -1 $-1 $115 $116 $117 $118 reversed $47 $-1 #
coedge $-1 -1 $-1 $119 $49 $51 $79 forward $33 $-1 #
coedge $-1 -1 $-1 $49 $119 $115 $120 reversed $33 $-1 #
coedge $-1 -1 $-1 $117 $52 $49 $75 forward $81 $-1 #
edge $-1 -1 $-1 $83 -0.081999999999999892 $121 -0.01169999999999994 $74 $122 forward @7 unknown #
coedge $-1 -1 $-1 $51 $50 $123 $124 reversed $26 $-1 #
coedge $-1 -1 $-1 $125 $126 $50 $78 reversed $127 $-1 #
edge $-1 -1 $-1 $82 0.010009999999999858 $128 0.040009999999999678 $77 $129 forward @7 unknown #
edge $-1 -1 $-1 $83 0.010009999999999858 $130 0.040009999999999678 $51 $131 forward @7 unknown #
coedge $-1 -1 $-1 $52 $132 $125 $133 forward $81 $-1 #
loop $-1 -1 $-1 $134 $135 $136 #
vertex $-1 -1 $-1 $53 $137 #
vertex $-1 -1 $-1 $75 $138 #
straight-curve $-1 -1 $-1 0.34182000000000007 3.1250300000000002 0.86513999999999991 -0.99999999999999944 0 0 I I #
face $-1 -1 $-1 $139 $140 $20 $-1 $141 forward single #
loop $-1 -1 $-1 $-1 $142 $54 #
plane-surface $-1 -1 $-1 -0.09369999999999995 0.22615000000000007 0.023399999999999976 -1 0 0 0 0 1 forward_v I I I I #
coedge $-1 -1 $-1 $143 $144 $145 $146 forward $55 $-1 #
coedge $-1 -1 $-1 $147 $57 $144 $148 reversed $37 $-1 #
coedge $-1 -1 $-1 $57 $147 $149 $150 forward $37 $-1 #
coedge $-1 -1 $-1 $151 $145 $57 $92 reversed $152 $-1 #
edge $-1 -1 $-1 $153 -0.081999999999999906 $154 -0.011699999999999988 $57 $155 forward @7 unknown #
model_id-kcp-attrib $-1 -1 $-1 $-1 $58 1 1021323769 1021323769 -916455422 2 #
face $-1 -1 $-1 $156 $157 $21 $-1 $158 reversed single #
loop $-1 -1 $-1 $-1 $159 $58 #
plane-surface $-1 -1 $-1 0 -0.25614999999999988 0 0 1 0 0 0 1 forward_v I I I I #
coedge $-1 -1 $-1 $160 $161 $162 $163 forward $59 $-1 #
coedge $-1 -1 $-1 $164 $61 $165 $166 forward $40 $-1 #
coedge $-1 -1 $-1 $61 $164 $167 $168 forward $40 $-1 #
coedge $-1 -1 $-1 $169 $170 $61 $101 reversed $171 $-1 #
edge $-1 -1 $-1 $172 -0.25614999999999988 $173 0.25614999999999988 $100 $174 forward @7 unknown #
face $-1 -1 $-1 $-1 $175 $23 $-1 $176 forward single #
loop $-1 -1 $-1 $177 $178 $62 #
plane-surface $-1 -1 $-1 7.9723849838705819e-019 -0.25614999999999988 0.0065454545454545366 0 1 0 0 0 1 forward_v I I I I #
loop $-1 -1 $-1 $-1 $179 $42 #
coedge $-1 -1 $-1 $106 $106 $178 $180 forward $63 $-1 #
coedge $-1 -1 $-1 $107 $107 $181 $182 reversed $65 $-1 #
coedge $-1 -1 $-1 $108 $108 $66 $109 reversed $177 $-1 #
edge $-1 -1 $-1 $183 0 $183 6.2831853071795862 $66 $184 forward @7 unknown #
model_id-kcp-attrib $-1 -1 $-1 $-1 $68 1 1021323769 1021323769 -916455423 6 #
face $185 -1 $-1 $186 $187 $8 $-1 $188 reversed single #
loop $-1 -1 $-1 $-1 $189 $68 #
plane-surface $-1 -1 $-1 0.33012000000000008 3.13504 0.74804000000000004 0 0 -1 0.99999999999999944 0 0 forward_v I I I I #
coedge $-1 -1 $-1 $190 $191 $192 $193 reversed $69 $-1 #
coedge $-1 -1 $-1 $194 $71 $73 $120 forward $47 $-1 #
coedge $-1 -1 $-1 $71 $194 $190 $195 reversed $47 $-1 #
coedge $-1 -1 $-1 $192 $74 $71 $118 forward $81 $-1 #
edge $-1 -1 $-1 $121 -0.023449999999999985 $196 0.046850000000000031 $117 $197 forward @7 unknown #
coedge $-1 -1 $-1 $73 $72 $198 $199 reversed $33 $-1 #
edge $-1 -1 $-1 $121 0.010009999999999858 $200 0.040009999999999678 $73 $201 forward @7 unknown #
vertex $-1 -1 $-1 $118 $202 #
straight-curve $-1 -1 $-1 0.33012000000000008 3.1250300000000002 0.78314000000000006 0 0 -0.99999999999999944 I I #
coedge $-1 -1 $-1 $203 $198 $76 $124 forward $204 $-1 #
edge $205 -1 $-1 $130 -0.046799999999999994 $128 0 $76 $206 forward @7 unknown #
coedge $-1 -1 $-1 $207 $77 $80 $133 reversed $127 $-1 #
coedge $-1 -1 $-1 $77 $207 $203 $208 reversed $127 $-1 #
loop $-1 -1 $-1 $-1 $125 $209 #
vertex $-1 -1 $-1 $78 $210 #
straight-curve $-1 -1 $-1 0.37692000000000003 3.13504 0.86513999999999991 0 -0.99999999999999944 0 I I #
vertex $-1 -1 $-1 $79 $211 #
straight-curve $-1 -1 $-1 0.33012000000000008 3.13504 0.86513999999999991 0 -0.99999999999999944 0 I I #
coedge $-1 -1 $-1 $80 $212 $213 $214 forward $81 $-1 #
edge $-1 -1 $-1 $215 -0.023449999999999985 $82 0.046849999999999975 $80 $216 forward @7 unknown #
loop $-1 -1 $-1 $-1 $217 $136 #
coedge $-1 -1 $-1 $218 $219 $220 $221 forward $81 $-1 #
face $222 -1 $-1 $223 $81 $8 $-1 $224 forward single #
point $-1 -1 $-1 0.37692000000000003 3.1250300000000002 0.86513999999999991 #
point $-1 -1 $-1 0.33012000000000008 3.1250300000000002 0.86513999999999991 #
face $-1 -1 $-1 $225 $226 $20 $-1 $227 forward single #
loop $-1 -1 $-1 $-1 $228 $85 #
plane-surface $-1 -1 $-1 -0.09369999999999995 0.22615000000000007 -0.023399999999999976 0 0 -1 -1 0 0 forward_v I I I I #
coedge $-1 -1 $-1 $229 $230 $231 $232 forward $86 $-1 #
coedge $-1 -1 $-1 $233 $88 $230 $234 reversed $55 $-1 #
coedge $-1 -1 $-1 $88 $233 $89 $148 forward $55 $-1 #
coedge $-1 -1 $-1 $91 $231 $88 $146 reversed $152 $-1 #
edge $-1 -1 $-1 $154 -0.023449999999999999 $235 0.046849999999999975 $88 $236 forward @7 unknown #
coedge $-1 -1 $-1 $90 $89 $237 $238 reversed $37 $-1 #
edge $239 -1 $-1 $240 0 $154 0.029999999999999805 $144 $241 forward @7 unknown #
coedge $-1 -1 $-1 $242 $243 $90 $150 reversed $244 $-1 #
edge $-1 -1 $-1 $245 0 $153 0.029999999999999805 $90 $246 forward @7 unknown #
coedge $-1 -1 $-1 $247 $91 $243 $248 reversed $152 $-1 #
loop $-1 -1 $-1 $-1 $91 $249 #
vertex $-1 -1 $-1 $150 $250 #
vertex $-1 -1 $-1 $148 $251 #
straight-curve $-1 -1 $-1 -0.023399999999999976 0.25614999999999988 0.011699999999999988 0 0 -1 I I #
face $252 -1 $-1 $253 $254 $21 $-1 $255 reversed single #
loop $-1 -1 $-1 $-1 $256 $94 #
plane-surface $-1 -1 $-1 -0.1399999999999999 0 0 1 0 0 0 0 -1 forward_v I I I I #
coedge $-1 -1 $-1 $257 $167 $258 $259 forward $95 $-1 #
coedge $-1 -1 $-1 $260 $97 $257 $261 forward $59 $-1 #
coedge $-1 -1 $-1 $97 $260 $262 $263 forward $59 $-1 #
coedge $-1 -1 $-1 $170 $169 $97 $163 reversed $171 $-1 #
edge $-1 -1 $-1 $264 -0.25614999999999988 $265 0.25614999999999988 $162 $266 forward @7 unknown #
coedge $-1 -1 $-1 $99 $98 $267 $268 forward $40 $-1 #
coedge $-1 -1 $-1 $269 $270 $98 $166 reversed $254 $-1 #
edge $-1 -1 $-1 $173 -0.1399999999999999 $271 0.1399999999999999 $165 $272 forward @7 unknown #
coedge $-1 -1 $-1 $159 $273 $99 $168 reversed $95 $-1 #
edge $-1 -1 $-1 $274 -0.1399999999999999 $172 0.1399999999999999 $167 $275 forward @7 unknown #
coedge $-1 -1 $-1 $162 $100 $273 $276 forward $171 $-1 #
coedge $-1 -1 $-1 $100 $162 $269 $277 reversed $171 $-1 #
loop $-1 -1 $-1 $-1 $169 $253 #
vertex $-1 -1 $-1 $101 $278 #
vertex $-1 -1 $-1 $101 $279 #
straight-curve $-1 -1 $-1 0.1399999999999999 0 0.1399999999999999 0 1 0 I I #
loop $-1 -1 $-1 $280 $281 $102 #
plane-surface $-1 -1 $-1 7.9723849838705819e-019 0.18135000000000012 0.0065454545454545366 0 1 0 0 0 1 forward_v I I I I #
loop $-1 -1 $-1 $-1 $108 $62 #
coedge $-1 -1 $-1 $178 $178 $106 $180 reversed $103 $-1 #
coedge $-1 -1 $-1 $179 $179 $281 $282 reversed $105 $-1 #
edge $-1 -1 $-1 $283 -3.1415926535897931 $283 3.1415926535897931 $106 $284 forward @7 unknown #
coedge $-1 -1 $-1 $181 $181 $107 $182 forward $280 $-1 #
edge $285 -1 $-1 $286 0 $286 6.2831853071795862 $107 $287 forward @7 unknown #
vertex $-1 -1 $-1 $109 $288 #
ellipse-curve $-1 -1 $-1 0 -0.25614999999999988 0 0 -1 0 0 0 -0.067999999999999949 1 I I #
model_id-kcp-attrib $-1 -1 $-1 $-1 $111 1 1021323769 1021323769 -916455423 7 #
face $289 -1 $-1 $209 $290 $8 $-1 $291 reversed single #
loop $-1 -1 $-1 $-1 $292 $111 #
plane-surface $-1 -1 $-1 0.33012000000000008 3.13504 0.67774000000000012 -1 0 0 0 0 -0.99999999999999944 forward_v I I I I #
coedge $-1 -1 $-1 $293 $294 $295 $296 reversed $112 $-1 #
coedge $-1 -1 $-1 $297 $114 $116 $195 forward $69 $-1 #
coedge $-1 -1 $-1 $114 $297 $293 $298 reversed $69 $-1 #
coedge $-1 -1 $-1 $295 $117 $114 $193 forward $81 $-1 #
edge $-1 -1 $-1 $196 -0.035100000000000041 $299 0.01169999999999994 $192 $300 forward @7 unknown #
coedge $-1 -1 $-1 $116 $115 $301 $302 reversed $47 $-1 #
edge $-1 -1 $-1 $196 0.010009999999999858 $303 0.040009999999999678 $116 $304 forward @7 unknown #
vertex $-1 -1 $-1 $193 $305 #
straight-curve $-1 -1 $-1 0.30667000000000011 3.1250300000000002 0.79483999999999999 -0.99999999999999944 0 0 I I #
coedge $-1 -1 $-1 $123 $301 $119 $199 forward $204 $-1 #
edge $306 -1 $-1 $200 -0.070299999999999974 $130 0 $119 $307 forward @7 unknown #
vertex $-1 -1 $-1 $120 $308 #
straight-curve $-1 -1 $-1 0.33012000000000008 3.13504 0.79483999999999999 0 -0.99999999999999944 0 I I #
point $-1 -1 $-1 0.33012000000000008 3.1250300000000002 0.79483999999999999 #
coedge $-1 -1 $-1 $309 $123 $126 $208 forward $204 $-1 #
loop $-1 -1 $-1 $-1 $310 $311 #
attrib_edge_convexity-kcp-attrib $-1 -1 $312 $-1 $124 2 #
straight-curve $-1 -1 $-1 0.37692000000000003 3.0950300000000004 0.86513999999999991 0.99999999999999911 0 0 I I #
coedge $-1 -1 $-1 $126 $125 $313 $314 forward $127 $-1 #
edge $315 -1 $-1 $128 -0.070299999999999974 $316 0 $126 $317 forward @7 unknown #
face $318 -1 $-1 $319 $127 $8 $-1 $320 reversed single #
point $-1 -1 $-1 0.37692000000000003 3.0950300000000004 0.86513999999999991 #
point $-1 -1 $-1 0.33012000000000008 3.0950300000000004 0.86513999999999991 #
coedge $-1 -1 $-1 $132 $321 $322 $323 forward $81 $-1 #
coedge $-1 -1 $-1 $324 $313 $132 $214 reversed $325 $-1 #
edge $-1 -1 $-1 $326 -0.081999999999999948 $215 -0.011699999999999995 $132 $327 forward @7 unknown #
vertex $-1 -1 $-1 $133 $328 #
straight-curve $-1 -1 $-1 0.37692000000000003 3.1250300000000002 0.81828999999999996 0 0 0.99999999999999944 I I #
coedge $-1 -1 $-1 $217 $217 $329 $330 forward $134 $-1 #
coedge $-1 -1 $-1 $321 $135 $331 $332 forward $81 $-1 #
coedge $-1 -1 $-1 $135 $295 $292 $333 forward $81 $-1 #
coedge $-1 -1 $-1 $334 $335 $135 $221 reversed $290 $-1 #
edge $-1 -1 $-1 $336 -0.035099999999999985 $337 0.011699999999999995 $135 $338 forward @7 unknown #
model_id-kcp-attrib $-1 -1 $-1 $-1 $136 1 1021323769 1021323769 -916455423 18 #
face $339 -1 $-1 $-1 $340 $8 $-1 $341 forward single #
plane-surface $-1 -1 $-1 0.35352000000000006 3.1250300000000002 0.77144000000000001 0 1 0 0 0 0.99999999999999911 forward_v I I I I #
face $-1 -1 $-1 $342 $343 $20 $-1 $344 forward single #
loop $-1 -1 $-1 $-1 $345 $139 #
plane-surface $-1 -1 $-1 -0.023399999999999976 0.22615000000000007 -0.023399999999999976 -1 0 0 0 0 1 forward_v I I I I #
coedge $-1 -1 $-1 $346 $347 $348 $349 forward $140 $-1 #
coedge $-1 -1 $-1 $350 $142 $347 $351 reversed $86 $-1 #
coedge $-1 -1 $-1 $142 $350 $143 $234 forward $86 $-1 #
coedge $-1 -1 $-1 $145 $348 $142 $232 reversed $152 $-1 #
edge $-1 -1 $-1 $235 -0.035099999999999965 $352 0.011699999999999988 $142 $353 forward @7 unknown #
coedge $-1 -1 $-1 $144 $143 $354 $355 reversed $55 $-1 #
edge $-1 -1 $-1 $356 0 $235 0.029999999999999805 $230 $357 forward @7 unknown #
vertex $-1 -1 $-1 $234 $358 #
straight-curve $-1 -1 $-1 -0.046849999999999975 0.25614999999999988 0.023399999999999976 -1 0 0 I I #
coedge $-1 -1 $-1 $354 $359 $147 $238 forward $360 $-1 #
edge $361 -1 $-1 $245 -0.081999999999999906 $240 -0.011699999999999988 $147 $362 forward @7 unknown #
convexity-sys-attrib $-1 -1 $-1 $-1 $148 #
vertex $-1 -1 $-1 $238 $363 #
straight-curve $-1 -1 $-1 -0.023399999999999976 0.22615000000000007 0.023399999999999976 0 1 0 I I #
coedge $-1 -1 $-1 $364 $149 $359 $365 reversed $244 $-1 #
coedge $-1 -1 $-1 $149 $364 $151 $248 forward $244 $-1 #
loop $-1 -1 $-1 $-1 $243 $366 #
vertex $-1 -1 $-1 $365 $367 #
straight-curve $-1 -1 $-1 -0.023399999999999976 0.22615000000000007 0.093699999999999894 0 1 0 I I #
coedge $-1 -1 $-1 $368 $151 $369 $370 reversed $152 $-1 #
edge $-1 -1 $-1 $371 -0.035099999999999965 $153 0.011699999999999988 $243 $372 forward @7 unknown #
face $-1 -1 $-1 $373 $152 $20 $-1 $374 forward single #
point $-1 -1 $-1 -0.023399999999999976 0.25614999999999988 0.093699999999999894 #
point $-1 -1 $-1 -0.023399999999999976 0.25614999999999988 0.023399999999999976 #
model_id-kcp-attrib $-1 -1 $-1 $-1 $156 1 1021323769 1021323769 -916455422 3 #
face $-1 -1 $-1 $-1 $171 $21 $-1 $375 reversed single #
loop $-1 -1 $-1 $-1 $269 $156 #
plane-surface $-1 -1 $-1 0 0.25614999999999988 0 0 -1 0 0 0 -1 forward_v I I I I #
coedge $-1 -1 $-1 $376 $267 $270 $377 forward $157 $-1 #
coedge $-1 -1 $-1 $273 $159 $160 $261 reversed $95 $-1 #
coedge $-1 -1 $-1 $267 $376 $159 $259 reversed $157 $-1 #
edge $-1 -1 $-1 $274 -0.1399999999999999 $378 0.1399999999999999 $258 $379 forward @7 unknown #
coedge $-1 -1 $-1 $161 $160 $376 $380 forward $59 $-1 #
edge $-1 -1 $-1 $265 -0.1399999999999999 $378 0.1399999999999999 $257 $381 forward @7 unknown #
coedge $-1 -1 $-1 $270 $269 $161 $263 reversed $254 $-1 #
edge $-1 -1 $-1 $382 -0.1399999999999999 $264 0.1399999999999999 $262 $383 forward @7 unknown #
vertex $-1 -1 $-1 $163 $384 #
vertex $-1 -1 $-1 $276 $385 #
straight-curve $-1 -1 $-1 0.1399999999999999 0 -0.1399999999999999 0 -1 0 I I #
coedge $-1 -1 $-1 $256 $258 $164 $268 reversed $157 $-1 #
edge $-1 -1 $-1 $271 -0.25614999999999988 $274 0.25614999999999988 $267 $386 forward @7 unknown #
coedge $-1 -1 $-1 $262 $165 $170 $277 forward $254 $-1 #
coedge $-1 -1 $-1 $165 $262 $256 $377 reversed $254 $-1 #
vertex $-1 -1 $-1 $166 $387 #
straight-curve $-1 -1 $-1 0 0.25614999999999988 0.1399999999999999 -1 0 0 I I #
coedge $-1 -1 $-1 $167 $257 $169 $276 reversed $95 $-1 #
vertex $-1 -1 $-1 $268 $388 #
straight-curve $-1 -1 $-1 0 -0.25614999999999988 0.1399999999999999 1 0 0 I I #
edge $-1 -1 $-1 $172 -0.1399999999999999 $265 0.1399999999999999 $169 $389 forward @7 unknown #
edge $-1 -1 $-1 $173 -0.1399999999999999 $264 0.1399999999999999 $170 $390 forward @7 unknown #
point $-1 -1 $-1 0.1399999999999999 -0.25614999999999988 0.1399999999999999 #
point $-1 -1 $-1 0.1399999999999999 0.25614999999999988 0.1399999999999999 #
loop $-1 -1 $-1 $-1 $181 $102 #
coedge $-1 -1 $-1 $281 $281 $179 $282 forward $175 $-1 #
edge $391 -1 $-1 $392 -3.1415926535897931 $392 3.1415926535897931 $179 $393 forward @7 unknown #
vertex $-1 -1 $-1 $180 $394 #
ellipse-curve $-1 -1 $-1 0 -0.25614999999999988 0 0 1 0 0 0 -0.13999999999999987 1 I I #
convexity-sys-attrib $-1 -1 $-1 $-1 $182 #
vertex $-1 -1 $-1 $182 $395 #
ellipse-curve $-1 -1 $-1 0 0.18135000000000012 0 0 -1 0 0 0 -0.067999999999999949 1 I I #
point $-1 -1 $-1 0 -0.25614999999999988 -0.067999999999999949 #
model_id-kcp-attrib $-1 -1 $-1 $-1 $186 1 1021323769 1021323769 -916455423 8 #
loop $-1 -1 $-1 $-1 $220 $186 #
plane-surface $-1 -1 $-1 0.37692000000000003 3.13504 0.67774000000000012 0 0 -1 0.99999999999999944 0 0 forward_v I I I I #
coedge $-1 -1 $-1 $396 $397 $219 $333 reversed $187 $-1 #
coedge $-1 -1 $-1 $398 $189 $191 $298 forward $112 $-1 #
coedge $-1 -1 $-1 $189 $398 $396 $399 reversed $112 $-1 #
coedge $-1 -1 $-1 $219 $192 $189 $296 forward $81 $-1 #
edge $-1 -1 $-1 $299 -0.082000000000000003 $400 -0.011699999999999995 $295 $401 forward @7 unknown #
coedge $-1 -1 $-1 $191 $190 $402 $403 reversed $69 $-1 #
edge $-1 -1 $-1 $299 0.010009999999999858 $404 0.040009999999999678 $191 $405 forward @7 unknown #
vertex $-1 -1 $-1 $296 $406 #
straight-curve $-1 -1 $-1 0.25982000000000011 3.1250300000000002 0.75973999999999997 0 0 -0.99999999999999944 I I #
coedge $-1 -1 $-1 $198 $402 $194 $302 forward $204 $-1 #
edge $407 -1 $-1 $303 -0.070300000000000029 $200 0 $194 $408 forward @7 unknown #
vertex $-1 -1 $-1 $195 $409 #
straight-curve $-1 -1 $-1 0.25982000000000011 3.13504 0.79483999999999999 0 -0.99999999999999944 0 I I #
point $-1 -1 $-1 0.25982000000000011 3.1250300000000002 0.79483999999999999 #
attrib_edge_convexity-kcp-attrib $-1 -1 $410 $-1 $199 2 #
straight-curve $-1 -1 $-1 0.33012000000000008 3.0950300000000004 0.86513999999999991 0 0 0.99999999999999911 I I #
point $-1 -1 $-1 0.33012000000000008 3.0950300000000004 0.79483999999999999 #
coedge $-1 -1 $-1 $411 $203 $412 $413 forward $204 $-1 #
coedge $-1 -1 $-1 $414 $415 $416 $417 forward $204 $-1 #
face $418 -1 $-1 $419 $204 $8 $-1 $420 reversed single #
convexity-sys-attrib $-1 -1 $-1 $205 $124 #
coedge $-1 -1 $-1 $213 $412 $207 $314 reversed $325 $-1 #
edge $-1 -1 $-1 $215 0.010009999999999858 $316 0.040009999999999678 $313 $421 forward @7 unknown #
attrib_edge_convexity-kcp-attrib $-1 -1 $422 $-1 $208 2 #
vertex $-1 -1 $-1 $314 $423 #
straight-curve $-1 -1 $-1 0.37692000000000003 3.0950300000000004 0.79483999999999999 0 0 -0.99999999999999911 I I #
model_id-kcp-attrib $-1 -1 $-1 $-1 $209 1 1021323769 1021323769 -916455423 9 #
face $424 -1 $-1 $425 $325 $8 $-1 $426 reversed single #
plane-surface $-1 -1 $-1 0.37692000000000003 3.13504 0.86513999999999991 1 0 0 0 0 0.99999999999999944 forward_v I I I I #
coedge $-1 -1 $-1 $212 $218 $427 $428 forward $81 $-1 #
coedge $-1 -1 $-1 $429 $430 $212 $323 reversed $431 $-1 #
edge $-1 -1 $-1 $432 -0.035100000000000041 $326 0.01169999999999994 $212 $433 forward @7 unknown #
coedge $-1 -1 $-1 $412 $213 $430 $434 forward $325 $-1 #
loop $-1 -1 $-1 $-1 $213 $319 #
vertex $-1 -1 $-1 $214 $435 #
straight-curve $-1 -1 $-1 0.36522000000000004 3.1250300000000002 0.79483999999999999 -0.99999999999999944 0 0 I I #
point $-1 -1 $-1 0.37692000000000003 3.1250300000000002 0.79483999999999999 #
coedge $-1 -1 $-1 $329 $329 $217 $330 reversed $436 $-1 #
edge $-1 -1 $-1 $437 0 $437 6.2831853071795862 $217 $438 forward @7 unknown #
coedge $-1 -1 $-1 $439 $440 $218 $332 reversed $441 $-1 #
edge $-1 -1 $-1 $337 -0.081999999999999892 $442 -0.01169999999999994 $218 $443 forward @7 unknown #
edge $-1 -1 $-1 $400 -0.023449999999999985 $336 0.046849999999999975 $219 $444 forward @7 unknown #
coedge $-1 -1 $-1 $416 $220 $397 $445 forward $290 $-1 #
coedge $-1 -1 $-1 $220 $416 $439 $446 reversed $290 $-1 #
vertex $-1 -1 $-1 $221 $447 #
vertex $-1 -1 $-1 $221 $448 #
straight-curve $-1 -1 $-1 0.36522000000000004 3.1250300000000002 0.67774000000000012 0.99999999999999944 0 0 I I #
model_id-kcp-attrib $-1 -1 $-1 $-1 $223 1 1021323769 1021323769 -916455423 19 #
loop $-1 -1 $-1 $449 $450 $223 #
plane-surface $-1 -1 $-1 0.35352000000000006 3.0502300000000004 0.77144000000000001 0 -1 0 0 0 -0.99999999999999911 forward_v I I I I #
face $-1 -1 $-1 $451 $452 $20 $-1 $453 forward single #
loop $-1 -1 $-1 $-1 $454 $225 #
plane-surface $-1 -1 $-1 -0.023399999999999976 0.22615000000000007 -0.093699999999999894 0 0 -1 -1 0 0 forward_v I I I I #
coedge $-1 -1 $-1 $455 $456 $457 $458 forward $226 $-1 #
coedge $-1 -1 $-1 $459 $228 $456 $460 reversed $140 $-1 #
coedge $-1 -1 $-1 $228 $459 $229 $351 forward $140 $-1 #
coedge $-1 -1 $-1 $231 $457 $228 $349 reversed $152 $-1 #
edge $-1 -1 $-1 $352 -0.081999999999999962 $461 -0.011699999999999988 $228 $462 forward @7 unknown #
coedge $-1 -1 $-1 $230 $229 $463 $464 reversed $86 $-1 #
edge $-1 -1 $-1 $465 0 $352 0.029999999999999805 $347 $466 forward @7 unknown #
vertex $-1 -1 $-1 $351 $467 #
straight-curve $-1 -1 $-1 -0.09369999999999995 0.25614999999999988 -0.011699999999999988 0 0 -1 I I #
coedge $-1 -1 $-1 $463 $237 $233 $355 forward $360 $-1 #
edge $468 -1 $-1 $240 -0.023449999999999999 $356 0.046849999999999975 $233 $469 forward @7 unknown #
vertex $-1 -1 $-1 $355 $470 #
straight-curve $-1 -1 $-1 -0.09369999999999995 0.22615000000000007 0.023399999999999976 0 1 0 I I #
point $-1 -1 $-1 -0.09369999999999995 0.25614999999999988 0.023399999999999976 #
coedge $-1 -1 $-1 $237 $471 $242 $365 forward $360 $-1 #
loop $-1 -1 $-1 $-1 $359 $373 #
convexity-sys-attrib $-1 -1 $-1 $-1 $238 #
straight-curve $-1 -1 $-1 -0.023399999999999976 0.22615000000000007 0.011699999999999988 0 0 -1 I I #
point $-1 -1 $-1 -0.023399999999999976 0.22615000000000007 0.023399999999999976 #
coedge $-1 -1 $-1 $243 $242 $472 $473 forward $244 $-1 #
edge $474 -1 $-1 $475 -0.035099999999999965 $245 0.011699999999999988 $242 $476 forward @7 unknown #
face $-1 -1 $-1 $249 $244 $20 $-1 $477 forward single #
point $-1 -1 $-1 -0.023399999999999976 0.22615000000000007 0.093699999999999894 #
coedge $-1 -1 $-1 $478 $247 $479 $480 reversed $152 $-1 #
coedge $-1 -1 $-1 $472 $481 $247 $370 forward $482 $-1 #
edge $-1 -1 $-1 $483 -0.023449999999999971 $371 0.046849999999999947 $369 $484 forward @7 unknown #
vertex $-1 -1 $-1 $473 $485 #
straight-curve $-1 -1 $-1 -0.011699999999999988 0.25614999999999988 0.093699999999999894 -1 0 0 I I #
face $-1 -1 $-1 $-1 $360 $20 $-1 $486 reversed single #
plane-surface $-1 -1 $-1 -1.8214596497756474e-017 0.25614999999999988 -8.6736173798840355e-019 6.7677942637978268e-031 1 -4.3383296562806593e-032 0 4.3383296562806593e-032 1 forward_v I I I I #
plane-surface $-1 -1 $-1 0.1399999999999999 0 0 -1 0 0 0 0 1 forward_v I I I I #
coedge $-1 -1 $-1 $258 $256 $260 $380 reversed $157 $-1 #
edge $-1 -1 $-1 $271 -0.1399999999999999 $382 0.1399999999999999 $270 $487 forward @7 unknown #
vertex $-1 -1 $-1 $380 $488 #
straight-curve $-1 -1 $-1 -0.1399999999999999 -0.25614999999999988 0 0 0 -1 I I #
edge $-1 -1 $-1 $378 -0.25614999999999988 $382 0.25614999999999988 $376 $489 forward @7 unknown #
straight-curve $-1 -1 $-1 0 -0.25614999999999988 -0.1399999999999999 -1 0 0 I I #
vertex $-1 -1 $-1 $263 $490 #
straight-curve $-1 -1 $-1 0 0.25614999999999988 -0.1399999999999999 1 0 0 I I #
point $-1 -1 $-1 0.1399999999999999 0.25614999999999988 -0.1399999999999999 #
point $-1 -1 $-1 0.1399999999999999 -0.25614999999999988 -0.1399999999999999 #
straight-curve $-1 -1 $-1 -0.1399999999999999 0 0.1399999999999999 0 -1 0 I I #
point $-1 -1 $-1 -0.1399999999999999 0.25614999999999988 0.1399999999999999 #
point $-1 -1 $-1 -0.1399999999999999 -0.25614999999999988 0.1399999999999999 #
straight-curve $-1 -1 $-1 0.1399999999999999 -0.25614999999999988 0 0 0 -1 I I #
straight-curve $-1 -1 $-1 0.1399999999999999 0.25614999999999988 0 0 0 -1 I I #
convexity-sys-attrib $-1 -1 $-1 $-1 $282 #
vertex $-1 -1 $-1 $282 $491 #
ellipse-curve $-1 -1 $-1 0 0.18135000000000012 0 0 1 0 0 0 -0.13999999999999987 1 I I #
point $-1 -1 $-1 1.7144488953513266e-017 -0.25614999999999988 0.13999999999999987 #
point $-1 -1 $-1 0 0.18135000000000012 -0.067999999999999949 #
coedge $-1 -1 $-1 $492 $292 $294 $399 forward $187 $-1 #
coedge $-1 -1 $-1 $292 $492 $334 $445 reversed $187 $-1 #
coedge $-1 -1 $-1 $294 $293 $493 $494 reversed $112 $-1 #
edge $-1 -1 $-1 $400 0.010009999999999858 $495 0.040009999999999678 $294 $496 forward @7 unknown #
vertex $-1 -1 $-1 $333 $497 #
straight-curve $-1 -1 $-1 0.34182000000000007 3.1250300000000002 0.74804000000000004 0.99999999999999944 0 0 I I #
coedge $-1 -1 $-1 $301 $493 $297 $403 forward $204 $-1 #
edge $498 -1 $-1 $404 -0.046799999999999994 $303 0 $297 $499 forward @7 unknown #
vertex $-1 -1 $-1 $298 $500 #
straight-curve $-1 -1 $-1 0.25982000000000011 3.13504 0.74804000000000004 0 -0.99999999999999944 0 I I #
point $-1 -1 $-1 0.25982000000000011 3.1250300000000002 0.74804000000000004 #
attrib_edge_convexity-kcp-attrib $-1 -1 $501 $-1 $302 2 #
straight-curve $-1 -1 $-1 0.33012000000000008 3.0950300000000004 0.79483999999999999 0.99999999999999911 0 0 I I #
point $-1 -1 $-1 0.25982000000000011 3.0950300000000004 0.79483999999999999 #
convexity-sys-attrib $-1 -1 $-1 $306 $199 #
coedge $-1 -1 $-1 $502 $309 $503 $504 forward $204 $-1 #
coedge $-1 -1 $-1 $313 $324 $309 $413 reversed $325 $-1 #
edge $505 -1 $-1 $316 -0.070299999999999974 $506 0 $412 $507 forward @7 unknown #
coedge $-1 -1 $-1 $493 $310 $492 $508 forward $204 $-1 #
coedge $-1 -1 $-1 $310 $502 $509 $510 forward $204 $-1 #
coedge $-1 -1 $-1 $335 $334 $310 $417 reversed $290 $-1 #
edge $511 -1 $-1 $512 -0.046799999999999994 $513 0 $416 $514 forward @7 unknown #
model_id-kcp-attrib $-1 -1 $-1 $-1 $311 1 1021323769 1021323769 -916455423 14 #
face $515 -1 $-1 $516 $517 $8 $-1 $518 forward single #
plane-surface $-1 -1 $-1 0.37692000000000003 3.0950300000000004 0.67774000000000012 0 -1 0 0 0 -0.99999999999999944 forward_v I I I I #
straight-curve $-1 -1 $-1 0.37692000000000003 3.13504 0.79483999999999999 0 -0.99999999999999944 0 I I #
convexity-sys-attrib $-1 -1 $-1 $315 $208 #
point $-1 -1 $-1 0.37692000000000003 3.0950300000000004 0.79483999999999999 #
model_id-kcp-attrib $-1 -1 $-1 $-1 $319 1 1021323769 1021323769 -916455423 10 #
face $519 -1 $-1 $520 $431 $8 $-1 $521 reversed single #
plane-surface $-1 -1 $-1 0.37692000000000003 3.13504 0.79483999999999999 0 0 1 -0.99999999999999944 0 0 forward_v I I I I #
coedge $-1 -1 $-1 $522 $523 $321 $428 reversed $524 $-1 #
edge $-1 -1 $-1 $442 -0.023449999999999985 $432 0.046849999999999975 $321 $525 forward @7 unknown #
coedge $-1 -1 $-1 $503 $322 $523 $526 forward $431 $-1 #
coedge $-1 -1 $-1 $322 $503 $324 $434 reversed $431 $-1 #
loop $-1 -1 $-1 $-1 $322 $425 #
vertex $-1 -1 $-1 $323 $527 #
straight-curve $-1 -1 $-1 0.44721999999999995 3.1250300000000002 0.78314000000000006 0 0 0.99999999999999944 I I #
edge $-1 -1 $-1 $326 0.010009999999999858 $506 0.040009999999999678 $430 $528 forward @7 unknown #
point $-1 -1 $-1 0.44721999999999995 3.1250300000000002 0.79483999999999999 #
loop $-1 -1 $-1 $529 $329 $530 #
vertex $-1 -1 $-1 $330 $531 #
ellipse-curve $-1 -1 $-1 0.35352000000000006 3.1250300000000002 0.77144000000000001 0 1 0 0 0 -0.13999999999999987 1 I I #
coedge $-1 -1 $-1 $509 $331 $335 $446 forward $441 $-1 #
coedge $-1 -1 $-1 $331 $509 $522 $532 reversed $441 $-1 #
loop $-1 -1 $-1 $-1 $331 $533 #
vertex $-1 -1 $-1 $428 $534 #
straight-curve $-1 -1 $-1 0.37692000000000003 3.1250300000000002 0.75973999999999997 0 0 0.99999999999999944 I I #
straight-curve $-1 -1 $-1 0.33012000000000008 3.1250300000000002 0.72459000000000007 0 0 -0.99999999999999944 I I #
edge $-1 -1 $-1 $336 0.010009999999999858 $513 0.040009999999999678 $397 $535 forward @7 unknown #
edge $-1 -1 $-1 $337 0.010009999999999858 $512 0.040009999999999678 $335 $536 forward @7 unknown #
point $-1 -1 $-1 0.33012000000000008 3.1250300000000002 0.67774000000000012 #
point $-1 -1 $-1 0.37692000000000003 3.1250300000000002 0.67774000000000012 #
loop $-1 -1 $-1 $-1 $537 $223 #
coedge $-1 -1 $-1 $450 $450 $538 $539 forward $340 $-1 #
face $-1 -1 $-1 $540 $541 $20 $-1 $542 forward single #
loop $-1 -1 $-1 $-1 $543 $342 #
plane-surface $-1 -1 $-1 0.023399999999999976 0.22615000000000007 -0.093699999999999894 1 0 0 0 0 -1 forward_v I I I I #
coedge $-1 -1 $-1 $544 $545 $546 $547 forward $343 $-1 #
coedge $-1 -1 $-1 $548 $345 $545 $549 reversed $226 $-1 #
coedge $-1 -1 $-1 $345 $548 $346 $460 forward $226 $-1 #
coedge $-1 -1 $-1 $348 $546 $345 $458 reversed $152 $-1 #
edge $-1 -1 $-1 $461 -0.023449999999999971 $550 0.046849999999999947 $345 $551 forward @7 unknown #
coedge $-1 -1 $-1 $347 $346 $552 $553 reversed $140 $-1 #
edge $-1 -1 $-1 $554 0 $461 0.029999999999999805 $456 $555 forward @7 unknown #
vertex $-1 -1 $-1 $460 $556 #
straight-curve $-1 -1 $-1 -0.011699999999999988 0.25614999999999988 -0.023399999999999976 1 0 0 I I #
coedge $-1 -1 $-1 $552 $354 $350 $464 forward $360 $-1 #
edge $557 -1 $-1 $356 -0.035099999999999965 $465 0.011699999999999988 $350 $558 forward @7 unknown #
vertex $-1 -1 $-1 $464 $559 #
straight-curve $-1 -1 $-1 -0.09369999999999995 0.22615000000000007 -0.023399999999999976 0 1 0 I I #
point $-1 -1 $-1 -0.09369999999999995 0.25614999999999988 -0.023399999999999976 #
convexity-sys-attrib $-1 -1 $-1 $-1 $355 #
straight-curve $-1 -1 $-1 -0.046849999999999975 0.22615000000000007 0.023399999999999976 -1 0 0 I I #
point $-1 -1 $-1 -0.09369999999999995 0.22615000000000007 0.023399999999999976 #
coedge $-1 -1 $-1 $359 $560 $561 $562 forward $360 $-1 #
coedge $-1 -1 $-1 $561 $369 $364 $473 reversed $482 $-1 #
edge $-1 -1 $-1 $475 0 $371 0.029999999999999805 $364 $563 forward @7 unknown #
convexity-sys-attrib $-1 -1 $-1 $-1 $365 #
vertex $-1 -1 $-1 $365 $564 #
straight-curve $-1 -1 $-1 -0.011699999999999988 0.22615000000000007 0.093699999999999894 -1 0 0 I I #
plane-surface $-1 -1 $-1 0.023399999999999976 0.22615000000000007 0.093699999999999894 0 0 1 1 0 0 forward_v I I I I #
coedge $-1 -1 $-1 $565 $368 $566 $567 reversed $152 $-1 #
coedge $-1 -1 $-1 $568 $569 $368 $480 forward $570 $-1 #
edge $-1 -1 $-1 $571 -0.081999999999999906 $483 -0.011699999999999988 $479 $572 forward @7 unknown #
coedge $-1 -1 $-1 $369 $561 $568 $573 forward $482 $-1 #
loop $-1 -1 $-1 $-1 $369 $574 #
vertex $-1 -1 $-1 $573 $575 #
straight-curve $-1 -1 $-1 0.023399999999999976 0.25614999999999988 0.046849999999999947 0 0 1 I I #
point $-1 -1 $-1 0.023399999999999976 0.25614999999999988 0.093699999999999894 #
plane-surface $-1 -1 $-1 -1.8214596497756474e-017 0.22615000000000005 -8.6736173798840355e-019 6.7677942637978268e-031 1 -4.3383296562806593e-032 0 4.3383296562806593e-032 1 forward_v I I I I #
straight-curve $-1 -1 $-1 -0.1399999999999999 0.25614999999999988 0 0 0 -1 I I #
point $-1 -1 $-1 -0.1399999999999999 -0.25614999999999988 -0.1399999999999999 #
straight-curve $-1 -1 $-1 -0.1399999999999999 0 -0.1399999999999999 0 1 0 I I #
point $-1 -1 $-1 -0.1399999999999999 0.25614999999999988 -0.1399999999999999 #
point $-1 -1 $-1 1.7144488953513266e-017 0.18135000000000012 0.13999999999999987 #
coedge $-1 -1 $-1 $397 $396 $414 $508 reversed $187 $-1 #
coedge $-1 -1 $-1 $402 $414 $398 $494 forward $204 $-1 #
edge $576 -1 $-1 $495 -0.070300000000000029 $404 0 $398 $577 forward @7 unknown #
vertex $-1 -1 $-1 $399 $578 #
straight-curve $-1 -1 $-1 0.33012000000000008 3.13504 0.74804000000000004 0 -0.99999999999999944 0 I I #
point $-1 -1 $-1 0.33012000000000008 3.1250300000000002 0.74804000000000004 #
attrib_edge_convexity-kcp-attrib $-1 -1 $579 $-1 $403 2 #
straight-curve $-1 -1 $-1 0.25982000000000011 3.0950300000000004 0.79483999999999999 0 0 0.99999999999999911 I I #
point $-1 -1 $-1 0.25982000000000011 3.0950300000000004 0.74804000000000004 #
convexity-sys-attrib $-1 -1 $-1 $407 $302 #
coedge $-1 -1 $-1 $415 $411 $580 $581 forward $204 $-1 #
coedge $-1 -1 $-1 $430 $429 $411 $504 reversed $431 $-1 #
edge $582 -1 $-1 $506 -0.046799999999999994 $583 0 $503 $584 forward @7 unknown #
attrib_edge_convexity-kcp-attrib $-1 -1 $585 $-1 $413 2 #
vertex $-1 -1 $-1 $434 $586 #
straight-curve $-1 -1 $-1 0.44721999999999995 3.0950300000000004 0.79483999999999999 0.99999999999999911 0 0 I I #
edge $587 -1 $-1 $513 -0.070299999999999974 $495 0 $492 $588 forward @7 unknown #
coedge $-1 -1 $-1 $440 $439 $415 $510 reversed $441 $-1 #
edge $589 -1 $-1 $590 -0.070299999999999974 $512 0 $509 $591 forward @7 unknown #
attrib_edge_convexity-kcp-attrib $-1 -1 $592 $-1 $417 2 #
vertex $-1 -1 $-1 $446 $593 #
vertex $-1 -1 $-1 $445 $594 #
straight-curve $-1 -1 $-1 0.33012000000000008 3.0950300000000004 0.67774000000000012 -0.99999999999999911 0 0 I I #
model_id-kcp-attrib $-1 -1 $-1 $-1 $419 1 1021323769 1021323769 -916455423 15 #
face $595 -1 $-1 $530 $596 $8 $-1 $597 forward single #
loop $-1 -1 $-1 $598 $538 $419 #
cone-surface $-1 -1 $-1 0.35352000000000006 2.8314800000000004 0.77144000000000001 0 -1 0 0 0 -0.067999999999999949 1 I I 0 1 0.067999999999999949 forward I I I I #
model_id-kcp-attrib $-1 -1 $-1 $-1 $425 1 1021323769 1021323769 -916455423 11 #
face $599 -1 $-1 $533 $524 $8 $-1 $600 reversed single #
plane-surface $-1 -1 $-1 0.44721999999999995 3.13504 0.79483999999999999 1 0 0 0 0 0.99999999999999944 forward_v I I I I #
coedge $-1 -1 $-1 $580 $427 $440 $532 forward $524 $-1 #
coedge $-1 -1 $-1 $427 $580 $429 $526 reversed $524 $-1 #
loop $-1 -1 $-1 $-1 $427 $520 #
straight-curve $-1 -1 $-1 0.40037 3.1250300000000002 0.74804000000000004 0.99999999999999944 0 0 I I #
edge $-1 -1 $-1 $432 0.010009999999999858 $583 0.040009999999999678 $523 $601 forward @7 unknown #
point $-1 -1 $-1 0.44721999999999995 3.1250300000000002 0.74804000000000004 #
straight-curve $-1 -1 $-1 0.44721999999999995 3.13504 0.79483999999999999 0 -0.99999999999999944 0 I I #
loop $-1 -1 $-1 $-1 $602 $530 #
face $603 -1 $-1 $136 $436 $8 $-1 $604 forward single #
point $-1 -1 $-1 0.35352000000000006 3.1250300000000002 0.63144000000000011 #
edge $-1 -1 $-1 $442 0.010009999999999858 $590 0.040009999999999678 $440 $605 forward @7 unknown #
face $606 -1 $-1 $311 $441 $8 $-1 $607 reversed single #
point $-1 -1 $-1 0.37692000000000003 3.1250300000000002 0.74804000000000004 #
straight-curve $-1 -1 $-1 0.33012000000000008 3.13504 0.67774000000000012 0 -0.99999999999999944 0 I I #
straight-curve $-1 -1 $-1 0.37692000000000003 3.13504 0.67774000000000012 0 -0.99999999999999944 0 I I #
coedge $-1 -1 $-1 $537 $537 $602 $608 forward $449 $-1 #
coedge $-1 -1 $-1 $538 $538 $450 $539 reversed $517 $-1 #
edge $609 -1 $-1 $610 0 $610 6.2831853071795862 $450 $611 forward @7 unknown #
face $-1 -1 $-1 $612 $613 $20 $-1 $614 forward single #
loop $-1 -1 $-1 $-1 $615 $451 #
plane-surface $-1 -1 $-1 0.023399999999999976 0.22615000000000007 -0.023399999999999976 0 0 -1 -1 0 0 forward_v I I I I #
coedge $-1 -1 $-1 $616 $617 $618 $619 forward $452 $-1 #
coedge $-1 -1 $-1 $620 $454 $617 $621 reversed $343 $-1 #
coedge $-1 -1 $-1 $454 $620 $455 $549 forward $343 $-1 #
coedge $-1 -1 $-1 $457 $618 $454 $547 reversed $152 $-1 #
edge $-1 -1 $-1 $550 -0.035099999999999965 $622 0.011699999999999988 $454 $623 forward @7 unknown #
coedge $-1 -1 $-1 $456 $455 $624 $625 reversed $226 $-1 #
edge $-1 -1 $-1 $626 0 $550 0.029999999999999805 $545 $627 forward @7 unknown #
vertex $-1 -1 $-1 $549 $628 #
straight-curve $-1 -1 $-1 -0.023399999999999976 0.25614999999999988 -0.046849999999999947 0 0 -1 I I #
coedge $-1 -1 $-1 $624 $463 $459 $553 forward $360 $-1 #
edge $629 -1 $-1 $465 -0.081999999999999962 $554 -0.011699999999999988 $459 $630 forward @7 unknown #
vertex $-1 -1 $-1 $553 $631 #
straight-curve $-1 -1 $-1 -0.023399999999999976 0.22615000000000007 -0.023399999999999976 0 1 0 I I #
point $-1 -1 $-1 -0.023399999999999976 0.25614999999999988 -0.023399999999999976 #
convexity-sys-attrib $-1 -1 $-1 $-1 $464 #
straight-curve $-1 -1 $-1 -0.09369999999999995 0.22615000000000007 -0.011699999999999988 0 0 -1 I I #
point $-1 -1 $-1 -0.09369999999999995 0.22615000000000007 -0.023399999999999976 #
coedge $-1 -1 $-1 $471 $632 $633 $634 forward $360 $-1 #
coedge $-1 -1 $-1 $481 $472 $471 $562 reversed $482 $-1 #
edge $635 -1 $-1 $636 -0.023449999999999971 $475 0.046849999999999947 $561 $637 forward @7 unknown #
straight-curve $-1 -1 $-1 0.023399999999999976 0.22615000000000007 0.093699999999999894 0 1 0 I I #
point $-1 -1 $-1 0.023399999999999976 0.22615000000000007 0.093699999999999894 #
coedge $-1 -1 $-1 $618 $478 $615 $638 reversed $152 $-1 #
coedge $-1 -1 $-1 $639 $640 $478 $567 forward $613 $-1 #
edge $-1 -1 $-1 $641 -0.035099999999999965 $571 0.011699999999999988 $566 $642 forward @7 unknown #
coedge $-1 -1 $-1 $633 $479 $481 $573 reversed $570 $-1 #
coedge $-1 -1 $-1 $479 $633 $639 $643 forward $570 $-1 #
loop $-1 -1 $-1 $-1 $479 $612 #
vertex $-1 -1 $-1 $643 $644 #
straight-curve $-1 -1 $-1 0.011699999999999988 0.25614999999999988 0.023399999999999976 -1 0 0 I I #
edge $-1 -1 $-1 $636 0 $483 0.029999999999999805 $481 $645 forward @7 unknown #
face $-1 -1 $-1 $366 $482 $20 $-1 $646 forward single #
point $-1 -1 $-1 0.023399999999999976 0.25614999999999988 0.023399999999999976 #
attrib_edge_convexity-kcp-attrib $-1 -1 $647 $-1 $494 2 #
straight-curve $-1 -1 $-1 0.25982000000000011 3.0950300000000004 0.74804000000000004 -0.99999999999999911 0 0 I I #
point $-1 -1 $-1 0.33012000000000008 3.0950300000000004 0.74804000000000004 #
convexity-sys-attrib $-1 -1 $-1 $498 $403 #
coedge $-1 -1 $-1 $523 $522 $502 $581 reversed $524 $-1 #
edge $648 -1 $-1 $583 -0.070299999999999974 $590 0 $580 $649 forward @7 unknown #
attrib_edge_convexity-kcp-attrib $-1 -1 $650 $-1 $504 2 #
vertex $-1 -1 $-1 $526 $651 #
straight-curve $-1 -1 $-1 0.44721999999999995 3.0950300000000004 0.74804000000000004 0 0 -0.99999999999999911 I I #
convexity-sys-attrib $-1 -1 $-1 $505 $413 #
point $-1 -1 $-1 0.44721999999999995 3.0950300000000004 0.79483999999999999 #
attrib_edge_convexity-kcp-attrib $-1 -1 $652 $-1 $508 2 #
straight-curve $-1 -1 $-1 0.33012000000000008 3.0950300000000004 0.74804000000000004 0 0 0.99999999999999911 I I #
attrib_edge_convexity-kcp-attrib $-1 -1 $653 $-1 $510 2 #
vertex $-1 -1 $-1 $532 $654 #
straight-curve $-1 -1 $-1 0.37692000000000003 3.0950300000000004 0.67774000000000012 0 0 -0.99999999999999911 I I #
convexity-sys-attrib $-1 -1 $-1 $511 $417 #
point $-1 -1 $-1 0.37692000000000003 3.0950300000000004 0.67774000000000012 #
point $-1 -1 $-1 0.33012000000000008 3.0950300000000004 0.67774000000000012 #
model_id-kcp-attrib $-1 -1 $-1 $-1 $516 1 1021323769 1021323769 -916455423 16 #
loop $-1 -1 $-1 $-1 $655 $516 #
plane-surface $-1 -1 $-1 0.35352000000000006 2.6127300000000004 0.77144000000000001 0 -1 0 0 0 -0.99999999999999911 forward_v I I I I #
loop $-1 -1 $-1 $-1 $656 $419 #
model_id-kcp-attrib $-1 -1 $-1 $-1 $520 1 1021323769 1021323769 -916455423 12 #
plane-surface $-1 -1 $-1 0.44721999999999995 3.13504 0.74804000000000004 0 0 -1 0.99999999999999944 0 0 forward_v I I I I #
straight-curve $-1 -1 $-1 0.44721999999999995 3.13504 0.74804000000000004 0 -0.99999999999999944 0 I I #
coedge $-1 -1 $-1 $602 $602 $537 $608 reversed $529 $-1 #
model_id-kcp-attrib $-1 -1 $-1 $-1 $530 1 1021323769 1021323769 -916455423 17 #
cone-surface $-1 -1 $-1 0.35352000000000006 3.0876300000000003 0.77144000000000001 0 -1 0 0 0 -0.10749999999999992 1 I I -0.65592884268757656 0.75482272973893427 0.10749999999999992 forward I I I I #
straight-curve $-1 -1 $-1 0.37692000000000003 3.13504 0.74804000000000004 0 -0.99999999999999944 0 I I #
model_id-kcp-attrib $-1 -1 $-1 $-1 $533 1 1021323769 1021323769 -916455423 13 #
plane-surface $-1 -1 $-1 0.37692000000000003 3.13504 0.74804000000000004 1 0 0 0 0 0.99999999999999944 forward_v I I I I #
edge $657 -1 $-1 $658 0 $658 6.2831853071795862 $537 $659 forward @7 unknown #
attrib_edge_convexity-kcp-attrib $-1 -1 $660 $-1 $539 2 #
vertex $-1 -1 $-1 $539 $661 #
ellipse-curve $-1 -1 $-1 0.35352000000000006 3.0502300000000004 0.77144000000000001 0 1 0 0 0 -0.067999999999999949 1 I I #
face $-1 -1 $-1 $574 $570 $20 $-1 $662 forward single #
loop $-1 -1 $-1 $-1 $566 $540 #
plane-surface $-1 -1 $-1 0.093699999999999894 0.22615000000000007 -0.023399999999999976 1 0 0 0 0 -1 forward_v I I I I #
coedge $-1 -1 $-1 $663 $664 $565 $638 forward $541 $-1 #
coedge $-1 -1 $-1 $665 $543 $664 $666 reversed $452 $-1 #
coedge $-1 -1 $-1 $543 $665 $544 $621 forward $452 $-1 #
coedge $-1 -1 $-1 $546 $565 $543 $619 reversed $152 $-1 #
edge $-1 -1 $-1 $622 -0.081999999999999906 $667 -0.011699999999999988 $543 $668 forward @7 unknown #
coedge $-1 -1 $-1 $545 $544 $669 $670 reversed $343 $-1 #
edge $-1 -1 $-1 $671 0 $622 0.029999999999999805 $617 $672 forward @7 unknown #
vertex $-1 -1 $-1 $621 $673 #
straight-curve $-1 -1 $-1 0.011699999999999988 0.25614999999999988 -0.093699999999999894 1 0 0 I I #
coedge $-1 -1 $-1 $669 $552 $548 $625 forward $360 $-1 #
edge $674 -1 $-1 $554 -0.023449999999999971 $626 0.046849999999999947 $548 $675 forward @7 unknown #
vertex $-1 -1 $-1 $625 $676 #
straight-curve $-1 -1 $-1 -0.023399999999999976 0.22615000000000007 -0.093699999999999894 0 1 0 I I #
point $-1 -1 $-1 -0.023399999999999976 0.25614999999999988 -0.093699999999999894 #
convexity-sys-attrib $-1 -1 $-1 $-1 $553 #
straight-curve $-1 -1 $-1 -0.011699999999999988 0.22615000000000007 -0.023399999999999976 1 0 0 I I #
point $-1 -1 $-1 -0.023399999999999976 0.22615000000000007 -0.023399999999999976 #
coedge $-1 -1 $-1 $560 $677 $678 $679 forward $360 $-1 #
coedge $-1 -1 $-1 $569 $568 $560 $634 reversed $570 $-1 #
edge $680 -1 $-1 $681 -0.081999999999999906 $636 -0.011699999999999988 $633 $682 forward @7 unknown #
convexity-sys-attrib $-1 -1 $-1 $-1 $562 #
vertex $-1 -1 $-1 $634 $683 #
straight-curve $-1 -1 $-1 0.023399999999999976 0.22615000000000007 0.046849999999999947 0 0 1 I I #
edge $-1 -1 $-1 $667 -0.023449999999999971 $641 0.046849999999999947 $615 $684 forward @7 unknown #
coedge $-1 -1 $-1 $678 $566 $569 $643 reversed $613 $-1 #
coedge $-1 -1 $-1 $566 $678 $663 $685 forward $613 $-1 #
vertex $-1 -1 $-1 $685 $686 #
straight-curve $-1 -1 $-1 0.093699999999999894 0.25614999999999988 0.011699999999999988 0 0 1 I I #
edge $-1 -1 $-1 $681 0 $571 0.029999999999999805 $569 $687 forward @7 unknown #
point $-1 -1 $-1 0.093699999999999894 0.25614999999999988 0.023399999999999976 #
straight-curve $-1 -1 $-1 0.023399999999999976 0.22615000000000007 0.023399999999999976 0 1 0 I I #
plane-surface $-1 -1 $-1 0.023399999999999976 0.22615000000000007 0.023399999999999976 1 0 0 0 0 -1 forward_v I I I I #
convexity-sys-attrib $-1 -1 $-1 $576 $494 #
attrib_edge_convexity-kcp-attrib $-1 -1 $688 $-1 $581 2 #
straight-curve $-1 -1 $-1 0.37692000000000003 3.0950300000000004 0.74804000000000004 -0.99999999999999911 0 0 I I #
convexity-sys-attrib $-1 -1 $-1 $582 $504 #
point $-1 -1 $-1 0.44721999999999995 3.0950300000000004 0.74804000000000004 #
convexity-sys-attrib $-1 -1 $-1 $587 $508 #
convexity-sys-attrib $-1 -1 $-1 $589 $510 #
point $-1 -1 $-1 0.37692000000000003 3.0950300000000004 0.74804000000000004 #
coedge $-1 -1 $-1 $655 $655 $656 $689 forward $596 $-1 #
coedge $-1 -1 $-1 $656 $656 $655 $689 reversed $598 $-1 #
attrib_edge_convexity-kcp-attrib $-1 -1 $690 $-1 $608 1 #
vertex $-1 -1 $-1 $608 $691 #
ellipse-curve $-1 -1 $-1 0.35352000000000006 3.0502300000000004 0.77144000000000001 0 -1 0 0 0 -0.074999999999999942 1 I I #
convexity-sys-attrib $-1 -1 $-1 $609 $539 #
point $-1 -1 $-1 0.35352000000000006 3.0502300000000004 0.70344000000000007 #
plane-surface $-1 -1 $-1 0.093699999999999894 0.22615000000000007 0.023399999999999976 0 0 1 1 0 0 forward_v I I I I #
coedge $-1 -1 $-1 $692 $615 $640 $685 reversed $541 $-1 #
coedge $-1 -1 $-1 $615 $692 $616 $666 forward $541 $-1 #
coedge $-1 -1 $-1 $617 $616 $693 $694 reversed $452 $-1 #
edge $-1 -1 $-1 $695 0 $667 0.029999999999999805 $664 $696 forward @7 unknown #
vertex $-1 -1 $-1 $666 $697 #
straight-curve $-1 -1 $-1 0.023399999999999976 0.25614999999999988 -0.011699999999999988 0 0 1 I I #
coedge $-1 -1 $-1 $693 $624 $620 $670 forward $360 $-1 #
edge $698 -1 $-1 $626 -0.035099999999999965 $671 0.011699999999999988 $620 $699 forward @7 unknown #
vertex $-1 -1 $-1 $670 $700 #
straight-curve $-1 -1 $-1 0.023399999999999976 0.22615000000000007 -0.093699999999999894 0 1 0 I I #
point $-1 -1 $-1 0.023399999999999976 0.25614999999999988 -0.093699999999999894 #
convexity-sys-attrib $-1 -1 $-1 $-1 $625 #
straight-curve $-1 -1 $-1 -0.023399999999999976 0.22615000000000007 -0.046849999999999947 0 0 -1 I I #
point $-1 -1 $-1 -0.023399999999999976 0.22615000000000007 -0.093699999999999894 #
coedge $-1 -1 $-1 $632 $693 $692 $701 forward $360 $-1 #
coedge $-1 -1 $-1 $640 $639 $632 $679 reversed $613 $-1 #
edge $702 -1 $-1 $703 -0.035099999999999965 $681 0.011699999999999988 $678 $704 forward @7 unknown #
convexity-sys-attrib $-1 -1 $-1 $-1 $634 #
vertex $-1 -1 $-1 $679 $705 #
straight-curve $-1 -1 $-1 0.011699999999999988 0.22615000000000007 0.023399999999999976 -1 0 0 I I #
point $-1 -1 $-1 0.023399999999999976 0.22615000000000007 0.023399999999999976 #
straight-curve $-1 -1 $-1 0.046849999999999947 0.25614999999999988 -0.023399999999999976 1 0 0 I I #
edge $-1 -1 $-1 $703 0 $641 0.029999999999999805 $640 $706 forward @7 unknown #
point $-1 -1 $-1 0.093699999999999894 0.25614999999999988 -0.023399999999999976 #
straight-curve $-1 -1 $-1 0.093699999999999894 0.22615000000000007 0.023399999999999976 0 1 0 I I #
convexity-sys-attrib $-1 -1 $-1 $648 $581 #
edge $707 -1 $-1 $708 0 $708 6.2831853071795862 $655 $709 forward @7 unknown #
convexity-sys-attrib $-1 -1 $-1 $657 $608 #
point $-1 -1 $-1 0.35352000000000006 3.0502300000000004 0.69644000000000006 #
coedge $-1 -1 $-1 $664 $663 $677 $701 reversed $541 $-1 #
coedge $-1 -1 $-1 $677 $669 $665 $694 forward $360 $-1 #
edge $710 -1 $-1 $671 -0.081999999999999906 $695 -0.011699999999999988 $665 $711 forward @7 unknown #
vertex $-1 -1 $-1 $694 $712 #
straight-curve $-1 -1 $-1 0.023399999999999976 0.22615000000000007 -0.023399999999999976 0 1 0 I I #
point $-1 -1 $-1 0.023399999999999976 0.25614999999999988 -0.023399999999999976 #
convexity-sys-attrib $-1 -1 $-1 $-1 $670 #
straight-curve $-1 -1 $-1 0.011699999999999988 0.22615000000000007 -0.093699999999999894 1 0 0 I I #
point $-1 -1 $-1 0.023399999999999976 0.22615000000000007 -0.093699999999999894 #
edge $713 -1 $-1 $695 -0.023449999999999971 $703 0.046849999999999947 $692 $714 forward @7 unknown #
convexity-sys-attrib $-1 -1 $-1 $-1 $679 #
vertex $-1 -1 $-1 $701 $715 #
straight-curve $-1 -1 $-1 0.093699999999999894 0.22615000000000007 0.011699999999999988 0 0 1 I I #
point $-1 -1 $-1 0.093699999999999894 0.22615000000000007 0.023399999999999976 #
straight-curve $-1 -1 $-1 0.093699999999999894 0.22615000000000007 -0.023399999999999976 0 1 0 I I #
attrib_edge_convexity-kcp-attrib $-1 -1 $716 $-1 $689 1 #
vertex $-1 -1 $-1 $689 $717 #
ellipse-curve $-1 -1 $-1 0.35352000000000006 2.6127300000000004 0.77144000000000001 0 -1 0 0 0 -0.067999999999999949 1 I I #
convexity-sys-attrib $-1 -1 $-1 $-1 $694 #
straight-curve $-1 -1 $-1 0.023399999999999976 0.22615000000000007 -0.011699999999999988 0 0 1 I I #
point $-1 -1 $-1 0.023399999999999976 0.22615000000000007 -0.023399999999999976 #
convexity-sys-attrib $-1 -1 $-1 $-1 $701 #
straight-curve $-1 -1 $-1 0.046849999999999947 0.22615000000000007 -0.023399999999999976 1 0 0 I I #
point $-1 -1 $-1 0.093699999999999894 0.22615000000000007 -0.023399999999999976 #
convexity-sys-attrib $-1 -1 $-1 $707 $689 #
point $-1 -1 $-1 0.35352000000000006 2.6127300000000004 0.70344000000000007 #
End-of-ACIS-data 