700 0 2 0           
24 FBMach with ACIS - 7.0.3 13 ACIS 7.0.3 NT 24 Mon May 13 17:01:42 2002 
1 9.9999999999999995e-007 1e-010 
body $2 -1 $-1 $3 $-1 $4 #
bdycol-kcp $-1 -1 1 4 $5 $6 $7 $8 #
model_id-kcp-attrib $-1 -1 $-1 $-1 $0 1 1021323701 1021323701 614924289 1 #
lump $-1 -1 $-1 $-1 $9 $0 #
transform $-1 -1 1 0 0 0 1 0 0 0 1 0 0 0 1 rotate no_reflect no_shear #
body $10 -1 $-1 $11 $-1 $12 #
body $13 -1 $-1 $14 $-1 $15 #
body $16 -1 $-1 $17 $-1 $18 #
body $19 -1 $-1 $20 $-1 $21 #
shell $-1 -1 $-1 $-1 $-1 $22 $-1 $3 #
model_id-kcp-attrib $-1 -1 $-1 $-1 $5 1 1021323701 1021323701 614924290 1 #
lump $-1 -1 $-1 $-1 $23 $5 #
transform $-1 -1 1 0 0 0 1 0 0 0 1 -4.2892999999999999 -3.875 4.8400999999999996 1 no_rotate no_reflect no_shear #
rgb_color-st-attrib $-1 -1 $24 $-1 $6 0.5 1 1 #
lump $-1 -1 $-1 $-1 $25 $6 #
transform $-1 -1 1 0 0 0 1 0 0 0 1 -4.2892999999999999 -3.875 4.8400999999999996 1 no_rotate no_reflect no_shear #
rgb_color-st-attrib $-1 -1 $26 $-1 $7 1 0.5 1 #
lump $-1 -1 $-1 $-1 $27 $7 #
transform $-1 -1 1 0 0 0 1 0 0 0 1 -4.2892999999999999 -3.875 4.8400999999999996 1 no_rotate no_reflect no_shear #
rgb_color-st-attrib $-1 -1 $28 $-1 $8 0 0 1 #
lump $-1 -1 $-1 $-1 $29 $8 #
transform $-1 -1 1 0 0 0 1 0 0 0 1 -4.2892999999999999 -3.875 4.8400999999999996 1 no_rotate no_reflect no_shear #
face $30 -1 $-1 $31 $32 $9 $-1 $33 reversed single #
shell $-1 -1 $-1 $-1 $-1 $34 $-1 $11 #
model_id-kcp-attrib $-1 -1 $-1 $13 $6 1 1021323701 1021323702 604307459 1 #
shell $-1 -1 $-1 $-1 $-1 $35 $-1 $14 #
model_id-kcp-attrib $-1 -1 $-1 $16 $7 1 1021323701 1021323702 604569605 1 #
shell $-1 -1 $-1 $-1 $-1 $36 $-1 $17 #
model_id-kcp-attrib $-1 -1 $-1 $19 $8 1 1021323701 1021323702 616103940 1 #
shell $-1 -1 $-1 $-1 $-1 $37 $-1 $20 #
model_id-kcp-attrib $-1 -1 $-1 $-1 $22 1 1021323701 1021323701 614924289 2 #
face $38 -1 $-1 $39 $40 $9 $-1 $41 reversed single #
loop $-1 -1 $-1 $-1 $42 $22 #
plane-surface $-1 -1 $-1 -4.1498797559534486 -4.4750100000000002 4.8027435487499144 0.96592771514467268 0 0.25881199569454294 0.25881199569454283 0 -0.96592771514467246 forward_v I I I I #
face $-1 -1 $-1 $43 $44 $23 $-1 $45 forward single #
face $-1 -1 $-1 $46 $47 $25 $-1 $48 reversed single #
face $-1 -1 $-1 $49 $50 $27 $-1 $51 forward single #
face $-1 -1 $-1 $52 $53 $29 $-1 $54 forward single #
model_id-kcp-attrib $-1 -1 $-1 $-1 $31 1 1021323701 1021323701 614924289 3 #
face $55 -1 $-1 $56 $57 $9 $-1 $58 reversed single #
loop $-1 -1 $-1 $-1 $59 $31 #
plane-surface $-1 -1 $-1 -4.2519435487499146 -4.4750100000000002 4.7006797559534483 0.70710678118654757 0 -0.70710678118654757 -0.70710678118654735 0 -0.70710678118654735 forward_v I I I I #
coedge $-1 -1 $-1 $60 $61 $62 $63 reversed $32 $-1 #
face $-1 -1 $-1 $64 $65 $23 $-1 $66 reversed single #
loop $-1 -1 $-1 $-1 $67 $34 #
plane-surface $-1 -1 $-1 0 0 0.1875 0 0 1 1 0 0 forward_v I I I I #
face $-1 -1 $-1 $68 $69 $25 $-1 $48 reversed single #
loop $-1 -1 $-1 $-1 $70 $35 #
cone-surface $-1 -1 $-1 0 0.5 0 0 1 0 -0.13258252147247765 0 0.13258252147247765 1 I I 0 1 0.18749999999999997 forward I I I I #
face $-1 -1 $-1 $71 $72 $27 $-1 $73 forward single #
loop $-1 -1 $-1 $74 $75 $36 #
cone-surface $-1 -1 $-1 0 -0.25 0 0 1 0 -0.088388347648318419 0 0.088388347648318419 1 I I 0 -1 0.12499999999999997 forward I I I I #
face $-1 -1 $-1 $76 $77 $29 $-1 $78 forward single #
loop $-1 -1 $-1 $-1 $79 $37 #
plane-surface $-1 -1 $-1 0.13942024404655129 -0.375 -0.037356451250085243 0.70710678118654757 0 -0.70710678118654757 -0.70710678118654757 0 -0.70710678118654757 forward_v I I I I #
model_id-kcp-attrib $-1 -1 $-1 $-1 $39 1 1021323701 1021323701 614924289 4 #
face $80 -1 $-1 $81 $82 $9 $-1 $83 reversed single #
loop $-1 -1 $-1 $-1 $84 $39 #
plane-surface $-1 -1 $-1 -4.3913637927964659 -4.4750100000000002 4.7380362072035336 -0.25881199569454294 0 -0.96592771514467268 -0.96592771514467246 0 0.25881199569454283 forward_v I I I I #
coedge $-1 -1 $-1 $85 $86 $87 $88 reversed $40 $-1 #
coedge $-1 -1 $-1 $89 $42 $90 $91 forward $32 $-1 #
coedge $-1 -1 $-1 $42 $89 $85 $92 reversed $32 $-1 #
coedge $-1 -1 $-1 $87 $93 $42 $63 forward $94 $-1 #
edge $-1 -1 $-1 $95 -0.10825454387499034 $96 0.036083631601908098 $62 $97 forward @7 unknown #
face $98 -1 $-1 $99 $100 $23 $-1 $101 reversed single #
loop $-1 -1 $-1 $-1 $102 $43 #
plane-surface $-1 -1 $-1 0 0 -0.1875 0 0 1 1 0 0 forward_v I I I I #
coedge $-1 -1 $-1 $103 $104 $105 $106 forward $44 $-1 #
face $-1 -1 $-1 $107 $108 $25 $-1 $48 reversed single #
loop $-1 -1 $-1 $-1 $109 $46 #
coedge $-1 -1 $-1 $110 $111 $112 $113 reversed $47 $-1 #
face $-1 -1 $-1 $114 $115 $27 $-1 $116 forward single #
loop $-1 -1 $-1 $117 $118 $49 #
cone-surface $-1 -1 $-1 0 -0.25 0 0 1 0 -0.13258252147247765 0 0.13258252147247765 1 I I 0 1 0.18749999999999997 forward I I I I #
loop $-1 -1 $-1 $-1 $119 $36 #
coedge $-1 -1 $-1 $75 $75 $120 $121 forward $50 $-1 #
face $-1 -1 $-1 $122 $123 $29 $-1 $124 forward single #
loop $-1 -1 $-1 $-1 $125 $52 #
plane-surface $-1 -1 $-1 0.037356451250085243 -0.375 -0.13942024404655129 -0.25881199569454294 0 -0.96592771514467268 -0.96592771514467268 0 0.25881199569454294 forward_v I I I I #
coedge $-1 -1 $-1 $126 $127 $128 $129 forward $53 $-1 #
model_id-kcp-attrib $-1 -1 $-1 $-1 $56 1 1021323701 1021323701 614924289 5 #
face $130 -1 $-1 $131 $132 $9 $-1 $133 reversed single #
loop $-1 -1 $-1 $-1 $134 $56 #
plane-surface $-1 -1 $-1 -4.4287202440465512 -4.4750100000000002 4.8774564512500849 -0.96592771514467268 0 -0.25881199569454294 -0.25881199569454283 0 0.96592771514467246 forward_v I I I I #
coedge $-1 -1 $-1 $135 $136 $137 $138 reversed $57 $-1 #
coedge $-1 -1 $-1 $139 $59 $61 $92 forward $40 $-1 #
coedge $-1 -1 $-1 $59 $139 $135 $140 reversed $40 $-1 #
coedge $-1 -1 $-1 $137 $62 $59 $88 forward $94 $-1 #
edge $-1 -1 $-1 $96 -0.10825499999999978 $141 0.03608499999999993 $87 $142 forward @7 unknown #
coedge $-1 -1 $-1 $61 $60 $143 $144 reversed $32 $-1 #
coedge $-1 -1 $-1 $145 $146 $60 $91 reversed $132 $-1 #
edge $-1 -1 $-1 $95 0.10001000000000017 $147 0.22501000000000018 $90 $148 forward @7 unknown #
edge $-1 -1 $-1 $96 0.10001000000000017 $149 0.22501000000000018 $61 $150 forward @7 unknown #
coedge $-1 -1 $-1 $62 $151 $145 $152 forward $94 $-1 #
loop $-1 -1 $-1 $153 $154 $155 #
vertex $-1 -1 $-1 $63 $156 #
vertex $-1 -1 $-1 $88 $157 #
straight-curve $-1 -1 $-1 -4.1592186326602452 -4.375 4.8375977285772676 0.25881199569454283 0 -0.96592771514467246 I I #
model_id-kcp-attrib $-1 -1 $-1 $-1 $64 1 1021323701 1021323701 614924290 3 #
face $-1 -1 $-1 $158 $159 $23 $-1 $160 reversed single #
loop $-1 -1 $-1 $-1 $161 $64 #
plane-surface $-1 -1 $-1 0 -0.5 0 0 1 0 0 0 1 forward_v I I I I #
coedge $-1 -1 $-1 $162 $163 $164 $165 forward $65 $-1 #
coedge $-1 -1 $-1 $166 $67 $167 $168 forward $44 $-1 #
coedge $-1 -1 $-1 $67 $166 $169 $170 forward $44 $-1 #
coedge $-1 -1 $-1 $171 $172 $67 $106 reversed $173 $-1 #
edge $-1 -1 $-1 $174 -0.5 $175 0.5 $105 $176 forward @7 unknown #
face $-1 -1 $-1 $177 $178 $25 $-1 $48 reversed single #
loop $-1 -1 $-1 $-1 $179 $68 #
coedge $-1 -1 $-1 $180 $181 $182 $183 reversed $69 $-1 #
coedge $-1 -1 $-1 $184 $70 $185 $186 forward $47 $-1 #
coedge $-1 -1 $-1 $70 $184 $187 $188 reversed $47 $-1 #
coedge $-1 -1 $-1 $189 $190 $70 $113 forward $191 $-1 #
edge $-1 -1 $-1 $192 -0.78539816339744828 $193 0.78539816339744828 $112 $194 forward @7 unknown #
face $-1 -1 $-1 $-1 $195 $27 $-1 $196 reversed single #
loop $-1 -1 $-1 $197 $198 $71 #
plane-surface $-1 -1 $-1 0.0040176521658326567 0.5 -0.0040176521658326593 0 1 0 0 0 1 forward_v I I I I #
loop $-1 -1 $-1 $-1 $199 $49 #
coedge $-1 -1 $-1 $118 $118 $198 $200 forward $72 $-1 #
coedge $-1 -1 $-1 $119 $119 $201 $202 reversed $74 $-1 #
coedge $-1 -1 $-1 $120 $120 $75 $121 reversed $197 $-1 #
edge $-1 -1 $-1 $203 0 $203 6.2831853071795862 $75 $204 forward @7 unknown #
face $-1 -1 $-1 $205 $206 $29 $-1 $207 forward single #
loop $-1 -1 $-1 $-1 $208 $76 #
plane-surface $-1 -1 $-1 -0.10206379279646605 -0.375 -0.10206379279646605 -0.96592771514467268 0 -0.25881199569454294 -0.25881199569454294 0 0.96592771514467268 forward_v I I I I #
coedge $-1 -1 $-1 $209 $210 $211 $212 forward $77 $-1 #
coedge $-1 -1 $-1 $213 $79 $210 $214 reversed $53 $-1 #
coedge $-1 -1 $-1 $79 $213 $215 $216 forward $53 $-1 #
coedge $-1 -1 $-1 $217 $211 $79 $129 reversed $218 $-1 #
edge $-1 -1 $-1 $219 -0.10825499999999977 $220 0.036084999999999923 $79 $221 forward @7 unknown #
model_id-kcp-attrib $-1 -1 $-1 $-1 $81 1 1021323701 1021323701 614924289 6 #
face $222 -1 $-1 $223 $224 $9 $-1 $225 reversed single #
loop $-1 -1 $-1 $-1 $145 $81 #
plane-surface $-1 -1 $-1 -4.1872362072035338 -4.4750100000000002 4.9421637927964657 0.25881199569454294 0 0.96592771514467268 0.96592771514467246 0 -0.25881199569454283 forward_v I I I I #
coedge $-1 -1 $-1 $226 $227 $154 $228 reversed $82 $-1 #
coedge $-1 -1 $-1 $229 $84 $86 $140 forward $57 $-1 #
coedge $-1 -1 $-1 $84 $229 $226 $230 reversed $57 $-1 #
coedge $-1 -1 $-1 $154 $87 $84 $138 forward $94 $-1 #
edge $-1 -1 $-1 $141 -0.10825271934035731 $231 0.036085456136541121 $137 $232 forward @7 unknown #
coedge $-1 -1 $-1 $86 $85 $233 $234 reversed $40 $-1 #
edge $-1 -1 $-1 $141 0.10001000000000017 $235 0.22501000000000018 $86 $236 forward @7 unknown #
vertex $-1 -1 $-1 $138 $237 #
straight-curve $-1 -1 $-1 -4.2264276005507977 -4.375 4.7261957041525644 -0.70710678118654735 0 -0.70710678118654735 I I #
coedge $-1 -1 $-1 $238 $233 $89 $144 forward $239 $-1 #
edge $240 -1 $-1 $149 -0.14433817547689845 $147 0 $89 $241 forward @7 unknown #
coedge $-1 -1 $-1 $242 $90 $93 $152 reversed $132 $-1 #
coedge $-1 -1 $-1 $90 $242 $238 $243 reversed $132 $-1 #
vertex $-1 -1 $-1 $91 $244 #
straight-curve $-1 -1 $-1 -4.1872362072035338 -4.4750100000000002 4.9421637927964657 0 0.99999999999999989 0 I I #
vertex $-1 -1 $-1 $92 $245 #
straight-curve $-1 -1 $-1 -4.1498797559534486 -4.4750100000000002 4.8027435487499144 0 0.99999999999999989 0 I I #
coedge $-1 -1 $-1 $93 $154 $246 $247 forward $94 $-1 #
edge $-1 -1 $-1 $248 -0.10825271934035731 $95 0.036085456136541121 $93 $249 forward @7 unknown #
loop $-1 -1 $-1 $-1 $250 $155 #
coedge $-1 -1 $-1 $151 $137 $134 $228 forward $94 $-1 #
face $251 -1 $-1 $252 $94 $9 $-1 $253 forward single #
point $-1 -1 $-1 -4.1872362072035338 -4.375 4.9421637927964657 #
point $-1 -1 $-1 -4.1498797559534486 -4.375 4.8027435487499144 #
face $254 -1 $-1 $255 $256 $23 $-1 $257 reversed single #
loop $-1 -1 $-1 $-1 $258 $99 #
plane-surface $-1 -1 $-1 -0.1875 0 0 1 0 0 0 0 -1 forward_v I I I I #
coedge $-1 -1 $-1 $259 $169 $260 $261 forward $100 $-1 #
coedge $-1 -1 $-1 $262 $102 $259 $263 forward $65 $-1 #
coedge $-1 -1 $-1 $102 $262 $264 $265 forward $65 $-1 #
coedge $-1 -1 $-1 $172 $171 $102 $165 reversed $173 $-1 #
edge $-1 -1 $-1 $266 -0.5 $267 0.5 $164 $268 forward @7 unknown #
coedge $-1 -1 $-1 $104 $103 $269 $270 forward $44 $-1 #
coedge $-1 -1 $-1 $271 $272 $103 $168 reversed $256 $-1 #
edge $-1 -1 $-1 $175 -0.1875 $273 0.1875 $167 $274 forward @7 unknown #
coedge $-1 -1 $-1 $161 $275 $104 $170 reversed $100 $-1 #
edge $-1 -1 $-1 $276 -0.1875 $174 0.1875 $169 $277 forward @7 unknown #
coedge $-1 -1 $-1 $164 $105 $275 $278 forward $173 $-1 #
coedge $-1 -1 $-1 $105 $164 $271 $279 reversed $173 $-1 #
loop $-1 -1 $-1 $-1 $171 $255 #
vertex $-1 -1 $-1 $106 $280 #
vertex $-1 -1 $-1 $106 $281 #
straight-curve $-1 -1 $-1 0.1875 0 0.1875 0 1 0 I I #
face $-1 -1 $-1 $282 $283 $25 $-1 $284 forward single #
loop $-1 -1 $-1 $-1 $285 $107 #
coedge $-1 -1 $-1 $286 $287 $285 $288 forward $108 $-1 #
coedge $-1 -1 $-1 $289 $109 $290 $291 reversed $69 $-1 #
coedge $-1 -1 $-1 $109 $289 $111 $188 forward $69 $-1 #
coedge $-1 -1 $-1 $292 $293 $109 $183 forward $294 $-1 #
edge $-1 -1 $-1 $295 -2.3561944901923448 $296 -0.78539816339744828 $182 $297 forward @7 unknown #
coedge $-1 -1 $-1 $111 $110 $298 $299 reversed $47 $-1 #
coedge $-1 -1 $-1 $287 $286 $300 $186 reversed $108 $-1 #
edge $-1 -1 $-1 $192 -1 $301 0 $300 $302 forward @7 unknown #
coedge $-1 -1 $-1 $303 $304 $305 $188 forward $306 $-1 #
edge $-1 -1 $-1 $193 -1 $296 0 $187 $307 forward @7 unknown #
coedge $-1 -1 $-1 $190 $112 $304 $308 reversed $191 $-1 #
coedge $-1 -1 $-1 $112 $189 $309 $310 forward $191 $-1 #
loop $-1 -1 $-1 $-1 $112 $311 #
vertex $-1 -1 $-1 $312 $313 #
vertex $-1 -1 $-1 $314 $315 #
ellipse-curve $-1 -1 $-1 0 -0.5 0 0 1 0 -0.13258252147247765 0 0.13258252147247765 1 I I #
loop $-1 -1 $-1 $316 $317 $114 #
plane-surface $-1 -1 $-1 0.0040176521658326567 -0.25 -0.0040176521658326593 0 1 0 0 0 1 forward_v I I I I #
loop $-1 -1 $-1 $-1 $120 $71 #
coedge $-1 -1 $-1 $198 $198 $118 $200 reversed $115 $-1 #
coedge $-1 -1 $-1 $199 $199 $317 $318 reversed $117 $-1 #
edge $-1 -1 $-1 $319 -3.1415926535897931 $319 3.1415926535897931 $118 $320 forward @7 unknown #
coedge $-1 -1 $-1 $201 $201 $119 $202 forward $316 $-1 #
edge $321 -1 $-1 $322 0 $322 6.2831853071795862 $119 $323 forward @7 unknown #
vertex $-1 -1 $-1 $121 $324 #
ellipse-curve $-1 -1 $-1 0 0.5 0 0 1 0 -0.088388347648318419 0 0.088388347648318419 1 I I #
face $-1 -1 $-1 $325 $326 $29 $-1 $327 forward single #
loop $-1 -1 $-1 $-1 $328 $122 #
plane-surface $-1 -1 $-1 -0.13942024404655129 -0.375 0.037356451250085243 -0.70710678118654757 0 0.70710678118654757 0.70710678118654757 0 0.70710678118654757 forward_v I I I I #
coedge $-1 -1 $-1 $329 $330 $331 $332 forward $123 $-1 #
coedge $-1 -1 $-1 $333 $125 $330 $334 reversed $77 $-1 #
coedge $-1 -1 $-1 $125 $333 $126 $214 forward $77 $-1 #
coedge $-1 -1 $-1 $128 $331 $125 $212 reversed $218 $-1 #
edge $-1 -1 $-1 $220 -0.10825271934035738 $335 0.03608545613654103 $125 $336 forward @7 unknown #
coedge $-1 -1 $-1 $127 $126 $337 $338 reversed $53 $-1 #
edge $339 -1 $-1 $340 0 $220 0.125 $210 $341 forward @7 unknown #
coedge $-1 -1 $-1 $342 $343 $127 $216 reversed $344 $-1 #
edge $-1 -1 $-1 $345 0 $219 0.125 $127 $346 forward @7 unknown #
coedge $-1 -1 $-1 $347 $128 $343 $348 reversed $218 $-1 #
loop $-1 -1 $-1 $-1 $128 $349 #
vertex $-1 -1 $-1 $216 $350 #
vertex $-1 -1 $-1 $214 $351 #
straight-curve $-1 -1 $-1 0.062872399449201755 -0.5 -0.11390429584743478 -0.70710678118654757 0 -0.70710678118654757 I I #
model_id-kcp-attrib $-1 -1 $-1 $-1 $131 1 1021323701 1021323701 614924289 7 #
face $352 -1 $-1 $353 $239 $9 $-1 $354 forward single #
loop $-1 -1 $-1 $-1 $246 $131 #
plane-surface $-1 -1 $-1 -4.3266564512500851 -4.4750100000000002 4.9795202440465509 -0.70710678118654757 0 0.70710678118654757 0.70710678118654735 0 0.70710678118654735 forward_v I I I I #
coedge $-1 -1 $-1 $355 $134 $136 $230 forward $82 $-1 #
coedge $-1 -1 $-1 $134 $355 $356 $357 reversed $82 $-1 #
edge $-1 -1 $-1 $231 -0.10825454387499034 $358 0.036083631601908098 $154 $359 forward @7 unknown #
coedge $-1 -1 $-1 $136 $135 $360 $361 reversed $57 $-1 #
edge $-1 -1 $-1 $231 0.10001000000000017 $362 0.22501000000000018 $136 $363 forward @7 unknown #
vertex $-1 -1 $-1 $228 $364 #
straight-curve $-1 -1 $-1 -4.3565078506005435 -4.375 4.7286968582852875 -0.96592771514467246 0 0.25881199569454283 I I #
coedge $-1 -1 $-1 $143 $360 $139 $234 forward $239 $-1 #
edge $365 -1 $-1 $235 -0.14433999999999969 $149 0 $139 $366 forward @7 unknown #
vertex $-1 -1 $-1 $140 $367 #
straight-curve $-1 -1 $-1 -4.2519435487499146 -4.4750100000000002 4.7006797559534483 0 0.99999999999999989 0 I I #
point $-1 -1 $-1 -4.2519435487499146 -4.375 4.7006797559534483 #
coedge $-1 -1 $-1 $368 $143 $146 $243 forward $239 $-1 #
loop $-1 -1 $-1 $-1 $369 $223 #
attrib_edge_convexity-kcp-attrib $-1 -1 $370 $-1 $144 2 #
straight-curve $-1 -1 $-1 -4.1872362072035338 -4.25 4.9421637927964657 -0.25881199569454294 0 0.96592771514467246 I I #
coedge $-1 -1 $-1 $146 $145 $371 $372 forward $132 $-1 #
edge $373 -1 $-1 $147 -0.14433817547689845 $374 0 $146 $375 forward @7 unknown #
point $-1 -1 $-1 -4.1872362072035338 -4.25 4.9421637927964657 #
point $-1 -1 $-1 -4.1498797559534486 -4.25 4.8027435487499144 #
coedge $-1 -1 $-1 $356 $371 $151 $247 reversed $224 $-1 #
edge $-1 -1 $-1 $358 -0.10825499999999978 $248 0.03608499999999993 $151 $376 forward @7 unknown #
vertex $-1 -1 $-1 $152 $377 #
straight-curve $-1 -1 $-1 -4.2220921493994563 -4.375 4.9515031417147117 0.96592771514467246 0 -0.25881199569454283 I I #
coedge $-1 -1 $-1 $250 $250 $378 $379 forward $153 $-1 #
model_id-kcp-attrib $-1 -1 $-1 $-1 $155 1 1021323701 1021323701 614924289 12 #
face $380 -1 $-1 $-1 $381 $9 $-1 $382 forward single #
plane-surface $-1 -1 $-1 -4.2892999999999999 -4.375 4.8400999999999996 0 -1 0 0.70710678118654735 0 -0.70710678118654735 forward_v I I I I #
model_id-kcp-attrib $-1 -1 $-1 $-1 $158 1 1021323701 1021323701 614924290 2 #
face $-1 -1 $-1 $-1 $173 $23 $-1 $383 reversed single #
loop $-1 -1 $-1 $-1 $271 $158 #
plane-surface $-1 -1 $-1 0 0.5 0 0 -1 0 0 0 -1 forward_v I I I I #
coedge $-1 -1 $-1 $384 $269 $272 $385 forward $159 $-1 #
coedge $-1 -1 $-1 $275 $161 $162 $263 reversed $100 $-1 #
coedge $-1 -1 $-1 $269 $384 $161 $261 reversed $159 $-1 #
edge $-1 -1 $-1 $276 -0.1875 $386 0.1875 $260 $387 forward @7 unknown #
coedge $-1 -1 $-1 $163 $162 $384 $388 forward $65 $-1 #
edge $-1 -1 $-1 $267 -0.1875 $386 0.1875 $259 $389 forward @7 unknown #
coedge $-1 -1 $-1 $272 $271 $163 $265 reversed $256 $-1 #
edge $-1 -1 $-1 $390 -0.1875 $266 0.1875 $264 $391 forward @7 unknown #
vertex $-1 -1 $-1 $165 $392 #
vertex $-1 -1 $-1 $278 $393 #
straight-curve $-1 -1 $-1 0.1875 0 -0.1875 0 -1 0 I I #
coedge $-1 -1 $-1 $258 $260 $166 $270 reversed $159 $-1 #
edge $-1 -1 $-1 $273 -0.5 $276 0.5 $269 $394 forward @7 unknown #
coedge $-1 -1 $-1 $264 $167 $172 $279 forward $256 $-1 #
coedge $-1 -1 $-1 $167 $264 $258 $385 reversed $256 $-1 #
vertex $-1 -1 $-1 $168 $395 #
straight-curve $-1 -1 $-1 0 0.5 0.1875 -1 0 0 I I #
coedge $-1 -1 $-1 $169 $259 $171 $278 reversed $100 $-1 #
vertex $-1 -1 $-1 $270 $396 #
straight-curve $-1 -1 $-1 0 -0.5 0.1875 1 0 0 I I #
edge $-1 -1 $-1 $174 -0.1875 $267 0.1875 $171 $397 forward @7 unknown #
edge $-1 -1 $-1 $175 -0.1875 $266 0.1875 $172 $398 forward @7 unknown #
point $-1 -1 $-1 0.1875 -0.5 0.1875 #
point $-1 -1 $-1 0.1875 0.5 0.1875 #
face $-1 -1 $-1 $399 $400 $25 $-1 $401 reversed single #
loop $-1 -1 $-1 $-1 $305 $177 #
plane-surface $-1 -1 $-1 0 0 0.1875 0 0 1 1 0 0 forward_v I I I I #
coedge $-1 -1 $-1 $402 $403 $404 $288 reversed $178 $-1 #
coedge $-1 -1 $-1 $185 $179 $405 $406 reversed $108 $-1 #
coedge $-1 -1 $-1 $179 $185 $407 $408 reversed $108 $-1 #
edge $-1 -1 $-1 $409 -1 $410 0 $404 $411 forward @7 unknown #
coedge $-1 -1 $-1 $181 $180 $412 $413 reversed $69 $-1 #
coedge $-1 -1 $-1 $414 $415 $416 $291 forward $400 $-1 #
edge $-1 -1 $-1 $417 -1 $295 0 $290 $418 forward @7 unknown #
coedge $-1 -1 $-1 $293 $182 $419 $420 reversed $294 $-1 #
coedge $-1 -1 $-1 $182 $292 $414 $421 forward $294 $-1 #
loop $-1 -1 $-1 $-1 $182 $422 #
vertex $-1 -1 $-1 $423 $424 #
vertex $-1 -1 $-1 $425 $426 #
ellipse-curve $-1 -1 $-1 0 0.5 0 0 -1 0 -0.13258252147247765 0 0.13258252147247765 1 I I #
coedge $-1 -1 $-1 $427 $428 $184 $299 forward $429 $-1 #
edge $-1 -1 $-1 $296 -0.78539816339744828 $301 0.78539816339744828 $298 $297 forward @7 unknown #
coedge $-1 -1 $-1 $430 $431 $432 $186 forward $433 $-1 #
vertex $-1 -1 $-1 $434 $435 #
straight-curve $-1 -1 $-1 -0.1875 0.5 0 0 1 0 I I #
coedge $-1 -1 $-1 $436 $187 $428 $425 forward $306 $-1 #
coedge $-1 -1 $-1 $187 $436 $189 $308 forward $306 $-1 #
coedge $-1 -1 $-1 $437 $419 $181 $188 reversed $283 $-1 #
loop $-1 -1 $-1 $-1 $187 $438 #
straight-curve $-1 -1 $-1 0 0.5 0.1875 0 1 0 I I #
edge $-1 -1 $-1 $439 -0.1875 $193 0 $189 $440 forward @7 unknown #
coedge $-1 -1 $-1 $441 $432 $190 $310 reversed $442 $-1 #
edge $-1 -1 $-1 $439 -0.1875 $192 0 $309 $443 forward @7 unknown #
face $-1 -1 $-1 $444 $191 $25 $-1 $445 reversed single #
edge $-1 -1 $-1 $192 0 $446 0.1875 $431 $443 forward @7 unknown #
point $-1 -1 $-1 -0.1875 -0.5 0 #
edge $-1 -1 $-1 $193 0 $447 0.1875 $448 $440 forward @7 unknown #
point $-1 -1 $-1 0 -0.5 0.1875 #
loop $-1 -1 $-1 $-1 $201 $114 #
coedge $-1 -1 $-1 $317 $317 $199 $318 forward $195 $-1 #
edge $449 -1 $-1 $450 -3.1415926535897931 $450 3.1415926535897931 $199 $451 forward @7 unknown #
vertex $-1 -1 $-1 $200 $452 #
ellipse-curve $-1 -1 $-1 0 0.5 0 0 -1 0 -0.13258252147247765 0 0.13258252147247765 1 I I #
convexity-sys-attrib $-1 -1 $-1 $-1 $202 #
vertex $-1 -1 $-1 $202 $453 #
ellipse-curve $-1 -1 $-1 0 -0.25 0 0 1 0 -0.088388347648318419 0 0.088388347648318419 1 I I #
point $-1 -1 $-1 -0.088388347648318266 0.5 0.088388347648318266 #
face $-1 -1 $-1 $349 $344 $29 $-1 $454 forward single #
loop $-1 -1 $-1 $-1 $455 $205 #
plane-surface $-1 -1 $-1 -0.037356451250085243 -0.375 0.13942024404655129 0.25881199569454294 0 0.96592771514467268 0.96592771514467268 0 -0.25881199569454294 forward_v I I I I #
coedge $-1 -1 $-1 $456 $457 $458 $459 forward $206 $-1 #
coedge $-1 -1 $-1 $460 $208 $457 $461 reversed $123 $-1 #
coedge $-1 -1 $-1 $208 $460 $209 $334 forward $123 $-1 #
coedge $-1 -1 $-1 $211 $458 $208 $332 reversed $218 $-1 #
edge $-1 -1 $-1 $335 -0.10825454387499024 $462 0.036083631601908174 $208 $463 forward @7 unknown #
coedge $-1 -1 $-1 $210 $209 $464 $465 reversed $77 $-1 #
edge $-1 -1 $-1 $466 0 $335 0.125 $330 $467 forward @7 unknown #
vertex $-1 -1 $-1 $334 $468 #
straight-curve $-1 -1 $-1 -0.06720785060054367 -0.5 -0.11140314171471213 -0.96592771514467268 0 0.25881199569454294 I I #
coedge $-1 -1 $-1 $464 $469 $213 $338 forward $470 $-1 #
edge $471 -1 $-1 $345 -0.10825499999999977 $340 0.036084999999999923 $213 $472 forward @7 unknown #
convexity-sys-attrib $-1 -1 $-1 $-1 $214 #
vertex $-1 -1 $-1 $338 $473 #
straight-curve $-1 -1 $-1 0.037356451250085243 -0.375 -0.13942024404655129 0 -1 0 I I #
coedge $-1 -1 $-1 $474 $215 $469 $475 reversed $344 $-1 #
coedge $-1 -1 $-1 $215 $474 $217 $348 forward $344 $-1 #
loop $-1 -1 $-1 $-1 $343 $325 #
vertex $-1 -1 $-1 $475 $476 #
straight-curve $-1 -1 $-1 0.13942024404655129 -0.375 -0.037356451250085243 0 -1 0 I I #
coedge $-1 -1 $-1 $458 $217 $455 $477 reversed $218 $-1 #
edge $-1 -1 $-1 $478 -0.10825454387499024 $219 0.036083631601908174 $343 $479 forward @7 unknown #
face $-1 -1 $-1 $480 $218 $29 $-1 $481 reversed single #
point $-1 -1 $-1 0.13942024404655129 -0.5 -0.037356451250085243 #
point $-1 -1 $-1 0.037356451250085243 -0.5 -0.13942024404655129 #
model_id-kcp-attrib $-1 -1 $-1 $-1 $223 1 1021323701 1021323701 614924289 8 #
face $482 -1 $-1 $483 $484 $9 $-1 $485 forward single #
plane-surface $-1 -1 $-1 -4.4287202440465512 -4.25 4.8774564512500849 0 -1 0 0.70710678118654735 0 -0.70710678118654735 forward_v I I I I #
coedge $-1 -1 $-1 $227 $226 $369 $486 reversed $82 $-1 #
coedge $-1 -1 $-1 $487 $246 $227 $357 forward $224 $-1 #
edge $-1 -1 $-1 $358 0.10001000000000017 $488 0.22501000000000018 $227 $489 forward @7 unknown #
vertex $-1 -1 $-1 $228 $490 #
straight-curve $-1 -1 $-1 -4.4193813673397546 -4.375 4.8426022714227317 -0.25881199569454283 0 0.96592771514467246 I I #
coedge $-1 -1 $-1 $233 $369 $229 $361 forward $239 $-1 #
edge $491 -1 $-1 $362 -0.14433817547689845 $235 0 $229 $492 forward @7 unknown #
vertex $-1 -1 $-1 $230 $493 #
straight-curve $-1 -1 $-1 -4.3913637927964659 -4.4750100000000002 4.7380362072035336 0 0.99999999999999989 0 I I #
point $-1 -1 $-1 -4.3913637927964659 -4.375 4.7380362072035336 #
attrib_edge_convexity-kcp-attrib $-1 -1 $494 $-1 $234 2 #
straight-curve $-1 -1 $-1 -4.1498797559534486 -4.25 4.8027435487499144 0.70710678118654735 0 0.70710678118654735 I I #
point $-1 -1 $-1 -4.2519435487499146 -4.25 4.7006797559534483 #
coedge $-1 -1 $-1 $369 $238 $487 $495 forward $239 $-1 #
coedge $-1 -1 $-1 $360 $368 $355 $486 forward $239 $-1 #
convexity-sys-attrib $-1 -1 $-1 $240 $144 #
coedge $-1 -1 $-1 $246 $487 $242 $372 reversed $224 $-1 #
edge $-1 -1 $-1 $248 0.10001000000000017 $374 0.22501000000000018 $371 $496 forward @7 unknown #
attrib_edge_convexity-kcp-attrib $-1 -1 $497 $-1 $243 2 #
vertex $-1 -1 $-1 $372 $498 #
straight-curve $-1 -1 $-1 -4.3266564512500851 -4.25 4.9795202440465509 -0.96592771514467246 0 0.25881199569454294 I I #
straight-curve $-1 -1 $-1 -4.3521723994492021 -4.375 4.9540042958474348 0.70710678118654735 0 0.70710678118654735 I I #
point $-1 -1 $-1 -4.3266564512500851 -4.375 4.9795202440465509 #
coedge $-1 -1 $-1 $378 $378 $250 $379 reversed $499 $-1 #
edge $-1 -1 $-1 $500 0 $500 6.2831853071795862 $250 $501 forward @7 unknown #
model_id-kcp-attrib $-1 -1 $-1 $-1 $252 1 1021323701 1021323701 614924289 13 #
loop $-1 -1 $-1 $502 $503 $252 #
plane-surface $-1 -1 $-1 -4.2892999999999999 -4.125 4.8400999999999996 0 1 0 -0.70710678118654735 0 0.70710678118654735 forward_v I I I I #
plane-surface $-1 -1 $-1 0.1875 0 0 -1 0 0 0 0 1 forward_v I I I I #
coedge $-1 -1 $-1 $260 $258 $262 $388 reversed $159 $-1 #
edge $-1 -1 $-1 $273 -0.1875 $390 0.1875 $272 $504 forward @7 unknown #
vertex $-1 -1 $-1 $388 $505 #
straight-curve $-1 -1 $-1 -0.1875 -0.5 0 0 0 -1 I I #
edge $-1 -1 $-1 $386 -0.5 $390 0.5 $384 $506 forward @7 unknown #
straight-curve $-1 -1 $-1 0 -0.5 -0.1875 -1 0 0 I I #
vertex $-1 -1 $-1 $265 $507 #
straight-curve $-1 -1 $-1 0 0.5 -0.1875 1 0 0 I I #
point $-1 -1 $-1 0.1875 0.5 -0.1875 #
point $-1 -1 $-1 0.1875 -0.5 -0.1875 #
straight-curve $-1 -1 $-1 -0.1875 0 0.1875 0 -1 0 I I #
point $-1 -1 $-1 -0.1875 0.5 0.1875 #
point $-1 -1 $-1 -0.1875 -0.5 0.1875 #
straight-curve $-1 -1 $-1 0.1875 -0.5 0 0 0 -1 I I #
straight-curve $-1 -1 $-1 0.1875 0.5 0 0 0 -1 I I #
face $-1 -1 $-1 $508 $442 $25 $-1 $509 reversed single #
loop $-1 -1 $-1 $-1 $290 $282 #
plane-surface $-1 -1 $-1 0.1875 0 0 -1 0 0 0 0 1 forward_v I I I I #
coedge $-1 -1 $-1 $510 $285 $511 $512 reversed $178 $-1 #
coedge $-1 -1 $-1 $285 $510 $513 $514 reversed $178 $-1 #
coedge $-1 -1 $-1 $515 $516 $517 $288 forward $518 $-1 #
coedge $-1 -1 $-1 $519 $520 $286 $406 forward $521 $-1 #
edge $-1 -1 $-1 $301 0.78539816339744828 $410 2.3561944901923448 $405 $297 forward @7 unknown #
coedge $-1 -1 $-1 $522 $523 $287 $408 forward $524 $-1 #
edge $-1 -1 $-1 $409 -2.3561944901923448 $192 -0.78539816339744828 $407 $194 forward @7 unknown #
vertex $-1 -1 $-1 $525 $526 #
vertex $-1 -1 $-1 $527 $528 #
straight-curve $-1 -1 $-1 0 0.5 -0.1875 0 1 0 I I #
coedge $-1 -1 $-1 $529 $448 $289 $413 forward $530 $-1 #
edge $-1 -1 $-1 $193 0.78539816339744828 $417 2.3561944901923448 $412 $194 forward @7 unknown #
coedge $-1 -1 $-1 $531 $290 $293 $421 reversed $400 $-1 #
coedge $-1 -1 $-1 $290 $531 $529 $532 forward $400 $-1 #
coedge $-1 -1 $-1 $533 $534 $510 $291 reversed $535 $-1 #
vertex $-1 -1 $-1 $536 $537 #
straight-curve $-1 -1 $-1 0.1875 0.5 0 0 1 0 I I #
coedge $-1 -1 $-1 $305 $538 $292 $420 forward $283 $-1 #
edge $-1 -1 $-1 $539 -0.1875 $296 0 $292 $540 forward @7 unknown #
edge $-1 -1 $-1 $539 -0.1875 $295 0 $414 $541 forward @7 unknown #
face $-1 -1 $-1 $542 $294 $25 $-1 $543 reversed single #
edge $-1 -1 $-1 $295 0 $544 0.1875 $534 $541 forward @7 unknown #
point $-1 -1 $-1 0.1875 0.5 0 #
edge $-1 -1 $-1 $296 0 $545 0.1875 $428 $540 forward @7 unknown #
point $-1 -1 $-1 0 0.5 0.1875 #
coedge $-1 -1 $-1 $428 $298 $546 $547 reversed $429 $-1 #
coedge $-1 -1 $-1 $298 $427 $303 $425 reversed $429 $-1 #
loop $-1 -1 $-1 $-1 $298 $542 #
coedge $-1 -1 $-1 $548 $300 $520 $434 forward $433 $-1 #
coedge $-1 -1 $-1 $300 $548 $522 $312 reversed $433 $-1 #
coedge $-1 -1 $-1 $309 $546 $110 $186 reversed $442 $-1 #
loop $-1 -1 $-1 $-1 $300 $549 #
edge $-1 -1 $-1 $301 0 $550 0.1875 $520 $551 forward @7 unknown #
point $-1 -1 $-1 -0.1875 0.5 0 #
coedge $-1 -1 $-1 $304 $303 $441 $552 forward $306 $-1 #
coedge $-1 -1 $-1 $538 $305 $448 $314 forward $283 $-1 #
face $-1 -1 $-1 $553 $306 $25 $-1 $284 forward single #
vertex $-1 -1 $-1 $552 $554 #
straight-curve $-1 -1 $-1 0 -0.5 0.1875 1 0 0 I I #
coedge $-1 -1 $-1 $546 $309 $436 $552 reversed $442 $-1 #
loop $-1 -1 $-1 $-1 $432 $399 #
straight-curve $-1 -1 $-1 -0.1875 -0.5 0 0 0 -1 I I #
face $-1 -1 $-1 $555 $530 $25 $-1 $445 reversed single #
plane-surface $-1 -1 $-1 0 -0.5 0 0 1 0 0 0 1 forward_v I I I I #
vertex $-1 -1 $-1 $556 $557 #
vertex $-1 -1 $-1 $558 $559 #
coedge $-1 -1 $-1 $412 $529 $437 $314 reversed $530 $-1 #
convexity-sys-attrib $-1 -1 $-1 $-1 $318 #
vertex $-1 -1 $-1 $318 $560 #
ellipse-curve $-1 -1 $-1 0 -0.25 0 0 -1 0 -0.13258252147247765 0 0.13258252147247765 1 I I #
point $-1 -1 $-1 0.13258252147247768 0.5 -0.13258252147247762 #
point $-1 -1 $-1 -0.088388347648318266 -0.25 0.088388347648318266 #
plane-surface $-1 -1 $-1 0.10206379279646605 -0.375 0.10206379279646605 0.96592771514467268 0 0.25881199569454294 0.25881199569454294 0 -0.96592771514467268 forward_v I I I I #
coedge $-1 -1 $-1 $561 $562 $347 $477 forward $326 $-1 #
coedge $-1 -1 $-1 $563 $328 $562 $564 reversed $206 $-1 #
coedge $-1 -1 $-1 $328 $563 $329 $461 forward $206 $-1 #
coedge $-1 -1 $-1 $331 $347 $328 $459 reversed $218 $-1 #
edge $-1 -1 $-1 $462 -0.10825499999999977 $565 0.036084999999999923 $328 $566 forward @7 unknown #
coedge $-1 -1 $-1 $330 $329 $567 $568 reversed $123 $-1 #
edge $-1 -1 $-1 $569 0 $462 0.125 $457 $570 forward @7 unknown #
vertex $-1 -1 $-1 $461 $571 #
straight-curve $-1 -1 $-1 -0.13008136733975476 -0.5 0.0025022714227319748 -0.25881199569454294 0 0.96592771514467268 I I #
coedge $-1 -1 $-1 $567 $337 $333 $465 forward $470 $-1 #
edge $572 -1 $-1 $340 -0.10825271934035738 $466 0.03608545613654103 $333 $573 forward @7 unknown #
vertex $-1 -1 $-1 $465 $574 #
straight-curve $-1 -1 $-1 -0.10206379279646605 -0.375 -0.10206379279646605 0 -1 0 I I #
point $-1 -1 $-1 -0.10206379279646605 -0.5 -0.10206379279646605 #
coedge $-1 -1 $-1 $337 $575 $342 $475 forward $470 $-1 #
loop $-1 -1 $-1 $-1 $469 $480 #
convexity-sys-attrib $-1 -1 $-1 $-1 $338 #
straight-curve $-1 -1 $-1 0.062872399449201755 -0.375 -0.11390429584743478 -0.70710678118654757 0 -0.70710678118654757 I I #
point $-1 -1 $-1 0.037356451250085243 -0.375 -0.13942024404655129 #
coedge $-1 -1 $-1 $343 $342 $561 $576 forward $344 $-1 #
edge $577 -1 $-1 $578 -0.10825454387499024 $345 0.036083631601908174 $342 $579 forward @7 unknown #
point $-1 -1 $-1 0.13942024404655129 -0.375 -0.037356451250085243 #
edge $-1 -1 $-1 $565 -0.10825271934035738 $478 0.03608545613654103 $455 $580 forward @7 unknown #
vertex $-1 -1 $-1 $576 $581 #
straight-curve $-1 -1 $-1 0.13008136733975476 -0.5 -0.0025022714227319748 0.25881199569454294 0 -0.96592771514467268 I I #
face $-1 -1 $-1 $-1 $470 $29 $-1 $582 forward single #
plane-surface $-1 -1 $-1 0 -0.5 -1.7347234759768071e-018 0 1 0 0 0 1 forward_v I I I I #
model_id-kcp-attrib $-1 -1 $-1 $-1 $353 1 1021323701 1021323701 614924289 9 #
face $583 -1 $-1 $584 $585 $9 $-1 $586 forward single #
loop $-1 -1 $-1 $587 $588 $353 #
cone-surface $-1 -1 $-1 -4.2892999999999999 -3.75 4.8400999999999996 0 1 0 -0.088388347648318419 0 0.088388347648318419 1 I I 0 1 0.12499999999999999 forward I I I I #
edge $589 -1 $-1 $488 -0.14433817547689845 $362 0 $355 $590 forward @7 unknown #
coedge $-1 -1 $-1 $371 $356 $368 $495 reversed $224 $-1 #
vertex $-1 -1 $-1 $357 $591 #
straight-curve $-1 -1 $-1 -4.4287202440465512 -4.4750100000000002 4.8774564512500849 0 0.99999999999999989 0 I I #
point $-1 -1 $-1 -4.4287202440465512 -4.375 4.8774564512500849 #
attrib_edge_convexity-kcp-attrib $-1 -1 $592 $-1 $361 2 #
straight-curve $-1 -1 $-1 -4.2519435487499146 -4.25 4.7006797559534483 0.96592771514467246 0 -0.25881199569454294 I I #
point $-1 -1 $-1 -4.3913637927964659 -4.25 4.7380362072035336 #
convexity-sys-attrib $-1 -1 $-1 $365 $234 #
edge $593 -1 $-1 $374 -0.14433999999999969 $488 0 $487 $594 forward @7 unknown #
straight-curve $-1 -1 $-1 -4.3266564512500851 -4.4750100000000002 4.9795202440465509 0 0.99999999999999989 0 I I #
convexity-sys-attrib $-1 -1 $-1 $373 $243 #
point $-1 -1 $-1 -4.3266564512500851 -4.25 4.9795202440465509 #
loop $-1 -1 $-1 $595 $378 $584 #
vertex $-1 -1 $-1 $379 $596 #
ellipse-curve $-1 -1 $-1 -4.2892999999999999 -4.375 4.8400999999999996 0 -1 0 -0.13258252147247765 0 0.13258252147247765 1 I I #
loop $-1 -1 $-1 $-1 $597 $252 #
coedge $-1 -1 $-1 $503 $503 $588 $598 forward $381 $-1 #
straight-curve $-1 -1 $-1 -0.1875 0.5 0 0 0 -1 I I #
point $-1 -1 $-1 -0.1875 -0.5 -0.1875 #
straight-curve $-1 -1 $-1 -0.1875 0 -0.1875 0 1 0 I I #
point $-1 -1 $-1 -0.1875 0.5 -0.1875 #
face $-1 -1 $-1 $422 $599 $25 $-1 $543 reversed single #
plane-surface $-1 -1 $-1 -0.1875 0 0 1 0 0 0 0 -1 forward_v I I I I #
coedge $-1 -1 $-1 $403 $402 $180 $291 forward $178 $-1 #
coedge $-1 -1 $-1 $600 $601 $402 $512 forward $602 $-1 #
edge $-1 -1 $-1 $417 2.3561944901923448 $409 3.9269908169872414 $511 $194 forward @7 unknown #
coedge $-1 -1 $-1 $603 $604 $403 $514 forward $599 $-1 #
edge $-1 -1 $-1 $410 2.3561944901923448 $295 3.9269908169872414 $513 $297 forward @7 unknown #
coedge $-1 -1 $-1 $605 $404 $604 $527 forward $518 $-1 #
coedge $-1 -1 $-1 $404 $605 $600 $606 forward $518 $-1 #
coedge $-1 -1 $-1 $607 $608 $179 $288 reversed $609 $-1 #
loop $-1 -1 $-1 $-1 $404 $553 #
coedge $-1 -1 $-1 $520 $405 $608 $610 reversed $521 $-1 #
coedge $-1 -1 $-1 $405 $519 $430 $434 reversed $521 $-1 #
loop $-1 -1 $-1 $-1 $405 $611 #
coedge $-1 -1 $-1 $523 $407 $431 $312 forward $524 $-1 #
coedge $-1 -1 $-1 $407 $522 $607 $525 reversed $524 $-1 #
loop $-1 -1 $-1 $-1 $407 $612 #
edge $-1 -1 $-1 $409 0 $446 0.1875 $523 $613 forward @7 unknown #
point $-1 -1 $-1 0 -0.5 -0.1875 #
edge $-1 -1 $-1 $410 0 $544 0.1875 $604 $614 forward @7 unknown #
point $-1 -1 $-1 0 0.5 -0.1875 #
coedge $-1 -1 $-1 $448 $412 $415 $532 reversed $530 $-1 #
loop $-1 -1 $-1 $-1 $412 $444 #
coedge $-1 -1 $-1 $415 $414 $538 $558 reversed $400 $-1 #
edge $-1 -1 $-1 $447 -0.1875 $417 0 $415 $615 forward @7 unknown #
coedge $-1 -1 $-1 $616 $416 $601 $536 forward $535 $-1 #
coedge $-1 -1 $-1 $416 $616 $603 $423 reversed $535 $-1 #
loop $-1 -1 $-1 $-1 $416 $617 #
edge $-1 -1 $-1 $417 0 $618 0.1875 $533 $615 forward @7 unknown #
point $-1 -1 $-1 0.1875 -0.5 0 #
coedge $-1 -1 $-1 $419 $437 $531 $558 forward $283 $-1 #
vertex $-1 -1 $-1 $558 $619 #
straight-curve $-1 -1 $-1 0 0.5 0.1875 -1 0 0 I I #
straight-curve $-1 -1 $-1 0.1875 0.5 0 0 0 -1 I I #
face $-1 -1 $-1 $611 $429 $25 $-1 $543 reversed single #
plane-surface $-1 -1 $-1 0 0.5 0 0 -1 0 0 0 -1 forward_v I I I I #
vertex $-1 -1 $-1 $620 $621 #
vertex $-1 -1 $-1 $425 $622 #
coedge $-1 -1 $-1 $432 $441 $427 $547 forward $442 $-1 #
edge $-1 -1 $-1 $545 -0.1875 $301 0 $427 $551 forward @7 unknown #
coedge $-1 -1 $-1 $431 $430 $623 $556 reversed $433 $-1 #
face $-1 -1 $-1 $617 $433 $25 $-1 $509 reversed single #
vertex $-1 -1 $-1 $610 $624 #
straight-curve $-1 -1 $-1 -0.1875 0.5 0 0 0 -1 I I #
edge $-1 -1 $-1 $545 -0.5 $439 0.5 $441 $625 forward @7 unknown #
face $-1 -1 $-1 $549 $518 $25 $-1 $626 reversed single #
point $-1 -1 $-1 -0.1875 -0.5 0.1875 #
face $-1 -1 $-1 $627 $602 $25 $-1 $445 reversed single #
edge $-1 -1 $-1 $446 -0.5 $550 0.5 $548 $628 forward @7 unknown #
point $-1 -1 $-1 -0.1875 -0.5 -0.1875 #
edge $-1 -1 $-1 $447 -0.5 $539 0.5 $531 $629 forward @7 unknown #
point $-1 -1 $-1 0.1875 -0.5 0.1875 #
point $-1 -1 $-1 0.13258252147247768 -0.25 -0.13258252147247762 #
coedge $-1 -1 $-1 $630 $455 $474 $576 reversed $326 $-1 #
coedge $-1 -1 $-1 $455 $630 $456 $564 forward $326 $-1 #
coedge $-1 -1 $-1 $457 $456 $631 $632 reversed $206 $-1 #
edge $-1 -1 $-1 $633 0 $565 0.125 $562 $634 forward @7 unknown #
vertex $-1 -1 $-1 $564 $635 #
straight-curve $-1 -1 $-1 -0.062872399449201755 -0.5 0.11390429584743478 0.70710678118654757 0 0.70710678118654757 I I #
coedge $-1 -1 $-1 $631 $464 $460 $568 forward $470 $-1 #
edge $636 -1 $-1 $466 -0.10825454387499024 $569 0.036083631601908174 $460 $637 forward @7 unknown #
vertex $-1 -1 $-1 $568 $638 #
straight-curve $-1 -1 $-1 -0.13942024404655129 -0.375 0.037356451250085243 0 -1 0 I I #
point $-1 -1 $-1 -0.13942024404655129 -0.5 0.037356451250085243 #
convexity-sys-attrib $-1 -1 $-1 $-1 $465 #
straight-curve $-1 -1 $-1 -0.06720785060054367 -0.375 -0.11140314171471213 -0.96592771514467268 0 0.25881199569454294 I I #
point $-1 -1 $-1 -0.10206379279646605 -0.375 -0.10206379279646605 #
coedge $-1 -1 $-1 $469 $631 $630 $639 forward $470 $-1 #
edge $-1 -1 $-1 $578 0 $478 0.125 $474 $640 forward @7 unknown #
convexity-sys-attrib $-1 -1 $-1 $-1 $475 #
vertex $-1 -1 $-1 $475 $641 #
straight-curve $-1 -1 $-1 0.13008136733975476 -0.375 -0.0025022714227319748 0.25881199569454294 0 -0.96592771514467268 I I #
straight-curve $-1 -1 $-1 0.06720785060054367 -0.5 0.11140314171471213 0.96592771514467268 0 -0.25881199569454294 I I #
point $-1 -1 $-1 0.10206379279646605 -0.5 0.10206379279646605 #
plane-surface $-1 -1 $-1 0 -0.375 -1.7347234759768071e-018 0 1 0 0 0 1 forward_v I I I I #
model_id-kcp-attrib $-1 -1 $-1 $-1 $483 1 1021323701 1021323701 614924289 10 #
face $642 -1 $-1 $155 $499 $9 $-1 $643 forward single #
loop $-1 -1 $-1 $-1 $644 $483 #
plane-surface $-1 -1 $-1 -4.2892999999999999 -3.375 4.8400999999999996 0 1 0 -0.70710678118654735 0 0.70710678118654735 forward_v I I I I #
loop $-1 -1 $-1 $-1 $645 $353 #
coedge $-1 -1 $-1 $588 $588 $503 $598 reversed $484 $-1 #
attrib_edge_convexity-kcp-attrib $-1 -1 $646 $-1 $486 2 #
straight-curve $-1 -1 $-1 -4.3913637927964659 -4.25 4.7380362072035336 0.25881199569454294 0 -0.96592771514467246 I I #
point $-1 -1 $-1 -4.4287202440465512 -4.25 4.8774564512500849 #
convexity-sys-attrib $-1 -1 $-1 $491 $361 #
attrib_edge_convexity-kcp-attrib $-1 -1 $647 $-1 $495 2 #
straight-curve $-1 -1 $-1 -4.4287202440465512 -4.25 4.8774564512500849 -0.70710678118654735 0 -0.70710678118654735 I I #
loop $-1 -1 $-1 $-1 $648 $584 #
point $-1 -1 $-1 -4.4218825214724777 -4.375 4.9726825214724775 #
coedge $-1 -1 $-1 $597 $597 $648 $649 forward $502 $-1 #
edge $650 -1 $-1 $651 0 $651 6.2831853071795862 $503 $652 forward @7 unknown #
loop $-1 -1 $-1 $-1 $513 $508 #
coedge $-1 -1 $-1 $601 $511 $516 $606 reversed $602 $-1 #
coedge $-1 -1 $-1 $511 $600 $533 $536 reversed $602 $-1 #
loop $-1 -1 $-1 $-1 $511 $555 #
coedge $-1 -1 $-1 $604 $513 $534 $423 forward $599 $-1 #
coedge $-1 -1 $-1 $513 $603 $515 $527 reversed $599 $-1 #
coedge $-1 -1 $-1 $516 $515 $616 $620 forward $518 $-1 #
edge $-1 -1 $-1 $618 -0.1875 $409 0 $600 $613 forward @7 unknown #
coedge $-1 -1 $-1 $623 $517 $523 $525 forward $609 $-1 #
coedge $-1 -1 $-1 $517 $623 $519 $610 forward $609 $-1 #
loop $-1 -1 $-1 $-1 $517 $627 #
edge $-1 -1 $-1 $550 -0.1875 $410 0 $519 $614 forward @7 unknown #
face $-1 -1 $-1 $612 $521 $25 $-1 $543 reversed single #
face $-1 -1 $-1 $311 $524 $25 $-1 $445 reversed single #
straight-curve $-1 -1 $-1 0 -0.5 -0.1875 -1 0 0 I I #
straight-curve $-1 -1 $-1 0 0.5 -0.1875 1 0 0 I I #
straight-curve $-1 -1 $-1 0.1875 -0.5 0 0 0 -1 I I #
coedge $-1 -1 $-1 $534 $533 $605 $620 reversed $535 $-1 #
face $-1 -1 $-1 $-1 $535 $25 $-1 $401 reversed single #
vertex $-1 -1 $-1 $536 $653 #
point $-1 -1 $-1 0.1875 0.5 0.1875 #
edge $-1 -1 $-1 $544 -0.5 $618 0.5 $616 $654 forward @7 unknown #
point $-1 -1 $-1 0.1875 0.5 -0.1875 #
point $-1 -1 $-1 -0.1875 0.5 0.1875 #
coedge $-1 -1 $-1 $608 $607 $548 $556 forward $609 $-1 #
point $-1 -1 $-1 -0.1875 0.5 -0.1875 #
straight-curve $-1 -1 $-1 -0.1875 0 0.1875 0 -1 0 I I #
plane-surface $-1 -1 $-1 0 0 -0.1875 0 0 1 1 0 0 forward_v I I I I #
face $-1 -1 $-1 $438 $609 $25 $-1 $626 reversed single #
straight-curve $-1 -1 $-1 -0.1875 0 -0.1875 0 1 0 I I #
straight-curve $-1 -1 $-1 0.1875 0 0.1875 0 1 0 I I #
coedge $-1 -1 $-1 $562 $561 $575 $639 reversed $326 $-1 #
coedge $-1 -1 $-1 $575 $567 $563 $632 forward $470 $-1 #
edge $655 -1 $-1 $569 -0.10825499999999977 $633 0.036084999999999923 $563 $656 forward @7 unknown #
vertex $-1 -1 $-1 $632 $657 #
straight-curve $-1 -1 $-1 -0.037356451250085243 -0.375 0.13942024404655129 0 -1 0 I I #
point $-1 -1 $-1 -0.037356451250085243 -0.5 0.13942024404655129 #
convexity-sys-attrib $-1 -1 $-1 $-1 $568 #
straight-curve $-1 -1 $-1 -0.13008136733975476 -0.375 0.0025022714227319748 -0.25881199569454294 0 0.96592771514467268 I I #
point $-1 -1 $-1 -0.13942024404655129 -0.375 0.037356451250085243 #
edge $658 -1 $-1 $633 -0.10825271934035738 $578 0.03608545613654103 $630 $659 forward @7 unknown #
straight-curve $-1 -1 $-1 0.10206379279646605 -0.375 0.10206379279646605 0 -1 0 I I #
point $-1 -1 $-1 0.10206379279646605 -0.375 0.10206379279646605 #
model_id-kcp-attrib $-1 -1 $-1 $-1 $584 1 1021323701 1021323701 614924289 11 #
cone-surface $-1 -1 $-1 -4.2892999999999999 -4.25 4.8400999999999996 0 1 0 -0.13258252147247765 0 0.13258252147247765 1 I I 0 1 0.1875 forward I I I I #
coedge $-1 -1 $-1 $644 $644 $645 $660 forward $585 $-1 #
coedge $-1 -1 $-1 $645 $645 $644 $660 reversed $587 $-1 #
convexity-sys-attrib $-1 -1 $-1 $589 $486 #
convexity-sys-attrib $-1 -1 $-1 $593 $495 #
coedge $-1 -1 $-1 $648 $648 $597 $649 reversed $595 $-1 #
edge $661 -1 $-1 $662 0 $662 6.2831853071795862 $597 $663 forward @7 unknown #
attrib_edge_convexity-kcp-attrib $-1 -1 $664 $-1 $598 2 #
vertex $-1 -1 $-1 $598 $665 #
ellipse-curve $-1 -1 $-1 -4.2892999999999999 -4.125 4.8400999999999996 0 -1 0 -0.088388347648318419 0 0.088388347648318419 1 I I #
point $-1 -1 $-1 0.1875 -0.5 -0.1875 #
straight-curve $-1 -1 $-1 0.1875 0 -0.1875 0 -1 0 I I #
convexity-sys-attrib $-1 -1 $-1 $-1 $632 #
straight-curve $-1 -1 $-1 -0.062872399449201755 -0.375 0.11390429584743478 0.70710678118654757 0 0.70710678118654757 I I #
point $-1 -1 $-1 -0.037356451250085243 -0.375 0.13942024404655129 #
convexity-sys-attrib $-1 -1 $-1 $-1 $639 #
straight-curve $-1 -1 $-1 0.06720785060054367 -0.375 0.11140314171471213 0.96592771514467268 0 -0.25881199569454294 I I #
edge $666 -1 $-1 $667 0 $667 6.2831853071795862 $644 $668 forward @7 unknown #
attrib_edge_convexity-kcp-attrib $-1 -1 $669 $-1 $649 1 #
vertex $-1 -1 $-1 $649 $670 #
ellipse-curve $-1 -1 $-1 -4.2892999999999999 -4.125 4.8400999999999996 0 1 0 -0.13258252147247765 0 0.13258252147247765 1 I I #
convexity-sys-attrib $-1 -1 $-1 $650 $598 #
point $-1 -1 $-1 -4.3776883476483182 -4.125 4.9284883476483179 #
attrib_edge_convexity-kcp-attrib $-1 -1 $671 $-1 $660 1 #
vertex $-1 -1 $-1 $660 $672 #
ellipse-curve $-1 -1 $-1 -4.2892999999999999 -3.375 4.8400999999999996 0 1 0 -0.088388347648318419 0 0.088388347648318419 1 I I #
convexity-sys-attrib $-1 -1 $-1 $661 $649 #
point $-1 -1 $-1 -4.4218825214724777 -4.125 4.9726825214724775 #
convexity-sys-attrib $-1 -1 $-1 $666 $660 #
point $-1 -1 $-1 -4.3776883476483182 -3.375 4.9284883476483179 #
End-of-ACIS-data 