700 0 2 0           
24 FBMach with ACIS - 7.0.3 13 ACIS 7.0.3 NT 24 Mon May 13 17:01:29 2002 
1 9.9999999999999995e-007 1e-010 
body $2 -1 $-1 $3 $-1 $4 #
bdycol-kcp $-1 -1 1 4 $5 $6 $7 $8 #
model_id-kcp-attrib $-1 -1 $-1 $-1 $0 1 1021323688 1021323688 143917057 1 #
lump $-1 -1 $-1 $-1 $9 $0 #
transform $-1 -1 1 0 0 0 1 0 0 0 1 0 0 0 1 rotate no_reflect no_shear #
body $10 -1 $-1 $11 $-1 $12 #
body $13 -1 $-1 $14 $-1 $15 #
body $16 -1 $-1 $17 $-1 $18 #
body $19 -1 $-1 $20 $-1 $21 #
shell $-1 -1 $-1 $-1 $-1 $22 $-1 $3 #
model_id-kcp-attrib $-1 -1 $-1 $-1 $5 1 1021323688 1021323688 143917058 1 #
lump $-1 -1 $-1 $-1 $23 $5 #
transform $-1 -1 1 0 0 0 1 0 0 0 1 3.7151999999999998 -3.218 5.4142999999999999 1 no_rotate no_reflect no_shear #
rgb_color-st-attrib $-1 -1 $24 $-1 $6 0.5 1 1 #
lump $-1 -1 $-1 $-1 $25 $6 #
transform $-1 -1 1 0 0 0 1 0 0 0 1 3.7151999999999998 -3.218 5.4142999999999999 1 no_rotate no_reflect no_shear #
rgb_color-st-attrib $-1 -1 $26 $-1 $7 0 0 1 #
lump $-1 -1 $-1 $-1 $27 $7 #
transform $-1 -1 1 0 0 0 1 0 0 0 1 3.7151999999999998 -3.218 5.4142999999999999 1 no_rotate no_reflect no_shear #
rgb_color-st-attrib $-1 -1 $28 $-1 $8 1 0.5 1 #
lump $-1 -1 $-1 $-1 $29 $8 #
transform $-1 -1 1 0 0 0 1 0 0 0 1 3.7151999999999998 -3.218 5.4142999999999999 1 no_rotate no_reflect no_shear #
face $30 -1 $-1 $31 $32 $9 $-1 $33 reversed single #
shell $-1 -1 $-1 $-1 $-1 $34 $-1 $11 #
model_id-kcp-attrib $-1 -1 $-1 $13 $6 1 1021323688 1021323688 148504579 1 #
shell $-1 -1 $-1 $-1 $-1 $35 $-1 $14 #
model_id-kcp-attrib $-1 -1 $-1 $16 $7 1 1021323688 1021323689 145096708 1 #
shell $-1 -1 $-1 $-1 $-1 $36 $-1 $17 #
model_id-kcp-attrib $-1 -1 $-1 $19 $8 1 1021323688 1021323689 150339589 1 #
shell $-1 -1 $-1 $-1 $-1 $37 $-1 $20 #
model_id-kcp-attrib $-1 -1 $-1 $-1 $22 1 1021323688 1021323688 143917057 2 #
face $38 -1 $-1 $39 $40 $9 $-1 $41 reversed single #
loop $-1 -1 $-1 $-1 $42 $22 #
plane-surface $-1 -1 $-1 3.5757797559534481 -3.8180100000000001 5.4516564512500851 -0.96592771514467268 0 -0.25881199569454294 -0.25881199569454283 0 0.96592771514467246 forward_v I I I I #
face $-1 -1 $-1 $43 $44 $23 $-1 $45 forward single #
face $-1 -1 $-1 $46 $47 $25 $-1 $48 reversed single #
face $-1 -1 $-1 $49 $50 $27 $-1 $51 forward single #
face $-1 -1 $-1 $52 $53 $29 $-1 $54 forward single #
model_id-kcp-attrib $-1 -1 $-1 $-1 $31 1 1021323688 1021323688 143917057 3 #
face $55 -1 $-1 $56 $57 $9 $-1 $58 reversed single #
loop $-1 -1 $-1 $-1 $59 $31 #
plane-surface $-1 -1 $-1 3.6778435487499146 -3.8180100000000001 5.5537202440465512 -0.70710678118654757 0 0.70710678118654757 0.70710678118654735 0 0.70710678118654735 forward_v I I I I #
coedge $-1 -1 $-1 $60 $61 $62 $63 reversed $32 $-1 #
face $-1 -1 $-1 $64 $65 $23 $-1 $66 reversed single #
loop $-1 -1 $-1 $-1 $67 $34 #
plane-surface $-1 -1 $-1 0 0 0.1875 0 0 1 1 0 0 forward_v I I I I #
face $-1 -1 $-1 $68 $69 $25 $-1 $48 reversed single #
loop $-1 -1 $-1 $-1 $70 $35 #
cone-surface $-1 -1 $-1 0 0.5 0 0 1 0 -0.13258252147247762 0 0.13258252147247768 1 I I 0 1 0.18749999999999997 forward I I I I #
face $-1 -1 $-1 $71 $72 $27 $-1 $73 forward single #
loop $-1 -1 $-1 $-1 $74 $36 #
plane-surface $-1 -1 $-1 -0.13942024404655173 -0.375 0.037356451250085243 -0.70710678118654757 0 0.70710678118654757 0.70710678118654757 0 0.70710678118654757 forward_v I I I I #
face $-1 -1 $-1 $75 $76 $29 $-1 $77 forward single #
loop $-1 -1 $-1 $78 $79 $37 #
cone-surface $-1 -1 $-1 0 -0.25 0 0 1 0 0.088388347648318419 0 -0.088388347648318419 1 I I 0 -1 0.12499999999999997 forward I I I I #
model_id-kcp-attrib $-1 -1 $-1 $-1 $39 1 1021323688 1021323688 143917057 4 #
face $80 -1 $-1 $81 $82 $9 $-1 $83 reversed single #
loop $-1 -1 $-1 $-1 $84 $39 #
plane-surface $-1 -1 $-1 3.8172637927964663 -3.8180100000000001 5.5163637927964659 0.25881199569454294 0 0.96592771514467268 0.96592771514467246 0 -0.25881199569454283 forward_v I I I I #
coedge $-1 -1 $-1 $85 $86 $87 $88 reversed $40 $-1 #
coedge $-1 -1 $-1 $89 $42 $90 $91 forward $32 $-1 #
coedge $-1 -1 $-1 $42 $89 $85 $92 reversed $32 $-1 #
coedge $-1 -1 $-1 $87 $93 $42 $63 forward $94 $-1 #
edge $-1 -1 $-1 $95 -0.10825454387499034 $96 0.036083631601908098 $62 $97 forward @7 unknown #
face $98 -1 $-1 $99 $100 $23 $-1 $101 reversed single #
loop $-1 -1 $-1 $-1 $102 $43 #
plane-surface $-1 -1 $-1 0 0 -0.1875 0 0 1 1 0 0 forward_v I I I I #
coedge $-1 -1 $-1 $103 $104 $105 $106 forward $44 $-1 #
face $-1 -1 $-1 $107 $108 $25 $-1 $48 reversed single #
loop $-1 -1 $-1 $-1 $109 $46 #
coedge $-1 -1 $-1 $110 $111 $112 $113 reversed $47 $-1 #
face $-1 -1 $-1 $114 $115 $27 $-1 $116 forward single #
loop $-1 -1 $-1 $-1 $117 $49 #
plane-surface $-1 -1 $-1 -0.037356451250085243 -0.375 0.13942024404655129 0.25881199569454294 0 0.96592771514467268 0.96592771514467268 0 -0.25881199569454294 forward_v I I I I #
coedge $-1 -1 $-1 $118 $119 $120 $121 forward $50 $-1 #
face $-1 -1 $-1 $122 $123 $29 $-1 $124 forward single #
loop $-1 -1 $-1 $125 $126 $52 #
cone-surface $-1 -1 $-1 0 -0.25 0 0 1 0 -0.13258252147247762 0 0.13258252147247768 1 I I 0 1 0.18749999999999997 forward I I I I #
loop $-1 -1 $-1 $-1 $127 $37 #
coedge $-1 -1 $-1 $79 $79 $128 $129 forward $53 $-1 #
model_id-kcp-attrib $-1 -1 $-1 $-1 $56 1 1021323688 1021323688 143917057 5 #
face $130 -1 $-1 $131 $132 $9 $-1 $133 reversed single #
loop $-1 -1 $-1 $-1 $134 $56 #
plane-surface $-1 -1 $-1 3.8546202440465516 -3.8180100000000001 5.3769435487499146 0.96592771514467268 0 0.25881199569454294 0.25881199569454283 0 -0.96592771514467246 forward_v I I I I #
coedge $-1 -1 $-1 $135 $136 $137 $138 reversed $57 $-1 #
coedge $-1 -1 $-1 $139 $59 $61 $92 forward $40 $-1 #
coedge $-1 -1 $-1 $59 $139 $135 $140 reversed $40 $-1 #
coedge $-1 -1 $-1 $137 $62 $59 $88 forward $94 $-1 #
edge $-1 -1 $-1 $96 -0.10825500000000041 $141 0.03608499999999961 $87 $142 forward @7 unknown #
coedge $-1 -1 $-1 $61 $60 $143 $144 reversed $32 $-1 #
coedge $-1 -1 $-1 $145 $146 $60 $91 reversed $132 $-1 #
edge $-1 -1 $-1 $95 0.10001000000000017 $147 0.22501000000000018 $90 $148 forward @7 unknown #
edge $-1 -1 $-1 $96 0.10001000000000017 $149 0.22501000000000018 $61 $150 forward @7 unknown #
coedge $-1 -1 $-1 $62 $151 $145 $152 forward $94 $-1 #
loop $-1 -1 $-1 $153 $154 $155 #
vertex $-1 -1 $-1 $63 $156 #
vertex $-1 -1 $-1 $88 $157 #
straight-curve $-1 -1 $-1 3.5851186326602447 -3.718 5.416802271422732 -0.25881199569454283 0 0.96592771514467246 I I #
model_id-kcp-attrib $-1 -1 $-1 $-1 $64 1 1021323688 1021323688 143917058 3 #
face $-1 -1 $-1 $158 $159 $23 $-1 $160 reversed single #
loop $-1 -1 $-1 $-1 $161 $64 #
plane-surface $-1 -1 $-1 0 -0.5 0 0 1 0 0 0 1 forward_v I I I I #
coedge $-1 -1 $-1 $162 $163 $164 $165 forward $65 $-1 #
coedge $-1 -1 $-1 $166 $67 $167 $168 forward $44 $-1 #
coedge $-1 -1 $-1 $67 $166 $169 $170 forward $44 $-1 #
coedge $-1 -1 $-1 $171 $172 $67 $106 reversed $173 $-1 #
edge $-1 -1 $-1 $174 -0.5 $175 0.5 $105 $176 forward @7 unknown #
face $-1 -1 $-1 $177 $178 $25 $-1 $48 reversed single #
loop $-1 -1 $-1 $-1 $179 $68 #
coedge $-1 -1 $-1 $180 $181 $182 $183 reversed $69 $-1 #
coedge $-1 -1 $-1 $184 $70 $185 $186 forward $47 $-1 #
coedge $-1 -1 $-1 $70 $184 $187 $188 reversed $47 $-1 #
coedge $-1 -1 $-1 $189 $190 $70 $113 forward $191 $-1 #
edge $-1 -1 $-1 $192 -0.7853981633974485 $193 0.78539816339744806 $112 $194 forward @7 unknown #
face $-1 -1 $-1 $195 $196 $27 $-1 $197 forward single #
loop $-1 -1 $-1 $-1 $198 $71 #
plane-surface $-1 -1 $-1 0.10206379279646649 -0.375 0.10206379279646605 0.96592771514467268 0 0.25881199569454294 0.25881199569454294 0 -0.96592771514467268 forward_v I I I I #
coedge $-1 -1 $-1 $199 $200 $201 $202 forward $72 $-1 #
coedge $-1 -1 $-1 $203 $74 $200 $204 reversed $50 $-1 #
coedge $-1 -1 $-1 $74 $203 $205 $206 forward $50 $-1 #
coedge $-1 -1 $-1 $207 $201 $74 $121 reversed $208 $-1 #
edge $-1 -1 $-1 $209 -0.10825500000000007 $210 0.036084999999999923 $74 $211 forward @7 unknown #
face $-1 -1 $-1 $-1 $212 $29 $-1 $213 reversed single #
loop $-1 -1 $-1 $214 $215 $75 #
plane-surface $-1 -1 $-1 0.0104458956311649 0.5 -0.010445895631164898 0 1 0 0 0 1 forward_v I I I I #
loop $-1 -1 $-1 $-1 $216 $52 #
coedge $-1 -1 $-1 $126 $126 $215 $217 forward $76 $-1 #
coedge $-1 -1 $-1 $127 $127 $218 $219 reversed $78 $-1 #
coedge $-1 -1 $-1 $128 $128 $79 $129 reversed $214 $-1 #
edge $-1 -1 $-1 $220 0 $220 6.2831853071795862 $79 $221 forward @7 unknown #
model_id-kcp-attrib $-1 -1 $-1 $-1 $81 1 1021323688 1021323688 143917057 6 #
face $222 -1 $-1 $223 $224 $9 $-1 $225 reversed single #
loop $-1 -1 $-1 $-1 $145 $81 #
plane-surface $-1 -1 $-1 3.6131362072035333 -3.8180100000000001 5.3122362072035338 -0.25881199569454294 0 -0.96592771514467268 -0.96592771514467246 0 0.25881199569454283 forward_v I I I I #
coedge $-1 -1 $-1 $226 $227 $154 $228 reversed $82 $-1 #
coedge $-1 -1 $-1 $229 $84 $86 $140 forward $57 $-1 #
coedge $-1 -1 $-1 $84 $229 $226 $230 reversed $57 $-1 #
coedge $-1 -1 $-1 $154 $87 $84 $138 forward $94 $-1 #
edge $-1 -1 $-1 $141 -0.10825271934035774 $231 0.036085456136541121 $137 $232 forward @7 unknown #
coedge $-1 -1 $-1 $86 $85 $233 $234 reversed $40 $-1 #
edge $-1 -1 $-1 $141 0.10001000000000017 $235 0.22501000000000018 $86 $236 forward @7 unknown #
vertex $-1 -1 $-1 $138 $237 #
straight-curve $-1 -1 $-1 3.6523276005507981 -3.718 5.5282042958474351 0.70710678118654735 0 0.70710678118654735 I I #
coedge $-1 -1 $-1 $238 $233 $89 $144 forward $239 $-1 #
edge $240 -1 $-1 $149 -0.14433817547689845 $147 0 $89 $241 forward @7 unknown #
coedge $-1 -1 $-1 $242 $90 $93 $152 reversed $132 $-1 #
coedge $-1 -1 $-1 $90 $242 $238 $243 reversed $132 $-1 #
vertex $-1 -1 $-1 $91 $244 #
straight-curve $-1 -1 $-1 3.6131362072035333 -3.8180100000000001 5.3122362072035338 0 0.99999999999999989 0 I I #
vertex $-1 -1 $-1 $92 $245 #
straight-curve $-1 -1 $-1 3.5757797559534481 -3.8180100000000001 5.4516564512500851 0 0.99999999999999989 0 I I #
coedge $-1 -1 $-1 $93 $154 $246 $247 forward $94 $-1 #
edge $-1 -1 $-1 $248 -0.10825271934035774 $95 0.036085456136541121 $93 $249 forward @7 unknown #
loop $-1 -1 $-1 $-1 $250 $155 #
coedge $-1 -1 $-1 $151 $137 $134 $228 forward $94 $-1 #
face $251 -1 $-1 $252 $94 $9 $-1 $253 forward single #
point $-1 -1 $-1 3.6131362072035333 -3.718 5.3122362072035338 #
point $-1 -1 $-1 3.5757797559534481 -3.718 5.4516564512500851 #
face $254 -1 $-1 $255 $256 $23 $-1 $257 reversed single #
loop $-1 -1 $-1 $-1 $258 $99 #
plane-surface $-1 -1 $-1 -0.1875 0 0 1 0 0 0 0 -1 forward_v I I I I #
coedge $-1 -1 $-1 $259 $169 $260 $261 forward $100 $-1 #
coedge $-1 -1 $-1 $262 $102 $259 $263 forward $65 $-1 #
coedge $-1 -1 $-1 $102 $262 $264 $265 forward $65 $-1 #
coedge $-1 -1 $-1 $172 $171 $102 $165 reversed $173 $-1 #
edge $-1 -1 $-1 $266 -0.5 $267 0.5 $164 $268 forward @7 unknown #
coedge $-1 -1 $-1 $104 $103 $269 $270 forward $44 $-1 #
coedge $-1 -1 $-1 $271 $272 $103 $168 reversed $256 $-1 #
edge $-1 -1 $-1 $175 -0.1875 $273 0.1875 $167 $274 forward @7 unknown #
coedge $-1 -1 $-1 $161 $275 $104 $170 reversed $100 $-1 #
edge $-1 -1 $-1 $276 -0.1875 $174 0.1875 $169 $277 forward @7 unknown #
coedge $-1 -1 $-1 $164 $105 $275 $278 forward $173 $-1 #
coedge $-1 -1 $-1 $105 $164 $271 $279 reversed $173 $-1 #
loop $-1 -1 $-1 $-1 $171 $255 #
vertex $-1 -1 $-1 $106 $280 #
vertex $-1 -1 $-1 $106 $281 #
straight-curve $-1 -1 $-1 0.1875 0 0.1875 0 1 0 I I #
face $-1 -1 $-1 $282 $283 $25 $-1 $284 forward single #
loop $-1 -1 $-1 $-1 $285 $107 #
coedge $-1 -1 $-1 $286 $287 $285 $288 forward $108 $-1 #
coedge $-1 -1 $-1 $289 $109 $290 $291 reversed $69 $-1 #
coedge $-1 -1 $-1 $109 $289 $111 $188 forward $69 $-1 #
coedge $-1 -1 $-1 $292 $293 $109 $183 forward $294 $-1 #
edge $-1 -1 $-1 $295 -2.3561944901923448 $296 -0.78539816339744806 $182 $297 forward @7 unknown #
coedge $-1 -1 $-1 $111 $110 $298 $299 reversed $47 $-1 #
coedge $-1 -1 $-1 $287 $286 $300 $186 reversed $108 $-1 #
edge $-1 -1 $-1 $192 -1 $301 0 $300 $302 forward @7 unknown #
coedge $-1 -1 $-1 $303 $304 $305 $188 forward $306 $-1 #
edge $-1 -1 $-1 $193 -1 $296 0 $187 $307 forward @7 unknown #
coedge $-1 -1 $-1 $190 $112 $304 $308 reversed $191 $-1 #
coedge $-1 -1 $-1 $112 $189 $309 $310 forward $191 $-1 #
loop $-1 -1 $-1 $-1 $112 $311 #
vertex $-1 -1 $-1 $312 $313 #
vertex $-1 -1 $-1 $314 $315 #
ellipse-curve $-1 -1 $-1 0 -0.5 0 0 1 0 -0.13258252147247762 0 0.13258252147247768 1 I I #
face $-1 -1 $-1 $316 $317 $27 $-1 $318 forward single #
loop $-1 -1 $-1 $-1 $319 $114 #
plane-surface $-1 -1 $-1 0.13942024404655173 -0.375 -0.037356451250085243 0.70710678118654757 0 -0.70710678118654757 -0.70710678118654757 0 -0.70710678118654757 forward_v I I I I #
coedge $-1 -1 $-1 $320 $321 $322 $323 forward $115 $-1 #
coedge $-1 -1 $-1 $324 $117 $321 $325 reversed $72 $-1 #
coedge $-1 -1 $-1 $117 $324 $118 $204 forward $72 $-1 #
coedge $-1 -1 $-1 $120 $322 $117 $202 reversed $208 $-1 #
edge $-1 -1 $-1 $210 -0.1082527193403576 $326 0.036085456136541245 $117 $327 forward @7 unknown #
coedge $-1 -1 $-1 $119 $118 $328 $329 reversed $50 $-1 #
edge $330 -1 $-1 $331 0 $210 0.125 $200 $332 forward @7 unknown #
coedge $-1 -1 $-1 $333 $334 $119 $206 reversed $335 $-1 #
edge $-1 -1 $-1 $336 0 $209 0.125 $119 $337 forward @7 unknown #
coedge $-1 -1 $-1 $338 $120 $334 $339 reversed $208 $-1 #
loop $-1 -1 $-1 $-1 $120 $340 #
vertex $-1 -1 $-1 $206 $341 #
vertex $-1 -1 $-1 $204 $342 #
straight-curve $-1 -1 $-1 -0.062872399449201755 -0.5 0.11390429584743478 0.70710678118654757 0 0.70710678118654757 I I #
loop $-1 -1 $-1 $343 $344 $122 #
plane-surface $-1 -1 $-1 0.0104458956311649 -0.25 -0.010445895631164898 0 1 0 0 0 1 forward_v I I I I #
loop $-1 -1 $-1 $-1 $128 $75 #
coedge $-1 -1 $-1 $215 $215 $126 $217 reversed $123 $-1 #
coedge $-1 -1 $-1 $216 $216 $344 $345 reversed $125 $-1 #
edge $-1 -1 $-1 $346 -3.1415926535897931 $346 3.1415926535897931 $126 $347 forward @7 unknown #
coedge $-1 -1 $-1 $218 $218 $127 $219 forward $343 $-1 #
edge $348 -1 $-1 $349 0 $349 6.2831853071795862 $127 $350 forward @7 unknown #
vertex $-1 -1 $-1 $129 $351 #
ellipse-curve $-1 -1 $-1 0 0.5 0 0 1 0 0.088388347648318419 0 -0.088388347648318419 1 I I #
model_id-kcp-attrib $-1 -1 $-1 $-1 $131 1 1021323688 1021323688 143917057 7 #
face $352 -1 $-1 $353 $239 $9 $-1 $354 forward single #
loop $-1 -1 $-1 $-1 $246 $131 #
plane-surface $-1 -1 $-1 3.7525564512500851 -3.8180100000000001 5.2748797559534486 0.70710678118654757 0 -0.70710678118654757 -0.70710678118654735 0 -0.70710678118654735 forward_v I I I I #
coedge $-1 -1 $-1 $355 $134 $136 $230 forward $82 $-1 #
coedge $-1 -1 $-1 $134 $355 $356 $357 reversed $82 $-1 #
edge $-1 -1 $-1 $231 -0.10825454387499034 $358 0.036083631601908098 $154 $359 forward @7 unknown #
coedge $-1 -1 $-1 $136 $135 $360 $361 reversed $57 $-1 #
edge $-1 -1 $-1 $231 0.10001000000000017 $362 0.22501000000000018 $136 $363 forward @7 unknown #
vertex $-1 -1 $-1 $228 $364 #
straight-curve $-1 -1 $-1 3.7824078506005439 -3.718 5.525703141714712 0.96592771514467246 0 -0.25881199569454283 I I #
coedge $-1 -1 $-1 $143 $360 $139 $234 forward $239 $-1 #
edge $365 -1 $-1 $235 -0.14434 $149 0 $139 $366 forward @7 unknown #
vertex $-1 -1 $-1 $140 $367 #
straight-curve $-1 -1 $-1 3.6778435487499146 -3.8180100000000001 5.5537202440465512 0 0.99999999999999989 0 I I #
point $-1 -1 $-1 3.6778435487499146 -3.718 5.5537202440465512 #
coedge $-1 -1 $-1 $368 $143 $146 $243 forward $239 $-1 #
loop $-1 -1 $-1 $-1 $369 $223 #
attrib_edge_convexity-kcp-attrib $-1 -1 $370 $-1 $144 2 #
straight-curve $-1 -1 $-1 3.6131362072035333 -3.593 5.3122362072035338 0.25881199569454294 0 -0.96592771514467246 I I #
coedge $-1 -1 $-1 $146 $145 $371 $372 forward $132 $-1 #
edge $373 -1 $-1 $147 -0.14433817547689887 $374 0 $146 $375 forward @7 unknown #
point $-1 -1 $-1 3.6131362072035333 -3.593 5.3122362072035338 #
point $-1 -1 $-1 3.5757797559534481 -3.593 5.4516564512500851 #
coedge $-1 -1 $-1 $356 $371 $151 $247 reversed $224 $-1 #
edge $-1 -1 $-1 $358 -0.10825500000000041 $248 0.03608499999999961 $151 $376 forward @7 unknown #
vertex $-1 -1 $-1 $152 $377 #
straight-curve $-1 -1 $-1 3.6479921493994558 -3.718 5.3028968582852878 -0.96592771514467246 0 0.25881199569454283 I I #
coedge $-1 -1 $-1 $250 $250 $378 $379 forward $153 $-1 #
model_id-kcp-attrib $-1 -1 $-1 $-1 $155 1 1021323688 1021323688 143917057 12 #
face $380 -1 $-1 $-1 $381 $9 $-1 $382 forward single #
plane-surface $-1 -1 $-1 3.7151999999999998 -3.718 5.4142999999999999 0 -1 0 -0.70710678118654735 0 0.70710678118654735 forward_v I I I I #
model_id-kcp-attrib $-1 -1 $-1 $-1 $158 1 1021323688 1021323688 143917058 2 #
face $-1 -1 $-1 $-1 $173 $23 $-1 $383 reversed single #
loop $-1 -1 $-1 $-1 $271 $158 #
plane-surface $-1 -1 $-1 0 0.5 0 0 -1 0 0 0 -1 forward_v I I I I #
coedge $-1 -1 $-1 $384 $269 $272 $385 forward $159 $-1 #
coedge $-1 -1 $-1 $275 $161 $162 $263 reversed $100 $-1 #
coedge $-1 -1 $-1 $269 $384 $161 $261 reversed $159 $-1 #
edge $-1 -1 $-1 $276 -0.1875 $386 0.1875 $260 $387 forward @7 unknown #
coedge $-1 -1 $-1 $163 $162 $384 $388 forward $65 $-1 #
edge $-1 -1 $-1 $267 -0.1875 $386 0.1875 $259 $389 forward @7 unknown #
coedge $-1 -1 $-1 $272 $271 $163 $265 reversed $256 $-1 #
edge $-1 -1 $-1 $390 -0.1875 $266 0.1875 $264 $391 forward @7 unknown #
vertex $-1 -1 $-1 $165 $392 #
vertex $-1 -1 $-1 $278 $393 #
straight-curve $-1 -1 $-1 0.1875 0 -0.1875 0 -1 0 I I #
coedge $-1 -1 $-1 $258 $260 $166 $270 reversed $159 $-1 #
edge $-1 -1 $-1 $273 -0.5 $276 0.5 $269 $394 forward @7 unknown #
coedge $-1 -1 $-1 $264 $167 $172 $279 forward $256 $-1 #
coedge $-1 -1 $-1 $167 $264 $258 $385 reversed $256 $-1 #
vertex $-1 -1 $-1 $168 $395 #
straight-curve $-1 -1 $-1 0 0.5 0.1875 -1 0 0 I I #
coedge $-1 -1 $-1 $169 $259 $171 $278 reversed $100 $-1 #
vertex $-1 -1 $-1 $270 $396 #
straight-curve $-1 -1 $-1 0 -0.5 0.1875 1 0 0 I I #
edge $-1 -1 $-1 $174 -0.1875 $267 0.1875 $171 $397 forward @7 unknown #
edge $-1 -1 $-1 $175 -0.1875 $266 0.1875 $172 $398 forward @7 unknown #
point $-1 -1 $-1 0.1875 -0.5 0.1875 #
point $-1 -1 $-1 0.1875 0.5 0.1875 #
face $-1 -1 $-1 $399 $400 $25 $-1 $401 reversed single #
loop $-1 -1 $-1 $-1 $305 $177 #
plane-surface $-1 -1 $-1 0 0 0.1875 0 0 1 1 0 0 forward_v I I I I #
coedge $-1 -1 $-1 $402 $403 $404 $288 reversed $178 $-1 #
coedge $-1 -1 $-1 $185 $179 $405 $406 reversed $108 $-1 #
coedge $-1 -1 $-1 $179 $185 $407 $408 reversed $108 $-1 #
edge $-1 -1 $-1 $409 -1 $410 0 $404 $411 forward @7 unknown #
coedge $-1 -1 $-1 $181 $180 $412 $413 reversed $69 $-1 #
coedge $-1 -1 $-1 $414 $415 $416 $291 forward $400 $-1 #
edge $-1 -1 $-1 $417 -1 $295 0 $290 $418 forward @7 unknown #
coedge $-1 -1 $-1 $293 $182 $419 $420 reversed $294 $-1 #
coedge $-1 -1 $-1 $182 $292 $414 $421 forward $294 $-1 #
loop $-1 -1 $-1 $-1 $182 $422 #
vertex $-1 -1 $-1 $423 $424 #
vertex $-1 -1 $-1 $425 $426 #
ellipse-curve $-1 -1 $-1 0 0.5 0 0 -1 0 -0.13258252147247762 0 0.13258252147247768 1 I I #
coedge $-1 -1 $-1 $427 $428 $184 $299 forward $429 $-1 #
edge $-1 -1 $-1 $296 -0.78539816339744806 $301 0.7853981633974485 $298 $297 forward @7 unknown #
coedge $-1 -1 $-1 $430 $431 $432 $186 forward $433 $-1 #
vertex $-1 -1 $-1 $434 $435 #
straight-curve $-1 -1 $-1 -0.1875 0.5 0 0 1 0 I I #
coedge $-1 -1 $-1 $436 $187 $428 $425 forward $306 $-1 #
coedge $-1 -1 $-1 $187 $436 $189 $308 forward $306 $-1 #
coedge $-1 -1 $-1 $437 $419 $181 $188 reversed $283 $-1 #
loop $-1 -1 $-1 $-1 $187 $438 #
straight-curve $-1 -1 $-1 0 0.5 0.1875 0 1 0 I I #
edge $-1 -1 $-1 $439 -0.1875 $193 0 $189 $440 forward @7 unknown #
coedge $-1 -1 $-1 $441 $432 $190 $310 reversed $442 $-1 #
edge $-1 -1 $-1 $439 -0.1875 $192 0 $309 $443 forward @7 unknown #
face $-1 -1 $-1 $444 $191 $25 $-1 $445 reversed single #
edge $-1 -1 $-1 $192 0 $446 0.1875 $431 $443 forward @7 unknown #
point $-1 -1 $-1 -0.1875 -0.5 0 #
edge $-1 -1 $-1 $193 0 $447 0.1875 $448 $440 forward @7 unknown #
point $-1 -1 $-1 0 -0.5 0.1875 #
face $-1 -1 $-1 $340 $335 $27 $-1 $449 forward single #
loop $-1 -1 $-1 $-1 $450 $195 #
plane-surface $-1 -1 $-1 0.037356451250085243 -0.375 -0.13942024404655129 -0.25881199569454294 0 -0.96592771514467268 -0.96592771514467268 0 0.25881199569454294 forward_v I I I I #
coedge $-1 -1 $-1 $451 $452 $453 $454 forward $196 $-1 #
coedge $-1 -1 $-1 $455 $198 $452 $456 reversed $115 $-1 #
coedge $-1 -1 $-1 $198 $455 $199 $325 forward $115 $-1 #
coedge $-1 -1 $-1 $201 $453 $198 $323 reversed $208 $-1 #
edge $-1 -1 $-1 $326 -0.10825454387499017 $457 0.036083631601908236 $198 $458 forward @7 unknown #
coedge $-1 -1 $-1 $200 $199 $459 $460 reversed $72 $-1 #
edge $-1 -1 $-1 $461 0 $326 0.125 $321 $462 forward @7 unknown #
vertex $-1 -1 $-1 $325 $463 #
straight-curve $-1 -1 $-1 0.067207850600543906 -0.5 0.11140314171471219 0.96592771514467268 0 -0.25881199569454294 I I #
coedge $-1 -1 $-1 $459 $464 $203 $329 forward $465 $-1 #
edge $466 -1 $-1 $336 -0.10825500000000007 $331 0.036084999999999923 $203 $467 forward @7 unknown #
convexity-sys-attrib $-1 -1 $-1 $-1 $204 #
vertex $-1 -1 $-1 $329 $468 #
straight-curve $-1 -1 $-1 -0.037356451250085243 -0.375 0.13942024404655129 0 -1 0 I I #
coedge $-1 -1 $-1 $469 $205 $464 $470 reversed $335 $-1 #
coedge $-1 -1 $-1 $205 $469 $207 $339 forward $335 $-1 #
loop $-1 -1 $-1 $-1 $334 $316 #
vertex $-1 -1 $-1 $470 $471 #
straight-curve $-1 -1 $-1 -0.13942024404655173 -0.375 0.037356451250085243 0 -1 0 I I #
coedge $-1 -1 $-1 $453 $207 $450 $472 reversed $208 $-1 #
edge $-1 -1 $-1 $473 -0.10825454387499017 $209 0.036083631601908236 $334 $474 forward @7 unknown #
face $-1 -1 $-1 $475 $208 $27 $-1 $476 reversed single #
point $-1 -1 $-1 -0.13942024404655173 -0.5 0.037356451250085243 #
point $-1 -1 $-1 -0.037356451250085243 -0.5 0.13942024404655129 #
loop $-1 -1 $-1 $-1 $218 $122 #
coedge $-1 -1 $-1 $344 $344 $216 $345 forward $212 $-1 #
edge $477 -1 $-1 $478 -3.1415926535897931 $478 3.1415926535897931 $216 $479 forward @7 unknown #
vertex $-1 -1 $-1 $217 $480 #
ellipse-curve $-1 -1 $-1 0 0.5 0 0 -1 0 -0.13258252147247762 0 0.13258252147247768 1 I I #
convexity-sys-attrib $-1 -1 $-1 $-1 $219 #
vertex $-1 -1 $-1 $219 $481 #
ellipse-curve $-1 -1 $-1 0 -0.25 0 0 1 0 0.088388347648318419 0 -0.088388347648318419 1 I I #
point $-1 -1 $-1 0.088388347648318266 0.5 -0.088388347648318266 #
model_id-kcp-attrib $-1 -1 $-1 $-1 $223 1 1021323688 1021323688 143917057 8 #
face $482 -1 $-1 $483 $484 $9 $-1 $485 forward single #
plane-surface $-1 -1 $-1 3.8546202440465516 -3.593 5.3769435487499146 0 -1 0 -0.70710678118654735 0 0.70710678118654735 forward_v I I I I #
coedge $-1 -1 $-1 $227 $226 $369 $486 reversed $82 $-1 #
coedge $-1 -1 $-1 $487 $246 $227 $357 forward $224 $-1 #
edge $-1 -1 $-1 $358 0.10001000000000017 $488 0.22501000000000018 $227 $489 forward @7 unknown #
vertex $-1 -1 $-1 $228 $490 #
straight-curve $-1 -1 $-1 3.845281367339755 -3.718 5.4117977285772678 0.25881199569454283 0 -0.96592771514467246 I I #
coedge $-1 -1 $-1 $233 $369 $229 $361 forward $239 $-1 #
edge $491 -1 $-1 $362 -0.14433817547689887 $235 0 $229 $492 forward @7 unknown #
vertex $-1 -1 $-1 $230 $493 #
straight-curve $-1 -1 $-1 3.8172637927964663 -3.8180100000000001 5.5163637927964659 0 0.99999999999999989 0 I I #
point $-1 -1 $-1 3.8172637927964663 -3.718 5.5163637927964659 #
attrib_edge_convexity-kcp-attrib $-1 -1 $494 $-1 $234 2 #
straight-curve $-1 -1 $-1 3.5757797559534481 -3.593 5.4516564512500851 -0.70710678118654735 0 -0.70710678118654735 I I #
point $-1 -1 $-1 3.6778435487499146 -3.593 5.5537202440465512 #
coedge $-1 -1 $-1 $369 $238 $487 $495 forward $239 $-1 #
coedge $-1 -1 $-1 $360 $368 $355 $486 forward $239 $-1 #
convexity-sys-attrib $-1 -1 $-1 $240 $144 #
coedge $-1 -1 $-1 $246 $487 $242 $372 reversed $224 $-1 #
edge $-1 -1 $-1 $248 0.10001000000000017 $374 0.22501000000000018 $371 $496 forward @7 unknown #
attrib_edge_convexity-kcp-attrib $-1 -1 $497 $-1 $243 2 #
vertex $-1 -1 $-1 $372 $498 #
straight-curve $-1 -1 $-1 3.7525564512500851 -3.593 5.2748797559534486 0.96592771514467246 0 -0.25881199569454294 I I #
straight-curve $-1 -1 $-1 3.7780723994492016 -3.718 5.3003957041525647 -0.70710678118654735 0 -0.70710678118654735 I I #
point $-1 -1 $-1 3.7525564512500851 -3.718 5.2748797559534486 #
coedge $-1 -1 $-1 $378 $378 $250 $379 reversed $499 $-1 #
edge $-1 -1 $-1 $500 0 $500 6.2831853071795862 $250 $501 forward @7 unknown #
model_id-kcp-attrib $-1 -1 $-1 $-1 $252 1 1021323688 1021323688 143917057 13 #
loop $-1 -1 $-1 $502 $503 $252 #
plane-surface $-1 -1 $-1 3.7151999999999998 -3.468 5.4142999999999999 0 1 0 0.70710678118654735 0 -0.70710678118654735 forward_v I I I I #
plane-surface $-1 -1 $-1 0.1875 0 0 -1 0 0 0 0 1 forward_v I I I I #
coedge $-1 -1 $-1 $260 $258 $262 $388 reversed $159 $-1 #
edge $-1 -1 $-1 $273 -0.1875 $390 0.1875 $272 $504 forward @7 unknown #
vertex $-1 -1 $-1 $388 $505 #
straight-curve $-1 -1 $-1 -0.1875 -0.5 0 0 0 -1 I I #
edge $-1 -1 $-1 $386 -0.5 $390 0.5 $384 $506 forward @7 unknown #
straight-curve $-1 -1 $-1 0 -0.5 -0.1875 -1 0 0 I I #
vertex $-1 -1 $-1 $265 $507 #
straight-curve $-1 -1 $-1 0 0.5 -0.1875 1 0 0 I I #
point $-1 -1 $-1 0.1875 0.5 -0.1875 #
point $-1 -1 $-1 0.1875 -0.5 -0.1875 #
straight-curve $-1 -1 $-1 -0.1875 0 0.1875 0 -1 0 I I #
point $-1 -1 $-1 -0.1875 0.5 0.1875 #
point $-1 -1 $-1 -0.1875 -0.5 0.1875 #
straight-curve $-1 -1 $-1 0.1875 -0.5 0 0 0 -1 I I #
straight-curve $-1 -1 $-1 0.1875 0.5 0 0 0 -1 I I #
face $-1 -1 $-1 $508 $442 $25 $-1 $509 reversed single #
loop $-1 -1 $-1 $-1 $290 $282 #
plane-surface $-1 -1 $-1 0.1875 0 0 -1 0 0 0 0 1 forward_v I I I I #
coedge $-1 -1 $-1 $510 $285 $511 $512 reversed $178 $-1 #
coedge $-1 -1 $-1 $285 $510 $513 $514 reversed $178 $-1 #
coedge $-1 -1 $-1 $515 $516 $517 $288 forward $518 $-1 #
coedge $-1 -1 $-1 $519 $520 $286 $406 forward $521 $-1 #
edge $-1 -1 $-1 $301 0.7853981633974485 $410 2.3561944901923453 $405 $297 forward @7 unknown #
coedge $-1 -1 $-1 $522 $523 $287 $408 forward $524 $-1 #
edge $-1 -1 $-1 $409 -2.3561944901923453 $192 -0.7853981633974485 $407 $194 forward @7 unknown #
vertex $-1 -1 $-1 $525 $526 #
vertex $-1 -1 $-1 $527 $528 #
straight-curve $-1 -1 $-1 0 0.5 -0.1875 0 1 0 I I #
coedge $-1 -1 $-1 $529 $448 $289 $413 forward $530 $-1 #
edge $-1 -1 $-1 $193 0.78539816339744806 $417 2.3561944901923448 $412 $194 forward @7 unknown #
coedge $-1 -1 $-1 $531 $290 $293 $421 reversed $400 $-1 #
coedge $-1 -1 $-1 $290 $531 $529 $532 forward $400 $-1 #
coedge $-1 -1 $-1 $533 $534 $510 $291 reversed $535 $-1 #
vertex $-1 -1 $-1 $536 $537 #
straight-curve $-1 -1 $-1 0.1875 0.5 0 0 1 0 I I #
coedge $-1 -1 $-1 $305 $538 $292 $420 forward $283 $-1 #
edge $-1 -1 $-1 $539 -0.1875 $296 0 $292 $540 forward @7 unknown #
edge $-1 -1 $-1 $539 -0.1875 $295 0 $414 $541 forward @7 unknown #
face $-1 -1 $-1 $542 $294 $25 $-1 $543 reversed single #
edge $-1 -1 $-1 $295 0 $544 0.1875 $534 $541 forward @7 unknown #
point $-1 -1 $-1 0.1875 0.5 0 #
edge $-1 -1 $-1 $296 0 $545 0.1875 $428 $540 forward @7 unknown #
point $-1 -1 $-1 0 0.5 0.1875 #
coedge $-1 -1 $-1 $428 $298 $546 $547 reversed $429 $-1 #
coedge $-1 -1 $-1 $298 $427 $303 $425 reversed $429 $-1 #
loop $-1 -1 $-1 $-1 $298 $542 #
coedge $-1 -1 $-1 $548 $300 $520 $434 forward $433 $-1 #
coedge $-1 -1 $-1 $300 $548 $522 $312 reversed $433 $-1 #
coedge $-1 -1 $-1 $309 $546 $110 $186 reversed $442 $-1 #
loop $-1 -1 $-1 $-1 $300 $549 #
edge $-1 -1 $-1 $301 0 $550 0.1875 $520 $551 forward @7 unknown #
point $-1 -1 $-1 -0.1875 0.5 0 #
coedge $-1 -1 $-1 $304 $303 $441 $552 forward $306 $-1 #
coedge $-1 -1 $-1 $538 $305 $448 $314 forward $283 $-1 #
face $-1 -1 $-1 $553 $306 $25 $-1 $284 forward single #
vertex $-1 -1 $-1 $552 $554 #
straight-curve $-1 -1 $-1 0 -0.5 0.1875 1 0 0 I I #
coedge $-1 -1 $-1 $546 $309 $436 $552 reversed $442 $-1 #
loop $-1 -1 $-1 $-1 $432 $399 #
straight-curve $-1 -1 $-1 -0.1875 -0.5 0 0 0 -1 I I #
face $-1 -1 $-1 $555 $530 $25 $-1 $445 reversed single #
plane-surface $-1 -1 $-1 0 -0.5 0 0 1 0 0 0 1 forward_v I I I I #
vertex $-1 -1 $-1 $556 $557 #
vertex $-1 -1 $-1 $558 $559 #
coedge $-1 -1 $-1 $412 $529 $437 $314 reversed $530 $-1 #
plane-surface $-1 -1 $-1 -0.10206379279646649 -0.375 -0.10206379279646605 -0.96592771514467268 0 -0.25881199569454294 -0.25881199569454294 0 0.96592771514467268 forward_v I I I I #
coedge $-1 -1 $-1 $560 $561 $338 $472 forward $317 $-1 #
coedge $-1 -1 $-1 $562 $319 $561 $563 reversed $196 $-1 #
coedge $-1 -1 $-1 $319 $562 $320 $456 forward $196 $-1 #
coedge $-1 -1 $-1 $322 $338 $319 $454 reversed $208 $-1 #
edge $-1 -1 $-1 $457 -0.10825500000000007 $564 0.036084999999999923 $319 $565 forward @7 unknown #
coedge $-1 -1 $-1 $321 $320 $566 $567 reversed $115 $-1 #
edge $-1 -1 $-1 $568 0 $457 0.125 $452 $569 forward @7 unknown #
vertex $-1 -1 $-1 $456 $570 #
straight-curve $-1 -1 $-1 0.13008136733975517 -0.5 -0.0025022714227319193 0.25881199569454294 0 -0.96592771514467268 I I #
coedge $-1 -1 $-1 $566 $328 $324 $460 forward $465 $-1 #
edge $571 -1 $-1 $331 -0.1082527193403576 $461 0.036085456136541245 $324 $572 forward @7 unknown #
vertex $-1 -1 $-1 $460 $573 #
straight-curve $-1 -1 $-1 0.10206379279646649 -0.375 0.10206379279646605 0 -1 0 I I #
point $-1 -1 $-1 0.10206379279646649 -0.5 0.10206379279646605 #
coedge $-1 -1 $-1 $328 $574 $333 $470 forward $465 $-1 #
loop $-1 -1 $-1 $-1 $464 $475 #
convexity-sys-attrib $-1 -1 $-1 $-1 $329 #
straight-curve $-1 -1 $-1 -0.062872399449201755 -0.375 0.11390429584743478 0.70710678118654757 0 0.70710678118654757 I I #
point $-1 -1 $-1 -0.037356451250085243 -0.375 0.13942024404655129 #
coedge $-1 -1 $-1 $334 $333 $560 $575 forward $335 $-1 #
edge $576 -1 $-1 $577 -0.10825454387499017 $336 0.036083631601908236 $333 $578 forward @7 unknown #
point $-1 -1 $-1 -0.13942024404655173 -0.375 0.037356451250085243 #
edge $-1 -1 $-1 $564 -0.1082527193403576 $473 0.036085456136541245 $450 $579 forward @7 unknown #
vertex $-1 -1 $-1 $575 $580 #
straight-curve $-1 -1 $-1 -0.13008136733975517 -0.5 0.0025022714227319193 -0.25881199569454294 0 0.96592771514467268 I I #
face $-1 -1 $-1 $-1 $465 $27 $-1 $581 forward single #
plane-surface $-1 -1 $-1 -1.7347234759768071e-018 -0.5 1.7347234759768071e-018 0 1 0 0 0 1 forward_v I I I I #
convexity-sys-attrib $-1 -1 $-1 $-1 $345 #
vertex $-1 -1 $-1 $345 $582 #
ellipse-curve $-1 -1 $-1 0 -0.25 0 0 -1 0 -0.13258252147247762 0 0.13258252147247768 1 I I #
point $-1 -1 $-1 0.13258252147247765 0.5 -0.13258252147247765 #
point $-1 -1 $-1 0.088388347648318266 -0.25 -0.088388347648318266 #
model_id-kcp-attrib $-1 -1 $-1 $-1 $353 1 1021323688 1021323688 143917057 9 #
face $583 -1 $-1 $584 $585 $9 $-1 $586 forward single #
loop $-1 -1 $-1 $587 $588 $353 #
cone-surface $-1 -1 $-1 3.7151999999999998 -3.093 5.4142999999999999 0 1 0 0.088388347648318419 0 -0.088388347648318419 1 I I 0 1 0.12499999999999999 forward I I I I #
edge $589 -1 $-1 $488 -0.14433817547689845 $362 0 $355 $590 forward @7 unknown #
coedge $-1 -1 $-1 $371 $356 $368 $495 reversed $224 $-1 #
vertex $-1 -1 $-1 $357 $591 #
straight-curve $-1 -1 $-1 3.8546202440465516 -3.8180100000000001 5.3769435487499146 0 0.99999999999999989 0 I I #
point $-1 -1 $-1 3.8546202440465516 -3.718 5.3769435487499146 #
attrib_edge_convexity-kcp-attrib $-1 -1 $592 $-1 $361 2 #
straight-curve $-1 -1 $-1 3.6778435487499146 -3.593 5.5537202440465512 -0.96592771514467246 0 0.25881199569454294 I I #
point $-1 -1 $-1 3.8172637927964663 -3.593 5.5163637927964659 #
convexity-sys-attrib $-1 -1 $-1 $365 $234 #
edge $593 -1 $-1 $374 -0.14434 $488 0 $487 $594 forward @7 unknown #
straight-curve $-1 -1 $-1 3.7525564512500851 -3.8180100000000001 5.2748797559534486 0 0.99999999999999989 0 I I #
convexity-sys-attrib $-1 -1 $-1 $373 $243 #
point $-1 -1 $-1 3.7525564512500851 -3.593 5.2748797559534486 #
loop $-1 -1 $-1 $595 $378 $584 #
vertex $-1 -1 $-1 $379 $596 #
ellipse-curve $-1 -1 $-1 3.7151999999999998 -3.718 5.4142999999999999 0 -1 0 0.13258252147247765 0 -0.13258252147247765 1 I I #
loop $-1 -1 $-1 $-1 $597 $252 #
coedge $-1 -1 $-1 $503 $503 $588 $598 forward $381 $-1 #
straight-curve $-1 -1 $-1 -0.1875 0.5 0 0 0 -1 I I #
point $-1 -1 $-1 -0.1875 -0.5 -0.1875 #
straight-curve $-1 -1 $-1 -0.1875 0 -0.1875 0 1 0 I I #
point $-1 -1 $-1 -0.1875 0.5 -0.1875 #
face $-1 -1 $-1 $422 $599 $25 $-1 $543 reversed single #
plane-surface $-1 -1 $-1 -0.1875 0 0 1 0 0 0 0 -1 forward_v I I I I #
coedge $-1 -1 $-1 $403 $402 $180 $291 forward $178 $-1 #
coedge $-1 -1 $-1 $600 $601 $402 $512 forward $602 $-1 #
edge $-1 -1 $-1 $417 2.3561944901923448 $409 3.926990816987241 $511 $194 forward @7 unknown #
coedge $-1 -1 $-1 $603 $604 $403 $514 forward $599 $-1 #
edge $-1 -1 $-1 $410 2.3561944901923453 $295 3.9269908169872414 $513 $297 forward @7 unknown #
coedge $-1 -1 $-1 $605 $404 $604 $527 forward $518 $-1 #
coedge $-1 -1 $-1 $404 $605 $600 $606 forward $518 $-1 #
coedge $-1 -1 $-1 $607 $608 $179 $288 reversed $609 $-1 #
loop $-1 -1 $-1 $-1 $404 $553 #
coedge $-1 -1 $-1 $520 $405 $608 $610 reversed $521 $-1 #
coedge $-1 -1 $-1 $405 $519 $430 $434 reversed $521 $-1 #
loop $-1 -1 $-1 $-1 $405 $611 #
coedge $-1 -1 $-1 $523 $407 $431 $312 forward $524 $-1 #
coedge $-1 -1 $-1 $407 $522 $607 $525 reversed $524 $-1 #
loop $-1 -1 $-1 $-1 $407 $612 #
edge $-1 -1 $-1 $409 0 $446 0.1875 $523 $613 forward @7 unknown #
point $-1 -1 $-1 0 -0.5 -0.1875 #
edge $-1 -1 $-1 $410 0 $544 0.1875 $604 $614 forward @7 unknown #
point $-1 -1 $-1 0 0.5 -0.1875 #
coedge $-1 -1 $-1 $448 $412 $415 $532 reversed $530 $-1 #
loop $-1 -1 $-1 $-1 $412 $444 #
coedge $-1 -1 $-1 $415 $414 $538 $558 reversed $400 $-1 #
edge $-1 -1 $-1 $447 -0.1875 $417 0 $415 $615 forward @7 unknown #
coedge $-1 -1 $-1 $616 $416 $601 $536 forward $535 $-1 #
coedge $-1 -1 $-1 $416 $616 $603 $423 reversed $535 $-1 #
loop $-1 -1 $-1 $-1 $416 $617 #
edge $-1 -1 $-1 $417 0 $618 0.1875 $533 $615 forward @7 unknown #
point $-1 -1 $-1 0.1875 -0.5 0 #
coedge $-1 -1 $-1 $419 $437 $531 $558 forward $283 $-1 #
vertex $-1 -1 $-1 $558 $619 #
straight-curve $-1 -1 $-1 0 0.5 0.1875 -1 0 0 I I #
straight-curve $-1 -1 $-1 0.1875 0.5 0 0 0 -1 I I #
face $-1 -1 $-1 $611 $429 $25 $-1 $543 reversed single #
plane-surface $-1 -1 $-1 0 0.5 0 0 -1 0 0 0 -1 forward_v I I I I #
vertex $-1 -1 $-1 $620 $621 #
vertex $-1 -1 $-1 $425 $622 #
coedge $-1 -1 $-1 $432 $441 $427 $547 forward $442 $-1 #
edge $-1 -1 $-1 $545 -0.1875 $301 0 $427 $551 forward @7 unknown #
coedge $-1 -1 $-1 $431 $430 $623 $556 reversed $433 $-1 #
face $-1 -1 $-1 $617 $433 $25 $-1 $509 reversed single #
vertex $-1 -1 $-1 $610 $624 #
straight-curve $-1 -1 $-1 -0.1875 0.5 0 0 0 -1 I I #
edge $-1 -1 $-1 $545 -0.5 $439 0.5 $441 $625 forward @7 unknown #
face $-1 -1 $-1 $549 $518 $25 $-1 $626 reversed single #
point $-1 -1 $-1 -0.1875 -0.5 0.1875 #
face $-1 -1 $-1 $627 $602 $25 $-1 $445 reversed single #
edge $-1 -1 $-1 $446 -0.5 $550 0.5 $548 $628 forward @7 unknown #
point $-1 -1 $-1 -0.1875 -0.5 -0.1875 #
edge $-1 -1 $-1 $447 -0.5 $539 0.5 $531 $629 forward @7 unknown #
point $-1 -1 $-1 0.1875 -0.5 0.1875 #
coedge $-1 -1 $-1 $630 $450 $469 $575 reversed $317 $-1 #
coedge $-1 -1 $-1 $450 $630 $451 $563 forward $317 $-1 #
coedge $-1 -1 $-1 $452 $451 $631 $632 reversed $196 $-1 #
edge $-1 -1 $-1 $633 0 $564 0.125 $561 $634 forward @7 unknown #
vertex $-1 -1 $-1 $563 $635 #
straight-curve $-1 -1 $-1 0.062872399449201755 -0.5 -0.11390429584743478 -0.70710678118654757 0 -0.70710678118654757 I I #
coedge $-1 -1 $-1 $631 $459 $455 $567 forward $465 $-1 #
edge $636 -1 $-1 $461 -0.10825454387499017 $568 0.036083631601908236 $455 $637 forward @7 unknown #
vertex $-1 -1 $-1 $567 $638 #
straight-curve $-1 -1 $-1 0.13942024404655173 -0.375 -0.037356451250085243 0 -1 0 I I #
point $-1 -1 $-1 0.13942024404655173 -0.5 -0.037356451250085243 #
convexity-sys-attrib $-1 -1 $-1 $-1 $460 #
straight-curve $-1 -1 $-1 0.067207850600543906 -0.375 0.11140314171471219 0.96592771514467268 0 -0.25881199569454294 I I #
point $-1 -1 $-1 0.10206379279646649 -0.375 0.10206379279646605 #
coedge $-1 -1 $-1 $464 $631 $630 $639 forward $465 $-1 #
edge $-1 -1 $-1 $577 0 $473 0.125 $469 $640 forward @7 unknown #
convexity-sys-attrib $-1 -1 $-1 $-1 $470 #
vertex $-1 -1 $-1 $470 $641 #
straight-curve $-1 -1 $-1 -0.13008136733975517 -0.375 0.0025022714227319193 -0.25881199569454294 0 0.96592771514467268 I I #
straight-curve $-1 -1 $-1 -0.067207850600543906 -0.5 -0.11140314171471219 -0.96592771514467268 0 0.25881199569454294 I I #
point $-1 -1 $-1 -0.10206379279646649 -0.5 -0.10206379279646605 #
plane-surface $-1 -1 $-1 -1.7347234759768071e-018 -0.375 1.7347234759768071e-018 0 1 0 0 0 1 forward_v I I I I #
point $-1 -1 $-1 0.13258252147247765 -0.25 -0.13258252147247765 #
model_id-kcp-attrib $-1 -1 $-1 $-1 $483 1 1021323688 1021323688 143917057 10 #
face $642 -1 $-1 $155 $499 $9 $-1 $643 forward single #
loop $-1 -1 $-1 $-1 $644 $483 #
plane-surface $-1 -1 $-1 3.7151999999999998 -2.718 5.4142999999999999 0 1 0 0.70710678118654735 0 -0.70710678118654735 forward_v I I I I #
loop $-1 -1 $-1 $-1 $645 $353 #
coedge $-1 -1 $-1 $588 $588 $503 $598 reversed $484 $-1 #
attrib_edge_convexity-kcp-attrib $-1 -1 $646 $-1 $486 2 #
straight-curve $-1 -1 $-1 3.8172637927964663 -3.593 5.5163637927964659 -0.25881199569454294 0 0.96592771514467246 I I #
point $-1 -1 $-1 3.8546202440465516 -3.593 5.3769435487499146 #
convexity-sys-attrib $-1 -1 $-1 $491 $361 #
attrib_edge_convexity-kcp-attrib $-1 -1 $647 $-1 $495 2 #
straight-curve $-1 -1 $-1 3.8546202440465516 -3.593 5.3769435487499146 0.70710678118654735 0 0.70710678118654735 I I #
loop $-1 -1 $-1 $-1 $648 $584 #
point $-1 -1 $-1 3.8477825214724777 -3.718 5.281717478527522 #
coedge $-1 -1 $-1 $597 $597 $648 $649 forward $502 $-1 #
edge $650 -1 $-1 $651 0 $651 6.2831853071795862 $503 $652 forward @7 unknown #
loop $-1 -1 $-1 $-1 $513 $508 #
coedge $-1 -1 $-1 $601 $511 $516 $606 reversed $602 $-1 #
coedge $-1 -1 $-1 $511 $600 $533 $536 reversed $602 $-1 #
loop $-1 -1 $-1 $-1 $511 $555 #
coedge $-1 -1 $-1 $604 $513 $534 $423 forward $599 $-1 #
coedge $-1 -1 $-1 $513 $603 $515 $527 reversed $599 $-1 #
coedge $-1 -1 $-1 $516 $515 $616 $620 forward $518 $-1 #
edge $-1 -1 $-1 $618 -0.1875 $409 0 $600 $613 forward @7 unknown #
coedge $-1 -1 $-1 $623 $517 $523 $525 forward $609 $-1 #
coedge $-1 -1 $-1 $517 $623 $519 $610 forward $609 $-1 #
loop $-1 -1 $-1 $-1 $517 $627 #
edge $-1 -1 $-1 $550 -0.1875 $410 0 $519 $614 forward @7 unknown #
face $-1 -1 $-1 $612 $521 $25 $-1 $543 reversed single #
face $-1 -1 $-1 $311 $524 $25 $-1 $445 reversed single #
straight-curve $-1 -1 $-1 0 -0.5 -0.1875 -1 0 0 I I #
straight-curve $-1 -1 $-1 0 0.5 -0.1875 1 0 0 I I #
straight-curve $-1 -1 $-1 0.1875 -0.5 0 0 0 -1 I I #
coedge $-1 -1 $-1 $534 $533 $605 $620 reversed $535 $-1 #
face $-1 -1 $-1 $-1 $535 $25 $-1 $401 reversed single #
vertex $-1 -1 $-1 $536 $653 #
point $-1 -1 $-1 0.1875 0.5 0.1875 #
edge $-1 -1 $-1 $544 -0.5 $618 0.5 $616 $654 forward @7 unknown #
point $-1 -1 $-1 0.1875 0.5 -0.1875 #
point $-1 -1 $-1 -0.1875 0.5 0.1875 #
coedge $-1 -1 $-1 $608 $607 $548 $556 forward $609 $-1 #
point $-1 -1 $-1 -0.1875 0.5 -0.1875 #
straight-curve $-1 -1 $-1 -0.1875 0 0.1875 0 -1 0 I I #
plane-surface $-1 -1 $-1 0 0 -0.1875 0 0 1 1 0 0 forward_v I I I I #
face $-1 -1 $-1 $438 $609 $25 $-1 $626 reversed single #
straight-curve $-1 -1 $-1 -0.1875 0 -0.1875 0 1 0 I I #
straight-curve $-1 -1 $-1 0.1875 0 0.1875 0 1 0 I I #
coedge $-1 -1 $-1 $561 $560 $574 $639 reversed $317 $-1 #
coedge $-1 -1 $-1 $574 $566 $562 $632 forward $465 $-1 #
edge $655 -1 $-1 $568 -0.10825500000000007 $633 0.036084999999999923 $562 $656 forward @7 unknown #
vertex $-1 -1 $-1 $632 $657 #
straight-curve $-1 -1 $-1 0.037356451250085243 -0.375 -0.13942024404655129 0 -1 0 I I #
point $-1 -1 $-1 0.037356451250085243 -0.5 -0.13942024404655129 #
convexity-sys-attrib $-1 -1 $-1 $-1 $567 #
straight-curve $-1 -1 $-1 0.13008136733975517 -0.375 -0.0025022714227319193 0.25881199569454294 0 -0.96592771514467268 I I #
point $-1 -1 $-1 0.13942024404655173 -0.375 -0.037356451250085243 #
edge $658 -1 $-1 $633 -0.1082527193403576 $577 0.036085456136541245 $630 $659 forward @7 unknown #
straight-curve $-1 -1 $-1 -0.10206379279646649 -0.375 -0.10206379279646605 0 -1 0 I I #
point $-1 -1 $-1 -0.10206379279646649 -0.375 -0.10206379279646605 #
model_id-kcp-attrib $-1 -1 $-1 $-1 $584 1 1021323688 1021323688 143917057 11 #
cone-surface $-1 -1 $-1 3.7151999999999998 -3.593 5.4142999999999999 0 1 0 0.13258252147247765 0 -0.13258252147247765 1 I I 0 1 0.1875 forward I I I I #
coedge $-1 -1 $-1 $644 $644 $645 $660 forward $585 $-1 #
coedge $-1 -1 $-1 $645 $645 $644 $660 reversed $587 $-1 #
convexity-sys-attrib $-1 -1 $-1 $589 $486 #
convexity-sys-attrib $-1 -1 $-1 $593 $495 #
coedge $-1 -1 $-1 $648 $648 $597 $649 reversed $595 $-1 #
edge $661 -1 $-1 $662 0 $662 6.2831853071795862 $597 $663 forward @7 unknown #
attrib_edge_convexity-kcp-attrib $-1 -1 $664 $-1 $598 2 #
vertex $-1 -1 $-1 $598 $665 #
ellipse-curve $-1 -1 $-1 3.7151999999999998 -3.468 5.4142999999999999 0 -1 0 0.088388347648318419 0 -0.088388347648318419 1 I I #
point $-1 -1 $-1 0.1875 -0.5 -0.1875 #
straight-curve $-1 -1 $-1 0.1875 0 -0.1875 0 -1 0 I I #
convexity-sys-attrib $-1 -1 $-1 $-1 $632 #
straight-curve $-1 -1 $-1 0.062872399449201755 -0.375 -0.11390429584743478 -0.70710678118654757 0 -0.70710678118654757 I I #
point $-1 -1 $-1 0.037356451250085243 -0.375 -0.13942024404655129 #
convexity-sys-attrib $-1 -1 $-1 $-1 $639 #
straight-curve $-1 -1 $-1 -0.067207850600543906 -0.375 -0.11140314171471219 -0.96592771514467268 0 0.25881199569454294 I I #
edge $666 -1 $-1 $667 0 $667 6.2831853071795862 $644 $668 forward @7 unknown #
attrib_edge_convexity-kcp-attrib $-1 -1 $669 $-1 $649 1 #
vertex $-1 -1 $-1 $649 $670 #
ellipse-curve $-1 -1 $-1 3.7151999999999998 -3.468 5.4142999999999999 0 1 0 0.13258252147247765 0 -0.13258252147247765 1 I I #
convexity-sys-attrib $-1 -1 $-1 $650 $598 #
point $-1 -1 $-1 3.8035883476483181 -3.468 5.3259116523516816 #
attrib_edge_convexity-kcp-attrib $-1 -1 $671 $-1 $660 1 #
vertex $-1 -1 $-1 $660 $672 #
ellipse-curve $-1 -1 $-1 3.7151999999999998 -2.718 5.4142999999999999 0 1 0 0.088388347648318419 0 -0.088388347648318419 1 I I #
convexity-sys-attrib $-1 -1 $-1 $661 $649 #
point $-1 -1 $-1 3.8477825214724777 -3.468 5.281717478527522 #
convexity-sys-attrib $-1 -1 $-1 $666 $660 #
point $-1 -1 $-1 3.8035883476483181 -2.718 5.3259116523516816 #
End-of-ACIS-data 