700 0 2 0           
24 FBMach with ACIS - 7.0.3 13 ACIS 7.0.3 NT 24 Mon May 13 17:01:20 2002 
1 9.9999999999999995e-007 1e-010 
body $2 -1 $-1 $3 $-1 $4 #
bdycol-kcp $-1 -1 1 4 $5 $6 $7 $8 #
model_id-kcp-attrib $-1 -1 $-1 $-1 $0 1 1021323680 1021323680 -1220345855 1 #
lump $-1 -1 $-1 $-1 $9 $0 #
transform $-1 -1 1 0 0 0 1 0 0 0 1 0 0 0 1 rotate no_reflect no_shear #
body $10 -1 $-1 $11 $-1 $12 #
body $13 -1 $-1 $14 $-1 $15 #
body $16 -1 $-1 $17 $-1 $18 #
body $19 -1 $-1 $20 $-1 $21 #
shell $-1 -1 $-1 $-1 $-1 $22 $-1 $3 #
rgb_color-st-attrib $-1 -1 $23 $-1 $5 0 0 1 #
lump $-1 -1 $-1 $-1 $24 $5 #
transform $-1 -1 1 0 0 0 1 0 0 0 1 -3.7151000000000001 3.875 5.4142999999999999 1 no_rotate no_reflect no_shear #
model_id-kcp-attrib $-1 -1 $-1 $-1 $6 1 1021323680 1021323680 -1220345854 1 #
lump $-1 -1 $-1 $-1 $25 $6 #
transform $-1 -1 1 0 0 0 1 0 0 0 1 -3.7151000000000001 3.875 5.4142999999999999 1 no_rotate no_reflect no_shear #
rgb_color-st-attrib $-1 -1 $26 $-1 $7 1 0.5 1 #
lump $-1 -1 $-1 $-1 $27 $7 #
transform $-1 -1 1 0 0 0 1 0 0 0 1 -3.7151000000000001 3.875 5.4142999999999999 1 no_rotate no_reflect no_shear #
rgb_color-st-attrib $-1 -1 $28 $-1 $8 0.5 1 1 #
lump $-1 -1 $-1 $-1 $29 $8 #
transform $-1 -1 1 0 0 0 1 0 0 0 1 -3.7151000000000001 3.875 5.4142999999999999 1 no_rotate no_reflect no_shear #
face $30 -1 $-1 $31 $32 $9 $-1 $33 reversed single #
model_id-kcp-attrib $-1 -1 $-1 $10 $5 1 1021323680 1021323680 -1221328892 1 #
shell $-1 -1 $-1 $-1 $-1 $34 $-1 $11 #
shell $-1 -1 $-1 $-1 $-1 $35 $-1 $14 #
model_id-kcp-attrib $-1 -1 $-1 $16 $7 1 1021323680 1021323680 -1216086011 1 #
shell $-1 -1 $-1 $-1 $-1 $36 $-1 $17 #
model_id-kcp-attrib $-1 -1 $-1 $19 $8 1 1021323680 1021323680 -1215692797 1 #
shell $-1 -1 $-1 $-1 $-1 $37 $-1 $20 #
model_id-kcp-attrib $-1 -1 $-1 $-1 $22 1 1021323680 1021323680 -1220345855 2 #
face $38 -1 $-1 $39 $40 $9 $-1 $41 reversed single #
loop $-1 -1 $-1 $-1 $42 $22 #
plane-surface $-1 -1 $-1 -3.6777435487499148 4.4750100000000002 5.2748797559534486 -0.25881199569454294 0 -0.96592771514467268 0.96592771514467246 0 -0.25881199569454283 forward_v I I I I #
face $-1 -1 $-1 $43 $44 $24 $-1 $45 forward single #
face $-1 -1 $-1 $46 $47 $25 $-1 $48 forward single #
face $-1 -1 $-1 $49 $50 $27 $-1 $51 forward single #
face $-1 -1 $-1 $52 $53 $29 $-1 $54 reversed single #
model_id-kcp-attrib $-1 -1 $-1 $-1 $31 1 1021323680 1021323680 -1220345855 3 #
face $55 -1 $-1 $56 $57 $9 $-1 $58 reversed single #
loop $-1 -1 $-1 $-1 $59 $31 #
plane-surface $-1 -1 $-1 -3.5756797559534483 4.4750100000000002 5.3769435487499146 0.70710678118654757 0 -0.70710678118654757 0.70710678118654735 0 0.70710678118654735 forward_v I I I I #
coedge $-1 -1 $-1 $60 $61 $62 $63 reversed $32 $-1 #
face $-1 -1 $-1 $64 $65 $24 $-1 $66 forward single #
loop $-1 -1 $-1 $-1 $67 $34 #
plane-surface $-1 -1 $-1 0.037356451250085243 0.375 -0.13942024404655129 0.70710678118654757 0 -0.70710678118654757 -0.70710678118654757 0 -0.70710678118654757 forward_v I I I I #
face $-1 -1 $-1 $68 $69 $25 $-1 $70 reversed single #
loop $-1 -1 $-1 $-1 $71 $35 #
plane-surface $-1 -1 $-1 0 0 0.1875 0 0 1 1 0 0 forward_v I I I I #
face $-1 -1 $-1 $72 $73 $27 $-1 $74 forward single #
loop $-1 -1 $-1 $75 $76 $36 #
cone-surface $-1 -1 $-1 0 0.25 0 0 -1 0 -0.088388347648318419 0 0.088388347648318419 1 I I 0 -1 0.12499999999999997 forward I I I I #
face $-1 -1 $-1 $77 $78 $29 $-1 $54 reversed single #
loop $-1 -1 $-1 $-1 $79 $37 #
cone-surface $-1 -1 $-1 0 -0.5 0 0 -1 0 0.13258252147247768 0 -0.13258252147247762 1 I I 0 1 0.18749999999999997 forward I I I I #
model_id-kcp-attrib $-1 -1 $-1 $-1 $39 1 1021323680 1021323680 -1220345855 4 #
face $80 -1 $-1 $81 $82 $9 $-1 $83 reversed single #
loop $-1 -1 $-1 $-1 $84 $39 #
plane-surface $-1 -1 $-1 -3.6130362072035336 4.4750100000000002 5.5163637927964659 0.96592771514467268 0 0.25881199569454294 -0.25881199569454283 0 0.96592771514467246 forward_v I I I I #
coedge $-1 -1 $-1 $85 $86 $87 $88 reversed $40 $-1 #
coedge $-1 -1 $-1 $89 $42 $90 $91 forward $32 $-1 #
coedge $-1 -1 $-1 $42 $89 $85 $92 reversed $32 $-1 #
coedge $-1 -1 $-1 $87 $93 $42 $63 forward $94 $-1 #
edge $-1 -1 $-1 $95 -0.10825454387499077 $96 0.036083631601908098 $62 $97 forward @7 unknown #
face $-1 -1 $-1 $98 $99 $24 $-1 $100 forward single #
loop $-1 -1 $-1 $-1 $101 $43 #
plane-surface $-1 -1 $-1 0.13942024404655173 0.375 -0.037356451250085243 0.96592771514467268 0 0.25881199569454294 0.25881199569454294 0 -0.96592771514467268 forward_v I I I I #
coedge $-1 -1 $-1 $102 $103 $104 $105 forward $44 $-1 #
face $106 -1 $-1 $107 $108 $25 $-1 $109 reversed single #
loop $-1 -1 $-1 $-1 $110 $46 #
plane-surface $-1 -1 $-1 0 0 -0.1875 0 0 1 1 0 0 forward_v I I I I #
coedge $-1 -1 $-1 $111 $112 $113 $114 forward $47 $-1 #
face $-1 -1 $-1 $115 $116 $27 $-1 $117 reversed single #
loop $-1 -1 $-1 $118 $119 $49 #
cone-surface $-1 -1 $-1 0 0.25 0 0 -1 0 0.13258252147247768 0 -0.13258252147247762 1 I I 0 1 0.18749999999999997 forward I I I I #
loop $-1 -1 $-1 $-1 $120 $36 #
coedge $-1 -1 $-1 $76 $76 $121 $122 forward $50 $-1 #
face $-1 -1 $-1 $123 $124 $29 $-1 $54 reversed single #
loop $-1 -1 $-1 $-1 $125 $52 #
coedge $-1 -1 $-1 $126 $127 $128 $129 reversed $53 $-1 #
model_id-kcp-attrib $-1 -1 $-1 $-1 $56 1 1021323680 1021323680 -1220345855 5 #
face $130 -1 $-1 $131 $132 $9 $-1 $133 reversed single #
loop $-1 -1 $-1 $-1 $134 $56 #
plane-surface $-1 -1 $-1 -3.7524564512500853 4.4750100000000002 5.5537202440465512 0.25881199569454294 0 0.96592771514467268 -0.96592771514467246 0 0.25881199569454283 forward_v I I I I #
coedge $-1 -1 $-1 $135 $136 $137 $138 reversed $57 $-1 #
coedge $-1 -1 $-1 $139 $59 $61 $92 forward $40 $-1 #
coedge $-1 -1 $-1 $59 $139 $135 $140 reversed $40 $-1 #
coedge $-1 -1 $-1 $137 $62 $59 $88 forward $94 $-1 #
edge $-1 -1 $-1 $96 -0.10825499999999946 $141 0.036085000000000554 $87 $142 forward @7 unknown #
coedge $-1 -1 $-1 $61 $60 $143 $144 reversed $32 $-1 #
coedge $-1 -1 $-1 $145 $146 $60 $91 reversed $132 $-1 #
edge $-1 -1 $-1 $95 0.10001000000000017 $147 0.22501000000000018 $90 $148 forward @7 unknown #
edge $-1 -1 $-1 $96 0.10001000000000017 $149 0.22501000000000018 $61 $150 forward @7 unknown #
coedge $-1 -1 $-1 $62 $151 $145 $152 forward $94 $-1 #
loop $-1 -1 $-1 $153 $154 $155 #
vertex $-1 -1 $-1 $63 $156 #
vertex $-1 -1 $-1 $88 $157 #
straight-curve $-1 -1 $-1 -3.712597728577268 4.375 5.2842186326602452 0.96592771514467246 0 -0.25881199569454283 I I #
face $-1 -1 $-1 $158 $159 $24 $-1 $160 forward single #
loop $-1 -1 $-1 $-1 $161 $64 #
plane-surface $-1 -1 $-1 0.10206379279646649 0.375 0.10206379279646605 0.25881199569454294 0 0.96592771514467268 0.96592771514467268 0 -0.25881199569454294 forward_v I I I I #
coedge $-1 -1 $-1 $162 $163 $164 $165 forward $65 $-1 #
coedge $-1 -1 $-1 $166 $67 $163 $167 reversed $44 $-1 #
coedge $-1 -1 $-1 $67 $166 $168 $169 forward $44 $-1 #
coedge $-1 -1 $-1 $170 $164 $67 $105 reversed $171 $-1 #
edge $-1 -1 $-1 $172 -0.10825499999999993 $173 0.036085000000000082 $67 $174 forward @7 unknown #
model_id-kcp-attrib $-1 -1 $-1 $-1 $68 1 1021323680 1021323680 -1220345854 2 #
face $-1 -1 $-1 $175 $176 $25 $-1 $177 reversed single #
loop $-1 -1 $-1 $-1 $178 $68 #
plane-surface $-1 -1 $-1 0 -0.5 0 0 1 0 0 0 1 forward_v I I I I #
coedge $-1 -1 $-1 $179 $180 $181 $182 forward $69 $-1 #
coedge $-1 -1 $-1 $183 $71 $184 $185 forward $47 $-1 #
coedge $-1 -1 $-1 $71 $183 $186 $187 forward $47 $-1 #
coedge $-1 -1 $-1 $188 $189 $71 $114 reversed $190 $-1 #
edge $-1 -1 $-1 $191 -0.5 $192 0.5 $113 $193 forward @7 unknown #
face $-1 -1 $-1 $-1 $194 $27 $-1 $195 forward single #
loop $-1 -1 $-1 $196 $197 $72 #
plane-surface $-1 -1 $-1 -0.010445895631164898 -0.5 0.0104458956311649 0 1 0 0 0 1 forward_v I I I I #
loop $-1 -1 $-1 $-1 $198 $49 #
coedge $-1 -1 $-1 $119 $119 $197 $199 forward $73 $-1 #
coedge $-1 -1 $-1 $120 $120 $200 $201 reversed $75 $-1 #
coedge $-1 -1 $-1 $121 $121 $76 $122 reversed $196 $-1 #
edge $-1 -1 $-1 $202 0 $202 6.2831853071795862 $76 $203 forward @7 unknown #
face $-1 -1 $-1 $204 $205 $29 $-1 $54 reversed single #
loop $-1 -1 $-1 $-1 $206 $77 #
coedge $-1 -1 $-1 $207 $208 $209 $210 reversed $78 $-1 #
coedge $-1 -1 $-1 $211 $79 $212 $213 forward $53 $-1 #
coedge $-1 -1 $-1 $79 $211 $214 $215 reversed $53 $-1 #
coedge $-1 -1 $-1 $216 $217 $79 $129 forward $218 $-1 #
edge $-1 -1 $-1 $219 0.78539816339744806 $220 2.3561944901923448 $128 $221 forward @7 unknown #
model_id-kcp-attrib $-1 -1 $-1 $-1 $81 1 1021323680 1021323680 -1220345855 6 #
face $222 -1 $-1 $223 $224 $9 $-1 $225 reversed single #
loop $-1 -1 $-1 $-1 $145 $81 #
plane-surface $-1 -1 $-1 -3.8171637927964666 4.4750100000000002 5.3122362072035338 -0.96592771514467268 0 -0.25881199569454294 0.25881199569454283 0 -0.96592771514467246 forward_v I I I I #
coedge $-1 -1 $-1 $226 $227 $154 $228 reversed $82 $-1 #
coedge $-1 -1 $-1 $229 $84 $86 $140 forward $57 $-1 #
coedge $-1 -1 $-1 $84 $229 $226 $230 reversed $57 $-1 #
coedge $-1 -1 $-1 $154 $87 $84 $138 forward $94 $-1 #
edge $-1 -1 $-1 $141 -0.10825271934035731 $231 0.036085456136541121 $137 $232 forward @7 unknown #
coedge $-1 -1 $-1 $86 $85 $233 $234 reversed $40 $-1 #
edge $-1 -1 $-1 $141 0.10001000000000017 $235 0.22501000000000018 $86 $236 forward @7 unknown #
vertex $-1 -1 $-1 $138 $237 #
straight-curve $-1 -1 $-1 -3.6011957041525653 4.375 5.3514276005507977 0.70710678118654735 0 0.70710678118654735 I I #
coedge $-1 -1 $-1 $238 $233 $89 $144 forward $239 $-1 #
edge $240 -1 $-1 $149 -0.14433817547689887 $147 0 $89 $241 forward @7 unknown #
coedge $-1 -1 $-1 $242 $90 $93 $152 reversed $132 $-1 #
coedge $-1 -1 $-1 $90 $242 $238 $243 reversed $132 $-1 #
vertex $-1 -1 $-1 $91 $244 #
straight-curve $-1 -1 $-1 -3.8171637927964666 4.4750100000000002 5.3122362072035338 0 -0.99999999999999989 0 I I #
vertex $-1 -1 $-1 $92 $245 #
straight-curve $-1 -1 $-1 -3.6777435487499148 4.4750100000000002 5.2748797559534486 0 -0.99999999999999989 0 I I #
coedge $-1 -1 $-1 $93 $154 $246 $247 forward $94 $-1 #
edge $-1 -1 $-1 $248 -0.10825271934035731 $95 0.036085456136541121 $93 $249 forward @7 unknown #
loop $-1 -1 $-1 $-1 $250 $155 #
coedge $-1 -1 $-1 $151 $137 $134 $228 forward $94 $-1 #
face $251 -1 $-1 $252 $94 $9 $-1 $253 forward single #
point $-1 -1 $-1 -3.8171637927964666 4.375 5.3122362072035338 #
point $-1 -1 $-1 -3.6777435487499148 4.375 5.2748797559534486 #
face $-1 -1 $-1 $254 $255 $24 $-1 $256 forward single #
loop $-1 -1 $-1 $-1 $257 $98 #
plane-surface $-1 -1 $-1 -0.037356451250085243 0.375 0.13942024404655129 -0.70710678118654757 0 0.70710678118654757 0.70710678118654757 0 0.70710678118654757 forward_v I I I I #
coedge $-1 -1 $-1 $258 $259 $260 $261 forward $99 $-1 #
coedge $-1 -1 $-1 $262 $101 $259 $263 reversed $65 $-1 #
coedge $-1 -1 $-1 $101 $262 $102 $167 forward $65 $-1 #
coedge $-1 -1 $-1 $104 $260 $101 $165 reversed $171 $-1 #
edge $-1 -1 $-1 $173 -0.10825271934035742 $264 0.036085456136540982 $101 $265 forward @7 unknown #
coedge $-1 -1 $-1 $103 $102 $266 $267 reversed $44 $-1 #
edge $268 -1 $-1 $269 0 $173 0.125 $163 $270 forward @7 unknown #
coedge $-1 -1 $-1 $271 $272 $103 $169 reversed $273 $-1 #
edge $-1 -1 $-1 $274 0 $172 0.125 $103 $275 forward @7 unknown #
coedge $-1 -1 $-1 $276 $104 $272 $277 reversed $171 $-1 #
loop $-1 -1 $-1 $-1 $104 $278 #
vertex $-1 -1 $-1 $169 $279 #
vertex $-1 -1 $-1 $167 $280 #
straight-curve $-1 -1 $-1 0.11390429584743511 0.5 -0.062872399449201866 0.70710678118654757 0 0.70710678118654757 I I #
face $281 -1 $-1 $282 $283 $25 $-1 $284 reversed single #
loop $-1 -1 $-1 $-1 $285 $107 #
plane-surface $-1 -1 $-1 -0.1875 0 0 1 0 0 0 0 -1 forward_v I I I I #
coedge $-1 -1 $-1 $286 $186 $287 $288 forward $108 $-1 #
coedge $-1 -1 $-1 $289 $110 $286 $290 forward $69 $-1 #
coedge $-1 -1 $-1 $110 $289 $291 $292 forward $69 $-1 #
coedge $-1 -1 $-1 $189 $188 $110 $182 reversed $190 $-1 #
edge $-1 -1 $-1 $293 -0.5 $294 0.5 $181 $295 forward @7 unknown #
coedge $-1 -1 $-1 $112 $111 $296 $297 forward $47 $-1 #
coedge $-1 -1 $-1 $298 $299 $111 $185 reversed $283 $-1 #
edge $-1 -1 $-1 $192 -0.1875 $300 0.1875 $184 $301 forward @7 unknown #
coedge $-1 -1 $-1 $178 $302 $112 $187 reversed $108 $-1 #
edge $-1 -1 $-1 $303 -0.1875 $191 0.1875 $186 $304 forward @7 unknown #
coedge $-1 -1 $-1 $181 $113 $302 $305 forward $190 $-1 #
coedge $-1 -1 $-1 $113 $181 $298 $306 reversed $190 $-1 #
loop $-1 -1 $-1 $-1 $188 $282 #
vertex $-1 -1 $-1 $114 $307 #
vertex $-1 -1 $-1 $114 $308 #
straight-curve $-1 -1 $-1 0.1875 0 0.1875 0 1 0 I I #
loop $-1 -1 $-1 $309 $310 $115 #
plane-surface $-1 -1 $-1 -0.010445895631164898 0.25 0.0104458956311649 0 1 0 0 0 1 forward_v I I I I #
loop $-1 -1 $-1 $-1 $121 $72 #
coedge $-1 -1 $-1 $197 $197 $119 $199 reversed $116 $-1 #
coedge $-1 -1 $-1 $198 $198 $310 $311 reversed $118 $-1 #
edge $-1 -1 $-1 $312 -3.1415926535897931 $312 3.1415926535897931 $119 $313 forward @7 unknown #
coedge $-1 -1 $-1 $200 $200 $120 $201 forward $309 $-1 #
edge $314 -1 $-1 $315 0 $315 6.2831853071795862 $120 $316 forward @7 unknown #
vertex $-1 -1 $-1 $122 $317 #
ellipse-curve $-1 -1 $-1 0 -0.5 0 0 -1 0 -0.088388347648318419 0 0.088388347648318419 1 I I #
face $-1 -1 $-1 $318 $319 $29 $-1 $320 forward single #
loop $-1 -1 $-1 $-1 $321 $123 #
coedge $-1 -1 $-1 $322 $323 $321 $324 forward $124 $-1 #
coedge $-1 -1 $-1 $325 $125 $326 $327 reversed $78 $-1 #
coedge $-1 -1 $-1 $125 $325 $127 $215 forward $78 $-1 #
coedge $-1 -1 $-1 $328 $329 $125 $210 forward $330 $-1 #
edge $-1 -1 $-1 $331 2.3561944901923453 $332 3.9269908169872414 $209 $333 forward @7 unknown #
coedge $-1 -1 $-1 $127 $126 $334 $335 reversed $53 $-1 #
coedge $-1 -1 $-1 $323 $322 $336 $213 reversed $124 $-1 #
edge $-1 -1 $-1 $219 -1 $337 0 $336 $338 forward @7 unknown #
coedge $-1 -1 $-1 $339 $340 $341 $215 forward $342 $-1 #
edge $-1 -1 $-1 $220 -1 $332 0 $214 $343 forward @7 unknown #
coedge $-1 -1 $-1 $217 $128 $340 $344 reversed $218 $-1 #
coedge $-1 -1 $-1 $128 $216 $345 $346 forward $218 $-1 #
loop $-1 -1 $-1 $-1 $128 $347 #
vertex $-1 -1 $-1 $348 $349 #
vertex $-1 -1 $-1 $350 $351 #
ellipse-curve $-1 -1 $-1 0 0.5 0 0 -1 0 0.13258252147247768 0 -0.13258252147247762 1 I I #
model_id-kcp-attrib $-1 -1 $-1 $-1 $131 1 1021323680 1021323680 -1220345855 7 #
face $352 -1 $-1 $353 $239 $9 $-1 $354 forward single #
loop $-1 -1 $-1 $-1 $246 $131 #
plane-surface $-1 -1 $-1 -3.8545202440465518 4.4750100000000002 5.4516564512500851 -0.70710678118654757 0 0.70710678118654757 -0.70710678118654735 0 -0.70710678118654735 forward_v I I I I #
coedge $-1 -1 $-1 $355 $134 $136 $230 forward $82 $-1 #
coedge $-1 -1 $-1 $134 $355 $356 $357 reversed $82 $-1 #
edge $-1 -1 $-1 $231 -0.10825454387499077 $358 0.036083631601908098 $154 $359 forward @7 unknown #
coedge $-1 -1 $-1 $136 $135 $360 $361 reversed $57 $-1 #
edge $-1 -1 $-1 $231 0.10001000000000017 $362 0.22501000000000018 $136 $363 forward @7 unknown #
vertex $-1 -1 $-1 $228 $364 #
straight-curve $-1 -1 $-1 -3.6036968582852875 4.375 5.4815078506005435 -0.25881199569454283 0 0.96592771514467246 I I #
coedge $-1 -1 $-1 $143 $360 $139 $234 forward $239 $-1 #
edge $365 -1 $-1 $235 -0.14434 $149 0 $139 $366 forward @7 unknown #
vertex $-1 -1 $-1 $140 $367 #
straight-curve $-1 -1 $-1 -3.5756797559534483 4.4750100000000002 5.3769435487499146 0 -0.99999999999999989 0 I I #
point $-1 -1 $-1 -3.5756797559534483 4.375 5.3769435487499146 #
coedge $-1 -1 $-1 $368 $143 $146 $243 forward $239 $-1 #
loop $-1 -1 $-1 $-1 $369 $223 #
attrib_edge_convexity-kcp-attrib $-1 -1 $370 $-1 $144 2 #
straight-curve $-1 -1 $-1 -3.8171637927964666 4.25 5.3122362072035338 -0.96592771514467246 0 0.25881199569454294 I I #
coedge $-1 -1 $-1 $146 $145 $371 $372 forward $132 $-1 #
edge $373 -1 $-1 $147 -0.14433817547689845 $374 0 $146 $375 forward @7 unknown #
point $-1 -1 $-1 -3.8171637927964666 4.25 5.3122362072035338 #
point $-1 -1 $-1 -3.6777435487499148 4.25 5.2748797559534486 #
coedge $-1 -1 $-1 $356 $371 $151 $247 reversed $224 $-1 #
edge $-1 -1 $-1 $358 -0.10825499999999946 $248 0.036085000000000554 $151 $376 forward @7 unknown #
vertex $-1 -1 $-1 $152 $377 #
straight-curve $-1 -1 $-1 -3.8265031417147126 4.375 5.3470921493994563 0.25881199569454283 0 -0.96592771514467246 I I #
coedge $-1 -1 $-1 $250 $250 $378 $379 forward $153 $-1 #
model_id-kcp-attrib $-1 -1 $-1 $-1 $155 1 1021323680 1021323680 -1220345855 12 #
face $380 -1 $-1 $-1 $381 $9 $-1 $382 forward single #
plane-surface $-1 -1 $-1 -3.7151000000000001 4.375 5.4142999999999999 0 1 0 0.70710678118654735 0 -0.70710678118654735 forward_v I I I I #
face $-1 -1 $-1 $278 $273 $24 $-1 $383 forward single #
loop $-1 -1 $-1 $-1 $384 $158 #
plane-surface $-1 -1 $-1 -0.13942024404655173 0.375 0.037356451250085243 -0.96592771514467268 0 -0.25881199569454294 -0.25881199569454294 0 0.96592771514467268 forward_v I I I I #
coedge $-1 -1 $-1 $385 $386 $387 $388 forward $159 $-1 #
coedge $-1 -1 $-1 $389 $161 $386 $390 reversed $99 $-1 #
coedge $-1 -1 $-1 $161 $389 $162 $263 forward $99 $-1 #
coedge $-1 -1 $-1 $164 $387 $161 $261 reversed $171 $-1 #
edge $-1 -1 $-1 $264 -0.10825454387499066 $391 0.036083631601908174 $161 $392 forward @7 unknown #
coedge $-1 -1 $-1 $163 $162 $393 $394 reversed $65 $-1 #
edge $-1 -1 $-1 $395 0 $264 0.125 $259 $396 forward @7 unknown #
vertex $-1 -1 $-1 $263 $397 #
straight-curve $-1 -1 $-1 0.11140314171471255 0.5 0.067207850600543712 -0.25881199569454294 0 0.96592771514467268 I I #
coedge $-1 -1 $-1 $393 $398 $166 $267 forward $399 $-1 #
edge $400 -1 $-1 $274 -0.10825499999999993 $269 0.036085000000000082 $166 $401 forward @7 unknown #
convexity-sys-attrib $-1 -1 $-1 $-1 $167 #
vertex $-1 -1 $-1 $267 $402 #
straight-curve $-1 -1 $-1 0.13942024404655173 0.375 -0.037356451250085243 0 1 0 I I #
coedge $-1 -1 $-1 $403 $168 $398 $404 reversed $273 $-1 #
coedge $-1 -1 $-1 $168 $403 $170 $277 forward $273 $-1 #
loop $-1 -1 $-1 $-1 $272 $254 #
vertex $-1 -1 $-1 $404 $405 #
straight-curve $-1 -1 $-1 0.037356451250085243 0.375 -0.13942024404655129 0 1 0 I I #
coedge $-1 -1 $-1 $387 $170 $384 $406 reversed $171 $-1 #
edge $-1 -1 $-1 $407 -0.10825454387499066 $172 0.036083631601908174 $272 $408 forward @7 unknown #
face $-1 -1 $-1 $409 $171 $24 $-1 $410 forward single #
point $-1 -1 $-1 0.037356451250085243 0.5 -0.13942024404655129 #
point $-1 -1 $-1 0.13942024404655173 0.5 -0.037356451250085243 #
model_id-kcp-attrib $-1 -1 $-1 $-1 $175 1 1021323680 1021323680 -1220345854 3 #
face $-1 -1 $-1 $-1 $190 $25 $-1 $411 reversed single #
loop $-1 -1 $-1 $-1 $298 $175 #
plane-surface $-1 -1 $-1 0 0.5 0 0 -1 0 0 0 -1 forward_v I I I I #
coedge $-1 -1 $-1 $412 $296 $299 $413 forward $176 $-1 #
coedge $-1 -1 $-1 $302 $178 $179 $290 reversed $108 $-1 #
coedge $-1 -1 $-1 $296 $412 $178 $288 reversed $176 $-1 #
edge $-1 -1 $-1 $303 -0.1875 $414 0.1875 $287 $415 forward @7 unknown #
coedge $-1 -1 $-1 $180 $179 $412 $416 forward $69 $-1 #
edge $-1 -1 $-1 $294 -0.1875 $414 0.1875 $286 $417 forward @7 unknown #
coedge $-1 -1 $-1 $299 $298 $180 $292 reversed $283 $-1 #
edge $-1 -1 $-1 $418 -0.1875 $293 0.1875 $291 $419 forward @7 unknown #
vertex $-1 -1 $-1 $182 $420 #
vertex $-1 -1 $-1 $305 $421 #
straight-curve $-1 -1 $-1 0.1875 0 -0.1875 0 -1 0 I I #
coedge $-1 -1 $-1 $285 $287 $183 $297 reversed $176 $-1 #
edge $-1 -1 $-1 $300 -0.5 $303 0.5 $296 $422 forward @7 unknown #
coedge $-1 -1 $-1 $291 $184 $189 $306 forward $283 $-1 #
coedge $-1 -1 $-1 $184 $291 $285 $413 reversed $283 $-1 #
vertex $-1 -1 $-1 $185 $423 #
straight-curve $-1 -1 $-1 0 0.5 0.1875 -1 0 0 I I #
coedge $-1 -1 $-1 $186 $286 $188 $305 reversed $108 $-1 #
vertex $-1 -1 $-1 $297 $424 #
straight-curve $-1 -1 $-1 0 -0.5 0.1875 1 0 0 I I #
edge $-1 -1 $-1 $191 -0.1875 $294 0.1875 $188 $425 forward @7 unknown #
edge $-1 -1 $-1 $192 -0.1875 $293 0.1875 $189 $426 forward @7 unknown #
point $-1 -1 $-1 0.1875 -0.5 0.1875 #
point $-1 -1 $-1 0.1875 0.5 0.1875 #
loop $-1 -1 $-1 $-1 $200 $115 #
coedge $-1 -1 $-1 $310 $310 $198 $311 forward $194 $-1 #
edge $427 -1 $-1 $428 -3.1415926535897931 $428 3.1415926535897931 $198 $429 forward @7 unknown #
vertex $-1 -1 $-1 $199 $430 #
ellipse-curve $-1 -1 $-1 0 -0.5 0 0 1 0 0.13258252147247768 0 -0.13258252147247762 1 I I #
convexity-sys-attrib $-1 -1 $-1 $-1 $201 #
vertex $-1 -1 $-1 $201 $431 #
ellipse-curve $-1 -1 $-1 0 0.25 0 0 -1 0 -0.088388347648318419 0 0.088388347648318419 1 I I #
point $-1 -1 $-1 -0.088388347648318266 -0.5 0.088388347648318266 #
face $-1 -1 $-1 $432 $433 $29 $-1 $434 reversed single #
loop $-1 -1 $-1 $-1 $341 $204 #
plane-surface $-1 -1 $-1 0 0 0.1875 0 0 1 1 0 0 forward_v I I I I #
coedge $-1 -1 $-1 $435 $436 $437 $324 reversed $205 $-1 #
coedge $-1 -1 $-1 $212 $206 $438 $439 reversed $124 $-1 #
coedge $-1 -1 $-1 $206 $212 $440 $441 reversed $124 $-1 #
edge $-1 -1 $-1 $442 -1 $443 0 $437 $444 forward @7 unknown #
coedge $-1 -1 $-1 $208 $207 $445 $446 reversed $78 $-1 #
coedge $-1 -1 $-1 $447 $448 $449 $327 forward $450 $-1 #
edge $-1 -1 $-1 $451 -1 $331 0 $326 $452 forward @7 unknown #
coedge $-1 -1 $-1 $329 $209 $453 $454 reversed $330 $-1 #
coedge $-1 -1 $-1 $209 $328 $447 $455 forward $330 $-1 #
loop $-1 -1 $-1 $-1 $209 $456 #
vertex $-1 -1 $-1 $457 $458 #
vertex $-1 -1 $-1 $459 $460 #
ellipse-curve $-1 -1 $-1 0 -0.5 0 0 1 0 0.13258252147247768 0 -0.13258252147247762 1 I I #
coedge $-1 -1 $-1 $461 $462 $211 $335 forward $463 $-1 #
edge $-1 -1 $-1 $332 -2.3561944901923448 $337 -0.78539816339744806 $334 $333 forward @7 unknown #
coedge $-1 -1 $-1 $464 $465 $466 $213 forward $433 $-1 #
vertex $-1 -1 $-1 $467 $468 #
straight-curve $-1 -1 $-1 0.1875 -0.5 0 0 -1 0 I I #
coedge $-1 -1 $-1 $469 $214 $462 $459 forward $342 $-1 #
coedge $-1 -1 $-1 $214 $469 $216 $344 forward $342 $-1 #
coedge $-1 -1 $-1 $470 $453 $208 $215 reversed $319 $-1 #
loop $-1 -1 $-1 $-1 $214 $471 #
straight-curve $-1 -1 $-1 0 -0.5 0.1875 0 -1 0 I I #
edge $-1 -1 $-1 $472 -0.1875 $220 0 $216 $473 forward @7 unknown #
coedge $-1 -1 $-1 $474 $466 $217 $346 reversed $475 $-1 #
edge $-1 -1 $-1 $472 -0.1875 $219 0 $345 $476 forward @7 unknown #
face $-1 -1 $-1 $477 $218 $29 $-1 $478 reversed single #
edge $-1 -1 $-1 $219 0 $479 0.1875 $465 $476 forward @7 unknown #
point $-1 -1 $-1 0.1875 0.5 0 #
edge $-1 -1 $-1 $220 0 $480 0.1875 $481 $473 forward @7 unknown #
point $-1 -1 $-1 0 0.5 0.1875 #
model_id-kcp-attrib $-1 -1 $-1 $-1 $223 1 1021323680 1021323680 -1220345855 8 #
face $482 -1 $-1 $483 $484 $9 $-1 $485 forward single #
plane-surface $-1 -1 $-1 -3.7524564512500853 4.25 5.5537202440465512 0 1 0 0.70710678118654735 0 -0.70710678118654735 forward_v I I I I #
coedge $-1 -1 $-1 $227 $226 $369 $486 reversed $82 $-1 #
coedge $-1 -1 $-1 $487 $246 $227 $357 forward $224 $-1 #
edge $-1 -1 $-1 $358 0.10001000000000017 $488 0.22501000000000018 $227 $489 forward @7 unknown #
vertex $-1 -1 $-1 $228 $490 #
straight-curve $-1 -1 $-1 -3.7176022714227321 4.375 5.5443813673397546 -0.96592771514467246 0 0.25881199569454283 I I #
coedge $-1 -1 $-1 $233 $369 $229 $361 forward $239 $-1 #
edge $491 -1 $-1 $362 -0.14433817547689845 $235 0 $229 $492 forward @7 unknown #
vertex $-1 -1 $-1 $230 $493 #
straight-curve $-1 -1 $-1 -3.6130362072035336 4.4750100000000002 5.5163637927964659 0 -0.99999999999999989 0 I I #
point $-1 -1 $-1 -3.6130362072035336 4.375 5.5163637927964659 #
attrib_edge_convexity-kcp-attrib $-1 -1 $494 $-1 $234 2 #
straight-curve $-1 -1 $-1 -3.6777435487499148 4.25 5.2748797559534486 -0.70710678118654735 0 -0.70710678118654735 I I #
point $-1 -1 $-1 -3.5756797559534483 4.25 5.3769435487499146 #
coedge $-1 -1 $-1 $369 $238 $487 $495 forward $239 $-1 #
coedge $-1 -1 $-1 $360 $368 $355 $486 forward $239 $-1 #
convexity-sys-attrib $-1 -1 $-1 $240 $144 #
coedge $-1 -1 $-1 $246 $487 $242 $372 reversed $224 $-1 #
edge $-1 -1 $-1 $248 0.10001000000000017 $374 0.22501000000000018 $371 $496 forward @7 unknown #
attrib_edge_convexity-kcp-attrib $-1 -1 $497 $-1 $243 2 #
vertex $-1 -1 $-1 $372 $498 #
straight-curve $-1 -1 $-1 -3.8545202440465518 4.25 5.4516564512500851 -0.25881199569454294 0 0.96592771514467246 I I #
straight-curve $-1 -1 $-1 -3.8290042958474348 4.375 5.4771723994492021 -0.70710678118654735 0 -0.70710678118654735 I I #
point $-1 -1 $-1 -3.8545202440465518 4.375 5.4516564512500851 #
coedge $-1 -1 $-1 $378 $378 $250 $379 reversed $499 $-1 #
edge $-1 -1 $-1 $500 0 $500 6.2831853071795862 $250 $501 forward @7 unknown #
model_id-kcp-attrib $-1 -1 $-1 $-1 $252 1 1021323680 1021323680 -1220345855 13 #
loop $-1 -1 $-1 $502 $503 $252 #
plane-surface $-1 -1 $-1 -3.7151000000000001 4.125 5.4142999999999999 0 -1 0 -0.70710678118654735 0 0.70710678118654735 forward_v I I I I #
plane-surface $-1 -1 $-1 -0.10206379279646649 0.375 -0.10206379279646605 -0.25881199569454294 0 -0.96592771514467268 -0.96592771514467268 0 0.25881199569454294 forward_v I I I I #
coedge $-1 -1 $-1 $504 $505 $276 $406 forward $255 $-1 #
coedge $-1 -1 $-1 $506 $257 $505 $507 reversed $159 $-1 #
coedge $-1 -1 $-1 $257 $506 $258 $390 forward $159 $-1 #
coedge $-1 -1 $-1 $260 $276 $257 $388 reversed $171 $-1 #
edge $-1 -1 $-1 $391 -0.10825499999999993 $508 0.036085000000000082 $257 $509 forward @7 unknown #
coedge $-1 -1 $-1 $259 $258 $510 $511 reversed $99 $-1 #
edge $-1 -1 $-1 $512 0 $391 0.125 $386 $513 forward @7 unknown #
vertex $-1 -1 $-1 $390 $514 #
straight-curve $-1 -1 $-1 -0.0025022714227319748 0.5 0.13008136733975476 -0.96592771514467268 0 0.25881199569454294 I I #
coedge $-1 -1 $-1 $510 $266 $262 $394 forward $399 $-1 #
edge $515 -1 $-1 $269 -0.10825271934035742 $395 0.036085456136540982 $262 $516 forward @7 unknown #
vertex $-1 -1 $-1 $394 $517 #
straight-curve $-1 -1 $-1 0.10206379279646649 0.375 0.10206379279646605 0 1 0 I I #
point $-1 -1 $-1 0.10206379279646649 0.5 0.10206379279646605 #
coedge $-1 -1 $-1 $266 $518 $271 $404 forward $399 $-1 #
loop $-1 -1 $-1 $-1 $398 $409 #
convexity-sys-attrib $-1 -1 $-1 $-1 $267 #
straight-curve $-1 -1 $-1 0.11390429584743511 0.375 -0.062872399449201866 0.70710678118654757 0 0.70710678118654757 I I #
point $-1 -1 $-1 0.13942024404655173 0.375 -0.037356451250085243 #
coedge $-1 -1 $-1 $272 $271 $504 $519 forward $273 $-1 #
edge $520 -1 $-1 $521 -0.10825454387499066 $274 0.036083631601908174 $271 $522 forward @7 unknown #
point $-1 -1 $-1 0.037356451250085243 0.375 -0.13942024404655129 #
edge $-1 -1 $-1 $508 -0.10825271934035742 $407 0.036085456136540982 $384 $523 forward @7 unknown #
vertex $-1 -1 $-1 $519 $524 #
straight-curve $-1 -1 $-1 0.0025022714227319748 0.5 -0.13008136733975476 0.96592771514467268 0 -0.25881199569454294 I I #
face $-1 -1 $-1 $-1 $399 $24 $-1 $525 reversed single #
plane-surface $-1 -1 $-1 1.7347234759768071e-018 0.5 -1.7347234759768071e-018 0 1 0 0 0 1 forward_v I I I I #
plane-surface $-1 -1 $-1 0.1875 0 0 -1 0 0 0 0 1 forward_v I I I I #
coedge $-1 -1 $-1 $287 $285 $289 $416 reversed $176 $-1 #
edge $-1 -1 $-1 $300 -0.1875 $418 0.1875 $299 $526 forward @7 unknown #
vertex $-1 -1 $-1 $416 $527 #
straight-curve $-1 -1 $-1 -0.1875 -0.5 0 0 0 -1 I I #
edge $-1 -1 $-1 $414 -0.5 $418 0.5 $412 $528 forward @7 unknown #
straight-curve $-1 -1 $-1 0 -0.5 -0.1875 -1 0 0 I I #
vertex $-1 -1 $-1 $292 $529 #
straight-curve $-1 -1 $-1 0 0.5 -0.1875 1 0 0 I I #
point $-1 -1 $-1 0.1875 0.5 -0.1875 #
point $-1 -1 $-1 0.1875 -0.5 -0.1875 #
straight-curve $-1 -1 $-1 -0.1875 0 0.1875 0 -1 0 I I #
point $-1 -1 $-1 -0.1875 0.5 0.1875 #
point $-1 -1 $-1 -0.1875 -0.5 0.1875 #
straight-curve $-1 -1 $-1 0.1875 -0.5 0 0 0 -1 I I #
straight-curve $-1 -1 $-1 0.1875 0.5 0 0 0 -1 I I #
convexity-sys-attrib $-1 -1 $-1 $-1 $311 #
vertex $-1 -1 $-1 $311 $530 #
ellipse-curve $-1 -1 $-1 0 0.25 0 0 1 0 0.13258252147247768 0 -0.13258252147247762 1 I I #
point $-1 -1 $-1 -0.13258252147247765 -0.5 0.13258252147247765 #
point $-1 -1 $-1 -0.088388347648318266 0.25 0.088388347648318266 #
face $-1 -1 $-1 $531 $532 $29 $-1 $533 reversed single #
loop $-1 -1 $-1 $-1 $336 $318 #
plane-surface $-1 -1 $-1 0.1875 0 0 -1 0 0 0 0 1 forward_v I I I I #
coedge $-1 -1 $-1 $534 $321 $535 $536 reversed $205 $-1 #
coedge $-1 -1 $-1 $321 $534 $537 $538 reversed $205 $-1 #
coedge $-1 -1 $-1 $539 $540 $541 $324 forward $542 $-1 #
coedge $-1 -1 $-1 $543 $544 $322 $439 forward $545 $-1 #
edge $-1 -1 $-1 $337 -0.78539816339744806 $443 0.7853981633974485 $438 $333 forward @7 unknown #
coedge $-1 -1 $-1 $546 $547 $323 $441 forward $548 $-1 #
edge $-1 -1 $-1 $442 -0.7853981633974485 $219 0.78539816339744806 $440 $221 forward @7 unknown #
vertex $-1 -1 $-1 $549 $550 #
vertex $-1 -1 $-1 $551 $552 #
straight-curve $-1 -1 $-1 0 -0.5 -0.1875 0 -1 0 I I #
coedge $-1 -1 $-1 $553 $481 $325 $446 forward $554 $-1 #
edge $-1 -1 $-1 $220 2.3561944901923448 $451 3.926990816987241 $445 $221 forward @7 unknown #
coedge $-1 -1 $-1 $555 $326 $329 $455 reversed $450 $-1 #
coedge $-1 -1 $-1 $326 $555 $553 $556 forward $450 $-1 #
coedge $-1 -1 $-1 $557 $558 $534 $327 reversed $532 $-1 #
loop $-1 -1 $-1 $-1 $326 $559 #
vertex $-1 -1 $-1 $560 $561 #
straight-curve $-1 -1 $-1 -0.1875 -0.5 0 0 -1 0 I I #
coedge $-1 -1 $-1 $341 $562 $328 $454 forward $319 $-1 #
edge $-1 -1 $-1 $563 -0.1875 $332 0 $328 $564 forward @7 unknown #
edge $-1 -1 $-1 $563 -0.1875 $331 0 $447 $565 forward @7 unknown #
face $-1 -1 $-1 $566 $330 $29 $-1 $567 reversed single #
edge $-1 -1 $-1 $331 0 $568 0.1875 $558 $565 forward @7 unknown #
point $-1 -1 $-1 -0.1875 -0.5 0 #
edge $-1 -1 $-1 $332 0 $569 0.1875 $462 $564 forward @7 unknown #
point $-1 -1 $-1 0 -0.5 0.1875 #
coedge $-1 -1 $-1 $462 $334 $570 $571 reversed $463 $-1 #
coedge $-1 -1 $-1 $334 $461 $339 $459 reversed $463 $-1 #
loop $-1 -1 $-1 $-1 $334 $566 #
coedge $-1 -1 $-1 $572 $336 $544 $467 forward $433 $-1 #
coedge $-1 -1 $-1 $336 $572 $546 $348 reversed $433 $-1 #
coedge $-1 -1 $-1 $345 $570 $126 $213 reversed $475 $-1 #
edge $-1 -1 $-1 $337 0 $573 0.1875 $464 $574 forward @7 unknown #
point $-1 -1 $-1 0.1875 -0.5 0 #
coedge $-1 -1 $-1 $340 $339 $474 $575 forward $342 $-1 #
coedge $-1 -1 $-1 $562 $341 $481 $350 forward $319 $-1 #
face $-1 -1 $-1 $576 $342 $29 $-1 $320 forward single #
vertex $-1 -1 $-1 $575 $577 #
straight-curve $-1 -1 $-1 0 0.5 0.1875 -1 0 0 I I #
coedge $-1 -1 $-1 $570 $345 $469 $575 reversed $475 $-1 #
loop $-1 -1 $-1 $-1 $466 $578 #
straight-curve $-1 -1 $-1 0.1875 0.5 0 0 0 -1 I I #
face $-1 -1 $-1 $579 $554 $29 $-1 $478 reversed single #
plane-surface $-1 -1 $-1 0 0.5 0 0 -1 0 0 0 -1 forward_v I I I I #
vertex $-1 -1 $-1 $580 $581 #
vertex $-1 -1 $-1 $350 $582 #
coedge $-1 -1 $-1 $445 $553 $470 $350 reversed $554 $-1 #
model_id-kcp-attrib $-1 -1 $-1 $-1 $353 1 1021323680 1021323680 -1220345855 9 #
face $583 -1 $-1 $584 $585 $9 $-1 $586 forward single #
loop $-1 -1 $-1 $587 $588 $353 #
cone-surface $-1 -1 $-1 -3.7151000000000001 3.75 5.4142999999999999 0 -1 0 -0.088388347648318419 0 0.088388347648318419 1 I I 0 1 0.12499999999999999 forward I I I I #
edge $589 -1 $-1 $488 -0.14433817547689887 $362 0 $355 $590 forward @7 unknown #
coedge $-1 -1 $-1 $371 $356 $368 $495 reversed $224 $-1 #
vertex $-1 -1 $-1 $357 $591 #
straight-curve $-1 -1 $-1 -3.7524564512500853 4.4750100000000002 5.5537202440465512 0 -0.99999999999999989 0 I I #
point $-1 -1 $-1 -3.7524564512500853 4.375 5.5537202440465512 #
attrib_edge_convexity-kcp-attrib $-1 -1 $592 $-1 $361 2 #
straight-curve $-1 -1 $-1 -3.5756797559534483 4.25 5.3769435487499146 0.25881199569454294 0 -0.96592771514467246 I I #
point $-1 -1 $-1 -3.6130362072035336 4.25 5.5163637927964659 #
convexity-sys-attrib $-1 -1 $-1 $365 $234 #
edge $593 -1 $-1 $374 -0.14434 $488 0 $487 $594 forward @7 unknown #
straight-curve $-1 -1 $-1 -3.8545202440465518 4.4750100000000002 5.4516564512500851 0 -0.99999999999999989 0 I I #
convexity-sys-attrib $-1 -1 $-1 $373 $243 #
point $-1 -1 $-1 -3.8545202440465518 4.25 5.4516564512500851 #
loop $-1 -1 $-1 $595 $378 $584 #
vertex $-1 -1 $-1 $379 $596 #
ellipse-curve $-1 -1 $-1 -3.7151000000000001 4.375 5.4142999999999999 0 1 0 -0.13258252147247765 0 0.13258252147247765 1 I I #
loop $-1 -1 $-1 $-1 $597 $252 #
coedge $-1 -1 $-1 $503 $503 $588 $598 forward $381 $-1 #
coedge $-1 -1 $-1 $599 $384 $403 $519 reversed $255 $-1 #
coedge $-1 -1 $-1 $384 $599 $385 $507 forward $255 $-1 #
coedge $-1 -1 $-1 $386 $385 $600 $601 reversed $159 $-1 #
edge $-1 -1 $-1 $602 0 $508 0.125 $505 $603 forward @7 unknown #
vertex $-1 -1 $-1 $507 $604 #
straight-curve $-1 -1 $-1 -0.11390429584743511 0.5 0.062872399449201866 -0.70710678118654757 0 -0.70710678118654757 I I #
coedge $-1 -1 $-1 $600 $393 $389 $511 forward $399 $-1 #
edge $605 -1 $-1 $395 -0.10825454387499066 $512 0.036083631601908174 $389 $606 forward @7 unknown #
vertex $-1 -1 $-1 $511 $607 #
straight-curve $-1 -1 $-1 -0.037356451250085243 0.375 0.13942024404655129 0 1 0 I I #
point $-1 -1 $-1 -0.037356451250085243 0.5 0.13942024404655129 #
convexity-sys-attrib $-1 -1 $-1 $-1 $394 #
straight-curve $-1 -1 $-1 0.11140314171471255 0.375 0.067207850600543712 -0.25881199569454294 0 0.96592771514467268 I I #
point $-1 -1 $-1 0.10206379279646649 0.375 0.10206379279646605 #
coedge $-1 -1 $-1 $398 $600 $599 $608 forward $399 $-1 #
edge $-1 -1 $-1 $521 0 $407 0.125 $403 $609 forward @7 unknown #
convexity-sys-attrib $-1 -1 $-1 $-1 $404 #
vertex $-1 -1 $-1 $404 $610 #
straight-curve $-1 -1 $-1 0.0025022714227319748 0.375 -0.13008136733975476 0.96592771514467268 0 -0.25881199569454294 I I #
straight-curve $-1 -1 $-1 -0.11140314171471255 0.5 -0.067207850600543712 0.25881199569454294 0 -0.96592771514467268 I I #
point $-1 -1 $-1 -0.10206379279646649 0.5 -0.10206379279646605 #
plane-surface $-1 -1 $-1 1.7347234759768071e-018 0.375 -1.7347234759768071e-018 0 1 0 0 0 1 forward_v I I I I #
straight-curve $-1 -1 $-1 -0.1875 0.5 0 0 0 -1 I I #
point $-1 -1 $-1 -0.1875 -0.5 -0.1875 #
straight-curve $-1 -1 $-1 -0.1875 0 -0.1875 0 1 0 I I #
point $-1 -1 $-1 -0.1875 0.5 -0.1875 #
point $-1 -1 $-1 -0.13258252147247765 0.25 0.13258252147247765 #
face $-1 -1 $-1 $456 $611 $29 $-1 $567 reversed single #
loop $-1 -1 $-1 $-1 $449 $432 #
plane-surface $-1 -1 $-1 -0.1875 0 0 1 0 0 0 0 -1 forward_v I I I I #
coedge $-1 -1 $-1 $436 $435 $207 $327 forward $205 $-1 #
coedge $-1 -1 $-1 $612 $613 $435 $536 forward $614 $-1 #
edge $-1 -1 $-1 $451 -2.3561944901923453 $442 -0.7853981633974485 $535 $221 forward @7 unknown #
coedge $-1 -1 $-1 $615 $616 $436 $538 forward $611 $-1 #
edge $-1 -1 $-1 $443 0.7853981633974485 $331 2.3561944901923453 $537 $333 forward @7 unknown #
coedge $-1 -1 $-1 $617 $437 $616 $551 forward $542 $-1 #
coedge $-1 -1 $-1 $437 $617 $612 $618 forward $542 $-1 #
coedge $-1 -1 $-1 $619 $620 $206 $324 reversed $621 $-1 #
loop $-1 -1 $-1 $-1 $437 $576 #
coedge $-1 -1 $-1 $544 $438 $620 $622 reversed $545 $-1 #
coedge $-1 -1 $-1 $438 $543 $464 $467 reversed $545 $-1 #
loop $-1 -1 $-1 $-1 $438 $623 #
coedge $-1 -1 $-1 $547 $440 $465 $348 forward $548 $-1 #
coedge $-1 -1 $-1 $440 $546 $619 $549 reversed $548 $-1 #
loop $-1 -1 $-1 $-1 $440 $624 #
edge $-1 -1 $-1 $442 0 $479 0.1875 $547 $625 forward @7 unknown #
point $-1 -1 $-1 0 0.5 -0.1875 #
edge $-1 -1 $-1 $443 0 $568 0.1875 $616 $626 forward @7 unknown #
point $-1 -1 $-1 0 -0.5 -0.1875 #
coedge $-1 -1 $-1 $481 $445 $448 $556 reversed $554 $-1 #
loop $-1 -1 $-1 $-1 $445 $477 #
coedge $-1 -1 $-1 $448 $447 $562 $627 reversed $450 $-1 #
edge $-1 -1 $-1 $480 -0.1875 $451 0 $553 $628 forward @7 unknown #
coedge $-1 -1 $-1 $629 $449 $613 $560 forward $532 $-1 #
coedge $-1 -1 $-1 $449 $629 $615 $457 reversed $532 $-1 #
face $-1 -1 $-1 $578 $450 $29 $-1 $533 reversed single #
edge $-1 -1 $-1 $451 0 $630 0.1875 $613 $628 forward @7 unknown #
point $-1 -1 $-1 -0.1875 0.5 0 #
coedge $-1 -1 $-1 $453 $470 $555 $627 forward $319 $-1 #
vertex $-1 -1 $-1 $627 $631 #
straight-curve $-1 -1 $-1 0 -0.5 0.1875 1 0 0 I I #
straight-curve $-1 -1 $-1 -0.1875 -0.5 0 0 0 -1 I I #
face $-1 -1 $-1 $623 $463 $29 $-1 $567 reversed single #
plane-surface $-1 -1 $-1 0 -0.5 0 0 1 0 0 0 1 forward_v I I I I #
vertex $-1 -1 $-1 $632 $633 #
vertex $-1 -1 $-1 $575 $634 #
coedge $-1 -1 $-1 $466 $474 $461 $571 forward $475 $-1 #
edge $-1 -1 $-1 $569 -0.1875 $337 0 $570 $574 forward @7 unknown #
coedge $-1 -1 $-1 $465 $464 $635 $580 reversed $433 $-1 #
vertex $-1 -1 $-1 $467 $636 #
straight-curve $-1 -1 $-1 0.1875 -0.5 0 0 0 -1 I I #
edge $-1 -1 $-1 $569 -0.5 $472 0.5 $474 $637 forward @7 unknown #
face $-1 -1 $-1 $559 $542 $29 $-1 $638 reversed single #
point $-1 -1 $-1 0.1875 0.5 0.1875 #
face $-1 -1 $-1 $-1 $475 $29 $-1 $434 reversed single #
face $-1 -1 $-1 $639 $614 $29 $-1 $478 reversed single #
edge $-1 -1 $-1 $479 -0.5 $573 0.5 $572 $640 forward @7 unknown #
point $-1 -1 $-1 0.1875 0.5 -0.1875 #
point $-1 -1 $-1 -0.1875 0.5 0.1875 #
model_id-kcp-attrib $-1 -1 $-1 $-1 $483 1 1021323680 1021323680 -1220345855 10 #
face $641 -1 $-1 $155 $499 $9 $-1 $642 forward single #
loop $-1 -1 $-1 $-1 $643 $483 #
plane-surface $-1 -1 $-1 -3.7151000000000001 3.375 5.4142999999999999 0 -1 0 -0.70710678118654735 0 0.70710678118654735 forward_v I I I I #
loop $-1 -1 $-1 $-1 $644 $353 #
coedge $-1 -1 $-1 $588 $588 $503 $598 reversed $484 $-1 #
attrib_edge_convexity-kcp-attrib $-1 -1 $645 $-1 $486 2 #
straight-curve $-1 -1 $-1 -3.6130362072035336 4.25 5.5163637927964659 0.96592771514467246 0 -0.25881199569454294 I I #
point $-1 -1 $-1 -3.7524564512500853 4.25 5.5537202440465512 #
convexity-sys-attrib $-1 -1 $-1 $491 $361 #
attrib_edge_convexity-kcp-attrib $-1 -1 $646 $-1 $495 2 #
straight-curve $-1 -1 $-1 -3.7524564512500853 4.25 5.5537202440465512 0.70710678118654735 0 0.70710678118654735 I I #
loop $-1 -1 $-1 $-1 $647 $584 #
point $-1 -1 $-1 -3.8476825214724779 4.375 5.5468825214724777 #
coedge $-1 -1 $-1 $597 $597 $647 $648 forward $502 $-1 #
edge $649 -1 $-1 $650 0 $650 6.2831853071795862 $503 $651 forward @7 unknown #
coedge $-1 -1 $-1 $505 $504 $518 $608 reversed $255 $-1 #
coedge $-1 -1 $-1 $518 $510 $506 $601 forward $399 $-1 #
edge $652 -1 $-1 $512 -0.10825499999999993 $602 0.036085000000000082 $506 $653 forward @7 unknown #
vertex $-1 -1 $-1 $601 $654 #
straight-curve $-1 -1 $-1 -0.13942024404655173 0.375 0.037356451250085243 0 1 0 I I #
point $-1 -1 $-1 -0.13942024404655173 0.5 0.037356451250085243 #
convexity-sys-attrib $-1 -1 $-1 $-1 $511 #
straight-curve $-1 -1 $-1 -0.0025022714227319748 0.375 0.13008136733975476 -0.96592771514467268 0 0.25881199569454294 I I #
point $-1 -1 $-1 -0.037356451250085243 0.375 0.13942024404655129 #
edge $655 -1 $-1 $602 -0.10825271934035742 $521 0.036085456136540982 $599 $656 forward @7 unknown #
straight-curve $-1 -1 $-1 -0.10206379279646649 0.375 -0.10206379279646605 0 1 0 I I #
point $-1 -1 $-1 -0.10206379279646649 0.375 -0.10206379279646605 #
loop $-1 -1 $-1 $-1 $537 $531 #
coedge $-1 -1 $-1 $613 $535 $540 $618 reversed $614 $-1 #
coedge $-1 -1 $-1 $535 $612 $557 $560 reversed $614 $-1 #
loop $-1 -1 $-1 $-1 $535 $579 #
coedge $-1 -1 $-1 $616 $537 $558 $457 forward $611 $-1 #
coedge $-1 -1 $-1 $537 $615 $539 $551 reversed $611 $-1 #
coedge $-1 -1 $-1 $540 $539 $629 $632 forward $542 $-1 #
edge $-1 -1 $-1 $630 -0.1875 $442 0 $612 $625 forward @7 unknown #
coedge $-1 -1 $-1 $635 $541 $547 $549 forward $621 $-1 #
coedge $-1 -1 $-1 $541 $635 $543 $622 forward $621 $-1 #
loop $-1 -1 $-1 $-1 $541 $639 #
edge $-1 -1 $-1 $573 -0.1875 $443 0 $543 $626 forward @7 unknown #
face $-1 -1 $-1 $624 $545 $29 $-1 $567 reversed single #
face $-1 -1 $-1 $347 $548 $29 $-1 $478 reversed single #
straight-curve $-1 -1 $-1 0 0.5 -0.1875 1 0 0 I I #
straight-curve $-1 -1 $-1 0 -0.5 -0.1875 -1 0 0 I I #
edge $-1 -1 $-1 $480 -0.5 $563 0.5 $555 $657 forward @7 unknown #
straight-curve $-1 -1 $-1 -0.1875 0.5 0 0 0 -1 I I #
coedge $-1 -1 $-1 $558 $557 $617 $632 reversed $532 $-1 #
vertex $-1 -1 $-1 $618 $658 #
point $-1 -1 $-1 -0.1875 -0.5 0.1875 #
edge $-1 -1 $-1 $568 -0.5 $630 0.5 $629 $659 forward @7 unknown #
point $-1 -1 $-1 -0.1875 -0.5 -0.1875 #
point $-1 -1 $-1 0.1875 -0.5 0.1875 #
coedge $-1 -1 $-1 $620 $619 $572 $580 forward $621 $-1 #
point $-1 -1 $-1 0.1875 -0.5 -0.1875 #
straight-curve $-1 -1 $-1 0.1875 0 0.1875 0 1 0 I I #
plane-surface $-1 -1 $-1 0 0 -0.1875 0 0 1 1 0 0 forward_v I I I I #
face $-1 -1 $-1 $471 $621 $29 $-1 $638 reversed single #
straight-curve $-1 -1 $-1 0.1875 0 -0.1875 0 -1 0 I I #
model_id-kcp-attrib $-1 -1 $-1 $-1 $584 1 1021323680 1021323680 -1220345855 11 #
cone-surface $-1 -1 $-1 -3.7151000000000001 4.25 5.4142999999999999 0 -1 0 -0.13258252147247765 0 0.13258252147247765 1 I I 0 1 0.1875 forward I I I I #
coedge $-1 -1 $-1 $643 $643 $644 $660 forward $585 $-1 #
coedge $-1 -1 $-1 $644 $644 $643 $660 reversed $587 $-1 #
convexity-sys-attrib $-1 -1 $-1 $589 $486 #
convexity-sys-attrib $-1 -1 $-1 $593 $495 #
coedge $-1 -1 $-1 $647 $647 $597 $648 reversed $595 $-1 #
edge $661 -1 $-1 $662 0 $662 6.2831853071795862 $597 $663 forward @7 unknown #
attrib_edge_convexity-kcp-attrib $-1 -1 $664 $-1 $598 2 #
vertex $-1 -1 $-1 $598 $665 #
ellipse-curve $-1 -1 $-1 -3.7151000000000001 4.125 5.4142999999999999 0 1 0 -0.088388347648318419 0 0.088388347648318419 1 I I #
convexity-sys-attrib $-1 -1 $-1 $-1 $601 #
straight-curve $-1 -1 $-1 -0.11390429584743511 0.375 0.062872399449201866 -0.70710678118654757 0 -0.70710678118654757 I I #
point $-1 -1 $-1 -0.13942024404655173 0.375 0.037356451250085243 #
convexity-sys-attrib $-1 -1 $-1 $-1 $608 #
straight-curve $-1 -1 $-1 -0.11140314171471255 0.375 -0.067207850600543712 0.25881199569454294 0 -0.96592771514467268 I I #
straight-curve $-1 -1 $-1 -0.1875 0 0.1875 0 -1 0 I I #
point $-1 -1 $-1 -0.1875 0.5 -0.1875 #
straight-curve $-1 -1 $-1 -0.1875 0 -0.1875 0 1 0 I I #
edge $666 -1 $-1 $667 0 $667 6.2831853071795862 $643 $668 forward @7 unknown #
attrib_edge_convexity-kcp-attrib $-1 -1 $669 $-1 $648 1 #
vertex $-1 -1 $-1 $648 $670 #
ellipse-curve $-1 -1 $-1 -3.7151000000000001 4.125 5.4142999999999999 0 -1 0 -0.13258252147247765 0 0.13258252147247765 1 I I #
convexity-sys-attrib $-1 -1 $-1 $649 $598 #
point $-1 -1 $-1 -3.8034883476483183 4.125 5.5026883476483182 #
attrib_edge_convexity-kcp-attrib $-1 -1 $671 $-1 $660 1 #
vertex $-1 -1 $-1 $660 $672 #
ellipse-curve $-1 -1 $-1 -3.7151000000000001 3.375 5.4142999999999999 0 -1 0 -0.088388347648318419 0 0.088388347648318419 1 I I #
convexity-sys-attrib $-1 -1 $-1 $661 $648 #
point $-1 -1 $-1 -3.8476825214724779 4.125 5.5468825214724777 #
convexity-sys-attrib $-1 -1 $-1 $666 $660 #
point $-1 -1 $-1 -3.8034883476483183 3.375 5.5026883476483182 #
End-of-ACIS-data 