700 0 2 0           
24 FBMach with ACIS - 7.0.3 13 ACIS 7.0.3 NT 24 Mon May 13 17:04:14 2002 
1 9.9999999999999995e-007 1e-010 
body $2 -1 $-1 $3 $-1 $4 #
bdycol-kcp $-1 -1 1 4 $5 $6 $7 $8 #
model_id-kcp-attrib $-1 -1 $-1 $-1 $0 1 1021323853 1021323853 430899201 1 #
lump $-1 -1 $-1 $-1 $9 $0 #
transform $-1 -1 1 0 0 0 1 0 0 0 1 0 0 0 1 rotate no_reflect no_shear #
body $10 -1 $-1 $11 $-1 $12 #
body $13 -1 $-1 $14 $-1 $15 #
body $16 -1 $-1 $17 $-1 $18 #
body $19 -1 $-1 $20 $-1 $21 #
shell $-1 -1 $-1 $-1 $-1 $22 $-1 $3 #
model_id-kcp-attrib $-1 -1 $-1 $-1 $5 1 1021323853 1021323853 430899202 1 #
lump $-1 -1 $-1 $-1 $23 $5 #
transform $-1 -1 1 0 0 0 1 0 0 0 1 4.5990000000000002 -2.21875 6.2981999999999996 1 no_rotate no_reflect no_shear #
rgb_color-st-attrib $-1 -1 $24 $-1 $6 1 0.5 1 #
lump $-1 -1 $-1 $-1 $25 $6 #
transform $-1 -1 1 0 0 0 1 0 0 0 1 4.5990000000000002 -2.21875 6.2981999999999996 1 no_rotate no_reflect no_shear #
rgb_color-st-attrib $-1 -1 $26 $-1 $7 0.5 1 1 #
lump $-1 -1 $-1 $-1 $27 $7 #
transform $-1 -1 1 0 0 0 1 0 0 0 1 4.5990000000000002 -2.21875 6.2981999999999996 1 no_rotate no_reflect no_shear #
rgb_color-st-attrib $-1 -1 $28 $-1 $8 0 0 1 #
lump $-1 -1 $-1 $-1 $29 $8 #
transform $-1 -1 1 0 0 0 1 0 0 0 1 4.5990000000000002 -2.21875 6.2981999999999996 1 no_rotate no_reflect no_shear #
face $30 -1 $-1 $31 $32 $9 $-1 $33 reversed single #
shell $-1 -1 $-1 $-1 $-1 $34 $-1 $11 #
model_id-kcp-attrib $-1 -1 $-1 $13 $6 1 1021323853 1021323854 419954693 1 #
shell $-1 -1 $-1 $-1 $-1 $35 $-1 $14 #
model_id-kcp-attrib $-1 -1 $-1 $16 $7 1 1021323853 1021323854 420282371 1 #
shell $-1 -1 $-1 $-1 $-1 $36 $-1 $17 #
model_id-kcp-attrib $-1 -1 $-1 $19 $8 1 1021323853 1021323854 431423492 1 #
shell $-1 -1 $-1 $-1 $-1 $37 $-1 $20 #
model_id-kcp-attrib $-1 -1 $-1 $-1 $22 1 1021323853 1021323853 430899201 2 #
face $38 -1 $-1 $39 $40 $9 $-1 $41 reversed single #
loop $-1 -1 $-1 $-1 $42 $22 #
plane-surface $-1 -1 $-1 4.5268300000000004 -2.9125100000000002 6.4231999999999996 -0.8660217547228608 0 0.50000632030679104 0 -0.99999999999999989 0 forward_v I I I I #
face $-1 -1 $-1 $43 $44 $23 $-1 $45 forward single #
face $-1 -1 $-1 $46 $47 $25 $-1 $48 forward single #
face $-1 -1 $-1 $49 $50 $27 $-1 $51 reversed single #
face $-1 -1 $-1 $52 $53 $29 $-1 $54 forward single #
model_id-kcp-attrib $-1 -1 $-1 $-1 $31 1 1021323853 1021323853 430899201 3 #
face $55 -1 $-1 $56 $57 $9 $-1 $58 reversed single #
loop $-1 -1 $-1 $-1 $59 $31 #
plane-surface $-1 -1 $-1 4.67117 -2.9125100000000002 6.4231999999999996 0 0 1 0 -0.99999999999999989 0 forward_v I I I I #
coedge $-1 -1 $-1 $60 $61 $62 $63 reversed $32 $-1 #
face $-1 -1 $-1 $64 $65 $23 $-1 $66 reversed single #
loop $-1 -1 $-1 $-1 $67 $34 #
plane-surface $-1 -1 $-1 0 0 0.1875 0 0 1 1 0 0 forward_v I I I I #
face $-1 -1 $-1 $68 $69 $25 $-1 $70 forward single #
loop $-1 -1 $-1 $71 $72 $35 #
cone-surface $-1 -1 $-1 0 -0.40625 0 0 1 0 0.094999999999999987 0 0 1 I I 0 -1 0.094999999999999987 forward I I I I #
face $-1 -1 $-1 $73 $74 $27 $-1 $51 reversed single #
loop $-1 -1 $-1 $-1 $75 $36 #
cone-surface $-1 -1 $-1 0 -0.59375 0 0 -1 0 0.1875 0 0 1 I I 0 1 0.1875 forward I I I I #
face $-1 -1 $-1 $76 $77 $29 $-1 $78 forward single #
loop $-1 -1 $-1 $-1 $79 $37 #
plane-surface $-1 -1 $-1 -0.072169999999999845 -0.50004999999999988 0.125 0 0 1 1 0 0 forward_v I I I I #
model_id-kcp-attrib $-1 -1 $-1 $-1 $39 1 1021323853 1021323853 430899201 4 #
face $80 -1 $-1 $81 $82 $9 $-1 $83 reversed single #
loop $-1 -1 $-1 $-1 $84 $39 #
plane-surface $-1 -1 $-1 4.7433399999999999 -2.9125100000000002 6.2981999999999996 0.8660217547228608 0 0.50000632030679104 0 0.99999999999999989 0 forward_v I I I I #
coedge $-1 -1 $-1 $85 $86 $87 $88 reversed $40 $-1 #
coedge $-1 -1 $-1 $89 $42 $90 $91 forward $32 $-1 #
coedge $-1 -1 $-1 $42 $89 $85 $92 reversed $32 $-1 #
coedge $-1 -1 $-1 $87 $93 $42 $63 forward $94 $-1 #
edge $95 -1 $-1 $96 -0.10825454387499016 $97 0.036083631601908493 $62 $98 forward @7 unknown #
face $99 -1 $-1 $100 $101 $23 $-1 $102 reversed single #
loop $-1 -1 $-1 $-1 $103 $43 #
plane-surface $-1 -1 $-1 0 0 -0.1875 0 0 1 1 0 0 forward_v I I I I #
coedge $-1 -1 $-1 $104 $105 $106 $107 forward $44 $-1 #
face $-1 -1 $-1 $108 $109 $25 $-1 $110 forward single #
loop $-1 -1 $-1 $111 $112 $46 #
cone-surface $-1 -1 $-1 0 -0.40625 0 0 1 0 0.1875 0 0 1 I I 0 1 0.1875 forward I I I I #
loop $-1 -1 $-1 $-1 $113 $35 #
coedge $-1 -1 $-1 $72 $72 $114 $115 forward $47 $-1 #
face $-1 -1 $-1 $116 $117 $27 $-1 $51 reversed single #
loop $-1 -1 $-1 $-1 $118 $49 #
coedge $-1 -1 $-1 $119 $120 $121 $122 reversed $50 $-1 #
face $-1 -1 $-1 $123 $124 $29 $-1 $125 forward single #
loop $-1 -1 $-1 $-1 $126 $52 #
plane-surface $-1 -1 $-1 0.072169999999999845 -0.50004999999999988 0.125 0.8660217547228608 0 0.50000632030679104 0.50000632030679104 0 -0.8660217547228608 forward_v I I I I #
coedge $-1 -1 $-1 $127 $128 $129 $130 forward $53 $-1 #
model_id-kcp-attrib $-1 -1 $-1 $-1 $56 1 1021323853 1021323853 430899201 5 #
face $131 -1 $-1 $132 $133 $9 $-1 $134 reversed single #
loop $-1 -1 $-1 $-1 $135 $56 #
plane-surface $-1 -1 $-1 4.67117 -2.9125100000000002 6.1731999999999996 0.8660217547228608 0 -0.50000632030679104 0 0.99999999999999989 0 forward_v I I I I #
coedge $-1 -1 $-1 $136 $137 $138 $139 reversed $57 $-1 #
coedge $-1 -1 $-1 $140 $59 $61 $92 forward $40 $-1 #
coedge $-1 -1 $-1 $59 $140 $136 $141 reversed $40 $-1 #
coedge $-1 -1 $-1 $138 $62 $59 $88 forward $94 $-1 #
edge $142 -1 $-1 $97 -0.10825499999999978 $143 0.03608499999999993 $87 $144 forward @7 unknown #
coedge $-1 -1 $-1 $61 $60 $145 $146 reversed $32 $-1 #
coedge $-1 -1 $-1 $147 $148 $60 $91 reversed $133 $-1 #
edge $-1 -1 $-1 $96 0.10001000000000017 $149 0.1937100000000003 $90 $150 forward @7 unknown #
edge $-1 -1 $-1 $97 0.10001000000000017 $151 0.1937100000000003 $61 $152 forward @7 unknown #
coedge $-1 -1 $-1 $62 $153 $147 $154 forward $94 $-1 #
loop $-1 -1 $-1 $155 $156 $157 #
attrib_edge_convexity-kcp-attrib $-1 -1 $158 $-1 $63 1 #
vertex $-1 -1 $-1 $63 $159 #
vertex $-1 -1 $-1 $88 $160 #
straight-curve $-1 -1 $-1 4.5087879561394244 -2.8125 6.3919507900433414 0.50000632030679093 0 0.86602175472286069 I I #
model_id-kcp-attrib $-1 -1 $-1 $-1 $64 1 1021323853 1021323853 430899202 2 #
face $-1 -1 $-1 $161 $162 $23 $-1 $163 reversed single #
loop $-1 -1 $-1 $-1 $164 $64 #
plane-surface $-1 -1 $-1 0 -0.59374999999999989 0 0 1 0 0 0 1 forward_v I I I I #
coedge $-1 -1 $-1 $165 $166 $167 $168 forward $65 $-1 #
coedge $-1 -1 $-1 $169 $67 $170 $171 forward $44 $-1 #
coedge $-1 -1 $-1 $67 $169 $172 $173 forward $44 $-1 #
coedge $-1 -1 $-1 $174 $175 $67 $107 reversed $176 $-1 #
edge $-1 -1 $-1 $177 -0.59374999999999989 $178 0.59374999999999989 $106 $179 forward @7 unknown #
face $-1 -1 $-1 $-1 $180 $25 $-1 $181 reversed single #
loop $-1 -1 $-1 $182 $183 $68 #
plane-surface $-1 -1 $-1 -0.0084090909090909043 0.59374999999999978 -5.2161565097312907e-018 0 1 0 0 0 1 forward_v I I I I #
loop $-1 -1 $-1 $-1 $184 $46 #
coedge $-1 -1 $-1 $112 $112 $183 $185 forward $69 $-1 #
coedge $-1 -1 $-1 $113 $113 $186 $187 reversed $71 $-1 #
coedge $-1 -1 $-1 $114 $114 $72 $115 reversed $182 $-1 #
edge $-1 -1 $-1 $188 0 $188 6.2831853071795862 $72 $189 forward @7 unknown #
face $-1 -1 $-1 $190 $191 $27 $-1 $51 reversed single #
loop $-1 -1 $-1 $-1 $192 $73 #
coedge $-1 -1 $-1 $193 $194 $195 $196 reversed $74 $-1 #
coedge $-1 -1 $-1 $197 $75 $198 $199 forward $50 $-1 #
coedge $-1 -1 $-1 $75 $197 $200 $201 reversed $50 $-1 #
coedge $-1 -1 $-1 $202 $203 $75 $122 forward $204 $-1 #
edge $-1 -1 $-1 $205 0 $206 1.5707963267948966 $121 $207 forward @7 unknown #
face $-1 -1 $-1 $208 $209 $29 $-1 $210 forward single #
loop $-1 -1 $-1 $-1 $211 $76 #
plane-surface $-1 -1 $-1 0.14433999999999969 -0.50004999999999988 0 0.8660217547228608 0 -0.50000632030679104 -0.50000632030679104 0 -0.8660217547228608 forward_v I I I I #
coedge $-1 -1 $-1 $212 $213 $214 $215 forward $77 $-1 #
coedge $-1 -1 $-1 $216 $79 $213 $217 reversed $53 $-1 #
coedge $-1 -1 $-1 $79 $216 $218 $219 forward $53 $-1 #
coedge $-1 -1 $-1 $220 $214 $79 $130 reversed $221 $-1 #
edge $-1 -1 $-1 $222 -0.10825499999999977 $223 0.036084999999999923 $79 $224 forward @7 unknown #
model_id-kcp-attrib $-1 -1 $-1 $-1 $81 1 1021323853 1021323853 430899201 6 #
face $225 -1 $-1 $226 $227 $9 $-1 $228 reversed single #
loop $-1 -1 $-1 $-1 $147 $81 #
plane-surface $-1 -1 $-1 4.4546600000000005 -2.9125100000000002 6.2981999999999996 -0.8660217547228608 0 -0.50000632030679104 0 -0.99999999999999989 0 forward_v I I I I #
coedge $-1 -1 $-1 $229 $230 $156 $231 reversed $82 $-1 #
coedge $-1 -1 $-1 $232 $84 $86 $141 forward $57 $-1 #
coedge $-1 -1 $-1 $84 $232 $229 $233 reversed $57 $-1 #
coedge $-1 -1 $-1 $156 $87 $84 $139 forward $94 $-1 #
edge $234 -1 $-1 $143 -0.10825271934035782 $235 0.036085456136540836 $138 $236 forward @7 unknown #
coedge $-1 -1 $-1 $86 $85 $237 $238 reversed $40 $-1 #
edge $-1 -1 $-1 $143 0.10001000000000017 $239 0.1937100000000003 $86 $240 forward @7 unknown #
attrib_edge_convexity-kcp-attrib $-1 -1 $241 $-1 $88 1 #
vertex $-1 -1 $-1 $139 $242 #
straight-curve $-1 -1 $-1 4.6350850000000001 -2.8125 6.4231999999999996 0.99999999999999989 0 0 I I #
coedge $-1 -1 $-1 $243 $237 $89 $146 forward $244 $-1 #
edge $245 -1 $-1 $151 0 $149 0.14433817547689864 $89 $246 forward @7 unknown #
coedge $-1 -1 $-1 $247 $90 $93 $154 reversed $133 $-1 #
coedge $-1 -1 $-1 $90 $247 $243 $248 reversed $133 $-1 #
vertex $-1 -1 $-1 $91 $249 #
straight-curve $-1 -1 $-1 4.4546600000000005 -2.9125100000000002 6.2981999999999996 0 0.99999999999999989 0 I I #
vertex $-1 -1 $-1 $92 $250 #
straight-curve $-1 -1 $-1 4.5268300000000004 -2.9125100000000002 6.4231999999999996 0 0.99999999999999989 0 I I #
coedge $-1 -1 $-1 $93 $156 $251 $252 forward $94 $-1 #
edge $253 -1 $-1 $254 -0.10825271934035782 $96 0.036085456136540836 $93 $255 forward @7 unknown #
loop $-1 -1 $-1 $-1 $256 $157 #
coedge $-1 -1 $-1 $153 $138 $135 $231 forward $94 $-1 #
face $257 -1 $-1 $258 $94 $9 $-1 $259 forward single #
convexity-sys-attrib $-1 -1 $-1 $95 $63 #
point $-1 -1 $-1 4.4546600000000005 -2.8125 6.2981999999999996 #
point $-1 -1 $-1 4.5268300000000004 -2.8125 6.4231999999999996 #
face $260 -1 $-1 $261 $262 $23 $-1 $263 reversed single #
loop $-1 -1 $-1 $-1 $264 $100 #
plane-surface $-1 -1 $-1 -0.1875 0 0 1 0 0 0 0 -1 forward_v I I I I #
coedge $-1 -1 $-1 $265 $172 $266 $267 forward $101 $-1 #
coedge $-1 -1 $-1 $268 $103 $265 $269 forward $65 $-1 #
coedge $-1 -1 $-1 $103 $268 $270 $271 forward $65 $-1 #
coedge $-1 -1 $-1 $175 $174 $103 $168 reversed $176 $-1 #
edge $-1 -1 $-1 $272 -0.59374999999999989 $273 0.59374999999999989 $167 $274 forward @7 unknown #
coedge $-1 -1 $-1 $105 $104 $275 $276 forward $44 $-1 #
coedge $-1 -1 $-1 $277 $278 $104 $171 reversed $262 $-1 #
edge $-1 -1 $-1 $178 -0.1875 $279 0.1875 $170 $280 forward @7 unknown #
coedge $-1 -1 $-1 $164 $281 $105 $173 reversed $101 $-1 #
edge $-1 -1 $-1 $282 -0.1875 $177 0.1875 $172 $283 forward @7 unknown #
coedge $-1 -1 $-1 $167 $106 $281 $284 forward $176 $-1 #
coedge $-1 -1 $-1 $106 $167 $277 $285 reversed $176 $-1 #
loop $-1 -1 $-1 $-1 $174 $261 #
vertex $-1 -1 $-1 $107 $286 #
vertex $-1 -1 $-1 $107 $287 #
straight-curve $-1 -1 $-1 0.1875 0 0.1875 0 1 0 I I #
loop $-1 -1 $-1 $288 $289 $108 #
plane-surface $-1 -1 $-1 -0.0084090909090909043 -0.40625 -5.2161565097312907e-018 0 1 0 0 0 1 forward_v I I I I #
loop $-1 -1 $-1 $-1 $114 $68 #
coedge $-1 -1 $-1 $183 $183 $112 $185 reversed $109 $-1 #
coedge $-1 -1 $-1 $184 $184 $289 $290 reversed $111 $-1 #
edge $-1 -1 $-1 $291 -3.1415926535897931 $291 3.1415926535897931 $112 $292 forward @7 unknown #
coedge $-1 -1 $-1 $186 $186 $113 $187 forward $288 $-1 #
edge $293 -1 $-1 $294 0 $294 6.2831853071795862 $113 $295 forward @7 unknown #
vertex $-1 -1 $-1 $115 $296 #
ellipse-curve $-1 -1 $-1 0 0.59374999999999978 0 0 1 0 0.094999999999999987 0 0 1 I I #
face $-1 -1 $-1 $297 $298 $27 $-1 $299 forward single #
loop $-1 -1 $-1 $-1 $300 $116 #
coedge $-1 -1 $-1 $301 $302 $300 $303 forward $117 $-1 #
coedge $-1 -1 $-1 $304 $118 $305 $306 reversed $74 $-1 #
coedge $-1 -1 $-1 $118 $304 $120 $201 forward $74 $-1 #
coedge $-1 -1 $-1 $307 $308 $118 $196 forward $309 $-1 #
edge $-1 -1 $-1 $310 -3.1415926535897931 $311 -1.5707963267948966 $195 $312 forward @7 unknown #
coedge $-1 -1 $-1 $120 $119 $313 $314 reversed $50 $-1 #
coedge $-1 -1 $-1 $302 $301 $315 $199 reversed $117 $-1 #
edge $-1 -1 $-1 $205 -1.1875 $316 -1.1102230246251565e-016 $315 $317 forward @7 unknown #
coedge $-1 -1 $-1 $318 $319 $320 $201 forward $321 $-1 #
edge $-1 -1 $-1 $206 -1.1875 $311 -1.1102230246251565e-016 $200 $322 forward @7 unknown #
coedge $-1 -1 $-1 $203 $121 $319 $323 reversed $204 $-1 #
coedge $-1 -1 $-1 $121 $202 $324 $325 forward $204 $-1 #
loop $-1 -1 $-1 $-1 $121 $326 #
vertex $-1 -1 $-1 $327 $328 #
vertex $-1 -1 $-1 $329 $330 #
ellipse-curve $-1 -1 $-1 0 0.59375 0 0 -1 0 0.1875 0 0 1 I I #
face $-1 -1 $-1 $331 $332 $29 $-1 $333 forward single #
loop $-1 -1 $-1 $-1 $334 $123 #
plane-surface $-1 -1 $-1 0.072169999999999845 -0.50004999999999988 -0.125 0 0 -1 -1 0 0 forward_v I I I I #
coedge $-1 -1 $-1 $335 $336 $337 $338 forward $124 $-1 #
coedge $-1 -1 $-1 $339 $126 $336 $340 reversed $77 $-1 #
coedge $-1 -1 $-1 $126 $339 $127 $217 forward $77 $-1 #
coedge $-1 -1 $-1 $129 $337 $126 $215 reversed $221 $-1 #
edge $-1 -1 $-1 $223 -0.10825271934035761 $341 0.036085456136541023 $126 $342 forward @7 unknown #
coedge $-1 -1 $-1 $128 $127 $343 $344 reversed $53 $-1 #
edge $345 -1 $-1 $346 0 $223 0.093700000000000117 $213 $347 forward @7 unknown #
coedge $-1 -1 $-1 $348 $349 $128 $219 reversed $350 $-1 #
edge $-1 -1 $-1 $351 0 $222 0.093700000000000117 $128 $352 forward @7 unknown #
coedge $-1 -1 $-1 $353 $129 $349 $354 reversed $221 $-1 #
loop $-1 -1 $-1 $-1 $129 $355 #
vertex $-1 -1 $-1 $219 $356 #
vertex $-1 -1 $-1 $217 $357 #
straight-curve $-1 -1 $-1 0.036084999999999923 -0.59375000000000022 0.125 1 0 0 I I #
model_id-kcp-attrib $-1 -1 $-1 $-1 $132 1 1021323853 1021323853 430899201 7 #
face $358 -1 $-1 $359 $244 $9 $-1 $360 reversed single #
loop $-1 -1 $-1 $-1 $251 $132 #
plane-surface $-1 -1 $-1 4.5268300000000004 -2.9125100000000002 6.1731999999999996 0 0 -1 0 0.99999999999999989 0 forward_v I I I I #
coedge $-1 -1 $-1 $361 $135 $137 $233 forward $82 $-1 #
coedge $-1 -1 $-1 $135 $361 $362 $363 reversed $82 $-1 #
edge $364 -1 $-1 $235 -0.10825454387499016 $365 0.036083631601908493 $156 $366 forward @7 unknown #
coedge $-1 -1 $-1 $137 $136 $367 $368 reversed $57 $-1 #
edge $-1 -1 $-1 $235 0.10001000000000017 $369 0.1937100000000003 $137 $370 forward @7 unknown #
attrib_edge_convexity-kcp-attrib $-1 -1 $371 $-1 $139 1 #
vertex $-1 -1 $-1 $231 $372 #
straight-curve $-1 -1 $-1 4.7252970438605759 -2.8125 6.3294507900433414 0.50000632030679093 0 -0.86602175472286069 I I #
coedge $-1 -1 $-1 $145 $367 $140 $238 forward $244 $-1 #
edge $373 -1 $-1 $239 0 $151 0.14433999999999972 $140 $374 forward @7 unknown #
vertex $-1 -1 $-1 $141 $375 #
straight-curve $-1 -1 $-1 4.67117 -2.9125100000000002 6.4231999999999996 0 0.99999999999999989 0 I I #
convexity-sys-attrib $-1 -1 $-1 $142 $88 #
point $-1 -1 $-1 4.67117 -2.8125 6.4231999999999996 #
coedge $-1 -1 $-1 $376 $145 $148 $248 forward $244 $-1 #
loop $-1 -1 $-1 $-1 $377 $226 #
attrib_edge_convexity-kcp-attrib $-1 -1 $378 $-1 $146 2 #
straight-curve $-1 -1 $-1 4.5268300000000004 -2.7187999999999999 6.4231999999999996 -0.50000632030679082 0 -0.86602175472286058 I I #
coedge $-1 -1 $-1 $148 $147 $379 $380 forward $133 $-1 #
edge $381 -1 $-1 $149 0 $382 0.14433817547689864 $148 $383 forward @7 unknown #
point $-1 -1 $-1 4.4546600000000005 -2.7187999999999999 6.2981999999999996 #
point $-1 -1 $-1 4.5268300000000004 -2.7187999999999999 6.4231999999999996 #
coedge $-1 -1 $-1 $362 $379 $153 $252 reversed $227 $-1 #
edge $384 -1 $-1 $365 -0.10825499999999978 $254 0.03608499999999993 $153 $385 forward @7 unknown #
attrib_edge_convexity-kcp-attrib $-1 -1 $386 $-1 $154 1 #
vertex $-1 -1 $-1 $154 $387 #
straight-curve $-1 -1 $-1 4.4727029561394245 -2.8125 6.2669492099566577 -0.50000632030679093 0 0.86602175472286069 I I #
coedge $-1 -1 $-1 $256 $256 $388 $389 forward $155 $-1 #
model_id-kcp-attrib $-1 -1 $-1 $-1 $157 1 1021323853 1021323853 430899201 11 #
face $390 -1 $-1 $391 $392 $9 $-1 $393 forward single #
plane-surface $-1 -1 $-1 4.5990000000000002 -2.8125 6.2981999999999996 0 -1 0 0.99999999999999989 0 0 forward_v I I I I #
model_id-kcp-attrib $-1 -1 $-1 $-1 $161 1 1021323853 1021323853 430899202 3 #
face $-1 -1 $-1 $-1 $176 $23 $-1 $394 reversed single #
loop $-1 -1 $-1 $-1 $277 $161 #
plane-surface $-1 -1 $-1 0 0.59374999999999989 0 0 -1 0 0 0 -1 forward_v I I I I #
coedge $-1 -1 $-1 $395 $275 $278 $396 forward $162 $-1 #
coedge $-1 -1 $-1 $281 $164 $165 $269 reversed $101 $-1 #
coedge $-1 -1 $-1 $275 $395 $164 $267 reversed $162 $-1 #
edge $-1 -1 $-1 $282 -0.1875 $397 0.1875 $266 $398 forward @7 unknown #
coedge $-1 -1 $-1 $166 $165 $395 $399 forward $65 $-1 #
edge $-1 -1 $-1 $273 -0.1875 $397 0.1875 $265 $400 forward @7 unknown #
coedge $-1 -1 $-1 $278 $277 $166 $271 reversed $262 $-1 #
edge $-1 -1 $-1 $401 -0.1875 $272 0.1875 $270 $402 forward @7 unknown #
vertex $-1 -1 $-1 $168 $403 #
vertex $-1 -1 $-1 $284 $404 #
straight-curve $-1 -1 $-1 0.1875 0 -0.1875 0 -1 0 I I #
coedge $-1 -1 $-1 $264 $266 $169 $276 reversed $162 $-1 #
edge $-1 -1 $-1 $279 -0.59374999999999989 $282 0.59374999999999989 $275 $405 forward @7 unknown #
coedge $-1 -1 $-1 $270 $170 $175 $285 forward $262 $-1 #
coedge $-1 -1 $-1 $170 $270 $264 $396 reversed $262 $-1 #
vertex $-1 -1 $-1 $171 $406 #
straight-curve $-1 -1 $-1 0 0.59374999999999989 0.1875 -1 0 0 I I #
coedge $-1 -1 $-1 $172 $265 $174 $284 reversed $101 $-1 #
vertex $-1 -1 $-1 $276 $407 #
straight-curve $-1 -1 $-1 0 -0.59374999999999989 0.1875 1 0 0 I I #
edge $-1 -1 $-1 $177 -0.1875 $273 0.1875 $174 $408 forward @7 unknown #
edge $-1 -1 $-1 $178 -0.1875 $272 0.1875 $175 $409 forward @7 unknown #
point $-1 -1 $-1 0.1875 -0.59374999999999989 0.1875 #
point $-1 -1 $-1 0.1875 0.59374999999999989 0.1875 #
loop $-1 -1 $-1 $-1 $186 $108 #
coedge $-1 -1 $-1 $289 $289 $184 $290 forward $180 $-1 #
edge $410 -1 $-1 $411 -3.1415926535897931 $411 3.1415926535897931 $184 $412 forward @7 unknown #
vertex $-1 -1 $-1 $185 $413 #
ellipse-curve $-1 -1 $-1 0 0.59374999999999978 0 0 -1 0 0.1875 0 0 1 I I #
convexity-sys-attrib $-1 -1 $-1 $-1 $187 #
vertex $-1 -1 $-1 $187 $414 #
ellipse-curve $-1 -1 $-1 0 -0.40625 0 0 1 0 0.094999999999999987 0 0 1 I I #
point $-1 -1 $-1 0.094999999999999751 0.59374999999999978 0 #
face $-1 -1 $-1 $415 $416 $27 $-1 $417 reversed single #
loop $-1 -1 $-1 $-1 $320 $190 #
plane-surface $-1 -1 $-1 0 0 0.1875 0 0 1 1 0 0 forward_v I I I I #
coedge $-1 -1 $-1 $418 $419 $420 $303 reversed $191 $-1 #
coedge $-1 -1 $-1 $198 $192 $421 $422 reversed $117 $-1 #
coedge $-1 -1 $-1 $192 $198 $423 $424 reversed $117 $-1 #
edge $-1 -1 $-1 $425 -1.1875 $426 -1.1102230246251565e-016 $420 $427 forward @7 unknown #
coedge $-1 -1 $-1 $194 $193 $428 $429 reversed $74 $-1 #
coedge $-1 -1 $-1 $430 $431 $432 $306 forward $433 $-1 #
edge $-1 -1 $-1 $434 -1.1875 $310 -1.1102230246251565e-016 $305 $435 forward @7 unknown #
coedge $-1 -1 $-1 $308 $195 $436 $437 reversed $309 $-1 #
coedge $-1 -1 $-1 $195 $307 $430 $438 forward $309 $-1 #
loop $-1 -1 $-1 $-1 $195 $439 #
vertex $-1 -1 $-1 $440 $441 #
vertex $-1 -1 $-1 $442 $443 #
ellipse-curve $-1 -1 $-1 0 -0.59374999999999989 0 0 1 0 0.1875 0 0 1 I I #
coedge $-1 -1 $-1 $444 $445 $197 $314 forward $446 $-1 #
edge $-1 -1 $-1 $311 -1.5707963267948966 $316 0 $313 $312 forward @7 unknown #
coedge $-1 -1 $-1 $447 $448 $449 $199 forward $416 $-1 #
vertex $-1 -1 $-1 $450 $451 #
straight-curve $-1 -1 $-1 0.1875 -0.59375 0 0 -1 0 I I #
coedge $-1 -1 $-1 $452 $200 $445 $442 forward $321 $-1 #
coedge $-1 -1 $-1 $200 $452 $202 $323 forward $321 $-1 #
coedge $-1 -1 $-1 $453 $436 $194 $201 reversed $298 $-1 #
loop $-1 -1 $-1 $-1 $200 $454 #
straight-curve $-1 -1 $-1 0 -0.59375 0.1875 0 -1 0 I I #
edge $-1 -1 $-1 $455 -0.1875 $206 0 $202 $456 forward @7 unknown #
coedge $-1 -1 $-1 $457 $449 $203 $325 reversed $458 $-1 #
edge $-1 -1 $-1 $455 -0.1875 $205 0 $324 $459 forward @7 unknown #
face $-1 -1 $-1 $460 $204 $27 $-1 $461 reversed single #
edge $-1 -1 $-1 $205 0 $462 0.1875 $448 $459 forward @7 unknown #
point $-1 -1 $-1 0.1875 0.59375 0 #
edge $-1 -1 $-1 $206 0 $463 0.1875 $464 $456 forward @7 unknown #
point $-1 -1 $-1 0 0.59375 0.1875 #
face $-1 -1 $-1 $355 $350 $29 $-1 $465 forward single #
loop $-1 -1 $-1 $-1 $466 $208 #
plane-surface $-1 -1 $-1 -0.072169999999999845 -0.50004999999999988 -0.125 -0.8660217547228608 0 -0.50000632030679104 -0.50000632030679104 0 0.8660217547228608 forward_v I I I I #
coedge $-1 -1 $-1 $467 $468 $469 $470 forward $209 $-1 #
coedge $-1 -1 $-1 $471 $211 $468 $472 reversed $124 $-1 #
coedge $-1 -1 $-1 $211 $471 $212 $340 forward $124 $-1 #
coedge $-1 -1 $-1 $214 $469 $211 $338 reversed $221 $-1 #
edge $-1 -1 $-1 $341 -0.10825454387499035 $473 0.036083631601908292 $211 $474 forward @7 unknown #
coedge $-1 -1 $-1 $213 $212 $475 $476 reversed $77 $-1 #
edge $-1 -1 $-1 $477 0 $341 0.093700000000000117 $336 $478 forward @7 unknown #
vertex $-1 -1 $-1 $340 $479 #
straight-curve $-1 -1 $-1 0.12629704386057572 -0.59375000000000022 0.031250790043342087 0.50000632030679104 0 -0.8660217547228608 I I #
coedge $-1 -1 $-1 $475 $480 $216 $344 forward $481 $-1 #
edge $482 -1 $-1 $351 -0.10825499999999977 $346 0.036084999999999923 $216 $483 forward @7 unknown #
convexity-sys-attrib $-1 -1 $-1 $-1 $217 #
vertex $-1 -1 $-1 $344 $484 #
straight-curve $-1 -1 $-1 0.072169999999999845 -0.50004999999999988 0.125 0 -1 0 I I #
coedge $-1 -1 $-1 $485 $218 $480 $486 reversed $350 $-1 #
coedge $-1 -1 $-1 $218 $485 $220 $354 forward $350 $-1 #
loop $-1 -1 $-1 $-1 $349 $331 #
vertex $-1 -1 $-1 $486 $487 #
straight-curve $-1 -1 $-1 -0.072169999999999845 -0.50004999999999988 0.125 0 -1 0 I I #
coedge $-1 -1 $-1 $469 $220 $466 $488 reversed $221 $-1 #
edge $-1 -1 $-1 $489 -0.10825454387499035 $222 0.036083631601908292 $349 $490 forward @7 unknown #
face $-1 -1 $-1 $491 $221 $29 $-1 $492 reversed single #
point $-1 -1 $-1 -0.072169999999999845 -0.59375 0.125 #
point $-1 -1 $-1 0.072169999999999845 -0.59375 0.125 #
model_id-kcp-attrib $-1 -1 $-1 $-1 $226 1 1021323853 1021323853 430899201 8 #
face $493 -1 $-1 $494 $495 $9 $-1 $496 forward single #
plane-surface $-1 -1 $-1 4.67117 -2.7187999999999999 6.1731999999999996 0 1 0 -0.99999999999999989 0 0 forward_v I I I I #
coedge $-1 -1 $-1 $230 $229 $377 $497 reversed $82 $-1 #
coedge $-1 -1 $-1 $498 $251 $230 $363 forward $227 $-1 #
edge $-1 -1 $-1 $365 0.10001000000000017 $499 0.1937100000000003 $230 $500 forward @7 unknown #
attrib_edge_convexity-kcp-attrib $-1 -1 $501 $-1 $231 1 #
vertex $-1 -1 $-1 $231 $502 #
straight-curve $-1 -1 $-1 4.689212043860576 -2.8125 6.2044492099566577 -0.50000632030679093 0 -0.86602175472286069 I I #
coedge $-1 -1 $-1 $237 $377 $232 $368 forward $244 $-1 #
edge $503 -1 $-1 $369 0 $239 0.14433817547689864 $232 $504 forward @7 unknown #
vertex $-1 -1 $-1 $233 $505 #
straight-curve $-1 -1 $-1 4.7433399999999999 -2.9125100000000002 6.2981999999999996 0 0.99999999999999989 0 I I #
convexity-sys-attrib $-1 -1 $-1 $234 $139 #
point $-1 -1 $-1 4.7433399999999999 -2.8125 6.2981999999999996 #
attrib_edge_convexity-kcp-attrib $-1 -1 $506 $-1 $238 2 #
straight-curve $-1 -1 $-1 4.67117 -2.7187999999999999 6.4231999999999996 -0.99999999999999989 0 0 I I #
point $-1 -1 $-1 4.67117 -2.7187999999999999 6.4231999999999996 #
coedge $-1 -1 $-1 $377 $243 $498 $507 forward $244 $-1 #
coedge $-1 -1 $-1 $367 $376 $361 $497 forward $244 $-1 #
convexity-sys-attrib $-1 -1 $-1 $245 $146 #
coedge $-1 -1 $-1 $251 $498 $247 $380 reversed $227 $-1 #
edge $-1 -1 $-1 $254 0.10001000000000017 $382 0.1937100000000003 $379 $508 forward @7 unknown #
attrib_edge_convexity-kcp-attrib $-1 -1 $509 $-1 $248 2 #
vertex $-1 -1 $-1 $380 $510 #
straight-curve $-1 -1 $-1 4.4546600000000005 -2.7187999999999999 6.2981999999999996 0.50000632030679082 0 -0.86602175472286058 I I #
attrib_edge_convexity-kcp-attrib $-1 -1 $511 $-1 $252 1 #
straight-curve $-1 -1 $-1 4.5629150000000003 -2.8125 6.1731999999999996 -0.99999999999999989 0 0 I I #
convexity-sys-attrib $-1 -1 $-1 $253 $154 #
point $-1 -1 $-1 4.5268300000000004 -2.8125 6.1731999999999996 #
coedge $-1 -1 $-1 $388 $388 $256 $389 reversed $512 $-1 #
edge $513 -1 $-1 $514 0 $514 6.2831853071795862 $256 $515 forward @7 unknown #
model_id-kcp-attrib $-1 -1 $-1 $-1 $258 1 1021323853 1021323853 430899201 12 #
face $516 -1 $-1 $-1 $517 $9 $-1 $518 forward single #
loop $-1 -1 $-1 $519 $520 $258 #
cone-surface $-1 -1 $-1 4.5990000000000002 -2.125 6.2981999999999996 0 -1 0 0.094999999999999987 0 0 1 I I 0 1 0.094999999999999987 forward I I I I #
plane-surface $-1 -1 $-1 0.1875 0 0 -1 0 0 0 0 1 forward_v I I I I #
coedge $-1 -1 $-1 $266 $264 $268 $399 reversed $162 $-1 #
edge $-1 -1 $-1 $279 -0.1875 $401 0.1875 $278 $521 forward @7 unknown #
vertex $-1 -1 $-1 $399 $522 #
straight-curve $-1 -1 $-1 -0.1875 -0.59374999999999989 0 0 0 -1 I I #
edge $-1 -1 $-1 $397 -0.59374999999999989 $401 0.59374999999999989 $395 $523 forward @7 unknown #
straight-curve $-1 -1 $-1 0 -0.59374999999999989 -0.1875 -1 0 0 I I #
vertex $-1 -1 $-1 $271 $524 #
straight-curve $-1 -1 $-1 0 0.59374999999999989 -0.1875 1 0 0 I I #
point $-1 -1 $-1 0.1875 0.59374999999999989 -0.1875 #
point $-1 -1 $-1 0.1875 -0.59374999999999989 -0.1875 #
straight-curve $-1 -1 $-1 -0.1875 0 0.1875 0 -1 0 I I #
point $-1 -1 $-1 -0.1875 0.59374999999999989 0.1875 #
point $-1 -1 $-1 -0.1875 -0.59374999999999989 0.1875 #
straight-curve $-1 -1 $-1 0.1875 -0.59374999999999989 0 0 0 -1 I I #
straight-curve $-1 -1 $-1 0.1875 0.59374999999999989 0 0 0 -1 I I #
convexity-sys-attrib $-1 -1 $-1 $-1 $290 #
vertex $-1 -1 $-1 $290 $525 #
ellipse-curve $-1 -1 $-1 0 -0.40625 0 0 -1 0 0.1875 0 0 1 I I #
point $-1 -1 $-1 -0.1875 0.59374999999999978 -2.2961369134169574e-017 #
point $-1 -1 $-1 0.094999999999999751 -0.40625 0 #
face $-1 -1 $-1 $526 $527 $27 $-1 $528 reversed single #
loop $-1 -1 $-1 $-1 $315 $297 #
plane-surface $-1 -1 $-1 0.1875 0 0 -1 0 0 0 0 1 forward_v I I I I #
coedge $-1 -1 $-1 $529 $300 $530 $531 reversed $191 $-1 #
coedge $-1 -1 $-1 $300 $529 $532 $533 reversed $191 $-1 #
coedge $-1 -1 $-1 $534 $535 $536 $303 forward $537 $-1 #
coedge $-1 -1 $-1 $538 $539 $301 $422 forward $540 $-1 #
edge $-1 -1 $-1 $316 0 $426 1.5707963267948966 $421 $312 forward @7 unknown #
coedge $-1 -1 $-1 $541 $542 $302 $424 forward $543 $-1 #
edge $-1 -1 $-1 $425 -1.5707963267948966 $205 0 $423 $207 forward @7 unknown #
vertex $-1 -1 $-1 $544 $545 #
vertex $-1 -1 $-1 $546 $547 #
straight-curve $-1 -1 $-1 0 -0.59375 -0.1875 0 -1 0 I I #
coedge $-1 -1 $-1 $548 $464 $304 $429 forward $549 $-1 #
edge $-1 -1 $-1 $206 1.5707963267948966 $434 3.1415926535897931 $428 $207 forward @7 unknown #
coedge $-1 -1 $-1 $550 $305 $308 $438 reversed $433 $-1 #
coedge $-1 -1 $-1 $305 $550 $548 $551 forward $433 $-1 #
coedge $-1 -1 $-1 $552 $553 $529 $306 reversed $527 $-1 #
loop $-1 -1 $-1 $-1 $305 $554 #
vertex $-1 -1 $-1 $555 $556 #
straight-curve $-1 -1 $-1 -0.1875 -0.59375 0 0 -1 0 I I #
coedge $-1 -1 $-1 $320 $557 $307 $437 forward $298 $-1 #
edge $-1 -1 $-1 $558 -0.1875 $311 0 $307 $559 forward @7 unknown #
edge $-1 -1 $-1 $558 -0.1875 $310 0 $430 $560 forward @7 unknown #
face $-1 -1 $-1 $561 $309 $27 $-1 $562 reversed single #
edge $-1 -1 $-1 $310 0 $563 0.1875 $553 $560 forward @7 unknown #
point $-1 -1 $-1 -0.1875 -0.59374999999999989 0 #
edge $-1 -1 $-1 $311 0 $564 0.1875 $445 $559 forward @7 unknown #
point $-1 -1 $-1 0 -0.59374999999999989 0.1875 #
coedge $-1 -1 $-1 $445 $313 $565 $566 reversed $446 $-1 #
coedge $-1 -1 $-1 $313 $444 $318 $442 reversed $446 $-1 #
loop $-1 -1 $-1 $-1 $313 $561 #
coedge $-1 -1 $-1 $567 $315 $539 $450 forward $416 $-1 #
coedge $-1 -1 $-1 $315 $567 $541 $327 reversed $416 $-1 #
coedge $-1 -1 $-1 $324 $565 $119 $199 reversed $458 $-1 #
edge $-1 -1 $-1 $316 0 $568 0.1875 $447 $569 forward @7 unknown #
point $-1 -1 $-1 0.1875 -0.59374999999999989 0 #
coedge $-1 -1 $-1 $319 $318 $457 $570 forward $321 $-1 #
coedge $-1 -1 $-1 $557 $320 $464 $329 forward $298 $-1 #
face $-1 -1 $-1 $571 $321 $27 $-1 $299 forward single #
vertex $-1 -1 $-1 $570 $572 #
straight-curve $-1 -1 $-1 0 0.59374999999999989 0.1875 -1 0 0 I I #
coedge $-1 -1 $-1 $565 $324 $452 $570 reversed $458 $-1 #
loop $-1 -1 $-1 $-1 $449 $573 #
straight-curve $-1 -1 $-1 0.1875 0.59374999999999989 0 0 0 -1 I I #
face $-1 -1 $-1 $574 $549 $27 $-1 $461 reversed single #
plane-surface $-1 -1 $-1 0 0.59374999999999989 0 0 -1 0 0 0 -1 forward_v I I I I #
vertex $-1 -1 $-1 $575 $576 #
vertex $-1 -1 $-1 $329 $577 #
coedge $-1 -1 $-1 $428 $548 $453 $329 reversed $549 $-1 #
plane-surface $-1 -1 $-1 -0.14433999999999969 -0.50004999999999988 0 -0.8660217547228608 0 0.50000632030679104 0.50000632030679104 0 0.8660217547228608 forward_v I I I I #
coedge $-1 -1 $-1 $578 $579 $353 $488 forward $332 $-1 #
coedge $-1 -1 $-1 $580 $334 $579 $581 reversed $209 $-1 #
coedge $-1 -1 $-1 $334 $580 $335 $472 forward $209 $-1 #
coedge $-1 -1 $-1 $337 $353 $334 $470 reversed $221 $-1 #
edge $-1 -1 $-1 $473 -0.10825499999999977 $582 0.036084999999999923 $334 $583 forward @7 unknown #
coedge $-1 -1 $-1 $336 $335 $584 $585 reversed $124 $-1 #
edge $-1 -1 $-1 $586 0 $473 0.093700000000000117 $468 $587 forward @7 unknown #
vertex $-1 -1 $-1 $472 $588 #
straight-curve $-1 -1 $-1 0.090212043860575852 -0.59375000000000022 -0.093750790043342122 -0.50000632030679104 0 -0.8660217547228608 I I #
coedge $-1 -1 $-1 $584 $343 $339 $476 forward $481 $-1 #
edge $589 -1 $-1 $346 -0.10825271934035761 $477 0.036085456136541023 $339 $590 forward @7 unknown #
vertex $-1 -1 $-1 $476 $591 #
straight-curve $-1 -1 $-1 0.14433999999999969 -0.50004999999999988 0 0 -1 0 I I #
point $-1 -1 $-1 0.14433999999999969 -0.59375 0 #
coedge $-1 -1 $-1 $343 $592 $348 $486 forward $481 $-1 #
loop $-1 -1 $-1 $-1 $480 $491 #
convexity-sys-attrib $-1 -1 $-1 $-1 $344 #
straight-curve $-1 -1 $-1 0.036084999999999923 -0.50005000000000011 0.125 1 0 0 I I #
point $-1 -1 $-1 0.072169999999999845 -0.50004999999999988 0.125 #
coedge $-1 -1 $-1 $349 $348 $578 $593 forward $350 $-1 #
edge $594 -1 $-1 $595 -0.10825454387499035 $351 0.036083631601908292 $348 $596 forward @7 unknown #
point $-1 -1 $-1 -0.072169999999999845 -0.50004999999999988 0.125 #
edge $-1 -1 $-1 $582 -0.10825271934035761 $489 0.036085456136541023 $466 $597 forward @7 unknown #
vertex $-1 -1 $-1 $593 $598 #
straight-curve $-1 -1 $-1 -0.090212043860575852 -0.59375000000000022 0.093750790043342122 0.50000632030679104 0 0.8660217547228608 I I #
face $-1 -1 $-1 $-1 $481 $29 $-1 $599 forward single #
plane-surface $-1 -1 $-1 -3.8899895203321101e-018 -0.59375000000000011 0 -4.1331139236078625e-031 1 -1.8894871981341624e-031 0 1.8894871981341624e-031 1 forward_v I I I I #
model_id-kcp-attrib $-1 -1 $-1 $-1 $359 1 1021323853 1021323853 430899201 9 #
face $600 -1 $-1 $157 $601 $9 $-1 $602 forward single #
loop $-1 -1 $-1 $603 $604 $359 #
plane-surface $-1 -1 $-1 4.5990000000000002 -2.625 6.2981999999999996 0 1 0 -0.99999999999999989 0 0 forward_v I I I I #
edge $605 -1 $-1 $499 0 $369 0.14433817547689864 $361 $606 forward @7 unknown #
coedge $-1 -1 $-1 $379 $362 $376 $507 reversed $227 $-1 #
vertex $-1 -1 $-1 $363 $607 #
straight-curve $-1 -1 $-1 4.67117 -2.9125100000000002 6.1731999999999996 0 0.99999999999999989 0 I I #
convexity-sys-attrib $-1 -1 $-1 $364 $231 #
point $-1 -1 $-1 4.67117 -2.8125 6.1731999999999996 #
attrib_edge_convexity-kcp-attrib $-1 -1 $608 $-1 $368 2 #
straight-curve $-1 -1 $-1 4.7433399999999999 -2.7187999999999999 6.2981999999999996 -0.50000632030679082 0 0.86602175472286058 I I #
point $-1 -1 $-1 4.7433399999999999 -2.7187999999999999 6.2981999999999996 #
convexity-sys-attrib $-1 -1 $-1 $373 $238 #
edge $609 -1 $-1 $382 0 $499 0.14433999999999972 $498 $610 forward @7 unknown #
straight-curve $-1 -1 $-1 4.5268300000000004 -2.9125100000000002 6.1731999999999996 0 0.99999999999999989 0 I I #
convexity-sys-attrib $-1 -1 $-1 $381 $248 #
point $-1 -1 $-1 4.5268300000000004 -2.7187999999999999 6.1731999999999996 #
convexity-sys-attrib $-1 -1 $-1 $384 $252 #
loop $-1 -1 $-1 $-1 $388 $494 #
attrib_edge_convexity-kcp-attrib $-1 -1 $611 $-1 $389 1 #
vertex $-1 -1 $-1 $389 $612 #
ellipse-curve $-1 -1 $-1 4.5990000000000002 -2.8125 6.2981999999999996 0 -1 0 0.1875 0 0 1 I I #
model_id-kcp-attrib $-1 -1 $-1 $-1 $391 1 1021323853 1021323853 430899201 13 #
loop $-1 -1 $-1 $-1 $613 $391 #
plane-surface $-1 -1 $-1 4.5990000000000002 -1.6250000000000002 6.2981999999999996 0 1 0 -0.99999999999999989 0 0 forward_v I I I I #
loop $-1 -1 $-1 $-1 $614 $258 #
coedge $-1 -1 $-1 $520 $520 $613 $615 reversed $392 $-1 #
straight-curve $-1 -1 $-1 -0.1875 0.59374999999999989 0 0 0 -1 I I #
point $-1 -1 $-1 -0.1875 -0.59374999999999989 -0.1875 #
straight-curve $-1 -1 $-1 -0.1875 0 -0.1875 0 1 0 I I #
point $-1 -1 $-1 -0.1875 0.59374999999999989 -0.1875 #
point $-1 -1 $-1 -0.1875 -0.40625 -2.2961369134169574e-017 #
face $-1 -1 $-1 $439 $616 $27 $-1 $562 reversed single #
loop $-1 -1 $-1 $-1 $432 $415 #
plane-surface $-1 -1 $-1 -0.1875 0 0 1 0 0 0 0 -1 forward_v I I I I #
coedge $-1 -1 $-1 $419 $418 $193 $306 forward $191 $-1 #
coedge $-1 -1 $-1 $617 $618 $418 $531 forward $619 $-1 #
edge $-1 -1 $-1 $434 -3.1415926535897931 $425 -1.5707963267948966 $530 $207 forward @7 unknown #
coedge $-1 -1 $-1 $620 $621 $419 $533 forward $616 $-1 #
edge $-1 -1 $-1 $426 1.5707963267948966 $310 3.1415926535897931 $532 $312 forward @7 unknown #
coedge $-1 -1 $-1 $622 $420 $621 $546 forward $537 $-1 #
coedge $-1 -1 $-1 $420 $622 $617 $623 forward $537 $-1 #
coedge $-1 -1 $-1 $624 $625 $192 $303 reversed $626 $-1 #
loop $-1 -1 $-1 $-1 $420 $571 #
coedge $-1 -1 $-1 $539 $421 $625 $627 reversed $540 $-1 #
coedge $-1 -1 $-1 $421 $538 $447 $450 reversed $540 $-1 #
loop $-1 -1 $-1 $-1 $421 $628 #
coedge $-1 -1 $-1 $542 $423 $448 $327 forward $543 $-1 #
coedge $-1 -1 $-1 $423 $541 $624 $544 reversed $543 $-1 #
loop $-1 -1 $-1 $-1 $423 $629 #
edge $-1 -1 $-1 $425 0 $462 0.1875 $542 $630 forward @7 unknown #
point $-1 -1 $-1 0 0.59375 -0.1875 #
edge $-1 -1 $-1 $426 0 $563 0.1875 $621 $631 forward @7 unknown #
point $-1 -1 $-1 0 -0.59374999999999989 -0.1875 #
coedge $-1 -1 $-1 $464 $428 $431 $551 reversed $549 $-1 #
loop $-1 -1 $-1 $-1 $428 $460 #
coedge $-1 -1 $-1 $431 $430 $557 $632 reversed $433 $-1 #
edge $-1 -1 $-1 $463 -0.1875 $434 0 $548 $633 forward @7 unknown #
coedge $-1 -1 $-1 $634 $432 $618 $555 forward $527 $-1 #
coedge $-1 -1 $-1 $432 $634 $620 $440 reversed $527 $-1 #
face $-1 -1 $-1 $573 $433 $27 $-1 $528 reversed single #
edge $-1 -1 $-1 $434 0 $635 0.1875 $618 $633 forward @7 unknown #
point $-1 -1 $-1 -0.1875 0.59375 0 #
coedge $-1 -1 $-1 $436 $453 $550 $632 forward $298 $-1 #
vertex $-1 -1 $-1 $632 $636 #
straight-curve $-1 -1 $-1 0 -0.59374999999999989 0.1875 1 0 0 I I #
straight-curve $-1 -1 $-1 -0.1875 -0.59374999999999989 0 0 0 -1 I I #
face $-1 -1 $-1 $628 $446 $27 $-1 $562 reversed single #
plane-surface $-1 -1 $-1 0 -0.59374999999999989 0 0 1 0 0 0 1 forward_v I I I I #
vertex $-1 -1 $-1 $637 $638 #
vertex $-1 -1 $-1 $570 $639 #
coedge $-1 -1 $-1 $449 $457 $444 $566 forward $458 $-1 #
edge $-1 -1 $-1 $564 -0.1875 $316 0 $565 $569 forward @7 unknown #
coedge $-1 -1 $-1 $448 $447 $640 $575 reversed $416 $-1 #
vertex $-1 -1 $-1 $450 $641 #
straight-curve $-1 -1 $-1 0.1875 -0.59374999999999989 0 0 0 -1 I I #
edge $-1 -1 $-1 $564 -0.59374999999999989 $455 0.59374999999999989 $457 $642 forward @7 unknown #
face $-1 -1 $-1 $554 $537 $27 $-1 $643 reversed single #
point $-1 -1 $-1 0.1875 0.59374999999999989 0.1875 #
face $-1 -1 $-1 $-1 $458 $27 $-1 $417 reversed single #
face $-1 -1 $-1 $644 $619 $27 $-1 $461 reversed single #
edge $-1 -1 $-1 $462 -0.59374999999999989 $568 0.59374999999999989 $567 $645 forward @7 unknown #
point $-1 -1 $-1 0.1875 0.59374999999999989 -0.1875 #
point $-1 -1 $-1 -0.1875 0.59374999999999989 0.1875 #
coedge $-1 -1 $-1 $646 $466 $485 $593 reversed $332 $-1 #
coedge $-1 -1 $-1 $466 $646 $467 $581 forward $332 $-1 #
coedge $-1 -1 $-1 $468 $467 $647 $648 reversed $209 $-1 #
edge $-1 -1 $-1 $649 0 $582 0.093700000000000117 $579 $650 forward @7 unknown #
vertex $-1 -1 $-1 $581 $651 #
straight-curve $-1 -1 $-1 -0.036084999999999923 -0.59375000000000022 -0.125 -1 0 0 I I #
coedge $-1 -1 $-1 $647 $475 $471 $585 forward $481 $-1 #
edge $652 -1 $-1 $477 -0.10825454387499035 $586 0.036083631601908292 $471 $653 forward @7 unknown #
vertex $-1 -1 $-1 $585 $654 #
straight-curve $-1 -1 $-1 0.072169999999999845 -0.50004999999999988 -0.125 0 -1 0 I I #
point $-1 -1 $-1 0.072169999999999845 -0.59375 -0.125 #
convexity-sys-attrib $-1 -1 $-1 $-1 $476 #
straight-curve $-1 -1 $-1 0.12629704386057572 -0.50005000000000011 0.031250790043342087 0.50000632030679104 0 -0.8660217547228608 I I #
point $-1 -1 $-1 0.14433999999999969 -0.50004999999999988 0 #
coedge $-1 -1 $-1 $480 $647 $646 $655 forward $481 $-1 #
edge $-1 -1 $-1 $595 0 $489 0.093700000000000117 $485 $656 forward @7 unknown #
convexity-sys-attrib $-1 -1 $-1 $-1 $486 #
vertex $-1 -1 $-1 $486 $657 #
straight-curve $-1 -1 $-1 -0.090212043860575852 -0.50005000000000011 0.093750790043342122 0.50000632030679104 0 0.8660217547228608 I I #
straight-curve $-1 -1 $-1 -0.12629704386057572 -0.59375000000000022 -0.031250790043342087 -0.50000632030679104 0 0.8660217547228608 I I #
point $-1 -1 $-1 -0.14433999999999969 -0.59375 0 #
plane-surface $-1 -1 $-1 -3.8899895203321101e-018 -0.50004999999999999 0 -4.1331139236078625e-031 1 -1.8894871981341624e-031 0 1.8894871981341624e-031 1 forward_v I I I I #
model_id-kcp-attrib $-1 -1 $-1 $-1 $494 1 1021323853 1021323853 430899201 10 #
loop $-1 -1 $-1 $512 $658 $494 #
cone-surface $-1 -1 $-1 4.5990000000000002 -2.71875 6.2981999999999996 0 -1 0 0.1875 0 0 1 I I 0 1 0.1875 forward I I I I #
loop $-1 -1 $-1 $-1 $659 $359 #
coedge $-1 -1 $-1 $604 $604 $658 $660 forward $495 $-1 #
attrib_edge_convexity-kcp-attrib $-1 -1 $661 $-1 $497 2 #
straight-curve $-1 -1 $-1 4.67117 -2.7187999999999999 6.1731999999999996 0.50000632030679082 0 0.86602175472286058 I I #
point $-1 -1 $-1 4.67117 -2.7187999999999999 6.1731999999999996 #
convexity-sys-attrib $-1 -1 $-1 $503 $368 #
attrib_edge_convexity-kcp-attrib $-1 -1 $662 $-1 $507 2 #
straight-curve $-1 -1 $-1 4.5268300000000004 -2.7187999999999999 6.1731999999999996 0.99999999999999989 0 0 I I #
convexity-sys-attrib $-1 -1 $-1 $513 $389 #
point $-1 -1 $-1 4.7865000000000002 -2.8125 6.2981999999999996 #
coedge $-1 -1 $-1 $613 $613 $520 $615 forward $517 $-1 #
coedge $-1 -1 $-1 $614 $614 $659 $663 forward $519 $-1 #
edge $-1 -1 $-1 $664 0 $664 6.2831853071795862 $613 $665 forward @7 unknown #
loop $-1 -1 $-1 $-1 $532 $526 #
coedge $-1 -1 $-1 $618 $530 $535 $623 reversed $619 $-1 #
coedge $-1 -1 $-1 $530 $617 $552 $555 reversed $619 $-1 #
loop $-1 -1 $-1 $-1 $530 $574 #
coedge $-1 -1 $-1 $621 $532 $553 $440 forward $616 $-1 #
coedge $-1 -1 $-1 $532 $620 $534 $546 reversed $616 $-1 #
coedge $-1 -1 $-1 $535 $534 $634 $637 forward $537 $-1 #
edge $-1 -1 $-1 $635 -0.1875 $425 0 $617 $630 forward @7 unknown #
coedge $-1 -1 $-1 $640 $536 $542 $544 forward $626 $-1 #
coedge $-1 -1 $-1 $536 $640 $538 $627 forward $626 $-1 #
loop $-1 -1 $-1 $-1 $536 $644 #
edge $-1 -1 $-1 $568 -0.1875 $426 0 $538 $631 forward @7 unknown #
face $-1 -1 $-1 $629 $540 $27 $-1 $562 reversed single #
face $-1 -1 $-1 $326 $543 $27 $-1 $461 reversed single #
straight-curve $-1 -1 $-1 0 0.59374999999999989 -0.1875 1 0 0 I I #
straight-curve $-1 -1 $-1 0 -0.59374999999999989 -0.1875 -1 0 0 I I #
edge $-1 -1 $-1 $463 -0.59374999999999989 $558 0.59374999999999989 $550 $666 forward @7 unknown #
straight-curve $-1 -1 $-1 -0.1875 0.59374999999999989 0 0 0 -1 I I #
coedge $-1 -1 $-1 $553 $552 $622 $637 reversed $527 $-1 #
vertex $-1 -1 $-1 $623 $667 #
point $-1 -1 $-1 -0.1875 -0.59374999999999989 0.1875 #
edge $-1 -1 $-1 $563 -0.59374999999999989 $635 0.59374999999999989 $634 $668 forward @7 unknown #
point $-1 -1 $-1 -0.1875 -0.59374999999999989 -0.1875 #
point $-1 -1 $-1 0.1875 -0.59374999999999989 0.1875 #
coedge $-1 -1 $-1 $625 $624 $567 $575 forward $626 $-1 #
point $-1 -1 $-1 0.1875 -0.59374999999999989 -0.1875 #
straight-curve $-1 -1 $-1 0.1875 0 0.1875 0 1 0 I I #
plane-surface $-1 -1 $-1 0 0 -0.1875 0 0 1 1 0 0 forward_v I I I I #
face $-1 -1 $-1 $454 $626 $27 $-1 $643 reversed single #
straight-curve $-1 -1 $-1 0.1875 0 -0.1875 0 -1 0 I I #
coedge $-1 -1 $-1 $579 $578 $592 $655 reversed $332 $-1 #
coedge $-1 -1 $-1 $592 $584 $580 $648 forward $481 $-1 #
edge $669 -1 $-1 $586 -0.10825499999999977 $649 0.036084999999999923 $580 $670 forward @7 unknown #
vertex $-1 -1 $-1 $648 $671 #
straight-curve $-1 -1 $-1 -0.072169999999999845 -0.50004999999999988 -0.125 0 -1 0 I I #
point $-1 -1 $-1 -0.072169999999999845 -0.59375 -0.125 #
convexity-sys-attrib $-1 -1 $-1 $-1 $585 #
straight-curve $-1 -1 $-1 0.090212043860575852 -0.50005000000000011 -0.093750790043342122 -0.50000632030679104 0 -0.8660217547228608 I I #
point $-1 -1 $-1 0.072169999999999845 -0.50004999999999988 -0.125 #
edge $672 -1 $-1 $649 -0.10825271934035761 $595 0.036085456136541023 $646 $673 forward @7 unknown #
straight-curve $-1 -1 $-1 -0.14433999999999969 -0.50004999999999988 0 0 -1 0 I I #
point $-1 -1 $-1 -0.14433999999999969 -0.50004999999999988 0 #
coedge $-1 -1 $-1 $658 $658 $604 $660 reversed $601 $-1 #
coedge $-1 -1 $-1 $659 $659 $614 $663 reversed $603 $-1 #
edge $674 -1 $-1 $675 0 $675 6.2831853071795862 $604 $676 forward @7 unknown #
convexity-sys-attrib $-1 -1 $-1 $605 $497 #
convexity-sys-attrib $-1 -1 $-1 $609 $507 #
edge $677 -1 $-1 $678 -6.2831853071795862 $678 0 $614 $679 reversed @7 unknown #
vertex $-1 -1 $-1 $615 $680 #
ellipse-curve $-1 -1 $-1 4.5990000000000002 -1.6250000000000002 6.2981999999999996 0 1 0 0.094999999999999987 0 0 1 I I #
straight-curve $-1 -1 $-1 -0.1875 0 0.1875 0 -1 0 I I #
point $-1 -1 $-1 -0.1875 0.59374999999999989 -0.1875 #
straight-curve $-1 -1 $-1 -0.1875 0 -0.1875 0 1 0 I I #
convexity-sys-attrib $-1 -1 $-1 $-1 $648 #
straight-curve $-1 -1 $-1 -0.036084999999999923 -0.50005000000000011 -0.125 -1 0 0 I I #
point $-1 -1 $-1 -0.072169999999999845 -0.50004999999999988 -0.125 #
convexity-sys-attrib $-1 -1 $-1 $-1 $655 #
straight-curve $-1 -1 $-1 -0.12629704386057572 -0.50005000000000011 -0.031250790043342087 -0.50000632030679104 0 0.8660217547228608 I I #
attrib_edge_convexity-kcp-attrib $-1 -1 $681 $-1 $660 1 #
vertex $-1 -1 $-1 $660 $682 #
ellipse-curve $-1 -1 $-1 4.5990000000000002 -2.625 6.2981999999999996 0 1 0 0.1875 0 0 1 I I #
attrib_edge_convexity-kcp-attrib $-1 -1 $683 $-1 $663 2 #
vertex $-1 -1 $-1 $663 $684 #
ellipse-curve $-1 -1 $-1 4.5990000000000002 -2.625 6.2981999999999996 0 -1 0 0.094999999999999987 0 0 1 I I #
point $-1 -1 $-1 4.694 -1.6250000000000002 6.2981999999999996 #
convexity-sys-attrib $-1 -1 $-1 $674 $660 #
point $-1 -1 $-1 4.7865000000000002 -2.625 6.2981999999999996 #
convexity-sys-attrib $-1 -1 $-1 $677 $663 #
point $-1 -1 $-1 4.694 -2.625 6.2981999999999996 #
End-of-ACIS-data 