600 0 1 0           
103 GICL ACIS Healer - Source: /gicl/data5/repository/CMU/spectrometer/spacer_223_v2_front_shorts.sat - 6 0 18 ACIS 6.0.3 Solaris 24 Sat Apr 13 00:30:43 2002 
1 9.999999999999999547e-07 1.000000000000000036e-10 
body $-1 $1 $-1 $-1 #
lump $-1 $-1 $2 $0 #
shell $-1 $-1 $-1 $3 $-1 $1 #
face $-1 $4 $5 $2 $-1 $6 reversed single #
face $-1 $7 $8 $2 $-1 $9 forward single #
loop $-1 $10 $11 $3 #
cone-surface $-1 0 -4.358500000000000263 7.135400000038921497 0 -1 0 -0.1325825214724776768 0 -0.1325825214724776768 1 I I 0 1 0.1875000000000000555 forward I I I I #
face $-1 $12 $13 $2 $-1 $14 forward single #
loop $-1 $15 $16 $4 #
cone-surface $-1 0 -4.358500000000000263 7.135399999999999743 0 -1 0 0.1986970055134198165 0 -0.1986970055134198165 1 I I 0 1 0.280999999999999972 forward I I I I #
loop $-1 $-1 $17 $3 #
coedge $-1 $11 $11 $18 $19 reversed $5 $-1 #
face $-1 $-1 $20 $2 $-1 $21 forward single #
loop $-1 $22 $18 $7 #
plane-surface $-1 0 -4.342000000000000526 7.135399999999999743 0 1 0 -0.7071067811865473507 0 0.7071067811865473507 forward_v I I I I #
loop $-1 $-1 $23 $4 #
coedge $-1 $16 $16 $24 $25 reversed $8 $-1 #
coedge $-1 $17 $17 $26 $27 reversed $10 $-1 #
coedge $-1 $18 $18 $11 $19 forward $13 $-1 #
edge $-1 $28 -3.141592653589799333 $28 3.141592653589786899 $18 $29 forward 7 unknown #
loop $-1 $30 $26 $12 #
plane-surface $-1 0 -4.375 7.135399999999999743 0 -1 0 0.7071067811865473507 0 -0.7071067811865473507 forward_v I I I I #
loop $-1 $-1 $24 $7 #
coedge $-1 $23 $23 $31 $32 reversed $15 $-1 #
coedge $-1 $24 $24 $16 $25 forward $22 $-1 #
edge $-1 $33 6.151423782291331288e-16 $33 6.28318530717958712 $24 $34 forward 7 unknown #
coedge $-1 $26 $26 $17 $27 forward $20 $-1 #
edge $-1 $35 -3.141592653589800666 $35 3.141592653589785566 $26 $36 forward 7 unknown #
vertex $-1 $19 $37 #
ellipse-curve $-1 0 -4.342000000000000526 7.135400000038921497 0 -1 0 -0.1325825214724776768 0 -0.1325825214724776768 1 I I #
loop $-1 $-1 $31 $12 #
coedge $-1 $31 $31 $23 $32 forward $30 $-1 #
edge $-1 $38 -6.151423782291331288e-16 $38 6.283185307179585344 $31 $39 forward 7 unknown #
vertex $-1 $25 $40 #
ellipse-curve $-1 0 -4.342000000000000526 7.135399999999999743 0 1 0 0.1986970055134198165 0 -0.1986970055134198165 1 I I #
vertex $-1 $27 $41 #
ellipse-curve $-1 0 -4.375 7.135400000038921497 0 1 0 -0.1325825214724776768 0 -0.1325825214724776768 1 I I #
point $-1 0.1325825214724786205 -4.342000000000000526 7.267982521511398453 #
vertex $-1 $32 $42 #
ellipse-curve $-1 0 -4.375 7.135399999999999743 0 -1 0 0.1986970055134198165 0 -0.1986970055134198165 1 I I #
point $-1 0.1986970055134198165 -4.342000000000000526 6.936702994486579676 #
point $-1 0.1325825214724767609 -4.375 7.267982521511400229 #
point $-1 0.1986970055134198165 -4.375 6.936702994486579676 #
End-of-ACIS-data 