700 0 2 0           
24 FBMach with ACIS - 7.0.3 13 ACIS 7.0.3 NT 24 Mon May 13 17:05:21 2002 
1 9.9999999999999995e-007 1e-010 
body $2 -1 $-1 $3 $-1 $4 #
bdycol-kcp $-1 -1 1 4 $5 $6 $7 $8 #
model_id-kcp-attrib $-1 -1 $-1 $-1 $0 1 1021323921 1021323921 1019084801 1 #
lump $-1 -1 $-1 $-1 $9 $0 #
transform $-1 -1 1 0 0 0 1 0 0 0 1 0 0 0 1 rotate no_reflect no_shear #
body $10 -1 $-1 $11 $-1 $12 #
body $13 -1 $-1 $14 $-1 $15 #
body $16 -1 $-1 $17 $-1 $18 #
body $19 -1 $-1 $20 $-1 $21 #
shell $-1 -1 $-1 $-1 $-1 $22 $-1 $3 #
rgb_color-st-attrib $-1 -1 $23 $-1 $5 0.5 1 1 #
lump $-1 -1 $-1 $-1 $24 $5 #
transform $-1 -1 1 0 0 0 1 0 0 0 1 0 -4.4305000000000003 1.125 1 no_rotate no_reflect no_shear #
rgb_color-st-attrib $-1 -1 $25 $-1 $6 1 0.5 1 #
lump $-1 -1 $-1 $-1 $26 $6 #
transform $-1 -1 1 0 0 0 1 0 0 0 1 0 -4.4305000000000003 1.125 1 no_rotate no_reflect no_shear #
model_id-kcp-attrib $-1 -1 $-1 $-1 $7 1 1021323921 1021323921 1019084802 1 #
lump $-1 -1 $-1 $-1 $27 $7 #
transform $-1 -1 1 0 0 0 1 0 0 0 1 0 -4.4305000000000003 1.125 1 no_rotate no_reflect no_shear #
rgb_color-st-attrib $-1 -1 $28 $-1 $8 0.5 1 1 #
lump $-1 -1 $-1 $-1 $29 $8 #
transform $-1 -1 1 0 0 0 -3.8285889215894375e-016 1 0 -1 -3.8285889215894375e-016 0 -4.4305000000000003 1.125 1 rotate no_reflect no_shear #
face $30 -1 $-1 $31 $32 $9 $-1 $33 forward single #
model_id-kcp-attrib $-1 -1 $-1 $10 $5 1 1021323921 1021323921 1007550468 1 #
shell $-1 -1 $-1 $-1 $-1 $34 $-1 $11 #
model_id-kcp-attrib $-1 -1 $-1 $13 $6 1 1021323921 1021323921 1014104069 1 #
shell $-1 -1 $-1 $-1 $-1 $35 $-1 $14 #
shell $-1 -1 $-1 $-1 $-1 $36 $-1 $17 #
model_id-kcp-attrib $-1 -1 $-1 $19 $8 1 1021323921 1021323921 1020395523 1 #
shell $-1 -1 $-1 $-1 $-1 $37 $-1 $20 #
model_id-kcp-attrib $-1 -1 $-1 $-1 $22 1 1021323921 1021323921 1019084801 2 #
face $38 -1 $-1 $39 $40 $9 $-1 $41 reversed single #
loop $-1 -1 $-1 $42 $43 $22 #
plane-surface $-1 -1 $-1 0 -4.468 1.125 0 -1 0 0.70710678118654735 0 0.70710678118654735 forward_v I I I I #
face $-1 -1 $-1 $44 $45 $24 $-1 $46 reversed single #
face $-1 -1 $-1 $47 $48 $26 $-1 $49 forward single #
face $-1 -1 $-1 $50 $51 $27 $-1 $52 forward single #
face $-1 -1 $-1 $53 $54 $29 $-1 $55 forward single #
model_id-kcp-attrib $-1 -1 $-1 $-1 $31 1 1021323921 1021323921 1019084801 3 #
face $56 -1 $-1 $57 $58 $9 $-1 $59 reversed single #
loop $-1 -1 $-1 $60 $61 $31 #
plane-surface $-1 -1 $-1 0 -4.4370000000000003 1.125 0 -1 0 0.70710678118654735 0 0.70710678118654735 forward_v I I I I #
loop $62 -1 $-1 $-1 $63 $22 #
coedge $-1 -1 $-1 $43 $43 $64 $65 forward $32 $-1 #
face $-1 -1 $-1 $66 $67 $24 $-1 $46 reversed single #
loop $-1 -1 $-1 $-1 $68 $34 #
cone-surface $-1 -1 $-1 -3.0814879110195774e-033 -0.037499999999999645 0 0 -1 0 0.19869700551341982 0 0.19869700551341982 1 I I 0 1 0.28099999999999997 forward I I I I #
face $-1 -1 $-1 $69 $70 $26 $-1 $71 forward single #
loop $-1 -1 $-1 $72 $73 $35 #
cone-surface $-1 -1 $-1 0 -0.0065000000000000613 0 0 1 0 -0.13258252147247762 0 -0.13258252147247762 1 I I 0 -1 0.18749999999999994 forward I I I I #
face $-1 -1 $-1 $74 $75 $27 $-1 $76 reversed single #
loop $-1 -1 $-1 $-1 $77 $36 #
plane-surface $-1 -1 $-1 0 0 0.28100000000000008 0 0 1 1 0 0 forward_v I I I I #
face $-1 -1 $-1 $78 $79 $29 $-1 $80 forward single #
loop $-1 -1 $-1 $81 $82 $37 #
cone-surface $-1 -1 $-1 0 0 0 0 0 1 0.12499999999999997 0 0 1 I I 0 1 0.12499999999999997 forward I I I I #
model_id-kcp-attrib $-1 -1 $-1 $-1 $39 1 1021323921 1021323921 1019084801 4 #
face $83 -1 $-1 $84 $85 $9 $-1 $86 reversed single #
loop $87 -1 $-1 $88 $89 $39 #
plane-surface $-1 -1 $-1 0 -4.3930000000000007 1.125 0 -1 0 0.70710678118654735 0 0.70710678118654735 forward_v I I I I #
loop $-1 -1 $-1 $-1 $90 $31 #
coedge $-1 -1 $-1 $61 $61 $91 $92 forward $40 $-1 #
model_id-kcp-attrib $-1 -1 $-1 $-1 $42 1 1021323921 1021323921 1019084801 12 #
coedge $-1 -1 $-1 $63 $63 $93 $94 forward $42 $-1 #
coedge $-1 -1 $-1 $64 $64 $43 $65 reversed $95 $-1 #
edge $96 -1 $-1 $97 0 $97 6.2831853071795862 $64 $98 forward @7 unknown #
face $-1 -1 $-1 $99 $100 $24 $-1 $46 reversed single #
loop $-1 -1 $-1 $-1 $101 $44 #
coedge $-1 -1 $-1 $102 $103 $104 $105 reversed $45 $-1 #
face $-1 -1 $-1 $106 $107 $26 $-1 $108 forward single #
loop $-1 -1 $-1 $109 $110 $47 #
cone-surface $-1 -1 $-1 -3.0814879110195774e-033 -0.0065000000000000613 0 0 1 0 0.19869700551341982 0 0.19869700551341982 1 I I 0 1 0.28099999999999997 forward I I I I #
loop $-1 -1 $-1 $-1 $111 $35 #
coedge $-1 -1 $-1 $73 $73 $112 $113 forward $48 $-1 #
face $114 -1 $-1 $115 $116 $27 $-1 $117 reversed single #
loop $-1 -1 $-1 $-1 $118 $50 #
plane-surface $-1 -1 $-1 0 0 -0.28100000000000008 0 0 1 1 0 0 forward_v I I I I #
coedge $-1 -1 $-1 $119 $120 $121 $122 forward $51 $-1 #
face $-1 -1 $-1 $-1 $123 $29 $-1 $124 forward single #
loop $-1 -1 $-1 $-1 $125 $53 #
plane-surface $-1 -1 $-1 0 0 -0.037499999999999645 0 0 -1 -1 0 0 forward_v I I I I #
loop $-1 -1 $-1 $-1 $126 $37 #
coedge $-1 -1 $-1 $82 $82 $125 $127 reversed $54 $-1 #
model_id-kcp-attrib $-1 -1 $-1 $-1 $57 1 1021323921 1021323921 1019084801 5 #
face $128 -1 $-1 $129 $130 $9 $-1 $131 forward single #
loop $132 -1 $-1 $133 $93 $57 #
cone-surface $-1 -1 $-1 0 -4.3892500000000005 1.125 0 -1 0 -0.088388347648318419 0 -0.088388347648318419 1 I I 0 1 0.12499999999999999 forward I I I I #
model_id-kcp-attrib $-1 -1 $-1 $-1 $58 1 1021323921 1021323921 1019084801 13 #
loop $-1 -1 $-1 $-1 $134 $39 #
coedge $-1 -1 $-1 $89 $89 $135 $136 forward $58 $-1 #
coedge $-1 -1 $-1 $90 $90 $137 $138 forward $60 $-1 #
coedge $-1 -1 $-1 $91 $91 $61 $92 reversed $139 $-1 #
edge $140 -1 $-1 $141 0 $141 6.2831853071795862 $91 $142 forward @7 unknown #
coedge $-1 -1 $-1 $93 $93 $63 $94 reversed $85 $-1 #
edge $143 -1 $-1 $144 -3.1415926535897931 $144 3.1415926535897931 $63 $145 forward @7 unknown #
loop $-1 -1 $-1 $-1 $64 $84 #
attrib_edge_convexity-kcp-attrib $-1 -1 $146 $-1 $65 1 #
vertex $-1 -1 $-1 $65 $147 #
ellipse-curve $-1 -1 $-1 0 -4.468 1.125 0 -1 0 0.19869700551341982 0 0.19869700551341982 1 I I #
face $-1 -1 $-1 $148 $149 $24 $-1 $46 reversed single #
loop $-1 -1 $-1 $-1 $150 $66 #
coedge $-1 -1 $-1 $151 $152 $153 $154 reversed $67 $-1 #
coedge $-1 -1 $-1 $155 $68 $156 $157 forward $45 $-1 #
coedge $-1 -1 $-1 $68 $155 $158 $159 reversed $45 $-1 #
coedge $-1 -1 $-1 $160 $161 $68 $105 forward $162 $-1 #
edge $-1 -1 $-1 $163 -0.78539816339744828 $164 0.78539816339744828 $104 $165 forward @7 unknown #
face $-1 -1 $-1 $-1 $166 $26 $-1 $167 reversed single #
loop $-1 -1 $-1 $168 $169 $69 #
plane-surface $-1 -1 $-1 -0.0060104076400856448 0.037499999999999534 -0.0060104076400856474 0 1 0 0 0 1 forward_v I I I I #
loop $-1 -1 $-1 $-1 $170 $47 #
coedge $-1 -1 $-1 $110 $110 $169 $171 forward $70 $-1 #
coedge $-1 -1 $-1 $111 $111 $172 $173 reversed $72 $-1 #
coedge $-1 -1 $-1 $112 $112 $73 $113 reversed $168 $-1 #
edge $-1 -1 $-1 $174 -3.1415926535897931 $174 3.1415926535897931 $73 $175 forward @7 unknown #
model_id-kcp-attrib $-1 -1 $-1 $-1 $74 1 1021323921 1021323921 1019084802 2 #
face $-1 -1 $-1 $176 $177 $27 $-1 $178 reversed single #
loop $-1 -1 $-1 $-1 $179 $74 #
plane-surface $-1 -1 $-1 0 -0.037499999999999645 0 0 1 0 0 0 1 forward_v I I I I #
coedge $-1 -1 $-1 $180 $181 $182 $183 forward $75 $-1 #
coedge $-1 -1 $-1 $184 $77 $185 $186 forward $51 $-1 #
coedge $-1 -1 $-1 $77 $184 $187 $188 forward $51 $-1 #
coedge $-1 -1 $-1 $189 $190 $77 $122 reversed $191 $-1 #
edge $-1 -1 $-1 $192 -0.037499999999999645 $193 0.037499999999999645 $121 $194 forward @7 unknown #
loop $-1 -1 $-1 $-1 $195 $78 #
plane-surface $-1 -1 $-1 0 0 0.037499999999999645 0 0 1 1 0 0 forward_v I I I I #
coedge $-1 -1 $-1 $125 $125 $82 $127 forward $79 $-1 #
coedge $-1 -1 $-1 $126 $126 $195 $196 reversed $81 $-1 #
edge $-1 -1 $-1 $197 0 $197 6.2831853071795862 $125 $198 forward @7 unknown #
model_id-kcp-attrib $-1 -1 $-1 $-1 $84 1 1021323921 1021323921 1019084801 6 #
face $199 -1 $-1 $-1 $200 $9 $-1 $201 forward single #
loop $-1 -1 $-1 $95 $137 $84 #
cone-surface $-1 -1 $-1 0 -4.3892500000000005 1.125 0 -1 0 -0.19869700551341982 0 -0.19869700551341982 1 I I 0 1 0.28099999999999997 forward I I I I #
model_id-kcp-attrib $-1 -1 $-1 $-1 $85 1 1021323921 1021323921 1019084801 10 #
loop $202 -1 $-1 $-1 $135 $57 #
coedge $-1 -1 $-1 $134 $134 $203 $204 forward $88 $-1 #
coedge $-1 -1 $-1 $135 $135 $89 $136 reversed $133 $-1 #
edge $205 -1 $-1 $206 -3.1415926535897931 $206 3.1415926535897931 $135 $207 forward @7 unknown #
coedge $-1 -1 $-1 $137 $137 $90 $138 reversed $130 $-1 #
edge $208 -1 $-1 $209 -3.1415926535897931 $209 3.1415926535897931 $90 $210 forward @7 unknown #
loop $-1 -1 $-1 $-1 $91 $129 #
attrib_edge_convexity-kcp-attrib $-1 -1 $211 $-1 $92 2 #
vertex $-1 -1 $-1 $92 $212 #
ellipse-curve $-1 -1 $-1 0 -4.4370000000000003 1.125 0 -1 0 0.13258252147247762 0 0.13258252147247762 1 I I #
attrib_edge_convexity-kcp-attrib $-1 -1 $213 $-1 $94 1 #
vertex $214 -1 $-1 $94 $215 #
ellipse-curve $-1 -1 $-1 0 -4.468 1.125 0 1 0 0.088388347648318419 0 0.088388347648318419 1 I I #
convexity-sys-attrib $-1 -1 $-1 $96 $65 #
point $-1 -1 $-1 0.19869700551341982 -4.468 1.3236970055134198 #
face $-1 -1 $-1 $216 $217 $24 $-1 $218 forward single #
loop $-1 -1 $-1 $-1 $219 $99 #
coedge $-1 -1 $-1 $220 $221 $219 $222 forward $100 $-1 #
coedge $-1 -1 $-1 $223 $101 $224 $225 reversed $67 $-1 #
coedge $-1 -1 $-1 $101 $223 $103 $159 forward $67 $-1 #
coedge $-1 -1 $-1 $226 $227 $101 $154 forward $228 $-1 #
edge $-1 -1 $-1 $229 -2.3561944901923448 $230 -0.78539816339744828 $153 $231 forward @7 unknown #
coedge $-1 -1 $-1 $103 $102 $232 $233 reversed $45 $-1 #
coedge $-1 -1 $-1 $221 $220 $234 $157 reversed $100 $-1 #
edge $-1 -1 $-1 $163 -0.074999999999999289 $235 0 $234 $236 forward @7 unknown #
coedge $-1 -1 $-1 $237 $238 $239 $159 forward $240 $-1 #
edge $-1 -1 $-1 $164 -0.074999999999999289 $230 0 $158 $241 forward @7 unknown #
coedge $-1 -1 $-1 $161 $104 $238 $242 reversed $162 $-1 #
coedge $-1 -1 $-1 $104 $160 $243 $244 forward $162 $-1 #
loop $-1 -1 $-1 $-1 $104 $245 #
vertex $-1 -1 $-1 $246 $247 #
vertex $-1 -1 $-1 $248 $249 #
ellipse-curve $-1 -1 $-1 -3.0814879110195774e-033 0.037499999999999645 0 0 -1 0 0.19869700551341982 0 0.19869700551341982 1 I I #
loop $-1 -1 $-1 $250 $251 $106 #
plane-surface $-1 -1 $-1 -0.0060104076400856448 -0.0065000000000000613 -0.0060104076400856474 0 1 0 0 0 1 forward_v I I I I #
loop $-1 -1 $-1 $-1 $112 $69 #
coedge $-1 -1 $-1 $169 $169 $110 $171 reversed $107 $-1 #
coedge $-1 -1 $-1 $170 $170 $251 $252 reversed $109 $-1 #
edge $-1 -1 $-1 $253 -3.1415926535897931 $253 3.1415926535897931 $110 $254 forward @7 unknown #
coedge $-1 -1 $-1 $172 $172 $111 $173 forward $250 $-1 #
edge $255 -1 $-1 $256 -3.1415926535897931 $256 3.1415926535897931 $111 $257 forward @7 unknown #
vertex $-1 -1 $-1 $113 $258 #
ellipse-curve $-1 -1 $-1 0 0.037499999999999534 0 0 1 0 -0.13258252147247762 0 -0.13258252147247762 1 I I #
face $259 -1 $-1 $260 $261 $27 $-1 $262 reversed single #
loop $-1 -1 $-1 $-1 $263 $115 #
plane-surface $-1 -1 $-1 -0.28099999999999992 0 0 1 0 0 0 0 -1 forward_v I I I I #
coedge $-1 -1 $-1 $264 $187 $265 $266 forward $116 $-1 #
coedge $-1 -1 $-1 $267 $118 $264 $268 forward $75 $-1 #
coedge $-1 -1 $-1 $118 $267 $269 $270 forward $75 $-1 #
coedge $-1 -1 $-1 $190 $189 $118 $183 reversed $191 $-1 #
edge $-1 -1 $-1 $271 -0.037499999999999645 $272 0.037499999999999645 $182 $273 forward @7 unknown #
coedge $-1 -1 $-1 $120 $119 $274 $275 forward $51 $-1 #
coedge $-1 -1 $-1 $276 $277 $119 $186 reversed $261 $-1 #
edge $-1 -1 $-1 $193 -0.28099999999999992 $278 0.28099999999999992 $185 $279 forward @7 unknown #
coedge $-1 -1 $-1 $179 $280 $120 $188 reversed $116 $-1 #
edge $-1 -1 $-1 $281 -0.28099999999999992 $192 0.28099999999999992 $187 $282 forward @7 unknown #
coedge $-1 -1 $-1 $182 $121 $280 $283 forward $191 $-1 #
coedge $-1 -1 $-1 $121 $182 $276 $284 reversed $191 $-1 #
loop $-1 -1 $-1 $-1 $189 $260 #
vertex $-1 -1 $-1 $122 $285 #
vertex $-1 -1 $-1 $122 $286 #
straight-curve $-1 -1 $-1 0.28099999999999992 0 0.28100000000000008 0 1 0 I I #
coedge $-1 -1 $-1 $195 $195 $126 $196 forward $123 $-1 #
edge $-1 -1 $-1 $287 0 $287 6.2831853071795862 $195 $288 forward @7 unknown #
vertex $-1 -1 $-1 $127 $289 #
ellipse-curve $-1 -1 $-1 0 0 -0.037499999999999645 0 0 -1 0.12499999999999997 0 0 1 I I #
model_id-kcp-attrib $-1 -1 $-1 $-1 $129 1 1021323921 1021323921 1019084801 7 #
loop $-1 -1 $-1 $139 $203 $129 #
cone-surface $-1 -1 $-1 0 -4.3892500000000005 1.125 0 -1 0 -0.13258252147247762 0 -0.13258252147247762 1 I I 0 1 0.18749999999999997 forward I I I I #
model_id-kcp-attrib $-1 -1 $-1 $-1 $133 1 1021323921 1021323921 1019084801 11 #
coedge $-1 -1 $-1 $203 $203 $134 $204 reversed $200 $-1 #
edge $-1 -1 $-1 $290 -3.1415926535897931 $290 3.1415926535897931 $134 $291 forward @7 unknown #
attrib_edge_convexity-kcp-attrib $-1 -1 $292 $-1 $136 1 #
vertex $293 -1 $-1 $136 $294 #
ellipse-curve $-1 -1 $-1 0 -4.3930000000000007 1.125 0 -1 0 0.088388347648318419 0 0.088388347648318419 1 I I #
attrib_edge_convexity-kcp-attrib $-1 -1 $295 $-1 $138 1 #
vertex $-1 -1 $-1 $138 $296 #
ellipse-curve $-1 -1 $-1 0 -4.4370000000000003 1.125 0 1 0 0.19869700551341982 0 0.19869700551341982 1 I I #
convexity-sys-attrib $-1 -1 $-1 $140 $92 #
point $-1 -1 $-1 0.13258252147247762 -4.4370000000000003 1.2575825214724776 #
convexity-sys-attrib $-1 -1 $-1 $143 $94 #
model_id-kcp-attrib $-1 -1 $-1 $-1 $144 1 1021323921 1021323921 1019084801 14 #
point $-1 -1 $-1 -0.088388347648318419 -4.468 1.0366116523516815 #
face $-1 -1 $-1 $297 $298 $24 $-1 $299 reversed single #
loop $-1 -1 $-1 $-1 $239 $148 #
plane-surface $-1 -1 $-1 0 0 0.28100000000000008 0 0 1 1 0 0 forward_v I I I I #
coedge $-1 -1 $-1 $300 $301 $302 $222 reversed $149 $-1 #
coedge $-1 -1 $-1 $156 $150 $303 $304 reversed $100 $-1 #
coedge $-1 -1 $-1 $150 $156 $305 $306 reversed $100 $-1 #
edge $-1 -1 $-1 $307 -0.074999999999999289 $308 0 $302 $309 forward @7 unknown #
coedge $-1 -1 $-1 $152 $151 $310 $311 reversed $67 $-1 #
coedge $-1 -1 $-1 $312 $313 $314 $225 forward $298 $-1 #
edge $-1 -1 $-1 $315 -0.074999999999999289 $229 0 $224 $316 forward @7 unknown #
coedge $-1 -1 $-1 $227 $153 $317 $318 reversed $228 $-1 #
coedge $-1 -1 $-1 $153 $226 $312 $319 forward $228 $-1 #
loop $-1 -1 $-1 $-1 $153 $320 #
vertex $-1 -1 $-1 $321 $322 #
vertex $-1 -1 $-1 $323 $324 #
ellipse-curve $-1 -1 $-1 -3.0814879110195774e-033 -0.037499999999999645 0 0 1 0 0.19869700551341982 0 0.19869700551341982 1 I I #
coedge $-1 -1 $-1 $325 $326 $155 $233 forward $327 $-1 #
edge $-1 -1 $-1 $230 -0.78539816339744828 $235 0.78539816339744828 $232 $231 forward @7 unknown #
coedge $-1 -1 $-1 $328 $329 $330 $157 forward $331 $-1 #
vertex $-1 -1 $-1 $332 $333 #
straight-curve $-1 -1 $-1 0.28099999999999992 -0.037499999999999645 0 0 -1 0 I I #
coedge $-1 -1 $-1 $334 $158 $326 $323 forward $240 $-1 #
coedge $-1 -1 $-1 $158 $334 $160 $242 forward $240 $-1 #
coedge $-1 -1 $-1 $335 $317 $152 $159 reversed $217 $-1 #
loop $-1 -1 $-1 $-1 $158 $336 #
straight-curve $-1 -1 $-1 -3.0814879110195774e-033 -0.037499999999999645 0.28100000000000008 0 -1 0 I I #
edge $-1 -1 $-1 $337 -0.28099999999999992 $164 3.0814879110195774e-033 $160 $338 forward @7 unknown #
coedge $-1 -1 $-1 $339 $330 $161 $244 reversed $340 $-1 #
edge $-1 -1 $-1 $337 -0.28100000000000008 $163 0 $243 $341 forward @7 unknown #
face $-1 -1 $-1 $342 $162 $24 $-1 $343 reversed single #
edge $-1 -1 $-1 $163 0 $344 0.28100000000000008 $329 $341 forward @7 unknown #
point $-1 -1 $-1 0.28099999999999992 0.037499999999999645 0 #
edge $-1 -1 $-1 $164 3.0814879110195774e-033 $345 0.28099999999999992 $346 $338 forward @7 unknown #
point $-1 -1 $-1 -3.0814879110195774e-033 0.037499999999999645 0.28100000000000008 #
loop $-1 -1 $-1 $-1 $172 $106 #
coedge $-1 -1 $-1 $251 $251 $170 $252 forward $166 $-1 #
edge $347 -1 $-1 $348 -3.1415926535897931 $348 3.1415926535897931 $170 $349 forward @7 unknown #
vertex $-1 -1 $-1 $171 $350 #
ellipse-curve $-1 -1 $-1 -3.0814879110195774e-033 0.037499999999999534 0 0 -1 0 0.19869700551341982 0 0.19869700551341982 1 I I #
convexity-sys-attrib $-1 -1 $-1 $-1 $173 #
vertex $-1 -1 $-1 $173 $351 #
ellipse-curve $-1 -1 $-1 0 -0.0065000000000000613 0 0 1 0 -0.13258252147247762 0 -0.13258252147247762 1 I I #
point $-1 -1 $-1 0.13258252147247762 0.037499999999999645 0.13258252147247762 #
model_id-kcp-attrib $-1 -1 $-1 $-1 $176 1 1021323921 1021323921 1019084802 3 #
face $-1 -1 $-1 $-1 $191 $27 $-1 $352 reversed single #
loop $-1 -1 $-1 $-1 $276 $176 #
plane-surface $-1 -1 $-1 0 0.037499999999999645 0 0 -1 0 0 0 -1 forward_v I I I I #
coedge $-1 -1 $-1 $353 $274 $277 $354 forward $177 $-1 #
coedge $-1 -1 $-1 $280 $179 $180 $268 reversed $116 $-1 #
coedge $-1 -1 $-1 $274 $353 $179 $266 reversed $177 $-1 #
edge $-1 -1 $-1 $281 -0.28100000000000008 $355 0.28100000000000008 $265 $356 forward @7 unknown #
coedge $-1 -1 $-1 $181 $180 $353 $357 forward $75 $-1 #
edge $-1 -1 $-1 $272 -0.28099999999999992 $355 0.28099999999999992 $264 $358 forward @7 unknown #
coedge $-1 -1 $-1 $277 $276 $181 $270 reversed $261 $-1 #
edge $-1 -1 $-1 $359 -0.28099999999999992 $271 0.28099999999999992 $269 $360 forward @7 unknown #
vertex $-1 -1 $-1 $183 $361 #
vertex $-1 -1 $-1 $283 $362 #
straight-curve $-1 -1 $-1 0.28099999999999992 0 -0.28100000000000008 0 -1 0 I I #
coedge $-1 -1 $-1 $263 $265 $184 $275 reversed $177 $-1 #
edge $-1 -1 $-1 $278 -0.037499999999999645 $281 0.037499999999999645 $274 $363 forward @7 unknown #
coedge $-1 -1 $-1 $269 $185 $190 $284 forward $261 $-1 #
coedge $-1 -1 $-1 $185 $269 $263 $354 reversed $261 $-1 #
vertex $-1 -1 $-1 $186 $364 #
straight-curve $-1 -1 $-1 0 0.037499999999999645 0.28100000000000008 -1 0 0 I I #
coedge $-1 -1 $-1 $187 $264 $189 $283 reversed $116 $-1 #
vertex $-1 -1 $-1 $275 $365 #
straight-curve $-1 -1 $-1 0 -0.037499999999999645 0.28100000000000008 1 0 0 I I #
edge $-1 -1 $-1 $192 -0.28100000000000008 $272 0.28100000000000008 $189 $366 forward @7 unknown #
edge $-1 -1 $-1 $193 -0.28100000000000008 $271 0.28100000000000008 $190 $367 forward @7 unknown #
point $-1 -1 $-1 0.28099999999999992 -0.037499999999999645 0.28100000000000008 #
point $-1 -1 $-1 0.28099999999999992 0.037499999999999645 0.28100000000000008 #
vertex $-1 -1 $-1 $196 $368 #
ellipse-curve $-1 -1 $-1 0 0 0.037499999999999645 0 0 1 0.12499999999999997 0 0 1 I I #
point $-1 -1 $-1 0.12499999999999997 0 -0.037499999999999645 #
vertex $-1 -1 $-1 $204 $369 #
ellipse-curve $-1 -1 $-1 0 -4.3930000000000007 1.125 0 1 0 0.13258252147247762 0 0.13258252147247762 1 I I #
convexity-sys-attrib $-1 -1 $-1 $205 $136 #
model_id-kcp-attrib $-1 -1 $-1 $-1 $206 1 1021323921 1021323921 1019084801 15 #
point $-1 -1 $-1 -0.088388347648318419 -4.3930000000000007 1.0366116523516815 #
convexity-sys-attrib $-1 -1 $-1 $208 $138 #
point $-1 -1 $-1 -0.19869700551341982 -4.4370000000000003 0.92630299448658016 #
face $-1 -1 $-1 $370 $340 $24 $-1 $371 reversed single #
loop $-1 -1 $-1 $-1 $224 $216 #
plane-surface $-1 -1 $-1 -0.28099999999999992 0 0 1 0 0 0 0 -1 forward_v I I I I #
coedge $-1 -1 $-1 $372 $219 $373 $374 reversed $149 $-1 #
coedge $-1 -1 $-1 $219 $372 $375 $376 reversed $149 $-1 #
coedge $-1 -1 $-1 $377 $378 $379 $222 forward $380 $-1 #
coedge $-1 -1 $-1 $381 $382 $220 $304 forward $383 $-1 #
edge $-1 -1 $-1 $235 0.78539816339744828 $308 2.3561944901923448 $303 $231 forward @7 unknown #
coedge $-1 -1 $-1 $384 $385 $221 $306 forward $386 $-1 #
edge $-1 -1 $-1 $307 -2.3561944901923448 $163 -0.78539816339744828 $305 $165 forward @7 unknown #
vertex $-1 -1 $-1 $387 $388 #
vertex $-1 -1 $-1 $389 $390 #
straight-curve $-1 -1 $-1 -3.0814879110195774e-033 -0.037499999999999645 -0.28100000000000008 0 -1 0 I I #
coedge $-1 -1 $-1 $391 $346 $223 $311 forward $392 $-1 #
edge $-1 -1 $-1 $164 0.78539816339744828 $315 2.3561944901923448 $310 $165 forward @7 unknown #
coedge $-1 -1 $-1 $393 $224 $227 $319 reversed $298 $-1 #
coedge $-1 -1 $-1 $224 $393 $391 $394 forward $298 $-1 #
coedge $-1 -1 $-1 $395 $396 $372 $225 reversed $397 $-1 #
vertex $-1 -1 $-1 $398 $399 #
straight-curve $-1 -1 $-1 -0.28099999999999992 -0.037499999999999645 0 0 -1 0 I I #
coedge $-1 -1 $-1 $239 $400 $226 $318 forward $217 $-1 #
edge $-1 -1 $-1 $401 -0.28099999999999992 $230 -3.0814879110195774e-033 $226 $402 forward @7 unknown #
edge $-1 -1 $-1 $401 -0.28100000000000008 $229 0 $312 $403 forward @7 unknown #
face $-1 -1 $-1 $404 $228 $24 $-1 $405 reversed single #
edge $-1 -1 $-1 $229 0 $406 0.28100000000000008 $396 $403 forward @7 unknown #
point $-1 -1 $-1 -0.28099999999999992 -0.037499999999999645 0 #
edge $-1 -1 $-1 $230 -3.0814879110195774e-033 $407 0.28099999999999992 $326 $402 forward @7 unknown #
point $-1 -1 $-1 -3.0814879110195774e-033 -0.037499999999999645 0.28100000000000008 #
coedge $-1 -1 $-1 $326 $232 $408 $409 reversed $327 $-1 #
coedge $-1 -1 $-1 $232 $325 $237 $323 reversed $327 $-1 #
loop $-1 -1 $-1 $-1 $232 $404 #
coedge $-1 -1 $-1 $410 $234 $382 $332 forward $331 $-1 #
coedge $-1 -1 $-1 $234 $410 $384 $246 reversed $331 $-1 #
coedge $-1 -1 $-1 $243 $408 $102 $157 reversed $340 $-1 #
loop $-1 -1 $-1 $-1 $234 $411 #
edge $-1 -1 $-1 $235 0 $412 0.28100000000000008 $328 $413 forward @7 unknown #
point $-1 -1 $-1 0.28099999999999992 -0.037499999999999645 0 #
coedge $-1 -1 $-1 $238 $237 $339 $414 forward $240 $-1 #
coedge $-1 -1 $-1 $400 $239 $346 $248 forward $217 $-1 #
face $-1 -1 $-1 $415 $240 $24 $-1 $218 forward single #
vertex $-1 -1 $-1 $414 $416 #
straight-curve $-1 -1 $-1 0 0.037499999999999645 0.28100000000000008 -1 0 0 I I #
coedge $-1 -1 $-1 $408 $243 $334 $414 reversed $340 $-1 #
loop $-1 -1 $-1 $-1 $330 $297 #
straight-curve $-1 -1 $-1 0.28099999999999992 0.037499999999999645 0 0 0 -1 I I #
face $-1 -1 $-1 $417 $392 $24 $-1 $343 reversed single #
plane-surface $-1 -1 $-1 0 0.037499999999999645 0 0 -1 0 0 0 -1 forward_v I I I I #
vertex $-1 -1 $-1 $418 $419 #
vertex $-1 -1 $-1 $248 $420 #
coedge $-1 -1 $-1 $310 $391 $335 $248 reversed $392 $-1 #
convexity-sys-attrib $-1 -1 $-1 $-1 $252 #
vertex $-1 -1 $-1 $252 $421 #
ellipse-curve $-1 -1 $-1 -3.0814879110195774e-033 -0.0065000000000000613 0 0 -1 0 0.19869700551341982 0 0.19869700551341982 1 I I #
point $-1 -1 $-1 -0.19869700551341979 0.037499999999999534 -0.19869700551341984 #
point $-1 -1 $-1 0.13258252147247762 -0.0064999999999999503 0.13258252147247762 #
plane-surface $-1 -1 $-1 0.28099999999999992 0 0 -1 0 0 0 0 1 forward_v I I I I #
coedge $-1 -1 $-1 $265 $263 $267 $357 reversed $177 $-1 #
edge $-1 -1 $-1 $278 -0.28100000000000008 $359 0.28100000000000008 $277 $422 forward @7 unknown #
vertex $-1 -1 $-1 $357 $423 #
straight-curve $-1 -1 $-1 -0.28099999999999992 -0.037499999999999645 0 0 0 -1 I I #
edge $-1 -1 $-1 $355 -0.037499999999999645 $359 0.037499999999999645 $353 $424 forward @7 unknown #
straight-curve $-1 -1 $-1 0 -0.037499999999999645 -0.28100000000000008 -1 0 0 I I #
vertex $-1 -1 $-1 $270 $425 #
straight-curve $-1 -1 $-1 0 0.037499999999999645 -0.28100000000000008 1 0 0 I I #
point $-1 -1 $-1 0.28099999999999992 0.037499999999999645 -0.28100000000000008 #
point $-1 -1 $-1 0.28099999999999992 -0.037499999999999645 -0.28100000000000008 #
straight-curve $-1 -1 $-1 -0.28099999999999992 0 0.28100000000000008 0 -1 0 I I #
point $-1 -1 $-1 -0.28099999999999992 0.037499999999999645 0.28100000000000008 #
point $-1 -1 $-1 -0.28099999999999992 -0.037499999999999645 0.28100000000000008 #
straight-curve $-1 -1 $-1 0.28099999999999992 -0.037499999999999645 0 0 0 -1 I I #
straight-curve $-1 -1 $-1 0.28099999999999992 0.037499999999999645 0 0 0 -1 I I #
point $-1 -1 $-1 0.12499999999999997 0 0.037499999999999645 #
point $-1 -1 $-1 -0.13258252147247762 -4.3930000000000007 0.99241747852752238 #
face $-1 -1 $-1 $320 $426 $24 $-1 $405 reversed single #
plane-surface $-1 -1 $-1 0.28099999999999992 0 0 -1 0 0 0 0 1 forward_v I I I I #
coedge $-1 -1 $-1 $301 $300 $151 $225 forward $149 $-1 #
coedge $-1 -1 $-1 $427 $428 $300 $374 forward $429 $-1 #
edge $-1 -1 $-1 $315 2.3561944901923448 $307 3.9269908169872414 $373 $165 forward @7 unknown #
coedge $-1 -1 $-1 $430 $431 $301 $376 forward $426 $-1 #
edge $-1 -1 $-1 $308 2.3561944901923448 $229 3.9269908169872414 $375 $231 forward @7 unknown #
coedge $-1 -1 $-1 $432 $302 $431 $389 forward $380 $-1 #
coedge $-1 -1 $-1 $302 $432 $427 $433 forward $380 $-1 #
coedge $-1 -1 $-1 $434 $435 $150 $222 reversed $436 $-1 #
loop $-1 -1 $-1 $-1 $302 $415 #
coedge $-1 -1 $-1 $382 $303 $435 $437 reversed $383 $-1 #
coedge $-1 -1 $-1 $303 $381 $328 $332 reversed $383 $-1 #
loop $-1 -1 $-1 $-1 $303 $438 #
coedge $-1 -1 $-1 $385 $305 $329 $246 forward $386 $-1 #
coedge $-1 -1 $-1 $305 $384 $434 $387 reversed $386 $-1 #
loop $-1 -1 $-1 $-1 $305 $439 #
edge $-1 -1 $-1 $307 -3.0814879110195774e-033 $344 0.28099999999999992 $385 $440 forward @7 unknown #
point $-1 -1 $-1 -3.0814879110195774e-033 0.037499999999999645 -0.28100000000000008 #
edge $-1 -1 $-1 $308 3.0814879110195774e-033 $406 0.28099999999999992 $431 $441 forward @7 unknown #
point $-1 -1 $-1 -3.0814879110195774e-033 -0.037499999999999645 -0.28100000000000008 #
coedge $-1 -1 $-1 $346 $310 $313 $394 reversed $392 $-1 #
loop $-1 -1 $-1 $-1 $310 $342 #
coedge $-1 -1 $-1 $313 $312 $400 $442 reversed $298 $-1 #
edge $-1 -1 $-1 $345 -0.28100000000000008 $315 0 $391 $443 forward @7 unknown #
coedge $-1 -1 $-1 $444 $314 $428 $398 forward $397 $-1 #
coedge $-1 -1 $-1 $314 $444 $430 $321 reversed $397 $-1 #
loop $-1 -1 $-1 $-1 $314 $445 #
edge $-1 -1 $-1 $315 0 $446 0.28100000000000008 $428 $443 forward @7 unknown #
point $-1 -1 $-1 -0.28099999999999992 0.037499999999999645 0 #
coedge $-1 -1 $-1 $317 $335 $393 $442 forward $217 $-1 #
vertex $-1 -1 $-1 $442 $447 #
straight-curve $-1 -1 $-1 0 -0.037499999999999645 0.28100000000000008 1 0 0 I I #
straight-curve $-1 -1 $-1 -0.28099999999999992 -0.037499999999999645 0 0 0 -1 I I #
face $-1 -1 $-1 $438 $327 $24 $-1 $405 reversed single #
plane-surface $-1 -1 $-1 0 -0.037499999999999645 0 0 1 0 0 0 1 forward_v I I I I #
vertex $-1 -1 $-1 $448 $449 #
vertex $-1 -1 $-1 $414 $450 #
coedge $-1 -1 $-1 $330 $339 $325 $409 forward $340 $-1 #
edge $-1 -1 $-1 $407 -0.28100000000000008 $235 0 $408 $413 forward @7 unknown #
coedge $-1 -1 $-1 $329 $328 $451 $418 reversed $331 $-1 #
face $-1 -1 $-1 $-1 $331 $24 $-1 $371 reversed single #
vertex $-1 -1 $-1 $332 $452 #
straight-curve $-1 -1 $-1 0.28099999999999992 -0.037499999999999645 0 0 0 -1 I I #
edge $-1 -1 $-1 $407 -0.037499999999999645 $337 0.037499999999999645 $339 $453 forward @7 unknown #
face $-1 -1 $-1 $445 $380 $24 $-1 $454 reversed single #
point $-1 -1 $-1 0.28099999999999992 0.037499999999999645 0.28100000000000008 #
face $-1 -1 $-1 $455 $429 $24 $-1 $343 reversed single #
edge $-1 -1 $-1 $344 -0.037499999999999645 $412 0.037499999999999645 $410 $456 forward @7 unknown #
point $-1 -1 $-1 0.28099999999999992 0.037499999999999645 -0.28100000000000008 #
point $-1 -1 $-1 -0.28099999999999992 0.037499999999999645 0.28100000000000008 #
point $-1 -1 $-1 -0.19869700551341979 -0.0065000000000000613 -0.19869700551341984 #
straight-curve $-1 -1 $-1 -0.28099999999999992 0.037499999999999645 0 0 0 -1 I I #
point $-1 -1 $-1 -0.28099999999999992 -0.037499999999999645 -0.28100000000000008 #
straight-curve $-1 -1 $-1 -0.28099999999999992 0 -0.28100000000000008 0 1 0 I I #
point $-1 -1 $-1 -0.28099999999999992 0.037499999999999645 -0.28100000000000008 #
loop $-1 -1 $-1 $-1 $375 $370 #
coedge $-1 -1 $-1 $428 $373 $378 $433 reversed $429 $-1 #
coedge $-1 -1 $-1 $373 $427 $395 $398 reversed $429 $-1 #
loop $-1 -1 $-1 $-1 $373 $417 #
coedge $-1 -1 $-1 $431 $375 $396 $321 forward $426 $-1 #
coedge $-1 -1 $-1 $375 $430 $377 $389 reversed $426 $-1 #
coedge $-1 -1 $-1 $378 $377 $444 $448 forward $380 $-1 #
edge $-1 -1 $-1 $446 -0.28099999999999992 $307 -3.0814879110195774e-033 $427 $440 forward @7 unknown #
coedge $-1 -1 $-1 $451 $379 $385 $387 forward $436 $-1 #
coedge $-1 -1 $-1 $379 $451 $381 $437 forward $436 $-1 #
loop $-1 -1 $-1 $-1 $379 $455 #
edge $-1 -1 $-1 $412 -0.28099999999999992 $308 3.0814879110195774e-033 $381 $441 forward @7 unknown #
face $-1 -1 $-1 $439 $383 $24 $-1 $405 reversed single #
face $-1 -1 $-1 $245 $386 $24 $-1 $343 reversed single #
straight-curve $-1 -1 $-1 0 0.037499999999999645 -0.28100000000000008 1 0 0 I I #
straight-curve $-1 -1 $-1 0 -0.037499999999999645 -0.28100000000000008 -1 0 0 I I #
edge $-1 -1 $-1 $345 -0.037499999999999645 $401 0.037499999999999645 $393 $457 forward @7 unknown #
straight-curve $-1 -1 $-1 -0.28099999999999992 0.037499999999999645 0 0 0 -1 I I #
coedge $-1 -1 $-1 $396 $395 $432 $448 reversed $397 $-1 #
face $-1 -1 $-1 $411 $397 $24 $-1 $299 reversed single #
vertex $-1 -1 $-1 $433 $458 #
point $-1 -1 $-1 -0.28099999999999992 -0.037499999999999645 0.28100000000000008 #
edge $-1 -1 $-1 $406 -0.037499999999999645 $446 0.037499999999999645 $444 $459 forward @7 unknown #
point $-1 -1 $-1 -0.28099999999999992 -0.037499999999999645 -0.28100000000000008 #
point $-1 -1 $-1 0.28099999999999992 -0.037499999999999645 0.28100000000000008 #
coedge $-1 -1 $-1 $435 $434 $410 $418 forward $436 $-1 #
point $-1 -1 $-1 0.28099999999999992 -0.037499999999999645 -0.28100000000000008 #
straight-curve $-1 -1 $-1 0.28099999999999992 0 0.28100000000000008 0 1 0 I I #
plane-surface $-1 -1 $-1 0 0 -0.28100000000000008 0 0 1 1 0 0 forward_v I I I I #
face $-1 -1 $-1 $336 $436 $24 $-1 $454 reversed single #
straight-curve $-1 -1 $-1 0.28099999999999992 0 -0.28100000000000008 0 -1 0 I I #
straight-curve $-1 -1 $-1 -0.28099999999999992 0 0.28100000000000008 0 -1 0 I I #
point $-1 -1 $-1 -0.28099999999999992 0.037499999999999645 -0.28100000000000008 #
straight-curve $-1 -1 $-1 -0.28099999999999992 0 -0.28100000000000008 0 1 0 I I #
End-of-ACIS-data 