700 0 2 0           
24 FBMach with ACIS - 7.0.3 13 ACIS 7.0.3 NT 24 Mon May 13 17:05:17 2002 
1 9.9999999999999995e-007 1e-010 
body $2 -1 $-1 $3 $-1 $4 #
bdycol-kcp $-1 -1 1 4 $5 $6 $7 $8 #
model_id-kcp-attrib $-1 -1 $-1 $-1 $0 1 1021323916 1021323916 -917110783 1 #
lump $-1 -1 $-1 $-1 $9 $0 #
transform $-1 -1 1 0 0 0 1 0 0 0 1 0 0 0 1 rotate no_reflect no_shear #
body $10 -1 $-1 $11 $-1 $12 #
body $13 -1 $-1 $14 $-1 $15 #
body $16 -1 $-1 $17 $-1 $18 #
body $19 -1 $-1 $20 $-1 $21 #
shell $-1 -1 $-1 $-1 $-1 $22 $-1 $3 #
model_id-kcp-attrib $-1 -1 $-1 $-1 $5 1 1021323916 1021323916 -917110782 1 #
lump $-1 -1 $-1 $-1 $23 $5 #
transform $-1 -1 1 0 0 0 1 0 0 0 1 -2.7755575615628914e-017 4.4305000000000003 1.125 1 no_rotate no_reflect no_shear #
rgb_color-st-attrib $-1 -1 $24 $-1 $6 0.5 1 1 #
lump $-1 -1 $-1 $-1 $25 $6 #
transform $-1 -1 1 0 0 0 -3.8285889215894375e-016 -1 0 1 -3.8285889215894375e-016 0 4.4305000000000003 1.125 1 rotate no_reflect no_shear #
rgb_color-st-attrib $-1 -1 $26 $-1 $7 0.5 1 1 #
lump $-1 -1 $-1 $-1 $27 $7 #
transform $-1 -1 1 0 0 0 1 0 0 0 1 -2.7755575615628914e-017 4.4305000000000003 1.125 1 no_rotate no_reflect no_shear #
rgb_color-st-attrib $-1 -1 $28 $-1 $8 1 0.5 1 #
lump $-1 -1 $-1 $-1 $29 $8 #
transform $-1 -1 1 0 0 0 1 0 0 0 1 -2.7755575615628914e-017 4.4305000000000003 1.125 1 no_rotate no_reflect no_shear #
face $30 -1 $-1 $31 $32 $9 $-1 $33 forward single #
shell $-1 -1 $-1 $-1 $-1 $34 $-1 $11 #
model_id-kcp-attrib $-1 -1 $-1 $13 $6 1 1021323916 1021323916 -915144701 1 #
shell $-1 -1 $-1 $-1 $-1 $35 $-1 $14 #
model_id-kcp-attrib $-1 -1 $-1 $16 $7 1 1021323916 1021323916 -911867900 1 #
shell $-1 -1 $-1 $-1 $-1 $36 $-1 $17 #
model_id-kcp-attrib $-1 -1 $-1 $19 $8 1 1021323916 1021323917 -919863291 1 #
shell $-1 -1 $-1 $-1 $-1 $37 $-1 $20 #
model_id-kcp-attrib $-1 -1 $-1 $-1 $22 1 1021323916 1021323916 -917110783 2 #
face $38 -1 $-1 $39 $40 $9 $-1 $41 reversed single #
loop $-1 -1 $-1 $42 $43 $22 #
plane-surface $-1 -1 $-1 0 4.468 1.125 0 1 0 0.70710678118654735 0 0.70710678118654735 forward_v I I I I #
face $-1 -1 $-1 $44 $45 $23 $-1 $46 forward single #
face $-1 -1 $-1 $47 $48 $25 $-1 $49 forward single #
face $-1 -1 $-1 $50 $51 $27 $-1 $52 reversed single #
face $-1 -1 $-1 $53 $54 $29 $-1 $55 forward single #
model_id-kcp-attrib $-1 -1 $-1 $-1 $31 1 1021323916 1021323916 -917110783 3 #
face $56 -1 $-1 $57 $58 $9 $-1 $59 reversed single #
loop $-1 -1 $-1 $60 $61 $31 #
plane-surface $-1 -1 $-1 0 4.4370000000000003 1.125 0 1 0 0.70710678118654735 0 0.70710678118654735 forward_v I I I I #
loop $62 -1 $-1 $-1 $63 $22 #
coedge $-1 -1 $-1 $43 $43 $64 $65 forward $32 $-1 #
face $-1 -1 $-1 $66 $67 $23 $-1 $68 reversed single #
loop $-1 -1 $-1 $-1 $69 $34 #
plane-surface $-1 -1 $-1 0 0 0.28100000000000003 0 0 1 1 0 0 forward_v I I I I #
face $-1 -1 $-1 $70 $71 $25 $-1 $72 forward single #
loop $-1 -1 $-1 $73 $74 $35 #
cone-surface $-1 -1 $-1 0 0 0 0 0 1 0.12499999999999997 0 0 1 I I 0 1 0.12499999999999997 forward I I I I #
face $-1 -1 $-1 $75 $76 $27 $-1 $52 reversed single #
loop $-1 -1 $-1 $-1 $77 $36 #
cone-surface $-1 -1 $-1 2.775557561562891e-017 0.037499999999999645 0 0 1 0 -0.19869700551341979 0 -0.19869700551341984 1 I I 0 1 0.28099999999999997 forward I I I I #
face $-1 -1 $-1 $78 $79 $29 $-1 $80 forward single #
loop $-1 -1 $-1 $81 $82 $37 #
cone-surface $-1 -1 $-1 2.7755575615628914e-017 0.0065000000000000613 0 0 -1 0 -0.13258252147247762 0 -0.13258252147247762 1 I I 0 -1 0.18749999999999994 forward I I I I #
model_id-kcp-attrib $-1 -1 $-1 $-1 $39 1 1021323916 1021323916 -917110783 4 #
face $83 -1 $-1 $84 $85 $9 $-1 $86 reversed single #
loop $87 -1 $-1 $88 $89 $39 #
plane-surface $-1 -1 $-1 0 4.3930000000000007 1.125 0 1 0 0.70710678118654735 0 0.70710678118654735 forward_v I I I I #
loop $-1 -1 $-1 $-1 $90 $31 #
coedge $-1 -1 $-1 $61 $61 $91 $92 forward $40 $-1 #
model_id-kcp-attrib $-1 -1 $-1 $-1 $42 1 1021323916 1021323916 -917110783 12 #
coedge $-1 -1 $-1 $63 $63 $93 $94 forward $42 $-1 #
coedge $-1 -1 $-1 $64 $64 $43 $65 reversed $95 $-1 #
edge $96 -1 $-1 $97 0 $97 6.2831853071795862 $64 $98 forward @7 unknown #
face $99 -1 $-1 $100 $101 $23 $-1 $102 reversed single #
loop $-1 -1 $-1 $-1 $103 $44 #
plane-surface $-1 -1 $-1 0 0 -0.28100000000000003 0 0 1 1 0 0 forward_v I I I I #
coedge $-1 -1 $-1 $104 $105 $106 $107 forward $45 $-1 #
face $-1 -1 $-1 $-1 $108 $25 $-1 $109 forward single #
loop $-1 -1 $-1 $-1 $110 $47 #
plane-surface $-1 -1 $-1 0 0 -0.037499999999999645 0 0 -1 -1 0 0 forward_v I I I I #
loop $-1 -1 $-1 $-1 $111 $35 #
coedge $-1 -1 $-1 $74 $74 $110 $112 reversed $48 $-1 #
face $-1 -1 $-1 $113 $114 $27 $-1 $52 reversed single #
loop $-1 -1 $-1 $-1 $115 $50 #
coedge $-1 -1 $-1 $116 $117 $118 $119 reversed $51 $-1 #
face $-1 -1 $-1 $120 $121 $29 $-1 $122 reversed single #
loop $-1 -1 $-1 $123 $124 $53 #
cone-surface $-1 -1 $-1 2.775557561562891e-017 0.0065000000000000613 0 0 -1 0 -0.19869700551341979 0 -0.19869700551341984 1 I I 0 1 0.28099999999999997 forward I I I I #
loop $-1 -1 $-1 $-1 $125 $37 #
coedge $-1 -1 $-1 $82 $82 $126 $127 forward $54 $-1 #
model_id-kcp-attrib $-1 -1 $-1 $-1 $57 1 1021323916 1021323916 -917110783 5 #
face $128 -1 $-1 $129 $130 $9 $-1 $131 forward single #
loop $132 -1 $-1 $133 $93 $57 #
cone-surface $-1 -1 $-1 0 4.3892500000000005 1.125 0 1 0 -0.088388347648318419 0 -0.088388347648318419 1 I I 0 1 0.12499999999999999 forward I I I I #
model_id-kcp-attrib $-1 -1 $-1 $-1 $58 1 1021323916 1021323916 -917110783 13 #
loop $-1 -1 $-1 $-1 $134 $39 #
coedge $-1 -1 $-1 $89 $89 $135 $136 forward $58 $-1 #
coedge $-1 -1 $-1 $90 $90 $137 $138 forward $60 $-1 #
coedge $-1 -1 $-1 $91 $91 $61 $92 reversed $139 $-1 #
edge $140 -1 $-1 $141 0 $141 6.2831853071795862 $91 $142 forward @7 unknown #
coedge $-1 -1 $-1 $93 $93 $63 $94 reversed $85 $-1 #
edge $143 -1 $-1 $144 -3.1415926535897931 $144 3.1415926535897931 $63 $145 forward @7 unknown #
loop $-1 -1 $-1 $-1 $64 $84 #
attrib_edge_convexity-kcp-attrib $-1 -1 $146 $-1 $65 1 #
vertex $-1 -1 $-1 $65 $147 #
ellipse-curve $-1 -1 $-1 0 4.468 1.125 0 1 0 0.19869700551341982 0 0.19869700551341982 1 I I #
model_id-kcp-attrib $-1 -1 $-1 $-1 $66 1 1021323916 1021323916 -917110782 3 #
face $-1 -1 $-1 $148 $149 $23 $-1 $150 reversed single #
loop $-1 -1 $-1 $-1 $151 $66 #
plane-surface $-1 -1 $-1 0 -0.037499999999999645 0 0 1 0 0 0 1 forward_v I I I I #
coedge $-1 -1 $-1 $152 $153 $154 $155 forward $67 $-1 #
coedge $-1 -1 $-1 $156 $69 $157 $158 forward $45 $-1 #
coedge $-1 -1 $-1 $69 $156 $159 $160 forward $45 $-1 #
coedge $-1 -1 $-1 $161 $162 $69 $107 reversed $163 $-1 #
edge $-1 -1 $-1 $164 -0.037499999999999645 $165 0.037499999999999645 $106 $166 forward @7 unknown #
loop $-1 -1 $-1 $-1 $167 $70 #
plane-surface $-1 -1 $-1 0 0 0.037499999999999645 0 0 1 1 0 0 forward_v I I I I #
coedge $-1 -1 $-1 $110 $110 $74 $112 forward $71 $-1 #
coedge $-1 -1 $-1 $111 $111 $167 $168 reversed $73 $-1 #
edge $-1 -1 $-1 $169 0 $169 6.2831853071795862 $110 $170 forward @7 unknown #
face $-1 -1 $-1 $171 $172 $27 $-1 $52 reversed single #
loop $-1 -1 $-1 $-1 $173 $75 #
coedge $-1 -1 $-1 $174 $175 $176 $177 reversed $76 $-1 #
coedge $-1 -1 $-1 $178 $77 $179 $180 forward $51 $-1 #
coedge $-1 -1 $-1 $77 $178 $181 $182 reversed $51 $-1 #
coedge $-1 -1 $-1 $183 $184 $77 $119 forward $185 $-1 #
edge $-1 -1 $-1 $186 0.7853981633974485 $187 2.3561944901923448 $118 $188 forward @7 unknown #
face $-1 -1 $-1 $-1 $189 $29 $-1 $190 forward single #
loop $-1 -1 $-1 $191 $192 $78 #
plane-surface $-1 -1 $-1 0.015657918177037093 -0.037499999999999534 0.015657918177037058 0 1 0 0 0 1 forward_v I I I I #
loop $-1 -1 $-1 $-1 $193 $53 #
coedge $-1 -1 $-1 $124 $124 $192 $194 forward $79 $-1 #
coedge $-1 -1 $-1 $125 $125 $195 $196 reversed $81 $-1 #
coedge $-1 -1 $-1 $126 $126 $82 $127 reversed $191 $-1 #
edge $-1 -1 $-1 $197 -3.1415926535897931 $197 3.1415926535897931 $82 $198 forward @7 unknown #
model_id-kcp-attrib $-1 -1 $-1 $-1 $84 1 1021323916 1021323916 -917110783 6 #
face $199 -1 $-1 $-1 $200 $9 $-1 $201 forward single #
loop $-1 -1 $-1 $95 $137 $84 #
cone-surface $-1 -1 $-1 0 4.3892500000000005 1.125 0 1 0 -0.19869700551341982 0 -0.19869700551341982 1 I I 0 1 0.28099999999999997 forward I I I I #
model_id-kcp-attrib $-1 -1 $-1 $-1 $85 1 1021323916 1021323916 -917110783 10 #
loop $202 -1 $-1 $-1 $135 $57 #
coedge $-1 -1 $-1 $134 $134 $203 $204 forward $88 $-1 #
coedge $-1 -1 $-1 $135 $135 $89 $136 reversed $133 $-1 #
edge $205 -1 $-1 $206 -3.1415926535897931 $206 3.1415926535897931 $135 $207 forward @7 unknown #
coedge $-1 -1 $-1 $137 $137 $90 $138 reversed $130 $-1 #
edge $208 -1 $-1 $209 -3.1415926535897931 $209 3.1415926535897931 $90 $210 forward @7 unknown #
loop $-1 -1 $-1 $-1 $91 $129 #
attrib_edge_convexity-kcp-attrib $-1 -1 $211 $-1 $92 2 #
vertex $-1 -1 $-1 $92 $212 #
ellipse-curve $-1 -1 $-1 0 4.4370000000000003 1.125 0 1 0 0.13258252147247762 0 0.13258252147247762 1 I I #
attrib_edge_convexity-kcp-attrib $-1 -1 $213 $-1 $94 1 #
vertex $214 -1 $-1 $94 $215 #
ellipse-curve $-1 -1 $-1 0 4.468 1.125 0 -1 0 0.088388347648318419 0 0.088388347648318419 1 I I #
convexity-sys-attrib $-1 -1 $-1 $96 $65 #
point $-1 -1 $-1 0.19869700551341982 4.468 1.3236970055134198 #
face $216 -1 $-1 $217 $218 $23 $-1 $219 reversed single #
loop $-1 -1 $-1 $-1 $220 $100 #
plane-surface $-1 -1 $-1 -0.28099999999999992 0 0 1 0 0 0 0 -1 forward_v I I I I #
coedge $-1 -1 $-1 $221 $159 $222 $223 forward $101 $-1 #
coedge $-1 -1 $-1 $224 $103 $221 $225 forward $67 $-1 #
coedge $-1 -1 $-1 $103 $224 $226 $227 forward $67 $-1 #
coedge $-1 -1 $-1 $162 $161 $103 $155 reversed $163 $-1 #
edge $-1 -1 $-1 $228 -0.037499999999999645 $229 0.037499999999999645 $154 $230 forward @7 unknown #
coedge $-1 -1 $-1 $105 $104 $231 $232 forward $45 $-1 #
coedge $-1 -1 $-1 $233 $234 $104 $158 reversed $218 $-1 #
edge $-1 -1 $-1 $165 -0.28099999999999992 $235 0.28099999999999992 $157 $236 forward @7 unknown #
coedge $-1 -1 $-1 $151 $237 $105 $160 reversed $101 $-1 #
edge $-1 -1 $-1 $238 -0.28099999999999992 $164 0.28099999999999992 $159 $239 forward @7 unknown #
coedge $-1 -1 $-1 $154 $106 $237 $240 forward $163 $-1 #
coedge $-1 -1 $-1 $106 $154 $233 $241 reversed $163 $-1 #
loop $-1 -1 $-1 $-1 $161 $217 #
vertex $-1 -1 $-1 $107 $242 #
vertex $-1 -1 $-1 $107 $243 #
straight-curve $-1 -1 $-1 0.28099999999999992 0 0.28100000000000003 0 1 0 I I #
coedge $-1 -1 $-1 $167 $167 $111 $168 forward $108 $-1 #
edge $-1 -1 $-1 $244 0 $244 6.2831853071795862 $167 $245 forward @7 unknown #
vertex $-1 -1 $-1 $112 $246 #
ellipse-curve $-1 -1 $-1 0 0 -0.037499999999999645 0 0 -1 0.12499999999999997 0 0 1 I I #
face $-1 -1 $-1 $247 $248 $27 $-1 $249 forward single #
loop $-1 -1 $-1 $-1 $250 $113 #
coedge $-1 -1 $-1 $251 $252 $250 $253 forward $114 $-1 #
coedge $-1 -1 $-1 $254 $115 $255 $256 reversed $76 $-1 #
coedge $-1 -1 $-1 $115 $254 $117 $182 forward $76 $-1 #
coedge $-1 -1 $-1 $257 $258 $115 $177 forward $259 $-1 #
edge $-1 -1 $-1 $260 2.3561944901923448 $261 3.9269908169872414 $176 $262 forward @7 unknown #
coedge $-1 -1 $-1 $117 $116 $263 $264 reversed $51 $-1 #
coedge $-1 -1 $-1 $252 $251 $265 $180 reversed $114 $-1 #
edge $-1 -1 $-1 $186 -0.074999999999999289 $266 0 $265 $267 forward @7 unknown #
coedge $-1 -1 $-1 $268 $269 $270 $182 forward $271 $-1 #
edge $-1 -1 $-1 $187 -0.074999999999999289 $261 0 $181 $272 forward @7 unknown #
coedge $-1 -1 $-1 $184 $118 $269 $273 reversed $185 $-1 #
coedge $-1 -1 $-1 $118 $183 $274 $275 forward $185 $-1 #
loop $-1 -1 $-1 $-1 $118 $276 #
vertex $-1 -1 $-1 $277 $278 #
vertex $-1 -1 $-1 $279 $280 #
ellipse-curve $-1 -1 $-1 2.775557561562891e-017 -0.037499999999999645 0 0 1 0 -0.19869700551341979 0 -0.19869700551341984 1 I I #
loop $-1 -1 $-1 $281 $282 $120 #
plane-surface $-1 -1 $-1 0.015657918177037093 0.0065000000000000613 0.015657918177037058 0 1 0 0 0 1 forward_v I I I I #
loop $-1 -1 $-1 $-1 $126 $78 #
coedge $-1 -1 $-1 $192 $192 $124 $194 reversed $121 $-1 #
coedge $-1 -1 $-1 $193 $193 $282 $283 reversed $123 $-1 #
edge $-1 -1 $-1 $284 -3.1415926535897931 $284 3.1415926535897931 $124 $285 forward @7 unknown #
coedge $-1 -1 $-1 $195 $195 $125 $196 forward $281 $-1 #
edge $286 -1 $-1 $287 -3.1415926535897931 $287 3.1415926535897931 $125 $288 forward @7 unknown #
vertex $-1 -1 $-1 $127 $289 #
ellipse-curve $-1 -1 $-1 2.7755575615628914e-017 -0.037499999999999534 0 0 -1 0 -0.13258252147247762 0 -0.13258252147247762 1 I I #
model_id-kcp-attrib $-1 -1 $-1 $-1 $129 1 1021323916 1021323916 -917110783 7 #
loop $-1 -1 $-1 $139 $203 $129 #
cone-surface $-1 -1 $-1 0 4.3892500000000005 1.125 0 1 0 -0.13258252147247762 0 -0.13258252147247762 1 I I 0 1 0.18749999999999997 forward I I I I #
model_id-kcp-attrib $-1 -1 $-1 $-1 $133 1 1021323916 1021323916 -917110783 11 #
coedge $-1 -1 $-1 $203 $203 $134 $204 reversed $200 $-1 #
edge $-1 -1 $-1 $290 -3.1415926535897931 $290 3.1415926535897931 $134 $291 forward @7 unknown #
attrib_edge_convexity-kcp-attrib $-1 -1 $292 $-1 $136 1 #
vertex $293 -1 $-1 $136 $294 #
ellipse-curve $-1 -1 $-1 0 4.3930000000000007 1.125 0 1 0 0.088388347648318419 0 0.088388347648318419 1 I I #
attrib_edge_convexity-kcp-attrib $-1 -1 $295 $-1 $138 1 #
vertex $-1 -1 $-1 $138 $296 #
ellipse-curve $-1 -1 $-1 0 4.4370000000000003 1.125 0 -1 0 0.19869700551341982 0 0.19869700551341982 1 I I #
convexity-sys-attrib $-1 -1 $-1 $140 $92 #
point $-1 -1 $-1 0.13258252147247762 4.4370000000000003 1.2575825214724776 #
convexity-sys-attrib $-1 -1 $-1 $143 $94 #
model_id-kcp-attrib $-1 -1 $-1 $-1 $144 1 1021323916 1021323916 -917110783 14 #
point $-1 -1 $-1 -0.088388347648318419 4.468 1.0366116523516815 #
model_id-kcp-attrib $-1 -1 $-1 $-1 $148 1 1021323916 1021323916 -917110782 2 #
face $-1 -1 $-1 $-1 $163 $23 $-1 $297 reversed single #
loop $-1 -1 $-1 $-1 $233 $148 #
plane-surface $-1 -1 $-1 0 0.037499999999999645 0 0 -1 0 0 0 -1 forward_v I I I I #
coedge $-1 -1 $-1 $298 $231 $234 $299 forward $149 $-1 #
coedge $-1 -1 $-1 $237 $151 $152 $225 reversed $101 $-1 #
coedge $-1 -1 $-1 $231 $298 $151 $223 reversed $149 $-1 #
edge $-1 -1 $-1 $238 -0.28100000000000003 $300 0.28100000000000003 $222 $301 forward @7 unknown #
coedge $-1 -1 $-1 $153 $152 $298 $302 forward $67 $-1 #
edge $-1 -1 $-1 $229 -0.28099999999999992 $300 0.28099999999999992 $221 $303 forward @7 unknown #
coedge $-1 -1 $-1 $234 $233 $153 $227 reversed $218 $-1 #
edge $-1 -1 $-1 $304 -0.28099999999999992 $228 0.28099999999999992 $226 $305 forward @7 unknown #
vertex $-1 -1 $-1 $155 $306 #
vertex $-1 -1 $-1 $240 $307 #
straight-curve $-1 -1 $-1 0.28099999999999992 0 -0.28100000000000003 0 -1 0 I I #
coedge $-1 -1 $-1 $220 $222 $156 $232 reversed $149 $-1 #
edge $-1 -1 $-1 $235 -0.037499999999999645 $238 0.037499999999999645 $231 $308 forward @7 unknown #
coedge $-1 -1 $-1 $226 $157 $162 $241 forward $218 $-1 #
coedge $-1 -1 $-1 $157 $226 $220 $299 reversed $218 $-1 #
vertex $-1 -1 $-1 $158 $309 #
straight-curve $-1 -1 $-1 0 0.037499999999999645 0.28100000000000003 -1 0 0 I I #
coedge $-1 -1 $-1 $159 $221 $161 $240 reversed $101 $-1 #
vertex $-1 -1 $-1 $232 $310 #
straight-curve $-1 -1 $-1 0 -0.037499999999999645 0.28100000000000003 1 0 0 I I #
edge $-1 -1 $-1 $164 -0.28100000000000003 $229 0.28100000000000003 $161 $311 forward @7 unknown #
edge $-1 -1 $-1 $165 -0.28100000000000003 $228 0.28100000000000003 $162 $312 forward @7 unknown #
point $-1 -1 $-1 0.28099999999999992 -0.037499999999999645 0.28100000000000003 #
point $-1 -1 $-1 0.28099999999999992 0.037499999999999645 0.28100000000000003 #
vertex $-1 -1 $-1 $168 $313 #
ellipse-curve $-1 -1 $-1 0 0 0.037499999999999645 0 0 1 0.12499999999999997 0 0 1 I I #
point $-1 -1 $-1 0.12499999999999997 0 -0.037499999999999645 #
face $-1 -1 $-1 $314 $315 $27 $-1 $316 reversed single #
loop $-1 -1 $-1 $-1 $270 $171 #
plane-surface $-1 -1 $-1 0 0 0.28100000000000003 0 0 1 1 0 0 forward_v I I I I #
coedge $-1 -1 $-1 $317 $318 $319 $253 reversed $172 $-1 #
coedge $-1 -1 $-1 $179 $173 $320 $321 reversed $114 $-1 #
coedge $-1 -1 $-1 $173 $179 $322 $323 reversed $114 $-1 #
edge $-1 -1 $-1 $324 -0.074999999999999289 $325 0 $319 $326 forward @7 unknown #
coedge $-1 -1 $-1 $175 $174 $327 $328 reversed $76 $-1 #
coedge $-1 -1 $-1 $329 $330 $331 $256 forward $332 $-1 #
edge $-1 -1 $-1 $333 -0.074999999999999289 $260 0 $255 $334 forward @7 unknown #
coedge $-1 -1 $-1 $258 $176 $335 $336 reversed $259 $-1 #
coedge $-1 -1 $-1 $176 $257 $329 $337 forward $259 $-1 #
loop $-1 -1 $-1 $-1 $176 $338 #
vertex $-1 -1 $-1 $339 $340 #
vertex $-1 -1 $-1 $341 $342 #
ellipse-curve $-1 -1 $-1 2.775557561562891e-017 0.037499999999999645 0 0 -1 0 -0.19869700551341979 0 -0.19869700551341984 1 I I #
coedge $-1 -1 $-1 $343 $344 $178 $264 forward $345 $-1 #
edge $-1 -1 $-1 $261 -2.3561944901923448 $266 -0.7853981633974485 $263 $262 forward @7 unknown #
coedge $-1 -1 $-1 $346 $347 $348 $180 forward $315 $-1 #
vertex $-1 -1 $-1 $349 $350 #
straight-curve $-1 -1 $-1 -0.28099999999999992 0.037499999999999645 0 0 1 0 I I #
coedge $-1 -1 $-1 $351 $181 $344 $341 forward $271 $-1 #
coedge $-1 -1 $-1 $181 $351 $183 $273 forward $271 $-1 #
coedge $-1 -1 $-1 $352 $335 $175 $182 reversed $248 $-1 #
loop $-1 -1 $-1 $-1 $181 $353 #
straight-curve $-1 -1 $-1 2.775557561562891e-017 0.037499999999999645 0.28100000000000003 0 1 0 I I #
edge $-1 -1 $-1 $354 -0.28099999999999992 $187 2.775557561562891e-017 $183 $355 forward @7 unknown #
coedge $-1 -1 $-1 $356 $348 $184 $275 reversed $357 $-1 #
edge $-1 -1 $-1 $354 -0.28100000000000003 $186 0 $274 $358 forward @7 unknown #
face $-1 -1 $-1 $359 $185 $27 $-1 $360 reversed single #
edge $-1 -1 $-1 $186 0 $361 0.28100000000000003 $347 $358 forward @7 unknown #
point $-1 -1 $-1 -0.28099999999999992 -0.037499999999999645 0 #
edge $-1 -1 $-1 $187 2.775557561562891e-017 $362 0.28099999999999992 $363 $355 forward @7 unknown #
point $-1 -1 $-1 2.775557561562891e-017 -0.037499999999999645 0.28100000000000003 #
loop $-1 -1 $-1 $-1 $195 $120 #
coedge $-1 -1 $-1 $282 $282 $193 $283 forward $189 $-1 #
edge $364 -1 $-1 $365 -3.1415926535897931 $365 3.1415926535897931 $193 $366 forward @7 unknown #
vertex $-1 -1 $-1 $194 $367 #
ellipse-curve $-1 -1 $-1 2.775557561562891e-017 -0.037499999999999534 0 0 1 0 -0.19869700551341979 0 -0.19869700551341984 1 I I #
convexity-sys-attrib $-1 -1 $-1 $-1 $196 #
vertex $-1 -1 $-1 $196 $368 #
ellipse-curve $-1 -1 $-1 2.7755575615628914e-017 0.0065000000000000613 0 0 -1 0 -0.13258252147247762 0 -0.13258252147247762 1 I I #
point $-1 -1 $-1 0.13258252147247765 -0.037499999999999645 0.13258252147247762 #
vertex $-1 -1 $-1 $204 $369 #
ellipse-curve $-1 -1 $-1 0 4.3930000000000007 1.125 0 -1 0 0.13258252147247762 0 0.13258252147247762 1 I I #
convexity-sys-attrib $-1 -1 $-1 $205 $136 #
model_id-kcp-attrib $-1 -1 $-1 $-1 $206 1 1021323916 1021323916 -917110783 15 #
point $-1 -1 $-1 -0.088388347648318419 4.3930000000000007 1.0366116523516815 #
convexity-sys-attrib $-1 -1 $-1 $208 $138 #
point $-1 -1 $-1 -0.19869700551341982 4.4370000000000003 0.92630299448658016 #
plane-surface $-1 -1 $-1 0.28099999999999992 0 0 -1 0 0 0 0 1 forward_v I I I I #
coedge $-1 -1 $-1 $222 $220 $224 $302 reversed $149 $-1 #
edge $-1 -1 $-1 $235 -0.28100000000000003 $304 0.28100000000000003 $234 $370 forward @7 unknown #
vertex $-1 -1 $-1 $302 $371 #
straight-curve $-1 -1 $-1 -0.28099999999999992 -0.037499999999999645 0 0 0 -1 I I #
edge $-1 -1 $-1 $300 -0.037499999999999645 $304 0.037499999999999645 $298 $372 forward @7 unknown #
straight-curve $-1 -1 $-1 0 -0.037499999999999645 -0.28100000000000003 -1 0 0 I I #
vertex $-1 -1 $-1 $227 $373 #
straight-curve $-1 -1 $-1 0 0.037499999999999645 -0.28100000000000003 1 0 0 I I #
point $-1 -1 $-1 0.28099999999999992 0.037499999999999645 -0.28100000000000003 #
point $-1 -1 $-1 0.28099999999999992 -0.037499999999999645 -0.28100000000000003 #
straight-curve $-1 -1 $-1 -0.28099999999999992 0 0.28100000000000003 0 -1 0 I I #
point $-1 -1 $-1 -0.28099999999999992 0.037499999999999645 0.28100000000000003 #
point $-1 -1 $-1 -0.28099999999999992 -0.037499999999999645 0.28100000000000003 #
straight-curve $-1 -1 $-1 0.28099999999999992 -0.037499999999999645 0 0 0 -1 I I #
straight-curve $-1 -1 $-1 0.28099999999999992 0.037499999999999645 0 0 0 -1 I I #
point $-1 -1 $-1 0.12499999999999997 0 0.037499999999999645 #
face $-1 -1 $-1 $374 $375 $27 $-1 $376 reversed single #
loop $-1 -1 $-1 $-1 $265 $247 #
plane-surface $-1 -1 $-1 -0.28099999999999992 0 0 1 0 0 0 0 -1 forward_v I I I I #
coedge $-1 -1 $-1 $377 $250 $378 $379 reversed $172 $-1 #
coedge $-1 -1 $-1 $250 $377 $380 $381 reversed $172 $-1 #
coedge $-1 -1 $-1 $382 $383 $384 $253 forward $385 $-1 #
coedge $-1 -1 $-1 $386 $387 $251 $321 forward $388 $-1 #
edge $-1 -1 $-1 $266 -0.7853981633974485 $325 0.78539816339744817 $320 $262 forward @7 unknown #
coedge $-1 -1 $-1 $389 $390 $252 $323 forward $391 $-1 #
edge $-1 -1 $-1 $324 -0.78539816339744817 $186 0.7853981633974485 $322 $188 forward @7 unknown #
vertex $-1 -1 $-1 $392 $393 #
vertex $-1 -1 $-1 $394 $395 #
straight-curve $-1 -1 $-1 2.775557561562891e-017 0.037499999999999645 -0.28100000000000003 0 1 0 I I #
coedge $-1 -1 $-1 $396 $363 $254 $328 forward $397 $-1 #
edge $-1 -1 $-1 $187 2.3561944901923448 $333 3.9269908169872414 $327 $188 forward @7 unknown #
coedge $-1 -1 $-1 $398 $255 $258 $337 reversed $332 $-1 #
coedge $-1 -1 $-1 $255 $398 $396 $399 forward $332 $-1 #
coedge $-1 -1 $-1 $400 $401 $377 $256 reversed $375 $-1 #
loop $-1 -1 $-1 $-1 $255 $402 #
vertex $-1 -1 $-1 $403 $404 #
straight-curve $-1 -1 $-1 0.28099999999999992 0.037499999999999645 0 0 1 0 I I #
coedge $-1 -1 $-1 $270 $405 $257 $336 forward $248 $-1 #
edge $-1 -1 $-1 $406 -0.28099999999999992 $261 -2.775557561562891e-017 $257 $407 forward @7 unknown #
edge $-1 -1 $-1 $406 -0.28100000000000003 $260 0 $329 $408 forward @7 unknown #
face $-1 -1 $-1 $409 $259 $27 $-1 $410 reversed single #
edge $-1 -1 $-1 $260 0 $411 0.28100000000000003 $401 $408 forward @7 unknown #
point $-1 -1 $-1 0.28099999999999992 0.037499999999999645 0 #
edge $-1 -1 $-1 $261 -2.775557561562891e-017 $412 0.28099999999999992 $344 $407 forward @7 unknown #
point $-1 -1 $-1 2.775557561562891e-017 0.037499999999999645 0.28100000000000003 #
coedge $-1 -1 $-1 $344 $263 $413 $414 reversed $345 $-1 #
coedge $-1 -1 $-1 $263 $343 $268 $341 reversed $345 $-1 #
loop $-1 -1 $-1 $-1 $263 $409 #
coedge $-1 -1 $-1 $415 $265 $387 $349 forward $315 $-1 #
coedge $-1 -1 $-1 $265 $415 $389 $277 reversed $315 $-1 #
coedge $-1 -1 $-1 $274 $413 $116 $180 reversed $357 $-1 #
edge $-1 -1 $-1 $266 0 $416 0.28100000000000003 $387 $417 forward @7 unknown #
point $-1 -1 $-1 -0.28099999999999992 0.037499999999999645 0 #
coedge $-1 -1 $-1 $269 $268 $356 $418 forward $271 $-1 #
coedge $-1 -1 $-1 $405 $270 $363 $279 forward $248 $-1 #
face $-1 -1 $-1 $419 $271 $27 $-1 $249 forward single #
vertex $-1 -1 $-1 $418 $420 #
straight-curve $-1 -1 $-1 0 -0.037499999999999645 0.28100000000000003 1 0 0 I I #
coedge $-1 -1 $-1 $413 $274 $351 $418 reversed $357 $-1 #
loop $-1 -1 $-1 $-1 $348 $421 #
straight-curve $-1 -1 $-1 -0.28099999999999992 -0.037499999999999645 0 0 0 -1 I I #
face $-1 -1 $-1 $422 $397 $27 $-1 $360 reversed single #
plane-surface $-1 -1 $-1 0 -0.037499999999999645 0 0 1 0 0 0 1 forward_v I I I I #
vertex $-1 -1 $-1 $423 $424 #
vertex $-1 -1 $-1 $425 $426 #
coedge $-1 -1 $-1 $327 $396 $352 $279 reversed $397 $-1 #
convexity-sys-attrib $-1 -1 $-1 $-1 $283 #
vertex $-1 -1 $-1 $283 $427 #
ellipse-curve $-1 -1 $-1 2.775557561562891e-017 0.0065000000000000613 0 0 1 0 -0.19869700551341979 0 -0.19869700551341984 1 I I #
point $-1 -1 $-1 0.19869700551341984 -0.037499999999999534 0.19869700551341982 #
point $-1 -1 $-1 0.13258252147247765 0.0064999999999999503 0.13258252147247762 #
point $-1 -1 $-1 -0.13258252147247762 4.3930000000000007 0.99241747852752238 #
straight-curve $-1 -1 $-1 -0.28099999999999992 0.037499999999999645 0 0 0 -1 I I #
point $-1 -1 $-1 -0.28099999999999992 -0.037499999999999645 -0.28100000000000003 #
straight-curve $-1 -1 $-1 -0.28099999999999992 0 -0.28100000000000003 0 1 0 I I #
point $-1 -1 $-1 -0.28099999999999992 0.037499999999999645 -0.28100000000000003 #
face $-1 -1 $-1 $338 $428 $27 $-1 $410 reversed single #
loop $-1 -1 $-1 $-1 $331 $314 #
plane-surface $-1 -1 $-1 0.28099999999999992 0 0 -1 0 0 0 0 1 forward_v I I I I #
coedge $-1 -1 $-1 $318 $317 $174 $256 forward $172 $-1 #
coedge $-1 -1 $-1 $429 $430 $317 $379 forward $431 $-1 #
edge $-1 -1 $-1 $333 -2.3561944901923448 $324 -0.78539816339744817 $378 $188 forward @7 unknown #
coedge $-1 -1 $-1 $432 $433 $318 $381 forward $428 $-1 #
edge $-1 -1 $-1 $325 0.78539816339744817 $260 2.3561944901923448 $380 $262 forward @7 unknown #
coedge $-1 -1 $-1 $434 $319 $433 $394 forward $385 $-1 #
coedge $-1 -1 $-1 $319 $434 $429 $435 forward $385 $-1 #
coedge $-1 -1 $-1 $436 $437 $173 $253 reversed $438 $-1 #
loop $-1 -1 $-1 $-1 $319 $419 #
coedge $-1 -1 $-1 $387 $320 $437 $439 reversed $388 $-1 #
coedge $-1 -1 $-1 $320 $386 $346 $349 reversed $388 $-1 #
loop $-1 -1 $-1 $-1 $320 $440 #
coedge $-1 -1 $-1 $390 $322 $347 $277 forward $391 $-1 #
coedge $-1 -1 $-1 $322 $389 $436 $392 reversed $391 $-1 #
loop $-1 -1 $-1 $-1 $322 $441 #
edge $-1 -1 $-1 $324 -2.775557561562891e-017 $361 0.28099999999999992 $390 $442 forward @7 unknown #
point $-1 -1 $-1 2.775557561562891e-017 -0.037499999999999645 -0.28100000000000003 #
edge $-1 -1 $-1 $325 2.775557561562891e-017 $411 0.28099999999999992 $433 $443 forward @7 unknown #
point $-1 -1 $-1 2.775557561562891e-017 0.037499999999999645 -0.28100000000000003 #
coedge $-1 -1 $-1 $363 $327 $330 $399 reversed $397 $-1 #
loop $-1 -1 $-1 $-1 $327 $359 #
coedge $-1 -1 $-1 $330 $329 $405 $425 reversed $332 $-1 #
edge $-1 -1 $-1 $362 -0.28100000000000003 $333 0 $330 $444 forward @7 unknown #
coedge $-1 -1 $-1 $445 $331 $430 $403 forward $375 $-1 #
coedge $-1 -1 $-1 $331 $445 $432 $339 reversed $375 $-1 #
face $-1 -1 $-1 $-1 $332 $27 $-1 $376 reversed single #
edge $-1 -1 $-1 $333 0 $446 0.28100000000000003 $400 $444 forward @7 unknown #
point $-1 -1 $-1 0.28099999999999992 -0.037499999999999645 0 #
coedge $-1 -1 $-1 $335 $352 $398 $425 forward $248 $-1 #
vertex $-1 -1 $-1 $425 $447 #
straight-curve $-1 -1 $-1 0 0.037499999999999645 0.28100000000000003 -1 0 0 I I #
straight-curve $-1 -1 $-1 0.28099999999999992 0.037499999999999645 0 0 0 -1 I I #
face $-1 -1 $-1 $440 $345 $27 $-1 $410 reversed single #
plane-surface $-1 -1 $-1 0 0.037499999999999645 0 0 -1 0 0 0 -1 forward_v I I I I #
vertex $-1 -1 $-1 $448 $449 #
vertex $-1 -1 $-1 $341 $450 #
coedge $-1 -1 $-1 $348 $356 $343 $414 forward $357 $-1 #
edge $-1 -1 $-1 $412 -0.28100000000000003 $266 0 $343 $417 forward @7 unknown #
coedge $-1 -1 $-1 $347 $346 $451 $423 reversed $315 $-1 #
vertex $-1 -1 $-1 $439 $452 #
straight-curve $-1 -1 $-1 -0.28099999999999992 0.037499999999999645 0 0 0 -1 I I #
edge $-1 -1 $-1 $412 -0.037499999999999645 $354 0.037499999999999645 $356 $453 forward @7 unknown #
face $-1 -1 $-1 $421 $385 $27 $-1 $454 reversed single #
point $-1 -1 $-1 -0.28099999999999992 -0.037499999999999645 0.28100000000000003 #
face $-1 -1 $-1 $402 $357 $27 $-1 $316 reversed single #
face $-1 -1 $-1 $455 $431 $27 $-1 $360 reversed single #
edge $-1 -1 $-1 $361 -0.037499999999999645 $416 0.037499999999999645 $415 $456 forward @7 unknown #
point $-1 -1 $-1 -0.28099999999999992 -0.037499999999999645 -0.28100000000000003 #
edge $-1 -1 $-1 $362 -0.037499999999999645 $406 0.037499999999999645 $398 $457 forward @7 unknown #
point $-1 -1 $-1 0.28099999999999992 -0.037499999999999645 0.28100000000000003 #
point $-1 -1 $-1 0.19869700551341984 0.0065000000000000613 0.19869700551341982 #
loop $-1 -1 $-1 $-1 $380 $374 #
coedge $-1 -1 $-1 $430 $378 $383 $435 reversed $431 $-1 #
coedge $-1 -1 $-1 $378 $429 $400 $403 reversed $431 $-1 #
loop $-1 -1 $-1 $-1 $378 $422 #
coedge $-1 -1 $-1 $433 $380 $401 $339 forward $428 $-1 #
coedge $-1 -1 $-1 $380 $432 $382 $394 reversed $428 $-1 #
coedge $-1 -1 $-1 $383 $382 $445 $448 forward $385 $-1 #
edge $-1 -1 $-1 $446 -0.28099999999999992 $324 -2.775557561562891e-017 $429 $442 forward @7 unknown #
coedge $-1 -1 $-1 $451 $384 $390 $392 forward $438 $-1 #
coedge $-1 -1 $-1 $384 $451 $386 $439 forward $438 $-1 #
loop $-1 -1 $-1 $-1 $384 $455 #
edge $-1 -1 $-1 $416 -0.28099999999999992 $325 2.775557561562891e-017 $386 $443 forward @7 unknown #
face $-1 -1 $-1 $441 $388 $27 $-1 $410 reversed single #
face $-1 -1 $-1 $276 $391 $27 $-1 $360 reversed single #
straight-curve $-1 -1 $-1 0 -0.037499999999999645 -0.28100000000000003 -1 0 0 I I #
straight-curve $-1 -1 $-1 0 0.037499999999999645 -0.28100000000000003 1 0 0 I I #
straight-curve $-1 -1 $-1 0.28099999999999992 -0.037499999999999645 0 0 0 -1 I I #
coedge $-1 -1 $-1 $401 $400 $434 $448 reversed $375 $-1 #
vertex $-1 -1 $-1 $403 $458 #
point $-1 -1 $-1 0.28099999999999992 0.037499999999999645 0.28100000000000003 #
edge $-1 -1 $-1 $411 -0.037499999999999645 $446 0.037499999999999645 $445 $459 forward @7 unknown #
point $-1 -1 $-1 0.28099999999999992 0.037499999999999645 -0.28100000000000003 #
point $-1 -1 $-1 -0.28099999999999992 0.037499999999999645 0.28100000000000003 #
coedge $-1 -1 $-1 $437 $436 $415 $423 forward $438 $-1 #
point $-1 -1 $-1 -0.28099999999999992 0.037499999999999645 -0.28100000000000003 #
straight-curve $-1 -1 $-1 -0.28099999999999992 0 0.28100000000000003 0 -1 0 I I #
plane-surface $-1 -1 $-1 0 0 -0.28100000000000003 0 0 1 1 0 0 forward_v I I I I #
face $-1 -1 $-1 $353 $438 $27 $-1 $454 reversed single #
straight-curve $-1 -1 $-1 -0.28099999999999992 0 -0.28100000000000003 0 1 0 I I #
straight-curve $-1 -1 $-1 0.28099999999999992 0 0.28100000000000003 0 1 0 I I #
point $-1 -1 $-1 0.28099999999999992 -0.037499999999999645 -0.28100000000000003 #
straight-curve $-1 -1 $-1 0.28099999999999992 0 -0.28100000000000003 0 -1 0 I I #
End-of-ACIS-data 