700 0 2 0           
24 FBMach with ACIS - 7.0.3 13 ACIS 7.0.3 NT 24 Mon May 13 17:03:50 2002 
1 9.9999999999999995e-007 1e-010 
body $2 -1 $-1 $3 $-1 $4 #
bdycol-kcp $-1 -1 1 3 $5 $6 $7 #
model_id-kcp-attrib $-1 -1 $-1 $-1 $0 1 1021323829 1021323829 7929857 1 #
lump $-1 -1 $-1 $-1 $8 $0 #
transform $-1 -1 1 0 0 0 1 0 0 0 1 0 0 0 1 rotate no_reflect no_shear #
body $9 -1 $-1 $10 $-1 $11 #
body $12 -1 $-1 $13 $-1 $14 #
body $15 -1 $-1 $16 $-1 $17 #
shell $-1 -1 $-1 $-1 $-1 $18 $-1 $3 #
model_id-kcp-attrib $-1 -1 $-1 $-1 $5 1 1021323829 1021323829 7929858 1 #
lump $-1 -1 $-1 $-1 $19 $5 #
transform $-1 -1 1 0 0 0 1 0 0 0 1 2.7755575615628914e-017 4.3585000000000003 7.1353999999999997 1 no_rotate no_reflect no_shear #
rgb_color-st-attrib $-1 -1 $20 $-1 $6 0.5 1 1 #
lump $-1 -1 $-1 $-1 $21 $6 #
transform $-1 -1 1 0 0 0 -3.8285889215894375e-016 -1 0 1 -3.8285889215894375e-016 3.892196401378732e-011 4.3585000000000003 7.1353999999999997 1 rotate no_reflect no_shear #
rgb_color-st-attrib $-1 -1 $22 $-1 $7 0.5 1 1 #
lump $-1 -1 $-1 $-1 $23 $7 #
transform $-1 -1 1 0 0 0 1 0 0 0 1 2.7755575615628914e-017 4.3585000000000003 7.1353999999999997 1 no_rotate no_reflect no_shear #
face $24 -1 $-1 $25 $26 $8 $-1 $27 reversed single #
shell $-1 -1 $-1 $-1 $-1 $28 $-1 $10 #
model_id-kcp-attrib $-1 -1 $-1 $12 $6 1 1021323829 1021323829 9240579 1 #
shell $-1 -1 $-1 $-1 $-1 $29 $-1 $13 #
model_id-kcp-attrib $-1 -1 $-1 $15 $7 1 1021323829 1021323829 12517380 1 #
shell $-1 -1 $-1 $-1 $-1 $30 $-1 $16 #
model_id-kcp-attrib $-1 -1 $-1 $-1 $18 1 1021323829 1021323829 7929857 2 #
face $31 -1 $-1 $32 $33 $8 $-1 $34 forward single #
loop $35 -1 $-1 $36 $37 $18 #
cone-surface $-1 -1 $-1 3.892196401378732e-011 4.3585000000000003 7.1353999999999997 0 1 0 -0.13258252147247768 0 -0.13258252147247768 1 I I 0 1 0.18750000000000006 forward I I I I #
face $-1 -1 $-1 $38 $39 $19 $-1 $40 forward single #
face $-1 -1 $-1 $41 $42 $21 $-1 $43 forward single #
face $-1 -1 $-1 $44 $45 $23 $-1 $46 reversed single #
model_id-kcp-attrib $-1 -1 $-1 $-1 $25 1 1021323829 1021323829 7929857 3 #
face $47 -1 $-1 $48 $49 $8 $-1 $50 forward single #
loop $-1 -1 $-1 $51 $52 $25 #
cone-surface $-1 -1 $-1 0 4.3585000000000003 7.1353999999999997 0 1 0 -0.19869700551341982 0 0.19869700551341982 1 I I 0 1 0.28099999999999997 forward I I I I #
model_id-kcp-attrib $-1 -1 $-1 $-1 $26 1 1021323829 1021323829 7929857 8 #
loop $53 -1 $-1 $-1 $54 $18 #
coedge $-1 -1 $-1 $37 $37 $55 $56 reversed $26 $-1 #
face $-1 -1 $-1 $57 $58 $19 $-1 $59 reversed single #
loop $-1 -1 $-1 $-1 $60 $28 #
plane-surface $-1 -1 $-1 0 0 0.28100000000000058 0 0 1 1 0 0 forward_v I I I I #
face $-1 -1 $-1 $61 $62 $21 $-1 $63 forward single #
loop $-1 -1 $-1 $64 $65 $29 #
cone-surface $-1 -1 $-1 0 0 0 0 0 1 0.18750000000000003 0 0 1 I I 0 1 0.18750000000000003 forward I I I I #
face $-1 -1 $-1 $66 $67 $23 $-1 $46 reversed single #
loop $-1 -1 $-1 $-1 $68 $30 #
cone-surface $-1 -1 $-1 -2.7755575615628904e-017 -0.016499999999999737 0 0 -1 0 0.19869700551341973 0 -0.1986970055134199 1 I I 0 1 0.28099999999999997 forward I I I I #
model_id-kcp-attrib $-1 -1 $-1 $-1 $32 1 1021323829 1021323829 7929857 4 #
face $69 -1 $-1 $-1 $70 $8 $-1 $71 forward single #
loop $72 -1 $-1 $73 $55 $32 #
plane-surface $-1 -1 $-1 0 4.3420000000000005 7.1353999999999997 0 -1 0 0.70710678118654735 0 -0.70710678118654735 forward_v I I I I #
loop $-1 -1 $-1 $-1 $74 $25 #
coedge $-1 -1 $-1 $52 $52 $75 $76 reversed $33 $-1 #
model_id-kcp-attrib $-1 -1 $-1 $-1 $36 1 1021323829 1021323829 7929857 9 #
coedge $-1 -1 $-1 $54 $54 $77 $78 reversed $36 $-1 #
coedge $-1 -1 $-1 $55 $55 $37 $56 forward $49 $-1 #
edge $79 -1 $-1 $80 -3.1415926535898007 $80 3.1415926535897856 $55 $81 forward @7 unknown #
face $82 -1 $-1 $83 $84 $19 $-1 $85 reversed single #
loop $-1 -1 $-1 $-1 $86 $38 #
plane-surface $-1 -1 $-1 0 0 -0.28100000000000058 0 0 1 1 0 0 forward_v I I I I #
coedge $-1 -1 $-1 $87 $88 $89 $90 forward $39 $-1 #
face $-1 -1 $-1 $-1 $91 $21 $-1 $92 forward single #
loop $-1 -1 $-1 $-1 $93 $41 #
plane-surface $-1 -1 $-1 0 0 -0.016499999999999737 0 0 -1 -1 0 0 forward_v I I I I #
loop $-1 -1 $-1 $-1 $94 $29 #
coedge $-1 -1 $-1 $65 $65 $93 $95 reversed $42 $-1 #
face $-1 -1 $-1 $96 $97 $23 $-1 $46 reversed single #
loop $-1 -1 $-1 $-1 $98 $44 #
coedge $-1 -1 $-1 $99 $100 $101 $102 reversed $45 $-1 #
model_id-kcp-attrib $-1 -1 $-1 $-1 $48 1 1021323829 1021323829 7929857 5 #
loop $103 -1 $-1 $104 $77 $48 #
plane-surface $-1 -1 $-1 0 4.375 7.1353999999999997 0 1 0 -0.70710678118654735 0 0.70710678118654735 forward_v I I I I #
model_id-kcp-attrib $-1 -1 $-1 $-1 $49 1 1021323829 1021323829 7929857 10 #
loop $-1 -1 $-1 $-1 $75 $32 #
coedge $-1 -1 $-1 $74 $74 $105 $106 reversed $51 $-1 #
coedge $-1 -1 $-1 $75 $75 $52 $76 forward $73 $-1 #
edge $107 -1 $-1 $108 -6.1514237822913313e-016 $108 6.2831853071795853 $75 $109 forward @7 unknown #
coedge $-1 -1 $-1 $77 $77 $54 $78 forward $70 $-1 #
edge $110 -1 $-1 $111 -3.1415926535897993 $111 3.1415926535897869 $77 $112 forward @7 unknown #
attrib_edge_convexity-kcp-attrib $-1 -1 $113 $-1 $56 1 #
vertex $114 -1 $-1 $56 $115 #
ellipse-curve $-1 -1 $-1 3.892196401378732e-011 4.3420000000000005 7.1353999999999997 0 1 0 -0.13258252147247768 0 -0.13258252147247768 1 I I #
model_id-kcp-attrib $-1 -1 $-1 $-1 $57 1 1021323829 1021323829 7929858 2 #
face $-1 -1 $-1 $116 $117 $19 $-1 $118 reversed single #
loop $-1 -1 $-1 $-1 $119 $57 #
plane-surface $-1 -1 $-1 0 -0.016499999999999737 0 0 1 0 0 0 1 forward_v I I I I #
coedge $-1 -1 $-1 $120 $121 $122 $123 forward $58 $-1 #
coedge $-1 -1 $-1 $124 $60 $125 $126 forward $39 $-1 #
coedge $-1 -1 $-1 $60 $124 $127 $128 forward $39 $-1 #
coedge $-1 -1 $-1 $129 $130 $60 $90 reversed $131 $-1 #
edge $-1 -1 $-1 $132 -0.016499999999999737 $133 0.016499999999999737 $89 $134 forward @7 unknown #
loop $-1 -1 $-1 $-1 $135 $61 #
plane-surface $-1 -1 $-1 0 0 0.016499999999999737 0 0 1 1 0 0 forward_v I I I I #
coedge $-1 -1 $-1 $93 $93 $65 $95 forward $62 $-1 #
coedge $-1 -1 $-1 $94 $94 $135 $136 reversed $64 $-1 #
edge $-1 -1 $-1 $137 0 $137 6.2831853071795862 $93 $138 forward @7 unknown #
face $-1 -1 $-1 $139 $140 $23 $-1 $46 reversed single #
loop $-1 -1 $-1 $-1 $141 $66 #
coedge $-1 -1 $-1 $142 $143 $144 $145 reversed $67 $-1 #
coedge $-1 -1 $-1 $146 $68 $147 $148 forward $45 $-1 #
coedge $-1 -1 $-1 $68 $146 $149 $150 reversed $45 $-1 #
coedge $-1 -1 $-1 $151 $152 $68 $102 forward $153 $-1 #
edge $-1 -1 $-1 $154 0.78539816339744872 $155 2.3561944901923453 $101 $156 forward @7 unknown #
model_id-kcp-attrib $-1 -1 $-1 $-1 $70 1 1021323829 1021323829 7929857 11 #
loop $-1 -1 $-1 $-1 $105 $48 #
coedge $-1 -1 $-1 $105 $105 $74 $106 forward $104 $-1 #
edge $-1 -1 $-1 $157 6.1514237822913313e-016 $157 6.2831853071795871 $105 $158 forward @7 unknown #
attrib_edge_convexity-kcp-attrib $-1 -1 $159 $-1 $76 1 #
vertex $-1 -1 $-1 $76 $160 #
ellipse-curve $-1 -1 $-1 0 4.3420000000000005 7.1353999999999997 0 -1 0 -0.19869700551341982 0 0.19869700551341982 1 I I #
attrib_edge_convexity-kcp-attrib $-1 -1 $161 $-1 $78 1 #
vertex $162 -1 $-1 $78 $163 #
ellipse-curve $-1 -1 $-1 3.892196401378732e-011 4.375 7.1353999999999997 0 -1 0 -0.13258252147247768 0 -0.13258252147247768 1 I I #
convexity-sys-attrib $-1 -1 $-1 $79 $56 #
model_id-kcp-attrib $-1 -1 $-1 $-1 $80 1 1021323829 1021323829 7929857 12 #
point $-1 -1 $-1 0.13258252151139871 4.3420000000000005 7.2679825214724785 #
face $164 -1 $-1 $165 $166 $19 $-1 $167 reversed single #
loop $-1 -1 $-1 $-1 $168 $83 #
plane-surface $-1 -1 $-1 -0.28099999999999992 0 0 1 0 0 0 0 -1 forward_v I I I I #
coedge $-1 -1 $-1 $169 $127 $170 $171 forward $84 $-1 #
coedge $-1 -1 $-1 $172 $86 $169 $173 forward $58 $-1 #
coedge $-1 -1 $-1 $86 $172 $174 $175 forward $58 $-1 #
coedge $-1 -1 $-1 $130 $129 $86 $123 reversed $131 $-1 #
edge $-1 -1 $-1 $176 -0.016499999999999737 $177 0.016499999999999737 $122 $178 forward @7 unknown #
coedge $-1 -1 $-1 $88 $87 $179 $180 forward $39 $-1 #
coedge $-1 -1 $-1 $181 $182 $87 $126 reversed $166 $-1 #
edge $-1 -1 $-1 $133 -0.28099999999999992 $183 0.28099999999999992 $125 $184 forward @7 unknown #
coedge $-1 -1 $-1 $119 $185 $88 $128 reversed $84 $-1 #
edge $-1 -1 $-1 $186 -0.28099999999999992 $132 0.28099999999999992 $127 $187 forward @7 unknown #
coedge $-1 -1 $-1 $122 $89 $185 $188 forward $131 $-1 #
coedge $-1 -1 $-1 $89 $122 $181 $189 reversed $131 $-1 #
loop $-1 -1 $-1 $-1 $129 $165 #
vertex $-1 -1 $-1 $90 $190 #
vertex $-1 -1 $-1 $90 $191 #
straight-curve $-1 -1 $-1 0.28099999999999992 0 0.28100000000000058 0 1 0 I I #
coedge $-1 -1 $-1 $135 $135 $94 $136 forward $91 $-1 #
edge $-1 -1 $-1 $192 0 $192 6.2831853071795862 $135 $193 forward @7 unknown #
vertex $-1 -1 $-1 $95 $194 #
ellipse-curve $-1 -1 $-1 0 0 -0.016499999999999737 0 0 -1 0.18750000000000003 0 0 1 I I #
face $-1 -1 $-1 $195 $196 $23 $-1 $197 forward single #
loop $-1 -1 $-1 $-1 $198 $96 #
coedge $-1 -1 $-1 $199 $200 $198 $201 forward $97 $-1 #
coedge $-1 -1 $-1 $202 $98 $203 $204 reversed $67 $-1 #
coedge $-1 -1 $-1 $98 $202 $100 $150 forward $67 $-1 #
coedge $-1 -1 $-1 $205 $206 $98 $145 forward $207 $-1 #
edge $-1 -1 $-1 $208 2.3561944901923444 $209 3.926990816987241 $144 $210 forward @7 unknown #
coedge $-1 -1 $-1 $100 $99 $211 $212 reversed $45 $-1 #
coedge $-1 -1 $-1 $200 $199 $213 $148 reversed $97 $-1 #
edge $-1 -1 $-1 $154 -0.032999999999999474 $214 0 $213 $215 forward @7 unknown #
coedge $-1 -1 $-1 $216 $217 $218 $150 forward $219 $-1 #
edge $-1 -1 $-1 $155 -0.032999999999999474 $209 0 $149 $220 forward @7 unknown #
coedge $-1 -1 $-1 $152 $101 $217 $221 reversed $153 $-1 #
coedge $-1 -1 $-1 $101 $151 $222 $223 forward $153 $-1 #
loop $-1 -1 $-1 $-1 $101 $224 #
vertex $-1 -1 $-1 $225 $226 #
vertex $-1 -1 $-1 $227 $228 #
ellipse-curve $-1 -1 $-1 -2.7755575615628904e-017 0.016499999999999737 0 0 -1 0 0.19869700551341973 0 -0.1986970055134199 1 I I #
vertex $-1 -1 $-1 $106 $229 #
ellipse-curve $-1 -1 $-1 0 4.375 7.1353999999999997 0 1 0 -0.19869700551341982 0 0.19869700551341982 1 I I #
convexity-sys-attrib $-1 -1 $-1 $107 $76 #
point $-1 -1 $-1 -0.19869700551341982 4.3420000000000005 7.3340970055134198 #
convexity-sys-attrib $-1 -1 $-1 $110 $78 #
model_id-kcp-attrib $-1 -1 $-1 $-1 $111 1 1021323829 1021323829 7929857 13 #
point $-1 -1 $-1 0.13258252151140057 4.375 7.2679825214724767 #
model_id-kcp-attrib $-1 -1 $-1 $-1 $116 1 1021323829 1021323829 7929858 3 #
face $-1 -1 $-1 $-1 $131 $19 $-1 $230 reversed single #
loop $-1 -1 $-1 $-1 $181 $116 #
plane-surface $-1 -1 $-1 0 0.016499999999999737 0 0 -1 0 0 0 -1 forward_v I I I I #
coedge $-1 -1 $-1 $231 $179 $182 $232 forward $117 $-1 #
coedge $-1 -1 $-1 $185 $119 $120 $173 reversed $84 $-1 #
coedge $-1 -1 $-1 $179 $231 $119 $171 reversed $117 $-1 #
edge $-1 -1 $-1 $186 -0.28100000000000058 $233 0.28100000000000058 $170 $234 forward @7 unknown #
coedge $-1 -1 $-1 $121 $120 $231 $235 forward $58 $-1 #
edge $-1 -1 $-1 $177 -0.28099999999999992 $233 0.28099999999999992 $169 $236 forward @7 unknown #
coedge $-1 -1 $-1 $182 $181 $121 $175 reversed $166 $-1 #
edge $-1 -1 $-1 $237 -0.28099999999999992 $176 0.28099999999999992 $174 $238 forward @7 unknown #
vertex $-1 -1 $-1 $123 $239 #
vertex $-1 -1 $-1 $188 $240 #
straight-curve $-1 -1 $-1 0.28099999999999992 0 -0.28100000000000058 0 -1 0 I I #
coedge $-1 -1 $-1 $168 $170 $124 $180 reversed $117 $-1 #
edge $-1 -1 $-1 $183 -0.016499999999999737 $186 0.016499999999999737 $179 $241 forward @7 unknown #
coedge $-1 -1 $-1 $174 $125 $130 $189 forward $166 $-1 #
coedge $-1 -1 $-1 $125 $174 $168 $232 reversed $166 $-1 #
vertex $-1 -1 $-1 $126 $242 #
straight-curve $-1 -1 $-1 0 0.016499999999999737 0.28100000000000058 -1 0 0 I I #
coedge $-1 -1 $-1 $127 $169 $129 $188 reversed $84 $-1 #
vertex $-1 -1 $-1 $180 $243 #
straight-curve $-1 -1 $-1 0 -0.016499999999999737 0.28100000000000058 1 0 0 I I #
edge $-1 -1 $-1 $132 -0.28100000000000058 $177 0.28100000000000058 $129 $244 forward @7 unknown #
edge $-1 -1 $-1 $133 -0.28100000000000058 $176 0.28100000000000058 $130 $245 forward @7 unknown #
point $-1 -1 $-1 0.28099999999999992 -0.016499999999999737 0.28100000000000058 #
point $-1 -1 $-1 0.28099999999999992 0.016499999999999737 0.28100000000000058 #
vertex $-1 -1 $-1 $136 $246 #
ellipse-curve $-1 -1 $-1 0 0 0.016499999999999737 0 0 1 0.18750000000000003 0 0 1 I I #
point $-1 -1 $-1 0.18750000000000003 0 -0.016499999999999737 #
face $-1 -1 $-1 $247 $248 $23 $-1 $249 reversed single #
loop $-1 -1 $-1 $-1 $218 $139 #
plane-surface $-1 -1 $-1 0 0 0.28100000000000058 0 0 1 1 0 0 forward_v I I I I #
coedge $-1 -1 $-1 $250 $251 $252 $201 reversed $140 $-1 #
coedge $-1 -1 $-1 $147 $141 $253 $254 reversed $97 $-1 #
coedge $-1 -1 $-1 $141 $147 $255 $256 reversed $97 $-1 #
edge $-1 -1 $-1 $257 -0.032999999999999474 $258 0 $252 $259 forward @7 unknown #
coedge $-1 -1 $-1 $143 $142 $260 $261 reversed $67 $-1 #
coedge $-1 -1 $-1 $262 $263 $264 $204 forward $265 $-1 #
edge $-1 -1 $-1 $266 -0.032999999999999474 $208 0 $203 $267 forward @7 unknown #
coedge $-1 -1 $-1 $206 $144 $268 $269 reversed $207 $-1 #
coedge $-1 -1 $-1 $144 $205 $262 $270 forward $207 $-1 #
loop $-1 -1 $-1 $-1 $144 $271 #
vertex $-1 -1 $-1 $272 $273 #
vertex $-1 -1 $-1 $274 $275 #
ellipse-curve $-1 -1 $-1 -2.7755575615628904e-017 -0.016499999999999737 0 0 1 0 0.19869700551341973 0 -0.1986970055134199 1 I I #
coedge $-1 -1 $-1 $276 $277 $146 $212 forward $278 $-1 #
edge $-1 -1 $-1 $209 -2.3561944901923453 $214 -0.78539816339744872 $211 $210 forward @7 unknown #
coedge $-1 -1 $-1 $279 $280 $281 $148 forward $248 $-1 #
vertex $-1 -1 $-1 $282 $283 #
straight-curve $-1 -1 $-1 0.28099999999999992 -0.016499999999999737 0 0 -1 0 I I #
coedge $-1 -1 $-1 $284 $149 $277 $274 forward $219 $-1 #
coedge $-1 -1 $-1 $149 $284 $151 $221 forward $219 $-1 #
coedge $-1 -1 $-1 $285 $268 $143 $150 reversed $196 $-1 #
loop $-1 -1 $-1 $-1 $149 $286 #
straight-curve $-1 -1 $-1 -2.7755575615628904e-017 -0.016499999999999737 0.28100000000000058 0 -1 0 I I #
edge $-1 -1 $-1 $287 -0.28099999999999992 $155 2.7755575615628904e-017 $151 $288 forward @7 unknown #
coedge $-1 -1 $-1 $289 $281 $152 $223 reversed $290 $-1 #
edge $-1 -1 $-1 $287 -0.28100000000000058 $154 0 $222 $291 forward @7 unknown #
face $-1 -1 $-1 $292 $153 $23 $-1 $293 reversed single #
edge $-1 -1 $-1 $154 0 $294 0.28100000000000058 $280 $291 forward @7 unknown #
point $-1 -1 $-1 0.28099999999999992 0.016499999999999737 0 #
edge $-1 -1 $-1 $155 2.7755575615628904e-017 $295 0.28099999999999992 $296 $288 forward @7 unknown #
point $-1 -1 $-1 -2.7755575615628904e-017 0.016499999999999737 0.28100000000000058 #
point $-1 -1 $-1 -0.19869700551341982 4.375 7.3340970055134198 #
plane-surface $-1 -1 $-1 0.28099999999999992 0 0 -1 0 0 0 0 1 forward_v I I I I #
coedge $-1 -1 $-1 $170 $168 $172 $235 reversed $117 $-1 #
edge $-1 -1 $-1 $183 -0.28100000000000058 $237 0.28100000000000058 $182 $297 forward @7 unknown #
vertex $-1 -1 $-1 $235 $298 #
straight-curve $-1 -1 $-1 -0.28099999999999992 -0.016499999999999737 0 0 0 -1 I I #
edge $-1 -1 $-1 $233 -0.016499999999999737 $237 0.016499999999999737 $231 $299 forward @7 unknown #
straight-curve $-1 -1 $-1 0 -0.016499999999999737 -0.28100000000000058 -1 0 0 I I #
vertex $-1 -1 $-1 $175 $300 #
straight-curve $-1 -1 $-1 0 0.016499999999999737 -0.28100000000000058 1 0 0 I I #
point $-1 -1 $-1 0.28099999999999992 0.016499999999999737 -0.28100000000000058 #
point $-1 -1 $-1 0.28099999999999992 -0.016499999999999737 -0.28100000000000058 #
straight-curve $-1 -1 $-1 -0.28099999999999992 0 0.28100000000000058 0 -1 0 I I #
point $-1 -1 $-1 -0.28099999999999992 0.016499999999999737 0.28100000000000058 #
point $-1 -1 $-1 -0.28099999999999992 -0.016499999999999737 0.28100000000000058 #
straight-curve $-1 -1 $-1 0.28099999999999992 -0.016499999999999737 0 0 0 -1 I I #
straight-curve $-1 -1 $-1 0.28099999999999992 0.016499999999999737 0 0 0 -1 I I #
point $-1 -1 $-1 0.18750000000000003 0 0.016499999999999737 #
face $-1 -1 $-1 $301 $302 $23 $-1 $303 reversed single #
loop $-1 -1 $-1 $-1 $213 $195 #
plane-surface $-1 -1 $-1 0.28099999999999992 0 0 -1 0 0 0 0 1 forward_v I I I I #
coedge $-1 -1 $-1 $304 $198 $305 $306 reversed $140 $-1 #
coedge $-1 -1 $-1 $198 $304 $307 $308 reversed $140 $-1 #
coedge $-1 -1 $-1 $309 $310 $311 $201 forward $312 $-1 #
coedge $-1 -1 $-1 $313 $314 $199 $254 forward $315 $-1 #
edge $-1 -1 $-1 $214 -0.78539816339744872 $258 0.78539816339744783 $253 $210 forward @7 unknown #
coedge $-1 -1 $-1 $316 $317 $200 $256 forward $318 $-1 #
edge $-1 -1 $-1 $257 -0.78539816339744783 $154 0.78539816339744872 $255 $156 forward @7 unknown #
vertex $-1 -1 $-1 $319 $320 #
vertex $-1 -1 $-1 $321 $322 #
straight-curve $-1 -1 $-1 -2.7755575615628904e-017 -0.016499999999999737 -0.28100000000000058 0 -1 0 I I #
coedge $-1 -1 $-1 $323 $296 $202 $261 forward $324 $-1 #
edge $-1 -1 $-1 $155 2.3561944901923453 $266 3.9269908169872418 $260 $156 forward @7 unknown #
coedge $-1 -1 $-1 $325 $203 $206 $270 reversed $265 $-1 #
coedge $-1 -1 $-1 $203 $325 $323 $326 forward $265 $-1 #
coedge $-1 -1 $-1 $327 $328 $304 $204 reversed $302 $-1 #
loop $-1 -1 $-1 $-1 $203 $329 #
vertex $-1 -1 $-1 $330 $331 #
straight-curve $-1 -1 $-1 -0.28099999999999992 -0.016499999999999737 0 0 -1 0 I I #
coedge $-1 -1 $-1 $218 $332 $205 $269 forward $196 $-1 #
edge $-1 -1 $-1 $333 -0.28099999999999992 $209 -2.7755575615628904e-017 $205 $334 forward @7 unknown #
edge $-1 -1 $-1 $333 -0.28100000000000058 $208 0 $262 $335 forward @7 unknown #
face $-1 -1 $-1 $336 $207 $23 $-1 $337 reversed single #
edge $-1 -1 $-1 $208 0 $338 0.28100000000000058 $328 $335 forward @7 unknown #
point $-1 -1 $-1 -0.28099999999999992 -0.016499999999999737 0 #
edge $-1 -1 $-1 $209 -2.7755575615628904e-017 $339 0.28099999999999992 $277 $334 forward @7 unknown #
point $-1 -1 $-1 -2.7755575615628904e-017 -0.016499999999999737 0.28100000000000058 #
coedge $-1 -1 $-1 $277 $211 $340 $341 reversed $278 $-1 #
coedge $-1 -1 $-1 $211 $276 $216 $274 reversed $278 $-1 #
loop $-1 -1 $-1 $-1 $211 $336 #
coedge $-1 -1 $-1 $342 $213 $314 $282 forward $248 $-1 #
coedge $-1 -1 $-1 $213 $342 $316 $225 reversed $248 $-1 #
coedge $-1 -1 $-1 $222 $340 $99 $148 reversed $290 $-1 #
edge $-1 -1 $-1 $214 0 $343 0.28100000000000058 $279 $344 forward @7 unknown #
point $-1 -1 $-1 0.28099999999999992 -0.016499999999999737 0 #
coedge $-1 -1 $-1 $217 $216 $289 $345 forward $219 $-1 #
coedge $-1 -1 $-1 $332 $218 $296 $227 forward $196 $-1 #
face $-1 -1 $-1 $346 $219 $23 $-1 $197 forward single #
vertex $-1 -1 $-1 $345 $347 #
straight-curve $-1 -1 $-1 0 0.016499999999999737 0.28100000000000058 -1 0 0 I I #
coedge $-1 -1 $-1 $340 $222 $284 $345 reversed $290 $-1 #
loop $-1 -1 $-1 $-1 $281 $348 #
straight-curve $-1 -1 $-1 0.28099999999999992 0.016499999999999737 0 0 0 -1 I I #
face $-1 -1 $-1 $349 $324 $23 $-1 $293 reversed single #
plane-surface $-1 -1 $-1 0 0.016499999999999737 0 0 -1 0 0 0 -1 forward_v I I I I #
vertex $-1 -1 $-1 $350 $351 #
vertex $-1 -1 $-1 $227 $352 #
coedge $-1 -1 $-1 $260 $323 $285 $227 reversed $324 $-1 #
straight-curve $-1 -1 $-1 -0.28099999999999992 0.016499999999999737 0 0 0 -1 I I #
point $-1 -1 $-1 -0.28099999999999992 -0.016499999999999737 -0.28100000000000058 #
straight-curve $-1 -1 $-1 -0.28099999999999992 0 -0.28100000000000058 0 1 0 I I #
point $-1 -1 $-1 -0.28099999999999992 0.016499999999999737 -0.28100000000000058 #
face $-1 -1 $-1 $271 $353 $23 $-1 $337 reversed single #
loop $-1 -1 $-1 $-1 $264 $247 #
plane-surface $-1 -1 $-1 -0.28099999999999992 0 0 1 0 0 0 0 -1 forward_v I I I I #
coedge $-1 -1 $-1 $251 $250 $142 $204 forward $140 $-1 #
coedge $-1 -1 $-1 $354 $355 $250 $306 forward $356 $-1 #
edge $-1 -1 $-1 $266 -2.3561944901923444 $257 -0.78539816339744783 $305 $156 forward @7 unknown #
coedge $-1 -1 $-1 $357 $358 $251 $308 forward $353 $-1 #
edge $-1 -1 $-1 $258 0.78539816339744783 $208 2.3561944901923444 $307 $210 forward @7 unknown #
coedge $-1 -1 $-1 $359 $252 $358 $321 forward $312 $-1 #
coedge $-1 -1 $-1 $252 $359 $354 $360 forward $312 $-1 #
coedge $-1 -1 $-1 $361 $362 $141 $201 reversed $363 $-1 #
loop $-1 -1 $-1 $-1 $252 $346 #
coedge $-1 -1 $-1 $314 $253 $362 $364 reversed $315 $-1 #
coedge $-1 -1 $-1 $253 $313 $279 $282 reversed $315 $-1 #
loop $-1 -1 $-1 $-1 $253 $365 #
coedge $-1 -1 $-1 $317 $255 $280 $225 forward $318 $-1 #
coedge $-1 -1 $-1 $255 $316 $361 $319 reversed $318 $-1 #
loop $-1 -1 $-1 $-1 $255 $366 #
edge $-1 -1 $-1 $257 -2.7755575615628904e-017 $294 0.28099999999999992 $317 $367 forward @7 unknown #
point $-1 -1 $-1 -2.7755575615628904e-017 0.016499999999999737 -0.28100000000000058 #
edge $-1 -1 $-1 $258 2.7755575615628904e-017 $338 0.28099999999999992 $358 $368 forward @7 unknown #
point $-1 -1 $-1 -2.7755575615628904e-017 -0.016499999999999737 -0.28100000000000058 #
coedge $-1 -1 $-1 $296 $260 $263 $326 reversed $324 $-1 #
loop $-1 -1 $-1 $-1 $260 $292 #
coedge $-1 -1 $-1 $263 $262 $332 $369 reversed $265 $-1 #
edge $-1 -1 $-1 $295 -0.28100000000000058 $266 0 $323 $370 forward @7 unknown #
coedge $-1 -1 $-1 $371 $264 $355 $330 forward $302 $-1 #
coedge $-1 -1 $-1 $264 $371 $357 $272 reversed $302 $-1 #
face $-1 -1 $-1 $348 $265 $23 $-1 $303 reversed single #
edge $-1 -1 $-1 $266 0 $372 0.28100000000000058 $355 $370 forward @7 unknown #
point $-1 -1 $-1 -0.28099999999999992 0.016499999999999737 0 #
coedge $-1 -1 $-1 $268 $285 $325 $369 forward $196 $-1 #
vertex $-1 -1 $-1 $369 $373 #
straight-curve $-1 -1 $-1 0 -0.016499999999999737 0.28100000000000058 1 0 0 I I #
straight-curve $-1 -1 $-1 -0.28099999999999992 -0.016499999999999737 0 0 0 -1 I I #
face $-1 -1 $-1 $365 $278 $23 $-1 $337 reversed single #
plane-surface $-1 -1 $-1 0 -0.016499999999999737 0 0 1 0 0 0 1 forward_v I I I I #
vertex $-1 -1 $-1 $374 $375 #
vertex $-1 -1 $-1 $345 $376 #
coedge $-1 -1 $-1 $281 $289 $276 $341 forward $290 $-1 #
edge $-1 -1 $-1 $339 -0.28100000000000058 $214 0 $340 $344 forward @7 unknown #
coedge $-1 -1 $-1 $280 $279 $377 $350 reversed $248 $-1 #
vertex $-1 -1 $-1 $282 $378 #
straight-curve $-1 -1 $-1 0.28099999999999992 -0.016499999999999737 0 0 0 -1 I I #
edge $-1 -1 $-1 $339 -0.016499999999999737 $287 0.016499999999999737 $289 $379 forward @7 unknown #
face $-1 -1 $-1 $329 $312 $23 $-1 $380 reversed single #
point $-1 -1 $-1 0.28099999999999992 0.016499999999999737 0.28100000000000058 #
face $-1 -1 $-1 $-1 $290 $23 $-1 $249 reversed single #
face $-1 -1 $-1 $381 $356 $23 $-1 $293 reversed single #
edge $-1 -1 $-1 $294 -0.016499999999999737 $343 0.016499999999999737 $342 $382 forward @7 unknown #
point $-1 -1 $-1 0.28099999999999992 0.016499999999999737 -0.28100000000000058 #
point $-1 -1 $-1 -0.28099999999999992 0.016499999999999737 0.28100000000000058 #
loop $-1 -1 $-1 $-1 $307 $301 #
coedge $-1 -1 $-1 $355 $305 $310 $360 reversed $356 $-1 #
coedge $-1 -1 $-1 $305 $354 $327 $330 reversed $356 $-1 #
loop $-1 -1 $-1 $-1 $305 $349 #
coedge $-1 -1 $-1 $358 $307 $328 $272 forward $353 $-1 #
coedge $-1 -1 $-1 $307 $357 $309 $321 reversed $353 $-1 #
coedge $-1 -1 $-1 $310 $309 $371 $374 forward $312 $-1 #
edge $-1 -1 $-1 $372 -0.28099999999999992 $257 -2.7755575615628904e-017 $354 $367 forward @7 unknown #
coedge $-1 -1 $-1 $377 $311 $317 $319 forward $363 $-1 #
coedge $-1 -1 $-1 $311 $377 $313 $364 forward $363 $-1 #
loop $-1 -1 $-1 $-1 $311 $381 #
edge $-1 -1 $-1 $343 -0.28099999999999992 $258 2.7755575615628904e-017 $313 $368 forward @7 unknown #
face $-1 -1 $-1 $366 $315 $23 $-1 $337 reversed single #
face $-1 -1 $-1 $224 $318 $23 $-1 $293 reversed single #
straight-curve $-1 -1 $-1 0 0.016499999999999737 -0.28100000000000058 1 0 0 I I #
straight-curve $-1 -1 $-1 0 -0.016499999999999737 -0.28100000000000058 -1 0 0 I I #
edge $-1 -1 $-1 $295 -0.016499999999999737 $333 0.016499999999999737 $325 $383 forward @7 unknown #
straight-curve $-1 -1 $-1 -0.28099999999999992 0.016499999999999737 0 0 0 -1 I I #
coedge $-1 -1 $-1 $328 $327 $359 $374 reversed $302 $-1 #
vertex $-1 -1 $-1 $360 $384 #
point $-1 -1 $-1 -0.28099999999999992 -0.016499999999999737 0.28100000000000058 #
edge $-1 -1 $-1 $338 -0.016499999999999737 $372 0.016499999999999737 $371 $385 forward @7 unknown #
point $-1 -1 $-1 -0.28099999999999992 -0.016499999999999737 -0.28100000000000058 #
point $-1 -1 $-1 0.28099999999999992 -0.016499999999999737 0.28100000000000058 #
coedge $-1 -1 $-1 $362 $361 $342 $350 forward $363 $-1 #
point $-1 -1 $-1 0.28099999999999992 -0.016499999999999737 -0.28100000000000058 #
straight-curve $-1 -1 $-1 0.28099999999999992 0 0.28100000000000058 0 1 0 I I #
plane-surface $-1 -1 $-1 0 0 -0.28100000000000058 0 0 1 1 0 0 forward_v I I I I #
face $-1 -1 $-1 $286 $363 $23 $-1 $380 reversed single #
straight-curve $-1 -1 $-1 0.28099999999999992 0 -0.28100000000000058 0 -1 0 I I #
straight-curve $-1 -1 $-1 -0.28099999999999992 0 0.28100000000000058 0 -1 0 I I #
point $-1 -1 $-1 -0.28099999999999992 0.016499999999999737 -0.28100000000000058 #
straight-curve $-1 -1 $-1 -0.28099999999999992 0 -0.28100000000000058 0 1 0 I I #
End-of-ACIS-data 