105 774 1 0                             
body $-1 $1 $-1 $-1 #
lump $-1 $-1 $2 $0 #
shell $-1 $-1 $-1 $3 $1 #
face $-1 $4 $5 $2 $-1 $6 forward single #
face $-1 $7 $8 $2 $-1 $9 forward single #
loop $-1 $-1 $10 $3 #
cone-surface $-1 9 -29.17767 3 0 1 -0 -1.41421356237309 0 1.41421356237309 1 0 1 0 #
face $-1 $11 $12 $2 $-1 $13 forward single #
loop $-1 $-1 $14 $4 #
cone-surface $-1 47 -29.17767 3 0 -1 0 1.41421356237309 0 1.41421356237309 1 0 1 0 #
coedge $-1 $15 $16 $17 $18 0 $5 $-1 #
face $-1 $19 $20 $2 $-1 $21 forward single #
loop $-1 $-1 $22 $7 #
torus-surface $-1 28 -45.6776700000001 3 -0 -0 -1 19 2 -1 0 0 0 #
coedge $-1 $23 $24 $25 $26 0 $8 $-1 #
coedge $-1 $27 $10 $28 $29 1 $5 $-1 #
coedge $-1 $10 $27 $30 $31 1 $5 $-1 #
coedge $-1 $32 $33 $10 $18 1 $34 $-1 #
edge $-1 $35 $36 $17 $37 0 #
face $-1 $38 $39 $2 $-1 $40 forward single #
loop $-1 $41 $42 $11 #
plane-surface $-1 7 8 5 0 0 1 1 0 0 0 #
coedge $-1 $43 $28 $44 $45 0 $12 $-1 #
coedge $-1 $46 $14 $43 $47 1 $8 $-1 #
coedge $-1 $14 $46 $48 $49 1 $8 $-1 #
coedge $-1 $50 $51 $14 $26 1 $41 $-1 #
edge $-1 $52 $53 $25 $54 0 #
coedge $-1 $16 $15 $55 $56 0 $5 $-1 #
coedge $-1 $22 $57 $15 $29 0 $12 $-1 #
edge $-1 $58 $36 $28 $59 0 #
coedge $-1 $60 $61 $16 $31 0 $62 $-1 #
edge $-1 $35 $63 $30 $64 0 #
coedge $-1 $65 $17 $61 $66 1 $34 $-1 #
coedge $-1 $17 $65 $67 $68 0 $34 $-1 #
loop $-1 $-1 $17 $69 #
vertex $-1 $66 $70 #
vertex $-1 $68 $71 #
straight-curve $-1 7 8 3 -0 -1 -0 #
face $-1 $72 $73 $2 $-1 $74 forward single #
loop $-1 $-1 $75 $19 #
torus-surface $-1 28 -45.67767 3 -0 -0 -1 11 2 -1 0 0 0 #
loop $-1 $-1 $55 $11 #
coedge $-1 $76 $77 $75 $78 1 $20 $-1 #
coedge $-1 $57 $22 $23 $47 0 $12 $-1 #
coedge $-1 $67 $79 $22 $45 1 $80 $-1 #
edge $-1 $36 $81 $44 $82 0 #
coedge $-1 $24 $23 $83 $84 0 $8 $-1 #
edge $-1 $81 $53 $43 $85 0 #
coedge $-1 $86 $60 $24 $49 0 $62 $-1 #
edge $-1 $52 $87 $48 $88 0 #
coedge $-1 $55 $25 $60 $89 1 $41 $-1 #
coedge $-1 $25 $55 $57 $90 1 $41 $-1 #
vertex $-1 $89 $91 #
vertex $-1 $26 $92 #
straight-curve $-1 47 -45.67767 5 -0 -1 -0 #
coedge $-1 $51 $50 $27 $56 1 $41 $-1 #
edge $-1 $58 $63 $55 $93 0 #
coedge $-1 $28 $43 $51 $90 0 $12 $-1 #
vertex $-1 $56 $94 #
ellipse-curve $-1 9 -45.67767 3 -5.04579357331835e-15 -1 0 -1.41421356237309 0 1.41421356237309 1 #
coedge $-1 $48 $30 $50 $89 0 $62 $-1 #
coedge $-1 $30 $95 $32 $66 0 $62 $-1 #
loop $-1 $-1 $86 $96 #
vertex $-1 $89 $97 #
ellipse-curve $-1 9 -14.67767 3 -0 0.707106781186549 -0.707106781186546 -2.22044604925031e-16 1.99999999999999 2 0.707106781186549 #
coedge $-1 $33 $32 $98 $99 1 $34 $-1 #
edge $-1 $100 $35 $61 $101 0 #
coedge $-1 $102 $44 $33 $68 1 $80 $-1 #
edge $-1 $103 $36 $33 $104 0 #
face $-1 $105 $34 $2 $-1 $106 forward single #
point $-1 7 -14.67767 3 #
point $-1 7 -45.67767 3 #
face $-1 $107 $108 $2 $-1 $109 forward single #
loop $-1 $-1 $110 $38 #
cone-surface $-1 39 -36.67767 3 0 -1 0 -1.41421356237309 0 1.41421356237309 1 0 1 0 #
coedge $-1 $111 $112 $42 $78 0 $39 $-1 #
coedge $-1 $113 $42 $114 $115 1 $20 $-1 #
coedge $-1 $42 $113 $110 $116 1 $20 $-1 #
edge $-1 $117 $118 $42 $119 0 #
coedge $-1 $44 $102 $120 $121 0 $80 $-1 #
loop $-1 $-1 $44 $122 #
vertex $-1 $121 $123 #
ellipse-curve $-1 28 -45.6776700000001 3 0 0 1 0 -21 0 1 #
coedge $-1 $120 $124 $46 $84 1 $125 $-1 #
edge $-1 $81 $87 $83 $126 0 #
ellipse-curve $-1 47 -45.67767 3 5.04579357331835e-15 -1 0 1.41421356237309 0 1.41421356237309 1 #
coedge $-1 $127 $48 $124 $128 0 $62 $-1 #
vertex $-1 $128 $129 #
ellipse-curve $-1 47 -14.67767 3 -0 0.707106781186549 -0.707106781186546 2.22044604925031e-16 1.99999999999999 2 0.707106781186549 #
edge $-1 $63 $52 $60 $130 0 #
edge $-1 $53 $58 $51 $131 0 #
point $-1 47 -12.67767 5 #
point $-1 47 -45.67767 5 #
straight-curve $-1 9 8 5 0 1 0 #
point $-1 9 -45.67767 5 #
coedge $-1 $61 $132 $133 $134 1 $62 $-1 #
face $-1 $135 $62 $2 $-1 $136 forward single #
point $-1 9 -12.67767 5 #
coedge $-1 $133 $137 $65 $99 0 $138 $-1 #
edge $-1 $103 $100 $98 $139 0 #
vertex $-1 $66 $140 #
straight-curve $-1 7 -14.9180404311536 2.75962956884637 0 0.707106781186546 0.707106781186549 #
coedge $-1 $79 $67 $137 $141 1 $80 $-1 #
vertex $-1 $141 $142 #
straight-curve $-1 7 -45.67767 0 0 0 1 #
face $-1 $122 $125 $2 $-1 $143 forward single #
plane-surface $-1 7 -45.67767 0 -1 0 0 0 0 1 0 #
face $-1 $144 $145 $2 $-1 $146 forward single #
loop $-1 $-1 $147 $72 #
cone-surface $-1 17 -36.67767 3 0 1 0 1.41421356237309 0 1.41421356237309 1 0 1 0 #
coedge $-1 $148 $149 $77 $116 0 $73 $-1 #
coedge $-1 $150 $75 $149 $151 1 $39 $-1 #
coedge $-1 $75 $150 $152 $153 1 $39 $-1 #
coedge $-1 $77 $76 $154 $155 1 $20 $-1 #
coedge $-1 $152 $156 $76 $115 0 $108 $-1 #
edge $-1 $157 $117 $76 $158 0 #
edge $-1 $118 $159 $77 $160 0 #
vertex $-1 $78 $161 #
vertex $-1 $78 $162 #
ellipse-curve $-1 28 -45.67767 5 0 0 1 0 -11 0 1 #
coedge $-1 $163 $83 $79 $121 1 $125 $-1 #
edge $-1 $164 $81 $79 $165 0 #
face $-1 $166 $80 $2 $-1 $167 forward single #
point $-1 49 -45.67767 3 #
coedge $-1 $83 $163 $86 $128 1 $125 $-1 #
loop $-1 $-1 $83 $105 #
straight-curve $-1 49 -45.67767 3 0 1 0 #
coedge $-1 $168 $86 $169 $170 1 $62 $-1 #
edge $-1 $87 $171 $86 $172 0 #
point $-1 49 -14.67767 3 #
straight-curve $-1 17.5 -12.67767 5 1 0 -0 #
ellipse-curve $-1 28 -45.6776700000001 5 -0 -0 -1 0 -19 0 1 #
coedge $-1 $95 $173 $174 $175 0 $62 $-1 #
coedge $-1 $176 $98 $95 $134 0 $138 $-1 #
edge $-1 $100 $177 $133 $178 0 #
face $-1 $179 $180 $2 $-1 $181 forward single #
plane-surface $-1 28 1.84158913769268 19.5192591376927 0 -0.707106781186549 0.707106781186546 1 0 0 0 #
coedge $-1 $98 $182 $102 $141 0 $138 $-1 #
loop $-1 $-1 $182 $166 #
straight-curve $-1 7 -49.4982913358899 0 0 1 -0 #
point $-1 7 -17.67767 0 #
edge $-1 $164 $103 $137 $183 0 #
point $-1 7 -45.67767 0 #
plane-surface $-1 49 8 0 1 0 0 0 0 -1 0 #
face $-1 $184 $185 $2 $-1 $186 reversed single #
loop $-1 $-1 $154 $107 #
torus-surface $-1 28 -27.67767 3 -0 -0 -1 11 2 -1 0 0 0 #
coedge $-1 $156 $152 $187 $188 0 $108 $-1 #
coedge $-1 $189 $110 $190 $191 1 $73 $-1 #
coedge $-1 $110 $189 $111 $151 0 $73 $-1 #
coedge $-1 $112 $111 $192 $193 0 $39 $-1 #
edge $-1 $194 $118 $149 $195 0 #
coedge $-1 $147 $114 $112 $153 0 $108 $-1 #
edge $-1 $117 $196 $152 $197 0 #
coedge $-1 $198 $190 $113 $155 0 $145 $-1 #
edge $-1 $159 $157 $113 $199 0 #
coedge $-1 $114 $147 $198 $200 1 $108 $-1 #
vertex $-1 $115 $201 #
straight-curve $-1 17 -18.838835 5 0 -1 0 #
vertex $-1 $116 $202 #
straight-curve $-1 39 -9.838835 5 0 1 0 #
point $-1 17 -45.67767 5 #
point $-1 39 -45.67767 5 #
coedge $-1 $124 $120 $182 $203 1 $125 $-1 #
vertex $-1 $203 $204 #
straight-curve $-1 49 -45.67767 0 0 0 1 #
face $-1 $205 $138 $2 $-1 $206 forward single #
cone-surface $-1 28 -45.6776700000001 0 0 0 1 0 -21 0 1 0 1 0 #
coedge $-1 $173 $127 $207 $208 0 $62 $-1 #
coedge $-1 $182 $209 $127 $170 0 $138 $-1 #
edge $-1 $210 $171 $169 $178 0 #
vertex $-1 $170 $211 #
straight-curve $-1 49 -1.49862293115368 16.1790470688464 0 -0.707106781186546 -0.707106781186549 #
coedge $-1 $132 $168 $212 $213 0 $62 $-1 #
coedge $-1 $214 $215 $132 $175 1 $216 $-1 #
edge $-1 $217 $177 $132 $218 0 #
coedge $-1 $219 $133 $220 $221 0 $138 $-1 #
vertex $-1 $134 $222 #
straight-curve $-1 14 -17.67767 0 -1 0 0 #
face $-1 $223 $216 $2 $-1 $224 forward single #
loop $-1 $-1 $225 $135 #
plane-surface $-1 56 -17.67767 0 0.980723075323921 0.138170636401499 0.1381706364015 0 0.707106781186549 -0.707106781186546 0 #
coedge $-1 $137 $169 $163 $203 0 $138 $-1 #
ellipse-curve $-1 28 -45.6776700000001 0 -0 -0 -1 0 -21 0 1 #
face $-1 $226 $227 $2 $-1 $228 reversed single #
loop $-1 $-1 $187 $144 #
plane-surface $-1 19 -45.67767 -5 -1 0 0 0 0 1 0 #
coedge $-1 $229 $230 $147 $188 1 $185 $-1 #
edge $-1 $196 $231 $187 $232 0 #
coedge $-1 $149 $148 $233 $234 0 $73 $-1 #
coedge $-1 $154 $235 $148 $191 0 $145 $-1 #
edge $-1 $236 $159 $190 $237 0 #
coedge $-1 $238 $239 $150 $193 1 $227 $-1 #
edge $-1 $194 $196 $192 $240 0 #
vertex $-1 $241 $242 #
ellipse-curve $-1 39 -45.67767 3 -0 1 -0 -1.41421356237309 0 1.41421356237309 1 #
vertex $-1 $243 $244 #
ellipse-curve $-1 17 -45.67767 3 0 1 0 1.41421356237309 0 1.41421356237309 1 #
coedge $-1 $235 $154 $156 $200 0 $145 $-1 #
ellipse-curve $-1 28 -27.67767 5 0 0 1 0 11 0 1 #
edge $-1 $157 $231 $198 $245 0 #
point $-1 17 -27.67767 5 #
point $-1 39 -27.67767 5 #
edge $-1 $171 $164 $182 $246 0 #
point $-1 49 -45.67767 0 #
face $-1 $247 $248 $2 $-1 $249 forward single #
plane-surface $-1 28 -53.3189126717798 0 0 0 1 1 0 0 0 #
coedge $-1 $250 $251 $168 $208 1 $180 $-1 #
edge $-1 $210 $252 $168 $253 0 #
coedge $-1 $169 $254 $255 $256 0 $138 $-1 #
vertex $-1 $256 $257 #
point $-1 49 -17.67767 0 #
coedge $-1 $258 $259 $173 $213 1 $260 $-1 #
edge $-1 $252 $217 $173 $261 0 #
coedge $-1 $262 $174 $259 $263 0 $216 $-1 #
coedge $-1 $174 $262 $264 $265 1 $216 $-1 #
loop $-1 $-1 $262 $179 #
vertex $-1 $213 $266 #
straight-curve $-1 11 21.3608482753854 39.0385182753855 -0.195402787920722 -0.693475937027669 -0.693475937027671 #
coedge $-1 $267 $176 $268 $269 0 $138 $-1 #
coedge $-1 $264 $270 $176 $221 1 $271 $-1 #
edge $-1 $177 $272 $176 $273 0 #
point $-1 0 -17.67767 0 #
face $-1 $274 $275 $2 $-1 $276 reversed single #
plane-surface $-1 11 21.3608482753854 39.0385182753855 -0.980723075323921 0.138170636401499 0.1381706364015 0 -0.707106781186549 0.707106781186546 0 #
coedge $-1 $251 $250 $277 $278 0 $180 $-1 #
face $-1 $279 $280 $2 $-1 $281 forward single #
loop $-1 $-1 $192 $184 #
cone-surface $-1 28 -45.67767 -5 0 0 1 0 -9 0 1 0 1 0 #
coedge $-1 $282 $187 $239 $243 1 $185 $-1 #
coedge $-1 $187 $282 $283 $284 0 $185 $-1 #
vertex $-1 $284 $285 #
straight-curve $-1 19 -18.838835 3 0 1 0 #
coedge $-1 $286 $287 $189 $234 1 $288 $-1 #
edge $-1 $236 $194 $233 $289 0 #
coedge $-1 $190 $198 $290 $291 0 $145 $-1 #
vertex $-1 $292 $293 #
ellipse-curve $-1 39 -27.67767 3 -6.12323399573677e-17 1 -0 -1.41421356237309 0 1.41421356237309 1 #
coedge $-1 $294 $192 $287 $241 1 $227 $-1 #
coedge $-1 $192 $294 $229 $243 0 $227 $-1 #
ellipse-curve $-1 28 -45.67767 3 -0 -0 -1 0 -9 0 1 #
edge $-1 $295 $194 $238 $296 0 #
point $-1 37 -45.67767 3 #
edge $-1 $297 $196 $229 $298 0 #
point $-1 19 -45.67767 3 #
ellipse-curve $-1 17 -27.67767 3 6.12323399573677e-17 1 0 1.41421356237309 0 1.41421356237309 1 #
straight-curve $-1 49 -22.6594563358899 0 0 -1 0 #
face $-1 $299 $300 $2 $-1 $301 forward single #
loop $-1 $302 $303 $205 #
cone-surface $-1 28 43.1611645927213 43.1611650630578 0 -0.707106781186549 0.707106781186546 25 0 0 1 0 1 0 #
coedge $-1 $225 $207 $304 $305 1 $180 $-1 #
coedge $-1 $207 $225 $258 $306 0 $180 $-1 #
vertex $-1 $208 $307 #
straight-curve $-1 56 -17.67767 0 -0.195402787920722 0.693475937027669 0.693475937027671 #
coedge $-1 $209 $267 $308 $309 0 $138 $-1 #
coedge $-1 $310 $304 $209 $256 1 $311 $-1 #
edge $-1 $312 $210 $209 $313 0 #
point $-1 56 -17.67767 0 #
coedge $-1 $314 $212 $251 $306 1 $260 $-1 #
coedge $-1 $212 $314 $214 $263 1 $260 $-1 #
loop $-1 $-1 $259 $205 #
ellipse-curve $-1 28 34.3223298278895 51.9999998278896 -0 0.707106781186549 -0.707106781186546 25 0 0 1 #
coedge $-1 $215 $214 $315 $316 0 $216 $-1 #
edge $-1 $217 $317 $214 $318 0 #
coedge $-1 $319 $220 $215 $265 0 $271 $-1 #
edge $-1 $177 $320 $264 $321 0 #
point $-1 11 21.3608482753854 39.0385182753855 #
coedge $-1 $254 $219 $322 $323 0 $138 $-1 #
coedge $-1 $324 $325 $219 $269 1 $326 $-1 #
edge $-1 $272 $327 $219 $328 0 #
coedge $-1 $220 $329 $324 $330 1 $271 $-1 #
loop $-1 $-1 $329 $274 #
vertex $-1 $221 $331 #
straight-curve $-1 0 0 0 0 -1 0 #
face $-1 $332 $271 $2 $-1 $333 forward single #
loop $-1 $-1 $334 $223 #
plane-surface $-1 56 -4.70336278368677e-07 -17.6776695296637 0 -0.707106781186549 0.707106781186546 1 0 0 0 #
coedge $-1 $335 $334 $225 $278 1 $275 $-1 #
edge $-1 $336 $337 $225 $338 0 #
face $-1 $339 $340 $2 $-1 $341 forward single #
loop $-1 $-1 $342 $226 #
cone-surface $-1 8.7292740578363 -71.67767 -23 1 0 0 0 -1.41421356237309 -1.41421356237309 1 0 1 0 #
coedge $-1 $230 $229 $343 $344 1 $185 $-1 #
coedge $-1 $345 $290 $230 $284 1 $346 $-1 #
edge $-1 $347 $231 $283 $348 0 #
point $-1 19 -27.67767 3 #
coedge $-1 $349 $233 $350 $292 1 $288 $-1 #
coedge $-1 $233 $349 $238 $241 0 $288 $-1 #
loop $-1 $-1 $233 $351 #
straight-curve $-1 37 -9.838835 3 0 -1 0 #
coedge $-1 $283 $350 $235 $291 1 $346 $-1 #
edge $-1 $231 $236 $290 $352 0 #
edge $-1 $353 $236 $286 $354 0 #
point $-1 37 -27.67767 3 #
coedge $-1 $239 $238 $355 $356 1 $227 $-1 #
vertex $-1 $356 $357 #
straight-curve $-1 37 -45.67767 -5 0 0 1 #
vertex $-1 $344 $358 #
straight-curve $-1 19 -45.67767 -5 0 0 1 #
face $-1 $359 $360 $2 $-1 $301 forward single #
loop $-1 $-1 $361 $247 #
plane-surface $-1 28 35.7365433902625 57.656854077382 0 -0.707106781186546 -0.707106781186549 0 0.707106781186549 -0.707106781186546 0 #
loop $-1 $260 $362 $205 #
coedge $-1 $303 $303 $363 $364 1 $248 $-1 #
coedge $-1 $255 $365 $250 $305 0 $311 $-1 #
edge $-1 $336 $210 $304 $366 0 #
edge $-1 $337 $252 $251 $367 1 #
point $-1 45 21.3608482753854 39.0385182753855 #
coedge $-1 $368 $369 $254 $309 1 $370 $-1 #
edge $-1 $371 $312 $254 $372 0 #
coedge $-1 $373 $255 $369 $374 0 $311 $-1 #
loop $-1 $-1 $373 $375 #
vertex $-1 $309 $376 #
straight-curve $-1 56 -67.67767 0 0 1 0 #
coedge $-1 $259 $258 $334 $377 1 $260 $-1 #
coedge $-1 $334 $335 $262 $316 1 $275 $-1 #
edge $-1 $317 $320 $262 $378 0 #
vertex $-1 $263 $379 #
straight-curve $-1 11 21.3608482753854 39.0385182753855 0 0.707106781186549 -0.707106781186546 #
coedge $-1 $329 $264 $380 $381 0 $271 $-1 #
vertex $-1 $382 $383 #
straight-curve $-1 0 -13.2582525 -4.4194175 0 0.707106781186549 -0.707106781186546 #
coedge $-1 $384 $385 $267 $323 1 $386 $-1 #
edge $-1 $327 $371 $267 $387 0 #
coedge $-1 $388 $268 $270 $330 0 $326 $-1 #
coedge $-1 $268 $388 $384 $389 1 $326 $-1 #
loop $-1 $-1 $388 $390 #
vertex $-1 $269 $391 #
ellipse-curve $-1 5.99999999999999 -67.67767 0 0 0 1 -4.24264068711928 -4.24264068711928 0 1 #
coedge $-1 $270 $319 $392 $393 1 $271 $-1 #
edge $-1 $272 $394 $324 $395 0 #
point $-1 0 -67.67767 0 #
face $-1 $396 $397 $2 $-1 $398 reversed single #
plane-surface $-1 0 0 0 -1 0 0 0 -0 1 0 #
coedge $-1 $277 $315 $314 $377 0 $275 $-1 #
coedge $-1 $315 $277 $399 $382 1 $275 $-1 #
vertex $-1 $305 $400 #
vertex $-1 $306 $401 #
straight-curve $-1 56 -4.70336278368677e-07 -17.6776695296637 -0.195402787920722 0.693475937027669 0.693475937027671 #
face $-1 $402 $403 $2 $-1 $404 forward single #
loop $-1 $-1 $405 $279 #
torus-surface $-1 5.99999999999999 -67.67767 -23 0 0 1 3.99999999999999 2 1 0 0 0 #
coedge $-1 $406 $407 $408 $409 0 $280 $-1 #
coedge $-1 $355 $410 $282 $344 0 $411 $-1 #
edge $-1 $347 $297 $282 $412 0 #
coedge $-1 $350 $283 $410 $413 1 $346 $-1 #
loop $-1 $-1 $290 $414 #
vertex $-1 $344 $415 #
straight-curve $-1 19 -27.67767 -5 0 0 1 #
coedge $-1 $287 $286 $416 $417 1 $288 $-1 #
coedge $-1 $290 $345 $286 $292 0 $346 $-1 #
face $-1 $418 $288 $2 $-1 $419 reversed single #
ellipse-curve $-1 28 -27.67767 3 -0 -0 -1 0 9 0 1 #
vertex $-1 $417 $420 #
straight-curve $-1 37 -27.67767 -5 0 0 1 #
coedge $-1 $416 $343 $294 $356 0 $411 $-1 #
edge $-1 $297 $295 $294 $421 0 #
point $-1 37 -45.67767 -5 #
point $-1 19 -45.67767 -5 #
face $-1 $422 $423 $2 $-1 $424 forward single #
loop $-1 $-1 $425 $299 #
coedge $-1 $426 $427 $428 $429 1 $300 $-1 #
coedge $-1 $430 $431 $432 $433 0 $302 $-1 #
coedge $-1 $363 $363 $303 $364 0 $434 $-1 #
edge $-1 $435 $435 $363 $436 0 #
coedge $-1 $304 $373 $437 $438 1 $311 $-1 #
straight-curve $-1 56 -30.17767 12.5 0 -0.707106781186549 0.707106781186546 #
straight-curve $-1 45 21.3608482753854 39.0385182753855 0 0.707106781186549 -0.707106781186546 #
coedge $-1 $439 $308 $385 $440 0 $370 $-1 #
coedge $-1 $308 $439 $310 $374 1 $370 $-1 #
loop $-1 $-1 $439 $441 #
vertex $-1 $323 $442 #
ellipse-curve $-1 50 -67.67767 0 0 0 1 4.24264068711928 -4.24264068711928 0 1 #
coedge $-1 $365 $310 $443 $444 1 $311 $-1 #
edge $-1 $312 $445 $310 $446 0 #
face $-1 $414 $311 $2 $-1 $447 forward single #
point $-1 56 -67.67767 0 #
edge $-1 $317 $337 $334 $448 0 #
straight-curve $-1 11 39.0385178050491 21.3608487457218 -0.195402787920722 -0.693475937027669 -0.693475937027671 #
point $-1 11 39.0385178050491 21.3608487457218 #
coedge $-1 $399 $449 $319 $381 1 $450 $-1 #
edge $-1 $320 $451 $319 $452 0 #
edge $-1 $320 $336 $399 $453 0 #
point $-1 0 0 -17.6776699999999 #
coedge $-1 $408 $322 $325 $389 0 $386 $-1 #
coedge $-1 $322 $454 $368 $440 1 $386 $-1 #
loop $-1 $-1 $408 $455 #
straight-curve $-1 6 -73.67767 0 1 0 0 #
coedge $-1 $325 $324 $405 $456 1 $326 $-1 #
edge $-1 $327 $457 $384 $458 0 #
face $-1 $-1 $326 $2 $-1 $459 forward single #
point $-1 6 -73.67767 0 #
coedge $-1 $460 $461 $329 $393 0 $403 $-1 #
edge $-1 $394 $451 $329 $462 0 #
vertex $-1 $330 $463 #
straight-curve $-1 0 -67.67767 0 0 0 -1 #
face $-1 $464 $465 $2 $-1 $466 forward single #
loop $-1 $-1 $467 $332 #
plane-surface $-1 40.5 -80 -18 0.866025403784438 0 0.500000000000001 0.500000000000001 0 -0.866025403784438 0 #
coedge $-1 $437 $380 $335 $382 0 $450 $-1 #
point $-1 56 0 -17.6776699999999 #
point $-1 45 39.0385178050491 21.3608487457218 #
face $-1 $468 $469 $2 $-1 $470 reversed single #
loop $-1 $-1 $392 $339 #
cone-surface $-1 2 -33.838835 -23 -0 -1 -0 -1.41421356237309 0 -1.41421356237309 1 0 1 0 #
coedge $-1 $471 $472 $388 $456 0 $340 $-1 #
coedge $-1 $473 $342 $472 $474 1 $280 $-1 #
coedge $-1 $342 $473 $475 $476 0 $280 $-1 #
coedge $-1 $477 $384 $342 $409 1 $386 $-1 #
edge $-1 $478 $457 $408 $479 0 #
coedge $-1 $343 $416 $345 $413 0 $411 $-1 #
loop $-1 $-1 $343 $418 #
straight-curve $-1 19 -27.67767 -5 0 -1 0 #
edge $-1 $353 $347 $345 $480 0 #
face $-1 $351 $346 $2 $-1 $481 reversed single #
point $-1 19 -27.67767 -5 #
coedge $-1 $410 $355 $349 $417 0 $411 $-1 #
edge $-1 $295 $353 $349 $482 0 #
face $-1 $69 $411 $2 $-1 $483 forward single #
plane-surface $-1 37 -27.67767 -5 1 0 0 0 0 -1 0 #
point $-1 37 -27.67767 -5 #
ellipse-curve $-1 28 -45.67767 -5 0 0 1 0 -9 0 1 #
face $-1 $484 $485 $2 $-1 $486 forward single #
loop $-1 $-1 $487 $359 #
plane-surface $-1 28 28.6654755783971 50.5857862655165 0 0.707106781186546 0.707106781186549 0 -0.707106781186549 0.707106781186546 0 #
coedge $-1 $488 $489 $490 $491 1 $360 $-1 #
coedge $-1 $492 $361 $493 $494 1 $300 $-1 #
coedge $-1 $361 $492 $495 $496 0 $300 $-1 #
coedge $-1 $497 $498 $361 $429 0 $499 $-1 #
edge $-1 $500 $501 $428 $502 0 #
coedge $-1 $503 $362 $504 $505 1 $302 $-1 #
coedge $-1 $362 $506 $507 $508 0 $302 $-1 #
coedge $-1 $509 $510 $362 $433 1 $511 $-1 #
edge $-1 $512 $513 $362 $514 0 #
loop $-1 $-1 $363 $515 #
vertex $-1 $364 $516 #
ellipse-curve $-1 28 54.8284264822994 31.4939031734798 0 0.707106781186549 -0.707106781186546 25 0 0 1 #
coedge $-1 $517 $399 $365 $438 0 $450 $-1 #
edge $-1 $336 $518 $437 $519 0 #
coedge $-1 $369 $368 $520 $521 1 $370 $-1 #
edge $-1 $371 $522 $368 $523 0 #
face $-1 $375 $370 $2 $-1 $524 forward single #
point $-1 50 -73.67767 0 #
coedge $-1 $525 $526 $373 $444 0 $527 $-1 #
edge $-1 $518 $445 $373 $528 0 #
vertex $-1 $374 $529 #
straight-curve $-1 56 -67.67767 0 0 0 -1 #
plane-surface $-1 56 -67.67767 0 1 0 0 0 0 -1 0 #
ellipse-curve $-1 28 51.9999993575532 34.322330298226 0 -0.707106781186549 0.707106781186546 25 0 0 1 #
coedge $-1 $380 $530 $460 $531 1 $450 $-1 #
loop $-1 $-1 $449 $468 #
vertex $-1 $381 $532 #
straight-curve $-1 0 0 0 0 0 -1 #
straight-curve $-1 28 0 -17.6776699999999 1 0 0 #
coedge $-1 $385 $533 $534 $535 1 $386 $-1 #
face $-1 $441 $386 $2 $-1 $536 forward single #
edge $-1 $457 $394 $388 $537 0 #
vertex $-1 $389 $538 #
straight-curve $-1 6 -73.67767 0 0 0 -1 #
cone-surface $-1 5.99999999999999 -67.67767 0 0 0 -1 -4.24264068711928 -4.24264068711928 0 1 0 1 0 #
coedge $-1 $539 $392 $449 $531 0 $403 $-1 #
coedge $-1 $392 $539 $471 $540 0 $403 $-1 #
straight-curve $-1 0 0 -23 0 1 0 #
point $-1 0 -67.67767 -23 #
face $-1 $541 $542 $2 $-1 $543 reversed single #
loop $-1 $-1 $544 $396 #
plane-surface $-1 28 -39.5 -18 0 0 -1 -1 0 0 0 #
coedge $-1 $545 $546 $547 $548 1 $397 $-1 #
face $-1 $549 $450 $2 $-1 $550 forward single #
loop $-1 $-1 $551 $402 #
plane-surface $-1 0 -67.67767 -25 -0 -0 1 1 -0 0 0 #
coedge $-1 $552 $405 $461 $540 1 $340 $-1 #
coedge $-1 $405 $552 $406 $474 0 $340 $-1 #
coedge $-1 $407 $406 $551 $553 0 $280 $-1 #
edge $-1 $554 $457 $472 $555 0 #
coedge $-1 $556 $557 $407 $476 1 $542 $-1 #
edge $-1 $558 $478 $475 $559 0 #
coedge $-1 $560 $408 $557 $561 0 $386 $-1 #
vertex $-1 $409 $562 #
straight-curve $-1 6 -73.67767 -23 -1 -0 -0 #
ellipse-curve $-1 28 -27.67767 -5 0 0 1 0 9 0 1 #
cone-surface $-1 28 -27.67767 -5 0 0 1 0 9 0 1 0 1 0 #
straight-curve $-1 37 -45.67767 -5 0 1 0 #
plane-surface $-1 28 -36.67767 -5 0 0 1 1 0 0 0 #
face $-1 $563 $564 $2 $-1 $486 forward single #
loop $-1 $-1 $565 $422 #
plane-surface $-1 28 35.7365433902626 50.5857862655165 0 -0.707106781186549 0.707106781186546 1 0 0 0 #
coedge $-1 $566 $567 $568 $569 1 $423 $-1 #
coedge $-1 $570 $425 $571 $572 0 $360 $-1 #
coedge $-1 $425 $570 $573 $574 1 $360 $-1 #
coedge $-1 $498 $575 $425 $491 0 $499 $-1 #
edge $-1 $576 $577 $490 $578 0 #
coedge $-1 $427 $426 $579 $580 1 $300 $-1 #
coedge $-1 $581 $582 $426 $494 0 $583 $-1 #
edge $-1 $584 $500 $493 $585 0 #
coedge $-1 $586 $565 $427 $496 1 $485 $-1 #
edge $-1 $587 $501 $427 $588 0 #
coedge $-1 $568 $428 $565 $589 0 $499 $-1 #
coedge $-1 $428 $490 $581 $590 1 $499 $-1 #
loop $-1 $591 $592 $593 #
vertex $-1 $494 $594 #
vertex $-1 $589 $595 #
straight-curve $-1 12.8013158464293 46.6966984986541 46.6966989689906 0 0.707106781186549 -0.707106781186546 #
coedge $-1 $596 $430 $597 $598 0 $302 $-1 #
coedge $-1 $599 $600 $430 $505 0 $601 $-1 #
edge $-1 $602 $513 $504 $603 0 #
coedge $-1 $431 $604 $570 $605 0 $302 $-1 #
coedge $-1 $571 $606 $431 $508 1 $564 $-1 #
edge $-1 $607 $512 $431 $608 0 #
coedge $-1 $609 $432 $606 $610 0 $511 $-1 #
coedge $-1 $432 $609 $599 $611 1 $511 $-1 #
loop $-1 $-1 $609 $563 #
vertex $-1 $508 $612 #
vertex $-1 $505 $613 #
straight-curve $-1 52.4948974278318 39.6256306867886 39.6256311571251 0 -0.707106781186549 0.707106781186546 #
face $-1 $614 $615 $2 $-1 $616 forward single #
point $-1 53 54.8284264822994 31.4939031734798 #
coedge $-1 $617 $437 $526 $618 1 $450 $-1 #
vertex $-1 $438 $619 #
straight-curve $-1 56 0 0 0 0 -1 #
coedge $-1 $620 $621 $439 $521 0 $622 $-1 #
edge $-1 $445 $522 $439 $623 0 #
vertex $-1 $440 $624 #
straight-curve $-1 50 -73.67767 0 0 0 -1 #
cone-surface $-1 50 -67.67767 0 0 0 -1 4.24264068711928 -4.24264068711928 0 1 0 1 0 #
coedge $-1 $625 $443 $621 $626 0 $527 $-1 #
coedge $-1 $443 $625 $517 $618 0 $527 $-1 #
loop $-1 $-1 $443 $627 #
straight-curve $-1 56 -67.67767 -23 -0 -1 -0 #
point $-1 56 -67.67767 -23 #
coedge $-1 $449 $628 $629 $630 0 $450 $-1 #
edge $-1 $451 $631 $449 $632 0 #
point $-1 0 0 -23 #
coedge $-1 $454 $560 $545 $633 0 $386 $-1 #
coedge $-1 $547 $634 $454 $535 0 $635 $-1 #
edge $-1 $522 $636 $454 $637 0 #
plane-surface $-1 6 -73.67767 0 0 -1 0 0 0 -1 0 #
ellipse-curve $-1 5.99999999999999 -67.67767 -23 -0 -0 -1 -4.24264068711928 -4.24264068711928 0 1 #
point $-1 6 -73.67767 -23 #
coedge $-1 $461 $460 $638 $639 0 $403 $-1 #
edge $-1 $640 $394 $461 $641 0 #
face $-1 $390 $642 $2 $-1 $470 reversed single #
loop $-1 $-1 $475 $464 #
plane-surface $-1 15.5 1 -18 -0.866025403784438 0 0.500000000000001 0.500000000000001 0 0.866025403784438 0 #
coedge $-1 $643 $644 $560 $645 1 $465 $-1 #
coedge $-1 $646 $467 $533 $633 1 $397 $-1 #
coedge $-1 $467 $647 $648 $649 1 $397 $-1 #
coedge $-1 $650 $534 $467 $548 0 $635 $-1 #
edge $-1 $636 $651 $467 $652 0 #
face $-1 $653 $635 $2 $-1 $654 forward single #
plane-surface $-1 56 0 0 0 1 0 0 0 1 0 #
coedge $-1 $655 $656 $473 $553 1 $469 $-1 #
coedge $-1 $472 $471 $655 $657 0 $340 $-1 #
edge $-1 $554 $558 $551 $658 0 #
vertex $-1 $553 $659 #
ellipse-curve $-1 6 -71.67767 -23 -1 -1.44328993201271e-15 -0 2.51214793389404e-15 -1.41421356237309 -1.41421356237309 1 #
coedge $-1 $660 $475 $656 $661 1 $542 $-1 #
coedge $-1 $475 $662 $477 $561 1 $542 $-1 #
vertex $-1 $661 $663 #
ellipse-curve $-1 12.6132486540519 -71.67767 -23 -0.866025403784438 0 0.500000000000001 -1.15470053837925 -2.22044604925031e-16 -2 0.866025403784438 #
coedge $-1 $533 $477 $544 $645 0 $386 $-1 #
edge $-1 $478 $664 $477 $665 0 #
point $-1 12.6132486540519 -73.67767 -23 #
face $-1 $666 $511 $2 $-1 $424 forward single #
loop $-1 $-1 $667 $484 #
coedge $-1 $495 $668 $497 $589 1 $485 $-1 #
coedge $-1 $597 $487 $668 $669 0 $423 $-1 #
coedge $-1 $487 $597 $600 $670 1 $423 $-1 #
coedge $-1 $671 $497 $487 $569 0 $499 $-1 #
edge $-1 $672 $673 $568 $674 0 #
coedge $-1 $489 $488 $506 $605 1 $360 $-1 #
coedge $-1 $667 $507 $488 $572 1 $564 $-1 #
edge $-1 $576 $607 $488 $588 0 #
coedge $-1 $582 $581 $489 $574 0 $583 $-1 #
edge $-1 $577 $675 $573 $585 0 #
coedge $-1 $490 $592 $667 $676 0 $499 $-1 #
vertex $-1 $676 $677 #
vertex $-1 $590 $678 #
straight-curve $-1 43.1986841535707 46.6966984986541 46.6966989689906 0 -0.707106781186549 0.707106781186546 #
coedge $-1 $604 $596 $492 $580 0 $302 $-1 #
edge $-1 $587 $584 $579 $679 0 #
coedge $-1 $573 $493 $498 $590 0 $583 $-1 #
coedge $-1 $493 $573 $604 $680 0 $583 $-1 #
loop $-1 $-1 $573 $666 #
vertex $-1 $680 $681 #
straight-curve $-1 28 35.029436609076 58.3639608585686 1 0 0 #
coedge $-1 $668 $495 $596 $682 1 $485 $-1 #
vertex $-1 $682 $683 #
straight-curve $-1 28 39.2720772961953 54.1213201714493 1 0 0 #
edge $-1 $501 $672 $497 $684 0 #
edge $-1 $500 $577 $581 $685 0 #
loop $-1 $-1 $686 $593 #
coedge $-1 $575 $671 $609 $687 0 $499 $-1 #
face $-1 $515 $499 $2 $-1 $688 reversed single #
point $-1 12.8013158464293 35.029436609076 58.3639608585686 #
point $-1 12.8013158464293 39.2720772961953 54.1213201714493 #
coedge $-1 $579 $503 $586 $682 0 $302 $-1 #
coedge $-1 $567 $566 $503 $598 1 $423 $-1 #
edge $-1 $602 $689 $503 $690 0 #
coedge $-1 $691 $504 $510 $611 0 $601 $-1 #
coedge $-1 $504 $691 $567 $670 0 $601 $-1 #
loop $-1 $-1 $599 $614 #
vertex $-1 $598 $692 #
ellipse-curve $-1 28 31.4939027031433 54.8284269526358 0 -0.707106781186549 0.707106781186546 25 0 0 1 #
coedge $-1 $506 $579 $582 $680 1 $302 $-1 #
edge $-1 $675 $607 $506 $693 0 #
coedge $-1 $507 $667 $509 $610 1 $564 $-1 #
vertex $-1 $508 $694 #
ellipse-curve $-1 28 35.7365433902626 50.5857862655165 -0 0.707106781186549 -0.707106781186546 25 0 0 1 #
coedge $-1 $510 $509 $592 $687 1 $511 $-1 #
edge $-1 $512 $695 $509 $696 0 #
edge $-1 $513 $697 $599 $698 0 #
point $-1 52.4948974278318 32.2010094843298 47.0502523595838 #
point $-1 52.4948974278318 27.9583687972105 51.2928930467031 #
face $-1 $96 $601 $2 $-1 $699 forward single #
loop $-1 $434 $700 $515 #
plane-surface $-1 28 54.8284264822994 31.4939031734798 0 0.707106781186549 -0.707106781186546 -1 0 0 0 #
coedge $-1 $701 $517 $702 $703 0 $450 $-1 #
edge $-1 $704 $518 $517 $705 0 #
point $-1 56 0 -23 #
coedge $-1 $706 $520 $634 $707 0 $622 $-1 #
coedge $-1 $520 $706 $525 $626 1 $622 $-1 #
loop $-1 $-1 $706 $653 #
ellipse-curve $-1 50 -67.67767 -23 -0 -0 -1 4.24264068711928 -4.24264068711928 0 1 #
point $-1 50 -73.67767 -23 #
coedge $-1 $526 $525 $708 $709 0 $527 $-1 #
edge $-1 $445 $710 $525 $711 0 #
face $-1 $455 $527 $2 $-1 $712 forward single #
coedge $-1 $530 $713 $660 $714 0 $450 $-1 #
coedge $-1 $656 $638 $530 $630 1 $469 $-1 #
edge $-1 $715 $631 $530 $716 0 #
vertex $-1 $630 $717 #
ellipse-curve $-1 2 0 -23 -0 -1 -0 -1.41421356237309 0 -1.41421356237309 1 #
edge $-1 $718 $636 $533 $719 0 #
coedge $-1 $534 $650 $620 $707 1 $635 $-1 #
loop $-1 $-1 $650 $549 #
vertex $-1 $633 $720 #
straight-curve $-1 6 -73.67767 -23 -1 -0 -0 #
coedge $-1 $629 $655 $539 $639 1 $469 $-1 #
edge $-1 $631 $640 $638 $721 0 #
vertex $-1 $657 $722 #
ellipse-curve $-1 2 -67.67767 -23 -0 1 -0 -1.41421356237309 0 -1.41421356237309 1 #
loop $-1 $-1 $723 $541 #
coedge $-1 $724 $544 $662 $725 0 $465 $-1 #
coedge $-1 $544 $724 $646 $726 0 $465 $-1 #
edge $-1 $664 $718 $560 $727 0 #
coedge $-1 $647 $545 $644 $726 1 $397 $-1 #
coedge $-1 $546 $646 $701 $728 1 $397 $-1 #
coedge $-1 $702 $723 $546 $649 0 $642 $-1 #
edge $-1 $651 $729 $648 $730 0 #
coedge $-1 $634 $547 $723 $731 0 $635 $-1 #
vertex $-1 $731 $732 #
ellipse-curve $-1 43.3867513459481 -71.67767 -23 0.866025403784438 0 0.500000000000001 1.15470053837925 -2.22044604925031e-16 -2 0.866025403784438 #
face $-1 $627 $622 $2 $-1 $733 forward single #
cone-surface $-1 47.2707259421637 -71.67767 -23 1 0 0 0 -1.41421356237309 -1.41421356237309 1 0 1 0 #
coedge $-1 $638 $551 $552 $657 1 $469 $-1 #
coedge $-1 $551 $629 $556 $661 0 $469 $-1 #
edge $-1 $640 $554 $655 $734 0 #
straight-curve $-1 6 -71.67767 -25 1 0 0 #
point $-1 6 -71.67767 -25 #
coedge $-1 $662 $556 $628 $714 1 $542 $-1 #
edge $-1 $715 $558 $656 $735 0 #
coedge $-1 $557 $660 $643 $725 1 $542 $-1 #
point $-1 11.4585481156726 -71.67767 -25 #
vertex $-1 $561 $736 #
straight-curve $-1 18.20961431703 -73.67767 -13.3068103339881 0.500000000000001 0 0.866025403784438 #
face $-1 $593 $583 $2 $-1 $699 forward single #
coedge $-1 $606 $571 $575 $676 1 $564 $-1 #
coedge $-1 $565 $586 $566 $669 1 $485 $-1 #
edge $-1 $672 $689 $566 $696 0 #
edge $-1 $673 $602 $600 $698 0 #
coedge $-1 $592 $568 $691 $737 1 $499 $-1 #
vertex $-1 $589 $738 #
vertex $-1 $737 $739 #
straight-curve $-1 12.8013158464293 39.6256306867886 39.6256311571251 0 -0.707106781186549 0.707106781186546 #
vertex $-1 $605 $740 #
edge $-1 $695 $576 $575 $741 0 #
point $-1 43.1986841535707 39.2720772961953 54.1213201714493 #
point $-1 43.1986841535707 35.029436609076 58.3639608585686 #
straight-curve $-1 3.50510257216822 46.6966984986541 46.6966989689906 0 -0.707106781186549 0.707106781186546 #
edge $-1 $675 $584 $582 $603 0 #
point $-1 3.50510257216822 35.029436609076 58.3639608585686 #
edge $-1 $689 $587 $596 $742 0 #
point $-1 3.50510257216822 39.2720772961953 54.1213201714493 #
ellipse-curve $-1 28 35.7365433902626 50.5857862655165 0 -0.707106781186549 0.707106781186546 16 0 0 1 #
ellipse-curve $-1 28 31.4939027031433 54.8284269526358 -0 0.707106781186549 -0.707106781186546 16 0 0 1 #
coedge $-1 $686 $686 $700 $743 1 $591 $-1 #
edge $-1 $697 $695 $592 $744 0 #
cone-surface $-1 28 43.1611645927213 43.1611650630578 0 -0.707106781186549 0.707106781186546 16 0 0 1 0 1 0 #
vertex $-1 $682 $745 #
straight-curve $-1 3.50510257216822 39.6256306867886 39.6256311571251 -0 0.707106781186549 -0.707106781186546 #
coedge $-1 $600 $599 $671 $737 0 $601 $-1 #
point $-1 3.50510257216822 27.9583687972105 51.2928930467031 #
straight-curve $-1 52.4948974278318 46.6966984986541 46.6966989689906 -0 0.707106781186549 -0.707106781186546 #
point $-1 52.4948974278318 39.2720772961953 54.1213201714493 #
vertex $-1 $676 $746 #
straight-curve $-1 28 32.2010094843298 47.0502523595838 -1 0 0 #
vertex $-1 $611 $747 #
straight-curve $-1 28 27.9583687972105 51.2928930467031 -1 0 0 #
plane-surface $-1 28 31.4939027031433 54.8284269526358 0 -0.707106781186549 0.707106781186546 1 0 0 0 #
coedge $-1 $700 $700 $686 $743 0 $615 $-1 #
coedge $-1 $713 $617 $647 $728 0 $450 $-1 #
coedge $-1 $708 $648 $617 $703 1 $642 $-1 #
edge $-1 $704 $729 $617 $716 0 #
vertex $-1 $618 $748 #
ellipse-curve $-1 54 0 -23 -0 -1 -0 1.41421356237309 0 -1.41421356237309 1 #
coedge $-1 $621 $620 $749 $750 0 $622 $-1 #
edge $-1 $522 $751 $620 $752 0 #
coedge $-1 $749 $702 $625 $709 1 $642 $-1 #
edge $-1 $710 $704 $708 $753 0 #
vertex $-1 $750 $754 #
ellipse-curve $-1 54 -67.67767 -23 0 1 0 1.41421356237309 0 -1.41421356237309 1 #
cone-surface $-1 54 -33.838835 -23 -0 1 0 1.41421356237309 0 -1.41421356237309 1 0 1 0 #
coedge $-1 $628 $701 $724 $755 0 $450 $-1 #
edge $-1 $756 $715 $628 $757 0 #
vertex $-1 $714 $758 #
straight-curve $-1 56 0 -25 -1 0 0 #
point $-1 2 0 -25 #
vertex $-1 $633 $759 #
straight-curve $-1 32.29038568297 -73.67767 -3.78053089235922 0.500000000000001 0 -0.866025403784438 #
point $-1 43.3867513459481 -73.67767 -23 #
straight-curve $-1 2 0 -25 0 -1 0 #
point $-1 2 -67.67767 -25 #
coedge $-1 $648 $749 $650 $731 1 $642 $-1 #
coedge $-1 $644 $643 $713 $755 1 $465 $-1 #
edge $-1 $664 $756 $662 $760 0 #
edge $-1 $761 $718 $646 $762 0 #
straight-curve $-1 17 -73.67767 -18 1 0 0 #
edge $-1 $729 $761 $701 $763 0 #
vertex $-1 $703 $764 #
straight-curve $-1 44.5414518843274 -73.838835 -25 -0 1 0 #
edge $-1 $651 $751 $723 $765 0 #
point $-1 44.5414518843274 -71.67767 -25 #
torus-surface $-1 50 -67.67767 -23 0 0 1 3.99999999999999 2 1 0 0 0 #
ellipse-curve $-1 5.99999999999999 -67.67767 -25 0 0 1 -2.82842712474619 -2.82842712474619 0 1 #
straight-curve $-1 11.4585481156726 -33.338835 -25 -0 -1 -0 #
point $-1 15.5 -73.67767 -18 #
edge $-1 $697 $673 $691 $685 0 #
point $-1 12.8013158464293 32.2010094843298 47.0502523595838 #
point $-1 12.8013158464293 27.9583687972105 51.2928930467031 #
point $-1 52.4948974278318 35.029436609076 58.3639608585686 #
ellipse-curve $-1 28 35.7365433902626 50.5857862655165 0 -0.707106781186549 0.707106781186546 16 0 0 1 #
ellipse-curve $-1 28 35.7365433902626 50.5857862655165 -0 0.707106781186549 -0.707106781186546 25 0 0 1 #
edge $-1 $766 $766 $700 $767 0 #
straight-curve $-1 43.1986841535707 39.6256306867886 39.6256311571251 0 0.707106781186549 -0.707106781186546 #
point $-1 3.50510257216822 32.2010094843298 47.0502523595838 #
point $-1 43.1986841535707 32.2010094843298 47.0502523595838 #
point $-1 43.1986841535707 27.9583687972105 51.2928930467031 #
point $-1 54 0 -25 #
coedge $-1 $723 $708 $706 $750 1 $642 $-1 #
edge $-1 $751 $710 $749 $768 0 #
vertex $-1 $731 $769 #
ellipse-curve $-1 50 -71.67767 -23 1 5.55111512312579e-17 0 0 -1.41421356237309 -1.41421356237309 1 #
straight-curve $-1 54 -67.67767 -25 0 1 0 #
point $-1 54 -67.67767 -25 #
edge $-1 $761 $756 $713 $770 0 #
vertex $-1 $714 $771 #
straight-curve $-1 24.45961431703 0 -2.48149278668256 -0.500000000000001 0 -0.866025403784438 #
point $-1 11.4585481156726 0 -25 #
point $-1 40.5 -73.67767 -18 #
straight-curve $-1 15.5 -80 -18 0 1 0 #
vertex $-1 $728 $772 #
straight-curve $-1 40.5 1 -18 0 -1 0 #
straight-curve $-1 38.54038568297 0 -14.6058484396647 -0.500000000000001 0 0.866025403784438 #
point $-1 44.5414518843274 0 -25 #
straight-curve $-1 6 -71.67767 -25 1 0 0 #
vertex $-1 $743 $773 #
ellipse-curve $-1 28 54.8284264822994 31.4939031734798 0 -0.707106781186549 0.707106781186546 16 0 0 1 #
ellipse-curve $-1 50 -67.67767 -25 0 0 1 2.82842712474619 -2.82842712474619 0 1 #
point $-1 50 -71.67767 -25 #
straight-curve $-1 42 0 -18 -1 0 0 #
point $-1 15.5 0 -18 #
point $-1 40.5 0 -18 #
point $-1 12 54.8284264822995 31.4939031734799 #
