600 0 1 0           
79 GICL ACIS Healer - Source: /gicl/data5/repository/UMD/mycami2/mycami2.sat - 6 0 18 ACIS 6.0.3 Solaris 24 Sun Apr 14 00:34:48 2002 
1 9.999999999999999547e-07 1.000000000000000036e-10 
body $-1 $1 $-1 $-1 #
lump $-1 $-1 $2 $0 #
shell $-1 $-1 $-1 $3 $-1 $1 #
face $-1 $4 $5 $2 $-1 $6 forward single #
face $-1 $7 $8 $2 $-1 $9 forward single #
loop $-1 $-1 $10 $3 #
cone-surface $-1 9 -29.17766999999999911 3 0 1 -0 -1.414213562373090038 0 1.414213562373090038 1 I I 0 1 1.999999999999992895 forward I I I I #
face $-1 $11 $12 $2 $-1 $13 forward single #
loop $-1 $-1 $14 $4 #
cone-surface $-1 47 -29.17766999999999911 3 0 -1 0 1.414213562373090038 0 1.414213562373090038 1 I I 0 1 1.999999999999992895 forward I I I I #
coedge $-1 $15 $16 $17 $18 forward $5 $-1 #
face $-1 $19 $20 $2 $-1 $21 forward single #
loop $-1 $-1 $22 $7 #
torus-surface $-1 28 -45.67767000000009858 3 -0 -0 -1 19 2 -1 0 0 forward_v I I I I #
coedge $-1 $23 $24 $25 $26 forward $8 $-1 #
coedge $-1 $27 $10 $28 $29 reversed $5 $-1 #
coedge $-1 $10 $27 $30 $31 reversed $5 $-1 #
coedge $-1 $32 $33 $10 $18 reversed $34 $-1 #
edge $-1 $35 22.67766999999999911 $36 53.67766999999999911 $17 $37 forward 7 unknown #
face $-1 $38 $39 $2 $-1 $40 forward single #
loop $-1 $41 $42 $11 #
plane-surface $-1 7 8 5 0 0 1 1 0 0 forward_v I I I I #
coedge $-1 $43 $28 $44 $45 forward $12 $-1 #
coedge $-1 $46 $14 $43 $47 reversed $8 $-1 #
coedge $-1 $14 $46 $48 $49 reversed $8 $-1 #
coedge $-1 $50 $51 $14 $26 reversed $41 $-1 #
edge $-1 $52 -33 $53 -0 $25 $54 forward 7 unknown #
coedge $-1 $16 $15 $55 $56 forward $5 $-1 #
coedge $-1 $22 $57 $15 $29 forward $12 $-1 #
edge $-1 $58 -0.785398163397448279 $36 0.785398163397448279 $28 $59 forward 7 unknown #
coedge $-1 $60 $61 $16 $31 forward $62 $-1 #
edge $-1 $35 -1.570796326794896558 $63 1.110223024625155554e-16 $30 $64 forward 7 unknown #
coedge $-1 $65 $17 $61 $66 reversed $34 $-1 #
coedge $-1 $17 $65 $67 $68 forward $34 $-1 #
loop $-1 $-1 $17 $69 #
vertex $-1 $66 $70 #
vertex $-1 $68 $71 #
straight-curve $-1 7 8 3 -0 -1 -0 I I #
face $-1 $72 $73 $2 $-1 $74 forward single #
loop $-1 $-1 $75 $19 #
torus-surface $-1 28 -45.67766999999999911 3 -0 -0 -1 11 2 -1 0 0 forward_v I I I I #
loop $-1 $-1 $55 $11 #
coedge $-1 $76 $77 $75 $78 reversed $20 $-1 #
coedge $-1 $57 $22 $23 $47 forward $12 $-1 #
coedge $-1 $67 $79 $22 $45 reversed $80 $-1 #
edge $-1 $36 -1.570796326794901443 $81 1.570796326794901443 $44 $82 forward 7 unknown #
coedge $-1 $24 $23 $83 $84 forward $8 $-1 #
edge $-1 $81 -0.785398163397448279 $53 0.785398163397448279 $43 $85 forward 7 unknown #
coedge $-1 $86 $60 $24 $49 forward $62 $-1 #
edge $-1 $52 -1.110223024625155554e-16 $87 1.570796326794896558 $48 $88 forward 7 unknown #
coedge $-1 $55 $25 $60 $89 reversed $41 $-1 #
coedge $-1 $25 $55 $57 $90 reversed $41 $-1 #
vertex $-1 $89 $91 #
vertex $-1 $26 $92 #
straight-curve $-1 47 -45.67766999999999911 5 -0 -1 -0 I I #
coedge $-1 $51 $50 $27 $56 reversed $41 $-1 #
edge $-1 $58 -53.67766999999999911 $63 -20.67766999999999911 $55 $93 forward 7 unknown #
coedge $-1 $28 $43 $51 $90 forward $12 $-1 #
vertex $-1 $56 $94 #
ellipse-curve $-1 9 -45.67766999999999911 3 -5.045793573318350145e-15 -1 0 -1.414213562373090038 0 1.414213562373090038 1 I I #
coedge $-1 $48 $30 $50 $89 forward $62 $-1 #
coedge $-1 $30 $95 $32 $66 forward $62 $-1 #
loop $-1 $-1 $86 $96 #
vertex $-1 $89 $97 #
ellipse-curve $-1 9 -14.67767000000000088 3 -0 0.707106781186549016 -0.7071067811865460184 -2.220446049250310123e-16 1.999999999999990008 2 0.707106781186549016 I I #
coedge $-1 $33 $32 $98 $99 reversed $34 $-1 #
edge $-1 $100 -3.902705563388374266 $35 0.3399351237309097273 $61 $101 forward 7 unknown #
coedge $-1 $102 $44 $33 $68 reversed $80 $-1 #
edge $-1 $103 0 $36 3 $33 $104 forward 7 unknown #
face $-1 $105 $34 $2 $-1 $106 forward single #
point $-1 7 -14.67767000000000088 3 #
point $-1 7 -45.67766999999999911 3 #
face $-1 $107 $108 $2 $-1 $109 forward single #
loop $-1 $-1 $110 $38 #
cone-surface $-1 39 -36.67766999999999911 3 0 -1 0 -1.414213562373090038 0 1.414213562373090038 1 I I 0 1 1.999999999999992895 forward I I I I #
coedge $-1 $111 $112 $42 $78 forward $39 $-1 #
coedge $-1 $113 $42 $114 $115 reversed $20 $-1 #
coedge $-1 $42 $113 $110 $116 reversed $20 $-1 #
edge $-1 $117 -1.570796326794896558 $118 1.570796326794896558 $42 $119 forward 7 unknown #
coedge $-1 $44 $102 $120 $121 forward $80 $-1 #
loop $-1 $-1 $44 $122 #
vertex $-1 $121 $123 #
ellipse-curve $-1 28 -45.67767000000009858 3 0 0 1 0 -21 0 1 I I #
coedge $-1 $120 $124 $46 $84 reversed $125 $-1 #
edge $-1 $81 0 $87 31 $83 $126 forward 7 unknown #
ellipse-curve $-1 47 -45.67766999999999911 3 5.045793573318350145e-15 -1 0 1.414213562373090038 0 1.414213562373090038 1 I I #
coedge $-1 $127 $48 $124 $128 forward $62 $-1 #
vertex $-1 $128 $129 #
ellipse-curve $-1 47 -14.67767000000000088 3 -0 0.707106781186549016 -0.7071067811865460184 2.220446049250310123e-16 1.999999999999990008 2 0.707106781186549016 I I #
edge $-1 $63 -8.5 $52 29.5 $60 $130 forward 7 unknown #
edge $-1 $53 -1.570796326794901887 $58 1.570796326794901887 $51 $131 forward 7 unknown #
point $-1 47 -12.67767000000000088 5 #
point $-1 47 -45.67766999999999911 5 #
straight-curve $-1 9 8 5 0 1 0 I I #
point $-1 9 -45.67766999999999911 5 #
coedge $-1 $61 $132 $133 $134 reversed $62 $-1 #
face $-1 $135 $62 $2 $-1 $136 forward single #
point $-1 9 -12.67767000000000088 5 #
coedge $-1 $133 $137 $65 $99 forward $138 $-1 #
edge $-1 $103 3.820621335889903492 $100 31.82062133588990349 $98 $139 forward 7 unknown #
vertex $-1 $66 $140 #
straight-curve $-1 7 -14.91804043115359946 2.759629568846369896 0 0.7071067811865460184 0.707106781186549016 I I #
coedge $-1 $79 $67 $137 $141 reversed $80 $-1 #
vertex $-1 $141 $142 #
straight-curve $-1 7 -45.67766999999999911 0 0 0 1 I I #
face $-1 $122 $125 $2 $-1 $143 forward single #
plane-surface $-1 7 -45.67766999999999911 0 -1 0 0 0 0 1 forward_v I I I I #
face $-1 $144 $145 $2 $-1 $146 forward single #
loop $-1 $-1 $147 $72 #
cone-surface $-1 17 -36.67766999999999911 3 0 1 0 1.414213562373090038 0 1.414213562373090038 1 I I 0 1 1.999999999999992895 forward I I I I #
coedge $-1 $148 $149 $77 $116 forward $73 $-1 #
coedge $-1 $150 $75 $149 $151 reversed $39 $-1 #
coedge $-1 $75 $150 $152 $153 reversed $39 $-1 #
coedge $-1 $77 $76 $154 $155 reversed $20 $-1 #
coedge $-1 $152 $156 $76 $115 forward $108 $-1 #
edge $-1 $157 8.838834999999999553 $117 26.83883499999999955 $76 $158 forward 7 unknown #
edge $-1 $118 -35.83883500000000311 $159 -17.83883499999999955 $77 $160 forward 7 unknown #
vertex $-1 $78 $161 #
vertex $-1 $78 $162 #
ellipse-curve $-1 28 -45.67766999999999911 5 0 0 1 0 -11 0 1 I I #
coedge $-1 $163 $83 $79 $121 reversed $125 $-1 #
edge $-1 $164 0 $81 3 $79 $165 forward 7 unknown #
face $-1 $166 $80 $2 $-1 $167 forward single #
point $-1 49 -45.67766999999999911 3 #
coedge $-1 $83 $163 $86 $128 reversed $125 $-1 #
loop $-1 $-1 $83 $105 #
straight-curve $-1 49 -45.67766999999999911 3 0 1 0 I I #
coedge $-1 $168 $86 $169 $170 reversed $62 $-1 #
edge $-1 $87 18.63798710391590774 $171 22.88062779103519162 $86 $172 forward 7 unknown #
point $-1 49 -14.67767000000000088 3 #
straight-curve $-1 17.5 -12.67767000000000088 5 1 0 -0 I I #
ellipse-curve $-1 28 -45.67767000000009858 5 -0 -0 -1 0 -19 0 1 I I #
coedge $-1 $95 $173 $174 $175 forward $62 $-1 #
coedge $-1 $176 $98 $95 $134 forward $138 $-1 #
edge $-1 $100 7 $177 14 $133 $178 forward 7 unknown #
face $-1 $179 $180 $2 $-1 $181 forward single #
plane-surface $-1 28 1.841589137692680067 19.51925913769269982 0 -0.707106781186549016 0.7071067811865460184 1 0 0 forward_v I I I I #
coedge $-1 $98 $182 $102 $141 forward $138 $-1 #
loop $-1 $-1 $182 $166 #
straight-curve $-1 7 -49.4982913358899026 0 0 1 -0 I I #
point $-1 7 -17.67766999999999911 0 #
edge $-1 $164 -1.570796326794901443 $103 1.570796326794901443 $137 $183 forward 7 unknown #
point $-1 7 -45.67766999999999911 0 #
plane-surface $-1 49 8 0 1 0 0 0 0 -1 forward_v I I I I #
face $-1 $184 $185 $2 $-1 $186 reversed single #
loop $-1 $-1 $154 $107 #
torus-surface $-1 28 -27.67766999999999911 3 -0 -0 -1 11 2 -1 0 0 forward_v I I I I #
coedge $-1 $156 $152 $187 $188 forward $108 $-1 #
coedge $-1 $189 $110 $190 $191 reversed $73 $-1 #
coedge $-1 $110 $189 $111 $151 forward $73 $-1 #
coedge $-1 $112 $111 $192 $193 forward $39 $-1 #
edge $-1 $194 -0.785398163397448279 $118 0.785398163397448279 $149 $195 forward 7 unknown #
coedge $-1 $147 $114 $112 $153 forward $108 $-1 #
edge $-1 $117 -0.785398163397448279 $196 0.785398163397448279 $152 $197 forward 7 unknown #
coedge $-1 $198 $190 $113 $155 forward $145 $-1 #
edge $-1 $159 -1.570796326794896558 $157 1.570796326794896558 $113 $199 forward 7 unknown #
coedge $-1 $114 $147 $198 $200 reversed $108 $-1 #
vertex $-1 $115 $201 #
straight-curve $-1 17 -18.83883499999999955 5 0 -1 0 I I #
vertex $-1 $116 $202 #
straight-curve $-1 39 -9.838834999999999553 5 0 1 0 I I #
point $-1 17 -45.67766999999999911 5 #
point $-1 39 -45.67766999999999911 5 #
coedge $-1 $124 $120 $182 $203 reversed $125 $-1 #
vertex $-1 $203 $204 #
straight-curve $-1 49 -45.67766999999999911 0 0 0 1 I I #
face $-1 $205 $138 $2 $-1 $206 forward single #
cone-surface $-1 28 -45.67767000000009858 0 0 0 1 0 -21 0 1 I I 0 1 21 forward I I I I #
coedge $-1 $173 $127 $207 $208 forward $62 $-1 #
coedge $-1 $182 $209 $127 $170 forward $138 $-1 #
edge $-1 $210 -42 $171 -35 $169 $178 forward 7 unknown #
vertex $-1 $170 $211 #
straight-curve $-1 49 -1.49862293115368006 16.1790470688464012 0 -0.7071067811865460184 -0.707106781186549016 I I #
coedge $-1 $132 $168 $212 $213 forward $62 $-1 #
coedge $-1 $214 $215 $132 $175 reversed $216 $-1 #
edge $-1 $217 -0 $177 56.29397674951740527 $132 $218 forward 7 unknown #
coedge $-1 $219 $133 $220 $221 forward $138 $-1 #
vertex $-1 $134 $222 #
straight-curve $-1 14 -17.67766999999999911 0 -1 0 0 I I #
face $-1 $223 $216 $2 $-1 $224 forward single #
loop $-1 $-1 $225 $135 #
plane-surface $-1 56 -17.67766999999999911 0 0.9807230753239210008 0.1381706364014989863 0.1381706364015000132 0 0.707106781186549016 -0.7071067811865460184 forward_v I I I I #
coedge $-1 $137 $169 $163 $203 forward $138 $-1 #
ellipse-curve $-1 28 -45.67767000000009858 0 -0 -0 -1 0 -21 0 1 I I #
face $-1 $226 $227 $2 $-1 $228 reversed single #
loop $-1 $-1 $187 $144 #
plane-surface $-1 19 -45.67766999999999911 -5 -1 0 0 0 0 1 forward_v I I I I #
coedge $-1 $229 $230 $147 $188 reversed $185 $-1 #
edge $-1 $196 -26.83883499999999955 $231 -8.838834999999999553 $187 $232 forward 7 unknown #
coedge $-1 $149 $148 $233 $234 forward $73 $-1 #
coedge $-1 $154 $235 $148 $191 forward $145 $-1 #
edge $-1 $236 -0.785398163397448279 $159 0.785398163397448279 $190 $237 forward 7 unknown #
coedge $-1 $238 $239 $150 $193 reversed $227 $-1 #
edge $-1 $194 -1.570796326794896558 $196 1.570796326794896558 $192 $240 forward 7 unknown #
vertex $-1 $241 $242 #
ellipse-curve $-1 39 -45.67766999999999911 3 -0 1 -0 -1.414213562373090038 0 1.414213562373090038 1 I I #
vertex $-1 $243 $244 #
ellipse-curve $-1 17 -45.67766999999999911 3 0 1 0 1.414213562373090038 0 1.414213562373090038 1 I I #
coedge $-1 $235 $154 $156 $200 forward $145 $-1 #
ellipse-curve $-1 28 -27.67766999999999911 5 0 0 1 0 11 0 1 I I #
edge $-1 $157 -0.785398163397448279 $231 0.785398163397448279 $198 $245 forward 7 unknown #
point $-1 17 -27.67766999999999911 5 #
point $-1 39 -27.67766999999999911 5 #
edge $-1 $171 -4.981786335889900386 $164 23.01821366411009961 $182 $246 forward 7 unknown #
point $-1 49 -45.67766999999999911 0 #
face $-1 $247 $248 $2 $-1 $249 forward single #
plane-surface $-1 28 -53.31891267177979898 0 0 0 1 1 0 0 forward_v I I I I #
coedge $-1 $250 $251 $168 $208 reversed $180 $-1 #
edge $-1 $210 0 $252 56.29397674951740527 $168 $253 forward 7 unknown #
coedge $-1 $169 $254 $255 $256 forward $138 $-1 #
vertex $-1 $256 $257 #
point $-1 49 -17.67766999999999911 0 #
coedge $-1 $258 $259 $173 $213 reversed $260 $-1 #
edge $-1 $252 0.823033698123779911 $217 2.318558955466013316 $173 $261 forward 7 unknown #
coedge $-1 $262 $174 $259 $263 forward $216 $-1 #
coedge $-1 $174 $262 $264 $265 reversed $216 $-1 #
loop $-1 $-1 $262 $179 #
vertex $-1 $213 $266 #
straight-curve $-1 11 21.36084827538540054 39.03851827538549912 -0.1954027879207219931 -0.693475937027668965 -0.6934759370276709634 I I #
coedge $-1 $267 $176 $268 $269 forward $138 $-1 #
coedge $-1 $264 $270 $176 $221 reversed $271 $-1 #
edge $-1 $177 17.67766999999999911 $272 67.67767000000000621 $176 $273 forward 7 unknown #
point $-1 0 -17.67766999999999911 0 #
face $-1 $274 $275 $2 $-1 $276 reversed single #
plane-surface $-1 11 21.36084827538540054 39.03851827538549912 -0.9807230753239210008 0.1381706364014989863 0.1381706364015000132 0 -0.707106781186549016 0.7071067811865460184 forward_v I I I I #
coedge $-1 $251 $250 $277 $278 forward $180 $-1 #
face $-1 $279 $280 $2 $-1 $281 forward single #
loop $-1 $-1 $192 $184 #
cone-surface $-1 28 -45.67766999999999911 -5 0 0 1 0 -9 0 1 I I 0 1 9 forward I I I I #
coedge $-1 $282 $187 $239 $243 reversed $185 $-1 #
coedge $-1 $187 $282 $283 $284 forward $185 $-1 #
vertex $-1 $284 $285 #
straight-curve $-1 19 -18.83883499999999955 3 0 1 0 I I #
coedge $-1 $286 $287 $189 $234 reversed $288 $-1 #
edge $-1 $236 17.83883499999999955 $194 35.83883500000000311 $233 $289 forward 7 unknown #
coedge $-1 $190 $198 $290 $291 forward $145 $-1 #
vertex $-1 $292 $293 #
ellipse-curve $-1 39 -27.67766999999999911 3 -6.123233995736769734e-17 1 -0 -1.414213562373090038 0 1.414213562373090038 1 I I #
coedge $-1 $294 $192 $287 $241 reversed $227 $-1 #
coedge $-1 $192 $294 $229 $243 forward $227 $-1 #
ellipse-curve $-1 28 -45.67766999999999911 3 -0 -0 -1 0 -9 0 1 I I #
edge $-1 $295 0 $194 8 $238 $296 forward 7 unknown #
point $-1 37 -45.67766999999999911 3 #
edge $-1 $297 0 $196 8 $229 $298 forward 7 unknown #
point $-1 19 -45.67766999999999911 3 #
ellipse-curve $-1 17 -27.67766999999999911 3 6.123233995736769734e-17 1 0 1.414213562373090038 0 1.414213562373090038 1 I I #
straight-curve $-1 49 -22.65945633588989949 0 0 -1 0 I I #
face $-1 $299 $300 $2 $-1 $301 forward single #
loop $-1 $302 $303 $205 #
cone-surface $-1 28 43.16116459272129902 43.16116506305780121 0 -0.707106781186549016 0.7071067811865460184 25 0 0 1 I I 0 1 25 forward I I I I #
coedge $-1 $225 $207 $304 $305 reversed $180 $-1 #
coedge $-1 $207 $225 $258 $306 forward $180 $-1 #
vertex $-1 $208 $307 #
straight-curve $-1 56 -17.67766999999999911 0 -0.1954027879207219931 0.693475937027668965 0.6934759370276709634 I I #
coedge $-1 $209 $267 $308 $309 forward $138 $-1 #
coedge $-1 $310 $304 $209 $256 reversed $311 $-1 #
edge $-1 $312 0 $210 50.00000000000000711 $209 $313 forward 7 unknown #
point $-1 56 -17.67766999999999911 0 #
coedge $-1 $314 $212 $251 $306 reversed $260 $-1 #
coedge $-1 $212 $314 $214 $263 reversed $260 $-1 #
loop $-1 $-1 $259 $205 #
ellipse-curve $-1 28 34.32232982788949727 51.99999982788960295 -0 0.707106781186549016 -0.7071067811865460184 25 0 0 1 I I #
coedge $-1 $215 $214 $315 $316 forward $216 $-1 #
edge $-1 $217 0 $317 25.00000000000002132 $214 $318 forward 7 unknown #
coedge $-1 $319 $220 $215 $265 forward $271 $-1 #
edge $-1 $177 -6.250000166288997683 $320 18.75000049886692111 $264 $321 forward 7 unknown #
point $-1 11 21.36084827538540054 39.03851827538549912 #
coedge $-1 $254 $219 $322 $323 forward $138 $-1 #
coedge $-1 $324 $325 $219 $269 reversed $326 $-1 #
edge $-1 $272 -0.785398163397448279 $327 0.7853981633974499443 $219 $328 forward 7 unknown #
coedge $-1 $220 $329 $324 $330 reversed $271 $-1 #
loop $-1 $-1 $329 $274 #
vertex $-1 $221 $331 #
straight-curve $-1 0 0 0 0 -1 0 I I #
face $-1 $332 $271 $2 $-1 $333 forward single #
loop $-1 $-1 $334 $223 #
plane-surface $-1 56 -4.703362783686769795e-07 -17.67766952966369942 0 -0.707106781186549016 0.7071067811865460184 1 0 0 forward_v I I I I #
coedge $-1 $335 $334 $225 $278 reversed $275 $-1 #
edge $-1 $336 5.420187080534668738e-14 $337 56.29397674951738395 $225 $338 forward 7 unknown #
face $-1 $339 $340 $2 $-1 $341 forward single #
loop $-1 $-1 $342 $226 #
cone-surface $-1 8.729274057836299505 -71.67767000000000621 -23 1 0 0 0 -1.414213562373090038 -1.414213562373090038 1 I I 0 1 1.999999999999992895 forward I I I I #
coedge $-1 $230 $229 $343 $344 reversed $185 $-1 #
coedge $-1 $345 $290 $230 $284 reversed $346 $-1 #
edge $-1 $347 0 $231 8 $283 $348 forward 7 unknown #
point $-1 19 -27.67766999999999911 3 #
coedge $-1 $349 $233 $350 $292 reversed $288 $-1 #
coedge $-1 $233 $349 $238 $241 forward $288 $-1 #
loop $-1 $-1 $233 $351 #
straight-curve $-1 37 -9.838834999999999553 3 0 -1 0 I I #
coedge $-1 $283 $350 $235 $291 reversed $346 $-1 #
edge $-1 $231 -1.570796326794896558 $236 1.570796326794896558 $290 $352 forward 7 unknown #
edge $-1 $353 0 $236 8 $286 $354 forward 7 unknown #
point $-1 37 -27.67766999999999911 3 #
coedge $-1 $239 $238 $355 $356 reversed $227 $-1 #
vertex $-1 $356 $357 #
straight-curve $-1 37 -45.67766999999999911 -5 0 0 1 I I #
vertex $-1 $344 $358 #
straight-curve $-1 19 -45.67766999999999911 -5 0 0 1 I I #
face $-1 $359 $360 $2 $-1 $301 forward single #
loop $-1 $-1 $361 $247 #
plane-surface $-1 28 35.73654339026249716 57.65685407738200041 0 -0.7071067811865460184 -0.707106781186549016 0 0.707106781186549016 -0.7071067811865460184 forward_v I I I I #
loop $-1 $260 $362 $205 #
coedge $-1 $303 $303 $363 $364 reversed $248 $-1 #
coedge $-1 $255 $365 $250 $305 forward $311 $-1 #
edge $-1 $336 -42.67767019481961199 $210 -17.67766952966368876 $304 $366 forward 7 unknown #
edge $-1 $337 -25.00000000000002132 $252 -0 $251 $367 reversed 7 unknown #
point $-1 45 21.36084827538540054 39.03851827538549912 #
coedge $-1 $368 $369 $254 $309 reversed $370 $-1 #
edge $-1 $371 -0.785398163397448279 $312 0.785398163397448279 $254 $372 forward 7 unknown #
coedge $-1 $373 $255 $369 $374 forward $311 $-1 #
loop $-1 $-1 $373 $375 #
vertex $-1 $309 $376 #
straight-curve $-1 56 -67.67767000000000621 0 0 1 0 I I #
coedge $-1 $259 $258 $334 $377 reversed $260 $-1 #
coedge $-1 $334 $335 $262 $316 reversed $275 $-1 #
edge $-1 $317 -0 $320 56.29397674951734132 $262 $378 forward 7 unknown #
vertex $-1 $263 $379 #
straight-curve $-1 11 21.36084827538540054 39.03851827538549912 0 0.707106781186549016 -0.7071067811865460184 I I #
coedge $-1 $329 $264 $380 $381 forward $271 $-1 #
vertex $-1 $382 $383 #
straight-curve $-1 0 -13.25825249999999933 -4.419417499999999777 0 0.707106781186549016 -0.7071067811865460184 I I #
coedge $-1 $384 $385 $267 $323 reversed $386 $-1 #
edge $-1 $327 0 $371 44 $267 $387 forward 7 unknown #
coedge $-1 $388 $268 $270 $330 forward $326 $-1 #
coedge $-1 $268 $388 $384 $389 reversed $326 $-1 #
loop $-1 $-1 $388 $390 #
vertex $-1 $269 $391 #
ellipse-curve $-1 5.99999999999999023 -67.67767000000000621 0 0 0 1 -4.242640687119280329 -4.242640687119280329 0 1 I I #
coedge $-1 $270 $319 $392 $393 reversed $271 $-1 #
edge $-1 $272 0 $394 23 $324 $395 forward 7 unknown #
point $-1 0 -67.67767000000000621 0 #
face $-1 $396 $397 $2 $-1 $398 reversed single #
plane-surface $-1 0 0 0 -1 0 0 0 -0 1 forward_v I I I I #
coedge $-1 $277 $315 $314 $377 forward $275 $-1 #
coedge $-1 $315 $277 $399 $382 reversed $275 $-1 #
vertex $-1 $305 $400 #
vertex $-1 $306 $401 #
straight-curve $-1 56 -4.703362783686769795e-07 -17.67766952966369942 -0.1954027879207219931 0.693475937027668965 0.6934759370276709634 I I #
face $-1 $402 $403 $2 $-1 $404 forward single #
loop $-1 $-1 $405 $279 #
torus-surface $-1 5.99999999999999023 -67.67767000000000621 -23 0 0 1 3.999999999999989786 2 1 0 0 forward_v I I I I #
coedge $-1 $406 $407 $408 $409 forward $280 $-1 #
coedge $-1 $355 $410 $282 $344 forward $411 $-1 #
edge $-1 $347 0 $297 18 $282 $412 forward 7 unknown #
coedge $-1 $350 $283 $410 $413 reversed $346 $-1 #
loop $-1 $-1 $290 $414 #
vertex $-1 $344 $415 #
straight-curve $-1 19 -27.67766999999999911 -5 0 0 1 I I #
coedge $-1 $287 $286 $416 $417 reversed $288 $-1 #
coedge $-1 $290 $345 $286 $292 forward $346 $-1 #
face $-1 $418 $288 $2 $-1 $419 reversed single #
ellipse-curve $-1 28 -27.67766999999999911 3 -0 -0 -1 0 9 0 1 I I #
vertex $-1 $417 $420 #
straight-curve $-1 37 -27.67766999999999911 -5 0 0 1 I I #
coedge $-1 $416 $343 $294 $356 forward $411 $-1 #
edge $-1 $297 -1.570796326794896558 $295 1.570796326794896558 $294 $421 forward 7 unknown #
point $-1 37 -45.67766999999999911 -5 #
point $-1 19 -45.67766999999999911 -5 #
face $-1 $422 $423 $2 $-1 $424 forward single #
loop $-1 $-1 $425 $299 #
coedge $-1 $426 $427 $428 $429 reversed $300 $-1 #
coedge $-1 $430 $431 $432 $433 forward $302 $-1 #
coedge $-1 $363 $363 $303 $364 forward $434 $-1 #
edge $-1 $435 0 $435 6.283185307179586232 $363 $436 forward 7 unknown #
coedge $-1 $304 $373 $437 $438 reversed $311 $-1 #
straight-curve $-1 56 -30.17766999999999911 12.5 0 -0.707106781186549016 0.7071067811865460184 I I #
straight-curve $-1 45 21.36084827538540054 39.03851827538549912 0 0.707106781186549016 -0.7071067811865460184 I I #
coedge $-1 $439 $308 $385 $440 forward $370 $-1 #
coedge $-1 $308 $439 $310 $374 reversed $370 $-1 #
loop $-1 $-1 $439 $441 #
vertex $-1 $323 $442 #
ellipse-curve $-1 50 -67.67767000000000621 0 0 0 1 4.242640687119280329 -4.242640687119280329 0 1 I I #
coedge $-1 $365 $310 $443 $444 reversed $311 $-1 #
edge $-1 $312 0 $445 23 $310 $446 forward 7 unknown #
face $-1 $414 $311 $2 $-1 $447 forward single #
point $-1 56 -67.67767000000000621 0 #
edge $-1 $317 -2.31855895546601154 $337 -0.8230336981237817984 $334 $448 forward 7 unknown #
straight-curve $-1 11 39.03851780504910352 21.3608487457217997 -0.1954027879207219931 -0.693475937027668965 -0.6934759370276709634 I I #
point $-1 11 39.03851780504910352 21.3608487457217997 #
coedge $-1 $399 $449 $319 $381 reversed $450 $-1 #
edge $-1 $320 17.67766999999989963 $451 23 $319 $452 forward 7 unknown #
edge $-1 $320 -28 $336 28 $399 $453 forward 7 unknown #
point $-1 0 0 -17.67766999999989963 #
coedge $-1 $408 $322 $325 $389 forward $386 $-1 #
coedge $-1 $322 $454 $368 $440 reversed $386 $-1 #
loop $-1 $-1 $408 $455 #
straight-curve $-1 6 -73.67767000000000621 0 1 0 0 I I #
coedge $-1 $325 $324 $405 $456 reversed $326 $-1 #
edge $-1 $327 0 $457 23 $384 $458 forward 7 unknown #
face $-1 $-1 $326 $2 $-1 $459 forward single #
point $-1 6 -73.67767000000000621 0 #
coedge $-1 $460 $461 $329 $393 forward $403 $-1 #
edge $-1 $394 -67.67767000000000621 $451 0 $329 $462 forward 7 unknown #
vertex $-1 $330 $463 #
straight-curve $-1 0 -67.67767000000000621 0 0 0 -1 I I #
face $-1 $464 $465 $2 $-1 $466 forward single #
loop $-1 $-1 $467 $332 #
plane-surface $-1 40.5 -80 -18 0.8660254037844380415 0 0.5000000000000009992 0.5000000000000009992 0 -0.8660254037844380415 forward_v I I I I #
coedge $-1 $437 $380 $335 $382 forward $450 $-1 #
point $-1 56 0 -17.67766999999989963 #
point $-1 45 39.03851780504910352 21.3608487457217997 #
face $-1 $468 $469 $2 $-1 $470 reversed single #
loop $-1 $-1 $392 $339 #
cone-surface $-1 2 -33.83883500000000311 -23 -0 -1 -0 -1.414213562373090038 0 -1.414213562373090038 1 I I 0 1 1.999999999999992895 forward I I I I #
coedge $-1 $471 $472 $388 $456 forward $340 $-1 #
coedge $-1 $473 $342 $472 $474 reversed $280 $-1 #
coedge $-1 $342 $473 $475 $476 forward $280 $-1 #
coedge $-1 $477 $384 $342 $409 reversed $386 $-1 #
edge $-1 $478 -6.613248654051899322 $457 -0 $408 $479 forward 7 unknown #
coedge $-1 $343 $416 $345 $413 forward $411 $-1 #
loop $-1 $-1 $343 $418 #
straight-curve $-1 19 -27.67766999999999911 -5 0 -1 0 I I #
edge $-1 $353 -1.570796326794896558 $347 1.570796326794896558 $345 $480 forward 7 unknown #
face $-1 $351 $346 $2 $-1 $481 reversed single #
point $-1 19 -27.67766999999999911 -5 #
coedge $-1 $410 $355 $349 $417 forward $411 $-1 #
edge $-1 $295 0 $353 18 $349 $482 forward 7 unknown #
face $-1 $69 $411 $2 $-1 $483 forward single #
plane-surface $-1 37 -27.67766999999999911 -5 1 0 0 0 0 -1 forward_v I I I I #
point $-1 37 -27.67766999999999911 -5 #
ellipse-curve $-1 28 -45.67766999999999911 -5 0 0 1 0 -9 0 1 I I #
face $-1 $484 $485 $2 $-1 $486 forward single #
loop $-1 $-1 $487 $359 #
plane-surface $-1 28 28.66547557839709981 50.58578626551649648 0 0.7071067811865460184 0.707106781186549016 0 -0.707106781186549016 0.7071067811865460184 forward_v I I I I #
coedge $-1 $488 $489 $490 $491 reversed $360 $-1 #
coedge $-1 $492 $361 $493 $494 reversed $300 $-1 #
coedge $-1 $361 $492 $495 $496 forward $300 $-1 #
coedge $-1 $497 $498 $361 $429 forward $499 $-1 #
edge $-1 $500 -16.50000000000002132 $501 -10.5 $428 $502 forward 7 unknown #
coedge $-1 $503 $362 $504 $505 reversed $302 $-1 #
coedge $-1 $362 $506 $507 $508 forward $302 $-1 #
coedge $-1 $509 $510 $362 $433 reversed $511 $-1 #
edge $-1 $512 10.5 $513 16.50000000000002132 $362 $514 forward 7 unknown #
loop $-1 $-1 $363 $515 #
vertex $-1 $364 $516 #
ellipse-curve $-1 28 54.82842648229939897 31.49390317347980073 0 0.707106781186549016 -0.7071067811865460184 25 0 0 1 I I #
coedge $-1 $517 $399 $365 $438 forward $450 $-1 #
edge $-1 $336 17.67766999999989963 $518 23 $437 $519 forward 7 unknown #
coedge $-1 $369 $368 $520 $521 reversed $370 $-1 #
edge $-1 $371 0 $522 23 $368 $523 forward 7 unknown #
face $-1 $375 $370 $2 $-1 $524 forward single #
point $-1 50 -73.67767000000000621 0 #
coedge $-1 $525 $526 $373 $444 forward $527 $-1 #
edge $-1 $518 -67.67767000000000621 $445 -0 $373 $528 forward 7 unknown #
vertex $-1 $374 $529 #
straight-curve $-1 56 -67.67767000000000621 0 0 0 -1 I I #
plane-surface $-1 56 -67.67767000000000621 0 1 0 0 0 0 -1 forward_v I I I I #
ellipse-curve $-1 28 51.99999935755320024 34.32233029822599946 0 -0.707106781186549016 0.7071067811865460184 25 0 0 1 I I #
coedge $-1 $380 $530 $460 $531 reversed $450 $-1 #
loop $-1 $-1 $449 $468 #
vertex $-1 $381 $532 #
straight-curve $-1 0 0 0 0 0 -1 I I #
straight-curve $-1 28 0 -17.67766999999989963 1 0 0 I I #
coedge $-1 $385 $533 $534 $535 reversed $386 $-1 #
face $-1 $441 $386 $2 $-1 $536 forward single #
edge $-1 $457 -0.7853981633974499443 $394 0.785398163397448279 $388 $537 forward 7 unknown #
vertex $-1 $389 $538 #
straight-curve $-1 6 -73.67767000000000621 0 0 0 -1 I I #
cone-surface $-1 5.99999999999999023 -67.67767000000000621 0 0 0 -1 -4.242640687119280329 -4.242640687119280329 0 1 I I 0 1 5.999999999999992895 forward I I I I #
coedge $-1 $539 $392 $449 $531 forward $403 $-1 #
coedge $-1 $392 $539 $471 $540 forward $403 $-1 #
straight-curve $-1 0 0 -23 0 1 0 I I #
point $-1 0 -67.67767000000000621 -23 #
face $-1 $541 $542 $2 $-1 $543 reversed single #
loop $-1 $-1 $544 $396 #
plane-surface $-1 28 -39.5 -18 0 0 -1 -1 0 0 forward_v I I I I #
coedge $-1 $545 $546 $547 $548 reversed $397 $-1 #
face $-1 $549 $450 $2 $-1 $550 forward single #
loop $-1 $-1 $551 $402 #
plane-surface $-1 0 -67.67767000000000621 -25 -0 -0 1 1 -0 0 forward_v I I I I #
coedge $-1 $552 $405 $461 $540 reversed $340 $-1 #
coedge $-1 $405 $552 $406 $474 forward $340 $-1 #
coedge $-1 $407 $406 $551 $553 forward $280 $-1 #
edge $-1 $554 -0.785398163397448279 $457 0.785398163397448279 $472 $555 forward 7 unknown #
coedge $-1 $556 $557 $407 $476 reversed $542 $-1 #
edge $-1 $558 -1.110223024625156171e-16 $478 1.570796326794896558 $475 $559 forward 7 unknown #
coedge $-1 $560 $408 $557 $561 forward $386 $-1 #
vertex $-1 $409 $562 #
straight-curve $-1 6 -73.67767000000000621 -23 -1 -0 -0 I I #
ellipse-curve $-1 28 -27.67766999999999911 -5 0 0 1 0 9 0 1 I I #
cone-surface $-1 28 -27.67766999999999911 -5 0 0 1 0 9 0 1 I I 0 1 9 forward I I I I #
straight-curve $-1 37 -45.67766999999999911 -5 0 1 0 I I #
plane-surface $-1 28 -36.67766999999999911 -5 0 0 1 1 0 0 forward_v I I I I #
face $-1 $563 $564 $2 $-1 $486 forward single #
loop $-1 $-1 $565 $422 #
plane-surface $-1 28 35.73654339026259663 50.58578626551649648 0 -0.707106781186549016 0.7071067811865460184 1 0 0 forward_v I I I I #
coedge $-1 $566 $567 $568 $569 reversed $423 $-1 #
coedge $-1 $570 $425 $571 $572 forward $360 $-1 #
coedge $-1 $425 $570 $573 $574 reversed $360 $-1 #
coedge $-1 $498 $575 $425 $491 forward $499 $-1 #
edge $-1 $576 10.5 $577 16.50000000000002132 $490 $578 forward 7 unknown #
coedge $-1 $427 $426 $579 $580 reversed $300 $-1 #
coedge $-1 $581 $582 $426 $494 forward $583 $-1 #
edge $-1 $584 -24.49489742783178059 $500 -15.19868415357069935 $493 $585 forward 7 unknown #
coedge $-1 $586 $565 $427 $496 reversed $485 $-1 #
edge $-1 $587 -24.49489742783178059 $501 -15.19868415357069935 $427 $588 forward 7 unknown #
coedge $-1 $568 $428 $565 $589 forward $499 $-1 #
coedge $-1 $428 $490 $581 $590 reversed $499 $-1 #
loop $-1 $591 $592 $593 #
vertex $-1 $494 $594 #
vertex $-1 $589 $595 #
straight-curve $-1 12.80131584642930065 46.69669849865410072 46.69669896899060291 0 0.707106781186549016 -0.7071067811865460184 I I #
coedge $-1 $596 $430 $597 $598 forward $302 $-1 #
coedge $-1 $599 $600 $430 $505 forward $601 $-1 #
edge $-1 $602 -2.940234732799461792 $513 -0.2013579207903312962 $504 $603 forward 7 unknown #
coedge $-1 $431 $604 $570 $605 forward $302 $-1 #
coedge $-1 $571 $606 $431 $508 reversed $564 $-1 #
edge $-1 $607 -0.2013579207903314072 $512 0.2013579207903310186 $431 $608 forward 7 unknown #
coedge $-1 $609 $432 $606 $610 forward $511 $-1 #
coedge $-1 $432 $609 $599 $611 reversed $511 $-1 #
loop $-1 $-1 $609 $563 #
vertex $-1 $508 $612 #
vertex $-1 $505 $613 #
straight-curve $-1 52.49489742783180191 39.62563068678859679 39.62563115712509898 0 -0.707106781186549016 0.7071067811865460184 I I #
face $-1 $614 $615 $2 $-1 $616 forward single #
point $-1 53 54.82842648229939897 31.49390317347980073 #
coedge $-1 $617 $437 $526 $618 reversed $450 $-1 #
vertex $-1 $438 $619 #
straight-curve $-1 56 0 0 0 0 -1 I I #
coedge $-1 $620 $621 $439 $521 forward $622 $-1 #
edge $-1 $445 -0.785398163397448279 $522 0.785398163397448279 $439 $623 forward 7 unknown #
vertex $-1 $440 $624 #
straight-curve $-1 50 -73.67767000000000621 0 0 0 -1 I I #
cone-surface $-1 50 -67.67767000000000621 0 0 0 -1 4.242640687119280329 -4.242640687119280329 0 1 I I 0 1 5.999999999999992895 forward I I I I #
coedge $-1 $625 $443 $621 $626 forward $527 $-1 #
coedge $-1 $443 $625 $517 $618 forward $527 $-1 #
loop $-1 $-1 $443 $627 #
straight-curve $-1 56 -67.67767000000000621 -23 -0 -1 -0 I I #
point $-1 56 -67.67767000000000621 -23 #
coedge $-1 $449 $628 $629 $630 forward $450 $-1 #
edge $-1 $451 -0.785398163397448279 $631 0.785398163397448279 $449 $632 forward 7 unknown #
point $-1 0 0 -23 #
coedge $-1 $454 $560 $545 $633 forward $386 $-1 #
coedge $-1 $547 $634 $454 $535 forward $635 $-1 #
edge $-1 $522 -44 $636 -37.3867513459480989 $454 $637 forward 7 unknown #
plane-surface $-1 6 -73.67767000000000621 0 0 -1 0 0 0 -1 forward_v I I I I #
ellipse-curve $-1 5.99999999999999023 -67.67767000000000621 -23 -0 -0 -1 -4.242640687119280329 -4.242640687119280329 0 1 I I #
point $-1 6 -73.67767000000000621 -23 #
coedge $-1 $461 $460 $638 $639 forward $403 $-1 #
edge $-1 $640 -0.785398163397448279 $394 0.785398163397448279 $461 $641 forward 7 unknown #
face $-1 $390 $642 $2 $-1 $470 reversed single #
loop $-1 $-1 $475 $464 #
plane-surface $-1 15.5 1 -18 -0.8660254037844380415 0 0.5000000000000009992 0.5000000000000009992 0 0.8660254037844380415 forward_v I I I I #
coedge $-1 $643 $644 $560 $645 reversed $465 $-1 #
coedge $-1 $646 $467 $533 $633 reversed $397 $-1 #
coedge $-1 $467 $647 $648 $649 reversed $397 $-1 #
coedge $-1 $650 $534 $467 $548 forward $635 $-1 #
edge $-1 $636 -1.570796326794896558 $651 1.110223024625156171e-16 $467 $652 forward 7 unknown #
face $-1 $653 $635 $2 $-1 $654 forward single #
plane-surface $-1 56 0 0 0 1 0 0 0 1 forward_v I I I I #
coedge $-1 $655 $656 $473 $553 reversed $469 $-1 #
coedge $-1 $472 $471 $655 $657 forward $340 $-1 #
edge $-1 $554 0 $558 5.458548115672600787 $551 $658 forward 7 unknown #
vertex $-1 $553 $659 #
ellipse-curve $-1 6 -71.67767000000000621 -23 -1 -1.443289932012710011e-15 -0 2.512147933894039872e-15 -1.414213562373090038 -1.414213562373090038 1 I I #
coedge $-1 $660 $475 $656 $661 reversed $542 $-1 #
coedge $-1 $475 $662 $477 $561 reversed $542 $-1 #
vertex $-1 $661 $663 #
ellipse-curve $-1 12.61324865405189932 -71.67767000000000621 -23 -0.8660254037844380415 0 0.5000000000000009992 -1.154700538379249908 -2.220446049250310123e-16 -2 0.8660254037844380415 I I #
coedge $-1 $533 $477 $544 $645 forward $386 $-1 #
edge $-1 $478 -11.19273132595615472 $664 -5.419228634059909844 $477 $665 forward 7 unknown #
point $-1 12.61324865405189932 -73.67767000000000621 -23 #
face $-1 $666 $511 $2 $-1 $424 forward single #
loop $-1 $-1 $667 $484 #
coedge $-1 $495 $668 $497 $589 reversed $485 $-1 #
coedge $-1 $597 $487 $668 $669 forward $423 $-1 #
coedge $-1 $487 $597 $600 $670 reversed $423 $-1 #
coedge $-1 $671 $497 $487 $569 forward $499 $-1 #
edge $-1 $672 10.5 $673 16.50000000000002132 $568 $674 forward 7 unknown #
coedge $-1 $489 $488 $506 $605 reversed $360 $-1 #
coedge $-1 $667 $507 $488 $572 reversed $564 $-1 #
edge $-1 $576 15.1986841535707029 $607 24.49489742783180191 $488 $588 forward 7 unknown #
coedge $-1 $582 $581 $489 $574 forward $583 $-1 #
edge $-1 $577 15.1986841535707029 $675 24.49489742783180191 $573 $585 forward 7 unknown #
coedge $-1 $490 $592 $667 $676 forward $499 $-1 #
vertex $-1 $676 $677 #
vertex $-1 $590 $678 #
straight-curve $-1 43.1986841535707029 46.69669849865410072 46.69669896899060291 0 -0.707106781186549016 0.7071067811865460184 I I #
coedge $-1 $604 $596 $492 $580 forward $302 $-1 #
edge $-1 $587 10.5 $584 16.50000000000002132 $579 $679 forward 7 unknown #
coedge $-1 $573 $493 $498 $590 forward $583 $-1 #
coedge $-1 $493 $573 $604 $680 forward $583 $-1 #
loop $-1 $-1 $573 $666 #
vertex $-1 $680 $681 #
straight-curve $-1 28 35.02943660907600076 58.36396085856860338 1 0 0 I I #
coedge $-1 $668 $495 $596 $682 reversed $485 $-1 #
vertex $-1 $682 $683 #
straight-curve $-1 28 39.27207729619529886 54.12132017144929819 1 0 0 I I #
edge $-1 $501 2.823768949661912053 $672 3.459416357517673735 $497 $684 forward 7 unknown #
edge $-1 $500 -2.823768949661912053 $577 -0.3178237039278812293 $581 $685 forward 7 unknown #
loop $-1 $-1 $686 $593 #
coedge $-1 $575 $671 $609 $687 forward $499 $-1 #
face $-1 $515 $499 $2 $-1 $688 reversed single #
point $-1 12.80131584642930065 35.02943660907600076 58.36396085856860338 #
point $-1 12.80131584642930065 39.27207729619529886 54.12132017144929819 #
coedge $-1 $579 $503 $586 $682 forward $302 $-1 #
coedge $-1 $567 $566 $503 $598 reversed $423 $-1 #
edge $-1 $602 -16.50000000000002132 $689 -10.5 $503 $690 forward 7 unknown #
coedge $-1 $691 $504 $510 $611 forward $601 $-1 #
coedge $-1 $504 $691 $567 $670 forward $601 $-1 #
loop $-1 $-1 $599 $614 #
vertex $-1 $598 $692 #
ellipse-curve $-1 28 31.49390270314329854 54.82842695263580168 0 -0.707106781186549016 0.7071067811865460184 25 0 0 1 I I #
coedge $-1 $506 $579 $582 $680 reversed $302 $-1 #
edge $-1 $675 -16.50000000000002132 $607 -10.5 $506 $693 forward 7 unknown #
coedge $-1 $507 $667 $509 $610 reversed $564 $-1 #
vertex $-1 $508 $694 #
ellipse-curve $-1 28 35.73654339026259663 50.58578626551649648 -0 0.707106781186549016 -0.7071067811865460184 25 0 0 1 I I #
coedge $-1 $510 $509 $592 $687 reversed $511 $-1 #
edge $-1 $512 -24.49489742783180191 $695 -15.1986841535707029 $509 $696 forward 7 unknown #
edge $-1 $513 -24.49489742783180191 $697 -15.1986841535707029 $599 $698 forward 7 unknown #
point $-1 52.49489742783180191 32.20100948432980204 47.05025235958380136 #
point $-1 52.49489742783180191 27.95836879721050039 51.29289304670309946 #
face $-1 $96 $601 $2 $-1 $699 forward single #
loop $-1 $434 $700 $515 #
plane-surface $-1 28 54.82842648229939897 31.49390317347980073 0 0.707106781186549016 -0.7071067811865460184 -1 0 0 forward_v I I I I #
coedge $-1 $701 $517 $702 $703 forward $450 $-1 #
edge $-1 $704 -0.785398163397448279 $518 0.785398163397448279 $517 $705 forward 7 unknown #
point $-1 56 0 -23 #
coedge $-1 $706 $520 $634 $707 forward $622 $-1 #
coedge $-1 $520 $706 $525 $626 reversed $622 $-1 #
loop $-1 $-1 $706 $653 #
ellipse-curve $-1 50 -67.67767000000000621 -23 -0 -0 -1 4.242640687119280329 -4.242640687119280329 0 1 I I #
point $-1 50 -73.67767000000000621 -23 #
coedge $-1 $526 $525 $708 $709 forward $527 $-1 #
edge $-1 $445 -0.785398163397448279 $710 0.785398163397448279 $525 $711 forward 7 unknown #
face $-1 $455 $527 $2 $-1 $712 forward single #
coedge $-1 $530 $713 $660 $714 forward $450 $-1 #
coedge $-1 $656 $638 $530 $630 reversed $469 $-1 #
edge $-1 $715 44.54145188432740099 $631 54 $530 $716 forward 7 unknown #
vertex $-1 $630 $717 #
ellipse-curve $-1 2 0 -23 -0 -1 -0 -1.414213562373090038 0 -1.414213562373090038 1 I I #
edge $-1 $718 16.41922863405995869 $636 22.19273132595619913 $533 $719 forward 7 unknown #
coedge $-1 $534 $650 $620 $707 reversed $635 $-1 #
loop $-1 $-1 $650 $549 #
vertex $-1 $633 $720 #
straight-curve $-1 6 -73.67767000000000621 -23 -1 -0 -0 I I #
coedge $-1 $629 $655 $539 $639 reversed $469 $-1 #
edge $-1 $631 0 $640 67.67767000000000621 $638 $721 forward 7 unknown #
vertex $-1 $657 $722 #
ellipse-curve $-1 2 -67.67767000000000621 -23 -0 1 -0 -1.414213562373090038 0 -1.414213562373090038 1 I I #
loop $-1 $-1 $723 $541 #
coedge $-1 $724 $544 $662 $725 forward $465 $-1 #
coedge $-1 $544 $724 $646 $726 forward $465 $-1 #
edge $-1 $664 -1.5 $718 23.5 $560 $727 forward 7 unknown #
coedge $-1 $647 $545 $644 $726 reversed $397 $-1 #
coedge $-1 $546 $646 $701 $728 reversed $397 $-1 #
coedge $-1 $702 $723 $546 $649 forward $642 $-1 #
edge $-1 $651 2.161164999999996894 $729 73.83883500000000311 $648 $730 forward 7 unknown #
coedge $-1 $634 $547 $723 $731 forward $635 $-1 #
vertex $-1 $731 $732 #
ellipse-curve $-1 43.3867513459480989 -71.67767000000000621 -23 0.8660254037844380415 0 0.5000000000000009992 1.154700538379249908 -2.220446049250310123e-16 -2 0.8660254037844380415 I I #
face $-1 $627 $622 $2 $-1 $733 forward single #
cone-surface $-1 47.27072594216370049 -71.67767000000000621 -23 1 0 0 0 -1.414213562373090038 -1.414213562373090038 1 I I 0 1 1.999999999999992895 forward I I I I #
coedge $-1 $638 $551 $552 $657 reversed $469 $-1 #
coedge $-1 $551 $629 $556 $661 forward $469 $-1 #
edge $-1 $640 -0.785398163397448279 $554 0.7853981633974508325 $655 $734 forward 7 unknown #
straight-curve $-1 6 -71.67767000000000621 -25 1 0 0 I I #
point $-1 6 -71.67767000000000621 -25 #
coedge $-1 $662 $556 $628 $714 reversed $542 $-1 #
edge $-1 $715 -33.33883500000000311 $558 38.33883500000000311 $656 $735 forward 7 unknown #
coedge $-1 $557 $660 $643 $725 reversed $542 $-1 #
point $-1 11.45854811567260079 -71.67767000000000621 -25 #
vertex $-1 $561 $736 #
straight-curve $-1 18.20961431702999889 -73.67767000000000621 -13.30681033398809987 0.5000000000000009992 0 0.8660254037844380415 I I #
face $-1 $593 $583 $2 $-1 $699 forward single #
coedge $-1 $606 $571 $575 $676 reversed $564 $-1 #
coedge $-1 $565 $586 $566 $669 reversed $485 $-1 #
edge $-1 $672 15.19868415357069935 $689 24.49489742783178059 $566 $696 forward 7 unknown #
edge $-1 $673 15.19868415357069935 $602 24.49489742783178059 $600 $698 forward 7 unknown #
coedge $-1 $592 $568 $691 $737 reversed $499 $-1 #
vertex $-1 $589 $738 #
vertex $-1 $737 $739 #
straight-curve $-1 12.80131584642930065 39.62563068678859679 39.62563115712509898 0 -0.707106781186549016 0.7071067811865460184 I I #
vertex $-1 $605 $740 #
edge $-1 $695 -0.3178237039278806186 $576 0.3178237039278812293 $575 $741 forward 7 unknown #
point $-1 43.1986841535707029 39.27207729619529886 54.12132017144929819 #
point $-1 43.1986841535707029 35.02943660907600076 58.36396085856860338 #
straight-curve $-1 3.505102572168219854 46.69669849865410072 46.69669896899060291 0 -0.707106781186549016 0.7071067811865460184 I I #
edge $-1 $675 0.2013579207903314072 $584 2.940234732799461792 $582 $603 forward 7 unknown #
point $-1 3.505102572168219854 35.02943660907600076 58.36396085856860338 #
edge $-1 $689 2.940234732799462236 $587 3.34295057438012444 $596 $742 forward 7 unknown #
point $-1 3.505102572168219854 39.27207729619529886 54.12132017144929819 #
ellipse-curve $-1 28 35.73654339026259663 50.58578626551649648 0 -0.707106781186549016 0.7071067811865460184 16 0 0 1 I I #
ellipse-curve $-1 28 31.49390270314329854 54.82842695263580168 -0 0.707106781186549016 -0.7071067811865460184 16 0 0 1 I I #
coedge $-1 $686 $686 $700 $743 reversed $591 $-1 #
edge $-1 $697 -16.50000000000002132 $695 -10.5 $592 $744 forward 7 unknown #
cone-surface $-1 28 43.16116459272129902 43.16116506305780121 0 -0.707106781186549016 0.7071067811865460184 16 0 0 1 I I 0 1 16 forward I I I I #
vertex $-1 $682 $745 #
straight-curve $-1 3.505102572168219854 39.62563068678859679 39.62563115712509898 -0 0.707106781186549016 -0.7071067811865460184 I I #
coedge $-1 $600 $599 $671 $737 forward $601 $-1 #
point $-1 3.505102572168219854 27.95836879721050039 51.29289304670309946 #
straight-curve $-1 52.49489742783180191 46.69669849865410072 46.69669896899060291 -0 0.707106781186549016 -0.7071067811865460184 I I #
point $-1 52.49489742783180191 39.27207729619529886 54.12132017144929819 #
vertex $-1 $676 $746 #
straight-curve $-1 28 32.20100948432980204 47.05025235958380136 -1 0 0 I I #
vertex $-1 $611 $747 #
straight-curve $-1 28 27.95836879721050039 51.29289304670309946 -1 0 0 I I #
plane-surface $-1 28 31.49390270314329854 54.82842695263580168 0 -0.707106781186549016 0.7071067811865460184 1 0 0 forward_v I I I I #
coedge $-1 $700 $700 $686 $743 forward $615 $-1 #
coedge $-1 $713 $617 $647 $728 forward $450 $-1 #
coedge $-1 $708 $648 $617 $703 reversed $642 $-1 #
edge $-1 $704 2 $729 11.45854811567259901 $617 $716 forward 7 unknown #
vertex $-1 $618 $748 #
ellipse-curve $-1 54 0 -23 -0 -1 -0 1.414213562373090038 0 -1.414213562373090038 1 I I #
coedge $-1 $621 $620 $749 $750 forward $622 $-1 #
edge $-1 $522 -0.785398163397448279 $751 0.785398163397448279 $620 $752 forward 7 unknown #
coedge $-1 $749 $702 $625 $709 reversed $642 $-1 #
edge $-1 $710 0 $704 67.67767000000000621 $708 $753 forward 7 unknown #
vertex $-1 $750 $754 #
ellipse-curve $-1 54 -67.67767000000000621 -23 0 1 0 1.414213562373090038 0 -1.414213562373090038 1 I I #
cone-surface $-1 54 -33.83883500000000311 -23 -0 1 0 1.414213562373090038 0 -1.414213562373090038 1 I I 0 1 1.999999999999992895 forward I I I I #
coedge $-1 $628 $701 $724 $755 forward $450 $-1 #
edge $-1 $756 17.91922863405995869 $715 26.0021324027147287 $628 $757 forward 7 unknown #
vertex $-1 $714 $758 #
straight-curve $-1 56 0 -25 -1 0 0 I I #
point $-1 2 0 -25 #
vertex $-1 $633 $759 #
straight-curve $-1 32.29038568296999756 -73.67767000000000621 -3.780530892359220019 0.5000000000000009992 0 -0.8660254037844380415 I I #
point $-1 43.3867513459480989 -73.67767000000000621 -23 #
straight-curve $-1 2 0 -25 0 -1 0 I I #
point $-1 2 -67.67767000000000621 -25 #
coedge $-1 $648 $749 $650 $731 reversed $642 $-1 #
coedge $-1 $644 $643 $713 $755 reversed $465 $-1 #
edge $-1 $664 6.322329999999993788 $756 80 $662 $760 forward 7 unknown #
edge $-1 $761 1 $718 74.67767000000000621 $646 $762 forward 7 unknown #
straight-curve $-1 17 -73.67767000000000621 -18 1 0 0 I I #
edge $-1 $729 -12.00213240271473225 $761 -3.919228634059962246 $701 $763 forward 7 unknown #
vertex $-1 $703 $764 #
straight-curve $-1 44.54145188432740099 -73.83883500000000311 -25 -0 1 0 I I #
edge $-1 $651 38.54145188432740099 $751 44 $723 $765 forward 7 unknown #
point $-1 44.54145188432740099 -71.67767000000000621 -25 #
torus-surface $-1 50 -67.67767000000000621 -23 0 0 1 3.999999999999989786 2 1 0 0 forward_v I I I I #
ellipse-curve $-1 5.99999999999999023 -67.67767000000000621 -25 0 0 1 -2.828427124746189847 -2.828427124746189847 0 1 I I #
straight-curve $-1 11.45854811567260079 -33.33883500000000311 -25 -0 -1 -0 I I #
point $-1 15.5 -73.67767000000000621 -18 #
edge $-1 $697 0.3178237039278810072 $673 2.823768949661912053 $691 $685 forward 7 unknown #
point $-1 12.80131584642930065 32.20100948432980204 47.05025235958380136 #
point $-1 12.80131584642930065 27.95836879721050039 51.29289304670309946 #
point $-1 52.49489742783180191 35.02943660907600076 58.36396085856860338 #
ellipse-curve $-1 28 35.73654339026259663 50.58578626551649648 0 -0.707106781186549016 0.7071067811865460184 16 0 0 1 I I #
ellipse-curve $-1 28 35.73654339026259663 50.58578626551649648 -0 0.707106781186549016 -0.7071067811865460184 25 0 0 1 I I #
edge $-1 $766 -3.141592653589801998 $766 3.141592653589784234 $700 $767 forward 7 unknown #
straight-curve $-1 43.1986841535707029 39.62563068678859679 39.62563115712509898 0 0.707106781186549016 -0.7071067811865460184 I I #
point $-1 3.505102572168219854 32.20100948432980204 47.05025235958380136 #
point $-1 43.1986841535707029 32.20100948432980204 47.05025235958380136 #
point $-1 43.1986841535707029 27.95836879721050039 51.29289304670309946 #
point $-1 54 0 -25 #
coedge $-1 $723 $708 $706 $750 reversed $642 $-1 #
edge $-1 $751 -0.785398163397448279 $710 0.785398163397448279 $749 $768 forward 7 unknown #
vertex $-1 $731 $769 #
ellipse-curve $-1 50 -71.67767000000000621 -23 1 5.551115123125790098e-17 0 0 -1.414213562373090038 -1.414213562373090038 1 I I #
straight-curve $-1 54 -67.67767000000000621 -25 0 1 0 I I #
point $-1 54 -67.67767000000000621 -25 #
edge $-1 $761 1.5 $756 26.5 $713 $770 forward 7 unknown #
vertex $-1 $714 $771 #
straight-curve $-1 24.45961431702999889 0 -2.481492786682559792 -0.5000000000000009992 0 -0.8660254037844380415 I I #
point $-1 11.45854811567260079 0 -25 #
point $-1 40.5 -73.67767000000000621 -18 #
straight-curve $-1 15.5 -80 -18 0 1 0 I I #
vertex $-1 $728 $772 #
straight-curve $-1 40.5 1 -18 0 -1 0 I I #
straight-curve $-1 38.54038568296999756 0 -14.60584843966469926 -0.5000000000000009992 0 0.8660254037844380415 I I #
point $-1 44.54145188432740099 0 -25 #
straight-curve $-1 6 -71.67767000000000621 -25 1 0 0 I I #
vertex $-1 $743 $773 #
ellipse-curve $-1 28 54.82842648229939897 31.49390317347980073 0 -0.707106781186549016 0.7071067811865460184 16 0 0 1 I I #
ellipse-curve $-1 50 -67.67767000000000621 -25 0 0 1 2.828427124746189847 -2.828427124746189847 0 1 I I #
point $-1 50 -71.67767000000000621 -25 #
straight-curve $-1 42 0 -18 -1 0 0 I I #
point $-1 15.5 0 -18 #
point $-1 40.5 0 -18 #
point $-1 12 54.82842648229949845 31.4939031734799002 #
End-of-ACIS-data 