105 275 1 0                             
body $-1 $1 $-1 $2 #
lump $-1 $-1 $3 $0 #
transform $-1 1 0 0 0 -3.49148133884313e-15 1 0 -1 -3.49148133884313e-15 0 0 0 1 1 0 0 #
shell $-1 $-1 $-1 $4 $1 #
face $-1 $5 $6 $3 $-1 $7 reversed single #
face $-1 $8 $9 $3 $-1 $10 forward single #
loop $-1 $-1 $11 $4 #
plane-surface $-1 0 -40 1.39659253553725e-13 0 1 -3.49148133884313e-15 1 0 0 0 #
face $-1 $12 $13 $3 $-1 $14 forward single #
loop $-1 $-1 $15 $5 #
plane-surface $-1 0 0 -15 0 0 -1 -1 0 0 0 #
coedge $-1 $16 $17 $18 $19 1 $6 $-1 #
face $-1 $20 $21 $3 $-1 $22 forward single #
loop $-1 $-1 $23 $8 #
plane-surface $-1 0 0 15 0 0 1 1 0 0 0 #
coedge $-1 $24 $25 $17 $26 0 $9 $-1 #
coedge $-1 $27 $11 $23 $28 1 $6 $-1 #
coedge $-1 $11 $27 $15 $26 1 $6 $-1 #
coedge $-1 $29 $30 $11 $19 0 $31 $-1 #
edge $-1 $32 $33 $18 $34 0 #
face $-1 $35 $36 $3 $-1 $37 reversed single #
loop $-1 $-1 $38 $12 #
cone-surface $-1 0 0 0 0 0 1 50 0 0 1 0 1 0 #
coedge $-1 $39 $40 $16 $28 0 $13 $-1 #
coedge $-1 $41 $15 $42 $43 0 $9 $-1 #
coedge $-1 $15 $44 $29 $45 0 $9 $-1 #
edge $-1 $33 $46 $15 $47 0 #
coedge $-1 $17 $16 $38 $48 1 $6 $-1 #
edge $-1 $49 $32 $23 $50 0 #
coedge $-1 $51 $18 $25 $45 1 $31 $-1 #
coedge $-1 $18 $52 $39 $53 1 $31 $-1 #
loop $-1 $-1 $18 $54 #
vertex $-1 $19 $55 #
vertex $-1 $45 $56 #
straight-curve $-1 30 -40 0 -0 -0 -1 #
face $-1 $57 $58 $3 $-1 $59 reversed single #
loop $-1 $60 $61 $20 #
cone-surface $-1 25 30 -1.04744440165294e-13 1 -3.49148133884313e-15 1.21904419394898e-29 -1.74574066942157e-14 -5 1.74574066942157e-14 1 0 1 0 #
coedge $-1 $62 $42 $27 $48 0 $21 $-1 #
coedge $-1 $63 $23 $30 $53 0 $13 $-1 #
coedge $-1 $23 $64 $62 $65 0 $13 $-1 #
coedge $-1 $66 $24 $67 $68 0 $9 $-1 #
coedge $-1 $38 $69 $24 $43 1 $21 $-1 #
edge $-1 $46 $70 $24 $71 0 #
coedge $-1 $25 $72 $51 $73 0 $9 $-1 #
edge $-1 $74 $33 $25 $71 0 #
vertex $-1 $48 $75 #
straight-curve $-1 0 -40.0000000000001 -15 -1 0 0 #
edge $-1 $46 $49 $38 $76 0 #
vertex $-1 $65 $77 #
straight-curve $-1 0 -39.9999999999999 15 1 -0 0 #
coedge $-1 $78 $29 $44 $73 1 $31 $-1 #
coedge $-1 $30 $78 $63 $79 1 $31 $-1 #
edge $-1 $32 $80 $39 $81 0 #
face $-1 $82 $31 $3 $-1 $22 forward single #
point $-1 30.0000000000001 -40 15.0000000000001 #
point $-1 29.9999999999999 -40.0000000000001 -15 #
face $-1 $83 $84 $3 $-1 $85 forward single #
loop $-1 $86 $87 $35 #
cone-surface $-1 -25 30 -1.04744440165294e-13 1 -3.49148133884313e-15 1.21904419394898e-29 -2.61861100413235e-14 -7.5 2.61861100413235e-14 1 0 1 0 #
loop $-1 $-1 $88 $20 #
coedge $-1 $61 $61 $89 $90 1 $36 $-1 #
coedge $-1 $69 $38 $40 $65 1 $21 $-1 #
coedge $-1 $91 $39 $52 $79 0 $13 $-1 #
coedge $-1 $40 $92 $93 $94 0 $13 $-1 #
edge $-1 $95 $49 $40 $81 0 #
coedge $-1 $96 $41 $97 $98 0 $9 $-1 #
coedge $-1 $99 $100 $41 $68 1 $84 $-1 #
edge $-1 $70 $101 $41 $102 0 #
coedge $-1 $42 $62 $99 $103 0 $21 $-1 #
vertex $-1 $43 $104 #
ellipse-curve $-1 0 0 -15 0 0 -1 50 0 0 1 #
coedge $-1 $44 $105 $106 $107 0 $9 $-1 #
edge $-1 $108 $74 $44 $71 0 #
vertex $-1 $73 $109 #
point $-1 -29.9999999999999 -40.0000000000001 -15 #
straight-curve $-1 -30 -40 0 0 0 1 #
point $-1 -30.0000000000001 -40 15.0000000000001 #
coedge $-1 $52 $51 $110 $111 0 $31 $-1 #
edge $-1 $80 $112 $63 $81 0 #
vertex $-1 $53 $113 #
ellipse-curve $-1 0 0 15 0 0 1 50 0 0 1 #
face $-1 $114 $115 $3 $-1 $116 forward single #
face $-1 $117 $118 $3 $-1 $119 forward single #
loop $-1 $-1 $93 $57 #
plane-surface $-1 -45 15 -5.2372220082647e-14 0 1 -3.49148133884313e-15 1 0 0 0 #
loop $-1 $-1 $120 $35 #
coedge $-1 $87 $87 $121 $122 1 $58 $-1 #
coedge $-1 $88 $88 $123 $124 1 $60 $-1 #
coedge $-1 $89 $89 $61 $90 0 $115 $-1 #
edge $-1 $125 $125 $89 $126 0 #
coedge $-1 $127 $63 $128 $129 0 $13 $-1 #
coedge $-1 $64 $130 $131 $132 0 $13 $-1 #
coedge $-1 $100 $99 $64 $94 1 $84 $-1 #
edge $-1 $133 $95 $64 $134 0 #
vertex $-1 $94 $135 #
coedge $-1 $136 $66 $137 $138 0 $9 $-1 #
coedge $-1 $139 $140 $66 $98 1 $141 $-1 #
edge $-1 $101 $142 $66 $143 0 #
coedge $-1 $93 $67 $69 $103 1 $84 $-1 #
coedge $-1 $67 $93 $139 $144 1 $84 $-1 #
vertex $-1 $68 $145 #
straight-curve $-1 -22.5 14.9999999999999 -15 1 0 0 #
edge $-1 $95 $70 $69 $146 0 #
point $-1 -47.6969600708473 14.9999999999999 -15 #
coedge $-1 $72 $147 $148 $149 0 $9 $-1 #
coedge $-1 $150 $110 $72 $107 1 $151 $-1 #
edge $-1 $152 $108 $72 $153 0 #
vertex $-1 $107 $154 #
point $-1 50 0 -15 #
coedge $-1 $106 $128 $78 $111 1 $151 $-1 #
edge $-1 $108 $112 $78 $155 0 #
vertex $-1 $79 $156 #
point $-1 50 0 15 #
face $-1 $157 $151 $3 $-1 $158 forward single #
loop $-1 $159 $89 $82 #
plane-surface $-1 30 40 -1.39659253553725e-13 1 0 0 0 -1 3.49148133884313e-15 0 #
face $-1 $54 $160 $3 $-1 $22 forward single #
loop $-1 $141 $121 $83 #
plane-surface $-1 -30 40 -1.39659253553725e-13 -1 0 -0 0 1 -3.49148133884313e-15 0 #
coedge $-1 $120 $120 $161 $162 1 $86 $-1 #
coedge $-1 $121 $121 $87 $122 0 $118 $-1 #
edge $-1 $163 $163 $121 $164 0 #
coedge $-1 $123 $123 $88 $124 0 $165 $-1 #
edge $-1 $166 $166 $123 $167 0 #
vertex $-1 $90 $168 #
ellipse-curve $-1 30 30 -1.04744440165294e-13 -1 -0 -0 -1.74574066942157e-14 -5 1.74574066942157e-14 1 #
coedge $-1 $169 $91 $170 $171 0 $13 $-1 #
coedge $-1 $110 $150 $91 $129 1 $151 $-1 #
edge $-1 $112 $172 $91 $173 0 #
coedge $-1 $92 $174 $175 $176 0 $13 $-1 #
coedge $-1 $140 $139 $92 $132 1 $141 $-1 #
edge $-1 $177 $133 $92 $178 0 #
vertex $-1 $94 $179 #
straight-curve $-1 -22.5 15.0000000000001 15 -1 0 0 #
point $-1 -47.6969600708473 15.0000000000001 15 #
coedge $-1 $180 $96 $181 $182 0 $9 $-1 #
coedge $-1 $183 $184 $96 $138 1 $160 $-1 #
edge $-1 $142 $185 $96 $71 0 #
coedge $-1 $131 $97 $100 $144 0 $141 $-1 #
coedge $-1 $97 $131 $183 $186 1 $141 $-1 #
loop $-1 $-1 $131 $83 #
vertex $-1 $186 $187 #
straight-curve $-1 -30 20 -15 0 1 0 #
edge $-1 $101 $133 $139 $188 0 #
point $-1 -30 14.9999999999999 -15 #
straight-curve $-1 -47.6969600708473 15 0 -0 -0 -1 #
coedge $-1 $105 $189 $190 $191 0 $9 $-1 #
coedge $-1 $192 $193 $105 $149 1 $159 $-1 #
edge $-1 $194 $152 $105 $195 0 #
coedge $-1 $128 $106 $193 $196 1 $151 $-1 #
loop $-1 $-1 $128 $114 #
vertex $-1 $107 $197 #
straight-curve $-1 22.5 14.9999999999999 -15 1 0 0 #
point $-1 47.6969600708473 14.9999999999999 -15 #
straight-curve $-1 47.6969600708473 15 0 0 0 1 #
point $-1 47.6969600708473 15.0000000000001 15 #
face $-1 $198 $199 $3 $-1 $22 forward single #
plane-surface $-1 45 15 -5.2372220082647e-14 0 1 -3.49148133884313e-15 1 0 0 0 #
loop $-1 $-1 $170 $82 #
loop $-1 $-1 $183 $117 #
coedge $-1 $161 $161 $120 $162 0 $200 $-1 #
edge $-1 $201 $201 $161 $202 0 #
vertex $-1 $122 $203 #
ellipse-curve $-1 -30 30 -1.04744440165294e-13 1 -0 0 -2.61861100413235e-14 -7.5 2.61861100413235e-14 1 #
loop $-1 $204 $123 $205 #
vertex $-1 $124 $206 #
ellipse-curve $-1 15 30 -1.04744440165294e-13 1 -0 0 -1.74574066942157e-14 -5 1.74574066942157e-14 1 #
point $-1 30 35 -8.72870334710783e-14 #
coedge $-1 $207 $127 $208 $209 0 $13 $-1 #
coedge $-1 $193 $192 $127 $171 1 $159 $-1 #
edge $-1 $172 $210 $127 $211 0 #
vertex $-1 $129 $212 #
straight-curve $-1 22.5 15.0000000000001 15 -1 0 0 #
coedge $-1 $130 $213 $214 $215 0 $13 $-1 #
coedge $-1 $184 $183 $130 $176 1 $160 $-1 #
edge $-1 $216 $177 $130 $81 0 #
vertex $-1 $176 $217 #
straight-curve $-1 -30 20 15 -0 -1 0 #
point $-1 -30 15.0000000000001 15 #
coedge $-1 $189 $136 $218 $219 0 $9 $-1 #
coedge $-1 $220 $221 $136 $182 1 $222 $-1 #
edge $-1 $185 $223 $136 $224 0 #
coedge $-1 $175 $137 $140 $186 0 $160 $-1 #
coedge $-1 $137 $175 $220 $225 0 $160 $-1 #
vertex $-1 $138 $226 #
edge $-1 $142 $177 $183 $227 0 #
point $-1 -30 40 -15 #
straight-curve $-1 -30 15 -5.2372220082647e-14 0 3.49148133884313e-15 1 #
coedge $-1 $147 $180 $228 $229 0 $9 $-1 #
coedge $-1 $230 $231 $147 $191 1 $199 $-1 #
edge $-1 $232 $194 $147 $71 0 #
coedge $-1 $170 $148 $231 $233 1 $159 $-1 #
coedge $-1 $148 $170 $150 $196 0 $159 $-1 #
vertex $-1 $191 $234 #
straight-curve $-1 30 20 -15 0 -1 0 #
edge $-1 $172 $152 $193 $235 0 #
point $-1 30 14.9999999999999 -15 #
face $-1 $236 $200 $3 $-1 $237 forward single #
loop $-1 $-1 $231 $157 #
loop $-1 $222 $161 $198 #
vertex $-1 $162 $238 #
ellipse-curve $-1 -15 30 -1.04744440165294e-13 -1 -0 -0 -2.61861100413235e-14 -7.5 2.61861100413235e-14 1 #
point $-1 -30 37.5 -1.83302770289265e-13 #
loop $-1 $-1 $239 $205 #
face $-1 $-1 $165 $3 $-1 $240 forward single #
point $-1 15 35 -1.57116660247941e-13 #
coedge $-1 $213 $169 $239 $241 0 $13 $-1 #
coedge $-1 $231 $230 $169 $209 1 $199 $-1 #
edge $-1 $210 $242 $169 $81 0 #
vertex $-1 $233 $243 #
straight-curve $-1 30 20 15 0 1 0 #
point $-1 30 15.0000000000001 15 #
coedge $-1 $174 $207 $244 $245 0 $13 $-1 #
coedge $-1 $221 $220 $174 $215 1 $222 $-1 #
edge $-1 $246 $216 $174 $247 0 #
vertex $-1 $215 $248 #
point $-1 -30 40 15 #
coedge $-1 $249 $250 $180 $219 1 $251 $-1 #
edge $-1 $223 $252 $180 $253 0 #
coedge $-1 $214 $181 $184 $225 1 $222 $-1 #
coedge $-1 $181 $214 $249 $254 0 $222 $-1 #
loop $-1 $-1 $214 $198 #
vertex $-1 $219 $255 #
straight-curve $-1 -15 20 -15 0 -1 0 #
edge $-1 $216 $185 $184 $256 0 #
point $-1 -15 47.6969600708473 -15 #
straight-curve $-1 -30 40 0 0 0 1 #
coedge $-1 $257 $258 $189 $229 1 $204 $-1 #
edge $-1 $252 $232 $189 $259 0 #
coedge $-1 $208 $190 $258 $260 0 $199 $-1 #
coedge $-1 $190 $208 $192 $233 0 $199 $-1 #
vertex $-1 $260 $261 #
edge $-1 $210 $194 $231 $262 0 #
point $-1 30 40 -15 #
straight-curve $-1 30 15 -5.2372220082647e-14 0 -3.49148133884313e-15 -1 #
face $-1 $205 $251 $3 $-1 $263 forward single #
plane-surface $-1 -15 40 -1.39659253553725e-13 1 0 0 0 -1 3.49148133884313e-15 0 #
point $-1 -15 37.5 -7.85583301239704e-14 #
coedge $-1 $258 $257 $207 $241 1 $204 $-1 #
plane-surface $-1 15 40 -1.39659253553725e-13 -1 0 -0 0 1 -3.49148133884313e-15 0 #
edge $-1 $242 $264 $207 $265 0 #
vertex $-1 $209 $266 #
point $-1 30 40 15 #
coedge $-1 $250 $249 $213 $245 1 $251 $-1 #
edge $-1 $264 $246 $213 $267 0 #
vertex $-1 $245 $268 #
straight-curve $-1 -15 20 15 0 1 0 #
point $-1 -15 47.6969600708473 15 #
coedge $-1 $244 $218 $221 $254 1 $251 $-1 #
coedge $-1 $218 $244 $257 $269 1 $251 $-1 #
loop $-1 $-1 $244 $236 #
vertex $-1 $219 $270 #
straight-curve $-1 0 14.9999999999999 -15 1 0 0 #
edge $-1 $246 $223 $221 $271 0 #
point $-1 -15 14.9999999999999 -15 #
straight-curve $-1 -15 47.6969600708473 0 -0 -0 -1 #
coedge $-1 $239 $228 $250 $269 0 $204 $-1 #
coedge $-1 $228 $239 $230 $260 1 $204 $-1 #
straight-curve $-1 15 20 -15 0 1 0 #
edge $-1 $232 $242 $230 $272 0 #
point $-1 15 47.6969600708473 -15 #
straight-curve $-1 30 40 0 -0 -0 -1 #
plane-surface $-1 0 15 -5.2372220082647e-14 0 1 -3.49148133884313e-15 1 0 0 0 #
vertex $-1 $245 $273 #
straight-curve $-1 15 20 15 -0 -1 0 #
point $-1 15 47.6969600708473 15 #
straight-curve $-1 0 15.0000000000001 15 -1 0 0 #
point $-1 -15 15.0000000000001 15 #
edge $-1 $252 $264 $257 $274 0 #
point $-1 15 14.9999999999999 -15 #
straight-curve $-1 -15 15 -5.2372220082647e-14 0 -3.49148133884313e-15 -1 #
straight-curve $-1 15 47.6969600708473 0 0 0 1 #
point $-1 15 15.0000000000001 15 #
straight-curve $-1 15 15 -5.2372220082647e-14 0 3.49148133884313e-15 1 #
