600 0 2 0           
24 FBMach with ACIS - 6.0.3 13 ACIS 6.0.3 NT 24 Tue May 22 12:28:27 2001 
1 9.9999999999999995e-007 1e-010 
body $2 $3 $-1 $4 #
bdycol-kcp $-1 1 6 $5 $6 $7 $8 $9 $10 #
model_id-kcp-attrib $-1 $-1 $-1 $0 1 990548906 60 1681653761 1 #
lump $-1 $-1 $11 $0 #
transform $-1 1 0 0 0 -3.4914813388431298e-015 1 0 -1 -3.4914813388431298e-015 0 0 0 1 rotate no_reflect no_shear #
body $12 $13 $-1 $14 #
body $15 $16 $-1 $17 #
body $18 $19 $-1 $20 #
body $21 $22 $-1 $23 #
body $24 $25 $-1 $26 #
body $27 $28 $-1 $29 #
shell $-1 $-1 $-1 $30 $-1 $3 #
model_id-kcp-attrib $-1 $-1 $-1 $5 1 990548906 60 1681653762 1 #
lump $-1 $-1 $31 $5 #
transform $-1 1 0 0 0 1 0 0 0 1 0 -6.3060667798708891e-014 3.8484800354235986 1 no_rotate no_reflect no_shear #
rgb_color-st-attrib $-1 $32 $-1 $6 0.5 1 1 #
lump $-1 $-1 $33 $6 #
transform $-1 -3.8285889215894375e-016 0 -1 0 1 0 1 0 -3.8285889215894375e-016 22.5 1.0097419586828951e-028 30.000000000000004 1 rotate no_reflect no_shear #
rgb_color-st-attrib $-1 $34 $-1 $7 0.5 1 1 #
lump $-1 $-1 $35 $7 #
transform $-1 -3.8285889215894375e-016 0 -1 0 1 0 1 0 -3.8285889215894375e-016 -22.5 1.0097419586828951e-028 29.999999999999996 1 rotate no_reflect no_shear #
rgb_color-st-attrib $-1 $36 $-1 $8 1 0 0 #
lump $-1 $-1 $37 $8 #
transform $-1 1 0 0 0 1 0 0 0 1 0 -5.6843418860808015e-014 151.34792556422636 1 no_rotate no_reflect no_shear #
rgb_color-st-attrib $-1 $38 $-1 $9 1 0.5 1 #
lump $-1 $-1 $39 $9 #
transform $-1 1 0 0 0 1 0 0 0 1 0 -6.3060667798708891e-014 3.8484800354235986 1 no_rotate no_reflect no_shear #
rgb_color-st-attrib $-1 $40 $-1 $10 1 0.5 1 #
lump $-1 $-1 $41 $10 #
transform $-1 1 0 0 0 1 0 0 0 1 0 -6.3060667798708891e-014 3.8484800354235986 1 no_rotate no_reflect no_shear #
face $42 $43 $44 $11 $-1 $45 reversed single #
shell $-1 $-1 $-1 $46 $-1 $13 #
model_id-kcp-attrib $-1 $-1 $15 $6 1 990548906 100 1684275203 1 #
shell $-1 $-1 $-1 $47 $-1 $16 #
model_id-kcp-attrib $-1 $-1 $18 $7 1 990548906 110 1684930564 1 #
shell $-1 $-1 $-1 $48 $-1 $19 #
model_id-kcp-attrib $-1 $-1 $21 $8 1 990548906 310 1681260549 1 #
shell $-1 $-1 $-1 $49 $-1 $22 #
model_id-kcp-attrib $-1 $-1 $24 $9 1 990548906 450 1690435590 1 #
shell $-1 $-1 $-1 $50 $-1 $25 #
model_id-kcp-attrib $-1 $-1 $27 $10 1 990548906 550 1680211975 1 #
shell $-1 $-1 $-1 $51 $-1 $28 #
model_id-kcp-attrib $-1 $-1 $-1 $30 1 990548906 60 1681653761 2 #
face $52 $53 $54 $11 $-1 $55 forward single #
loop $-1 $-1 $56 $30 #
plane-surface $-1 0 -40 1.3965925355372501e-013 0 1 -3.4914813388431298e-015 1 0 0 forward_v I I I I #
face $-1 $57 $58 $31 $-1 $59 forward single #
face $-1 $60 $61 $33 $-1 $62 forward single #
face $-1 $63 $64 $35 $-1 $65 forward single #
face $-1 $66 $67 $37 $-1 $68 reversed single #
face $-1 $69 $70 $39 $-1 $71 forward single #
face $-1 $72 $73 $41 $-1 $74 forward single #
model_id-kcp-attrib $-1 $-1 $-1 $43 1 990548906 60 1681653761 3 #
face $75 $76 $77 $11 $-1 $78 forward single #
loop $-1 $-1 $79 $43 #
plane-surface $-1 0 0 -15 0 0 -1 -1 0 0 forward_v I I I I #
coedge $-1 $80 $81 $82 $83 reversed $44 $-1 #
face $84 $85 $86 $31 $-1 $87 reversed single #
loop $-1 $-1 $88 $46 #
plane-surface $-1 0 0 43.848480035423748 0 0 1 1 0 0 forward_v I I I I #
face $-1 $89 $90 $33 $-1 $91 forward single #
loop $-1 $92 $93 $47 #
cone-surface $-1 0 0 0 0 0 1 5 0 0 1 I I 0 1 5 forward I I I I #
face $-1 $94 $95 $35 $-1 $96 forward single #
loop $-1 $97 $98 $48 #
cone-surface $-1 0 0 0 0 0 1 7.5 0 0 1 I I 0 1 7.5 forward I I I I #
face $-1 $99 $100 $37 $-1 $101 forward single #
loop $-1 $-1 $102 $49 #
plane-surface $-1 0 -15.00000000000021 -147.49944552880277 0 1 0 0 0 1 forward_v I I I I #
face $-1 $103 $104 $39 $-1 $105 forward single #
loop $-1 $-1 $106 $50 #
plane-surface $-1 -30 15.000000000000011 11.151519964576353 0 1 0 0 0 1 forward_v I I I I #
face $-1 $107 $108 $41 $-1 $109 forward single #
loop $-1 $-1 $110 $51 #
plane-surface $-1 30 -14.999999999999989 11.151519964576449 0 -1 0 0 0 -1 forward_v I I I I #
model_id-kcp-attrib $-1 $-1 $-1 $53 1 990548906 60 1681653761 4 #
face $111 $112 $113 $11 $-1 $114 forward single #
loop $-1 $-1 $115 $53 #
plane-surface $-1 0 0 15 0 0 1 1 0 0 forward_v I I I I #
coedge $-1 $116 $117 $81 $118 forward $54 $-1 #
coedge $-1 $119 $56 $115 $120 reversed $44 $-1 #
coedge $-1 $56 $119 $79 $118 reversed $44 $-1 #
coedge $-1 $121 $122 $56 $83 forward $123 $-1 #
edge $124 $125 -15.000000000000099 $126 15 $82 $127 forward 7 unknown #
model_id-kcp-attrib $-1 $-1 $-1 $57 1 990548906 60 1681653762 2 #
face $128 $129 $130 $31 $-1 $131 reversed single #
loop $-1 $-1 $132 $57 #
plane-surface $-1 0 0 -43.848480035423748 0 0 1 1 0 0 forward_v I I I I #
coedge $-1 $133 $134 $135 $136 forward $58 $-1 #
face $-1 $-1 $137 $33 $-1 $138 forward single #
loop $-1 $-1 $139 $60 #
plane-surface $-1 0 0 -7.5000000000000151 0 0 -1 -1 0 0 forward_v I I I I #
loop $-1 $-1 $140 $47 #
coedge $-1 $93 $93 $139 $141 reversed $61 $-1 #
face $-1 $-1 $142 $35 $-1 $143 forward single #
loop $-1 $-1 $144 $63 #
plane-surface $-1 0 0 -7.500000000000024 0 0 -1 -1 0 0 forward_v I I I I #
loop $-1 $-1 $145 $48 #
coedge $-1 $98 $98 $144 $146 reversed $64 $-1 #
face $-1 $147 $148 $37 $-1 $149 reversed single #
loop $-1 $-1 $150 $66 #
plane-surface $-1 0 -6.2172489379008766e-015 -103.65096549337902 0 0 1 1 0 0 forward_v I I I I #
coedge $-1 $151 $152 $153 $154 forward $67 $-1 #
face $-1 $155 $156 $39 $-1 $157 forward single #
loop $-1 $-1 $158 $69 #
plane-surface $-1 -30 15.000000000000203 43.848480035423748 0 0 1 1 0 0 forward_v I I I I #
coedge $-1 $159 $160 $161 $162 forward $70 $-1 #
face $-1 $163 $164 $41 $-1 $165 forward single #
loop $-1 $-1 $166 $72 #
plane-surface $-1 30 -15.000000000000203 43.848480035423748 0 0 1 1 0 0 forward_v I I I I #
coedge $-1 $167 $168 $169 $170 forward $73 $-1 #
model_id-kcp-attrib $-1 $-1 $-1 $76 1 990548906 60 1681653761 5 #
face $171 $172 $173 $11 $-1 $174 reversed single #
loop $-1 $-1 $175 $76 #
cone-surface $-1 0 0 0 0 0 1 50 0 0 1 I I 0 1 50 forward I I I I #
coedge $-1 $176 $177 $80 $120 forward $77 $-1 #
coedge $-1 $178 $79 $179 $180 forward $54 $-1 #
coedge $-1 $79 $181 $121 $182 forward $54 $-1 #
edge $183 $126 -29.999999999999901 $184 29.999999999999901 $79 $185 forward 7 unknown #
coedge $-1 $81 $80 $175 $186 reversed $44 $-1 #
edge $187 $188 -30.000000000000099 $125 30.000000000000099 $115 $189 forward 7 unknown #
coedge $-1 $190 $82 $117 $182 reversed $123 $-1 #
coedge $-1 $82 $191 $176 $192 reversed $123 $-1 #
loop $-1 $-1 $82 $193 #
attrib_edge_convexity-kcp-attrib $-1 $194 $-1 $83 1 #
vertex $-1 $83 $195 #
vertex $-1 $182 $196 #
straight-curve $-1 30 -40 0 0 0 -1 I I #
model_id-kcp-attrib $-1 $-1 $-1 $85 1 990548906 60 1681653762 4 #
face $-1 $197 $198 $31 $-1 $199 reversed single #
loop $-1 $-1 $200 $85 #
plane-surface $-1 0 -15.000000000000203 0 0 1 0 0 0 1 forward_v I I I I #
coedge $-1 $201 $202 $203 $204 forward $86 $-1 #
coedge $-1 $205 $88 $206 $207 forward $58 $-1 #
coedge $-1 $88 $205 $208 $209 forward $58 $-1 #
coedge $-1 $210 $211 $88 $136 reversed $212 $-1 #
edge $-1 $213 -15.000000000000203 $214 15.000000000000203 $135 $215 forward 7 unknown #
loop $-1 $-1 $216 $89 #
plane-surface $-1 0 0 7.5000000000000151 0 0 1 1 0 0 forward_v I I I I #
coedge $-1 $139 $139 $93 $141 forward $90 $-1 #
coedge $-1 $140 $140 $216 $217 reversed $92 $-1 #
edge $-1 $218 0 $218 6.2831853071795862 $139 $219 forward 7 unknown #
loop $-1 $-1 $220 $94 #
plane-surface $-1 0 0 7.500000000000024 0 0 1 1 0 0 forward_v I I I I #
coedge $-1 $144 $144 $98 $146 forward $95 $-1 #
coedge $-1 $145 $145 $220 $221 reversed $97 $-1 #
edge $-1 $222 0 $222 6.2831853071795862 $144 $223 forward 7 unknown #
face $-1 $224 $225 $37 $-1 $226 reversed single #
loop $-1 $-1 $227 $99 #
plane-surface $-1 0 15.000000000000195 -147.49944552880277 0 -1 0 0 0 -1 forward_v I I I I #
coedge $-1 $228 $229 $230 $231 forward $100 $-1 #
coedge $-1 $232 $102 $233 $234 forward $67 $-1 #
coedge $-1 $102 $232 $228 $235 reversed $67 $-1 #
coedge $-1 $230 $236 $102 $154 reversed $237 $-1 #
edge $-1 $238 29.901242728977735 $239 62.598202799824946 $153 $240 forward 7 unknown #
face $-1 $241 $242 $39 $-1 $243 forward single #
loop $-1 $-1 $244 $103 #
plane-surface $-1 -30 -15.000000000000203 43.848480035423748 0 -1 0 0 0 -1 forward_v I I I I #
coedge $-1 $245 $246 $247 $248 forward $104 $-1 #
coedge $-1 $249 $106 $246 $250 reversed $70 $-1 #
coedge $-1 $106 $249 $251 $252 forward $70 $-1 #
coedge $-1 $253 $247 $106 $162 reversed $254 $-1 #
edge $-1 $255 -0.6742400177118224 $256 32.022720053135572 $106 $257 forward 7 unknown #
face $-1 $258 $259 $41 $-1 $260 forward single #
loop $-1 $-1 $261 $107 #
plane-surface $-1 30 15.000000000000203 43.848480035423748 0 1 0 0 0 1 forward_v I I I I #
coedge $-1 $262 $263 $264 $265 forward $108 $-1 #
coedge $-1 $266 $110 $263 $267 reversed $73 $-1 #
coedge $-1 $110 $266 $268 $269 forward $73 $-1 #
coedge $-1 $270 $264 $110 $170 reversed $271 $-1 #
edge $-1 $272 -0.67424001771172648 $273 32.022720053135572 $110 $274 forward 7 unknown #
model_id-kcp-attrib $-1 $-1 $-1 $112 1 990548906 60 1681653761 6 #
face $275 $276 $277 $11 $-1 $278 reversed single #
loop $279 $280 $281 $112 #
cone-surface $-1 25 30 -1.04744440165294e-013 1 -3.4914813388431298e-015 1.21904419394898e-029 -1.7457406694215701e-014 -5 1.7457406694215701e-014 1 I I 0 1 5 forward I I I I #
coedge $-1 $282 $179 $119 $186 forward $113 $-1 #
coedge $-1 $283 $115 $122 $192 forward $77 $-1 #
coedge $-1 $115 $284 $282 $285 forward $77 $-1 #
coedge $-1 $286 $116 $287 $288 forward $54 $-1 #
coedge $-1 $175 $289 $116 $180 reversed $113 $-1 #
edge $290 $184 2.2142974355881782 $291 3.4462853076051885 $116 $292 forward 7 unknown #
coedge $-1 $117 $293 $190 $294 forward $54 $-1 #
edge $295 $296 0 $126 0.92729521800161507 $117 $292 forward 7 unknown #
attrib_edge_convexity-kcp-attrib $-1 $297 $-1 $118 1 #
vertex $-1 $186 $298 #
straight-curve $-1 0 -40.000000000000099 -15 -1 0 0 I I #
edge $299 $184 -15 $188 15.000000000000099 $175 $300 forward 7 unknown #
attrib_edge_convexity-kcp-attrib $-1 $301 $-1 $120 1 #
vertex $-1 $285 $302 #
straight-curve $-1 0 -39.999999999999901 15 1 0 0 I I #
coedge $-1 $303 $121 $181 $294 reversed $123 $-1 #
coedge $-1 $122 $303 $283 $304 reversed $123 $-1 #
edge $-1 $125 -0.92729521800161063 $305 0 $176 $306 forward 7 unknown #
face $307 $308 $123 $11 $-1 $114 forward single #
convexity-sys-attrib $-1 $-1 $124 $83 #
point $-1 30.000000000000099 -40 15.000000000000099 #
point $-1 29.999999999999901 -40.000000000000099 -15 #
face $309 $310 $311 $31 $-1 $312 reversed single #
loop $-1 $-1 $313 $129 #
plane-surface $-1 -50 0 0 1 0 0 0 0 -1 forward_v I I I I #
coedge $-1 $314 $208 $315 $316 forward $130 $-1 #
coedge $-1 $317 $132 $314 $318 forward $86 $-1 #
coedge $-1 $132 $317 $319 $320 forward $86 $-1 #
coedge $-1 $211 $210 $132 $204 reversed $212 $-1 #
edge $-1 $321 -15.000000000000203 $322 15.000000000000203 $203 $323 forward 7 unknown #
coedge $-1 $134 $133 $324 $325 forward $58 $-1 #
coedge $-1 $326 $327 $133 $207 reversed $311 $-1 #
edge $-1 $214 -50 $328 50 $206 $329 forward 7 unknown #
coedge $-1 $200 $330 $134 $209 reversed $130 $-1 #
edge $-1 $331 -50 $213 50 $208 $332 forward 7 unknown #
coedge $-1 $203 $135 $330 $333 forward $212 $-1 #
coedge $-1 $135 $203 $326 $334 reversed $212 $-1 #
loop $-1 $-1 $210 $310 #
vertex $-1 $136 $335 #
vertex $-1 $136 $336 #
straight-curve $-1 50 0 43.848480035423748 0 1 0 I I #
coedge $-1 $216 $216 $140 $217 forward $137 $-1 #
edge $-1 $337 0 $337 6.2831853071795862 $216 $338 forward 7 unknown #
vertex $-1 $141 $339 #
ellipse-curve $-1 0 0 -7.5000000000000151 0 0 -1 5 0 0 1 I I #
coedge $-1 $220 $220 $145 $221 forward $142 $-1 #
edge $-1 $340 0 $340 6.2831853071795862 $220 $341 forward 7 unknown #
vertex $-1 $146 $342 #
ellipse-curve $-1 0 0 -7.500000000000024 0 0 -1 7.5 0 0 1 I I #
face $-1 $343 $344 $37 $-1 $345 reversed single #
loop $-1 $-1 $346 $147 #
plane-surface $-1 0 0 -136.34792556422636 0 0 1 1 0 0 forward_v I I I I #
coedge $-1 $347 $348 $349 $350 forward $148 $-1 #
coedge $-1 $351 $150 $152 $235 forward $100 $-1 #
coedge $-1 $150 $351 $347 $352 forward $100 $-1 #
coedge $-1 $349 $153 $150 $231 reversed $237 $-1 #
edge $-1 $353 -14.999999999999893 $238 15.000000000000107 $230 $354 forward 7 unknown #
coedge $-1 $152 $151 $355 $356 forward $67 $-1 #
coedge $-1 $357 $358 $151 $234 reversed $225 $-1 #
edge $359 $239 -15 $360 15 $233 $361 forward 7 unknown #
edge $-1 $238 -15 $362 15 $152 $363 forward 7 unknown #
coedge $-1 $153 $349 $357 $364 reversed $237 $-1 #
loop $-1 $-1 $349 $343 #
vertex $-1 $154 $365 #
vertex $-1 $364 $366 #
straight-curve $-1 -15 -15.00000000000021 -73.749722764401383 0 0 -1 I I #
face $-1 $367 $254 $39 $-1 $368 reversed single #
loop $-1 $-1 $369 $155 #
plane-surface $-1 -30 -14.999999999999989 11.151519964576449 0 0 -1 -1 0 0 forward_v I I I I #
coedge $-1 $370 $371 $372 $373 forward $156 $-1 #
coedge $-1 $374 $158 $371 $375 reversed $104 $-1 #
coedge $-1 $158 $374 $159 $250 forward $104 $-1 #
coedge $-1 $161 $372 $158 $248 reversed $254 $-1 #
edge $-1 $256 -15.000000000000218 $376 15.000000000000187 $158 $377 forward 7 unknown #
coedge $-1 $160 $159 $378 $379 reversed $70 $-1 #
edge $-1 $380 0 $256 17.696960070847297 $246 $381 forward 7 unknown #
coedge $-1 $382 $369 $160 $252 reversed $242 $-1 #
edge $-1 $383 0 $255 17.696960070847297 $160 $384 forward 7 unknown #
coedge $-1 $372 $161 $369 $385 reversed $254 $-1 #
loop $-1 $-1 $161 $241 #
vertex $-1 $252 $386 #
vertex $-1 $250 $387 #
straight-curve $-1 -47.696960070847297 15.000000000000203 11.825759982288176 0 0 1 I I #
face $-1 $388 $271 $41 $-1 $389 forward single #
loop $-1 $-1 $390 $163 #
plane-surface $-1 30 15.000000000000011 11.151519964576353 0 0 -1 -1 0 0 forward_v I I I I #
coedge $-1 $391 $392 $393 $394 forward $164 $-1 #
coedge $-1 $395 $166 $392 $396 reversed $108 $-1 #
coedge $-1 $166 $395 $167 $267 forward $108 $-1 #
coedge $-1 $169 $393 $166 $265 reversed $271 $-1 #
edge $-1 $273 -15.000000000000187 $397 15.000000000000218 $166 $398 forward 7 unknown #
coedge $-1 $168 $167 $399 $400 reversed $73 $-1 #
edge $-1 $401 0 $273 17.696960070847297 $263 $402 forward 7 unknown #
coedge $-1 $403 $390 $168 $269 reversed $259 $-1 #
edge $-1 $404 0 $272 17.696960070847297 $168 $405 forward 7 unknown #
coedge $-1 $393 $169 $390 $406 reversed $271 $-1 #
loop $-1 $-1 $169 $258 #
vertex $-1 $269 $407 #
vertex $-1 $267 $408 #
straight-curve $-1 47.696960070847297 -15.000000000000203 11.825759982288176 0 0 1 I I #
model_id-kcp-attrib $-1 $-1 $-1 $172 1 990548906 60 1681653761 7 #
face $409 $410 $411 $11 $-1 $412 forward single #
loop $413 $414 $415 $172 #
cone-surface $-1 -25 30 -1.04744440165294e-013 1 -3.4914813388431298e-015 1.21904419394898e-029 -2.61861100413235e-014 -7.5 2.61861100413235e-014 1 I I 0 1 7.5 forward I I I I #
model_id-kcp-attrib $-1 $-1 $-1 $173 1 990548906 60 1681653761 18 #
loop $416 $-1 $417 $112 #
coedge $-1 $281 $281 $418 $419 reversed $173 $-1 #
coedge $-1 $289 $175 $177 $285 reversed $113 $-1 #
coedge $-1 $420 $176 $191 $304 forward $77 $-1 #
coedge $-1 $177 $421 $422 $423 forward $77 $-1 #
edge $-1 $424 2.8368999995743938 $188 4.0688878715914036 $177 $306 forward 7 unknown #
coedge $-1 $425 $178 $426 $427 forward $54 $-1 #
coedge $-1 $428 $429 $178 $288 reversed $411 $-1 #
edge $430 $291 -25.196960070847297 $431 -7.5 $178 $432 forward 7 unknown #
coedge $-1 $179 $282 $428 $433 forward $113 $-1 #
attrib_edge_convexity-kcp-attrib $-1 $434 $-1 $180 1 #
vertex $-1 $180 $435 #
ellipse-curve $-1 0 0 -15 0 0 -1 50 0 0 1 I I #
coedge $-1 $181 $436 $437 $438 forward $54 $-1 #
edge $439 $440 -0.30469265401539553 $296 0 $181 $292 forward 7 unknown #
attrib_edge_convexity-kcp-attrib $-1 $441 $-1 $182 1 #
vertex $-1 $294 $442 #
convexity-sys-attrib $-1 $-1 $183 $118 #
point $-1 -29.999999999999901 -40.000000000000099 -15 #
attrib_edge_convexity-kcp-attrib $-1 $443 $-1 $186 1 #
straight-curve $-1 -30 -40 0 0 0 1 I I #
convexity-sys-attrib $-1 $-1 $187 $120 #
point $-1 -30.000000000000099 -40 15.000000000000099 #
coedge $-1 $191 $190 $444 $445 forward $123 $-1 #
edge $-1 $305 0 $446 0.3046926540153993 $283 $306 forward 7 unknown #
vertex $-1 $192 $447 #
ellipse-curve $-1 0 0 15 0 0 1 50 0 0 1 I I #
model_id-kcp-attrib $-1 $-1 $-1 $193 1 990548906 60 1681653761 11 #
face $448 $449 $450 $11 $-1 $451 forward single #
model_id-kcp-attrib $-1 $-1 $-1 $197 1 990548906 60 1681653762 3 #
face $-1 $-1 $212 $31 $-1 $452 reversed single #
loop $-1 $-1 $326 $197 #
plane-surface $-1 0 15.000000000000203 0 0 -1 0 0 0 -1 forward_v I I I I #
coedge $-1 $453 $324 $327 $454 forward $198 $-1 #
coedge $-1 $330 $200 $201 $318 reversed $130 $-1 #
coedge $-1 $324 $453 $200 $316 reversed $198 $-1 #
edge $-1 $331 -43.848480035423748 $455 43.848480035423748 $315 $456 forward 7 unknown #
coedge $-1 $202 $201 $453 $457 forward $86 $-1 #
edge $-1 $322 -50 $455 50 $314 $458 forward 7 unknown #
coedge $-1 $327 $326 $202 $320 reversed $311 $-1 #
edge $-1 $459 -50 $321 50 $319 $460 forward 7 unknown #
vertex $-1 $204 $461 #
vertex $-1 $333 $462 #
straight-curve $-1 50 0 -43.848480035423748 0 -1 0 I I #
coedge $-1 $313 $315 $205 $325 reversed $198 $-1 #
edge $-1 $328 -15.000000000000203 $331 15.000000000000203 $324 $463 forward 7 unknown #
coedge $-1 $319 $206 $211 $334 forward $311 $-1 #
coedge $-1 $206 $319 $313 $454 reversed $311 $-1 #
vertex $-1 $207 $464 #
straight-curve $-1 0 15.000000000000203 43.848480035423748 -1 0 0 I I #
coedge $-1 $208 $314 $210 $333 reversed $130 $-1 #
vertex $-1 $325 $465 #
straight-curve $-1 0 -15.000000000000203 43.848480035423748 1 0 0 I I #
edge $-1 $213 -43.848480035423748 $322 43.848480035423748 $210 $466 forward 7 unknown #
edge $-1 $214 -43.848480035423748 $321 43.848480035423748 $211 $467 forward 7 unknown #
point $-1 50 -15.000000000000203 43.848480035423748 #
point $-1 50 15.000000000000203 43.848480035423748 #
vertex $-1 $217 $468 #
ellipse-curve $-1 0 0 7.5000000000000151 0 0 1 5 0 0 1 I I #
point $-1 5 0 -7.5000000000000151 #
vertex $-1 $221 $469 #
ellipse-curve $-1 0 0 7.500000000000024 0 0 1 7.5 0 0 1 I I #
point $-1 7.5 0 -7.500000000000024 #
face $-1 $-1 $237 $37 $-1 $470 reversed single #
loop $-1 $-1 $471 $224 #
plane-surface $-1 15 0 0 -1 0 0 0 0 1 forward_v I I I I #
coedge $-1 $358 $357 $348 $472 reversed $225 $-1 #
coedge $-1 $473 $227 $229 $352 reversed $148 $-1 #
coedge $-1 $227 $473 $346 $472 forward $148 $-1 #
coedge $-1 $236 $230 $227 $350 reversed $237 $-1 #
edge $-1 $474 -62.598202799825032 $353 -29.901242728977635 $349 $475 forward 7 unknown #
coedge $-1 $229 $228 $476 $477 forward $100 $-1 #
edge $-1 $478 -15 $353 15 $347 $479 forward 7 unknown #
vertex $-1 $231 $480 #
straight-curve $-1 -15 -3.1086244689504383e-015 -103.65096549337902 0 -1 0 I I #
coedge $-1 $481 $476 $232 $356 reversed $344 $-1 #
edge $-1 $360 -62.598202799824946 $362 -29.901242728977735 $355 $482 forward 7 unknown #
coedge $-1 $346 $233 $236 $364 forward $225 $-1 #
coedge $-1 $233 $346 $481 $483 forward $225 $-1 #
convexity-sys-attrib $-1 $-1 $-1 $234 #
vertex $-1 $234 $484 #
straight-curve $-1 0 -15.00000000000021 -136.34792556422636 1 0 0 I I #
vertex $-1 $356 $485 #
straight-curve $-1 0 -15.00000000000021 -103.65096549337902 1 0 0 I I #
edge $486 $239 -14.999999999999996 $474 15.000000000000004 $236 $487 forward 7 unknown #
point $-1 -15 -15.00000000000011 -103.65096549337912 #
point $-1 -15 -14.999999999999996 -136.34792556422633 #
face $-1 $-1 $488 $39 $-1 $489 forward single #
plane-surface $-1 -47.696960070847297 1.4210854715202004e-014 27.500000000000128 1 0 0 0 0 -1 forward_v I I I I #
coedge $-1 $251 $490 $253 $385 forward $242 $-1 #
coedge $-1 $491 $244 $490 $492 reversed $156 $-1 #
coedge $-1 $244 $491 $245 $375 forward $156 $-1 #
coedge $-1 $247 $253 $244 $373 reversed $254 $-1 #
edge $-1 $376 -32.022720053135572 $493 0.67424001771172648 $244 $494 forward 7 unknown #
coedge $-1 $246 $245 $495 $496 reversed $104 $-1 #
edge $-1 $497 0 $376 17.696960070847297 $371 $498 forward 7 unknown #
vertex $-1 $375 $499 #
straight-curve $-1 -47.696960070847297 -1.6431300764452317e-014 43.848480035423748 0 -1 0 I I #
coedge $-1 $495 $500 $249 $379 forward $488 $-1 #
edge $501 $383 -0.6742400177118224 $380 32.022720053135572 $249 $502 forward 7 unknown #
vertex $-1 $379 $503 #
straight-curve $-1 -30 15.000000000000203 43.848480035423748 -1 0 0 I I #
coedge $-1 $490 $251 $500 $504 reversed $242 $-1 #
vertex $-1 $504 $505 #
straight-curve $-1 -30 15.000000000000011 11.151519964576353 -1 0 0 I I #
edge $-1 $493 -15.000000000000005 $255 14.999999999999995 $369 $506 forward 7 unknown #
point $-1 -47.696960070847297 15.000000000000011 11.151519964576353 #
point $-1 -47.696960070847297 15.000000000000203 43.848480035423748 #
face $-1 $-1 $507 $41 $-1 $508 reversed single #
plane-surface $-1 47.696960070847297 1.3766765505351941e-014 27.500000000000128 1 0 0 0 0 -1 forward_v I I I I #
coedge $-1 $268 $509 $270 $406 forward $259 $-1 #
coedge $-1 $510 $261 $509 $511 reversed $164 $-1 #
coedge $-1 $261 $510 $262 $396 forward $164 $-1 #
coedge $-1 $264 $270 $261 $394 reversed $271 $-1 #
edge $-1 $397 -32.022720053135572 $512 0.6742400177118224 $261 $513 forward 7 unknown #
coedge $-1 $263 $262 $514 $515 reversed $108 $-1 #
edge $-1 $516 0 $397 17.696960070847297 $392 $517 forward 7 unknown #
vertex $-1 $396 $518 #
straight-curve $-1 47.696960070847297 -1.6431300764452317e-014 43.848480035423748 0 1 0 I I #
coedge $-1 $514 $519 $266 $400 forward $507 $-1 #
edge $520 $404 -0.67424001771172648 $401 32.022720053135572 $266 $521 forward 7 unknown #
vertex $-1 $400 $522 #
straight-curve $-1 30 -15.000000000000203 43.848480035423748 1 0 0 I I #
coedge $-1 $509 $268 $519 $523 reversed $259 $-1 #
vertex $-1 $523 $524 #
straight-curve $-1 30 -14.999999999999989 11.151519964576449 1 0 0 I I #
edge $-1 $512 -14.999999999999995 $272 15.000000000000005 $390 $525 forward 7 unknown #
point $-1 47.696960070847297 -14.999999999999989 11.151519964576449 #
point $-1 47.696960070847297 -15.000000000000203 43.848480035423748 #
model_id-kcp-attrib $-1 $-1 $-1 $276 1 990548906 60 1681653761 8 #
face $526 $527 $528 $11 $-1 $529 forward single #
loop $-1 $-1 $422 $276 #
plane-surface $-1 -45 15 -5.2372220082647e-014 0 1 -3.4914813388431298e-015 1 0 0 forward_v I I I I #
model_id-kcp-attrib $-1 $-1 $-1 $277 1 990548906 60 1681653761 24 #
loop $530 $-1 $531 $172 #
coedge $-1 $415 $415 $532 $533 reversed $277 $-1 #
model_id-kcp-attrib $-1 $-1 $-1 $280 1 990548906 60 1681653761 19 #
coedge $-1 $417 $417 $534 $535 reversed $280 $-1 #
coedge $-1 $418 $418 $281 $419 forward $450 $-1 #
edge $536 $537 -3.1415926535897998 $537 3.1415926535897865 $418 $538 forward 7 unknown #
coedge $-1 $539 $283 $540 $541 forward $77 $-1 #
coedge $-1 $284 $542 $543 $544 forward $77 $-1 #
coedge $-1 $429 $428 $284 $423 reversed $411 $-1 #
edge $-1 $545 7.5 $424 25.196960070847297 $284 $546 forward 7 unknown #
vertex $-1 $423 $547 #
coedge $-1 $548 $286 $549 $550 forward $54 $-1 #
coedge $-1 $551 $552 $286 $427 reversed $553 $-1 #
edge $554 $431 -5.0000000000000995 $555 20 $286 $556 forward 7 unknown #
coedge $-1 $422 $287 $289 $433 reversed $411 $-1 #
coedge $-1 $287 $422 $551 $557 reversed $411 $-1 #
attrib_edge_convexity-kcp-attrib $-1 $558 $-1 $288 1 #
vertex $-1 $288 $559 #
straight-curve $-1 -22.5 14.999999999999901 -15 1 0 0 I I #
edge $-1 $424 -15 $291 15 $289 $560 forward 7 unknown #
convexity-sys-attrib $-1 $-1 $290 $180 #
point $-1 -47.696960070847297 14.999999999999901 -15 #
coedge $-1 $293 $561 $562 $563 forward $54 $-1 #
coedge $-1 $564 $444 $293 $438 reversed $565 $-1 #
edge $566 $567 7.5 $440 25.196960070847297 $293 $568 forward 7 unknown #
attrib_edge_convexity-kcp-attrib $-1 $569 $-1 $294 1 #
vertex $-1 $438 $570 #
convexity-sys-attrib $-1 $-1 $295 $182 #
point $-1 50 0 -15 #
convexity-sys-attrib $-1 $-1 $299 $186 #
coedge $-1 $437 $540 $303 $445 reversed $565 $-1 #
edge $-1 $440 -15 $446 15 $303 $571 forward 7 unknown #
vertex $-1 $304 $572 #
point $-1 50 0 15 #
model_id-kcp-attrib $-1 $-1 $-1 $308 1 990548906 60 1681653761 12 #
face $573 $574 $565 $11 $-1 $575 forward single #
loop $576 $577 $418 $308 #
plane-surface $-1 30 40 -1.3965925355372501e-013 1 0 0 0 -1 3.4914813388431298e-015 forward_v I I I I #
plane-surface $-1 50 0 0 -1 0 0 0 0 1 forward_v I I I I #
coedge $-1 $315 $313 $317 $457 reversed $198 $-1 #
edge $-1 $328 -43.848480035423748 $459 43.848480035423748 $327 $578 forward 7 unknown #
vertex $-1 $457 $579 #
straight-curve $-1 -50 -15.000000000000203 0 0 0 -1 I I #
edge $-1 $455 -15.000000000000203 $459 15.000000000000203 $453 $580 forward 7 unknown #
straight-curve $-1 0 -15.000000000000203 -43.848480035423748 -1 0 0 I I #
vertex $-1 $320 $581 #
straight-curve $-1 0 15.000000000000203 -43.848480035423748 1 0 0 I I #
point $-1 50 15.000000000000203 -43.848480035423748 #
point $-1 50 -15.000000000000203 -43.848480035423748 #
straight-curve $-1 -50 0 43.848480035423748 0 -1 0 I I #
point $-1 -50 15.000000000000203 43.848480035423748 #
point $-1 -50 -15.000000000000203 43.848480035423748 #
straight-curve $-1 50 -15.000000000000203 0 0 0 -1 I I #
straight-curve $-1 50 15.000000000000203 0 0 0 -1 I I #
point $-1 5 0 7.5000000000000151 #
point $-1 7.5 0 7.500000000000024 #
plane-surface $-1 -15 0 0 1 0 0 0 0 -1 forward_v I I I I #
coedge $-1 $476 $481 $473 $582 reversed $344 $-1 #
edge $583 $584 -15 $474 15 $346 $585 forward 7 unknown #
coedge $-1 $348 $347 $471 $582 forward $148 $-1 #
vertex $-1 $472 $586 #
straight-curve $-1 -15 15.000000000000195 -73.749722764401383 0 0 1 I I #
coedge $-1 $355 $471 $351 $477 reversed $344 $-1 #
edge $-1 $362 -15.000000000000107 $478 14.999999999999893 $476 $587 forward 7 unknown #
vertex $-1 $477 $588 #
straight-curve $-1 0 15.000000000000195 -103.65096549337902 -1 0 0 I I #
point $-1 -15 14.99999999999989 -103.65096549337902 #
coedge $-1 $471 $355 $358 $483 reversed $344 $-1 #
straight-curve $-1 15 -15.00000000000021 -73.749722764401383 0 0 1 I I #
edge $589 $584 -15.000000000000004 $360 14.999999999999996 $481 $590 forward 7 unknown #
point $-1 15 -14.999999999999996 -136.34792556422633 #
point $-1 15 -15.00000000000011 -103.65096549337912 #
convexity-sys-attrib $-1 $-1 $-1 $364 #
straight-curve $-1 -15 0 -136.34792556422636 0 1 0 I I #
loop $-1 $-1 $500 $367 #
plane-surface $-1 -30 1.4210854715202004e-014 27.500000000000128 1 0 0 0 0 -1 forward_v I I I I #
coedge $-1 $369 $382 $370 $492 forward $242 $-1 #
coedge $-1 $371 $370 $591 $592 reversed $156 $-1 #
edge $-1 $593 0 $493 17.696960070847297 $490 $594 forward 7 unknown #
vertex $-1 $492 $595 #
straight-curve $-1 -47.696960070847297 -15.000000000000203 11.825759982288176 0 0 -1 I I #
coedge $-1 $591 $378 $374 $496 forward $488 $-1 #
edge $596 $380 -15.000000000000218 $497 15.000000000000187 $374 $597 forward 7 unknown #
vertex $-1 $496 $598 #
straight-curve $-1 -30 -15.000000000000203 43.848480035423748 -1 0 0 I I #
point $-1 -47.696960070847297 -15.000000000000203 43.848480035423748 #
coedge $-1 $378 $591 $382 $504 forward $488 $-1 #
convexity-sys-attrib $-1 $-1 $-1 $379 #
straight-curve $-1 -30 15.000000000000203 11.825759982288176 0 0 1 I I #
point $-1 -30 15.000000000000203 43.848480035423748 #
edge $599 $593 -15.000000000000005 $383 14.999999999999995 $382 $600 forward 7 unknown #
point $-1 -30 15.000000000000011 11.151519964576353 #
straight-curve $-1 -47.696960070847297 1.5099033134902154e-014 11.151519964576401 0 1 0 I I #
loop $-1 $-1 $519 $388 #
plane-surface $-1 30 1.3766765505351941e-014 27.500000000000128 1 0 0 0 0 -1 forward_v I I I I #
coedge $-1 $390 $403 $391 $511 forward $259 $-1 #
coedge $-1 $392 $391 $601 $602 reversed $164 $-1 #
edge $-1 $603 0 $512 17.696960070847297 $509 $604 forward 7 unknown #
vertex $-1 $511 $605 #
straight-curve $-1 47.696960070847297 15.000000000000203 11.825759982288176 0 0 -1 I I #
coedge $-1 $601 $399 $395 $515 forward $507 $-1 #
edge $606 $401 -15.000000000000187 $516 15.000000000000218 $395 $607 forward 7 unknown #
vertex $-1 $515 $608 #
straight-curve $-1 30 15.000000000000203 43.848480035423748 1 0 0 I I #
point $-1 47.696960070847297 15.000000000000203 43.848480035423748 #
coedge $-1 $399 $601 $403 $523 forward $507 $-1 #
convexity-sys-attrib $-1 $-1 $-1 $400 #
straight-curve $-1 30 -15.000000000000203 11.825759982288176 0 0 1 I I #
point $-1 30 -15.000000000000203 43.848480035423748 #
edge $609 $603 -14.999999999999995 $404 15.000000000000005 $403 $610 forward 7 unknown #
point $-1 30 -14.999999999999989 11.151519964576449 #
straight-curve $-1 47.696960070847297 1.5099033134902154e-014 11.151519964576401 0 -1 0 I I #
model_id-kcp-attrib $-1 $-1 $-1 $410 1 990548906 60 1681653761 9 #
face $611 $193 $612 $11 $-1 $114 forward single #
loop $613 $553 $532 $410 #
plane-surface $-1 -30 40 -1.3965925355372501e-013 -1 0 0 0 1 -3.4914813388431298e-015 forward_v I I I I #
model_id-kcp-attrib $-1 $-1 $-1 $414 1 990548906 60 1681653761 25 #
coedge $-1 $531 $531 $614 $615 reversed $414 $-1 #
coedge $-1 $532 $532 $415 $533 forward $528 $-1 #
edge $616 $617 -3.1415926535897998 $617 3.1415926535897865 $532 $618 forward 7 unknown #
coedge $-1 $534 $534 $417 $535 forward $619 $-1 #
edge $620 $621 -3.1415926535897998 $621 3.1415926535897865 $534 $622 forward 7 unknown #
attrib_edge_convexity-kcp-attrib $-1 $623 $-1 $419 1 #
vertex $624 $419 $625 #
ellipse-curve $-1 30 30 -1.04744440165294e-013 -1 0 0 -1.7457406694215701e-014 -5 1.7457406694215701e-014 1 I I #
coedge $-1 $626 $420 $627 $628 forward $77 $-1 #
coedge $-1 $444 $564 $420 $541 reversed $565 $-1 #
edge $-1 $446 -25.196960070847297 $629 -7.5 $420 $630 forward 7 unknown #
coedge $-1 $421 $631 $632 $633 forward $77 $-1 #
coedge $-1 $552 $551 $421 $544 reversed $553 $-1 #
edge $-1 $634 -20 $545 4.9999999999999005 $421 $635 forward 7 unknown #
vertex $-1 $423 $636 #
straight-curve $-1 -22.5 15.000000000000099 15 -1 0 0 I I #
point $-1 -47.696960070847297 15.000000000000099 15 #
coedge $-1 $637 $425 $638 $639 forward $54 $-1 #
coedge $-1 $640 $641 $425 $550 reversed $612 $-1 #
edge $642 $555 -2.2142974355881808 $643 -1.8754889808102941 $425 $292 forward 7 unknown #
coedge $-1 $543 $426 $429 $557 forward $553 $-1 #
coedge $-1 $426 $543 $640 $644 reversed $553 $-1 #
loop $-1 $-1 $543 $410 #
attrib_edge_convexity-kcp-attrib $-1 $645 $-1 $427 1 #
vertex $-1 $644 $646 #
straight-curve $-1 -30 20 -15 0 1 0 I I #
edge $-1 $431 -14.999999999999948 $545 15.000000000000052 $551 $647 forward 7 unknown #
convexity-sys-attrib $-1 $-1 $430 $288 #
point $-1 -30 14.999999999999901 -15 #
straight-curve $-1 -47.696960070847297 15 0 0 0 -1 I I #
coedge $-1 $436 $648 $649 $650 forward $54 $-1 #
coedge $-1 $651 $652 $436 $563 reversed $577 $-1 #
edge $653 $654 -20 $567 5.0000000000000995 $436 $655 forward 7 unknown #
coedge $-1 $540 $437 $652 $656 reversed $565 $-1 #
loop $-1 $-1 $540 $449 #
attrib_edge_convexity-kcp-attrib $-1 $657 $-1 $438 1 #
vertex $-1 $438 $658 #
straight-curve $-1 22.5 14.999999999999901 -15 1 0 0 I I #
convexity-sys-attrib $-1 $-1 $439 $294 #
point $-1 47.696960070847297 14.999999999999901 -15 #
straight-curve $-1 47.696960070847297 15 0 0 0 1 I I #
point $-1 47.696960070847297 15.000000000000099 15 #
model_id-kcp-attrib $-1 $-1 $-1 $449 1 990548906 60 1681653761 13 #
face $659 $660 $661 $11 $-1 $114 forward single #
plane-surface $-1 45 15 -5.2372220082647e-014 0 1 -3.4914813388431298e-015 1 0 0 forward_v I I I I #
model_id-kcp-attrib $-1 $-1 $-1 $450 1 990548906 60 1681653761 20 #
loop $-1 $-1 $627 $308 #
straight-curve $-1 -50 15.000000000000203 0 0 0 -1 I I #
point $-1 -50 -15.000000000000203 -43.848480035423748 #
straight-curve $-1 -50 0 -43.848480035423748 0 1 0 I I #
point $-1 -50 15.000000000000203 -43.848480035423748 #
edge $-1 $478 29.901242728977635 $584 62.598202799825032 $471 $662 forward 7 unknown #
convexity-sys-attrib $-1 $-1 $-1 $472 #
vertex $-1 $483 $663 #
straight-curve $-1 0 15.000000000000195 -136.34792556422636 -1 0 0 I I #
point $-1 -15 15.000000000000004 -136.34792556422641 #
straight-curve $-1 15 -3.1086244689504383e-015 -103.65096549337902 0 1 0 I I #
point $-1 15 14.99999999999989 -103.65096549337902 #
convexity-sys-attrib $-1 $-1 $-1 $483 #
straight-curve $-1 15 0 -136.34792556422636 0 -1 0 I I #
coedge $-1 $500 $495 $491 $592 forward $488 $-1 #
edge $664 $497 -32.022720053135572 $593 0.67424001771172648 $491 $665 forward 7 unknown #
vertex $-1 $504 $666 #
straight-curve $-1 -30 -14.999999999999989 11.151519964576449 -1 0 0 I I #
point $-1 -47.696960070847297 -14.999999999999989 11.151519964576449 #
convexity-sys-attrib $-1 $-1 $-1 $496 #
straight-curve $-1 -30 -1.6431300764452317e-014 43.848480035423748 0 -1 0 I I #
point $-1 -30 -15.000000000000203 43.848480035423748 #
convexity-sys-attrib $-1 $-1 $-1 $504 #
straight-curve $-1 -30 1.5099033134902154e-014 11.151519964576401 0 1 0 I I #
coedge $-1 $519 $514 $510 $602 forward $507 $-1 #
edge $667 $516 -32.022720053135572 $603 0.6742400177118224 $510 $668 forward 7 unknown #
vertex $-1 $523 $669 #
straight-curve $-1 30 15.000000000000011 11.151519964576353 1 0 0 I I #
point $-1 47.696960070847297 15.000000000000011 11.151519964576353 #
convexity-sys-attrib $-1 $-1 $-1 $515 #
straight-curve $-1 30 -1.6431300764452317e-014 43.848480035423748 0 1 0 I I #
point $-1 30 15.000000000000203 43.848480035423748 #
convexity-sys-attrib $-1 $-1 $-1 $523 #
straight-curve $-1 30 1.5099033134902154e-014 11.151519964576401 0 -1 0 I I #
model_id-kcp-attrib $-1 $-1 $-1 $527 1 990548906 60 1681653761 10 #
loop $-1 $-1 $640 $527 #
model_id-kcp-attrib $-1 $-1 $-1 $528 1 990548906 60 1681653761 26 #
coedge $-1 $614 $614 $531 $615 forward $670 $-1 #
edge $671 $672 -3.1415926535897998 $672 3.1415926535897865 $614 $673 forward 7 unknown #
attrib_edge_convexity-kcp-attrib $-1 $674 $-1 $533 1 #
vertex $-1 $533 $675 #
ellipse-curve $-1 -30 30 -1.04744440165294e-013 1 0 0 -2.61861100413235e-014 -7.5 2.61861100413235e-014 1 I I #
loop $676 $677 $534 $678 #
attrib_edge_convexity-kcp-attrib $-1 $679 $-1 $535 1 #
vertex $680 $535 $681 #
ellipse-curve $-1 15 30 -1.04744440165294e-013 1 0 0 -1.7457406694215701e-014 -5 1.7457406694215701e-014 1 I I #
convexity-sys-attrib $-1 $-1 $536 $419 #
model_id-kcp-attrib $-1 $-1 $-1 $537 1 990548906 60 1681653761 22 #
point $-1 30 35 -8.7287033471078296e-014 #
coedge $-1 $682 $539 $683 $684 forward $77 $-1 #
coedge $-1 $652 $651 $539 $628 reversed $577 $-1 #
edge $-1 $629 -4.9999999999999005 $685 20 $539 $686 forward 7 unknown #
vertex $-1 $541 $687 #
straight-curve $-1 22.5 15.000000000000099 15 -1 0 0 I I #
coedge $-1 $542 $688 $689 $690 forward $77 $-1 #
coedge $-1 $641 $640 $542 $633 reversed $612 $-1 #
edge $-1 $691 1.8754889808102941 $634 2.2142974355881808 $542 $306 forward 7 unknown #
vertex $-1 $633 $692 #
straight-curve $-1 -30 20 15 0 -1 0 I I #
point $-1 -30 15.000000000000099 15 #
coedge $-1 $648 $548 $693 $694 forward $54 $-1 #
coedge $-1 $695 $696 $548 $639 reversed $697 $-1 #
edge $698 $643 -27.696960070847297 $699 5.0000000000000995 $548 $700 forward 7 unknown #
coedge $-1 $632 $549 $552 $644 forward $612 $-1 #
coedge $-1 $549 $632 $695 $701 forward $612 $-1 #
attrib_edge_convexity-kcp-attrib $-1 $702 $-1 $550 1 #
vertex $-1 $550 $703 #
edge $-1 $555 -15 $634 15 $640 $704 forward 7 unknown #
convexity-sys-attrib $-1 $-1 $554 $427 #
point $-1 -30 40 -15 #
straight-curve $-1 -30 15 -5.2372220082647e-014 0 3.4914813388431298e-015 1 I I #
coedge $-1 $561 $637 $705 $706 forward $54 $-1 #
coedge $-1 $707 $708 $561 $650 reversed $661 $-1 #
edge $709 $710 -1.2661036727794992 $654 -0.92729521800161219 $561 $292 forward 7 unknown #
coedge $-1 $627 $562 $708 $711 reversed $577 $-1 #
coedge $-1 $562 $627 $564 $656 forward $577 $-1 #
attrib_edge_convexity-kcp-attrib $-1 $712 $-1 $563 1 #
vertex $-1 $650 $713 #
straight-curve $-1 30 20 -15 0 -1 0 I I #
edge $-1 $629 -15.000000000000052 $567 14.999999999999948 $652 $714 forward 7 unknown #
convexity-sys-attrib $-1 $-1 $566 $438 #
point $-1 30 14.999999999999901 -15 #
model_id-kcp-attrib $-1 $-1 $-1 $574 1 990548906 60 1681653761 14 #
face $715 $716 $670 $11 $-1 $717 forward single #
loop $-1 $-1 $708 $574 #
straight-curve $-1 15 15.000000000000195 -73.749722764401383 0 0 -1 I I #
point $-1 15 15.000000000000004 -136.34792556422641 #
convexity-sys-attrib $-1 $-1 $-1 $592 #
straight-curve $-1 -30 -15.000000000000203 11.825759982288176 0 0 -1 I I #
point $-1 -30 -14.999999999999989 11.151519964576449 #
convexity-sys-attrib $-1 $-1 $-1 $602 #
straight-curve $-1 30 15.000000000000203 11.825759982288176 0 0 -1 I I #
point $-1 30 15.000000000000011 11.151519964576353 #
loop $718 $697 $614 $660 #
attrib_edge_convexity-kcp-attrib $-1 $719 $-1 $615 1 #
vertex $-1 $615 $720 #
ellipse-curve $-1 -15 30 -1.04744440165294e-013 -1 0 0 -2.61861100413235e-014 -7.5 2.61861100413235e-014 1 I I #
convexity-sys-attrib $-1 $-1 $616 $533 #
point $-1 -30 37.5 -1.83302770289265e-013 #
model_id-kcp-attrib $-1 $-1 $-1 $619 1 990548906 60 1681653761 21 #
loop $-1 $-1 $721 $678 #
face $722 $-1 $619 $11 $-1 $723 forward single #
convexity-sys-attrib $-1 $-1 $620 $535 #
model_id-kcp-attrib $-1 $-1 $-1 $621 1 990548906 60 1681653761 23 #
point $-1 15 35 -1.5711666024794099e-013 #
coedge $-1 $688 $626 $721 $724 forward $77 $-1 #
coedge $-1 $708 $707 $626 $684 reversed $661 $-1 #
edge $-1 $685 0.92729521800161219 $725 1.2661036727794992 $626 $306 forward 7 unknown #
vertex $-1 $711 $726 #
straight-curve $-1 30 20 15 0 1 0 I I #
point $-1 30 15.000000000000099 15 #
coedge $-1 $631 $682 $727 $728 forward $77 $-1 #
coedge $-1 $696 $695 $631 $690 reversed $697 $-1 #
edge $-1 $729 -4.9999999999999005 $691 27.696960070847297 $631 $730 forward 7 unknown #
vertex $-1 $690 $731 #
point $-1 -30 40 15 #
coedge $-1 $732 $733 $637 $694 reversed $734 $-1 #
edge $735 $699 -15 $736 15 $637 $737 forward 7 unknown #
coedge $-1 $689 $638 $641 $701 reversed $697 $-1 #
coedge $-1 $638 $689 $732 $738 forward $697 $-1 #
loop $-1 $-1 $689 $660 #
attrib_edge_convexity-kcp-attrib $-1 $739 $-1 $639 1 #
vertex $-1 $694 $740 #
straight-curve $-1 -15 20 -15 0 -1 0 I I #
edge $-1 $691 -15 $643 15 $641 $741 forward 7 unknown #
convexity-sys-attrib $-1 $-1 $642 $550 #
point $-1 -15 47.696960070847297 -15 #
straight-curve $-1 -30 40 0 0 0 1 I I #
coedge $-1 $742 $743 $648 $706 reversed $677 $-1 #
edge $744 $736 -5.0000000000000995 $710 27.696960070847297 $648 $745 forward 7 unknown #
coedge $-1 $683 $649 $743 $746 forward $661 $-1 #
coedge $-1 $649 $683 $651 $711 forward $661 $-1 #
attrib_edge_convexity-kcp-attrib $-1 $747 $-1 $650 1 #
vertex $-1 $746 $748 #
edge $-1 $685 -15 $654 15 $708 $749 forward 7 unknown #
convexity-sys-attrib $-1 $-1 $653 $563 #
point $-1 30 40 -15 #
straight-curve $-1 30 15 -5.2372220082647e-014 0 -3.4914813388431298e-015 -1 I I #
model_id-kcp-attrib $-1 $-1 $-1 $660 1 990548906 60 1681653761 15 #
face $750 $678 $734 $11 $-1 $751 forward single #
plane-surface $-1 -15 40 -1.3965925355372501e-013 1 0 0 0 -1 3.4914813388431298e-015 forward_v I I I I #
model_id-kcp-attrib $-1 $-1 $-1 $670 1 990548906 60 1681653761 27 #
convexity-sys-attrib $-1 $-1 $671 $615 #
point $-1 -15 37.5 -7.8558330123970406e-014 #
coedge $-1 $743 $742 $682 $724 reversed $677 $-1 #
model_id-kcp-attrib $-1 $-1 $-1 $678 1 990548906 60 1681653761 17 #
plane-surface $-1 15 40 -1.3965925355372501e-013 -1 0 0 0 1 -3.4914813388431298e-015 forward_v I I I I #
edge $-1 $725 -27.696960070847297 $752 4.9999999999999005 $682 $753 forward 7 unknown #
vertex $-1 $684 $754 #
point $-1 30 40 15 #
coedge $-1 $733 $732 $688 $728 reversed $734 $-1 #
edge $-1 $752 -15 $729 15 $688 $755 forward 7 unknown #
vertex $-1 $728 $756 #
straight-curve $-1 -15 20 15 0 1 0 I I #
point $-1 -15 47.696960070847297 15 #
coedge $-1 $727 $693 $696 $738 reversed $734 $-1 #
coedge $-1 $693 $727 $742 $757 reversed $734 $-1 #
loop $-1 $-1 $727 $716 #
attrib_edge_convexity-kcp-attrib $-1 $758 $-1 $694 1 #
vertex $-1 $694 $759 #
straight-curve $-1 0 14.999999999999901 -15 1 0 0 I I #
edge $-1 $729 -15.000000000000052 $699 14.999999999999948 $696 $760 forward 7 unknown #
convexity-sys-attrib $-1 $-1 $698 $639 #
point $-1 -15 14.999999999999901 -15 #
straight-curve $-1 -15 47.696960070847297 0 0 0 -1 I I #
coedge $-1 $721 $705 $733 $757 forward $677 $-1 #
coedge $-1 $705 $721 $707 $746 reversed $677 $-1 #
attrib_edge_convexity-kcp-attrib $-1 $761 $-1 $706 1 #
straight-curve $-1 15 20 -15 0 1 0 I I #
edge $-1 $710 -15 $725 15 $707 $762 forward 7 unknown #
convexity-sys-attrib $-1 $-1 $709 $650 #
point $-1 15 47.696960070847297 -15 #
straight-curve $-1 30 40 0 0 0 -1 I I #
model_id-kcp-attrib $-1 $-1 $-1 $716 1 990548906 60 1681653761 16 #
plane-surface $-1 0 15 -5.2372220082647e-014 0 1 -3.4914813388431298e-015 1 0 0 forward_v I I I I #
vertex $-1 $728 $763 #
straight-curve $-1 15 20 15 0 -1 0 I I #
point $-1 15 47.696960070847297 15 #
straight-curve $-1 0 15.000000000000099 15 -1 0 0 I I #
point $-1 -15 15.000000000000099 15 #
edge $-1 $736 -14.999999999999948 $752 15.000000000000052 $742 $764 forward 7 unknown #
convexity-sys-attrib $-1 $-1 $735 $694 #
point $-1 15 14.999999999999901 -15 #
straight-curve $-1 -15 15 -5.2372220082647e-014 0 -3.4914813388431298e-015 -1 I I #
convexity-sys-attrib $-1 $-1 $744 $706 #
straight-curve $-1 15 47.696960070847297 0 0 0 1 I I #
point $-1 15 15.000000000000099 15 #
straight-curve $-1 15 15 -5.2372220082647e-014 0 3.4914813388431298e-015 1 I I #
End-of-ACIS-data 