**ABCDEFGHIJKLMNOPQRSTUVWXYZabcdefghijklmnopqrstuvwxyz**************************
**PARASOLID !"#$%&'()*+,-./:;<=>?@[\]^_`{|}~0123456789**************************
**PART1;MC=sun;MC_MODEL=sun3;MC_ID=cosmos;OS=SunOS;OS_RELEASE=4.1;FRU=sdl_paraso
lid_test_sun;APPL=unknown;SITE=sdl-cambridge-u.k.;USER=kramer;FORMAT=text;GUISE=
transmit;KEY=cone_simple;FILE=cone_simple.xmt_txt;DATE=2-dec-1991;
**PART2;SCH=SCH_301017_3000;USFLD_SIZE=0;
**PART3;
**END_OF_HEADER*****************************************************************
T50 : TRANSMIT FILE created by modeller version 30101715 SCH_301017_30000 12 1 1
5 0 0 0 0 0 1e3 1e-8 2 2 0 0 0 1 3 102 11 2 cone_simple13 3 2 0 1 0 4 5 0 6 7 0
 14 4 12 0 8 0 9 3 10 +16 5 9 0 11 0 12 7 52 6 15 0 13 10 0 0 +0 0 2 0 0 -1 3 .4
47213595499958 .894427190999916 -1 0 0 31 7 13 0 5 14 0 0 +0 0 0 0 0 1 1 0 0 4 3
1 14 7 0 12 0 7 0 +0 0 2 0 0 -1 -1 0 0 3 16 12 3 0 15 5 0 14 17 15 16 15 15 0 17
 12 15 16 4 0 15 13 0 17 17 18 17 17 0 15 12 15 18 5 0 17 8 0 14 8 6 0 13 4 18 3
 19 +14 13 1 0 0 8 20 3 6 +50 19 8 0 8 0 10 0 +0 0 2 0 0 1 1 0 0 50 10 14 0 4 19
 6 0 +0 0 0 0 0 -1 -1 0 0 15 20 10 0 11 13 16 17 11 20 11 11 0 21 5 17 21 9 21 2
1 0 11 5 15 9 11 0 21 4 0 1 0 
