700 0 2 0           
24 FBMach with ACIS - 7.0.3 13 ACIS 7.0.3 NT 24 Tue May 14 15:34:21 2002 
1 9.9999999999999995e-007 1e-010 
body $2 -1 $-1 $3 $-1 $4 #
bdycol-kcp $-1 -1 1 2 $5 $6 #
model_id-kcp-attrib $-1 -1 $-1 $-1 $0 1 1021404860 1021404861 -701169663 1 #
lump $-1 -1 $-1 $-1 $7 $0 #
transform $-1 -1 1 0 0 0 1 0 0 0 1 0 0 0 1 rotate no_reflect no_shear #
body $8 -1 $-1 $9 $-1 $10 #
body $11 -1 $-1 $12 $-1 $13 #
shell $-1 -1 $-1 $-1 $-1 $14 $-1 $3 #
model_id-kcp-attrib $-1 -1 $-1 $-1 $5 1 1021404860 1021404861 -700514302 1 #
lump $-1 -1 $-1 $-1 $15 $5 #
transform $-1 -1 1 0 0 0 1 0 0 0 1 0 -57.785000000000004 0 1 no_rotate no_reflect no_shear #
rgb_color-st-attrib $-1 -1 $16 $-1 $6 0.5 1 1 #
lump $-1 -1 $-1 $-1 $17 $6 #
transform $-1 -1 1 0 0 0 1 0 0 0 1 0 -57.785000000000004 0 1 no_rotate no_reflect no_shear #
face $18 -1 $-1 $19 $20 $7 $-1 $21 forward single #
shell $-1 -1 $-1 $-1 $-1 $22 $-1 $9 #
model_id-kcp-attrib $-1 -1 $-1 $11 $6 1 1021404860 1021404861 -691339261 1 #
shell $-1 -1 $-1 $-1 $-1 $23 $-1 $12 #
model_id-kcp-attrib $-1 -1 $-1 $-1 $14 1 1021404860 1021404861 -701169663 2 #
face $24 -1 $-1 $25 $26 $7 $-1 $27 forward single #
loop $-1 -1 $-1 $-1 $28 $14 #
plane-surface $-1 -1 $-1 0 -124.45999999999998 0 0 -1 0 -25.399999999999999 0 0 forward_v I I I I #
face $-1 -1 $-1 $29 $30 $15 $-1 $31 forward single #
face $-1 -1 $-1 $32 $33 $17 $-1 $34 reversed single #
model_id-kcp-attrib $-1 -1 $-1 $-1 $19 1 1021404860 1021404861 -701169663 3 #
face $35 -1 $-1 $36 $37 $7 $-1 $38 forward single #
loop $-1 -1 $-1 $-1 $39 $19 #
torus-surface $-1 -1 $-1 0 -115.31599999999999 0 0 -1 0 26.669999999999995 9.1439999999999984 -1 0 0 forward_v I I I I #
coedge $-1 -1 $-1 $40 $40 $41 $42 forward $20 $-1 #
face $-1 -1 $-1 $43 $44 $15 $-1 $45 reversed single #
loop $-1 -1 $-1 $-1 $46 $22 #
plane-surface $-1 -1 $-1 0 0 149.85999999999999 0 0 1 1 0 0 forward_v I I I I #
face $-1 -1 $-1 $47 $48 $17 $-1 $34 reversed single #
loop $-1 -1 $-1 $-1 $49 $23 #
cone-surface $-1 -1 $-1 -1.6855436682919917e-030 -66.674999999999983 0 0 -1 0 149.85999999999999 0 1.8351950818382139e-014 1 I I 0 1 149.85999999999999 forward I I I I #
model_id-kcp-attrib $-1 -1 $-1 $-1 $25 1 1021404860 1021404861 -701169663 4 #
face $50 -1 $-1 $51 $52 $7 $-1 $53 reversed single #
loop $-1 -1 $-1 $-1 $54 $25 #
cone-surface $-1 -1 $-1 0 15.557499999999997 0 0 -1 0 -35.813999999999993 0 0 1 I I 0 1 35.813999999999993 forward I I I I #
coedge $-1 -1 $-1 $55 $56 $57 $58 forward $26 $-1 #
coedge $-1 -1 $-1 $28 $28 $59 $60 reversed $20 $-1 #
coedge $-1 -1 $-1 $56 $55 $28 $42 reversed $26 $-1 #
edge $61 -1 $-1 $62 0 $63 3.1415926535897927 $28 $64 forward @7 unknown #
face $65 -1 $-1 $66 $67 $15 $-1 $68 reversed single #
loop $-1 -1 $-1 $-1 $69 $29 #
plane-surface $-1 -1 $-1 0 0 -149.85999999999999 0 0 1 1 0 0 forward_v I I I I #
coedge $-1 -1 $-1 $70 $71 $72 $73 forward $30 $-1 #
face $-1 -1 $-1 $74 $75 $17 $-1 $34 reversed single #
loop $-1 -1 $-1 $-1 $76 $32 #
coedge $-1 -1 $-1 $77 $78 $79 $80 reversed $33 $-1 #
model_id-kcp-attrib $-1 -1 $-1 $-1 $36 1 1021404860 1021404861 -701169663 5 #
face $81 -1 $-1 $82 $83 $7 $-1 $84 forward single #
loop $-1 -1 $-1 $-1 $85 $36 #
torus-surface $-1 -1 $-1 0 -93.97999999999999 0 0 -1 0 44.957999999999998 9.1439999999999984 -1 0 0 forward_v I I I I #
coedge $-1 -1 $-1 $86 $87 $88 $89 forward $37 $-1 #
coedge $-1 -1 $-1 $41 $39 $90 $91 reversed $26 $-1 #
coedge $-1 -1 $-1 $39 $41 $92 $93 forward $26 $-1 #
coedge $-1 -1 $-1 $87 $86 $39 $58 reversed $37 $-1 #
edge $-1 -1 $-1 $94 1.9680890877783065e-032 $95 3.1415926535897931 $39 $96 forward @7 unknown #
coedge $-1 -1 $-1 $90 $92 $40 $60 forward $97 $-1 #
edge $98 -1 $-1 $62 0 $63 3.1415926535897931 $40 $99 forward @7 unknown #
attrib_edge_convexity-kcp-attrib $-1 -1 $100 $-1 $42 3 #
vertex $-1 -1 $-1 $60 $101 #
vertex $-1 -1 $-1 $60 $102 #
ellipse-curve $-1 -1 $-1 7.0499162063697436e-016 -124.45999999999998 -7.049916206369744e-015 -8.4588420923821466e-016 -1 -3.271875475476634e-031 26.669999999999995 -2.255973186038318e-014 1.0315941352014024e-014 1 I I #
model_id-kcp-attrib $-1 -1 $-1 $-1 $43 1 1021404860 1021404861 -700514302 2 #
face $-1 -1 $-1 $103 $104 $15 $-1 $105 reversed single #
loop $-1 -1 $-1 $-1 $106 $43 #
plane-surface $-1 -1 $-1 0 -66.674999999999997 0 0 1 0 0 0 1 forward_v I I I I #
coedge $-1 -1 $-1 $107 $108 $109 $110 forward $44 $-1 #
coedge $-1 -1 $-1 $111 $46 $112 $113 forward $30 $-1 #
coedge $-1 -1 $-1 $46 $111 $114 $115 forward $30 $-1 #
coedge $-1 -1 $-1 $116 $117 $46 $73 reversed $118 $-1 #
edge $-1 -1 $-1 $119 -66.674999999999997 $120 66.674999999999997 $72 $121 forward @7 unknown #
face $-1 -1 $-1 $122 $123 $17 $-1 $34 reversed single #
loop $-1 -1 $-1 $-1 $124 $47 #
coedge $-1 -1 $-1 $125 $126 $127 $128 reversed $48 $-1 #
coedge $-1 -1 $-1 $129 $49 $130 $131 forward $33 $-1 #
coedge $-1 -1 $-1 $49 $129 $132 $133 reversed $33 $-1 #
coedge $-1 -1 $-1 $134 $135 $49 $80 forward $136 $-1 #
edge $-1 -1 $-1 $137 -1.224606353822377e-016 $138 1.5707963267948966 $79 $139 forward @7 unknown #
model_id-kcp-attrib $-1 -1 $-1 $-1 $51 1 1021404860 1021404861 -701169663 6 #
face $140 -1 $-1 $141 $142 $7 $-1 $143 forward single #
loop $-1 -1 $-1 $-1 $144 $51 #
cone-surface $-1 -1 $-1 0 -86.279400131011002 0 0 -1 0 -40.026985398330325 0 0 1 I I -0.8443460322515941 0.53579826224148019 40.026985398330325 forward I I I I #
coedge $-1 -1 $-1 $145 $146 $147 $148 forward $52 $-1 #
coedge $-1 -1 $-1 $57 $54 $149 $150 reversed $37 $-1 #
coedge $-1 -1 $-1 $54 $57 $151 $152 forward $37 $-1 #
coedge $-1 -1 $-1 $146 $145 $54 $89 reversed $52 $-1 #
edge $-1 -1 $-1 $153 0 $154 3.1415926535897931 $54 $155 forward @7 unknown #
coedge $-1 -1 $-1 $156 $59 $55 $91 forward $97 $-1 #
edge $-1 -1 $-1 $63 9.2275754452656927e-017 $95 1.5707963267948948 $55 $157 forward @7 unknown #
coedge $-1 -1 $-1 $59 $156 $56 $93 reversed $97 $-1 #
edge $-1 -1 $-1 $62 9.2275754452656927e-017 $94 1.5707963267948948 $56 $158 forward @7 unknown #
vertex $-1 -1 $-1 $93 $159 #
vertex $-1 -1 $-1 $91 $160 #
ellipse-curve $-1 -1 $-1 0 -115.31599999999999 0 0 -1 0 35.813999999999993 0 4.3858051955794612e-015 1 I I #
loop $-1 -1 $-1 $-1 $59 $161 #
attrib_edge_convexity-kcp-attrib $-1 -1 $162 $-1 $60 3 #
ellipse-curve $-1 -1 $-1 0 -124.45999999999998 -1.4099832412739487e-015 8.4588420923821466e-016 1 1.4830752368802348e-031 26.669999999999995 -2.255973186038318e-014 4.6760083869182284e-015 1 I I #
convexity-sys-attrib $-1 -1 $-1 $61 $42 #
point $-1 -1 $-1 26.669999999999995 -124.46000000000001 3.2660251456442797e-015 #
point $-1 -1 $-1 -26.669999999999995 -124.46000000000001 -6.5320502912885594e-015 #
face $163 -1 $-1 $164 $165 $15 $-1 $166 reversed single #
loop $-1 -1 $-1 $-1 $167 $66 #
plane-surface $-1 -1 $-1 -149.86000000000001 0 0 1 0 0 0 0 -1 forward_v I I I I #
coedge $-1 -1 $-1 $168 $114 $169 $170 forward $67 $-1 #
coedge $-1 -1 $-1 $171 $69 $168 $172 forward $44 $-1 #
coedge $-1 -1 $-1 $69 $171 $173 $174 forward $44 $-1 #
coedge $-1 -1 $-1 $117 $116 $69 $110 reversed $118 $-1 #
edge $-1 -1 $-1 $175 -66.674999999999997 $176 66.674999999999997 $109 $177 forward @7 unknown #
coedge $-1 -1 $-1 $71 $70 $178 $179 forward $30 $-1 #
coedge $-1 -1 $-1 $180 $181 $70 $113 reversed $165 $-1 #
edge $-1 -1 $-1 $120 -149.86000000000001 $182 149.86000000000001 $112 $183 forward @7 unknown #
coedge $-1 -1 $-1 $106 $184 $71 $115 reversed $67 $-1 #
edge $-1 -1 $-1 $185 -149.86000000000001 $119 149.86000000000001 $114 $186 forward @7 unknown #
coedge $-1 -1 $-1 $109 $72 $184 $187 forward $118 $-1 #
coedge $-1 -1 $-1 $72 $109 $180 $188 reversed $118 $-1 #
loop $-1 -1 $-1 $-1 $116 $164 #
vertex $-1 -1 $-1 $73 $189 #
vertex $-1 -1 $-1 $73 $190 #
straight-curve $-1 -1 $-1 149.86000000000001 0 149.85999999999999 0 1 0 I I #
face $-1 -1 $-1 $191 $192 $17 $-1 $193 forward single #
loop $-1 -1 $-1 $-1 $194 $74 #
coedge $-1 -1 $-1 $195 $196 $194 $197 forward $75 $-1 #
coedge $-1 -1 $-1 $198 $76 $199 $200 reversed $48 $-1 #
coedge $-1 -1 $-1 $76 $198 $78 $133 forward $48 $-1 #
coedge $-1 -1 $-1 $201 $202 $76 $128 forward $203 $-1 #
edge $-1 -1 $-1 $204 -3.1415926535897931 $205 -1.5707963267948966 $127 $206 forward @7 unknown #
coedge $-1 -1 $-1 $78 $77 $207 $208 reversed $33 $-1 #
coedge $-1 -1 $-1 $196 $195 $209 $131 reversed $75 $-1 #
edge $-1 -1 $-1 $137 -133.34999999999997 $210 1.4210854715202004e-014 $209 $211 forward @7 unknown #
coedge $-1 -1 $-1 $212 $213 $214 $133 forward $215 $-1 #
edge $-1 -1 $-1 $138 -133.34999999999997 $205 1.4210854715202004e-014 $132 $216 forward @7 unknown #
coedge $-1 -1 $-1 $135 $79 $213 $217 reversed $136 $-1 #
coedge $-1 -1 $-1 $79 $134 $218 $219 forward $136 $-1 #
loop $-1 -1 $-1 $-1 $79 $220 #
vertex $-1 -1 $-1 $221 $222 #
vertex $-1 -1 $-1 $223 $224 #
ellipse-curve $-1 -1 $-1 -1.6855436682919917e-030 66.674999999999983 0 0 -1 0 149.85999999999999 0 1.8351950818382139e-014 1 I I #
model_id-kcp-attrib $-1 -1 $-1 $-1 $82 1 1021404860 1021404861 -701169663 7 #
face $225 -1 $-1 $226 $227 $7 $-1 $228 forward single #
loop $-1 -1 $-1 $-1 $229 $82 #
torus-surface $-1 -1 $-1 0 -7.3660000000000005 0 0 -1 0 133.096 16.763999999999999 -1 0 0 forward_v I I I I #
coedge $-1 -1 $-1 $230 $231 $232 $233 forward $83 $-1 #
coedge $-1 -1 $-1 $88 $85 $234 $235 reversed $52 $-1 #
coedge $-1 -1 $-1 $85 $88 $236 $237 forward $52 $-1 #
coedge $-1 -1 $-1 $231 $230 $85 $148 reversed $83 $-1 #
edge $-1 -1 $-1 $238 -1.57310445755783e-032 $239 3.1415926535897931 $85 $240 forward @7 unknown #
coedge $-1 -1 $-1 $241 $242 $86 $150 forward $243 $-1 #
edge $-1 -1 $-1 $95 0 $154 0.83999999999999997 $86 $244 forward @7 unknown #
coedge $-1 -1 $-1 $242 $241 $87 $152 reversed $243 $-1 #
edge $-1 -1 $-1 $94 0 $153 0.83999999999999941 $87 $245 forward @7 unknown #
vertex $-1 -1 $-1 $152 $246 #
vertex $-1 -1 $-1 $150 $247 #
ellipse-curve $-1 -1 $-1 0 -93.97999999999999 0 0 -1 0 35.814 0 4.385805195579462e-015 1 I I #
coedge $-1 -1 $-1 $92 $90 $242 $248 reversed $97 $-1 #
ellipse-curve $-1 -1 $-1 -26.669999999999977 -115.31599999999999 -6.532050291288557e-015 2.449212707644755e-016 -1.7928535350354786e-031 -1 -1.6919798895287383e-014 -9.1440000000000072 -2.5046333740767123e-030 1 I I #
ellipse-curve $-1 -1 $-1 26.669999999999977 -115.31599999999999 3.2660251456442785e-015 -1.2246063538223775e-016 -8.964267675177393e-032 1 1.6919798895287383e-014 -9.1440000000000072 1.2523166870383562e-030 1 I I #
point $-1 -1 $-1 35.813999999999993 -115.31599999999999 4.385805195579462e-015 #
point $-1 -1 $-1 -35.813999999999993 -115.31599999999999 -8.7716103911589223e-015 #
face $249 -1 $-1 $-1 $97 $7 $-1 $250 forward single #
convexity-sys-attrib $-1 -1 $-1 $98 $60 #
model_id-kcp-attrib $-1 -1 $-1 $-1 $103 1 1021404860 1021404861 -700514302 3 #
face $-1 -1 $-1 $-1 $118 $15 $-1 $251 reversed single #
loop $-1 -1 $-1 $-1 $180 $103 #
plane-surface $-1 -1 $-1 0 66.674999999999997 0 0 -1 0 0 0 -1 forward_v I I I I #
coedge $-1 -1 $-1 $252 $178 $181 $253 forward $104 $-1 #
coedge $-1 -1 $-1 $184 $106 $107 $172 reversed $67 $-1 #
coedge $-1 -1 $-1 $178 $252 $106 $170 reversed $104 $-1 #
edge $-1 -1 $-1 $185 -149.85999999999999 $254 149.85999999999999 $169 $255 forward @7 unknown #
coedge $-1 -1 $-1 $108 $107 $252 $256 forward $44 $-1 #
edge $-1 -1 $-1 $176 -149.86000000000001 $254 149.86000000000001 $168 $257 forward @7 unknown #
coedge $-1 -1 $-1 $181 $180 $108 $174 reversed $165 $-1 #
edge $-1 -1 $-1 $258 -149.86000000000001 $175 149.86000000000001 $173 $259 forward @7 unknown #
vertex $-1 -1 $-1 $110 $260 #
vertex $-1 -1 $-1 $187 $261 #
straight-curve $-1 -1 $-1 149.86000000000001 0 -149.85999999999999 0 -1 0 I I #
coedge $-1 -1 $-1 $167 $169 $111 $179 reversed $104 $-1 #
edge $-1 -1 $-1 $182 -66.674999999999997 $185 66.674999999999997 $178 $262 forward @7 unknown #
coedge $-1 -1 $-1 $173 $112 $117 $188 forward $165 $-1 #
coedge $-1 -1 $-1 $112 $173 $167 $253 reversed $165 $-1 #
vertex $-1 -1 $-1 $113 $263 #
straight-curve $-1 -1 $-1 0 66.674999999999997 149.85999999999999 -1 0 0 I I #
coedge $-1 -1 $-1 $114 $168 $116 $187 reversed $67 $-1 #
vertex $-1 -1 $-1 $179 $264 #
straight-curve $-1 -1 $-1 0 -66.674999999999997 149.85999999999999 1 0 0 I I #
edge $-1 -1 $-1 $119 -149.85999999999999 $176 149.85999999999999 $116 $265 forward @7 unknown #
edge $-1 -1 $-1 $120 -149.85999999999999 $175 149.85999999999999 $117 $266 forward @7 unknown #
point $-1 -1 $-1 149.86000000000001 -66.674999999999997 149.85999999999999 #
point $-1 -1 $-1 149.86000000000001 66.674999999999997 149.85999999999999 #
face $-1 -1 $-1 $267 $268 $17 $-1 $269 reversed single #
loop $-1 -1 $-1 $-1 $214 $122 #
plane-surface $-1 -1 $-1 0 0 149.85999999999999 0 0 1 1 0 0 forward_v I I I I #
coedge $-1 -1 $-1 $270 $271 $272 $197 reversed $123 $-1 #
coedge $-1 -1 $-1 $130 $124 $273 $274 reversed $75 $-1 #
coedge $-1 -1 $-1 $124 $130 $275 $276 reversed $75 $-1 #
edge $-1 -1 $-1 $277 -133.34999999999997 $278 1.4210854715202004e-014 $272 $279 forward @7 unknown #
coedge $-1 -1 $-1 $126 $125 $280 $281 reversed $48 $-1 #
coedge $-1 -1 $-1 $282 $283 $284 $200 forward $285 $-1 #
edge $-1 -1 $-1 $286 -133.34999999999997 $204 1.4210854715202004e-014 $199 $287 forward @7 unknown #
coedge $-1 -1 $-1 $202 $127 $288 $289 reversed $203 $-1 #
coedge $-1 -1 $-1 $127 $201 $282 $290 forward $203 $-1 #
loop $-1 -1 $-1 $-1 $127 $291 #
vertex $-1 -1 $-1 $292 $293 #
vertex $-1 -1 $-1 $294 $295 #
ellipse-curve $-1 -1 $-1 -1.6855436682919917e-030 -66.674999999999997 0 0 1 0 149.85999999999999 0 1.8351950818382139e-014 1 I I #
coedge $-1 -1 $-1 $296 $297 $129 $208 forward $298 $-1 #
edge $-1 -1 $-1 $205 -1.5707963267948966 $210 1.224606353822377e-016 $207 $206 forward @7 unknown #
coedge $-1 -1 $-1 $299 $300 $301 $131 forward $268 $-1 #
vertex $-1 -1 $-1 $302 $303 #
straight-curve $-1 -1 $-1 149.86000000000001 -66.674999999999983 0 0 -1 0 I I #
coedge $-1 -1 $-1 $304 $132 $297 $294 forward $215 $-1 #
coedge $-1 -1 $-1 $132 $304 $134 $217 forward $215 $-1 #
coedge $-1 -1 $-1 $305 $288 $126 $133 reversed $192 $-1 #
loop $-1 -1 $-1 $-1 $132 $306 #
straight-curve $-1 -1 $-1 -1.6855436682919917e-030 -66.674999999999983 149.85999999999999 0 -1 0 I I #
edge $-1 -1 $-1 $307 -149.86000000000001 $138 1.6855436682919917e-030 $134 $308 forward @7 unknown #
coedge $-1 -1 $-1 $309 $301 $135 $219 reversed $310 $-1 #
edge $-1 -1 $-1 $307 -149.85999999999999 $137 0 $218 $311 forward @7 unknown #
face $-1 -1 $-1 $312 $136 $17 $-1 $313 reversed single #
edge $-1 -1 $-1 $137 0 $314 149.85999999999999 $300 $311 forward @7 unknown #
point $-1 -1 $-1 149.86000000000001 66.674999999999983 0 #
edge $-1 -1 $-1 $138 1.6855436682919917e-030 $315 149.86000000000001 $316 $308 forward @7 unknown #
point $-1 -1 $-1 -1.6855436682919917e-030 66.674999999999983 149.85999999999999 #
model_id-kcp-attrib $-1 -1 $-1 $-1 $141 1 1021404860 1021404861 -701169663 8 #
face $317 -1 $-1 $318 $319 $7 $-1 $320 forward single #
loop $-1 -1 $-1 $-1 $321 $141 #
cone-surface $-1 -1 $-1 0 15.557499999999997 0 0 -1 0 -149.85999999999999 0 0 1 I I 0 1 149.85999999999999 forward I I I I #
coedge $-1 -1 $-1 $322 $323 $324 $325 forward $142 $-1 #
coedge $-1 -1 $-1 $147 $144 $326 $327 reversed $83 $-1 #
coedge $-1 -1 $-1 $144 $147 $328 $329 forward $83 $-1 #
coedge $-1 -1 $-1 $323 $322 $144 $233 reversed $142 $-1 #
edge $-1 -1 $-1 $330 2.0008566650804639e-032 $331 3.1415926535897931 $144 $332 forward @7 unknown #
coedge $-1 -1 $-1 $333 $334 $145 $235 forward $335 $-1 #
edge $-1 -1 $-1 $154 7.4426643303014452e-063 $239 1.0053434422174097 $145 $336 forward @7 unknown #
coedge $-1 -1 $-1 $334 $333 $146 $237 reversed $335 $-1 #
edge $-1 -1 $-1 $153 -1.5541179697289985e-015 $238 1.0053434422174092 $146 $337 forward @7 unknown #
vertex $-1 -1 $-1 $237 $338 #
vertex $-1 -1 $-1 $235 $339 #
ellipse-curve $-1 -1 $-1 0 -86.259299881091422 0 0 -1 0 40.058660690063917 0 4.9056090406666969e-015 1 I I #
coedge $-1 -1 $-1 $151 $149 $334 $340 reversed $243 $-1 #
coedge $-1 -1 $-1 $149 $151 $156 $248 forward $243 $-1 #
loop $-1 -1 $-1 $-1 $242 $341 #
straight-curve $-1 -1 $-1 -35.813999999999993 -115.31599999999999 -8.7716103911589223e-015 0 25.399999999999999 0 I I #
straight-curve $-1 -1 $-1 35.813999999999993 -115.31599999999999 4.3858051955794612e-015 0 25.399999999999999 0 I I #
point $-1 -1 $-1 35.813999999999993 -93.980000000000004 4.3858051955794612e-015 #
point $-1 -1 $-1 -35.814 -93.97999999999999 -8.7716103911589239e-015 #
edge $-1 -1 $-1 $94 -1.9680890877783065e-032 $95 3.1415926535897931 $156 $342 forward @7 unknown #
model_id-kcp-attrib $-1 -1 $-1 $-1 $161 1 1021404860 1021404861 -701169663 17 #
torus-surface $-1 -1 $-1 0 -115.31599999999999 0 0 -1 0 26.669999999999995 9.1439999999999984 -1 0 0 forward_v I I I I #
plane-surface $-1 -1 $-1 149.86000000000001 0 0 -1 0 0 0 0 1 forward_v I I I I #
coedge $-1 -1 $-1 $169 $167 $171 $256 reversed $104 $-1 #
edge $-1 -1 $-1 $182 -149.85999999999999 $258 149.85999999999999 $181 $343 forward @7 unknown #
vertex $-1 -1 $-1 $256 $344 #
straight-curve $-1 -1 $-1 -149.86000000000001 -66.674999999999997 0 0 0 -1 I I #
edge $-1 -1 $-1 $254 -66.674999999999997 $258 66.674999999999997 $252 $345 forward @7 unknown #
straight-curve $-1 -1 $-1 0 -66.674999999999997 -149.85999999999999 -1 0 0 I I #
vertex $-1 -1 $-1 $174 $346 #
straight-curve $-1 -1 $-1 0 66.674999999999997 -149.85999999999999 1 0 0 I I #
point $-1 -1 $-1 149.86000000000001 66.674999999999997 -149.85999999999999 #
point $-1 -1 $-1 149.86000000000001 -66.674999999999997 -149.85999999999999 #
straight-curve $-1 -1 $-1 -149.86000000000001 0 149.85999999999999 0 -1 0 I I #
point $-1 -1 $-1 -149.86000000000001 66.674999999999997 149.85999999999999 #
point $-1 -1 $-1 -149.86000000000001 -66.674999999999997 149.85999999999999 #
straight-curve $-1 -1 $-1 149.86000000000001 -66.674999999999997 0 0 0 -1 I I #
straight-curve $-1 -1 $-1 149.86000000000001 66.674999999999997 0 0 0 -1 I I #
face $-1 -1 $-1 $347 $348 $17 $-1 $349 reversed single #
loop $-1 -1 $-1 $-1 $209 $191 #
plane-surface $-1 -1 $-1 149.86000000000001 0 0 -1 0 0 0 0 1 forward_v I I I I #
coedge $-1 -1 $-1 $350 $194 $351 $352 reversed $123 $-1 #
coedge $-1 -1 $-1 $194 $350 $353 $354 reversed $123 $-1 #
coedge $-1 -1 $-1 $355 $356 $357 $197 forward $358 $-1 #
coedge $-1 -1 $-1 $359 $360 $195 $274 forward $361 $-1 #
edge $-1 -1 $-1 $210 1.224606353822377e-016 $278 1.5707963267948968 $273 $206 forward @7 unknown #
coedge $-1 -1 $-1 $362 $363 $196 $276 forward $364 $-1 #
edge $-1 -1 $-1 $277 -1.5707963267948968 $137 -1.224606353822377e-016 $275 $139 forward @7 unknown #
vertex $-1 -1 $-1 $365 $366 #
vertex $-1 -1 $-1 $367 $368 #
straight-curve $-1 -1 $-1 -1.6855436682919917e-030 -66.674999999999983 -149.85999999999999 0 -1 0 I I #
coedge $-1 -1 $-1 $369 $316 $198 $281 forward $370 $-1 #
edge $-1 -1 $-1 $138 1.5707963267948966 $286 3.1415926535897931 $280 $139 forward @7 unknown #
coedge $-1 -1 $-1 $371 $199 $202 $290 reversed $285 $-1 #
coedge $-1 -1 $-1 $199 $371 $369 $372 forward $285 $-1 #
coedge $-1 -1 $-1 $373 $374 $350 $200 reversed $348 $-1 #
loop $-1 -1 $-1 $-1 $199 $375 #
vertex $-1 -1 $-1 $376 $377 #
straight-curve $-1 -1 $-1 -149.86000000000001 -66.674999999999983 0 0 -1 0 I I #
coedge $-1 -1 $-1 $214 $378 $201 $289 forward $192 $-1 #
edge $-1 -1 $-1 $379 -149.86000000000001 $205 -1.6855436682919917e-030 $201 $380 forward @7 unknown #
edge $-1 -1 $-1 $379 -149.85999999999999 $204 0 $282 $381 forward @7 unknown #
face $-1 -1 $-1 $382 $203 $17 $-1 $383 reversed single #
edge $-1 -1 $-1 $204 0 $384 149.85999999999999 $374 $381 forward @7 unknown #
point $-1 -1 $-1 -149.86000000000001 -66.674999999999997 0 #
edge $-1 -1 $-1 $205 -1.6855436682919917e-030 $385 149.86000000000001 $297 $380 forward @7 unknown #
point $-1 -1 $-1 -1.6855436682919917e-030 -66.674999999999997 149.85999999999999 #
coedge $-1 -1 $-1 $297 $207 $386 $387 reversed $298 $-1 #
coedge $-1 -1 $-1 $207 $296 $212 $294 reversed $298 $-1 #
loop $-1 -1 $-1 $-1 $207 $382 #
coedge $-1 -1 $-1 $388 $209 $360 $302 forward $268 $-1 #
coedge $-1 -1 $-1 $209 $388 $362 $221 reversed $268 $-1 #
coedge $-1 -1 $-1 $218 $386 $77 $131 reversed $310 $-1 #
edge $-1 -1 $-1 $210 0 $389 149.85999999999999 $299 $390 forward @7 unknown #
point $-1 -1 $-1 149.86000000000001 -66.674999999999997 0 #
coedge $-1 -1 $-1 $213 $212 $309 $391 forward $215 $-1 #
coedge $-1 -1 $-1 $378 $214 $316 $223 forward $192 $-1 #
face $-1 -1 $-1 $392 $215 $17 $-1 $193 forward single #
vertex $-1 -1 $-1 $391 $393 #
straight-curve $-1 -1 $-1 0 66.674999999999997 149.85999999999999 -1 0 0 I I #
coedge $-1 -1 $-1 $386 $218 $304 $391 reversed $310 $-1 #
loop $-1 -1 $-1 $-1 $301 $394 #
straight-curve $-1 -1 $-1 149.86000000000001 66.674999999999997 0 0 0 -1 I I #
face $-1 -1 $-1 $395 $370 $17 $-1 $313 reversed single #
plane-surface $-1 -1 $-1 0 66.674999999999997 0 0 -1 0 0 0 -1 forward_v I I I I #
vertex $-1 -1 $-1 $396 $397 #
vertex $-1 -1 $-1 $223 $398 #
coedge $-1 -1 $-1 $280 $369 $305 $223 reversed $370 $-1 #
model_id-kcp-attrib $-1 -1 $-1 $-1 $226 1 1021404860 1021404861 -701169663 9 #
face $399 -1 $-1 $400 $401 $7 $-1 $402 reversed single #
loop $-1 -1 $-1 $-1 $403 $226 #
torus-surface $-1 -1 $-1 0 3.8099999999999996 0 0 -1 0 144.77999999999997 5.0799999999999992 -1 0 0 forward_v I I I I #
coedge $-1 -1 $-1 $404 $405 $406 $407 forward $227 $-1 #
coedge $-1 -1 $-1 $232 $229 $408 $409 reversed $142 $-1 #
coedge $-1 -1 $-1 $229 $232 $410 $411 forward $142 $-1 #
coedge $-1 -1 $-1 $405 $404 $229 $325 reversed $227 $-1 #
edge $-1 -1 $-1 $412 0 $413 3.1415926535897931 $229 $414 forward @7 unknown #
coedge $-1 -1 $-1 $415 $416 $230 $327 forward $417 $-1 #
edge $-1 -1 $-1 $239 0 $331 4.7569528061564776 $230 $418 forward @7 unknown #
coedge $-1 -1 $-1 $416 $415 $231 $329 reversed $417 $-1 #
edge $-1 -1 $-1 $238 -1.726270682013106e-016 $330 4.7569528061564768 $231 $419 forward @7 unknown #
vertex $-1 -1 $-1 $329 $420 #
vertex $-1 -1 $-1 $327 $421 #
ellipse-curve $-1 -1 $-1 0 -21.520616884665724 0 0 -1 0 142.07812206821617 0 1.7398977102388884e-014 1 I I #
coedge $-1 -1 $-1 $236 $234 $416 $422 reversed $335 $-1 #
coedge $-1 -1 $-1 $234 $236 $241 $340 forward $335 $-1 #
loop $-1 -1 $-1 $-1 $334 $423 #
ellipse-curve $-1 -1 $-1 -44.95800000000002 -93.97999999999999 -1.1011170491029289e-014 -2.449212707644753e-016 4.9871481646891061e-032 1 9.1440000000000197 0 2.2395600998703665e-015 1 I I #
ellipse-curve $-1 -1 $-1 44.95800000000002 -93.97999999999999 5.5055852455146446e-015 1.2246063538223765e-016 2.493574082344553e-032 -1 -9.1440000000000197 0 -1.1197800499351833e-015 1 I I #
point $-1 -1 $-1 40.058660690063903 -86.259299881091408 4.9056090406666946e-015 #
point $-1 -1 $-1 -40.058660690063917 -86.259299881091422 -9.8112180813333939e-015 #
edge $-1 -1 $-1 $153 0 $154 3.1415926535897931 $241 $424 forward @7 unknown #
face $425 -1 $-1 $161 $243 $7 $-1 $426 forward single #
ellipse-curve $-1 -1 $-1 0 -115.31599999999999 0 0 1 0 35.813999999999993 0 4.3858051955794612e-015 1 I I #
straight-curve $-1 -1 $-1 -149.86000000000001 66.674999999999997 0 0 0 -1 I I #
point $-1 -1 $-1 -149.86000000000001 -66.674999999999997 -149.85999999999999 #
straight-curve $-1 -1 $-1 -149.86000000000001 0 -149.85999999999999 0 1 0 I I #
point $-1 -1 $-1 -149.86000000000001 66.674999999999997 -149.85999999999999 #
face $-1 -1 $-1 $291 $427 $17 $-1 $383 reversed single #
loop $-1 -1 $-1 $-1 $284 $267 #
plane-surface $-1 -1 $-1 -149.86000000000001 0 0 1 0 0 0 0 -1 forward_v I I I I #
coedge $-1 -1 $-1 $271 $270 $125 $200 forward $123 $-1 #
coedge $-1 -1 $-1 $428 $429 $270 $352 forward $430 $-1 #
edge $-1 -1 $-1 $286 -3.1415926535897931 $277 -1.5707963267948968 $351 $139 forward @7 unknown #
coedge $-1 -1 $-1 $431 $432 $271 $354 forward $427 $-1 #
edge $-1 -1 $-1 $278 1.5707963267948968 $204 3.1415926535897931 $353 $206 forward @7 unknown #
coedge $-1 -1 $-1 $433 $272 $432 $367 forward $358 $-1 #
coedge $-1 -1 $-1 $272 $433 $428 $434 forward $358 $-1 #
coedge $-1 -1 $-1 $435 $436 $124 $197 reversed $437 $-1 #
loop $-1 -1 $-1 $-1 $272 $392 #
coedge $-1 -1 $-1 $360 $273 $436 $438 reversed $361 $-1 #
coedge $-1 -1 $-1 $273 $359 $299 $302 reversed $361 $-1 #
loop $-1 -1 $-1 $-1 $273 $439 #
coedge $-1 -1 $-1 $363 $275 $300 $221 forward $364 $-1 #
coedge $-1 -1 $-1 $275 $362 $435 $365 reversed $364 $-1 #
loop $-1 -1 $-1 $-1 $275 $440 #
edge $-1 -1 $-1 $277 -1.6855436682919917e-030 $314 149.86000000000001 $363 $441 forward @7 unknown #
point $-1 -1 $-1 -1.6855436682919917e-030 66.674999999999983 -149.85999999999999 #
edge $-1 -1 $-1 $278 1.6855436682919917e-030 $384 149.86000000000001 $432 $442 forward @7 unknown #
point $-1 -1 $-1 -1.6855436682919917e-030 -66.674999999999997 -149.85999999999999 #
coedge $-1 -1 $-1 $316 $280 $283 $372 reversed $370 $-1 #
loop $-1 -1 $-1 $-1 $280 $312 #
coedge $-1 -1 $-1 $283 $282 $378 $443 reversed $285 $-1 #
edge $-1 -1 $-1 $315 -149.85999999999999 $286 0 $369 $444 forward @7 unknown #
coedge $-1 -1 $-1 $445 $284 $429 $376 forward $348 $-1 #
coedge $-1 -1 $-1 $284 $445 $431 $292 reversed $348 $-1 #
face $-1 -1 $-1 $394 $285 $17 $-1 $349 reversed single #
edge $-1 -1 $-1 $286 0 $446 149.85999999999999 $429 $444 forward @7 unknown #
point $-1 -1 $-1 -149.86000000000001 66.674999999999983 0 #
coedge $-1 -1 $-1 $288 $305 $371 $443 forward $192 $-1 #
vertex $-1 -1 $-1 $443 $447 #
straight-curve $-1 -1 $-1 0 -66.674999999999997 149.85999999999999 1 0 0 I I #
straight-curve $-1 -1 $-1 -149.86000000000001 -66.674999999999997 0 0 0 -1 I I #
face $-1 -1 $-1 $439 $298 $17 $-1 $383 reversed single #
plane-surface $-1 -1 $-1 0 -66.674999999999997 0 0 1 0 0 0 1 forward_v I I I I #
vertex $-1 -1 $-1 $448 $449 #
vertex $-1 -1 $-1 $391 $450 #
coedge $-1 -1 $-1 $301 $309 $296 $387 forward $310 $-1 #
edge $-1 -1 $-1 $385 -149.85999999999999 $210 0 $386 $390 forward @7 unknown #
coedge $-1 -1 $-1 $300 $299 $451 $396 reversed $268 $-1 #
vertex $-1 -1 $-1 $302 $452 #
straight-curve $-1 -1 $-1 149.86000000000001 -66.674999999999997 0 0 0 -1 I I #
edge $-1 -1 $-1 $385 -66.674999999999997 $307 66.674999999999997 $309 $453 forward @7 unknown #
face $-1 -1 $-1 $375 $358 $17 $-1 $454 reversed single #
point $-1 -1 $-1 149.86000000000001 66.674999999999997 149.85999999999999 #
face $-1 -1 $-1 $-1 $310 $17 $-1 $269 reversed single #
face $-1 -1 $-1 $455 $430 $17 $-1 $313 reversed single #
edge $-1 -1 $-1 $314 -66.674999999999997 $389 66.674999999999997 $388 $456 forward @7 unknown #
point $-1 -1 $-1 149.86000000000001 66.674999999999997 -149.85999999999999 #
point $-1 -1 $-1 -149.86000000000001 66.674999999999997 149.85999999999999 #
model_id-kcp-attrib $-1 -1 $-1 $-1 $318 1 1021404860 1021404861 -701169663 10 #
face $457 -1 $-1 $458 $459 $7 $-1 $460 forward single #
loop $-1 -1 $-1 $-1 $461 $318 #
plane-surface $-1 -1 $-1 0 8.8899999999999988 0 0 -1 0 -25.399999999999999 0 0 forward_v I I I I #
coedge $-1 -1 $-1 $462 $463 $461 $464 forward $319 $-1 #
coedge $-1 -1 $-1 $324 $321 $465 $466 reversed $227 $-1 #
coedge $-1 -1 $-1 $321 $324 $467 $468 forward $227 $-1 #
coedge $-1 -1 $-1 $463 $462 $321 $407 reversed $319 $-1 #
edge $-1 -1 $-1 $469 0 $470 3.1415926535897931 $321 $471 forward @7 unknown #
coedge $-1 -1 $-1 $472 $473 $322 $409 forward $474 $-1 #
edge $-1 -1 $-1 $331 4.045338634031335e-016 $413 1.0053434422174057 $322 $475 forward @7 unknown #
coedge $-1 -1 $-1 $473 $472 $323 $411 reversed $474 $-1 #
edge $-1 -1 $-1 $330 -1.415868521910968e-015 $412 1.0053434422174059 $323 $476 forward @7 unknown #
vertex $-1 -1 $-1 $411 $477 #
vertex $-1 -1 $-1 $409 $478 #
ellipse-curve $-1 -1 $-1 0 -7.3660000000000032 0 0 -1 0 149.85999999999999 0 1.8351950818382142e-014 1 I I #
coedge $-1 -1 $-1 $328 $326 $473 $479 reversed $417 $-1 #
coedge $-1 -1 $-1 $326 $328 $333 $422 forward $417 $-1 #
loop $-1 -1 $-1 $-1 $416 $480 #
straight-curve $-1 -1 $-1 -40.058660690063917 -86.259299881091422 -9.8112180813333939e-015 -21.446389219190486 13.609275860933597 -5.2526769008736821e-015 I I #
straight-curve $-1 -1 $-1 40.058660690063917 -86.259299881091422 4.9056090406666969e-015 21.446389219190486 13.609275860933597 2.6263384504368411e-015 I I #
point $-1 -1 $-1 142.07812206821615 -21.520616884665735 1.7398977102388884e-014 #
point $-1 -1 $-1 -142.07812206821617 -21.520616884665724 -3.4797954204777767e-014 #
edge $-1 -1 $-1 $238 1.57310445755783e-032 $239 3.1415926535897931 $333 $481 forward @7 unknown #
face $482 -1 $-1 $341 $335 $7 $-1 $483 reversed single #
ellipse-curve $-1 -1 $-1 0 -93.97999999999999 0 0 1 0 35.814 0 4.385805195579462e-015 1 I I #
model_id-kcp-attrib $-1 -1 $-1 $-1 $341 1 1021404860 1021404861 -701169663 16 #
cone-surface $-1 -1 $-1 0 15.557499999999997 0 0 -1 0 -35.813999999999993 0 0 1 I I 0 1 35.813999999999993 forward I I I I #
loop $-1 -1 $-1 $-1 $353 $347 #
coedge $-1 -1 $-1 $429 $351 $356 $434 reversed $430 $-1 #
coedge $-1 -1 $-1 $351 $428 $373 $376 reversed $430 $-1 #
loop $-1 -1 $-1 $-1 $351 $395 #
coedge $-1 -1 $-1 $432 $353 $374 $292 forward $427 $-1 #
coedge $-1 -1 $-1 $353 $431 $355 $367 reversed $427 $-1 #
coedge $-1 -1 $-1 $356 $355 $445 $448 forward $358 $-1 #
edge $-1 -1 $-1 $446 -149.86000000000001 $277 -1.6855436682919917e-030 $428 $441 forward @7 unknown #
coedge $-1 -1 $-1 $451 $357 $363 $365 forward $437 $-1 #
coedge $-1 -1 $-1 $357 $451 $359 $438 forward $437 $-1 #
loop $-1 -1 $-1 $-1 $357 $455 #
edge $-1 -1 $-1 $389 -149.86000000000001 $278 1.6855436682919917e-030 $359 $442 forward @7 unknown #
face $-1 -1 $-1 $440 $361 $17 $-1 $383 reversed single #
face $-1 -1 $-1 $220 $364 $17 $-1 $313 reversed single #
straight-curve $-1 -1 $-1 0 66.674999999999997 -149.85999999999999 1 0 0 I I #
straight-curve $-1 -1 $-1 0 -66.674999999999997 -149.85999999999999 -1 0 0 I I #
edge $-1 -1 $-1 $315 -66.674999999999997 $379 66.674999999999997 $371 $484 forward @7 unknown #
straight-curve $-1 -1 $-1 -149.86000000000001 66.674999999999997 0 0 0 -1 I I #
coedge $-1 -1 $-1 $374 $373 $433 $448 reversed $348 $-1 #
vertex $-1 -1 $-1 $434 $485 #
point $-1 -1 $-1 -149.86000000000001 -66.674999999999997 149.85999999999999 #
edge $-1 -1 $-1 $384 -66.674999999999997 $446 66.674999999999997 $445 $486 forward @7 unknown #
point $-1 -1 $-1 -149.86000000000001 -66.674999999999997 -149.85999999999999 #
point $-1 -1 $-1 149.86000000000001 -66.674999999999997 149.85999999999999 #
coedge $-1 -1 $-1 $436 $435 $388 $396 forward $437 $-1 #
point $-1 -1 $-1 149.86000000000001 -66.674999999999997 -149.85999999999999 #
straight-curve $-1 -1 $-1 149.86000000000001 0 149.85999999999999 0 1 0 I I #
plane-surface $-1 -1 $-1 0 0 -149.85999999999999 0 0 1 1 0 0 forward_v I I I I #
face $-1 -1 $-1 $306 $437 $17 $-1 $454 reversed single #
straight-curve $-1 -1 $-1 149.86000000000001 0 -149.85999999999999 0 -1 0 I I #
model_id-kcp-attrib $-1 -1 $-1 $-1 $400 1 1021404860 1021404861 -701169663 11 #
face $487 -1 $-1 $488 $489 $7 $-1 $490 forward single #
loop $-1 -1 $-1 $-1 $491 $400 #
torus-surface $-1 -1 $-1 0 3.8099999999999996 0 0 -1 0 144.77999999999997 5.0799999999999992 -1 0 0 forward_v I I I I #
coedge $-1 -1 $-1 $492 $492 $403 $464 reversed $401 $-1 #
coedge $-1 -1 $-1 $406 $403 $493 $494 reversed $319 $-1 #
coedge $-1 -1 $-1 $403 $406 $495 $496 forward $319 $-1 #
edge $-1 -1 $-1 $497 1.2246063538223773e-016 $498 3.1415926535897931 $403 $499 forward @7 unknown #
coedge $-1 -1 $-1 $500 $501 $404 $466 forward $489 $-1 #
edge $-1 -1 $-1 $413 0 $470 0.44000000000000017 $404 $502 forward @7 unknown #
coedge $-1 -1 $-1 $501 $500 $405 $468 reversed $489 $-1 #
edge $-1 -1 $-1 $412 1.0490296295670772e-016 $469 0.44000000000000011 $405 $503 forward @7 unknown #
vertex $-1 -1 $-1 $468 $504 #
vertex $-1 -1 $-1 $466 $505 #
ellipse-curve $-1 -1 $-1 0 3.8100000000000009 0 0 -1 0 149.85999999999999 0 1.8351950818382142e-014 1 I I #
coedge $-1 -1 $-1 $410 $408 $501 $506 reversed $474 $-1 #
coedge $-1 -1 $-1 $408 $410 $415 $479 forward $474 $-1 #
loop $-1 -1 $-1 $-1 $473 $488 #
ellipse-curve $-1 -1 $-1 -133.09599999999992 -7.3659999999999544 -3.2598041453668581e-014 2.4492127076447678e-016 6.791157930621594e-031 -1 -8.9821220682162473 -14.154616884665769 -2.1999127511091832e-015 1 I I #
ellipse-curve $-1 -1 $-1 133.09599999999992 -7.3659999999999544 1.629902072683429e-014 -1.2246063538223839e-016 3.395578965310797e-031 1 8.9821220682162473 -14.154616884665769 1.0999563755545916e-015 1 I I #
point $-1 -1 $-1 149.86000000000001 -7.3660000000000005 1.8351950818382145e-014 #
point $-1 -1 $-1 -149.85999999999999 -7.3660000000000032 -3.6703901636764284e-014 #
edge $-1 -1 $-1 $330 -2.0008566650804639e-032 $331 3.1415926535897931 $415 $507 forward @7 unknown #
face $508 -1 $-1 $423 $417 $7 $-1 $509 forward single #
ellipse-curve $-1 -1 $-1 0 -86.259299881091422 0 0 1 0 40.058660690063917 0 4.9056090406666969e-015 1 I I #
model_id-kcp-attrib $-1 -1 $-1 $-1 $423 1 1021404860 1021404861 -701169663 15 #
torus-surface $-1 -1 $-1 0 -93.97999999999999 0 0 -1 0 44.957999999999998 9.1439999999999984 -1 0 0 forward_v I I I I #
straight-curve $-1 -1 $-1 -149.86000000000001 0 149.85999999999999 0 -1 0 I I #
point $-1 -1 $-1 -149.86000000000001 66.674999999999997 -149.85999999999999 #
straight-curve $-1 -1 $-1 -149.86000000000001 0 -149.85999999999999 0 1 0 I I #
model_id-kcp-attrib $-1 -1 $-1 $-1 $458 1 1021404860 1021404861 -701169663 12 #
face $510 -1 $-1 $480 $474 $7 $-1 $511 forward single #
loop $-1 -1 $-1 $-1 $501 $458 #
cone-surface $-1 -1 $-1 0 15.557499999999997 0 0 -1 0 -149.85999999999999 0 0 1 I I 0 1 149.85999999999999 forward I I I I #
coedge $-1 -1 $-1 $493 $495 $500 $512 forward $459 $-1 #
coedge $-1 -1 $-1 $461 $461 $513 $514 forward $401 $-1 #
coedge $-1 -1 $-1 $513 $491 $462 $494 forward $459 $-1 #
edge $-1 -1 $-1 $470 -1.9669305554385331e-017 $498 1.5707963267948948 $462 $515 forward @7 unknown #
coedge $-1 -1 $-1 $491 $513 $463 $496 reversed $459 $-1 #
edge $-1 -1 $-1 $469 -4.5676498454066655e-016 $497 1.5707963267948948 $463 $516 forward @7 unknown #
vertex $-1 -1 $-1 $496 $517 #
vertex $-1 -1 $-1 $494 $518 #
ellipse-curve $-1 -1 $-1 0 8.8899999999999988 0 0 -1 0 144.77999999999997 0 0 1 I I #
coedge $-1 -1 $-1 $467 $465 $491 $512 reversed $489 $-1 #
coedge $-1 -1 $-1 $465 $467 $472 $506 forward $489 $-1 #
straight-curve $-1 -1 $-1 -149.85999999999999 -7.3660000000000032 -3.6703901636764284e-014 0 25.399999999999999 0 I I #
straight-curve $-1 -1 $-1 149.85999999999999 -7.3660000000000032 1.8351950818382142e-014 0 25.399999999999999 0 I I #
point $-1 -1 $-1 149.85999999999999 3.8099999999999987 1.8351950818382142e-014 #
point $-1 -1 $-1 -149.85999999999999 3.8100000000000009 -3.6703901636764284e-014 #
edge $-1 -1 $-1 $412 0 $413 3.1415926535897931 $472 $519 forward @7 unknown #
ellipse-curve $-1 -1 $-1 0 -21.520616884665724 0 0 1 0 142.07812206821617 0 1.7398977102388884e-014 1 I I #
model_id-kcp-attrib $-1 -1 $-1 $-1 $480 1 1021404860 1021404861 -701169663 14 #
cone-surface $-1 -1 $-1 0 -86.279400131011002 0 0 -1 0 -40.026985398330325 0 0 1 I I -0.8443460322515941 0.53579826224148019 40.026985398330325 forward I I I I #
model_id-kcp-attrib $-1 -1 $-1 $-1 $488 1 1021404860 1021404861 -701169663 13 #
torus-surface $-1 -1 $-1 0 -7.3660000000000005 0 0 -1 0 133.096 16.763999999999999 -1 0 0 forward_v I I I I #
edge $-1 -1 $-1 $469 0 $470 3.1415926535897931 $500 $520 forward @7 unknown #
coedge $-1 -1 $-1 $495 $493 $492 $514 reversed $459 $-1 #
edge $-1 -1 $-1 $497 -1.2246063538223773e-016 $498 3.1415926535897931 $492 $521 forward @7 unknown #
ellipse-curve $-1 -1 $-1 -144.77999999999997 3.8099999999999912 -3.5459701581280752e-014 2.4492127076447481e-016 1.2134066531643447e-031 -1 -5.0800000000000045 9.8698826889176407e-015 -1.2442000554835333e-015 1 I I #
ellipse-curve $-1 -1 $-1 144.77999999999997 3.8099999999999912 1.7729850790640376e-014 -1.2246063538223741e-016 6.0670332658217235e-032 1 5.0800000000000045 9.8698826889176407e-015 6.2210002774176663e-016 1 I I #
point $-1 -1 $-1 144.77999999999997 8.8899999999999988 1.7729850790640376e-014 #
point $-1 -1 $-1 -144.77999999999997 8.8899999999999988 0 #
ellipse-curve $-1 -1 $-1 0 -7.3660000000000032 0 0 1 0 149.85999999999999 0 1.8351950818382142e-014 1 I I #
ellipse-curve $-1 -1 $-1 0 3.8100000000000009 0 0 1 0 149.85999999999999 0 1.8351950818382142e-014 1 I I #
ellipse-curve $-1 -1 $-1 0 8.8899999999999988 0 0 1 0 144.77999999999997 0 0 1 I I #
End-of-ACIS-data 