600 0 1 0           
113 GICL ACIS Healer - Source: /gicl/data5/repository/PTC/V20/web_demos/models/mill_geometry/blade/work.prt.sat - 6 0 18 ACIS 6.0.3 Solaris 24 Sat Apr 13 20:49:42 2002 
1 9.999999999999999547e-07 1.000000000000000036e-10 
body $-1 $1 $-1 $-1 #
lump $-1 $-1 $2 $0 #
shell $-1 $-1 $-1 $3 $-1 $1 #
face $-1 $4 $5 $2 $-1 $6 forward single #
face $-1 $7 $8 $2 $-1 $9 forward single #
loop $-1 $-1 $10 $3 #
plane-surface $-1 0 -124.4599999999999795 0 0 -1 0 -25.39999999999999858 0 0 forward_v I I I I #
face $-1 $11 $12 $2 $-1 $13 forward single #
loop $-1 $-1 $14 $4 #
torus-surface $-1 0 -115.3159999999999883 0 0 -1 0 26.6699999999999946 9.143999999999998352 -1 0 0 forward_v I I I I #
coedge $-1 $15 $15 $16 $17 forward $5 $-1 #
face $-1 $18 $19 $2 $-1 $20 reversed single #
loop $-1 $-1 $21 $7 #
cone-surface $-1 0 15.55749999999999744 0 0 -1 0 -35.81399999999999295 0 0 1 I I 0 1 35.81399999999999295 forward I I I I #
coedge $-1 $22 $23 $24 $25 forward $8 $-1 #
coedge $-1 $10 $10 $26 $27 reversed $5 $-1 #
coedge $-1 $23 $22 $10 $17 reversed $8 $-1 #
edge $-1 $28 0 $29 3.141592653589792672 $10 $30 forward 7 unknown #
face $-1 $31 $32 $2 $-1 $33 forward single #
loop $-1 $-1 $34 $11 #
torus-surface $-1 0 -93.97999999999998977 0 0 -1 0 44.95799999999999841 9.143999999999998352 -1 0 0 forward_v I I I I #
coedge $-1 $35 $36 $37 $38 forward $12 $-1 #
coedge $-1 $16 $14 $39 $40 reversed $8 $-1 #
coedge $-1 $14 $16 $41 $42 forward $8 $-1 #
coedge $-1 $36 $35 $14 $25 reversed $12 $-1 #
edge $-1 $43 1.968089087778306455e-32 $44 3.141592653589793116 $14 $45 forward 7 unknown #
coedge $-1 $39 $41 $15 $27 forward $46 $-1 #
edge $-1 $28 0 $29 3.141592653589793116 $15 $47 forward 7 unknown #
vertex $-1 $27 $48 #
vertex $-1 $27 $49 #
ellipse-curve $-1 7.049916206369743637e-16 -124.4599999999999795 -7.049916206369744032e-15 -8.458842092382146572e-16 -1 -3.271875475476633966e-31 26.6699999999999946 -2.255973186038317964e-14 1.031594135201402412e-14 1 I I #
face $-1 $50 $51 $2 $-1 $52 forward single #
loop $-1 $-1 $53 $18 #
cone-surface $-1 0 -86.27940013101100192 0 0 -1 0 -40.02698539833032498 0 0 1 I I -0.844346032251594103 0.5357982622414801943 40.02698539833032498 forward I I I I #
coedge $-1 $54 $55 $56 $57 forward $19 $-1 #
coedge $-1 $24 $21 $58 $59 reversed $12 $-1 #
coedge $-1 $21 $24 $60 $61 forward $12 $-1 #
coedge $-1 $55 $54 $21 $38 reversed $19 $-1 #
edge $-1 $62 0 $63 3.141592653589793116 $21 $64 forward 7 unknown #
coedge $-1 $65 $26 $22 $40 forward $46 $-1 #
edge $-1 $29 9.227575445265692724e-17 $44 1.570796326794894782 $22 $66 forward 7 unknown #
coedge $-1 $26 $65 $23 $42 reversed $46 $-1 #
edge $-1 $28 9.227575445265692724e-17 $43 1.570796326794894782 $23 $67 forward 7 unknown #
vertex $-1 $42 $68 #
vertex $-1 $40 $69 #
ellipse-curve $-1 0 -115.3159999999999883 0 0 -1 0 35.81399999999999295 0 4.385805195579461174e-15 1 I I #
loop $-1 $-1 $26 $70 #
ellipse-curve $-1 0 -124.4599999999999795 -1.409983241273948727e-15 8.458842092382146572e-16 1 1.483075236880234788e-31 26.6699999999999946 -2.255973186038317964e-14 4.676008386918228418e-15 1 I I #
point $-1 26.6699999999999946 -124.460000000000008 3.26602514564427969e-15 #
point $-1 -26.6699999999999946 -124.460000000000008 -6.53205029128855938e-15 #
face $-1 $71 $72 $2 $-1 $73 forward single #
loop $-1 $-1 $74 $31 #
torus-surface $-1 0 -7.366000000000000547 0 0 -1 0 133.0960000000000036 16.76399999999999935 -1 0 0 forward_v I I I I #
coedge $-1 $75 $76 $77 $78 forward $32 $-1 #
coedge $-1 $37 $34 $79 $80 reversed $19 $-1 #
coedge $-1 $34 $37 $81 $82 forward $19 $-1 #
coedge $-1 $76 $75 $34 $57 reversed $32 $-1 #
edge $-1 $83 -1.573104457557829984e-32 $84 3.141592653589793116 $34 $85 forward 7 unknown #
coedge $-1 $86 $87 $35 $59 forward $88 $-1 #
edge $-1 $44 0 $63 0.8399999999999999689 $35 $89 forward 7 unknown #
coedge $-1 $87 $86 $36 $61 reversed $88 $-1 #
edge $-1 $43 0 $62 0.8399999999999994138 $36 $90 forward 7 unknown #
vertex $-1 $61 $91 #
vertex $-1 $59 $92 #
ellipse-curve $-1 0 -93.97999999999998977 0 0 -1 0 35.81400000000000006 0 4.385805195579461963e-15 1 I I #
coedge $-1 $41 $39 $87 $93 reversed $46 $-1 #
ellipse-curve $-1 -26.66999999999997684 -115.3159999999999883 -6.532050291288557014e-15 2.449212707644755009e-16 -1.792853535035478591e-31 -1 -1.691979889528738315e-14 -9.144000000000007233 -2.504633374076712342e-30 1 I I #
ellipse-curve $-1 26.66999999999997684 -115.3159999999999883 3.266025145644278507e-15 -1.224606353822377505e-16 -8.964267675177392953e-32 1 1.691979889528738315e-14 -9.144000000000007233 1.252316687038356171e-30 1 I I #
point $-1 35.81399999999999295 -115.3159999999999883 4.385805195579461963e-15 #
point $-1 -35.81399999999999295 -115.3159999999999883 -8.771610391158922348e-15 #
face $-1 $-1 $46 $2 $-1 $94 forward single #
face $-1 $95 $96 $2 $-1 $97 forward single #
loop $-1 $-1 $98 $50 #
cone-surface $-1 0 15.55749999999999744 0 0 -1 0 -149.8599999999999852 0 0 1 I I 0 1 149.8599999999999852 forward I I I I #
coedge $-1 $99 $100 $101 $102 forward $51 $-1 #
coedge $-1 $56 $53 $103 $104 reversed $32 $-1 #
coedge $-1 $53 $56 $105 $106 forward $32 $-1 #
coedge $-1 $100 $99 $53 $78 reversed $51 $-1 #
edge $-1 $107 2.000856665080463875e-32 $108 3.141592653589793116 $53 $109 forward 7 unknown #
coedge $-1 $110 $111 $54 $80 forward $112 $-1 #
edge $-1 $63 7.442664330301445225e-63 $84 1.005343442217409677 $54 $113 forward 7 unknown #
coedge $-1 $111 $110 $55 $82 reversed $112 $-1 #
edge $-1 $62 -1.554117969728998539e-15 $83 1.005343442217409233 $55 $114 forward 7 unknown #
vertex $-1 $82 $115 #
vertex $-1 $80 $116 #
ellipse-curve $-1 0 -86.25929988109142244 0 0 -1 0 40.05866069006391683 0 4.905609040666696947e-15 1 I I #
coedge $-1 $60 $58 $111 $117 reversed $88 $-1 #
coedge $-1 $58 $60 $65 $93 forward $88 $-1 #
loop $-1 $-1 $87 $118 #
straight-curve $-1 -35.81399999999999295 -115.3159999999999883 -8.771610391158922348e-15 0 25.39999999999999858 0 I I #
straight-curve $-1 35.81399999999999295 -115.3159999999999883 4.385805195579461174e-15 0 25.39999999999999858 0 I I #
point $-1 35.81399999999999295 -93.98000000000000398 4.385805195579461174e-15 #
point $-1 -35.81400000000000006 -93.97999999999998977 -8.771610391158923926e-15 #
edge $-1 $43 -1.968089087778306455e-32 $44 3.141592653589793116 $65 $119 forward 7 unknown #
torus-surface $-1 0 -115.3159999999999883 0 0 -1 0 26.6699999999999946 9.143999999999998352 -1 0 0 forward_v I I I I #
face $-1 $120 $121 $2 $-1 $122 reversed single #
loop $-1 $-1 $123 $71 #
torus-surface $-1 0 3.809999999999999609 0 0 -1 0 144.7799999999999727 5.079999999999999183 -1 0 0 forward_v I I I I #
coedge $-1 $124 $125 $126 $127 forward $72 $-1 #
coedge $-1 $77 $74 $128 $129 reversed $51 $-1 #
coedge $-1 $74 $77 $130 $131 forward $51 $-1 #
coedge $-1 $125 $124 $74 $102 reversed $72 $-1 #
edge $-1 $132 0 $133 3.141592653589793116 $74 $134 forward 7 unknown #
coedge $-1 $135 $136 $75 $104 forward $137 $-1 #
edge $-1 $84 0 $108 4.756952806156477642 $75 $138 forward 7 unknown #
coedge $-1 $136 $135 $76 $106 reversed $137 $-1 #
edge $-1 $83 -1.726270682013105997e-16 $107 4.756952806156476754 $76 $139 forward 7 unknown #
vertex $-1 $106 $140 #
vertex $-1 $104 $141 #
ellipse-curve $-1 0 -21.5206168846657242 0 0 -1 0 142.0781220682161745 0 1.739897710238888371e-14 1 I I #
coedge $-1 $81 $79 $136 $142 reversed $112 $-1 #
coedge $-1 $79 $81 $86 $117 forward $112 $-1 #
loop $-1 $-1 $111 $143 #
ellipse-curve $-1 -44.95800000000001972 -93.97999999999998977 -1.101117049102928926e-14 -2.449212707644753037e-16 4.987148164689106071e-32 1 9.144000000000019668 0 2.239560099870366518e-15 1 I I #
ellipse-curve $-1 44.95800000000001972 -93.97999999999998977 5.50558524551464463e-15 1.224606353822376519e-16 2.493574082344553035e-32 -1 -9.144000000000019668 0 -1.119780049935183259e-15 1 I I #
point $-1 40.05866069006390262 -86.25929988109140822 4.90560904066669458e-15 #
point $-1 -40.05866069006391683 -86.25929988109142244 -9.811218081333393894e-15 #
edge $-1 $62 0 $63 3.141592653589793116 $86 $144 forward 7 unknown #
face $-1 $70 $88 $2 $-1 $145 forward single #
ellipse-curve $-1 0 -115.3159999999999883 0 0 1 0 35.81399999999999295 0 4.385805195579461174e-15 1 I I #
face $-1 $146 $147 $2 $-1 $148 forward single #
loop $-1 $-1 $149 $95 #
plane-surface $-1 0 8.889999999999998792 0 0 -1 0 -25.39999999999999858 0 0 forward_v I I I I #
coedge $-1 $150 $151 $149 $152 forward $96 $-1 #
coedge $-1 $101 $98 $153 $154 reversed $72 $-1 #
coedge $-1 $98 $101 $155 $156 forward $72 $-1 #
coedge $-1 $151 $150 $98 $127 reversed $96 $-1 #
edge $-1 $157 0 $158 3.141592653589793116 $98 $159 forward 7 unknown #
coedge $-1 $160 $161 $99 $129 forward $162 $-1 #
edge $-1 $108 4.045338634031335042e-16 $133 1.005343442217405681 $99 $163 forward 7 unknown #
coedge $-1 $161 $160 $100 $131 reversed $162 $-1 #
edge $-1 $107 -1.415868521910967955e-15 $132 1.005343442217405903 $100 $164 forward 7 unknown #
vertex $-1 $131 $165 #
vertex $-1 $129 $166 #
ellipse-curve $-1 0 -7.366000000000003212 0 0 -1 0 149.8599999999999852 0 1.835195081838214193e-14 1 I I #
coedge $-1 $105 $103 $161 $167 reversed $137 $-1 #
coedge $-1 $103 $105 $110 $142 forward $137 $-1 #
loop $-1 $-1 $136 $168 #
straight-curve $-1 -40.05866069006391683 -86.25929988109142244 -9.811218081333393894e-15 -21.44638921919048613 13.60927586093359665 -5.252676900873682144e-15 I I #
straight-curve $-1 40.05866069006391683 -86.25929988109142244 4.905609040666696947e-15 21.44638921919048613 13.60927586093359665 2.626338450436841072e-15 I I #
point $-1 142.0781220682161461 -21.52061688466573486 1.739897710238888371e-14 #
point $-1 -142.0781220682161745 -21.5206168846657242 -3.479795420477776742e-14 #
edge $-1 $83 1.573104457557829984e-32 $84 3.141592653589793116 $110 $169 forward 7 unknown #
face $-1 $118 $112 $2 $-1 $170 reversed single #
ellipse-curve $-1 0 -93.97999999999998977 0 0 1 0 35.81400000000000006 0 4.385805195579461963e-15 1 I I #
cone-surface $-1 0 15.55749999999999744 0 0 -1 0 -35.81399999999999295 0 0 1 I I 0 1 35.81399999999999295 forward I I I I #
face $-1 $171 $172 $2 $-1 $173 forward single #
loop $-1 $-1 $174 $120 #
torus-surface $-1 0 3.809999999999999609 0 0 -1 0 144.7799999999999727 5.079999999999999183 -1 0 0 forward_v I I I I #
coedge $-1 $175 $175 $123 $152 reversed $121 $-1 #
coedge $-1 $126 $123 $176 $177 reversed $96 $-1 #
coedge $-1 $123 $126 $178 $179 forward $96 $-1 #
edge $-1 $180 1.224606353822377258e-16 $181 3.141592653589793116 $123 $182 forward 7 unknown #
coedge $-1 $183 $184 $124 $154 forward $172 $-1 #
edge $-1 $133 0 $158 0.4400000000000001688 $124 $185 forward 7 unknown #
coedge $-1 $184 $183 $125 $156 reversed $172 $-1 #
edge $-1 $132 1.049029629567077155e-16 $157 0.4400000000000001132 $125 $186 forward 7 unknown #
vertex $-1 $156 $187 #
vertex $-1 $154 $188 #
ellipse-curve $-1 0 3.810000000000000941 0 0 -1 0 149.8599999999999852 0 1.835195081838214193e-14 1 I I #
coedge $-1 $130 $128 $184 $189 reversed $162 $-1 #
coedge $-1 $128 $130 $135 $167 forward $162 $-1 #
loop $-1 $-1 $161 $171 #
ellipse-curve $-1 -133.0959999999999184 -7.365999999999954362 -3.259804145366858069e-14 2.449212707644767828e-16 6.79115793062159403e-31 -1 -8.982122068216247257 -14.15461688466576895 -2.199912751109183185e-15 1 I I #
ellipse-curve $-1 133.0959999999999184 -7.365999999999954362 1.629902072683429034e-14 -1.224606353822383914e-16 3.395578965310797015e-31 1 8.982122068216247257 -14.15461688466576895 1.099956375554591592e-15 1 I I #
point $-1 149.8600000000000136 -7.366000000000000547 1.835195081838214509e-14 #
point $-1 -149.8599999999999852 -7.366000000000003212 -3.670390163676428386e-14 #
edge $-1 $107 -2.000856665080463875e-32 $108 3.141592653589793116 $135 $190 forward 7 unknown #
face $-1 $143 $137 $2 $-1 $191 forward single #
ellipse-curve $-1 0 -86.25929988109142244 0 0 1 0 40.05866069006391683 0 4.905609040666696947e-15 1 I I #
torus-surface $-1 0 -93.97999999999998977 0 0 -1 0 44.95799999999999841 9.143999999999998352 -1 0 0 forward_v I I I I #
face $-1 $168 $162 $2 $-1 $192 forward single #
loop $-1 $-1 $184 $146 #
cone-surface $-1 0 15.55749999999999744 0 0 -1 0 -149.8599999999999852 0 0 1 I I 0 1 149.8599999999999852 forward I I I I #
coedge $-1 $176 $178 $183 $193 forward $147 $-1 #
coedge $-1 $149 $149 $194 $195 forward $121 $-1 #
coedge $-1 $194 $174 $150 $177 forward $147 $-1 #
edge $-1 $158 -1.966930555438533132e-17 $181 1.570796326794894782 $150 $196 forward 7 unknown #
coedge $-1 $174 $194 $151 $179 reversed $147 $-1 #
edge $-1 $157 -4.567649845406665496e-16 $180 1.570796326794894782 $151 $197 forward 7 unknown #
vertex $-1 $179 $198 #
vertex $-1 $177 $199 #
ellipse-curve $-1 0 8.889999999999998792 0 0 -1 0 144.7799999999999727 0 0 1 I I #
coedge $-1 $155 $153 $174 $193 reversed $172 $-1 #
coedge $-1 $153 $155 $160 $189 forward $172 $-1 #
straight-curve $-1 -149.8599999999999852 -7.366000000000003212 -3.670390163676428386e-14 0 25.39999999999999858 0 I I #
straight-curve $-1 149.8599999999999852 -7.366000000000003212 1.835195081838214193e-14 0 25.39999999999999858 0 I I #
point $-1 149.8599999999999852 3.809999999999998721 1.835195081838214193e-14 #
point $-1 -149.8599999999999852 3.810000000000000941 -3.670390163676428386e-14 #
edge $-1 $132 0 $133 3.141592653589793116 $160 $200 forward 7 unknown #
ellipse-curve $-1 0 -21.5206168846657242 0 0 1 0 142.0781220682161745 0 1.739897710238888371e-14 1 I I #
cone-surface $-1 0 -86.27940013101100192 0 0 -1 0 -40.02698539833032498 0 0 1 I I -0.844346032251594103 0.5357982622414801943 40.02698539833032498 forward I I I I #
torus-surface $-1 0 -7.366000000000000547 0 0 -1 0 133.0960000000000036 16.76399999999999935 -1 0 0 forward_v I I I I #
edge $-1 $157 0 $158 3.141592653589793116 $183 $201 forward 7 unknown #
coedge $-1 $178 $176 $175 $195 reversed $147 $-1 #
edge $-1 $180 -1.224606353822377258e-16 $181 3.141592653589793116 $175 $202 forward 7 unknown #
ellipse-curve $-1 -144.7799999999999727 3.809999999999991172 -3.54597015812807516e-14 2.449212707644748107e-16 1.213406653164344692e-31 -1 -5.080000000000004512 9.869882688917640698e-15 -1.244200055483533251e-15 1 I I #
ellipse-curve $-1 144.7799999999999727 3.809999999999991172 1.77298507906403758e-14 -1.224606353822374053e-16 6.06703326582172346e-32 1 5.080000000000004512 9.869882688917640698e-15 6.221000277417666256e-16 1 I I #
point $-1 144.7799999999999727 8.889999999999998792 1.77298507906403758e-14 #
point $-1 -144.7799999999999727 8.889999999999998792 0 #
ellipse-curve $-1 0 -7.366000000000003212 0 0 1 0 149.8599999999999852 0 1.835195081838214193e-14 1 I I #
ellipse-curve $-1 0 3.810000000000000941 0 0 1 0 149.8599999999999852 0 1.835195081838214193e-14 1 I I #
ellipse-curve $-1 0 8.889999999999998792 0 0 1 0 144.7799999999999727 0 0 1 I I #
End-of-ACIS-data 