600 0 2 0           
24 FBMach with ACIS - 6.0.3 13 ACIS 6.0.3 NT 24 Wed May 23 19:34:48 2001 
1 9.9999999999999995e-007 1e-010 
body $2 $3 $-1 $4 #
bdycol-kcp $-1 1 4 $5 $6 $7 $8 #
model_id-kcp-attrib $-1 $-1 $-1 $0 1 990660888 40 1814560769 1 #
lump $-1 $-1 $9 $0 #
transform $-1 1 0 0 0 1 0 0 0 1 0 0 0 1 no_rotate no_reflect no_shear #
body $10 $11 $-1 $12 #
body $13 $14 $-1 $15 #
body $16 $17 $-1 $18 #
body $19 $20 $-1 $21 #
shell $-1 $-1 $-1 $22 $-1 $3 #
model_id-kcp-attrib $-1 $-1 $-1 $5 1 990660888 40 1814560770 1 #
lump $-1 $-1 $23 $5 #
transform $-1 1 0 0 0 1 0 0 0 1 0 0 0.053749999999999992 1 no_rotate no_reflect no_shear #
rgb_color-st-attrib $-1 $24 $-1 $6 1 1 0.5 #
lump $-1 $-1 $25 $6 #
transform $-1 1 0 0 0 1 0 0 0 1 0 0 0.106 1 rotate no_reflect no_shear #
rgb_color-st-attrib $-1 $26 $-1 $7 1 1 0.5 #
lump $-1 $-1 $27 $7 #
transform $-1 1 0 0 0 -1 0 0 0 -1 0 0 0.0014999999999999974 1 rotate no_reflect no_shear #
rgb_color-st-attrib $-1 $28 $-1 $8 0.5 1 1 #
lump $-1 $-1 $29 $8 #
transform $-1 1 0 0 0 1 0 0 0 1 0 0 0.053749999999999992 1 no_rotate no_reflect no_shear #
face $30 $31 $32 $9 $-1 $33 forward single #
shell $-1 $-1 $-1 $34 $-1 $11 #
model_id-kcp-attrib $-1 $-1 $13 $6 1 990660888 70 1816526851 1 #
shell $-1 $-1 $-1 $35 $-1 $14 #
model_id-kcp-attrib $-1 $-1 $16 $7 1 990660888 70 1816526852 1 #
shell $-1 $-1 $-1 $36 $-1 $17 #
model_id-kcp-attrib $-1 $-1 $19 $8 1 990660888 140 1821114373 1 #
shell $-1 $-1 $-1 $37 $-1 $20 #
model_id-kcp-attrib $-1 $38 $-1 $22 1 990660888 40 1814560769 7 #
face $39 $40 $41 $9 $-1 $42 forward single #
loop $-1 $-1 $43 $22 #
plane-surface $-1 0 0 0.1075 0 0 1 1 0 0 forward_v I I I I #
face $44 $45 $46 $23 $-1 $47 forward single #
face $-1 $48 $49 $25 $-1 $50 reversed single #
face $-1 $51 $52 $27 $-1 $53 reversed single #
face $-1 $54 $55 $29 $-1 $56 reversed single #
model_id-kcp-attrib $-1 $57 $30 $22 1 990660888 40 1814560769 2 #
model_id-kcp-attrib $-1 $58 $-1 $31 1 990660888 40 1814560769 3 #
face $59 $60 $61 $9 $-1 $62 forward single #
loop $-1 $63 $64 $31 #
cone-surface $-1 0 0 -0.87757499999999999 0 0 -1 0.999999999999998 0 0 1 I I 0.70710678118654702 0.70710678118654802 0.999999999999998 forward I I I I #
coedge $-1 $43 $43 $64 $65 reversed $32 $-1 #
model_id-kcp-attrib $-1 $-1 $-1 $34 1 990660888 40 1814560770 2 #
face $66 $67 $68 $23 $-1 $69 reversed single #
loop $-1 $-1 $70 $34 #
plane-surface $-1 0 0 0.053750000000000006 0 0 1 1 0 0 forward_v I I I I #
face $-1 $71 $72 $25 $-1 $73 forward single #
loop $-1 $74 $75 $35 #
cone-surface $-1 0 0 0.0074624999999996638 0 0 1 0.0089625 0 0 1 I I -0.70710678118656045 0.70710678118653458 0.0089625 forward I I I I #
face $-1 $76 $77 $27 $-1 $78 forward single #
loop $-1 $79 $80 $36 #
cone-surface $-1 0 0 0.0074625000000006457 0 0 1 0.0089625 0 0 1 I I -0.70710678118652193 0.70710678118657311 0.0089625 forward I I I I #
face $-1 $81 $82 $29 $-1 $56 reversed single #
loop $-1 $-1 $83 $37 #
cone-surface $-1 2.0161063828996353e-034 0 0.053750000000000006 0 0 1 0.017925 -4.3902137784532219e-018 0 1 I I 0 1 0.017925 forward I I I I #
pid_name-sg-attrib $-1 $-1 $38 $22 7 114 119 105 108 115 111 110 784252905 391 1 #
pid_name-sg-attrib $-1 $-1 $39 $31 7 114 119 105 108 115 111 110 784252905 392 1 #
model_id-kcp-attrib $-1 $84 $-1 $40 1 990660888 40 1814560769 4 #
face $85 $86 $87 $9 $-1 $88 forward single #
loop $-1 $89 $90 $40 #
cone-surface $-1 0 0 0 0 0 1 0.017925 0 0 1 I I 0 1 0.017925 forward I I I I #
loop $-1 $-1 $91 $31 #
coedge $-1 $64 $64 $43 $65 forward $41 $-1 #
edge $92 $93 -6.2831853071795853 $93 5.6654984523230014e-016 $43 $94 reversed 7 unknown #
model_id-kcp-attrib $-1 $-1 $-1 $45 1 990660888 40 1814560770 3 #
face $-1 $95 $96 $23 $-1 $97 reversed single #
loop $-1 $-1 $98 $45 #
plane-surface $-1 0 0 -0.053750000000000006 0 0 1 1 0 0 forward_v I I I I #
coedge $-1 $99 $100 $101 $102 forward $46 $-1 #
face $-1 $-1 $103 $25 $-1 $104 forward single #
loop $-1 $105 $106 $48 #
cone-surface $-1 0 0 0 0 0 1 0.017925 0 0 1 I I 0 1 0.017925 forward I I I I #
loop $-1 $-1 $107 $35 #
coedge $-1 $75 $75 $108 $109 reversed $49 $-1 #
face $-1 $-1 $110 $27 $-1 $111 forward single #
loop $-1 $112 $113 $51 #
cone-surface $-1 0 0 0 0 0 1 0.017925 0 0 1 I I 0 1 0.017925 forward I I I I #
loop $-1 $-1 $114 $36 #
coedge $-1 $80 $80 $115 $116 reversed $52 $-1 #
face $-1 $117 $118 $29 $-1 $56 reversed single #
loop $-1 $-1 $119 $54 #
coedge $-1 $120 $121 $122 $123 reversed $55 $-1 #
pid_name-sg-attrib $-1 $-1 $59 $40 7 114 119 105 108 115 111 110 784252905 393 1 #
model_id-kcp-attrib $-1 $124 $-1 $60 1 990660888 40 1814560769 5 #
face $125 $-1 $126 $9 $-1 $127 reversed single #
loop $-1 $128 $129 $60 #
cone-surface $-1 0 0 0.98507500000000003 0 0 1 1 0 0 1 I I 0.70710678118654702 0.70710678118654802 1 forward I I I I #
loop $-1 $-1 $130 $40 #
coedge $-1 $90 $90 $91 $131 reversed $61 $-1 #
coedge $-1 $91 $91 $90 $131 forward $63 $-1 #
attrib_edge_convexity-kcp-attrib $-1 $132 $-1 $65 1 #
vertex $-1 $65 $133 #
ellipse-curve $-1 0 0 0.1075 0 0 1 -0.014925000000000001 0 0 1 I I #
face $-1 $134 $135 $23 $-1 $136 reversed single #
loop $-1 $-1 $137 $67 #
plane-surface $-1 0 -0.017925 0 0 1 0 0 0 1 forward_v I I I I #
coedge $-1 $138 $139 $140 $141 forward $68 $-1 #
coedge $-1 $142 $70 $143 $144 forward $46 $-1 #
coedge $-1 $70 $142 $145 $146 forward $46 $-1 #
coedge $-1 $147 $148 $70 $102 reversed $149 $-1 #
edge $-1 $150 -0.017925 $151 0.017925 $101 $152 forward 7 unknown #
loop $-1 $153 $108 $71 #
plane-surface $-1 0 0 0.0015000000000000013 0 0 1 1 0 0 forward_v I I I I #
loop $-1 $-1 $154 $48 #
coedge $-1 $106 $106 $107 $155 reversed $72 $-1 #
coedge $-1 $107 $107 $106 $155 forward $74 $-1 #
coedge $-1 $108 $108 $75 $109 forward $103 $-1 #
edge $-1 $156 -3.1415926535897931 $156 3.1415926535897931 $108 $157 forward 7 unknown #
loop $-1 $158 $115 $76 #
plane-surface $-1 0 0 0.0015000000000000026 0 0 1 1 0 0 forward_v I I I I #
loop $-1 $-1 $159 $51 #
coedge $-1 $113 $113 $114 $160 reversed $77 $-1 #
coedge $-1 $114 $114 $113 $160 forward $79 $-1 #
coedge $-1 $115 $115 $80 $116 forward $110 $-1 #
edge $-1 $161 -3.1415926535897931 $161 3.1415926535897931 $115 $162 forward 7 unknown #
face $-1 $163 $164 $29 $-1 $56 reversed single #
loop $-1 $-1 $165 $81 #
coedge $-1 $166 $167 $168 $169 reversed $82 $-1 #
coedge $-1 $170 $83 $171 $172 reversed $55 $-1 #
coedge $-1 $83 $170 $173 $174 reversed $55 $-1 #
coedge $-1 $175 $176 $177 $123 forward $178 $-1 #
edge $-1 $179 -0.10750000000000001 $180 0 $122 $181 forward 7 unknown #
pid_name-sg-attrib $-1 $-1 $85 $60 7 114 119 105 108 115 111 110 784252905 394 1 #
model_id-kcp-attrib $-1 $182 $-1 $86 1 990660888 40 1814560769 8 #
loop $-1 $-1 $183 $86 #
plane-surface $-1 0 0 0 0 0 1 1 0 0 forward_v I I I I #
loop $-1 $-1 $184 $60 #
coedge $-1 $129 $129 $183 $185 forward $87 $-1 #
coedge $-1 $130 $130 $184 $186 reversed $89 $-1 #
edge $187 $188 -3.1415926535897936 $188 3.1415926535897927 $90 $189 forward 7 unknown #
convexity-sys-attrib $-1 $-1 $92 $65 #
point $-1 -0.014925000000000001 8.4557564400920799e-018 0.1075 #
face $-1 $190 $191 $23 $-1 $192 reversed single #
loop $-1 $-1 $193 $95 #
plane-surface $-1 -0.017925 0 0 1 0 0 0 0 -1 forward_v I I I I #
coedge $-1 $194 $145 $195 $196 forward $96 $-1 #
coedge $-1 $197 $98 $194 $198 forward $68 $-1 #
coedge $-1 $98 $197 $199 $200 forward $68 $-1 #
coedge $-1 $148 $147 $98 $141 reversed $149 $-1 #
edge $-1 $201 -0.017925 $202 0.017925 $140 $203 forward 7 unknown #
coedge $-1 $100 $99 $204 $205 forward $46 $-1 #
coedge $-1 $206 $207 $99 $144 reversed $191 $-1 #
edge $-1 $151 -0.017925 $208 0.017925 $143 $209 forward 7 unknown #
coedge $-1 $137 $210 $100 $146 reversed $96 $-1 #
edge $-1 $211 -0.017925 $150 0.017925 $145 $212 forward 7 unknown #
coedge $-1 $140 $101 $210 $213 forward $149 $-1 #
coedge $-1 $101 $140 $206 $214 reversed $149 $-1 #
loop $-1 $-1 $147 $190 #
vertex $-1 $102 $215 #
vertex $-1 $102 $216 #
straight-curve $-1 0.017925 0 0.053750000000000006 0 1 0 I I #
loop $-1 $-1 $217 $71 #
coedge $-1 $154 $154 $217 $218 reversed $105 $-1 #
edge $-1 $219 0 $219 6.2831853071795862 $106 $220 forward 7 unknown #
vertex $-1 $109 $221 #
ellipse-curve $-1 0 0 0.0015000000000000013 0 0 -1 0.014924999999999879 0 0 1 I I #
loop $-1 $-1 $222 $76 #
coedge $-1 $159 $159 $222 $223 reversed $112 $-1 #
edge $-1 $224 0 $224 6.2831853071795862 $113 $225 forward 7 unknown #
vertex $-1 $116 $226 #
ellipse-curve $-1 0 0 0.0015000000000000031 0 0 -1 0.014925000000000212 0 0 1 I I #
face $-1 $227 $228 $29 $-1 $229 reversed single #
loop $-1 $-1 $230 $117 #
coedge $-1 $231 $232 $233 $234 reversed $118 $-1 #
coedge $-1 $235 $119 $236 $237 reversed $82 $-1 #
coedge $-1 $119 $235 $83 $123 forward $82 $-1 #
coedge $-1 $238 $239 $119 $169 forward $240 $-1 #
edge $-1 $241 -3.1415926535897931 $180 -1.5707963267948968 $168 $242 forward 7 unknown #
coedge $-1 $121 $120 $232 $243 forward $55 $-1 #
coedge $-1 $244 $245 $120 $172 forward $246 $-1 #
edge $-1 $247 2.449212707644754e-016 $179 1.5707963267948968 $171 $248 forward 7 unknown #
coedge $-1 $249 $250 $121 $174 forward $251 $-1 #
edge $-1 $180 -1.5707963267948968 $252 -2.449212707644754e-016 $173 $242 forward 7 unknown #
coedge $-1 $253 $122 $250 $254 reversed $178 $-1 #
coedge $-1 $122 $253 $244 $255 reversed $178 $-1 #
coedge $-1 $256 $257 $167 $123 reversed $258 $-1 #
loop $-1 $-1 $122 $259 #
vertex $-1 $255 $260 #
vertex $-1 $261 $262 #
straight-curve $-1 2.0161063828996353e-034 0.017925 0.053750000000000006 0 0 1 I I #
model_id-kcp-attrib $-1 $263 $125 $86 1 990660888 40 1814560769 6 #
coedge $-1 $183 $183 $129 $185 reversed $126 $-1 #
coedge $-1 $184 $184 $130 $186 forward $128 $-1 #
edge $264 $265 -3.1415926535897891 $265 3.1415926535897971 $183 $266 forward 7 unknown #
edge $267 $268 -6.2831853071795862 $268 0 $130 $269 reversed 7 unknown #
attrib_edge_convexity-kcp-attrib $-1 $270 $-1 $131 1 #
vertex $-1 $131 $271 #
ellipse-curve $-1 0 0 0.1045 0 0 1 0.017925 0 0 1 I I #
face $-1 $-1 $149 $23 $-1 $272 reversed single #
loop $-1 $-1 $206 $134 #
plane-surface $-1 0 0.017925 0 0 -1 0 0 0 -1 forward_v I I I I #
coedge $-1 $273 $204 $207 $274 forward $135 $-1 #
coedge $-1 $210 $137 $138 $198 reversed $96 $-1 #
coedge $-1 $204 $273 $137 $196 reversed $135 $-1 #
edge $-1 $211 -0.053750000000000006 $275 0.053750000000000006 $195 $276 forward 7 unknown #
coedge $-1 $139 $138 $273 $277 forward $68 $-1 #
edge $-1 $202 -0.017925 $275 0.017925 $194 $278 forward 7 unknown #
coedge $-1 $207 $206 $139 $200 reversed $191 $-1 #
edge $-1 $279 -0.017925 $201 0.017925 $199 $280 forward 7 unknown #
vertex $-1 $141 $281 #
vertex $-1 $213 $282 #
straight-curve $-1 0.017925 0 -0.053750000000000006 0 -1 0 I I #
coedge $-1 $193 $195 $142 $205 reversed $135 $-1 #
edge $-1 $208 -0.017925 $211 0.017925 $204 $283 forward 7 unknown #
coedge $-1 $199 $143 $148 $214 forward $191 $-1 #
coedge $-1 $143 $199 $193 $274 reversed $191 $-1 #
vertex $-1 $144 $284 #
straight-curve $-1 0 0.017925 0.053750000000000006 -1 0 0 I I #
coedge $-1 $145 $194 $147 $213 reversed $96 $-1 #
vertex $-1 $205 $285 #
straight-curve $-1 0 -0.017925 0.053750000000000006 1 0 0 I I #
edge $-1 $150 -0.053750000000000006 $202 0.053750000000000006 $147 $286 forward 7 unknown #
edge $-1 $151 -0.053750000000000006 $201 0.053750000000000006 $148 $287 forward 7 unknown #
point $-1 0.017925 -0.017925 0.053750000000000006 #
point $-1 0.017925 0.017925 0.053750000000000006 #
coedge $-1 $217 $217 $154 $218 forward $153 $-1 #
edge $-1 $288 0 $288 6.2831853071795862 $217 $289 forward 7 unknown #
vertex $-1 $155 $290 #
ellipse-curve $-1 0 0 -0.0015000000000000013 0 0 -1 0.017925 0 0 1 I I #
point $-1 -0.014924999999999879 1.8277249830798831e-018 0.0015000000000000013 #
coedge $-1 $222 $222 $159 $223 forward $158 $-1 #
edge $-1 $291 0 $291 6.2831853071795862 $222 $292 forward 7 unknown #
vertex $-1 $160 $293 #
ellipse-curve $-1 0 0 -0.0015000000000000026 0 0 -1 0.017925 0 0 1 I I #
point $-1 -0.014925000000000212 1.8277249830799239e-018 0.0015000000000000031 #
face $-1 $294 $258 $29 $-1 $295 reversed single #
loop $-1 $-1 $296 $163 #
plane-surface $-1 0.017925 0 0 -1 0 0 0 0 1 forward_v I I I I #
coedge $-1 $297 $298 $299 $300 reversed $164 $-1 #
coedge $-1 $301 $165 $298 $302 forward $118 $-1 #
coedge $-1 $165 $301 $303 $243 reversed $118 $-1 #
coedge $-1 $304 $305 $165 $234 forward $306 $-1 #
edge $-1 $307 -1.5707963267948963 $247 2.449212707644754e-016 $233 $248 forward 7 unknown #
coedge $-1 $167 $166 $308 $309 reversed $82 $-1 #
coedge $-1 $310 $311 $312 $237 forward $313 $-1 #
edge $-1 $314 -0.10750000000000001 $241 0 $236 $315 forward 7 unknown #
coedge $-1 $239 $168 $257 $261 forward $240 $-1 #
coedge $-1 $168 $238 $310 $316 forward $240 $-1 #
loop $-1 $-1 $168 $317 #
vertex $-1 $318 $319 #
ellipse-curve $-1 2.0161063828996353e-034 0 0.053750000000000006 0 0 -1 0.017925 -4.3902137784532219e-018 0 1 I I #
edge $-1 $247 -0.10750000000000001 $252 0 $303 $320 forward 7 unknown #
coedge $-1 $245 $171 $176 $255 forward $246 $-1 #
coedge $-1 $171 $244 $321 $322 forward $246 $-1 #
loop $-1 $-1 $171 $323 #
vertex $-1 $324 $325 #
ellipse-curve $-1 2.0161063828996353e-034 0 -0.053750000000000006 0 0 1 0.017925 -4.3902137784532219e-018 0 1 I I #
coedge $-1 $250 $173 $326 $327 forward $251 $-1 #
coedge $-1 $173 $249 $175 $254 forward $251 $-1 #
loop $-1 $-1 $173 $328 #
vertex $-1 $327 $329 #
coedge $-1 $176 $175 $330 $331 forward $178 $-1 #
edge $-1 $332 -0.017925 $180 -2.0161063828996353e-034 $175 $333 forward 7 unknown #
edge $-1 $179 2.0161063828996353e-034 $334 0.017925 $176 $335 forward 7 unknown #
coedge $-1 $336 $177 $337 $338 reversed $258 $-1 #
coedge $-1 $177 $336 $238 $261 reversed $258 $-1 #
loop $-1 $-1 $177 $227 #
face $-1 $339 $178 $29 $-1 $295 reversed single #
point $-1 2.0161063828996353e-034 0.017925 -0.053750000000000006 #
edge $-1 $180 -2.0161063828996353e-034 $340 0.017925 $257 $333 forward 7 unknown #
point $-1 2.0161063828996353e-034 0.017925 0.053750000000000006 #
pid_name-sg-attrib $-1 $-1 $182 $86 7 114 119 105 108 115 111 110 784252905 395 1 #
attrib_edge_convexity-kcp-attrib $-1 $341 $-1 $185 1 #
vertex $-1 $185 $342 #
ellipse-curve $-1 0 0 -5.2041704279304197e-018 3.4868813587473501e-016 0 1 -0.014925000000000001 0 5.2041704279304197e-018 1 I I #
attrib_edge_convexity-kcp-attrib $-1 $343 $-1 $186 1 #
vertex $-1 $186 $344 #
ellipse-curve $-1 0 0 0.0030000000000000001 0 0 1 -0.017925 2.1951068892266098e-018 0 1 I I #
convexity-sys-attrib $-1 $-1 $187 $131 #
point $-1 -0.017925 1.0155405975789e-017 0.1045 #
plane-surface $-1 0.017925 0 0 -1 0 0 0 0 1 forward_v I I I I #
coedge $-1 $195 $193 $197 $277 reversed $135 $-1 #
edge $-1 $208 -0.053750000000000006 $279 0.053750000000000006 $207 $345 forward 7 unknown #
vertex $-1 $277 $346 #
straight-curve $-1 -0.017925 -0.017925 0 0 0 -1 I I #
edge $-1 $275 -0.017925 $279 0.017925 $273 $347 forward 7 unknown #
straight-curve $-1 0 -0.017925 -0.053750000000000006 -1 0 0 I I #
vertex $-1 $200 $348 #
straight-curve $-1 0 0.017925 -0.053750000000000006 1 0 0 I I #
point $-1 0.017925 0.017925 -0.053750000000000006 #
point $-1 0.017925 -0.017925 -0.053750000000000006 #
straight-curve $-1 -0.017925 0 0.053750000000000006 0 -1 0 I I #
point $-1 -0.017925 0.017925 0.053750000000000006 #
point $-1 -0.017925 -0.017925 0.053750000000000006 #
straight-curve $-1 0.017925 -0.017925 0 0 0 -1 I I #
straight-curve $-1 0.017925 0.017925 0 0 0 -1 I I #
vertex $-1 $218 $349 #
ellipse-curve $-1 0 0 0.0015000000000000013 0 0 1 0.017925 0 0 1 I I #
point $-1 0.017925 0 -0.0015000000000000013 #
vertex $-1 $223 $350 #
ellipse-curve $-1 0 0 0.0015000000000000026 0 0 1 0.017925 0 0 1 I I #
point $-1 0.017925 0 -0.0015000000000000026 #
face $-1 $351 $352 $29 $-1 $353 reversed single #
plane-surface $-1 0 0.017925 0 0 -1 0 0 0 -1 forward_v I I I I #
coedge $-1 $321 $326 $170 $243 reversed $228 $-1 #
coedge $-1 $354 $230 $166 $237 forward $164 $-1 #
coedge $-1 $230 $354 $355 $302 reversed $164 $-1 #
coedge $-1 $356 $357 $230 $300 forward $358 $-1 #
edge $-1 $314 -3.1415926535897931 $307 -1.5707963267948963 $299 $248 forward 7 unknown #
coedge $-1 $232 $231 $359 $360 reversed $118 $-1 #
edge $-1 $307 -0.10750000000000001 $361 0 $355 $362 forward 7 unknown #
coedge $-1 $363 $364 $296 $243 forward $365 $-1 #
coedge $-1 $305 $233 $364 $324 forward $306 $-1 #
coedge $-1 $233 $304 $366 $367 forward $306 $-1 #
loop $-1 $-1 $233 $368 #
vertex $-1 $369 $370 #
coedge $-1 $371 $337 $235 $309 forward $372 $-1 #
edge $-1 $179 1.5707963267948968 $314 3.1415926535897931 $308 $248 forward 7 unknown #
coedge $-1 $373 $236 $239 $316 reversed $313 $-1 #
coedge $-1 $236 $373 $371 $374 reversed $313 $-1 #
coedge $-1 $375 $376 $297 $237 reversed $352 $-1 #
loop $-1 $-1 $236 $377 #
vertex $-1 $374 $378 #
straight-curve $-1 -0.017925 0 0.053750000000000006 0 0 1 I I #
edge $-1 $340 -0.017925 $241 0 $310 $379 forward 7 unknown #
face $-1 $328 $240 $29 $-1 $380 forward single #
edge $-1 $241 0 $381 0.017925 $376 $379 forward 7 unknown #
point $-1 -0.017925 0 0.053750000000000006 #
straight-curve $-1 0.017925 0 0.053750000000000006 0 0 1 I I #
coedge $-1 $330 $296 $245 $322 reversed $228 $-1 #
edge $-1 $334 -0.017925 $247 0 $321 $382 forward 7 unknown #
face $-1 $383 $246 $29 $-1 $384 reversed single #
edge $-1 $247 0 $385 0.017925 $364 $382 forward 7 unknown #
point $-1 0.017925 0 -0.053750000000000006 #
coedge $-1 $296 $330 $249 $327 reversed $228 $-1 #
edge $-1 $252 0 $332 0.017925 $326 $386 forward 7 unknown #
face $-1 $387 $251 $29 $-1 $380 forward single #
point $-1 0.017925 0 0.053750000000000006 #
coedge $-1 $326 $321 $253 $331 reversed $228 $-1 #
edge $-1 $332 -0.053750000000000006 $334 0.053750000000000006 $330 $388 forward 7 unknown #
vertex $-1 $327 $389 #
straight-curve $-1 0 0.017925 0.053750000000000006 -1 0 0 I I #
vertex $-1 $322 $390 #
straight-curve $-1 0 0.017925 -0.053750000000000006 1 0 0 I I #
coedge $-1 $257 $256 $373 $391 reversed $258 $-1 #
coedge $-1 $308 $371 $256 $338 forward $372 $-1 #
edge $-1 $392 -0.017925 $179 2.0161063828996353e-034 $256 $335 forward 7 unknown #
face $-1 $-1 $365 $29 $-1 $229 reversed single #
vertex $-1 $261 $393 #
convexity-sys-attrib $-1 $-1 $264 $185 #
point $-1 0.014925000000000001 6.2624864603962102e-017 0 #
convexity-sys-attrib $-1 $-1 $267 $186 #
point $-1 -0.017925 2.1951068892266098e-018 0.0030000000000000001 #
straight-curve $-1 -0.017925 0.017925 0 0 0 -1 I I #
point $-1 -0.017925 -0.017925 -0.053750000000000006 #
straight-curve $-1 -0.017925 0 -0.053750000000000006 0 1 0 I I #
point $-1 -0.017925 0.017925 -0.053750000000000006 #
point $-1 0.017925 0 0.0015000000000000013 #
point $-1 0.017925 0 0.0015000000000000026 #
face $-1 $317 $394 $29 $-1 $380 forward single #
loop $-1 $-1 $312 $294 #
plane-surface $-1 -0.017925 0 0 1 0 0 0 0 -1 forward_v I I I I #
coedge $-1 $298 $297 $395 $396 reversed $164 $-1 #
coedge $-1 $397 $398 $399 $302 forward $400 $-1 #
coedge $-1 $357 $299 $398 $369 forward $358 $-1 #
coedge $-1 $299 $356 $375 $401 forward $358 $-1 #
loop $-1 $-1 $299 $402 #
coedge $-1 $403 $404 $301 $360 forward $405 $-1 #
edge $-1 $252 -2.449212707644754e-016 $361 1.5707963267948963 $359 $242 forward 7 unknown #
vertex $-1 $406 $407 #
straight-curve $-1 2.0161063828996353e-034 -0.017925 0.053750000000000006 0 0 1 I I #
coedge $-1 $408 $303 $404 $409 reversed $365 $-1 #
coedge $-1 $303 $408 $304 $324 reversed $365 $-1 #
loop $-1 $-1 $303 $339 #
coedge $-1 $410 $399 $305 $367 reversed $411 $-1 #
edge $-1 $385 -0.017925 $307 -2.0161063828996353e-034 $366 $412 forward 7 unknown #
face $-1 $323 $306 $29 $-1 $384 reversed single #
edge $-1 $307 -2.0161063828996353e-034 $413 0.017925 $398 $412 forward 7 unknown #
point $-1 2.0161063828996353e-034 -0.017925 -0.053750000000000006 #
coedge $-1 $337 $308 $311 $374 forward $372 $-1 #
loop $-1 $-1 $308 $383 #
coedge $-1 $311 $310 $336 $391 forward $313 $-1 #
edge $-1 $314 0 $392 0.017925 $311 $414 forward 7 unknown #
coedge $-1 $415 $312 $357 $401 reversed $352 $-1 #
coedge $-1 $312 $415 $416 $318 reversed $352 $-1 #
face $-1 $259 $313 $29 $-1 $353 reversed single #
point $-1 -0.017925 0 -0.053750000000000006 #
straight-curve $-1 -0.017925 0 0.053750000000000006 0 -1 0 I I #
plane-surface $-1 0 0 0.053750000000000006 0 0 1 1 0 0 forward_v I I I I #
vertex $-1 $318 $417 #
straight-curve $-1 0.017925 0 -0.053750000000000006 0 -1 0 I I #
face $-1 $418 $372 $29 $-1 $384 reversed single #
plane-surface $-1 0 0 -0.053750000000000006 0 0 1 1 0 0 forward_v I I I I #
vertex $-1 $419 $420 #
straight-curve $-1 0.017925 0 0.053750000000000006 0 1 0 I I #
face $-1 $421 $405 $29 $-1 $380 forward single #
straight-curve $-1 0.017925 0.017925 0 0 0 -1 I I #
point $-1 0.017925 0.017925 0.053750000000000006 #
point $-1 0.017925 0.017925 -0.053750000000000006 #
edge $-1 $340 -0.053750000000000006 $392 0.053750000000000006 $336 $422 forward 7 unknown #
vertex $-1 $338 $423 #
point $-1 -0.017925 0.017925 0.053750000000000006 #
loop $-1 $-1 $395 $351 #
coedge $-1 $416 $424 $354 $396 forward $394 $-1 #
edge $-1 $361 1.5707963267948963 $241 3.1415926535897931 $395 $242 forward 7 unknown #
coedge $-1 $425 $355 $424 $426 reversed $400 $-1 #
coedge $-1 $355 $425 $356 $369 reversed $400 $-1 #
coedge $-1 $366 $427 $231 $302 reversed $411 $-1 #
loop $-1 $-1 $355 $418 #
edge $-1 $413 -0.017925 $314 0 $375 $414 forward 7 unknown #
face $-1 $368 $358 $29 $-1 $384 reversed single #
coedge $-1 $404 $359 $427 $406 forward $405 $-1 #
coedge $-1 $359 $403 $363 $409 forward $405 $-1 #
loop $-1 $-1 $359 $387 #
edge $-1 $361 2.0161063828996353e-034 $428 0.017925 $427 $429 forward 7 unknown #
point $-1 2.0161063828996353e-034 -0.017925 0.053750000000000006 #
coedge $-1 $364 $363 $410 $419 forward $365 $-1 #
edge $-1 $428 -0.017925 $252 0 $363 $386 forward 7 unknown #
coedge $-1 $427 $366 $408 $419 reversed $411 $-1 #
loop $-1 $-1 $399 $421 #
straight-curve $-1 0 -0.017925 -0.053750000000000006 -1 0 0 I I #
vertex $-1 $401 $430 #
straight-curve $-1 -0.017925 0 -0.053750000000000006 0 1 0 I I #
coedge $-1 $376 $375 $425 $431 reversed $352 $-1 #
coedge $-1 $424 $395 $376 $318 forward $394 $-1 #
point $-1 -0.017925 -0.017925 0.053750000000000006 #
face $-1 $377 $400 $29 $-1 $432 reversed single #
edge $-1 $428 -0.053750000000000006 $385 0.053750000000000006 $408 $433 forward 7 unknown #
point $-1 0.017925 -0.017925 -0.053750000000000006 #
face $-1 $402 $411 $29 $-1 $432 reversed single #
straight-curve $-1 -0.017925 0.017925 0 0 0 -1 I I #
point $-1 -0.017925 0.017925 -0.053750000000000006 #
coedge $-1 $395 $416 $397 $426 forward $394 $-1 #
coedge $-1 $398 $397 $415 $431 forward $400 $-1 #
edge $-1 $381 -0.017925 $361 2.0161063828996353e-034 $397 $429 forward 7 unknown #
coedge $-1 $399 $410 $403 $406 reversed $411 $-1 #
vertex $-1 $409 $434 #
straight-curve $-1 0 -0.017925 0.053750000000000006 1 0 0 I I #
point $-1 -0.017925 -0.017925 -0.053750000000000006 #
edge $-1 $381 -0.053750000000000006 $413 0.053750000000000006 $415 $435 forward 7 unknown #
plane-surface $-1 0 -0.017925 0 0 1 0 0 0 1 forward_v I I I I #
straight-curve $-1 0.017925 -0.017925 0 0 0 -1 I I #
point $-1 0.017925 -0.017925 0.053750000000000006 #
straight-curve $-1 -0.017925 -0.017925 0 0 0 -1 I I #
End-of-ACIS-data 