106 0 1 0           
-0 body $-1 $1 $-1 $-1 #
-1 lump $-1 $-1 $2 $0 #
-2 shell $-1 $-1 $-1 $3 $1 #
-3 face $-1 $4 $5 $2 $-1 $6 forward single #
-4 face $-1 $7 $8 $2 $-1 $9 reversed single #
-5 loop $-1 $-1 $10 $3 #
-6 plane-surface $-1 0.499 0.41199999999999998 4 0 -1 0 0 0 -1 0 I I I I #
-7 face $-1 $11 $12 $2 $-1 $13 reversed single #
-8 loop $-1 $-1 $14 $4 #
-9 cone-surface $-1 0.54959658815565349 0.28200000000000003 4 0 0 1 0.13 0 0 1 I I 0 1 0 I I I I #
-10 coedge $-1 $15 $16 $17 $18 0 $5 $-1 #
-11 face $-1 $19 $20 $2 $-1 $21 reversed single #
-12 loop $-1 $-1 $22 $7 #
-13 plane-surface $-1 0.67488159656980318 0.32500000000000001 4 0.86602540378445014 0.49999999999998007 0 0 0 -1 0 I I I I #
-14 coedge $-1 $23 $24 $25 $26 1 $8 $-1 #
-15 coedge $-1 $25 $10 $27 $28 0 $5 $-1 #
-16 coedge $-1 $10 $25 $29 $30 0 $5 $-1 #
-17 coedge $-1 $31 $32 $10 $18 1 $33 $-1 #
-18 edge $-1 $34 $35 $10 $36 1 #
-19 face $-1 $37 $38 $2 $-1 $39 reversed single #
-20 loop $-1 $-1 $40 $11 #
-21 cone-surface $-1 0.57500000000000007 0.23799999999999999 4 0 0 1 0.13 0 0 1 I I 0 1 0 I I I I #
-22 coedge $-1 $41 $42 $43 $44 1 $12 $-1 #
-23 coedge $-1 $43 $14 $45 $46 0 $8 $-1 #
-24 coedge $-1 $14 $43 $47 $48 0 $8 $-1 #
-25 coedge $-1 $16 $15 $14 $26 0 $5 $-1 #
-26 edge $-1 $49 $50 $25 $51 0 #
-27 coedge $-1 $52 $45 $15 $28 1 $53 $-1 #
-28 edge $-1 $35 $49 $15 $54 0 #
-29 coedge $-1 $47 $55 $16 $30 1 $56 $-1 #
-30 edge $-1 $50 $34 $16 $57 1 #
-31 coedge $-1 $58 $17 $55 $59 0 $33 $-1 #
-32 coedge $-1 $17 $58 $52 $60 0 $33 $-1 #
-33 loop $-1 $-1 $32 $61 #
-34 vertex $-1 $18 $62 #
-35 vertex $-1 $18 $63 #
-36 straight-curve $-1 0.44840341184434257 0.41199999999999998 4 0 0 1 I I #
-37 face $-1 $64 $65 $2 $-1 $66 reversed single #
-38 loop $-1 $-1 $67 $19 #
-39 plane-surface $-1 0.499 0.108 4 0 -1 0 0 0 -1 0 I I I I #
-40 coedge $-1 $68 $69 $70 $71 0 $20 $-1 #
-41 coedge $-1 $72 $22 $73 $74 0 $12 $-1 #
-42 coedge $-1 $22 $72 $75 $76 0 $12 $-1 #
-43 coedge $-1 $24 $23 $22 $44 0 $8 $-1 #
-44 edge $-1 $77 $78 $43 $79 0 #
-45 coedge $-1 $27 $73 $23 $46 1 $53 $-1 #
-46 edge $-1 $49 $77 $23 $80 1 #
-47 coedge $-1 $75 $29 $24 $48 1 $56 $-1 #
-48 edge $-1 $78 $50 $24 $81 0 #
-49 vertex $-1 $28 $82 #
-50 vertex $-1 $26 $83 #
-51 straight-curve $-1 0.54959658815565349 0.41199999999999998 4 0 0 1 I I #
-52 coedge $-1 $84 $27 $32 $60 1 $53 $-1 #
-53 loop $-1 $-1 $27 $85 #
-54 straight-curve $-1 0.44840341184434257 0.41199999999999998 4 1 0 0 I I #
-55 coedge $-1 $29 $86 $31 $59 1 $56 $-1 #
-56 loop $-1 $-1 $55 $87 #
-57 straight-curve $-1 0.44840341184434257 0.41199999999999998 4.0350000000000001 1 0 0 I I #
-58 coedge $-1 $32 $31 $88 $89 1 $33 $-1 #
-59 edge $-1 $34 $90 $31 $91 0 #
-60 edge $-1 $92 $35 $32 $93 1 #
-61 face $-1 $87 $33 $2 $-1 $94 reversed single #
-62 point $-1 0.44840341184434257 0.41199999999999998 4.0350000000000001 #
-63 point $-1 0.44840341184434257 0.41199999999999998 4 #
-64 face $-1 $61 $95 $2 $-1 $96 forward single #
-65 loop $-1 $-1 $97 $37 #
-66 cone-surface $-1 0.42300000000000004 0.23799999999999999 4 0 0 1 0.13 0 0 1 I I 0 1 0 I I I I #
-67 coedge $-1 $98 $99 $68 $100 1 $38 $-1 #
-68 coedge $-1 $101 $40 $67 $100 0 $20 $-1 #
-69 coedge $-1 $40 $101 $72 $102 1 $20 $-1 #
-70 coedge $-1 $73 $103 $40 $71 1 $53 $-1 #
-71 edge $-1 $104 $105 $40 $106 1 #
-72 coedge $-1 $42 $41 $69 $102 0 $12 $-1 #
-73 coedge $-1 $45 $70 $41 $74 1 $53 $-1 #
-74 edge $-1 $77 $104 $41 $107 1 #
-75 coedge $-1 $108 $47 $42 $76 1 $56 $-1 #
-76 edge $-1 $109 $78 $42 $110 0 #
-77 vertex $-1 $46 $111 #
-78 vertex $-1 $44 $112 #
-79 straight-curve $-1 0.66217989064763005 0.34700000000000003 4 0 0 1 I I #
-80 ellipse-curve $-1 0.54959658815565349 0.28200000000000003 4 0 0 1 0.13 0 0 1 I I #
-81 ellipse-curve $-1 0.54959658815565349 0.28200000000000003 4.0350000000000001 0 0 1 0.13 0 0 1 I I #
-82 point $-1 0.54959658815565349 0.41199999999999998 4 #
-83 point $-1 0.54959658815565349 0.41199999999999998 4.0350000000000001 #
-84 coedge $-1 $113 $52 $114 $115 1 $53 $-1 #
-85 face $-1 $116 $117 $2 $-1 $118 reversed single #
-86 coedge $-1 $55 $119 $120 $121 1 $56 $-1 #
-87 face $-1 $85 $122 $2 $-1 $123 forward single #
-88 coedge $-1 $120 $114 $58 $89 0 $95 $-1 #
-89 edge $-1 $92 $90 $88 $124 0 #
-90 vertex $-1 $89 $125 #
-91 ellipse-curve $-1 0.44840341184434257 0.28200000000000003 4.0350000000000001 0 0 1 0.13 0 0 1 I I #
-92 vertex $-1 $115 $126 #
-93 ellipse-curve $-1 0.44840341184434257 0.28200000000000003 4 0 0 1 0.13 0 0 1 I I #
-94 cone-surface $-1 0.44840341184434257 0.28200000000000003 4 0 0 1 0.13 0 0 1 I I 0 1 0 I I I I #
-95 loop $-1 $-1 $127 $64 #
-96 plane-surface $-1 0.32311840343019288 0.32500000000000001 4 0.86602540378444504 -0.49999999999998901 0 0 0 -1 0 I I I I #
-97 coedge $-1 $128 $129 $113 $130 0 $65 $-1 #
-98 coedge $-1 $131 $67 $103 $132 0 $38 $-1 #
-99 coedge $-1 $67 $131 $133 $134 0 $38 $-1 #
-100 edge $-1 $105 $135 $68 $136 0 #
-101 coedge $-1 $69 $68 $108 $137 0 $20 $-1 #
-102 edge $-1 $104 $109 $72 $138 0 #
-103 coedge $-1 $70 $113 $98 $132 1 $53 $-1 #
-104 vertex $-1 $74 $139 #
-105 vertex $-1 $71 $140 #
-106 ellipse-curve $-1 0.57500000000000007 0.23799999999999999 4 0 0 1 0.13 0 0 1 I I #
-107 straight-curve $-1 0.68758330249197241 0.30299999999999999 4 -0.49999999999998301 0.86602540378444848 0 I I #
-108 coedge $-1 $133 $75 $101 $137 1 $56 $-1 #
-109 vertex $-1 $102 $141 #
-110 straight-curve $-1 0.68758330249197241 0.30299999999999999 4.0350000000000001 -0.49999999999998301 0.86602540378444848 0 I I #
-111 point $-1 0.66217989064763005 0.34700000000000003 4 #
-112 point $-1 0.66217989064763005 0.34700000000000003 4.0350000000000001 #
-113 coedge $-1 $103 $84 $97 $130 1 $53 $-1 #
-114 coedge $-1 $88 $127 $84 $115 0 $95 $-1 #
-115 edge $-1 $142 $92 $114 $143 0 #
-116 face $-1 $144 $145 $2 $-1 $146 reversed single #
-117 loop $-1 $147 $148 $85 #
-118 plane-surface $-1 0.99299999999999999 0.16 4 0 0 1 1 0 0 0 I I I I #
-119 coedge $-1 $86 $133 $149 $150 1 $56 $-1 #
-120 coedge $-1 $127 $88 $86 $121 0 $95 $-1 #
-121 edge $-1 $90 $151 $120 $152 1 #
-122 loop $-1 $153 $154 $87 #
-123 plane-surface $-1 0.73799999999999999 0.26000000000000001 4.0350000000000001 0 0 1 1 0 0 0 I I I I #
-124 straight-curve $-1 0.33582010935236611 0.34700000000000003 4 0 0 1 I I #
-125 point $-1 0.33582010935236611 0.34700000000000003 4.0350000000000001 #
-126 point $-1 0.33582010935236611 0.34700000000000003 4 #
-127 coedge $-1 $114 $120 $128 $155 1 $95 $-1 #
-128 coedge $-1 $149 $97 $127 $155 0 $65 $-1 #
-129 coedge $-1 $97 $149 $131 $156 1 $65 $-1 #
-130 edge $-1 $157 $142 $97 $158 1 #
-131 coedge $-1 $99 $98 $129 $156 0 $38 $-1 #
-132 edge $-1 $105 $157 $98 $159 1 #
-133 coedge $-1 $119 $108 $99 $134 1 $56 $-1 #
-134 edge $-1 $160 $135 $99 $161 0 #
-135 vertex $-1 $100 $162 #
-136 straight-curve $-1 0.57500000000000007 0.108 4 0 0 1 I I #
-137 edge $-1 $135 $109 $101 $163 0 #
-138 straight-curve $-1 0.68758330249197241 0.30299999999999999 4 0 0 1 I I #
-139 point $-1 0.68758330249197241 0.30299999999999999 4 #
-140 point $-1 0.57500000000000007 0.108 4 #
-141 point $-1 0.68758330249197241 0.30299999999999999 4.0350000000000001 #
-142 vertex $-1 $130 $164 #
-143 straight-curve $-1 0.3104166975080197 0.30299999999999999 4 0.50000000000004252 0.86602540378441417 0 I I #
-144 face $-1 $165 $166 $2 $-1 $167 reversed single #
-145 loop $-1 $168 $169 $116 #
-146 cone-surface $-1 0.19900000000000001 0.26000000000000001 4.0350000000000001 0 0 -1 0.065250000000000002 0 0 1 I I 0 1 0 I I I I #
-147 loop $-1 $170 $171 $85 #
-148 coedge $-1 $172 $173 $174 $175 0 $117 $-1 #
-149 coedge $-1 $129 $128 $119 $150 0 $65 $-1 #
-150 edge $-1 $151 $160 $149 $176 0 #
-151 vertex $-1 $155 $177 #
-152 straight-curve $-1 0.3104166975080197 0.30299999999999999 4.0350000000000001 0.50000000000004252 0.86602540378441417 0 I I #
-153 loop $-1 $178 $179 $87 #
-154 coedge $-1 $180 $181 $182 $183 0 $122 $-1 #
-155 edge $-1 $142 $151 $128 $184 0 #
-156 edge $-1 $157 $160 $131 $185 0 #
-157 vertex $-1 $132 $186 #
-158 ellipse-curve $-1 0.42300000000000004 0.23799999999999999 4 0 0 1 0.13 0 0 1 I I #
-159 straight-curve $-1 0.42300000000000004 0.108 4 1 0 0 I I #
-160 vertex $-1 $156 $187 #
-161 straight-curve $-1 0.42300000000000004 0.108 4.0350000000000001 1 0 0 I I #
-162 point $-1 0.57500000000000007 0.108 4.0350000000000001 #
-163 ellipse-curve $-1 0.57500000000000007 0.23799999999999999 4.0350000000000001 0 0 1 0.13 0 0 1 I I #
-164 point $-1 0.3104166975080197 0.30299999999999999 4 #
-165 face $-1 $188 $189 $2 $-1 $190 reversed single #
-166 loop $-1 $191 $192 $144 #
-167 cone-surface $-1 0.79900000000000004 0.26000000000000001 4.0350000000000001 0 0 -1 0.065250000000000002 0 0 1 I I 0 1 0 I I I I #
-168 loop $-1 $-1 $193 $116 #
-169 coedge $-1 $169 $169 $194 $195 1 $145 $-1 #
-170 loop $-1 $53 $196 $85 #
-171 coedge $-1 $171 $171 $197 $198 0 $147 $-1 #
-172 coedge $-1 $199 $148 $200 $201 0 $117 $-1 #
-173 coedge $-1 $148 $202 $203 $204 0 $117 $-1 #
-174 coedge $-1 $205 $206 $148 $175 1 $207 $-1 #
-175 edge $-1 $208 $209 $148 $210 0 #
-176 ellipse-curve $-1 0.42300000000000004 0.23799999999999999 4.0350000000000001 0 0 1 0.13 0 0 1 I I #
-177 point $-1 0.3104166975080197 0.30299999999999999 4.0350000000000001 #
-178 loop $-1 $56 $194 $87 #
-179 coedge $-1 $179 $179 $192 $211 0 $153 $-1 #
-180 coedge $-1 $212 $154 $213 $214 0 $122 $-1 #
-181 coedge $-1 $154 $212 $215 $216 0 $122 $-1 #
-182 coedge $-1 $217 $218 $154 $183 1 $219 $-1 #
-183 edge $-1 $220 $221 $154 $222 0 #
-184 straight-curve $-1 0.3104166975080197 0.30299999999999999 4 0 0 1 I I #
-185 straight-curve $-1 0.42300000000000004 0.108 4 0 0 1 I I #
-186 point $-1 0.42300000000000004 0.108 4 #
-187 point $-1 0.42300000000000004 0.108 4.0350000000000001 #
-188 face $-1 $223 $224 $2 $-1 $225 reversed single #
-189 loop $-1 $-1 $226 $165 #
-190 plane-surface $-1 0.99299999999999999 0.16 4.1040000000000001 0 0 -1 -1 0 0 0 I I I I #
-191 loop $-1 $-1 $197 $144 #
-192 coedge $-1 $192 $192 $179 $211 1 $166 $-1 #
-193 coedge $-1 $193 $193 $196 $227 1 $168 $-1 #
-194 coedge $-1 $194 $194 $169 $195 0 $178 $-1 #
-195 edge $-1 $228 $228 $194 $229 1 #
-196 coedge $-1 $196 $196 $193 $227 0 $170 $-1 #
-197 coedge $-1 $197 $197 $171 $198 1 $191 $-1 #
-198 edge $-1 $230 $230 $171 $231 0 #
-199 coedge $-1 $232 $172 $233 $234 0 $117 $-1 #
-200 coedge $-1 $235 $236 $172 $201 1 $237 $-1 #
-201 edge $-1 $209 $238 $172 $239 1 #
-202 coedge $-1 $173 $240 $241 $242 0 $117 $-1 #
-203 coedge $-1 $243 $244 $173 $204 1 $245 $-1 #
-204 edge $-1 $246 $208 $173 $247 1 #
-205 coedge $-1 $248 $174 $244 $249 1 $207 $-1 #
-206 coedge $-1 $174 $248 $235 $250 1 $207 $-1 #
-207 loop $-1 $-1 $248 $251 #
-208 vertex $-1 $175 $252 #
-209 vertex $-1 $175 $253 #
-210 straight-curve $-1 0.91474108630456297 0.45068977007663386 4 0.73342219260248454 -0.67977340886369197 0 I I #
-211 edge $-1 $254 $254 $179 $255 1 #
-212 coedge $-1 $181 $180 $256 $257 0 $122 $-1 #
-213 coedge $-1 $258 $259 $180 $214 1 $260 $-1 #
-214 edge $-1 $221 $261 $180 $262 1 #
-215 coedge $-1 $263 $264 $181 $216 1 $265 $-1 #
-216 edge $-1 $266 $220 $181 $267 0 #
-217 coedge $-1 $268 $182 $264 $269 1 $219 $-1 #
-218 coedge $-1 $182 $268 $258 $270 1 $219 $-1 #
-219 loop $-1 $-1 $268 $271 #
-220 vertex $-1 $183 $272 #
-221 vertex $-1 $183 $273 #
-222 ellipse-curve $-1 0.73799999999999999 0.26000000000000001 4.0350000000000001 0 0 1 0.187 0 0 1 I I #
-223 face $-1 $274 $275 $2 $-1 $276 reversed single #
-224 loop $-1 $277 $278 $188 #
-225 cone-surface $-1 0.99299999999999999 0.16 4.2700000000000005 0 0 -1 0.044500000000000005 0 0 1 I I 0 1 0 I I I I #
-226 coedge $-1 $226 $226 $278 $279 0 $189 $-1 #
-227 edge $-1 $280 $280 $196 $281 0 #
-228 vertex $-1 $195 $282 #
-229 ellipse-curve $-1 0.19900000000000001 0.26000000000000001 4.0350000000000001 0 0 1 0.065250000000000002 0 0 1 I I #
-230 vertex $-1 $198 $283 #
-231 ellipse-curve $-1 0.79900000000000004 0.26000000000000001 4 0 0 1 0.065250000000000002 0 0 1 I I #
-232 coedge $-1 $284 $199 $285 $286 0 $117 $-1 #
-233 coedge $-1 $287 $288 $199 $234 1 $289 $-1 #
-234 edge $-1 $238 $290 $199 $291 1 #
-235 coedge $-1 $292 $200 $206 $250 0 $237 $-1 #
-236 coedge $-1 $200 $292 $287 $293 0 $237 $-1 #
-237 loop $-1 $-1 $235 $294 #
-238 vertex $-1 $201 $295 #
-239 ellipse-curve $-1 0.99299999999999999 0.16 4 0 0 1 0.16 0 0 1 I I #
-240 coedge $-1 $202 $296 $297 $298 0 $117 $-1 #
-241 coedge $-1 $299 $300 $202 $242 1 $301 $-1 #
-242 edge $-1 $302 $246 $202 $303 0 #
-243 coedge $-1 $304 $203 $300 $305 1 $245 $-1 #
-244 coedge $-1 $203 $304 $205 $249 0 $245 $-1 #
-245 loop $-1 $-1 $243 $306 #
-246 vertex $-1 $242 $307 #
-247 ellipse-curve $-1 0.73799999999999999 0.26000000000000001 4 0 0 1 0.26000000000000001 0 0 1 I I #
-248 coedge $-1 $206 $205 $308 $309 1 $207 $-1 #
-249 edge $-1 $310 $208 $244 $311 0 #
-250 edge $-1 $209 $312 $235 $313 1 #
-251 face $-1 $314 $207 $2 $-1 $315 forward single #
-252 point $-1 0.91474108630456297 0.45068977007663386 4 #
-253 point $-1 1.101763745418191 0.27734755081639767 4 #
-254 vertex $-1 $211 $316 #
-255 ellipse-curve $-1 0.79900000000000004 0.26000000000000001 4.0350000000000001 0 0 1 0.065250000000000002 0 0 1 I I #
-256 coedge $-1 $317 $318 $212 $257 1 $319 $-1 #
-257 edge $-1 $261 $266 $212 $320 0 #
-258 coedge $-1 $321 $213 $218 $270 0 $260 $-1 #
-259 coedge $-1 $213 $321 $317 $322 1 $260 $-1 #
-260 loop $-1 $-1 $259 $323 #
-261 vertex $-1 $214 $324 #
-262 straight-curve $-1 0.26000000000000001 0.44700000000000006 4.0350000000000001 1 0 0 I I #
-263 coedge $-1 $325 $215 $318 $326 0 $265 $-1 #
-264 coedge $-1 $215 $325 $217 $269 0 $265 $-1 #
-265 loop $-1 $-1 $264 $327 #
-266 vertex $-1 $257 $328 #
-267 straight-curve $-1 0.26000000000000001 0.072999999999999024 4.0350000000000001 1 0 0 I I #
-268 coedge $-1 $218 $217 $329 $330 0 $219 $-1 #
-269 edge $-1 $331 $220 $264 $332 0 #
-270 edge $-1 $221 $333 $258 $334 1 #
-271 face $-1 $335 $219 $2 $-1 $336 reversed single #
-272 point $-1 0.73799999999999999 0.072999999999999024 4.0350000000000001 #
-273 point $-1 0.73799999999999999 0.44700000000000006 4.0350000000000001 #
-274 face $-1 $327 $337 $2 $-1 $338 reversed single #
-275 loop $-1 $-1 $339 $223 #
-276 plane-surface $-1 0.16 0.51300000000000001 4.1040000000000001 0 0 -1 -1 0 0 0 I I I I #
-277 loop $-1 $-1 $340 $188 #
-278 coedge $-1 $278 $278 $226 $279 1 $224 $-1 #
-279 edge $-1 $341 $341 $226 $342 0 #
-280 vertex $-1 $227 $343 #
-281 ellipse-curve $-1 0.19900000000000001 0.26000000000000001 4 0 0 1 0.065250000000000002 0 0 1 I I #
-282 point $-1 0.26425000000000004 0.26000000000000001 4.0350000000000001 #
-283 point $-1 0.86424999999999996 0.26000000000000001 4 #
-284 coedge $-1 $296 $232 $344 $345 0 $117 $-1 #
-285 coedge $-1 $346 $347 $232 $286 1 $348 $-1 #
-286 edge $-1 $290 $349 $232 $350 1 #
-287 coedge $-1 $351 $233 $236 $293 1 $289 $-1 #
-288 coedge $-1 $233 $351 $346 $352 0 $289 $-1 #
-289 loop $-1 $-1 $287 $353 #
-290 vertex $-1 $234 $354 #
-291 straight-curve $-1 0.26000000000000001 0 4 1 0 0 I I #
-292 coedge $-1 $236 $235 $355 $356 1 $237 $-1 #
-293 edge $-1 $357 $238 $236 $358 0 #
-294 face $-1 $353 $237 $2 $-1 $359 forward single #
-295 point $-1 0.99299999999999999 0 4 #
-296 coedge $-1 $240 $284 $360 $361 0 $117 $-1 #
-297 coedge $-1 $362 $363 $240 $298 1 $364 $-1 #
-298 edge $-1 $365 $302 $240 $366 0 #
-299 coedge $-1 $367 $241 $363 $368 1 $301 $-1 #
-300 coedge $-1 $241 $367 $243 $305 0 $301 $-1 #
-301 loop $-1 $-1 $299 $369 #
-302 vertex $-1 $298 $370 #
-303 straight-curve $-1 0.41559929580522437 0.52000000000000002 4 1 0 0 I I #
-304 coedge $-1 $244 $243 $371 $372 1 $245 $-1 #
-305 edge $-1 $373 $246 $300 $374 0 #
-306 face $-1 $251 $245 $2 $-1 $375 forward single #
-307 point $-1 0.73799999999999999 0.52000000000000002 4 #
-308 coedge $-1 $371 $355 $248 $309 0 $376 $-1 #
-309 edge $-1 $312 $310 $308 $377 1 #
-310 vertex $-1 $309 $378 #
-311 straight-curve $-1 0.91474108630456297 0.45068977007663386 4.3610000000000007 0 0 -1 I I #
-312 vertex $-1 $309 $379 #
-313 straight-curve $-1 1.101763745418191 0.27734755081639767 4.3610000000000007 0 0 -1 I I #
-314 face $-1 $380 $381 $2 $-1 $382 reversed single #
-315 plane-surface $-1 1.0082524158613781 0.36401866044651571 4.3610000000000007 0.67977340886371196 0.73342219260246599 0 0 0 -1 0 I I I I #
-316 point $-1 0.86424999999999996 0.26000000000000001 4.0350000000000001 #
-317 coedge $-1 $383 $256 $259 $322 0 $319 $-1 #
-318 coedge $-1 $256 $383 $263 $326 1 $319 $-1 #
-319 loop $-1 $-1 $318 $384 #
-320 ellipse-curve $-1 0.26000000000000001 0.26000000000000001 4.0350000000000001 0 0 1 0.187 0 0 1 I I #
-321 coedge $-1 $259 $258 $385 $386 0 $260 $-1 #
-322 edge $-1 $261 $387 $317 $388 1 #
-323 face $-1 $271 $260 $2 $-1 $389 reversed single #
-324 point $-1 0.26000000000000001 0.44700000000000006 4.0350000000000001 #
-325 coedge $-1 $264 $263 $390 $391 0 $265 $-1 #
-326 edge $-1 $266 $392 $263 $393 1 #
-327 face $-1 $384 $265 $2 $-1 $394 forward single #
-328 point $-1 0.26000000000000001 0.072999999999999024 4.0350000000000001 #
-329 coedge $-1 $390 $385 $268 $330 1 $395 $-1 #
-330 edge $-1 $331 $333 $268 $396 0 #
-331 vertex $-1 $269 $397 #
-332 straight-curve $-1 0.73799999999999999 0.072999999999999024 4.2700000000000005 0 0 -1 I I #
-333 vertex $-1 $270 $398 #
-334 straight-curve $-1 0.73799999999999999 0.44700000000000006 4.2700000000000005 0 0 -1 I I #
-335 face $-1 $399 $400 $2 $-1 $401 forward single #
-336 cone-surface $-1 0.73799999999999999 0.26000000000000001 4.2700000000000005 0 0 -1 0.187 0 0 1 I I 0 1 0 I I I I #
-337 loop $-1 $402 $403 $274 #
-338 cone-surface $-1 0.16 0.51300000000000001 4.2700000000000005 0 0 -1 0.044500000000000005 0 0 1 I I 0 1 0 I I I I #
-339 coedge $-1 $339 $339 $403 $404 0 $275 $-1 #
-340 coedge $-1 $340 $340 $405 $406 0 $277 $-1 #
-341 vertex $-1 $279 $407 #
-342 ellipse-curve $-1 0.99299999999999999 0.16 4.1040000000000001 0 0 1 0.044500000000000005 0 0 1 I I #
-343 point $-1 0.26425000000000004 0.26000000000000001 4 #
-344 coedge $-1 $408 $409 $284 $345 1 $410 $-1 #
-345 edge $-1 $349 $411 $284 $412 0 #
-346 coedge $-1 $413 $285 $288 $352 1 $348 $-1 #
-347 coedge $-1 $285 $413 $408 $414 0 $348 $-1 #
-348 loop $-1 $-1 $346 $415 #
-349 vertex $-1 $286 $416 #
-350 ellipse-curve $-1 0.26000000000000001 0.26000000000000001 4 0 0 1 0.26000000000000001 0 0 1 I I #
-351 coedge $-1 $288 $287 $417 $418 1 $289 $-1 #
-352 edge $-1 $419 $290 $288 $420 0 #
-353 face $-1 $415 $289 $2 $-1 $421 reversed single #
-354 point $-1 0.26000000000000001 0 4 #
-355 coedge $-1 $308 $417 $292 $356 0 $376 $-1 #
-356 edge $-1 $357 $312 $355 $422 0 #
-357 vertex $-1 $418 $423 #
-358 straight-curve $-1 0.99299999999999999 0 4.3610000000000007 0 0 -1 I I #
-359 cone-surface $-1 0.99299999999999999 0.16 4.3610000000000007 0 0 -1 0.16 0 0 1 I I 0 1 0 I I I I #
-360 coedge $-1 $424 $425 $296 $361 1 $426 $-1 #
-361 edge $-1 $411 $365 $296 $427 1 #
-362 coedge $-1 $428 $297 $425 $429 1 $364 $-1 #
-363 coedge $-1 $297 $428 $299 $368 0 $364 $-1 #
-364 loop $-1 $-1 $362 $430 #
-365 vertex $-1 $361 $431 #
-366 ellipse-curve $-1 0.41559929580522437 0.65000000000000002 4 0 0 1 0.13 0 0 1 I I #
-367 coedge $-1 $300 $299 $432 $433 1 $301 $-1 #
-368 edge $-1 $434 $302 $363 $435 0 #
-369 face $-1 $306 $301 $2 $-1 $436 forward single #
-370 point $-1 0.41559929580522437 0.52000000000000002 4 #
-371 coedge $-1 $432 $308 $304 $372 0 $376 $-1 #
-372 edge $-1 $310 $373 $371 $437 0 #
-373 vertex $-1 $372 $438 #
-374 straight-curve $-1 0.73799999999999999 0.52000000000000002 4.3610000000000007 0 0 -1 I I #
-375 cone-surface $-1 0.73799999999999999 0.26000000000000001 4.3610000000000007 0 0 -1 0.26000000000000001 0 0 1 I I 0 1 0 I I I I #
-376 loop $-1 $439 $308 $399 #
-377 straight-curve $-1 0.91474108630456297 0.45068977007663386 4.3610000000000007 0.73342219260248454 -0.67977340886369197 0 I I #
-378 point $-1 0.91474108630456297 0.45068977007663386 4.3610000000000007 #
-379 point $-1 1.101763745418191 0.27734755081639767 4.3610000000000007 #
-380 face $-1 $440 $441 $2 $-1 $442 reversed single #
-381 loop $-1 $-1 $443 $314 #
-382 cone-surface $-1 0.73799999999999999 0.26000000000000001 4.3610000000000007 0 0 -1 0.23000000000000001 0 0 1 I I 0 1 0 I I I I #
-383 coedge $-1 $318 $317 $444 $445 0 $319 $-1 #
-384 face $-1 $323 $319 $2 $-1 $446 reversed single #
-385 coedge $-1 $329 $444 $321 $386 1 $395 $-1 #
-386 edge $-1 $333 $387 $321 $447 1 #
-387 vertex $-1 $322 $448 #
-388 straight-curve $-1 0.26000000000000001 0.44700000000000006 4.2700000000000005 0 0 -1 I I #
-389 plane-surface $-1 0.499 0.44700000000000006 4.2700000000000005 0 1 0 0 0 1 0 I I I I #
-390 coedge $-1 $444 $329 $325 $391 1 $395 $-1 #
-391 edge $-1 $392 $331 $325 $449 1 #
-392 vertex $-1 $326 $450 #
-393 straight-curve $-1 0.26000000000000001 0.072999999999999024 4.2700000000000005 0 0 -1 I I #
-394 plane-surface $-1 0.499 0.072999999999999024 4.2700000000000005 0 1 0 0 0 1 0 I I I I #
-395 loop $-1 $-1 $329 $335 #
-396 ellipse-curve $-1 0.73799999999999999 0.26000000000000001 4.2700000000000005 0 0 1 0.187 0 0 1 I I #
-397 point $-1 0.73799999999999999 0.072999999999999024 4.2700000000000005 #
-398 point $-1 0.73799999999999999 0.44700000000000006 4.2700000000000005 #
-399 face $-1 $294 $376 $2 $-1 $451 forward single #
-400 loop $-1 $452 $405 $335 #
-401 plane-surface $-1 0.73799999999999999 0.26000000000000001 4.2700000000000005 0 0 1 1 0 0 0 I I I I #
-402 loop $-1 $-1 $453 $274 #
-403 coedge $-1 $403 $403 $339 $404 1 $337 $-1 #
-404 edge $-1 $454 $454 $339 $455 0 #
-405 coedge $-1 $405 $405 $340 $406 1 $400 $-1 #
-406 edge $-1 $456 $456 $340 $457 0 #
-407 point $-1 1.0375000000000001 0.16 4.1040000000000001 #
-408 coedge $-1 $458 $344 $347 $414 1 $410 $-1 #
-409 coedge $-1 $344 $458 $424 $459 0 $410 $-1 #
-410 loop $-1 $-1 $408 $460 #
-411 vertex $-1 $345 $461 #
-412 straight-curve $-1 0 0.26000000000000001 4 0 1 0 I I #
-413 coedge $-1 $347 $346 $462 $463 1 $348 $-1 #
-414 edge $-1 $464 $349 $347 $465 0 #
-415 face $-1 $460 $348 $2 $-1 $466 forward single #
-416 point $-1 0 0.26000000000000001 4 #
-417 coedge $-1 $355 $462 $351 $418 0 $376 $-1 #
-418 edge $-1 $419 $357 $417 $467 0 #
-419 vertex $-1 $463 $468 #
-420 straight-curve $-1 0.26000000000000001 0 4.3610000000000007 0 0 -1 I I #
-421 plane-surface $-1 0.62649999999999995 0 4.3610000000000007 0 1 0 0 0 1 0 I I I I #
-422 ellipse-curve $-1 0.99299999999999999 0.16 4.3610000000000007 0 0 1 0.16 0 0 1 I I #
-423 point $-1 0.99299999999999999 0 4.3610000000000007 #
-424 coedge $-1 $469 $360 $409 $459 1 $426 $-1 #
-425 coedge $-1 $360 $469 $362 $429 0 $426 $-1 #
-426 loop $-1 $-1 $424 $470 #
-427 ellipse-curve $-1 0.16 0.51300000000000001 4 0 0 1 0.16 0 0 1 I I #
-428 coedge $-1 $363 $362 $471 $472 1 $364 $-1 #
-429 edge $-1 $473 $365 $425 $474 0 #
-430 face $-1 $369 $364 $2 $-1 $475 reversed single #
-431 point $-1 0.30102030114490158 0.58858620690244179 4 #
-432 coedge $-1 $471 $371 $367 $433 0 $376 $-1 #
-433 edge $-1 $373 $434 $432 $476 1 #
-434 vertex $-1 $433 $477 #
-435 straight-curve $-1 0.41559929580522437 0.52000000000000002 4.3610000000000007 0 0 -1 I I #
-436 plane-surface $-1 0.57679964790261018 0.52000000000000002 4.3610000000000007 0 1 0 0 0 1 0 I I I I #
-437 ellipse-curve $-1 0.73799999999999999 0.26000000000000001 4.3610000000000007 0 0 1 0.26000000000000001 0 0 1 I I #
-438 point $-1 0.73799999999999999 0.52000000000000002 4.3610000000000007 #
-439 loop $-1 $-1 $478 $399 #
-440 face $-1 $479 $480 $2 $-1 $481 reversed single #
-441 loop $-1 $-1 $482 $380 #
-442 plane-surface $-1 0.98785921359546658 0.34201599466844368 4.3610000000000007 0.67977340886371196 0.73342219260246599 0 0 0 -1 0 I I I I #
-443 coedge $-1 $483 $484 $485 $486 0 $381 $-1 #
-444 coedge $-1 $385 $390 $383 $445 1 $395 $-1 #
-445 edge $-1 $387 $392 $383 $487 0 #
-446 cone-surface $-1 0.26000000000000001 0.26000000000000001 4.2700000000000005 0 0 -1 0.187 0 0 1 I I 0 1 0 I I I I #
-447 straight-curve $-1 0.26000000000000001 0.44700000000000006 4.2700000000000005 1 0 0 I I #
-448 point $-1 0.26000000000000001 0.44700000000000006 4.2700000000000005 #
-449 straight-curve $-1 0.73799999999999999 0.072999999999999024 4.2700000000000005 -1 0 0 I I #
-450 point $-1 0.26000000000000001 0.072999999999999024 4.2700000000000005 #
-451 plane-surface $-1 0.99299999999999999 0.16 4.3610000000000007 0 0 1 1 0 0 0 I I I I #
-452 loop $-1 $488 $489 $335 #
-453 coedge $-1 $453 $453 $489 $490 0 $402 $-1 #
-454 vertex $-1 $404 $491 #
-455 ellipse-curve $-1 0.16 0.51300000000000001 4.1040000000000001 0 0 1 0.044500000000000005 0 0 1 I I #
-456 vertex $-1 $406 $492 #
-457 ellipse-curve $-1 0.99299999999999999 0.16 4.2700000000000005 0 0 1 0.044500000000000005 0 0 1 I I #
-458 coedge $-1 $409 $408 $493 $494 1 $410 $-1 #
-459 edge $-1 $495 $411 $409 $496 0 #
-460 face $-1 $470 $410 $2 $-1 $497 forward single #
-461 point $-1 0 0.51300000000000001 4 #
-462 coedge $-1 $417 $493 $413 $463 0 $376 $-1 #
-463 edge $-1 $464 $419 $462 $498 0 #
-464 vertex $-1 $494 $499 #
-465 straight-curve $-1 0 0.26000000000000001 4.3610000000000007 0 0 -1 I I #
-466 cone-surface $-1 0.26000000000000001 0.26000000000000001 4.3610000000000007 0 0 -1 0.26000000000000001 0 0 1 I I 0 1 0 I I I I #
-467 straight-curve $-1 0.26000000000000001 0 4.3610000000000007 1 0 0 I I #
-468 point $-1 0.26000000000000001 0 4.3610000000000007 #
-469 coedge $-1 $425 $424 $500 $501 1 $426 $-1 #
-470 face $-1 $430 $426 $2 $-1 $502 forward single #
-471 coedge $-1 $500 $432 $428 $472 0 $376 $-1 #
-472 edge $-1 $434 $473 $471 $503 1 #
-473 vertex $-1 $472 $504 #
-474 straight-curve $-1 0.30102030114490158 0.58858620690244179 4.3610000000000007 0 0 -1 I I #
-475 cone-surface $-1 0.41559929580522437 0.65000000000000002 4.3610000000000007 0 0 -1 0.13 0 0 1 I I 0 1 0 I I I I #
-476 straight-curve $-1 0.41559929580522437 0.52000000000000002 4.3610000000000007 1 0 0 I I #
-477 point $-1 0.41559929580522437 0.52000000000000002 4.3610000000000007 #
-478 coedge $-1 $505 $506 $507 $508 0 $439 $-1 #
-479 face $-1 $509 $510 $2 $-1 $511 forward single #
-480 loop $-1 $-1 $512 $440 #
-481 cone-surface $-1 0.99299999999999999 0.16 4.3610000000000007 0 0 -1 0.13 0 0 1 I I 0 1 0 I I I I #
-482 coedge $-1 $513 $514 $515 $516 1 $441 $-1 #
-483 coedge $-1 $515 $443 $517 $518 1 $381 $-1 #
-484 coedge $-1 $443 $515 $505 $519 1 $381 $-1 #
-485 coedge $-1 $507 $520 $443 $486 1 $521 $-1 #
-486 edge $-1 $522 $523 $443 $524 0 #
-487 ellipse-curve $-1 0.26000000000000001 0.26000000000000001 4.2700000000000005 0 0 1 0.187 0 0 1 I I #
-488 loop $-1 $395 $525 $335 #
-489 coedge $-1 $489 $489 $453 $490 1 $452 $-1 #
-490 edge $-1 $526 $526 $453 $527 0 #
-491 point $-1 0.20449999999999999 0.51300000000000001 4.1040000000000001 #
-492 point $-1 1.0375000000000001 0.16 4.2700000000000005 #
-493 coedge $-1 $462 $500 $458 $494 0 $376 $-1 #
-494 edge $-1 $495 $464 $493 $528 1 #
-495 vertex $-1 $501 $529 #
-496 straight-curve $-1 0 0.51300000000000001 4.3610000000000007 0 0 -1 I I #
-497 plane-surface $-1 0 0.38650000000000001 4.3610000000000007 -1 0 0 0 0 1 0 I I I I #
-498 ellipse-curve $-1 0.26000000000000001 0.26000000000000001 4.3610000000000007 0 0 1 0.26000000000000001 0 0 1 I I #
-499 point $-1 0 0.26000000000000001 4.3610000000000007 #
-500 coedge $-1 $493 $471 $469 $501 0 $376 $-1 #
-501 edge $-1 $473 $495 $500 $530 0 #
-502 cone-surface $-1 0.16 0.51300000000000001 4.3610000000000007 0 0 -1 0.16 0 0 1 I I 0 1 0 I I I I #
-503 ellipse-curve $-1 0.41559929580522437 0.65000000000000002 4.3610000000000007 0 0 1 0.13 0 0 1 I I #
-504 point $-1 0.30102030114490158 0.58858620690244179 4.3610000000000007 #
-505 coedge $-1 $531 $478 $484 $519 0 $439 $-1 #
-506 coedge $-1 $478 $532 $533 $534 0 $439 $-1 #
-507 coedge $-1 $535 $485 $478 $508 1 $521 $-1 #
-508 edge $-1 $536 $522 $478 $537 0 #
-509 face $-1 $538 $539 $2 $-1 $540 reversed single #
-510 loop $-1 $-1 $541 $479 #
-511 plane-surface $-1 0.62649999999999995 0.029999999999999413 4.3610000000000007 2.9116729127560751e-018 1 0 0 0 1 0 I I I I #
-512 coedge $-1 $542 $543 $544 $545 1 $480 $-1 #
-513 coedge $-1 $544 $482 $546 $547 1 $441 $-1 #
-514 coedge $-1 $482 $544 $531 $548 1 $441 $-1 #
-515 coedge $-1 $484 $483 $482 $516 0 $381 $-1 #
-516 edge $-1 $549 $550 $515 $551 1 #
-517 coedge $-1 $525 $546 $483 $518 0 $488 $-1 #
-518 edge $-1 $549 $523 $517 $552 0 #
-519 edge $-1 $522 $550 $505 $553 0 #
-520 coedge $-1 $485 $535 $525 $554 1 $521 $-1 #
-521 loop $-1 $-1 $507 $555 #
-522 vertex $-1 $508 $556 #
-523 vertex $-1 $554 $557 #
-524 straight-curve $-1 0.73799999999999999 0.49000000000000005 4.3610000000000007 0 0 -1 I I #
-525 coedge $-1 $558 $517 $520 $554 0 $488 $-1 #
-526 vertex $-1 $490 $559 #
-527 ellipse-curve $-1 0.16 0.51300000000000001 4.2700000000000005 0 0 1 0.044500000000000005 0 0 1 I I #
-528 straight-curve $-1 0 0.26000000000000001 4.3610000000000007 0 1 0 I I #
-529 point $-1 0 0.51300000000000001 4.3610000000000007 #
-530 ellipse-curve $-1 0.16 0.51300000000000001 4.3610000000000007 0 0 1 0.16 0 0 1 I I #
-531 coedge $-1 $560 $505 $514 $548 0 $439 $-1 #
-532 coedge $-1 $506 $561 $562 $563 0 $439 $-1 #
-533 coedge $-1 $564 $565 $506 $534 1 $566 $-1 #
-534 edge $-1 $567 $536 $506 $568 0 #
-535 coedge $-1 $520 $507 $565 $569 1 $521 $-1 #
-536 vertex $-1 $508 $570 #
-537 straight-curve $-1 0.41559929578036614 0.49000000000000005 4.3610000000000007 1 0 0 I I #
-538 face $-1 $571 $572 $2 $-1 $573 reversed single #
-539 loop $-1 $-1 $574 $509 #
-540 cone-surface $-1 0.26000000000000001 0.26000000000000001 4.3610000000000007 0 0 -1 0.23000000000000001 0 0 1 I I 0 1 0 I I I I #
-541 coedge $-1 $575 $576 $577 $578 1 $510 $-1 #
-542 coedge $-1 $577 $512 $579 $580 1 $480 $-1 #
-543 coedge $-1 $512 $577 $560 $581 1 $480 $-1 #
-544 coedge $-1 $514 $513 $512 $545 0 $441 $-1 #
-545 edge $-1 $582 $583 $544 $584 1 #
-546 coedge $-1 $517 $579 $513 $547 0 $488 $-1 #
-547 edge $-1 $582 $549 $546 $585 1 #
-548 edge $-1 $550 $583 $531 $586 0 #
-549 vertex $-1 $547 $587 #
-550 vertex $-1 $519 $588 #
-551 straight-curve $-1 0.89434788403865151 0.42868710429856144 4.3610000000000007 0 0 -1 I I #
-552 ellipse-curve $-1 0.73799999999999999 0.26000000000000001 4.2700000000000005 0 0 1 0.23000000000000001 0 0 1 I I #
-553 ellipse-curve $-1 0.73799999999999999 0.26000000000000001 4.3610000000000007 0 0 -1 0.23000000000000001 0 0 1 I I #
-554 edge $-1 $523 $589 $525 $590 1 #
-555 face $-1 $-1 $521 $2 $-1 $591 reversed single #
-556 point $-1 0.73799999999999999 0.49000000000000005 4.3610000000000007 #
-557 point $-1 0.73799999999999999 0.49000000000000005 4.2700000000000005 #
-558 coedge $-1 $592 $525 $593 $594 0 $488 $-1 #
-559 point $-1 0.20449999999999999 0.51300000000000001 4.2700000000000005 #
-560 coedge $-1 $595 $531 $543 $581 0 $439 $-1 #
-561 coedge $-1 $532 $596 $597 $598 0 $439 $-1 #
-562 coedge $-1 $599 $600 $532 $563 1 $601 $-1 #
-563 edge $-1 $602 $567 $532 $603 1 #
-564 coedge $-1 $593 $533 $600 $604 1 $566 $-1 #
-565 coedge $-1 $533 $593 $535 $569 0 $566 $-1 #
-566 loop $-1 $-1 $564 $605 #
-567 vertex $-1 $563 $606 #
-568 ellipse-curve $-1 0.41559929578036614 0.65000000000000002 4.3610000000000007 0 0 1 0.16 0 0 1 I I #
-569 edge $-1 $589 $536 $565 $607 1 #
-570 point $-1 0.41559929578036614 0.49000000000000005 4.3610000000000007 #
-571 face $-1 $605 $601 $2 $-1 $608 reversed single #
-572 loop $-1 $-1 $609 $538 #
-573 plane-surface $-1 0.029999999999999999 0.38650000000000001 4.3610000000000007 -1 -4.2178977174905202e-018 0 0 0 1 0 I I I I #
-574 coedge $-1 $610 $611 $612 $613 1 $539 $-1 #
-575 coedge $-1 $612 $541 $614 $615 1 $510 $-1 #
-576 coedge $-1 $541 $612 $595 $616 1 $510 $-1 #
-577 coedge $-1 $543 $542 $541 $578 0 $480 $-1 #
-578 edge $-1 $617 $618 $577 $619 1 #
-579 coedge $-1 $546 $614 $542 $580 0 $488 $-1 #
-580 edge $-1 $617 $582 $579 $620 0 #
-581 edge $-1 $583 $618 $560 $621 1 #
-582 vertex $-1 $580 $622 #
-583 vertex $-1 $548 $623 #
-584 straight-curve $-1 1.0813705431522815 0.25534488503832597 4.3610000000000007 0 0 -1 I I #
-585 straight-curve $-1 0.89434788403865151 0.42868710429856144 4.2700000000000005 0.73342219260248986 -0.67977340886368631 0 I I #
-586 straight-curve $-1 0.89434788403865151 0.42868710429856144 4.3610000000000007 0.73342219260248986 -0.67977340886368631 0 I I #
-587 point $-1 0.89434788403865151 0.42868710429856144 4.2700000000000005 #
-588 point $-1 0.89434788403865151 0.42868710429856144 4.3610000000000007 #
-589 vertex $-1 $554 $624 #
-590 straight-curve $-1 0.41559929578036614 0.49000000000000005 4.2700000000000005 1 0 0 I I #
-591 plane-surface $-1 0.57679964789018112 0.49000000000000005 4.3610000000000007 0 1 0 0 0 1 0 I I I I #
-592 coedge $-1 $625 $558 $626 $627 0 $488 $-1 #
-593 coedge $-1 $565 $564 $558 $594 1 $566 $-1 #
-594 edge $-1 $589 $628 $558 $629 1 #
-595 coedge $-1 $596 $560 $576 $616 0 $439 $-1 #
-596 coedge $-1 $561 $595 $611 $630 0 $439 $-1 #
-597 coedge $-1 $609 $631 $561 $598 1 $572 $-1 #
-598 edge $-1 $632 $602 $561 $633 0 #
-599 coedge $-1 $626 $562 $631 $634 1 $601 $-1 #
-600 coedge $-1 $562 $626 $564 $604 0 $601 $-1 #
-601 loop $-1 $-1 $599 $571 #
-602 vertex $-1 $598 $635 #
-603 ellipse-curve $-1 0.16 0.51300000000000001 4.3610000000000007 0 0 1 0.13 0 0 1 I I #
-604 edge $-1 $628 $567 $600 $636 1 #
-605 face $-1 $555 $566 $2 $-1 $637 forward single #
-606 point $-1 0.27457899466303148 0.57441379310498031 4.3610000000000007 #
-607 straight-curve $-1 0.41559929578036614 0.49000000000000005 4.3610000000000007 0 0 -1 I I #
-608 cone-surface $-1 0.16 0.51300000000000001 4.3610000000000007 0 0 -1 0.13 0 0 1 I I 0 1 0 I I I I #
-609 coedge $-1 $638 $597 $639 $640 1 $572 $-1 #
-610 coedge $-1 $639 $574 $641 $642 1 $539 $-1 #
-611 coedge $-1 $574 $639 $596 $630 1 $539 $-1 #
-612 coedge $-1 $576 $575 $574 $613 0 $510 $-1 #
-613 edge $-1 $643 $644 $612 $645 1 #
-614 coedge $-1 $579 $641 $575 $615 0 $488 $-1 #
-615 edge $-1 $643 $617 $614 $646 0 #
-616 edge $-1 $618 $644 $595 $647 1 #
-617 vertex $-1 $615 $648 #
-618 vertex $-1 $581 $649 #
-619 straight-curve $-1 0.99299999999999999 0.029999999999999413 4.3610000000000007 0 0 -1 I I #
-620 ellipse-curve $-1 0.99299999999999999 0.16 4.2700000000000005 0 0 1 0.13 0 0 1 I I #
-621 ellipse-curve $-1 0.99299999999999999 0.16 4.3610000000000007 0 0 1 0.13 0 0 1 I I #
-622 point $-1 1.0813705431522815 0.25534488503832597 4.2700000000000005 #
-623 point $-1 1.0813705431522815 0.25534488503832597 4.3610000000000007 #
-624 point $-1 0.41559929578036614 0.49000000000000005 4.2700000000000005 #
-625 coedge $-1 $641 $592 $638 $650 0 $488 $-1 #
-626 coedge $-1 $600 $599 $592 $627 1 $601 $-1 #
-627 edge $-1 $628 $651 $592 $652 0 #
-628 vertex $-1 $594 $653 #
-629 ellipse-curve $-1 0.41559929578036614 0.65000000000000002 4.2700000000000005 0 0 1 0.16 0 0 1 I I #
-630 edge $-1 $644 $632 $596 $654 1 #
-631 coedge $-1 $597 $638 $599 $634 0 $572 $-1 #
-632 vertex $-1 $630 $655 #
-633 straight-curve $-1 0.029999999999999999 0.26000000000000001 4.3610000000000007 0 1 0 I I #
-634 edge $-1 $651 $602 $631 $656 1 #
-635 point $-1 0.029999999999999999 0.51300000000000001 4.3610000000000007 #
-636 straight-curve $-1 0.27457899466303148 0.57441379310498031 4.3610000000000007 0 0 -1 I I #
-637 cone-surface $-1 0.41559929578036614 0.65000000000000002 4.3610000000000007 0 0 -1 0.16 0 0 1 I I 0 1 0 I I I I #
-638 coedge $-1 $631 $609 $625 $650 1 $572 $-1 #
-639 coedge $-1 $611 $610 $609 $640 0 $539 $-1 #
-640 edge $-1 $657 $632 $639 $658 1 #
-641 coedge $-1 $614 $625 $610 $642 0 $488 $-1 #
-642 edge $-1 $657 $643 $641 $659 0 #
-643 vertex $-1 $642 $660 #
-644 vertex $-1 $616 $661 #
-645 straight-curve $-1 0.26000000000000001 0.029999999999999413 4.3610000000000007 0 0 -1 I I #
-646 straight-curve $-1 0.26000000000000001 0.029999999999999413 4.2700000000000005 1 0 0 I I #
-647 straight-curve $-1 0.26000000000000001 0.029999999999999413 4.3610000000000007 1 0 0 I I #
-648 point $-1 0.99299999999999999 0.029999999999999413 4.2700000000000005 #
-649 point $-1 0.99299999999999999 0.029999999999999413 4.3610000000000007 #
-650 edge $-1 $651 $657 $625 $662 1 #
-651 vertex $-1 $627 $663 #
-652 ellipse-curve $-1 0.16 0.51300000000000001 4.2700000000000005 0 0 1 0.13 0 0 1 I I #
-653 point $-1 0.27457899466303148 0.57441379310498031 4.2700000000000005 #
-654 ellipse-curve $-1 0.26000000000000001 0.26000000000000001 4.3610000000000007 0 0 1 0.23000000000000001 0 0 1 I I #
-655 point $-1 0.029999999999999999 0.26000000000000001 4.3610000000000007 #
-656 straight-curve $-1 0.029999999999999999 0.51300000000000001 4.3610000000000007 0 0 -1 I I #
-657 vertex $-1 $650 $664 #
-658 straight-curve $-1 0.029999999999999999 0.26000000000000001 4.3610000000000007 0 0 -1 I I #
-659 ellipse-curve $-1 0.26000000000000001 0.26000000000000001 4.2700000000000005 0 0 1 0.23000000000000001 0 0 1 I I #
-660 point $-1 0.26000000000000001 0.029999999999999413 4.2700000000000005 #
-661 point $-1 0.26000000000000001 0.029999999999999413 4.3610000000000007 #
-662 straight-curve $-1 0.029999999999999999 0.26000000000000001 4.2700000000000005 0 1 0 I I #
-663 point $-1 0.029999999999999999 0.51300000000000001 4.2700000000000005 #
-664 point $-1 0.029999999999999999 0.26000000000000001 4.2700000000000005 #
End-of-ACIS-data 