  0
SECTION
  2
HEADER
  9
$ACADVER
  1
AC1009
  9
$INSBASE
 10
0.0
 20
0.0
 30
0.0
  9
$EXTMIN
 10
0.0
 20
0.0
 30
0.0
  9
$EXTMAX
 10
10.0
 20
10.0
 30
10.0
  9
$LIMMIN
 10
0.0
 20
0.0
  9
$LIMMAX
 10
12.0
 20
9.0
  9
$ORTHOMODE
 70
     0
  9
$REGENMODE
 70
     1
  9
$FILLMODE
 70
     1
  9
$QTEXTMODE
 70
     0
  9
$MIRRTEXT
 70
     1
  9
$DRAGMODE
 70
     2
  9
$LTSCALE
 40
1.0
  9
$OSMODE
 70
     0
  9
$ATTMODE
 70
     1
  9
$TEXTSIZE
 40
0.2
  9
$TRACEWID
 40
0.05
  9
$TEXTSTYLE
  7
STANDARD
  9
$CLAYER
  8
0
  9
$CELTYPE
  6
BYLAYER
  9
$CECOLOR
 62
   256
  9
$DIMSCALE
 40
1.0
  9
$DIMASZ
 40
0.18
  9
$DIMEXO
 40
0.0625
  9
$DIMDLI
 40
0.38
  9
$DIMRND
 40
0.0
  9
$DIMDLE
 40
0.0
  9
$DIMEXE
 40
0.18
  9
$DIMTP
 40
0.0
  9
$DIMTM
 40
0.0
  9
$DIMTXT
 40
0.18
  9
$DIMCEN
 40
0.09
  9
$DIMTSZ
 40
0.0
  9
$DIMTOL
 70
     0
  9
$DIMLIM
 70
     0
  9
$DIMTIH
 70
     1
  9
$DIMTOH
 70
     1
  9
$DIMSE1
 70
     0
  9
$DIMSE2
 70
     0
  9
$DIMTAD
 70
     0
  9
$DIMZIN
 70
     0
  9
$DIMBLK
  1

  9
$DIMASO
 70
     1
  9
$DIMSHO
 70
     1
  9
$DIMPOST
  1

  9
$DIMAPOST
  1

  9
$DIMALT
 70
     0
  9
$DIMALTD
 70
     2
  9
$DIMALTF
 40
25.4
  9
$DIMLFAC
 40
1.0
  9
$DIMTOFL
 70
     0
  9
$DIMTVP
 40
0.0
  9
$DIMTIX
 70
     0
  9
$DIMSOXD
 70
     0
  9
$DIMSAH
 70
     0
  9
$DIMBLK1
  1

  9
$DIMBLK2
  1

  9
$DIMSTYLE
  2
*UNNAMED
  9
$DIMCLRD
 70
     0
  9
$DIMCLRE
 70
     0
  9
$DIMCLRT
 70
     0
  9
$DIMTFAC
 40
1.0
  9
$DIMGAP
 40
0.09
  9
$LUNITS
 70
     2
  9
$LUPREC
 70
     4
  9
$SKETCHINC
 40
0.1
  9
$FILLETRAD
 40
0.0
  9
$AUNITS
 70
     0
  9
$AUPREC
 70
     0
  9
$MENU
  1
acad
  9
$ELEVATION
 40
0.0
  9
$PELEVATION
 40
0.0
  9
$THICKNESS
 40
0.0
  9
$LIMCHECK
 70
     0
  9
$BLIPMODE
 70
     1
  9
$CHAMFERA
 40
0.0
  9
$CHAMFERB
 40
0.0
  9
$SKPOLY
 70
     0
  9
$TDCREATE
 40
2449142.637805011
  9
$TDUPDATE
 40
2449142.639602094
  9
$TDINDWG
 40
0.0017970833
  9
$TDUSRTIMER
 40
0.0017970833
  9
$USRTIMER
 70
     1
  9
$ANGBASE
 50
0.0
  9
$ANGDIR
 70
     0
  9
$PDMODE
 70
     0
  9
$PDSIZE
 40
0.0
  9
$PLINEWID
 40
0.0
  9
$COORDS
 70
     0
  9
$SPLFRAME
 70
     0
  9
$SPLINETYPE
 70
     6
  9
$SPLINESEGS
 70
     8
  9
$ATTDIA
 70
     0
  9
$ATTREQ
 70
     1
  9
$HANDLING
 70
     1
  9
$HANDSEED
  5
57
  9
$SURFTAB1
 70
     6
  9
$SURFTAB2
 70
     6
  9
$SURFTYPE
 70
     6
  9
$SURFU
 70
     6
  9
$SURFV
 70
     6
  9
$UCSNAME
  2

  9
$UCSORG
 10
0.0
 20
0.0
 30
0.0
  9
$UCSXDIR
 10
1.0
 20
0.0
 30
0.0
  9
$UCSYDIR
 10
0.0
 20
1.0
 30
0.0
  9
$PUCSNAME
  2

  9
$PUCSORG
 10
0.0
 20
0.0
 30
0.0
  9
$PUCSXDIR
 10
1.0
 20
0.0
 30
0.0
  9
$PUCSYDIR
 10
0.0
 20
1.0
 30
0.0
  9
$USERI1
 70
     0
  9
$USERI2
 70
     0
  9
$USERI3
 70
     0
  9
$USERI4
 70
     0
  9
$USERI5
 70
     0
  9
$USERR1
 40
0.0
  9
$USERR2
 40
0.0
  9
$USERR3
 40
0.0
  9
$USERR4
 40
0.0
  9
$USERR5
 40
0.0
  9
$WORLDVIEW
 70
     1
  9
$SHADEDGE
 70
     3
  9
$SHADEDIF
 70
    70
  9
$TILEMODE
 70
     1
  9
$MAXACTVP
 70
    16
  9
$PINSBASE
 10
0.0
 20
0.0
 30
0.0
  9
$PLIMCHECK
 70
     0
  9
$PEXTMIN
 10
1.000000E+20
 20
1.000000E+20
 30
1.000000E+20
  9
$PEXTMAX
 10
-1.000000E+20
 20
-1.000000E+20
 30
-1.000000E+20
  9
$PLIMMIN
 10
0.0
 20
0.0
  9
$PLIMMAX
 10
12.0
 20
9.0
  9
$UNITMODE
 70
     0
  9
$VISRETAIN
 70
     0
  9
$PLINEGEN
 70
     0
  9
$PSLTSCALE
 70
     0
  9
$TREEDEPTH
 70
  3020
  9
$DWGCODEPAGE
  3
undefined
  0
ENDSEC
  0
SECTION
  2
TABLES
  0
TABLE
  2
VPORT
 70
     2
  0
VPORT
  2
*ACTIVE
 70
     0
 10
0.0
 20
0.0
 11
1.0
 21
1.0
 12
5.951095
 22
-5.443311
 13
0.0
 23
0.0
 14
1.0
 24
1.0
 15
0.0
 25
0.0
 16
20.0
 26
20.0
 36
100.0
 17
0.0
 27
0.0
 37
0.0
 40
16.329932
 41
1.594883
 42
50.0
 43
0.0
 44
0.0
 50
0.0
 51
0.0
 71
     0
 72
   100
 73
     1
 74
     1
 75
     0
 76
     0
 77
     0
 78
     0
  0
ENDTAB
  0
TABLE
  2
LTYPE
 70
     1
  0
LTYPE
  2
CONTINUOUS
 70
    64
  3
Solid line
 72
    65
 73
     0
 40
0.0
  0
ENDTAB
  0
TABLE
  2
LAYER
 70
     2
  0
LAYER
  2
0
 70
    64
 62
     7
  6
CONTINUOUS
  0
LAYER
  2
AME_FRZ
 70
    65
 62
     7
  6
CONTINUOUS
  0
ENDTAB
  0
TABLE
  2
STYLE
 70
     1
  0
STYLE
  2
STANDARD
 70
     0
 40
0.0
 41
1.0
 50
0.0
 71
     0
 42
0.2
  3
txt
  4

  0
ENDTAB
  0
TABLE
  2
VIEW
 70
     0
  0
ENDTAB
  0
TABLE
  2
UCS
 70
     0
  0
ENDTAB
  0
TABLE
  2
APPID
 70
     2
  0
APPID
  2
ACAD
 70
    64
  0
APPID
  2
AME_SOL
 70
    64
  0
ENDTAB
  0
TABLE
  2
DIMSTYLE
 70
     0
  0
ENDTAB
  0
ENDSEC
  0
SECTION
  2
BLOCKS
  0
BLOCK
  8
0
  5
1
  2
AME_NIL
 70
    64
 10
0.0
 20
0.0
 30
0.0
  1
AME_NIL
  3
AME_NIL
  0
ENDBLK
  8
0
  5
2
  0
BLOCK
  8
0
  5
4
  2
AME_SOL
 70
    64
 10
0.0
 20
0.0
 30
0.0
  1
AME_SOL
  3
AME_SOL
  0
ENDBLK
  8
0
  5
5
  0
BLOCK
  8
0
  5
7
  2
*U2
 70
    65
 10
0.0
 20
0.0
 30
0.0
  1
*U
  3
*U
  0
LINE
  8
0
 62
     0
  5
8
 10
10.0
 20
10.0
 30
0.0
 11
10.0
 21
10.0
 31
10.0
1001
AME_SOL
1070
     1
1071
       18
  0
LINE
  8
0
 62
     0
  5
9
 10
10.0
 20
10.0
 30
10.0
 11
10.0
 21
0.0
 31
10.0
1001
AME_SOL
1070
     1
1071
       17
  0
LINE
  8
0
 62
     0
  5
A
 10
0.0
 20
10.0
 30
10.0
 11
10.0
 21
10.0
 31
10.0
1001
AME_SOL
1070
     1
1071
       16
  0
LINE
  8
0
 62
     0
  5
B
 10
0.0
 20
10.0
 30
0.0
 11
0.0
 21
10.0
 31
10.0
1001
AME_SOL
1070
     1
1071
       15
  0
LINE
  8
0
 62
     0
  5
C
 10
0.0
 20
10.0
 30
10.0
 11
0.0
 21
0.0
 31
10.0
1001
AME_SOL
1070
     1
1071
       14
  0
LINE
  8
0
 62
     0
  5
D
 10
0.0
 20
0.0
 30
0.0
 11
0.0
 21
0.0
 31
10.0
1001
AME_SOL
1070
     1
1071
       13
  0
LINE
  8
0
 62
     0
  5
E
 10
10.0
 20
0.0
 30
10.0
 11
10.0
 21
0.0
 31
0.0
1001
AME_SOL
1070
     1
1071
       12
  0
LINE
  8
0
 62
     0
  5
F
 10
0.0
 20
0.0
 30
10.0
 11
10.0
 21
0.0
 31
10.0
1001
AME_SOL
1070
     1
1071
       11
  0
LINE
  8
0
 62
     0
  5
10
 10
0.0
 20
0.0
 30
0.0
 11
10.0
 21
0.0
 31
0.0
1001
AME_SOL
1070
     1
1071
       10
  0
LINE
  8
0
 62
     0
  5
11
 10
0.0
 20
10.0
 30
0.0
 11
0.0
 21
0.0
 31
0.0
1001
AME_SOL
1070
     1
1071
        9
  0
LINE
  8
0
 62
     0
  5
12
 10
10.0
 20
0.0
 30
0.0
 11
10.0
 21
10.0
 31
0.0
1001
AME_SOL
1070
     1
1071
        8
  0
LINE
  8
0
 62
     0
  5
13
 10
10.0
 20
10.0
 30
0.0
 11
0.0
 21
10.0
 31
0.0
1001
AME_SOL
1070
     1
1071
        7
  0
ENDBLK
  8
0
  5
14
  0
BLOCK
  8
0
  5
19
  2
*U3
 70
    65
 10
0.0
 20
0.0
 30
0.0
  1
*U
  3
*U
  0
CIRCLE
  8
0
 62
     0
  5
1A
 10
0.0
 20
0.0
 30
0.0
 40
2.5
1001
AME_SOL
1070
     1
1071
        5
  0
CIRCLE
  8
0
 62
     0
  5
1B
 10
0.0
 20
0.0
 30
10.0
 40
2.5
1001
AME_SOL
1070
     1
1071
        4
  0
LINE
  8
0
 62
     0
  5
1C
 10
-0.956708
 20
2.309699
 30
0.0
 11
-0.956708
 21
2.309699
 31
10.0
1001
AME_SOL
1070
     0
1071
        1
  0
LINE
  8
0
 62
     0
  5
1D
 10
-1.767767
 20
1.767767
 30
0.0
 11
-1.767767
 21
1.767767
 31
10.0
1001
AME_SOL
1070
     0
1071
        1
  0
LINE
  8
0
 62
     0
  5
1E
 10
-2.309699
 20
0.956709
 30
0.0
 11
-2.309699
 21
0.956709
 31
10.0
1001
AME_SOL
1070
     0
1071
        1
  0
LINE
  8
0
 62
     0
  5
1F
 10
-2.5
 20
0.0
 30
0.0
 11
-2.5
 21
0.0
 31
10.0
1001
AME_SOL
1070
     0
1071
        1
  0
LINE
  8
0
 62
     0
  5
20
 10
-2.309699
 20
-0.956708
 30
0.0
 11
-2.309699
 21
-0.956708
 31
10.0
1001
AME_SOL
1070
     0
1071
        1
  0
LINE
  8
0
 62
     0
  5
21
 10
-1.767767
 20
-1.767767
 30
0.0
 11
-1.767767
 21
-1.767767
 31
10.0
1001
AME_SOL
1070
     0
1071
        1
  0
LINE
  8
0
 62
     0
  5
22
 10
-0.956709
 20
-2.309699
 30
0.0
 11
-0.956709
 21
-2.309699
 31
10.0
1001
AME_SOL
1070
     0
1071
        1
  0
LINE
  8
0
 62
     0
  5
23
 10
0.0
 20
-2.5
 30
0.0
 11
0.0
 21
-2.5
 31
10.0
1001
AME_SOL
1070
     0
1071
        1
  0
LINE
  8
0
 62
     0
  5
24
 10
0.956708
 20
-2.309699
 30
0.0
 11
0.956708
 21
-2.309699
 31
10.0
1001
AME_SOL
1070
     0
1071
        1
  0
LINE
  8
0
 62
     0
  5
25
 10
1.767767
 20
-1.767767
 30
0.0
 11
1.767767
 21
-1.767767
 31
10.0
1001
AME_SOL
1070
     0
1071
        1
  0
LINE
  8
0
 62
     0
  5
26
 10
2.309699
 20
-0.956709
 30
0.0
 11
2.309699
 21
-0.956709
 31
10.0
1001
AME_SOL
1070
     0
1071
        1
  0
LINE
  8
0
 62
     0
  5
27
 10
2.5
 20
0.0
 30
0.0
 11
2.5
 21
0.0
 31
10.0
1001
AME_SOL
1070
     0
1071
        1
  0
LINE
  8
0
 62
     0
  5
28
 10
2.309699
 20
0.956709
 30
0.0
 11
2.309699
 21
0.956709
 31
10.0
1001
AME_SOL
1070
     0
1071
        1
  0
LINE
  8
0
 62
     0
  5
29
 10
1.767767
 20
1.767767
 30
0.0
 11
1.767767
 21
1.767767
 31
10.0
1001
AME_SOL
1070
     0
1071
        1
  0
LINE
  8
0
 62
     0
  5
2A
 10
0.956709
 20
2.309699
 30
0.0
 11
0.956709
 21
2.309699
 31
10.0
1001
AME_SOL
1070
     0
1071
        1
  0
LINE
  8
0
 62
     0
  5
2B
 10
0.0
 20
2.5
 30
0.0
 11
0.0
 21
2.5
 31
10.0
1001
AME_SOL
1070
     0
1071
        1
  0
ENDBLK
  8
0
  5
2C
  0
BLOCK
  8
0
  5
31
  2
*U4
 70
    65
 10
0.0
 20
0.0
 30
0.0
  1
*U
  3
*U
  0
LINE
  8
0
 62
     7
  5
32
 10
10.0
 20
10.0
 30
0.0
 11
10.0
 21
10.0
 31
10.0
1001
AME_SOL
1070
     1
1071
       21
  0
LINE
  8
0
 62
     7
  5
33
 10
10.0
 20
10.0
 30
10.0
 11
10.0
 21
0.0
 31
10.0
1001
AME_SOL
1070
     1
1071
       20
  0
LINE
  8
0
 62
     7
  5
34
 10
0.0
 20
10.0
 30
10.0
 11
10.0
 21
10.0
 31
10.0
1001
AME_SOL
1070
     1
1071
       19
  0
LINE
  8
0
 62
     7
  5
35
 10
0.0
 20
10.0
 30
0.0
 11
0.0
 21
10.0
 31
10.0
1001
AME_SOL
1070
     1
1071
       18
  0
LINE
  8
0
 62
     7
  5
36
 10
0.0
 20
10.0
 30
10.0
 11
0.0
 21
0.0
 31
10.0
1001
AME_SOL
1070
     1
1071
       17
  0
LINE
  8
0
 62
     7
  5
37
 10
0.0
 20
0.0
 30
0.0
 11
0.0
 21
0.0
 31
10.0
1001
AME_SOL
1070
     1
1071
       16
  0
LINE
  8
0
 62
     7
  5
38
 10
10.0
 20
0.0
 30
10.0
 11
10.0
 21
0.0
 31
0.0
1001
AME_SOL
1070
     1
1071
       15
  0
LINE
  8
0
 62
     7
  5
39
 10
0.0
 20
0.0
 30
10.0
 11
10.0
 21
0.0
 31
10.0
1001
AME_SOL
1070
     1
1071
       14
  0
LINE
  8
0
 62
     7
  5
3A
 10
0.0
 20
0.0
 30
0.0
 11
10.0
 21
0.0
 31
0.0
1001
AME_SOL
1070
     1
1071
       13
  0
LINE
  8
0
 62
     7
  5
3B
 10
0.0
 20
10.0
 30
0.0
 11
0.0
 21
0.0
 31
0.0
1001
AME_SOL
1070
     1
1071
       12
  0
LINE
  8
0
 62
     7
  5
3C
 10
10.0
 20
0.0
 30
0.0
 11
10.0
 21
10.0
 31
0.0
1001
AME_SOL
1070
     1
1071
       11
  0
LINE
  8
0
 62
     7
  5
3D
 10
10.0
 20
10.0
 30
0.0
 11
0.0
 21
10.0
 31
0.0
1001
AME_SOL
1070
     1
1071
       10
  0
CIRCLE
  8
0
 62
     7
  5
3E
 10
5.0
 20
5.0
 30
0.0
 40
2.5
1001
AME_SOL
1070
     1
1071
        9
  0
CIRCLE
  8
0
 62
     7
  5
3F
 10
5.0
 20
5.0
 30
10.0
 40
2.5
1001
AME_SOL
1070
     1
1071
        8
  0
LINE
  8
0
 62
     7
  5
40
 10
5.0
 20
7.5
 30
0.0
 11
5.0
 21
7.5
 31
10.0
1001
AME_SOL
1070
     0
1071
        1
  0
LINE
  8
0
 62
     7
  5
41
 10
5.956709
 20
7.309699
 30
0.0
 11
5.956709
 21
7.309699
 31
10.0
1001
AME_SOL
1070
     0
1071
        1
  0
LINE
  8
0
 62
     7
  5
42
 10
6.767767
 20
6.767767
 30
0.0
 11
6.767767
 21
6.767767
 31
10.0
1001
AME_SOL
1070
     0
1071
        1
  0
LINE
  8
0
 62
     7
  5
43
 10
7.309699
 20
5.956709
 30
0.0
 11
7.309699
 21
5.956709
 31
10.0
1001
AME_SOL
1070
     0
1071
        1
  0
LINE
  8
0
 62
     7
  5
44
 10
7.5
 20
5.0
 30
0.0
 11
7.5
 21
5.0
 31
10.0
1001
AME_SOL
1070
     0
1071
        1
  0
LINE
  8
0
 62
     7
  5
45
 10
7.309699
 20
4.043291
 30
0.0
 11
7.309699
 21
4.043291
 31
10.0
1001
AME_SOL
1070
     0
1071
        1
  0
LINE
  8
0
 62
     7
  5
46
 10
6.767766
 20
3.232233
 30
0.0
 11
6.767766
 21
3.232233
 31
10.0
1001
AME_SOL
1070
     0
1071
        1
  0
LINE
  8
0
 62
     7
  5
47
 10
5.956708
 20
2.690301
 30
0.0
 11
5.956708
 21
2.690301
 31
10.0
1001
AME_SOL
1070
     0
1071
        1
  0
LINE
  8
0
 62
     7
  5
48
 10
5.0
 20
2.5
 30
0.0
 11
5.0
 21
2.5
 31
10.0
1001
AME_SOL
1070
     0
1071
        1
  0
LINE
  8
0
 62
     7
  5
49
 10
4.043291
 20
2.690301
 30
0.0
 11
4.043291
 21
2.690301
 31
10.0
1001
AME_SOL
1070
     0
1071
        1
  0
LINE
  8
0
 62
     7
  5
4A
 10
3.232233
 20
3.232233
 30
0.0
 11
3.232233
 21
3.232233
 31
10.0
1001
AME_SOL
1070
     0
1071
        1
  0
LINE
  8
0
 62
     7
  5
4B
 10
2.690301
 20
4.043292
 30
0.0
 11
2.690301
 21
4.043292
 31
10.0
1001
AME_SOL
1070
     0
1071
        1
  0
LINE
  8
0
 62
     7
  5
4C
 10
2.5
 20
5.0
 30
0.0
 11
2.5
 21
5.0
 31
10.0
1001
AME_SOL
1070
     0
1071
        1
  0
LINE
  8
0
 62
     7
  5
4D
 10
2.690301
 20
5.956709
 30
0.0
 11
2.690301
 21
5.956709
 31
10.0
1001
AME_SOL
1070
     0
1071
        1
  0
LINE
  8
0
 62
     7
  5
4E
 10
3.232234
 20
6.767767
 30
0.0
 11
3.232234
 21
6.767767
 31
10.0
1001
AME_SOL
1070
     0
1071
        1
  0
LINE
  8
0
 62
     7
  5
4F
 10
4.043292
 20
7.309699
 30
0.0
 11
4.043292
 21
7.309699
 31
10.0
1001
AME_SOL
1070
     0
1071
        1
  0
ENDBLK
  8
0
  5
50
  0
BLOCK
  8
0
  5
54
  2
AME_MAT
 70
    64
 10
0.0
 20
0.0
 30
0.0
  1
AME_MAT
  3
AME_MAT
  0
ENDBLK
  8
0
  5
55
  0
ENDSEC
  0
SECTION
  2
ENTITIES
  0
INSERT
  8
AME_FRZ
  5
3
  2
AME_NIL
 10
0.0
 20
0.0
 30
0.0
  0
INSERT
  8
AME_FRZ
  5
6
  2
AME_SOL
 10
0.0
 20
0.0
 30
0.0
1001
AME_SOL
1000
1.0
1000
sq cm
1070
     3
1070
     0
1070
     3
1000
wire
1040
0.0
1000
NONE
1040
1.0
1000
cm
1000
gm
1000
MILD_STEEL
1070
    25
1000
CSG
1070
     3
1070
     2
1070
     3
1000
cu cm
1070
     4
1070
     0
1005
3
  0
INSERT
  8
AME_FRZ
  5
15
  2
*U2
 10
0.0
 20
0.0
 30
0.0
1001
AME_SOL
1002
{
1070
     0
1071
  1930592
1070
  1536
1010
10.0
1020
10.0
1030
10.0
1005
0
1005
0
1005
51
1040
0.0
1040
1.0
1000
MILD_STEEL
1000
0
1010
0.0
1020
0.0
1030
0.0
1010
0.0
1020
0.0
1030
1.0
1040
0.0
1002
}
  0
INSERT
  8
AME_FRZ
  5
2D
  2
*U3
 10
5.0
 20
5.0
 30
0.0
1001
AME_SOL
1002
{
1070
     0
1071
  1984720
1070
  1538
1010
2.5
1020
2.5
1030
10.0
1005
0
1005
0
1005
51
1040
0.0
1040
1.0
1000
MILD_STEEL
1000
0
1010
5.0
1020
5.0
1030
0.0
1010
0.0
1020
0.0
1030
1.0
1040
0.0
1002
}
  0
INSERT
  8
0
  5
51
  2
*U4
 10
0.0
 20
0.0
 30
0.0
1001
AME_SOL
1002
{
1070
     0
1071
  1926416
1070
  1543
1070
     0
1005
15
1005
2D
1005
0
1005
52
1005
0
1040
0.0
1040
1.0
1000
MILD_STEEL
1000
0
1002
}
  0
INSERT
  8
AME_FRZ
  5
52
  2
AME_NIL
 10
1.0
 20
1.0
 30
1.0
1001
AME_SOL
1004
E903A9FB0100F0FFFFFF000052F707000100000066900ABB66900ABB66900ABBA9082041A9082041A908204101000000FBF2020081E71F4081E71F408DF5C3BA3F0CF0403F0CF0401F0620410100EA4E08571E00FFFF00000100CB000000EA4E00000000803F0000000000000000000000000000803F0000
1004
00000000A0400000A0400000000005000000204000002040000000000000000000000000EA4E00000000803F0000000000000000000000000000803F000000000000A0400000A04000000000050000002040000020400000000000000000FFFFFFFF4DEA0F000000967500000000803F0000000000000000
1004
000000000000803F00000000A66281400EE9E940000000000200B3A382E0B3A38260000000000000000002000000B3A382E00000000000002041B3A38260010000000000000000002041020035FFFFFF35FFFFFF0100000000000000000020414DEA0E000000967500000000803F00000000000000000000
1004
00000000803F00000000EADC4E408C91D840000000000200B3A382E0B3A38260000000000000000002000000B3A382E00000000000002041B3A38260010000000000000000002041020035FFFFFF35FFFFFF0100000000000000000020414DEA0D000000967500000000803F000000000000000000000000
1004
0000803F00000000E62D2C405D9DBE40000000000200B3A382E0B3A38260000000000000000002000000B3A382E00000000000002041B3A38260010000000000000000002041020035FFFFFF35FFFFFF0100000000000000000020414DEA0C000000967500000000803F0000000000000000000000000000
1004
803F00000000000020400000A040000000000200B3A382E0B3A38260000000000000000002000000B3A382E00000000000002041B3A38260010000000000000000002041020035FFFFFF35FFFFFF0100000000000000000020414DEA0B000000967500000000803F0000000000000000000000000000803F
1004
00000000E42D2C40A5628140000000000200B3A382E0B3A38260000000000000000002000000B3A382E00000000000002041B3A38260010000000000000000002041020035FFFFFF35FFFFFF0100000000000000000020414DEA0A000000967500000000803F0000000000000000000000000000803F0000
1004
0000E7DC4E40E7DC4E40000000000200B3A382E0B3A38260000000000000000002000000B3A382E00000000000002041B3A38260010000000000000000002041020035FFFFFF35FFFFFF0100000000000000000020414DEA09000000967500000000803F0000000000000000000000000000803F00000000
1004
A4628140E52D2C40000000000200B3A382E0B3A38260000000000000000002000000B3A382E00000000000002041B3A38260010000000000000000002041020035FFFFFF35FFFFFF0100000000000000000020414DEA08000000967500000000803F0000000000000000000000000000803F000000000000
1004
A04000002040000000000200B3A382E0B3A38260000000000000000002000000B3A382E00000000000002041B3A38260010000000000000000002041020035FFFFFF35FFFFFF0100000000000000000020414DEA07000000967500000000803F0000000000000000000000000000803F000000005A9DBE40
1004
E52D2C40000000000200B3A382E0B3A38260000000000000000002000000B3A382E00000000000002041B3A38260010000000000000000002041020035FFFFFF35FFFFFF0100000000000000000020414DEA06000000967500000000803F0000000000000000000000000000803F000000008B91D840E7DC
1004
4E40000000000200B3A382E0B3A38260000000000000000002000000B3A382E00000000000002041B3A38260010000000000000000002041020035FFFFFF35FFFFFF0100000000000000000020414DEA05000000967500000000803F0000000000000000000000000000803F000000000EE9E940A4628140
1004
000000000200B3A382E0B3A38260000000000000000002000000B3A382E00000000000002041B3A38260010000000000000000002041020035FFFFFF35FFFFFF0100000000000000000020414DEA04000000967500000000803F0000000000000000000000000000803F000000000000F0400000A0400000
1004
00000200B3A382E0B3A38260000000000000000002000000B3A382E00000000000002041B3A38260010000000000000000002041020035FFFFFF35FFFFFF0100000000000000000020414DEA03000000967500000000803F0000000000000000000000000000803F000000000EE9E9405C9DBE4000000000
1004
0200B3A382E0B3A38260000000000000000002000000B3A382E00000000000002041B3A38260010000000000000000002041020035FFFFFF35FFFFFF0100000000000000000020414DEA02000000967500000000803F0000000000000000000000000000803F000000008C91D8408C91D840000000000200
1004
B3A382E0B3A38260000000000000000002000000B3A382E00000000000002041B3A38260010000000000000000002041020035FFFFFF35FFFFFF0100000000000000000020414DEA01000000967500000000803F0000000000000000000000000000803F000000005C9DBE400EE9E940000000000200B3A3
1004
82E0B3A38260000000000000000002000000B3A382E00000000000002041B3A38260010000000000000000002041020035FFFFFF35FFFFFF0100000000000000000020414DEA00000000967500000000803F0000000000000000000000000000803F000000000000A0400000F040000000000200B3A382E0
1004
B3A38260000000000000000002000000B3A382E00000000000002041B3A38260010000000000000000002041020035FFFFFF35FFFFFF010000000000000000002041FBF2050066900ABB66900ABB66900ABBA9082041A908204166900A3B0100844EA8F51D0001000000010032010000844E000000000000
1004
0000803F000000000000803F000000000000000000000000000000000000000005000000000000000000000000000000000000000000844E0000000000000000803F000000000000803F000000000000000000000000000000000000000005000000000000000000000000000000000001000000FBF20400
1004
66900ABB66900ABB66900ABBA908204166900A3BA90820410100844E98F61D0001000000010031010000844E00000000803F000000000000000000000000000000000000803F00000000000000000000000005000000000000000000000000000000000000000000844E00000000803F0000000000000000
1004
00000000000000000000803F00000000000000000000000005000000000000000000000000000000000001000000FBF2040066900ABB66900ABB66900ABB66900A3BA9082041A90820410100844E88F71D0001000000010030010000844E000000000000000000000000803F000000000000803F00000000
1004
00000000000000000000000005000000000000000000000000000000000000000000844E000000000000000000000000803F000000000000803F0000000000000000000000000000000005000000000000000000000000000000000001000000FBF2050066900ABB66900ABB57F71F41A9082041A9082041
1004
A90820410100844E78F81D000100000001002F010000844E0000000080BF000000800000008000000080000080BF0000008000002041000020410000204105000000000000000000000000000000000000000000844E0000000080BF000000800000008000000080000080BF000000800000204100002041
1004
0000204105000000000000000000000000000000000001000000FBF2040066900ABB57F71F4166900ABBA9082041A9082041A90820410100844E68F91D000100000001002E010000844E00000000008000000080000080BF000080BF00000080000000800000204100002041000020410500000000000000
1004
0000000000000000000000000000844E00000000008000000080000080BF000080BF000000800000008000002041000020410000204105000000000000000000000000000000000001000000FBF2040057F71F4166900ABB66900ABBA9082041A9082041A90820410100844E58FA1D000100000001002D01
1004
0000844E000000000080000080BF000000800000008000000080000080BF00002041000020410000204105000000000000000000000000000000000000000000844E000000000080000080BF000000800000008000000080000080BF00002041000020410000204105000000000000000000000000000000
1004
000001000000A4EE81E71F4081E71F4057F71F413F0CF0403F0CF0401F062041DB0F49C0DB0F49400200FC75B0FA1D0000000100FFFF08571E0078F81D000000020078F81D0008571E0001000000FFFFFFFFFC7500000000803F0000000000000000000000000000803F000000000000A0400000A0400000
1004
204104000000204000002040DB0F49C0DB0F4940A4EE81E71F4081E71F408DF5C3BA3F0CF0403F0CF04066900A3BDB0F49C0DB0F49400200FC75A0FB1D000000FFFF010008571E00A8F51D000000020008571E00A8F51D00FFFFFFFF01000000FC7500000000803F0000000000000000000000000000803F
1004
000000000000A0400000A0400000000004000000204000002040DB0F49C0DB0F4940A4EE66900ABB57F71F4166900ABBA9082041A908204166900A3B0000A0C00000A0400200967590FC1D000000FFFF0100A8F51D0068F91D0000000200A8F51D0068F91D00010000000100000096750000000000000000
1004
803F000000000000000000000000000080BF0000A040000020410000000002000000A0C00000A040A4EE57F71F4166900ABB66900ABBA9082041A908204166900A3B0000A0C00000A0400200967580FD1D000000FFFF0100A8F51D0058FA1D0000000200A8F51D0058FA1D00010000000100000096750000
1004
0000803F00000000000000000000000000000000000080BF000020410000A0400000000002000000A0C00000A040A4EE66900ABB66900ABB66900ABB66900A3BA908204166900A3B000020C1000000800200967570FE1D000000FFFF0100A8F51D0088F71D0000000200A8F51D0088F71D00010000000100
1004
000096750000000080BF00000000000000000000000000000000000080BF0000000000000000000000000200000020C100000080A4EE66900ABB66900ABB66900ABBA908204166900A3B66900A3B00000000000020410200967560FF1D000000FFFF0100A8F51D0098F61D0000000200A8F51D0098F61D00
1004
01000000010000009675000000000000000080BF000000000000000000000000000080BF00000000000000000000000002000000000000002041A4EE66900ABB66900ABB57F71F41A908204166900A3BA90820410000A0C00000A0400200967550001E000000FFFF010098F61D0078F81D000000020098F6
1004
1D0078F81D0001000000010000009675000000000000000000000000803F00000000000080BF000000000000A040000000000000204102000000A0C00000A040A4EE57F71F4166900ABB66900ABBA908204166900A3BA90820410000A0C00000A0400200967540011E000000FFFF010098F61D0058FA1D00
1004
0000020098F61D0058FA1D000100000001000000967500000000803F000000000000000000000000000080BF0000000000002041000000000000A04002000000A0C00000A040A4EE66900ABB66900ABB66900ABB66900A3B66900A3BA908204100000000000020410200967530021E000000FFFF010098F6
1004
1D0088F71D000000020098F61D0088F71D00010000000100000096750000000080BF000000000000000000000000000080BF0000000000000000000000000000000002000000000000002041A4EE66900ABB66900ABB57F71F4166900A3BA9082041A90820410000A0C00000A0400200967520031E000000
1004
FFFF010088F71D0078F81D000000020088F71D0078F81D0001000000010000009675000000000000000000000000803F000080BF0000000000000000000000000000A0400000204102000000A0C00000A040A4EE66900ABB57F71F4166900ABB66900A3BA9082041A90820410000A0C00000A04002009675
1004
10041E000000FFFF010088F71D0068F91D000000020088F71D0068F91D00010000000100000096750000000000000000803F00000000000080BF000000000000000000000000000020410000A04002000000A0C00000A040A4EE66900ABB57F71F4157F71F41A9082041A9082041A9082041000020C10000
1004
00800200967500051E000000FFFF010078F81D0068F91D000000020078F81D0068F91D00010000000100000096750000000000000000803F0000000000000000000000000000803F0000204100002041000020410200000020C100000080A4EE57F71F4166900ABB57F71F41A9082041A9082041A9082041
1004
000000000000204102009675F0051E000000FFFF010078F81D0058FA1D000000020078F81D0058FA1D000100000001000000967500000000803F000000000000000000000080000000000000803F00002041000020410000204102000000000000002041A4EE57F71F4157F71F4166900ABBA9082041A908
1004
2041A9082041000020C10000008002009675E0061E000000FFFF010068F91D0058FA1D000000020068F91D0058FA1D000100000001000000967500000000803F0000000000000000000000000000803F000000000000204100002041000020410200000020C10000008019FC
1005
53
  0
INSERT
  8
AME_FRZ
  5
53
  2
AME_NIL
 10
1.0
 20
1.0
 30
1.0
1001
AME_SOL
1004

1005
0
  0
INSERT
  8
AME_FRZ
  5
56
  2
AME_MAT
 10
0.0
 20
0.0
 30
0.0
1001
AME_SOL
1000
MILD_STEEL
1040
7860.0
1040
220.0
1040
0.275
1040
207.0
1040
345.0
1040
56.0
1040
12.0
1040
0.46
  0
ENDSEC
  0
EOF
