600 0 1 0           
105 GICL ACIS Healer - Source: /gicl/data5/repository/ICEM-CDC/Fixture_Models/HookClamp3/HookClamp3.sat - 6 0 18 ACIS 6.0.3 Solaris 24 Sat Apr 13 23:06:45 2002 
1 9.999999999999999547e-07 1.000000000000000036e-10 
body $-1 $1 $-1 $2 #
lump $-1 $-1 $3 $0 #
transform $-1 1 0 0 0 1 0 0 0 1 0 0 0 1 no_rotate no_reflect no_shear #
shell $-1 $-1 $-1 $4 $-1 $1 #
face $5 $6 $7 $3 $-1 $8 reversed single #
face_name-twe-attrib $-1 $-1 $-1 $4 1 #
face $9 $10 $11 $3 $-1 $12 forward single #
loop $13 $14 $15 $4 #
plane-surface $16 0 0 0 0 -1 0 0 0 -1 forward_v I I I I #
face_name-twe-attrib $-1 $-1 $-1 $6 2 #
face $17 $18 $19 $3 $-1 $20 forward single #
loop $21 $22 $23 $6 #
plane-surface $24 0 -0.8179999999999999494 0 0 -1 0 0 0 -1 forward_v I I I I #
loop_type-twe-attrib $-1 $-1 $-1 $7 0 #
loop $25 $-1 $26 $4 #
coedge $-1 $27 $28 $29 $30 reversed $7 $-1 #
surf-twe-attrib $-1 $-1 $-1 $8 4 #
face_name-twe-attrib $-1 $-1 $-1 $10 3 #
face $31 $32 $33 $3 $-1 $34 forward single #
loop $35 $-1 $29 $10 #
cone-surface $36 0 0 0 0 -1 0 -0.6899999999999999467 0 0 1 I I 0 1 0.6899999999999999467 forward I I I I #
loop_type-twe-attrib $-1 $-1 $-1 $11 0 #
loop $37 $-1 $38 $6 #
coedge $-1 $39 $40 $41 $42 reversed $11 $-1 #
surf-twe-attrib $-1 $-1 $-1 $12 6 #
loop_type-twe-attrib $-1 $-1 $-1 $14 1 #
coedge $-1 $26 $26 $43 $44 reversed $14 $-1 #
coedge $-1 $45 $15 $46 $47 reversed $7 $-1 #
coedge $-1 $15 $45 $48 $49 forward $7 $-1 #
coedge $-1 $50 $51 $15 $30 forward $19 $-1 #
edge $52 $53 2.632955258214442207 $54 6.283185307179586232 $29 $55 forward 7 unknown #
face_name-twe-attrib $-1 $-1 $-1 $18 4 #
face $56 $57 $58 $3 $-1 $59 forward single #
loop $60 $-1 $61 $18 #
plane-surface $62 1.300000000000000044 0 -0.6899999999999999467 0.9975640502598243087 0.06975647374412502488 0 0 0 -1 forward_v I I I I #
loop_type-twe-attrib $-1 $-1 $-1 $19 0 #
surf-twe-attrib $-1 $-1 $-1 $20 10 #
loop_type-twe-attrib $-1 $-1 $-1 $22 1 #
coedge $-1 $38 $38 $63 $64 forward $22 $-1 #
coedge $-1 $65 $23 $66 $67 forward $11 $-1 #
coedge $-1 $23 $65 $68 $69 reversed $11 $-1 #
coedge $-1 $51 $50 $23 $42 forward $19 $-1 #
edge $70 $71 2.632955258214445315 $72 6.283185307179586232 $41 $73 forward 7 unknown #
coedge $-1 $43 $43 $26 $44 forward $74 $-1 #
edge $75 $76 0 $76 6.283185307179586232 $43 $77 forward 7 unknown #
coedge $-1 $28 $27 $78 $79 forward $7 $-1 #
coedge $-1 $80 $81 $27 $47 forward $82 $-1 #
edge $83 $84 -1.163840624827986447 $53 0 $46 $85 forward 7 unknown #
coedge $-1 $86 $87 $28 $49 reversed $88 $-1 #
edge $89 $90 -1.163840624827986447 $54 0 $48 $91 forward 7 unknown #
coedge $-1 $41 $29 $87 $92 forward $19 $-1 #
coedge $-1 $29 $41 $80 $93 reversed $19 $-1 #
edge_name-twe-attrib $-1 $-1 $-1 $30 1 8704 #
vertex $-1 $93 $94 #
vertex $-1 $92 $95 #
ellipse-curve $96 0 0 0 0 -1 0 0.1735943944422040086 0 -0.6678060992670290519 1 I I #
face_name-twe-attrib $-1 $-1 $-1 $32 5 #
face $97 $98 $88 $3 $-1 $99 reversed single #
loop $100 $-1 $101 $32 #
cone-surface $102 1.120000000000000107 -0.4423619804400980016 -0.6899999999999999467 0 0 1 0.4165380195599019952 0 0 1 I I 0 1 0.4165380195599019952 forward I I I I #
loop_type-twe-attrib $-1 $-1 $-1 $33 0 #
coedge $-1 $103 $78 $81 $104 reversed $33 $-1 #
surf-twe-attrib $-1 $-1 $-1 $34 18 #
coedge $-1 $63 $63 $38 $64 reversed $105 $-1 #
edge $106 $107 -3.141592653589793116 $107 3.141592653589793116 $63 $108 forward 7 unknown #
coedge $-1 $40 $39 $109 $110 reversed $11 $-1 #
coedge $-1 $87 $111 $39 $67 reversed $88 $-1 #
edge $112 $71 -0.7918763671300731444 $113 0 $66 $114 forward 7 unknown #
coedge $-1 $115 $80 $40 $69 forward $82 $-1 #
edge $116 $72 -0.7918763671300731444 $117 0 $68 $118 forward 7 unknown #
edge_name-twe-attrib $-1 $-1 $-1 $42 2 8704 #
vertex $-1 $92 $119 #
vertex $-1 $93 $120 #
ellipse-curve $121 0 -0.8180000000000009486 0 0 1 0 0.1735943944422030094 0 0.6678060992670290519 1 I I #
loop $122 $123 $43 $124 #
edge_name-twe-attrib $-1 $-1 $-1 $44 20 8704 #
vertex $-1 $44 $125 #
ellipse-curve $126 0 0 0 0 1 0 -0.5 0 0 1 I I #
coedge $-1 $61 $127 $45 $79 reversed $33 $-1 #
edge $128 $84 -0.75 $90 0 $78 $129 forward 7 unknown #
coedge $-1 $68 $46 $51 $93 forward $82 $-1 #
coedge $-1 $46 $115 $61 $104 forward $82 $-1 #
loop $130 $-1 $46 $98 #
edge_name-twe-attrib $-1 $-1 $-1 $47 11 8704 #
vertex $-1 $104 $131 #
straight-curve $132 0.1735943944422040086 0 0.6678060992670290519 -0.9678349264739549707 0 0.2515860789017440036 I I #
coedge $-1 $111 $48 $127 $133 reversed $88 $-1 #
coedge $-1 $48 $66 $50 $92 reversed $88 $-1 #
loop $134 $-1 $48 $57 #
edge_name-twe-attrib $-1 $-1 $-1 $49 6 8704 #
vertex $-1 $133 $135 #
straight-curve $136 0.1735943944422040086 0 -0.6678060992670290519 -0.9678349264739549707 0 -0.2515860789017440036 I I #
edge $137 $54 -0.8179999999999999494 $71 0 $87 $138 forward 7 unknown #
edge $139 $53 -0.8179999999999999494 $72 0 $80 $140 forward 7 unknown #
point $-1 0.1735943944422040086 0 0.6678060992670290519 #
point $-1 0.1735943944422040086 0 -0.6678060992670290519 #
cur-twe-attrib $-1 $-1 $-1 $55 30 #
face_name-twe-attrib $-1 $-1 $-1 $57 6 #
face $141 $142 $82 $3 $-1 $143 forward single #
plane-surface $144 0.1735943944422030094 -0.8591511628498910147 -0.6678060992670290519 -0.2515860789017439481 0 0.9678349264739547486 0.9678349264739549707 0 0.2515860789017440036 forward_v I I I I #
loop_type-twe-attrib $-1 $-1 $-1 $58 0 #
coedge $-1 $109 $145 $115 $146 reversed $58 $-1 #
surf-twe-attrib $-1 $-1 $-1 $59 32 #
coedge $-1 $127 $61 $145 $147 forward $33 $-1 #
edge $148 $149 -0.7883403715025546488 $84 0 $81 $150 forward 7 unknown #
loop $151 $152 $63 $153 #
edge_name-twe-attrib $-1 $-1 $-1 $64 16 4608 #
vertex $-1 $64 $154 #
ellipse-curve $155 0 -0.8179999999999999494 0 0 1 0 0.5625 0 0 1 I I #
coedge $-1 $156 $101 $65 $110 forward $58 $-1 #
edge $157 $117 -0.9371620581716320064 $113 0 $109 $158 forward 7 unknown #
coedge $-1 $66 $86 $156 $159 forward $88 $-1 #
edge_name-twe-attrib $-1 $-1 $-1 $67 9 8704 #
vertex $-1 $67 $160 #
straight-curve $161 0.9399999999999999467 -0.8179999999999999494 -0.4685810290858160032 0.9678349264739549707 0 0.2515860789017440036 I I #
coedge $-1 $81 $68 $101 $146 forward $82 $-1 #
edge_name-twe-attrib $-1 $-1 $-1 $69 13 8704 #
vertex $-1 $110 $162 #
straight-curve $163 0.9399999999999999467 -0.8179999999999999494 0.4685810290858160032 0.9678349264739549707 0 -0.2515860789017440036 I I #
point $-1 0.1735943944422030094 -0.8179999999999999494 -0.6678060992670290519 #
point $-1 0.1735943944422030094 -0.8179999999999999494 0.6678060992670290519 #
cur-twe-attrib $-1 $-1 $-1 $73 42 #
loop_type-twe-attrib $-1 $-1 $-1 $74 0 #
loop $164 $-1 $165 $124 #
face $166 $167 $74 $3 $-1 $168 reversed single #
point $-1 -0.5 0 0 #
cur-twe-attrib $-1 $-1 $-1 $77 44 #
coedge $-1 $78 $103 $86 $133 forward $33 $-1 #
edge_name-twe-attrib $-1 $-1 $-1 $79 3 8448 #
straight-curve $169 1.300000000000000044 0 -0.375 0 0 -1 I I #
loop_type-twe-attrib $-1 $-1 $-1 $82 0 #
point $-1 1.300000000000000044 0 0.375 #
cur-twe-attrib $-1 $-1 $-1 $85 47 #
edge $170 $171 -0.7883403715025546488 $90 0 $86 $172 forward 7 unknown #
loop_type-twe-attrib $-1 $-1 $-1 $88 0 #
point $-1 1.300000000000000044 0 -0.375 #
cur-twe-attrib $-1 $-1 $-1 $91 49 #
edge_name-twe-attrib $-1 $-1 $-1 $92 10 24576 #
straight-curve $173 0.1735943944422030094 -0.8179999999999999494 -0.6678060992670290519 -1.221516775259949948e-15 -1 0 I I #
edge_name-twe-attrib $-1 $-1 $-1 $93 12 24576 #
straight-curve $174 0.1735943944422030094 -0.8179999999999999494 0.6678060992670290519 -1.221516775259949948e-15 -1 0 I I #
face_name-twe-attrib $-1 $-1 $-1 $98 7 #
face $175 $153 $176 $3 $-1 $177 forward single #
plane-surface $178 0.1735943944422030094 -0.8591511628498910147 0.6678060992670290519 0.2515860789017439481 0 0.9678349264739547486 0.9678349264739549707 0 -0.2515860789017440036 forward_v I I I I #
surf-twe-attrib $-1 $-1 $-1 $99 57 #
coedge $-1 $101 $156 $103 $147 reversed $58 $-1 #
edge $179 $117 0 $149 0.448739959407458977 $115 $180 forward 7 unknown #
edge $181 $149 -0.7214147358233159446 $171 0 $145 $182 forward 7 unknown #
edge_name-twe-attrib $-1 $-1 $-1 $104 15 8448 #
vertex $-1 $147 $183 #
straight-curve $184 1.300000000000000044 0 0.375 -0.06974500839961729481 0.9974000881944999897 0.01813002683231949852 I I #
loop_type-twe-attrib $-1 $-1 $-1 $105 0 #
loop $185 $-1 $186 $153 #
face $187 $188 $105 $3 $-1 $189 forward single #
point $-1 -0.5625 -0.8179999999999999494 0 #
cur-twe-attrib $-1 $-1 $-1 $108 64 #
coedge $-1 $145 $109 $111 $159 reversed $58 $-1 #
edge_name-twe-attrib $-1 $-1 $-1 $110 4 4352 #
straight-curve $190 0.9399999999999999467 -0.8179999999999999494 -0.4685810290858160032 0 0 -1 I I #
edge $191 $171 0 $113 0.4487399594074579778 $111 $192 forward 7 unknown #
point $-1 0.9399999999999999467 -0.8179999999999999494 -0.4685810290858160032 #
cur-twe-attrib $-1 $-1 $-1 $114 67 #
point $-1 0.9399999999999999467 -0.8179999999999999494 0.4685810290858160032 #
cur-twe-attrib $-1 $-1 $-1 $118 69 #
loop_type-twe-attrib $-1 $-1 $-1 $123 1 #
coedge $-1 $165 $165 $193 $194 reversed $123 $-1 #
face_name-twe-attrib $-1 $-1 $-1 $124 12 #
face $195 $196 $197 $3 $-1 $198 reversed single #
cone-surface $199 0 0.1323999999999999899 0 0 -1 0 -0.5 0 0 1 I I 0 1 0.5 forward I I I I #
cur-twe-attrib $-1 $-1 $-1 $129 79 #
edge_name-twe-attrib $-1 $-1 $-1 $133 7 8448 #
vertex $-1 $147 $200 #
straight-curve $201 1.300000000000000044 0 -0.375 -0.06974500839961729481 0.9974000881944999897 -0.01813002683231949852 I I #
cur-twe-attrib $-1 $-1 $-1 $138 92 #
cur-twe-attrib $-1 $-1 $-1 $140 93 #
face_name-twe-attrib $-1 $-1 $-1 $142 8 #
loop $202 $203 $204 $142 #
plane-surface $205 0 -2.648000000000000131 0 0 -1 0 0 0 -1 forward_v I I I I #
surf-twe-attrib $-1 $-1 $-1 $143 98 #
edge_name-twe-attrib $-1 $-1 $-1 $146 14 8448 #
intcurve-curve $206 forward { exactcur full nubs 3 open 10 
	0 3 0.04929657340320379999 1 0.09913589094537260393 1 0.149354733488061997 1 0.1997742232947130048 1 
	0.2502154482334010277 1 0.3005056054932940257 1 0.3504676389397010094 1 0.3999296509801240074 1 0.448739959407458977 3 
	0.9399999999999999467 -0.8179999999999999494 0.4685810290858160032 
	0.9544275830091969448 -0.8249134773543369548 0.4648306177935330186 
	0.9842283334807669926 -0.8371341625839849865 0.4570839930805910001 
	1.030822299275480081 -0.8502065983823500206 0.4449720173354290154 
	1.078911368153099959 -0.8578246509175520007 0.4324713935761340111 
	1.127718872631199964 -0.8597836698936479616 0.4197840144201019918 
	1.176450969839250016 -0.8560195754554500436 0.4071162371805490121 
	1.224311173238930017 -0.8466060555636040208 0.3946751063849959773 
	1.270531440016539948 -0.8317518440477249531 0.3826602726914700159 
	1.314387825649800057 -0.8117999682077049473 0.3712599235260680142 
	1.341847982781370074 -0.7952648745249339957 0.3641217297393180008 
	1.354982805832199988 -0.7862907560639329496 0.3607073679116579723 
	0 
	null_surface 
	null_surface 
	nullbs 
	nullbs 
	I I 
	0 
	0 
	8 0.04929657340320379999 0.09913589094537260393 0.149354733488061997 0.1997742232947130048 0.2502154482334010277 0.3005056054932940257 0.3504676389397010094 0.3999296509801240074 
	F 1 F 0 } I I #
edge_name-twe-attrib $-1 $-1 $-1 $147 5 8448 #
straight-curve $207 1.354982805832199988 -0.7862907560639329496 -0.3607073679116579723 0 0 -1 I I #
point $-1 1.354982805832199988 -0.7862907560639329496 0.3607073679116579723 #
cur-twe-attrib $-1 $-1 $-1 $150 104 #
loop_type-twe-attrib $-1 $-1 $-1 $152 1 #
coedge $-1 $186 $186 $204 $208 forward $152 $-1 #
face_name-twe-attrib $-1 $-1 $-1 $153 9 #
face $209 $210 $211 $3 $-1 $212 reversed single #
cone-surface $213 0 -0.8179999999999999494 0 0 -1 0 -0.5625 0 0 1 I I 0 1 0.5625 forward I I I I #
cur-twe-attrib $-1 $-1 $-1 $158 110 #
edge_name-twe-attrib $-1 $-1 $-1 $159 8 8448 #
intcurve-curve $214 forward { exactcur full nubs 3 open 10 
	0 3 0.04881030842733429659 1 0.09827232046775599694 1 0.1482343539141650068 1 0.1985245111740580048 1 
	0.248965736112746 1 0.2993852259193959808 1 0.3496040684620860262 1 0.3994433860042539974 1 0.4487399594074579778 3 
	1.354982805832199988 -0.7862907560639329496 -0.3607073679116579723 
	1.341847982781370074 -0.7952648745249339957 -0.3641217297393180008 
	1.314387825649800057 -0.8117999682077059465 -0.3712599235260680142 
	1.270531440016539948 -0.8317518440477239539 -0.3826602726914700159 
	1.224311173238930017 -0.8466060555636040208 -0.3946751063849959773 
	1.176450969839250016 -0.8560195754554500436 -0.4071162371805490121 
	1.127718872631199964 -0.8597836698936479616 -0.4197840144201019918 
	1.078911368153099959 -0.8578246509175500023 -0.4324713935761340111 
	1.030822299275480081 -0.8502065983823500206 -0.4449720173354290154 
	0.9842283334807669926 -0.8371341625839839873 -0.4570839930805910001 
	0.9544275830091969448 -0.824913477354337954 -0.4648306177935330186 
	0.9399999999999999467 -0.8179999999999999494 -0.4685810290858160032 
	0 
	null_surface 
	null_surface 
	nullbs 
	nullbs 
	I I 
	0 
	0 
	8 0.04881030842733429659 0.09827232046775599694 0.1482343539141650068 0.1985245111740580048 0.248965736112746 0.2993852259193959808 0.3496040684620860262 0.3994433860042539974 
	F 1 F 0 } I I #
coedge $-1 $193 $193 $165 $194 forward $215 $-1 #
edge $216 $217 -3.141592653589793116 $217 3.141592653589793116 $193 $218 forward 7 unknown #
face_name-twe-attrib $-1 $-1 $-1 $167 13 #
face $219 $-1 $220 $3 $-1 $221 reversed single #
loop $222 $223 $224 $167 #
cone-surface $225 0 0.1323999999999999899 0 0 -1 0 -0.3280000000000000138 0 0 1 I I 0 1 0.3280000000000000138 forward I I I I #
surf-twe-attrib $-1 $-1 $-1 $168 124 #
point $-1 1.354982805832199988 -0.7862907560639329496 -0.3607073679116579723 #
cur-twe-attrib $-1 $-1 $-1 $172 133 #
loop_type-twe-attrib $-1 $-1 $-1 $176 0 #
loop $226 $-1 $227 $142 #
coedge $-1 $204 $204 $186 $208 reversed $176 $-1 #
surf-twe-attrib $-1 $-1 $-1 $177 142 #
cur-twe-attrib $-1 $-1 $-1 $180 146 #
cur-twe-attrib $-1 $-1 $-1 $182 147 #
edge $228 $229 0 $229 6.283185307179586232 $186 $230 forward 7 unknown #
face_name-twe-attrib $-1 $-1 $-1 $188 10 #
face $231 $124 $232 $3 $-1 $233 forward single #
loop $234 $215 $235 $188 #
plane-surface $236 0 -0.5 0 0 -1 0 0 0 -1 forward_v I I I I #
surf-twe-attrib $-1 $-1 $-1 $189 153 #
cur-twe-attrib $-1 $-1 $-1 $192 159 #
loop $237 $-1 $193 $188 #
edge_name-twe-attrib $-1 $-1 $-1 $194 18 4608 #
vertex $-1 $194 $238 #
ellipse-curve $239 0 -0.5 0 0 1 0 -0.5 0 0 1 I I #
face_name-twe-attrib $-1 $-1 $-1 $196 14 #
loop $240 $241 $242 $196 #
cone-surface $243 0 0.1323999999999999899 0 0 -1 0 -0.46875 0 0 1 I I 0 1 0.46875 forward I I I I #
loop_type-twe-attrib $-1 $-1 $-1 $197 0 #
loop $244 $-1 $245 $167 #
coedge $-1 $224 $224 $235 $246 reversed $197 $-1 #
surf-twe-attrib $-1 $-1 $-1 $198 167 #
loop_type-twe-attrib $-1 $-1 $-1 $203 1 #
coedge $-1 $227 $227 $247 $248 forward $203 $-1 #
edge_name-twe-attrib $-1 $-1 $-1 $208 17 8704 #
vertex $-1 $208 $249 #
ellipse-curve $250 0 -2.648000000000000131 0 -2.000000000000000155e-15 1 0 -0.5625 -1.12499999999999994e-15 0 1 I I #
face_name-twe-attrib $-1 $-1 $-1 $210 11 #
loop $251 $252 $253 $210 #
plane-surface $254 0 -1.947999999999999954 0 0 -1 0 0 0 -1 forward_v I I I I #
loop_type-twe-attrib $-1 $-1 $-1 $211 1 #
coedge $-1 $235 $235 $224 $246 forward $211 $-1 #
surf-twe-attrib $-1 $-1 $-1 $212 188 #
loop_type-twe-attrib $-1 $-1 $-1 $215 0 #
point $-1 0.5 -0.5 6.12323293943686042e-17 #
cur-twe-attrib $-1 $-1 $-1 $218 194 #
loop_type-twe-attrib $-1 $-1 $-1 $220 0 #
loop $255 $-1 $247 $196 #
coedge $-1 $242 $242 $253 $256 reversed $220 $-1 #
surf-twe-attrib $-1 $-1 $-1 $221 196 #
loop_type-twe-attrib $-1 $-1 $-1 $223 1 #
coedge $-1 $245 $245 $257 $258 reversed $223 $-1 #
edge $259 $260 0 $260 6.283185307179586232 $224 $261 forward 7 unknown #
coedge $-1 $247 $247 $227 $248 reversed $241 $-1 #
edge $262 $263 -3.141592653589793116 $263 3.141592653589793116 $247 $264 forward 7 unknown #
point $-1 -0.5625 -2.648000000000000131 0 #
cur-twe-attrib $-1 $-1 $-1 $230 208 #
loop_type-twe-attrib $-1 $-1 $-1 $232 0 #
loop $265 $-1 $257 $210 #
coedge $-1 $253 $253 $242 $256 forward $232 $-1 #
surf-twe-attrib $-1 $-1 $-1 $233 210 #
loop_type-twe-attrib $-1 $-1 $-1 $241 1 #
edge $266 $267 0 $267 6.283185307179586232 $242 $268 forward 7 unknown #
coedge $-1 $257 $257 $245 $258 forward $252 $-1 #
edge $269 $270 -3.141592653589793116 $270 3.141592653589793116 $257 $271 forward 7 unknown #
edge_name-twe-attrib $-1 $-1 $-1 $246 21 8704 #
vertex $-1 $246 $272 #
ellipse-curve $273 0 -0.5 0 0 -1 0 -0.3280000000000000138 0 0 1 I I #
edge_name-twe-attrib $-1 $-1 $-1 $248 23 8704 #
vertex $-1 $248 $274 #
ellipse-curve $275 0 -2.648000000000000131 0 0 1 0 0.46875 0 0 1 I I #
loop_type-twe-attrib $-1 $-1 $-1 $252 1 #
edge_name-twe-attrib $-1 $-1 $-1 $256 22 4608 #
vertex $-1 $256 $276 #
ellipse-curve $277 0 -1.947999999999999954 0 0 -1 0 -0.46875 0 0 1 I I #
edge_name-twe-attrib $-1 $-1 $-1 $258 19 8704 #
vertex $-1 $258 $278 #
ellipse-curve $279 0 -1.947999999999999954 0 -1.000000000000000078e-15 1 0 -0.3280000000000000138 -3.28000000000000005e-16 0 1 I I #
point $-1 -0.3280000000000000138 -0.5 0 #
cur-twe-attrib $-1 $-1 $-1 $261 246 #
point $-1 -0.46875 -2.648000000000000131 0 #
cur-twe-attrib $-1 $-1 $-1 $264 248 #
point $-1 -0.46875 -1.947999999999999954 0 #
cur-twe-attrib $-1 $-1 $-1 $268 256 #
point $-1 0.3280000000000000138 -1.947999999999999954 4.016840808270580002e-17 #
cur-twe-attrib $-1 $-1 $-1 $271 258 #
End-of-ACIS-data 