600 0 2 0           
24 FBMach with ACIS - 6.0.3 13 ACIS 6.0.3 NT 24 Wed May 23 21:58:32 2001 
1 9.9999999999999995e-007 1e-010 
body $2 $3 $-1 $4 #
bdycol-kcp $-1 1 7 $5 $6 $7 $8 $9 $10 $11 #
model_id-kcp-attrib $-1 $-1 $-1 $0 1 990669511 50 -667811839 1 #
lump $-1 $-1 $12 $0 #
transform $-1 1 0 0 0 1 0 0 0 1 2.2204460492503131e-016 5.5511151231257827e-017 -1.1102230246251565e-016 1 rotate no_reflect no_shear #
body $13 $14 $-1 $15 #
body $16 $17 $-1 $18 #
body $19 $20 $-1 $21 #
body $22 $23 $-1 $24 #
body $25 $26 $-1 $27 #
body $28 $29 $-1 $30 #
body $31 $32 $-1 $33 #
shell $-1 $-1 $-1 $34 $-1 $3 #
model_id-kcp-attrib $-1 $-1 $-1 $5 1 990669511 70 -666501118 1 #
lump $-1 $-1 $35 $5 #
transform $-1 1 0 0 0 1 0 0 0 1 0.33249140291610135 -1.3240000000000007 0 1 no_rotate no_reflect no_shear #
rgb_color-st-attrib $-1 $36 $-1 $6 0.5 1 1 #
lump $-1 $-1 $37 $6 #
transform $-1 1 0 0 0 -3.8285889215894375e-016 1 0 -1 -3.8285889215894375e-016 0 -0.25000000000000006 -1.4640524036158011e-016 1 rotate no_reflect no_shear #
rgb_color-st-attrib $-1 $38 $-1 $7 0.5 1 1 #
lump $-1 $-1 $39 $7 #
transform $-1 1 0 0 0 -3.8285889215894375e-016 1 0 -1 -3.8285889215894375e-016 0 -1.2240000000000002 -5.1930980132439144e-016 1 rotate no_reflect no_shear #
rgb_color-st-attrib $-1 $40 $-1 $8 0.5 1 1 #
lump $-1 $-1 $41 $8 #
transform $-1 1 0 0 0 -3.8285889215894375e-016 1 0 -1 -3.8285889215894375e-016 0 -2.298 -9.3050025150309694e-016 1 rotate no_reflect no_shear #
rgb_color-st-attrib $-1 $42 $-1 $9 0.5 1 1 #
lump $-1 $-1 $43 $9 #
transform $-1 1 0 0 0 1 0 0 0 1 0.33249140291610135 -1.3240000000000007 0 1 no_rotate no_reflect no_shear #
rgb_color-st-attrib $-1 $44 $-1 $10 0.5 0.5 1 #
lump $-1 $-1 $45 $10 #
transform $-1 1 0 0 0 1 0 0 0 1 0.33249140291610135 -1.3240000000000007 0 1 no_rotate no_reflect no_shear #
rgb_color-st-attrib $-1 $46 $-1 $11 1 0.5 1 #
lump $-1 $-1 $47 $11 #
transform $-1 1 0 0 0 1 0 0 0 1 0.33249140291610135 -1.3240000000000007 0 1 no_rotate no_reflect no_shear #
face $48 $49 $50 $12 $-1 $51 reversed single #
shell $-1 $-1 $-1 $52 $-1 $14 #
model_id-kcp-attrib $-1 $-1 $16 $6 1 990669511 150 -661258237 1 #
shell $-1 $-1 $-1 $53 $-1 $17 #
model_id-kcp-attrib $-1 $-1 $19 $7 1 990669511 150 -661258236 1 #
shell $-1 $-1 $-1 $54 $-1 $20 #
model_id-kcp-attrib $-1 $-1 $22 $8 1 990669511 150 -661258235 1 #
shell $-1 $-1 $-1 $55 $-1 $23 #
model_id-kcp-attrib $-1 $-1 $25 $9 1 990669511 711 -658046970 1 #
shell $-1 $-1 $-1 $56 $-1 $26 #
model_id-kcp-attrib $-1 $-1 $28 $10 1 990669511 771 -670892025 1 #
shell $-1 $-1 $-1 $57 $-1 $29 #
model_id-kcp-attrib $-1 $-1 $31 $11 1 990669511 941 -659750904 1 #
shell $-1 $-1 $-1 $58 $-1 $32 #
model_id-kcp-attrib $-1 $59 $-1 $34 1 990669511 50 -667811839 16 #
face $60 $61 $62 $12 $-1 $63 forward single #
loop $64 $65 $66 $34 #
plane-surface $67 0 0 0 0 -1 0 0 0 -1 forward_v I I I I #
face $-1 $68 $69 $35 $-1 $70 forward single #
face $-1 $71 $72 $37 $-1 $73 forward single #
face $-1 $74 $75 $39 $-1 $76 forward single #
face $-1 $77 $78 $41 $-1 $79 forward single #
face $-1 $80 $81 $43 $-1 $82 reversed single #
face $-1 $83 $84 $45 $-1 $85 reversed single #
face $-1 $86 $87 $47 $-1 $88 forward single #
model_id-kcp-attrib $-1 $89 $48 $34 1 990669511 50 -667811839 2 #
model_id-kcp-attrib $-1 $90 $-1 $49 1 990669511 50 -667811839 3 #
face $91 $92 $93 $12 $-1 $94 forward single #
loop $95 $96 $97 $49 #
plane-surface $98 0 -0.81799999999999995 0 0 -1 0 0 0 -1 forward_v I I I I #
loop_type-twe-attrib $-1 $-1 $-1 $50 0 #
loop $99 $-1 $100 $34 #
coedge $-1 $101 $102 $103 $104 reversed $50 $-1 #
surf-twe-attrib $-1 $-1 $-1 $51 4 #
face $-1 $105 $106 $35 $-1 $107 reversed single #
loop $-1 $-1 $108 $52 #
plane-surface $-1 0 0 0.69000000000000039 0 0 1 1 0 0 forward_v I I I I #
face $-1 $109 $110 $37 $-1 $111 forward single #
loop $-1 $112 $113 $53 #
cone-surface $-1 0 0 0 0 0 1 0.5 0 0 1 I I 0 1 0.5 forward I I I I #
face $-1 $114 $115 $39 $-1 $116 forward single #
loop $-1 $117 $118 $54 #
cone-surface $-1 0 0 0 0 0 1 0.32800000000000001 0 0 1 I I 0 1 0.32800000000000001 forward I I I I #
face $-1 $119 $120 $41 $-1 $121 forward single #
loop $-1 $122 $123 $55 #
cone-surface $-1 0 0 0 0 0 1 0.46875 0 0 1 I I 0 1 0.46875 forward I I I I #
face $-1 $124 $125 $43 $-1 $126 reversed single #
loop $-1 $-1 $127 $56 #
plane-surface $-1 0.60750859708389893 1.3240000000000007 0.46858102908581745 0.25158607890174389 0 0.96783492647395486 0 -1 0 forward_v I I I I #
face $-1 $128 $129 $45 $-1 $130 reversed single #
loop $-1 $-1 $131 $57 #
plane-surface $-1 0.99500000000000011 0.93085462196803426 0 0.99756405025982431 0.069756473744125025 0 -0.069756473744125025 0.99756405025982431 0 forward_v I I I I #
face $-1 $132 $133 $47 $-1 $134 forward single #
loop $-1 $135 $136 $58 #
cone-surface $-1 -0.33249140291610135 0.50600000000000067 0 0 -1 0 -0.5625 0 0 1 I I 0 -1 0.5625 forward I I I I #
face_name-twe-attrib $-1 $-1 $59 $34 1 #
face_name-twe-attrib $-1 $-1 $60 $49 2 #
model_id-kcp-attrib $-1 $137 $-1 $61 1 990669511 50 -667811839 4 #
face $138 $139 $140 $12 $-1 $141 forward single #
loop $142 $-1 $103 $61 #
cone-surface $143 0 0 0 0 -1 0 -0.68999999999999995 0 0 1 I I 0 1 0.68999999999999995 forward I I I I #
loop_type-twe-attrib $-1 $-1 $-1 $62 0 #
loop $144 $-1 $145 $49 #
coedge $-1 $146 $147 $148 $149 reversed $62 $-1 #
surf-twe-attrib $-1 $-1 $-1 $63 6 #
loop_type-twe-attrib $-1 $-1 $-1 $65 1 #
coedge $-1 $100 $100 $150 $151 reversed $65 $-1 #
coedge $-1 $152 $66 $153 $154 reversed $50 $-1 #
coedge $-1 $66 $152 $155 $156 forward $50 $-1 #
coedge $-1 $157 $158 $66 $104 forward $93 $-1 #
edge $159 $160 2.6329552582144422 $161 6.2831853071795862 $103 $162 forward 7 unknown #
face $163 $164 $165 $35 $-1 $166 reversed single #
loop $-1 $-1 $167 $68 #
plane-surface $-1 0 0 -0.69000000000000039 0 0 1 1 0 0 forward_v I I I I #
coedge $-1 $168 $169 $170 $171 forward $69 $-1 #
face $-1 $-1 $172 $37 $-1 $173 forward single #
loop $-1 $-1 $174 $71 #
plane-surface $-1 0 0 -0.25000000000000022 0 0 -1 -1 0 0 forward_v I I I I #
loop $-1 $-1 $175 $53 #
coedge $-1 $113 $113 $174 $176 reversed $72 $-1 #
face $-1 $-1 $177 $39 $-1 $178 forward single #
loop $-1 $-1 $179 $74 #
plane-surface $-1 0 0 -0.7240000000000002 0 0 -1 -1 0 0 forward_v I I I I #
loop $-1 $-1 $180 $54 #
coedge $-1 $118 $118 $179 $181 reversed $75 $-1 #
face $-1 $-1 $182 $41 $-1 $183 forward single #
loop $-1 $-1 $184 $77 #
plane-surface $-1 0 0 -0.3500000000000002 0 0 -1 -1 0 0 forward_v I I I I #
loop $-1 $-1 $185 $55 #
coedge $-1 $123 $123 $184 $186 reversed $78 $-1 #
face $-1 $187 $188 $43 $-1 $126 reversed single #
loop $-1 $-1 $189 $80 #
cone-surface $-1 -0.33249140291610135 1.3240000000000007 -1.0822480537415536e-017 0 1 0 0.17359439444220295 0 -0.66780609926702905 1 I I 0 1 0.69000000000000017 forward I I I I #
coedge $-1 $190 $191 $192 $193 reversed $81 $-1 #
face $-1 $194 $195 $45 $-1 $196 forward single #
loop $-1 $-1 $197 $83 #
plane-surface $-1 1.0224914029161019 0 0 -1 0 0 0 0 1 forward_v I I I I #
coedge $-1 $198 $199 $200 $201 forward $84 $-1 #
face $-1 $202 $203 $47 $-1 $204 forward single #
loop $-1 $-1 $205 $86 #
plane-surface $-1 0.60750859708389859 0.50600000000000078 -0.468581029085816 0.2515860789017475 0 -0.96783492647395386 -0.96783492647395386 0 -0.2515860789017475 forward_v I I I I #
loop $-1 $-1 $206 $58 #
coedge $-1 $136 $136 $207 $208 forward $87 $-1 #
face_name-twe-attrib $-1 $-1 $91 $61 3 #
model_id-kcp-attrib $-1 $209 $-1 $92 1 990669511 50 -667811839 5 #
face $210 $211 $212 $12 $-1 $213 forward single #
loop $214 $-1 $215 $92 #
plane-surface $216 1.3 0 -0.68999999999999995 0.99756405025982431 0.069756473744125025 0 0 0 -1 forward_v I I I I #
loop_type-twe-attrib $-1 $-1 $-1 $93 0 #
surf-twe-attrib $-1 $-1 $-1 $94 10 #
loop_type-twe-attrib $-1 $-1 $-1 $96 1 #
coedge $-1 $145 $145 $217 $218 forward $96 $-1 #
coedge $-1 $219 $97 $220 $221 forward $62 $-1 #
coedge $-1 $97 $219 $222 $223 reversed $62 $-1 #
coedge $-1 $158 $157 $97 $149 forward $93 $-1 #
edge $224 $225 2.6329552582144453 $226 6.2831853071795862 $148 $227 forward 7 unknown #
coedge $-1 $150 $150 $100 $151 forward $228 $-1 #
edge $229 $230 0 $230 6.2831853071795862 $150 $231 forward 7 unknown #
coedge $-1 $102 $101 $232 $233 forward $50 $-1 #
coedge $-1 $234 $235 $101 $154 forward $236 $-1 #
edge $237 $238 -1.1638406248279864 $160 0 $153 $239 forward 7 unknown #
coedge $-1 $240 $241 $102 $156 reversed $242 $-1 #
edge $243 $244 -1.1638406248279864 $161 0 $155 $245 forward 7 unknown #
coedge $-1 $148 $103 $241 $246 forward $93 $-1 #
coedge $-1 $103 $148 $234 $247 reversed $93 $-1 #
attrib_edge_convexity-kcp-attrib $-1 $248 $-1 $104 1 #
vertex $-1 $247 $249 #
vertex $-1 $246 $250 #
ellipse-curve $251 0 0 0 0 -1 0 0.17359439444220401 0 -0.66780609926702905 1 I I #
model_id-kcp-attrib $-1 $-1 $-1 $105 1 990669511 70 -666501118 3 #
face $-1 $252 $253 $35 $-1 $254 reversed single #
loop $-1 $-1 $255 $105 #
plane-surface $-1 0 -1.3240000000000007 0 0 1 0 0 0 1 forward_v I I I I #
coedge $-1 $256 $257 $258 $259 forward $106 $-1 #
coedge $-1 $260 $108 $261 $262 forward $69 $-1 #
coedge $-1 $108 $260 $263 $264 forward $69 $-1 #
coedge $-1 $265 $266 $108 $171 reversed $267 $-1 #
edge $-1 $268 -1.3240000000000007 $269 1.3240000000000007 $170 $270 forward 7 unknown #
loop $-1 $-1 $271 $109 #
plane-surface $-1 0 0 0.25000000000000022 0 0 1 1 0 0 forward_v I I I I #
coedge $-1 $174 $174 $113 $176 forward $110 $-1 #
coedge $-1 $175 $175 $271 $272 reversed $112 $-1 #
edge $-1 $273 0 $273 6.2831853071795862 $174 $274 forward 7 unknown #
loop $-1 $-1 $275 $114 #
plane-surface $-1 0 0 0.7240000000000002 0 0 1 1 0 0 forward_v I I I I #
coedge $-1 $179 $179 $118 $181 forward $115 $-1 #
coedge $-1 $180 $180 $275 $276 reversed $117 $-1 #
edge $-1 $277 0 $277 6.2831853071795862 $179 $278 forward 7 unknown #
loop $-1 $-1 $279 $119 #
plane-surface $-1 0 0 0.3500000000000002 0 0 1 1 0 0 forward_v I I I I #
coedge $-1 $184 $184 $123 $186 forward $120 $-1 #
coedge $-1 $185 $185 $279 $280 reversed $122 $-1 #
edge $-1 $281 0 $281 6.2831853071795862 $184 $282 forward 7 unknown #
face $-1 $283 $284 $43 $-1 $126 reversed single #
loop $-1 $-1 $285 $124 #
coedge $-1 $286 $287 $288 $289 reversed $125 $-1 #
coedge $-1 $290 $127 $287 $291 reversed $81 $-1 #
coedge $-1 $127 $290 $292 $293 reversed $81 $-1 #
coedge $-1 $294 $288 $127 $193 forward $295 $-1 #
edge $-1 $296 -0.55683657981230028 $297 0.66381415211991723 $192 $298 forward 7 unknown #
face $-1 $299 $300 $45 $-1 $301 forward single #
loop $-1 $-1 $200 $128 #
plane-surface $-1 0.60750859708389859 1.3240000000000007 -0.468581029085816 0.2515860789017475 0 -0.96783492647395386 0 1 0 forward_v I I I I #
coedge $-1 $302 $303 $198 $304 reversed $129 $-1 #
coedge $-1 $305 $131 $197 $304 forward $84 $-1 #
coedge $-1 $131 $305 $306 $307 forward $84 $-1 #
coedge $-1 $308 $309 $131 $201 reversed $195 $-1 #
edge $310 $311 -0.18701727665978984 $312 0.60132309484276814 $200 $313 forward 7 unknown #
face $-1 $314 $315 $47 $-1 $316 forward single #
loop $-1 $-1 $317 $132 #
cone-surface $-1 -0.33249140291610135 0.50600000000000067 -1.0822480537415536e-017 0 -1 0 0.17359439444220295 0 -0.66780609926702905 1 I I 0 1 0.69000000000000017 forward I I I I #
coedge $-1 $318 $319 $320 $321 forward $133 $-1 #
coedge $-1 $206 $206 $322 $323 reversed $135 $-1 #
coedge $-1 $207 $207 $136 $208 reversed $324 $-1 #
edge $-1 $325 0 $325 6.2831853071795862 $136 $326 forward 7 unknown #
face_name-twe-attrib $-1 $-1 $138 $92 4 #
model_id-kcp-attrib $-1 $327 $-1 $139 1 990669511 50 -667811839 6 #
face $328 $329 $242 $12 $-1 $330 reversed single #
loop $331 $-1 $332 $139 #
cone-surface $333 1.1200000000000001 -0.442361980440098 -0.68999999999999995 0 0 1 0.416538019559902 0 0 1 I I 0 1 0.416538019559902 forward I I I I #
loop_type-twe-attrib $-1 $-1 $-1 $140 0 #
coedge $-1 $334 $232 $235 $335 reversed $140 $-1 #
surf-twe-attrib $-1 $-1 $-1 $141 18 #
coedge $-1 $217 $217 $145 $218 reversed $336 $-1 #
edge $337 $338 -3.1415926535897931 $338 3.1415926535897931 $217 $339 forward 7 unknown #
coedge $-1 $147 $146 $340 $341 reversed $62 $-1 #
coedge $-1 $241 $342 $146 $221 reversed $242 $-1 #
edge $343 $225 -0.79187636713007314 $344 0 $220 $345 forward 7 unknown #
coedge $-1 $346 $234 $147 $223 forward $236 $-1 #
edge $347 $226 -0.79187636713007314 $348 0 $222 $349 forward 7 unknown #
edge_name-twe-attrib $-1 $-1 $-1 $149 2 8704 #
vertex $-1 $246 $350 #
vertex $-1 $247 $351 #
ellipse-curve $352 0 -0.81800000000000095 0 0 1 0 0.17359439444220301 0 0.66780609926702905 1 I I #
loop $353 $354 $150 $355 #
attrib_edge_convexity-kcp-attrib $-1 $356 $-1 $151 1 #
vertex $-1 $151 $357 #
ellipse-curve $358 0 0 0 0 1 0 -0.5 0 0 1 I I #
coedge $-1 $215 $359 $152 $233 reversed $140 $-1 #
edge $360 $238 -0.75 $244 0 $232 $361 forward 7 unknown #
coedge $-1 $222 $153 $158 $247 forward $236 $-1 #
coedge $-1 $153 $346 $215 $335 forward $236 $-1 #
loop $362 $-1 $153 $329 #
attrib_edge_convexity-kcp-attrib $-1 $363 $-1 $154 1 #
vertex $-1 $335 $364 #
straight-curve $365 0.17359439444220401 0 0.66780609926702905 -0.96783492647395497 0 0.251586078901744 I I #
coedge $-1 $342 $155 $359 $366 reversed $242 $-1 #
coedge $-1 $155 $220 $157 $246 reversed $242 $-1 #
loop $367 $-1 $155 $211 #
attrib_edge_convexity-kcp-attrib $-1 $368 $-1 $156 1 #
vertex $-1 $366 $369 #
straight-curve $370 0.17359439444220401 0 -0.66780609926702905 -0.96783492647395497 0 -0.251586078901744 I I #
edge $371 $161 -0.81799999999999995 $225 0 $241 $372 forward 7 unknown #
edge $373 $160 -0.81799999999999995 $226 0 $234 $374 forward 7 unknown #
convexity-sys-attrib $-1 $375 $159 $104 #
point $-1 0.17359439444220401 0 0.66780609926702905 #
point $-1 0.17359439444220401 0 -0.66780609926702905 #
cur-twe-attrib $-1 $-1 $-1 $162 30 #
face $376 $377 $378 $35 $-1 $379 reversed single #
loop $-1 $-1 $380 $164 #
plane-surface $-1 -1.0224914029161019 0 0 1 0 0 0 0 -1 forward_v I I I I #
coedge $-1 $381 $263 $382 $383 forward $165 $-1 #
coedge $-1 $384 $167 $381 $385 forward $106 $-1 #
coedge $-1 $167 $384 $386 $387 forward $106 $-1 #
coedge $-1 $266 $265 $167 $259 reversed $267 $-1 #
edge $-1 $388 -1.3240000000000007 $389 1.3240000000000007 $258 $390 forward 7 unknown #
coedge $-1 $169 $168 $391 $392 forward $69 $-1 #
coedge $-1 $393 $394 $168 $262 reversed $378 $-1 #
edge $-1 $269 -1.0224914029161019 $395 1.0224914029161019 $261 $396 forward 7 unknown #
coedge $-1 $255 $397 $169 $264 reversed $165 $-1 #
edge $-1 $398 -1.0224914029161019 $268 1.0224914029161019 $263 $399 forward 7 unknown #
coedge $-1 $258 $170 $397 $400 forward $267 $-1 #
coedge $-1 $170 $258 $393 $401 reversed $267 $-1 #
loop $-1 $-1 $265 $377 #
vertex $-1 $171 $402 #
vertex $-1 $171 $403 #
straight-curve $-1 1.0224914029161019 0 0.69000000000000039 0 1 0 I I #
coedge $-1 $271 $271 $175 $272 forward $172 $-1 #
edge $-1 $404 0 $404 6.2831853071795862 $271 $405 forward 7 unknown #
vertex $-1 $176 $406 #
ellipse-curve $-1 0 0 -0.25000000000000022 0 0 -1 0.5 0 0 1 I I #
coedge $-1 $275 $275 $180 $276 forward $177 $-1 #
edge $-1 $407 0 $407 6.2831853071795862 $275 $408 forward 7 unknown #
vertex $-1 $181 $409 #
ellipse-curve $-1 0 0 -0.7240000000000002 0 0 -1 0.32800000000000001 0 0 1 I I #
coedge $-1 $279 $279 $185 $280 forward $182 $-1 #
edge $-1 $410 0 $410 6.2831853071795862 $279 $411 forward 7 unknown #
vertex $-1 $186 $412 #
ellipse-curve $-1 0 0 -0.3500000000000002 0 0 -1 0.46875 0 0 1 I I #
face $-1 $413 $414 $43 $-1 $415 reversed single #
loop $-1 $-1 $416 $187 #
coedge $-1 $417 $418 $419 $420 reversed $188 $-1 #
coedge $-1 $421 $189 $422 $423 forward $125 $-1 #
coedge $-1 $189 $421 $190 $291 forward $125 $-1 #
coedge $-1 $192 $424 $189 $289 forward $295 $-1 #
edge $-1 $425 -2.8872739559021192 $296 -2.6329552582144453 $288 $426 forward 7 unknown #
coedge $-1 $191 $190 $427 $428 reversed $81 $-1 #
edge $-1 $429 0 $296 2.6480000000000015 $190 $430 forward 7 unknown #
coedge $-1 $431 $432 $191 $293 forward $433 $-1 #
edge $-1 $297 -1.9860000000000011 $434 0.66200000000000037 $292 $435 forward 7 unknown #
coedge $-1 $424 $192 $432 $436 reversed $295 $-1 #
loop $-1 $-1 $192 $437 #
vertex $-1 $193 $438 #
vertex $-1 $193 $439 #
straight-curve $-1 0.38002888180674815 -1.3240000000000005 0.52771376756299571 0.96783492647395486 0 -0.25158607890174389 I I #
face $-1 $-1 $440 $45 $-1 $441 reversed single #
loop $-1 $-1 $442 $194 #
plane-surface $-1 0.60750859708389893 1.3240000000000007 0.46858102908581745 0.25158607890174389 0 0.96783492647395486 0 -1 0 forward_v I I I I #
coedge $-1 $443 $197 $309 $444 forward $129 $-1 #
coedge $-1 $197 $443 $445 $446 forward $129 $-1 #
edge $447 $312 -0.36070736791165608 $448 0.36070736791165925 $197 $449 forward 7 unknown #
coedge $-1 $199 $198 $442 $450 forward $84 $-1 #
coedge $-1 $451 $452 $199 $307 reversed $440 $-1 #
edge $453 $454 -0.37500000000000144 $311 0.37499999999999856 $306 $455 forward 7 unknown #
coedge $-1 $309 $200 $452 $456 reversed $195 $-1 #
coedge $-1 $200 $308 $302 $444 reversed $195 $-1 #
convexity-sys-attrib $-1 $-1 $-1 $201 #
vertex $-1 $201 $457 #
vertex $-1 $444 $458 #
straight-curve $-1 0.98055211861540914 1.1374689517656311 -0.37160937175604913 0.069745008399617225 -0.99740008819450021 0.018130026832319904 I I #
face $-1 $459 $460 $47 $-1 $461 forward single #
loop $-1 $-1 $462 $202 #
plane-surface $-1 -0.15889700847389832 0.50600000000000067 0.66780609926702894 0.25158607890174389 0 0.96783492647395486 0.96783492647395486 0 -0.25158607890174389 forward_v I I I I #
coedge $-1 $463 $464 $465 $466 forward $203 $-1 #
coedge $-1 $467 $205 $464 $468 reversed $133 $-1 #
coedge $-1 $205 $467 $469 $470 forward $133 $-1 #
coedge $-1 $471 $465 $205 $321 reversed $472 $-1 #
edge $-1 $473 -0.33544850066041315 $474 0.4564278664696601 $205 $475 forward 7 unknown #
coedge $-1 $322 $322 $206 $323 forward $476 $-1 #
edge $-1 $477 0 $477 6.2831853071795862 $206 $478 forward 7 unknown #
loop $-1 $-1 $207 $459 #
vertex $-1 $208 $479 #
ellipse-curve $-1 -0.33249140291610135 -1.3239999999999994 0 0 -1 0 -0.5625 0 0 1 I I #
face_name-twe-attrib $-1 $-1 $210 $139 5 #
model_id-kcp-attrib $-1 $480 $-1 $211 1 990669511 50 -667811839 7 #
face $481 $482 $236 $12 $-1 $483 forward single #
plane-surface $484 0.17359439444220301 -0.85915116284989101 -0.66780609926702905 -0.25158607890174395 0 0.96783492647395475 0.96783492647395497 0 0.251586078901744 forward_v I I I I #
loop_type-twe-attrib $-1 $-1 $-1 $212 0 #
coedge $-1 $340 $485 $346 $486 reversed $212 $-1 #
surf-twe-attrib $-1 $-1 $-1 $213 32 #
coedge $-1 $359 $215 $485 $487 forward $140 $-1 #
edge $488 $489 -0.78834037150255465 $238 0 $235 $490 forward 7 unknown #
loop $491 $492 $217 $493 #
edge_name-twe-attrib $-1 $-1 $-1 $218 16 4608 #
vertex $-1 $218 $494 #
ellipse-curve $495 0 -0.81799999999999995 0 0 1 0 0.5625 0 0 1 I I #
coedge $-1 $496 $332 $219 $341 forward $212 $-1 #
edge $497 $348 -0.93716205817163201 $344 0 $340 $498 forward 7 unknown #
coedge $-1 $220 $240 $496 $499 forward $242 $-1 #
attrib_edge_convexity-kcp-attrib $-1 $500 $-1 $221 1 #
vertex $-1 $221 $501 #
straight-curve $502 0.93999999999999995 -0.81799999999999995 -0.468581029085816 0.96783492647395497 0 0.251586078901744 I I #
coedge $-1 $235 $222 $332 $486 forward $236 $-1 #
attrib_edge_convexity-kcp-attrib $-1 $503 $-1 $223 1 #
vertex $-1 $341 $504 #
straight-curve $505 0.93999999999999995 -0.81799999999999995 0.468581029085816 0.96783492647395497 0 -0.251586078901744 I I #
point $-1 0.17359439444220301 -0.81799999999999995 -0.66780609926702905 #
point $-1 0.17359439444220301 -0.81799999999999995 0.66780609926702905 #
cur-twe-attrib $-1 $-1 $-1 $227 42 #
loop_type-twe-attrib $-1 $-1 $-1 $228 0 #
loop $506 $-1 $507 $355 #
face $508 $509 $228 $12 $-1 $510 reversed single #
convexity-sys-attrib $-1 $511 $229 $151 #
point $-1 -0.5 0 0 #
cur-twe-attrib $-1 $-1 $-1 $231 44 #
coedge $-1 $232 $334 $240 $366 forward $140 $-1 #
attrib_edge_convexity-kcp-attrib $-1 $512 $-1 $233 1 #
straight-curve $513 1.3 0 -0.375 0 0 -1 I I #
loop_type-twe-attrib $-1 $-1 $-1 $236 0 #
convexity-sys-attrib $-1 $514 $237 $154 #
point $-1 1.3 0 0.375 #
cur-twe-attrib $-1 $-1 $-1 $239 47 #
edge $515 $516 -0.78834037150255465 $244 0 $240 $517 forward 7 unknown #
loop_type-twe-attrib $-1 $-1 $-1 $242 0 #
convexity-sys-attrib $-1 $518 $243 $156 #
point $-1 1.3 0 -0.375 #
cur-twe-attrib $-1 $-1 $-1 $245 49 #
attrib_edge_convexity-kcp-attrib $-1 $519 $-1 $246 3 #
straight-curve $520 0.17359439444220301 -0.81799999999999995 -0.66780609926702905 -1.2215167752599499e-015 -1 0 I I #
attrib_edge_convexity-kcp-attrib $-1 $521 $-1 $247 3 #
straight-curve $522 0.17359439444220301 -0.81799999999999995 0.66780609926702905 -1.2215167752599499e-015 -1 0 I I #
edge_name-twe-attrib $-1 $-1 $248 $104 1 8704 #
model_id-kcp-attrib $-1 $-1 $-1 $252 1 990669511 70 -666501118 2 #
face $-1 $-1 $267 $35 $-1 $523 reversed single #
loop $-1 $-1 $393 $252 #
plane-surface $-1 0 1.3240000000000007 0 0 -1 0 0 0 -1 forward_v I I I I #
coedge $-1 $524 $391 $394 $525 forward $253 $-1 #
coedge $-1 $397 $255 $256 $385 reversed $165 $-1 #
coedge $-1 $391 $524 $255 $383 reversed $253 $-1 #
edge $-1 $398 -0.69000000000000039 $526 0.69000000000000039 $382 $527 forward 7 unknown #
coedge $-1 $257 $256 $524 $528 forward $106 $-1 #
edge $-1 $389 -1.0224914029161019 $526 1.0224914029161019 $381 $529 forward 7 unknown #
coedge $-1 $394 $393 $257 $387 reversed $378 $-1 #
edge $-1 $530 -1.0224914029161019 $388 1.0224914029161019 $386 $531 forward 7 unknown #
vertex $-1 $259 $532 #
vertex $-1 $400 $533 #
straight-curve $-1 1.0224914029161019 0 -0.69000000000000039 0 -1 0 I I #
coedge $-1 $380 $382 $260 $392 reversed $253 $-1 #
edge $-1 $395 -1.3240000000000007 $398 1.3240000000000007 $391 $534 forward 7 unknown #
coedge $-1 $386 $261 $266 $401 forward $378 $-1 #
coedge $-1 $261 $386 $380 $525 reversed $378 $-1 #
vertex $-1 $262 $535 #
straight-curve $-1 0 1.3240000000000007 0.69000000000000039 -1 0 0 I I #
coedge $-1 $263 $381 $265 $400 reversed $165 $-1 #
vertex $-1 $392 $536 #
straight-curve $-1 0 -1.3240000000000007 0.69000000000000039 1 0 0 I I #
edge $-1 $268 -0.69000000000000039 $389 0.69000000000000039 $265 $537 forward 7 unknown #
edge $-1 $269 -0.69000000000000039 $388 0.69000000000000039 $266 $538 forward 7 unknown #
point $-1 1.0224914029161019 -1.3240000000000007 0.69000000000000039 #
point $-1 1.0224914029161019 1.3240000000000007 0.69000000000000039 #
vertex $-1 $272 $539 #
ellipse-curve $-1 0 0 0.25000000000000022 0 0 1 0.5 0 0 1 I I #
point $-1 0.5 0 -0.25000000000000022 #
vertex $-1 $276 $540 #
ellipse-curve $-1 0 0 0.7240000000000002 0 0 1 0.32800000000000001 0 0 1 I I #
point $-1 0.32800000000000001 0 -0.7240000000000002 #
vertex $-1 $280 $541 #
ellipse-curve $-1 0 0 0.3500000000000002 0 0 1 0.46875 0 0 1 I I #
point $-1 0.46875 0 -0.3500000000000002 #
face $-1 $542 $543 $43 $-1 $126 reversed single #
loop $-1 $-1 $544 $283 #
plane-surface $-1 0.60750859708389859 1.3240000000000007 -0.468581029085816 0.2515860789017475 0 -0.96783492647395386 0 1 0 forward_v I I I I #
coedge $-1 $545 $422 $546 $547 reversed $284 $-1 #
coedge $-1 $548 $285 $549 $550 reversed $188 $-1 #
coedge $-1 $285 $548 $551 $552 forward $188 $-1 #
coedge $-1 $553 $554 $285 $420 forward $555 $-1 #
edge $-1 $556 -0.25431869768767401 $557 1.7489335611612417e-016 $419 $558 forward 7 unknown #
coedge $-1 $287 $286 $559 $560 reversed $125 $-1 #
coedge $-1 $416 $561 $562 $423 reversed $284 $-1 #
edge $-1 $425 -2.6480000000000015 $563 0 $562 $564 forward 7 unknown #
coedge $-1 $288 $294 $565 $566 reversed $295 $-1 #
vertex $-1 $566 $567 #
ellipse-curve $-1 -0.33249140291610135 -1.3240000000000007 -1.0822480537415536e-017 0 1 0 0.17359439444220295 0 -0.66780609926702905 1 I I #
coedge $-1 $559 $568 $290 $428 forward $569 $-1 #
edge $-1 $434 -0.66381415211991723 $429 0.55683657981230028 $427 $570 forward 7 unknown #
vertex $-1 $428 $571 #
straight-curve $-1 -0.15889700847389832 1.3240000000000007 0.66780609926702894 0 -1 0 I I #
coedge $-1 $572 $292 $568 $573 reversed $433 $-1 #
coedge $-1 $292 $572 $294 $436 forward $433 $-1 #
loop $-1 $-1 $292 $574 #
vertex $-1 $293 $575 #
straight-curve $-1 1.0224914029161019 0.66200000000000037 0.36070736791165925 0 1 0 I I #
edge $-1 $576 -0.69000000000000039 $297 -0.36070736791165792 $432 $577 forward 7 unknown #
face $-1 $578 $295 $43 $-1 $579 reversed single #
point $-1 -0.15889700847389832 -1.3240000000000007 0.66780609926702894 #
point $-1 1.0224914029160983 -1.3240000000000007 0.36070736791165792 #
loop $-1 $-1 $306 $299 #
plane-surface $-1 0 1.3240000000000007 0 0 -1 0 0 0 -1 forward_v I I I I #
coedge $-1 $445 $580 $305 $450 reversed $300 $-1 #
coedge $-1 $303 $302 $581 $582 reversed $129 $-1 #
edge $-1 $312 -0.12429075606393591 $583 0.66200000000000037 $302 $584 forward 7 unknown #
coedge $-1 $580 $442 $303 $446 reversed $300 $-1 #
edge $-1 $585 -0.66200000000000037 $448 0.12429075606393591 $303 $586 forward 7 unknown #
convexity-sys-attrib $-1 $-1 $-1 $304 #
vertex $-1 $304 $587 #
straight-curve $-1 1.0224914029161019 0.53770924393606578 0 0 0 1 I I #
edge $588 $448 -0.60132309484276802 $454 0.18701727665978982 $442 $589 forward 7 unknown #
coedge $-1 $581 $306 $580 $590 forward $440 $-1 #
coedge $-1 $306 $581 $308 $456 forward $440 $-1 #
convexity-sys-attrib $-1 $-1 $-1 $307 #
vertex $-1 $590 $591 #
straight-curve $-1 0.96750859708389858 1.3240000000000007 0 0 0 -1 I I #
edge $-1 $583 -0.66381415211991612 $311 -0.60700404501568628 $452 $592 forward 7 unknown #
point $-1 0.96750859708389847 1.3240000000000007 -0.37499999999999856 #
point $-1 1.0224914029161019 0.53770924393606445 -0.36070736791165608 #
face $-1 $593 $472 $47 $-1 $594 reversed single #
loop $-1 $-1 $595 $314 #
plane-surface $-1 0.60750859708389859 0.50600000000000078 0.468581029085816 1 0 0 0 0 -1 forward_v I I I I #
coedge $-1 $596 $597 $598 $599 forward $315 $-1 #
coedge $-1 $600 $317 $597 $601 reversed $203 $-1 #
coedge $-1 $317 $600 $318 $468 forward $203 $-1 #
coedge $-1 $320 $598 $317 $466 reversed $472 $-1 #
edge $-1 $474 -2.0404224880214489e-016 $602 3.6502300489651409 $317 $603 forward 7 unknown #
coedge $-1 $319 $318 $604 $605 reversed $133 $-1 #
edge $-1 $606 0 $474 1.8300000000000001 $464 $607 forward 7 unknown #
coedge $-1 $608 $595 $319 $470 reversed $460 $-1 #
edge $-1 $609 0 $473 1.8300000000000001 $319 $610 forward 7 unknown #
coedge $-1 $598 $320 $595 $611 reversed $472 $-1 #
loop $-1 $324 $320 $459 #
vertex $-1 $470 $612 #
vertex $-1 $468 $613 #
straight-curve $-1 0.28284982211142956 -1.3239999999999994 -0.5529752020404396 -0.96783492647395386 0 -0.2515860789017475 I I #
loop $-1 $-1 $322 $593 #
vertex $-1 $323 $614 #
ellipse-curve $-1 -0.33249140291610135 0.50600000000000067 0 0 -1 0 -0.5625 0 0 1 I I #
point $-1 -0.89499140291610135 -1.3239999999999994 0 #
face_name-twe-attrib $-1 $-1 $328 $211 6 #
model_id-kcp-attrib $-1 $615 $-1 $329 1 990669511 50 -667811839 8 #
face $616 $493 $617 $12 $-1 $618 forward single #
plane-surface $619 0.17359439444220301 -0.85915116284989101 0.66780609926702905 0.25158607890174395 0 0.96783492647395475 0.96783492647395497 0 -0.251586078901744 forward_v I I I I #
surf-twe-attrib $-1 $-1 $-1 $330 57 #
coedge $-1 $332 $496 $334 $487 reversed $212 $-1 #
edge $620 $348 0 $489 0.44873995940745898 $346 $621 forward 7 unknown #
edge $622 $489 -0.72141473582331594 $516 0 $485 $623 forward 7 unknown #
attrib_edge_convexity-kcp-attrib $-1 $624 $-1 $335 1 #
vertex $-1 $487 $625 #
straight-curve $626 1.3 0 0.375 -0.069745008399617295 0.99740008819449999 0.018130026832319499 I I #
loop_type-twe-attrib $-1 $-1 $-1 $336 0 #
loop $627 $-1 $628 $493 #
face $629 $630 $336 $12 $-1 $631 forward single #
point $-1 -0.5625 -0.81799999999999995 0 #
cur-twe-attrib $-1 $-1 $-1 $339 64 #
coedge $-1 $485 $340 $342 $499 reversed $212 $-1 #
edge_name-twe-attrib $-1 $-1 $-1 $341 4 4352 #
straight-curve $632 0.93999999999999995 -0.81799999999999995 -0.468581029085816 0 0 -1 I I #
edge $633 $516 0 $344 0.44873995940745798 $342 $634 forward 7 unknown #
convexity-sys-attrib $-1 $635 $343 $221 #
point $-1 0.93999999999999995 -0.81799999999999995 -0.468581029085816 #
cur-twe-attrib $-1 $-1 $-1 $345 67 #
convexity-sys-attrib $-1 $636 $347 $223 #
point $-1 0.93999999999999995 -0.81799999999999995 0.468581029085816 #
cur-twe-attrib $-1 $-1 $-1 $349 69 #
loop_type-twe-attrib $-1 $-1 $-1 $354 1 #
coedge $-1 $507 $507 $637 $638 reversed $354 $-1 #
model_id-kcp-attrib $-1 $639 $-1 $355 1 990669511 50 -667811839 13 #
face $640 $641 $642 $12 $-1 $643 reversed single #
cone-surface $644 0 0.13239999999999999 0 0 -1 0 -0.5 0 0 1 I I 0 1 0.5 forward I I I I #
edge_name-twe-attrib $-1 $-1 $356 $151 20 8704 #
convexity-sys-attrib $-1 $645 $360 $233 #
cur-twe-attrib $-1 $-1 $-1 $361 79 #
edge_name-twe-attrib $-1 $-1 $363 $154 11 8704 #
attrib_edge_convexity-kcp-attrib $-1 $646 $-1 $366 1 #
vertex $-1 $487 $647 #
straight-curve $648 1.3 0 -0.375 -0.069745008399617295 0.99740008819449999 -0.018130026832319499 I I #
edge_name-twe-attrib $-1 $-1 $368 $156 6 8704 #
convexity-sys-attrib $-1 $649 $371 $246 #
cur-twe-attrib $-1 $-1 $-1 $372 92 #
convexity-sys-attrib $-1 $650 $373 $247 #
cur-twe-attrib $-1 $-1 $-1 $374 93 #
plane-surface $-1 1.0224914029161019 0 0 -1 0 0 0 0 1 forward_v I I I I #
coedge $-1 $382 $380 $384 $528 reversed $253 $-1 #
edge $-1 $395 -0.69000000000000039 $530 0.69000000000000039 $394 $651 forward 7 unknown #
vertex $-1 $528 $652 #
straight-curve $-1 -1.0224914029161019 -1.3240000000000007 0 0 0 -1 I I #
edge $-1 $526 -1.3240000000000007 $530 1.3240000000000007 $524 $653 forward 7 unknown #
straight-curve $-1 0 -1.3240000000000007 -0.69000000000000039 -1 0 0 I I #
vertex $-1 $387 $654 #
straight-curve $-1 0 1.3240000000000007 -0.69000000000000039 1 0 0 I I #
point $-1 1.0224914029161019 1.3240000000000007 -0.69000000000000039 #
point $-1 1.0224914029161019 -1.3240000000000007 -0.69000000000000039 #
straight-curve $-1 -1.0224914029161019 0 0.69000000000000039 0 -1 0 I I #
point $-1 -1.0224914029161019 1.3240000000000007 0.69000000000000039 #
point $-1 -1.0224914029161019 -1.3240000000000007 0.69000000000000039 #
straight-curve $-1 1.0224914029161019 -1.3240000000000007 0 0 0 -1 I I #
straight-curve $-1 1.0224914029161019 1.3240000000000007 0 0 0 -1 I I #
point $-1 0.5 0 0.25000000000000022 #
point $-1 0.32800000000000001 0 0.7240000000000002 #
point $-1 0.46875 0 0.3500000000000002 #
face $-1 $655 $656 $43 $-1 $657 forward single #
loop $-1 $-1 $658 $413 #
coedge $-1 $551 $659 $553 $660 reversed $414 $-1 #
coedge $-1 $561 $416 $661 $662 forward $284 $-1 #
coedge $-1 $663 $664 $416 $547 forward $665 $-1 #
edge $-1 $666 1.8251150244825707 $425 3.395911351277467 $546 $426 forward 7 unknown #
coedge $-1 $418 $417 $667 $668 reversed $188 $-1 #
coedge $-1 $669 $670 $671 $550 forward $672 $-1 #
edge $-1 $673 -2.6480000000000015 $556 0 $549 $674 forward 7 unknown #
coedge $-1 $675 $544 $418 $552 reversed $414 $-1 #
edge $-1 $676 -2.6480000000000015 $557 0 $551 $677 forward 7 unknown #
coedge $-1 $678 $419 $544 $660 forward $555 $-1 #
coedge $-1 $419 $678 $669 $679 reversed $555 $-1 #
loop $-1 $-1 $553 $680 #
vertex $-1 $679 $681 #
vertex $-1 $660 $682 #
ellipse-curve $-1 -0.33249140291610135 1.3240000000000007 -1.0822480537415536e-017 0 -1 0 0.17359439444220295 0 -0.66780609926702905 1 I I #
coedge $-1 $683 $427 $421 $560 forward $569 $-1 #
edge $-1 $429 2.6329552582144453 $563 2.8872739559021192 $559 $558 forward 7 unknown #
coedge $-1 $422 $545 $684 $685 reversed $284 $-1 #
coedge $-1 $686 $687 $688 $423 forward $656 $-1 #
vertex $-1 $689 $690 #
straight-curve $-1 -0.33249140291610135 1.3240000000000007 0.69000000000000039 0 1 0 I I #
coedge $-1 $691 $688 $424 $566 forward $692 $-1 #
edge $-1 $425 -0.33249140291610135 $576 1.0224914029161019 $424 $693 forward 7 unknown #
point $-1 -0.33249140291610135 -1.3240000000000007 0.69000000000000039 #
coedge $-1 $427 $683 $431 $573 forward $569 $-1 #
loop $-1 $-1 $427 $694 #
straight-curve $-1 0.38002888180674815 1.3240000000000007 0.52771376756299571 -0.96783492647395486 0 0.25158607890174389 I I #
point $-1 -0.15889700847389832 1.3240000000000007 0.66780609926702894 #
coedge $-1 $432 $431 $691 $695 reversed $433 $-1 #
edge $-1 $696 -0.69000000000000039 $434 -0.36070736791165792 $431 $697 forward 7 unknown #
face $-1 $-1 $433 $43 $-1 $698 reversed single #
point $-1 1.0224914029160983 1.3240000000000007 0.36070736791165792 #
vertex $-1 $695 $699 #
straight-curve $-1 1.0224914029161019 -1.3240000000000007 0 0 0 -1 I I #
face $-1 $574 $700 $43 $-1 $701 reversed single #
plane-surface $-1 0 -1.3240000000000007 0 0 1 0 0 0 1 forward_v I I I I #
coedge $-1 $442 $445 $451 $590 reversed $300 $-1 #
coedge $-1 $452 $451 $443 $582 forward $440 $-1 #
edge $-1 $585 -0.36070736791165792 $583 0.36070736791165792 $443 $702 forward 7 unknown #
vertex $-1 $456 $703 #
straight-curve $-1 1.0224914029161019 0.66200000000000037 -0.36070736791165608 0 1 0 I I #
vertex $-1 $582 $704 #
straight-curve $-1 1.0224914029161019 0.66200000000000037 0.36070736791165925 0 -1 0 I I #
point $-1 1.0224914029161019 0.53770924393606445 0.36070736791165925 #
convexity-sys-attrib $-1 $-1 $-1 $450 #
straight-curve $-1 0.98055211861540925 1.1374689517656311 0.37160937175605213 -0.069745008399617225 0.9974000881945001 0.018130026832319623 I I #
edge $-1 $454 0.60700404501568683 $585 0.66381415211991723 $451 $705 forward 7 unknown #
point $-1 0.96750859708389858 1.3240000000000007 0.37500000000000144 #
straight-curve $-1 0.3800288818067491 1.3240000000000007 -0.52771376756299493 -0.96783492647395386 0 -0.2515860789017475 I I #
face $-1 $-1 $706 $47 $-1 $707 forward single #
plane-surface $-1 -0.23996506433045428 -1.3239999999999994 -4.7569974077225007e-017 3.1763323412980108e-032 1 2.7778543656365686e-032 0 -2.7778543656365686e-032 1 forward_v I I I I #
coedge $-1 $469 $708 $471 $611 forward $460 $-1 #
coedge $-1 $709 $462 $708 $710 reversed $315 $-1 #
coedge $-1 $462 $709 $463 $601 forward $315 $-1 #
coedge $-1 $465 $471 $462 $599 reversed $472 $-1 #
edge $-1 $602 -0.45642786646965894 $711 0.33544850066041443 $462 $712 forward 7 unknown #
coedge $-1 $464 $463 $713 $714 reversed $203 $-1 #
edge $-1 $715 0 $602 1.8300000000000001 $597 $716 forward 7 unknown #
vertex $-1 $601 $717 #
ellipse-curve $-1 -0.33249140291610135 -1.3239999999999994 -1.0822480537415536e-017 0 1 0 0.17359439444220295 0 -0.66780609926702905 1 I I #
coedge $-1 $713 $718 $467 $605 forward $706 $-1 #
edge $719 $609 -0.33544850066041315 $606 0.45642786646966016 $467 $720 forward 7 unknown #
vertex $-1 $605 $721 #
straight-curve $-1 -0.15889700847389832 0.50600000000000067 -0.66780609926702883 0 -1 0 I I #
coedge $-1 $708 $469 $718 $722 reversed $460 $-1 #
vertex $-1 $722 $723 #
straight-curve $-1 0.60750859708389859 0.50600000000000078 -0.468581029085816 0 -1 0 I I #
edge $-1 $711 -1.1585810290858158 $473 -0.22141897091418394 $595 $724 forward 7 unknown #
point $-1 0.60750859708389859 -1.3239999999999994 -0.468581029085816 #
point $-1 -0.15889700847389832 -1.3239999999999994 -0.66780609926702883 #
point $-1 -0.89499140291610135 0.50600000000000078 0 #
face_name-twe-attrib $-1 $-1 $481 $329 7 #
model_id-kcp-attrib $-1 $725 $-1 $482 1 990669511 50 -667811839 17 #
loop $726 $727 $728 $482 #
plane-surface $729 0 -2.6480000000000001 0 0 -1 0 0 0 -1 forward_v I I I I #
surf-twe-attrib $-1 $-1 $-1 $483 98 #
attrib_edge_convexity-kcp-attrib $-1 $730 $-1 $486 1 #
intcurve-curve $731 forward { exactcur full nubs 3 open 10 
	0 3 0.0492965734032038 1 0.099135890945372604 1 0.149354733488062 1 0.199774223294713 1 
	0.25021544823340103 1 0.30050560549329403 1 0.35046763893970101 1 0.39992965098012401 1 0.44873995940745898 3 
	0.93999999999999995 -0.81799999999999995 0.468581029085816 
	0.95442758300919694 -0.82491347735433695 0.46483061779353302 
	0.98422833348076699 -0.83713416258398499 0.457083993080591 
	1.0308222992754801 -0.85020659838235002 0.44497201733542902 
	1.0789113681531 -0.857824650917552 0.43247139357613401 
	1.1277188726312 -0.85978366989364796 0.41978401442010199 
	1.17645096983925 -0.85601957545545004 0.40711623718054901 
	1.22431117323893 -0.84660605556360402 0.39467510638499598 
	1.2705314400165399 -0.83175184404772495 0.38266027269147002 
	1.3143878256498001 -0.81179996820770495 0.37125992352606801 
	1.3418479827813701 -0.795264874524934 0.364121729739318 
	1.3549828058322 -0.78629075606393295 0.36070736791165797 
	0 
	null_surface 
	null_surface 
	nullbs 
	nullbs 
	I I 
	0 
	0 
	8 0.0492965734032038 0.099135890945372604 0.149354733488062 0.199774223294713 0.25021544823340103 0.30050560549329403 0.35046763893970101 0.39992965098012401 
	F 1 F 0 } I I #
model_id-kcp-attrib $-1 $732 $-1 $487 1 990669511 50 -667811839 18 #
straight-curve $733 1.3549828058322 -0.78629075606393295 -0.36070736791165797 0 0 -1 I I #
convexity-sys-attrib $-1 $734 $488 $335 #
point $-1 1.3549828058322 -0.78629075606393295 0.36070736791165797 #
cur-twe-attrib $-1 $-1 $-1 $490 104 #
loop_type-twe-attrib $-1 $-1 $-1 $492 1 #
coedge $-1 $628 $628 $728 $735 forward $492 $-1 #
model_id-kcp-attrib $-1 $736 $-1 $493 1 990669511 50 -667811839 10 #
face $737 $738 $739 $12 $-1 $740 reversed single #
cone-surface $741 0 -0.81799999999999995 0 0 -1 0 -0.5625 0 0 1 I I 0 1 0.5625 forward I I I I #
cur-twe-attrib $-1 $-1 $-1 $498 110 #
attrib_edge_convexity-kcp-attrib $-1 $742 $-1 $499 1 #
intcurve-curve $743 forward { exactcur full nubs 3 open 10 
	0 3 0.048810308427334297 1 0.098272320467755997 1 0.14823435391416501 1 0.198524511174058 1 
	0.248965736112746 1 0.29938522591939598 1 0.34960406846208603 1 0.399443386004254 1 0.44873995940745798 3 
	1.3549828058322 -0.78629075606393295 -0.36070736791165797 
	1.3418479827813701 -0.795264874524934 -0.364121729739318 
	1.3143878256498001 -0.81179996820770595 -0.37125992352606801 
	1.2705314400165399 -0.83175184404772395 -0.38266027269147002 
	1.22431117323893 -0.84660605556360402 -0.39467510638499598 
	1.17645096983925 -0.85601957545545004 -0.40711623718054901 
	1.1277188726312 -0.85978366989364796 -0.41978401442010199 
	1.0789113681531 -0.85782465091755 -0.43247139357613401 
	1.0308222992754801 -0.85020659838235002 -0.44497201733542902 
	0.98422833348076699 -0.83713416258398399 -0.457083993080591 
	0.95442758300919694 -0.82491347735433795 -0.46483061779353302 
	0.93999999999999995 -0.81799999999999995 -0.468581029085816 
	0 
	null_surface 
	null_surface 
	nullbs 
	nullbs 
	I I 
	0 
	0 
	8 0.048810308427334297 0.098272320467755997 0.14823435391416501 0.198524511174058 0.248965736112746 0.29938522591939598 0.34960406846208603 0.399443386004254 
	F 1 F 0 } I I #
edge_name-twe-attrib $-1 $-1 $500 $221 9 8704 #
edge_name-twe-attrib $-1 $-1 $503 $223 13 8704 #
coedge $-1 $637 $637 $507 $638 forward $744 $-1 #
edge $745 $746 -3.1415926535897931 $746 3.1415926535897931 $637 $747 forward 7 unknown #
face_name-twe-attrib $-1 $-1 $508 $355 12 #
model_id-kcp-attrib $-1 $748 $-1 $509 1 990669511 50 -667811839 14 #
face $749 $-1 $750 $12 $-1 $751 reversed single #
loop $752 $753 $754 $509 #
cone-surface $755 0 0.13239999999999999 0 0 -1 0 -0.32800000000000001 0 0 1 I I 0 1 0.32800000000000001 forward I I I I #
surf-twe-attrib $-1 $-1 $-1 $510 124 #
edge_name-twe-attrib $-1 $-1 $512 $233 3 8448 #
convexity-sys-attrib $-1 $756 $515 $366 #
point $-1 1.3549828058322 -0.78629075606393295 -0.36070736791165797 #
cur-twe-attrib $-1 $-1 $-1 $517 133 #
edge_name-twe-attrib $-1 $-1 $519 $246 10 24576 #
edge_name-twe-attrib $-1 $-1 $521 $247 12 24576 #
straight-curve $-1 -1.0224914029161019 1.3240000000000007 0 0 0 -1 I I #
point $-1 -1.0224914029161019 -1.3240000000000007 -0.69000000000000039 #
straight-curve $-1 -1.0224914029161019 0 -0.69000000000000039 0 1 0 I I #
point $-1 -1.0224914029161019 1.3240000000000007 -0.69000000000000039 #
face $-1 $757 $758 $43 $-1 $698 reversed single #
loop $-1 $-1 $562 $542 #
plane-surface $-1 0 0 0.69000000000000039 0 0 1 1 0 0 forward_v I I I I #
coedge $-1 $759 $661 $760 $761 reversed $543 $-1 #
coedge $-1 $544 $675 $762 $763 reversed $414 $-1 #
edge $-1 $557 -0.55683657981230139 $764 0.66381415211991612 $553 $765 forward 7 unknown #
coedge $-1 $658 $766 $767 $662 reversed $543 $-1 #
edge $-1 $666 -2.6480000000000015 $768 0 $767 $769 forward 7 unknown #
coedge $-1 $664 $546 $687 $770 reversed $665 $-1 #
coedge $-1 $546 $663 $771 $772 forward $665 $-1 #
loop $-1 $-1 $546 $773 #
vertex $-1 $774 $775 #
coedge $-1 $776 $777 $548 $668 forward $778 $-1 #
edge $-1 $676 -1.7489335611612417e-016 $673 0.25431869768767401 $667 $426 forward 7 unknown #
coedge $-1 $779 $549 $554 $679 forward $672 $-1 #
coedge $-1 $549 $779 $776 $780 forward $672 $-1 #
coedge $-1 $781 $782 $759 $550 reversed $783 $-1 #
loop $-1 $-1 $549 $784 #
vertex $-1 $785 $786 #
straight-curve $-1 -0.33249140291610135 1.3240000000000007 -0.69000000000000039 0 1 0 I I #
coedge $-1 $659 $551 $777 $787 reversed $414 $-1 #
vertex $-1 $787 $788 #
straight-curve $-1 -0.15889700847389832 1.3240000000000007 -0.66780609926702894 0 1 0 I I #
coedge $-1 $554 $553 $789 $790 forward $555 $-1 #
edge $-1 $556 -0.33249140291610135 $791 1.0224914029161019 $554 $792 forward 7 unknown #
face $-1 $694 $555 $43 $-1 $793 reversed single #
point $-1 -0.33249140291610135 1.3240000000000007 -0.69000000000000039 #
point $-1 -0.15889700847389832 1.3240000000000007 -0.66780609926702894 #
coedge $-1 $568 $559 $794 $795 reversed $569 $-1 #
coedge $-1 $796 $797 $561 $685 forward $798 $-1 #
edge $-1 $563 2.8872739559021192 $768 4.4580702826970153 $684 $558 forward 7 unknown #
coedge $-1 $799 $562 $797 $689 forward $656 $-1 #
coedge $-1 $562 $799 $663 $770 forward $656 $-1 #
coedge $-1 $565 $794 $286 $423 reversed $692 $-1 #
edge $-1 $563 0.33249140291610135 $800 1.0224914029161019 $797 $801 forward 7 unknown #
point $-1 -0.33249140291610135 1.3240000000000007 0.69000000000000039 #
coedge $-1 $794 $565 $572 $695 forward $692 $-1 #
loop $-1 $-1 $688 $802 #
straight-curve $-1 0 -1.3240000000000007 0.69000000000000039 1 0 0 I I #
face $-1 $803 $569 $43 $-1 $793 reversed single #
edge $-1 $576 -1.3240000000000007 $696 1.3240000000000007 $572 $804 forward 7 unknown #
vertex $-1 $695 $805 #
straight-curve $-1 1.0224914029161019 1.3240000000000007 0 0 0 -1 I I #
plane-surface $-1 1.0224914029161019 0 0 -1 0 0 0 0 1 forward_v I I I I #
point $-1 1.0224914029161019 -1.3240000000000007 0.69000000000000039 #
loop $-1 $-1 $806 $578 #
plane-surface $-1 -1.0224914029161019 0 0 1 0 0 0 0 -1 forward_v I I I I #
straight-curve $-1 1.0224914029161019 1.3240000000000007 0 0 0 -1 I I #
point $-1 1.0224914029160983 1.3240000000000007 -0.36070736791165792 #
point $-1 1.0224914029160983 1.3240000000000007 0.36070736791165792 #
straight-curve $-1 0.38002888180674815 1.3240000000000007 0.52771376756299571 0.96783492647395486 0 -0.25158607890174389 I I #
loop $-1 $476 $718 $593 #
plane-surface $-1 -0.23996506433045428 0.50600000000000056 -4.7569974077225007e-017 3.1763323412980108e-032 1 2.7778543656365686e-032 0 -2.7778543656365686e-032 1 forward_v I I I I #
coedge $-1 $595 $608 $596 $710 forward $460 $-1 #
coedge $-1 $597 $596 $807 $808 reversed $315 $-1 #
edge $-1 $809 0 $711 1.8300000000000001 $708 $810 forward 7 unknown #
vertex $-1 $710 $811 #
straight-curve $-1 0.2828498221114284 -1.3239999999999994 0.55297520204044015 0.96783492647395486 0 -0.25158607890174389 I I #
coedge $-1 $807 $604 $600 $714 forward $706 $-1 #
edge $812 $606 -1.7489335611612417e-016 $715 3.6502300489651409 $600 $813 forward 7 unknown #
vertex $-1 $714 $814 #
straight-curve $-1 -0.15889700847389832 0.50600000000000067 0.66780609926702894 0 -1 0 I I #
point $-1 -0.15889700847389832 -1.3239999999999994 0.66780609926702894 #
coedge $-1 $604 $807 $608 $722 forward $706 $-1 #
convexity-sys-attrib $-1 $-1 $-1 $605 #
straight-curve $-1 0.28284982211142956 0.50600000000000067 -0.5529752020404396 -0.96783492647395386 0 -0.2515860789017475 I I #
point $-1 -0.15889700847389832 0.50600000000000067 -0.66780609926702894 #
edge $815 $809 -1.1585810290858158 $609 -0.22141897091418394 $608 $816 forward 7 unknown #
point $-1 0.60750859708389859 0.50600000000000078 -0.468581029085816 #
straight-curve $-1 0.60750859708389893 -1.3239999999999994 -0.68999999999999995 0 0 -1 I I #
model_id-kcp-attrib $-1 $817 $616 $482 1 990669511 50 -667811839 9 #
loop_type-twe-attrib $-1 $-1 $-1 $617 0 #
loop $818 $-1 $819 $482 #
coedge $-1 $728 $728 $628 $735 reversed $617 $-1 #
surf-twe-attrib $-1 $-1 $-1 $618 142 #
convexity-sys-attrib $-1 $820 $620 $486 #
cur-twe-attrib $-1 $-1 $-1 $621 146 #
attrib_edge_convexity-kcp-attrib $-1 $821 $622 $487 1 #
cur-twe-attrib $-1 $-1 $-1 $623 147 #
edge_name-twe-attrib $-1 $-1 $624 $335 15 8448 #
edge $822 $823 0 $823 6.2831853071795862 $628 $824 forward 7 unknown #
face_name-twe-attrib $-1 $-1 $629 $493 9 #
model_id-kcp-attrib $-1 $825 $-1 $630 1 990669511 50 -667811839 11 #
face $826 $355 $827 $12 $-1 $828 forward single #
loop $829 $744 $830 $630 #
plane-surface $831 0 -0.5 0 0 -1 0 0 0 -1 forward_v I I I I #
surf-twe-attrib $-1 $-1 $-1 $631 153 #
convexity-sys-attrib $-1 $832 $633 $499 #
cur-twe-attrib $-1 $-1 $-1 $634 159 #
loop $833 $-1 $637 $630 #
attrib_edge_convexity-kcp-attrib $-1 $834 $-1 $638 2 #
vertex $-1 $638 $835 #
ellipse-curve $836 0 -0.5 0 0 1 0 -0.5 0 0 1 I I #
face_name-twe-attrib $-1 $-1 $640 $509 13 #
model_id-kcp-attrib $-1 $837 $-1 $641 1 990669511 50 -667811839 15 #
loop $838 $839 $840 $641 #
cone-surface $841 0 0.13239999999999999 0 0 -1 0 -0.46875 0 0 1 I I 0 1 0.46875 forward I I I I #
model_id-kcp-attrib $-1 $842 $-1 $642 1 990669511 50 -667811839 19 #
loop $843 $-1 $844 $509 #
coedge $-1 $754 $754 $830 $845 reversed $642 $-1 #
surf-twe-attrib $-1 $-1 $-1 $643 167 #
edge_name-twe-attrib $-1 $-1 $646 $366 7 8448 #
face $-1 $846 $847 $43 $-1 $701 reversed single #
loop $-1 $-1 $762 $655 #
coedge $-1 $766 $658 $417 $550 forward $543 $-1 #
coedge $-1 $848 $849 $658 $761 forward $850 $-1 #
edge $-1 $673 0.25431869768767401 $666 1.8251150244825707 $760 $426 forward 7 unknown #
coedge $-1 $851 $789 $659 $763 forward $758 $-1 #
edge $-1 $764 -0.66200000000000037 $852 1.9860000000000011 $762 $853 forward 7 unknown #
vertex $-1 $790 $854 #
straight-curve $-1 0.3800288818067491 1.3240000000000007 -0.52771376756299493 0.96783492647395386 0 0.2515860789017475 I I #
coedge $-1 $661 $759 $855 $856 reversed $543 $-1 #
coedge $-1 $857 $858 $806 $662 forward $847 $-1 #
vertex $-1 $859 $860 #
straight-curve $-1 -1.0224914029161019 1.3240000000000007 -1.0822480537415536e-017 0 1 0 I I #
edge $-1 $861 -1.0224914029161019 $425 -0.33249140291610135 $663 $693 forward 7 unknown #
coedge $-1 $862 $806 $664 $772 reversed $700 $-1 #
edge $-1 $861 -0.69000000000000039 $666 1.0822480537415536e-017 $771 $863 forward 7 unknown #
face $-1 $864 $665 $43 $-1 $579 reversed single #
edge $-1 $666 1.0822480537415536e-017 $865 0.69000000000000039 $858 $863 forward 7 unknown #
point $-1 -1.0224914029161019 -1.3240000000000007 -1.0822480537415536e-017 #
coedge $-1 $866 $667 $670 $780 reversed $778 $-1 #
coedge $-1 $667 $866 $675 $787 forward $778 $-1 #
loop $-1 $-1 $777 $867 #
coedge $-1 $670 $669 $868 $869 forward $672 $-1 #
edge $-1 $870 -1.0224914029161019 $673 0.33249140291610135 $776 $871 forward 7 unknown #
coedge $-1 $872 $671 $849 $785 forward $783 $-1 #
coedge $-1 $671 $872 $873 $874 forward $783 $-1 #
loop $-1 $-1 $671 $803 #
face $-1 $437 $672 $43 $-1 $875 reversed single #
edge $-1 $673 0.33249140291610135 $865 1.0224914029161019 $849 $871 forward 7 unknown #
point $-1 -0.33249140291610135 -1.3240000000000007 -0.69000000000000039 #
edge $-1 $852 -0.66381415211991612 $676 0.55683657981230139 $777 $876 forward 7 unknown #
point $-1 -0.15889700847389832 -1.3240000000000007 -0.66780609926702894 #
coedge $-1 $762 $868 $678 $790 reversed $758 $-1 #
edge $-1 $764 0.36070736791165792 $791 0.69000000000000039 $789 $697 forward 7 unknown #
vertex $-1 $869 $877 #
straight-curve $-1 0 1.3240000000000007 -0.69000000000000039 1 0 0 I I #
plane-surface $-1 0 1.3240000000000007 0 0 -1 0 0 0 -1 forward_v I I I I #
coedge $-1 $688 $691 $683 $795 forward $692 $-1 #
edge $-1 $696 -1.0224914029161019 $563 0.33249140291610135 $683 $801 forward 7 unknown #
coedge $-1 $797 $684 $878 $879 reversed $798 $-1 #
coedge $-1 $684 $796 $686 $689 reversed $798 $-1 #
loop $-1 $-1 $684 $864 #
coedge $-1 $687 $686 $862 $880 forward $656 $-1 #
vertex $-1 $689 $881 #
straight-curve $-1 0 1.3240000000000007 0.69000000000000039 -1 0 0 I I #
face $-1 $784 $692 $43 $-1 $657 forward single #
face $-1 $802 $783 $43 $-1 $875 reversed single #
straight-curve $-1 1.0224914029161019 0 0.69000000000000039 0 1 0 I I #
point $-1 1.0224914029161019 1.3240000000000007 0.69000000000000039 #
coedge $-1 $771 $878 $545 $662 reversed $700 $-1 #
coedge $-1 $718 $713 $709 $808 forward $706 $-1 #
edge $882 $715 -0.45642786646965894 $809 0.33544850066041443 $709 $883 forward 7 unknown #
vertex $-1 $722 $884 #
straight-curve $-1 0.60750859708389859 0.50600000000000078 0.468581029085816 0 -1 0 I I #
point $-1 0.60750859708389859 -1.3239999999999994 0.468581029085816 #
convexity-sys-attrib $-1 $-1 $-1 $714 #
ellipse-curve $-1 -0.33249140291610135 0.50600000000000067 -1.0822480537415536e-017 0 1 0 0.17359439444220295 0 -0.66780609926702905 1 I I #
point $-1 -0.15889700847389832 0.50600000000000067 0.66780609926702894 #
convexity-sys-attrib $-1 $-1 $-1 $722 #
straight-curve $-1 0.60750859708389893 0.50600000000000067 -0.68999999999999995 0 0 -1 I I #
face_name-twe-attrib $-1 $-1 $725 $482 8 #
loop_type-twe-attrib $-1 $-1 $-1 $727 1 #
coedge $-1 $819 $819 $885 $886 forward $727 $-1 #
edge_name-twe-attrib $-1 $-1 $730 $486 14 8448 #
convexity-sys-attrib $-1 $887 $732 $487 #
edge_name-twe-attrib $-1 $-1 $-1 $735 17 8704 #
vertex $-1 $735 $888 #
ellipse-curve $889 0 -2.6480000000000001 0 -2.0000000000000002e-015 1 0 -0.5625 -1.1249999999999999e-015 0 1 I I #
face_name-twe-attrib $-1 $-1 $737 $630 10 #
model_id-kcp-attrib $-1 $890 $-1 $738 1 990669511 50 -667811839 12 #
loop $891 $892 $893 $738 #
plane-surface $894 0 -1.948 0 0 -1 0 0 0 -1 forward_v I I I I #
model_id-kcp-attrib $-1 $895 $-1 $739 1 990669511 50 -667811839 21 #
coedge $-1 $830 $830 $754 $845 forward $739 $-1 #
surf-twe-attrib $-1 $-1 $-1 $740 188 #
edge_name-twe-attrib $-1 $-1 $742 $499 8 8448 #
loop_type-twe-attrib $-1 $-1 $-1 $744 0 #
convexity-sys-attrib $-1 $896 $745 $638 #
point $-1 0.5 -0.5 6.1232329394368604e-017 #
cur-twe-attrib $-1 $-1 $-1 $747 194 #
face_name-twe-attrib $-1 $-1 $749 $641 14 #
loop_type-twe-attrib $-1 $-1 $-1 $750 0 #
loop $897 $-1 $885 $641 #
coedge $-1 $840 $840 $893 $898 reversed $750 $-1 #
surf-twe-attrib $-1 $-1 $-1 $751 196 #
loop_type-twe-attrib $-1 $-1 $752 $642 0 #
model_id-kcp-attrib $-1 $899 $-1 $753 1 990669511 50 -667811839 20 #
coedge $-1 $844 $844 $900 $901 reversed $753 $-1 #
edge $902 $903 0 $903 6.2831853071795862 $754 $904 forward 7 unknown #
face $-1 $867 $850 $43 $-1 $579 reversed single #
loop $-1 $-1 $767 $757 #
coedge $-1 $849 $760 $858 $774 forward $850 $-1 #
coedge $-1 $760 $848 $781 $785 reversed $850 $-1 #
loop $-1 $-1 $760 $846 #
coedge $-1 $868 $762 $866 $905 forward $758 $-1 #
vertex $-1 $905 $906 #
straight-curve $-1 1.0224914029161019 0.66200000000000037 -0.36070736791165608 0 -1 0 I I #
point $-1 1.0224914029160983 1.3240000000000007 -0.36070736791165792 #
coedge $-1 $873 $907 $766 $856 forward $908 $-1 #
edge $-1 $768 -1.8251150244825707 $556 -0.25431869768767401 $855 $558 forward 7 unknown #
coedge $-1 $909 $767 $907 $859 forward $847 $-1 #
coedge $-1 $767 $909 $848 $774 reversed $847 $-1 #
edge $-1 $768 1.0822480537415536e-017 $910 0.69000000000000039 $907 $911 forward 7 unknown #
point $-1 -1.0224914029161019 1.3240000000000007 -1.0822480537415536e-017 #
vertex $-1 $880 $912 #
coedge $-1 $878 $771 $799 $880 reversed $700 $-1 #
straight-curve $-1 -1.0224914029161019 -1.3240000000000007 0 0 0 -1 I I #
face $-1 $913 $798 $43 $-1 $793 reversed single #
vertex $-1 $914 $915 #
coedge $-1 $777 $776 $851 $905 reversed $778 $-1 #
face $-1 $773 $778 $43 $-1 $579 reversed single #
coedge $-1 $789 $851 $779 $869 reversed $758 $-1 #
edge $-1 $791 -1.3240000000000007 $870 1.3240000000000007 $868 $916 forward 7 unknown #
vertex $-1 $905 $917 #
straight-curve $-1 0 -1.3240000000000007 -0.69000000000000039 -1 0 0 I I #
coedge $-1 $782 $781 $909 $914 forward $783 $-1 #
coedge $-1 $907 $855 $782 $874 reversed $908 $-1 #
edge $-1 $910 -1.0224914029161019 $556 -0.33249140291610135 $873 $792 forward 7 unknown #
plane-surface $-1 0 0 -0.69000000000000039 0 0 1 1 0 0 forward_v I I I I #
straight-curve $-1 0.3800288818067491 -1.3240000000000007 -0.52771376756299493 -0.96783492647395386 0 -0.2515860789017475 I I #
point $-1 1.0224914029161019 1.3240000000000007 -0.69000000000000039 #
coedge $-1 $806 $862 $796 $879 forward $700 $-1 #
edge $-1 $800 -0.69000000000000039 $768 1.0822480537415536e-017 $796 $911 forward 7 unknown #
edge $-1 $800 -1.3240000000000007 $861 1.3240000000000007 $862 $918 forward 7 unknown #
point $-1 -1.0224914029161019 1.3240000000000007 0.69000000000000039 #
convexity-sys-attrib $-1 $-1 $-1 $808 #
straight-curve $-1 0.2828498221114284 0.50600000000000067 0.55297520204044015 0.96783492647395486 0 -0.25158607890174389 I I #
point $-1 0.60750859708389859 0.50600000000000078 0.468581029085816 #
coedge $-1 $885 $885 $819 $886 reversed $839 $-1 #
edge $919 $920 -3.1415926535897931 $920 3.1415926535897931 $885 $921 forward 7 unknown #
edge_name-twe-attrib $-1 $-1 $821 $487 5 8448 #
point $-1 -0.5625 -2.6480000000000001 0 #
cur-twe-attrib $-1 $-1 $-1 $824 208 #
face_name-twe-attrib $-1 $-1 $826 $738 11 #
loop_type-twe-attrib $-1 $-1 $-1 $827 0 #
loop $922 $-1 $900 $738 #
coedge $-1 $893 $893 $840 $898 forward $827 $-1 #
surf-twe-attrib $-1 $-1 $-1 $828 210 #
loop_type-twe-attrib $-1 $-1 $829 $739 1 #
edge_name-twe-attrib $-1 $-1 $834 $638 18 4608 #
loop_type-twe-attrib $-1 $-1 $-1 $839 1 #
edge $923 $924 0 $924 6.2831853071795862 $840 $925 forward 7 unknown #
loop_type-twe-attrib $-1 $-1 $843 $753 1 #
coedge $-1 $900 $900 $844 $901 forward $892 $-1 #
edge $926 $927 -3.1415926535897931 $927 3.1415926535897931 $900 $928 forward 7 unknown #
attrib_edge_convexity-kcp-attrib $-1 $929 $-1 $845 1 #
vertex $930 $845 $931 #
ellipse-curve $932 0 -0.5 0 0 -1 0 -0.32800000000000001 0 0 1 I I #
edge $-1 $852 0.36070736791165792 $870 0.69000000000000039 $851 $577 forward 7 unknown #
point $-1 1.0224914029160983 -1.3240000000000007 -0.36070736791165792 #
coedge $-1 $855 $873 $857 $859 reversed $908 $-1 #
loop $-1 $-1 $855 $913 #
coedge $-1 $858 $857 $872 $914 reversed $847 $-1 #
vertex $-1 $874 $933 #
straight-curve $-1 -1.0224914029161019 1.3240000000000007 0 0 0 -1 I I #
point $-1 -1.0224914029161019 -1.3240000000000007 0.69000000000000039 #
face $-1 $680 $908 $43 $-1 $793 reversed single #
edge $-1 $865 -1.3240000000000007 $910 1.3240000000000007 $909 $934 forward 7 unknown #
point $-1 -1.0224914029161019 -1.3240000000000007 -0.69000000000000039 #
straight-curve $-1 1.0224914029161019 0 -0.69000000000000039 0 -1 0 I I #
point $-1 1.0224914029161019 -1.3240000000000007 -0.69000000000000039 #
straight-curve $-1 -1.0224914029161019 0 0.69000000000000039 0 -1 0 I I #
attrib_edge_convexity-kcp-attrib $-1 $935 $-1 $886 1 #
vertex $-1 $886 $936 #
ellipse-curve $937 0 -2.6480000000000001 0 0 1 0 0.46875 0 0 1 I I #
model_id-kcp-attrib $-1 $938 $-1 $892 1 990669511 50 -667811839 22 #
attrib_edge_convexity-kcp-attrib $-1 $939 $-1 $898 2 #
vertex $-1 $898 $940 #
ellipse-curve $941 0 -1.948 0 0 -1 0 -0.46875 0 0 1 I I #
attrib_edge_convexity-kcp-attrib $-1 $942 $-1 $901 1 #
vertex $943 $901 $944 #
ellipse-curve $945 0 -1.948 0 -1.0000000000000001e-015 1 0 -0.32800000000000001 -3.28e-016 0 1 I I #
convexity-sys-attrib $-1 $946 $902 $845 #
model_id-kcp-attrib $-1 $-1 $-1 $903 1 990669511 50 -667811839 23 #
point $-1 -0.32800000000000001 -0.5 0 #
cur-twe-attrib $-1 $-1 $-1 $904 246 #
point $-1 -1.0224914029161019 1.3240000000000007 -0.69000000000000039 #
straight-curve $-1 -1.0224914029161019 0 -0.69000000000000039 0 1 0 I I #
convexity-sys-attrib $-1 $947 $919 $886 #
point $-1 -0.46875 -2.6480000000000001 0 #
cur-twe-attrib $-1 $-1 $-1 $921 248 #
loop_type-twe-attrib $-1 $-1 $922 $892 1 #
convexity-sys-attrib $-1 $948 $923 $898 #
point $-1 -0.46875 -1.948 0 #
cur-twe-attrib $-1 $-1 $-1 $925 256 #
convexity-sys-attrib $-1 $949 $926 $901 #
model_id-kcp-attrib $-1 $-1 $-1 $927 1 990669511 50 -667811839 24 #
point $-1 0.32800000000000001 -1.948 4.01684080827058e-017 #
cur-twe-attrib $-1 $-1 $-1 $928 258 #
edge_name-twe-attrib $-1 $-1 $929 $845 21 8704 #
edge_name-twe-attrib $-1 $-1 $935 $886 23 8704 #
edge_name-twe-attrib $-1 $-1 $939 $898 22 4608 #
edge_name-twe-attrib $-1 $-1 $942 $901 19 8704 #
End-of-ACIS-data 