104 280 0 0                             
body $-1 $1 $-1 $2 #
lump $-1 $-1 $3 $0 #
transform $-1 1 0 0 0 1 0 0 0 1 0 0 0 1 0 0 0 #
shell $-1 $-1 $-1 $4 $1 #
face $5 $6 $7 $3 $-1 $8 1 #
face_name-twe-attrib $-1 $-1 $-1 $4 1 #
face $9 $10 $11 $3 $-1 $12 0 #
loop $13 $14 $15 $4 #
plane-surface $16 0 0 0 0 -1 0 0 0 -1 0 #
face_name-twe-attrib $-1 $-1 $-1 $6 2 #
face $17 $18 $19 $3 $-1 $20 0 #
loop $21 $22 $23 $6 #
plane-surface $24 0 -0.818 0 0 -1 0 0 0 -1 0 #
loop_type-twe-attrib $-1 $-1 $-1 $7 0 #
loop $25 $-1 $26 $4 #
coedge $-1 $27 $28 $29 $30 1 $7 $-1 #
surf-twe-attrib $-1 $-1 $-1 $8 4 #
face_name-twe-attrib $-1 $-1 $-1 $10 3 #
face $31 $32 $33 $3 $-1 $34 0 #
loop $35 $-1 $29 $10 #
cone-surface $36 0 0 0 0 -1 0 -0.69 0 0 1 0 1 0 #
loop_type-twe-attrib $-1 $-1 $-1 $11 0 #
loop $37 $-1 $38 $6 #
coedge $-1 $39 $40 $41 $42 1 $11 $-1 #
surf-twe-attrib $-1 $-1 $-1 $12 6 #
loop_type-twe-attrib $-1 $-1 $-1 $14 1 #
coedge $-1 $26 $26 $43 $44 1 $14 $-1 #
coedge $-1 $45 $15 $46 $47 1 $7 $-1 #
coedge $-1 $15 $45 $48 $49 0 $7 $-1 #
coedge $-1 $50 $51 $15 $30 0 $19 $-1 #
edge $52 $53 $54 $29 $55 0 #
face_name-twe-attrib $-1 $-1 $-1 $18 4 #
face $56 $57 $58 $3 $-1 $59 0 #
loop $60 $-1 $61 $18 #
plane-surface $62 1.3 0 -0.69 0.997564050259824 0.069756473744125 0 0 0 -1 0 #
loop_type-twe-attrib $-1 $-1 $-1 $19 0 #
surf-twe-attrib $-1 $-1 $-1 $20 10 #
loop_type-twe-attrib $-1 $-1 $-1 $22 1 #
coedge $-1 $38 $38 $63 $64 0 $22 $-1 #
coedge $-1 $65 $23 $66 $67 0 $11 $-1 #
coedge $-1 $23 $65 $68 $69 1 $11 $-1 #
coedge $-1 $51 $50 $23 $42 0 $19 $-1 #
edge $70 $71 $72 $41 $73 0 #
coedge $-1 $43 $43 $26 $44 0 $74 $-1 #
edge $75 $76 $76 $43 $77 0 #
coedge $-1 $28 $27 $78 $79 0 $7 $-1 #
coedge $-1 $80 $81 $27 $47 0 $82 $-1 #
edge $83 $84 $53 $46 $85 0 #
coedge $-1 $86 $87 $28 $49 1 $88 $-1 #
edge $89 $90 $54 $48 $91 0 #
coedge $-1 $41 $29 $87 $92 0 $19 $-1 #
coedge $-1 $29 $41 $80 $93 1 $19 $-1 #
edge_name-twe-attrib $-1 $-1 $-1 $30 1 8704 #
vertex $-1 $93 $94 #
vertex $-1 $92 $95 #
ellipse-curve $96 0 0 0 0 -1 0 0.173594394442204 0 -0.667806099267029 1 #
face_name-twe-attrib $-1 $-1 $-1 $32 5 #
face $97 $98 $88 $3 $-1 $99 1 #
loop $100 $-1 $101 $32 #
cone-surface $102 1.12 -0.442361980440098 -0.69 0 0 1 0.416538019559902 0 0 1 0 1 0 #
loop_type-twe-attrib $-1 $-1 $-1 $33 0 #
coedge $-1 $103 $78 $81 $104 1 $33 $-1 #
surf-twe-attrib $-1 $-1 $-1 $34 18 #
coedge $-1 $63 $63 $38 $64 1 $105 $-1 #
edge $106 $107 $107 $63 $108 0 #
coedge $-1 $40 $39 $109 $110 1 $11 $-1 #
coedge $-1 $87 $111 $39 $67 1 $88 $-1 #
edge $112 $71 $113 $66 $114 0 #
coedge $-1 $115 $80 $40 $69 0 $82 $-1 #
edge $116 $72 $117 $68 $118 0 #
edge_name-twe-attrib $-1 $-1 $-1 $42 2 8704 #
vertex $-1 $92 $119 #
vertex $-1 $93 $120 #
ellipse-curve $121 0 -0.818000000000001 0 0 1 0 0.173594394442203 0 0.667806099267029 1 #
loop $122 $123 $43 $124 #
edge_name-twe-attrib $-1 $-1 $-1 $44 20 8704 #
vertex $-1 $44 $125 #
ellipse-curve $126 0 0 0 0 1 0 -0.5 0 0 1 #
coedge $-1 $61 $127 $45 $79 1 $33 $-1 #
edge $128 $84 $90 $78 $129 0 #
coedge $-1 $68 $46 $51 $93 0 $82 $-1 #
coedge $-1 $46 $115 $61 $104 0 $82 $-1 #
loop $130 $-1 $46 $98 #
edge_name-twe-attrib $-1 $-1 $-1 $47 11 8704 #
vertex $-1 $104 $131 #
straight-curve $132 0.173594394442204 0 0.667806099267029 -0.967834926473955 0 0.251586078901744 #
coedge $-1 $111 $48 $127 $133 1 $88 $-1 #
coedge $-1 $48 $66 $50 $92 1 $88 $-1 #
loop $134 $-1 $48 $57 #
edge_name-twe-attrib $-1 $-1 $-1 $49 6 8704 #
vertex $-1 $133 $135 #
straight-curve $136 0.173594394442204 0 -0.667806099267029 -0.967834926473955 0 -0.251586078901744 #
edge $137 $54 $71 $87 $138 0 #
edge $139 $53 $72 $80 $140 0 #
point $-1 0.173594394442204 0 0.667806099267029 #
point $-1 0.173594394442204 0 -0.667806099267029 #
cur-twe-attrib $-1 $-1 $-1 $55 30 #
face_name-twe-attrib $-1 $-1 $-1 $57 6 #
face $141 $142 $82 $3 $-1 $143 0 #
plane-surface $144 0.173594394442203 -0.859151162849891 -0.667806099267029 -0.251586078901744 0 0.967834926473955 0.967834926473955 0 0.251586078901744 0 #
loop_type-twe-attrib $-1 $-1 $-1 $58 0 #
coedge $-1 $109 $145 $115 $146 1 $58 $-1 #
surf-twe-attrib $-1 $-1 $-1 $59 32 #
coedge $-1 $127 $61 $145 $147 0 $33 $-1 #
edge $148 $149 $84 $81 $150 0 #
loop $151 $152 $63 $153 #
edge_name-twe-attrib $-1 $-1 $-1 $64 16 4608 #
vertex $-1 $64 $154 #
ellipse-curve $155 0 -0.818 0 0 1 0 0.5625 0 0 1 #
coedge $-1 $156 $101 $65 $110 0 $58 $-1 #
edge $157 $117 $113 $109 $158 0 #
coedge $-1 $66 $86 $156 $159 0 $88 $-1 #
edge_name-twe-attrib $-1 $-1 $-1 $67 9 8704 #
vertex $-1 $67 $160 #
straight-curve $161 0.94 -0.818 -0.468581029085816 0.967834926473955 0 0.251586078901744 #
coedge $-1 $81 $68 $101 $146 0 $82 $-1 #
edge_name-twe-attrib $-1 $-1 $-1 $69 13 8704 #
vertex $-1 $110 $162 #
straight-curve $163 0.94 -0.818 0.468581029085816 0.967834926473955 0 -0.251586078901744 #
point $-1 0.173594394442203 -0.818 -0.667806099267029 #
point $-1 0.173594394442203 -0.818 0.667806099267029 #
cur-twe-attrib $-1 $-1 $-1 $73 42 #
loop_type-twe-attrib $-1 $-1 $-1 $74 0 #
loop $164 $-1 $165 $124 #
face $166 $167 $74 $3 $-1 $168 1 #
point $-1 -0.5 0 0 #
cur-twe-attrib $-1 $-1 $-1 $77 44 #
coedge $-1 $78 $103 $86 $133 0 $33 $-1 #
edge_name-twe-attrib $-1 $-1 $-1 $79 3 8448 #
straight-curve $169 1.3 0 -0.375 0 0 -1 #
loop_type-twe-attrib $-1 $-1 $-1 $82 0 #
point $-1 1.3 0 0.375 #
cur-twe-attrib $-1 $-1 $-1 $85 47 #
edge $170 $171 $90 $86 $172 0 #
loop_type-twe-attrib $-1 $-1 $-1 $88 0 #
point $-1 1.3 0 -0.375 #
cur-twe-attrib $-1 $-1 $-1 $91 49 #
edge_name-twe-attrib $-1 $-1 $-1 $92 10 24576 #
straight-curve $173 0.173594394442203 -0.818 -0.667806099267029 -1.22151677525995e-15 -1 0 #
edge_name-twe-attrib $-1 $-1 $-1 $93 12 24576 #
straight-curve $174 0.173594394442203 -0.818 0.667806099267029 -1.22151677525995e-15 -1 0 #
face_name-twe-attrib $-1 $-1 $-1 $98 7 #
face $175 $153 $176 $3 $-1 $177 0 #
plane-surface $178 0.173594394442203 -0.859151162849891 0.667806099267029 0.251586078901744 0 0.967834926473955 0.967834926473955 0 -0.251586078901744 0 #
surf-twe-attrib $-1 $-1 $-1 $99 57 #
coedge $-1 $101 $156 $103 $147 1 $58 $-1 #
edge $179 $117 $149 $115 $180 0 #
edge $181 $149 $171 $145 $182 0 #
edge_name-twe-attrib $-1 $-1 $-1 $104 15 8448 #
vertex $-1 $147 $183 #
straight-curve $184 1.3 0 0.375 -0.0697450083996173 0.9974000881945 0.0181300268323195 #
loop_type-twe-attrib $-1 $-1 $-1 $105 0 #
loop $185 $-1 $186 $153 #
face $187 $188 $105 $3 $-1 $189 0 #
point $-1 -0.5625 -0.818 0 #
cur-twe-attrib $-1 $-1 $-1 $108 64 #
coedge $-1 $145 $109 $111 $159 1 $58 $-1 #
edge_name-twe-attrib $-1 $-1 $-1 $110 4 4352 #
straight-curve $190 0.94 -0.818 -0.468581029085816 0 0 -1 #
edge $191 $171 $113 $111 $192 0 #
point $-1 0.94 -0.818 -0.468581029085816 #
cur-twe-attrib $-1 $-1 $-1 $114 67 #
point $-1 0.94 -0.818 0.468581029085816 #
cur-twe-attrib $-1 $-1 $-1 $118 69 #
loop_type-twe-attrib $-1 $-1 $-1 $123 1 #
coedge $-1 $165 $165 $193 $194 1 $123 $-1 #
face_name-twe-attrib $-1 $-1 $-1 $124 12 #
face $195 $196 $197 $3 $-1 $198 1 #
cone-surface $199 0 0.1324 0 0 -1 0 -0.5 0 0 1 0 1 0 #
cur-twe-attrib $-1 $-1 $-1 $129 79 #
edge_name-twe-attrib $-1 $-1 $-1 $133 7 8448 #
vertex $-1 $147 $200 #
straight-curve $201 1.3 0 -0.375 -0.0697450083996173 0.9974000881945 -0.0181300268323195 #
cur-twe-attrib $-1 $-1 $-1 $138 92 #
cur-twe-attrib $-1 $-1 $-1 $140 93 #
face_name-twe-attrib $-1 $-1 $-1 $142 8 #
loop $202 $203 $204 $142 #
plane-surface $205 0 -2.648 0 0 -1 0 0 0 -1 0 #
surf-twe-attrib $-1 $-1 $-1 $143 98 #
edge_name-twe-attrib $-1 $-1 $-1 $146 14 8448 #
intcurve-curve $206 0 { exactcur nubs 3 open 10 
	0 3 0.0492965734032038 1 0.0991358909453726 1 0.149354733488062 1 0.199774223294713 1 
	0.250215448233401 1 0.300505605493294 1 0.350467638939701 1 0.399929650980124 1 0.448739959407459 3 
	0.94 -0.818 0.468581029085816 
	0.954427583009197 -0.824913477354337 0.464830617793533 
	0.984228333480767 -0.837134162583985 0.457083993080591 
	1.03082229927548 -0.85020659838235 0.444972017335429 
	1.0789113681531 -0.857824650917552 0.432471393576134 
	1.1277188726312 -0.859783669893648 0.419784014420102 
	1.17645096983925 -0.85601957545545 0.407116237180549 
	1.22431117323893 -0.846606055563604 0.394675106384996 
	1.27053144001654 -0.831751844047725 0.38266027269147 
	1.3143878256498 -0.811799968207705 0.371259923526068 
	1.34184798278137 -0.795264874524934 0.364121729739318 
	1.3549828058322 -0.786290756063933 0.360707367911658 
	0 
	null_surface 
	null_surface 
	nullbs 
	nullbs 
	} #
edge_name-twe-attrib $-1 $-1 $-1 $147 5 8448 #
straight-curve $207 1.3549828058322 -0.786290756063933 -0.360707367911658 0 0 -1 #
point $-1 1.3549828058322 -0.786290756063933 0.360707367911658 #
cur-twe-attrib $-1 $-1 $-1 $150 104 #
loop_type-twe-attrib $-1 $-1 $-1 $152 1 #
coedge $-1 $186 $186 $204 $208 0 $152 $-1 #
face_name-twe-attrib $-1 $-1 $-1 $153 9 #
face $209 $210 $211 $3 $-1 $212 1 #
cone-surface $213 0 -0.818 0 0 -1 0 -0.5625 0 0 1 0 1 0 #
cur-twe-attrib $-1 $-1 $-1 $158 110 #
edge_name-twe-attrib $-1 $-1 $-1 $159 8 8448 #
intcurve-curve $214 0 { exactcur nubs 3 open 10 
	0 3 0.0488103084273343 1 0.098272320467756 1 0.148234353914165 1 0.198524511174058 1 
	0.248965736112746 1 0.299385225919396 1 0.349604068462086 1 0.399443386004254 1 0.448739959407458 3 
	1.3549828058322 -0.786290756063933 -0.360707367911658 
	1.34184798278137 -0.795264874524934 -0.364121729739318 
	1.3143878256498 -0.811799968207706 -0.371259923526068 
	1.27053144001654 -0.831751844047724 -0.38266027269147 
	1.22431117323893 -0.846606055563604 -0.394675106384996 
	1.17645096983925 -0.85601957545545 -0.407116237180549 
	1.1277188726312 -0.859783669893648 -0.419784014420102 
	1.0789113681531 -0.85782465091755 -0.432471393576134 
	1.03082229927548 -0.85020659838235 -0.444972017335429 
	0.984228333480767 -0.837134162583984 -0.457083993080591 
	0.954427583009197 -0.824913477354338 -0.464830617793533 
	0.94 -0.818 -0.468581029085816 
	0 
	null_surface 
	null_surface 
	nullbs 
	nullbs 
	} #
coedge $-1 $193 $193 $165 $194 0 $215 $-1 #
edge $216 $217 $217 $193 $218 0 #
face_name-twe-attrib $-1 $-1 $-1 $167 13 #
face $219 $-1 $220 $3 $-1 $221 1 #
loop $222 $223 $224 $167 #
cone-surface $225 0 0.1324 0 0 -1 0 -0.328 0 0 1 0 1 0 #
surf-twe-attrib $-1 $-1 $-1 $168 124 #
point $-1 1.3549828058322 -0.786290756063933 -0.360707367911658 #
cur-twe-attrib $-1 $-1 $-1 $172 133 #
loop_type-twe-attrib $-1 $-1 $-1 $176 0 #
loop $226 $-1 $227 $142 #
coedge $-1 $204 $204 $186 $208 1 $176 $-1 #
surf-twe-attrib $-1 $-1 $-1 $177 142 #
cur-twe-attrib $-1 $-1 $-1 $180 146 #
cur-twe-attrib $-1 $-1 $-1 $182 147 #
edge $228 $229 $229 $186 $230 0 #
face_name-twe-attrib $-1 $-1 $-1 $188 10 #
face $231 $124 $232 $3 $-1 $233 0 #
loop $234 $215 $235 $188 #
plane-surface $236 0 -0.5 0 0 -1 0 0 0 -1 0 #
surf-twe-attrib $-1 $-1 $-1 $189 153 #
cur-twe-attrib $-1 $-1 $-1 $192 159 #
loop $237 $-1 $193 $188 #
edge_name-twe-attrib $-1 $-1 $-1 $194 18 4608 #
vertex $-1 $194 $238 #
ellipse-curve $239 0 -0.5 0 0 1 0 -0.5 0 0 1 #
face_name-twe-attrib $-1 $-1 $-1 $196 14 #
loop $240 $241 $242 $196 #
cone-surface $243 0 0.1324 0 0 -1 0 -0.46875 0 0 1 0 1 0 #
loop_type-twe-attrib $-1 $-1 $-1 $197 0 #
loop $244 $-1 $245 $167 #
coedge $-1 $224 $224 $235 $246 1 $197 $-1 #
surf-twe-attrib $-1 $-1 $-1 $198 167 #
loop_type-twe-attrib $-1 $-1 $-1 $203 1 #
coedge $-1 $227 $227 $247 $248 0 $203 $-1 #
edge_name-twe-attrib $-1 $-1 $-1 $208 17 8704 #
vertex $-1 $208 $249 #
ellipse-curve $250 0 -2.648 0 -2e-15 1 0 -0.5625 -1.125e-15 0 1 #
face_name-twe-attrib $-1 $-1 $-1 $210 11 #
loop $251 $252 $253 $210 #
plane-surface $254 0 -1.948 0 0 -1 0 0 0 -1 0 #
loop_type-twe-attrib $-1 $-1 $-1 $211 1 #
coedge $-1 $235 $235 $224 $246 0 $211 $-1 #
surf-twe-attrib $-1 $-1 $-1 $212 188 #
loop_type-twe-attrib $-1 $-1 $-1 $215 0 #
point $-1 0.5 -0.5 6.12323293943686e-17 #
cur-twe-attrib $-1 $-1 $-1 $218 194 #
loop_type-twe-attrib $-1 $-1 $-1 $220 0 #
loop $255 $-1 $247 $196 #
coedge $-1 $242 $242 $253 $256 1 $220 $-1 #
surf-twe-attrib $-1 $-1 $-1 $221 196 #
loop_type-twe-attrib $-1 $-1 $-1 $223 1 #
coedge $-1 $245 $245 $257 $258 1 $223 $-1 #
edge $259 $260 $260 $224 $261 0 #
coedge $-1 $247 $247 $227 $248 1 $241 $-1 #
edge $262 $263 $263 $247 $264 0 #
point $-1 -0.5625 -2.648 0 #
cur-twe-attrib $-1 $-1 $-1 $230 208 #
loop_type-twe-attrib $-1 $-1 $-1 $232 0 #
loop $265 $-1 $257 $210 #
coedge $-1 $253 $253 $242 $256 0 $232 $-1 #
surf-twe-attrib $-1 $-1 $-1 $233 210 #
loop_type-twe-attrib $-1 $-1 $-1 $241 1 #
edge $266 $267 $267 $242 $268 0 #
coedge $-1 $257 $257 $245 $258 0 $252 $-1 #
edge $269 $270 $270 $257 $271 0 #
edge_name-twe-attrib $-1 $-1 $-1 $246 21 8704 #
vertex $-1 $246 $272 #
ellipse-curve $273 0 -0.5 0 0 -1 0 -0.328 0 0 1 #
edge_name-twe-attrib $-1 $-1 $-1 $248 23 8704 #
vertex $-1 $248 $274 #
ellipse-curve $275 0 -2.648 0 0 1 0 0.46875 0 0 1 #
loop_type-twe-attrib $-1 $-1 $-1 $252 1 #
edge_name-twe-attrib $-1 $-1 $-1 $256 22 4608 #
vertex $-1 $256 $276 #
ellipse-curve $277 0 -1.948 0 0 -1 0 -0.46875 0 0 1 #
edge_name-twe-attrib $-1 $-1 $-1 $258 19 8704 #
vertex $-1 $258 $278 #
ellipse-curve $279 0 -1.948 0 -1e-15 1 0 -0.328 -3.28e-16 0 1 #
point $-1 -0.328 -0.5 0 #
cur-twe-attrib $-1 $-1 $-1 $261 246 #
point $-1 -0.46875 -2.648 0 #
cur-twe-attrib $-1 $-1 $-1 $264 248 #
point $-1 -0.46875 -1.948 0 #
cur-twe-attrib $-1 $-1 $-1 $268 256 #
point $-1 0.328 -1.948 4.01684080827058e-17 #
cur-twe-attrib $-1 $-1 $-1 $271 258 #
