103 292 0 0                                 
body $1 $2 $-1 $3 #
body-st-attrib $-1 $-1 $-1 $0 -1 2 3 #
lump $-1 $-1 $4 $0 #
transform $-1 0.812800870961731 -0.582541624404516 6.12303176911189e-17 0.582541624404516 0.812800870961731 0 -4.97680555486049e-17 3.56692087305889e-17 1 -122.561597387115 38.2523751267866 160 1 1 0 0 #
shell $-1 $-1 $-1 $5 $2 #
face $-1 $6 $7 $4 $-1 $8 0 #
face $9 $10 $11 $4 $-1 $12 0 #
loop $-1 $-1 $13 $5 #
plane-surface $-1 121.901773846397 40.3056682120952 -68 6.12303176911189e-17 0 1 0.812800870961731 0.582541624404516 -4.97680555486049e-17 0 #
face-st-attrib $-1 $-1 $-1 $6 6 1 31 nc.free_edge_condition_distance #
face $14 $15 $16 $4 $-1 $17 0 #
loop $-1 $-1 $18 $6 #
cone-surface $-1 0 0 0 0 0 1 3 0 0 1 0 1 0 #
coedge $-1 $19 $20 $21 $22 0 $7 $-1 #
face-st-attrib $-1 $-1 $-1 $10 10 1 31 nc.free_edge_condition_distance #
face $23 $24 $25 $4 $-1 $26 0 #
loop $-1 $-1 $27 $10 #
cone-surface $-1 -28.9132404887614 0 1.4210854715202e-14 6.12303176911189e-17 0 1 25.9132404887614 -1.59204437811553e-15 -1.58667594753322e-15 1 6.12303176911189e-17 -1 0 #
coedge $-1 $28 $29 $30 $31 1 $11 $-1 #
coedge $-1 $32 $13 $33 $34 0 $7 $-1 #
coedge $-1 $13 $35 $36 $37 0 $7 $-1 #
coedge $-1 $38 $39 $13 $22 1 $40 $-1 #
edge $-1 $41 $42 $21 $43 0 #
face-st-attrib $-1 $-1 $-1 $15 15 1 31 nc.free_edge_condition_distance #
face $44 $45 $46 $4 $-1 $47 0 #
loop $-1 $-1 $48 $15 #
cone-surface $-1 -28.9132404887614 0 1.4210854715202e-14 6.12303176911189e-17 0 1 31.9132404887614 -1.96066930068497e-15 -1.95405785367994e-15 1 -6.12303176911189e-17 1 0 #
coedge $-1 $49 $50 $51 $52 1 $16 $-1 #
coedge $-1 $53 $18 $50 $54 1 $11 $-1 #
coedge $-1 $18 $53 $55 $56 0 $11 $-1 #
coedge $-1 $57 $51 $18 $31 0 $7 $-1 #
edge $-1 $58 $59 $18 $60 0 #
coedge $-1 $61 $19 $62 $63 0 $7 $-1 #
coedge $-1 $64 $65 $19 $34 1 $66 $-1 #
edge $-1 $42 $67 $33 $68 0 #
coedge $-1 $20 $69 $70 $71 0 $7 $-1 #
coedge $-1 $72 $73 $20 $37 1 $74 $-1 #
edge $-1 $75 $41 $36 $76 0 #
coedge $-1 $77 $21 $73 $78 1 $40 $-1 #
coedge $-1 $21 $77 $64 $79 0 $40 $-1 #
loop $-1 $-1 $21 $80 #
vertex $-1 $78 $81 #
vertex $-1 $79 $82 #
ellipse-curve $-1 -4.62766175483992 72.6522588582889 -68 6.12303176911189e-17 0 1 -2.4384026128852 -1.74762487321354 3.32995119719172e-16 1 #
face-st-attrib $-1 $-1 $-1 $24 24 1 31 nc.free_edge_condition_distance #
face $83 $84 $85 $4 $-1 $86 0 #
loop $-1 $-1 $87 $24 #
cone-surface $-1 43.5459305002941 33.0280466251087 1.4210854715202e-14 -6.12303176911189e-17 -6.16297582203915e-33 -1 -48.8799239785101 -22.2802494999262 2.99293327392191e-15 1 -6.12303176911189e-17 1 0 #
coedge $-1 $55 $88 $57 $89 1 $25 $-1 #
coedge $-1 $90 $27 $91 $92 0 $16 $-1 #
coedge $-1 $27 $90 $28 $54 0 $16 $-1 #
coedge $-1 $30 $93 $27 $52 0 $7 $-1 #
edge $-1 $94 $58 $27 $95 0 #
coedge $-1 $29 $28 $96 $97 1 $11 $-1 #
edge $-1 $98 $58 $28 $99 0 #
coedge $-1 $100 $48 $29 $56 1 $25 $-1 #
edge $-1 $101 $59 $29 $102 0 #
coedge $-1 $103 $30 $48 $89 0 $7 $-1 #
vertex $-1 $54 $104 #
vertex $-1 $56 $105 #
ellipse-curve $-1 0 0 -68 6.12303176911189e-17 0 1 3 0 0 1 #
coedge $-1 $106 $32 $107 $108 0 $7 $-1 #
coedge $-1 $109 $110 $32 $63 1 $111 $-1 #
edge $-1 $67 $112 $62 $113 0 #
coedge $-1 $114 $33 $39 $79 1 $66 $-1 #
coedge $-1 $33 $114 $109 $115 1 $66 $-1 #
loop $-1 $-1 $33 $116 #
vertex $-1 $34 $117 #
straight-curve $-1 25.9501758785681 24.8381767503655 -68 0.582541624404514 -0.812800870961732 -3.56692087305889e-17 #
coedge $-1 $35 $118 $119 $120 0 $7 $-1 #
coedge $-1 $121 $122 $35 $71 1 $123 $-1 #
edge $-1 $124 $75 $70 $125 0 #
coedge $-1 $126 $36 $122 $127 1 $74 $-1 #
coedge $-1 $36 $126 $38 $78 0 $74 $-1 #
loop $-1 $-1 $36 $128 #
vertex $-1 $127 $129 #
straight-curve $-1 30.8269811043385 28.3334264967926 -68 -0.582541624404514 0.812800870961732 3.56692087305889e-17 #
coedge $-1 $39 $38 $130 $131 1 $40 $-1 #
edge $-1 $132 $41 $73 $133 0 #
edge $-1 $134 $42 $64 $135 1 #
face $136 $137 $40 $4 $-1 $138 0 #
point $-1 -2.18925914195472 74.3998837315024 -68 #
point $-1 -7.06606436772512 70.9046339850753 -68 #
face-st-attrib $-1 $-1 $-1 $45 45 1 31 nc.free_edge_condition_distance #
face $139 $140 $141 $4 $-1 $142 0 #
loop $-1 $-1 $143 $45 #
cone-surface $-1 43.5459305002941 33.0280466251087 1.4210854715202e-14 -6.12303176911189e-17 -6.16297582203915e-33 -1 -43.4203411785654 -19.7916845217615 2.65864128462033e-15 1 6.12303176911189e-17 -1 0 #
coedge $-1 $144 $91 $93 $145 1 $46 $-1 #
coedge $-1 $48 $100 $146 $147 1 $25 $-1 #
edge $-1 $59 $148 $48 $149 0 #
coedge $-1 $50 $49 $150 $151 1 $16 $-1 #
coedge $-1 $87 $152 $49 $92 1 $46 $-1 #
edge $-1 $94 $153 $49 $154 0 #
coedge $-1 $51 $106 $87 $145 0 $7 $-1 #
vertex $-1 $145 $155 #
ellipse-curve $-1 -28.9132404887614 0 -68 -6.12303176911189e-17 -0 -1 25.9132404887614 -1.59204437811553e-15 -1.58667594753322e-15 1 #
coedge $-1 $150 $156 $53 $97 0 $157 $-1 #
edge $-1 $101 $98 $96 $158 0 #
vertex $-1 $151 $159 #
straight-curve $-1 -3 0 1.4210854715202e-14 6.12303176911189e-17 0 1 #
coedge $-1 $88 $55 $156 $160 0 $25 $-1 #
vertex $-1 $56 $161 #
straight-curve $-1 3 0 0 0 0 1 #
coedge $-1 $118 $57 $143 $162 0 $7 $-1 #
point $-1 -3 0 -68 #
point $-1 3 0 -68 #
coedge $-1 $93 $61 $163 $164 0 $7 $-1 #
coedge $-1 $165 $166 $61 $108 1 $167 $-1 #
edge $-1 $112 $168 $107 $169 0 #
coedge $-1 $170 $62 $65 $115 0 $111 $-1 #
coedge $-1 $62 $170 $165 $171 0 $111 $-1 #
loop $-1 $-1 $62 $172 #
vertex $-1 $171 $173 #
ellipse-curve $-1 -5.79015328328371 55.3914736165926 -68 -6.12303176911189e-17 -0 -1 5.53005684835773 -5.780871150089 -3.38607137674891e-16 1 #
coedge $-1 $65 $64 $174 $175 1 $66 $-1 #
edge $-1 $67 $176 $109 $177 0 #
face $178 $128 $66 $4 $-1 $179 0 #
point $-1 0.712253684410108 60.0518066118287 -68 #
coedge $-1 $69 $103 $180 $181 0 $7 $-1 #
coedge $-1 $182 $183 $69 $120 1 $184 $-1 #
edge $-1 $185 $124 $119 $186 0 #
coedge $-1 $187 $70 $183 $188 1 $123 $-1 #
coedge $-1 $70 $187 $72 $127 0 $123 $-1 #
loop $-1 $-1 $70 $189 #
vertex $-1 $188 $190 #
ellipse-curve $-1 -5.79015328328371 55.3914736165926 -68 6.12303176911189e-17 0 1 9.67759948462604 -10.1165245126558 -5.92562490931061e-16 1 #
coedge $-1 $73 $72 $191 $192 0 $74 $-1 #
edge $-1 $193 $75 $122 $194 0 #
face $195 $80 $74 $4 $-1 $196 0 #
point $-1 5.5890589101805 63.5470563582558 -68 #
coedge $-1 $191 $174 $77 $131 0 $157 $-1 #
edge $-1 $134 $132 $130 $197 0 #
vertex $-1 $192 $198 #
straight-curve $-1 -2.18925914195472 74.3998837315024 100 1.14622621425139e-17 -3.56692087305888e-17 1 #
vertex $-1 $79 $199 #
straight-curve $-1 -7.06606436772512 70.9046339850753 -100 -1.14622621425139e-17 3.56692087305888e-17 -1 #
face-st-attrib $-1 $-1 $-1 $80 80 1 31 nc.free_edge_condition_distance #
face $200 $-1 $157 $4 $-1 $201 0 #
cone-surface $-1 -4.62766175483991 72.6522588582889 0 1.10998373239724e-16 3.56692087305888e-17 1 -2.4384026128852 -1.74762487321354 3.32995119719172e-16 1 0 1 0 #
face-st-attrib $-1 $-1 $-1 $84 84 1 31 nc.free_edge_condition_distance #
face $202 $203 $204 $4 $-1 $205 0 #
loop $-1 $-1 $163 $84 #
cone-surface $-1 9.91566896285983 30.5929444353585 9.9475983006414e-14 -6.12303176911189e-17 3.85185988877447e-33 -1 -19.947775985666 -1.44437987582256 1.2214086608336e-15 1 -6.12303176911189e-17 1 0 #
coedge $-1 $146 $206 $103 $162 1 $85 $-1 #
coedge $-1 $152 $87 $207 $208 0 $46 $-1 #
edge $-1 $209 $94 $87 $210 0 #
coedge $-1 $211 $143 $88 $147 0 $85 $-1 #
edge $-1 $148 $212 $88 $213 1 #
vertex $-1 $162 $214 #
ellipse-curve $-1 -28.9132404887614 0 -68 6.12303176911189e-17 0 1 31.9132404887614 -1.96066930068497e-15 -1.95405785367994e-15 1 #
coedge $-1 $215 $96 $90 $151 0 $157 $-1 #
edge $-1 $98 $153 $150 $216 0 #
coedge $-1 $91 $144 $215 $217 1 $46 $-1 #
vertex $-1 $217 $218 #
straight-curve $-1 -5.33399347821622 10.7477971251824 -100 -5.51498614085565e-18 2.53959373680041e-17 -1 #
point $-1 -5.33399347821622 10.7477971251824 -68 #
coedge $-1 $96 $219 $100 $160 1 $157 $-1 #
loop $-1 $-1 $191 $137 #
ellipse-curve $-1 0 0 -100 0 0 -1 3 0 0 1 #
point $-1 -3 -7.105427357601e-15 -100 #
edge $-1 $101 $212 $100 $220 0 #
point $-1 3 0 -100 #
edge $-1 $148 $221 $143 $222 0 #
coedge $-1 $223 $207 $106 $164 1 $141 $-1 #
edge $-1 $168 $209 $163 $224 0 #
coedge $-1 $225 $107 $110 $171 1 $167 $-1 #
coedge $-1 $107 $225 $223 $226 1 $167 $-1 #
loop $-1 $-1 $107 $203 #
vertex $-1 $108 $227 #
ellipse-curve $-1 28.7727041256404 19.2610267262996 -68 6.12303176911189e-17 0 1 -35.9997920269185 21.6336596538501 2.20427870262243e-15 1 #
coedge $-1 $110 $109 $228 $229 1 $111 $-1 #
edge $-1 $230 $112 $165 $231 1 #
face $232 $189 $111 $4 $-1 $233 0 #
point $-1 -0.260096434925997 49.6106024665037 -68 #
coedge $-1 $130 $228 $114 $175 0 $157 $-1 #
edge $-1 $176 $134 $174 $234 0 #
vertex $-1 $175 $235 #
straight-curve $-1 0.712253684410108 60.0518066118287 -100 -1.14622621425139e-17 3.56692087305889e-17 -1 #
face-st-attrib $-1 $-1 $-1 $116 116 1 31 nc.free_edge_condition_distance #
plane-surface $-1 0.712253684410105 60.0518066118287 100 -0.812800870961732 -0.582541624404514 -1.14622621425139e-17 0 0 0 0 #
coedge $-1 $236 $237 $118 $181 1 $204 $-1 #
edge $-1 $221 $185 $180 $238 0 #
coedge $-1 $239 $119 $237 $240 0 $184 $-1 #
coedge $-1 $119 $239 $121 $188 0 $184 $-1 #
loop $-1 $-1 $119 $241 #
vertex $-1 $120 $242 #
ellipse-curve $-1 28.7727041256404 19.2610267262996 -68 -6.12303176911189e-17 -0 -1 -30.8569649676772 18.5431370704128 1.8893817679546e-15 1 #
coedge $-1 $122 $121 $243 $244 0 $123 $-1 #
edge $-1 $245 $124 $183 $246 0 #
face $247 $116 $123 $4 $-1 $248 0 #
point $-1 3.88744620134232 45.2749491039369 -68 #
coedge $-1 $243 $130 $126 $192 1 $157 $-1 #
edge $-1 $193 $132 $126 $249 0 #
vertex $-1 $127 $250 #
straight-curve $-1 5.5890589101805 63.5470563582558 100 1.14622621425139e-17 -3.56692087305889e-17 1 #
face-st-attrib $-1 $-1 $-1 $128 128 1 31 nc.free_edge_condition_distance #
plane-surface $-1 5.5890589101805 63.5470563582558 -100 0.812800870961732 0.582541624404514 1.14622621425139e-17 0 0 0 0 #
ellipse-curve $-1 -4.62766175483992 72.6522588582889 -100 -1.10998373239724e-16 -3.56692087305888e-17 -1 -2.4384026128852 -1.74762487321354 3.32995119719172e-16 1 #
point $-1 -2.18925914195472 74.3998837315024 -100 #
point $-1 -7.06606436772512 70.9046339850753 -100 #
face-st-attrib $-1 $-1 $-1 $137 137 1 31 nc.free_edge_condition_distance #
plane-surface $-1 0 0 -100 0 0 -1 0 0 0 0 #
face-st-attrib $-1 $-1 $-1 $140 140 1 31 nc.free_edge_condition_distance #
face $251 $241 $167 $4 $-1 $252 0 #
loop $-1 $-1 $180 $140 #
cone-surface $-1 9.91566896285983 30.5929444353585 9.9475983006414e-14 -6.12303176911189e-17 3.85185988877447e-33 -1 -13.9634431899662 -1.01106591307579 8.5498606258352e-16 1 6.12303176911189e-17 -1 0 #
coedge $-1 $143 $211 $236 $253 1 $85 $-1 #
coedge $-1 $163 $254 $144 $208 1 $141 $-1 #
edge $-1 $209 $255 $144 $256 0 #
vertex $-1 $164 $257 #
ellipse-curve $-1 43.5459305002941 33.0280466251087 -68 6.12303176911189e-17 0 1 -48.8799239785101 -22.2802494999262 2.99293327392191e-15 1 #
coedge $-1 $206 $146 $219 $258 0 $85 $-1 #
vertex $-1 $147 $259 #
straight-curve $-1 0.125589321728438 13.2363621033472 100 5.51498614085565e-18 -2.53959373680041e-17 1 #
point $-1 0.125589321728437 13.2363621033472 -68 #
coedge $-1 $260 $150 $152 $217 0 $157 $-1 #
ellipse-curve $-1 -28.9132404887614 0 -100 6.12303176911189e-17 0 1 25.9132404887614 -1.59204437811553e-15 -1.58667594753322e-15 1 #
edge $-1 $153 $255 $215 $261 0 #
point $-1 -5.33399347821621 10.7477971251824 -100 #
coedge $-1 $156 $262 $211 $258 1 $157 $-1 #
ellipse-curve $-1 -28.9132404887614 0 -100 6.12303176911189e-17 0 1 31.9132404887614 -1.96066930068498e-15 -1.95405785367994e-15 1 #
vertex $-1 $181 $263 #
ellipse-curve $-1 43.5459305002941 33.0280466251087 -68 -6.12303176911189e-17 -0 -1 -43.4203411785654 -19.7916845217615 2.65864128462033e-15 1 #
coedge $-1 $254 $163 $166 $226 0 $141 $-1 #
ellipse-curve $-1 9.91566896285983 30.5929444353585 -68 6.12303176911189e-17 0 1 -19.947775985666 -1.44437987582256 1.2214086608336e-15 1 #
coedge $-1 $166 $165 $264 $265 1 $167 $-1 #
edge $-1 $168 $266 $223 $267 0 #
point $-1 -7.22708790127762 40.8946863801494 -68 #
coedge $-1 $174 $264 $170 $229 0 $157 $-1 #
edge $-1 $230 $176 $228 $268 0 #
vertex $-1 $229 $269 #
straight-curve $-1 -0.260096434925998 49.6106024665037 -100 -1.89044254817574e-17 -4.42455721314219e-17 -1 #
face-st-attrib $-1 $-1 $-1 $172 172 1 31 nc.free_edge_condition_distance #
cone-surface $-1 -5.79015328328371 55.3914736165926 1.4210854715202e-14 6.12303176911189e-17 -6.16297582203915e-33 1 5.53005684835773 -5.780871150089 -3.38607137674891e-16 1 6.12303176911189e-17 -1 0 #
straight-curve $-1 0.712253684410103 60.0518066118287 -100 -0.582541624404514 0.812800870961732 3.56692087305888e-17 #
point $-1 0.712253684410106 60.0518066118287 -100 #
coedge $-1 $270 $180 $206 $253 0 $204 $-1 #
coedge $-1 $180 $270 $182 $240 1 $204 $-1 #
ellipse-curve $-1 9.91566896285983 30.5929444353585 -68 -6.12303176911189e-17 -0 -1 -13.9634431899662 -1.01106591307579 8.5498606258352e-16 1 #
coedge $-1 $183 $182 $271 $272 0 $184 $-1 #
edge $-1 $185 $273 $237 $274 1 #
face $275 $172 $184 $4 $-1 $276 0 #
point $-1 -2.08426084203636 37.8041637967121 -68 #
coedge $-1 $271 $191 $187 $244 1 $157 $-1 #
edge $-1 $245 $193 $187 $277 0 #
vertex $-1 $188 $278 #
straight-curve $-1 3.88744620134232 45.2749491039369 100 1.89044254817574e-17 4.42455721314219e-17 1 #
face-st-attrib $-1 $-1 $-1 $189 189 1 31 nc.free_edge_condition_distance #
cone-surface $-1 -5.79015328328371 55.3914736165926 1.4210854715202e-14 6.12303176911189e-17 -6.16297582203915e-33 1 9.67759948462604 -10.1165245126558 -5.92562490931061e-16 1 -6.12303176911189e-17 1 0 #
straight-curve $-1 5.5890589101805 63.5470563582558 -100 -0.582541624404514 0.812800870961732 3.56692087305888e-17 #
point $-1 5.58905891018049 63.5470563582558 -100 #
face-st-attrib $-1 $-1 $-1 $203 203 1 31 nc.free_edge_condition_distance #
cone-surface $-1 28.7727041256404 19.2610267262996 1.4210854715202e-14 -6.12303176911189e-17 0 -1 -35.9997920269185 21.6336596538501 2.20427870262243e-15 1 -6.12303176911189e-17 1 0 #
edge $-1 $221 $279 $206 $280 1 #
coedge $-1 $207 $223 $260 $281 1 $141 $-1 #
vertex $-1 $281 $282 #
straight-curve $-1 -10.0321070228066 29.1485645595359 -100 -1.59884649438473e-19 4.42199193316498e-18 -1 #
point $-1 -10.0321070228066 29.1485645595359 -68 #
edge $-1 $212 $279 $211 $283 0 #
point $-1 0.125589321728441 13.2363621033472 -100 #
coedge $-1 $264 $215 $254 $281 0 $157 $-1 #
ellipse-curve $-1 43.5459305002941 33.0280466251087 -100 -6.12303176911189e-17 -6.16297582203915e-33 -1 -48.8799239785101 -22.2802494999262 2.99293327392191e-15 1 #
coedge $-1 $219 $271 $270 $284 1 $157 $-1 #
point $-1 -4.04777422710681 29.5818785222828 -68 #
coedge $-1 $228 $260 $225 $265 0 $157 $-1 #
edge $-1 $266 $230 $264 $285 0 #
vertex $-1 $265 $286 #
straight-curve $-1 -7.22708790127762 40.8946863801494 -99.9999999999999 -8.74749524648135e-18 -3.15389466025737e-17 -1 #
ellipse-curve $-1 -5.79015328328372 55.3914736165926 -100 6.12303176911189e-17 -6.16297582203915e-33 1 5.53005684835773 -5.780871150089 -3.38607137674891e-16 1 #
point $-1 -0.260096434925992 49.6106024665036 -100 #
coedge $-1 $237 $236 $262 $284 0 $204 $-1 #
coedge $-1 $262 $243 $239 $272 1 $157 $-1 #
edge $-1 $273 $245 $239 $287 0 #
vertex $-1 $240 $288 #
straight-curve $-1 -2.08426084203636 37.8041637967121 100 8.74749524648135e-18 3.15389466025737e-17 1 #
face-st-attrib $-1 $-1 $-1 $241 241 1 31 nc.free_edge_condition_distance #
cone-surface $-1 28.7727041256404 19.2610267262996 1.4210854715202e-14 -6.12303176911189e-17 0 -1 -30.8569649676772 18.5431370704128 1.8893817679546e-15 1 6.12303176911189e-17 -1 0 #
ellipse-curve $-1 -5.79015328328372 55.3914736165926 -100 6.12303176911189e-17 -6.16297582203915e-33 1 9.67759948462604 -10.1165245126558 -5.92562490931061e-16 1 #
point $-1 3.88744620134231 45.2749491039369 -100 #
vertex $-1 $253 $289 #
straight-curve $-1 -4.04777422710681 29.5818785222828 100 1.59884649438473e-19 -4.42199193316498e-18 1 #
edge $-1 $255 $266 $260 $290 0 #
point $-1 -10.0321070228066 29.1485645595359 -100 #
ellipse-curve $-1 43.5459305002941 33.0280466251087 -100 -6.12303176911189e-17 -6.16297582203915e-33 -1 -43.4203411785654 -19.7916845217615 2.65864128462033e-15 1 #
edge $-1 $279 $273 $270 $291 0 #
ellipse-curve $-1 28.7727041256404 19.2610267262996 -100 -6.12303176911189e-17 0 -1 -35.9997920269185 21.63365965385 2.20427870262243e-15 1 #
point $-1 -7.22708790127763 40.8946863801494 -100 #
ellipse-curve $-1 28.7727041256404 19.2610267262996 -100 -6.12303176911189e-17 0 -1 -30.8569649676772 18.5431370704128 1.8893817679546e-15 1 #
point $-1 -2.08426084203636 37.8041637967121 -100 #
point $-1 -4.0477742271068 29.5818785222828 -100 #
ellipse-curve $-1 9.91566896285982 30.5929444353585 -100 -6.12303176911189e-17 3.85185988877447e-33 -1 -19.947775985666 -1.44437987582256 1.2214086608336e-15 1 #
ellipse-curve $-1 9.91566896285982 30.5929444353585 -100 -6.12303176911189e-17 3.85185988877447e-33 -1 -13.9634431899662 -1.01106591307579 8.5498606258352e-16 1 #
