600 0 2 0           
24 FBMach with ACIS - 6.0.3 13 ACIS 6.0.3 NT 24 Tue May 22 16:48:32 2001 
1 9.9999999999999995e-007 1e-010 
body $2 $3 $-1 $4 #
bdycol-kcp $-1 1 3 $5 $6 $7 #
model_id-kcp-attrib $-1 $8 $-1 $0 1 990564512 70 -1337589759 1 #
lump $-1 $-1 $9 $0 #
transform $-1 0.81280087096173104 -0.58254162440451596 6.12303176911189e-017 0.58254162440451596 0.81280087096173104 6.1629758220391547e-033 -4.9768055548604902e-017 3.5669208730588903e-017 1 -122.56159738711499 38.25237512678661 160 1 rotate no_reflect no_shear #
body $10 $11 $-1 $12 #
body $13 $14 $-1 $15 #
body $16 $17 $-1 $18 #
body-st-attrib $-1 $-1 $2 $0 -1 2 3 #
shell $-1 $-1 $-1 $19 $-1 $3 #
model_id-kcp-attrib $-1 $-1 $-1 $5 1 990564512 70 -1337589758 1 #
lump $-1 $-1 $20 $5 #
transform $-1 1 0 0 0 1 0 0 0 1 -102.16190618525476 68.32426733593401 76 1 no_rotate no_reflect no_shear #
rgb_color-st-attrib $-1 $21 $-1 $6 0.5 0.5 1 #
lump $-1 $-1 $22 $6 #
transform $-1 1 0 0 0 1 0 0 0 1 -102.16190618525476 68.32426733593401 76 1 no_rotate no_reflect no_shear #
rgb_color-st-attrib $-1 $23 $-1 $7 1 0.5 1 #
lump $-1 $-1 $24 $7 #
transform $-1 1 0 0 0 1 0 0 0 1 -102.16190618525476 68.32426733593401 76 1 no_rotate no_reflect no_shear #
face $25 $26 $27 $9 $-1 $28 forward single #
shell $-1 $-1 $-1 $29 $-1 $11 #
model_id-kcp-attrib $-1 $-1 $13 $6 1 990564512 230 -1327103997 1 #
shell $-1 $-1 $-1 $30 $-1 $14 #
model_id-kcp-attrib $-1 $-1 $16 $7 1 990564512 440 -1330118652 1 #
shell $-1 $-1 $-1 $31 $-1 $17 #
model_id-kcp-attrib $-1 $-1 $-1 $19 1 990564512 70 -1337589759 2 #
face $32 $33 $34 $9 $-1 $35 forward single #
loop $-1 $-1 $36 $19 #
plane-surface $-1 121.90177384639701 40.305668212095199 -68 6.12303176911189e-017 0 1 0.81280087096173104 0.58254162440451596 -4.9768055548604902e-017 forward_v I I I I #
face $37 $38 $39 $20 $-1 $40 forward single #
face $-1 $41 $42 $22 $-1 $43 reversed single #
face $-1 $44 $45 $24 $-1 $46 reversed single #
model_id-kcp-attrib $-1 $47 $-1 $26 1 990564512 70 -1337589759 3 #
face $48 $49 $50 $9 $-1 $51 forward single #
loop $-1 $-1 $52 $26 #
cone-surface $-1 0 0 0 0 0 1 3 0 0 1 I I 0 1 3 forward I I I I #
coedge $-1 $53 $54 $55 $56 forward $27 $-1 #
model_id-kcp-attrib $-1 $-1 $-1 $29 1 990564512 70 -1337589758 2 #
face $57 $58 $59 $20 $-1 $60 reversed single #
loop $-1 $-1 $61 $29 #
plane-surface $-1 0 0 16 0 0 1 1 0 0 forward_v I I I I #
face $-1 $62 $63 $22 $-1 $64 forward single #
loop $-1 $-1 $65 $30 #
plane-surface $-1 21.16190618525458 24.999541876767022 -6.2051526759220835e-015 1 -2.2204460492503123e-015 6.1230317691118863e-017 2.2204460492503123e-015 1 0 forward_v I I I I #
face $-1 $66 $67 $24 $-1 $68 forward single #
loop $-1 $-1 $69 $31 #
plane-surface $-1 -2.4510175091299446 22.451406308076415 -8.8817841970012523e-015 1 2.1361592940542585e-014 8.6995087750467065e-017 8.6995087750467065e-017 0 -1 forward_v I I I I #
face-st-attrib $-1 $-1 $32 $26 26 1 31 nc.free_edge_condition_distance #
model_id-kcp-attrib $-1 $70 $-1 $33 1 990564512 70 -1337589759 4 #
face $71 $72 $73 $9 $-1 $74 forward single #
loop $-1 $-1 $75 $33 #
cone-surface $-1 -28.913240488761399 0 1.4210854715202001e-014 6.12303176911189e-017 0 1 25.913240488761399 -1.59204437811553e-015 -1.58667594753322e-015 1 I I 6.12303176911189e-017 -1 25.913240488761399 forward I I I I #
coedge $-1 $76 $77 $78 $79 reversed $34 $-1 #
coedge $-1 $80 $36 $81 $82 forward $27 $-1 #
coedge $-1 $36 $83 $84 $85 forward $27 $-1 #
coedge $-1 $86 $87 $36 $56 reversed $88 $-1 #
edge $89 $90 -3.1415926535898051 $91 1.9046492778013518e-014 $55 $92 forward 7 unknown #
model_id-kcp-attrib $-1 $-1 $-1 $38 1 990564512 70 -1337589758 3 #
face $-1 $93 $94 $20 $-1 $95 reversed single #
loop $-1 $-1 $96 $38 #
plane-surface $-1 0 0 -16 0 0 1 1 0 0 forward_v I I I I #
coedge $-1 $97 $98 $99 $100 forward $39 $-1 #
face $-1 $101 $102 $22 $-1 $103 forward single #
loop $-1 $-1 $104 $41 #
plane-surface $-1 0 0 16 0 0 1 1 0 0 forward_v I I I I #
coedge $-1 $105 $106 $107 $108 forward $42 $-1 #
face $-1 $109 $110 $24 $-1 $111 forward single #
loop $-1 $-1 $112 $44 #
plane-surface $-1 21.161906185254594 34.675732664066061 16 2.2204460492503123e-015 1 0 -1 2.2204460492503123e-015 -6.1230317691118863e-017 forward_v I I I I #
coedge $-1 $113 $114 $115 $116 forward $45 $-1 #
face-st-attrib $-1 $-1 $48 $33 33 1 31 nc.free_edge_condition_distance #
model_id-kcp-attrib $-1 $117 $-1 $49 1 990564512 70 -1337589759 5 #
face $118 $119 $120 $9 $-1 $121 forward single #
loop $-1 $-1 $122 $49 #
cone-surface $-1 -28.913240488761399 0 1.4210854715202001e-014 6.12303176911189e-017 0 1 31.913240488761399 -1.96066930068497e-015 -1.9540578536799399e-015 1 I I -6.12303176911189e-017 1 31.913240488761399 forward I I I I #
coedge $-1 $123 $124 $125 $126 reversed $50 $-1 #
coedge $-1 $127 $52 $124 $128 reversed $34 $-1 #
coedge $-1 $52 $127 $129 $130 forward $34 $-1 #
coedge $-1 $131 $125 $52 $79 forward $27 $-1 #
edge $132 $133 -3.1415926535897931 $134 0 $52 $135 forward 7 unknown #
coedge $-1 $136 $53 $137 $138 forward $27 $-1 #
coedge $-1 $139 $140 $53 $82 reversed $141 $-1 #
edge $142 $91 -56.67619078729885 $143 -43.32380921270088 $81 $144 forward 7 unknown #
coedge $-1 $54 $145 $146 $147 forward $27 $-1 #
coedge $-1 $148 $149 $54 $85 reversed $150 $-1 #
edge $151 $152 43.323809212700887 $90 56.67619078729885 $84 $153 forward 7 unknown #
coedge $-1 $154 $55 $149 $155 reversed $88 $-1 #
coedge $-1 $55 $154 $139 $156 forward $88 $-1 #
loop $-1 $-1 $55 $157 #
attrib_edge_convexity-kcp-attrib $-1 $158 $-1 $56 1 #
vertex $-1 $155 $159 #
vertex $-1 $156 $160 #
ellipse-curve $-1 -4.6276617548399201 72.652258858288903 -68 6.12303176911189e-017 0 1 -2.4384026128851999 -1.74762487321354 3.32995119719172e-016 1 I I #
face $-1 $161 $162 $20 $-1 $163 reversed single #
loop $-1 $-1 $164 $58 #
plane-surface $-1 0 -37.292872264500588 0 0 1 0 0 0 1 forward_v I I I I #
coedge $-1 $165 $166 $167 $168 forward $59 $-1 #
coedge $-1 $169 $61 $170 $171 forward $39 $-1 #
coedge $-1 $61 $169 $172 $173 forward $39 $-1 #
coedge $-1 $174 $175 $61 $100 reversed $176 $-1 #
edge $-1 $177 -37.292872264500588 $178 37.292872264500588 $99 $179 forward 7 unknown #
face $-1 $180 $181 $22 $-1 $182 forward single #
loop $-1 $-1 $107 $62 #
plane-surface $-1 21.161906185254452 -33.071892209147506 -16 -2.2204460492503123e-015 -1 2.2204460492503131e-016 1 -2.2204460492503123e-015 6.1230317691118863e-017 forward_v I I I I #
coedge $-1 $183 $184 $105 $185 reversed $63 $-1 #
coedge $-1 $186 $65 $104 $185 forward $42 $-1 #
coedge $-1 $65 $186 $187 $188 forward $42 $-1 #
coedge $-1 $189 $190 $65 $108 reversed $102 $-1 #
edge $191 $192 -8.0000000000000036 $193 23.999999999999996 $107 $194 forward 7 unknown #
face $-1 $195 $196 $24 $-1 $197 reversed single #
loop $-1 $-1 $198 $66 #
plane-surface $-1 0 0 16 0 0 1 1 0 0 forward_v I I I I #
coedge $-1 $199 $200 $114 $201 reversed $67 $-1 #
coedge $-1 $202 $69 $203 $204 forward $45 $-1 #
coedge $-1 $69 $202 $112 $201 forward $45 $-1 #
coedge $-1 $205 $206 $69 $116 reversed $207 $-1 #
edge $-1 $208 -23.450029510027946 $209 0.99862320195155085 $115 $210 forward 7 unknown #
face-st-attrib $-1 $-1 $71 $49 49 1 31 nc.free_edge_condition_distance #
model_id-kcp-attrib $-1 $211 $-1 $72 1 990564512 70 -1337589759 6 #
face $212 $213 $214 $9 $-1 $215 forward single #
loop $-1 $-1 $216 $72 #
cone-surface $-1 43.545930500294098 33.028046625108701 1.4210854715202001e-014 -6.12303176911189e-017 -6.1629758220391499e-033 -1 -48.879923978510099 -22.2802494999262 2.9929332739219101e-015 1 I I -6.12303176911189e-017 1 53.718306804327781 forward I I I I #
coedge $-1 $129 $217 $131 $218 reversed $73 $-1 #
coedge $-1 $219 $75 $220 $221 forward $50 $-1 #
coedge $-1 $75 $219 $76 $128 forward $50 $-1 #
coedge $-1 $78 $222 $75 $126 forward $27 $-1 #
edge $223 $224 -0.42767994262708675 $133 -6.1437487094908156e-017 $75 $225 forward 7 unknown #
coedge $-1 $77 $76 $226 $227 reversed $34 $-1 #
edge $-1 $228 -100.00000000000001 $133 -68.000000000000014 $76 $229 forward 7 unknown #
coedge $-1 $230 $122 $77 $130 reversed $73 $-1 #
edge $-1 $231 -100 $134 -68 $77 $232 forward 7 unknown #
coedge $-1 $233 $78 $122 $218 forward $27 $-1 #
attrib_edge_convexity-kcp-attrib $-1 $234 $-1 $79 1 #
vertex $-1 $128 $235 #
vertex $-1 $130 $236 #
ellipse-curve $-1 0 0 -68 6.12303176911189e-017 0 1 3 0 0 1 I I #
coedge $-1 $237 $80 $238 $239 forward $27 $-1 #
coedge $-1 $240 $241 $80 $138 reversed $242 $-1 #
edge $243 $143 -1.4294212361175194 $244 -7.2164496600636453e-015 $137 $245 forward 7 unknown #
coedge $-1 $246 $81 $87 $156 reversed $141 $-1 #
coedge $-1 $81 $246 $240 $247 reversed $141 $-1 #
loop $-1 $-1 $81 $248 #
attrib_edge_convexity-kcp-attrib $-1 $249 $-1 $82 1 #
vertex $-1 $82 $250 #
straight-curve $-1 25.9501758785681 24.838176750365498 -68 0.58254162440451396 -0.81280087096173204 -3.5669208730588903e-017 I I #
coedge $-1 $83 $251 $252 $253 forward $27 $-1 #
coedge $-1 $254 $255 $83 $147 reversed $256 $-1 #
edge $257 $258 4.4227660083026922e-015 $152 1.4294212361175211 $146 $259 forward 7 unknown #
coedge $-1 $260 $84 $255 $261 reversed $150 $-1 #
coedge $-1 $84 $260 $86 $155 forward $150 $-1 #
loop $-1 $-1 $84 $262 #
attrib_edge_convexity-kcp-attrib $-1 $263 $-1 $85 1 #
vertex $-1 $261 $264 #
straight-curve $-1 30.8269811043385 28.333426496792601 -68 -0.58254162440451396 0.81280087096173204 3.5669208730588903e-017 I I #
coedge $-1 $87 $86 $265 $266 reversed $88 $-1 #
edge $267 $268 -200 $90 -168 $149 $269 forward 7 unknown #
edge $-1 $270 0 $91 32 $139 $271 reversed 7 unknown #
face $272 $273 $88 $9 $-1 $274 forward single #
convexity-sys-attrib $-1 $-1 $89 $56 #
point $-1 -2.1892591419547198 74.399883731502399 -68 #
point $-1 -7.0660643677251196 70.904633985075293 -68 #
face $-1 $275 $276 $20 $-1 $277 reversed single #
loop $-1 $-1 $278 $93 #
plane-surface $-1 -30.343869125127611 0 0 1 0 0 0 0 -1 forward_v I I I I #
coedge $-1 $279 $172 $280 $281 forward $94 $-1 #
coedge $-1 $282 $96 $279 $283 forward $59 $-1 #
coedge $-1 $96 $282 $284 $285 forward $59 $-1 #
coedge $-1 $175 $174 $96 $168 reversed $176 $-1 #
edge $-1 $286 -37.292872264500588 $287 37.292872264500588 $167 $288 forward 7 unknown #
coedge $-1 $98 $97 $289 $290 forward $39 $-1 #
coedge $-1 $291 $292 $97 $171 reversed $276 $-1 #
edge $-1 $178 -30.343869125127611 $293 30.343869125127611 $170 $294 forward 7 unknown #
coedge $-1 $164 $295 $98 $173 reversed $94 $-1 #
edge $-1 $296 -30.343869125127611 $177 30.343869125127611 $172 $297 forward 7 unknown #
coedge $-1 $167 $99 $295 $298 forward $176 $-1 #
coedge $-1 $99 $167 $291 $299 reversed $176 $-1 #
loop $-1 $-1 $174 $275 #
vertex $-1 $100 $300 #
vertex $-1 $100 $301 #
straight-curve $-1 30.343869125127611 0 16 0 1 0 I I #
face $-1 $302 $303 $22 $-1 $304 reversed single #
loop $-1 $-1 $305 $101 #
plane-surface $-1 21.161906185254594 34.675732664066061 16 2.2204460492503123e-015 1 0 -1 2.2204460492503123e-015 -6.1230317691118863e-017 forward_v I I I I #
coedge $-1 $306 $104 $190 $307 forward $63 $-1 #
coedge $-1 $104 $306 $308 $309 forward $63 $-1 #
edge $310 $193 -45.571663147530984 $311 22.17596172568258 $104 $312 forward 7 unknown #
coedge $-1 $106 $105 $305 $313 forward $42 $-1 #
coedge $-1 $314 $315 $106 $188 reversed $303 $-1 #
edge $316 $317 -22.17596172568258 $192 45.571663147530984 $187 $318 forward 7 unknown #
coedge $-1 $319 $107 $315 $320 reversed $102 $-1 #
coedge $-1 $107 $319 $183 $307 reversed $102 $-1 #
convexity-sys-attrib $-1 $-1 $-1 $108 #
vertex $-1 $108 $321 #
vertex $-1 $307 $322 #
straight-curve $-1 21.161906185254452 -33.071892209147506 -7.9999999999999973 -6.123031769111837e-017 2.2204460492503146e-016 1 I I #
face $323 $324 $325 $24 $-1 $326 reversed single #
loop $-1 $-1 $203 $109 #
plane-surface $-1 7.161906185254594 10.227079952086559 -16 2.2204460492503123e-015 1 -1.5543122344752192e-015 -1 2.2204460492503123e-015 -6.1230317691118863e-017 forward_v I I I I #
coedge $-1 $327 $328 $202 $329 reversed $110 $-1 #
coedge $-1 $330 $112 $328 $331 reversed $67 $-1 #
coedge $-1 $112 $330 $205 $332 reversed $67 $-1 #
edge $-1 $333 -8.0000000000000053 $208 23.999999999999993 $112 $334 forward 7 unknown #
coedge $-1 $114 $113 $198 $329 forward $45 $-1 #
coedge $-1 $335 $336 $113 $204 reversed $196 $-1 #
edge $-1 $209 -8.0000000000000071 $337 23.999999999999993 $203 $338 forward 7 unknown #
coedge $-1 $339 $115 $200 $332 forward $207 $-1 #
coedge $-1 $115 $340 $335 $341 forward $207 $-1 #
loop $-1 $-1 $115 $324 #
vertex $-1 $332 $342 #
vertex $-1 $204 $343 #
straight-curve $-1 -2.4510175091297031 11.225703154038181 -16 2.1361592940542585e-014 -1 0 I I #
face-st-attrib $-1 $-1 $118 $72 72 1 31 nc.free_edge_condition_distance #
model_id-kcp-attrib $-1 $344 $-1 $119 1 990564512 70 -1337589759 7 #
face $345 $346 $347 $9 $-1 $348 forward single #
loop $-1 $-1 $349 $119 #
cone-surface $-1 43.545930500294098 33.028046625108701 1.4210854715202001e-014 -6.12303176911189e-017 -6.1629758220391499e-033 -1 -43.420341178565401 -19.7916845217615 2.6586412846203298e-015 1 I I 6.12303176911189e-017 -1 47.718306804327788 forward I I I I #
coedge $-1 $350 $220 $222 $351 reversed $120 $-1 #
coedge $-1 $122 $230 $352 $353 reversed $73 $-1 #
edge $354 $134 6.1437487094907885e-017 $355 0.42767994262708592 $122 $356 forward 7 unknown #
coedge $-1 $124 $123 $357 $358 reversed $50 $-1 #
coedge $-1 $216 $359 $123 $221 reversed $120 $-1 #
edge $-1 $224 -32 $360 -5.3881208427785898e-032 $123 $361 forward 7 unknown #
coedge $-1 $125 $237 $216 $351 forward $27 $-1 #
attrib_edge_convexity-kcp-attrib $-1 $362 $-1 $126 1 #
vertex $-1 $351 $363 #
ellipse-curve $-1 -28.913240488761399 0 -68 -6.12303176911189e-017 0 -1 25.913240488761399 -1.59204437811553e-015 -1.58667594753322e-015 1 I I #
coedge $-1 $357 $364 $127 $227 forward $365 $-1 #
edge $-1 $231 0 $228 3.1415926535897909 $226 $366 forward 7 unknown #
vertex $-1 $358 $367 #
straight-curve $-1 -3 0 1.4210854715202001e-014 6.12303176911189e-017 0 1 I I #
coedge $-1 $217 $129 $364 $368 forward $73 $-1 #
vertex $-1 $130 $369 #
straight-curve $-1 3 0 0 0 0 1 I I #
coedge $-1 $251 $131 $349 $370 forward $27 $-1 #
convexity-sys-attrib $-1 $-1 $132 $79 #
point $-1 -3 0 -68 #
point $-1 3 0 -68 #
coedge $-1 $222 $136 $371 $372 forward $27 $-1 #
coedge $-1 $373 $374 $136 $239 reversed $375 $-1 #
edge $376 $244 -0.26645978120281683 $377 1.9334493405246507e-016 $238 $378 forward 7 unknown #
coedge $-1 $379 $137 $140 $247 forward $242 $-1 #
coedge $-1 $137 $379 $373 $380 forward $242 $-1 #
loop $-1 $-1 $137 $381 #
attrib_edge_convexity-kcp-attrib $-1 $382 $-1 $138 1 #
vertex $-1 $380 $383 #
ellipse-curve $-1 -5.7901532832837104 55.391473616592599 -68 -6.12303176911189e-017 0 -1 5.5300568483577299 -5.7808711500890002 -3.3860713767489102e-016 1 I I #
coedge $-1 $140 $139 $384 $385 reversed $141 $-1 #
edge $-1 $143 -32 $386 2.2906201220834778e-032 $240 $387 forward 7 unknown #
face $388 $262 $141 $9 $-1 $389 forward single #
convexity-sys-attrib $-1 $-1 $142 $82 #
point $-1 0.71225368441010795 60.051806611828702 -68 #
coedge $-1 $145 $233 $390 $391 forward $27 $-1 #
coedge $-1 $392 $393 $145 $253 reversed $394 $-1 #
edge $395 $396 -7.8949179495177438e-016 $258 0.26645978120281738 $252 $397 forward 7 unknown #
coedge $-1 $398 $146 $393 $399 reversed $256 $-1 #
coedge $-1 $146 $398 $148 $261 forward $256 $-1 #
loop $-1 $-1 $146 $400 #
attrib_edge_convexity-kcp-attrib $-1 $401 $-1 $147 1 #
vertex $-1 $399 $402 #
ellipse-curve $-1 -5.7901532832837104 55.391473616592599 -68 6.12303176911189e-017 0 1 9.6775994846260396 -10.116524512655801 -5.9256249093106103e-016 1 I I #
coedge $-1 $149 $148 $403 $404 forward $150 $-1 #
edge $405 $406 -200 $152 -168 $255 $407 forward 7 unknown #
face $408 $157 $150 $9 $-1 $409 forward single #
convexity-sys-attrib $-1 $-1 $151 $85 #
point $-1 5.5890589101805004 63.547056358255801 -68 #
coedge $-1 $403 $384 $154 $266 forward $365 $-1 #
edge $-1 $270 -1.9046492778013518e-014 $268 3.1415926535898051 $265 $410 forward 7 unknown #
attrib_edge_convexity-kcp-attrib $-1 $411 $-1 $155 3 #
vertex $-1 $404 $412 #
straight-curve $-1 -2.1892591419547198 74.399883731502399 100 1.14622621425139e-017 -3.5669208730588798e-017 1 I I #
vertex $-1 $156 $413 #
straight-curve $-1 -7.0660643677251196 70.904633985075293 -100 -1.14622621425139e-017 3.5669208730588798e-017 -1 I I #
model_id-kcp-attrib $-1 $414 $-1 $157 1 990564512 70 -1337589759 16 #
face $415 $-1 $365 $9 $-1 $416 forward single #
cone-surface $-1 -4.6276617548399104 72.652258858288903 0 1.1099837323972401e-016 3.5669208730588798e-017 1 -2.4384026128851999 -1.74762487321354 3.32995119719172e-016 1 I I 0 1 3.0000000000000022 forward I I I I #
face $-1 $-1 $176 $20 $-1 $417 reversed single #
loop $-1 $-1 $291 $161 #
plane-surface $-1 0 37.292872264500588 0 0 -1 0 0 0 -1 forward_v I I I I #
coedge $-1 $418 $289 $292 $419 forward $162 $-1 #
coedge $-1 $295 $164 $165 $283 reversed $94 $-1 #
coedge $-1 $289 $418 $164 $281 reversed $162 $-1 #
edge $-1 $296 -16 $420 16 $280 $421 forward 7 unknown #
coedge $-1 $166 $165 $418 $422 forward $59 $-1 #
edge $-1 $287 -30.343869125127611 $420 30.343869125127611 $279 $423 forward 7 unknown #
coedge $-1 $292 $291 $166 $285 reversed $276 $-1 #
edge $-1 $424 -30.343869125127611 $286 30.343869125127611 $284 $425 forward 7 unknown #
vertex $-1 $168 $426 #
vertex $-1 $298 $427 #
straight-curve $-1 30.343869125127611 0 -16 0 -1 0 I I #
coedge $-1 $278 $280 $169 $290 reversed $162 $-1 #
edge $-1 $293 -37.292872264500588 $296 37.292872264500588 $289 $428 forward 7 unknown #
coedge $-1 $284 $170 $175 $299 forward $276 $-1 #
coedge $-1 $170 $284 $278 $419 reversed $276 $-1 #
vertex $-1 $171 $429 #
straight-curve $-1 0 37.292872264500588 16 -1 0 0 I I #
coedge $-1 $172 $279 $174 $298 reversed $94 $-1 #
vertex $-1 $290 $430 #
straight-curve $-1 0 -37.292872264500588 16 1 0 0 I I #
edge $-1 $177 -16 $287 16 $174 $431 forward 7 unknown #
edge $-1 $178 -16 $286 16 $175 $432 forward 7 unknown #
point $-1 30.343869125127611 -37.292872264500588 16 #
point $-1 30.343869125127611 37.292872264500588 16 #
face $-1 $-1 $433 $22 $-1 $434 reversed single #
loop $-1 $-1 $187 $180 #
plane-surface $-1 0 0 -16 0 0 1 1 0 0 forward_v I I I I #
coedge $-1 $308 $435 $186 $313 reversed $181 $-1 #
coedge $-1 $184 $183 $436 $437 forward $63 $-1 #
edge $-1 $193 10.580953092627263 $438 19.762916032500421 $183 $439 forward 7 unknown #
coedge $-1 $440 $305 $184 $309 reversed $181 $-1 #
edge $-1 $441 -19.762916032500275 $311 -10.580953092627265 $184 $442 forward 7 unknown #
convexity-sys-attrib $-1 $-1 $-1 $185 #
vertex $-1 $185 $443 #
straight-curve $-1 21.161906185254551 12.499770938383488 16 2.2204460492503123e-015 1 0 I I #
edge $444 $311 -8.0000000000000036 $317 23.999999999999996 $305 $445 forward 7 unknown #
coedge $-1 $446 $187 $435 $447 forward $303 $-1 #
coedge $-1 $187 $446 $189 $320 forward $303 $-1 #
convexity-sys-attrib $-1 $-1 $-1 $188 #
vertex $-1 $447 $448 #
straight-curve $-1 21.161906185254551 12.499770938383488 -16 -2.2204460492503123e-015 -1 0 I I #
coedge $-1 $190 $189 $449 $450 reversed $102 $-1 #
edge $-1 $451 -19.762916032500421 $192 -10.580953092627263 $315 $452 forward 7 unknown #
point $-1 21.161906185254452 -33.071892209147499 -16 #
point $-1 21.161906185254452 -33.071892209147499 16 #
face-st-attrib $-1 $-1 $-1 $195 195 1 31 nc.free_edge_condition_distance #
face $-1 $453 $207 $24 $-1 $454 reversed single #
loop $-1 $-1 $455 $195 #
cone-surface $-1 14.207137568221839 -31.177810710254988 84.000000000000014 -2.4651903288156619e-032 7.3955709864469857e-032 -1 -16.658155077352262 38.55523473432487 1.1832913578315177e-030 1 I I -6.12303176911189e-017 1 42.00000304761901 forward I I I I #
coedge $-1 $456 $198 $336 $457 forward $110 $-1 #
coedge $-1 $198 $458 $199 $331 forward $110 $-1 #
edge $-1 $337 -0.99862320195149401 $333 23.450029510027946 $198 $459 forward 7 unknown #
coedge $-1 $200 $199 $460 $461 reversed $67 $-1 #
edge $-1 $462 -4.580953092627265 $333 13.031970601757454 $328 $463 forward 7 unknown #
edge $-1 $208 -13.031970601757452 $464 4.580953092627265 $205 $465 forward 7 unknown #
vertex $-1 $329 $466 #
straight-curve $-1 -2.4510175091302058 34.675732664066111 7.9999999999999947 8.6995087750467065e-017 -1.9316789889970884e-031 -1 I I #
coedge $-1 $467 $203 $206 $341 reversed $196 $-1 #
coedge $-1 $203 $467 $327 $457 reversed $196 $-1 #
vertex $-1 $457 $468 #
straight-curve $-1 -2.4510175091296822 10.227079952086592 -7.9999999999999938 -8.6995087750500271e-017 1.5543122344752194e-015 1 I I #
coedge $-1 $469 $205 $470 $471 reversed $207 $-1 #
coedge $-1 $206 $469 $472 $473 forward $207 $-1 #
edge $-1 $474 -3.5809530926272695 $209 6.0319706017574779 $206 $475 forward 7 unknown #
point $-1 -2.4510175091301161 34.675732664066125 -16 #
point $-1 -2.4510175091301694 10.22707995208663 -16 #
face-st-attrib $-1 $-1 $212 $119 119 1 31 nc.free_edge_condition_distance #
model_id-kcp-attrib $-1 $476 $-1 $213 1 990564512 70 -1337589759 8 #
face $477 $478 $479 $9 $-1 $480 forward single #
loop $-1 $-1 $371 $213 #
cone-surface $-1 9.9156689628598293 30.5929444353585 9.9475983006414001e-014 -6.12303176911189e-017 3.8518598887744703e-033 -1 -19.947775985665999 -1.4443798758225601 1.2214086608336001e-015 1 I I -6.12303176911189e-017 1 19.999999999999858 forward I I I I #
coedge $-1 $352 $481 $233 $370 reversed $214 $-1 #
coedge $-1 $359 $216 $482 $483 forward $120 $-1 #
edge $484 $485 -0.35539802367747292 $224 0 $216 $486 forward 7 unknown #
coedge $-1 $487 $349 $217 $353 forward $214 $-1 #
edge $-1 $355 168 $488 200 $217 $489 reversed 7 unknown #
attrib_edge_convexity-kcp-attrib $-1 $490 $-1 $218 1 #
vertex $-1 $370 $491 #
ellipse-curve $-1 -28.913240488761399 0 -68 6.12303176911189e-017 0 1 31.913240488761399 -1.96066930068497e-015 -1.9540578536799399e-015 1 I I #
coedge $-1 $492 $226 $219 $358 forward $365 $-1 #
edge $-1 $228 -2.1276316182364881e-016 $360 0.42767994262708658 $357 $493 forward 7 unknown #
coedge $-1 $220 $350 $492 $494 reversed $120 $-1 #
vertex $-1 $494 $495 #
straight-curve $-1 -5.3339934782162199 10.7477971251824 -100 -5.51498614085565e-018 2.53959373680041e-017 -1 I I #
convexity-sys-attrib $-1 $-1 $223 $126 #
point $-1 -5.3339934782162199 10.7477971251824 -68 #
coedge $-1 $226 $496 $230 $368 reversed $365 $-1 #
loop $-1 $-1 $403 $273 #
ellipse-curve $-1 0 0 -100 0 0 -1 3 0 0 1 I I #
point $-1 -3 -7.1054273576010003e-015 -100 #
edge $-1 $231 6.1437487094908181e-017 $488 0.42767994262708586 $230 $497 forward 7 unknown #
point $-1 3 0 -100 #
edge $498 $355 2.2966666702018396e-015 $499 0.35539802367747331 $349 $500 forward 7 unknown #
coedge $-1 $501 $482 $237 $372 reversed $347 $-1 #
edge $502 $377 -0.61339117913732877 $485 5.2402526762307001e-016 $371 $503 forward 7 unknown #
coedge $-1 $504 $238 $241 $380 reversed $375 $-1 #
coedge $-1 $238 $504 $501 $505 reversed $375 $-1 #
loop $-1 $-1 $238 $478 #
attrib_edge_convexity-kcp-attrib $-1 $506 $-1 $239 1 #
vertex $-1 $239 $507 #
ellipse-curve $-1 28.772704125640399 19.261026726299601 -68 6.12303176911189e-017 0 1 -35.999792026918499 21.633659653850099 2.2042787026224299e-015 1 I I #
coedge $-1 $241 $240 $508 $509 reversed $242 $-1 #
edge $-1 $510 -4.2880358878937404e-030 $244 32 $373 $511 reversed 7 unknown #
face $512 $400 $242 $9 $-1 $513 forward single #
convexity-sys-attrib $-1 $-1 $243 $138 #
point $-1 -0.26009643492599699 49.6106024665037 -68 #
coedge $-1 $265 $508 $246 $385 forward $365 $-1 #
edge $-1 $386 -1.7462280353843647e-015 $270 13.352381574597963 $384 $514 forward 7 unknown #
vertex $-1 $385 $515 #
straight-curve $-1 0.71225368441010795 60.051806611828702 -100 -1.14622621425139e-017 3.5669208730588903e-017 -1 I I #
model_id-kcp-attrib $-1 $516 $-1 $248 1 990564512 70 -1337589759 14 #
plane-surface $-1 0.71225368441010495 60.051806611828702 100 -0.81280087096173204 -0.58254162440451396 -1.14622621425139e-017 -1.4102177485306313e-017 0 1 forward_v I I I I #
coedge $-1 $517 $518 $251 $391 reversed $479 $-1 #
edge $519 $499 8.6280189342296421e-015 $396 0.61339117913732766 $390 $520 forward 7 unknown #
coedge $-1 $521 $252 $518 $522 forward $394 $-1 #
coedge $-1 $252 $521 $254 $399 forward $394 $-1 #
loop $-1 $-1 $252 $523 #
attrib_edge_convexity-kcp-attrib $-1 $524 $-1 $253 1 #
vertex $-1 $253 $525 #
ellipse-curve $-1 28.772704125640399 19.261026726299601 -68 -6.12303176911189e-017 0 -1 -30.8569649676772 18.543137070412801 1.8893817679546001e-015 1 I I #
coedge $-1 $255 $254 $526 $527 forward $256 $-1 #
edge $-1 $528 -200 $258 -168 $393 $529 forward 7 unknown #
face $530 $248 $256 $9 $-1 $531 forward single #
convexity-sys-attrib $-1 $-1 $257 $147 #
point $-1 3.8874462013423199 45.274949103936898 -68 #
coedge $-1 $526 $265 $260 $404 reversed $365 $-1 #
edge $532 $406 6.2088107924777418e-015 $268 13.352381574597967 $260 $533 forward 7 unknown #
attrib_edge_convexity-kcp-attrib $-1 $534 $-1 $261 3 #
vertex $-1 $261 $535 #
straight-curve $-1 5.5890589101805004 63.547056358255801 100 1.14622621425139e-017 -3.5669208730588903e-017 1 I I #
model_id-kcp-attrib $-1 $536 $-1 $262 1 990564512 70 -1337589759 15 #
plane-surface $-1 5.5890589101805004 63.547056358255801 -100 0.81280087096173204 0.58254162440451396 1.14622621425139e-017 1.4102177485306313e-017 0 -1 forward_v I I I I #
ellipse-curve $-1 -4.6276617548399201 72.652258858288903 -100 -1.1099837323972401e-016 -3.5669208730588798e-017 -1 -2.4384026128851999 -1.74762487321354 3.32995119719172e-016 1 I I #
convexity-sys-attrib $-1 $-1 $267 $155 #
point $-1 -2.1892591419547198 74.399883731502399 -100 #
point $-1 -7.0660643677251196 70.904633985075293 -100 #
face-st-attrib $-1 $-1 $272 $157 157 1 31 nc.free_edge_condition_distance #
model_id-kcp-attrib $-1 $537 $-1 $273 1 990564512 70 -1337589759 17 #
plane-surface $-1 0 0 -100 0 0 -1 -1 0 0 forward_v I I I I #
plane-surface $-1 30.343869125127611 0 0 -1 0 0 0 0 1 forward_v I I I I #
coedge $-1 $280 $278 $282 $422 reversed $162 $-1 #
edge $-1 $293 -16 $424 16 $292 $538 forward 7 unknown #
vertex $-1 $422 $539 #
straight-curve $-1 -30.343869125127611 -37.292872264500588 0 0 0 -1 I I #
edge $-1 $420 -37.292872264500588 $424 37.292872264500588 $418 $540 forward 7 unknown #
straight-curve $-1 0 -37.292872264500588 -16 -1 0 0 I I #
vertex $-1 $285 $541 #
straight-curve $-1 0 37.292872264500588 -16 1 0 0 I I #
point $-1 30.343869125127611 37.292872264500588 -16 #
point $-1 30.343869125127611 -37.292872264500588 -16 #
straight-curve $-1 -30.343869125127611 0 16 0 -1 0 I I #
point $-1 -30.343869125127611 37.292872264500588 16 #
point $-1 -30.343869125127611 -37.292872264500588 16 #
straight-curve $-1 30.343869125127611 -37.292872264500588 0 0 0 -1 I I #
straight-curve $-1 30.343869125127611 37.292872264500588 0 0 0 -1 I I #
loop $-1 $-1 $542 $302 #
plane-surface $-1 30.343869125127611 0 0 -1 0 0 0 0 1 forward_v I I I I #
coedge $-1 $305 $440 $314 $447 reversed $181 $-1 #
coedge $-1 $449 $542 $306 $437 reversed $433 $-1 #
edge $-1 $438 -33.071892209147521 $441 34.675732664066039 $436 $543 forward 7 unknown #
vertex $-1 $437 $544 #
straight-curve $-1 10.580953092627189 -33.071892209147478 16 1 -2.2204460492503123e-015 0 I I #
coedge $-1 $435 $308 $542 $545 reversed $181 $-1 #
vertex $-1 $545 $546 #
straight-curve $-1 10.580953092627336 34.675732664066089 16 -1 2.2204460492503123e-015 0 I I #
point $-1 21.161906185254601 34.675732664066068 16 #
convexity-sys-attrib $-1 $-1 $-1 $313 #
straight-curve $-1 21.161906185254601 34.675732664066061 7.9999999999999973 6.1230317691118863e-017 -1.3595861701158639e-031 -1 I I #
coedge $-1 $315 $314 $547 $548 forward $303 $-1 #
edge $-1 $317 10.580953092627265 $549 19.762916032500275 $314 $550 forward 7 unknown #
point $-1 21.161906185254601 34.675732664066068 -16 #
coedge $-1 $547 $436 $319 $450 forward $433 $-1 #
edge $-1 $438 -23.999999999999996 $451 8.0000000000000036 $449 $551 forward 7 unknown #
vertex $-1 $450 $552 #
straight-curve $-1 10.580953092627189 -33.071892209147478 -16 -1 2.2204460492503123e-015 0 I I #
face $553 $554 $555 $24 $-1 $556 reversed single #
plane-surface $-1 0 0 -16 0 0 1 1 0 0 forward_v I I I I #
coedge $-1 $472 $557 $467 $558 forward $325 $-1 #
coedge $-1 $559 $327 $557 $560 forward $110 $-1 #
edge $-1 $337 -6.0319706017571866 $561 3.5809530926275608 $327 $562 forward 7 unknown #
coedge $-1 $328 $559 $563 $564 reversed $110 $-1 #
straight-curve $-1 -2.4510175091297066 11.225703154038181 16 -2.1361592940542585e-014 1 0 I I #
coedge $-1 $563 $470 $330 $461 forward $565 $-1 #
edge $566 $464 -23.999999999999996 $462 8.0000000000000036 $330 $567 forward 7 unknown #
vertex $-1 $331 $568 #
straight-curve $-1 10.580953092627336 34.675732664066089 16 -1 2.2204460492503123e-015 0 I I #
vertex $-1 $461 $569 #
straight-curve $-1 10.580953092627336 34.675732664066089 -16 1 -2.2204460492503123e-015 0 I I #
point $-1 -2.4510175091301187 34.675732664066125 16 #
coedge $-1 $336 $335 $455 $558 reversed $196 $-1 #
point $-1 -2.451017509129878 10.227079952086687 16 #
coedge $-1 $340 $339 $570 $571 forward $207 $-1 #
coedge $-1 $460 $572 $339 $471 forward $565 $-1 #
edge $573 $574 5.8235801510845491 $464 22.175961725682598 $339 $575 forward 7 unknown #
coedge $-1 $576 $455 $340 $473 reversed $325 $-1 #
edge $-1 $577 -0.26645978120281533 $474 -0.23929448978568688 $340 $578 forward 7 unknown #
vertex $-1 $341 $579 #
straight-curve $-1 3.5809530926273085 10.227079952086566 -16 -1 2.2204460492503123e-015 0 I I #
face-st-attrib $-1 $-1 $345 $213 213 1 31 nc.free_edge_condition_distance #
model_id-kcp-attrib $-1 $580 $-1 $346 1 990564512 70 -1337589759 9 #
face $581 $523 $375 $9 $-1 $582 forward single #
loop $-1 $-1 $390 $346 #
cone-surface $-1 9.9156689628598293 30.5929444353585 9.9475983006414001e-014 -6.12303176911189e-017 3.8518598887744703e-033 -1 -13.963443189966201 -1.01106591307579 8.5498606258351999e-016 1 I I 6.12303176911189e-017 -1 13.999999999999902 forward I I I I #
coedge $-1 $349 $487 $517 $583 reversed $214 $-1 #
coedge $-1 $371 $584 $350 $483 reversed $347 $-1 #
edge $-1 $485 -32 $585 0 $350 $586 forward 7 unknown #
attrib_edge_convexity-kcp-attrib $-1 $587 $-1 $351 1 #
vertex $-1 $372 $588 #
ellipse-curve $-1 43.545930500294098 33.028046625108701 -68 6.12303176911189e-017 0 1 -48.879923978510099 -22.2802494999262 2.9929332739219101e-015 1 I I #
coedge $-1 $481 $352 $496 $589 forward $214 $-1 #
vertex $-1 $353 $590 #
straight-curve $-1 0.12558932172843801 13.236362103347201 100 5.51498614085565e-018 -2.53959373680041e-017 1 I I #
convexity-sys-attrib $-1 $-1 $354 $218 #
point $-1 0.12558932172843701 13.236362103347201 -68 #
coedge $-1 $591 $357 $359 $494 forward $365 $-1 #
ellipse-curve $-1 -28.913240488761399 0 -100 6.12303176911189e-017 0 1 25.913240488761399 -1.59204437811553e-015 -1.58667594753322e-015 1 I I #
edge $-1 $360 -7.8794436050288864e-017 $585 0.35539802367747292 $492 $592 forward 7 unknown #
point $-1 -5.3339934782162102 10.7477971251824 -100 #
coedge $-1 $364 $593 $487 $589 reversed $365 $-1 #
ellipse-curve $-1 -28.913240488761399 0 -100 6.12303176911189e-017 0 1 31.913240488761399 -1.9606693006849799e-015 -1.9540578536799399e-015 1 I I #
attrib_edge_convexity-kcp-attrib $-1 $594 $-1 $370 1 #
vertex $-1 $391 $595 #
ellipse-curve $-1 43.545930500294098 33.028046625108701 -68 -6.12303176911189e-017 0 -1 -43.420341178565401 -19.7916845217615 2.6586412846203298e-015 1 I I #
coedge $-1 $584 $371 $374 $505 forward $347 $-1 #
attrib_edge_convexity-kcp-attrib $-1 $596 $-1 $372 1 #
ellipse-curve $-1 9.9156689628598293 30.5929444353585 -68 6.12303176911189e-017 0 1 -19.947775985665999 -1.4443798758225601 1.2214086608336001e-015 1 I I #
coedge $-1 $374 $373 $597 $598 reversed $375 $-1 #
edge $-1 $377 -31.999999999999901 $599 9.9475983006414026e-014 $501 $600 forward 7 unknown #
convexity-sys-attrib $-1 $-1 $376 $239 #
point $-1 -7.2270879012776197 40.894686380149402 -68 #
coedge $-1 $384 $597 $379 $509 forward $365 $-1 #
edge $-1 $510 0 $386 1.4294212361175187 $508 $601 forward 7 unknown #
vertex $-1 $509 $602 #
straight-curve $-1 -0.26009643492599799 49.6106024665037 -100 -1.8904425481757399e-017 -4.42455721314219e-017 -1 I I #
model_id-kcp-attrib $-1 $603 $-1 $381 1 990564512 70 -1337589759 12 #
cone-surface $-1 -5.7901532832837104 55.391473616592599 1.4210854715202001e-014 6.12303176911189e-017 -6.1629758220391499e-033 1 5.5300568483577299 -5.7808711500890002 -3.3860713767489102e-016 1 I I 6.12303176911189e-017 -1 7.9999999999999716 forward I I I I #
straight-curve $-1 0.71225368441010295 60.051806611828702 -100 -0.58254162440451396 0.81280087096173204 3.5669208730588798e-017 I I #
point $-1 0.71225368441010595 60.051806611828702 -100 #
face-st-attrib $-1 $-1 $388 $248 248 1 31 nc.free_edge_condition_distance #
coedge $-1 $604 $390 $481 $583 forward $479 $-1 #
coedge $-1 $390 $604 $392 $522 reversed $479 $-1 #
attrib_edge_convexity-kcp-attrib $-1 $605 $-1 $391 1 #
ellipse-curve $-1 9.9156689628598293 30.5929444353585 -68 -6.12303176911189e-017 0 -1 -13.963443189966201 -1.01106591307579 8.5498606258351999e-016 1 I I #
coedge $-1 $393 $392 $606 $607 forward $394 $-1 #
edge $-1 $396 168 $608 200 $518 $609 reversed 7 unknown #
face $610 $381 $394 $9 $-1 $611 forward single #
convexity-sys-attrib $-1 $-1 $395 $253 #
point $-1 -2.0842608420363602 37.804163796712103 -68 #
coedge $-1 $606 $403 $398 $527 reversed $365 $-1 #
edge $-1 $528 4.4227660083026922e-015 $406 1.4294212361175211 $398 $612 forward 7 unknown #
vertex $-1 $399 $613 #
straight-curve $-1 3.8874462013423199 45.274949103936898 100 1.8904425481757399e-017 4.42455721314219e-017 1 I I #
model_id-kcp-attrib $-1 $614 $-1 $400 1 990564512 70 -1337589759 13 #
cone-surface $-1 -5.7901532832837104 55.391473616592599 1.4210854715202001e-014 6.12303176911189e-017 -6.1629758220391499e-033 1 9.6775994846260396 -10.116524512655801 -5.9256249093106103e-016 1 I I -6.12303176911189e-017 1 13.999999999999995 forward I I I I #
attrib_edge_convexity-kcp-attrib $-1 $615 $-1 $404 1 #
straight-curve $-1 5.5890589101805004 63.547056358255801 -100 -0.58254162440451396 0.81280087096173204 3.5669208730588798e-017 I I #
convexity-sys-attrib $-1 $-1 $405 $261 #
point $-1 5.5890589101804897 63.547056358255801 -100 #
face-st-attrib $-1 $-1 $408 $262 262 1 31 nc.free_edge_condition_distance #
face-st-attrib $-1 $-1 $415 $273 273 1 31 nc.free_edge_condition_distance #
straight-curve $-1 -30.343869125127611 37.292872264500588 0 0 0 -1 I I #
point $-1 -30.343869125127611 -37.292872264500588 -16 #
straight-curve $-1 -30.343869125127611 0 -16 0 1 0 I I #
point $-1 -30.343869125127611 37.292872264500588 -16 #
coedge $-1 $436 $547 $440 $545 forward $433 $-1 #
straight-curve $-1 30.343869125127611 0 16 0 1 0 I I #
point $-1 30.343869125127611 -33.071892209147521 16 #
edge $-1 $549 -24 $441 8 $542 $616 forward 7 unknown #
point $-1 30.343869125127611 34.675732664066039 16 #
coedge $-1 $542 $449 $446 $548 reversed $433 $-1 #
edge $-1 $549 -34.675732664066025 $451 33.071892209147528 $547 $617 forward 7 unknown #
vertex $-1 $548 $618 #
straight-curve $-1 10.580953092627336 34.675732664066089 -16 1 -2.2204460492503123e-015 0 I I #
straight-curve $-1 30.343869125127611 -33.071892209147528 -7.9999999999999964 0 -2.2204460492503131e-016 -1 I I #
point $-1 30.343869125127611 -33.071892209147528 -16 #
face-st-attrib $-1 $-1 $-1 $453 453 1 31 nc.free_edge_condition_distance #
face $-1 $-1 $565 $24 $-1 $619 reversed single #
loop $-1 $-1 $620 $453 #
cone-surface $-1 7.1619061852545798 18.323351089468041 84.000000000000014 2.1061713341620175e-032 -7.8964981980339369e-032 1 1.1272369525669999 -7.9201854052015133 4.9303806576313238e-031 1 I I 6.12303176911189e-017 -1 7.9999999999999716 forward I I I I #
coedge $-1 $455 $576 $456 $560 reversed $325 $-1 #
edge $-1 $561 68.000000000000014 $474 100.00000000000001 $455 $621 forward 7 unknown #
coedge $-1 $458 $456 $620 $622 forward $110 $-1 #
edge $-1 $561 0.23929448978569398 $623 0.26645978120281694 $456 $624 forward 7 unknown #
vertex $-1 $560 $625 #
straight-curve $-1 3.5809530926273085 10.227079952086616 16 1 -2.2204460492503123e-015 0 I I #
coedge $-1 $572 $460 $458 $564 forward $565 $-1 #
edge $626 $462 -22.175961725682598 $627 -5.8235801510845491 $458 $628 forward 7 unknown #
loop $-1 $-1 $572 $554 #
convexity-sys-attrib $-1 $-1 $-1 $461 #
straight-curve $-1 15.161906185254601 34.675732664066075 7.9999999999999956 -6.1230317691118863e-017 1.3595861701158639e-031 1 I I #
point $-1 15.161906185254601 34.675732664066082 16 #
point $-1 15.161906185254601 34.675732664066082 -16 #
coedge $-1 $629 $630 $469 $571 reversed $555 $-1 #
edge $-1 $574 -1.4294212361175185 $577 8.6042284408450164e-016 $469 $631 forward 7 unknown #
coedge $-1 $470 $563 $629 $632 forward $565 $-1 #
convexity-sys-attrib $-1 $-1 $-1 $471 #
vertex $-1 $471 $633 #
straight-curve $-1 15.161906185254551 12.499770938383485 -16 2.2204460492503123e-015 1 0 I I #
coedge $-1 $557 $472 $630 $634 forward $325 $-1 #
vertex $-1 $473 $635 #
ellipse-curve $-1 14.207137568221839 -31.177810710254988 -16 0 0 1 -16.658155077352259 38.555234734324863 1.1832913578315174e-030 1 I I #
point $-1 7.161906185254578 10.227079952086601 -16 #
face-st-attrib $-1 $-1 $477 $346 346 1 31 nc.free_edge_condition_distance #
model_id-kcp-attrib $-1 $636 $-1 $478 1 990564512 70 -1337589759 10 #
cone-surface $-1 28.772704125640399 19.261026726299601 1.4210854715202001e-014 -6.12303176911189e-017 0 -1 -35.999792026918499 21.633659653850099 2.2042787026224299e-015 1 I I -6.12303176911189e-017 1 42.00000304761901 forward I I I I #
edge $-1 $499 168 $637 200 $481 $638 reversed 7 unknown #
coedge $-1 $482 $501 $591 $639 reversed $347 $-1 #
vertex $-1 $639 $640 #
straight-curve $-1 -10.032107022806599 29.148564559535899 -100 -1.5988464943847299e-019 4.4219919331649802e-018 -1 I I #
convexity-sys-attrib $-1 $-1 $484 $351 #
point $-1 -10.032107022806599 29.148564559535899 -68 #
edge $-1 $488 2.1968115975843687e-015 $637 0.35539802367747325 $487 $641 forward 7 unknown #
point $-1 0.12558932172844101 13.236362103347201 -100 #
coedge $-1 $597 $492 $584 $639 forward $365 $-1 #
ellipse-curve $-1 43.545930500294098 33.028046625108701 -100 -6.12303176911189e-017 -6.1629758220391499e-033 -1 -48.879923978510099 -22.2802494999262 2.9929332739219101e-015 1 I I #
coedge $-1 $496 $606 $604 $642 reversed $365 $-1 #
convexity-sys-attrib $-1 $-1 $498 $370 #
point $-1 -4.0477742271068102 29.5818785222828 -68 #
convexity-sys-attrib $-1 $-1 $502 $372 #
coedge $-1 $508 $591 $504 $598 forward $365 $-1 #
edge $-1 $599 1.6756560951213653e-015 $510 0.26645978120281744 $597 $643 forward 7 unknown #
vertex $-1 $598 $644 #
straight-curve $-1 -7.2270879012776197 40.894686380149402 -99.999999999999901 -8.7474952464813494e-018 -3.1538946602573698e-017 -1 I I #
ellipse-curve $-1 -5.7901532832837201 55.391473616592599 -100 6.12303176911189e-017 -6.1629758220391499e-033 1 5.5300568483577299 -5.7808711500890002 -3.3860713767489102e-016 1 I I #
point $-1 -0.26009643492599199 49.6106024665036 -100 #
face-st-attrib $-1 $-1 $512 $381 381 1 31 nc.free_edge_condition_distance #
coedge $-1 $518 $517 $593 $642 forward $479 $-1 #
convexity-sys-attrib $-1 $-1 $519 $391 #
coedge $-1 $593 $526 $521 $607 reversed $365 $-1 #
edge $-1 $608 -7.8949179495177438e-016 $528 0.26645978120281716 $521 $645 forward 7 unknown #
vertex $-1 $522 $646 #
straight-curve $-1 -2.0842608420363602 37.804163796712103 100 8.7474952464813494e-018 3.1538946602573698e-017 1 I I #
model_id-kcp-attrib $-1 $647 $-1 $523 1 990564512 70 -1337589759 11 #
cone-surface $-1 28.772704125640399 19.261026726299601 1.4210854715202001e-014 -6.12303176911189e-017 0 -1 -30.8569649676772 18.543137070412801 1.8893817679546001e-015 1 I I 6.12303176911189e-017 -1 36.000003047618975 forward I I I I #
ellipse-curve $-1 -5.7901532832837201 55.391473616592599 -100 6.12303176911189e-017 -6.1629758220391499e-033 1 9.6775994846260396 -10.116524512655801 -5.9256249093106103e-016 1 I I #
point $-1 3.8874462013423101 45.274949103936898 -100 #
face-st-attrib $-1 $-1 $530 $400 400 1 31 nc.free_edge_condition_distance #
convexity-sys-attrib $-1 $-1 $532 $404 #
straight-curve $-1 30.343869125127611 34.675732664066039 8 0 0 1 I I #
straight-curve $-1 30.343869125127611 0 -16 0 -1 0 I I #
point $-1 30.343869125127611 34.675732664066025 -16 #
plane-surface $-1 15.16190618525458 24.999541876767001 -8.005702039279921e-015 -1 2.2204460492503123e-015 -6.1230317691118863e-017 -2.2204460492503123e-015 -1 0 forward_v I I I I #
coedge $-1 $630 $629 $559 $622 reversed $555 $-1 #
straight-curve $-1 7.161906185255277 10.227079952086713 84.000000000000014 1.0270993440104939e-017 -6.0362724410919856e-017 -1 I I #
edge $-1 $623 7.5772721430668086e-015 $627 1.4294212361175187 $559 $648 forward 7 unknown #
vertex $-1 $560 $649 #
ellipse-curve $-1 14.207137568221839 -31.177810710254988 16 0 0 -1 -16.658155077352259 38.555234734324863 1.1832913578315174e-030 1 I I #
point $-1 7.1619061852548693 10.227079952086658 16 #
convexity-sys-attrib $-1 $-1 $-1 $564 #
vertex $-1 $632 $650 #
straight-curve $-1 15.161906185254551 12.499770938383485 16 -2.2204460492503123e-015 -1 0 I I #
coedge $-1 $620 $570 $572 $632 reversed $555 $-1 #
coedge $-1 $570 $620 $576 $634 reversed $555 $-1 #
ellipse-curve $-1 7.1619061852545798 18.323351089468041 -16 0 0 -1 1.127236952567001 -7.9201854052015204 4.9303806576313282e-031 1 I I #
edge $651 $627 68.000000000000014 $574 100.00000000000001 $572 $652 forward 7 unknown #
point $-1 15.161906185254551 18.323351089468034 -16 #
edge $653 $577 -4.2475725515636694e-030 $623 32 $576 $654 reversed 7 unknown #
point $-1 8.2891431378215721 10.403165684266533 -16 #
face-st-attrib $-1 $-1 $581 $478 478 1 31 nc.free_edge_condition_distance #
vertex $-1 $583 $655 #
straight-curve $-1 -4.0477742271068102 29.5818785222828 100 1.5988464943847299e-019 -4.4219919331649802e-018 1 I I #
edge $-1 $585 -5.5955240441107505e-016 $599 0.61339117913732877 $591 $656 forward 7 unknown #
point $-1 -10.032107022806599 29.148564559535899 -100 #
ellipse-curve $-1 43.545930500294098 33.028046625108701 -100 -6.12303176911189e-017 -6.1629758220391499e-033 -1 -43.420341178565401 -19.7916845217615 2.6586412846203298e-015 1 I I #
edge $-1 $637 8.5283254381408674e-015 $608 0.6133911791373281 $604 $657 forward 7 unknown #
ellipse-curve $-1 28.772704125640399 19.261026726299601 -100 -6.12303176911189e-017 0 -1 -35.999792026918499 21.63365965385 2.2042787026224299e-015 1 I I #
point $-1 -7.2270879012776303 40.894686380149402 -100 #
ellipse-curve $-1 28.772704125640399 19.261026726299601 -100 -6.12303176911189e-017 0 -1 -30.8569649676772 18.543137070412801 1.8893817679546001e-015 1 I I #
point $-1 -2.0842608420363602 37.804163796712103 -100 #
face-st-attrib $-1 $-1 $610 $523 523 1 31 nc.free_edge_condition_distance #
ellipse-curve $-1 7.1619061852545798 18.323351089468041 16 0 0 1 1.1272369525670005 -7.9201854052015186 4.9303806576313273e-031 1 I I #
point $-1 8.2891431378216289 10.403165684266611 16 #
point $-1 15.161906185254551 18.323351089468034 16 #
convexity-sys-attrib $-1 $-1 $-1 $632 #
straight-curve $-1 15.16190618525456 18.323351089468023 84.000000000000014 6.1230317691118912e-017 -5.6993635031247566e-032 -1 I I #
convexity-sys-attrib $-1 $-1 $-1 $634 #
straight-curve $-1 8.2891431378216289 10.403165684266611 -16 8.6276345898556524e-018 -6.061943356663164e-017 -1 I I #
point $-1 -4.0477742271067996 29.5818785222828 -100 #
ellipse-curve $-1 9.9156689628598205 30.5929444353585 -100 -6.12303176911189e-017 3.8518598887744703e-033 -1 -19.947775985665999 -1.4443798758225601 1.2214086608336001e-015 1 I I #
ellipse-curve $-1 9.9156689628598205 30.5929444353585 -100 -6.12303176911189e-017 3.8518598887744703e-033 -1 -13.963443189966201 -1.01106591307579 8.5498606258351999e-016 1 I I #
End-of-ACIS-data 