600 0 1 0           
69 GICL ACIS Healer - Source: /gicl/data5/repository/new/2638b.sat - 6 0 18 ACIS 6.0.3 Solaris 24 Sat Apr 13 20:06:45 2002 
1 9.999999999999999547e-07 1.000000000000000036e-10 
body $1 $2 $-1 $-1 #
body-st-attrib $-1 $-1 $-1 $0 -1 2 3 #
lump $-1 $-1 $3 $0 #
shell $-1 $-1 $-1 $4 $-1 $2 #
face $-1 $5 $6 $3 $-1 $7 forward single #
face $8 $9 $10 $3 $-1 $11 forward single #
loop $-1 $-1 $12 $4 #
plane-surface $-1 -1.421085471520200372e-13 7.815970093361102045e-14 92.00000000000001421 2.465190328815661892e-32 -7.395570986446985676e-32 1 1.000000000000000666 -1.775187161478731473e-33 2.465190328815661892e-32 forward_v I I I I #
face-st-attrib $-1 $-1 $-1 $5 6 1 31 nc.free_edge_condition_distance #
face $13 $14 $15 $3 $-1 $16 forward single #
loop $-1 $-1 $17 $5 #
cone-surface $-1 -122.5615973871150004 38.25237512678660323 160 -4.976805554860490237e-17 3.566920873058890303e-17 1 2.438402612885193221 -1.747624873213547758 1.836909530733566873e-16 1 I I 0 1 3 forward I I I I #
coedge $-1 $18 $19 $20 $21 forward $6 $-1 #
face-st-attrib $-1 $-1 $-1 $9 10 1 31 nc.free_edge_condition_distance #
face $22 $23 $24 $3 $-1 $25 forward single #
loop $-1 $-1 $26 $9 #
cone-surface $-1 -146.0623044387062635 55.0955412079080844 160 2.465190328815661892e-32 -7.395570986446985676e-32 1 21.0623044387060574 -15.09554120790794052 5.719241562852335589e-30 1 I I 6.123031769111889989e-17 -1 25.9132404887613994 forward I I I I #
coedge $-1 $27 $28 $29 $30 reversed $10 $-1 #
coedge $-1 $31 $12 $32 $33 forward $6 $-1 #
coedge $-1 $12 $34 $35 $36 forward $6 $-1 #
coedge $-1 $37 $38 $12 $21 reversed $39 $-1 #
edge $-1 $40 -3.141592653589803774 $41 1.761553865738554469e-14 $20 $42 forward 7 unknown #
face-st-attrib $-1 $-1 $-1 $14 15 1 31 nc.free_edge_condition_distance #
face $43 $44 $45 $3 $-1 $46 forward single #
loop $-1 $-1 $47 $14 #
cone-surface $-1 -146.0623044387062635 55.0955412079080844 160 2.465190328815661892e-32 -7.395570986446985676e-32 1 25.93910966447644384 -18.59079095433503426 -7.888609052210118054e-31 1 I I -6.123031769111889989e-17 1 31.9132404887613994 forward I I I I #
coedge $-1 $48 $49 $50 $51 reversed $15 $-1 #
coedge $-1 $52 $17 $49 $53 reversed $10 $-1 #
coedge $-1 $17 $52 $54 $55 forward $10 $-1 #
coedge $-1 $56 $50 $17 $30 forward $6 $-1 #
edge $-1 $57 -3.141592653589794448 $58 -4.934324553889569066e-16 $17 $59 forward 7 unknown #
coedge $-1 $60 $18 $61 $62 forward $6 $-1 #
coedge $-1 $63 $64 $18 $33 reversed $65 $-1 #
edge $-1 $41 -56.67619078729883597 $66 -43.32380921270087271 $32 $67 forward 7 unknown #
coedge $-1 $19 $68 $69 $70 forward $6 $-1 #
coedge $-1 $71 $72 $19 $36 reversed $73 $-1 #
edge $-1 $74 43.32380921270087981 $40 56.67619078729884308 $35 $75 forward 7 unknown #
coedge $-1 $76 $20 $72 $77 reversed $39 $-1 #
coedge $-1 $20 $76 $63 $78 forward $39 $-1 #
loop $-1 $-1 $20 $79 #
vertex $-1 $77 $80 #
vertex $-1 $78 $81 #
ellipse-curve $-1 -84.00000000000017053 100.0000000000000568 92 2.465190328815661892e-32 -7.395570986446985676e-32 1 -3.000000000000003109 1.021405182655144017e-14 1.836909530733568106e-16 1 I I #
face-st-attrib $-1 $-1 $-1 $23 24 1 31 nc.free_edge_condition_distance #
face $82 $83 $84 $3 $-1 $85 forward single #
loop $-1 $-1 $86 $23 #
cone-surface $-1 -67.92721521773803772 39.73028309999213548 160.0000000000000284 -3.081487911019577365e-32 6.779273404243070203e-32 -1 -52.70881751810112092 10.36518411642583715 -3.944304526105059027e-30 1 I I -6.123031769111889989e-17 1 53.71830680432778138 forward I I I I #
coedge $-1 $54 $87 $56 $88 reversed $24 $-1 #
coedge $-1 $89 $26 $90 $91 forward $15 $-1 #
coedge $-1 $26 $89 $27 $53 forward $15 $-1 #
coedge $-1 $29 $92 $26 $51 forward $6 $-1 #
edge $-1 $93 -0.42767994262708664 $57 2.88774299127567942e-63 $26 $94 forward 7 unknown #
coedge $-1 $28 $27 $95 $96 reversed $10 $-1 #
edge $-1 $97 -100 $57 -68 $27 $98 forward 7 unknown #
coedge $-1 $99 $47 $28 $55 reversed $24 $-1 #
edge $-1 $100 -100 $58 -68 $28 $101 forward 7 unknown #
coedge $-1 $102 $29 $47 $88 forward $6 $-1 #
vertex $-1 $53 $103 #
vertex $-1 $55 $104 #
ellipse-curve $-1 -122.5615973871150004 38.25237512678660323 92 2.465190328815661892e-32 -7.395570986446985676e-32 1 2.438402612885193221 -1.747624873213547758 1.836909530733566873e-16 1 I I #
coedge $-1 $105 $31 $106 $107 forward $6 $-1 #
coedge $-1 $108 $109 $31 $62 reversed $110 $-1 #
edge $-1 $66 -1.429421236117519589 $111 -7.494005416219945487e-15 $61 $112 forward 7 unknown #
coedge $-1 $113 $32 $38 $78 reversed $65 $-1 #
coedge $-1 $32 $113 $108 $114 reversed $65 $-1 #
loop $-1 $-1 $32 $115 #
vertex $-1 $33 $116 #
straight-curve $-1 -87.00000000000034106 43.32380921270114982 92 -2.220446049250313081e-15 -1.000000000000000444 -4.930380657631323784e-32 I I #
coedge $-1 $34 $117 $118 $119 forward $6 $-1 #
coedge $-1 $120 $121 $34 $70 reversed $122 $-1 #
edge $-1 $123 4.98467480443950932e-15 $74 1.429421236117521365 $69 $124 forward 7 unknown #
coedge $-1 $125 $35 $121 $126 reversed $73 $-1 #
coedge $-1 $35 $125 $37 $77 forward $73 $-1 #
loop $-1 $-1 $35 $127 #
vertex $-1 $126 $128 #
straight-curve $-1 -81.00000000000032685 43.32380921270114271 92 2.220446049250313081e-15 1.000000000000000444 4.930380657631323784e-32 I I #
coedge $-1 $38 $37 $129 $130 reversed $39 $-1 #
edge $-1 $131 -200 $40 -168 $72 $132 forward 7 unknown #
edge $-1 $133 -0 $41 32 $63 $134 reversed 7 unknown #
face $135 $136 $39 $3 $-1 $137 forward single #
point $-1 -81.00000000000019895 100.0000000000000142 92 #
point $-1 -87.00000000000022737 100.0000000000000142 92 #
face-st-attrib $-1 $-1 $-1 $44 45 1 31 nc.free_edge_condition_distance #
face $138 $139 $140 $3 $-1 $141 forward single #
loop $-1 $-1 $142 $44 #
cone-surface $-1 -67.92721521773803772 39.73028309999213548 160.0000000000000284 -3.081487911019577365e-32 6.779273404243070203e-32 -1 -46.821571178402138 9.207457665272226421 -1.577721810442023611e-30 1 I I 6.123031769111889989e-17 -1 47.71830680432778848 forward I I I I #
coedge $-1 $143 $90 $92 $144 reversed $45 $-1 #
coedge $-1 $47 $99 $145 $146 reversed $24 $-1 #
edge $-1 $58 -2.232535493859257046e-16 $147 0.4276799426270858073 $47 $148 forward 7 unknown #
coedge $-1 $49 $48 $149 $150 reversed $15 $-1 #
coedge $-1 $86 $151 $48 $91 reversed $45 $-1 #
edge $-1 $93 -32 $152 9.377315348696354082e-31 $48 $153 forward 7 unknown #
coedge $-1 $50 $105 $86 $144 forward $6 $-1 #
vertex $-1 $144 $154 #
ellipse-curve $-1 -146.062304438706235 55.0955412079080844 92 -2.465190328815661892e-32 7.395570986446985676e-32 -1 21.0623044387060574 -15.09554120790794052 5.719241562852335589e-30 1 I I #
coedge $-1 $149 $155 $52 $96 forward $156 $-1 #
edge $-1 $100 -1.480297366166872692e-15 $97 3.141592653589791784 $95 $157 forward 7 unknown #
vertex $-1 $150 $158 #
straight-curve $-1 -125.000000000000199 40.00000000000014921 160 2.465190328815661892e-32 -7.395570986446985676e-32 1 I I #
coedge $-1 $87 $54 $155 $159 forward $24 $-1 #
vertex $-1 $55 $160 #
straight-curve $-1 -120.1231947742298019 36.50475025357305725 160 -4.976805554860490237e-17 3.566920873058890303e-17 1 I I #
coedge $-1 $117 $56 $142 $161 forward $6 $-1 #
point $-1 -125.0000000000001847 40.00000000000014921 92 #
point $-1 -120.1231947742298019 36.50475025357305014 92 #
coedge $-1 $92 $60 $162 $163 forward $6 $-1 #
coedge $-1 $164 $165 $60 $107 reversed $166 $-1 #
edge $-1 $111 -0.2664597812028168811 $167 3.222415567541081528e-16 $106 $168 forward 7 unknown #
coedge $-1 $169 $61 $64 $114 forward $110 $-1 #
coedge $-1 $61 $169 $164 $170 forward $110 $-1 #
loop $-1 $-1 $61 $171 #
vertex $-1 $170 $172 #
ellipse-curve $-1 -95.00000000000018474 86.64761842540204384 92 -2.465190328815661892e-32 7.395570986446985676e-32 -1 1.12723695256699985 -7.920185405201513262 4.930380657631323784e-31 1 I I #
coedge $-1 $64 $63 $173 $174 reversed $65 $-1 #
edge $-1 $66 -32 $175 -8.701351488741540342e-31 $108 $176 forward 7 unknown #
face $177 $127 $65 $3 $-1 $178 forward single #
point $-1 -87.00000000000021316 86.64761842540204384 92 #
coedge $-1 $68 $102 $179 $180 forward $6 $-1 #
coedge $-1 $181 $182 $68 $119 reversed $183 $-1 #
edge $-1 $184 -6.579098291264781545e-16 $123 0.2664597812028175472 $118 $185 forward 7 unknown #
coedge $-1 $186 $69 $182 $187 reversed $122 $-1 #
coedge $-1 $69 $186 $71 $126 forward $122 $-1 #
loop $-1 $-1 $69 $188 #
vertex $-1 $187 $189 #
ellipse-curve $-1 -95.00000000000018474 86.64761842540204384 92 2.465190328815661892e-32 -7.395570986446985676e-32 1 1.972664666992230309 -13.86032445910269573 -9.860761315262647568e-32 1 I I #
coedge $-1 $72 $71 $190 $191 forward $73 $-1 #
edge $-1 $192 -200 $74 -168 $121 $193 forward 7 unknown #
face $194 $79 $73 $3 $-1 $195 forward single #
point $-1 -81.00000000000019895 86.64761842540204384 92 #
coedge $-1 $190 $173 $76 $130 forward $156 $-1 #
edge $-1 $133 -2.235249022911954488e-14 $131 3.141592653589808659 $129 $196 forward 7 unknown #
vertex $-1 $191 $197 #
straight-curve $-1 -81.00000000000021316 100.0000000000000284 260 -6.123031769111886291e-17 1.170965406187439399e-31 1 I I #
vertex $-1 $78 $198 #
straight-curve $-1 -87.00000000000021316 100 60 6.123031769111886291e-17 -1.170965406187439399e-31 -1 I I #
face-st-attrib $-1 $-1 $-1 $79 80 1 31 nc.free_edge_condition_distance #
face $199 $-1 $156 $3 $-1 $200 forward single #
cone-surface $-1 -84.00000000000017053 100.0000000000000568 160 6.123031769111901082e-17 -3.204747427460360459e-31 1 -3.000000000000003109 1.021405182655144017e-14 1.836909530733568106e-16 1 I I 0 1 3.00000000000000222 forward I I I I #
face-st-attrib $-1 $-1 $-1 $83 84 1 31 nc.free_edge_condition_distance #
face $201 $202 $203 $3 $-1 $204 forward single #
loop $-1 $-1 $162 $83 #
cone-surface $-1 -96.68046947124348378 57.34205710444803117 160.0000000000001137 -2.465190328815661892e-32 8.011868568650901149e-32 -1 -17.05498109401769469 10.44641660487909007 -1.380506584136770659e-30 1 I I -6.123031769111889989e-17 1 19.99999999999985789 forward I I I I #
coedge $-1 $145 $205 $102 $161 reversed $84 $-1 #
coedge $-1 $151 $86 $206 $207 forward $45 $-1 #
edge $-1 $208 -0.355398023677472974 $93 3.939721802514440119e-17 $86 $209 forward 7 unknown #
coedge $-1 $210 $142 $87 $146 forward $84 $-1 #
edge $-1 $147 168 $211 200 $87 $212 reversed 7 unknown #
vertex $-1 $161 $213 #
ellipse-curve $-1 -146.062304438706235 55.0955412079080844 92 2.465190328815661892e-32 -7.395570986446985676e-32 1 25.93910966447644384 -18.59079095433503426 -7.888609052210118054e-31 1 I I #
coedge $-1 $214 $95 $89 $150 forward $156 $-1 #
edge $-1 $97 -5.079114344575681401e-16 $152 0.42767994262708664 $149 $215 forward 7 unknown #
coedge $-1 $90 $143 $214 $216 reversed $45 $-1 #
vertex $-1 $216 $217 #
straight-curve $-1 -120.6360327358393931 50.09546721641801525 60 6.007966061760800996e-17 -1.181465973392315497e-17 -1 I I #
point $-1 -120.6360327358393931 50.09546721641801525 92 #
coedge $-1 $95 $218 $99 $159 reversed $156 $-1 #
loop $-1 $-1 $190 $136 #
ellipse-curve $-1 -122.5615973871150004 38.25237512678659613 60 4.976805554860490237e-17 -3.566920873058890303e-17 -1 2.438402612885193221 -1.747624873213547758 1.836909530733566873e-16 1 I I #
point $-1 -125.000000000000199 40.00000000000014211 60 #
edge $-1 $100 -2.232535493859257046e-16 $211 0.4276799426270858073 $99 $219 forward 7 unknown #
point $-1 -120.1231947742298019 36.50475025357305014 60 #
edge $-1 $147 2.196811597584367494e-15 $220 0.355398023677473307 $142 $221 forward 7 unknown #
coedge $-1 $222 $206 $105 $163 reversed $140 $-1 #
edge $-1 $167 -0.613391179137328546 $208 4.973799150320659373e-16 $162 $223 forward 7 unknown #
coedge $-1 $224 $106 $109 $170 reversed $166 $-1 #
coedge $-1 $106 $224 $222 $225 reversed $166 $-1 #
loop $-1 $-1 $106 $202 #
vertex $-1 $107 $226 #
ellipse-curve $-1 -87.9547686170329257 37.14645662567902207 92 2.465190328815661892e-32 -7.395570986446985676e-32 1 -16.6581550773522622 38.55523473432486981 1.183291357831517708e-30 1 I I #
coedge $-1 $109 $108 $227 $228 reversed $110 $-1 #
edge $-1 $229 -4.678299533230291059e-30 $111 32 $164 $230 reversed 7 unknown #
face $231 $188 $110 $3 $-1 $232 forward single #
point $-1 -93.87276304743313915 78.72743302020063538 92 #
coedge $-1 $129 $227 $113 $174 forward $156 $-1 #
edge $-1 $175 0 $133 13.35238157459795083 $173 $233 forward 7 unknown #
vertex $-1 $174 $234 #
straight-curve $-1 -87.00000000000019895 86.64761842540204384 60 6.123031769111892454e-17 -3.081487911019577365e-32 -1 I I #
face-st-attrib $-1 $-1 $-1 $115 116 1 31 nc.free_edge_condition_distance #
plane-surface $-1 -87.00000000000022737 86.64761842540205805 260 -1.000000000000000444 2.220446049250313081e-15 -6.123031769111888756e-17 -6.123031769111878895e-17 4.388431411052003151e-17 1 forward_v I I I I #
coedge $-1 $235 $236 $117 $180 reversed $203 $-1 #
edge $-1 $220 8.773027655813323599e-15 $184 0.6133911791373279909 $179 $237 forward 7 unknown #
coedge $-1 $238 $118 $236 $239 forward $183 $-1 #
coedge $-1 $118 $238 $120 $187 forward $183 $-1 #
loop $-1 $-1 $118 $240 #
vertex $-1 $119 $241 #
ellipse-curve $-1 -87.9547686170329257 37.14645662567902207 92 -2.465190328815661892e-32 7.395570986446985676e-32 -1 -14.27841881040978222 33.04734445765820539 -1.183291357831517708e-30 1 I I #
coedge $-1 $121 $120 $242 $243 forward $122 $-1 #
edge $-1 $244 -200 $123 -168 $182 $245 forward 7 unknown #
face $246 $115 $122 $3 $-1 $247 forward single #
point $-1 -93.02733533300789759 72.78729396629944404 92 #
coedge $-1 $242 $129 $125 $191 reversed $156 $-1 #
edge $-1 $192 0 $131 13.35238157459795083 $125 $248 forward 7 unknown #
vertex $-1 $126 $249 #
straight-curve $-1 -81.00000000000021316 86.64761842540204384 260 -6.123031769111892454e-17 3.081487911019577365e-32 1 I I #
face-st-attrib $-1 $-1 $-1 $127 128 1 31 nc.free_edge_condition_distance #
plane-surface $-1 -81.00000000000019895 86.64761842540204384 60 1.000000000000000444 -2.220446049250313081e-15 6.123031769111888756e-17 6.123031769111878895e-17 -4.388431411052003151e-17 -1 forward_v I I I I #
ellipse-curve $-1 -84.00000000000017053 100.0000000000000568 60 -6.123031769111901082e-17 3.204747427460360459e-31 -1 -3.000000000000003109 1.021405182655144017e-14 1.836909530733568106e-16 1 I I #
point $-1 -81.00000000000019895 100 60 #
point $-1 -87.00000000000021316 100 60 #
face-st-attrib $-1 $-1 $-1 $136 137 1 31 nc.free_edge_condition_distance #
plane-surface $-1 -122.5615973871150004 38.25237512678659613 60 4.976805554860490237e-17 -3.566920873058890303e-17 -1 -0.8128008709617310368 0.5825416244045159564 -6.123031769111889989e-17 forward_v I I I I #
face-st-attrib $-1 $-1 $-1 $139 140 1 31 nc.free_edge_condition_distance #
face $250 $240 $166 $3 $-1 $251 forward single #
loop $-1 $-1 $179 $139 #
cone-surface $-1 -96.68046947124348378 57.34205710444803117 160.0000000000001137 -2.465190328815661892e-32 8.011868568650901149e-32 -1 -11.93848676581238522 7.312491623415366959 -1.183291357831517708e-30 1 I I 6.123031769111889989e-17 -1 13.9999999999999023 forward I I I I #
coedge $-1 $142 $210 $235 $252 reversed $84 $-1 #
coedge $-1 $162 $253 $143 $207 reversed $140 $-1 #
edge $-1 $208 -32 $254 0 $143 $255 forward 7 unknown #
vertex $-1 $163 $256 #
ellipse-curve $-1 -67.92721521773803772 39.73028309999213548 92 2.465190328815661892e-32 -7.395570986446985676e-32 1 -52.70881751810112092 10.36518411642583715 -3.944304526105059027e-30 1 I I #
coedge $-1 $205 $145 $218 $257 forward $84 $-1 #
vertex $-1 $146 $258 #
straight-curve $-1 -114.7487863961403889 48.93774076526451466 260 -6.007966061760800996e-17 1.181465973392315497e-17 1 I I #
point $-1 -114.7487863961403747 48.93774076526450756 92 #
coedge $-1 $259 $149 $151 $216 forward $156 $-1 #
ellipse-curve $-1 -146.062304438706235 55.0955412079080844 60 2.465190328815661892e-32 -7.395570986446985676e-32 1 21.0623044387060574 -15.09554120790794052 5.719241562852335589e-30 1 I I #
edge $-1 $152 -1.969860901257219813e-16 $254 0.355398023677472974 $214 $260 forward 7 unknown #
point $-1 -120.6360327358393789 50.09546721641800815 60 #
coedge $-1 $155 $261 $210 $257 reversed $156 $-1 #
ellipse-curve $-1 -146.062304438706235 55.0955412079080844 60 2.465190328815661892e-32 -7.395570986446985676e-32 1 25.93910966447644384 -18.59079095433503426 -7.888609052210118054e-31 1 I I #
vertex $-1 $180 $262 #
ellipse-curve $-1 -67.92721521773803772 39.73028309999213548 92 -2.465190328815661892e-32 7.395570986446985676e-32 -1 -46.821571178402138 9.207457665272226421 -1.577721810442023611e-30 1 I I #
coedge $-1 $253 $162 $165 $225 forward $140 $-1 #
ellipse-curve $-1 -96.68046947124348378 57.34205710444802406 92 2.465190328815661892e-32 -7.395570986446985676e-32 1 -17.05498109401769469 10.44641660487909007 -1.380506584136770659e-30 1 I I #
coedge $-1 $165 $164 $263 $264 reversed $166 $-1 #
edge $-1 $167 -31.99999999999990052 $265 9.947598300641402602e-14 $222 $266 forward 7 unknown #
point $-1 -104.6129236943849747 75.70169136000336607 92 #
coedge $-1 $173 $263 $169 $228 forward $156 $-1 #
edge $-1 $229 -1.276756478318939093e-15 $175 1.429421236117519589 $227 $267 forward 7 unknown #
vertex $-1 $228 $268 #
straight-curve $-1 -93.87276304743313915 78.72743302020062117 60 8.627634589855652404e-18 -6.061943356663163963e-17 -1 I I #
face-st-attrib $-1 $-1 $-1 $171 172 1 31 nc.free_edge_condition_distance #
cone-surface $-1 -95.00000000000018474 86.64761842540204384 160 1.848892746611746419e-32 -8.011868568650901149e-32 1 1.12723695256699985 -7.920185405201513262 4.930380657631323784e-31 1 I I 6.123031769111889989e-17 -1 7.999999999999971578 forward I I I I #
straight-curve $-1 -87.00000000000021316 86.64761842540204384 60 2.220446049250313081e-15 1.000000000000000444 -5.546678239835239257e-32 I I #
point $-1 -87.00000000000021316 86.64761842540204384 60 #
coedge $-1 $269 $179 $205 $252 forward $203 $-1 #
coedge $-1 $179 $269 $181 $239 reversed $203 $-1 #
ellipse-curve $-1 -96.68046947124348378 57.34205710444802406 92 -2.465190328815661892e-32 7.395570986446985676e-32 -1 -11.93848676581238522 7.312491623415366959 -1.183291357831517708e-30 1 I I #
coedge $-1 $182 $181 $270 $271 forward $183 $-1 #
edge $-1 $184 168 $272 200 $236 $273 reversed 7 unknown #
face $274 $171 $183 $3 $-1 $275 forward single #
point $-1 -102.2331874274425161 70.19380108333672297 92 #
coedge $-1 $270 $190 $186 $243 reversed $156 $-1 #
edge $-1 $244 3.987739843551608402e-15 $192 1.429421236117521365 $186 $276 forward 7 unknown #
vertex $-1 $187 $277 #
straight-curve $-1 -93.0273353330079118 72.78729396629944404 260 -8.627634589855652404e-18 6.061943356663163963e-17 1 I I #
face-st-attrib $-1 $-1 $-1 $188 189 1 31 nc.free_edge_condition_distance #
cone-surface $-1 -95.00000000000018474 86.64761842540204384 160 1.848892746611746419e-32 -8.011868568650901149e-32 1 1.972664666992230309 -13.86032445910269573 -9.860761315262647568e-32 1 I I -6.123031769111889989e-17 1 13.99999999999999467 forward I I I I #
straight-curve $-1 -81.00000000000019895 86.64761842540204384 60 2.220446049250313081e-15 1.000000000000000444 -5.546678239835239257e-32 I I #
point $-1 -81.00000000000019895 86.64761842540204384 60 #
face-st-attrib $-1 $-1 $-1 $202 203 1 31 nc.free_edge_condition_distance #
cone-surface $-1 -87.9547686170329257 37.14645662567902207 160.0000000000000284 -2.465190328815661892e-32 7.395570986446985676e-32 -1 -16.6581550773522622 38.55523473432486981 1.183291357831517708e-30 1 I I -6.123031769111889989e-17 1 42.00000304761901049 forward I I I I #
edge $-1 $220 168 $278 200 $205 $279 reversed 7 unknown #
coedge $-1 $206 $222 $259 $280 reversed $140 $-1 #
vertex $-1 $280 $281 #
straight-curve $-1 -113.7354505652615444 67.7884737093273344 60 5.221409553013749568e-17 -3.198187037252542468e-17 -1 I I #
point $-1 -113.7354505652615586 67.7884737093273344 92 #
edge $-1 $211 2.146884061275631026e-15 $278 0.355398023677473085 $210 $282 forward 7 unknown #
point $-1 -114.7487863961403747 48.93774076526450756 60 #
coedge $-1 $263 $214 $253 $280 forward $156 $-1 #
ellipse-curve $-1 -67.92721521773802351 39.73028309999213548 60 -3.081487911019577365e-32 6.779273404243070203e-32 -1 -52.70881751810112092 10.36518411642583715 -3.944304526105059027e-30 1 I I #
coedge $-1 $218 $270 $269 $283 reversed $156 $-1 #
point $-1 -108.6189562370561816 64.65454872786372675 92 #
coedge $-1 $227 $259 $224 $264 forward $156 $-1 #
edge $-1 $265 1.740104406472186037e-15 $229 0.2664597812028173807 $263 $284 forward 7 unknown #
vertex $-1 $264 $285 #
straight-curve $-1 -104.6129236943849747 75.70169136000336607 60.00000000000009948 2.428533460766068628e-17 -5.620831190802030099e-17 -1 I I #
ellipse-curve $-1 -95.00000000000018474 86.64761842540204384 60 1.848892746611746419e-32 -8.011868568650901149e-32 1 1.12723695256699985 -7.920185405201513262 4.930380657631323784e-31 1 I I #
point $-1 -93.87276304743319599 78.72743302020053591 60 #
coedge $-1 $236 $235 $261 $283 forward $203 $-1 #
coedge $-1 $261 $242 $238 $271 reversed $156 $-1 #
edge $-1 $272 -6.579098291264781545e-16 $244 0.2664597812028170476 $238 $286 forward 7 unknown #
vertex $-1 $239 $287 #
straight-curve $-1 -102.2331874274425161 70.19380108333672297 260 -2.428533460766068628e-17 5.620831190802030099e-17 1 I I #
face-st-attrib $-1 $-1 $-1 $240 241 1 31 nc.free_edge_condition_distance #
cone-surface $-1 -87.9547686170329257 37.14645662567902207 160.0000000000000284 -2.465190328815661892e-32 7.395570986446985676e-32 -1 -14.27841881040978222 33.04734445765820539 -1.183291357831517708e-30 1 I I 6.123031769111889989e-17 -1 36.00000304761897496 forward I I I I #
ellipse-curve $-1 -95.00000000000018474 86.64761842540204384 60 1.848892746611746419e-32 -8.011868568650901149e-32 1 1.972664666992230309 -13.86032445910269573 -9.860761315262647568e-32 1 I I #
point $-1 -93.0273353330079118 72.78729396629944404 60 #
vertex $-1 $252 $288 #
straight-curve $-1 -108.6189562370561816 64.65454872786372675 260 -5.221409553013749568e-17 3.198187037252542468e-17 1 I I #
edge $-1 $254 -1.421085471520190541e-16 $265 0.6133911791373291011 $259 $289 forward 7 unknown #
point $-1 -113.7354505652615444 67.7884737093273344 60 #
ellipse-curve $-1 -67.92721521773802351 39.73028309999213548 60 -3.081487911019577365e-32 6.779273404243070203e-32 -1 -46.821571178402138 9.207457665272226421 -1.577721810442023611e-30 1 I I #
edge $-1 $278 8.555514573437806939e-15 $272 0.6133911791373287681 $269 $290 forward 7 unknown #
ellipse-curve $-1 -87.9547686170329257 37.14645662567902207 60 -2.465190328815661892e-32 7.395570986446985676e-32 -1 -16.65815507735231904 38.55523473432478454 1.183291357831517708e-30 1 I I #
point $-1 -104.6129236943849747 75.70169136000336607 60 #
ellipse-curve $-1 -87.9547686170329257 37.14645662567902207 60 -2.465190328815661892e-32 7.395570986446985676e-32 -1 -14.27841881040978222 33.04734445765820539 -1.183291357831517708e-30 1 I I #
point $-1 -102.2331874274425161 70.19380108333672297 60 #
point $-1 -108.6189562370561674 64.65454872786371254 60 #
ellipse-curve $-1 -96.68046947124349799 57.34205710444803117 60 -2.465190328815661892e-32 8.011868568650901149e-32 -1 -17.05498109401769469 10.44641660487909007 -1.380506584136770659e-30 1 I I #
ellipse-curve $-1 -96.68046947124349799 57.34205710444803117 60 -2.465190328815661892e-32 8.011868568650901149e-32 -1 -11.93848676581238522 7.312491623415366959 -1.183291357831517708e-30 1 I I #
End-of-ACIS-data 