600 0 1 0           
74 GICL ACIS Healer - Source: /gicl/data5/repository/new/acis_thing.sat - 6 0 18 ACIS 6.0.3 Solaris 24 Sat Apr 13 20:06:47 2002 
1 9.999999999999999547e-07 1.000000000000000036e-10 
body $-1 $1 $-1 $-1 #
lump $-1 $-1 $2 $0 #
shell $-1 $-1 $-1 $3 $-1 $1 #
face $-1 $4 $5 $2 $-1 $6 reversed single #
face $-1 $7 $8 $2 $-1 $9 reversed single #
loop $-1 $10 $11 $3 #
cone-surface $-1 20 -45 5 0 -1 -3.491481338843129805e-15 10 0 0 1 I I 0 1 10 forward I I I I #
face $-1 $12 $13 $2 $-1 $14 forward single #
loop $-1 $-1 $15 $4 #
cone-surface $-1 0 50 25 -1 0 -3.491481338843129805e-15 -8.728703347107829602e-14 0 25 1 I I 0 1 25 forward I I I I #
loop $-1 $-1 $16 $3 #
coedge $-1 $11 $11 $17 $18 reversed $5 $-1 #
face $-1 $19 $20 $2 $-1 $21 forward single #
loop $-1 $-1 $22 $7 #
plane-surface $-1 0 40 10 0 -1 0 0 0 -1 forward_v I I I I #
coedge $-1 $23 $24 $25 $26 reversed $8 $-1 #
coedge $-1 $16 $16 $27 $28 reversed $10 $-1 #
coedge $-1 $17 $17 $11 $18 forward $29 $-1 #
edge $-1 $30 -3.141592653589799777 $30 3.141592653589786455 $17 $31 forward 7 unknown #
face $-1 $32 $33 $2 $-1 $34 reversed single #
loop $-1 $-1 $35 $12 #
plane-surface $-1 -90 0 10 1 0 0 0 0 -1 forward_v I I I I #
coedge $-1 $36 $37 $38 $39 forward $13 $-1 #
coedge $-1 $40 $15 $41 $42 reversed $8 $-1 #
coedge $-1 $15 $43 $44 $45 reversed $8 $-1 #
coedge $-1 $46 $47 $15 $26 forward $48 $-1 #
edge $-1 $49 -3.141592653589793116 $50 -2.214297435588180818 $25 $51 forward 7 unknown #
coedge $-1 $27 $27 $16 $28 forward $52 $-1 #
edge $-1 $53 -3.141592653589799777 $53 3.141592653589786455 $27 $54 forward 7 unknown #
loop $-1 $55 $17 $56 #
vertex $-1 $18 $57 #
ellipse-curve $-1 20 -40 5.000000000000020428 -0 -1 -0 10 0 0 1 I I #
face $-1 $58 $59 $2 $-1 $60 reversed single #
loop $-1 $-1 $61 $19 #
plane-surface $-1 -100 0 0 1 0 0 0 0 -1 forward_v I I I I #
coedge $-1 $62 $63 $64 $65 forward $20 $-1 #
coedge $-1 $66 $22 $63 $67 forward $13 $-1 #
coedge $-1 $22 $66 $68 $69 reversed $13 $-1 #
coedge $-1 $70 $64 $22 $39 reversed $8 $-1 #
edge $-1 $71 -39.99999999999992184 $72 90.00000000000008527 $22 $73 forward 7 unknown #
coedge $-1 $74 $23 $61 $75 reversed $8 $-1 #
coedge $-1 $76 $77 $23 $42 forward $59 $-1 #
edge $-1 $78 -100.0000000000000853 $49 49.99999999999991473 $41 $79 forward 7 unknown #
coedge $-1 $24 $80 $81 $82 reversed $8 $-1 #
coedge $-1 $83 $84 $24 $45 forward $85 $-1 #
edge $-1 $50 49.99999999999995026 $86 99.99999999999994316 $44 $87 forward 7 unknown #
coedge $-1 $88 $25 $84 $89 forward $48 $-1 #
coedge $-1 $25 $88 $76 $90 reversed $48 $-1 #
loop $-1 $-1 $25 $91 #
vertex $-1 $26 $92 #
vertex $-1 $26 $93 #
ellipse-curve $-1 49.99999999999990052 50 25.00000000000019895 -1 -0 -0 -8.728703347107829602e-14 0 25 1 I I #
loop $-1 $94 $27 $95 #
vertex $-1 $28 $96 #
ellipse-curve $-1 20 -50 4.999999999999979572 0 1 -0 10 0 0 1 I I #
loop $-1 $-1 $97 $56 #
face $-1 $98 $29 $2 $-1 $99 forward single #
point $-1 10 -40 5.000000000000089706 #
face $-1 $100 $101 $2 $-1 $102 forward single #
loop $-1 $-1 $41 $32 #
plane-surface $-1 0 50 0 0 -1 0 0 0 -1 forward_v I I I I #
coedge $-1 $103 $104 $40 $75 forward $33 $-1 #
coedge $-1 $105 $35 $106 $107 reversed $20 $-1 #
coedge $-1 $35 $108 $36 $67 reversed $20 $-1 #
coedge $-1 $38 $74 $35 $65 reversed $8 $-1 #
edge $-1 $72 -2.730075807522305276 $109 -1.57079632679488479 $35 $110 forward 7 unknown #
coedge $-1 $37 $36 $111 $112 forward $13 $-1 #
edge $-1 $72 7.912878474779510007 $113 25 $36 $114 forward 7 unknown #
coedge $-1 $115 $116 $37 $69 forward $117 $-1 #
edge $-1 $71 7.912878474779059701 $118 25 $37 $119 forward 7 unknown #
coedge $-1 $80 $38 $116 $120 reversed $8 $-1 #
vertex $-1 $120 $121 #
vertex $-1 $65 $122 #
straight-curve $-1 7.999988761387209498e-14 40 2.087121525220799967 -1 0 -3.491481338843129805e-15 I I #
coedge $-1 $64 $40 $123 $124 reversed $8 $-1 #
edge $-1 $125 1.57079632679488479 $78 3.141592653589793116 $61 $126 forward 7 unknown #
coedge $-1 $127 $41 $47 $90 forward $59 $-1 #
coedge $-1 $41 $127 $103 $128 reversed $59 $-1 #
vertex $-1 $42 $129 #
straight-curve $-1 8.728703347107829602e-14 50 0 1 -0 3.491481338843129805e-15 I I #
coedge $-1 $43 $70 $130 $131 reversed $8 $-1 #
coedge $-1 $132 $133 $43 $82 forward $134 $-1 #
edge $-1 $86 -2.214297435588180818 $135 -1.570796326794908548 $81 $136 forward 7 unknown #
coedge $-1 $137 $44 $133 $138 reversed $85 $-1 #
coedge $-1 $44 $137 $46 $89 reversed $85 $-1 #
loop $-1 $-1 $44 $139 #
vertex $-1 $138 $140 #
straight-curve $-1 5.136126749271320083e-14 30 10 1 -0 3.491481338843129805e-15 I I #
coedge $-1 $47 $46 $141 $142 reversed $48 $-1 #
edge $-1 $50 -10.00000000000020073 $143 25 $46 $144 forward 7 unknown #
edge $-1 $49 -1.745740669421560114e-13 $145 25 $76 $146 forward 7 unknown #
face $-1 $139 $48 $2 $-1 $147 forward single #
point $-1 50 50 1.745740669421560114e-13 #
point $-1 50 30 10.00000000000020073 #
loop $-1 $-1 $148 $95 #
face $-1 $149 $52 $2 $-1 $150 reversed single #
point $-1 10 -50 4.999999999999910294 #
coedge $-1 $151 $152 $153 $154 reversed $55 $-1 #
face $-1 $155 $156 $2 $-1 $157 forward single #
plane-surface $-1 0 -40 10 0 1 0 0 0 1 forward_v I I I I #
face $-1 $158 $159 $2 $-1 $160 forward single #
loop $-1 $161 $162 $58 #
cone-surface $-1 -50 0 0 0 0 1 15 0 0 1 I I 0 1 15 forward I I I I #
coedge $-1 $163 $61 $77 $128 forward $33 $-1 #
coedge $-1 $61 $164 $165 $166 reversed $33 $-1 #
coedge $-1 $108 $62 $167 $168 reversed $20 $-1 #
coedge $-1 $123 $169 $62 $107 forward $170 $-1 #
edge $-1 $171 -13.81197846483000014 $109 25 $106 $172 forward 7 unknown #
coedge $-1 $63 $105 $173 $174 forward $20 $-1 #
vertex $-1 $107 $175 #
ellipse-curve $-1 -90.00000000000009948 50 24.99999999999970157 -1 -0 -0 -8.728703347107829602e-14 0 25 1 I I #
coedge $-1 $173 $176 $66 $112 reversed $177 $-1 #
edge $-1 $113 -90 $118 40 $66 $178 forward 7 unknown #
vertex $-1 $112 $179 #
straight-curve $-1 -90 40 10 0 0 -1 I I #
coedge $-1 $180 $68 $176 $181 forward $117 $-1 #
coedge $-1 $68 $182 $70 $120 forward $117 $-1 #
loop $-1 $-1 $116 $183 #
vertex $-1 $112 $184 #
straight-curve $-1 40 40 10 0 0 -1 I I #
edge $-1 $185 1.570796326794900777 $71 2.730075807522304387 $116 $186 forward 7 unknown #
point $-1 40 40 2.087121525220939855 #
point $-1 -90 40 2.087121525220489993 #
coedge $-1 $165 $106 $74 $124 forward $170 $-1 #
edge $-1 $109 90 $125 100 $123 $187 forward 7 unknown #
vertex $-1 $75 $188 #
ellipse-curve $-1 -100 50 24.99999999999970157 1 0 0 -8.728703347107829602e-14 0 25 1 I I #
coedge $-1 $77 $76 $189 $190 reversed $59 $-1 #
edge $-1 $78 3.491481338843139919e-13 $191 25 $77 $192 forward 7 unknown #
point $-1 -100 50 -3.491481338843139919e-13 #
coedge $-1 $193 $194 $80 $131 forward $170 $-1 #
edge $-1 $135 -100 $185 -40 $130 $187 forward 7 unknown #
coedge $-1 $195 $81 $194 $196 reversed $134 $-1 #
coedge $-1 $81 $197 $83 $138 forward $134 $-1 #
loop $-1 $-1 $81 $149 #
vertex $-1 $196 $198 #
ellipse-curve $-1 99.99999999999990052 50 25.00000000000029843 -1 0 0 -8.728703347107829602e-14 0 25 1 I I #
coedge $-1 $84 $83 $199 $200 reversed $85 $-1 #
edge $-1 $201 -25 $86 10.0000000000003002 $133 $202 forward 7 unknown #
face $-1 $203 $85 $2 $-1 $204 forward single #
point $-1 100 30 10.0000000000003002 #
coedge $-1 $199 $189 $88 $142 forward $205 $-1 #
edge $-1 $145 -10 $143 10 $141 $206 forward 7 unknown #
vertex $-1 $200 $207 #
straight-curve $-1 50 30 0 0 0 -1 I I #
vertex $-1 $190 $208 #
straight-curve $-1 50 50 0 0 0 -1 I I #
plane-surface $-1 50 80 0 1 0 0 0 0 -1 forward_v I I I I #
coedge $-1 $209 $210 $211 $212 forward $94 $-1 #
face $-1 $-1 $134 $2 $-1 $213 reversed single #
plane-surface $-1 0 -50 0 0 1 -0 -0 0 1 forward_v I I I I #
coedge $-1 $214 $97 $215 $216 forward $55 $-1 #
coedge $-1 $97 $214 $217 $218 reversed $55 $-1 #
coedge $-1 $169 $219 $97 $154 forward $170 $-1 #
edge $-1 $220 -90 $221 44.64101615137659707 $153 $222 forward 7 unknown #
face $-1 $223 $224 $2 $-1 $225 forward single #
loop $-1 $-1 $226 $98 #
plane-surface $-1 90 0 10 -1 0 0 0 0 1 forward_v I I I I #
face $-1 $227 $228 $2 $-1 $229 reversed single #
loop $-1 $-1 $230 $100 #
plane-surface $-1 -50 0 20 0 0 1 1 0 0 forward_v I I I I #
loop $-1 $-1 $231 $58 #
coedge $-1 $162 $162 $230 $232 reversed $101 $-1 #
coedge $-1 $164 $103 $233 $234 reversed $33 $-1 #
coedge $-1 $104 $163 $235 $236 forward $33 $-1 #
coedge $-1 $237 $123 $104 $166 forward $170 $-1 #
edge $-1 $125 -25 $238 19.58548115672639867 $104 $239 forward 7 unknown #
coedge $-1 $240 $241 $105 $168 forward $228 $-1 #
edge $-1 $242 -25 $171 15 $105 $243 forward 7 unknown #
coedge $-1 $106 $153 $240 $244 forward $170 $-1 #
loop $-1 $-1 $130 $203 #
vertex $-1 $244 $245 #
straight-curve $-1 -90 0 25 0 1 0 I I #
coedge $-1 $246 $111 $108 $174 reversed $177 $-1 #
edge $-1 $242 -13.81197846483000014 $113 40 $108 $247 forward 7 unknown #
point $-1 -90 25 25 #
coedge $-1 $111 $248 $115 $181 reversed $177 $-1 #
loop $-1 $-1 $246 $227 #
straight-curve $-1 0 40 -15 1 0 0 I I #
point $-1 -90 40 -15 #
coedge $-1 $182 $115 $249 $250 reversed $117 $-1 #
edge $-1 $118 0 $251 20 $176 $252 forward 7 unknown #
coedge $-1 $116 $180 $193 $253 reversed $117 $-1 #
face $-1 $254 $117 $2 $-1 $255 reversed single #
point $-1 40 40 -15 #
vertex $-1 $131 $256 #
ellipse-curve $-1 40 50 25.00000000000009948 1 0 0 -8.728703347107829602e-14 0 25 1 I I #
straight-curve $-1 0 25 25 -1 0 -3.491481338843129805e-15 I I #
point $-1 -100 25 25 #
coedge $-1 $141 $233 $127 $190 forward $205 $-1 #
edge $-1 $191 -100 $145 50 $127 $257 forward 7 unknown #
vertex $-1 $190 $258 #
straight-curve $-1 -100 50 0 0 0 -1 I I #
coedge $-1 $259 $130 $182 $253 forward $170 $-1 #
coedge $-1 $130 $260 $132 $196 forward $170 $-1 #
coedge $-1 $197 $132 $261 $262 forward $134 $-1 #
edge $-1 $263 -50 $135 25 $132 $264 forward 7 unknown #
coedge $-1 $133 $195 $265 $266 reversed $134 $-1 #
point $-1 100 25 25 #
coedge $-1 $265 $141 $137 $200 forward $205 $-1 #
edge $-1 $143 0 $201 50 $199 $267 forward 7 unknown #
vertex $-1 $200 $268 #
straight-curve $-1 100 30 0 0 -0 1 I I #
face $-1 $95 $170 $2 $-1 $269 forward single #
plane-surface $-1 100 30 0 0 1 0 0 0 1 forward_v I I I I #
loop $-1 $-1 $270 $223 #
straight-curve $-1 50 40 -25 0 -1 0 I I #
point $-1 50 30 -25 #
point $-1 50 50 -25 #
coedge $-1 $261 $148 $271 $272 reversed $94 $-1 #
coedge $-1 $148 $261 $260 $273 reversed $94 $-1 #
coedge $-1 $274 $275 $148 $212 reversed $224 $-1 #
edge $-1 $276 -25 $277 25 $148 $278 forward 7 unknown #
plane-surface $-1 100 0 0 -1 0 0 0 -0 1 forward_v I I I I #
coedge $-1 $152 $151 $279 $280 forward $55 $-1 #
coedge $-1 $226 $281 $151 $216 reversed $156 $-1 #
edge $-1 $220 -15 $282 25 $215 $283 forward 7 unknown #
coedge $-1 $241 $240 $152 $218 forward $228 $-1 #
edge $-1 $221 -15 $284 25 $152 $285 forward 7 unknown #
coedge $-1 $153 $259 $226 $286 forward $170 $-1 #
vertex $-1 $154 $287 #
vertex $-1 $244 $288 #
straight-curve $-1 0 -40 25 -1 0 0 I I #
face $-1 $91 $205 $2 $-1 $289 reversed single #
loop $-1 $-1 $274 $155 #
plane-surface $-1 -67.50000000000009948 -38.34936490538869691 0 -0.4999999999999921174 -0.8660254037844432595 0 0 0 1 forward_v I I I I #
coedge $-1 $290 $215 $219 $286 reversed $156 $-1 #
face $-1 $183 $291 $2 $-1 $292 forward single #
loop $-1 $-1 $240 $158 #
plane-surface $-1 -62.50000000000009948 -29.68911086754420126 10 -0.4999999999999921174 -0.8660254037844432595 0 0 0 1 forward_v I I I I #
coedge $-1 $230 $230 $162 $232 forward $159 $-1 #
coedge $-1 $231 $231 $293 $294 reversed $161 $-1 #
edge $-1 $295 0 $295 6.283185307179586232 $230 $296 forward 7 unknown #
coedge $-1 $189 $270 $163 $234 forward $205 $-1 #
edge $-1 $297 -19.58548115672639867 $191 50 $163 $298 forward 7 unknown #
coedge $-1 $275 $274 $164 $236 reversed $224 $-1 #
edge $-1 $297 -25 $238 25 $164 $299 forward 7 unknown #
coedge $-1 $260 $165 $274 $300 forward $170 $-1 #
vertex $-1 $166 $301 #
straight-curve $-1 -100 0 25 0 -1 0 I I #
coedge $-1 $217 $167 $169 $244 reversed $228 $-1 #
coedge $-1 $167 $217 $246 $302 forward $228 $-1 #
vertex $-1 $168 $303 #
straight-curve $-1 -90 -13.81197846483000014 10 0 0 1 I I #
edge $-1 $221 -0.9807621135339017471 $171 51.39528095680702791 $169 $304 forward 7 unknown #
point $-1 -90 -13.81197846483000014 25 #
coedge $-1 $279 $173 $241 $302 reversed $177 $-1 #
straight-curve $-1 -90 0 -15 0 1 0 I I #
coedge $-1 $176 $305 $306 $307 reversed $177 $-1 #
coedge $-1 $306 $308 $180 $250 forward $309 $-1 #
edge $-1 $310 -15 $251 25 $180 $311 forward 7 unknown #
vertex $-1 $307 $312 #
straight-curve $-1 40 40 -15 0 -1 0 I I #
edge $-1 $185 15 $310 20 $193 $313 forward 7 unknown #
face $-1 $56 $309 $2 $-1 $314 reversed single #
plane-surface $-1 40 80 10 1 0 0 0 0 -1 forward_v I I I I #
point $-1 40 25 25 #
straight-curve $-1 0 50 -25 1 0 0 I I #
point $-1 -100 50 -25 #
coedge $-1 $219 $193 $308 $315 forward $170 $-1 #
coedge $-1 $194 $237 $210 $273 forward $170 $-1 #
coedge $-1 $210 $209 $195 $262 reversed $94 $-1 #
edge $-1 $263 -25 $316 25 $195 $317 forward 7 unknown #
vertex $-1 $196 $318 #
straight-curve $-1 100 0 25 0 1 0 I I #
coedge $-1 $271 $199 $197 $266 forward $205 $-1 #
edge $-1 $201 -30 $316 50 $197 $319 forward 7 unknown #
straight-curve $-1 50 30 -25 1 0 0 I I #
point $-1 100 30 -25 #
plane-surface $-1 0 0 25 0 0 1 1 0 0 forward_v I I I I #
coedge $-1 $233 $271 $275 $320 forward $205 $-1 #
coedge $-1 $270 $265 $209 $272 forward $205 $-1 #
edge $-1 $316 -100 $277 47.32050807568789708 $209 $321 forward 7 unknown #
edge $-1 $276 -47.32050807568789708 $263 100 $210 $322 forward 7 unknown #
coedge $-1 $235 $211 $237 $300 reversed $224 $-1 #
coedge $-1 $211 $235 $270 $320 reversed $224 $-1 #
vertex $-1 $300 $323 #
vertex $-1 $272 $324 #
straight-curve $-1 -47.32050807568789708 -50 0 0 0 -1 I I #
coedge $-1 $305 $246 $214 $280 reversed $177 $-1 #
edge $-1 $282 -90 $284 44.64101615137659707 $214 $325 forward 7 unknown #
coedge $-1 $215 $290 $305 $326 forward $156 $-1 #
vertex $-1 $216 $327 #
straight-curve $-1 90 -40 10 0 0 -1 I I #
vertex $-1 $280 $328 #
straight-curve $-1 -44.64101615137659707 -40 10 0 0 -1 I I #
edge $-1 $329 -20 $220 40 $219 $330 forward 7 unknown #
point $-1 90 -40 25 #
point $-1 -44.64101615137659707 -40 25 #
plane-surface $-1 0 0 -25 0 0 1 1 0 0 forward_v I I I I #
coedge $-1 $281 $226 $331 $332 reversed $156 $-1 #
loop $-1 $177 $293 $227 #
plane-surface $-1 0 0 -15 0 0 1 1 0 0 forward_v I I I I #
coedge $-1 $293 $293 $231 $294 forward $291 $-1 #
edge $-1 $333 -3.141592653589799777 $333 3.141592653589786455 $293 $334 forward 7 unknown #
vertex $-1 $232 $335 #
ellipse-curve $-1 -50 0 20 0 0 1 15 0 0 1 I I #
vertex $-1 $236 $336 #
straight-curve $-1 -100 0 -25 0 1 0 I I #
straight-curve $-1 -100 -19.58548115672639867 0 -0 0 1 I I #
edge $-1 $238 -57.16878364870335361 $276 3.660254037844921982 $237 $337 forward 7 unknown #
point $-1 -100 -19.58548115672639867 25 #
edge $-1 $284 -0.9807621135339017471 $242 51.39528095680702791 $246 $338 forward 7 unknown #
point $-1 -90 -13.81197846483000014 -15 #
straight-curve $-1 -45.49038105676630295 -39.5096189432331002 25 -0.8660254037844430375 0.4999999999999920064 0 I I #
coedge $-1 $248 $279 $281 $326 reversed $177 $-1 #
coedge $-1 $331 $249 $248 $307 forward $309 $-1 #
edge $-1 $251 -10 $339 40 $248 $340 forward 7 unknown #
coedge $-1 $249 $331 $259 $315 reversed $309 $-1 #
loop $-1 $-1 $308 $254 #
vertex $-1 $253 $341 #
straight-curve $-1 40 20 10 0 0 -1 I I #
point $-1 40 20 -15 #
straight-curve $-1 40 40 25 0 -1 0 I I #
plane-surface $-1 100 20 10 0 1 0 0 0 1 forward_v I I I I #
edge $-1 $310 -10 $329 40 $259 $342 forward 7 unknown #
vertex $-1 $262 $343 #
straight-curve $-1 100 -50 0 0 0 -1 I I #
point $-1 100 -50 25 #
straight-curve $-1 100 0 -25 0 -1 0 I I #
edge $-1 $277 -3.660254037844921982 $297 57.16878364870335361 $270 $344 forward 7 unknown #
straight-curve $-1 0 -50 -25 -1 0 0 I I #
straight-curve $-1 0 -50 25 1 0 0 I I #
point $-1 -47.32050807568789708 -50 25 #
point $-1 -47.32050807568789708 -50 -25 #
straight-curve $-1 0 -40 -15 -1 0 0 I I #
edge $-1 $339 -20 $282 40 $281 $345 forward 7 unknown #
point $-1 90 -40 -15 #
point $-1 -44.64101615137659707 -40 -15 #
vertex $-1 $315 $346 #
straight-curve $-1 90 0 25 0 -1 0 I I #
coedge $-1 $308 $306 $290 $332 forward $309 $-1 #
edge $-1 $339 -25 $329 15 $290 $347 forward 7 unknown #
vertex $-1 $294 $348 #
ellipse-curve $-1 -50 0 -15 -0 -0 -1 15 0 0 1 I I #
point $-1 -35 0 20 #
point $-1 -100 -19.58548115672639867 -25 #
straight-curve $-1 -50.49038105676620347 -48.16987298107760296 25 0.8660254037844430375 -0.4999999999999920064 0 I I #
straight-curve $-1 -45.49038105676630295 -39.5096189432331002 -15 -0.8660254037844430375 0.4999999999999920064 0 I I #
vertex $-1 $307 $349 #
straight-curve $-1 50 20 -15 1 0 0 I I #
point $-1 40 20 25 #
straight-curve $-1 50 20 25 1 0 0 I I #
point $-1 100 -50 -25 #
straight-curve $-1 -50.49038105676620347 -48.16987298107760296 -25 -0.8660254037844430375 0.4999999999999920064 0 I I #
straight-curve $-1 90 0 -15 0 -1 0 I I #
point $-1 90 20 25 #
straight-curve $-1 90 20 10 0 0 1 I I #
point $-1 -65 -1.047444401652940007e-13 -15 #
point $-1 90 20 -15 #
End-of-ACIS-data 