600 0 2 0           
24 FBMach with ACIS - 6.0.3 13 ACIS 6.0.3 NT 24 Tue May 22 16:48:34 2001 
1 9.9999999999999995e-007 1e-010 
body $2 $3 $-1 $4 #
bdycol-kcp $-1 1 6 $5 $6 $7 $8 $9 $10 #
model_id-kcp-attrib $-1 $-1 $-1 $0 1 990564513 70 1548091393 1 #
lump $-1 $-1 $11 $0 #
transform $-1 1 0 0 0 1 0 0 0 1 0 0 0 1 no_rotate no_reflect no_shear #
body $12 $13 $-1 $14 #
body $15 $16 $-1 $17 #
body $18 $19 $-1 $20 #
body $21 $22 $-1 $23 #
body $24 $25 $-1 $26 #
body $27 $28 $-1 $29 #
shell $-1 $-1 $-1 $30 $-1 $3 #
model_id-kcp-attrib $-1 $-1 $-1 $5 1 990564513 70 1548091394 1 #
lump $-1 $-1 $31 $5 #
transform $-1 1 0 0 0 1 0 0 0 1 0 -1.7763568394002505e-014 1.7408297026122455e-013 1 no_rotate no_reflect no_shear #
rgb_color-st-attrib $-1 $32 $-1 $6 0.5 1 1 #
lump $-1 $-1 $33 $6 #
transform $-1 1 0 0 0 -3.8285889215894375e-016 1 0 -1 -3.8285889215894375e-016 20 -45 5 1 rotate no_reflect no_shear #
rgb_color-st-attrib $-1 $34 $-1 $7 0.5 1 1 #
lump $-1 $-1 $35 $7 #
transform $-1 1 0 0 0 1 0 0 0 1 0 -1.7763568394002505e-014 1.7408297026122455e-013 1 no_rotate no_reflect no_shear #
rgb_color-st-attrib $-1 $36 $-1 $8 0.5 0.5 1 #
lump $-1 $-1 $37 $8 #
transform $-1 1 0 0 0 1 0 0 0 1 0 -1.7763568394002505e-014 1.7408297026122455e-013 1 no_rotate no_reflect no_shear #
rgb_color-st-attrib $-1 $38 $-1 $9 0 0 1 #
lump $-1 $-1 $39 $9 #
transform $-1 1 0 0 0 1 0 0 0 1 0 -1.7763568394002505e-014 1.7408297026122455e-013 1 no_rotate no_reflect no_shear #
rgb_color-st-attrib $-1 $40 $-1 $10 1 0.5 1 #
lump $-1 $-1 $41 $10 #
transform $-1 1 0 0 0 1 0 0 0 1 0 -1.7763568394002505e-014 1.7408297026122455e-013 1 no_rotate no_reflect no_shear #
face $42 $43 $44 $11 $-1 $45 reversed single #
shell $-1 $-1 $-1 $46 $-1 $13 #
model_id-kcp-attrib $-1 $-1 $15 $6 1 990564513 120 1551368195 1 #
shell $-1 $-1 $-1 $47 $-1 $16 #
model_id-kcp-attrib $-1 $-1 $18 $7 1 990564513 430 1554907140 1 #
shell $-1 $-1 $-1 $48 $-1 $19 #
model_id-kcp-attrib $-1 $-1 $21 $8 1 990564513 500 1559494661 1 #
shell $-1 $-1 $-1 $49 $-1 $22 #
model_id-kcp-attrib $-1 $-1 $24 $9 1 990564513 731 1557856262 1 #
shell $-1 $-1 $-1 $50 $-1 $25 #
model_id-kcp-attrib $-1 $-1 $27 $10 1 990564513 991 1558118407 1 #
shell $-1 $-1 $-1 $51 $-1 $28 #
model_id-kcp-attrib $-1 $-1 $-1 $30 1 990564513 70 1548091393 2 #
face $52 $53 $54 $11 $-1 $55 reversed single #
loop $56 $57 $58 $30 #
cone-surface $-1 20 -45 5 0 -1 -3.4914813388431298e-015 10 0 0 1 I I 0 1 10 forward I I I I #
face $59 $60 $61 $31 $-1 $62 forward single #
face $-1 $63 $64 $33 $-1 $65 forward single #
face $-1 $66 $67 $35 $-1 $68 reversed single #
face $-1 $69 $70 $37 $-1 $71 reversed single #
face $-1 $72 $73 $39 $-1 $74 forward single #
face $-1 $75 $76 $41 $-1 $77 forward single #
model_id-kcp-attrib $-1 $-1 $-1 $43 1 990564513 70 1548091393 3 #
face $78 $79 $80 $11 $-1 $81 forward single #
loop $-1 $-1 $82 $43 #
cone-surface $-1 0 50 25 -1 0 -3.4914813388431298e-015 -8.7287033471078296e-014 0 25 1 I I 0 1 25 forward I I I I #
model_id-kcp-attrib $-1 $-1 $-1 $44 1 990564513 70 1548091393 30 #
loop $83 $-1 $84 $30 #
coedge $-1 $58 $58 $85 $86 reversed $44 $-1 #
model_id-kcp-attrib $-1 $-1 $-1 $46 1 990564513 70 1548091394 5 #
face $87 $88 $89 $31 $-1 $90 reversed single #
loop $-1 $-1 $91 $46 #
plane-surface $-1 0 0 25.000000000000174 0 0 1 1 0 0 forward_v I I I I #
face $-1 $92 $93 $33 $-1 $94 forward single #
loop $-1 $95 $96 $47 #
cone-surface $-1 0 0 0 0 0 1 10 0 0 1 I I 0 1 10 forward I I I I #
face $-1 $97 $98 $35 $-1 $99 reversed single #
loop $-1 $-1 $100 $48 #
cone-surface $-1 -100 50.000000000000014 25.000000000000124 -1 0 0 0 -20.000000000000004 -14.999999999999996 1 I I 0 -1 25 forward I I I I #
face $-1 $101 $102 $37 $-1 $103 reversed single #
loop $-1 $-1 $104 $49 #
plane-surface $-1 -73.660254037843913 -34.792740578363123 -1.7408297026122455e-013 -0.49999999999999212 -0.86602540378444326 0 0.86602540378444326 -0.49999999999999212 0 forward_v I I I I #
face $-1 $105 $106 $39 $-1 $107 forward single #
loop $-1 $108 $109 $50 #
cone-surface $-1 -50 1.7763568394002505e-014 -15.000000000000171 0 0 1 15 0 0 1 I I 0 -1 15 forward I I I I #
face $-1 $110 $111 $41 $-1 $112 forward single #
loop $-1 $-1 $113 $51 #
cone-surface $-1 -100 50.000000000000014 25.000000000000124 -1 0 0 0 -20.000000000000004 -14.999999999999996 1 I I 0 -1 25 forward I I I I #
model_id-kcp-attrib $-1 $-1 $-1 $53 1 990564513 70 1548091393 4 #
face $114 $115 $116 $11 $-1 $117 forward single #
loop $-1 $-1 $118 $53 #
plane-surface $-1 0 40 10 0 -1 0 0 0 -1 forward_v I I I I #
coedge $-1 $119 $120 $121 $122 reversed $54 $-1 #
model_id-kcp-attrib $-1 $-1 $-1 $57 1 990564513 70 1548091393 31 #
coedge $-1 $84 $84 $123 $124 reversed $57 $-1 #
coedge $-1 $85 $85 $58 $86 forward $125 $-1 #
edge $126 $127 -3.1415926535897998 $127 3.1415926535897865 $85 $128 forward 7 unknown #
model_id-kcp-attrib $-1 $-1 $-1 $60 1 990564513 70 1548091394 4 #
face $129 $130 $131 $31 $-1 $132 reversed single #
loop $-1 $-1 $133 $60 #
plane-surface $-1 0 0 -25.000000000000174 0 0 1 1 0 0 forward_v I I I I #
coedge $-1 $134 $135 $136 $137 forward $61 $-1 #
face $-1 $-1 $138 $33 $-1 $139 forward single #
loop $-1 $-1 $140 $63 #
plane-surface $-1 0 0 -5.0000000000000071 0 0 -1 -1 0 0 forward_v I I I I #
loop $-1 $-1 $141 $47 #
coedge $-1 $96 $96 $140 $142 reversed $64 $-1 #
face $-1 $143 $144 $35 $-1 $145 forward single #
loop $-1 $-1 $146 $66 #
plane-surface $-1 -100 0 0 1 0 0 0 0 -1 forward_v I I I I #
coedge $-1 $147 $148 $146 $149 reversed $67 $-1 #
face $-1 $150 $151 $37 $-1 $152 reversed single #
loop $-1 $-1 $153 $69 #
plane-surface $-1 -100 0 0 1 0 0 0 0 -1 forward_v I I I I #
coedge $-1 $154 $155 $156 $157 forward $70 $-1 #
face $-1 $158 $159 $39 $-1 $160 forward single #
loop $-1 $-1 $161 $72 #
plane-surface $-1 90 -39.999999999999986 -15.000000000000174 0 -1 0 0 0 -1 forward_v I I I I #
loop $-1 $-1 $162 $50 #
coedge $-1 $109 $109 $163 $164 forward $73 $-1 #
face $-1 $165 $166 $41 $-1 $167 forward single #
loop $-1 $-1 $168 $75 #
plane-surface $-1 100 30.000000000000028 -25.000000000000171 1 0 0 0 0 -1 forward_v I I I I #
coedge $-1 $169 $170 $171 $172 forward $76 $-1 #
model_id-kcp-attrib $-1 $-1 $-1 $79 1 990564513 70 1548091393 5 #
face $173 $174 $175 $11 $-1 $176 reversed single #
loop $-1 $-1 $177 $79 #
plane-surface $-1 -90 0 10 1 0 0 0 0 -1 forward_v I I I I #
coedge $-1 $178 $179 $180 $181 forward $80 $-1 #
coedge $-1 $182 $82 $183 $184 reversed $54 $-1 #
coedge $-1 $82 $185 $186 $187 reversed $54 $-1 #
coedge $-1 $188 $189 $82 $122 forward $190 $-1 #
edge $-1 $191 -3.1415926535897931 $192 -2.2142974355881808 $121 $193 forward 7 unknown #
coedge $-1 $123 $123 $84 $124 forward $194 $-1 #
edge $195 $196 -3.1415926535897998 $196 3.1415926535897865 $123 $197 forward 7 unknown #
loop $198 $199 $85 $200 #
attrib_edge_convexity-kcp-attrib $-1 $201 $-1 $86 1 #
vertex $-1 $86 $202 #
ellipse-curve $-1 20 -40 5.0000000000000204 0 -1 0 10 0 0 1 I I #
model_id-kcp-attrib $-1 $-1 $-1 $88 1 990564513 70 1548091394 6 #
face $203 $204 $205 $31 $-1 $206 reversed single #
loop $-1 $-1 $207 $88 #
plane-surface $-1 0 -50.000000000000014 0 0 1 0 0 0 1 forward_v I I I I #
coedge $-1 $208 $209 $210 $211 forward $89 $-1 #
coedge $-1 $212 $91 $213 $214 forward $61 $-1 #
coedge $-1 $91 $212 $215 $216 forward $61 $-1 #
coedge $-1 $217 $218 $91 $137 reversed $219 $-1 #
edge $-1 $220 -50.000000000000014 $221 50.000000000000014 $136 $222 forward 7 unknown #
loop $-1 $-1 $223 $92 #
plane-surface $-1 0 0 5.0000000000000071 0 0 1 1 0 0 forward_v I I I I #
coedge $-1 $140 $140 $96 $142 forward $93 $-1 #
coedge $-1 $141 $141 $223 $224 reversed $95 $-1 #
edge $-1 $225 0 $225 6.2831853071795862 $140 $226 forward 7 unknown #
face $-1 $227 $228 $35 $-1 $229 reversed single #
loop $-1 $-1 $230 $97 #
plane-surface $-1 0 0 25.000000000000174 0 0 1 1 0 0 forward_v I I I I #
coedge $-1 $231 $232 $100 $149 forward $98 $-1 #
coedge $-1 $233 $100 $234 $235 reversed $67 $-1 #
coedge $-1 $100 $233 $230 $236 reversed $67 $-1 #
edge $-1 $237 -0.92729521800161241 $238 0.64350110879328615 $146 $239 forward 7 unknown #
face $-1 $240 $241 $37 $-1 $242 forward single #
loop $-1 $-1 $156 $101 #
plane-surface $-1 0 0 -25.000000000000174 0 0 1 1 0 0 forward_v I I I I #
coedge $-1 $243 $244 $154 $245 reversed $102 $-1 #
coedge $-1 $246 $104 $153 $245 forward $70 $-1 #
coedge $-1 $104 $246 $247 $248 forward $70 $-1 #
coedge $-1 $249 $250 $104 $157 reversed $151 $-1 #
edge $251 $252 -7.2168783648706851 $253 53.612159321677773 $156 $254 forward 7 unknown #
face $-1 $255 $256 $39 $-1 $257 forward single #
loop $-1 $-1 $258 $105 #
plane-surface $-1 -44.64101615137659 -39.999999999999986 -15.000000000000174 -0.49999999999999212 -0.86602540378444326 0 0 0 -1 forward_v I I I I #
coedge $-1 $259 $260 $261 $262 forward $106 $-1 #
coedge $-1 $162 $162 $263 $264 reversed $108 $-1 #
coedge $-1 $163 $163 $109 $164 reversed $265 $-1 #
edge $-1 $266 -3.1415926535897865 $266 3.1415926535897998 $109 $267 forward 7 unknown #
face $-1 $268 $269 $41 $-1 $270 forward single #
loop $-1 $-1 $171 $110 #
plane-surface $-1 50 30.000000000000018 10.000000000000027 -1 0 0 0 0 1 forward_v I I I I #
coedge $-1 $271 $272 $273 $274 reversed $111 $-1 #
coedge $-1 $273 $113 $275 $276 reversed $76 $-1 #
coedge $-1 $113 $273 $277 $278 forward $76 $-1 #
coedge $-1 $279 $280 $113 $172 reversed $166 $-1 #
edge $-1 $281 -0.92729521800161241 $282 -3.3651303965598271e-015 $171 $283 forward 7 unknown #
model_id-kcp-attrib $-1 $284 $-1 $115 1 990564513 70 1548091393 23 #
face $285 $286 $287 $11 $-1 $288 reversed single #
loop $-1 $-1 $289 $115 #
plane-surface $-1 -100 0 0 1 0 0 0 0 -1 forward_v I I I I #
coedge $-1 $290 $291 $292 $293 forward $116 $-1 #
coedge $-1 $294 $118 $291 $295 forward $80 $-1 #
coedge $-1 $118 $294 $296 $297 reversed $80 $-1 #
coedge $-1 $298 $292 $118 $181 reversed $54 $-1 #
edge $-1 $299 -39.999999999999922 $300 90.000000000000085 $118 $301 forward 7 unknown #
coedge $-1 $302 $119 $289 $303 reversed $54 $-1 #
coedge $-1 $304 $305 $119 $184 forward $287 $-1 #
edge $306 $307 -100.00000000000009 $191 49.999999999999915 $183 $308 forward 7 unknown #
coedge $-1 $120 $309 $310 $311 reversed $54 $-1 #
coedge $-1 $312 $313 $120 $187 forward $314 $-1 #
edge $-1 $192 49.99999999999995 $315 99.999999999999943 $186 $316 forward 7 unknown #
coedge $-1 $317 $121 $313 $318 forward $190 $-1 #
coedge $-1 $121 $317 $304 $319 reversed $190 $-1 #
loop $-1 $-1 $121 $320 #
vertex $-1 $122 $321 #
vertex $-1 $122 $322 #
ellipse-curve $-1 49.999999999999901 50 25.000000000000199 -1 0 0 -8.7287033471078296e-014 0 25 1 I I #
loop $323 $324 $123 $325 #
attrib_edge_convexity-kcp-attrib $-1 $326 $-1 $124 1 #
vertex $-1 $124 $327 #
ellipse-curve $-1 20 -50 4.9999999999999796 0 1 0 10 0 0 1 I I #
model_id-kcp-attrib $-1 $-1 $-1 $125 1 990564513 70 1548091393 32 #
loop $-1 $-1 $328 $200 #
face $329 $330 $125 $11 $-1 $331 forward single #
convexity-sys-attrib $-1 $-1 $126 $86 #
point $-1 10 -40 5.0000000000000897 #
model_id-kcp-attrib $-1 $-1 $-1 $130 1 990564513 70 1548091394 2 #
face $332 $333 $334 $31 $-1 $335 reversed single #
loop $-1 $-1 $336 $130 #
plane-surface $-1 -100 0 0 1 0 0 0 0 -1 forward_v I I I I #
coedge $-1 $337 $215 $338 $339 forward $131 $-1 #
coedge $-1 $340 $133 $337 $341 forward $89 $-1 #
coedge $-1 $133 $340 $342 $343 forward $89 $-1 #
coedge $-1 $218 $217 $133 $211 reversed $219 $-1 #
edge $-1 $344 -50.000000000000014 $345 50.000000000000014 $210 $346 forward 7 unknown #
coedge $-1 $135 $134 $347 $348 forward $61 $-1 #
coedge $-1 $349 $350 $134 $214 reversed $334 $-1 #
edge $-1 $221 -100 $351 100 $213 $352 forward 7 unknown #
coedge $-1 $207 $353 $135 $216 reversed $131 $-1 #
edge $-1 $354 -100 $220 100 $215 $355 forward 7 unknown #
coedge $-1 $210 $136 $353 $356 forward $219 $-1 #
coedge $-1 $136 $210 $349 $357 reversed $219 $-1 #
loop $-1 $-1 $217 $333 #
vertex $-1 $137 $358 #
vertex $-1 $137 $359 #
straight-curve $-1 100 0 25.000000000000174 0 1 0 I I #
coedge $-1 $223 $223 $141 $224 forward $138 $-1 #
edge $-1 $360 0 $360 6.2831853071795862 $223 $361 forward 7 unknown #
vertex $-1 $142 $362 #
ellipse-curve $-1 0 0 -5.0000000000000071 0 0 -1 10 0 0 1 I I #
face $-1 $-1 $363 $35 $-1 $364 reversed single #
loop $-1 $-1 $234 $143 #
plane-surface $-1 0 50.000000000000014 0 0 -1 0 0 0 -1 forward_v I I I I #
coedge $-1 $365 $366 $148 $236 forward $144 $-1 #
coedge $-1 $232 $146 $366 $367 reversed $98 $-1 #
coedge $-1 $146 $231 $368 $369 forward $98 $-1 #
coedge $-1 $148 $147 $370 $371 reversed $67 $-1 #
coedge $-1 $368 $372 $147 $235 forward $228 $-1 #
edge $-1 $373 -200 $237 0 $234 $374 forward 7 unknown #
edge $-1 $238 0 $375 200 $230 $376 forward 7 unknown #
vertex $-1 $149 $377 #
vertex $-1 $236 $378 #
ellipse-curve $-1 -100 50.000000000000014 25.000000000000124 -1 0 0 0 -20.000000000000004 -14.999999999999996 1 I I #
face $-1 $-1 $379 $37 $-1 $380 reversed single #
loop $-1 $-1 $381 $150 #
plane-surface $-1 0 0 25.000000000000174 0 0 1 1 0 0 forward_v I I I I #
coedge $-1 $382 $153 $250 $383 reversed $102 $-1 #
coedge $-1 $153 $382 $384 $385 reversed $102 $-1 #
edge $386 $253 -25.000000000000085 $387 25.000000000000263 $153 $388 forward 7 unknown #
coedge $-1 $155 $154 $381 $389 forward $70 $-1 #
coedge $-1 $390 $391 $155 $248 reversed $379 $-1 #
edge $392 $393 -25.000000000000263 $252 25.000000000000085 $247 $394 forward 7 unknown #
coedge $-1 $250 $156 $391 $395 forward $151 $-1 #
coedge $-1 $156 $249 $243 $383 forward $151 $-1 #
convexity-sys-attrib $-1 $-1 $-1 $157 #
vertex $-1 $395 $396 #
vertex $-1 $157 $397 #
straight-curve $-1 -53.57050807568811 -46.391560817564731 -25.000000000000178 -0.86602540378444326 0.49999999999999212 0 I I #
face $-1 $398 $399 $39 $-1 $400 forward single #
loop $-1 $-1 $401 $158 #
plane-surface $-1 -90 -13.811978464829981 -15.000000000000174 -1 0 0 0 0 1 forward_v I I I I #
coedge $-1 $402 $403 $404 $405 forward $159 $-1 #
coedge $-1 $406 $161 $403 $407 reversed $106 $-1 #
coedge $-1 $161 $406 $408 $409 forward $106 $-1 #
coedge $-1 $410 $404 $161 $262 reversed $411 $-1 #
edge $-1 $412 -90 $413 44.64101615137659 $161 $414 forward 7 unknown #
coedge $-1 $263 $263 $162 $264 forward $415 $-1 #
edge $-1 $416 -3.1415926535897865 $416 3.1415926535897998 $162 $417 forward 7 unknown #
loop $-1 $-1 $163 $418 #
vertex $-1 $164 $419 #
ellipse-curve $-1 -50 1.7763568394002505e-014 2.0871215252203186 0 0 1 15 0 0 1 I I #
face $-1 $420 $421 $41 $-1 $422 forward single #
loop $-1 $-1 $423 $165 #
plane-surface $-1 50 30.000000000000018 -25.000000000000171 0 0 -1 -1 0 0 forward_v I I I I #
coedge $-1 $424 $168 $425 $426 reversed $111 $-1 #
coedge $-1 $168 $424 $427 $428 forward $111 $-1 #
coedge $-1 $170 $169 $168 $274 forward $76 $-1 #
edge $-1 $429 1.1823431123048067e-015 $430 0.92729521800161241 $168 $431 forward 7 unknown #
coedge $-1 $432 $425 $169 $276 forward $433 $-1 #
edge $434 $429 -200 $282 -150 $275 $435 forward 7 unknown #
coedge $-1 $427 $436 $170 $278 reversed $421 $-1 #
edge $-1 $430 -200 $281 -150 $277 $437 forward 7 unknown #
coedge $-1 $438 $171 $436 $439 forward $166 $-1 #
coedge $-1 $171 $438 $432 $440 reversed $166 $-1 #
vertex $-1 $439 $441 #
vertex $-1 $440 $442 #
ellipse-curve $-1 50 50.000000000000014 25.000000000000124 -1 0 0 0 -20.000000000000004 -14.999999999999996 1 I I #
model_id-kcp-attrib $-1 $-1 $173 $115 1 990564513 70 1548091393 6 #
model_id-kcp-attrib $-1 $-1 $-1 $174 1 990564513 70 1548091393 7 #
face $443 $444 $445 $11 $-1 $446 forward single #
loop $-1 $-1 $183 $174 #
plane-surface $-1 0 50 0 0 -1 0 0 0 -1 forward_v I I I I #
coedge $-1 $447 $448 $182 $303 forward $175 $-1 #
coedge $-1 $449 $177 $450 $451 reversed $116 $-1 #
coedge $-1 $177 $452 $178 $295 reversed $116 $-1 #
coedge $-1 $180 $302 $177 $293 reversed $54 $-1 #
edge $-1 $300 -2.7300758075223053 $453 -1.5707963267948848 $177 $454 forward 7 unknown #
coedge $-1 $179 $178 $455 $456 forward $80 $-1 #
edge $-1 $300 7.91287847477951 $457 25 $178 $458 forward 7 unknown #
coedge $-1 $459 $460 $179 $297 forward $461 $-1 #
edge $-1 $299 7.9128784747790597 $462 25 $179 $463 forward 7 unknown #
coedge $-1 $309 $180 $460 $464 reversed $54 $-1 #
vertex $-1 $464 $465 #
vertex $-1 $293 $466 #
straight-curve $-1 7.9999887613872095e-014 40 2.0871215252208 -1 0 -3.4914813388431298e-015 I I #
coedge $-1 $292 $182 $467 $468 reversed $54 $-1 #
edge $469 $470 1.5707963267948848 $307 3.1415926535897931 $289 $471 forward 7 unknown #
coedge $-1 $472 $183 $189 $319 forward $287 $-1 #
coedge $-1 $183 $472 $447 $473 reversed $287 $-1 #
attrib_edge_convexity-kcp-attrib $-1 $474 $-1 $184 1 #
vertex $-1 $184 $475 #
straight-curve $-1 8.7287033471078296e-014 50 0 1 0 3.4914813388431298e-015 I I #
coedge $-1 $185 $298 $476 $477 reversed $54 $-1 #
coedge $-1 $478 $479 $185 $311 forward $480 $-1 #
edge $-1 $315 -2.2142974355881808 $481 -1.5707963267949085 $310 $482 forward 7 unknown #
coedge $-1 $483 $186 $479 $484 reversed $314 $-1 #
coedge $-1 $186 $483 $188 $318 reversed $314 $-1 #
loop $-1 $-1 $186 $485 #
vertex $-1 $484 $486 #
straight-curve $-1 5.1361267492713201e-014 30 10 1 0 3.4914813388431298e-015 I I #
coedge $-1 $189 $188 $487 $488 reversed $190 $-1 #
edge $-1 $192 -10.000000000000201 $489 25 $188 $490 forward 7 unknown #
edge $491 $191 -1.7457406694215601e-013 $492 25 $304 $493 forward 7 unknown #
face $494 $485 $190 $11 $-1 $495 forward single #
point $-1 50 50 1.7457406694215601e-013 #
point $-1 50 30 10.000000000000201 #
model_id-kcp-attrib $-1 $-1 $-1 $194 1 990564513 70 1548091393 33 #
loop $-1 $-1 $496 $325 #
face $497 $498 $194 $11 $-1 $499 reversed single #
convexity-sys-attrib $-1 $-1 $195 $124 #
point $-1 10 -50 4.9999999999999103 #
coedge $-1 $500 $501 $502 $503 reversed $199 $-1 #
model_id-kcp-attrib $-1 $-1 $-1 $200 1 990564513 70 1548091393 14 #
face $504 $505 $506 $11 $-1 $507 forward single #
plane-surface $-1 0 -40 10 0 1 0 0 0 1 forward_v I I I I #
model_id-kcp-attrib $-1 $-1 $-1 $204 1 990564513 70 1548091394 3 #
face $508 $-1 $219 $31 $-1 $509 reversed single #
loop $-1 $-1 $349 $204 #
plane-surface $-1 0 50.000000000000014 0 0 -1 0 0 0 -1 forward_v I I I I #
coedge $-1 $510 $347 $350 $511 forward $205 $-1 #
coedge $-1 $353 $207 $208 $341 reversed $131 $-1 #
coedge $-1 $347 $510 $207 $339 reversed $205 $-1 #
edge $-1 $354 -25.000000000000174 $512 25.000000000000174 $338 $513 forward 7 unknown #
coedge $-1 $209 $208 $510 $514 forward $89 $-1 #
edge $-1 $345 -100 $512 100 $337 $515 forward 7 unknown #
coedge $-1 $350 $349 $209 $343 reversed $334 $-1 #
edge $-1 $516 -100 $344 100 $342 $517 forward 7 unknown #
vertex $-1 $211 $518 #
vertex $-1 $356 $519 #
straight-curve $-1 100 0 -25.000000000000174 0 -1 0 I I #
coedge $-1 $336 $338 $212 $348 reversed $205 $-1 #
edge $-1 $351 -50.000000000000014 $354 50.000000000000014 $347 $520 forward 7 unknown #
coedge $-1 $342 $213 $218 $357 forward $334 $-1 #
coedge $-1 $213 $342 $336 $511 reversed $334 $-1 #
vertex $-1 $214 $521 #
straight-curve $-1 0 50.000000000000014 25.000000000000174 -1 0 0 I I #
coedge $-1 $215 $337 $217 $356 reversed $131 $-1 #
vertex $-1 $348 $522 #
straight-curve $-1 0 -50.000000000000014 25.000000000000174 1 0 0 I I #
edge $-1 $220 -25.000000000000174 $345 25.000000000000174 $217 $523 forward 7 unknown #
edge $-1 $221 -25.000000000000174 $344 25.000000000000174 $218 $524 forward 7 unknown #
point $-1 100 -50.000000000000014 25.000000000000174 #
point $-1 100 50.000000000000014 25.000000000000174 #
vertex $-1 $224 $525 #
ellipse-curve $-1 0 0 5.0000000000000071 0 0 1 10 0 0 1 I I #
point $-1 10 0 -5.0000000000000071 #
loop $-1 $-1 $370 $227 #
plane-surface $-1 100 0 0 -1 0 0 0 0 1 forward_v I I I I #
coedge $-1 $526 $230 $527 $528 forward $144 $-1 #
coedge $-1 $230 $526 $231 $367 forward $144 $-1 #
edge $-1 $529 -50.000000000000014 $238 -25.000000000000014 $231 $530 forward 7 unknown #
coedge $-1 $531 $234 $232 $369 reversed $228 $-1 #
edge $-1 $529 -25.000000000000174 $237 0 $368 $532 forward 7 unknown #
coedge $-1 $533 $527 $233 $371 forward $363 $-1 #
edge $-1 $375 -0.64350110879328615 $373 0.92729521800161241 $370 $534 forward 7 unknown #
coedge $-1 $234 $531 $533 $535 forward $228 $-1 #
vertex $-1 $371 $536 #
straight-curve $-1 -100 50.000000000000014 1.2434497875801753e-013 -1 0 0 I I #
vertex $-1 $528 $537 #
straight-curve $-1 -100 25.000000000000014 25.000000000000174 1 0 0 I I #
point $-1 -100 50.000000000000014 0 #
point $-1 -100 25.000000000000014 25.000000000000174 #
loop $-1 $-1 $247 $240 #
plane-surface $-1 0 -50.000000000000014 0 0 1 0 0 0 1 forward_v I I I I #
coedge $-1 $384 $538 $246 $389 reversed $241 $-1 #
coedge $-1 $244 $243 $539 $540 reversed $102 $-1 #
edge $-1 $541 -50.000000000000014 $253 -19.585481156726267 $243 $542 forward 7 unknown #
coedge $-1 $538 $381 $244 $385 forward $241 $-1 #
edge $-1 $387 19.585481156726267 $543 50.000000000000014 $244 $544 forward 7 unknown #
convexity-sys-attrib $-1 $-1 $-1 $245 #
vertex $-1 $385 $545 #
straight-curve $-1 -100 -19.585481156726267 -8.7041485130612273e-014 0 0 1 I I #
edge $546 $387 -53.612159321677773 $393 7.2168783648706851 $381 $547 forward 7 unknown #
coedge $-1 $539 $247 $538 $548 reversed $379 $-1 #
coedge $-1 $247 $539 $249 $395 reversed $379 $-1 #
convexity-sys-attrib $-1 $-1 $-1 $248 #
vertex $-1 $248 $549 #
straight-curve $-1 -47.320508075687769 -50.000000000000014 -8.7041485130612273e-014 0 0 -1 I I #
edge $-1 $252 47.320508075687762 $541 100 $391 $550 forward 7 unknown #
point $-1 -47.320508075687762 -50.000000000000014 -25.000000000000174 #
point $-1 -100 -19.585481156726267 -25.000000000000174 #
face $-1 $551 $552 $39 $-1 $553 forward single #
loop $-1 $-1 $554 $255 #
plane-surface $-1 -90 40.000000000000014 -15.000000000000174 0 1 0 0 0 1 forward_v I I I I #
coedge $-1 $555 $556 $557 $558 forward $256 $-1 #
coedge $-1 $559 $258 $556 $560 reversed $159 $-1 #
coedge $-1 $258 $559 $259 $407 forward $159 $-1 #
coedge $-1 $261 $557 $258 $405 reversed $411 $-1 #
edge $-1 $413 -0.98076211353387555 $561 51.395280956807049 $258 $562 forward 7 unknown #
coedge $-1 $260 $259 $563 $564 reversed $106 $-1 #
edge $565 $566 0 $413 17.087121525220489 $403 $567 forward 7 unknown #
coedge $-1 $568 $569 $260 $409 reversed $570 $-1 #
edge $-1 $571 0 $412 17.087121525220489 $260 $572 forward 7 unknown #
coedge $-1 $573 $261 $569 $574 reversed $411 $-1 #
loop $-1 $265 $261 $418 #
vertex $-1 $409 $575 #
vertex $-1 $407 $576 #
straight-curve $-1 0 -39.999999999999986 2.0871215252203186 -1 0 0 I I #
loop $-1 $-1 $263 $577 #
vertex $-1 $264 $578 #
ellipse-curve $-1 -50 1.7763568394002505e-014 -15.000000000000171 0 0 1 15 0 0 1 I I #
face $-1 $577 $411 $39 $-1 $579 forward single #
point $-1 -65 -8.5265128291212022e-014 2.087121525220315 #
face $-1 $-1 $433 $41 $-1 $580 reversed single #
loop $-1 $-1 $277 $268 #
plane-surface $-1 75.000000000000014 50.000000000000014 -7.5000000000000435 -7.7238995954865258e-048 1 1.2302673879779223e-032 0 -1.2302673879779223e-032 1 forward_v I I I I #
coedge $-1 $581 $582 $583 $584 forward $269 $-1 #
coedge $-1 $272 $271 $581 $585 forward $111 $-1 #
coedge $-1 $275 $586 $271 $426 forward $433 $-1 #
edge $587 $588 -21.250000000000174 $429 13.750000000000105 $271 $589 forward 7 unknown #
coedge $-1 $583 $277 $272 $428 reversed $421 $-1 #
edge $-1 $590 -21.250000000000171 $430 3.7499999999999996 $272 $591 forward 7 unknown #
vertex $-1 $426 $592 #
vertex $-1 $278 $593 #
ellipse-curve $-1 100 50.000000000000014 25.000000000000124 1 0 0 0 -20.000000000000004 -14.999999999999996 1 I I #
coedge $-1 $586 $275 $280 $440 forward $433 $-1 #
loop $-1 $-1 $432 $420 #
convexity-sys-attrib $-1 $-1 $-1 $276 #
straight-curve $-1 -100 30.000000000000028 10.000000000000105 -1 0 0 I I #
coedge $-1 $277 $583 $279 $439 reversed $421 $-1 #
straight-curve $-1 -100 50.000000000000014 1.2434497875801753e-013 -1 0 0 I I #
coedge $-1 $280 $279 $582 $594 reversed $166 $-1 #
edge $-1 $281 -3.750000000000087 $595 21.250000000000085 $279 $596 forward 7 unknown #
edge $597 $282 -13.750000000000114 $598 21.250000000000089 $280 $599 forward 7 unknown #
point $-1 50 50.000000000000014 4.9109668093146589e-016 #
point $-1 50 30.000000000000018 10.000000000000027 #
model_id-kcp-attrib $-1 $-1 $-1 $286 1 990564513 70 1548091393 8 #
face $600 $601 $602 $11 $-1 $603 forward single #
loop $-1 $604 $605 $286 #
cone-surface $-1 -50 0 0 0 0 1 15 0 0 1 I I 0 1 15 forward I I I I #
coedge $-1 $606 $289 $305 $473 forward $175 $-1 #
coedge $-1 $289 $607 $608 $609 reversed $175 $-1 #
coedge $-1 $452 $290 $610 $611 reversed $116 $-1 #
coedge $-1 $467 $612 $290 $451 forward $613 $-1 #
edge $-1 $614 -13.81197846483 $453 25 $450 $615 forward 7 unknown #
coedge $-1 $291 $449 $616 $617 forward $116 $-1 #
vertex $-1 $451 $618 #
ellipse-curve $-1 -90.000000000000099 50 24.999999999999702 -1 0 0 -8.7287033471078296e-014 0 25 1 I I #
coedge $-1 $616 $619 $294 $456 reversed $620 $-1 #
edge $-1 $457 -90 $462 40 $294 $621 forward 7 unknown #
vertex $-1 $456 $622 #
straight-curve $-1 -90 40 10 0 0 -1 I I #
coedge $-1 $623 $296 $619 $624 forward $461 $-1 #
coedge $-1 $296 $625 $298 $464 forward $461 $-1 #
loop $-1 $-1 $460 $626 #
vertex $-1 $456 $627 #
straight-curve $-1 40 40 10 0 0 -1 I I #
edge $-1 $628 1.5707963267949006 $299 2.7300758075223044 $460 $629 forward 7 unknown #
point $-1 40 40 2.0871215252209399 #
point $-1 -90 40 2.08712152522049 #
coedge $-1 $608 $450 $302 $468 forward $613 $-1 #
edge $-1 $453 90 $470 100 $467 $630 forward 7 unknown #
attrib_edge_convexity-kcp-attrib $-1 $631 $-1 $303 1 #
vertex $-1 $303 $632 #
ellipse-curve $-1 -100 50 24.999999999999702 1 0 0 -8.7287033471078296e-014 0 25 1 I I #
coedge $-1 $305 $304 $633 $634 reversed $287 $-1 #
edge $635 $307 3.4914813388431399e-013 $636 25 $305 $637 forward 7 unknown #
convexity-sys-attrib $-1 $-1 $306 $184 #
point $-1 -100 50 -3.4914813388431399e-013 #
coedge $-1 $638 $639 $309 $477 forward $613 $-1 #
edge $-1 $481 -100 $628 -40 $476 $630 forward 7 unknown #
coedge $-1 $640 $310 $639 $641 reversed $480 $-1 #
coedge $-1 $310 $642 $312 $484 forward $480 $-1 #
loop $-1 $-1 $310 $498 #
vertex $-1 $641 $643 #
ellipse-curve $-1 99.999999999999901 50 25.000000000000298 -1 0 0 -8.7287033471078296e-014 0 25 1 I I #
coedge $-1 $313 $312 $644 $645 reversed $314 $-1 #
edge $-1 $646 -25 $315 10.0000000000003 $479 $647 forward 7 unknown #
face $648 $649 $314 $11 $-1 $650 forward single #
point $-1 100 30 10.0000000000003 #
coedge $-1 $644 $633 $317 $488 forward $651 $-1 #
edge $652 $492 -10 $489 10 $487 $653 forward 7 unknown #
vertex $-1 $645 $654 #
straight-curve $-1 50 30 0 0 0 -1 I I #
model_id-kcp-attrib $-1 $655 $-1 $319 1 990564513 70 1548091393 26 #
vertex $-1 $634 $656 #
straight-curve $-1 50 50 0 0 0 -1 I I #
model_id-kcp-attrib $-1 $-1 $-1 $320 1 990564513 70 1548091393 18 #
plane-surface $-1 50 80 0 1 0 0 0 0 -1 forward_v I I I I #
coedge $-1 $657 $658 $659 $660 forward $324 $-1 #
model_id-kcp-attrib $-1 $661 $-1 $325 1 990564513 70 1548091393 29 #
face $662 $-1 $480 $11 $-1 $663 reversed single #
plane-surface $-1 0 -50 0 0 1 0 0 0 1 forward_v I I I I #
coedge $-1 $664 $328 $665 $666 forward $199 $-1 #
coedge $-1 $328 $664 $667 $668 reversed $199 $-1 #
coedge $-1 $612 $669 $328 $503 forward $613 $-1 #
edge $-1 $670 -90 $671 44.641016151376597 $502 $672 forward 7 unknown #
model_id-kcp-attrib $-1 $-1 $-1 $330 1 990564513 70 1548091393 15 #
face $673 $674 $675 $11 $-1 $676 forward single #
loop $-1 $-1 $677 $330 #
plane-surface $-1 90 0 10 -1 0 0 0 0 1 forward_v I I I I #
model_id-kcp-attrib $-1 $-1 $-1 $333 1 990564513 70 1548091394 7 #
plane-surface $-1 100 0 0 -1 0 0 0 0 1 forward_v I I I I #
coedge $-1 $338 $336 $340 $514 reversed $205 $-1 #
edge $-1 $351 -25.000000000000174 $516 25.000000000000174 $350 $678 forward 7 unknown #
vertex $-1 $514 $679 #
straight-curve $-1 -100 -50.000000000000014 0 0 0 -1 I I #
edge $-1 $512 -50.000000000000014 $516 50.000000000000014 $510 $680 forward 7 unknown #
straight-curve $-1 0 -50.000000000000014 -25.000000000000174 -1 0 0 I I #
vertex $-1 $343 $681 #
straight-curve $-1 0 50.000000000000014 -25.000000000000174 1 0 0 I I #
point $-1 100 50.000000000000014 -25.000000000000174 #
point $-1 100 -50.000000000000014 -25.000000000000174 #
straight-curve $-1 -100 0 25.000000000000174 0 -1 0 I I #
point $-1 -100 50.000000000000014 25.000000000000174 #
point $-1 -100 -50.000000000000014 25.000000000000174 #
straight-curve $-1 100 -50.000000000000014 0 0 0 -1 I I #
straight-curve $-1 100 50.000000000000014 0 0 0 -1 I I #
point $-1 10 0 5.0000000000000071 #
coedge $-1 $366 $365 $531 $682 forward $144 $-1 #
coedge $-1 $370 $533 $365 $528 reversed $363 $-1 #
edge $-1 $375 25.000000000000014 $683 50.000000000000014 $527 $684 forward 7 unknown #
vertex $-1 $682 $685 #
straight-curve $-1 -100 0 25.000000000000174 0 -1 0 I I #
coedge $-1 $372 $368 $526 $682 reversed $228 $-1 #
straight-curve $-1 -100 50.000000000000014 0 0 0 -1 I I #
coedge $-1 $527 $370 $372 $535 reversed $363 $-1 #
ellipse-curve $-1 100 50.000000000000014 25.000000000000124 1 0 0 0 -20.000000000000004 -14.999999999999996 1 I I #
edge $-1 $683 -25.000000000000174 $373 0 $533 $686 forward 7 unknown #
point $-1 100 50.000000000000014 0 #
point $-1 100 25.000000000000014 25.000000000000174 #
coedge $-1 $381 $384 $390 $548 forward $241 $-1 #
coedge $-1 $391 $390 $382 $540 forward $379 $-1 #
edge $-1 $543 -25.000000000000174 $541 25.000000000000174 $382 $687 forward 7 unknown #
vertex $-1 $383 $688 #
straight-curve $-1 -100 0 -25.000000000000174 0 1 0 I I #
vertex $-1 $385 $689 #
straight-curve $-1 -100 0 25.000000000000174 0 -1 0 I I #
point $-1 -100 -19.585481156726267 25.000000000000174 #
convexity-sys-attrib $-1 $-1 $-1 $389 #
straight-curve $-1 -53.57050807568811 -46.391560817564731 25.000000000000174 0.86602540378444326 -0.49999999999999212 0 I I #
edge $-1 $543 -100 $393 -47.320508075687762 $390 $690 forward 7 unknown #
point $-1 -47.320508075687762 -50.000000000000014 25.000000000000174 #
straight-curve $-1 0 -50.000000000000014 -25.000000000000174 -1 0 0 I I #
face $-1 $691 $692 $39 $-1 $693 forward single #
loop $-1 $-1 $694 $398 #
plane-surface $-1 40 40.000000000000014 -15.000000000000174 1 0 0 0 0 -1 forward_v I I I I #
coedge $-1 $695 $696 $697 $698 forward $399 $-1 #
coedge $-1 $699 $401 $696 $700 reversed $256 $-1 #
coedge $-1 $401 $699 $402 $560 forward $256 $-1 #
coedge $-1 $404 $697 $401 $558 reversed $411 $-1 #
edge $-1 $561 -13.811978464829988 $701 40.000000000000007 $401 $702 forward 7 unknown #
coedge $-1 $403 $402 $703 $704 reversed $159 $-1 #
edge $-1 $705 0 $561 17.087121525220489 $556 $706 forward 7 unknown #
vertex $-1 $560 $707 #
straight-curve $-1 -45.490381056766225 -39.509618943233015 2.0871215252203168 -0.86602540378444326 0.49999999999999212 0 I I #
coedge $-1 $703 $708 $406 $564 forward $709 $-1 #
edge $710 $571 -90 $566 44.641016151376597 $406 $711 forward 7 unknown #
convexity-sys-attrib $-1 $-1 $-1 $407 #
vertex $-1 $564 $712 #
straight-curve $-1 -44.64101615137659 -39.999999999999986 -15.000000000000174 0 0 1 I I #
coedge $-1 $713 $408 $708 $714 reversed $570 $-1 #
coedge $-1 $408 $713 $410 $574 forward $570 $-1 #
loop $-1 $-1 $569 $691 #
vertex $-1 $714 $715 #
straight-curve $-1 90 -39.999999999999986 -15.000000000000174 0 0 1 I I #
coedge $-1 $716 $410 $717 $718 reversed $411 $-1 #
edge $-1 $719 -20.000000000000011 $412 39.999999999999993 $569 $720 forward 7 unknown #
point $-1 90 -39.999999999999986 2.087121525220315 #
point $-1 -44.64101615137659 -39.999999999999986 2.087121525220315 #
face $-1 $-1 $709 $39 $-1 $721 reversed single #
point $-1 -65 -8.6980871771291496e-014 -15.000000000000174 #
plane-surface $-1 -6.6485176681506841 0.18442111221940002 2.0871215252203186 -3.2654391176306062e-018 -8.9263615037646477e-018 1 1 0 3.2654391176306062e-018 forward_v I I I I #
plane-surface $-1 75.000000000000014 30.000000000000021 -7.5000000000000435 -7.7238995954865258e-048 1 1.2302673879779223e-032 0 -1.2302673879779223e-032 1 forward_v I I I I #
coedge $-1 $722 $423 $424 $585 reversed $269 $-1 #
coedge $-1 $423 $722 $438 $594 forward $269 $-1 #
coedge $-1 $436 $427 $423 $584 reversed $421 $-1 #
edge $-1 $595 12.5 $590 62.5 $423 $723 forward 7 unknown #
edge $-1 $588 0 $590 20 $424 $724 forward 7 unknown #
coedge $-1 $425 $432 $722 $725 forward $433 $-1 #
convexity-sys-attrib $-1 $-1 $-1 $426 #
vertex $-1 $725 $726 #
straight-curve $-1 100 30.000000000000028 -3.7499999999999996 0 0 1 I I #
vertex $-1 $585 $727 #
straight-curve $-1 100 50.000000000000028 -3.7499999999999996 0 0 1 I I #
point $-1 100 30.000000000000028 10.000000000000105 #
point $-1 100 50.000000000000014 0 #
edge $-1 $598 0 $595 19.999999999999996 $582 $728 forward 7 unknown #
vertex $-1 $594 $729 #
straight-curve $-1 50 50.000000000000028 -3.7500000000000866 0 0 -1 I I #
convexity-sys-attrib $-1 $-1 $-1 $440 #
vertex $-1 $440 $730 #
straight-curve $-1 50 30.000000000000028 -3.7500000000000866 0 0 -1 I I #
model_id-kcp-attrib $-1 $-1 $-1 $444 1 990564513 70 1548091393 9 #
face $731 $732 $733 $11 $-1 $734 reversed single #
loop $-1 $-1 $735 $444 #
plane-surface $-1 -50 0 20 0 0 1 1 0 0 forward_v I I I I #
loop $-1 $-1 $736 $286 #
coedge $-1 $605 $605 $735 $737 reversed $445 $-1 #
coedge $-1 $607 $447 $738 $739 reversed $175 $-1 #
coedge $-1 $448 $606 $740 $741 forward $175 $-1 #
coedge $-1 $742 $467 $448 $609 forward $613 $-1 #
edge $743 $470 -25 $744 19.585481156726399 $448 $745 forward 7 unknown #
coedge $-1 $746 $747 $449 $611 forward $733 $-1 #
edge $-1 $748 -25 $614 15 $449 $749 forward 7 unknown #
coedge $-1 $450 $502 $746 $750 forward $613 $-1 #
loop $-1 $-1 $476 $649 #
vertex $-1 $750 $751 #
straight-curve $-1 -90 0 25 0 1 0 I I #
coedge $-1 $752 $455 $452 $617 reversed $620 $-1 #
edge $-1 $748 -13.81197846483 $457 40 $452 $753 forward 7 unknown #
point $-1 -90 25 25 #
coedge $-1 $455 $754 $459 $624 reversed $620 $-1 #
loop $-1 $-1 $752 $732 #
straight-curve $-1 0 40 -15 1 0 0 I I #
point $-1 -90 40 -15 #
coedge $-1 $625 $459 $755 $756 reversed $461 $-1 #
edge $-1 $462 0 $757 20 $619 $758 forward 7 unknown #
coedge $-1 $460 $623 $638 $759 reversed $461 $-1 #
face $760 $761 $461 $11 $-1 $762 reversed single #
point $-1 40 40 -15 #
vertex $-1 $477 $763 #
ellipse-curve $-1 40 50 25.000000000000099 1 0 0 -8.7287033471078296e-014 0 25 1 I I #
straight-curve $-1 0 25 25 -1 0 -3.4914813388431298e-015 I I #
convexity-sys-attrib $-1 $-1 $469 $303 #
point $-1 -100 25 25 #
coedge $-1 $487 $738 $472 $634 forward $651 $-1 #
edge $764 $636 -100 $492 50 $472 $765 forward 7 unknown #
attrib_edge_convexity-kcp-attrib $-1 $766 $-1 $473 1 #
vertex $-1 $634 $767 #
straight-curve $-1 -100 50 0 0 0 -1 I I #
coedge $-1 $768 $476 $625 $759 forward $613 $-1 #
coedge $-1 $476 $769 $478 $641 forward $613 $-1 #
coedge $-1 $642 $478 $770 $771 forward $480 $-1 #
edge $772 $773 -50 $481 25 $478 $774 forward 7 unknown #
coedge $-1 $479 $640 $775 $776 reversed $480 $-1 #
point $-1 100 25 25 #
coedge $-1 $775 $487 $483 $645 forward $651 $-1 #
edge $777 $489 0 $646 50 $644 $778 forward 7 unknown #
vertex $-1 $645 $779 #
straight-curve $-1 100 30 0 0 0 1 I I #
model_id-kcp-attrib $-1 $-1 $-1 $485 1 990564513 70 1548091393 19 #
face $780 $325 $613 $11 $-1 $781 forward single #
plane-surface $-1 100 30 0 0 1 0 0 0 1 forward_v I I I I #
loop $-1 $-1 $782 $674 #
model_id-kcp-attrib $-1 $783 $-1 $488 1 990564513 70 1548091393 27 #
straight-curve $-1 50 40 -25 0 -1 0 I I #
point $-1 50 30 -25 #
attrib_edge_convexity-kcp-attrib $-1 $784 $491 $319 1 #
point $-1 50 50 -25 #
coedge $-1 $770 $496 $785 $786 reversed $324 $-1 #
coedge $-1 $496 $770 $769 $787 reversed $324 $-1 #
coedge $-1 $788 $789 $496 $660 reversed $675 $-1 #
edge $790 $791 -25 $792 25 $496 $793 forward 7 unknown #
model_id-kcp-attrib $-1 $-1 $497 $325 1 990564513 70 1548091393 21 #
model_id-kcp-attrib $-1 $-1 $-1 $498 1 990564513 70 1548091393 22 #
plane-surface $-1 100 0 0 -1 0 0 0 0 1 forward_v I I I I #
coedge $-1 $501 $500 $794 $795 forward $199 $-1 #
coedge $-1 $677 $796 $500 $666 reversed $506 $-1 #
edge $-1 $670 -15 $797 25 $665 $798 forward 7 unknown #
coedge $-1 $747 $746 $501 $668 forward $733 $-1 #
edge $-1 $671 -15 $799 25 $501 $800 forward 7 unknown #
coedge $-1 $502 $768 $677 $801 forward $613 $-1 #
vertex $-1 $503 $802 #
vertex $-1 $750 $803 #
straight-curve $-1 0 -40 25 -1 0 0 I I #
model_id-kcp-attrib $-1 $-1 $-1 $505 1 990564513 70 1548091393 16 #
face $804 $320 $651 $11 $-1 $805 reversed single #
loop $-1 $-1 $788 $505 #
plane-surface $-1 -67.500000000000099 -38.349364905388697 0 -0.49999999999999212 -0.86602540378444326 0 0 0 1 forward_v I I I I #
coedge $-1 $806 $665 $669 $801 reversed $506 $-1 #
straight-curve $-1 -100 50.000000000000014 0 0 0 -1 I I #
point $-1 -100 -50.000000000000014 -25.000000000000174 #
straight-curve $-1 -100 0 -25.000000000000174 0 1 0 I I #
point $-1 -100 50.000000000000014 -25.000000000000174 #
edge $-1 $683 -100 $529 100 $531 $807 forward 7 unknown #
vertex $-1 $528 $808 #
straight-curve $-1 100 0 25.000000000000174 0 1 0 I I #
point $-1 -100 50.000000000000014 25.000000000000174 #
straight-curve $-1 100 50.000000000000014 0 0 0 -1 I I #
straight-curve $-1 -100 -50.000000000000014 0 0 0 -1 I I #
point $-1 -100 -50.000000000000014 -25.000000000000174 #
point $-1 -100 -50.000000000000014 25.000000000000174 #
straight-curve $-1 0 -50.000000000000014 25.000000000000174 1 0 0 I I #
face $-1 $418 $570 $39 $-1 $809 forward single #
loop $-1 $-1 $717 $551 #
plane-surface $-1 40 20.000000000000018 -15.000000000000174 0 1 0 0 0 1 forward_v I I I I #
coedge $-1 $810 $811 $716 $812 forward $552 $-1 #
coedge $-1 $813 $554 $811 $814 reversed $399 $-1 #
coedge $-1 $554 $813 $555 $700 forward $399 $-1 #
coedge $-1 $557 $716 $554 $698 reversed $411 $-1 #
edge $-1 $701 -90 $815 40 $554 $816 forward 7 unknown #
coedge $-1 $556 $555 $817 $818 reversed $256 $-1 #
edge $-1 $819 0 $701 17.087121525220489 $696 $820 forward 7 unknown #
vertex $-1 $700 $821 #
straight-curve $-1 -90 7.1054273576010019e-015 2.0871215252203186 0 1 0 I I #
coedge $-1 $817 $563 $559 $704 forward $709 $-1 #
edge $822 $566 -0.98076211353386933 $705 51.395280956807042 $559 $823 forward 7 unknown #
vertex $-1 $704 $824 #
straight-curve $-1 -90 -13.811978464829981 -15.000000000000174 0 0 1 I I #
point $-1 -90 -13.811978464829981 2.087121525220315 #
coedge $-1 $563 $825 $568 $714 forward $709 $-1 #
loop $-1 $415 $708 $577 #
convexity-sys-attrib $-1 $-1 $-1 $564 #
straight-curve $-1 0 -39.999999999999986 -15.000000000000171 -1 0 0 I I #
point $-1 -44.641016151376597 -39.999999999999986 -15.000000000000174 #
coedge $-1 $569 $568 $826 $827 forward $570 $-1 #
edge $828 $829 -20.000000000000011 $571 39.999999999999993 $568 $830 forward 7 unknown #
point $-1 90 -39.999999999999986 -15.000000000000174 #
coedge $-1 $697 $573 $694 $812 reversed $411 $-1 #
coedge $-1 $826 $831 $573 $718 forward $692 $-1 #
edge $-1 $832 -10 $719 40 $717 $833 forward 7 unknown #
vertex $-1 $827 $834 #
straight-curve $-1 90 7.1054273576010019e-015 2.0871215252203186 0 -1 0 I I #
plane-surface $-1 -6.6485176681506841 0.18442111221940002 -15.000000000000171 -3.2654391176306062e-018 -8.9263615037646477e-018 1 1 0 3.2654391176306062e-018 forward_v I I I I #
coedge $-1 $582 $581 $586 $725 reversed $269 $-1 #
straight-curve $-1 37.5 50.000000000000028 -25.000000000000174 1 0 0 I I #
straight-curve $-1 100 30.000000000000028 -25.000000000000171 0 1 0 I I #
edge $835 $598 12.5 $588 62.5 $722 $836 forward 7 unknown #
point $-1 100 30.000000000000028 -25.000000000000174 #
point $-1 100 50.000000000000028 -25.000000000000171 #
straight-curve $-1 50 30.000000000000018 -25.000000000000171 0 1 0 I I #
point $-1 50 50.000000000000014 -25.000000000000171 #
point $-1 50 30.000000000000018 -25.000000000000174 #
model_id-kcp-attrib $-1 $-1 $-1 $601 1 990564513 70 1548091393 10 #
face $837 $626 $838 $11 $-1 $839 forward single #
loop $-1 $-1 $746 $601 #
plane-surface $-1 -62.500000000000099 -29.689110867544201 10 -0.49999999999999212 -0.86602540378444326 0 0 0 1 forward_v I I I I #
coedge $-1 $735 $735 $605 $737 forward $602 $-1 #
coedge $-1 $736 $736 $840 $841 reversed $604 $-1 #
edge $-1 $842 0 $842 6.2831853071795862 $735 $843 forward 7 unknown #
coedge $-1 $633 $782 $606 $739 forward $651 $-1 #
edge $844 $845 -19.585481156726399 $636 50 $606 $846 forward 7 unknown #
coedge $-1 $789 $788 $607 $741 reversed $675 $-1 #
edge $847 $845 -25 $744 25 $607 $848 forward 7 unknown #
coedge $-1 $769 $608 $788 $849 forward $613 $-1 #
attrib_edge_convexity-kcp-attrib $-1 $850 $-1 $609 1 #
vertex $-1 $609 $851 #
straight-curve $-1 -100 0 25 0 -1 0 I I #
coedge $-1 $667 $610 $612 $750 reversed $733 $-1 #
coedge $-1 $610 $667 $752 $852 forward $733 $-1 #
vertex $-1 $611 $853 #
straight-curve $-1 -90 -13.81197846483 10 0 0 1 I I #
edge $-1 $671 -0.98076211353390175 $614 51.395280956807028 $612 $854 forward 7 unknown #
point $-1 -90 -13.81197846483 25 #
coedge $-1 $794 $616 $747 $852 reversed $620 $-1 #
straight-curve $-1 -90 0 -15 0 1 0 I I #
coedge $-1 $619 $855 $856 $857 reversed $620 $-1 #
coedge $-1 $856 $858 $623 $756 forward $859 $-1 #
edge $-1 $860 -15 $757 25 $623 $861 forward 7 unknown #
vertex $-1 $857 $862 #
straight-curve $-1 40 40 -15 0 -1 0 I I #
edge $-1 $628 15 $860 20 $638 $863 forward 7 unknown #
model_id-kcp-attrib $-1 $-1 $-1 $626 1 990564513 70 1548091393 12 #
face $864 $200 $859 $11 $-1 $865 reversed single #
plane-surface $-1 40 80 10 1 0 0 0 0 -1 forward_v I I I I #
point $-1 40 25 25 #
attrib_edge_convexity-kcp-attrib $-1 $866 $-1 $634 1 #
straight-curve $-1 0 50 -25 1 0 0 I I #
convexity-sys-attrib $-1 $-1 $635 $473 #
point $-1 -100 50 -25 #
coedge $-1 $669 $638 $858 $867 forward $613 $-1 #
coedge $-1 $639 $742 $658 $787 forward $613 $-1 #
coedge $-1 $658 $657 $640 $771 reversed $324 $-1 #
edge $868 $773 -25 $869 25 $640 $870 forward 7 unknown #
model_id-kcp-attrib $-1 $-1 $-1 $641 1 990564513 70 1548091393 25 #
vertex $-1 $641 $871 #
straight-curve $-1 100 0 25 0 1 0 I I #
coedge $-1 $785 $644 $642 $776 forward $651 $-1 #
edge $872 $646 -30 $869 50 $642 $873 forward 7 unknown #
attrib_edge_convexity-kcp-attrib $-1 $874 $-1 $645 1 #
straight-curve $-1 50 30 -25 1 0 0 I I #
point $-1 100 30 -25 #
model_id-kcp-attrib $-1 $-1 $-1 $649 1 990564513 70 1548091393 20 #
plane-surface $-1 0 0 25 0 0 1 1 0 0 forward_v I I I I #
coedge $-1 $738 $785 $789 $875 forward $651 $-1 #
attrib_edge_convexity-kcp-attrib $-1 $876 $652 $488 1 #
convexity-sys-attrib $-1 $-1 $655 $319 #
coedge $-1 $782 $775 $657 $786 forward $651 $-1 #
edge $877 $869 -100 $792 47.320508075687897 $657 $878 forward 7 unknown #
edge $-1 $791 -47.320508075687897 $773 100 $658 $879 forward 7 unknown #
coedge $-1 $740 $659 $742 $849 reversed $675 $-1 #
coedge $-1 $659 $740 $782 $875 reversed $675 $-1 #
attrib_edge_convexity-kcp-attrib $-1 $880 $-1 $660 1 #
vertex $-1 $849 $881 #
vertex $-1 $786 $882 #
straight-curve $-1 -47.320508075687897 -50 0 0 0 -1 I I #
coedge $-1 $855 $752 $664 $795 reversed $620 $-1 #
edge $-1 $797 -90 $799 44.641016151376597 $664 $883 forward 7 unknown #
coedge $-1 $665 $806 $855 $884 forward $506 $-1 #
vertex $-1 $666 $885 #
straight-curve $-1 90 -40 10 0 0 -1 I I #
vertex $-1 $795 $886 #
straight-curve $-1 -44.641016151376597 -40 10 0 0 -1 I I #
edge $-1 $887 -20 $670 40 $669 $888 forward 7 unknown #
point $-1 90 -40 25 #
point $-1 -44.641016151376597 -40 25 #
model_id-kcp-attrib $-1 $-1 $-1 $674 1 990564513 70 1548091393 17 #
plane-surface $-1 0 0 -25 0 0 1 1 0 0 forward_v I I I I #
coedge $-1 $796 $677 $889 $890 reversed $506 $-1 #
straight-curve $-1 0 50.000000000000014 25.000000000000174 -1 0 0 I I #
point $-1 100 50.000000000000014 25.000000000000174 #
plane-surface $-1 90 20.000000000000018 -15.000000000000174 1 0 0 0 0 -1 forward_v I I I I #
coedge $-1 $891 $694 $831 $892 reversed $552 $-1 #
coedge $-1 $694 $891 $695 $814 forward $552 $-1 #
edge $-1 $815 -7.1054273576010019e-015 $832 19.999999999999989 $694 $893 forward 7 unknown #
coedge $-1 $696 $695 $894 $895 reversed $399 $-1 #
edge $-1 $896 0 $815 17.087121525220489 $811 $897 forward 7 unknown #
vertex $-1 $814 $898 #
straight-curve $-1 0 40.000000000000014 2.0871215252203186 1 0 0 I I #
coedge $-1 $894 $703 $699 $818 forward $709 $-1 #
edge $899 $705 -13.811978464829989 $819 40.000000000000007 $699 $900 forward 7 unknown #
vertex $-1 $818 $901 #
straight-curve $-1 -90 40.000000000000014 -15.000000000000174 0 0 1 I I #
point $-1 -90 40.000000000000014 2.087121525220315 #
convexity-sys-attrib $-1 $-1 $-1 $704 #
straight-curve $-1 -45.490381056766225 -39.509618943233015 -15.000000000000172 -0.86602540378444326 0.49999999999999212 0 I I #
point $-1 -90 -13.811978464829982 -15.000000000000174 #
coedge $-1 $708 $902 $903 $904 forward $709 $-1 #
coedge $-1 $903 $717 $713 $827 reversed $692 $-1 #
edge $-1 $829 0 $719 17.087121525220489 $713 $905 forward 7 unknown #
convexity-sys-attrib $-1 $-1 $-1 $714 #
vertex $-1 $714 $906 #
straight-curve $-1 90 7.1054273576010019e-015 -15.000000000000171 0 -1 0 I I #
coedge $-1 $717 $903 $810 $892 forward $692 $-1 #
vertex $-1 $892 $907 #
straight-curve $-1 50 20.000000000000018 2.0871215252203186 1 0 0 I I #
point $-1 90 20.000000000000018 2.087121525220315 #
convexity-sys-attrib $-1 $-1 $-1 $725 #
straight-curve $-1 37.5 30.000000000000028 -25.000000000000174 1 0 0 I I #
model_id-kcp-attrib $-1 $-1 $-1 $732 1 990564513 70 1548091393 11 #
loop $-1 $620 $840 $732 #
plane-surface $-1 0 0 -15 0 0 1 1 0 0 forward_v I I I I #
coedge $-1 $840 $840 $736 $841 forward $838 $-1 #
edge $-1 $908 -3.1415926535897998 $908 3.1415926535897865 $840 $909 forward 7 unknown #
vertex $-1 $737 $910 #
ellipse-curve $-1 -50 0 20 0 0 1 15 0 0 1 I I #
attrib_edge_convexity-kcp-attrib $-1 $911 $-1 $739 1 #
vertex $-1 $741 $912 #
straight-curve $-1 -100 0 -25 0 1 0 I I #
attrib_edge_convexity-kcp-attrib $-1 $913 $-1 $741 1 #
straight-curve $-1 -100 -19.585481156726399 0 0 0 1 I I #
edge $914 $744 -57.168783648703354 $791 3.660254037844922 $742 $915 forward 7 unknown #
convexity-sys-attrib $-1 $-1 $743 $609 #
point $-1 -100 -19.585481156726399 25 #
edge $-1 $799 -0.98076211353390175 $748 51.395280956807028 $752 $916 forward 7 unknown #
point $-1 -90 -13.81197846483 -15 #
straight-curve $-1 -45.490381056766303 -39.5096189432331 25 -0.86602540378444304 0.49999999999999201 0 I I #
coedge $-1 $754 $794 $796 $884 reversed $620 $-1 #
coedge $-1 $889 $755 $754 $857 forward $859 $-1 #
edge $-1 $757 -10 $917 40 $754 $918 forward 7 unknown #
coedge $-1 $755 $889 $768 $867 reversed $859 $-1 #
loop $-1 $-1 $858 $761 #
vertex $-1 $759 $919 #
straight-curve $-1 40 20 10 0 0 -1 I I #
point $-1 40 20 -15 #
straight-curve $-1 40 40 25 0 -1 0 I I #
model_id-kcp-attrib $-1 $-1 $-1 $761 1 990564513 70 1548091393 13 #
plane-surface $-1 100 20 10 0 1 0 0 0 1 forward_v I I I I #
convexity-sys-attrib $-1 $-1 $764 $634 #
edge $-1 $860 -10 $887 40 $768 $920 forward 7 unknown #
model_id-kcp-attrib $-1 $-1 $-1 $771 1 990564513 70 1548091393 24 #
vertex $-1 $771 $921 #
straight-curve $-1 100 -50 0 0 0 -1 I I #
point $-1 100 -50 25 #
model_id-kcp-attrib $-1 $922 $-1 $776 1 990564513 70 1548091393 28 #
straight-curve $-1 100 0 -25 0 -1 0 I I #
convexity-sys-attrib $-1 $-1 $777 $645 #
edge $923 $792 -3.660254037844922 $845 57.168783648703354 $782 $924 forward 7 unknown #
convexity-sys-attrib $-1 $-1 $783 $488 #
attrib_edge_convexity-kcp-attrib $-1 $925 $-1 $786 1 #
straight-curve $-1 0 -50 -25 -1 0 0 I I #
straight-curve $-1 0 -50 25 1 0 0 I I #
convexity-sys-attrib $-1 $-1 $790 $660 #
point $-1 -47.320508075687897 -50 25 #
point $-1 -47.320508075687897 -50 -25 #
straight-curve $-1 0 -40 -15 -1 0 0 I I #
edge $-1 $917 -20 $797 40 $796 $926 forward 7 unknown #
point $-1 90 -40 -15 #
point $-1 -44.641016151376597 -40 -15 #
vertex $-1 $867 $927 #
straight-curve $-1 90 0 25 0 -1 0 I I #
coedge $-1 $858 $856 $806 $890 forward $859 $-1 #
edge $-1 $917 -25 $887 15 $806 $928 forward 7 unknown #
coedge $-1 $811 $810 $902 $929 reversed $552 $-1 #
edge $-1 $930 0 $832 17.087121525220489 $831 $931 forward 7 unknown #
straight-curve $-1 40 40.000000000000007 2.0871215252203186 0 -1 0 I I #
coedge $-1 $902 $817 $813 $895 forward $709 $-1 #
edge $932 $819 -90 $896 40 $813 $933 forward 7 unknown #
vertex $-1 $895 $934 #
straight-curve $-1 40 40.000000000000014 -15.000000000000174 0 0 1 I I #
point $-1 40 40.000000000000014 2.087121525220315 #
convexity-sys-attrib $-1 $-1 $-1 $818 #
straight-curve $-1 -90 7.1054273576010019e-015 -15.000000000000171 0 1 0 I I #
point $-1 -90 40.000000000000014 -15.000000000000174 #
coedge $-1 $825 $894 $891 $929 forward $709 $-1 #
coedge $-1 $831 $826 $825 $904 reversed $692 $-1 #
edge $935 $930 -10 $829 40 $903 $936 forward 7 unknown #
straight-curve $-1 90 20.000000000000018 -15.000000000000174 0 0 1 I I #
point $-1 90 20.000000000000018 -15.000000000000174 #
point $-1 40 20.000000000000018 2.087121525220315 #
vertex $-1 $841 $937 #
ellipse-curve $-1 -50 0 -15 0 0 -1 15 0 0 1 I I #
point $-1 -35 0 20 #
convexity-sys-attrib $-1 $-1 $844 $739 #
point $-1 -100 -19.585481156726399 -25 #
convexity-sys-attrib $-1 $-1 $847 $741 #
attrib_edge_convexity-kcp-attrib $-1 $938 $-1 $849 1 #
straight-curve $-1 -50.490381056766203 -48.169872981077603 25 0.86602540378444304 -0.49999999999999201 0 I I #
straight-curve $-1 -45.490381056766303 -39.5096189432331 -15 -0.86602540378444304 0.49999999999999201 0 I I #
vertex $-1 $857 $939 #
straight-curve $-1 50 20 -15 1 0 0 I I #
point $-1 40 20 25 #
straight-curve $-1 50 20 25 1 0 0 I I #
point $-1 100 -50 -25 #
attrib_edge_convexity-kcp-attrib $-1 $940 $872 $776 1 #
attrib_edge_convexity-kcp-attrib $-1 $941 $-1 $875 1 #
straight-curve $-1 -50.490381056766203 -48.169872981077603 -25 -0.86602540378444304 0.49999999999999201 0 I I #
convexity-sys-attrib $-1 $-1 $877 $786 #
straight-curve $-1 90 0 -15 0 -1 0 I I #
point $-1 90 20 25 #
straight-curve $-1 90 20 10 0 0 1 I I #
edge $942 $896 -7.1054273576010019e-015 $930 19.999999999999989 $891 $943 forward 7 unknown #
vertex $-1 $929 $944 #
straight-curve $-1 40 20.000000000000018 -15.000000000000174 0 0 1 I I #
convexity-sys-attrib $-1 $-1 $-1 $895 #
straight-curve $-1 0 40.000000000000014 -15.000000000000171 1 0 0 I I #
point $-1 40 40.000000000000014 -15.000000000000174 #
convexity-sys-attrib $-1 $-1 $-1 $904 #
straight-curve $-1 50 20.000000000000018 -15.000000000000171 1 0 0 I I #
point $-1 -65 -1.04744440165294e-013 -15 #
convexity-sys-attrib $-1 $-1 $914 $849 #
point $-1 90 20 -15 #
convexity-sys-attrib $-1 $-1 $922 $776 #
convexity-sys-attrib $-1 $-1 $923 $875 #
convexity-sys-attrib $-1 $-1 $-1 $929 #
straight-curve $-1 40 40.000000000000007 -15.000000000000171 0 -1 0 I I #
point $-1 40 20.000000000000018 -15.000000000000174 #
End-of-ACIS-data 