104 350 0 0                             
body $-1 $1 $-1 $-1 #
lump $-1 $-1 $2 $0 #
shell $-1 $-1 $-1 $3 $1 #
face $-1 $4 $5 $2 $-1 $6 1 #
face $-1 $7 $8 $2 $-1 $9 1 #
loop $-1 $10 $11 $3 #
cone-surface $-1 20 -45 5 0 -1 -3.49148133884313e-15 10 0 0 1 0 1 0 #
face $-1 $12 $13 $2 $-1 $14 0 #
loop $-1 $-1 $15 $4 #
cone-surface $-1 0 50 25 -1 0 -3.49148133884313e-15 -8.72870334710783e-14 0 25 1 0 1 0 #
loop $-1 $-1 $16 $3 #
coedge $-1 $11 $11 $17 $18 1 $5 $-1 #
face $-1 $19 $20 $2 $-1 $21 0 #
loop $-1 $-1 $22 $7 #
plane-surface $-1 0 40 10 0 -1 0 0 0 -1 0 #
coedge $-1 $23 $24 $25 $26 1 $8 $-1 #
coedge $-1 $16 $16 $27 $28 1 $10 $-1 #
coedge $-1 $17 $17 $11 $18 0 $29 $-1 #
edge $-1 $30 $30 $17 $31 0 #
face $-1 $32 $33 $2 $-1 $34 1 #
loop $-1 $-1 $35 $12 #
plane-surface $-1 -90 0 10 1 0 0 0 0 -1 0 #
coedge $-1 $36 $37 $38 $39 0 $13 $-1 #
coedge $-1 $40 $15 $41 $42 1 $8 $-1 #
coedge $-1 $15 $43 $44 $45 1 $8 $-1 #
coedge $-1 $46 $47 $15 $26 0 $48 $-1 #
edge $-1 $49 $50 $25 $51 0 #
coedge $-1 $27 $27 $16 $28 0 $52 $-1 #
edge $-1 $53 $53 $27 $54 0 #
loop $-1 $55 $17 $56 #
vertex $-1 $18 $57 #
ellipse-curve $-1 20 -40 5.00000000000002 -0 -1 -0 10 0 0 1 #
face $-1 $58 $59 $2 $-1 $60 1 #
loop $-1 $-1 $61 $19 #
plane-surface $-1 -100 0 0 1 0 0 0 0 -1 0 #
coedge $-1 $62 $63 $64 $65 0 $20 $-1 #
coedge $-1 $66 $22 $63 $67 0 $13 $-1 #
coedge $-1 $22 $66 $68 $69 1 $13 $-1 #
coedge $-1 $70 $64 $22 $39 1 $8 $-1 #
edge $-1 $71 $72 $22 $73 0 #
coedge $-1 $74 $23 $61 $75 1 $8 $-1 #
coedge $-1 $76 $77 $23 $42 0 $59 $-1 #
edge $-1 $78 $49 $41 $79 0 #
coedge $-1 $24 $80 $81 $82 1 $8 $-1 #
coedge $-1 $83 $84 $24 $45 0 $85 $-1 #
edge $-1 $50 $86 $44 $87 0 #
coedge $-1 $88 $25 $84 $89 0 $48 $-1 #
coedge $-1 $25 $88 $76 $90 1 $48 $-1 #
loop $-1 $-1 $25 $91 #
vertex $-1 $26 $92 #
vertex $-1 $26 $93 #
ellipse-curve $-1 49.9999999999999 50 25.0000000000002 -1 -0 -0 -8.72870334710783e-14 0 25 1 #
loop $-1 $94 $27 $95 #
vertex $-1 $28 $96 #
ellipse-curve $-1 20 -50 4.99999999999998 0 1 -0 10 0 0 1 #
loop $-1 $-1 $97 $56 #
face $-1 $98 $29 $2 $-1 $99 0 #
point $-1 10 -40 5.00000000000009 #
face $-1 $100 $101 $2 $-1 $102 0 #
loop $-1 $-1 $41 $32 #
plane-surface $-1 0 50 0 0 -1 0 0 0 -1 0 #
coedge $-1 $103 $104 $40 $75 0 $33 $-1 #
coedge $-1 $105 $35 $106 $107 1 $20 $-1 #
coedge $-1 $35 $108 $36 $67 1 $20 $-1 #
coedge $-1 $38 $74 $35 $65 1 $8 $-1 #
edge $-1 $72 $109 $35 $110 0 #
coedge $-1 $37 $36 $111 $112 0 $13 $-1 #
edge $-1 $72 $113 $36 $114 0 #
coedge $-1 $115 $116 $37 $69 0 $117 $-1 #
edge $-1 $71 $118 $37 $119 0 #
coedge $-1 $80 $38 $116 $120 1 $8 $-1 #
vertex $-1 $120 $121 #
vertex $-1 $65 $122 #
straight-curve $-1 7.99998876138721e-14 40 2.0871215252208 -1 0 -3.49148133884313e-15 #
coedge $-1 $64 $40 $123 $124 1 $8 $-1 #
edge $-1 $125 $78 $61 $126 0 #
coedge $-1 $127 $41 $47 $90 0 $59 $-1 #
coedge $-1 $41 $127 $103 $128 1 $59 $-1 #
vertex $-1 $42 $129 #
straight-curve $-1 8.72870334710783e-14 50 0 1 -0 3.49148133884313e-15 #
coedge $-1 $43 $70 $130 $131 1 $8 $-1 #
coedge $-1 $132 $133 $43 $82 0 $134 $-1 #
edge $-1 $86 $135 $81 $136 0 #
coedge $-1 $137 $44 $133 $138 1 $85 $-1 #
coedge $-1 $44 $137 $46 $89 1 $85 $-1 #
loop $-1 $-1 $44 $139 #
vertex $-1 $138 $140 #
straight-curve $-1 5.13612674927132e-14 30 10 1 -0 3.49148133884313e-15 #
coedge $-1 $47 $46 $141 $142 1 $48 $-1 #
edge $-1 $50 $143 $46 $144 0 #
edge $-1 $49 $145 $76 $146 0 #
face $-1 $139 $48 $2 $-1 $147 0 #
point $-1 50 50 1.74574066942156e-13 #
point $-1 50 30 10.0000000000002 #
loop $-1 $-1 $148 $95 #
face $-1 $149 $52 $2 $-1 $150 1 #
point $-1 10 -50 4.99999999999991 #
coedge $-1 $151 $152 $153 $154 1 $55 $-1 #
face $-1 $155 $156 $2 $-1 $157 0 #
plane-surface $-1 0 -40 10 0 1 0 0 0 1 0 #
face $-1 $158 $159 $2 $-1 $160 0 #
loop $-1 $161 $162 $58 #
cone-surface $-1 -50 0 0 0 0 1 15 0 0 1 0 1 0 #
coedge $-1 $163 $61 $77 $128 0 $33 $-1 #
coedge $-1 $61 $164 $165 $166 1 $33 $-1 #
coedge $-1 $108 $62 $167 $168 1 $20 $-1 #
coedge $-1 $123 $169 $62 $107 0 $170 $-1 #
edge $-1 $171 $109 $106 $172 0 #
coedge $-1 $63 $105 $173 $174 0 $20 $-1 #
vertex $-1 $107 $175 #
ellipse-curve $-1 -90.0000000000001 50 24.9999999999997 -1 -0 -0 -8.72870334710783e-14 0 25 1 #
coedge $-1 $173 $176 $66 $112 1 $177 $-1 #
edge $-1 $113 $118 $66 $178 0 #
vertex $-1 $112 $179 #
straight-curve $-1 -90 40 10 0 0 -1 #
coedge $-1 $180 $68 $176 $181 0 $117 $-1 #
coedge $-1 $68 $182 $70 $120 0 $117 $-1 #
loop $-1 $-1 $116 $183 #
vertex $-1 $112 $184 #
straight-curve $-1 40 40 10 0 0 -1 #
edge $-1 $185 $71 $116 $186 0 #
point $-1 40 40 2.08712152522094 #
point $-1 -90 40 2.08712152522049 #
coedge $-1 $165 $106 $74 $124 0 $170 $-1 #
edge $-1 $109 $125 $123 $187 0 #
vertex $-1 $75 $188 #
ellipse-curve $-1 -100 50 24.9999999999997 1 0 0 -8.72870334710783e-14 0 25 1 #
coedge $-1 $77 $76 $189 $190 1 $59 $-1 #
edge $-1 $78 $191 $77 $192 0 #
point $-1 -100 50 -3.49148133884314e-13 #
coedge $-1 $193 $194 $80 $131 0 $170 $-1 #
edge $-1 $135 $185 $130 $187 0 #
coedge $-1 $195 $81 $194 $196 1 $134 $-1 #
coedge $-1 $81 $197 $83 $138 0 $134 $-1 #
loop $-1 $-1 $81 $149 #
vertex $-1 $196 $198 #
ellipse-curve $-1 99.9999999999999 50 25.0000000000003 -1 0 0 -8.72870334710783e-14 0 25 1 #
coedge $-1 $84 $83 $199 $200 1 $85 $-1 #
edge $-1 $201 $86 $133 $202 0 #
face $-1 $203 $85 $2 $-1 $204 0 #
point $-1 100 30 10.0000000000003 #
coedge $-1 $199 $189 $88 $142 0 $205 $-1 #
edge $-1 $145 $143 $141 $206 0 #
vertex $-1 $200 $207 #
straight-curve $-1 50 30 0 0 0 -1 #
vertex $-1 $190 $208 #
straight-curve $-1 50 50 0 0 0 -1 #
plane-surface $-1 50 80 0 1 0 0 0 0 -1 0 #
coedge $-1 $209 $210 $211 $212 0 $94 $-1 #
face $-1 $-1 $134 $2 $-1 $213 1 #
plane-surface $-1 0 -50 0 0 1 -0 -0 0 1 0 #
coedge $-1 $214 $97 $215 $216 0 $55 $-1 #
coedge $-1 $97 $214 $217 $218 1 $55 $-1 #
coedge $-1 $169 $219 $97 $154 0 $170 $-1 #
edge $-1 $220 $221 $153 $222 0 #
face $-1 $223 $224 $2 $-1 $225 0 #
loop $-1 $-1 $226 $98 #
plane-surface $-1 90 0 10 -1 0 0 0 0 1 0 #
face $-1 $227 $228 $2 $-1 $229 1 #
loop $-1 $-1 $230 $100 #
plane-surface $-1 -50 0 20 0 0 1 1 0 0 0 #
loop $-1 $-1 $231 $58 #
coedge $-1 $162 $162 $230 $232 1 $101 $-1 #
coedge $-1 $164 $103 $233 $234 1 $33 $-1 #
coedge $-1 $104 $163 $235 $236 0 $33 $-1 #
coedge $-1 $237 $123 $104 $166 0 $170 $-1 #
edge $-1 $125 $238 $104 $239 0 #
coedge $-1 $240 $241 $105 $168 0 $228 $-1 #
edge $-1 $242 $171 $105 $243 0 #
coedge $-1 $106 $153 $240 $244 0 $170 $-1 #
loop $-1 $-1 $130 $203 #
vertex $-1 $244 $245 #
straight-curve $-1 -90 0 25 0 1 0 #
coedge $-1 $246 $111 $108 $174 1 $177 $-1 #
edge $-1 $242 $113 $108 $247 0 #
point $-1 -90 25 25 #
coedge $-1 $111 $248 $115 $181 1 $177 $-1 #
loop $-1 $-1 $246 $227 #
straight-curve $-1 0 40 -15 1 0 0 #
point $-1 -90 40 -15 #
coedge $-1 $182 $115 $249 $250 1 $117 $-1 #
edge $-1 $118 $251 $176 $252 0 #
coedge $-1 $116 $180 $193 $253 1 $117 $-1 #
face $-1 $254 $117 $2 $-1 $255 1 #
point $-1 40 40 -15 #
vertex $-1 $131 $256 #
ellipse-curve $-1 40 50 25.0000000000001 1 0 0 -8.72870334710783e-14 0 25 1 #
straight-curve $-1 0 25 25 -1 0 -3.49148133884313e-15 #
point $-1 -100 25 25 #
coedge $-1 $141 $233 $127 $190 0 $205 $-1 #
edge $-1 $191 $145 $127 $257 0 #
vertex $-1 $190 $258 #
straight-curve $-1 -100 50 0 0 0 -1 #
coedge $-1 $259 $130 $182 $253 0 $170 $-1 #
coedge $-1 $130 $260 $132 $196 0 $170 $-1 #
coedge $-1 $197 $132 $261 $262 0 $134 $-1 #
edge $-1 $263 $135 $132 $264 0 #
coedge $-1 $133 $195 $265 $266 1 $134 $-1 #
point $-1 100 25 25 #
coedge $-1 $265 $141 $137 $200 0 $205 $-1 #
edge $-1 $143 $201 $199 $267 0 #
vertex $-1 $200 $268 #
straight-curve $-1 100 30 0 0 -0 1 #
face $-1 $95 $170 $2 $-1 $269 0 #
plane-surface $-1 100 30 0 0 1 0 0 0 1 0 #
loop $-1 $-1 $270 $223 #
straight-curve $-1 50 40 -25 0 -1 0 #
point $-1 50 30 -25 #
point $-1 50 50 -25 #
coedge $-1 $261 $148 $271 $272 1 $94 $-1 #
coedge $-1 $148 $261 $260 $273 1 $94 $-1 #
coedge $-1 $274 $275 $148 $212 1 $224 $-1 #
edge $-1 $276 $277 $148 $278 0 #
plane-surface $-1 100 0 0 -1 0 0 0 -0 1 0 #
coedge $-1 $152 $151 $279 $280 0 $55 $-1 #
coedge $-1 $226 $281 $151 $216 1 $156 $-1 #
edge $-1 $220 $282 $215 $283 0 #
coedge $-1 $241 $240 $152 $218 0 $228 $-1 #
edge $-1 $221 $284 $152 $285 0 #
coedge $-1 $153 $259 $226 $286 0 $170 $-1 #
vertex $-1 $154 $287 #
vertex $-1 $244 $288 #
straight-curve $-1 0 -40 25 -1 0 0 #
face $-1 $91 $205 $2 $-1 $289 1 #
loop $-1 $-1 $274 $155 #
plane-surface $-1 -67.5000000000001 -38.3493649053887 0 -0.499999999999992 -0.866025403784443 0 0 0 1 0 #
coedge $-1 $290 $215 $219 $286 1 $156 $-1 #
face $-1 $183 $291 $2 $-1 $292 0 #
loop $-1 $-1 $240 $158 #
plane-surface $-1 -62.5000000000001 -29.6891108675442 10 -0.499999999999992 -0.866025403784443 0 0 0 1 0 #
coedge $-1 $230 $230 $162 $232 0 $159 $-1 #
coedge $-1 $231 $231 $293 $294 1 $161 $-1 #
edge $-1 $295 $295 $230 $296 0 #
coedge $-1 $189 $270 $163 $234 0 $205 $-1 #
edge $-1 $297 $191 $163 $298 0 #
coedge $-1 $275 $274 $164 $236 1 $224 $-1 #
edge $-1 $297 $238 $164 $299 0 #
coedge $-1 $260 $165 $274 $300 0 $170 $-1 #
vertex $-1 $166 $301 #
straight-curve $-1 -100 0 25 0 -1 0 #
coedge $-1 $217 $167 $169 $244 1 $228 $-1 #
coedge $-1 $167 $217 $246 $302 0 $228 $-1 #
vertex $-1 $168 $303 #
straight-curve $-1 -90 -13.81197846483 10 0 0 1 #
edge $-1 $221 $171 $169 $304 0 #
point $-1 -90 -13.81197846483 25 #
coedge $-1 $279 $173 $241 $302 1 $177 $-1 #
straight-curve $-1 -90 0 -15 0 1 0 #
coedge $-1 $176 $305 $306 $307 1 $177 $-1 #
coedge $-1 $306 $308 $180 $250 0 $309 $-1 #
edge $-1 $310 $251 $180 $311 0 #
vertex $-1 $307 $312 #
straight-curve $-1 40 40 -15 0 -1 0 #
edge $-1 $185 $310 $193 $313 0 #
face $-1 $56 $309 $2 $-1 $314 1 #
plane-surface $-1 40 80 10 1 0 0 0 0 -1 0 #
point $-1 40 25 25 #
straight-curve $-1 0 50 -25 1 0 0 #
point $-1 -100 50 -25 #
coedge $-1 $219 $193 $308 $315 0 $170 $-1 #
coedge $-1 $194 $237 $210 $273 0 $170 $-1 #
coedge $-1 $210 $209 $195 $262 1 $94 $-1 #
edge $-1 $263 $316 $195 $317 0 #
vertex $-1 $196 $318 #
straight-curve $-1 100 0 25 0 1 0 #
coedge $-1 $271 $199 $197 $266 0 $205 $-1 #
edge $-1 $201 $316 $197 $319 0 #
straight-curve $-1 50 30 -25 1 0 0 #
point $-1 100 30 -25 #
plane-surface $-1 0 0 25 0 0 1 1 0 0 0 #
coedge $-1 $233 $271 $275 $320 0 $205 $-1 #
coedge $-1 $270 $265 $209 $272 0 $205 $-1 #
edge $-1 $316 $277 $209 $321 0 #
edge $-1 $276 $263 $210 $322 0 #
coedge $-1 $235 $211 $237 $300 1 $224 $-1 #
coedge $-1 $211 $235 $270 $320 1 $224 $-1 #
vertex $-1 $300 $323 #
vertex $-1 $272 $324 #
straight-curve $-1 -47.3205080756879 -50 0 0 0 -1 #
coedge $-1 $305 $246 $214 $280 1 $177 $-1 #
edge $-1 $282 $284 $214 $325 0 #
coedge $-1 $215 $290 $305 $326 0 $156 $-1 #
vertex $-1 $216 $327 #
straight-curve $-1 90 -40 10 0 0 -1 #
vertex $-1 $280 $328 #
straight-curve $-1 -44.6410161513766 -40 10 0 0 -1 #
edge $-1 $329 $220 $219 $330 0 #
point $-1 90 -40 25 #
point $-1 -44.6410161513766 -40 25 #
plane-surface $-1 0 0 -25 0 0 1 1 0 0 0 #
coedge $-1 $281 $226 $331 $332 1 $156 $-1 #
loop $-1 $177 $293 $227 #
plane-surface $-1 0 0 -15 0 0 1 1 0 0 0 #
coedge $-1 $293 $293 $231 $294 0 $291 $-1 #
edge $-1 $333 $333 $293 $334 0 #
vertex $-1 $232 $335 #
ellipse-curve $-1 -50 0 20 0 0 1 15 0 0 1 #
vertex $-1 $236 $336 #
straight-curve $-1 -100 0 -25 0 1 0 #
straight-curve $-1 -100 -19.5854811567264 0 -0 0 1 #
edge $-1 $238 $276 $237 $337 0 #
point $-1 -100 -19.5854811567264 25 #
edge $-1 $284 $242 $246 $338 0 #
point $-1 -90 -13.81197846483 -15 #
straight-curve $-1 -45.4903810567663 -39.5096189432331 25 -0.866025403784443 0.499999999999992 0 #
coedge $-1 $248 $279 $281 $326 1 $177 $-1 #
coedge $-1 $331 $249 $248 $307 0 $309 $-1 #
edge $-1 $251 $339 $248 $340 0 #
coedge $-1 $249 $331 $259 $315 1 $309 $-1 #
loop $-1 $-1 $308 $254 #
vertex $-1 $253 $341 #
straight-curve $-1 40 20 10 0 0 -1 #
point $-1 40 20 -15 #
straight-curve $-1 40 40 25 0 -1 0 #
plane-surface $-1 100 20 10 0 1 0 0 0 1 0 #
edge $-1 $310 $329 $259 $342 0 #
vertex $-1 $262 $343 #
straight-curve $-1 100 -50 0 0 0 -1 #
point $-1 100 -50 25 #
straight-curve $-1 100 0 -25 0 -1 0 #
edge $-1 $277 $297 $270 $344 0 #
straight-curve $-1 0 -50 -25 -1 0 0 #
straight-curve $-1 0 -50 25 1 0 0 #
point $-1 -47.3205080756879 -50 25 #
point $-1 -47.3205080756879 -50 -25 #
straight-curve $-1 0 -40 -15 -1 0 0 #
edge $-1 $339 $282 $281 $345 0 #
point $-1 90 -40 -15 #
point $-1 -44.6410161513766 -40 -15 #
vertex $-1 $315 $346 #
straight-curve $-1 90 0 25 0 -1 0 #
coedge $-1 $308 $306 $290 $332 0 $309 $-1 #
edge $-1 $339 $329 $290 $347 0 #
vertex $-1 $294 $348 #
ellipse-curve $-1 -50 0 -15 -0 -0 -1 15 0 0 1 #
point $-1 -35 0 20 #
point $-1 -100 -19.5854811567264 -25 #
straight-curve $-1 -50.4903810567662 -48.1698729810776 25 0.866025403784443 -0.499999999999992 0 #
straight-curve $-1 -45.4903810567663 -39.5096189432331 -15 -0.866025403784443 0.499999999999992 0 #
vertex $-1 $307 $349 #
straight-curve $-1 50 20 -15 1 0 0 #
point $-1 40 20 25 #
straight-curve $-1 50 20 25 1 0 0 #
point $-1 100 -50 -25 #
straight-curve $-1 -50.4903810567662 -48.1698729810776 -25 -0.866025403784443 0.499999999999992 0 #
straight-curve $-1 90 0 -15 0 -1 0 #
point $-1 90 20 25 #
straight-curve $-1 90 20 10 0 0 1 #
point $-1 -65 -1.04744440165294e-13 -15 #
point $-1 90 20 -15 #
