600 0 2 0           
24 FBMach with ACIS - 6.0.3 13 ACIS 6.0.3 NT 24 Tue May 22 16:48:54 2001 
1 9.9999999999999995e-007 1e-010 
body $2 $3 $-1 $-1 #
bdycol-kcp $-1 1 1 $4 #
model_id-kcp-attrib $-1 $5 $-1 $0 1 990564534 100 -1570504703 1 #
lump $-1 $-1 $6 $0 #
body $7 $8 $-1 $9 #
f_body-rbase-attrib $-1 $10 $2 $0 #
shell $-1 $-1 $-1 $11 $-1 $3 #
model_id-kcp-attrib $-1 $-1 $-1 $4 1 990564534 100 -1570504702 1 #
lump $-1 $-1 $12 $4 #
transform $-1 1 0 0 0 1 0 0 0 1 0 0 0 1 no_rotate no_reflect no_shear #
ref_vt-eye-attrib $-1 $-1 $5 $0 $13 $-1 #
face $14 $15 $16 $6 $-1 $17 reversed single #
shell $-1 $-1 $-1 $18 $-1 $8 #
eye_refinement $-1 5 grid  1 3 tri 3 4 surf 0 3 adj 0 4 grad 0 9 postcheck 0 4 stol 0.05000000074505806 4 ntol 30 4 dsil 0 8 flatness 0 7 pixarea 0 4 hmax 0 6 gridar 0 5 mgrid 10000 5 ugrid 0 5 vgrid 0 10 end_fields #
model_id-kcp-attrib $-1 $19 $-1 $11 1 990564534 100 -1570504703 2 #
face $20 $21 $22 $6 $-1 $17 reversed single #
loop $-1 $-1 $23 $11 #
cone-surface $-1 -7.5980888247784195e-018 -0.0068245122822007103 -0.022748374274002298 -2.7755575615628889e-017 -0.28734788556634488 -0.95782628522115154 0 0.119728285652644 -0.035918485695793201 1 I I 0 1 0.12500000000000008 forward I I I I #
face $-1 $24 $25 $12 $-1 $26 forward single #
fface-rbase-attrib $-1 $-1 $14 $11 #
model_id-kcp-attrib $-1 $27 $-1 $15 1 990564534 100 -1570504703 3 #
face $28 $29 $30 $6 $-1 $31 reversed single #
loop $-1 $-1 $32 $15 #
coedge $33 $34 $35 $36 $37 reversed $16 $-1 #
face $-1 $38 $39 $12 $-1 $40 reversed single #
loop $-1 $-1 $41 $18 #
plane-surface $-1 0 0 0.5 0 0 1 1 0 0 forward_v I I I I #
fface-rbase-attrib $-1 $-1 $20 $15 #
model_id-kcp-attrib $-1 $42 $-1 $21 1 990564534 100 -1570504703 4 #
face $43 $44 $45 $6 $-1 $31 reversed single #
loop $-1 $-1 $46 $21 #
cone-surface $-1 1.38777878078145e-017 0.35355339059327401 0 0 0 -1 0 0.125 0 1 I I 0 1 0.125 forward I I I I #
coedge $47 $48 $49 $50 $51 reversed $22 $-1 #
copar-rbase-attrib $-1 $-1 $-1 $23 #
coedge $52 $53 $23 $49 $54 reversed $16 $-1 #
coedge $55 $23 $56 $46 $57 reversed $16 $-1 #
coedge $58 $59 $50 $23 $37 forward $60 $-1 #
edge $61 $62 -3.1415926535897865 $63 -0.50278491549289217 $36 $64 forward 7 unknown #
face $-1 $65 $66 $12 $-1 $67 reversed single #
loop $-1 $-1 $68 $24 #
plane-surface $-1 0 0 -0.5 0 0 1 1 0 0 forward_v I I I I #
coedge $-1 $69 $70 $71 $72 forward $25 $-1 #
fface-rbase-attrib $-1 $-1 $28 $21 #
model_id-kcp-attrib $-1 $73 $-1 $29 1 990564534 100 -1570504703 5 #
face $74 $75 $60 $6 $-1 $76 forward single #
loop $-1 $-1 $77 $29 #
coedge $78 $79 $80 $35 $57 forward $30 $-1 #
copar-rbase-attrib $-1 $-1 $-1 $32 #
coedge $81 $82 $32 $77 $83 reversed $22 $-1 #
coedge $84 $32 $85 $34 $54 forward $22 $-1 #
coedge $86 $36 $87 $32 $51 forward $60 $-1 #
edge $88 $89 0.50278491549289217 $62 3.1415926535897998 $50 $90 forward 7 unknown #
copar-rbase-attrib $-1 $-1 $-1 $34 #
coedge $91 $56 $34 $92 $93 reversed $16 $-1 #
edge $94 $95 -0.46037291827592708 $62 0.50787291827592806 $34 $96 forward 7 unknown #
copar-rbase-attrib $-1 $-1 $-1 $35 #
coedge $97 $35 $53 $82 $98 reversed $16 $-1 #
edge $99 $63 -0.50278491716533991 $100 6.9829667222187468e-015 $46 $101 forward 7 unknown #
copar-rbase-attrib $-1 $-1 $-1 $36 #
coedge $102 $87 $36 $80 $103 forward $60 $-1 #
loop $-1 $104 $36 $44 #
epar-rbase-attrib $-1 $-1 $-1 $37 #
vertex $-1 $51 $105 #
vertex $-1 $57 $106 #
ellipse-curve $-1 6.4982163615592101e-018 0.139111696920796 0.46370565640265399 -2.7755575615628889e-017 -0.28734788556634488 -0.95782628522115154 -1.5407439555097901e-033 0.119728285652644 -0.035918485695793201 1 I I #
face $-1 $107 $108 $12 $-1 $109 reversed single #
loop $-1 $-1 $110 $38 #
plane-surface $-1 0 -0.5 0 0 1 0 0 0 1 forward_v I I I I #
coedge $-1 $111 $112 $113 $114 forward $39 $-1 #
coedge $-1 $115 $41 $116 $117 forward $25 $-1 #
coedge $-1 $41 $115 $118 $119 forward $25 $-1 #
coedge $-1 $120 $121 $41 $72 reversed $122 $-1 #
edge $-1 $123 -0.5 $124 0.5 $71 $125 forward 7 unknown #
fface-rbase-attrib $-1 $-1 $43 $29 #
model_id-kcp-attrib $-1 $126 $-1 $44 1 990564534 100 -1570504703 6 #
face $127 $-1 $128 $6 $-1 $76 forward single #
sphere-surface $-1 0 0 0 0.5 1 0 0 0 0 1 forward_v I I I I #
coedge $129 $130 $131 $48 $83 forward $45 $-1 #
copar-rbase-attrib $-1 $-1 $-1 $46 #
coedge $132 $133 $46 $131 $134 reversed $30 $-1 #
coedge $135 $46 $136 $59 $103 reversed $30 $-1 #
copar-rbase-attrib $-1 $-1 $-1 $48 #
coedge $137 $85 $48 $56 $98 forward $22 $-1 #
edge $138 $100 6.9829667222187468e-015 $89 0.50278491716533991 $77 $139 forward 7 unknown #
copar-rbase-attrib $-1 $-1 $-1 $49 #
coedge $140 $49 $82 $141 $142 reversed $22 $-1 #
copar-rbase-attrib $-1 $-1 $-1 $50 #
coedge $143 $50 $59 $130 $144 forward $60 $-1 #
epar-rbase-attrib $-1 $-1 $-1 $51 #
vertex $-1 $144 $145 #
ellipse-curve $-1 6.4982163615592101e-018 0.139111696920796 0.46370565640265399 -2.7755575615628889e-017 -0.28734788556634488 -0.95782628522115154 -1.5407439555097901e-033 0.119728285652644 -0.035918485695793201 1 I I #
copar-rbase-attrib $-1 $-1 $-1 $53 #
coedge $-1 $141 $141 $53 $93 forward $128 $-1 #
edge $146 $147 -6.9829667222187704e-015 $95 3.1415926535897865 $92 $148 forward 7 unknown #
epar-rbase-attrib $-1 $-1 $-1 $54 #
vertex $-1 $142 $149 #
straight-curve $-1 -8.8046892910212402e-016 -0.126552797934845 0.0131701114217908 2.7755575615628904e-017 0.287347885566345 0.95782628522115099 I I #
copar-rbase-attrib $-1 $-1 $-1 $56 #
edge $150 $100 -0.40247248381484391 $147 0.46037291827592791 $56 $151 forward 7 unknown #
epar-rbase-attrib $-1 $-1 $-1 $57 #
vertex $-1 $134 $152 #
ellipse-curve $-1 2.72116196710669e-017 0.35355339059327401 1.1785113019775799 0 -0.98940039549748304 0.145213144685405 -2.36388530381125e-017 -0.125 -0.85167943787127398 0.145213144685405 I I #
copar-rbase-attrib $-1 $-1 $-1 $59 #
edge $153 $63 -0.42906174550498999 $154 0 $59 $155 forward 7 unknown #
loop $-1 $156 $157 $44 #
point $-1 -8.6637262391578596e-016 0.019383411268152399 0.49962414209844802 #
point $-1 -0.060233459433219602 0.24402289001351399 0.43223229764969601 #
face $-1 $158 $159 $12 $-1 $160 reversed single #
loop $-1 $-1 $161 $65 #
plane-surface $-1 -0.5 0 0 1 0 0 0 0 -1 forward_v I I I I #
coedge $-1 $162 $118 $163 $164 forward $66 $-1 #
coedge $-1 $165 $68 $162 $166 forward $39 $-1 #
coedge $-1 $68 $165 $167 $168 forward $39 $-1 #
coedge $-1 $121 $120 $68 $114 reversed $122 $-1 #
edge $-1 $169 -0.5 $170 0.5 $113 $171 forward 7 unknown #
coedge $-1 $70 $69 $172 $173 forward $25 $-1 #
coedge $-1 $174 $175 $69 $117 reversed $159 $-1 #
edge $-1 $124 -0.5 $176 0.5 $116 $177 forward 7 unknown #
coedge $-1 $110 $178 $70 $119 reversed $66 $-1 #
edge $-1 $179 -0.5 $123 0.5 $118 $180 forward 7 unknown #
coedge $-1 $113 $71 $178 $181 forward $122 $-1 #
coedge $-1 $71 $113 $174 $182 reversed $122 $-1 #
loop $-1 $-1 $120 $158 #
vertex $-1 $72 $183 #
vertex $-1 $72 $184 #
straight-curve $-1 0.5 0 0.5 0 1 0 I I #
fface-rbase-attrib $-1 $-1 $74 $44 #
model_id-kcp-attrib $-1 $-1 $-1 $75 1 990564534 100 -1570504703 7 #
loop $-1 $185 $141 $75 #
copar-rbase-attrib $-1 $-1 $-1 $77 #
coedge $186 $187 $77 $87 $144 reversed $45 $-1 #
coedge $188 $77 $189 $79 $134 forward $45 $-1 #
copar-rbase-attrib $-1 $-1 $-1 $79 #
coedge $190 $136 $79 $191 $192 reversed $30 $-1 #
edge $193 $194 -0.44470591141598098 $100 0.32683186410630599 $79 $195 forward 7 unknown #
copar-rbase-attrib $-1 $-1 $-1 $80 #
coedge $196 $80 $133 $187 $197 reversed $30 $-1 #
copar-rbase-attrib $-1 $-1 $-1 $82 #
epar-rbase-attrib $-1 $-1 $-1 $83 #
ellipse-curve $-1 2.72116196710669e-017 0.35355339059327401 1.1785113019775799 0 -0.98940039549748304 0.145213144685405 -2.36388530381125e-017 -0.125 -0.85167943787127398 0.145213144685405 I I #
copar-rbase-attrib $-1 $-1 $-1 $85 #
coedge $-1 $92 $92 $85 $142 forward $128 $-1 #
edge $198 $95 -3.1415926535897998 $147 -6.9829667222187704e-015 $141 $199 forward 7 unknown #
copar-rbase-attrib $-1 $-1 $-1 $87 #
edge $200 $154 0 $89 0.42906174550498999 $87 $201 forward 7 unknown #
point $-1 0.060233459433219602 0.24402289001351399 0.43223229764969601 #
epar-rbase-attrib $-1 $-1 $-1 $93 #
vertex $-1 $142 $202 #
ellipse-curve $-1 -2.0376004169373701e-017 -0.139111696920796 -0.46370565640265399 2.7755575615628889e-017 0.28734788556634488 0.95782628522115154 0 0.119728285652644 -0.035918485695793097 1 I I #
point $-1 -8.9324684444671904e-016 -0.25883998257343999 -0.42778717070686101 #
epar-rbase-attrib $-1 $-1 $-1 $98 #
straight-curve $-1 8.6527275145256701e-016 0.11290377337044299 -0.058666859969795503 -2.7755575615628904e-017 -0.287347885566345 -0.95782628522115099 I I #
point $-1 8.7644360691029999e-016 0.22855339059327401 0.32683186410630599 #
epar-rbase-attrib $-1 $-1 $-1 $103 #
vertex $-1 $144 $203 #
intcurve-curve $-1 forward { surfintcur full nubs 3 open 9 
	-0.42906174550498999 3 -0.39897329874336601 3 -0.33295882858386699 3 -0.26694435842436698 3 -0.185703965998297 3 
	-0.10446357357222801 3 -0.052231786786113801 3 -0.026115893393056901 3 0 3 
	-0.060233459433219602 0.24402289001351399 0.43223229764969601 
	-0.068848398389049506 0.24876045236709601 0.42835711006569599 
	-0.076560243641692893 0.25435647037244502 0.42372385534387402 
	-0.083094358805636107 0.26017069661478398 0.41881563504441699 
	-0.097430298241998795 0.27292718975703001 0.40804693152635801 
	-0.108359447255232 0.28874693029642001 0.39425168457239801 
	-0.11524945290998601 0.30515335336226701 0.37894457976823998 
	-0.122139458564741 0.32155977642811301 0.363637474964081 
	-0.125 0.33852123446960197 0.34678896474000998 
	-0.125 0.35355339059327501 0.33071891388307201 
	-0.125 0.37205264173543401 0.31094238254425899 
	-0.120713441915651 0.39102578039296598 0.28875495993059602 
	-0.112569587718615 0.40789571222994803 0.26636286502684797 
	-0.104425733521578 0.42476564406692902 0.24397077012310001 
	-0.092547566581806101 0.43952650267091398 0.22132495307641301 
	-0.078364115768241996 0.450939556755935 0.20127737456709299 
	-0.069245166971193997 0.45827733775064999 0.18838820927620001 
	-0.0579383628599748 0.46519180679872602 0.174790524491403 
	-0.044906488199230397 0.47020846899825203 0.16397378754059899 
	-0.038390550868858203 0.47271680009801398 0.158565419065197 
	-0.031468457908116601 0.474763843368536 0.15387644685763199 
	-0.024044186393626099 0.47621910340932 0.150456780002407 
	-0.0166199148791355 0.477674363450103 0.14703711314718099 
	-0.0087052977976847402 0.47855339059327401 0.14486770637958499 
	8.8674862808515997e-016 0.47855339059327401 0.14486770637958499 
	0.001 
	cone 1.38777878078145e-017 0.35355339059327401 0 0 0 -1 0 0.125 0 1 I I 0 1 0.125 forward I I I I 
	sphere 0 0 0 0.5 1 0 0 0 0 1 forward_v I I I I 
	nullbs 
	nullbs 
	I I 
	0 
	0 
	0 
	} I I #
loop $-1 $-1 $204 $44 #
coedge $205 $191 $191 $189 $206 forward $104 $-1 #
face $-1 $-1 $122 $12 $-1 $207 reversed single #
loop $-1 $-1 $174 $107 #
plane-surface $-1 0 0.5 0 0 -1 0 0 0 -1 forward_v I I I I #
coedge $-1 $208 $172 $175 $209 forward $108 $-1 #
coedge $-1 $178 $110 $111 $166 reversed $66 $-1 #
coedge $-1 $172 $208 $110 $164 reversed $108 $-1 #
edge $-1 $179 -0.5 $210 0.5 $163 $211 forward 7 unknown #
coedge $-1 $112 $111 $208 $212 forward $39 $-1 #
edge $-1 $170 -0.5 $210 0.5 $162 $213 forward 7 unknown #
coedge $-1 $175 $174 $112 $168 reversed $159 $-1 #
edge $-1 $214 -0.5 $169 0.5 $167 $215 forward 7 unknown #
vertex $-1 $114 $216 #
vertex $-1 $181 $217 #
straight-curve $-1 0.5 0 -0.5 0 -1 0 I I #
coedge $-1 $161 $163 $115 $173 reversed $108 $-1 #
edge $-1 $176 -0.5 $179 0.5 $172 $218 forward 7 unknown #
coedge $-1 $167 $116 $121 $182 forward $159 $-1 #
coedge $-1 $116 $167 $161 $209 reversed $159 $-1 #
vertex $-1 $117 $219 #
straight-curve $-1 0 0.5 0.5 -1 0 0 I I #
coedge $-1 $118 $162 $120 $181 reversed $66 $-1 #
vertex $-1 $173 $220 #
straight-curve $-1 0 -0.5 0.5 1 0 0 I I #
edge $-1 $123 -0.5 $170 0.5 $120 $221 forward 7 unknown #
edge $-1 $124 -0.5 $169 0.5 $121 $222 forward 7 unknown #
point $-1 0.5 -0.5 0.5 #
point $-1 0.5 0.5 0.5 #
loop $-1 $-1 $223 $75 #
copar-rbase-attrib $-1 $-1 $-1 $130 #
coedge $224 $189 $130 $136 $197 forward $45 $-1 #
copar-rbase-attrib $-1 $-1 $-1 $131 #
coedge $225 $131 $187 $157 $206 reversed $45 $-1 #
copar-rbase-attrib $-1 $-1 $-1 $133 #
coedge $226 $157 $157 $133 $192 forward $104 $-1 #
edge $227 $228 0 $194 0.49108993786703797 $191 $229 forward 7 unknown #
epar-rbase-attrib $-1 $-1 $-1 $134 #
vertex $-1 $206 $230 #
straight-curve $-1 -8.5899305246953096e-016 0.22855339059327401 0 0 0 1 I I #
copar-rbase-attrib $-1 $-1 $-1 $136 #
edge $231 $154 -0.14486770637958499 $228 0.14486770637958499 $136 $232 forward 7 unknown #
epar-rbase-attrib $-1 $-1 $-1 $142 #
ellipse-curve $-1 -2.0376004169373701e-017 -0.139111696920796 -0.46370565640265399 2.7755575615628889e-017 0.28734788556634488 0.95782628522115154 0 0.119728285652644 -0.035918485695793097 1 I I #
epar-rbase-attrib $-1 $-1 $-1 $144 #
intcurve-curve $-1 forward { surfintcur full nubs 3 open 9 
	0 3 0.026115893393057601 3 0.0522317867861153 3 0.104463573572231 3 0.1857039659983 3 
	0.26694435842436998 3 0.33295882858386899 3 0.39897329874336901 3 0.42906174550498999 3 
	8.8674862808515997e-016 0.47855339059327401 0.14486770637958499 
	0.0087052977976867698 0.47855339059327401 0.14486770637958499 
	0.016619914879136 0.477674363450103 0.14703711314718099 
	0.024044186393626699 0.476219103409319 0.150456780002407 
	0.031468457908117302 0.474763843368536 0.15387644685763299 
	0.038390550868859001 0.47271680009801398 0.158565419065197 
	0.044906488199231299 0.47020846899825097 0.16397378754059999 
	0.057938362859976 0.46519180679872602 0.174790524491405 
	0.069245166971195496 0.45827733775064999 0.18838820927620101 
	0.078364115768243495 0.450939556755934 0.20127737456709499 
	0.092547566581807406 0.43952650267091298 0.221324953076415 
	0.104425733521579 0.42476564406692802 0.243970770123102 
	0.112569587718615 0.40789571222994597 0.26636286502685003 
	0.120713441915652 0.39102578039296398 0.28875495993059802 
	0.125 0.37205264173543301 0.31094238254426099 
	0.125 0.35355339059327301 0.33071891388307401 
	0.125 0.33852123446959997 0.34678896474001197 
	0.12213945856474 0.32155977642811201 0.363637474964083 
	0.11524945290998601 0.30515335336226501 0.37894457976824097 
	0.108359447255231 0.28874693029641901 0.39425168457240001 
	0.097430298241997698 0.27292718975702801 0.40804693152636001 
	0.083094358805634802 0.26017069661478298 0.41881563504441799 
	0.076560243641692005 0.25435647037244502 0.42372385534387502 
	0.068848398389049006 0.24876045236709601 0.42835711006569699 
	0.060233459433219602 0.24402289001351399 0.43223229764969601 
	0.001 
	cone 1.38777878078145e-017 0.35355339059327401 0 0 0 -1 0 0.125 0 1 I I 0 1 0.125 forward I I I I 
	sphere 0 0 0 0.5 1 0 0 0 0 1 forward_v I I I I 
	nullbs 
	nullbs 
	I I 
	0 
	0 
	0 
	} I I #
point $-1 8.5249483610797199e-016 -0.019383411268152399 -0.49962414209844802 #
point $-1 8.8674862808515997e-016 0.47855339059327401 0.14486770637958499 #
coedge $233 $234 $234 $223 $235 reversed $156 $-1 #
copar-rbase-attrib $-1 $-1 $-1 $157 #
edge $236 $194 -0.49108993786704003 $228 0 $157 $237 forward 7 unknown #
plane-surface $-1 0.5 0 0 -1 0 0 0 0 1 forward_v I I I I #
coedge $-1 $163 $161 $165 $212 reversed $108 $-1 #
edge $-1 $176 -0.5 $214 0.5 $175 $238 forward 7 unknown #
vertex $-1 $212 $239 #
straight-curve $-1 -0.5 -0.5 0 0 0 -1 I I #
edge $-1 $210 -0.5 $214 0.5 $208 $240 forward 7 unknown #
straight-curve $-1 0 -0.5 -0.5 -1 0 0 I I #
vertex $-1 $168 $241 #
straight-curve $-1 0 0.5 -0.5 1 0 0 I I #
point $-1 0.5 0.5 -0.5 #
point $-1 0.5 -0.5 -0.5 #
straight-curve $-1 -0.5 0 0.5 0 -1 0 I I #
point $-1 -0.5 0.5 0.5 #
point $-1 -0.5 -0.5 0.5 #
straight-curve $-1 0.5 -0.5 0 0 0 -1 I I #
straight-curve $-1 0.5 0.5 0 0 0 -1 I I #
coedge $-1 $242 $242 $204 $235 forward $185 $-1 #
copar-rbase-attrib $-1 $-1 $-1 $187 #
copar-rbase-attrib $-1 $-1 $-1 $189 #
copar-rbase-attrib $-1 $-1 $-1 $191 #
epar-rbase-attrib $-1 $-1 $-1 $192 #
vertex $-1 $206 $243 #
intcurve-curve $-1 forward { surfintcur full nubs 3 open 10 
	0 3 0.026115893393056901 3 0.052231786786113801 3 0.10446357357222801 3 0.185703965998297 3 
	0.26694435842436698 3 0.33295882858386699 3 0.39897329874336601 3 0.44503161830520199 3 0.49108993786703797 3 
	8.8674862808515997e-016 0.47855339059327401 -0.14486770637958499 
	-0.0087052977976847506 0.47855339059327401 -0.14486770637958499 
	-0.016619914879135601 0.477674363450103 -0.14703711314718099 
	-0.0240441863936262 0.476219103409319 -0.150456780002407 
	-0.031468457908116698 0.474763843368536 -0.15387644685763199 
	-0.038390550868858002 0.47271680009801398 -0.158565419065197 
	-0.044906488199230203 0.47020846899825203 -0.16397378754059899 
	-0.057938362859974703 0.46519180679872602 -0.174790524491404 
	-0.069245166971193997 0.45827733775064999 -0.18838820927620001 
	-0.078364115768241996 0.450939556755935 -0.20127737456709299 
	-0.092547566581806101 0.43952650267091398 -0.22132495307641301 
	-0.104425733521578 0.42476564406692902 -0.24397077012310001 
	-0.112569587718615 0.40789571222994803 -0.26636286502684797 
	-0.120713441915651 0.39102578039296598 -0.28875495993059602 
	-0.125 0.37205264173543401 -0.31094238254425899 
	-0.125 0.35355339059327501 -0.33071891388307201 
	-0.125 0.33852123446960197 -0.34678896474000998 
	-0.122139458564741 0.32155977642811401 -0.363637474964081 
	-0.11524945290998601 0.30515335336226701 -0.37894457976823998 
	-0.108359447255232 0.28874693029642001 -0.39425168457239801 
	-0.097430298241998795 0.27292718975703001 -0.40804693152635801 
	-0.083094358805636107 0.26017069661478398 -0.41881563504441699 
	-0.0730921687072566 0.25127048676360603 -0.42632896336020898 
	-0.060265700816104897 0.24294750263130899 -0.43313540873492901 
	-0.0458341626561104 0.237259669637985 -0.43772945833805599 
	-0.031402624496115902 0.23157183664466099 -0.44232350794118402 
	-0.0153527731872794 0.22855339059327401 -0.44470591141598098 
	-8.5899305246953096e-016 0.22855339059327401 -0.44470591141598098 
	0.001 
	cone 1.38777878078145e-017 0.35355339059327401 0 0 0 -1 0 0.125 0 1 I I 0 1 0.125 forward I I I I 
	sphere 0 0 0 0.5 1 0 0 0 0 1 forward_v I I I I 
	nullbs 
	nullbs 
	I I 
	0 
	0 
	0 
	} I I #
point $-1 -8.5899305246953096e-016 0.22855339059327401 -0.44470591141598098 #
epar-rbase-attrib $-1 $-1 $-1 $197 #
straight-curve $-1 8.8674862808515997e-016 0.47855339059327401 0 0 0 -1 I I #
copar-rbase-attrib $-1 $-1 $-1 $204 #
coedge $244 $204 $204 $242 $245 reversed $156 $-1 #
edge $246 $247 -3.1415926535897998 $248 0 $223 $249 forward 7 unknown #
epar-rbase-attrib $-1 $-1 $-1 $206 #
intcurve-curve $-1 forward { surfintcur full nubs 3 open 10 
	-0.49108993786704003 3 -0.44503161830520399 3 -0.39897329874336901 3 -0.33295882858386899 3 -0.26694435842436998 3 
	-0.1857039659983 3 -0.104463573572231 3 -0.0522317867861153 3 -0.026115893393057601 3 0 3 
	-8.5899305246953096e-016 0.22855339059327401 -0.44470591141598098 
	0.0153527731872777 0.22855339059327401 -0.44470591141598098 
	0.031402624496114202 0.23157183664466099 -0.44232350794118402 
	0.045834162656108797 0.23725966963798401 -0.43772945833805699 
	0.060265700816103399 0.24294750263130799 -0.43313540873493001 
	0.073092168707255198 0.25127048676360503 -0.42632896336020998 
	0.083094358805634802 0.26017069661478298 -0.41881563504441799 
	0.097430298241997698 0.27292718975702801 -0.40804693152636001 
	0.108359447255231 0.28874693029641901 -0.39425168457240001 
	0.11524945290998601 0.30515335336226501 -0.37894457976824097 
	0.12213945856474 0.32155977642811201 -0.363637474964083 
	0.125 0.33852123446959997 -0.34678896474001197 
	0.125 0.35355339059327301 -0.33071891388307401 
	0.125 0.37205264173543301 -0.31094238254426099 
	0.120713441915652 0.39102578039296398 -0.28875495993059802 
	0.112569587718615 0.40789571222994597 -0.26636286502685003 
	0.104425733521579 0.42476564406692802 -0.243970770123102 
	0.092547566581807406 0.43952650267091298 -0.221324953076415 
	0.078364115768243495 0.450939556755934 -0.20127737456709499 
	0.069245166971195496 0.45827733775064999 -0.18838820927620101 
	0.057938362859976 0.46519180679872602 -0.174790524491405 
	0.044906488199231299 0.47020846899825097 -0.16397378754059999 
	0.038390550868859001 0.47271680009801398 -0.158565419065197 
	0.031468457908117302 0.474763843368536 -0.15387644685763299 
	0.024044186393626699 0.476219103409319 -0.150456780002407 
	0.016619914879136 0.477674363450103 -0.14703711314718099 
	0.0087052977976867698 0.47855339059327401 -0.14486770637958499 
	8.8674862808515997e-016 0.47855339059327401 -0.14486770637958499 
	0.001 
	cone 1.38777878078145e-017 0.35355339059327401 0 0 0 -1 0 0.125 0 1 I I 0 1 0.125 forward I I I I 
	sphere 0 0 0 0.5 1 0 0 0 0 1 forward_v I I I I 
	nullbs 
	nullbs 
	I I 
	0 
	0 
	0 
	} I I #
straight-curve $-1 -0.5 0.5 0 0 0 -1 I I #
point $-1 -0.5 -0.5 -0.5 #
straight-curve $-1 -0.5 0 -0.5 0 1 0 I I #
point $-1 -0.5 0.5 -0.5 #
coedge $-1 $223 $223 $234 $245 forward $185 $-1 #
point $-1 8.8674862808515997e-016 0.47855339059327401 -0.14486770637958499 #
copar-rbase-attrib $-1 $-1 $-1 $234 #
edge $250 $248 0 $247 3.1415926535897865 $242 $249 forward 7 unknown #
epar-rbase-attrib $-1 $-1 $-1 $235 #
vertex $-1 $235 $251 #
vertex $-1 $245 $252 #
ellipse-curve $-1 0 0 0 6.9829667222187602e-015 -1 0 0 0 0.5 1 I I #
epar-rbase-attrib $-1 $-1 $-1 $245 #
point $-1 -3.4914833611093801e-015 -2.4380912121807299e-029 -0.5 #
point $-1 0 0 0.5 #
End-of-ACIS-data 