104 158 0 0                             
body $1 $2 $-1 $-1 #
f_body-lwd-attrib $-1 $3 $-1 $0 #
lump $-1 $-1 $4 $0 #
ref_vt-lwd-attrib $-1 $-1 $1 $0 $5 $-1 #
shell $-1 $-1 $-1 $6 $2 #
refinement $-1 0 0 0 0 0.0500000007450581 30 0 0 0 #
face $7 $8 $9 $4 $-1 $10 1 #
fface-lwd-attrib $-1 $-1 $-1 $6 #
face $11 $12 $13 $4 $-1 $10 1 #
loop $-1 $-1 $14 $6 #
cone-surface $-1 -7.59808882477842e-18 -0.00682451228220071 -0.0227483742740023 -2.77555756156289e-17 -0.287347885566345 -0.957826285221152 0 0.119728285652644 -0.0359184856957932 1 0 1 0 #
fface-lwd-attrib $-1 $-1 $-1 $8 #
face $15 $16 $17 $4 $-1 $18 1 #
loop $-1 $-1 $19 $8 #
coedge $20 $21 $22 $23 $24 1 $9 $-1 #
fface-lwd-attrib $-1 $-1 $-1 $12 #
face $25 $26 $27 $4 $-1 $18 1 #
loop $-1 $-1 $28 $12 #
cone-surface $-1 1.38777878078145e-17 0.353553390593274 0 0 0 -1 0 0.125 0 1 0 1 0 #
coedge $29 $30 $31 $32 $33 1 $13 $-1 #
copar-lwd-attrib $-1 $-1 $-1 $14 #
coedge $34 $35 $14 $31 $36 1 $9 $-1 #
coedge $37 $14 $38 $28 $39 1 $9 $-1 #
coedge $40 $41 $32 $14 $24 0 $42 $-1 #
edge $43 $44 $45 $23 $46 0 #
fface-lwd-attrib $-1 $-1 $-1 $16 #
face $47 $48 $42 $4 $-1 $49 0 #
loop $-1 $-1 $50 $16 #
coedge $51 $52 $53 $22 $39 0 $17 $-1 #
copar-lwd-attrib $-1 $-1 $-1 $19 #
coedge $54 $55 $19 $50 $56 1 $13 $-1 #
coedge $57 $19 $58 $21 $36 0 $13 $-1 #
coedge $59 $23 $60 $19 $33 0 $42 $-1 #
edge $61 $62 $44 $32 $63 0 #
copar-lwd-attrib $-1 $-1 $-1 $21 #
coedge $64 $38 $21 $65 $66 1 $9 $-1 #
edge $67 $68 $44 $21 $69 0 #
copar-lwd-attrib $-1 $-1 $-1 $22 #
coedge $70 $22 $35 $55 $71 1 $9 $-1 #
edge $72 $45 $73 $28 $74 0 #
copar-lwd-attrib $-1 $-1 $-1 $23 #
coedge $75 $60 $23 $53 $76 0 $42 $-1 #
loop $-1 $77 $23 $26 #
epar-lwd-attrib $-1 $-1 $-1 $24 #
vertex $-1 $33 $78 #
vertex $-1 $39 $79 #
ellipse-curve $-1 6.49821636155921e-18 0.139111696920796 0.463705656402654 -2.77555756156289e-17 -0.287347885566345 -0.957826285221152 -1.54074395550979e-33 0.119728285652644 -0.0359184856957932 1 #
fface-lwd-attrib $-1 $-1 $-1 $26 #
face $-1 $-1 $80 $4 $-1 $49 0 #
sphere-surface $-1 0 0 0 0.5 1 0 0 0 0 1 0 #
coedge $81 $82 $83 $30 $56 0 $27 $-1 #
copar-lwd-attrib $-1 $-1 $-1 $28 #
coedge $84 $85 $28 $83 $86 1 $17 $-1 #
coedge $87 $28 $88 $41 $76 1 $17 $-1 #
copar-lwd-attrib $-1 $-1 $-1 $30 #
coedge $89 $58 $30 $38 $71 0 $13 $-1 #
edge $90 $73 $62 $50 $91 0 #
copar-lwd-attrib $-1 $-1 $-1 $31 #
coedge $92 $31 $55 $93 $94 1 $13 $-1 #
copar-lwd-attrib $-1 $-1 $-1 $32 #
coedge $95 $32 $41 $82 $96 0 $42 $-1 #
epar-lwd-attrib $-1 $-1 $-1 $33 #
vertex $-1 $96 $97 #
ellipse-curve $-1 6.49821636155921e-18 0.139111696920796 0.463705656402654 -2.77555756156289e-17 -0.287347885566345 -0.957826285221152 -1.54074395550979e-33 0.119728285652644 -0.0359184856957932 1 #
copar-lwd-attrib $-1 $-1 $-1 $35 #
coedge $-1 $93 $93 $35 $66 0 $80 $-1 #
edge $98 $99 $68 $65 $100 0 #
epar-lwd-attrib $-1 $-1 $-1 $36 #
vertex $-1 $94 $101 #
straight-curve $-1 -8.80468929102124e-16 -0.126552797934845 0.0131701114217908 2.77555756156289e-17 0.287347885566345 0.957826285221151 #
copar-lwd-attrib $-1 $-1 $-1 $38 #
edge $102 $73 $99 $38 $103 0 #
epar-lwd-attrib $-1 $-1 $-1 $39 #
vertex $-1 $86 $104 #
ellipse-curve $-1 2.72116196710669e-17 0.353553390593274 1.17851130197758 0 -0.989400395497483 0.145213144685405 -2.36388530381125e-17 -0.125 -0.851679437871274 0.145213144685405 #
copar-lwd-attrib $-1 $-1 $-1 $41 #
edge $105 $45 $106 $41 $107 0 #
loop $-1 $108 $109 $26 #
point $-1 -8.66372623915786e-16 0.0193834112681524 0.499624142098448 #
point $-1 -0.0602334594332196 0.244022890013514 0.432232297649696 #
loop $-1 $110 $93 $48 #
copar-lwd-attrib $-1 $-1 $-1 $50 #
coedge $111 $112 $50 $60 $96 1 $27 $-1 #
coedge $113 $50 $114 $52 $86 0 $27 $-1 #
copar-lwd-attrib $-1 $-1 $-1 $52 #
coedge $115 $88 $52 $116 $117 1 $17 $-1 #
edge $118 $119 $73 $52 $120 0 #
copar-lwd-attrib $-1 $-1 $-1 $53 #
coedge $121 $53 $85 $112 $122 1 $17 $-1 #
copar-lwd-attrib $-1 $-1 $-1 $55 #
epar-lwd-attrib $-1 $-1 $-1 $56 #
ellipse-curve $-1 2.72116196710669e-17 0.353553390593274 1.17851130197758 0 -0.989400395497483 0.145213144685405 -2.36388530381125e-17 -0.125 -0.851679437871274 0.145213144685405 #
copar-lwd-attrib $-1 $-1 $-1 $58 #
coedge $-1 $65 $65 $58 $94 0 $80 $-1 #
edge $123 $68 $99 $93 $124 0 #
copar-lwd-attrib $-1 $-1 $-1 $60 #
edge $125 $106 $62 $60 $126 0 #
point $-1 0.0602334594332196 0.244022890013514 0.432232297649696 #
epar-lwd-attrib $-1 $-1 $-1 $66 #
vertex $-1 $94 $127 #
ellipse-curve $-1 -2.03760041693737e-17 -0.139111696920796 -0.463705656402654 2.77555756156289e-17 0.287347885566345 0.957826285221152 0 0.119728285652644 -0.0359184856957931 1 #
point $-1 -8.93246844446719e-16 -0.25883998257344 -0.427787170706861 #
epar-lwd-attrib $-1 $-1 $-1 $71 #
straight-curve $-1 8.65272751452567e-16 0.112903773370443 -0.0586668599697955 -2.77555756156289e-17 -0.287347885566345 -0.957826285221151 #
point $-1 8.764436069103e-16 0.228553390593274 0.326831864106306 #
epar-lwd-attrib $-1 $-1 $-1 $76 #
vertex $-1 $96 $128 #
intcurve-curve $-1 0 surfint nubs 3 open 9 
	-0.42906174550499 3 -0.398973298743366 3 -0.332958828583867 3 -0.266944358424367 3 -0.185703965998297 3 
	-0.104463573572228 3 -0.0522317867861138 3 -0.0261158933930569 3 0 3 
	-0.0602334594332196 0.244022890013514 0.432232297649696 
	-0.0688483983890495 0.248760452367096 0.428357110065696 
	-0.0765602436416929 0.254356470372445 0.423723855343874 
	-0.0830943588056361 0.260170696614784 0.418815635044417 
	-0.0974302982419988 0.27292718975703 0.408046931526358 
	-0.108359447255232 0.28874693029642 0.394251684572398 
	-0.115249452909986 0.305153353362267 0.37894457976824 
	-0.122139458564741 0.321559776428113 0.363637474964081 
	-0.125 0.338521234469602 0.34678896474001 
	-0.125 0.353553390593275 0.330718913883072 
	-0.125 0.372052641735434 0.310942382544259 
	-0.120713441915651 0.391025780392966 0.288754959930596 
	-0.112569587718615 0.407895712229948 0.266362865026848 
	-0.104425733521578 0.424765644066929 0.2439707701231 
	-0.0925475665818061 0.439526502670914 0.221324953076413 
	-0.078364115768242 0.450939556755935 0.201277374567093 
	-0.069245166971194 0.45827733775065 0.1883882092762 
	-0.0579383628599748 0.465191806798726 0.174790524491403 
	-0.0449064881992304 0.470208468998252 0.163973787540599 
	-0.0383905508688582 0.472716800098014 0.158565419065197 
	-0.0314684579081166 0.474763843368536 0.153876446857632 
	-0.0240441863936261 0.47621910340932 0.150456780002407 
	-0.0166199148791355 0.477674363450103 0.147037113147181 
	-0.00870529779768474 0.478553390593274 0.144867706379585 
	8.8674862808516e-16 0.478553390593274 0.144867706379585 
	0.001 
	cone 1.38777878078145e-17 0.353553390593274 0 0 0 -1 0 0.125 0 1 0 1 0 
	sphere 0 0 0 0.5 1 0 0 0 0 1 0 
	nullbs 
	nullbs 
	#
loop $-1 $-1 $129 $26 #
coedge $130 $116 $116 $114 $131 0 $77 $-1 #
loop $-1 $-1 $132 $48 #
copar-lwd-attrib $-1 $-1 $-1 $82 #
coedge $133 $114 $82 $88 $122 0 $27 $-1 #
copar-lwd-attrib $-1 $-1 $-1 $83 #
coedge $134 $83 $112 $109 $131 1 $27 $-1 #
copar-lwd-attrib $-1 $-1 $-1 $85 #
coedge $135 $109 $109 $85 $117 0 $77 $-1 #
edge $136 $137 $119 $116 $138 0 #
epar-lwd-attrib $-1 $-1 $-1 $86 #
vertex $-1 $131 $139 #
straight-curve $-1 -8.58993052469531e-16 0.228553390593274 0 -0 -0 1 #
copar-lwd-attrib $-1 $-1 $-1 $88 #
edge $140 $106 $137 $88 $141 0 #
epar-lwd-attrib $-1 $-1 $-1 $94 #
ellipse-curve $-1 -2.03760041693737e-17 -0.139111696920796 -0.463705656402654 2.77555756156289e-17 0.287347885566345 0.957826285221152 0 0.119728285652644 -0.0359184856957931 1 #
epar-lwd-attrib $-1 $-1 $-1 $96 #
intcurve-curve $-1 0 surfint nubs 3 open 9 
	0 3 0.0261158933930576 3 0.0522317867861153 3 0.104463573572231 3 0.1857039659983 3 
	0.26694435842437 3 0.332958828583869 3 0.398973298743369 3 0.42906174550499 3 
	8.8674862808516e-16 0.478553390593274 0.144867706379585 
	0.00870529779768677 0.478553390593274 0.144867706379585 
	0.016619914879136 0.477674363450103 0.147037113147181 
	0.0240441863936267 0.476219103409319 0.150456780002407 
	0.0314684579081173 0.474763843368536 0.153876446857633 
	0.038390550868859 0.472716800098014 0.158565419065197 
	0.0449064881992313 0.470208468998251 0.1639737875406 
	0.057938362859976 0.465191806798726 0.174790524491405 
	0.0692451669711955 0.45827733775065 0.188388209276201 
	0.0783641157682435 0.450939556755934 0.201277374567095 
	0.0925475665818074 0.439526502670913 0.221324953076415 
	0.104425733521579 0.424765644066928 0.243970770123102 
	0.112569587718615 0.407895712229946 0.26636286502685 
	0.120713441915652 0.391025780392964 0.288754959930598 
	0.125 0.372052641735433 0.310942382544261 
	0.125 0.353553390593273 0.330718913883074 
	0.125 0.3385212344696 0.346788964740012 
	0.12213945856474 0.321559776428112 0.363637474964083 
	0.115249452909986 0.305153353362265 0.378944579768241 
	0.108359447255231 0.288746930296419 0.3942516845724 
	0.0974302982419977 0.272927189757028 0.40804693152636 
	0.0830943588056348 0.260170696614783 0.418815635044418 
	0.076560243641692 0.254356470372445 0.423723855343875 
	0.068848398389049 0.248760452367096 0.428357110065697 
	0.0602334594332196 0.244022890013514 0.432232297649696 
	0.001 
	cone 1.38777878078145e-17 0.353553390593274 0 0 0 -1 0 0.125 0 1 0 1 0 
	sphere 0 0 0 0.5 1 0 0 0 0 1 0 
	nullbs 
	nullbs 
	#
point $-1 8.52494836107972e-16 -0.0193834112681524 -0.499624142098448 #
point $-1 8.8674862808516e-16 0.478553390593274 0.144867706379585 #
coedge $142 $143 $143 $132 $144 1 $108 $-1 #
copar-lwd-attrib $-1 $-1 $-1 $109 #
edge $145 $119 $137 $109 $146 0 #
coedge $-1 $147 $147 $129 $144 0 $110 $-1 #
copar-lwd-attrib $-1 $-1 $-1 $112 #
copar-lwd-attrib $-1 $-1 $-1 $114 #
copar-lwd-attrib $-1 $-1 $-1 $116 #
epar-lwd-attrib $-1 $-1 $-1 $117 #
vertex $-1 $131 $148 #
intcurve-curve $-1 0 surfint nubs 3 open 10 
	0 3 0.0261158933930569 3 0.0522317867861138 3 0.104463573572228 3 0.185703965998297 3 
	0.266944358424367 3 0.332958828583867 3 0.398973298743366 3 0.445031618305202 3 0.491089937867038 3 
	8.8674862808516e-16 0.478553390593274 -0.144867706379585 
	-0.00870529779768475 0.478553390593274 -0.144867706379585 
	-0.0166199148791356 0.477674363450103 -0.147037113147181 
	-0.0240441863936262 0.476219103409319 -0.150456780002407 
	-0.0314684579081167 0.474763843368536 -0.153876446857632 
	-0.038390550868858 0.472716800098014 -0.158565419065197 
	-0.0449064881992302 0.470208468998252 -0.163973787540599 
	-0.0579383628599747 0.465191806798726 -0.174790524491404 
	-0.069245166971194 0.45827733775065 -0.1883882092762 
	-0.078364115768242 0.450939556755935 -0.201277374567093 
	-0.0925475665818061 0.439526502670914 -0.221324953076413 
	-0.104425733521578 0.424765644066929 -0.2439707701231 
	-0.112569587718615 0.407895712229948 -0.266362865026848 
	-0.120713441915651 0.391025780392966 -0.288754959930596 
	-0.125 0.372052641735434 -0.310942382544259 
	-0.125 0.353553390593275 -0.330718913883072 
	-0.125 0.338521234469602 -0.34678896474001 
	-0.122139458564741 0.321559776428114 -0.363637474964081 
	-0.115249452909986 0.305153353362267 -0.37894457976824 
	-0.108359447255232 0.28874693029642 -0.394251684572398 
	-0.0974302982419988 0.27292718975703 -0.408046931526358 
	-0.0830943588056361 0.260170696614784 -0.418815635044417 
	-0.0730921687072566 0.251270486763606 -0.426328963360209 
	-0.0602657008161049 0.242947502631309 -0.433135408734929 
	-0.0458341626561104 0.237259669637985 -0.437729458338056 
	-0.0314026244961159 0.231571836644661 -0.442323507941184 
	-0.0153527731872794 0.228553390593274 -0.444705911415981 
	-8.58993052469531e-16 0.228553390593274 -0.444705911415981 
	0.001 
	cone 1.38777878078145e-17 0.353553390593274 0 0 0 -1 0 0.125 0 1 0 1 0 
	sphere 0 0 0 0.5 1 0 0 0 0 1 0 
	nullbs 
	nullbs 
	#
point $-1 -8.58993052469531e-16 0.228553390593274 -0.444705911415981 #
epar-lwd-attrib $-1 $-1 $-1 $122 #
straight-curve $-1 8.8674862808516e-16 0.478553390593274 0 0 0 -1 #
copar-lwd-attrib $-1 $-1 $-1 $129 #
coedge $149 $129 $129 $147 $150 1 $108 $-1 #
edge $151 $152 $153 $132 $154 0 #
epar-lwd-attrib $-1 $-1 $-1 $131 #
intcurve-curve $-1 0 surfint nubs 3 open 10 
	-0.49108993786704 3 -0.445031618305204 3 -0.398973298743369 3 -0.332958828583869 3 -0.26694435842437 3 
	-0.1857039659983 3 -0.104463573572231 3 -0.0522317867861153 3 -0.0261158933930576 3 0 3 
	-8.58993052469531e-16 0.228553390593274 -0.444705911415981 
	0.0153527731872777 0.228553390593274 -0.444705911415981 
	0.0314026244961142 0.231571836644661 -0.442323507941184 
	0.0458341626561088 0.237259669637984 -0.437729458338057 
	0.0602657008161034 0.242947502631308 -0.43313540873493 
	0.0730921687072552 0.251270486763605 -0.42632896336021 
	0.0830943588056348 0.260170696614783 -0.418815635044418 
	0.0974302982419977 0.272927189757028 -0.40804693152636 
	0.108359447255231 0.288746930296419 -0.3942516845724 
	0.115249452909986 0.305153353362265 -0.378944579768241 
	0.12213945856474 0.321559776428112 -0.363637474964083 
	0.125 0.3385212344696 -0.346788964740012 
	0.125 0.353553390593273 -0.330718913883074 
	0.125 0.372052641735433 -0.310942382544261 
	0.120713441915652 0.391025780392964 -0.288754959930598 
	0.112569587718615 0.407895712229946 -0.26636286502685 
	0.104425733521579 0.424765644066928 -0.243970770123102 
	0.0925475665818074 0.439526502670913 -0.221324953076415 
	0.0783641157682435 0.450939556755934 -0.201277374567095 
	0.0692451669711955 0.45827733775065 -0.188388209276201 
	0.057938362859976 0.465191806798726 -0.174790524491405 
	0.0449064881992313 0.470208468998251 -0.1639737875406 
	0.038390550868859 0.472716800098014 -0.158565419065197 
	0.0314684579081173 0.474763843368536 -0.153876446857633 
	0.0240441863936267 0.476219103409319 -0.150456780002407 
	0.016619914879136 0.477674363450103 -0.147037113147181 
	0.00870529779768677 0.478553390593274 -0.144867706379585 
	8.8674862808516e-16 0.478553390593274 -0.144867706379585 
	0.001 
	cone 1.38777878078145e-17 0.353553390593274 0 0 0 -1 0 0.125 0 1 0 1 0 
	sphere 0 0 0 0.5 1 0 0 0 0 1 0 
	nullbs 
	nullbs 
	#
coedge $-1 $132 $132 $143 $150 0 $110 $-1 #
point $-1 8.8674862808516e-16 0.478553390593274 -0.144867706379585 #
copar-lwd-attrib $-1 $-1 $-1 $143 #
edge $155 $153 $152 $147 $154 0 #
epar-lwd-attrib $-1 $-1 $-1 $144 #
vertex $-1 $144 $156 #
vertex $-1 $150 $157 #
ellipse-curve $-1 0 0 0 6.98296672221876e-15 -1 0 -0 0 0.5 1 #
epar-lwd-attrib $-1 $-1 $-1 $150 #
point $-1 -3.49148336110938e-15 -2.43809121218073e-29 -0.5 #
point $-1 0 0 0.5 #
