600 0 2 0           
24 FBMach with ACIS - 6.0.3 13 ACIS 6.0.3 NT 24 Tue May 22 16:48:43 2001 
1 9.9999999999999995e-007 1e-010 
body $2 $3 $-1 $4 #
bdycol-kcp $-1 1 2 $5 $6 #
model_id-kcp-attrib $-1 $7 $-1 $0 1 990564519 80 -1102053375 1 #
lump $-1 $-1 $8 $0 #
transform $-1 1 0 0 0 1 0 0 0 1 0 0 0 1 no_rotate no_reflect no_shear #
body $9 $10 $-1 $11 #
body $12 $13 $-1 $14 #
f_body-rbase-attrib $-1 $15 $2 $0 #
shell $-1 $-1 $-1 $16 $-1 $3 #
model_id-kcp-attrib $-1 $-1 $-1 $5 1 990564519 90 -1101398014 1 #
lump $-1 $-1 $17 $5 #
transform $-1 1 0 0 0 1 0 0 0 1 0 0.68897609262874104 -0.23720464999999999 1 no_rotate no_reflect no_shear #
rgb_color-st-attrib $-1 $18 $-1 $6 0.5 1 1 #
lump $-1 $19 $20 $6 #
transform $-1 1 0 0 0 1 0 0 0 1 0 0.68897609262874104 -0.23720464999999999 1 no_rotate no_reflect no_shear #
ref_vt-eye-attrib $-1 $-1 $7 $0 $21 $-1 #
face $22 $23 $24 $8 $-1 $25 reversed single #
shell $-1 $-1 $-1 $26 $-1 $10 #
model_id-kcp-attrib $-1 $-1 $12 $6 1 990564519 490 -1091960829 1 #
lump $-1 $-1 $27 $6 #
shell $-1 $-1 $-1 $28 $-1 $13 #
eye_refinement $-1 5 grid  1 3 tri 3 4 surf 0 3 adj 0 4 grad 0 9 postcheck 0 4 stol 0.068850226700305939 4 ntol 30 4 dsil 0 8 flatness 0 7 pixarea 0 4 hmax 0 6 gridar 0 5 mgrid 10000 5 ugrid 0 5 vgrid 0 10 end_fields #
model_id-kcp-attrib $-1 $29 $-1 $16 1 990564519 80 -1102053375 2 #
face $30 $31 $32 $8 $-1 $33 reversed single #
loop $-1 $-1 $34 $16 #
plane-surface $-1 1.968504 -1.2688710000000001 -0.29527560000000003 0 0.22665135294287711 -0.97397595668946746 -1 0 0 forward_v I I I I #
face $35 $36 $37 $17 $-1 $38 forward single #
shell $-1 $-1 $-1 $39 $-1 $19 #
face $-1 $40 $41 $20 $-1 $42 reversed single #
fface-rbase-attrib $-1 $-1 $22 $16 #
model_id-kcp-attrib $-1 $43 $-1 $23 1 990564519 80 -1102053375 3 #
face $44 $45 $46 $8 $-1 $47 forward single #
loop $-1 $-1 $48 $23 #
plane-surface $-1 1.968504 -1.574803 -0.29527560000000003 0 0 -1 -1 0 0 forward_v I I I I #
coedge $49 $50 $51 $52 $53 reversed $24 $-1 #
model_id-kcp-attrib $-1 $-1 $-1 $26 1 990564519 90 -1101398014 2 #
face $54 $55 $56 $17 $-1 $57 reversed single #
loop $-1 $-1 $58 $26 #
plane-surface $-1 0 0 0.68850224999999998 0 0 1 1 0 0 forward_v I I I I #
face $-1 $59 $60 $27 $-1 $61 reversed single #
face $-1 $62 $63 $20 $-1 $42 reversed single #
loop $-1 $-1 $64 $28 #
cone-surface $-1 0 -0.68897609262874104 0.68850224999999998 0 0 1 -1.377953 -2.2204460492503131e-016 0 1 I I 0 1 1.377953 forward I I I I #
fface-rbase-attrib $-1 $-1 $30 $23 #
model_id-kcp-attrib $-1 $65 $-1 $31 1 990564519 80 -1102053375 4 #
face $66 $67 $68 $8 $-1 $69 reversed single #
loop $-1 $70 $71 $31 #
plane-surface $-1 5.5511151231257802e-017 1.0879212731571899 0 0 0 1 1 0 0 forward_v I I I I #
coedge $72 $73 $73 $74 $75 reversed $32 $-1 #
copar-rbase-attrib $-1 $-1 $-1 $34 #
coedge $76 $77 $34 $73 $78 reversed $24 $-1 #
coedge $79 $34 $77 $71 $80 reversed $24 $-1 #
coedge $81 $82 $74 $34 $53 forward $83 $-1 #
edge $84 $85 0.4005731482017067 $86 1.5707963278043477 $52 $87 forward 7 unknown #
model_id-kcp-attrib $-1 $-1 $-1 $36 1 990564519 90 -1101398014 5 #
face $-1 $88 $89 $17 $-1 $90 reversed single #
loop $-1 $-1 $91 $36 #
plane-surface $-1 0 0 -0.68850224999999998 0 0 1 1 0 0 forward_v I I I I #
coedge $-1 $92 $93 $94 $95 forward $37 $-1 #
face $-1 $96 $97 $27 $-1 $98 reversed single #
loop $-1 $-1 $99 $39 #
plane-surface $-1 0 2.0669290926287411 0 0 -1 0 0 0 -1 forward_v I I I I #
face $-1 $100 $101 $20 $-1 $102 reversed single #
loop $-1 $-1 $103 $40 #
coedge $-1 $104 $105 $106 $107 reversed $41 $-1 #
fface-rbase-attrib $-1 $-1 $44 $31 #
model_id-kcp-attrib $-1 $108 $-1 $45 1 990564519 80 -1102053375 5 #
face $109 $110 $111 $8 $-1 $112 reversed single #
loop $-1 $-1 $113 $45 #
plane-surface $-1 1.968504 3.1496059999999999 -0.15748029999999999 0 0 1 1 0 0 forward_v I I I I #
loop $-1 $-1 $114 $31 #
coedge $115 $116 $117 $51 $80 forward $46 $-1 #
copar-rbase-attrib $-1 $-1 $-1 $48 #
coedge $118 $48 $48 $50 $78 forward $32 $-1 #
coedge $119 $52 $120 $48 $75 forward $83 $-1 #
edge $121 $122 1.17022317859319 $85 1.9713694749966031 $74 $123 forward 7 unknown #
copar-rbase-attrib $-1 $-1 $-1 $50 #
coedge $124 $51 $50 $120 $125 reversed $24 $-1 #
edge $126 $122 1.431176487613002 $85 2.5058315123869983 $50 $127 forward 7 unknown #
copar-rbase-attrib $-1 $-1 $-1 $51 #
edge $128 $86 -2.3622049999999999 $129 0.39370099999999997 $71 $130 forward 7 unknown #
copar-rbase-attrib $-1 $-1 $-1 $52 #
coedge $131 $132 $52 $133 $134 forward $83 $-1 #
loop $-1 $-1 $52 $135 #
attrib_edge_convexity-kcp-attrib $-1 $136 $-1 $53 1 #
vertex $-1 $75 $137 #
vertex $-1 $53 $138 #
ellipse-curve $-1 0 0 -6.3010539718206501e-009 0 0.22665135294287711 -0.97397595668946746 0 -1.377953 -0.32065977563065401 0.97397595668946702 I I #
face $139 $140 $141 $17 $-1 $142 reversed single #
loop $-1 $-1 $143 $55 #
plane-surface $-1 0 -2.0669290926287411 0 0 1 0 0 0 1 forward_v I I I I #
coedge $-1 $144 $145 $146 $147 forward $56 $-1 #
coedge $-1 $148 $58 $149 $150 forward $37 $-1 #
coedge $-1 $58 $148 $151 $152 forward $37 $-1 #
coedge $-1 $153 $154 $58 $95 reversed $155 $-1 #
edge $-1 $156 -2.0669290926287411 $157 2.0669290926287411 $94 $158 forward 7 unknown #
face $-1 $159 $160 $27 $-1 $98 reversed single #
loop $-1 $-1 $161 $59 #
plane-surface $-1 0 0 -0.68850224999999998 0 0 1 1 0 0 forward_v I I I I #
coedge $-1 $162 $163 $164 $165 forward $60 $-1 #
face $-1 $166 $167 $20 $-1 $168 reversed single #
loop $-1 $-1 $169 $62 #
plane-surface $-1 0 -2.0669290926287411 0 0 1 0 0 0 1 forward_v I I I I #
coedge $-1 $170 $171 $172 $173 reversed $63 $-1 #
coedge $-1 $174 $64 $175 $176 reversed $41 $-1 #
coedge $-1 $64 $174 $170 $177 forward $41 $-1 #
coedge $-1 $178 $179 $64 $107 forward $180 $-1 #
edge $-1 $181 -3.1415926535897931 $182 -1.5707963267948966 $106 $183 forward 7 unknown #
fface-rbase-attrib $-1 $-1 $66 $45 #
model_id-kcp-attrib $-1 $184 $-1 $67 1 990564519 80 -1102053375 6 #
face $185 $186 $187 $8 $-1 $188 forward single #
loop $-1 $-1 $189 $67 #
plane-surface $-1 1.968504 2.5286840000000002 -0.15748029999999999 0 -0.29570807712424402 0.955278353739622 1 0 0 forward_v I I I I #
coedge $190 $191 $191 $192 $193 reversed $68 $-1 #
coedge $194 $195 $195 $196 $197 forward $70 $-1 #
copar-rbase-attrib $-1 $-1 $-1 $71 #
coedge $198 $199 $71 $200 $201 reversed $46 $-1 #
coedge $202 $71 $203 $204 $205 reversed $46 $-1 #
copar-rbase-attrib $-1 $-1 $-1 $73 #
copar-rbase-attrib $-1 $-1 $-1 $74 #
coedge $206 $74 $207 $77 $125 forward $83 $-1 #
attrib_edge_convexity-kcp-attrib $-1 $208 $-1 $75 1 #
vertex $-1 $75 $209 #
ellipse-curve $-1 0 0 -0.29527560000000003 0 0 -1 1.377953 0 0 1 I I #
copar-rbase-attrib $-1 $-1 $-1 $77 #
edge $210 $129 -1.570796327804348 $122 -0.4005731482017067 $120 $211 forward 7 unknown #
attrib_edge_convexity-kcp-attrib $-1 $212 $-1 $78 2 #
straight-curve $-1 1.968504 -1.2688710000000001 -0.29527560000000003 -1 0 0 I I #
attrib_edge_convexity-kcp-attrib $-1 $213 $-1 $80 1 #
vertex $-1 $201 $214 #
straight-curve $-1 0.98425200000000002 2.7077160374977502e-008 -3.46944695195361e-018 1 0 0 I I #
copar-rbase-attrib $-1 $-1 $-1 $82 #
coedge $215 $207 $82 $216 $217 forward $83 $-1 #
coedge $218 $204 $219 $82 $134 reversed $220 $-1 #
edge $221 $86 0 $222 0.45275589999999999 $82 $223 forward 7 unknown #
face $224 $225 $83 $8 $-1 $226 forward single #
convexity-sys-attrib $-1 $227 $84 $53 #
point $-1 -0.53732751238699805 -1.2688710000000001 -0.29527560000000003 #
point $-1 -1.377953 -1.6874499990686101e-016 0 #
model_id-kcp-attrib $-1 $-1 $-1 $88 1 990564519 90 -1101398014 3 #
face $-1 $228 $229 $17 $-1 $230 reversed single #
loop $-1 $-1 $231 $88 #
plane-surface $-1 -1.377953 0 0 1 0 0 0 0 -1 forward_v I I I I #
coedge $-1 $232 $151 $233 $234 forward $89 $-1 #
coedge $-1 $235 $91 $232 $236 forward $56 $-1 #
coedge $-1 $91 $235 $237 $238 forward $56 $-1 #
coedge $-1 $154 $153 $91 $147 reversed $155 $-1 #
edge $-1 $239 -2.0669290926287411 $240 2.0669290926287411 $146 $241 forward 7 unknown #
coedge $-1 $93 $92 $242 $243 forward $37 $-1 #
coedge $-1 $244 $245 $92 $150 reversed $229 $-1 #
edge $-1 $157 -1.377953 $246 1.377953 $149 $247 forward 7 unknown #
coedge $-1 $143 $248 $93 $152 reversed $89 $-1 #
edge $-1 $249 -1.377953 $156 1.377953 $151 $250 forward 7 unknown #
coedge $-1 $146 $94 $248 $251 forward $155 $-1 #
coedge $-1 $94 $146 $244 $252 reversed $155 $-1 #
loop $-1 $-1 $153 $228 #
vertex $-1 $95 $253 #
vertex $-1 $95 $254 #
straight-curve $-1 1.377953 0 0.68850224999999998 0 1 0 I I #
face $-1 $255 $256 $27 $-1 $61 reversed single #
loop $-1 $-1 $257 $96 #
coedge $-1 $258 $259 $260 $261 forward $97 $-1 #
coedge $-1 $262 $99 $263 $264 reversed $60 $-1 #
coedge $-1 $99 $262 $265 $266 reversed $60 $-1 #
coedge $-1 $267 $268 $269 $165 reversed $256 $-1 #
edge $-1 $270 -1.3770045000000002 $271 0 $99 $272 forward 7 unknown #
face $-1 $273 $180 $20 $-1 $274 forward single #
loop $-1 $-1 $275 $100 #
plane-surface $-1 -1.377953 0 0 1 0 0 0 0 -1 forward_v I I I I #
coedge $-1 $276 $277 $105 $177 reversed $101 $-1 #
coedge $-1 $278 $103 $279 $177 reversed $63 $-1 #
coedge $-1 $103 $278 $275 $280 forward $63 $-1 #
coedge $-1 $281 $282 $103 $173 forward $283 $-1 #
edge $-1 $182 -1.5707963267948966 $284 0 $172 $183 forward 7 unknown #
coedge $-1 $105 $104 $285 $286 reversed $41 $-1 #
coedge $-1 $287 $288 $104 $176 forward $289 $-1 #
edge $-1 $290 -1.3770045 $181 0 $175 $291 forward 7 unknown #
edge $-1 $292 -1.3770045 $182 0 $279 $293 forward 7 unknown #
coedge $-1 $179 $106 $277 $294 forward $180 $-1 #
coedge $-1 $106 $178 $287 $295 forward $180 $-1 #
loop $-1 $-1 $106 $166 #
vertex $-1 $176 $296 #
vertex $-1 $294 $297 #
ellipse-curve $-1 0 -0.68897609262874104 0.68850224999999998 0 0 -1 -1.377953 -2.2204460492503131e-016 0 1 I I #
fface-rbase-attrib $-1 $-1 $109 $67 #
model_id-kcp-attrib $-1 $298 $-1 $110 1 990564519 80 -1102053375 7 #
face $299 $300 $301 $8 $-1 $302 forward single #
loop $-1 $-1 $303 $110 #
cone-surface $-1 0 1.574803 0 0 0 -1 -1.0310459999999999 0.57614799999999999 0 1 I I 0 1 1.1811021852574821 forward I I I I #
coedge $304 $305 $306 $303 $307 reversed $111 $-1 #
copar-rbase-attrib $-1 $-1 $-1 $113 #
coedge $308 $113 $113 $306 $309 forward $68 $-1 #
coedge $310 $311 $303 $113 $193 forward $187 $-1 #
edge $312 $313 -1.6919148046666512 $314 -0.43052992611011726 $192 $315 forward 7 unknown #
copar-rbase-attrib $-1 $-1 $-1 $114 #
coedge $316 $114 $114 $317 $318 forward $70 $-1 #
coedge $319 $320 $321 $114 $197 reversed $322 $-1 #
edge $323 $324 -1.5707963267948966 $325 1.5707963267948968 $114 $326 forward 7 unknown #
copar-rbase-attrib $-1 $-1 $-1 $116 #
coedge $327 $328 $116 $329 $330 reversed $46 $-1 #
coedge $331 $332 $333 $116 $201 forward $334 $-1 #
edge $335 $336 0 $129 1.5117579999999999 $200 $337 forward 7 unknown #
copar-rbase-attrib $-1 $-1 $-1 $117 #
coedge $338 $117 $328 $339 $340 reversed $46 $-1 #
coedge $341 $342 $133 $117 $205 forward $220 $-1 #
edge $343 $86 -1.6874499990686101e-016 $344 1.5117579999999999 $204 $345 forward 7 unknown #
copar-rbase-attrib $-1 $-1 $-1 $120 #
coedge $346 $120 $132 $332 $347 reversed $83 $-1 #
convexity-sys-attrib $-1 $348 $121 $75 #
point $-1 0.53732751238699805 -1.2688710000000001 -0.29527560000000003 #
attrib_edge_convexity-kcp-attrib $-1 $349 $-1 $125 1 #
ellipse-curve $-1 0 0 -6.3010539718206501e-009 0 0.22665135294287711 -0.97397595668946746 0 -1.377953 -0.32065977563065401 0.97397595668946702 I I #
convexity-sys-attrib $-1 $350 $126 $78 #
convexity-sys-attrib $-1 $351 $128 $80 #
point $-1 1.377953 0 0 #
copar-rbase-attrib $-1 $-1 $-1 $132 #
coedge $352 $353 $354 $132 $217 reversed $355 $-1 #
edge $356 $222 -3.1415926535897931 $357 0 $132 $358 forward 7 unknown #
copar-rbase-attrib $-1 $-1 $-1 $133 #
coedge $359 $133 $342 $353 $360 forward $220 $-1 #
loop $-1 $-1 $219 $361 #
attrib_edge_convexity-kcp-attrib $-1 $362 $-1 $134 3 #
vertex $-1 $134 $363 #
straight-curve $-1 -1.377953 0 0 0 0 -1 I I #
model_id-kcp-attrib $-1 $364 $-1 $135 1 990564519 80 -1102053375 16 #
face $365 $366 $334 $8 $-1 $367 forward single #
cone-surface $-1 0 0 0 0 0 -1 1.377953 0 0 1 I I 0 1 1.377953 forward I I I I #
epar-rbase-attrib $-1 $-1 $136 $53 #
face $368 $-1 $155 $17 $-1 $369 reversed single #
loop $-1 $-1 $244 $140 #
plane-surface $-1 0 2.0669290926287411 0 0 -1 0 0 0 -1 forward_v I I I I #
coedge $-1 $370 $242 $245 $371 forward $141 $-1 #
coedge $-1 $248 $143 $144 $236 reversed $89 $-1 #
coedge $-1 $242 $370 $143 $234 reversed $141 $-1 #
edge $-1 $249 -0.68850224999999998 $372 0.68850224999999998 $233 $373 forward 7 unknown #
coedge $-1 $145 $144 $370 $374 forward $56 $-1 #
edge $-1 $240 -1.377953 $372 1.377953 $232 $375 forward 7 unknown #
coedge $-1 $245 $244 $145 $238 reversed $229 $-1 #
edge $-1 $376 -1.377953 $239 1.377953 $237 $377 forward 7 unknown #
vertex $-1 $147 $378 #
vertex $-1 $251 $379 #
straight-curve $-1 1.377953 0 -0.68850224999999998 0 -1 0 I I #
coedge $-1 $231 $233 $148 $243 reversed $141 $-1 #
edge $-1 $246 -2.0669290926287411 $249 2.0669290926287411 $242 $380 forward 7 unknown #
coedge $-1 $237 $149 $154 $252 forward $229 $-1 #
coedge $-1 $149 $237 $231 $371 reversed $229 $-1 #
vertex $-1 $150 $381 #
straight-curve $-1 0 2.0669290926287411 0.68850224999999998 -1 0 0 I I #
coedge $-1 $151 $232 $153 $251 reversed $89 $-1 #
vertex $-1 $243 $382 #
straight-curve $-1 0 -2.0669290926287411 0.68850224999999998 1 0 0 I I #
edge $-1 $156 -0.68850224999999998 $240 0.68850224999999998 $153 $383 forward 7 unknown #
edge $-1 $157 -0.68850224999999998 $239 0.68850224999999998 $154 $384 forward 7 unknown #
point $-1 1.377953 -2.0669290926287411 0.68850224999999998 #
point $-1 1.377953 2.0669290926287411 0.68850224999999998 #
face $-1 $385 $386 $27 $-1 $274 forward single #
loop $-1 $-1 $164 $159 #
coedge $-1 $387 $388 $389 $390 forward $160 $-1 #
coedge $-1 $391 $161 $392 $393 forward $97 $-1 #
coedge $-1 $161 $391 $394 $395 forward $97 $-1 #
coedge $-1 $396 $397 $161 $261 reversed $398 $-1 #
edge $-1 $399 -0.72432597959981315 $400 0.0029374925325358005 $161 $401 forward 7 unknown #
coedge $-1 $163 $162 $402 $403 forward $60 $-1 #
coedge $-1 $404 $405 $162 $264 forward $406 $-1 #
edge $-1 $407 -1.377953 $271 1.1102230246251565e-016 $162 $408 forward 7 unknown #
coedge $-1 $388 $387 $163 $266 forward $160 $-1 #
edge $-1 $270 -1.1102230246251565e-016 $409 1.377953 $163 $410 forward 7 unknown #
coedge $-1 $411 $164 $391 $412 reversed $256 $-1 #
coedge $-1 $164 $411 $413 $414 reversed $256 $-1 #
coedge $-1 $415 $394 $416 $165 forward $417 $-1 #
vertex $-1 $266 $418 #
vertex $-1 $414 $419 #
straight-curve $-1 -1.1102230246251565e-016 2.0669290926287411 0.68850224999999998 0 0 1 I I #
face $-1 $420 $421 $20 $-1 $98 reversed single #
plane-surface $-1 0 0 0.68850224999999998 0 0 1 1 0 0 forward_v I I I I #
coedge $-1 $422 $423 $171 $280 reversed $167 $-1 #
coedge $-1 $424 $169 $425 $426 reversed $101 $-1 #
coedge $-1 $169 $424 $178 $294 reversed $101 $-1 #
coedge $-1 $171 $170 $427 $428 reversed $63 $-1 #
coedge $-1 $429 $430 $169 $177 forward $431 $-1 #
edge $-1 $432 -1.3770045 $284 0 $275 $433 forward 7 unknown #
coedge $-1 $282 $172 $423 $434 forward $283 $-1 #
coedge $-1 $172 $281 $429 $435 forward $283 $-1 #
loop $-1 $-1 $172 $436 #
vertex $-1 $434 $437 #
coedge $-1 $438 $425 $174 $286 forward $421 $-1 #
edge $-1 $292 1.5707963267948966 $290 3.1415926535897931 $285 $439 forward 7 unknown #
coedge $-1 $440 $175 $179 $295 reversed $289 $-1 #
coedge $-1 $175 $440 $438 $441 reversed $289 $-1 #
loop $-1 $-1 $175 $442 #
vertex $-1 $441 $443 #
straight-curve $-1 1.377953 -0.68897609262874104 0.68850224999999998 0 0 1 I I #
vertex $-1 $444 $445 #
straight-curve $-1 0 -2.0669290926287411 0.68850224999999998 0 0 1 I I #
edge $-1 $182 0 $446 1.377953 $277 $447 forward 7 unknown #
edge $-1 $446 -2.0669290926287411 $181 -0.68897609262874104 $287 $448 forward 7 unknown #
point $-1 1.377953 -0.68897609262874104 0.68850224999999998 #
point $-1 0 -2.0669290926287411 0.68850224999999998 #
fface-rbase-attrib $-1 $-1 $185 $110 #
model_id-kcp-attrib $-1 $449 $-1 $186 1 990564519 80 -1102053375 8 #
face $450 $451 $355 $8 $-1 $452 forward single #
loop $-1 $-1 $453 $186 #
plane-surface $-1 -1.0310459999999999 2.1509510000000001 0 -0.87890155974130679 0.47700319525585788 0 0 0 1 forward_v I I I I #
coedge $454 $192 $455 $189 $307 forward $187 $-1 #
copar-rbase-attrib $-1 $-1 $-1 $189 #
coedge $456 $457 $189 $458 $459 reversed $111 $-1 #
coedge $460 $189 $461 $191 $309 reversed $111 $-1 #
edge $462 $463 -1.0612223653883843 $313 -0.63069243927826735 $303 $464 forward 7 unknown #
copar-rbase-attrib $-1 $-1 $-1 $191 #
edge $465 $313 1.2720031673666141 $314 2.6650048326333859 $306 $466 forward 7 unknown #
copar-rbase-attrib $-1 $-1 $-1 $192 #
coedge $467 $468 $192 $461 $469 forward $187 $-1 #
attrib_edge_convexity-kcp-attrib $-1 $470 $-1 $193 1 #
vertex $-1 $193 $471 #
vertex $-1 $193 $472 #
ellipse-curve $-1 0 1.574803 -0.15748029999999999 0 0 1 -1.0310459999999999 0.57614799999999999 0 1 I I #
copar-rbase-attrib $-1 $-1 $-1 $195 #
coedge $473 $474 $475 $195 $318 reversed $476 $-1 #
edge $477 $325 1.5707963267948968 $324 4.7123889803846897 $195 $478 forward 7 unknown #
copar-rbase-attrib $-1 $-1 $-1 $196 #
coedge $479 $480 $196 $475 $481 reversed $322 $-1 #
coedge $482 $196 $480 $474 $483 reversed $322 $-1 #
loop $-1 $-1 $196 $451 #
attrib_edge_convexity-kcp-attrib $-1 $484 $-1 $197 2 #
vertex $-1 $197 $485 #
vertex $-1 $197 $486 #
ellipse-curve $-1 0 1.574803 0 0 0 -1 1.1008528749454001 0 0 1 I I #
copar-rbase-attrib $-1 $-1 $-1 $199 #
coedge $487 $203 $199 $488 $489 reversed $46 $-1 #
coedge $490 $491 $492 $199 $330 forward $493 $-1 #
edge $494 $495 0 $336 0.7272634721323491 $329 $496 forward 7 unknown #
copar-rbase-attrib $-1 $-1 $-1 $200 #
coedge $497 $498 $200 $207 $347 forward $334 $-1 #
coedge $499 $200 $498 $491 $500 reversed $334 $-1 #
loop $-1 $-1 $498 $225 #
attrib_edge_convexity-kcp-attrib $-1 $501 $-1 $201 1 #
vertex $-1 $330 $502 #
straight-curve $-1 1.377953 1.5117579999999999 0 0 -1 0 I I #
copar-rbase-attrib $-1 $-1 $-1 $203 #
coedge $503 $504 $505 $203 $340 forward $301 $-1 #
edge $506 $344 0 $507 0.7272634721323491 $339 $508 forward 7 unknown #
copar-rbase-attrib $-1 $-1 $-1 $204 #
coedge $509 $219 $204 $505 $510 forward $220 $-1 #
attrib_edge_convexity-kcp-attrib $-1 $511 $-1 $205 1 #
vertex $-1 $205 $512 #
straight-curve $-1 -1.377953 0 0 0 1 0 I I #
copar-rbase-attrib $-1 $-1 $-1 $207 #
edge $513 $129 0 $357 0.45275589999999999 $332 $514 forward 7 unknown #
epar-rbase-attrib $-1 $-1 $208 $75 #
convexity-sys-attrib $-1 $515 $210 $125 #
epar-rbase-attrib $-1 $-1 $212 $78 #
epar-rbase-attrib $-1 $-1 $213 $80 #
copar-rbase-attrib $-1 $-1 $-1 $216 #
coedge $516 $517 $216 $219 $360 reversed $355 $-1 #
coedge $518 $216 $519 $498 $520 reversed $355 $-1 #
loop $-1 $521 $522 $300 #
attrib_edge_convexity-kcp-attrib $-1 $523 $-1 $217 1 #
vertex $-1 $347 $524 #
ellipse-curve $-1 0 0 -0.45275589999999999 0 0 1 1.377953 0 0 1 I I #
copar-rbase-attrib $-1 $-1 $-1 $219 #
edge $525 $526 -1.5117579999999999 $222 0 $219 $527 forward 7 unknown #
face $528 $135 $220 $8 $-1 $529 forward single #
convexity-sys-attrib $-1 $530 $221 $134 #
point $-1 -1.377953 0 -0.45275589999999999 #
fface-rbase-attrib $-1 $-1 $224 $135 #
model_id-kcp-attrib $-1 $531 $-1 $225 1 990564519 80 -1102053375 17 #
face $532 $533 $493 $8 $-1 $534 forward single #
plane-surface $-1 1.377953 0 0 1 0 0 0 0 -1 forward_v I I I I #
model_id-kcp-attrib $-1 $-1 $-1 $228 1 990564519 90 -1101398014 4 #
plane-surface $-1 1.377953 0 0 -1 0 0 0 0 1 forward_v I I I I #
coedge $-1 $233 $231 $235 $374 reversed $141 $-1 #
edge $-1 $246 -0.68850224999999998 $376 0.68850224999999998 $245 $535 forward 7 unknown #
vertex $-1 $374 $536 #
straight-curve $-1 -1.377953 -2.0669290926287411 0 0 0 -1 I I #
edge $-1 $372 -2.0669290926287411 $376 2.0669290926287411 $370 $537 forward 7 unknown #
straight-curve $-1 0 -2.0669290926287411 -0.68850224999999998 -1 0 0 I I #
vertex $-1 $238 $538 #
straight-curve $-1 0 2.0669290926287411 -0.68850224999999998 1 0 0 I I #
point $-1 1.377953 2.0669290926287411 -0.68850224999999998 #
point $-1 1.377953 -2.0669290926287411 -0.68850224999999998 #
straight-curve $-1 -1.377953 0 0.68850224999999998 0 -1 0 I I #
point $-1 -1.377953 2.0669290926287411 0.68850224999999998 #
point $-1 -1.377953 -2.0669290926287411 0.68850224999999998 #
straight-curve $-1 1.377953 -2.0669290926287411 0 0 0 -1 I I #
straight-curve $-1 1.377953 2.0669290926287411 0 0 0 -1 I I #
face $-1 $539 $406 $27 $-1 $274 forward single #
loop $-1 $-1 $540 $255 #
coedge $-1 $265 $257 $541 $542 forward $160 $-1 #
coedge $-1 $257 $265 $543 $544 forward $160 $-1 #
coedge $-1 $545 $546 $257 $390 reversed $547 $-1 #
edge $-1 $548 -0.0029374925325375261 $549 0.72432597959981182 $257 $550 forward 7 unknown #
coedge $-1 $259 $258 $267 $412 forward $97 $-1 #
coedge $-1 $551 $552 $258 $393 reversed $553 $-1 #
edge $-1 $400 0.82278190737125889 $554 2.0669290926287411 $392 $555 forward 7 unknown #
coedge $-1 $269 $556 $259 $395 reversed $417 $-1 #
edge $-1 $270 1.0612223653883841 $399 2.1224447307767682 $259 $557 forward 7 unknown #
coedge $-1 $558 $260 $556 $559 reversed $398 $-1 #
coedge $-1 $260 $558 $551 $560 reversed $398 $-1 #
loop $-1 $-1 $558 $561 #
vertex $-1 $261 $562 #
vertex $-1 $393 $563 #
straight-curve $-1 -1.3765518066759403 0.82536367413983314 -0.68850224999999998 -0.47700319525585755 -0.87890155974130713 0 I I #
coedge $-1 $564 $543 $262 $403 reversed $565 $-1 #
edge $-1 $407 -0.68850224999999998 $409 0.68850224999999998 $402 $566 forward 7 unknown #
coedge $-1 $567 $263 $568 $569 forward $406 $-1 #
coedge $-1 $263 $567 $564 $570 forward $406 $-1 #
loop $-1 $-1 $567 $385 #
vertex $-1 $570 $571 #
straight-curve $-1 0 2.0669290926287411 0.68850224999999998 -1 0 0 I I #
vertex $-1 $544 $572 #
straight-curve $-1 0 2.0669290926287411 -0.68850224999999998 1 0 0 I I #
coedge $-1 $268 $267 $552 $573 reversed $256 $-1 #
edge $-1 $554 -1.377953 $270 -1.1102230246251565e-016 $267 $410 forward 7 unknown #
coedge $-1 $574 $575 $268 $414 forward $386 $-1 #
edge $-1 $271 1.1102230246251565e-016 $576 1.377953 $268 $408 forward 7 unknown #
coedge $-1 $556 $269 $575 $577 reversed $417 $-1 #
coedge $-1 $541 $568 $99 $165 reversed $578 $-1 #
loop $-1 $-1 $415 $579 #
point $-1 -1.1102230246251565e-016 2.0669290926287411 -0.6885022500000002 #
point $-1 -1.1102230246251565e-016 2.0669290926287411 0.68850224999999998 #
face $-1 $436 $580 $20 $-1 $98 reversed single #
loop $-1 $-1 $285 $273 #
coedge $-1 $581 $275 $582 $583 reversed $167 $-1 #
coedge $-1 $275 $581 $281 $434 reversed $167 $-1 #
coedge $-1 $277 $276 $440 $584 reversed $101 $-1 #
coedge $-1 $285 $438 $276 $426 forward $421 $-1 #
edge $-1 $585 -1.377953 $292 0 $276 $586 forward 7 unknown #
coedge $-1 $587 $582 $278 $428 forward $580 $-1 #
edge $-1 $432 0 $292 1.5707963267948966 $427 $439 forward 7 unknown #
coedge $-1 $588 $279 $282 $435 reversed $431 $-1 #
coedge $-1 $279 $588 $587 $444 reversed $431 $-1 #
loop $-1 $-1 $279 $589 #
vertex $-1 $428 $590 #
straight-curve $-1 -1.377953 -0.68897609262874104 0.68850224999999998 0 0 1 I I #
edge $-1 $284 0.68897609262874127 $591 2.0669290926287411 $423 $592 forward 7 unknown #
edge $-1 $591 -1.377953 $182 0 $429 $447 forward 7 unknown #
face $-1 $589 $283 $20 $-1 $274 forward single #
point $-1 -1.377953 -0.68897609262874127 0.68850224999999998 #
coedge $-1 $425 $285 $288 $441 forward $421 $-1 #
ellipse-curve $-1 0 -0.68897609262874104 -0.68850224999999998 0 0 1 -1.377953 -2.2204460492503131e-016 0 1 I I #
coedge $-1 $288 $287 $424 $584 forward $289 $-1 #
edge $-1 $290 0.68897609262874104 $585 2.0669290926287411 $288 $593 forward 7 unknown #
face $-1 $-1 $289 $20 $-1 $594 reversed single #
point $-1 1.377953 -0.68897609262874104 -0.68850224999999998 #
edge $-1 $292 0 $595 1.377953 $430 $586 forward 7 unknown #
point $-1 0 -2.0669290926287411 -0.68850224999999998 #
vertex $-1 $295 $596 #
straight-curve $-1 0 -2.0669290926287411 0.68850224999999998 1 0 0 I I #
straight-curve $-1 1.377953 0 0.68850224999999998 0 1 0 I I #
fface-rbase-attrib $-1 $-1 $299 $186 #
model_id-kcp-attrib $-1 $597 $-1 $300 1 990564519 80 -1102053375 9 #
face $598 $599 $322 $8 $-1 $600 forward single #
plane-surface $-1 5.5511151231257802e-017 1.0879212731571899 -0.45275589999999999 0 0 -1 -1 0 0 forward_v I I I I #
coedge $601 $602 $504 $603 $604 forward $301 $-1 #
copar-rbase-attrib $-1 $-1 $-1 $303 #
coedge $605 $303 $488 $492 $606 forward $187 $-1 #
copar-rbase-attrib $-1 $-1 $-1 $305 #
coedge $607 $603 $305 $522 $608 reversed $111 $-1 #
coedge $609 $492 $610 $305 $459 forward $493 $-1 #
edge $611 $612 -0.32427974329351444 $463 0.35508048833461858 $458 $613 forward 7 unknown #
copar-rbase-attrib $-1 $-1 $-1 $306 #
coedge $614 $306 $603 $311 $469 reversed $111 $-1 #
attrib_edge_convexity-kcp-attrib $-1 $615 $-1 $307 1 #
vertex $-1 $606 $616 #
ellipse-curve $-1 0 1.574803 -0.452755823841959 0 -0.29570807712424402 0.955278353739622 -3.3306690738754701e-016 1.1811021852574799 0.36561223723167202 0.955278353739622 I I #
attrib_edge_convexity-kcp-attrib $-1 $617 $-1 $309 2 #
straight-curve $-1 1.968504 2.5286840000000002 -0.15748029999999999 -1 0 0 I I #
copar-rbase-attrib $-1 $-1 $-1 $311 #
coedge $618 $488 $311 $504 $619 reversed $187 $-1 #
edge $620 $314 0.63069243927826679 $621 1.0612223653883839 $311 $622 forward 7 unknown #
convexity-sys-attrib $-1 $623 $312 $193 #
point $-1 0.69650083263338602 2.5286840000000002 -0.15748029999999999 #
point $-1 -0.69650083263338602 2.5286840000000002 -0.15748029999999999 #
copar-rbase-attrib $-1 $-1 $-1 $317 #
coedge $624 $625 $317 $321 $483 forward $476 $-1 #
coedge $626 $317 $625 $320 $481 forward $476 $-1 #
loop $-1 $-1 $317 $627 #
attrib_edge_convexity-kcp-attrib $-1 $628 $-1 $318 2 #
ellipse-curve $-1 0 1.574803 0 0 0 -1 1.1008528749454001 0 0 1 I I #
copar-rbase-attrib $-1 $-1 $-1 $320 #
coedge $629 $321 $320 $630 $631 reversed $322 $-1 #
edge $632 $633 0 $324 2.4160157034932839 $475 $634 forward 7 unknown #
copar-rbase-attrib $-1 $-1 $-1 $321 #
edge $635 $325 -2.4160157034933665 $636 1.3661622258095297e-015 $474 $637 forward 7 unknown #
convexity-sys-attrib $-1 $638 $323 $197 #
point $-1 0 2.6756558749454 0 #
point $-1 -1.3481114252817701e-016 0.473950125054595 0 #
copar-rbase-attrib $-1 $-1 $-1 $328 #
coedge $639 $455 $468 $328 $489 forward $187 $-1 #
edge $640 $507 7.9585744576012783e-017 $495 2.1224447307767687 $488 $641 forward 7 unknown #
copar-rbase-attrib $-1 $-1 $-1 $329 #
coedge $642 $610 $329 $333 $500 forward $493 $-1 #
coedge $643 $329 $458 $455 $606 reversed $493 $-1 #
loop $-1 $-1 $458 $366 #
attrib_edge_convexity-kcp-attrib $-1 $644 $-1 $330 1 #
vertex $-1 $489 $645 #
straight-curve $-1 1.0310459999999999 2.1509510000000001 0 0.47700319525585799 -0.87890155974130701 0 I I #
copar-rbase-attrib $-1 $-1 $-1 $332 #
coedge $646 $333 $332 $354 $520 forward $334 $-1 #
copar-rbase-attrib $-1 $-1 $-1 $333 #
edge $647 $336 0 $648 0.45275589999999999 $491 $649 forward 7 unknown #
convexity-sys-attrib $-1 $650 $335 $201 #
point $-1 1.377953 1.5117579999999999 0 #
copar-rbase-attrib $-1 $-1 $-1 $339 #
coedge $651 $453 $339 $468 $619 forward $301 $-1 #
coedge $652 $339 $602 $342 $510 reversed $301 $-1 #
attrib_edge_convexity-kcp-attrib $-1 $653 $-1 $340 1 #
vertex $-1 $489 $654 #
straight-curve $-1 -1.377953 1.5117579999999999 0 0.47700319525585799 0.87890155974130701 0 I I #
copar-rbase-attrib $-1 $-1 $-1 $342 #
edge $655 $344 0 $526 0.45275589999999999 $342 $656 forward 7 unknown #
convexity-sys-attrib $-1 $657 $343 $205 #
point $-1 -1.377953 1.5117579999999999 0 #
epar-rbase-attrib $-1 $-1 $-1 $347 #
straight-curve $-1 1.377953 0 0 0 0 -1 I I #
epar-rbase-attrib $-1 $-1 $349 $125 #
copar-rbase-attrib $-1 $-1 $-1 $353 #
coedge $658 $522 $353 $602 $659 reversed $355 $-1 #
copar-rbase-attrib $-1 $-1 $-1 $354 #
coedge $660 $354 $522 $610 $661 reversed $355 $-1 #
edge $662 $357 -1.5117579999999999 $648 0 $498 $663 forward 7 unknown #
loop $-1 $-1 $664 $300 #
coedge $665 $519 $517 $457 $608 forward $355 $-1 #
convexity-sys-attrib $-1 $666 $356 $217 #
point $-1 1.377953 0 -0.45275589999999999 #
model_id-kcp-attrib $-1 $667 $-1 $360 1 990564519 80 -1102053375 26 #
vertex $-1 $510 $668 #
straight-curve $-1 -1.377953 0 -0.45275589999999999 0 -1 0 I I #
model_id-kcp-attrib $-1 $669 $-1 $361 1 990564519 80 -1102053375 15 #
plane-surface $-1 -1.377953 1.5117579999999999 0 -1 0 0 0 0 1 forward_v I I I I #
epar-rbase-attrib $-1 $-1 $362 $134 #
fface-rbase-attrib $-1 $-1 $365 $225 #
model_id-kcp-attrib $-1 $670 $-1 $366 1 990564519 80 -1102053375 18 #
face $671 $672 $673 $8 $-1 $674 forward single #
plane-surface $-1 1.377953 1.5117579999999999 0 0.87890155974130679 0.47700319525585788 0 0 0 -1 forward_v I I I I #
straight-curve $-1 -1.377953 2.0669290926287411 0 0 0 -1 I I #
point $-1 -1.377953 -2.0669290926287411 -0.68850224999999998 #
straight-curve $-1 -1.377953 0 -0.68850224999999998 0 1 0 I I #
point $-1 -1.377953 2.0669290926287411 -0.68850224999999998 #
face $-1 $675 $565 $27 $-1 $594 reversed single #
coedge $-1 $575 $574 $558 $676 forward $386 $-1 #
coedge $-1 $677 $416 $387 $542 reversed $578 $-1 #
edge $-1 $549 3.1834297830405207e-016 $270 1.0612223653883841 $387 $557 forward 7 unknown #
coedge $-1 $402 $678 $388 $544 reversed $565 $-1 #
edge $-1 $409 -2.0669290926287411 $548 -0.82278190737125889 $543 $593 forward 7 unknown #
coedge $-1 $679 $389 $678 $680 reversed $547 $-1 #
coedge $-1 $389 $679 $677 $681 forward $547 $-1 #
loop $-1 $-1 $679 $682 #
vertex $-1 $390 $683 #
vertex $-1 $542 $684 #
straight-curve $-1 1.3765518066759386 0.82536367413983414 -0.68850225000000009 -0.47700319525585899 0.87890155974130635 0 I I #
coedge $-1 $685 $392 $397 $560 forward $553 $-1 #
coedge $-1 $392 $685 $411 $573 forward $553 $-1 #
loop $-1 $-1 $551 $675 #
vertex $-1 $412 $686 #
straight-curve $-1 -1.377953 0 -0.68850224999999998 0 1 0 I I #
coedge $-1 $394 $415 $396 $559 forward $417 $-1 #
ellipse-curve $-1 -1.1102230246251565e-016 0.88582690737125869 -0.68850224999999998 0 0 1 1.0310459999999981 0.57614799999999911 0 1 I I #
coedge $-1 $397 $396 $540 $676 reversed $398 $-1 #
edge $-1 $687 0 $399 1.3770045 $396 $688 forward 7 unknown #
edge $-1 $400 -1.032753375 $689 0.34425112499999999 $551 $690 forward 7 unknown #
face $-1 $-1 $398 $27 $-1 $691 reversed single #
point $-1 -1.0310460000000015 1.4619749073712596 -0.68850224999999998 #
point $-1 -1.377953 0.82278190737125889 -0.68850224999999998 #
coedge $-1 $678 $402 $405 $570 reversed $565 $-1 #
loop $-1 $-1 $678 $539 #
straight-curve $-1 1.377953 2.0669290926287411 0 0 0 -1 I I #
coedge $-1 $405 $404 $679 $692 forward $406 $-1 #
coedge $-1 $416 $677 $404 $569 reversed $578 $-1 #
edge $-1 $271 -1.0612223653883841 $693 -3.1834297830405207e-016 $404 $694 forward 7 unknown #
edge $-1 $695 0.82278190737125889 $407 2.0669290926287411 $564 $448 forward 7 unknown #
point $-1 1.377953 2.0669290926287411 0.68850224999999998 #
point $-1 1.377953 2.0669290926287411 -0.68850224999999998 #
edge $-1 $576 -0.68850224999999998 $554 0.68850224999999998 $411 $696 forward 7 unknown #
coedge $-1 $540 $413 $685 $697 forward $386 $-1 #
coedge $-1 $413 $540 $415 $577 forward $386 $-1 #
vertex $-1 $414 $698 #
edge $-1 $687 -2.1224447307767682 $271 -1.0612223653883841 $575 $694 forward 7 unknown #
loop $-1 $-1 $568 $699 #
face $-1 $699 $417 $27 $-1 $700 reversed single #
loop $-1 $-1 $427 $420 #
coedge $-1 $423 $422 $588 $701 reversed $167 $-1 #
coedge $-1 $427 $587 $422 $583 forward $580 $-1 #
edge $-1 $595 -2.0669290926287411 $432 -0.68897609262874127 $422 $555 forward 7 unknown #
edge $-1 $446 -0.68850224999999998 $585 0.68850224999999998 $440 $702 forward 7 unknown #
vertex $-1 $584 $703 #
straight-curve $-1 0 -2.0669290926287411 -0.68850224999999998 -1 0 0 I I #
coedge $-1 $582 $427 $430 $444 forward $580 $-1 #
coedge $-1 $430 $429 $581 $701 forward $431 $-1 #
face $-1 $442 $431 $20 $-1 $102 reversed single #
point $-1 -1.377953 -0.68897609262874127 -0.68850224999999998 #
vertex $-1 $434 $704 #
straight-curve $-1 -1.377953 0 0.68850224999999998 0 -1 0 I I #
straight-curve $-1 1.377953 0 -0.68850224999999998 0 -1 0 I I #
plane-surface $-1 1.377953 0 0 -1 0 0 0 0 1 forward_v I I I I #
vertex $-1 $583 $705 #
point $-1 1.377953 -2.0669290926287411 0.68850224999999998 #
fface-rbase-attrib $-1 $-1 $450 $300 #
model_id-kcp-attrib $-1 $706 $-1 $451 1 990564519 80 -1102053375 10 #
face $707 $627 $708 $8 $-1 $709 forward single #
torus-surface $-1 0 1.574803 0.062952750000000002 0 0 1 1.103091 -0.062992522860435704 -1 1.22460635382238e-016 0 forward_v I I I I #
copar-rbase-attrib $-1 $-1 $-1 $453 #
coedge $710 $505 $453 $517 $659 forward $301 $-1 #
coedge $711 $461 $457 $453 $604 reversed $111 $-1 #
edge $712 $621 0.90184569874745957 $713 1.5812059303755928 $453 $714 forward 7 unknown #
copar-rbase-attrib $-1 $-1 $-1 $455 #
edge $715 $495 0 $463 0.27440820761886903 $455 $716 forward 7 unknown #
copar-rbase-attrib $-1 $-1 $-1 $457 #
edge $717 $713 -2.3279889393320001 $612 0.35948493933199999 $522 $718 forward 7 unknown #
copar-rbase-attrib $-1 $-1 $-1 $458 #
coedge $719 $458 $491 $519 $661 forward $493 $-1 #
attrib_edge_convexity-kcp-attrib $-1 $720 $-1 $459 1 #
vertex $-1 $661 $721 #
straight-curve $-1 1.1944798400552601 1.8498162101962701 -0.36762500594731501 -0.460272657677674 0.84807473149566204 0.262523009263744 I I #
copar-rbase-attrib $-1 $-1 $-1 $461 #
convexity-sys-attrib $-1 $722 $462 $307 #
point $-1 1.0310459999999999 2.1509510000000001 -0.27440820761886903 #
convexity-sys-attrib $-1 $723 $465 $309 #
copar-rbase-attrib $-1 $-1 $-1 $468 #
edge $724 $507 0 $621 0.27440820761886903 $504 $725 forward 7 unknown #
attrib_edge_convexity-kcp-attrib $-1 $726 $-1 $469 1 #
vertex $-1 $619 $727 #
ellipse-curve $-1 0 1.574803 -0.452755823841959 0 -0.29570807712424402 0.955278353739622 -3.3306690738754701e-016 1.1811021852574799 0.36561223723167202 0.955278353739622 I I #
epar-rbase-attrib $-1 $-1 $470 $193 #
copar-rbase-attrib $-1 $-1 $-1 $474 #
coedge $728 $475 $474 $729 $730 reversed $476 $-1 #
copar-rbase-attrib $-1 $-1 $-1 $475 #
face $731 $732 $476 $8 $-1 $733 forward single #
convexity-sys-attrib $-1 $734 $477 $318 #
copar-rbase-attrib $-1 $-1 $-1 $480 #
coedge $735 $736 $737 $480 $631 forward $708 $-1 #
edge $738 $636 0 $633 3.1415926535897931 $630 $739 forward 7 unknown #
epar-rbase-attrib $-1 $-1 $-1 $481 #
vertex $-1 $740 $741 #
ellipse-curve $-1 0 2.6778940000000002 0.062952750000000002 1 0 0 0 -0.0400990000000001 0.048581149999999997 1 I I #
epar-rbase-attrib $-1 $-1 $-1 $483 #
vertex $-1 $730 $742 #
ellipse-curve $-1 -1.3508522474442799e-016 0.47171200000000002 0.062952750000000002 1 -1.22460635382238e-016 0 4.9105490181923598e-018 0.0400990000000001 0.048581149999999997 1 I I #
epar-rbase-attrib $-1 $-1 $484 $197 #
copar-rbase-attrib $-1 $-1 $-1 $488 #
attrib_edge_convexity-kcp-attrib $-1 $743 $-1 $489 1 #
ellipse-curve $-1 0 1.574803 0 0 0 -1 -1.0310459999999999 0.57614799999999999 0 1 I I #
copar-rbase-attrib $-1 $-1 $-1 $491 #
copar-rbase-attrib $-1 $-1 $-1 $492 #
convexity-sys-attrib $-1 $744 $494 $330 #
point $-1 1.0310459999999999 2.1509510000000001 0 #
copar-rbase-attrib $-1 $-1 $-1 $498 #
attrib_edge_convexity-kcp-attrib $-1 $745 $-1 $500 1 #
vertex $-1 $500 $746 #
straight-curve $-1 1.377953 1.5117579999999999 0 0 0 -1 I I #
epar-rbase-attrib $-1 $-1 $501 $201 #
copar-rbase-attrib $-1 $-1 $-1 $504 #
copar-rbase-attrib $-1 $-1 $-1 $505 #
convexity-sys-attrib $-1 $747 $506 $340 #
point $-1 -1.0310459999999999 2.1509510000000001 0 #
attrib_edge_convexity-kcp-attrib $-1 $748 $-1 $510 1 #
straight-curve $-1 -1.377953 1.5117579999999999 0 0 0 -1 I I #
epar-rbase-attrib $-1 $-1 $511 $205 #
copar-rbase-attrib $-1 $-1 $-1 $517 #
edge $749 $713 -0.071731302868203978 $526 0 $602 $750 forward 7 unknown #
copar-rbase-attrib $-1 $-1 $-1 $519 #
edge $751 $648 -0.7272634721323491 $612 -0.65553216926414504 $610 $752 forward 7 unknown #
attrib_edge_convexity-kcp-attrib $-1 $753 $-1 $520 1 #
straight-curve $-1 1.377953 1.5117579999999999 -0.45275589999999999 0 1 0 I I #
coedge $754 $755 $755 $756 $757 reversed $521 $-1 #
copar-rbase-attrib $-1 $-1 $-1 $522 #
epar-rbase-attrib $-1 $-1 $523 $217 #
attrib_edge_convexity-kcp-attrib $-1 $758 $525 $360 1 #
point $-1 -1.377953 1.5117579999999999 -0.45275589999999999 #
fface-rbase-attrib $-1 $-1 $528 $361 #
fface-rbase-attrib $-1 $-1 $532 $366 #
model_id-kcp-attrib $-1 $759 $-1 $533 1 990564519 80 -1102053375 19 #
face $760 $761 $762 $8 $-1 $763 forward single #
loop $-1 $-1 $764 $533 #
torus-surface $-1 0 0 -0.51570870000000002 0 0 1 1.299941 -0.062992099999999995 1 0 0 forward_v I I I I #
face $-1 $682 $553 $27 $-1 $168 reversed single #
edge $-1 $689 -0.0029374925325358005 $687 0.72432597959981315 $540 $765 forward 7 unknown #
coedge $-1 $568 $541 $546 $681 reversed $578 $-1 #
coedge $-1 $543 $564 $545 $680 forward $565 $-1 #
coedge $-1 $546 $545 $567 $692 reversed $547 $-1 #
edge $-1 $695 -0.34425112499999999 $548 1.032753375 $678 $766 forward 7 unknown #
edge $-1 $693 0 $549 1.3770045 $677 $767 forward 7 unknown #
face $-1 $579 $547 $27 $-1 $768 reversed single #
point $-1 1.377953 0.82278190737125889 -0.68850224999999998 #
point $-1 1.0310459999999981 1.4619749073712582 -0.68850224999999998 #
coedge $-1 $552 $551 $574 $697 reversed $553 $-1 #
point $-1 -1.377953 2.0669290926287411 -0.68850224999999998 #
vertex $-1 $676 $769 #
straight-curve $-1 -1.0310460000000015 1.4619749073712596 0.68850224999999998 0 0 -1 I I #
vertex $-1 $676 $770 #
straight-curve $-1 -1.377953 0.822781907371259 0.34425112499999999 0 0 1 I I #
plane-surface $-1 -1.3437369393320011 0.88582666134439936 0.68850224999999998 -0.87890155974130713 0.47700319525585755 0 0 0 1 forward_v I I I I #
edge $-1 $693 -0.72432597959981182 $695 0.0029374925325375261 $567 $771 forward 7 unknown #
vertex $-1 $569 $772 #
ellipse-curve $-1 -1.1102230246251565e-016 0.88582690737125869 0.68850224999999998 0 0 -1 1.0310459999999981 0.57614799999999911 0 1 I I #
vertex $-1 $570 $773 #
straight-curve $-1 -1.377953 2.0669290926287411 0 0 0 -1 I I #
edge $-1 $576 -2.0669290926287411 $689 -0.82278190737125889 $685 $592 forward 7 unknown #
point $-1 -1.377953 2.0669290926287411 0.68850224999999998 #
face $-1 $561 $578 $27 $-1 $700 reversed single #
cone-surface $-1 -1.1102230246251565e-016 0.88582690737125869 0.68850224999999998 0 0 1 1.0310459999999981 0.57614799999999911 0 1 I I 0 1 1.1811021852574801 forward I I I I #
edge $-1 $591 -0.68850224999999998 $595 0.68850224999999998 $581 $774 forward 7 unknown #
straight-curve $-1 1.377953 -2.0669290926287411 0 0 0 -1 I I #
point $-1 1.377953 -2.0669290926287411 -0.68850224999999998 #
point $-1 -1.377953 -2.0669290926287411 0.68850224999999998 #
point $-1 -1.377953 -2.0669290926287411 -0.68850224999999998 #
fface-rbase-attrib $-1 $-1 $598 $451 #
model_id-kcp-attrib $-1 $775 $-1 $599 1 990564519 80 -1102053375 11 #
loop $-1 $-1 $736 $599 #
cone-surface $-1 0 1.574803 0.28141575000000002 0 0 1 -1.30174675726236e-016 -1.0629919999999999 0 1 I I 0 1 1.0629919999999999 forward I I I I #
copar-rbase-attrib $-1 $-1 $-1 $602 #
copar-rbase-attrib $-1 $-1 $-1 $603 #
attrib_edge_convexity-kcp-attrib $-1 $776 $-1 $604 1 #
vertex $-1 $608 $777 #
straight-curve $-1 -0.61595108342232896 2.91578354881577 -0.037652960892122701 -0.460272657677674 -0.84807473149566204 -0.262523009263744 I I #
attrib_edge_convexity-kcp-attrib $-1 $778 $-1 $606 1 #
straight-curve $-1 1.0310459999999999 2.1509510000000001 0 0 0 -1 I I #
attrib_edge_convexity-kcp-attrib $-1 $779 $-1 $608 1 #
straight-curve $-1 0.98425200000000002 1.57480275397314 -0.45275589999999999 1 0 0 I I #
copar-rbase-attrib $-1 $-1 $-1 $610 #
convexity-sys-attrib $-1 $780 $611 $459 #
point $-1 1.343736939332 1.57480275397314 -0.45275589999999999 #
epar-rbase-attrib $-1 $-1 $615 $307 #
epar-rbase-attrib $-1 $-1 $617 $309 #
attrib_edge_convexity-kcp-attrib $-1 $781 $-1 $619 1 #
straight-curve $-1 -1.0310459999999999 2.1509510000000001 0 0 0 -1 I I #
convexity-sys-attrib $-1 $782 $620 $469 #
point $-1 -1.0310459999999999 2.1509510000000001 -0.27440820761886903 #
copar-rbase-attrib $-1 $-1 $-1 $625 #
coedge $783 $784 $785 $625 $730 forward $786 $-1 #
edge $787 $633 0 $636 3.1415926535897931 $729 $788 forward 7 unknown #
model_id-kcp-attrib $-1 $789 $-1 $627 1 990564519 80 -1102053375 12 #
face $790 $791 $786 $8 $-1 $792 forward single #
torus-surface $-1 0 1.574803 0.062952750000000002 0 0 1 1.103091 -0.062992522860435704 1 0 0 forward_v I I I I #
epar-rbase-attrib $-1 $-1 $628 $318 #
copar-rbase-attrib $-1 $-1 $-1 $630 #
coedge $793 $794 $630 $785 $740 reversed $708 $-1 #
coedge $795 $630 $794 $784 $796 reversed $708 $-1 #
epar-rbase-attrib $-1 $-1 $-1 $631 #
ellipse-curve $-1 0 1.574803 0.11153390000000001 0 0 1 -1.30174675726236e-016 -1.0629919999999999 0 1 I I #
edge $797 $798 0 $633 0.3397637 $785 $799 forward 7 unknown #
point $-1 0 2.6377950000000001 0.11153390000000001 #
point $-1 -1.30174675726236e-016 0.51181100000000002 0.11153390000000001 #
convexity-sys-attrib $-1 $800 $640 $489 #
epar-rbase-attrib $-1 $-1 $644 $330 #
convexity-sys-attrib $-1 $801 $647 $500 #
point $-1 1.377953 1.5117579999999999 -0.45275589999999999 #
epar-rbase-attrib $-1 $-1 $653 $340 #
convexity-sys-attrib $-1 $802 $655 $510 #
attrib_edge_convexity-kcp-attrib $-1 $803 $-1 $659 1 #
straight-curve $-1 -1.377953 1.5117579999999999 -0.45275589999999999 -0.47700319525585799 -0.87890155974130701 0 I I #
attrib_edge_convexity-kcp-attrib $-1 $804 $-1 $661 1 #
straight-curve $-1 1.0310459999999999 2.1509510000000001 -0.45275589999999999 -0.47700319525585799 0.87890155974130701 0 I I #
convexity-sys-attrib $-1 $805 $662 $520 #
copar-rbase-attrib $-1 $-1 $-1 $664 #
coedge $806 $664 $664 $764 $807 reversed $521 $-1 #
coedge $808 $809 $810 $664 $757 forward $811 $-1 #
edge $812 $813 -1.5707963267948966 $814 1.5707963267948968 $756 $815 forward 7 unknown #
convexity-sys-attrib $-1 $816 $667 $360 #
fface-rbase-attrib $-1 $-1 $671 $533 #
model_id-kcp-attrib $-1 $817 $-1 $672 1 990564519 80 -1102053375 20 #
face $818 $819 $811 $8 $-1 $820 forward single #
loop $-1 $-1 $821 $672 #
cone-surface $-1 0 0 -0.74499842701607399 0 0 1 -1.5428116142344801e-016 -1.2598428951629099 0 1 I I -5.8014483310848402e-007 0.99999999999983202 1.2598428951629099 forward I I I I #
coedge $822 $823 $824 $755 $807 forward $673 $-1 #
straight-curve $-1 -1.3765518066759403 0.82536367413983314 0.68850224999999998 0.47700319525585755 0.87890155974130713 0 I I #
straight-curve $-1 1.377953 0.82278190737125723 0.34425112499999999 0 0 -1 I I #
straight-curve $-1 1.0310459999999981 1.4619749073712582 0.68850224999999998 0 0 -1 I I #
plane-surface $-1 1.3437369393319998 0.88582666134439958 0.68850224999999998 0.87890155974130635 0.47700319525585899 0 0 0 -1 forward_v I I I I #
point $-1 -1.0310460000000015 1.4619749073712596 0.68850224999999998 #
point $-1 -1.377953 0.82278190737125889 0.68850224999999998 #
straight-curve $-1 1.3765518066759386 0.82536367413983414 0.68850224999999998 0.47700319525585899 -0.87890155974130635 0 I I #
point $-1 1.0310459999999981 1.4619749073712582 0.68850224999999998 #
point $-1 1.377953 0.82278190737125889 0.68850224999999998 #
straight-curve $-1 -1.377953 -2.0669290926287411 0 0 0 -1 I I #
fface-rbase-attrib $-1 $-1 $707 $599 #
convexity-sys-attrib $-1 $825 $712 $604 #
point $-1 -1.343736939332 1.57480275397314 -0.45275589999999999 #
convexity-sys-attrib $-1 $826 $715 $606 #
convexity-sys-attrib $-1 $827 $717 $608 #
epar-rbase-attrib $-1 $-1 $720 $459 #
convexity-sys-attrib $-1 $828 $724 $619 #
epar-rbase-attrib $-1 $-1 $726 $469 #
copar-rbase-attrib $-1 $-1 $-1 $729 #
coedge $829 $830 $729 $737 $796 forward $786 $-1 #
coedge $831 $729 $830 $736 $740 forward $786 $-1 #
loop $-1 $-1 $784 $732 #
epar-rbase-attrib $-1 $-1 $-1 $730 #
ellipse-curve $-1 0 1.574803 0.11153390000000001 0 0 1 0 1.0629919999999999 0 1 I I #
fface-rbase-attrib $-1 $-1 $731 $627 #
model_id-kcp-attrib $-1 $832 $-1 $732 1 990564519 80 -1102053375 13 #
face $833 $361 $834 $8 $-1 $835 forward single #
cone-surface $-1 0 1.574803 0.28141575000000002 0 0 1 0 1.0629919999999999 0 1 I I 0 1 1.0629919999999999 forward I I I I #
copar-rbase-attrib $-1 $-1 $-1 $736 #
coedge $836 $737 $736 $837 $838 reversed $708 $-1 #
copar-rbase-attrib $-1 $-1 $-1 $737 #
edge $839 $636 -0.3397637 $840 0 $784 $841 forward 7 unknown #
epar-rbase-attrib $-1 $-1 $-1 $740 #
vertex $-1 $842 $843 #
straight-curve $-1 0 2.6377950000000001 0.45129760000000002 0 0 -1 I I #
epar-rbase-attrib $-1 $-1 $743 $489 #
epar-rbase-attrib $-1 $-1 $745 $500 #
epar-rbase-attrib $-1 $-1 $748 $510 #
convexity-sys-attrib $-1 $844 $749 $659 #
convexity-sys-attrib $-1 $845 $751 $661 #
model_id-kcp-attrib $-1 $846 $753 $520 1 990564519 80 -1102053375 25 #
copar-rbase-attrib $-1 $-1 $-1 $755 #
edge $847 $814 1.5707963267948968 $813 4.7123889803846897 $764 $848 forward 7 unknown #
copar-rbase-attrib $-1 $-1 $-1 $756 #
coedge $849 $850 $756 $824 $851 reversed $811 $-1 #
coedge $852 $756 $850 $823 $853 reversed $811 $-1 #
loop $-1 $-1 $756 $761 #
attrib_edge_convexity-kcp-attrib $-1 $854 $-1 $757 2 #
vertex $-1 $757 $855 #
vertex $-1 $851 $856 #
ellipse-curve $-1 0 0 -0.45275589999999999 0 0 -1 1.2977162225796699 0 0 1 I I #
epar-rbase-attrib $-1 $-1 $758 $360 #
fface-rbase-attrib $-1 $-1 $760 $672 #
model_id-kcp-attrib $-1 $857 $-1 $761 1 990564519 80 -1102053375 21 #
face $858 $859 $860 $8 $-1 $861 forward single #
torus-surface $-1 0 0 -0.51570870000000002 0 0 1 1.299941 -0.062992099999999995 -1 1.22460635382238e-016 0 forward_v I I I I #
coedge $862 $863 $864 $865 $866 reversed $762 $-1 #
copar-rbase-attrib $-1 $-1 $-1 $764 #
coedge $867 $868 $764 $810 $853 forward $673 $-1 #
coedge $869 $764 $868 $809 $851 forward $673 $-1 #
epar-rbase-attrib $-1 $-1 $776 $604 #
epar-rbase-attrib $-1 $-1 $778 $606 #
epar-rbase-attrib $-1 $-1 $779 $608 #
epar-rbase-attrib $-1 $-1 $781 $619 #
copar-rbase-attrib $-1 $-1 $-1 $784 #
coedge $870 $785 $784 $871 $842 reversed $786 $-1 #
copar-rbase-attrib $-1 $-1 $-1 $785 #
fface-rbase-attrib $-1 $-1 $790 $732 #
model_id-kcp-attrib $-1 $872 $-1 $791 1 990564519 80 -1102053375 24 #
loop $-1 $-1 $871 $791 #
plane-surface $-1 0 2.6377950000000001 0.45129760000000002 0 0 1 1 0 0 forward_v I I I I #
copar-rbase-attrib $-1 $-1 $-1 $794 #
coedge $873 $871 $871 $794 $838 forward $834 $-1 #
edge $874 $840 0 $798 3.1415926535897931 $837 $875 forward 7 unknown #
epar-rbase-attrib $-1 $-1 $-1 $796 #
vertex $-1 $842 $876 #
straight-curve $-1 -1.30174675726236e-016 0.51181100000000002 0.45129760000000002 0 0 1 I I #
edge $877 $798 0 $840 3.1415926535897931 $871 $878 forward 7 unknown #
point $-1 0 2.6377950000000001 0.45129760000000002 #
epar-rbase-attrib $-1 $-1 $803 $659 #
epar-rbase-attrib $-1 $-1 $804 $661 #
epar-rbase-attrib $-1 $-1 $805 $520 #
attrib_edge_convexity-kcp-attrib $-1 $879 $-1 $807 2 #
ellipse-curve $-1 0 0 -0.45275589999999999 0 0 -1 1.2977162225796699 0 0 1 I I #
copar-rbase-attrib $-1 $-1 $-1 $809 #
coedge $880 $810 $809 $863 $881 forward $811 $-1 #
edge $882 $883 -2.4515639219029652 $814 -0.035325702846672767 $824 $884 forward 7 unknown #
copar-rbase-attrib $-1 $-1 $-1 $810 #
edge $885 $813 0.035325702846672767 $886 2.4515639219029652 $823 $887 forward 7 unknown #
convexity-sys-attrib $-1 $888 $812 $757 #
point $-1 0 1.2977162225796699 -0.45275589999999999 #
point $-1 -1.5891915316294399e-016 -1.2977162225796699 -0.45275589999999999 #
fface-rbase-attrib $-1 $-1 $818 $761 #
model_id-kcp-attrib $-1 $889 $-1 $819 1 990564519 80 -1102053375 22 #
face $890 $-1 $891 $8 $-1 $892 forward single #
loop $-1 $-1 $893 $819 #
plane-surface $-1 0 0 -0.9257069 0 0 -1 -1 0 0 forward_v I I I I #
copar-rbase-attrib $-1 $-1 $-1 $821 #
coedge $894 $895 $821 $850 $881 reversed $762 $-1 #
coedge $896 $821 $895 $897 $898 forward $762 $-1 #
coedge $899 $900 $901 $821 $866 forward $891 $-1 #
edge $902 $886 0 $903 0.36141694596791379 $865 $904 forward 7 unknown #
copar-rbase-attrib $-1 $-1 $-1 $823 #
coedge $905 $824 $823 $901 $906 forward $673 $-1 #
copar-rbase-attrib $-1 $-1 $-1 $824 #
copar-rbase-attrib $-1 $-1 $-1 $830 #
coedge $907 $837 $837 $830 $842 forward $834 $-1 #
model_id-kcp-attrib $-1 $908 $833 $791 1 990564519 80 -1102053375 14 #
copar-rbase-attrib $-1 $-1 $-1 $837 #
attrib_edge_convexity-kcp-attrib $-1 $909 $-1 $838 1 #
ellipse-curve $-1 0 1.574803 0.45129760000000002 0 0 1 -1.30174675726236e-016 -1.0629919999999999 0 1 I I #
point $-1 -1.30174675726236e-016 0.51181100000000002 0.45129760000000002 #
attrib_edge_convexity-kcp-attrib $-1 $910 $-1 $842 1 #
ellipse-curve $-1 0 1.574803 0.45129760000000002 0 0 1 0 1.0629919999999999 0 1 I I #
convexity-sys-attrib $-1 $911 $847 $807 #
copar-rbase-attrib $-1 $-1 $-1 $850 #
edge $912 $883 0 $886 3.1415926535897931 $850 $913 forward 7 unknown #
epar-rbase-attrib $-1 $-1 $-1 $851 #
vertex $-1 $906 $914 #
ellipse-curve $-1 -1.5919160081942099e-016 -1.299941 -0.51570870000000002 1 -1.22460635382238e-016 0 0 0 0.062992099999999995 1 I I #
epar-rbase-attrib $-1 $-1 $-1 $853 #
vertex $-1 $853 $915 #
ellipse-curve $-1 0 1.299941 -0.51570870000000002 1 0 0 0 0 0.062992099999999995 1 I I #
epar-rbase-attrib $-1 $-1 $854 $757 #
fface-rbase-attrib $-1 $-1 $858 $819 #
model_id-kcp-attrib $-1 $916 $-1 $859 1 990564519 80 -1102053375 23 #
loop $-1 $-1 $917 $859 #
cone-surface $-1 0 0 -0.74499842701607399 0 0 1 0 1.2598428951629099 0 1 I I -5.8014483310848402e-007 0.99999999999983202 1.2598428951629099 forward I I I I #
coedge $918 $897 $897 $900 $919 reversed $860 $-1 #
copar-rbase-attrib $-1 $-1 $-1 $863 #
coedge $920 $864 $863 $917 $921 reversed $762 $-1 #
copar-rbase-attrib $-1 $-1 $-1 $864 #
coedge $922 $893 $893 $864 $898 reversed $860 $-1 #
edge $923 $924 0 $903 3.1415926535897931 $864 $925 forward 7 unknown #
copar-rbase-attrib $-1 $-1 $-1 $865 #
coedge $926 $917 $865 $893 $919 forward $891 $-1 #
coedge $927 $865 $917 $868 $906 reversed $891 $-1 #
epar-rbase-attrib $-1 $-1 $-1 $866 #
vertex $-1 $866 $928 #
straight-curve $-1 0 1.25984279032583 -0.56428995403214699 0 5.8014483310848402e-007 -0.99999999999983202 I I #
copar-rbase-attrib $-1 $-1 $-1 $868 #
edge $929 $886 0 $883 3.1415926535897931 $868 $930 forward 7 unknown #
copar-rbase-attrib $-1 $-1 $-1 $871 #
fface-rbase-attrib $-1 $-1 $872 $791 #
convexity-sys-attrib $-1 $931 $874 $838 #
convexity-sys-attrib $-1 $932 $877 $842 #
epar-rbase-attrib $-1 $-1 $879 $807 #
epar-rbase-attrib $-1 $-1 $-1 $881 #
ellipse-curve $-1 0 0 -0.56428995403214699 0 0 1 -1.5428114858503201e-016 -1.25984279032583 0 1 I I #
point $-1 -1.5428114858503201e-016 -1.25984279032583 -0.56428995403214699 #
point $-1 0 1.25984279032583 -0.56428995403214699 #
fface-rbase-attrib $-1 $-1 $890 $859 #
coedge $933 $901 $900 $895 $921 forward $891 $-1 #
copar-rbase-attrib $-1 $-1 $-1 $893 #
edge $934 $903 0 $924 3.1415926535897931 $900 $935 forward 7 unknown #
copar-rbase-attrib $-1 $-1 $-1 $895 #
edge $936 $924 -0.36141694596791379 $883 0 $917 $937 forward 7 unknown #
copar-rbase-attrib $-1 $-1 $-1 $897 #
epar-rbase-attrib $-1 $-1 $-1 $898 #
vertex $-1 $919 $938 #
ellipse-curve $-1 0 0 -0.9257069 0 0 1 -1.54281174261865e-016 -1.259843 0 1 I I #
copar-rbase-attrib $-1 $-1 $-1 $900 #
copar-rbase-attrib $-1 $-1 $-1 $901 #
point $-1 0 1.259843 -0.9257069 #
epar-rbase-attrib $-1 $-1 $-1 $906 #
ellipse-curve $-1 0 0 -0.56428995403214699 0 0 1 0 1.25984279032583 0 1 I I #
epar-rbase-attrib $-1 $-1 $909 $838 #
epar-rbase-attrib $-1 $-1 $910 $842 #
copar-rbase-attrib $-1 $-1 $-1 $917 #
epar-rbase-attrib $-1 $-1 $-1 $919 #
ellipse-curve $-1 0 0 -0.9257069 0 0 1 0 1.259843 0 1 I I #
epar-rbase-attrib $-1 $-1 $-1 $921 #
straight-curve $-1 -1.5428114858503201e-016 -1.25984279032583 -0.56428995403214699 7.1044904876187203e-023 5.8014483310848402e-007 0.99999999999983202 I I #
point $-1 -1.54281174261865e-016 -1.259843 -0.9257069 #
End-of-ACIS-data 