104 502 0 0                             
body $1 $2 $-1 $-1 #
f_body-lwd-attrib $-1 $3 $-1 $0 #
lump $-1 $-1 $4 $0 #
ref_vt-lwd-attrib $-1 $-1 $1 $0 $5 $-1 #
shell $-1 $-1 $-1 $6 $2 #
refinement $-1 0 0 0 0 0.254000008106232 30 0 0 0 #
face $7 $8 $9 $4 $-1 $10 1 #
fface-lwd-attrib $-1 $-1 $-1 $6 #
face $11 $12 $13 $4 $-1 $10 1 #
loop $-1 $-1 $14 $6 #
cone-surface $-1 6.985 2.8575 -12.695 0 0 -1 0 1.27 0 1 0 1 0 #
fface-lwd-attrib $-1 $-1 $-1 $8 #
face $15 $16 $17 $4 $-1 $18 1 #
loop $-1 $-1 $19 $8 #
coedge $20 $21 $22 $23 $24 1 $9 $-1 #
fface-lwd-attrib $-1 $-1 $-1 $12 #
face $25 $26 $27 $4 $-1 $18 1 #
loop $-1 $-1 $28 $12 #
cone-surface $-1 6.985 2.8575 -12.695 0 -0 -1 1.55525006935442e-16 -1.27 0 1 0 1 0 #
coedge $29 $30 $31 $32 $33 1 $13 $-1 #
copar-lwd-attrib $-1 $-1 $-1 $14 #
coedge $34 $35 $14 $36 $37 1 $9 $-1 #
coedge $38 $14 $35 $39 $40 0 $9 $-1 #
coedge $-1 $41 $42 $14 $24 0 $43 $-1 #
edge $44 $45 $46 $23 $47 0 #
fface-lwd-attrib $-1 $-1 $-1 $16 #
face $48 $49 $50 $4 $-1 $51 0 #
loop $-1 $-1 $52 $16 #
coedge $53 $39 $36 $41 $54 1 $17 $-1 #
copar-lwd-attrib $-1 $-1 $-1 $19 #
coedge $55 $56 $19 $57 $58 0 $13 $-1 #
coedge $59 $19 $56 $60 $61 1 $13 $-1 #
coedge $62 $63 $64 $19 $33 0 $50 $-1 #
edge $65 $66 $67 $32 $68 0 #
copar-lwd-attrib $-1 $-1 $-1 $21 #
coedge $69 $22 $21 $70 $71 1 $9 $-1 #
coedge $72 $28 $73 $21 $37 0 $17 $-1 #
edge $74 $75 $45 $21 $76 0 #
copar-lwd-attrib $-1 $-1 $-1 $22 #
coedge $77 $73 $28 $22 $40 1 $17 $-1 #
edge $78 $79 $46 $22 $80 0 #
coedge $-1 $81 $23 $28 $54 0 $43 $-1 #
coedge $-1 $23 $82 $83 $84 1 $43 $-1 #
loop $-1 $-1 $85 $49 #
epar-lwd-attrib $-1 $-1 $-1 $24 #
vertex $-1 $86 $87 #
vertex $-1 $54 $88 #
ellipse-curve $-1 6.985 2.8575 -0.952500000000001 -0 -0 1 0 1.27 0 1 #
fface-lwd-attrib $-1 $-1 $-1 $26 #
face $-1 $89 $43 $4 $-1 $90 0 #
loop $-1 $-1 $91 $26 #
plane-surface $-1 0 1.5875 -4.1275 -0 0 1 1 -0 0 0 #
coedge $92 $60 $57 $64 $93 1 $27 $-1 #
copar-lwd-attrib $-1 $-1 $-1 $28 #
edge $94 $46 $45 $41 $95 0 #
copar-lwd-attrib $-1 $-1 $-1 $30 #
coedge $96 $31 $30 $97 $98 1 $13 $-1 #
coedge $99 $52 $100 $30 $58 1 $27 $-1 #
edge $101 $66 $102 $30 $80 0 #
copar-lwd-attrib $-1 $-1 $-1 $31 #
coedge $103 $100 $52 $31 $61 0 $27 $-1 #
edge $104 $67 $105 $31 $76 0 #
copar-lwd-attrib $-1 $-1 $-1 $32 #
coedge $106 $91 $32 $107 $108 0 $50 $-1 #
coedge $109 $32 $110 $52 $93 0 $50 $-1 #
epar-lwd-attrib $-1 $-1 $-1 $33 #
vertex $-1 $93 $111 #
vertex $-1 $112 $113 #
ellipse-curve $-1 6.985 2.8575 -4.1275 0 -0 -1 0 1.27 0 1 #
copar-lwd-attrib $-1 $-1 $-1 $35 #
coedge $-1 $114 $114 $35 $71 0 $115 $-1 #
edge $116 $79 $75 $70 $117 0 #
copar-lwd-attrib $-1 $-1 $-1 $36 #
coedge $118 $36 $39 $114 $119 1 $17 $-1 #
epar-lwd-attrib $-1 $-1 $-1 $37 #
vertex $-1 $119 $120 #
straight-curve $-1 6.985 1.5875 0.01 0 -0 -1 #
copar-lwd-attrib $-1 $-1 $-1 $39 #
epar-lwd-attrib $-1 $-1 $-1 $40 #
vertex $-1 $119 $121 #
straight-curve $-1 6.985 4.1275 0.01 0 0 -1 #
coedge $-1 $85 $41 $122 $86 1 $43 $-1 #
coedge $-1 $42 $123 $124 $125 0 $43 $-1 #
coedge $-1 $126 $122 $42 $84 0 $127 $-1 #
edge $-1 $45 $128 $83 $129 0 #
coedge $-1 $130 $81 $131 $132 0 $43 $-1 #
edge $-1 $133 $45 $122 $129 0 #
point $-1 6.985 1.5875 -0.952500000000001 #
point $-1 6.985 4.1275 -0.952500000000001 #
face $-1 $134 $127 $4 $-1 $135 0 #
plane-surface $-1 0 5.3975 -0.952500000000001 0 0 -1 -1 0 0 0 #
coedge $136 $137 $63 $138 $139 0 $50 $-1 #
copar-lwd-attrib $-1 $-1 $-1 $52 #
edge $140 $67 $66 $64 $141 0 #
epar-lwd-attrib $-1 $-1 $-1 $54 #
ellipse-curve $-1 6.985 2.8575 -0.952500000000001 -0 -0 1 1.55525006935442e-16 -1.27 0 1 #
copar-lwd-attrib $-1 $-1 $-1 $56 #
coedge $-1 $142 $142 $56 $98 0 $143 $-1 #
edge $144 $105 $102 $97 $145 0 #
copar-lwd-attrib $-1 $-1 $-1 $57 #
coedge $146 $57 $60 $142 $147 1 $27 $-1 #
epar-lwd-attrib $-1 $-1 $-1 $58 #
vertex $-1 $147 $148 #
copar-lwd-attrib $-1 $-1 $-1 $60 #
epar-lwd-attrib $-1 $-1 $-1 $61 #
vertex $-1 $147 $149 #
copar-lwd-attrib $-1 $-1 $-1 $63 #
coedge $-1 $150 $151 $63 $108 1 $152 $-1 #
edge $153 $67 $154 $63 $155 0 #
copar-lwd-attrib $-1 $-1 $-1 $64 #
coedge $156 $64 $157 $150 $112 0 $50 $-1 #
point $-1 6.985 4.1275 -4.1275 #
edge $158 $159 $67 $110 $155 0 #
point $-1 6.985 1.5875 -4.1275 #
coedge $-1 $70 $70 $73 $119 0 $115 $-1 #
loop $-1 $160 $114 $161 #
epar-lwd-attrib $-1 $-1 $-1 $71 #
ellipse-curve $-1 6.985 2.8575 0 -0 -0 -1 0 1.27 0 1 #
copar-lwd-attrib $-1 $-1 $-1 $73 #
edge $162 $75 $79 $114 $163 0 #
point $-1 6.985 1.5875 0 #
point $-1 6.985 4.1275 0 #
coedge $-1 $83 $164 $81 $86 0 $127 $-1 #
coedge $-1 $82 $130 $165 $166 0 $43 $-1 #
coedge $-1 $167 $168 $82 $125 1 $169 $-1 #
edge $-1 $170 $128 $124 $171 0 #
coedge $-1 $172 $83 $168 $173 0 $127 $-1 #
loop $-1 $-1 $172 $89 #
vertex $-1 $125 $174 #
straight-curve $-1 0 1.5875 -0.952500000000001 1 0 0 #
coedge $-1 $123 $85 $175 $176 0 $43 $-1 #
coedge $-1 $177 $178 $85 $132 1 $179 $-1 #
edge $-1 $133 $180 $131 $181 0 #
vertex $-1 $132 $182 #
face $-1 $183 $152 $4 $-1 $184 0 #
cone-surface $-1 0 1.5875 -1.5875 1 0 0 0 -0.635 -4.44089209850063e-16 1 0 -1 0 #
copar-lwd-attrib $-1 $-1 $-1 $91 #
coedge $185 $186 $91 $187 $188 0 $50 $-1 #
coedge $-1 $189 $190 $91 $139 1 $191 $-1 #
edge $192 $154 $193 $138 $194 0 #
epar-lwd-attrib $-1 $-1 $-1 $93 #
ellipse-curve $-1 6.985 2.8575 -4.1275 0 -0 -1 1.55525006935442e-16 -1.27 0 1 #
coedge $-1 $97 $97 $100 $147 0 $143 $-1 #
loop $-1 $195 $142 $196 #
epar-lwd-attrib $-1 $-1 $-1 $98 #
ellipse-curve $-1 6.985 2.8575 -5.08 -0 -0 1 0 1.27 0 1 #
copar-lwd-attrib $-1 $-1 $-1 $100 #
edge $197 $102 $105 $142 $198 0 #
point $-1 6.985 4.1275 -5.08 #
point $-1 6.985 1.5875 -5.08 #
coedge $-1 $199 $107 $110 $112 1 $152 $-1 #
coedge $-1 $107 $200 $189 $201 0 $152 $-1 #
loop $-1 $-1 $151 $134 #
epar-lwd-attrib $-1 $-1 $-1 $108 #
vertex $-1 $201 $202 #
straight-curve $-1 0 1.5875 -4.1275 1 0 0 #
copar-lwd-attrib $-1 $-1 $-1 $110 #
coedge $203 $110 $186 $204 $205 0 $50 $-1 #
epar-lwd-attrib $-1 $-1 $-1 $112 #
vertex $-1 $206 $207 #
loop $-1 $-1 $208 $161 #
face $-1 $196 $115 $4 $-1 $209 0 #
epar-lwd-attrib $-1 $-1 $-1 $119 #
ellipse-curve $-1 6.985 2.8575 0 -0 -0 -1 1.55525006935442e-16 -1.27 0 1 #
coedge $-1 $122 $210 $177 $211 0 $127 $-1 #
coedge $-1 $212 $213 $123 $166 1 $214 $-1 #
edge $-1 $215 $170 $165 $216 0 #
coedge $-1 $217 $124 $213 $218 1 $169 $-1 #
coedge $-1 $124 $219 $126 $173 1 $169 $-1 #
loop $-1 $-1 $168 $220 #
vertex $-1 $218 $221 #
straight-curve $-1 8.4454314273644 5.34667929022935 -0.952500000000001 0.5188607177146 -0.854858792791354 0 #
coedge $-1 $222 $126 $223 $224 0 $127 $-1 #
edge $-1 $128 $225 $168 $226 0 #
point $-1 10.7270836499231 1.5875 -0.952500000000001 #
coedge $-1 $227 $228 $130 $176 1 $229 $-1 #
edge $-1 $180 $215 $175 $216 0 #
coedge $-1 $230 $131 $164 $211 1 $179 $-1 #
coedge $-1 $131 $231 $227 $232 0 $179 $-1 #
loop $-1 $-1 $177 $233 #
vertex $-1 $232 $234 #
straight-curve $-1 4.43673209568818 3.55439371977074 -0.952500000000001 0.5188607177146 0.854858792791354 0 #
point $-1 3.24291635007688 1.5875 -0.952500000000001 #
face $-1 $235 $236 $4 $-1 $237 0 #
cone-surface $-1 0 1.5875 -3.4925 1 0 0 0 8.88178419700125e-16 -0.635 1 0 -1 0 #
copar-lwd-attrib $-1 $-1 $-1 $137 #
coedge $238 $157 $137 $239 $240 0 $50 $-1 #
coedge $-1 $241 $242 $137 $188 1 $243 $-1 #
edge $244 $193 $245 $187 $246 0 #
coedge $-1 $247 $138 $151 $201 1 $191 $-1 #
coedge $-1 $138 $248 $241 $249 1 $191 $-1 #
loop $-1 $-1 $138 $250 #
epar-lwd-attrib $-1 $-1 $-1 $139 #
vertex $-1 $188 $251 #
straight-curve $-1 9.29039921946574 3.95453661678717 -4.1275 -0.5188607177146 0.854858792791354 -0 #
loop $-1 $-1 $252 $196 #
face $-1 $-1 $143 $4 $-1 $253 0 #
epar-lwd-attrib $-1 $-1 $-1 $147 #
ellipse-curve $-1 6.985 2.8575 -5.08 -0 -0 1 1.55525006935442e-16 -1.27 0 1 #
coedge $-1 $254 $150 $255 $206 0 $152 $-1 #
coedge $-1 $151 $256 $257 $258 0 $152 $-1 #
edge $-1 $259 $154 $189 $260 0 #
point $-1 10.7270836499231 1.5875 -4.1275 #
copar-lwd-attrib $-1 $-1 $-1 $157 #
coedge $-1 $261 $255 $157 $205 1 $262 $-1 #
edge $263 $264 $159 $204 $265 0 #
edge $-1 $159 $266 $255 $267 0 #
point $-1 3.24291635007688 1.5875 -4.1275 #
coedge $-1 $268 $269 $270 $271 0 $160 $-1 #
plane-surface $-1 6.985 1.7628396586694 0 0 0 1 1 0 0 0 #
coedge $-1 $164 $222 $272 $273 0 $127 $-1 #
edge $-1 $274 $133 $177 $275 0 #
coedge $-1 $276 $165 $228 $277 1 $214 $-1 #
coedge $-1 $165 $276 $167 $218 0 $214 $-1 #
loop $-1 $-1 $165 $278 #
vertex $-1 $277 $279 #
ellipse-curve $-1 6.985 2.8575 -0.952500000000001 0 0 -1 -2.17134133369004 1.31790622299508 0 1 #
coedge $-1 $219 $167 $280 $281 1 $169 $-1 #
edge $-1 $282 $170 $213 $283 0 #
coedge $-1 $168 $217 $284 $285 0 $169 $-1 #
face $-1 $250 $169 $4 $-1 $286 0 #
point $-1 9.15634133369004 4.17540622299508 -0.952500000000001 #
coedge $-1 $210 $172 $287 $288 1 $127 $-1 #
coedge $-1 $284 $289 $172 $224 1 $236 $-1 #
edge $-1 $225 $290 $223 $291 0 #
vertex $-1 $285 $292 #
ellipse-curve $-1 10.7270836499231 1.5875 -1.5875 0.854858792791354 0.5188607177146 0 0.385416350076879 -0.635 -4.44089209850063e-16 0.854858792791354 #
coedge $-1 $270 $175 $178 $232 1 $229 $-1 #
coedge $-1 $175 $270 $212 $277 0 $229 $-1 #
loop $-1 $-1 $175 $293 #
coedge $-1 $231 $177 $294 $295 1 $179 $-1 #
coedge $-1 $178 $230 $268 $296 1 $179 $-1 #
edge $-1 $297 $180 $178 $298 0 #
face $-1 $278 $179 $4 $-1 $299 0 #
point $-1 4.81365866630996 4.17540622299508 -0.952500000000001 #
face $-1 $220 $300 $4 $-1 $237 0 #
loop $-1 $-1 $223 $183 #
cone-surface $-1 11.8272927747309 2.2225 0 0 0 -1 -1.08567066684502 -0.658953111497542 0 1 0 -1 0 #
copar-lwd-attrib $-1 $-1 $-1 $186 #
coedge $-1 $301 $302 $186 $240 1 $303 $-1 #
edge $304 $245 $264 $239 $246 0 #
coedge $-1 $305 $187 $190 $249 0 $243 $-1 #
coedge $-1 $187 $305 $301 $306 1 $243 $-1 #
loop $-1 $-1 $187 $307 #
epar-lwd-attrib $-1 $-1 $-1 $188 #
vertex $-1 $188 $308 #
ellipse-curve $-1 6.985 2.8575 -4.1275 -0 0 1 -2.17134133369004 1.31790622299508 0 1 #
coedge $-1 $248 $189 $309 $310 0 $191 $-1 #
coedge $-1 $190 $247 $311 $312 1 $191 $-1 #
edge $-1 $193 $313 $241 $283 0 #
face $-1 $314 $191 $4 $-1 $286 0 #
point $-1 9.15634133369004 4.17540622299508 -4.1275 #
coedge $-1 $315 $316 $317 $318 0 $195 $-1 #
plane-surface $-1 6.985 1.7628396586694 -5.08 0 0 -1 -1 0 0 0 #
coedge $-1 $256 $199 $319 $320 0 $152 $-1 #
coedge $-1 $204 $321 $199 $206 1 $262 $-1 #
coedge $-1 $200 $254 $322 $323 0 $152 $-1 #
coedge $-1 $324 $309 $200 $258 1 $300 $-1 #
edge $-1 $325 $259 $257 $326 0 #
vertex $-1 $258 $327 #
ellipse-curve $-1 10.7270836499231 1.5875 -3.4925 0.854858792791354 0.5188607177146 0 -0.385416350076879 0.635 8.88178419700125e-16 0.854858792791354 #
coedge $-1 $317 $204 $302 $328 0 $262 $-1 #
loop $-1 $-1 $204 $329 #
epar-lwd-attrib $-1 $-1 $-1 $205 #
vertex $-1 $205 $330 #
straight-curve $-1 3.59176430358684 2.16225104632856 -4.1275 -0.5188607177146 -0.854858792791354 0 #
vertex $-1 $320 $331 #
ellipse-curve $-1 3.24291635007688 1.5875 -3.4925 -0.854858792791354 0.5188607177146 0 0.385416350076879 0.635 8.88178419700125e-16 0.854858792791354 #
coedge $-1 $332 $208 $231 $296 0 $160 $-1 #
coedge $-1 $208 $280 $276 $333 0 $160 $-1 #
coedge $-1 $228 $227 $208 $271 1 $229 $-1 #
edge $-1 $334 $297 $270 $335 1 #
coedge $-1 $336 $294 $210 $273 1 $337 $-1 #
edge $-1 $338 $274 $272 $339 0 #
vertex $-1 $295 $340 #
ellipse-curve $-1 3.24291635007688 1.5875 -1.5875 -0.854858792791354 0.5188607177146 0 -0.385416350076879 -0.635 -4.44089209850063e-16 0.854858792791354 #
coedge $-1 $213 $212 $269 $333 1 $214 $-1 #
edge $-1 $334 $215 $228 $341 0 #
face $-1 $293 $214 $4 $-1 $342 0 #
point $-1 6.985 5.3975 -0.952500000000001 #
coedge $-1 $269 $343 $217 $281 0 $160 $-1 #
edge $-1 $344 $282 $217 $345 1 #
vertex $-1 $333 $346 #
straight-curve $-1 9.15634133369004 4.17540622299508 0 0 0 -1 #
coedge $-1 $347 $223 $219 $285 1 $236 $-1 #
edge $-1 $344 $225 $219 $348 0 #
plane-surface $-1 10.7416221078859 1.56354688850246 0 0.854858792791354 0.5188607177146 0 0 0 -1 0 #
coedge $-1 $349 $350 $222 $288 0 $351 $-1 #
edge $-1 $338 $290 $287 $352 0 #
coedge $-1 $223 $347 $349 $353 0 $236 $-1 #
vertex $-1 $353 $354 #
intcurve-curve $-1 0 surfint nubs 3 open 5 
	3.42144730993682 3 3.7122575113072 3 4.03078645059771 3 4.42287288999159 3 4.81495932938546 3 
	10.7416221078859 1.56354688850246 -0.952951933696441 
	10.7923371254074 1.47999040181025 -0.956106049118682 
	10.8552026037949 1.39926485492769 -0.976181793056899 
	10.9247619872623 1.32900227886611 -1.00749661365763 
	11.0009514624912 1.25204258584555 -1.04179622399805 
	11.0852431064813 1.18754643070211 -1.08942795719098 
	11.1656159379653 1.13848719394654 -1.13848719394655 
	11.2645491695605 1.07809876738248 -1.1988756205106 
	11.3762597290843 1.02941666599595 -1.27303666235482 
	11.4902513209379 0.998039686872154 -1.35136118648705 
	11.6042429127916 0.966662707748356 -1.42968571061929 
	11.7205803623332 0.952500000000001 -1.51204292955678 
	11.8272927747309 0.952500000000001 -1.5875 
	0.001 
	cone 0 1.5875 -1.5875 1 0 0 0 -0.635 -4.44089209850063e-16 1 0 -1 0 
	cone 11.8272927747309 2.2225 0 0 0 -1 -1.08567066684502 -0.658953111497542 0 1 0 -1 0 
	nullbs 
	nullbs 
	#
point $-1 10.7416221078859 1.56354688850246 -0.952951933696441 #
face $-1 $355 $229 $4 $-1 $342 0 #
coedge $-1 $272 $356 $230 $295 0 $337 $-1 #
edge $-1 $357 $274 $294 $358 0 #
edge $-1 $297 $357 $231 $359 1 #
vertex $-1 $271 $360 #
straight-curve $-1 4.81365866630996 4.17540622299508 0 0 0 -1 #
plane-surface $-1 4.81365866630996 4.17540622299508 0 -0.854858792791354 0.5188607177146 0 0 -0 1 0 #
loop $-1 $-1 $257 $235 #
coedge $-1 $361 $239 $242 $306 0 $303 $-1 #
coedge $-1 $239 $361 $261 $328 1 $303 $-1 #
loop $-1 $-1 $301 $355 #
epar-lwd-attrib $-1 $-1 $-1 $240 #
coedge $-1 $242 $241 $362 $363 1 $243 $-1 #
edge $-1 $245 $364 $242 $365 0 #
face $-1 $161 $243 $4 $-1 $342 0 #
point $-1 6.985 5.3975 -4.1275 #
coedge $-1 $257 $366 $247 $310 1 $300 $-1 #
edge $-1 $259 $367 $247 $348 0 #
coedge $-1 $368 $362 $248 $312 0 $195 $-1 #
edge $-1 $313 $367 $248 $369 1 #
vertex $-1 $249 $370 #
face $-1 $233 $337 $4 $-1 $371 0 #
coedge $-1 $362 $252 $361 $372 0 $195 $-1 #
coedge $-1 $252 $373 $374 $375 0 $195 $-1 #
coedge $-1 $321 $261 $252 $318 1 $262 $-1 #
edge $-1 $376 $377 $317 $378 1 #
coedge $-1 $379 $380 $254 $320 1 $381 $-1 #
edge $-1 $266 $382 $319 $383 0 #
coedge $-1 $255 $317 $379 $384 1 $262 $-1 #
coedge $-1 $385 $386 $256 $323 1 $351 $-1 #
edge $-1 $382 $325 $256 $387 0 #
coedge $-1 $366 $257 $386 $388 0 $300 $-1 #
vertex $-1 $323 $389 #
intcurve-curve $-1 0 surfint nubs 3 open 5 
	0 3 0.422457974045903 3 0.844915948091807 3 1.13282922252015 3 1.39305805097252 3 
	11.8272927747309 0.9525 -3.4925 
	11.7123142775995 0.9525 -3.57380207501224 
	11.5871472929081 0.968915574154368 -3.66243039766598 
	11.4649921057533 1.00527437372586 -3.74595279661088 
	11.3428369185984 1.04163317329736 -3.82947519555578 
	11.223625294521 1.09800967860828 -3.90775941081874 
	11.1186780258849 1.16857156897734 -3.9697043269721 
	11.0471544339262 1.21666086105875 -4.01192098457972 
	10.9722047424944 1.27830234739031 -4.05252631900859 
	10.9042624349664 1.35019558531766 -4.08149203285977 
	10.8428531542535 1.41517589272665 -4.10767253390038 
	10.7871128055966 1.48859782876343 -4.12421886662603 
	10.7416221078859 1.56354688850246 -4.12704806630356 
	0.001 
	cone 0 1.5875 -3.4925 1 0 0 0 8.88178419700125e-16 -0.635 1 0 -1 0 
	cone 11.8272927747309 2.2225 0 0 0 -1 -1.08567066684502 -0.658953111497542 0 1 0 -1 0 
	nullbs 
	nullbs 
	#
point $-1 10.7416221078859 1.56354688850246 -4.12704806630356 #
edge $-1 $264 $377 $261 $298 0 #
face $-1 $390 $262 $4 $-1 $299 0 #
point $-1 4.81365866630996 4.17540622299508 -4.1275 #
point $-1 3.2283778921141 1.56354688850246 -4.12704806630356 #
coedge $-1 $391 $268 $356 $392 0 $160 $-1 #
edge $-1 $282 $334 $276 $335 1 #
vertex $-1 $271 $393 #
ellipse-curve $-1 6.985 2.8575 0 0 0 -1 -2.17134133369004 1.31790622299508 0 1 #
coedge $-1 $356 $272 $350 $394 1 $337 $-1 #
loop $-1 $-1 $272 $314 #
vertex $-1 $394 $395 #
intcurve-curve $-1 0 surfint nubs 3 open 5 
	0 3 0.392086439393881 3 0.784172878787762 3 1.10270181807828 3 1.39351201944864 3 
	2.14270722526908 0.9525 -1.5875 
	2.24941963766682 0.9525 -1.51204292955678 
	2.36575708720843 0.966662707748356 -1.42968571061929 
	2.47974867906209 0.998039686872155 -1.35136118648705 
	2.59374027091576 1.02941666599595 -1.27303666235482 
	2.70545083043954 1.07809876738249 -1.1988756205106 
	2.80438406203466 1.13848719394654 -1.13848719394654 
	2.88475689351869 1.18754643070211 -1.08942795719097 
	2.96904853750886 1.25204258584555 -1.04179622399805 
	3.04523801273767 1.32900227886612 -1.00749661365763 
	3.11479739620513 1.39926485492769 -0.976181793056897 
	3.17766287459259 1.47999040181025 -0.956106049118682 
	3.2283778921141 1.56354688850246 -0.952951933696441 
	0.001 
	cone 0 1.5875 -1.5875 1 0 0 0 -0.635 -4.44089209850063e-16 1 0 -1 0 
	cone 2.14270722526908 2.2225 0 0 0 -1 0 -1.27 0 1 0 -1 0 
	nullbs 
	nullbs 
	#
point $-1 3.2283778921141 1.56354688850246 -0.952951933696441 #
straight-curve $-1 6.985 5.3975 0 0 0 -1 #
cone-surface $-1 6.985 2.8575 0 0 0 -1 -2.17134133369004 1.31790622299508 0 1 0 1 0 #
coedge $-1 $280 $396 $347 $397 0 $160 $-1 #
vertex $-1 $281 $398 #
straight-curve $-1 9.15634133369004 4.17540622299508 0 0.5188607177146 -0.854858792791354 0 #
point $-1 9.15634133369004 4.17540622299508 0 #
coedge $-1 $289 $284 $343 $397 1 $236 $-1 #
straight-curve $-1 10.7416221078859 1.56354688850246 0 0 0 -1 #
coedge $-1 $399 $287 $289 $353 1 $351 $-1 #
coedge $-1 $287 $400 $336 $394 0 $351 $-1 #
loop $-1 $-1 $349 $401 #
straight-curve $-1 0 0.9525 -1.5875 1 0 0 #
edge $-1 $402 $290 $289 $403 0 #
point $-1 11.8272927747309 0.952500000000001 -1.5875 #
face $-1 $329 $303 $4 $-1 $342 0 #
coedge $-1 $294 $336 $332 $392 1 $337 $-1 #
vertex $-1 $392 $404 #
straight-curve $-1 3.2283778921141 1.56354688850246 0 0 0 -1 #
straight-curve $-1 3.2283778921141 1.56354688850246 0 0.5188607177146 0.854858792791354 0 #
point $-1 4.81365866630996 4.17540622299508 0 #
coedge $-1 $302 $301 $315 $372 1 $303 $-1 #
coedge $-1 $311 $315 $305 $363 0 $195 $-1 #
edge $-1 $364 $313 $305 $405 1 #
vertex $-1 $363 $406 #
straight-curve $-1 6.985 5.3975 0 0 0 -1 #
coedge $-1 $309 $324 $368 $407 1 $300 $-1 #
vertex $-1 $310 $408 #
coedge $-1 $409 $311 $366 $407 0 $195 $-1 #
straight-curve $-1 9.15634133369004 4.17540622299508 -5.08 -0.5188607177146 0.854858792791354 0 #
point $-1 9.15634133369004 4.17540622299508 -5.08 #
cone-surface $-1 2.14270722526908 2.2225 0 0 0 -1 0 -1.27 0 1 0 -1 0 #
edge $-1 $377 $364 $361 $405 1 #
coedge $-1 $316 $410 $411 $412 0 $195 $-1 #
coedge $-1 $380 $379 $316 $375 1 $381 $-1 #
edge $-1 $413 $376 $374 $414 1 #
vertex $-1 $384 $415 #
vertex $-1 $328 $416 #
straight-curve $-1 3.2283778921141 1.56354688850246 -5.08 -0.5188607177146 -0.854858792791354 -0 #
coedge $-1 $374 $319 $321 $384 0 $381 $-1 #
coedge $-1 $319 $374 $385 $417 1 $381 $-1 #
loop $-1 $-1 $319 $390 #
vertex $-1 $417 $418 #
intcurve-curve $-1 0 surfint nubs 3 open 5 
	3.42190127841349 3 3.68213010686533 3 3.97004338129367 3 4.39250135533956 3 4.81495932938546 3 
	3.2283778921141 1.56354688850246 -4.12704806630356 
	3.18288719440346 1.48859782876357 -4.12421886662603 
	3.12714684574638 1.4151758927265 -4.10767253390033 
	3.06573756503356 1.35019558531765 -4.08149203285977 
	2.99779525750559 1.2783023473903 -4.05252631900859 
	2.92284556607375 1.21666086105874 -4.01192098457971 
	2.8513219741151 1.16857156897734 -3.9697043269721 
	2.74637470547898 1.09800967860827 -3.90775941081874 
	2.62716308140156 1.04163317329736 -3.82947519555577 
	2.50500789424672 1.00527437372586 -3.74595279661088 
	2.38285270709189 0.968915574154367 -3.66243039766598 
	2.25768572240045 0.9525 -3.57380207501223 
	2.14270722526908 0.9525 -3.4925 
	0.001 
	cone 0 1.5875 -3.4925 1 0 0 0 8.88178419700125e-16 -0.635 1 0 -1 0 
	cone 2.14270722526908 2.2225 0 0 0 -1 0 -1.27 0 1 0 -1 0 
	nullbs 
	nullbs 
	#
edge $-1 $266 $376 $379 $358 0 #
coedge $-1 $411 $322 $380 $417 0 $351 $-1 #
coedge $-1 $322 $419 $324 $388 1 $351 $-1 #
straight-curve $-1 0 0.9525 -3.4925 1 0 0 #
edge $-1 $325 $420 $324 $403 0 #
point $-1 11.8272927747309 0.9525 -3.4925 #
face $-1 $421 $381 $4 $-1 $371 0 #
coedge $-1 $422 $332 $400 $423 0 $160 $-1 #
edge $-1 $357 $424 $356 $425 1 #
point $-1 6.985 5.3975 -5.55111512312578e-16 #
edge $-1 $424 $338 $350 $426 0 #
point $-1 2.14270722526908 0.9525 -1.5875 #
coedge $-1 $343 $427 $399 $428 0 $160 $-1 #
edge $-1 $402 $344 $347 $429 1 #
point $-1 10.7416221078859 1.56354688850246 0 #
coedge $-1 $430 $349 $396 $428 1 $351 $-1 #
coedge $-1 $350 $431 $391 $423 1 $351 $-1 #
face $-1 $307 $351 $4 $-1 $432 0 #
vertex $-1 $397 $433 #
straight-curve $-1 11.8272927747309 0.952500000000001 0 0 0 -1 #
point $-1 3.2283778921141 1.56354688850246 0 #
ellipse-curve $-1 6.985 2.8575 -5.08 0 0 1 -2.17134133369004 1.31790622299508 0 1 #
point $-1 6.985 5.3975 -5.08 #
edge $-1 $367 $420 $366 $434 1 #
point $-1 10.7416221078859 1.56354688850246 -5.08 #
coedge $-1 $435 $368 $419 $436 0 $195 $-1 #
coedge $-1 $373 $437 $438 $439 0 $195 $-1 #
coedge $-1 $431 $385 $373 $412 1 $351 $-1 #
edge $-1 $440 $413 $411 $441 1 #
vertex $-1 $417 $442 #
ellipse-curve $-1 2.14270722526908 2.2225 -5.08 0 0 -1 0 -1.27 0 1 #
point $-1 3.2283778921141 1.56354688850246 -5.08 #
point $-1 4.81365866630996 4.17540622299508 -5.08 #
edge $-1 $382 $413 $385 $426 0 #
point $-1 2.14270722526908 0.9525 -3.4925 #
coedge $-1 $386 $430 $409 $436 1 $351 $-1 #
vertex $-1 $388 $443 #
face $-1 $444 $445 $4 $-1 $446 0 #
coedge $-1 $447 $391 $448 $449 0 $160 $-1 #
edge $-1 $424 $450 $400 $451 1 #
vertex $-1 $423 $452 #
ellipse-curve $-1 2.14270722526908 2.2225 0 -0 0 1 0 -1.27 0 1 #
straight-curve $-1 2.14270722526908 0.9525 0 0 0 -1 #
coedge $-1 $396 $447 $453 $454 0 $160 $-1 #
edge $-1 $455 $402 $399 $456 1 #
ellipse-curve $-1 11.8272927747309 2.2225 0 0 0 1 -1.08567066684502 -0.658953111497542 0 1 #
coedge $-1 $419 $399 $457 $458 1 $351 $-1 #
coedge $-1 $400 $411 $459 $460 1 $351 $-1 #
plane-surface $-1 13.97 0.9525 0 -0 1 0 0 -0 1 0 #
point $-1 11.8272927747309 0.952500000000001 0 #
ellipse-curve $-1 11.8272927747309 2.2225 -5.08 -0 -0 -1 -1.08567066684502 -0.658953111497542 0 1 #
coedge $-1 $437 $409 $461 $462 0 $195 $-1 #
edge $-1 $420 $463 $419 $464 1 #
coedge $-1 $410 $435 $465 $466 0 $195 $-1 #
coedge $-1 $467 $459 $410 $439 1 $445 $-1 #
edge $-1 $468 $440 $438 $469 1 #
vertex $-1 $460 $470 #
straight-curve $-1 0 0.9525 -5.08 -1 -0 -0 #
point $-1 2.14270722526908 0.9525 -5.08 #
point $-1 11.8272927747309 0.952500000000001 -5.08 #
face $-1 $471 $472 $4 $-1 $473 0 #
loop $-1 $-1 $438 $421 #
plane-surface $-1 0 0.9525 0 -1 0 0 0 -0 1 0 #
coedge $-1 $427 $422 $474 $475 1 $160 $-1 #
coedge $-1 $459 $467 $422 $449 1 $445 $-1 #
edge $-1 $450 $476 $448 $477 1 #
vertex $-1 $449 $478 #
straight-curve $-1 0 0.9525 0 1 0 0 #
point $-1 2.14270722526908 0.9525 0 #
coedge $-1 $479 $457 $427 $454 1 $480 $-1 #
edge $-1 $481 $455 $453 $482 1 #
vertex $-1 $428 $483 #
straight-curve $-1 11.8272927747309 0.9525 0 1 0 0 #
coedge $-1 $453 $461 $430 $458 0 $480 $-1 #
edge $-1 $463 $455 $430 $484 1 #
coedge $-1 $438 $448 $431 $460 0 $445 $-1 #
edge $-1 $450 $440 $459 $485 0 #
coedge $-1 $457 $479 $435 $462 1 $480 $-1 #
edge $-1 $463 $486 $461 $487 1 #
vertex $-1 $458 $488 #
straight-curve $-1 11.8272927747309 0.9525 -5.08 -1 -0 -0 #
coedge $-1 $489 $490 $437 $466 1 $472 $-1 #
edge $-1 $486 $468 $465 $491 1 #
coedge $-1 $448 $438 $490 $492 1 $445 $-1 #
vertex $-1 $492 $493 #
straight-curve $-1 0 0 -5.08 -0 -1 -0 #
point $-1 0 0.9525 -5.08 #
face $-1 $401 $480 $4 $-1 $494 0 #
loop $-1 $-1 $465 $444 #
plane-surface $-1 0 0 0 -0 -1 -0 0 0 -1 0 #
coedge $-1 $490 $489 $447 $475 0 $472 $-1 #
edge $-1 $481 $476 $474 $495 0 #
vertex $-1 $475 $496 #
straight-curve $-1 0 0 0 0 1 0 #
point $-1 0 0.9525 0 #
coedge $-1 $461 $453 $489 $497 1 $480 $-1 #
loop $-1 $-1 $461 $471 #
vertex $-1 $454 $498 #
straight-curve $-1 13.97 0.9525 0 0 -1 0 #
point $-1 13.97 0.9525 0 #
straight-curve $-1 13.97 0.9525 0 0 0 -1 #
straight-curve $-1 0 0.9525 0 0 0 -1 #
vertex $-1 $497 $499 #
straight-curve $-1 13.97 0.9525 -5.08 0 1 0 #
point $-1 13.97 0.9525 -5.08 #
coedge $-1 $474 $465 $479 $497 0 $472 $-1 #
coedge $-1 $465 $474 $467 $492 0 $472 $-1 #
straight-curve $-1 13.97 0 -5.08 1 0 0 #
edge $-1 $476 $468 $490 $500 0 #
point $-1 0 0 -5.08 #
plane-surface $-1 13.97 0 0 1 0 0 0 0 -1 0 #
straight-curve $-1 13.97 0 0 -1 0 0 #
point $-1 0 0 0 #
edge $-1 $486 $481 $479 $501 1 #
point $-1 13.97 0 0 #
point $-1 13.97 0 -5.08 #
straight-curve $-1 0 0 0 0 0 -1 #
straight-curve $-1 13.97 0 0 0 0 -1 #
