104 390 0 0                             
body $1 $2 $-1 $-1 #
f_body-lwd-attrib $-1 $3 $-1 $0 #
lump $-1 $-1 $4 $0 #
ref_vt-lwd-attrib $-1 $-1 $1 $0 $5 $-1 #
shell $-1 $-1 $-1 $6 $2 #
refinement $-1 0 10 0 0 0.538815379142761 30 0 0 0 #
face $-1 $7 $8 $4 $-1 $9 0 #
face $-1 $10 $11 $4 $-1 $12 0 #
loop $-1 $-1 $13 $6 #
spline-surface $-1 0 exact nurbs 2 1 both open open none none 2 2 
	0 2 1 2 
	0 1 1 1 
	2.54 -2.54 -6.985 1 
	2.54 -2.54 -5.08 1 
	2.54 -2.54 -3.175 1 
	2.69407683632074 -5.08 -7.77407683632074 1 
	5.38815367264149 -5.08 -5.08 0.707106781186548 
	2.69407683632074 -5.08 -2.38592316367926 1 
	0 
	#
face $-1 $14 $15 $4 $-1 $16 0 #
loop $-1 $-1 $17 $7 #
spline-surface $-1 0 exact nurbs 2 1 both open open none none 2 2 
	0 2 1 2 
	0 1 1 1 
	2.54 -2.54 -3.175 1 
	0 -2.54 -3.175 1 
	-2.54 -2.54 -3.175 1 
	2.69407683632074 -5.08 -2.38592316367926 1 
	0 -5.08 0.308153672641486 0.707106781186548 
	-2.69407683632074 -5.08 -2.38592316367926 1 
	0 
	#
coedge $-1 $18 $19 $20 $21 1 $8 $22 #
face $-1 $23 $24 $4 $-1 $25 0 #
loop $-1 $-1 $26 $10 #
spline-surface $-1 0 exact nurbs 2 1 both open open none none 2 2 
	0 2 1 2 
	0 1 1 1 
	-2.54 -2.54 -3.175 1 
	-2.54 -2.54 -5.08 1 
	-2.54 -2.54 -6.985 1 
	-2.69407683632074 -5.08 -2.38592316367926 1 
	-5.38815367264149 -5.08 -5.08 0.707106781186548 
	-2.69407683632074 -5.08 -7.77407683632074 1 
	0 
	#
coedge $-1 $27 $28 $29 $30 1 $11 $31 #
coedge $-1 $32 $13 $28 $33 0 $8 $34 #
coedge $-1 $13 $32 $35 $36 0 $8 $37 #
coedge $-1 $38 $39 $13 $21 0 $40 $-1 #
edge $-1 $41 $42 $20 $43 0 #
pcurve $-1 0 0 nubs 1 open 2 
	0 1 1 1 
	0 0 
	1 0 
	0 
	spline 0 exact nurbs 2 1 both open open none none 2 2 
	0 2 1 2 
	0 1 1 1 
	2.54 -2.54 -6.985 1 
	2.54 -2.54 -5.08 1 
	2.54 -2.54 -3.175 1 
	2.69407683632074 -5.08 -7.77407683632074 1 
	5.38815367264149 -5.08 -5.08 0.707106781186548 
	2.69407683632074 -5.08 -2.38592316367926 1 
	0 
	
	#
face $-1 $44 $45 $4 $-1 $46 1 #
loop $-1 $-1 $47 $14 #
spline-surface $-1 0 exact nurbs 2 1 both open open none none 2 2 
	0 2 1 2 
	0 1 1 1 
	-2.54 -2.54 -6.985 1 
	0 -2.54 -6.985 1 
	2.54 -2.54 -6.985 1 
	-2.69407683632074 -5.08 -7.77407683632074 1 
	0 -5.08 -10.4681536726415 0.707106781186548 
	2.69407683632074 -5.08 -7.77407683632074 1 
	0 
	#
coedge $-1 $48 $49 $50 $51 1 $15 $52 #
coedge $-1 $53 $17 $49 $54 0 $11 $55 #
coedge $-1 $17 $53 $18 $33 1 $11 $56 #
coedge $-1 $57 $58 $17 $30 0 $59 $-1 #
edge $-1 $60 $41 $29 $61 0 #
pcurve $-1 0 0 nubs 1 open 2 
	0 1 1 1 
	0 0 
	1 0 
	0 
	spline 0 exact nurbs 2 1 both open open none none 2 2 
	0 2 1 2 
	0 1 1 1 
	2.54 -2.54 -3.175 1 
	0 -2.54 -3.175 1 
	-2.54 -2.54 -3.175 1 
	2.69407683632074 -5.08 -2.38592316367926 1 
	0 -5.08 0.308153672641486 0.707106781186548 
	-2.69407683632074 -5.08 -2.38592316367926 1 
	0 
	
	#
coedge $-1 $19 $18 $62 $63 0 $8 $64 #
edge $-1 $41 $65 $18 $66 0 #
pcurve $-1 0 0 nubs 1 open 2 
	0 1 1 1 
	1 0 
	1 1 
	0 
	spline 0 exact nurbs 2 1 both open open none none 2 2 
	0 2 1 2 
	0 1 1 1 
	2.54 -2.54 -6.985 1 
	2.54 -2.54 -5.08 1 
	2.54 -2.54 -3.175 1 
	2.69407683632074 -5.08 -7.77407683632074 1 
	5.38815367264149 -5.08 -5.08 0.707106781186548 
	2.69407683632074 -5.08 -2.38592316367926 1 
	0 
	
	#
coedge $-1 $67 $47 $19 $36 1 $24 $68 #
edge $-1 $69 $42 $19 $70 1 #
pcurve $-1 0 1 nubs 1 open 2 
	0 1 1 1 
	0 0 
	0 1 
	0 
	spline 0 exact nurbs 2 1 both open open none none 2 2 
	0 2 1 2 
	0 1 1 1 
	2.54 -2.54 -6.985 1 
	2.54 -2.54 -5.08 1 
	2.54 -2.54 -3.175 1 
	2.69407683632074 -5.08 -7.77407683632074 1 
	5.38815367264149 -5.08 -5.08 0.707106781186548 
	2.69407683632074 -5.08 -2.38592316367926 1 
	0 
	
	#
coedge $-1 $71 $20 $72 $73 1 $40 $-1 #
coedge $-1 $20 $74 $57 $75 1 $40 $-1 #
loop $-1 $-1 $39 $76 #
vertex $-1 $75 $77 #
vertex $-1 $21 $78 #
straight-curve $-1 2.54 -2.54 0 0 0 -1 #
face $-1 $79 $80 $4 $-1 $81 1 #
loop $-1 $-1 $62 $23 #
plane-surface $-1 2.69407683632074 -5.08 -2.38592316367926 -0 1 4.4665595192999e-17 0 -4.4665595192999e-17 1 0 #
coedge $-1 $35 $82 $83 $84 1 $24 $85 #
coedge $-1 $86 $26 $82 $87 0 $15 $88 #
coedge $-1 $26 $86 $27 $54 1 $15 $89 #
coedge $-1 $90 $91 $26 $51 0 $92 $-1 #
edge $-1 $93 $60 $50 $94 1 #
pcurve $-1 0 0 nubs 1 open 2 
	0 1 1 1 
	0 0 
	1 0 
	0 
	spline 0 exact nurbs 2 1 both open open none none 2 2 
	0 2 1 2 
	0 1 1 1 
	-2.54 -2.54 -3.175 1 
	-2.54 -2.54 -5.08 1 
	-2.54 -2.54 -6.985 1 
	-2.69407683632074 -5.08 -2.38592316367926 1 
	-5.38815367264149 -5.08 -5.08 0.707106781186548 
	-2.69407683632074 -5.08 -7.77407683632074 1 
	0 
	
	#
coedge $-1 $28 $27 $95 $96 0 $11 $97 #
edge $-1 $60 $98 $27 $99 0 #
pcurve $-1 0 0 nubs 1 open 2 
	0 1 1 1 
	1 0 
	1 1 
	0 
	spline 0 exact nurbs 2 1 both open open none none 2 2 
	0 2 1 2 
	0 1 1 1 
	2.54 -2.54 -3.175 1 
	0 -2.54 -3.175 1 
	-2.54 -2.54 -3.175 1 
	2.69407683632074 -5.08 -2.38592316367926 1 
	0 -5.08 0.308153672641486 0.707106781186548 
	-2.69407683632074 -5.08 -2.38592316367926 1 
	0 
	
	#
pcurve $-1 0 1 nubs 1 open 2 
	0 1 1 1 
	0 0 
	0 1 
	0 
	spline 0 exact nurbs 2 1 both open open none none 2 2 
	0 2 1 2 
	0 1 1 1 
	2.54 -2.54 -3.175 1 
	0 -2.54 -3.175 1 
	-2.54 -2.54 -3.175 1 
	2.69407683632074 -5.08 -2.38592316367926 1 
	0 -5.08 0.308153672641486 0.707106781186548 
	-2.69407683632074 -5.08 -2.38592316367926 1 
	0 
	
	#
coedge $-1 $100 $29 $39 $75 0 $59 $-1 #
coedge $-1 $29 $100 $90 $101 0 $59 $-1 #
loop $-1 $-1 $58 $102 #
vertex $-1 $101 $103 #
straight-curve $-1 2.54 -2.54 -3.175 1 0 0 #
coedge $-1 $95 $104 $32 $63 1 $45 $-1 #
edge $-1 $65 $69 $32 $105 1 #
pcurve $-1 0 1 nubs 1 open 2 
	0 1 1 1 
	0 1 
	1 1 
	0 
	spline 0 exact nurbs 2 1 both open open none none 2 2 
	0 2 1 2 
	0 1 1 1 
	2.54 -2.54 -6.985 1 
	2.54 -2.54 -5.08 1 
	2.54 -2.54 -3.175 1 
	2.69407683632074 -5.08 -7.77407683632074 1 
	5.38815367264149 -5.08 -5.08 0.707106781186548 
	2.69407683632074 -5.08 -2.38592316367926 1 
	0 
	
	#
vertex $-1 $33 $106 #
intcurve-curve $-1 0 exact nurbs 1 open 2 
	0 1 1 1 
	2.54 -2.54 -3.175 1 
	2.69407683632074 -5.08 -2.38592316367926 1 
	0 
	spline 0 exact nurbs 2 1 both open open none none 2 2 
	0 2 1 2 
	0 1 1 1 
	2.54 -2.54 -3.175 1 
	0 -2.54 -3.175 1 
	-2.54 -2.54 -3.175 1 
	2.69407683632074 -5.08 -2.38592316367926 1 
	0 -5.08 0.308153672641486 0.707106781186548 
	-2.69407683632074 -5.08 -2.38592316367926 1 
	0 
	
	null_surface 
	nullbs 
	nullbs 
	#
coedge $-1 $82 $35 $104 $107 0 $24 $108 #
pcurve $-1 0 0 nubs 1 open 2 
	0 1 1 1 
	1 0 
	1 1 
	0 
	spline 0 exact nurbs 2 1 both open open none none 2 2 
	0 2 1 2 
	0 1 1 1 
	-2.54 -2.54 -6.985 1 
	0 -2.54 -6.985 1 
	2.54 -2.54 -6.985 1 
	-2.69407683632074 -5.08 -7.77407683632074 1 
	0 -5.08 -10.4681536726415 0.707106781186548 
	2.69407683632074 -5.08 -7.77407683632074 1 
	0 
	
	#
vertex $-1 $63 $109 #
intcurve-curve $-1 0 exact nurbs 1 open 2 
	0 1 1 1 
	2.54 -2.54 -6.985 1 
	2.69407683632074 -5.08 -7.77407683632074 1 
	0 
	spline 0 exact nurbs 2 1 both open open none none 2 2 
	0 2 1 2 
	0 1 1 1 
	2.54 -2.54 -6.985 1 
	2.54 -2.54 -5.08 1 
	2.54 -2.54 -3.175 1 
	2.69407683632074 -5.08 -7.77407683632074 1 
	5.38815367264149 -5.08 -5.08 0.707106781186548 
	2.69407683632074 -5.08 -2.38592316367926 1 
	0 
	
	null_surface 
	nullbs 
	nullbs 
	#
coedge $-1 $110 $38 $111 $112 0 $40 $-1 #
coedge $-1 $83 $113 $38 $73 0 $114 $-1 #
edge $-1 $115 $42 $38 $116 0 #
coedge $-1 $39 $117 $118 $119 0 $40 $-1 #
edge $-1 $41 $120 $39 $121 0 #
face $-1 $122 $40 $4 $-1 $123 0 #
point $-1 2.54 -2.54 -3.175 #
point $-1 2.54 -2.54 -6.985 #
face $-1 $124 $125 $4 $-1 $81 1 #
loop $-1 $-1 $126 $44 #
cone-surface $-1 0 5.08 -5.40878201513364 0 0 -1 0 1.74625 0 1 0 1 0 #
coedge $-1 $47 $67 $48 $87 1 $24 $127 #
coedge $-1 $128 $72 $47 $84 0 $114 $-1 #
edge $-1 $42 $93 $83 $129 0 #
pcurve $-1 0 0 nubs 1 open 2 
	0 1 1 1 
	0 0 
	1 0 
	0 
	spline 0 exact nurbs 2 1 both open open none none 2 2 
	0 2 1 2 
	0 1 1 1 
	-2.54 -2.54 -6.985 1 
	0 -2.54 -6.985 1 
	2.54 -2.54 -6.985 1 
	-2.69407683632074 -5.08 -7.77407683632074 1 
	0 -5.08 -10.4681536726415 0.707106781186548 
	2.69407683632074 -5.08 -7.77407683632074 1 
	0 
	
	#
coedge $-1 $49 $48 $130 $131 0 $15 $132 #
edge $-1 $93 $133 $48 $134 0 #
pcurve $-1 0 0 nubs 1 open 2 
	0 1 1 1 
	1 0 
	1 1 
	0 
	spline 0 exact nurbs 2 1 both open open none none 2 2 
	0 2 1 2 
	0 1 1 1 
	-2.54 -2.54 -3.175 1 
	-2.54 -2.54 -5.08 1 
	-2.54 -2.54 -6.985 1 
	-2.69407683632074 -5.08 -2.38592316367926 1 
	-5.38815367264149 -5.08 -5.08 0.707106781186548 
	-2.69407683632074 -5.08 -7.77407683632074 1 
	0 
	
	#
pcurve $-1 0 1 nubs 1 open 2 
	0 1 1 1 
	0 0 
	0 1 
	0 
	spline 0 exact nurbs 2 1 both open open none none 2 2 
	0 2 1 2 
	0 1 1 1 
	-2.54 -2.54 -3.175 1 
	-2.54 -2.54 -5.08 1 
	-2.54 -2.54 -6.985 1 
	-2.69407683632074 -5.08 -2.38592316367926 1 
	-5.38815367264149 -5.08 -5.08 0.707106781186548 
	-2.69407683632074 -5.08 -7.77407683632074 1 
	0 
	
	#
coedge $-1 $135 $50 $58 $101 1 $92 $-1 #
coedge $-1 $50 $136 $128 $137 1 $92 $-1 #
loop $-1 $-1 $90 $138 #
vertex $-1 $51 $139 #
straight-curve $-1 -2.54 -2.54 0 0 0 -1 #
coedge $-1 $130 $62 $53 $96 1 $45 $-1 #
edge $-1 $98 $65 $53 $140 1 #
pcurve $-1 0 1 nubs 1 open 2 
	0 1 1 1 
	0 1 
	1 1 
	0 
	spline 0 exact nurbs 2 1 both open open none none 2 2 
	0 2 1 2 
	0 1 1 1 
	2.54 -2.54 -3.175 1 
	0 -2.54 -3.175 1 
	-2.54 -2.54 -3.175 1 
	2.69407683632074 -5.08 -2.38592316367926 1 
	0 -5.08 0.308153672641486 0.707106781186548 
	-2.69407683632074 -5.08 -2.38592316367926 1 
	0 
	
	#
vertex $-1 $54 $141 #
intcurve-curve $-1 0 exact nurbs 1 open 2 
	0 1 1 1 
	-2.54 -2.54 -3.175 1 
	-2.69407683632074 -5.08 -2.38592316367926 1 
	0 
	spline 0 exact nurbs 2 1 both open open none none 2 2 
	0 2 1 2 
	0 1 1 1 
	-2.54 -2.54 -3.175 1 
	-2.54 -2.54 -5.08 1 
	-2.54 -2.54 -6.985 1 
	-2.69407683632074 -5.08 -2.38592316367926 1 
	-5.38815367264149 -5.08 -5.08 0.707106781186548 
	-2.69407683632074 -5.08 -7.77407683632074 1 
	0 
	
	null_surface 
	nullbs 
	nullbs 
	#
coedge $-1 $58 $57 $142 $143 0 $59 $-1 #
edge $-1 $144 $60 $90 $145 0 #
face $-1 $138 $59 $4 $-1 $146 0 #
point $-1 -2.54 -2.54 -3.175 #
coedge $-1 $62 $130 $67 $107 1 $45 $-1 #
intcurve-curve $-1 0 exact nurbs 2 open 2 
	0 2 1 2 
	2.69407683632074 -5.08 -7.77407683632074 1 
	5.38815367264149 -5.08 -5.08 0.707106781186548 
	2.69407683632074 -5.08 -2.38592316367926 1 
	0 
	spline 0 exact nurbs 2 1 both open open none none 2 2 
	0 2 1 2 
	0 1 1 1 
	2.54 -2.54 -6.985 1 
	2.54 -2.54 -5.08 1 
	2.54 -2.54 -3.175 1 
	2.69407683632074 -5.08 -7.77407683632074 1 
	5.38815367264149 -5.08 -5.08 0.707106781186548 
	2.69407683632074 -5.08 -2.38592316367926 1 
	0 
	
	null_surface 
	nullbs 
	nullbs 
	#
point $-1 2.69407683632074 -5.08 -2.38592316367926 #
edge $-1 $69 $133 $67 $147 1 #
pcurve $-1 0 1 nubs 1 open 2 
	0 1 1 1 
	0 1 
	1 1 
	0 
	spline 0 exact nurbs 2 1 both open open none none 2 2 
	0 2 1 2 
	0 1 1 1 
	-2.54 -2.54 -6.985 1 
	0 -2.54 -6.985 1 
	2.54 -2.54 -6.985 1 
	-2.69407683632074 -5.08 -7.77407683632074 1 
	0 -5.08 -10.4681536726415 0.707106781186548 
	2.69407683632074 -5.08 -7.77407683632074 1 
	0 
	
	#
point $-1 2.69407683632074 -5.08 -7.77407683632074 #
coedge $-1 $148 $71 $149 $150 1 $40 $-1 #
coedge $-1 $151 $152 $71 $112 1 $153 $-1 #
edge $-1 $115 $154 $71 $155 0 #
coedge $-1 $72 $128 $151 $156 0 $114 $-1 #
loop $-1 $-1 $72 $157 #
vertex $-1 $156 $158 #
ellipse-curve $-1 2.54 0.635 -6.985 -1 -0 -0 0 -2.24506403026729 -2.24506403026729 1 #
coedge $-1 $74 $159 $160 $161 1 $40 $-1 #
coedge $-1 $162 $142 $74 $119 1 $163 $-1 #
edge $-1 $164 $120 $74 $165 0 #
vertex $-1 $119 $166 #
ellipse-curve $-1 2.54 0.635 -3.175 -1 -0 -0 0 -2.24506403026729 2.24506403026729 1 #
face $-1 $167 $168 $4 $-1 $169 0 #
plane-surface $-1 2.54 -2.54 0 1 0 0 0 0 -1 0 #
face $-1 $170 $171 $4 $-1 $81 1 #
loop $-1 $-1 $172 $79 #
coedge $-1 $173 $174 $175 $176 1 $80 $-1 #
pcurve $-1 0 1 nubs 1 open 2 
	0 1 1 1 
	0 0 
	0 1 
	0 
	spline 0 exact nurbs 2 1 both open open none none 2 2 
	0 2 1 2 
	0 1 1 1 
	-2.54 -2.54 -6.985 1 
	0 -2.54 -6.985 1 
	2.54 -2.54 -6.985 1 
	-2.69407683632074 -5.08 -7.77407683632074 1 
	0 -5.08 -10.4681536726415 0.707106781186548 
	2.69407683632074 -5.08 -7.77407683632074 1 
	0 
	
	#
coedge $-1 $113 $83 $91 $137 0 $114 $-1 #
straight-curve $-1 2.54 -2.54 -6.985 -1 -0 -0 #
coedge $-1 $104 $95 $86 $131 1 $45 $-1 #
edge $-1 $133 $98 $86 $177 1 #
pcurve $-1 0 1 nubs 1 open 2 
	0 1 1 1 
	0 1 
	1 1 
	0 
	spline 0 exact nurbs 2 1 both open open none none 2 2 
	0 2 1 2 
	0 1 1 1 
	-2.54 -2.54 -3.175 1 
	-2.54 -2.54 -5.08 1 
	-2.54 -2.54 -6.985 1 
	-2.69407683632074 -5.08 -2.38592316367926 1 
	-5.38815367264149 -5.08 -5.08 0.707106781186548 
	-2.69407683632074 -5.08 -7.77407683632074 1 
	0 
	
	#
vertex $-1 $87 $178 #
intcurve-curve $-1 0 exact nurbs 1 open 2 
	0 1 1 1 
	-2.54 -2.54 -6.985 1 
	-2.69407683632074 -5.08 -7.77407683632074 1 
	0 
	spline 0 exact nurbs 2 1 both open open none none 2 2 
	0 2 1 2 
	0 1 1 1 
	-2.54 -2.54 -6.985 1 
	0 -2.54 -6.985 1 
	2.54 -2.54 -6.985 1 
	-2.69407683632074 -5.08 -7.77407683632074 1 
	0 -5.08 -10.4681536726415 0.707106781186548 
	2.69407683632074 -5.08 -7.77407683632074 1 
	0 
	
	null_surface 
	nullbs 
	nullbs 
	#
coedge $-1 $179 $90 $180 $181 0 $92 $-1 #
coedge $-1 $91 $182 $183 $184 0 $92 $-1 #
edge $-1 $93 $185 $91 $186 0 #
face $-1 $187 $92 $4 $-1 $188 0 #
point $-1 -2.54 -2.54 -6.985 #
intcurve-curve $-1 0 exact nurbs 2 open 2 
	0 2 1 2 
	2.69407683632074 -5.08 -2.38592316367926 1 
	0 -5.08 0.308153672641486 0.707106781186548 
	-2.69407683632074 -5.08 -2.38592316367926 1 
	0 
	spline 0 exact nurbs 2 1 both open open none none 2 2 
	0 2 1 2 
	0 1 1 1 
	2.54 -2.54 -3.175 1 
	0 -2.54 -3.175 1 
	-2.54 -2.54 -3.175 1 
	2.69407683632074 -5.08 -2.38592316367926 1 
	0 -5.08 0.308153672641486 0.707106781186548 
	-2.69407683632074 -5.08 -2.38592316367926 1 
	0 
	
	null_surface 
	nullbs 
	nullbs 
	#
point $-1 -2.69407683632074 -5.08 -2.38592316367926 #
coedge $-1 $118 $180 $100 $143 1 $163 $-1 #
edge $-1 $120 $144 $142 $189 0 #
vertex $-1 $143 $190 #
ellipse-curve $-1 -2.54 0.635 -3.175 1 -0 -0 0 -2.24506403026729 2.24506403026729 1 #
cone-surface $-1 0 0.635 -3.175 -1 0 0 0 -2.24506403026729 2.24506403026729 1 0 1 0 #
intcurve-curve $-1 0 exact nurbs 2 open 2 
	0 2 1 2 
	-2.69407683632074 -5.08 -7.77407683632074 1 
	0 -5.08 -10.4681536726415 0.707106781186548 
	2.69407683632074 -5.08 -7.77407683632074 1 
	0 
	spline 0 exact nurbs 2 1 both open open none none 2 2 
	0 2 1 2 
	0 1 1 1 
	-2.54 -2.54 -6.985 1 
	0 -2.54 -6.985 1 
	2.54 -2.54 -6.985 1 
	-2.69407683632074 -5.08 -7.77407683632074 1 
	0 -5.08 -10.4681536726415 0.707106781186548 
	2.69407683632074 -5.08 -7.77407683632074 1 
	0 
	
	null_surface 
	nullbs 
	nullbs 
	#
coedge $-1 $191 $110 $192 $193 0 $40 $-1 #
coedge $-1 $194 $195 $110 $150 0 $196 $-1 #
edge $-1 $197 $154 $149 $198 0 #
coedge $-1 $183 $111 $113 $156 1 $153 $-1 #
coedge $-1 $111 $183 $194 $199 1 $153 $-1 #
loop $-1 $-1 $151 $122 #
vertex $-1 $150 $200 #
straight-curve $-1 2.54 5.08 -10.16 0 1 0 #
edge $-1 $185 $115 $151 $201 0 #
face $-1 $76 $114 $4 $-1 $202 0 #
point $-1 2.54 0.635 -10.16 #
coedge $-1 $117 $203 $204 $205 0 $40 $-1 #
coedge $-1 $206 $207 $117 $161 0 $208 $-1 #
edge $-1 $164 $209 $160 $198 0 #
coedge $-1 $180 $118 $207 $210 1 $163 $-1 #
loop $-1 $-1 $142 $187 #
vertex $-1 $210 $211 #
straight-curve $-1 2.54 5.08 0 0 -1 0 #
point $-1 2.54 0.635 0 #
face $-1 $212 $213 $4 $-1 $214 0 #
loop $-1 $153 $215 $122 #
plane-surface $-1 0 2.54 -10.16 0 0 -1 -1 0 0 0 #
face $-1 $102 $216 $4 $-1 $81 1 #
loop $-1 $-1 $217 $124 #
coedge $-1 $218 $219 $220 $221 1 $125 $-1 #
coedge $-1 $222 $126 $223 $224 1 $80 $-1 #
coedge $-1 $126 $222 $225 $226 1 $80 $-1 #
coedge $-1 $215 $215 $126 $176 0 $168 $-1 #
edge $-1 $227 $228 $175 $229 0 #
intcurve-curve $-1 0 exact nurbs 2 open 2 
	0 2 1 2 
	-2.69407683632074 -5.08 -2.38592316367926 1 
	-5.38815367264149 -5.08 -5.08 0.707106781186548 
	-2.69407683632074 -5.08 -7.77407683632074 1 
	0 
	spline 0 exact nurbs 2 1 both open open none none 2 2 
	0 2 1 2 
	0 1 1 1 
	-2.54 -2.54 -3.175 1 
	-2.54 -2.54 -5.08 1 
	-2.54 -2.54 -6.985 1 
	-2.69407683632074 -5.08 -2.38592316367926 1 
	-5.38815367264149 -5.08 -5.08 0.707106781186548 
	-2.69407683632074 -5.08 -7.77407683632074 1 
	0 
	
	null_surface 
	nullbs 
	nullbs 
	#
point $-1 -2.69407683632074 -5.08 -7.77407683632074 #
coedge $-1 $230 $135 $231 $232 0 $92 $-1 #
coedge $-1 $142 $162 $135 $181 1 $163 $-1 #
edge $-1 $144 $233 $135 $234 0 #
coedge $-1 $136 $235 $236 $237 0 $92 $-1 #
coedge $-1 $152 $151 $136 $184 1 $153 $-1 #
edge $-1 $238 $185 $136 $239 0 #
vertex $-1 $184 $240 #
ellipse-curve $-1 -2.54 0.635 -6.985 1 -0 -0 0 -2.24506403026729 -2.24506403026729 1 #
face $-1 $157 $241 $4 $-1 $242 0 #
plane-surface $-1 -2.54 5.08 0 -1 0 0 0 -0 1 0 #
straight-curve $-1 2.54 0.635 0 -1 0 0 #
point $-1 -2.54 0.635 0 #
coedge $-1 $243 $148 $244 $245 1 $40 $-1 #
coedge $-1 $246 $247 $148 $193 1 $248 $-1 #
edge $-1 $197 $249 $148 $250 0 #
coedge $-1 $236 $149 $152 $199 0 $196 $-1 #
coedge $-1 $149 $251 $246 $252 0 $196 $-1 #
loop $-1 $-1 $195 $253 #
vertex $-1 $252 $254 #
straight-curve $-1 2.54 5.08 0 0 0 -1 #
edge $-1 $154 $238 $194 $255 0 #
point $-1 2.54 5.08 -10.16 #
straight-curve $-1 2.54 0.635 -10.16 1 0 0 #
cone-surface $-1 0 0.635 -6.985 1 0 0 0 -2.24506403026729 -2.24506403026729 1 0 1 0 #
coedge $-1 $159 $243 $256 $257 1 $40 $-1 #
coedge $-1 $258 $259 $159 $205 1 $260 $-1 #
edge $-1 $261 $209 $159 $262 0 #
coedge $-1 $263 $160 $259 $264 0 $208 $-1 #
coedge $-1 $160 $231 $162 $210 0 $208 $-1 #
loop $-1 $-1 $206 $265 #
vertex $-1 $161 $266 #
edge $-1 $233 $164 $207 $267 0 #
point $-1 2.54 5.08 0 #
face $-1 $268 $269 $4 $-1 $270 0 #
loop $-1 $-1 $271 $167 #
cone-surface $-1 0 0.635 -6.985 -1 -0 -0 0 -1.34703841816037 -1.34703841816037 1 0 -1 0 #
coedge $-1 $175 $175 $217 $272 0 $168 $-1 #
loop $-1 $-1 $273 $170 #
coedge $-1 $225 $223 $215 $272 1 $171 $-1 #
coedge $-1 $274 $172 $275 $276 1 $125 $-1 #
coedge $-1 $172 $274 $277 $278 1 $125 $-1 #
coedge $-1 $279 $279 $172 $221 0 $241 $-1 #
edge $-1 $280 $281 $220 $282 0 #
coedge $-1 $174 $173 $283 $284 1 $80 $-1 #
coedge $-1 $217 $285 $173 $224 0 $171 $-1 #
edge $-1 $286 $227 $173 $287 0 #
coedge $-1 $285 $217 $174 $226 0 $171 $-1 #
edge $-1 $228 $288 $174 $289 0 #
vertex $-1 $272 $290 #
vertex $-1 $272 $291 #
ellipse-curve $-1 0 5.08 -10.16 -0 -0 1 0 1.74625 0 1 #
coedge $-1 $292 $179 $293 $294 0 $92 $-1 #
coedge $-1 $207 $263 $179 $232 1 $208 $-1 #
edge $-1 $233 $295 $179 $296 0 #
vertex $-1 $181 $297 #
straight-curve $-1 -2.54 -2.54 0 0 1 0 #
coedge $-1 $182 $298 $299 $300 0 $92 $-1 #
coedge $-1 $251 $194 $182 $237 1 $196 $-1 #
edge $-1 $301 $238 $182 $296 0 #
vertex $-1 $237 $302 #
straight-curve $-1 -2.54 -2.54 -10.16 -0 -1 -0 #
point $-1 -2.54 0.635 -10.16 #
loop $-1 $163 $279 $187 #
plane-surface $-1 -3.11050013870884e-17 2.54 0 0 0 1 1 0 0 0 #
coedge $-1 $203 $191 $303 $304 0 $40 $-1 #
coedge $-1 $305 $271 $191 $245 0 $213 $-1 #
edge $-1 $306 $249 $244 $307 0 #
coedge $-1 $308 $192 $195 $252 1 $248 $-1 #
coedge $-1 $192 $299 $305 $309 1 $248 $-1 #
loop $-1 $-1 $247 $212 #
vertex $-1 $193 $310 #
straight-curve $-1 2.54 0.3175 -8.89 0 -1 0 #
coedge $-1 $195 $236 $308 $311 0 $196 $-1 #
edge $-1 $312 $197 $195 $313 0 #
face $-1 $265 $196 $4 $-1 $314 0 #
point $-1 2.54 5.08 -8.89 #
ellipse-curve $-1 0 5.08 -10.16 0 0 1 -2.54 0 0 1 #
coedge $-1 $315 $316 $203 $257 0 $317 $-1 #
edge $-1 $261 $318 $256 $319 0 #
coedge $-1 $293 $204 $316 $320 1 $260 $-1 #
coedge $-1 $204 $321 $206 $264 1 $260 $-1 #
loop $-1 $-1 $258 $322 #
vertex $-1 $205 $323 #
straight-curve $-1 2.54 0.3175 -1.27 0 1 0 #
coedge $-1 $231 $206 $321 $324 0 $208 $-1 #
edge $-1 $209 $325 $206 $326 0 #
face $-1 $-1 $208 $4 $-1 $314 0 #
point $-1 2.54 5.08 -1.27 #
ellipse-curve $-1 0 5.08 0 0 0 -1 -2.54 0 0 1 #
face $-1 $322 $317 $4 $-1 $327 0 #
loop $-1 $248 $328 $212 #
plane-surface $-1 0 3.175 -8.89 0 0 1 1 0 0 0 #
coedge $-1 $244 $329 $330 $331 0 $213 $-1 #
edge $-1 $228 $227 $215 $332 0 #
coedge $-1 $277 $275 $279 $333 1 $216 $-1 #
coedge $-1 $219 $218 $334 $335 1 $125 $-1 #
coedge $-1 $273 $336 $218 $276 0 $216 $-1 #
edge $-1 $337 $280 $218 $289 0 #
coedge $-1 $336 $273 $219 $278 0 $216 $-1 #
edge $-1 $281 $338 $219 $287 0 #
coedge $-1 $220 $220 $273 $333 0 $241 $-1 #
vertex $-1 $333 $339 #
vertex $-1 $333 $340 #
ellipse-curve $-1 0 5.08 0 -0 -0 -1 0 1.74625 0 1 #
coedge $-1 $328 $328 $222 $284 0 $269 $-1 #
edge $-1 $288 $286 $283 $341 0 #
coedge $-1 $223 $225 $328 $342 1 $171 $-1 #
vertex $-1 $342 $343 #
straight-curve $-1 1.21940056386745e-14 6.82625 -5.40878201513364 0 0 -1 #
vertex $-1 $342 $344 #
straight-curve $-1 -1.21940056386745e-14 3.33375 -5.40878201513364 -0 -0 1 #
point $-1 1.21940056386745e-14 6.82625 -10.16 #
point $-1 -1.21940056386745e-14 3.33375 -10.16 #
coedge $-1 $345 $230 $346 $347 1 $92 $-1 #
coedge $-1 $321 $258 $230 $294 1 $260 $-1 #
edge $-1 $295 $348 $230 $349 0 #
vertex $-1 $232 $350 #
straight-curve $-1 -2.54 5.08 0 0 0 -1 #
point $-1 -2.54 5.08 0 #
coedge $-1 $235 $345 $329 $351 1 $92 $-1 #
coedge $-1 $247 $308 $235 $300 1 $248 $-1 #
edge $-1 $352 $301 $235 $353 0 #
vertex $-1 $311 $354 #
point $-1 -2.54 5.08 -10.16 #
coedge $-1 $330 $355 $243 $304 1 $356 $-1 #
edge $-1 $306 $318 $243 $357 0 #
coedge $-1 $329 $244 $247 $309 0 $213 $-1 #
vertex $-1 $304 $358 #
ellipse-curve $-1 2.54 0.635 -6.985 1 0 0 0 -1.34703841816037 -1.34703841816037 1 #
coedge $-1 $299 $246 $251 $311 1 $248 $-1 #
edge $-1 $249 $352 $247 $359 0 #
point $-1 2.54 0.635 -8.89 #
edge $-1 $301 $312 $251 $313 0 #
vertex $-1 $311 $360 #
ellipse-curve $-1 0 5.08 -8.89 -0 -0 -1 -2.54 0 0 1 #
cone-surface $-1 0 5.08 0 0 0 -1 -2.54 0 0 1 0 1 0 #
coedge $-1 $346 $256 $355 $361 0 $317 $-1 #
coedge $-1 $256 $346 $258 $320 0 $317 $-1 #
loop $-1 $-1 $315 $268 #
vertex $-1 $304 $362 #
ellipse-curve $-1 2.54 0.635 -3.175 1 0 0 0 -1.34703841816037 1.34703841816037 1 #
edge $-1 $348 $261 $258 $363 0 #
coedge $-1 $259 $293 $263 $324 1 $260 $-1 #
face $-1 $364 $365 $4 $-1 $366 1 #
point $-1 2.54 0.635 -1.27 #
edge $-1 $325 $295 $263 $326 0 #
vertex $-1 $264 $367 #
ellipse-curve $-1 0 5.08 -1.27 0 0 1 -2.54 0 0 1 #
cone-surface $-1 0 0.635 -3.175 1 -0 -0 0 -1.34703841816037 1.34703841816037 1 0 -1 0 #
coedge $-1 $283 $283 $285 $342 0 $269 $-1 #
coedge $-1 $271 $305 $298 $351 0 $213 $-1 #
coedge $-1 $368 $303 $271 $331 1 $356 $-1 #
edge $-1 $369 $306 $330 $370 0 #
ellipse-curve $-1 0 5.08 -10.16 -0 -0 1 0 1.74625 0 1 #
edge $-1 $281 $280 $279 $371 0 #
coedge $-1 $372 $372 $274 $335 0 $365 $-1 #
edge $-1 $338 $337 $334 $373 0 #
coedge $-1 $275 $277 $372 $374 1 $216 $-1 #
vertex $-1 $374 $375 #
vertex $-1 $374 $376 #
point $-1 -1.21940056386745e-14 3.33375 0 #
point $-1 1.21940056386745e-14 6.82625 0 #
ellipse-curve $-1 0 5.08 -8.89 -0 -0 -1 0 1.74625 0 1 #
edge $-1 $286 $288 $328 $377 0 #
point $-1 1.21940056386745e-14 6.82625 -8.89 #
point $-1 -1.21940056386745e-14 3.33375 -8.89 #
coedge $-1 $298 $292 $368 $378 0 $92 $-1 #
coedge $-1 $316 $315 $292 $347 0 $317 $-1 #
edge $-1 $379 $348 $346 $380 0 #
vertex $-1 $294 $381 #
straight-curve $-1 -2.54 4.1275 -1.27 0 -1 0 #
point $-1 -2.54 5.08 -1.27 #
edge $-1 $352 $369 $329 $382 0 #
vertex $-1 $300 $383 #
straight-curve $-1 -2.54 4.1275 -8.89 0 1 -0 #
point $-1 -2.54 5.08 -8.89 #
coedge $-1 $303 $368 $315 $361 1 $356 $-1 #
loop $-1 $-1 $330 $364 #
straight-curve $-1 2.54 -1.27 -2.54 0 0 1 #
point $-1 2.54 -1.27 -6.985 #
straight-curve $-1 0 0.635 -8.89 -1 0 0 #
point $-1 0 7.62 -8.89 #
edge $-1 $318 $379 $355 $384 0 #
point $-1 2.54 -1.27 -3.175 #
straight-curve $-1 0 0.635 -1.27 1 0 0 #
face $-1 $253 $356 $4 $-1 $385 0 #
loop $-1 $260 $372 $322 #
plane-surface $-1 0 3.175 -1.27 0 0 1 1 0 0 0 #
point $-1 0 7.62 -1.27 #
coedge $-1 $355 $330 $345 $378 1 $356 $-1 #
vertex $-1 $378 $386 #
straight-curve $-1 0 -1.27 -6.985 1 0 0 #
ellipse-curve $-1 0 5.08 0 -0 -0 -1 0 1.74625 0 1 #
coedge $-1 $334 $334 $336 $374 0 $365 $-1 #
ellipse-curve $-1 0 5.08 -1.27 0 0 1 0 1.74625 0 1 #
edge $-1 $337 $338 $372 $387 0 #
point $-1 -1.21940056386745e-14 3.33375 -1.27 #
point $-1 1.21940056386745e-14 6.82625 -1.27 #
ellipse-curve $-1 0 5.08 -8.89 -0 -0 -1 0 1.74625 0 1 #
edge $-1 $379 $369 $345 $388 0 #
vertex $-1 $378 $389 #
ellipse-curve $-1 -2.54 0.635 -3.175 -1 0 0 0 -1.34703841816037 1.34703841816037 1 #
point $-1 -2.54 0.635 -1.27 #
ellipse-curve $-1 -2.54 0.635 -6.985 -1 0 0 0 -1.34703841816037 -1.34703841816037 1 #
point $-1 -2.54 0.635 -8.89 #
straight-curve $-1 0 -1.27 -3.175 -1 -0 -0 #
plane-surface $-1 0 -1.27 -5.08 0 1 0 0 0 1 0 #
point $-1 -2.54 -1.27 -6.985 #
ellipse-curve $-1 0 5.08 -1.27 0 0 1 0 1.74625 0 1 #
straight-curve $-1 -2.54 -1.27 -2.54 0 0 -1 #
point $-1 -2.54 -1.27 -3.175 #
