600 0 2 0           
24 FBMach with ACIS - 6.0.3 13 ACIS 6.0.3 NT 24 Tue May 22 16:48:44 2001 
1 9.9999999999999995e-007 1e-010 
body $2 $3 $-1 $4 #
bdycol-kcp $-1 1 1 $5 #
model_id-kcp-attrib $-1 $6 $-1 $0 1 990564523 90 -1755709439 1 #
lump $-1 $-1 $7 $0 #
transform $-1 1 0 0 0 1 0 0 0 1 0 0 0 1 no_rotate no_reflect no_shear #
body $8 $9 $-1 $10 #
f_body-rbase-attrib $-1 $11 $2 $0 #
shell $-1 $-1 $-1 $12 $-1 $3 #
model_id-kcp-attrib $-1 $-1 $-1 $5 1 990564523 90 -1755709438 1 #
lump $-1 $-1 $13 $5 #
transform $-1 1 0 0 0 1 0 0 0 1 0.92189828015143283 -0.13192147106543994 -0.10708919415899565 1 no_rotate no_reflect no_shear #
ref_vt-eye-attrib $-1 $-1 $6 $0 $14 $-1 #
face $15 $16 $17 $7 $-1 $18 reversed single #
shell $-1 $-1 $-1 $19 $-1 $9 #
eye_refinement $-1 5 grid  1 3 tri 3 4 surf 0 3 adj 0 4 grad 0 9 postcheck 0 4 stol 0.12700000405311584 4 ntol 30 4 dsil 0 8 flatness 0 7 pixarea 0 4 hmax 0 6 gridar 0 5 mgrid 10000 5 ugrid 0 5 vgrid 0 10 end_fields #
model_id-kcp-attrib $-1 $-1 $-1 $12 1 990564523 90 -1755709439 2 #
face $20 $21 $22 $7 $-1 $23 reversed single #
loop $-1 $-1 $24 $12 #
plane-surface $-1 0.92189828015143305 1.27 0.92189828015143305 0 1 0 6.12303176911189e-017 0 -1 forward_v I I I I #
face $25 $26 $27 $13 $-1 $28 forward single #
model_id-kcp-attrib $-1 $-1 $-1 $16 1 990564523 90 -1755709439 3 #
face $29 $30 $31 $7 $-1 $23 reversed single #
loop $-1 $-1 $32 $16 #
cone-surface $-1 0.92189828015143305 0 0.92189828015143305 0 1 0 5.8321877600790698e-017 0 -0.95250000000000001 1 I I -0.242535625036333 0.97014250014533199 0.95250000000000001 forward I I I I #
coedge $-1 $33 $34 $35 $36 reversed $17 $-1 #
model_id-kcp-attrib $-1 $-1 $-1 $19 1 990564523 90 -1755709438 5 #
face $-1 $37 $38 $13 $-1 $39 reversed single #
loop $-1 $-1 $40 $19 #
plane-surface $-1 0 0 1.3227685884261864 0 0 1 1 0 0 forward_v I I I I #
model_id-kcp-attrib $-1 $-1 $-1 $21 1 990564523 90 -1755709439 4 #
face $41 $42 $43 $7 $-1 $44 reversed single #
loop $-1 $-1 $45 $21 #
coedge $-1 $46 $47 $48 $49 reversed $22 $-1 #
coedge $-1 $34 $24 $50 $51 reversed $17 $-1 #
coedge $-1 $24 $33 $46 $52 reversed $17 $-1 #
coedge $-1 $48 $53 $24 $36 forward $54 $-1 #
edge $-1 $55 1.0046574373592423 $56 2.1369352162305484 $35 $57 forward 7 unknown #
face $58 $59 $60 $13 $-1 $61 reversed single #
loop $-1 $-1 $62 $26 #
plane-surface $-1 0 0 -1.3227685884261864 0 0 1 1 0 0 forward_v I I I I #
coedge $-1 $63 $64 $65 $66 forward $27 $-1 #
model_id-kcp-attrib $-1 $-1 $-1 $30 1 990564523 90 -1755709439 5 #
face $67 $68 $54 $7 $-1 $69 forward single #
loop $-1 $-1 $70 $30 #
plane-surface $-1 0.92189828015143305 -1.27 0.92189828015143305 0 -1 0 -6.12303176911189e-017 0 1 forward_v I I I I #
coedge $-1 $71 $50 $53 $72 reversed $31 $-1 #
coedge $-1 $73 $32 $34 $52 forward $22 $-1 #
coedge $-1 $32 $74 $75 $76 reversed $22 $-1 #
coedge $-1 $77 $35 $32 $49 forward $54 $-1 #
edge $-1 $56 -0.33001869103028703 $78 0.165020488791325 $48 $79 forward 7 unknown #
coedge $-1 $45 $80 $33 $51 forward $31 $-1 #
edge $-1 $81 6.12303176911189e-017 $55 1.4230402143634362 $33 $82 forward 7 unknown #
edge $-1 $56 -1.4230402143634351 $81 6.12303176911189e-017 $34 $82 forward 7 unknown #
coedge $-1 $35 $83 $45 $72 forward $54 $-1 #
loop $-1 $-1 $53 $42 #
vertex $-1 $72 $84 #
vertex $-1 $49 $85 #
ellipse-curve $-1 0.92189828015143305 1.27 -0.15985778258518199 0 1 0 -1.1709684791080299 0 -7.1698771982071201e-017 1 I I #
model_id-kcp-attrib $-1 $-1 $-1 $37 1 990564523 90 -1755709438 4 #
face $86 $87 $88 $13 $-1 $89 reversed single #
loop $-1 $-1 $90 $37 #
plane-surface $-1 0 -2.1802581503515404 0 0 1 0 0 0 1 forward_v I I I I #
coedge $-1 $91 $92 $93 $94 forward $38 $-1 #
coedge $-1 $95 $40 $96 $97 forward $27 $-1 #
coedge $-1 $40 $95 $98 $99 forward $27 $-1 #
coedge $-1 $100 $101 $40 $66 reversed $102 $-1 #
edge $-1 $103 -2.1802581503515404 $104 2.1802581503515404 $65 $105 forward 7 unknown #
model_id-kcp-attrib $-1 $-1 $-1 $42 1 990564523 90 -1755709439 6 #
face $106 $107 $108 $7 $-1 $69 forward single #
sphere-surface $-1 0.92189828015143305 0.77833667928609995 -0.15985778258518199 1.27 6.12303176911189e-017 0 -1 1 0 6.12303176911189e-017 forward_v I I I I #
coedge $-1 $109 $110 $111 $112 reversed $43 $-1 #
coedge $-1 $113 $45 $114 $115 reversed $31 $-1 #
edge $-1 $116 4.2412869439173804 $55 4.7363261237397296 $53 $117 forward 7 unknown #
coedge $-1 $118 $46 $80 $119 reversed $22 $-1 #
coedge $-1 $47 $120 $121 $122 reversed $22 $-1 #
coedge $-1 $123 $124 $47 $76 forward $108 $-1 #
edge $-1 $78 0.165020488791325 $125 0.75025642357301803 $75 $126 forward 7 unknown #
coedge $-1 $127 $48 $124 $128 reversed $54 $-1 #
vertex $-1 $128 $129 #
intcurve-curve $-1 forward { surfintcur full nubs 3 open 3 
	-0.33001869103028703 3 0 3 0.165020488791325 3 
	1.5499792634946301 1.27 0.82841417261096595 
	1.58239131809193 1.16143879663632 0.86182417321782201 
	1.61119290456546 1.0472837879963799 0.878189299287638 
	1.6378198549295799 0.94056206865944603 0.87650085312440795 
	1.65113422918636 0.88719760546903903 0.87565657303141098 
	1.66447277644587 0.83280206760689102 0.87055006093325804 
	1.6773643747053399 0.77833667928609995 0.86100997573588101 
	0.001 
	cone 0.92189828015143305 0 0.92189828015143305 0 1 0 5.8321877600790698e-017 0 -0.95250000000000001 1 I I -0.242535625036333 0.97014250014533199 0.95250000000000001 forward I I I I 
	sphere 0.92189828015143305 0.77833667928609995 -0.15985778258518199 1.27 6.12303176911189e-017 0 -1 1 0 6.12303176911189e-017 forward_v I I I I 
	nullbs 
	nullbs 
	I I 
	0 
	0 
	0 
	} I I #
coedge $-1 $50 $130 $73 $119 forward $31 $-1 #
vertex $-1 $52 $131 #
ellipse-curve $-1 0.92189828015143305 1.27 0.92189828015143305 0 1 0 3.88812517338605e-017 0 -0.63500000000000001 1 I I #
coedge $-1 $53 $127 $132 $133 reversed $54 $-1 #
point $-1 0.29381729680823199 1.27 0.82841417261096595 #
point $-1 1.5499792634946301 1.27 0.82841417261096595 #
model_id-kcp-attrib $-1 $-1 $-1 $59 1 990564523 90 -1755709438 3 #
face $-1 $134 $135 $13 $-1 $136 reversed single #
loop $-1 $-1 $137 $59 #
plane-surface $-1 -1.27 0 0 1 0 0 0 0 -1 forward_v I I I I #
coedge $-1 $138 $98 $139 $140 forward $60 $-1 #
coedge $-1 $141 $62 $138 $142 forward $38 $-1 #
coedge $-1 $62 $141 $143 $144 forward $38 $-1 #
coedge $-1 $101 $100 $62 $94 reversed $102 $-1 #
edge $-1 $145 -2.1802581503515404 $146 2.1802581503515404 $93 $147 forward 7 unknown #
coedge $-1 $64 $63 $148 $149 forward $27 $-1 #
coedge $-1 $150 $151 $63 $97 reversed $135 $-1 #
edge $-1 $104 -1.27 $152 1.27 $96 $153 forward 7 unknown #
coedge $-1 $90 $154 $64 $99 reversed $60 $-1 #
edge $-1 $155 -1.27 $103 1.27 $98 $156 forward 7 unknown #
coedge $-1 $93 $65 $154 $157 forward $102 $-1 #
coedge $-1 $65 $93 $150 $158 reversed $102 $-1 #
loop $-1 $-1 $100 $134 #
vertex $-1 $66 $159 #
vertex $-1 $66 $160 #
straight-curve $-1 1.27 0 1.3227685884261864 0 1 0 I I #
model_id-kcp-attrib $-1 $-1 $-1 $68 1 990564523 90 -1755709439 7 #
face $161 $162 $163 $7 $-1 $164 forward single #
loop $-1 $-1 $114 $68 #
coedge $-1 $110 $70 $118 $165 reversed $43 $-1 #
coedge $-1 $70 $109 $130 $166 reversed $43 $-1 #
coedge $-1 $167 $168 $70 $112 forward $169 $-1 #
edge $170 $171 -1.235553583212367 $172 1.235553583212361 $111 $173 forward 7 unknown #
coedge $-1 $174 $71 $175 $176 reversed $31 $-1 #
coedge $-1 $132 $177 $71 $115 forward $108 $-1 #
edge $-1 $178 3.6560510091356901 $116 4.2412869439173804 $114 $179 forward 7 unknown #
vertex $-1 $115 $180 #
intcurve-curve $-1 forward { surfintcur full nubs 3 open 3 
	4.2412869439173804 3 4.4063074327087097 3 4.7363261237397296 3 
	0.16643218559753101 0.77833667928609995 0.86100997573588101 
	0.17932378385699799 0.83280206760689102 0.87055006093325804 
	0.19266233111650599 0.88719760546903903 0.87565657303140998 
	0.205976705373285 0.94056206865944603 0.87650085312440795 
	0.232603655737467 1.0472837879966199 0.878189299287641 
	0.26140524221108402 1.16143879663681 0.86182417321767102 
	0.29381729680823199 1.27 0.82841417261096595 
	0.001 
	cone 0.92189828015143305 0 0.92189828015143305 0 1 0 5.8321877600790698e-017 0 -0.95250000000000001 1 I I -0.242535625036333 0.97014250014533199 0.95250000000000001 forward I I I I 
	sphere 0.92189828015143305 0.77833667928609995 -0.15985778258518199 1.27 6.12303176911189e-017 0 -1 1 0 6.12303176911189e-017 forward_v I I I I 
	nullbs 
	nullbs 
	I I 
	0 
	0 
	0 
	} I I #
coedge $-1 $120 $73 $109 $165 forward $22 $-1 #
edge $-1 $181 -1.3090860361336074 $81 1.3090860361336072 $73 $182 forward 7 unknown #
coedge $-1 $74 $118 $168 $183 reversed $22 $-1 #
coedge $-1 $184 $185 $74 $122 forward $186 $-1 #
edge $-1 $125 1.2218988634247852 $187 1.9050320985521052 $121 $188 forward 7 unknown #
coedge $-1 $189 $75 $185 $190 reversed $108 $-1 #
coedge $-1 $75 $191 $77 $128 forward $108 $-1 #
vertex $-1 $190 $192 #
intcurve-curve $-1 forward { surfintcur full nubs 3 open 4 
	0.165020488791325 3 0.23378110720697901 3 0.46756221441395801 3 0.75025642357301803 3 
	1.6773643747053399 0.77833667928609995 0.86100997573588101 
	1.6827360365830799 0.75564208050859805 0.85703481990696395 
	1.68802590448294 0.73293311827507501 0.85229697574834895 
	1.6931843554513299 0.71027071510380202 0.84681237917011098 
	1.7107227139863499 0.63322019072769897 0.82816514925584095 
	1.7267605379047 0.55673178252042599 0.80076053832939598 
	1.73902429757925 0.48280451053171902 0.76635267356063597 
	1.7538539554756201 0.39340972606938301 0.72474578652059596 
	1.7630397823111901 0.30753780198406699 0.672813331883229 
	1.76348678336785 0.22782037858302101 0.61574559151406805 
	0.001 
	cone 0.92189828015143305 0 0.92189828015143305 0 1 0 5.8321877600790698e-017 0 -0.95250000000000001 1 I I -0.242535625036333 0.97014250014533199 0.95250000000000001 forward I I I I 
	sphere 0.92189828015143305 0.77833667928609995 -0.15985778258518199 1.27 6.12303176911189e-017 0 -1 1 0 6.12303176911189e-017 forward_v I I I I 
	nullbs 
	nullbs 
	I I 
	0 
	0 
	0 
	} I I #
coedge $-1 $83 $77 $191 $193 reversed $54 $-1 #
edge $-1 $194 -6.12303176911189e-017 $78 0.93371083630378682 $124 $195 forward 7 unknown #
point $-1 1.6773643747053399 0.77833667928609995 0.86100997573588101 #
coedge $-1 $80 $174 $110 $166 forward $31 $-1 #
point $-1 0.92189828015143305 1.27 0.28689828015143298 #
coedge $-1 $191 $114 $83 $133 forward $108 $-1 #
edge $-1 $116 2.2078818172860033 $196 3.141592653589786 $132 $195 forward 7 unknown #
face $197 $-1 $102 $13 $-1 $198 reversed single #
loop $-1 $-1 $150 $87 #
plane-surface $-1 0 2.1802581503515404 0 0 -1 0 0 0 -1 forward_v I I I I #
coedge $-1 $199 $148 $151 $200 forward $88 $-1 #
coedge $-1 $154 $90 $91 $142 reversed $60 $-1 #
coedge $-1 $148 $199 $90 $140 reversed $88 $-1 #
edge $-1 $155 -1.3227685884261864 $201 1.3227685884261864 $139 $202 forward 7 unknown #
coedge $-1 $92 $91 $199 $203 forward $38 $-1 #
edge $-1 $146 -1.27 $201 1.27 $138 $204 forward 7 unknown #
coedge $-1 $151 $150 $92 $144 reversed $135 $-1 #
edge $-1 $205 -1.27 $145 1.27 $143 $206 forward 7 unknown #
vertex $-1 $94 $207 #
vertex $-1 $157 $208 #
straight-curve $-1 1.27 0 -1.3227685884261864 0 -1 0 I I #
coedge $-1 $137 $139 $95 $149 reversed $88 $-1 #
edge $-1 $152 -2.1802581503515404 $155 2.1802581503515404 $148 $209 forward 7 unknown #
coedge $-1 $143 $96 $101 $158 forward $135 $-1 #
coedge $-1 $96 $143 $137 $200 reversed $135 $-1 #
vertex $-1 $97 $210 #
straight-curve $-1 0 2.1802581503515404 1.3227685884261864 -1 0 0 I I #
coedge $-1 $98 $138 $100 $157 reversed $60 $-1 #
vertex $-1 $149 $211 #
straight-curve $-1 0 -2.1802581503515404 1.3227685884261864 1 0 0 I I #
edge $-1 $103 -1.3227685884261864 $146 1.3227685884261864 $100 $212 forward 7 unknown #
edge $-1 $104 -1.3227685884261864 $145 1.3227685884261864 $101 $213 forward 7 unknown #
point $-1 1.27 -2.1802581503515404 1.3227685884261864 #
point $-1 1.27 2.1802581503515404 1.3227685884261864 #
model_id-kcp-attrib $-1 $-1 $-1 $107 1 990564523 90 -1755709439 8 #
face $214 $215 $216 $7 $-1 $217 reversed single #
loop $-1 $-1 $218 $107 #
plane-surface $-1 2.1918982801514302 -1.0421796214169801 -0.054320605732812798 1 0 6.12303176911189e-017 6.12303176911189e-017 0 -1 forward_v I I I I #
edge $-1 $181 -6.12303176911189e-017 $171 1.8042344061712565 $109 $219 forward 7 unknown #
edge $-1 $172 -1.8042344061712579 $181 -6.12303176911189e-017 $110 $219 forward 7 unknown #
coedge $-1 $220 $111 $174 $221 forward $169 $-1 #
coedge $-1 $111 $222 $120 $183 forward $169 $-1 #
loop $-1 $-1 $167 $223 #
attrib_edge_convexity-kcp-attrib $-1 $224 $-1 $112 1 #
vertex $-1 $183 $225 #
vertex $-1 $221 $226 #
straight-curve $-1 0.92189828015143305 -1.27 1.21567939426719 -1 0 -6.12303176911189e-017 I I #
coedge $-1 $130 $113 $167 $221 reversed $31 $-1 #
coedge $-1 $227 $228 $113 $176 forward $186 $-1 #
edge $-1 $229 -1.9050320985521043 $178 -1.2218988634247867 $175 $230 forward 7 unknown #
coedge $-1 $114 $189 $227 $231 reversed $108 $-1 #
vertex $-1 $176 $232 #
intcurve-curve $-1 forward { surfintcur full nubs 3 open 4 
	3.6560510091356901 3 3.9387452182947502 3 4.17252632550173 3 4.2412869439173804 3 
	0.080309776935012595 0.22782037858302101 0.61574559151406805 
	0.080756777991678894 0.30753780198406699 0.67281333188322801 
	0.089942604827248099 0.39340972606938301 0.72474578652059596 
	0.104772262723619 0.48280451053171902 0.76635267356063597 
	0.117036022398171 0.55673178252042599 0.80076053832939498 
	0.133073846316521 0.63322019072769897 0.82816514925583995 
	0.15061220485153701 0.71027071510380202 0.84681237917010999 
	0.15577065581992799 0.73293311827507501 0.85229697574834795 
	0.16106052371978599 0.75564208050859805 0.85703481990696395 
	0.16643218559753101 0.77833667928609995 0.86100997573588101 
	0.001 
	cone 0.92189828015143305 0 0.92189828015143305 0 1 0 5.8321877600790698e-017 0 -0.95250000000000001 1 I I -0.242535625036333 0.97014250014533199 0.95250000000000001 forward I I I I 
	sphere 0.92189828015143305 0.77833667928609995 -0.15985778258518199 1.27 6.12303176911189e-017 0 -1 1 0 6.12303176911189e-017 forward_v I I I I 
	nullbs 
	nullbs 
	I I 
	0 
	0 
	0 
	} I I #
point $-1 0.16643218559753101 0.77833667928609995 0.86100997573588101 #
vertex $-1 $166 $233 #
straight-curve $-1 0.92189828015142705 0 -0.030601719848566501 1.67876766520885e-015 0.97014250014533199 0.242535625036333 I I #
edge $234 $187 0 $171 1.5476549053494 $168 $235 forward 7 unknown #
coedge $-1 $236 $121 $222 $237 reversed $186 $-1 #
coedge $-1 $121 $238 $123 $190 forward $186 $-1 #
loop $-1 $-1 $175 $239 #
vertex $-1 $237 $240 #
ellipse-curve $-1 0.92189828015143305 0.22782037858302101 0.92189828015143305 0 -1 0 5.4834499061503403e-017 0 -0.89554490535424502 1 I I #
coedge $-1 $177 $123 $238 $241 reversed $108 $-1 #
edge $-1 $242 -3.1415926535898002 $125 -2.3969741581098103 $185 $243 forward 7 unknown #
coedge $-1 $124 $132 $127 $193 forward $108 $-1 #
point $-1 1.76348678336785 0.22782037858302101 0.61574559151406805 #
edge $-1 $196 -3.1415926535898002 $194 -6.12303176911189e-017 $191 $195 forward 7 unknown #
vertex $-1 $128 $244 #
ellipse-curve $-1 0.92189828015143305 0.77833667928609995 -0.15985778258518199 4.2756927082796598e-031 -1 -6.9829667222187602e-015 1.27 0 7.7762503467721001e-017 1 I I #
vertex $-1 $193 $245 #
model_id-kcp-attrib $-1 $-1 $-1 $134 1 990564523 90 -1755709438 2 #
plane-surface $-1 1.27 0 0 -1 0 0 0 0 1 forward_v I I I I #
coedge $-1 $139 $137 $141 $203 reversed $88 $-1 #
edge $-1 $152 -1.3227685884261864 $205 1.3227685884261864 $151 $246 forward 7 unknown #
vertex $-1 $203 $247 #
straight-curve $-1 -1.27 -2.1802581503515404 0 0 0 -1 I I #
edge $-1 $201 -2.1802581503515404 $205 2.1802581503515404 $199 $248 forward 7 unknown #
straight-curve $-1 0 -2.1802581503515404 -1.3227685884261864 -1 0 0 I I #
vertex $-1 $144 $249 #
straight-curve $-1 0 2.1802581503515404 -1.3227685884261864 1 0 0 I I #
point $-1 1.27 2.1802581503515404 -1.3227685884261864 #
point $-1 1.27 -2.1802581503515404 -1.3227685884261864 #
straight-curve $-1 -1.27 0 1.3227685884261864 0 -1 0 I I #
point $-1 -1.27 2.1802581503515404 1.3227685884261864 #
point $-1 -1.27 -2.1802581503515404 1.3227685884261864 #
straight-curve $-1 1.27 -2.1802581503515404 0 0 0 -1 I I #
straight-curve $-1 1.27 2.1802581503515404 0 0 0 -1 I I #
model_id-kcp-attrib $-1 $-1 $-1 $162 1 990564523 90 -1755709439 9 #
face $250 $223 $251 $7 $-1 $252 reversed single #
loop $-1 $-1 $253 $162 #
plane-surface $-1 -0.34810171984856703 -1.0421796214169801 -0.054320605732813103 1 0 6.12303176911189e-017 6.12303176911189e-017 0 -1 forward_v I I I I #
coedge $-1 $254 $255 $256 $257 forward $163 $-1 #
ellipse-curve $-1 0.92189828015143305 -1.27 0.92189828015143305 0 -1 0 7.7762503467721001e-017 0 -1.27 1 I I #
coedge $-1 $258 $167 $228 $259 forward $169 $-1 #
edge $260 $172 0 $229 1.5476549053494 $167 $261 forward 7 unknown #
coedge $-1 $168 $262 $184 $237 forward $169 $-1 #
face $263 $239 $169 $7 $-1 $264 reversed single #
convexity-sys-attrib $-1 $-1 $170 $112 #
point $-1 2.1574518633638 -1.27 1.21567939426719 #
point $-1 -0.31365530306092798 -1.27 1.21567939426719 #
coedge $-1 $238 $175 $177 $231 forward $186 $-1 #
coedge $-1 $175 $265 $220 $259 reversed $186 $-1 #
vertex $-1 $221 $266 #
ellipse-curve $-1 0.92189828015143305 0.22782037858302101 0.92189828015143305 0 -1 0 5.4834499061503403e-017 0 -0.89554490535424502 1 I I #
edge $-1 $178 -0.74461849547998105 $267 -6.1230317691118629e-017 $227 $243 forward 7 unknown #
point $-1 0.080309776935012595 0.22782037858302101 0.61574559151406805 #
point $-1 0.92189828015143305 -1.27 -0.34810171984856703 #
attrib_edge_convexity-kcp-attrib $-1 $268 $-1 $183 1 #
intcurve-curve $-1 forward { exactcur full nurbs 2 open 2 
	0 2 1.5476549053494 2 
	1.7678848843567501 0.22782037858302101 1.21567939426719 1 
	1.9289873960059301 -0.38092884636000002 1.21567939426719 1.0165844235701 
	2.1574518633638 -1.27 1.21567939426719 1 
	0 
	null_surface 
	null_surface 
	nullbs 
	nullbs 
	I I 
	0 
	0 
	0 
	F 1 F 0 } I I #
coedge $-1 $269 $184 $254 $270 reversed $186 $-1 #
edge $271 $272 -1.2699999999999971 $187 -0.84598660420531702 $184 $273 forward 7 unknown #
coedge $-1 $185 $227 $189 $241 forward $186 $-1 #
face $274 $275 $186 $7 $-1 $276 reversed single #
point $-1 1.7678848843567501 0.22782037858302101 1.21567939426719 #
edge $-1 $267 -6.1230317691118629e-017 $242 3.141592653589786 $238 $243 forward 7 unknown #
vertex $-1 $190 $277 #
ellipse-curve $-1 0.92189828015143305 0.22782037858302101 -0.15985778258518199 0 -1 0 -1.14447883451823 0 -7.0076802628312398e-017 1 I I #
point $-1 2.1918982801514302 0.77833667928609995 -0.15985778258518199 #
point $-1 -0.34810171984856703 0.77833667928609995 -0.159857782585173 #
straight-curve $-1 -1.27 2.1802581503515404 0 0 0 -1 I I #
point $-1 -1.27 -2.1802581503515404 -1.3227685884261864 #
straight-curve $-1 -1.27 0 -1.3227685884261864 0 1 0 I I #
point $-1 -1.27 2.1802581503515404 -1.3227685884261864 #
model_id-kcp-attrib $-1 $-1 $-1 $215 1 990564523 90 -1755709439 10 #
loop $-1 $-1 $278 $215 #
plane-surface $-1 0.92189828015143305 -2.3121796214169801 -0.054320605732812902 0 1 0 1 0 6.12303176911189e-017 forward_v I I I I #
coedge $-1 $279 $280 $281 $282 forward $216 $-1 #
coedge $-1 $283 $218 $236 $270 forward $163 $-1 #
coedge $-1 $218 $283 $284 $285 forward $163 $-1 #
coedge $-1 $286 $287 $218 $257 reversed $288 $-1 #
edge $289 $290 -1.27 $291 1.2700000000000011 $256 $292 forward 7 unknown #
coedge $-1 $293 $220 $294 $295 reversed $169 $-1 #
edge $296 $229 0.84598660420532024 $297 1.27 $228 $273 forward 7 unknown #
attrib_edge_convexity-kcp-attrib $-1 $298 $-1 $221 1 #
intcurve-curve $-1 forward { exactcur full nurbs 2 open 2 
	0 2 1.5476549053494 2 
	-0.31365530306092798 -1.27 1.21567939426719 1 
	-0.085190835703058507 -0.38092884636000002 1.21567939426719 1.0165844235701 
	0.075911675946112797 0.22782037858302101 1.21567939426719 1 
	0 
	null_surface 
	null_surface 
	nullbs 
	nullbs 
	I I 
	0 
	0 
	0 
	F 1 F 0 } I I #
coedge $-1 $222 $293 $283 $299 reversed $169 $-1 #
model_id-kcp-attrib $-1 $-1 $-1 $223 1 990564523 90 -1755709439 11 #
plane-surface $-1 0.92189828015143305 -1.0421796214169801 1.21567939426719 6.12303176911189e-017 0 -1 -1 0 -6.12303176911189e-017 forward_v I I I I #
coedge $-1 $228 $269 $280 $300 reversed $186 $-1 #
point $-1 0.075911675946112797 0.22782037858302101 1.21567939426719 #
vertex $-1 $241 $301 #
convexity-sys-attrib $-1 $-1 $234 $183 #
coedge $-1 $265 $236 $287 $302 forward $186 $-1 #
edge $303 $291 -1.2699999999999974 $272 1.2700000000000027 $236 $304 forward 7 unknown #
attrib_edge_convexity-kcp-attrib $-1 $305 $-1 $237 1 #
vertex $-1 $270 $306 #
straight-curve $-1 0.92189828015143305 0.22782037858302101 1.21567939426719 -1 0 -6.12303176911189e-017 I I #
model_id-kcp-attrib $-1 $-1 $-1 $239 1 990564523 90 -1755709439 12 #
face $307 $-1 $288 $7 $-1 $308 reversed single #
plane-surface $-1 0.92189828015143305 0.22782037858302101 -0.054320605732812902 0 -1 0 -1 0 -6.12303176911189e-017 forward_v I I I I #
point $-1 2.0663771146696601 0.22782037858302101 -0.15985778258519001 #
coedge $-1 $309 $284 $293 $310 forward $251 $-1 #
coedge $-1 $294 $253 $309 $311 forward $216 $-1 #
coedge $-1 $253 $294 $265 $300 forward $216 $-1 #
coedge $-1 $287 $286 $253 $282 reversed $288 $-1 #
edge $-1 $312 -1.2700000000000011 $313 1.27 $281 $314 forward 7 unknown #
coedge $-1 $255 $254 $262 $299 forward $163 $-1 #
coedge $-1 $278 $315 $255 $285 reversed $251 $-1 #
edge $316 $317 -1.2700000000000027 $290 1.2699999999999974 $284 $318 forward 7 unknown #
coedge $-1 $281 $256 $315 $319 forward $288 $-1 #
coedge $-1 $256 $281 $269 $302 reversed $288 $-1 #
loop $-1 $-1 $286 $275 #
attrib_edge_convexity-kcp-attrib $-1 $320 $-1 $257 1 #
vertex $-1 $257 $321 #
vertex $-1 $257 $322 #
straight-curve $-1 2.1918982801514302 -1.0421796214169801 -1.3243206057328101 0 1 0 I I #
coedge $-1 $262 $258 $278 $310 reversed $169 $-1 #
coedge $-1 $280 $279 $258 $295 forward $216 $-1 #
edge $323 $324 -1.27 $297 1.2700000000000011 $258 $325 forward 7 unknown #
attrib_edge_convexity-kcp-attrib $-1 $326 $-1 $259 1 #
vertex $-1 $300 $327 #
convexity-sys-attrib $-1 $-1 $260 $221 #
edge $328 $272 -1.2700000000000011 $317 1.27 $262 $329 forward 7 unknown #
edge $-1 $297 -1.2700000000000031 $312 1.2699999999999969 $265 $330 forward 7 unknown #
point $-1 -0.222580554366793 0.22782037858302101 -0.15985778258518199 #
edge $-1 $291 -1.2699999999999971 $312 1.2699999999999991 $287 $331 forward 7 unknown #
attrib_edge_convexity-kcp-attrib $-1 $332 $-1 $270 1 #
straight-curve $-1 2.1918982801514302 0.22782037858302101 -0.054320605732812798 -6.12303176911189e-017 0 1 I I #
convexity-sys-attrib $-1 $-1 $271 $237 #
point $-1 2.1918982801514302 0.22782037858302101 1.21567939426719 #
model_id-kcp-attrib $-1 $-1 $-1 $275 1 990564523 90 -1755709439 13 #
plane-surface $-1 0.92189828015143305 -1.0421796214169801 -1.3243206057328101 -6.12303176911189e-017 0 1 1 0 6.12303176911189e-017 forward_v I I I I #
coedge $-1 $315 $278 $279 $311 reversed $251 $-1 #
edge $333 $317 -1.2699999999999971 $324 1.27 $293 $334 forward 7 unknown #
edge $335 $313 -1.2699999999999969 $324 1.2700000000000031 $309 $336 forward 7 unknown #
vertex $-1 $282 $337 #
vertex $-1 $319 $338 #
straight-curve $-1 -0.34810171984856603 -1.0421796214169801 -1.3243206057328101 0 -1 0 I I #
coedge $-1 $284 $309 $286 $319 reversed $251 $-1 #
attrib_edge_convexity-kcp-attrib $-1 $339 $-1 $285 1 #
vertex $-1 $299 $340 #
straight-curve $-1 2.1918982801514302 -2.3121796214169801 -0.054320605732812798 6.12303176911189e-017 0 -1 I I #
edge $341 $290 -1.2699999999999971 $313 1.2699999999999991 $286 $342 forward 7 unknown #
convexity-sys-attrib $-1 $-1 $289 $257 #
point $-1 2.1918982801514302 -2.3121796214169801 -1.3243206057328101 #
point $-1 2.1918982801514302 0.22782037858302101 -1.3243206057328101 #
attrib_edge_convexity-kcp-attrib $-1 $343 $-1 $295 1 #
vertex $-1 $295 $344 #
straight-curve $-1 -0.34810171984856703 -1.0421796214169801 1.21567939426719 0 1 0 I I #
convexity-sys-attrib $-1 $-1 $296 $259 #
point $-1 -0.34810171984856703 0.22782037858302101 1.21567939426719 #
attrib_edge_convexity-kcp-attrib $-1 $345 $-1 $299 1 #
straight-curve $-1 2.1918982801514302 -1.0421796214169801 1.21567939426719 0 -1 0 I I #
straight-curve $-1 -0.34810171984856703 0.22782037858302101 -0.054320605732813103 6.12303176911189e-017 0 -1 I I #
straight-curve $-1 0.92189828015143305 0.22782037858302101 -1.3243206057328101 -1 0 -6.12303176911189e-017 I I #
convexity-sys-attrib $-1 $-1 $303 $270 #
attrib_edge_convexity-kcp-attrib $-1 $346 $-1 $310 1 #
straight-curve $-1 0.92189828015143305 -2.3121796214169801 1.21567939426719 -1 0 -6.12303176911189e-017 I I #
attrib_edge_convexity-kcp-attrib $-1 $347 $-1 $311 1 #
straight-curve $-1 -0.34810171984856703 -2.3121796214169801 -0.054320605732813103 -6.12303176911189e-017 0 1 I I #
point $-1 -0.34810171984856603 0.22782037858302101 -1.3243206057328101 #
point $-1 -0.34810171984856603 -2.3121796214169801 -1.3243206057328101 #
convexity-sys-attrib $-1 $-1 $316 $285 #
point $-1 2.1918982801514302 -2.3121796214169801 1.21567939426719 #
attrib_edge_convexity-kcp-attrib $-1 $348 $-1 $319 1 #
straight-curve $-1 0.92189828015143305 -2.3121796214169801 -1.3243206057328101 -1 0 -6.12303176911189e-017 I I #
convexity-sys-attrib $-1 $-1 $323 $295 #
point $-1 -0.34810171984856703 -2.3121796214169801 1.21567939426719 #
convexity-sys-attrib $-1 $-1 $328 $299 #
convexity-sys-attrib $-1 $-1 $333 $310 #
convexity-sys-attrib $-1 $-1 $335 $311 #
convexity-sys-attrib $-1 $-1 $341 $319 #
End-of-ACIS-data 