600 0 2 0           
24 FBMach with ACIS - 6.0.3 13 ACIS 6.0.3 NT 24 Tue May 22 16:48:45 2001 
1 9.9999999999999995e-007 1e-010 
body $2 $3 $-1 $4 #
bdycol-kcp $-1 1 3 $5 $6 $7 #
model_id-kcp-attrib $-1 $8 $-1 $0 1 990564524 80 -2075131903 1 #
lump $-1 $-1 $9 $0 #
transform $-1 1 0 0 0 1 0 0 0 1 0 0 0 1 no_rotate no_reflect no_shear #
body $10 $11 $-1 $12 #
body $13 $14 $-1 $15 #
body $16 $17 $-1 $18 #
f_body-rbase-attrib $-1 $19 $2 $0 #
shell $-1 $-1 $-1 $20 $-1 $3 #
model_id-kcp-attrib $-1 $-1 $-1 $5 1 990564524 80 -2075131902 1 #
lump $-1 $-1 $21 $5 #
transform $-1 1 0 0 0 1 0 0 0 1 0 -3.75 -2.1749999999999998 1 no_rotate no_reflect no_shear #
rgb_color-st-attrib $-1 $22 $-1 $6 0.5 1 1 #
lump $-1 $-1 $23 $6 #
transform $-1 1 0 0 0 1 0 0 0 1 0 -3.75 -2.1749999999999998 1 no_rotate no_reflect no_shear #
rgb_color-st-attrib $-1 $24 $-1 $7 0.59999999999999998 0.90000000000000002 1 #
lump $-1 $-1 $25 $7 #
transform $-1 1 0 0 0 1 0 0 0 1 0 -3.75 -2.1749999999999998 1 no_rotate no_reflect no_shear #
ref_vt-eye-attrib $-1 $-1 $8 $0 $26 $-1 #
face $27 $28 $29 $9 $-1 $30 forward single #
shell $-1 $-1 $-1 $31 $-1 $11 #
model_id-kcp-attrib $-1 $-1 $13 $6 1 990564524 180 -2068578301 1 #
shell $-1 $-1 $-1 $32 $-1 $14 #
model_id-kcp-attrib $-1 $33 $16 $7 1 990564524 300 -2077491196 1 #
shell $-1 $-1 $-1 $34 $-1 $17 #
eye_refinement $-1 5 grid  1 3 tri 3 4 surf 0 3 adj 0 4 grad 0 9 postcheck 0 4 stol 0.2175000011920929 4 ntol 30 4 dsil 0 8 flatness 0 7 pixarea 0 4 hmax 0 6 gridar 0 5 mgrid 10000 5 ugrid 0 5 vgrid 0 10 end_fields #
model_id-kcp-attrib $-1 $35 $-1 $20 1 990564524 80 -2075131903 15 #
face $36 $37 $38 $9 $-1 $39 forward single #
loop $-1 $-1 $40 $20 #
plane-surface $-1 4.1825000000000001 -7.5 0 0 -1 0 0 0 -1 forward_v I I I I #
face $41 $42 $43 $21 $-1 $44 forward single #
face $-1 $45 $46 $23 $-1 $47 reversed single #
ref_vt-eye-attrib $-1 $-1 $24 $7 $26 $-1 #
face $-1 $48 $49 $25 $-1 $50 forward single #
model_id-kcp-attrib $-1 $-1 $27 $20 1 990564524 80 -2075131903 2 #
model_id-kcp-attrib $-1 $-1 $-1 $28 1 990564524 80 -2075131903 3 #
face $51 $52 $53 $9 $-1 $54 forward single #
loop $-1 $-1 $55 $28 #
cone-surface $-1 0 -3.75 0 0 1 0 4.3499999999999996 0 0 1 I I 0 1 4.3499999999999996 forward I I I I #
coedge $-1 $56 $57 $58 $59 forward $29 $-1 #
model_id-kcp-attrib $-1 $-1 $-1 $31 1 990564524 80 -2075131902 4 #
face $-1 $60 $61 $21 $-1 $62 reversed single #
loop $-1 $-1 $63 $31 #
plane-surface $-1 0 0 2.1749999999999998 0 0 1 1 0 0 forward_v I I I I #
face $-1 $64 $65 $23 $-1 $47 reversed single #
loop $-1 $-1 $66 $32 #
cone-surface $-1 0 -3.75 2.1749999999999998 0 -1 0 4.3499999999999996 0 0 1 I I 0 1 4.3499999999999996 forward I I I I #
face $-1 $67 $68 $25 $-1 $69 forward single #
loop $-1 $-1 $70 $34 #
plane-surface $-1 -4.0149999999999997 -2.9299999999999997 2.1749999999999994 0 0 1 1 0 0 forward_v I I I I #
model_id-kcp-attrib $-1 $-1 $-1 $37 1 990564524 80 -2075131903 4 #
face $71 $72 $73 $9 $-1 $74 forward single #
loop $-1 $-1 $75 $37 #
plane-surface $-1 2.1749999999999998 0 0 0 1 0 0 0 1 forward_v I I I I #
coedge $-1 $76 $77 $78 $79 forward $38 $-1 #
coedge $-1 $80 $40 $77 $81 reversed $29 $-1 #
coedge $-1 $40 $80 $82 $83 forward $29 $-1 #
coedge $-1 $84 $78 $40 $59 reversed $85 $-1 #
edge $86 $87 0 $88 0.33499999999999996 $40 $89 forward 7 unknown #
face $90 $91 $92 $21 $-1 $93 reversed single #
loop $-1 $-1 $94 $42 #
plane-surface $-1 0 0 -2.1749999999999998 0 0 1 1 0 0 forward_v I I I I #
coedge $-1 $95 $96 $97 $98 forward $43 $-1 #
face $-1 $99 $100 $23 $-1 $101 reversed single #
loop $-1 $-1 $102 $45 #
coedge $-1 $103 $104 $105 $106 reversed $46 $-1 #
face $-1 $107 $108 $25 $-1 $109 reversed single #
loop $-1 $-1 $110 $48 #
cone-surface $-1 0 -2.9300000000000015 2.1749999999999998 0 -1 0 4.0149999999999997 0 0 1 I I 0 1 4.0149999999999997 forward I I I I #
coedge $-1 $111 $112 $113 $114 forward $49 $-1 #
model_id-kcp-attrib $-1 $-1 $-1 $52 1 990564524 80 -2075131903 5 #
face $115 $116 $117 $9 $-1 $118 forward single #
loop $-1 $-1 $119 $52 #
torus-surface $-1 0 -8.1863062035242304 0 0 1 0 -0.19015166817239501 -6.0000000000000098 0 0 1 forward_v I I I I #
coedge $-1 $120 $120 $121 $122 reversed $53 $-1 #
coedge $-1 $123 $55 $120 $124 reversed $38 $-1 #
coedge $-1 $55 $123 $56 $81 forward $38 $-1 #
coedge $-1 $58 $121 $55 $79 reversed $85 $-1 #
edge $125 $88 0 $126 7.5 $55 $127 forward 7 unknown #
coedge $-1 $57 $56 $128 $129 reversed $29 $-1 #
edge $130 $131 0 $88 3.1415926535897931 $77 $132 forward 7 unknown #
coedge $-1 $133 $134 $57 $83 reversed $135 $-1 #
edge $136 $137 0 $87 3.1415926535897931 $57 $138 forward 7 unknown #
coedge $-1 $139 $58 $134 $140 reversed $85 $-1 #
loop $-1 $-1 $141 $142 #
attrib_edge_convexity-kcp-attrib $-1 $143 $-1 $59 1 #
vertex $-1 $83 $144 #
vertex $-1 $81 $145 #
straight-curve $-1 -4.0149999999999997 -7.5 -4.9167945105968399e-016 -1 0 -1.22460635382238e-016 I I #
model_id-kcp-attrib $-1 $-1 $-1 $60 1 990564524 80 -2075131902 2 #
face $-1 $146 $147 $21 $-1 $148 reversed single #
loop $-1 $-1 $149 $60 #
plane-surface $-1 0 -3.75 0 0 1 0 0 0 1 forward_v I I I I #
coedge $-1 $150 $151 $152 $153 forward $61 $-1 #
coedge $-1 $154 $63 $155 $156 forward $43 $-1 #
coedge $-1 $63 $154 $157 $158 forward $43 $-1 #
coedge $-1 $159 $160 $63 $98 reversed $161 $-1 #
edge $-1 $162 -3.75 $163 3.75 $97 $164 forward 7 unknown #
face $-1 $165 $166 $23 $-1 $101 reversed single #
loop $-1 $-1 $105 $64 #
plane-surface $-1 0 -3.75 0 0 1 0 0 0 1 forward_v I I I I #
coedge $-1 $167 $168 $169 $170 reversed $65 $-1 #
coedge $-1 $171 $66 $172 $173 reversed $46 $-1 #
coedge $-1 $66 $171 $174 $175 forward $46 $-1 #
coedge $-1 $176 $177 $66 $106 forward $100 $-1 #
edge $-1 $178 1.5707963267948966 $179 3.1415926535897931 $105 $180 forward 7 unknown #
face $-1 $-1 $181 $25 $-1 $182 forward single #
loop $-1 $-1 $113 $67 #
plane-surface $-1 6.2815939060156646e-017 -3.7500000000000018 0.76690305423072902 -4.2700278025338674e-049 1 3.2549991207468821e-032 0 -3.2549991207468821e-032 1 forward_v I I I I #
coedge $-1 $183 $184 $185 $186 forward $68 $-1 #
coedge $-1 $187 $70 $184 $188 reversed $49 $-1 #
coedge $-1 $70 $187 $183 $189 forward $49 $-1 #
coedge $-1 $185 $185 $70 $114 reversed $108 $-1 #
edge $-1 $190 -4.0149999999999997 $191 4.0149999999999997 $70 $192 forward 7 unknown #
model_id-kcp-attrib $-1 $-1 $-1 $72 1 990564524 80 -2075131903 6 #
face $193 $194 $195 $9 $-1 $196 forward single #
loop $-1 $-1 $197 $72 #
torus-surface $-1 0 2.7861949913527901 0 0 1 0 4.8107122053779898 6.0583755934768799 0 0 1 forward_v I I I I #
coedge $-1 $198 $199 $200 $201 forward $73 $-1 #
coedge $-1 $75 $75 $76 $124 forward $53 $-1 #
coedge $-1 $78 $202 $75 $122 forward $85 $-1 #
edge $203 $204 0 $126 8.6999999999999993 $121 $205 forward 7 unknown #
coedge $-1 $77 $76 $202 $206 reversed $38 $-1 #
edge $-1 $204 0 $126 3.1415926535897931 $120 $207 forward 7 unknown #
attrib_edge_convexity-kcp-attrib $-1 $208 $-1 $79 1 #
vertex $-1 $124 $209 #
straight-curve $-1 -4.3499999999999996 -7.5 -5.3270376391273399e-016 0 1 0 I I #
coedge $-1 $202 $210 $80 $129 forward $85 $-1 #
edge $211 $137 0 $131 0.33499999999999996 $128 $212 forward 7 unknown #
attrib_edge_convexity-kcp-attrib $-1 $213 $-1 $81 1 #
vertex $-1 $129 $214 #
ellipse-curve $-1 0 -7.5 0 0 1 0 4.3499999999999996 0 0 1 I I #
coedge $-1 $215 $82 $210 $216 reversed $135 $-1 #
coedge $-1 $82 $215 $84 $140 forward $135 $-1 #
loop $-1 $-1 $134 $217 #
attrib_edge_convexity-kcp-attrib $-1 $218 $-1 $83 1 #
vertex $-1 $216 $219 #
ellipse-curve $-1 0 -7.5 0 0 1 0 4.0149999999999997 0 0 1 I I #
coedge $-1 $220 $84 $221 $222 reversed $85 $-1 #
edge $223 $224 0 $87 0.82000000000000028 $134 $225 forward 7 unknown #
coedge $-1 $226 $227 $228 $229 forward $85 $-1 #
face $230 $217 $85 $9 $-1 $231 forward single #
convexity-sys-attrib $-1 $-1 $86 $59 #
point $-1 -4.0149999999999997 -7.5 -4.9167945105968399e-016 #
point $-1 -4.3499999999999996 -7.5 -5.3270376391273399e-016 #
face $232 $233 $234 $21 $-1 $235 reversed single #
loop $-1 $-1 $236 $91 #
plane-surface $-1 -4.3499999999999996 0 0 1 0 0 0 0 -1 forward_v I I I I #
coedge $-1 $237 $157 $238 $239 forward $92 $-1 #
coedge $-1 $240 $94 $237 $241 forward $61 $-1 #
coedge $-1 $94 $240 $242 $243 forward $61 $-1 #
coedge $-1 $160 $159 $94 $153 reversed $161 $-1 #
edge $-1 $244 -3.75 $245 3.75 $152 $246 forward 7 unknown #
coedge $-1 $96 $95 $247 $248 forward $43 $-1 #
coedge $-1 $249 $250 $95 $156 reversed $234 $-1 #
edge $-1 $163 -4.3499999999999996 $251 4.3499999999999996 $155 $252 forward 7 unknown #
coedge $-1 $149 $253 $96 $158 reversed $92 $-1 #
edge $-1 $254 -4.3499999999999996 $162 4.3499999999999996 $157 $255 forward 7 unknown #
coedge $-1 $152 $97 $253 $256 forward $161 $-1 #
coedge $-1 $97 $152 $249 $257 reversed $161 $-1 #
loop $-1 $-1 $159 $233 #
vertex $-1 $98 $258 #
vertex $-1 $98 $259 #
straight-curve $-1 4.3499999999999996 0 2.1749999999999998 0 1 0 I I #
face $-1 $260 $261 $23 $-1 $262 reversed single #
loop $-1 $-1 $263 $99 #
coedge $-1 $264 $102 $103 $173 forward $65 $-1 #
coedge $-1 $102 $264 $265 $266 forward $65 $-1 #
coedge $-1 $267 $268 $102 $170 forward $269 $-1 #
edge $-1 $270 -1.5707963267948966 $271 0 $169 $272 forward 7 unknown #
coedge $-1 $104 $103 $273 $274 reversed $46 $-1 #
coedge $-1 $275 $276 $277 $173 forward $278 $-1 #
edge $-1 $270 -7.5 $178 0 $172 $279 forward 7 unknown #
coedge $-1 $280 $281 $104 $175 reversed $282 $-1 #
edge $-1 $283 -3.75 $179 3.75 $174 $284 forward 7 unknown #
coedge $-1 $177 $105 $281 $285 forward $100 $-1 #
coedge $-1 $105 $176 $275 $286 reversed $100 $-1 #
vertex $-1 $286 $287 #
vertex $-1 $175 $288 #
ellipse-curve $-1 0 -3.75 2.1749999999999998 0 1 0 4.3499999999999996 0 0 1 I I #
loop $-1 $-1 $289 $107 #
plane-surface $-1 6.2815939060156646e-017 -2.9300000000000015 0.76690305423072902 -4.2700278025338674e-049 1 3.2549991207468821e-032 0 -3.2549991207468821e-032 1 forward_v I I I I #
coedge $-1 $290 $110 $112 $189 reversed $68 $-1 #
coedge $-1 $110 $290 $111 $188 forward $68 $-1 #
coedge $-1 $113 $113 $110 $186 reversed $108 $-1 #
edge $-1 $191 0 $190 3.1415926535897931 $110 $291 forward 7 unknown #
coedge $-1 $112 $111 $292 $293 reversed $49 $-1 #
edge $-1 $294 0 $191 0.82000000000000028 $184 $295 forward 7 unknown #
edge $-1 $296 0 $190 0.82000000000000028 $112 $297 forward 7 unknown #
vertex $-1 $189 $298 #
vertex $-1 $188 $299 #
straight-curve $-1 0 -3.7500000000000018 2.1749999999999998 1 0 0 I I #
model_id-kcp-attrib $-1 $-1 $-1 $116 1 990564524 80 -2075131903 7 #
face $300 $301 $302 $9 $-1 $303 forward single #
loop $-1 $-1 $304 $116 #
torus-surface $-1 0 -4.4209653921819898 0 0 1 0 2.45543238883389 -1.5238736643761699 0 0 1 forward_v I I I I #
coedge $-1 $305 $306 $307 $308 forward $117 $-1 #
coedge $-1 $199 $119 $306 $309 reversed $73 $-1 #
coedge $-1 $119 $198 $310 $311 reversed $73 $-1 #
coedge $-1 $310 $307 $119 $201 reversed $85 $-1 #
edge $312 $313 -6.1679056923619635e-018 $314 0.39593912722411356 $119 $315 forward 7 unknown #
coedge $-1 $121 $128 $123 $206 forward $85 $-1 #
model_id-kcp-attrib $-1 $316 $-1 $122 1 990564524 80 -2075131903 16 #
vertex $-1 $206 $317 #
straight-curve $-1 4.3499999999999996 0 0 -1 0 0 I I #
edge $318 $131 0 $204 7.5 $202 $319 forward 7 unknown #
ellipse-curve $-1 0 0 0 0 1 0 4.3499999999999996 0 0 1 I I #
convexity-sys-attrib $-1 $-1 $125 $79 #
point $-1 -4.3499999999999996 0 -5.3270376391273399e-016 #
coedge $-1 $128 $226 $133 $216 forward $85 $-1 #
attrib_edge_convexity-kcp-attrib $-1 $320 $-1 $129 1 #
straight-curve $-1 4.0149999999999997 -7.5 0 1 0 0 I I #
convexity-sys-attrib $-1 $-1 $130 $81 #
point $-1 4.3499999999999996 -7.5 0 #
coedge $-1 $134 $133 $321 $322 forward $135 $-1 #
edge $323 $324 0 $137 0.82000000000000028 $210 $325 forward 7 unknown #
face $326 $327 $135 $9 $-1 $328 forward single #
convexity-sys-attrib $-1 $-1 $136 $83 #
point $-1 4.0149999999999997 -7.5 0 #
coedge $-1 $329 $139 $330 $331 reversed $85 $-1 #
coedge $-1 $321 $332 $139 $222 forward $333 $-1 #
edge $334 $335 -1.3283106056216223e-046 $224 0.18499999999999961 $221 $336 forward 7 unknown #
attrib_edge_convexity-kcp-attrib $-1 $337 $-1 $140 1 #
vertex $-1 $322 $338 #
straight-curve $-1 -4.0149999999999997 -6.6799999999999997 -4.9167945105968399e-016 0 -1 0 I I #
coedge $-1 $210 $141 $339 $340 forward $85 $-1 #
coedge $-1 $141 $341 $342 $343 forward $85 $-1 #
coedge $-1 $344 $345 $141 $229 reversed $346 $-1 #
edge $347 $348 0 $349 0.57499999999999929 $141 $350 forward 7 unknown #
model_id-kcp-attrib $-1 $-1 $-1 $142 1 990564524 80 -2075131903 12 #
plane-surface $-1 3.15267986366224 -4.2516886575930899 0 0 0 1 1 0 0 forward_v I I I I #
model_id-kcp-attrib $-1 $-1 $-1 $146 1 990564524 80 -2075131902 3 #
face $-1 $-1 $161 $21 $-1 $351 reversed single #
loop $-1 $-1 $249 $146 #
plane-surface $-1 0 3.75 0 0 -1 0 0 0 -1 forward_v I I I I #
coedge $-1 $352 $247 $250 $353 forward $147 $-1 #
coedge $-1 $253 $149 $150 $241 reversed $92 $-1 #
coedge $-1 $247 $352 $149 $239 reversed $147 $-1 #
edge $-1 $254 -2.1749999999999998 $354 2.1749999999999998 $238 $355 forward 7 unknown #
coedge $-1 $151 $150 $352 $356 forward $61 $-1 #
edge $-1 $245 -4.3499999999999996 $354 4.3499999999999996 $237 $357 forward 7 unknown #
coedge $-1 $250 $249 $151 $243 reversed $234 $-1 #
edge $-1 $358 -4.3499999999999996 $244 4.3499999999999996 $242 $359 forward 7 unknown #
vertex $-1 $153 $360 #
vertex $-1 $256 $361 #
straight-curve $-1 4.3499999999999996 0 -2.1749999999999998 0 -1 0 I I #
coedge $-1 $236 $238 $154 $248 reversed $147 $-1 #
edge $-1 $251 -3.75 $254 3.75 $247 $362 forward 7 unknown #
coedge $-1 $242 $155 $160 $257 forward $234 $-1 #
coedge $-1 $155 $242 $236 $353 reversed $234 $-1 #
vertex $-1 $156 $363 #
straight-curve $-1 0 3.75 2.1749999999999998 -1 0 0 I I #
coedge $-1 $157 $237 $159 $256 reversed $92 $-1 #
vertex $-1 $248 $364 #
straight-curve $-1 0 -3.75 2.1749999999999998 1 0 0 I I #
edge $-1 $162 -2.1749999999999998 $245 2.1749999999999998 $159 $365 forward 7 unknown #
edge $-1 $163 -2.1749999999999998 $244 2.1749999999999998 $160 $366 forward 7 unknown #
point $-1 4.3499999999999996 -3.75 2.1749999999999998 #
point $-1 4.3499999999999996 3.75 2.1749999999999998 #
face $-1 $367 $368 $23 $-1 $369 reversed single #
loop $-1 $-1 $273 $165 #
plane-surface $-1 0 3.75 0 0 -1 0 0 0 -1 forward_v I I I I #
coedge $-1 $370 $371 $264 $372 forward $166 $-1 #
coedge $-1 $168 $167 $263 $372 reversed $65 $-1 #
coedge $-1 $373 $374 $168 $266 reversed $375 $-1 #
edge $-1 $376 -3.75 $271 3.75 $265 $377 forward 7 unknown #
coedge $-1 $268 $169 $374 $378 forward $269 $-1 #
coedge $-1 $169 $267 $379 $380 reversed $269 $-1 #
loop $-1 $-1 $169 $381 #
vertex $-1 $380 $382 #
vertex $-1 $266 $383 #
ellipse-curve $-1 0 3.75 2.1749999999999998 0 -1 0 4.3499999999999996 0 0 1 I I #
coedge $-1 $384 $385 $171 $274 forward $261 $-1 #
edge $-1 $283 -3.1415926535897931 $270 -1.5707963267948966 $273 $272 forward 7 unknown #
coedge $-1 $386 $172 $177 $286 forward $278 $-1 #
coedge $-1 $172 $386 $384 $387 forward $278 $-1 #
coedge $-1 $379 $388 $167 $173 reversed $368 $-1 #
loop $-1 $-1 $172 $367 #
straight-curve $-1 0 -3.75 -2.1749999999999998 0 -1 0 I I #
coedge $-1 $389 $174 $385 $390 forward $282 $-1 #
coedge $-1 $174 $389 $176 $285 reversed $282 $-1 #
loop $-1 $-1 $280 $391 #
vertex $-1 $274 $392 #
straight-curve $-1 -4.3499999999999996 0 2.1749999999999998 0 -1 0 I I #
edge $-1 $179 -2.1749999999999998 $393 2.1749999999999998 $281 $394 forward 7 unknown #
edge $-1 $178 0 $393 4.3499999999999996 $177 $395 forward 7 unknown #
point $-1 0 -3.75 -2.1749999999999998 #
point $-1 -4.3499999999999996 -3.75 2.1749999999999998 #
coedge $-1 $292 $292 $290 $396 forward $181 $-1 #
coedge $-1 $184 $183 $289 $396 reversed $68 $-1 #
ellipse-curve $-1 0 -3.7500000000000018 2.1749999999999998 0 1 0 4.0149999999999997 0 0 1 I I #
coedge $-1 $289 $289 $187 $293 forward $181 $-1 #
edge $397 $296 -4.0149999999999997 $294 4.0149999999999997 $187 $398 forward 7 unknown #
vertex $-1 $396 $399 #
straight-curve $-1 4.0149999999999997 -2.9299999999999997 2.1749999999999998 0 -1 0 I I #
vertex $-1 $396 $400 #
straight-curve $-1 -4.0149999999999997 -2.9299999999999997 2.1749999999999994 0 -1 0 I I #
point $-1 -4.0149999999999997 -3.75 2.1749999999999994 #
point $-1 4.0149999999999997 -3.75 2.1749999999999998 #
model_id-kcp-attrib $-1 $-1 $-1 $194 1 990564524 80 -2075131903 8 #
face $401 $402 $403 $9 $-1 $404 forward single #
loop $-1 $-1 $405 $194 #
cone-surface $-1 0 -4.5428639454933997 0 0 1 0 3.9793060532100699 0 0 1 I I 0 -1 3.9793060532100699 forward I I I I #
coedge $-1 $406 $407 $408 $409 forward $195 $-1 #
coedge $-1 $410 $197 $407 $411 reversed $117 $-1 #
coedge $-1 $197 $410 $198 $309 forward $117 $-1 #
coedge $-1 $200 $408 $197 $308 reversed $85 $-1 #
edge $412 $314 0 $413 0.11177983623423145 $197 $414 forward 7 unknown #
edge $-1 $415 0 $314 3.1415926535897931 $306 $416 forward 7 unknown #
coedge $-1 $417 $200 $199 $311 forward $85 $-1 #
edge $418 $313 -6.1679056923619635e-018 $415 0.39593912722411356 $310 $419 forward 7 unknown #
attrib_edge_convexity-kcp-attrib $-1 $420 $-1 $201 1 #
vertex $-1 $311 $421 #
vertex $-1 $309 $422 #
ellipse-curve $-1 0.19015166817239501 -8.1863062035242304 2.3286094103383899e-017 -1.22460635382238e-016 0 1 -0.19015166817239501 5.9969861049606701 -2.3286094103383899e-017 1 I I #
attrib_edge_convexity-kcp-attrib $-1 $423 $203 $122 1 #
point $-1 4.3499999999999996 0 0 #
attrib_edge_convexity-kcp-attrib $-1 $424 $-1 $206 1 #
straight-curve $-1 4.3499999999999996 -7.5 0 0 1 0 I I #
convexity-sys-attrib $-1 $-1 $211 $129 #
coedge $-1 $339 $221 $215 $322 reversed $333 $-1 #
edge $-1 $324 0 $224 3.1415926535897931 $215 $425 forward 7 unknown #
attrib_edge_convexity-kcp-attrib $-1 $426 $-1 $216 1 #
vertex $-1 $340 $427 #
straight-curve $-1 4.0149999999999997 -6.6799999999999997 0 0 -1 0 I I #
model_id-kcp-attrib $-1 $-1 $-1 $217 1 990564524 80 -2075131903 13 #
face $428 $-1 $333 $9 $-1 $429 forward single #
cone-surface $-1 0 -7.0899999999999999 0 0 1 0 4.0149999999999997 0 0 1 I I 0 -1 4.0149999999999997 forward I I I I #
coedge $-1 $430 $220 $431 $432 reversed $85 $-1 #
coedge $-1 $345 $344 $220 $331 forward $346 $-1 #
edge $433 $434 0 $335 0.57499999999999929 $330 $435 forward 7 unknown #
coedge $-1 $221 $339 $345 $436 forward $333 $-1 #
loop $-1 $-1 $221 $327 #
attrib_edge_convexity-kcp-attrib $-1 $437 $-1 $222 1 #
vertex $-1 $436 $438 #
straight-curve $-1 -3.8300000000000001 -6.6799999999999997 -4.6902423351397105e-016 -1 0 -1.22460635382238e-016 I I #
convexity-sys-attrib $-1 $-1 $223 $140 #
point $-1 -4.0149999999999997 -6.6799999999999997 -4.9167945105968399e-016 #
coedge $-1 $332 $321 $226 $340 reversed $333 $-1 #
edge $439 $349 0 $324 0.18499999999999961 $226 $440 forward 7 unknown #
coedge $-1 $227 $441 $442 $443 forward $85 $-1 #
coedge $-1 $444 $445 $227 $343 reversed $446 $-1 #
edge $447 $448 -1.2297614694331023e-016 $348 0.20659733200633881 $227 $449 forward 7 unknown #
coedge $-1 $330 $228 $445 $450 forward $346 $-1 #
coedge $-1 $228 $330 $332 $436 reversed $346 $-1 #
loop $-1 $-1 $330 $451 #
attrib_edge_convexity-kcp-attrib $-1 $452 $-1 $229 1 #
vertex $-1 $229 $453 #
vertex $-1 $229 $454 #
straight-curve $-1 3.8300000000000001 -6.1050000000000004 0 0 -1 0 I I #
plane-surface $-1 4.3499999999999996 0 0 -1 0 0 0 0 1 forward_v I I I I #
coedge $-1 $238 $236 $240 $356 reversed $147 $-1 #
edge $-1 $251 -2.1749999999999998 $358 2.1749999999999998 $250 $455 forward 7 unknown #
vertex $-1 $356 $456 #
straight-curve $-1 -4.3499999999999996 -3.75 0 0 0 -1 I I #
edge $-1 $354 -3.75 $358 3.75 $352 $457 forward 7 unknown #
straight-curve $-1 0 -3.75 -2.1749999999999998 -1 0 0 I I #
vertex $-1 $243 $458 #
straight-curve $-1 0 3.75 -2.1749999999999998 1 0 0 I I #
point $-1 4.3499999999999996 3.75 -2.1749999999999998 #
point $-1 4.3499999999999996 -3.75 -2.1749999999999998 #
straight-curve $-1 -4.3499999999999996 0 2.1749999999999998 0 -1 0 I I #
point $-1 -4.3499999999999996 3.75 2.1749999999999998 #
point $-1 -4.3499999999999996 -3.75 2.1749999999999998 #
straight-curve $-1 4.3499999999999996 -3.75 0 0 0 -1 I I #
straight-curve $-1 4.3499999999999996 3.75 0 0 0 -1 I I #
face $-1 $391 $278 $23 $-1 $369 reversed single #
loop $-1 $-1 $277 $260 #
plane-surface $-1 0 0 -2.1749999999999998 0 0 1 1 0 0 forward_v I I I I #
coedge $-1 $371 $263 $388 $459 reversed $166 $-1 #
coedge $-1 $263 $370 $373 $460 reversed $166 $-1 #
edge $-1 $376 0 $178 1.5707963267948966 $263 $180 forward 7 unknown #
coedge $-1 $461 $265 $371 $460 forward $375 $-1 #
coedge $-1 $265 $461 $267 $378 reversed $375 $-1 #
loop $-1 $-1 $373 $462 #
vertex $-1 $266 $463 #
straight-curve $-1 4.3499999999999996 0 2.1749999999999998 0 1 0 I I #
edge $-1 $271 -2.1749999999999998 $464 2.1749999999999998 $374 $465 forward 7 unknown #
coedge $-1 $466 $277 $268 $380 forward $368 $-1 #
edge $-1 $270 0 $464 4.3499999999999996 $268 $467 forward 7 unknown #
face $-1 $462 $269 $23 $-1 $262 reversed single #
point $-1 0 3.75 -2.1749999999999998 #
point $-1 4.3499999999999996 3.75 2.1749999999999998 #
coedge $-1 $385 $273 $276 $387 reversed $261 $-1 #
coedge $-1 $273 $384 $280 $390 reversed $261 $-1 #
coedge $-1 $276 $275 $389 $468 forward $278 $-1 #
edge $-1 $469 -4.3499999999999996 $270 0 $384 $467 forward 7 unknown #
coedge $-1 $277 $466 $370 $459 forward $368 $-1 #
coedge $-1 $281 $280 $386 $468 reversed $282 $-1 #
edge $-1 $283 -2.1749999999999998 $469 2.1749999999999998 $385 $470 forward 7 unknown #
face $-1 $381 $282 $23 $-1 $471 reversed single #
point $-1 -4.3499999999999996 3.75 2.1749999999999998 #
vertex $-1 $468 $472 #
straight-curve $-1 -4.3499999999999996 -3.75 0 0 0 -1 I I #
straight-curve $-1 0 -3.75 -2.1749999999999998 -1 0 0 I I #
edge $473 $294 0 $296 3.1415926535897931 $290 $474 forward 7 unknown #
convexity-sys-attrib $-1 $-1 $-1 $293 #
straight-curve $-1 0 -2.9300000000000015 2.1749999999999998 1 0 0 I I #
point $-1 4.0149999999999997 -2.9299999999999997 2.1749999999999998 #
point $-1 -4.0149999999999997 -2.9299999999999997 2.1749999999999994 #
model_id-kcp-attrib $-1 $-1 $-1 $301 1 990564524 80 -2075131903 9 #
face $475 $451 $446 $9 $-1 $476 forward single #
loop $-1 $-1 $477 $301 #
torus-surface $-1 0 -4.6647624988048104 0 0 1 0 -0.037108038058810501 -4.0164140912688797 0 0 1 forward_v I I I I #
coedge $-1 $478 $479 $480 $481 forward $302 $-1 #
coedge $-1 $482 $304 $479 $483 reversed $195 $-1 #
coedge $-1 $304 $482 $305 $411 forward $195 $-1 #
coedge $-1 $307 $480 $304 $409 reversed $85 $-1 #
edge $484 $413 -1.4342787276285768e-016 $485 1.2549397835879064 $304 $486 forward 7 unknown #
coedge $-1 $306 $305 $417 $487 reversed $117 $-1 #
edge $-1 $488 0 $413 3.1415926535897931 $407 $489 forward 7 unknown #
attrib_edge_convexity-kcp-attrib $-1 $490 $-1 $308 1 #
vertex $-1 $411 $491 #
ellipse-curve $-1 -4.8107122053779898 2.7861949913527901 -5.8912287331167503e-016 1.22460635382238e-016 0 -1 2.5125367345670799 -5.5128099902941798 3.0768684493629702e-016 1 I I #
vertex $-1 $311 $492 #
ellipse-curve $-1 0 -2.7266149989413901 0 0 1 0 2.2981754708109099 0 0 1 I I #
coedge $-1 $493 $310 $410 $487 forward $85 $-1 #
attrib_edge_convexity-kcp-attrib $-1 $494 $-1 $311 1 #
ellipse-curve $-1 -0.19015166817239501 -8.1863062035242304 0 0 0 -1 0.19015166817239501 5.9969861049606701 0 1 I I #
convexity-sys-attrib $-1 $-1 $312 $201 #
point $-1 0 -2.1893200985635599 0 #
point $-1 -2.2981754708109099 -2.7266149989413901 -2.8143602837537801e-016 #
convexity-sys-attrib $-1 $-1 $316 $122 #
convexity-sys-attrib $-1 $-1 $318 $206 #
ellipse-curve $-1 0 -6.6799999999999997 0 0 1 0 4.0149999999999997 0 0 1 I I #
convexity-sys-attrib $-1 $-1 $323 $216 #
point $-1 4.0149999999999997 -6.6799999999999997 0 #
model_id-kcp-attrib $-1 $-1 $-1 $327 1 990564524 80 -2075131903 14 #
plane-surface $-1 3.9224999999999999 -6.6799999999999997 0 0 -1 0 0 0 -1 forward_v I I I I #
coedge $-1 $480 $329 $477 $495 reversed $85 $-1 #
coedge $-1 $445 $444 $329 $432 forward $446 $-1 #
edge $496 $497 -1.2297614694331023e-016 $434 0.20659733200633881 $431 $498 forward 7 unknown #
attrib_edge_convexity-kcp-attrib $-1 $499 $-1 $331 1 #
vertex $-1 $450 $500 #
straight-curve $-1 -3.8300000000000001 -6.1050000000000004 -4.6902423351397105e-016 0 -1 0 I I #
edge $-1 $349 0 $335 3.1415926535897931 $332 $501 forward 7 unknown #
convexity-sys-attrib $-1 $-1 $334 $222 #
point $-1 -3.8300000000000001 -6.6799999999999997 -4.6902423351396996e-016 #
attrib_edge_convexity-kcp-attrib $-1 $502 $-1 $340 1 #
straight-curve $-1 3.8300000000000001 -6.6799999999999997 0 1 0 0 I I #
coedge $-1 $341 $493 $503 $504 forward $85 $-1 #
coedge $-1 $505 $506 $341 $443 reversed $403 $-1 #
edge $507 $508 0 $448 0.20659733200633965 $341 $509 forward 7 unknown #
coedge $-1 $431 $342 $506 $510 forward $446 $-1 #
coedge $-1 $342 $431 $344 $450 reversed $446 $-1 #
loop $-1 $-1 $431 $402 #
attrib_edge_convexity-kcp-attrib $-1 $511 $-1 $343 1 #
vertex $-1 $443 $512 #
ellipse-curve $-1 6.8346554243264599 -6.1050000000000004 0 0 0 1 -2.94076013862021 0.61634732581301999 0 1 I I #
edge $-1 $348 0 $434 3.1415926535897931 $344 $513 forward 7 unknown #
face $514 $142 $346 $9 $-1 $515 forward single #
convexity-sys-attrib $-1 $-1 $347 $229 #
point $-1 3.8300000000000001 -6.1050000000000004 0 #
point $-1 3.8300000000000001 -6.6799999999999997 0 #
straight-curve $-1 -4.3499999999999996 3.75 0 0 0 -1 I I #
point $-1 -4.3499999999999996 -3.75 -2.1749999999999998 #
straight-curve $-1 -4.3499999999999996 0 -2.1749999999999998 0 1 0 I I #
point $-1 -4.3499999999999996 3.75 -2.1749999999999998 #
edge $-1 $516 -4.3499999999999996 $178 0 $370 $395 forward 7 unknown #
edge $-1 $376 -2.1749999999999998 $516 2.1749999999999998 $373 $517 forward 7 unknown #
coedge $-1 $374 $373 $466 $518 reversed $375 $-1 #
face $-1 $-1 $375 $23 $-1 $519 reversed single #
point $-1 4.3499999999999996 -3.75 2.1749999999999998 #
vertex $-1 $518 $520 #
straight-curve $-1 4.3499999999999996 3.75 0 0 0 -1 I I #
coedge $-1 $388 $379 $461 $518 forward $368 $-1 #
straight-curve $-1 0 3.75 -2.1749999999999998 1 0 0 I I #
edge $-1 $393 -3.75 $469 3.75 $389 $521 forward 7 unknown #
vertex $-1 $387 $522 #
straight-curve $-1 -4.3499999999999996 3.75 0 0 0 -1 I I #
plane-surface $-1 -4.3499999999999996 0 0 1 0 0 0 0 -1 forward_v I I I I #
point $-1 -4.3499999999999996 -3.75 -2.1749999999999998 #
convexity-sys-attrib $-1 $-1 $-1 $396 #
ellipse-curve $-1 0 -2.9300000000000015 2.1749999999999998 0 1 0 4.0149999999999997 0 0 1 I I #
model_id-kcp-attrib $-1 $-1 $-1 $402 1 990564524 80 -2075131903 10 #
torus-surface $-1 0 -6.1050000000000004 0 0 1 0 6.8346554243264599 3.0046554243264598 0 0 1 forward_v I I I I #
coedge $-1 $506 $505 $430 $495 forward $403 $-1 #
coedge $-1 $503 $405 $505 $523 reversed $302 $-1 #
coedge $-1 $405 $503 $406 $483 forward $302 $-1 #
coedge $-1 $408 $430 $405 $481 reversed $85 $-1 #
edge $524 $485 0 $525 0.24379710662282061 $405 $526 forward 7 unknown #
coedge $-1 $407 $406 $493 $527 reversed $195 $-1 #
edge $-1 $528 0 $485 3.1415926535897931 $479 $529 forward 7 unknown #
attrib_edge_convexity-kcp-attrib $-1 $530 $-1 $409 1 #
vertex $-1 $483 $531 #
ellipse-curve $-1 -2.45543238883389 -4.4209653921819898 -3.0069381047472398e-016 -1.22460635382238e-016 0 1 -0.47336202789046999 1.4484886383850899 -5.7968214701291504e-017 1 I I #
edge $532 $415 0 $488 0.11177983623423145 $417 $533 forward 7 unknown #
vertex $-1 $487 $534 #
ellipse-curve $-1 0 -2.9724767537968999 0 0 1 0 2.9287944167243598 0 0 1 I I #
convexity-sys-attrib $-1 $-1 $412 $308 #
point $-1 -2.9287944167243598 -2.9724767537968999 -3.5866202517601599e-016 #
point $-1 2.2981754708109099 -2.7266149989413901 0 #
coedge $-1 $441 $417 $482 $527 forward $85 $-1 #
convexity-sys-attrib $-1 $-1 $418 $311 #
edge $535 $525 0 $497 0.2065973320063397 $477 $536 forward 7 unknown #
attrib_edge_convexity-kcp-attrib $-1 $537 $-1 $432 1 #
vertex $-1 $510 $538 #
ellipse-curve $-1 -6.8346554243264599 -6.1050000000000004 -8.3697624588167604e-016 1.22460635382238e-016 0 -1 2.94076013862021 0.61634732581301999 3.60127355082188e-016 1 I I #
convexity-sys-attrib $-1 $-1 $433 $331 #
point $-1 -3.8300000000000001 -6.1050000000000004 -4.6902423351396996e-016 #
ellipse-curve $-1 0 -6.6799999999999997 0 0 1 0 3.8300000000000001 0 0 1 I I #
convexity-sys-attrib $-1 $-1 $439 $340 #
coedge $-1 $479 $478 $441 $504 reversed $302 $-1 #
edge $539 $528 0 $508 0.24379710662282061 $441 $540 forward 7 unknown #
coedge $-1 $477 $442 $478 $523 forward $403 $-1 #
coedge $-1 $442 $477 $444 $510 reversed $403 $-1 #
attrib_edge_convexity-kcp-attrib $-1 $541 $-1 $443 1 #
vertex $-1 $504 $542 #
ellipse-curve $-1 -0.037108038058810501 -4.6647624988048104 0 0 0 -1 4.0164140912688797 0 0 1 I I #
edge $-1 $448 0 $497 3.1415926535897931 $444 $543 forward 7 unknown #
convexity-sys-attrib $-1 $-1 $447 $343 #
point $-1 3.8938952857062499 -5.4886526741869801 0 #
ellipse-curve $-1 0 -6.1050000000000004 0 0 1 0 3.8300000000000001 0 0 1 I I #
model_id-kcp-attrib $-1 $-1 $-1 $451 1 990564524 80 -2075131903 11 #
cone-surface $-1 0 -6.3925000000000001 0 0 1 0 3.8300000000000001 0 0 1 I I 0 -1 3.8300000000000001 forward I I I I #
vertex $-1 $460 $544 #
straight-curve $-1 4.3499999999999996 -3.75 0 0 0 -1 I I #
edge $-1 $464 -3.75 $516 3.75 $461 $545 forward 7 unknown #
plane-surface $-1 4.3499999999999996 0 0 -1 0 0 0 0 1 forward_v I I I I #
point $-1 4.3499999999999996 3.75 -2.1749999999999998 #
straight-curve $-1 -4.3499999999999996 0 -2.1749999999999998 0 1 0 I I #
point $-1 -4.3499999999999996 3.75 -2.1749999999999998 #
edge $-1 $508 0 $525 3.1415926535897931 $505 $546 forward 7 unknown #
attrib_edge_convexity-kcp-attrib $-1 $547 $-1 $481 1 #
vertex $-1 $523 $548 #
straight-curve $-1 -3.9793060532100699 -4.4209653921819898 -4.8730834765649001e-016 0 -1 0 I I #
edge $549 $488 -1.4342787276285768e-016 $528 1.2549397835879064 $493 $550 forward 7 unknown #
vertex $-1 $527 $551 #
ellipse-curve $-1 0 -4.4209653921819898 0 0 1 0 3.9793060532100601 0 0 1 I I #
convexity-sys-attrib $-1 $-1 $484 $409 #
point $-1 -3.9793060532100601 -4.4209653921819898 -4.8730834765648903e-016 #
attrib_edge_convexity-kcp-attrib $-1 $552 $-1 $487 1 #
ellipse-curve $-1 4.8107122053779898 2.7861949913527901 0 0 0 1 -2.5125367345670799 -5.5128099902941798 0 1 I I #
point $-1 2.9287944167243598 -2.9724767537968999 0 #
attrib_edge_convexity-kcp-attrib $-1 $553 $-1 $495 1 #
ellipse-curve $-1 0.037108038058809599 -4.6647624988048104 4.5442739184700901e-018 -1.22460635382238e-016 0 1 -4.0164140912688797 0 -4.9185262157496002e-016 1 I I #
convexity-sys-attrib $-1 $-1 $496 $432 #
point $-1 -3.8938952857062499 -5.4886526741869801 -4.76848890799488e-016 #
attrib_edge_convexity-kcp-attrib $-1 $554 $-1 $504 1 #
straight-curve $-1 3.9793060532100699 -4.4209653921819898 0 0 -1 0 I I #
convexity-sys-attrib $-1 $-1 $507 $443 #
point $-1 3.9793060532100699 -4.6647624988048104 0 #
ellipse-curve $-1 0 -5.4886526741869801 0 0 1 0 3.8938952857062499 0 0 1 I I #
point $-1 4.3499999999999996 -3.75 -2.1749999999999998 #
straight-curve $-1 4.3499999999999996 0 -2.1749999999999998 0 -1 0 I I #
ellipse-curve $-1 0 -4.6647624988048104 0 0 1 0 3.9793060532100699 0 0 1 I I #
convexity-sys-attrib $-1 $-1 $524 $481 #
point $-1 -3.9793060532100699 -4.6647624988048104 -4.8730834765649001e-016 #
attrib_edge_convexity-kcp-attrib $-1 $555 $-1 $527 1 #
ellipse-curve $-1 2.45543238883389 -4.4209653921819898 0 0 0 -1 0.47336202789046999 1.4484886383850899 0 1 I I #
point $-1 3.9793060532100601 -4.4209653921819898 0 #
convexity-sys-attrib $-1 $-1 $532 $487 #
convexity-sys-attrib $-1 $-1 $535 $495 #
convexity-sys-attrib $-1 $-1 $539 $504 #
convexity-sys-attrib $-1 $-1 $549 $527 #
End-of-ACIS-data 