103 204 0 0                                 
body $1 $2 $-1 $-1 #
f_body-lwd-attrib $-1 $3 $-1 $0 #
lump $-1 $-1 $4 $0 #
ref_vt-lwd-attrib $-1 $-1 $1 $0 $5 $-1 #
shell $-1 $-1 $-1 $6 $2 #
refinement $-1 0 0 0 0 0.222249999642372 30 0 0 0 #
face $7 $8 $9 $4 $-1 $10 0 #
fface-lwd-attrib $-1 $-1 $-1 $6 #
face $11 $12 $13 $4 $-1 $10 0 #
loop $-1 $-1 $14 $6 #
cone-surface $-1 29.8394730402671 -13.8265856191971 -7.19288122476415 1 0 0 0 2.2225 0 1 0 1 0 #
fface-lwd-attrib $-1 $-1 $-1 $8 #
face $15 $16 $17 $4 $-1 $18 0 #
loop $-1 $-1 $19 $8 #
coedge $20 $21 $22 $23 $24 1 $9 $-1 #
fface-lwd-attrib $-1 $-1 $-1 $12 #
face $25 $26 $27 $4 $-1 $28 0 #
loop $-1 $-1 $29 $12 #
plane-surface $-1 39.999473040267 -13.8265856191971 -7.19288122476415 1 0 0 0 1 0 0 #
coedge $30 $31 $32 $22 $33 1 $13 $-1 #
copar-lwd-attrib $-1 $-1 $-1 $14 #
coedge $34 $35 $14 $36 $37 0 $9 $-1 #
coedge $38 $14 $35 $19 $33 0 $9 $-1 #
coedge $39 $40 $41 $14 $24 0 $42 $-1 #
edge $43 $44 $45 $23 $46 0 #
fface-lwd-attrib $-1 $-1 $-1 $16 #
face $47 $48 $42 $4 $-1 $49 1 #
loop $-1 $-1 $50 $16 #
plane-surface $-1 19.6794730402671 -13.8265856191971 -13.1271086247642 -1 0 0 0 -1 0 0 #
coedge $51 $52 $52 $31 $53 0 $17 $-1 #
copar-lwd-attrib $-1 $-1 $-1 $19 #
coedge $54 $36 $19 $29 $53 1 $13 $-1 #
coedge $55 $19 $56 $57 $58 1 $13 $-1 #
edge $59 $60 $45 $22 $61 0 #
copar-lwd-attrib $-1 $-1 $-1 $21 #
coedge $62 $22 $21 $52 $63 1 $9 $-1 #
coedge $64 $65 $31 $21 $37 1 $13 $-1 #
edge $66 $44 $67 $21 $68 0 #
copar-lwd-attrib $-1 $-1 $-1 $22 #
copar-lwd-attrib $-1 $-1 $-1 $23 #
coedge $69 $70 $23 $71 $72 0 $42 $-1 #
coedge $73 $23 $70 $74 $75 1 $42 $-1 #
loop $-1 $-1 $23 $26 #
epar-lwd-attrib $-1 $-1 $-1 $24 #
vertex $-1 $24 $76 #
vertex $-1 $24 $77 #
ellipse-curve $-1 34.9194730402671 -13.8265856191971 -7.19288122476415 -1 0 0 0 2.2225 0 1 #
fface-lwd-attrib $-1 $-1 $-1 $26 #
face $78 $79 $80 $4 $-1 $81 1 #
plane-surface $-1 34.9194730402671 -13.8265856191971 -10.1599949247642 -1 0 0 0 0 1 0 #
coedge $82 $83 $84 $85 $86 0 $27 $-1 #
copar-lwd-attrib $-1 $-1 $-1 $29 #
coedge $87 $29 $29 $35 $63 0 $17 $-1 #
edge $88 $67 $60 $29 $89 0 #
copar-lwd-attrib $-1 $-1 $-1 $31 #
copar-lwd-attrib $-1 $-1 $-1 $32 #
coedge $90 $32 $65 $84 $91 1 $13 $-1 #
coedge $92 $93 $71 $32 $58 0 $80 $-1 #
edge $94 $45 $95 $57 $96 1 #
epar-lwd-attrib $-1 $-1 $-1 $33 #
vertex $-1 $53 $97 #
straight-curve $-1 29.8394730402671 -16.0490856191971 -7.19288122476414 -1 -0 -0 #
copar-lwd-attrib $-1 $-1 $-1 $35 #
edge $98 $60 $67 $52 $89 0 #
copar-lwd-attrib $-1 $-1 $-1 $36 #
coedge $99 $56 $36 $100 $101 1 $13 $-1 #
epar-lwd-attrib $-1 $-1 $-1 $37 #
vertex $-1 $63 $102 #
straight-curve $-1 29.8394730402671 -11.6040856191971 -7.19288122476417 1 0 0 #
copar-lwd-attrib $-1 $-1 $-1 $40 #
coedge $103 $41 $40 $104 $105 1 $42 $-1 #
coedge $106 $57 $107 $40 $72 1 $80 $-1 #
edge $108 $45 $109 $40 $110 0 #
copar-lwd-attrib $-1 $-1 $-1 $41 #
coedge $111 $112 $100 $41 $75 0 $113 $-1 #
edge $114 $44 $115 $41 $116 0 #
point $-1 34.9194730402671 -11.6040856191971 -7.19288122476415 #
point $-1 34.9194730402671 -16.0490856191971 -7.19288122476415 #
fface-lwd-attrib $-1 $-1 $-1 $48 #
face $117 $118 $113 $4 $-1 $119 1 #
loop $-1 $-1 $57 $48 #
plane-surface $-1 27.2994730402671 -16.0490856191971 -10.1599949247642 0 1 0 0 0 1 0 #
copar-lwd-attrib $-1 $-1 $-1 $50 #
coedge $120 $121 $50 $122 $123 0 $27 $-1 #
coedge $124 $50 $121 $56 $91 0 $27 $-1 #
coedge $125 $100 $112 $50 $86 1 $113 $-1 #
edge $126 $127 $128 $85 $129 0 #
copar-lwd-attrib $-1 $-1 $-1 $52 #
epar-lwd-attrib $-1 $-1 $-1 $53 #
ellipse-curve $-1 39.999473040267 -13.8265856191971 -7.19288122476415 1 0 0 0 2.2225 0 1 #
copar-lwd-attrib $-1 $-1 $-1 $56 #
edge $130 $95 $127 $84 $131 0 #
copar-lwd-attrib $-1 $-1 $-1 $57 #
coedge $132 $107 $57 $121 $133 0 $80 $-1 #
epar-lwd-attrib $-1 $-1 $-1 $58 #
vertex $-1 $91 $134 #
straight-curve $-1 27.2994730402671 -16.0490856191971 -7.19288122476415 1 0 0 #
point $-1 39.999473040267 -16.0490856191971 -7.19288122476414 #
epar-lwd-attrib $-1 $-1 $-1 $63 #
copar-lwd-attrib $-1 $-1 $-1 $65 #
coedge $135 $74 $85 $65 $101 0 $113 $-1 #
edge $136 $127 $44 $100 $137 1 #
point $-1 39.999473040267 -11.6040856191971 -7.19288122476415 #
copar-lwd-attrib $-1 $-1 $-1 $70 #
coedge $138 $139 $140 $70 $105 0 $141 $-1 #
edge $142 $115 $109 $104 $143 0 #
copar-lwd-attrib $-1 $-1 $-1 $71 #
coedge $144 $71 $93 $145 $146 1 $80 $-1 #
epar-lwd-attrib $-1 $-1 $-1 $72 #
vertex $-1 $147 $148 #
straight-curve $-1 34.9194730402671 -16.0490856191971 -10.1599949247642 0 0 -1 #
copar-lwd-attrib $-1 $-1 $-1 $74 #
coedge $149 $85 $74 $150 $151 1 $113 $-1 #
loop $-1 $-1 $100 $79 #
epar-lwd-attrib $-1 $-1 $-1 $75 #
vertex $-1 $151 $152 #
straight-curve $-1 34.9194730402671 -11.6040856191971 -10.1599949247642 0 0 -1 #
fface-lwd-attrib $-1 $-1 $-1 $79 #
face $153 $154 $141 $4 $-1 $155 0 #
plane-surface $-1 27.2994730402671 -11.6040856191971 -10.1599949247642 0 -1 0 0 0 -1 0 #
copar-lwd-attrib $-1 $-1 $-1 $83 #
coedge $156 $84 $83 $93 $133 1 $27 $-1 #
coedge $157 $150 $145 $83 $123 1 $158 $-1 #
edge $159 $128 $160 $83 $161 0 #
copar-lwd-attrib $-1 $-1 $-1 $84 #
copar-lwd-attrib $-1 $-1 $-1 $85 #
epar-lwd-attrib $-1 $-1 $-1 $86 #
vertex $-1 $101 $162 #
vertex $-1 $123 $163 #
straight-curve $-1 19.6794730402671 -11.6040856191971 -10.1599949247642 0 0 -1 #
epar-lwd-attrib $-1 $-1 $-1 $91 #
ellipse-curve $-1 19.6794730402671 -13.8265856191971 -7.19288122476415 -1 0 0 0 2.2225 0 1 #
copar-lwd-attrib $-1 $-1 $-1 $93 #
edge $164 $95 $160 $121 $165 0 #
point $-1 19.6794730402671 -16.0490856191971 -7.19288122476415 #
copar-lwd-attrib $-1 $-1 $-1 $100 #
epar-lwd-attrib $-1 $-1 $-1 $101 #
straight-curve $-1 27.2994730402671 -11.6040856191971 -7.19288122476415 -1 0 0 #
copar-lwd-attrib $-1 $-1 $-1 $104 #
coedge $166 $167 $104 $168 $147 1 $141 $-1 #
coedge $169 $104 $167 $170 $171 1 $141 $-1 #
loop $-1 $-1 $104 $118 #
epar-lwd-attrib $-1 $-1 $-1 $105 #
ellipse-curve $-1 34.9194730402671 -13.8265856191971 -13.1271086247642 1 -0 -0 0 2.2225 0 1 #
copar-lwd-attrib $-1 $-1 $-1 $107 #
coedge $172 $122 $168 $107 $146 0 $158 $-1 #
edge $173 $109 $160 $145 $174 0 #
edge $175 $176 $109 $168 $174 0 #
point $-1 34.9194730402671 -16.0490856191971 -13.1271086247642 #
copar-lwd-attrib $-1 $-1 $-1 $112 #
coedge $177 $170 $122 $112 $151 0 $158 $-1 #
edge $178 $128 $115 $150 $179 0 #
point $-1 34.9194730402671 -11.6040856191971 -13.1271086247642 #
fface-lwd-attrib $-1 $-1 $-1 $118 #
face $180 $181 $158 $4 $-1 $155 0 #
cone-surface $-1 29.8394730402671 -13.8265856191971 -13.1271086247642 1 0 0 0 2.2225 0 1 0 1 0 #
copar-lwd-attrib $-1 $-1 $-1 $121 #
copar-lwd-attrib $-1 $-1 $-1 $122 #
loop $-1 $-1 $168 $154 #
epar-lwd-attrib $-1 $-1 $-1 $123 #
vertex $-1 $123 $182 #
ellipse-curve $-1 19.6794730402671 -13.8265856191971 -13.1271086247642 -1 0 0 0 2.2225 0 1 #
point $-1 19.6794730402671 -11.6040856191971 -7.19288122476415 #
point $-1 19.6794730402671 -11.6040856191971 -13.1271086247642 #
epar-lwd-attrib $-1 $-1 $-1 $133 #
straight-curve $-1 19.6794730402671 -16.0490856191971 -10.1599949247642 0 0 -1 #
copar-lwd-attrib $-1 $-1 $-1 $139 #
coedge $183 $140 $139 $184 $185 1 $141 $-1 #
coedge $186 $145 $187 $139 $147 0 $158 $-1 #
copar-lwd-attrib $-1 $-1 $-1 $140 #
coedge $188 $187 $150 $140 $171 0 $158 $-1 #
edge $189 $115 $190 $170 $179 0 #
copar-lwd-attrib $-1 $-1 $-1 $145 #
epar-lwd-attrib $-1 $-1 $-1 $146 #
straight-curve $-1 29.8394730402671 -16.0490856191971 -13.1271086247641 -1 -0 -0 #
epar-lwd-attrib $-1 $-1 $-1 $147 #
vertex $-1 $185 $191 #
copar-lwd-attrib $-1 $-1 $-1 $150 #
epar-lwd-attrib $-1 $-1 $-1 $151 #
straight-curve $-1 29.8394730402671 -11.6040856191971 -13.1271086247642 1 0 0 #
fface-lwd-attrib $-1 $-1 $-1 $154 #
face $192 $-1 $193 $4 $-1 $194 0 #
point $-1 19.6794730402671 -16.0490856191971 -13.1271086247641 #
copar-lwd-attrib $-1 $-1 $-1 $167 #
coedge $195 $196 $196 $167 $185 0 $193 $-1 #
edge $197 $190 $176 $184 $198 0 #
copar-lwd-attrib $-1 $-1 $-1 $168 #
coedge $199 $168 $170 $196 $200 1 $158 $-1 #
copar-lwd-attrib $-1 $-1 $-1 $170 #
epar-lwd-attrib $-1 $-1 $-1 $171 #
vertex $-1 $200 $201 #
point $-1 39.999473040267 -16.0490856191971 -13.1271086247641 #
fface-lwd-attrib $-1 $-1 $-1 $181 #
loop $-1 $-1 $184 $181 #
plane-surface $-1 39.999473040267 -13.8265856191971 -13.1271086247642 1 0 0 0 1 0 0 #
copar-lwd-attrib $-1 $-1 $-1 $184 #
coedge $202 $184 $184 $187 $200 0 $193 $-1 #
epar-lwd-attrib $-1 $-1 $-1 $185 #
ellipse-curve $-1 39.999473040267 -13.8265856191971 -13.1271086247642 1 0 0 0 2.2225 0 1 #
copar-lwd-attrib $-1 $-1 $-1 $187 #
edge $203 $176 $190 $196 $198 0 #
point $-1 39.999473040267 -11.6040856191971 -13.1271086247642 #
copar-lwd-attrib $-1 $-1 $-1 $196 #
epar-lwd-attrib $-1 $-1 $-1 $200 #
