104 227 0 0                             
body $1 $2 $-1 $-1 #
f_body-lwd-attrib $-1 $3 $-1 $0 #
lump $-1 $-1 $4 $0 #
ref_vt-lwd-attrib $-1 $-1 $1 $0 $5 $-1 #
shell $-1 $-1 $-1 $6 $2 #
refinement $-1 0 0 0 0 0.217500001192093 30 0 0 0 #
face $-1 $7 $8 $4 $-1 $9 0 #
face $-1 $10 $11 $4 $-1 $12 0 #
loop $-1 $-1 $13 $6 #
plane-surface $-1 4.1825 -7.5 0 -0 -1 -0 0 0 -1 0 #
face $-1 $14 $15 $4 $-1 $16 0 #
loop $-1 $-1 $17 $7 #
cone-surface $-1 0 -3.75 0 0 1 0 4.35 0 0 1 0 1 0 #
coedge $-1 $18 $19 $20 $21 0 $8 $-1 #
face $-1 $22 $23 $4 $-1 $24 0 #
loop $-1 $-1 $25 $10 #
plane-surface $-1 2.175 0 0 0 1 0 0 0 1 0 #
coedge $-1 $26 $27 $28 $29 0 $11 $-1 #
coedge $-1 $30 $13 $27 $31 1 $8 $-1 #
coedge $-1 $13 $30 $32 $33 0 $8 $-1 #
coedge $-1 $34 $28 $13 $21 1 $35 $-1 #
edge $-1 $36 $37 $13 $38 0 #
face $-1 $39 $40 $4 $-1 $41 0 #
loop $-1 $-1 $42 $14 #
torus-surface $-1 0 -8.18630620352423 0 0 1 0 -0.190151668172395 -6.00000000000001 0 0 1 0 #
coedge $-1 $43 $43 $44 $45 1 $15 $-1 #
coedge $-1 $46 $17 $43 $47 1 $11 $-1 #
coedge $-1 $17 $46 $18 $31 0 $11 $-1 #
coedge $-1 $20 $44 $17 $29 1 $35 $-1 #
edge $-1 $37 $48 $17 $49 0 #
coedge $-1 $19 $18 $50 $51 1 $8 $-1 #
edge $-1 $52 $37 $27 $53 0 #
coedge $-1 $54 $55 $19 $33 1 $56 $-1 #
edge $-1 $57 $36 $19 $58 0 #
coedge $-1 $59 $20 $55 $60 1 $35 $-1 #
loop $-1 $-1 $61 $62 #
vertex $-1 $33 $63 #
vertex $-1 $31 $64 #
straight-curve $-1 -4.015 -7.5 -4.91679451059684e-16 -1 0 -1.22460635382238e-16 #
face $-1 $65 $66 $4 $-1 $67 0 #
loop $-1 $-1 $68 $22 #
torus-surface $-1 0 2.78619499135279 0 0 1 0 4.81071220537799 6.05837559347688 0 0 1 0 #
coedge $-1 $69 $70 $71 $72 0 $23 $-1 #
coedge $-1 $25 $25 $26 $47 0 $15 $-1 #
coedge $-1 $28 $73 $25 $45 0 $35 $-1 #
edge $-1 $74 $48 $44 $75 0 #
coedge $-1 $27 $26 $73 $76 1 $11 $-1 #
edge $-1 $74 $48 $43 $77 0 #
vertex $-1 $47 $78 #
straight-curve $-1 -4.35 -7.5 -5.32703763912734e-16 0 1 0 #
coedge $-1 $73 $79 $30 $51 0 $35 $-1 #
edge $-1 $57 $52 $50 $80 0 #
vertex $-1 $51 $81 #
ellipse-curve $-1 0 -7.5 0 0 1 0 4.35 0 0 1 #
coedge $-1 $82 $32 $79 $83 1 $56 $-1 #
coedge $-1 $32 $82 $34 $60 0 $56 $-1 #
loop $-1 $-1 $55 $84 #
vertex $-1 $83 $85 #
ellipse-curve $-1 0 -7.5 0 0 1 0 4.015 0 0 1 #
coedge $-1 $86 $34 $87 $88 1 $35 $-1 #
edge $-1 $89 $36 $55 $90 0 #
coedge $-1 $91 $92 $93 $94 0 $35 $-1 #
face $-1 $84 $35 $4 $-1 $95 0 #
point $-1 -4.015 -7.5 -4.91679451059684e-16 #
point $-1 -4.35 -7.5 -5.32703763912734e-16 #
face $-1 $96 $97 $4 $-1 $98 0 #
loop $-1 $-1 $99 $39 #
torus-surface $-1 0 -4.42096539218199 0 0 1 0 2.45543238883389 -1.52387366437617 0 0 1 0 #
coedge $-1 $100 $101 $102 $103 0 $40 $-1 #
coedge $-1 $70 $42 $101 $104 1 $23 $-1 #
coedge $-1 $42 $69 $105 $106 1 $23 $-1 #
coedge $-1 $105 $102 $42 $72 1 $35 $-1 #
edge $-1 $107 $108 $42 $109 0 #
coedge $-1 $44 $50 $46 $76 0 $35 $-1 #
vertex $-1 $76 $110 #
straight-curve $-1 4.35 0 0 -1 0 0 #
edge $-1 $52 $74 $73 $111 0 #
ellipse-curve $-1 0 0 0 0 1 0 4.35 0 0 1 #
point $-1 -4.35 0 -5.32703763912734e-16 #
coedge $-1 $50 $91 $54 $83 0 $35 $-1 #
straight-curve $-1 4.015 -7.5 0 1 0 0 #
point $-1 4.35 -7.5 0 #
coedge $-1 $55 $54 $112 $113 0 $56 $-1 #
edge $-1 $114 $57 $79 $115 0 #
face $-1 $116 $56 $4 $-1 $117 0 #
point $-1 4.015 -7.5 0 #
coedge $-1 $118 $59 $119 $120 1 $35 $-1 #
coedge $-1 $112 $121 $59 $88 0 $122 $-1 #
edge $-1 $123 $89 $87 $124 0 #
vertex $-1 $113 $125 #
straight-curve $-1 -4.015 -6.68 -4.91679451059684e-16 0 -1 -0 #
coedge $-1 $79 $61 $126 $127 0 $35 $-1 #
coedge $-1 $61 $128 $129 $130 0 $35 $-1 #
coedge $-1 $131 $132 $61 $94 1 $133 $-1 #
edge $-1 $134 $135 $61 $136 0 #
plane-surface $-1 3.15267986366224 -4.25168865759309 0 0 0 1 1 0 0 0 #
face $-1 $137 $138 $4 $-1 $139 0 #
loop $-1 $-1 $140 $65 #
cone-surface $-1 0 -4.5428639454934 0 0 1 0 3.97930605321007 0 0 1 0 -1 0 #
coedge $-1 $141 $142 $143 $144 0 $66 $-1 #
coedge $-1 $145 $68 $142 $146 1 $40 $-1 #
coedge $-1 $68 $145 $69 $104 0 $40 $-1 #
coedge $-1 $71 $143 $68 $103 1 $35 $-1 #
edge $-1 $108 $147 $68 $148 0 #
edge $-1 $149 $108 $101 $150 0 #
coedge $-1 $151 $71 $70 $106 0 $35 $-1 #
edge $-1 $107 $149 $105 $152 0 #
vertex $-1 $106 $153 #
vertex $-1 $104 $154 #
ellipse-curve $-1 0.190151668172395 -8.18630620352423 2.32860941033839e-17 -1.22460635382238e-16 0 1 -0.190151668172395 5.99698610496067 -2.32860941033839e-17 1 #
point $-1 4.35 0 0 #
straight-curve $-1 4.35 -7.5 0 0 1 0 #
coedge $-1 $126 $87 $82 $113 1 $122 $-1 #
edge $-1 $114 $89 $82 $155 0 #
vertex $-1 $127 $156 #
straight-curve $-1 4.015 -6.68 0 0 -1 0 #
face $-1 $-1 $122 $4 $-1 $157 0 #
cone-surface $-1 0 -7.09 0 0 1 0 4.015 0 0 1 0 -1 0 #
coedge $-1 $158 $86 $159 $160 1 $35 $-1 #
coedge $-1 $132 $131 $86 $120 0 $133 $-1 #
edge $-1 $161 $123 $119 $162 0 #
coedge $-1 $87 $126 $132 $163 0 $122 $-1 #
loop $-1 $-1 $87 $116 #
vertex $-1 $163 $164 #
straight-curve $-1 -3.83 -6.68 -4.69024233513971e-16 -1 0 -1.22460635382238e-16 #
point $-1 -4.015 -6.68 -4.91679451059684e-16 #
coedge $-1 $121 $112 $91 $127 1 $122 $-1 #
edge $-1 $135 $114 $91 $165 0 #
coedge $-1 $92 $166 $167 $168 0 $35 $-1 #
coedge $-1 $169 $170 $92 $130 1 $171 $-1 #
edge $-1 $172 $134 $92 $173 0 #
coedge $-1 $119 $93 $170 $174 0 $133 $-1 #
coedge $-1 $93 $119 $121 $163 1 $133 $-1 #
loop $-1 $-1 $119 $175 #
vertex $-1 $94 $176 #
vertex $-1 $94 $177 #
straight-curve $-1 3.83 -6.105 0 0 -1 0 #
face $-1 $175 $171 $4 $-1 $178 0 #
loop $-1 $-1 $179 $96 #
torus-surface $-1 0 -4.66476249880481 0 0 1 0 -0.0371080380588105 -4.01641409126888 0 0 1 0 #
coedge $-1 $180 $181 $182 $183 0 $97 $-1 #
coedge $-1 $184 $99 $181 $185 1 $66 $-1 #
coedge $-1 $99 $184 $100 $146 0 $66 $-1 #
coedge $-1 $102 $182 $99 $144 1 $35 $-1 #
edge $-1 $147 $186 $99 $187 0 #
coedge $-1 $101 $100 $151 $188 1 $40 $-1 #
edge $-1 $189 $147 $142 $190 0 #
vertex $-1 $146 $191 #
ellipse-curve $-1 -4.81071220537799 2.78619499135279 -5.89122873311675e-16 1.22460635382238e-16 0 -1 2.51253673456708 -5.51280999029418 3.07686844936297e-16 1 #
vertex $-1 $106 $192 #
ellipse-curve $-1 0 -2.72661499894139 0 0 1 0 2.29817547081091 0 0 1 #
coedge $-1 $193 $105 $145 $188 0 $35 $-1 #
ellipse-curve $-1 -0.190151668172395 -8.18630620352423 0 0 0 -1 0.190151668172395 5.99698610496067 0 1 #
point $-1 0 -2.18932009856356 0 #
point $-1 -2.29817547081091 -2.72661499894139 -2.81436028375378e-16 #
ellipse-curve $-1 0 -6.68 0 0 1 0 4.015 0 0 1 #
point $-1 4.015 -6.68 0 #
plane-surface $-1 3.9225 -6.68 0 -0 -1 -0 0 0 -1 0 #
coedge $-1 $182 $118 $179 $194 1 $35 $-1 #
coedge $-1 $170 $169 $118 $160 0 $171 $-1 #
edge $-1 $195 $161 $159 $196 0 #
vertex $-1 $174 $197 #
straight-curve $-1 -3.83 -6.105 -4.69024233513971e-16 0 -1 -0 #
edge $-1 $135 $123 $121 $198 0 #
point $-1 -3.83 -6.68 -4.6902423351397e-16 #
straight-curve $-1 3.83 -6.68 0 1 0 0 #
coedge $-1 $128 $193 $199 $200 0 $35 $-1 #
coedge $-1 $201 $202 $128 $168 1 $138 $-1 #
edge $-1 $203 $172 $128 $204 0 #
coedge $-1 $159 $129 $202 $205 0 $171 $-1 #
coedge $-1 $129 $159 $131 $174 1 $171 $-1 #
loop $-1 $-1 $159 $137 #
vertex $-1 $168 $206 #
ellipse-curve $-1 6.83465542432646 -6.105 0 0 0 1 -2.94076013862021 0.61634732581302 0 1 #
edge $-1 $134 $161 $131 $207 0 #
face $-1 $62 $133 $4 $-1 $208 0 #
point $-1 3.83 -6.105 0 #
point $-1 3.83 -6.68 0 #
torus-surface $-1 0 -6.105 0 0 1 0 6.83465542432646 3.00465542432646 0 0 1 0 #
coedge $-1 $202 $201 $158 $194 0 $138 $-1 #
coedge $-1 $199 $140 $201 $209 1 $97 $-1 #
coedge $-1 $140 $199 $141 $185 0 $97 $-1 #
coedge $-1 $143 $158 $140 $183 1 $35 $-1 #
edge $-1 $186 $210 $140 $211 0 #
coedge $-1 $142 $141 $193 $212 1 $66 $-1 #
edge $-1 $213 $186 $181 $214 0 #
vertex $-1 $185 $215 #
ellipse-curve $-1 -2.45543238883389 -4.42096539218199 -3.00693810474724e-16 -1.22460635382238e-16 0 1 -0.47336202789047 1.44848863838509 -5.79682147012915e-17 1 #
edge $-1 $149 $189 $151 $216 0 #
vertex $-1 $188 $217 #
ellipse-curve $-1 0 -2.9724767537969 0 0 1 0 2.92879441672436 0 0 1 #
point $-1 -2.92879441672436 -2.9724767537969 -3.58662025176016e-16 #
point $-1 2.29817547081091 -2.72661499894139 0 #
coedge $-1 $166 $151 $184 $212 0 $35 $-1 #
edge $-1 $210 $195 $179 $218 0 #
vertex $-1 $205 $219 #
ellipse-curve $-1 -6.83465542432646 -6.105 -8.36976245881676e-16 1.22460635382238e-16 0 -1 2.94076013862021 0.61634732581302 3.60127355082188e-16 1 #
point $-1 -3.83 -6.105 -4.6902423351397e-16 #
ellipse-curve $-1 0 -6.68 0 0 1 0 3.83 0 0 1 #
coedge $-1 $181 $180 $166 $200 1 $97 $-1 #
edge $-1 $213 $203 $166 $220 0 #
coedge $-1 $179 $167 $180 $209 0 $138 $-1 #
coedge $-1 $167 $179 $169 $205 1 $138 $-1 #
vertex $-1 $200 $221 #
ellipse-curve $-1 -0.0371080380588105 -4.66476249880481 0 0 0 -1 4.01641409126888 0 0 1 #
edge $-1 $172 $195 $169 $222 0 #
point $-1 3.89389528570625 -5.48865267418698 0 #
ellipse-curve $-1 0 -6.105 0 0 1 0 3.83 0 0 1 #
cone-surface $-1 0 -6.3925 0 0 1 0 3.83 0 0 1 0 -1 0 #
edge $-1 $203 $210 $201 $223 0 #
vertex $-1 $209 $224 #
straight-curve $-1 -3.97930605321007 -4.42096539218199 -4.8730834765649e-16 0 -1 -0 #
edge $-1 $189 $213 $193 $225 0 #
vertex $-1 $212 $226 #
ellipse-curve $-1 0 -4.42096539218199 0 0 1 0 3.97930605321006 0 0 1 #
point $-1 -3.97930605321006 -4.42096539218199 -4.87308347656489e-16 #
ellipse-curve $-1 4.81071220537799 2.78619499135279 0 0 0 1 -2.51253673456708 -5.51280999029418 0 1 #
point $-1 2.92879441672436 -2.9724767537969 0 #
ellipse-curve $-1 0.0371080380588096 -4.66476249880481 4.54427391847009e-18 -1.22460635382238e-16 0 1 -4.01641409126888 0 -4.9185262157496e-16 1 #
point $-1 -3.89389528570625 -5.48865267418698 -4.76848890799488e-16 #
straight-curve $-1 3.97930605321007 -4.42096539218199 0 0 -1 0 #
point $-1 3.97930605321007 -4.66476249880481 0 #
ellipse-curve $-1 0 -5.48865267418698 0 0 1 0 3.89389528570625 0 0 1 #
ellipse-curve $-1 0 -4.66476249880481 0 0 1 0 3.97930605321007 0 0 1 #
point $-1 -3.97930605321007 -4.66476249880481 -4.8730834765649e-16 #
ellipse-curve $-1 2.45543238883389 -4.42096539218199 0 0 0 -1 0.47336202789047 1.44848863838509 0 1 #
point $-1 3.97930605321006 -4.42096539218199 0 #
