104 492 0 0                             
body $1 $2 $-1 $-1 #
f_body-lwd-attrib $-1 $3 $-1 $0 #
lump $-1 $-1 $4 $0 #
ref_vt-lwd-attrib $-1 $-1 $1 $0 $5 $-1 #
shell $-1 $-1 $-1 $6 $2 #
refinement $-1 0 0 0 0 0.0688502267003059 30 0 0 0 #
face $7 $8 $9 $4 $-1 $10 1 #
fface-lwd-attrib $-1 $-1 $-1 $6 #
face $11 $12 $13 $4 $-1 $14 1 #
loop $-1 $-1 $15 $6 #
plane-surface $-1 1.968504 -1.268871 -0.2952756 0 0.226651352942877 -0.973975956689467 -1 0 0 0 #
fface-lwd-attrib $-1 $-1 $-1 $8 #
face $16 $17 $18 $4 $-1 $19 0 #
loop $-1 $-1 $20 $8 #
plane-surface $-1 1.968504 -1.574803 -0.2952756 -0 -0 -1 -1 0 0 0 #
coedge $21 $22 $23 $24 $25 1 $9 $-1 #
fface-lwd-attrib $-1 $-1 $-1 $12 #
face $26 $27 $28 $4 $-1 $29 1 #
loop $-1 $30 $31 $12 #
plane-surface $-1 5.55111512312578e-17 1.08792127315719 0 0 0 1 1 0 0 0 #
coedge $32 $33 $33 $34 $35 1 $13 $-1 #
copar-lwd-attrib $-1 $-1 $-1 $15 #
coedge $36 $37 $15 $33 $38 1 $9 $-1 #
coedge $39 $15 $37 $31 $40 1 $9 $-1 #
coedge $41 $42 $34 $15 $25 0 $43 $-1 #
edge $44 $45 $46 $24 $47 0 #
fface-lwd-attrib $-1 $-1 $-1 $17 #
face $48 $49 $50 $4 $-1 $51 1 #
loop $-1 $-1 $52 $17 #
plane-surface $-1 1.968504 3.149606 -0.1574803 0 -0 1 1 0 -0 0 #
loop $-1 $-1 $53 $12 #
coedge $54 $55 $56 $23 $40 0 $18 $-1 #
copar-lwd-attrib $-1 $-1 $-1 $20 #
coedge $57 $20 $20 $22 $38 0 $13 $-1 #
coedge $58 $24 $59 $20 $35 0 $43 $-1 #
edge $60 $61 $45 $34 $62 0 #
copar-lwd-attrib $-1 $-1 $-1 $22 #
coedge $63 $23 $22 $59 $64 1 $9 $-1 #
edge $65 $61 $45 $22 $66 0 #
copar-lwd-attrib $-1 $-1 $-1 $23 #
edge $67 $46 $68 $31 $69 0 #
copar-lwd-attrib $-1 $-1 $-1 $24 #
coedge $70 $71 $24 $72 $73 0 $43 $-1 #
loop $-1 $-1 $24 $74 #
epar-lwd-attrib $-1 $-1 $-1 $25 #
vertex $-1 $35 $75 #
vertex $-1 $25 $76 #
ellipse-curve $-1 0 0 -6.30105397182065e-09 0 0.226651352942877 -0.973975956689467 0 -1.377953 -0.320659775630654 0.973975956689467 #
fface-lwd-attrib $-1 $-1 $-1 $27 #
face $77 $78 $79 $4 $-1 $80 0 #
loop $-1 $-1 $81 $27 #
plane-surface $-1 1.968504 2.528684 -0.1574803 0 -0.295708077124244 0.955278353739622 1 0 -0 0 #
coedge $82 $83 $83 $84 $85 1 $28 $-1 #
coedge $86 $87 $87 $88 $89 0 $30 $-1 #
copar-lwd-attrib $-1 $-1 $-1 $31 #
coedge $90 $91 $31 $92 $93 1 $18 $-1 #
coedge $94 $31 $95 $96 $97 1 $18 $-1 #
copar-lwd-attrib $-1 $-1 $-1 $33 #
copar-lwd-attrib $-1 $-1 $-1 $34 #
coedge $98 $34 $99 $37 $64 0 $43 $-1 #
epar-lwd-attrib $-1 $-1 $-1 $35 #
vertex $-1 $35 $100 #
ellipse-curve $-1 0 0 -0.2952756 -0 -0 -1 1.377953 0 0 1 #
copar-lwd-attrib $-1 $-1 $-1 $37 #
edge $101 $68 $61 $59 $102 0 #
epar-lwd-attrib $-1 $-1 $-1 $38 #
straight-curve $-1 1.968504 -1.268871 -0.2952756 -1 0 0 #
epar-lwd-attrib $-1 $-1 $-1 $40 #
vertex $-1 $93 $103 #
straight-curve $-1 0.984252 2.70771603749775e-08 -3.46944695195361e-18 1 -0 0 #
copar-lwd-attrib $-1 $-1 $-1 $42 #
coedge $104 $99 $42 $105 $106 0 $43 $-1 #
coedge $107 $96 $108 $42 $73 1 $109 $-1 #
edge $110 $46 $111 $42 $112 0 #
face $113 $114 $43 $4 $-1 $115 0 #
point $-1 -0.537327512386998 -1.268871 -0.2952756 #
point $-1 -1.377953 -1.68744999906861e-16 0 #
fface-lwd-attrib $-1 $-1 $-1 $49 #
face $116 $117 $118 $4 $-1 $119 0 #
loop $-1 $-1 $120 $49 #
cone-surface $-1 0 1.574803 0 0 0 -1 -1.031046 0.576148 0 1 0 1 0 #
coedge $121 $122 $123 $120 $124 1 $50 $-1 #
copar-lwd-attrib $-1 $-1 $-1 $52 #
coedge $125 $52 $52 $123 $126 0 $28 $-1 #
coedge $127 $128 $120 $52 $85 0 $79 $-1 #
edge $129 $130 $131 $84 $132 0 #
copar-lwd-attrib $-1 $-1 $-1 $53 #
coedge $133 $53 $53 $134 $135 0 $30 $-1 #
coedge $136 $137 $138 $53 $89 1 $139 $-1 #
edge $140 $141 $142 $53 $143 0 #
copar-lwd-attrib $-1 $-1 $-1 $55 #
coedge $144 $145 $55 $146 $147 1 $18 $-1 #
coedge $148 $149 $150 $55 $93 0 $151 $-1 #
edge $152 $153 $68 $92 $154 0 #
copar-lwd-attrib $-1 $-1 $-1 $56 #
coedge $155 $56 $145 $156 $157 1 $18 $-1 #
coedge $158 $159 $72 $56 $97 0 $109 $-1 #
edge $160 $46 $161 $96 $162 0 #
copar-lwd-attrib $-1 $-1 $-1 $59 #
coedge $163 $59 $71 $149 $164 1 $43 $-1 #
point $-1 0.537327512386998 -1.268871 -0.2952756 #
epar-lwd-attrib $-1 $-1 $-1 $64 #
ellipse-curve $-1 0 0 -6.30105397182065e-09 0 0.226651352942877 -0.973975956689467 0 -1.377953 -0.320659775630654 0.973975956689467 #
point $-1 1.377953 0 0 #
copar-lwd-attrib $-1 $-1 $-1 $71 #
coedge $165 $166 $167 $71 $106 1 $168 $-1 #
edge $169 $111 $170 $71 $171 0 #
copar-lwd-attrib $-1 $-1 $-1 $72 #
coedge $172 $72 $159 $166 $173 0 $109 $-1 #
loop $-1 $-1 $108 $174 #
epar-lwd-attrib $-1 $-1 $-1 $73 #
vertex $-1 $73 $175 #
straight-curve $-1 -1.377953 0 0 0 0 -1 #
fface-lwd-attrib $-1 $-1 $-1 $74 #
face $176 $177 $151 $4 $-1 $178 0 #
cone-surface $-1 0 0 0 0 0 -1 1.377953 0 0 1 0 1 0 #
fface-lwd-attrib $-1 $-1 $-1 $78 #
face $179 $180 $168 $4 $-1 $181 0 #
loop $-1 $-1 $182 $78 #
plane-surface $-1 -1.031046 2.150951 0 -0.878901559741307 0.477003195255858 0 0 -0 1 0 #
coedge $183 $84 $184 $81 $124 0 $79 $-1 #
copar-lwd-attrib $-1 $-1 $-1 $81 #
coedge $185 $186 $81 $187 $188 1 $50 $-1 #
coedge $189 $81 $190 $83 $126 1 $50 $-1 #
edge $191 $192 $130 $120 $193 0 #
copar-lwd-attrib $-1 $-1 $-1 $83 #
edge $194 $130 $131 $123 $195 0 #
copar-lwd-attrib $-1 $-1 $-1 $84 #
coedge $196 $197 $84 $190 $198 0 $79 $-1 #
epar-lwd-attrib $-1 $-1 $-1 $85 #
vertex $-1 $85 $199 #
vertex $-1 $85 $200 #
ellipse-curve $-1 0 1.574803 -0.1574803 0 -0 1 -1.031046 0.576148 0 1 #
copar-lwd-attrib $-1 $-1 $-1 $87 #
coedge $201 $202 $203 $87 $135 1 $204 $-1 #
edge $205 $142 $141 $87 $206 0 #
copar-lwd-attrib $-1 $-1 $-1 $88 #
coedge $207 $208 $88 $203 $209 1 $139 $-1 #
coedge $210 $88 $208 $202 $211 1 $139 $-1 #
loop $-1 $-1 $88 $180 #
epar-lwd-attrib $-1 $-1 $-1 $89 #
vertex $-1 $89 $212 #
vertex $-1 $89 $213 #
ellipse-curve $-1 0 1.574803 0 -0 -0 -1 1.1008528749454 0 0 1 #
copar-lwd-attrib $-1 $-1 $-1 $91 #
coedge $214 $95 $91 $215 $216 1 $18 $-1 #
coedge $217 $218 $219 $91 $147 0 $220 $-1 #
edge $221 $222 $153 $146 $223 0 #
copar-lwd-attrib $-1 $-1 $-1 $92 #
coedge $224 $225 $92 $99 $164 0 $151 $-1 #
coedge $226 $92 $225 $218 $227 1 $151 $-1 #
loop $-1 $-1 $225 $114 #
epar-lwd-attrib $-1 $-1 $-1 $93 #
vertex $-1 $147 $228 #
straight-curve $-1 1.377953 1.511758 0 0 -1 0 #
copar-lwd-attrib $-1 $-1 $-1 $95 #
coedge $229 $230 $231 $95 $157 0 $118 $-1 #
edge $232 $161 $233 $156 $234 0 #
copar-lwd-attrib $-1 $-1 $-1 $96 #
coedge $235 $108 $96 $231 $236 0 $109 $-1 #
epar-lwd-attrib $-1 $-1 $-1 $97 #
vertex $-1 $97 $237 #
straight-curve $-1 -1.377953 0 0 0 1 0 #
copar-lwd-attrib $-1 $-1 $-1 $99 #
edge $238 $68 $170 $149 $239 0 #
copar-lwd-attrib $-1 $-1 $-1 $105 #
coedge $240 $241 $105 $108 $173 1 $168 $-1 #
coedge $242 $105 $243 $225 $244 1 $168 $-1 #
loop $-1 $245 $246 $117 #
epar-lwd-attrib $-1 $-1 $-1 $106 #
vertex $-1 $164 $247 #
ellipse-curve $-1 0 0 -0.4527559 0 0 1 1.377953 0 0 1 #
copar-lwd-attrib $-1 $-1 $-1 $108 #
edge $248 $249 $111 $108 $250 0 #
face $251 $74 $109 $4 $-1 $252 0 #
point $-1 -1.377953 0 -0.4527559 #
fface-lwd-attrib $-1 $-1 $-1 $114 #
face $253 $254 $220 $4 $-1 $255 0 #
plane-surface $-1 1.377953 0 0 1 0 0 0 0 -1 0 #
fface-lwd-attrib $-1 $-1 $-1 $117 #
face $256 $257 $139 $4 $-1 $258 0 #
plane-surface $-1 5.55111512312578e-17 1.08792127315719 -0.4527559 0 0 -1 -1 0 0 0 #
coedge $259 $260 $230 $261 $262 0 $118 $-1 #
copar-lwd-attrib $-1 $-1 $-1 $120 #
coedge $263 $120 $215 $219 $264 0 $79 $-1 #
copar-lwd-attrib $-1 $-1 $-1 $122 #
coedge $265 $261 $122 $246 $266 1 $50 $-1 #
coedge $267 $219 $268 $122 $188 0 $220 $-1 #
edge $269 $270 $192 $187 $271 0 #
copar-lwd-attrib $-1 $-1 $-1 $123 #
coedge $272 $123 $261 $128 $198 1 $50 $-1 #
epar-lwd-attrib $-1 $-1 $-1 $124 #
vertex $-1 $264 $273 #
ellipse-curve $-1 0 1.574803 -0.452755823841959 0 -0.295708077124244 0.955278353739622 -3.33066907387547e-16 1.18110218525748 0.365612237231672 0.955278353739622 #
epar-lwd-attrib $-1 $-1 $-1 $126 #
straight-curve $-1 1.968504 2.528684 -0.1574803 -1 0 0 #
copar-lwd-attrib $-1 $-1 $-1 $128 #
coedge $274 $215 $128 $230 $275 1 $79 $-1 #
edge $276 $131 $277 $128 $278 0 #
point $-1 0.696500832633386 2.528684 -0.1574803 #
point $-1 -0.696500832633386 2.528684 -0.1574803 #
copar-lwd-attrib $-1 $-1 $-1 $134 #
coedge $279 $280 $134 $138 $211 0 $204 $-1 #
coedge $281 $134 $280 $137 $209 0 $204 $-1 #
loop $-1 $-1 $134 $282 #
epar-lwd-attrib $-1 $-1 $-1 $135 #
ellipse-curve $-1 0 1.574803 0 -0 -0 -1 1.1008528749454 0 0 1 #
copar-lwd-attrib $-1 $-1 $-1 $137 #
coedge $283 $138 $137 $284 $285 1 $139 $-1 #
edge $286 $287 $141 $203 $288 0 #
copar-lwd-attrib $-1 $-1 $-1 $138 #
edge $289 $142 $290 $202 $291 0 #
point $-1 0 2.6756558749454 0 #
point $-1 -1.34811142528177e-16 0.473950125054595 0 #
copar-lwd-attrib $-1 $-1 $-1 $145 #
coedge $292 $184 $197 $145 $216 0 $79 $-1 #
edge $293 $233 $222 $215 $294 0 #
copar-lwd-attrib $-1 $-1 $-1 $146 #
coedge $295 $268 $146 $150 $227 0 $220 $-1 #
coedge $296 $146 $187 $184 $264 1 $220 $-1 #
loop $-1 $-1 $187 $177 #
epar-lwd-attrib $-1 $-1 $-1 $147 #
vertex $-1 $216 $297 #
straight-curve $-1 1.031046 2.150951 0 0.477003195255858 -0.878901559741307 0 #
copar-lwd-attrib $-1 $-1 $-1 $149 #
coedge $298 $150 $149 $167 $244 0 $151 $-1 #
copar-lwd-attrib $-1 $-1 $-1 $150 #
edge $299 $153 $300 $218 $301 0 #
point $-1 1.377953 1.511758 0 #
copar-lwd-attrib $-1 $-1 $-1 $156 #
coedge $302 $182 $156 $197 $275 0 $118 $-1 #
coedge $303 $156 $260 $159 $236 1 $118 $-1 #
epar-lwd-attrib $-1 $-1 $-1 $157 #
vertex $-1 $216 $304 #
straight-curve $-1 -1.377953 1.511758 0 0.477003195255858 0.878901559741307 0 #
copar-lwd-attrib $-1 $-1 $-1 $159 #
edge $305 $161 $249 $159 $306 0 #
point $-1 -1.377953 1.511758 0 #
epar-lwd-attrib $-1 $-1 $-1 $164 #
straight-curve $-1 1.377953 0 0 0 0 -1 #
copar-lwd-attrib $-1 $-1 $-1 $166 #
coedge $307 $246 $166 $260 $308 1 $168 $-1 #
copar-lwd-attrib $-1 $-1 $-1 $167 #
coedge $309 $167 $246 $268 $310 1 $168 $-1 #
edge $311 $170 $300 $225 $312 0 #
loop $-1 $-1 $313 $117 #
coedge $314 $243 $241 $186 $266 0 $168 $-1 #
point $-1 1.377953 0 -0.4527559 #
epar-lwd-attrib $-1 $-1 $-1 $173 #
vertex $-1 $236 $315 #
straight-curve $-1 -1.377953 0 -0.4527559 -0 -1 -0 #
fface-lwd-attrib $-1 $-1 $-1 $174 #
plane-surface $-1 -1.377953 1.511758 0 -1 0 0 0 -0 1 0 #
fface-lwd-attrib $-1 $-1 $-1 $177 #
face $316 $317 $318 $4 $-1 $319 0 #
plane-surface $-1 1.377953 1.511758 0 0.878901559741307 0.477003195255858 0 0 0 -1 0 #
fface-lwd-attrib $-1 $-1 $-1 $180 #
face $320 $282 $321 $4 $-1 $322 0 #
torus-surface $-1 0 1.574803 0.06295275 0 0 1 1.103091 -0.0629925228604357 -1 1.22460635382238e-16 0 0 #
copar-lwd-attrib $-1 $-1 $-1 $182 #
coedge $323 $231 $182 $241 $308 0 $118 $-1 #
coedge $324 $190 $186 $182 $262 1 $50 $-1 #
edge $325 $277 $326 $182 $327 0 #
copar-lwd-attrib $-1 $-1 $-1 $184 #
edge $328 $222 $192 $184 $329 0 #
copar-lwd-attrib $-1 $-1 $-1 $186 #
edge $330 $326 $270 $246 $331 0 #
copar-lwd-attrib $-1 $-1 $-1 $187 #
coedge $332 $187 $218 $243 $310 0 $220 $-1 #
epar-lwd-attrib $-1 $-1 $-1 $188 #
vertex $-1 $310 $333 #
straight-curve $-1 1.19447984005526 1.84981621019627 -0.367625005947315 -0.460272657677674 0.848074731495662 0.262523009263744 #
copar-lwd-attrib $-1 $-1 $-1 $190 #
point $-1 1.031046 2.150951 -0.274408207618869 #
copar-lwd-attrib $-1 $-1 $-1 $197 #
edge $334 $233 $277 $230 $335 0 #
epar-lwd-attrib $-1 $-1 $-1 $198 #
vertex $-1 $275 $336 #
ellipse-curve $-1 0 1.574803 -0.452755823841959 0 -0.295708077124244 0.955278353739622 -3.33066907387547e-16 1.18110218525748 0.365612237231672 0.955278353739622 #
copar-lwd-attrib $-1 $-1 $-1 $202 #
coedge $337 $203 $202 $338 $339 1 $204 $-1 #
copar-lwd-attrib $-1 $-1 $-1 $203 #
face $340 $341 $204 $4 $-1 $342 0 #
copar-lwd-attrib $-1 $-1 $-1 $208 #
coedge $343 $344 $345 $208 $285 0 $321 $-1 #
edge $346 $290 $287 $284 $347 0 #
epar-lwd-attrib $-1 $-1 $-1 $209 #
vertex $-1 $348 $349 #
ellipse-curve $-1 0 2.677894 0.06295275 1 0 0 0 -0.0400990000000001 0.04858115 1 #
epar-lwd-attrib $-1 $-1 $-1 $211 #
vertex $-1 $339 $350 #
ellipse-curve $-1 -1.35085224744428e-16 0.471712 0.06295275 1 -1.22460635382238e-16 -0 4.91054901819236e-18 0.0400990000000001 0.04858115 1 #
copar-lwd-attrib $-1 $-1 $-1 $215 #
epar-lwd-attrib $-1 $-1 $-1 $216 #
ellipse-curve $-1 0 1.574803 0 -0 0 -1 -1.031046 0.576148 0 1 #
copar-lwd-attrib $-1 $-1 $-1 $218 #
copar-lwd-attrib $-1 $-1 $-1 $219 #
point $-1 1.031046 2.150951 0 #
copar-lwd-attrib $-1 $-1 $-1 $225 #
epar-lwd-attrib $-1 $-1 $-1 $227 #
vertex $-1 $227 $351 #
straight-curve $-1 1.377953 1.511758 0 0 0 -1 #
copar-lwd-attrib $-1 $-1 $-1 $230 #
copar-lwd-attrib $-1 $-1 $-1 $231 #
point $-1 -1.031046 2.150951 0 #
epar-lwd-attrib $-1 $-1 $-1 $236 #
straight-curve $-1 -1.377953 1.511758 0 0 0 -1 #
copar-lwd-attrib $-1 $-1 $-1 $241 #
edge $352 $326 $249 $260 $353 0 #
copar-lwd-attrib $-1 $-1 $-1 $243 #
edge $354 $300 $270 $268 $355 0 #
epar-lwd-attrib $-1 $-1 $-1 $244 #
straight-curve $-1 1.377953 1.511758 -0.4527559 0 1 0 #
coedge $356 $357 $357 $358 $359 1 $245 $-1 #
copar-lwd-attrib $-1 $-1 $-1 $246 #
point $-1 -1.377953 1.511758 -0.4527559 #
fface-lwd-attrib $-1 $-1 $-1 $254 #
face $360 $361 $362 $4 $-1 $363 0 #
loop $-1 $-1 $364 $254 #
torus-surface $-1 0 0 -0.5157087 0 0 1 1.299941 -0.0629921 1 0 0 0 #
fface-lwd-attrib $-1 $-1 $-1 $257 #
loop $-1 $-1 $344 $257 #
cone-surface $-1 0 1.574803 0.28141575 0 0 1 -1.30174675726236e-16 -1.062992 0 1 -0 1 0 #
copar-lwd-attrib $-1 $-1 $-1 $260 #
copar-lwd-attrib $-1 $-1 $-1 $261 #
epar-lwd-attrib $-1 $-1 $-1 $262 #
vertex $-1 $266 $365 #
straight-curve $-1 -0.615951083422329 2.91578354881577 -0.0376529608921227 -0.460272657677674 -0.848074731495662 -0.262523009263744 #
epar-lwd-attrib $-1 $-1 $-1 $264 #
straight-curve $-1 1.031046 2.150951 0 0 0 -1 #
epar-lwd-attrib $-1 $-1 $-1 $266 #
straight-curve $-1 0.984252 1.57480275397314 -0.4527559 1 0 0 #
copar-lwd-attrib $-1 $-1 $-1 $268 #
point $-1 1.343736939332 1.57480275397314 -0.4527559 #
epar-lwd-attrib $-1 $-1 $-1 $275 #
straight-curve $-1 -1.031046 2.150951 0 0 0 -1 #
point $-1 -1.031046 2.150951 -0.274408207618869 #
copar-lwd-attrib $-1 $-1 $-1 $280 #
coedge $366 $367 $368 $280 $339 0 $369 $-1 #
edge $370 $287 $290 $338 $371 0 #
fface-lwd-attrib $-1 $-1 $-1 $282 #
face $372 $373 $369 $4 $-1 $374 0 #
torus-surface $-1 0 1.574803 0.06295275 0 0 1 1.103091 -0.0629925228604357 1 0 0 0 #
copar-lwd-attrib $-1 $-1 $-1 $284 #
coedge $375 $376 $284 $368 $348 1 $321 $-1 #
coedge $377 $284 $376 $367 $378 1 $321 $-1 #
epar-lwd-attrib $-1 $-1 $-1 $285 #
ellipse-curve $-1 0 1.574803 0.1115339 0 0 1 -1.30174675726236e-16 -1.062992 0 1 #
edge $379 $380 $287 $368 $381 0 #
point $-1 0 2.637795 0.1115339 #
point $-1 -1.30174675726236e-16 0.511811 0.1115339 #
point $-1 1.377953 1.511758 -0.4527559 #
epar-lwd-attrib $-1 $-1 $-1 $308 #
straight-curve $-1 -1.377953 1.511758 -0.4527559 -0.477003195255858 -0.878901559741307 -0 #
epar-lwd-attrib $-1 $-1 $-1 $310 #
straight-curve $-1 1.031046 2.150951 -0.4527559 -0.477003195255858 0.878901559741307 0 #
copar-lwd-attrib $-1 $-1 $-1 $313 #
coedge $382 $313 $313 $364 $383 1 $245 $-1 #
coedge $384 $385 $386 $313 $359 0 $387 $-1 #
edge $388 $389 $390 $358 $391 0 #
fface-lwd-attrib $-1 $-1 $-1 $317 #
face $392 $393 $387 $4 $-1 $394 0 #
loop $-1 $-1 $395 $317 #
cone-surface $-1 0 0 -0.744998427016074 0 0 1 -1.54281161423448e-16 -1.25984289516291 0 1 -5.80144833108484e-07 0.999999999999832 0 #
coedge $396 $397 $398 $357 $383 0 $318 $-1 #
point $-1 -1.343736939332 1.57480275397314 -0.4527559 #
copar-lwd-attrib $-1 $-1 $-1 $338 #
coedge $399 $400 $338 $345 $378 0 $369 $-1 #
coedge $401 $338 $400 $344 $348 0 $369 $-1 #
loop $-1 $-1 $367 $341 #
epar-lwd-attrib $-1 $-1 $-1 $339 #
ellipse-curve $-1 0 1.574803 0.1115339 0 0 1 0 1.062992 0 1 #
fface-lwd-attrib $-1 $-1 $-1 $341 #
face $402 $174 $403 $4 $-1 $404 0 #
cone-surface $-1 0 1.574803 0.28141575 0 0 1 0 1.062992 0 1 -0 1 0 #
copar-lwd-attrib $-1 $-1 $-1 $344 #
coedge $405 $345 $344 $406 $407 1 $321 $-1 #
copar-lwd-attrib $-1 $-1 $-1 $345 #
edge $408 $290 $409 $367 $410 0 #
epar-lwd-attrib $-1 $-1 $-1 $348 #
vertex $-1 $411 $412 #
straight-curve $-1 0 2.637795 0.4512976 0 0 -1 #
copar-lwd-attrib $-1 $-1 $-1 $357 #
edge $413 $390 $389 $364 $414 0 #
copar-lwd-attrib $-1 $-1 $-1 $358 #
coedge $415 $416 $358 $398 $417 1 $387 $-1 #
coedge $418 $358 $416 $397 $419 1 $387 $-1 #
loop $-1 $-1 $358 $361 #
epar-lwd-attrib $-1 $-1 $-1 $359 #
vertex $-1 $359 $420 #
vertex $-1 $417 $421 #
ellipse-curve $-1 0 0 -0.4527559 0 0 -1 1.29771622257967 0 0 1 #
fface-lwd-attrib $-1 $-1 $-1 $361 #
face $422 $423 $424 $4 $-1 $425 0 #
torus-surface $-1 0 0 -0.5157087 0 0 1 1.299941 -0.0629921 -1 1.22460635382238e-16 0 0 #
coedge $426 $427 $428 $429 $430 1 $362 $-1 #
copar-lwd-attrib $-1 $-1 $-1 $364 #
coedge $431 $432 $364 $386 $419 0 $318 $-1 #
coedge $433 $364 $432 $385 $417 0 $318 $-1 #
copar-lwd-attrib $-1 $-1 $-1 $367 #
coedge $434 $368 $367 $435 $411 1 $369 $-1 #
copar-lwd-attrib $-1 $-1 $-1 $368 #
fface-lwd-attrib $-1 $-1 $-1 $373 #
loop $-1 $-1 $435 $373 #
plane-surface $-1 0 2.637795 0.4512976 0 -0 1 1 0 -0 0 #
copar-lwd-attrib $-1 $-1 $-1 $376 #
coedge $436 $435 $435 $376 $407 0 $403 $-1 #
edge $437 $409 $380 $406 $438 0 #
epar-lwd-attrib $-1 $-1 $-1 $378 #
vertex $-1 $411 $439 #
straight-curve $-1 -1.30174675726236e-16 0.511811 0.4512976 0 0 1 #
edge $440 $380 $409 $435 $441 0 #
point $-1 0 2.637795 0.4512976 #
epar-lwd-attrib $-1 $-1 $-1 $383 #
ellipse-curve $-1 0 0 -0.4527559 0 0 -1 1.29771622257967 0 0 1 #
copar-lwd-attrib $-1 $-1 $-1 $385 #
coedge $442 $386 $385 $427 $443 0 $387 $-1 #
edge $444 $445 $390 $398 $446 0 #
copar-lwd-attrib $-1 $-1 $-1 $386 #
edge $447 $389 $448 $397 $449 0 #
point $-1 0 1.29771622257967 -0.4527559 #
point $-1 -1.58919153162944e-16 -1.29771622257967 -0.4527559 #
fface-lwd-attrib $-1 $-1 $-1 $393 #
face $450 $-1 $451 $4 $-1 $452 0 #
loop $-1 $-1 $453 $393 #
plane-surface $-1 0 0 -0.9257069 -0 -0 -1 -1 0 0 0 #
copar-lwd-attrib $-1 $-1 $-1 $395 #
coedge $454 $455 $395 $416 $443 1 $362 $-1 #
coedge $456 $395 $455 $457 $458 0 $362 $-1 #
coedge $459 $460 $461 $395 $430 0 $451 $-1 #
edge $462 $448 $463 $429 $464 0 #
copar-lwd-attrib $-1 $-1 $-1 $397 #
coedge $465 $398 $397 $461 $466 0 $318 $-1 #
copar-lwd-attrib $-1 $-1 $-1 $398 #
copar-lwd-attrib $-1 $-1 $-1 $400 #
coedge $467 $406 $406 $400 $411 0 $403 $-1 #
copar-lwd-attrib $-1 $-1 $-1 $406 #
epar-lwd-attrib $-1 $-1 $-1 $407 #
ellipse-curve $-1 0 1.574803 0.4512976 0 0 1 -1.30174675726236e-16 -1.062992 0 1 #
point $-1 -1.30174675726236e-16 0.511811 0.4512976 #
epar-lwd-attrib $-1 $-1 $-1 $411 #
ellipse-curve $-1 0 1.574803 0.4512976 0 0 1 0 1.062992 0 1 #
copar-lwd-attrib $-1 $-1 $-1 $416 #
edge $468 $445 $448 $416 $469 0 #
epar-lwd-attrib $-1 $-1 $-1 $417 #
vertex $-1 $466 $470 #
ellipse-curve $-1 -1.59191600819421e-16 -1.299941 -0.5157087 1 -1.22460635382238e-16 0 0 0 0.0629921 1 #
epar-lwd-attrib $-1 $-1 $-1 $419 #
vertex $-1 $419 $471 #
ellipse-curve $-1 0 1.299941 -0.5157087 1 0 -0 0 0 0.0629921 1 #
fface-lwd-attrib $-1 $-1 $-1 $423 #
loop $-1 $-1 $472 $423 #
cone-surface $-1 0 0 -0.744998427016074 0 0 1 0 1.25984289516291 0 1 -5.80144833108484e-07 0.999999999999832 0 #
coedge $473 $457 $457 $460 $474 1 $424 $-1 #
copar-lwd-attrib $-1 $-1 $-1 $427 #
coedge $475 $428 $427 $472 $476 1 $362 $-1 #
copar-lwd-attrib $-1 $-1 $-1 $428 #
coedge $477 $453 $453 $428 $458 1 $424 $-1 #
edge $478 $479 $463 $428 $480 0 #
copar-lwd-attrib $-1 $-1 $-1 $429 #
coedge $481 $472 $429 $453 $474 0 $451 $-1 #
coedge $482 $429 $472 $432 $466 1 $451 $-1 #
epar-lwd-attrib $-1 $-1 $-1 $430 #
vertex $-1 $430 $483 #
straight-curve $-1 0 1.25984279032583 -0.564289954032147 0 5.80144833108484e-07 -0.999999999999832 #
copar-lwd-attrib $-1 $-1 $-1 $432 #
edge $484 $448 $445 $432 $485 0 #
copar-lwd-attrib $-1 $-1 $-1 $435 #
epar-lwd-attrib $-1 $-1 $-1 $443 #
ellipse-curve $-1 0 0 -0.564289954032147 0 0 1 -1.54281148585032e-16 -1.25984279032583 0 1 #
point $-1 -1.54281148585032e-16 -1.25984279032583 -0.564289954032147 #
point $-1 0 1.25984279032583 -0.564289954032147 #
coedge $486 $461 $460 $455 $476 0 $451 $-1 #
copar-lwd-attrib $-1 $-1 $-1 $453 #
edge $487 $463 $479 $460 $488 0 #
copar-lwd-attrib $-1 $-1 $-1 $455 #
edge $489 $479 $445 $472 $490 0 #
copar-lwd-attrib $-1 $-1 $-1 $457 #
epar-lwd-attrib $-1 $-1 $-1 $458 #
vertex $-1 $474 $491 #
ellipse-curve $-1 0 0 -0.9257069 0 0 1 -1.54281174261865e-16 -1.259843 0 1 #
copar-lwd-attrib $-1 $-1 $-1 $460 #
copar-lwd-attrib $-1 $-1 $-1 $461 #
point $-1 0 1.259843 -0.9257069 #
epar-lwd-attrib $-1 $-1 $-1 $466 #
ellipse-curve $-1 0 0 -0.564289954032147 0 0 1 0 1.25984279032583 0 1 #
copar-lwd-attrib $-1 $-1 $-1 $472 #
epar-lwd-attrib $-1 $-1 $-1 $474 #
ellipse-curve $-1 0 0 -0.9257069 0 0 1 0 1.259843 0 1 #
epar-lwd-attrib $-1 $-1 $-1 $476 #
straight-curve $-1 -1.54281148585032e-16 -1.25984279032583 -0.564289954032147 7.10449048761872e-23 5.80144833108484e-07 0.999999999999832 #
point $-1 -1.54281174261865e-16 -1.259843 -0.9257069 #
