104 217 0 0                             
body $1 $2 $-1 $-1 #
f_body-lwd-attrib $-1 $3 $-1 $0 #
lump $-1 $-1 $4 $0 #
ref_vt-lwd-attrib $-1 $-1 $1 $0 $5 $-1 #
shell $-1 $-1 $-1 $6 $2 #
refinement $-1 0 0 0 0 0.127000004053116 30 0 0 0 #
face $-1 $7 $8 $4 $-1 $9 1 #
face $-1 $10 $11 $4 $-1 $12 1 #
loop $-1 $-1 $13 $6 #
plane-surface $-1 0.921898280151433 1.27 0.921898280151433 0 1 0 6.12303176911189e-17 0 -1 0 #
face $-1 $14 $15 $4 $-1 $12 1 #
loop $-1 $-1 $16 $7 #
cone-surface $-1 0.921898280151433 0 0.921898280151433 0 1 0 5.83218776007907e-17 0 -0.9525 1 -0.242535625036333 0.970142500145332 0 #
coedge $-1 $17 $18 $19 $20 1 $8 $-1 #
face $-1 $21 $22 $4 $-1 $23 1 #
loop $-1 $-1 $24 $10 #
coedge $-1 $25 $26 $27 $28 1 $11 $-1 #
coedge $-1 $18 $13 $29 $30 1 $8 $-1 #
coedge $-1 $13 $17 $25 $31 1 $8 $-1 #
coedge $-1 $27 $32 $13 $20 0 $33 $-1 #
edge $-1 $34 $35 $19 $36 0 #
face $-1 $37 $33 $4 $-1 $38 0 #
loop $-1 $-1 $39 $14 #
plane-surface $-1 0.921898280151433 -1.27 0.921898280151433 0 -1 0 -6.12303176911189e-17 0 1 0 #
coedge $-1 $40 $29 $32 $41 1 $15 $-1 #
coedge $-1 $42 $16 $18 $31 0 $11 $-1 #
coedge $-1 $16 $43 $44 $45 1 $11 $-1 #
coedge $-1 $46 $19 $16 $28 0 $33 $-1 #
edge $-1 $35 $47 $27 $48 0 #
coedge $-1 $24 $49 $17 $30 0 $15 $-1 #
edge $-1 $50 $34 $17 $51 0 #
edge $-1 $35 $50 $18 $51 0 #
coedge $-1 $19 $52 $24 $41 0 $33 $-1 #
loop $-1 $-1 $32 $21 #
vertex $-1 $41 $53 #
vertex $-1 $28 $54 #
ellipse-curve $-1 0.921898280151433 1.27 -0.159857782585182 0 1 0 -1.17096847910803 0 -7.16987719820712e-17 1 #
face $-1 $55 $56 $4 $-1 $38 0 #
sphere-surface $-1 0.921898280151433 0.7783366792861 -0.159857782585182 1.27 6.12303176911189e-17 0 -1 1 0 6.12303176911189e-17 0 #
coedge $-1 $57 $58 $59 $60 1 $22 $-1 #
coedge $-1 $61 $24 $62 $63 1 $15 $-1 #
edge $-1 $64 $34 $32 $65 0 #
coedge $-1 $66 $25 $49 $67 1 $11 $-1 #
coedge $-1 $26 $68 $69 $70 1 $11 $-1 #
coedge $-1 $71 $72 $26 $45 0 $56 $-1 #
edge $-1 $47 $73 $44 $74 0 #
coedge $-1 $75 $27 $72 $76 1 $33 $-1 #
vertex $-1 $76 $77 #
intcurve-curve $-1 0 surfint nubs 3 open 3 
	-0.330018691030287 3 0 3 0.165020488791325 3 
	1.54997926349463 1.27 0.828414172610966 
	1.58239131809193 1.16143879663632 0.861824173217822 
	1.61119290456546 1.04728378799638 0.878189299287638 
	1.63781985492958 0.940562068659446 0.876500853124408 
	1.65113422918636 0.887197605469039 0.875656573031411 
	1.66447277644587 0.832802067606891 0.870550060933258 
	1.67736437470534 0.7783366792861 0.861009975735881 
	0.001 
	cone 0.921898280151433 0 0.921898280151433 0 1 0 5.83218776007907e-17 0 -0.9525 1 -0.242535625036333 0.970142500145332 0 
	sphere 0.921898280151433 0.7783366792861 -0.159857782585182 1.27 6.12303176911189e-17 0 -1 1 0 6.12303176911189e-17 0 
	nullbs 
	nullbs 
	#
coedge $-1 $29 $78 $42 $67 0 $15 $-1 #
vertex $-1 $31 $79 #
ellipse-curve $-1 0.921898280151433 1.27 0.921898280151433 0 1 0 3.88812517338605e-17 0 -0.635 1 #
coedge $-1 $32 $75 $80 $81 1 $33 $-1 #
point $-1 0.293817296808232 1.27 0.828414172610966 #
point $-1 1.54997926349463 1.27 0.828414172610966 #
face $-1 $82 $83 $4 $-1 $84 0 #
loop $-1 $-1 $62 $37 #
coedge $-1 $58 $39 $66 $85 1 $22 $-1 #
coedge $-1 $39 $57 $78 $86 1 $22 $-1 #
coedge $-1 $87 $88 $39 $60 0 $89 $-1 #
edge $-1 $90 $91 $59 $92 0 #
coedge $-1 $93 $40 $94 $95 1 $15 $-1 #
coedge $-1 $80 $96 $40 $63 0 $56 $-1 #
edge $-1 $97 $64 $62 $98 0 #
vertex $-1 $63 $99 #
intcurve-curve $-1 0 surfint nubs 3 open 3 
	4.24128694391738 3 4.40630743270871 3 4.73632612373973 3 
	0.166432185597531 0.7783366792861 0.861009975735881 
	0.179323783856998 0.832802067606891 0.870550060933258 
	0.192662331116506 0.887197605469039 0.87565657303141 
	0.205976705373285 0.940562068659446 0.876500853124408 
	0.232603655737467 1.04728378799662 0.878189299287641 
	0.261405242211084 1.16143879663681 0.861824173217671 
	0.293817296808232 1.27 0.828414172610966 
	0.001 
	cone 0.921898280151433 0 0.921898280151433 0 1 0 5.83218776007907e-17 0 -0.9525 1 -0.242535625036333 0.970142500145332 0 
	sphere 0.921898280151433 0.7783366792861 -0.159857782585182 1.27 6.12303176911189e-17 0 -1 1 0 6.12303176911189e-17 0 
	nullbs 
	nullbs 
	#
coedge $-1 $68 $42 $57 $85 0 $11 $-1 #
edge $-1 $100 $50 $42 $101 0 #
coedge $-1 $43 $66 $88 $102 1 $11 $-1 #
coedge $-1 $103 $104 $43 $70 0 $105 $-1 #
edge $-1 $73 $106 $69 $107 0 #
coedge $-1 $108 $44 $104 $109 1 $56 $-1 #
coedge $-1 $44 $110 $46 $76 0 $56 $-1 #
vertex $-1 $109 $111 #
intcurve-curve $-1 0 surfint nubs 3 open 4 
	0.165020488791325 3 0.233781107206979 3 0.467562214413958 3 0.750256423573018 3 
	1.67736437470534 0.7783366792861 0.861009975735881 
	1.68273603658308 0.755642080508598 0.857034819906964 
	1.68802590448294 0.732933118275075 0.852296975748349 
	1.69318435545133 0.710270715103802 0.846812379170111 
	1.71072271398635 0.633220190727699 0.828165149255841 
	1.7267605379047 0.556731782520426 0.800760538329396 
	1.73902429757925 0.482804510531719 0.766352673560636 
	1.75385395547562 0.393409726069383 0.724745786520596 
	1.76303978231119 0.307537801984067 0.672813331883229 
	1.76348678336785 0.227820378583021 0.615745591514068 
	0.001 
	cone 0.921898280151433 0 0.921898280151433 0 1 0 5.83218776007907e-17 0 -0.9525 1 -0.242535625036333 0.970142500145332 0 
	sphere 0.921898280151433 0.7783366792861 -0.159857782585182 1.27 6.12303176911189e-17 0 -1 1 0 6.12303176911189e-17 0 
	nullbs 
	nullbs 
	#
coedge $-1 $52 $46 $110 $112 1 $33 $-1 #
edge $-1 $113 $47 $72 $114 0 #
point $-1 1.67736437470534 0.7783366792861 0.861009975735881 #
coedge $-1 $49 $93 $58 $86 0 $15 $-1 #
point $-1 0.921898280151433 1.27 0.286898280151433 #
coedge $-1 $110 $62 $52 $81 0 $56 $-1 #
edge $-1 $64 $115 $80 $114 0 #
face $-1 $116 $117 $4 $-1 $118 1 #
loop $-1 $-1 $119 $55 #
plane-surface $-1 2.19189828015143 -1.04217962141698 -0.0543206057328128 1 0 6.12303176911189e-17 6.12303176911189e-17 0 -1 0 #
edge $-1 $100 $90 $57 $120 0 #
edge $-1 $91 $100 $58 $120 0 #
coedge $-1 $121 $59 $93 $122 0 $89 $-1 #
coedge $-1 $59 $123 $68 $102 0 $89 $-1 #
loop $-1 $-1 $87 $124 #
vertex $-1 $102 $125 #
vertex $-1 $122 $126 #
straight-curve $-1 0.921898280151433 -1.27 1.21567939426719 -1 0 -6.12303176911189e-17 #
coedge $-1 $78 $61 $87 $122 1 $15 $-1 #
coedge $-1 $127 $128 $61 $95 0 $105 $-1 #
edge $-1 $129 $97 $94 $130 0 #
coedge $-1 $62 $108 $127 $131 1 $56 $-1 #
vertex $-1 $95 $132 #
intcurve-curve $-1 0 surfint nubs 3 open 4 
	3.65605100913569 3 3.93874521829475 3 4.17252632550173 3 4.24128694391738 3 
	0.0803097769350126 0.227820378583021 0.615745591514068 
	0.0807567779916789 0.307537801984067 0.672813331883228 
	0.0899426048272481 0.393409726069383 0.724745786520596 
	0.104772262723619 0.482804510531719 0.766352673560636 
	0.117036022398171 0.556731782520426 0.800760538329395 
	0.133073846316521 0.633220190727699 0.82816514925584 
	0.150612204851537 0.710270715103802 0.84681237917011 
	0.155770655819928 0.732933118275075 0.852296975748348 
	0.161060523719786 0.755642080508598 0.857034819906964 
	0.166432185597531 0.7783366792861 0.861009975735881 
	0.001 
	cone 0.921898280151433 0 0.921898280151433 0 1 0 5.83218776007907e-17 0 -0.9525 1 -0.242535625036333 0.970142500145332 0 
	sphere 0.921898280151433 0.7783366792861 -0.159857782585182 1.27 6.12303176911189e-17 0 -1 1 0 6.12303176911189e-17 0 
	nullbs 
	nullbs 
	#
point $-1 0.166432185597531 0.7783366792861 0.861009975735881 #
vertex $-1 $86 $133 #
straight-curve $-1 0.921898280151427 0 -0.0306017198485665 1.67876766520885e-15 0.970142500145332 0.242535625036333 #
edge $-1 $106 $90 $88 $134 0 #
coedge $-1 $135 $69 $123 $136 1 $105 $-1 #
coedge $-1 $69 $137 $71 $109 0 $105 $-1 #
loop $-1 $-1 $94 $138 #
vertex $-1 $136 $139 #
ellipse-curve $-1 0.921898280151433 0.227820378583021 0.921898280151433 0 -1 0 5.48344990615034e-17 0 -0.895544905354245 1 #
coedge $-1 $96 $71 $137 $140 1 $56 $-1 #
edge $-1 $141 $73 $104 $142 0 #
coedge $-1 $72 $80 $75 $112 0 $56 $-1 #
point $-1 1.76348678336785 0.227820378583021 0.615745591514068 #
edge $-1 $115 $113 $110 $114 0 #
vertex $-1 $76 $143 #
ellipse-curve $-1 0.921898280151433 0.7783366792861 -0.159857782585182 4.27569270827966e-31 -1 -6.98296672221876e-15 1.27 0 7.7762503467721e-17 1 #
vertex $-1 $112 $144 #
face $-1 $124 $145 $4 $-1 $146 1 #
loop $-1 $-1 $147 $82 #
plane-surface $-1 -0.348101719848567 -1.04217962141698 -0.0543206057328131 1 0 6.12303176911189e-17 6.12303176911189e-17 0 -1 0 #
coedge $-1 $148 $149 $150 $151 0 $83 $-1 #
ellipse-curve $-1 0.921898280151433 -1.27 0.921898280151433 0 -1 0 7.7762503467721e-17 0 -1.27 1 #
coedge $-1 $152 $87 $128 $153 0 $89 $-1 #
edge $-1 $91 $129 $87 $154 0 #
coedge $-1 $88 $155 $103 $136 0 $89 $-1 #
face $-1 $138 $89 $4 $-1 $156 1 #
point $-1 2.1574518633638 -1.27 1.21567939426719 #
point $-1 -0.313655303060928 -1.27 1.21567939426719 #
coedge $-1 $137 $94 $96 $131 0 $105 $-1 #
coedge $-1 $94 $157 $121 $153 1 $105 $-1 #
vertex $-1 $122 $158 #
ellipse-curve $-1 0.921898280151433 0.227820378583021 0.921898280151433 0 -1 0 5.48344990615034e-17 0 -0.895544905354245 1 #
edge $-1 $97 $159 $127 $142 0 #
point $-1 0.0803097769350126 0.227820378583021 0.615745591514068 #
point $-1 0.921898280151433 -1.27 -0.348101719848567 #
intcurve-curve $-1 0 exact nurbs 2 open 2 
	0 2 1.5476549053494 2 
	1.76788488435675 0.227820378583021 1.21567939426719 1 
	1.92898739600593 -0.38092884636 1.21567939426719 1.0165844235701 
	2.1574518633638 -1.27 1.21567939426719 1 
	0 
	null_surface 
	null_surface 
	nullbs 
	nullbs 
	#
coedge $-1 $160 $103 $148 $161 1 $105 $-1 #
edge $-1 $162 $106 $103 $163 0 #
coedge $-1 $104 $127 $108 $140 0 $105 $-1 #
face $-1 $164 $105 $4 $-1 $165 1 #
point $-1 1.76788488435675 0.227820378583021 1.21567939426719 #
edge $-1 $159 $141 $137 $142 0 #
vertex $-1 $109 $166 #
ellipse-curve $-1 0.921898280151433 0.227820378583021 -0.159857782585182 0 -1 0 -1.14447883451823 0 -7.00768026283124e-17 1 #
point $-1 2.19189828015143 0.7783366792861 -0.159857782585182 #
point $-1 -0.348101719848567 0.7783366792861 -0.159857782585173 #
loop $-1 $-1 $167 $116 #
plane-surface $-1 0.921898280151433 -2.31217962141698 -0.0543206057328129 0 1 0 1 0 6.12303176911189e-17 0 #
coedge $-1 $168 $169 $170 $171 0 $117 $-1 #
coedge $-1 $172 $119 $135 $161 0 $83 $-1 #
coedge $-1 $119 $172 $173 $174 0 $83 $-1 #
coedge $-1 $175 $176 $119 $151 1 $177 $-1 #
edge $-1 $178 $179 $150 $180 0 #
coedge $-1 $181 $121 $182 $183 1 $89 $-1 #
edge $-1 $129 $184 $128 $163 0 #
intcurve-curve $-1 0 exact nurbs 2 open 2 
	0 2 1.5476549053494 2 
	-0.313655303060928 -1.27 1.21567939426719 1 
	-0.0851908357030585 -0.38092884636 1.21567939426719 1.0165844235701 
	0.0759116759461128 0.227820378583021 1.21567939426719 1 
	0 
	null_surface 
	null_surface 
	nullbs 
	nullbs 
	#
coedge $-1 $123 $181 $172 $185 1 $89 $-1 #
plane-surface $-1 0.921898280151433 -1.04217962141698 1.21567939426719 6.12303176911189e-17 0 -1 -1 0 -6.12303176911189e-17 0 #
coedge $-1 $128 $160 $169 $186 1 $105 $-1 #
point $-1 0.0759116759461128 0.227820378583021 1.21567939426719 #
vertex $-1 $140 $187 #
coedge $-1 $157 $135 $176 $188 0 $105 $-1 #
edge $-1 $179 $162 $135 $189 0 #
vertex $-1 $161 $190 #
straight-curve $-1 0.921898280151433 0.227820378583021 1.21567939426719 -1 0 -6.12303176911189e-17 #
face $-1 $-1 $177 $4 $-1 $191 1 #
plane-surface $-1 0.921898280151433 0.227820378583021 -0.0543206057328129 0 -1 0 -1 0 -6.12303176911189e-17 0 #
point $-1 2.06637711466966 0.227820378583021 -0.15985778258519 #
coedge $-1 $192 $173 $181 $193 0 $145 $-1 #
coedge $-1 $182 $147 $192 $194 0 $117 $-1 #
coedge $-1 $147 $182 $157 $186 0 $117 $-1 #
coedge $-1 $176 $175 $147 $171 1 $177 $-1 #
edge $-1 $195 $196 $170 $197 0 #
coedge $-1 $149 $148 $155 $185 0 $83 $-1 #
coedge $-1 $167 $198 $149 $174 1 $145 $-1 #
edge $-1 $199 $178 $173 $200 0 #
coedge $-1 $170 $150 $198 $201 0 $177 $-1 #
coedge $-1 $150 $170 $160 $188 1 $177 $-1 #
loop $-1 $-1 $175 $164 #
vertex $-1 $151 $202 #
vertex $-1 $151 $203 #
straight-curve $-1 2.19189828015143 -1.04217962141698 -1.32432060573281 0 1 0 #
coedge $-1 $155 $152 $167 $193 1 $89 $-1 #
coedge $-1 $169 $168 $152 $183 0 $117 $-1 #
edge $-1 $204 $184 $152 $205 0 #
vertex $-1 $186 $206 #
edge $-1 $162 $199 $155 $207 0 #
edge $-1 $184 $195 $157 $208 0 #
point $-1 -0.222580554366793 0.227820378583021 -0.159857782585182 #
edge $-1 $179 $195 $176 $209 0 #
straight-curve $-1 2.19189828015143 0.227820378583021 -0.0543206057328128 -6.12303176911189e-17 0 1 #
point $-1 2.19189828015143 0.227820378583021 1.21567939426719 #
plane-surface $-1 0.921898280151433 -1.04217962141698 -1.32432060573281 -6.12303176911189e-17 0 1 1 0 6.12303176911189e-17 0 #
coedge $-1 $198 $167 $168 $194 1 $145 $-1 #
edge $-1 $199 $204 $181 $210 0 #
edge $-1 $196 $204 $192 $211 0 #
vertex $-1 $171 $212 #
vertex $-1 $201 $213 #
straight-curve $-1 -0.348101719848566 -1.04217962141698 -1.32432060573281 0 -1 0 #
coedge $-1 $173 $192 $175 $201 1 $145 $-1 #
vertex $-1 $185 $214 #
straight-curve $-1 2.19189828015143 -2.31217962141698 -0.0543206057328128 6.12303176911189e-17 0 -1 #
edge $-1 $178 $196 $175 $215 0 #
point $-1 2.19189828015143 -2.31217962141698 -1.32432060573281 #
point $-1 2.19189828015143 0.227820378583021 -1.32432060573281 #
vertex $-1 $183 $216 #
straight-curve $-1 -0.348101719848567 -1.04217962141698 1.21567939426719 0 1 0 #
point $-1 -0.348101719848567 0.227820378583021 1.21567939426719 #
straight-curve $-1 2.19189828015143 -1.04217962141698 1.21567939426719 0 -1 0 #
straight-curve $-1 -0.348101719848567 0.227820378583021 -0.0543206057328131 6.12303176911189e-17 0 -1 #
straight-curve $-1 0.921898280151433 0.227820378583021 -1.32432060573281 -1 0 -6.12303176911189e-17 #
straight-curve $-1 0.921898280151433 -2.31217962141698 1.21567939426719 -1 0 -6.12303176911189e-17 #
straight-curve $-1 -0.348101719848567 -2.31217962141698 -0.0543206057328131 -6.12303176911189e-17 0 1 #
point $-1 -0.348101719848566 0.227820378583021 -1.32432060573281 #
point $-1 -0.348101719848566 -2.31217962141698 -1.32432060573281 #
point $-1 2.19189828015143 -2.31217962141698 1.21567939426719 #
straight-curve $-1 0.921898280151433 -2.31217962141698 -1.32432060573281 -1 0 -6.12303176911189e-17 #
point $-1 -0.348101719848567 -2.31217962141698 1.21567939426719 #
