103 932 0 0                                 
body $1 $2 $-1 $3 #
f_body-lwd-attrib $-1 $4 $-1 $0 #
lump $-1 $-1 $5 $0 #
transform $-1 1 0 0 0 1 0 0 0 1 0 0 0 10 0 0 0 #
ref_vt-lwd-attrib $-1 $-1 $1 $0 $6 $-1 #
shell $-1 $-1 $-1 $7 $2 #
refinement $-1 0 0 0 0 0.0500000007450581 15 0 0 0 #
face $-1 $8 $9 $5 $-1 $10 0 #
face $-1 $11 $12 $5 $-1 $13 0 #
loop $-1 $-1 $14 $7 #
torus-surface $-1 1.18511464450927e-11 2.81697639842277e-09 4.40000000000203 -9.11611025779471e-12 -2.74922655665556e-09 -1 1.84944471896349 -0.600000000018885 1 1.22460635382238e-16 -9.11611025779504e-12 0 #
face $-1 $15 $16 $5 $-1 $17 0 #
loop $-1 $-1 $18 $8 #
cone-surface $-1 1.09393338073243e-11 2.54205383498925e-09 4.30000003355039 -9.11611025779471e-12 -2.74922655665556e-09 -1 2.48453000001094 -5.07411204662921e-09 -2.2649044197226e-11 1 0.499999888113518 -0.86602546838212 0 #
coedge $19 $20 $21 $22 $23 0 $9 $-1 #
face $-1 $24 $25 $5 $-1 $26 0 #
loop $-1 $-1 $27 $11 #
cone-surface $-1 6.83708388510619e-12 1.30490179214762e-09 3.84999999996035 -9.11611025779471e-12 -2.74922655665556e-09 -1 4.35000000000684 -8.88392871197957e-09 -3.96547203123545e-11 1 -9.11611025779471e-12 1 0 #
coedge $28 $29 $30 $31 $32 0 $12 $-1 #
copar-lwd-attrib $-1 $-1 $-1 $14 #
coedge $33 $34 $14 $30 $35 1 $9 $-1 #
coedge $36 $14 $34 $37 $38 0 $9 $-1 #
coedge $39 $40 $41 $14 $23 1 $42 $-1 #
edge $43 $44 $45 $22 $46 0 #
face $-1 $47 $48 $5 $-1 $49 0 #
loop $-1 $-1 $50 $15 #
cone-surface $-1 -2.2790156465147e-13 -8.25748789250414e-10 3.07499999996399 -9.11611025779471e-12 -2.74922655665556e-09 -1 3.94999999999977 -8.06701572695681e-09 -3.60083092490908e-11 1 -9.11611025779471e-12 1 0 #
coedge $51 $52 $53 $54 $55 0 $16 $-1 #
copar-lwd-attrib $-1 $-1 $-1 $18 #
coedge $56 $57 $18 $58 $59 1 $12 $-1 #
coedge $60 $18 $57 $20 $35 0 $12 $-1 #
coedge $61 $62 $63 $18 $32 1 $64 $-1 #
edge $65 $45 $66 $31 $67 0 #
copar-lwd-attrib $-1 $-1 $-1 $20 #
coedge $68 $21 $20 $69 $70 1 $9 $-1 #
edge $71 $72 $45 $30 $73 0 #
copar-lwd-attrib $-1 $-1 $-1 $21 #
coedge $74 $75 $75 $21 $38 1 $76 $-1 #
edge $77 $78 $44 $21 $79 0 #
copar-lwd-attrib $-1 $-1 $-1 $22 #
coedge $80 $69 $22 $75 $81 0 $42 $-1 #
coedge $82 $22 $69 $62 $83 1 $42 $-1 #
loop $-1 $-1 $69 $84 #
epar-lwd-attrib $-1 $-1 $-1 $23 #
vertex $-1 $23 $85 #
vertex $-1 $32 $86 #
ellipse-curve $-1 -1.84944471895163 6.59406513984783e-09 4.40000000001889 2.0422825849564e-09 1 -2.74922655667417e-09 0 -1.64953593405642e-09 -0.600000000018885 1 #
face $-1 $87 $88 $5 $-1 $89 0 #
loop $-1 $-1 $90 $24 #
cone-surface $-1 -3.87434566780258e-12 -1.92543941192266e-09 2.67499999996035 -9.11611025779471e-12 -2.74922655665556e-09 -1 4.34999999999613 -8.8839287119577e-09 -3.96547203122569e-11 1 -9.11611025779471e-12 1 0 #
coedge $91 $92 $93 $94 $95 0 $25 $-1 #
copar-lwd-attrib $-1 $-1 $-1 $27 #
coedge $96 $97 $27 $98 $99 1 $16 $-1 #
coedge $100 $27 $97 $101 $102 0 $16 $-1 #
coedge $103 $104 $105 $27 $55 1 $106 $-1 #
edge $107 $108 $109 $54 $110 0 #
copar-lwd-attrib $-1 $-1 $-1 $29 #
coedge $111 $30 $29 $112 $113 1 $12 $-1 #
coedge $114 $115 $115 $29 $59 0 $116 $-1 #
edge $117 $118 $66 $58 $119 0 #
copar-lwd-attrib $-1 $-1 $-1 $30 #
copar-lwd-attrib $-1 $-1 $-1 $31 #
coedge $120 $112 $31 $41 $83 0 $64 $-1 #
coedge $121 $31 $112 $115 $122 1 $64 $-1 #
loop $-1 $-1 $112 $123 #
epar-lwd-attrib $-1 $-1 $-1 $32 #
vertex $-1 $122 $124 #
straight-curve $-1 -2.36906 6.83049859675571e-09 4.10000006714607 -0.499999888105623 3.40204128040311e-09 0.866025468386678 #
copar-lwd-attrib $-1 $-1 $-1 $34 #
coedge $125 $41 $40 $34 $70 0 $42 $-1 #
edge $126 $78 $72 $69 $127 0 #
epar-lwd-attrib $-1 $-1 $-1 $35 #
vertex $-1 $113 $128 #
ellipse-curve $-1 9.11611206183045e-12 1.99220861596091e-09 4.10000006712447 -9.11611025779471e-12 -2.74922655665556e-09 -1 2.36906000000911 -4.83828969067821e-09 -2.15964164835403e-11 1 #
copar-lwd-attrib $-1 $-1 $-1 $37 #
coedge $129 $37 $37 $40 $81 1 $76 $-1 #
loop $-1 $-1 $75 $130 #
epar-lwd-attrib $-1 $-1 $-1 $38 #
vertex $-1 $70 $131 #
ellipse-curve $-1 6.38127837242426e-12 1.16744046437751e-09 3.79999999998314 -9.11611025779471e-12 -2.74922655665556e-09 -1 1.84944471895802 -3.77708851492972e-09 -1.685958920996e-11 1 #
copar-lwd-attrib $-1 $-1 $-1 $40 #
edge $132 $44 $78 $40 $133 0 #
copar-lwd-attrib $-1 $-1 $-1 $41 #
edge $134 $45 $72 $62 $135 0 #
face $-1 $123 $42 $5 $-1 $136 0 #
point $-1 -1.84944471895163 4.94452920579141e-09 3.8 #
point $-1 -2.36906 6.83049859675571e-09 4.10000006714607 #
face $-1 $137 $138 $5 $-1 $139 0 #
loop $-1 $-1 $140 $47 #
cone-surface $-1 -7.29288701443738e-12 -2.95639937065696e-09 2.29999999996454 -9.11611025779471e-12 -2.74922655665556e-09 -1 3.88999999999271 -7.94447877919113e-09 -3.54613475895465e-11 1 -9.11611025779471e-12 1 0 #
coedge $141 $142 $143 $144 $145 0 $48 $-1 #
copar-lwd-attrib $-1 $-1 $-1 $50 #
coedge $146 $147 $50 $148 $149 1 $25 $-1 #
coedge $150 $50 $147 $151 $152 0 $25 $-1 #
coedge $153 $154 $155 $50 $95 1 $156 $-1 #
edge $157 $158 $159 $94 $160 0 #
copar-lwd-attrib $-1 $-1 $-1 $52 #
coedge $161 $53 $52 $162 $163 1 $16 $-1 #
coedge $164 $165 $165 $52 $99 0 $166 $-1 #
edge $167 $168 $109 $98 $169 0 #
copar-lwd-attrib $-1 $-1 $-1 $53 #
coedge $170 $171 $171 $53 $102 1 $172 $-1 #
edge $173 $174 $108 $53 $175 0 #
copar-lwd-attrib $-1 $-1 $-1 $54 #
coedge $176 $162 $54 $171 $177 0 $106 $-1 #
coedge $178 $54 $162 $165 $179 1 $106 $-1 #
loop $-1 $-1 $162 $180 #
epar-lwd-attrib $-1 $-1 $-1 $55 #
vertex $-1 $55 $181 #
vertex $-1 $179 $182 #
straight-curve $-1 -4.35 1.19758282986692e-08 4.5 0 -2.74922655667417e-09 -1 #
copar-lwd-attrib $-1 $-1 $-1 $57 #
coedge $183 $63 $62 $57 $113 0 $64 $-1 #
edge $184 $72 $118 $112 $185 0 #
copar-lwd-attrib $-1 $-1 $-1 $58 #
coedge $186 $58 $58 $63 $122 0 $116 $-1 #
loop $-1 $-1 $115 $187 #
epar-lwd-attrib $-1 $-1 $-1 $59 #
vertex $-1 $59 $188 #
ellipse-curve $-1 1.27625555528182e-11 3.09189905401759e-09 4.4999999999763 -9.11611025779471e-12 -2.74922655665556e-09 -1 2.60000000001276 -5.30993440258022e-09 -2.37016719109117e-11 1 #
copar-lwd-attrib $-1 $-1 $-1 $62 #
copar-lwd-attrib $-1 $-1 $-1 $63 #
edge $189 $66 $118 $115 $190 0 #
face $-1 $187 $64 $5 $-1 $191 0 #
point $-1 -2.6 8.40183377499546e-09 4.5 #
copar-lwd-attrib $-1 $-1 $-1 $69 #
epar-lwd-attrib $-1 $-1 $-1 $70 #
ellipse-curve $-1 1.84944471897534 -9.60112116518123e-10 4.39999999998517 -2.04228246249577e-09 -1 2.74922655667418e-09 -1.0939332309698e-11 -1.64953593403408e-09 -0.600000000018885 1 #
point $-1 2.36906000001823 -2.8460810747173e-09 4.10000006710288 #
copar-lwd-attrib $-1 $-1 $-1 $75 #
face $-1 $84 $76 $5 $-1 $192 0 #
point $-1 1.8494447189644 -2.60964805055221e-09 3.79999999996628 #
epar-lwd-attrib $-1 $-1 $-1 $81 #
ellipse-curve $-1 6.38127837242427e-12 1.16744046437751e-09 3.79999999998314 -9.11611025779471e-12 -2.74922655665556e-09 -1 -1.84944471895802 3.7770887414139e-09 1.68598739693301e-11 1 #
epar-lwd-attrib $-1 $-1 $-1 $83 #
ellipse-curve $-1 9.11611206183047e-12 1.99220861596091e-09 4.10000006712447 -9.11611025779471e-12 -2.74922655665556e-09 -1 -2.36906000000911 4.8382899807948e-09 2.15967812481783e-11 1 #
torus-surface $-1 1.18507426094538e-11 2.81697639842276e-09 4.40000000000203 -9.11611025779471e-12 -2.74922655665556e-09 -1 1.84944471896349 -0.600000000018885 -1 0 9.11611025779471e-12 0 #
face $-1 $193 $194 $5 $-1 $195 0 #
loop $-1 $-1 $196 $87 #
cone-surface $-1 -9.43517292505736e-12 -3.60246761148255e-09 2.06499999996035 -9.11611025779471e-12 -2.74922655665556e-09 -1 4.34999999999057 -8.88392871194634e-09 -3.96547203122062e-11 1 -9.11611025779471e-12 1 0 #
coedge $197 $198 $199 $200 $201 0 $88 $-1 #
copar-lwd-attrib $-1 $-1 $-1 $90 #
coedge $202 $203 $90 $204 $205 1 $48 $-1 #
coedge $206 $90 $203 $207 $208 0 $48 $-1 #
coedge $209 $210 $211 $90 $145 1 $212 $-1 #
edge $213 $214 $215 $144 $216 0 #
copar-lwd-attrib $-1 $-1 $-1 $92 #
coedge $217 $93 $92 $218 $219 1 $25 $-1 #
coedge $220 $221 $221 $92 $149 0 $222 $-1 #
edge $223 $224 $159 $148 $225 0 #
copar-lwd-attrib $-1 $-1 $-1 $93 #
coedge $226 $227 $227 $93 $152 1 $228 $-1 #
edge $229 $230 $158 $93 $231 0 #
copar-lwd-attrib $-1 $-1 $-1 $94 #
coedge $232 $218 $94 $227 $233 0 $156 $-1 #
coedge $234 $94 $218 $221 $235 1 $156 $-1 #
loop $-1 $-1 $218 $236 #
epar-lwd-attrib $-1 $-1 $-1 $95 #
vertex $-1 $95 $237 #
vertex $-1 $235 $238 #
straight-curve $-1 -3.95 7.58492074101018e-09 3.2 0 -2.74922655667418e-09 -1 #
copar-lwd-attrib $-1 $-1 $-1 $97 #
coedge $239 $105 $104 $97 $163 0 $106 $-1 #
edge $240 $174 $168 $162 $241 0 #
copar-lwd-attrib $-1 $-1 $-1 $98 #
coedge $242 $98 $98 $105 $179 0 $166 $-1 #
loop $-1 $-1 $165 $243 #
epar-lwd-attrib $-1 $-1 $-1 $99 #
vertex $-1 $99 $244 #
ellipse-curve $-1 9.11612217539622e-13 -4.82095469678493e-10 3.19999999996034 -9.11611025779471e-12 -2.74922655665556e-09 -1 4.35000000000091 -8.88392871196747e-09 -3.96547203123005e-11 1 #
copar-lwd-attrib $-1 $-1 $-1 $101 #
coedge $245 $101 $101 $104 $177 1 $172 $-1 #
loop $-1 $116 $101 $187 #
epar-lwd-attrib $-1 $-1 $-1 $102 #
vertex $-1 $163 $246 #
ellipse-curve $-1 1.27625555526727e-11 3.09189905397373e-09 4.49999999996034 -9.11611025779471e-12 -2.74922655665556e-09 -1 4.35000000001276 -8.88392871199168e-09 -3.96547203124085e-11 1 #
copar-lwd-attrib $-1 $-1 $-1 $104 #
edge $247 $108 $174 $104 $248 0 #
copar-lwd-attrib $-1 $-1 $-1 $105 #
edge $249 $109 $168 $165 $250 0 #
face $-1 $243 $106 $5 $-1 $251 0 #
point $-1 -4.35 1.19758282986692e-08 4.5 #
point $-1 -4.35 8.40183377499275e-09 3.2 #
copar-lwd-attrib $-1 $-1 $-1 $112 #
epar-lwd-attrib $-1 $-1 $-1 $113 #
straight-curve $-1 2.36906000001823 -2.8460810747173e-09 4.10000006710288 0.499999888121413 1.35975921365958e-09 0.866025468377562 #
copar-lwd-attrib $-1 $-1 $-1 $115 #
face $-1 $180 $172 $5 $-1 $252 0 #
point $-1 2.60000000002553 -2.21803534856264e-09 4.4999999999526 #
epar-lwd-attrib $-1 $-1 $-1 $122 #
ellipse-curve $-1 1.27625555528182e-11 3.09189905401759e-09 4.4999999999763 -9.11611025779471e-12 -2.74922655665556e-09 -1 -2.60000000001276 5.30993472097788e-09 2.37020722334273e-11 1 #
cone-surface $-1 1.09393338073243e-11 2.54205383498925e-09 4.30000003355039 -9.11611025779471e-12 -2.74922655665556e-09 -1 -2.48453000001094 5.07411235088634e-09 2.26494267408028e-11 1 0.499999888113518 -0.86602546838212 0 #
plane-surface $-1 6.38127837257796e-12 1.16744046442386e-09 3.8 5.61469751879532e-18 2.74922655667417e-09 1 1 0 -5.61469751879532e-18 0 #
face $-1 $253 $254 $5 $-1 $255 0 #
loop $-1 $-1 $256 $137 #
cone-surface $-1 -1.2033264348489e-11 -4.38599718011735e-09 1.77999999996472 -9.11611025779471e-12 -2.74922655665556e-09 -1 3.86999999998797 -7.90363312993104e-09 -3.52790270363433e-11 1 -9.11611025779471e-12 1 0 #
coedge $257 $258 $259 $260 $261 0 $138 $-1 #
copar-lwd-attrib $-1 $-1 $-1 $140 #
coedge $262 $263 $140 $264 $265 1 $88 $-1 #
coedge $266 $140 $263 $267 $268 0 $88 $-1 #
coedge $269 $270 $271 $140 $201 1 $272 $-1 #
edge $273 $274 $275 $200 $276 0 #
copar-lwd-attrib $-1 $-1 $-1 $142 #
coedge $277 $143 $142 $278 $279 1 $48 $-1 #
coedge $280 $281 $281 $142 $205 0 $282 $-1 #
edge $283 $284 $215 $204 $285 0 #
copar-lwd-attrib $-1 $-1 $-1 $143 #
coedge $286 $287 $287 $143 $208 1 $288 $-1 #
edge $289 $290 $214 $143 $291 0 #
copar-lwd-attrib $-1 $-1 $-1 $144 #
coedge $292 $278 $144 $287 $293 0 $212 $-1 #
coedge $294 $144 $278 $281 $295 1 $212 $-1 #
loop $-1 $-1 $278 $296 #
epar-lwd-attrib $-1 $-1 $-1 $145 #
vertex $-1 $145 $297 #
vertex $-1 $295 $298 #
straight-curve $-1 -4.35 7.7145271358242e-09 2.95 0 -2.74922655667417e-09 -1 #
copar-lwd-attrib $-1 $-1 $-1 $147 #
coedge $299 $155 $154 $147 $219 0 $156 $-1 #
edge $300 $230 $224 $218 $301 0 #
copar-lwd-attrib $-1 $-1 $-1 $148 #
coedge $302 $148 $148 $155 $235 0 $222 $-1 #
loop $-1 $-1 $221 $303 #
epar-lwd-attrib $-1 $-1 $-1 $149 #
vertex $-1 $149 $304 #
ellipse-curve $-1 -1.3674153468758e-12 -1.16940210883236e-09 2.94999999996399 -9.11611025779471e-12 -2.74922655665556e-09 -1 3.94999999999863 -8.06701572695448e-09 -3.60083092490804e-11 1 #
copar-lwd-attrib $-1 $-1 $-1 $151 #
coedge $305 $151 $151 $154 $233 1 $228 $-1 #
loop $-1 $166 $151 $243 #
epar-lwd-attrib $-1 $-1 $-1 $152 #
vertex $-1 $219 $306 #
ellipse-curve $-1 9.11612217572877e-13 -4.82095469668468e-10 3.19999999996399 -9.11611025779471e-12 -2.74922655665556e-09 -1 3.95000000000091 -8.06701572695914e-09 -3.60083092491012e-11 1 #
copar-lwd-attrib $-1 $-1 $-1 $154 #
edge $307 $158 $230 $154 $308 0 #
copar-lwd-attrib $-1 $-1 $-1 $155 #
edge $309 $159 $224 $221 $310 0 #
face $-1 $303 $156 $5 $-1 $311 0 #
point $-1 -3.95 7.58492074101018e-09 3.2 #
point $-1 -3.95 6.89761410184164e-09 2.95 #
copar-lwd-attrib $-1 $-1 $-1 $162 #
epar-lwd-attrib $-1 $-1 $-1 $163 #
straight-curve $-1 4.35000000002553 -5.79202965801794e-09 4.49999999992069 -1.82322205155894e-11 -2.74922655663694e-09 -1 #
copar-lwd-attrib $-1 $-1 $-1 $165 #
face $-1 $236 $228 $5 $-1 $312 0 #
point $-1 4.35000000000182 -9.36602418164597e-09 3.19999999992069 #
copar-lwd-attrib $-1 $-1 $-1 $171 #
point $-1 4.35000000002553 -5.79202965801795e-09 4.49999999992069 #
epar-lwd-attrib $-1 $-1 $-1 $177 #
ellipse-curve $-1 1.27625555526728e-11 3.09189905397373e-09 4.49999999996034 -9.11611025779471e-12 -2.74922655665556e-09 -1 -4.35000000001276 8.88392924469544e-09 3.96553900827712e-11 1 #
epar-lwd-attrib $-1 $-1 $-1 $179 #
ellipse-curve $-1 9.11612217539638e-13 -4.82095469678492e-10 3.19999999996034 -9.11611025779471e-12 -2.74922655665556e-09 -1 -4.35000000000091 8.88392924467124e-09 3.96553900826632e-11 1 #
cone-surface $-1 6.8370838851062e-12 1.30490179214762e-09 3.84999999996035 -9.11611025779471e-12 -2.74922655665556e-09 -1 -4.35000000000684 8.88392924468334e-09 3.96553900827172e-11 1 -9.11611025779471e-12 1 0 #
plane-surface $-1 -2.6 8.40183377499546e-09 4.5 5.61469751879532e-18 2.74922655667417e-09 1 1 0 -5.61469751879532e-18 0 #
face $-1 $313 $314 $5 $-1 $315 0 #
loop $-1 $-1 $316 $193 #
cone-surface $-1 -3.45044761339928e-11 -1.11628406422853e-08 -0.685000000039655 -9.11611025779471e-12 -2.74922655665556e-09 -1 4.3499999999655 -8.88392871189514e-09 -3.96547203119776e-11 1 -9.11611025779471e-12 1 0 #
coedge $317 $318 $319 $320 $321 0 $194 $-1 #
copar-lwd-attrib $-1 $-1 $-1 $196 #
coedge $322 $323 $196 $324 $325 1 $138 $-1 #
coedge $326 $196 $323 $327 $328 0 $138 $-1 #
coedge $329 $330 $331 $196 $261 1 $332 $-1 #
edge $333 $334 $335 $260 $336 0 #
copar-lwd-attrib $-1 $-1 $-1 $198 #
coedge $337 $199 $198 $338 $339 1 $88 $-1 #
coedge $340 $341 $341 $198 $265 0 $342 $-1 #
edge $343 $344 $275 $264 $345 0 #
copar-lwd-attrib $-1 $-1 $-1 $199 #
coedge $346 $347 $347 $199 $268 1 $348 $-1 #
edge $349 $350 $274 $199 $351 0 #
copar-lwd-attrib $-1 $-1 $-1 $200 #
coedge $352 $338 $200 $347 $353 0 $272 $-1 #
coedge $354 $200 $338 $341 $355 1 $272 $-1 #
loop $-1 $-1 $338 $356 #
epar-lwd-attrib $-1 $-1 $-1 $201 #
vertex $-1 $201 $357 #
vertex $-1 $355 $358 #
straight-curve $-1 -3.89 5.26300254057346e-09 2.4 0 -2.74922655667418e-09 -1 #
copar-lwd-attrib $-1 $-1 $-1 $203 #
coedge $359 $211 $210 $203 $279 0 $212 $-1 #
edge $360 $290 $284 $278 $361 0 #
copar-lwd-attrib $-1 $-1 $-1 $204 #
coedge $362 $204 $204 $211 $295 0 $282 $-1 #
loop $-1 $-1 $281 $363 #
epar-lwd-attrib $-1 $-1 $-1 $205 #
vertex $-1 $205 $364 #
ellipse-curve $-1 -6.38127598869613e-12 -2.68147671500294e-09 2.39999999996035 -9.11611025779471e-12 -2.74922655665556e-09 -1 4.34999999999362 -8.88392871195258e-09 -3.9654720312234e-11 1 #
copar-lwd-attrib $-1 $-1 $-1 $207 #
coedge $365 $207 $207 $210 $293 1 $288 $-1 #
loop $-1 $222 $207 $303 #
epar-lwd-attrib $-1 $-1 $-1 $208 #
vertex $-1 $279 $366 #
ellipse-curve $-1 -1.36741534690905e-12 -1.16940210884238e-09 2.94999999996034 -9.11611025779471e-12 -2.74922655665556e-09 -1 4.34999999999863 -8.88392871196282e-09 -3.96547203122797e-11 1 #
copar-lwd-attrib $-1 $-1 $-1 $210 #
edge $367 $214 $290 $210 $368 0 #
copar-lwd-attrib $-1 $-1 $-1 $211 #
edge $369 $215 $284 $281 $370 0 #
face $-1 $363 $212 $5 $-1 $371 0 #
point $-1 -4.35 7.7145271358242e-09 2.95 #
point $-1 -4.35 6.20245252965341e-09 2.4 #
copar-lwd-attrib $-1 $-1 $-1 $218 #
epar-lwd-attrib $-1 $-1 $-1 $219 #
straight-curve $-1 3.95000000000182 -8.54911119662761e-09 3.19999999992798 -1.82322205155894e-11 -2.74922655663694e-09 -1 #
copar-lwd-attrib $-1 $-1 $-1 $221 #
face $-1 $296 $288 $5 $-1 $372 0 #
point $-1 3.94999999999727 -9.23641783578685e-09 2.94999999992798 #
copar-lwd-attrib $-1 $-1 $-1 $227 #
point $-1 3.95000000000182 -8.54911119662761e-09 3.19999999992798 #
epar-lwd-attrib $-1 $-1 $-1 $233 #
ellipse-curve $-1 9.11612217572882e-13 -4.82095469668467e-10 3.19999999996399 -9.11611025779471e-12 -2.74922655665556e-09 -1 -3.95000000000091 8.06701621067865e-09 3.60089174313845e-11 1 #
epar-lwd-attrib $-1 $-1 $-1 $235 #
ellipse-curve $-1 -1.3674153468758e-12 -1.16940210883236e-09 2.94999999996399 -9.11611025779471e-12 -2.74922655665556e-09 -1 -3.94999999999863 8.067016210674e-09 3.60089174313638e-11 1 #
cone-surface $-1 -2.27901564651457e-13 -8.25748789250412e-10 3.07499999996399 -9.11611025779471e-12 -2.74922655665556e-09 -1 -3.94999999999977 8.06701621067632e-09 3.60089174313742e-11 1 -9.11611025779471e-12 1 0 #
plane-surface $-1 -4.35 8.40183377499275e-09 3.2 -5.61469751879533e-18 -2.74922655667417e-09 -1 -1 0 5.61469751879533e-18 0 #
face $-1 $373 $374 $5 $-1 $375 0 #
loop $-1 $-1 $376 $253 #
cone-surface $-1 -5.1733924521197e-11 -1.63588788343559e-08 -2.5750000000366 -9.11611025779471e-12 -2.74922655665556e-09 -1 4.01499999994827 -8.19976408691548e-09 -3.66008510463912e-11 1 9.11611025779471e-12 -1 0 #
coedge $377 $378 $379 $380 $381 0 $254 $-1 #
copar-lwd-attrib $-1 $-1 $-1 $256 #
coedge $382 $383 $256 $384 $385 1 $194 $-1 #
coedge $386 $256 $383 $387 $388 0 $194 $-1 #
coedge $389 $390 $391 $256 $321 1 $392 $-1 #
edge $393 $394 $395 $320 $396 0 #
copar-lwd-attrib $-1 $-1 $-1 $258 #
coedge $397 $259 $258 $398 $399 1 $138 $-1 #
coedge $400 $401 $401 $258 $325 0 $402 $-1 #
edge $403 $404 $335 $324 $405 0 #
copar-lwd-attrib $-1 $-1 $-1 $259 #
coedge $406 $407 $407 $259 $328 1 $408 $-1 #
edge $409 $410 $334 $259 $411 0 #
copar-lwd-attrib $-1 $-1 $-1 $260 #
coedge $412 $398 $260 $407 $413 0 $332 $-1 #
coedge $414 $260 $398 $401 $415 1 $332 $-1 #
loop $-1 $-1 $398 $416 #
epar-lwd-attrib $-1 $-1 $-1 $261 #
vertex $-1 $261 $417 #
vertex $-1 $415 $418 #
straight-curve $-1 -4.35 5.65260721831857e-09 2.2 0 -2.74922655667417e-09 -1 #
copar-lwd-attrib $-1 $-1 $-1 $263 #
coedge $419 $271 $270 $263 $339 0 $272 $-1 #
edge $420 $350 $344 $338 $421 0 #
copar-lwd-attrib $-1 $-1 $-1 $264 #
coedge $422 $264 $264 $271 $355 0 $342 $-1 #
loop $-1 $-1 $341 $423 #
epar-lwd-attrib $-1 $-1 $-1 $265 #
vertex $-1 $265 $424 #
ellipse-curve $-1 -8.20449804021685e-12 -3.23132202632252e-09 2.19999999996454 -9.11611025779471e-12 -2.74922655665556e-09 -1 3.8899999999918 -7.94447877918927e-09 -3.54613475895382e-11 1 #
copar-lwd-attrib $-1 $-1 $-1 $267 #
coedge $425 $267 $267 $270 $353 1 $348 $-1 #
loop $-1 $282 $267 $363 #
epar-lwd-attrib $-1 $-1 $-1 $268 #
vertex $-1 $339 $426 #
ellipse-curve $-1 -6.38127598865791e-12 -2.68147671499141e-09 2.39999999996454 -9.11611025779471e-12 -2.74922655665556e-09 -1 3.88999999999362 -7.944478779193e-09 -3.54613475895548e-11 1 #
copar-lwd-attrib $-1 $-1 $-1 $270 #
edge $427 $274 $350 $270 $428 0 #
copar-lwd-attrib $-1 $-1 $-1 $271 #
edge $429 $275 $344 $341 $430 0 #
face $-1 $423 $272 $5 $-1 $431 0 #
point $-1 -3.89 5.26300254057346e-09 2.4 #
point $-1 -3.89 4.71315722923863e-09 2.2 #
copar-lwd-attrib $-1 $-1 $-1 $278 #
epar-lwd-attrib $-1 $-1 $-1 $279 #
straight-curve $-1 4.34999999999727 -1.00533308208052e-08 2.94999999992069 -1.82322205155894e-11 -2.74922655663694e-09 -1 #
copar-lwd-attrib $-1 $-1 $-1 $281 #
face $-1 $356 $348 $5 $-1 $432 0 #
point $-1 4.34999999998724 -1.15654054269555e-08 2.39999999992069 #
copar-lwd-attrib $-1 $-1 $-1 $287 #
point $-1 4.34999999999726 -1.00533308208052e-08 2.94999999992069 #
epar-lwd-attrib $-1 $-1 $-1 $293 #
ellipse-curve $-1 -1.36741534690904e-12 -1.16940210884238e-09 2.94999999996034 -9.11611025779471e-12 -2.74922655665556e-09 -1 -4.34999999999863 8.88392924466658e-09 3.96553900826424e-11 1 #
epar-lwd-attrib $-1 $-1 $-1 $295 #
ellipse-curve $-1 -6.38127598869613e-12 -2.68147671500294e-09 2.39999999996035 -9.11611025779471e-12 -2.74922655665556e-09 -1 -4.34999999999362 8.88392924465634e-09 3.96553900825967e-11 1 #
cone-surface $-1 -3.87434566780258e-12 -1.92543941192266e-09 2.67499999996035 -9.11611025779471e-12 -2.74922655665556e-09 -1 -4.34999999999613 8.88392924466146e-09 3.96553900826195e-11 1 -9.11611025779471e-12 1 0 #
plane-surface $-1 -3.95 6.89761410184164e-09 2.95 5.61469751879533e-18 2.74922655667417e-09 1 1 0 -5.61469751879533e-18 0 #
face $-1 $433 $434 $5 $-1 $435 0 #
loop $-1 $-1 $436 $313 #
cone-surface $-1 -4.52875531053518e-11 -1.44147891964149e-08 -1.86785942872404 -9.11611025779471e-12 -2.74922655665556e-09 -1 3.79987614763587 -7.76042041606794e-09 -3.46397760588162e-11 1 9.11611025779471e-12 -1 0 #
coedge $437 $438 $439 $440 $441 0 $314 $-1 #
copar-lwd-attrib $-1 $-1 $-1 $316 #
coedge $442 $443 $316 $444 $445 1 $254 $-1 #
coedge $446 $316 $443 $447 $448 0 $254 $-1 #
coedge $449 $450 $451 $316 $381 1 $452 $-1 #
edge $453 $454 $455 $380 $456 0 #
copar-lwd-attrib $-1 $-1 $-1 $318 #
coedge $457 $319 $318 $458 $459 1 $194 $-1 #
coedge $460 $461 $461 $318 $385 0 $462 $-1 #
edge $463 $464 $395 $384 $465 0 #
copar-lwd-attrib $-1 $-1 $-1 $319 #
coedge $466 $467 $467 $319 $388 1 $468 $-1 #
edge $469 $470 $394 $319 $471 0 #
copar-lwd-attrib $-1 $-1 $-1 $320 #
coedge $472 $458 $320 $467 $473 0 $392 $-1 #
coedge $474 $320 $458 $461 $475 1 $392 $-1 #
loop $-1 $-1 $458 $476 #
epar-lwd-attrib $-1 $-1 $-1 $321 #
vertex $-1 $321 $477 #
vertex $-1 $475 $478 #
straight-curve $-1 -3.87 3.93002040723747e-09 1.93 0 -2.74922655667417e-09 -1 #
copar-lwd-attrib $-1 $-1 $-1 $323 #
coedge $479 $331 $330 $323 $399 0 $332 $-1 #
edge $480 $410 $404 $398 $481 0 #
copar-lwd-attrib $-1 $-1 $-1 $324 #
coedge $482 $324 $324 $331 $415 0 $402 $-1 #
loop $-1 $-1 $401 $483 #
epar-lwd-attrib $-1 $-1 $-1 $325 #
vertex $-1 $325 $484 #
ellipse-curve $-1 -1.06658478098597e-11 -3.97361319663105e-09 1.92999999996035 -9.11611025779471e-12 -2.74922655665556e-09 -1 4.34999999998933 -8.88392871194383e-09 -3.96547203121949e-11 1 #
copar-lwd-attrib $-1 $-1 $-1 $327 #
coedge $485 $327 $327 $330 $413 1 $408 $-1 #
loop $-1 $342 $327 $423 #
epar-lwd-attrib $-1 $-1 $-1 $328 #
vertex $-1 $399 $486 #
ellipse-curve $-1 -8.20449804025507e-12 -3.23132202633405e-09 2.19999999996035 -9.11611025779471e-12 -2.74922655665556e-09 -1 4.3499999999918 -8.88392871194886e-09 -3.96547203122174e-11 1 #
copar-lwd-attrib $-1 $-1 $-1 $330 #
edge $487 $334 $410 $330 $488 0 #
copar-lwd-attrib $-1 $-1 $-1 $331 #
edge $489 $335 $404 $401 $490 0 #
face $-1 $483 $332 $5 $-1 $491 0 #
point $-1 -4.35 5.65260721831857e-09 2.2 #
point $-1 -4.35 4.91031604801655e-09 1.93 #
copar-lwd-attrib $-1 $-1 $-1 $338 #
epar-lwd-attrib $-1 $-1 $-1 $339 #
straight-curve $-1 3.88999999998724 -1.06259554941844e-08 2.39999999992908 -1.82322205155894e-11 -2.74922655663693e-09 -1 #
copar-lwd-attrib $-1 $-1 $-1 $341 #
face $-1 $416 $408 $5 $-1 $492 0 #
point $-1 3.88999999998359 -1.11758008055118e-08 2.19999999992908 #
copar-lwd-attrib $-1 $-1 $-1 $347 #
point $-1 3.88999999998724 -1.06259554941844e-08 2.39999999992908 #
epar-lwd-attrib $-1 $-1 $-1 $353 #
ellipse-curve $-1 -6.3812759886579e-12 -2.68147671499141e-09 2.39999999996454 -9.11611025779471e-12 -2.74922655665556e-09 -1 -3.88999999999362 7.94447925556487e-09 3.54619465336263e-11 1 #
epar-lwd-attrib $-1 $-1 $-1 $355 #
ellipse-curve $-1 -8.20449804021684e-12 -3.23132202632252e-09 2.19999999996454 -9.11611025779471e-12 -2.74922655665556e-09 -1 -3.8899999999918 7.94447925556115e-09 3.54619465336096e-11 1 #
cone-surface $-1 -7.29288701443737e-12 -2.95639937065696e-09 2.29999999996454 -9.11611025779471e-12 -2.74922655665556e-09 -1 -3.88999999999271 7.94447925556301e-09 3.5461946533618e-11 1 -9.11611025779471e-12 1 0 #
plane-surface $-1 -4.35 6.20245252965341e-09 2.4 -5.61469751879532e-18 -2.74922655667417e-09 -1 -1 0 5.61469751879532e-18 0 #
face $-1 $493 $494 $5 $-1 $495 0 #
loop $-1 $-1 $496 $373 #
torus-surface $-1 -4.27150041812832e-11 -1.36391208450829e-08 -1.58571885742259 -9.11611025779471e-12 -2.74922655665556e-09 -1 4.80238286102655 1.00250671338811 1 1.22460635382238e-16 -9.11611025779504e-12 0 #
coedge $497 $498 $499 $500 $501 0 $374 $-1 #
copar-lwd-attrib $-1 $-1 $-1 $376 #
coedge $502 $503 $376 $504 $505 1 $314 $-1 #
coedge $506 $376 $503 $507 $508 0 $314 $-1 #
coedge $509 $510 $511 $376 $441 1 $512 $-1 #
edge $513 $514 $515 $440 $516 0 #
copar-lwd-attrib $-1 $-1 $-1 $378 #
coedge $517 $379 $378 $518 $519 1 $254 $-1 #
coedge $520 $521 $521 $378 $445 0 $522 $-1 #
edge $523 $524 $455 $444 $525 0 #
copar-lwd-attrib $-1 $-1 $-1 $379 #
coedge $526 $527 $527 $379 $448 1 $528 $-1 #
edge $529 $530 $454 $379 $531 0 #
copar-lwd-attrib $-1 $-1 $-1 $380 #
coedge $532 $518 $380 $527 $533 0 $452 $-1 #
coedge $534 $380 $518 $521 $535 1 $452 $-1 #
loop $-1 $-1 $518 $536 #
epar-lwd-attrib $-1 $-1 $-1 $381 #
vertex $-1 $381 $537 #
vertex $-1 $535 $538 #
straight-curve $-1 -4.35 4.0855480810143e-09 1.63 0 -2.74922655667417e-09 -1 #
copar-lwd-attrib $-1 $-1 $-1 $383 #
coedge $539 $391 $390 $383 $459 0 $392 $-1 #
edge $540 $470 $464 $458 $541 0 #
copar-lwd-attrib $-1 $-1 $-1 $384 #
coedge $542 $384 $384 $391 $475 0 $462 $-1 #
loop $-1 $-1 $461 $543 #
epar-lwd-attrib $-1 $-1 $-1 $385 #
vertex $-1 $385 $544 #
ellipse-curve $-1 -1.34006808871582e-11 -4.79838116361568e-09 1.62999999996472 -9.11611025779471e-12 -2.74922655665556e-09 -1 3.8699999999866 -7.90363312992824e-09 -3.52790270363309e-11 1 #
copar-lwd-attrib $-1 $-1 $-1 $387 #
coedge $545 $387 $387 $390 $473 1 $468 $-1 #
loop $-1 $402 $387 $483 #
epar-lwd-attrib $-1 $-1 $-1 $388 #
vertex $-1 $459 $546 #
ellipse-curve $-1 -1.06658478098198e-11 -3.97361319661902e-09 1.92999999996472 -9.11611025779471e-12 -2.74922655665556e-09 -1 3.86999999998933 -7.90363312993383e-09 -3.52790270363558e-11 1 #
copar-lwd-attrib $-1 $-1 $-1 $390 #
edge $547 $394 $470 $390 $548 0 #
copar-lwd-attrib $-1 $-1 $-1 $391 #
edge $549 $395 $464 $461 $550 0 #
face $-1 $543 $392 $5 $-1 $551 0 #
point $-1 -3.87 3.93002040723747e-09 1.93 #
point $-1 -3.87 3.10525244023522e-09 1.63 #
copar-lwd-attrib $-1 $-1 $-1 $398 #
epar-lwd-attrib $-1 $-1 $-1 $399 #
straight-curve $-1 4.34999999998359 -1.21152507382829e-08 2.19999999992069 -1.82322205155894e-11 -2.74922655663694e-09 -1 #
copar-lwd-attrib $-1 $-1 $-1 $401 #
face $-1 $476 $468 $5 $-1 $552 0 #
point $-1 4.34999999997867 -1.28575419085749e-08 1.92999999992069 #
copar-lwd-attrib $-1 $-1 $-1 $407 #
point $-1 4.34999999998359 -1.21152507382829e-08 2.19999999992069 #
epar-lwd-attrib $-1 $-1 $-1 $413 #
ellipse-curve $-1 -8.20449804025507e-12 -3.23132202633405e-09 2.19999999996035 -9.11611025779471e-12 -2.74922655665556e-09 -1 -4.3499999999918 8.88392924465262e-09 3.96553900825801e-11 1 #
epar-lwd-attrib $-1 $-1 $-1 $415 #
ellipse-curve $-1 -1.06658478098596e-11 -3.97361319663105e-09 1.92999999996035 -9.11611025779471e-12 -2.74922655665556e-09 -1 -4.34999999998933 8.88392924464759e-09 3.96553900825576e-11 1 #
cone-surface $-1 -9.43517292505735e-12 -3.60246761148255e-09 2.06499999996035 -9.11611025779471e-12 -2.74922655665556e-09 -1 -4.34999999999057 8.88392924465011e-09 3.96553900825688e-11 1 -9.11611025779471e-12 1 0 #
plane-surface $-1 -3.89 4.71315722923863e-09 2.2 5.61469751879534e-18 2.74922655667417e-09 1 1 0 -5.61469751879534e-18 0 #
face $-1 $553 $554 $5 $-1 $555 0 #
loop $-1 $-1 $556 $433 #
torus-surface $-1 -3.38308613069123e-11 -1.09596707100187e-08 -0.611099239924148 -9.11611025779471e-12 -2.74922655665556e-09 -1 2.51988488227251 -1.4793636341178 1 1.22460635382238e-16 -9.11611025779504e-12 0 #
coedge $557 $558 $559 $560 $561 0 $434 $-1 #
copar-lwd-attrib $-1 $-1 $-1 $436 #
coedge $562 $563 $436 $559 $564 1 $374 $-1 #
coedge $565 $436 $563 $566 $567 0 $374 $-1 #
coedge $568 $569 $570 $436 $501 1 $571 $-1 #
edge $572 $573 $574 $500 $575 0 #
copar-lwd-attrib $-1 $-1 $-1 $438 #
coedge $576 $439 $438 $577 $578 1 $314 $-1 #
coedge $579 $580 $580 $438 $505 0 $581 $-1 #
edge $582 $583 $515 $504 $584 0 #
copar-lwd-attrib $-1 $-1 $-1 $439 #
coedge $585 $586 $586 $439 $508 1 $587 $-1 #
edge $588 $589 $514 $439 $590 0 #
copar-lwd-attrib $-1 $-1 $-1 $440 #
coedge $591 $577 $440 $586 $592 0 $512 $-1 #
coedge $593 $440 $577 $580 $594 1 $512 $-1 #
loop $-1 $-1 $577 $595 #
epar-lwd-attrib $-1 $-1 $-1 $441 #
vertex $-1 $441 $596 #
vertex $-1 $594 $597 #
straight-curve $-1 -4.015 -9.32753554234752e-09 -3 0 2.74922655667417e-09 1 #
copar-lwd-attrib $-1 $-1 $-1 $443 #
coedge $598 $451 $450 $443 $519 0 $452 $-1 #
edge $599 $530 $524 $518 $600 0 #
copar-lwd-attrib $-1 $-1 $-1 $444 #
coedge $601 $444 $444 $451 $535 0 $522 $-1 #
loop $-1 $-1 $521 $602 #
epar-lwd-attrib $-1 $-1 $-1 $445 #
vertex $-1 $445 $603 #
ellipse-curve $-1 -5.56082713807876e-11 -1.75273001209429e-08 -3.00000000003966 -9.11611025779471e-12 -2.74922655665556e-09 -1 4.34999999994439 -8.88392871185204e-09 -3.96547203117853e-11 1 #
copar-lwd-attrib $-1 $-1 $-1 $447 #
coedge $604 $447 $447 $450 $533 1 $528 $-1 #
loop $-1 $462 $447 $543 #
epar-lwd-attrib $-1 $-1 $-1 $448 #
vertex $-1 $519 $605 #
ellipse-curve $-1 -1.34006808871981e-11 -4.79838116362771e-09 1.62999999996034 -9.11611025779471e-12 -2.74922655665556e-09 -1 4.3499999999866 -8.88392871193824e-09 -3.965472031217e-11 1 #
copar-lwd-attrib $-1 $-1 $-1 $450 #
edge $606 $454 $530 $450 $607 0 #
copar-lwd-attrib $-1 $-1 $-1 $451 #
edge $608 $455 $524 $521 $609 0 #
face $-1 $602 $452 $5 $-1 $610 0 #
point $-1 -4.35 4.0855480810143e-09 1.63 #
point $-1 -4.35 -8.64337087638713e-09 -3 #
copar-lwd-attrib $-1 $-1 $-1 $458 #
epar-lwd-attrib $-1 $-1 $-1 $459 #
straight-curve $-1 3.86999999997867 -1.18772463265529e-08 1.92999999992944 -1.82322205155894e-11 -2.74922655663694e-09 -1 #
copar-lwd-attrib $-1 $-1 $-1 $461 #
face $-1 $536 $528 $5 $-1 $611 0 #
point $-1 3.8699999999732 -1.27020142935439e-08 1.62999999992944 #
copar-lwd-attrib $-1 $-1 $-1 $467 #
point $-1 3.86999999997867 -1.18772463265529e-08 1.92999999992944 #
epar-lwd-attrib $-1 $-1 $-1 $473 #
ellipse-curve $-1 -1.06658478098198e-11 -3.97361319661902e-09 1.92999999996472 -9.11611025779471e-12 -2.74922655665556e-09 -1 -3.86999999998933 7.90363360385649e-09 3.52796229010233e-11 1 #
epar-lwd-attrib $-1 $-1 $-1 $475 #
ellipse-curve $-1 -1.34006808871582e-11 -4.79838116361568e-09 1.62999999996472 -9.11611025779471e-12 -2.74922655665556e-09 -1 -3.8699999999866 7.9036336038509e-09 3.52796229009984e-11 1 #
cone-surface $-1 -1.2033264348489e-11 -4.38599718011735e-09 1.77999999996472 -9.11611025779471e-12 -2.74922655665556e-09 -1 -3.86999999998797 7.9036336038537e-09 3.52796229010108e-11 1 -9.11611025779471e-12 1 0 #
plane-surface $-1 -4.35 4.91031604801655e-09 1.93 -5.61469751879533e-18 -2.74922655667417e-09 -1 -1 0 5.61469751879533e-18 0 #
face $-1 $612 $613 $5 $-1 $614 0 #
loop $-1 $-1 $615 $493 #
torus-surface $-1 -3.37778816362408e-11 -1.09436462581846e-08 -0.605270527192057 -9.11611025779471e-12 -2.74922655665556e-09 -1 2.49765607673464 -1.50234392323159 1 1.22460635382238e-16 -9.11611025779504e-12 0 #
coedge $616 $617 $618 $619 $620 0 $494 $-1 #
copar-lwd-attrib $-1 $-1 $-1 $496 #
coedge $621 $622 $496 $618 $623 1 $434 $-1 #
coedge $624 $496 $622 $498 $564 0 $434 $-1 #
coedge $625 $626 $627 $496 $561 1 $628 $-1 #
edge $629 $574 $630 $560 $631 0 #
copar-lwd-attrib $-1 $-1 $-1 $498 #
coedge $632 $499 $498 $633 $634 1 $374 $-1 #
edge $635 $636 $574 $559 $637 0 #
copar-lwd-attrib $-1 $-1 $-1 $499 #
coedge $638 $639 $639 $499 $567 1 $640 $-1 #
edge $641 $642 $573 $499 $643 0 #
copar-lwd-attrib $-1 $-1 $-1 $500 #
coedge $644 $633 $500 $639 $645 0 $571 $-1 #
coedge $646 $500 $633 $626 $647 1 $571 $-1 #
loop $-1 $-1 $633 $648 #
epar-lwd-attrib $-1 $-1 $-1 $501 #
vertex $-1 $501 $649 #
vertex $-1 $561 $650 #
straight-curve $-1 -3.79987614768116 -7.43003666637398e-09 -2.15 0 2.74922655667417e-09 1 #
copar-lwd-attrib $-1 $-1 $-1 $503 #
coedge $651 $511 $510 $503 $578 0 $512 $-1 #
edge $652 $589 $583 $577 $653 0 #
copar-lwd-attrib $-1 $-1 $-1 $504 #
coedge $654 $504 $504 $511 $594 0 $581 $-1 #
loop $-1 $-1 $580 $655 #
epar-lwd-attrib $-1 $-1 $-1 $505 #
vertex $-1 $505 $656 #
ellipse-curve $-1 -4.78595776616342e-11 -1.51904575477773e-08 -2.1500000000366 -9.11611025779471e-12 -2.74922655665556e-09 -1 4.01499999995214 -8.19976408692339e-09 -3.66008510464265e-11 1 #
copar-lwd-attrib $-1 $-1 $-1 $507 #
coedge $657 $507 $507 $510 $592 1 $587 $-1 #
loop $-1 $522 $507 $602 #
epar-lwd-attrib $-1 $-1 $-1 $508 #
vertex $-1 $578 $658 #
ellipse-curve $-1 -5.56082713807597e-11 -1.75273001209345e-08 -3.0000000000366 -9.11611025779471e-12 -2.74922655665556e-09 -1 4.01499999994439 -8.19976408690756e-09 -3.66008510463558e-11 1 #
copar-lwd-attrib $-1 $-1 $-1 $510 #
edge $659 $514 $589 $510 $660 0 #
copar-lwd-attrib $-1 $-1 $-1 $511 #
edge $661 $515 $583 $580 $662 0 #
face $-1 $655 $512 $5 $-1 $663 0 #
point $-1 -4.015 -9.32753554234752e-09 -3 #
point $-1 -4.015 -6.99069296917448e-09 -2.15 #
copar-lwd-attrib $-1 $-1 $-1 $518 #
epar-lwd-attrib $-1 $-1 $-1 $519 #
straight-curve $-1 4.3499999999732 -1.3682309875566e-08 1.62999999992069 -1.82322205155894e-11 -2.74922655663694e-09 -1 #
copar-lwd-attrib $-1 $-1 $-1 $521 #
face $-1 $595 $587 $5 $-1 $664 0 #
point $-1 4.34999999988878 -2.6411228832795e-08 -3.00000000007931 #
copar-lwd-attrib $-1 $-1 $-1 $527 #
point $-1 4.3499999999732 -1.3682309875566e-08 1.62999999992069 #
epar-lwd-attrib $-1 $-1 $-1 $533 #
ellipse-curve $-1 -1.34006808871981e-11 -4.79838116362772e-09 1.62999999996034 -9.11611025779471e-12 -2.74922655665556e-09 -1 -4.3499999999866 8.88392924464201e-09 3.96553900825327e-11 1 #
epar-lwd-attrib $-1 $-1 $-1 $535 #
ellipse-curve $-1 -5.56082713807876e-11 -1.75273001209429e-08 -3.00000000003966 -9.11611025779471e-12 -2.74922655665556e-09 -1 -4.34999999994439 8.88392924455581e-09 3.96553900821479e-11 1 #
cone-surface $-1 -3.45044761339928e-11 -1.11628406422853e-08 -0.685000000039655 -9.11611025779471e-12 -2.74922655665556e-09 -1 -4.3499999999655 8.88392924459891e-09 3.96553900823403e-11 1 -9.11611025779471e-12 1 0 #
plane-surface $-1 -3.87 3.10525244023522e-09 1.63 5.61469751879532e-18 2.74922655667417e-09 1 1 0 -5.61469751879532e-18 0 #
face $-1 $665 $666 $5 $-1 $667 0 #
loop $-1 $-1 $668 $553 #
cone-surface $-1 -2.99829256299695e-11 -9.79923638878352e-09 -0.189004408042817 -9.11611025779471e-12 -2.74922655665556e-09 -1 3.99999999997003 -8.16912985002211e-09 -3.64641106317196e-11 1 9.11611025779471e-12 -1 0 #
coedge $669 $670 $671 $672 $673 0 $554 $-1 #
copar-lwd-attrib $-1 $-1 $-1 $556 #
coedge $674 $675 $556 $671 $676 1 $494 $-1 #
coedge $677 $556 $675 $558 $623 0 $494 $-1 #
coedge $678 $679 $680 $556 $620 1 $681 $-1 #
edge $682 $630 $683 $619 $684 0 #
copar-lwd-attrib $-1 $-1 $-1 $558 #
coedge $685 $559 $558 $686 $687 1 $434 $-1 #
edge $688 $689 $630 $618 $690 0 #
copar-lwd-attrib $-1 $-1 $-1 $559 #
copar-lwd-attrib $-1 $-1 $-1 $560 #
coedge $691 $686 $560 $570 $647 0 $628 $-1 #
coedge $692 $560 $686 $679 $693 1 $628 $-1 #
loop $-1 $-1 $686 $694 #
epar-lwd-attrib $-1 $-1 $-1 $561 #
vertex $-1 $620 $695 #
ellipse-curve $-1 -4.80238286106926 -3.83129796159495e-09 -1.58571885737881 -2.0422825849564e-09 -1 2.74922655667417e-09 1.00250671338811 -2.0474020020544e-09 5.77315972805081e-15 1 #
copar-lwd-attrib $-1 $-1 $-1 $563 #
coedge $696 $570 $569 $563 $634 0 $571 $-1 #
edge $697 $642 $636 $633 $698 0 #
epar-lwd-attrib $-1 $-1 $-1 $564 #
vertex $-1 $687 $699 #
ellipse-curve $-1 -4.27155285490872e-11 -1.36391208450578e-08 -1.58571885741345 -9.11611025779471e-12 -2.74922655665556e-09 -1 3.79987614763844 -7.7604204160732e-09 -3.46397760588397e-11 1 #
copar-lwd-attrib $-1 $-1 $-1 $566 #
coedge $700 $566 $566 $569 $645 1 $640 $-1 #
loop $-1 $581 $566 $655 #
epar-lwd-attrib $-1 $-1 $-1 $567 #
vertex $-1 $634 $701 #
ellipse-curve $-1 -4.78595776616164e-11 -1.51904575477719e-08 -2.15000000003464 -9.11611025779471e-12 -2.74922655665556e-09 -1 3.7998761476333 -7.76042041606269e-09 -3.46397760587928e-11 1 #
copar-lwd-attrib $-1 $-1 $-1 $569 #
edge $702 $573 $642 $569 $703 0 #
copar-lwd-attrib $-1 $-1 $-1 $570 #
edge $704 $574 $636 $626 $705 0 #
face $-1 $694 $571 $5 $-1 $706 0 #
point $-1 -3.79987614768116 -7.43003666637398e-09 -2.15 #
point $-1 -3.79987614768116 -5.87869996364935e-09 -1.58571885737881 #
copar-lwd-attrib $-1 $-1 $-1 $577 #
epar-lwd-attrib $-1 $-1 $-1 $578 #
straight-curve $-1 4.01499999988878 -2.57270642078421e-08 -3.0000000000732 1.82322205155894e-11 2.74922655663694e-09 1 #
copar-lwd-attrib $-1 $-1 $-1 $580 #
face $-1 $648 $640 $5 $-1 $707 0 #
point $-1 4.01499999990428 -2.33902216347007e-08 -2.1500000000732 #
copar-lwd-attrib $-1 $-1 $-1 $586 #
point $-1 4.01499999988878 -2.57270642078421e-08 -3.0000000000732 #
epar-lwd-attrib $-1 $-1 $-1 $592 #
ellipse-curve $-1 -5.56082713807597e-11 -1.75273001209345e-08 -3.0000000000366 -9.11611025779471e-12 -2.74922655665556e-09 -1 -4.01499999994439 8.19976457858702e-09 3.66014692367021e-11 1 #
epar-lwd-attrib $-1 $-1 $-1 $594 #
ellipse-curve $-1 -4.78595776616342e-11 -1.51904575477773e-08 -2.1500000000366 -9.11611025779471e-12 -2.74922655665556e-09 -1 -4.01499999995214 8.19976457860284e-09 3.66014692367727e-11 1 #
cone-surface $-1 -5.1733924521197e-11 -1.63588788343559e-08 -2.5750000000366 -9.11611025779471e-12 -2.74922655665556e-09 -1 -4.01499999994827 8.19976457859493e-09 3.66014692367374e-11 1 9.11611025779471e-12 -1 0 #
plane-surface $-1 -4.35 -8.64337087638713e-09 -3 -5.61469751879532e-18 -2.74922655667417e-09 -1 -1 0 5.61469751879532e-18 0 #
face $-1 $708 $709 $5 $-1 $710 0 #
loop $-1 $-1 $711 $612 #
torus-surface $-1 -2.61884548771414e-11 -8.65482651931588e-09 0.227261711130653 -9.11611025779471e-12 -2.74922655665556e-09 -1 2.84435880982794 -1.15564119014588 1 1.22460635382238e-16 -9.11611025779504e-12 0 #
coedge $712 $713 $714 $715 $716 0 $613 $-1 #
copar-lwd-attrib $-1 $-1 $-1 $615 #
coedge $717 $718 $615 $714 $719 1 $554 $-1 #
coedge $720 $615 $718 $617 $676 0 $554 $-1 #
coedge $721 $722 $723 $615 $673 1 $724 $-1 #
edge $725 $683 $726 $672 $727 0 #
copar-lwd-attrib $-1 $-1 $-1 $617 #
coedge $728 $618 $617 $729 $730 1 $494 $-1 #
edge $731 $732 $683 $671 $733 0 #
copar-lwd-attrib $-1 $-1 $-1 $618 #
copar-lwd-attrib $-1 $-1 $-1 $619 #
coedge $734 $729 $619 $627 $693 0 $681 $-1 #
coedge $735 $619 $729 $722 $736 1 $681 $-1 #
loop $-1 $-1 $729 $737 #
epar-lwd-attrib $-1 $-1 $-1 $620 #
vertex $-1 $673 $738 #
ellipse-curve $-1 -2.51988488230634 -5.81335369879553e-09 -0.611099239901176 2.0422825849564e-09 1 -2.74922655667417e-09 -1.36052413379391 1.18144011082436e-09 -0.580939621057618 1 #
copar-lwd-attrib $-1 $-1 $-1 $622 #
coedge $739 $627 $626 $622 $687 0 $628 $-1 #
edge $740 $636 $689 $686 $741 0 #
epar-lwd-attrib $-1 $-1 $-1 $623 #
vertex $-1 $730 $742 #
ellipse-curve $-1 -3.91266982954408e-11 -1.25568053440779e-08 -1.19203886099417 -9.11611025779471e-12 -2.74922655665556e-09 -1 3.88040901606112 -7.92489128090932e-09 -3.53739159147587e-11 1 #
copar-lwd-attrib $-1 $-1 $-1 $626 #
copar-lwd-attrib $-1 $-1 $-1 $627 #
edge $743 $630 $689 $679 $744 0 #
face $-1 $737 $628 $5 $-1 $745 0 #
point $-1 -3.88040901610024 -4.63191358797117e-09 -1.19203886095879 #
copar-lwd-attrib $-1 $-1 $-1 $633 #
epar-lwd-attrib $-1 $-1 $-1 $634 #
straight-curve $-1 3.79987614758544 -2.29508779638346e-08 -2.15000000006928 1.82322205155894e-11 2.74922655663694e-09 1 #
point $-1 3.79987614759572 -2.1399541261131e-08 -1.58571885744809 #
copar-lwd-attrib $-1 $-1 $-1 $639 #
point $-1 3.79987614758544 -2.29508779638346e-08 -2.15000000006928 #
epar-lwd-attrib $-1 $-1 $-1 $645 #
ellipse-curve $-1 -4.78595776616163e-11 -1.51904575477719e-08 -2.15000000003464 -9.11611025779471e-12 -2.74922655665556e-09 -1 -3.7998761476333 7.76042088139794e-09 3.46403611264768e-11 1 #
epar-lwd-attrib $-1 $-1 $-1 $647 #
ellipse-curve $-1 -4.27155285490872e-11 -1.36391208450578e-08 -1.58571885741345 -9.11611025779471e-12 -2.74922655665556e-09 -1 -3.79987614763844 7.76042088140845e-09 3.46403611265237e-11 1 #
cone-surface $-1 -4.52875531053517e-11 -1.44147891964149e-08 -1.86785942872404 -9.11611025779471e-12 -2.74922655665556e-09 -1 -3.79987614763587 7.76042088140319e-09 3.46403611265002e-11 1 9.11611025779471e-12 -1 0 #
plane-surface $-1 -4.015 -6.99069296917448e-09 -2.15 -5.61469751879532e-18 -2.74922655667417e-09 -1 -1 0 5.61469751879532e-18 0 #
face $-1 $746 $747 $5 $-1 $748 0 #
loop $-1 $-1 $749 $665 #
torus-surface $-1 -2.68508891355359e-11 -8.85469182442351e-09 0.154562971689271 -9.11611025779471e-12 -2.74922655665556e-09 -1 2.71979676481913 -1.29986604852037 1 1.22460635382238e-16 -9.11611025779504e-12 0 #
coedge $750 $751 $752 $753 $754 0 $666 $-1 #
copar-lwd-attrib $-1 $-1 $-1 $668 #
coedge $755 $756 $668 $752 $757 1 $613 $-1 #
coedge $758 $668 $756 $670 $719 0 $613 $-1 #
coedge $759 $760 $761 $668 $716 1 $762 $-1 #
edge $763 $726 $764 $715 $765 0 #
copar-lwd-attrib $-1 $-1 $-1 $670 #
coedge $766 $671 $670 $767 $768 1 $554 $-1 #
edge $769 $770 $726 $714 $771 0 #
copar-lwd-attrib $-1 $-1 $-1 $671 #
copar-lwd-attrib $-1 $-1 $-1 $672 #
coedge $772 $767 $672 $680 $736 0 $724 $-1 #
coedge $773 $672 $767 $760 $774 1 $724 $-1 #
loop $-1 $-1 $767 $775 #
epar-lwd-attrib $-1 $-1 $-1 $673 #
vertex $-1 $716 $776 #
ellipse-curve $-1 -2.49765607676842 -5.84272674939626e-09 -0.605270527169288 2.0422825849564e-09 1 -2.74922655667417e-09 -1.45321543846657 1.92027279806086e-09 -0.381054002830712 1 #
copar-lwd-attrib $-1 $-1 $-1 $675 #
coedge $777 $680 $679 $675 $730 0 $681 $-1 #
edge $778 $689 $732 $729 $779 0 #
epar-lwd-attrib $-1 $-1 $-1 $676 #
vertex $-1 $768 $780 #
ellipse-curve $-1 -3.72513837728178e-11 -1.19912500423231e-08 -0.986324530036017 -9.11611025779471e-12 -2.74922655665556e-09 -1 3.95087151519774 -8.06879560716144e-09 -3.60162540057398e-11 1 #
copar-lwd-attrib $-1 $-1 $-1 $679 #
copar-lwd-attrib $-1 $-1 $-1 $680 #
edge $781 $683 $732 $722 $782 0 #
face $-1 $775 $681 $5 $-1 $783 0 #
point $-1 -3.95087151523499 -3.9224539513354e-09 -0.98632453 #
copar-lwd-attrib $-1 $-1 $-1 $686 #
epar-lwd-attrib $-1 $-1 $-1 $687 #
ellipse-curve $-1 4.80238286098383 -2.34469431404681e-08 -1.58571885746637 2.04228246249577e-09 1 -2.74922655667417e-09 -1.00250671338811 2.04740187933707e-09 1.82836853690353e-11 1 #
point $-1 3.88040901602199 -2.04816966249872e-08 -1.19203886102954 #
epar-lwd-attrib $-1 $-1 $-1 $693 #
ellipse-curve $-1 -3.91266982954408e-11 -1.25568053440779e-08 -1.19203886099417 -9.11611025779471e-12 -2.74922655665556e-09 -1 -3.88040901606112 7.92489175610668e-09 3.53745133821045e-11 1 #
torus-surface $-1 -4.27160529170578e-11 -1.36391208450829e-08 -1.58571885742259 -9.11611025779471e-12 -2.74922655665556e-09 -1 4.80238286102655 1.00250671338811 -1 0 9.11611025779471e-12 0 #
face $-1 $130 $784 $5 $-1 $785 0 #
loop $-1 $-1 $786 $708 #
torus-surface $-1 3.77316530462461e-11 1.06220434963705e-08 7.23900469354124 -9.11611025779471e-12 -2.74922655665556e-09 -1 4.94082074936899 6.12457076852256 1 1.22460635382238e-16 -9.11611025779504e-12 0 #
coedge $787 $788 $789 $790 $791 0 $709 $-1 #
copar-lwd-attrib $-1 $-1 $-1 $711 #
coedge $792 $793 $711 $789 $794 1 $666 $-1 #
coedge $795 $711 $793 $713 $757 0 $666 $-1 #
coedge $796 $797 $798 $711 $754 1 $799 $-1 #
edge $800 $764 $801 $753 $802 0 #
copar-lwd-attrib $-1 $-1 $-1 $713 #
coedge $803 $714 $713 $804 $805 1 $613 $-1 #
edge $806 $807 $764 $752 $808 0 #
copar-lwd-attrib $-1 $-1 $-1 $714 #
copar-lwd-attrib $-1 $-1 $-1 $715 #
coedge $809 $804 $715 $723 $774 0 $762 $-1 #
coedge $810 $715 $804 $797 $811 1 $762 $-1 #
loop $-1 $-1 $804 $812 #
epar-lwd-attrib $-1 $-1 $-1 $716 #
vertex $-1 $754 $813 #
straight-curve $-1 -4.00000000000001 -2.77451591836531e-09 -0.605270527169288 0 2.74922655667417e-09 1 #
copar-lwd-attrib $-1 $-1 $-1 $718 #
coedge $814 $723 $722 $718 $768 0 $724 $-1 #
edge $815 $732 $770 $767 $816 0 #
epar-lwd-attrib $-1 $-1 $-1 $719 #
vertex $-1 $805 $817 #
ellipse-curve $-1 -3.37776534688431e-11 -1.09436462582222e-08 -0.605270527205752 -9.11611025779471e-12 -2.74922655665556e-09 -1 3.99999999996623 -8.16912985001436e-09 -3.6464110631685e-11 1 #
copar-lwd-attrib $-1 $-1 $-1 $722 #
copar-lwd-attrib $-1 $-1 $-1 $723 #
edge $818 $726 $770 $760 $819 0 #
face $-1 $812 $724 $5 $-1 $820 0 #
point $-1 -4.00000000000001 -2.77451591836531e-09 -0.605270527169288 #
copar-lwd-attrib $-1 $-1 $-1 $729 #
epar-lwd-attrib $-1 $-1 $-1 $730 #
ellipse-curve $-1 2.51988488223867 -1.61059874126552e-08 -0.61109923994712 -2.04228246249577e-09 -1 2.74922655667418e-09 1.36052413378331 -4.37570921233194e-09 -0.580939621082423 1 #
point $-1 3.95087151516049 -2.00600456494845e-08 -0.986324530072033 #
epar-lwd-attrib $-1 $-1 $-1 $736 #
ellipse-curve $-1 -3.72513837728178e-11 -1.19912500423231e-08 -0.986324530036017 -9.11611025779471e-12 -2.74922655665556e-09 -1 -3.95087151519774 8.06879609098767e-09 3.60168623222105e-11 1 #
torus-surface $-1 -3.38307160063778e-11 -1.09596707100187e-08 -0.611099239924148 -9.11611025779471e-12 -2.74922655665556e-09 -1 2.51988488227251 -1.4793636341178 -1 0 9.11611025779471e-12 0 #
loop $-1 $-1 $821 $746 #
torus-surface $-1 -4.1204051395457e-11 -1.31832905740437e-08 -1.41991576275376 -9.11611025779471e-12 -2.74922655665556e-09 -1 0.0497720039980149 -3.82024000383701 1 1.22460635382238e-16 -9.11611025779504e-12 0 #
coedge $822 $823 $824 $825 $826 0 $747 $-1 #
copar-lwd-attrib $-1 $-1 $-1 $749 #
coedge $827 $828 $749 $824 $829 1 $709 $-1 #
coedge $830 $749 $828 $751 $794 0 $709 $-1 #
coedge $831 $832 $833 $749 $791 1 $834 $-1 #
edge $835 $801 $836 $790 $837 0 #
copar-lwd-attrib $-1 $-1 $-1 $751 #
coedge $838 $752 $751 $839 $840 1 $666 $-1 #
edge $841 $842 $801 $789 $843 0 #
copar-lwd-attrib $-1 $-1 $-1 $752 #
copar-lwd-attrib $-1 $-1 $-1 $753 #
coedge $844 $839 $753 $761 $811 0 $799 $-1 #
coedge $845 $753 $839 $832 $846 1 $799 $-1 #
loop $-1 $-1 $839 $847 #
epar-lwd-attrib $-1 $-1 $-1 $754 #
vertex $-1 $791 $848 #
ellipse-curve $-1 -2.84435880985413 -2.84584205656566e-09 0.227261711156583 2.0422825849564e-09 1 -2.74922655667417e-09 -1.15564119014588 2.36014587709322e-09 -1.11022302462516e-16 1 #
copar-lwd-attrib $-1 $-1 $-1 $756 #
coedge $849 $761 $760 $756 $805 0 $762 $-1 #
edge $850 $770 $807 $804 $851 0 #
epar-lwd-attrib $-1 $-1 $-1 $757 #
vertex $-1 $840 $852 #
ellipse-curve $-1 -2.61881977910958e-11 -8.65482651934484e-09 0.227261711120119 -9.11611025779471e-12 -2.74922655665556e-09 -1 3.99999999997382 -8.16912985002986e-09 -3.64641106317542e-11 1 #
copar-lwd-attrib $-1 $-1 $-1 $760 #
copar-lwd-attrib $-1 $-1 $-1 $761 #
edge $853 $764 $807 $797 $854 0 #
face $-1 $847 $762 $5 $-1 $855 0 #
point $-1 -4.00000000000001 -4.85696179472435e-10 0.227261711156583 #
copar-lwd-attrib $-1 $-1 $-1 $767 #
epar-lwd-attrib $-1 $-1 $-1 $768 #
ellipse-curve $-1 2.49765607670087 -1.60445654611083e-08 -0.605270527214825 -2.04228246249577e-09 -1 2.74922655667417e-09 1.45321543845962 -4.01548018837621e-09 -0.381054002857208 1 #
point $-1 3.99999999993246 -1.91127761082366e-08 -0.605270527242217 #
epar-lwd-attrib $-1 $-1 $-1 $774 #
ellipse-curve $-1 -3.37776534688431e-11 -1.09436462582222e-08 -0.605270527205752 -9.11611025779471e-12 -2.74922655665556e-09 -1 -3.99999999996623 8.1691303398569e-09 3.64647265124782e-11 1 #
torus-surface $-1 -3.37774253011958e-11 -1.09436462581846e-08 -0.605270527192057 -9.11611025779471e-12 -2.74922655665556e-09 -1 2.49765607673464 -1.50234392323159 -1 0 9.11611025779471e-12 0 #
coedge $856 $857 $858 $859 $860 0 $784 $-1 #
copar-lwd-attrib $-1 $-1 $-1 $786 #
coedge $861 $862 $786 $858 $863 1 $747 $-1 #
coedge $864 $786 $862 $788 $829 0 $747 $-1 #
coedge $865 $866 $867 $786 $826 1 $868 $-1 #
edge $869 $836 $870 $825 $871 0 #
copar-lwd-attrib $-1 $-1 $-1 $788 #
coedge $872 $789 $788 $873 $874 1 $709 $-1 #
edge $875 $876 $836 $824 $877 0 #
copar-lwd-attrib $-1 $-1 $-1 $789 #
copar-lwd-attrib $-1 $-1 $-1 $790 #
coedge $878 $873 $790 $798 $846 0 $834 $-1 #
coedge $879 $790 $873 $866 $880 1 $834 $-1 #
loop $-1 $-1 $873 $881 #
epar-lwd-attrib $-1 $-1 $-1 $791 #
vertex $-1 $826 $882 #
ellipse-curve $-1 -2.71979676484598 -3.30009825694446e-09 0.154562971714065 2.0422825849564e-09 1 -2.74922655667417e-09 -1.12264955615303 4.09410845576323e-09 0.655217306063712 1 #
copar-lwd-attrib $-1 $-1 $-1 $793 #
coedge $883 $798 $797 $793 $840 0 $799 $-1 #
edge $884 $807 $842 $839 $885 0 #
epar-lwd-attrib $-1 $-1 $-1 $794 #
vertex $-1 $874 $886 #
ellipse-curve $-1 -2.08778943105514e-11 -7.05335100624097e-09 0.809780277742749 -9.11611025779471e-12 -2.74922655665556e-09 -1 3.84244632097813 -7.84736073451132e-09 -3.50278469364101e-11 1 #
copar-lwd-attrib $-1 $-1 $-1 $797 #
copar-lwd-attrib $-1 $-1 $-1 $798 #
edge $887 $801 $842 $832 $888 0 #
face $-1 $881 $799 $5 $-1 $889 0 #
point $-1 -3.84244632099901 7.94010198818765e-10 0.809780277777777 #
copar-lwd-attrib $-1 $-1 $-1 $804 #
epar-lwd-attrib $-1 $-1 $-1 $805 #
straight-curve $-1 3.99999999993245 -1.91127761082366e-08 -0.605270527242217 1.82322205155894e-11 2.74922655663694e-09 1 #
point $-1 3.99999999994763 -1.68239563693747e-08 0.227261711083654 #
epar-lwd-attrib $-1 $-1 $-1 $811 #
ellipse-curve $-1 -2.61881977910958e-11 -8.65482651934484e-09 0.227261711120119 -9.11611025779471e-12 -2.74922655665556e-09 -1 -3.99999999997382 8.1691303398724e-09 3.64647265125474e-11 1 #
cone-surface $-1 -2.99829256299695e-11 -9.79923638878353e-09 -0.189004408042817 -9.11611025779471e-12 -2.74922655665556e-09 -1 -3.99999999997003 8.16913033986465e-09 3.64647265125128e-11 1 9.11611025779471e-12 -1 0 #
copar-lwd-attrib $-1 $-1 $-1 $821 #
coedge $890 $858 $821 $891 $892 1 $784 $-1 #
coedge $893 $821 $857 $823 $863 0 $784 $-1 #
coedge $894 $895 $891 $821 $860 1 $896 $-1 #
edge $897 $870 $898 $859 $899 0 #
copar-lwd-attrib $-1 $-1 $-1 $823 #
coedge $900 $824 $823 $901 $902 1 $747 $-1 #
edge $903 $904 $870 $858 $905 0 #
copar-lwd-attrib $-1 $-1 $-1 $824 #
copar-lwd-attrib $-1 $-1 $-1 $825 #
coedge $906 $901 $825 $833 $880 0 $868 $-1 #
coedge $907 $825 $901 $895 $908 1 $868 $-1 #
loop $-1 $-1 $901 $909 #
epar-lwd-attrib $-1 $-1 $-1 $826 #
vertex $-1 $860 $910 #
ellipse-curve $-1 -4.94082074933125 2.07125956683219e-08 7.23900469358628 -2.0422825849564e-09 -1 2.74922655667417e-09 1.83216840640902 -1.98085655400245e-08 -5.84410181543731 1 #
copar-lwd-attrib $-1 $-1 $-1 $828 #
coedge $911 $833 $832 $828 $874 0 $834 $-1 #
edge $912 $842 $876 $873 $913 0 #
epar-lwd-attrib $-1 $-1 $-1 $829 #
vertex $-1 $902 $914 #
ellipse-curve $-1 -1.5543852171179e-11 -5.44471641438273e-09 1.39490287812064 -9.11611025779471e-12 -2.74922655665556e-09 -1 3.10865234290669 -6.34874616199262e-09 -2.83385607370383e-11 1 #
copar-lwd-attrib $-1 $-1 $-1 $832 #
copar-lwd-attrib $-1 $-1 $-1 $833 #
edge $915 $836 $876 $866 $916 0 #
face $-1 $909 $834 $5 $-1 $917 0 #
point $-1 -3.10865234292223 9.0403012829743e-10 1.39490287814897 #
copar-lwd-attrib $-1 $-1 $-1 $839 #
epar-lwd-attrib $-1 $-1 $-1 $840 #
ellipse-curve $-1 2.84435880980176 -1.44638106337441e-08 0.227261711104724 -2.04228246249577e-09 -1 2.74922655667417e-09 1.15564119014588 -2.36014573563059e-09 -2.10700030607893e-11 1 #
point $-1 3.84244632095725 -1.49007117407523e-08 0.809780277707721 #
epar-lwd-attrib $-1 $-1 $-1 $846 #
ellipse-curve $-1 -2.08778943105514e-11 -7.05335100624097e-09 0.809780277742749 -9.11611025779471e-12 -2.74922655665556e-09 -1 -3.84244632097813 7.84736120505974e-09 3.50284385586321e-11 1 #
torus-surface $-1 -2.61879407048582e-11 -8.65482651931587e-09 0.227261711130653 -9.11611025779471e-12 -2.74922655665556e-09 -1 2.84435880982794 -1.15564119014588 -1 0 9.11611025779471e-12 0 #
copar-lwd-attrib $-1 $-1 $-1 $857 #
coedge $918 $859 $895 $857 $892 0 $896 $-1 #
edge $919 $904 $898 $891 $920 0 #
copar-lwd-attrib $-1 $-1 $-1 $858 #
copar-lwd-attrib $-1 $-1 $-1 $859 #
coedge $921 $891 $859 $867 $908 0 $896 $-1 #
loop $-1 $-1 $891 $922 #
epar-lwd-attrib $-1 $-1 $-1 $860 #
vertex $-1 $860 $923 #
ellipse-curve $-1 -0.0497720040392189 -1.30816420770589e-08 -1.41991576275331 2.0422825849564e-09 1 -2.74922655667417e-09 -1.87886733143422 1.2981855752641e-08 3.32627287482339 1 #
copar-lwd-attrib $-1 $-1 $-1 $862 #
coedge $924 $867 $866 $862 $902 0 $868 $-1 #
edge $925 $876 $904 $901 $926 0 #
epar-lwd-attrib $-1 $-1 $-1 $863 #
vertex $-1 $892 $927 #
ellipse-curve $-1 -1.08813789828402e-11 -4.03861285194332e-09 1.9063571120525 -9.11611025779471e-12 -2.74922655665556e-09 -1 1.92863933546256 -3.93882629134301e-09 -1.75815295243799e-11 1 #
copar-lwd-attrib $-1 $-1 $-1 $866 #
copar-lwd-attrib $-1 $-1 $-1 $867 #
edge $928 $870 $904 $895 $929 0 #
face $-1 $922 $868 $5 $-1 $930 0 #
point $-1 -1.92863933547344 -9.97863244179072e-11 1.90635711207008 #
copar-lwd-attrib $-1 $-1 $-1 $873 #
epar-lwd-attrib $-1 $-1 $-1 $874 #
ellipse-curve $-1 2.71979676479228 -1.44092850588345e-08 0.154562971664477 -2.04228246249577e-09 -1 2.74922655667417e-09 1.12264955616497 -4.91426681917785e-10 0.655217306043243 1 #
point $-1 3.10865234289115 -1.17934625763754e-08 1.3949028780923 #
epar-lwd-attrib $-1 $-1 $-1 $880 #
ellipse-curve $-1 -1.5543852171179e-11 -5.44471641438273e-09 1.39490287812064 -9.11611025779471e-12 -2.74922655665556e-09 -1 -3.10865234290669 6.34874654268016e-09 2.8339039376856e-11 1 #
torus-surface $-1 -2.68509658951643e-11 -8.8546918244235e-09 0.154562971689271 -9.11611025779471e-12 -2.74922655665556e-09 -1 2.71979676481913 -1.29986604852037 -1 0 9.11611025779471e-12 0 #
copar-lwd-attrib $-1 $-1 $-1 $891 #
epar-lwd-attrib $-1 $-1 $-1 $892 #
ellipse-curve $-1 0.0497720039568106 -1.32849390649334e-08 -1.41991576275421 -2.04228246249577e-09 -1 2.74922655667417e-09 1.87886733149487 5.30749992164705e-09 3.32627287478914 1 #
copar-lwd-attrib $-1 $-1 $-1 $895 #
face $-1 $-1 $896 $5 $-1 $931 0 #
point $-1 -6.38111785633555e-12 -2.68147671489392e-09 2.4 #
copar-lwd-attrib $-1 $-1 $-1 $901 #
epar-lwd-attrib $-1 $-1 $-1 $902 #
ellipse-curve $-1 4.94082074940672 5.31491929475244e-10 7.2390046934962 2.04228246249577e-09 1 -2.74922655667418e-09 -1.83216840651557 -1.23249545058506e-08 -5.8441018154039 1 #
point $-1 1.92863933545168 -7.97743914328633e-09 1.90635711203492 #
epar-lwd-attrib $-1 $-1 $-1 $908 #
ellipse-curve $-1 -1.08813789828402e-11 -4.03861285194332e-09 1.9063571120525 -9.11611025779471e-12 -2.74922655665556e-09 -1 -1.92863933546256 3.93882652752541e-09 1.75818264773609e-11 1 #
torus-surface $-1 3.77315956257007e-11 1.06220434963705e-08 7.23900469354124 -9.11611025779471e-12 -2.74922655665556e-09 -1 4.94082074936899 6.12457076852256 -1 0 9.11611025779471e-12 0 #
torus-surface $-1 -4.12040471187147e-11 -1.31832905740437e-08 -1.41991576275376 -9.11611025779471e-12 -2.74922655665556e-09 -1 0.0497720039980149 -3.82024000383701 -1 0 9.11611025779471e-12 0 #
