103 514 0 0                                 
body $1 $2 $-1 $-1 #
f_body-lwd-attrib $-1 $3 $-1 $0 #
lump $-1 $-1 $4 $0 #
ref_vt-lwd-attrib $-1 $-1 $1 $0 $5 $-1 #
shell $-1 $-1 $-1 $6 $2 #
refinement $-1 0 0 0 0 0.463929235935211 30 0 0 0 #
face $7 $8 $9 $4 $-1 $10 0 #
generic-aries-attrib $-1 $11 $-1 $6 3 #
face $12 $13 $14 $4 $-1 $15 0 #
loop $-1 $-1 $16 $6 #
torus-surface $-1 0 0.79375 0 0 1 0 5.08 0.3175 0 0 1 0 #
generic-aries-attrib $-1 $17 $7 $6 1 1 712592639 1 1 #
generic-aries-attrib $-1 $18 $-1 $8 3 #
face $19 $20 $21 $4 $-1 $22 0 #
loop $-1 $-1 $23 $8 #
torus-surface $-1 0 0.79375 0 0 1 0 5.08 0.3175 0 0 1 0 #
coedge $24 $25 $26 $27 $28 0 $9 $-1 #
generic-aries-attrib $-1 $29 $11 $6 2 #
generic-aries-attrib $-1 $30 $12 $8 1 1 712592639 1 2 #
generic-aries-attrib $-1 $31 $-1 $13 3 #
face $32 $33 $34 $4 $-1 $22 0 #
loop $-1 $-1 $35 $13 #
cone-surface $-1 0 0.555625 0 0 1 0 5.3975 0 0 1 0 1 0 #
coedge $36 $37 $38 $39 $40 0 $14 $-1 #
generic-aries-attrib $-1 $41 $-1 $16 4 #
coedge $42 $43 $16 $38 $44 1 $9 $-1 #
coedge $45 $16 $43 $37 $46 1 $9 $-1 #
coedge $47 $39 $39 $16 $28 1 $48 $-1 #
edge $49 $50 $51 $27 $52 0 #
fface-lwd-attrib $-1 $-1 $17 $6 #
generic-aries-attrib $-1 $53 $18 $8 2 #
generic-aries-attrib $-1 $54 $19 $13 1 1 712592639 6 3 #
generic-aries-attrib $-1 $55 $-1 $20 3 #
face $56 $57 $58 $4 $-1 $59 1 #
loop $-1 $-1 $60 $20 #
coedge $61 $62 $63 $64 $65 1 $21 $-1 #
generic-aries-attrib $-1 $66 $-1 $23 4 #
coedge $67 $64 $23 $26 $46 0 $14 $-1 #
coedge $68 $23 $64 $25 $44 0 $14 $-1 #
coedge $69 $27 $27 $23 $40 1 $48 $-1 #
edge $70 $51 $50 $39 $71 0 #
copar-lwd-attrib $-1 $-1 $24 $16 #
generic-aries-attrib $-1 $72 $-1 $25 4 #
coedge $73 $26 $25 $60 $74 0 $9 $-1 #
edge $75 $76 $51 $38 $77 0 #
generic-aries-attrib $-1 $78 $-1 $26 4 #
edge $79 $50 $80 $37 $81 0 #
copar-lwd-attrib $-1 $-1 $-1 $27 #
loop $-1 $82 $27 $83 #
epar-lwd-attrib $-1 $-1 $-1 $28 #
vertex $-1 $28 $84 #
vertex $-1 $28 $85 #
ellipse-curve $-1 0 1.11125 0 -0 -1 -0 5.08 0 0 1 #
fface-lwd-attrib $-1 $-1 $30 $8 #
generic-aries-attrib $-1 $86 $31 $13 2 #
generic-aries-attrib $-1 $87 $32 $20 1 1 712592639 6 4 #
generic-aries-attrib $-1 $88 $-1 $33 3 #
face $89 $83 $90 $4 $-1 $59 1 #
loop $-1 $-1 $91 $33 #
cone-surface $-1 -2.80633003783411 1.27 2.80633003783411 0 1 0 0.79375 0 0 1 0 1 0 #
coedge $92 $93 $94 $43 $74 1 $34 $-1 #
generic-aries-attrib $-1 $95 $-1 $35 4 #
coedge $96 $97 $35 $94 $98 0 $21 $-1 #
coedge $99 $35 $97 $93 $100 0 $21 $-1 #
coedge $101 $38 $37 $35 $65 0 $14 $-1 #
edge $102 $80 $76 $35 $103 0 #
copar-lwd-attrib $-1 $-1 $36 $23 #
generic-aries-attrib $-1 $104 $-1 $37 4 #
generic-aries-attrib $-1 $105 $-1 $38 4 #
copar-lwd-attrib $-1 $-1 $-1 $39 #
epar-lwd-attrib $-1 $-1 $-1 $40 #
ellipse-curve $-1 0 1.11125 0 -0 -1 -0 5.08 0 0 1 #
copar-lwd-attrib $-1 $-1 $42 $25 #
generic-aries-attrib $-1 $106 $-1 $43 4 #
edge $107 $76 $80 $60 $108 0 #
epar-lwd-attrib $-1 $-1 $-1 $44 #
vertex $-1 $100 $109 #
ellipse-curve $-1 5.08 0.79375 0 -0 -0 1 0.224506403026729 0.224506403026729 0 1 #
copar-lwd-attrib $-1 $-1 $45 $26 #
epar-lwd-attrib $-1 $-1 $-1 $46 #
vertex $-1 $74 $110 #
ellipse-curve $-1 -5.08 0.79375 1.07594113740034e-13 6.98296672221876e-15 0 1 -0.224506403026729 0.224506403026729 1.56772074126068e-15 1 #
loop $-1 $111 $112 $83 #
face $113 $114 $115 $4 $-1 $116 0 #
point $-1 -5.08 1.11125 1.05408639716059e-13 #
point $-1 5.08 1.11125 0 #
fface-lwd-attrib $-1 $-1 $54 $13 #
generic-aries-attrib $-1 $117 $55 $20 2 #
generic-aries-attrib $-1 $118 $56 $33 1 1 712592639 10 4 #
generic-aries-attrib $-1 $119 $-1 $57 3 #
loop $-1 $-1 $120 $57 #
coedge $121 $122 $123 $124 $125 1 $58 $-1 #
generic-aries-attrib $-1 $126 $-1 $60 4 #
coedge $127 $128 $60 $63 $100 1 $34 $-1 #
coedge $129 $60 $128 $62 $98 1 $34 $-1 #
copar-lwd-attrib $-1 $-1 $61 $35 #
generic-aries-attrib $-1 $130 $-1 $62 4 #
coedge $131 $63 $62 $132 $133 1 $21 $-1 #
edge $134 $80 $135 $62 $136 0 #
generic-aries-attrib $-1 $137 $-1 $63 4 #
edge $138 $139 $76 $63 $140 0 #
generic-aries-attrib $-1 $141 $-1 $64 4 #
epar-lwd-attrib $-1 $-1 $-1 $65 #
ellipse-curve $-1 0 0.79375 0 0 1 0 5.3975 0 0 1 #
copar-lwd-attrib $-1 $-1 $67 $37 #
copar-lwd-attrib $-1 $-1 $68 $38 #
copar-lwd-attrib $-1 $-1 $73 $43 #
epar-lwd-attrib $-1 $-1 $-1 $74 #
ellipse-curve $-1 0 0.79375 0 0 1 0 5.3975 0 0 1 #
point $-1 5.3975 0.79375 0 #
point $-1 -5.3975 0.79375 1.11996679698313e-13 #
loop $-1 $142 $143 $83 #
coedge $144 $124 $124 $120 $145 0 $82 $-1 #
generic-aries-attrib $-1 $146 $-1 $83 3 #
face $147 $148 $149 $4 $-1 $150 1 #
loop $-1 $48 $151 $83 #
plane-surface $-1 0 1.11125 0 0 1 0 1 0 0 0 #
fface-lwd-attrib $-1 $-1 $87 $20 #
generic-aries-attrib $-1 $152 $88 $33 2 #
generic-aries-attrib $-1 $153 $89 $57 1 1 712592639 10 3 #
coedge $154 $155 $156 $112 $145 1 $90 $-1 #
generic-aries-attrib $-1 $157 $-1 $91 4 #
coedge $158 $159 $91 $156 $160 0 $58 $-1 #
coedge $161 $91 $159 $155 $162 0 $58 $-1 #
coedge $163 $112 $112 $91 $125 0 $82 $-1 #
edge $164 $165 $166 $124 $167 0 #
copar-lwd-attrib $-1 $-1 $92 $60 #
generic-aries-attrib $-1 $168 $-1 $93 4 #
coedge $169 $94 $93 $170 $171 1 $34 $-1 #
generic-aries-attrib $-1 $172 $-1 $94 4 #
copar-lwd-attrib $-1 $-1 $96 $62 #
generic-aries-attrib $-1 $173 $-1 $97 4 #
coedge $174 $170 $170 $97 $133 0 $175 $-1 #
edge $176 $139 $135 $132 $177 0 #
epar-lwd-attrib $-1 $-1 $-1 $98 #
vertex $-1 $133 $178 #
straight-curve $-1 -5.3975 0.555625 3.76905628831758e-14 -0 -1 0 #
copar-lwd-attrib $-1 $-1 $99 $63 #
epar-lwd-attrib $-1 $-1 $-1 $100 #
vertex $-1 $171 $179 #
straight-curve $-1 5.3975 0.555625 -3.76905628831758e-14 0 1 0 #
copar-lwd-attrib $-1 $-1 $101 $64 #
loop $-1 $180 $181 $83 #
coedge $182 $183 $183 $184 $185 0 $111 $-1 #
copar-lwd-attrib $-1 $-1 $-1 $112 #
edge $186 $166 $165 $112 $187 0 #
generic-aries-attrib $-1 $188 $113 $83 1 1 712592639 6 2 #
generic-aries-attrib $-1 $189 $-1 $114 3 #
face $190 $191 $192 $4 $-1 $150 1 #
loop $-1 $-1 $193 $114 #
cone-surface $-1 2.80633003783411 1.27 -2.80633003783411 0 1 0 0.79375 0 0 1 0 1 0 #
coedge $194 $195 $195 $196 $197 1 $115 $-1 #
fface-lwd-attrib $-1 $-1 $118 $33 #
generic-aries-attrib $-1 $198 $119 $57 2 #
generic-aries-attrib $-1 $199 $-1 $120 4 #
coedge $200 $201 $120 $123 $162 1 $90 $-1 #
coedge $202 $120 $201 $122 $160 1 $90 $-1 #
copar-lwd-attrib $-1 $-1 $121 $91 #
generic-aries-attrib $-1 $203 $-1 $122 4 #
coedge $204 $123 $122 $205 $206 1 $58 $-1 #
edge $207 $165 $208 $156 $209 0 #
generic-aries-attrib $-1 $210 $-1 $123 4 #
edge $211 $212 $166 $155 $213 0 #
copar-lwd-attrib $-1 $-1 $-1 $124 #
epar-lwd-attrib $-1 $-1 $-1 $125 #
vertex $-1 $145 $214 #
vertex $-1 $145 $215 #
ellipse-curve $-1 -2.80633003783411 1.11125 2.80633003783411 -0 -1 -0 0.79375 0 0 1 #
copar-lwd-attrib $-1 $-1 $127 $93 #
generic-aries-attrib $-1 $216 $-1 $128 4 #
coedge $217 $132 $132 $128 $171 0 $175 $-1 #
edge $218 $135 $139 $170 $177 0 #
copar-lwd-attrib $-1 $-1 $129 $94 #
copar-lwd-attrib $-1 $-1 $131 $97 #
copar-lwd-attrib $-1 $-1 $-1 $132 #
loop $-1 $219 $132 $220 #
epar-lwd-attrib $-1 $-1 $-1 $133 #
ellipse-curve $-1 0 0 0 0 -1 0 5.3975 0 0 1 #
point $-1 -5.3975 0 3.76905628831758e-14 #
point $-1 5.3975 0 0 #
loop $-1 $-1 $221 $83 #
coedge $222 $223 $223 $224 $225 0 $142 $-1 #
copar-lwd-attrib $-1 $-1 $-1 $143 #
coedge $226 $143 $143 $227 $228 0 $111 $-1 #
coedge $229 $230 $231 $143 $185 1 $232 $-1 #
edge $233 $234 $235 $143 $236 0 #
epar-lwd-attrib $-1 $-1 $-1 $145 #
ellipse-curve $-1 -2.80633003783411 1.11125 2.80633003783411 -0 -1 -0 0.79375 0 0 1 #
fface-lwd-attrib $-1 $-1 $146 $83 #
generic-aries-attrib $-1 $237 $147 $114 1 1 712592639 9 4 #
generic-aries-attrib $-1 $238 $-1 $148 3 #
face $239 $240 $241 $4 $-1 $242 1 #
loop $-1 $-1 $243 $148 #
coedge $244 $245 $246 $247 $248 1 $149 $-1 #
copar-lwd-attrib $-1 $-1 $-1 $151 #
coedge $249 $151 $151 $250 $251 1 $115 $-1 #
coedge $252 $253 $254 $151 $197 0 $255 $256 #
edge $257 $258 $259 $196 $260 0 #
fface-lwd-attrib $-1 $-1 $153 $57 #
copar-lwd-attrib $-1 $-1 $154 $120 #
generic-aries-attrib $-1 $261 $-1 $155 4 #
coedge $262 $156 $155 $263 $264 1 $90 $-1 #
generic-aries-attrib $-1 $265 $-1 $156 4 #
copar-lwd-attrib $-1 $-1 $158 $122 #
generic-aries-attrib $-1 $266 $-1 $159 4 #
coedge $267 $263 $263 $159 $206 0 $268 $-1 #
edge $269 $212 $208 $205 $270 0 #
epar-lwd-attrib $-1 $-1 $-1 $160 #
vertex $-1 $264 $271 #
straight-curve $-1 -3.60008003783411 1.27 2.80633003783411 -0 -1 0 #
copar-lwd-attrib $-1 $-1 $161 $123 #
epar-lwd-attrib $-1 $-1 $-1 $162 #
vertex $-1 $264 $272 #
straight-curve $-1 -2.01258003783411 1.27 2.8063300378341 0 1 0 #
point $-1 -3.60008003783411 1.11125 2.80633003783411 #
point $-1 -2.01258003783411 1.11125 2.8063300378341 #
copar-lwd-attrib $-1 $-1 $169 $128 #
copar-lwd-attrib $-1 $-1 $-1 $170 #
epar-lwd-attrib $-1 $-1 $-1 $171 #
loop $-1 $268 $273 $220 #
face $274 $275 $276 $4 $-1 $277 1 #
coedge $278 $247 $247 $243 $279 0 $180 $-1 #
copar-lwd-attrib $-1 $-1 $-1 $181 #
coedge $280 $181 $181 $281 $282 0 $142 $-1 #
coedge $283 $284 $285 $181 $225 1 $286 $-1 #
edge $287 $288 $289 $181 $290 0 #
copar-lwd-attrib $-1 $-1 $-1 $183 #
coedge $291 $292 $293 $183 $228 1 $241 $-1 #
edge $294 $235 $234 $183 $295 0 #
generic-aries-attrib $-1 $296 $-1 $184 4 #
coedge $297 $298 $184 $293 $299 1 $232 $-1 #
coedge $300 $184 $298 $292 $301 1 $232 $-1 #
loop $-1 $-1 $184 $240 #
epar-lwd-attrib $-1 $-1 $-1 $185 #
vertex $-1 $185 $302 #
vertex $-1 $185 $303 #
ellipse-curve $-1 2.80633003783411 1.11125 2.80633003783411 -0 -1 -0 0.79375 0 0 1 #
generic-aries-attrib $-1 $304 $189 $114 2 #
generic-aries-attrib $-1 $305 $190 $148 1 1 712592639 9 3 #
generic-aries-attrib $-1 $306 $-1 $191 3 #
face $307 $308 $232 $4 $-1 $242 1 #
loop $-1 $-1 $227 $191 #
cone-surface $-1 2.80633003783411 1.27 2.80633003783411 0 1 0 0.79375 0 0 1 0 1 0 #
coedge $309 $310 $311 $221 $279 1 $192 $-1 #
generic-aries-attrib $-1 $312 $-1 $193 4 #
coedge $313 $314 $193 $311 $315 0 $149 $-1 #
coedge $316 $193 $314 $310 $317 0 $149 $-1 #
coedge $318 $221 $221 $193 $248 0 $180 $-1 #
edge $319 $320 $321 $247 $322 0 #
copar-lwd-attrib $-1 $-1 $-1 $195 #
coedge $323 $324 $325 $195 $251 0 $326 $327 #
edge $328 $259 $258 $250 $329 0 #
copar-lwd-attrib $-1 $-1 $-1 $196 #
coedge $330 $331 $196 $325 $332 0 $255 $333 #
coedge $334 $196 $331 $324 $335 0 $255 $336 #
loop $-1 $-1 $196 $337 #
pcurve $-1 2 $260 #
epar-lwd-attrib $-1 $-1 $-1 $197 #
vertex $-1 $335 $338 #
vertex $-1 $197 $339 #
intcurve-curve $-1 0 surfint nubs 3 open 13 
0 3 0.329420653682509 3 0.658841307365019 3 0.988261961047528 3 1.31768261473004 3 
1.646728144575 3 1.97577367441996 3 2.30481920426492 3 2.63386473410988 3 3.34495594178985 3 
4.05604714946983 3 4.76713835714981 3 5.47822956482979 3 
1.48090398801946 1.11125 -0.872210142927904 
1.42290668366042 1.11125 -0.965451038376424 
1.35402737954897 1.11125 -1.05635529397527 
1.27560585386817 1.11125 -1.14060489370533 
1.19718432818736 1.11125 -1.22485449343539 
1.10922741407178 1.11125 -1.30245579761107 
1.01445931800733 1.11125 -1.37037945173664 
0.91969122194288 1.11125 -1.4383031058622 
0.817960101592654 1.11125 -1.49665779595849 
0.712986163761022 1.11125 -1.5438025900356 
0.608012225929391 1.11125 -1.59094738411272 
0.499791470604337 1.11125 -1.62687337537751 
0.392820778843434 1.11125 -1.65166900001475 
0.285971898681015 1.11125 -1.67643638893038 
0.173108119852086 1.11125 -1.69178164564903 
0.0582317114339361 1.11125 -1.69562986161255 
-0.0566446969842137 1.11125 -1.69947807757608 
-0.173533412744476 1.11125 -1.69183886945302 
-0.288368621669626 1.11125 -1.67253427157472 
-0.403203830594776 1.11125 -1.65322967369641 
-0.51617044982147 1.11125 -1.62222862622897 
-0.623486635404444 1.11125 -1.58104122394252 
-0.730802820987418 1.11125 -1.53985382165607 
-0.832465168369535 1.11125000000014 -1.48847119405185 
-0.925371514997114 1.11125000000014 -1.4301743888051 
-1.12614885500738 1.11125000000014 -1.30419077290147 
-1.29528260476018 1.11125 -1.14114745571813 
-1.42659561392218 1.11125 -0.954292790640971 
-1.55790862308417 1.11125 -0.76743812556381 
-1.65119706071895 1.11125 -0.556628910939884 
-1.70171784612443 1.11125 -0.336121301473943 
-1.7522386315299 1.11125 -0.115613692008002 
-1.76007364529421 1.11125 0.114974029835185 
-1.72343727297164 1.11125 0.340684228917414 
-1.68680090064908 1.11125 0.566394427999643 
-1.60592557130618 1.11125 0.787264800567218 
-1.48090398801946 1.11125 0.988642593410012 
0.001 
plane 0 1.11125 0 0 1 0 1 0 0 0 
spline 0 exact nurbs 2 2 both open open none none 3 2 
0 2 0.5 2 1 2 
0 2 1 2 
1.48090398801946 0 -0.925371514997114 1 
0.555532473022347 0 -2.40627550301658 0.707106781186548 
-0.925371514997114 0 -1.48090398801946 1 
-2.40627550301657 0 -0.555532473022347 0.707106781186548 
-1.48090398801946 0 0.925371514997114 1 
1.48090398801946 4.82185863604974 -0.925371514997114 0.923879532511287 
0.555532473022347 5.4352691524598 -2.40627550301657 0.653281482438189 
-0.925371514997114 5.05196772071426 -1.48090398801946 0.923879532511287 
-2.40627550301657 4.66866628896872 -0.555532473022347 0.653281482438189 
-1.48090398801946 4.05525577255866 0.925371514997114 0.923879532511287 
1.48090398801946 8.23142757552343 2.48419742447657 1 
0.555532473022347 9.27858482773819 1.43704017226181 0.707106781186548 
-0.925371514997114 8.62424835436686 2.09137664563314 1 
-2.40627550301657 7.96991188099553 2.74571311900447 0.707106781186548 
-1.48090398801946 6.92275462878077 3.79287037121923 1 
0 

nullbs 
nubs 2 open 13 
0 2 0.329420653682509 2 0.658841307365019 2 0.988261961047528 2 1.31768261473004 2 
1.646728144575 2 1.97577367441996 2 2.30481920426492 2 2.63386473410988 2 3.34495594178985 2 
4.05604714946983 2 4.76713835714981 2 5.47822956482979 2 
0 0.12383163807315 
0.0358570543125147 0.122241764149759 
0.0658961521951549 0.121066498476564 
0.099550302248057 0.119749795575821 
0.129855989623677 0.118795313667642 
0.16151174072013 0.117798311311719 
0.191364429274133 0.11713665573569 
0.221036946004891 0.116478993491495 
0.25 0.116128112632506 
0.279239125577255 0.115773887228639 
0.308588828798526 0.115722035637115 
0.338835332326766 0.115668599684657 
0.370082329037416 0.115935020969359 
0.401033057836364 0.116198916184808 
0.43405676040998 0.116786507248792 
0.465340765531807 0.117343143858942 
0.5 0.118218152459341 
0.567035817250713 0.119910541732477 
0.631480558520887 0.122972696333139 
0.687098492373827 0.125615436588904 
0.750172389404509 0.129749878086639 
0.788129725930059 0.132237949930345 
0.868803245259499 0.138078911438578 
0.952781186487868 0.144159121231489 
1 0.147117002725878 

#
copar-lwd-attrib $-1 $-1 $200 $155 #
generic-aries-attrib $-1 $340 $-1 $201 4 #
coedge $341 $205 $205 $201 $264 0 $268 $-1 #
edge $342 $208 $212 $263 $343 0 #
copar-lwd-attrib $-1 $-1 $202 $156 #
copar-lwd-attrib $-1 $-1 $204 $159 #
copar-lwd-attrib $-1 $-1 $-1 $205 #
loop $-1 $-1 $263 $220 #
epar-lwd-attrib $-1 $-1 $-1 $206 #
ellipse-curve $-1 -2.80633003783411 0 2.80633003783411 -0 1 -0 0.79375 0 0 1 #
point $-1 -3.60008003783411 0 2.80633003783411 #
point $-1 -2.01258003783411 0 2.80633003783411 #
coedge $344 $345 $345 $298 $346 0 $219 $-1 #
fface-lwd-attrib $-1 $347 $-1 $220 #
face $348 $-1 $349 $4 $-1 $350 1 #
loop $-1 $351 $352 $220 #
plane-surface $-1 1.48090398801946 0 -0.925371514997114 0 1 0 0 0 1 0 #
copar-lwd-attrib $-1 $-1 $-1 $221 #
edge $353 $321 $320 $221 $354 0 #
copar-lwd-attrib $-1 $-1 $-1 $223 #
coedge $355 $356 $357 $223 $282 1 $358 $-1 #
edge $359 $289 $288 $223 $360 0 #
generic-aries-attrib $-1 $361 $-1 $224 4 #
coedge $362 $363 $224 $357 $364 1 $286 $-1 #
coedge $365 $224 $363 $356 $366 1 $286 $-1 #
loop $-1 $-1 $224 $367 #
epar-lwd-attrib $-1 $-1 $-1 $225 #
vertex $-1 $225 $368 #
vertex $-1 $225 $369 #
ellipse-curve $-1 -2.80633003783411 1.11125 -2.80633003783411 -0 -1 -0 0.79375 0 0 1 #
generic-aries-attrib $-1 $370 $-1 $227 4 #
coedge $371 $372 $227 $231 $301 0 $241 $-1 #
coedge $373 $227 $372 $230 $299 0 $241 $-1 #
epar-lwd-attrib $-1 $-1 $-1 $228 #
ellipse-curve $-1 2.80633003783411 1.11125 2.80633003783411 -0 -1 -0 0.79375 0 0 1 #
copar-lwd-attrib $-1 $-1 $229 $184 #
generic-aries-attrib $-1 $374 $-1 $230 4 #
coedge $375 $231 $230 $273 $346 1 $232 $-1 #
edge $376 $377 $234 $230 $378 0 #
generic-aries-attrib $-1 $379 $-1 $231 4 #
edge $380 $235 $381 $231 $382 0 #
point $-1 3.60008003783411 1.11125 2.8063300378341 #
point $-1 2.01258003783411 1.11125 2.80633003783411 #
fface-lwd-attrib $-1 $-1 $237 $114 #
generic-aries-attrib $-1 $383 $238 $148 2 #
generic-aries-attrib $-1 $384 $239 $191 1 1 712592639 8 4 #
generic-aries-attrib $-1 $385 $-1 $240 3 #
face $386 $367 $358 $4 $-1 $387 1 #
generic-aries-attrib $-1 $388 $-1 $243 4 #
coedge $389 $390 $243 $246 $317 1 $192 $-1 #
coedge $391 $243 $390 $245 $315 1 $192 $-1 #
copar-lwd-attrib $-1 $-1 $244 $193 #
generic-aries-attrib $-1 $392 $-1 $245 4 #
coedge $393 $246 $245 $394 $395 1 $149 $-1 #
edge $396 $320 $397 $311 $398 0 #
generic-aries-attrib $-1 $399 $-1 $246 4 #
edge $400 $401 $321 $310 $402 0 #
copar-lwd-attrib $-1 $-1 $-1 $247 #
epar-lwd-attrib $-1 $-1 $-1 $248 #
vertex $-1 $279 $403 #
vertex $-1 $279 $404 #
ellipse-curve $-1 2.80633003783411 1.11125 -2.80633003783411 -0 -1 -0 0.79375 0 0 1 #
copar-lwd-attrib $-1 $-1 $-1 $250 #
coedge $405 $406 $250 $254 $335 1 $326 $407 #
coedge $408 $250 $406 $253 $332 1 $326 $409 #
loop $-1 $-1 $250 $410 #
pcurve $-1 2 $329 #
epar-lwd-attrib $-1 $-1 $-1 $251 #
intcurve-curve $-1 0 surfint nubs 3 open 13 
0 3 0.329731673753778 3 0.659463347507557 3 0.989195021261335 3 1.31892669501511 3 
1.6480946597695 3 1.97726262452389 3 2.30643058927827 3 2.63559855403266 3 3.3469741174811 3 
4.05834968092954 3 4.76972524437798 3 5.48110080782642 3 
-1.48090398801946 1.11125 0.988642593410012 
-1.42293171179491 1.11125 1.08202110234635 
-1.35408377923412 1.11125 1.17309451716776 
-1.27569250823907 1.11125 1.25753317953016 
-1.19730123724402 1.11125 1.34197184189256 
-1.10937334769269 1.11125 1.41978199028035 
-1.01462042167145 1.11125 1.48791445481846 
-0.9198674956502 1.11125 1.55604691935657 
-0.818137709564139 1.11125 1.61460999650487 
-0.713140037650791 1.11125 1.66193759432928 
-0.608142365737443 1.11125 1.7092651921537 
-0.499872545367355 1.11125 1.74534785360083 
-0.392820778843434 1.11125 1.77025267293239 
-0.285952027931885 1.11125 1.79511491500523 
-0.173062748739822 1.11125 1.81051936680826 
-0.0581639219932308 1.11125 1.81437825462402 
0.0567349047533603 1.11125 1.81823714243977 
0.173642962183353 1.11125 1.81055989825735 
0.2884849175499 1.11125 1.79117484726008 
0.403326872916447 1.11125 1.7717897962628 
0.516289782383961 1.11125 1.74066574737051 
0.623587062791305 1.11125 1.69933477574578 
0.730884343198648 1.11125 1.65800380412105 
0.832512797094635 1.11125000000078 1.60645760925914 
0.925371514997114 1.11125000000078 1.54800831917115 
1.12605150163635 1.11125000000078 1.42169166286915 
1.29506214646194 1.11125 1.25834309106344 
1.42633150149271 1.11125 1.07126553157213 
1.55760085652348 1.11125 0.884187972080823 
1.65092302899515 1.11125 0.673236995481256 
1.70153386569266 1.11125 0.452633191539531 
1.75214470239017 1.11125 0.232029387597807 
1.76011681057272 1.11125 0.00141200458891302 
1.7235590128619 1.11125 -0.224300564822932 
1.68700121515109 1.11125 -0.450013134234776 
1.60614769877557 1.11125 -0.670858789287354 
1.48090398801946 1.11125 -0.872210142927904 
0.001 
plane 0 1.11125 0 0 1 0 1 0 0 0 
spline 0 exact nurbs 2 2 both open open none none 3 2 
0 2 0.5 2 1 2 
0 2 1 2 
-1.48090398801946 0 0.925371514997114 1 
-0.555532473022347 0 2.40627550301658 0.707106781186548 
0.925371514997114 0 1.48090398801946 1 
2.40627550301657 0 0.555532473022348 0.707106781186548 
1.48090398801946 0 -0.925371514997114 1 
-1.48090398801946 4.05525577255866 0.925371514997114 0.923879532511287 
-0.555532473022347 3.44184525614859 2.40627550301657 0.653281482438189 
0.925371514997114 3.82514668789413 1.48090398801946 0.923879532511287 
2.40627550301657 4.20844811963967 0.555532473022347 0.653281482438189 
1.48090398801946 4.82185863604974 -0.925371514997114 0.923879532511287 
-1.48090398801946 6.92275462878077 3.79287037121923 1 
-0.555532473022347 5.87559737656601 4.84002762343399 0.707106781186548 
0.925371514997114 6.52993384993734 4.18569115006266 1 
2.40627550301657 7.18427032330866 3.53135467669134 0.707106781186548 
1.48090398801946 8.23142757552343 2.48419742447657 1 
0 

nullbs 
nubs 2 open 13 
0 2 0.329731673753778 2 0.659463347507557 2 0.989195021261335 2 1.31892669501511 2 
1.6480946597695 2 1.97726262452389 2 2.30643058927827 2 2.63559855403266 2 3.3469741174811 2 
4.05834968092954 2 4.76972524437798 2 5.48110080782642 2 
0 0.147117002725878 
0.0527903603826582 0.150423897127573 
0.0658721830428261 0.151223488802192 
0.102479079660631 0.15346098815757 
0.1298204276158 0.15492800458391 
0.162816129934993 0.156698408785643 
0.191335023274374 0.157848422041991 
0.221673663252732 0.159071815872161 
0.25 0.159722175230291 
0.279491171921919 0.160399278655728 
0.308600660760899 0.160498272599606 
0.338714379743791 0.160600681673961 
0.370103513243585 0.160089227372548 
0.400428635820754 0.159595110056978 
0.434077068635104 0.158490389228455 
0.463983827469018 0.15750851231372 
0.5 0.155924238019375 
0.560458543019132 0.15326479619511 
0.631398377356659 0.148354960678118 
0.662207702383331 0.146222608387149 
0.750030843660123 0.139560465793991 
0.822124412716051 0.134091546894967 
0.868667428807479 0.131056177669259 
0.935791140441354 0.126678609008721 
1 0.12383163807315 

#
copar-lwd-attrib $-1 $-1 $-1 $253 #
coedge $411 $254 $253 $412 $413 0 $255 $414 #
edge $415 $259 $416 $253 $417 0 #
pcurve $-1 0 0 nubs 1 open 2 
0.147117002725737 1 1 1 
1 0.147117002725737 
1 1 
0 
spline 0 exact nurbs 2 2 both open open none none 3 2 
0 2 0.5 2 1 2 
0 2 1 2 
1.48090398801946 0 -0.925371514997114 1 
0.555532473022347 0 -2.40627550301658 0.707106781186548 
-0.925371514997114 0 -1.48090398801946 1 
-2.40627550301657 0 -0.555532473022347 0.707106781186548 
-1.48090398801946 0 0.925371514997114 1 
1.48090398801946 4.82185863604974 -0.925371514997114 0.923879532511287 
0.555532473022347 5.4352691524598 -2.40627550301657 0.653281482438189 
-0.925371514997114 5.05196772071426 -1.48090398801946 0.923879532511287 
-2.40627550301657 4.66866628896872 -0.555532473022347 0.653281482438189 
-1.48090398801946 4.05525577255866 0.925371514997114 0.923879532511287 
1.48090398801946 8.23142757552343 2.48419742447657 1 
0.555532473022347 9.27858482773819 1.43704017226181 0.707106781186548 
-0.925371514997114 8.62424835436686 2.09137664563314 1 
-2.40627550301657 7.96991188099553 2.74571311900447 0.707106781186548 
-1.48090398801946 6.92275462878077 3.79287037121923 1 
0 

#
copar-lwd-attrib $-1 $-1 $-1 $254 #
edge $418 $419 $258 $254 $420 1 #
pcurve $-1 0 1 nubs 1 open 2 
0.123831638073109 1 1 1 
0 0.123831638073109 
0 1 
0 
spline 0 exact nurbs 2 2 both open open none none 3 2 
0 2 0.5 2 1 2 
0 2 1 2 
1.48090398801946 0 -0.925371514997114 1 
0.555532473022347 0 -2.40627550301658 0.707106781186548 
-0.925371514997114 0 -1.48090398801946 1 
-2.40627550301657 0 -0.555532473022347 0.707106781186548 
-1.48090398801946 0 0.925371514997114 1 
1.48090398801946 4.82185863604974 -0.925371514997114 0.923879532511287 
0.555532473022347 5.4352691524598 -2.40627550301657 0.653281482438189 
-0.925371514997114 5.05196772071426 -1.48090398801946 0.923879532511287 
-2.40627550301657 4.66866628896872 -0.555532473022347 0.653281482438189 
-1.48090398801946 4.05525577255866 0.925371514997114 0.923879532511287 
1.48090398801946 8.23142757552343 2.48419742447657 1 
0.555532473022347 9.27858482773819 1.43704017226181 0.707106781186548 
-0.925371514997114 8.62424835436686 2.09137664563314 1 
-2.40627550301657 7.96991188099553 2.74571311900447 0.707106781186548 
-1.48090398801946 6.92275462878077 3.79287037121923 1 
0 

#
face $421 $220 $255 $4 $-1 $422 0 #
point $-1 1.48090398801946 1.11125 -0.872210142927904 #
point $-1 -1.48090398801946 1.11125 0.988642593410012 #
copar-lwd-attrib $-1 $-1 $262 $201 #
copar-lwd-attrib $-1 $-1 $-1 $263 #
epar-lwd-attrib $-1 $-1 $-1 $264 #
ellipse-curve $-1 -2.80633003783411 0 2.80633003783411 -0 1 -0 0.79375 0 0 1 #
copar-lwd-attrib $-1 $-1 $-1 $273 #
coedge $423 $273 $273 $372 $424 0 $219 $-1 #
edge $425 $381 $377 $273 $426 0 #
generic-aries-attrib $-1 $427 $274 $220 3 #
generic-aries-attrib $-1 $428 $-1 $275 3 #
loop $-1 $-1 $412 $275 #
plane-surface $-1 -1.48090398801946 6.92275462878077 3.79287037121923 -0 -0.707106781186548 -0.707106781186547 -1 0 0 0 #
loop $-1 $175 $429 $220 #
coedge $430 $394 $394 $390 $431 0 $276 $-1 #
epar-lwd-attrib $-1 $-1 $-1 $279 #
ellipse-curve $-1 2.80633003783411 1.11125 -2.80633003783411 -0 -1 -0 0.79375 0 0 1 #
generic-aries-attrib $-1 $432 $-1 $281 4 #
coedge $433 $434 $281 $285 $366 0 $358 $-1 #
coedge $435 $281 $434 $284 $364 0 $358 $-1 #
loop $-1 $-1 $281 $308 #
epar-lwd-attrib $-1 $-1 $-1 $282 #
ellipse-curve $-1 -2.80633003783411 1.11125 -2.80633003783411 -0 -1 -0 0.79375 0 0 1 #
copar-lwd-attrib $-1 $-1 $283 $224 #
generic-aries-attrib $-1 $436 $-1 $284 4 #
coedge $437 $285 $284 $429 $438 1 $286 $-1 #
edge $439 $440 $288 $284 $441 0 #
generic-aries-attrib $-1 $442 $-1 $285 4 #
edge $443 $289 $444 $285 $445 0 #
face $446 $410 $286 $4 $-1 $387 1 #
point $-1 -2.01258003783411 1.11125 -2.80633003783411 #
point $-1 -3.60008003783411 1.11125 -2.8063300378341 #
copar-lwd-attrib $-1 $-1 $291 $227 #
generic-aries-attrib $-1 $447 $-1 $292 4 #
coedge $448 $293 $292 $345 $424 1 $241 $-1 #
generic-aries-attrib $-1 $449 $-1 $293 4 #
copar-lwd-attrib $-1 $-1 $297 $230 #
generic-aries-attrib $-1 $450 $-1 $298 4 #
epar-lwd-attrib $-1 $-1 $-1 $299 #
vertex $-1 $346 $451 #
straight-curve $-1 3.60008003783411 1.27 2.8063300378341 0 1 0 #
copar-lwd-attrib $-1 $-1 $300 $231 #
epar-lwd-attrib $-1 $-1 $-1 $301 #
vertex $-1 $346 $452 #
straight-curve $-1 2.01258003783411 1.27 2.80633003783411 -0 -1 0 #
fface-lwd-attrib $-1 $-1 $305 $148 #
generic-aries-attrib $-1 $453 $306 $191 2 #
generic-aries-attrib $-1 $454 $307 $240 1 1 712592639 8 3 #
generic-aries-attrib $-1 $455 $-1 $308 3 #
cone-surface $-1 -2.80633003783411 1.27 -2.80633003783411 0 1 0 0.79375 0 0 1 0 1 0 #
copar-lwd-attrib $-1 $-1 $309 $243 #
generic-aries-attrib $-1 $456 $-1 $310 4 #
coedge $457 $311 $310 $352 $431 1 $192 $-1 #
generic-aries-attrib $-1 $458 $-1 $311 4 #
copar-lwd-attrib $-1 $-1 $313 $245 #
generic-aries-attrib $-1 $459 $-1 $314 4 #
coedge $460 $352 $352 $314 $395 0 $276 $-1 #
edge $461 $401 $397 $394 $462 0 #
epar-lwd-attrib $-1 $-1 $-1 $315 #
vertex $-1 $431 $463 #
straight-curve $-1 2.01258003783411 1.27 -2.8063300378341 -0 -1 0 #
copar-lwd-attrib $-1 $-1 $316 $246 #
epar-lwd-attrib $-1 $-1 $-1 $317 #
vertex $-1 $431 $464 #
straight-curve $-1 3.60008003783411 1.27 -2.80633003783411 0 1 0 #
point $-1 2.01258003783411 1.11125 -2.8063300378341 #
point $-1 3.60008003783411 1.11125 -2.80633003783411 #
copar-lwd-attrib $-1 $-1 $-1 $324 #
coedge $465 $325 $324 $466 $467 0 $326 $468 #
pcurve $-1 0 0 nubs 1 open 2 
0.123831638073109 1 1 1 
1 0.123831638073109 
1 1 
0 
spline 0 exact nurbs 2 2 both open open none none 3 2 
0 2 0.5 2 1 2 
0 2 1 2 
-1.48090398801946 0 0.925371514997114 1 
-0.555532473022347 0 2.40627550301658 0.707106781186548 
0.925371514997114 0 1.48090398801946 1 
2.40627550301657 0 0.555532473022348 0.707106781186548 
1.48090398801946 0 -0.925371514997114 1 
-1.48090398801946 4.05525577255866 0.925371514997114 0.923879532511287 
-0.555532473022347 3.44184525614859 2.40627550301657 0.653281482438189 
0.925371514997114 3.82514668789413 1.48090398801946 0.923879532511287 
2.40627550301657 4.20844811963967 0.555532473022347 0.653281482438189 
1.48090398801946 4.82185863604974 -0.925371514997114 0.923879532511287 
-1.48090398801946 6.92275462878077 3.79287037121923 1 
-0.555532473022347 5.87559737656601 4.84002762343399 0.707106781186548 
0.925371514997114 6.52993384993734 4.18569115006266 1 
2.40627550301657 7.18427032330866 3.53135467669134 0.707106781186548 
1.48090398801946 8.23142757552343 2.48419742447657 1 
0 

#
copar-lwd-attrib $-1 $-1 $-1 $325 #
pcurve $-1 0 1 nubs 1 open 2 
0.147117002725737 1 1 1 
0 0.147117002725737 
0 1 
0 
spline 0 exact nurbs 2 2 both open open none none 3 2 
0 2 0.5 2 1 2 
0 2 1 2 
-1.48090398801946 0 0.925371514997114 1 
-0.555532473022347 0 2.40627550301658 0.707106781186548 
0.925371514997114 0 1.48090398801946 1 
2.40627550301657 0 0.555532473022348 0.707106781186548 
1.48090398801946 0 -0.925371514997114 1 
-1.48090398801946 4.05525577255866 0.925371514997114 0.923879532511287 
-0.555532473022347 3.44184525614859 2.40627550301657 0.653281482438189 
0.925371514997114 3.82514668789413 1.48090398801946 0.923879532511287 
2.40627550301657 4.20844811963967 0.555532473022347 0.653281482438189 
1.48090398801946 4.82185863604974 -0.925371514997114 0.923879532511287 
-1.48090398801946 6.92275462878077 3.79287037121923 1 
-0.555532473022347 5.87559737656601 4.84002762343399 0.707106781186548 
0.925371514997114 6.52993384993734 4.18569115006266 1 
2.40627550301657 7.18427032330866 3.53135467669134 0.707106781186548 
1.48090398801946 8.23142757552343 2.48419742447657 1 
0 

#
face $469 $337 $326 $4 $-1 $470 0 #
copar-lwd-attrib $-1 $-1 $-1 $331 #
coedge $471 $466 $466 $331 $413 1 $349 $-1 #
edge $472 $416 $419 $331 $473 1 #
pcurve $-1 0 1 nubs 1 open 2 
0 1 1 1 
0 1 
1 1 
0 
spline 0 exact nurbs 2 2 both open open none none 3 2 
0 2 0.5 2 1 2 
0 2 1 2 
1.48090398801946 0 -0.925371514997114 1 
0.555532473022347 0 -2.40627550301658 0.707106781186548 
-0.925371514997114 0 -1.48090398801946 1 
-2.40627550301657 0 -0.555532473022347 0.707106781186548 
-1.48090398801946 0 0.925371514997114 1 
1.48090398801946 4.82185863604974 -0.925371514997114 0.923879532511287 
0.555532473022347 5.4352691524598 -2.40627550301657 0.653281482438189 
-0.925371514997114 5.05196772071426 -1.48090398801946 0.923879532511287 
-2.40627550301657 4.66866628896872 -0.555532473022347 0.653281482438189 
-1.48090398801946 4.05525577255866 0.925371514997114 0.923879532511287 
1.48090398801946 8.23142757552343 2.48419742447657 1 
0.555532473022347 9.27858482773819 1.43704017226181 0.707106781186548 
-0.925371514997114 8.62424835436686 2.09137664563314 1 
-2.40627550301657 7.96991188099553 2.74571311900447 0.707106781186548 
-1.48090398801946 6.92275462878077 3.79287037121923 1 
0 

#
epar-lwd-attrib $-1 $-1 $-1 $332 #
vertex $-1 $332 $474 #
intcurve-curve $-1 0 exact nurbs 2 open 2 
0.147117002725737 2 1 2 
-1.48090398801946 1.11125 0.988642593410012 0.98089778330769 
-1.48090398801946 4.50640291802373 1.37651866046219 0.935078147534308 
-1.48090398801946 6.92275462878077 3.79287037121923 1 
0 
spline 0 exact nurbs 2 2 both open open none none 3 2 
0 2 0.5 2 1 2 
0 2 1 2 
-1.48090398801946 0 0.925371514997114 1 
-0.555532473022347 0 2.40627550301658 0.707106781186548 
0.925371514997114 0 1.48090398801946 1 
2.40627550301657 0 0.555532473022348 0.707106781186548 
1.48090398801946 0 -0.925371514997114 1 
-1.48090398801946 4.05525577255866 0.925371514997114 0.923879532511287 
-0.555532473022347 3.44184525614859 2.40627550301657 0.653281482438189 
0.925371514997114 3.82514668789413 1.48090398801946 0.923879532511287 
2.40627550301657 4.20844811963967 0.555532473022347 0.653281482438189 
1.48090398801946 4.82185863604974 -0.925371514997114 0.923879532511287 
-1.48090398801946 6.92275462878077 3.79287037121923 1 
-0.555532473022347 5.87559737656601 4.84002762343399 0.707106781186548 
0.925371514997114 6.52993384993734 4.18569115006266 1 
2.40627550301657 7.18427032330866 3.53135467669134 0.707106781186548 
1.48090398801946 8.23142757552343 2.48419742447657 1 
0 

null_surface 
nullbs 
nullbs 
#
epar-lwd-attrib $-1 $-1 $-1 $335 #
vertex $-1 $413 $475 #
intcurve-curve $-1 0 exact nurbs 2 open 2 
0.123831638073109 2 1 2 
1.48090398801946 1.11125 -0.872210142927904 0.983482259940421 
1.48090398801946 5.27424259491247 -0.472987556134389 0.933305654691305 
1.48090398801946 8.23142757552343 2.48419742447657 1 
0 
spline 0 exact nurbs 2 2 both open open none none 3 2 
0 2 0.5 2 1 2 
0 2 1 2 
1.48090398801946 0 -0.925371514997114 1 
0.555532473022347 0 -2.40627550301658 0.707106781186548 
-0.925371514997114 0 -1.48090398801946 1 
-2.40627550301657 0 -0.555532473022347 0.707106781186548 
-1.48090398801946 0 0.925371514997114 1 
1.48090398801946 4.82185863604974 -0.925371514997114 0.923879532511287 
0.555532473022347 5.4352691524598 -2.40627550301657 0.653281482438189 
-0.925371514997114 5.05196772071426 -1.48090398801946 0.923879532511287 
-2.40627550301657 4.66866628896872 -0.555532473022347 0.653281482438189 
-1.48090398801946 4.05525577255866 0.925371514997114 0.923879532511287 
1.48090398801946 8.23142757552343 2.48419742447657 1 
0.555532473022347 9.27858482773819 1.43704017226181 0.707106781186548 
-0.925371514997114 8.62424835436686 2.09137664563314 1 
-2.40627550301657 7.96991188099553 2.74571311900447 0.707106781186548 
-1.48090398801946 6.92275462878077 3.79287037121923 1 
0 

null_surface 
nullbs 
nullbs 
#
fface-lwd-attrib $-1 $476 $-1 $337 #
spline-surface $-1 0 exact nurbs 2 2 both open open none none 3 2 
0 2 0.5 2 1 2 
0.114668599684657 2 1 2 
1.48090398801946 1.02863552426776 -0.879835698928238 0.984544544136983 
0.555532473022347 1.15949291677227 -2.35494686916554 0.696178123539479 
-0.925371514997114 1.07772414274634 -1.43319510846077 0.984544544136983 
-2.40627550301657 0.995955368720401 -0.511443347755994 0.696178123539479 
-1.48090398801946 0.865097976215891 0.963667822481308 0.984544544136983 
1.48090398801946 5.2410813199355 -0.506148831111359 0.932608159925559 
0.555532473022347 5.9078230561973 -1.93372159927908 0.659453554073271 
-0.925371514997114 5.49119657967498 -1.04167512905874 0.932608159925559 
-2.40627550301657 5.07457010315267 -0.149628658838396 0.659453554073271 
-1.48090398801946 4.40782836689087 1.27794410932933 0.932608159925559 
1.48090398801946 8.23142757552343 2.48419742447657 1 
0.555532473022347 9.27858482773819 1.43704017226181 0.707106781186548 
-0.925371514997114 8.62424835436686 2.09137664563314 1 
-2.40627550301657 7.96991188099553 2.74571311900447 0.707106781186548 
-1.48090398801946 6.92275462878077 3.79287037121923 1 
0 
#
copar-lwd-attrib $-1 $-1 $-1 $345 #
edge $477 $377 $381 $345 $478 0 #
epar-lwd-attrib $-1 $-1 $-1 $346 #
ellipse-curve $-1 2.80633003783411 0 2.80633003783411 -0 1 -0 0.79375 0 0 1 #
generic-aries-attrib $-1 $-1 $347 $220 1 2 712592639 6 1 712592580 1 4 #
generic-aries-attrib $-1 $479 $348 $275 1 1 712592580 1 3 #
coedge $480 $481 $481 $363 $438 0 $351 $-1 #
copar-lwd-attrib $-1 $-1 $-1 $352 #
edge $482 $397 $401 $352 $483 0 #
copar-lwd-attrib $-1 $-1 $355 $281 #
generic-aries-attrib $-1 $484 $-1 $356 4 #
coedge $485 $357 $356 $481 $486 1 $358 $-1 #
generic-aries-attrib $-1 $487 $-1 $357 4 #
copar-lwd-attrib $-1 $-1 $362 $284 #
generic-aries-attrib $-1 $488 $-1 $363 4 #
edge $489 $444 $440 $429 $490 0 #
epar-lwd-attrib $-1 $-1 $-1 $364 #
vertex $-1 $438 $491 #
straight-curve $-1 -2.01258003783411 1.27 -2.80633003783411 0 1 0 #
copar-lwd-attrib $-1 $-1 $365 $285 #
epar-lwd-attrib $-1 $-1 $-1 $366 #
vertex $-1 $438 $492 #
straight-curve $-1 -3.60008003783411 1.27 -2.8063300378341 -0 -1 0 #
generic-aries-attrib $-1 $493 $-1 $367 3 #
copar-lwd-attrib $-1 $-1 $371 $292 #
generic-aries-attrib $-1 $494 $-1 $372 4 #
copar-lwd-attrib $-1 $-1 $373 $293 #
copar-lwd-attrib $-1 $-1 $375 $298 #
point $-1 3.60008003783411 0 2.80633003783411 #
point $-1 2.01258003783411 0 2.80633003783411 #
fface-lwd-attrib $-1 $-1 $384 $191 #
generic-aries-attrib $-1 $495 $385 $240 2 #
generic-aries-attrib $-1 $496 $386 $308 1 1 712592639 7 4 #
copar-lwd-attrib $-1 $-1 $389 $310 #
generic-aries-attrib $-1 $497 $-1 $390 4 #
copar-lwd-attrib $-1 $-1 $391 $311 #
copar-lwd-attrib $-1 $-1 $393 $314 #
copar-lwd-attrib $-1 $-1 $-1 $394 #
epar-lwd-attrib $-1 $-1 $-1 $395 #
ellipse-curve $-1 2.80633003783411 0 -2.80633003783411 -0 1 -0 0.79375 0 0 1 #
point $-1 2.01258003783411 0 -2.8063300378341 #
point $-1 3.60008003783411 0 -2.80633003783411 #
copar-lwd-attrib $-1 $-1 $-1 $406 #
coedge $498 $412 $412 $406 $467 1 $349 $-1 #
edge $499 $419 $416 $406 $500 1 #
pcurve $-1 0 1 nubs 1 open 2 
0 1 1 1 
0 1 
1 1 
0 
spline 0 exact nurbs 2 2 both open open none none 3 2 
0 2 0.5 2 1 2 
0 2 1 2 
-1.48090398801946 0 0.925371514997114 1 
-0.555532473022347 0 2.40627550301658 0.707106781186548 
0.925371514997114 0 1.48090398801946 1 
2.40627550301657 0 0.555532473022348 0.707106781186548 
1.48090398801946 0 -0.925371514997114 1 
-1.48090398801946 4.05525577255866 0.925371514997114 0.923879532511287 
-0.555532473022347 3.44184525614859 2.40627550301657 0.653281482438189 
0.925371514997114 3.82514668789413 1.48090398801946 0.923879532511287 
2.40627550301657 4.20844811963967 0.555532473022347 0.653281482438189 
1.48090398801946 4.82185863604974 -0.925371514997114 0.923879532511287 
-1.48090398801946 6.92275462878077 3.79287037121923 1 
-0.555532473022347 5.87559737656601 4.84002762343399 0.707106781186548 
0.925371514997114 6.52993384993734 4.18569115006266 1 
2.40627550301657 7.18427032330866 3.53135467669134 0.707106781186548 
1.48090398801946 8.23142757552343 2.48419742447657 1 
0 

#
fface-lwd-attrib $-1 $501 $-1 $410 #
spline-surface $-1 0 exact nurbs 2 2 both open open none none 3 2 
0 2 0.5 2 1 2 
0.12283163807315 2 1 2 
-1.48090398801946 0.926993964873697 0.969356714666433 0.983596948627609 
-0.555532473022347 0.786773993904169 2.44360736549663 0.695508072328979 
0.925371514997114 0.874393156266245 1.52239331699594 0.983596948627609 
2.40627550301657 0.962012318628322 0.601179268495258 0.695508072328979 
1.48090398801946 1.10223228959785 -0.873071382334936 0.983596948627609 
-1.48090398801946 4.43267586993651 1.30279161237497 0.933229534223819 
-0.555532473022347 3.76217562360048 2.72660587046846 0.659892932053226 
0.925371514997114 4.18115067787642 1.83690797800175 0.933229534223819 
2.40627550301657 4.60012573215236 0.947210085535033 0.659892932053226 
1.48090398801946 5.27062597848839 -0.476604172558462 0.933229534223819 
-1.48090398801946 6.92275462878077 3.79287037121923 1 
-0.555532473022347 5.87559737656601 4.84002762343399 0.707106781186548 
0.925371514997114 6.52993384993734 4.18569115006266 1 
2.40627550301657 7.18427032330866 3.53135467669134 0.707106781186548 
1.48090398801946 8.23142757552343 2.48419742447657 1 
0 
#
generic-aries-attrib $-1 $502 $-1 $412 4 #
epar-lwd-attrib $-1 $-1 $-1 $413 #
intcurve-curve $-1 0 exact nurbs 2 open 3 
0 2 0.5 2 1 2 
1.48090398801946 8.23142757552343 2.48419742447657 1 
0.555532473022347 9.27858482773819 1.43704017226181 0.707106781186548 
-0.925371514997114 8.62424835436686 2.09137664563314 1 
-2.40627550301657 7.96991188099553 2.74571311900447 0.707106781186548 
-1.48090398801946 6.92275462878077 3.79287037121923 1 
0 
spline 0 exact nurbs 2 2 both open open none none 3 2 
0 2 0.5 2 1 2 
0 2 1 2 
1.48090398801946 0 -0.925371514997114 1 
0.555532473022347 0 -2.40627550301658 0.707106781186548 
-0.925371514997114 0 -1.48090398801946 1 
-2.40627550301657 0 -0.555532473022347 0.707106781186548 
-1.48090398801946 0 0.925371514997114 1 
1.48090398801946 4.82185863604974 -0.925371514997114 0.923879532511287 
0.555532473022347 5.4352691524598 -2.40627550301657 0.653281482438189 
-0.925371514997114 5.05196772071426 -1.48090398801946 0.923879532511287 
-2.40627550301657 4.66866628896872 -0.555532473022347 0.653281482438189 
-1.48090398801946 4.05525577255866 0.925371514997114 0.923879532511287 
1.48090398801946 8.23142757552343 2.48419742447657 1 
0.555532473022347 9.27858482773819 1.43704017226181 0.707106781186548 
-0.925371514997114 8.62424835436686 2.09137664563314 1 
-2.40627550301657 7.96991188099553 2.74571311900447 0.707106781186548 
-1.48090398801946 6.92275462878077 3.79287037121923 1 
0 

null_surface 
nullbs 
nullbs 
#
point $-1 -1.48090398801946 6.92275462878077 3.79287037121923 #
point $-1 1.48090398801946 8.23142757552343 2.48419742447657 #
generic-aries-attrib $-1 $503 $421 $337 3 #
epar-lwd-attrib $-1 $-1 $-1 $424 #
ellipse-curve $-1 2.80633003783411 0 2.80633003783411 -0 1 -0 0.79375 0 0 1 #
generic-aries-attrib $-1 $504 $428 $275 2 #
copar-lwd-attrib $-1 $-1 $-1 $429 #
coedge $505 $429 $429 $434 $486 0 $351 $-1 #
epar-lwd-attrib $-1 $-1 $-1 $431 #
ellipse-curve $-1 2.80633003783411 0 -2.80633003783411 -0 1 -0 0.79375 0 0 1 #
copar-lwd-attrib $-1 $-1 $433 $356 #
generic-aries-attrib $-1 $506 $-1 $434 4 #
edge $507 $440 $444 $481 $508 0 #
copar-lwd-attrib $-1 $-1 $435 $357 #
copar-lwd-attrib $-1 $-1 $437 $363 #
epar-lwd-attrib $-1 $-1 $-1 $438 #
ellipse-curve $-1 -2.80633003783411 0 -2.80633003783411 -0 1 -0 0.79375 0 0 1 #
point $-1 -2.01258003783411 0 -2.80633003783411 #
point $-1 -3.60008003783411 0 -2.8063300378341 #
generic-aries-attrib $-1 $509 $446 $367 1 1 712592639 7 3 #
copar-lwd-attrib $-1 $-1 $448 $372 #
fface-lwd-attrib $-1 $-1 $454 $240 #
generic-aries-attrib $-1 $510 $455 $308 2 #
copar-lwd-attrib $-1 $-1 $457 $390 #
generic-aries-attrib $-1 $511 $-1 $466 4 #
epar-lwd-attrib $-1 $-1 $-1 $467 #
intcurve-curve $-1 0 exact nurbs 2 open 3 
0 2 0.5 2 1 2 
-1.48090398801946 6.92275462878077 3.79287037121923 1 
-0.555532473022347 5.87559737656601 4.84002762343399 0.707106781186548 
0.925371514997114 6.52993384993734 4.18569115006266 1 
2.40627550301657 7.18427032330866 3.53135467669134 0.707106781186548 
1.48090398801946 8.23142757552343 2.48419742447657 1 
0 
spline 0 exact nurbs 2 2 both open open none none 3 2 
0 2 0.5 2 1 2 
0 2 1 2 
-1.48090398801946 0 0.925371514997114 1 
-0.555532473022347 0 2.40627550301658 0.707106781186548 
0.925371514997114 0 1.48090398801946 1 
2.40627550301657 0 0.555532473022348 0.707106781186548 
1.48090398801946 0 -0.925371514997114 1 
-1.48090398801946 4.05525577255866 0.925371514997114 0.923879532511287 
-0.555532473022347 3.44184525614859 2.40627550301657 0.653281482438189 
0.925371514997114 3.82514668789413 1.48090398801946 0.923879532511287 
2.40627550301657 4.20844811963967 0.555532473022347 0.653281482438189 
1.48090398801946 4.82185863604974 -0.925371514997114 0.923879532511287 
-1.48090398801946 6.92275462878077 3.79287037121923 1 
-0.555532473022347 5.87559737656601 4.84002762343399 0.707106781186548 
0.925371514997114 6.52993384993734 4.18569115006266 1 
2.40627550301657 7.18427032330866 3.53135467669134 0.707106781186548 
1.48090398801946 8.23142757552343 2.48419742447657 1 
0 

null_surface 
nullbs 
nullbs 
#
generic-aries-attrib $-1 $512 $469 $410 3 #
copar-lwd-attrib $-1 $-1 $471 $412 #
generic-aries-attrib $-1 $-1 $476 $337 1 1 712592580 1 2 #
fface-lwd-attrib $-1 $-1 $479 $275 #
copar-lwd-attrib $-1 $-1 $-1 $481 #
copar-lwd-attrib $-1 $-1 $485 $434 #
epar-lwd-attrib $-1 $-1 $-1 $486 #
ellipse-curve $-1 -2.80633003783411 0 -2.80633003783411 -0 1 -0 0.79375 0 0 1 #
generic-aries-attrib $-1 $513 $493 $367 2 #
fface-lwd-attrib $-1 $-1 $496 $308 #
copar-lwd-attrib $-1 $-1 $498 $466 #
generic-aries-attrib $-1 $-1 $501 $410 1 1 712592580 1 1 #
fface-lwd-attrib $-1 $-1 $509 $367 #
