104 415 0 0                             
body $1 $2 $-1 $-1 #
f_body-lwd-attrib $-1 $3 $-1 $0 #
lump $-1 $-1 $4 $0 #
ref_vt-lwd-attrib $-1 $-1 $1 $0 $5 $-1 #
shell $-1 $-1 $-1 $6 $2 #
refinement $-1 0 0 0 0 0.190500006079674 30 0 0 0 #
face $7 $8 $9 $4 $-1 $10 1 #
fface-lwd-attrib $-1 $-1 $-1 $6 #
face $11 $12 $13 $4 $-1 $14 1 #
loop $-1 $-1 $15 $6 #
plane-surface $-1 25.4 10.16 0 0.0609872726239249 -0.998138543779317 0 0 0 -1 0 #
fface-lwd-attrib $-1 $-1 $-1 $8 #
face $16 $17 $18 $4 $-1 $19 1 #
loop $-1 $-1 $20 $8 #
plane-surface $-1 15.9343096179004 16.5403814030943 0 -0.905123992102752 -0.425147690714623 -0 0 0 1 0 #
coedge $21 $22 $23 $24 $25 1 $9 $-1 #
fface-lwd-attrib $-1 $-1 $-1 $12 #
face $26 $27 $28 $4 $-1 $29 0 #
loop $-1 $-1 $30 $12 #
cone-surface $-1 20.3199998366655 10.1599998577709 0 0 0 -1 5.08000016333454 1.42229058752719e-07 0 1 0 -1 0 #
coedge $31 $32 $33 $34 $35 1 $13 $-1 #
copar-lwd-attrib $-1 $-1 $-1 $15 #
coedge $36 $37 $15 $38 $39 1 $9 $-1 #
coedge $40 $15 $41 $42 $43 1 $9 $-1 #
coedge $44 $45 $46 $15 $25 0 $47 $-1 #
edge $48 $49 $50 $24 $51 0 #
fface-lwd-attrib $-1 $-1 $-1 $17 #
face $52 $53 $54 $4 $-1 $55 0 #
loop $-1 $-1 $56 $17 #
cone-surface $-1 20.32 10.16 0 0 0 -1 -5.08 0 0 1 0 1 0 #
coedge $57 $58 $38 $59 $60 1 $18 $-1 #
copar-lwd-attrib $-1 $-1 $-1 $20 #
coedge $61 $62 $20 $63 $64 1 $13 $-1 #
coedge $65 $20 $66 $58 $67 0 $13 $-1 #
coedge $68 $69 $70 $20 $35 0 $54 $-1 #
edge $71 $72 $73 $34 $74 0 #
copar-lwd-attrib $-1 $-1 $-1 $22 #
coedge $75 $76 $22 $77 $78 1 $9 $-1 #
coedge $79 $30 $80 $22 $39 0 $18 $-1 #
edge $81 $82 $49 $22 $83 0 #
copar-lwd-attrib $-1 $-1 $-1 $23 #
coedge $84 $23 $76 $85 $86 1 $9 $-1 #
coedge $-1 $87 $88 $23 $43 0 $89 $-1 #
edge $90 $50 $91 $42 $92 0 #
copar-lwd-attrib $-1 $-1 $-1 $24 #
coedge $93 $46 $24 $88 $94 0 $47 $-1 #
coedge $95 $24 $45 $96 $97 0 $47 $-1 #
loop $-1 $-1 $24 $53 #
epar-lwd-attrib $-1 $-1 $-1 $25 #
vertex $-1 $98 $99 #
vertex $-1 $43 $100 #
intcurve-curve $-1 0 surfint nubs 3 open 5 
	1.45544917295655 3 1.63722566080552 3 1.81900214865449 3 2.00110907167696 3 2.18321599469942 3 
	25.4 10.16 -3.3401 
	25.4 10.16 -3.27950783738368 
	25.4121092990144 10.1607398903939 -3.21488508339421 
	25.4367196204781 10.1622436058789 -3.15545470271649 
	25.4613299419418 10.1637473213639 -3.09602432203878 
	25.4984403698063 10.1660148059686 -3.04178593391988 
	25.5412291625902 10.168629244402 -2.99896427941783 
	25.5840957372828 10.1712484353886 -2.9560647832708 
	25.6383800546374 10.1745652619778 -2.91889626540756 
	25.6978392973101 10.1781982817279 -2.89425516188651 
	25.7572985399828 10.181831301478 -2.86961405836547 
	25.821932555544 10.1857805050754 -2.8575 
	25.8825218685299 10.1894825732624 -2.8575 
	0.001 
	torus 20.32 10.16 -3.3401 0 0 -1 5.5626 0.4826 -1 0 0 0 
	plane 25.4 10.16 0 0.0609872726239249 -0.998138543779317 0 0 0 -1 0 
	nullbs 
	nullbs 
	#
fface-lwd-attrib $-1 $-1 $-1 $27 #
face $101 $102 $47 $4 $-1 $55 0 #
loop $-1 $-1 $34 $27 #
torus-surface $-1 20.32 10.16 -3.3401 0 0 -1 5.5626 -0.4826 -1 0 0 0 #
coedge $103 $59 $104 $105 $106 1 $28 $-1 #
copar-lwd-attrib $-1 $-1 $-1 $30 #
coedge $107 $80 $30 $33 $67 1 $18 $-1 #
coedge $108 $109 $56 $30 $60 0 $28 $-1 #
edge $110 $73 $49 $59 $111 1 #
copar-lwd-attrib $-1 $-1 $-1 $32 #
coedge $112 $113 $32 $114 $115 1 $13 $-1 #
coedge $-1 $116 $117 $32 $64 0 $89 $-1 #
edge $118 $119 $72 $63 $120 0 #
copar-lwd-attrib $-1 $-1 $-1 $33 #
coedge $121 $33 $113 $122 $123 1 $13 $-1 #
edge $124 $125 $73 $58 $126 0 #
copar-lwd-attrib $-1 $-1 $-1 $34 #
coedge $127 $128 $34 $129 $130 0 $54 $-1 #
coedge $131 $34 $128 $116 $132 0 $54 $-1 #
epar-lwd-attrib $-1 $-1 $-1 $35 #
vertex $-1 $132 $133 #
vertex $-1 $60 $134 #
intcurve-curve $-1 0 surfint nubs 3 open 5 
	0.736148599700467 3 0.923391822200499 3 1.11063504470053 3 1.29222275114521 3 1.47381045758988 3 
	16.8785138072972 14.530204977508 -2.8575 
	16.9050491485132 14.4737121998269 -2.8575 
	16.933397275583 14.4133600669035 -2.86967738194802 
	16.9595391514356 14.3577049626901 -2.89456651373758 
	16.9856810272883 14.3020498584768 -2.91945564552713 
	17.0096157802288 14.2510936387803 -2.9570615923864 
	17.0285525497812 14.2107779441895 -3.00078346096674 
	17.0469173509451 14.171679949524 -3.04318474914676 
	17.0629871492176 14.1374679326593 -3.0969605763583 
	17.0736794342785 14.11470444611 -3.15605528216516 
	17.0843717193395 14.0919409595607 -3.21514998797203 
	17.0896792365746 14.0806414481369 -3.27957076451844 
	17.0896792365746 14.0806414481369 -3.3401 
	0.001 
	torus 20.32 10.16 -3.3401 0 0 -1 5.5626 0.4826 -1 0 0 0 
	plane 15.9343096179004 16.5403814030943 0 -0.905123992102752 -0.425147690714623 -0 0 0 1 0 
	nullbs 
	nullbs 
	#
copar-lwd-attrib $-1 $-1 $-1 $37 #
coedge $135 $41 $37 $136 $137 1 $9 $-1 #
coedge $-1 $138 $139 $37 $78 0 $140 $-1 #
edge $141 $142 $82 $77 $143 0 #
copar-lwd-attrib $-1 $-1 $-1 $38 #
coedge $144 $38 $58 $145 $146 0 $18 $-1 #
epar-lwd-attrib $-1 $-1 $-1 $39 #
vertex $-1 $147 $148 #
straight-curve $-1 25.4 10.16 0 0 0 -1 #
copar-lwd-attrib $-1 $-1 $-1 $41 #
coedge $-1 $149 $150 $41 $86 0 $151 $-1 #
edge $152 $91 $153 $85 $154 0 #
coedge $-1 $155 $42 $150 $156 1 $89 $-1 #
coedge $-1 $42 $157 $45 $94 1 $89 $-1 #
loop $-1 $-1 $42 $102 #
epar-lwd-attrib $-1 $-1 $-1 $43 #
vertex $-1 $156 $158 #
straight-curve $-1 22.8694473964521 10.0053806813858 -2.8575 0.998138543779317 0.0609872726239249 0 #
copar-lwd-attrib $-1 $-1 $-1 $45 #
edge $159 $50 $160 $88 $161 0 #
copar-lwd-attrib $-1 $-1 $-1 $46 #
coedge $-1 $162 $163 $46 $97 1 $164 $-1 #
edge $165 $160 $49 $46 $166 0 #
edge $-1 $167 $49 $168 $169 0 #
point $-1 25.4 10.16 -3.3401 #
point $-1 25.8825218685299 10.1894825732624 -2.8575 #
fface-lwd-attrib $-1 $-1 $-1 $53 #
face $-1 $170 $89 $4 $-1 $171 0 #
copar-lwd-attrib $-1 $-1 $-1 $56 #
coedge $172 $56 $109 $173 $174 1 $28 $-1 #
coedge $-1 $175 $129 $56 $106 0 $176 $-1 #
edge $177 $73 $178 $56 $179 0 #
copar-lwd-attrib $-1 $-1 $-1 $58 #
copar-lwd-attrib $-1 $-1 $-1 $59 #
coedge $180 $104 $59 $181 $182 1 $28 $-1 #
epar-lwd-attrib $-1 $-1 $-1 $60 #
ellipse-curve $-1 20.32 10.16 -3.3401 -0 -0 1 -5.08 0 0 1 #
copar-lwd-attrib $-1 $-1 $-1 $62 #
coedge $183 $66 $62 $184 $185 1 $13 $-1 #
coedge $-1 $186 $187 $62 $115 0 $188 $-1 #
edge $189 $190 $119 $114 $191 0 #
coedge $-1 $157 $63 $70 $132 1 $89 $-1 #
coedge $-1 $63 $192 $186 $193 1 $89 $-1 #
epar-lwd-attrib $-1 $-1 $-1 $64 #
vertex $-1 $115 $194 #
straight-curve $-1 17.5582892823509 13.0829876806671 -2.8575 0.425147690714623 -0.905123992102752 0 #
copar-lwd-attrib $-1 $-1 $-1 $66 #
coedge $-1 $195 $196 $66 $123 0 $197 $-1 #
edge $198 $125 $199 $122 $200 0 #
epar-lwd-attrib $-1 $-1 $-1 $67 #
vertex $-1 $201 $202 #
straight-curve $-1 17.0896792365746 14.0806414481369 0 0 0 -1 #
copar-lwd-attrib $-1 $-1 $-1 $69 #
coedge $203 $70 $69 $204 $205 0 $54 $-1 #
coedge $-1 $105 $206 $69 $130 1 $176 $-1 #
edge $207 $73 $167 $129 $111 0 #
copar-lwd-attrib $-1 $-1 $-1 $70 #
edge $208 $209 $72 $116 $161 0 #
point $-1 16.8785138072972 14.530204977508 -2.8575 #
point $-1 17.0896792365746 14.0806414481369 -3.3401 #
copar-lwd-attrib $-1 $-1 $-1 $76 #
coedge $-1 $210 $211 $76 $137 0 $212 $-1 #
edge $213 $153 $142 $136 $214 0 #
coedge $-1 $139 $77 $215 $216 0 $140 $-1 #
coedge $-1 $77 $138 $210 $217 0 $140 $-1 #
loop $-1 $-1 $77 $218 #
epar-lwd-attrib $-1 $-1 $-1 $78 #
vertex $-1 $217 $219 #
intcurve-curve $-1 0 surfint nubs 3 open 5 
	0.727682351213661 3 0.909789274236126 3 1.09189619725859 3 1.27367268510756 3 1.45544917295654 3 
	25.8825218685299 10.1894825732624 -0.9525 
	25.821932555544 10.1857805050754 -0.952499999999999 
	25.7572985399828 10.181831301478 -0.940385941634533 
	25.6978392973101 10.1781982817279 -0.915744838113486 
	25.6383800546374 10.1745652619778 -0.891103734592439 
	25.5840957372828 10.1712484353886 -0.853935216729203 
	25.5412291625902 10.168629244402 -0.811035720582168 
	25.4984403698063 10.1660148059686 -0.768214066080122 
	25.4613299419418 10.1637473213639 -0.713975677961222 
	25.4367196204781 10.1622436058789 -0.654545297283505 
	25.4121092990144 10.1607398903939 -0.595114916605787 
	25.4 10.16 -0.530492162616325 
	25.4 10.16 -0.4699 
	0.001 
	torus 20.32 10.16 -0.4699 0 0 1 5.5626 0.4826 1 0 0 0 
	plane 25.4 10.16 0 0.0609872726239249 -0.998138543779317 0 0 0 -1 0 
	nullbs 
	nullbs 
	#
copar-lwd-attrib $-1 $-1 $-1 $80 #
coedge $-1 $220 $221 $80 $146 1 $222 $-1 #
edge $223 $125 $82 $145 $224 0 #
edge $-1 $82 $225 $221 $226 1 #
point $-1 25.4 10.16 -0.4699 #
coedge $-1 $227 $85 $211 $228 0 $151 $-1 #
coedge $-1 $85 $227 $87 $156 0 $151 $-1 #
loop $-1 $-1 $85 $229 #
epar-lwd-attrib $-1 $-1 $-1 $86 #
vertex $-1 $137 $230 #
straight-curve $-1 26.034868349384 10.1987910970331 -0.9525 -0 -0 1 #
coedge $-1 $231 $87 $232 $233 1 $89 $-1 #
edge $-1 $234 $91 $150 $235 0 #
coedge $-1 $88 $116 $162 $236 1 $89 $-1 #
point $-1 26.034868349384 10.1987910970331 -2.8575 #
epar-lwd-attrib $-1 $-1 $-1 $94 #
vertex $-1 $236 $237 #
ellipse-curve $-1 20.32 10.16 -2.8575 0 0 -1 -5.5626 0 0 1 #
coedge $-1 $204 $96 $157 $236 0 $164 $-1 #
coedge $-1 $96 $204 $168 $98 0 $164 $-1 #
loop $-1 $-1 $163 $238 #
epar-lwd-attrib $-1 $-1 $-1 $97 #
ellipse-curve $-1 25.8826 10.1600000000001 -3.3401 1.40883940798198e-14 -1 -0 -0.341249732600625 0 0.341249732600627 1 #
vertex $-1 $98 $239 #
coedge $-1 $240 $181 $163 $98 1 $241 $-1 #
ellipse-curve $-1 20.32 10.16 -3.3401 -0 -0 1 5.08 0 0 1 #
face $-1 $229 $188 $4 $-1 $242 0 #
plane-surface $-1 20.32 10.16 -2.8575 0 0 -1 -1 0 0 0 #
copar-lwd-attrib $-1 $-1 $-1 $104 #
coedge $-1 $243 $244 $104 $174 0 $245 $-1 #
edge $246 $178 $247 $104 $248 1 #
coedge $-1 $206 $105 $244 $249 0 $176 $-1 #
loop $-1 $-1 $105 $250 #
epar-lwd-attrib $-1 $-1 $-1 $106 #
vertex $-1 $174 $251 #
straight-curve $-1 17.0896793056528 14.080641301072 0 0 0 -1 #
copar-lwd-attrib $-1 $-1 $-1 $109 #
coedge $-1 $168 $252 $109 $182 0 $241 $-1 #
edge $253 $247 $49 $109 $226 1 #
copar-lwd-attrib $-1 $-1 $-1 $113 #
coedge $-1 $254 $255 $113 $185 0 $212 $-1 #
edge $256 $199 $190 $184 $257 0 #
coedge $-1 $258 $114 $117 $193 0 $188 $-1 #
coedge $-1 $114 $258 $254 $259 0 $188 $-1 #
loop $-1 $-1 $114 $170 #
epar-lwd-attrib $-1 $-1 $-1 $115 #
vertex $-1 $259 $260 #
straight-curve $-1 16.812048523235 14.6717071532472 -0.9525 0 0 -1 #
coedge $-1 $117 $261 $262 $263 1 $89 $-1 #
edge $-1 $119 $264 $186 $235 0 #
point $-1 16.812048523235 14.6717071532472 -2.8575 #
coedge $-1 $265 $122 $255 $266 0 $197 $-1 #
coedge $-1 $122 $265 $267 $201 0 $197 $-1 #
loop $-1 $-1 $122 $268 #
epar-lwd-attrib $-1 $-1 $-1 $123 #
vertex $-1 $123 $269 #
intcurve-curve $-1 0 surfint nubs 3 open 5 
	-1.47381045758988 3 -1.29222275114521 3 -1.11063504470053 3 -0.9233918222005 3 -0.736148599700467 3 
	17.0896792365746 14.0806414481369 -0.4699 
	17.0896792365746 14.0806414481369 -0.530429235481559 
	17.0843717193395 14.0919409595607 -0.594850012027973 
	17.0736794342785 14.11470444611 -0.653944717834835 
	17.0629871492176 14.1374679326593 -0.713039423641695 
	17.0469173509451 14.171679949524 -0.76681525085324 
	17.0285525497812 14.2107779441895 -0.809216539033262 
	17.0096157802288 14.2510936387803 -0.852938407613604 
	16.9856810272883 14.3020498584768 -0.890544354472875 
	16.9595391514356 14.3577049626901 -0.915433486262425 
	16.933397275583 14.4133600669035 -0.940322618051976 
	16.9050491485132 14.4737121998269 -0.9525 
	16.8785138072972 14.530204977508 -0.9525 
	0.001 
	torus 20.32 10.16 -0.4699 0 0 1 5.5626 0.4826 1 0 0 0 
	plane 15.9343096179004 16.5403814030943 0 -0.905123992102752 -0.425147690714623 -0 0 0 1 0 
	nullbs 
	nullbs 
	#
edge $-1 $270 $125 $267 $224 0 #
point $-1 17.0896792365746 14.0806414481369 -0.4699 #
copar-lwd-attrib $-1 $-1 $-1 $128 #
coedge $-1 $163 $162 $128 $205 1 $164 $-1 #
edge $271 $167 $209 $128 $272 0 #
coedge $-1 $129 $175 $240 $273 1 $176 $-1 #
epar-lwd-attrib $-1 $-1 $-1 $130 #
epar-lwd-attrib $-1 $-1 $-1 $132 #
vertex $-1 $236 $274 #
coedge $-1 $275 $136 $139 $217 1 $212 $-1 #
coedge $-1 $136 $276 $149 $228 1 $212 $-1 #
loop $-1 $-1 $136 $277 #
epar-lwd-attrib $-1 $-1 $-1 $137 #
straight-curve $-1 22.8694473964521 10.0053806813858 -0.9525 -0.998138543779317 -0.0609872726239249 0 #
coedge $-1 $278 $279 $138 $216 1 $280 $-1 #
edge $-1 $82 $281 $138 $282 0 #
edge $-1 $281 $142 $210 $283 0 #
face $-1 $238 $140 $4 $-1 $284 0 #
point $-1 25.8825218685299 10.1894825732624 -0.9525 #
coedge $-1 $285 $145 $286 $287 1 $222 $-1 #
coedge $-1 $145 $285 $288 $147 1 $222 $-1 #
loop $-1 $-1 $220 $289 #
epar-lwd-attrib $-1 $-1 $-1 $146 #
ellipse-curve $-1 20.32 10.16 -0.4699 -0 -0 -1 -5.08 0 0 1 #
vertex $-1 $290 $291 #
straight-curve $-1 25.4 10.16 0 0 0 -1 #
coedge $-1 $150 $149 $292 $293 0 $151 $-1 #
edge $-1 $153 $294 $149 $295 0 #
face $-1 $296 $151 $4 $-1 $242 0 #
point $-1 26.034868349384 10.1987910970331 -0.9525 #
coedge $-1 $261 $155 $297 $298 1 $89 $-1 #
coedge $-1 $292 $299 $155 $233 0 $300 $-1 #
edge $-1 $301 $234 $232 $302 0 #
vertex $-1 $293 $303 #
ellipse-curve $-1 20.32 10.16 -2.8575 0 0 1 -5.67270473325794 0.694007211254235 0 1 #
edge $-1 $160 $209 $157 $304 0 #
point $-1 25.8826 10.1600000000002 -2.8575 #
face $-1 $305 $164 $4 $-1 $306 0 #
point $-1 15.24 10.16 -3.3401 #
coedge $-1 $252 $168 $206 $273 0 $241 $-1 #
loop $-1 $-1 $168 $305 #
cone-surface $-1 20.32 10.16 -0.9525 0 0 -1 -5.67270473325794 0.694007211254235 0 1 0 1 0 #
coedge $-1 $244 $173 $252 $307 1 $245 $-1 #
coedge $-1 $173 $243 $175 $249 1 $245 $-1 #
loop $-1 $-1 $173 $308 #
epar-lwd-attrib $-1 $-1 $-1 $174 #
vertex $-1 $182 $309 #
ellipse-curve $-1 20.32 10.16 -3.81 0 0 1 -5.08 0 0 1 #
edge $-1 $178 $310 $175 $248 0 #
face $-1 $311 $176 $4 $-1 $29 0 #
point $-1 17.0896792365746 14.0806414481369 -3.81 #
coedge $-1 $181 $240 $243 $307 0 $241 $-1 #
epar-lwd-attrib $-1 $-1 $-1 $182 #
coedge $-1 $312 $184 $187 $259 1 $212 $-1 #
coedge $-1 $184 $275 $195 $266 1 $212 $-1 #
epar-lwd-attrib $-1 $-1 $-1 $185 #
straight-curve $-1 17.5582892823509 13.0829876806671 -0.9525 -0.425147690714623 0.905123992102752 0 #
coedge $-1 $187 $186 $313 $314 0 $188 $-1 #
edge $-1 $315 $190 $187 $295 0 #
point $-1 16.812048523235 14.6717071532472 -0.9525 #
coedge $-1 $192 $231 $316 $317 1 $89 $-1 #
coedge $-1 $318 $313 $192 $263 0 $319 $-1 #
edge $-1 $264 $320 $262 $321 0 #
vertex $-1 $193 $322 #
coedge $-1 $196 $195 $323 $324 0 $197 $-1 #
edge $-1 $199 $325 $255 $283 0 #
coedge $-1 $326 $286 $196 $201 1 $327 $-1 #
face $-1 $218 $197 $4 $-1 $284 0 #
point $-1 16.8785138072972 14.530204977508 -0.9525 #
vertex $-1 $328 $329 #
epar-lwd-attrib $-1 $-1 $-1 $205 #
ellipse-curve $-1 14.7574 10.16 -3.3401 -0 -1 -0 0.341249732600628 0 0.341249732600627 1 #
edge $-1 $167 $310 $240 $330 0 #
point $-1 14.7574 10.16 -2.8575 #
coedge $-1 $255 $210 $279 $331 1 $212 $-1 #
coedge $-1 $211 $332 $333 $334 1 $212 $-1 #
face $-1 $268 $212 $4 $-1 $335 0 #
coedge $-1 $323 $215 $336 $337 0 $280 $-1 #
coedge $-1 $215 $323 $275 $331 0 $280 $-1 #
loop $-1 $-1 $278 $338 #
vertex $-1 $331 $339 #
ellipse-curve $-1 25.8826 10.1599999999999 -0.4699 -1.40883940798198e-14 -1 0 -0.341249732600626 0 -0.341249732600627 1 #
ellipse-curve $-1 20.32 10.16 -0.9525 0 0 1 -5.5626 0 0 1 #
torus-surface $-1 20.32 10.16 -0.4699 0 0 1 5.5626 -0.4826 1 0 0 0 #
coedge $-1 $221 $220 $340 $341 1 $222 $-1 #
coedge $-1 $267 $342 $220 $287 0 $327 $-1 #
edge $-1 $343 $125 $286 $344 0 #
coedge $-1 $345 $336 $221 $147 0 $346 $-1 #
face $-1 $250 $222 $4 $-1 $29 0 #
edge $-1 $225 $347 $345 $348 0 #
point $-1 25.4 10.16 0 #
coedge $-1 $333 $232 $227 $293 1 $300 $-1 #
edge $-1 $294 $234 $227 $349 0 #
vertex $-1 $334 $350 #
ellipse-curve $-1 20.32 10.16 -0.9525 0 0 -1 -5.67270473325794 0.694007211254235 0 1 #
face $-1 $277 $327 $4 $-1 $29 0 #
coedge $-1 $351 $352 $231 $298 0 $353 $-1 #
edge $-1 $354 $301 $297 $355 0 #
coedge $-1 $232 $333 $351 $356 0 $300 $-1 #
loop $-1 $-1 $299 $357 #
vertex $-1 $298 $358 #
ellipse-curve $-1 20.32 10.16 -2.8575 0 0 1 5.67270473325794 -0.694007211254235 0 1 #
point $-1 25.9927047332579 9.46599278874576 -2.8575 #
ellipse-curve $-1 20.32 10.16 -2.8575 0 0 -1 5.5626 0 0 1 #
face $-1 $338 $241 $4 $-1 $359 0 #
torus-surface $-1 20.32 10.16 -3.3401 0 0 -1 5.5626 -0.4826 -1 0 0 0 #
edge $-1 $310 $247 $252 $360 0 #
face $-1 $-1 $245 $4 $-1 $361 0 #
point $-1 25.4 10.16 -3.81 #
vertex $-1 $273 $362 #
face $-1 $308 $363 $4 $-1 $364 0 #
coedge $-1 $365 $254 $366 $367 1 $212 $-1 #
coedge $-1 $262 $366 $258 $314 1 $319 $-1 #
edge $-1 $264 $315 $258 $368 0 #
vertex $-1 $367 $369 #
coedge $-1 $370 $371 $261 $317 0 $372 $-1 #
edge $-1 $320 $354 $316 $373 0 #
coedge $-1 $366 $262 $371 $374 1 $319 $-1 #
loop $-1 $-1 $313 $375 #
vertex $-1 $374 $376 #
straight-curve $-1 0 0 -2.8575 -0.771779788708135 -0.635889894354067 -0 #
point $-1 15.0690270479454 12.4157721642026 -2.8575 #
coedge $-1 $279 $278 $265 $324 1 $280 $-1 #
edge $-1 $325 $270 $265 $377 0 #
vertex $-1 $331 $378 #
coedge $-1 $342 $267 $379 $328 1 $327 $-1 #
loop $-1 $-1 $286 $296 #
edge $-1 $347 $270 $379 $330 0 #
point $-1 15.24 10.16 -0.4699 #
straight-curve $-1 15.24 10.16 0 0 0 -1 #
edge $-1 $325 $281 $275 $380 0 #
coedge $-1 $276 $365 $381 $382 1 $212 $-1 #
coedge $-1 $299 $292 $276 $334 0 $300 $-1 #
edge $-1 $294 $383 $333 $384 0 #
plane-surface $-1 20.32 10.16 -0.9525 0 0 1 1 0 0 0 #
coedge $-1 $288 $379 $278 $337 1 $346 $-1 #
edge $-1 $82 $270 $336 $385 0 #
face $-1 $386 $280 $4 $-1 $387 0 #
point $-1 25.8826 10.1599999999998 -0.9525 #
coedge $-1 $388 $389 $285 $341 0 $363 $-1 #
edge $-1 $225 $343 $285 $390 1 #
coedge $-1 $286 $326 $388 $391 0 $327 $-1 #
vertex $-1 $391 $392 #
straight-curve $-1 17.0896793056528 14.080641301072 0 0 0 -1 #
coedge $-1 $379 $288 $389 $290 0 $346 $-1 #
loop $-1 $-1 $336 $386 #
vertex $-1 $290 $393 #
ellipse-curve $-1 20.32 10.16 0 -0 -0 -1 5.08 0 0 1 #
straight-curve $-1 25.9927047332579 9.46599278874576 -0.9525 0 0 -1 #
point $-1 25.9927047332579 9.46599278874576 -0.9525 #
coedge $-1 $381 $297 $299 $356 1 $353 $-1 #
coedge $-1 $297 $381 $370 $394 0 $353 $-1 #
loop $-1 $-1 $351 $395 #
vertex $-1 $394 $396 #
straight-curve $-1 25.4 10.16 -2.8575 3.49676543189026e-16 1 0 #
edge $-1 $383 $301 $299 $397 0 #
face $-1 $289 $300 $4 $-1 $398 0 #
point $-1 25.4 7.54182792773279 -2.8575 #
cone-surface $-1 20.32 10.16 0 0 0 -1 5.08 0 0 1 0 1 0 #
ellipse-curve $-1 20.32 10.16 -3.81 0 0 1 5.08 0 0 1 #
plane-surface $-1 20.32 10.16 -3.81 0 0 -1 -1 0 0 0 #
point $-1 15.24 10.16 -3.81 #
loop $-1 $-1 $389 $311 #
plane-surface $-1 20.32 10.16 0 0 0 1 1 0 0 0 #
coedge $-1 $332 $312 $399 $400 1 $212 $-1 #
coedge $-1 $313 $318 $312 $367 0 $319 $-1 #
edge $-1 $401 $315 $366 $402 0 #
straight-curve $-1 15.0690270479454 12.4157721642026 -0.9525 0 0 1 #
point $-1 15.0690270479454 12.4157721642026 -0.9525 #
coedge $-1 $399 $316 $352 $394 1 $372 $-1 #
coedge $-1 $316 $399 $318 $374 0 $372 $-1 #
loop $-1 $-1 $316 $403 #
straight-curve $-1 25.4 0 -2.8575 1 0 0 #
edge $-1 $401 $320 $371 $404 0 #
face $-1 $395 $319 $4 $-1 $405 0 #
point $-1 0 0 -2.8575 #
ellipse-curve $-1 14.7574 10.16 -0.4699 0 -1 0 0.341249732600628 0 -0.341249732600627 1 #
point $-1 14.7574 10.16 -0.9525 #
coedge $-1 $336 $345 $326 $328 0 $346 $-1 #
ellipse-curve $-1 20.32 10.16 -0.9525 0 0 1 5.5626 0 0 1 #
coedge $-1 $352 $351 $332 $382 0 $353 $-1 #
edge $-1 $383 $406 $381 $407 0 #
vertex $-1 $334 $408 #
ellipse-curve $-1 20.32 10.16 -0.9525 0 0 -1 5.67270473325794 -0.694007211254235 0 1 #
ellipse-curve $-1 20.32 10.16 -0.4699 -0 -0 -1 5.08 0 0 1 #
face $-1 $375 $346 $4 $-1 $359 0 #
torus-surface $-1 20.32 10.16 -0.4699 0 0 1 5.5626 -0.4826 1 0 0 0 #
coedge $-1 $389 $340 $342 $391 1 $363 $-1 #
coedge $-1 $340 $388 $345 $290 1 $363 $-1 #
ellipse-curve $-1 20.32 10.16 0 -0 -0 -1 -5.08 0 0 1 #
edge $-1 $347 $343 $342 $390 0 #
point $-1 17.0896792365746 14.0806414481369 0 #
point $-1 15.24 10.16 0 #
edge $-1 $406 $354 $352 $409 0 #
face $-1 $403 $353 $4 $-1 $410 0 #
point $-1 25.4 0 -2.8575 #
straight-curve $-1 25.4 7.54182792773279 -0.9525 0 0 -1 #
cone-surface $-1 20.32 10.16 -0.9525 0 0 -1 5.67270473325794 -0.694007211254235 0 1 0 1 0 #
coedge $-1 $371 $370 $365 $400 0 $372 $-1 #
edge $-1 $406 $401 $399 $411 0 #
vertex $-1 $400 $412 #
straight-curve $-1 0 0 -0.9525 0.771779788708135 0.635889894354067 0 #
face $-1 $357 $372 $4 $-1 $413 0 #
straight-curve $-1 0 0 -0.9525 0 0 -1 #
plane-surface $-1 17.0896793366813 14.0806413266373 -0.9525 -0.635889894354067 0.771779788708135 0 0 0 1 0 #
vertex $-1 $400 $414 #
straight-curve $-1 25.4 10.16 -0.9525 -3.49676543189026e-16 -1 0 #
point $-1 25.4 7.54182792773279 -0.9525 #
straight-curve $-1 25.4 0 -0.9525 0 0 -1 #
plane-surface $-1 25.4 0 -0.9525 1 -3.49676543189026e-16 0 0 0 -1 0 #
straight-curve $-1 25.4 0 -0.9525 -1 0 0 #
point $-1 0 0 -0.9525 #
plane-surface $-1 0 0 -0.9525 -0 -1 -0 0 0 -1 0 #
point $-1 25.4 0 -0.9525 #
