600 0 2 0           
24 FBMach with ACIS - 6.0.3 13 ACIS 6.0.3 NT 24 Tue May 22 16:48:49 2001 
1 9.9999999999999995e-007 1e-010 
body $2 $3 $-1 $4 #
bdycol-kcp $-1 1 2 $5 $6 #
model_id-kcp-attrib $-1 $7 $-1 $0 1 990564525 90 2069495809 1 #
lump $-1 $-1 $8 $0 #
transform $-1 1 0 0 0 1 0 0 0 1 0 0 0 1 no_rotate no_reflect no_shear #
body $9 $10 $-1 $11 #
body $12 $13 $-1 $14 #
f_body-rbase-attrib $-1 $15 $2 $0 #
shell $-1 $-1 $-1 $16 $-1 $3 #
model_id-kcp-attrib $-1 $-1 $-1 $5 1 990564525 90 2069495810 1 #
lump $-1 $-1 $17 $5 #
transform $-1 1 0 0 0 1 0 0 0 1 6.9850000000000003 2.69875 -2.54 1 no_rotate no_reflect no_shear #
rgb_color-st-attrib $-1 $18 $-1 $6 0.5 1 1 #
lump $-1 $-1 $19 $6 #
transform $-1 1 0 0 0 1 0 0 0 1 6.9850000000000003 2.69875 -2.54 1 no_rotate no_reflect no_shear #
ref_vt-eye-attrib $-1 $-1 $7 $0 $20 $-1 #
face $21 $22 $23 $8 $-1 $24 reversed single #
shell $-1 $-1 $-1 $25 $-1 $10 #
model_id-kcp-attrib $-1 $-1 $12 $6 1 990564525 410 2073690115 1 #
shell $-1 $-1 $-1 $26 $-1 $13 #
eye_refinement $-1 5 grid  1 3 tri 3 4 surf 0 3 adj 0 4 grad 0 9 postcheck 0 4 stol 0.25400000810623169 4 ntol 30 4 dsil 0 8 flatness 0 7 pixarea 0 4 hmax 0 6 gridar 0 5 mgrid 10000 5 ugrid 0 5 vgrid 0 10 end_fields #
model_id-kcp-attrib $-1 $27 $-1 $16 1 990564525 90 2069495809 2 #
face $28 $29 $30 $8 $-1 $24 reversed single #
loop $-1 $-1 $31 $16 #
cone-surface $-1 6.9850000000000003 2.8574999999999999 -12.695 0 0 -1 0 1.27 0 1 I I 0 1 1.27 forward I I I I #
face $32 $33 $34 $17 $-1 $35 forward single #
face $-1 $36 $37 $19 $-1 $38 reversed single #
fface-rbase-attrib $-1 $-1 $21 $16 #
model_id-kcp-attrib $-1 $39 $-1 $22 1 990564525 90 2069495809 3 #
face $40 $41 $42 $8 $-1 $43 reversed single #
loop $-1 $-1 $44 $22 #
coedge $45 $46 $47 $48 $49 reversed $23 $-1 #
model_id-kcp-attrib $-1 $-1 $-1 $25 1 990564525 90 2069495810 5 #
face $50 $51 $52 $17 $-1 $53 reversed single #
loop $-1 $-1 $54 $25 #
plane-surface $-1 0 0 2.54 0 0 1 1 0 0 forward_v I I I I #
face $-1 $55 $56 $19 $-1 $57 reversed single #
loop $-1 $-1 $58 $26 #
plane-surface $-1 -6.9850000000000003 -1.7462499999999999 2.54 0 1 0 0 0 -1 forward_v I I I I #
fface-rbase-attrib $-1 $-1 $28 $22 #
model_id-kcp-attrib $-1 $59 $-1 $29 1 990564525 90 2069495809 4 #
face $60 $61 $62 $8 $-1 $43 reversed single #
loop $-1 $-1 $63 $29 #
cone-surface $-1 6.9850000000000003 2.8574999999999999 -12.695 0 0 -1 1.55525006935442e-016 -1.27 0 1 I I 0 1 1.27 forward I I I I #
coedge $64 $65 $66 $67 $68 reversed $30 $-1 #
copar-rbase-attrib $-1 $-1 $-1 $31 #
coedge $69 $70 $31 $71 $72 reversed $23 $-1 #
coedge $73 $31 $70 $74 $75 forward $23 $-1 #
coedge $-1 $76 $77 $31 $49 forward $78 $-1 #
edge $79 $80 -3.1415926535897931 $81 0 $48 $82 forward 7 unknown #
model_id-kcp-attrib $-1 $-1 $-1 $33 1 990564525 90 2069495810 6 #
face $83 $84 $85 $17 $-1 $86 reversed single #
loop $-1 $-1 $87 $33 #
plane-surface $-1 0 0 -2.54 0 0 1 1 0 0 forward_v I I I I #
coedge $-1 $88 $89 $90 $91 forward $34 $-1 #
face $-1 $92 $93 $19 $-1 $94 reversed single #
loop $-1 $-1 $95 $36 #
cone-surface $-1 -4.8422927747309199 -0.47624999999999984 2.54 0 0 1 0 -1.27 0 1 I I 0 -1 1.27 forward I I I I #
coedge $-1 $96 $97 $98 $99 reversed $37 $-1 #
fface-rbase-attrib $-1 $-1 $40 $29 #
model_id-kcp-attrib $-1 $100 $-1 $41 1 990564525 90 2069495809 5 #
face $101 $102 $103 $8 $-1 $104 forward single #
loop $-1 $-1 $105 $41 #
coedge $106 $74 $71 $76 $107 reversed $42 $-1 #
copar-rbase-attrib $-1 $-1 $-1 $44 #
coedge $108 $109 $44 $110 $111 forward $30 $-1 #
coedge $112 $44 $109 $113 $114 reversed $30 $-1 #
coedge $115 $116 $117 $44 $68 forward $103 $-1 #
edge $118 $119 0 $120 3.1415926535897931 $67 $121 forward 7 unknown #
copar-rbase-attrib $-1 $-1 $-1 $46 #
coedge $122 $47 $46 $123 $124 reversed $23 $-1 #
coedge $125 $63 $126 $46 $72 forward $42 $-1 #
edge $127 $128 0.01 $80 0.96250000000000102 $46 $129 forward 7 unknown #
copar-rbase-attrib $-1 $-1 $-1 $47 #
coedge $130 $126 $63 $47 $75 reversed $42 $-1 #
edge $131 $132 0.01 $81 0.96250000000000102 $47 $133 forward 7 unknown #
coedge $-1 $134 $48 $63 $107 forward $78 $-1 #
coedge $-1 $48 $135 $136 $137 reversed $78 $-1 #
loop $-1 $-1 $138 $102 #
epar-rbase-attrib $-1 $-1 $-1 $49 #
vertex $-1 $139 $140 #
vertex $-1 $107 $141 #
ellipse-curve $-1 6.9850000000000003 2.8574999999999999 -0.95250000000000101 0 0 1 0 1.27 0 1 I I #
model_id-kcp-attrib $-1 $-1 $-1 $51 1 990564525 90 2069495810 3 #
face $142 $143 $144 $17 $-1 $145 reversed single #
loop $-1 $-1 $146 $51 #
plane-surface $-1 0 -2.69875 0 0 1 0 0 0 1 forward_v I I I I #
coedge $-1 $147 $148 $149 $150 forward $52 $-1 #
coedge $-1 $151 $54 $152 $153 forward $34 $-1 #
coedge $-1 $54 $151 $154 $155 forward $34 $-1 #
coedge $-1 $156 $157 $54 $91 reversed $158 $-1 #
edge $-1 $159 -2.69875 $160 2.69875 $90 $161 forward 7 unknown #
face $-1 $162 $163 $19 $-1 $164 reversed single #
loop $-1 $-1 $165 $55 #
plane-surface $-1 4.8422927747308995 -1.7462500000000005 2.54 0 1 0 0 0 -1 forward_v I I I I #
coedge $-1 $166 $167 $168 $169 reversed $56 $-1 #
coedge $-1 $170 $58 $171 $172 reversed $37 $-1 #
coedge $-1 $58 $170 $166 $173 reversed $37 $-1 #
coedge $-1 $168 $174 $58 $99 forward $175 $-1 #
edge $-1 $176 -3.4925000000000002 $177 -1.3497927747309206 $98 $178 forward 7 unknown #
fface-rbase-attrib $-1 $-1 $60 $41 #
model_id-kcp-attrib $-1 $179 $-1 $61 1 990564525 90 2069495809 6 #
face $180 $181 $78 $8 $-1 $182 forward single #
loop $-1 $-1 $183 $61 #
plane-surface $-1 0 1.5874999999999999 -4.1275000000000004 0 0 1 1 0 0 forward_v I I I I #
coedge $184 $113 $110 $117 $185 reversed $62 $-1 #
copar-rbase-attrib $-1 $-1 $-1 $63 #
edge $186 $81 -3.1415926535897931 $80 -1.224606353822378e-016 $76 $187 forward 7 unknown #
copar-rbase-attrib $-1 $-1 $-1 $65 #
coedge $188 $66 $65 $189 $190 reversed $30 $-1 #
coedge $191 $105 $192 $65 $111 reversed $62 $-1 #
edge $193 $119 4.1375000000000002 $194 5.0899999999999999 $65 $133 forward 7 unknown #
copar-rbase-attrib $-1 $-1 $-1 $66 #
coedge $195 $192 $105 $66 $114 forward $62 $-1 #
edge $196 $120 4.1375000000000002 $197 5.0899999999999999 $66 $129 forward 7 unknown #
copar-rbase-attrib $-1 $-1 $-1 $67 #
coedge $198 $183 $67 $199 $200 forward $103 $-1 #
coedge $201 $67 $202 $105 $185 forward $103 $-1 #
epar-rbase-attrib $-1 $-1 $-1 $68 #
vertex $-1 $185 $203 #
vertex $-1 $204 $205 #
ellipse-curve $-1 6.9850000000000003 2.8574999999999999 -4.1275000000000004 0 0 -1 0 1.27 0 1 I I #
copar-rbase-attrib $-1 $-1 $-1 $70 #
coedge $-1 $206 $206 $70 $124 forward $207 $-1 #
edge $208 $132 0 $128 3.1415926535897931 $123 $209 forward 7 unknown #
copar-rbase-attrib $-1 $-1 $-1 $71 #
coedge $210 $71 $74 $206 $211 reversed $42 $-1 #
epar-rbase-attrib $-1 $-1 $-1 $72 #
vertex $-1 $211 $212 #
straight-curve $-1 6.9850000000000003 1.5874999999999999 0.01 0 0 -1 I I #
copar-rbase-attrib $-1 $-1 $-1 $74 #
epar-rbase-attrib $-1 $-1 $-1 $75 #
vertex $-1 $211 $213 #
straight-curve $-1 6.9850000000000003 4.1275000000000004 0.01 0 0 -1 I I #
coedge $-1 $138 $76 $214 $139 reversed $78 $-1 #
coedge $-1 $77 $215 $216 $217 forward $78 $-1 #
coedge $-1 $218 $214 $77 $137 forward $219 $-1 #
edge $-1 $80 6.9850000000000003 $220 10.727083649923101 $136 $221 forward 7 unknown #
coedge $-1 $222 $134 $223 $224 forward $78 $-1 #
edge $-1 $225 3.2429163500768801 $80 6.9850000000000003 $214 $221 forward 7 unknown #
point $-1 6.9850000000000003 1.5874999999999999 -0.95250000000000101 #
point $-1 6.9850000000000003 4.1275000000000004 -0.95250000000000101 #
model_id-kcp-attrib $-1 $-1 $-1 $84 1 990564525 90 2069495810 2 #
face $-1 $226 $227 $17 $-1 $228 reversed single #
loop $-1 $-1 $229 $84 #
plane-surface $-1 -6.9850000000000003 0 0 1 0 0 0 0 -1 forward_v I I I I #
coedge $-1 $230 $154 $231 $232 forward $85 $-1 #
coedge $-1 $233 $87 $230 $234 forward $52 $-1 #
coedge $-1 $87 $233 $235 $236 forward $52 $-1 #
coedge $-1 $157 $156 $87 $150 reversed $158 $-1 #
edge $-1 $237 -2.69875 $238 2.69875 $149 $239 forward 7 unknown #
coedge $-1 $89 $88 $240 $241 forward $34 $-1 #
coedge $-1 $242 $243 $88 $153 reversed $227 $-1 #
edge $-1 $160 -6.9850000000000003 $244 6.9850000000000003 $152 $245 forward 7 unknown #
coedge $-1 $146 $246 $89 $155 reversed $85 $-1 #
edge $-1 $247 -6.9850000000000003 $159 6.9850000000000003 $154 $248 forward 7 unknown #
coedge $-1 $149 $90 $246 $249 forward $158 $-1 #
coedge $-1 $90 $149 $242 $250 reversed $158 $-1 #
loop $-1 $-1 $156 $226 #
vertex $-1 $91 $251 #
vertex $-1 $91 $252 #
straight-curve $-1 6.9850000000000003 0 2.54 0 1 0 I I #
face $-1 $253 $254 $19 $-1 $255 reversed single #
loop $-1 $-1 $256 $92 #
plane-surface $-1 -3.7420836499231198 -1.1112499999999998 2.54 -0.85485879279135346 0.51886071771460007 0 0 0 1 forward_v I I I I #
coedge $-1 $257 $258 $259 $260 reversed $93 $-1 #
coedge $-1 $261 $95 $97 $173 forward $56 $-1 #
coedge $-1 $95 $261 $262 $263 reversed $56 $-1 #
coedge $-1 $264 $98 $95 $169 forward $175 $-1 #
edge $-1 $177 -6.993530863780514e-016 $265 1.0252786299499357 $168 $266 forward 7 unknown #
coedge $-1 $97 $96 $267 $268 reversed $37 $-1 #
coedge $-1 $269 $270 $96 $172 forward $271 $-1 #
edge $-1 $272 -3.8100000000000001 $176 1.27 $171 $273 forward 7 unknown #
edge $-1 $177 0 $274 5.0800000000000001 $97 $275 forward 7 unknown #
coedge $-1 $98 $276 $269 $277 forward $175 $-1 #
loop $-1 $-1 $98 $278 #
vertex $-1 $99 $279 #
vertex $-1 $99 $280 #
straight-curve $-1 -3.4925000000000002 -1.7462499999999999 2.54 1 0 0 I I #
fface-rbase-attrib $-1 $-1 $101 $61 #
model_id-kcp-attrib $-1 $-1 $-1 $102 1 990564525 90 2069495809 7 #
face $281 $282 $219 $8 $-1 $283 forward single #
plane-surface $-1 0 5.3975 -0.95250000000000101 0 0 -1 -1 0 0 forward_v I I I I #
coedge $284 $285 $116 $286 $287 forward $103 $-1 #
copar-rbase-attrib $-1 $-1 $-1 $105 #
edge $288 $120 1.224606353822378e-016 $119 3.1415926535897931 $117 $289 forward 7 unknown #
epar-rbase-attrib $-1 $-1 $-1 $107 #
ellipse-curve $-1 6.9850000000000003 2.8574999999999999 -0.95250000000000101 0 0 1 1.55525006935442e-016 -1.27 0 1 I I #
copar-rbase-attrib $-1 $-1 $-1 $109 #
coedge $-1 $290 $290 $109 $190 forward $291 $-1 #
edge $292 $197 -3.1415926535897931 $194 0 $189 $293 forward 7 unknown #
copar-rbase-attrib $-1 $-1 $-1 $110 #
coedge $294 $110 $113 $290 $295 reversed $62 $-1 #
epar-rbase-attrib $-1 $-1 $-1 $111 #
vertex $-1 $295 $296 #
copar-rbase-attrib $-1 $-1 $-1 $113 #
epar-rbase-attrib $-1 $-1 $-1 $114 #
vertex $-1 $295 $297 #
copar-rbase-attrib $-1 $-1 $-1 $116 #
coedge $-1 $298 $299 $116 $200 reversed $300 $-1 #
edge $301 $120 6.9850000000000003 $302 10.727083649923101 $116 $303 forward 7 unknown #
copar-rbase-attrib $-1 $-1 $-1 $117 #
coedge $304 $117 $305 $298 $204 forward $103 $-1 #
point $-1 6.9850000000000003 4.1275000000000004 -4.1275000000000004 #
edge $306 $307 3.2429163500768801 $120 6.9850000000000003 $202 $303 forward 7 unknown #
point $-1 6.9850000000000003 1.5874999999999999 -4.1275000000000004 #
coedge $-1 $123 $123 $126 $211 forward $207 $-1 #
loop $-1 $308 $206 $309 #
attrib_edge_convexity-kcp-attrib $-1 $310 $-1 $124 1 #
ellipse-curve $-1 6.9850000000000003 2.8574999999999999 0 0 0 -1 0 1.27 0 1 I I #
copar-rbase-attrib $-1 $-1 $-1 $126 #
edge $311 $128 1.224606353822378e-016 $132 3.1415926535897931 $206 $312 forward 7 unknown #
point $-1 6.9850000000000003 1.5874999999999999 0 #
point $-1 6.9850000000000003 4.1275000000000004 0 #
coedge $-1 $136 $313 $134 $139 forward $219 $-1 #
coedge $-1 $135 $222 $314 $315 forward $78 $-1 #
coedge $-1 $316 $317 $135 $217 reversed $318 $-1 #
edge $-1 $319 1.3701363045114545 $220 4.3974271797036373 $216 $320 forward 7 unknown #
coedge $-1 $321 $136 $317 $322 forward $219 $-1 #
loop $-1 $-1 $321 $181 #
vertex $-1 $217 $323 #
straight-curve $-1 0 1.5874999999999999 -0.95250000000000101 1 0 0 I I #
coedge $-1 $215 $138 $324 $325 forward $78 $-1 #
coedge $-1 $326 $327 $138 $224 reversed $328 $-1 #
edge $-1 $225 -2.3008404854189783 $329 0.72645038977321508 $223 $330 forward 7 unknown #
vertex $-1 $224 $331 #
face $332 $-1 $158 $17 $-1 $333 reversed single #
loop $-1 $-1 $242 $143 #
plane-surface $-1 0 2.69875 0 0 -1 0 0 0 -1 forward_v I I I I #
coedge $-1 $334 $240 $243 $335 forward $144 $-1 #
coedge $-1 $246 $146 $147 $234 reversed $85 $-1 #
coedge $-1 $240 $334 $146 $232 reversed $144 $-1 #
edge $-1 $247 -2.54 $336 2.54 $231 $337 forward 7 unknown #
coedge $-1 $148 $147 $334 $338 forward $52 $-1 #
edge $-1 $238 -6.9850000000000003 $336 6.9850000000000003 $230 $339 forward 7 unknown #
coedge $-1 $243 $242 $148 $236 reversed $227 $-1 #
edge $-1 $340 -6.9850000000000003 $237 6.9850000000000003 $235 $341 forward 7 unknown #
vertex $-1 $150 $342 #
vertex $-1 $249 $343 #
straight-curve $-1 6.9850000000000003 0 -2.54 0 -1 0 I I #
coedge $-1 $229 $231 $151 $241 reversed $144 $-1 #
edge $-1 $244 -2.69875 $247 2.69875 $240 $344 forward 7 unknown #
coedge $-1 $235 $152 $157 $250 forward $227 $-1 #
coedge $-1 $152 $235 $229 $335 reversed $227 $-1 #
vertex $-1 $153 $345 #
straight-curve $-1 0 2.69875 2.54 -1 0 0 I I #
coedge $-1 $154 $230 $156 $249 reversed $85 $-1 #
vertex $-1 $241 $346 #
straight-curve $-1 0 -2.69875 2.54 1 0 0 I I #
edge $-1 $159 -2.54 $238 2.54 $156 $347 forward 7 unknown #
edge $-1 $160 -2.54 $237 2.54 $157 $348 forward 7 unknown #
point $-1 6.9850000000000003 -2.69875 2.54 #
point $-1 6.9850000000000003 2.69875 2.54 #
face $-1 $349 $350 $19 $-1 $255 reversed single #
loop $-1 $-1 $351 $162 #
cone-surface $-1 0 0.15874999999999995 2.54 0 0 1 -2.2204460492503128e-016 2.54 0 1 I I 0 1 2.54 forward I I I I #
coedge $-1 $262 $352 $264 $353 reversed $163 $-1 #
coedge $-1 $354 $165 $355 $356 forward $93 $-1 #
coedge $-1 $165 $354 $357 $358 reversed $93 $-1 #
coedge $-1 $359 $360 $165 $260 forward $361 $-1 #
edge $-1 $362 2.4211463873654497 $363 4.563853612634551 $259 $364 forward 7 unknown #
coedge $-1 $167 $166 $365 $366 reversed $56 $-1 #
coedge $-1 $367 $256 $167 $263 forward $163 $-1 #
edge $-1 $265 0 $368 5.0800000000000001 $167 $369 forward 7 unknown #
coedge $-1 $370 $168 $256 $353 forward $175 $-1 #
vertex $-1 $169 $371 #
ellipse-curve $-1 -4.8422927747309199 -0.47624999999999984 2.54 0 0 1 0 -1.27 0 1 I I #
coedge $-1 $372 $365 $170 $268 forward $373 $-1 #
edge $-1 $274 1.3497927747309206 $272 3.4925000000000002 $267 $374 forward 7 unknown #
coedge $-1 $375 $171 $174 $277 reversed $271 $-1 #
coedge $-1 $171 $375 $372 $376 reversed $271 $-1 #
loop $-1 $-1 $171 $377 #
vertex $-1 $376 $378 #
straight-curve $-1 -6.9850000000000003 -1.7462499999999999 1.27 0 0 1 I I #
vertex $-1 $268 $379 #
straight-curve $-1 -4.8422927747309208 -1.7462499999999999 2.54 0 0 -1 I I #
coedge $-1 $174 $370 $380 $381 forward $175 $-1 #
edge $-1 $382 -2.69875 $176 1.7462499999999999 $269 $383 forward 7 unknown #
face $-1 $384 $175 $19 $-1 $385 forward single #
point $-1 -6.9850000000000003 -1.7462499999999999 2.54 #
point $-1 -4.8422927747309208 -1.7462499999999999 2.54 #
model_id-kcp-attrib $-1 $-1 $-1 $181 1 990564525 90 2069495809 8 #
face $386 $387 $300 $8 $-1 $388 forward single #
cone-surface $-1 0 1.5874999999999999 -1.5874999999999999 1 0 0 0 -0.63500000000000001 -4.4408920985006301e-016 1 I I 0 -1 0.63500000000000001 forward I I I I #
copar-rbase-attrib $-1 $-1 $-1 $183 #
coedge $389 $390 $183 $391 $392 forward $103 $-1 #
coedge $-1 $393 $394 $183 $287 reversed $395 $-1 #
edge $396 $302 -2.7689211794361057 $397 0.25836969575607721 $286 $398 forward 7 unknown #
epar-rbase-attrib $-1 $-1 $-1 $185 #
ellipse-curve $-1 6.9850000000000003 2.8574999999999999 -4.1275000000000004 0 0 -1 1.55525006935442e-016 -1.27 0 1 I I #
coedge $-1 $189 $189 $192 $295 forward $291 $-1 #
loop $-1 $399 $290 $400 #
epar-rbase-attrib $-1 $-1 $-1 $190 #
ellipse-curve $-1 6.9850000000000003 2.8574999999999999 -5.0800000000000001 0 0 1 0 1.27 0 1 I I #
copar-rbase-attrib $-1 $-1 $-1 $192 #
edge $401 $194 -3.1415926535897931 $197 -1.224606353822378e-016 $290 $402 forward 7 unknown #
point $-1 6.9850000000000003 4.1275000000000004 -5.0800000000000001 #
point $-1 6.9850000000000003 1.5874999999999999 -5.0800000000000001 #
coedge $-1 $403 $199 $202 $204 reversed $300 $-1 #
coedge $-1 $199 $404 $393 $405 forward $300 $-1 #
loop $-1 $-1 $299 $282 #
epar-rbase-attrib $-1 $-1 $-1 $200 #
vertex $-1 $405 $406 #
straight-curve $-1 0 1.5874999999999999 -4.1275000000000004 1 0 0 I I #
copar-rbase-attrib $-1 $-1 $-1 $202 #
coedge $407 $202 $390 $408 $409 forward $103 $-1 #
epar-rbase-attrib $-1 $-1 $-1 $204 #
vertex $-1 $410 $411 #
loop $-1 $-1 $412 $309 #
face $413 $400 $207 $8 $-1 $414 forward single #
convexity-sys-attrib $-1 $415 $208 $124 #
attrib_edge_convexity-kcp-attrib $-1 $416 $-1 $211 1 #
ellipse-curve $-1 6.9850000000000003 2.8574999999999999 0 0 0 -1 1.55525006935442e-016 -1.27 0 1 I I #
coedge $-1 $214 $417 $326 $418 forward $219 $-1 #
coedge $-1 $419 $420 $215 $315 reversed $421 $-1 #
edge $-1 $422 1.0252786299499361 $319 2.0505572598998723 $314 $423 forward 7 unknown #
coedge $-1 $424 $216 $420 $425 reversed $318 $-1 #
coedge $-1 $216 $426 $218 $322 reversed $318 $-1 #
loop $-1 $-1 $317 $427 #
vertex $-1 $425 $428 #
straight-curve $-1 8.4454314273643991 5.3466792902293498 -0.95250000000000101 0.51886071771459996 -0.85485879279135402 0 I I #
coedge $-1 $429 $218 $430 $431 forward $219 $-1 #
edge $-1 $220 -1.5707963267948972 $432 -1.5330659399523638 $317 $433 forward 7 unknown #
point $-1 10.727083649923101 1.5874999999999999 -0.95250000000000101 #
coedge $-1 $434 $435 $222 $325 reversed $436 $-1 #
edge $-1 $329 0 $422 1.0252786299499361 $324 $423 forward 7 unknown #
coedge $-1 $437 $223 $313 $418 reversed $328 $-1 #
coedge $-1 $223 $438 $434 $439 forward $328 $-1 #
loop $-1 $-1 $326 $440 #
vertex $-1 $439 $441 #
straight-curve $-1 4.4367320956881802 3.55439371977074 -0.95250000000000101 0.51886071771459996 0.85485879279135402 0 I I #
point $-1 3.2429163500768801 1.5874999999999999 -0.95250000000000101 #
model_id-kcp-attrib $-1 $-1 $-1 $226 1 990564525 90 2069495810 4 #
plane-surface $-1 6.9850000000000003 0 0 -1 0 0 0 0 1 forward_v I I I I #
coedge $-1 $231 $229 $233 $338 reversed $144 $-1 #
edge $-1 $244 -2.54 $340 2.54 $243 $442 forward 7 unknown #
vertex $-1 $338 $443 #
straight-curve $-1 -6.9850000000000003 -2.69875 0 0 0 -1 I I #
edge $-1 $336 -2.69875 $340 2.69875 $334 $444 forward 7 unknown #
straight-curve $-1 0 -2.69875 -2.54 -1 0 0 I I #
vertex $-1 $236 $445 #
straight-curve $-1 0 2.69875 -2.54 1 0 0 I I #
point $-1 6.9850000000000003 2.69875 -2.54 #
point $-1 6.9850000000000003 -2.69875 -2.54 #
straight-curve $-1 -6.9850000000000003 0 2.54 0 -1 0 I I #
point $-1 -6.9850000000000003 2.69875 2.54 #
point $-1 -6.9850000000000003 -2.69875 2.54 #
straight-curve $-1 6.9850000000000003 -2.69875 0 0 0 -1 I I #
straight-curve $-1 6.9850000000000003 2.69875 0 0 0 -1 I I #
face $-1 $446 $447 $19 $-1 $448 reversed single #
loop $-1 $-1 $449 $253 #
coedge $-1 $450 $451 $452 $453 reversed $254 $-1 #
coedge $-1 $256 $367 $454 $455 reversed $163 $-1 #
edge $-1 $265 -1.4738109836297018 $456 1.5814998542739085 $264 $457 forward 7 unknown #
coedge $-1 $258 $257 $458 $459 reversed $93 $-1 #
coedge $-1 $460 $461 $257 $356 reversed $462 $-1 #
edge $-1 $362 0 $463 5.0800000000000001 $355 $464 forward 7 unknown #
coedge $-1 $465 $466 $258 $358 forward $467 $-1 #
edge $-1 $363 -1.27 $468 3.8100000000000001 $357 $469 forward 7 unknown #
coedge $-1 $470 $259 $466 $471 forward $361 $-1 #
coedge $-1 $259 $472 $460 $473 forward $361 $-1 #
loop $-1 $-1 $259 $474 #
vertex $-1 $473 $475 #
vertex $-1 $471 $476 #
straight-curve $-1 2.4211463873654497 -1.7462500000000005 2.54 1 0 0 I I #
coedge $-1 $267 $477 $261 $366 forward $373 $-1 #
edge $-1 $368 -1.0252786299499357 $274 6.993530863780514e-016 $365 $478 forward 7 unknown #
coedge $-1 $352 $262 $477 $479 reversed $163 $-1 #
vertex $-1 $366 $480 #
straight-curve $-1 -3.7566221078859003 -1.1352031114975403 2.54 0 0 -1 I I #
coedge $-1 $276 $264 $449 $481 forward $175 $-1 #
point $-1 -3.7566221078859003 -1.1352031114975403 2.54 #
coedge $-1 $482 $267 $270 $376 forward $373 $-1 #
loop $-1 $-1 $267 $483 #
straight-curve $-1 -3.4925000000000002 -1.7462499999999999 -2.54 -1 0 0 I I #
coedge $-1 $270 $269 $484 $485 forward $271 $-1 #
edge $-1 $272 -1.7462499999999999 $486 2.69875 $270 $487 forward 7 unknown #
face $-1 $488 $271 $19 $-1 $489 reversed single #
point $-1 -6.9850000000000003 -1.7462499999999999 -2.54 #
point $-1 -4.8422927747309208 -1.7462499999999999 -2.54 #
coedge $-1 $490 $484 $276 $381 reversed $491 $-1 #
edge $-1 $492 0 $382 6.9850000000000003 $380 $493 forward 7 unknown #
vertex $-1 $381 $494 #
straight-curve $-1 -6.9850000000000003 0 2.54 0 -1 0 I I #
face $-1 $495 $496 $19 $-1 $497 reversed single #
plane-surface $-1 0 0 2.54 0 0 1 1 0 0 forward_v I I I I #
model_id-kcp-attrib $-1 $-1 $-1 $282 1 990564525 90 2069495809 9 #
face $498 $499 $500 $8 $-1 $501 forward single #
cone-surface $-1 0 1.5874999999999999 -3.4925000000000002 1 0 0 0 8.8817841970012504e-016 -0.63500000000000001 1 I I 0 -1 0.63500000000000001 forward I I I I #
copar-rbase-attrib $-1 $-1 $-1 $285 #
coedge $502 $305 $285 $503 $504 forward $103 $-1 #
coedge $-1 $505 $506 $285 $392 reversed $507 $-1 #
edge $508 $397 -2.0505572598998723 $509 -1.0252786299499361 $391 $510 forward 7 unknown #
coedge $-1 $511 $286 $299 $405 reversed $395 $-1 #
coedge $-1 $286 $512 $505 $513 reversed $395 $-1 #
loop $-1 $-1 $286 $514 #
epar-rbase-attrib $-1 $-1 $-1 $287 #
vertex $-1 $392 $515 #
straight-curve $-1 9.2903992194657405 3.9545366167871698 -4.1275000000000004 -0.51886071771459996 0.85485879279135402 0 I I #
loop $-1 $-1 $516 $400 #
face $517 $-1 $291 $8 $-1 $518 forward single #
epar-rbase-attrib $-1 $-1 $-1 $295 #
ellipse-curve $-1 6.9850000000000003 2.8574999999999999 -5.0800000000000001 0 0 1 1.55525006935442e-016 -1.27 0 1 I I #
coedge $-1 $519 $298 $520 $410 forward $300 $-1 #
coedge $-1 $299 $521 $522 $523 forward $300 $-1 #
edge $-1 $524 -1.608526713637431 $302 -1.5707963267948977 $393 $525 forward 7 unknown #
point $-1 10.727083649923101 1.5874999999999999 -4.1275000000000004 #
copar-rbase-attrib $-1 $-1 $-1 $305 #
coedge $-1 $526 $520 $305 $409 reversed $527 $-1 #
edge $528 $529 -2.3549563900407464 $307 0.67233448515144711 $408 $530 forward 7 unknown #
edge $-1 $307 1.5707963267948977 $531 1.6085267136374171 $520 $532 forward 7 unknown #
point $-1 3.2429163500768801 1.5874999999999999 -4.1275000000000004 #
coedge $-1 $533 $534 $535 $536 forward $308 $-1 #
model_id-kcp-attrib $-1 $537 $-1 $309 1 990564525 90 2069495809 28 #
plane-surface $-1 6.9850000000000003 1.7628396586694 0 0 0 1 1 0 0 forward_v I I I I #
epar-rbase-attrib $-1 $-1 $310 $124 #
convexity-sys-attrib $-1 $538 $311 $211 #
coedge $-1 $313 $429 $539 $540 forward $219 $-1 #
edge $-1 $541 1.5330659399523776 $225 1.5707963267948972 $326 $542 forward 7 unknown #
coedge $-1 $543 $314 $435 $544 reversed $421 $-1 #
coedge $-1 $314 $543 $316 $425 forward $421 $-1 #
loop $-1 $-1 $314 $545 #
vertex $-1 $544 $546 #
ellipse-curve $-1 6.9850000000000003 2.8574999999999999 -0.95250000000000101 0 0 -1 -2.17134133369004 1.31790622299508 0 1 I I #
coedge $-1 $426 $316 $547 $548 reversed $318 $-1 #
edge $-1 $549 0 $319 0.95250000000000101 $420 $550 forward 7 unknown #
coedge $-1 $317 $424 $551 $552 forward $318 $-1 #
face $553 $514 $318 $8 $-1 $554 forward single #
point $-1 9.1563413336900403 4.1754062229950799 -0.95250000000000101 #
coedge $-1 $417 $321 $555 $556 reversed $219 $-1 #
coedge $-1 $551 $557 $321 $431 reversed $500 $-1 #
edge $-1 $432 3.4214473099368199 $558 4.8149593293854602 $430 $559 forward 7 unknown #
vertex $-1 $552 $560 #
ellipse-curve $-1 10.727083649923101 1.5874999999999999 -1.5874999999999999 0.85485879279135368 0.51886071771459974 0 0.38541635007687902 -0.63500000000000001 -4.4408920985006301e-016 0.85485879279135402 I I #
coedge $-1 $535 $324 $327 $439 reversed $436 $-1 #
coedge $-1 $324 $535 $419 $544 forward $436 $-1 #
loop $-1 $-1 $324 $561 #
coedge $-1 $438 $326 $562 $563 reversed $328 $-1 #
coedge $-1 $327 $437 $533 $564 reversed $328 $-1 #
edge $-1 $565 0 $329 0.95250000000000101 $327 $566 forward 7 unknown #
face $567 $545 $328 $8 $-1 $568 forward single #
point $-1 4.8136586663099603 4.1754062229950799 -0.95250000000000101 #
straight-curve $-1 -6.9850000000000003 2.69875 0 0 0 -1 I I #
point $-1 -6.9850000000000003 -2.69875 -2.54 #
straight-curve $-1 -6.9850000000000003 0 -2.54 0 1 0 I I #
point $-1 -6.9850000000000003 2.69875 -2.54 #
face $-1 $569 $462 $19 $-1 $570 reversed single #
loop $-1 $-1 $571 $349 #
plane-surface $-1 3.7420836499231003 -1.1112499999999996 2.54 0.85485879279102384 0.51886071771514308 0 0 0 -1 forward_v I I I I #
coedge $-1 $454 $572 $370 $481 reversed $350 $-1 #
coedge $-1 $573 $351 $574 $575 reversed $254 $-1 #
coedge $-1 $351 $573 $576 $577 reversed $254 $-1 #
coedge $-1 $472 $470 $351 $453 forward $361 $-1 #
edge $-1 $492 8.7419135797256401e-017 $578 1.0252786299499361 $452 $579 forward 7 unknown #
coedge $-1 $580 $449 $352 $455 forward $350 $-1 #
edge $-1 $456 0 $581 5.0800000000000001 $352 $582 forward 7 unknown #
vertex $-1 $353 $583 #
straight-curve $-1 -2.9919194831441338 0.12469716677078435 2.54 0.51886071771460007 0.85485879279135346 0 I I #
coedge $-1 $584 $585 $354 $459 forward $496 $-1 #
edge $-1 $468 -4.563853612634551 $463 -2.4211463873654497 $458 $586 forward 7 unknown #
coedge $-1 $587 $355 $360 $473 reversed $462 $-1 #
coedge $-1 $355 $587 $584 $588 reversed $462 $-1 #
loop $-1 $-1 $460 $446 #
vertex $-1 $588 $589 #
straight-curve $-1 4.8422927747308995 -1.7462500000000005 2.54 0 0 -1 I I #
coedge $-1 $590 $357 $585 $591 reversed $467 $-1 #
coedge $-1 $357 $590 $359 $471 reversed $467 $-1 #
loop $-1 $-1 $357 $569 #
vertex $-1 $459 $592 #
straight-curve $-1 6.9850000000000003 -1.7462500000000005 1.27 0 0 -1 I I #
coedge $-1 $452 $359 $593 $594 forward $361 $-1 #
edge $-1 $363 -1.7462499999999999 $595 2.69875 $466 $596 forward 7 unknown #
coedge $-1 $360 $452 $571 $597 forward $361 $-1 #
edge $-1 $598 2.7533586077876448e-016 $362 1.0252786299499275 $360 $599 forward 7 unknown #
face $-1 $278 $361 $19 $-1 $385 forward single #
point $-1 4.8422927747308995 -1.7462500000000005 2.54 #
point $-1 6.9850000000000003 -1.7462499999999999 2.54 #
coedge $-1 $365 $600 $367 $479 forward $373 $-1 #
ellipse-curve $-1 -4.8422927747309199 -0.47624999999999984 -2.54 0 0 -1 0 -1.27 0 1 I I #
edge $-1 $581 -1.5814998542739085 $368 1.4738109836297018 $477 $601 forward 7 unknown #
point $-1 -3.7566221078859003 -1.1352031114975403 -2.54 #
edge $-1 $456 -1.0252786299499361 $492 8.7419135797256401e-017 $370 $579 forward 7 unknown #
coedge $-1 $600 $372 $602 $603 forward $373 $-1 #
face $-1 $377 $373 $19 $-1 $497 reversed single #
coedge $-1 $380 $602 $375 $485 reversed $491 $-1 #
edge $-1 $382 -2.54 $486 2.54 $484 $604 forward 7 unknown #
vertex $-1 $603 $605 #
straight-curve $-1 -6.9850000000000003 0 -2.54 0 1 0 I I #
face $-1 $-1 $606 $19 $-1 $607 reversed single #
plane-surface $-1 -6.9850000000000003 0 0 1 0 0 0 0 -1 forward_v I I I I #
coedge $-1 $602 $380 $572 $575 reversed $491 $-1 #
loop $-1 $-1 $490 $495 #
vertex $-1 $381 $608 #
straight-curve $-1 0 2.69875 2.54 -1 0 0 I I #
point $-1 -6.9850000000000003 2.69875 2.54 #
face $-1 $483 $491 $19 $-1 $607 reversed single #
loop $-1 $-1 $458 $384 #
plane-surface $-1 0 0 -2.54 0 0 1 1 0 0 forward_v I I I I #
model_id-kcp-attrib $-1 $-1 $-1 $387 1 990564525 90 2069495809 10 #
face $609 $427 $610 $8 $-1 $501 forward single #
loop $-1 $-1 $430 $387 #
cone-surface $-1 11.8272927747309 2.2225000000000001 0 0 0 -1 -1.08567066684502 -0.65895311149754199 0 1 I I 0 -1 1.2700000000000009 forward I I I I #
copar-rbase-attrib $-1 $-1 $-1 $390 #
coedge $-1 $611 $612 $390 $504 reversed $613 $-1 #
edge $614 $509 -1.0252786299499361 $529 0 $503 $510 forward 7 unknown #
coedge $-1 $615 $391 $394 $513 forward $507 $-1 #
coedge $-1 $391 $615 $611 $616 reversed $507 $-1 #
loop $-1 $-1 $391 $617 #
epar-rbase-attrib $-1 $-1 $-1 $392 #
vertex $-1 $392 $618 #
ellipse-curve $-1 6.9850000000000003 2.8574999999999999 -4.1275000000000004 0 0 1 -2.17134133369004 1.31790622299508 0 1 I I #
coedge $-1 $512 $393 $619 $620 forward $395 $-1 #
coedge $-1 $394 $511 $621 $622 reversed $395 $-1 #
edge $-1 $397 4.1275000000000004 $623 5.0800000000000001 $505 $550 forward 7 unknown #
face $624 $625 $395 $8 $-1 $554 forward single #
point $-1 9.1563413336900403 4.1754062229950799 -4.1275000000000004 #
coedge $-1 $626 $627 $628 $629 forward $399 $-1 #
model_id-kcp-attrib $-1 $-1 $-1 $400 1 990564525 90 2069495809 27 #
plane-surface $-1 6.9850000000000003 1.7628396586694 -5.0800000000000001 0 0 -1 -1 0 0 forward_v I I I I #
coedge $-1 $521 $403 $630 $631 forward $300 $-1 #
coedge $-1 $408 $632 $403 $410 reversed $527 $-1 #
coedge $-1 $404 $519 $633 $634 forward $300 $-1 #
coedge $-1 $635 $619 $404 $523 reversed $610 $-1 #
edge $-1 $636 0 $524 1.3930580509725199 $522 $637 forward 7 unknown #
vertex $-1 $523 $638 #
ellipse-curve $-1 10.727083649923101 1.5874999999999999 -3.4925000000000002 0.85485879279135368 0.51886071771459974 0 -0.38541635007687902 0.63500000000000001 8.8817841970012504e-016 0.85485879279135402 I I #
coedge $-1 $628 $408 $612 $639 forward $527 $-1 #
loop $-1 $-1 $408 $640 #
epar-rbase-attrib $-1 $-1 $-1 $409 #
vertex $-1 $409 $641 #
straight-curve $-1 3.5917643035868401 2.16225104632856 -4.1275000000000004 -0.51886071771459996 -0.85485879279135402 0 I I #
vertex $-1 $631 $642 #
ellipse-curve $-1 3.2429163500768801 1.5874999999999999 -3.4925000000000002 -0.85485879279135368 0.51886071771459974 0 0.38541635007687902 0.63500000000000001 8.8817841970012504e-016 0.85485879279135402 I I #
coedge $-1 $643 $412 $438 $564 forward $308 $-1 #
coedge $-1 $412 $547 $543 $644 forward $308 $-1 #
coedge $-1 $435 $434 $412 $536 reversed $436 $-1 #
edge $645 $646 -1.0252786299499361 $565 0 $535 $647 reversed 7 unknown #
model_id-kcp-attrib $-1 $-1 $413 $309 1 990564525 90 2069495809 26 #
epar-rbase-attrib $-1 $-1 $416 $211 #
coedge $-1 $648 $562 $417 $540 reversed $649 $-1 #
edge $-1 $650 0 $541 1.3935120194486399 $539 $651 forward 7 unknown #
vertex $-1 $563 $652 #
ellipse-curve $-1 3.2429163500768801 1.5874999999999999 -1.5874999999999999 -0.85485879279135368 0.51886071771459974 0 -0.38541635007687902 -0.63500000000000001 -4.4408920985006301e-016 0.85485879279135402 I I #
coedge $-1 $420 $419 $534 $644 reversed $421 $-1 #
edge $-1 $646 5.5511151231257797e-016 $422 0.95250000000000101 $435 $653 forward 7 unknown #
face $654 $561 $421 $8 $-1 $655 forward single #
point $-1 6.9850000000000003 5.3975 -0.95250000000000101 #
coedge $-1 $534 $656 $424 $548 forward $308 $-1 #
edge $657 $658 -3.0553108379036087 $549 0 $424 $659 reversed 7 unknown #
vertex $-1 $644 $660 #
straight-curve $-1 9.1563413336900403 4.1754062229950799 0 0 0 -1 I I #
coedge $-1 $661 $430 $426 $552 reversed $500 $-1 #
edge $-1 $658 0 $432 0.95295193369644104 $426 $662 forward 7 unknown #
model_id-kcp-attrib $-1 $-1 $-1 $427 1 990564525 90 2069495809 12 #
plane-surface $-1 10.741622107885901 1.5635468885024599 0 0.85485879279135368 0.51886071771459974 0 0 0 -1 forward_v I I I I #
coedge $-1 $663 $664 $429 $556 forward $665 $-1 #
edge $666 $650 2.14270722526908 $558 11.8272927747309 $555 $667 forward 7 unknown #
coedge $-1 $430 $661 $663 $668 forward $500 $-1 #
vertex $-1 $668 $669 #
intcurve-curve $-1 forward { surfintcur full nubs 3 open 5 
	3.4214473099368199 3 3.7122575113071998 3 4.0307864505977102 3 4.4228728899915897 3 4.8149593293854602 3 
	10.741622107885901 1.5635468885024599 -0.95295193369644104 
	10.7923371254074 1.4799904018102501 -0.95610604911868202 
	10.855202603794901 1.39926485492769 -0.97618179305689901 
	10.924761987262301 1.32900227886611 -1.00749661365763 
	11.0009514624912 1.2520425858455499 -1.0417962239980501 
	11.0852431064813 1.18754643070211 -1.08942795719098 
	11.165615937965301 1.13848719394654 -1.13848719394655 
	11.2645491695605 1.07809876738248 -1.1988756205105999 
	11.3762597290843 1.0294166659959501 -1.2730366623548199 
	11.490251320937899 0.99803968687215405 -1.3513611864870501 
	11.6042429127916 0.96666270774835605 -1.42968571061929 
	11.7205803623332 0.95250000000000101 -1.5120429295567801 
	11.8272927747309 0.95250000000000101 -1.5874999999999999 
	0.001 
	cone 0 1.5874999999999999 -1.5874999999999999 1 0 0 0 -0.63500000000000001 -4.4408920985006301e-016 1 I I 0 -1 0.63500000000000001 forward I I I I 
	cone 11.8272927747309 2.2225000000000001 0 0 0 -1 -1.08567066684502 -0.65895311149754199 0 1 I I 0 -1 1.2700000000000009 forward I I I I 
	nullbs 
	nullbs 
	I F 4.8149583293854601 
	0 
	1 4.8149583293854601 
	0 
	} I I #
point $-1 10.741622107885901 1.5635468885024599 -0.95295193369644104 #
face $670 $671 $436 $8 $-1 $655 forward single #
coedge $-1 $539 $672 $437 $563 forward $649 $-1 #
edge $-1 $673 0 $541 0.95295193369644104 $562 $674 forward 7 unknown #
edge $675 $565 -3.0553108379036087 $673 0 $438 $676 reversed 7 unknown #
vertex $-1 $536 $677 #
straight-curve $-1 4.8136586663099603 4.1754062229950799 0 0 0 -1 I I #
model_id-kcp-attrib $-1 $-1 $-1 $440 1 990564525 90 2069495809 15 #
plane-surface $-1 4.8136586663099603 4.1754062229950799 0 -0.85485879279135368 0.51886071771459974 0 0 0 1 forward_v I I I I #
face $-1 $474 $467 $19 $-1 $678 reversed single #
cone-surface $-1 4.8422927747308995 -0.47624999999999984 2.54 0 0 1 -1.0856706668450151 -0.65895311149754987 0 1 I I 0 -1 1.2700000000000009 forward I I I I #
coedge $-1 $576 $679 $472 $597 reversed $447 $-1 #
coedge $-1 $449 $580 $450 $575 forward $350 $-1 #
coedge $-1 $451 $450 $680 $681 reversed $254 $-1 #
coedge $-1 $593 $682 $490 $575 forward $606 $-1 #
edge $-1 $683 -5.0800000000000001 $492 0 $574 $684 forward 7 unknown #
coedge $-1 $685 $571 $451 $577 forward $447 $-1 #
edge $-1 $578 0 $686 5.0800000000000001 $451 $687 forward 7 unknown #
vertex $-1 $453 $688 #
ellipse-curve $-1 0 0.15874999999999995 2.54 0 0 -1 -2.2204460492503128e-016 2.54 0 1 I I #
coedge $-1 $572 $454 $600 $689 reversed $350 $-1 #
vertex $-1 $479 $690 #
straight-curve $-1 -2.1713413336900382 1.476656222995079 2.54 0 0 -1 I I #
point $-1 -2.1713413336900382 1.476656222995079 2.54 #
coedge $-1 $691 $458 $461 $588 forward $496 $-1 #
coedge $-1 $458 $692 $465 $591 forward $496 $-1 #
straight-curve $-1 2.4211463873654497 -1.7462500000000005 -2.54 -1 0 0 I I #
coedge $-1 $461 $460 $679 $693 forward $462 $-1 #
edge $-1 $463 -1.0252786299499275 $694 -2.7533586077876448e-016 $584 $695 forward 7 unknown #
point $-1 4.8422927747308995 -1.7462500000000005 -2.54 #
coedge $-1 $466 $465 $696 $697 reversed $467 $-1 #
edge $-1 $698 -2.69875 $468 1.7462499999999999 $465 $699 forward 7 unknown #
point $-1 6.9850000000000003 -1.7462499999999999 -2.54 #
coedge $-1 $696 $574 $470 $594 reversed $606 $-1 #
edge $-1 $595 -6.9850000000000003 $492 0 $593 $493 forward 7 unknown #
vertex $-1 $471 $700 #
straight-curve $-1 6.9850000000000003 0 2.54 0 1 0 I I #
edge $-1 $578 -1.5814998542730705 $598 1.4738109836305398 $472 $701 forward 7 unknown #
vertex $-1 $597 $702 #
ellipse-curve $-1 4.8422927747308995 -0.47624999999999984 2.54 0 0 1 -1.0856706668450151 -0.65895311149754987 0 1 I I #
coedge $-1 $477 $482 $580 $689 forward $373 $-1 #
straight-curve $-1 -2.9919194831441338 0.12469716677078435 -2.54 -0.51886071771460007 -0.85485879279135346 0 I I #
coedge $-1 $484 $490 $482 $603 reversed $491 $-1 #
edge $-1 $486 -6.9850000000000003 $683 0 $602 $703 forward 7 unknown #
straight-curve $-1 -6.9850000000000003 2.69875 0 0 0 -1 I I #
point $-1 -6.9850000000000003 2.69875 -2.54 #
loop $-1 $-1 $574 $488 #
plane-surface $-1 0 2.69875 0 0 -1 0 0 0 -1 forward_v I I I I #
point $-1 0 2.69875 2.54 #
model_id-kcp-attrib $-1 $-1 $-1 $499 1 990564525 90 2069495809 11 #
loop $-1 $-1 $522 $499 #
coedge $-1 $704 $503 $506 $616 forward $613 $-1 #
coedge $-1 $503 $704 $526 $639 reversed $613 $-1 #
loop $-1 $-1 $611 $671 #
epar-rbase-attrib $-1 $-1 $-1 $504 #
coedge $-1 $506 $505 $705 $706 reversed $507 $-1 #
edge $-1 $509 4.1275000000000004 $707 5.0800000000000001 $506 $708 forward 7 unknown #
face $709 $309 $507 $8 $-1 $655 forward single #
point $-1 6.9850000000000003 5.3975 -4.1275000000000004 #
coedge $-1 $522 $710 $511 $620 reversed $610 $-1 #
edge $-1 $524 4.1270480663035602 $711 5.0800000000000001 $511 $662 forward 7 unknown #
coedge $-1 $712 $705 $512 $622 forward $399 $-1 #
edge $-1 $623 0 $711 3.0553108379036087 $512 $713 reversed 7 unknown #
vertex $-1 $513 $714 #
model_id-kcp-attrib $-1 $-1 $-1 $514 1 990564525 90 2069495809 13 #
face $715 $440 $649 $8 $-1 $716 forward single #
coedge $-1 $705 $516 $704 $717 forward $399 $-1 #
coedge $-1 $516 $718 $719 $720 forward $399 $-1 #
coedge $-1 $632 $526 $516 $629 reversed $527 $-1 #
edge $-1 $721 0 $722 3.0553108379036087 $628 $723 reversed 7 unknown #
coedge $-1 $724 $725 $519 $631 reversed $726 $-1 #
edge $-1 $531 3.4219012784134901 $727 4.8149593293854602 $630 $728 forward 7 unknown #
coedge $-1 $520 $628 $724 $729 reversed $527 $-1 #
coedge $-1 $730 $731 $521 $634 reversed $665 $-1 #
edge $732 $727 2.14270722526908 $636 11.8272927747309 $521 $733 forward 7 unknown #
coedge $-1 $710 $522 $731 $734 forward $610 $-1 #
vertex $-1 $634 $735 #
intcurve-curve $-1 forward { surfintcur full nubs 3 open 5 
	0 3 0.42245797404590302 3 0.84491594809180703 3 1.1328292225201499 3 1.3930580509725199 3 
	11.8272927747309 0.95250000000000001 -3.4925000000000002 
	11.7123142775995 0.95250000000000001 -3.5738020750122401 
	11.587147292908099 0.96891557415436802 -3.6624303976659802 
	11.4649921057533 1.00527437372586 -3.7459527966108799 
	11.342836918598399 1.04163317329736 -3.82947519555578 
	11.223625294521 1.09800967860828 -3.9077594108187399 
	11.118678025884901 1.1685715689773399 -3.9697043269721002 
	11.047154433926201 1.2166608610587499 -4.0119209845797199 
	10.9722047424944 1.2783023473903099 -4.0525263190085896 
	10.9042624349664 1.3501955853176599 -4.0814920328597699 
	10.8428531542535 1.41517589272665 -4.1076725339003799 
	10.7871128055966 1.4885978287634301 -4.1242188666260304 
	10.741622107885901 1.5635468885024599 -4.1270480663035602 
	0.001 
	cone 0 1.5874999999999999 -3.4925000000000002 1 0 0 0 8.8817841970012504e-016 -0.63500000000000001 1 I I 0 -1 0.63500000000000001 forward I I I I 
	cone 11.8272927747309 2.2225000000000001 0 0 0 -1 -1.08567066684502 -0.65895311149754199 0 1 I I 0 -1 1.2700000000000009 forward I I I I 
	nullbs 
	nullbs 
	F 9.9999999999985405e-007 I 
	0 
	1 9.9999999999985405e-007 
	0 
	} I I #
point $-1 10.741622107885901 1.5635468885024599 -4.1270480663035602 #
edge $-1 $529 4.1275000000000004 $722 5.0800000000000001 $526 $566 forward 7 unknown #
face $736 $737 $527 $8 $-1 $568 forward single #
point $-1 4.8136586663099603 4.1754062229950799 -4.1275000000000004 #
point $-1 3.2283778921141 1.5635468885024599 -4.1270480663035602 #
coedge $-1 $738 $533 $672 $739 forward $308 $-1 #
edge $740 $549 -2.0505572598998723 $646 -1.0252786299499361 $543 $647 reversed 7 unknown #
attrib_edge_convexity-kcp-attrib $-1 $741 $-1 $536 1 #
vertex $-1 $536 $742 #
ellipse-curve $-1 6.9850000000000003 2.8574999999999999 0 0 0 -1 -2.17134133369004 1.31790622299508 0 1 I I #
coedge $-1 $672 $539 $664 $743 reversed $649 $-1 #
loop $-1 $-1 $539 $625 #
vertex $-1 $743 $744 #
intcurve-curve $-1 forward { surfintcur full nubs 3 open 5 
	0 3 0.39208643939388099 3 0.78417287878776198 3 1.1027018180782799 3 1.3935120194486399 3 
	2.14270722526908 0.95250000000000001 -1.5874999999999999 
	2.2494196376668198 0.95250000000000001 -1.5120429295567801 
	2.3657570872084301 0.96666270774835605 -1.42968571061929 
	2.47974867906209 0.99803968687215505 -1.3513611864870501 
	2.59374027091576 1.0294166659959501 -1.2730366623548199 
	2.7054508304395402 1.07809876738249 -1.1988756205105999 
	2.8043840620346598 1.13848719394654 -1.13848719394654 
	2.88475689351869 1.18754643070211 -1.08942795719097 
	2.96904853750886 1.2520425858455499 -1.0417962239980501 
	3.0452380127376699 1.32900227886612 -1.00749661365763 
	3.1147973962051299 1.39926485492769 -0.97618179305689701 
	3.1776628745925901 1.4799904018102501 -0.95610604911868202 
	3.2283778921141 1.5635468885024599 -0.95295193369644104 
	0.001 
	cone 0 1.5874999999999999 -1.5874999999999999 1 0 0 0 -0.63500000000000001 -4.4408920985006301e-016 1 I I 0 -1 0.63500000000000001 forward I I I I 
	cone 2.14270722526908 2.2225000000000001 0 0 0 -1 0 -1.27 0 1 I I 0 -1 1.27 forward I I I I 
	nullbs 
	nullbs 
	F 1.0000000000000209e-006 I 
	0 
	1 1.0000000000000209e-006 
	0 
	} I I #
point $-1 3.2283778921141 1.5635468885024599 -0.95295193369644104 #
straight-curve $-1 6.9850000000000003 5.3975 0 0 0 -1 I I #
model_id-kcp-attrib $-1 $-1 $-1 $545 1 990564525 90 2069495809 16 #
cone-surface $-1 6.9850000000000003 2.8574999999999999 0 0 0 -1 -2.17134133369004 1.31790622299508 0 1 I I 0 1 2.54 forward I I I I #
coedge $-1 $547 $745 $661 $746 forward $308 $-1 #
attrib_edge_convexity-kcp-attrib $-1 $747 $-1 $548 1 #
vertex $-1 $548 $748 #
straight-curve $-1 9.1563413336900403 4.1754062229950799 0 0.51886071771459996 -0.85485879279135402 0 I I #
point $-1 9.1563413336900403 4.1754062229950799 0 #
coedge $-1 $557 $551 $656 $746 reversed $500 $-1 #
straight-curve $-1 10.741622107885901 1.5635468885024599 0 0 0 -1 I I #
coedge $-1 $749 $555 $557 $668 reversed $665 $-1 #
coedge $-1 $555 $750 $648 $743 forward $665 $-1 #
loop $-1 $-1 $663 $751 #
attrib_edge_convexity-kcp-attrib $-1 $752 $-1 $556 4 #
straight-curve $-1 0 0.95250000000000001 -1.5874999999999999 1 0 0 I I #
edge $753 $754 0 $558 1.5874999999999999 $557 $755 forward 7 unknown #
point $-1 11.8272927747309 0.95250000000000101 -1.5874999999999999 #
model_id-kcp-attrib $-1 $-1 $-1 $561 1 990564525 90 2069495809 17 #
face $756 $640 $613 $8 $-1 $655 forward single #
coedge $-1 $562 $648 $643 $739 reversed $649 $-1 #
vertex $-1 $739 $757 #
straight-curve $-1 3.2283778921141 1.5635468885024599 0 0 0 -1 I I #
attrib_edge_convexity-kcp-attrib $-1 $758 $-1 $564 1 #
straight-curve $-1 3.2283778921141 1.5635468885024599 0 0.51886071771459996 0.85485879279135402 0 I I #
point $-1 4.8136586663099603 4.1754062229950799 0 #
plane-surface $-1 6.9850000000000003 0 0 -1 0 0 0 0 1 forward_v I I I I #
coedge $-1 $571 $685 $587 $693 reversed $447 $-1 #
coedge $-1 $692 $691 $573 $681 forward $496 $-1 #
edge $-1 $686 -1.0252786299499361 $683 -8.7419135797256401e-017 $680 $759 forward 7 unknown #
coedge $-1 $574 $696 $692 $760 reversed $606 $-1 #
vertex $-1 $760 $761 #
straight-curve $-1 0 2.69875 2.54 0 0 1 I I #
coedge $-1 $679 $576 $691 $762 reversed $447 $-1 #
vertex $-1 $681 $763 #
straight-curve $-1 2.17134133369004 1.4766562229950799 2.54 0 0 -1 I I #
point $-1 2.17134133369004 1.4766562229950799 2.54 #
edge $-1 $683 -8.7419135797256401e-017 $581 1.0252786299499361 $600 $759 forward 7 unknown #
point $-1 -2.1713413336900382 1.476656222995079 -2.54 #
coedge $-1 $680 $584 $685 $762 forward $496 $-1 #
coedge $-1 $585 $680 $682 $760 forward $496 $-1 #
edge $-1 $598 0 $694 5.0800000000000001 $679 $764 forward 7 unknown #
vertex $-1 $762 $765 #
ellipse-curve $-1 4.8422927747308995 -0.47624999999999984 -2.54 0 0 -1 -1.0856706668450151 -0.65895311149754987 0 1 I I #
coedge $-1 $682 $593 $590 $697 forward $606 $-1 #
edge $-1 $595 -2.54 $698 2.54 $590 $766 forward 7 unknown #
vertex $-1 $591 $767 #
straight-curve $-1 6.9850000000000003 0 -2.54 0 -1 0 I I #
point $-1 6.9850000000000003 2.69875 2.54 #
straight-curve $-1 2.9919194831428997 0.12469716677101561 2.54 0.51886071771514308 -0.85485879279102384 0 I I #
point $-1 3.7566221078859021 -1.1352031114975394 2.54 #
straight-curve $-1 0 2.69875 -2.54 1 0 0 I I #
coedge $-1 $612 $611 $626 $717 reversed $613 $-1 #
coedge $-1 $621 $626 $615 $706 forward $399 $-1 #
edge $-1 $707 1.0252786299499361 $623 2.0505572598998723 $615 $768 reversed 7 unknown #
vertex $-1 $706 $769 #
straight-curve $-1 6.9850000000000003 5.3975 0 0 0 -1 I I #
model_id-kcp-attrib $-1 $-1 $-1 $617 1 990564525 90 2069495809 25 #
coedge $-1 $619 $635 $712 $770 reversed $610 $-1 #
vertex $-1 $620 $771 #
coedge $-1 $772 $621 $710 $770 forward $399 $-1 #
straight-curve $-1 9.1563413336900403 4.1754062229950799 -5.0800000000000001 -0.51886071771459996 0.85485879279135402 0 I I #
point $-1 9.1563413336900403 4.1754062229950799 -5.0800000000000001 #
model_id-kcp-attrib $-1 $-1 $-1 $625 1 990564525 90 2069495809 14 #
cone-surface $-1 2.14270722526908 2.2225000000000001 0 0 0 -1 0 -1.27 0 1 I I 0 -1 1.27 forward I I I I #
edge $-1 $722 0 $707 1.0252786299499361 $704 $768 reversed 7 unknown #
coedge $-1 $627 $773 $774 $775 forward $399 $-1 #
coedge $-1 $725 $724 $627 $720 reversed $726 $-1 #
edge $-1 $776 0 $721 1.0252786299499359 $719 $777 reversed 7 unknown #
vertex $-1 $729 $778 #
vertex $-1 $639 $779 #
straight-curve $-1 3.2283778921141 1.5635468885024599 -5.0800000000000001 -0.51886071771459996 -0.85485879279135402 0 I I #
coedge $-1 $719 $630 $632 $729 forward $726 $-1 #
coedge $-1 $630 $719 $730 $780 reversed $726 $-1 #
loop $-1 $-1 $630 $737 #
vertex $-1 $780 $781 #
intcurve-curve $-1 forward { surfintcur full nubs 3 open 5 
	3.4219012784134901 3 3.6821301068653298 3 3.97004338129367 3 4.3925013553395598 3 4.8149593293854602 3 
	3.2283778921141 1.5635468885024599 -4.1270480663035602 
	3.18288719440346 1.4885978287635699 -4.1242188666260304 
	3.1271468457463798 1.4151758927264999 -4.1076725339003302 
	3.0657375650335599 1.3501955853176499 -4.0814920328597699 
	2.9977952575055902 1.2783023473902999 -4.0525263190085896 
	2.9228455660737498 1.2166608610587399 -4.0119209845797101 
	2.8513219741151001 1.1685715689773399 -3.9697043269721002 
	2.74637470547898 1.09800967860827 -3.9077594108187399 
	2.6271630814015601 1.04163317329736 -3.8294751955557702 
	2.5050078942467202 1.00527437372586 -3.7459527966108799 
	2.3828527070918901 0.96891557415436702 -3.6624303976659802 
	2.2576857224004501 0.95250000000000001 -3.5738020750122299 
	2.14270722526908 0.95250000000000001 -3.4925000000000002 
	0.001 
	cone 0 1.5874999999999999 -3.4925000000000002 1 0 0 0 8.8817841970012504e-016 -0.63500000000000001 1 I I 0 -1 0.63500000000000001 forward I I I I 
	cone 2.14270722526908 2.2225000000000001 0 0 0 -1 0 -1.27 0 1 I I 0 -1 1.27 forward I I I I 
	nullbs 
	nullbs 
	I F 4.8149583293854601 
	0 
	1 4.8149583293854601 
	0 
	} I I #
edge $-1 $531 4.1270480663035602 $721 5.0800000000000001 $724 $674 forward 7 unknown #
coedge $-1 $774 $633 $725 $780 forward $665 $-1 #
coedge $-1 $633 $782 $635 $734 reversed $665 $-1 #
attrib_edge_convexity-kcp-attrib $-1 $783 $-1 $634 4 #
straight-curve $-1 0 0.95250000000000001 -3.4925000000000002 1 0 0 I I #
edge $784 $636 3.4925000000000002 $785 5.0800000000000001 $635 $755 forward 7 unknown #
point $-1 11.8272927747309 0.95250000000000001 -3.4925000000000002 #
model_id-kcp-attrib $-1 $-1 $-1 $640 1 990564525 90 2069495809 19 #
face $786 $787 $726 $8 $-1 $716 forward single #
coedge $-1 $788 $643 $750 $789 forward $308 $-1 #
edge $790 $673 -1.0252786299499359 $791 0 $672 $792 reversed 7 unknown #
attrib_edge_convexity-kcp-attrib $-1 $793 $-1 $644 1 #
convexity-sys-attrib $-1 $-1 $645 $536 #
point $-1 6.9850000000000003 5.3975 -5.5511151231257797e-016 #
edge $794 $791 0 $650 1.5874999999999999 $664 $795 forward 7 unknown #
point $-1 2.14270722526908 0.95250000000000001 -1.5874999999999999 #
coedge $-1 $656 $796 $749 $797 forward $308 $-1 #
edge $798 $754 -1.0252786299499348 $658 -7.3652342758319374e-015 $661 $799 reversed 7 unknown #
convexity-sys-attrib $-1 $-1 $657 $548 #
point $-1 10.741622107885901 1.5635468885024599 0 #
coedge $-1 $800 $663 $745 $797 reversed $665 $-1 #
coedge $-1 $664 $801 $738 $789 reversed $665 $-1 #
face $802 $617 $665 $8 $-1 $803 forward single #
convexity-sys-attrib $-1 $-1 $666 $556 #
attrib_edge_convexity-kcp-attrib $-1 $804 $-1 $668 4 #
vertex $-1 $746 $805 #
straight-curve $-1 11.8272927747309 0.95250000000000101 0 0 0 -1 I I #
model_id-kcp-attrib $-1 $-1 $-1 $671 1 990564525 90 2069495809 18 #
point $-1 3.2283778921141 1.5635468885024599 0 #
convexity-sys-attrib $-1 $-1 $675 $564 #
ellipse-curve $-1 0 0.15874999999999995 -2.54 0 0 1 -2.2204460492503128e-016 2.54 0 1 I I #
edge $-1 $683 0 $698 6.9850000000000003 $682 $703 forward 7 unknown #
point $-1 0 2.69875 -2.54 #
edge $-1 $694 -1.4738109836305398 $686 1.5814998542730705 $691 $806 forward 7 unknown #
point $-1 2.17134133369004 1.4766562229950799 -2.54 #
straight-curve $-1 3.7566221078859021 -1.1352031114975394 2.54 0 0 -1 I I #
point $-1 3.7566221078859021 -1.1352031114975394 -2.54 #
straight-curve $-1 6.9850000000000003 2.69875 0 0 0 -1 I I #
point $-1 6.9850000000000003 2.69875 -2.54 #
ellipse-curve $-1 6.9850000000000003 2.8574999999999999 -5.0800000000000001 0 0 1 -2.17134133369004 1.31790622299508 0 1 I I #
point $-1 6.9850000000000003 5.3975 -5.0800000000000001 #
edge $-1 $711 7.3652342758319374e-015 $785 1.0252786299499348 $710 $807 reversed 7 unknown #
point $-1 10.741622107885901 1.5635468885024599 -5.0800000000000001 #
coedge $-1 $808 $712 $782 $809 forward $399 $-1 #
coedge $-1 $718 $810 $811 $812 forward $399 $-1 #
coedge $-1 $801 $730 $718 $775 reversed $665 $-1 #
edge $813 $814 0 $776 2.14270722526908 $774 $815 reversed 7 unknown #
vertex $-1 $780 $816 #
ellipse-curve $-1 2.14270722526908 2.2225000000000001 -5.0800000000000001 0 0 -1 0 -1.27 0 1 I I #
point $-1 3.2283778921141 1.5635468885024599 -5.0800000000000001 #
point $-1 4.8136586663099603 4.1754062229950799 -5.0800000000000001 #
edge $817 $727 3.4925000000000002 $776 5.0800000000000001 $730 $795 forward 7 unknown #
point $-1 2.14270722526908 0.95250000000000001 -3.4925000000000002 #
coedge $-1 $731 $800 $772 $809 reversed $665 $-1 #
convexity-sys-attrib $-1 $-1 $732 $634 #
attrib_edge_convexity-kcp-attrib $-1 $818 $-1 $734 4 #
vertex $-1 $734 $819 #
model_id-kcp-attrib $-1 $-1 $-1 $737 1 990564525 90 2069495809 20 #
face $820 $821 $822 $8 $-1 $823 forward single #
coedge $-1 $824 $738 $825 $826 forward $308 $-1 #
edge $827 $791 -2.14270722526908 $828 0 $750 $829 reversed 7 unknown #
attrib_edge_convexity-kcp-attrib $-1 $830 $-1 $739 1 #
vertex $-1 $789 $831 #
ellipse-curve $-1 2.14270722526908 2.2225000000000001 0 0 0 1 0 -1.27 0 1 I I #
convexity-sys-attrib $-1 $-1 $740 $644 #
attrib_edge_convexity-kcp-attrib $-1 $832 $-1 $743 4 #
straight-curve $-1 2.14270722526908 0.95250000000000001 0 0 0 -1 I I #
coedge $-1 $745 $824 $833 $834 forward $308 $-1 #
edge $835 $836 -2.1427072252691008 $754 0 $749 $837 reversed 7 unknown #
attrib_edge_convexity-kcp-attrib $-1 $838 $-1 $746 1 #
ellipse-curve $-1 11.8272927747309 2.2225000000000001 0 0 0 1 -1.08567066684502 -0.65895311149754199 0 1 I I #
coedge $-1 $782 $749 $839 $840 reversed $665 $-1 #
coedge $-1 $750 $774 $841 $842 reversed $665 $-1 #
model_id-kcp-attrib $-1 $-1 $-1 $751 1 990564525 90 2069495809 24 #
plane-surface $-1 13.970000000000001 0.95250000000000001 0 0 1 0 0 0 1 forward_v I I I I #
convexity-sys-attrib $-1 $-1 $753 $668 #
point $-1 11.8272927747309 0.95250000000000101 0 #
straight-curve $-1 2.9919194831428997 0.12469716677101561 -2.54 -0.51886071771514308 0.85485879279102384 0 I I #
ellipse-curve $-1 11.8272927747309 2.2225000000000001 -5.0800000000000001 0 0 -1 -1.08567066684502 -0.65895311149754199 0 1 I I #
coedge $-1 $810 $772 $843 $844 forward $399 $-1 #
edge $845 $785 0 $846 2.1427072252691008 $782 $847 reversed 7 unknown #
coedge $-1 $773 $808 $848 $849 forward $399 $-1 #
coedge $-1 $850 $841 $773 $812 reversed $822 $-1 #
edge $851 $852 0 $814 0.95250000000000001 $811 $853 reversed 7 unknown #
attrib_edge_convexity-kcp-attrib $-1 $854 $-1 $775 1 #
vertex $-1 $842 $855 #
straight-curve $-1 0 0.95250000000000001 -5.0800000000000001 -1 0 0 I I #
point $-1 2.14270722526908 0.95250000000000001 -5.0800000000000001 #
attrib_edge_convexity-kcp-attrib $-1 $856 $-1 $780 4 #
convexity-sys-attrib $-1 $-1 $784 $734 #
point $-1 11.8272927747309 0.95250000000000101 -5.0800000000000001 #
model_id-kcp-attrib $-1 $-1 $-1 $787 1 990564525 90 2069495809 21 #
face $857 $858 $859 $8 $-1 $860 forward single #
loop $-1 $-1 $811 $787 #
plane-surface $-1 0 0.95250000000000001 0 -1 0 0 0 0 1 forward_v I I I I #
coedge $-1 $796 $788 $861 $862 reversed $308 $-1 #
coedge $-1 $841 $850 $788 $826 reversed $822 $-1 #
edge $863 $828 -0.95250000000000001 $864 0 $825 $865 reversed 7 unknown #
attrib_edge_convexity-kcp-attrib $-1 $866 $-1 $789 1 #
vertex $-1 $826 $867 #
straight-curve $-1 0 0.95250000000000001 0 1 0 0 I I #
convexity-sys-attrib $-1 $-1 $790 $739 #
point $-1 2.14270722526908 0.95250000000000001 0 #
convexity-sys-attrib $-1 $-1 $794 $743 #
coedge $-1 $868 $839 $796 $834 reversed $869 $-1 #
edge $870 $871 -0.95250000000000001 $836 0 $833 $872 reversed 7 unknown #
attrib_edge_convexity-kcp-attrib $-1 $873 $-1 $797 1 #
vertex $-1 $797 $874 #
straight-curve $-1 11.8272927747309 0.95250000000000001 0 1 0 0 I I #
convexity-sys-attrib $-1 $-1 $798 $746 #
coedge $-1 $833 $843 $800 $840 forward $869 $-1 #
edge $875 $846 -5.0800000000000001 $836 0 $800 $876 reversed 7 unknown #
coedge $-1 $811 $825 $801 $842 forward $822 $-1 #
edge $877 $828 0 $814 5.0800000000000001 $841 $878 forward 7 unknown #
coedge $-1 $839 $868 $808 $844 reversed $869 $-1 #
edge $879 $846 0 $880 0.95250000000000001 $843 $881 reversed 7 unknown #
attrib_edge_convexity-kcp-attrib $-1 $882 $-1 $809 1 #
vertex $-1 $840 $883 #
straight-curve $-1 11.8272927747309 0.95250000000000001 -5.0800000000000001 -1 0 0 I I #
coedge $-1 $884 $885 $810 $849 reversed $859 $-1 #
edge $886 $880 0 $852 13.970000000000001 $848 $887 reversed 7 unknown #
coedge $-1 $825 $811 $885 $888 reversed $822 $-1 #
model_id-kcp-attrib $-1 $889 $-1 $812 1 990564525 90 2069495809 30 #
vertex $-1 $888 $890 #
straight-curve $-1 0 0 -5.0800000000000001 0 -1 0 I I #
convexity-sys-attrib $-1 $-1 $813 $775 #
point $-1 0 0.95250000000000001 -5.0800000000000001 #
convexity-sys-attrib $-1 $-1 $817 $780 #
model_id-kcp-attrib $-1 $-1 $-1 $821 1 990564525 90 2069495809 22 #
face $891 $751 $869 $8 $-1 $892 forward single #
loop $-1 $-1 $848 $821 #
plane-surface $-1 0 0 0 0 -1 0 0 0 -1 forward_v I I I I #
coedge $-1 $885 $884 $824 $862 forward $859 $-1 #
edge $893 $871 0 $864 13.970000000000001 $861 $894 forward 7 unknown #
attrib_edge_convexity-kcp-attrib $-1 $895 $-1 $826 1 #
vertex $-1 $862 $896 #
straight-curve $-1 0 0 0 0 1 0 I I #
convexity-sys-attrib $-1 $-1 $827 $789 #
point $-1 0 0.95250000000000001 0 #
coedge $-1 $843 $833 $884 $897 reversed $869 $-1 #
loop $-1 $-1 $843 $858 #
attrib_edge_convexity-kcp-attrib $-1 $898 $-1 $834 1 #
vertex $-1 $834 $899 #
straight-curve $-1 13.970000000000001 0.95250000000000001 0 0 -1 0 I I #
convexity-sys-attrib $-1 $-1 $835 $797 #
point $-1 13.970000000000001 0.95250000000000001 0 #
attrib_edge_convexity-kcp-attrib $-1 $900 $-1 $840 1 #
straight-curve $-1 13.970000000000001 0.95250000000000001 0 0 0 -1 I I #
attrib_edge_convexity-kcp-attrib $-1 $901 $-1 $842 1 #
straight-curve $-1 0 0.95250000000000001 0 0 0 -1 I I #
model_id-kcp-attrib $-1 $-1 $-1 $844 1 990564525 90 2069495809 29 #
vertex $-1 $897 $902 #
straight-curve $-1 13.970000000000001 0.95250000000000001 -5.0800000000000001 0 1 0 I I #
convexity-sys-attrib $-1 $-1 $845 $809 #
point $-1 13.970000000000001 0.95250000000000001 -5.0800000000000001 #
coedge $-1 $861 $848 $868 $897 forward $859 $-1 #
coedge $-1 $848 $861 $850 $888 forward $859 $-1 #
model_id-kcp-attrib $-1 $903 $-1 $849 1 990564525 90 2069495809 31 #
straight-curve $-1 13.970000000000001 0 -5.0800000000000001 1 0 0 I I #
edge $904 $864 0 $852 5.0800000000000001 $885 $905 forward 7 unknown #
attrib_edge_convexity-kcp-attrib $-1 $906 $851 $812 1 #
point $-1 0 0 -5.0800000000000001 #
model_id-kcp-attrib $-1 $-1 $-1 $858 1 990564525 90 2069495809 23 #
plane-surface $-1 13.970000000000001 0 0 1 0 0 0 0 -1 forward_v I I I I #
attrib_edge_convexity-kcp-attrib $-1 $907 $-1 $862 1 #
straight-curve $-1 13.970000000000001 0 0 -1 0 0 I I #
convexity-sys-attrib $-1 $-1 $863 $826 #
point $-1 0 0 0 #
edge $908 $880 -5.0800000000000001 $871 0 $868 $909 reversed 7 unknown #
convexity-sys-attrib $-1 $-1 $870 $834 #
point $-1 13.970000000000001 0 0 #
convexity-sys-attrib $-1 $-1 $875 $840 #
convexity-sys-attrib $-1 $-1 $877 $842 #
point $-1 13.970000000000001 0 -5.0800000000000001 #
attrib_edge_convexity-kcp-attrib $-1 $910 $886 $849 1 #
attrib_edge_convexity-kcp-attrib $-1 $911 $-1 $888 1 #
straight-curve $-1 0 0 0 0 0 -1 I I #
convexity-sys-attrib $-1 $-1 $889 $812 #
convexity-sys-attrib $-1 $-1 $893 $862 #
attrib_edge_convexity-kcp-attrib $-1 $912 $-1 $897 1 #
straight-curve $-1 13.970000000000001 0 0 0 0 -1 I I #
convexity-sys-attrib $-1 $-1 $903 $849 #
convexity-sys-attrib $-1 $-1 $904 $888 #
convexity-sys-attrib $-1 $-1 $908 $897 #
End-of-ACIS-data 