600 0 2 0           
24 FBMach with ACIS - 6.0.3 13 ACIS 6.0.3 NT 24 Tue May 22 16:53:55 2001 
1 9.9999999999999995e-007 1e-010 
body $2 $3 $-1 $4 #
bdycol-kcp $-1 1 3 $5 $6 $7 #
model_id-kcp-attrib $-1 $8 $-1 $0 1 990564834 70 -1807351807 1 #
lump $-1 $-1 $9 $0 #
transform $-1 1 0 0 0 1 0 0 0 1 0 0 0 1 no_rotate no_reflect no_shear #
body $10 $11 $-1 $12 #
body $13 $14 $-1 $15 #
body $16 $17 $-1 $18 #
f_body-rbase-attrib $-1 $19 $2 $0 #
shell $-1 $-1 $-1 $20 $-1 $3 #
model_id-kcp-attrib $-1 $-1 $-1 $5 1 990564834 70 -1807351806 1 #
lump $-1 $-1 $21 $5 #
transform $-1 1 0 0 0 1 0 0 0 1 29.839473040267052 -13.8265856191971 -10.159994924764174 1 no_rotate no_reflect no_shear #
rgb_color-st-attrib $-1 $22 $-1 $6 0.5 1 1 #
lump $-1 $23 $24 $6 #
transform $-1 1 0 0 0 1 0 0 0 1 29.839473040267052 -13.8265856191971 -10.159994924764174 1 no_rotate no_reflect no_shear #
rgb_color-st-attrib $-1 $25 $-1 $7 1 0.5 1 #
lump $-1 $-1 $26 $7 #
transform $-1 1 0 0 0 1 0 0 0 1 29.839473040267052 -13.8265856191971 -10.159994924764174 1 no_rotate no_reflect no_shear #
ref_vt-eye-attrib $-1 $-1 $8 $0 $27 $-1 #
face $28 $29 $30 $9 $-1 $31 forward single #
shell $-1 $-1 $-1 $32 $-1 $11 #
model_id-kcp-attrib $-1 $-1 $13 $6 1 990564834 210 -1798176765 1 #
lump $-1 $-1 $33 $6 #
shell $-1 $-1 $-1 $34 $-1 $14 #
model_id-kcp-attrib $-1 $35 $16 $7 1 990564834 550 -1809448956 1 #
shell $-1 $-1 $-1 $36 $-1 $17 #
eye_refinement $-1 5 grid  1 3 tri 3 4 surf 0 3 adj 0 4 grad 0 9 postcheck 0 4 stol 0.22224999964237213 4 ntol 30 4 dsil 0 8 flatness 0 7 pixarea 0 4 hmax 0 6 gridar 0 5 mgrid 10000 5 ugrid 0 5 vgrid 0 10 end_fields #
model_id-kcp-attrib $-1 $37 $-1 $20 1 990564834 70 -1807351807 2 #
face $38 $39 $40 $9 $-1 $31 forward single #
loop $-1 $-1 $41 $20 #
cone-surface $-1 29.839473040267102 -13.8265856191971 -7.1928812247641503 1 0 0 0 2.2225000000000001 0 1 I I 0 1 2.2225000000000001 forward I I I I #
face $-1 $42 $43 $21 $-1 $44 forward single #
shell $-1 $-1 $-1 $45 $-1 $23 #
face $-1 $46 $47 $24 $-1 $48 reversed single #
ref_vt-eye-attrib $-1 $-1 $25 $7 $27 $-1 #
face $-1 $49 $50 $26 $-1 $51 forward single #
fface-rbase-attrib $-1 $-1 $28 $20 #
model_id-kcp-attrib $-1 $52 $-1 $29 1 990564834 70 -1807351807 3 #
face $53 $54 $55 $9 $-1 $56 forward single #
loop $-1 $-1 $57 $29 #
coedge $58 $59 $60 $61 $62 reversed $30 $-1 #
face $-1 $63 $64 $21 $-1 $65 reversed single #
loop $-1 $-1 $66 $32 #
plane-surface $-1 0 0 5.1896137000000246 0 0 1 1 0 0 forward_v I I I I #
face $-1 $67 $68 $33 $-1 $69 reversed single #
face $-1 $70 $71 $24 $-1 $48 reversed single #
loop $-1 $-1 $72 $34 #
cone-surface $-1 10.159999999999947 0 2.9671137000000236 1 0 0 0 -2.2225000000000001 2.7216876213702337e-016 1 I I 0 1 2.2225000000000001 forward I I I I #
face $-1 $73 $74 $26 $-1 $75 forward single #
loop $-1 $-1 $76 $36 #
plane-surface $-1 5.0800000000000445 -2.2225000000000001 -2.9671137000000254 0 -1 0 0 0 -1 forward_v I I I I #
fface-rbase-attrib $-1 $-1 $38 $29 #
model_id-kcp-attrib $-1 $77 $-1 $39 1 990564834 70 -1807351807 12 #
face $78 $79 $80 $9 $-1 $81 forward single #
loop $-1 $-1 $82 $39 #
plane-surface $-1 39.999473040266999 -13.8265856191971 -7.1928812247641503 1 0 0 0 1 0 forward_v I I I I #
coedge $83 $84 $85 $60 $86 reversed $40 $-1 #
copar-rbase-attrib $-1 $-1 $-1 $41 #
coedge $87 $88 $41 $89 $90 forward $30 $-1 #
coedge $91 $41 $88 $57 $86 forward $30 $-1 #
coedge $92 $93 $94 $41 $62 forward $95 $-1 #
edge $96 $97 0 $98 3.1415926535897931 $61 $99 forward 7 unknown #
face $100 $101 $102 $21 $-1 $103 reversed single #
loop $-1 $-1 $104 $42 #
plane-surface $-1 0 0 -5.1896137000000246 0 0 1 1 0 0 forward_v I I I I #
coedge $-1 $105 $106 $107 $108 forward $43 $-1 #
face $-1 $109 $110 $33 $-1 $69 reversed single #
loop $-1 $-1 $111 $45 #
plane-surface $-1 0 0 -5.1896137000000246 0 0 1 1 0 0 forward_v I I I I #
face $-1 $112 $113 $24 $-1 $114 forward single #
loop $-1 $-1 $115 $46 #
coedge $-1 $116 $117 $118 $119 reversed $47 $-1 #
face $-1 $120 $121 $26 $-1 $122 forward single #
loop $-1 $-1 $123 $49 #
cone-surface $-1 5.0800000000000445 0 2.9671137000000236 1 0 0 0 2.2225000000000001 0 1 I I 0 -1 2.2225000000000001 forward I I I I #
coedge $-1 $124 $125 $126 $127 forward $50 $-1 #
model_id-kcp-attrib $-1 $128 $53 $39 1 990564834 70 -1807351807 4 #
model_id-kcp-attrib $-1 $129 $-1 $54 1 990564834 70 -1807351807 5 #
face $130 $131 $95 $9 $-1 $132 reversed single #
loop $-1 $-1 $133 $54 #
plane-surface $-1 19.679473040267101 -13.8265856191971 -13.127108624764199 -1 0 0 0 -1 0 forward_v I I I I #
coedge $134 $135 $135 $84 $136 forward $55 $-1 #
copar-rbase-attrib $-1 $-1 $-1 $57 #
coedge $137 $89 $57 $82 $136 reversed $40 $-1 #
coedge $138 $57 $139 $140 $141 reversed $40 $-1 #
edge $142 $143 -10.159999999999897 $98 -5.0799999999999983 $60 $144 forward 7 unknown #
copar-rbase-attrib $-1 $-1 $-1 $59 #
coedge $145 $60 $59 $135 $146 reversed $30 $-1 #
coedge $147 $148 $84 $59 $90 reversed $40 $-1 #
edge $149 $97 5.0799999999999983 $150 10.159999999999897 $59 $151 forward 7 unknown #
copar-rbase-attrib $-1 $-1 $-1 $60 #
copar-rbase-attrib $-1 $-1 $-1 $61 #
coedge $152 $153 $61 $154 $155 forward $95 $-1 #
coedge $156 $61 $153 $157 $158 reversed $95 $-1 #
loop $-1 $-1 $61 $79 #
epar-rbase-attrib $-1 $-1 $-1 $62 #
vertex $-1 $62 $159 #
vertex $-1 $62 $160 #
ellipse-curve $-1 34.9194730402671 -13.8265856191971 -7.1928812247641503 -1 0 0 0 2.2225000000000001 0 1 I I #
model_id-kcp-attrib $-1 $-1 $-1 $63 1 990564834 70 -1807351806 4 #
face $161 $162 $163 $21 $-1 $164 reversed single #
loop $-1 $-1 $165 $63 #
plane-surface $-1 0 -2.2225000000000001 0 0 1 0 0 0 1 forward_v I I I I #
coedge $-1 $166 $167 $168 $169 forward $64 $-1 #
coedge $-1 $170 $66 $171 $172 forward $43 $-1 #
coedge $-1 $66 $170 $173 $174 forward $43 $-1 #
coedge $-1 $175 $176 $66 $108 reversed $177 $-1 #
edge $-1 $178 -2.2225000000000001 $179 2.2225000000000001 $107 $180 forward 7 unknown #
face $-1 $181 $182 $33 $-1 $183 reversed single #
loop $-1 $-1 $184 $67 #
coedge $-1 $185 $186 $184 $187 forward $68 $-1 #
face $-1 $188 $189 $24 $-1 $190 reversed single #
loop $-1 $-1 $191 $70 #
plane-surface $-1 0 0 5.1896137000000246 0 0 1 1 0 0 forward_v I I I I #
coedge $-1 $192 $193 $194 $195 reversed $71 $-1 #
coedge $-1 $196 $72 $197 $198 reversed $47 $-1 #
coedge $-1 $72 $196 $193 $199 forward $47 $-1 #
coedge $-1 $200 $201 $72 $119 forward $202 $-1 #
edge $-1 $203 -1.2246063538223773e-016 $204 1.5707963267948966 $118 $205 forward 7 unknown #
face $-1 $206 $207 $26 $-1 $208 forward single #
loop $-1 $-1 $209 $73 #
plane-surface $-1 5.0800000000000445 2.2225000000000001 2.9671137000000236 0 1 0 0 0 1 forward_v I I I I #
coedge $-1 $210 $211 $212 $213 forward $74 $-1 #
coedge $-1 $214 $76 $211 $215 reversed $50 $-1 #
coedge $-1 $76 $214 $216 $217 forward $50 $-1 #
coedge $-1 $218 $212 $76 $127 reversed $219 $-1 #
edge $-1 $220 -2.9671137000000254 $221 2.9671137000000236 $76 $222 forward 7 unknown #
fface-rbase-attrib $-1 $-1 $77 $39 #
fface-rbase-attrib $-1 $-1 $78 $54 #
model_id-kcp-attrib $-1 $223 $-1 $79 1 990564834 70 -1807351807 6 #
face $224 $225 $226 $9 $-1 $227 reversed single #
plane-surface $-1 34.9194730402671 -13.8265856191971 -10.159994924764201 -1 0 0 0 0 1 forward_v I I I I #
coedge $228 $229 $230 $231 $232 forward $80 $-1 #
copar-rbase-attrib $-1 $-1 $-1 $82 #
coedge $233 $82 $82 $88 $146 forward $55 $-1 #
edge $234 $150 0 $143 3.1415926535897882 $82 $235 forward 7 unknown #
copar-rbase-attrib $-1 $-1 $-1 $84 #
copar-rbase-attrib $-1 $-1 $-1 $85 #
coedge $236 $85 $148 $230 $237 reversed $40 $-1 #
coedge $238 $239 $154 $85 $141 forward $226 $-1 #
edge $240 $98 -7.620000000000001 $241 7.6199999999999974 $140 $242 reversed 7 unknown #
epar-rbase-attrib $-1 $-1 $-1 $86 #
vertex $-1 $136 $243 #
straight-curve $-1 29.839473040267102 -16.049085619197101 -7.1928812247641396 -1 0 0 I I #
copar-rbase-attrib $-1 $-1 $-1 $88 #
edge $244 $143 -3.141592653589798 $150 0 $135 $235 forward 7 unknown #
copar-rbase-attrib $-1 $-1 $-1 $89 #
coedge $245 $139 $89 $246 $247 reversed $40 $-1 #
epar-rbase-attrib $-1 $-1 $-1 $90 #
vertex $-1 $146 $248 #
straight-curve $-1 29.839473040267102 -11.6040856191971 -7.1928812247641698 1 0 0 I I #
copar-rbase-attrib $-1 $-1 $-1 $93 #
coedge $249 $94 $93 $250 $251 reversed $95 $-1 #
coedge $252 $140 $253 $93 $155 reversed $226 $-1 #
edge $254 $98 -2.9671137000000503 $255 2.9671136999999987 $93 $256 forward 7 unknown #
copar-rbase-attrib $-1 $-1 $-1 $94 #
coedge $257 $258 $246 $94 $158 forward $259 $-1 #
edge $260 $97 -2.9671137000000503 $261 2.9671136999999987 $94 $262 forward 7 unknown #
point $-1 34.9194730402671 -11.6040856191971 -7.1928812247641503 #
point $-1 34.9194730402671 -16.049085619197101 -7.1928812247641503 #
model_id-kcp-attrib $-1 $-1 $-1 $101 1 990564834 70 -1807351806 3 #
face $263 $264 $265 $21 $-1 $266 reversed single #
loop $-1 $-1 $267 $101 #
plane-surface $-1 -10.159999999999949 0 0 1 0 0 0 0 -1 forward_v I I I I #
coedge $-1 $268 $173 $269 $270 forward $102 $-1 #
coedge $-1 $271 $104 $268 $272 forward $64 $-1 #
coedge $-1 $104 $271 $273 $274 forward $64 $-1 #
coedge $-1 $176 $175 $104 $169 reversed $177 $-1 #
edge $-1 $275 -2.2225000000000001 $276 2.2225000000000001 $168 $277 forward 7 unknown #
coedge $-1 $106 $105 $278 $279 forward $43 $-1 #
coedge $-1 $280 $281 $105 $172 reversed $265 $-1 #
edge $-1 $179 -10.159999999999949 $282 10.159999999999949 $171 $283 forward 7 unknown #
coedge $-1 $165 $284 $106 $174 reversed $102 $-1 #
edge $-1 $285 -10.159999999999949 $178 10.159999999999949 $173 $286 forward 7 unknown #
coedge $-1 $168 $107 $284 $287 forward $177 $-1 #
coedge $-1 $107 $168 $280 $288 reversed $177 $-1 #
loop $-1 $-1 $175 $264 #
vertex $-1 $108 $289 #
vertex $-1 $108 $290 #
straight-curve $-1 10.159999999999949 0 5.1896137000000246 0 1 0 I I #
face $-1 $291 $292 $33 $-1 $183 reversed single #
loop $-1 $-1 $293 $109 #
plane-surface $-1 -10.159999999999949 0 0 1 0 0 0 0 -1 forward_v I I I I #
coedge $-1 $294 $295 $296 $187 reversed $110 $-1 #
coedge $-1 $297 $111 $298 $299 forward $68 $-1 #
coedge $-1 $111 $297 $300 $301 forward $68 $-1 #
edge $-1 $302 -20.319999999999894 $303 1.7763568394002505e-015 $111 $304 forward 7 unknown #
face $-1 $305 $306 $24 $-1 $183 reversed single #
loop $-1 $-1 $307 $112 #
plane-surface $-1 10.159999999999949 0 0 -1 0 0 0 0 1 forward_v I I I I #
coedge $-1 $308 $309 $117 $199 reversed $113 $-1 #
coedge $-1 $310 $115 $311 $312 forward $71 $-1 #
coedge $-1 $115 $310 $313 $199 reversed $71 $-1 #
coedge $-1 $314 $315 $115 $195 forward $316 $-1 #
edge $-1 $317 -3.1415926535897931 $318 -1.5707963267948966 $194 $319 forward 7 unknown #
coedge $-1 $117 $116 $320 $321 reversed $47 $-1 #
coedge $-1 $322 $323 $116 $198 forward $324 $-1 #
edge $-1 $325 -20.319999999999894 $203 1.7763568394002505e-015 $197 $326 forward 7 unknown #
edge $-1 $318 -20.319999999999894 $204 1.7763568394002505e-015 $313 $327 forward 7 unknown #
coedge $-1 $201 $118 $309 $328 reversed $202 $-1 #
coedge $-1 $118 $200 $322 $329 forward $202 $-1 #
loop $-1 $-1 $118 $330 #
vertex $-1 $198 $331 #
vertex $-1 $332 $333 #
ellipse-curve $-1 10.159999999999949 0 2.9671137000000236 -1 0 0 0 -2.2225000000000001 2.7216876213702337e-016 1 I I #
face $-1 $334 $219 $26 $-1 $335 forward single #
loop $-1 $-1 $336 $120 #
cone-surface $-1 5.0800000000000445 0 -2.9671137000000254 1 0 0 0 2.2225000000000001 0 1 I I 0 -1 2.2225000000000001 forward I I I I #
coedge $-1 $337 $338 $339 $340 forward $121 $-1 #
coedge $-1 $341 $123 $338 $342 reversed $74 $-1 #
coedge $-1 $123 $341 $124 $215 forward $74 $-1 #
coedge $-1 $126 $339 $123 $213 reversed $219 $-1 #
edge $-1 $221 -3.1415926535897931 $343 0 $123 $344 forward 7 unknown #
coedge $-1 $125 $124 $345 $346 reversed $50 $-1 #
edge $-1 $347 0 $221 5.0799999999998988 $211 $348 forward 7 unknown #
coedge $-1 $349 $336 $125 $217 reversed $207 $-1 #
edge $-1 $350 0 $220 5.0799999999998988 $125 $351 forward 7 unknown #
coedge $-1 $339 $126 $336 $352 reversed $219 $-1 #
loop $-1 $-1 $126 $206 #
vertex $-1 $217 $353 #
vertex $-1 $215 $354 #
straight-curve $-1 10.159999999999943 -2.2225000000000001 0 0 0 1 I I #
fface-rbase-attrib $-1 $-1 $130 $79 #
model_id-kcp-attrib $-1 $355 $-1 $131 1 990564834 70 -1807351807 7 #
face $356 $357 $259 $9 $-1 $358 reversed single #
loop $-1 $-1 $140 $131 #
plane-surface $-1 27.299473040267099 -16.049085619197101 -10.159994924764201 0 1 0 0 0 1 forward_v I I I I #
copar-rbase-attrib $-1 $-1 $-1 $133 #
coedge $359 $360 $133 $361 $362 forward $80 $-1 #
coedge $363 $133 $360 $139 $237 forward $80 $-1 #
coedge $364 $246 $258 $133 $232 reversed $259 $-1 #
edge $365 $366 -2.9671137000000503 $367 2.9671136999999987 $231 $368 forward 7 unknown #
copar-rbase-attrib $-1 $-1 $-1 $135 #
attrib_edge_convexity-kcp-attrib $-1 $369 $-1 $136 1 #
ellipse-curve $-1 39.999473040266999 -13.8265856191971 -7.1928812247641503 1 0 0 0 2.2225000000000001 0 1 I I #
copar-rbase-attrib $-1 $-1 $-1 $139 #
edge $370 $241 -3.1415926535897931 $366 0 $230 $371 forward 7 unknown #
copar-rbase-attrib $-1 $-1 $-1 $140 #
coedge $372 $253 $140 $360 $373 forward $226 $-1 #
attrib_edge_convexity-kcp-attrib $-1 $374 $-1 $141 3 #
vertex $-1 $237 $375 #
straight-curve $-1 27.299473040267099 -16.049085619197101 -7.1928812247641503 1 0 0 I I #
point $-1 39.999473040266999 -16.049085619197101 -7.1928812247641396 #
attrib_edge_convexity-kcp-attrib $-1 $376 $-1 $146 1 #
copar-rbase-attrib $-1 $-1 $-1 $148 #
coedge $377 $157 $231 $148 $247 forward $259 $-1 #
edge $378 $366 -7.6199999999999974 $97 7.620000000000001 $246 $379 reversed 7 unknown #
point $-1 39.999473040266999 -11.6040856191971 -7.1928812247641503 #
copar-rbase-attrib $-1 $-1 $-1 $153 #
coedge $380 $381 $382 $153 $251 forward $383 $-1 #
edge $384 $261 0 $255 3.1415926535897931 $250 $385 forward 7 unknown #
copar-rbase-attrib $-1 $-1 $-1 $154 #
coedge $386 $154 $239 $387 $388 reversed $226 $-1 #
attrib_edge_convexity-kcp-attrib $-1 $389 $-1 $155 1 #
vertex $-1 $390 $391 #
straight-curve $-1 34.9194730402671 -16.049085619197101 -10.159994924764201 0 0 -1 I I #
copar-rbase-attrib $-1 $-1 $-1 $157 #
coedge $392 $231 $157 $393 $394 reversed $259 $-1 #
loop $-1 $-1 $246 $225 #
epar-rbase-attrib $-1 $-1 $-1 $158 #
vertex $-1 $394 $395 #
straight-curve $-1 34.9194730402671 -11.6040856191971 -10.159994924764201 0 0 -1 I I #
model_id-kcp-attrib $-1 $-1 $-1 $162 1 990564834 70 -1807351806 5 #
face $396 $-1 $177 $21 $-1 $397 reversed single #
loop $-1 $-1 $280 $162 #
plane-surface $-1 0 2.2225000000000001 0 0 -1 0 0 0 -1 forward_v I I I I #
coedge $-1 $398 $278 $281 $399 forward $163 $-1 #
coedge $-1 $284 $165 $166 $272 reversed $102 $-1 #
coedge $-1 $278 $398 $165 $270 reversed $163 $-1 #
edge $-1 $285 -5.1896137000000246 $400 5.1896137000000246 $269 $401 forward 7 unknown #
coedge $-1 $167 $166 $398 $402 forward $64 $-1 #
edge $-1 $276 -10.159999999999949 $400 10.159999999999949 $268 $403 forward 7 unknown #
coedge $-1 $281 $280 $167 $274 reversed $265 $-1 #
edge $-1 $404 -10.159999999999949 $275 10.159999999999949 $273 $405 forward 7 unknown #
vertex $-1 $169 $406 #
vertex $-1 $287 $407 #
straight-curve $-1 10.159999999999949 0 -5.1896137000000246 0 -1 0 I I #
coedge $-1 $267 $269 $170 $279 reversed $163 $-1 #
edge $-1 $282 -2.2225000000000001 $285 2.2225000000000001 $278 $408 forward 7 unknown #
coedge $-1 $273 $171 $176 $288 forward $265 $-1 #
coedge $-1 $171 $273 $267 $399 reversed $265 $-1 #
vertex $-1 $172 $409 #
straight-curve $-1 0 2.2225000000000001 5.1896137000000246 -1 0 0 I I #
coedge $-1 $173 $268 $175 $287 reversed $102 $-1 #
vertex $-1 $279 $410 #
straight-curve $-1 0 -2.2225000000000001 5.1896137000000246 1 0 0 I I #
edge $-1 $178 -5.1896137000000246 $276 5.1896137000000246 $175 $411 forward 7 unknown #
edge $-1 $179 -5.1896137000000246 $275 5.1896137000000246 $176 $412 forward 7 unknown #
point $-1 10.159999999999949 -2.2225000000000001 5.1896137000000246 #
point $-1 10.159999999999949 2.2225000000000001 5.1896137000000246 #
face $-1 $413 $414 $33 $-1 $190 reversed single #
loop $-1 $-1 $415 $181 #
coedge $-1 $416 $417 $418 $419 forward $182 $-1 #
coedge $-1 $420 $184 $417 $421 forward $110 $-1 #
coedge $-1 $184 $420 $422 $423 forward $110 $-1 #
coedge $-1 $424 $418 $425 $187 forward $426 $-1 #
coedge $-1 $186 $185 $427 $428 forward $68 $-1 #
coedge $-1 $429 $430 $185 $299 reversed $431 $-1 #
edge $-1 $303 0 $432 2.2225000000000001 $298 $433 forward 7 unknown #
coedge $-1 $434 $415 $186 $301 reversed $292 $-1 #
edge $-1 $435 -2.2225000000000001 $302 0 $300 $436 forward 7 unknown #
vertex $-1 $421 $437 #
vertex $-1 $299 $438 #
straight-curve $-1 10.159999999999947 0 -5.1896137000000246 1 0 0 I I #
face $-1 $439 $440 $24 $-1 $114 forward single #
loop $-1 $-1 $320 $188 #
coedge $-1 $441 $442 $310 $443 forward $189 $-1 #
coedge $-1 $444 $191 $445 $446 forward $113 $-1 #
coedge $-1 $191 $444 $200 $328 forward $113 $-1 #
coedge $-1 $193 $192 $307 $443 reversed $71 $-1 #
coedge $-1 $447 $448 $192 $312 reversed $449 $-1 #
edge $-1 $317 -20.319999999999894 $450 1.7763568394002505e-015 $311 $451 forward 7 unknown #
coedge $-1 $452 $453 $191 $199 forward $440 $-1 #
coedge $-1 $315 $194 $453 $454 reversed $316 $-1 #
coedge $-1 $194 $314 $447 $455 forward $316 $-1 #
loop $-1 $-1 $194 $456 #
vertex $-1 $312 $457 #
vertex $-1 $446 $458 #
ellipse-curve $-1 -10.159999999999947 0 2.9671137000000236 1 0 0 0 -2.2225000000000001 2.7216876213702337e-016 1 I I #
coedge $-1 $459 $445 $196 $321 forward $306 $-1 #
edge $-1 $318 -1.5707963267948966 $325 1.2246063538223773e-016 $320 $319 forward 7 unknown #
coedge $-1 $460 $197 $201 $329 reversed $324 $-1 #
coedge $-1 $197 $460 $459 $461 forward $324 $-1 #
loop $-1 $-1 $197 $439 #
vertex $-1 $321 $462 #
straight-curve $-1 10.159999999999947 -2.2225000000000001 2.9671137000000236 1 0 0 I I #
straight-curve $-1 10.159999999999947 0 5.1896137000000246 1 0 0 I I #
edge $-1 $463 -2.2225000000000001 $204 0 $200 $464 forward 7 unknown #
edge $-1 $463 -5.1896137000000246 $203 -2.9671137000000236 $201 $465 forward 7 unknown #
face $-1 $-1 $202 $24 $-1 $190 reversed single #
point $-1 10.159999999999949 -2.2225000000000001 2.9671137000000236 #
edge $-1 $204 0 $466 2.2225000000000001 $442 $464 forward 7 unknown #
point $-1 10.159999999999949 0 5.1896137000000246 #
face $-1 $-1 $467 $26 $-1 $468 reversed single #
plane-surface $-1 10.159999999999943 0 -7.5900754274332349e-016 1 -1.0646960314046398e-031 -6.6405753172678945e-032 -6.6405753172678945e-032 0 -1 forward_v I I I I #
coedge $-1 $216 $469 $218 $352 forward $207 $-1 #
coedge $-1 $470 $209 $469 $471 reversed $121 $-1 #
coedge $-1 $209 $470 $210 $342 forward $121 $-1 #
coedge $-1 $212 $218 $209 $340 reversed $219 $-1 #
edge $-1 $343 -2.9671137000000236 $472 2.9671137000000254 $209 $473 forward 7 unknown #
coedge $-1 $211 $210 $474 $475 reversed $74 $-1 #
edge $-1 $476 0 $343 5.0799999999998988 $338 $477 forward 7 unknown #
vertex $-1 $342 $478 #
ellipse-curve $-1 10.159999999999943 0 2.9671137000000236 1 0 0 0 2.2225000000000001 0 1 I I #
coedge $-1 $474 $479 $214 $346 forward $467 $-1 #
edge $480 $350 -2.9671137000000254 $347 2.9671137000000236 $214 $481 forward 7 unknown #
vertex $-1 $346 $482 #
straight-curve $-1 5.0800000000000445 -2.2225000000000001 2.9671137000000236 1 0 0 I I #
coedge $-1 $469 $216 $479 $483 reversed $207 $-1 #
vertex $-1 $483 $484 #
straight-curve $-1 5.0800000000000445 -2.2225000000000001 -2.9671137000000254 1 0 0 I I #
edge $-1 $472 0 $220 3.1415926535897931 $336 $485 forward 7 unknown #
point $-1 10.159999999999943 -2.2225000000000001 -2.9671137000000254 #
point $-1 10.159999999999943 -2.2225000000000001 2.9671137000000236 #
fface-rbase-attrib $-1 $-1 $224 $131 #
model_id-kcp-attrib $-1 $486 $-1 $225 1 990564834 70 -1807351807 8 #
face $487 $488 $383 $9 $-1 $489 forward single #
plane-surface $-1 27.299473040267099 -11.6040856191971 -10.159994924764201 0 -1 0 0 0 -1 forward_v I I I I #
copar-rbase-attrib $-1 $-1 $-1 $229 #
coedge $490 $230 $229 $239 $373 reversed $80 $-1 #
coedge $491 $393 $387 $229 $362 reversed $492 $-1 #
edge $493 $367 0 $494 3.141592653589838 $229 $495 forward 7 unknown #
copar-rbase-attrib $-1 $-1 $-1 $230 #
copar-rbase-attrib $-1 $-1 $-1 $231 #
model_id-kcp-attrib $-1 $496 $-1 $232 1 990564834 70 -1807351807 13 #
vertex $-1 $247 $497 #
vertex $-1 $362 $498 #
straight-curve $-1 19.679473040267101 -11.6040856191971 -10.159994924764201 0 0 -1 I I #
convexity-sys-attrib $-1 $499 $234 $136 #
epar-rbase-attrib $-1 $-1 $-1 $237 #
ellipse-curve $-1 19.679473040267101 -13.8265856191971 -7.1928812247641503 -1 0 0 0 2.2225000000000001 0 1 I I #
copar-rbase-attrib $-1 $-1 $-1 $239 #
edge $500 $241 -2.9671137000000503 $494 2.9671136999998993 $360 $501 forward 7 unknown #
convexity-sys-attrib $-1 $502 $240 $141 #
point $-1 19.679473040267101 -16.049085619197101 -7.1928812247641503 #
convexity-sys-attrib $-1 $503 $244 $146 #
copar-rbase-attrib $-1 $-1 $-1 $246 #
epar-rbase-attrib $-1 $-1 $-1 $247 #
straight-curve $-1 27.299473040267099 -11.6040856191971 -7.1928812247641503 -1 0 0 I I #
copar-rbase-attrib $-1 $-1 $-1 $250 #
coedge $504 $505 $250 $506 $390 reversed $383 $-1 #
coedge $507 $250 $505 $508 $509 reversed $383 $-1 #
loop $-1 $-1 $250 $357 #
epar-rbase-attrib $-1 $-1 $-1 $251 #
ellipse-curve $-1 34.9194730402671 -13.8265856191971 -13.127108624764199 1 0 0 0 2.2225000000000001 0 1 I I #
copar-rbase-attrib $-1 $-1 $-1 $253 #
coedge $510 $361 $506 $253 $388 forward $492 $-1 #
edge $511 $255 -5.0799999999999983 $494 10.16 $387 $512 forward 7 unknown #
convexity-sys-attrib $-1 $513 $254 $155 #
edge $514 $515 -10.159999999999897 $255 -5.0799999999999983 $506 $512 forward 7 unknown #
point $-1 34.9194730402671 -16.049085619197101 -13.127108624764199 #
copar-rbase-attrib $-1 $-1 $-1 $258 #
coedge $516 $508 $361 $258 $394 forward $492 $-1 #
edge $517 $367 -10.16 $261 5.0799999999999983 $393 $518 forward 7 unknown #
point $-1 34.9194730402671 -11.6040856191971 -13.127108624764199 #
model_id-kcp-attrib $-1 $519 $-1 $264 1 990564834 70 -1807351806 6 #
plane-surface $-1 10.159999999999949 0 0 -1 0 0 0 0 1 forward_v I I I I #
coedge $-1 $269 $267 $271 $402 reversed $163 $-1 #
edge $-1 $282 -5.1896137000000246 $404 5.1896137000000246 $281 $520 forward 7 unknown #
vertex $-1 $402 $521 #
straight-curve $-1 -10.159999999999949 -2.2225000000000001 0 0 0 -1 I I #
edge $-1 $400 -2.2225000000000001 $404 2.2225000000000001 $398 $522 forward 7 unknown #
straight-curve $-1 0 -2.2225000000000001 -5.1896137000000246 -1 0 0 I I #
vertex $-1 $274 $523 #
straight-curve $-1 0 2.2225000000000001 -5.1896137000000246 1 0 0 I I #
point $-1 10.159999999999949 2.2225000000000001 -5.1896137000000246 #
point $-1 10.159999999999949 -2.2225000000000001 -5.1896137000000246 #
straight-curve $-1 -10.159999999999949 0 5.1896137000000246 0 -1 0 I I #
point $-1 -10.159999999999949 2.2225000000000001 5.1896137000000246 #
point $-1 -10.159999999999949 -2.2225000000000001 5.1896137000000246 #
straight-curve $-1 10.159999999999949 -2.2225000000000001 0 0 0 -1 I I #
straight-curve $-1 10.159999999999949 2.2225000000000001 0 0 0 -1 I I #
face $-1 $524 $431 $33 $-1 $190 reversed single #
loop $-1 $-1 $525 $291 #
coedge $-1 $300 $434 $526 $527 forward $292 $-1 #
coedge $-1 $417 $293 $528 $529 forward $182 $-1 #
coedge $-1 $293 $416 $294 $421 reversed $182 $-1 #
coedge $-1 $296 $530 $293 $419 reversed $426 $-1 #
edge $-1 $302 -1.5707963267948966 $531 0 $293 $532 forward 7 unknown #
coedge $-1 $295 $294 $533 $534 forward $110 $-1 #
edge $-1 $302 0 $535 2.2225000000000001 $417 $436 forward 7 unknown #
coedge $-1 $536 $525 $295 $423 reversed $414 $-1 #
edge $-1 $537 -2.2225000000000001 $303 0 $422 $433 forward 7 unknown #
coedge $-1 $530 $296 $525 $538 reversed $426 $-1 #
coedge $-1 $526 $539 $111 $187 reversed $540 $-1 #
loop $-1 $-1 $418 $541 #
coedge $-1 $542 $543 $297 $428 reversed $544 $-1 #
edge $-1 $432 -10.159999999999949 $435 10.159999999999949 $427 $545 forward 7 unknown #
coedge $-1 $430 $298 $539 $546 forward $431 $-1 #
coedge $-1 $298 $429 $542 $547 forward $431 $-1 #
loop $-1 $-1 $429 $413 #
vertex $-1 $547 $548 #
straight-curve $-1 10.159999999999949 0 -5.1896137000000246 0 -1 0 I I #
coedge $-1 $415 $300 $543 $549 reversed $292 $-1 #
vertex $-1 $301 $550 #
straight-curve $-1 -10.159999999999949 0 -5.1896137000000246 0 1 0 I I #
point $-1 -10.159999999999947 0 -5.1896137000000246 #
point $-1 10.159999999999949 0 -5.1896137000000246 #
face $-1 $456 $324 $24 $-1 $551 reversed single #
loop $-1 $-1 $313 $305 #
coedge $-1 $442 $307 $448 $552 reversed $189 $-1 #
coedge $-1 $307 $441 $452 $332 reversed $189 $-1 #
edge $-1 $204 1.5707963267948966 $450 3.1415926535897931 $307 $205 forward 7 unknown #
coedge $-1 $309 $308 $460 $553 forward $113 $-1 #
coedge $-1 $320 $459 $308 $446 reversed $306 $-1 #
edge $-1 $318 0 $554 2.2225000000000001 $445 $555 forward 7 unknown #
coedge $-1 $556 $311 $315 $455 reversed $449 $-1 #
coedge $-1 $311 $556 $441 $552 forward $449 $-1 #
loop $-1 $-1 $311 $557 #
vertex $-1 $443 $558 #
straight-curve $-1 10.159999999999947 2.2225000000000001 2.9671137000000236 1 0 0 I I #
coedge $-1 $559 $313 $442 $332 forward $440 $-1 #
coedge $-1 $313 $559 $314 $454 forward $440 $-1 #
edge $-1 $560 -2.2225000000000001 $318 0 $314 $555 forward 7 unknown #
edge $-1 $560 -5.1896137000000246 $317 -2.9671137000000236 $447 $561 forward 7 unknown #
face $-1 $557 $316 $24 $-1 $183 reversed single #
point $-1 -10.159999999999947 2.2225000000000001 2.9671137000000236 #
point $-1 -10.159999999999947 0 5.1896137000000246 #
coedge $-1 $445 $320 $323 $461 reversed $306 $-1 #
coedge $-1 $323 $322 $444 $553 reversed $324 $-1 #
edge $-1 $554 -5.1896137000000246 $325 -2.9671137000000236 $459 $562 forward 7 unknown #
point $-1 -10.159999999999947 -2.2225000000000001 2.9671137000000236 #
vertex $-1 $328 $563 #
straight-curve $-1 10.159999999999949 0 5.1896137000000246 0 1 0 I I #
straight-curve $-1 10.159999999999949 -2.2225000000000001 0 0 0 -1 I I #
vertex $-1 $332 $564 #
loop $-1 $-1 $479 $334 #
plane-surface $-1 5.0800000000000445 0 -7.5900754274332349e-016 1 -1.0646960314046398e-031 -6.6405753172678945e-032 -6.6405753172678945e-032 0 -1 forward_v I I I I #
coedge $-1 $336 $349 $337 $471 forward $207 $-1 #
coedge $-1 $338 $337 $565 $566 reversed $121 $-1 #
edge $-1 $567 0 $472 5.0799999999998988 $469 $568 forward 7 unknown #
vertex $-1 $471 $569 #
straight-curve $-1 10.159999999999943 2.2225000000000001 0 0 0 -1 I I #
coedge $-1 $565 $345 $341 $475 forward $467 $-1 #
edge $570 $347 -3.1415926535897931 $476 0 $341 $571 forward 7 unknown #
vertex $-1 $475 $572 #
straight-curve $-1 5.0800000000000445 2.2225000000000001 2.9671137000000236 1 0 0 I I #
point $-1 10.159999999999943 2.2225000000000001 2.9671137000000236 #
coedge $-1 $345 $565 $349 $483 forward $467 $-1 #
convexity-sys-attrib $-1 $-1 $-1 $346 #
straight-curve $-1 5.0800000000000445 -2.2225000000000001 0 0 0 1 I I #
point $-1 5.0800000000000445 -2.2225000000000001 2.9671137000000236 #
edge $573 $567 0 $350 3.1415926535897931 $349 $574 forward 7 unknown #
point $-1 5.0800000000000445 -2.2225000000000001 -2.9671137000000254 #
ellipse-curve $-1 10.159999999999943 0 -2.9671137000000254 1 0 0 0 2.2225000000000001 0 1 I I #
fface-rbase-attrib $-1 $-1 $356 $225 #
model_id-kcp-attrib $-1 $575 $-1 $357 1 990564834 70 -1807351807 9 #
face $576 $577 $492 $9 $-1 $489 forward single #
cone-surface $-1 29.839473040267102 -13.8265856191971 -13.127108624764199 1 0 0 0 2.2225000000000001 0 1 I I 0 1 2.2225000000000001 forward I I I I #
copar-rbase-attrib $-1 $-1 $-1 $360 #
copar-rbase-attrib $-1 $-1 $-1 $361 #
loop $-1 $-1 $506 $488 #
epar-rbase-attrib $-1 $-1 $-1 $362 #
vertex $-1 $362 $578 #
ellipse-curve $-1 19.679473040267101 -13.8265856191971 -13.127108624764199 -1 0 0 0 2.2225000000000001 0 1 I I #
epar-rbase-attrib $-1 $-1 $365 $232 #
point $-1 19.679473040267101 -11.6040856191971 -7.1928812247641503 #
point $-1 19.679473040267101 -11.6040856191971 -13.127108624764199 #
epar-rbase-attrib $-1 $-1 $369 $136 #
model_id-kcp-attrib $-1 $579 $-1 $373 1 990564834 70 -1807351807 14 #
straight-curve $-1 19.679473040267101 -16.049085619197101 -10.159994924764201 0 0 -1 I I #
epar-rbase-attrib $-1 $-1 $374 $141 #
epar-rbase-attrib $-1 $-1 $376 $146 #
copar-rbase-attrib $-1 $-1 $-1 $381 #
coedge $580 $382 $381 $581 $582 reversed $383 $-1 #
coedge $583 $387 $584 $381 $390 forward $492 $-1 #
copar-rbase-attrib $-1 $-1 $-1 $382 #
coedge $585 $584 $393 $382 $509 forward $492 $-1 #
edge $586 $261 5.0799999999999983 $587 10.159999999999897 $508 $518 forward 7 unknown #
copar-rbase-attrib $-1 $-1 $-1 $387 #
attrib_edge_convexity-kcp-attrib $-1 $588 $-1 $388 3 #
straight-curve $-1 29.839473040267102 -16.049085619197101 -13.1271086247641 -1 0 0 I I #
epar-rbase-attrib $-1 $-1 $389 $155 #
epar-rbase-attrib $-1 $-1 $-1 $390 #
vertex $-1 $582 $589 #
copar-rbase-attrib $-1 $-1 $-1 $393 #
epar-rbase-attrib $-1 $-1 $-1 $394 #
straight-curve $-1 29.839473040267102 -11.6040856191971 -13.127108624764199 1 0 0 I I #
model_id-kcp-attrib $-1 $-1 $396 $264 1 990564834 70 -1807351806 2 #
straight-curve $-1 -10.159999999999949 2.2225000000000001 0 0 0 -1 I I #
point $-1 -10.159999999999949 -2.2225000000000001 -5.1896137000000246 #
straight-curve $-1 -10.159999999999949 0 -5.1896137000000246 0 1 0 I I #
point $-1 -10.159999999999949 2.2225000000000001 -5.1896137000000246 #
face $-1 $590 $544 $33 $-1 $551 reversed single #
coedge $-1 $422 $536 $424 $538 forward $414 $-1 #
coedge $-1 $591 $425 $415 $527 reversed $540 $-1 #
edge $-1 $592 -3.141592653589838 $302 -1.5707963267948966 $415 $532 forward 7 unknown #
coedge $-1 $593 $533 $416 $529 reversed $594 $-1 #
edge $-1 $531 2.9671137000000254 $535 5.1896137000000246 $528 $561 forward 7 unknown #
coedge $-1 $418 $424 $593 $595 reversed $426 $-1 #
vertex $-1 $529 $596 #
ellipse-curve $-1 -10.159999999999947 0 -2.9671137000000254 1 0 0 0 2.2225000000000001 0 1 I I #
coedge $-1 $528 $597 $420 $534 reversed $594 $-1 #
edge $-1 $535 -10.159999999999949 $537 10.159999999999949 $533 $598 forward 7 unknown #
vertex $-1 $534 $599 #
coedge $-1 $525 $422 $597 $600 reversed $414 $-1 #
vertex $-1 $423 $601 #
edge $-1 $602 0 $303 1.5707963267948966 $525 $603 forward 7 unknown #
coedge $-1 $425 $591 $429 $546 reversed $540 $-1 #
loop $-1 $-1 $539 $604 #
face $-1 $604 $426 $33 $-1 $605 reversed single #
coedge $-1 $606 $427 $430 $547 reversed $544 $-1 #
coedge $-1 $427 $606 $434 $549 forward $544 $-1 #
loop $-1 $-1 $606 $524 #
straight-curve $-1 0 -2.2225000000000001 -5.1896137000000246 -1 0 0 I I #
edge $-1 $303 1.5707963267948966 $607 3.141592653589838 $429 $603 forward 7 unknown #
edge $-1 $607 2.9671136999999259 $432 5.1896137000000246 $430 $465 forward 7 unknown #
point $-1 10.159999999999949 -2.2225000000000001 -5.1896137000000246 #
edge $-1 $592 2.9671136999999259 $435 5.1896137000000246 $434 $562 forward 7 unknown #
point $-1 -10.159999999999949 -2.2225000000000001 -5.1896137000000246 #
plane-surface $-1 0 -2.2225000000000001 0 0 1 0 0 0 1 forward_v I I I I #
edge $-1 $466 -5.1896137000000246 $450 -2.9671137000000236 $441 $608 forward 7 unknown #
edge $-1 $554 -10.159999999999949 $463 10.159999999999949 $460 $609 forward 7 unknown #
vertex $-1 $446 $610 #
straight-curve $-1 -10.159999999999949 0 5.1896137000000246 0 -1 0 I I #
coedge $-1 $448 $447 $559 $611 reversed $449 $-1 #
face $-1 $330 $449 $24 $-1 $612 reversed single #
point $-1 10.159999999999949 2.2225000000000001 2.9671137000000236 #
coedge $-1 $453 $452 $556 $611 forward $440 $-1 #
vertex $-1 $611 $613 #
straight-curve $-1 -10.159999999999949 2.2225000000000001 0 0 0 -1 I I #
straight-curve $-1 -10.159999999999949 -2.2225000000000001 0 0 0 -1 I I #
point $-1 10.159999999999949 -2.2225000000000001 5.1896137000000246 #
point $-1 10.159999999999949 2.2225000000000001 5.1896137000000246 #
coedge $-1 $479 $474 $470 $566 forward $467 $-1 #
edge $614 $476 -2.9671137000000236 $567 2.9671137000000254 $470 $615 forward 7 unknown #
vertex $-1 $483 $616 #
straight-curve $-1 5.0800000000000445 2.2225000000000001 -2.9671137000000254 1 0 0 I I #
point $-1 10.159999999999943 2.2225000000000001 -2.9671137000000254 #
convexity-sys-attrib $-1 $-1 $-1 $475 #
ellipse-curve $-1 5.0800000000000445 0 2.9671137000000236 1 0 0 0 2.2225000000000001 0 1 I I #
point $-1 5.0800000000000445 2.2225000000000001 2.9671137000000236 #
convexity-sys-attrib $-1 $-1 $-1 $483 #
ellipse-curve $-1 5.0800000000000445 0 -2.9671137000000254 1 0 0 0 2.2225000000000001 0 1 I I #
fface-rbase-attrib $-1 $-1 $487 $357 #
model_id-kcp-attrib $-1 $617 $-1 $488 1 990564834 70 -1807351807 10 #
face $618 $-1 $619 $9 $-1 $620 forward single #
point $-1 19.679473040267101 -16.049085619197101 -13.1271086247641 #
attrib_edge_convexity-kcp-attrib $-1 $621 $500 $373 1 #
copar-rbase-attrib $-1 $-1 $-1 $505 #
coedge $622 $623 $623 $505 $582 forward $619 $-1 #
edge $624 $587 0 $515 3.1415926535897483 $581 $625 forward 7 unknown #
copar-rbase-attrib $-1 $-1 $-1 $506 #
coedge $626 $506 $508 $623 $627 reversed $492 $-1 #
copar-rbase-attrib $-1 $-1 $-1 $508 #
epar-rbase-attrib $-1 $-1 $-1 $509 #
vertex $-1 $627 $628 #
convexity-sys-attrib $-1 $629 $511 $388 #
point $-1 39.999473040266999 -16.049085619197101 -13.1271086247641 #
face $-1 $541 $594 $33 $-1 $612 reversed single #
coedge $-1 $539 $526 $606 $630 forward $540 $-1 #
vertex $-1 $549 $631 #
coedge $-1 $597 $528 $530 $595 forward $594 $-1 #
loop $-1 $-1 $593 $590 #
edge $-1 $531 -20.319999999999894 $602 1.7763568394002505e-015 $593 $632 forward 7 unknown #
point $-1 -10.159999999999947 2.2225000000000001 -2.9671137000000254 #
coedge $-1 $533 $593 $536 $600 forward $594 $-1 #
straight-curve $-1 0 2.2225000000000001 -5.1896137000000246 1 0 0 I I #
point $-1 -10.159999999999949 2.2225000000000001 -5.1896137000000246 #
edge $-1 $602 2.9671137000000254 $537 5.1896137000000246 $536 $608 forward 7 unknown #
point $-1 10.159999999999949 2.2225000000000001 -5.1896137000000246 #
vertex $-1 $600 $633 #
ellipse-curve $-1 10.159999999999949 0 -2.9671137000000254 -1 0 0 0 2.2225000000000001 0 1 I I #
face $-1 $-1 $540 $33 $-1 $605 reversed single #
cone-surface $-1 10.159999999999947 0 -2.9671137000000254 1 0 0 0 2.2225000000000001 0 1 I I 0 1 2.2225000000000001 forward I I I I #
coedge $-1 $543 $542 $591 $630 reversed $544 $-1 #
vertex $-1 $547 $634 #
straight-curve $-1 10.159999999999949 2.2225000000000001 0 0 0 -1 I I #
straight-curve $-1 0 -2.2225000000000001 5.1896137000000246 1 0 0 I I #
point $-1 -10.159999999999949 -2.2225000000000001 5.1896137000000246 #
edge $-1 $466 -10.159999999999949 $560 10.159999999999949 $556 $635 forward 7 unknown #
plane-surface $-1 0 2.2225000000000001 0 0 -1 0 0 0 -1 forward_v I I I I #
point $-1 -10.159999999999949 2.2225000000000001 5.1896137000000246 #
convexity-sys-attrib $-1 $-1 $-1 $566 #
straight-curve $-1 5.0800000000000445 2.2225000000000001 0 0 0 -1 I I #
point $-1 5.0800000000000445 2.2225000000000001 -2.9671137000000254 #
fface-rbase-attrib $-1 $-1 $576 $488 #
model_id-kcp-attrib $-1 $636 $-1 $577 1 990564834 70 -1807351807 11 #
loop $-1 $-1 $581 $577 #
plane-surface $-1 39.999473040266999 -13.8265856191971 -13.127108624764199 1 0 0 0 1 0 forward_v I I I I #
convexity-sys-attrib $-1 $637 $579 $373 #
copar-rbase-attrib $-1 $-1 $-1 $581 #
coedge $638 $581 $581 $584 $627 forward $619 $-1 #
epar-rbase-attrib $-1 $-1 $-1 $582 #
ellipse-curve $-1 39.999473040266999 -13.8265856191971 -13.127108624764199 1 0 0 0 2.2225000000000001 0 1 I I #
copar-rbase-attrib $-1 $-1 $-1 $584 #
edge $639 $515 -3.141592653589838 $587 0 $623 $625 forward 7 unknown #
point $-1 39.999473040266999 -11.6040856191971 -13.127108624764199 #
epar-rbase-attrib $-1 $-1 $588 $388 #
edge $-1 $592 -20.319999999999894 $607 1.7763568394002505e-015 $606 $640 forward 7 unknown #
point $-1 -10.159999999999947 -2.2225000000000001 -2.9671136999999259 #
straight-curve $-1 10.159999999999947 2.2225000000000001 -2.9671137000000254 1 0 0 I I #
point $-1 10.159999999999949 2.2225000000000001 -2.9671137000000254 #
point $-1 10.159999999999949 -2.2225000000000001 -2.9671136999999259 #
straight-curve $-1 0 2.2225000000000001 5.1896137000000246 -1 0 0 I I #
fface-rbase-attrib $-1 $-1 $618 $577 #
epar-rbase-attrib $-1 $-1 $621 $373 #
copar-rbase-attrib $-1 $-1 $-1 $623 #
epar-rbase-attrib $-1 $-1 $-1 $627 #
straight-curve $-1 10.159999999999947 -2.2225000000000001 -2.9671137000000254 1 0 0 I I #
End-of-ACIS-data 