600 0 2 0           
24 FBMach with ACIS - 6.0.3 13 ACIS 6.0.3 NT 24 Tue May 22 16:54:01 2001 
1 9.9999999999999995e-007 1e-010 
body $2 $3 $-1 $4 #
bdycol-kcp $-1 1 4 $5 $6 $7 $8 #
model_id-kcp-attrib $-1 $-1 $-1 $0 1 990564841 80 2001731585 1 #
lump $-1 $-1 $9 $0 #
transform $-1 1 0 0 0 1 0 0 0 1 0 0 40 1 rotate no_reflect no_shear #
body $10 $11 $-1 $12 #
body $13 $14 $-1 $15 #
body $16 $17 $-1 $18 #
body $19 $20 $-1 $21 #
shell $-1 $-1 $-1 $22 $-1 $3 #
model_id-kcp-attrib $-1 $-1 $-1 $5 1 990564841 80 2001731586 1 #
lump $-1 $-1 $23 $5 #
transform $-1 1 0 0 0 1 0 0 0 1 0 0 40 1 no_rotate no_reflect no_shear #
rgb_color-st-attrib $-1 $24 $-1 $6 0.5 1 1 #
lump $-1 $-1 $25 $6 #
transform $-1 1 0 0 0 1 0 0 0 1 0 0 35 1 no_rotate no_reflect no_shear #
rgb_color-st-attrib $-1 $26 $-1 $7 0.5 1 1 #
lump $-1 $-1 $27 $7 #
transform $-1 1 0 0 0 1 0 0 0 1 0 0 40 1 no_rotate no_reflect no_shear #
rgb_color-st-attrib $-1 $28 $-1 $8 1 0.5 1 #
lump $-1 $-1 $29 $8 #
transform $-1 1 0 0 0 1 0 0 0 1 0 0 40 1 no_rotate no_reflect no_shear #
face $30 $31 $32 $9 $-1 $33 reversed single #
shell $-1 $-1 $-1 $34 $-1 $11 #
model_id-kcp-attrib $-1 $-1 $13 $6 1 990564841 100 2003042307 1 #
shell $-1 $-1 $-1 $35 $-1 $14 #
model_id-kcp-attrib $-1 $-1 $16 $7 1 990564841 130 2005008388 1 #
shell $-1 $-1 $-1 $36 $-1 $17 #
model_id-kcp-attrib $-1 $-1 $19 $8 1 990564841 220 2010906629 1 #
shell $-1 $-1 $-1 $37 $-1 $20 #
model_id-kcp-attrib $-1 $-1 $-1 $22 1 990564841 80 2001731585 2 #
face $38 $39 $40 $9 $-1 $41 reversed single #
loop $-1 $42 $43 $22 #
cone-surface $-1 0 0 -40 0 0 1 15 0 0 1 I I 0 1 15 forward I I I I #
face $44 $45 $46 $23 $-1 $47 forward single #
face $-1 $48 $49 $25 $-1 $50 forward single #
face $-1 $51 $52 $27 $-1 $53 reversed single #
face $-1 $54 $55 $29 $-1 $56 forward single #
model_id-kcp-attrib $-1 $-1 $-1 $31 1 990564841 80 2001731585 3 #
face $57 $58 $59 $9 $-1 $60 forward single #
loop $-1 $-1 $61 $31 #
plane-surface $-1 0 0 30 0 0 1 1 0 0 forward_v I I I I #
loop $-1 $-1 $62 $22 #
coedge $-1 $43 $43 $63 $64 reversed $32 $-1 #
model_id-kcp-attrib $-1 $-1 $-1 $34 1 990564841 80 2001731586 3 #
face $65 $66 $67 $23 $-1 $68 reversed single #
loop $-1 $-1 $69 $34 #
plane-surface $-1 0 0 40 0 0 1 1 0 0 forward_v I I I I #
face $-1 $70 $71 $25 $-1 $72 forward single #
loop $-1 $73 $74 $35 #
cone-surface $-1 0 0 0 0 0 1 15 0 0 1 I I 0 1 15 forward I I I I #
face $-1 $75 $76 $27 $-1 $53 reversed single #
loop $-1 $-1 $77 $36 #
cone-surface $-1 -2.2494910827332062e-031 0 -40 0 0 -1 60 0 0 1 I I 0 1 60 forward I I I I #
face $-1 $78 $79 $29 $-1 $80 forward single #
loop $-1 $81 $82 $37 #
cone-surface $-1 0 0 -20 0 0 1 20 0 0 1 I I 0 -1 20 forward I I I I #
model_id-kcp-attrib $-1 $-1 $-1 $39 1 990564841 80 2001731585 4 #
face $83 $84 $85 $9 $-1 $86 forward single #
loop $-1 $87 $88 $39 #
plane-surface $-1 0 0 -20 0 0 1 1 0 0 forward_v I I I I #
coedge $-1 $61 $61 $62 $89 reversed $40 $-1 #
coedge $-1 $62 $62 $61 $89 forward $42 $-1 #
coedge $-1 $63 $63 $43 $64 forward $90 $-1 #
edge $91 $92 -3.1415926535897998 $92 3.1415926535897865 $63 $93 forward 7 unknown #
model_id-kcp-attrib $-1 $-1 $-1 $45 1 990564841 80 2001731586 2 #
face $-1 $94 $95 $23 $-1 $96 reversed single #
loop $-1 $-1 $97 $45 #
plane-surface $-1 0 0 -40 0 0 1 1 0 0 forward_v I I I I #
coedge $-1 $98 $99 $100 $101 forward $46 $-1 #
face $-1 $-1 $102 $25 $-1 $103 forward single #
loop $-1 $-1 $104 $48 #
plane-surface $-1 0 0 -35 0 0 -1 -1 0 0 forward_v I I I I #
loop $-1 $-1 $105 $35 #
coedge $-1 $74 $74 $104 $106 reversed $49 $-1 #
face $-1 $107 $108 $27 $-1 $53 reversed single #
loop $-1 $-1 $109 $51 #
coedge $-1 $110 $111 $112 $113 forward $52 $-1 #
face $-1 $114 $115 $29 $-1 $116 forward single #
loop $-1 $117 $118 $54 #
cone-surface $-1 -2.2494910827332062e-031 0 -20 0 0 1 60 0 0 1 I I 0 1 60 forward I I I I #
loop $-1 $-1 $119 $37 #
coedge $-1 $82 $82 $120 $121 forward $55 $-1 #
model_id-kcp-attrib $-1 $-1 $-1 $58 1 990564841 80 2001731585 5 #
face $122 $123 $124 $9 $-1 $125 forward single #
loop $-1 $126 $127 $58 #
cone-surface $-1 0 0 -30 0 0 1 60 0 0 1 I I 0 1 60 forward I I I I #
loop $-1 $-1 $128 $39 #
coedge $-1 $88 $88 $129 $130 forward $59 $-1 #
edge $131 $132 0 $132 6.2831853071795862 $61 $133 forward 7 unknown #
loop $-1 $134 $63 $123 #
attrib_edge_convexity-kcp-attrib $-1 $135 $-1 $64 1 #
vertex $-1 $64 $136 #
ellipse-curve $-1 0 0 -40 0 0 1 15 0 0 1 I I #
face $-1 $137 $138 $23 $-1 $139 reversed single #
loop $-1 $-1 $140 $66 #
plane-surface $-1 0 -60 0 0 1 0 0 0 1 forward_v I I I I #
coedge $-1 $141 $142 $143 $144 forward $67 $-1 #
coedge $-1 $145 $69 $146 $147 forward $46 $-1 #
coedge $-1 $69 $145 $148 $149 forward $46 $-1 #
coedge $-1 $150 $151 $69 $101 reversed $152 $-1 #
edge $-1 $153 -60 $154 60 $100 $155 forward 7 unknown #
loop $-1 $-1 $156 $70 #
plane-surface $-1 0 0 35 0 0 1 1 0 0 forward_v I I I I #
coedge $-1 $104 $104 $74 $106 forward $71 $-1 #
coedge $-1 $105 $105 $156 $157 reversed $73 $-1 #
edge $-1 $158 0 $158 6.2831853071795862 $104 $159 forward 7 unknown #
face $-1 $160 $161 $27 $-1 $53 reversed single #
loop $-1 $-1 $162 $75 #
coedge $-1 $163 $112 $164 $165 reversed $76 $-1 #
coedge $-1 $166 $77 $167 $168 reversed $52 $-1 #
coedge $-1 $77 $166 $169 $170 reversed $52 $-1 #
coedge $-1 $109 $171 $172 $113 reversed $76 $-1 #
edge $-1 $173 -80 $174 0 $172 $175 forward 7 unknown #
face $-1 $-1 $176 $29 $-1 $177 reversed single #
loop $-1 $178 $179 $78 #
plane-surface $-1 -4.5454545454545405 1.9769933796103863e-015 40 0 0 1 1 0 0 forward_v I I I I #
loop $-1 $-1 $180 $54 #
coedge $-1 $118 $118 $179 $181 forward $79 $-1 #
coedge $-1 $119 $119 $182 $183 reversed $81 $-1 #
coedge $-1 $120 $120 $82 $121 reversed $178 $-1 #
edge $-1 $184 -3.1415926535897998 $184 3.1415926535897865 $82 $185 forward 7 unknown #
model_id-kcp-attrib $-1 $-1 $-1 $84 1 990564841 80 2001731585 6 #
face $186 $187 $90 $9 $-1 $188 forward single #
loop $-1 $189 $190 $84 #
cone-surface $-1 0 0 0 0 0 1 20 0 0 1 I I 0 1 20 forward I I I I #
loop $-1 $-1 $129 $58 #
coedge $-1 $127 $127 $191 $192 reversed $85 $-1 #
coedge $-1 $128 $128 $190 $193 reversed $87 $-1 #
coedge $-1 $129 $129 $88 $130 reversed $126 $-1 #
edge $-1 $194 0 $194 6.2831853071795862 $88 $195 forward 7 unknown #
attrib_edge_convexity-kcp-attrib $-1 $196 $-1 $89 2 #
vertex $-1 $89 $197 #
ellipse-curve $-1 0 0 30 0 0 1 15 0 0 1 I I #
loop $-1 $-1 $191 $123 #
convexity-sys-attrib $-1 $-1 $91 $64 #
point $-1 -15 1.04744440165294e-013 -40 #
face $-1 $198 $199 $23 $-1 $200 reversed single #
loop $-1 $-1 $201 $94 #
plane-surface $-1 -60 0 0 1 0 0 0 0 -1 forward_v I I I I #
coedge $-1 $202 $148 $203 $204 forward $95 $-1 #
coedge $-1 $205 $97 $202 $206 forward $67 $-1 #
coedge $-1 $97 $205 $207 $208 forward $67 $-1 #
coedge $-1 $151 $150 $97 $144 reversed $152 $-1 #
edge $-1 $209 -60 $210 60 $143 $211 forward 7 unknown #
coedge $-1 $99 $98 $212 $213 forward $46 $-1 #
coedge $-1 $214 $215 $98 $147 reversed $199 $-1 #
edge $-1 $154 -60 $216 60 $146 $217 forward 7 unknown #
coedge $-1 $140 $218 $99 $149 reversed $95 $-1 #
edge $-1 $219 -60 $153 60 $148 $220 forward 7 unknown #
coedge $-1 $143 $100 $218 $221 forward $152 $-1 #
coedge $-1 $100 $143 $214 $222 reversed $152 $-1 #
loop $-1 $-1 $150 $198 #
vertex $-1 $101 $223 #
vertex $-1 $101 $224 #
straight-curve $-1 60 0 40 0 1 0 I I #
coedge $-1 $156 $156 $105 $157 forward $102 $-1 #
edge $-1 $225 0 $225 6.2831853071795862 $156 $226 forward 7 unknown #
vertex $-1 $106 $227 #
ellipse-curve $-1 0 0 -35 0 0 -1 15 0 0 1 I I #
face $-1 $228 $229 $27 $-1 $230 reversed single #
loop $-1 $-1 $231 $107 #
coedge $-1 $232 $233 $234 $235 reversed $108 $-1 #
coedge $-1 $171 $109 $236 $237 forward $76 $-1 #
coedge $-1 $238 $239 $109 $165 forward $240 $-1 #
edge $-1 $241 -3.1415926535897931 $173 -1.5707963267948966 $164 $242 forward 7 unknown #
coedge $-1 $111 $110 $243 $244 reversed $52 $-1 #
coedge $-1 $245 $246 $110 $168 forward $247 $-1 #
edge $-1 $248 0 $174 1.5707963267948966 $167 $249 forward 7 unknown #
coedge $-1 $250 $251 $111 $170 forward $252 $-1 #
edge $-1 $173 -1.5707963267948966 $253 0 $169 $242 forward 7 unknown #
coedge $-1 $112 $163 $254 $255 reversed $76 $-1 #
coedge $-1 $256 $257 $258 $113 forward $259 $-1 #
vertex $-1 $260 $261 #
vertex $-1 $262 $263 #
straight-curve $-1 -2.2494910827332062e-031 60 -40 0 0 -1 I I #
loop $-1 $264 $265 $114 #
plane-surface $-1 -4.5454545454545405 1.9769933796103863e-015 -20 0 0 1 1 0 0 forward_v I I I I #
loop $-1 $-1 $120 $78 #
coedge $-1 $179 $179 $118 $181 reversed $115 $-1 #
coedge $-1 $180 $180 $265 $266 reversed $117 $-1 #
edge $-1 $267 -3.1415926535897931 $267 3.1415926535897931 $118 $268 forward 7 unknown #
coedge $-1 $182 $182 $119 $183 forward $264 $-1 #
edge $-1 $269 -3.1415926535897998 $269 3.1415926535897865 $119 $270 forward 7 unknown #
vertex $-1 $121 $271 #
ellipse-curve $-1 0 0 40 0 0 1 20 0 0 1 I I #
model_id-kcp-attrib $-1 $272 $-1 $123 1 990564841 80 2001731585 9 #
face $273 $-1 $274 $9 $-1 $275 forward single #
plane-surface $-1 0 0 -40 0 0 -1 -1 0 0 forward_v I I I I #
loop $-1 $-1 $276 $84 #
coedge $-1 $190 $190 $128 $193 forward $124 $-1 #
coedge $-1 $191 $191 $127 $192 forward $134 $-1 #
edge $277 $278 0 $278 6.2831853071795862 $191 $279 forward 7 unknown #
edge $-1 $280 -3.1415926535897998 $280 3.1415926535897865 $190 $281 forward 7 unknown #
vertex $-1 $130 $282 #
ellipse-curve $-1 0 0 -20 0 0 1 60 0 0 1 I I #
convexity-sys-attrib $-1 $-1 $131 $89 #
point $-1 15 0 30 #
face $-1 $-1 $152 $23 $-1 $283 reversed single #
loop $-1 $-1 $214 $137 #
plane-surface $-1 0 60 0 0 -1 0 0 0 -1 forward_v I I I I #
coedge $-1 $284 $212 $215 $285 forward $138 $-1 #
coedge $-1 $218 $140 $141 $206 reversed $95 $-1 #
coedge $-1 $212 $284 $140 $204 reversed $138 $-1 #
edge $-1 $219 -40 $286 40 $203 $287 forward 7 unknown #
coedge $-1 $142 $141 $284 $288 forward $67 $-1 #
edge $-1 $210 -60 $286 60 $202 $289 forward 7 unknown #
coedge $-1 $215 $214 $142 $208 reversed $199 $-1 #
edge $-1 $290 -60 $209 60 $207 $291 forward 7 unknown #
vertex $-1 $144 $292 #
vertex $-1 $221 $293 #
straight-curve $-1 60 0 -40 0 -1 0 I I #
coedge $-1 $201 $203 $145 $213 reversed $138 $-1 #
edge $-1 $216 -60 $219 60 $212 $294 forward 7 unknown #
coedge $-1 $207 $146 $151 $222 forward $199 $-1 #
coedge $-1 $146 $207 $201 $285 reversed $199 $-1 #
vertex $-1 $147 $295 #
straight-curve $-1 0 60 40 -1 0 0 I I #
coedge $-1 $148 $202 $150 $221 reversed $95 $-1 #
vertex $-1 $213 $296 #
straight-curve $-1 0 -60 40 1 0 0 I I #
edge $-1 $153 -40 $210 40 $150 $297 forward 7 unknown #
edge $-1 $154 -40 $209 40 $151 $298 forward 7 unknown #
point $-1 60 -60 40 #
point $-1 60 60 40 #
vertex $-1 $157 $299 #
ellipse-curve $-1 0 0 35 0 0 1 15 0 0 1 I I #
point $-1 15 0 -35 #
face $-1 $300 $259 $27 $-1 $301 reversed single #
loop $-1 $-1 $243 $160 #
plane-surface $-1 60 0 0 -1 0 0 0 0 1 forward_v I I I I #
coedge $-1 $236 $302 $303 $304 reversed $161 $-1 #
coedge $-1 $305 $162 $306 $307 reversed $108 $-1 #
coedge $-1 $162 $305 $166 $244 forward $108 $-1 #
coedge $-1 $308 $309 $162 $235 forward $310 $-1 #
edge $-1 $311 -1.5707963267948966 $248 0 $234 $249 forward 7 unknown #
coedge $-1 $312 $231 $313 $237 reversed $161 $-1 #
edge $-1 $241 -80 $314 0 $313 $315 forward 7 unknown #
coedge $-1 $239 $164 $257 $260 forward $240 $-1 #
coedge $-1 $164 $238 $316 $317 forward $240 $-1 #
loop $-1 $-1 $164 $318 #
vertex $-1 $319 $320 #
ellipse-curve $-1 -2.2494910827332062e-031 0 40 0 0 -1 60 0 0 1 I I #
coedge $-1 $321 $322 $323 $244 forward $229 $-1 #
edge $-1 $253 -80 $248 0 $243 $324 forward 7 unknown #
coedge $-1 $246 $167 $325 $262 forward $247 $-1 #
coedge $-1 $167 $245 $321 $326 forward $247 $-1 #
loop $-1 $-1 $167 $327 #
vertex $-1 $328 $329 #
ellipse-curve $-1 -2.2494910827332062e-031 0 -40 0 0 1 60 0 0 1 I I #
coedge $-1 $251 $169 $322 $330 forward $252 $-1 #
coedge $-1 $169 $250 $331 $332 forward $252 $-1 #
loop $-1 $-1 $169 $333 #
vertex $-1 $330 $334 #
coedge $-1 $335 $336 $171 $255 forward $337 $-1 #
edge $-1 $174 1.5707963267948966 $314 3.1415926535897931 $254 $249 forward 7 unknown #
coedge $-1 $338 $172 $336 $339 reversed $259 $-1 #
coedge $-1 $172 $338 $238 $260 reversed $259 $-1 #
coedge $-1 $331 $325 $77 $113 reversed $340 $-1 #
loop $-1 $-1 $172 $228 #
edge $-1 $173 2.2494910827332062e-031 $341 60 $257 $342 forward 7 unknown #
point $-1 -2.2494910827332062e-031 60 40 #
edge $-1 $174 -2.2494910827332062e-031 $343 60 $325 $344 forward 7 unknown #
point $-1 -2.2494910827332062e-031 60 -40 #
loop $-1 $-1 $182 $114 #
coedge $-1 $265 $265 $180 $266 forward $176 $-1 #
edge $345 $346 -3.1415926535897931 $346 3.1415926535897931 $180 $347 forward 7 unknown #
vertex $-1 $181 $348 #
ellipse-curve $-1 -2.2494910827332062e-031 0 40 0 0 -1 60 0 0 1 I I #
vertex $-1 $183 $349 #
ellipse-curve $-1 0 0 -20 0 0 1 20 0 0 1 I I #
point $-1 -20 1.3965925355372501e-013 40 #
model_id-kcp-attrib $-1 $-1 $186 $123 1 990564841 80 2001731585 7 #
model_id-kcp-attrib $-1 $-1 $-1 $187 1 990564841 80 2001731585 8 #
loop $-1 $-1 $350 $187 #
plane-surface $-1 0 0 40 0 0 1 1 0 0 forward_v I I I I #
coedge $-1 $276 $276 $350 $351 reversed $189 $-1 #
attrib_edge_convexity-kcp-attrib $-1 $352 $-1 $192 1 #
vertex $-1 $192 $353 #
ellipse-curve $-1 0 0 -40 0 0 -1 60 0 0 1 I I #
vertex $-1 $193 $354 #
ellipse-curve $-1 0 0 -20 0 0 1 20 0 0 1 I I #
point $-1 60 0 -20 #
plane-surface $-1 60 0 0 -1 0 0 0 0 1 forward_v I I I I #
coedge $-1 $203 $201 $205 $288 reversed $138 $-1 #
edge $-1 $216 -40 $290 40 $215 $355 forward 7 unknown #
vertex $-1 $288 $356 #
straight-curve $-1 -60 -60 0 0 0 -1 I I #
edge $-1 $286 -60 $290 60 $284 $357 forward 7 unknown #
straight-curve $-1 0 -60 -40 -1 0 0 I I #
vertex $-1 $208 $358 #
straight-curve $-1 0 60 -40 1 0 0 I I #
point $-1 60 60 -40 #
point $-1 60 -60 -40 #
straight-curve $-1 -60 0 40 0 -1 0 I I #
point $-1 -60 60 40 #
point $-1 -60 -60 40 #
straight-curve $-1 60 -60 0 0 0 -1 I I #
straight-curve $-1 60 60 0 0 0 -1 I I #
point $-1 15 0 35 #
face $-1 $359 $360 $27 $-1 $361 reversed single #
plane-surface $-1 0 60 0 0 -1 0 0 0 -1 forward_v I I I I #
coedge $-1 $231 $312 $232 $307 forward $161 $-1 #
coedge $-1 $362 $363 $231 $304 forward $364 $-1 #
edge $-1 $314 -3.1415926535897931 $311 -1.5707963267948966 $303 $249 forward 7 unknown #
coedge $-1 $233 $232 $365 $366 reversed $108 $-1 #
coedge $-1 $367 $368 $369 $307 forward $370 $-1 #
edge $-1 $371 -80 $311 0 $306 $372 forward 7 unknown #
coedge $-1 $309 $234 $373 $328 forward $310 $-1 #
coedge $-1 $234 $308 $367 $374 forward $310 $-1 #
loop $-1 $-1 $234 $375 #
vertex $-1 $376 $377 #
coedge $-1 $302 $236 $378 $379 reversed $161 $-1 #
coedge $-1 $380 $381 $382 $237 forward $360 $-1 #
vertex $-1 $383 $384 #
straight-curve $-1 -60 0 -40 0 0 -1 I I #
coedge $-1 $385 $382 $239 $317 reversed $386 $-1 #
edge $-1 $341 -60 $241 0 $316 $387 forward 7 unknown #
face $-1 $333 $240 $27 $-1 $388 forward single #
edge $-1 $241 0 $389 60 $381 $387 forward 7 unknown #
point $-1 -60 0 40 #
coedge $-1 $390 $243 $246 $326 reversed $229 $-1 #
coedge $-1 $243 $390 $250 $330 reversed $229 $-1 #
coedge $-1 $391 $373 $233 $244 reversed $392 $-1 #
straight-curve $-1 60 0 -40 0 0 -1 I I #
coedge $-1 $258 $393 $245 $262 reversed $340 $-1 #
edge $-1 $343 -60 $248 0 $321 $394 forward 7 unknown #
face $-1 $395 $247 $27 $-1 $396 reversed single #
edge $-1 $248 0 $397 60 $373 $394 forward 7 unknown #
point $-1 60 0 -40 #
edge $-1 $253 0 $398 60 $322 $399 forward 7 unknown #
coedge $-1 $393 $258 $251 $332 reversed $340 $-1 #
edge $-1 $398 -60 $173 2.2494910827332062e-031 $331 $342 forward 7 unknown #
face $-1 $400 $252 $27 $-1 $388 forward single #
point $-1 60 0 40 #
coedge $-1 $336 $254 $401 $383 forward $337 $-1 #
coedge $-1 $254 $335 $256 $339 forward $337 $-1 #
loop $-1 $-1 $254 $395 #
coedge $-1 $257 $256 $385 $402 reversed $259 $-1 #
edge $-1 $403 -60 $174 -2.2494910827332062e-031 $256 $344 forward 7 unknown #
loop $-1 $-1 $258 $404 #
vertex $-1 $260 $405 #
straight-curve $-1 0 60 40 -1 0 0 I I #
vertex $-1 $326 $406 #
straight-curve $-1 0 60 -40 1 0 0 I I #
convexity-sys-attrib $-1 $-1 $-1 $266 #
vertex $-1 $266 $407 #
ellipse-curve $-1 -2.2494910827332062e-031 0 -20 0 0 -1 60 0 0 1 I I #
point $-1 -60 7.3476381229342635e-015 40 #
point $-1 -20 1.3965925355372501e-013 -20 #
coedge $-1 $350 $350 $276 $351 forward $274 $-1 #
edge $-1 $408 0 $408 6.2831853071795862 $350 $409 forward 7 unknown #
convexity-sys-attrib $-1 $-1 $277 $192 #
point $-1 60 0 -40 #
point $-1 -20 1.3965925355372501e-013 -20 #
straight-curve $-1 -60 60 0 0 0 -1 I I #
point $-1 -60 -60 -40 #
straight-curve $-1 -60 0 -40 0 1 0 I I #
point $-1 -60 60 -40 #
face $-1 $318 $410 $27 $-1 $388 forward single #
loop $-1 $-1 $313 $300 #
plane-surface $-1 -60 0 0 1 0 0 0 0 -1 forward_v I I I I #
coedge $-1 $363 $303 $411 $376 forward $364 $-1 #
coedge $-1 $303 $362 $380 $412 forward $364 $-1 #
loop $-1 $-1 $303 $413 #
coedge $-1 $414 $415 $305 $366 forward $416 $-1 #
edge $-1 $253 0 $371 1.5707963267948966 $365 $242 forward 7 unknown #
coedge $-1 $417 $306 $309 $374 reversed $370 $-1 #
coedge $-1 $306 $417 $414 $418 reversed $370 $-1 #
coedge $-1 $419 $411 $302 $307 reversed $420 $-1 #
loop $-1 $-1 $306 $421 #
vertex $-1 $418 $422 #
straight-curve $-1 -2.2494910827332062e-031 -60 -40 0 0 -1 I I #
coedge $-1 $323 $423 $308 $328 reversed $392 $-1 #
edge $-1 $397 -60 $311 2.2494910827332062e-031 $367 $424 forward 7 unknown #
face $-1 $327 $310 $27 $-1 $396 reversed single #
edge $-1 $311 2.2494910827332062e-031 $425 60 $411 $424 forward 7 unknown #
point $-1 -2.2494910827332062e-031 -60 -40 #
coedge $-1 $426 $427 $312 $379 forward $410 $-1 #
edge $-1 $371 1.5707963267948966 $241 3.1415926535897931 $378 $242 forward 7 unknown #
coedge $-1 $428 $313 $363 $412 reversed $360 $-1 #
coedge $-1 $313 $428 $426 $319 reversed $360 $-1 #
coedge $-1 $316 $401 $163 $237 reversed $386 $-1 #
edge $-1 $314 0 $403 60 $401 $429 forward 7 unknown #
point $-1 -60 0 -40 #
coedge $-1 $401 $316 $338 $402 forward $386 $-1 #
loop $-1 $-1 $382 $430 #
straight-curve $-1 -60 0 40 0 -1 0 I I #
plane-surface $-1 0 0 40 0 0 1 1 0 0 forward_v I I I I #
vertex $-1 $319 $431 #
coedge $-1 $322 $321 $393 $432 reversed $229 $-1 #
coedge $-1 $423 $323 $415 $433 reversed $392 $-1 #
loop $-1 $-1 $323 $434 #
coedge $-1 $325 $331 $390 $432 forward $340 $-1 #
straight-curve $-1 60 0 -40 0 -1 0 I I #
face $-1 $435 $337 $27 $-1 $396 reversed single #
plane-surface $-1 0 0 -40 0 0 1 1 0 0 forward_v I I I I #
vertex $-1 $436 $437 #
vertex $-1 $330 $438 #
straight-curve $-1 60 0 40 0 1 0 I I #
face $-1 $421 $416 $27 $-1 $388 forward single #
coedge $-1 $382 $385 $335 $383 reversed $386 $-1 #
edge $-1 $341 -40 $403 40 $338 $439 forward 7 unknown #
vertex $-1 $339 $440 #
face $-1 $434 $340 $27 $-1 $301 reversed single #
point $-1 -60 60 40 #
point $-1 60 60 -40 #
point $-1 -60 7.3476381229342635e-015 -20 #
vertex $-1 $351 $441 #
ellipse-curve $-1 0 0 40 0 0 1 20 0 0 1 I I #
loop $-1 $-1 $378 $359 #
coedge $-1 $369 $442 $362 $376 reversed $420 $-1 #
edge $-1 $425 -60 $314 0 $380 $429 forward 7 unknown #
face $-1 $375 $364 $27 $-1 $396 reversed single #
coedge $-1 $415 $365 $368 $418 forward $416 $-1 #
coedge $-1 $365 $414 $391 $433 forward $416 $-1 #
loop $-1 $-1 $365 $400 #
coedge $-1 $368 $367 $423 $436 reversed $370 $-1 #
edge $-1 $371 -2.2494910827332062e-031 $443 60 $368 $444 forward 7 unknown #
coedge $-1 $442 $369 $427 $445 reversed $420 $-1 #
loop $-1 $-1 $369 $435 #
face $-1 $413 $370 $27 $-1 $446 reversed single #
point $-1 -2.2494910827332062e-031 -60 40 #
coedge $-1 $373 $391 $417 $436 forward $392 $-1 #
straight-curve $-1 0 -60 -40 -1 0 0 I I #
vertex $-1 $412 $447 #
coedge $-1 $427 $378 $381 $319 forward $410 $-1 #
coedge $-1 $378 $426 $419 $445 forward $410 $-1 #
coedge $-1 $381 $380 $442 $448 reversed $360 $-1 #
straight-curve $-1 -60 0 -40 0 1 0 I I #
face $-1 $404 $386 $27 $-1 $361 reversed single #
point $-1 -60 -60 40 #
edge $-1 $398 -40 $343 40 $390 $449 forward 7 unknown #
edge $-1 $443 -60 $253 0 $391 $399 forward 7 unknown #
face $-1 $-1 $392 $27 $-1 $230 reversed single #
face $-1 $430 $420 $27 $-1 $446 reversed single #
edge $-1 $443 -40 $397 40 $423 $450 forward 7 unknown #
point $-1 60 -60 -40 #
point $-1 60 60 40 #
straight-curve $-1 -60 60 0 0 0 -1 I I #
point $-1 -60 60 -40 #
point $-1 20 0 40 #
coedge $-1 $411 $419 $428 $448 forward $420 $-1 #
vertex $-1 $433 $451 #
straight-curve $-1 0 -60 40 1 0 0 I I #
edge $-1 $389 -60 $371 -2.2494910827332062e-031 $419 $444 forward 7 unknown #
plane-surface $-1 0 -60 0 0 1 0 0 0 1 forward_v I I I I #
point $-1 -60 -60 -40 #
edge $-1 $389 -40 $425 40 $428 $452 forward 7 unknown #
straight-curve $-1 60 60 0 0 0 -1 I I #
straight-curve $-1 60 -60 0 0 0 -1 I I #
point $-1 60 -60 40 #
straight-curve $-1 -60 -60 0 0 0 -1 I I #
End-of-ACIS-data 