600 0 2 0           
24 FBMach with ACIS - 6.0.3 13 ACIS 6.0.3 NT 24 Tue May 22 16:54:02 2001 
1 9.9999999999999995e-007 1e-010 
body $2 $3 $-1 $4 #
bdycol-kcp $-1 1 4 $5 $6 $7 $8 #
model_id-kcp-attrib $-1 $-1 $-1 $0 1 990564842 60 -79953919 1 #
lump $-1 $-1 $9 $0 #
transform $-1 1 0 0 0 1 0 0 0 1 0 0 -12.5 1 rotate no_reflect no_shear #
body $10 $11 $-1 $12 #
body $13 $14 $-1 $15 #
body $16 $17 $-1 $18 #
body $19 $20 $-1 $21 #
shell $-1 $-1 $-1 $22 $-1 $3 #
model_id-kcp-attrib $-1 $-1 $-1 $5 1 990564842 60 -79953918 1 #
lump $-1 $-1 $23 $5 #
transform $-1 1 0 0 0 1 0 0 0 1 0 0 -40 1 no_rotate no_reflect no_shear #
rgb_color-st-attrib $-1 $24 $-1 $6 0.5 1 1 #
lump $-1 $-1 $25 $6 #
transform $-1 1 0 0 0 1 0 0 0 1 0 0 -40 1 no_rotate no_reflect no_shear #
rgb_color-st-attrib $-1 $26 $-1 $7 1 0.5 1 #
lump $-1 $-1 $27 $7 #
transform $-1 1 0 0 0 1 0 0 0 1 0 0 -40 1 no_rotate no_reflect no_shear #
rgb_color-st-attrib $-1 $28 $-1 $8 1 0.5 1 #
lump $-1 $-1 $29 $8 #
transform $-1 1 0 0 0 1 0 0 0 1 0 0 -40 1 no_rotate no_reflect no_shear #
face $30 $31 $32 $9 $-1 $33 forward single #
shell $-1 $-1 $-1 $34 $-1 $11 #
model_id-kcp-attrib $-1 $-1 $13 $6 1 990564842 140 -74711037 1 #
shell $-1 $-1 $-1 $35 $-1 $14 #
model_id-kcp-attrib $-1 $-1 $16 $7 1 990564842 240 -68157436 1 #
shell $-1 $-1 $-1 $36 $-1 $17 #
model_id-kcp-attrib $-1 $-1 $19 $8 1 990564842 290 -81657851 1 #
shell $-1 $-1 $-1 $37 $-1 $20 #
model_id-kcp-attrib $-1 $-1 $-1 $22 1 990564842 60 -79953919 2 #
face $38 $39 $40 $9 $-1 $33 forward single #
loop $-1 $41 $42 $22 #
cone-surface $-1 0 0 -77.5 0 0 -1 15 0 0 1 I I 0 1 15 forward I I I I #
face $43 $44 $45 $23 $-1 $46 forward single #
face $-1 $47 $48 $25 $-1 $49 reversed single #
face $-1 $50 $51 $27 $-1 $52 forward single #
face $-1 $53 $54 $29 $-1 $55 forward single #
model_id-kcp-attrib $-1 $-1 $-1 $31 1 990564842 60 -79953919 3 #
face $56 $57 $58 $9 $-1 $59 forward single #
loop $-1 $60 $61 $31 #
loop $-1 $-1 $62 $22 #
coedge $-1 $42 $42 $63 $64 reversed $32 $-1 #
model_id-kcp-attrib $-1 $-1 $-1 $34 1 990564842 60 -79953918 3 #
face $65 $66 $67 $23 $-1 $68 reversed single #
loop $-1 $-1 $69 $34 #
plane-surface $-1 0 0 90 0 0 1 1 0 0 forward_v I I I I #
face $-1 $70 $71 $25 $-1 $49 reversed single #
loop $-1 $-1 $72 $35 #
cone-surface $-1 -2.6244062631887405e-031 0 -90 0 0 -1 70 0 0 1 I I 0 1 70 forward I I I I #
face $-1 $73 $74 $27 $-1 $75 forward single #
loop $-1 $76 $77 $36 #
cone-surface $-1 0 0 15 0 0 -1 15 0 0 1 I I 0 -1 15 forward I I I I #
face $-1 $78 $79 $29 $-1 $80 forward single #
loop $-1 $81 $82 $37 #
cone-surface $-1 0 0 40 0 0 1 15 0 0 1 I I 0 -1 15 forward I I I I #
model_id-kcp-attrib $-1 $83 $-1 $39 1 990564842 60 -79953919 9 #
face $84 $85 $86 $9 $-1 $87 forward single #
loop $-1 $-1 $88 $39 #
plane-surface $-1 15 0 -117.5 0 0 -1 -1 0 0 forward_v I I I I #
loop $-1 $-1 $89 $31 #
coedge $-1 $61 $61 $88 $90 forward $40 $-1 #
coedge $-1 $62 $62 $91 $92 reversed $41 $-1 #
coedge $-1 $63 $63 $42 $64 forward $86 $-1 #
edge $-1 $93 0 $93 6.2831853071795862 $63 $94 forward 7 unknown #
model_id-kcp-attrib $-1 $-1 $-1 $44 1 990564842 60 -79953918 2 #
face $-1 $95 $96 $23 $-1 $97 reversed single #
loop $-1 $-1 $98 $44 #
plane-surface $-1 0 0 -90 0 0 1 1 0 0 forward_v I I I I #
coedge $-1 $99 $100 $101 $102 forward $45 $-1 #
face $-1 $103 $104 $25 $-1 $49 reversed single #
loop $-1 $-1 $105 $47 #
coedge $-1 $106 $107 $108 $109 forward $48 $-1 #
face $-1 $110 $111 $27 $-1 $112 reversed single #
loop $-1 $113 $114 $50 #
cone-surface $-1 -2.6244062631887405e-031 0 15 0 0 -1 70 0 0 1 I I 0 1 70 forward I I I I #
loop $-1 $-1 $115 $36 #
coedge $-1 $77 $77 $116 $117 forward $51 $-1 #
face $-1 $118 $119 $29 $-1 $120 forward single #
loop $-1 $121 $122 $53 #
cone-surface $-1 -2.6244062631887405e-031 0 40 0 0 1 70 0 0 1 I I 0 1 70 forward I I I I #
loop $-1 $-1 $123 $37 #
coedge $-1 $82 $82 $124 $125 forward $54 $-1 #
model_id-kcp-attrib $-1 $-1 $56 $39 1 990564842 60 -79953919 4 #
model_id-kcp-attrib $-1 $-1 $-1 $57 1 990564842 60 -79953919 5 #
face $126 $127 $128 $9 $-1 $129 forward single #
loop $-1 $-1 $63 $57 #
plane-surface $-1 0 0 62.5 0 0 1 1 0 0 forward_v I I I I #
coedge $-1 $88 $88 $61 $90 reversed $58 $-1 #
coedge $-1 $89 $89 $130 $131 reversed $60 $-1 #
edge $132 $133 0 $133 6.2831853071795862 $61 $134 forward 7 unknown #
coedge $-1 $91 $91 $62 $92 forward $135 $-1 #
edge $-1 $136 -3.1415926535897998 $136 3.1415926535897865 $91 $137 forward 7 unknown #
vertex $-1 $64 $138 #
ellipse-curve $-1 0 0 62.5 0 0 1 15 0 0 1 I I #
face $-1 $139 $140 $23 $-1 $141 reversed single #
loop $-1 $-1 $142 $66 #
plane-surface $-1 0 -70 0 0 1 0 0 0 1 forward_v I I I I #
coedge $-1 $143 $144 $145 $146 forward $67 $-1 #
coedge $-1 $147 $69 $148 $149 forward $45 $-1 #
coedge $-1 $69 $147 $150 $151 forward $45 $-1 #
coedge $-1 $152 $153 $69 $102 reversed $154 $-1 #
edge $-1 $155 -70 $156 70 $101 $157 forward 7 unknown #
face $-1 $158 $159 $25 $-1 $49 reversed single #
loop $-1 $-1 $160 $70 #
coedge $-1 $161 $108 $162 $163 reversed $71 $-1 #
coedge $-1 $164 $72 $165 $166 reversed $48 $-1 #
coedge $-1 $72 $164 $167 $168 reversed $48 $-1 #
coedge $-1 $105 $169 $170 $109 reversed $71 $-1 #
edge $-1 $171 -180 $172 0 $170 $173 forward 7 unknown #
face $-1 $-1 $174 $27 $-1 $175 forward single #
loop $-1 $176 $177 $73 #
plane-surface $-1 -5.4812834224598896 1.2368778410318647e-015 -90 0 0 1 1 0 0 forward_v I I I I #
loop $-1 $-1 $178 $50 #
coedge $-1 $114 $114 $177 $179 forward $74 $-1 #
coedge $-1 $115 $115 $180 $181 reversed $76 $-1 #
coedge $-1 $116 $116 $77 $117 reversed $176 $-1 #
edge $-1 $182 -3.1415926535897865 $182 3.1415926535897998 $77 $183 forward 7 unknown #
face $-1 $-1 $184 $29 $-1 $185 reversed single #
loop $-1 $186 $187 $78 #
plane-surface $-1 -5.4812834224598896 -1.2368778410318647e-015 90 0 0 1 1 0 0 forward_v I I I I #
loop $-1 $-1 $188 $53 #
coedge $-1 $122 $122 $187 $189 forward $79 $-1 #
coedge $-1 $123 $123 $190 $191 reversed $81 $-1 #
coedge $-1 $124 $124 $82 $125 reversed $186 $-1 #
edge $-1 $192 -3.1415926535897865 $192 3.1415926535897998 $82 $193 forward 7 unknown #
model_id-kcp-attrib $-1 $-1 $-1 $85 1 990564842 60 -79953919 6 #
face $194 $195 $196 $9 $-1 $197 forward single #
loop $-1 $198 $199 $85 #
cone-surface $-1 0 0 0 0 0 1 70 0 0 1 I I 0 1 70 forward I I I I #
coedge $-1 $130 $130 $89 $131 forward $196 $-1 #
edge $-1 $200 -3.1415926535897998 $200 3.1415926535897865 $130 $201 forward 7 unknown #
attrib_edge_convexity-kcp-attrib $-1 $202 $-1 $90 1 #
vertex $-1 $90 $203 #
ellipse-curve $-1 0 0 -117.5 0 0 1 15 0 0 1 I I #
loop $-1 $204 $91 $195 #
vertex $-1 $92 $205 #
ellipse-curve $-1 0 0 12.5 0 0 -1 15 0 0 1 I I #
point $-1 15 0 62.5 #
face $-1 $206 $207 $23 $-1 $208 reversed single #
loop $-1 $-1 $209 $95 #
plane-surface $-1 -70 0 0 1 0 0 0 0 -1 forward_v I I I I #
coedge $-1 $210 $150 $211 $212 forward $96 $-1 #
coedge $-1 $213 $98 $210 $214 forward $67 $-1 #
coedge $-1 $98 $213 $215 $216 forward $67 $-1 #
coedge $-1 $153 $152 $98 $146 reversed $154 $-1 #
edge $-1 $217 -70 $218 70 $145 $219 forward 7 unknown #
coedge $-1 $100 $99 $220 $221 forward $45 $-1 #
coedge $-1 $222 $223 $99 $149 reversed $207 $-1 #
edge $-1 $156 -70 $224 70 $148 $225 forward 7 unknown #
coedge $-1 $142 $226 $100 $151 reversed $96 $-1 #
edge $-1 $227 -70 $155 70 $150 $228 forward 7 unknown #
coedge $-1 $145 $101 $226 $229 forward $154 $-1 #
coedge $-1 $101 $145 $222 $230 reversed $154 $-1 #
loop $-1 $-1 $152 $206 #
vertex $-1 $102 $231 #
vertex $-1 $102 $232 #
straight-curve $-1 70 0 90 0 1 0 I I #
face $-1 $233 $234 $25 $-1 $235 reversed single #
loop $-1 $-1 $236 $103 #
coedge $-1 $237 $238 $239 $240 reversed $104 $-1 #
coedge $-1 $169 $105 $241 $242 forward $71 $-1 #
coedge $-1 $243 $244 $105 $163 forward $245 $-1 #
edge $-1 $246 -3.1415926535897931 $171 -1.5707963267948966 $162 $247 forward 7 unknown #
coedge $-1 $107 $106 $248 $249 reversed $48 $-1 #
coedge $-1 $250 $251 $106 $166 forward $252 $-1 #
edge $-1 $253 0 $172 1.5707963267948966 $165 $254 forward 7 unknown #
coedge $-1 $255 $256 $107 $168 forward $257 $-1 #
edge $-1 $171 -1.5707963267948966 $258 0 $167 $247 forward 7 unknown #
coedge $-1 $108 $161 $259 $260 reversed $71 $-1 #
coedge $-1 $261 $262 $263 $109 forward $264 $-1 #
vertex $-1 $265 $266 #
vertex $-1 $267 $268 #
straight-curve $-1 -2.6244062631887405e-031 70 -90 0 0 -1 I I #
loop $-1 $269 $270 $110 #
plane-surface $-1 -5.4812834224598896 1.2368778410318647e-015 14.999999999999998 0 0 1 1 0 0 forward_v I I I I #
loop $-1 $-1 $116 $73 #
coedge $-1 $177 $177 $114 $179 reversed $111 $-1 #
coedge $-1 $178 $178 $270 $271 reversed $113 $-1 #
edge $-1 $272 -3.1415926535897931 $272 3.1415926535897931 $114 $273 forward 7 unknown #
coedge $-1 $180 $180 $115 $181 forward $269 $-1 #
edge $-1 $274 -3.1415926535897865 $274 3.1415926535897998 $115 $275 forward 7 unknown #
vertex $-1 $117 $276 #
ellipse-curve $-1 0 0 -90 0 0 -1 15 0 0 1 I I #
loop $-1 $277 $278 $118 #
plane-surface $-1 -5.4812834224598896 -1.2368778410318647e-015 40 0 0 1 1 0 0 forward_v I I I I #
loop $-1 $-1 $124 $78 #
coedge $-1 $187 $187 $122 $189 reversed $119 $-1 #
coedge $-1 $188 $188 $278 $279 reversed $121 $-1 #
edge $-1 $280 -3.1415926535897931 $280 3.1415926535897931 $122 $281 forward 7 unknown #
coedge $-1 $190 $190 $123 $191 forward $277 $-1 #
edge $-1 $282 -3.1415926535897865 $282 3.1415926535897998 $123 $283 forward 7 unknown #
vertex $-1 $125 $284 #
ellipse-curve $-1 0 0 90 0 0 1 15 0 0 1 I I #
model_id-kcp-attrib $-1 $-1 $-1 $127 1 990564842 60 -79953919 7 #
face $285 $-1 $135 $9 $-1 $286 forward single #
loop $-1 $287 $130 $127 #
plane-surface $-1 0 0 -12.5 0 0 -1 -1 0 0 forward_v I I I I #
loop $-1 $-1 $288 $85 #
coedge $-1 $199 $199 $289 $290 reversed $128 $-1 #
vertex $-1 $131 $291 #
ellipse-curve $-1 0 0 -12.5 0 0 1 15 0 0 1 I I #
convexity-sys-attrib $-1 $-1 $132 $90 #
point $-1 15 0 -117.5 #
loop $-1 $-1 $292 $195 #
point $-1 -15 -1.04744440165294e-013 12.5 #
face $-1 $-1 $154 $23 $-1 $293 reversed single #
loop $-1 $-1 $222 $139 #
plane-surface $-1 0 70 0 0 -1 0 0 0 -1 forward_v I I I I #
coedge $-1 $294 $220 $223 $295 forward $140 $-1 #
coedge $-1 $226 $142 $143 $214 reversed $96 $-1 #
coedge $-1 $220 $294 $142 $212 reversed $140 $-1 #
edge $-1 $227 -90 $296 90 $211 $297 forward 7 unknown #
coedge $-1 $144 $143 $294 $298 forward $67 $-1 #
edge $-1 $218 -70 $296 70 $210 $299 forward 7 unknown #
coedge $-1 $223 $222 $144 $216 reversed $207 $-1 #
edge $-1 $300 -70 $217 70 $215 $301 forward 7 unknown #
vertex $-1 $146 $302 #
vertex $-1 $229 $303 #
straight-curve $-1 70 0 -90 0 -1 0 I I #
coedge $-1 $209 $211 $147 $221 reversed $140 $-1 #
edge $-1 $224 -70 $227 70 $220 $304 forward 7 unknown #
coedge $-1 $215 $148 $153 $230 forward $207 $-1 #
coedge $-1 $148 $215 $209 $295 reversed $207 $-1 #
vertex $-1 $149 $305 #
straight-curve $-1 0 70 90 -1 0 0 I I #
coedge $-1 $150 $210 $152 $229 reversed $96 $-1 #
vertex $-1 $221 $306 #
straight-curve $-1 0 -70 90 1 0 0 I I #
edge $-1 $155 -90 $218 90 $152 $307 forward 7 unknown #
edge $-1 $156 -90 $217 90 $153 $308 forward 7 unknown #
point $-1 70 -70 90 #
point $-1 70 70 90 #
face $-1 $309 $264 $25 $-1 $310 reversed single #
loop $-1 $-1 $248 $158 #
plane-surface $-1 70 0 0 -1 0 0 0 0 1 forward_v I I I I #
coedge $-1 $241 $311 $312 $313 reversed $159 $-1 #
coedge $-1 $314 $160 $315 $316 reversed $104 $-1 #
coedge $-1 $160 $314 $164 $249 forward $104 $-1 #
coedge $-1 $317 $318 $160 $240 forward $319 $-1 #
edge $-1 $320 -1.5707963267948966 $253 0 $239 $254 forward 7 unknown #
coedge $-1 $321 $236 $322 $242 reversed $159 $-1 #
edge $-1 $246 -180 $323 0 $322 $324 forward 7 unknown #
coedge $-1 $244 $162 $262 $265 forward $245 $-1 #
coedge $-1 $162 $243 $325 $326 forward $245 $-1 #
loop $-1 $-1 $162 $327 #
vertex $-1 $328 $329 #
ellipse-curve $-1 -2.6244062631887405e-031 0 90 0 0 -1 70 0 0 1 I I #
coedge $-1 $330 $331 $332 $249 forward $234 $-1 #
edge $-1 $258 -180 $253 0 $248 $333 forward 7 unknown #
coedge $-1 $251 $165 $334 $267 forward $252 $-1 #
coedge $-1 $165 $250 $330 $335 forward $252 $-1 #
loop $-1 $-1 $165 $336 #
vertex $-1 $337 $338 #
ellipse-curve $-1 -2.6244062631887405e-031 0 -90 0 0 1 70 0 0 1 I I #
coedge $-1 $256 $167 $331 $339 forward $257 $-1 #
coedge $-1 $167 $255 $340 $341 forward $257 $-1 #
loop $-1 $-1 $167 $342 #
vertex $-1 $339 $343 #
coedge $-1 $344 $345 $169 $260 forward $346 $-1 #
edge $-1 $172 1.5707963267948966 $323 3.1415926535897931 $259 $254 forward 7 unknown #
coedge $-1 $347 $170 $345 $348 reversed $264 $-1 #
coedge $-1 $170 $347 $243 $265 reversed $264 $-1 #
coedge $-1 $340 $334 $72 $109 reversed $349 $-1 #
loop $-1 $-1 $170 $233 #
edge $-1 $171 2.6244062631887405e-031 $350 70 $262 $351 forward 7 unknown #
point $-1 -2.6244062631887405e-031 70 90 #
edge $-1 $172 -2.6244062631887405e-031 $352 70 $334 $353 forward 7 unknown #
point $-1 -2.6244062631887405e-031 70 -90 #
loop $-1 $-1 $180 $110 #
coedge $-1 $270 $270 $178 $271 forward $174 $-1 #
edge $354 $355 -3.1415926535897931 $355 3.1415926535897931 $178 $356 forward 7 unknown #
vertex $-1 $179 $357 #
ellipse-curve $-1 -2.6244062631887405e-031 0 -90 0 0 1 70 0 0 1 I I #
vertex $-1 $181 $358 #
ellipse-curve $-1 0 0 15 0 0 -1 15 0 0 1 I I #
point $-1 -15 1.04744440165294e-013 -90 #
loop $-1 $-1 $190 $118 #
coedge $-1 $278 $278 $188 $279 forward $184 $-1 #
edge $359 $360 -3.1415926535897931 $360 3.1415926535897931 $188 $361 forward 7 unknown #
vertex $-1 $189 $362 #
ellipse-curve $-1 -2.6244062631887405e-031 0 90 0 0 -1 70 0 0 1 I I #
vertex $-1 $191 $363 #
ellipse-curve $-1 0 0 40 0 0 1 15 0 0 1 I I #
point $-1 -15 -1.04744440165294e-013 90 #
model_id-kcp-attrib $-1 $-1 $-1 $195 1 990564842 60 -79953919 8 #
plane-surface $-1 0 0 12.5 0 0 1 1 0 0 forward_v I I I I #
loop $-1 $-1 $289 $127 #
coedge $-1 $288 $288 $292 $364 reversed $198 $-1 #
coedge $-1 $289 $289 $199 $290 forward $287 $-1 #
edge $-1 $365 0 $365 6.2831853071795862 $289 $366 forward 7 unknown #
point $-1 -15 1.04744440165294e-013 -12.5 #
coedge $-1 $292 $292 $288 $364 forward $204 $-1 #
plane-surface $-1 70 0 0 -1 0 0 0 0 1 forward_v I I I I #
coedge $-1 $211 $209 $213 $298 reversed $140 $-1 #
edge $-1 $224 -90 $300 90 $223 $367 forward 7 unknown #
vertex $-1 $298 $368 #
straight-curve $-1 -70 -70 0 0 0 -1 I I #
edge $-1 $296 -70 $300 70 $294 $369 forward 7 unknown #
straight-curve $-1 0 -70 -90 -1 0 0 I I #
vertex $-1 $216 $370 #
straight-curve $-1 0 70 -90 1 0 0 I I #
point $-1 70 70 -90 #
point $-1 70 -70 -90 #
straight-curve $-1 -70 0 90 0 -1 0 I I #
point $-1 -70 70 90 #
point $-1 -70 -70 90 #
straight-curve $-1 70 -70 0 0 0 -1 I I #
straight-curve $-1 70 70 0 0 0 -1 I I #
face $-1 $371 $372 $25 $-1 $373 reversed single #
plane-surface $-1 0 70 0 0 -1 0 0 0 -1 forward_v I I I I #
coedge $-1 $236 $321 $237 $316 forward $159 $-1 #
coedge $-1 $374 $375 $236 $313 forward $376 $-1 #
edge $-1 $323 -3.1415926535897931 $320 -1.5707963267948966 $312 $254 forward 7 unknown #
coedge $-1 $238 $237 $377 $378 reversed $104 $-1 #
coedge $-1 $379 $380 $381 $316 forward $382 $-1 #
edge $-1 $383 -180 $320 0 $315 $384 forward 7 unknown #
coedge $-1 $318 $239 $385 $337 forward $319 $-1 #
coedge $-1 $239 $317 $379 $386 forward $319 $-1 #
loop $-1 $-1 $239 $387 #
vertex $-1 $388 $389 #
coedge $-1 $311 $241 $390 $391 reversed $159 $-1 #
coedge $-1 $392 $393 $394 $242 forward $372 $-1 #
vertex $-1 $395 $396 #
straight-curve $-1 -70 0 -90 0 0 -1 I I #
coedge $-1 $397 $394 $244 $326 reversed $398 $-1 #
edge $-1 $350 -70 $246 0 $325 $399 forward 7 unknown #
face $-1 $342 $245 $25 $-1 $400 forward single #
edge $-1 $246 0 $401 70 $393 $399 forward 7 unknown #
point $-1 -70 0 90 #
coedge $-1 $402 $248 $251 $335 reversed $234 $-1 #
coedge $-1 $248 $402 $255 $339 reversed $234 $-1 #
coedge $-1 $403 $385 $238 $249 reversed $404 $-1 #
straight-curve $-1 70 0 -90 0 0 -1 I I #
coedge $-1 $263 $405 $250 $267 reversed $349 $-1 #
edge $-1 $352 -70 $253 0 $330 $406 forward 7 unknown #
face $-1 $407 $252 $25 $-1 $408 reversed single #
edge $-1 $253 0 $409 70 $385 $406 forward 7 unknown #
point $-1 70 0 -90 #
edge $-1 $258 0 $410 70 $331 $411 forward 7 unknown #
coedge $-1 $405 $263 $256 $341 reversed $349 $-1 #
edge $-1 $410 -70 $171 2.6244062631887405e-031 $340 $351 forward 7 unknown #
face $-1 $412 $257 $25 $-1 $400 forward single #
point $-1 70 0 90 #
coedge $-1 $345 $259 $413 $395 forward $346 $-1 #
coedge $-1 $259 $344 $261 $348 forward $346 $-1 #
loop $-1 $-1 $259 $407 #
coedge $-1 $262 $261 $397 $414 reversed $264 $-1 #
edge $-1 $415 -70 $172 -2.6244062631887405e-031 $261 $353 forward 7 unknown #
loop $-1 $-1 $263 $416 #
vertex $-1 $265 $417 #
straight-curve $-1 0 70 90 -1 0 0 I I #
vertex $-1 $335 $418 #
straight-curve $-1 0 70 -90 1 0 0 I I #
convexity-sys-attrib $-1 $-1 $-1 $271 #
vertex $-1 $271 $419 #
ellipse-curve $-1 -2.6244062631887405e-031 0 15 0 0 1 70 0 0 1 I I #
point $-1 -70 -8.5722444767566408e-015 -90 #
point $-1 -15 1.04744440165294e-013 15 #
convexity-sys-attrib $-1 $-1 $-1 $279 #
vertex $-1 $279 $420 #
ellipse-curve $-1 -2.6244062631887405e-031 0 40 0 0 -1 70 0 0 1 I I #
point $-1 -70 8.5722444767566408e-015 90 #
point $-1 -15 -1.04744440165294e-013 40 #
edge $-1 $421 0 $421 6.2831853071795862 $292 $422 forward 7 unknown #
vertex $-1 $290 $423 #
ellipse-curve $-1 0 0 -12.5 0 0 -1 70 0 0 1 I I #
straight-curve $-1 -70 70 0 0 0 -1 I I #
point $-1 -70 -70 -90 #
straight-curve $-1 -70 0 -90 0 1 0 I I #
point $-1 -70 70 -90 #
face $-1 $327 $424 $25 $-1 $400 forward single #
loop $-1 $-1 $322 $309 #
plane-surface $-1 -70 0 0 1 0 0 0 0 -1 forward_v I I I I #
coedge $-1 $375 $312 $425 $388 forward $376 $-1 #
coedge $-1 $312 $374 $392 $426 forward $376 $-1 #
loop $-1 $-1 $312 $427 #
coedge $-1 $428 $429 $314 $378 forward $430 $-1 #
edge $-1 $258 0 $383 1.5707963267948966 $377 $247 forward 7 unknown #
coedge $-1 $431 $315 $318 $386 reversed $382 $-1 #
coedge $-1 $315 $431 $428 $432 reversed $382 $-1 #
coedge $-1 $433 $425 $311 $316 reversed $434 $-1 #
loop $-1 $-1 $315 $435 #
vertex $-1 $432 $436 #
straight-curve $-1 -2.6244062631887405e-031 -70 -90 0 0 -1 I I #
coedge $-1 $332 $437 $317 $337 reversed $404 $-1 #
edge $-1 $409 -70 $320 2.6244062631887405e-031 $379 $438 forward 7 unknown #
face $-1 $336 $319 $25 $-1 $408 reversed single #
edge $-1 $320 2.6244062631887405e-031 $439 70 $425 $438 forward 7 unknown #
point $-1 -2.6244062631887405e-031 -70 -90 #
coedge $-1 $440 $441 $321 $391 forward $424 $-1 #
edge $-1 $383 1.5707963267948966 $246 3.1415926535897931 $390 $247 forward 7 unknown #
coedge $-1 $442 $322 $375 $426 reversed $372 $-1 #
coedge $-1 $322 $442 $440 $328 reversed $372 $-1 #
coedge $-1 $325 $413 $161 $242 reversed $398 $-1 #
edge $-1 $323 0 $415 70 $413 $443 forward 7 unknown #
point $-1 -70 0 -90 #
coedge $-1 $413 $325 $347 $414 forward $398 $-1 #
loop $-1 $-1 $394 $444 #
straight-curve $-1 -70 0 90 0 -1 0 I I #
plane-surface $-1 0 0 90 0 0 1 1 0 0 forward_v I I I I #
vertex $-1 $328 $445 #
coedge $-1 $331 $330 $405 $446 reversed $234 $-1 #
coedge $-1 $437 $332 $429 $447 reversed $404 $-1 #
loop $-1 $-1 $332 $448 #
coedge $-1 $334 $340 $402 $446 forward $349 $-1 #
straight-curve $-1 70 0 -90 0 -1 0 I I #
face $-1 $449 $346 $25 $-1 $408 reversed single #
plane-surface $-1 0 0 -90 0 0 1 1 0 0 forward_v I I I I #
vertex $-1 $450 $451 #
vertex $-1 $339 $452 #
straight-curve $-1 70 0 90 0 1 0 I I #
face $-1 $435 $430 $25 $-1 $400 forward single #
coedge $-1 $394 $397 $344 $395 reversed $398 $-1 #
edge $-1 $350 -90 $415 90 $347 $453 forward 7 unknown #
vertex $-1 $348 $454 #
face $-1 $448 $349 $25 $-1 $310 reversed single #
point $-1 -70 70 90 #
point $-1 70 70 -90 #
point $-1 -70 -8.5722444767566408e-015 15 #
point $-1 -70 8.5722444767566408e-015 40 #
vertex $-1 $364 $455 #
ellipse-curve $-1 0 0 12.5 0 0 1 70 0 0 1 I I #
point $-1 70 0 -12.5 #
loop $-1 $-1 $390 $371 #
coedge $-1 $381 $456 $374 $388 reversed $434 $-1 #
edge $-1 $439 -70 $323 0 $392 $443 forward 7 unknown #
face $-1 $387 $376 $25 $-1 $408 reversed single #
coedge $-1 $429 $377 $380 $432 forward $430 $-1 #
coedge $-1 $377 $428 $403 $447 forward $430 $-1 #
loop $-1 $-1 $377 $412 #
coedge $-1 $380 $379 $437 $450 reversed $382 $-1 #
edge $-1 $383 -2.6244062631887405e-031 $457 70 $380 $458 forward 7 unknown #
coedge $-1 $456 $381 $441 $459 reversed $434 $-1 #
loop $-1 $-1 $381 $449 #
face $-1 $427 $382 $25 $-1 $460 reversed single #
point $-1 -2.6244062631887405e-031 -70 90 #
coedge $-1 $385 $403 $431 $450 forward $404 $-1 #
straight-curve $-1 0 -70 -90 -1 0 0 I I #
vertex $-1 $426 $461 #
coedge $-1 $441 $390 $393 $328 forward $424 $-1 #
coedge $-1 $390 $440 $433 $459 forward $424 $-1 #
coedge $-1 $393 $392 $456 $462 reversed $372 $-1 #
straight-curve $-1 -70 0 -90 0 1 0 I I #
face $-1 $416 $398 $25 $-1 $373 reversed single #
point $-1 -70 -70 90 #
edge $-1 $410 -90 $352 90 $402 $463 forward 7 unknown #
edge $-1 $457 -70 $258 0 $403 $411 forward 7 unknown #
face $-1 $-1 $404 $25 $-1 $235 reversed single #
face $-1 $444 $434 $25 $-1 $460 reversed single #
edge $-1 $457 -90 $409 90 $437 $464 forward 7 unknown #
point $-1 70 -70 -90 #
point $-1 70 70 90 #
straight-curve $-1 -70 70 0 0 0 -1 I I #
point $-1 -70 70 -90 #
point $-1 70 0 12.5 #
coedge $-1 $425 $433 $442 $462 forward $434 $-1 #
vertex $-1 $447 $465 #
straight-curve $-1 0 -70 90 1 0 0 I I #
edge $-1 $401 -70 $383 -2.6244062631887405e-031 $433 $458 forward 7 unknown #
plane-surface $-1 0 -70 0 0 1 0 0 0 1 forward_v I I I I #
point $-1 -70 -70 -90 #
edge $-1 $401 -90 $439 90 $442 $466 forward 7 unknown #
straight-curve $-1 70 70 0 0 0 -1 I I #
straight-curve $-1 70 -70 0 0 0 -1 I I #
point $-1 70 -70 90 #
straight-curve $-1 -70 -70 0 0 0 -1 I I #
End-of-ACIS-data 