104 62 0 0                              
body $-1 $1 $-1 $2 #
lump $-1 $-1 $3 $0 #
transform $-1 -3.49148336110938e-15 -1 0 1 -3.49148336110938e-15 0 0 0 1 -200 0 0 1 1 0 0 #
shell $-1 $-1 $-1 $4 $1 #
face $5 $6 $7 $3 $-1 $8 0 #
sti_colour_lwattr-sg-attrib $-1 $-1 $-1 $4 4 2 1 0.964999973773956 0.800000011920929 0.699999988079071 0.5 0.5 0 30 0 1 0 0 0.5 #
face $9 $10 $11 $3 $-1 $12 0 #
loop $-1 $-1 $13 $4 #
sphere-surface $-1 3.37507799486048e-14 500 0 20 1 0 0 0 0 1 0 #
sti_colour_lwattr-sg-attrib $-1 $-1 $-1 $6 4 2 1 0.964999973773956 0.800000011920929 0.699999988079071 0.5 0.5 0 30 0 1 0 0 0.5 #
face $14 $15 $16 $3 $-1 $17 0 #
loop $-1 $18 $19 $6 #
cone-surface $-1 0 400 0 0 1 0 20 0 0 1 0 1 0 #
coedge $-1 $13 $13 $19 $20 0 $7 $-1 #
sti_colour_lwattr-sg-attrib $-1 $-1 $-1 $10 4 2 1 0.964999973773956 0.800000011920929 0.699999988079071 0.5 0.5 0 30 0 1 0 0 0.5 #
face $21 $22 $23 $3 $-1 $24 0 #
loop $-1 $25 $26 $10 #
cone-surface $-1 0 155 0 0 1 0 12.5 0 0 1 0.0516550854280401 0.998664984942109 0 #
loop $-1 $-1 $27 $6 #
coedge $-1 $19 $19 $13 $20 1 $11 $-1 #
edge $-1 $28 $28 $13 $29 0 #
sti_colour_lwattr-sg-attrib $-1 $-1 $-1 $15 4 2 1 0.964999973773956 0.800000011920929 0.699999988079071 0.5 0.5 0 30 0 1 0 0 0.5 #
face $30 $31 $32 $3 $-1 $33 0 #
loop $-1 $-1 $34 $15 #
plane-surface $-1 5 0 0 -0 -1 -0 0 0 -1 0 #
loop $-1 $-1 $35 $10 #
coedge $-1 $26 $26 $27 $36 1 $16 $-1 #
coedge $-1 $27 $27 $26 $36 0 $18 $-1 #
vertex $-1 $20 $37 #
ellipse-curve $-1 0 500 0 0 1 0 20 0 0 1 #
sti_colour_lwattr-sg-attrib $-1 $-1 $-1 $22 4 2 1 0.964999973773956 0.800000011920929 0.699999988079071 0.5 0.5 0 30 0 1 0 0 0.5 #
face $38 $-1 $39 $3 $-1 $40 0 #
loop $-1 $41 $42 $22 #
plane-surface $-1 7.5 10 0 0 1 0 0 0 1 0 #
coedge $-1 $34 $34 $43 $44 1 $23 $-1 #
coedge $-1 $35 $35 $42 $45 0 $25 $-1 #
edge $-1 $46 $46 $27 $47 0 #
point $-1 20 500 0 #
sti_colour_lwattr-sg-attrib $-1 $-1 $-1 $31 4 2 1 0.964999973773956 0.800000011920929 0.699999988079071 0.5 0.5 0 30 0 1 0 0 0.5 #
loop $-1 $48 $49 $31 #
torus-surface $-1 0 5 0 0 1 0 10 5 0 0 1 0 #
loop $-1 $-1 $50 $22 #
coedge $-1 $42 $42 $35 $45 1 $32 $-1 #
coedge $-1 $43 $43 $34 $44 0 $48 $-1 #
edge $-1 $51 $51 $43 $52 0 #
edge $-1 $53 $53 $35 $54 0 #
vertex $-1 $36 $55 #
ellipse-curve $-1 0 300 0 0 1 0 20 0 0 1 #
loop $-1 $-1 $43 $31 #
coedge $-1 $49 $49 $50 $56 1 $39 $-1 #
coedge $-1 $50 $50 $49 $56 0 $41 $-1 #
vertex $-1 $44 $57 #
ellipse-curve $-1 0 0 0 0 1 0 10 0 0 1 #
vertex $-1 $45 $58 #
ellipse-curve $-1 0 10 0 0 1 0 5 0 0 1 #
point $-1 20 300 0 #
edge $-1 $59 $59 $50 $60 0 #
point $-1 10 0 0 #
point $-1 5 10 0 #
vertex $-1 $56 $61 #
ellipse-curve $-1 0 10 0 0 1 0 10 0 0 1 #
point $-1 10 10 0 #
