600 0 1 0           
67 GICL ACIS Healer - Source: /gicl/data5/repository/new/bat.sat - 6 0 18 ACIS 6.0.3 Solaris 24 Sat Apr 13 20:16:17 2002 
1 9.999999999999999547e-07 1.000000000000000036e-10 
body $-1 $1 $-1 $-1 #
lump $-1 $-1 $2 $0 #
shell $-1 $-1 $-1 $3 $-1 $1 #
face $4 $5 $6 $2 $-1 $7 forward single #
sti_colour_lwattr-sg-attrib $-1 $-1 $-1 $3 4 2 1 0.964999973773956 0.800000011920929 0.699999988079071 0.5 0.5 0 30 0 1 0 0 0.5 #
face $8 $9 $10 $2 $-1 $11 forward single #
loop $-1 $-1 $12 $3 #
sphere-surface $-1 300 -1.779492460503294782e-12 0 20 -3.491483361109380094e-15 -1 0 0 0 1 forward_v I I I I #
sti_colour_lwattr-sg-attrib $-1 $-1 $-1 $5 4 2 1 0.964999973773956 0.800000011920929 0.699999988079071 0.5 0.5 0 30 0 1 0 0 0.5 #
face $13 $14 $15 $2 $-1 $16 forward single #
loop $-1 $17 $18 $5 #
cone-surface $-1 200 -1.396593344443752019e-12 0 1 -3.491483361109380094e-15 0 -6.982966722218760346e-14 -20 0 1 I I 0 1 20 forward I I I I #
coedge $-1 $12 $12 $18 $19 forward $6 $-1 #
sti_colour_lwattr-sg-attrib $-1 $-1 $-1 $9 4 2 1 0.964999973773956 0.800000011920929 0.699999988079071 0.5 0.5 0 30 0 1 0 0 0.5 #
face $20 $21 $22 $2 $-1 $23 forward single #
loop $-1 $24 $25 $9 #
cone-surface $-1 -45 -5.411799209719539174e-13 0 1 -3.491483361109380094e-15 0 -4.364354201386725059e-14 -12.5 0 1 I I 0.05165508542804009978 0.9986649849421089797 12.5 forward I I I I #
loop $-1 $-1 $26 $5 #
coedge $-1 $18 $18 $12 $19 reversed $10 $-1 #
edge $-1 $27 0 $27 6.283185307179586232 $12 $28 forward 7 unknown #
sti_colour_lwattr-sg-attrib $-1 $-1 $-1 $14 4 2 1 0.964999973773956 0.800000011920929 0.699999988079071 0.5 0.5 0 30 0 1 0 0 0.5 #
face $29 $30 $31 $2 $-1 $32 forward single #
loop $-1 $-1 $33 $14 #
plane-surface $-1 -200.0000000000000284 -5 0 -1 3.491483361109380094e-15 -0 0 -0 -1 forward_v I I I I #
loop $-1 $-1 $34 $9 #
coedge $-1 $25 $25 $26 $35 reversed $15 $-1 #
coedge $-1 $26 $26 $25 $35 forward $17 $-1 #
vertex $-1 $19 $36 #
ellipse-curve $-1 300 -1.745741680554690023e-12 0 1 -3.491483361109380094e-15 0 -6.982966722218760346e-14 -20 0 1 I I #
sti_colour_lwattr-sg-attrib $-1 $-1 $-1 $21 4 2 1 0.964999973773956 0.800000011920929 0.699999988079071 0.5 0.5 0 30 0 1 0 0 0.5 #
face $37 $-1 $38 $2 $-1 $39 forward single #
loop $-1 $40 $41 $21 #
plane-surface $-1 -190.0000000000000284 -7.500000000000034639 0 1 -3.491483361109380094e-15 0 0 0 1 forward_v I I I I #
coedge $-1 $33 $33 $42 $43 reversed $22 $-1 #
coedge $-1 $34 $34 $41 $44 forward $24 $-1 #
edge $-1 $45 0 $45 6.283185307179586232 $26 $46 forward 7 unknown #
point $-1 299.9999999999999432 -20.00000000000174438 0 #
sti_colour_lwattr-sg-attrib $-1 $-1 $-1 $30 4 2 1 0.964999973773956 0.800000011920929 0.699999988079071 0.5 0.5 0 30 0 1 0 0 0.5 #
loop $-1 $47 $48 $30 #
torus-surface $-1 -195 -1.745741680554690087e-14 0 1 -3.491483361109380094e-15 0 10 5 0 0 1 forward_v I I I I #
loop $-1 $-1 $49 $21 #
coedge $-1 $41 $41 $34 $44 reversed $31 $-1 #
coedge $-1 $42 $42 $33 $43 forward $47 $-1 #
edge $-1 $50 0 $50 6.283185307179586232 $42 $51 forward 7 unknown #
edge $-1 $52 0 $52 6.283185307179586232 $34 $53 forward 7 unknown #
vertex $-1 $35 $54 #
ellipse-curve $-1 100 -1.047445008332814014e-12 0 1 -3.491483361109380094e-15 0 -6.982966722218760346e-14 -20 0 1 I I #
loop $-1 $-1 $42 $30 #
coedge $-1 $48 $48 $49 $55 reversed $38 $-1 #
coedge $-1 $49 $49 $48 $55 forward $40 $-1 #
vertex $-1 $43 $56 #
ellipse-curve $-1 -200 0 0 1 -3.491483361109380094e-15 0 -3.491483361109380173e-14 -10 0 1 I I #
vertex $-1 $44 $57 #
ellipse-curve $-1 -190 -3.491483361109380173e-14 0 1 -3.491483361109380094e-15 0 -1.745741680554690087e-14 -5 0 1 I I #
point $-1 99.99999999999994316 -20.00000000000104805 0 #
edge $-1 $58 0 $58 6.283185307179586232 $49 $59 forward 7 unknown #
point $-1 -200.0000000000000284 -10 0 #
point $-1 -190.0000000000000284 -5.000000000000034639 0 #
vertex $-1 $55 $60 #
ellipse-curve $-1 -190 -3.491483361109380173e-14 0 1 -3.491483361109380094e-15 0 -3.491483361109380173e-14 -10 0 1 I I #
point $-1 -190.0000000000000284 -10.00000000000003553 0 #
End-of-ACIS-data 