600 0 1 0           
72 GICL ACIS Healer - Source: /gicl/data5/repository/new/bolt_hex.sat - 6 0 18 ACIS 6.0.3 Solaris 24 Sat Apr 13 20:18:03 2002 
1 9.999999999999999547e-07 1.000000000000000036e-10 
body $-1 $1 $-1 $-1 #
lump $-1 $-1 $2 $0 #
shell $-1 $-1 $-1 $3 $-1 $1 #
face $-1 $4 $5 $2 $-1 $6 forward single #
face $-1 $7 $8 $2 $-1 $9 forward single #
loop $-1 $-1 $10 $3 #
plane-surface $-1 -683.6592617130048666 519.9303045821220621 166.2119601103522939 -1.47707595972036998e-15 -1 3.330669073875469621e-15 -10 1.477075959720375187e-14 1.477075959720370138e-14 forward_v I I I I #
face $-1 $11 $12 $2 $-1 $13 forward single #
loop $-1 $14 $15 $4 #
cone-surface $-1 -686.1592617130048666 531.6303045821221076 166.2119601103522655 1.47707595972036998e-15 1 -3.330669073875469621e-15 5.000000000000001776 -7.385379798601879089e-15 -7.385379798601853846e-15 1 I I 0 1 0.500000000000000222 forward I I I I #
coedge $-1 $10 $10 $16 $17 reversed $5 $-1 #
face $-1 $18 $19 $2 $-1 $20 forward single #
loop $-1 $21 $22 $7 #
plane-surface $-1 -680.9427553620587332 543.3303045821220394 166.2119601103522086 -1.47707595972036998e-15 -1 3.330669073875469621e-15 -10 1.477075959720375187e-14 1.477075959720370138e-14 forward_v I I I I #
loop $-1 $-1 $16 $4 #
coedge $-1 $15 $15 $23 $24 reversed $8 $-1 #
coedge $-1 $16 $16 $10 $17 forward $14 $-1 #
edge $-1 $25 -1.477075959720375305e-15 $25 6.283185307179584456 $16 $26 forward 7 unknown #
face $-1 $27 $28 $2 $-1 $29 reversed single #
loop $-1 $30 $31 $11 #
cone-surface $-1 -686.1592617130048666 545.1303045821221076 166.2119601103522086 1.47707595972036998e-15 1 -3.330669073875469621e-15 5.433012701892221408 -8.024972450820441643e-15 -8.024972450820414821e-15 1 I I 0 1 0.5433012701892221408 forward I I I I #
loop $-1 $-1 $23 $7 #
coedge $-1 $22 $22 $32 $33 reversed $12 $-1 #
coedge $-1 $23 $23 $15 $24 forward $21 $-1 #
edge $-1 $34 -1.477075959720375305e-15 $34 6.283185307179584456 $23 $35 forward 7 unknown #
vertex $-1 $17 $36 #
ellipse-curve $-1 -686.1592617130048666 519.9303045821220621 166.2119601103522939 1.47707595972036998e-15 1 -3.330669073875469621e-15 5.000000000000001776 -7.385379798601879089e-15 -7.385379798601853846e-15 1 I I #
face $-1 $37 $38 $2 $-1 $29 reversed single #
loop $-1 $-1 $39 $18 #
cone-surface $-1 -686.1592617130048666 553.3069212526833098 166.2119601103521802 1.47707595972036998e-15 1 -3.330669073875469621e-15 7.952191674455924009 -1.174599114942736072e-14 -1.174599114942732285e-14 1 I I 0.8660254037844384856 -0.5000000000000003331 0.7952191674455924009 forward I I I I #
loop $-1 $-1 $32 $11 #
coedge $-1 $31 $31 $40 $41 reversed $19 $-1 #
coedge $-1 $32 $32 $22 $33 forward $30 $-1 #
edge $-1 $42 -1.477075959720375305e-15 $42 6.283185307179584456 $32 $43 forward 7 unknown #
vertex $-1 $24 $44 #
ellipse-curve $-1 -686.1592617130048666 543.3303045821220394 166.2119601103522086 1.47707595972036998e-15 1 -3.330669073875469621e-15 5.000000000000001776 -7.385379798601879089e-15 -7.385379798601853846e-15 1 I I #
point $-1 -681.1592617130048666 519.9303045821220621 166.2119601103522939 #
face $-1 $45 $46 $2 $-1 $29 reversed single #
loop $-1 $-1 $47 $27 #
coedge $-1 $48 $49 $50 $51 reversed $28 $-1 #
coedge $-1 $40 $40 $31 $41 forward $52 $-1 #
edge $-1 $53 -1.477075959720375305e-15 $53 6.283185307179584456 $40 $54 forward 7 unknown #
vertex $-1 $33 $55 #
ellipse-curve $-1 -686.1592617130048666 543.3303045821220394 166.2119601103522086 1.47707595972036998e-15 1 -3.330669073875469621e-15 5.433012701892221408 -8.024972450820441643e-15 -8.024972450820414821e-15 1 I I #
point $-1 -681.1592617130048666 543.3303045821220394 166.2119601103522086 #
face $-1 $56 $57 $2 $-1 $29 reversed single #
loop $-1 $-1 $58 $37 #
coedge $-1 $59 $60 $61 $62 reversed $38 $-1 #
coedge $-1 $49 $39 $63 $64 reversed $28 $-1 #
coedge $-1 $39 $48 $65 $66 reversed $28 $-1 #
coedge $-1 $67 $68 $39 $51 forward $69 $-1 #
edge $-1 $70 0.4323269861709765904 $71 0.8646539723419530699 $50 $72 forward 7 unknown #
loop $-1 $73 $40 $74 #
vertex $-1 $41 $75 #
ellipse-curve $-1 -686.1592617130048666 546.9303045821220621 166.2119601103522086 1.47707595972036998e-15 1 -3.269438756184350758e-15 5.433012701892221408 -8.024972450820441643e-15 -8.024972450820414821e-15 1 I I #
point $-1 -680.7262490111125999 543.3303045821220394 166.2119601103522086 #
face $-1 $76 $77 $2 $-1 $29 reversed single #
loop $-1 $-1 $78 $45 #
coedge $-1 $79 $80 $81 $82 reversed $46 $-1 #
coedge $-1 $60 $47 $83 $84 reversed $38 $-1 #
coedge $-1 $47 $59 $85 $86 reversed $38 $-1 #
coedge $-1 $87 $88 $47 $62 forward $89 $-1 #
edge $-1 $90 0 $91 0.4323269861709765349 $61 $92 forward 7 unknown #
coedge $-1 $93 $85 $48 $64 forward $94 $-1 #
edge $-1 $95 -3.141592653589790896 $70 -2.094395102393190822 $63 $96 forward 7 unknown #
coedge $-1 $83 $97 $49 $66 forward $98 $-1 #
edge $-1 $71 0 $95 0.4323269861709758688 $65 $99 forward 7 unknown #
coedge $-1 $100 $50 $97 $101 reversed $69 $-1 #
coedge $-1 $50 $102 $80 $103 forward $69 $-1 #
loop $-1 $-1 $68 $104 #
vertex $-1 $64 $105 #
vertex $-1 $51 $106 #
intcurve-curve $-1 forward { exactcur full nurbs 2 open 2 
	0.4323269861709765904 2 0.8646539723419530699 2 
	-689.8498867130048211 553.6365545821221303 172.6043101220360825 1 
	-691.5627117363726484 553.6365545821221303 171.615410133719962 1.037954849302062277 
	-693.5405117130048893 552.9772879232447167 170.4735267848081151 1 
	0 
	null_surface 
	null_surface 
	nullbs 
	nullbs 
	I I 
	0 
	0 
	0 
	F 1 F 0 } I I #
loop $-1 $-1 $107 $74 #
face $-1 $108 $52 $2 $-1 $109 reversed single #
point $-1 -680.7262490111125999 546.9303045821220621 166.2119601103522086 #
face $-1 $110 $111 $2 $-1 $29 reversed single #
loop $-1 $-1 $112 $56 #
coedge $-1 $113 $114 $115 $116 reversed $57 $-1 #
coedge $-1 $80 $58 $93 $117 reversed $46 $-1 #
coedge $-1 $58 $79 $68 $103 reversed $46 $-1 #
coedge $-1 $118 $119 $58 $82 forward $120 $-1 #
edge $-1 $121 0.4323269861709764239 $122 0.8646539723419526258 $81 $123 forward 7 unknown #
coedge $-1 $124 $65 $59 $84 forward $98 $-1 #
edge $-1 $95 0.4323269861709758688 $90 0.8646539723419517376 $83 $125 forward 7 unknown #
coedge $-1 $63 $126 $60 $86 forward $94 $-1 #
edge $-1 $91 2.094395102393189489 $95 3.141592653589795336 $85 $96 forward 7 unknown #
coedge $-1 $127 $61 $113 $128 forward $89 $-1 #
coedge $-1 $61 $129 $124 $130 forward $89 $-1 #
loop $-1 $-1 $87 $131 #
vertex $-1 $84 $132 #
vertex $-1 $86 $133 #
intcurve-curve $-1 forward { exactcur full nurbs 2 open 2 
	0 2 0.4323269861709765349 2 
	-693.5405117130048893 552.977287923244603 161.9503934358962738 1 
	-691.5627117363726484 553.6365545821220167 160.8085100869844268 1.037954849302061611 
	-689.8498867130048211 553.6365545821220167 159.8196100986683064 1 
	0 
	null_surface 
	null_surface 
	nullbs 
	nullbs 
	I I 
	0 
	0 
	0 
	F 1 F 0 } I I #
coedge $-1 $134 $63 $79 $117 forward $94 $-1 #
loop $-1 $-1 $63 $135 #
vertex $-1 $64 $136 #
ellipse-curve $-1 -686.1592617130048666 553.6365545821220167 166.2119601103521802 1.47707595972036998e-15 1 -3.269438756184350758e-15 7.381250000000001421 -1.090266692768602236e-14 -1.090266692768598449e-14 1 I I #
coedge $-1 $65 $137 $67 $101 forward $98 $-1 #
loop $-1 $-1 $83 $138 #
intcurve-curve $-1 forward { exactcur full nurbs 2 open 2 
	0 2 0.4323269861709758688 2 
	-693.5405117130048893 552.9772879232447167 170.4735267848081151 1 
	-693.5405117130048893 553.6365545821221303 168.1897600869844212 1.0379548493020474 
	-693.5405117130048893 553.6365545821221303 166.2119601103522086 1 
	0 
	null_surface 
	null_surface 
	nullbs 
	nullbs 
	I I 
	0 
	0 
	0 
	F 1 F 0 } I I #
coedge $-1 $102 $67 $139 $140 forward $69 $-1 #
edge $-1 $141 0 $71 0.6046983341122654787 $97 $142 forward 7 unknown #
coedge $-1 $68 $100 $118 $143 forward $69 $-1 #
edge $-1 $122 0 $70 0.4323269861709765904 $68 $144 forward 7 unknown #
face $-1 $74 $69 $2 $-1 $145 forward single #
point $-1 -689.8498867130048211 553.6365545821221303 172.6043101220360825 #
point $-1 -693.5405117130048893 552.9772879232447167 170.4735267848081151 #
coedge $-1 $146 $147 $129 $148 reversed $73 $-1 #
face $-1 $138 $149 $2 $-1 $150 forward single #
plane-surface $-1 -686.1592617130048666 546.9303045821220621 166.2119601103522086 1.47707595972036998e-15 1 -3.269438756184350758e-15 10 -1.477075959720375187e-14 -1.477075959720370138e-14 forward_v I I I I #
face $-1 $151 $152 $2 $-1 $153 forward single #
loop $-1 $-1 $154 $76 #
coedge $-1 $155 $156 $157 $158 reversed $77 $-1 #
coedge $-1 $114 $78 $87 $128 reversed $57 $-1 #
coedge $-1 $78 $113 $126 $159 reversed $57 $-1 #
coedge $-1 $160 $161 $78 $116 forward $149 $-1 #
edge $-1 $162 0 $163 0.4323269861709763129 $115 $164 forward 7 unknown #
edge $-1 $70 -2.094395102393190822 $121 -1.047197551196590304 $93 $96 forward 7 unknown #
coedge $-1 $165 $81 $102 $143 reversed $120 $-1 #
coedge $-1 $81 $166 $156 $167 forward $120 $-1 #
loop $-1 $-1 $119 $151 #
vertex $-1 $117 $168 #
vertex $-1 $103 $169 #
intcurve-curve $-1 forward { exactcur full nurbs 2 open 2 
	0.4323269861709764239 2 0.8646539723419526258 2 
	-682.4686367130047984 553.6365545821221303 172.6043101220360541 1 
	-684.1814617363726256 553.6365545821221303 173.5932101103521745 1.037954849302046956 
	-686.1592617130048666 552.9772879232447167 174.7350934592640215 1 
	0 
	null_surface 
	null_surface 
	nullbs 
	nullbs 
	I I 
	0 
	0 
	0 
	F 1 F 0 } I I #
coedge $-1 $137 $83 $88 $130 reversed $98 $-1 #
intcurve-curve $-1 forward { exactcur full nurbs 2 open 2 
	0.4323269861709758688 2 0.8646539723419517376 2 
	-693.5405117130048893 553.6365545821221303 166.2119601103522086 1 
	-693.5405117130048893 553.6365545821220167 164.2341601337199677 1.037954849302048288 
	-693.5405117130048893 552.977287923244603 161.9503934358962738 1 
	0 
	null_surface 
	null_surface 
	nullbs 
	nullbs 
	I I 
	0 
	0 
	0 
	F 1 F 0 } I I #
coedge $-1 $85 $170 $114 $159 forward $94 $-1 #
coedge $-1 $129 $87 $161 $171 reversed $89 $-1 #
edge $-1 $91 0.4323269861709765349 $162 0.8646539723419527368 $87 $172 forward 7 unknown #
coedge $-1 $88 $127 $107 $148 forward $89 $-1 #
edge $-1 $173 0 $90 0.6046983341122540434 $88 $174 forward 7 unknown #
face $-1 $135 $89 $2 $-1 $175 forward single #
point $-1 -693.5405117130048893 552.977287923244603 161.9503934358962738 #
point $-1 -689.8498867130048211 553.6365545821220167 159.8196100986683064 #
coedge $-1 $170 $93 $155 $176 forward $94 $-1 #
face $-1 $-1 $94 $2 $-1 $177 reversed single #
point $-1 -693.5405117130048893 553.6365545821221303 166.2119601103522086 #
coedge $-1 $97 $124 $147 $178 forward $98 $-1 #
face $-1 $131 $98 $2 $-1 $179 forward single #
coedge $-1 $147 $180 $100 $140 reversed $73 $-1 #
edge $-1 $141 0 $181 0.8523133348911857698 $100 $182 forward 7 unknown #
vertex $-1 $178 $183 #
straight-curve $-1 -693.5405117130048893 546.9303045821220621 170.4735267848081435 1.477075959720370138e-14 10 -3.269438756184350758e-14 I I #
edge $-1 $181 0 $122 0.6046983341122654787 $102 $184 forward 7 unknown #
intcurve-curve $-1 forward { exactcur full nurbs 2 open 2 
	0 2 0.4323269861709765904 2 
	-686.1592617130048666 552.9772879232447167 174.7350934592640499 1 
	-688.1370616896371075 553.6365545821221303 173.5932101103522029 1.037954849302060722 
	-689.8498867130048211 553.6365545821221303 172.6043101220360825 1 
	0 
	null_surface 
	null_surface 
	nullbs 
	nullbs 
	I I 
	0 
	0 
	0 
	F 1 F 0 } I I #
plane-surface $-1 -686.1592617130048666 546.9303045821220621 174.7350934592640499 -0.4999999999999988343 3.569954998833230787e-15 0.8660254037844393737 1.477075959720370138e-14 10 -3.269438756184350758e-14 forward_v I I I I #
coedge $-1 $185 $107 $186 $187 reversed $73 $-1 #
coedge $-1 $107 $139 $137 $178 reversed $73 $-1 #
edge $-1 $188 0 $173 0.8523133348911875462 $129 $189 forward 7 unknown #
loop $-1 $-1 $160 $108 #
plane-surface $-1 -686.1592617130048666 546.9303045821220621 157.6888267614403674 0.4999999999999988343 -3.569954998833230787e-15 -0.8660254037844393737 -1.477075959720370138e-14 -10 3.269438756184350758e-14 forward_v I I I I #
face $-1 $104 $120 $2 $-1 $190 forward single #
loop $-1 $-1 $191 $110 #
plane-surface $-1 -678.7780117130048438 546.9303045821220621 161.9503934358962738 1 -1.477075959720375305e-15 -1.477075959720370178e-15 -1.477075959720370138e-14 -10 3.269438756184350758e-14 forward_v I I I I #
coedge $-1 $192 $193 $191 $194 reversed $111 $-1 #
coedge $-1 $156 $112 $134 $176 reversed $77 $-1 #
coedge $-1 $112 $155 $119 $167 reversed $77 $-1 #
coedge $-1 $195 $191 $112 $158 forward $152 $-1 #
edge $-1 $196 0.4323269861709758688 $197 0.8646539723419517376 $157 $198 forward 7 unknown #
edge $-1 $163 1.047197551196600518 $91 2.094395102393189489 $126 $96 forward 7 unknown #
coedge $-1 $199 $115 $192 $200 forward $149 $-1 #
coedge $-1 $115 $186 $127 $171 forward $149 $-1 #
vertex $-1 $128 $201 #
vertex $-1 $159 $202 #
intcurve-curve $-1 forward { exactcur full nurbs 2 open 2 
	0 2 0.4323269861709763129 2 
	-686.1592617130048666 552.977287923244603 157.6888267614403389 1 
	-684.1814617363726256 553.6365545821220167 158.8307101103521859 1.037954849302059834 
	-682.4686367130049121 553.6365545821220167 159.8196100986683064 1 
	0 
	null_surface 
	null_surface 
	nullbs 
	nullbs 
	I I 
	0 
	0 
	0 
	F 1 F 0 } I I #
coedge $-1 $166 $118 $180 $203 forward $120 $-1 #
coedge $-1 $119 $165 $195 $204 forward $120 $-1 #
edge $-1 $197 0 $121 0.4323269861709764239 $119 $205 forward 7 unknown #
point $-1 -682.4686367130047984 553.6365545821221303 172.6043101220360541 #
point $-1 -686.1592617130048666 552.9772879232447167 174.7350934592640215 #
coedge $-1 $126 $134 $193 $206 forward $94 $-1 #
edge $-1 $188 0 $162 0.6046983341122540434 $161 $207 forward 7 unknown #
intcurve-curve $-1 forward { exactcur full nurbs 2 open 2 
	0.4323269861709765349 2 0.8646539723419527368 2 
	-689.8498867130048211 553.6365545821220167 159.8196100986683064 1 
	-688.1370616896371075 553.6365545821220167 158.8307101103521859 1.037954849302059834 
	-686.1592617130048666 552.977287923244603 157.6888267614403389 1 
	0 
	null_surface 
	null_surface 
	nullbs 
	nullbs 
	I I 
	0 
	0 
	0 
	F 1 F 0 } I I #
vertex $-1 $148 $208 #
straight-curve $-1 -693.5405117130048893 546.9303045821220621 161.9503934358963022 1.477075959720370138e-14 10 -3.269438756184350758e-14 I I #
plane-surface $-1 -693.5405117130048893 546.9303045821220621 161.9503934358963022 -0.5000000000000014433 -2.092879039112855285e-15 -0.8660254037844378194 1.477075959720370138e-14 10 -3.269438756184350758e-14 forward_v I I I I #
edge $-1 $121 -1.047197551196590304 $196 -1.477075959720375108e-15 $134 $96 forward 7 unknown #
plane-surface $-1 -686.1592617130048666 553.6365545821220167 157.6888267614403389 -1.47707595972036998e-15 -1 3.269438756184350758e-15 -10 1.477075959720375187e-14 1.477075959720370138e-14 forward_v I I I I #
edge $-1 $173 0 $141 0.8523133348911841045 $137 $209 forward 7 unknown #
plane-surface $-1 -693.5405117130048893 546.9303045821220621 170.4735267848081435 -1 1.477075959720375305e-15 1.477075959720370178e-15 1.477075959720370138e-14 10 -3.269438756184350758e-14 forward_v I I I I #
coedge $-1 $139 $185 $165 $203 reversed $73 $-1 #
vertex $-1 $140 $210 #
straight-curve $-1 -693.5405117130048893 546.9303045821220621 170.4735267848081435 8.660254037844394404 3.555340736550494838e-15 4.999999999999988454 I I #
point $-1 -693.5405117130048893 546.9303045821220621 170.4735267848081435 #
straight-curve $-1 -686.1592617130048666 546.9303045821220621 174.7350934592640499 1.477075959720370138e-14 10 -3.269438756184350758e-14 I I #
coedge $-1 $180 $146 $211 $212 reversed $73 $-1 #
coedge $-1 $161 $199 $146 $187 forward $149 $-1 #
edge $-1 $213 -0 $188 0.8523133348911857698 $186 $214 forward 7 unknown #
vertex $-1 $148 $215 #
straight-curve $-1 -686.1592617130048666 546.9303045821220621 157.6888267614403674 -8.660254037844378416 2.913904682529299855e-14 5.000000000000014211 I I #
plane-surface $-1 -678.7780117130048438 546.9303045821220621 170.4735267848081151 0.5000000000000014433 2.092879039112855285e-15 0.8660254037844378194 -1.477075959720370138e-14 -10 3.269438756184350758e-14 forward_v I I I I #
coedge $-1 $157 $216 $154 $194 forward $152 $-1 #
coedge $-1 $193 $154 $160 $200 reversed $111 $-1 #
coedge $-1 $154 $192 $170 $206 reversed $111 $-1 #
edge $-1 $217 0 $196 0.4323269861709758688 $191 $218 forward 7 unknown #
coedge $-1 $211 $157 $166 $204 reversed $152 $-1 #
vertex $-1 $176 $219 #
vertex $-1 $167 $220 #
intcurve-curve $-1 forward { exactcur full nurbs 2 open 2 
	0.4323269861709758688 2 0.8646539723419517376 2 
	-678.7780117130048438 553.6365545821220167 166.2119601103521802 1 
	-678.7780117130048438 553.6365545821220167 168.1897600869843927 1.0379548493020474 
	-678.7780117130048438 552.9772879232447167 170.4735267848080866 1 
	0 
	null_surface 
	null_surface 
	nullbs 
	nullbs 
	I I 
	0 
	0 
	0 
	F 1 F 0 } I I #
coedge $-1 $186 $160 $216 $221 reversed $149 $-1 #
edge $-1 $163 0.4323269861709763129 $217 0.8646539723419525147 $160 $222 forward 7 unknown #
point $-1 -686.1592617130048666 552.977287923244603 157.6888267614403389 #
point $-1 -682.4686367130049121 553.6365545821220167 159.8196100986683064 #
edge $-1 $181 0 $223 0.8523133348911875462 $165 $224 forward 7 unknown #
edge $-1 $223 0 $197 0.6046983341122654787 $166 $225 forward 7 unknown #
intcurve-curve $-1 forward { exactcur full nurbs 2 open 2 
	0 2 0.4323269861709764239 2 
	-678.7780117130048438 552.9772879232447167 170.4735267848080866 1 
	-680.7558116896370848 553.6365545821221303 171.615410133719962 1.03795484930205939 
	-682.4686367130047984 553.6365545821221303 172.6043101220360541 1 
	0 
	null_surface 
	null_surface 
	nullbs 
	nullbs 
	I I 
	0 
	0 
	0 
	F 1 F 0 } I I #
edge $-1 $196 -1.477075959720375108e-15 $163 1.047197551196600518 $170 $96 forward 7 unknown #
straight-curve $-1 -686.1592617130048666 546.9303045821220621 157.6888267614403674 1.477075959720370138e-14 10 -3.269438756184350758e-14 I I #
point $-1 -693.5405117130048893 546.9303045821220621 161.9503934358963022 #
straight-curve $-1 -693.5405117130048893 546.9303045821220621 161.9503934358963022 1.477075959720375187e-14 3.269438756184348234e-14 10 I I #
point $-1 -686.1592617130048666 546.9303045821220621 174.7350934592640499 #
coedge $-1 $216 $195 $185 $212 forward $152 $-1 #
edge $-1 $223 -0 $213 0.8523133348911841045 $211 $226 forward 7 unknown #
vertex $-1 $212 $227 #
straight-curve $-1 -678.7780117130048438 546.9303045821220621 161.9503934358962738 -8.660254037844394404 -3.555340736550494838e-15 -4.999999999999988454 I I #
point $-1 -686.1592617130048666 546.9303045821220621 157.6888267614403674 #
coedge $-1 $191 $211 $199 $221 forward $152 $-1 #
vertex $-1 $200 $228 #
intcurve-curve $-1 forward { exactcur full nurbs 2 open 2 
	0 2 0.4323269861709758688 2 
	-678.7780117130048438 552.977287923244603 161.9503934358962454 1 
	-678.7780117130048438 553.6365545821220167 164.2341601337199393 1.037954849302048732 
	-678.7780117130048438 553.6365545821220167 166.2119601103521802 1 
	0 
	null_surface 
	null_surface 
	nullbs 
	nullbs 
	I I 
	0 
	0 
	0 
	F 1 F 0 } I I #
point $-1 -678.7780117130048438 553.6365545821220167 166.2119601103521802 #
point $-1 -678.7780117130048438 552.9772879232447167 170.4735267848080866 #
edge $-1 $213 0 $217 0.6046983341122540434 $216 $229 forward 7 unknown #
intcurve-curve $-1 forward { exactcur full nurbs 2 open 2 
	0.4323269861709763129 2 0.8646539723419525147 2 
	-682.4686367130049121 553.6365545821220167 159.8196100986683064 1 
	-680.7558116896370848 553.6365545821220167 160.8085100869843984 1.037954849302058502 
	-678.7780117130048438 552.977287923244603 161.9503934358962454 1 
	0 
	null_surface 
	null_surface 
	nullbs 
	nullbs 
	I I 
	0 
	0 
	0 
	F 1 F 0 } I I #
vertex $-1 $203 $230 #
straight-curve $-1 -686.1592617130048666 546.9303045821220621 174.7350934592640499 8.660254037844378416 -2.913904682529299855e-14 -5.000000000000014211 I I #
straight-curve $-1 -678.7780117130048438 546.9303045821220621 170.4735267848081151 1.477075959720370138e-14 10 -3.269438756184350758e-14 I I #
straight-curve $-1 -678.7780117130048438 546.9303045821220621 170.4735267848081151 -1.477075959720375187e-14 -3.269438756184348234e-14 -10 I I #
point $-1 -678.7780117130048438 546.9303045821220621 161.9503934358962738 #
point $-1 -678.7780117130048438 552.977287923244603 161.9503934358962454 #
straight-curve $-1 -678.7780117130048438 546.9303045821220621 161.9503934358962738 1.477075959720370138e-14 10 -3.269438756184350758e-14 I I #
point $-1 -678.7780117130048438 546.9303045821220621 170.4735267848081151 #
End-of-ACIS-data 