400 0 1 0           
7 Unknown 13 ACIS 4.0.1 NT 24 Wed Aug 26 17:17:22 1998 
1 9.9999999999999995e-007 1e-010 
body $-1 $1 $-1 $2 #
lump $-1 $-1 $3 $0 #
transform $-1 1 -1.4770759597203753e-015 -1.4770759597203702e-015 -1.4770759597203751e-015 -3.2694387561843484e-015 -1 1.47707595972037e-015 1 -3.2694387561843508e-015 -686.15926171300487 546.93030458212206 166.21196011035221 10 rotate no_reflect no_shear #
shell $-1 $-1 $-1 $4 $-1 $1 #
face $-1 $5 $6 $3 $-1 $7 forward single #
face $-1 $8 $9 $3 $-1 $10 forward single #
loop $-1 $-1 $11 $4 #
plane-surface $-1 0.25000000000000011 -1.1102230246251565e-016 -2.7000000000000002 0 -6.1230317691118863e-017 -1 -1 0 0 forward_v I I I I #
face $-1 $12 $13 $3 $-1 $14 forward single #
loop $-1 $15 $16 $5 #
cone-surface $-1 0 -1.1102230246251565e-016 -1.5300000000000002 0 6.1230317691118863e-017 1 0.50000000000000022 0 0 1 I I 0 1 0.050000000000000024 forward I I I I #
coedge $-1 $11 $11 $17 $18 reversed $6 $-1 #
face $-1 $19 $20 $3 $-1 $21 forward single #
loop $-1 $22 $23 $8 #
plane-surface $-1 0.52165063509461129 0 -0.36000000000000032 0 -6.1230317691118863e-017 -1 -1 0 0 forward_v I I I I #
loop $-1 $-1 $17 $5 #
coedge $-1 $16 $16 $24 $25 reversed $9 $-1 #
coedge $-1 $17 $17 $11 $18 forward $15 $-1 #
edge $-1 $26 $26 $17 $27 forward #
face $-1 $28 $29 $3 $-1 $30 reversed single #
loop $-1 $31 $32 $12 #
cone-surface $-1 0 0 -0.18000000000000016 0 6.1230317691118863e-017 1 0.54330127018922214 0 0 1 I I 0 1 0.054330127018922217 forward I I I I #
loop $-1 $-1 $24 $8 #
coedge $-1 $23 $23 $33 $34 reversed $13 $-1 #
coedge $-1 $24 $24 $16 $25 forward $22 $-1 #
edge $-1 $35 $35 $24 $36 forward #
vertex $-1 $18 $37 #
ellipse-curve $-1 0 -1.1102230246251565e-016 -2.7000000000000002 0 6.1230317691118863e-017 1 0.50000000000000022 0 0 1 I I #
face $-1 $38 $39 $3 $-1 $30 reversed single #
loop $-1 $-1 $40 $19 #
cone-surface $-1 0 0 0.63766166705612992 0 6.1230317691118863e-017 1 0.7952191674455924 0 0 1 I I 0.86602540378443849 -0.50000000000000033 0.079521916744559246 forward I I I I #
loop $-1 $-1 $33 $12 #
coedge $-1 $32 $32 $41 $42 reversed $20 $-1 #
coedge $-1 $33 $33 $23 $34 forward $31 $-1 #
edge $-1 $43 $43 $33 $44 forward #
vertex $-1 $25 $45 #
ellipse-curve $-1 0 0 -0.36000000000000032 0 6.1230317691118863e-017 1 0.50000000000000022 0 0 1 I I #
point $-1 0.50000000000000022 -1.1102230246251565e-016 -2.7000000000000002 #
face $-1 $46 $47 $3 $-1 $30 reversed single #
loop $-1 $-1 $48 $28 #
coedge $-1 $49 $50 $51 $52 reversed $29 $-1 #
coedge $-1 $41 $41 $32 $42 forward $53 $-1 #
edge $-1 $54 $54 $41 $55 forward #
vertex $-1 $34 $56 #
ellipse-curve $-1 0 0 -0.36000000000000032 0 6.1230317691118863e-017 1 0.54330127018922214 0 0 1 I I #
point $-1 0.50000000000000022 0 -0.36000000000000032 #
face $-1 $57 $58 $3 $-1 $30 reversed single #
loop $-1 $-1 $59 $38 #
coedge $-1 $60 $61 $62 $63 reversed $39 $-1 #
coedge $-1 $50 $40 $64 $65 reversed $29 $-1 #
coedge $-1 $40 $49 $66 $67 reversed $29 $-1 #
coedge $-1 $68 $69 $40 $52 forward $70 $-1 #
edge $-1 $71 $72 $51 $73 forward #
loop $-1 $74 $41 $75 #
vertex $-1 $42 $76 #
ellipse-curve $-1 0 1.1021457184401405e-017 0 0 0 1 0.54330127018922214 0 0 1 I I #
point $-1 0.54330127018922214 0 -0.36000000000000032 #
face $-1 $77 $78 $3 $-1 $30 reversed single #
loop $-1 $-1 $79 $46 #
coedge $-1 $80 $81 $82 $83 reversed $47 $-1 #
coedge $-1 $61 $48 $84 $85 reversed $39 $-1 #
coedge $-1 $48 $60 $86 $87 reversed $39 $-1 #
coedge $-1 $88 $89 $48 $63 forward $90 $-1 #
edge $-1 $91 $92 $62 $93 forward #
coedge $-1 $94 $86 $49 $65 forward $95 $-1 #
edge $-1 $96 $71 $64 $97 forward #
coedge $-1 $84 $98 $50 $67 forward $99 $-1 #
edge $-1 $72 $96 $66 $100 forward #
coedge $-1 $101 $51 $98 $102 reversed $70 $-1 #
coedge $-1 $51 $103 $81 $104 forward $70 $-1 #
loop $-1 $-1 $69 $105 #
vertex $-1 $65 $106 #
vertex $-1 $52 $107 #
intcurve-curve $-1 forward { exactcur nurbs 2 open 2 
	0.43232698617097659 2 0.86465397234195307 2 
	-0.36906249999999985 -0.63923500116838838 0.67062500000000025 1 
	-0.54034500233677807 -0.54034500233677663 0.67062500000000036 1.0379548493020623 
	-0.73812500000000003 -0.426156667445592 0.60469833411225959 1 
	0 
	null_surface 
	null_surface 
	nullbs 
	nullbs 
	I I 
	0 
	0 
	0 
	F 1 F 0 } I I #
loop $-1 $-1 $108 $75 #
face $-1 $109 $53 $3 $-1 $110 reversed single #
point $-1 0.54330127018922214 0 0 #
face $-1 $111 $112 $3 $-1 $30 reversed single #
loop $-1 $-1 $113 $57 #
coedge $-1 $114 $115 $116 $117 reversed $58 $-1 #
coedge $-1 $81 $59 $94 $118 reversed $47 $-1 #
coedge $-1 $59 $80 $69 $104 reversed $47 $-1 #
coedge $-1 $119 $120 $59 $83 forward $121 $-1 #
edge $-1 $122 $123 $82 $124 forward #
coedge $-1 $125 $66 $60 $85 forward $99 $-1 #
edge $-1 $96 $91 $84 $126 forward #
coedge $-1 $64 $127 $61 $87 forward $95 $-1 #
edge $-1 $92 $96 $86 $97 forward #
coedge $-1 $128 $62 $114 $129 forward $90 $-1 #
coedge $-1 $62 $130 $125 $131 forward $90 $-1 #
loop $-1 $-1 $88 $132 #
vertex $-1 $85 $133 #
vertex $-1 $87 $134 #
intcurve-curve $-1 forward { exactcur nurbs 2 open 2 
	0 2 0.43232698617097653 2 
	-0.73812500000000003 0.42615666744559211 0.60469833411225959 1 
	-0.54034500233677774 0.54034500233677696 0.67062500000000036 1.0379548493020616 
	-0.36906249999999985 0.63923500116838849 0.67062500000000025 1 
	0 
	null_surface 
	null_surface 
	nullbs 
	nullbs 
	I I 
	0 
	0 
	0 
	F 1 F 0 } I I #
coedge $-1 $135 $64 $80 $118 forward $95 $-1 #
loop $-1 $-1 $64 $136 #
vertex $-1 $65 $137 #
ellipse-curve $-1 0 -3.0615158845524101e-021 0.67062500000000025 0 0 1 0.73812500000000014 0 0 1 I I #
coedge $-1 $66 $138 $68 $102 forward $99 $-1 #
loop $-1 $-1 $84 $139 #
intcurve-curve $-1 forward { exactcur nurbs 2 open 2 
	0 2 0.43232698617097587 2 
	-0.73812500000000003 -0.426156667445592 0.60469833411225959 1 
	-0.73812500000000003 -0.19777999766322291 0.67062500000000025 1.0379548493020474 
	-0.73812500000000003 0 0.67062500000000025 1 
	0 
	null_surface 
	null_surface 
	nullbs 
	nullbs 
	I I 
	0 
	0 
	0 
	F 1 F 0 } I I #
coedge $-1 $103 $68 $140 $141 forward $70 $-1 #
edge $-1 $142 $72 $98 $143 forward #
coedge $-1 $69 $101 $119 $144 forward $70 $-1 #
edge $-1 $123 $71 $69 $145 forward #
face $-1 $75 $70 $3 $-1 $146 forward single #
point $-1 -0.36906249999999985 -0.63923500116838838 0.67062500000000025 #
point $-1 -0.73812499999999981 -0.42615666744559211 0.60469833411225959 #
coedge $-1 $147 $148 $130 $149 reversed $74 $-1 #
face $-1 $139 $150 $3 $-1 $151 forward single #
plane-surface $-1 0 0 0 0 0 1 1 0 0 forward_v I I I I #
face $-1 $152 $153 $3 $-1 $154 forward single #
loop $-1 $-1 $155 $77 #
coedge $-1 $156 $157 $158 $159 reversed $78 $-1 #
coedge $-1 $115 $79 $88 $129 reversed $58 $-1 #
coedge $-1 $79 $114 $127 $160 reversed $58 $-1 #
coedge $-1 $161 $162 $79 $117 forward $150 $-1 #
edge $-1 $163 $164 $116 $165 forward #
edge $-1 $71 $122 $94 $97 forward #
coedge $-1 $166 $82 $103 $144 reversed $121 $-1 #
coedge $-1 $82 $167 $157 $168 forward $121 $-1 #
loop $-1 $-1 $120 $152 #
vertex $-1 $118 $169 #
vertex $-1 $104 $170 #
intcurve-curve $-1 forward { exactcur nurbs 2 open 2 
	0.43232698617097642 2 0.86465397234195263 2 
	0.36906249999999985 -0.63923500116838849 0.67062500000000025 1 
	0.19777999766322216 -0.7381249999999997 0.67062500000000047 1.037954849302047 
	0 -0.85231333489118466 0.60469833411225971 1 
	0 
	null_surface 
	null_surface 
	nullbs 
	nullbs 
	I I 
	0 
	0 
	0 
	F 1 F 0 } I I #
coedge $-1 $138 $84 $89 $131 reversed $99 $-1 #
intcurve-curve $-1 forward { exactcur nurbs 2 open 2 
	0.43232698617097587 2 0.86465397234195174 2 
	-0.73812500000000003 0 0.67062500000000025 1 
	-0.73812500000000003 0.19777999766322296 0.67062500000000025 1.0379548493020483 
	-0.73812500000000003 0.42615666744559211 0.60469833411225959 1 
	0 
	null_surface 
	null_surface 
	nullbs 
	nullbs 
	I I 
	0 
	0 
	0 
	F 1 F 0 } I I #
coedge $-1 $86 $171 $115 $160 forward $95 $-1 #
coedge $-1 $130 $88 $162 $172 reversed $90 $-1 #
edge $-1 $92 $163 $88 $173 forward #
coedge $-1 $89 $128 $108 $149 forward $90 $-1 #
edge $-1 $174 $91 $89 $175 forward #
face $-1 $136 $90 $3 $-1 $176 forward single #
point $-1 -0.73812500000000003 0.42615666744559183 0.60469833411225959 #
point $-1 -0.36906249999999985 0.63923500116838849 0.67062500000000025 #
coedge $-1 $171 $94 $156 $177 forward $95 $-1 #
face $-1 $-1 $95 $3 $-1 $178 reversed single #
point $-1 -0.73812500000000003 0 0.67062500000000025 #
coedge $-1 $98 $125 $148 $179 forward $99 $-1 #
face $-1 $132 $99 $3 $-1 $180 forward single #
coedge $-1 $148 $181 $101 $141 reversed $74 $-1 #
edge $-1 $142 $182 $101 $183 forward #
vertex $-1 $179 $184 #
straight-curve $-1 -0.73812500000000003 -0.42615666744559211 0 0 0 1 I I #
edge $-1 $182 $123 $103 $185 forward #
intcurve-curve $-1 forward { exactcur nurbs 2 open 2 
	0 2 0.43232698617097659 2 
	2.9748336286674917e-016 -0.85231333489118488 0.60469833411225959 1 
	-0.19777999766322163 -0.73812500000000003 0.67062500000000036 1.0379548493020607 
	-0.36906249999999985 -0.63923500116838838 0.67062500000000025 1 
	0 
	null_surface 
	null_surface 
	nullbs 
	nullbs 
	I I 
	0 
	0 
	0 
	F 1 F 0 } I I #
plane-surface $-1 0 -0.85231333489118466 0 -0.50000000000000011 -0.8660254037844386 0 0 0 1 forward_v I I I I #
coedge $-1 $186 $108 $187 $188 reversed $74 $-1 #
coedge $-1 $108 $140 $138 $179 reversed $74 $-1 #
edge $-1 $189 $174 $130 $190 forward #
loop $-1 $-1 $161 $109 #
plane-surface $-1 0 0.85231333489118466 0 0.50000000000000011 0.8660254037844386 0 0 0 -1 forward_v I I I I #
face $-1 $105 $121 $3 $-1 $191 forward single #
loop $-1 $-1 $192 $111 #
plane-surface $-1 0.73812500000000003 0.42615666744559211 0 1 0 0 0 0 -1 forward_v I I I I #
coedge $-1 $193 $194 $192 $195 reversed $112 $-1 #
coedge $-1 $157 $113 $135 $177 reversed $78 $-1 #
coedge $-1 $113 $156 $120 $168 reversed $78 $-1 #
coedge $-1 $196 $192 $113 $159 forward $153 $-1 #
edge $-1 $197 $198 $158 $199 forward #
edge $-1 $164 $92 $127 $97 forward #
coedge $-1 $200 $116 $193 $201 forward $150 $-1 #
coedge $-1 $116 $187 $128 $172 forward $150 $-1 #
vertex $-1 $129 $202 #
vertex $-1 $160 $203 #
intcurve-curve $-1 forward { exactcur nurbs 2 open 2 
	0 2 0.43232698617097631 2 
	-1.1899334514669963e-016 0.85231333489118466 0.60469833411225959 1 
	0.19777999766322202 0.7381249999999997 0.67062500000000036 1.0379548493020598 
	0.36906249999999985 0.63923500116838838 0.67062500000000025 1 
	0 
	null_surface 
	null_surface 
	nullbs 
	nullbs 
	I I 
	0 
	0 
	0 
	F 1 F 0 } I I #
coedge $-1 $167 $119 $181 $204 forward $121 $-1 #
coedge $-1 $120 $166 $196 $205 forward $121 $-1 #
edge $-1 $198 $122 $120 $206 forward #
point $-1 0.36906249999999985 -0.63923500116838849 0.67062500000000025 #
point $-1 1.1102230246251565e-016 -0.85231333489118466 0.60469833411225959 #
coedge $-1 $127 $135 $194 $207 forward $95 $-1 #
edge $-1 $189 $163 $162 $208 forward #
intcurve-curve $-1 forward { exactcur nurbs 2 open 2 
	0.43232698617097653 2 0.86465397234195274 2 
	-0.36906249999999985 0.63923500116838849 0.67062500000000025 1 
	-0.19777999766322207 0.73812499999999981 0.67062500000000036 1.0379548493020598 
	5.9496672573349816e-017 0.85231333489118466 0.60469833411225959 1 
	0 
	null_surface 
	null_surface 
	nullbs 
	nullbs 
	I I 
	0 
	0 
	0 
	F 1 F 0 } I I #
vertex $-1 $149 $209 #
straight-curve $-1 -0.73812500000000003 0.42615666744559211 0 0 0 1 I I #
plane-surface $-1 -0.73812500000000003 0.42615666744559211 0 -0.50000000000000011 0.8660254037844386 0 0 0 1 forward_v I I I I #
edge $-1 $122 $197 $135 $97 forward #
plane-surface $-1 0 0.85231333489118466 0.67062500000000025 0 0 -1 -1 0 0 forward_v I I I I #
edge $-1 $174 $142 $138 $210 forward #
plane-surface $-1 -0.73812500000000003 -0.42615666744559211 0 -1 0 0 0 0 1 forward_v I I I I #
coedge $-1 $140 $186 $166 $204 reversed $74 $-1 #
vertex $-1 $141 $211 #
straight-curve $-1 -0.73812500000000003 -0.42615666744559211 0 0.8660254037844386 -0.50000000000000011 0 I I #
point $-1 -0.73812500000000003 -0.42615666744559211 0 #
straight-curve $-1 0 -0.85231333489118466 0 0 0 1 I I #
coedge $-1 $181 $147 $212 $213 reversed $74 $-1 #
coedge $-1 $162 $200 $147 $188 forward $150 $-1 #
edge $-1 $214 $189 $187 $215 forward #
vertex $-1 $149 $216 #
straight-curve $-1 0 0.85231333489118466 0 -0.8660254037844386 -0.50000000000000011 0 I I #
plane-surface $-1 0.73812500000000003 -0.42615666744559211 0 0.50000000000000011 -0.8660254037844386 0 0 0 -1 forward_v I I I I #
coedge $-1 $158 $217 $155 $195 forward $153 $-1 #
coedge $-1 $194 $155 $161 $201 reversed $112 $-1 #
coedge $-1 $155 $193 $171 $207 reversed $112 $-1 #
edge $-1 $218 $197 $192 $219 forward #
coedge $-1 $212 $158 $167 $205 reversed $153 $-1 #
vertex $-1 $177 $220 #
vertex $-1 $168 $221 #
intcurve-curve $-1 forward { exactcur nurbs 2 open 2 
	0.43232698617097587 2 0.86465397234195174 2 
	0.73812500000000014 0 0.67062500000000025 1 
	0.73812500000000003 -0.19777999766322291 0.67062500000000025 1.0379548493020474 
	0.73812500000000003 -0.426156667445592 0.60469833411225959 1 
	0 
	null_surface 
	null_surface 
	nullbs 
	nullbs 
	I I 
	0 
	0 
	0 
	F 1 F 0 } I I #
coedge $-1 $187 $161 $217 $222 reversed $150 $-1 #
edge $-1 $164 $218 $161 $223 forward #
point $-1 -1.1102230246251565e-016 0.85231333489118466 0.60469833411225959 #
point $-1 0.36906249999999985 0.63923500116838838 0.67062500000000025 #
edge $-1 $182 $224 $166 $225 forward #
edge $-1 $224 $198 $167 $226 forward #
intcurve-curve $-1 forward { exactcur nurbs 2 open 2 
	0 2 0.43232698617097642 2 
	0.73812499999999981 -0.42615666744559211 0.60469833411225959 1 
	0.54034500233677729 -0.54034500233677718 0.67062500000000036 1.0379548493020594 
	0.36906249999999985 -0.63923500116838849 0.67062500000000025 1 
	0 
	null_surface 
	null_surface 
	nullbs 
	nullbs 
	I I 
	0 
	0 
	0 
	F 1 F 0 } I I #
edge $-1 $197 $164 $171 $97 forward #
straight-curve $-1 0 0.85231333489118466 0 0 0 1 I I #
point $-1 -0.73812500000000003 0.42615666744559211 0 #
straight-curve $-1 -0.73812500000000003 0.42615666744559211 0 0 -1 0 I I #
point $-1 0 -0.85231333489118466 0 #
coedge $-1 $217 $196 $186 $213 forward $153 $-1 #
edge $-1 $224 $214 $212 $227 forward #
vertex $-1 $213 $228 #
straight-curve $-1 0.73812500000000003 0.42615666744559211 0 -0.8660254037844386 0.50000000000000011 0 I I #
point $-1 0 0.85231333489118466 0 #
coedge $-1 $192 $212 $200 $222 forward $153 $-1 #
vertex $-1 $201 $229 #
intcurve-curve $-1 forward { exactcur nurbs 2 open 2 
	0 2 0.43232698617097587 2 
	0.73812500000000003 0.426156667445592 0.60469833411225959 1 
	0.73812500000000003 0.19777999766322291 0.67062500000000025 1.0379548493020487 
	0.73812500000000014 0 0.67062500000000025 1 
	0 
	null_surface 
	null_surface 
	nullbs 
	nullbs 
	I I 
	0 
	0 
	0 
	F 1 F 0 } I I #
point $-1 0.73812500000000014 0 0.67062500000000025 #
point $-1 0.73812500000000003 -0.42615666744559183 0.60469833411225959 #
edge $-1 $214 $218 $217 $230 forward #
intcurve-curve $-1 forward { exactcur nurbs 2 open 2 
	0.43232698617097631 2 0.86465397234195251 2 
	0.36906249999999985 0.63923500116838838 0.67062500000000025 1 
	0.54034500233677751 0.54034500233677718 0.67062500000000036 1.0379548493020585 
	0.7381249999999997 0.42615666744559211 0.60469833411225959 1 
	0 
	null_surface 
	null_surface 
	nullbs 
	nullbs 
	I I 
	0 
	0 
	0 
	F 1 F 0 } I I #
vertex $-1 $204 $231 #
straight-curve $-1 0 -0.85231333489118466 0 0.8660254037844386 0.50000000000000011 0 I I #
straight-curve $-1 0.73812500000000003 -0.42615666744559211 0 0 0 1 I I #
straight-curve $-1 0.73812500000000003 -0.42615666744559211 0 0 1 0 I I #
point $-1 0.73812500000000003 0.42615666744559211 0 #
point $-1 0.73812499999999981 0.42615666744559211 0.60469833411225959 #
straight-curve $-1 0.73812500000000003 0.42615666744559211 0 0 0 1 I I #
point $-1 0.73812500000000003 -0.42615666744559211 0 #
End-of-ACIS-data 