600 0 1 0           
73 GICL ACIS Healer - Source: /gicl/data5/repository/new/bracket1a.sat - 6 0 18 ACIS 6.0.3 Solaris 24 Sat Apr 13 20:18:37 2002 
1 9.999999999999999547e-07 1.000000000000000036e-10 
body $-1 $1 $-1 $-1 #
lump $-1 $-1 $2 $0 #
shell $-1 $-1 $-1 $3 $-1 $1 #
face $-1 $4 $5 $2 $-1 $6 forward single #
face $-1 $7 $8 $2 $-1 $9 forward single #
loop $-1 $10 $11 $3 #
torus-surface $-1 -52 52 25 0 0 1 6 -1 1 0 0 forward_v I I I I #
face $-1 $12 $13 $2 $-1 $14 reversed single #
loop $-1 $15 $16 $4 #
cone-surface $-1 -52 52 16 0 0 1 5 0 0 1 I I 0 1 5 forward I I I I #
loop $-1 $-1 $17 $3 #
coedge $-1 $11 $11 $18 $19 forward $5 $-1 #
face $-1 $20 $21 $2 $-1 $22 reversed single #
loop $-1 $23 $24 $7 #
plane-surface $-1 -7.874015892639363301e-07 51.999998425196857 26 0 0 1 1 0 0 forward_v I I I I #
loop $-1 $-1 $18 $4 #
coedge $-1 $16 $16 $25 $26 forward $8 $-1 #
coedge $-1 $17 $17 $27 $28 forward $10 $-1 #
coedge $-1 $18 $18 $11 $19 reversed $15 $-1 #
edge $-1 $29 -3.141592653589800221 $29 3.141592653589786011 $18 $30 forward 7 unknown #
face $-1 $31 $32 $2 $-1 $33 reversed single #
loop $-1 $-1 $25 $12 #
plane-surface $-1 -52 51.99999999999998579 16 0 0 1 1 0 0 forward_v I I I I #
loop $-1 $-1 $27 $7 #
coedge $-1 $34 $35 $36 $37 forward $13 $-1 #
coedge $-1 $25 $25 $16 $26 reversed $21 $-1 #
edge $-1 $38 0 $38 6.283185307179586232 $16 $39 forward 7 unknown #
coedge $-1 $27 $27 $17 $28 reversed $23 $-1 #
edge $-1 $40 -3.141592653589786011 $40 3.141592653589800221 $27 $41 forward 7 unknown #
vertex $-1 $19 $42 #
ellipse-curve $-1 -52 52 25 0 0 1 5 0 0 1 I I #
face $-1 $43 $44 $2 $-1 $45 reversed single #
loop $-1 $46 $47 $20 #
cone-surface $-1 52 150.0853464566929176 33.5 0 0 -1 -5 0 0 1 I I 0 1 5 forward I I I I #
coedge $-1 $48 $24 $49 $50 forward $13 $-1 #
coedge $-1 $24 $51 $52 $53 reversed $13 $-1 #
coedge $-1 $54 $55 $24 $37 reversed $56 $-1 #
edge $-1 $57 -0.785398163397448279 $58 0.6852307422358913103 $24 $59 forward 7 unknown #
vertex $-1 $26 $60 #
ellipse-curve $-1 -52 52 16 0 0 1 5 0 0 1 I I #
vertex $-1 $28 $61 #
ellipse-curve $-1 -52 52 26 0 0 -1 6 0 0 1 I I #
point $-1 -57 52.00000000000003553 25 #
face $-1 $62 $63 $2 $-1 $64 reversed single #
loop $-1 $65 $66 $31 #
cone-surface $-1 52 50.08534645669292473 33.5 0 0 -1 -5 0 0 1 I I 0 1 5 forward I I I I #
loop $-1 $-1 $67 $20 #
coedge $-1 $47 $47 $68 $69 reversed $32 $-1 #
coedge $-1 $70 $34 $71 $72 reversed $13 $-1 #
coedge $-1 $73 $74 $34 $50 reversed $75 $-1 #
edge $-1 $58 12.77917437106616205 $76 38.99999999999999289 $34 $77 forward 7 unknown #
coedge $-1 $35 $70 $78 $79 reversed $13 $-1 #
coedge $-1 $80 $81 $35 $53 forward $82 $-1 #
edge $-1 $57 -3.170700000000039154 $83 3 $52 $84 forward 7 unknown #
coedge $-1 $85 $36 $81 $86 reversed $56 $-1 #
coedge $-1 $36 $87 $73 $88 reversed $56 $-1 #
loop $-1 $-1 $36 $89 #
vertex $-1 $53 $90 #
vertex $-1 $37 $91 #
ellipse-curve $-1 12.99999921259838231 73.17069842519688905 26 0 0 1 -7.071067811865474617 -7.071067811865474617 0 1 I I #
point $-1 -47 52 16 #
point $-1 -58 52.00000000000004263 26 #
face $-1 $92 $93 $2 $-1 $94 reversed single #
loop $-1 $-1 $95 $43 #
cone-surface $-1 0.9999992125984107361 108.3143984251968561 13.29300000000000637 0 0 1 -4.949747468305832676 4.949747468305832676 0 1 I I 0 1 7 forward I I I I #
loop $-1 $-1 $96 $31 #
coedge $-1 $66 $66 $97 $98 reversed $44 $-1 #
coedge $-1 $67 $67 $99 $100 reversed $46 $-1 #
coedge $-1 $68 $68 $47 $69 forward $101 $-1 #
edge $-1 $102 -3.141592653589798889 $102 3.141592653589787343 $68 $103 forward 7 unknown #
coedge $-1 $51 $48 $104 $105 reversed $13 $-1 #
coedge $-1 $106 $107 $48 $72 forward $108 $-1 #
edge $-1 $109 -67 $76 12 $71 $110 forward 7 unknown #
coedge $-1 $111 $49 $55 $88 forward $75 $-1 #
coedge $-1 $49 $111 $106 $112 reversed $75 $-1 #
loop $-1 $-1 $73 $113 #
vertex $-1 $72 $114 #
straight-curve $-1 11.99999921259841074 75.99999842519684989 26 0 -1 0 I I #
coedge $-1 $115 $116 $51 $79 forward $117 $-1 #
edge $-1 $83 -3 $118 67 $78 $119 forward 7 unknown #
coedge $-1 $120 $52 $116 $121 reversed $82 $-1 #
coedge $-1 $52 $122 $54 $86 forward $82 $-1 #
loop $-1 $-1 $123 $124 #
vertex $-1 $53 $125 #
straight-curve $-1 2.999999212598410736 69.99999842519684989 26 0 -1 0 I I #
coedge $-1 $126 $54 $127 $128 reversed $56 $-1 #
edge $-1 $129 -8.809999999999991616 $57 3.190000000000008384 $81 $130 forward 7 unknown #
coedge $-1 $55 $126 $131 $132 reversed $56 $-1 #
edge $-1 $58 -3.190000000000008384 $133 -0.1900000000000083844 $73 $134 forward 7 unknown #
face $-1 $135 $56 $2 $-1 $136 reversed single #
point $-1 2.999999212598382314 73.17069842519688905 26 #
point $-1 11.99999921259841074 63.22082405413068784 26 #
face $-1 $137 $138 $2 $-1 $139 forward single #
loop $-1 $-1 $140 $62 #
cone-surface $-1 0.9999992125984107361 92.31439842519685612 13.29300000000000637 0 0 1 -4.949747468305832676 -4.949747468305832676 0 1 I I 0 1 7 forward I I I I #
coedge $-1 $141 $142 $143 $144 reversed $63 $-1 #
coedge $-1 $96 $96 $145 $146 reversed $65 $-1 #
coedge $-1 $97 $97 $66 $98 forward $147 $-1 #
edge $-1 $148 -3.141592653589800221 $148 3.141592653589786011 $97 $149 forward 7 unknown #
coedge $-1 $99 $99 $67 $100 forward $150 $-1 #
edge $-1 $151 -3.141592653589798889 $151 3.141592653589787343 $99 $152 forward 7 unknown #
loop $-1 $153 $68 $154 #
vertex $-1 $69 $155 #
ellipse-curve $-1 52 150.0853464566929176 29 0 0 1 -5 0 0 1 I I #
coedge $-1 $156 $157 $70 $105 forward $158 $-1 #
edge $-1 $118 9 $109 38.99999999999999289 $104 $159 forward 7 unknown #
coedge $-1 $160 $71 $74 $112 forward $108 $-1 #
coedge $-1 $71 $161 $156 $162 reversed $108 $-1 #
loop $-1 $-1 $106 $163 #
vertex $-1 $72 $164 #
straight-curve $-1 -7.874015892639363301e-07 36.999998425196857 26 1 0 0 I I #
coedge $-1 $74 $73 $165 $166 forward $75 $-1 #
edge $-1 $76 2.75 $167 5.75 $106 $168 forward 7 unknown #
face $-1 $169 $75 $2 $-1 $170 forward single #
point $-1 11.99999921259841074 36.999998425196857 26 #
coedge $-1 $171 $78 $157 $172 reversed $117 $-1 #
coedge $-1 $78 $171 $80 $121 forward $117 $-1 #
loop $-1 $-1 $116 $173 #
vertex $-1 $105 $174 #
straight-curve $-1 -7.874015892639363301e-07 66.99999842519684989 26 -1 0 0 I I #
coedge $-1 $123 $80 $175 $176 reversed $82 $-1 #
edge $-1 $177 -13 $83 13 $116 $178 forward 7 unknown #
coedge $-1 $81 $179 $180 $181 reversed $82 $-1 #
coedge $-1 $182 $120 $183 $184 forward $82 $-1 #
face $-1 $185 $82 $2 $-1 $186 forward single #
point $-1 2.999999212598410736 66.99999842519684989 26 #
coedge $-1 $87 $85 $187 $188 reversed $56 $-1 #
coedge $-1 $180 $189 $85 $128 forward $190 $-1 #
edge $-1 $191 -0.785398163397448279 $129 0.785398163397448279 $127 $192 forward 7 unknown #
vertex $-1 $128 $193 #
straight-curve $-1 2.999999212598382314 73.17069842519688905 29.19000000000000838 0 0 -1 I I #
coedge $-1 $194 $165 $87 $132 forward $195 $-1 #
edge $-1 $133 0.6852307422358913103 $196 0.785398163397448279 $131 $197 forward 7 unknown #
vertex $-1 $132 $198 #
straight-curve $-1 11.99999921259841074 63.22082405413068784 29.19000000000000838 0 0 1 I I #
face $-1 $199 $200 $2 $-1 $201 reversed single #
cone-surface $-1 12.99999921259838231 73.17069842519688905 29.19000000000000838 0 0 -1 -7.071067811865474617 -7.071067811865474617 0 1 I I 0 1 10 forward I I I I #
face $-1 $202 $203 $2 $-1 $204 forward single #
loop $-1 $-1 $205 $92 #
plane-surface $-1 -1.500000787401589264 115.3143984251968561 13.29300000000000637 0 -1 0 0 0 1 forward_v I I I I #
coedge $-1 $206 $207 $208 $209 reversed $93 $-1 #
coedge $-1 $210 $95 $211 $212 reversed $63 $-1 #
coedge $-1 $95 $210 $213 $214 reversed $63 $-1 #
coedge $-1 $215 $216 $95 $144 forward $217 $-1 #
edge $-1 $218 -1.570777136889143666 $219 1.918990575299143043e-05 $143 $220 forward 7 unknown #
coedge $-1 $145 $145 $96 $146 forward $221 $-1 #
edge $-1 $222 -3.141592653589800221 $222 3.141592653589786011 $145 $223 forward 7 unknown #
loop $-1 $195 $97 $169 #
vertex $-1 $98 $224 #
ellipse-curve $-1 52 50.08534645669292473 29 0 0 1 -5 0 0 1 I I #
loop $-1 $221 $99 $225 #
vertex $-1 $100 $226 #
ellipse-curve $-1 52 150.0853464566929176 38 0 0 -1 -5 0 0 1 I I #
loop $-1 $-1 $227 $154 #
face $-1 $113 $101 $2 $-1 $228 forward single #
point $-1 57 150.0853464566928892 29 #
coedge $-1 $229 $104 $107 $162 forward $158 $-1 #
coedge $-1 $104 $230 $115 $172 forward $158 $-1 #
loop $-1 $-1 $231 $232 #
straight-curve $-1 -67.00000078740158926 75.99999842519684989 26 0 -1 0 I I #
coedge $-1 $233 $106 $234 $235 forward $108 $-1 #
coedge $-1 $107 $233 $236 $237 reversed $108 $-1 #
edge $-1 $109 7 $238 19 $156 $239 forward 7 unknown #
face $-1 $240 $108 $2 $-1 $241 reversed single #
point $-1 -67.00000078740158926 36.999998425196857 26 #
coedge $-1 $131 $234 $111 $166 reversed $195 $-1 #
edge $-1 $133 36.77917437106616205 $167 62.99999999999999289 $111 $242 forward 7 unknown #
vertex $-1 $235 $243 #
straight-curve $-1 11.99999921259841074 36.999998425196857 23.25 0 0 1 I I #
face $-1 $244 $147 $2 $-1 $228 forward single #
plane-surface $-1 11.99999921259841074 99.99999842519684989 27.5 1 0 0 0 0 -1 forward_v I I I I #
coedge $-1 $116 $115 $245 $246 reversed $117 $-1 #
edge $-1 $247 -16 $118 10 $157 $248 forward 7 unknown #
face $-1 $249 $117 $2 $-1 $250 forward single #
point $-1 -67.00000078740158926 66.99999842519684989 26 #
coedge $-1 $245 $251 $120 $176 forward $252 $-1 #
edge $-1 $253 -0.31440000000000623 $177 18 $175 $254 forward 7 unknown #
vertex $-1 $121 $255 #
straight-curve $-1 2.999999212598410736 66.99999842519684989 13 0 0 1 I I #
coedge $-1 $122 $182 $256 $257 reversed $82 $-1 #
coedge $-1 $258 $127 $122 $181 forward $190 $-1 #
edge $-1 $129 -26.91464999999999463 $259 -26.91460966540267918 $180 $260 forward 7 unknown #
coedge $-1 $179 $123 $261 $262 reversed $82 $-1 #
coedge $-1 $263 $264 $123 $184 reversed $203 $-1 #
edge $-1 $253 -13.14650000000000318 $265 -6.766546608048537692 $123 $266 forward 7 unknown #
face $-1 $267 $268 $2 $-1 $186 forward single #
plane-surface $-1 2.999999212598410736 69.99999842519684989 13 1 0 0 0 0 1 forward_v I I I I #
coedge $-1 $269 $270 $126 $188 forward $271 $-1 #
edge $-1 $196 -0.1900000000000083844 $191 8.809999999999991616 $187 $272 forward 7 unknown #
coedge $-1 $127 $273 $269 $274 forward $190 $-1 #
loop $-1 $-1 $275 $225 #
vertex $-1 $128 $276 #
ellipse-curve $-1 12.99999921259838231 73.17069842519688905 38 0 0 -1 -7.071067811865474617 -7.071067811865474617 0 1 I I #
point $-1 2.999999212598382314 73.17069842519688905 38 #
coedge $-1 $277 $131 $270 $278 forward $195 $-1 #
loop $-1 $-1 $131 $169 #
vertex $-1 $132 $279 #
ellipse-curve $-1 12.99999921259838231 73.17069842519688905 29 0 0 1 -7.071067811865474617 -7.071067811865474617 0 1 I I #
point $-1 11.99999921259841074 63.22082405413068784 29 #
face $-1 $154 $280 $2 $-1 $281 reversed single #
loop $-1 $-1 $282 $135 #
cone-surface $-1 12.99999921259838231 127.170698425196889 29.19000000000000838 0 0 -1 -7.071067811865474617 7.071067811865474617 0 1 I I 0 1 10 forward I I I I #
face $-1 $283 $284 $2 $-1 $285 forward single #
loop $-1 $-1 $263 $137 #
plane-surface $-1 -1.500000787401589264 85.31439842519685612 13.29300000000000637 0 1 0 0 0 -1 forward_v I I I I #
coedge $-1 $213 $286 $215 $287 reversed $138 $-1 #
coedge $-1 $288 $140 $289 $290 reversed $93 $-1 #
coedge $-1 $140 $288 $291 $292 reversed $93 $-1 #
coedge $-1 $251 $293 $140 $209 forward $252 $-1 #
edge $-1 $294 -0.785398163397448279 $295 0.785398163397448279 $208 $296 forward 7 unknown #
coedge $-1 $142 $141 $297 $298 reversed $63 $-1 #
coedge $-1 $299 $300 $141 $212 forward $284 $-1 #
edge $-1 $301 -13.29300000000000637 $218 -6.913075946878864286 $211 $302 forward 7 unknown #
coedge $-1 $303 $205 $142 $214 forward $138 $-1 #
edge $-1 $219 6.913084876088095854 $304 13.29300000000000637 $213 $305 forward 7 unknown #
coedge $-1 $306 $143 $205 $287 forward $217 $-1 #
coedge $-1 $143 $307 $299 $308 forward $217 $-1 #
loop $-1 $-1 $215 $309 #
vertex $-1 $144 $310 #
vertex $-1 $144 $311 #
ellipse-curve $-1 0.9999992125984107361 108.3143984251968561 6.37992405312114208 0 -1.275601318460485045e-06 -0.9999999999991864286 -0.0001343293402626954958 6.999999998711116334 -8.929209227586557297e-06 0.9999999999991864286 I I #
loop $-1 $190 $145 $225 #
vertex $-1 $146 $312 #
ellipse-curve $-1 52 50.08534645669292473 38 0 0 -1 -5 0 0 1 I I #
point $-1 57 50.08534645669288921 29 #
face $-1 $313 $150 $2 $-1 $314 reversed single #
point $-1 57 150.085346456692946 38 #
coedge $-1 $315 $316 $317 $318 forward $153 $-1 #
plane-surface $-1 39.49999921259841074 99.99999842519684989 29 0 0 -1 -1 0 0 forward_v I I I I #
coedge $-1 $319 $156 $320 $321 reversed $158 $-1 #
coedge $-1 $157 $322 $323 $324 reversed $158 $-1 #
coedge $-1 $322 $319 $325 $326 forward $158 $-1 #
face $-1 $225 $158 $2 $-1 $327 reversed single #
coedge $-1 $161 $160 $328 $329 forward $108 $-1 #
coedge $-1 $165 $277 $160 $235 reversed $195 $-1 #
edge $-1 $167 -7.75 $330 47.25 $160 $331 forward 7 unknown #
coedge $-1 $273 $320 $161 $237 forward $190 $-1 #
edge $-1 $238 -67 $332 67 $161 $333 forward 7 unknown #
vertex $-1 $162 $334 #
straight-curve $-1 -67.00000078740158926 36.999998425196857 19 0 0 1 I I #
face $-1 $335 $336 $2 $-1 $337 reversed single #
plane-surface $-1 -7.874015892639363301e-07 36.999998425196857 19 0 1 0 0 0 -1 forward_v I I I I #
straight-curve $-1 11.99999921259841074 99.99999842519684989 29 0 -1 0 I I #
point $-1 11.99999921259841074 36.999998425196857 29 #
face $-1 $338 $339 $2 $-1 $281 reversed single #
coedge $-1 $323 $175 $171 $246 forward $252 $-1 #
edge $-1 $177 -3 $247 67 $245 $340 forward 7 unknown #
vertex $-1 $246 $341 #
straight-curve $-1 -67.00000078740158926 66.99999842519684989 16 0 0 1 I I #
face $-1 $309 $342 $2 $-1 $343 forward single #
plane-surface $-1 -7.874015892639363301e-07 66.99999842519684989 13 0 -1 0 0 0 -1 forward_v I I I I #
coedge $-1 $175 $208 $263 $344 forward $252 $-1 #
loop $-1 $-1 $345 $283 #
vertex $-1 $184 $346 #
straight-curve $-1 2.999999212598410736 84.99999842519684989 0 0 -1 0 I I #
point $-1 2.999999212598410736 66.99999842519684989 0 #
coedge $-1 $347 $348 $179 $257 forward $342 $-1 #
edge $-1 $259 -12.21499833818160319 $349 19.40503277937292737 $256 $350 forward 7 unknown #
coedge $-1 $351 $180 $348 $352 forward $190 $-1 #
vertex $-1 $181 $353 #
straight-curve $-1 2.999999212598382314 100.0853484251968837 38 0 1 0 I I #
coedge $-1 $354 $355 $182 $262 forward $217 $-1 #
edge $-1 $349 -11.91464577771910349 $265 0.2290542222468319733 $261 $356 forward 7 unknown #
coedge $-1 $291 $183 $251 $344 reversed $203 $-1 #
coedge $-1 $183 $291 $354 $357 reversed $203 $-1 #
vertex $-1 $262 $358 #
straight-curve $-1 2.999999212598410736 85.31439842519685612 13.14650000000000318 0 0 1 I I #
face $-1 $359 $360 $2 $-1 $361 forward single #
loop $-1 $-1 $362 $185 #
coedge $-1 $363 $187 $189 $274 reversed $271 $-1 #
coedge $-1 $187 $363 $194 $278 reversed $271 $-1 #
loop $-1 $-1 $270 $359 #
straight-curve $-1 12.99999921259838231 63.17069842519688905 29.19000000000000838 0 0 1 I I #
coedge $-1 $189 $236 $364 $365 forward $190 $-1 #
edge $-1 $366 -49.50000000000001421 $191 4.500000000000014211 $189 $367 forward 7 unknown #
coedge $-1 $368 $369 $370 $371 forward $190 $-1 #
point $-1 12.99999921259838231 63.17069842519688905 38 #
coedge $-1 $234 $194 $372 $373 reversed $195 $-1 #
edge $-1 $196 -24.25000000000001421 $374 29.74999999999998579 $194 $375 forward 7 unknown #
point $-1 12.99999921259838231 63.17069842519688905 29 #
loop $-1 $-1 $376 $199 #
plane-surface $-1 66.99999921259841074 99.99999842519684989 19 -1 0 0 0 0 1 forward_v I I I I #
coedge $-1 $377 $378 $369 $379 reversed $200 $-1 #
face $-1 $124 $252 $2 $-1 $380 forward single #
loop $-1 $-1 $299 $202 #
plane-surface $-1 -6.000000787401589264 100.3143984251968561 13.29300000000000637 1 0 0 0 0 -1 forward_v I I I I #
coedge $-1 $205 $303 $362 $381 reversed $138 $-1 #
edge $-1 $219 -0.401099999999999568 $382 1.598900000000000432 $215 $383 forward 7 unknown #
coedge $-1 $207 $206 $307 $384 reversed $93 $-1 #
coedge $-1 $300 $299 $206 $290 forward $284 $-1 #
edge $-1 $385 6.913055537257772443 $294 13.29300000000000637 $289 $386 forward 7 unknown #
coedge $-1 $264 $263 $207 $292 forward $203 $-1 #
edge $-1 $295 -13.29300000000000637 $387 -6.913046608048540875 $291 $388 forward 7 unknown #
coedge $-1 $208 $297 $300 $389 forward $252 $-1 #
vertex $-1 $209 $390 #
vertex $-1 $209 $391 #
ellipse-curve $-1 0.9999992125984107361 92.31439842519685612 0 0 0 1 -4.949747468305832676 -4.949747468305832676 0 1 I I #
coedge $-1 $293 $345 $210 $298 forward $252 $-1 #
edge $-1 $304 -0.785398163397448279 $301 0.785398163397448279 $297 $392 forward 7 unknown #
coedge $-1 $289 $211 $216 $308 reversed $284 $-1 #
coedge $-1 $211 $289 $293 $389 reversed $284 $-1 #
vertex $-1 $298 $393 #
straight-curve $-1 -6.000000787401589264 108.3143984251968561 13.29300000000000637 0 0 1 I I #
coedge $-1 $286 $213 $345 $394 reversed $138 $-1 #
vertex $-1 $298 $395 #
straight-curve $-1 0.9999992125984107361 115.3143984251968561 13.29300000000000637 0 0 -1 I I #
coedge $-1 $396 $215 $397 $398 forward $217 $-1 #
coedge $-1 $216 $354 $288 $384 forward $217 $-1 #
edge $-1 $385 -7.928145590859556613 $218 8.071854409153461418 $216 $399 forward 7 unknown #
face $-1 $400 $217 $2 $-1 $401 forward single #
point $-1 -6.000000787401589264 108.3143984251968561 6.37992405312114208 #
point $-1 0.9999992125984107361 115.3143984251968561 6.379915123911910513 #
point $-1 57 50.08534645669296026 38 #
face $-1 $-1 $402 $2 $-1 $403 reversed single #
plane-surface $-1 -7.874015892639363301e-07 99.99999842519684989 38 0 0 -1 -1 0 0 forward_v I I I I #
coedge $-1 $404 $227 $405 $406 forward $153 $-1 #
coedge $-1 $227 $407 $408 $409 reversed $153 $-1 #
coedge $-1 $410 $411 $227 $318 reversed $360 $-1 #
edge $-1 $412 -29.74999999999998579 $413 24.25000000000001421 $227 $414 forward 7 unknown #
coedge $-1 $231 $229 $415 $416 reversed $158 $-1 #
coedge $-1 $236 $417 $229 $321 forward $190 $-1 #
edge $-1 $418 -63 $238 62.99999999999999289 $229 $419 forward 7 unknown #
coedge $-1 $230 $231 $420 $421 forward $158 $-1 #
coedge $-1 $422 $245 $230 $324 forward $252 $-1 #
edge $-1 $247 -33 $423 33 $230 $424 forward 7 unknown #
coedge $-1 $425 $426 $231 $326 reversed $336 $-1 #
edge $-1 $427 -39 $428 -9 $231 $429 forward 7 unknown #
plane-surface $-1 -67.00000078740158926 99.99999842519684989 19 1 0 0 0 0 -1 forward_v I I I I #
coedge $-1 $372 $364 $233 $329 reversed $339 $-1 #
edge $-1 $330 10 $332 19 $328 $430 forward 7 unknown #
vertex $-1 $373 $431 #
straight-curve $-1 19.74999921259841074 36.999998425196857 29 1 0 0 I I #
vertex $-1 $365 $432 #
straight-curve $-1 -7.874015892639363301e-07 36.999998425196857 38 1 0 0 I I #
point $-1 -67.00000078740158926 36.999998425196857 38 #
face $-1 $173 $433 $2 $-1 $434 forward single #
loop $-1 $-1 $435 $240 #
plane-surface $-1 -7.874015892639363301e-07 147.9999984251968499 26 0 0 1 1 0 0 forward_v I I I I #
face $-1 $163 $436 $2 $-1 $170 forward single #
loop $-1 $-1 $437 $244 #
straight-curve $-1 -7.874015892639363301e-07 66.99999842519684989 0 -1 0 0 I I #
point $-1 -67.00000078740158926 66.99999842519684989 0 #
loop $-1 $-1 $256 $249 #
plane-surface $-1 4.302199212598402767 73.17071883486190131 22.37996888245817928 0 0.9999999999991864286 -1.275601318460485045e-06 0 -1.275601318460485045e-06 -0.9999999999991864286 forward_v I I I I #
edge $-1 $295 1.75 $253 3.75 $251 $438 forward 7 unknown #
coedge $-1 $297 $439 $303 $394 forward $252 $-1 #
point $-1 2.999999212598410736 85.31439842519685612 0 #
coedge $-1 $440 $256 $355 $441 forward $342 $-1 #
coedge $-1 $256 $440 $258 $352 reversed $342 $-1 #
vertex $-1 $262 $442 #
straight-curve $-1 2.999999212598382314 73.17072317832619888 25.78500166182833553 0 -1.275601318460485045e-06 -0.9999999999991864286 I I #
coedge $-1 $443 $258 $444 $445 forward $190 $-1 #
edge $-1 $259 -0.8488999999999720103 $446 51.84890000000000043 $258 $447 forward 7 unknown #
point $-1 2.999999212598382314 73.1707387597942045 38 #
coedge $-1 $307 $261 $264 $357 forward $217 $-1 #
coedge $-1 $261 $448 $347 $441 reversed $217 $-1 #
straight-curve $-1 2.999999212598410736 85.0853442029502105 6.379953684133331748 0 0.9999999999991864286 -1.275601318460485045e-06 I I #
edge $-1 $265 -1.598900000000000432 $387 0.401099999999999568 $354 $449 forward 7 unknown #
point $-1 2.999999212598410736 85.31439842519685612 6.379953391951465491 #
face $-1 $89 $271 $2 $-1 $450 forward single #
loop $-1 $-1 $370 $267 #
plane-surface $-1 34.99999921259838231 137.170698425196889 29.19000000000000838 0 -1 0 0 0 -1 forward_v I I I I #
coedge $-1 $451 $397 $286 $381 forward $268 $-1 #
coedge $-1 $270 $269 $437 $452 reversed $271 $-1 #
coedge $-1 $328 $437 $273 $365 reversed $339 $-1 #
edge $-1 $332 -62.99999999999999289 $366 -36.82929999999996085 $364 $453 forward 7 unknown #
vertex $-1 $365 $454 #
straight-curve $-1 17.49999921259839653 63.17069842519688905 38 -1 0 0 I I #
coedge $-1 $417 $275 $455 $456 forward $190 $-1 #
coedge $-1 $275 $457 $282 $379 forward $190 $-1 #
coedge $-1 $411 $410 $275 $371 reversed $360 $-1 #
edge $-1 $458 -4.500000000000014211 $459 49.50000000000001421 $275 $460 forward 7 unknown #
coedge $-1 $437 $328 $277 $373 forward $339 $-1 #
edge $-1 $330 -62.99999999999999289 $374 -36.82929999999996085 $372 $461 forward 7 unknown #
vertex $-1 $373 $462 #
straight-curve $-1 37.24999921259839653 63.17069842519688905 29 1 0 0 I I #
coedge $-1 $408 $455 $410 $463 forward $280 $-1 #
coedge $-1 $464 $282 $465 $466 reversed $200 $-1 #
coedge $-1 $282 $405 $411 $467 reversed $200 $-1 #
edge $-1 $468 -0.7853941299333255799 $458 0.785398163397448279 $369 $469 forward 7 unknown #
plane-surface $-1 -7.874015892639363301e-07 99.99999842519684989 0 0 0 -1 -1 0 0 forward_v I I I I #
edge $-1 $382 6.76658487608809267 $470 13.14650000000000318 $362 $471 forward 7 unknown #
vertex $-1 $381 $472 #
straight-curve $-1 1.401099212598410304 115.3143984251968561 6.379915123911910513 1 0 0 I I #
edge $-1 $387 -1.918990575299143043e-05 $385 1.570777136889143666 $307 $473 forward 7 unknown #
vertex $-1 $384 $474 #
straight-curve $-1 -6.000000787401589264 92.31439842519685612 13.29300000000000637 0 0 -1 I I #
vertex $-1 $384 $475 #
straight-curve $-1 0.9999992125984107361 85.31439842519685612 13.29300000000000637 0 0 1 I I #
edge $-1 $301 -8.157199999999988904 $294 7.842800000000011096 $293 $476 forward 7 unknown #
point $-1 -6.000000787401589264 92.31439842519685612 0 #
point $-1 0.9999992125984107361 85.31439842519685612 0 #
ellipse-curve $-1 0.9999992125984107361 108.3143984251968561 0 0 0 1 -4.949747468305832676 4.949747468305832676 0 1 I I #
point $-1 -6.000000787401589264 108.3143984251968561 0 #
edge $-1 $470 -3.75 $304 -1.75 $345 $477 forward 7 unknown #
point $-1 0.9999992125984107361 115.3143984251968561 0 #
coedge $-1 $478 $306 $479 $480 reversed $217 $-1 #
coedge $-1 $362 $481 $306 $398 reversed $268 $-1 #
edge $-1 $382 30.22905422227124106 $482 42.0853542222809196 $306 $356 forward 7 unknown #
straight-curve $-1 -6.000000787401589264 100.2425440160499619 6.379934349589266418 0 0.9999999999991864286 -1.275601318460485045e-06 I I #
face $-1 $483 $484 $2 $-1 $485 reversed single #
plane-surface $-1 4.302199212598402767 100.1706984252188448 6.379934441235599607 0 1.275601318460485045e-06 0.9999999999991864286 -1 0 0 forward_v I I I I #
loop $-1 $-1 $486 $313 #
plane-surface $-1 -7.874015892639363301e-07 162.9999984251968499 19 0 -1 0 0 0 1 forward_v I I I I #
coedge $-1 $407 $315 $487 $488 reversed $153 $-1 #
coedge $-1 $378 $489 $315 $406 reversed $200 $-1 #
edge $-1 $413 -0.785398163397448279 $490 -0.6852307422358911992 $315 $491 forward 7 unknown #
coedge $-1 $316 $404 $492 $493 reversed $153 $-1 #
coedge $-1 $494 $376 $316 $409 forward $280 $-1 #
edge $-1 $412 37.17070000000003915 $495 63 $408 $496 forward 7 unknown #
coedge $-1 $370 $317 $376 $463 reversed $360 $-1 #
coedge $-1 $317 $370 $378 $467 forward $360 $-1 #
vertex $-1 $318 $497 #
vertex $-1 $406 $498 #
straight-curve $-1 37.24999921259839653 137.170698425196889 29 -1 0 0 I I #
coedge $-1 $499 $500 $319 $416 forward $402 $-1 #
edge $-1 $427 7 $418 19 $319 $501 forward 7 unknown #
coedge $-1 $320 $368 $499 $502 forward $190 $-1 #
vertex $-1 $321 $503 #
straight-curve $-1 -67.00000078740158926 99.99999842519684989 38 0 -1 0 I I #
coedge $-1 $504 $505 $322 $421 reversed $506 $-1 #
edge $-1 $428 -10 $423 16 $322 $507 forward 7 unknown #
coedge $-1 $439 $323 $505 $508 forward $252 $-1 #
vertex $-1 $324 $509 #
straight-curve $-1 -67.00000078740158926 99.99999842519684989 0 0 1 0 I I #
coedge $-1 $510 $325 $500 $511 reversed $336 $-1 #
coedge $-1 $325 $512 $504 $513 reversed $336 $-1 #
vertex $-1 $511 $514 #
vertex $-1 $326 $515 #
straight-curve $-1 -67.00000078740158926 123.9999984251968499 26 0 -1 0 I I #
straight-curve $-1 66.99999921259841074 36.999998425196857 19 0 0 1 I I #
point $-1 66.99999921259841074 36.999998425196857 29 #
point $-1 66.99999921259841074 36.999998425196857 38 #
loop $-1 $-1 $465 $335 #
plane-surface $-1 4.302199212598402767 127.1707188348179614 22.3798999999869821 0 -0.9999999999991864286 1.275601318460485045e-06 0 1.275601318460485045e-06 0.9999999999991864286 forward_v I I I I #
coedge $-1 $512 $510 $464 $516 forward $336 $-1 #
loop $-1 $-1 $517 $338 #
coedge $-1 $364 $372 $363 $452 forward $339 $-1 #
straight-curve $-1 -0.7500007874015892639 85.31439842519685612 0 1 0 0 I I #
coedge $-1 $345 $422 $451 $518 forward $252 $-1 #
coedge $-1 $348 $347 $519 $520 forward $342 $-1 #
edge $-1 $349 1.302199999999992031 $521 53.99999999999999289 $347 $522 forward 7 unknown #
point $-1 2.999999212598410736 73.17069842524080059 6.379968882471196423 #
coedge $-1 $523 $351 $524 $525 forward $190 $-1 #
coedge $-1 $519 $526 $351 $445 reversed $527 $-1 #
edge $-1 $446 -1.458469131535103865e-05 $528 1.570781742103581236 $351 $529 forward 7 unknown #
vertex $-1 $445 $530 #
straight-curve $-1 2.151099212598410304 73.1707387597942045 38 -1 0 0 I I #
coedge $-1 $355 $531 $532 $533 forward $217 $-1 #
straight-curve $-1 1.401099212598410304 85.31439842519685612 6.379953391951465491 -1 0 0 I I #
plane-surface $-1 34.99999921259838231 63.17069842519688905 29.19000000000000838 0 1 0 0 0 1 forward_v I I I I #
coedge $-1 $534 $362 $439 $518 reversed $268 $-1 #
edge $-1 $374 4.904999999999994031 $366 13.90499999999999403 $437 $535 forward 7 unknown #
straight-curve $-1 66.99999921259841074 99.99999842519684989 38 0 1 0 I I #
point $-1 66.99999921259841074 63.17069842519688905 38 #
coedge $-1 $376 $494 $368 $456 reversed $280 $-1 #
edge $-1 $459 37.17070000000003915 $536 63 $455 $453 forward 7 unknown #
coedge $-1 $369 $523 $537 $538 forward $190 $-1 #
vertex $-1 $379 $539 #
vertex $-1 $463 $540 #
straight-curve $-1 17.49999921259839653 137.170698425196889 38 1 0 0 I I #
straight-curve $-1 66.99999921259841074 99.99999842519684989 29 0 1 0 I I #
point $-1 66.99999921259838231 63.17069842519688905 29 #
edge $-1 $459 -13.90499999999999403 $412 -4.904999999999994031 $376 $541 forward 7 unknown #
coedge $-1 $489 $377 $435 $516 reversed $200 $-1 #
coedge $-1 $537 $542 $377 $466 forward $433 $-1 #
edge $-1 $543 -1.095000000000893481 $468 10.90500000000887226 $465 $544 forward 7 unknown #
edge $-1 $458 -8.809999999999991616 $413 0.1900000000000083844 $411 $545 forward 7 unknown #
vertex $-1 $538 $546 #
ellipse-curve $-1 12.99999921259838231 127.170698425196889 38 0 0 -1 -7.071067811865474617 7.071067811865474617 0 1 I I #
vertex $-1 $518 $547 #
straight-curve $-1 2.999999212598410736 115.3143984251968561 13.14650000000000318 0 0 -1 I I #
point $-1 2.999999212598410736 115.3143984251968561 6.379915123911910513 #
ellipse-curve $-1 0.9999992125984107361 92.31439842519685612 6.379944462742233924 0 -1.275601318460485045e-06 -0.9999999999991864286 -0.0001343293402626954958 -6.999999998711116334 8.929209227586557297e-06 0.9999999999991864286 I I #
point $-1 -6.000000787401589264 92.31439842519685612 6.379944462742233924 #
point $-1 0.9999992125984107361 85.31439842519685612 6.379953391951465491 #
straight-curve $-1 -6.000000787401589264 100.1571984251968672 0 0 -1 0 I I #
straight-curve $-1 -0.7500007874015892639 115.3143984251968561 0 -1 0 0 I I #
coedge $-1 $531 $396 $548 $549 forward $217 $-1 #
coedge $-1 $542 $550 $396 $480 forward $433 $-1 #
edge $-1 $551 -53.99999999999999289 $482 -1.302199999999992031 $479 $552 forward 7 unknown #
coedge $-1 $397 $553 $542 $554 reversed $268 $-1 #
vertex $-1 $480 $555 #
face $-1 $556 $527 $2 $-1 $557 reversed single #
loop $-1 $-1 $558 $400 #
cone-surface $-1 -49.69780078740159013 117.1707188348261184 22.3799127560001665 0 -1.275601318460485045e-06 -0.9999999999991864286 -7.071067811865474617 7.071067811859720997 -9.019863423739096187e-06 1 I I 0 1 9.999999999999998224 forward I I I I #
coedge $-1 $500 $492 $559 $560 forward $402 $-1 #
coedge $-1 $517 $559 $404 $488 forward $436 $-1 #
edge $-1 $561 -63 $490 -37.12057437106622615 $487 $242 forward 7 unknown #
coedge $-1 $405 $464 $517 $562 reversed $200 $-1 #
vertex $-1 $488 $563 #
ellipse-curve $-1 12.99999921259838231 127.170698425196889 29 0 0 1 -7.071067811865474617 7.071067811865474617 0 1 I I #
coedge $-1 $486 $564 $407 $493 forward $402 $-1 #
edge $-1 $495 -47.25 $561 7.75 $492 $565 forward 7 unknown #
coedge $-1 $455 $408 $564 $566 forward $280 $-1 #
vertex $-1 $409 $567 #
straight-curve $-1 66.99999921259841074 99.99999842519684989 29 0 1 0 I I #
point $-1 66.99999921259838231 137.170698425196889 29 #
point $-1 12.99999921259838231 137.170698425196889 29 #
coedge $-1 $564 $415 $417 $502 reversed $402 $-1 #
coedge $-1 $415 $486 $425 $511 forward $402 $-1 #
straight-curve $-1 -67.00000078740158926 162.9999984251968499 19 0 0 1 I I #
edge $-1 $536 -67 $418 67 $499 $568 forward 7 unknown #
point $-1 -67.00000078740158926 162.9999984251968499 38 #
coedge $-1 $569 $420 $426 $513 forward $506 $-1 #
coedge $-1 $420 $569 $422 $508 reversed $506 $-1 #
loop $-1 $-1 $569 $570 #
straight-curve $-1 -67.00000078740158926 132.9999984251968499 16 0 0 -1 I I #
edge $-1 $423 -67 $571 3 $422 $572 forward 7 unknown #
point $-1 -67.00000078740158926 132.9999984251968499 0 #
coedge $-1 $435 $425 $573 $574 forward $336 $-1 #
edge $-1 $575 -12 $427 67 $500 $576 forward 7 unknown #
coedge $-1 $426 $435 $553 $577 reversed $336 $-1 #
edge $-1 $428 -67 $578 3 $504 $579 forward 7 unknown #
point $-1 -67.00000078740158926 162.9999984251968499 26 #
point $-1 -67.00000078740158926 132.9999984251968499 26 #
edge $-1 $580 -0.6852307422358911992 $543 0.7853956606549074015 $435 $581 forward 7 unknown #
coedge $-1 $573 $487 $489 $562 forward $436 $-1 #
edge $-1 $571 -48 $470 -30.31440000000000623 $439 $254 forward 7 unknown #
coedge $-1 $532 $444 $440 $520 reversed $527 $-1 #
edge $-1 $521 -16 $446 15.62003111755452878 $440 $582 forward 7 unknown #
vertex $-1 $441 $583 #
straight-curve $-1 4.302199212598402767 73.17069842524080059 6.379968882471196423 -1 0 0 I I #
coedge $-1 $457 $443 $558 $584 forward $190 $-1 #
coedge $-1 $585 $586 $443 $525 reversed $587 $-1 #
edge $-1 $528 -16.91461987021605751 $588 17.08538012981159682 $443 $589 forward 7 unknown #
coedge $-1 $444 $532 $585 $590 reversed $527 $-1 #
loop $-1 $-1 $444 $483 #
vertex $-1 $445 $591 #
ellipse-curve $-1 -49.69780078740159013 83.17073875980233311 38 0 0 -1 -0.0001458469131483397518 -9.999999998944570478 0 0.9999999999991862065 I I #
point $-1 -49.69780078740159013 73.1707387597942045 38 #
coedge $-1 $448 $478 $592 $593 reversed $217 $-1 #
coedge $-1 $526 $519 $448 $533 reversed $527 $-1 #
edge $-1 $594 -0.785398163397448279 $521 0.78539816339744839 $448 $595 forward 7 unknown #
coedge $-1 $553 $451 $569 $596 reversed $268 $-1 #
straight-curve $-1 66.99999921259841074 63.17069842519688905 24.09500000000000597 0 0 1 I I #
vertex $-1 $502 $597 #
coedge $-1 $550 $465 $457 $538 reversed $433 $-1 #
edge $-1 $598 -51.84890000000000043 $468 0.8489000000813149427 $457 $599 forward 7 unknown #
point $-1 12.99999921259838231 137.170698425196889 38 #
point $-1 66.99999921259841074 137.170698425196889 38 #
straight-curve $-1 66.99999921259841074 137.170698425196889 24.09500000000000597 0 0 -1 I I #
coedge $-1 $465 $479 $481 $554 forward $433 $-1 #
vertex $-1 $516 $600 #
straight-curve $-1 2.999999212642968871 127.1707248494057581 27.09500000000000242 3.370679862380540108e-12 1.275601318433491376e-06 0.9999999999991862065 I I #
straight-curve $-1 12.99999921259838231 137.170698425196889 29.19000000000000838 0 0 -1 I I #
point $-1 2.999999212679725247 127.170738759838116 38 #
point $-1 2.999999212598410736 115.3143984251968561 0 #
coedge $-1 $601 $602 $478 $549 reversed $484 $-1 #
edge $-1 $551 -0.78539816339744839 $603 0.785398163397448279 $478 $604 forward 7 unknown #
coedge $-1 $479 $537 $601 $605 forward $433 $-1 #
vertex $-1 $549 $606 #
straight-curve $-1 4.302199212598402767 127.170698425196889 6.379899999999999238 1 0 0 I I #
coedge $-1 $481 $534 $512 $577 forward $268 $-1 #
edge $-1 $482 -11.31001353648715835 $543 8.310086463528804757 $542 $607 forward 7 unknown #
point $-1 2.999999212598410736 127.170698425196889 6.379899999999999238 #
face $-1 $570 $587 $2 $-1 $608 forward single #
cone-surface $-1 -49.69780078740159013 83.17071883485377271 22.37995612644499488 0 -1.275601318460485045e-06 -0.9999999999991864286 -7.071067811865474617 -7.071067811859720997 9.019863423739096187e-06 1 I I 0 1 9.999999999999998224 forward I I I I #
coedge $-1 $602 $601 $523 $584 reversed $484 $-1 #
coedge $-1 $487 $573 $486 $560 reversed $436 $-1 #
edge $-1 $561 -5.75 $575 -2.75 $486 $609 forward 7 unknown #
vertex $-1 $493 $610 #
edge $-1 $490 0.1900000000000083844 $580 3.190000000000008384 $517 $611 forward 7 unknown #
point $-1 11.99999921259841074 137.120572796263076 29 #
coedge $-1 $492 $499 $494 $566 reversed $402 $-1 #
straight-curve $-1 19.74999921259841074 162.9999984251968499 29 -1 0 0 I I #
edge $-1 $495 10 $536 19 $564 $612 forward 7 unknown #
point $-1 66.99999921259841074 162.9999984251968499 29 #
straight-curve $-1 -7.874015892639363301e-07 162.9999984251968499 38 -1 0 0 I I #
coedge $-1 $505 $504 $534 $596 forward $506 $-1 #
face $-1 $232 $506 $2 $-1 $613 forward single #
vertex $-1 $508 $614 #
straight-curve $-1 -7.874015892639363301e-07 132.9999984251968499 0 1 0 0 I I #
coedge $-1 $559 $517 $510 $574 reversed $436 $-1 #
edge $-1 $575 -39 $580 -13.12057437106622615 $510 $615 forward 7 unknown #
vertex $-1 $574 $616 #
straight-curve $-1 -7.874015892639363301e-07 162.9999984251968499 26 -1 0 0 I I #
edge $-1 $578 -63 $543 -57.17072502742544771 $553 $84 forward 7 unknown #
vertex $-1 $513 $617 #
straight-curve $-1 -7.874015892639363301e-07 132.9999984251968499 26 1 0 0 I I #
vertex $-1 $574 $618 #
ellipse-curve $-1 12.99999921259838231 127.170698425196889 26 0 0 1 -7.071067811865474617 7.071067811865474617 0 1 I I #
straight-curve $-1 -49.69780078740159013 73.17071883486190131 22.37996888245817928 0 1.275601318460485045e-06 0.9999999999991864286 I I #
point $-1 -49.69780078740159013 73.17069842524080059 6.379968882471196423 #
edge $-1 $588 -1.570781742103581236 $598 1.458469131535103865e-05 $523 $619 forward 7 unknown #
coedge $-1 $592 $524 $526 $590 forward $587 $-1 #
coedge $-1 $524 $592 $602 $620 forward $587 $-1 #
loop $-1 $-1 $524 $556 #
vertex $-1 $584 $621 #
straight-curve $-1 -59.69780078740160434 100.0853586300183906 38 0 1 0 I I #
edge $-1 $528 -15.62004387356771318 $594 16.00000000000000355 $585 $622 forward 7 unknown #
point $-1 -59.69780078740160434 83.17073875980233311 38 #
coedge $-1 $586 $585 $531 $593 forward $587 $-1 #
edge $-1 $594 -17.00000000000000355 $603 17.00000000000000355 $592 $623 forward 7 unknown #
vertex $-1 $533 $624 #
ellipse-curve $-1 -49.69780078740159013 83.17069842523267198 6.379956126458010246 0 1.275601318460485045e-06 0.9999999999991864286 -7.071067811865474617 -7.071067811859720997 9.019863423739096187e-06 1 I I #
edge $-1 $578 -13 $571 13 $569 $625 forward 7 unknown #
point $-1 66.99999921259841074 162.9999984251968499 38 #
vertex $-1 $584 $626 #
straight-curve $-1 2.151099212598410304 127.170738759838116 38 1 0 0 I I #
point $-1 2.999999212598410736 127.1707234526222976 26 #
coedge $-1 $558 $548 $550 $605 reversed $484 $-1 #
coedge $-1 $548 $558 $586 $620 reversed $484 $-1 #
vertex $-1 $593 $627 #
ellipse-curve $-1 -49.69780078740159013 117.1706984252050177 6.379912756013183639 0 1.275601318460485045e-06 0.9999999999991864286 -7.071067811865474617 7.071067811859720997 -9.019863423739096187e-06 1 I I #
edge $-1 $598 -15.62010000002572596 $551 16 $550 $628 forward 7 unknown #
point $-1 -49.69780078740159013 127.170698425196889 6.379899999999999238 #
straight-curve $-1 2.999999212598410736 127.1707128522650407 17.68991353647795606 0 1.275601318460485045e-06 0.9999999999991864286 I I #
plane-surface $-1 -59.69780078740160434 100.1707188348399313 22.37993444122258069 1 0 0 0 1.275601318460485045e-06 0.9999999999991864286 forward_v I I I I #
straight-curve $-1 11.99999921259841074 162.9999984251968499 23.25 0 0 -1 I I #
point $-1 11.99999921259841074 162.9999984251968499 29 #
straight-curve $-1 11.99999921259841074 137.120572796263076 29.19000000000000838 0 0 -1 I I #
straight-curve $-1 66.99999921259841074 162.9999984251968499 19 0 0 1 I I #
plane-surface $-1 -7.874015892639363301e-07 132.9999984251968499 13 0 1 0 0 0 1 forward_v I I I I #
point $-1 2.999999212598410736 132.9999984251968499 0 #
straight-curve $-1 11.99999921259841074 123.9999984251968499 26 0 -1 0 I I #
point $-1 11.99999921259841074 162.9999984251968499 26 #
point $-1 2.999999212598410736 132.9999984251968499 26 #
point $-1 11.99999921259841074 137.120572796263076 26 #
ellipse-curve $-1 -49.69780078740159013 117.1707387598299874 38 0 0 -1 -0.0001458469131483397518 9.999999998944570478 0 0.9999999999991862065 I I #
edge $-1 $603 -16 $588 15.62008724401254156 $586 $629 forward 7 unknown #
point $-1 -59.69780078740160434 117.1707387598299874 38 #
straight-curve $-1 -59.69780078740160434 83.17071883485377271 22.37995612644499488 0 -1.275601318460485045e-06 -0.9999999999991864286 I I #
straight-curve $-1 -59.69780078740160434 100.1706984252188448 6.379934441235599607 0 0.9999999999991864286 -1.275601318460485045e-06 I I #
point $-1 -59.69780078740160434 83.17069842523267198 6.379956126458010246 #
straight-curve $-1 2.999999212598410736 132.9999984251968499 13 0 0 -1 I I #
point $-1 -49.69780078740159013 127.170738759838116 38 #
point $-1 -59.69780078740160434 117.1706984252050177 6.379912756013183639 #
straight-curve $-1 -49.69780078740159013 127.1707188348179614 22.3798999999869821 0 -1.275601318460485045e-06 -0.9999999999991864286 I I #
straight-curve $-1 -59.69780078740160434 117.1707188348261184 22.3799127560001665 0 1.275601318460485045e-06 0.9999999999991864286 I I #
End-of-ACIS-data 