201 0 1 0           
7 Unknown 11 ACIS 2.1 NT 24 Fri Nov 14 18:27:54 1997 
-1 9.9999999999999995e-007 1e-010 
body $-1 $1 $-1 $2 #
lump $-1 $3 $4 $0 #
transform $-1 -1 0 0 0 0 1 0 1 0 -0.0021000000000000003 1.0286693372107969e-018 -0.10000000000000001 1 rotate no_reflect no_shear #
lump $-1 $5 $6 $0 #
shell $-1 $-1 $-1 $7 $-1 $1 #
lump $-1 $8 $9 $0 #
shell $-1 $-1 $-1 $10 $-1 $3 #
face $-1 $11 $12 $4 $-1 $13 reversed single #
lump $-1 $-1 $14 $0 #
shell $-1 $-1 $-1 $15 $-1 $5 #
face $-1 $16 $17 $6 $-1 $18 reversed single #
face $-1 $19 $20 $4 $-1 $21 forward single #
loop $-1 $22 $23 $7 #
cone-surface $-1 104.70564003160239 -0.87036216495176588 14.0037 0 0 1 7.5 0 0 1 I I 0 1 forward I I I I #
shell $-1 $-1 $-1 $24 $-1 $8 #
face $-1 $-1 $-1 $9 $-1 $25 forward single #
face $-1 $26 $27 $6 $-1 $28 reversed single #
loop $-1 $-1 $29 $10 #
cone-surface $-1 -1.2364000000000033 -11.313999999999986 116.63250000000002 0 1 0 9.8994949366116654 0 9.8994949366116654 1 I I 0 1 forward I I I I #
face $-1 $30 $31 $4 $-1 $32 reversed single #
loop $-1 $-1 $33 $11 #
plane-surface $-1 104.76360000000001 -15.9 14.0037 0 -1 0 -1 0 0 forward_v I I I I #
loop $-1 $-1 $34 $7 #
coedge $-1 $23 $23 $35 $36 1 $12 $-1 #
face $-1 $-1 $-1 $14 $-1 $37 forward single #
sphere-surface $-1 -0.0021000000000000003 0 -1.0286693372107969e-018 0.099999999889001795 1 0 0 0 0 1 forward_v I I I I #
face $-1 $38 $39 $6 $-1 $40 forward single #
loop $-1 $-1 $41 $16 #
cone-surface $-1 -1.2364000000000033 -11.313999999999986 84.632499999999993 0 1 0 9.8994949366116654 0 -9.8994949366116654 1 I I 0 1 forward I I I I #
coedge $-1 $42 $43 $44 $45 1 $17 $-1 #
face $-1 $46 $47 $4 $-1 $48 reversed single #
loop $-1 $-1 $49 $19 #
plane-surface $-1 104.76360000000001 14.1 14.0037 0 -1 0 -1 0 0 forward_v I I I I #
coedge $-1 $50 $51 $52 $53 0 $20 $-1 #
coedge $-1 $34 $34 $54 $55 1 $22 $-1 #
coedge $-1 $35 $35 $23 $36 0 $47 $-1 #
edge $-1 $56 $56 $35 $57 forward #
sphere-surface $-1 0 0 0 0.044059618651215028 1 0 0 0 0 1 forward_v I I I I #
face $-1 $58 $59 $6 $-1 $60 forward single #
loop $-1 $-1 $61 $26 #
plane-surface $-1 3.7635999999999967 -11.313999999999986 130.63250000000002 0 0 -1 0 2 0 forward_v I I I I #
coedge $-1 $62 $63 $64 $65 1 $27 $-1 #
coedge $-1 $66 $29 $67 $68 1 $17 $-1 #
coedge $-1 $29 $66 $69 $70 1 $17 $-1 #
coedge $-1 $71 $72 $29 $45 0 $73 $-1 #
edge $-1 $74 $75 $44 $76 forward #
face $-1 $77 $78 $4 $-1 $79 reversed single #
loop $-1 $80 $35 $30 #
plane-surface $-1 104.76360000000001 -0.90000000000000002 34.003700000000002 0 0 -1 0 -1 0 forward_v I I I I #
coedge $-1 $81 $82 $83 $84 0 $31 $-1 #
coedge $-1 $85 $33 $86 $87 0 $20 $-1 #
coedge $-1 $33 $85 $88 $89 0 $20 $-1 #
coedge $-1 $90 $91 $33 $53 1 $92 $-1 #
edge $-1 $93 $94 $52 $95 forward #
coedge $-1 $54 $54 $34 $55 0 $96 $-1 #
edge $-1 $97 $97 $54 $98 forward #
vertex $-1 $36 $99 #
ellipse-curve $-1 104.70564003160239 -0.87036216495176588 34.003700000000002 0 0 -1 7.5 0 0 1 I I #
face $-1 $100 $101 $6 $-1 $102 forward single #
loop $-1 $-1 $103 $38 #
plane-surface $-1 3.7635999999999967 -11.313999999999986 70.632499999999993 0 0 1 0 -2 0 forward_v I I I I #
coedge $-1 $69 $104 $71 $105 1 $39 $-1 #
coedge $-1 $106 $41 $107 $108 1 $27 $-1 #
coedge $-1 $41 $106 $109 $110 1 $27 $-1 #
coedge $-1 $111 $112 $41 $65 0 $113 $-1 #
edge $-1 $114 $115 $64 $116 forward #
coedge $-1 $43 $42 $117 $118 1 $17 $-1 #
coedge $-1 $119 $120 $42 $68 0 $101 $-1 #
edge $-1 $121 $74 $67 $122 forward #
coedge $-1 $123 $61 $43 $70 0 $39 $-1 #
edge $-1 $75 $124 $69 $125 forward #
coedge $-1 $126 $44 $61 $105 0 $73 $-1 #
coedge $-1 $44 $127 $119 $128 0 $73 $-1 #
loop $-1 $-1 $71 $129 #
vertex $-1 $45 $130 #
vertex $-1 $45 $131 #
ellipse-curve $-1 -1.2364000000000033 -25.140151893757714 116.63250000000002 0 -0.99999999999918643 -1.275601318460485e-006 0.00026865868052539099 -1.7858418455173115e-005 13.999999997422233 0.99999999999918643 I I #
face $-1 $132 $96 $4 $-1 $133 reversed single #
loop $-1 $-1 $134 $46 #
plane-surface $-1 134.7636 -0.90000000000000002 14.0037 -1 0 0 0 1 0 forward_v I I I I #
loop $-1 $-1 $135 $30 #
coedge $-1 $136 $49 $137 $138 0 $31 $-1 #
coedge $-1 $49 $136 $139 $140 0 $31 $-1 #
coedge $-1 $91 $90 $49 $84 1 $92 $-1 #
edge $-1 $141 $142 $83 $143 forward #
coedge $-1 $51 $50 $144 $145 0 $20 $-1 #
coedge $-1 $146 $147 $50 $87 1 $148 $-1 #
edge $-1 $94 $149 $86 $150 forward #
coedge $-1 $135 $151 $51 $89 1 $80 $-1 #
edge $-1 $152 $93 $88 $153 forward #
coedge $-1 $83 $52 $151 $154 0 $92 $-1 #
coedge $-1 $52 $83 $146 $155 1 $92 $-1 #
loop $-1 $-1 $90 $132 #
vertex $-1 $53 $156 #
vertex $-1 $53 $157 #
straight-curve $-1 74.763600000000011 -15.9 14.0037 0 0 -1 I I #
loop $-1 $148 $54 $77 #
vertex $-1 $55 $158 #
ellipse-curve $-1 104.70564003160239 -0.87036216495176588 -5.9962999999999997 0 0 1 7.5 0 0 1 I I #
point $-1 97.205640031602385 -0.87036216495181828 34.003700000000002 #
face $-1 $159 $113 $6 $-1 $160 forward single #
loop $-1 $-1 $119 $58 #
plane-surface $-1 12.763599999999997 -11.313999999999986 100.63249999999999 -1 0 0 0 -2 0 forward_v I I I I #
coedge $-1 $109 $161 $111 $162 1 $59 $-1 #
coedge $-1 $61 $123 $163 $164 1 $39 $-1 #
edge $-1 $75 $165 $71 $166 forward #
coedge $-1 $63 $62 $127 $167 1 $27 $-1 #
coedge $-1 $120 $119 $62 $108 0 $101 $-1 #
edge $-1 $168 $114 $107 $169 forward #
coedge $-1 $170 $103 $63 $110 0 $59 $-1 #
edge $-1 $115 $171 $109 $172 forward #
coedge $-1 $173 $64 $103 $162 0 $113 $-1 #
coedge $-1 $64 $117 $120 $174 0 $113 $-1 #
loop $-1 $-1 $175 $100 #
vertex $-1 $65 $176 #
vertex $-1 $65 $177 #
ellipse-curve $-1 -1.2364000000000033 -37.899999999999999 84.632499999999993 0 1 0 9.8994949366116654 0 -9.8994949366116654 1 I I #
coedge $-1 $112 $175 $66 $118 0 $113 $-1 #
edge $-1 $124 $121 $117 $178 forward #
coedge $-1 $107 $67 $72 $128 1 $101 $-1 #
coedge $-1 $67 $107 $112 $174 1 $101 $-1 #
vertex $-1 $118 $179 #
straight-curve $-1 12.763599999999997 -11.313999999999986 116.63250000000002 0 2 0 I I #
coedge $-1 $104 $69 $175 $180 1 $39 $-1 #
vertex $-1 $118 $181 #
straight-curve $-1 -1.2364000000000033 -11.313999999999986 130.63250000000002 0 -2 0 I I #
coedge $-1 $182 $71 $183 $184 0 $73 $-1 #
coedge $-1 $72 $185 $106 $167 0 $73 $-1 #
edge $-1 $168 $74 $72 $186 forward #
face $-1 $187 $73 $6 $-1 $188 forward single #
point $-1 12.763599999999997 -25.140151893757714 116.63250000000002 #
point $-1 -1.2364000000000033 -25.140169752176178 130.63250000000002 #
face $-1 $-1 $92 $4 $-1 $189 reversed single #
plane-surface $-1 104.76360000000001 -0.90000000000000002 -5.9962999999999997 0 0 1 0 1 0 forward_v I I I I #
coedge $-1 $190 $144 $147 $191 0 $78 $-1 #
coedge $-1 $137 $88 $192 $193 0 $80 $-1 #
coedge $-1 $82 $81 $190 $194 0 $31 $-1 #
coedge $-1 $151 $135 $81 $138 1 $80 $-1 #
edge $-1 $142 $195 $137 $196 forward #
coedge $-1 $147 $146 $82 $140 1 $148 $-1 #
edge $-1 $197 $141 $139 $198 forward #
vertex $-1 $84 $199 #
vertex $-1 $154 $200 #
straight-curve $-1 74.763600000000011 14.1 14.0037 0 0 1 I I #
coedge $-1 $134 $192 $85 $145 1 $78 $-1 #
edge $-1 $149 $152 $144 $201 forward #
coedge $-1 $139 $86 $91 $155 0 $148 $-1 #
coedge $-1 $86 $139 $134 $191 1 $148 $-1 #
loop $-1 $-1 $146 $77 #
vertex $-1 $87 $202 #
straight-curve $-1 104.76360000000001 -15.9 -5.9962999999999997 1 0 0 I I #
coedge $-1 $88 $137 $90 $154 1 $80 $-1 #
vertex $-1 $145 $203 #
straight-curve $-1 104.76360000000001 -15.9 34.003700000000002 -1 0 0 I I #
edge $-1 $93 $142 $90 $204 forward #
edge $-1 $94 $141 $91 $205 forward #
point $-1 74.763600000000011 -15.9 34.003700000000002 #
point $-1 74.763600000000011 -15.9 -5.9962999999999997 #
point $-1 97.205640031602385 -0.87036216495171348 -5.9962999999999997 #
face $-1 $206 $207 $6 $-1 $208 forward single #
plane-surface $-1 0.76359999999999673 -37.899999999999999 100.00370000000001 0 -1 0 2 0 0 forward_v I I I I #
coedge $-1 $103 $170 $209 $210 1 $59 $-1 #
edge $-1 $115 $211 $111 $212 forward #
coedge $-1 $213 $183 $104 $164 0 $214 $-1 #
edge $-1 $165 $215 $163 $216 forward #
vertex $-1 $164 $217 #
straight-curve $-1 -2.0386000000000024 -25.140169752176178 130.63250000000002 -2 0 0 I I #
edge $-1 $171 $168 $127 $218 forward #
vertex $-1 $167 $219 #
straight-curve $-1 12.763599999999997 -11.313999999999986 84.632499999999993 0 -2 0 I I #
coedge $-1 $161 $109 $185 $220 1 $59 $-1 #
vertex $-1 $167 $221 #
straight-curve $-1 -1.2364000000000033 -11.313999999999986 70.632499999999993 0 2 0 I I #
coedge $-1 $222 $111 $223 $224 0 $113 $-1 #
edge $-1 $121 $114 $112 $225 forward #
coedge $-1 $117 $226 $123 $180 0 $113 $-1 #
point $-1 12.763599999999997 -37.899999999999999 84.632499999999993 #
point $-1 -1.2364000000000033 -37.899999999999999 70.632499999999993 #
ellipse-curve $-1 -1.2364000000000033 -37.899999999999999 116.63250000000002 0 1 0 9.8994949366116654 0 9.8994949366116654 1 I I #
point $-1 12.763599999999997 -37.899999999999999 116.63250000000002 #
edge $-1 $215 $124 $175 $227 forward #
point $-1 -1.2364000000000033 -37.899999999999999 130.63250000000002 #
coedge $-1 $228 $126 $229 $230 1 $73 $-1 #
coedge $-1 $163 $231 $126 $184 1 $214 $-1 #
edge $-1 $165 $232 $126 $233 forward #
coedge $-1 $127 $234 $170 $220 0 $73 $-1 #
straight-curve $-1 12.763599999999997 -25.140131300821466 100.4887911817062 0 -2.5512026369209701e-006 1.9999999999983729 I I #
face $-1 $235 $236 $6 $-1 $237 reversed single #
plane-surface $-1 -7.8407999999999873 -25.140131117528799 100.34510000004397 0 0.99999999999918643 1.275601318460485e-006 2 0 0 forward_v I I I I #
plane-surface $-1 74.763600000000011 -0.90000000000000002 14.0037 1 0 0 0 -1 0 forward_v I I I I #
coedge $-1 $192 $134 $136 $194 1 $78 $-1 #
edge $-1 $149 $197 $147 $238 forward #
coedge $-1 $144 $190 $135 $193 1 $78 $-1 #
edge $-1 $152 $195 $192 $239 forward #
edge $-1 $195 $197 $190 $240 forward #
vertex $-1 $194 $241 #
straight-curve $-1 104.76360000000001 14.1 34.003700000000002 1 0 0 I I #
vertex $-1 $140 $242 #
straight-curve $-1 104.76360000000001 14.1 -5.9962999999999997 -1 0 0 I I #
point $-1 74.763600000000011 14.1 -5.9962999999999997 #
point $-1 74.763600000000011 14.1 34.003700000000002 #
straight-curve $-1 134.7636 -15.9 14.0037 0 0 1 I I #
point $-1 134.7636 -15.9 -5.9962999999999997 #
point $-1 134.7636 -15.9 34.003700000000002 #
straight-curve $-1 74.763600000000011 -0.90000000000000002 34.003700000000002 0 1 0 I I #
straight-curve $-1 74.763600000000011 -0.90000000000000002 -5.9962999999999997 0 1 0 I I #
face $-1 $243 $214 $6 $-1 $208 forward single #
loop $-1 $-1 $209 $159 #
plane-surface $-1 -5.2364000000000033 -11.899999999999999 40.003700000000002 -1 0 0 0 2 0 forward_v I I I I #
coedge $-1 $244 $223 $161 $210 0 $207 $-1 #
edge $-1 $211 $245 $209 $246 forward #
vertex $-1 $210 $247 #
straight-curve $-1 2.2635999999999967 -37.899999999999999 70.632499999999993 -2 0 0 I I #
coedge $-1 $248 $163 $226 $249 1 $214 $-1 #
loop $-1 $-1 $163 $206 #
vertex $-1 $249 $250 #
straight-curve $-1 -5.2364000000000033 -11.606999999999992 130.63250000000002 0 -2 0 I I #
point $-1 -5.2364000000000033 -25.140169752176178 130.63250000000002 #
ellipse-curve $-1 -1.2364000000000033 -25.140111074515531 84.632499999999993 0 -0.99999999999918643 -1.275601318460485e-006 0.00026865868052539099 1.7858418455173115e-005 -13.999999997422233 0.99999999999918643 I I #
point $-1 12.763599999999997 -25.140111074515531 84.632499999999993 #
edge $-1 $245 $171 $185 $251 forward #
point $-1 -1.2364000000000033 -25.140093216097068 70.632499999999993 #
coedge $-1 $252 $173 $253 $254 0 $113 $-1 #
coedge $-1 $209 $255 $173 $224 1 $207 $-1 #
edge $-1 $211 $256 $173 $257 forward #
straight-curve $-1 12.763599999999997 -37.899999999999999 100.31810000000002 0 0 -2 I I #
coedge $-1 $175 $258 $213 $249 0 $113 $-1 #
straight-curve $-1 2.2635999999999967 -37.899999999999999 130.63250000000002 2 0 0 I I #
coedge $-1 $259 $182 $260 $261 0 $73 $-1 #
coedge $-1 $262 $263 $182 $230 0 $264 $-1 #
edge $-1 $265 $232 $229 $266 forward #
coedge $-1 $183 $267 $262 $268 1 $214 $-1 #
vertex $-1 $230 $269 #
straight-curve $-1 -5.2364000000000033 -25.140092631733335 70.17439155550673 0 -2.5512026369209701e-006 1.9999999999983729 I I #
coedge $-1 $185 $270 $244 $271 0 $73 $-1 #
face $-1 $272 $273 $6 $-1 $274 reversed single #
loop $-1 $-1 $275 $187 #
cone-surface $-1 100.1592 6.8598255120003344 134.34514081925852 0 -0.99999999999918643 -1.275601318460485e-006 14.142135623730949 -1.8039726847478192e-005 14.142135623719442 1 I I 0 1 forward I I I I #
straight-curve $-1 134.7636 -0.90000000000000002 -5.9962999999999997 0 1 0 I I #
straight-curve $-1 134.7636 -0.90000000000000002 34.003700000000002 0 1 0 I I #
straight-curve $-1 134.7636 14.1 14.0037 0 0 -1 I I #
point $-1 134.7636 14.1 34.003700000000002 #
point $-1 134.7636 14.1 -5.9962999999999997 #
face $-1 $276 $277 $6 $-1 $278 forward single #
coedge $-1 $279 $209 $234 $271 1 $207 $-1 #
vertex $-1 $271 $280 #
straight-curve $-1 -5.2364000000000033 -11.606999999999992 70.632499999999993 0 2 0 I I #
point $-1 -5.2364000000000033 -37.899999999999999 70.632499999999993 #
coedge $-1 $267 $213 $281 $282 1 $214 $-1 #
edge $-1 $283 $215 $226 $257 forward #
point $-1 -5.2364000000000033 -37.899999999999999 130.63250000000002 #
straight-curve $-1 -2.0386000000000024 -25.140093216097068 70.632499999999993 2 0 0 I I #
coedge $-1 $258 $222 $284 $285 0 $113 $-1 #
coedge $-1 $286 $287 $222 $254 1 $288 $-1 #
edge $-1 $256 $289 $222 $290 forward #
coedge $-1 $223 $291 $286 $292 1 $207 $-1 #
vertex $-1 $292 $293 #
straight-curve $-1 -5.2364000000000033 -37.899999999999999 70.003700000000009 0 0 -2 I I #
coedge $-1 $226 $252 $294 $295 0 $113 $-1 #
coedge $-1 $296 $228 $297 $298 1 $73 $-1 #
coedge $-1 $299 $300 $228 $261 1 $236 $-1 #
edge $-1 $265 $301 $228 $302 forward #
coedge $-1 $303 $229 $231 $268 0 $264 $-1 #
coedge $-1 $229 $304 $299 $305 0 $264 $-1 #
loop $-1 $-1 $303 $306 #
vertex $-1 $261 $307 #
straight-curve $-1 -7.8407999999999873 -25.1402 154.34510000000006 -2 0 0 I I #
coedge $-1 $231 $248 $308 $309 0 $214 $-1 #
edge $-1 $232 $310 $262 $311 forward #
point $-1 -5.2364000000000033 -25.1402 154.34510000000006 #
coedge $-1 $234 $296 $312 $313 1 $73 $-1 #
edge $-1 $314 $245 $234 $233 forward #
face $-1 $315 $316 $6 $-1 $317 forward single #
loop $-1 $-1 $318 $235 #
cone-surface $-1 100.1592 6.8599122528899912 66.345140819313826 0 -0.99999999999918643 -1.275601318460485e-006 14.142135623730949 1.8039726847478192e-005 -14.142135623719442 1 I I 0 1 forward I I I I #
coedge $-1 $300 $299 $319 $320 1 $236 $-1 #
face $-1 $321 $322 $6 $-1 $323 forward single #
loop $-1 $-1 $324 $243 #
plane-surface $-1 -69.236399999999946 20.480000000000018 174.34510000000009 0 0 -1 0 -2 0 forward_v I I I I #
coedge $-1 $325 $244 $326 $327 1 $207 $-1 #
point $-1 -5.2364000000000033 -25.140093216097068 70.632499999999993 #
coedge $-1 $294 $328 $248 $282 0 $329 $-1 #
edge $-1 $330 $283 $281 $331 forward #
vertex $-1 $295 $332 #
coedge $-1 $333 $334 $252 $285 1 $335 $-1 #
edge $-1 $289 $336 $284 $337 forward #
coedge $-1 $338 $253 $255 $292 0 $288 $-1 #
coedge $-1 $253 $338 $333 $339 1 $288 $-1 #
loop $-1 $-1 $286 $340 #
vertex $-1 $254 $341 #
straight-curve $-1 0.76359999999999673 -37.899999999999999 34.003700000000002 2 0 0 I I #
coedge $-1 $255 $342 $343 $344 0 $207 $-1 #
edge $-1 $256 $345 $286 $346 forward #
point $-1 -5.2364000000000033 -37.899999999999999 34.003700000000002 #
coedge $-1 $347 $281 $258 $295 1 $329 $-1 #
edge $-1 $336 $283 $258 $348 forward #
coedge $-1 $270 $259 $349 $350 0 $73 $-1 #
coedge $-1 $351 $352 $259 $298 0 $316 $-1 #
edge $-1 $353 $301 $297 $354 forward #
coedge $-1 $275 $260 $263 $305 1 $236 $-1 #
coedge $-1 $260 $275 $351 $355 1 $236 $-1 #
vertex $-1 $298 $356 #
ellipse-curve $-1 100.1592 -25.140174487973631 134.34510000001632 0 0.99999999999918643 1.275601318460485e-006 14.142135623730949 -1.8039726847478192e-005 14.142135623719442 1 I I #
coedge $-1 $304 $262 $357 $358 0 $264 $-1 #
coedge $-1 $263 $303 $359 $360 1 $264 $-1 #
edge $-1 $361 $265 $263 $362 forward #
face $-1 $340 $264 $6 $-1 $363 forward single #
point $-1 100.1592 -25.1402 154.34510000000006 #
coedge $-1 $364 $365 $267 $309 1 $366 $-1 #
edge $-1 $330 $310 $267 $367 forward #
vertex $-1 $368 $369 #
straight-curve $-1 -5.2364000000000033 -2.5201729270440865 154.34512885413639 0 1.9999999999983729 2.5512026369209701e-006 I I #
coedge $-1 $370 $326 $270 $313 0 $371 $-1 #
edge $-1 $314 $372 $312 $373 forward #
vertex $-1 $271 $374 #
face $-1 $375 $329 $6 $-1 $376 forward single #
loop $-1 $-1 $377 $272 #
plane-surface $-1 120.15920000000003 6.8598688824451628 100.34514081928617 -1 0 0 0 1.9999999999983729 2.5512026369209701e-006 forward_v I I I I #
coedge $-1 $378 $379 $380 $381 1 $273 $-1 #
coedge $-1 $359 $382 $275 $320 0 $383 $-1 #
edge $-1 $384 $361 $319 $385 forward #
face $-1 $386 $387 $6 $-1 $388 reversed single #
loop $-1 $-1 $389 $276 #
plane-surface $-1 -69.236399999999946 20.480000000000018 26.345100000000066 0 0 1 0 2 0 forward_v I I I I #
coedge $-1 $390 $391 $392 $393 1 $277 $-1 #
coedge $-1 $342 $279 $394 $395 1 $207 $-1 #
coedge $-1 $312 $396 $279 $327 0 $371 $-1 #
edge $-1 $397 $314 $326 $398 forward #
coedge $-1 $281 $347 $364 $399 0 $329 $-1 #
loop $-1 $-1 $281 $315 #
vertex $-1 $399 $400 #
straight-curve $-1 -5.2364000000000033 -11.899999999999999 166.00370000000001 0 -2 0 I I #
point $-1 -5.2364000000000033 -37.899999999999999 166.00370000000001 #
coedge $-1 $401 $284 $287 $339 0 $335 $-1 #
coedge $-1 $284 $402 $347 $403 0 $335 $-1 #
loop $-1 $-1 $402 $375 #
vertex $-1 $285 $404 #
straight-curve $-1 134.7636 -37.899999999999999 100.00370000000001 0 0 2 I I #
coedge $-1 $287 $286 $405 $406 0 $288 $-1 #
edge $-1 $289 $407 $333 $408 forward #
face $-1 $409 $288 $6 $-1 $410 forward single #
point $-1 134.7636 -37.899999999999999 34.003700000000002 #
coedge $-1 $291 $325 $411 $412 0 $207 $-1 #
coedge $-1 $413 $405 $291 $344 1 $414 $-1 #
edge $-1 $415 $345 $291 $367 forward #
vertex $-1 $344 $416 #
straight-curve $-1 -5.2364000000000033 -11.899999999999999 34.003700000000002 0 2 0 I I #
coedge $-1 $328 $294 $334 $403 1 $329 $-1 #
straight-curve $-1 0.76359999999999673 -37.899999999999999 166.00370000000001 -2 0 0 I I #
coedge $-1 $379 $378 $296 $350 1 $273 $-1 #
edge $-1 $353 $372 $296 $417 forward #
coedge $-1 $377 $297 $300 $355 0 $316 $-1 #
coedge $-1 $297 $377 $379 $418 0 $316 $-1 #
vertex $-1 $350 $419 #
straight-curve $-1 120.15920000000003 -25.140131117528799 100.34510000004397 0 -2.5512026369209701e-006 1.9999999999983729 I I #
edge $-1 $301 $384 $351 $420 forward #
point $-1 120.15920000000003 -25.140174487973631 134.34510000001632 #
coedge $-1 $421 $422 $303 $358 1 $423 $-1 #
edge $-1 $310 $424 $303 $425 forward #
coedge $-1 $426 $319 $304 $360 0 $383 $-1 #
edge $-1 $361 $424 $359 $427 forward #
vertex $-1 $320 $428 #
straight-curve $-1 100.1592 6.8597999999739656 154.34514081924223 0 -1.9999999999983729 -2.5512026369209701e-006 I I #
plane-surface $-1 -7.8407999999999873 6.8597999999739656 154.34514081924223 0 1.275601318460485e-006 -0.99999999999918643 0 1.9999999999983729 2.5512026369209701e-006 forward_v I I I I #
coedge $-1 $429 $308 $328 $399 1 $366 $-1 #
coedge $-1 $308 $430 $421 $368 0 $366 $-1 #
loop $-1 $-1 $365 $431 #
straight-curve $-1 -5.2364000000000033 14.100000000000001 40.003700000000002 0 0 -2 I I #
edge $-1 $432 $310 $365 $433 forward #
point $-1 -5.2364000000000033 14.100000000000001 154.3451500548509 #
coedge $-1 $396 $312 $378 $434 0 $371 $-1 #
loop $-1 $-1 $326 $409 #
vertex $-1 $313 $435 #
straight-curve $-1 -7.8407999999999873 -25.140062235057606 46.345100000087903 2 0 0 I I #
point $-1 -5.2364000000000033 -25.140062235057606 46.345100000087903 #
face $-1 $436 $335 $6 $-1 $437 reversed single #
plane-surface $-1 0.76359999999999673 -11.899999999999999 166.00370000000001 0 0 1 0 2 0 forward_v I I I I #
coedge $-1 $352 $351 $382 $438 1 $316 $-1 #
coedge $-1 $349 $318 $370 $434 1 $273 $-1 #
coedge $-1 $318 $349 $352 $418 1 $273 $-1 #
coedge $-1 $382 $439 $318 $381 0 $383 $-1 #
edge $-1 $440 $441 $380 $442 forward #
coedge $-1 $319 $380 $377 $438 0 $383 $-1 #
loop $-1 $-1 $392 $436 #
vertex $-1 $320 $443 #
ellipse-curve $-1 100.1592 38.100000000000001 134.34518066926628 0 -1 0 0.0002916938262966795 0 19.999999997889141 0.99999999999918621 I I #
face $-1 $444 $423 $6 $-1 $445 reversed single #
loop $-1 $-1 $446 $321 #
cone-surface $-1 -25.236399999999946 20.480000000000018 46.345100000000066 0 -1 0 14.142135623730949 0 -14.142135623730949 1 I I 0 1 forward I I I I #
coedge $-1 $447 $448 $449 $450 1 $322 $-1 #
coedge $-1 $451 $324 $452 $453 0 $277 $-1 #
coedge $-1 $324 $451 $454 $455 1 $277 $-1 #
coedge $-1 $456 $426 $324 $393 0 $383 $-1 #
edge $-1 $457 $458 $392 $459 forward #
coedge $-1 $439 $460 $325 $395 0 $383 $-1 #
edge $-1 $461 $397 $394 $462 forward #
coedge $-1 $326 $370 $439 $463 1 $371 $-1 #
vertex $-1 $395 $464 #
straight-curve $-1 -5.2363999999999464 13.670003323656672 46.3451495062587 0 -1.9999999999983729 -2.5512026369209701e-006 I I #
edge $-1 $465 $330 $328 $466 forward #
point $-1 -5.2364000000000033 14.100000000000001 166.00370000000001 #
coedge $-1 $467 $333 $468 $469 0 $335 $-1 #
coedge $-1 $334 $470 $429 $471 0 $335 $-1 #
edge $-1 $465 $336 $334 $472 forward #
point $-1 134.7636 -37.899999999999999 166.00370000000001 #
coedge $-1 $343 $468 $338 $406 1 $414 $-1 #
edge $-1 $345 $407 $338 $473 forward #
vertex $-1 $469 $474 #
straight-curve $-1 134.7636 -5.8999999999999986 34.003700000000002 0 2 0 I I #
face $-1 $129 $371 $6 $-1 $475 forward single #
plane-surface $-1 0.76359999999999673 -11.899999999999999 34.003700000000002 0 0 -1 0 -2 0 forward_v I I I I #
coedge $-1 $476 $446 $342 $412 1 $387 $-1 #
edge $-1 $461 $415 $342 $477 forward #
coedge $-1 $478 $343 $446 $479 0 $414 $-1 #
loop $-1 $-1 $413 $480 #
vertex $-1 $344 $481 #
point $-1 -5.2364000000000033 14.100000000000001 34.003700000000002 #
ellipse-curve $-1 100.1592 -25.140087747083978 66.345100000071653 0 0.99999999999918643 1.275601318460485e-006 14.142135623730949 1.8039726847478192e-005 -14.142135623719442 1 I I #
edge $-1 $441 $353 $352 $482 forward #
point $-1 120.15920000000003 -25.140087747083978 66.345100000071653 #
straight-curve $-1 120.15920000000003 6.8598255120003344 134.34514081925852 0 1.9999999999983729 2.5512026369209701e-006 I I #
coedge $-1 $483 $357 $365 $368 1 $423 $-1 #
coedge $-1 $357 $452 $426 $484 1 $423 $-1 #
loop $-1 $-1 $422 $386 #
vertex $-1 $360 $485 #
straight-curve $-1 -5.2364000000891195 16.290000000000006 154.3451528484178 -6.7413597247610802e-012 1.9999999999983724 2.5512026368669828e-006 I I #
coedge $-1 $392 $359 $422 $484 0 $383 $-1 #
straight-curve $-1 -3.5386000000000024 38.100000000000001 154.34518066928254 -2 0 0 I I #
point $-1 100.1592 38.100000000000001 154.34518066928254 #
coedge $-1 $486 $364 $402 $471 1 $366 $-1 #
coedge $-1 $365 $486 $487 $488 0 $366 $-1 #
face $-1 $306 $366 $6 $-1 $489 reversed single #
vertex $-1 $488 $490 #
ellipse-curve $-1 -25.236399999999946 14.100000000000001 154.34510000000009 0 1 0 14.142135623730949 0 14.142135623730949 1 I I #
edge $-1 $372 $440 $370 $491 forward #
point $-1 100.1592 -25.140062235057606 46.345100000087903 #
face $-1 $492 $383 $6 $-1 $493 reversed single #
plane-surface $-1 134.7636 0.10000000000000142 100.00370000000001 -1 0 0 0 -2 0 forward_v I I I I #
edge $-1 $441 $384 $382 $494 forward #
coedge $-1 $380 $394 $396 $463 0 $383 $-1 #
vertex $-1 $381 $495 #
vertex $-1 $381 $496 #
ellipse-curve $-1 100.1592 38.100000000000001 66.345180669210947 0 -1 0 0.0002916938262966795 0 -19.999999997889141 0.99999999999918621 I I #
point $-1 120.15920000000003 38.100000000000001 134.34518066926628 #
face $-1 $497 $498 $6 $-1 $499 reversed single #
cone-surface $-1 -25.236399999999946 20.480000000000018 154.34510000000009 0 -1 0 14.142135623730949 0 14.142135623730949 1 I I 0 1 forward I I I I #
coedge $-1 $411 $500 $413 $479 1 $387 $-1 #
coedge $-1 $501 $389 $502 $503 0 $322 $-1 #
coedge $-1 $389 $501 $504 $505 1 $322 $-1 #
coedge $-1 $506 $507 $389 $450 0 $508 $-1 #
edge $-1 $509 $510 $449 $511 forward #
coedge $-1 $391 $390 $512 $513 1 $277 $-1 #
coedge $-1 $422 $514 $390 $453 1 $423 $-1 #
edge $-1 $457 $515 $390 $516 forward #
coedge $-1 $517 $518 $391 $455 0 $498 $-1 #
edge $-1 $458 $519 $454 $520 forward #
coedge $-1 $521 $392 $518 $522 0 $383 $-1 #
vertex $-1 $484 $523 #
vertex $-1 $455 $524 #
straight-curve $-1 -34.236399999999975 38.100000000000001 174.34510000000009 -2 0 0 I I #
coedge $-1 $394 $525 $476 $526 0 $383 $-1 #
vertex $-1 $526 $527 #
straight-curve $-1 -5.2363999999999464 38.100000000000001 100.17440000000005 0 0 2 I I #
edge $-1 $397 $440 $439 $528 forward #
point $-1 -5.2363999999999464 38.100000000000001 46.345180669194683 #
vertex $-1 $471 $529 #
straight-curve $-1 0.76359999999999673 14.100000000000001 166.00370000000001 -2 0 0 I I #
coedge $-1 $530 $401 $531 $532 0 $335 $-1 #
coedge $-1 $405 $533 $401 $469 1 $414 $-1 #
edge $-1 $407 $534 $401 $535 forward #
coedge $-1 $402 $530 $536 $537 1 $335 $-1 #
edge $-1 $538 $465 $402 $539 forward #
straight-curve $-1 134.7636 -5.8999999999999986 166.00370000000001 0 -2 0 I I #
straight-curve $-1 0.76359999999999673 14.100000000000001 34.003700000000002 2 0 0 I I #
point $-1 134.7636 14.100000000000001 34.003700000000002 #
plane-surface $-1 -7.8407999999999873 6.85993776491636 46.345140819330105 0 -1.275601318460485e-006 0.99999999999918643 0 -1.9999999999983729 -2.5512026369209701e-006 forward_v I I I I #
coedge $-1 $502 $411 $460 $526 1 $387 $-1 #
straight-curve $-1 -5.2363999999999464 20.480000000000018 46.345100000000066 0 -2 0 I I #
coedge $-1 $533 $413 $540 $541 0 $414 $-1 #
edge $-1 $415 $542 $413 $543 forward #
face $-1 $544 $414 $6 $-1 $545 reversed single #
point $-1 -5.2363999999999464 14.100000000000001 46.345100000000066 #
straight-curve $-1 120.15920000000003 6.8599122528899912 66.345140819313826 0 -1.9999999999983729 -2.5512026369209701e-006 I I #
coedge $-1 $514 $421 $546 $547 1 $423 $-1 #
edge $-1 $424 $457 $426 $548 forward #
point $-1 -5.2364000001626323 38.100000000000001 154.34518066928254 #
coedge $-1 $430 $429 $549 $550 1 $366 $-1 #
coedge $-1 $551 $546 $430 $488 1 $552 $-1 #
edge $-1 $553 $432 $430 $554 forward #
plane-surface $-1 0.76359999999999673 14.100000000000001 196.00370000000001 0 1 0 -2 0 0 forward_v I I I I #
point $-1 -23.236400000000003 14.100000000000001 174.24484874213246 #
straight-curve $-1 100.1592 6.85993776491636 46.345140819330105 0 1.9999999999983729 2.5512026369209701e-006 I I #
face $-1 $-1 $555 $6 $-1 $556 reversed single #
plane-surface $-1 0.76359999999999673 38.100000000000001 100.00370000000001 0 -1 0 2 0 0 forward_v I I I I #
straight-curve $-1 120.15920000000003 38.100000000000001 100.17442040964309 0 0 2 I I #
point $-1 100.1592 38.100000000000001 46.345180669194683 #
point $-1 120.15920000000003 38.100000000000001 66.345180669210947 #
face $-1 $557 $558 $6 $-1 $559 forward single #
loop $-1 $-1 $454 $444 #
plane-surface $-1 -133.2364 0.10000000000000142 100.00370000000001 1 0 0 0 2 0 forward_v I I I I #
coedge $-1 $446 $560 $561 $562 1 $387 $-1 #
coedge $-1 $448 $447 $525 $563 1 $322 $-1 #
coedge $-1 $560 $476 $447 $503 1 $387 $-1 #
edge $-1 $509 $564 $447 $565 forward #
coedge $-1 $566 $567 $448 $505 0 $568 $-1 #
edge $-1 $510 $569 $504 $570 forward #
coedge $-1 $571 $449 $567 $572 1 $508 $-1 #
coedge $-1 $449 $573 $560 $574 0 $508 $-1 #
loop $-1 $-1 $507 $575 #
vertex $-1 $574 $576 #
vertex $-1 $572 $577 #
straight-curve $-1 -73.736399999999975 20.100000000000001 26.345100000000066 -2 0 0 I I #
coedge $-1 $578 $579 $451 $513 0 $558 $-1 #
edge $-1 $519 $515 $512 $580 forward #
coedge $-1 $452 $483 $578 $581 1 $423 $-1 #
vertex $-1 $581 $582 #
straight-curve $-1 -25.236399999999946 20.480000000000018 174.34510000000009 0 -2 0 I I #
coedge $-1 $583 $454 $579 $584 0 $498 $-1 #
coedge $-1 $454 $583 $456 $522 1 $498 $-1 #
vertex $-1 $513 $585 #
straight-curve $-1 -133.2364 10.290000000000013 174.34510000000009 0 -2 0 I I #
coedge $-1 $586 $456 $587 $588 0 $383 $-1 #
edge $-1 $458 $589 $518 $590 forward #
point $-1 -25.236399999999946 38.100000000000001 174.34510000000009 #
point $-1 -133.2364 38.100000000000001 174.34510000000009 #
coedge $-1 $460 $591 $501 $563 0 $383 $-1 #
edge $-1 $564 $461 $460 $592 forward #
point $-1 -5.2363999999999464 38.100000000000001 46.345100000000066 #
straight-curve $-1 -3.5386000000000024 38.100000000000001 46.345180669194683 2 0 0 I I #
point $-1 134.7636 14.100000000000001 166.00370000000001 #
coedge $-1 $470 $467 $586 $593 1 $335 $-1 #
coedge $-1 $594 $595 $467 $532 1 $596 $-1 #
edge $-1 $534 $597 $467 $598 forward #
coedge $-1 $468 $478 $594 $599 1 $414 $-1 #
vertex $-1 $599 $600 #
straight-curve $-1 134.7636 14.100000000000001 52.003700000000002 0 0 -2 I I #
coedge $-1 $587 $549 $470 $537 0 $555 $-1 #
edge $-1 $538 $601 $470 $602 forward #
vertex $-1 $550 $603 #
straight-curve $-1 134.7636 14.100000000000001 148.00370000000001 0 0 -2 I I #
coedge $-1 $561 $604 $478 $541 1 $605 $-1 #
edge $-1 $542 $606 $478 $607 forward #
vertex $-1 $479 $608 #
ellipse-curve $-1 -25.236399999999946 14.100000000000001 46.345100000000066 0 1 0 14.142135623730949 0 -14.142135623730949 1 I I #
face $-1 $431 $596 $6 $-1 $609 reversed single #
plane-surface $-1 0.76359999999999673 14.100000000000001 4.003700000000002 0 1 0 -2 0 0 forward_v I I I I #
coedge $-1 $487 $610 $483 $547 0 $552 $-1 #
edge $-1 $611 $432 $546 $612 forward #
ellipse-curve $-1 -25.236399999999946 38.100000000000001 154.34510000000009 0 -1 0 14.142135623730949 0 14.142135623730949 1 I I #
coedge $-1 $536 $613 $486 $550 0 $555 $-1 #
edge $-1 $553 $538 $549 $614 forward #
coedge $-1 $610 $487 $613 $615 1 $552 $-1 #
loop $-1 $-1 $546 $616 #
vertex $-1 $488 $617 #
straight-curve $-1 -23.236400000000003 14.100000000000001 148.00370000000001 0 0 -2 I I #
loop $-1 $-1 $613 $492 #
plane-surface $-1 0.76359999999999673 0.10000000000000142 226.00370000000001 0 0 -1 0 2 0 forward_v I I I I #
face $-1 $575 $605 $6 $-1 $618 forward single #
loop $-1 $-1 $512 $497 #
plane-surface $-1 -78.236400000000003 20.100000000000001 100.00370000000001 0 -1 0 2 0 0 forward_v I I I I #
coedge $-1 $500 $502 $507 $574 1 $387 $-1 #
coedge $-1 $619 $540 $500 $562 0 $605 $-1 #
edge $-1 $542 $620 $561 $621 forward #
edge $-1 $569 $564 $525 $622 forward #
vertex $-1 $526 $623 #
straight-curve $-1 -25.236399999999946 20.480000000000018 26.345100000000066 0 2 0 I I #
coedge $-1 $624 $504 $591 $625 1 $568 $-1 #
coedge $-1 $504 $624 $506 $572 0 $568 $-1 #
loop $-1 $-1 $504 $626 #
vertex $-1 $625 $627 #
straight-curve $-1 -133.2364 10.290000000000013 26.345100000000066 0 2 0 I I #
coedge $-1 $573 $506 $628 $629 1 $508 $-1 #
edge $-1 $630 $510 $567 $631 forward #
coedge $-1 $507 $571 $619 $632 1 $508 $-1 #
edge $-1 $620 $509 $507 $633 forward #
face $-1 $626 $508 $6 $-1 $559 forward single #
point $-1 -25.236399999999946 20.100000000000001 26.345100000000066 #
point $-1 -133.23639999999995 20.100000000000001 26.345100000000066 #
coedge $-1 $634 $512 $514 $581 0 $558 $-1 #
coedge $-1 $512 $635 $517 $584 1 $558 $-1 #
straight-curve $-1 -73.736399999999975 20.100000000000001 174.34510000000009 2 0 0 I I #
edge $-1 $515 $611 $578 $636 forward #
point $-1 -25.236399999999946 20.100000000000001 174.34510000000009 #
coedge $-1 $518 $517 $637 $638 0 $498 $-1 #
edge $-1 $519 $639 $517 $640 forward #
point $-1 -133.23639999999995 20.100000000000001 174.34510000000009 #
coedge $-1 $641 $521 $530 $593 0 $383 $-1 #
coedge $-1 $637 $536 $521 $588 1 $555 $-1 #
edge $-1 $589 $601 $587 $642 forward #
vertex $-1 $588 $643 #
straight-curve $-1 -133.2364 38.100000000000001 100.00370000000001 0 0 2 I I #
coedge $-1 $525 $641 $566 $625 0 $383 $-1 #
ellipse-curve $-1 -25.236399999999946 38.100000000000001 46.345100000000066 0 -1 0 14.142135623730949 0 -14.142135623730949 1 I I #
edge $-1 $601 $597 $530 $644 forward #
coedge $-1 $645 $531 $533 $599 0 $596 $-1 #
coedge $-1 $531 $646 $641 $647 1 $596 $-1 #
loop $-1 $-1 $645 $544 #
vertex $-1 $532 $648 #
straight-curve $-1 134.7636 0.10000000000000142 -25.996299999999998 0 2 0 I I #
edge $-1 $534 $606 $594 $649 forward #
point $-1 134.7636 14.100000000000001 -25.996299999999998 #
vertex $-1 $593 $650 #
straight-curve $-1 134.7636 0.10000000000000142 226.00370000000001 0 2 0 I I #
point $-1 134.7636 14.100000000000001 226.00370000000001 #
coedge $-1 $540 $619 $645 $651 1 $605 $-1 #
loop $-1 $-1 $561 $557 #
vertex $-1 $599 $652 #
straight-curve $-1 -23.236400000000003 14.100000000000001 52.003700000000002 0 0 -2 I I #
point $-1 -23.236400000000003 14.100000000000001 26.445351257867664 #
plane-surface $-1 0.76359999999999673 0.10000000000000142 -25.996299999999998 0 0 1 0 -2 0 forward_v I I I I #
coedge $-1 $546 $551 $634 $653 0 $552 $-1 #
vertex $-1 $653 $654 #
straight-curve $-1 -23.236400000000003 20.480000000000018 174.24484874213246 0 -2 0 I I #
coedge $-1 $549 $655 $551 $615 0 $555 $-1 #
straight-curve $-1 0.76359999999999673 14.100000000000001 226.00370000000001 2 0 0 I I #
edge $-1 $656 $553 $613 $657 forward #
face $-1 $480 $552 $6 $-1 $618 forward single #
point $-1 -23.236400000000003 14.100000000000001 226.00370000000001 #
plane-surface $-1 -23.236400000000003 17.100000000000001 100.00370000000001 -1 0 0 0 -2 0 forward_v I I I I #
coedge $-1 $604 $561 $573 $632 0 $605 $-1 #
vertex $-1 $574 $658 #
straight-curve $-1 -23.236400000000003 20.480000000000018 26.445351257867664 0 2 0 I I #
straight-curve $-1 -34.236399999999975 38.100000000000001 26.345100000000066 2 0 0 I I #
point $-1 -25.236399999999946 38.100000000000001 26.345100000000066 #
coedge $-1 $567 $566 $646 $659 1 $568 $-1 #
edge $-1 $660 $569 $566 $590 forward #
face $-1 $616 $568 $6 $-1 $499 reversed single #
point $-1 -133.2364 38.100000000000001 26.345100000000066 #
coedge $-1 $646 $645 $571 $629 0 $596 $-1 #
edge $-1 $661 $630 $628 $662 forward #
vertex $-1 $572 $663 #
straight-curve $-1 -133.2364 20.100000000000001 100.00370000000001 0 0 2 I I #
edge $-1 $620 $661 $619 $664 forward #
ellipse-curve $-1 -25.236399999999946 20.100000000000001 46.345100000000066 0 1 0 14.142135623730949 0 -14.142135623730949 1 I I #
coedge $-1 $635 $578 $610 $653 1 $558 $-1 #
coedge $-1 $579 $634 $655 $665 1 $558 $-1 #
ellipse-curve $-1 -25.236399999999946 20.100000000000001 154.34510000000009 0 1 0 14.142135623730949 0 14.142135623730949 1 I I #
coedge $-1 $655 $587 $583 $638 1 $555 $-1 #
edge $-1 $639 $589 $637 $666 forward #
vertex $-1 $584 $667 #
straight-curve $-1 -133.2364 20.100000000000001 100.00370000000001 0 0 2 I I #
coedge $-1 $591 $586 $595 $647 0 $383 $-1 #
straight-curve $-1 0.76359999999999673 38.100000000000001 226.00370000000001 2 0 0 I I #
point $-1 -133.2364 38.100000000000001 226.00370000000001 #
straight-curve $-1 134.7636 38.100000000000001 100.00370000000001 0 0 -2 I I #
coedge $-1 $628 $594 $604 $651 0 $596 $-1 #
coedge $-1 $595 $628 $624 $659 0 $596 $-1 #
edge $-1 $597 $660 $595 $668 forward #
point $-1 134.7636 38.100000000000001 -25.996299999999998 #
straight-curve $-1 0.76359999999999673 14.100000000000001 -25.996299999999998 -2 0 0 I I #
point $-1 134.7636 38.100000000000001 226.00370000000001 #
edge $-1 $606 $661 $645 $669 forward #
point $-1 -23.236400000000003 14.100000000000001 -25.996299999999998 #
edge $-1 $656 $611 $610 $664 forward #
point $-1 -23.236400000000003 20.100000000000001 174.24484874213246 #
coedge $-1 $613 $637 $635 $665 0 $555 $-1 #
vertex $-1 $665 $670 #
straight-curve $-1 -23.236400000000003 8.6000000000000014 226.00370000000001 0 -2 0 I I #
point $-1 -23.236400000000003 20.100000000000001 26.445351257867664 #
edge $-1 $630 $660 $624 $671 forward #
vertex $-1 $625 $672 #
vertex $-1 $629 $673 #
straight-curve $-1 -38.736400000000003 20.100000000000001 -25.996299999999998 -2 0 0 I I #
point $-1 -133.2364 20.100000000000001 -25.996299999999998 #
straight-curve $-1 -23.236400000000003 20.100000000000001 100.00370000000001 0 0 -2 I I #
edge $-1 $639 $656 $655 $674 forward #
straight-curve $-1 -133.2364 0.10000000000000142 226.00370000000001 0 2 0 I I #
point $-1 -133.2364 20.100000000000001 226.00370000000001 #
straight-curve $-1 0.76359999999999673 38.100000000000001 -25.996299999999998 -2 0 0 I I #
straight-curve $-1 -23.236400000000003 8.6000000000000014 -25.996299999999998 0 2 0 I I #
point $-1 -23.236400000000003 20.100000000000001 226.00370000000001 #
straight-curve $-1 -133.2364 0.10000000000000142 -25.996299999999998 0 2 0 I I #
point $-1 -133.2364 38.100000000000001 -25.996299999999998 #
point $-1 -23.236400000000003 20.100000000000001 -25.996299999999998 #
straight-curve $-1 -38.736400000000003 20.100000000000001 226.00370000000001 2 0 0 I I #
End-of-ACIS-data 
