300 0 1 0           
7 Unknown 11 ACIS 3.0 NT 24 Thu Jan 08 10:06:34 1998 
1 9.9999999999999995e-007 1e-010 
body $1 $2 $-1 $3 #
display_attribute-st-attrib $-1 $4 $-1 $0 2 #
lump $-1 $-1 $5 $0 #
transform $-1 0.35355339059327201 0.35355339059327301 -0.86602540378444004 -0.70710678118654902 0.70710678118654602 0 0.61237243569579403 0.61237243569579602 0.499999999999998 0 0 10 1 rotate no_reflect no_shear #
id_attribute-st-attrib $-1 $-1 $1 $0 1 #
shell $-1 $-1 $-1 $6 $-1 $2 #
face $7 $8 $9 $5 $-1 $10 forward single #
fmesh-eye-attrib $-1 $11 $-1 $6 #
face $12 $13 $14 $5 $-1 $15 reversed single #
loop $-1 $-1 $16 $6 #
plane-surface $-1 -26.6950850214829 -70.710678118654599 -66.237243569579604 0.35355339059327201 -0.70710678118654902 0.61237243569579403 0.86602540378444004 0 -0.499999999999998 forward_v I I I I #
colour-tsl-attrib $-1 $-1 $7 $6 1 #
fmesh-eye-attrib $-1 $17 $-1 $8 #
face $18 $19 $20 $5 $-1 $21 forward single #
loop $-1 $-1 $22 $8 #
sphere-surface $-1 0 0 0 45 1 0 0 0 0 1 forward_v I I I I #
coedge $-1 $23 $24 $22 $25 reversed $9 $-1 #
sti_colour_lwattr-sg-attrib $-1 $-1 $12 $8 1 1 1 1 0 1 0.5 0.5 #
fmesh-eye-attrib $-1 $26 $-1 $13 #
face $27 $28 $29 $5 $-1 $30 reversed single #
loop $-1 $-1 $31 $13 #
torus-surface $-1 9.5852840826753791 -3.5400275850679897e-017 -5.5340663453916399 0.86602540378443993 -3.1983964088322296e-018 -0.49999999999999795 53.874821936960601 10 -0.49999999999999795 -5.5397850828432795e-018 -0.86602540378443993 forward_v I I I I #
coedge $-1 $32 $33 $16 $25 forward $14 $-1 #
coedge $-1 $34 $16 $35 $36 forward $9 $-1 #
coedge $-1 $16 $37 $31 $38 reversed $9 $-1 #
edge $39 $40 $41 $22 $42 forward #
sti_colour_lwattr-sg-attrib $-1 $-1 $18 $13 1 1 1 1 0 1 0.5 0.5 #
fmesh-eye-attrib $-1 $43 $-1 $19 #
face $44 $45 $46 $5 $-1 $47 forward single #
loop $-1 $-1 $48 $19 #
cone-surface $-1 8.6602540378443997 0 -4.9999999999999796 0.86602540378443993 -1.8144065635450598e-031 -0.49999999999999795 15.5120920574885 31.0241841149771 26.867731575255899 1 I I 0 1 forward I I I I #
coedge $-1 $49 $50 $24 $38 forward $20 $-1 #
coedge $-1 $51 $22 $50 $52 reversed $14 $-1 #
coedge $-1 $22 $53 $54 $55 forward $14 $-1 #
coedge $-1 $56 $23 $57 $58 reversed $9 $-1 #
coedge $-1 $54 $59 $23 $36 reversed $60 $-1 #
edge $61 $40 $62 $35 $63 reversed #
coedge $-1 $24 $64 $48 $65 reversed $9 $-1 #
edge $66 $41 $67 $31 $68 forward #
ptlist-eye-attrib $-1 $-1 $-1 $25 #
vertex $-1 $25 $69 #
vertex $-1 $52 $70 #
ellipse-curve $-1 -2.1502906875567498e-015 4.3005813751135399e-015 -3.72441272189053e-015 0.35355339059327201 -0.70710678118654902 0.61237243569579403 0 -29.459415181858901 -34.0168025708305 1 I I #
sti_colour_lwattr-sg-attrib $-1 $-1 $27 $19 1 1 1 1 0 1 0.5 0.5 #
fmesh-eye-attrib $-1 $71 $-1 $28 #
face $72 $73 $74 $5 $-1 $75 forward single #
loop $-1 $76 $77 $28 #
plane-surface $-1 17.320508075688799 0 -9.9999999999999591 0.86602540378443993 0 -0.49999999999999795 -0.35355339059327201 0.70710678118654902 -0.61237243569579403 forward_v I I I I #
coedge $-1 $78 $79 $37 $65 forward $29 $-1 #
coedge $-1 $80 $31 $79 $81 forward $20 $-1 #
coedge $-1 $31 $80 $32 $52 forward $20 $-1 #
coedge $-1 $53 $32 $82 $83 forward $14 $-1 #
edge $84 $85 $41 $32 $86 forward #
coedge $-1 $33 $51 $87 $88 reversed $14 $-1 #
coedge $-1 $89 $35 $33 $55 reversed $60 $-1 #
edge $90 $91 $40 $33 $92 forward #
coedge $-1 $93 $34 $94 $95 reversed $9 $-1 #
coedge $-1 $96 $97 $34 $58 forward $98 $-1 #
edge $99 $100 $62 $57 $101 forward #
coedge $-1 $35 $102 $96 $103 reversed $60 $-1 #
loop $-1 $-1 $59 $73 #
ptlist-eye-attrib $-1 $-1 $-1 $36 #
vertex $-1 $58 $104 #
straight-curve $-1 8.6602540378443997 0 -4.9999999999999698 0.86602540378444004 0 -0.499999999999998 I I #
coedge $-1 $37 $105 $106 $107 reversed $9 $-1 #
edge $108 $67 $109 $48 $110 forward #
ptlist-eye-attrib $-1 $-1 $-1 $38 #
vertex $-1 $65 $111 #
ellipse-curve $-1 -9.4623418807458908 -38.0952519268426 -38.525522277605504 -0.35355339059327201 0.70710678118654902 -0.61237243569579403 8.6602540378443997 -3.1983964088322301e-017 -4.9999999999999796 1 I I #
point $-1 -38.971143170299797 0 22.499999999999901 #
point $-1 -7.7419160842466397 -31.1688424855985 -31.5208818634955 #
sti_colour_lwattr-sg-attrib $-1 $-1 $44 $28 1 1 1 1 0 1 0.5 0.5 #
fmesh-eye-attrib $-1 $112 $-1 $45 #
face $113 $114 $60 $5 $-1 $115 forward single #
loop $-1 $-1 $116 $45 #
cone-surface $-1 8.9341357851952097 -8.1124905431429699 -14.5256228983228 -0.86602540378444504 1.7831029797114801e-029 0.49999999999998901 -21.213203435596 -42.426406871192803 -36.742346141748001 1 I I 0 1 forward I I I I #
loop $-1 $-1 $106 $28 #
coedge $-1 $77 $77 $117 $118 reversed $46 $-1 #
coedge $-1 $119 $48 $120 $121 reversed $29 $-1 #
coedge $-1 $48 $119 $49 $81 reversed $29 $-1 #
coedge $-1 $50 $49 $122 $123 forward $20 $-1 #
edge $124 $67 $125 $79 $126 forward #
coedge $-1 $122 $127 $51 $83 reversed $128 $-1 #
edge $129 $85 $130 $51 $92 forward #
ptlist-eye-attrib $-1 $-1 $-1 $52 #
vertex $-1 $123 $131 #
ellipse-curve $-1 7.84250515855258 0 -4.5278724644113399 -0.86602540378443993 0 0.49999999999999795 -22.039699883301999 0 -38.173879981449097 1 I I #
coedge $-1 $132 $133 $53 $88 forward $134 $-1 #
edge $135 $91 $130 $53 $136 forward #
coedge $-1 $137 $54 $133 $138 reversed $60 $-1 #
ptlist-eye-attrib $-1 $-1 $-1 $55 #
vertex $-1 $55 $139 #
ellipse-curve $-1 0 5.2199454419600598e-016 3.3390909511730503e-033 0 -1 -6.39679281766448e-018 0 2.8785567679490098e-016 -45 1 I I #
coedge $-1 $140 $56 $141 $142 reversed $9 $-1 #
coedge $-1 $143 $144 $56 $95 forward $145 $-1 #
edge $146 $147 $100 $94 $148 forward #
coedge $-1 $149 $57 $59 $103 forward $98 $-1 #
coedge $-1 $57 $150 $143 $151 reversed $98 $-1 #
loop $-1 $-1 $57 $152 #
ptlist-eye-attrib $-1 $-1 $-1 $58 #
vertex $-1 $95 $153 #
ellipse-curve $-1 -2.1502906875567498e-015 4.3005813751135399e-015 -3.72441272189053e-015 -0.35355339059327201 0.70710678118654902 -0.61237243569579403 0 -32.732683535398799 -37.7964473009228 1 I I #
coedge $-1 $59 $154 $155 $156 reversed $60 $-1 #
edge $157 $62 $158 $96 $159 forward #
point $-1 -43.301270189222002 0 24.999999999999901 #
coedge $-1 $64 $140 $116 $160 reversed $9 $-1 #
coedge $-1 $161 $120 $64 $107 forward $76 $-1 #
edge $162 $109 $163 $106 $164 forward #
ptlist-eye-attrib $-1 $-1 $-1 $65 #
vertex $-1 $121 $165 #
straight-curve $-1 -6.8518380196441298 -31.0241841149771 -31.867731575255899 0.86602540378444004 -1.8144065635450601e-031 -0.499999999999998 I I #
point $-1 -5.9268079748131601 -31.0241841149771 -32.401797920647603 #
sti_colour_lwattr-sg-attrib $-1 $-1 $72 $45 1 1 1 1 0 1 0.5 0.5 #
fmesh-eye-attrib $-1 $166 $-1 $73 #
face $167 $168 $128 $5 $-1 $115 forward single #
plane-surface $-1 58.660254037844197 0 81.602540378444004 0 -1 -6.39679281766448e-018 0.86602540378444004 0 -0.499999999999998 forward_v I I I I #
coedge $-1 $169 $170 $105 $160 forward $74 $-1 #
coedge $-1 $117 $117 $77 $118 forward $171 $-1 #
edge $172 $173 $173 $77 $174 forward #
coedge $-1 $79 $78 $175 $176 forward $29 $-1 #
coedge $-1 $106 $177 $78 $121 forward $76 $-1 #
edge $178 $179 $109 $120 $180 forward #
coedge $-1 $175 $82 $80 $123 reversed $128 $-1 #
edge $181 $125 $85 $80 $182 forward #
ptlist-eye-attrib $-1 $-1 $-1 $81 #
vertex $-1 $81 $183 #
ellipse-curve $-1 9.5852840826753791 0 -5.5340663453916399 0.86602540378443993 0 -0.49999999999999795 -21.937410968480201 0 -37.996710383926697 1 I I #
coedge $-1 $82 $184 $132 $185 reversed $128 $-1 #
loop $-1 $-1 $122 $114 #
ptlist-eye-attrib $-1 $-1 $-1 $83 #
vertex $-1 $88 $186 #
point $-1 29.882205041854601 9.1463574190907905e-013 33.646007517037802 #
coedge $-1 $187 $87 $127 $185 forward $134 $-1 #
coedge $-1 $87 $187 $89 $138 forward $134 $-1 #
loop $-1 $-1 $133 $188 #
ptlist-eye-attrib $-1 $-1 $-1 $88 #
ellipse-curve $-1 0 0 34.712514712794203 0 0 -1 28.636363636363601 0 0 1 I I #
coedge $-1 $189 $89 $190 $191 reversed $60 $-1 #
edge $192 $193 $91 $133 $194 forward #
point $-1 -28.636363636363601 -5.9419687742588804e-013 34.712514712794203 #
coedge $-1 $105 $93 $195 $196 reversed $9 $-1 #
coedge $-1 $197 $198 $93 $142 forward $199 $-1 #
edge $200 $201 $147 $141 $202 forward #
coedge $-1 $203 $94 $97 $151 forward $145 $-1 #
coedge $-1 $94 $203 $197 $204 forward $145 $-1 #
loop $-1 $-1 $94 $205 #
ptlist-eye-attrib $-1 $-1 $-1 $95 #
vertex $-1 $204 $206 #
ellipse-curve $-1 -11.2376988943094 -36.331804249169799 -35.464265445104601 0.35355339059327201 -0.70710678118654902 0.61237243569579403 1.7320508075688801 -6.39679281766444e-018 -0.999999999999995 1 I I #
coedge $-1 $150 $96 $207 $208 reversed $98 $-1 #
coedge $-1 $97 $149 $209 $210 forward $98 $-1 #
edge $211 $100 $212 $97 $213 forward #
face $214 $215 $98 $5 $-1 $216 forward single #
point $-1 -10.8054797060667 -34.934427162663297 -34.100255235677501 #
coedge $-1 $102 $217 $218 $219 reversed $60 $-1 #
coedge $-1 $220 $207 $102 $156 forward $221 $-1 #
edge $222 $158 $223 $155 $224 forward #
ptlist-eye-attrib $-1 $-1 $-1 $103 #
vertex $-1 $208 $225 #
ellipse-curve $-1 0 5.2199454419600598e-016 3.3390909511730503e-033 0 1 6.39679281766448e-018 0 3.1983964088322401e-016 -50 1 I I #
edge $226 $163 $227 $116 $228 forward #
coedge $-1 $229 $106 $170 $230 reversed $76 $-1 #
ptlist-eye-attrib $-1 $-1 $-1 $107 #
vertex $-1 $230 $231 #
straight-curve $-1 -0.35716145397485499 -35.355339059327299 -40.618621784789802 -0.35355339059327301 -0.70710678118654602 -0.61237243569579602 I I #
point $-1 1.8084160182001601 -31.024184114976901 -36.867731575256101 #
colour-tsl-attrib $-1 $-1 $113 $73 1 #
fmesh-eye-attrib $-1 $232 $-1 $114 #
face $233 $234 $221 $5 $-1 $235 forward single #
coedge $-1 $236 $116 $237 $238 reversed $74 $-1 #
coedge $-1 $116 $236 $161 $230 forward $74 $-1 #
loop $-1 $-1 $117 $215 #
ptlist-eye-attrib $-1 $-1 $-1 $118 #
vertex $-1 $118 $239 #
ellipse-curve $-1 -10.963763171772399 56.568542494923904 -58.989794855663703 0.86602540378443993 0 -0.49999999999999795 -3.53553390593266 7.0710678118654897 -6.1237243569579798 1 I I #
coedge $-1 $240 $122 $119 $176 reversed $128 $-1 #
edge $241 $179 $125 $119 $242 forward #
coedge $-1 $120 $243 $240 $244 forward $76 $-1 #
ptlist-eye-attrib $-1 $-1 $-1 $121 #
vertex $-1 $176 $245 #
ellipse-curve $-1 17.320508075688799 -1.8143704523586101e-030 -9.9999999999999591 -0.86602540378443993 0 0.49999999999999795 15.5120920574885 31.0241841149771 26.867731575255899 1 I I #
ptlist-eye-attrib $-1 $-1 $-1 $123 #
ellipse-curve $-1 36.522695051155601 -3.3385521075789199e-016 41.122898076379499 0 1 6.39679281766448e-018 8.6602540378443997 -3.1983964088322301e-017 -4.9999999999999796 1 I I #
point $-1 31.522695051155601 9.10390806724278e-013 32.462644038535103 #
coedge $-1 $127 $246 $247 $248 reversed $128 $-1 #
edge $249 $130 $250 $132 $251 forward #
point $-1 28.636363636363601 2.9994577939813201e-016 34.712514712794103 #
coedge $-1 $133 $132 $252 $253 forward $134 $-1 #
face $254 $255 $134 $5 $-1 $256 forward single #
coedge $-1 $217 $137 $257 $258 reversed $60 $-1 #
coedge $-1 $252 $259 $137 $191 forward $260 $-1 #
edge $261 $262 $193 $190 $263 forward #
ptlist-eye-attrib $-1 $-1 $-1 $138 #
vertex $-1 $253 $264 #
ellipse-curve $-1 -35 0 42.426406871192903 0 1 6.39679281766448e-018 0 0 -10 1 I I #
coedge $-1 $265 $237 $140 $196 forward $266 $-1 #
edge $267 $227 $201 $195 $268 forward #
coedge $-1 $269 $141 $144 $204 reversed $199 $-1 #
coedge $-1 $141 $270 $265 $271 reversed $199 $-1 #
loop $-1 $272 $141 $273 #
ptlist-eye-attrib $-1 $-1 $-1 $142 #
vertex $-1 $196 $274 #
straight-curve $-1 -9.0174154918192606 -35.355339059327299 -35.618621784789802 0.35355339059327301 0.70710678118654602 0.61237243569579602 I I #
coedge $-1 $144 $143 $275 $276 forward $145 $-1 #
edge $277 $278 $147 $197 $279 forward #
face $280 $152 $145 $5 $-1 $281 forward single #
point $-1 -9.5056480867405106 -36.331804249169799 -36.464265445104601 #
coedge $-1 $155 $282 $149 $208 forward $221 $-1 #
edge $283 $284 $158 $149 $285 forward #
coedge $-1 $286 $275 $150 $210 reversed $128 $-1 #
edge $287 $284 $212 $150 $159 forward #
ptlist-eye-attrib $-1 $-1 $-1 $151 #
vertex $-1 $151 $288 #
ellipse-curve $-1 6.66173387526492 0 -3.8461538461538298 0.86602540378443993 0 -0.49999999999999795 -24.702370343586701 0 -42.785760502475 1 I I #
fmesh-eye-attrib $-1 $289 $-1 $152 #
face $290 $291 $292 $5 $-1 $293 reversed single #
sphere-surface $-1 0 0 0 50 1 0 0 0 0 1 forward_v I I I I #
coedge $-1 $154 $189 $294 $295 reversed $60 $-1 #
coedge $-1 $296 $297 $154 $219 forward $298 $-1 #
edge $299 $223 $300 $218 $301 forward #
coedge $-1 $282 $155 $297 $302 forward $221 $-1 #
loop $-1 $-1 $155 $168 #
ptlist-eye-attrib $-1 $-1 $-1 $156 #
vertex $-1 $219 $303 #
ellipse-curve $-1 -33 0 41.472882706655398 0 -1 -6.39679281766448e-018 0 0 3 1 I I #
point $-1 -31.132075471698101 -6.45982229726258e-013 39.125361044014603 #
ptlist-eye-attrib $-1 $-1 $-1 $160 #
vertex $-1 $238 $304 #
straight-curve $-1 -12.279067650400799 -50.5388974143357 -51.267969040070803 -0.86602540378444504 1.7831029797114801e-029 0.49999999999998901 I I #
coedge $-1 $305 $161 $306 $307 reversed $76 $-1 #
edge $308 $309 $163 $161 $310 forward #
point $-1 -7.9489406314789699 -50.5388974143357 -53.767969040070597 #
colour-tsl-attrib $-1 $-1 $167 $114 1 #
fmesh-eye-attrib $-1 $311 $-1 $168 #
face $312 $313 $298 $5 $-1 $314 forward single #
torus-surface $-1 0 0 41.472882706655398 0 0 -1 33 -3 -1 0 0 forward_v I I I I #
coedge $-1 $170 $169 $315 $316 reversed $74 $-1 #
coedge $-1 $195 $317 $169 $238 forward $266 $-1 #
edge $318 $319 $227 $169 $320 forward #
point $-1 -7.4282292658397804 49.4974746830584 -52.866070498705803 #
coedge $-1 $321 $175 $177 $244 reversed $128 $-1 #
ptlist-eye-attrib $-1 $-1 $-1 $176 #
straight-curve $-1 30.597665006324601 3.10921424205549e-016 32.996710383926697 -0.86602540378444004 1.8144065635450601e-031 0.499999999999998 I I #
coedge $-1 $177 $322 $323 $324 reversed $76 $-1 #
edge $325 $326 $179 $177 $327 forward #
point $-1 39.257919044169 3.4290538829387099e-016 27.9967103839268 #
coedge $-1 $184 $328 $329 $330 reversed $128 $-1 #
coedge $-1 $259 $252 $184 $248 forward $260 $-1 #
edge $331 $250 $332 $247 $333 forward #
ptlist-eye-attrib $-1 $-1 $-1 $185 #
vertex $-1 $185 $334 #
ellipse-curve $-1 35 0 42.426406871192903 0 1 6.39679281766448e-018 0 0 -10 1 I I #
coedge $-1 $247 $190 $187 $253 reversed $260 $-1 #
edge $335 $250 $193 $252 $336 forward #
fmesh-eye-attrib $-1 $337 $-1 $188 #
face $338 $339 $266 $5 $-1 $340 forward single #
torus-surface $-1 0 0 42.426406871192903 0 0 -1 35 10 -1 0 0 forward_v I I I I #
coedge $-1 $341 $342 $189 $258 forward $343 $-1 #
edge $344 $345 $262 $257 $346 forward #
coedge $-1 $190 $247 $341 $347 reversed $260 $-1 #
loop $-1 $-1 $190 $348 #
ptlist-eye-attrib $-1 $-1 $-1 $191 #
vertex $-1 $191 $349 #
straight-curve $-1 -25 2.02154903312782e-016 50 0 0 -1 I I #
point $-1 -25 -5.1874330568926803e-013 42.426406871192903 #
coedge $-1 $317 $195 $198 $271 forward $266 $-1 #
loop $-1 $-1 $195 $255 #
ptlist-eye-attrib $-1 $-1 $-1 $196 #
ellipse-curve $-1 -12.9504582861892 -48.417577070776098 -48.430851732983903 -0.35355339059327201 0.70710678118654902 -0.61237243569579403 2.59807621135332 -9.5951892264966696e-018 -1.49999999999999 1 I I #
coedge $-1 $350 $197 $351 $352 forward $199 $-1 #
coedge $-1 $198 $353 $354 $355 reversed $199 $-1 #
edge $356 $201 $357 $198 $358 forward #
loop $-1 $-1 $359 $273 #
face $360 $205 $199 $5 $-1 $361 forward single #
point $-1 -15.5485344975428 -48.417577070776098 -46.930851732983697 #
coedge $-1 $209 $351 $203 $276 reversed $128 $-1 #
edge $362 $212 $278 $203 $363 forward #
ptlist-eye-attrib $-1 $-1 $-1 $204 #
vertex $-1 $352 $364 #
ellipse-curve $-1 8.6602540378443997 0 -4.9999999999999796 -0.86602540378443993 0 0.49999999999999795 -25.690465157330198 0 -44.497190922573999 1 I I #
fmesh-eye-attrib $-1 $365 $-1 $205 #
torus-surface $-1 6.9282032302755203 -2.55871712706578e-017 -3.99999999999998 -0.86602540378443993 3.1983964088322296e-018 0.49999999999999795 51.380930314660503 -2 0.49999999999999795 5.5397850828432795e-018 0.86602540378443993 forward_v I I I I #
coedge $-1 $207 $220 $286 $366 forward $221 $-1 #
ptlist-eye-attrib $-1 $-1 $-1 $208 #
vertex $-1 $210 $367 #
ellipse-curve $-1 0 0 39.125361044014603 0 0 1 31.132075471698101 0 0 1 I I #
coedge $-1 $368 $209 $282 $366 reversed $128 $-1 #
ptlist-eye-attrib $-1 $-1 $-1 $210 #
point $-1 31.364104218851601 -1.0251351400314201e-012 38.939606656321203 #
sti_colour_lwattr-sg-attrib $-1 $-1 $214 $152 1 1 1 1 0 1 0.5 0.5 #
fmesh-eye-attrib $-1 $369 $-1 $215 #
face $370 $371 $372 $5 $-1 $373 forward single #
loop $-1 $171 $374 $215 #
cone-surface $-1 -19.624017209616898 56.568542494923904 -53.989794855663803 -0.86602540378444504 1.7831029797114801e-029 0.49999999999998901 -3.53553390593266 7.0710678118654897 -6.1237243569579798 1 I I 0 1 forward I I I I #
coedge $-1 $375 $376 $217 $295 forward $377 $-1 #
edge $378 $300 $345 $294 $379 forward #
coedge $-1 $380 $218 $376 $381 reversed $298 $-1 #
coedge $-1 $218 $380 $220 $302 reversed $298 $-1 #
loop $-1 $-1 $218 $234 #
ptlist-eye-attrib $-1 $-1 $-1 $219 #
vertex $-1 $381 $382 #
straight-curve $-1 -30 2.02154903312782e-016 50 0 0 1 I I #
edge $383 $223 $384 $297 $385 forward #
point $-1 -30 -6.2249196682712096e-013 41.472882706655398 #
point $-1 -14.0111184579693 -50.5388974143357 -50.267969040071101 #
coedge $-1 $386 $229 $387 $388 reversed $76 $-1 #
coedge $-1 $315 $389 $229 $307 forward $390 $-1 #
edge $391 $392 $309 $306 $393 forward #
ptlist-eye-attrib $-1 $-1 $-1 $230 #
vertex $-1 $307 $394 #
ellipse-curve $-1 13.264262804117401 -8.1124905431429699 -17.025622898322801 -0.86602540378443993 0 0.49999999999999795 -21.213203435596 -42.426406871192803 -36.742346141748001 1 I I #
sti_colour_lwattr-sg-attrib $-1 $-1 $233 $168 1 1 1 1 0 1 0.5 0.5 #
fmesh-eye-attrib $-1 $395 $-1 $234 #
face $396 $397 $377 $5 $-1 $398 forward single #
cone-surface $-1 0 0 50 0 0 1 30 0 0 1 I I 0 1 forward I I I I #
coedge $-1 $399 $306 $236 $316 forward $390 $-1 #
edge $400 $309 $319 $315 $401 forward #
coedge $-1 $237 $265 $402 $403 reversed $266 $-1 #
ptlist-eye-attrib $-1 $-1 $-1 $238 #
vertex $-1 $316 $404 #
ellipse-curve $-1 7.2020849776270497 -8.1124905431429699 -13.5256228983233 -0.86602540378443993 0 0.49999999999999795 -21.213203435596 -42.426406871192803 -36.742346141748001 1 I I #
coedge $-1 $405 $240 $406 $407 reversed $128 $-1 #
coedge $-1 $243 $386 $408 $409 forward $76 $-1 #
coedge $-1 $410 $406 $243 $324 forward $411 $-1 #
edge $412 $326 $413 $323 $414 forward #
ptlist-eye-attrib $-1 $-1 $-1 $244 #
vertex $-1 $244 $415 #
straight-curve $-1 42.3205080756887 3.0897321823048602e-016 33.301270189222002 -0.499999999999998 5.5397850828432803e-018 -0.86602540378444004 I I #
coedge $-1 $246 $368 $416 $417 reversed $128 $-1 #
coedge $-1 $342 $341 $246 $330 forward $343 $-1 #
edge $418 $332 $419 $329 $346 forward #
ptlist-eye-attrib $-1 $-1 $-1 $248 #
vertex $-1 $347 $420 #
straight-curve $-1 25 2.02154903312782e-016 50 0 0 1 I I #
point $-1 25 2.5060160944304899e-016 42.426406871192903 #
ptlist-eye-attrib $-1 $-1 $-1 $253 #
ellipse-curve $-1 0 0 42.426406871192903 0 0 1 25 0 0 1 I I #
sti_colour_lwattr-sg-attrib $-1 $-1 $254 $188 1 1 1 1 0 1 0.5 0.5 #
fmesh-eye-attrib $-1 $421 $-1 $255 #
face $422 $423 $424 $5 $-1 $425 forward single #
torus-surface $-1 7.2020849776273899 -8.1124905431429699 -13.525622898323499 0.86602540378443993 -3.1983964088322296e-018 -0.49999999999999795 57 3 -0.49999999999999795 -5.5397850828432795e-018 -0.86602540378443993 forward_v I I I I #
coedge $-1 $329 $257 $259 $347 forward $343 $-1 #
coedge $-1 $257 $329 $375 $426 reversed $343 $-1 #
loop $-1 $-1 $257 $397 #
ptlist-eye-attrib $-1 $-1 $-1 $258 #
vertex $-1 $258 $427 #
straight-curve $-1 29.330127018922099 -1.1768473757044201e-016 100 1 0 0 I I #
edge $428 $262 $332 $341 $429 forward #
face $430 $431 $260 $5 $-1 $432 reversed single #
point $-1 -25 -1.1768473757044201e-016 100 #
coedge $-1 $433 $269 $434 $435 reversed $199 $-1 #
coedge $-1 $275 $405 $269 $352 reversed $128 $-1 #
edge $436 $278 $437 $269 $438 forward #
coedge $-1 $270 $439 $440 $441 reversed $199 $-1 #
coedge $-1 $442 $402 $270 $355 forward $424 $-1 #
edge $443 $357 $444 $270 $445 forward #
ptlist-eye-attrib $-1 $-1 $-1 $271 #
vertex $-1 $271 $446 #
ellipse-curve $-1 4.6040087662737097 -8.1124905431429699 -12.0256228983233 0.86602540378443993 0 -0.49999999999999795 -20.152543263816199 -40.305086527633101 -34.905228834660598 1 I I #
coedge $-1 $359 $359 $374 $447 reversed $272 $-1 #
fmesh-eye-attrib $-1 $448 $-1 $273 #
plane-surface $-1 51.086660909037001 -84.852813742385806 68.484692283495306 -0.86602540378443993 0 0.49999999999999795 0.35355339059327201 -0.70710678118654902 0.61237243569579403 forward_v I I I I #
ptlist-eye-attrib $-1 $-1 $-1 $276 #
ellipse-curve $-1 32.618668387605702 -3.1022648257042399e-016 40.497190922574099 0 -1 -6.39679281766448e-018 1.7320508075688801 -6.39679281766444e-018 -0.999999999999995 1 I I #
point $-1 34.350719195174499 -1.0661405456326801e-012 39.497190922574099 #
sti_colour_lwattr-sg-attrib $-1 $-1 $280 $205 1 1 1 1 0 1 0.5 0.5 #
edge $449 $384 $284 $282 $450 forward #
point $-1 31.132075471698101 2.7171771568112402e-016 39.125361044014603 #
coedge $-1 $328 $286 $380 $451 reversed $128 $-1 #
sti_colour_lwattr-sg-attrib $-1 $-1 $290 $215 1 1 1 1 0 1 0.5 0.5 #
fmesh-eye-attrib $-1 $452 $-1 $291 #
face $453 $454 $455 $5 $-1 $456 forward single #
loop $-1 $-1 $457 $291 #
cone-surface $-1 -17.202711494963498 60.386185103461798 -59.795970337227502 -0.86602540378444504 1.7831029797114801e-029 0.49999999999998901 -7.0710678118653103 14.142135623731001 -12.247448713916 1 I I 0 1 forward I I I I #
coedge $-1 $374 $374 $359 $447 forward $292 $-1 #
coedge $-1 $416 $294 $342 $426 forward $377 $-1 #
coedge $-1 $294 $416 $296 $381 forward $377 $-1 #
loop $-1 $-1 $294 $313 #
ptlist-eye-attrib $-1 $-1 $-1 $295 #
straight-curve $-1 -29 -1.1128794475277699e-016 99 0.70710678118654802 2.7135331172069899e-018 0.70710678118654802 I I #
coedge $-1 $297 $296 $368 $451 forward $298 $-1 #
edge $458 $459 $300 $296 $460 forward #
point $-1 -30 6.2249196682712096e-013 98 #
ptlist-eye-attrib $-1 $-1 $-1 $302 #
vertex $-1 $302 $461 #
ellipse-curve $-1 0 0 41.472882706655398 0 0 -1 30 0 0 1 I I #
coedge $-1 $322 $305 $462 $463 reversed $76 $-1 #
coedge $-1 $464 $465 $305 $388 forward $372 $-1 #
edge $466 $467 $392 $305 $468 forward #
coedge $-1 $306 $399 $464 $469 reversed $390 $-1 #
loop $-1 $-1 $399 $454 #
ptlist-eye-attrib $-1 $-1 $-1 $307 #
vertex $-1 $469 $470 #
straight-curve $-1 -25.105898795503801 84.852813742385806 -83.484692283495306 0.084148231446009206 -0.98573642551040797 0.14574901223155401 I I #
point $-1 -16.307829961194201 -18.210278316664098 -68.245990053983903 #
sti_colour_lwattr-sg-attrib $-1 $-1 $312 $234 1 1 1 1 0 1 0.5 0.5 #
fmesh-eye-attrib $-1 $471 $-1 $313 #
face $472 $473 $343 $5 $-1 $474 forward single #
cone-surface $-1 0 0 99 0 0 1 -29 -2.0250603494434401e-013 0 1 I I -0.70710678118654702 0.70710678118654702 forward I I I I #
coedge $-1 $389 $315 $475 $476 reversed $390 $-1 #
ptlist-eye-attrib $-1 $-1 $-1 $316 #
straight-curve $-1 -20.6379569801164 -18.210278316664098 -65.745990053984002 -0.86602540378444504 1.7831029797114801e-029 0.49999999999998901 I I #
coedge $-1 $354 $475 $317 $403 forward $424 $-1 #
edge $477 $319 $357 $402 $478 forward #
point $-1 -22.3700077876859 -18.210278316664098 -64.745990053983704 #
coedge $-1 $351 $321 $479 $480 reversed $128 $-1 #
coedge $-1 $323 $481 $321 $407 forward $411 $-1 #
edge $482 $483 $326 $406 $484 forward #
coedge $-1 $485 $486 $322 $409 reversed $487 $-1 #
edge $488 $489 $413 $322 $490 reversed #
coedge $-1 $481 $323 $486 $491 forward $411 $-1 #
loop $-1 $-1 $406 $431 #
ptlist-eye-attrib $-1 $-1 $-1 $324 #
vertex $-1 $324 $492 #
straight-curve $-1 59.746914946881397 -84.852813742385806 63.484692283495299 -0.084148231446009206 0.98573642551040797 -0.14574901223155401 I I #
point $-1 52.5033820664339 0 50.938525308264502 #
coedge $-1 $376 $375 $328 $417 forward $377 $-1 #
edge $493 $419 $459 $416 $494 forward #
ptlist-eye-attrib $-1 $-1 $-1 $330 #
vertex $-1 $426 $495 #
point $-1 25 0 100 #
sti_colour_lwattr-sg-attrib $-1 $-1 $338 $255 1 1 1 1 0 1 0.5 0.5 #
fmesh-eye-attrib $-1 $496 $-1 $339 #
face $497 $498 $499 $5 $-1 $500 forward single #
loop $-1 $-1 $354 $339 #
cone-surface $-1 -24.102462534395801 19.9098781531547 -67.7466896970992 0.084148231446009192 -0.98573642551040774 0.14574901223155298 -2.8826486734988799 -0.35701071048196897 -0.75025327575180401 1 I I 0 1 forward I I I I #
edge $501 $345 $419 $342 $502 forward #
point $-1 -28 5.8099250237198005e-013 100 #
ptlist-eye-attrib $-1 $-1 $-1 $347 #
ellipse-curve $-1 0 0 100 0 0 -1 25 0 0 1 I I #
fmesh-eye-attrib $-1 $503 $-1 $348 #
face $504 $188 $411 $5 $-1 $505 forward single #
cone-surface $-1 0 0 50 0 0 1 25 0 0 1 I I 0 1 forward I I I I #
coedge $-1 $439 $350 $506 $507 reversed $199 $-1 #
coedge $-1 $479 $508 $350 $435 forward $509 $-1 #
edge $510 $511 $437 $350 $512 forward #
ptlist-eye-attrib $-1 $-1 $-1 $352 #
vertex $-1 $435 $513 #
straight-curve $-1 54.873457473440602 -1.4289038964895e-032 75.043616330969698 0.499999999999998 -5.5397850828432803e-018 0.86602540378444004 I I #
coedge $-1 $353 $433 $514 $515 reversed $199 $-1 #
coedge $-1 $516 $517 $353 $441 forward $499 $-1 #
edge $518 $444 $519 $353 $520 forward #
coedge $-1 $475 $354 $517 $521 reversed $424 $-1 #
ptlist-eye-attrib $-1 $-1 $-1 $355 #
vertex $-1 $355 $522 #
straight-curve $-1 -32.2875481950826 85.357703131061896 -75.923673925712293 -0.084148231446009206 0.98573642551040797 -0.14574901223155401 I I #
point $-1 -23.489479360773601 -17.7053889279881 -60.684971696200698 #
edge $523 $524 $524 $359 $525 forward #
sti_colour_lwattr-sg-attrib $-1 $-1 $360 $273 1 1 1 1 0 1 0.5 0.5 #
ptlist-eye-attrib $-1 $-1 $-1 $366 #
ellipse-curve $-1 33 0 41.472882706655398 0 -1 -6.39679281766448e-018 0 0 3 1 I I #
edge $526 $459 $384 $380 $527 forward #
sti_colour_lwattr-sg-attrib $-1 $-1 $370 $291 1 1 1 1 0 1 0.5 0.5 #
fmesh-eye-attrib $-1 $528 $-1 $371 #
face $529 $-1 $390 $5 $-1 $530 forward single #
loop $-1 $-1 $531 $371 #
plane-surface $-1 -25.105898795503801 84.852813742385806 -83.484692283495306 0.084148231446010899 0.98573642551040697 0.14574901223155701 -0.86602540378444004 0 0.499999999999998 forward_v I I I I #
coedge $-1 $465 $464 $532 $533 reversed $372 $-1 #
ptlist-eye-attrib $-1 $-1 $-1 $381 #
vertex $-1 $417 $534 #
ellipse-curve $-1 0 0 98 0 0 1 30 0 0 1 I I #
point $-1 30 2.5670110597023098e-016 41.472882706655398 #
coedge $-1 $535 $536 $386 $463 forward $455 $-1 #
edge $537 $489 $467 $462 $538 forward #
coedge $-1 $457 $387 $389 $469 forward $372 $-1 #
coedge $-1 $387 $457 $535 $539 reversed $372 $-1 #
ptlist-eye-attrib $-1 $-1 $-1 $388 #
vertex $-1 $463 $540 #
ellipse-curve $-1 -12.8725844760413 60.386185103461798 -62.295970337227402 -0.86602540378443993 0 0.49999999999999795 -7.0710678118653103 14.142135623731001 -12.247448713916 1 I I #
edge $541 $392 $542 $389 $543 forward #
point $-1 -22.7299487311452 57.020255845621399 -79.369426055781105 #
sti_colour_lwattr-sg-attrib $-1 $-1 $396 $313 1 1 1 1 0 1 0.5 0.5 #
fmesh-eye-attrib $-1 $544 $-1 $397 #
face $545 $348 $509 $5 $-1 $546 forward single #
plane-surface $-1 0 0 100 0 0 1 1 0 0 forward_v I I I I #
coedge $-1 $402 $442 $399 $476 forward $424 $-1 #
edge $547 $542 $319 $399 $548 forward #
ptlist-eye-attrib $-1 $-1 $-1 $403 #
ellipse-curve $-1 -20.891403149420299 -17.7053889279881 -62.184971696200698 -0.084148231446009164 0.98573642551040752 -0.14574901223155395 -2.8826486734988799 -0.35701071048197602 -0.750253275751807 1 I I #
coedge $-1 $549 $434 $405 $480 forward $509 $-1 #
edge $550 $437 $483 $479 $551 forward #
coedge $-1 $406 $410 $549 $552 reversed $411 $-1 #
ptlist-eye-attrib $-1 $-1 $-1 $407 #
vertex $-1 $407 $553 #
straight-curve $-1 48.173255047511702 5.36599660629622e-017 53.438525308264502 0.86602540378444004 3.19839640883223e-018 -0.499999999999998 I I #
coedge $-1 $554 $408 $536 $555 forward $487 $-1 #
coedge $-1 $408 $554 $410 $491 reversed $487 $-1 #
loop $-1 $-1 $554 $556 #
ptlist-eye-attrib $-1 $-1 $-1 $409 #
vertex $-1 $555 $557 #
ellipse-curve $-1 21.376753347260301 8.1124905431429699 -2.9743771016771001 -0.86602540378443993 0 0.49999999999999795 21.213203435596402 42.426406871192803 36.742346141747802 1 I I #
edge $558 $413 $559 $410 $560 reversed #
point $-1 50.948846112572397 18.210278316664098 48.245990053983803 #
ptlist-eye-attrib $-1 $-1 $-1 $417 #
straight-curve $-1 29 -1.1128794475277699e-016 99 0.70710678118654802 -2.7135331172069899e-018 -0.70710678118654802 I I #
point $-1 28 -1.1768473757044201e-016 100 #
sti_colour_lwattr-sg-attrib $-1 $-1 $422 $339 1 1 1 1 0 1 0.5 0.5 #
fmesh-eye-attrib $-1 $561 $-1 $423 #
face $562 $563 $564 $5 $-1 $565 forward single #
loop $-1 $-1 $440 $423 #
torus-surface $-1 -18.934762302531599 60.386185103461798 -58.795970337227999 0.86602540378443993 -3.1983964088322296e-018 -0.49999999999999795 17 3 -0.49999999999999795 -5.5397850828432795e-018 -0.86602540378443993 forward_v I I I I #
ptlist-eye-attrib $-1 $-1 $-1 $426 #
ellipse-curve $-1 0 0 100 0 0 -1 28 0 0 1 I I #
sti_colour_lwattr-sg-attrib $-1 $-1 $430 $348 1 1 1 1 0 1 0.5 0.5 #
fmesh-eye-attrib $-1 $566 $-1 $431 #
plane-surface $-1 47.372546276116999 60.1040764008564 42.0516570341427 0.49286821275520198 0.16829646289201899 0.85367278592768103 0.86602540378444004 0 -0.499999999999998 forward_v I I I I #
coedge $-1 $567 $568 $433 $507 forward $569 $-1 #
edge $570 $571 $511 $433 $572 forward #
coedge $-1 $434 $549 $567 $573 forward $509 $-1 #
loop $-1 $-1 $479 $473 #
ptlist-eye-attrib $-1 $-1 $-1 $435 #
vertex $-1 $507 $574 #
straight-curve $-1 49.608056270771399 -85.357703131061896 65.923673925712293 0.084148231446009206 -0.98573642551040797 0.14574901223155401 I I #
point $-1 42.321423076656501 0 53.302855017387301 #
coedge $-1 $575 $576 $439 $515 forward $564 $-1 #
edge $577 $519 $571 $439 $578 forward #
coedge $-1 $532 $440 $576 $579 reversed $499 $-1 #
coedge $-1 $440 $532 $442 $521 forward $499 $-1 #
ptlist-eye-attrib $-1 $-1 $-1 $441 #
vertex $-1 $441 $580 #
ellipse-curve $-1 -21.532838513885 60.386185103461798 -57.295970337227899 0.86602540378443993 0 -0.49999999999999795 -6.0104076400855098 12.0208152801713 -10.410331406828499 1 I I #
edge $581 $542 $444 $517 $582 forward #
point $-1 -29.911598130723402 57.525145234297497 -71.808407697998504 #
ptlist-eye-attrib $-1 $-1 $-1 $447 #
vertex $-1 $447 $583 #
ellipse-curve $-1 -19.624017209616099 56.568542494923904 -53.989794855664201 -0.86602540378443993 0 0.49999999999999795 -3.53553390593266 7.0710678118654897 -6.1237243569579798 1 I I #
ptlist-eye-attrib $-1 $-1 $-1 $451 #
straight-curve $-1 30 2.02154903312782e-016 50 0 0 -1 I I #
sti_colour_lwattr-sg-attrib $-1 $-1 $453 $371 1 1 1 1 0 1 0.5 0.5 #
fmesh-eye-attrib $-1 $584 $-1 $454 #
plane-surface $-1 -12.7315301247394 -60.1040764008564 -62.0516570341427 -0.49286821275520198 -0.16829646289201899 -0.85367278592768103 -0.86602540378444004 0 0.499999999999998 forward_v I I I I #
coedge $-1 $536 $535 $585 $586 reversed $455 $-1 #
coedge $-1 $517 $516 $457 $533 forward $499 $-1 #
edge $587 $588 $542 $457 $589 forward #
point $-1 30 -1.04891151935113e-016 98 #
coedge $-1 $531 $462 $465 $539 forward $455 $-1 #
coedge $-1 $462 $531 $485 $555 reversed $455 $-1 #
ptlist-eye-attrib $-1 $-1 $-1 $463 #
straight-curve $-1 47.372546276116999 60.1040764008564 42.0516570341427 -0.49286821275520198 0.16829646289202299 -0.85367278592768103 I I #
edge $590 $467 $588 $535 $591 forward #
point $-1 -11.189619847121101 80.100913613669903 -59.3809900925962 #
ptlist-eye-attrib $-1 $-1 $-1 $469 #
vertex $-1 $469 $592 #
straight-curve $-1 -27.060075750067401 57.020255845621399 -76.869426055781204 -0.86602540378444504 1.7831029797114801e-029 0.49999999999998901 I I #
sti_colour_lwattr-sg-attrib $-1 $-1 $472 $397 1 1 1 1 0 1 0.5 0.5 #
fmesh-eye-attrib $-1 $593 $-1 $473 #
cone-surface $-1 46.6191230327913 -19.9098781531547 54.746689697099299 -0.084148231446008886 0.98573642551040774 -0.14574901223155298 -0.79158594067589205 0.35701071048196997 2.8715736193114401 1 I I 0 1 forward I I I I #
ptlist-eye-attrib $-1 $-1 $-1 $476 #
straight-curve $-1 -31.168076621994899 84.852813742385806 -79.984692283495306 0.084148231446009206 -0.98573642551040797 0.14574901223155401 I I #
coedge $-1 $508 $479 $481 $552 forward $509 $-1 #
ptlist-eye-attrib $-1 $-1 $-1 $480 #
ellipse-curve $-1 44.919499288009803 0 51.802855017387301 0 1 6.39679281766448e-018 1.5217049519330701 0 2.6356702908772598 0.98573642551040797 I I #
edge $594 $483 $559 $481 $595 forward #
point $-1 46.441204239942898 0 54.438525308264502 #
coedge $-1 $486 $485 $596 $597 reversed $487 $-1 #
edge $598 $489 $599 $536 $600 forward #
face $601 $273 $487 $5 $-1 $602 forward single #
point $-1 26.4256472340209 67.256676073767395 5.7705636322163096 #
ptlist-eye-attrib $-1 $-1 $-1 $491 #
vertex $-1 $491 $603 #
straight-curve $-1 50.948846112572397 18.210278316664098 48.245990053983803 0.86602540378444004 0 -0.499999999999998 I I #
sti_colour_lwattr-sg-attrib $-1 $-1 $497 $423 1 1 1 1 0 1 0.5 0.5 #
fmesh-eye-attrib $-1 $604 $-1 $498 #
face $605 $556 $569 $5 $-1 $606 forward single #
loop $-1 $-1 $514 $498 #
cone-surface $-1 1.3033911726205401 70.721585567187404 -23.7424602668845 -0.49286821275520087 0.16829646289202296 -0.85367278592768081 -1.6586119518464 2.0910627328229898 1.36984051648034 1 I I 0 1 forward I I I I #
sti_colour_lwattr-sg-attrib $-1 $-1 $504 $431 1 1 1 1 0 1 0.5 0.5 #
coedge $-1 $596 $506 $508 $573 reversed $569 $-1 #
coedge $-1 $506 $596 $575 $607 forward $569 $-1 #
loop $-1 $-1 $506 $563 #
ptlist-eye-attrib $-1 $-1 $-1 $507 #
vertex $-1 $515 $608 #
ellipse-curve $-1 12.7164993094159 8.1124905431429699 2.0256228983228701 0.86602540378443993 0 -0.49999999999999795 20.1525432638166 40.305086527633101 34.905228834660399 1 I I #
edge $609 $559 $511 $508 $610 forward #
point $-1 40.8099874364624 17.7053889279881 50.684971696200698 #
coedge $-1 $585 $514 $568 $607 reversed $564 $-1 #
coedge $-1 $514 $585 $516 $579 forward $564 $-1 #
ptlist-eye-attrib $-1 $-1 $-1 $515 #
straight-curve $-1 38.4598475439346 57.146867124325198 46.614409997448 0.49286821275520198 -0.16829646289202299 0.85367278592768103 I I #
edge $611 $588 $519 $576 $612 forward #
point $-1 -20.102318579304001 77.143704337138701 -54.818237129290701 #
ptlist-eye-attrib $-1 $-1 $-1 $521 #
ellipse-curve $-1 -27.3135219193701 57.525145234297497 -73.308407697998504 -0.08414823144600389 0.98573642551040774 -0.14574901223155598 -2.8826486734989101 -0.35701071048198002 -0.75025327575187595 1 I I #
point $-1 -16.0884833036842 49.497474683058499 -47.866070498705803 #
sti_colour_lwattr-sg-attrib $-1 $-1 $529 $454 1 1 1 1 0 1 0.5 0.5 #
coedge $-1 $576 $575 $531 $586 forward $564 $-1 #
edge $613 $599 $588 $531 $614 forward #
ptlist-eye-attrib $-1 $-1 $-1 $533 #
vertex $-1 $539 $615 #
ellipse-curve $-1 -18.934762302531698 60.386185103461798 -58.795970337227899 -0.86602540378443993 0 0.49999999999999795 -7.0710678118653103 14.142135623731001 -12.247448713915899 1 I I #
ptlist-eye-attrib $-1 $-1 $-1 $539 #
straight-curve $-1 -15.519746866043301 80.100913613669903 -56.880990092596299 -0.86602540378444504 1.7831029797114801e-029 0.49999999999998901 I I #
point $-1 -28.792126557635601 57.020255845621399 -75.869426055781602 #
sti_colour_lwattr-sg-attrib $-1 $-1 $545 $473 1 1 1 1 0 1 0.5 0.5 #
ptlist-eye-attrib $-1 $-1 $-1 $552 #
straight-curve $-1 53.684737120390302 -84.852813742385806 66.984692283495306 -0.084148231446009206 0.98573642551040797 -0.14574901223155401 I I #
coedge $-1 $568 $567 $554 $597 forward $569 $-1 #
edge $616 $559 $599 $554 $617 forward #
ptlist-eye-attrib $-1 $-1 $-1 $555 #
vertex $-1 $555 $618 #
straight-curve $-1 26.4256472340209 67.256676073767395 5.7705636322163096 -0.86602540378444004 0 0.499999999999998 I I #
fmesh-eye-attrib $-1 $619 $-1 $556 #
cone-surface $-1 17.0466263283381 8.1124905431429699 -0.474377101677114 -0.86602540378443993 0 0.49999999999999795 21.213203435596402 42.426406871192803 36.742346141747802 1 I I 0 1 forward I I I I #
point $-1 44.886668286081303 18.210278316664098 51.745990053983803 #
sti_colour_lwattr-sg-attrib $-1 $-1 $562 $498 1 1 1 1 0 1 0.5 0.5 #
fmesh-eye-attrib $-1 $620 $-1 $563 #
torus-surface $-1 15.3145755207692 8.1124905431429699 0.52562289832287801 -0.86602540378443993 3.1983964088322296e-018 0.49999999999999795 57 3 0.49999999999999795 5.5397850828432795e-018 0.86602540378443993 forward_v I I I I #
edge $621 $599 $571 $568 $622 forward #
point $-1 17.512948501838501 64.299466797236207 10.3333165955216 #
ptlist-eye-attrib $-1 $-1 $-1 $573 #
ellipse-curve $-1 43.408063647815702 17.7053889279881 49.184971696200698 0.084148231446009164 -0.98573642551040752 0.14574901223155395 -0.79158594067590404 0.35701071048196598 2.8715736193114298 1 I I #
ptlist-eye-attrib $-1 $-1 $-1 $579 #
ellipse-curve $-1 -17.504242367950699 77.143704337138701 -56.318237129290701 0.49286821275520132 -0.1682964628920231 0.85367278592768059 -1.65861195184638 2.0910627328229898 1.36984051648034 1 I I #
ptlist-eye-attrib $-1 $-1 $-1 $586 #
straight-curve $-1 41.310368449625898 60.1040764008564 45.5516570341427 -0.49286821275520198 0.16829646289202299 -0.85367278592768103 I I #
point $-1 -17.2517976736127 80.100913613669903 -55.8809900925961 #
ptlist-eye-attrib $-1 $-1 $-1 $597 #
ellipse-curve $-1 15.3145755207692 8.1124905431429699 0.525622898322883 -0.86602540378443993 0 0.49999999999999795 21.213203435596402 42.426406871192803 36.742346141747802 1 I I #
point $-1 20.363469407529902 67.256676073767395 9.2705636322162697 #
sti_colour_lwattr-sg-attrib $-1 $-1 $601 $556 1 1 1 1 0 1 0.5 0.5 #
sti_colour_lwattr-sg-attrib $-1 $-1 $605 $563 1 1 1 1 0 1 0.5 0.5 #
ptlist-eye-attrib $-1 $-1 $-1 $607 #
ellipse-curve $-1 20.111024713191799 64.299466797236207 8.8333165955216302 0.49286821275520132 -0.1682964628920231 0.85367278592768059 -1.65861195184638 2.0910627328230098 1.36984051648034 1 I I #
End-of-ACIS-data 