201 0 1 0           
7 Unknown 11 ACIS 2.1 NT 24 Sat Nov 15 10:00:52 1997 
-1 9.9999999999999995e-007 1e-010 
body $-1 $1 $-1 $-1 #
lump $-1 $-1 $2 $0 #
shell $-1 $-1 $-1 $3 $-1 $1 #
face $-1 $4 $5 $2 $-1 $6 forward single #
face $-1 $7 $8 $2 $-1 $9 forward single #
loop $-1 $10 $11 $3 #
torus-surface $-1 -52 52 25 0 0 1 6 -1 1 0 0 forward_v I I I I #
face $-1 $12 $13 $2 $-1 $14 reversed single #
loop $-1 $15 $16 $4 #
cone-surface $-1 -52 52 16 0 0 1 5 0 0 1 I I 0 1 forward I I I I #
loop $-1 $-1 $17 $3 #
coedge $-1 $11 $11 $18 $19 0 $5 $-1 #
face $-1 $20 $21 $2 $-1 $22 reversed single #
loop $-1 $23 $24 $7 #
plane-surface $-1 -7.8740158926393633e-007 51.999998425196857 26 0 0 1 1 0 0 forward_v I I I I #
loop $-1 $-1 $18 $4 #
coedge $-1 $16 $16 $25 $26 0 $8 $-1 #
coedge $-1 $17 $17 $27 $28 0 $10 $-1 #
coedge $-1 $18 $18 $11 $19 1 $15 $-1 #
edge $-1 $29 $29 $18 $30 forward #
face $-1 $31 $32 $2 $-1 $33 reversed single #
loop $-1 $-1 $25 $12 #
plane-surface $-1 -52 51.999999999999986 16 0 0 1 1 0 0 forward_v I I I I #
loop $-1 $-1 $27 $7 #
coedge $-1 $34 $35 $36 $37 0 $13 $-1 #
coedge $-1 $25 $25 $16 $26 1 $21 $-1 #
edge $-1 $38 $38 $16 $39 forward #
coedge $-1 $27 $27 $17 $28 1 $23 $-1 #
edge $-1 $40 $40 $27 $41 forward #
vertex $-1 $19 $42 #
ellipse-curve $-1 -52 52 25 0 0 1 5 0 0 1 I I #
face $-1 $43 $44 $2 $-1 $45 reversed single #
loop $-1 $46 $47 $20 #
cone-surface $-1 52 150.08534645669292 33.5 0 0 -1 -5 0 0 1 I I 0 1 forward I I I I #
coedge $-1 $48 $24 $49 $50 0 $13 $-1 #
coedge $-1 $24 $51 $52 $53 1 $13 $-1 #
coedge $-1 $54 $55 $24 $37 1 $56 $-1 #
edge $-1 $57 $58 $24 $59 forward #
vertex $-1 $26 $60 #
ellipse-curve $-1 -52 52 16 0 0 1 5 0 0 1 I I #
vertex $-1 $28 $61 #
ellipse-curve $-1 -52 52 26 0 0 -1 6 0 0 1 I I #
point $-1 -57 52.000000000000036 25 #
face $-1 $62 $63 $2 $-1 $64 reversed single #
loop $-1 $65 $66 $31 #
cone-surface $-1 52 50.085346456692925 33.5 0 0 -1 -5 0 0 1 I I 0 1 forward I I I I #
loop $-1 $-1 $67 $20 #
coedge $-1 $47 $47 $68 $69 1 $32 $-1 #
coedge $-1 $70 $34 $71 $72 1 $13 $-1 #
coedge $-1 $73 $74 $34 $50 1 $75 $-1 #
edge $-1 $58 $76 $34 $77 forward #
coedge $-1 $35 $70 $78 $79 1 $13 $-1 #
coedge $-1 $80 $81 $35 $53 0 $82 $-1 #
edge $-1 $57 $83 $52 $84 forward #
coedge $-1 $85 $36 $81 $86 1 $56 $-1 #
coedge $-1 $36 $87 $73 $88 1 $56 $-1 #
loop $-1 $-1 $36 $89 #
vertex $-1 $53 $90 #
vertex $-1 $37 $91 #
ellipse-curve $-1 12.999999212598382 73.170698425196889 26 0 0 1 -7.0710678118654746 -7.0710678118654746 0 1 I I #
point $-1 -47 52 16 #
point $-1 -58 52.000000000000043 26 #
face $-1 $92 $93 $2 $-1 $94 reversed single #
loop $-1 $-1 $95 $43 #
cone-surface $-1 0.99999921259841074 108.31439842519686 13.293000000000006 0 0 1 -4.9497474683058327 4.9497474683058327 0 1 I I 0 1 forward I I I I #
loop $-1 $-1 $96 $31 #
coedge $-1 $66 $66 $97 $98 1 $44 $-1 #
coedge $-1 $67 $67 $99 $100 1 $46 $-1 #
coedge $-1 $68 $68 $47 $69 0 $101 $-1 #
edge $-1 $102 $102 $68 $103 forward #
coedge $-1 $51 $48 $104 $105 1 $13 $-1 #
coedge $-1 $106 $107 $48 $72 0 $108 $-1 #
edge $-1 $109 $76 $71 $110 forward #
coedge $-1 $111 $49 $55 $88 0 $75 $-1 #
coedge $-1 $49 $111 $106 $112 1 $75 $-1 #
loop $-1 $-1 $73 $113 #
vertex $-1 $72 $114 #
straight-curve $-1 11.999999212598411 75.99999842519685 26 0 -1 0 I I #
coedge $-1 $115 $116 $51 $79 0 $117 $-1 #
edge $-1 $83 $118 $78 $119 forward #
coedge $-1 $120 $52 $116 $121 1 $82 $-1 #
coedge $-1 $52 $122 $54 $86 0 $82 $-1 #
loop $-1 $-1 $123 $124 #
vertex $-1 $53 $125 #
straight-curve $-1 2.9999992125984107 69.99999842519685 26 0 -1 0 I I #
coedge $-1 $126 $54 $127 $128 1 $56 $-1 #
edge $-1 $129 $57 $81 $130 forward #
coedge $-1 $55 $126 $131 $132 1 $56 $-1 #
edge $-1 $58 $133 $73 $134 forward #
face $-1 $135 $56 $2 $-1 $136 reversed single #
point $-1 2.9999992125983823 73.170698425196889 26 #
point $-1 11.999999212598411 63.220824054130688 26 #
face $-1 $137 $138 $2 $-1 $139 forward single #
loop $-1 $-1 $140 $62 #
cone-surface $-1 0.99999921259841074 92.314398425196856 13.293000000000006 0 0 1 -4.9497474683058327 -4.9497474683058327 0 1 I I 0 1 forward I I I I #
coedge $-1 $141 $142 $143 $144 1 $63 $-1 #
coedge $-1 $96 $96 $145 $146 1 $65 $-1 #
coedge $-1 $97 $97 $66 $98 0 $147 $-1 #
edge $-1 $148 $148 $97 $149 forward #
coedge $-1 $99 $99 $67 $100 0 $150 $-1 #
edge $-1 $151 $151 $99 $152 forward #
loop $-1 $153 $68 $154 #
vertex $-1 $69 $155 #
ellipse-curve $-1 52 150.08534645669292 29 0 0 1 -5 0 0 1 I I #
coedge $-1 $156 $157 $70 $105 0 $158 $-1 #
edge $-1 $118 $109 $104 $159 forward #
coedge $-1 $160 $71 $74 $112 0 $108 $-1 #
coedge $-1 $71 $161 $156 $162 1 $108 $-1 #
loop $-1 $-1 $106 $163 #
vertex $-1 $72 $164 #
straight-curve $-1 -7.8740158926393633e-007 36.999998425196857 26 1 0 0 I I #
coedge $-1 $74 $73 $165 $166 0 $75 $-1 #
edge $-1 $76 $167 $106 $168 forward #
face $-1 $169 $75 $2 $-1 $170 forward single #
point $-1 11.999999212598411 36.999998425196857 26 #
coedge $-1 $171 $78 $157 $172 1 $117 $-1 #
coedge $-1 $78 $171 $80 $121 0 $117 $-1 #
loop $-1 $-1 $116 $173 #
vertex $-1 $105 $174 #
straight-curve $-1 -7.8740158926393633e-007 66.99999842519685 26 -1 0 0 I I #
coedge $-1 $123 $80 $175 $176 1 $82 $-1 #
edge $-1 $177 $83 $116 $178 forward #
coedge $-1 $81 $179 $180 $181 1 $82 $-1 #
coedge $-1 $182 $120 $183 $184 0 $82 $-1 #
face $-1 $185 $82 $2 $-1 $186 forward single #
point $-1 2.9999992125984107 66.99999842519685 26 #
coedge $-1 $87 $85 $187 $188 1 $56 $-1 #
coedge $-1 $180 $189 $85 $128 0 $190 $-1 #
edge $-1 $191 $129 $127 $192 forward #
vertex $-1 $128 $193 #
straight-curve $-1 2.9999992125983823 73.170698425196889 29.190000000000008 0 0 -1 I I #
coedge $-1 $194 $165 $87 $132 0 $195 $-1 #
edge $-1 $133 $196 $131 $197 forward #
vertex $-1 $132 $198 #
straight-curve $-1 11.999999212598411 63.220824054130688 29.190000000000008 0 0 1 I I #
face $-1 $199 $200 $2 $-1 $201 reversed single #
cone-surface $-1 12.999999212598382 73.170698425196889 29.190000000000008 0 0 -1 -7.0710678118654746 -7.0710678118654746 0 1 I I 0 1 forward I I I I #
face $-1 $202 $203 $2 $-1 $204 forward single #
loop $-1 $-1 $205 $92 #
plane-surface $-1 -1.5000007874015893 115.31439842519686 13.293000000000006 0 -1 0 0 0 1 forward_v I I I I #
coedge $-1 $206 $207 $208 $209 1 $93 $-1 #
coedge $-1 $210 $95 $211 $212 1 $63 $-1 #
coedge $-1 $95 $210 $213 $214 1 $63 $-1 #
coedge $-1 $215 $216 $95 $144 0 $217 $-1 #
edge $-1 $218 $219 $143 $220 forward #
coedge $-1 $145 $145 $96 $146 0 $221 $-1 #
edge $-1 $222 $222 $145 $223 forward #
loop $-1 $195 $97 $169 #
vertex $-1 $98 $224 #
ellipse-curve $-1 52 50.085346456692925 29 0 0 1 -5 0 0 1 I I #
loop $-1 $221 $99 $225 #
vertex $-1 $100 $226 #
ellipse-curve $-1 52 150.08534645669292 38 0 0 -1 -5 0 0 1 I I #
loop $-1 $-1 $227 $154 #
face $-1 $113 $101 $2 $-1 $228 forward single #
point $-1 57 150.08534645669289 29 #
coedge $-1 $229 $104 $107 $162 0 $158 $-1 #
coedge $-1 $104 $230 $115 $172 0 $158 $-1 #
loop $-1 $-1 $231 $232 #
straight-curve $-1 -67.000000787401589 75.99999842519685 26 0 -1 0 I I #
coedge $-1 $233 $106 $234 $235 0 $108 $-1 #
coedge $-1 $107 $233 $236 $237 1 $108 $-1 #
edge $-1 $109 $238 $156 $239 forward #
face $-1 $240 $108 $2 $-1 $241 reversed single #
point $-1 -67.000000787401589 36.999998425196857 26 #
coedge $-1 $131 $234 $111 $166 1 $195 $-1 #
edge $-1 $133 $167 $111 $242 forward #
vertex $-1 $235 $243 #
straight-curve $-1 11.999999212598411 36.999998425196857 23.25 0 0 1 I I #
face $-1 $244 $147 $2 $-1 $228 forward single #
plane-surface $-1 11.999999212598411 99.99999842519685 27.5 1 0 0 0 0 -1 forward_v I I I I #
coedge $-1 $116 $115 $245 $246 1 $117 $-1 #
edge $-1 $247 $118 $157 $248 forward #
face $-1 $249 $117 $2 $-1 $250 forward single #
point $-1 -67.000000787401589 66.99999842519685 26 #
coedge $-1 $245 $251 $120 $176 0 $252 $-1 #
edge $-1 $253 $177 $175 $254 forward #
vertex $-1 $121 $255 #
straight-curve $-1 2.9999992125984107 66.99999842519685 13 0 0 1 I I #
coedge $-1 $122 $182 $256 $257 1 $82 $-1 #
coedge $-1 $258 $127 $122 $181 0 $190 $-1 #
edge $-1 $129 $259 $180 $260 forward #
coedge $-1 $179 $123 $261 $262 1 $82 $-1 #
coedge $-1 $263 $264 $123 $184 1 $203 $-1 #
edge $-1 $253 $265 $123 $266 forward #
face $-1 $267 $268 $2 $-1 $186 forward single #
plane-surface $-1 2.9999992125984107 69.99999842519685 13 1 0 0 0 0 1 forward_v I I I I #
coedge $-1 $269 $270 $126 $188 0 $271 $-1 #
edge $-1 $196 $191 $187 $272 forward #
coedge $-1 $127 $273 $269 $274 0 $190 $-1 #
loop $-1 $-1 $275 $225 #
vertex $-1 $128 $276 #
ellipse-curve $-1 12.999999212598382 73.170698425196889 38 0 0 -1 -7.0710678118654746 -7.0710678118654746 0 1 I I #
point $-1 2.9999992125983823 73.170698425196889 38 #
coedge $-1 $277 $131 $270 $278 0 $195 $-1 #
loop $-1 $-1 $131 $169 #
vertex $-1 $132 $279 #
ellipse-curve $-1 12.999999212598382 73.170698425196889 29 0 0 1 -7.0710678118654746 -7.0710678118654746 0 1 I I #
point $-1 11.999999212598411 63.220824054130688 29 #
face $-1 $154 $280 $2 $-1 $281 reversed single #
loop $-1 $-1 $282 $135 #
cone-surface $-1 12.999999212598382 127.17069842519689 29.190000000000008 0 0 -1 -7.0710678118654746 7.0710678118654746 0 1 I I 0 1 forward I I I I #
face $-1 $283 $284 $2 $-1 $285 forward single #
loop $-1 $-1 $263 $137 #
plane-surface $-1 -1.5000007874015893 85.314398425196856 13.293000000000006 0 1 0 0 0 -1 forward_v I I I I #
coedge $-1 $213 $286 $215 $287 1 $138 $-1 #
coedge $-1 $288 $140 $289 $290 1 $93 $-1 #
coedge $-1 $140 $288 $291 $292 1 $93 $-1 #
coedge $-1 $251 $293 $140 $209 0 $252 $-1 #
edge $-1 $294 $295 $208 $296 forward #
coedge $-1 $142 $141 $297 $298 1 $63 $-1 #
coedge $-1 $299 $300 $141 $212 0 $284 $-1 #
edge $-1 $301 $218 $211 $302 forward #
coedge $-1 $303 $205 $142 $214 0 $138 $-1 #
edge $-1 $219 $304 $213 $305 forward #
coedge $-1 $306 $143 $205 $287 0 $217 $-1 #
coedge $-1 $143 $307 $299 $308 0 $217 $-1 #
loop $-1 $-1 $215 $309 #
vertex $-1 $144 $310 #
vertex $-1 $144 $311 #
ellipse-curve $-1 0.99999921259841074 108.31439842519686 6.3799240531211421 0 -1.275601318460485e-006 -0.99999999999918643 -0.0001343293402626955 6.9999999987111163 -8.9292092275865573e-006 0.99999999999918643 I I #
loop $-1 $190 $145 $225 #
vertex $-1 $146 $312 #
ellipse-curve $-1 52 50.085346456692925 38 0 0 -1 -5 0 0 1 I I #
point $-1 57 50.085346456692889 29 #
face $-1 $313 $150 $2 $-1 $314 reversed single #
point $-1 57 150.08534645669295 38 #
coedge $-1 $315 $316 $317 $318 0 $153 $-1 #
plane-surface $-1 39.499999212598411 99.99999842519685 29 0 0 -1 -1 0 0 forward_v I I I I #
coedge $-1 $319 $156 $320 $321 1 $158 $-1 #
coedge $-1 $157 $322 $323 $324 1 $158 $-1 #
coedge $-1 $322 $319 $325 $326 0 $158 $-1 #
face $-1 $225 $158 $2 $-1 $327 reversed single #
coedge $-1 $161 $160 $328 $329 0 $108 $-1 #
coedge $-1 $165 $277 $160 $235 1 $195 $-1 #
edge $-1 $167 $330 $160 $331 forward #
coedge $-1 $273 $320 $161 $237 0 $190 $-1 #
edge $-1 $238 $332 $161 $333 forward #
vertex $-1 $162 $334 #
straight-curve $-1 -67.000000787401589 36.999998425196857 19 0 0 1 I I #
face $-1 $335 $336 $2 $-1 $337 reversed single #
plane-surface $-1 -7.8740158926393633e-007 36.999998425196857 19 0 1 0 0 0 -1 forward_v I I I I #
straight-curve $-1 11.999999212598411 99.99999842519685 29 0 -1 0 I I #
point $-1 11.999999212598411 36.999998425196857 29 #
face $-1 $338 $339 $2 $-1 $281 reversed single #
coedge $-1 $323 $175 $171 $246 0 $252 $-1 #
edge $-1 $177 $247 $245 $340 forward #
vertex $-1 $246 $341 #
straight-curve $-1 -67.000000787401589 66.99999842519685 16 0 0 1 I I #
face $-1 $309 $342 $2 $-1 $343 forward single #
plane-surface $-1 -7.8740158926393633e-007 66.99999842519685 13 0 -1 0 0 0 -1 forward_v I I I I #
coedge $-1 $175 $208 $263 $344 0 $252 $-1 #
loop $-1 $-1 $345 $283 #
vertex $-1 $184 $346 #
straight-curve $-1 2.9999992125984107 84.99999842519685 0 0 -1 0 I I #
point $-1 2.9999992125984107 66.99999842519685 0 #
coedge $-1 $347 $348 $179 $257 0 $342 $-1 #
edge $-1 $259 $349 $256 $350 forward #
coedge $-1 $351 $180 $348 $352 0 $190 $-1 #
vertex $-1 $181 $353 #
straight-curve $-1 2.9999992125983823 100.08534842519688 38 0 1 0 I I #
coedge $-1 $354 $355 $182 $262 0 $217 $-1 #
edge $-1 $349 $265 $261 $356 forward #
coedge $-1 $291 $183 $251 $344 1 $203 $-1 #
coedge $-1 $183 $291 $354 $357 1 $203 $-1 #
vertex $-1 $262 $358 #
straight-curve $-1 2.9999992125984107 85.314398425196856 13.146500000000003 0 0 1 I I #
face $-1 $359 $360 $2 $-1 $361 forward single #
loop $-1 $-1 $362 $185 #
coedge $-1 $363 $187 $189 $274 1 $271 $-1 #
coedge $-1 $187 $363 $194 $278 1 $271 $-1 #
loop $-1 $-1 $270 $359 #
straight-curve $-1 12.999999212598382 63.170698425196889 29.190000000000008 0 0 1 I I #
coedge $-1 $189 $236 $364 $365 0 $190 $-1 #
edge $-1 $366 $191 $189 $367 forward #
coedge $-1 $368 $369 $370 $371 0 $190 $-1 #
point $-1 12.999999212598382 63.170698425196889 38 #
coedge $-1 $234 $194 $372 $373 1 $195 $-1 #
edge $-1 $196 $374 $194 $375 forward #
point $-1 12.999999212598382 63.170698425196889 29 #
loop $-1 $-1 $376 $199 #
plane-surface $-1 66.999999212598411 99.99999842519685 19 -1 0 0 0 0 1 forward_v I I I I #
coedge $-1 $377 $378 $369 $379 1 $200 $-1 #
face $-1 $124 $252 $2 $-1 $380 forward single #
loop $-1 $-1 $299 $202 #
plane-surface $-1 -6.0000007874015893 100.31439842519686 13.293000000000006 1 0 0 0 0 -1 forward_v I I I I #
coedge $-1 $205 $303 $362 $381 1 $138 $-1 #
edge $-1 $219 $382 $215 $383 forward #
coedge $-1 $207 $206 $307 $384 1 $93 $-1 #
coedge $-1 $300 $299 $206 $290 0 $284 $-1 #
edge $-1 $385 $294 $289 $386 forward #
coedge $-1 $264 $263 $207 $292 0 $203 $-1 #
edge $-1 $295 $387 $291 $388 forward #
coedge $-1 $208 $297 $300 $389 0 $252 $-1 #
vertex $-1 $209 $390 #
vertex $-1 $209 $391 #
ellipse-curve $-1 0.99999921259841074 92.314398425196856 0 0 0 1 -4.9497474683058327 -4.9497474683058327 0 1 I I #
coedge $-1 $293 $345 $210 $298 0 $252 $-1 #
edge $-1 $304 $301 $297 $392 forward #
coedge $-1 $289 $211 $216 $308 1 $284 $-1 #
coedge $-1 $211 $289 $293 $389 1 $284 $-1 #
vertex $-1 $298 $393 #
straight-curve $-1 -6.0000007874015893 108.31439842519686 13.293000000000006 0 0 1 I I #
coedge $-1 $286 $213 $345 $394 1 $138 $-1 #
vertex $-1 $298 $395 #
straight-curve $-1 0.99999921259841074 115.31439842519686 13.293000000000006 0 0 -1 I I #
coedge $-1 $396 $215 $397 $398 0 $217 $-1 #
coedge $-1 $216 $354 $288 $384 0 $217 $-1 #
edge $-1 $385 $218 $216 $399 forward #
face $-1 $400 $217 $2 $-1 $401 forward single #
point $-1 -6.0000007874015893 108.31439842519686 6.3799240531211421 #
point $-1 0.99999921259841074 115.31439842519686 6.3799151239119105 #
point $-1 57 50.08534645669296 38 #
face $-1 $-1 $402 $2 $-1 $403 reversed single #
plane-surface $-1 -7.8740158926393633e-007 99.99999842519685 38 0 0 -1 -1 0 0 forward_v I I I I #
coedge $-1 $404 $227 $405 $406 0 $153 $-1 #
coedge $-1 $227 $407 $408 $409 1 $153 $-1 #
coedge $-1 $410 $411 $227 $318 1 $360 $-1 #
edge $-1 $412 $413 $227 $414 forward #
coedge $-1 $231 $229 $415 $416 1 $158 $-1 #
coedge $-1 $236 $417 $229 $321 0 $190 $-1 #
edge $-1 $418 $238 $229 $419 forward #
coedge $-1 $230 $231 $420 $421 0 $158 $-1 #
coedge $-1 $422 $245 $230 $324 0 $252 $-1 #
edge $-1 $247 $423 $230 $424 forward #
coedge $-1 $425 $426 $231 $326 1 $336 $-1 #
edge $-1 $427 $428 $231 $429 forward #
plane-surface $-1 -67.000000787401589 99.99999842519685 19 1 0 0 0 0 -1 forward_v I I I I #
coedge $-1 $372 $364 $233 $329 1 $339 $-1 #
edge $-1 $330 $332 $328 $430 forward #
vertex $-1 $373 $431 #
straight-curve $-1 19.749999212598411 36.999998425196857 29 1 0 0 I I #
vertex $-1 $365 $432 #
straight-curve $-1 -7.8740158926393633e-007 36.999998425196857 38 1 0 0 I I #
point $-1 -67.000000787401589 36.999998425196857 38 #
face $-1 $173 $433 $2 $-1 $434 forward single #
loop $-1 $-1 $435 $240 #
plane-surface $-1 -7.8740158926393633e-007 147.99999842519685 26 0 0 1 1 0 0 forward_v I I I I #
face $-1 $163 $436 $2 $-1 $170 forward single #
loop $-1 $-1 $437 $244 #
straight-curve $-1 -7.8740158926393633e-007 66.99999842519685 0 -1 0 0 I I #
point $-1 -67.000000787401589 66.99999842519685 0 #
loop $-1 $-1 $256 $249 #
plane-surface $-1 4.3021992125984028 73.170718834861901 22.379968882458179 0 0.99999999999918643 -1.275601318460485e-006 0 -1.275601318460485e-006 -0.99999999999918643 forward_v I I I I #
edge $-1 $295 $253 $251 $438 forward #
coedge $-1 $297 $439 $303 $394 0 $252 $-1 #
point $-1 2.9999992125984107 85.314398425196856 0 #
coedge $-1 $440 $256 $355 $441 0 $342 $-1 #
coedge $-1 $256 $440 $258 $352 1 $342 $-1 #
vertex $-1 $262 $442 #
straight-curve $-1 2.9999992125983823 73.170723178326199 25.785001661828336 0 -1.275601318460485e-006 -0.99999999999918643 I I #
coedge $-1 $443 $258 $444 $445 0 $190 $-1 #
edge $-1 $259 $446 $258 $447 forward #
point $-1 2.9999992125983823 73.170738759794204 38 #
coedge $-1 $307 $261 $264 $357 0 $217 $-1 #
coedge $-1 $261 $448 $347 $441 1 $217 $-1 #
straight-curve $-1 2.9999992125984107 85.085344202950211 6.3799536841333317 0 0.99999999999918643 -1.275601318460485e-006 I I #
edge $-1 $265 $387 $354 $449 forward #
point $-1 2.9999992125984107 85.314398425196856 6.3799533919514655 #
face $-1 $89 $271 $2 $-1 $450 forward single #
loop $-1 $-1 $370 $267 #
plane-surface $-1 34.999999212598382 137.17069842519689 29.190000000000008 0 -1 0 0 0 -1 forward_v I I I I #
coedge $-1 $451 $397 $286 $381 0 $268 $-1 #
coedge $-1 $270 $269 $437 $452 1 $271 $-1 #
coedge $-1 $328 $437 $273 $365 1 $339 $-1 #
edge $-1 $332 $366 $364 $453 forward #
vertex $-1 $365 $454 #
straight-curve $-1 17.499999212598397 63.170698425196889 38 -1 0 0 I I #
coedge $-1 $417 $275 $455 $456 0 $190 $-1 #
coedge $-1 $275 $457 $282 $379 0 $190 $-1 #
coedge $-1 $411 $410 $275 $371 1 $360 $-1 #
edge $-1 $458 $459 $275 $460 forward #
coedge $-1 $437 $328 $277 $373 0 $339 $-1 #
edge $-1 $330 $374 $372 $461 forward #
vertex $-1 $373 $462 #
straight-curve $-1 37.249999212598397 63.170698425196889 29 1 0 0 I I #
coedge $-1 $408 $455 $410 $463 0 $280 $-1 #
coedge $-1 $464 $282 $465 $466 1 $200 $-1 #
coedge $-1 $282 $405 $411 $467 1 $200 $-1 #
edge $-1 $468 $458 $369 $469 forward #
plane-surface $-1 -7.8740158926393633e-007 99.99999842519685 0 0 0 -1 -1 0 0 forward_v I I I I #
edge $-1 $382 $470 $362 $471 forward #
vertex $-1 $381 $472 #
straight-curve $-1 1.4010992125984103 115.31439842519686 6.3799151239119105 1 0 0 I I #
edge $-1 $387 $385 $307 $473 forward #
vertex $-1 $384 $474 #
straight-curve $-1 -6.0000007874015893 92.314398425196856 13.293000000000006 0 0 -1 I I #
vertex $-1 $384 $475 #
straight-curve $-1 0.99999921259841074 85.314398425196856 13.293000000000006 0 0 1 I I #
edge $-1 $301 $294 $293 $476 forward #
point $-1 -6.0000007874015893 92.314398425196856 0 #
point $-1 0.99999921259841074 85.314398425196856 0 #
ellipse-curve $-1 0.99999921259841074 108.31439842519686 0 0 0 1 -4.9497474683058327 4.9497474683058327 0 1 I I #
point $-1 -6.0000007874015893 108.31439842519686 0 #
edge $-1 $470 $304 $345 $477 forward #
point $-1 0.99999921259841074 115.31439842519686 0 #
coedge $-1 $478 $306 $479 $480 1 $217 $-1 #
coedge $-1 $362 $481 $306 $398 1 $268 $-1 #
edge $-1 $382 $482 $306 $356 forward #
straight-curve $-1 -6.0000007874015893 100.24254401604996 6.3799343495892664 0 0.99999999999918643 -1.275601318460485e-006 I I #
face $-1 $483 $484 $2 $-1 $485 reversed single #
plane-surface $-1 4.3021992125984028 100.17069842521884 6.3799344412355996 0 1.275601318460485e-006 0.99999999999918643 -1 0 0 forward_v I I I I #
loop $-1 $-1 $486 $313 #
plane-surface $-1 -7.8740158926393633e-007 162.99999842519685 19 0 -1 0 0 0 1 forward_v I I I I #
coedge $-1 $407 $315 $487 $488 1 $153 $-1 #
coedge $-1 $378 $489 $315 $406 1 $200 $-1 #
edge $-1 $413 $490 $315 $491 forward #
coedge $-1 $316 $404 $492 $493 1 $153 $-1 #
coedge $-1 $494 $376 $316 $409 0 $280 $-1 #
edge $-1 $412 $495 $408 $496 forward #
coedge $-1 $370 $317 $376 $463 1 $360 $-1 #
coedge $-1 $317 $370 $378 $467 0 $360 $-1 #
vertex $-1 $318 $497 #
vertex $-1 $406 $498 #
straight-curve $-1 37.249999212598397 137.17069842519689 29 -1 0 0 I I #
coedge $-1 $499 $500 $319 $416 0 $402 $-1 #
edge $-1 $427 $418 $319 $501 forward #
coedge $-1 $320 $368 $499 $502 0 $190 $-1 #
vertex $-1 $321 $503 #
straight-curve $-1 -67.000000787401589 99.99999842519685 38 0 -1 0 I I #
coedge $-1 $504 $505 $322 $421 1 $506 $-1 #
edge $-1 $428 $423 $322 $507 forward #
coedge $-1 $439 $323 $505 $508 0 $252 $-1 #
vertex $-1 $324 $509 #
straight-curve $-1 -67.000000787401589 99.99999842519685 0 0 1 0 I I #
coedge $-1 $510 $325 $500 $511 1 $336 $-1 #
coedge $-1 $325 $512 $504 $513 1 $336 $-1 #
vertex $-1 $511 $514 #
vertex $-1 $326 $515 #
straight-curve $-1 -67.000000787401589 123.99999842519685 26 0 -1 0 I I #
straight-curve $-1 66.999999212598411 36.999998425196857 19 0 0 1 I I #
point $-1 66.999999212598411 36.999998425196857 29 #
point $-1 66.999999212598411 36.999998425196857 38 #
loop $-1 $-1 $465 $335 #
plane-surface $-1 4.3021992125984028 127.17071883481796 22.379899999986982 0 -0.99999999999918643 1.275601318460485e-006 0 1.275601318460485e-006 0.99999999999918643 forward_v I I I I #
coedge $-1 $512 $510 $464 $516 0 $336 $-1 #
loop $-1 $-1 $517 $338 #
coedge $-1 $364 $372 $363 $452 0 $339 $-1 #
straight-curve $-1 -0.75000078740158926 85.314398425196856 0 1 0 0 I I #
coedge $-1 $345 $422 $451 $518 0 $252 $-1 #
coedge $-1 $348 $347 $519 $520 0 $342 $-1 #
edge $-1 $349 $521 $347 $522 forward #
point $-1 2.9999992125984107 73.170698425240801 6.3799688824711964 #
coedge $-1 $523 $351 $524 $525 0 $190 $-1 #
coedge $-1 $519 $526 $351 $445 1 $527 $-1 #
edge $-1 $446 $528 $351 $529 forward #
vertex $-1 $445 $530 #
straight-curve $-1 2.1510992125984103 73.170738759794204 38 -1 0 0 I I #
coedge $-1 $355 $531 $532 $533 0 $217 $-1 #
straight-curve $-1 1.4010992125984103 85.314398425196856 6.3799533919514655 -1 0 0 I I #
plane-surface $-1 34.999999212598382 63.170698425196889 29.190000000000008 0 1 0 0 0 1 forward_v I I I I #
coedge $-1 $534 $362 $439 $518 1 $268 $-1 #
edge $-1 $374 $366 $437 $535 forward #
straight-curve $-1 66.999999212598411 99.99999842519685 38 0 1 0 I I #
point $-1 66.999999212598411 63.170698425196889 38 #
coedge $-1 $376 $494 $368 $456 1 $280 $-1 #
edge $-1 $459 $536 $455 $453 forward #
coedge $-1 $369 $523 $537 $538 0 $190 $-1 #
vertex $-1 $379 $539 #
vertex $-1 $463 $540 #
straight-curve $-1 17.499999212598397 137.17069842519689 38 1 0 0 I I #
straight-curve $-1 66.999999212598411 99.99999842519685 29 0 1 0 I I #
point $-1 66.999999212598382 63.170698425196889 29 #
edge $-1 $459 $412 $376 $541 forward #
coedge $-1 $489 $377 $435 $516 1 $200 $-1 #
coedge $-1 $537 $542 $377 $466 0 $433 $-1 #
edge $-1 $543 $468 $465 $544 forward #
edge $-1 $458 $413 $411 $545 forward #
vertex $-1 $538 $546 #
ellipse-curve $-1 12.999999212598382 127.17069842519689 38 0 0 -1 -7.0710678118654746 7.0710678118654746 0 1 I I #
vertex $-1 $518 $547 #
straight-curve $-1 2.9999992125984107 115.31439842519686 13.146500000000003 0 0 -1 I I #
point $-1 2.9999992125984107 115.31439842519686 6.3799151239119105 #
ellipse-curve $-1 0.99999921259841074 92.314398425196856 6.3799444627422339 0 -1.275601318460485e-006 -0.99999999999918643 -0.0001343293402626955 -6.9999999987111163 8.9292092275865573e-006 0.99999999999918643 I I #
point $-1 -6.0000007874015893 92.314398425196856 6.3799444627422339 #
point $-1 0.99999921259841074 85.314398425196856 6.3799533919514655 #
straight-curve $-1 -6.0000007874015893 100.15719842519687 0 0 -1 0 I I #
straight-curve $-1 -0.75000078740158926 115.31439842519686 0 -1 0 0 I I #
coedge $-1 $531 $396 $548 $549 0 $217 $-1 #
coedge $-1 $542 $550 $396 $480 0 $433 $-1 #
edge $-1 $551 $482 $479 $552 forward #
coedge $-1 $397 $553 $542 $554 1 $268 $-1 #
vertex $-1 $480 $555 #
face $-1 $556 $527 $2 $-1 $557 reversed single #
loop $-1 $-1 $558 $400 #
cone-surface $-1 -49.69780078740159 117.17071883482612 22.379912756000166 0 -1.275601318460485e-006 -0.99999999999918643 -7.0710678118654746 7.071067811859721 -9.0198634237390962e-006 1 I I 0 1 forward I I I I #
coedge $-1 $500 $492 $559 $560 0 $402 $-1 #
coedge $-1 $517 $559 $404 $488 0 $436 $-1 #
edge $-1 $561 $490 $487 $242 forward #
coedge $-1 $405 $464 $517 $562 1 $200 $-1 #
vertex $-1 $488 $563 #
ellipse-curve $-1 12.999999212598382 127.17069842519689 29 0 0 1 -7.0710678118654746 7.0710678118654746 0 1 I I #
coedge $-1 $486 $564 $407 $493 0 $402 $-1 #
edge $-1 $495 $561 $492 $565 forward #
coedge $-1 $455 $408 $564 $566 0 $280 $-1 #
vertex $-1 $409 $567 #
straight-curve $-1 66.999999212598411 99.99999842519685 29 0 1 0 I I #
point $-1 66.999999212598382 137.17069842519689 29 #
point $-1 12.999999212598382 137.17069842519689 29 #
coedge $-1 $564 $415 $417 $502 1 $402 $-1 #
coedge $-1 $415 $486 $425 $511 0 $402 $-1 #
straight-curve $-1 -67.000000787401589 162.99999842519685 19 0 0 1 I I #
edge $-1 $536 $418 $499 $568 forward #
point $-1 -67.000000787401589 162.99999842519685 38 #
coedge $-1 $569 $420 $426 $513 0 $506 $-1 #
coedge $-1 $420 $569 $422 $508 1 $506 $-1 #
loop $-1 $-1 $569 $570 #
straight-curve $-1 -67.000000787401589 132.99999842519685 16 0 0 -1 I I #
edge $-1 $423 $571 $422 $572 forward #
point $-1 -67.000000787401589 132.99999842519685 0 #
coedge $-1 $435 $425 $573 $574 0 $336 $-1 #
edge $-1 $575 $427 $500 $576 forward #
coedge $-1 $426 $435 $553 $577 1 $336 $-1 #
edge $-1 $428 $578 $504 $579 forward #
point $-1 -67.000000787401589 162.99999842519685 26 #
point $-1 -67.000000787401589 132.99999842519685 26 #
edge $-1 $580 $543 $435 $581 forward #
coedge $-1 $573 $487 $489 $562 0 $436 $-1 #
edge $-1 $571 $470 $439 $254 forward #
coedge $-1 $532 $444 $440 $520 1 $527 $-1 #
edge $-1 $521 $446 $440 $582 forward #
vertex $-1 $441 $583 #
straight-curve $-1 4.3021992125984028 73.170698425240801 6.3799688824711964 -1 0 0 I I #
coedge $-1 $457 $443 $558 $584 0 $190 $-1 #
coedge $-1 $585 $586 $443 $525 1 $587 $-1 #
edge $-1 $528 $588 $443 $589 forward #
coedge $-1 $444 $532 $585 $590 1 $527 $-1 #
loop $-1 $-1 $444 $483 #
vertex $-1 $445 $591 #
ellipse-curve $-1 -49.69780078740159 83.170738759802333 38 0 0 -1 -0.00014584691314833975 -9.9999999989445705 0 0.99999999999918621 I I #
point $-1 -49.69780078740159 73.170738759794204 38 #
coedge $-1 $448 $478 $592 $593 1 $217 $-1 #
coedge $-1 $526 $519 $448 $533 1 $527 $-1 #
edge $-1 $594 $521 $448 $595 forward #
coedge $-1 $553 $451 $569 $596 1 $268 $-1 #
straight-curve $-1 66.999999212598411 63.170698425196889 24.095000000000006 0 0 1 I I #
vertex $-1 $502 $597 #
coedge $-1 $550 $465 $457 $538 1 $433 $-1 #
edge $-1 $598 $468 $457 $599 forward #
point $-1 12.999999212598382 137.17069842519689 38 #
point $-1 66.999999212598411 137.17069842519689 38 #
straight-curve $-1 66.999999212598411 137.17069842519689 24.095000000000006 0 0 -1 I I #
coedge $-1 $465 $479 $481 $554 0 $433 $-1 #
vertex $-1 $516 $600 #
straight-curve $-1 2.9999992126429689 127.17072484940576 27.095000000000002 3.3706798623805401e-012 1.2756013184334914e-006 0.99999999999918621 I I #
straight-curve $-1 12.999999212598382 137.17069842519689 29.190000000000008 0 0 -1 I I #
point $-1 2.9999992126797252 127.17073875983812 38 #
point $-1 2.9999992125984107 115.31439842519686 0 #
coedge $-1 $601 $602 $478 $549 1 $484 $-1 #
edge $-1 $551 $603 $478 $604 forward #
coedge $-1 $479 $537 $601 $605 0 $433 $-1 #
vertex $-1 $549 $606 #
straight-curve $-1 4.3021992125984028 127.17069842519689 6.3798999999999992 1 0 0 I I #
coedge $-1 $481 $534 $512 $577 0 $268 $-1 #
edge $-1 $482 $543 $542 $607 forward #
point $-1 2.9999992125984107 127.17069842519689 6.3798999999999992 #
face $-1 $570 $587 $2 $-1 $608 forward single #
cone-surface $-1 -49.69780078740159 83.170718834853773 22.379956126444995 0 -1.275601318460485e-006 -0.99999999999918643 -7.0710678118654746 -7.071067811859721 9.0198634237390962e-006 1 I I 0 1 forward I I I I #
coedge $-1 $602 $601 $523 $584 1 $484 $-1 #
coedge $-1 $487 $573 $486 $560 1 $436 $-1 #
edge $-1 $561 $575 $486 $609 forward #
vertex $-1 $493 $610 #
edge $-1 $490 $580 $517 $611 forward #
point $-1 11.999999212598411 137.12057279626308 29 #
coedge $-1 $492 $499 $494 $566 1 $402 $-1 #
straight-curve $-1 19.749999212598411 162.99999842519685 29 -1 0 0 I I #
edge $-1 $495 $536 $564 $612 forward #
point $-1 66.999999212598411 162.99999842519685 29 #
straight-curve $-1 -7.8740158926393633e-007 162.99999842519685 38 -1 0 0 I I #
coedge $-1 $505 $504 $534 $596 0 $506 $-1 #
face $-1 $232 $506 $2 $-1 $613 forward single #
vertex $-1 $508 $614 #
straight-curve $-1 -7.8740158926393633e-007 132.99999842519685 0 1 0 0 I I #
coedge $-1 $559 $517 $510 $574 1 $436 $-1 #
edge $-1 $575 $580 $510 $615 forward #
vertex $-1 $574 $616 #
straight-curve $-1 -7.8740158926393633e-007 162.99999842519685 26 -1 0 0 I I #
edge $-1 $578 $543 $553 $84 forward #
vertex $-1 $513 $617 #
straight-curve $-1 -7.8740158926393633e-007 132.99999842519685 26 1 0 0 I I #
vertex $-1 $574 $618 #
ellipse-curve $-1 12.999999212598382 127.17069842519689 26 0 0 1 -7.0710678118654746 7.0710678118654746 0 1 I I #
straight-curve $-1 -49.69780078740159 73.170718834861901 22.379968882458179 0 1.275601318460485e-006 0.99999999999918643 I I #
point $-1 -49.69780078740159 73.170698425240801 6.3799688824711964 #
edge $-1 $588 $598 $523 $619 forward #
coedge $-1 $592 $524 $526 $590 0 $587 $-1 #
coedge $-1 $524 $592 $602 $620 0 $587 $-1 #
loop $-1 $-1 $524 $556 #
vertex $-1 $584 $621 #
straight-curve $-1 -59.697800787401604 100.08535863001839 38 0 1 0 I I #
edge $-1 $528 $594 $585 $622 forward #
point $-1 -59.697800787401604 83.170738759802333 38 #
coedge $-1 $586 $585 $531 $593 0 $587 $-1 #
edge $-1 $594 $603 $592 $623 forward #
vertex $-1 $533 $624 #
ellipse-curve $-1 -49.69780078740159 83.170698425232672 6.3799561264580102 0 1.275601318460485e-006 0.99999999999918643 -7.0710678118654746 -7.071067811859721 9.0198634237390962e-006 1 I I #
edge $-1 $578 $571 $569 $625 forward #
point $-1 66.999999212598411 162.99999842519685 38 #
vertex $-1 $584 $626 #
straight-curve $-1 2.1510992125984103 127.17073875983812 38 1 0 0 I I #
point $-1 2.9999992125984107 127.1707234526223 26 #
coedge $-1 $558 $548 $550 $605 1 $484 $-1 #
coedge $-1 $548 $558 $586 $620 1 $484 $-1 #
vertex $-1 $593 $627 #
ellipse-curve $-1 -49.69780078740159 117.17069842520502 6.3799127560131836 0 1.275601318460485e-006 0.99999999999918643 -7.0710678118654746 7.071067811859721 -9.0198634237390962e-006 1 I I #
edge $-1 $598 $551 $550 $628 forward #
point $-1 -49.69780078740159 127.17069842519689 6.3798999999999992 #
straight-curve $-1 2.9999992125984107 127.17071285226504 17.689913536477956 0 1.275601318460485e-006 0.99999999999918643 I I #
plane-surface $-1 -59.697800787401604 100.17071883483993 22.379934441222581 1 0 0 0 1.275601318460485e-006 0.99999999999918643 forward_v I I I I #
straight-curve $-1 11.999999212598411 162.99999842519685 23.25 0 0 -1 I I #
point $-1 11.999999212598411 162.99999842519685 29 #
straight-curve $-1 11.999999212598411 137.12057279626308 29.190000000000008 0 0 -1 I I #
straight-curve $-1 66.999999212598411 162.99999842519685 19 0 0 1 I I #
plane-surface $-1 -7.8740158926393633e-007 132.99999842519685 13 0 1 0 0 0 1 forward_v I I I I #
point $-1 2.9999992125984107 132.99999842519685 0 #
straight-curve $-1 11.999999212598411 123.99999842519685 26 0 -1 0 I I #
point $-1 11.999999212598411 162.99999842519685 26 #
point $-1 2.9999992125984107 132.99999842519685 26 #
point $-1 11.999999212598411 137.12057279626308 26 #
ellipse-curve $-1 -49.69780078740159 117.17073875982999 38 0 0 -1 -0.00014584691314833975 9.9999999989445705 0 0.99999999999918621 I I #
edge $-1 $603 $588 $586 $629 forward #
point $-1 -59.697800787401604 117.17073875982999 38 #
straight-curve $-1 -59.697800787401604 83.170718834853773 22.379956126444995 0 -1.275601318460485e-006 -0.99999999999918643 I I #
straight-curve $-1 -59.697800787401604 100.17069842521884 6.3799344412355996 0 0.99999999999918643 -1.275601318460485e-006 I I #
point $-1 -59.697800787401604 83.170698425232672 6.3799561264580102 #
straight-curve $-1 2.9999992125984107 132.99999842519685 13 0 0 -1 I I #
point $-1 -49.69780078740159 127.17073875983812 38 #
point $-1 -59.697800787401604 117.17069842520502 6.3799127560131836 #
straight-curve $-1 -49.69780078740159 127.17071883481796 22.379899999986982 0 -1.275601318460485e-006 -0.99999999999918643 I I #
straight-curve $-1 -59.697800787401604 117.17071883482612 22.379912756000166 0 1.275601318460485e-006 0.99999999999918643 I I #
End-of-ACIS-data 
