600 0 1 0           
72 GICL ACIS Healer - Source: /gicl/data5/repository/new/bracket4.sat - 6 0 18 ACIS 6.0.3 Solaris 24 Sat Apr 13 20:18:38 2002 
1 9.999999999999999547e-07 1.000000000000000036e-10 
body $-1 $1 $-1 $-1 #
lump $-1 $2 $3 $0 #
lump $-1 $4 $5 $0 #
shell $-1 $-1 $-1 $6 $-1 $1 #
lump $-1 $7 $8 $0 #
shell $-1 $-1 $-1 $9 $-1 $2 #
face $-1 $10 $11 $3 $-1 $12 reversed single #
lump $-1 $-1 $13 $0 #
shell $-1 $-1 $-1 $14 $-1 $4 #
face $-1 $15 $16 $5 $-1 $17 reversed single #
face $-1 $18 $19 $3 $-1 $20 forward single #
loop $-1 $21 $22 $6 #
cone-surface $-1 -104.7077400316023841 14.00370000000000026 -0.9703621649517658598 0 1 0 -7.5 0 0 1 I I 0 1 7.5 forward I I I I #
shell $-1 $-1 $-1 $23 $-1 $7 #
face $-1 $-1 $-1 $8 $-1 $24 forward single #
face $-1 $25 $26 $5 $-1 $27 reversed single #
loop $-1 $-1 $28 $9 #
cone-surface $-1 1.234300000000003283 116.6325000000000216 -11.41399999999998549 0 0 1 -9.899494936611665352 9.899494936611665352 0 1 I I 0 1 14 forward I I I I #
face $-1 $29 $30 $3 $-1 $31 reversed single #
loop $-1 $-1 $32 $10 #
plane-surface $-1 -104.7657000000000096 14.00370000000000026 -16 0 0 -1 1 0 0 forward_v I I I I #
loop $-1 $-1 $33 $6 #
coedge $-1 $22 $22 $34 $35 reversed $11 $-1 #
face $-1 $-1 $-1 $13 $-1 $36 forward single #
sphere-surface $-1 0 0 -0.1000000000000000056 0.09999999988900179493 -1 0 0 0 1 0 forward_v I I I I #
face $-1 $37 $38 $5 $-1 $39 forward single #
loop $-1 $-1 $40 $15 #
cone-surface $-1 1.234300000000003283 84.63249999999999318 -11.41399999999998549 0 0 1 -9.899494936611665352 -9.899494936611665352 0 1 I I 0 1 14 forward I I I I #
coedge $-1 $41 $42 $43 $44 reversed $16 $-1 #
face $-1 $45 $46 $3 $-1 $47 reversed single #
loop $-1 $-1 $48 $18 #
plane-surface $-1 -104.7657000000000096 14.00370000000000026 14 0 0 -1 1 0 0 forward_v I I I I #
coedge $-1 $49 $50 $51 $52 forward $19 $-1 #
coedge $-1 $33 $33 $53 $54 reversed $21 $-1 #
coedge $-1 $34 $34 $22 $35 forward $46 $-1 #
edge $-1 $55 -3.141592653589799777 $55 3.141592653589786455 $34 $56 forward 7 unknown #
sphere-surface $-1 -0.002100000000000000304 1.028669337210796898e-18 -0.1000000000000000056 0.04405961865121502813 -1 0 0 0 1 0 forward_v I I I I #
face $-1 $57 $58 $5 $-1 $59 forward single #
loop $-1 $-1 $60 $25 #
plane-surface $-1 -3.765699999999996717 130.6325000000000216 -11.41399999999998549 0 -1 0 0 0 2 forward_v I I I I #
coedge $-1 $61 $62 $63 $64 reversed $26 $-1 #
coedge $-1 $65 $28 $66 $67 reversed $16 $-1 #
coedge $-1 $28 $65 $68 $69 reversed $16 $-1 #
coedge $-1 $70 $71 $28 $44 forward $72 $-1 #
edge $-1 $73 -1.570777136889143666 $74 1.918990575299143043e-05 $43 $75 forward 7 unknown #
face $-1 $76 $77 $3 $-1 $78 reversed single #
loop $-1 $79 $34 $29 #
plane-surface $-1 -104.7657000000000096 34.00370000000000203 -1 0 -1 0 0 0 -1 forward_v I I I I #
coedge $-1 $80 $81 $82 $83 forward $30 $-1 #
coedge $-1 $84 $32 $85 $86 forward $19 $-1 #
coedge $-1 $32 $84 $87 $88 forward $19 $-1 #
coedge $-1 $89 $90 $32 $52 reversed $91 $-1 #
edge $-1 $92 -20 $93 20 $51 $94 forward 7 unknown #
coedge $-1 $53 $53 $33 $54 forward $95 $-1 #
edge $-1 $96 -3.141592653589799777 $96 3.141592653589786455 $53 $97 forward 7 unknown #
vertex $-1 $35 $98 #
ellipse-curve $-1 -104.7077400316023841 34.00370000000000203 -0.9703621649517658598 0 -1 0 -7.5 0 0 1 I I #
face $-1 $99 $100 $5 $-1 $101 forward single #
loop $-1 $-1 $102 $37 #
plane-surface $-1 -3.765699999999996717 70.63249999999999318 -11.41399999999998549 0 1 0 0 0 -2 forward_v I I I I #
coedge $-1 $68 $103 $70 $104 reversed $38 $-1 #
coedge $-1 $105 $40 $106 $107 reversed $26 $-1 #
coedge $-1 $40 $105 $108 $109 reversed $26 $-1 #
coedge $-1 $110 $111 $40 $64 forward $112 $-1 #
edge $-1 $113 -0.785398163397448279 $114 0.785398163397448279 $63 $115 forward 7 unknown #
coedge $-1 $42 $41 $116 $117 reversed $16 $-1 #
coedge $-1 $118 $119 $41 $67 forward $100 $-1 #
edge $-1 $120 -13.29300000000000637 $73 -6.913075946878865174 $66 $121 forward 7 unknown #
coedge $-1 $122 $60 $42 $69 forward $38 $-1 #
edge $-1 $74 6.913084876088096742 $123 13.29300000000000637 $68 $124 forward 7 unknown #
coedge $-1 $125 $43 $60 $104 forward $72 $-1 #
coedge $-1 $43 $126 $118 $127 forward $72 $-1 #
loop $-1 $-1 $70 $128 #
vertex $-1 $44 $129 #
vertex $-1 $44 $130 #
ellipse-curve $-1 1.234300000000003283 116.6325000000000216 -25.24015189375771584 -0 -1.275601318460485045e-06 -0.9999999999991864286 -0.0002686586805253909915 13.99999999742223267 -1.785841845517311459e-05 0.9999999999991864286 I I #
face $-1 $131 $95 $3 $-1 $132 reversed single #
loop $-1 $-1 $133 $45 #
plane-surface $-1 -134.7657000000000096 14.00370000000000026 -1 1 0 0 0 0 1 forward_v I I I I #
loop $-1 $-1 $134 $29 #
coedge $-1 $135 $48 $136 $137 forward $30 $-1 #
coedge $-1 $48 $135 $138 $139 forward $30 $-1 #
coedge $-1 $90 $89 $48 $83 reversed $91 $-1 #
edge $-1 $140 -20 $141 20 $82 $142 forward 7 unknown #
coedge $-1 $50 $49 $143 $144 forward $19 $-1 #
coedge $-1 $145 $146 $49 $86 reversed $147 $-1 #
edge $-1 $93 -30 $148 30 $85 $149 forward 7 unknown #
coedge $-1 $134 $150 $50 $88 reversed $79 $-1 #
edge $-1 $151 -30 $92 30 $87 $152 forward 7 unknown #
coedge $-1 $82 $51 $150 $153 forward $91 $-1 #
coedge $-1 $51 $82 $145 $154 reversed $91 $-1 #
loop $-1 $-1 $89 $131 #
vertex $-1 $52 $155 #
vertex $-1 $52 $156 #
straight-curve $-1 -74.7657000000000096 14.00370000000000026 -16 0 -1 0 I I #
loop $-1 $147 $53 $76 #
vertex $-1 $54 $157 #
ellipse-curve $-1 -104.7077400316023841 -5.996299999999999741 -0.9703621649517658598 0 1 0 -7.5 0 0 1 I I #
point $-1 -97.20774003160238408 34.00370000000000203 -0.9703621649518182624 #
face $-1 $158 $112 $5 $-1 $159 forward single #
loop $-1 $-1 $118 $57 #
plane-surface $-1 -12.76569999999999716 100.6324999999999932 -11.41399999999998549 1 0 0 0 0 -2 forward_v I I I I #
coedge $-1 $108 $160 $110 $161 reversed $58 $-1 #
coedge $-1 $60 $122 $162 $163 reversed $38 $-1 #
edge $-1 $74 -0.401099999999999568 $164 1.59890000000000021 $70 $165 forward 7 unknown #
coedge $-1 $62 $61 $126 $166 reversed $26 $-1 #
coedge $-1 $119 $118 $61 $107 forward $100 $-1 #
edge $-1 $167 6.913055537257773331 $113 13.29300000000000637 $106 $168 forward 7 unknown #
coedge $-1 $169 $102 $62 $109 forward $58 $-1 #
edge $-1 $114 -13.29300000000000637 $170 -6.913046608048541763 $108 $171 forward 7 unknown #
coedge $-1 $172 $63 $102 $161 forward $112 $-1 #
coedge $-1 $63 $116 $119 $173 forward $112 $-1 #
loop $-1 $-1 $174 $99 #
vertex $-1 $64 $175 #
vertex $-1 $64 $176 #
ellipse-curve $-1 1.234300000000003283 84.63249999999999318 -38 0 0 1 -9.899494936611665352 -9.899494936611665352 0 1 I I #
coedge $-1 $111 $174 $65 $117 forward $112 $-1 #
edge $-1 $123 -0.785398163397448279 $120 0.785398163397448279 $116 $177 forward 7 unknown #
coedge $-1 $106 $66 $71 $127 reversed $100 $-1 #
coedge $-1 $66 $106 $111 $173 reversed $100 $-1 #
vertex $-1 $117 $178 #
straight-curve $-1 -12.76569999999999716 116.6325000000000216 -11.41399999999998549 0 0 2 I I #
coedge $-1 $103 $68 $174 $179 reversed $38 $-1 #
vertex $-1 $117 $180 #
straight-curve $-1 1.234300000000003283 130.6325000000000216 -11.41399999999998549 0 0 -2 I I #
coedge $-1 $181 $70 $182 $183 forward $72 $-1 #
coedge $-1 $71 $184 $105 $166 forward $72 $-1 #
edge $-1 $167 -7.928145590859556613 $73 8.071854409153475629 $71 $185 forward 7 unknown #
face $-1 $186 $72 $5 $-1 $187 forward single #
point $-1 -12.76569999999999716 116.6325000000000216 -25.24015189375771584 #
point $-1 1.234300000000003283 130.6325000000000216 -25.24016975217617897 #
face $-1 $-1 $91 $3 $-1 $188 reversed single #
plane-surface $-1 -104.7657000000000096 -5.996299999999999741 -1 0 1 0 0 0 1 forward_v I I I I #
coedge $-1 $189 $143 $146 $190 forward $77 $-1 #
coedge $-1 $136 $87 $191 $192 forward $79 $-1 #
coedge $-1 $81 $80 $189 $193 forward $30 $-1 #
coedge $-1 $150 $134 $80 $137 reversed $79 $-1 #
edge $-1 $141 -30 $194 30 $136 $195 forward 7 unknown #
coedge $-1 $146 $145 $81 $139 reversed $147 $-1 #
edge $-1 $196 -30 $140 30 $138 $197 forward 7 unknown #
vertex $-1 $83 $198 #
vertex $-1 $153 $199 #
straight-curve $-1 -74.7657000000000096 14.00370000000000026 14 0 1 0 I I #
coedge $-1 $133 $191 $84 $144 reversed $77 $-1 #
edge $-1 $148 -20 $151 20 $143 $200 forward 7 unknown #
coedge $-1 $138 $85 $90 $154 forward $147 $-1 #
coedge $-1 $85 $138 $133 $190 reversed $147 $-1 #
loop $-1 $-1 $145 $76 #
vertex $-1 $86 $201 #
straight-curve $-1 -104.7657000000000096 -5.996299999999999741 -16 -1 0 0 I I #
coedge $-1 $87 $136 $89 $153 reversed $79 $-1 #
vertex $-1 $144 $202 #
straight-curve $-1 -104.7657000000000096 34.00370000000000203 -16 1 0 0 I I #
edge $-1 $92 -15 $141 15 $89 $203 forward 7 unknown #
edge $-1 $93 -15 $140 15 $90 $204 forward 7 unknown #
point $-1 -74.7657000000000096 34.00370000000000203 -16 #
point $-1 -74.7657000000000096 -5.996299999999999741 -16 #
point $-1 -97.20774003160238408 -5.996299999999999741 -0.9703621649517134573 #
face $-1 $205 $206 $5 $-1 $207 forward single #
plane-surface $-1 -0.7656999999999967166 100.0037000000000091 -38 0 0 -1 -2 0 0 forward_v I I I I #
coedge $-1 $102 $169 $208 $209 reversed $58 $-1 #
edge $-1 $114 1.75 $210 3.75 $110 $211 forward 7 unknown #
coedge $-1 $212 $182 $103 $163 forward $213 $-1 #
edge $-1 $164 6.766584876088093559 $214 13.14650000000000318 $162 $215 forward 7 unknown #
vertex $-1 $163 $216 #
straight-curve $-1 2.036500000000002419 130.6325000000000216 -25.24016975217617897 2 0 0 I I #
edge $-1 $170 -1.918990575299143043e-05 $167 1.570777136889143666 $126 $217 forward 7 unknown #
vertex $-1 $166 $218 #
straight-curve $-1 -12.76569999999999716 84.63249999999999318 -11.41399999999998549 0 0 -2 I I #
coedge $-1 $160 $108 $184 $219 reversed $58 $-1 #
vertex $-1 $166 $220 #
straight-curve $-1 1.234300000000003283 70.63249999999999318 -11.41399999999998549 0 0 2 I I #
coedge $-1 $221 $110 $222 $223 forward $112 $-1 #
edge $-1 $120 -8.157200000000003115 $113 7.842800000000011096 $111 $224 forward 7 unknown #
coedge $-1 $116 $225 $122 $179 forward $112 $-1 #
point $-1 -12.76569999999999716 84.63249999999999318 -38 #
point $-1 1.234300000000003283 70.63249999999999318 -38 #
ellipse-curve $-1 1.234300000000003283 116.6325000000000216 -38 0 0 1 -9.899494936611665352 9.899494936611665352 0 1 I I #
point $-1 -12.76569999999999716 116.6325000000000216 -38 #
edge $-1 $214 -3.75 $123 -1.75 $174 $226 forward 7 unknown #
point $-1 1.234300000000003283 130.6325000000000216 -38 #
coedge $-1 $227 $125 $228 $229 reversed $72 $-1 #
coedge $-1 $162 $230 $125 $183 reversed $213 $-1 #
edge $-1 $164 30.22905422227124106 $231 42.08535422228090539 $125 $232 forward 7 unknown #
coedge $-1 $126 $233 $169 $219 forward $72 $-1 #
straight-curve $-1 -12.76569999999999716 100.4887911817062047 -25.24013130082146716 0 1.999999999998372857 -2.55120263692097009e-06 I I #
face $-1 $234 $235 $5 $-1 $236 reversed single #
plane-surface $-1 7.8386999999999869 100.3451000000439706 -25.24013111752880079 0 1.275601318460485045e-06 0.9999999999991864286 -2 0 0 forward_v I I I I #
plane-surface $-1 -74.7657000000000096 14.00370000000000026 -1 -1 0 0 0 0 -1 forward_v I I I I #
coedge $-1 $191 $133 $135 $193 reversed $77 $-1 #
edge $-1 $148 -15 $196 15 $146 $237 forward 7 unknown #
coedge $-1 $143 $189 $134 $192 reversed $77 $-1 #
edge $-1 $151 -15 $194 15 $191 $238 forward 7 unknown #
edge $-1 $194 -20 $196 20 $189 $239 forward 7 unknown #
vertex $-1 $193 $240 #
straight-curve $-1 -104.7657000000000096 34.00370000000000203 14 -1 0 0 I I #
vertex $-1 $139 $241 #
straight-curve $-1 -104.7657000000000096 -5.996299999999999741 14 1 0 0 I I #
point $-1 -74.7657000000000096 -5.996299999999999741 14 #
point $-1 -74.7657000000000096 34.00370000000000203 14 #
straight-curve $-1 -134.7657000000000096 14.00370000000000026 -16 0 1 0 I I #
point $-1 -134.7657000000000096 -5.996299999999999741 -16 #
point $-1 -134.7657000000000096 34.00370000000000203 -16 #
straight-curve $-1 -74.7657000000000096 34.00370000000000203 -1 0 0 1 I I #
straight-curve $-1 -74.7657000000000096 -5.996299999999999741 -1 0 0 1 I I #
face $-1 $242 $213 $5 $-1 $207 forward single #
loop $-1 $-1 $208 $158 #
plane-surface $-1 5.234300000000002839 40.00370000000000203 -11.99999999999999822 1 0 0 0 0 2 forward_v I I I I #
coedge $-1 $243 $222 $160 $209 forward $206 $-1 #
edge $-1 $210 -13.14650000000000318 $244 -6.76654660804853858 $208 $245 forward 7 unknown #
vertex $-1 $209 $246 #
straight-curve $-1 -2.265699999999996717 70.63249999999999318 -38 2 0 0 I I #
coedge $-1 $247 $162 $225 $248 reversed $213 $-1 #
loop $-1 $-1 $162 $205 #
vertex $-1 $248 $249 #
straight-curve $-1 5.234300000000002839 130.6325000000000216 -11.70699999999999186 0 0 -2 I I #
point $-1 5.234300000000002839 130.6325000000000216 -25.24016975217617897 #
ellipse-curve $-1 1.234300000000003283 84.63249999999999318 -25.24011107451553215 -0 -1.275601318460485045e-06 -0.9999999999991864286 -0.0002686586805253909915 -13.99999999742223267 1.785841845517311459e-05 0.9999999999991864286 I I #
point $-1 -12.76569999999999716 84.63249999999999318 -25.24011107451553215 #
edge $-1 $244 -1.59890000000000021 $170 0.401099999999999568 $184 $250 forward 7 unknown #
point $-1 1.234300000000003283 70.63249999999999318 -25.24009321609706902 #
coedge $-1 $251 $172 $252 $253 forward $112 $-1 #
coedge $-1 $208 $254 $172 $223 reversed $206 $-1 #
edge $-1 $210 -0.3143999999999920192 $255 18.00000000000000355 $172 $256 forward 7 unknown #
straight-curve $-1 -12.76569999999999716 100.3181000000000154 -38 0 -2 0 I I #
coedge $-1 $174 $257 $212 $248 forward $112 $-1 #
straight-curve $-1 -2.265699999999996717 130.6325000000000216 -38 -2 0 0 I I #
coedge $-1 $258 $181 $259 $260 forward $72 $-1 #
coedge $-1 $261 $262 $181 $229 forward $263 $-1 #
edge $-1 $264 -53.99999999999999289 $231 -1.302199999999992031 $228 $265 forward 7 unknown #
coedge $-1 $182 $266 $261 $267 reversed $213 $-1 #
vertex $-1 $229 $268 #
straight-curve $-1 5.234300000000002839 70.17439155550673036 -25.2400926317333365 0 1.999999999998372857 -2.55120263692097009e-06 I I #
coedge $-1 $184 $269 $243 $270 forward $72 $-1 #
face $-1 $271 $272 $5 $-1 $273 reversed single #
loop $-1 $-1 $274 $186 #
cone-surface $-1 -100.1612999999999971 134.3451408192585177 6.759825512000334768 -0 -1.275601318460485045e-06 -0.9999999999991864286 -14.14213562373094923 14.14213562371944199 -1.803972684747819237e-05 1 I I 0 1 19.99999999999999645 forward I I I I #
straight-curve $-1 -134.7657000000000096 -5.996299999999999741 -1 0 0 1 I I #
straight-curve $-1 -134.7657000000000096 34.00370000000000203 -1 0 0 1 I I #
straight-curve $-1 -134.7657000000000096 14.00370000000000026 14 0 -1 0 I I #
point $-1 -134.7657000000000096 34.00370000000000203 14 #
point $-1 -134.7657000000000096 -5.996299999999999741 14 #
face $-1 $275 $276 $5 $-1 $277 forward single #
coedge $-1 $278 $208 $233 $270 reversed $206 $-1 #
vertex $-1 $270 $279 #
straight-curve $-1 5.234300000000002839 70.63249999999999318 -11.70699999999999186 0 0 2 I I #
point $-1 5.234300000000002839 70.63249999999999318 -38 #
coedge $-1 $266 $212 $280 $281 reversed $213 $-1 #
edge $-1 $282 -48 $214 -30.31440000000000623 $225 $256 forward 7 unknown #
point $-1 5.234300000000002839 130.6325000000000216 -38 #
straight-curve $-1 2.036500000000002419 70.63249999999999318 -25.24009321609706902 -2 0 0 I I #
coedge $-1 $257 $221 $283 $284 forward $112 $-1 #
coedge $-1 $285 $286 $221 $253 reversed $287 $-1 #
edge $-1 $255 -3 $288 67 $221 $289 forward 7 unknown #
coedge $-1 $222 $290 $285 $291 reversed $206 $-1 #
vertex $-1 $291 $292 #
straight-curve $-1 5.234300000000002839 70.00370000000000914 -38 0 -2 0 I I #
coedge $-1 $225 $251 $293 $294 forward $112 $-1 #
coedge $-1 $295 $227 $296 $297 reversed $72 $-1 #
coedge $-1 $298 $299 $227 $260 reversed $235 $-1 #
edge $-1 $264 -0.78539816339744839 $300 0.785398163397448279 $227 $301 forward 7 unknown #
coedge $-1 $302 $228 $230 $267 forward $263 $-1 #
coedge $-1 $228 $303 $298 $304 forward $263 $-1 #
loop $-1 $-1 $302 $305 #
vertex $-1 $260 $306 #
straight-curve $-1 7.8386999999999869 154.345100000000059 -25.24020000000000152 2 0 0 I I #
coedge $-1 $230 $247 $307 $308 forward $213 $-1 #
edge $-1 $231 -11.31001353648715835 $309 8.310086463528804757 $261 $310 forward 7 unknown #
point $-1 5.234300000000002839 154.345100000000059 -25.24020000000000152 #
coedge $-1 $233 $295 $311 $312 reversed $72 $-1 #
edge $-1 $313 -11.91464577771910704 $244 0.2290542222468177624 $233 $232 forward 7 unknown #
face $-1 $314 $315 $5 $-1 $316 forward single #
loop $-1 $-1 $317 $234 #
cone-surface $-1 -100.1612999999999971 66.34514081931382634 6.759912252889991535 -0 -1.275601318460485045e-06 -0.9999999999991864286 -14.14213562373094923 -14.14213562371944199 1.803972684747819237e-05 1 I I 0 1 19.99999999999999645 forward I I I I #
coedge $-1 $299 $298 $318 $319 reversed $235 $-1 #
face $-1 $320 $321 $5 $-1 $322 forward single #
loop $-1 $-1 $323 $242 #
plane-surface $-1 69.23429999999994777 174.3451000000000874 20.38000000000001677 0 -1 0 0 0 -2 forward_v I I I I #
coedge $-1 $324 $243 $325 $326 reversed $206 $-1 #
point $-1 5.234300000000002839 70.63249999999999318 -25.24009321609706902 #
coedge $-1 $293 $327 $247 $281 forward $328 $-1 #
edge $-1 $329 -13 $282 13 $280 $330 forward 7 unknown #
vertex $-1 $294 $331 #
coedge $-1 $332 $333 $251 $284 reversed $334 $-1 #
edge $-1 $288 -33 $335 33 $283 $336 forward 7 unknown #
coedge $-1 $337 $252 $254 $291 forward $287 $-1 #
coedge $-1 $252 $337 $332 $338 reversed $287 $-1 #
loop $-1 $-1 $285 $339 #
vertex $-1 $253 $340 #
straight-curve $-1 -0.7656999999999967166 34.00370000000000203 -38 -2 0 0 I I #
coedge $-1 $254 $341 $342 $343 forward $206 $-1 #
edge $-1 $255 -13 $344 13 $285 $345 forward 7 unknown #
point $-1 5.234300000000002839 34.00370000000000203 -38 #
coedge $-1 $346 $280 $257 $294 reversed $328 $-1 #
edge $-1 $335 -67 $282 3 $257 $347 forward 7 unknown #
coedge $-1 $269 $258 $348 $349 forward $72 $-1 #
coedge $-1 $350 $351 $258 $297 forward $315 $-1 #
edge $-1 $352 -16.99999999999998934 $300 17.00000000000000355 $296 $353 forward 7 unknown #
coedge $-1 $274 $259 $262 $304 reversed $235 $-1 #
coedge $-1 $259 $274 $350 $354 reversed $235 $-1 #
vertex $-1 $297 $355 #
ellipse-curve $-1 -100.1612999999999971 134.3451000000163162 -25.24017448797363272 0 1.275601318460485045e-06 0.9999999999991864286 -14.14213562373094923 14.14213562371944199 -1.803972684747819237e-05 1 I I #
coedge $-1 $303 $261 $356 $357 forward $263 $-1 #
coedge $-1 $262 $302 $358 $359 reversed $263 $-1 #
edge $-1 $360 -15.62010000002572596 $264 16 $262 $361 forward 7 unknown #
face $-1 $339 $263 $5 $-1 $362 forward single #
point $-1 -100.1612999999999971 154.345100000000059 -25.24020000000000152 #
coedge $-1 $363 $364 $266 $308 reversed $365 $-1 #
edge $-1 $329 -63 $309 -57.17072502742544771 $266 $366 forward 7 unknown #
vertex $-1 $367 $368 #
straight-curve $-1 5.234300000000002839 154.3451288541363908 -2.620172927044086553 0 2.55120263692097009e-06 1.999999999998372857 I I #
coedge $-1 $369 $325 $269 $312 forward $370 $-1 #
edge $-1 $313 1.302199999999992031 $371 53.99999999999999289 $311 $372 forward 7 unknown #
vertex $-1 $270 $373 #
face $-1 $374 $328 $5 $-1 $375 forward single #
loop $-1 $-1 $376 $271 #
plane-surface $-1 -120.1613000000000255 100.345140819286172 6.759868882445163152 1 0 0 0 2.55120263692097009e-06 1.999999999998372857 forward_v I I I I #
coedge $-1 $377 $378 $379 $380 reversed $272 $-1 #
coedge $-1 $358 $381 $274 $319 forward $382 $-1 #
edge $-1 $383 -1.570781742103581236 $360 1.458469131535103865e-05 $318 $384 forward 7 unknown #
face $-1 $385 $386 $5 $-1 $387 reversed single #
loop $-1 $-1 $388 $275 #
plane-surface $-1 69.23429999999994777 26.34510000000006613 20.38000000000001677 0 1 0 0 0 2 forward_v I I I I #
coedge $-1 $389 $390 $391 $392 reversed $276 $-1 #
coedge $-1 $341 $278 $393 $394 reversed $206 $-1 #
coedge $-1 $311 $395 $278 $326 forward $370 $-1 #
edge $-1 $396 -12.21499833818160319 $313 19.40503277937292737 $325 $397 forward 7 unknown #
coedge $-1 $280 $346 $363 $398 forward $328 $-1 #
loop $-1 $-1 $280 $314 #
vertex $-1 $398 $399 #
straight-curve $-1 5.234300000000002839 166.0037000000000091 -11.99999999999999822 0 0 -2 I I #
point $-1 5.234300000000002839 166.0037000000000091 -38 #
coedge $-1 $400 $283 $286 $338 forward $334 $-1 #
coedge $-1 $283 $401 $346 $402 forward $334 $-1 #
loop $-1 $-1 $401 $374 #
vertex $-1 $284 $403 #
straight-curve $-1 -134.7657000000000096 100.0037000000000091 -38 0 2 0 I I #
coedge $-1 $286 $285 $404 $405 forward $287 $-1 #
edge $-1 $288 -16 $406 10 $332 $407 forward 7 unknown #
face $-1 $408 $287 $5 $-1 $409 forward single #
point $-1 -134.7657000000000096 34.00370000000000203 -38 #
coedge $-1 $290 $324 $410 $411 forward $206 $-1 #
coedge $-1 $412 $404 $290 $343 reversed $413 $-1 #
edge $-1 $414 -3.170700000000032048 $344 3 $290 $366 forward 7 unknown #
vertex $-1 $343 $415 #
straight-curve $-1 5.234300000000002839 34.00370000000000203 -11.99999999999999822 0 0 2 I I #
coedge $-1 $327 $293 $333 $402 reversed $328 $-1 #
straight-curve $-1 -0.7656999999999967166 166.0037000000000091 -38 2 0 0 I I #
coedge $-1 $378 $377 $295 $349 reversed $272 $-1 #
edge $-1 $352 -0.785398163397448279 $371 0.785398163397448279 $295 $416 forward 7 unknown #
coedge $-1 $376 $296 $299 $354 forward $315 $-1 #
coedge $-1 $296 $376 $378 $417 forward $315 $-1 #
vertex $-1 $349 $418 #
straight-curve $-1 -120.1613000000000255 100.3451000000439706 -25.24013111752880079 0 1.999999999998372857 -2.55120263692097009e-06 I I #
edge $-1 $300 -16 $383 15.62008724401254156 $350 $419 forward 7 unknown #
point $-1 -120.1613000000000255 134.3451000000163162 -25.24017448797363272 #
coedge $-1 $420 $421 $302 $357 reversed $422 $-1 #
edge $-1 $309 -1.095000000000892593 $423 10.90500000000887226 $302 $424 forward 7 unknown #
coedge $-1 $425 $318 $303 $359 forward $382 $-1 #
edge $-1 $360 -51.84890000000000043 $423 0.8489000000813147206 $358 $426 forward 7 unknown #
vertex $-1 $319 $427 #
straight-curve $-1 -100.1612999999999971 154.3451408192422321 6.759799999973965967 -0 -2.55120263692097009e-06 -1.999999999998372857 I I #
plane-surface $-1 7.8386999999999869 154.3451408192422321 6.759799999973965967 0 -0.9999999999991864286 1.275601318460485045e-06 0 2.55120263692097009e-06 1.999999999998372857 forward_v I I I I #
coedge $-1 $428 $307 $327 $398 reversed $365 $-1 #
coedge $-1 $307 $429 $420 $367 forward $365 $-1 #
loop $-1 $-1 $364 $430 #
straight-curve $-1 5.234300000000002839 40.00370000000000203 14.00000000000000178 0 -2 0 I I #
edge $-1 $431 -0.6852307422358911992 $309 0.7853956606549074015 $364 $432 forward 7 unknown #
point $-1 5.234300000000002839 154.3451500548509046 14.00000000000000178 #
coedge $-1 $395 $311 $377 $433 forward $370 $-1 #
loop $-1 $-1 $325 $408 #
vertex $-1 $312 $434 #
straight-curve $-1 7.8386999999999869 46.34510000008790342 -25.24006223505760715 -2 0 0 I I #
point $-1 5.234300000000002839 46.34510000008790342 -25.24006223505760715 #
face $-1 $435 $334 $5 $-1 $436 reversed single #
plane-surface $-1 -0.7656999999999967166 166.0037000000000091 -11.99999999999999822 0 1 0 0 0 2 forward_v I I I I #
coedge $-1 $351 $350 $381 $437 reversed $315 $-1 #
coedge $-1 $348 $317 $369 $433 reversed $272 $-1 #
coedge $-1 $317 $348 $351 $417 reversed $272 $-1 #
coedge $-1 $381 $438 $317 $380 forward $382 $-1 #
edge $-1 $439 -1.458469131535103865e-05 $440 1.570781742103581236 $379 $441 forward 7 unknown #
coedge $-1 $318 $379 $376 $437 forward $382 $-1 #
loop $-1 $-1 $391 $435 #
vertex $-1 $319 $442 #
ellipse-curve $-1 -100.1612999999999971 134.3451806692662842 38 0 0 -1 -0.0002916938262966795037 19.99999999788914096 0 0.9999999999991862065 I I #
face $-1 $443 $422 $5 $-1 $444 reversed single #
loop $-1 $-1 $445 $320 #
cone-surface $-1 25.23429999999994777 46.34510000000006613 20.38000000000001677 0 0 -1 -14.14213562373094923 -14.14213562373094923 0 1 I I 0 1 20 forward I I I I #
coedge $-1 $446 $447 $448 $449 reversed $321 $-1 #
coedge $-1 $450 $323 $451 $452 forward $276 $-1 #
coedge $-1 $323 $450 $453 $454 reversed $276 $-1 #
coedge $-1 $455 $425 $323 $392 forward $382 $-1 #
edge $-1 $456 -4.500000000000014211 $457 49.50000000000000711 $391 $458 forward 7 unknown #
coedge $-1 $438 $459 $324 $394 forward $382 $-1 #
edge $-1 $460 -26.91464999999999108 $396 -26.91460966540268274 $393 $461 forward 7 unknown #
coedge $-1 $325 $369 $438 $462 reversed $370 $-1 #
vertex $-1 $394 $463 #
straight-curve $-1 5.234299999999945996 46.3451495062587 13.57000332365667283 -0 -2.55120263692097009e-06 -1.999999999998372857 I I #
edge $-1 $464 -67 $329 3 $327 $465 forward 7 unknown #
point $-1 5.234300000000002839 166.0037000000000091 14.00000000000000178 #
coedge $-1 $466 $332 $467 $468 forward $334 $-1 #
coedge $-1 $333 $469 $428 $470 forward $334 $-1 #
edge $-1 $464 -10 $335 16 $333 $471 forward 7 unknown #
point $-1 -134.7657000000000096 166.0037000000000091 -38 #
coedge $-1 $342 $467 $337 $405 reversed $413 $-1 #
edge $-1 $344 -3 $406 67 $337 $472 forward 7 unknown #
vertex $-1 $468 $473 #
straight-curve $-1 -134.7657000000000096 34.00370000000000203 -5.999999999999998224 0 0 2 I I #
face $-1 $128 $370 $5 $-1 $474 forward single #
plane-surface $-1 -0.7656999999999967166 34.00370000000000203 -11.99999999999999822 0 -1 0 0 0 -2 forward_v I I I I #
coedge $-1 $475 $445 $341 $411 reversed $386 $-1 #
edge $-1 $460 -8.809999999999991616 $414 3.190000000000007496 $341 $476 forward 7 unknown #
coedge $-1 $477 $342 $445 $478 forward $413 $-1 #
loop $-1 $-1 $412 $479 #
vertex $-1 $343 $480 #
point $-1 5.234300000000002839 34.00370000000000203 14.00000000000000178 #
ellipse-curve $-1 -100.1612999999999971 66.34510000007165331 -25.24008774708397951 0 1.275601318460485045e-06 0.9999999999991864286 -14.14213562373094923 -14.14213562371944199 1.803972684747819237e-05 1 I I #
edge $-1 $440 -15.62004387356771318 $352 16.00000000000000355 $351 $481 forward 7 unknown #
point $-1 -120.1613000000000255 66.34510000007165331 -25.24008774708397951 #
straight-curve $-1 -120.1613000000000255 134.3451408192585177 6.759825512000334768 0 2.55120263692097009e-06 1.999999999998372857 I I #
coedge $-1 $482 $356 $364 $367 reversed $422 $-1 #
coedge $-1 $356 $451 $425 $483 reversed $422 $-1 #
loop $-1 $-1 $421 $385 #
vertex $-1 $359 $484 #
straight-curve $-1 5.234300000089119109 154.345152848417797 16.19000000000000483 6.741359724761080216e-12 2.551202636866982751e-06 1.999999999998372413 I I #
coedge $-1 $391 $358 $421 $483 forward $382 $-1 #
straight-curve $-1 3.536500000000002419 154.3451806692825414 38 2 0 0 I I #
point $-1 -100.1612999999999971 154.3451806692825414 38 #
coedge $-1 $485 $363 $401 $470 reversed $365 $-1 #
coedge $-1 $364 $485 $486 $487 forward $365 $-1 #
face $-1 $305 $365 $5 $-1 $488 reversed single #
vertex $-1 $487 $489 #
ellipse-curve $-1 25.23429999999994777 154.3451000000000874 14.00000000000000178 0 0 1 -14.14213562373094923 14.14213562373094923 0 1 I I #
edge $-1 $371 -16 $439 15.62003111755452878 $369 $490 forward 7 unknown #
point $-1 -100.1612999999999971 46.34510000008790342 -25.24006223505760715 #
face $-1 $491 $382 $5 $-1 $492 reversed single #
plane-surface $-1 -134.7657000000000096 100.0037000000000091 1.415534356397074589e-15 1 0 0 0 0 -2 forward_v I I I I #
edge $-1 $440 -16.91461987021607172 $383 17.08538012981159682 $381 $493 forward 7 unknown #
coedge $-1 $379 $393 $395 $462 forward $382 $-1 #
vertex $-1 $380 $494 #
vertex $-1 $380 $495 #
ellipse-curve $-1 -100.1612999999999971 66.34518066921094714 38 0 0 -1 -0.0002916938262966795037 -19.99999999788914096 0 0.9999999999991862065 I I #
point $-1 -120.1613000000000255 134.3451806692662842 38 #
face $-1 $496 $497 $5 $-1 $498 reversed single #
cone-surface $-1 25.23429999999994777 154.3451000000000874 20.38000000000001677 0 0 -1 -14.14213562373094923 14.14213562373094923 0 1 I I 0 1 20 forward I I I I #
coedge $-1 $410 $499 $412 $478 reversed $386 $-1 #
coedge $-1 $500 $388 $501 $502 forward $321 $-1 #
coedge $-1 $388 $500 $503 $504 reversed $321 $-1 #
coedge $-1 $505 $506 $388 $449 forward $507 $-1 #
edge $-1 $508 -24.25000000000001421 $509 29.74999999999997868 $448 $510 forward 7 unknown #
coedge $-1 $390 $389 $511 $512 reversed $276 $-1 #
coedge $-1 $421 $513 $389 $452 reversed $422 $-1 #
edge $-1 $456 -8.809999999999991616 $514 0.1900000000000083844 $389 $515 forward 7 unknown #
coedge $-1 $516 $517 $390 $454 forward $497 $-1 #
edge $-1 $457 -13.90499999999999403 $518 -4.904999999999993143 $453 $519 forward 7 unknown #
coedge $-1 $520 $391 $517 $521 forward $382 $-1 #
vertex $-1 $483 $522 #
vertex $-1 $454 $523 #
straight-curve $-1 34.23429999999997619 174.3451000000000874 38 2 0 0 I I #
coedge $-1 $393 $524 $475 $525 forward $382 $-1 #
vertex $-1 $525 $526 #
straight-curve $-1 5.234299999999945996 100.1744000000000483 38 0 2 0 I I #
edge $-1 $396 -0.8488999999999717883 $439 51.84890000000000043 $438 $527 forward 7 unknown #
point $-1 5.234299999999945996 46.34518066919468282 38 #
vertex $-1 $470 $528 #
straight-curve $-1 -0.7656999999999967166 166.0037000000000091 14.00000000000000178 2 0 0 I I #
coedge $-1 $529 $400 $530 $531 forward $334 $-1 #
coedge $-1 $404 $532 $400 $468 reversed $413 $-1 #
edge $-1 $406 9 $533 39 $400 $534 forward 7 unknown #
coedge $-1 $401 $529 $535 $536 reversed $334 $-1 #
edge $-1 $537 -39 $464 -9 $401 $538 forward 7 unknown #
straight-curve $-1 -134.7657000000000096 166.0037000000000091 -5.999999999999998224 0 0 -2 I I #
straight-curve $-1 -0.7656999999999967166 34.00370000000000203 14.00000000000000178 -2 0 0 I I #
point $-1 -134.7657000000000096 34.00370000000000203 14.00000000000000178 #
plane-surface $-1 7.8386999999999869 46.34514081933010488 6.759937764916360337 0 0.9999999999991864286 -1.275601318460485045e-06 -0 -2.55120263692097009e-06 -1.999999999998372857 forward_v I I I I #
coedge $-1 $501 $410 $459 $525 reversed $386 $-1 #
straight-curve $-1 5.234299999999945996 46.34510000000006613 20.38000000000001677 0 0 -2 I I #
coedge $-1 $532 $412 $539 $540 forward $413 $-1 #
edge $-1 $414 -0.785398163397448279 $541 0.6852307422358913103 $412 $542 forward 7 unknown #
face $-1 $543 $413 $5 $-1 $544 reversed single #
point $-1 5.234299999999945996 46.34510000000006613 14.00000000000000178 #
straight-curve $-1 -120.1613000000000255 66.34514081931382634 6.759912252889991535 -0 -2.55120263692097009e-06 -1.999999999998372857 I I #
coedge $-1 $513 $420 $545 $546 reversed $422 $-1 #
edge $-1 $423 -0.7853941299333255799 $456 0.785398163397448279 $425 $547 forward 7 unknown #
point $-1 5.234300000162631861 154.3451806692825414 38 #
coedge $-1 $429 $428 $548 $549 reversed $365 $-1 #
coedge $-1 $550 $545 $429 $487 reversed $551 $-1 #
edge $-1 $552 -39 $431 -13.12057437106622615 $429 $553 forward 7 unknown #
plane-surface $-1 -0.7656999999999967166 196.0037000000000091 14.00000000000000178 0 0 1 2 0 0 forward_v I I I I #
point $-1 23.23430000000000462 174.2448487421324614 14.00000000000000178 #
straight-curve $-1 -100.1612999999999971 46.34514081933010488 6.759937764916360337 0 2.55120263692097009e-06 1.999999999998372857 I I #
face $-1 $-1 $554 $5 $-1 $555 reversed single #
plane-surface $-1 -0.7656999999999967166 100.0037000000000091 38 0 0 -1 -2 0 0 forward_v I I I I #
straight-curve $-1 -120.1613000000000255 100.1744204096430906 38 0 2 0 I I #
point $-1 -100.1612999999999971 46.34518066919468282 38 #
point $-1 -120.1613000000000255 66.34518066921094714 38 #
face $-1 $556 $557 $5 $-1 $558 forward single #
loop $-1 $-1 $453 $443 #
plane-surface $-1 133.2342999999999904 100.0037000000000091 1.415534356397074589e-15 -1 0 0 0 0 2 forward_v I I I I #
coedge $-1 $445 $559 $560 $561 reversed $386 $-1 #
coedge $-1 $447 $446 $524 $562 reversed $321 $-1 #
coedge $-1 $559 $475 $446 $502 reversed $386 $-1 #
edge $-1 $508 -0.1900000000000083844 $563 8.809999999999991616 $446 $564 forward 7 unknown #
coedge $-1 $565 $566 $447 $504 forward $567 $-1 #
edge $-1 $509 4.904999999999993143 $568 13.90499999999999403 $503 $569 forward 7 unknown #
coedge $-1 $570 $448 $566 $571 reversed $507 $-1 #
coedge $-1 $448 $572 $559 $573 forward $507 $-1 #
loop $-1 $-1 $506 $574 #
vertex $-1 $573 $575 #
vertex $-1 $571 $576 #
straight-curve $-1 73.73429999999997619 26.34510000000006613 20 2 0 0 I I #
coedge $-1 $577 $578 $450 $512 forward $557 $-1 #
edge $-1 $518 -29.74999999999997868 $514 24.25000000000001421 $511 $579 forward 7 unknown #
coedge $-1 $451 $482 $577 $580 reversed $422 $-1 #
vertex $-1 $580 $581 #
straight-curve $-1 25.23429999999994777 174.3451000000000874 20.38000000000001677 0 0 -2 I I #
coedge $-1 $582 $453 $578 $583 forward $497 $-1 #
coedge $-1 $453 $582 $455 $521 reversed $497 $-1 #
vertex $-1 $512 $584 #
straight-curve $-1 133.2342999999999904 174.3451000000000874 10.19000000000001371 0 0 -2 I I #
coedge $-1 $585 $455 $586 $587 forward $382 $-1 #
edge $-1 $457 37.17070000000003915 $588 63 $517 $589 forward 7 unknown #
point $-1 25.23429999999994777 174.3451000000000874 38 #
point $-1 133.2342999999999904 174.3451000000000874 38 #
coedge $-1 $459 $590 $500 $562 forward $382 $-1 #
edge $-1 $563 -0.785398163397448279 $460 0.785398163397448279 $459 $591 forward 7 unknown #
point $-1 5.234299999999945996 46.34510000000006613 38 #
straight-curve $-1 3.536500000000002419 46.34518066919468282 38 -2 0 0 I I #
point $-1 -134.7657000000000096 166.0037000000000091 14.00000000000000178 #
coedge $-1 $469 $466 $585 $592 reversed $334 $-1 #
coedge $-1 $593 $594 $466 $531 reversed $595 $-1 #
edge $-1 $533 7 $596 19 $466 $597 forward 7 unknown #
coedge $-1 $467 $477 $593 $598 reversed $413 $-1 #
vertex $-1 $598 $599 #
straight-curve $-1 -134.7657000000000096 52.00370000000000203 14.00000000000000178 0 -2 0 I I #
coedge $-1 $586 $548 $469 $536 forward $554 $-1 #
edge $-1 $537 7 $600 19 $469 $601 forward 7 unknown #
vertex $-1 $549 $602 #
straight-curve $-1 -134.7657000000000096 148.0037000000000091 14.00000000000000178 0 -2 0 I I #
coedge $-1 $560 $603 $477 $540 reversed $604 $-1 #
edge $-1 $541 12.77917437106616916 $605 39 $477 $606 forward 7 unknown #
vertex $-1 $478 $607 #
ellipse-curve $-1 25.23429999999994777 46.34510000000006613 14.00000000000000178 0 0 1 -14.14213562373094923 -14.14213562373094923 0 1 I I #
face $-1 $430 $595 $5 $-1 $608 reversed single #
plane-surface $-1 -0.7656999999999967166 4.003700000000002035 14.00000000000000178 0 0 1 2 0 0 forward_v I I I I #
coedge $-1 $486 $609 $482 $546 forward $551 $-1 #
edge $-1 $610 0.1900000000000083844 $431 3.190000000000007496 $545 $611 forward 7 unknown #
ellipse-curve $-1 25.23429999999994777 154.3451000000000874 38 0 0 -1 -14.14213562373094923 14.14213562373094923 0 1 I I #
coedge $-1 $535 $612 $485 $549 forward $554 $-1 #
edge $-1 $552 -12 $537 67 $548 $613 forward 7 unknown #
coedge $-1 $609 $486 $612 $614 reversed $551 $-1 #
loop $-1 $-1 $545 $615 #
vertex $-1 $487 $616 #
straight-curve $-1 23.23430000000000462 148.0037000000000091 14.00000000000000178 0 -2 0 I I #
loop $-1 $-1 $612 $491 #
plane-surface $-1 -0.7656999999999967166 226.0037000000000091 1.415534356397074589e-15 0 -1 0 0 0 2 forward_v I I I I #
face $-1 $574 $604 $5 $-1 $617 forward single #
loop $-1 $-1 $511 $496 #
plane-surface $-1 78.23430000000000462 100.0037000000000091 20 0 0 -1 -2 0 0 forward_v I I I I #
coedge $-1 $499 $501 $506 $573 reversed $386 $-1 #
coedge $-1 $618 $539 $499 $561 forward $604 $-1 #
edge $-1 $541 -3.190000000000007496 $619 -0.1900000000000083844 $560 $620 forward 7 unknown #
edge $-1 $568 -49.50000000000000711 $563 4.500000000000014211 $524 $621 forward 7 unknown #
vertex $-1 $525 $622 #
straight-curve $-1 25.23429999999994777 26.34510000000006613 20.38000000000001677 0 0 2 I I #
coedge $-1 $623 $503 $590 $624 reversed $567 $-1 #
coedge $-1 $503 $623 $505 $571 forward $567 $-1 #
loop $-1 $-1 $503 $625 #
vertex $-1 $624 $626 #
straight-curve $-1 133.2342999999999904 26.34510000000006613 10.19000000000001371 0 0 2 I I #
coedge $-1 $572 $505 $627 $628 reversed $507 $-1 #
edge $-1 $629 -63 $509 -36.82929999999997506 $566 $630 forward 7 unknown #
coedge $-1 $506 $570 $618 $631 reversed $507 $-1 #
edge $-1 $619 0.6852307422358913103 $508 0.785398163397448279 $506 $632 forward 7 unknown #
face $-1 $625 $507 $5 $-1 $558 forward single #
point $-1 25.23429999999994777 26.34510000000006613 20 #
point $-1 133.2342999999999336 26.34510000000006613 20 #
coedge $-1 $633 $511 $513 $580 forward $557 $-1 #
coedge $-1 $511 $634 $516 $583 reversed $557 $-1 #
straight-curve $-1 73.73429999999997619 174.3451000000000874 20 -2 0 0 I I #
edge $-1 $514 -0.785398163397448279 $610 -0.6852307422358911992 $577 $635 forward 7 unknown #
point $-1 25.23429999999994777 174.3451000000000874 20 #
coedge $-1 $517 $516 $636 $637 forward $497 $-1 #
edge $-1 $518 37.17070000000003915 $638 63 $516 $639 forward 7 unknown #
point $-1 133.2342999999999336 174.3451000000000874 20 #
coedge $-1 $640 $520 $529 $592 forward $382 $-1 #
coedge $-1 $636 $535 $520 $587 reversed $554 $-1 #
edge $-1 $588 -67 $600 67 $586 $641 forward 7 unknown #
vertex $-1 $587 $642 #
straight-curve $-1 133.2342999999999904 100.0037000000000091 38 0 2 0 I I #
coedge $-1 $524 $640 $565 $624 forward $382 $-1 #
ellipse-curve $-1 25.23429999999994777 46.34510000000006613 38 0 0 -1 -14.14213562373094923 -14.14213562373094923 0 1 I I #
edge $-1 $600 -63 $596 63 $529 $643 forward 7 unknown #
coedge $-1 $644 $530 $532 $598 forward $595 $-1 #
coedge $-1 $530 $645 $640 $646 reversed $595 $-1 #
loop $-1 $-1 $644 $543 #
vertex $-1 $531 $647 #
straight-curve $-1 -134.7657000000000096 -25.99629999999999797 1.415534356397074589e-15 0 0 2 I I #
edge $-1 $533 -67 $605 12 $593 $648 forward 7 unknown #
point $-1 -134.7657000000000096 -25.99629999999999797 14.00000000000000178 #
vertex $-1 $592 $649 #
straight-curve $-1 -134.7657000000000096 226.0037000000000091 1.415534356397074589e-15 0 0 2 I I #
point $-1 -134.7657000000000096 226.0037000000000091 14.00000000000000178 #
coedge $-1 $539 $618 $644 $650 reversed $604 $-1 #
loop $-1 $-1 $560 $556 #
vertex $-1 $598 $651 #
straight-curve $-1 23.23430000000000462 52.00370000000000203 14.00000000000000178 0 -2 0 I I #
point $-1 23.23430000000000462 26.44535125786766372 14.00000000000000178 #
plane-surface $-1 -0.7656999999999967166 -25.99629999999999797 1.415534356397074589e-15 0 1 0 0 0 -2 forward_v I I I I #
coedge $-1 $545 $550 $633 $652 forward $551 $-1 #
vertex $-1 $652 $653 #
straight-curve $-1 23.23430000000000462 174.2448487421324614 20.38000000000001677 0 0 -2 I I #
coedge $-1 $548 $654 $550 $614 forward $554 $-1 #
straight-curve $-1 -0.7656999999999967166 226.0037000000000091 14.00000000000000178 -2 0 0 I I #
edge $-1 $655 -5.749999999999999112 $552 -2.75 $612 $656 forward 7 unknown #
face $-1 $479 $551 $5 $-1 $617 forward single #
point $-1 23.23430000000000462 226.0037000000000091 14.00000000000000178 #
plane-surface $-1 23.23430000000000462 100.0037000000000091 17 1 0 0 0 0 -2 forward_v I I I I #
coedge $-1 $603 $560 $572 $631 forward $604 $-1 #
vertex $-1 $573 $657 #
straight-curve $-1 23.23430000000000462 26.44535125786766372 20.38000000000001677 0 0 2 I I #
straight-curve $-1 34.23429999999997619 26.34510000000006613 38 -2 0 0 I I #
point $-1 25.23429999999994777 26.34510000000006613 38 #
coedge $-1 $566 $565 $645 $658 reversed $567 $-1 #
edge $-1 $659 -63 $568 -36.82929999999997506 $565 $589 forward 7 unknown #
face $-1 $615 $567 $5 $-1 $498 reversed single #
point $-1 133.2342999999999904 26.34510000000006613 38 #
coedge $-1 $645 $644 $570 $628 forward $595 $-1 #
edge $-1 $660 -7.75 $629 47.24999999999999289 $627 $661 forward 7 unknown #
vertex $-1 $571 $662 #
straight-curve $-1 133.2342999999999904 100.0037000000000091 20 0 2 0 I I #
edge $-1 $619 36.77917437106617626 $660 63 $618 $663 forward 7 unknown #
ellipse-curve $-1 25.23429999999994777 46.34510000000006613 20 0 0 1 -14.14213562373094923 -14.14213562373094923 0 1 I I #
coedge $-1 $634 $577 $609 $652 reversed $557 $-1 #
coedge $-1 $578 $633 $654 $664 reversed $557 $-1 #
ellipse-curve $-1 25.23429999999994777 154.3451000000000874 20 0 0 1 -14.14213562373094923 14.14213562373094923 0 1 I I #
coedge $-1 $654 $586 $582 $637 reversed $554 $-1 #
edge $-1 $638 10 $588 19 $636 $665 forward 7 unknown #
vertex $-1 $583 $666 #
straight-curve $-1 133.2342999999999904 100.0037000000000091 20 0 2 0 I I #
coedge $-1 $590 $585 $594 $646 forward $382 $-1 #
straight-curve $-1 -0.7656999999999967166 226.0037000000000091 38 -2 0 0 I I #
point $-1 133.2342999999999904 226.0037000000000091 38 #
straight-curve $-1 -134.7657000000000096 100.0037000000000091 38 0 -2 0 I I #
coedge $-1 $627 $593 $603 $650 forward $595 $-1 #
coedge $-1 $594 $627 $623 $658 forward $595 $-1 #
edge $-1 $596 -67 $659 67 $594 $667 forward 7 unknown #
point $-1 -134.7657000000000096 -25.99629999999999797 38 #
straight-curve $-1 -0.7656999999999967166 -25.99629999999999797 14.00000000000000178 2 0 0 I I #
point $-1 -134.7657000000000096 226.0037000000000091 38 #
edge $-1 $605 2.75 $660 5.749999999999999112 $644 $668 forward 7 unknown #
point $-1 23.23430000000000462 -25.99629999999999797 14.00000000000000178 #
edge $-1 $655 -63 $610 -37.12057437106622615 $609 $663 forward 7 unknown #
point $-1 23.23430000000000462 174.2448487421324614 20 #
coedge $-1 $612 $636 $634 $664 forward $554 $-1 #
vertex $-1 $664 $669 #
straight-curve $-1 23.23430000000000462 226.0037000000000091 8.500000000000001776 0 0 -2 I I #
point $-1 23.23430000000000462 26.44535125786766372 20 #
edge $-1 $629 10 $659 19 $623 $670 forward 7 unknown #
vertex $-1 $624 $671 #
vertex $-1 $628 $672 #
straight-curve $-1 38.73430000000000462 -25.99629999999999797 20 2 0 0 I I #
point $-1 133.2342999999999904 -25.99629999999999797 20 #
straight-curve $-1 23.23430000000000462 100.0037000000000091 20 0 -2 0 I I #
edge $-1 $638 -47.24999999999999289 $655 7.75 $654 $673 forward 7 unknown #
straight-curve $-1 133.2342999999999904 226.0037000000000091 1.415534356397074589e-15 0 0 2 I I #
point $-1 133.2342999999999904 226.0037000000000091 20 #
straight-curve $-1 -0.7656999999999967166 -25.99629999999999797 38 2 0 0 I I #
straight-curve $-1 23.23430000000000462 -25.99629999999999797 8.500000000000001776 0 0 2 I I #
point $-1 23.23430000000000462 226.0037000000000091 20 #
straight-curve $-1 133.2342999999999904 -25.99629999999999797 1.415534356397074589e-15 0 0 2 I I #
point $-1 133.2342999999999904 -25.99629999999999797 38 #
point $-1 23.23430000000000462 -25.99629999999999797 20 #
straight-curve $-1 38.73430000000000462 226.0037000000000091 20 -2 0 0 I I #
End-of-ACIS-data 