104 404 0 0                             
body $-1 $1 $-1 $2 #
lump $-1 $-1 $3 $0 #
transform $-1 -1.74574066942156e-15 1 3.02371153627746e-15 -0.499999999999998 -3.49148133884313e-15 0.86602540378444 0.86602540378444 0 0.499999999999998 13 5 5.928203 1 1 0 0 #
shell $-1 $-1 $-1 $4 $1 #
face $-1 $5 $6 $3 $-1 $7 1 #
face $-1 $8 $9 $3 $-1 $10 1 #
loop $-1 $11 $12 $4 #
cone-surface $-1 -28 5.2871872783223 -87.0140829951862 -1.74574066942157e-15 -0.500000000000001 0.866025403784438 -1.81422692176647e-14 -5.19615242270663 -3.00000000000001 1 0 1 0 #
face $-1 $13 $14 $3 $-1 $15 1 #
loop $-1 $16 $17 $5 #
cone-surface $-1 28 5.2871872783221 -87.0140829951862 -1.74574066942157e-15 -0.500000000000001 0.866025403784438 -1.81422692176647e-14 -5.19615242270663 -3.00000000000001 1 0 1 0 #
loop $-1 $-1 $18 $4 #
coedge $-1 $12 $12 $19 $20 1 $6 $-1 #
face $-1 $21 $22 $3 $-1 $23 1 #
loop $-1 $24 $25 $8 #
cone-surface $-1 -26 9.14359373887337 -61.6935749194975 3.02371153627746e-15 0.86602540378444 0.499999999999998 -1.39659253553725e-14 -3.99999999999998 6.92820323027552 1 0 1 0 #
loop $-1 $-1 $26 $5 #
coedge $-1 $17 $17 $27 $28 1 $9 $-1 #
coedge $-1 $18 $18 $29 $30 1 $11 $-1 #
coedge $-1 $19 $19 $12 $20 0 $31 $-1 #
edge $-1 $32 $32 $19 $33 0 #
face $-1 $34 $35 $3 $-1 $36 1 #
loop $-1 $37 $38 $13 #
cone-surface $-1 26 9.14359373887319 -61.6935749194975 3.02371153627746e-15 0.86602540378444 0.499999999999998 -1.39659253553725e-14 -3.99999999999998 6.92820323027552 1 0 1 0 #
loop $-1 $-1 $39 $8 #
coedge $-1 $25 $25 $40 $41 1 $14 $-1 #
coedge $-1 $26 $26 $42 $43 1 $16 $-1 #
coedge $-1 $27 $27 $17 $28 0 $44 $-1 #
edge $-1 $45 $45 $27 $46 0 #
coedge $-1 $29 $29 $18 $30 0 $47 $-1 #
edge $-1 $48 $48 $29 $49 0 #
loop $-1 $44 $19 $50 #
vertex $-1 $20 $51 #
ellipse-curve $-1 -28.0000000000001 -38.7128127216777 -10.8038474621558 1.74574066942156e-15 0.499999999999998 -0.86602540378444 -1.81422692176647e-14 -5.19615242270663 -3.00000000000001 1 #
face $-1 $52 $53 $3 $-1 $54 0 #
loop $-1 $55 $56 $21 #
cone-surface $-1 0 -0.39230466683415 -3.84996866387155e-07 -1.97215226305253e-31 0 1 -2.61861100413235e-14 -7.5 0 1 0 1 0 #
loop $-1 $-1 $57 $13 #
coedge $-1 $38 $38 $58 $59 1 $22 $-1 #
coedge $-1 $39 $39 $60 $61 1 $24 $-1 #
coedge $-1 $40 $40 $25 $41 0 $62 $-1 #
edge $-1 $63 $63 $40 $64 0 #
coedge $-1 $42 $42 $26 $43 0 $65 $-1 #
edge $-1 $66 $66 $42 $67 0 #
loop $-1 $68 $27 $50 #
vertex $-1 $28 $69 #
ellipse-curve $-1 27.9999999999999 -38.7128127216779 -10.8038474621558 1.74574066942156e-15 0.499999999999998 -0.86602540378444 -1.81422692176647e-14 -5.19615242270663 -3.00000000000001 1 #
loop $-1 $65 $29 $70 #
vertex $-1 $30 $71 #
ellipse-curve $-1 -28.0000000000001 -33.7128127216778 -19.4641015 -1.74574066942156e-15 -0.499999999999998 0.86602540378444 -1.81422692176647e-14 -5.19615242270663 -3.00000000000001 1 #
face $-1 $72 $31 $3 $-1 $73 0 #
point $-1 -28.0000000000002 -33.5166602989711 -7.80384746215575 #
face $-1 $50 $74 $3 $-1 $75 0 #
loop $-1 $-1 $76 $34 #
cone-surface $-1 44.9999999999999 -18.392304645989 -5.99999988486218 -1 4.67769802565672e-16 -1.74574066942156e-15 -9.39112958981763e-15 1.55291427061514 5.7955549577344 1 0 1 0 #
loop $-1 $-1 $77 $21 #
coedge $-1 $56 $56 $78 $79 1 $35 $-1 #
coedge $-1 $57 $57 $80 $81 1 $37 $-1 #
coedge $-1 $58 $58 $38 $59 0 $82 $-1 #
edge $-1 $83 $83 $58 $84 0 #
coedge $-1 $60 $60 $39 $61 0 $85 $-1 #
edge $-1 $86 $86 $60 $87 0 #
loop $-1 $82 $40 $88 #
vertex $-1 $41 $89 #
ellipse-curve $-1 -26 9.14359373887337 -61.6935749194975 -4.67769802565672e-16 0.86602540378444 0.499999999999998 -1.39659253553725e-14 -3.99999999999998 6.92820323027552 1 #
loop $-1 $90 $42 $70 #
vertex $-1 $43 $91 #
ellipse-curve $-1 27.9999999999999 -33.712812721678 -19.4641015 -1.74574066942156e-15 -0.499999999999998 0.86602540378444 -1.81422692176647e-14 -5.19615242270663 -3.00000000000001 1 #
loop $-1 $-1 $92 $50 #
point $-1 27.9999999999998 -33.5166602989713 -7.80384746215575 #
face $-1 $88 $47 $3 $-1 $93 0 #
point $-1 -28.0000000000001 -28.5166602989712 -16.4641015 #
face $-1 $94 $95 $3 $-1 $96 0 #
plane-surface $-1 44.9999999999999 -21.392304645989 -0.803847462155574 -1.74574066942156e-15 -0.499999999999998 0.86602540378444 1 -4.67769802565672e-16 1.74574066942156e-15 0 #
loop $-1 $-1 $97 $52 #
cone-surface $-1 -37 -5.10511756709094 -93.0140829951862 -1.74574066942157e-15 -0.499999999999995 0.866025403784442 -3.16740091312704e-14 6.92820323027553 3.99999999999996 1 0 1 0 #
coedge $-1 $98 $99 $100 $101 1 $53 $-1 #
coedge $-1 $77 $77 $102 $103 1 $55 $-1 #
coedge $-1 $78 $78 $56 $79 0 $104 $-1 #
edge $-1 $105 $105 $78 $106 0 #
coedge $-1 $80 $80 $57 $81 0 $107 $-1 #
edge $-1 $108 $108 $80 $109 0 #
loop $-1 $104 $58 $88 #
vertex $-1 $59 $110 #
ellipse-curve $-1 26 9.14359373887319 -61.6935749194975 -4.67769802565672e-16 0.86602540378444 0.499999999999998 -1.39659253553725e-14 -3.99999999999998 6.92820323027552 1 #
loop $-1 $107 $60 $111 #
vertex $-1 $61 $112 #
ellipse-curve $-1 -25.9999999999999 17.8038477767178 -56.6935749194975 4.67769802565672e-16 -0.86602540378444 -0.499999999999998 -1.39659253553725e-14 -3.99999999999998 6.92820323027552 1 #
face $-1 $113 $62 $3 $-1 $114 0 #
point $-1 -25.9999999999999 13.1435937388734 -68.621778149773 #
loop $-1 $-1 $115 $70 #
point $-1 27.9999999999999 -28.5166602989714 -16.4641015 #
coedge $-1 $116 $117 $97 $118 0 $68 $-1 #
plane-surface $-1 44.9999999999999 -51.0333207973666 -29.4641014999999 1.74574066942156e-15 0.499999999999998 -0.86602540378444 -1 4.67769802565672e-16 -1.74574066942156e-15 0 #
face $-1 $119 $120 $3 $-1 $121 0 #
loop $-1 $-1 $122 $72 #
cone-surface $-1 37 -5.1051175670912 -93.0140829951862 -5.23722200826469e-15 -0.499999999999998 0.86602540378444 -8 6.60874683563372e-14 -1.02237669348472e-14 1 0 1 0 #
coedge $-1 $123 $124 $92 $118 1 $74 $-1 #
coedge $-1 $125 $76 $126 $127 1 $53 $-1 #
coedge $-1 $76 $128 $129 $130 0 $53 $-1 #
coedge $-1 $131 $132 $76 $101 0 $133 $-1 #
edge $-1 $134 $135 $100 $136 0 #
coedge $-1 $102 $102 $77 $103 0 $137 $-1 #
edge $-1 $138 $138 $102 $139 0 #
loop $-1 $140 $78 $88 #
vertex $-1 $79 $141 #
ellipse-curve $-1 8.90957531828305e-30 -0.39230466683415 -45.1769143849974 -4.67769802565672e-16 0.86602540378444 0.499999999999998 -2.61861100413235e-14 -7.5 12.9903810567666 0.499999999999998 #
loop $-1 $142 $80 $111 #
vertex $-1 $81 $143 #
ellipse-curve $-1 26.0000000000001 17.8038477767176 -56.6935749194975 4.67769802565672e-16 -0.86602540378444 -0.499999999999998 -1.39659253553725e-14 -3.99999999999998 6.92820323027552 1 #
point $-1 26.0000000000001 13.1435937388732 -68.621778149773 #
face $-1 $70 $85 $3 $-1 $144 0 #
point $-1 -25.9999999999999 13.8038477767178 -49.765371689222 #
face $-1 $145 $146 $3 $-1 $147 1 #
plane-surface $-1 44.9999999999999 -19.8564062611268 -11.4641015 4.67769802565672e-16 -0.86602540378444 -0.499999999999998 1 -4.67769802565672e-16 1.74574066942156e-15 0 #
coedge $-1 $148 $149 $150 $151 0 $90 $-1 #
coedge $-1 $152 $92 $153 $154 1 $68 $-1 #
coedge $-1 $92 $155 $156 $157 0 $68 $-1 #
edge $-1 $158 $159 $92 $160 0 #
face $-1 $161 $162 $3 $-1 $163 0 #
loop $-1 $-1 $164 $94 #
plane-surface $-1 44.9999999999999 -56.0333207973666 -20.8038474621555 4.67769802565672e-16 -0.86602540378444 -0.499999999999998 1 -4.67769802565672e-16 1.74574066942156e-15 0 #
coedge $-1 $165 $166 $167 $168 1 $95 $-1 #
coedge $-1 $150 $97 $169 $170 0 $74 $-1 #
coedge $-1 $97 $150 $164 $171 1 $74 $-1 #
coedge $-1 $172 $98 $173 $174 1 $53 $-1 #
coedge $-1 $175 $176 $98 $127 0 $177 $-1 #
edge $-1 $178 $134 $126 $179 0 #
coedge $-1 $99 $180 $181 $182 0 $53 $-1 #
coedge $-1 $183 $184 $99 $130 1 $142 $-1 #
edge $-1 $185 $135 $99 $186 0 #
coedge $-1 $187 $100 $184 $188 0 $133 $-1 #
coedge $-1 $100 $187 $175 $189 1 $133 $-1 #
loop $-1 $-1 $131 $190 #
vertex $-1 $127 $191 #
vertex $-1 $188 $192 #
ellipse-curve $-1 18 -18.392304645989 -5.99999988486222 -1 -0 -0 -9.39112958981763e-15 1.55291427061514 5.7955549577344 1 #
loop $-1 $193 $102 $194 #
vertex $-1 $103 $195 #
ellipse-curve $-1 -1.18329136542424e-29 -0.39230466683415 60 -0 -0 -1 -2.61861100413235e-14 -7.5 0 1 #
loop $-1 $-1 $196 $88 #
point $-1 7.85583301239705e-14 7.10769533316585 -58.167295441764 #
loop $-1 $-1 $184 $111 #
point $-1 26 13.8038477767176 -49.765371689222 #
plane-surface $-1 45.0000000000001 27.8038477767175 -74.0140829951863 -4.67769802565672e-16 0.86602540378444 0.499999999999998 -1 4.67769802565672e-16 -1.74574066942156e-15 0 #
face $-1 $197 $198 $3 $-1 $199 0 #
loop $-1 $-1 $200 $113 #
plane-surface $-1 45 -16.4254316981143 -27.3460635908342 -1 4.67769802565672e-16 -1.74574066942156e-15 -1.74574066942156e-15 -0.499999999999998 0.86602540378444 0 #
coedge $-1 $201 $115 $202 $203 0 $90 $-1 #
coedge $-1 $115 $167 $204 $205 0 $90 $-1 #
coedge $-1 $124 $123 $115 $151 1 $74 $-1 #
edge $-1 $206 $207 $115 $208 0 #
coedge $-1 $209 $116 $210 $211 0 $68 $-1 #
coedge $-1 $164 $212 $116 $154 0 $120 $-1 #
edge $-1 $213 $159 $153 $214 0 #
coedge $-1 $117 $209 $180 $215 0 $68 $-1 #
coedge $-1 $216 $169 $117 $157 1 $198 $-1 #
edge $-1 $217 $158 $117 $218 0 #
vertex $-1 $157 $219 #
vertex $-1 $154 $220 #
ellipse-curve $-1 -37.0000000000002 -49.1051175670906 -16.8038474621552 -1.74574066942156e-15 -0.499999999999998 0.86602540378444 -3.16740091312704e-14 6.92820323027553 3.99999999999996 1 #
face $-1 $221 $222 $3 $-1 $223 0 #
loop $-1 $-1 $224 $119 #
cone-surface $-1 -37 15.1435937388734 -72.0858797649107 3.02371153627746e-15 0.86602540378444 0.499999999999998 8 -1.39659253553726e-14 -2.41896922902197e-14 1 0 1 0 #
coedge $-1 $204 $153 $124 $171 0 $120 $-1 #
coedge $-1 $210 $122 $200 $225 1 $95 $-1 #
coedge $-1 $122 $210 $212 $226 0 $95 $-1 #
coedge $-1 $149 $227 $122 $168 0 $90 $-1 #
edge $-1 $228 $229 $167 $230 0 #
coedge $-1 $156 $202 $123 $170 1 $198 $-1 #
edge $-1 $158 $207 $169 $231 0 #
edge $-1 $159 $206 $164 $232 0 #
coedge $-1 $233 $125 $234 $235 0 $53 $-1 #
coedge $-1 $236 $237 $125 $174 0 $238 $-1 #
edge $-1 $239 $178 $173 $240 0 #
coedge $-1 $241 $126 $132 $189 0 $177 $-1 #
coedge $-1 $126 $241 $236 $242 0 $177 $-1 #
loop $-1 $243 $126 $244 #
vertex $-1 $242 $245 #
straight-curve $-1 22.4999999999999 -18.3923045795141 0 1 -3.49148133884313e-15 0 #
coedge $-1 $128 $233 $155 $215 1 $53 $-1 #
coedge $-1 $246 $247 $128 $182 1 $146 $-1 #
edge $-1 $248 $185 $128 $249 0 #
coedge $-1 $250 $129 $247 $251 0 $142 $-1 #
coedge $-1 $129 $252 $131 $188 1 $142 $-1 #
vertex $-1 $182 $253 #
straight-curve $-1 44.9999999999999 -13.1961522232824 -2.99999988486221 -1 4.67769802565672e-16 -1.74574066942156e-15 #
coedge $-1 $132 $131 $254 $255 1 $133 $-1 #
edge $-1 $135 $256 $131 $257 0 #
edge $-1 $134 $258 $175 $259 0 #
face $-1 $260 $133 $3 $-1 $261 0 #
point $-1 18 -18.3923045795141 0 #
point $-1 18 -13.1961522232823 -2.99999988486225 #
loop $-1 $-1 $262 $194 #
face $-1 $244 $137 $3 $-1 $263 0 #
point $-1 -2.61861100413235e-14 7.10769533316585 60 #
coedge $-1 $264 $265 $224 $266 0 $140 $-1 #
face $-1 $267 $268 $3 $-1 $269 0 #
loop $-1 $-1 $169 $145 #
plane-surface $-1 -44.9999999999999 19.1435937388731 -79.0140829951864 -1 4.67769802565672e-16 -1.74574066942156e-15 -1.74574066942156e-15 -0.499999999999998 0.86602540378444 0 #
coedge $-1 $270 $246 $165 $225 0 $146 $-1 #
coedge $-1 $227 $148 $271 $272 1 $90 $-1 #
coedge $-1 $169 $273 $148 $203 1 $198 $-1 #
edge $-1 $207 $274 $148 $275 0 #
coedge $-1 $212 $164 $149 $205 1 $120 $-1 #
edge $-1 $229 $206 $149 $276 0 #
vertex $-1 $205 $277 #
vertex $-1 $151 $278 #
ellipse-curve $-1 -37.0000000000002 -44.1051175670905 -25.4641014999998 1.74574066942156e-15 0.499999999999998 -0.86602540378444 -3.16740091312704e-14 6.92820323027553 3.99999999999996 1 #
coedge $-1 $155 $152 $246 $279 0 $68 $-1 #
coedge $-1 $166 $165 $152 $211 1 $95 $-1 #
edge $-1 $213 $280 $152 $281 0 #
coedge $-1 $153 $204 $166 $226 1 $120 $-1 #
vertex $-1 $211 $282 #
straight-curve $-1 44.9999999999999 -56.0333207973666 -20.8038474621555 -1 4.67769802565672e-16 -1.74574066942156e-15 #
edge $-1 $248 $217 $155 $283 0 #
coedge $-1 $284 $156 $233 $285 1 $198 $-1 #
vertex $-1 $215 $286 #
straight-curve $-1 -45.0000000000001 -56.0333207973665 -20.8038474621556 4.67769802565672e-16 -0.86602540378444 -0.499999999999998 #
point $-1 -45.0000000000002 -49.1051175670905 -16.8038474621554 #
point $-1 -37.0000000000002 -56.0333207973665 -20.8038474621556 #
face $-1 $111 $287 $3 $-1 $288 0 #
loop $-1 $-1 $289 $161 #
plane-surface $-1 45.0000000000001 19.1435937388731 -79.0140829951863 1.74574066942156e-15 0.499999999999998 -0.86602540378444 -1 4.67769802565672e-16 -1.74574066942156e-15 0 #
coedge $-1 $290 $291 $196 $266 1 $162 $-1 #
edge $-1 $280 $228 $200 $292 0 #
edge $-1 $213 $229 $212 $293 0 #
coedge $-1 $167 $201 $270 $294 0 $90 $-1 #
vertex $-1 $294 $295 #
vertex $-1 $226 $296 #
ellipse-curve $-1 36.9999999999996 -44.105117567091 -25.4641014999999 1.74574066942156e-15 0.499999999999998 -0.86602540378444 -8 6.60874683563372e-14 -1.02237669348472e-14 1 #
straight-curve $-1 -44.9999999999999 -5.10511756709094 -93.0140829951862 1.74574066942157e-15 0.499999999999995 -0.866025403784442 #
straight-curve $-1 -37 -12.0333207973667 -97.0140829951863 1.74574066942157e-15 0.499999999999995 -0.866025403784442 #
coedge $-1 $180 $172 $216 $285 0 $53 $-1 #
coedge $-1 $297 $298 $172 $235 1 $142 $-1 #
edge $-1 $239 $299 $172 $186 0 #
coedge $-1 $300 $173 $176 $242 1 $238 $-1 #
coedge $-1 $173 $300 $297 $301 0 $238 $-1 #
loop $-1 $-1 $237 $267 #
vertex $-1 $301 $302 #
ellipse-curve $-1 -18 -18.392304645989 -5.99999988486229 1 -0 -0 -9.39112958981763e-15 1.55291427061514 5.7955549577344 1 #
coedge $-1 $176 $175 $303 $304 0 $177 $-1 #
edge $-1 $305 $178 $176 $306 0 #
loop $-1 $-1 $307 $244 #
face $-1 $-1 $177 $3 $-1 $308 0 #
point $-1 -18 -18.3923045795139 0 #
coedge $-1 $200 $181 $209 $279 1 $146 $-1 #
coedge $-1 $181 $309 $183 $251 1 $146 $-1 #
vertex $-1 $279 $310 #
ellipse-curve $-1 44.9999999999999 -18.392304645989 -5.99999988486218 -1 4.67769802565672e-16 -1.74574066942156e-15 -9.39112958981763e-15 1.55291427061514 5.7955549577344 1 #
coedge $-1 $311 $183 $312 $313 0 $142 $-1 #
edge $-1 $185 $314 $183 $315 0 #
coedge $-1 $184 $297 $316 $317 1 $142 $-1 #
point $-1 44.9999999999999 -13.1961522232824 -2.99999988486221 #
coedge $-1 $316 $303 $187 $255 0 $268 $-1 #
edge $-1 $258 $256 $254 $318 0 #
vertex $-1 $255 $319 #
straight-curve $-1 18 5.80384777671759 -35.908965228671 0 0.499999999999998 -0.86602540378444 #
vertex $-1 $189 $320 #
straight-curve $-1 18 -20 0 0 1 0 #
face $-1 $194 $321 $3 $-1 $322 0 #
plane-surface $-1 18 -20 0 1 0 0 0 0 -1 0 #
coedge $-1 $262 $262 $323 $324 0 $193 $-1 #
plane-surface $-1 0 0 60 0 0 1 1 0 0 0 #
coedge $-1 $325 $196 $326 $327 1 $140 $-1 #
coedge $-1 $196 $271 $273 $328 0 $140 $-1 #
edge $-1 $329 $330 $196 $331 0 #
face $-1 $190 $238 $3 $-1 $332 0 #
loop $-1 $-1 $316 $197 #
cone-surface $-1 0 6.3948846218409e-14 0 0 0 -1 0 18 0 1 0 1 0 #
coedge $-1 $333 $200 $227 $294 1 $146 $-1 #
coedge $-1 $265 $334 $201 $272 0 $140 $-1 #
edge $-1 $335 $274 $271 $336 0 #
coedge $-1 $202 $337 $265 $328 1 $198 $-1 #
vertex $-1 $272 $338 #
straight-curve $-1 -45.0000000000001 -19.8564062611267 -11.4641015000001 -4.67769802565672e-16 0.86602540378444 0.499999999999998 #
straight-curve $-1 44.9999999999999 -51.0333207973666 -29.4641014999999 -1 4.67769802565672e-16 -1.74574066942156e-15 #
point $-1 -37.0000000000001 -51.0333207973666 -29.4641015 #
point $-1 -45.0000000000002 -44.1051175670906 -25.4641014999998 #
edge $-1 $280 $248 $209 $339 0 #
vertex $-1 $211 $340 #
ellipse-curve $-1 36.9999999999995 -49.105117567091 -16.8038474621555 -1.74574066942156e-15 -0.499999999999998 0.86602540378444 -8 6.60874683563372e-14 -1.02237669348472e-14 1 #
point $-1 36.9999999999995 -56.0333207973666 -20.8038474621555 #
straight-curve $-1 44.9999999999999 -21.392304645989 -0.803847462155574 -1 4.67769802565672e-16 -1.74574066942156e-15 #
coedge $-1 $337 $216 $298 $341 1 $198 $-1 #
edge $-1 $299 $217 $233 $342 0 #
point $-1 -45.0000000000001 -21.3923046459889 -0.80384746215573 #
loop $-1 $-1 $312 $221 #
cone-surface $-1 37 15.1435937388731 -72.0858797649107 3.02371153627746e-15 0.86602540378444 0.499999999999998 -1.39659253553725e-14 -3.99999999999998 6.92820323027552 1 0 1 0 #
coedge $-1 $343 $326 $291 $344 1 $222 $-1 #
coedge $-1 $345 $224 $337 $346 1 $162 $-1 #
coedge $-1 $224 $345 $289 $344 0 $162 $-1 #
straight-curve $-1 45.0000000000001 -5.10511756709122 -93.0140829951862 5.23722200826469e-15 0.499999999999998 -0.86602540378444 #
straight-curve $-1 37 -12.0333207973667 -97.0140829951862 5.23722200826469e-15 0.499999999999998 -0.86602540378444 #
edge $-1 $335 $228 $227 $347 0 #
point $-1 44.9999999999996 -44.1051175670911 -25.4641014999999 #
point $-1 36.9999999999996 -51.0333207973666 -29.4641014999999 #
coedge $-1 $252 $234 $237 $301 1 $142 $-1 #
coedge $-1 $234 $348 $284 $341 0 $142 $-1 #
vertex $-1 $235 $349 #
coedge $-1 $237 $236 $350 $351 0 $238 $-1 #
edge $-1 $352 $239 $237 $353 0 #
point $-1 -18 -13.1961522232823 -2.99999988486232 #
coedge $-1 $254 $350 $241 $304 1 $268 $-1 #
edge $-1 $258 $305 $241 $354 0 #
vertex $-1 $304 $355 #
straight-curve $-1 -18 0 0 0 -1 0 #
coedge $-1 $307 $307 $356 $357 0 $243 $-1 #
plane-surface $-1 0 -4.39999999999999 0 0 0 1 1 0 0 0 #
coedge $-1 $247 $333 $358 $359 1 $146 $-1 #
point $-1 44.9999999999999 -21.392304645989 -0.803847462155574 #
coedge $-1 $348 $250 $343 $360 0 $142 $-1 #
coedge $-1 $358 $361 $250 $313 1 $287 $-1 #
edge $-1 $314 $362 $250 $363 0 #
vertex $-1 $251 $364 #
straight-curve $-1 44.9999999999999 -13.1961522232824 -2.99999988486221 1.74574066942156e-15 0.499999999999998 -0.86602540378444 #
coedge $-1 $350 $254 $252 $317 0 $268 $-1 #
edge $-1 $256 $352 $316 $365 0 #
straight-curve $-1 18 0 0 0 0 -1 #
point $-1 18 0 -25.8564060000004 #
point $-1 18 0 0 #
loop $-1 $366 $323 $260 #
cone-surface $-1 0 0 25 0 0 1 12.5 0 0 1 0 1 0 #
coedge $-1 $323 $323 $262 $324 1 $321 $-1 #
edge $-1 $367 $367 $262 $368 0 #
coedge $-1 $334 $264 $369 $370 0 $140 $-1 #
coedge $-1 $289 $371 $264 $327 0 $222 $-1 #
edge $-1 $372 $330 $326 $373 0 #
edge $-1 $274 $329 $265 $374 0 #
vertex $-1 $328 $375 #
vertex $-1 $327 $376 #
ellipse-curve $-1 -37 15.1435937388734 -72.0858797649107 4.67769802565672e-16 -0.86602540378444 -0.499999999999998 8 -1.39659253553726e-14 -2.41896922902197e-14 1 #
plane-surface $-1 -18 0 0 -1 0 0 0 -0 1 0 #
coedge $-1 $309 $270 $334 $377 1 $146 $-1 #
coedge $-1 $271 $325 $333 $377 0 $140 $-1 #
vertex $-1 $377 $378 #
straight-curve $-1 44.9999999999999 -19.8564062611268 -11.4641015 -1 4.67769802565672e-16 -1.74574066942156e-15 #
coedge $-1 $273 $284 $290 $346 0 $198 $-1 #
point $-1 -45.0000000000001 -19.8564062611267 -11.4641015000001 #
straight-curve $-1 44.9999999999999 -56.0333207973666 -20.8038474621555 -4.67769802565672e-16 0.86602540378444 0.499999999999998 #
point $-1 44.9999999999995 -49.1051175670911 -16.8038474621555 #
edge $-1 $379 $299 $298 $380 0 #
ellipse-curve $-1 -45.0000000000001 -18.3923046459889 -5.99999988486233 1 -4.67769802565672e-16 1.74574066942156e-15 -9.39112958981763e-15 1.55291427061514 5.7955549577344 1 #
coedge $-1 $371 $289 $311 $360 1 $222 $-1 #
edge $-1 $381 $330 $289 $382 0 #
coedge $-1 $291 $290 $348 $383 1 $162 $-1 #
edge $-1 $379 $329 $337 $384 0 #
straight-curve $-1 44.9999999999999 -19.8564062611268 -11.4641015 4.67769802565672e-16 -0.86602540378444 -0.499999999999998 #
coedge $-1 $298 $311 $345 $383 0 $142 $-1 #
point $-1 -45.0000000000001 -13.1961522232823 -2.99999988486236 #
coedge $-1 $303 $316 $300 $351 1 $268 $-1 #
edge $-1 $305 $352 $300 $385 0 #
vertex $-1 $351 $386 #
straight-curve $-1 -18 8.30384777671756 -40.2390922475932 0 -0.499999999999998 0.86602540378444 #
ellipse-curve $-1 0 6.3948846218409e-14 0 0 0 1 0 18 -0 1 #
point $-1 -18 0 0 #
coedge $-1 $356 $356 $307 $357 1 $366 $-1 #
edge $-1 $387 $387 $307 $388 0 #
coedge $-1 $369 $312 $309 $359 0 $287 $-1 #
edge $-1 $314 $389 $309 $390 0 #
edge $-1 $362 $381 $311 $391 0 #
coedge $-1 $312 $369 $371 $392 1 $287 $-1 #
vertex $-1 $392 $393 #
ellipse-curve $-1 37.0000000000001 23.8038477767175 -67.0858797649108 -4.67769802565672e-16 0.86602540378444 0.499999999999998 -1.39659253553725e-14 -3.99999999999998 6.92820323027552 1 #
point $-1 45.0000000000001 23.8038477767175 -67.0858797649108 #
ellipse-curve $-1 0 6.3948846218409e-14 -25.8564060000005 -4.67769802565672e-16 0.86602540378444 0.499999999999998 0 18 -31.17691453624 0.499999999999998 #
loop $-1 $-1 $356 $260 #
vertex $-1 $324 $394 #
ellipse-curve $-1 0 0 60 0 0 1 12.5 0 0 1 #
coedge $-1 $361 $358 $325 $370 1 $287 $-1 #
edge $-1 $372 $389 $325 $395 0 #
coedge $-1 $326 $343 $361 $392 0 $222 $-1 #
vertex $-1 $392 $396 #
straight-curve $-1 45.0000000000001 19.1435937388731 -79.0140829951863 -1 4.67769802565672e-16 -1.74574066942156e-15 #
straight-curve $-1 -44.9999999999999 19.1435937388731 -79.0140829951864 1.74574066942156e-15 0.499999999999998 -0.86602540378444 #
point $-1 -45 15.1435937388731 -72.0858797649109 #
point $-1 -36.9999999999999 19.1435937388731 -79.0140829951864 #
edge $-1 $389 $335 $334 $397 0 #
point $-1 44.9999999999999 -19.8564062611268 -11.4641015 #
vertex $-1 $383 $398 #
straight-curve $-1 -45.0000000000001 -13.1961522232823 -2.99999988486236 -1.74574066942156e-15 -0.499999999999998 0.86602540378444 #
vertex $-1 $360 $399 #
straight-curve $-1 -36.9999999999999 19.1435937388734 -79.0140829951863 -3.02371153627746e-15 -0.86602540378444 -0.499999999999998 #
edge $-1 $381 $379 $348 $400 0 #
straight-curve $-1 -45 15.1435937388734 -72.0858797649107 -3.02371153627746e-15 -0.86602540378444 -0.499999999999998 #
straight-curve $-1 -18 0 0 0 0 -1 #
point $-1 -18 0 -25.8564060000004 #
vertex $-1 $357 $401 #
ellipse-curve $-1 0 0 0 -0 -0 -1 12.5 0 0 1 #
vertex $-1 $370 $402 #
straight-curve $-1 45 15.1435937388731 -72.0858797649107 -3.02371153627746e-15 -0.86602540378444 -0.499999999999998 #
straight-curve $-1 45.0000000000001 27.8038477767175 -74.0140829951863 -1 4.67769802565672e-16 -1.74574066942156e-15 #
edge $-1 $362 $372 $371 $403 0 #
point $-1 37.0000000000001 27.8038477767175 -74.0140829951863 #
point $-1 12.5 0 60 #
ellipse-curve $-1 37 15.1435937388731 -72.0858797649107 4.67769802565672e-16 -0.86602540378444 -0.499999999999998 -1.39659253553725e-14 -3.99999999999998 6.92820323027552 1 #
point $-1 37.0000000000001 19.1435937388731 -79.0140829951863 #
straight-curve $-1 45.0000000000001 19.1435937388731 -79.0140829951863 -1.74574066942156e-15 -0.499999999999998 0.86602540378444 #
point $-1 -44.9999999999999 23.8038477767175 -67.0858797649109 #
point $-1 -36.9999999999999 27.8038477767175 -74.0140829951864 #
ellipse-curve $-1 -36.9999999999999 23.8038477767178 -67.0858797649108 -4.67769802565672e-16 0.86602540378444 0.499999999999998 8 -1.39659253553726e-14 -2.41896922902197e-14 1 #
point $-1 -12.5 -8.72870334710783e-14 0 #
point $-1 45 15.1435937388731 -72.0858797649107 #
straight-curve $-1 37.0000000000001 19.1435937388731 -79.0140829951863 -3.02371153627746e-15 -0.86602540378444 -0.499999999999998 #
