600 0 1 0           
71 GICL ACIS Healer - Source: /gicl/data5/repository/new/cami1_a.sat - 6 0 18 ACIS 6.0.3 Solaris 24 Sat Apr 13 20:07:22 2002 
1 9.999999999999999547e-07 1.000000000000000036e-10 
body $-1 $1 $-1 $-1 #
lump $-1 $-1 $2 $0 #
shell $-1 $-1 $-1 $3 $-1 $1 #
face $-1 $4 $5 $2 $-1 $6 reversed single #
face $-1 $7 $8 $2 $-1 $9 reversed single #
loop $-1 $10 $11 $3 #
cone-surface $-1 -35 -73.00000000000001421 14.00000000000001421 1.000000000000000222 -1.577721810442023611e-30 -3.608224830031758756e-15 -2.398081733190338127e-14 1.577721810442023611e-29 -6.000000000000005329 1 I I 0 1 6.000000000000003553 forward I I I I #
face $-1 $12 $13 $2 $-1 $14 reversed single #
loop $-1 $15 $16 $4 #
cone-surface $-1 -34.99999999999998579 -17.00000000000001776 14.00000000000000711 1.000000000000000222 -1.577721810442023611e-30 -3.608224830031758756e-15 -2.398081733190338443e-14 1.577721810442023611e-29 -6.000000000000005329 1 I I 0 1 6.000000000000003553 forward I I I I #
loop $-1 $-1 $17 $3 #
coedge $-1 $11 $11 $18 $19 reversed $5 $-1 #
face $-1 $20 $21 $2 $-1 $22 reversed single #
loop $-1 $23 $24 $7 #
cone-surface $-1 -15.00000000000004263 -71.00000000000002842 29.99999999999998579 0 1.183291357831517708e-30 1.000000000000000222 8.000000000000001776 -5.048709793414475555e-29 3.552713678800500929e-15 1 I I 0 1 8 forward I I I I #
loop $-1 $-1 $25 $4 #
coedge $-1 $16 $16 $26 $27 reversed $8 $-1 #
coedge $-1 $17 $17 $28 $29 reversed $10 $-1 #
coedge $-1 $18 $18 $11 $19 forward $30 $-1 #
edge $-1 $31 -3.141592653589804662 $31 3.14159265358978157 $18 $32 reversed 7 unknown #
face $-1 $33 $34 $2 $-1 $35 reversed single #
loop $-1 $36 $37 $12 #
cone-surface $-1 -15.00000000000004263 -19.00000000000003197 29.99999999999998934 0 1.183291357831517708e-30 1.000000000000000222 8.000000000000001776 -5.048709793414475555e-29 3.552713678800500929e-15 1 I I 0 1 8 forward I I I I #
loop $-1 $-1 $38 $7 #
coedge $-1 $24 $24 $39 $40 reversed $13 $-1 #
coedge $-1 $25 $25 $41 $42 reversed $15 $-1 #
coedge $-1 $26 $26 $16 $27 forward $43 $-1 #
edge $-1 $44 -3.141592653589803774 $44 3.141592653589782458 $26 $45 reversed 7 unknown #
coedge $-1 $28 $28 $17 $29 forward $46 $-1 #
edge $-1 $47 -3.141592653589795336 $47 3.141592653589790896 $28 $48 reversed 7 unknown #
loop $-1 $43 $18 $49 #
vertex $-1 $19 $50 #
ellipse-curve $-1 52.99999999999995737 -73.00000000000001421 13.99999999999969624 1.000000000000000222 -1.972152263052529514e-30 0 -2.398081733190338127e-14 1.577721810442023611e-29 -6.000000000000005329 1 I I #
face $-1 $51 $52 $2 $-1 $53 forward single #
loop $-1 $54 $55 $20 #
cone-surface $-1 43.19615200000000499 -45 52.58845700000000534 0.8660254037844400399 -1.972152263052529951e-31 0.4999999999999980016 3.749999999999984901 -2.524354896707237777e-29 -6.495190528383300688 1 I I 0 1 7.5 forward I I I I #
loop $-1 $-1 $56 $12 #
coedge $-1 $37 $37 $57 $58 reversed $21 $-1 #
coedge $-1 $38 $38 $59 $60 reversed $23 $-1 #
coedge $-1 $39 $39 $24 $40 forward $61 $-1 #
edge $-1 $62 -3.141592653589803774 $62 3.141592653589782458 $39 $63 reversed 7 unknown #
coedge $-1 $41 $41 $25 $42 forward $64 $-1 #
edge $-1 $65 -3.141592653589795781 $65 3.141592653589790451 $41 $66 reversed 7 unknown #
loop $-1 $67 $26 $49 #
vertex $-1 $27 $68 #
ellipse-curve $-1 52.99999999999995737 -17.00000000000001776 13.99999999999968914 1.000000000000000222 -1.972152263052529514e-30 0 -2.398081733190338443e-14 1.577721810442023611e-29 -6.000000000000005329 1 I I #
loop $-1 $64 $28 $69 #
vertex $-1 $29 $70 #
ellipse-curve $-1 43.00000000000008527 -73.00000000000001421 13.99999999999973355 -1.000000000000000222 1.972152263052529514e-30 0 -2.398081733190338127e-14 1.577721810442023611e-29 -6.000000000000005329 1 I I #
face $-1 $71 $30 $2 $-1 $72 forward single #
point $-1 52.99999999999991473 -73.00000000000008527 19.99999999999970157 #
face $-1 $49 $73 $2 $-1 $74 forward single #
loop $-1 $-1 $75 $33 #
cone-surface $-1 46.99999968543767181 -3.552713132866480407e-14 33.99999968543767892 -1.972152263052529514e-31 -1 -3.491481338843132961e-15 4.242640909548444306 -1.481310156310085657e-14 4.24264090954844697 1 I I 0 1 6.000000314562326409 forward I I I I #
loop $-1 $-1 $76 $20 #
coedge $-1 $55 $55 $77 $78 reversed $34 $-1 #
coedge $-1 $56 $56 $79 $80 reversed $36 $-1 #
coedge $-1 $57 $57 $37 $58 forward $81 $-1 #
edge $-1 $82 -3.141592653589803774 $82 3.141592653589782458 $57 $83 reversed 7 unknown #
coedge $-1 $59 $59 $38 $60 forward $84 $-1 #
edge $-1 $85 -6.28318530717959689 $85 -1.06581410364015233e-14 $59 $86 reversed 7 unknown #
loop $-1 $81 $39 $87 #
vertex $-1 $40 $88 #
ellipse-curve $-1 -15.00000000000004263 -71.00000000000002842 29.9999999999999396 0 3.4914813388431302e-15 -1.000000000000000222 8.000000000000001776 -5.048709793414475555e-29 3.552713678800500929e-15 1 I I #
loop $-1 $89 $41 $69 #
vertex $-1 $42 $90 #
ellipse-curve $-1 43.00000000000008527 -17.00000000000001776 13.99999999999972644 -1.000000000000000222 1.972152263052529514e-30 0 -2.398081733190338443e-14 1.577721810442023611e-29 -6.000000000000005329 1 I I #
loop $-1 $-1 $91 $49 #
point $-1 52.99999999999992184 -17.00000000000008171 19.99999999999969447 #
face $-1 $87 $46 $2 $-1 $92 forward single #
point $-1 43.00000000000008527 -73 19.99999999999970868 #
face $-1 $93 $94 $2 $-1 $95 forward single #
plane-surface $-1 53 -2.131628207280300558e-14 33.99999999999997158 1.000000000000000222 -1.972152263052529514e-30 0 1.972152263052529514e-31 1 3.491481338843132961e-15 forward_v I I I I #
loop $-1 $-1 $96 $51 #
cone-surface $-1 -35.00000000000002842 -81.99999999999997158 2.000000000000007105 1.000000000000000222 -2.248253579879883645e-29 3.608224830031758756e-15 -2.575717417130363805e-14 -5.586370142149012106e-14 8.000000000000001776 1 I I 0 1 7.999999999999998224 forward I I I I #
coedge $-1 $97 $98 $99 $100 reversed $52 $-1 #
coedge $-1 $76 $76 $101 $102 reversed $54 $-1 #
coedge $-1 $77 $77 $55 $78 forward $103 $-1 #
edge $-1 $104 -3.141592653589800666 $104 3.141592653589785566 $77 $105 reversed 7 unknown #
coedge $-1 $79 $79 $56 $80 forward $106 $-1 #
edge $-1 $107 -6.283185307179583567 $107 2.220446049250321364e-15 $79 $108 reversed 7 unknown #
loop $-1 $103 $57 $87 #
vertex $-1 $58 $109 #
ellipse-curve $-1 -15.00000000000004263 -19.00000000000003197 29.9999999999999396 0 3.4914813388431302e-15 -1.000000000000000222 8.000000000000001776 -5.048709793414475555e-29 3.552713678800500929e-15 1 I I #
loop $-1 $106 $59 $110 #
vertex $-1 $60 $111 #
ellipse-curve $-1 -15.00000000000004263 -71.00000000000002842 40.00000000000001421 0 -3.4914813388431302e-15 1.000000000000000222 8.000000000000001776 -5.048709793414475555e-29 3.552713678800500929e-15 1 I I #
face $-1 $112 $61 $2 $-1 $113 forward single #
point $-1 -23.00000000000004263 -70.99999999999994316 30.00000000000003908 #
loop $-1 $-1 $114 $69 #
point $-1 43.00000000000008527 -17 19.99999999999970868 #
coedge $-1 $115 $116 $96 $117 forward $67 $-1 #
plane-surface $-1 42.99999999999998579 7.815970093361102045e-14 -6.000000000000021316 -1.000000000000000222 1.972152263052529514e-30 0 -1.972152263052529514e-31 -1 -3.491481338843132961e-15 forward_v I I I I #
face $-1 $118 $119 $2 $-1 $120 forward single #
loop $-1 $-1 $121 $71 #
cone-surface $-1 -35.00000000000002842 -7.999999999999978684 2.000000000000007105 1.000000000000000222 -3.491481338843131383e-15 0 -2.793185071074504791e-14 -8.000000000000001776 2.793185071074507946e-14 1 I I 0 1 8 forward I I I I #
coedge $-1 $122 $123 $91 $117 reversed $73 $-1 #
coedge $-1 $124 $75 $125 $126 reversed $52 $-1 #
coedge $-1 $75 $127 $128 $129 forward $52 $-1 #
coedge $-1 $130 $131 $75 $100 forward $132 $-1 #
edge $-1 $133 -0.2617993877991524054 $134 0.785398163397448057 $99 $135 reversed 7 unknown #
coedge $-1 $101 $101 $76 $102 forward $136 $-1 #
edge $-1 $137 -3.141592653589799777 $137 3.141592653589786455 $101 $138 reversed 7 unknown #
loop $-1 $139 $77 $87 #
vertex $-1 $78 $140 #
ellipse-curve $-1 4.071796811414543527 -45 29.99999999999978328 0 3.4914813388431302e-15 -1.000000000000000222 15.0000000000000675 -2.780544990697408666e-29 8.881784197001252323e-16 0.4999999999999980016 I I #
loop $-1 $141 $79 $110 #
vertex $-1 $80 $142 #
ellipse-curve $-1 -15.00000000000004263 -19.00000000000003197 40.00000000000001421 0 -3.4914813388431302e-15 1.000000000000000222 8.000000000000001776 -5.048709793414475555e-29 3.552713678800500929e-15 1 I I #
point $-1 -23.00000000000004263 -18.99999999999994671 30.00000000000002132 #
face $-1 $69 $84 $2 $-1 $143 forward single #
point $-1 -7.000000000000056843 -70.99999999999994316 40 #
face $-1 $144 $145 $2 $-1 $146 reversed single #
plane-surface $-1 42.99999999999997868 -2.842170943040400743e-14 29.9999999999999396 0 3.4914813388431302e-15 -1.000000000000000222 1.972152263052529514e-31 1 3.491481338843132961e-15 forward_v I I I I #
coedge $-1 $147 $148 $149 $150 forward $89 $-1 #
coedge $-1 $151 $91 $152 $153 reversed $67 $-1 #
coedge $-1 $91 $154 $155 $156 forward $67 $-1 #
edge $-1 $157 1.570796326794893227 $158 3.141592653589790007 $91 $159 forward 7 unknown #
face $-1 $160 $161 $2 $-1 $162 forward single #
loop $-1 $-1 $163 $93 #
plane-surface $-1 52.99999999999999289 9.947598300641402602e-14 -6.000000000000042633 0 3.4914813388431302e-15 -1.000000000000000222 1.972152263052529514e-31 1 3.491481338843132961e-15 forward_v I I I I #
coedge $-1 $164 $165 $166 $167 reversed $94 $-1 #
coedge $-1 $149 $96 $168 $169 forward $73 $-1 #
coedge $-1 $96 $149 $163 $170 reversed $73 $-1 #
coedge $-1 $171 $97 $172 $173 reversed $52 $-1 #
coedge $-1 $174 $175 $97 $126 forward $176 $-1 #
edge $-1 $177 -62.99999999999989342 $133 -26.99999999999988987 $125 $178 reversed 7 unknown #
coedge $-1 $98 $179 $180 $181 forward $52 $-1 #
coedge $-1 $182 $183 $98 $129 reversed $141 $-1 #
edge $-1 $184 -6.105311616706326794e-14 $134 26.99999999999989697 $98 $185 forward 7 unknown #
coedge $-1 $186 $99 $183 $187 forward $132 $-1 #
coedge $-1 $99 $186 $174 $188 reversed $132 $-1 #
loop $-1 $-1 $130 $189 #
vertex $-1 $126 $190 #
vertex $-1 $187 $191 #
ellipse-curve $-1 46.99999968543767181 -26.99999999999992184 33.99999968543758655 -1.745740669421559972e-15 1 3.02371153627746015e-15 4.242640909548444306 -1.481310156310085657e-14 4.24264090954844697 1 I I #
loop $-1 $192 $101 $193 #
vertex $-1 $102 $194 #
ellipse-curve $-1 95.15767656048350887 -45 82.58845719249833905 0.8660254037844400399 0 0.4999999999999980016 3.749999999999984901 -2.524354896707237777e-29 -6.495190528383300688 1 I I #
loop $-1 $-1 $195 $87 #
point $-1 -10.92820318858539252 -44.99999999999994316 29.99999999999985789 #
loop $-1 $-1 $183 $110 #
point $-1 -7.000000000000042633 -19.00000000000004974 39.99999999999998579 #
plane-surface $-1 -35.00000000000005684 0 40.00000000000001421 0 -3.4914813388431302e-15 1.000000000000000222 -1.972152263052529514e-31 -1 -3.491481338843132961e-15 forward_v I I I I #
face $-1 $196 $197 $2 $-1 $198 forward single #
loop $-1 $-1 $199 $112 #
plane-surface $-1 27.5303300858898794 5.684341886080801487e-14 25.03033008588992203 -1.972152263052529514e-31 -1 -3.491481338843132961e-15 1.000000000000000444 -1.972152263052529514e-30 0 forward_v I I I I #
coedge $-1 $200 $114 $201 $202 forward $89 $-1 #
coedge $-1 $114 $166 $203 $204 forward $89 $-1 #
coedge $-1 $123 $122 $114 $150 reversed $73 $-1 #
edge $-1 $205 -3.141592653589790007 $206 -1.570796326794893227 $114 $207 forward 7 unknown #
coedge $-1 $208 $115 $209 $210 forward $67 $-1 #
coedge $-1 $163 $211 $115 $153 forward $119 $-1 #
edge $-1 $212 8.00000000000036593 $158 82.00000000000005684 $152 $213 forward 7 unknown #
coedge $-1 $116 $208 $179 $214 forward $67 $-1 #
coedge $-1 $215 $168 $116 $156 reversed $197 $-1 #
edge $-1 $216 -1.999999685437696684 $157 29.99999999999937472 $116 $217 forward 7 unknown #
vertex $-1 $156 $218 #
vertex $-1 $153 $219 #
ellipse-curve $-1 53.00000000000014211 -81.99999999999997158 2.000000000000324629 1.000000000000000222 -1.972152263052529514e-30 0 -2.575717417130363805e-14 -5.586370142149012106e-14 8.000000000000001776 1 I I #
face $-1 $220 $221 $2 $-1 $222 forward single #
loop $-1 $-1 $223 $118 #
cone-surface $-1 -26.99999999999998579 -82.00000000000005684 30.00000000000003908 0 1.183291357831517708e-30 1.000000000000000222 -2.793185071074508577e-14 8.000000000000001776 -2.524354896707238338e-29 1 I I 0 1 8 forward I I I I #
coedge $-1 $203 $152 $123 $170 forward $119 $-1 #
coedge $-1 $209 $121 $199 $224 reversed $94 $-1 #
coedge $-1 $121 $209 $211 $225 forward $94 $-1 #
coedge $-1 $148 $226 $121 $167 forward $89 $-1 #
edge $-1 $227 -3.141592653589800221 $228 -1.570796326794903441 $166 $229 forward 7 unknown #
coedge $-1 $155 $201 $122 $169 reversed $197 $-1 #
edge $-1 $157 -88.00000000000004263 $206 -78.00000000000001421 $168 $230 reversed 7 unknown #
edge $-1 $158 -88.00000000000001421 $205 -77.99999999999998579 $163 $231 reversed 7 unknown #
coedge $-1 $232 $124 $233 $234 forward $52 $-1 #
coedge $-1 $235 $236 $124 $173 forward $237 $-1 #
edge $-1 $238 -0.785398163397448057 $177 0.2617993877991522944 $172 $239 reversed 7 unknown #
coedge $-1 $240 $125 $131 $188 forward $176 $-1 #
coedge $-1 $125 $240 $235 $241 forward $176 $-1 #
loop $-1 $242 $125 $243 #
vertex $-1 $241 $244 #
straight-curve $-1 52.19615238056327655 -4.447900815978070187e-14 36.9999998427188288 -1.972152263052529514e-31 -1 -3.491481338843132961e-15 I I #
coedge $-1 $127 $232 $154 $214 reversed $52 $-1 #
coedge $-1 $245 $246 $127 $181 reversed $145 $-1 #
edge $-1 $247 -0.7853981633974486121 $184 0.785398163397448057 $127 $248 reversed 7 unknown #
coedge $-1 $249 $128 $246 $250 forward $141 $-1 #
coedge $-1 $128 $251 $130 $187 reversed $141 $-1 #
vertex $-1 $181 $252 #
straight-curve $-1 46.99999968543767181 -5.647602046001211978e-14 40.00000000000001421 -1.972152263052529514e-31 -1 -3.491481338843132961e-15 I I #
coedge $-1 $131 $130 $253 $254 reversed $132 $-1 #
edge $-1 $134 -37.99999968543771445 $255 -11.60769555343513737 $130 $256 reversed 7 unknown #
edge $-1 $133 -6.192304761126783852 $257 12.20000000000005613 $174 $258 forward 7 unknown #
face $-1 $259 $132 $2 $-1 $260 forward single #
point $-1 52.19615238056332629 -26.99999999999993605 36.99999984271876485 #
point $-1 46.99999968543767181 -26.99999999999995381 39.99999999999992184 #
loop $-1 $-1 $261 $193 #
face $-1 $243 $136 $2 $-1 $262 forward single #
point $-1 91.40767656048349465 -45.00000000000004974 89.08364772088162908 #
coedge $-1 $263 $264 $223 $265 forward $139 $-1 #
face $-1 $266 $267 $2 $-1 $268 forward single #
loop $-1 $-1 $168 $144 #
plane-surface $-1 -35 -89.99999999999997158 29.99999999999968026 -1.972152263052529514e-31 -1 -3.491481338843132961e-15 1.000000000000000444 -1.972152263052529514e-30 0 forward_v I I I I #
coedge $-1 $269 $245 $164 $224 forward $145 $-1 #
coedge $-1 $226 $147 $270 $271 reversed $89 $-1 #
coedge $-1 $168 $272 $147 $202 reversed $197 $-1 #
edge $-1 $206 -9.999999999999413802 $273 17.99999999999995026 $147 $274 forward 7 unknown #
coedge $-1 $211 $163 $148 $204 reversed $119 $-1 #
edge $-1 $228 8.000000000000312639 $205 82.00000000000002842 $148 $275 forward 7 unknown #
vertex $-1 $204 $276 #
vertex $-1 $150 $277 #
ellipse-curve $-1 42.99999999999998579 -81.99999999999997158 2.000000000000288658 -1.000000000000000222 1.972152263052529514e-30 0 -2.575717417130363805e-14 -5.586370142149012106e-14 8.000000000000001776 1 I I #
coedge $-1 $154 $151 $245 $278 forward $67 $-1 #
coedge $-1 $165 $164 $151 $210 reversed $94 $-1 #
edge $-1 $212 1.570796326794903663 $279 3.141592653589800221 $151 $280 forward 7 unknown #
coedge $-1 $152 $203 $165 $225 reversed $119 $-1 #
vertex $-1 $210 $281 #
straight-curve $-1 53 1.089094772436681521e-13 -6.000000000000049738 -1.972152263052529163e-30 -1 -3.491481338843129411e-15 I I #
edge $-1 $247 -6.105311616706326794e-14 $216 89.99999999999994316 $154 $282 forward 7 unknown #
coedge $-1 $283 $155 $232 $284 reversed $197 $-1 #
vertex $-1 $214 $285 #
straight-curve $-1 53.00000000000001421 -89.99999999999997158 31.9999999999996696 6.885732823805158576e-45 3.491481338843132961e-15 -1 I I #
point $-1 53.00000000000001421 -89.99999999999988631 2.000000000000296208 #
point $-1 53 -81.99999999999994316 -6.000000000000010658 #
face $-1 $110 $286 $2 $-1 $287 forward single #
loop $-1 $-1 $288 $160 #
plane-surface $-1 -35.00000000000005684 3.552713678800500929e-14 30 -1.000000000000000222 1.972152263052529514e-30 0 -1.972152263052529514e-31 -1 -3.491481338843132961e-15 forward_v I I I I #
coedge $-1 $289 $290 $195 $265 reversed $161 $-1 #
edge $-1 $279 -88.00000000000004263 $227 -78 $199 $291 reversed 7 unknown #
edge $-1 $212 -88.00000000000004263 $228 -78.00000000000002842 $211 $292 reversed 7 unknown #
coedge $-1 $166 $200 $269 $293 forward $89 $-1 #
vertex $-1 $293 $294 #
vertex $-1 $225 $295 #
ellipse-curve $-1 42.99999999999998579 -8.000000000000250466 2.000000000000007105 -1.000000000000000222 1.972152263052529514e-30 0 -2.793185071074504791e-14 -8.000000000000001776 2.793185071074507946e-14 1 I I #
straight-curve $-1 -35.00000000000002842 -89.99999999999988631 1.999999999999978684 1 -2.248253579879883085e-29 3.608224830031757968e-15 I I #
straight-curve $-1 -35.00000000000001421 -81.99999999999994316 -6.000000000000328626 1 -2.248253579879883085e-29 3.608224830031757968e-15 I I #
coedge $-1 $179 $171 $215 $284 forward $52 $-1 #
coedge $-1 $296 $297 $171 $234 reversed $141 $-1 #
edge $-1 $238 62.99999999999988631 $298 89.99999999999994316 $171 $299 forward 7 unknown #
coedge $-1 $300 $172 $175 $241 reversed $237 $-1 #
coedge $-1 $172 $300 $296 $301 forward $237 $-1 #
loop $-1 $-1 $236 $266 #
vertex $-1 $301 $302 #
ellipse-curve $-1 46.99999968543767181 -62.99999999999993605 33.99999968543745865 1.745740669421559972e-15 -1 -3.02371153627746015e-15 4.242640909548444306 -1.481310156310085657e-14 4.24264090954844697 1 I I #
coedge $-1 $175 $174 $303 $304 forward $176 $-1 #
edge $-1 $305 -2.200000000000057465 $177 16.19230476112677053 $175 $306 forward 7 unknown #
loop $-1 $-1 $307 $243 #
face $-1 $-1 $176 $2 $-1 $308 forward single #
point $-1 52.19615238056327655 -62.99999999999993605 36.99999984271860853 #
coedge $-1 $199 $180 $208 $278 reversed $145 $-1 #
coedge $-1 $180 $309 $182 $250 reversed $145 $-1 #
vertex $-1 $278 $310 #
ellipse-curve $-1 46.99999968543767181 2.552598483839846387e-14 33.99999968543767892 1.972152263052529514e-31 1 3.491481338843132961e-15 4.242640909548444306 -1.481310156310085657e-14 4.24264090954844697 1 I I #
coedge $-1 $311 $182 $312 $313 forward $141 $-1 #
edge $-1 $184 -50.73483464249275698 $314 23.26516504294488286 $182 $315 reversed 7 unknown #
coedge $-1 $183 $296 $316 $317 reversed $141 $-1 #
point $-1 46.99999968543767181 4.577095707051141842e-15 40.00000000000001421 #
coedge $-1 $316 $303 $186 $254 forward $267 $-1 #
edge $-1 $257 0 $255 25.85640600000049716 $253 $318 forward 7 unknown #
vertex $-1 $254 $319 #
straight-curve $-1 8.999999999999959144 -27.00000000000002132 39.99999999999992184 1 1.745740669421559972e-15 6.095220969744888913e-30 I I #
vertex $-1 $188 $320 #
straight-curve $-1 49.09999999999994458 -26.99999999999995737 42.36269307382989524 -0.4999999999999978906 -3.491481338843132961e-15 0.8660254037844398178 I I #
face $-1 $193 $321 $2 $-1 $322 forward single #
plane-surface $-1 52.99999999999992895 -26.99999999999992895 35.60769492431126082 -1.745740669421559972e-15 1 3.02371153627746015e-15 -0.8660254037844400399 0 -0.4999999999999980016 forward_v I I I I #
coedge $-1 $261 $261 $323 $324 forward $192 $-1 #
plane-surface $-1 94.9615242270664055 -45 82.92820299999988265 0.8660254037844400399 0 0.4999999999999980016 -1.745740669421559972e-15 1 3.02371153627746015e-15 forward_v I I I I #
coedge $-1 $325 $195 $326 $327 reversed $139 $-1 #
coedge $-1 $195 $270 $272 $328 forward $139 $-1 #
edge $-1 $329 -3.141592653589789563 $330 -1.570796326794893227 $195 $331 forward 7 unknown #
face $-1 $189 $237 $2 $-1 $332 forward single #
loop $-1 $-1 $316 $196 #
cone-surface $-1 42.99999999999997158 -45 52.92820300000006029 -0.8660254037844400399 0 -0.4999999999999980016 -8.999999999999964473 -6.284666409917633729e-14 15.58845726811992094 1 I I 0 1 18 forward I I I I #
coedge $-1 $333 $199 $226 $293 reversed $145 $-1 #
coedge $-1 $264 $334 $200 $271 forward $139 $-1 #
edge $-1 $335 -7.746957744305550181e-14 $273 89.99999999999992895 $270 $336 reversed 7 unknown #
coedge $-1 $201 $337 $264 $328 reversed $197 $-1 #
vertex $-1 $271 $338 #
straight-curve $-1 43 -89.99999999999990052 11.99999999999967315 -6.885732823805158576e-45 -3.491481338843132961e-15 1 I I #
straight-curve $-1 42.99999999999997868 8.881784197001257372e-14 -6.000000000000042633 -1.972152263052529163e-30 -1 -3.491481338843129411e-15 I I #
point $-1 42.99999999999997158 -81.99999999999994316 -6.000000000000047073 #
point $-1 42.99999999999998579 -89.99999999999997158 2.000000000000259792 #
edge $-1 $279 -27.51516504294491128 $247 4.484834642492732115 $208 $339 reversed 7 unknown #
vertex $-1 $210 $340 #
ellipse-curve $-1 53 -8.000000000000285993 2.000000000000007105 1.000000000000000222 -1.972152263052529514e-30 0 -2.793185071074504791e-14 -8.000000000000001776 2.793185071074507946e-14 1 I I #
point $-1 53 -8.000000000000257572 -5.999999999999996447 #
straight-curve $-1 53 -3.552713132866481669e-14 33.99999968543767892 -1.972152263052529514e-31 -1 -3.491481338843132961e-15 I I #
coedge $-1 $337 $215 $297 $341 reversed $197 $-1 #
edge $-1 $298 -0.785398163397448057 $216 0.7853981633974486121 $232 $342 forward 7 unknown #
point $-1 53.00000000000001421 -89.99999999999997158 33.99999968543736628 #
loop $-1 $-1 $312 $220 #
cone-surface $-1 -26.99999999999997158 -8.000000000000049738 30 0 1.183291357831517708e-30 1.000000000000000222 8.000000000000001776 -5.048709793414475555e-29 3.552713678800500929e-15 1 I I 0 1 8 forward I I I I #
coedge $-1 $343 $326 $290 $344 reversed $221 $-1 #
coedge $-1 $345 $223 $337 $346 reversed $161 $-1 #
coedge $-1 $223 $345 $288 $344 forward $161 $-1 #
straight-curve $-1 -35.00000000000001421 1.385558334732195362e-13 2.000000000000035527 1 -3.491481338843130594e-15 0 I I #
straight-curve $-1 -35.00000000000004263 -7.99999999999995115 -6.000000000000071054 1 -3.491481338843130594e-15 0 I I #
edge $-1 $335 -20.4848349570549928 $227 7.515165042944914831 $226 $347 reversed 7 unknown #
point $-1 42.99999999999998579 -1.337797109565446383e-13 2.000000000000035527 #
point $-1 42.99999999999997868 -8.000000000000223821 -6.000000000000070166 #
coedge $-1 $251 $233 $236 $301 reversed $141 $-1 #
coedge $-1 $233 $348 $283 $341 forward $141 $-1 #
vertex $-1 $234 $349 #
straight-curve $-1 46.99999968543767181 -5.647602046001211978e-14 40.00000000000001421 -1.972152263052529514e-31 -1 -3.491481338843132961e-15 I I #
coedge $-1 $236 $235 $350 $351 forward $237 $-1 #
edge $-1 $352 16.60769555343506454 $238 42.99999968543762918 $236 $353 reversed 7 unknown #
point $-1 46.99999968543767181 -62.99999999999994316 39.99999999999979394 #
coedge $-1 $253 $350 $240 $304 reversed $267 $-1 #
edge $-1 $257 -1.570796326794897002 $305 1.57079632679489678 $240 $354 forward 7 unknown #
vertex $-1 $304 $355 #
straight-curve $-1 44.10000000000002274 -62.99999999999999289 51.02294711167418484 0.4999999999999978906 3.491481338843132961e-15 -0.8660254037844398178 I I #
coedge $-1 $307 $307 $356 $357 forward $242 $-1 #
plane-surface $-1 45.19999999999998863 -44.99999999999998579 49.11769122334847282 0.8660254037844400399 0 0.4999999999999980016 -1.745740669421559972e-15 1 3.02371153627746015e-15 forward_v I I I I #
coedge $-1 $246 $333 $358 $359 reversed $145 $-1 #
point $-1 53 2.552598483839845124e-14 33.99999968543767892 #
coedge $-1 $348 $249 $343 $360 forward $141 $-1 #
coedge $-1 $358 $361 $249 $313 reversed $286 $-1 #
edge $-1 $314 1.57079632679489678 $362 3.141592653589793116 $249 $363 forward 7 unknown #
vertex $-1 $250 $364 #
straight-curve $-1 -3.734834957055088722 4.577095707051122909e-15 40.00000000000002132 1 -1.972152263052529514e-31 -6.885732823805153286e-46 I I #
coedge $-1 $350 $253 $251 $317 forward $267 $-1 #
edge $-1 $255 -1.570796326794897002 $352 1.570796326794895448 $316 $365 reversed 7 unknown #
straight-curve $-1 42.99999999999994316 -27 52.92820300000011002 -0.8660254037844399289 0 -0.4999999999999979461 I I #
point $-1 20.60769555343509651 -26.99999999999998934 39.99999999999992184 #
point $-1 42.99999999999994316 -27 52.92820300000011002 #
loop $-1 $366 $323 $259 #
cone-surface $-1 64.65063509461100466 -45 65.4282029999999537 0.8660254037844400399 0 0.4999999999999980016 -2.182175836776949827e-14 12.5 3.779639420346824872e-14 1 I I 0 1 12.5 forward I I I I #
coedge $-1 $323 $323 $261 $324 reversed $321 $-1 #
edge $-1 $367 1.167491913266259858e-15 $367 6.28318530717958712 $261 $368 forward 7 unknown #
coedge $-1 $334 $263 $369 $370 forward $139 $-1 #
coedge $-1 $288 $371 $263 $327 forward $221 $-1 #
edge $-1 $372 8.000000000000053291 $330 82.00000000000005684 $326 $373 forward 7 unknown #
edge $-1 $273 -39 $329 30.99999999999997513 $264 $374 forward 7 unknown #
vertex $-1 $328 $375 #
vertex $-1 $327 $376 #
ellipse-curve $-1 -26.99999999999998579 -82.00000000000005684 29.9999999999999396 0 3.4914813388431302e-15 -1.000000000000000222 -2.793185071074508577e-14 8.000000000000001776 -2.524354896707238338e-29 1 I I #
plane-surface $-1 43.00000000000002842 -63 52.9282029999999466 1.745740669421559972e-15 -1 -3.02371153627746015e-15 0.8660254037844400399 0 0.4999999999999980016 forward_v I I I I #
coedge $-1 $309 $269 $334 $377 reversed $145 $-1 #
coedge $-1 $270 $325 $333 $377 forward $139 $-1 #
vertex $-1 $377 $378 #
straight-curve $-1 42.99999999999998579 -3.797766834757278029e-14 29.99999999999994316 1.972152263052529163e-30 1 3.491481338843129411e-15 I I #
coedge $-1 $272 $283 $289 $346 forward $197 $-1 #
point $-1 42.99999999999998579 -89.99999999999997158 29.99999999999962341 #
straight-curve $-1 53.00000000000001421 4.118470130045904469e-14 29.5151650429449468 6.885732823805158576e-45 3.491481338843132961e-15 -1 I I #
point $-1 53.00000000000002842 -2.842170943040400743e-13 2.000000000000036859 #
edge $-1 $379 8.000000000000042633 $298 81.99999968543770024 $297 $380 forward 7 unknown #
ellipse-curve $-1 46.99999968543767181 -89.99999999999998579 33.99999968543736628 1.972152263052529514e-31 1 3.491481338843132961e-15 4.242640909548444306 -1.481310156310085657e-14 4.24264090954844697 1 I I #
coedge $-1 $371 $288 $311 $360 reversed $221 $-1 #
edge $-1 $381 -9.999999999999690914 $330 3.872457909892546013e-13 $288 $382 reversed 7 unknown #
coedge $-1 $290 $289 $348 $383 reversed $161 $-1 #
edge $-1 $379 -9.999999999999975131 $329 4.156675004196586087e-13 $337 $384 reversed 7 unknown #
straight-curve $-1 42.99999999999998579 1.110143280773216992e-13 9.515165042944950358 -6.885732823805158576e-45 -3.491481338843132961e-15 1 I I #
coedge $-1 $297 $311 $345 $383 forward $141 $-1 #
point $-1 46.99999968543767181 -90 39.99999999999970157 #
coedge $-1 $303 $316 $300 $351 reversed $267 $-1 #
edge $-1 $305 -0 $352 25.8564060000005469 $300 $385 forward 7 unknown #
vertex $-1 $351 $386 #
straight-curve $-1 4.000000000000040856 -63.00000000000002132 39.99999999999979394 -1 -1.745740669421559972e-15 -6.095220969744888913e-30 I I #
ellipse-curve $-1 42.99999999999997158 -45 52.92820300000006029 0.8660254037844400399 0 0.4999999999999980016 -8.999999999999964473 -6.284666409917633729e-14 15.58845726811992094 1 I I #
point $-1 43 -63.00000000000000711 52.92820300000000344 #
coedge $-1 $356 $356 $307 $357 reversed $366 $-1 #
edge $-1 $387 -3.141592653589799777 $387 3.141592653589786455 $307 $388 reversed 7 unknown #
coedge $-1 $369 $312 $309 $359 forward $286 $-1 #
edge $-1 $314 -10.00000000000002132 $389 3.197442310920450836e-14 $309 $390 reversed 7 unknown #
edge $-1 $362 8.000000000000049738 $381 82.00000000000005684 $311 $391 forward 7 unknown #
coedge $-1 $312 $369 $371 $392 reversed $286 $-1 #
vertex $-1 $392 $393 #
ellipse-curve $-1 -26.99999999999997158 -8.000000000000049738 40.00000000000001421 0 -3.4914813388431302e-15 1.000000000000000222 8.000000000000001776 -5.048709793414475555e-29 3.552713678800500929e-15 1 I I #
point $-1 -26.99999999999997158 3.907985046680552284e-14 40.00000000000002132 #
ellipse-curve $-1 20.60769555343511428 -45 39.99999999999985789 -0 3.4914813388431302e-15 -1.000000000000000222 -36.00000000000015632 -6.284666409917633729e-14 0 0.4999999999999980016 I I #
loop $-1 $-1 $356 $259 #
vertex $-1 $324 $394 #
ellipse-curve $-1 94.96152422706641971 -45 82.92820299999988265 0.8660254037844400399 0 0.4999999999999980016 -2.182175836776949827e-14 12.5 3.779639420346824872e-14 1 I I #
coedge $-1 $361 $358 $325 $370 reversed $286 $-1 #
edge $-1 $372 -3.141592653589793116 $389 -1.57079632679489678 $325 $395 forward 7 unknown #
coedge $-1 $326 $343 $361 $392 forward $221 $-1 #
vertex $-1 $392 $396 #
straight-curve $-1 -35.00000000000007105 3.552713678800690256e-15 29.9999999999999396 -1.972152263052529163e-30 -1 -3.491481338843129411e-15 I I #
straight-curve $-1 3.999999999999989342 -89.99999999999997158 29.99999999999962341 -1 1.972152263052529514e-31 6.885732823805153286e-46 I I #
point $-1 -26.99999999999998579 -89.99999999999997158 29.99999999999962341 #
point $-1 -35.00000000000005684 -82.00000000000005684 29.99999999999965183 #
edge $-1 $389 -62.26516504294490062 $335 7.734834957055056748 $334 $397 reversed 7 unknown #
point $-1 42.99999999999998579 3.949190909548272152e-14 29.99999999999994316 #
vertex $-1 $383 $398 #
straight-curve $-1 -35.00000000000002842 -90 39.99999999999970157 1 -1.972152263052529514e-31 -6.885732823805153286e-46 I I #
vertex $-1 $360 $399 #
straight-curve $-1 -35.00000000000005684 -82.00000000000005684 30.00000000000003908 0 1.183291357831517533e-30 1 I I #
edge $-1 $381 1.570796326794893227 $379 3.141592653589789563 $348 $400 forward 7 unknown #
straight-curve $-1 -26.99999999999998579 -89.99999999999997158 30.00000000000003908 0 1.183291357831517533e-30 1 I I #
straight-curve $-1 43 -63 52.92820300000000344 -0.8660254037844399289 0 -0.4999999999999979461 I I #
point $-1 20.60769555343510717 -62.99999999999999289 39.99999999999979394 #
vertex $-1 $357 $401 #
ellipse-curve $-1 42.99999999999999289 -45 52.92820299999999634 0.8660254037844400399 0 0.4999999999999980016 -2.182175836776949827e-14 12.5 3.779639420346824872e-14 1 I I #
vertex $-1 $370 $402 #
straight-curve $-1 -26.99999999999997158 3.907985046680551022e-14 30 0 1.183291357831517533e-30 1 I I #
straight-curve $-1 -35.00000000000005684 3.061616997868252486e-16 40.00000000000001421 -1.972152263052529163e-30 -1 -3.491481338843129411e-15 I I #
edge $-1 $362 -9.999999999999985789 $372 8.881784197001252323e-14 $371 $403 reversed 7 unknown #
point $-1 -35.00000000000005684 -8.000000000000049738 39.99999999999998579 #
point $-1 94.96152422706637708 -32.5 82.92820299999992528 #
ellipse-curve $-1 -26.99999999999997158 -8.000000000000049738 29.9999999999999396 0 3.4914813388431302e-15 -1.000000000000000222 8.000000000000001776 -5.048709793414475555e-29 3.552713678800500929e-15 1 I I #
point $-1 -35.00000000000007105 -8.000000000000049738 29.99999999999991118 #
straight-curve $-1 35.26516504294492904 3.949190909548273414e-14 29.9999999999999396 -1 1.972152263052529514e-31 6.885732823805153286e-46 I I #
point $-1 -26.99999999999998579 -90.00000000000005684 40.00000000000001421 #
point $-1 -35.00000000000005684 -82.00000000000005684 39.99999999999972999 #
ellipse-curve $-1 -26.99999999999998579 -82.00000000000005684 40.00000000000001421 0 -3.4914813388431302e-15 1.000000000000000222 -2.793185071074508577e-14 8.000000000000001776 -2.524354896707238338e-29 1 I I #
point $-1 43.00000000000006395 -57.5 52.92820299999988976 #
point $-1 -26.99999999999997158 -4.618527782440651208e-14 29.99999999999996803 #
straight-curve $-1 -35.00000000000005684 -8.000000000000049738 30 0 1.183291357831517533e-30 1 I I #
End-of-ACIS-data 