104 162 0 0                             
body $-1 $1 $-1 $2 #
lump $-1 $-1 $3 $0 #
transform $-1 -3.49148133884313e-15 1 0 -1 -3.49148133884313e-15 0 0 0 1 25 0 20 1 1 0 0 #
shell $-1 $-1 $-1 $4 $1 #
face $-1 $5 $6 $3 $-1 $7 1 #
face $-1 $8 $9 $3 $-1 $10 0 #
loop $-1 $-1 $11 $4 #
plane-surface $-1 75 0 0 -1 0 0 0 0 1 0 #
face $-1 $12 $13 $3 $-1 $14 1 #
loop $-1 $-1 $15 $5 #
plane-surface $-1 0 0 62.5 0 0 1 1 0 0 0 #
coedge $-1 $16 $17 $18 $19 0 $6 $-1 #
face $-1 $20 $21 $3 $-1 $22 1 #
loop $-1 $-1 $23 $8 #
plane-surface $-1 74.2462120245874 2.09035332725488e-15 26.8198051533948 -0.707106781186546 -1.02263120776087e-15 -0.707106781186549 -0.707106781186549 2.46885013108227e-15 0.707106781186546 0 #
coedge $-1 $24 $25 $23 $26 0 $9 $-1 #
coedge $-1 $27 $11 $28 $29 0 $6 $-1 #
coedge $-1 $11 $27 $30 $31 0 $6 $-1 #
coedge $-1 $32 $33 $11 $19 1 $34 $-1 #
edge $-1 $35 $36 $18 $37 0 #
face $-1 $38 $39 $3 $-1 $40 0 #
loop $-1 $-1 $30 $12 #
plane-surface $-1 0 50 0 0 -1 0 0 0 -1 0 #
coedge $-1 $41 $42 $15 $26 1 $13 $-1 #
coedge $-1 $43 $15 $44 $45 0 $9 $-1 #
coedge $-1 $15 $43 $46 $47 0 $9 $-1 #
edge $-1 $48 $49 $23 $50 0 #
coedge $-1 $17 $16 $51 $52 1 $6 $-1 #
coedge $-1 $53 $54 $16 $29 1 $55 $-1 #
edge $-1 $36 $56 $28 $57 0 #
coedge $-1 $58 $59 $17 $31 1 $21 $-1 #
edge $-1 $60 $35 $30 $61 0 #
coedge $-1 $62 $18 $59 $63 1 $34 $-1 #
coedge $-1 $18 $62 $53 $64 1 $34 $-1 #
loop $-1 $-1 $18 $65 #
vertex $-1 $63 $66 #
vertex $-1 $64 $67 #
straight-curve $-1 75 8.66140967121845e-14 54.9999999999999 0 -1 3.49148133884315e-15 #
face $-1 $68 $69 $3 $-1 $70 1 #
loop $-1 $-1 $71 $20 #
plane-surface $-1 -22.9809703885628 7.96961459378314e-14 17.9809703885628 -0.707106781186549 2.46885013108227e-15 0.707106781186546 0.707106781186546 1.02263120776087e-15 0.707106781186549 0 #
coedge $-1 $72 $23 $73 $74 1 $13 $-1 #
coedge $-1 $23 $72 $75 $76 1 $13 $-1 #
coedge $-1 $25 $24 $71 $77 0 $9 $-1 #
coedge $-1 $75 $78 $24 $45 1 $21 $-1 #
edge $-1 $49 $79 $44 $80 0 #
coedge $-1 $81 $73 $25 $47 1 $55 $-1 #
edge $-1 $82 $48 $46 $83 0 #
vertex $-1 $47 $84 #
vertex $-1 $45 $85 #
straight-curve $-1 38.5660171779821 3.13194209611769e-15 62.5 -1.44621892332141e-15 1 0 #
coedge $-1 $86 $87 $27 $52 0 $69 $-1 #
edge $-1 $60 $56 $27 $88 0 #
coedge $-1 $73 $28 $33 $64 0 $55 $-1 #
coedge $-1 $28 $89 $86 $90 1 $55 $-1 #
loop $-1 $-1 $28 $68 #
vertex $-1 $90 $91 #
straight-curve $-1 75 -50 0 -0 0 -1 #
coedge $-1 $92 $30 $87 $93 1 $21 $-1 #
coedge $-1 $30 $75 $32 $63 0 $21 $-1 #
vertex $-1 $93 $94 #
straight-curve $-1 75 50 0 0 0 1 #
coedge $-1 $33 $32 $72 $95 0 $34 $-1 #
edge $-1 $96 $35 $32 $97 0 #
edge $-1 $36 $98 $33 $99 1 #
face $-1 $-1 $34 $3 $-1 $100 1 #
point $-1 75 50 54.9999999999997 #
point $-1 75 -50 55.0000000000001 #
face $-1 $101 $55 $3 $-1 $102 1 #
loop $-1 $-1 $86 $38 #
plane-surface $-1 0 0 -62.5 0 0 1 1 0 0 0 #
coedge $-1 $103 $104 $43 $77 1 $39 $-1 #
coedge $-1 $42 $41 $62 $95 1 $13 $-1 #
coedge $-1 $46 $53 $41 $74 0 $55 $-1 #
edge $-1 $98 $48 $41 $105 1 #
coedge $-1 $59 $44 $42 $76 0 $21 $-1 #
edge $-1 $49 $96 $42 $106 0 #
edge $-1 $79 $82 $71 $107 0 #
coedge $-1 $44 $108 $103 $109 0 $21 $-1 #
vertex $-1 $77 $110 #
straight-curve $-1 0 50 62.5 -1 0 0 #
coedge $-1 $111 $46 $104 $112 0 $55 $-1 #
vertex $-1 $112 $113 #
straight-curve $-1 0 -50 62.5 1 -0 0 #
point $-1 38.5660171779821 -50 62.5 #
point $-1 38.566017177982 50 62.5 #
coedge $-1 $114 $51 $54 $90 0 $69 $-1 #
coedge $-1 $51 $114 $58 $93 0 $69 $-1 #
straight-curve $-1 75 0 -62.5 0 -1 0 #
coedge $-1 $54 $111 $115 $116 0 $55 $-1 #
edge $-1 $56 $117 $54 $118 0 #
point $-1 75 -50 -62.5 #
coedge $-1 $108 $58 $119 $120 1 $21 $-1 #
edge $-1 $121 $60 $58 $122 0 #
point $-1 75 50 -62.5 #
edge $-1 $96 $98 $62 $123 0 #
vertex $-1 $63 $124 #
straight-curve $-1 79.9999999999999 50 54.9999999999998 1 -3.49148133884313e-15 3.49148133884313e-15 #
vertex $-1 $74 $125 #
straight-curve $-1 79.9999999999996 -50 55.0000000000001 1 -3.49148133884313e-15 3.49148133884313e-15 #
plane-surface $-1 79.9999999999997 -1.88032802120037e-14 54.9999999999999 3.49148133884312e-15 -3.49148133884315e-15 -1 -1 3.49148133884313e-15 -3.49148133884313e-15 0 #
face $-1 $126 $127 $3 $-1 $128 1 #
plane-surface $-1 0 -50 0 0 1 -0 -0 0 1 0 #
coedge $-1 $129 $71 $78 $109 1 $39 $-1 #
coedge $-1 $71 $129 $81 $112 1 $39 $-1 #
straight-curve $-1 74.2462120245874 -50 26.8198051533949 0.707106781186549 -2.46885013108227e-15 -0.707106781186546 #
straight-curve $-1 74.2462120245875 50 26.8198051533946 0.707106781186549 -2.46885013108227e-15 -0.707106781186546 #
straight-curve $-1 21.5380592228743 -7.54704735127349e-14 62.5 -3.49148133884313e-15 -1 0 #
coedge $-1 $78 $92 $130 $131 0 $21 $-1 #
edge $-1 $132 $79 $78 $133 1 #
point $-1 21.5380592228744 50 62.5 #
coedge $-1 $89 $81 $134 $135 0 $55 $-1 #
edge $-1 $82 $136 $81 $137 1 #
point $-1 21.5380592228741 -50 62.5 #
coedge $-1 $87 $86 $138 $139 0 $69 $-1 #
coedge $-1 $140 $138 $89 $116 1 $127 $-1 #
edge $-1 $141 $117 $115 $142 0 #
vertex $-1 $139 $143 #
straight-curve $-1 0 -50 -62.5 -1 0 0 #
coedge $-1 $138 $140 $92 $120 0 $127 $-1 #
edge $-1 $144 $121 $92 $145 0 #
vertex $-1 $93 $146 #
straight-curve $-1 0 50 -62.5 1 0 0 #
straight-curve $-1 46.0660171779823 1.04358745301905e-13 54.9999999999998 -2.04526241552175e-15 -1 3.49148133884314e-15 #
point $-1 46.0660171779824 50.0000000000001 54.9999999999996 #
point $-1 46.0660171779822 -49.9999999999999 55 #
face $-1 $65 $147 $3 $-1 $148 0 #
loop $-1 $-1 $115 $101 #
plane-surface $-1 -75 0 0 1 0 0 0 0 -1 0 #
coedge $-1 $104 $103 $149 $150 1 $39 $-1 #
coedge $-1 $151 $149 $108 $131 1 $147 $-1 #
edge $-1 $144 $132 $108 $152 1 #
vertex $-1 $109 $153 #
straight-curve $-1 -22.9809703885628 50.0000000000001 17.9809703885626 -0.707106781186546 -1.02263120776087e-15 -0.707106781186549 #
coedge $-1 $149 $151 $111 $135 1 $147 $-1 #
edge $-1 $136 $141 $111 $154 1 #
vertex $-1 $135 $155 #
straight-curve $-1 -22.9809703885629 -49.9999999999999 17.9809703885629 0.707106781186546 1.02263120776087e-15 0.707106781186549 #
coedge $-1 $115 $119 $114 $139 1 $127 $-1 #
edge $-1 $117 $121 $138 $156 0 #
coedge $-1 $119 $115 $151 $157 0 $127 $-1 #
vertex $-1 $135 $158 #
straight-curve $-1 -75 -50 0 0 0 -1 #
point $-1 -75 -50 -62.5 #
vertex $-1 $157 $159 #
straight-curve $-1 -75 50 0 0 0 -1 #
point $-1 -75 50 -62.5 #
loop $-1 $-1 $149 $126 #
plane-surface $-1 0 0 -5 0 0 1 1 0 0 0 #
coedge $-1 $130 $134 $129 $150 0 $147 $-1 #
edge $-1 $136 $132 $149 $160 0 #
coedge $-1 $134 $130 $140 $157 1 $147 $-1 #
straight-curve $-1 0 50 -5 -1 0 0 #
point $-1 -45.9619407771253 50 -5 #
straight-curve $-1 0 -50 -5 1 -0 0 #
point $-1 -45.9619407771257 -50 -5 #
straight-curve $-1 -75 0 -62.5 0 1 0 #
edge $-1 $141 $144 $140 $161 1 #
point $-1 -75 -50 -5 #
point $-1 -75 50 -5 #
straight-curve $-1 -45.9619407771255 1.60204516859176e-13 -5 3.49148133884313e-15 1 -0 #
straight-curve $-1 -75 0 -5 0 -1 0 #
