600 0 1 0           
69 GICL ACIS Healer - Source: /gicl/data5/repository/new/cami2.sat - 6 0 18 ACIS 6.0.3 Solaris 24 Sat Apr 13 20:07:25 2002 
1 9.999999999999999547e-07 1.000000000000000036e-10 
body $-1 $1 $-1 $-1 #
lump $-1 $-1 $2 $0 #
shell $-1 $-1 $-1 $3 $-1 $1 #
face $-1 $4 $5 $2 $-1 $6 reversed single #
face $-1 $7 $8 $2 $-1 $9 reversed single #
loop $-1 $-1 $10 $3 #
cone-surface $-1 28 -45.67766999999999911 -5 0 0 1 0 -9 0 1 I I 0 1 9 forward I I I I #
face $-1 $11 $12 $2 $-1 $13 reversed single #
loop $-1 $-1 $14 $4 #
plane-surface $-1 19 -45.67766999999999911 -5 -1 0 0 0 0 1 forward_v I I I I #
coedge $-1 $15 $16 $17 $18 reversed $5 $-1 #
face $-1 $19 $20 $2 $-1 $21 reversed single #
loop $-1 $-1 $22 $7 #
cone-surface $-1 28 -27.67766999999999911 -5 0 0 1 0 9 0 1 I I 0 1 9 forward I I I I #
coedge $-1 $23 $24 $25 $26 reversed $8 $-1 #
coedge $-1 $27 $10 $28 $29 reversed $5 $-1 #
coedge $-1 $10 $27 $23 $30 forward $5 $-1 #
coedge $-1 $25 $31 $10 $18 forward $32 $-1 #
edge $-1 $33 -1.570796326794896558 $34 1.570796326794896558 $17 $35 forward 7 unknown #
face $-1 $36 $37 $2 $-1 $38 forward single #
loop $-1 $-1 $39 $11 #
plane-surface $-1 37 -27.67766999999999911 -5 1 0 0 0 0 -1 forward_v I I I I #
coedge $-1 $40 $41 $42 $43 reversed $12 $-1 #
coedge $-1 $44 $14 $16 $30 reversed $8 $-1 #
coedge $-1 $14 $44 $40 $45 forward $8 $-1 #
coedge $-1 $42 $17 $14 $26 forward $32 $-1 #
edge $-1 $34 -26.83883499999999955 $46 -8.838834999999999553 $25 $47 forward 7 unknown #
coedge $-1 $16 $15 $48 $49 reversed $5 $-1 #
coedge $-1 $39 $50 $15 $29 forward $20 $-1 #
edge $-1 $51 0 $33 10 $15 $52 forward 7 unknown #
edge $-1 $53 0 $34 10 $23 $54 forward 7 unknown #
coedge $-1 $17 $42 $39 $55 forward $32 $-1 #
loop $-1 $56 $42 $36 #
vertex $-1 $55 $57 #
vertex $-1 $18 $58 #
ellipse-curve $-1 28 -45.67766999999999911 5 -0 -0 -1 0 -9 0 1 I I #
face $-1 $59 $32 $2 $-1 $60 forward single #
loop $-1 $-1 $61 $19 #
plane-surface $-1 28 -36.67766999999999911 -5 0 0 1 1 0 0 forward_v I I I I #
coedge $-1 $62 $28 $31 $55 reversed $20 $-1 #
coedge $-1 $63 $22 $24 $45 reversed $12 $-1 #
coedge $-1 $22 $63 $62 $64 forward $12 $-1 #
coedge $-1 $31 $25 $22 $43 forward $32 $-1 #
edge $-1 $46 -1.570796326794896558 $65 1.570796326794896558 $42 $66 forward 7 unknown #
coedge $-1 $24 $23 $61 $67 reversed $8 $-1 #
edge $-1 $68 0 $46 10 $40 $69 forward 7 unknown #
vertex $-1 $43 $70 #
straight-curve $-1 19 -18.83883499999999955 5 0 1 -0 I I #
coedge $-1 $71 $61 $27 $49 forward $37 $-1 #
edge $-1 $53 -1.570796326794896558 $51 1.570796326794896558 $27 $72 forward 7 unknown #
coedge $-1 $28 $62 $71 $73 reversed $20 $-1 #
vertex $-1 $49 $74 #
straight-curve $-1 37 -45.67766999999999911 -5 0 0 1 I I #
vertex $-1 $67 $75 #
straight-curve $-1 19 -45.67766999999999911 -5 0 0 1 I I #
edge $-1 $65 17.83883499999999955 $33 35.83883500000000311 $31 $76 forward 7 unknown #
loop $-1 $-1 $77 $36 #
point $-1 37 -45.67766999999999911 5 #
point $-1 19 -45.67766999999999911 5 #
face $-1 $78 $79 $2 $-1 $80 forward single #
plane-surface $-1 7 8 5 0 0 1 1 0 0 forward_v I I I I #
coedge $-1 $48 $81 $44 $67 forward $37 $-1 #
coedge $-1 $50 $39 $41 $64 reversed $20 $-1 #
coedge $-1 $41 $40 $81 $82 reversed $12 $-1 #
edge $-1 $83 0 $65 10 $62 $84 forward 7 unknown #
vertex $-1 $43 $85 #
ellipse-curve $-1 28 -27.67766999999999911 5 -0 -0 -1 0 9 0 1 I I #
edge $-1 $68 0 $53 18 $44 $86 forward 7 unknown #
vertex $-1 $67 $87 #
straight-curve $-1 19 -27.67766999999999911 -5 0 0 1 I I #
point $-1 19 -27.67766999999999911 5 #
coedge $-1 $81 $48 $50 $73 forward $37 $-1 #
ellipse-curve $-1 28 -45.67766999999999911 -5 0 0 1 0 -9 0 1 I I #
edge $-1 $51 0 $83 18 $50 $88 forward 7 unknown #
point $-1 37 -45.67766999999999911 -5 #
point $-1 19 -45.67766999999999911 -5 #
straight-curve $-1 37 -9.838834999999999553 5 0 -1 0 I I #
coedge $-1 $89 $90 $91 $92 reversed $56 $-1 #
face $-1 $93 $94 $2 $-1 $95 forward single #
loop $-1 $-1 $96 $59 #
plane-surface $-1 7 -45.67766999999999911 0 -1 0 0 0 0 1 forward_v I I I I #
coedge $-1 $61 $71 $63 $82 forward $37 $-1 #
edge $-1 $83 -1.570796326794896558 $68 1.570796326794896558 $63 $97 forward 7 unknown #
vertex $-1 $73 $98 #
straight-curve $-1 37 -27.67766999999999911 -5 0 0 1 I I #
point $-1 37 -27.67766999999999911 5 #
straight-curve $-1 19 -27.67766999999999911 -5 0 -1 0 I I #
point $-1 19 -27.67766999999999911 -5 #
straight-curve $-1 37 -45.67766999999999911 -5 0 1 0 I I #
coedge $-1 $99 $77 $100 $101 reversed $56 $-1 #
coedge $-1 $77 $99 $102 $103 reversed $56 $-1 #
coedge $-1 $104 $105 $77 $92 forward $106 $-1 #
edge $-1 $107 -10.5 $108 31.5 $91 $109 forward 7 unknown #
face $-1 $110 $111 $2 $-1 $112 forward single #
loop $-1 $-1 $113 $78 #
plane-surface $-1 49 8 0 1 0 0 0 0 -1 forward_v I I I I #
coedge $-1 $114 $100 $105 $115 reversed $79 $-1 #
ellipse-curve $-1 28 -27.67766999999999911 -5 0 0 1 0 9 0 1 I I #
point $-1 37 -27.67766999999999911 -5 #
coedge $-1 $90 $89 $116 $117 reversed $56 $-1 #
coedge $-1 $96 $118 $89 $101 forward $79 $-1 #
edge $-1 $119 -53.67766999999999911 $107 -20.67766999999999911 $100 $120 forward 7 unknown #
coedge $-1 $121 $113 $90 $103 forward $94 $-1 #
edge $-1 $108 -33 $122 -0 $102 $123 forward 7 unknown #
coedge $-1 $124 $91 $113 $125 forward $106 $-1 #
coedge $-1 $91 $126 $96 $115 forward $106 $-1 #
loop $-1 $-1 $104 $127 #
vertex $-1 $115 $128 #
vertex $-1 $125 $129 #
straight-curve $-1 17.5 -12.67767000000000088 5 1 0 -0 I I #
face $-1 $130 $131 $2 $-1 $132 forward single #
loop $-1 $-1 $116 $93 #
cone-surface $-1 28 -45.67767000000009858 0 0 0 1 0 -21 0 1 I I 0 1 21 forward I I I I #
coedge $-1 $102 $133 $104 $125 reversed $94 $-1 #
coedge $-1 $118 $96 $134 $135 reversed $79 $-1 #
edge $-1 $136 -3.902705563388374266 $107 3.168362248477099463 $105 $137 forward 7 unknown #
coedge $-1 $138 $139 $99 $117 forward $111 $-1 #
edge $-1 $122 -1.570796326794901443 $119 1.570796326794901443 $116 $140 forward 7 unknown #
coedge $-1 $100 $114 $138 $141 forward $79 $-1 #
vertex $-1 $141 $142 #
straight-curve $-1 7 8 5 0 1 0 I I #
coedge $-1 $133 $102 $139 $143 reversed $94 $-1 #
vertex $-1 $143 $144 #
straight-curve $-1 49 -45.67766999999999911 5 -0 -1 -0 I I #
coedge $-1 $145 $104 $146 $147 reversed $106 $-1 #
edge $-1 $108 15.80955997916971967 $148 22.88062779103519162 $104 $149 forward 7 unknown #
coedge $-1 $105 $150 $151 $152 reversed $106 $-1 #
face $-1 $153 $106 $2 $-1 $154 forward single #
point $-1 7 -12.67767000000000088 5 #
point $-1 49 -12.67767000000000088 5 #
face $-1 $155 $156 $2 $-1 $157 forward single #
loop $-1 $-1 $158 $110 #
plane-surface $-1 28 -53.31891267177979898 0 0 0 1 1 0 0 forward_v I I I I #
coedge $-1 $113 $121 $158 $159 reversed $94 $-1 #
coedge $-1 $151 $160 $114 $135 forward $131 $-1 #
edge $-1 $161 3.820621335889903492 $136 31.82062133588990349 $134 $162 forward 7 unknown #
vertex $-1 $115 $163 #
straight-curve $-1 7 -14.91804043115359946 2.759629568846369896 0 0.7071067811865460184 0.707106781186549016 I I #
coedge $-1 $164 $116 $118 $141 reversed $111 $-1 #
coedge $-1 $116 $164 $121 $143 forward $111 $-1 #
ellipse-curve $-1 28 -45.67767000000009858 5 -0 -0 -1 0 -21 0 1 I I #
edge $-1 $161 0 $119 5 $118 $165 forward 7 unknown #
point $-1 7 -45.67766999999999911 5 #
edge $-1 $166 0 $122 5 $139 $167 forward 7 unknown #
point $-1 49 -45.67766999999999911 5 #
coedge $-1 $168 $124 $169 $170 forward $106 $-1 #
coedge $-1 $158 $171 $124 $147 forward $131 $-1 #
edge $-1 $172 -42 $148 -35 $146 $173 forward 7 unknown #
vertex $-1 $147 $174 #
straight-curve $-1 49 -1.49862293115368006 16.1790470688464012 0 -0.7071067811865460184 -0.707106781186549016 I I #
coedge $-1 $126 $168 $175 $176 forward $106 $-1 #
coedge $-1 $177 $134 $126 $152 forward $131 $-1 #
edge $-1 $136 7 $178 14 $151 $173 forward 7 unknown #
face $-1 $179 $180 $2 $-1 $181 forward single #
plane-surface $-1 28 1.841589137692680067 19.51925913769269982 0 -0.707106781186549016 0.7071067811865460184 1 0 0 forward_v I I I I #
face $-1 $182 $183 $2 $-1 $184 forward single #
loop $-1 $185 $186 $130 #
cone-surface $-1 28 43.16116459272129902 43.16116506305780121 0 -0.707106781186549016 0.7071067811865460184 25 0 0 1 I I 0 1 25 forward I I I I #
coedge $-1 $160 $146 $133 $159 forward $131 $-1 #
edge $-1 $148 -4.981786335889900386 $166 23.01821366411009961 $158 $187 forward 7 unknown #
coedge $-1 $134 $158 $164 $188 forward $131 $-1 #
vertex $-1 $188 $189 #
straight-curve $-1 7 -49.4982913358899026 0 0 1 -0 I I #
point $-1 7 -17.67766999999999911 0 #
coedge $-1 $139 $138 $160 $188 reversed $111 $-1 #
straight-curve $-1 7 -45.67766999999999911 0 0 0 1 I I #
vertex $-1 $159 $190 #
straight-curve $-1 49 -45.67766999999999911 0 0 0 1 I I #
coedge $-1 $150 $145 $191 $192 forward $106 $-1 #
coedge $-1 $193 $194 $145 $170 reversed $180 $-1 #
edge $-1 $172 0 $195 56.29397674951740527 $145 $196 forward 7 unknown #
coedge $-1 $146 $197 $198 $199 forward $131 $-1 #
vertex $-1 $199 $200 #
straight-curve $-1 14 -17.67766999999999911 0 -1 0 0 I I #
point $-1 49 -17.67766999999999911 0 #
coedge $-1 $201 $202 $150 $176 reversed $203 $-1 #
edge $-1 $204 -0 $178 56.29397674951740527 $150 $205 forward 7 unknown #
coedge $-1 $206 $151 $207 $208 forward $131 $-1 #
vertex $-1 $152 $209 #
face $-1 $210 $203 $2 $-1 $211 forward single #
loop $-1 $-1 $212 $153 #
plane-surface $-1 56 -17.67766999999999911 0 0.9807230753239210008 0.1381706364014989863 0.1381706364015000132 0 0.707106781186549016 -0.7071067811865460184 forward_v I I I I #
face $-1 $213 $214 $2 $-1 $184 forward single #
loop $-1 $-1 $215 $155 #
plane-surface $-1 28 35.73654339026249716 57.65685407738200041 0 -0.7071067811865460184 -0.707106781186549016 0 0.707106781186549016 -0.7071067811865460184 forward_v I I I I #
loop $-1 $216 $217 $130 #
coedge $-1 $186 $186 $218 $219 reversed $156 $-1 #
straight-curve $-1 49 -22.65945633588989949 0 0 -1 0 I I #
edge $-1 $166 -1.570796326794901443 $161 1.570796326794901443 $160 $220 forward 7 unknown #
point $-1 7 -45.67766999999999911 0 #
point $-1 49 -45.67766999999999911 0 #
coedge $-1 $221 $222 $168 $192 reversed $216 $-1 #
edge $-1 $195 0.823033698123779911 $204 2.318558955466013316 $168 $223 forward 7 unknown #
coedge $-1 $212 $169 $224 $225 reversed $180 $-1 #
coedge $-1 $169 $212 $221 $226 forward $180 $-1 #
vertex $-1 $170 $227 #
straight-curve $-1 56 -17.67766999999999911 0 -0.1954027879207219931 0.693475937027668965 0.6934759370276709634 I I #
coedge $-1 $171 $228 $229 $230 forward $131 $-1 #
coedge $-1 $231 $224 $171 $199 reversed $232 $-1 #
edge $-1 $233 0 $172 50.00000000000000711 $171 $234 forward 7 unknown #
point $-1 56 -17.67766999999999911 0 #
coedge $-1 $235 $175 $222 $236 forward $203 $-1 #
coedge $-1 $175 $235 $237 $238 reversed $203 $-1 #
loop $-1 $-1 $235 $179 #
vertex $-1 $192 $239 #
straight-curve $-1 11 21.36084827538540054 39.03851827538549912 -0.1954027879207219931 -0.693475937027668965 -0.6934759370276709634 I I #
coedge $-1 $228 $177 $240 $241 forward $131 $-1 #
coedge $-1 $237 $242 $177 $208 reversed $243 $-1 #
edge $-1 $178 17.67766999999999911 $244 67.67767000000000621 $177 $245 forward 7 unknown #
point $-1 0 -17.67766999999999911 0 #
face $-1 $246 $247 $2 $-1 $248 reversed single #
plane-surface $-1 11 21.36084827538540054 39.03851827538549912 -0.9807230753239210008 0.1381706364014989863 0.1381706364015000132 0 -0.707106781186549016 0.7071067811865460184 forward_v I I I I #
coedge $-1 $194 $193 $249 $250 forward $180 $-1 #
face $-1 $251 $252 $2 $-1 $253 forward single #
loop $-1 $-1 $254 $182 #
coedge $-1 $255 $256 $257 $258 reversed $183 $-1 #
loop $-1 $-1 $222 $130 #
coedge $-1 $259 $260 $261 $262 forward $185 $-1 #
coedge $-1 $218 $218 $186 $219 forward $263 $-1 #
edge $-1 $264 0 $264 6.283185307179586232 $218 $265 forward 7 unknown #
ellipse-curve $-1 28 -45.67767000000009858 0 -0 -0 -1 0 -21 0 1 I I #
coedge $-1 $266 $191 $194 $226 reversed $216 $-1 #
coedge $-1 $191 $266 $201 $236 reversed $216 $-1 #
ellipse-curve $-1 28 34.32232982788949727 51.99999982788960295 -0 0.707106781186549016 -0.7071067811865460184 25 0 0 1 I I #
coedge $-1 $198 $267 $193 $225 forward $232 $-1 #
edge $-1 $268 -42.67767019481961199 $172 -17.67766952966368876 $224 $269 forward 7 unknown #
edge $-1 $270 -25.00000000000002132 $195 -0 $194 $271 reversed 7 unknown #
point $-1 45 21.36084827538540054 39.03851827538549912 #
coedge $-1 $197 $206 $272 $273 forward $131 $-1 #
coedge $-1 $274 $275 $197 $230 reversed $276 $-1 #
edge $-1 $277 -0.785398163397448279 $233 0.785398163397448279 $197 $278 forward 7 unknown #
coedge $-1 $279 $198 $275 $280 forward $232 $-1 #
loop $-1 $-1 $224 $281 #
vertex $-1 $230 $282 #
straight-curve $-1 56 -67.67767000000000621 0 0 1 0 I I #
coedge $-1 $202 $201 $283 $284 forward $203 $-1 #
edge $-1 $204 0 $285 25.00000000000002132 $201 $286 forward 7 unknown #
coedge $-1 $287 $207 $202 $238 forward $243 $-1 #
edge $-1 $178 -6.250000166288997683 $288 18.75000049886692111 $237 $289 forward 7 unknown #
point $-1 11 21.36084827538540054 39.03851827538549912 #
coedge $-1 $290 $291 $206 $241 reversed $292 $-1 #
edge $-1 $244 -0.785398163397448279 $293 0.7853981633974499443 $206 $294 forward 7 unknown #
coedge $-1 $207 $295 $290 $296 reversed $243 $-1 #
loop $-1 $-1 $237 $246 #
vertex $-1 $208 $297 #
straight-curve $-1 0 0 0 0 -1 0 I I #
face $-1 $298 $243 $2 $-1 $299 forward single #
loop $-1 $-1 $300 $210 #
plane-surface $-1 56 -4.703362783686769795e-07 -17.67766952966369942 0 -0.707106781186549016 0.7071067811865460184 1 0 0 forward_v I I I I #
coedge $-1 $301 $300 $212 $250 reversed $247 $-1 #
edge $-1 $268 5.420187080534668738e-14 $270 56.29397674951738395 $212 $302 forward 7 unknown #
face $-1 $303 $304 $2 $-1 $305 forward single #
loop $-1 $-1 $306 $213 #
plane-surface $-1 28 28.66547557839709981 50.58578626551649648 0 0.7071067811865460184 0.707106781186549016 0 -0.707106781186549016 0.7071067811865460184 forward_v I I I I #
coedge $-1 $307 $308 $309 $310 reversed $214 $-1 #
coedge $-1 $311 $215 $312 $313 reversed $183 $-1 #
coedge $-1 $215 $311 $314 $315 forward $183 $-1 #
coedge $-1 $316 $317 $215 $258 forward $318 $-1 #
edge $-1 $319 -16.50000000000002132 $320 -10.5 $257 $321 forward 7 unknown #
coedge $-1 $322 $217 $323 $324 reversed $185 $-1 #
coedge $-1 $217 $325 $326 $327 forward $185 $-1 #
coedge $-1 $328 $329 $217 $262 reversed $330 $-1 #
edge $-1 $331 10.5 $332 16.50000000000002132 $217 $333 forward 7 unknown #
loop $-1 $-1 $218 $334 #
vertex $-1 $219 $335 #
ellipse-curve $-1 28 54.82842648229939897 31.49390317347980073 0 0.707106781186549016 -0.7071067811865460184 25 0 0 1 I I #
coedge $-1 $222 $221 $300 $336 reversed $216 $-1 #
coedge $-1 $224 $279 $337 $338 reversed $232 $-1 #
vertex $-1 $225 $339 #
straight-curve $-1 56 -30.17766999999999911 12.5 0 -0.707106781186549016 0.7071067811865460184 I I #
vertex $-1 $226 $340 #
straight-curve $-1 45 21.36084827538540054 39.03851827538549912 0 0.707106781186549016 -0.7071067811865460184 I I #
coedge $-1 $341 $342 $228 $273 reversed $343 $-1 #
edge $-1 $293 0 $277 44 $228 $344 forward 7 unknown #
coedge $-1 $345 $229 $342 $346 forward $276 $-1 #
coedge $-1 $229 $345 $231 $280 reversed $276 $-1 #
loop $-1 $-1 $345 $347 #
vertex $-1 $273 $348 #
ellipse-curve $-1 50 -67.67767000000000621 0 0 0 1 4.242640687119280329 -4.242640687119280329 0 1 I I #
coedge $-1 $267 $231 $349 $350 forward $232 $-1 #
edge $-1 $233 0 $351 25 $231 $352 forward 7 unknown #
face $-1 $353 $232 $2 $-1 $354 forward single #
point $-1 56 -67.67767000000000621 0 #
coedge $-1 $300 $301 $235 $284 reversed $247 $-1 #
edge $-1 $285 -0 $288 56.29397674951734132 $235 $355 forward 7 unknown #
vertex $-1 $236 $356 #
straight-curve $-1 11 21.36084827538540054 39.03851827538549912 0 0.707106781186549016 -0.7071067811865460184 I I #
coedge $-1 $295 $237 $357 $358 forward $243 $-1 #
vertex $-1 $359 $360 #
straight-curve $-1 0 -13.25825249999999933 -4.419417499999999777 0 0.707106781186549016 -0.7071067811865460184 I I #
coedge $-1 $361 $240 $242 $296 forward $292 $-1 #
coedge $-1 $240 $361 $341 $362 reversed $292 $-1 #
loop $-1 $-1 $361 $363 #
vertex $-1 $241 $364 #
ellipse-curve $-1 5.99999999999999023 -67.67767000000000621 0 0 0 1 -4.242640687119280329 -4.242640687119280329 0 1 I I #
coedge $-1 $242 $287 $365 $366 forward $243 $-1 #
edge $-1 $244 0 $367 25 $290 $368 forward 7 unknown #
point $-1 0 -67.67767000000000621 0 #
face $-1 $369 $370 $2 $-1 $371 forward single #
plane-surface $-1 0 0 0 -1 0 0 0 -0 1 forward_v I I I I #
coedge $-1 $249 $283 $266 $336 forward $247 $-1 #
coedge $-1 $283 $249 $372 $359 reversed $247 $-1 #
straight-curve $-1 56 -4.703362783686769795e-07 -17.67766952966369942 -0.1954027879207219931 0.693475937027668965 0.6934759370276709634 I I #
face $-1 $373 $374 $2 $-1 $305 forward single #
loop $-1 $-1 $375 $251 #
plane-surface $-1 28 35.73654339026259663 50.58578626551649648 0 -0.707106781186549016 0.7071067811865460184 1 0 0 forward_v I I I I #
coedge $-1 $376 $377 $378 $379 reversed $252 $-1 #
coedge $-1 $380 $254 $381 $382 forward $214 $-1 #
coedge $-1 $254 $380 $383 $384 reversed $214 $-1 #
coedge $-1 $317 $385 $254 $310 forward $318 $-1 #
edge $-1 $386 10.5 $387 16.50000000000002132 $309 $388 forward 7 unknown #
coedge $-1 $256 $255 $389 $390 reversed $183 $-1 #
coedge $-1 $391 $392 $255 $313 forward $393 $-1 #
edge $-1 $394 -24.49489742783178059 $319 -15.19868415357069935 $312 $395 forward 7 unknown #
coedge $-1 $396 $375 $256 $315 reversed $304 $-1 #
edge $-1 $397 -24.49489742783178059 $320 -15.19868415357069935 $256 $398 forward 7 unknown #
coedge $-1 $378 $257 $375 $399 forward $318 $-1 #
coedge $-1 $257 $309 $391 $400 reversed $318 $-1 #
loop $-1 $401 $402 $403 #
vertex $-1 $313 $404 #
vertex $-1 $399 $405 #
straight-curve $-1 12.80131584642930065 46.69669849865410072 46.69669896899060291 0 0.707106781186549016 -0.7071067811865460184 I I #
coedge $-1 $406 $259 $407 $408 forward $185 $-1 #
coedge $-1 $409 $410 $259 $324 forward $411 $-1 #
edge $-1 $412 -2.940234732799461792 $332 -0.2013579207903312962 $323 $413 forward 7 unknown #
coedge $-1 $260 $414 $380 $415 forward $185 $-1 #
coedge $-1 $381 $416 $260 $327 reversed $374 $-1 #
edge $-1 $417 -0.2013579207903314072 $331 0.2013579207903310186 $260 $418 forward 7 unknown #
coedge $-1 $419 $261 $416 $420 forward $330 $-1 #
coedge $-1 $261 $419 $409 $421 reversed $330 $-1 #
loop $-1 $-1 $419 $373 #
vertex $-1 $327 $422 #
vertex $-1 $324 $423 #
straight-curve $-1 52.49489742783180191 39.62563068678859679 39.62563115712509898 0 -0.707106781186549016 0.7071067811865460184 I I #
face $-1 $424 $425 $2 $-1 $426 forward single #
point $-1 53 54.82842648229939897 31.49390317347980073 #
edge $-1 $285 -2.31855895546601154 $270 -0.8230336981237817984 $300 $427 forward 7 unknown #
coedge $-1 $428 $372 $267 $338 forward $370 $-1 #
edge $-1 $268 17.67766999999989963 $429 25 $337 $430 forward 7 unknown #
point $-1 56 0 -17.67766999999989963 #
point $-1 45 39.03851780504910352 21.3608487457217997 #
coedge $-1 $431 $272 $291 $362 forward $343 $-1 #
coedge $-1 $272 $432 $274 $346 reversed $343 $-1 #
loop $-1 $-1 $433 $434 #
straight-curve $-1 6 -73.67767000000000621 0 1 0 0 I I #
coedge $-1 $275 $274 $435 $436 forward $276 $-1 #
edge $-1 $277 0 $437 25 $274 $438 forward 7 unknown #
face $-1 $281 $276 $2 $-1 $439 forward single #
point $-1 50 -73.67767000000000621 0 #
coedge $-1 $435 $440 $279 $350 reversed $441 $-1 #
edge $-1 $351 0 $429 67.67767000000000621 $279 $442 forward 7 unknown #
vertex $-1 $280 $443 #
straight-curve $-1 56 -67.67767000000000621 0 0 0 -1 I I #
face $-1 $-1 $444 $2 $-1 $445 reversed single #
plane-surface $-1 56 -67.67767000000000621 0 1 0 0 0 0 -1 forward_v I I I I #
straight-curve $-1 11 39.03851780504910352 21.3608487457217997 -0.1954027879207219931 -0.693475937027668965 -0.6934759370276709634 I I #
point $-1 11 39.03851780504910352 21.3608487457217997 #
coedge $-1 $372 $446 $287 $358 reversed $370 $-1 #
edge $-1 $288 17.67766999999989963 $447 25 $287 $448 forward 7 unknown #
edge $-1 $288 -28 $268 28 $372 $449 forward 7 unknown #
point $-1 0 0 -17.67766999999989963 #
coedge $-1 $291 $290 $450 $451 forward $292 $-1 #
edge $-1 $293 0 $452 25 $341 $453 forward 7 unknown #
face $-1 $347 $292 $2 $-1 $454 forward single #
point $-1 6 -73.67767000000000621 0 #
coedge $-1 $455 $450 $295 $366 reversed $444 $-1 #
edge $-1 $447 0 $367 67.67767000000000621 $295 $456 forward 7 unknown #
vertex $-1 $296 $457 #
straight-curve $-1 0 -67.67767000000000621 0 0 0 -1 I I #
face $-1 $458 $459 $2 $-1 $460 reversed single #
loop $-1 $-1 $372 $298 #
plane-surface $-1 56 0 0 0 1 0 0 0 1 forward_v I I I I #
coedge $-1 $337 $357 $301 $359 forward $370 $-1 #
face $-1 $461 $330 $2 $-1 $253 forward single #
loop $-1 $-1 $462 $303 #
coedge $-1 $314 $463 $316 $399 reversed $304 $-1 #
coedge $-1 $407 $306 $463 $464 forward $252 $-1 #
coedge $-1 $306 $407 $410 $465 reversed $252 $-1 #
coedge $-1 $466 $316 $306 $379 forward $318 $-1 #
edge $-1 $467 10.5 $468 16.50000000000002132 $378 $469 forward 7 unknown #
coedge $-1 $308 $307 $325 $415 reversed $214 $-1 #
coedge $-1 $462 $326 $307 $382 reversed $374 $-1 #
edge $-1 $386 15.1986841535707029 $417 24.49489742783180191 $307 $398 forward 7 unknown #
coedge $-1 $392 $391 $308 $384 forward $393 $-1 #
edge $-1 $387 15.1986841535707029 $470 24.49489742783180191 $383 $395 forward 7 unknown #
coedge $-1 $309 $402 $462 $471 forward $318 $-1 #
vertex $-1 $471 $472 #
vertex $-1 $400 $473 #
straight-curve $-1 43.1986841535707029 46.69669849865410072 46.69669896899060291 0 -0.707106781186549016 0.7071067811865460184 I I #
coedge $-1 $414 $406 $311 $390 forward $185 $-1 #
edge $-1 $397 10.5 $394 16.50000000000002132 $389 $474 forward 7 unknown #
coedge $-1 $383 $312 $317 $400 forward $393 $-1 #
coedge $-1 $312 $383 $414 $475 forward $393 $-1 #
loop $-1 $-1 $383 $461 #
vertex $-1 $475 $476 #
straight-curve $-1 28 35.02943660907600076 58.36396085856860338 1 0 0 I I #
coedge $-1 $463 $314 $406 $477 reversed $304 $-1 #
vertex $-1 $477 $478 #
straight-curve $-1 28 39.27207729619529886 54.12132017144929819 1 0 0 I I #
edge $-1 $320 2.823768949661912053 $467 3.459416357517673735 $316 $479 forward 7 unknown #
edge $-1 $319 -2.823768949661912053 $387 -0.3178237039278812293 $391 $480 forward 7 unknown #
loop $-1 $-1 $481 $403 #
coedge $-1 $385 $466 $419 $482 forward $318 $-1 #
face $-1 $334 $318 $2 $-1 $483 reversed single #
point $-1 12.80131584642930065 35.02943660907600076 58.36396085856860338 #
point $-1 12.80131584642930065 39.27207729619529886 54.12132017144929819 #
coedge $-1 $389 $322 $396 $477 forward $185 $-1 #
coedge $-1 $377 $376 $322 $408 reversed $252 $-1 #
edge $-1 $412 -16.50000000000002132 $484 -10.5 $322 $485 forward 7 unknown #
coedge $-1 $486 $323 $329 $421 forward $411 $-1 #
coedge $-1 $323 $486 $377 $465 forward $411 $-1 #
loop $-1 $-1 $409 $424 #
vertex $-1 $408 $487 #
ellipse-curve $-1 28 31.49390270314329854 54.82842695263580168 0 -0.707106781186549016 0.7071067811865460184 25 0 0 1 I I #
coedge $-1 $325 $389 $392 $475 reversed $185 $-1 #
edge $-1 $470 -16.50000000000002132 $417 -10.5 $325 $488 forward 7 unknown #
coedge $-1 $326 $462 $328 $420 reversed $374 $-1 #
vertex $-1 $327 $489 #
ellipse-curve $-1 28 35.73654339026259663 50.58578626551649648 -0 0.707106781186549016 -0.7071067811865460184 25 0 0 1 I I #
coedge $-1 $329 $328 $402 $482 reversed $330 $-1 #
edge $-1 $331 -24.49489742783180191 $490 -15.1986841535707029 $328 $491 forward 7 unknown #
edge $-1 $332 -24.49489742783180191 $492 -15.1986841535707029 $409 $493 forward 7 unknown #
point $-1 52.49489742783180191 32.20100948432980204 47.05025235958380136 #
point $-1 52.49489742783180191 27.95836879721050039 51.29289304670309946 #
face $-1 $127 $411 $2 $-1 $494 forward single #
loop $-1 $263 $495 $334 #
plane-surface $-1 28 54.82842648229939897 31.49390317347980073 0 0.707106781186549016 -0.7071067811865460184 -1 0 0 forward_v I I I I #
ellipse-curve $-1 28 51.99999935755320024 34.32233029822599946 0 -0.707106781186549016 0.7071067811865460184 25 0 0 1 I I #
coedge $-1 $496 $337 $440 $497 forward $370 $-1 #
vertex $-1 $338 $498 #
straight-curve $-1 56 0 0 0 0 -1 I I #
coedge $-1 $433 $341 $499 $500 forward $343 $-1 #
coedge $-1 $342 $501 $502 $503 forward $343 $-1 #
coedge $-1 $504 $431 $505 $506 forward $343 $-1 #
face $-1 $507 $343 $2 $-1 $508 forward single #
coedge $-1 $502 $349 $345 $436 reversed $441 $-1 #
edge $-1 $437 -0.785398163397448279 $351 0.785398163397448279 $345 $509 forward 7 unknown #
vertex $-1 $346 $510 #
straight-curve $-1 50 -73.67767000000000621 0 0 0 -1 I I #
cone-surface $-1 50 -67.67767000000000621 0 0 0 -1 4.242640687119280329 -4.242640687119280329 0 1 I I 0 1 5.999999999999992895 forward I I I I #
coedge $-1 $349 $511 $428 $497 reversed $441 $-1 #
loop $-1 $-1 $511 $507 #
straight-curve $-1 56 -67.67767000000000621 -25 0 1 0 I I #
point $-1 56 -67.67767000000000621 -25 #
loop $-1 $-1 $512 $353 #
plane-surface $-1 0 -67.67767000000000621 -25 -0 -0 1 1 -0 0 forward_v I I I I #
coedge $-1 $357 $513 $455 $514 forward $370 $-1 #
vertex $-1 $358 $515 #
straight-curve $-1 0 0 0 0 0 -1 I I #
straight-curve $-1 28 0 -17.67766999999989963 1 0 0 I I #
coedge $-1 $365 $499 $361 $451 reversed $444 $-1 #
edge $-1 $367 -0.785398163397448279 $452 0.7853981633974499443 $361 $516 forward 7 unknown #
vertex $-1 $362 $517 #
straight-curve $-1 6 -73.67767000000000621 0 0 0 -1 I I #
cone-surface $-1 5.99999999999999023 -67.67767000000000621 0 0 0 -1 -4.242640687119280329 -4.242640687119280329 0 1 I I 0 1 5.999999999999992895 forward I I I I #
coedge $-1 $512 $365 $446 $514 reversed $444 $-1 #
straight-curve $-1 0 0 -25 0 -1 0 I I #
point $-1 0 -67.67767000000000621 -25 #
face $-1 $518 $519 $2 $-1 $520 forward single #
loop $-1 $-1 $521 $369 #
plane-surface $-1 40.5 -80 -18 0.8660254037844380415 0 0.5000000000000009992 0.5000000000000009992 0 -0.8660254037844380415 forward_v I I I I #
face $-1 $403 $393 $2 $-1 $494 forward single #
coedge $-1 $416 $381 $385 $471 reversed $374 $-1 #
coedge $-1 $375 $396 $376 $464 reversed $304 $-1 #
edge $-1 $467 15.19868415357069935 $484 24.49489742783178059 $376 $491 forward 7 unknown #
edge $-1 $468 15.19868415357069935 $412 24.49489742783178059 $410 $493 forward 7 unknown #
coedge $-1 $402 $378 $486 $522 reversed $318 $-1 #
vertex $-1 $399 $523 #
vertex $-1 $522 $524 #
straight-curve $-1 12.80131584642930065 39.62563068678859679 39.62563115712509898 0 -0.707106781186549016 0.7071067811865460184 I I #
vertex $-1 $415 $525 #
edge $-1 $490 -0.3178237039278806186 $386 0.3178237039278812293 $385 $526 forward 7 unknown #
point $-1 43.1986841535707029 39.27207729619529886 54.12132017144929819 #
point $-1 43.1986841535707029 35.02943660907600076 58.36396085856860338 #
straight-curve $-1 3.505102572168219854 46.69669849865410072 46.69669896899060291 0 -0.707106781186549016 0.7071067811865460184 I I #
edge $-1 $470 0.2013579207903314072 $394 2.940234732799461792 $392 $413 forward 7 unknown #
point $-1 3.505102572168219854 35.02943660907600076 58.36396085856860338 #
edge $-1 $484 2.940234732799462236 $397 3.34295057438012444 $406 $527 forward 7 unknown #
point $-1 3.505102572168219854 39.27207729619529886 54.12132017144929819 #
ellipse-curve $-1 28 35.73654339026259663 50.58578626551649648 0 -0.707106781186549016 0.7071067811865460184 16 0 0 1 I I #
ellipse-curve $-1 28 31.49390270314329854 54.82842695263580168 -0 0.707106781186549016 -0.7071067811865460184 16 0 0 1 I I #
coedge $-1 $481 $481 $495 $528 reversed $401 $-1 #
edge $-1 $492 -16.50000000000002132 $490 -10.5 $402 $529 forward 7 unknown #
cone-surface $-1 28 43.16116459272129902 43.16116506305780121 0 -0.707106781186549016 0.7071067811865460184 16 0 0 1 I I 0 1 16 forward I I I I #
vertex $-1 $477 $530 #
straight-curve $-1 3.505102572168219854 39.62563068678859679 39.62563115712509898 -0 0.707106781186549016 -0.7071067811865460184 I I #
coedge $-1 $410 $409 $466 $522 forward $411 $-1 #
point $-1 3.505102572168219854 27.95836879721050039 51.29289304670309946 #
straight-curve $-1 52.49489742783180191 46.69669849865410072 46.69669896899060291 -0 0.707106781186549016 -0.7071067811865460184 I I #
point $-1 52.49489742783180191 39.27207729619529886 54.12132017144929819 #
vertex $-1 $471 $531 #
straight-curve $-1 28 32.20100948432980204 47.05025235958380136 -1 0 0 I I #
vertex $-1 $421 $532 #
straight-curve $-1 28 27.95836879721050039 51.29289304670309946 -1 0 0 I I #
plane-surface $-1 28 31.49390270314329854 54.82842695263580168 0 -0.707106781186549016 0.7071067811865460184 1 0 0 forward_v I I I I #
coedge $-1 $495 $495 $481 $528 forward $425 $-1 #
coedge $-1 $533 $428 $534 $535 forward $370 $-1 #
edge $-1 $429 0 $536 11.45854811567259901 $428 $537 forward 7 unknown #
point $-1 56 0 -25 #
coedge $-1 $450 $512 $431 $500 reversed $444 $-1 #
edge $-1 $452 0 $538 5.458548115672600787 $431 $539 forward 7 unknown #
coedge $-1 $432 $504 $521 $540 forward $343 $-1 #
coedge $-1 $511 $435 $432 $503 reversed $441 $-1 #
edge $-1 $541 38.54145188432740099 $437 44 $432 $539 forward 7 unknown #
coedge $-1 $501 $433 $542 $543 forward $343 $-1 #
coedge $-1 $544 $545 $433 $506 reversed $546 $-1 #
edge $-1 $538 -13.50213240271467896 $547 -5.419228634059909844 $433 $548 forward 7 unknown #
face $-1 $363 $441 $2 $-1 $445 reversed single #
plane-surface $-1 6 -73.67767000000000621 0 0 -1 0 0 0 -1 forward_v I I I I #
ellipse-curve $-1 50 -67.67767000000000621 -25 0 0 1 4.242640687119280329 -4.242640687119280329 0 1 I I #
point $-1 50 -73.67767000000000621 -25 #
coedge $-1 $440 $502 $549 $550 forward $441 $-1 #
coedge $-1 $499 $455 $544 $551 forward $444 $-1 #
coedge $-1 $446 $533 $552 $553 forward $370 $-1 #
edge $-1 $554 44.54145188432740099 $447 56 $446 $537 forward 7 unknown #
point $-1 0 0 -25 #
ellipse-curve $-1 5.99999999999999023 -67.67767000000000621 -25 0 0 1 -4.242640687119280329 -4.242640687119280329 0 1 I I #
point $-1 6 -73.67767000000000621 -25 #
face $-1 $434 $546 $2 $-1 $555 reversed single #
loop $-1 $-1 $542 $458 #
plane-surface $-1 28 -39.5 -18 0 0 -1 -1 0 0 forward_v I I I I #
coedge $-1 $556 $549 $501 $540 reversed $459 $-1 #
edge $-1 $492 0.3178237039278810072 $468 2.823768949661912053 $486 $480 forward 7 unknown #
point $-1 12.80131584642930065 32.20100948432980204 47.05025235958380136 #
point $-1 12.80131584642930065 27.95836879721050039 51.29289304670309946 #
point $-1 52.49489742783180191 35.02943660907600076 58.36396085856860338 #
ellipse-curve $-1 28 35.73654339026259663 50.58578626551649648 0 -0.707106781186549016 0.7071067811865460184 16 0 0 1 I I #
ellipse-curve $-1 28 35.73654339026259663 50.58578626551649648 -0 0.707106781186549016 -0.7071067811865460184 25 0 0 1 I I #
edge $-1 $557 -3.141592653589801998 $557 3.141592653589784234 $495 $558 forward 7 unknown #
straight-curve $-1 43.1986841535707029 39.62563068678859679 39.62563115712509898 0 0.707106781186549016 -0.7071067811865460184 I I #
point $-1 3.505102572168219854 32.20100948432980204 47.05025235958380136 #
point $-1 43.1986841535707029 32.20100948432980204 47.05025235958380136 #
point $-1 43.1986841535707029 27.95836879721050039 51.29289304670309946 #
coedge $-1 $513 $496 $559 $560 forward $370 $-1 #
coedge $-1 $549 $556 $496 $535 reversed $459 $-1 #
edge $-1 $536 -12.00213240271473225 $561 -3.919228634059962246 $496 $562 forward 7 unknown #
vertex $-1 $497 $563 #
straight-curve $-1 56 0 -25 -1 0 0 I I #
vertex $-1 $500 $564 #
straight-curve $-1 6 -73.67767000000000621 -25 1 0 0 I I #
edge $-1 $565 16.41922863405995869 $541 24.5021324027147287 $501 $566 forward 7 unknown #
vertex $-1 $550 $567 #
coedge $-1 $568 $569 $504 $543 reversed $519 $-1 #
edge $-1 $547 -1.5 $565 23.5 $504 $570 forward 7 unknown #
coedge $-1 $552 $505 $512 $551 reversed $546 $-1 #
coedge $-1 $505 $552 $568 $571 reversed $546 $-1 #
loop $-1 $-1 $505 $518 #
vertex $-1 $506 $572 #
straight-curve $-1 18.20961431702999889 -73.67767000000000621 -13.30681033398809987 0.5000000000000009992 0 0.8660254037844380415 I I #
coedge $-1 $521 $534 $511 $550 reversed $459 $-1 #
edge $-1 $541 0.1611649999999968941 $536 73.83883500000000311 $511 $573 forward 7 unknown #
edge $-1 $554 -33.33883500000000311 $538 40.33883500000000311 $512 $574 forward 7 unknown #
coedge $-1 $545 $544 $513 $553 reversed $546 $-1 #
edge $-1 $575 17.91922863405995869 $554 26.0021324027147287 $513 $576 forward 7 unknown #
vertex $-1 $553 $577 #
plane-surface $-1 15.5 1 -18 -0.8660254037844380415 0 0.5000000000000009992 0.5000000000000009992 0 0.8660254037844380415 forward_v I I I I #
coedge $-1 $534 $521 $569 $578 reversed $459 $-1 #
vertex $-1 $528 $579 #
ellipse-curve $-1 28 54.82842648229939897 31.49390317347980073 0 -0.707106781186549016 0.7071067811865460184 16 0 0 1 I I #
coedge $-1 $569 $568 $533 $560 reversed $519 $-1 #
edge $-1 $561 1.5 $575 26.5 $533 $580 forward 7 unknown #
vertex $-1 $535 $581 #
straight-curve $-1 38.54038568296999756 0 -14.60584843966469926 -0.5000000000000009992 0 0.8660254037844380415 I I #
point $-1 44.54145188432740099 0 -25 #
point $-1 11.45854811567260079 -73.67767000000000621 -25 #
vertex $-1 $540 $582 #
straight-curve $-1 32.29038568296999756 -73.67767000000000621 -3.780530892359220019 0.5000000000000009992 0 -0.8660254037844380415 I I #
point $-1 44.54145188432740099 -73.67767000000000621 -25 #
coedge $-1 $559 $542 $545 $571 forward $519 $-1 #
coedge $-1 $542 $559 $556 $578 forward $519 $-1 #
straight-curve $-1 17 -73.67767000000000621 -18 1 0 0 I I #
edge $-1 $547 6.322329999999993788 $575 80 $545 $583 forward 7 unknown #
point $-1 15.5 -73.67767000000000621 -18 #
straight-curve $-1 44.54145188432740099 -73.83883500000000311 -25 -0 1 0 I I #
straight-curve $-1 11.45854811567260079 -33.33883500000000311 -25 -0 -1 -0 I I #
vertex $-1 $553 $584 #
straight-curve $-1 24.45961431702999889 0 -2.481492786682559792 -0.5000000000000009992 0 -0.8660254037844380415 I I #
point $-1 11.45854811567260079 0 -25 #
edge $-1 $561 1 $565 74.67767000000000621 $556 $585 forward 7 unknown #
point $-1 12 54.82842648229949845 31.4939031734799002 #
straight-curve $-1 42 0 -18 -1 0 0 I I #
point $-1 40.5 0 -18 #
point $-1 40.5 -73.67767000000000621 -18 #
straight-curve $-1 15.5 -80 -18 0 1 0 I I #
point $-1 15.5 0 -18 #
straight-curve $-1 40.5 1 -18 0 -1 0 I I #
End-of-ACIS-data 