600 0 1 0           
76 GICL ACIS Healer - Source: /gicl/data5/repository/new/cami2_stock1.sat - 6 0 18 ACIS 6.0.3 Solaris 24 Sat Apr 13 20:07:26 2002 
1 9.999999999999999547e-07 1.000000000000000036e-10 
body $-1 $1 $-1 $-1 #
lump $-1 $-1 $2 $0 #
shell $-1 $-1 $-1 $3 $-1 $1 #
face $-1 $4 $5 $2 $-1 $6 forward single #
face $-1 $7 $8 $2 $-1 $9 reversed single #
loop $-1 $-1 $10 $3 #
plane-surface $-1 25 0 82.5 0 0 1 -3.491481338843129805e-15 1 0 forward_v I I I I #
face $-1 $11 $12 $2 $-1 $13 reversed single #
loop $-1 $-1 $14 $4 #
plane-surface $-1 25 0 -42.5 0 0 1 -3.491481338843129805e-15 1 0 forward_v I I I I #
coedge $-1 $15 $16 $17 $18 forward $5 $-1 #
face $-1 $19 $20 $2 $-1 $21 reversed single #
loop $-1 $-1 $22 $7 #
plane-surface $-1 75 1.745740669421564911e-13 20 -1 -3.491481338843129805e-15 0 0 0 1 forward_v I I I I #
coedge $-1 $23 $24 $25 $26 forward $8 $-1 #
coedge $-1 $27 $10 $28 $29 forward $5 $-1 #
coedge $-1 $10 $27 $30 $31 forward $5 $-1 #
coedge $-1 $32 $33 $10 $18 reversed $34 $-1 #
edge $-1 $35 -50.00000000000000711 $36 50 $17 $37 forward 7 unknown #
face $-1 $38 $39 $2 $-1 $40 reversed single #
loop $-1 $-1 $41 $11 #
plane-surface $-1 25.0000000000002629 -75 20 -3.491481338843129805e-15 1 0 -0 0 -1 forward_v I I I I #
coedge $-1 $42 $30 $43 $44 forward $12 $-1 #
coedge $-1 $45 $14 $42 $46 forward $8 $-1 #
coedge $-1 $14 $45 $47 $48 forward $8 $-1 #
coedge $-1 $33 $32 $14 $26 reversed $34 $-1 #
edge $-1 $49 -50 $50 50.00000000000000711 $25 $51 forward 7 unknown #
coedge $-1 $16 $15 $52 $53 forward $5 $-1 #
coedge $-1 $54 $55 $15 $29 reversed $39 $-1 #
edge $-1 $36 -75 $56 75 $28 $57 forward 7 unknown #
coedge $-1 $22 $58 $16 $31 reversed $12 $-1 #
edge $-1 $59 -75 $35 75 $30 $60 forward 7 unknown #
coedge $-1 $25 $17 $58 $61 forward $34 $-1 #
coedge $-1 $17 $25 $54 $62 reversed $34 $-1 #
loop $-1 $-1 $32 $38 #
vertex $-1 $18 $63 #
vertex $-1 $18 $64 #
straight-curve $-1 24.9999999999997371 75 82.5 -1 -3.491481338843129805e-15 0 I I #
face $-1 $-1 $34 $2 $-1 $65 reversed single #
loop $-1 $-1 $54 $19 #
plane-surface $-1 -25 -1.745740669421564911e-13 20 1 3.491481338843129805e-15 0 -0 0 -1 forward_v I I I I #
coedge $-1 $66 $52 $55 $67 forward $20 $-1 #
coedge $-1 $58 $22 $23 $46 reversed $12 $-1 #
coedge $-1 $52 $66 $22 $44 reversed $20 $-1 #
edge $-1 $59 -62.5 $68 62.5 $43 $69 forward 7 unknown #
coedge $-1 $24 $23 $66 $70 forward $8 $-1 #
edge $-1 $50 -75 $68 75 $42 $71 forward 7 unknown #
coedge $-1 $55 $54 $24 $48 reversed $39 $-1 #
edge $-1 $72 -75 $49 75 $47 $73 forward 7 unknown #
vertex $-1 $26 $74 #
vertex $-1 $61 $75 #
straight-curve $-1 24.9999999999997371 75 -42.5 1 3.491481338843129805e-15 0 I I #
coedge $-1 $41 $43 $27 $53 reversed $20 $-1 #
edge $-1 $56 -50 $59 49.99999999999999289 $52 $76 forward 7 unknown #
coedge $-1 $47 $28 $33 $62 forward $39 $-1 #
coedge $-1 $28 $47 $41 $67 reversed $39 $-1 #
vertex $-1 $29 $77 #
straight-curve $-1 -25 -1.745740669421564911e-13 82.5 3.491481338843129805e-15 -1 0 I I #
coedge $-1 $30 $42 $32 $61 reversed $12 $-1 #
vertex $-1 $53 $78 #
straight-curve $-1 75 1.745740669421564911e-13 82.5 -3.491481338843129805e-15 1 0 I I #
edge $-1 $35 -62.5 $50 62.5 $32 $79 forward 7 unknown #
edge $-1 $36 -62.5 $49 62.5 $33 $80 forward 7 unknown #
point $-1 74.9999999999997442 75.00000000000017053 82.5 #
point $-1 -25.0000000000002629 74.99999999999982947 82.5 #
plane-surface $-1 24.9999999999997371 75 20 3.491481338843129805e-15 -1 0 0 0 1 forward_v I I I I #
coedge $-1 $43 $41 $45 $70 reversed $20 $-1 #
edge $-1 $56 -62.5 $72 62.5 $55 $81 forward 7 unknown #
vertex $-1 $70 $82 #
straight-curve $-1 75.0000000000002558 -74.99999999999982947 20 -0 0 -1 I I #
edge $-1 $68 -49.99999999999999289 $72 50 $66 $83 forward 7 unknown #
straight-curve $-1 75 1.745740669421564911e-13 -42.5 3.491481338843129805e-15 -1 0 I I #
vertex $-1 $48 $84 #
straight-curve $-1 -25 -1.745740669421564911e-13 -42.5 -3.491481338843129805e-15 1 0 I I #
point $-1 -25.0000000000002629 74.99999999999982947 -42.5 #
point $-1 74.9999999999997442 75.00000000000017053 -42.5 #
straight-curve $-1 25.0000000000002629 -75 82.5 1 3.491481338843129805e-15 0 I I #
point $-1 -24.9999999999997371 -75.00000000000017053 82.5 #
point $-1 75.0000000000002558 -74.99999999999982947 82.5 #
straight-curve $-1 74.9999999999997442 75.00000000000017053 20 -0 0 -1 I I #
straight-curve $-1 -25.0000000000002629 74.99999999999982947 20 -0 0 -1 I I #
straight-curve $-1 -24.9999999999997371 -75.00000000000017053 20 -0 0 -1 I I #
point $-1 75.0000000000002558 -74.99999999999982947 -42.5 #
straight-curve $-1 25.0000000000002629 -75 -42.5 -1 -3.491481338843129805e-15 0 I I #
point $-1 -24.9999999999997371 -75.00000000000017053 -42.5 #
End-of-ACIS-data 