600 0 1 0           
76 GICL ACIS Healer - Source: /gicl/data5/repository/new/cami2_stock2.sat - 6 0 18 ACIS 6.0.3 Solaris 24 Sat Apr 13 20:07:27 2002 
1 9.999999999999999547e-07 1.000000000000000036e-10 
body $-1 $1 $-1 $-1 #
lump $-1 $-1 $2 $0 #
shell $-1 $-1 $-1 $3 $-1 $1 #
face $-1 $4 $5 $2 $-1 $6 reversed single #
face $-1 $7 $8 $2 $-1 $9 forward single #
loop $-1 $-1 $10 $3 #
plane-surface $-1 24.9999999999997371 75 20 3.491481338843129805e-15 -1 0 0 0 1 forward_v I I I I #
face $-1 $11 $12 $2 $-1 $13 reversed single #
loop $-1 $-1 $14 $4 #
plane-surface $-1 25 0 82.5 0 0 1 -3.491481338843129805e-15 1 0 forward_v I I I I #
coedge $-1 $15 $16 $17 $18 forward $5 $-1 #
face $-1 $19 $20 $2 $-1 $21 reversed single #
loop $-1 $-1 $22 $7 #
plane-surface $-1 24.9999999999997371 74.24621202458739333 46.81980515339479609 3.491481338843127833e-15 -0.7071067811865460184 -0.707106781186549016 -1.972152263052529514e-30 -0.707106781186549016 0.7071067811865460184 forward_v I I I I #
coedge $-1 $23 $24 $22 $25 forward $8 $-1 #
coedge $-1 $26 $10 $27 $28 forward $5 $-1 #
coedge $-1 $10 $26 $29 $30 forward $5 $-1 #
coedge $-1 $31 $32 $10 $18 reversed $33 $-1 #
edge $-1 $34 -49.99999999999991473 $35 50.00000000000009237 $17 $36 forward 7 unknown #
face $-1 $37 $38 $2 $-1 $39 forward single #
loop $-1 $-1 $29 $11 #
plane-surface $-1 -25 -1.745740669421564911e-13 20 1 3.491481338843129805e-15 0 -0 0 -1 forward_v I I I I #
coedge $-1 $40 $41 $14 $25 reversed $12 $-1 #
coedge $-1 $42 $14 $43 $44 forward $8 $-1 #
coedge $-1 $14 $42 $45 $46 forward $8 $-1 #
edge $-1 $47 -50 $48 50 $22 $49 forward 7 unknown #
coedge $-1 $16 $15 $50 $51 reversed $5 $-1 #
coedge $-1 $52 $53 $15 $28 reversed $54 $-1 #
edge $-1 $35 -55.00000000000009948 $55 62.5 $27 $56 forward 7 unknown #
coedge $-1 $57 $58 $16 $30 reversed $20 $-1 #
edge $-1 $59 -62.5 $34 54.99999999999970157 $29 $60 forward 7 unknown #
coedge $-1 $61 $17 $58 $62 reversed $33 $-1 #
coedge $-1 $17 $61 $52 $63 reversed $33 $-1 #
loop $-1 $-1 $17 $64 #
vertex $-1 $62 $65 #
vertex $-1 $63 $66 #
straight-curve $-1 24.99999999999965183 75 74.99999999999990052 1 3.491481338843129805e-15 3.491481338843149921e-15 I I #
face $-1 $67 $68 $2 $-1 $69 reversed single #
loop $-1 $-1 $70 $19 #
plane-surface $-1 25 -22.98097038856279895 37.98097038856279539 -1.972152263052529514e-30 -0.707106781186549016 0.7071067811865460184 -3.491481338843127833e-15 0.7071067811865460184 0.707106781186549016 forward_v I I I I #
coedge $-1 $71 $22 $72 $73 reversed $12 $-1 #
coedge $-1 $22 $71 $74 $75 reversed $12 $-1 #
coedge $-1 $24 $23 $70 $76 forward $8 $-1 #
coedge $-1 $74 $77 $23 $44 reversed $20 $-1 #
edge $-1 $48 -38.56601717798199758 $78 -21.53805922287439856 $43 $79 forward 7 unknown #
coedge $-1 $80 $72 $24 $46 reversed $54 $-1 #
edge $-1 $81 21.53805922287410013 $47 38.56601717798209705 $45 $82 forward 7 unknown #
vertex $-1 $46 $83 #
vertex $-1 $44 $84 #
straight-curve $-1 24.99999999999986144 38.56601717798209705 82.5 -1 -4.937700262164539365e-15 0 I I #
coedge $-1 $85 $86 $26 $51 forward $68 $-1 #
edge $-1 $59 -50 $55 50.00000000000000711 $26 $87 forward 7 unknown #
coedge $-1 $72 $27 $32 $63 forward $54 $-1 #
coedge $-1 $27 $88 $85 $89 reversed $54 $-1 #
loop $-1 $-1 $27 $67 #
vertex $-1 $89 $90 #
straight-curve $-1 74.9999999999997442 75.00000000000017053 20 0 -0 -1 I I #
coedge $-1 $91 $29 $86 $92 reversed $20 $-1 #
coedge $-1 $29 $74 $31 $62 forward $20 $-1 #
vertex $-1 $92 $93 #
straight-curve $-1 -25.0000000000002629 74.99999999999982947 20 0 0 1 I I #
coedge $-1 $32 $31 $71 $94 forward $33 $-1 #
edge $-1 $95 -33.93398282201750504 $34 -4.999999999999900524 $31 $96 forward 7 unknown #
edge $-1 $35 4.999999999999602096 $97 33.93398282201739846 $32 $98 reversed 7 unknown #
face $-1 $-1 $33 $2 $-1 $99 reversed single #
point $-1 -25.0000000000002629 74.99999999999982947 74.99999999999970157 #
point $-1 74.9999999999997442 75.00000000000017053 75.00000000000009948 #
face $-1 $100 $54 $2 $-1 $101 reversed single #
loop $-1 $-1 $85 $37 #
plane-surface $-1 25 0 -42.5 0 0 1 -3.491481338843129805e-15 1 0 forward_v I I I I #
coedge $-1 $102 $103 $42 $76 reversed $38 $-1 #
coedge $-1 $41 $40 $61 $94 reversed $12 $-1 #
coedge $-1 $45 $52 $40 $73 forward $54 $-1 #
edge $-1 $97 39.85281374238539343 $47 50.45941546018367774 $40 $104 reversed 7 unknown #
coedge $-1 $58 $43 $41 $75 forward $20 $-1 #
edge $-1 $48 -50.45941546018405433 $95 -39.85281374238527974 $41 $105 forward 7 unknown #
edge $-1 $78 -50.00000000000007816 $81 49.99999999999991473 $70 $106 forward 7 unknown #
coedge $-1 $43 $107 $102 $108 forward $20 $-1 #
vertex $-1 $76 $109 #
straight-curve $-1 -25 -1.745740669421564911e-13 82.5 3.491481338843129805e-15 -1 0 I I #
coedge $-1 $110 $45 $103 $111 forward $54 $-1 #
vertex $-1 $111 $112 #
straight-curve $-1 75 1.745740669421564911e-13 82.5 -3.491481338843129805e-15 1 0 I I #
point $-1 74.99999999999985789 38.56601717798227469 82.5 #
point $-1 -25.000000000000135 38.56601717798181994 82.5 #
coedge $-1 $113 $50 $53 $89 forward $68 $-1 #
coedge $-1 $50 $113 $57 $92 forward $68 $-1 #
straight-curve $-1 24.9999999999997371 75 -42.5 1 3.491481338843129805e-15 0 I I #
coedge $-1 $53 $110 $114 $115 forward $54 $-1 #
edge $-1 $55 -75 $116 75 $53 $117 forward 7 unknown #
point $-1 74.9999999999997442 75.00000000000017053 -42.5 #
coedge $-1 $107 $57 $118 $119 reversed $20 $-1 #
edge $-1 $120 -75 $59 75 $57 $121 forward 7 unknown #
point $-1 -25.0000000000002629 74.99999999999982947 -42.5 #
edge $-1 $95 -50 $97 50.00000000000001421 $61 $122 forward 7 unknown #
vertex $-1 $62 $123 #
straight-curve $-1 -25.00000000000027711 79.99999999999972999 74.99999999999980105 0 1 3.491481338843129805e-15 I I #
vertex $-1 $73 $124 #
straight-curve $-1 74.99999999999971578 79.99999999999977263 75.00000000000009948 0 1 3.491481338843129805e-15 I I #
plane-surface $-1 24.99999999999974065 79.99999999999970157 74.99999999999990052 3.491481338843137694e-15 3.491481338843132172e-15 -1 0 -1 -3.491481338843129805e-15 forward_v I I I I #
face $-1 $125 $126 $2 $-1 $127 reversed single #
plane-surface $-1 75 1.745740669421564911e-13 20 -1 -3.491481338843129805e-15 0 0 0 1 forward_v I I I I #
coedge $-1 $128 $70 $77 $108 reversed $38 $-1 #
coedge $-1 $70 $128 $80 $111 reversed $38 $-1 #
straight-curve $-1 74.9999999999997442 74.24621202458756386 46.81980515339489557 1.972152263052529514e-30 0.707106781186549016 -0.7071067811865460184 I I #
straight-curve $-1 -25.0000000000002558 74.24621202458733649 46.81980515339459714 1.972152263052529514e-30 0.707106781186549016 -0.7071067811865460184 I I #
straight-curve $-1 25 21.53805922287429908 82.5 1 0 0 I I #
coedge $-1 $77 $91 $129 $130 forward $20 $-1 #
edge $-1 $131 -32.49999999999965183 $78 62.95941546018404722 $77 $132 reversed 7 unknown #
point $-1 -25.00000000000007816 21.53805922287422447 82.5 #
coedge $-1 $88 $80 $133 $134 forward $54 $-1 #
edge $-1 $81 -62.95941546018369195 $135 32.50000000000007105 $80 $136 reversed 7 unknown #
point $-1 74.99999999999991473 21.53805922287427421 82.5 #
coedge $-1 $86 $85 $137 $138 forward $68 $-1 #
coedge $-1 $139 $137 $88 $115 reversed $126 $-1 #
edge $-1 $140 5 $116 62.5 $114 $141 forward 7 unknown #
vertex $-1 $138 $142 #
straight-curve $-1 75 1.745740669421564911e-13 -42.5 3.491481338843129805e-15 -1 0 I I #
coedge $-1 $137 $139 $91 $119 forward $126 $-1 #
edge $-1 $143 5 $120 62.5 $91 $144 forward 7 unknown #
vertex $-1 $92 $145 #
straight-curve $-1 -25 -1.745740669421564911e-13 -42.5 -3.491481338843129805e-15 1 0 I I #
straight-curve $-1 24.99999999999973355 46.06601717798230311 74.99999999999980105 1 1.446218923321379977e-15 3.491481338843140061e-15 I I #
point $-1 -25.0000000000002629 46.06601717798222495 74.9999999999996021 #
point $-1 74.9999999999997442 46.06601717798237416 75 #
face $-1 $64 $146 $2 $-1 $147 forward single #
loop $-1 $-1 $114 $100 #
plane-surface $-1 25.0000000000002629 -75 20 -3.491481338843129805e-15 1 0 -0 0 -1 forward_v I I I I #
coedge $-1 $103 $102 $148 $149 reversed $38 $-1 #
coedge $-1 $150 $148 $107 $130 reversed $146 $-1 #
edge $-1 $143 -75 $131 -45.96194077712529946 $107 $151 reversed 7 unknown #
vertex $-1 $108 $152 #
straight-curve $-1 -25.00000000000002132 -22.98097038856297303 37.98097038856259644 3.491481338843127833e-15 -0.7071067811865460184 -0.707106781186549016 I I #
coedge $-1 $148 $150 $110 $134 reversed $146 $-1 #
edge $-1 $135 45.96194077712569737 $140 75 $110 $153 reversed 7 unknown #
vertex $-1 $134 $154 #
straight-curve $-1 74.99999999999997158 -22.98097038856272434 37.98097038856289487 -3.491481338843127833e-15 0.7071067811865460184 0.707106781186549016 I I #
coedge $-1 $114 $118 $113 $138 reversed $126 $-1 #
edge $-1 $116 -49.99999999999999289 $120 50 $137 $155 forward 7 unknown #
coedge $-1 $118 $114 $150 $156 forward $126 $-1 #
vertex $-1 $134 $157 #
straight-curve $-1 75.0000000000002558 -74.99999999999982947 20 -0 0 -1 I I #
point $-1 75.0000000000002558 -74.99999999999982947 -42.5 #
vertex $-1 $156 $158 #
straight-curve $-1 -24.9999999999997371 -75.00000000000017053 20 -0 0 -1 I I #
point $-1 -24.9999999999997371 -75.00000000000017053 -42.5 #
loop $-1 $-1 $148 $125 #
plane-surface $-1 25 0 15 0 0 1 -3.491481338843129805e-15 1 0 forward_v I I I I #
coedge $-1 $129 $133 $128 $149 forward $146 $-1 #
edge $-1 $135 -50.00000000000017053 $131 49.99999999999983658 $148 $159 forward 7 unknown #
coedge $-1 $133 $129 $139 $156 reversed $146 $-1 #
straight-curve $-1 -25 -1.745740669421564911e-13 15 3.491481338843129805e-15 -1 0 I I #
point $-1 -24.99999999999983658 -45.9619407771254771 15 #
straight-curve $-1 75 1.745740669421564911e-13 15 -3.491481338843129805e-15 1 0 I I #
point $-1 75.00000000000017053 -45.96194077712551973 15 #
straight-curve $-1 25.0000000000002629 -75 -42.5 -1 -3.491481338843129805e-15 0 I I #
edge $-1 $140 -49.99999999999999289 $143 50 $139 $160 reversed 7 unknown #
point $-1 75.0000000000002558 -74.99999999999982947 15 #
point $-1 -24.9999999999997371 -75.00000000000017053 15 #
straight-curve $-1 25 -45.96194077712549841 15 -1 0 0 I I #
straight-curve $-1 25.0000000000002629 -75 15 1 3.491481338843129805e-15 0 I I #
End-of-ACIS-data 