104 586 0 0                             
body $-1 $1 $-1 $-1 #
lump $-1 $-1 $2 $0 #
shell $-1 $-1 $-1 $3 $1 #
face $-1 $4 $5 $2 $-1 $6 1 #
face $-1 $7 $8 $2 $-1 $9 1 #
loop $-1 $-1 $10 $3 #
cone-surface $-1 28 -45.67767 -5 0 0 1 0 -9 0 1 0 1 0 #
face $-1 $11 $12 $2 $-1 $13 1 #
loop $-1 $-1 $14 $4 #
plane-surface $-1 19 -45.67767 -5 -1 0 0 0 0 1 0 #
coedge $-1 $15 $16 $17 $18 1 $5 $-1 #
face $-1 $19 $20 $2 $-1 $21 1 #
loop $-1 $-1 $22 $7 #
cone-surface $-1 28 -27.67767 -5 0 0 1 0 9 0 1 0 1 0 #
coedge $-1 $23 $24 $25 $26 1 $8 $-1 #
coedge $-1 $27 $10 $28 $29 1 $5 $-1 #
coedge $-1 $10 $27 $23 $30 0 $5 $-1 #
coedge $-1 $25 $31 $10 $18 0 $32 $-1 #
edge $-1 $33 $34 $17 $35 0 #
face $-1 $36 $37 $2 $-1 $38 0 #
loop $-1 $-1 $39 $11 #
plane-surface $-1 37 -27.67767 -5 1 0 0 0 0 -1 0 #
coedge $-1 $40 $41 $42 $43 1 $12 $-1 #
coedge $-1 $44 $14 $16 $30 1 $8 $-1 #
coedge $-1 $14 $44 $40 $45 0 $8 $-1 #
coedge $-1 $42 $17 $14 $26 0 $32 $-1 #
edge $-1 $34 $46 $25 $47 0 #
coedge $-1 $16 $15 $48 $49 1 $5 $-1 #
coedge $-1 $39 $50 $15 $29 0 $20 $-1 #
edge $-1 $51 $33 $15 $52 0 #
edge $-1 $53 $34 $23 $54 0 #
coedge $-1 $17 $42 $39 $55 0 $32 $-1 #
loop $-1 $56 $42 $36 #
vertex $-1 $55 $57 #
vertex $-1 $18 $58 #
ellipse-curve $-1 28 -45.67767 5 -0 -0 -1 0 -9 0 1 #
face $-1 $59 $32 $2 $-1 $60 0 #
loop $-1 $-1 $61 $19 #
plane-surface $-1 28 -36.67767 -5 0 0 1 1 0 0 0 #
coedge $-1 $62 $28 $31 $55 1 $20 $-1 #
coedge $-1 $63 $22 $24 $45 1 $12 $-1 #
coedge $-1 $22 $63 $62 $64 0 $12 $-1 #
coedge $-1 $31 $25 $22 $43 0 $32 $-1 #
edge $-1 $46 $65 $42 $66 0 #
coedge $-1 $24 $23 $61 $67 1 $8 $-1 #
edge $-1 $68 $46 $40 $69 0 #
vertex $-1 $43 $70 #
straight-curve $-1 19 -18.838835 5 0 1 -0 #
coedge $-1 $71 $61 $27 $49 0 $37 $-1 #
edge $-1 $53 $51 $27 $72 0 #
coedge $-1 $28 $62 $71 $73 1 $20 $-1 #
vertex $-1 $49 $74 #
straight-curve $-1 37 -45.67767 -5 0 0 1 #
vertex $-1 $67 $75 #
straight-curve $-1 19 -45.67767 -5 0 0 1 #
edge $-1 $65 $33 $31 $76 0 #
loop $-1 $-1 $77 $36 #
point $-1 37 -45.67767 5 #
point $-1 19 -45.67767 5 #
face $-1 $78 $79 $2 $-1 $80 0 #
plane-surface $-1 7 8 5 0 0 1 1 0 0 0 #
coedge $-1 $48 $81 $44 $67 0 $37 $-1 #
coedge $-1 $50 $39 $41 $64 1 $20 $-1 #
coedge $-1 $41 $40 $81 $82 1 $12 $-1 #
edge $-1 $83 $65 $62 $84 0 #
vertex $-1 $43 $85 #
ellipse-curve $-1 28 -27.67767 5 -0 -0 -1 0 9 0 1 #
edge $-1 $68 $53 $44 $86 0 #
vertex $-1 $67 $87 #
straight-curve $-1 19 -27.67767 -5 0 0 1 #
point $-1 19 -27.67767 5 #
coedge $-1 $81 $48 $50 $73 0 $37 $-1 #
ellipse-curve $-1 28 -45.67767 -5 0 0 1 0 -9 0 1 #
edge $-1 $51 $83 $50 $88 0 #
point $-1 37 -45.67767 -5 #
point $-1 19 -45.67767 -5 #
straight-curve $-1 37 -9.838835 5 0 -1 0 #
coedge $-1 $89 $90 $91 $92 1 $56 $-1 #
face $-1 $93 $94 $2 $-1 $95 0 #
loop $-1 $-1 $96 $59 #
plane-surface $-1 7 -45.67767 0 -1 0 0 0 0 1 0 #
coedge $-1 $61 $71 $63 $82 0 $37 $-1 #
edge $-1 $83 $68 $63 $97 0 #
vertex $-1 $73 $98 #
straight-curve $-1 37 -27.67767 -5 0 0 1 #
point $-1 37 -27.67767 5 #
straight-curve $-1 19 -27.67767 -5 0 -1 0 #
point $-1 19 -27.67767 -5 #
straight-curve $-1 37 -45.67767 -5 0 1 0 #
coedge $-1 $99 $77 $100 $101 1 $56 $-1 #
coedge $-1 $77 $99 $102 $103 1 $56 $-1 #
coedge $-1 $104 $105 $77 $92 0 $106 $-1 #
edge $-1 $107 $108 $91 $109 0 #
face $-1 $110 $111 $2 $-1 $112 0 #
loop $-1 $-1 $113 $78 #
plane-surface $-1 49 8 0 1 0 0 0 0 -1 0 #
coedge $-1 $114 $100 $105 $115 1 $79 $-1 #
ellipse-curve $-1 28 -27.67767 -5 0 0 1 0 9 0 1 #
point $-1 37 -27.67767 -5 #
coedge $-1 $90 $89 $116 $117 1 $56 $-1 #
coedge $-1 $96 $118 $89 $101 0 $79 $-1 #
edge $-1 $119 $107 $100 $120 0 #
coedge $-1 $121 $113 $90 $103 0 $94 $-1 #
edge $-1 $108 $122 $102 $123 0 #
coedge $-1 $124 $91 $113 $125 0 $106 $-1 #
coedge $-1 $91 $126 $96 $115 0 $106 $-1 #
loop $-1 $-1 $104 $127 #
vertex $-1 $115 $128 #
vertex $-1 $125 $129 #
straight-curve $-1 17.5 -12.67767 5 1 0 -0 #
face $-1 $130 $131 $2 $-1 $132 0 #
loop $-1 $-1 $116 $93 #
cone-surface $-1 28 -45.6776700000001 0 0 0 1 0 -21 0 1 0 1 0 #
coedge $-1 $102 $133 $104 $125 1 $94 $-1 #
coedge $-1 $118 $96 $134 $135 1 $79 $-1 #
edge $-1 $136 $107 $105 $137 0 #
coedge $-1 $138 $139 $99 $117 0 $111 $-1 #
edge $-1 $122 $119 $116 $140 0 #
coedge $-1 $100 $114 $138 $141 0 $79 $-1 #
vertex $-1 $141 $142 #
straight-curve $-1 7 8 5 0 1 0 #
coedge $-1 $133 $102 $139 $143 1 $94 $-1 #
vertex $-1 $143 $144 #
straight-curve $-1 49 -45.67767 5 -0 -1 -0 #
coedge $-1 $145 $104 $146 $147 1 $106 $-1 #
edge $-1 $108 $148 $104 $149 0 #
coedge $-1 $105 $150 $151 $152 1 $106 $-1 #
face $-1 $153 $106 $2 $-1 $154 0 #
point $-1 7 -12.67767 5 #
point $-1 49 -12.67767 5 #
face $-1 $155 $156 $2 $-1 $157 0 #
loop $-1 $-1 $158 $110 #
plane-surface $-1 28 -53.3189126717798 0 0 0 1 1 0 0 0 #
coedge $-1 $113 $121 $158 $159 1 $94 $-1 #
coedge $-1 $151 $160 $114 $135 0 $131 $-1 #
edge $-1 $161 $136 $134 $162 0 #
vertex $-1 $115 $163 #
straight-curve $-1 7 -14.9180404311536 2.75962956884637 0 0.707106781186546 0.707106781186549 #
coedge $-1 $164 $116 $118 $141 1 $111 $-1 #
coedge $-1 $116 $164 $121 $143 0 $111 $-1 #
ellipse-curve $-1 28 -45.6776700000001 5 -0 -0 -1 0 -21 0 1 #
edge $-1 $161 $119 $118 $165 0 #
point $-1 7 -45.67767 5 #
edge $-1 $166 $122 $139 $167 0 #
point $-1 49 -45.67767 5 #
coedge $-1 $168 $124 $169 $170 0 $106 $-1 #
coedge $-1 $158 $171 $124 $147 0 $131 $-1 #
edge $-1 $172 $148 $146 $173 0 #
vertex $-1 $147 $174 #
straight-curve $-1 49 -1.49862293115368 16.1790470688464 0 -0.707106781186546 -0.707106781186549 #
coedge $-1 $126 $168 $175 $176 0 $106 $-1 #
coedge $-1 $177 $134 $126 $152 0 $131 $-1 #
edge $-1 $136 $178 $151 $173 0 #
face $-1 $179 $180 $2 $-1 $181 0 #
plane-surface $-1 28 1.84158913769268 19.5192591376927 0 -0.707106781186549 0.707106781186546 1 0 0 0 #
face $-1 $182 $183 $2 $-1 $184 0 #
loop $-1 $185 $186 $130 #
cone-surface $-1 28 43.1611645927213 43.1611650630578 0 -0.707106781186549 0.707106781186546 25 0 0 1 0 1 0 #
coedge $-1 $160 $146 $133 $159 0 $131 $-1 #
edge $-1 $148 $166 $158 $187 0 #
coedge $-1 $134 $158 $164 $188 0 $131 $-1 #
vertex $-1 $188 $189 #
straight-curve $-1 7 -49.4982913358899 0 0 1 -0 #
point $-1 7 -17.67767 0 #
coedge $-1 $139 $138 $160 $188 1 $111 $-1 #
straight-curve $-1 7 -45.67767 0 0 0 1 #
vertex $-1 $159 $190 #
straight-curve $-1 49 -45.67767 0 0 0 1 #
coedge $-1 $150 $145 $191 $192 0 $106 $-1 #
coedge $-1 $193 $194 $145 $170 1 $180 $-1 #
edge $-1 $172 $195 $145 $196 0 #
coedge $-1 $146 $197 $198 $199 0 $131 $-1 #
vertex $-1 $199 $200 #
straight-curve $-1 14 -17.67767 0 -1 0 0 #
point $-1 49 -17.67767 0 #
coedge $-1 $201 $202 $150 $176 1 $203 $-1 #
edge $-1 $204 $178 $150 $205 0 #
coedge $-1 $206 $151 $207 $208 0 $131 $-1 #
vertex $-1 $152 $209 #
face $-1 $210 $203 $2 $-1 $211 0 #
loop $-1 $-1 $212 $153 #
plane-surface $-1 56 -17.67767 0 0.980723075323921 0.138170636401499 0.1381706364015 0 0.707106781186549 -0.707106781186546 0 #
face $-1 $213 $214 $2 $-1 $184 0 #
loop $-1 $-1 $215 $155 #
plane-surface $-1 28 35.7365433902625 57.656854077382 0 -0.707106781186546 -0.707106781186549 0 0.707106781186549 -0.707106781186546 0 #
loop $-1 $216 $217 $130 #
coedge $-1 $186 $186 $218 $219 1 $156 $-1 #
straight-curve $-1 49 -22.6594563358899 0 0 -1 0 #
edge $-1 $166 $161 $160 $220 0 #
point $-1 7 -45.67767 0 #
point $-1 49 -45.67767 0 #
coedge $-1 $221 $222 $168 $192 1 $216 $-1 #
edge $-1 $195 $204 $168 $223 0 #
coedge $-1 $212 $169 $224 $225 1 $180 $-1 #
coedge $-1 $169 $212 $221 $226 0 $180 $-1 #
vertex $-1 $170 $227 #
straight-curve $-1 56 -17.67767 0 -0.195402787920722 0.693475937027669 0.693475937027671 #
coedge $-1 $171 $228 $229 $230 0 $131 $-1 #
coedge $-1 $231 $224 $171 $199 1 $232 $-1 #
edge $-1 $233 $172 $171 $234 0 #
point $-1 56 -17.67767 0 #
coedge $-1 $235 $175 $222 $236 0 $203 $-1 #
coedge $-1 $175 $235 $237 $238 1 $203 $-1 #
loop $-1 $-1 $235 $179 #
vertex $-1 $192 $239 #
straight-curve $-1 11 21.3608482753854 39.0385182753855 -0.195402787920722 -0.693475937027669 -0.693475937027671 #
coedge $-1 $228 $177 $240 $241 0 $131 $-1 #
coedge $-1 $237 $242 $177 $208 1 $243 $-1 #
edge $-1 $178 $244 $177 $245 0 #
point $-1 0 -17.67767 0 #
face $-1 $246 $247 $2 $-1 $248 1 #
plane-surface $-1 11 21.3608482753854 39.0385182753855 -0.980723075323921 0.138170636401499 0.1381706364015 0 -0.707106781186549 0.707106781186546 0 #
coedge $-1 $194 $193 $249 $250 0 $180 $-1 #
face $-1 $251 $252 $2 $-1 $253 0 #
loop $-1 $-1 $254 $182 #
coedge $-1 $255 $256 $257 $258 1 $183 $-1 #
loop $-1 $-1 $222 $130 #
coedge $-1 $259 $260 $261 $262 0 $185 $-1 #
coedge $-1 $218 $218 $186 $219 0 $263 $-1 #
edge $-1 $264 $264 $218 $265 0 #
ellipse-curve $-1 28 -45.6776700000001 0 -0 -0 -1 0 -21 0 1 #
coedge $-1 $266 $191 $194 $226 1 $216 $-1 #
coedge $-1 $191 $266 $201 $236 1 $216 $-1 #
ellipse-curve $-1 28 34.3223298278895 51.9999998278896 -0 0.707106781186549 -0.707106781186546 25 0 0 1 #
coedge $-1 $198 $267 $193 $225 0 $232 $-1 #
edge $-1 $268 $172 $224 $269 0 #
edge $-1 $270 $195 $194 $271 1 #
point $-1 45 21.3608482753854 39.0385182753855 #
coedge $-1 $197 $206 $272 $273 0 $131 $-1 #
coedge $-1 $274 $275 $197 $230 1 $276 $-1 #
edge $-1 $277 $233 $197 $278 0 #
coedge $-1 $279 $198 $275 $280 0 $232 $-1 #
loop $-1 $-1 $224 $281 #
vertex $-1 $230 $282 #
straight-curve $-1 56 -67.67767 0 0 1 0 #
coedge $-1 $202 $201 $283 $284 0 $203 $-1 #
edge $-1 $204 $285 $201 $286 0 #
coedge $-1 $287 $207 $202 $238 0 $243 $-1 #
edge $-1 $178 $288 $237 $289 0 #
point $-1 11 21.3608482753854 39.0385182753855 #
coedge $-1 $290 $291 $206 $241 1 $292 $-1 #
edge $-1 $244 $293 $206 $294 0 #
coedge $-1 $207 $295 $290 $296 1 $243 $-1 #
loop $-1 $-1 $237 $246 #
vertex $-1 $208 $297 #
straight-curve $-1 0 0 0 0 -1 0 #
face $-1 $298 $243 $2 $-1 $299 0 #
loop $-1 $-1 $300 $210 #
plane-surface $-1 56 -4.70336278368677e-07 -17.6776695296637 0 -0.707106781186549 0.707106781186546 1 0 0 0 #
coedge $-1 $301 $300 $212 $250 1 $247 $-1 #
edge $-1 $268 $270 $212 $302 0 #
face $-1 $303 $304 $2 $-1 $305 0 #
loop $-1 $-1 $306 $213 #
plane-surface $-1 28 28.6654755783971 50.5857862655165 0 0.707106781186546 0.707106781186549 0 -0.707106781186549 0.707106781186546 0 #
coedge $-1 $307 $308 $309 $310 1 $214 $-1 #
coedge $-1 $311 $215 $312 $313 1 $183 $-1 #
coedge $-1 $215 $311 $314 $315 0 $183 $-1 #
coedge $-1 $316 $317 $215 $258 0 $318 $-1 #
edge $-1 $319 $320 $257 $321 0 #
coedge $-1 $322 $217 $323 $324 1 $185 $-1 #
coedge $-1 $217 $325 $326 $327 0 $185 $-1 #
coedge $-1 $328 $329 $217 $262 1 $330 $-1 #
edge $-1 $331 $332 $217 $333 0 #
loop $-1 $-1 $218 $334 #
vertex $-1 $219 $335 #
ellipse-curve $-1 28 54.8284264822994 31.4939031734798 0 0.707106781186549 -0.707106781186546 25 0 0 1 #
coedge $-1 $222 $221 $300 $336 1 $216 $-1 #
coedge $-1 $224 $279 $337 $338 1 $232 $-1 #
vertex $-1 $225 $339 #
straight-curve $-1 56 -30.17767 12.5 0 -0.707106781186549 0.707106781186546 #
vertex $-1 $226 $340 #
straight-curve $-1 45 21.3608482753854 39.0385182753855 0 0.707106781186549 -0.707106781186546 #
coedge $-1 $341 $342 $228 $273 1 $343 $-1 #
edge $-1 $293 $277 $228 $344 0 #
coedge $-1 $345 $229 $342 $346 0 $276 $-1 #
coedge $-1 $229 $345 $231 $280 1 $276 $-1 #
loop $-1 $-1 $345 $347 #
vertex $-1 $273 $348 #
ellipse-curve $-1 50 -67.67767 0 0 0 1 4.24264068711928 -4.24264068711928 0 1 #
coedge $-1 $267 $231 $349 $350 0 $232 $-1 #
edge $-1 $233 $351 $231 $352 0 #
face $-1 $353 $232 $2 $-1 $354 0 #
point $-1 56 -67.67767 0 #
coedge $-1 $300 $301 $235 $284 1 $247 $-1 #
edge $-1 $285 $288 $235 $355 0 #
vertex $-1 $236 $356 #
straight-curve $-1 11 21.3608482753854 39.0385182753855 0 0.707106781186549 -0.707106781186546 #
coedge $-1 $295 $237 $357 $358 0 $243 $-1 #
vertex $-1 $359 $360 #
straight-curve $-1 0 -13.2582525 -4.4194175 0 0.707106781186549 -0.707106781186546 #
coedge $-1 $361 $240 $242 $296 0 $292 $-1 #
coedge $-1 $240 $361 $341 $362 1 $292 $-1 #
loop $-1 $-1 $361 $363 #
vertex $-1 $241 $364 #
ellipse-curve $-1 5.99999999999999 -67.67767 0 0 0 1 -4.24264068711928 -4.24264068711928 0 1 #
coedge $-1 $242 $287 $365 $366 0 $243 $-1 #
edge $-1 $244 $367 $290 $368 0 #
point $-1 0 -67.67767 0 #
face $-1 $369 $370 $2 $-1 $371 0 #
plane-surface $-1 0 0 0 -1 0 0 0 -0 1 0 #
coedge $-1 $249 $283 $266 $336 0 $247 $-1 #
coedge $-1 $283 $249 $372 $359 1 $247 $-1 #
straight-curve $-1 56 -4.70336278368677e-07 -17.6776695296637 -0.195402787920722 0.693475937027669 0.693475937027671 #
face $-1 $373 $374 $2 $-1 $305 0 #
loop $-1 $-1 $375 $251 #
plane-surface $-1 28 35.7365433902626 50.5857862655165 0 -0.707106781186549 0.707106781186546 1 0 0 0 #
coedge $-1 $376 $377 $378 $379 1 $252 $-1 #
coedge $-1 $380 $254 $381 $382 0 $214 $-1 #
coedge $-1 $254 $380 $383 $384 1 $214 $-1 #
coedge $-1 $317 $385 $254 $310 0 $318 $-1 #
edge $-1 $386 $387 $309 $388 0 #
coedge $-1 $256 $255 $389 $390 1 $183 $-1 #
coedge $-1 $391 $392 $255 $313 0 $393 $-1 #
edge $-1 $394 $319 $312 $395 0 #
coedge $-1 $396 $375 $256 $315 1 $304 $-1 #
edge $-1 $397 $320 $256 $398 0 #
coedge $-1 $378 $257 $375 $399 0 $318 $-1 #
coedge $-1 $257 $309 $391 $400 1 $318 $-1 #
loop $-1 $401 $402 $403 #
vertex $-1 $313 $404 #
vertex $-1 $399 $405 #
straight-curve $-1 12.8013158464293 46.6966984986541 46.6966989689906 0 0.707106781186549 -0.707106781186546 #
coedge $-1 $406 $259 $407 $408 0 $185 $-1 #
coedge $-1 $409 $410 $259 $324 0 $411 $-1 #
edge $-1 $412 $332 $323 $413 0 #
coedge $-1 $260 $414 $380 $415 0 $185 $-1 #
coedge $-1 $381 $416 $260 $327 1 $374 $-1 #
edge $-1 $417 $331 $260 $418 0 #
coedge $-1 $419 $261 $416 $420 0 $330 $-1 #
coedge $-1 $261 $419 $409 $421 1 $330 $-1 #
loop $-1 $-1 $419 $373 #
vertex $-1 $327 $422 #
vertex $-1 $324 $423 #
straight-curve $-1 52.4948974278318 39.6256306867886 39.6256311571251 0 -0.707106781186549 0.707106781186546 #
face $-1 $424 $425 $2 $-1 $426 0 #
point $-1 53 54.8284264822994 31.4939031734798 #
edge $-1 $285 $270 $300 $427 0 #
coedge $-1 $428 $372 $267 $338 0 $370 $-1 #
edge $-1 $268 $429 $337 $430 0 #
point $-1 56 0 -17.6776699999999 #
point $-1 45 39.0385178050491 21.3608487457218 #
coedge $-1 $431 $272 $291 $362 0 $343 $-1 #
coedge $-1 $272 $432 $274 $346 1 $343 $-1 #
loop $-1 $-1 $433 $434 #
straight-curve $-1 6 -73.67767 0 1 0 0 #
coedge $-1 $275 $274 $435 $436 0 $276 $-1 #
edge $-1 $277 $437 $274 $438 0 #
face $-1 $281 $276 $2 $-1 $439 0 #
point $-1 50 -73.67767 0 #
coedge $-1 $435 $440 $279 $350 1 $441 $-1 #
edge $-1 $351 $429 $279 $442 0 #
vertex $-1 $280 $443 #
straight-curve $-1 56 -67.67767 0 0 0 -1 #
face $-1 $-1 $444 $2 $-1 $445 1 #
plane-surface $-1 56 -67.67767 0 1 0 0 0 0 -1 0 #
straight-curve $-1 11 39.0385178050491 21.3608487457218 -0.195402787920722 -0.693475937027669 -0.693475937027671 #
point $-1 11 39.0385178050491 21.3608487457218 #
coedge $-1 $372 $446 $287 $358 1 $370 $-1 #
edge $-1 $288 $447 $287 $448 0 #
edge $-1 $288 $268 $372 $449 0 #
point $-1 0 0 -17.6776699999999 #
coedge $-1 $291 $290 $450 $451 0 $292 $-1 #
edge $-1 $293 $452 $341 $453 0 #
face $-1 $347 $292 $2 $-1 $454 0 #
point $-1 6 -73.67767 0 #
coedge $-1 $455 $450 $295 $366 1 $444 $-1 #
edge $-1 $447 $367 $295 $456 0 #
vertex $-1 $296 $457 #
straight-curve $-1 0 -67.67767 0 0 0 -1 #
face $-1 $458 $459 $2 $-1 $460 1 #
loop $-1 $-1 $372 $298 #
plane-surface $-1 56 0 0 0 1 0 0 0 1 0 #
coedge $-1 $337 $357 $301 $359 0 $370 $-1 #
face $-1 $461 $330 $2 $-1 $253 0 #
loop $-1 $-1 $462 $303 #
coedge $-1 $314 $463 $316 $399 1 $304 $-1 #
coedge $-1 $407 $306 $463 $464 0 $252 $-1 #
coedge $-1 $306 $407 $410 $465 1 $252 $-1 #
coedge $-1 $466 $316 $306 $379 0 $318 $-1 #
edge $-1 $467 $468 $378 $469 0 #
coedge $-1 $308 $307 $325 $415 1 $214 $-1 #
coedge $-1 $462 $326 $307 $382 1 $374 $-1 #
edge $-1 $386 $417 $307 $398 0 #
coedge $-1 $392 $391 $308 $384 0 $393 $-1 #
edge $-1 $387 $470 $383 $395 0 #
coedge $-1 $309 $402 $462 $471 0 $318 $-1 #
vertex $-1 $471 $472 #
vertex $-1 $400 $473 #
straight-curve $-1 43.1986841535707 46.6966984986541 46.6966989689906 0 -0.707106781186549 0.707106781186546 #
coedge $-1 $414 $406 $311 $390 0 $185 $-1 #
edge $-1 $397 $394 $389 $474 0 #
coedge $-1 $383 $312 $317 $400 0 $393 $-1 #
coedge $-1 $312 $383 $414 $475 0 $393 $-1 #
loop $-1 $-1 $383 $461 #
vertex $-1 $475 $476 #
straight-curve $-1 28 35.029436609076 58.3639608585686 1 0 0 #
coedge $-1 $463 $314 $406 $477 1 $304 $-1 #
vertex $-1 $477 $478 #
straight-curve $-1 28 39.2720772961953 54.1213201714493 1 0 0 #
edge $-1 $320 $467 $316 $479 0 #
edge $-1 $319 $387 $391 $480 0 #
loop $-1 $-1 $481 $403 #
coedge $-1 $385 $466 $419 $482 0 $318 $-1 #
face $-1 $334 $318 $2 $-1 $483 1 #
point $-1 12.8013158464293 35.029436609076 58.3639608585686 #
point $-1 12.8013158464293 39.2720772961953 54.1213201714493 #
coedge $-1 $389 $322 $396 $477 0 $185 $-1 #
coedge $-1 $377 $376 $322 $408 1 $252 $-1 #
edge $-1 $412 $484 $322 $485 0 #
coedge $-1 $486 $323 $329 $421 0 $411 $-1 #
coedge $-1 $323 $486 $377 $465 0 $411 $-1 #
loop $-1 $-1 $409 $424 #
vertex $-1 $408 $487 #
ellipse-curve $-1 28 31.4939027031433 54.8284269526358 0 -0.707106781186549 0.707106781186546 25 0 0 1 #
coedge $-1 $325 $389 $392 $475 1 $185 $-1 #
edge $-1 $470 $417 $325 $488 0 #
coedge $-1 $326 $462 $328 $420 1 $374 $-1 #
vertex $-1 $327 $489 #
ellipse-curve $-1 28 35.7365433902626 50.5857862655165 -0 0.707106781186549 -0.707106781186546 25 0 0 1 #
coedge $-1 $329 $328 $402 $482 1 $330 $-1 #
edge $-1 $331 $490 $328 $491 0 #
edge $-1 $332 $492 $409 $493 0 #
point $-1 52.4948974278318 32.2010094843298 47.0502523595838 #
point $-1 52.4948974278318 27.9583687972105 51.2928930467031 #
face $-1 $127 $411 $2 $-1 $494 0 #
loop $-1 $263 $495 $334 #
plane-surface $-1 28 54.8284264822994 31.4939031734798 0 0.707106781186549 -0.707106781186546 -1 0 0 0 #
ellipse-curve $-1 28 51.9999993575532 34.322330298226 0 -0.707106781186549 0.707106781186546 25 0 0 1 #
coedge $-1 $496 $337 $440 $497 0 $370 $-1 #
vertex $-1 $338 $498 #
straight-curve $-1 56 0 0 0 0 -1 #
coedge $-1 $433 $341 $499 $500 0 $343 $-1 #
coedge $-1 $342 $501 $502 $503 0 $343 $-1 #
coedge $-1 $504 $431 $505 $506 0 $343 $-1 #
face $-1 $507 $343 $2 $-1 $508 0 #
coedge $-1 $502 $349 $345 $436 1 $441 $-1 #
edge $-1 $437 $351 $345 $509 0 #
vertex $-1 $346 $510 #
straight-curve $-1 50 -73.67767 0 0 0 -1 #
cone-surface $-1 50 -67.67767 0 0 0 -1 4.24264068711928 -4.24264068711928 0 1 0 1 0 #
coedge $-1 $349 $511 $428 $497 1 $441 $-1 #
loop $-1 $-1 $511 $507 #
straight-curve $-1 56 -67.67767 -25 0 1 0 #
point $-1 56 -67.67767 -25 #
loop $-1 $-1 $512 $353 #
plane-surface $-1 0 -67.67767 -25 -0 -0 1 1 -0 0 0 #
coedge $-1 $357 $513 $455 $514 0 $370 $-1 #
vertex $-1 $358 $515 #
straight-curve $-1 0 0 0 0 0 -1 #
straight-curve $-1 28 0 -17.6776699999999 1 0 0 #
coedge $-1 $365 $499 $361 $451 1 $444 $-1 #
edge $-1 $367 $452 $361 $516 0 #
vertex $-1 $362 $517 #
straight-curve $-1 6 -73.67767 0 0 0 -1 #
cone-surface $-1 5.99999999999999 -67.67767 0 0 0 -1 -4.24264068711928 -4.24264068711928 0 1 0 1 0 #
coedge $-1 $512 $365 $446 $514 1 $444 $-1 #
straight-curve $-1 0 0 -25 0 -1 0 #
point $-1 0 -67.67767 -25 #
face $-1 $518 $519 $2 $-1 $520 0 #
loop $-1 $-1 $521 $369 #
plane-surface $-1 40.5 -80 -18 0.866025403784438 0 0.500000000000001 0.500000000000001 0 -0.866025403784438 0 #
face $-1 $403 $393 $2 $-1 $494 0 #
coedge $-1 $416 $381 $385 $471 1 $374 $-1 #
coedge $-1 $375 $396 $376 $464 1 $304 $-1 #
edge $-1 $467 $484 $376 $491 0 #
edge $-1 $468 $412 $410 $493 0 #
coedge $-1 $402 $378 $486 $522 1 $318 $-1 #
vertex $-1 $399 $523 #
vertex $-1 $522 $524 #
straight-curve $-1 12.8013158464293 39.6256306867886 39.6256311571251 0 -0.707106781186549 0.707106781186546 #
vertex $-1 $415 $525 #
edge $-1 $490 $386 $385 $526 0 #
point $-1 43.1986841535707 39.2720772961953 54.1213201714493 #
point $-1 43.1986841535707 35.029436609076 58.3639608585686 #
straight-curve $-1 3.50510257216822 46.6966984986541 46.6966989689906 0 -0.707106781186549 0.707106781186546 #
edge $-1 $470 $394 $392 $413 0 #
point $-1 3.50510257216822 35.029436609076 58.3639608585686 #
edge $-1 $484 $397 $406 $527 0 #
point $-1 3.50510257216822 39.2720772961953 54.1213201714493 #
ellipse-curve $-1 28 35.7365433902626 50.5857862655165 0 -0.707106781186549 0.707106781186546 16 0 0 1 #
ellipse-curve $-1 28 31.4939027031433 54.8284269526358 -0 0.707106781186549 -0.707106781186546 16 0 0 1 #
coedge $-1 $481 $481 $495 $528 1 $401 $-1 #
edge $-1 $492 $490 $402 $529 0 #
cone-surface $-1 28 43.1611645927213 43.1611650630578 0 -0.707106781186549 0.707106781186546 16 0 0 1 0 1 0 #
vertex $-1 $477 $530 #
straight-curve $-1 3.50510257216822 39.6256306867886 39.6256311571251 -0 0.707106781186549 -0.707106781186546 #
coedge $-1 $410 $409 $466 $522 0 $411 $-1 #
point $-1 3.50510257216822 27.9583687972105 51.2928930467031 #
straight-curve $-1 52.4948974278318 46.6966984986541 46.6966989689906 -0 0.707106781186549 -0.707106781186546 #
point $-1 52.4948974278318 39.2720772961953 54.1213201714493 #
vertex $-1 $471 $531 #
straight-curve $-1 28 32.2010094843298 47.0502523595838 -1 0 0 #
vertex $-1 $421 $532 #
straight-curve $-1 28 27.9583687972105 51.2928930467031 -1 0 0 #
plane-surface $-1 28 31.4939027031433 54.8284269526358 0 -0.707106781186549 0.707106781186546 1 0 0 0 #
coedge $-1 $495 $495 $481 $528 0 $425 $-1 #
coedge $-1 $533 $428 $534 $535 0 $370 $-1 #
edge $-1 $429 $536 $428 $537 0 #
point $-1 56 0 -25 #
coedge $-1 $450 $512 $431 $500 1 $444 $-1 #
edge $-1 $452 $538 $431 $539 0 #
coedge $-1 $432 $504 $521 $540 0 $343 $-1 #
coedge $-1 $511 $435 $432 $503 1 $441 $-1 #
edge $-1 $541 $437 $432 $539 0 #
coedge $-1 $501 $433 $542 $543 0 $343 $-1 #
coedge $-1 $544 $545 $433 $506 1 $546 $-1 #
edge $-1 $538 $547 $433 $548 0 #
face $-1 $363 $441 $2 $-1 $445 1 #
plane-surface $-1 6 -73.67767 0 0 -1 0 0 0 -1 0 #
ellipse-curve $-1 50 -67.67767 -25 0 0 1 4.24264068711928 -4.24264068711928 0 1 #
point $-1 50 -73.67767 -25 #
coedge $-1 $440 $502 $549 $550 0 $441 $-1 #
coedge $-1 $499 $455 $544 $551 0 $444 $-1 #
coedge $-1 $446 $533 $552 $553 0 $370 $-1 #
edge $-1 $554 $447 $446 $537 0 #
point $-1 0 0 -25 #
ellipse-curve $-1 5.99999999999999 -67.67767 -25 0 0 1 -4.24264068711928 -4.24264068711928 0 1 #
point $-1 6 -73.67767 -25 #
face $-1 $434 $546 $2 $-1 $555 1 #
loop $-1 $-1 $542 $458 #
plane-surface $-1 28 -39.5 -18 0 0 -1 -1 0 0 0 #
coedge $-1 $556 $549 $501 $540 1 $459 $-1 #
edge $-1 $492 $468 $486 $480 0 #
point $-1 12.8013158464293 32.2010094843298 47.0502523595838 #
point $-1 12.8013158464293 27.9583687972105 51.2928930467031 #
point $-1 52.4948974278318 35.029436609076 58.3639608585686 #
ellipse-curve $-1 28 35.7365433902626 50.5857862655165 0 -0.707106781186549 0.707106781186546 16 0 0 1 #
ellipse-curve $-1 28 35.7365433902626 50.5857862655165 -0 0.707106781186549 -0.707106781186546 25 0 0 1 #
edge $-1 $557 $557 $495 $558 0 #
straight-curve $-1 43.1986841535707 39.6256306867886 39.6256311571251 0 0.707106781186549 -0.707106781186546 #
point $-1 3.50510257216822 32.2010094843298 47.0502523595838 #
point $-1 43.1986841535707 32.2010094843298 47.0502523595838 #
point $-1 43.1986841535707 27.9583687972105 51.2928930467031 #
coedge $-1 $513 $496 $559 $560 0 $370 $-1 #
coedge $-1 $549 $556 $496 $535 1 $459 $-1 #
edge $-1 $536 $561 $496 $562 0 #
vertex $-1 $497 $563 #
straight-curve $-1 56 0 -25 -1 0 0 #
vertex $-1 $500 $564 #
straight-curve $-1 6 -73.67767 -25 1 0 0 #
edge $-1 $565 $541 $501 $566 0 #
vertex $-1 $550 $567 #
coedge $-1 $568 $569 $504 $543 1 $519 $-1 #
edge $-1 $547 $565 $504 $570 0 #
coedge $-1 $552 $505 $512 $551 1 $546 $-1 #
coedge $-1 $505 $552 $568 $571 1 $546 $-1 #
loop $-1 $-1 $505 $518 #
vertex $-1 $506 $572 #
straight-curve $-1 18.20961431703 -73.67767 -13.3068103339881 0.500000000000001 0 0.866025403784438 #
coedge $-1 $521 $534 $511 $550 1 $459 $-1 #
edge $-1 $541 $536 $511 $573 0 #
edge $-1 $554 $538 $512 $574 0 #
coedge $-1 $545 $544 $513 $553 1 $546 $-1 #
edge $-1 $575 $554 $513 $576 0 #
vertex $-1 $553 $577 #
plane-surface $-1 15.5 1 -18 -0.866025403784438 0 0.500000000000001 0.500000000000001 0 0.866025403784438 0 #
coedge $-1 $534 $521 $569 $578 1 $459 $-1 #
vertex $-1 $528 $579 #
ellipse-curve $-1 28 54.8284264822994 31.4939031734798 0 -0.707106781186549 0.707106781186546 16 0 0 1 #
coedge $-1 $569 $568 $533 $560 1 $519 $-1 #
edge $-1 $561 $575 $533 $580 0 #
vertex $-1 $535 $581 #
straight-curve $-1 38.54038568297 0 -14.6058484396647 -0.500000000000001 0 0.866025403784438 #
point $-1 44.5414518843274 0 -25 #
point $-1 11.4585481156726 -73.67767 -25 #
vertex $-1 $540 $582 #
straight-curve $-1 32.29038568297 -73.67767 -3.78053089235922 0.500000000000001 0 -0.866025403784438 #
point $-1 44.5414518843274 -73.67767 -25 #
coedge $-1 $559 $542 $545 $571 0 $519 $-1 #
coedge $-1 $542 $559 $556 $578 0 $519 $-1 #
straight-curve $-1 17 -73.67767 -18 1 0 0 #
edge $-1 $547 $575 $545 $583 0 #
point $-1 15.5 -73.67767 -18 #
straight-curve $-1 44.5414518843274 -73.838835 -25 -0 1 0 #
straight-curve $-1 11.4585481156726 -33.338835 -25 -0 -1 -0 #
vertex $-1 $553 $584 #
straight-curve $-1 24.45961431703 0 -2.48149278668256 -0.500000000000001 0 -0.866025403784438 #
point $-1 11.4585481156726 0 -25 #
edge $-1 $561 $565 $556 $585 0 #
point $-1 12 54.8284264822995 31.4939031734799 #
straight-curve $-1 42 0 -18 -1 0 0 #
point $-1 40.5 0 -18 #
point $-1 40.5 -73.67767 -18 #
straight-curve $-1 15.5 -80 -18 0 1 0 #
point $-1 15.5 0 -18 #
straight-curve $-1 40.5 1 -18 0 -1 0 #
