600 0 2 0           
24 FBMach with ACIS - 6.0.3 13 ACIS 6.0.3 NT 24 Tue May 22 16:55:28 2001 
1 9.9999999999999995e-007 1e-010 
body $2 $3 $-1 $4 #
bdycol-kcp $-1 1 1 $5 #
model_id-kcp-attrib $-1 $-1 $-1 $0 1 990564928 80 1682964481 1 #
lump $-1 $-1 $6 $0 #
transform $-1 -3.4914813388431298e-015 1 0 -1 -3.4914813388431298e-015 0 0 0 1 25 0 20 1 rotate no_reflect no_shear #
body $7 $8 $-1 $9 #
shell $-1 $-1 $-1 $10 $-1 $3 #
model_id-kcp-attrib $-1 $-1 $-1 $5 1 990564928 80 1682964482 1 #
lump $-1 $-1 $11 $5 #
transform $-1 1 0 0 0 1 0 0 0 1 24.999999999999915 0 20.000000000000021 1 no_rotate no_reflect no_shear #
face $12 $13 $14 $6 $-1 $15 reversed single #
shell $-1 $-1 $-1 $16 $-1 $8 #
model_id-kcp-attrib $-1 $-1 $-1 $10 1 990564928 80 1682964481 2 #
face $17 $18 $19 $6 $-1 $20 forward single #
loop $-1 $-1 $21 $10 #
plane-surface $-1 75 0 0 -1 0 0 0 0 1 forward_v I I I I #
face $22 $23 $24 $11 $-1 $25 forward single #
model_id-kcp-attrib $-1 $-1 $-1 $13 1 990564928 80 1682964481 3 #
face $26 $27 $28 $6 $-1 $29 reversed single #
loop $-1 $-1 $30 $13 #
plane-surface $-1 0 0 62.5 0 0 1 1 0 0 forward_v I I I I #
coedge $-1 $31 $32 $33 $34 forward $14 $-1 #
model_id-kcp-attrib $-1 $-1 $-1 $16 1 990564928 80 1682964482 3 #
face $35 $36 $37 $11 $-1 $38 reversed single #
loop $-1 $-1 $39 $16 #
plane-surface $-1 0 0 62.500000000000021 0 0 1 1 0 0 forward_v I I I I #
model_id-kcp-attrib $-1 $-1 $-1 $18 1 990564928 80 1682964481 4 #
face $40 $41 $42 $6 $-1 $43 reversed single #
loop $-1 $-1 $44 $18 #
plane-surface $-1 74.246212024587393 2.0903533272548799e-015 26.8198051533948 -0.70710678118654602 -1.02263120776087e-015 -0.70710678118654902 -0.70710678118654902 2.4688501310822701e-015 0.70710678118654602 forward_v I I I I #
coedge $-1 $45 $46 $44 $47 forward $19 $-1 #
coedge $-1 $48 $21 $49 $50 forward $14 $-1 #
coedge $-1 $21 $48 $51 $52 forward $14 $-1 #
coedge $-1 $53 $54 $21 $34 reversed $55 $-1 #
edge $56 $57 -49.999999999999915 $58 50.000000000000085 $33 $59 forward 7 unknown #
model_id-kcp-attrib $-1 $-1 $-1 $23 1 990564928 80 1682964482 5 #
face $60 $61 $62 $11 $-1 $63 reversed single #
loop $-1 $-1 $64 $23 #
plane-surface $-1 0 0 -62.500000000000021 0 0 1 1 0 0 forward_v I I I I #
coedge $-1 $65 $66 $67 $68 forward $24 $-1 #
model_id-kcp-attrib $-1 $-1 $-1 $27 1 990564928 80 1682964481 5 #
face $69 $70 $71 $6 $-1 $72 forward single #
loop $-1 $-1 $51 $27 #
plane-surface $-1 0 50 0 0 -1 0 0 0 -1 forward_v I I I I #
coedge $-1 $73 $74 $30 $47 reversed $28 $-1 #
coedge $-1 $75 $30 $76 $77 forward $19 $-1 #
coedge $-1 $30 $75 $78 $79 forward $19 $-1 #
edge $80 $81 -50 $82 50 $44 $83 forward 7 unknown #
coedge $-1 $32 $31 $84 $85 reversed $14 $-1 #
coedge $-1 $86 $87 $31 $50 reversed $88 $-1 #
edge $89 $58 -55.000000000000099 $90 62.5 $49 $91 forward 7 unknown #
coedge $-1 $92 $93 $32 $52 reversed $42 $-1 #
edge $94 $95 -62.5 $57 54.999999999999702 $51 $96 forward 7 unknown #
coedge $-1 $97 $33 $93 $98 reversed $55 $-1 #
coedge $-1 $33 $97 $86 $99 reversed $55 $-1 #
loop $-1 $-1 $33 $100 #
attrib_edge_convexity-kcp-attrib $-1 $101 $-1 $34 1 #
vertex $-1 $98 $102 #
vertex $-1 $99 $103 #
straight-curve $-1 75 8.66140967121845e-014 54.999999999999901 0 -1 3.4914813388431499e-015 I I #
model_id-kcp-attrib $-1 $-1 $-1 $36 1 990564928 80 1682964482 7 #
face $104 $105 $106 $11 $-1 $107 reversed single #
loop $-1 $-1 $108 $36 #
plane-surface $-1 0 -75.000000000000171 0 0 1 0 0 0 1 forward_v I I I I #
coedge $-1 $109 $110 $111 $112 forward $37 $-1 #
coedge $-1 $113 $39 $114 $115 forward $24 $-1 #
coedge $-1 $39 $113 $116 $117 forward $24 $-1 #
coedge $-1 $118 $119 $39 $68 reversed $120 $-1 #
edge $-1 $121 -75.000000000000171 $122 75.000000000000171 $67 $123 forward 7 unknown #
model_id-kcp-attrib $-1 $-1 $-1 $41 1 990564928 80 1682964481 6 #
face $124 $125 $126 $6 $-1 $127 reversed single #
loop $-1 $-1 $128 $41 #
plane-surface $-1 -22.980970388562799 7.9696145937831403e-014 17.980970388562799 -0.70710678118654902 2.4688501310822701e-015 0.70710678118654602 0.70710678118654602 1.02263120776087e-015 0.70710678118654902 forward_v I I I I #
coedge $-1 $129 $44 $130 $131 reversed $28 $-1 #
coedge $-1 $44 $129 $132 $133 reversed $28 $-1 #
coedge $-1 $46 $45 $128 $134 forward $19 $-1 #
coedge $-1 $132 $135 $45 $77 reversed $42 $-1 #
edge $136 $82 -38.566017177981998 $137 -21.538059222874399 $76 $138 forward 7 unknown #
coedge $-1 $139 $130 $46 $79 reversed $88 $-1 #
edge $140 $141 21.5380592228741 $81 38.566017177982097 $78 $142 forward 7 unknown #
attrib_edge_convexity-kcp-attrib $-1 $143 $-1 $47 1 #
vertex $-1 $79 $144 #
vertex $-1 $77 $145 #
straight-curve $-1 38.566017177982097 3.1319420961176899e-015 62.5 -1.44621892332141e-015 1 0 I I #
coedge $-1 $146 $147 $48 $85 forward $126 $-1 #
edge $148 $95 -50 $90 50 $48 $149 forward 7 unknown #
coedge $-1 $130 $49 $54 $99 forward $88 $-1 #
coedge $-1 $49 $150 $146 $151 reversed $88 $-1 #
loop $-1 $-1 $49 $125 #
attrib_edge_convexity-kcp-attrib $-1 $152 $-1 $50 1 #
vertex $-1 $151 $153 #
straight-curve $-1 75 -50 0 0 0 -1 I I #
coedge $-1 $154 $51 $147 $155 reversed $42 $-1 #
coedge $-1 $51 $132 $53 $98 forward $42 $-1 #
attrib_edge_convexity-kcp-attrib $-1 $156 $-1 $52 1 #
vertex $-1 $155 $157 #
straight-curve $-1 75 50 0 0 0 1 I I #
coedge $-1 $54 $53 $129 $158 forward $55 $-1 #
edge $159 $160 -33.933982822017498 $57 -4.9999999999999005 $53 $161 forward 7 unknown #
edge $162 $58 4.9999999999996021 $163 33.933982822017406 $54 $164 reversed 7 unknown #
face $165 $-1 $55 $6 $-1 $166 reversed single #
convexity-sys-attrib $-1 $-1 $56 $34 #
point $-1 75 50 54.999999999999702 #
point $-1 75 -50 55.000000000000099 #
model_id-kcp-attrib $-1 $-1 $-1 $61 1 990564928 80 1682964482 4 #
face $167 $168 $169 $11 $-1 $170 reversed single #
loop $-1 $-1 $171 $61 #
plane-surface $-1 -50.000000000000341 0 0 1 0 0 0 0 -1 forward_v I I I I #
coedge $-1 $172 $116 $173 $174 forward $62 $-1 #
coedge $-1 $175 $64 $172 $176 forward $37 $-1 #
coedge $-1 $64 $175 $177 $178 forward $37 $-1 #
coedge $-1 $119 $118 $64 $112 reversed $120 $-1 #
edge $-1 $179 -75.000000000000171 $180 75.000000000000171 $111 $181 forward 7 unknown #
coedge $-1 $66 $65 $182 $183 forward $24 $-1 #
coedge $-1 $184 $185 $65 $115 reversed $169 $-1 #
edge $-1 $122 -50.000000000000341 $186 50.000000000000341 $114 $187 forward 7 unknown #
coedge $-1 $108 $188 $66 $117 reversed $62 $-1 #
edge $-1 $189 -50.000000000000341 $121 50.000000000000341 $116 $190 forward 7 unknown #
coedge $-1 $111 $67 $188 $191 forward $120 $-1 #
coedge $-1 $67 $111 $184 $192 reversed $120 $-1 #
loop $-1 $-1 $118 $168 #
vertex $-1 $68 $193 #
vertex $-1 $68 $194 #
straight-curve $-1 50.000000000000341 0 62.500000000000021 0 1 0 I I #
model_id-kcp-attrib $-1 $-1 $-1 $70 1 990564928 80 1682964481 7 #
face $195 $196 $88 $6 $-1 $197 reversed single #
loop $-1 $-1 $146 $70 #
plane-surface $-1 0 0 -62.5 0 0 1 1 0 0 forward_v I I I I #
coedge $-1 $198 $199 $75 $134 reversed $71 $-1 #
coedge $-1 $74 $73 $97 $158 reversed $28 $-1 #
coedge $-1 $78 $86 $73 $131 forward $88 $-1 #
edge $200 $163 39.852813742385408 $81 50.459415460183692 $73 $201 reversed 7 unknown #
coedge $-1 $93 $76 $74 $133 forward $42 $-1 #
edge $202 $82 -50.459415460184047 $160 -39.852813742385266 $74 $203 forward 7 unknown #
edge $204 $137 -50.000000000000078 $141 49.999999999999922 $128 $205 forward 7 unknown #
coedge $-1 $76 $206 $198 $207 forward $42 $-1 #
attrib_edge_convexity-kcp-attrib $-1 $208 $-1 $77 1 #
vertex $-1 $134 $209 #
straight-curve $-1 0 50 62.5 -1 0 0 I I #
coedge $-1 $210 $78 $199 $211 forward $88 $-1 #
attrib_edge_convexity-kcp-attrib $-1 $212 $-1 $79 1 #
vertex $-1 $211 $213 #
straight-curve $-1 0 -50 62.5 1 0 0 I I #
convexity-sys-attrib $-1 $-1 $80 $47 #
point $-1 38.566017177982097 -50 62.5 #
point $-1 38.566017177981998 50 62.5 #
coedge $-1 $214 $84 $87 $151 forward $126 $-1 #
coedge $-1 $84 $214 $92 $155 forward $126 $-1 #
attrib_edge_convexity-kcp-attrib $-1 $215 $-1 $85 1 #
straight-curve $-1 75 0 -62.5 0 -1 0 I I #
coedge $-1 $87 $210 $216 $217 forward $88 $-1 #
edge $-1 $90 -75 $218 75 $87 $219 forward 7 unknown #
convexity-sys-attrib $-1 $-1 $89 $50 #
point $-1 75 -50 -62.5 #
coedge $-1 $206 $92 $220 $221 reversed $42 $-1 #
edge $222 $223 -75 $95 75 $92 $224 forward 7 unknown #
convexity-sys-attrib $-1 $-1 $94 $52 #
point $-1 75 50 -62.5 #
edge $225 $160 -49.999999999999993 $163 50.000000000000007 $97 $226 forward 7 unknown #
attrib_edge_convexity-kcp-attrib $-1 $227 $-1 $98 1 #
vertex $-1 $98 $228 #
straight-curve $-1 79.999999999999901 50 54.999999999999801 1 -3.4914813388431298e-015 3.4914813388431298e-015 I I #
attrib_edge_convexity-kcp-attrib $-1 $229 $-1 $99 1 #
vertex $-1 $131 $230 #
straight-curve $-1 79.999999999999602 -50 55.000000000000099 1 -3.4914813388431298e-015 3.4914813388431298e-015 I I #
model_id-kcp-attrib $-1 $-1 $-1 $100 1 990564928 80 1682964481 11 #
plane-surface $-1 79.999999999999702 -1.8803280212003701e-014 54.999999999999901 3.4914813388431199e-015 -3.4914813388431499e-015 -1 -1 3.4914813388431298e-015 -3.4914813388431298e-015 forward_v I I I I #
model_id-kcp-attrib $-1 $-1 $-1 $105 1 990564928 80 1682964482 2 #
face $231 $-1 $120 $11 $-1 $232 reversed single #
loop $-1 $-1 $184 $105 #
plane-surface $-1 0 75.000000000000171 0 0 -1 0 0 0 -1 forward_v I I I I #
coedge $-1 $233 $182 $185 $234 forward $106 $-1 #
coedge $-1 $188 $108 $109 $176 reversed $62 $-1 #
coedge $-1 $182 $233 $108 $174 reversed $106 $-1 #
edge $-1 $189 -62.500000000000021 $235 62.500000000000021 $173 $236 forward 7 unknown #
coedge $-1 $110 $109 $233 $237 forward $37 $-1 #
edge $-1 $180 -50.000000000000341 $235 50.000000000000341 $172 $238 forward 7 unknown #
coedge $-1 $185 $184 $110 $178 reversed $169 $-1 #
edge $-1 $239 -50.000000000000341 $179 50.000000000000341 $177 $240 forward 7 unknown #
vertex $-1 $112 $241 #
vertex $-1 $191 $242 #
straight-curve $-1 50.000000000000341 0 -62.500000000000021 0 -1 0 I I #
coedge $-1 $171 $173 $113 $183 reversed $106 $-1 #
edge $-1 $186 -75.000000000000171 $189 75.000000000000171 $182 $243 forward 7 unknown #
coedge $-1 $177 $114 $119 $192 forward $169 $-1 #
coedge $-1 $114 $177 $171 $234 reversed $169 $-1 #
vertex $-1 $115 $244 #
straight-curve $-1 0 75.000000000000171 62.500000000000021 -1 0 0 I I #
coedge $-1 $116 $172 $118 $191 reversed $62 $-1 #
vertex $-1 $183 $245 #
straight-curve $-1 0 -75.000000000000171 62.500000000000021 1 0 0 I I #
edge $-1 $121 -62.500000000000021 $180 62.500000000000021 $118 $246 forward 7 unknown #
edge $-1 $122 -62.500000000000021 $179 62.500000000000021 $119 $247 forward 7 unknown #
point $-1 50.000000000000341 -75.000000000000171 62.500000000000021 #
point $-1 50.000000000000341 75.000000000000171 62.500000000000021 #
model_id-kcp-attrib $-1 $-1 $-1 $125 1 990564928 80 1682964481 8 #
face $248 $249 $250 $6 $-1 $251 reversed single #
plane-surface $-1 0 -50 0 0 1 0 0 0 1 forward_v I I I I #
coedge $-1 $252 $128 $135 $207 reversed $71 $-1 #
coedge $-1 $128 $252 $139 $211 reversed $71 $-1 #
attrib_edge_convexity-kcp-attrib $-1 $253 $-1 $131 1 #
straight-curve $-1 74.246212024587393 -50 26.819805153394899 0.70710678118654902 -2.4688501310822701e-015 -0.70710678118654602 I I #
attrib_edge_convexity-kcp-attrib $-1 $254 $-1 $133 1 #
straight-curve $-1 74.246212024587507 50 26.819805153394601 0.70710678118654902 -2.4688501310822701e-015 -0.70710678118654602 I I #
attrib_edge_convexity-kcp-attrib $-1 $255 $-1 $134 1 #
straight-curve $-1 21.538059222874299 -7.5470473512734903e-014 62.5 -3.4914813388431298e-015 -1 0 I I #
coedge $-1 $135 $154 $256 $257 forward $42 $-1 #
edge $258 $259 -32.499999999999659 $137 62.959415460184047 $135 $260 reversed 7 unknown #
convexity-sys-attrib $-1 $-1 $136 $77 #
point $-1 21.538059222874399 50 62.5 #
coedge $-1 $150 $139 $261 $262 forward $88 $-1 #
edge $263 $141 -62.959415460183692 $264 32.500000000000071 $139 $265 reversed 7 unknown #
convexity-sys-attrib $-1 $-1 $140 $79 #
point $-1 21.5380592228741 -50 62.5 #
coedge $-1 $147 $146 $266 $267 forward $126 $-1 #
convexity-sys-attrib $-1 $-1 $148 $85 #
coedge $-1 $268 $266 $150 $217 reversed $250 $-1 #
edge $-1 $269 5 $218 62.5 $216 $270 forward 7 unknown #
vertex $-1 $267 $271 #
straight-curve $-1 0 -50 -62.5 -1 0 0 I I #
coedge $-1 $266 $268 $154 $221 forward $250 $-1 #
edge $272 $273 5 $223 62.5 $154 $274 forward 7 unknown #
attrib_edge_convexity-kcp-attrib $-1 $275 $-1 $155 1 #
vertex $-1 $155 $276 #
straight-curve $-1 0 50 -62.5 1 0 0 I I #
attrib_edge_convexity-kcp-attrib $-1 $277 $-1 $158 2 #
straight-curve $-1 46.066017177982303 1.04358745301905e-013 54.999999999999801 -2.0452624155217498e-015 -1 3.4914813388431401e-015 I I #
convexity-sys-attrib $-1 $-1 $159 $98 #
point $-1 46.066017177982403 50.000000000000099 54.999999999999602 #
convexity-sys-attrib $-1 $-1 $162 $99 #
point $-1 46.066017177982197 -49.999999999999901 55 #
model_id-kcp-attrib $-1 $-1 $-1 $168 1 990564928 80 1682964482 6 #
plane-surface $-1 50.000000000000341 0 0 -1 0 0 0 0 1 forward_v I I I I #
coedge $-1 $173 $171 $175 $237 reversed $106 $-1 #
edge $-1 $186 -62.500000000000021 $239 62.500000000000021 $185 $278 forward 7 unknown #
vertex $-1 $237 $279 #
straight-curve $-1 -50.000000000000341 -75.000000000000171 0 0 0 -1 I I #
edge $-1 $235 -75.000000000000171 $239 75.000000000000171 $233 $280 forward 7 unknown #
straight-curve $-1 0 -75.000000000000171 -62.500000000000021 -1 0 0 I I #
vertex $-1 $178 $281 #
straight-curve $-1 0 75.000000000000171 -62.500000000000021 1 0 0 I I #
point $-1 50.000000000000341 75.000000000000171 -62.500000000000021 #
point $-1 50.000000000000341 -75.000000000000171 -62.500000000000021 #
straight-curve $-1 -50.000000000000341 0 62.500000000000021 0 -1 0 I I #
point $-1 -50.000000000000341 75.000000000000171 62.500000000000021 #
point $-1 -50.000000000000341 -75.000000000000171 62.500000000000021 #
straight-curve $-1 50.000000000000341 -75.000000000000171 0 0 0 -1 I I #
straight-curve $-1 50.000000000000341 75.000000000000171 0 0 0 -1 I I #
model_id-kcp-attrib $-1 $-1 $-1 $196 1 990564928 80 1682964481 9 #
face $282 $100 $283 $6 $-1 $284 forward single #
loop $-1 $-1 $216 $196 #
plane-surface $-1 -75 0 0 1 0 0 0 0 -1 forward_v I I I I #
coedge $-1 $199 $198 $285 $286 reversed $71 $-1 #
convexity-sys-attrib $-1 $-1 $200 $131 #
convexity-sys-attrib $-1 $-1 $202 $133 #
convexity-sys-attrib $-1 $-1 $204 $134 #
coedge $-1 $287 $285 $206 $257 reversed $283 $-1 #
edge $288 $273 -75 $259 -45.961940777125299 $206 $289 reversed 7 unknown #
attrib_edge_convexity-kcp-attrib $-1 $290 $-1 $207 1 #
vertex $-1 $207 $291 #
straight-curve $-1 -22.980970388562799 50.000000000000099 17.9809703885626 -0.70710678118654602 -1.02263120776087e-015 -0.70710678118654902 I I #
coedge $-1 $285 $287 $210 $262 reversed $283 $-1 #
edge $292 $264 45.961940777125697 $269 75 $210 $293 reversed 7 unknown #
attrib_edge_convexity-kcp-attrib $-1 $294 $-1 $211 1 #
vertex $-1 $262 $295 #
straight-curve $-1 -22.980970388562898 -49.999999999999901 17.980970388562898 0.70710678118654602 1.02263120776087e-015 0.70710678118654902 I I #
coedge $-1 $216 $220 $214 $267 reversed $250 $-1 #
edge $-1 $218 -50 $223 50 $266 $296 forward 7 unknown #
coedge $-1 $220 $216 $287 $297 forward $250 $-1 #
vertex $-1 $262 $298 #
straight-curve $-1 -75 -50 0 0 0 -1 I I #
point $-1 -75 -50 -62.5 #
attrib_edge_convexity-kcp-attrib $-1 $299 $-1 $221 1 #
vertex $-1 $297 $300 #
straight-curve $-1 -75 50 0 0 0 -1 I I #
convexity-sys-attrib $-1 $-1 $222 $155 #
point $-1 -75 50 -62.5 #
convexity-sys-attrib $-1 $-1 $225 $158 #
straight-curve $-1 -50.000000000000341 75.000000000000171 0 0 0 -1 I I #
point $-1 -50.000000000000341 -75.000000000000171 -62.500000000000021 #
straight-curve $-1 -50.000000000000341 0 -62.500000000000021 0 1 0 I I #
point $-1 -50.000000000000341 75.000000000000171 -62.500000000000021 #
model_id-kcp-attrib $-1 $-1 $-1 $249 1 990564928 80 1682964481 10 #
loop $-1 $-1 $285 $249 #
plane-surface $-1 0 0 -5 0 0 1 1 0 0 forward_v I I I I #
coedge $-1 $256 $261 $252 $286 forward $283 $-1 #
edge $301 $264 -50.000000000000163 $259 49.999999999999837 $285 $302 forward 7 unknown #
coedge $-1 $261 $256 $268 $297 reversed $283 $-1 #
attrib_edge_convexity-kcp-attrib $-1 $303 $-1 $257 1 #
straight-curve $-1 0 50 -5 -1 0 0 I I #
convexity-sys-attrib $-1 $-1 $258 $207 #
point $-1 -45.961940777125299 50 -5 #
attrib_edge_convexity-kcp-attrib $-1 $304 $-1 $262 1 #
straight-curve $-1 0 -50 -5 1 0 0 I I #
convexity-sys-attrib $-1 $-1 $263 $211 #
point $-1 -45.961940777125697 -50 -5 #
straight-curve $-1 -75 0 -62.5 0 1 0 I I #
edge $305 $269 -50 $273 50 $268 $306 reversed 7 unknown #
point $-1 -75 -50 -5 #
convexity-sys-attrib $-1 $-1 $272 $221 #
point $-1 -75 50 -5 #
attrib_edge_convexity-kcp-attrib $-1 $307 $-1 $286 2 #
straight-curve $-1 -45.961940777125498 1.6020451685917601e-013 -5 3.4914813388431298e-015 1 0 I I #
convexity-sys-attrib $-1 $-1 $288 $257 #
convexity-sys-attrib $-1 $-1 $292 $262 #
attrib_edge_convexity-kcp-attrib $-1 $308 $-1 $297 1 #
straight-curve $-1 -75 0 -5 0 -1 0 I I #
convexity-sys-attrib $-1 $-1 $301 $286 #
convexity-sys-attrib $-1 $-1 $305 $297 #
End-of-ACIS-data 