105 601 1 0                             
body $-1 $1 $-1 $-1 #
lump $-1 $-1 $2 $0 #
shell $-1 $-1 $-1 $3 $1 #
face $-1 $4 $5 $2 $-1 $6 forward single #
face $-1 $7 $8 $2 $-1 $9 forward single #
loop $-1 $-1 $10 $3 #
cone-surface $-1 -35 13.4999999999999 28 1 2.368475785867e-15 0 -1.00485917355762e-14 2.12132034355964 -2.12132034355964 1 0 -1 0 #
face $-1 $11 $12 $2 $-1 $13 forward single #
loop $-1 $-1 $14 $4 #
plane-surface $-1 0 0 25 0 0 1 1 0 0 0 #
coedge $-1 $15 $16 $17 $18 0 $5 $-1 #
face $-1 $19 $20 $2 $-1 $21 forward single #
loop $-1 $-1 $22 $7 #
cone-surface $-1 -35 -13.5000000000001 28 -1 -2.368475785867e-15 -0 1.00485917355762e-14 -2.12132034355964 -2.12132034355964 1 0 -1 0 #
coedge $-1 $23 $24 $25 $26 1 $8 $-1 #
coedge $-1 $25 $10 $27 $28 1 $5 $-1 #
coedge $-1 $10 $25 $29 $30 1 $5 $-1 #
coedge $-1 $31 $32 $10 $18 1 $33 $-1 #
edge $-1 $34 $35 $17 $36 0 #
face $-1 $37 $38 $2 $-1 $9 forward single #
loop $-1 $-1 $39 $11 #
cone-surface $-1 -13.5 33.25 28 0 1 0 -2.12132034355964 0 -2.12132034355964 1 0 -1 0 #
coedge $-1 $40 $41 $42 $43 0 $12 $-1 #
coedge $-1 $44 $14 $45 $46 1 $8 $-1 #
coedge $-1 $14 $47 $48 $49 0 $8 $-1 #
coedge $-1 $16 $15 $14 $26 0 $5 $-1 #
edge $-1 $50 $51 $14 $52 0 #
coedge $-1 $53 $45 $15 $28 0 $54 $-1 #
edge $-1 $50 $35 $27 $55 0 #
coedge $-1 $48 $56 $16 $30 0 $57 $-1 #
edge $-1 $34 $51 $29 $58 0 #
coedge $-1 $59 $17 $56 $60 0 $33 $-1 #
coedge $-1 $17 $61 $53 $62 1 $33 $-1 #
loop $-1 $-1 $31 $63 #
vertex $-1 $60 $64 #
vertex $-1 $62 $65 #
straight-curve $-1 -5.76094420909117e-14 16.5 28 -1 -3.49148133884313e-15 -0 #
face $-1 $66 $67 $2 $-1 $68 forward single #
loop $-1 $-1 $69 $19 #
coedge $-1 $70 $71 $72 $73 0 $20 $-1 #
coedge $-1 $74 $22 $75 $76 1 $12 $-1 #
coedge $-1 $22 $74 $77 $78 1 $12 $-1 #
coedge $-1 $79 $80 $22 $43 1 $81 $-1 #
edge $-1 $82 $83 $42 $84 0 #
coedge $-1 $85 $23 $74 $86 1 $8 $-1 #
coedge $-1 $27 $77 $23 $46 0 $54 $-1 #
edge $-1 $87 $50 $45 $88 0 #
coedge $-1 $24 $85 $89 $90 0 $8 $-1 #
coedge $-1 $91 $29 $24 $49 1 $57 $-1 #
edge $-1 $92 $51 $24 $93 0 #
vertex $-1 $46 $94 #
vertex $-1 $49 $95 #
straight-curve $-1 -5.05040147333107e-14 13.5 25 1 3.49148133884313e-15 0 #
coedge $-1 $96 $27 $32 $62 0 $54 $-1 #
loop $-1 $-1 $97 $98 #
ellipse-curve $-1 -50 13.4999999999998 28 1 0 0 -1.00485917355762e-14 2.12132034355964 -2.12132034355964 1 #
coedge $-1 $29 $99 $31 $60 1 $57 $-1 #
loop $-1 $-1 $91 $100 #
intcurve-curve $-1 1 { surfintcur nubs 3 open 9 
	15.504900998304 3 16.1434687648923 2 16.7820365314806 2 17.4206042980689 2 18.0591720646573 2 
	19.0005557587752 2 19.9419394528931 2 20.883323147011 2 21.8247068411289 3 
	-24.5825756949558 13.4999999999999 25 
	-24.4974333260774 13.6950856751166 25 
	-24.3972822903501 13.8900070398837 25.0192847552584 
	-24.1708139056068 14.2663218457507 25.0931942462018 
	-24.0445061364528 14.4477325729974 25.1477603093768 
	-23.7737115403607 14.7872872632151 25.2840544986835 
	-23.6290858318306 14.9456485600231 25.3658191855121 
	-23.3321833451704 15.2335388205468 25.5456871671279 
	-23.1799154236431 15.363091932141 25.6437664292808 
	-22.8099446899338 15.6449991795773 25.8907698612321 
	-22.5730941698668 15.7961915141539 26.0567215271969 
	-22.0783920696953 16.0561344944815 26.4141238564793 
	-21.820539457657 16.1649183992989 26.6055489004855 
	-21.297257576821 16.3366257726662 27.0000802585787 
	-21.0316711516872 16.3996041430263 27.2032911385803 
	-20.5070850525245 16.481298110513 27.6071758924292 
	-20.248076385463 16.4999999999999 27.8078408581029 
	-20 16.4999999999999 28 
	0.001 
	cone -35 13.4999999999999 28 1 2.368475785867e-15 0 -1.00485917355762e-14 2.12132034355964 -2.12132034355964 1 0 -1 0 
	cone -20 11.5000000000001 -12.5 -0 -3.5527136788005e-15 1 -3.53553390593274 3.53553390593273 1.25607396694702e-14 1 0 -1 0 
	nullbs 
	nullbs 
	} #
coedge $-1 $101 $31 $102 $103 1 $33 $-1 #
edge $-1 $34 $104 $31 $105 0 #
coedge $-1 $32 $106 $107 $108 1 $33 $-1 #
edge $-1 $35 $109 $53 $110 0 #
face $-1 $111 $33 $2 $-1 $112 forward single #
point $-1 -20 16.4999999999999 28 #
point $-1 -50 16.4999999999998 28 #
face $-1 $113 $114 $2 $-1 $115 forward single #
loop $-1 $-1 $116 $37 #
cone-surface $-1 13.5 33.25 28 0 -1 -0 2.12132034355964 0 -2.12132034355964 1 0 -1 0 #
coedge $-1 $117 $118 $119 $120 1 $38 $-1 #
coedge $-1 $119 $39 $121 $122 1 $20 $-1 #
coedge $-1 $39 $119 $123 $124 1 $20 $-1 #
coedge $-1 $125 $126 $39 $73 1 $127 $-1 #
edge $-1 $128 $129 $72 $130 0 #
coedge $-1 $41 $40 $44 $86 0 $12 $-1 #
coedge $-1 $131 $132 $40 $76 0 $133 $-1 #
edge $-1 $134 $83 $75 $135 0 #
coedge $-1 $45 $97 $41 $78 0 $54 $-1 #
edge $-1 $82 $87 $77 $136 0 #
coedge $-1 $137 $42 $97 $138 1 $81 $-1 #
coedge $-1 $42 $139 $131 $140 0 $81 $-1 #
loop $-1 $-1 $42 $141 #
vertex $-1 $138 $142 #
vertex $-1 $140 $143 #
straight-curve $-1 5.76094420909117e-14 -16.5 28 1 3.49148133884313e-15 0 #
coedge $-1 $47 $44 $132 $144 0 $8 $-1 #
edge $-1 $134 $87 $44 $145 0 #
vertex $-1 $46 $146 #
straight-curve $-1 -50 0 25 0 1 0 #
coedge $-1 $147 $148 $47 $90 1 $149 $-1 #
edge $-1 $150 $92 $47 $151 0 #
coedge $-1 $99 $48 $148 $152 0 $57 $-1 #
vertex $-1 $90 $153 #
ellipse-curve $-1 -20 11.4999999999999 25 -0 -0 -1 -3.53553390593274 3.53553390593273 1.25607396694702e-14 1 #
point $-1 -50 13.4999999999998 25 #
point $-1 -24.5825756949558 13.4999999999999 25 #
coedge $-1 $154 $53 $155 $156 1 $54 $-1 #
coedge $-1 $77 $157 $79 $138 0 $54 $-1 #
face $-1 $158 $54 $2 $-1 $159 reversed single #
coedge $-1 $56 $91 $160 $161 1 $57 $-1 #
face $-1 $63 $57 $2 $-1 $162 forward single #
coedge $-1 $163 $59 $164 $165 0 $33 $-1 #
coedge $-1 $160 $166 $59 $103 0 $167 $-1 #
edge $-1 $168 $104 $102 $169 0 #
vertex $-1 $103 $170 #
straight-curve $-1 -20 16.4999999999999 -12.5 0 3.5527136788005e-15 -1 #
coedge $-1 $61 $121 $126 $171 1 $33 $-1 #
coedge $-1 $172 $155 $61 $108 0 $173 $-1 #
edge $-1 $109 $174 $107 $175 0 #
vertex $-1 $156 $176 #
straight-curve $-1 -50 16.4999999999998 18.75 -0 0 1 #
face $-1 $177 $178 $2 $-1 $179 forward single #
plane-surface $-1 -5.76094420909117e-14 16.5 37.5 3.49148133884313e-15 -1 0 0 0 1 0 #
face $-1 $180 $181 $2 $-1 $9 forward single #
loop $-1 $-1 $182 $66 #
cone-surface $-1 35 13.5000000000001 28 1 2.368475785867e-15 0 -1.00485917355762e-14 2.12132034355964 -2.12132034355964 1 0 -1 0 #
coedge $-1 $183 $184 $185 $186 0 $67 $-1 #
coedge $-1 $187 $69 $188 $189 0 $38 $-1 #
coedge $-1 $69 $187 $190 $191 1 $38 $-1 #
coedge $-1 $71 $70 $69 $120 0 $20 $-1 #
edge $-1 $192 $193 $69 $194 0 #
coedge $-1 $106 $188 $70 $122 0 $33 $-1 #
edge $-1 $192 $129 $121 $195 0 #
coedge $-1 $190 $196 $71 $124 0 $197 $-1 #
edge $-1 $128 $193 $123 $198 0 #
coedge $-1 $199 $72 $196 $200 1 $127 $-1 #
coedge $-1 $72 $199 $106 $171 0 $127 $-1 #
loop $-1 $-1 $72 $201 #
vertex $-1 $200 $202 #
vertex $-1 $171 $203 #
straight-curve $-1 -16.5 0 28 -0 -1 -0 #
coedge $-1 $204 $75 $80 $140 1 $133 $-1 #
coedge $-1 $75 $205 $85 $144 1 $133 $-1 #
loop $-1 $-1 $205 $206 #
vertex $-1 $76 $207 #
intcurve-curve $-1 1 { surfintcur nubs 3 open 9 
	0 3 0.941383694117905 2 1.88276738823581 2 2.82415108235371 2 3.76553477647162 2 
	4.40410254305992 2 5.04267030964823 2 5.68123807623653 2 6.31980584282484 3 
	-20 -16.5000000000001 28 
	-20.248076385463 -16.5000000000001 27.8078408581029 
	-20.5070850525245 -16.4812981105131 27.6071758924292 
	-21.0316711516872 -16.3996041430264 27.2032911385803 
	-21.297257576821 -16.3366257726664 27.0000802585786 
	-21.8205394576569 -16.1649183992991 26.6055489004855 
	-22.0783920696953 -16.0561344944817 26.4141238564793 
	-22.5730941698668 -15.796191514154 26.0567215271969 
	-22.8099446899338 -15.6449991795774 25.8907698612321 
	-23.179915423643 -15.3630919321412 25.6437664292807 
	-23.3321833451704 -15.2335388205469 25.5456871671278 
	-23.6290858318306 -14.9456485600233 25.365819185512 
	-23.7737115403607 -14.7872872632153 25.2840544986835 
	-24.0445061364527 -14.4477325729976 25.1477603093768 
	-24.1708139056068 -14.2663218457509 25.0931942462018 
	-24.3972822903501 -13.8900070398838 25.0192847552584 
	-24.4974333260774 -13.6950856751167 25 
	-24.5825756949558 -13.5000000000001 25 
	0.001 
	cone -35 -13.5000000000001 28 -1 -2.368475785867e-15 -0 1.00485917355762e-14 -2.12132034355964 -2.12132034355964 1 0 -1 0 
	cone -20 -11.4999999999999 -12.5 -0 3.5527136788005e-15 -1 -3.53553390593273 -3.53553390593274 -1.25607396694702e-14 1 0 -1 0 
	nullbs 
	nullbs 
	} #
ellipse-curve $-1 -50 -13.5000000000002 28 1 0 0 1.00485917355762e-14 -2.12132034355964 -2.12132034355964 1 #
coedge $-1 $208 $79 $209 $210 1 $81 $-1 #
edge $-1 $211 $82 $97 $212 0 #
coedge $-1 $80 $213 $214 $215 1 $81 $-1 #
edge $-1 $216 $83 $80 $217 0 #
face $-1 $206 $81 $2 $-1 $218 forward single #
point $-1 -50 -16.5000000000002 28 #
point $-1 -20 -16.5000000000001 28 #
edge $-1 $134 $150 $85 $219 0 #
straight-curve $-1 5.05040147333107e-14 -13.5 25 -1 -3.49148133884313e-15 0 #
point $-1 -50 -13.5000000000002 25 #
coedge $-1 $220 $89 $205 $221 1 $149 $-1 #
coedge $-1 $89 $220 $91 $152 1 $149 $-1 #
loop $-1 $-1 $148 $222 #
vertex $-1 $90 $223 #
straight-curve $-1 -25 0 25 0 1 0 #
edge $-1 $92 $224 $148 $225 0 #
point $-1 -25 11.4999999999999 25 #
coedge $-1 $226 $96 $227 $228 0 $54 $-1 #
coedge $-1 $107 $229 $96 $156 0 $173 $-1 #
edge $-1 $230 $109 $96 $231 0 #
coedge $-1 $97 $232 $233 $234 1 $54 $-1 #
face $-1 $201 $173 $2 $-1 $235 forward single #
plane-surface $-1 -50 0 0 1 0 0 0 0 -1 0 #
coedge $-1 $236 $102 $99 $161 0 $167 $-1 #
edge $-1 $104 $224 $160 $237 0 #
cone-surface $-1 -20 11.5000000000001 -12.5 -0 -3.5527136788005e-15 1 -3.53553390593274 3.53553390593273 1.25607396694702e-14 1 0 -1 0 #
coedge $-1 $238 $101 $182 $239 1 $33 $-1 #
coedge $-1 $240 $241 $101 $165 1 $178 $-1 #
edge $-1 $168 $242 $101 $243 0 #
coedge $-1 $102 $244 $240 $245 0 $167 $-1 #
loop $-1 $246 $102 $247 #
vertex $-1 $103 $248 #
straight-curve $-1 0 16.5000000000002 -50 -1 -0 0 #
point $-1 -20 16.5000000000002 -50 #
edge $-1 $174 $129 $126 $249 0 #
coedge $-1 $229 $107 $199 $250 0 $173 $-1 #
loop $-1 $-1 $107 $158 #
vertex $-1 $171 $251 #
straight-curve $-1 -5.76094420909117e-14 16.5 50 1 3.49148133884313e-15 -0 #
point $-1 -50.0000000000001 16.4999999999998 50 #
face $-1 $141 $252 $2 $-1 $253 forward single #
loop $-1 $-1 $254 $111 #
cone-surface $-1 20 11.5 -12.5 -0 3.5527136788005e-15 -1 3.53553390593273 3.53553390593274 1.25607396694702e-14 1 0 -1 0 #
face $-1 $255 $256 $2 $-1 $257 forward single #
loop $-1 $-1 $258 $113 #
coedge $-1 $259 $260 $163 $239 0 $114 $-1 #
coedge $-1 $261 $116 $262 $263 1 $67 $-1 #
coedge $-1 $116 $261 $264 $265 1 $67 $-1 #
coedge $-1 $266 $267 $116 $186 1 $268 $-1 #
edge $-1 $269 $270 $185 $271 0 #
coedge $-1 $118 $117 $261 $272 1 $38 $-1 #
coedge $-1 $121 $264 $117 $189 1 $33 $-1 #
edge $-1 $192 $273 $117 $274 0 #
coedge $-1 $262 $123 $118 $191 0 $197 $-1 #
edge $-1 $193 $275 $190 $276 0 #
vertex $-1 $122 $277 #
vertex $-1 $191 $278 #
straight-curve $-1 -13.5 0 25 0 1 0 #
ellipse-curve $-1 -13.5 16.5 28 -3.49148133884313e-15 1 -0 -2.12132034355964 0 -2.12132034355964 1 #
coedge $-1 $123 $279 $125 $200 0 $197 $-1 #
loop $-1 $-1 $280 $281 #
ellipse-curve $-1 -13.5 50 28 0 -1 0 -2.12132034355964 0 -2.12132034355964 1 #
coedge $-1 $126 $125 $172 $250 1 $127 $-1 #
edge $-1 $282 $128 $196 $283 0 #
face $-1 $284 $127 $2 $-1 $285 forward single #
point $-1 -16.5 50 28 #
point $-1 -16.5 16.4999999999999 28 #
coedge $-1 $205 $131 $286 $287 1 $133 $-1 #
coedge $-1 $132 $204 $147 $221 0 $133 $-1 #
face $-1 $222 $133 $2 $-1 $288 forward single #
point $-1 -24.5825756949558 -13.5000000000001 25 #
coedge $-1 $289 $137 $290 $291 1 $81 $-1 #
coedge $-1 $233 $292 $137 $210 0 $293 $-1 #
edge $-1 $294 $211 $209 $295 0 #
vertex $-1 $210 $296 #
straight-curve $-1 -50 -16.5000000000002 18.75 0 0 -1 #
coedge $-1 $139 $297 $298 $299 0 $81 $-1 #
coedge $-1 $300 $286 $139 $215 0 $167 $-1 #
edge $-1 $216 $301 $214 $302 0 #
vertex $-1 $215 $303 #
straight-curve $-1 -20 -16.5000000000001 -12.5 0 -3.5527136788005e-15 1 #
plane-surface $-1 5.76094420909117e-14 -16.5 37.5 -3.49148133884313e-15 1 0 -0 0 -1 0 #
ellipse-curve $-1 -20 -11.5000000000001 25 -0 -0 -1 -3.53553390593273 -3.53553390593274 -1.25607396694702e-14 1 #
coedge $-1 $148 $147 $236 $304 1 $149 $-1 #
edge $-1 $305 $150 $147 $306 0 #
face $-1 $307 $149 $2 $-1 $308 forward single #
point $-1 -25 -11.5000000000001 25 #
vertex $-1 $304 $309 #
straight-curve $-1 -25 11.5 3.98458736969092e-14 0 3.49148133884313e-15 -1 #
coedge $-1 $232 $154 $310 $311 1 $54 $-1 #
coedge $-1 $279 $312 $154 $228 1 $197 $-1 #
edge $-1 $230 $313 $227 $314 0 #
coedge $-1 $155 $172 $279 $315 0 $173 $-1 #
vertex $-1 $315 $316 #
straight-curve $-1 -50 0 50 0 -1 0 #
coedge $-1 $157 $226 $317 $318 1 $54 $-1 #
coedge $-1 $319 $209 $157 $234 0 $293 $-1 #
edge $-1 $211 $320 $157 $231 0 #
plane-surface $-1 0 0 50 0 0 1 1 0 0 0 #
coedge $-1 $286 $160 $220 $304 0 $167 $-1 #
ellipse-curve $-1 -20 11.5000000000002 -50 0 0 1 -3.53553390593274 3.53553390593273 1.25607396694702e-14 1 #
coedge $-1 $321 $163 $322 $323 1 $33 $-1 #
edge $-1 $324 $242 $163 $325 0 #
coedge $-1 $254 $164 $166 $245 1 $178 $-1 #
coedge $-1 $164 $326 $259 $327 0 $178 $-1 #
vertex $-1 $165 $328 #
straight-curve $-1 20 16.5000000000001 -12.5 0 -3.5527136788005e-15 1 #
coedge $-1 $166 $300 $329 $330 0 $167 $-1 #
edge $-1 $331 $168 $166 $332 0 #
loop $-1 $-1 $333 $247 #
face $-1 $281 $167 $2 $-1 $334 reversed single #
point $-1 20 16.5000000000002 -50 #
straight-curve $-1 -16.5 16.4999999999999 37.5 0 0 -1 #
edge $-1 $174 $282 $172 $335 0 #
point $-1 -16.5 16.4999999999999 50 #
loop $-1 $-1 $336 $177 #
cone-surface $-1 20 -11.5 -12.5 -0 -3.5527136788005e-15 1 3.53553390593274 -3.53553390593273 -1.25607396694702e-14 1 0 -1 0 #
coedge $-1 $326 $240 $337 $338 0 $178 $-1 #
face $-1 $339 $340 $2 $-1 $341 forward single #
loop $-1 $-1 $342 $180 #
cone-surface $-1 35 -13.4999999999999 28 -1 -2.368475785867e-15 -0 1.00485917355762e-14 -2.12132034355964 -2.12132034355964 1 0 -1 0 #
coedge $-1 $343 $344 $345 $346 1 $181 $-1 #
coedge $-1 $345 $182 $241 $327 1 $114 $-1 #
coedge $-1 $182 $345 $347 $348 1 $114 $-1 #
coedge $-1 $184 $183 $187 $272 0 $67 $-1 #
coedge $-1 $280 $190 $183 $263 0 $197 $-1 #
edge $-1 $275 $270 $262 $349 0 #
coedge $-1 $188 $350 $184 $265 0 $33 $-1 #
edge $-1 $269 $273 $264 $351 0 #
coedge $-1 $352 $185 $350 $353 0 $268 $-1 #
coedge $-1 $185 $352 $280 $354 1 $268 $-1 #
loop $-1 $-1 $185 $284 #
vertex $-1 $265 $355 #
vertex $-1 $354 $356 #
straight-curve $-1 16.5 0 28 0 1 0 #
edge $-1 $275 $273 $187 $357 0 #
vertex $-1 $189 $358 #
straight-curve $-1 0 16.4999999999999 25 1 0 -0 #
vertex $-1 $191 $359 #
straight-curve $-1 0 50 25 1 0 -0 #
point $-1 -13.5 16.4999999999999 25 #
point $-1 -13.5 50 25 #
coedge $-1 $196 $227 $229 $315 1 $197 $-1 #
coedge $-1 $360 $262 $267 $354 0 $197 $-1 #
face $-1 $361 $197 $2 $-1 $362 reversed single #
vertex $-1 $200 $363 #
straight-curve $-1 -16.5 50 18.75 0 0 -1 #
face $-1 $364 $268 $2 $-1 $365 forward single #
plane-surface $-1 -16.5 0 37.5 1 0 0 0 0 -1 0 #
coedge $-1 $214 $236 $204 $287 0 $167 $-1 #
edge $-1 $305 $216 $286 $366 0 #
cone-surface $-1 -20 -11.4999999999999 -12.5 -0 3.5527136788005e-15 -1 -3.53553390593273 -3.53553390593274 -1.25607396694702e-14 1 0 -1 0 #
coedge $-1 $367 $208 $368 $369 0 $81 $-1 #
coedge $-1 $370 $371 $208 $291 0 $372 $-1 #
edge $-1 $373 $294 $290 $374 0 #
coedge $-1 $209 $319 $370 $375 0 $293 $-1 #
loop $-1 $-1 $209 $376 #
vertex $-1 $375 $377 #
straight-curve $-1 5.76094420909117e-14 -16.5 50 -1 -3.49148133884313e-15 0 #
point $-1 -49.9999999999999 -16.5000000000002 50 #
coedge $-1 $213 $378 $342 $379 1 $81 $-1 #
coedge $-1 $380 $381 $213 $299 1 $252 $-1 #
edge $-1 $382 $301 $213 $383 0 #
coedge $-1 $244 $214 $381 $384 0 $167 $-1 #
vertex $-1 $215 $385 #
straight-curve $-1 0 -16.4999999999998 -50 1 0 -0 #
point $-1 -20 -16.4999999999998 -50 #
edge $-1 $224 $305 $236 $386 0 #
vertex $-1 $304 $387 #
straight-curve $-1 -25 -11.5 -3.98458736969092e-14 0 -3.49148133884313e-15 1 #
face $-1 $98 $388 $2 $-1 $389 forward single #
plane-surface $-1 -25 0 0 1 0 0 0 1 3.49148133884313e-15 0 #
point $-1 -25 11.5000000000002 -50 #
coedge $-1 $390 $391 $226 $311 0 $246 $-1 #
edge $-1 $392 $313 $226 $393 0 #
coedge $-1 $227 $394 $390 $395 1 $197 $-1 #
vertex $-1 $395 $396 #
straight-curve $-1 -50 50 0 0 0 -1 #
edge $-1 $282 $230 $279 $397 0 #
point $-1 -50 50 50 #
coedge $-1 $398 $399 $232 $318 0 $400 $-1 #
edge $-1 $320 $392 $232 $401 0 #
coedge $-1 $292 $233 $399 $402 0 $293 $-1 #
vertex $-1 $234 $403 #
coedge $-1 $350 $238 $404 $405 1 $33 $-1 #
coedge $-1 $347 $406 $238 $323 0 $407 $-1 #
edge $-1 $408 $324 $322 $409 0 #
vertex $-1 $323 $410 #
straight-curve $-1 -5.76094420909117e-14 16.5 28 -1 -3.49148133884313e-15 -0 #
coedge $-1 $241 $254 $343 $411 1 $178 $-1 #
edge $-1 $412 $242 $241 $413 0 #
point $-1 20 16.4999999999999 28 #
coedge $-1 $414 $337 $244 $330 1 $388 $-1 #
edge $-1 $415 $331 $244 $416 0 #
vertex $-1 $330 $417 #
ellipse-curve $-1 20 11.5000000000002 -50 0 0 1 3.53553390593273 3.53553390593274 1.25607396694702e-14 1 #
coedge $-1 $391 $390 $418 $419 0 $246 $-1 #
plane-surface $-1 0 0 -50 0 0 1 1 0 0 0 #
straight-curve $-1 -16.5 0 50 0 1 0 #
coedge $-1 $381 $420 $414 $421 0 $252 $-1 #
coedge $-1 $329 $422 $254 $338 1 $388 $-1 #
edge $-1 $331 $423 $337 $424 0 #
face $-1 $425 $426 $2 $-1 $9 forward single #
loop $-1 $-1 $427 $255 #
cone-surface $-1 13.5 -33.25 28 0 -1 -0 2.12132034355964 0 -2.12132034355964 1 0 -1 0 #
coedge $-1 $428 $429 $297 $379 0 $256 $-1 #
coedge $-1 $430 $258 $326 $411 0 $181 $-1 #
coedge $-1 $258 $431 $432 $433 1 $181 $-1 #
coedge $-1 $260 $259 $258 $346 0 $114 $-1 #
edge $-1 $412 $434 $258 $435 0 #
coedge $-1 $432 $322 $260 $348 0 $407 $-1 #
edge $-1 $324 $434 $347 $436 0 #
ellipse-curve $-1 13.5 50 28 0 -1 0 2.12132034355964 0 -2.12132034355964 1 #
coedge $-1 $264 $321 $266 $353 1 $33 $-1 #
ellipse-curve $-1 13.5 16.5 28 -3.49148133884313e-15 1 -0 2.12132034355964 0 -2.12132034355964 1 #
coedge $-1 $267 $266 $437 $438 1 $268 $-1 #
edge $-1 $269 $439 $266 $440 0 #
edge $-1 $270 $441 $280 $442 0 #
point $-1 16.5 16.5000000000001 28 #
point $-1 16.5 50 28 #
straight-curve $-1 13.5 0 25 0 -1 0 #
point $-1 13.5 16.4999999999999 25 #
point $-1 13.5 50 25 #
coedge $-1 $394 $280 $443 $444 1 $197 $-1 #
face $-1 $-1 $407 $2 $-1 $445 reversed single #
plane-surface $-1 0 50 0 0 -1 0 0 0 -1 0 #
point $-1 -16.5 50 50 #
face $-1 $446 $447 $2 $-1 $235 forward single #
plane-surface $-1 16.5 0 37.5 -1 0 0 0 0 1 0 #
ellipse-curve $-1 -20 -11.4999999999998 -50 0 0 1 -3.53553390593273 -3.53553390593274 -1.25607396694702e-14 1 #
coedge $-1 $448 $289 $449 $450 1 $81 $-1 #
coedge $-1 $451 $452 $289 $369 1 $453 $-1 #
edge $-1 $373 $454 $289 $455 0 #
coedge $-1 $456 $290 $292 $375 1 $372 $-1 #
coedge $-1 $290 $456 $451 $457 1 $372 $-1 #
loop $-1 $-1 $371 $446 #
vertex $-1 $369 $458 #
straight-curve $-1 -16.5 -16.5000000000001 37.5 0 -0 1 #
edge $-1 $459 $294 $292 $335 0 #
face $-1 $460 $293 $2 $-1 $235 forward single #
point $-1 -16.5 -16.5000000000001 50 #
coedge $-1 $297 $461 $462 $463 1 $81 $-1 #
edge $-1 $382 $464 $297 $465 0 #
coedge $-1 $420 $298 $429 $466 0 $252 $-1 #
coedge $-1 $298 $336 $300 $384 1 $252 $-1 #
vertex $-1 $299 $467 #
straight-curve $-1 20 -16.4999999999999 -12.5 0 3.5527136788005e-15 -1 #
edge $-1 $301 $415 $300 $468 0 #
point $-1 20 -16.4999999999998 -50 #
straight-curve $-1 -25 0 -50 0 -1 0 #
point $-1 -25 -11.4999999999998 -50 #
loop $-1 $-1 $337 $307 #
plane-surface $-1 25 0 0 -1 -0 0 0 -1 -3.49148133884313e-15 0 #
coedge $-1 $333 $310 $312 $395 0 $246 $-1 #
coedge $-1 $310 $333 $398 $469 0 $246 $-1 #
vertex $-1 $311 $470 #
straight-curve $-1 -50 0 -50 0 1 0 #
coedge $-1 $312 $360 $471 $472 0 $197 $-1 #
edge $-1 $313 $473 $312 $474 0 #
point $-1 -50 50 -50 #
straight-curve $-1 0 50 50 -1 0 0 #
coedge $-1 $475 $317 $391 $469 1 $400 $-1 #
coedge $-1 $317 $476 $319 $402 1 $400 $-1 #
loop $-1 $-1 $477 $478 #
straight-curve $-1 -50 -50 0 0 0 -1 #
edge $-1 $320 $459 $399 $479 0 #
point $-1 -50 -50 50 #
coedge $-1 $480 $437 $321 $405 0 $447 $-1 #
edge $-1 $439 $408 $404 $481 0 #
coedge $-1 $322 $471 $480 $482 1 $407 $-1 #
loop $-1 $-1 $462 $361 #
vertex $-1 $323 $483 #
straight-curve $-1 50 16.5000000000002 18.75 -0 -0 -1 #
point $-1 50 16.5000000000002 28 #
edge $-1 $412 $423 $343 $484 0 #
vertex $-1 $327 $485 #
intcurve-curve $-1 1 { surfintcur nubs 3 open 9 
	0 3 0.941383694117843 2 1.88276738823569 2 2.82415108235353 2 3.76553477647137 2 
	4.40410254305971 2 5.04267030964805 2 5.68123807623639 2 6.31980584282473 3 
	20 16.5000000000001 28 
	20.248076385463 16.5000000000001 27.8078408581029 
	20.5070850525238 16.481298110513 27.6071758924284 
	21.0316711516868 16.3996041430263 27.20329113858 
	21.2972575768206 16.3366257726663 27.0000802585784 
	21.8205394576566 16.164918399299 26.6055489004853 
	22.0783920696949 16.0561344944816 26.4141238564792 
	22.5730941698665 15.796191514154 26.0567215271969 
	22.8099446899335 15.6449991795774 25.8907698612321 
	23.1799154236428 15.3630919321412 25.6437664292808 
	23.3321833451701 15.233538820547 25.5456871671279 
	23.6290858318304 14.9456485600233 25.3658191855121 
	23.7737115403605 14.7872872632153 25.2840544986835 
	24.0445061364526 14.4477325729977 25.1477603093768 
	24.1708139056066 14.2663218457509 25.0931942462018 
	24.39728229035 13.8900070398839 25.0192847552584 
	24.4974333260773 13.6950856751168 25 
	24.5825756949558 13.5000000000001 25 
	0.001 
	cone 35 13.5000000000001 28 1 2.368475785867e-15 0 -1.00485917355762e-14 2.12132034355964 -2.12132034355964 1 0 -1 0 
	cone 20 11.5 -12.5 -0 3.5527136788005e-15 -1 3.53553390593273 3.53553390593274 1.25607396694702e-14 1 0 -1 0 
	nullbs 
	nullbs 
	} #
coedge $-1 $422 $329 $336 $421 1 $388 $-1 #
vertex $-1 $330 $486 #
straight-curve $-1 25 0 -50 -0 1 0 #
point $-1 25 11.5000000000002 -50 #
coedge $-1 $471 $487 $333 $419 1 $407 $-1 #
edge $-1 $473 $488 $418 $489 0 #
coedge $-1 $336 $380 $490 $491 1 $252 $-1 #
edge $-1 $492 $415 $414 $493 0 #
coedge $-1 $337 $414 $430 $494 1 $388 $-1 #
vertex $-1 $494 $495 #
straight-curve $-1 25 11.5 3.98458736969092e-14 0 -3.49148133884313e-15 1 #
face $-1 $100 $453 $2 $-1 $496 forward single #
loop $-1 $-1 $497 $339 #
coedge $-1 $498 $499 $500 $501 0 $340 $-1 #
coedge $-1 $502 $342 $503 $504 1 $256 $-1 #
coedge $-1 $342 $502 $380 $466 1 $256 $-1 #
coedge $-1 $490 $343 $422 $494 0 $181 $-1 #
coedge $-1 $344 $490 $502 $505 1 $181 $-1 #
coedge $-1 $503 $347 $344 $433 0 $407 $-1 #
edge $-1 $434 $506 $432 $507 0 #
vertex $-1 $433 $508 #
straight-curve $-1 -5.05040147333107e-14 13.5 25 1 3.49148133884313e-15 0 #
ellipse-curve $-1 50 13.5000000000002 28 -1 0 0 -1.00485917355762e-14 2.12132034355964 -2.12132034355964 1 #
coedge $-1 $404 $443 $352 $438 0 $447 $-1 #
edge $-1 $441 $439 $437 $509 0 #
vertex $-1 $438 $510 #
straight-curve $-1 16.5 16.5000000000001 37.5 0 0 1 #
vertex $-1 $444 $511 #
straight-curve $-1 16.5 50 18.75 0 0 1 #
coedge $-1 $437 $480 $360 $444 0 $447 $-1 #
edge $-1 $512 $441 $360 $397 0 #
plane-surface $-1 50 0 0 -1 0 0 0 -0 1 0 #
face $-1 $513 $372 $2 $-1 $285 forward single #
loop $-1 $-1 $404 $364 #
coedge $-1 $514 $367 $498 $515 0 $81 $-1 #
coedge $-1 $516 $497 $367 $450 0 $426 $-1 #
edge $-1 $517 $454 $449 $518 0 #
coedge $-1 $519 $368 $371 $457 0 $453 $-1 #
coedge $-1 $368 $519 $516 $520 0 $453 $-1 #
loop $-1 $-1 $451 $425 #
vertex $-1 $450 $521 #
ellipse-curve $-1 -13.5 -16.5 28 3.49148133884313e-15 -1 -0 -2.12132034355964 0 -2.12132034355964 1 #
coedge $-1 $371 $370 $476 $522 1 $372 $-1 #
edge $-1 $373 $523 $371 $524 0 #
point $-1 -16.5 -16.5000000000001 28 #
vertex $-1 $402 $525 #
face $-1 $247 $526 $2 $-1 $235 forward single #
coedge $-1 $378 $514 $527 $528 1 $81 $-1 #
coedge $-1 $529 $503 $378 $463 0 $407 $-1 #
edge $-1 $464 $530 $462 $531 0 #
vertex $-1 $463 $532 #
straight-curve $-1 5.76094420909117e-14 -16.5 28 1 3.49148133884313e-15 0 #
edge $-1 $382 $533 $380 $534 0 #
point $-1 20 -16.5000000000001 28 #
ellipse-curve $-1 20 -11.4999999999998 -50 0 0 1 3.53553390593274 -3.53553390593273 -1.25607396694702e-14 1 #
edge $-1 $488 $392 $398 $535 0 #
point $-1 -50 -50 -50 #
coedge $-1 $406 $418 $394 $472 1 $407 $-1 #
edge $-1 $512 $473 $471 $536 0 #
vertex $-1 $419 $537 #
straight-curve $-1 0 50 -50 1 0 0 #
coedge $-1 $538 $398 $487 $539 1 $400 $-1 #
coedge $-1 $399 $540 $456 $522 0 $400 $-1 #
coedge $-1 $541 $538 $542 $543 0 $400 $-1 #
face $-1 $376 $400 $2 $-1 $544 reversed single #
straight-curve $-1 0 -50 50 1 0 0 #
coedge $-1 $443 $404 $406 $482 0 $447 $-1 #
straight-curve $-1 -5.76094420909117e-14 16.5 50 1 3.49148133884313e-15 -0 #
edge $-1 $408 $512 $406 $545 0 #
point $-1 49.9999999999999 16.5000000000002 50 #
ellipse-curve $-1 20 11.4999999999999 25 -0 -0 -1 3.53553390593273 3.53553390593274 1.25607396694702e-14 1 #
point $-1 24.5825756949558 13.5000000000001 25 #
point $-1 25 -11.4999999999998 -50 #
coedge $-1 $418 $529 $475 $539 0 $407 $-1 #
vertex $-1 $539 $546 #
straight-curve $-1 50 0 -50 0 -1 0 #
coedge $-1 $431 $430 $420 $491 0 $181 $-1 #
edge $-1 $492 $533 $490 $547 0 #
vertex $-1 $494 $548 #
straight-curve $-1 25 -11.5 -3.98458736969092e-14 0 3.49148133884313e-15 -1 #
edge $-1 $423 $492 $430 $549 0 #
point $-1 25 11.4999999999999 25 #
cone-surface $-1 -13.5 -33.25 28 0 1 0 -2.12132034355964 0 -2.12132034355964 1 0 -1 0 #
coedge $-1 $449 $550 $551 $552 1 $426 $-1 #
coedge $-1 $551 $427 $448 $515 1 $340 $-1 #
coedge $-1 $427 $551 $541 $553 1 $340 $-1 #
coedge $-1 $542 $554 $427 $501 1 $555 $-1 #
edge $-1 $556 $557 $500 $558 0 #
coedge $-1 $429 $428 $431 $505 0 $256 $-1 #
coedge $-1 $462 $432 $428 $504 0 $407 $-1 #
edge $-1 $506 $464 $503 $559 0 #
edge $-1 $506 $533 $431 $560 0 #
vertex $-1 $433 $561 #
straight-curve $-1 50 0 25 0 -1 0 #
point $-1 50 13.5000000000002 25 #
straight-curve $-1 16.5 0 50 0 -1 0 #
point $-1 16.5 16.5000000000001 50 #
point $-1 16.5 50 50 #
vertex $-1 $482 $562 #
face $-1 $478 $555 $2 $-1 $365 forward single #
coedge $-1 $461 $448 $554 $563 1 $81 $-1 #
edge $-1 $517 $557 $448 $564 0 #
coedge $-1 $550 $449 $452 $520 1 $426 $-1 #
vertex $-1 $515 $565 #
straight-curve $-1 0 -16.5000000000001 25 -1 -0 0 #
coedge $-1 $452 $451 $540 $566 1 $453 $-1 #
edge $-1 $567 $454 $516 $568 0 #
point $-1 -13.5 -16.5000000000001 25 #
edge $-1 $523 $459 $476 $569 0 #
vertex $-1 $522 $570 #
straight-curve $-1 -16.5 0 28 -0 -1 -0 #
point $-1 -16.5 -50 50 #
loop $-1 $-1 $527 $460 #
coedge $-1 $571 $572 $461 $528 0 $526 $-1 #
edge $-1 $530 $573 $527 $574 0 #
coedge $-1 $487 $462 $572 $575 1 $407 $-1 #
vertex $-1 $575 $576 #
straight-curve $-1 50 -16.4999999999998 18.75 0 0 1 #
point $-1 50 -16.4999999999998 28 #
vertex $-1 $491 $577 #
intcurve-curve $-1 1 { surfintcur nubs 3 open 9 
	15.5049009983041 3 16.1434687648924 2 16.7820365314807 2 17.4206042980689 2 18.0591720646572 2 
	19.0005557587752 2 19.9419394528931 2 20.8833231470111 2 21.8247068411291 3 
	24.5825756949559 -13.4999999999999 25 
	24.4974333260775 -13.6950856751165 25 
	24.3972822903502 -13.8900070398836 25.0192847552584 
	24.1708139056069 -14.2663218457507 25.0931942462018 
	24.0445061364529 -14.4477325729974 25.1477603093768 
	23.7737115403609 -14.7872872632151 25.2840544986835 
	23.6290858318308 -14.9456485600231 25.365819185512 
	23.3321833451707 -15.2335388205467 25.5456871671278 
	23.1799154236433 -15.363091932141 25.6437664292807 
	22.8099446899341 -15.6449991795772 25.8907698612321 
	22.5730941698671 -15.7961915141539 26.0567215271969 
	22.0783920696956 -16.0561344944816 26.4141238564794 
	21.8205394576573 -16.164918399299 26.6055489004856 
	21.2972575768214 -16.3366257726663 27.0000802585789 
	21.0316711516876 -16.3996041430264 27.2032911385807 
	20.5070850525252 -16.4812981105131 27.60717589243 
	20.248076385463 -16.4999999999999 27.8078408581029 
	20 -16.4999999999999 28 
	0.001 
	cone 35 -13.4999999999999 28 -1 -2.368475785867e-15 -0 1.00485917355762e-14 -2.12132034355964 -2.12132034355964 1 0 -1 0 
	cone 20 -11.5 -12.5 -0 -3.5527136788005e-15 1 3.53553390593274 -3.53553390593273 -1.25607396694702e-14 1 0 -1 0 
	nullbs 
	nullbs 
	} #
straight-curve $-1 0 -50 -50 -1 0 0 #
straight-curve $-1 50 50 0 0 0 -1 #
point $-1 50 50 -50 #
coedge $-1 $477 $475 $578 $579 1 $400 $-1 #
edge $-1 $580 $488 $487 $581 0 #
coedge $-1 $476 $582 $519 $566 0 $400 $-1 #
coedge $-1 $582 $477 $499 $553 0 $400 $-1 #
coedge $-1 $583 $500 $477 $543 1 $555 $-1 #
edge $-1 $584 $556 $477 $585 0 #
plane-surface $-1 0 -50 0 0 1 -0 -0 0 1 0 #
straight-curve $-1 50 0 50 0 1 0 #
point $-1 50 -50 -50 #
ellipse-curve $-1 20 -11.5000000000001 25 -0 -0 -1 3.53553390593274 -3.53553390593273 -1.25607396694702e-14 1 #
point $-1 25 -11.5000000000001 25 #
straight-curve $-1 25 0 25 0 -1 0 #
coedge $-1 $497 $516 $582 $586 1 $426 $-1 #
coedge $-1 $499 $498 $497 $552 0 $340 $-1 #
edge $-1 $517 $587 $497 $588 0 #
edge $-1 $556 $587 $541 $589 0 #
coedge $-1 $500 $583 $514 $563 0 $555 $-1 #
loop $-1 $-1 $500 $513 #
vertex $-1 $543 $590 #
vertex $-1 $563 $591 #
straight-curve $-1 16.5 0 28 0 1 0 #
ellipse-curve $-1 50 -13.4999999999998 28 -1 0 0 1.00485917355762e-14 -2.12132034355964 -2.12132034355964 1 #
straight-curve $-1 5.05040147333107e-14 -13.5 25 -1 -3.49148133884313e-15 0 #
point $-1 50 -13.4999999999998 25 #
point $-1 50 50 50 #
edge $-1 $573 $557 $554 $592 0 #
ellipse-curve $-1 13.5 -16.5 28 3.49148133884313e-15 -1 -0 2.12132034355964 0 -2.12132034355964 1 #
point $-1 13.5 -16.5000000000001 25 #
edge $-1 $567 $523 $540 $593 0 #
vertex $-1 $586 $594 #
straight-curve $-1 -13.5 0 25 0 1 0 #
straight-curve $-1 -16.5 -50 18.75 -0 0 1 #
point $-1 -16.5 -50 28 #
coedge $-1 $578 $527 $583 $595 0 $526 $-1 #
coedge $-1 $527 $578 $529 $575 0 $526 $-1 #
vertex $-1 $528 $596 #
straight-curve $-1 5.76094420909117e-14 -16.5 50 -1 -3.49148133884313e-15 0 #
edge $-1 $580 $530 $529 $545 0 #
point $-1 50.0000000000001 -16.4999999999998 50 #
point $-1 24.5825756949559 -13.4999999999999 25 #
coedge $-1 $572 $571 $538 $579 0 $526 $-1 #
edge $-1 $584 $580 $538 $479 0 #
vertex $-1 $575 $597 #
straight-curve $-1 50 -50 0 0 0 -1 #
coedge $-1 $540 $541 $550 $586 0 $400 $-1 #
coedge $-1 $554 $542 $571 $595 1 $555 $-1 #
vertex $-1 $595 $598 #
straight-curve $-1 16.5 -50 18.75 -0 0 -1 #
edge $-1 $587 $567 $582 $599 0 #
vertex $-1 $586 $600 #
straight-curve $-1 13.5 0 25 0 -1 0 #
ellipse-curve $-1 13.5 -50 28 0 1 -0 2.12132034355964 0 -2.12132034355964 1 #
point $-1 16.5 -50 28 #
point $-1 16.5 -16.4999999999999 28 #
straight-curve $-1 16.5 -16.4999999999999 37.5 0 0 -1 #
ellipse-curve $-1 -13.5 -50 28 0 1 -0 -2.12132034355964 0 -2.12132034355964 1 #
point $-1 -13.5 -50 25 #
edge $-1 $573 $584 $571 $509 0 #
point $-1 16.5 -16.4999999999999 50 #
point $-1 50 -50 50 #
point $-1 16.5 -50 50 #
straight-curve $-1 0 -50 25 -1 0 0 #
point $-1 13.5 -50 25 #
