600 0 3 0           
24 FBMach with ACIS - 6.0.3 13 ACIS 6.0.3 NT 24 Tue May 22 16:55:35 2001 
1 9.9999999999999995e-007 1e-010 
body $3 $4 $-1 $5 #
body $6 $7 $-1 $-1 #
bdycol-kcp $-1 1 3 $8 $9 $10 #
model_id-kcp-attrib $-1 $11 $-1 $0 1 990564934 120 695730177 1 #
lump $-1 $-1 $12 $0 #
transform $-1 1 0 0 0 1 0 0 0 1 0 4.4408920985006262e-016 0 1 rotate no_reflect no_shear #
brep_non_volatile_id-cdc-attrib $-1 $-1 $-1 $1 2 #
lump $-1 $-1 $13 $1 #
body $14 $15 $-1 $16 #
body $17 $18 $-1 $19 #
body $20 $21 $-1 $22 #
brep_non_volatile_id-cdc-attrib $-1 $-1 $3 $0 1 #
shell $-1 $-1 $-1 $23 $-1 $4 #
shell $-1 $-1 $-1 $24 $-1 $7 #
model_id-kcp-attrib $-1 $-1 $-1 $8 1 990564934 130 696385538 1 #
lump $-1 $-1 $25 $8 #
transform $-1 1 0 0 0 1 0 0 0 1 7.7785714285714151 2.2928571428571458 0 1 no_rotate no_reflect no_shear #
rgb_color-st-attrib $-1 $26 $-1 $9 0.5 1 1 #
lump $-1 $-1 $27 $9 #
transform $-1 -3.8285889215894375e-016 0 -1 0 1 0 1 0 -3.8285889215894375e-016 7.7785714285714151 2.2928571428571405 5.5220263365470826e-030 1 rotate no_reflect no_shear #
rgb_color-st-attrib $-1 $28 $-1 $10 0.5 1 1 #
lump $-1 $-1 $29 $10 #
transform $-1 1 0 0 0 1 0 0 0 1 7.7785714285714151 2.2928571428571458 0 1 no_rotate no_reflect no_shear #
face $30 $31 $32 $12 $-1 $33 forward single #
face $34 $35 $36 $13 $-1 $37 forward single #
shell $-1 $-1 $-1 $38 $-1 $15 #
model_id-kcp-attrib $-1 $-1 $17 $9 1 990564934 160 698351619 1 #
shell $-1 $-1 $-1 $39 $-1 $18 #
model_id-kcp-attrib $-1 $-1 $20 $10 1 990564934 390 696647684 1 #
shell $-1 $-1 $-1 $40 $-1 $21 #
model_id-kcp-attrib $-1 $41 $-1 $23 1 990564934 120 695730177 2 #
face $42 $43 $44 $12 $-1 $45 forward single #
loop $-1 $46 $47 $23 #
cone-surface $-1 7.7785714285714302 2.29285714285714 0 1 0 0 0 1.1000000000000001 0 1 I I 0 -1 1.1000000000000001 forward I I I I #
primitive_order-cdc-attrib $-1 $-1 $-1 $24 0 1 #
face $48 $49 $50 $13 $-1 $51 forward single #
loop $-1 $-1 $52 $24 #
plane-surface $-1 12.449999999999999 5.3785714285714299 -5 0 -1 0 0 0 -1 forward_v I I I I #
face $-1 $53 $54 $25 $-1 $55 forward single #
face $-1 $56 $57 $27 $-1 $58 forward single #
face $-1 $59 $60 $29 $-1 $61 reversed single #
primitive_order-cdc-attrib $-1 $-1 $30 $23 0 8 #
model_id-kcp-attrib $-1 $62 $-1 $31 1 990564934 120 695730177 10 #
face $63 $64 $65 $12 $-1 $66 forward single #
loop $-1 $67 $68 $31 #
plane-surface $-1 2.6785714285714302 3.3928571428571401 0 -1 0 0 0 0 1 forward_v I I I I #
loop $-1 $-1 $69 $23 #
coedge $-1 $47 $47 $70 $71 reversed $32 $-1 #
primitive_order-cdc-attrib $-1 $-1 $-1 $35 0 1 #
face $72 $73 $74 $13 $-1 $75 forward single #
loop $-1 $-1 $76 $35 #
plane-surface $-1 3.4500000000000002 5.3785714285714299 -5 -1 0 0 0 0 1 forward_v I I I I #
coedge $-1 $77 $78 $79 $80 forward $36 $-1 #
face $-1 $81 $82 $25 $-1 $83 reversed single #
loop $-1 $-1 $84 $38 #
plane-surface $-1 0 0 6.4753929742323297 0 0 1 1 0 0 forward_v I I I I #
face $-1 $85 $86 $27 $-1 $87 forward single #
loop $-1 $88 $89 $39 #
cone-surface $-1 0 0 0 0 0 1 1.1000000000000001 0 0 1 I I 0 1 1.1000000000000001 forward I I I I #
face $-1 $90 $91 $29 $-1 $92 forward single #
loop $-1 $93 $94 $40 #
cone-surface $-1 -5.0999999999999854 -5.3290705182007514e-015 0 -1 0 0 0 1.1000000000000001 0 1 I I 0 1 1.1000000000000001 forward I I I I #
model_id-kcp-attrib $-1 $95 $42 $31 1 990564934 120 695730177 3 #
model_id-kcp-attrib $-1 $96 $-1 $43 1 990564934 120 695730177 4 #
face $97 $98 $99 $12 $-1 $100 forward single #
loop $-1 $101 $102 $43 #
cone-surface $-1 3.5499999999999998 2.29285714285714 0 1 0 0 0 2.22857142857143 0 1 I I 0.45304984812578902 0.89148518502171403 2.22857142857143 forward I I I I #
loop $-1 $-1 $70 $31 #
coedge $-1 $68 $68 $103 $104 reversed $44 $-1 #
coedge $-1 $69 $69 $105 $106 forward $46 $-1 #
coedge $-1 $70 $70 $47 $71 forward $67 $-1 #
edge $107 $108 0 $108 6.2831853071795862 $70 $109 forward 7 unknown #
primitive_order-cdc-attrib $-1 $-1 $-1 $49 0 1 #
face $110 $111 $112 $13 $-1 $113 forward single #
loop $-1 $-1 $114 $49 #
plane-surface $-1 3.4500000000000002 7.1785714285714297 -5 0 1 0 0 0 1 forward_v I I I I #
coedge $-1 $115 $116 $117 $118 forward $50 $-1 #
coedge $-1 $119 $52 $116 $120 reversed $36 $-1 #
coedge $-1 $52 $119 $121 $122 forward $36 $-1 #
coedge $-1 $123 $117 $52 $80 reversed $124 $-1 #
edge $-1 $125 -9 $126 0 $52 $127 forward 7 unknown #
face $-1 $128 $129 $25 $-1 $130 reversed single #
loop $-1 $-1 $131 $53 #
plane-surface $-1 0 0 -6.4753929742323297 0 0 1 1 0 0 forward_v I I I I #
coedge $-1 $132 $133 $134 $135 forward $54 $-1 #
face $-1 $-1 $136 $27 $-1 $137 forward single #
loop $-1 $-1 $138 $56 #
plane-surface $-1 0 0 -5.0999999999999854 0 0 -1 -1 0 0 forward_v I I I I #
loop $-1 $-1 $139 $39 #
coedge $-1 $89 $89 $138 $140 reversed $57 $-1 #
face $-1 $141 $142 $29 $-1 $143 reversed single #
loop $-1 $-1 $144 $59 #
plane-surface $-1 0 0 6.4753929742323297 0 0 1 1 0 0 forward_v I I I I #
loop $-1 $-1 $145 $40 #
coedge $-1 $94 $94 $146 $147 reversed $60 $-1 #
primitive_order-cdc-attrib $-1 $-1 $62 $31 0 8 #
primitive_order-cdc-attrib $-1 $-1 $63 $43 0 8 #
model_id-kcp-attrib $-1 $148 $-1 $64 1 990564934 120 695730177 5 #
face $149 $150 $151 $12 $-1 $152 forward single #
loop $-1 $-1 $153 $64 #
spline-surface $-1 forward { exactsur full nurbs 4 2 v open periodic none none 2 5 
	-5.8372727356417897 4 0 4 
	0 2 1.53073372946036 2 3.06146745892072 2 4.5922011883810798 2 6.1229349178414401 2 
	7.0214285714285696 4.9500000000000002 0 1 
	7.5242122289795503 6.7268856066387404 0 1 
	5.8659556739988403 8.4844890421739194 0 1 
	4.0799094235754199 6.7257888578299596 0 1 
	4.4214285714285699 4.96428571428571 0 1 
	7.0214285714285696 4.9500000000000002 2.6571428571428601 0.70710678118654802 
	7.5242122289795503 6.7268856066387404 4.4340284637816003 0.70710678118654802 
	5.8659556739988403 8.4844890421739194 6.1916318993167803 0.70710678118654802 
	4.0799094235754199 6.7257888578299596 4.4329317149728196 0.70710678118654802 
	4.4214285714285699 4.96428571428571 2.6714285714285699 0.70710678118654802 
	7.0214285714285696 2.29285714285714 2.6571428571428601 1 
	7.5242122289795503 2.29285714285714 4.4340284637816003 1 
	5.8659556739988403 2.29285714285714 6.1916318993167803 1 
	4.0799094235754199 2.29285714285714 4.4329317149728196 1 
	4.4214285714285699 2.29285714285714 2.6714285714285699 1 
	7.0214285714285696 -0.36428571428571499 2.6571428571428601 0.70710678118654802 
	7.5242122289795503 -2.1411713209244598 4.4340284637816003 0.70710678118654802 
	5.8659556739988403 -3.8987747564596398 6.1916318993167803 0.70710678118654802 
	4.0799094235754199 -2.14007457211568 4.4329317149728196 0.70710678118654802 
	4.4214285714285699 -0.378571428571429 2.6714285714285699 0.70710678118654802 
	7.0214285714285696 -0.36428571428571499 0 1 
	7.5242122289795503 -2.1411713209244598 0 1 
	5.8659556739988403 -3.8987747564596398 0 1 
	4.0799094235754199 -2.14007457211568 0 1 
	4.4214285714285699 -0.378571428571429 0 1 
	7.0214285714285696 -0.36428571428571399 -2.6571428571428601 0.70710678118654802 
	7.5242122289795503 -2.1411713209244598 -4.4340284637816003 0.70710678118654802 
	5.8659556739988403 -3.8987747564596398 -6.1916318993167803 0.70710678118654802 
	4.0799094235754199 -2.14007457211568 -4.4329317149728196 0.70710678118654802 
	4.4214285714285699 -0.378571428571429 -2.6714285714285699 0.70710678118654802 
	7.0214285714285696 2.29285714285714 -2.6571428571428601 1 
	7.5242122289795503 2.29285714285714 -4.4340284637816003 1 
	5.8659556739988403 2.29285714285714 -6.1916318993167803 1 
	4.0799094235754199 2.29285714285714 -4.4329317149728196 1 
	4.4214285714285699 2.29285714285714 -2.6714285714285699 1 
	7.0214285714285696 4.9500000000000002 -2.6571428571428601 0.70710678118654802 
	7.5242122289795503 6.7268856066387404 -4.4340284637816003 0.70710678118654802 
	5.8659556739988403 8.4844890421739194 -6.1916318993167803 0.70710678118654802 
	4.0799094235754199 6.7257888578299596 -4.4329317149728196 0.70710678118654802 
	4.4214285714285699 4.96428571428571 -2.6714285714285699 0.70710678118654802 
	7.0214285714285696 4.9500000000000002 0 1 
	7.5242122289795503 6.7268856066387404 0 1 
	5.8659556739988403 8.4844890421739194 0 1 
	4.0799094235754199 6.7257888578299596 0 1 
	4.4214285714285699 4.96428571428571 0 1 
	0 
	0 
	0 
	0 
	0 
	0 
	0 
	F 1 F 0 F 1 F 0 } I I I I #
loop $-1 $-1 $103 $43 #
coedge $-1 $102 $102 $154 $155 reversed $65 $-1 #
coedge $-1 $103 $103 $68 $104 forward $101 $-1 #
edge $156 $157 0 $157 6.2831853071795862 $103 $158 forward 7 unknown #
coedge $-1 $105 $105 $69 $106 reversed $159 $-1 #
edge $160 $161 0 $161 6.2831853071795862 $69 $162 forward 7 unknown #
attrib_edge_convexity-kcp-attrib $-1 $163 $-1 $71 1 #
vertex $-1 $71 $164 #
ellipse-curve $-1 2.6785714285714302 2.29285714285714 0 1 0 0 0 1.1000000000000001 0 1 I I #
primitive_order-cdc-attrib $-1 $-1 $-1 $73 0 1 #
face $165 $166 $167 $13 $-1 $168 forward single #
loop $-1 $-1 $169 $73 #
plane-surface $-1 12.449999999999999 7.1785714285714297 -5 1 0 0 0 0 -1 forward_v I I I I #
coedge $-1 $170 $171 $172 $173 forward $74 $-1 #
coedge $-1 $174 $76 $171 $175 reversed $50 $-1 #
coedge $-1 $76 $174 $77 $120 forward $50 $-1 #
coedge $-1 $79 $172 $76 $118 reversed $124 $-1 #
edge $-1 $126 -1.7999999999999998 $176 0 $76 $177 forward 7 unknown #
coedge $-1 $78 $77 $178 $179 forward $36 $-1 #
edge $-1 $180 0 $126 10 $116 $181 forward 7 unknown #
coedge $-1 $182 $169 $78 $122 reversed $112 $-1 #
edge $-1 $183 0 $125 10 $78 $184 forward 7 unknown #
coedge $-1 $172 $79 $169 $185 reversed $124 $-1 #
loop $-1 $-1 $79 $166 #
vertex $-1 $122 $186 #
vertex $-1 $120 $187 #
straight-curve $-1 3.4500000000000002 5.3785714285714299 5 -1 0 0 I I #
face $188 $189 $190 $25 $-1 $191 reversed single #
loop $-1 $-1 $192 $81 #
plane-surface $-1 0 -6.4753929742323244 0 0 1 0 0 0 1 forward_v I I I I #
coedge $-1 $193 $194 $195 $196 forward $82 $-1 #
coedge $-1 $197 $84 $198 $199 forward $54 $-1 #
coedge $-1 $84 $197 $200 $201 forward $54 $-1 #
coedge $-1 $202 $203 $84 $135 reversed $204 $-1 #
edge $-1 $205 -6.4753929742323244 $206 6.4753929742323244 $134 $207 forward 7 unknown #
loop $-1 $-1 $208 $85 #
plane-surface $-1 0 0 5.0999999999999854 0 0 1 1 0 0 forward_v I I I I #
coedge $-1 $138 $138 $89 $140 forward $86 $-1 #
coedge $-1 $139 $139 $208 $209 reversed $88 $-1 #
edge $-1 $210 0 $210 6.2831853071795862 $138 $211 forward 7 unknown #
face $-1 $212 $213 $29 $-1 $214 reversed single #
loop $-1 $-1 $215 $90 #
plane-surface $-1 0 0 -6.4753929742323297 0 0 1 1 0 0 forward_v I I I I #
coedge $-1 $216 $217 $218 $219 forward $91 $-1 #
coedge $-1 $145 $145 $220 $221 reversed $93 $-1 #
coedge $-1 $146 $146 $94 $147 forward $222 $-1 #
edge $-1 $223 -3.1415926535897931 $223 3.1415926535897931 $146 $224 forward 7 unknown #
primitive_order-cdc-attrib $-1 $-1 $97 $64 0 8 #
model_id-kcp-attrib $-1 $225 $-1 $98 1 990564934 120 695730177 6 #
face $226 $227 $228 $12 $-1 $229 forward single #
loop $-1 $230 $231 $98 #
cone-surface $-1 7.9142857142857101 2.29285714285714 0 1 0 0 0 2.6571428571428601 0 1 I I 0 1 2.6571428571428601 forward I I I I #
coedge $-1 $232 $154 $233 $234 forward $99 $235 #
coedge $-1 $153 $233 $102 $155 forward $99 $236 #
edge $-1 $237 0 $237 6.2831853071795862 $154 $238 forward 7 unknown #
attrib_edge_convexity-kcp-attrib $-1 $239 $-1 $104 1 #
vertex $-1 $104 $240 #
ellipse-curve $-1 2.6785714285714302 2.29285714285714 0 1 0 0 0 1.78571428571429 0 1 I I #
loop $-1 $241 $105 $242 #
attrib_edge_convexity-kcp-attrib $-1 $243 $-1 $106 1 #
vertex $-1 $106 $244 #
ellipse-curve $-1 12.8785714285714 2.29285714285714 0 1 0 0 0 1.1000000000000001 0 1 I I #
convexity-sys-attrib $-1 $-1 $107 $71 #
point $-1 2.6785714285714302 3.3928571428571401 0 #
primitive_order-cdc-attrib $-1 $-1 $-1 $111 0 1 #
face $245 $-1 $124 $13 $-1 $246 forward single #
loop $-1 $-1 $178 $111 #
plane-surface $-1 7.9500000000000002 6.2785714285714302 -5 0 0 -1 -1 0 0 forward_v I I I I #
coedge $-1 $121 $247 $123 $185 forward $112 $-1 #
coedge $-1 $248 $114 $247 $249 reversed $74 $-1 #
coedge $-1 $114 $248 $115 $175 forward $74 $-1 #
coedge $-1 $117 $123 $114 $173 reversed $124 $-1 #
edge $-1 $176 -9 $250 0 $114 $251 forward 7 unknown #
coedge $-1 $116 $115 $252 $253 forward $50 $-1 #
edge $-1 $254 0 $176 10 $171 $255 forward 7 unknown #
vertex $-1 $175 $256 #
straight-curve $-1 3.4500000000000002 7.1785714285714297 5 0 1 0 I I #
coedge $-1 $252 $257 $119 $179 reversed $167 $-1 #
edge $-1 $180 0 $183 9 $119 $258 forward 7 unknown #
vertex $-1 $179 $259 #
straight-curve $-1 3.4500000000000002 5.3785714285714299 -5 0 0 1 I I #
coedge $-1 $247 $121 $257 $260 forward $112 $-1 #
vertex $-1 $179 $261 #
straight-curve $-1 12.449999999999999 5.3785714285714299 -5 0 0 1 I I #
edge $-1 $250 -1.7999999999999998 $125 0 $169 $262 forward 7 unknown #
point $-1 12.449999999999999 5.3785714285714299 5 #
point $-1 3.4500000000000002 5.3785714285714299 5 #
model_id-kcp-attrib $-1 $-1 $-1 $128 1 990564934 130 696385538 2 #
face $-1 $263 $264 $25 $-1 $265 reversed single #
loop $-1 $-1 $266 $128 #
plane-surface $-1 -5.0999999999999845 0 0 1 0 0 0 0 -1 forward_v I I I I #
coedge $-1 $267 $200 $268 $269 forward $129 $-1 #
coedge $-1 $270 $131 $267 $271 forward $82 $-1 #
coedge $-1 $131 $270 $272 $273 forward $82 $-1 #
coedge $-1 $203 $202 $131 $196 reversed $204 $-1 #
edge $-1 $274 -6.4753929742323244 $275 6.4753929742323244 $195 $276 forward 7 unknown #
coedge $-1 $133 $132 $277 $278 forward $54 $-1 #
coedge $-1 $279 $280 $132 $199 reversed $264 $-1 #
edge $-1 $206 -5.0999999999999845 $281 5.0999999999999845 $198 $282 forward 7 unknown #
coedge $-1 $192 $283 $133 $201 reversed $129 $-1 #
edge $-1 $284 -5.0999999999999845 $205 5.0999999999999845 $200 $285 forward 7 unknown #
coedge $-1 $195 $134 $283 $286 forward $204 $-1 #
coedge $-1 $134 $195 $279 $287 reversed $204 $-1 #
loop $-1 $-1 $202 $263 #
vertex $-1 $135 $288 #
vertex $-1 $135 $289 #
straight-curve $-1 5.0999999999999845 0 6.4753929742323297 0 1 0 I I #
coedge $-1 $208 $208 $139 $209 forward $136 $-1 #
edge $-1 $290 0 $290 6.2831853071795862 $208 $291 forward 7 unknown #
vertex $-1 $140 $292 #
ellipse-curve $-1 0 0 -5.0999999999999854 0 0 -1 1.1000000000000001 0 0 1 I I #
face $-1 $293 $222 $29 $-1 $294 reversed single #
loop $-1 $-1 $295 $141 #
plane-surface $-1 0 -6.4753929742323244 0 0 1 0 0 0 1 forward_v I I I I #
coedge $-1 $296 $297 $298 $299 forward $142 $-1 #
coedge $-1 $300 $144 $301 $302 forward $91 $-1 #
coedge $-1 $144 $300 $303 $304 forward $91 $-1 #
coedge $-1 $305 $306 $144 $219 reversed $307 $-1 #
edge $-1 $308 -6.4753929742323244 $309 6.4753929742323244 $218 $310 forward 7 unknown #
coedge $-1 $220 $220 $145 $221 forward $311 $-1 #
edge $-1 $312 -3.1415926535897931 $312 3.1415926535897931 $220 $313 forward 7 unknown #
loop $-1 $314 $146 $212 #
vertex $-1 $147 $315 #
ellipse-curve $-1 -5.0999999999999845 -5.3290705182007514e-015 0 1 0 0 0 1.1000000000000001 0 1 I I #
primitive_order-cdc-attrib $-1 $-1 $149 $98 0 8 #
model_id-kcp-attrib $-1 $316 $-1 $150 1 990564934 120 695730177 7 #
face $317 $242 $318 $12 $-1 $319 forward single #
loop $-1 $-1 $320 $150 #
spline-surface $-1 forward { exactsur full nurbs 4 2 v open periodic none none 2 5 
	-5.07208809257925 4 0 4 
	0 2 1.53073372946036 2 3.06146745892072 2 4.5922011883810798 2 6.1229349178414401 2 
	11.2214285714286 5.9500000000000002 0 1 
	11.487043511926601 7.4263393909112798 0 1 
	8.0812827675215697 8.7682501170894707 0 1 
	9.1871115906908205 5.62268447852815 0 1 
	8.8071428571428605 4.9500000000000002 0 1 
	11.2214285714286 5.9500000000000002 3.6571428571428499 0.70710678118654802 
	11.487043511926601 7.4263393909112798 5.13348224805413 0.70710678118654802 
	8.0812827675215697 8.7682501170894707 6.47539297423232 0.70710678118654802 
	9.1871115906908205 5.62268447852815 3.32982733567101 0.70710678118654802 
	8.8071428571428605 4.9500000000000002 2.6571428571428601 0.70710678118654802 
	11.2214285714286 2.29285714285714 3.6571428571428601 1 
	11.487043511926601 2.29285714285714 5.13348224805413 1 
	8.0812827675215697 2.29285714285714 6.4753929742323297 1 
	9.1871115906908205 2.29285714285714 3.32982733567101 1 
	8.8071428571428605 2.29285714285714 2.6571428571428601 1 
	11.2214285714286 -1.3642857142857101 3.6571428571428499 0.70710678118654802 
	11.487043511926601 -2.84062510519699 5.13348224805413 0.70710678118654802 
	8.0812827675215697 -4.1825358313751799 6.47539297423232 0.70710678118654802 
	9.1871115906908205 -1.0369701928138699 3.32982733567101 0.70710678118654802 
	8.8071428571428605 -0.36428571428571499 2.6571428571428601 0.70710678118654802 
	11.2214285714286 -1.3642857142857101 0 1 
	11.487043511926601 -2.84062510519699 0 1 
	8.0812827675215697 -4.1825358313751799 0 1 
	9.1871115906908205 -1.0369701928138699 0 1 
	8.8071428571428605 -0.36428571428571499 0 1 
	11.2214285714286 -1.3642857142857101 -3.6571428571428499 0.70710678118654802 
	11.487043511926601 -2.84062510519699 -5.13348224805413 0.70710678118654802 
	8.0812827675215697 -4.1825358313751799 -6.47539297423232 0.70710678118654802 
	9.1871115906908205 -1.0369701928138699 -3.32982733567101 0.70710678118654802 
	8.8071428571428605 -0.36428571428571399 -2.6571428571428601 0.70710678118654802 
	11.2214285714286 2.29285714285714 -3.6571428571428601 1 
	11.487043511926601 2.29285714285714 -5.13348224805413 1 
	8.0812827675215697 2.29285714285714 -6.4753929742323297 1 
	9.1871115906908205 2.29285714285714 -3.32982733567101 1 
	8.8071428571428605 2.29285714285714 -2.6571428571428601 1 
	11.2214285714286 5.9500000000000002 -3.6571428571428601 0.70710678118654802 
	11.487043511926601 7.4263393909112798 -5.13348224805413 0.70710678118654802 
	8.0812827675215697 8.7682501170894707 -6.4753929742323297 0.70710678118654802 
	9.1871115906908205 5.62268447852815 -3.32982733567101 0.70710678118654802 
	8.8071428571428605 4.9500000000000002 -2.6571428571428601 0.70710678118654802 
	11.2214285714286 5.9500000000000002 0 1 
	11.487043511926601 7.4263393909112798 0 1 
	8.0812827675215697 8.7682501170894707 0 1 
	9.1871115906908205 5.62268447852815 0 1 
	8.8071428571428605 4.9500000000000002 0 1 
	0 
	0 
	0 
	0 
	0 
	0 
	0 
	F 1 F 0 F 1 F 0 } I I I I #
loop $-1 $-1 $321 $98 #
coedge $-1 $231 $231 $322 $323 reversed $151 $-1 #
coedge $-1 $233 $153 $321 $324 reversed $99 $325 #
coedge $-1 $154 $232 $153 $234 reversed $99 $326 #
edge $-1 $237 0 $327 5.8372727356417897 $153 $328 forward 7 unknown #
pcurve $-1 0 forward { exppc nubs 1 open 2 
	0 1 5.8372727356417897 1 
	0 6.1229349178414401 
	-5.8372727356417897 6.1229349178414401 
	0 
	spline forward { exactsur full nurbs 4 2 v open periodic none none 2 5 
	-5.8372727356417897 4 0 4 
	0 2 1.53073372946036 2 3.06146745892072 2 4.5922011883810798 2 6.1229349178414401 2 
	7.0214285714285705 4.9500000000000002 0 1 
	7.5242122289795503 6.7268856066387404 0 1 
	5.8659556739988403 8.4844890421739194 0 1 
	4.0799094235754199 6.7257888578299596 0 1 
	4.4214285714285699 4.96428571428571 0 1 
	7.0214285714285705 4.9500000000000002 2.6571428571428601 0.70710678118654802 
	7.5242122289795503 6.7268856066387404 4.4340284637816003 0.70710678118654802 
	5.8659556739988403 8.4844890421739194 6.1916318993167803 0.70710678118654802 
	4.0799094235754199 6.7257888578299596 4.4329317149728196 0.70710678118654802 
	4.4214285714285699 4.96428571428571 2.6714285714285699 0.70710678118654802 
	7.0214285714285705 2.29285714285714 2.6571428571428601 1 
	7.5242122289795503 2.29285714285714 4.4340284637816003 1 
	5.8659556739988403 2.29285714285714 6.1916318993167803 1 
	4.0799094235754199 2.29285714285714 4.4329317149728196 1 
	4.4214285714285699 2.29285714285714 2.6714285714285699 1 
	7.0214285714285705 -0.36428571428571521 2.6571428571428601 0.70710678118654802 
	7.5242122289795503 -2.1411713209244598 4.4340284637816003 0.70710678118654802 
	5.8659556739988403 -3.8987747564596398 6.1916318993167803 0.70710678118654802 
	4.0799094235754199 -2.14007457211568 4.4329317149728196 0.70710678118654802 
	4.4214285714285699 -0.378571428571429 2.6714285714285699 0.70710678118654802 
	7.0214285714285705 -0.36428571428571521 0 1 
	7.5242122289795503 -2.1411713209244598 0 1 
	5.8659556739988403 -3.8987747564596398 0 1 
	4.0799094235754199 -2.14007457211568 0 1 
	4.4214285714285699 -0.378571428571429 0 1 
	7.0214285714285705 -0.36428571428571388 -2.6571428571428601 0.70710678118654802 
	7.5242122289795503 -2.1411713209244598 -4.4340284637816003 0.70710678118654802 
	5.8659556739988403 -3.8987747564596398 -6.1916318993167803 0.70710678118654802 
	4.0799094235754199 -2.14007457211568 -4.4329317149728196 0.70710678118654802 
	4.4214285714285699 -0.378571428571429 -2.6714285714285699 0.70710678118654802 
	7.0214285714285705 2.29285714285714 -2.6571428571428601 1 
	7.5242122289795503 2.29285714285714 -4.4340284637816003 1 
	5.8659556739988403 2.29285714285714 -6.1916318993167803 1 
	4.0799094235754199 2.29285714285714 -4.4329317149728196 1 
	4.4214285714285699 2.29285714285714 -2.6714285714285699 1 
	7.0214285714285705 4.9500000000000002 -2.6571428571428601 0.70710678118654802 
	7.5242122289795503 6.7268856066387404 -4.4340284637816003 0.70710678118654802 
	5.8659556739988403 8.4844890421739194 -6.1916318993167803 0.70710678118654802 
	4.0799094235754199 6.7257888578299596 -4.4329317149728196 0.70710678118654802 
	4.4214285714285699 4.96428571428571 -2.6714285714285699 0.70710678118654802 
	7.0214285714285705 4.9500000000000002 0 1 
	7.5242122289795503 6.7268856066387404 0 1 
	5.8659556739988403 8.4844890421739194 0 1 
	4.0799094235754199 6.7257888578299596 0 1 
	4.4214285714285699 4.96428571428571 0 1 
	0 
	0 
	0 
	0 
	0 
	0 
	0 
	F 1 F 0 F 1 F 0 } I I I I 
	} 0 0 #
pcurve $-1 0 forward { exppc nubs 1 periodic 2 
	0 1 6.2831853071796004 1 
	0 0 
	0 6.1229349178414401 
	0 
	spline forward { ref 0 } I I I I 
	} 0 0 #
vertex $-1 $155 $329 #
ellipse-curve $-1 4.4214285714285699 2.29285714285714 0 1 0 0 0 2.6714285714285699 0 1 I I #
convexity-sys-attrib $-1 $-1 $156 $104 #
point $-1 2.6785714285714302 4.0785714285714301 0 #
loop $-1 $-1 $330 $242 #
face $331 $-1 $159 $12 $-1 $332 forward single #
convexity-sys-attrib $-1 $-1 $160 $106 #
point $-1 12.8785714285714 3.3928571428571401 0 #
primitive_order-cdc-attrib $-1 $-1 $-1 $166 0 1 #
plane-surface $-1 3.4500000000000002 5.3785714285714299 5 0 0 1 1 0 0 forward_v I I I I #
coedge $-1 $169 $182 $170 $249 forward $112 $-1 #
coedge $-1 $171 $170 $333 $334 forward $74 $-1 #
edge $-1 $335 0 $250 10 $247 $336 forward 7 unknown #
vertex $-1 $249 $337 #
straight-curve $-1 12.449999999999999 7.1785714285714297 5 1 0 0 I I #
coedge $-1 $333 $178 $174 $253 reversed $167 $-1 #
edge $-1 $254 0 $180 1.7999999999999998 $174 $338 forward 7 unknown #
vertex $-1 $334 $339 #
straight-curve $-1 3.4500000000000002 7.1785714285714297 -5 0 0 1 I I #
point $-1 3.4500000000000002 7.1785714285714297 5 #
coedge $-1 $178 $333 $182 $260 reversed $167 $-1 #
straight-curve $-1 3.4500000000000002 5.3785714285714299 -5 1 0 0 I I #
point $-1 3.4500000000000002 5.3785714285714299 -5 #
edge $-1 $183 0 $335 1.7999999999999998 $182 $340 forward 7 unknown #
point $-1 12.449999999999999 5.3785714285714299 -5 #
straight-curve $-1 12.449999999999999 5.3785714285714299 5 0 -1 0 I I #
face $-1 $-1 $204 $25 $-1 $341 reversed single #
loop $-1 $-1 $279 $189 #
plane-surface $-1 0 6.4753929742323244 0 0 -1 0 0 0 -1 forward_v I I I I #
coedge $-1 $342 $277 $280 $343 forward $190 $-1 #
coedge $-1 $283 $192 $193 $271 reversed $129 $-1 #
coedge $-1 $277 $342 $192 $269 reversed $190 $-1 #
edge $-1 $284 -6.4753929742323297 $344 6.4753929742323297 $268 $345 forward 7 unknown #
coedge $-1 $194 $193 $342 $346 forward $82 $-1 #
edge $-1 $275 -5.0999999999999845 $344 5.0999999999999845 $267 $347 forward 7 unknown #
coedge $-1 $280 $279 $194 $273 reversed $264 $-1 #
edge $-1 $348 -5.0999999999999845 $274 5.0999999999999845 $272 $349 forward 7 unknown #
vertex $-1 $196 $350 #
vertex $-1 $286 $351 #
straight-curve $-1 5.0999999999999845 0 -6.4753929742323297 0 -1 0 I I #
coedge $-1 $266 $268 $197 $278 reversed $190 $-1 #
edge $-1 $281 -6.4753929742323244 $284 6.4753929742323244 $277 $352 forward 7 unknown #
coedge $-1 $272 $198 $203 $287 forward $264 $-1 #
coedge $-1 $198 $272 $266 $343 reversed $264 $-1 #
vertex $-1 $199 $353 #
straight-curve $-1 0 6.4753929742323244 6.4753929742323297 -1 0 0 I I #
coedge $-1 $200 $267 $202 $286 reversed $129 $-1 #
vertex $-1 $278 $354 #
straight-curve $-1 0 -6.4753929742323244 6.4753929742323297 1 0 0 I I #
edge $-1 $205 -6.4753929742323297 $275 6.4753929742323297 $202 $355 forward 7 unknown #
edge $-1 $206 -6.4753929742323297 $274 6.4753929742323297 $203 $356 forward 7 unknown #
point $-1 5.0999999999999845 -6.4753929742323244 6.4753929742323297 #
point $-1 5.0999999999999845 6.4753929742323244 6.4753929742323297 #
vertex $-1 $209 $357 #
ellipse-curve $-1 0 0 5.0999999999999854 0 0 1 1.1000000000000001 0 0 1 I I #
point $-1 1.1000000000000001 0 -5.0999999999999854 #
face $-1 $358 $359 $29 $-1 $360 reversed single #
plane-surface $-1 -5.0999999999999845 0 0 1 0 0 0 0 -1 forward_v I I I I #
coedge $-1 $361 $303 $362 $363 forward $213 $-1 #
coedge $-1 $364 $215 $361 $365 forward $142 $-1 #
coedge $-1 $215 $364 $366 $367 forward $142 $-1 #
coedge $-1 $306 $305 $215 $299 reversed $307 $-1 #
edge $-1 $368 -6.4753929742323244 $369 6.4753929742323244 $298 $370 forward 7 unknown #
coedge $-1 $217 $216 $371 $372 forward $91 $-1 #
coedge $-1 $373 $374 $216 $302 reversed $359 $-1 #
edge $-1 $309 -5.0999999999999845 $375 5.0999999999999845 $301 $376 forward 7 unknown #
coedge $-1 $295 $377 $217 $304 reversed $213 $-1 #
edge $-1 $378 -5.0999999999999845 $308 5.0999999999999845 $303 $379 forward 7 unknown #
coedge $-1 $298 $218 $377 $380 forward $307 $-1 #
coedge $-1 $218 $298 $373 $381 reversed $307 $-1 #
loop $-1 $-1 $305 $358 #
vertex $-1 $219 $382 #
vertex $-1 $219 $383 #
straight-curve $-1 5.0999999999999845 0 6.4753929742323297 0 1 0 I I #
loop $-1 $307 $220 $358 #
vertex $-1 $221 $384 #
ellipse-curve $-1 5.0999999999999854 -5.3290705182007514e-015 0 -1 0 0 0 1.1000000000000001 0 1 I I #
loop $-1 $-1 $385 $212 #
point $-1 -5.0999999999999845 -1.1000000000000054 -1.347066989204615e-016 #
primitive_order-cdc-attrib $-1 $-1 $226 $150 0 8 #
model_id-kcp-attrib $-1 $386 $-1 $227 1 990564934 120 695730177 8 #
loop $-1 $387 $388 $227 #
cone-surface $-1 11.6071428571429 2.29285714285714 0 1 0 0 0 2.6857142857142899 0 1 I I -0.92941631326070795 0.36903294791234298 2.6857142857142899 forward I I I I #
coedge $-1 $389 $322 $390 $391 forward $228 $392 #
coedge $-1 $321 $321 $232 $324 forward $230 $-1 #
coedge $-1 $320 $390 $231 $323 forward $228 $393 #
edge $-1 $394 0 $394 6.2831853071795862 $322 $395 forward 7 unknown #
edge $-1 $327 0 $327 6.2831853071795862 $321 $396 forward 7 unknown #
pcurve $-1 0 forward { exppc nubs 1 periodic 2 
	-6.2831853071796004 1 0 1 
	-5.8372727356417897 6.1229349178414401 
	-5.8372727356417897 0 
	0 
	spline forward { ref 0 } I I I I 
	} 0 0 #
pcurve $-1 0 forward { exppc nubs 1 open 2 
	-5.8372727356417897 1 0 1 
	-5.8372727356417897 0 
	0 0 
	0 
	spline forward { ref 3 } I I I I 
	} 0 0 #
vertex $-1 $234 $397 #
intcurve-curve $-1 reversed { exactcur full nubs 4 open 2 
	-5.8372727356417897 4 0 4 
	7.0214285714285696 4.9500000000000002 0 
	7.5242122289795503 6.7268856066387404 0 
	5.8659556739988403 8.4844890421739194 0 
	4.0799094235754199 6.7257888578299596 0 
	4.4214285714285699 4.96428571428571 0 
	0 
	null_surface 
	null_surface 
	nullbs 
	nullbs 
	I I 
	0 
	0 
	0 
	F 1 F 0 } I I #
point $-1 4.4214285714285699 4.96428571428571 0 #
coedge $-1 $330 $330 $388 $398 forward $241 $-1 #
model_id-kcp-attrib $-1 $399 $-1 $242 1 990564934 120 695730177 9 #
cone-surface $-1 12.435714285714299 2.29285714285714 0 1 0 0 0 1.4071428571428599 0 1 I I -0.56989895899836096 0.82171477809066096 1.4071428571428599 forward I I I I #
coedge $-1 $257 $252 $248 $334 reversed $167 $-1 #
edge $-1 $335 0 $254 9 $248 $400 forward 7 unknown #
vertex $-1 $260 $401 #
straight-curve $-1 12.449999999999999 7.1785714285714297 -5 0 0 1 I I #
point $-1 12.449999999999999 7.1785714285714297 5 #
straight-curve $-1 3.4500000000000002 7.1785714285714297 -5 0 -1 0 I I #
point $-1 3.4500000000000002 7.1785714285714297 -5 #
straight-curve $-1 12.449999999999999 5.3785714285714299 -5 0 1 0 I I #
plane-surface $-1 5.0999999999999845 0 0 -1 0 0 0 0 1 forward_v I I I I #
coedge $-1 $268 $266 $270 $346 reversed $190 $-1 #
edge $-1 $281 -6.4753929742323297 $348 6.4753929742323297 $280 $402 forward 7 unknown #
vertex $-1 $346 $403 #
straight-curve $-1 -5.0999999999999845 -6.4753929742323244 0 0 0 -1 I I #
edge $-1 $344 -6.4753929742323244 $348 6.4753929742323244 $342 $404 forward 7 unknown #
straight-curve $-1 0 -6.4753929742323244 -6.4753929742323297 -1 0 0 I I #
vertex $-1 $273 $405 #
straight-curve $-1 0 6.4753929742323244 -6.4753929742323297 1 0 0 I I #
point $-1 5.0999999999999845 6.4753929742323244 -6.4753929742323297 #
point $-1 5.0999999999999845 -6.4753929742323244 -6.4753929742323297 #
straight-curve $-1 -5.0999999999999845 0 6.4753929742323297 0 -1 0 I I #
point $-1 -5.0999999999999845 6.4753929742323244 6.4753929742323297 #
point $-1 -5.0999999999999845 -6.4753929742323244 6.4753929742323297 #
straight-curve $-1 5.0999999999999845 -6.4753929742323244 0 0 0 -1 I I #
straight-curve $-1 5.0999999999999845 6.4753929742323244 0 0 0 -1 I I #
point $-1 1.1000000000000001 0 5.0999999999999854 #
face $-1 $-1 $311 $29 $-1 $406 reversed single #
loop $-1 $-1 $373 $293 #
plane-surface $-1 0 6.4753929742323244 0 0 -1 0 0 0 -1 forward_v I I I I #
coedge $-1 $377 $295 $296 $365 reversed $213 $-1 #
coedge $-1 $371 $407 $295 $363 reversed $314 $-1 #
edge $-1 $378 -6.4753929742323297 $408 6.4753929742323297 $362 $409 forward 7 unknown #
coedge $-1 $297 $296 $407 $410 forward $142 $-1 #
edge $-1 $369 -5.0999999999999845 $408 5.0999999999999845 $361 $411 forward 7 unknown #
coedge $-1 $374 $373 $297 $367 reversed $359 $-1 #
edge $-1 $412 -5.0999999999999845 $368 5.0999999999999845 $366 $413 forward 7 unknown #
vertex $-1 $299 $414 #
vertex $-1 $380 $415 #
straight-curve $-1 5.0999999999999845 0 -6.4753929742323297 0 -1 0 I I #
coedge $-1 $385 $362 $300 $372 reversed $314 $-1 #
edge $-1 $375 -6.4753929742323244 $378 6.4753929742323244 $371 $416 forward 7 unknown #
coedge $-1 $366 $301 $306 $381 forward $359 $-1 #
coedge $-1 $301 $366 $385 $417 reversed $359 $-1 #
vertex $-1 $302 $418 #
straight-curve $-1 0 6.4753929742323244 6.4753929742323297 -1 0 0 I I #
coedge $-1 $303 $361 $305 $380 reversed $213 $-1 #
vertex $-1 $372 $419 #
straight-curve $-1 0 -6.4753929742323244 6.4753929742323297 1 0 0 I I #
edge $-1 $308 -6.4753929742323297 $369 6.4753929742323297 $305 $420 forward 7 unknown #
edge $-1 $309 -6.4753929742323297 $368 6.4753929742323297 $306 $421 forward 7 unknown #
point $-1 5.0999999999999845 -6.4753929742323244 6.4753929742323297 #
point $-1 5.0999999999999845 6.4753929742323244 6.4753929742323297 #
point $-1 5.0999999999999854 -1.1000000000000054 1.347066989204615e-016 #
coedge $-1 $407 $371 $374 $417 forward $314 $-1 #
primitive_order-cdc-attrib $-1 $-1 $317 $227 0 8 #
loop $-1 $-1 $422 $227 #
coedge $-1 $388 $388 $330 $398 reversed $318 $-1 #
coedge $-1 $390 $320 $422 $423 reversed $228 $424 #
coedge $-1 $322 $389 $320 $391 reversed $228 $425 #
edge $-1 $394 0 $426 5.07208809257925 $320 $427 forward 7 unknown #
pcurve $-1 0 forward { exppc nubs 1 open 2 
	0 1 5.07208809257925 1 
	0 6.1229349178414401 
	-5.07208809257925 6.1229349178414401 
	0 
	spline forward { exactsur full nurbs 4 2 v open periodic none none 2 5 
	-5.07208809257925 4 0 4 
	0 2 1.53073372946036 2 3.06146745892072 2 4.5922011883810798 2 6.1229349178414401 2 
	11.2214285714286 5.9500000000000002 0 1 
	11.487043511926601 7.4263393909112807 0 1 
	8.0812827675215697 8.7682501170894707 0 1 
	9.1871115906908205 5.62268447852815 0 1 
	8.8071428571428605 4.9500000000000002 0 1 
	11.2214285714286 5.9500000000000002 3.6571428571428499 0.70710678118654802 
	11.487043511926601 7.4263393909112807 5.13348224805413 0.70710678118654802 
	8.0812827675215697 8.7682501170894707 6.47539297423232 0.70710678118654802 
	9.1871115906908205 5.62268447852815 3.32982733567101 0.70710678118654802 
	8.8071428571428605 4.9500000000000002 2.6571428571428601 0.70710678118654802 
	11.2214285714286 2.29285714285714 3.6571428571428601 1 
	11.487043511926601 2.29285714285714 5.13348224805413 1 
	8.0812827675215697 2.29285714285714 6.4753929742323297 1 
	9.1871115906908205 2.29285714285714 3.32982733567101 1 
	8.8071428571428605 2.29285714285714 2.6571428571428601 1 
	11.2214285714286 -1.3642857142857099 3.6571428571428499 0.70710678118654802 
	11.487043511926601 -2.8406251051969904 5.13348224805413 0.70710678118654802 
	8.0812827675215697 -4.1825358313751799 6.47539297423232 0.70710678118654802 
	9.1871115906908205 -1.0369701928138699 3.32982733567101 0.70710678118654802 
	8.8071428571428605 -0.36428571428571521 2.6571428571428601 0.70710678118654802 
	11.2214285714286 -1.3642857142857099 0 1 
	11.487043511926601 -2.8406251051969904 0 1 
	8.0812827675215697 -4.1825358313751799 0 1 
	9.1871115906908205 -1.0369701928138699 0 1 
	8.8071428571428605 -0.36428571428571521 0 1 
	11.2214285714286 -1.3642857142857099 -3.6571428571428499 0.70710678118654802 
	11.487043511926601 -2.8406251051969904 -5.13348224805413 0.70710678118654802 
	8.0812827675215697 -4.1825358313751799 -6.47539297423232 0.70710678118654802 
	9.1871115906908205 -1.0369701928138699 -3.32982733567101 0.70710678118654802 
	8.8071428571428605 -0.36428571428571388 -2.6571428571428601 0.70710678118654802 
	11.2214285714286 2.29285714285714 -3.6571428571428601 1 
	11.487043511926601 2.29285714285714 -5.13348224805413 1 
	8.0812827675215697 2.29285714285714 -6.4753929742323297 1 
	9.1871115906908205 2.29285714285714 -3.32982733567101 1 
	8.8071428571428605 2.29285714285714 -2.6571428571428601 1 
	11.2214285714286 5.9500000000000002 -3.6571428571428601 0.70710678118654802 
	11.487043511926601 7.4263393909112807 -5.13348224805413 0.70710678118654802 
	8.0812827675215697 8.7682501170894707 -6.4753929742323297 0.70710678118654802 
	9.1871115906908205 5.62268447852815 -3.32982733567101 0.70710678118654802 
	8.8071428571428605 4.9500000000000002 -2.6571428571428601 0.70710678118654802 
	11.2214285714286 5.9500000000000002 0 1 
	11.487043511926601 7.4263393909112807 0 1 
	8.0812827675215697 8.7682501170894707 0 1 
	9.1871115906908205 5.62268447852815 0 1 
	8.8071428571428605 4.9500000000000002 0 1 
	0 
	0 
	0 
	0 
	0 
	0 
	0 
	F 1 F 0 F 1 F 0 } I I I I 
	} 0 0 #
pcurve $-1 0 forward { exppc nubs 1 periodic 2 
	0 1 6.2831853071796004 1 
	0 0 
	0 6.1229349178414401 
	0 
	spline forward { ref 1 } I I I I 
	} 0 0 #
vertex $-1 $323 $428 #
ellipse-curve $-1 8.8071428571428605 2.29285714285714 0 1 0 0 0 2.6571428571428601 0 1 I I #
ellipse-curve $-1 7.0214285714285696 2.29285714285714 0 1 0 0 0 2.6571428571428601 0 1 I I #
point $-1 7.0214285714285696 4.9500000000000002 0 #
edge $429 $430 0 $430 6.2831853071795862 $330 $431 forward 7 unknown #
primitive_order-cdc-attrib $-1 $-1 $331 $242 0 8 #
straight-curve $-1 12.449999999999999 7.1785714285714297 -5 -1 0 0 I I #
point $-1 12.449999999999999 7.1785714285714297 -5 #
straight-curve $-1 -5.0999999999999845 6.4753929742323244 0 0 0 -1 I I #
point $-1 -5.0999999999999845 -6.4753929742323244 -6.4753929742323297 #
straight-curve $-1 -5.0999999999999845 0 -6.4753929742323297 0 1 0 I I #
point $-1 -5.0999999999999845 6.4753929742323244 -6.4753929742323297 #
plane-surface $-1 5.0999999999999845 0 0 -1 0 0 0 0 1 forward_v I I I I #
coedge $-1 $362 $385 $364 $410 reversed $314 $-1 #
vertex $-1 $410 $432 #
straight-curve $-1 -5.0999999999999845 -6.4753929742323244 0 0 0 -1 I I #
edge $-1 $408 -6.4753929742323244 $412 6.4753929742323244 $407 $433 forward 7 unknown #
straight-curve $-1 0 -6.4753929742323244 -6.4753929742323297 -1 0 0 I I #
vertex $-1 $367 $434 #
straight-curve $-1 0 6.4753929742323244 -6.4753929742323297 1 0 0 I I #
point $-1 5.0999999999999845 6.4753929742323244 -6.4753929742323297 #
point $-1 5.0999999999999845 -6.4753929742323244 -6.4753929742323297 #
straight-curve $-1 -5.0999999999999845 0 6.4753929742323297 0 -1 0 I I #
edge $-1 $375 -6.4753929742323297 $412 6.4753929742323297 $374 $435 forward 7 unknown #
point $-1 -5.0999999999999845 6.4753929742323244 6.4753929742323297 #
point $-1 -5.0999999999999845 -6.4753929742323244 6.4753929742323297 #
straight-curve $-1 5.0999999999999845 -6.4753929742323244 0 0 0 -1 I I #
straight-curve $-1 5.0999999999999845 6.4753929742323244 0 0 0 -1 I I #
coedge $-1 $422 $422 $389 $423 forward $387 $-1 #
edge $-1 $426 0 $426 6.2831853071795862 $422 $436 forward 7 unknown #
pcurve $-1 0 forward { exppc nubs 1 periodic 2 
	-6.2831853071796004 1 0 1 
	-5.07208809257925 6.1229349178414401 
	-5.07208809257925 0 
	0 
	spline forward { ref 1 } I I I I 
	} 0 0 #
pcurve $-1 0 forward { exppc nubs 1 open 2 
	-5.07208809257925 1 0 1 
	-5.07208809257925 0 
	0 0 
	0 
	spline forward { ref 9 } I I I I 
	} 0 0 #
vertex $-1 $391 $437 #
intcurve-curve $-1 reversed { exactcur full nubs 4 open 2 
	-5.07208809257925 4 0 4 
	11.2214285714286 5.9500000000000002 0 
	11.487043511926601 7.4263393909112798 0 
	8.0812827675215697 8.7682501170894707 0 
	9.1871115906908205 5.62268447852815 0 
	8.8071428571428605 4.9500000000000002 0 
	0 
	null_surface 
	null_surface 
	nullbs 
	nullbs 
	I I 
	0 
	0 
	0 
	F 1 F 0 } I I #
point $-1 8.8071428571428605 4.9500000000000002 0 #
attrib_edge_convexity-kcp-attrib $-1 $438 $-1 $398 2 #
vertex $-1 $398 $439 #
ellipse-curve $-1 11.992857142857099 2.29285714285714 0 1 0 0 0 1.71428571428571 0 1 I I #
point $-1 -5.0999999999999845 -6.4753929742323244 -6.4753929742323297 #
straight-curve $-1 -5.0999999999999845 0 -6.4753929742323297 0 1 0 I I #
point $-1 -5.0999999999999845 6.4753929742323244 -6.4753929742323297 #
straight-curve $-1 -5.0999999999999845 6.4753929742323244 0 0 0 -1 I I #
ellipse-curve $-1 11.2214285714286 2.29285714285714 0 1 0 0 0 3.6571428571428601 0 1 I I #
point $-1 11.2214285714286 5.9500000000000002 0 #
convexity-sys-attrib $-1 $-1 $429 $398 #
point $-1 11.992857142857099 4.0071428571428598 0 #
End-of-ACIS-data 