600 0 1 0           
69 GICL ACIS Healer - Source: /gicl/data5/repository/new/cdc21.sat - 6 0 18 ACIS 6.0.3 Solaris 24 Sat Apr 13 20:07:29 2002 
1 9.999999999999999547e-07 1.000000000000000036e-10 
body $1 $2 $-1 $-1 #
brep_non_volatile_id-cdc-attrib $-1 $-1 $-1 $0 1 #
lump $-1 $-1 $3 $0 #
shell $-1 $-1 $-1 $4 $-1 $2 #
face $5 $6 $7 $3 $-1 $8 forward single #
primitive_order-cdc-attrib $-1 $-1 $-1 $4 0 8 #
face $9 $10 $11 $3 $-1 $12 forward single #
loop $-1 $13 $14 $4 #
cone-surface $-1 7.778571428571430246 2.292857142857140484 0 1 0 0 0 1.100000000000000089 0 1 I I 0 -1 1.100000000000000089 forward I I I I #
primitive_order-cdc-attrib $-1 $-1 $-1 $6 0 8 #
face $15 $16 $17 $3 $-1 $18 forward single #
loop $-1 $19 $20 $6 #
plane-surface $-1 2.678571428571430157 3.392857142857140573 0 -1 0 0 0 0 1 forward_v I I I I #
loop $-1 $-1 $21 $4 #
coedge $-1 $14 $14 $22 $23 reversed $7 $-1 #
primitive_order-cdc-attrib $-1 $-1 $-1 $10 0 8 #
face $24 $25 $26 $3 $-1 $27 forward single #
loop $-1 $28 $29 $10 #
cone-surface $-1 3.549999999999999822 2.292857142857140484 0 1 0 0 0 2.22857142857142998 0 1 I I 0.4530498481257890231 0.8914851850217140328 2.22857142857142998 forward I I I I #
loop $-1 $-1 $22 $6 #
coedge $-1 $20 $20 $30 $31 reversed $11 $-1 #
coedge $-1 $21 $21 $32 $33 forward $13 $-1 #
coedge $-1 $22 $22 $14 $23 forward $19 $-1 #
edge $-1 $34 0 $34 6.283185307179586232 $22 $35 forward 7 unknown #
primitive_order-cdc-attrib $-1 $-1 $-1 $16 0 8 #
face $36 $37 $38 $3 $-1 $39 forward single #
loop $-1 $-1 $40 $16 #
spline-surface $-1 forward { exactsur full nurbs 4 2 v open periodic none none 2 5 
	-5.837272735641789723 4 0 4 
	0 2 1.530733729460360015 2 3.061467458920720031 2 4.592201188381079824 2 6.122934917841440061 2 
	7.021428571428569576 4.950000000000001066 0 1 
	7.524212228979550332 6.726885606638741244 0 1 
	5.865955673998840325 8.484489042173919415 0 1 
	4.079909423575419858 6.725788857829960499 0 1 
	4.421428571428569931 4.96428571428571086 0 1 
	7.021428571428569576 4.950000000000001066 2.657142857142860137 0.7071067811865480168 
	7.524212228979550332 6.726885606638741244 4.434028463781600315 0.7071067811865480168 
	5.865955673998840325 8.484489042173919415 6.191631899316780263 0.7071067811865480168 
	4.079909423575419858 6.725788857829960499 4.43293171497281957 0.7071067811865480168 
	4.421428571428569931 4.96428571428571086 2.671428571428569931 0.7071067811865480168 
	7.021428571428569576 2.292857142857140484 2.657142857142860137 1 
	7.524212228979550332 2.292857142857140484 4.434028463781600315 1 
	5.865955673998840325 2.292857142857140484 6.191631899316780263 1 
	4.079909423575419858 2.292857142857140484 4.43293171497281957 1 
	4.421428571428569931 2.292857142857140484 2.671428571428569931 1 
	7.021428571428569576 -0.3642857142857145458 2.657142857142860137 0.7071067811865480168 
	7.524212228979550332 -2.141171320924459387 4.434028463781600315 0.7071067811865480168 
	5.865955673998840325 -3.898774756459639335 6.191631899316780263 0.7071067811865480168 
	4.079909423575419858 -2.14007457211567953 4.43293171497281957 0.7071067811865480168 
	4.421428571428569931 -0.3785714285714285587 2.671428571428569931 0.7071067811865480168 
	7.021428571428569576 -0.3642857142857145458 0 1 
	7.524212228979550332 -2.141171320924459387 0 1 
	5.865955673998840325 -3.898774756459639335 0 1 
	4.079909423575419858 -2.14007457211567953 0 1 
	4.421428571428569931 -0.3785714285714285587 0 1 
	7.021428571428569576 -0.3642857142857135466 -2.657142857142860137 0.7071067811865480168 
	7.524212228979550332 -2.141171320924459387 -4.434028463781600315 0.7071067811865480168 
	5.865955673998840325 -3.898774756459639335 -6.191631899316780263 0.7071067811865480168 
	4.079909423575419858 -2.14007457211567953 -4.43293171497281957 0.7071067811865480168 
	4.421428571428569931 -0.3785714285714285587 -2.671428571428569931 0.7071067811865480168 
	7.021428571428569576 2.292857142857140484 -2.657142857142860137 1 
	7.524212228979550332 2.292857142857140484 -4.434028463781600315 1 
	5.865955673998840325 2.292857142857140484 -6.191631899316780263 1 
	4.079909423575419858 2.292857142857140484 -4.43293171497281957 1 
	4.421428571428569931 2.292857142857140484 -2.671428571428569931 1 
	7.021428571428569576 4.950000000000001066 -2.657142857142860137 0.7071067811865480168 
	7.524212228979550332 6.726885606638741244 -4.434028463781600315 0.7071067811865480168 
	5.865955673998840325 8.484489042173919415 -6.191631899316780263 0.7071067811865480168 
	4.079909423575419858 6.725788857829960499 -4.43293171497281957 0.7071067811865480168 
	4.421428571428569931 4.96428571428571086 -2.671428571428569931 0.7071067811865480168 
	7.021428571428569576 4.950000000000001066 0 1 
	7.524212228979550332 6.726885606638741244 0 1 
	5.865955673998840325 8.484489042173919415 0 1 
	4.079909423575419858 6.725788857829960499 0 1 
	4.421428571428569931 4.96428571428571086 0 1 
	0 
	0 
	0 
	0 
	0 
	0 
	0 
	F 1 F 0 F 1 F 0 } I I I I #
loop $-1 $-1 $30 $10 #
coedge $-1 $29 $29 $41 $42 reversed $17 $-1 #
coedge $-1 $30 $30 $20 $31 forward $28 $-1 #
edge $-1 $43 0 $43 6.283185307179586232 $30 $44 forward 7 unknown #
coedge $-1 $32 $32 $21 $33 reversed $45 $-1 #
edge $-1 $46 0 $46 6.283185307179586232 $21 $47 forward 7 unknown #
vertex $-1 $23 $48 #
ellipse-curve $-1 2.678571428571430157 2.292857142857140484 0 1 0 0 0 1.100000000000000089 0 1 I I #
primitive_order-cdc-attrib $-1 $-1 $-1 $25 0 8 #
face $49 $50 $51 $3 $-1 $52 forward single #
loop $-1 $53 $54 $25 #
cone-surface $-1 7.914285714285710149 2.292857142857140484 0 1 0 0 0 2.657142857142860137 0 1 I I 0 1 2.657142857142860137 forward I I I I #
coedge $-1 $55 $41 $56 $57 forward $26 $58 #
coedge $-1 $40 $56 $29 $42 forward $26 $59 #
edge $-1 $60 0 $60 6.283185307179586232 $41 $61 forward 7 unknown #
vertex $-1 $31 $62 #
ellipse-curve $-1 2.678571428571430157 2.292857142857140484 0 1 0 0 0 1.785714285714290028 0 1 I I #
loop $-1 $63 $32 $64 #
vertex $-1 $33 $65 #
ellipse-curve $-1 12.87857142857139969 2.292857142857140484 0 1 0 0 0 1.100000000000000089 0 1 I I #
point $-1 2.678571428571430157 3.392857142857140573 0 #
primitive_order-cdc-attrib $-1 $-1 $-1 $37 0 8 #
face $66 $64 $67 $3 $-1 $68 forward single #
loop $-1 $-1 $69 $37 #
spline-surface $-1 forward { exactsur full nurbs 4 2 v open periodic none none 2 5 
	-5.072088092579249974 4 0 4 
	0 2 1.530733729460360015 2 3.061467458920720031 2 4.592201188381079824 2 6.122934917841440061 2 
	11.22142857142859995 5.950000000000001066 0 1 
	11.48704351192660056 7.426339390911280702 0 1 
	8.08128276752156971 8.768250117089470663 0 1 
	9.187111590690820506 5.622684478528150898 0 1 
	8.807142857142860493 4.950000000000001066 0 1 
	11.22142857142859995 5.950000000000001066 3.657142857142849923 0.7071067811865480168 
	11.48704351192660056 7.426339390911280702 5.133482248054130004 0.7071067811865480168 
	8.08128276752156971 8.768250117089470663 6.475392974232319965 0.7071067811865480168 
	9.187111590690820506 5.622684478528150898 3.329827335671009969 0.7071067811865480168 
	8.807142857142860493 4.950000000000001066 2.657142857142860137 0.7071067811865480168 
	11.22142857142859995 2.292857142857140484 3.657142857142860137 1 
	11.48704351192660056 2.292857142857140484 5.133482248054130004 1 
	8.08128276752156971 2.292857142857140484 6.475392974232329735 1 
	9.187111590690820506 2.292857142857140484 3.329827335671009969 1 
	8.807142857142860493 2.292857142857140484 2.657142857142860137 1 
	11.22142857142859995 -1.364285714285709661 3.657142857142849923 0.7071067811865480168 
	11.48704351192660056 -2.840625105196989519 5.133482248054130004 0.7071067811865480168 
	8.08128276752156971 -4.182535831375179036 6.475392974232319965 0.7071067811865480168 
	9.187111590690820506 -1.036970192813869485 3.329827335671009969 0.7071067811865480168 
	8.807142857142860493 -0.3642857142857145458 2.657142857142860137 0.7071067811865480168 
	11.22142857142859995 -1.364285714285709661 0 1 
	11.48704351192660056 -2.840625105196989519 0 1 
	8.08128276752156971 -4.182535831375179036 0 1 
	9.187111590690820506 -1.036970192813869485 0 1 
	8.807142857142860493 -0.3642857142857145458 0 1 
	11.22142857142859995 -1.364285714285709661 -3.657142857142849923 0.7071067811865480168 
	11.48704351192660056 -2.840625105196989519 -5.133482248054130004 0.7071067811865480168 
	8.08128276752156971 -4.182535831375179036 -6.475392974232319965 0.7071067811865480168 
	9.187111590690820506 -1.036970192813869485 -3.329827335671009969 0.7071067811865480168 
	8.807142857142860493 -0.3642857142857135466 -2.657142857142860137 0.7071067811865480168 
	11.22142857142859995 2.292857142857140484 -3.657142857142860137 1 
	11.48704351192660056 2.292857142857140484 -5.133482248054130004 1 
	8.08128276752156971 2.292857142857140484 -6.475392974232329735 1 
	9.187111590690820506 2.292857142857140484 -3.329827335671009969 1 
	8.807142857142860493 2.292857142857140484 -2.657142857142860137 1 
	11.22142857142859995 5.950000000000001066 -3.657142857142860137 0.7071067811865480168 
	11.48704351192660056 7.426339390911280702 -5.133482248054130004 0.7071067811865480168 
	8.08128276752156971 8.768250117089470663 -6.475392974232329735 0.7071067811865480168 
	9.187111590690820506 5.622684478528150898 -3.329827335671009969 0.7071067811865480168 
	8.807142857142860493 4.950000000000001066 -2.657142857142860137 0.7071067811865480168 
	11.22142857142859995 5.950000000000001066 0 1 
	11.48704351192660056 7.426339390911280702 0 1 
	8.08128276752156971 8.768250117089470663 0 1 
	9.187111590690820506 5.622684478528150898 0 1 
	8.807142857142860493 4.950000000000001066 0 1 
	0 
	0 
	0 
	0 
	0 
	0 
	0 
	F 1 F 0 F 1 F 0 } I I I I #
loop $-1 $-1 $70 $25 #
coedge $-1 $54 $54 $71 $72 reversed $38 $-1 #
coedge $-1 $56 $40 $70 $73 reversed $26 $74 #
coedge $-1 $41 $55 $40 $57 reversed $26 $75 #
edge $-1 $60 -0 $76 5.837272735641789723 $40 $77 forward 7 unknown #
pcurve $-1 0 forward { exppc nubs 1 open 2 
	0 1 5.837272735641789723 1 
	0 0 
	-5.837272735641789723 0 
	3.865139224760432084e-15 
	spline forward { ref 0 } I I I I 
	} 0 0 #
pcurve $-1 0 forward { exppc nubs 1 periodic 2 
	0 1 6.283185307179600443 1 
	0 0 
	0 6.122934917841440061 
	0 
	spline forward { ref 0 } I I I I 
	} 0 0 #
vertex $-1 $42 $78 #
ellipse-curve $-1 4.421428571428569931 2.292857142857140484 0 1 0 0 0 2.671428571428569931 0 1 I I #
point $-1 2.678571428571430157 4.078571428571430957 0 #
loop $-1 $-1 $79 $64 #
face $80 $-1 $45 $3 $-1 $81 forward single #
point $-1 12.87857142857139969 3.392857142857140573 0 #
primitive_order-cdc-attrib $-1 $-1 $-1 $50 0 8 #
loop $-1 $82 $83 $50 #
cone-surface $-1 11.60714285714290028 2.292857142857140484 0 1 0 0 0 2.685714285714289939 0 1 I I -0.9294163132607079492 0.369032947912342979 2.685714285714289939 forward I I I I #
coedge $-1 $84 $71 $85 $86 forward $51 $87 #
coedge $-1 $70 $70 $55 $73 forward $53 $-1 #
coedge $-1 $69 $85 $54 $72 forward $51 $88 #
edge $-1 $89 0 $89 6.283185307179586232 $71 $90 forward 7 unknown #
edge $-1 $76 0 $76 6.283185307179586232 $70 $91 forward 7 unknown #
pcurve $-1 0 forward { exppc nubs 1 periodic 2 
	-6.283185307179600443 1 0 1 
	-5.837272735641789723 6.122934917841440061 
	-5.837272735641789723 0 
	0 
	spline forward { ref 0 } I I I I 
	} 0 0 #
pcurve $-1 0 forward { exppc nubs 1 open 2 
	-5.837272735641789723 1 0 1 
	-5.837272735641789723 0 
	0 0 
	0 
	spline forward { ref 0 } I I I I 
	} 0 0 #
vertex $-1 $57 $92 #
intcurve-curve $-1 reversed { exactcur full nubs 4 open 2 
	-5.837272735641789723 4 0 4 
	7.021428571428569576 4.950000000000001066 0 
	7.524212228979550332 6.726885606638741244 0 
	5.865955673998840325 8.484489042173919415 0 
	4.079909423575419858 6.725788857829960499 0 
	4.421428571428569931 4.96428571428571086 0 
	0 
	null_surface 
	null_surface 
	nullbs 
	nullbs 
	I I 
	0 
	0 
	0 
	F 1 F 0 } I I #
point $-1 4.421428571428569931 4.96428571428571086 0 #
coedge $-1 $79 $79 $83 $93 forward $63 $-1 #
primitive_order-cdc-attrib $-1 $-1 $-1 $64 0 8 #
cone-surface $-1 12.43571428571429927 2.292857142857140484 0 1 0 0 0 1.407142857142859915 0 1 I I -0.5698989589983609605 0.8217147780906609578 1.407142857142859915 forward I I I I #
loop $-1 $-1 $94 $50 #
coedge $-1 $83 $83 $79 $93 reversed $67 $-1 #
coedge $-1 $85 $69 $94 $95 reversed $51 $96 #
coedge $-1 $71 $84 $69 $86 reversed $51 $97 #
edge $-1 $89 -0 $98 5.072088092579249974 $69 $99 forward 7 unknown #
pcurve $-1 0 forward { exppc nubs 1 open 2 
	0 1 5.072088092579249974 1 
	0 0 
	-5.072088092579249974 0 
	4.832386609454416932e-15 
	spline forward { ref 1 } I I I I 
	} 0 0 #
pcurve $-1 0 forward { exppc nubs 1 periodic 2 
	0 1 6.283185307179600443 1 
	0 0 
	0 6.122934917841440061 
	0 
	spline forward { ref 1 } I I I I 
	} 0 0 #
vertex $-1 $72 $100 #
ellipse-curve $-1 8.807142857142860493 2.292857142857140484 0 1 0 0 0 2.657142857142860137 0 1 I I #
ellipse-curve $-1 7.021428571428569576 2.292857142857140484 0 1 0 0 0 2.657142857142860137 0 1 I I #
point $-1 7.021428571428569576 4.950000000000001066 0 #
edge $-1 $101 0 $101 6.283185307179586232 $79 $102 forward 7 unknown #
coedge $-1 $94 $94 $84 $95 forward $82 $-1 #
edge $-1 $98 0 $98 6.283185307179586232 $94 $103 forward 7 unknown #
pcurve $-1 0 forward { exppc nubs 1 periodic 2 
	-6.283185307179600443 1 0 1 
	-5.072088092579249974 6.122934917841440061 
	-5.072088092579249974 0 
	0 
	spline forward { ref 1 } I I I I 
	} 0 0 #
pcurve $-1 0 forward { exppc nubs 1 open 2 
	-5.072088092579249974 1 0 1 
	-5.072088092579249974 0 
	0 0 
	0 
	spline forward { ref 1 } I I I I 
	} 0 0 #
vertex $-1 $86 $104 #
intcurve-curve $-1 reversed { exactcur full nubs 4 open 2 
	-5.072088092579249974 4 0 4 
	11.22142857142859995 5.950000000000001066 0 
	11.48704351192660056 7.426339390911280702 0 
	8.08128276752156971 8.768250117089470663 0 
	9.187111590690820506 5.622684478528150898 0 
	8.807142857142860493 4.950000000000001066 0 
	0 
	null_surface 
	null_surface 
	nullbs 
	nullbs 
	I I 
	0 
	0 
	0 
	F 1 F 0 } I I #
point $-1 8.807142857142860493 4.950000000000001066 0 #
vertex $-1 $93 $105 #
ellipse-curve $-1 11.99285714285709936 2.292857142857140484 0 1 0 0 0 1.714285714285709972 0 1 I I #
ellipse-curve $-1 11.22142857142859995 2.292857142857140484 0 1 0 0 0 3.657142857142860137 0 1 I I #
point $-1 11.22142857142859995 5.950000000000001066 0 #
point $-1 11.99285714285709936 4.00714285714286067 0 #
End-of-ACIS-data 