103 107 0 0                                 
body $1 $2 $-1 $3 #
brep_non_volatile_id-cdc-attrib $-1 $-1 $-1 $0 1 #
lump $-1 $-1 $4 $0 #
transform $-1 1 0 0 0 1 0 0 0 1 0 4.44089209850063e-16 0 1 0 0 0 #
shell $-1 $-1 $-1 $5 $2 #
face $6 $7 $8 $4 $-1 $9 0 #
primitive_order-cdc-attrib $-1 $-1 $-1 $5 0 8 #
face $10 $11 $12 $4 $-1 $13 0 #
loop $-1 $14 $15 $5 #
cone-surface $-1 7.77857142857143 2.29285714285714 0 1 0 0 0 1.1 0 1 0 -1 0 #
primitive_order-cdc-attrib $-1 $-1 $-1 $7 0 8 #
face $16 $17 $18 $4 $-1 $19 0 #
loop $-1 $20 $21 $7 #
plane-surface $-1 2.67857142857143 3.39285714285714 0 -1 0 0 0 0 1 0 #
loop $-1 $-1 $22 $5 #
coedge $-1 $15 $15 $23 $24 1 $8 $-1 #
primitive_order-cdc-attrib $-1 $-1 $-1 $11 0 8 #
face $25 $26 $27 $4 $-1 $28 0 #
loop $-1 $29 $30 $11 #
cone-surface $-1 3.55 2.29285714285714 0 1 0 0 0 2.22857142857143 0 1 0.453049848125789 0.891485185021714 0 #
loop $-1 $-1 $23 $7 #
coedge $-1 $21 $21 $31 $32 1 $12 $-1 #
coedge $-1 $22 $22 $33 $34 0 $14 $-1 #
coedge $-1 $23 $23 $15 $24 0 $20 $-1 #
edge $-1 $35 $35 $23 $36 0 #
primitive_order-cdc-attrib $-1 $-1 $-1 $17 0 8 #
face $37 $38 $39 $4 $-1 $40 0 #
loop $-1 $-1 $41 $17 #
spline-surface $-1 0 exact nurbs 4 2 v open periodic none none 2 5 
-5.83727273564179 4 0 4 
0 2 1.53073372946036 2 3.06146745892072 2 4.59220118838108 2 6.12293491784144 2 
7.02142857142857 4.95 0 1 
7.52421222897955 6.72688560663874 0 1 
5.86595567399884 8.48448904217392 0 1 
4.07990942357542 6.72578885782996 0 1 
4.42142857142857 4.96428571428571 0 1 
7.02142857142857 4.95 2.65714285714286 0.707106781186548 
7.52421222897955 6.72688560663874 4.4340284637816 0.707106781186548 
5.86595567399884 8.48448904217392 6.19163189931678 0.707106781186548 
4.07990942357542 6.72578885782996 4.43293171497282 0.707106781186548 
4.42142857142857 4.96428571428571 2.67142857142857 0.707106781186548 
7.02142857142857 2.29285714285714 2.65714285714286 1 
7.52421222897955 2.29285714285714 4.4340284637816 1 
5.86595567399884 2.29285714285714 6.19163189931678 1 
4.07990942357542 2.29285714285714 4.43293171497282 1 
4.42142857142857 2.29285714285714 2.67142857142857 1 
7.02142857142857 -0.364285714285715 2.65714285714286 0.707106781186548 
7.52421222897955 -2.14117132092446 4.4340284637816 0.707106781186548 
5.86595567399884 -3.89877475645964 6.19163189931678 0.707106781186548 
4.07990942357542 -2.14007457211568 4.43293171497282 0.707106781186548 
4.42142857142857 -0.378571428571429 2.67142857142857 0.707106781186548 
7.02142857142857 -0.364285714285715 0 1 
7.52421222897955 -2.14117132092446 0 1 
5.86595567399884 -3.89877475645964 0 1 
4.07990942357542 -2.14007457211568 0 1 
4.42142857142857 -0.378571428571429 0 1 
7.02142857142857 -0.364285714285714 -2.65714285714286 0.707106781186548 
7.52421222897955 -2.14117132092446 -4.4340284637816 0.707106781186548 
5.86595567399884 -3.89877475645964 -6.19163189931678 0.707106781186548 
4.07990942357542 -2.14007457211568 -4.43293171497282 0.707106781186548 
4.42142857142857 -0.378571428571429 -2.67142857142857 0.707106781186548 
7.02142857142857 2.29285714285714 -2.65714285714286 1 
7.52421222897955 2.29285714285714 -4.4340284637816 1 
5.86595567399884 2.29285714285714 -6.19163189931678 1 
4.07990942357542 2.29285714285714 -4.43293171497282 1 
4.42142857142857 2.29285714285714 -2.67142857142857 1 
7.02142857142857 4.95 -2.65714285714286 0.707106781186548 
7.52421222897955 6.72688560663874 -4.4340284637816 0.707106781186548 
5.86595567399884 8.48448904217392 -6.19163189931678 0.707106781186548 
4.07990942357542 6.72578885782996 -4.43293171497282 0.707106781186548 
4.42142857142857 4.96428571428571 -2.67142857142857 0.707106781186548 
7.02142857142857 4.95 0 1 
7.52421222897955 6.72688560663874 0 1 
5.86595567399884 8.48448904217392 0 1 
4.07990942357542 6.72578885782996 0 1 
4.42142857142857 4.96428571428571 0 1 
0 
#
loop $-1 $-1 $31 $11 #
coedge $-1 $30 $30 $42 $43 1 $18 $-1 #
coedge $-1 $31 $31 $21 $32 0 $29 $-1 #
edge $-1 $44 $44 $31 $45 0 #
coedge $-1 $33 $33 $22 $34 1 $46 $-1 #
edge $-1 $47 $47 $22 $48 0 #
vertex $-1 $24 $49 #
ellipse-curve $-1 2.67857142857143 2.29285714285714 0 1 0 0 0 1.1 0 1 #
primitive_order-cdc-attrib $-1 $-1 $-1 $26 0 8 #
face $50 $51 $52 $4 $-1 $53 0 #
loop $-1 $54 $55 $26 #
cone-surface $-1 7.91428571428571 2.29285714285714 0 1 0 0 0 2.65714285714286 0 1 0 1 0 #
coedge $-1 $56 $42 $57 $58 0 $27 $59 #
coedge $-1 $41 $57 $30 $43 0 $27 $60 #
edge $-1 $61 $61 $42 $62 0 #
vertex $-1 $32 $63 #
ellipse-curve $-1 2.67857142857143 2.29285714285714 0 1 0 0 0 1.78571428571429 0 1 #
loop $-1 $64 $33 $65 #
vertex $-1 $34 $66 #
ellipse-curve $-1 12.8785714285714 2.29285714285714 0 1 0 0 0 1.1 0 1 #
point $-1 2.67857142857143 3.39285714285714 0 #
primitive_order-cdc-attrib $-1 $-1 $-1 $38 0 8 #
face $67 $65 $68 $4 $-1 $69 0 #
loop $-1 $-1 $70 $38 #
spline-surface $-1 0 exact nurbs 4 2 v open periodic none none 2 5 
-5.07208809257925 4 0 4 
0 2 1.53073372946036 2 3.06146745892072 2 4.59220118838108 2 6.12293491784144 2 
11.2214285714286 5.95 0 1 
11.4870435119266 7.42633939091128 0 1 
8.08128276752157 8.76825011708947 0 1 
9.18711159069082 5.62268447852815 0 1 
8.80714285714286 4.95 0 1 
11.2214285714286 5.95 3.65714285714285 0.707106781186548 
11.4870435119266 7.42633939091128 5.13348224805413 0.707106781186548 
8.08128276752157 8.76825011708947 6.47539297423232 0.707106781186548 
9.18711159069082 5.62268447852815 3.32982733567101 0.707106781186548 
8.80714285714286 4.95 2.65714285714286 0.707106781186548 
11.2214285714286 2.29285714285714 3.65714285714286 1 
11.4870435119266 2.29285714285714 5.13348224805413 1 
8.08128276752157 2.29285714285714 6.47539297423233 1 
9.18711159069082 2.29285714285714 3.32982733567101 1 
8.80714285714286 2.29285714285714 2.65714285714286 1 
11.2214285714286 -1.36428571428571 3.65714285714285 0.707106781186548 
11.4870435119266 -2.84062510519699 5.13348224805413 0.707106781186548 
8.08128276752157 -4.18253583137518 6.47539297423232 0.707106781186548 
9.18711159069082 -1.03697019281387 3.32982733567101 0.707106781186548 
8.80714285714286 -0.364285714285715 2.65714285714286 0.707106781186548 
11.2214285714286 -1.36428571428571 0 1 
11.4870435119266 -2.84062510519699 0 1 
8.08128276752157 -4.18253583137518 0 1 
9.18711159069082 -1.03697019281387 0 1 
8.80714285714286 -0.364285714285715 0 1 
11.2214285714286 -1.36428571428571 -3.65714285714285 0.707106781186548 
11.4870435119266 -2.84062510519699 -5.13348224805413 0.707106781186548 
8.08128276752157 -4.18253583137518 -6.47539297423232 0.707106781186548 
9.18711159069082 -1.03697019281387 -3.32982733567101 0.707106781186548 
8.80714285714286 -0.364285714285714 -2.65714285714286 0.707106781186548 
11.2214285714286 2.29285714285714 -3.65714285714286 1 
11.4870435119266 2.29285714285714 -5.13348224805413 1 
8.08128276752157 2.29285714285714 -6.47539297423233 1 
9.18711159069082 2.29285714285714 -3.32982733567101 1 
8.80714285714286 2.29285714285714 -2.65714285714286 1 
11.2214285714286 5.95 -3.65714285714286 0.707106781186548 
11.4870435119266 7.42633939091128 -5.13348224805413 0.707106781186548 
8.08128276752157 8.76825011708947 -6.47539297423233 0.707106781186548 
9.18711159069082 5.62268447852815 -3.32982733567101 0.707106781186548 
8.80714285714286 4.95 -2.65714285714286 0.707106781186548 
11.2214285714286 5.95 0 1 
11.4870435119266 7.42633939091128 0 1 
8.08128276752157 8.76825011708947 0 1 
9.18711159069082 5.62268447852815 0 1 
8.80714285714286 4.95 0 1 
0 
#
loop $-1 $-1 $71 $26 #
coedge $-1 $55 $55 $72 $73 1 $39 $-1 #
coedge $-1 $57 $41 $71 $74 1 $27 $75 #
coedge $-1 $42 $56 $41 $58 1 $27 $76 #
edge $-1 $61 $77 $41 $78 0 #
pcurve $-1 0 0 nubs 1 open 2 
0 1 5.83727273564179 1 
0 6.12293491784144 
-5.83727273564179 6.12293491784144 
0 
spline 0 exact nurbs 4 2 v open periodic none none 2 5 
-5.83727273564179 4 0 4 
0 2 1.53073372946036 2 3.06146745892072 2 4.59220118838108 2 6.12293491784144 2 
7.02142857142857 4.95 0 1 
7.52421222897955 6.72688560663874 0 1 
5.86595567399884 8.48448904217392 0 1 
4.07990942357542 6.72578885782996 0 1 
4.42142857142857 4.96428571428571 0 1 
7.02142857142857 4.95 2.65714285714286 0.707106781186548 
7.52421222897955 6.72688560663874 4.4340284637816 0.707106781186548 
5.86595567399884 8.48448904217392 6.19163189931678 0.707106781186548 
4.07990942357542 6.72578885782996 4.43293171497282 0.707106781186548 
4.42142857142857 4.96428571428571 2.67142857142857 0.707106781186548 
7.02142857142857 2.29285714285714 2.65714285714286 1 
7.52421222897955 2.29285714285714 4.4340284637816 1 
5.86595567399884 2.29285714285714 6.19163189931678 1 
4.07990942357542 2.29285714285714 4.43293171497282 1 
4.42142857142857 2.29285714285714 2.67142857142857 1 
7.02142857142857 -0.364285714285715 2.65714285714286 0.707106781186548 
7.52421222897955 -2.14117132092446 4.4340284637816 0.707106781186548 
5.86595567399884 -3.89877475645964 6.19163189931678 0.707106781186548 
4.07990942357542 -2.14007457211568 4.43293171497282 0.707106781186548 
4.42142857142857 -0.378571428571429 2.67142857142857 0.707106781186548 
7.02142857142857 -0.364285714285715 0 1 
7.52421222897955 -2.14117132092446 0 1 
5.86595567399884 -3.89877475645964 0 1 
4.07990942357542 -2.14007457211568 0 1 
4.42142857142857 -0.378571428571429 0 1 
7.02142857142857 -0.364285714285714 -2.65714285714286 0.707106781186548 
7.52421222897955 -2.14117132092446 -4.4340284637816 0.707106781186548 
5.86595567399884 -3.89877475645964 -6.19163189931678 0.707106781186548 
4.07990942357542 -2.14007457211568 -4.43293171497282 0.707106781186548 
4.42142857142857 -0.378571428571429 -2.67142857142857 0.707106781186548 
7.02142857142857 2.29285714285714 -2.65714285714286 1 
7.52421222897955 2.29285714285714 -4.4340284637816 1 
5.86595567399884 2.29285714285714 -6.19163189931678 1 
4.07990942357542 2.29285714285714 -4.43293171497282 1 
4.42142857142857 2.29285714285714 -2.67142857142857 1 
7.02142857142857 4.95 -2.65714285714286 0.707106781186548 
7.52421222897955 6.72688560663874 -4.4340284637816 0.707106781186548 
5.86595567399884 8.48448904217392 -6.19163189931678 0.707106781186548 
4.07990942357542 6.72578885782996 -4.43293171497282 0.707106781186548 
4.42142857142857 4.96428571428571 -2.67142857142857 0.707106781186548 
7.02142857142857 4.95 0 1 
7.52421222897955 6.72688560663874 0 1 
5.86595567399884 8.48448904217392 0 1 
4.07990942357542 6.72578885782996 0 1 
4.42142857142857 4.96428571428571 0 1 
0 

#
pcurve $-1 0 0 nubs 1 periodic 2 
0 1 6.2831853071796 1 
0 0 
0 6.12293491784144 
0 
spline 0 exact nurbs 4 2 v open periodic none none 2 5 
-5.83727273564179 4 0 4 
0 2 1.53073372946036 2 3.06146745892072 2 4.59220118838108 2 6.12293491784144 2 
7.02142857142857 4.95 0 1 
7.52421222897955 6.72688560663874 0 1 
5.86595567399884 8.48448904217392 0 1 
4.07990942357542 6.72578885782996 0 1 
4.42142857142857 4.96428571428571 0 1 
7.02142857142857 4.95 2.65714285714286 0.707106781186548 
7.52421222897955 6.72688560663874 4.4340284637816 0.707106781186548 
5.86595567399884 8.48448904217392 6.19163189931678 0.707106781186548 
4.07990942357542 6.72578885782996 4.43293171497282 0.707106781186548 
4.42142857142857 4.96428571428571 2.67142857142857 0.707106781186548 
7.02142857142857 2.29285714285714 2.65714285714286 1 
7.52421222897955 2.29285714285714 4.4340284637816 1 
5.86595567399884 2.29285714285714 6.19163189931678 1 
4.07990942357542 2.29285714285714 4.43293171497282 1 
4.42142857142857 2.29285714285714 2.67142857142857 1 
7.02142857142857 -0.364285714285715 2.65714285714286 0.707106781186548 
7.52421222897955 -2.14117132092446 4.4340284637816 0.707106781186548 
5.86595567399884 -3.89877475645964 6.19163189931678 0.707106781186548 
4.07990942357542 -2.14007457211568 4.43293171497282 0.707106781186548 
4.42142857142857 -0.378571428571429 2.67142857142857 0.707106781186548 
7.02142857142857 -0.364285714285715 0 1 
7.52421222897955 -2.14117132092446 0 1 
5.86595567399884 -3.89877475645964 0 1 
4.07990942357542 -2.14007457211568 0 1 
4.42142857142857 -0.378571428571429 0 1 
7.02142857142857 -0.364285714285714 -2.65714285714286 0.707106781186548 
7.52421222897955 -2.14117132092446 -4.4340284637816 0.707106781186548 
5.86595567399884 -3.89877475645964 -6.19163189931678 0.707106781186548 
4.07990942357542 -2.14007457211568 -4.43293171497282 0.707106781186548 
4.42142857142857 -0.378571428571429 -2.67142857142857 0.707106781186548 
7.02142857142857 2.29285714285714 -2.65714285714286 1 
7.52421222897955 2.29285714285714 -4.4340284637816 1 
5.86595567399884 2.29285714285714 -6.19163189931678 1 
4.07990942357542 2.29285714285714 -4.43293171497282 1 
4.42142857142857 2.29285714285714 -2.67142857142857 1 
7.02142857142857 4.95 -2.65714285714286 0.707106781186548 
7.52421222897955 6.72688560663874 -4.4340284637816 0.707106781186548 
5.86595567399884 8.48448904217392 -6.19163189931678 0.707106781186548 
4.07990942357542 6.72578885782996 -4.43293171497282 0.707106781186548 
4.42142857142857 4.96428571428571 -2.67142857142857 0.707106781186548 
7.02142857142857 4.95 0 1 
7.52421222897955 6.72688560663874 0 1 
5.86595567399884 8.48448904217392 0 1 
4.07990942357542 6.72578885782996 0 1 
4.42142857142857 4.96428571428571 0 1 
0 

#
vertex $-1 $43 $79 #
ellipse-curve $-1 4.42142857142857 2.29285714285714 0 1 0 0 0 2.67142857142857 0 1 #
point $-1 2.67857142857143 4.07857142857143 0 #
loop $-1 $-1 $80 $65 #
face $81 $-1 $46 $4 $-1 $82 0 #
point $-1 12.8785714285714 3.39285714285714 0 #
primitive_order-cdc-attrib $-1 $-1 $-1 $51 0 8 #
loop $-1 $83 $84 $51 #
cone-surface $-1 11.6071428571429 2.29285714285714 0 1 0 0 0 2.68571428571429 0 1 -0.929416313260708 0.369032947912343 0 #
coedge $-1 $85 $72 $86 $87 0 $52 $88 #
coedge $-1 $71 $71 $56 $74 0 $54 $-1 #
coedge $-1 $70 $86 $55 $73 0 $52 $89 #
edge $-1 $90 $90 $72 $91 0 #
edge $-1 $77 $77 $71 $92 0 #
pcurve $-1 0 0 nubs 1 periodic 2 
-6.2831853071796 1 0 1 
-5.83727273564179 6.12293491784144 
-5.83727273564179 0 
0 
spline 0 exact nurbs 4 2 v open periodic none none 2 5 
-5.83727273564179 4 0 4 
0 2 1.53073372946036 2 3.06146745892072 2 4.59220118838108 2 6.12293491784144 2 
7.02142857142857 4.95 0 1 
7.52421222897955 6.72688560663874 0 1 
5.86595567399884 8.48448904217392 0 1 
4.07990942357542 6.72578885782996 0 1 
4.42142857142857 4.96428571428571 0 1 
7.02142857142857 4.95 2.65714285714286 0.707106781186548 
7.52421222897955 6.72688560663874 4.4340284637816 0.707106781186548 
5.86595567399884 8.48448904217392 6.19163189931678 0.707106781186548 
4.07990942357542 6.72578885782996 4.43293171497282 0.707106781186548 
4.42142857142857 4.96428571428571 2.67142857142857 0.707106781186548 
7.02142857142857 2.29285714285714 2.65714285714286 1 
7.52421222897955 2.29285714285714 4.4340284637816 1 
5.86595567399884 2.29285714285714 6.19163189931678 1 
4.07990942357542 2.29285714285714 4.43293171497282 1 
4.42142857142857 2.29285714285714 2.67142857142857 1 
7.02142857142857 -0.364285714285715 2.65714285714286 0.707106781186548 
7.52421222897955 -2.14117132092446 4.4340284637816 0.707106781186548 
5.86595567399884 -3.89877475645964 6.19163189931678 0.707106781186548 
4.07990942357542 -2.14007457211568 4.43293171497282 0.707106781186548 
4.42142857142857 -0.378571428571429 2.67142857142857 0.707106781186548 
7.02142857142857 -0.364285714285715 0 1 
7.52421222897955 -2.14117132092446 0 1 
5.86595567399884 -3.89877475645964 0 1 
4.07990942357542 -2.14007457211568 0 1 
4.42142857142857 -0.378571428571429 0 1 
7.02142857142857 -0.364285714285714 -2.65714285714286 0.707106781186548 
7.52421222897955 -2.14117132092446 -4.4340284637816 0.707106781186548 
5.86595567399884 -3.89877475645964 -6.19163189931678 0.707106781186548 
4.07990942357542 -2.14007457211568 -4.43293171497282 0.707106781186548 
4.42142857142857 -0.378571428571429 -2.67142857142857 0.707106781186548 
7.02142857142857 2.29285714285714 -2.65714285714286 1 
7.52421222897955 2.29285714285714 -4.4340284637816 1 
5.86595567399884 2.29285714285714 -6.19163189931678 1 
4.07990942357542 2.29285714285714 -4.43293171497282 1 
4.42142857142857 2.29285714285714 -2.67142857142857 1 
7.02142857142857 4.95 -2.65714285714286 0.707106781186548 
7.52421222897955 6.72688560663874 -4.4340284637816 0.707106781186548 
5.86595567399884 8.48448904217392 -6.19163189931678 0.707106781186548 
4.07990942357542 6.72578885782996 -4.43293171497282 0.707106781186548 
4.42142857142857 4.96428571428571 -2.67142857142857 0.707106781186548 
7.02142857142857 4.95 0 1 
7.52421222897955 6.72688560663874 0 1 
5.86595567399884 8.48448904217392 0 1 
4.07990942357542 6.72578885782996 0 1 
4.42142857142857 4.96428571428571 0 1 
0 

#
pcurve $-1 0 0 nubs 1 open 2 
-5.83727273564179 1 0 1 
-5.83727273564179 0 
0 0 
0 
spline 0 exact nurbs 4 2 v open periodic none none 2 5 
-5.83727273564179 4 0 4 
0 2 1.53073372946036 2 3.06146745892072 2 4.59220118838108 2 6.12293491784144 2 
7.02142857142857 4.95 0 1 
7.52421222897955 6.72688560663874 0 1 
5.86595567399884 8.48448904217392 0 1 
4.07990942357542 6.72578885782996 0 1 
4.42142857142857 4.96428571428571 0 1 
7.02142857142857 4.95 2.65714285714286 0.707106781186548 
7.52421222897955 6.72688560663874 4.4340284637816 0.707106781186548 
5.86595567399884 8.48448904217392 6.19163189931678 0.707106781186548 
4.07990942357542 6.72578885782996 4.43293171497282 0.707106781186548 
4.42142857142857 4.96428571428571 2.67142857142857 0.707106781186548 
7.02142857142857 2.29285714285714 2.65714285714286 1 
7.52421222897955 2.29285714285714 4.4340284637816 1 
5.86595567399884 2.29285714285714 6.19163189931678 1 
4.07990942357542 2.29285714285714 4.43293171497282 1 
4.42142857142857 2.29285714285714 2.67142857142857 1 
7.02142857142857 -0.364285714285715 2.65714285714286 0.707106781186548 
7.52421222897955 -2.14117132092446 4.4340284637816 0.707106781186548 
5.86595567399884 -3.89877475645964 6.19163189931678 0.707106781186548 
4.07990942357542 -2.14007457211568 4.43293171497282 0.707106781186548 
4.42142857142857 -0.378571428571429 2.67142857142857 0.707106781186548 
7.02142857142857 -0.364285714285715 0 1 
7.52421222897955 -2.14117132092446 0 1 
5.86595567399884 -3.89877475645964 0 1 
4.07990942357542 -2.14007457211568 0 1 
4.42142857142857 -0.378571428571429 0 1 
7.02142857142857 -0.364285714285714 -2.65714285714286 0.707106781186548 
7.52421222897955 -2.14117132092446 -4.4340284637816 0.707106781186548 
5.86595567399884 -3.89877475645964 -6.19163189931678 0.707106781186548 
4.07990942357542 -2.14007457211568 -4.43293171497282 0.707106781186548 
4.42142857142857 -0.378571428571429 -2.67142857142857 0.707106781186548 
7.02142857142857 2.29285714285714 -2.65714285714286 1 
7.52421222897955 2.29285714285714 -4.4340284637816 1 
5.86595567399884 2.29285714285714 -6.19163189931678 1 
4.07990942357542 2.29285714285714 -4.43293171497282 1 
4.42142857142857 2.29285714285714 -2.67142857142857 1 
7.02142857142857 4.95 -2.65714285714286 0.707106781186548 
7.52421222897955 6.72688560663874 -4.4340284637816 0.707106781186548 
5.86595567399884 8.48448904217392 -6.19163189931678 0.707106781186548 
4.07990942357542 6.72578885782996 -4.43293171497282 0.707106781186548 
4.42142857142857 4.96428571428571 -2.67142857142857 0.707106781186548 
7.02142857142857 4.95 0 1 
7.52421222897955 6.72688560663874 0 1 
5.86595567399884 8.48448904217392 0 1 
4.07990942357542 6.72578885782996 0 1 
4.42142857142857 4.96428571428571 0 1 
0 

#
vertex $-1 $58 $93 #
intcurve-curve $-1 1 exact nubs 4 open 2 
-5.83727273564179 4 0 4 
7.02142857142857 4.95 0 
7.52421222897955 6.72688560663874 0 
5.86595567399884 8.48448904217392 0 
4.07990942357542 6.72578885782996 0 
4.42142857142857 4.96428571428571 0 
0 
null_surface 
null_surface 
nullbs 
nullbs 
#
point $-1 4.42142857142857 4.96428571428571 0 #
coedge $-1 $80 $80 $84 $94 0 $64 $-1 #
primitive_order-cdc-attrib $-1 $-1 $-1 $65 0 8 #
cone-surface $-1 12.4357142857143 2.29285714285714 0 1 0 0 0 1.40714285714286 0 1 -0.569898958998361 0.821714778090661 0 #
loop $-1 $-1 $95 $51 #
coedge $-1 $84 $84 $80 $94 1 $68 $-1 #
coedge $-1 $86 $70 $95 $96 1 $52 $97 #
coedge $-1 $72 $85 $70 $87 1 $52 $98 #
edge $-1 $90 $99 $70 $100 0 #
pcurve $-1 0 0 nubs 1 open 2 
0 1 5.07208809257925 1 
0 6.12293491784144 
-5.07208809257925 6.12293491784144 
0 
spline 0 exact nurbs 4 2 v open periodic none none 2 5 
-5.07208809257925 4 0 4 
0 2 1.53073372946036 2 3.06146745892072 2 4.59220118838108 2 6.12293491784144 2 
11.2214285714286 5.95 0 1 
11.4870435119266 7.42633939091128 0 1 
8.08128276752157 8.76825011708947 0 1 
9.18711159069082 5.62268447852815 0 1 
8.80714285714286 4.95 0 1 
11.2214285714286 5.95 3.65714285714285 0.707106781186548 
11.4870435119266 7.42633939091128 5.13348224805413 0.707106781186548 
8.08128276752157 8.76825011708947 6.47539297423232 0.707106781186548 
9.18711159069082 5.62268447852815 3.32982733567101 0.707106781186548 
8.80714285714286 4.95 2.65714285714286 0.707106781186548 
11.2214285714286 2.29285714285714 3.65714285714286 1 
11.4870435119266 2.29285714285714 5.13348224805413 1 
8.08128276752157 2.29285714285714 6.47539297423233 1 
9.18711159069082 2.29285714285714 3.32982733567101 1 
8.80714285714286 2.29285714285714 2.65714285714286 1 
11.2214285714286 -1.36428571428571 3.65714285714285 0.707106781186548 
11.4870435119266 -2.84062510519699 5.13348224805413 0.707106781186548 
8.08128276752157 -4.18253583137518 6.47539297423232 0.707106781186548 
9.18711159069082 -1.03697019281387 3.32982733567101 0.707106781186548 
8.80714285714286 -0.364285714285715 2.65714285714286 0.707106781186548 
11.2214285714286 -1.36428571428571 0 1 
11.4870435119266 -2.84062510519699 0 1 
8.08128276752157 -4.18253583137518 0 1 
9.18711159069082 -1.03697019281387 0 1 
8.80714285714286 -0.364285714285715 0 1 
11.2214285714286 -1.36428571428571 -3.65714285714285 0.707106781186548 
11.4870435119266 -2.84062510519699 -5.13348224805413 0.707106781186548 
8.08128276752157 -4.18253583137518 -6.47539297423232 0.707106781186548 
9.18711159069082 -1.03697019281387 -3.32982733567101 0.707106781186548 
8.80714285714286 -0.364285714285714 -2.65714285714286 0.707106781186548 
11.2214285714286 2.29285714285714 -3.65714285714286 1 
11.4870435119266 2.29285714285714 -5.13348224805413 1 
8.08128276752157 2.29285714285714 -6.47539297423233 1 
9.18711159069082 2.29285714285714 -3.32982733567101 1 
8.80714285714286 2.29285714285714 -2.65714285714286 1 
11.2214285714286 5.95 -3.65714285714286 0.707106781186548 
11.4870435119266 7.42633939091128 -5.13348224805413 0.707106781186548 
8.08128276752157 8.76825011708947 -6.47539297423233 0.707106781186548 
9.18711159069082 5.62268447852815 -3.32982733567101 0.707106781186548 
8.80714285714286 4.95 -2.65714285714286 0.707106781186548 
11.2214285714286 5.95 0 1 
11.4870435119266 7.42633939091128 0 1 
8.08128276752157 8.76825011708947 0 1 
9.18711159069082 5.62268447852815 0 1 
8.80714285714286 4.95 0 1 
0 

#
pcurve $-1 0 0 nubs 1 periodic 2 
0 1 6.2831853071796 1 
0 0 
0 6.12293491784144 
0 
spline 0 exact nurbs 4 2 v open periodic none none 2 5 
-5.07208809257925 4 0 4 
0 2 1.53073372946036 2 3.06146745892072 2 4.59220118838108 2 6.12293491784144 2 
11.2214285714286 5.95 0 1 
11.4870435119266 7.42633939091128 0 1 
8.08128276752157 8.76825011708947 0 1 
9.18711159069082 5.62268447852815 0 1 
8.80714285714286 4.95 0 1 
11.2214285714286 5.95 3.65714285714285 0.707106781186548 
11.4870435119266 7.42633939091128 5.13348224805413 0.707106781186548 
8.08128276752157 8.76825011708947 6.47539297423232 0.707106781186548 
9.18711159069082 5.62268447852815 3.32982733567101 0.707106781186548 
8.80714285714286 4.95 2.65714285714286 0.707106781186548 
11.2214285714286 2.29285714285714 3.65714285714286 1 
11.4870435119266 2.29285714285714 5.13348224805413 1 
8.08128276752157 2.29285714285714 6.47539297423233 1 
9.18711159069082 2.29285714285714 3.32982733567101 1 
8.80714285714286 2.29285714285714 2.65714285714286 1 
11.2214285714286 -1.36428571428571 3.65714285714285 0.707106781186548 
11.4870435119266 -2.84062510519699 5.13348224805413 0.707106781186548 
8.08128276752157 -4.18253583137518 6.47539297423232 0.707106781186548 
9.18711159069082 -1.03697019281387 3.32982733567101 0.707106781186548 
8.80714285714286 -0.364285714285715 2.65714285714286 0.707106781186548 
11.2214285714286 -1.36428571428571 0 1 
11.4870435119266 -2.84062510519699 0 1 
8.08128276752157 -4.18253583137518 0 1 
9.18711159069082 -1.03697019281387 0 1 
8.80714285714286 -0.364285714285715 0 1 
11.2214285714286 -1.36428571428571 -3.65714285714285 0.707106781186548 
11.4870435119266 -2.84062510519699 -5.13348224805413 0.707106781186548 
8.08128276752157 -4.18253583137518 -6.47539297423232 0.707106781186548 
9.18711159069082 -1.03697019281387 -3.32982733567101 0.707106781186548 
8.80714285714286 -0.364285714285714 -2.65714285714286 0.707106781186548 
11.2214285714286 2.29285714285714 -3.65714285714286 1 
11.4870435119266 2.29285714285714 -5.13348224805413 1 
8.08128276752157 2.29285714285714 -6.47539297423233 1 
9.18711159069082 2.29285714285714 -3.32982733567101 1 
8.80714285714286 2.29285714285714 -2.65714285714286 1 
11.2214285714286 5.95 -3.65714285714286 0.707106781186548 
11.4870435119266 7.42633939091128 -5.13348224805413 0.707106781186548 
8.08128276752157 8.76825011708947 -6.47539297423233 0.707106781186548 
9.18711159069082 5.62268447852815 -3.32982733567101 0.707106781186548 
8.80714285714286 4.95 -2.65714285714286 0.707106781186548 
11.2214285714286 5.95 0 1 
11.4870435119266 7.42633939091128 0 1 
8.08128276752157 8.76825011708947 0 1 
9.18711159069082 5.62268447852815 0 1 
8.80714285714286 4.95 0 1 
0 

#
vertex $-1 $73 $101 #
ellipse-curve $-1 8.80714285714286 2.29285714285714 0 1 0 0 0 2.65714285714286 0 1 #
ellipse-curve $-1 7.02142857142857 2.29285714285714 0 1 0 0 0 2.65714285714286 0 1 #
point $-1 7.02142857142857 4.95 0 #
edge $-1 $102 $102 $80 $103 0 #
coedge $-1 $95 $95 $85 $96 0 $83 $-1 #
edge $-1 $99 $99 $95 $104 0 #
pcurve $-1 0 0 nubs 1 periodic 2 
-6.2831853071796 1 0 1 
-5.07208809257925 6.12293491784144 
-5.07208809257925 0 
0 
spline 0 exact nurbs 4 2 v open periodic none none 2 5 
-5.07208809257925 4 0 4 
0 2 1.53073372946036 2 3.06146745892072 2 4.59220118838108 2 6.12293491784144 2 
11.2214285714286 5.95 0 1 
11.4870435119266 7.42633939091128 0 1 
8.08128276752157 8.76825011708947 0 1 
9.18711159069082 5.62268447852815 0 1 
8.80714285714286 4.95 0 1 
11.2214285714286 5.95 3.65714285714285 0.707106781186548 
11.4870435119266 7.42633939091128 5.13348224805413 0.707106781186548 
8.08128276752157 8.76825011708947 6.47539297423232 0.707106781186548 
9.18711159069082 5.62268447852815 3.32982733567101 0.707106781186548 
8.80714285714286 4.95 2.65714285714286 0.707106781186548 
11.2214285714286 2.29285714285714 3.65714285714286 1 
11.4870435119266 2.29285714285714 5.13348224805413 1 
8.08128276752157 2.29285714285714 6.47539297423233 1 
9.18711159069082 2.29285714285714 3.32982733567101 1 
8.80714285714286 2.29285714285714 2.65714285714286 1 
11.2214285714286 -1.36428571428571 3.65714285714285 0.707106781186548 
11.4870435119266 -2.84062510519699 5.13348224805413 0.707106781186548 
8.08128276752157 -4.18253583137518 6.47539297423232 0.707106781186548 
9.18711159069082 -1.03697019281387 3.32982733567101 0.707106781186548 
8.80714285714286 -0.364285714285715 2.65714285714286 0.707106781186548 
11.2214285714286 -1.36428571428571 0 1 
11.4870435119266 -2.84062510519699 0 1 
8.08128276752157 -4.18253583137518 0 1 
9.18711159069082 -1.03697019281387 0 1 
8.80714285714286 -0.364285714285715 0 1 
11.2214285714286 -1.36428571428571 -3.65714285714285 0.707106781186548 
11.4870435119266 -2.84062510519699 -5.13348224805413 0.707106781186548 
8.08128276752157 -4.18253583137518 -6.47539297423232 0.707106781186548 
9.18711159069082 -1.03697019281387 -3.32982733567101 0.707106781186548 
8.80714285714286 -0.364285714285714 -2.65714285714286 0.707106781186548 
11.2214285714286 2.29285714285714 -3.65714285714286 1 
11.4870435119266 2.29285714285714 -5.13348224805413 1 
8.08128276752157 2.29285714285714 -6.47539297423233 1 
9.18711159069082 2.29285714285714 -3.32982733567101 1 
8.80714285714286 2.29285714285714 -2.65714285714286 1 
11.2214285714286 5.95 -3.65714285714286 0.707106781186548 
11.4870435119266 7.42633939091128 -5.13348224805413 0.707106781186548 
8.08128276752157 8.76825011708947 -6.47539297423233 0.707106781186548 
9.18711159069082 5.62268447852815 -3.32982733567101 0.707106781186548 
8.80714285714286 4.95 -2.65714285714286 0.707106781186548 
11.2214285714286 5.95 0 1 
11.4870435119266 7.42633939091128 0 1 
8.08128276752157 8.76825011708947 0 1 
9.18711159069082 5.62268447852815 0 1 
8.80714285714286 4.95 0 1 
0 

#
pcurve $-1 0 0 nubs 1 open 2 
-5.07208809257925 1 0 1 
-5.07208809257925 0 
0 0 
0 
spline 0 exact nurbs 4 2 v open periodic none none 2 5 
-5.07208809257925 4 0 4 
0 2 1.53073372946036 2 3.06146745892072 2 4.59220118838108 2 6.12293491784144 2 
11.2214285714286 5.95 0 1 
11.4870435119266 7.42633939091128 0 1 
8.08128276752157 8.76825011708947 0 1 
9.18711159069082 5.62268447852815 0 1 
8.80714285714286 4.95 0 1 
11.2214285714286 5.95 3.65714285714285 0.707106781186548 
11.4870435119266 7.42633939091128 5.13348224805413 0.707106781186548 
8.08128276752157 8.76825011708947 6.47539297423232 0.707106781186548 
9.18711159069082 5.62268447852815 3.32982733567101 0.707106781186548 
8.80714285714286 4.95 2.65714285714286 0.707106781186548 
11.2214285714286 2.29285714285714 3.65714285714286 1 
11.4870435119266 2.29285714285714 5.13348224805413 1 
8.08128276752157 2.29285714285714 6.47539297423233 1 
9.18711159069082 2.29285714285714 3.32982733567101 1 
8.80714285714286 2.29285714285714 2.65714285714286 1 
11.2214285714286 -1.36428571428571 3.65714285714285 0.707106781186548 
11.4870435119266 -2.84062510519699 5.13348224805413 0.707106781186548 
8.08128276752157 -4.18253583137518 6.47539297423232 0.707106781186548 
9.18711159069082 -1.03697019281387 3.32982733567101 0.707106781186548 
8.80714285714286 -0.364285714285715 2.65714285714286 0.707106781186548 
11.2214285714286 -1.36428571428571 0 1 
11.4870435119266 -2.84062510519699 0 1 
8.08128276752157 -4.18253583137518 0 1 
9.18711159069082 -1.03697019281387 0 1 
8.80714285714286 -0.364285714285715 0 1 
11.2214285714286 -1.36428571428571 -3.65714285714285 0.707106781186548 
11.4870435119266 -2.84062510519699 -5.13348224805413 0.707106781186548 
8.08128276752157 -4.18253583137518 -6.47539297423232 0.707106781186548 
9.18711159069082 -1.03697019281387 -3.32982733567101 0.707106781186548 
8.80714285714286 -0.364285714285714 -2.65714285714286 0.707106781186548 
11.2214285714286 2.29285714285714 -3.65714285714286 1 
11.4870435119266 2.29285714285714 -5.13348224805413 1 
8.08128276752157 2.29285714285714 -6.47539297423233 1 
9.18711159069082 2.29285714285714 -3.32982733567101 1 
8.80714285714286 2.29285714285714 -2.65714285714286 1 
11.2214285714286 5.95 -3.65714285714286 0.707106781186548 
11.4870435119266 7.42633939091128 -5.13348224805413 0.707106781186548 
8.08128276752157 8.76825011708947 -6.47539297423233 0.707106781186548 
9.18711159069082 5.62268447852815 -3.32982733567101 0.707106781186548 
8.80714285714286 4.95 -2.65714285714286 0.707106781186548 
11.2214285714286 5.95 0 1 
11.4870435119266 7.42633939091128 0 1 
8.08128276752157 8.76825011708947 0 1 
9.18711159069082 5.62268447852815 0 1 
8.80714285714286 4.95 0 1 
0 

#
vertex $-1 $87 $105 #
intcurve-curve $-1 1 exact nubs 4 open 2 
-5.07208809257925 4 0 4 
11.2214285714286 5.95 0 
11.4870435119266 7.42633939091128 0 
8.08128276752157 8.76825011708947 0 
9.18711159069082 5.62268447852815 0 
8.80714285714286 4.95 0 
0 
null_surface 
null_surface 
nullbs 
nullbs 
#
point $-1 8.80714285714286 4.95 0 #
vertex $-1 $94 $106 #
ellipse-curve $-1 11.9928571428571 2.29285714285714 0 1 0 0 0 1.71428571428571 0 1 #
ellipse-curve $-1 11.2214285714286 2.29285714285714 0 1 0 0 0 3.65714285714286 0 1 #
point $-1 11.2214285714286 5.95 0 #
point $-1 11.9928571428571 4.00714285714286 0 #
103 92 0 0                                  
body $1 $2 $-1 $-1 #
brep_non_volatile_id-cdc-attrib $-1 $-1 $-1 $0 2 #
lump $-1 $-1 $3 $0 #
shell $-1 $-1 $-1 $4 $2 #
face $5 $6 $7 $3 $-1 $8 0 #
primitive_order-cdc-attrib $-1 $-1 $-1 $4 0 1 #
face $9 $10 $11 $3 $-1 $12 0 #
loop $-1 $-1 $13 $4 #
plane-surface $-1 12.45 5.37857142857143 -5 0 -1 0 0 0 -1 0 #
primitive_order-cdc-attrib $-1 $-1 $-1 $6 0 1 #
face $14 $15 $16 $3 $-1 $17 0 #
loop $-1 $-1 $18 $6 #
plane-surface $-1 3.45 5.37857142857143 -5 -1 0 0 0 0 1 0 #
coedge $-1 $19 $20 $21 $22 0 $7 $-1 #
primitive_order-cdc-attrib $-1 $-1 $-1 $10 0 1 #
face $23 $24 $25 $3 $-1 $26 0 #
loop $-1 $-1 $27 $10 #
plane-surface $-1 3.45 7.17857142857143 -5 0 1 0 0 0 1 0 #
coedge $-1 $28 $29 $30 $31 0 $11 $-1 #
coedge $-1 $32 $13 $29 $33 1 $7 $-1 #
coedge $-1 $13 $32 $34 $35 0 $7 $-1 #
coedge $-1 $36 $30 $13 $22 1 $37 $-1 #
edge $-1 $38 $39 $13 $40 0 #
primitive_order-cdc-attrib $-1 $-1 $-1 $15 0 1 #
face $41 $42 $43 $3 $-1 $44 0 #
loop $-1 $-1 $45 $15 #
plane-surface $-1 12.45 7.17857142857143 -5 1 0 0 0 0 -1 0 #
coedge $-1 $46 $47 $48 $49 0 $16 $-1 #
coedge $-1 $50 $18 $47 $51 1 $11 $-1 #
coedge $-1 $18 $50 $19 $33 0 $11 $-1 #
coedge $-1 $21 $48 $18 $31 1 $37 $-1 #
edge $-1 $39 $52 $18 $53 0 #
coedge $-1 $20 $19 $54 $55 0 $7 $-1 #
edge $-1 $56 $39 $29 $57 0 #
coedge $-1 $58 $45 $20 $35 1 $25 $-1 #
edge $-1 $59 $38 $20 $60 0 #
coedge $-1 $48 $21 $45 $61 1 $37 $-1 #
loop $-1 $-1 $21 $42 #
vertex $-1 $35 $62 #
vertex $-1 $33 $63 #
straight-curve $-1 3.45 5.37857142857143 5 -1 0 0 #
primitive_order-cdc-attrib $-1 $-1 $-1 $24 0 1 #
face $64 $-1 $37 $3 $-1 $65 0 #
loop $-1 $-1 $54 $24 #
plane-surface $-1 7.95 6.27857142857143 -5 0 0 -1 -1 0 0 0 #
coedge $-1 $34 $66 $36 $61 0 $25 $-1 #
coedge $-1 $67 $27 $66 $68 1 $16 $-1 #
coedge $-1 $27 $67 $28 $51 0 $16 $-1 #
coedge $-1 $30 $36 $27 $49 1 $37 $-1 #
edge $-1 $52 $69 $27 $70 0 #
coedge $-1 $29 $28 $71 $72 0 $11 $-1 #
edge $-1 $73 $52 $47 $74 0 #
vertex $-1 $51 $75 #
straight-curve $-1 3.45 7.17857142857143 5 0 1 0 #
coedge $-1 $71 $76 $32 $55 1 $43 $-1 #
edge $-1 $56 $59 $32 $77 0 #
vertex $-1 $55 $78 #
straight-curve $-1 3.45 5.37857142857143 -5 0 0 1 #
coedge $-1 $66 $34 $76 $79 0 $25 $-1 #
vertex $-1 $55 $80 #
straight-curve $-1 12.45 5.37857142857143 -5 0 0 1 #
edge $-1 $69 $38 $45 $81 0 #
point $-1 12.45 5.37857142857143 5 #
point $-1 3.45 5.37857142857143 5 #
primitive_order-cdc-attrib $-1 $-1 $-1 $42 0 1 #
plane-surface $-1 3.45 5.37857142857143 5 0 0 1 1 0 0 0 #
coedge $-1 $45 $58 $46 $68 0 $25 $-1 #
coedge $-1 $47 $46 $82 $83 0 $16 $-1 #
edge $-1 $84 $69 $66 $85 0 #
vertex $-1 $68 $86 #
straight-curve $-1 12.45 7.17857142857143 5 1 0 0 #
coedge $-1 $82 $54 $50 $72 1 $43 $-1 #
edge $-1 $73 $56 $50 $87 0 #
vertex $-1 $83 $88 #
straight-curve $-1 3.45 7.17857142857143 -5 0 0 1 #
point $-1 3.45 7.17857142857143 5 #
coedge $-1 $54 $82 $58 $79 1 $43 $-1 #
straight-curve $-1 3.45 5.37857142857143 -5 1 0 0 #
point $-1 3.45 5.37857142857143 -5 #
edge $-1 $59 $84 $58 $89 0 #
point $-1 12.45 5.37857142857143 -5 #
straight-curve $-1 12.45 5.37857142857143 5 0 -1 0 #
coedge $-1 $76 $71 $67 $83 1 $43 $-1 #
edge $-1 $84 $73 $67 $90 0 #
vertex $-1 $79 $91 #
straight-curve $-1 12.45 7.17857142857143 -5 0 0 1 #
point $-1 12.45 7.17857142857143 5 #
straight-curve $-1 3.45 7.17857142857143 -5 0 -1 0 #
point $-1 3.45 7.17857142857143 -5 #
straight-curve $-1 12.45 5.37857142857143 -5 0 1 0 #
straight-curve $-1 12.45 7.17857142857143 -5 -1 0 0 #
point $-1 12.45 7.17857142857143 -5 #
