105 584 2 0                             
body $2 $3 $-1 $-1 #
refinement $4 0 0 0.5 0 0 0 0 4 0 #
display_attribute-st-attrib $-1 $5 $-1 $0 1 #
lump $-1 $-1 $6 $0 #
display_attribute-st-attrib $-1 $7 $-1 $1 1 #
id_attribute-st-attrib $-1 $-1 $2 $0 3 #
shell $-1 $-1 $-1 $8 $3 #
colour-tsl-attrib $-1 $9 $4 $1 2 #
face $10 $11 $12 $6 $-1 $13 reversed single #
id_attribute-st-attrib $-1 $-1 $7 $1 1 #
colour-tsl-attrib $-1 $-1 $-1 $8 7 #
face $14 $15 $16 $6 $-1 $17 reversed single #
loop $-1 $-1 $18 $8 #
sphere-surface $-1 0 65 0 20 1 0 0 0 0 1 0 #
colour-tsl-attrib $-1 $-1 $-1 $11 7 #
face $19 $20 $21 $6 $-1 $22 reversed single #
loop $-1 $-1 $23 $11 #
sphere-surface $-1 25 -65 -30 20 1 0 0 0 0 1 0 #
coedge $-1 $18 $18 $24 $25 1 $12 $-1 #
colour-tsl-attrib $-1 $-1 $-1 $15 7 #
face $26 $27 $28 $6 $-1 $29 reversed single #
loop $-1 $-1 $30 $15 #
sphere-surface $-1 25 -65 0 20 1 0 0 0 0 1 0 #
coedge $-1 $23 $23 $31 $32 1 $16 $-1 #
coedge $-1 $24 $24 $18 $25 0 $33 $-1 #
edge $-1 $34 $34 $24 $35 0 #
colour-tsl-attrib $-1 $-1 $-1 $20 7 #
face $36 $37 $38 $6 $-1 $39 reversed single #
loop $-1 $-1 $40 $20 #
sphere-surface $-1 25 -65 30 20 1 0 0 0 0 1 0 #
coedge $-1 $30 $30 $41 $42 1 $21 $-1 #
coedge $-1 $31 $31 $23 $32 0 $43 $-1 #
edge $-1 $44 $44 $31 $45 0 #
loop $-1 $46 $24 $47 #
vertex $-1 $25 $48 #
ellipse-curve $-1 0 50 0 0 -1 0 0 0 -13.228756555323 1 #
colour-tsl-attrib $-1 $-1 $-1 $27 7 #
face $49 $50 $51 $6 $-1 $52 reversed single #
loop $-1 $-1 $53 $27 #
sphere-surface $-1 -25 -65 -30 20 1 0 0 0 0 1 0 #
coedge $-1 $40 $40 $54 $55 1 $28 $-1 #
coedge $-1 $41 $41 $30 $42 0 $56 $-1 #
edge $-1 $57 $57 $41 $58 0 #
loop $-1 $56 $31 $59 #
vertex $-1 $32 $60 #
ellipse-curve $-1 25 -50 -30 0 1 0 0 0 13.228756555323 1 #
loop $-1 $-1 $61 $47 #
face $62 $63 $33 $6 $-1 $64 reversed single #
point $-1 9.23759668021535e-014 50 13.228756555323 #
colour-tsl-attrib $-1 $-1 $-1 $37 7 #
face $65 $66 $67 $6 $-1 $68 reversed single #
loop $-1 $-1 $69 $37 #
sphere-surface $-1 -25 -65 0 20 1 0 0 0 0 1 0 #
coedge $-1 $53 $53 $70 $71 1 $38 $-1 #
coedge $-1 $54 $54 $40 $55 0 $72 $-1 #
edge $-1 $73 $73 $54 $74 0 #
loop $-1 $72 $41 $59 #
vertex $-1 $42 $75 #
ellipse-curve $-1 25 -50 0 0 1 0 0 0 13.228756555323 1 #
face $76 $77 $43 $6 $-1 $78 reversed single #
point $-1 25.0000000000001 -50 -43.228756555323 #
coedge $-1 $79 $80 $81 $82 1 $46 $-1 #
colour-tsl-attrib $-1 $-1 $-1 $47 1 #
face $83 $84 $85 $6 $-1 $86 forward single #
plane-surface $-1 0 50 0 0 -1 0 0 0 -1 0 #
colour-tsl-attrib $-1 $-1 $-1 $50 7 #
face $87 $88 $89 $6 $-1 $90 reversed single #
loop $-1 $-1 $91 $50 #
sphere-surface $-1 -25 -65 30 20 1 0 0 0 0 1 0 #
coedge $-1 $69 $69 $92 $93 1 $51 $-1 #
coedge $-1 $70 $70 $53 $71 0 $94 $-1 #
edge $-1 $95 $95 $70 $96 0 #
loop $-1 $94 $54 $59 #
vertex $-1 $55 $97 #
ellipse-curve $-1 25 -50 30 0 1 0 0 0 13.228756555323 1 #
point $-1 25.0000000000001 -50 -13.228756555323 #
colour-tsl-attrib $-1 $-1 $-1 $59 1 #
face $98 $99 $100 $6 $-1 $101 forward single #
plane-surface $-1 0 -50 0 0 1 0 0 0 1 0 #
coedge $-1 $102 $61 $103 $104 1 $46 $-1 #
coedge $-1 $61 $102 $105 $106 1 $46 $-1 #
coedge $-1 $107 $108 $61 $82 0 $109 $-1 #
edge $-1 $110 $111 $61 $112 0 #
colour-tsl-attrib $-1 $-1 $-1 $63 1 #
face $113 $114 $115 $6 $-1 $116 reversed single #
loop $-1 $-1 $117 $63 #
cone-surface $-1 -2.5 45 45 -1 0 0 0 3.53553390593274 3.53553390593274 1 0 1 0 #
colour-tsl-attrib $-1 $-1 $-1 $66 7 #
face $118 $119 $120 $6 $-1 $121 reversed single #
loop $-1 $-1 $122 $66 #
sphere-surface $-1 -65 -20 -20 20 1 0 0 0 0 1 0 #
coedge $-1 $91 $91 $123 $124 1 $67 $-1 #
coedge $-1 $92 $92 $69 $93 0 $125 $-1 #
edge $-1 $126 $126 $92 $127 0 #
loop $-1 $125 $70 $59 #
vertex $-1 $71 $128 #
ellipse-curve $-1 -25 -50 -30 0 1 0 0 0 13.228756555323 1 #
point $-1 25.0000000000001 -50 16.771243444677 #
colour-tsl-attrib $-1 $-1 $-1 $77 1 #
face $129 $130 $131 $6 $-1 $132 forward single #
loop $-1 $-1 $133 $77 #
cone-surface $-1 45 -45 -2.5 0 0 -1 3.53553390593274 -3.53553390593274 0 1 0 1 0 #
coedge $-1 $80 $79 $134 $135 1 $46 $-1 #
coedge $-1 $117 $136 $79 $104 0 $85 $-1 #
edge $-1 $137 $110 $79 $138 0 #
coedge $-1 $139 $140 $80 $106 0 $141 $-1 #
edge $-1 $111 $142 $80 $143 0 #
coedge $-1 $144 $81 $145 $146 1 $109 $-1 #
coedge $-1 $81 $144 $147 $148 0 $109 $-1 #
loop $-1 $-1 $81 $149 #
vertex $-1 $104 $150 #
vertex $-1 $82 $151 #
straight-curve $-1 -45 50 0 0 0 -1 #
colour-tsl-attrib $-1 $-1 $-1 $84 1 #
face $152 $153 $154 $6 $-1 $155 forward single #
loop $-1 $156 $157 $84 #
plane-surface $-1 -50 0 0 1 0 0 0 0 -1 0 #
coedge $-1 $158 $103 $159 $160 1 $85 $-1 #
colour-tsl-attrib $-1 $-1 $-1 $88 7 #
face $161 $162 $163 $6 $-1 $164 reversed single #
loop $-1 $-1 $165 $88 #
sphere-surface $-1 -65 -20 20 20 1 0 0 0 0 1 0 #
coedge $-1 $122 $122 $157 $166 1 $89 $-1 #
coedge $-1 $123 $123 $91 $124 0 $167 $-1 #
edge $-1 $168 $168 $123 $169 0 #
loop $-1 $167 $92 $59 #
vertex $-1 $93 $170 #
ellipse-curve $-1 -25 -50 0 0 1 0 0 0 13.228756555323 1 #
point $-1 -24.9999999999999 -50 -43.228756555323 #
colour-tsl-attrib $-1 $-1 $-1 $99 1 #
face $171 $172 $173 $6 $-1 $174 forward single #
loop $-1 $-1 $175 $99 #
sphere-surface $-1 45 -45 45 5 1 0 0 0 0 1 0 #
coedge $-1 $176 $177 $178 $179 1 $100 $-1 #
coedge $-1 $180 $181 $102 $135 0 $182 $-1 #
edge $-1 $142 $137 $102 $183 0 #
coedge $-1 $103 $158 $184 $185 1 $85 $-1 #
vertex $-1 $104 $186 #
straight-curve $-1 0 50 45 -1 0 0 #
coedge $-1 $187 $105 $188 $189 0 $141 $-1 #
coedge $-1 $105 $187 $190 $191 1 $141 $-1 #
loop $-1 $-1 $140 $192 #
vertex $-1 $193 $194 #
straight-curve $-1 0 50 -45 1 0 0 #
coedge $-1 $108 $107 $195 $196 0 $109 $-1 #
coedge $-1 $190 $197 $107 $146 0 $198 $-1 #
edge $-1 $199 $111 $145 $200 0 #
coedge $-1 $201 $159 $108 $148 1 $202 $-1 #
edge $-1 $203 $110 $108 $204 0 #
face $205 $206 $109 $6 $-1 $207 forward single #
point $-1 -45 50 45 #
point $-1 -45 50 -45 #
colour-tsl-attrib $-1 $-1 $-1 $114 1 #
face $208 $209 $210 $6 $-1 $211 forward single #
loop $-1 $-1 $212 $114 #
cone-surface $-1 -2.5 -45 -45 -1 0 0 0 -3.53553390593274 -3.53553390593274 1 0 1 0 #
loop $-1 $213 $214 $84 #
coedge $-1 $157 $157 $122 $166 0 $115 $-1 #
coedge $-1 $136 $117 $215 $216 0 $85 $-1 #
coedge $-1 $147 $201 $117 $160 0 $202 $-1 #
edge $-1 $217 $110 $117 $218 0 #
colour-tsl-attrib $-1 $-1 $-1 $119 7 #
face $219 $220 $221 $6 $-1 $222 reversed single #
loop $-1 $-1 $223 $119 #
sphere-surface $-1 -65 20 20 20 1 0 0 0 0 1 0 #
coedge $-1 $165 $165 $214 $224 1 $120 $-1 #
edge $-1 $225 $225 $157 $226 0 #
loop $-1 $227 $123 $59 #
vertex $-1 $124 $228 #
ellipse-curve $-1 -25 -50 30 0 1 0 0 0 13.228756555323 1 #
point $-1 -24.9999999999999 -50 -13.228756555323 #
colour-tsl-attrib $-1 $-1 $-1 $130 1 #
face $229 $230 $231 $6 $-1 $232 forward single #
loop $-1 $-1 $233 $130 #
cone-surface $-1 -2.5 -45 45 1 0 0 0 -3.53553390593274 3.53553390593274 1 0 1 0 #
coedge $-1 $234 $235 $236 $237 0 $131 $-1 #
coedge $-1 $238 $133 $239 $240 0 $100 $-1 #
coedge $-1 $133 $238 $241 $242 0 $100 $-1 #
coedge $-1 $243 $244 $133 $179 0 $210 $-1 #
edge $-1 $245 $246 $133 $247 0 #
coedge $-1 $248 $134 $249 $250 0 $182 $-1 #
coedge $-1 $134 $248 $251 $193 1 $182 $-1 #
loop $-1 $-1 $181 $252 #
straight-curve $-1 45 50 0 0 0 1 #
coedge $-1 $253 $249 $136 $185 0 $254 $-1 #
edge $-1 $137 $255 $184 $256 0 #
point $-1 45 50 45 #
coedge $-1 $140 $139 $257 $258 0 $141 $-1 #
coedge $-1 $251 $259 $139 $189 1 $260 $-1 #
edge $-1 $142 $261 $139 $262 0 #
coedge $-1 $197 $145 $140 $191 0 $198 $-1 #
edge $-1 $111 $263 $140 $264 0 #
face $265 $47 $141 $6 $-1 $266 forward single #
edge $-1 $142 $267 $181 $268 0 #
point $-1 45 50 -45 #
coedge $-1 $269 $270 $144 $196 1 $271 $-1 #
edge $-1 $199 $203 $195 $272 0 #
coedge $-1 $145 $190 $273 $274 1 $198 $-1 #
loop $-1 $-1 $190 $206 #
vertex $-1 $196 $275 #
ellipse-curve $-1 -45 45 -45 0 0 -1 -3.53553390593274 3.53553390593274 0 1 #
coedge $-1 $159 $147 $276 $277 1 $202 $-1 #
loop $-1 $-1 $159 $278 #
vertex $-1 $196 $279 #
ellipse-curve $-1 -45 45 45 0 0 -1 -3.53553390593274 3.53553390593274 0 1 #
colour-tsl-attrib $-1 $-1 $-1 $149 1 #
face $280 $281 $198 $6 $-1 $282 forward single #
cone-surface $-1 -45 45 0 0 0 -1 -3.53553390593274 3.53553390593274 0 1 0 1 0 #
colour-tsl-attrib $-1 $-1 $-1 $153 1 #
face $283 $284 $285 $6 $-1 $286 forward single #
loop $-1 $-1 $243 $153 #
sphere-surface $-1 45 -45 -45 5 1 0 0 0 0 1 0 #
coedge $-1 $287 $288 $289 $290 1 $154 $-1 #
loop $-1 $291 $292 $84 #
coedge $-1 $214 $214 $165 $224 0 $156 $-1 #
coedge $-1 $293 $294 $158 $216 1 $295 $-1 #
edge $-1 $217 $255 $215 $296 0 #
vertex $-1 $160 $297 #
ellipse-curve $-1 -45 45 45 -1 0 0 0 3.53553390593274 3.53553390593274 1 #
colour-tsl-attrib $-1 $-1 $-1 $162 7 #
face $298 $299 $300 $6 $-1 $301 reversed single #
loop $-1 $-1 $302 $162 #
sphere-surface $-1 -65 20 -20 20 1 0 0 0 0 1 0 #
coedge $-1 $223 $223 $292 $303 1 $163 $-1 #
edge $-1 $304 $304 $214 $305 0 #
vertex $-1 $166 $306 #
ellipse-curve $-1 -50 -20 -20 1 0 0 0 0 -13.228756555323 1 #
loop $-1 $-1 $307 $59 #
point $-1 -24.9999999999999 -50 16.771243444677 #
colour-tsl-attrib $-1 $-1 $-1 $172 1 #
face $308 $309 $310 $6 $-1 $311 reversed single #
loop $-1 $-1 $236 $172 #
cone-surface $-1 45 0 45 0 1 0 3.53553390593274 0 3.53553390593274 1 0 1 0 #
coedge $-1 $312 $313 $314 $315 1 $173 $-1 #
coedge $-1 $235 $175 $316 $317 1 $131 $-1 #
coedge $-1 $175 $234 $238 $318 0 $131 $-1 #
coedge $-1 $319 $320 $175 $237 1 $231 $-1 #
edge $-1 $321 $322 $236 $323 0 #
coedge $-1 $177 $176 $235 $318 1 $100 $-1 #
coedge $-1 $324 $325 $176 $240 1 $326 $-1 #
edge $-1 $245 $321 $239 $327 0 #
coedge $-1 $328 $329 $177 $242 1 $227 $-1 #
edge $-1 $330 $246 $241 $331 0 #
coedge $-1 $244 $178 $332 $333 0 $210 $-1 #
coedge $-1 $178 $243 $334 $335 1 $210 $-1 #
vertex $-1 $179 $336 #
vertex $-1 $242 $337 #
ellipse-curve $-1 45 -45 -45 0 0 -1 3.53553390593274 -3.53553390593274 0 1 #
coedge $-1 $181 $180 $338 $339 0 $182 $-1 #
coedge $-1 $184 $253 $180 $250 1 $254 $-1 #
edge $-1 $137 $340 $180 $341 0 #
coedge $-1 $259 $188 $181 $193 0 $260 $-1 #
face $342 $343 $182 $6 $-1 $344 forward single #
coedge $-1 $249 $184 $345 $346 0 $254 $-1 #
loop $-1 $-1 $253 $309 #
vertex $-1 $216 $347 #
ellipse-curve $-1 45 45 45 1 0 0 0 3.53553390593274 3.53553390593274 1 #
coedge $-1 $348 $349 $187 $258 1 $350 $-1 #
edge $-1 $261 $263 $257 $351 0 #
coedge $-1 $188 $251 $352 $353 0 $260 $-1 #
loop $-1 $-1 $259 $284 #
vertex $-1 $354 $355 #
ellipse-curve $-1 45 45 -45 -1 0 0 0 3.53553390593274 -3.53553390593274 1 #
vertex $-1 $258 $356 #
ellipse-curve $-1 -45 45 -45 -1 0 0 0 3.53553390593274 -3.53553390593274 1 #
colour-tsl-attrib $-1 $-1 $-1 $192 1 #
cone-surface $-1 -2.5 45 -45 1 0 0 0 3.53553390593274 -3.53553390593274 1 0 1 0 #
vertex $-1 $339 $357 #
ellipse-curve $-1 45 45 -45 0 0 -1 3.53553390593274 3.53553390593274 0 1 #
coedge $-1 $358 $195 $359 $360 1 $271 $-1 #
coedge $-1 $195 $358 $361 $362 1 $271 $-1 #
loop $-1 $-1 $195 $84 #
straight-curve $-1 -50 45 0 0 0 1 #
coedge $-1 $363 $359 $197 $274 0 $364 $-1 #
edge $-1 $199 $263 $273 $365 0 #
point $-1 -50 45 -45 #
coedge $-1 $361 $366 $201 $277 0 $367 $-1 #
edge $-1 $217 $203 $276 $368 0 #
face $369 $149 $202 $6 $-1 $370 forward single #
point $-1 -50 45 45 #
colour-tsl-attrib $-1 $-1 $-1 $206 1 #
face $371 $372 $364 $6 $-1 $373 forward single #
sphere-surface $-1 -45 45 -45 5 1 0 0 0 0 1 0 #
colour-tsl-attrib $-1 $-1 $-1 $209 1 #
face $374 $59 $260 $6 $-1 $375 forward single #
loop $-1 $-1 $376 $209 #
cone-surface $-1 45 0 -45 0 -1 0 3.53553390593274 0 -3.53553390593274 1 0 1 0 #
coedge $-1 $332 $212 $377 $378 0 $154 $-1 #
coedge $-1 $212 $332 $329 $379 0 $154 $-1 #
coedge $-1 $380 $381 $212 $290 0 $382 $-1 #
edge $-1 $383 $384 $212 $385 0 #
loop $-1 $271 $386 $84 #
coedge $-1 $292 $292 $223 $303 0 $213 $-1 #
coedge $-1 $387 $215 $366 $388 1 $295 $-1 #
coedge $-1 $215 $387 $320 $389 1 $295 $-1 #
loop $-1 $-1 $293 $343 #
straight-curve $-1 0 45 50 1 0 0 #
point $-1 -45 45 50 #
colour-tsl-attrib $-1 $-1 $-1 $220 7 #
face $390 $391 $392 $6 $-1 $393 reversed single #
loop $-1 $-1 $394 $220 #
sphere-surface $-1 65 0 0 20 1 0 0 0 0 1 0 #
coedge $-1 $302 $302 $386 $395 1 $221 $-1 #
edge $-1 $396 $396 $292 $397 0 #
vertex $-1 $224 $398 #
ellipse-curve $-1 -50 -20 20 1 0 0 0 0 -13.228756555323 1 #
point $-1 -50 -19.9999999999999 -6.77124344467705 #
coedge $-1 $329 $328 $399 $400 1 $227 $-1 #
colour-tsl-attrib $-1 $-1 $-1 $230 1 #
face $401 $252 $254 $6 $-1 $402 forward single #
loop $-1 $403 $404 $230 #
plane-surface $-1 50 0 0 -1 0 0 0 0 1 0 #
coedge $-1 $316 $233 $328 $405 0 $173 $-1 #
coedge $-1 $233 $316 $387 $406 0 $173 $-1 #
coedge $-1 $407 $408 $233 $315 0 $409 $-1 #
edge $-1 $410 $411 $233 $412 0 #
coedge $-1 $313 $312 $234 $317 0 $173 $-1 #
edge $-1 $330 $322 $316 $413 0 #
edge $-1 $330 $321 $235 $414 0 #
coedge $-1 $345 $236 $325 $415 0 $231 $-1 #
coedge $-1 $236 $345 $294 $389 0 $231 $-1 #
vertex $-1 $240 $416 #
vertex $-1 $389 $417 #
ellipse-curve $-1 45 -45 45 0 -1 0 3.53553390593274 0 3.53553390593274 1 #
coedge $-1 $338 $239 $418 $419 1 $326 $-1 #
coedge $-1 $239 $338 $319 $415 1 $326 $-1 #
loop $-1 $-1 $324 $230 #
straight-curve $-1 50 -45 0 0 0 1 #
coedge $-1 $307 $241 $312 $405 1 $227 $-1 #
coedge $-1 $241 $307 $288 $379 1 $227 $-1 #
vertex $-1 $242 $420 #
straight-curve $-1 45 -50 0 0 0 -1 #
coedge $-1 $288 $287 $243 $333 1 $154 $-1 #
edge $-1 $246 $421 $243 $422 0 #
coedge $-1 $376 $418 $244 $335 0 $285 $-1 #
edge $-1 $245 $421 $334 $423 0 #
point $-1 50 -45 -45 #
point $-1 45 -50 -45 #
coedge $-1 $325 $324 $248 $339 1 $326 $-1 #
edge $-1 $340 $267 $338 $424 0 #
vertex $-1 $415 $425 #
ellipse-curve $-1 45 45 45 0 0 -1 3.53553390593274 3.53553390593274 0 1 #
colour-tsl-attrib $-1 $-1 $-1 $252 1 #
face $426 $-1 $427 $6 $-1 $428 forward single #
cone-surface $-1 45 45 -2.5 0 0 -1 3.53553390593274 3.53553390593274 0 1 0 1 0 #
coedge $-1 $320 $319 $253 $346 1 $231 $-1 #
edge $-1 $255 $340 $345 $429 0 #
point $-1 45 45 50 #
coedge $-1 $377 $257 $376 $354 1 $350 $-1 #
coedge $-1 $257 $377 $363 $430 1 $350 $-1 #
loop $-1 $-1 $349 $431 #
straight-curve $-1 0 45 -50 -1 0 0 #
coedge $-1 $418 $376 $259 $353 1 $285 $-1 #
edge $-1 $267 $261 $259 $432 0 #
edge $-1 $421 $261 $348 $433 0 #
point $-1 45 45 -50 #
point $-1 -45 45 -50 #
point $-1 50 45 -45 #
coedge $-1 $270 $269 $434 $435 1 $271 $-1 #
coedge $-1 $273 $436 $269 $360 0 $364 $-1 #
edge $-1 $437 $199 $269 $438 0 #
coedge $-1 $439 $276 $270 $362 0 $367 $-1 #
edge $-1 $203 $440 $270 $441 0 #
coedge $-1 $436 $273 $349 $430 0 $364 $-1 #
loop $-1 $-1 $363 $281 #
ellipse-curve $-1 -45 45 -45 0 -1 0 -3.53553390593274 0 -3.53553390593274 1 #
coedge $-1 $276 $439 $293 $388 0 $367 $-1 #
loop $-1 $-1 $366 $442 #
ellipse-curve $-1 -45 45 45 0 -1 0 -3.53553390593274 0 3.53553390593274 1 #
colour-tsl-attrib $-1 $-1 $-1 $278 1 #
sphere-surface $-1 -45 45 45 5 1 0 0 0 0 1 0 #
colour-tsl-attrib $-1 $-1 $-1 $281 1 #
face $443 $444 $382 $6 $-1 $445 forward single #
cone-surface $-1 -45 0 -45 0 1 0 -3.53553390593274 0 -3.53553390593274 1 0 1 0 #
colour-tsl-attrib $-1 $-1 $-1 $284 1 #
sphere-surface $-1 45 45 -45 5 1 0 0 0 0 1 0 #
coedge $-1 $352 $334 $348 $354 0 $285 $-1 #
coedge $-1 $349 $348 $287 $378 1 $350 $-1 #
edge $-1 $383 $421 $377 $446 0 #
edge $-1 $246 $384 $329 $447 0 #
coedge $-1 $381 $289 $448 $449 1 $382 $-1 #
coedge $-1 $289 $380 $436 $450 0 $382 $-1 #
loop $-1 $-1 $289 $372 #
vertex $-1 $430 $451 #
vertex $-1 $379 $452 #
ellipse-curve $-1 -45 -45 -45 -1 0 0 0 -3.53553390593274 -3.53553390593274 1 #
coedge $-1 $386 $386 $302 $395 0 $291 $-1 #
coedge $-1 $294 $293 $313 $406 1 $295 $-1 #
edge $-1 $411 $217 $293 $453 0 #
edge $-1 $255 $322 $294 $454 0 #
colour-tsl-attrib $-1 $-1 $-1 $299 7 #
face $455 $456 $457 $6 $-1 $458 reversed single #
loop $-1 $-1 $459 $299 #
sphere-surface $-1 65 25 -25 20 1 0 0 0 0 1 0 #
coedge $-1 $394 $394 $404 $460 1 $300 $-1 #
edge $-1 $461 $461 $386 $462 0 #
vertex $-1 $303 $463 #
ellipse-curve $-1 -50 20 20 1 0 0 0 0 -13.228756555323 1 #
point $-1 -50 -19.9999999999999 33.228756555323 #
coedge $-1 $464 $448 $307 $400 0 $465 $-1 #
edge $-1 $384 $410 $307 $466 0 #
colour-tsl-attrib $-1 $-1 $-1 $309 1 #
sphere-surface $-1 45 45 45 5 1 0 0 0 0 1 0 #
loop $-1 $467 $468 $230 #
coedge $-1 $404 $404 $394 $460 0 $310 $-1 #
edge $-1 $410 $330 $328 $469 0 #
edge $-1 $322 $411 $387 $470 0 #
coedge $-1 $408 $314 $439 $471 1 $409 $-1 #
coedge $-1 $314 $407 $464 $472 0 $409 $-1 #
loop $-1 $-1 $314 $473 #
vertex $-1 $315 $474 #
vertex $-1 $406 $475 #
ellipse-curve $-1 -45 -45 45 -1 0 0 0 -3.53553390593274 3.53553390593274 1 #
ellipse-curve $-1 45 -45 45 -1 0 0 0 -3.53553390593274 3.53553390593274 1 #
ellipse-curve $-1 45 -45 45 0 0 1 3.53553390593274 -3.53553390593274 0 1 #
edge $-1 $321 $340 $325 $476 0 #
point $-1 50 -45 45 #
point $-1 45 -45 50 #
coedge $-1 $334 $352 $324 $419 0 $285 $-1 #
edge $-1 $267 $245 $324 $477 0 #
point $-1 45 -50 45 #
vertex $-1 $378 $478 #
ellipse-curve $-1 45 -45 -45 1 0 0 0 -3.53553390593274 -3.53553390593274 1 #
ellipse-curve $-1 45 -45 -45 0 1 0 3.53553390593274 0 -3.53553390593274 1 #
straight-curve $-1 50 45 0 0 0 -1 #
point $-1 50 45 45 #
colour-tsl-attrib $-1 $-1 $-1 $343 1 #
loop $-1 $479 $480 $343 #
plane-surface $-1 0 0 50 0 0 1 1 0 0 0 #
ellipse-curve $-1 45 45 45 0 1 0 3.53553390593274 0 3.53553390593274 1 #
edge $-1 $263 $383 $349 $481 0 #
face $482 $192 $483 $6 $-1 $484 reversed single #
ellipse-curve $-1 45 45 -45 0 1 0 3.53553390593274 0 -3.53553390593274 1 #
straight-curve $-1 45 0 -50 0 1 0 #
coedge $-1 $448 $464 $358 $435 0 $465 $-1 #
edge $-1 $440 $437 $358 $485 0 #
coedge $-1 $359 $363 $381 $450 1 $364 $-1 #
vertex $-1 $360 $486 #
straight-curve $-1 -50 0 -45 0 1 0 #
coedge $-1 $366 $361 $407 $471 0 $367 $-1 #
vertex $-1 $435 $487 #
straight-curve $-1 -50 0 45 0 -1 0 #
face $488 $431 $367 $6 $-1 $489 forward single #
colour-tsl-attrib $-1 $-1 $-1 $372 1 #
face $490 $473 $465 $6 $-1 $491 forward single #
sphere-surface $-1 -45 -45 -45 5 1 0 0 0 0 1 0 #
straight-curve $-1 0 -45 -50 1 0 0 #
straight-curve $-1 0 -50 -45 -1 0 0 #
coedge $-1 $399 $434 $380 $449 0 $465 $-1 #
edge $-1 $437 $384 $448 $492 0 #
edge $-1 $437 $383 $381 $493 0 #
point $-1 -45 -45 -50 #
point $-1 -45 -50 -45 #
straight-curve $-1 -45 0 50 0 1 0 #
straight-curve $-1 45 0 50 0 -1 0 #
colour-tsl-attrib $-1 $-1 $-1 $391 7 #
face $494 $495 $496 $6 $-1 $497 reversed single #
loop $-1 $-1 $498 $391 #
sphere-surface $-1 65 -25 25 20 1 0 0 0 0 1 0 #
coedge $-1 $459 $459 $468 $499 1 $392 $-1 #
edge $-1 $500 $500 $404 $501 0 #
vertex $-1 $395 $502 #
ellipse-curve $-1 -50 20 -20 1 0 0 0 0 -13.228756555323 1 #
point $-1 -50 20.0000000000001 33.228756555323 #
coedge $-1 $434 $399 $408 $472 1 $465 $-1 #
loop $-1 $-1 $399 $444 #
straight-curve $-1 -45 -50 0 0 0 1 #
loop $-1 $326 $503 $230 #
coedge $-1 $468 $468 $459 $499 0 $403 $-1 #
straight-curve $-1 0 -50 45 1 0 0 #
straight-curve $-1 0 -45 50 -1 0 0 #
edge $-1 $440 $411 $439 $504 0 #
edge $-1 $440 $410 $408 $505 0 #
face $506 $442 $409 $6 $-1 $507 forward single #
point $-1 -45 -50 45 #
point $-1 -45 -45 50 #
straight-curve $-1 50 0 45 0 1 0 #
straight-curve $-1 50 0 -45 0 -1 0 #
point $-1 45 -45 -50 #
loop $-1 $508 $509 $343 #
coedge $-1 $480 $480 $510 $511 0 $427 $-1 #
straight-curve $-1 -45 0 -50 0 -1 0 #
colour-tsl-attrib $-1 $-1 $-1 $431 1 #
loop $-1 $512 $513 $431 #
plane-surface $-1 0 0 -50 0 0 1 1 0 0 0 #
straight-curve $-1 -50 -45 0 0 0 -1 #
point $-1 -50 -45 -45 #
point $-1 -50 -45 45 #
colour-tsl-attrib $-1 $-1 $-1 $442 1 #
cone-surface $-1 -45 0 45 0 -1 0 -3.53553390593274 0 3.53553390593274 1 0 1 0 #
colour-tsl-attrib $-1 $-1 $-1 $444 1 #
cone-surface $-1 -45 -45 0 0 0 -1 -3.53553390593274 -3.53553390593274 0 1 0 1 0 #
ellipse-curve $-1 -45 -45 -45 0 0 1 -3.53553390593274 -3.53553390593274 0 1 #
ellipse-curve $-1 -45 -45 -45 0 -1 0 -3.53553390593274 0 -3.53553390593274 1 #
colour-tsl-attrib $-1 $-1 $-1 $456 7 #
face $514 $515 $516 $6 $-1 $517 reversed single #
loop $-1 $-1 $518 $456 #
sphere-surface $-1 20 20 -65 20 1 0 0 0 0 1 0 #
coedge $-1 $498 $498 $503 $519 1 $457 $-1 #
edge $-1 $520 $520 $468 $521 0 #
vertex $-1 $460 $522 #
ellipse-curve $-1 50 0 0 -1 0 0 0 0 13.228756555323 1 #
point $-1 -50 20.0000000000001 -6.77124344467705 #
coedge $-1 $503 $503 $498 $519 0 $467 $-1 #
ellipse-curve $-1 -45 -45 45 0 1 0 -3.53553390593274 0 3.53553390593274 1 #
ellipse-curve $-1 -45 -45 45 0 0 1 -3.53553390593274 -3.53553390593274 0 1 #
colour-tsl-attrib $-1 $-1 $-1 $473 1 #
sphere-surface $-1 -45 -45 45 5 1 0 0 0 0 1 0 #
loop $-1 $523 $524 $343 #
coedge $-1 $509 $509 $525 $526 0 $479 $-1 #
coedge $-1 $510 $510 $480 $511 1 $527 $-1 #
edge $-1 $528 $528 $480 $529 0 #
loop $-1 $350 $530 $431 #
coedge $-1 $513 $513 $518 $531 0 $483 $-1 #
colour-tsl-attrib $-1 $-1 $-1 $495 7 #
face $532 $533 $527 $6 $-1 $534 reversed single #
loop $-1 $-1 $535 $495 #
sphere-surface $-1 -20 -20 -65 20 1 0 0 0 0 1 0 #
coedge $-1 $518 $518 $513 $531 1 $496 $-1 #
edge $-1 $536 $536 $503 $537 0 #
vertex $-1 $499 $538 #
ellipse-curve $-1 50 25 -25 -1 0 0 0 0 13.228756555323 1 #
point $-1 50 9.23759668021535e-014 -13.228756555323 #
loop $-1 $539 $540 $343 #
coedge $-1 $524 $524 $541 $542 0 $508 $-1 #
coedge $-1 $525 $525 $509 $526 1 $543 $-1 #
edge $-1 $544 $544 $509 $545 0 #
loop $-1 $-1 $510 $515 #
vertex $-1 $511 $546 #
ellipse-curve $-1 0 0 50 0 0 -1 0 13.228756555323 0 1 #
coedge $-1 $530 $530 $535 $547 0 $512 $-1 #
edge $-1 $548 $548 $513 $549 0 #
colour-tsl-attrib $-1 $-1 $-1 $515 7 #
face $550 $551 $543 $6 $-1 $552 reversed single #
sphere-surface $-1 0 0 65 20 1 0 0 0 0 1 0 #
coedge $-1 $535 $535 $530 $547 1 $516 $-1 #
vertex $-1 $519 $553 #
ellipse-curve $-1 50 -25 25 -1 0 0 0 0 13.228756555323 1 #
point $-1 50 25.0000000000001 -38.228756555323 #
loop $-1 $295 $554 $343 #
coedge $-1 $540 $540 $555 $556 0 $523 $-1 #
coedge $-1 $541 $541 $524 $542 1 $557 $-1 #
edge $-1 $558 $558 $524 $559 0 #
loop $-1 $-1 $525 $533 #
vertex $-1 $526 $560 #
ellipse-curve $-1 25 -25 50 0 0 -1 0 13.228756555323 0 1 #
point $-1 9.23759668021535e-014 -13.228756555323 50 #
edge $-1 $561 $561 $530 $562 0 #
vertex $-1 $531 $563 #
ellipse-curve $-1 20 20 -50 0 0 1 0 -13.228756555323 0 1 #
colour-tsl-attrib $-1 $-1 $-1 $533 7 #
face $564 $565 $557 $6 $-1 $566 reversed single #
sphere-surface $-1 25 -25 65 20 1 0 0 0 0 1 0 #
point $-1 50 -24.9999999999999 11.771243444677 #
coedge $-1 $554 $554 $567 $568 0 $539 $-1 #
coedge $-1 $555 $555 $540 $556 1 $569 $-1 #
edge $-1 $570 $570 $540 $571 0 #
loop $-1 $-1 $541 $551 #
vertex $-1 $542 $572 #
ellipse-curve $-1 -25 -25 50 0 0 -1 0 13.228756555323 0 1 #
point $-1 25.0000000000001 -38.228756555323 50 #
vertex $-1 $547 $573 #
ellipse-curve $-1 -20 -20 -50 0 0 1 0 -13.228756555323 0 1 #
point $-1 20.0000000000001 33.228756555323 -50 #
colour-tsl-attrib $-1 $-1 $-1 $551 7 #
face $574 $575 $569 $6 $-1 $576 reversed single #
sphere-surface $-1 -25 -25 65 20 1 0 0 0 0 1 0 #
coedge $-1 $567 $567 $554 $568 1 $577 $-1 #
edge $-1 $578 $578 $554 $579 0 #
loop $-1 $-1 $555 $565 #
vertex $-1 $556 $580 #
ellipse-curve $-1 -25 25 50 0 0 -1 0 13.228756555323 0 1 #
point $-1 -24.9999999999999 -38.228756555323 50 #
point $-1 -19.9999999999999 -6.77124344467705 -50 #
colour-tsl-attrib $-1 $-1 $-1 $565 7 #
face $581 $278 $577 $6 $-1 $582 reversed single #
sphere-surface $-1 -25 25 65 20 1 0 0 0 0 1 0 #
loop $-1 $-1 $567 $575 #
vertex $-1 $568 $583 #
ellipse-curve $-1 25 25 50 0 0 -1 0 13.228756555323 0 1 #
point $-1 -24.9999999999999 11.771243444677 50 #
colour-tsl-attrib $-1 $-1 $-1 $575 7 #
sphere-surface $-1 25 25 65 20 1 0 0 0 0 1 0 #
point $-1 25.0000000000001 11.771243444677 50 #
