104 441 0 0                             
body $-1 $1 $-1 $2 #
lump $-1 $-1 $3 $0 #
transform $-1 -3.49148133884313e-15 -1 0 1 -3.49148133884313e-15 0 0 0 1 -24.9999999999996 57 0 1 1 0 0 #
shell $-1 $-1 $-1 $4 $1 #
face $-1 $5 $6 $3 $-1 $7 1 #
face $-1 $8 $9 $3 $-1 $10 1 #
loop $-1 $11 $12 $4 #
cone-surface $-1 55.9999999999999 23.9999999999998 20 0 0 1 -8.72870334710783e-15 2.5 0 1 0 1 0 #
face $-1 $13 $14 $3 $-1 $15 1 #
loop $-1 $16 $17 $5 #
cone-surface $-1 12.9999999999999 34.9999999999997 5.5 0 0 1 -1.74574066942157e-14 5 0 1 0 1 0 #
loop $-1 $-1 $18 $4 #
coedge $-1 $12 $12 $19 $20 1 $6 $-1 #
face $-1 $21 $22 $3 $-1 $23 0 #
loop $-1 $24 $25 $8 #
cone-surface $-1 13 12.9999999999997 5.5 0 0 1 -1.74574066942157e-14 5 0 1 0 1 0 #
loop $-1 $-1 $26 $5 #
coedge $-1 $17 $17 $27 $28 1 $9 $-1 #
coedge $-1 $18 $18 $29 $30 1 $11 $-1 #
coedge $-1 $19 $19 $12 $20 0 $31 $-1 #
edge $-1 $32 $32 $19 $33 0 #
face $-1 $34 $35 $3 $-1 $36 1 #
loop $-1 $-1 $37 $13 #
plane-surface $-1 101.5 30.5 29.75 3.49148133884313e-15 -1 0 0 0 1 0 #
loop $-1 $-1 $38 $8 #
coedge $-1 $25 $25 $39 $40 1 $14 $-1 #
coedge $-1 $26 $26 $41 $42 1 $16 $-1 #
coedge $-1 $27 $27 $17 $28 0 $43 $-1 #
edge $-1 $44 $44 $27 $45 0 #
coedge $-1 $29 $29 $18 $30 0 $46 $-1 #
edge $-1 $47 $47 $29 $48 0 #
loop $-1 $49 $19 $50 #
vertex $-1 $20 $51 #
intcurve-curve $-1 0 { surfintcur nubs 3 periodic 33 
	0 3 0.471093205022031 2 0.942186410044051 2 1.41327961506608 2 1.88437282008811 2 
	2.35546525403822 2 2.82655768798834 2 3.29765012193849 2 3.76874255588861 2 4.23983498983874 2 
	4.71092742378886 2 5.18201985773899 2 5.65311229168909 2 6.1242054967111 2 6.5952987017331 2 
	7.0663919067551 2 7.53748511177711 2 8.00857831679913 2 8.47967152182118 2 8.95076472684321 2 
	9.42185793186522 2 9.89295036581533 2 10.3640427997654 2 10.8351352337155 2 11.3062276676657 2 
	11.7773201016158 2 12.2484125355659 2 12.719504969516 2 13.1905974034661 2 13.6616906084881 2 
	14.1327838135101 2 14.6038770185321 2 15.0749702235541 3 
	58.4999999999999 23.9999999999998 29.8956518577535 
	58.4999999999999 23.8429689316591 29.8956518577535 
	58.4849664056647 23.6805974736976 29.8969220905915 
	58.4216644751454 23.3576471522702 29.9021161408005 
	58.373409929907 23.1970655302272 29.906036503766 
	58.2458202415327 22.889112998668 29.9158885122619 
	58.1663835162569 22.7414954503109 29.9218188886946 
	57.9828332544537 22.4685224369052 29.9345425124936 
	57.8787080896795 22.3431741837466 29.9413227285366 
	57.6568259978384 22.1212920919055 29.9544200142995 
	57.5314778283827 22.0171669466586 29.9611956470639 
	57.2585047597584 21.8336166022664 29.9739025605629 
	57.1108870711478 21.7541797861164 29.979820926636 
	56.802934273722 21.6265899901425 29.9896487046683 
	56.6423525260248 21.5783354387397 29.9935570442399 
	56.3194021730764 21.5150335481557 29.9987343597292 
	56.1570308113166 21.4999999999998 30 
	55.8429691886832 21.4999999999998 30 
	55.6805978269234 21.5150335481557 29.9987343597292 
	55.357647473975 21.5783354387397 29.9935570442399 
	55.1970657262778 21.6265899901425 29.9896487046682 
	54.889112928852 21.7541797861164 29.979820926636 
	54.7414952402414 21.8336166022664 29.9739025605629 
	54.4685221716171 22.0171669466586 29.9611956470639 
	54.3431740021614 22.1212920919056 29.9544200142995 
	54.1212919103203 22.3431741837467 29.9413227285366 
	54.0171667455461 22.4685224369052 29.9345425124936 
	53.8336164837429 22.7414954503109 29.9218188886945 
	53.7541797584672 22.889112998668 29.9158885122619 
	53.6265900700929 23.1970655302272 29.906036503766 
	53.5783355248544 23.3576471522702 29.9021161408005 
	53.5150335943351 23.6805974736976 29.8969220905915 
	53.4999999999999 23.8429689316591 29.8956518577535 
	53.4999999999999 24.1570310683405 29.8956518577535 
	53.5150335943351 24.319402526302 29.8969220905915 
	53.5783355248544 24.6423528477294 29.9021161408005 
	53.6265900700929 24.8029344697725 29.906036503766 
	53.7541797584672 25.1108870013316 29.9158885122619 
	53.8336164837429 25.2585045496888 29.9218188886945 
	54.0171667455461 25.5314775630944 29.9345425124936 
	54.1212919103204 25.656825816253 29.9413227285366 
	54.3431740021615 25.8787079080941 29.9544200142995 
	54.4685221716172 25.9828330533411 29.9611956470639 
	54.7414952402414 26.1663833977333 29.9739025605629 
	54.889112928852 26.2458202138832 29.979820926636 
	55.1970657262778 26.3734100098572 29.9896487046683 
	55.357647473975 26.42166456126 29.9935570442399 
	55.6805978269234 26.4849664518439 29.9987343597293 
	55.8429691886832 26.4999999999998 30 
	56.1570308113167 26.4999999999998 30 
	56.3194021730765 26.4849664518439 29.9987343597292 
	56.6423525260248 26.4216645612599 29.9935570442399 
	56.8029342737221 26.3734100098571 29.9896487046683 
	57.1108870711479 26.2458202138832 29.979820926636 
	57.2585047597584 26.1663833977332 29.9739025605629 
	57.5314778283827 25.982833053341 29.9611956470639 
	57.6568259978384 25.8787079080941 29.9544200142995 
	57.8787080896795 25.656825816253 29.9413227285366 
	57.9828332544537 25.5314775630944 29.9345425124936 
	58.166383516257 25.2585045496888 29.9218188886946 
	58.2458202415327 25.1108870013316 29.9158885122619 
	58.373409929907 24.8029344697724 29.906036503766 
	58.4216644751454 24.6423528477294 29.9021161408005 
	58.4849664056647 24.319402526302 29.8969220905915 
	58.4999999999999 24.1570310683405 29.8956518577535 
	58.4999999999999 23.9999999999998 29.8956518577535 
	0.001 
	cone 55.9999999999999 23.9999999999998 20 0 0 1 -8.72870334710783e-15 2.5 0 1 0 1 0 
	cone 56 0 0 0 1 0 30 0 0 1 0 1 0 
	nullbs 
	nullbs 
	} #
face $-1 $52 $53 $3 $-1 $54 0 #
loop $-1 $-1 $55 $21 #
cone-surface $-1 101.5 24 25 -1 -3.49148133884313e-15 0 1.60475258520347e-14 -4.59619407771256 -4.59619407771256 1 0 1 0 #
coedge $-1 $56 $57 $58 $59 0 $22 $-1 #
coedge $-1 $38 $38 $60 $61 1 $24 $-1 #
coedge $-1 $39 $39 $25 $40 0 $62 $-1 #
edge $-1 $63 $63 $39 $64 0 #
coedge $-1 $41 $41 $26 $42 0 $65 $-1 #
edge $-1 $66 $66 $41 $67 0 #
loop $-1 $62 $27 $68 #
vertex $-1 $28 $69 #
ellipse-curve $-1 12.9999999999999 34.9999999999997 0 -0 -0 1 -1.74574066942157e-14 5 0 1 #
loop $-1 $70 $29 $71 #
vertex $-1 $30 $72 #
intcurve-curve $-1 0 { surfintcur nubs 3 periodic 33 
	0 3 0.471448236139776 2 0.942896472279551 2 1.41434470841933 2 1.8857929445591 2 
	2.3572363375184 2 2.8286797304777 2 3.300123123437 2 3.77156651639627 2 4.24300990935555 2 
	4.71445330231483 2 5.1858966952741 2 5.65734008823337 2 6.12878832437312 2 6.60023656051287 2 
	7.07168479665261 2 7.54313303279236 2 8.01458126893211 2 8.48602950507187 2 8.95747774121162 2 
	9.42892597735138 2 9.90036937031065 2 10.3718127632699 2 10.8432561562292 2 11.3146995491884 2 
	11.7861429421477 2 12.257586335107 2 12.7290297280662 2 13.2004731210255 2 13.6719213571652 2 
	14.1433695933049 2 14.6148178294447 2 15.0862660655844 3 
	58.4999999999999 23.9999999999998 18.8348082018374 
	58.4999999999999 24.1571494120464 18.8348082018374 
	58.4849436714685 24.3196075586214 18.8368276384319 
	58.4215870233591 24.6426587978061 18.8450772568984 
	58.3733009012979 24.8032548211353 18.8513017019896 
	58.2456775202978 25.1111741644451 18.8669304721305 
	58.1662386913484 25.2587461969631 18.876332547393 
	57.9827291873071 25.5316060284524 18.8964892368196 
	57.8786465785402 25.6568873273923 18.9072231879586 
	57.6568884664571 25.8786454394754 18.927945530386 
	57.5316076932031 25.9827279250288 18.938661302997 
	57.2587475183516 26.1662379453232 18.9587517722163 
	57.1111746154348 26.2456773544424 18.968106261028 
	56.8032535946682 26.3733013885654 18.983638950864 
	56.6426567827586 26.4215875632015 18.9898156799627 
	56.3196053417871 26.4849439615786 18.9979988347427 
	56.157147797653 26.4999999999998 19 
	55.8428522023468 26.4999999999998 19 
	55.6803946582127 26.4849439615786 18.9979988347427 
	55.3573432172413 26.4215875632015 18.9898156799627 
	55.1967464053317 26.3733013885654 18.9836389508639 
	54.888825384565 26.2456773544424 18.968106261028 
	54.7412524816482 26.1662379453232 18.9587517722163 
	54.4683923067967 25.9827279250288 18.938661302997 
	54.3431115335428 25.8786454394754 18.927945530386 
	54.1213534214596 25.6568873273923 18.9072231879586 
	54.0172708126928 25.5316060284524 18.8964892368196 
	53.8337613086514 25.2587461969631 18.876332547393 
	53.754322479702 25.1111741644451 18.8669304721305 
	53.6266990987019 24.8032548211353 18.8513017019896 
	53.5784129766407 24.6426587978061 18.8450772568984 
	53.5150563285313 24.3196075586214 18.8368276384319 
	53.4999999999999 24.1571494120464 18.8348082018374 
	53.4999999999999 23.8428505879532 18.8348082018374 
	53.5150563285313 23.6803924413783 18.8368276384319 
	53.5784129766407 23.3573412021936 18.8450772568984 
	53.6266990987019 23.1967451788643 18.8513017019896 
	53.754322479702 22.8888258355545 18.8669304721305 
	53.8337613086514 22.7412538030365 18.876332547393 
	54.0172708126928 22.4683939715472 18.8964892368196 
	54.1213534214596 22.3431126726073 18.9072231879586 
	54.3431115335428 22.1213545605242 18.927945530386 
	54.4683923067967 22.0172720749708 18.938661302997 
	54.7412524816482 21.8337620546765 18.9587517722163 
	54.888825384565 21.7543226455572 18.968106261028 
	55.1967464053317 21.6266986114343 18.9836389508639 
	55.3573432172413 21.5784124367982 18.9898156799627 
	55.6803946582127 21.515056038421 18.9979988347427 
	55.8428522023468 21.4999999999998 19 
	56.157147797653 21.4999999999998 19 
	56.3196053417871 21.515056038421 18.9979988347427 
	56.6426567827586 21.5784124367982 18.9898156799627 
	56.8032535946682 21.6266986114343 18.983638950864 
	57.1111746154348 21.7543226455572 18.968106261028 
	57.2587475183516 21.8337620546765 18.9587517722163 
	57.5316076932031 22.0172720749708 18.938661302997 
	57.6568884664571 22.1213545605243 18.927945530386 
	57.8786465785402 22.3431126726074 18.9072231879586 
	57.9827291873071 22.4683939715472 18.8964892368196 
	58.1662386913484 22.7412538030366 18.876332547393 
	58.2456775202978 22.8888258355546 18.8669304721305 
	58.3733009012979 23.1967451788643 18.8513017019896 
	58.4215870233591 23.3573412021936 18.8450772568984 
	58.4849436714685 23.6803924413783 18.8368276384319 
	58.4999999999999 23.8428505879532 18.8348082018374 
	58.4999999999999 23.9999999999998 18.8348082018374 
	0.001 
	cone 55.9999999999999 23.9999999999998 20 0 0 1 -8.72870334710783e-15 2.5 0 1 0 1 0 
	cone 56 0 0 0 1 0 19 0 0 1 0 -1 0 
	nullbs 
	nullbs 
	} #
loop $-1 $-1 $73 $50 #
face $-1 $74 $31 $3 $-1 $75 0 #
point $-1 58.4999999999999 23.9999999999998 29.8956518577535 #
face $-1 $76 $77 $3 $-1 $78 0 #
loop $-1 $-1 $79 $34 #
plane-surface $-1 101.5 17.5 29.75 -3.49148133884313e-15 1 0 -0 0 -1 0 #
coedge $-1 $80 $58 $81 $82 1 $35 $-1 #
coedge $-1 $83 $37 $84 $85 1 $22 $-1 #
coedge $-1 $37 $83 $86 $87 1 $22 $-1 #
coedge $-1 $55 $88 $37 $59 1 $35 $-1 #
edge $-1 $89 $90 $37 $91 0 #
coedge $-1 $60 $60 $38 $61 0 $92 $-1 #
edge $-1 $93 $93 $60 $94 0 #
loop $-1 $95 $39 $68 #
vertex $-1 $40 $96 #
ellipse-curve $-1 13 12.9999999999997 0 -0 -0 1 -1.74574066942157e-14 5 0 1 #
loop $-1 $92 $41 $97 #
vertex $-1 $42 $98 #
ellipse-curve $-1 12.9999999999999 34.9999999999997 10.9999998699906 -0 0 -1 -1.74574066942157e-14 5 0 1 #
face $-1 $99 $43 $3 $-1 $100 0 #
point $-1 12.9999999999999 39.9999999999997 0 #
loop $-1 $-1 $101 $71 #
face $-1 $102 $46 $3 $-1 $103 0 #
point $-1 58.4999999999999 23.9999999999998 18.8348082018374 #
coedge $-1 $104 $105 $106 $107 1 $49 $-1 #
face $-1 $108 $109 $3 $-1 $110 0 #
cone-surface $-1 56 0 0 0 1 0 30 0 0 1 0 1 0 #
face $-1 $111 $112 $3 $-1 $78 0 #
loop $-1 $-1 $113 $52 #
plane-surface $-1 107 0 41 0 -0 1 1 0 -0 0 #
coedge $-1 $114 $115 $80 $116 0 $53 $-1 #
coedge $-1 $88 $55 $79 $116 1 $35 $-1 #
coedge $-1 $86 $117 $55 $82 0 $118 $-1 #
edge $-1 $119 $89 $81 $120 0 #
coedge $-1 $57 $56 $113 $121 1 $22 $-1 #
coedge $-1 $122 $123 $56 $85 0 $124 $-1 #
edge $-1 $125 $90 $84 $126 0 #
coedge $-1 $127 $81 $57 $87 0 $118 $-1 #
edge $-1 $89 $128 $86 $129 0 #
coedge $-1 $58 $80 $122 $130 1 $35 $-1 #
vertex $-1 $87 $131 #
vertex $-1 $85 $132 #
straight-curve $-1 101.5 30.5 25 1 3.49148133884313e-15 0 #
loop $-1 $133 $60 $97 #
vertex $-1 $61 $134 #
ellipse-curve $-1 13 12.9999999999997 10.9999998699906 -0 0 -1 -1.74574066942157e-14 5 0 1 #
loop $-1 $-1 $135 $68 #
point $-1 12.9999999999999 17.9999999999997 0 #
face $-1 $136 $65 $3 $-1 $137 0 #
point $-1 12.9999999999999 39.9999999999997 11 #
face $-1 $138 $139 $3 $-1 $140 0 #
plane-surface $-1 0 0 0 0 0 -1 -1 0 0 0 #
coedge $-1 $141 $142 $143 $144 0 $70 $-1 #
face $-1 $145 $146 $3 $-1 $147 0 #
cone-surface $-1 56 0 0 0 1 0 19 0 0 1 0 -1 0 #
coedge $-1 $148 $73 $149 $150 1 $49 $-1 #
coedge $-1 $73 $148 $151 $152 0 $49 $-1 #
coedge $-1 $153 $154 $73 $107 0 $155 $-1 #
edge $-1 $156 $157 $73 $158 0 #
face $-1 $159 $160 $3 $-1 $161 0 #
loop $-1 $-1 $162 $74 #
cone-surface $-1 85.2403830344269 24 13 0 1 0 -1.08972473588517 0 -1.67705098312484 1 0 -1 0 #
face $-1 $163 $118 $3 $-1 $164 0 #
loop $-1 $-1 $165 $76 #
coedge $-1 $166 $167 $83 $121 0 $77 $-1 #
coedge $-1 $168 $79 $117 $169 1 $53 $-1 #
coedge $-1 $79 $168 $170 $171 1 $53 $-1 #
edge $-1 $172 $119 $79 $173 0 #
coedge $-1 $81 $174 $114 $169 0 $118 $-1 #
loop $-1 $-1 $117 $111 #
vertex $-1 $82 $175 #
ellipse-curve $-1 95.9999999999999 24 25 1 -0 -0 1.60475258520347e-14 -4.59619407771256 -4.59619407771256 1 #
edge $-1 $128 $125 $113 $176 0 #
coedge $-1 $170 $84 $88 $130 0 $124 $-1 #
coedge $-1 $84 $177 $166 $178 1 $124 $-1 #
loop $-1 $-1 $170 $145 #
vertex $-1 $121 $179 #
straight-curve $-1 107 30.5 14.875 0 0 -1 #
coedge $-1 $180 $86 $167 $181 0 $118 $-1 #
vertex $-1 $87 $182 #
straight-curve $-1 96 30.5 35.375 0 0 1 #
edge $-1 $90 $172 $122 $183 0 #
point $-1 95.9999999999999 30.5 25 #
point $-1 107 30.5 25 #
loop $-1 $-1 $184 $97 #
point $-1 12.9999999999999 17.9999999999997 11 #
coedge $-1 $185 $186 $187 $188 1 $95 $-1 #
face $-1 $-1 $189 $3 $-1 $190 0 #
plane-surface $-1 28.0894284748555 0 10.9999998699906 0 -0 1 1 0 -0 0 #
face $-1 $191 $192 $3 $-1 $193 0 #
loop $-1 $-1 $194 $99 #
plane-surface $-1 37 48 0 0 1 0 0 0 1 0 #
coedge $-1 $195 $101 $196 $197 1 $70 $-1 #
coedge $-1 $101 $195 $198 $199 0 $70 $-1 #
coedge $-1 $200 $201 $101 $144 1 $139 $-1 #
edge $-1 $202 $203 $101 $204 0 #
face $-1 $97 $124 $3 $-1 $205 0 #
loop $-1 $-1 $206 $102 #
plane-surface $-1 75 0 0 0 0 -1 -1 0 0 0 #
coedge $-1 $105 $104 $162 $207 1 $49 $-1 #
coedge $-1 $208 $209 $104 $150 0 $189 $-1 #
edge $-1 $210 $156 $149 $211 0 #
coedge $-1 $212 $213 $105 $152 1 $139 $-1 #
edge $-1 $214 $157 $105 $215 0 #
coedge $-1 $216 $106 $213 $217 0 $155 $-1 #
coedge $-1 $106 $216 $208 $218 0 $155 $-1 #
loop $-1 $-1 $216 $163 #
vertex $-1 $150 $219 #
vertex $-1 $152 $220 #
straight-curve $-1 28.5871408510364 0 12.1874998781162 0 1 0 #
face $-1 $68 $221 $3 $-1 $222 0 #
loop $-1 $-1 $223 $108 #
plane-surface $-1 96 0 11 0 -0 1 1 0 -0 0 #
coedge $-1 $224 $225 $148 $207 0 $109 $-1 #
face $-1 $50 $155 $3 $-1 $226 0 #
plane-surface $-1 96 0 41 -1 0 0 0 -0 1 0 #
coedge $-1 $227 $228 $168 $229 0 $112 $-1 #
coedge $-1 $230 $113 $123 $178 0 $77 $-1 #
coedge $-1 $113 $230 $127 $181 1 $77 $-1 #
coedge $-1 $115 $114 $165 $229 1 $53 $-1 #
edge $-1 $231 $119 $117 $232 0 #
coedge $-1 $233 $122 $115 $171 0 $124 $-1 #
edge $-1 $172 $234 $170 $235 0 #
vertex $-1 $130 $236 #
straight-curve $-1 101.5 17.5 25 -1 -3.49148133884313e-15 0 #
coedge $-1 $117 $237 $227 $238 0 $118 $-1 #
point $-1 95.9999999999999 17.5 25 #
straight-curve $-1 104.25 30.5 41 1 3.49148133884313e-15 0 #
coedge $-1 $123 $239 $240 $241 1 $124 $-1 #
edge $-1 $125 $242 $166 $243 0 #
point $-1 107 30.5 41 #
coedge $-1 $244 $127 $245 $246 1 $118 $-1 #
edge $-1 $128 $247 $127 $248 0 #
point $-1 95.9999999999999 30.5 41 #
ellipse-curve $-1 107 24 25 -1 -0 -0 1.60475258520347e-14 -4.59619407771256 -4.59619407771256 1 #
coedge $-1 $249 $250 $216 $251 1 $133 $-1 #
coedge $-1 $198 $135 $200 $252 0 $95 $-1 #
coedge $-1 $135 $253 $254 $255 0 $95 $-1 #
coedge $-1 $256 $257 $135 $188 0 $221 $-1 #
edge $-1 $258 $259 $135 $260 0 #
loop $-1 $-1 $261 $136 #
plane-surface $-1 61.8333333282935 0 14.5833333224992 0 -1 0 0 0 -1 0 #
face $-1 $262 $263 $3 $-1 $264 0 #
loop $-1 $-1 $265 $138 #
cone-surface $-1 13 13 5.5 -0 -0 -1 -9.19238815542512 -9.19238815542512 0 1 0 1 0 #
coedge $-1 $266 $200 $257 $267 1 $139 $-1 #
coedge $-1 $142 $141 $268 $269 0 $70 $-1 #
coedge $-1 $206 $270 $141 $197 0 $146 $-1 #
edge $-1 $271 $203 $196 $272 0 #
coedge $-1 $273 $185 $142 $199 1 $95 $-1 #
edge $-1 $274 $202 $142 $275 0 #
coedge $-1 $194 $143 $185 $252 1 $139 $-1 #
coedge $-1 $143 $276 $206 $277 1 $139 $-1 #
vertex $-1 $199 $278 #
vertex $-1 $197 $279 #
ellipse-curve $-1 56 48 0 0 1 0 19 0 0 1 #
plane-surface $-1 107 0 0 1 0 0 0 0 -1 0 #
coedge $-1 $280 $196 $201 $277 0 $146 $-1 #
edge $-1 $214 $210 $148 $281 0 #
coedge $-1 $282 $149 $154 $218 1 $189 $-1 #
coedge $-1 $149 $283 $224 $284 1 $189 $-1 #
vertex $-1 $150 $285 #
ellipse-curve $-1 56 0 0 0 -1 0 30 0 0 1 #
coedge $-1 $286 $151 $225 $287 1 $139 $-1 #
coedge $-1 $151 $266 $153 $217 1 $139 $-1 #
vertex $-1 $287 $288 #
ellipse-curve $-1 56 48 0 0 -1 0 30 0 0 1 #
coedge $-1 $154 $153 $184 $251 0 $155 $-1 #
edge $-1 $157 $289 $153 $290 0 #
edge $-1 $291 $156 $154 $292 0 #
point $-1 28.5871408510364 0 12.1874998781162 #
point $-1 28.5871408510364 48 12.1874998781162 #
loop $-1 $-1 $187 $159 #
cone-surface $-1 13 35 5.5 0 0 -1 -9.19238815542512 9.19238815542512 0 1 0 1 0 #
coedge $-1 $293 $294 $295 $296 1 $160 $-1 #
coedge $-1 $295 $162 $209 $284 0 $109 $-1 #
coedge $-1 $162 $295 $212 $287 0 $109 $-1 #
cone-surface $-1 26.7596169077721 24 12.9999998699906 0 1 0 1.08972473961344 0 -1.67705098070226 1 0 -1 0 #
coedge $-1 $297 $165 $174 $238 1 $112 $-1 #
coedge $-1 $165 $297 $233 $298 0 $112 $-1 #
edge $-1 $234 $231 $165 $299 0 #
coedge $-1 $167 $166 $300 $301 1 $77 $-1 #
vertex $-1 $238 $302 #
straight-curve $-1 96 17.5 35.375 0 0 -1 #
coedge $-1 $303 $170 $228 $298 1 $124 $-1 #
vertex $-1 $298 $304 #
straight-curve $-1 107 17.5 14.875 0 -0 1 #
point $-1 107 17.5 25 #
coedge $-1 $174 $305 $306 $307 1 $118 $-1 #
edge $-1 $308 $231 $174 $248 0 #
coedge $-1 $177 $309 $276 $310 0 $124 $-1 #
coedge $-1 $311 $300 $177 $241 0 $312 $-1 #
edge $-1 $242 $313 $177 $314 0 #
vertex $-1 $178 $315 #
straight-curve $-1 107 0 41 0 1 0 #
coedge $-1 $316 $180 $317 $318 0 $118 $-1 #
coedge $-1 $300 $311 $180 $246 0 $312 $-1 #
edge $-1 $319 $247 $180 $320 0 #
vertex $-1 $181 $321 #
straight-curve $-1 96 0 41 0 1 0 #
coedge $-1 $322 $184 $266 $323 0 $133 $-1 #
coedge $-1 $184 $324 $282 $325 1 $133 $-1 #
edge $-1 $289 $291 $184 $326 0 #
edge $-1 $258 $202 $185 $327 0 #
coedge $-1 $186 $273 $265 $328 1 $95 $-1 #
coedge $-1 $329 $330 $186 $255 1 $263 $-1 #
edge $-1 $331 $259 $186 $332 0 #
coedge $-1 $333 $187 $330 $334 0 $221 $-1 #
coedge $-1 $187 $333 $194 $267 0 $221 $-1 #
vertex $-1 $267 $335 #
vertex $-1 $255 $336 #
ellipse-curve $-1 13 35 0 -0 -0 1 -9.19238815542512 9.19238815542512 0 1 #
coedge $-1 $337 $282 $338 $339 1 $189 $-1 #
face $-1 $340 $312 $3 $-1 $341 0 #
loop $-1 $-1 $330 $191 #
plane-surface $-1 0 0 11 -1 0 0 0 -0 1 0 #
coedge $-1 $338 $342 $253 $328 0 $192 $-1 #
coedge $-1 $213 $194 $249 $323 1 $139 $-1 #
edge $-1 $343 $258 $194 $344 0 #
coedge $-1 $345 $337 $195 $269 1 $189 $-1 #
edge $-1 $271 $274 $268 $346 0 #
coedge $-1 $196 $280 $345 $347 1 $146 $-1 #
vertex $-1 $269 $348 #
straight-curve $-1 75 0 0 0 1 0 #
coedge $-1 $253 $198 $337 $349 1 $95 $-1 #
vertex $-1 $349 $350 #
straight-curve $-1 37 0 0 0 1 0 #
coedge $-1 $201 $351 $239 $310 1 $139 $-1 #
edge $-1 $203 $352 $206 $353 0 #
point $-1 37 48 0 #
point $-1 75 48 0 #
coedge $-1 $270 $206 $309 $354 1 $146 $-1 #
straight-curve $-1 83.4128590947752 0 12.1875 -0 -1 -0 #
coedge $-1 $261 $208 $250 $325 0 $189 $-1 #
coedge $-1 $209 $355 $293 $356 0 $189 $-1 #
edge $-1 $210 $357 $224 $358 0 #
point $-1 83.4128590947752 0 12.1875 #
coedge $-1 $317 $212 $294 $359 1 $139 $-1 #
edge $-1 $360 $214 $225 $361 0 #
point $-1 83.4128590947752 48 12.1875 #
vertex $-1 $217 $362 #
ellipse-curve $-1 26.7596169077721 48 12.9999998699906 0 1 0 1.08972473961344 0 -1.67705098070226 1 #
vertex $-1 $325 $363 #
ellipse-curve $-1 26.7596169077721 0 12.9999998699906 0 -1 0 1.08972473961344 0 -1.67705098070226 1 #
coedge $-1 $364 $223 $283 $356 1 $160 $-1 #
coedge $-1 $223 $364 $286 $359 0 $160 $-1 #
coedge $-1 $225 $224 $223 $296 0 $109 $-1 #
edge $-1 $357 $360 $223 $365 0 #
coedge $-1 $228 $227 $366 $367 1 $112 $-1 #
edge $-1 $368 $234 $228 $243 0 #
straight-curve $-1 104.25 17.5 41 -1 -3.49148133884313e-15 0 #
coedge $-1 $240 $245 $230 $301 0 $312 $-1 #
edge $-1 $247 $242 $230 $369 0 #
point $-1 95.9999999999999 17.5 41 #
coedge $-1 $370 $233 $371 $372 1 $124 $-1 #
point $-1 107 17.5 41 #
coedge $-1 $237 $316 $355 $373 1 $118 $-1 #
coedge $-1 $374 $366 $237 $307 0 $375 $-1 #
edge $-1 $308 $376 $237 $377 0 #
vertex $-1 $367 $378 #
coedge $-1 $239 $370 $280 $354 0 $124 $-1 #
edge $-1 $352 $313 $239 $379 0 #
coedge $-1 $245 $240 $351 $380 0 $312 $-1 #
loop $-1 $-1 $245 $262 #
vertex $-1 $310 $381 #
ellipse-curve $-1 107 42 35 -1 -0 -0 0 4.24264068711929 4.24264068711929 1 #
point $-1 107 42 41 #
coedge $-1 $305 $244 $364 $382 1 $118 $-1 #
coedge $-1 $351 $286 $244 $318 1 $139 $-1 #
edge $-1 $319 $383 $244 $384 0 #
vertex $-1 $380 $385 #
ellipse-curve $-1 96 42 35 1 -0 -0 0 4.24264068711929 4.24264068711929 1 #
point $-1 96 42 41 #
coedge $-1 $386 $249 $333 $387 1 $133 $-1 #
edge $-1 $289 $343 $249 $388 0 #
coedge $-1 $250 $386 $389 $390 1 $133 $-1 #
edge $-1 $291 $391 $282 $392 0 #
straight-curve $-1 26.7596169077721 0 10.9999998699906 -0 -1 -0 #
straight-curve $-1 0 48 0 1 0 0 #
edge $-1 $331 $393 $253 $394 0 #
coedge $-1 $395 $254 $342 $396 1 $263 $-1 #
coedge $-1 $254 $395 $256 $334 1 $263 $-1 #
vertex $-1 $396 $397 #
straight-curve $-1 0 0 0 0 1 0 #
coedge $-1 $257 $256 $322 $387 0 $221 $-1 #
edge $-1 $259 $398 $330 $399 0 #
point $-1 13 48 0 #
point $-1 0 35 0 #
coedge $-1 $268 $261 $273 $349 0 $189 $-1 #
coedge $-1 $389 $265 $261 $339 0 $192 $-1 #
edge $-1 $393 $391 $261 $400 0 #
face $-1 $71 $375 $3 $-1 $401 0 #
cone-surface $-1 101.5 42 35 -1 0 0 0 4.24264068711929 4.24264068711929 1 0 1 0 #
coedge $-1 $265 $389 $329 $396 0 $192 $-1 #
vertex $-1 $323 $402 #
straight-curve $-1 13 48 11 0 0 -1 #
coedge $-1 $403 $268 $270 $347 0 $189 $-1 #
ellipse-curve $-1 56 0 0 0 -1 0 19 0 0 1 #
edge $-1 $271 $404 $345 $405 0 #
point $-1 75 0 0 #
edge $-1 $393 $274 $337 $406 0 #
point $-1 37 0 0 #
coedge $-1 $276 $317 $311 $380 1 $139 $-1 #
vertex $-1 $354 $407 #
straight-curve $-1 75 48 0 1 0 0 #
edge $-1 $404 $352 $309 $408 0 #
coedge $-1 $283 $409 $305 $373 0 $189 $-1 #
edge $-1 $410 $357 $283 $411 0 #
vertex $-1 $356 $412 #
ellipse-curve $-1 85.2403830344269 0 13 0 -1 0 -1.08972473588517 0 -1.67705098312484 1 #
edge $-1 $383 $360 $294 $413 0 #
vertex $-1 $359 $414 #
ellipse-curve $-1 85.2403830344269 48 13 0 1 0 -1.08972473588517 0 -1.67705098312484 1 #
point $-1 26.7596169077721 48 11 #
point $-1 26.7596169077721 0 11 #
coedge $-1 $294 $293 $316 $382 0 $160 $-1 #
straight-curve $-1 85.2403830344269 0 11 0 1 0 #
coedge $-1 $306 $371 $297 $367 0 $375 $-1 #
edge $-1 $368 $308 $297 $415 0 #
vertex $-1 $367 $416 #
straight-curve $-1 107 42 41 1 0 0 #
coedge $-1 $309 $303 $403 $417 1 $124 $-1 #
coedge $-1 $366 $374 $303 $372 0 $375 $-1 #
edge $-1 $418 $368 $303 $419 0 #
edge $-1 $376 $410 $355 $420 0 #
coedge $-1 $371 $306 $409 $421 0 $375 $-1 #
loop $-1 $-1 $306 $340 #
vertex $-1 $307 $422 #
ellipse-curve $-1 96 6 35 1 -0 -0 0 -4.24264068711929 4.24264068711929 1 #
point $-1 96 6 41 #
straight-curve $-1 107 48 0 0 0 1 #
edge $-1 $313 $319 $351 $423 0 #
point $-1 107 48 35 #
edge $-1 $410 $383 $364 $424 0 #
vertex $-1 $382 $425 #
straight-curve $-1 96 48 41 0 0 -1 #
point $-1 96 48 35 #
coedge $-1 $324 $322 $395 $426 1 $133 $-1 #
edge $-1 $398 $343 $322 $427 0 #
straight-curve $-1 28.089428474855 48 11 -1 0 0 #
coedge $-1 $342 $338 $324 $390 0 $192 $-1 #
edge $-1 $391 $428 $324 $429 0 #
vertex $-1 $325 $430 #
straight-curve $-1 28.089428474855 0 11 -1 0 0 #
vertex $-1 $328 $431 #
ellipse-curve $-1 13 13 0 -0 -0 1 -9.19238815542512 -9.19238815542512 0 1 #
coedge $-1 $330 $329 $386 $426 0 $263 $-1 #
edge $-1 $428 $331 $329 $432 0 #
point $-1 0 13 0 #
vertex $-1 $426 $433 #
straight-curve $-1 0 35 11 0 0 1 #
straight-curve $-1 13 0 11 0 0 1 #
cone-surface $-1 101.5 6 35 -1 0 0 0 -4.24264068711929 4.24264068711929 1 0 1 0 #
point $-1 13 48 11 #
coedge $-1 $409 $345 $370 $417 0 $189 $-1 #
vertex $-1 $347 $434 #
straight-curve $-1 75 0 0 1 0 0 #
straight-curve $-1 0 0 0 1 0 0 #
point $-1 107 48 0 #
straight-curve $-1 107 0 0 0 1 0 #
coedge $-1 $355 $403 $374 $421 1 $189 $-1 #
vertex $-1 $373 $435 #
straight-curve $-1 96 0 11 -1 0 0 #
point $-1 85.2403830344269 0 11 #
straight-curve $-1 96 48 11 -1 0 0 #
point $-1 85.2403830344269 48 11 #
straight-curve $-1 107 6 41 -1 0 0 #
point $-1 107 6 41 #
edge $-1 $404 $418 $403 $436 0 #
vertex $-1 $417 $437 #
ellipse-curve $-1 107 6 35 -1 -0 -0 0 -4.24264068711929 4.24264068711929 1 #
straight-curve $-1 96 0 41 0 0 -1 #
edge $-1 $376 $418 $409 $438 0 #
point $-1 96 0 35 #
straight-curve $-1 107 48 35 -1 0 0 #
straight-curve $-1 96 0 11 0 1 0 #
point $-1 96 48 11 #
edge $-1 $428 $398 $395 $439 0 #
ellipse-curve $-1 13 35 10.9999998699906 -0 0 -1 -9.19238815542512 9.19238815542512 0 1 #
vertex $-1 $396 $440 #
ellipse-curve $-1 13 13 10.9999998699906 -0 0 -1 -9.19238815542512 -9.19238815542512 0 1 #
point $-1 13 0 11 #
point $-1 13 0 0 #
straight-curve $-1 0 13 11 0 0 -1 #
point $-1 0 35 11 #
point $-1 107 0 0 #
point $-1 96 0 11 #
straight-curve $-1 107 0 0 0 0 1 #
point $-1 107 0 35 #
straight-curve $-1 107 0 35 1 0 0 #
straight-curve $-1 0 0 11 0 1 0 #
point $-1 0 13 11 #
