600 0 1 0           
69 GICL ACIS Healer - Source: /gicl/data5/repository/new/f6_69.sat - 6 0 18 ACIS 6.0.3 Solaris 24 Sat Apr 13 20:07:37 2002 
1 9.999999999999999547e-07 1.000000000000000036e-10 
body $-1 $1 $-1 $-1 #
lump $-1 $-1 $2 $0 #
shell $-1 $-1 $-1 $3 $-1 $1 #
face $-1 $4 $5 $2 $-1 $6 reversed single #
face $-1 $7 $8 $2 $-1 $9 reversed single #
loop $-1 $10 $11 $3 #
cone-surface $-1 -0.9999999999999928946 1.000000000000014211 20 0 0 1 2.5 6.310887241768094443e-30 0 1 I I 0 1 2.5 forward I I I I #
face $-1 $12 $13 $2 $-1 $14 reversed single #
loop $-1 $15 $16 $4 #
cone-surface $-1 10.0000000000000604 43.99999999999997868 5.5 0 0 1 5 5.364254155502880277e-29 0 1 I I 0 1 5 forward I I I I #
loop $-1 $-1 $17 $3 #
coedge $-1 $11 $11 $18 $19 reversed $5 $-1 #
face $-1 $20 $21 $2 $-1 $22 forward single #
loop $-1 $23 $24 $7 #
cone-surface $-1 -11.99999999999994493 43.99999999999995737 5.5 0 0 1 5 5.364254155502880277e-29 0 1 I I 0 1 5 forward I I I I #
loop $-1 $-1 $25 $4 #
coedge $-1 $16 $16 $26 $27 reversed $8 $-1 #
coedge $-1 $17 $17 $28 $29 reversed $10 $-1 #
coedge $-1 $18 $18 $11 $19 forward $30 $-1 #
edge $-1 $31 0 $31 15.0749702235541001 $18 $32 forward 7 unknown #
face $-1 $33 $34 $2 $-1 $35 reversed single #
loop $-1 $-1 $36 $12 #
plane-surface $-1 5.500000000000046185 -44.50000000000009948 29.75 -1 0 0 0 0 1 forward_v I I I I #
loop $-1 $-1 $37 $7 #
coedge $-1 $24 $24 $38 $39 reversed $13 $-1 #
coedge $-1 $25 $25 $40 $41 reversed $15 $-1 #
coedge $-1 $26 $26 $16 $27 forward $42 $-1 #
edge $-1 $43 -4.263256414560612002e-15 $43 6.283185307179581791 $26 $44 forward 7 unknown #
coedge $-1 $28 $28 $17 $29 forward $45 $-1 #
edge $-1 $46 0 $46 15.08626606558440031 $28 $47 forward 7 unknown #
loop $-1 $48 $18 $49 #
vertex $-1 $19 $50 #
intcurve-curve $-1 forward { surfintcur full nubs 3 periodic 33 
	0 3 0.471093205022031003 2 0.9421864100440510148 2 1.413279615066080019 2 1.884372820088110023 2 
	2.355465254038219935 2 2.82655768798833984 2 3.297650121938489942 2 3.768742555888609846 2 4.239834989838739965 2 
	4.710927423788859869 2 5.182019857738990432 2 5.653112291689089908 2 6.124205496711099705 2 6.595298701733099733 2 
	7.066391906755099761 2 7.537485111777109559 2 8.008578316799129126 2 8.47967152182117978 2 8.950764726843209118 2 
	9.421857931865220692 2 9.892950365815330827 2 10.3640427997654001 2 10.83513523371549958 2 11.30622766766570031 2 
	11.77732010161579979 2 12.24841253556589926 2 12.71950496951600051 2 13.19059740346609999 2 13.66169060848809913 2 
	14.13278381351010005 2 14.60387701853209919 2 15.0749702235541001 3 
	-1 -1.499999999999985789 29.89565185775349931 
	-1.157031068340700131 -1.499999999999985789 29.89565185775349931 
	-1.319402526302202006 -1.484966405664785327 29.89692209059149874 
	-1.642352847729600995 -1.421664475145476558 29.9021161408005014 
	-1.802934469772601744 -1.373409929907076332 29.90603650376599987 
	-2.110887001331800406 -1.245820241532776151 29.91588851226190116 
	-2.258504549688900909 -1.166383516256978226 29.92181888869459883 
	-2.531477563094600924 -0.9828332544537801141 29.93454251249359999 
	-2.65682581625319969 -0.8787080896795771423 29.94132272853660126 
	-2.878707908094302326 -0.6568259978384816122 29.95442001429950096 
	-2.982833053341199303 -0.5314778283827763516 29.96119564706389937 
	-3.166383397733397942 -0.258504759758480418 29.9739025605629017 
	-3.245820213883398253 -0.1108870711478786575 29.97982092663599829 
	-3.373410009857298775 0.1970657262779198504 29.98964870466830135 
	-3.42166456126009777 0.3576474739751205334 29.99355704423989977 
	-3.484966451844094593 0.6805978269235239964 29.99873435972920177 
	-3.499999999999992895 0.8429691886833197145 30 
	-3.499999999999992895 1.157030811316722918 30 
	-3.484966451844094593 1.319402173076518636 29.99873435972920177 
	-3.421664561260090665 1.642352526024922099 29.99355704423989977 
	-3.373410009857291669 1.802934273722122782 29.98964870466819832 
	-3.245820213883391148 2.11088707114792129 29.97982092663599829 
	-3.166383397733390836 2.258504759758523051 29.9739025605629017 
	-2.982833053341188645 2.531477828382818984 29.96119564706389937 
	-2.878707908094185086 2.656825997838524245 29.95442001429950096 
	-2.656825816253086003 2.878708089679619775 29.94132272853660126 
	-2.531477563094586714 2.982833254453822747 29.93454251249359999 
	-2.258504549688886698 3.166383516257020858 29.92181888869449935 
	-2.110887001331786195 3.245820241532719308 29.91588851226190116 
	-1.802934469772587533 3.373409929907019489 29.90603650376599987 
	-1.642352847729586784 3.421664475145519191 29.9021161408005014 
	-1.319402526302187795 3.484966405664813749 29.89692209059149874 
	-1.15703106834068592 3.500000000000014211 29.89565185775349931 
	-0.8429689316592856585 3.500000000000014211 29.89565185775349931 
	-0.6805974736977873363 3.484966405664813749 29.89692209059149874 
	-0.3576471522703883466 3.421664475145512085 29.9021161408005014 
	-0.1970655302272881215 3.373409929907012383 29.90603650376599987 
	0.1108870013318146164 3.245820241532712203 29.91588851226190116 
	0.2585045496890145955 3.166383516257013753 29.92181888869449935 
	0.5314775630946115825 2.982833254453808536 29.93454251249359999 
	0.6568258162532139011 2.878708089679506088 29.94132272853660126 
	0.8787079080943129838 2.656825997838410558 29.95442001429950096 
	0.9828330533413094372 2.531477828382705297 29.96119564706389937 
	1.166383397733508076 2.25850475975850884 29.9739025605629017 
	1.245820213883408911 2.110887071147907079 29.97982092663599829 
	1.373410009857408909 1.802934273722108571 29.98964870466830135 
	1.421664561260207904 1.642352526024907888 29.99355704423989977 
	1.484966451844105251 1.319402173076504425 29.99873435972930125 
	1.500000000000007105 1.157030811316708707 30 
	1.500000000000007105 0.8429691886832060277 30 
	1.484966451844105251 0.6805978269234103095 29.99873435972920177 
	1.421664561260101323 0.3576474739751063225 29.99355704423989977 
	1.373410009857302327 0.1970657262778061636 29.98964870466830135 
	1.245820213883401806 -0.1108870711479923443 29.97982092663599829 
	1.166383397733401495 -0.2585047597584946288 29.9739025605629017 
	0.9828330533411993031 -0.5314778283827905625 29.96119564706389937 
	0.878707908094298773 -0.6568259978384958231 29.95442001429950096 
	0.6568258162531996902 -0.8787080896795913532 29.94132272853660126 
	0.5314775630945973717 -0.9828332544537943249 29.93454251249359999 
	0.2585045496890003847 -1.166383516257084807 29.92181888869459883 
	0.1108870013318004055 -1.245820241532783257 29.91588851226190116 
	-0.1970655302274018084 -1.373409929907083438 29.90603650376599987 
	-0.3576471522704025574 -1.421664475145483664 29.9021161408005014 
	-0.6805974736978015471 -1.484966405664785327 29.89692209059149874 
	-0.8429689316592998694 -1.499999999999985789 29.89565185775349931 
	-1 -1.499999999999985789 29.89565185775349931 
	0.001000000000000000021 
	cone -0.9999999999999928946 1.000000000000014211 20 0 0 1 2.5 6.310887241768094443e-30 0 1 I I 0 1 2.5 forward I I I I 
	cone -24.99999999999979394 1 0 1 -3.491481338843129805e-15 0 -1.047444401652938997e-13 -30 0 1 I I 0 1 30 forward I I I I 
	nullbs 
	nullbs 
	I I 
	0 
	0 
	0 
	} I I #
face $-1 $51 $52 $2 $-1 $53 forward single #
loop $-1 $-1 $54 $20 #
cone-surface $-1 -0.9999999999999538147 -44.50000000000008527 25 0 1 0 -4.596194077712559611 1.262177448353618889e-29 -4.596194077712559611 1 I I 0 1 6.500000000000000888 forward I I I I #
coedge $-1 $55 $56 $57 $58 forward $21 $-1 #
coedge $-1 $37 $37 $59 $60 reversed $23 $-1 #
coedge $-1 $38 $38 $24 $39 forward $61 $-1 #
edge $-1 $62 1.563194018672218957e-14 $62 6.283185307179602219 $38 $63 forward 7 unknown #
coedge $-1 $40 $40 $25 $41 forward $64 $-1 #
edge $-1 $65 4.263256414560612002e-15 $65 6.283185307179590673 $40 $66 forward 7 unknown #
loop $-1 $61 $26 $67 #
vertex $-1 $27 $68 #
ellipse-curve $-1 10.0000000000000604 43.99999999999997868 0 0 0 1 5 5.364254155502880277e-29 0 1 I I #
loop $-1 $69 $28 $70 #
vertex $-1 $29 $71 #
intcurve-curve $-1 forward { surfintcur full nubs 3 periodic 33 
	0 3 0.4714482361397759891 2 0.942896472279550979 2 1.41434470841932991 2 1.88579294455909996 2 
	2.357236337518399782 2 2.828679730477699827 2 3.300123123436999872 2 3.771566516396270163 2 4.24300990935554978 2 
	4.714453302314829841 2 5.185896695274100132 2 5.657340088233370423 2 6.1287883243731196 2 6.600236560512869666 2 
	7.071684796652609961 2 7.543133032792360027 2 8.014581268932110092 2 8.486029505071870815 2 8.957477741211620881 2 
	9.428925977351379828 2 9.900369370310649231 2 10.37181276326990087 2 10.84325615622920047 2 11.3146995491884006 2 
	11.7861429421477002 2 12.2575863351069998 2 12.72902972806619992 2 13.20047312102549952 2 13.67192135716519985 2 
	14.14336959330490018 2 14.61481782944469998 2 15.08626606558440031 3 
	-1 -1.499999999999985789 18.83480820183740079 
	-0.8428505879534000655 -1.499999999999985789 18.83480820183740079 
	-0.6803924413784017133 -1.48494367146858508 18.83682763843189889 
	-0.3573412021937016902 -1.421587023359187185 18.8450772568983993 
	-0.1967451788645000477 -1.373300901297987764 18.85130170198959831 
	0.1111741644452983735 -1.245677520297881813 18.86693047213049823 
	0.2587461969632975922 -1.166238691348482348 18.8763325473930017 
	0.5316060284526002988 -0.9827291873071928308 18.89648923681960113 
	0.6568873273924999978 -0.8786465785402910456 18.90722318795859991 
	0.8786454394755978115 -0.6568884664571896792 18.92794553038600114 
	0.9827279250289997492 -0.5316076932031919 18.93866130299700146 
	1.166237945323402414 -0.2587475183516900756 18.95875177221629926 
	1.245677354442602081 -0.1111746154348907112 18.96810626102800157 
	1.373301388565604242 0.1967464053317087291 18.98363895086400177 
	1.421587563201700988 0.3573432172413077978 18.98981567996269959 
	1.484943961578807148 0.6803946582128048703 18.9979988347426989 
	1.500000000000007105 0.8428522023469042779 19 
	1.500000000000007105 1.157147797653109933 19 
	1.484943961578807148 1.319605341787209341 18.9979988347426989 
	1.421587563201708093 1.642656782758606937 18.98981567996269959 
	1.373301388565611347 1.803253594668206006 18.98363895086389874 
	1.245677354442609186 2.111174615434904922 18.96810626102800157 
	1.166237945323409519 2.258747518351704286 18.95875177221629926 
	0.9827279250290104073 2.531607693203206111 18.93866130299700146 
	0.8786454394756120223 2.656888466457104414 18.92794553038600114 
	0.6568873273925142087 2.878646578540305256 18.90722318795859991 
	0.5316060284526145097 2.982729187307107566 18.89648923681960113 
	0.2587461969633118031 3.166238691348517875 18.8763325473930017 
	0.1111741644453125843 3.24567752029791734 18.86693047213049823 
	-0.1967451788644858368 3.373300901298016186 18.85130170198959831 
	-0.3573412021936874794 3.421587023359215607 18.8450772568983993 
	-0.6803924413783875025 3.484943671468613502 18.83682763843189889 
	-0.8428505879533858547 3.500000000000014211 18.83480820183740079 
	-1.157149412046585724 3.500000000000014211 18.83480820183740079 
	-1.319607558621488153 3.484943671468613502 18.83682763843189889 
	-1.642658797806188176 3.421587023359222712 18.8450772568983993 
	-1.803254821135485741 3.373300901298023291 18.85130170198959831 
	-2.111174164445287715 3.245677520297924445 18.86693047213049823 
	-2.258746196963286934 3.166238691348524981 18.8763325473930017 
	-2.531606028452586088 2.982729187307121776 18.89648923681960113 
	-2.656887327392485787 2.878646578540319467 18.90722318795859991 
	-2.878645439475587153 2.656888466457118625 18.92794553038600114 
	-2.982727925028989091 2.531607693203220322 18.93866130299700146 
	-3.166237945323288727 2.258747518351718497 18.95875177221629926 
	-3.245677354442591422 2.111174615434919133 18.96810626102800157 
	-3.373301388565490555 1.803253594668220217 18.98363895086389874 
	-3.421587563201590854 1.642656782758621148 18.98981567996269959 
	-3.484943961578792937 1.319605341787223551 18.9979988347426989 
	-3.499999999999992895 1.157147797653124144 19 
	-3.499999999999992895 0.8428522023469184887 19 
	-3.484943961578792937 0.6803946582128190812 18.9979988347426989 
	-3.421587563201597959 0.3573432172413220087 18.98981567996269959 
	-3.37330138856549766 0.19674640533172294 18.98363895086400177 
	-3.245677354442598528 -0.1111746154348765003 18.96810626102800157 
	-3.166237945323295833 -0.2587475183516758648 18.95875177221629926 
	-2.982727925028999749 -0.5316076932031776892 18.93866130299700146 
	-2.878645439475501888 -0.6568884664571754683 18.92794553038600114 
	-2.656887327392400522 -0.8786465785402768347 18.90722318795859991 
	-2.531606028452600299 -0.9827291873071786199 18.89648923681960113 
	-2.258746196963201669 -1.166238691348475243 18.8763325473930017 
	-2.11117416444520245 -1.245677520297874707 18.86693047213049823 
	-1.803254821135499952 -1.373300901297980658 18.85130170198959831 
	-1.642658797806202386 -1.42158702335918008 18.8450772568983993 
	-1.319607558621502363 -1.48494367146858508 18.83682763843189889 
	-1.157149412046599934 -1.499999999999985789 18.83480820183740079 
	-1 -1.499999999999985789 18.83480820183740079 
	0.001000000000000000021 
	cone -0.9999999999999928946 1.000000000000014211 20 0 0 1 2.5 6.310887241768094443e-30 0 1 I I 0 1 2.5 forward I I I I 
	cone -24.99999999999979394 1 0 1 -3.491481338843129805e-15 0 -6.633814543801947064e-14 -19 0 1 I I 0 -1 19 forward I I I I 
	nullbs 
	nullbs 
	I I 
	0 
	0 
	0 
	} I I #
loop $-1 $-1 $72 $49 #
face $-1 $73 $30 $2 $-1 $74 forward single #
point $-1 -1 -1.499999999999985789 29.89565185775349931 #
face $-1 $75 $76 $2 $-1 $77 forward single #
loop $-1 $-1 $78 $33 #
plane-surface $-1 -7.499999999999953815 -44.50000000000005684 29.75 1 0 0 0 0 -1 forward_v I I I I #
coedge $-1 $79 $57 $80 $81 reversed $34 $-1 #
coedge $-1 $82 $36 $83 $84 reversed $21 $-1 #
coedge $-1 $36 $82 $85 $86 reversed $21 $-1 #
coedge $-1 $54 $87 $36 $58 reversed $34 $-1 #
edge $-1 $88 -5.500000000000099476 $89 5.5 $36 $90 forward 7 unknown #
coedge $-1 $59 $59 $37 $60 forward $91 $-1 #
edge $-1 $92 -1.563194018672218957e-14 $92 6.283185307179570245 $59 $93 forward 7 unknown #
loop $-1 $94 $38 $67 #
vertex $-1 $39 $95 #
ellipse-curve $-1 -11.99999999999994493 43.99999999999995737 0 0 0 1 5 5.364254155502880277e-29 0 1 I I #
loop $-1 $91 $40 $96 #
vertex $-1 $41 $97 #
ellipse-curve $-1 10.0000000000000604 43.99999999999997868 10.99999986999059942 0 0 -1 5 5.364254155502880277e-29 0 1 I I #
face $-1 $98 $42 $2 $-1 $99 forward single #
point $-1 15.0000000000000604 43.99999999999995737 0 #
loop $-1 $-1 $100 $70 #
face $-1 $101 $45 $2 $-1 $102 forward single #
point $-1 -1 -1.499999999999985789 18.83480820183740079 #
coedge $-1 $103 $104 $105 $106 reversed $48 $-1 #
face $-1 $107 $108 $2 $-1 $109 forward single #
cone-surface $-1 -24.99999999999979394 1 0 1 -3.491481338843129805e-15 0 -1.047444401652938997e-13 -30 0 1 I I 0 1 30 forward I I I I #
face $-1 $110 $111 $2 $-1 $77 forward single #
loop $-1 $-1 $112 $51 #
plane-surface $-1 -24.99999999999997158 -50 41 0 0 1 -3.491481338843129805e-15 -1 0 forward_v I I I I #
coedge $-1 $113 $114 $79 $115 forward $52 $-1 #
coedge $-1 $87 $54 $78 $115 reversed $34 $-1 #
coedge $-1 $85 $116 $54 $81 forward $117 $-1 #
edge $-1 $118 -0.785398163397448279 $88 2.356194490192344837 $80 $119 forward 7 unknown #
coedge $-1 $56 $55 $112 $120 reversed $21 $-1 #
coedge $-1 $121 $122 $55 $84 forward $123 $-1 #
edge $-1 $124 -26.125 $89 -10.125 $83 $125 forward 7 unknown #
coedge $-1 $126 $80 $56 $86 forward $117 $-1 #
edge $-1 $88 -10.375 $127 5.625 $85 $128 forward 7 unknown #
coedge $-1 $57 $79 $121 $129 reversed $34 $-1 #
vertex $-1 $86 $130 #
vertex $-1 $84 $131 #
straight-curve $-1 5.500000000000046185 -44.50000000000009948 25 0 -1 0 I I #
loop $-1 $132 $59 $96 #
vertex $-1 $60 $133 #
ellipse-curve $-1 -11.99999999999994493 43.99999999999995737 10.99999986999059942 0 0 -1 5 5.364254155502880277e-29 0 1 I I #
loop $-1 $-1 $134 $67 #
point $-1 -6.999999999999943157 44.00000000000003553 0 #
face $-1 $135 $64 $2 $-1 $136 forward single #
point $-1 15.0000000000000604 43.99999999999995737 11 #
face $-1 $137 $138 $2 $-1 $139 forward single #
plane-surface $-1 -24.99999999999959854 57 0 0 -0 -1 3.491481338843129805e-15 1 0 forward_v I I I I #
coedge $-1 $140 $141 $142 $143 forward $69 $-1 #
face $-1 $144 $145 $2 $-1 $146 forward single #
cone-surface $-1 -24.99999999999979394 1 0 1 -3.491481338843129805e-15 0 -6.633814543801947064e-14 -19 0 1 I I 0 -1 19 forward I I I I #
coedge $-1 $147 $72 $148 $149 reversed $48 $-1 #
coedge $-1 $72 $147 $150 $151 forward $48 $-1 #
coedge $-1 $152 $153 $72 $106 forward $154 $-1 #
edge $-1 $155 0 $156 48 $72 $157 forward 7 unknown #
face $-1 $158 $159 $2 $-1 $160 forward single #
loop $-1 $-1 $161 $73 #
cone-surface $-1 -0.9999999999998969713 -28.2403830344269835 13 1 -3.491481338843129805e-15 0 3.804753579818829706e-15 1.089724735885170048 -1.677050983124839911 1 I I 0 -1 1.99999999999999889 forward I I I I #
face $-1 $162 $117 $2 $-1 $163 forward single #
loop $-1 $-1 $164 $75 #
coedge $-1 $165 $166 $82 $120 forward $76 $-1 #
coedge $-1 $167 $78 $116 $168 reversed $52 $-1 #
coedge $-1 $78 $167 $169 $170 reversed $52 $-1 #
edge $-1 $171 -5.5 $118 5.500000000000099476 $78 $172 forward 7 unknown #
coedge $-1 $80 $173 $113 $168 forward $117 $-1 #
loop $-1 $-1 $116 $110 #
vertex $-1 $81 $174 #
ellipse-curve $-1 -0.9999999999999324984 -38.99999999999998579 25 -3.491481338843129805e-15 -1 0 -4.596194077712559611 1.262177448353618889e-29 -4.596194077712559611 1 I I #
edge $-1 $127 -8.250000000000099476 $124 2.75 $112 $175 forward 7 unknown #
coedge $-1 $169 $83 $87 $129 forward $123 $-1 #
coedge $-1 $83 $176 $165 $177 reversed $123 $-1 #
loop $-1 $-1 $169 $144 #
vertex $-1 $120 $178 #
straight-curve $-1 5.500000000000028422 -50.00000000000009948 14.875 0 -0 -1 I I #
coedge $-1 $179 $85 $166 $180 forward $117 $-1 #
vertex $-1 $86 $181 #
straight-curve $-1 5.500000000000067502 -39.00000000000009948 35.375 0 0 1 I I #
edge $-1 $89 -2.356194490192344837 $171 0.785398163397448279 $121 $182 forward 7 unknown #
point $-1 5.500000000000067502 -39 25 #
point $-1 5.500000000000028422 -50.00000000000009948 25 #
loop $-1 $-1 $183 $96 #
point $-1 -6.999999999999943157 44.00000000000003553 11 #
coedge $-1 $184 $185 $186 $187 reversed $94 $-1 #
face $-1 $-1 $188 $2 $-1 $189 forward single #
plane-surface $-1 -24.99999999999969802 28.91057152514450124 10.99999986999059942 0 0 1 -3.491481338843129805e-15 -1 0 forward_v I I I I #
face $-1 $190 $191 $2 $-1 $192 forward single #
loop $-1 $-1 $193 $98 #
plane-surface $-1 23.00000000000027356 19.99999999999982947 0 1 -3.491481338843129805e-15 0 0 0 1 forward_v I I I I #
coedge $-1 $194 $100 $195 $196 reversed $69 $-1 #
coedge $-1 $100 $194 $197 $198 forward $69 $-1 #
coedge $-1 $199 $200 $100 $143 reversed $138 $-1 #
edge $-1 $201 -3.141592653589793116 $202 0 $100 $203 forward 7 unknown #
face $-1 $96 $123 $2 $-1 $204 forward single #
loop $-1 $-1 $205 $101 #
plane-surface $-1 -24.99999999999986144 -18 0 0 -0 -1 3.491481338843129805e-15 1 0 forward_v I I I I #
coedge $-1 $104 $103 $161 $206 reversed $48 $-1 #
coedge $-1 $207 $208 $103 $149 forward $188 $-1 #
edge $-1 $209 0.4183463864434682211 $155 2.723246271592552503 $148 $210 forward 7 unknown #
coedge $-1 $211 $212 $104 $151 reversed $138 $-1 #
edge $-1 $213 0.4183463864434682211 $156 2.723246271592552503 $104 $214 forward 7 unknown #
coedge $-1 $215 $105 $212 $216 forward $154 $-1 #
coedge $-1 $105 $215 $207 $217 forward $154 $-1 #
loop $-1 $-1 $215 $162 #
vertex $-1 $149 $218 #
vertex $-1 $151 $219 #
straight-curve $-1 -24.99999999999969802 28.41285914896360154 12.18749987811619917 1 -3.491481338843129805e-15 0 I I #
face $-1 $67 $220 $2 $-1 $221 forward single #
loop $-1 $-1 $222 $107 #
plane-surface $-1 -24.9999999999999325 -39 11 0 0 1 -3.491481338843129805e-15 -1 0 forward_v I I I I #
coedge $-1 $223 $224 $147 $206 forward $108 $-1 #
face $-1 $49 $154 $2 $-1 $225 forward single #
plane-surface $-1 -24.9999999999999325 -39 41 3.491481338843129805e-15 1 0 0 0 1 forward_v I I I I #
coedge $-1 $226 $227 $167 $228 forward $111 $-1 #
coedge $-1 $229 $112 $122 $177 forward $76 $-1 #
coedge $-1 $112 $229 $126 $180 reversed $76 $-1 #
coedge $-1 $114 $113 $164 $228 reversed $52 $-1 #
edge $-1 $230 -5.625 $118 10.375 $116 $231 forward 7 unknown #
coedge $-1 $232 $121 $114 $170 forward $123 $-1 #
edge $-1 $171 10.125 $233 26.125 $169 $234 forward 7 unknown #
vertex $-1 $129 $235 #
straight-curve $-1 -7.499999999999953815 -44.50000000000005684 25 0 1 0 I I #
coedge $-1 $116 $236 $226 $237 forward $117 $-1 #
point $-1 -7.499999999999932498 -38.99999999999995737 25 #
straight-curve $-1 5.50000000000003908 -47.25000000000009948 41 0 -1 0 I I #
coedge $-1 $122 $238 $239 $240 reversed $123 $-1 #
edge $-1 $124 30.5 $241 42 $165 $242 forward 7 unknown #
point $-1 5.500000000000028422 -50.00000000000009948 41 #
coedge $-1 $243 $126 $244 $245 reversed $117 $-1 #
edge $-1 $127 30.5 $246 42 $126 $247 forward 7 unknown #
point $-1 5.500000000000067502 -39 41 #
ellipse-curve $-1 -0.9999999999999715783 -50.00000000000008527 25 3.491481338843129805e-15 1 -0 -4.596194077712559611 1.262177448353618889e-29 -4.596194077712559611 1 I I #
coedge $-1 $248 $249 $215 $250 reversed $132 $-1 #
coedge $-1 $197 $134 $199 $251 forward $94 $-1 #
coedge $-1 $134 $252 $253 $254 forward $94 $-1 #
coedge $-1 $255 $256 $134 $187 forward $220 $-1 #
edge $-1 $257 -0.7853981633974486121 $258 0.785398163397448501 $134 $259 forward 7 unknown #
loop $-1 $-1 $260 $135 #
plane-surface $-1 -24.99999999999981526 -4.83333332829349871 14.58333332249920034 -1 3.491481338843129805e-15 0 0 -0 -1 forward_v I I I I #
face $-1 $261 $262 $2 $-1 $263 forward single #
loop $-1 $-1 $264 $137 #
cone-surface $-1 -11.99999999999964473 43.99999999999995737 5.5 0 0 -1 -9.192388155425087248 9.192388155425151197 0 1 I I 0 1 13.00000000000000178 forward I I I I #
coedge $-1 $265 $199 $256 $266 reversed $138 $-1 #
coedge $-1 $141 $140 $267 $268 forward $69 $-1 #
coedge $-1 $205 $269 $140 $196 forward $145 $-1 #
edge $-1 $270 0 $202 48 $195 $271 forward 7 unknown #
coedge $-1 $272 $184 $141 $198 reversed $94 $-1 #
edge $-1 $273 0 $201 48 $141 $274 forward 7 unknown #
coedge $-1 $193 $142 $184 $251 reversed $138 $-1 #
coedge $-1 $142 $275 $205 $276 reversed $138 $-1 #
vertex $-1 $198 $277 #
vertex $-1 $196 $278 #
ellipse-curve $-1 23.0000000000002025 0.9999999999998294697 0 1 -3.491481338843129805e-15 0 -6.633814543801947064e-14 -19 0 1 I I #
plane-surface $-1 -24.99999999999997158 -50 0 -3.491481338843129805e-15 -1 0 0 -0 -1 forward_v I I I I #
coedge $-1 $279 $195 $200 $276 forward $145 $-1 #
edge $-1 $213 -48 $209 0 $147 $280 forward 7 unknown #
coedge $-1 $281 $148 $153 $217 reversed $188 $-1 #
coedge $-1 $148 $282 $223 $283 reversed $188 $-1 #
vertex $-1 $149 $284 #
ellipse-curve $-1 -24.99999999999979394 1 0 -1 3.491481338843129805e-15 0 -1.047444401652938997e-13 -30 0 1 I I #
coedge $-1 $285 $150 $224 $286 reversed $138 $-1 #
coedge $-1 $150 $265 $152 $216 reversed $138 $-1 #
vertex $-1 $286 $287 #
ellipse-curve $-1 23.0000000000002025 0.9999999999998294697 0 -1 3.491481338843129805e-15 0 -1.047444401652938997e-13 -30 0 1 I I #
coedge $-1 $153 $152 $183 $250 forward $154 $-1 #
edge $-1 $156 -0.5762249723988471795 $288 0.5762249723988265293 $152 $289 forward 7 unknown #
edge $-1 $290 -0.5762249723988265293 $155 0.5762249723988471795 $153 $291 forward 7 unknown #
point $-1 -24.99999999999969802 28.41285914896360154 12.18749987811619917 #
point $-1 23.00000000000030198 28.41285914896343456 12.18749987811619917 #
loop $-1 $-1 $186 $158 #
cone-surface $-1 10.00000000000035882 43.99999999999987921 5.5 0 -0 -1 9.192388155425151197 9.192388155425087248 0 1 I I 0 1 13.00000000000000178 forward I I I I #
coedge $-1 $292 $293 $294 $295 reversed $159 $-1 #
coedge $-1 $294 $161 $208 $283 forward $108 $-1 #
coedge $-1 $161 $294 $211 $286 forward $108 $-1 #
cone-surface $-1 -0.9999999999996909139 30.24038309222781606 12.99999986999059942 1 -3.491481338843129805e-15 0 -3.804753592836014407e-15 -1.089724739613439963 -1.677050980702259997 1 I I 0 -1 1.999999999999998002 forward I I I I #
coedge $-1 $296 $164 $173 $237 reversed $111 $-1 #
coedge $-1 $164 $296 $232 $297 forward $111 $-1 #
edge $-1 $233 -2.75 $230 8.250000000000099476 $164 $298 forward 7 unknown #
coedge $-1 $166 $165 $299 $300 reversed $76 $-1 #
vertex $-1 $237 $301 #
straight-curve $-1 -7.499999999999932498 -39.00000000000005684 35.375 0 -0 -1 I I #
coedge $-1 $302 $169 $227 $297 reversed $123 $-1 #
vertex $-1 $297 $303 #
straight-curve $-1 -7.499999999999971578 -50.00000000000005684 14.875 0 0 1 I I #
point $-1 -7.499999999999971578 -50.00000000000005684 25 #
coedge $-1 $173 $304 $305 $306 reversed $117 $-1 #
edge $-1 $307 6 $230 17.5 $173 $247 forward 7 unknown #
coedge $-1 $176 $308 $275 $309 forward $123 $-1 #
coedge $-1 $310 $299 $176 $240 forward $311 $-1 #
edge $-1 $241 -0.785398163397448279 $312 0.785398163397448279 $176 $313 forward 7 unknown #
vertex $-1 $177 $314 #
straight-curve $-1 -24.99999999999997158 -50 41 1 -3.491481338843129805e-15 0 I I #
coedge $-1 $315 $179 $316 $317 forward $117 $-1 #
coedge $-1 $299 $310 $179 $245 forward $311 $-1 #
edge $-1 $318 -0.785398163397448279 $246 0.785398163397448279 $179 $319 forward 7 unknown #
vertex $-1 $180 $320 #
straight-curve $-1 -24.9999999999999325 -39 41 1 -3.491481338843129805e-15 0 I I #
coedge $-1 $321 $183 $265 $322 forward $132 $-1 #
coedge $-1 $183 $323 $281 $324 reversed $132 $-1 #
edge $-1 $288 -48 $290 0 $183 $325 forward 7 unknown #
edge $-1 $257 13 $201 37 $184 $326 forward 7 unknown #
coedge $-1 $185 $272 $264 $327 reversed $94 $-1 #
coedge $-1 $328 $329 $185 $254 reversed $262 $-1 #
edge $-1 $330 13 $258 35 $185 $331 forward 7 unknown #
coedge $-1 $332 $186 $329 $333 forward $220 $-1 #
coedge $-1 $186 $332 $193 $266 forward $220 $-1 #
vertex $-1 $266 $334 #
vertex $-1 $254 $335 #
ellipse-curve $-1 10.00000000000035882 43.99999999999987921 0 0 0 1 9.192388155425151197 9.192388155425087248 0 1 I I #
coedge $-1 $336 $281 $337 $338 reversed $188 $-1 #
face $-1 $339 $311 $2 $-1 $340 forward single #
loop $-1 $-1 $329 $190 #
plane-surface $-1 -24.99999999999959854 57 11 3.491481338843129805e-15 1 0 0 0 1 forward_v I I I I #
coedge $-1 $337 $341 $252 $327 forward $191 $-1 #
coedge $-1 $212 $193 $248 $322 reversed $138 $-1 #
edge $-1 $342 0 $257 11 $193 $343 forward 7 unknown #
coedge $-1 $344 $336 $194 $268 reversed $188 $-1 #
edge $-1 $270 0 $273 3.141592653589793116 $267 $345 forward 7 unknown #
coedge $-1 $195 $279 $344 $346 reversed $145 $-1 #
vertex $-1 $268 $347 #
straight-curve $-1 -24.99999999999986144 -18 0 1 -3.491481338843129805e-15 0 I I #
coedge $-1 $252 $197 $336 $348 reversed $94 $-1 #
vertex $-1 $348 $349 #
straight-curve $-1 -24.99999999999972644 20 0 1 -3.491481338843129805e-15 0 I I #
coedge $-1 $200 $350 $238 $309 reversed $138 $-1 #
edge $-1 $202 0 $351 32 $205 $352 forward 7 unknown #
point $-1 23.00000000000027356 19.99999999999982947 0 #
point $-1 23.00000000000013856 -18.00000000000017053 0 #
coedge $-1 $269 $205 $308 $353 reversed $145 $-1 #
straight-curve $-1 -24.99999999999988987 -26.41285909477520022 12.1875 -1 3.491481338843129805e-15 -0 I I #
coedge $-1 $260 $207 $249 $324 forward $188 $-1 #
coedge $-1 $208 $354 $292 $355 forward $188 $-1 #
edge $-1 $209 -0.5762249701757163889 $356 0.5762249701757156117 $223 $357 forward 7 unknown #
point $-1 -24.99999999999988987 -26.41285909477520022 12.1875 #
coedge $-1 $316 $211 $293 $358 reversed $138 $-1 #
edge $-1 $359 -0.5762249701757156117 $213 0.5762249701757163889 $224 $360 forward 7 unknown #
point $-1 23.00000000000011013 -26.41285909477537075 12.1875 #
vertex $-1 $216 $361 #
ellipse-curve $-1 23.00000000000030909 30.24038309222773435 12.99999986999059942 1 -3.491481338843129805e-15 0 -3.804753592836014407e-15 -1.089724739613439963 -1.677050980702259997 1 I I #
vertex $-1 $324 $362 #
ellipse-curve $-1 -24.99999999999969091 30.24038309222790133 12.99999986999059942 -1 3.491481338843129805e-15 0 -3.804753592836014407e-15 -1.089724739613439963 -1.677050980702259997 1 I I #
coedge $-1 $363 $222 $282 $355 reversed $159 $-1 #
coedge $-1 $222 $363 $285 $358 forward $159 $-1 #
coedge $-1 $224 $223 $222 $295 forward $108 $-1 #
edge $-1 $356 0 $359 48 $222 $364 forward 7 unknown #
coedge $-1 $227 $226 $365 $366 reversed $111 $-1 #
edge $-1 $367 6 $233 17.5 $227 $242 forward 7 unknown #
straight-curve $-1 -7.49999999999996092 -47.25000000000005684 41 0 1 0 I I #
coedge $-1 $239 $244 $229 $300 forward $311 $-1 #
edge $-1 $246 -11 $241 0 $229 $368 forward 7 unknown #
point $-1 -7.499999999999932498 -38.99999999999995737 41 #
coedge $-1 $369 $232 $370 $371 reversed $123 $-1 #
point $-1 -7.499999999999971578 -50.00000000000005684 41 #
coedge $-1 $236 $315 $354 $372 reversed $117 $-1 #
coedge $-1 $373 $365 $236 $306 forward $374 $-1 #
edge $-1 $307 -0.785398163397448279 $375 0.785398163397448279 $236 $376 forward 7 unknown #
vertex $-1 $366 $377 #
coedge $-1 $238 $369 $279 $353 forward $123 $-1 #
edge $-1 $351 0 $312 35 $238 $378 forward 7 unknown #
coedge $-1 $244 $239 $350 $379 forward $311 $-1 #
loop $-1 $-1 $244 $261 #
vertex $-1 $309 $380 #
ellipse-curve $-1 17.00000000000002487 -50.00000000000014211 35 3.491481338843129805e-15 1 -0 4.242640687119290099 -1.481310078649359601e-14 4.242640687119290099 1 I I #
point $-1 17.00000000000002487 -50.00000000000014211 41 #
coedge $-1 $304 $243 $363 $381 reversed $117 $-1 #
coedge $-1 $350 $285 $243 $317 reversed $138 $-1 #
edge $-1 $318 6 $382 30 $243 $383 forward 7 unknown #
vertex $-1 $379 $384 #
ellipse-curve $-1 17.0000000000000675 -39.00000000000014211 35 -3.491481338843129805e-15 -1 0 4.242640687119290099 -1.481310078649359601e-14 4.242640687119290099 1 I I #
point $-1 17.0000000000000675 -39.00000000000014211 41 #
coedge $-1 $385 $248 $332 $386 reversed $132 $-1 #
edge $-1 $288 1.329811567082902712 $342 15.08942847485499783 $248 $387 forward 7 unknown #
coedge $-1 $249 $385 $388 $389 reversed $132 $-1 #
edge $-1 $290 1.329811567082902712 $390 15.08942847485500138 $281 $391 forward 7 unknown #
straight-curve $-1 -24.99999999999969091 30.24038309222790133 10.99999986999059942 -1 3.491481338843129805e-15 -0 I I #
straight-curve $-1 23.00000000000040146 56.99999999999982947 0 -3.491481338843129805e-15 -1 0 I I #
edge $-1 $330 -0.78539816339744839 $392 0.785398163397448501 $252 $393 forward 7 unknown #
coedge $-1 $394 $253 $341 $395 reversed $262 $-1 #
coedge $-1 $253 $394 $255 $333 reversed $262 $-1 #
vertex $-1 $395 $396 #
straight-curve $-1 -24.99999999999959854 57 0 1 -3.491481338843129805e-15 0 I I #
coedge $-1 $256 $255 $321 $386 forward $220 $-1 #
edge $-1 $258 -11 $397 0 $329 $398 forward 7 unknown #
point $-1 23.00000000000035882 43.99999999999982947 0 #
point $-1 10.00000000000040146 56.99999999999987921 0 #
coedge $-1 $267 $260 $272 $348 forward $188 $-1 #
coedge $-1 $388 $264 $260 $338 forward $191 $-1 #
edge $-1 $392 -11 $390 0 $260 $399 forward 7 unknown #
face $-1 $70 $374 $2 $-1 $400 forward single #
cone-surface $-1 17.00000000000004619 -44.50000000000014211 35 3.491481338843129805e-15 1 0 4.242640687119290099 -1.481310078649359601e-14 4.242640687119290099 1 I I 0 1 6.000000000000007105 forward I I I I #
coedge $-1 $264 $388 $328 $395 forward $191 $-1 #
vertex $-1 $322 $401 #
straight-curve $-1 23.00000000000035882 43.99999999999982947 11 0 -0 -1 I I #
coedge $-1 $402 $267 $269 $346 forward $188 $-1 #
ellipse-curve $-1 -24.99999999999979394 1 0 -1 3.491481338843129805e-15 0 -6.633814543801947064e-14 -19 0 1 I I #
edge $-1 $270 0 $403 32 $344 $404 forward 7 unknown #
point $-1 -24.99999999999986144 -18 0 #
edge $-1 $392 13 $273 37 $336 $405 forward 7 unknown #
point $-1 -24.99999999999972644 20 0 #
coedge $-1 $275 $316 $310 $379 reversed $138 $-1 #
vertex $-1 $353 $406 #
straight-curve $-1 23.00000000000013856 -18.00000000000017053 0 -3.491481338843129805e-15 -1 0 I I #
edge $-1 $403 0 $351 48 $308 $407 forward 7 unknown #
coedge $-1 $282 $408 $304 $372 forward $188 $-1 #
edge $-1 $409 0 $356 10.75961696557310177 $282 $410 forward 7 unknown #
vertex $-1 $355 $411 #
ellipse-curve $-1 -24.99999999999989697 -28.24038303442689823 13 -1 3.491481338843129805e-15 0 3.804753579818829706e-15 1.089724735885170048 -1.677050983124839911 1 I I #
edge $-1 $382 0 $359 10.75961696557310177 $293 $412 forward 7 unknown #
vertex $-1 $358 $413 #
ellipse-curve $-1 23.00000000000010303 -28.24038303442706876 13 1 -3.491481338843129805e-15 0 3.804753579818829706e-15 1.089724735885170048 -1.677050983124839911 1 I I #
point $-1 23.00000000000030909 30.24038309222773435 11 #
point $-1 -24.99999999999969091 30.24038309222790133 11 #
coedge $-1 $293 $292 $315 $381 forward $159 $-1 #
straight-curve $-1 -24.99999999999989697 -28.24038303442689823 11 1 -3.491481338843129805e-15 0 I I #
coedge $-1 $305 $370 $296 $366 forward $374 $-1 #
edge $-1 $367 0 $307 11 $296 $414 forward 7 unknown #
vertex $-1 $366 $415 #
straight-curve $-1 17.00000000000002487 -50.00000000000014211 41 -3.491481338843129805e-15 -1 0 I I #
coedge $-1 $308 $302 $402 $416 reversed $123 $-1 #
coedge $-1 $365 $373 $302 $371 forward $374 $-1 #
edge $-1 $417 -0.785398163397448279 $367 0.785398163397448279 $302 $418 forward 7 unknown #
edge $-1 $375 6 $409 30 $354 $419 forward 7 unknown #
coedge $-1 $370 $305 $408 $420 forward $374 $-1 #
loop $-1 $-1 $305 $339 #
vertex $-1 $306 $421 #
ellipse-curve $-1 -18.9999999999999325 -39.00000000000001421 35 -3.491481338843129805e-15 -1 0 -4.242640687119290099 1.481310078649359601e-14 4.242640687119290099 1 I I #
point $-1 -18.9999999999999325 -39.00000000000001421 41 #
straight-curve $-1 23.00000000000002487 -50.00000000000017053 0 0 0 1 I I #
edge $-1 $312 0 $318 11 $350 $422 forward 7 unknown #
point $-1 23.00000000000002487 -50.00000000000017053 35 #
edge $-1 $409 0 $382 48 $363 $423 forward 7 unknown #
vertex $-1 $381 $424 #
straight-curve $-1 23.0000000000000675 -39.00000000000017053 41 0 -0 -1 I I #
point $-1 23.0000000000000675 -39.00000000000017053 35 #
coedge $-1 $323 $321 $394 $425 reversed $132 $-1 #
edge $-1 $397 -0.785398163397448501 $342 0.7853981633974486121 $321 $426 forward 7 unknown #
straight-curve $-1 23.00000000000030198 28.91057152514483164 11 3.491481338843129805e-15 1 0 I I #
coedge $-1 $341 $337 $323 $389 forward $191 $-1 #
edge $-1 $390 -0.785398163397448501 $427 0.78539816339744839 $323 $428 forward 7 unknown #
vertex $-1 $324 $429 #
straight-curve $-1 -24.99999999999969802 28.91057152514499862 11 3.491481338843129805e-15 1 0 I I #
vertex $-1 $327 $430 #
ellipse-curve $-1 -11.99999999999964473 43.99999999999995737 0 0 0 1 -9.192388155425087248 9.192388155425151197 0 1 I I #
coedge $-1 $329 $328 $385 $425 forward $262 $-1 #
edge $-1 $427 0 $330 11 $328 $431 forward 7 unknown #
point $-1 -11.99999999999959854 56.99999999999995737 0 #
vertex $-1 $425 $432 #
straight-curve $-1 10.00000000000040146 56.99999999999987921 11 0 0 1 I I #
straight-curve $-1 -24.99999999999964473 44 11 0 0 1 I I #
cone-surface $-1 -18.99999999999995381 -44.50000000000001421 35 3.491481338843129805e-15 1 0 -4.242640687119290099 1.481310078649359601e-14 4.242640687119290099 1 I I 0 1 6.000000000000007105 forward I I I I #
point $-1 23.00000000000035882 43.99999999999982947 11 #
coedge $-1 $408 $344 $369 $416 forward $188 $-1 #
vertex $-1 $346 $433 #
straight-curve $-1 -24.99999999999986144 -18 0 -3.491481338843129805e-15 -1 0 I I #
straight-curve $-1 -24.99999999999959854 57 0 -3.491481338843129805e-15 -1 0 I I #
point $-1 23.00000000000002487 -50.00000000000017053 0 #
straight-curve $-1 -24.99999999999997158 -50 0 1 -3.491481338843129805e-15 0 I I #
coedge $-1 $354 $402 $373 $420 reversed $188 $-1 #
vertex $-1 $372 $434 #
straight-curve $-1 -24.9999999999999325 -39 11 3.491481338843129805e-15 1 0 I I #
point $-1 -24.99999999999989697 -28.24038303442689823 11 #
straight-curve $-1 23.0000000000000675 -39.00000000000017053 11 3.491481338843129805e-15 1 0 I I #
point $-1 23.00000000000010303 -28.24038303442706876 11 #
straight-curve $-1 -18.99999999999997158 -50.00000000000001421 41 3.491481338843129805e-15 1 0 I I #
point $-1 -18.99999999999997158 -50.00000000000001421 41 #
edge $-1 $403 0 $417 35 $402 $435 forward 7 unknown #
vertex $-1 $416 $436 #
ellipse-curve $-1 -18.99999999999997158 -50.00000000000001421 35 3.491481338843129805e-15 1 -0 -4.242640687119290099 1.481310078649359601e-14 4.242640687119290099 1 I I #
straight-curve $-1 -24.9999999999999325 -39 41 0 -0 -1 I I #
edge $-1 $375 -11 $417 0 $408 $437 forward 7 unknown #
point $-1 -24.9999999999999325 -39 35 #
straight-curve $-1 23.00000000000002487 -50.00000000000017053 35 3.491481338843129805e-15 1 0 I I #
straight-curve $-1 -24.9999999999999325 -39 11 1 -3.491481338843129805e-15 0 I I #
point $-1 23.0000000000000675 -39.00000000000017053 11 #
edge $-1 $427 13 $397 35 $394 $438 forward 7 unknown #
ellipse-curve $-1 10.00000000000035882 43.99999999999987921 10.99999986999059942 0 0 -1 9.192388155425151197 9.192388155425087248 0 1 I I #
vertex $-1 $395 $439 #
ellipse-curve $-1 -11.99999999999964473 43.99999999999995737 10.99999986999059942 0 0 -1 -9.192388155425087248 9.192388155425151197 0 1 I I #
point $-1 -24.99999999999964473 44 11 #
point $-1 -24.99999999999964473 44 0 #
straight-curve $-1 -11.99999999999959854 56.99999999999995737 11 0 -0 -1 I I #
point $-1 10.00000000000040146 56.99999999999987921 11 #
point $-1 -24.99999999999997158 -50 0 #
point $-1 -24.9999999999999325 -39 11 #
straight-curve $-1 -24.99999999999997158 -50 0 0 0 1 I I #
point $-1 -24.99999999999997158 -50 35 #
straight-curve $-1 -24.99999999999997158 -50 35 -3.491481338843129805e-15 -1 0 I I #
straight-curve $-1 -24.99999999999959854 57 11 1 -3.491481338843129805e-15 0 I I #
point $-1 -11.99999999999959854 56.99999999999995737 11 #
End-of-ACIS-data 