106 0 1 0           
body $-1 $1 $-1 $2 #
lump $-1 $-1 $3 $0 #
transform $-1 1 0 0 0 1 0 0 0 1 10 -50 0 1 0 0 0 #
shell $-1 $-1 $-1 $4 $1 #
face $-1 $5 $6 $3 $-1 $7 forward single #
face $-1 $8 $9 $3 $-1 $10 reversed single #
loop $-1 $11 $12 $4 #
plane-surface $-1 90 150 37.5 0 0 1 1 0 0 0 I I I I #
face $-1 $13 $14 $3 $-1 $15 reversed single #
loop $-1 $-1 $16 $5 #
plane-surface $-1 90 150 12.5 0 0 1 1 0 0 0 I I I I #
loop $-1 $-1 $17 $4 #
coedge $-1 $18 $19 $20 $21 0 $6 $-1 #
face $-1 $22 $23 $3 $-1 $24 reversed single #
loop $-1 $-1 $25 $8 #
plane-surface $-1 90 75 25 0 1 0 0 0 1 0 I I I I #
coedge $-1 $26 $27 $28 $29 0 $9 $-1 #
coedge $-1 $30 $31 $32 $33 1 $11 $-1 #
coedge $-1 $34 $12 $35 $36 0 $6 $-1 #
coedge $-1 $12 $34 $37 $38 0 $6 $-1 #
coedge $-1 $39 $40 $12 $21 1 $41 $-1 #
edge $-1 $42 $43 $20 $44 0 #
face $-1 $45 $46 $3 $-1 $47 reversed single #
loop $-1 $-1 $48 $13 #
plane-surface $-1 -10 150 25 1 0 0 0 0 -1 0 I I I I #
coedge $-1 $49 $37 $50 $51 0 $14 $-1 #
coedge $-1 $52 $16 $49 $53 0 $9 $-1 #
coedge $-1 $16 $52 $54 $55 0 $9 $-1 #
coedge $-1 $40 $39 $16 $29 1 $41 $-1 #
edge $-1 $56 $57 $28 $58 0 #
coedge $-1 $59 $17 $60 $61 1 $11 $-1 #
coedge $-1 $17 $62 $63 $64 1 $11 $-1 #
coedge $-1 $65 $66 $17 $33 0 $67 $-1 #
edge $-1 $68 $69 $32 $70 0 #
coedge $-1 $19 $18 $71 $72 0 $6 $-1 #
coedge $-1 $73 $74 $18 $36 1 $46 $-1 #
edge $-1 $43 $75 $35 $76 0 #
coedge $-1 $25 $77 $19 $38 1 $14 $-1 #
edge $-1 $78 $42 $37 $79 0 #
coedge $-1 $28 $20 $77 $80 0 $41 $-1 #
coedge $-1 $20 $28 $73 $81 1 $41 $-1 #
loop $-1 $-1 $39 $45 #
vertex $-1 $21 $82 #
vertex $-1 $21 $83 #
straight-curve $-1 190 150 37.5 0 1 0 I I #
face $-1 $84 $41 $3 $-1 $85 reversed single #
loop $-1 $-1 $73 $22 #
plane-surface $-1 90 225 25 0 -1 0 0 0 -1 0 I I I I #
coedge $-1 $86 $71 $74 $87 0 $23 $-1 #
coedge $-1 $77 $25 $26 $53 1 $14 $-1 #
coedge $-1 $71 $86 $25 $51 1 $23 $-1 #
edge $-1 $78 $88 $50 $89 0 #
coedge $-1 $27 $26 $86 $90 0 $9 $-1 #
edge $-1 $57 $88 $49 $91 0 #
coedge $-1 $74 $73 $27 $55 1 $46 $-1 #
edge $-1 $92 $56 $54 $93 0 #
vertex $-1 $29 $94 #
vertex $-1 $80 $95 #
straight-curve $-1 190 150 12.5 0 -1 0 I I #
coedge $-1 $96 $30 $97 $98 1 $11 $-1 #
coedge $-1 $99 $100 $30 $61 0 $101 $-1 #
edge $-1 $102 $68 $60 $103 0 #
coedge $-1 $31 $104 $105 $106 1 $11 $-1 #
coedge $-1 $107 $108 $31 $64 0 $109 $110 #
edge $-1 $69 $111 $63 $112 0 #
coedge $-1 $113 $32 $108 $114 1 $67 $-1 #
coedge $-1 $32 $113 $99 $115 0 $67 $-1 #
loop $-1 $-1 $32 $116 #
vertex $-1 $33 $117 #
vertex $-1 $33 $118 #
straight-curve $-1 116.875 117.5 37.5 1 0 -0 I I #
coedge $-1 $48 $50 $34 $72 1 $23 $-1 #
edge $-1 $75 $78 $71 $119 0 #
coedge $-1 $54 $35 $40 $81 0 $46 $-1 #
coedge $-1 $35 $54 $48 $87 1 $46 $-1 #
vertex $-1 $36 $120 #
straight-curve $-1 90 225 37.5 -1 0 0 I I #
coedge $-1 $37 $49 $39 $80 1 $14 $-1 #
vertex $-1 $72 $121 #
straight-curve $-1 90 75 37.5 1 0 0 I I #
edge $-1 $42 $57 $39 $122 0 #
edge $-1 $43 $56 $40 $123 0 #
point $-1 190 75 37.5 #
point $-1 190 225 37.5 #
face $-1 $124 $125 $3 $-1 $126 forward single #
plane-surface $-1 190 150 25 -1 0 0 0 0 1 0 I I I I #
coedge $-1 $50 $48 $52 $90 1 $23 $-1 #
edge $-1 $75 $92 $74 $127 0 #
vertex $-1 $90 $128 #
straight-curve $-1 -10 75 25 0 0 -1 I I #
edge $-1 $88 $92 $86 $129 0 #
straight-curve $-1 90 75 12.5 -1 0 0 I I #
vertex $-1 $55 $130 #
straight-curve $-1 90 225 12.5 1 0 0 I I #
point $-1 190 225 12.5 #
point $-1 190 75 12.5 #
coedge $-1 $131 $59 $132 $133 1 $11 $-1 #
coedge $-1 $134 $135 $59 $98 0 $136 $-1 #
edge $-1 $137 $102 $97 $138 0 #
coedge $-1 $139 $60 $66 $115 1 $101 $-1 #
coedge $-1 $60 $139 $134 $140 0 $101 $-1 #
loop $-1 $-1 $60 $141 #
vertex $-1 $61 $142 #
ellipse-curve $-1 102.5 117.5 37.5 -0 -0 -1 41.25 0 0 1 I I #
coedge $-1 $62 $143 $144 $145 1 $11 $-1 #
coedge $-1 $146 $147 $62 $106 0 $148 $-1 #
edge $-1 $111 $149 $105 $150 0 #
coedge $-1 $151 $63 $147 $152 1 $109 $153 #
coedge $-1 $63 $151 $65 $114 0 $109 $154 #
loop $-1 $-1 $63 $155 #
pcurve $-1 2 $112 0 0 #
vertex $-1 $64 $156 #
intcurve-curve $-1 0 { surfintcur nubs 3 open 7 
	-50.11631811008543025 3 -44.61688159667659903 2 -39.13607610091776934 2 -28.16026868644568282 2 -12.26737782494849327 2 
	-5.444898832736853933 2 -0 3 
	177.5 117.5 37.5 
	176.2315686092863984 120.0368627814272031 37.5 
	174.9264515468123875 122.5134059189858959 37.5 
	172.4920220340738979 127.6586727694035943 37.5 
	171.3825114946147607 130.2830667447183828 37.5 
	168.4577140519565148 138.2970756923059241 37.5 
	167.0403915941322452 143.8476371695818443 37.5 
	165.5138846218282254 157.6923791035702322 37.5 
	166.375860091952859 165.5514379726872676 37.5 
	169.1736616150817554 175.4486915569975167 37.5 
	170.1979487681373087 178.1642589302374802 37.5 
	171.887729532660245 181.887550254504049 37.5 
	172.7432378496847889 183.4898567745271691 37.5 
	173.75 185 37.5 
	0.0006075698899258514044 
	plane 90 150 37.5 0 0 1 1 0 0 0 I I I I 
	spline 0 { sumsur intcurve 1 { exactcur nubs 3 open 5 
	0 3 8.385254915624210881 1 35.68566700042615736 1 62.2021712949216905 1 70.58742621054589961 3 
	177.5 117.5 150 
	176.25 120 150 
	170.7191201947406114 130.5092170409907908 149.9999999999999716 
	164.2114832369593955 150.758945190292053 150 
	167.2280861379912835 172.0680072900167943 150 
	172.1995658176348911 182.6743487264523367 150 
	173.75 185 150 
	0 
	null_surface 
	null_surface 
	nullbs 
	nullbs 
	} I I 
	straight 8.75 143.75 150 0 0 -1 I I 
	8.75 143.75 150 
	F -70.58742621054589961 F -0 F 70.26134046812583733 F 125 } I I I I 
	nullbs 
	nubs 3 open 7 
	-50.11631811008543025 3 -44.61688159667659903 3 -39.13607610091776934 3 -28.16026868644568282 3 -12.26737782494849327 3 
	-5.444898832736853933 3 -0 3 
	0 112.5 
	-2.836235533837271117 112.5 
	-5.634254654858205313 112.5000000000000142 
	-8.485079645295385831 112.5 
	-11.31276461463950334 112.4999999999999858 
	-14.14247512714581667 112.5 
	-16.97015929059077877 112.5 
	-22.64144677287718466 112.5 
	-28.26902772442532452 112.5 
	-33.94031858118155753 112.5 
	-42.16182758689807031 112.5 
	-49.76369727500582485 112.5 
	-56.94458499598366785 112.5 
	-60.01713592869645453 112.5 
	-62.88873184513486336 112.5 
	-65.15053113853443278 112.5 
	-66.9662791025475741 112.5 
	-68.77153197557602482 112.5 
	-70.58742621054589961 112.5 
	
	} I I #
coedge $-1 $66 $65 $157 $158 0 $67 $-1 #
edge $-1 $159 $69 $108 $160 0 #
edge $-1 $161 $68 $66 $162 0 #
face $-1 $155 $67 $3 $-1 $163 forward single #
point $-1 143.75 117.5 37.5 #
point $-1 177.5 117.5 37.5 #
straight-curve $-1 -10 150 37.5 0 -1 0 I I #
point $-1 -10 225 37.5 #
point $-1 -10 75 37.5 #
straight-curve $-1 190 75 25 0 0 -1 I I #
straight-curve $-1 190 225 25 0 0 -1 I I #
face $-1 $164 $165 $3 $-1 $166 forward single #
loop $-1 $-1 $167 $84 #
plane-surface $-1 8.75 143.75 150 0 -1 0 0 0 -1 0 I I I I #
straight-curve $-1 -10 225 25 0 0 -1 I I #
point $-1 -10 75 12.5 #
straight-curve $-1 -10 150 12.5 0 1 0 I I #
point $-1 -10 225 12.5 #
coedge $-1 $143 $96 $167 $168 1 $11 $-1 #
coedge $-1 $169 $170 $96 $133 0 $165 $-1 #
edge $-1 $171 $137 $132 $172 0 #
coedge $-1 $173 $97 $100 $140 1 $136 $-1 #
coedge $-1 $97 $173 $169 $174 0 $136 $-1 #
loop $-1 $-1 $97 $164 #
vertex $-1 $98 $175 #
straight-curve $-1 55.12376237623762165 118.1126237623762307 37.5 0.995037190209989153 -0.0995037190209989153 0 I I #
coedge $-1 $100 $99 $176 $177 0 $101 $-1 #
edge $-1 $178 $102 $100 $179 0 #
face $-1 $116 $101 $3 $-1 $180 forward single #
point $-1 61.25 117.5 37.5 #
coedge $-1 $104 $131 $181 $182 1 $11 $-1 #
coedge $-1 $183 $184 $104 $145 0 $185 $186 #
edge $-1 $149 $187 $144 $188 0 #
coedge $-1 $189 $105 $184 $190 1 $148 $-1 #
coedge $-1 $105 $189 $107 $152 0 $148 $-1 #
loop $-1 $-1 $105 $191 #
vertex $-1 $106 $192 #
straight-curve $-1 172.375 187.75 37.5 -0.4472135954999579832 0.8944271909999159664 0 I I #
coedge $-1 $108 $107 $193 $194 0 $109 $195 #
edge $-1 $196 $111 $147 $197 0 #
pcurve $-1 0 1 { exppc nubs 1 open 2 
	0 1 125 1 
	-70.58742621054589961 0 
	-70.58742621054589961 125 
	0 
	spline 0 { sumsur intcurve 1 { ref 2 } I I 
	straight 8.75 143.75 150 0 0 -1 I I 
	8.75 143.75 150 
	F -70.58742621054589961 F -0 F 0 F 125 } I I I I 
	} 0 0 #
pcurve $-1 0 0 { exppc nubs 1 open 2 
	0 1 125 1 
	-0 0 
	-0 125 
	0 
	spline 0 { ref 4 } I I I I 
	} 0 0 #
face $-1 $191 $109 $3 $-1 $198 forward single #
point $-1 173.75 185 37.5 #
coedge $-1 $193 $176 $113 $158 1 $199 $200 #
edge $-1 $159 $161 $157 $201 0 #
vertex $-1 $158 $202 #
straight-curve $-1 177.5 117.5 150 0 0 -1 I I #
vertex $-1 $177 $203 #
straight-curve $-1 143.75 117.5 150 0 0 -1 I I #
plane-surface $-1 143.75 117.5 150 0 -1 0 0 0 -1 0 I I I I #
face $-1 $141 $136 $3 $-1 $204 forward single #
loop $-1 $-1 $132 $124 #
plane-surface $-1 23.75 143.75 150 -1 -0 -0 0 0 1 0 I I I I #
coedge $-1 $205 $206 $131 $168 0 $125 $-1 #
edge $-1 $207 $171 $167 $208 0 #
coedge $-1 $209 $132 $135 $174 1 $165 $-1 #
coedge $-1 $132 $209 $205 $210 0 $165 $-1 #
vertex $-1 $133 $211 #
straight-curve $-1 23.75 146.875 37.5 0 -1 0 I I #
coedge $-1 $135 $134 $212 $213 0 $136 $-1 #
edge $-1 $214 $137 $135 $215 0 #
point $-1 23.75 121.25 37.5 #
coedge $-1 $157 $212 $139 $177 1 $199 $216 #
edge $-1 $161 $178 $176 $217 0 #
vertex $-1 $213 $218 #
straight-curve $-1 61.25 117.5 150 0 0 -1 I I #
cone-surface $-1 102.5 117.5 150 0 0 -1 41.25 0 0 1 I I 0 -1 0 I I I I #
coedge $-1 $219 $220 $143 $182 0 $221 $-1 #
edge $-1 $187 $207 $181 $222 0 #
coedge $-1 $223 $144 $220 $224 1 $185 $225 #
coedge $-1 $144 $223 $146 $190 0 $185 $226 #
loop $-1 $-1 $144 $227 #
pcurve $-1 2 $188 0 0 #
vertex $-1 $145 $228 #
intcurve-curve $-1 0 { surfintcur nubs 3 open 17 
	-177.8996197006310638 3 -167.0817130278422837 2 -156.8909382019748762 2 -150.8276405611871098 2 -142.8652763651702173 2 
	-132.0006862240664702 2 -118.2735108341045702 2 -110.0647556940791958 2 -89.12911455918855097 2 -76.74475499142275225 2 
	-61.10960204798674056 2 -52.59097475593694071 2 -43.91755281326702942 2 -36.17416490900034631 2 -29.36684218681485703 2 
	-10.6064895470965741 2 -0 3 
	170 192.5 37.5 
	167.9746492830128943 190.4746492830128943 37.5 
	165.535115835594155 188.985118117509387 37.5 
	160.4726709606959503 186.68933154137099 37.5 
	157.7889237617900733 185.8104523641221419 37.5 
	152.831388662001018 184.3691763496795204 37.5 
	150.9691421096552517 183.8638399681042586 37.5 
	146.6393019412314231 182.80885529612749 37.5 
	144.1619140319619135 182.2941598241144163 37.5 
	138.2512492695125275 181.3616452310909892 37.5 
	135.2096836766531851 181.1020767837070764 37.5 
	127.1647766217046893 180.9237240247730938 37.5 
	122.6543547305380457 181.1291661688262025 37.5 
	115.420102443213807 181.268874772742322 37.5 
	113.0798582577313454 181.2717532106930207 37.5 
	103.5203914975117101 180.9441168634546671 37.5 
	96.69263359035447536 180.1656201342957786 37.5 
	85.87992006264413192 178.5330384640480474 37.5 
	81.77471992475211948 177.8217908939914196 37.5 
	73.87128325797188211 176.4002169775475863 37.5 
	69.46956083900842316 175.5553011361813844 37.5 
	62.70265860768482469 174.0926598728919998 37.5 
	60.53769152465375925 173.5942693531872578 37.5 
	55.62841257299869824 172.4005991389175847 37.5 
	53.15697560934825106 171.7706299482423731 37.5 
	48.48530782892937907 170.5722838653545068 37.5 
	45.98313564939396514 169.9272642948691612 37.5 
	39.97091797477023078 168.4163993693980501 37.5 
	37.15615357748114889 167.7186994198052901 37.5 
	26.58495758055536839 165.0921276790867012 37.5 
	21.10864336050899581 163.7255746022123617 37.5 
	11.72294151703018095 160.94495016956526 37.5 
	8.354066494759287309 159.868022164919779 37.5 
	5 158.75 37.5 
	0.0008872839949656399295 
	plane 90 150 37.5 0 0 1 1 0 0 0 I I I I 
	spline 0 { sumsur intcurve 1 { exactcur nubs 3 open 10 
	0 3 16.77050983124842176 1 35.89183300722136494 1 58.39183300722136494 1 92.34952727523668159 1 
	111.4708504512096283 1 126.9324965472758606 1 142.3941426433420929 1 157.1293046716334629 1 169.7015956323136265 3 
	170 192.5 150 
	166.0471529247895148 188.5471529247895148 150 
	154.1622020230355758 184.4000179405790902 150 
	135.2691585239823553 180.0999253098742088 150.0000000000000568 
	109.8484720160740551 182.2882506492801156 149.9999999999999432 
	84.83051120179919735 178.5216914868922231 150.0000000000000284 
	62.39660702767639577 174.2152316843328208 149.9999999999999716 
	46.2591251945805837 169.9571361902404192 150.0000000000000284 
	31.48211957463386312 166.3253963897500114 149.9999999999999716 
	17.65644576954405309 162.8283411017786477 150 
	8.975707484209571874 160.0752358280698786 150 
	5 158.75 150 
	0 
	null_surface 
	null_surface 
	nullbs 
	nullbs 
	} I I 
	straight 8.75 143.75 150 0 0 -1 I I 
	8.75 143.75 150 
	F -169.7015956323136265 F -0 F 70.92201871561152871 F 125 } I I I I 
	nullbs 
	nubs 3 open 17 
	-177.8996197006310638 3 -167.0817130278422837 3 -156.8909382019748762 3 -150.8276405611871098 3 -142.8652763651702173 3 
	-132.0006862240664702 3 -118.2735108341045702 3 -110.0647556940791958 3 -89.12911455918855097 3 -76.74475499142275225 3 
	-61.10960204798674056 3 -52.59097475593694071 3 -43.91755281326702942 3 -36.17416490900034631 3 -29.36684218681485703 3 
	-10.6064895470965741 3 -0 3 
	0 112.5 
	-2.88394404858941833 112.5 
	-5.665769707090927199 112.5 
	-8.547730899516068348 112.5 
	-11.18438799897787739 112.5 
	-13.93024935708663214 112.5 
	-17.0954617990321367 112.5 
	-18.99383206452434436 112.5 
	-20.89492605683778237 112.5 
	-22.79394906537621068 112.5 
	-25.32771297114344478 112.5 
	-27.85744910363165516 112.5000000000000284 
	-30.39193208716827144 112.5000000000000284 
	-33.87446497124847156 112.5000000000000284 
	-36.9371713248882827 112.5000000000000284 
	-40.52257611622439981 112.5000000000000284 
	-45.00704375532092882 112.5000000000000284 
	-49.50954987215577319 112.5 
	-54.03010148829922343 112.5 
	-56.73028089037745758 112.5 
	-59.06205907577031411 112.5000000000000142 
	-61.74868741519911453 112.5 
	-68.61736563723373195 112.4999999999999858 
	-75.46304865008922036 112.5 
	-82.33158322026548603 112.5 
	-86.38993456106528868 112.5 
	-90.54923081967859844 112.5 
	-94.09323796601769629 112.5 
	-98.57379445579162791 112.5 
	-103.0540515688315111 112.5 
	-107.5351291040202284 112.5 
	-109.9777423630920055 112.5 
	-112.199773835650646 112.5 
	-114.7041377109549103 112.5 
	-117.2529154463683625 112.5 
	-119.8031341859938266 112.5 
	-122.3510802250185918 112.5 
	-124.6256401746174589 112.5 
	-127.2092578532795955 112.5 
	-130.5078189066865093 112.5 
	-133.4080881917154215 112.5 
	-136.3081183131174612 112.5 
	-139.2083401671322918 112.5 
	-147.2011872756871753 112.5 
	-152.8415200650295844 112.5 
	-159.0952459052940355 112.5 
	-162.6305952315097727 112.5 
	-166.1662422516961044 112.5 
	-169.7015956323136265 112.5 
	
	} I I #
coedge $-1 $147 $146 $229 $230 0 $148 $-1 #
edge $-1 $231 $149 $184 $232 0 #
face $-1 $227 $148 $3 $-1 $233 forward single #
point $-1 170 192.5 37.5 #
coedge $-1 $229 $157 $151 $194 1 $199 $234 #
edge $-1 $196 $159 $193 $235 0 #
pcurve $-1 1 $235 0 0 #
vertex $-1 $194 $236 #
straight-curve $-1 173.75 185 150 0 0 -1 I I #
spline-surface $-1 0 { sumsur intcurve 1 { ref 2 } I I 
	straight 8.75 143.75 150 0 0 -1 I I 
	8.75 143.75 150 
	F -70.58742621054589961 F -0 F 70.26134046812583733 F 112.501215139779859 } I I I I #
loop $-1 $-1 $237 $238 #
pcurve $-1 -2 $201 0 0 #
intcurve-curve $-1 0 { surfintcur nubs 3 open 2 
	-33.64554517989996896 3 -0 3 
	177.5 117.4999999999999858 73.73835092727435381 
	166.2755838319961015 117.4999999999999858 73.86925771893145054 
	154.9027689600706026 117.4999999999999858 73.18262936140919805 
	143.7499999999999716 117.4999999999999858 72.00108558960242533 
	0.0001002407158882636566 
	plane 143.75 117.5 150 0 -1 0 0 0 -1 0 I I I I 
	spline 0 { exactsur nubs 3 3 open open none none 3 3 
	0 3 250 1 500 3 
	0 3 250 1 500 3 
	-250 -250 25 
	-191.0744349011210659 -250 25 
	0 -250 25.00000000000000355 
	191.0744349011210659 -250 25 
	250 -250 25 
	-250 -191.0744349011210659 25 
	-191.0744349011210659 -191.0744349011210659 5.358144967040345819 
	0 -191.0744349011210659 -4.462782549439477719 
	191.0744349011210659 -191.0744349011210659 -14.28371006591930836 
	250 -191.0744349011210659 -33.92556509887896254 
	-250 0 25.00000000000000355 
	-191.0744349011210659 0 -4.462782549439477719 
	0 0 24.99999999999999645 
	191.0744349011210659 0 54.46278254943948127 
	250 0 25.00000000000000355 
	-250 191.0744349011210659 25 
	-191.0744349011210659 191.0744349011210659 -14.28371006591930836 
	0 191.0744349011210659 54.46278254943948127 
	191.0744349011210659 191.0744349011210659 123.2092751647982709 
	250 191.0744349011210659 83.92556509887896254 
	-250 250 25 
	-191.0744349011210659 250 -33.92556509887896254 
	0 250 25.00000000000000355 
	191.0744349011210659 250 83.92556509887896254 
	250 250 25 
	0 
	} I I I I 
	nullbs 
	nubs 3 open 2 
	-33.64554517989996896 3 -0 3 
	413.8101932428954797 354.8462108688829062 
	402.5345620408226068 354.8462108688829062 
	391.1292082644350785 354.8462108688829062 
	379.8636197750161614 354.8462108688829062 
	
	} I I #
point $-1 177.5 117.5 73.73835092727435381 #
point $-1 143.75 117.5000000000000142 72.00108558960243954 #
plane-surface $-1 23.75 121.25 150 -0.0995037190209989153 -0.995037190209989153 -0 0 0 -1 0 I I I I #
coedge $-1 $239 $167 $170 $210 1 $125 $-1 #
coedge $-1 $167 $239 $219 $240 0 $125 $-1 #
vertex $-1 $168 $241 #
straight-curve $-1 49.375 143.75 37.5 1 0 -0 I I #
coedge $-1 $170 $169 $242 $243 0 $165 $-1 #
edge $-1 $244 $171 $170 $245 0 #
point $-1 23.75 143.75 37.5 #
coedge $-1 $176 $242 $173 $213 1 $199 $246 #
edge $-1 $178 $214 $212 $247 0 #
vertex $-1 $243 $248 #
straight-curve $-1 23.75 121.25 150 0 0 -1 I I #
pcurve $-1 -2 $217 0 0 #
intcurve-curve $-1 0 { surfintcur nubs 3 open 10 
	-155.9118722431784647 3 -143.3218125682663242 2 -127.7231728685809031 2 -112.0712078434332 2 -95.78317272698382112 2 
	-80.23554693559492534 2 -64.34058929005206551 2 -47.35396680444654294 2 -30.9530316331482922 2 -23.96064954391302138 3 
	143.75 117.5000000000000142 72.00108558960243954 
	143.75 121.6180782716674429 72.74801308669202626 
	143.1334339998074938 125.739200185718687 73.37597491675528261 
	140.366188536496594 134.6586885543316896 74.41553737686361103 
	137.9174508035567612 139.2760898150652338 74.72491673910288057 
	131.3951183924859833 147.3973439716824032 74.7319251531141191 
	127.3992333087354609 150.7938763835039708 74.42707152063844944 
	118.2004959540485913 156.0250375214667429 73.25149500240584644 
	113.0635930084908978 157.7289403971941795 72.37454419219341162 
	102.7341264792710973 159.0617554518375414 70.31291282034581513 
	97.6342057284530398 158.7714946797511288 69.16167507233664935 
	87.72207612338540628 156.3558229996727107 66.71766110854329668 
	82.98613901211776067 154.2061678962517988 65.43909432852947816 
	74.26388615630159507 148.0717277115686272 62.8515800657410324 
	70.42340625460531101 144.0216655806208337 61.56730984065688261 
	64.65964079974763479 134.7722408463450847 59.26347768845704422 
	62.72645709181486495 129.6994100350954682 58.25595117485037377 
	61.4425898152652934 122.099863611274202 57.0459191324395789 
	61.25 119.8012821116662678 56.71619834862111276 
	61.25 117.5 56.41982122581875103 
	0.0005239678415194109779 
	cone 102.5 117.5 150 0 0 -1 41.25 0 0 1 I I 0 -1 0 I I I I 
	spline 0 { ref 11 } I I I I 
	nullbs 
	nubs 3 open 10 
	-155.9118722431784647 3 -143.3218125682663242 3 -127.7231728685809031 3 -112.0712078434332 3 -95.78317272698382112 3 
	-80.23554693559492534 3 -64.34058929005206551 3 -47.35396680444654294 3 -30.9530316331482922 3 -23.96064954391302138 3 
	379.8636197750162182 354.8462108688829062 
	379.857927249236468 358.780025869633505 
	379.2409011637852245 362.6531457901330668 
	378.0642464449211957 366.3733104283523971 
	376.5582986787256345 371.1345828194702108 
	374.1885409876643394 375.5402611025240276 
	371.0889692928992645 379.4549608635367122 
	367.974914464026881 383.3879525458895614 
	364.2134177428561657 386.7171630788022298 
	359.9067879022099987 389.291075396783981 
	355.5832277398890255 391.8751063377072228 
	350.7993405779708951 393.6223291687520032 
	345.8085891931635842 394.319015507132292 
	341.2125318523419537 394.9606043407316633 
	336.4998909794947508 394.6853003605825165 
	332.0147401150549058 393.4859041710003567 
	327.4385752889327819 392.2621694915569037 
	323.1416323250471692 390.0940391954342203 
	319.3906667654815692 387.1997878559968171 
	315.2873106378339685 384.0336313610787329 
	311.8797553102910456 380.0574269677806001 
	309.2958069431151671 375.5660156548637474 
	306.7568974808781945 371.1528908316205388 
	305.0541341855790165 366.3285632616034491 
	304.2550855298337638 361.302370485906863 
	303.9156601253413328 359.1673096186100338 
	303.7432331905996534 357.016340213967112 
	303.7432113942475667 354.8462108688829062 
	
	} I I #
point $-1 61.25 117.5 56.41982122581875103 #
coedge $-1 $249 $181 $206 $240 1 $221 $-1 #
coedge $-1 $181 $249 $183 $224 0 $221 $-1 #
loop $-1 $-1 $181 $250 #
straight-curve $-1 8.529411764705876919 144.6323529411764639 37.5 0.2425356250363329691 -0.9701425001453318764 0 I I #
coedge $-1 $184 $183 $251 $252 0 $185 $253 #
edge $-1 $254 $187 $220 $255 0 #
pcurve $-1 0 1 { exppc nubs 1 open 2 
	0 1 125 1 
	-169.7015956323136265 0 
	-169.7015956323136265 125 
	0 
	spline 0 { sumsur intcurve 1 { ref 8 } I I 
	straight 8.75 143.75 150 0 0 -1 I I 
	8.75 143.75 150 
	F -169.7015956323136265 F -0 F 0 F 125 } I I I I 
	} 0 0 #
pcurve $-1 0 0 { exppc nubs 1 open 2 
	0 1 125 1 
	-0 0 
	-0 125 
	0 
	spline 0 { ref 14 } I I I I 
	} 0 0 #
face $-1 $250 $185 $3 $-1 $256 forward single #
point $-1 5 158.75 37.5 #
coedge $-1 $251 $193 $189 $230 1 $199 $257 #
edge $-1 $231 $196 $229 $258 0 #
vertex $-1 $230 $259 #
straight-curve $-1 170 192.5 150 0 0 -1 I I #
plane-surface $-1 173.75 185 150 0.8944271909999159664 0.4472135954999579832 0 0 0 -1 0 I I I I #
pcurve $-1 -2 $235 0 0 #
intcurve-curve $-1 0 { surfintcur nubs 3 open 8 
	-43.16418709427820488 3 -36.92346627211455967 2 -32.5849208813667488 2 -25.56728135415690772 2 -20.91724940800495247 2 
	-13.96494515237429823 2 -7.05516200535623117 2 -0 3 
	173.7499999999999716 184.9999999999999716 79.46547362294809602 
	172.44226521100029 183.0383978165004635 79.58238639446847174 
	171.3893999119329976 180.9207784899561204 79.65863198437956783 
	169.8668946825770547 177.2211779234062021 79.71956927214856137 
	168.9887797176316724 174.8819878059983921 79.73683653679701422 
	166.9122847125065903 167.2864169615613434 79.59886592422149931 
	166.2020735770787212 162.4317907639723444 79.3603666910004506 
	165.9953568430128428 154.3636520574152371 78.77997105968752578 
	166.1674307959402199 151.2010294663837158 78.5055759860305642 
	167.2564456141020059 143.1684132731468821 77.70234148196416868 
	168.4699226249447008 138.4461603619458003 77.13332054271884886 
	171.6710354953644071 129.3446708540703582 75.85226683973199613 
	173.3792412821427718 125.7378456635263291 75.24603926279932864 
	175.3957952522800952 121.6193679998693256 74.52719827679928244 
	176.4642227286131231 119.5715545427737538 74.14629372083292935 
	177.5 117.4999999999999858 73.73835092727435381 
	0.000859965419513500297 
	spline 0 { ref 4 } I I I I 
	spline 0 { ref 11 } I I I I 
	nubs 3 open 8 
	-43.16418709427820488 3 -36.92346627211455967 3 -32.5849208813667488 3 -25.56728135415690772 3 -20.91724940800495247 3 
	-13.96494515237429823 3 -7.05516200535623117 3 -0 3 
	-70.58742621054589961 70.53452637705190398 
	-68.22935614159659679 70.41758793484841306 
	-65.88753029411140005 70.34155863685970189 
	-63.52703691974631539 70.30542104226967126 
	-61.8966124924300658 70.28046032108997565 
	-59.42356252186554144 70.26306039896486766 
	-56.43401036734299225 70.31587410234567415 
	-51.60020592926297667 70.40126853622680869 
	-46.79648090679327765 70.63902408132318556 
	-41.97452064944575767 70.98871815707917676 
	-38.77546570177227636 71.22071728264532453 
	-35.64599057249401426 71.49463511407591909 
	-32.41485459513490497 71.81634763686759015 
	-27.57665145401638185 72.29807002466385768 
	-22.77020055281623456 72.86491448438637519 
	-17.95076537968455455 73.50917108586986615 
	-13.16173293005533651 74.14936348592395632 
	-9.203623652325957138 74.75514283968873031 
	-6.94395501549662697 75.10963956559939447 
	-4.626711277437297376 75.47316867110207284 
	-2.316652286406126304 75.85360343376014214 
	-0 76.26164907272564619 
	
	nubs 3 open 8 
	-43.16418709427820488 3 -36.92346627211455967 3 -32.5849208813667488 3 -25.56728135415690772 3 -20.91724940800495247 3 
	-13.96494515237429823 3 -7.05516200535623117 3 -0 3 
	409.9131664370328849 421.7168374091372129 
	408.5658258144658248 419.6366137508393308 
	407.4822207371016702 417.4034320286319826 
	406.5551648701531917 415.105129346774163 
	405.9186113054997804 413.5270229812918501 
	405.0208386312302764 411.0978457251753184 
	404.2046721231625952 408.0862017000874289 
	402.9155029962151389 403.32918403258833 
	402.1758100362894197 398.4150242406357734 
	402.0472923060531798 393.4880260520872071 
	401.9644241933652324 390.3111022116853519 
	402.13396100517474 387.1816753601661389 
	402.5823418491548296 383.9957767034787253 
	403.2387585864859716 379.3317121481620688 
	404.4676404408772328 374.7491645832188283 
	406.1284544967582519 370.3414752215261387 
	407.7582245789246826 366.0161744885916164 
	409.5257400802593111 362.5959794466535868 
	410.5622858333658769 360.6689251259738285 
	411.6147604349907851 358.712257296899736 
	412.7242890549189838 356.7918269995341802 
	413.8101932428954797 354.8462108688829062 
	
	} I I #
point $-1 173.75 185 79.46547362294809602 #
coedge $-1 $242 $260 $239 $261 1 $199 $262 #
face $-1 $-1 $199 $3 $-1 $263 forward single #
coedge $-1 $206 $205 $237 $261 0 $125 $-1 #
edge $-1 $264 $207 $206 $265 0 #
point $-1 8.75 143.75 37.5 #
coedge $-1 $212 $237 $209 $243 1 $199 $266 #
edge $-1 $214 $244 $242 $267 0 #
vertex $-1 $261 $268 #
straight-curve $-1 23.75 143.75 150 0 0 -1 I I #
pcurve $-1 -2 $247 0 0 #
intcurve-curve $-1 0 { surfintcur nubs 3 open 2 
	-38.69997425541984626 3 -0 3 
	61.25000000000001421 117.4999999999999858 56.41982122581875814 
	48.73365883154041001 118.7516341168459491 53.4998393854453127 
	36.17008677329769029 120.0079913226702502 50.322250430169575 
	23.75000000000000355 121.2500000000000142 47.0651600743646128 
	3.458206253286742239e-05 
	plane 23.75 121.25 150 -0.0995037190209989153 -0.995037190209989153 -0 0 0 -1 0 I I I I 
	spline 0 { ref 11 } I I I I 
	nullbs 
	nubs 3 open 2 
	-38.69997425541984626 3 -0 3 
	303.7432113942475667 354.8462108688829062 
	292.7646875434139702 356.0025606805505163 
	281.6991909831478438 357.1837748499413578 
	270.7344037686087859 358.3622084764854208 
	
	} I I #
point $-1 23.75 121.25 47.0651600743646128 #
coedge $-1 $220 $219 $260 $269 0 $221 $-1 #
face $-1 $238 $221 $3 $-1 $270 forward single #
coedge $-1 $260 $229 $223 $252 1 $199 $271 #
edge $-1 $254 $231 $251 $272 0 #
pcurve $-1 1 $272 0 0 #
vertex $-1 $252 $273 #
straight-curve $-1 5 158.75 150 0 0 -1 I I #
spline-surface $-1 0 { sumsur intcurve 1 { ref 8 } I I 
	straight 8.75 143.75 150 0 0 -1 I I 
	8.75 143.75 150 
	F -169.7015956323136265 F -0 F 70.92201871561152871 F 112.5017745679899548 } I I I I #
pcurve $-1 -2 $258 0 0 #
intcurve-curve $-1 0 { surfintcur nubs 3 open 2 
	-8.406686886616334675 3 -0 3 
	170 192.4999999999999716 78.87036773588198457 
	171.2477848392696558 190.0044303214606316 79.13029657555561869 
	172.4983266012082481 187.5033467975834469 79.3274313453344746 
	173.7499999999999716 184.9999999999999716 79.46547362294809602 
	5.270694682422451329e-08 
	plane 173.75 185 150 0.8944271909999159664 0.4472135954999579832 0 0 0 -1 0 I I I I 
	spline 0 { ref 11 } I I I I 
	nullbs 
	nubs 3 open 2 
	-8.406686886616334675 3 -0 3 
	406.0511471528603806 429.7876258296809056 
	407.3226007018869836 427.0897036303193772 
	408.6099717461114551 424.3995902651624874 
	409.9131664370328849 421.7168374091372129 
	
	} I I #
point $-1 170 192.5 78.87036773588198457 #
coedge $-1 $237 $251 $249 $269 1 $199 $274 #
edge $-1 $244 $264 $237 $275 0 #
pcurve $-1 -2 $275 0 0 #
spline-surface $-1 0 { exactsur nubs 3 3 open open none none 2 2 
	254.35943681029201 3 413.8119414266927834 3 
	354.8444626850856025 3 429.7896606831904478 3 
	4.997667421060970838 117.4981308852273685 41.63418501017973483 
	65.9251613066224138 117.4981308852273685 58.20562414160089304 
	126.592942974009361 117.4981308852273685 74.33208777785526422 
	177.5016744423065518 117.4981308852273685 73.73797421053856738 
	4.997667421060970838 144.2080122563903615 43.83360617470461307 
	65.9251613066224138 144.2080122563903615 61.78658849524711627 
	126.592942974009361 144.2080122563903615 79.26326818991580581 
	177.5016744423065518 144.2080122563903615 78.84220988622286086 
	4.997667421060970838 169.5380418900937798 44.33835414305935529 
	65.9251613066224138 169.5380418900937798 63.3187614948069637 
	126.592942974009361 169.5380418900937798 81.79153908997375311 
	177.5016744423065518 169.5380418900937798 81.18941789198835579 
	4.997667421060970838 192.5018704930750175 41.93703810855409841 
	65.9251613066224138 192.5018704930750175 61.33762064899727307 
	126.592942974009361 192.5018704930750175 80.19924630215264472 
	177.5016744423065518 192.5018704930750175 78.80881236736524897 
	0 
	} I I I I #
vertex $-1 $261 $276 #
straight-curve $-1 8.75 143.75 150 0 0 -1 I I #
pcurve $-1 -2 $267 0 0 #
intcurve-curve $-1 0 { surfintcur nubs 3 open 2 
	-22.52317812970354538 3 -0 3 
	23.75000000000000355 121.2500000000000142 47.0651600743646128 
	23.75000000000000355 128.7241535172974523 47.7543174822643266 
	23.75000000000000355 136.251508671579785 48.3113488491408205 
	23.75000000000000355 143.7500000000000284 48.68360969568270491 
	6.524341039105203873e-06 
	plane 23.75 143.75 150 -1 -0 -0 0 0 1 0 I I I I 
	spline 0 { ref 11 } I I I I 
	nullbs 
	nubs 3 open 2 
	-22.52317812970354538 3 -0 3 
	270.7344037686087859 358.3622084764854208 
	270.7344037686087859 365.5164594065900019 
	270.7344037686087859 372.707588589468287 
	270.7344037686087859 379.8636197750162182 
	
	} I I #
point $-1 23.75 143.75 48.68360969568270491 #
edge $-1 $264 $254 $260 $277 0 #
plane-surface $-1 5 158.75 150 -0.9701425001453318764 -0.2425356250363329691 -0 0 0 1 0 I I I I #
pcurve $-1 -2 $272 0 0 #
intcurve-curve $-1 0 { surfintcur nubs 3 open 17 
	-148.1045082313568741 3 -136.9213255174378219 2 -125.5510022761188367 2 -118.1882198025074189 2 -109.1145906807219887 2 
	-97.21389063002547459 2 -80.81836123957711493 2 -71.79516242482506527 2 -61.63704838867010949 2 -50.62420278705837262 2 
	-45.05803875995319174 2 -34.2656411497366733 2 -28.21391354745234992 2 -17.64746895522056036 2 -12.63324319765855464 2 
	-6.943781913840209263 2 -0 3 
	4.999999999999994671 158.75 43.52374373738266655 
	8.819229229742637344 160.0230764099142391 44.68227520673521269 
	12.65535173281270787 161.2420990003350312 45.847029415299005 
	20.44709145769221337 163.4990379651958392 48.20646479166653364 
	24.40679117555817967 164.5283855697713307 49.40212605614737384 
	30.64930028598439904 166.103551104627428 51.27514673597890749 
	33.2486550658014508 166.7479300173075956 52.05209941006906149 
	39.39399147718410887 168.27435134069421 53.87600922434379669 
	42.87388567811123607 169.139289987391976 54.90028937196873926 
	50.9479359259322564 171.1976773349548182 57.24635980500023891 
	55.50884446333377298 172.3970747100163692 58.5491326963194183 
	66.44144312239295402 174.978369541220161 61.60034767185154436 
	72.66041062759862257 176.1847251020603835 63.2777985198312436 
	81.71988819535404502 177.8105902613315834 65.61847832182135676 
	85.45546001086292165 178.4556486212797779 66.55938606892928533 
	92.89726518978858394 179.6041609323499131 68.37010444900246853 
	96.86383123138219275 180.1359055564327605 69.29952663694776049 
	105.1681682762705634 180.9574916883319702 71.15888034143937091 
	109.6420166603226392 181.2363775249894502 72.11215131768113906 
	116.5312170922276493 181.2606955278680232 73.48280624403000161 
	118.8469133263194522 181.2059357229709917 73.92723891623531074 
	125.666565136693734 181.0263993273844676 75.17779030558769193 
	130.1605516631207422 180.8848021173150755 75.92715453684374438 
	137.0954296885422821 181.279051618036334 76.93254393977238692 
	139.4616695458152833 181.5483925020369611 77.24531588219488754 
	145.8913380663064743 182.5747332087081247 78.01284144166204726 
	149.9313750847085487 183.5498614318732962 78.40042629119510309 
	155.8225130837159611 185.2304805509305936 78.80129670923528806 
	157.5756091776428036 185.7631211717141468 78.89544426506898844 
	160.9392620063905781 186.9323226521976551 79.03191834410826289 
	162.7190128977475183 187.6467243158350584 79.07460434504737634 
	166.4604123528735897 189.5782104678077928 79.07602719377729272 
	168.3665442266844252 190.8665442266843968 79.01524604733685919 
	170 192.4999999999999716 78.87036773588198457 
	0.0009721187874621147265 
	spline 0 { ref 14 } I I I I 
	spline 0 { ref 11 } I I I I 
	nubs 3 open 17 
	-148.1045082313568741 3 -136.9213255174378219 3 -125.5510022761188367 3 -118.1882198025074189 3 -109.1145906807219887 3 
	-97.21389063002547459 3 -80.81836123957711493 3 -71.79516242482506527 3 -61.63704838867010949 3 -50.62420278705837262 3 
	-45.05803875995319174 3 -34.2656411497366733 3 -28.21391354745234992 3 -17.64746895522056036 3 -12.63324319765855464 3 
	-6.943781913840209263 3 -0 3 
	-169.7015956323136265 106.4762562626173263 
	-165.6758166993960515 105.3177369252460522 
	-161.6523616007362421 104.1529418342430233 
	-157.6300407200205029 102.9830417511098517 
	-153.5403092325892374 101.79353515801904 
	-149.4502575327420573 100.5980268962247806 
	-145.5425022360458627 99.46101757356129269 
	-143.0122133750339515 98.72479900162706201 
	-140.334330283582716 97.94783726475705521 
	-137.4979688725354947 97.13086999076105599 
	-134.0023635736270933 96.12401835299294817 
	-130.4165927209874098 95.09983361227128285 
	-126.8120070345019457 94.08478553422452251 
	-122.0845211704563553 92.75352977901138729 
	-117.3695955455493731 91.45046164285948009 
	-112.6452531611925139 90.16760112542428374 
	-106.1355955360798902 88.39995135115525215 
	-99.80462502162833971 86.72380576849238309 
	-93.86744230750142037 85.21242159750309497 
	-90.60493966863047888 84.38191071656494557 
	-86.82041247119749983 83.44071862139409745 
	-83.2835568000255364 82.588822811874536 
	-79.29993235076523206 81.6293171688579946 
	-75.30481483309418422 80.70012633076615316 
	-71.30469143583336233 79.80833019680295592 
	-66.96689107681227426 78.84125163299461292 
	-62.49750422949329476 77.88978502219927691 
	-57.92487105834391059 76.97737143337496946 
	-55.62098933515827781 76.51765972841216978 
	-53.31450759515028892 76.0728902086175367 
	-51.00242821355283951 75.64724847991945467 
	-46.49872447793732988 74.81814016347101415 
	-42.00964315938743709 74.06881876170641021 
	-37.55495183830303318 73.42867059194060175 
	-35.03702363511193596 73.06683920684653799 
	-32.64038312771918982 72.75516986810238507 
	-30.24817125947138763 72.4751795152942293 
	-26.12450531795658648 71.9925355249551302 
	-22.00093577593001726 71.60404253968596322 
	-17.86344760471180848 71.32771280899819999 
	-15.94157947110371154 71.19935732330240796 
	-14.15697125892230446 71.10457155387699402 
	-12.53071502150748096 71.04062338716030922 
	-10.66731452664029689 70.96735015827779591 
	-8.789029021177224621 70.92538874818457373 
	-6.922219252913631493 70.92475486599329315 
	-4.590002661634720482 70.92396295318644661 
	-2.327938441147114457 70.98363238726095403 
	-0 71.12963226411801543 
	
	nubs 3 open 17 
	-148.1045082313568741 3 -136.9213255174378219 3 -125.5510022761188367 3 -118.1882198025074189 3 -109.1145906807219887 3 
	-97.21389063002547459 3 -80.81836123957711493 3 -71.79516242482506527 3 -61.63704838867010949 3 -50.62420278705837262 3 
	-45.05803875995319174 3 -34.2656411497366733 3 -28.21391354745234992 3 -17.64746895522056036 3 -12.63324319765855464 3 
	-6.943781913840209263 3 -0 3 
	254.3614716638015238 394.658272871735619 
	257.6892683270842781 395.9306672508921565 
	261.0361546676122089 397.1555807017369943 
	264.4149002063219314 398.2853300227001228 
	267.8437721693095455 399.4318400890764451 
	271.3088276716611631 400.4747630061384598 
	274.624572097928251 401.4447137616595569 
	276.7755586446945131 402.0739392862879527 
	279.0544748906486348 402.7295421152376207 
	281.4663545785523979 403.425421973452444 
	284.4524641373480449 404.2869796650778653 
	287.5132441719636063 405.1716751704155399 
	290.5804827013881209 406.081664526374766 
	294.6352029849657015 407.284620300453355 
	298.6637131743775626 408.5186862308286209 
	302.7284327627641005 409.636748317592037 
	308.3810647134176861 411.1915895156196825 
	313.9389774062584024 412.4457988332725904 
	319.1517310379776973 413.5319844314863644 
	322.0567693186492875 414.1373095562965432 
	325.4280044141627855 414.8117495018435648 
	328.5848637488644499 415.3749500025990642 
	332.180667204570625 416.0164604698570088 
	335.7977789657025482 416.5739957065939052 
	339.4277510519448242 416.9859478935530888 
	343.4248447884729103 417.4395633669294057 
	347.5627303158994437 417.7298942232891932 
	351.7832053871065341 417.746754638209552 
	353.950269379921167 417.7554118622095416 
	356.1169006609857774 417.6972453562192982 
	358.2845441463621796 417.6332567554539423 
	362.5662561329616551 417.5068610816491628 
	366.8318708602536162 417.3627603115187412 
	371.0334114279839923 417.6254159467181353 
	373.4412538241443258 417.7759401089458606 
	375.7222232906769364 418.062003673281481 
	377.9727386299172167 418.4532423274439452 
	381.997804093101081 419.1529759250222469 
	385.9533686239822146 420.1917637957664624 
	389.8549513143850618 421.3864926394283543 
	391.7464029640598824 421.965686269699745 
	393.4929146883968087 422.5338441112677401 
	395.0600375183075812 423.1151002167718502 
	396.8658361716199465 423.7848827459490053 
	398.658654533701224 424.55268812805366 
	400.3493227305912683 425.4795091541179204 
	402.459701933770134 426.6364149396960102 
	404.4002127753545324 428.0360508271288609 
	406.0511471528603806 429.7876258296809056 
	
	} I I #
point $-1 5 158.75 43.52374373738267366 #
pcurve $-1 -2 $277 0 0 #
intcurve-curve $-1 0 { surfintcur nubs 3 open 2 
	-15.60366235124724099 3 -0 3 
	23.75000000000000355 143.7500000000000284 48.68360969568270491 
	18.74992958685881561 143.7500000000000284 47.24007209386065398 
	13.74242012177120031 143.7500000000000284 45.78145567545100647 
	8.749999999999966249 143.7500000000000284 44.32253862193594074 
	1.007788545486975722e-06 
	plane 8.75 143.75 150 0 -1 0 0 0 -1 0 I I I I 
	spline 0 { ref 11 } I I I I 
	nullbs 
	nubs 3 open 2 
	-15.60366235124724099 3 -0 3 
	270.7344037686087859 379.8636197750162182 
	266.36964453564633 379.8636197750162182 
	261.9953832189461309 379.8636197750162182 
	257.6331876659054387 379.8636197750162182 
	
	} I I #
point $-1 8.75 143.75 44.32253862193594784 #
intcurve-curve $-1 0 { surfintcur nubs 3 open 2 
	-15.47643679847854159 3 -0 3 
	8.750000000000031974 143.7500000000000284 44.32253862193596206 
	7.499475395516022047 148.7520984179360539 44.15222696626766208 
	6.248038961560432369 153.7578441537582421 43.88997147355143369 
	4.999999999999994671 158.75 43.52374373738266655 
	1.277260544983331459e-07 
	plane 5 158.75 150 -0.9701425001453318764 -0.2425356250363329691 -0 0 0 1 0 I I I I 
	spline 0 { ref 11 } I I I I 
	nullbs 
	nubs 3 open 2 
	-15.47643679847854159 3 -0 3 
	257.6331876659054956 379.8636197750162182 
	256.5285221908497988 384.7901289983925039 
	255.4366097368452699 389.7252804588811728 
	254.3614716638015238 394.658272871735619 
	
	} I I #
End-of-ACIS-data 