600 0 1 0           
70 GICL ACIS Healer - Source: /gicl/data5/repository/new/fender.sat - 6 0 18 ACIS 6.0.3 Solaris 24 Sat Apr 13 20:07:39 2002 
1 9.999999999999999547e-07 1.000000000000000036e-10 
body $-1 $1 $-1 $-1 #
lump $-1 $-1 $2 $0 #
shell $-1 $-1 $-1 $3 $-1 $1 #
face $-1 $4 $5 $2 $-1 $6 forward single #
face $-1 $7 $8 $2 $-1 $9 reversed single #
loop $-1 $10 $11 $3 #
plane-surface $-1 100 100 37.5 0 0 1 1 0 0 forward_v I I I I #
face $-1 $12 $13 $2 $-1 $14 reversed single #
loop $-1 $-1 $15 $4 #
plane-surface $-1 100 100 12.5 0 0 1 1 0 0 forward_v I I I I #
loop $-1 $-1 $16 $3 #
coedge $-1 $17 $18 $19 $20 forward $5 $-1 #
face $-1 $21 $22 $2 $-1 $23 reversed single #
loop $-1 $-1 $24 $7 #
plane-surface $-1 100 25 25 0 1 0 0 0 1 forward_v I I I I #
coedge $-1 $25 $26 $27 $28 forward $8 $-1 #
coedge $-1 $29 $30 $31 $32 reversed $10 $-1 #
coedge $-1 $33 $11 $34 $35 forward $5 $-1 #
coedge $-1 $11 $33 $36 $37 forward $5 $-1 #
coedge $-1 $38 $39 $11 $20 reversed $40 $-1 #
edge $-1 $41 -75 $42 75 $19 $43 forward 7 unknown #
face $-1 $44 $45 $2 $-1 $46 reversed single #
loop $-1 $-1 $47 $12 #
plane-surface $-1 0 100 25 1 0 0 0 0 -1 forward_v I I I I #
coedge $-1 $48 $36 $49 $50 forward $13 $-1 #
coedge $-1 $51 $15 $48 $52 forward $8 $-1 #
coedge $-1 $15 $51 $53 $54 forward $8 $-1 #
coedge $-1 $39 $38 $15 $28 reversed $40 $-1 #
edge $-1 $55 -75 $56 75 $27 $57 forward 7 unknown #
coedge $-1 $58 $16 $59 $60 reversed $10 $-1 #
coedge $-1 $16 $61 $62 $63 reversed $10 $-1 #
coedge $-1 $64 $65 $16 $32 forward $66 $-1 #
edge $-1 $67 26.875 $68 60.625 $31 $69 forward 7 unknown #
coedge $-1 $18 $17 $70 $71 forward $5 $-1 #
coedge $-1 $72 $73 $17 $35 reversed $45 $-1 #
edge $-1 $42 -100 $74 100 $34 $75 forward 7 unknown #
coedge $-1 $24 $76 $18 $37 reversed $13 $-1 #
edge $-1 $77 -100 $41 100 $36 $78 forward 7 unknown #
coedge $-1 $27 $19 $76 $79 forward $40 $-1 #
coedge $-1 $19 $27 $72 $80 reversed $40 $-1 #
loop $-1 $-1 $38 $44 #
vertex $-1 $20 $81 #
vertex $-1 $20 $82 #
straight-curve $-1 200 100 37.5 0 1 0 I I #
face $-1 $83 $40 $2 $-1 $84 reversed single #
loop $-1 $-1 $72 $21 #
plane-surface $-1 100 175 25 0 -1 0 0 0 -1 forward_v I I I I #
coedge $-1 $85 $70 $73 $86 forward $22 $-1 #
coedge $-1 $76 $24 $25 $52 reversed $13 $-1 #
coedge $-1 $70 $85 $24 $50 reversed $22 $-1 #
edge $-1 $77 -12.5 $87 12.5 $49 $88 forward 7 unknown #
coedge $-1 $26 $25 $85 $89 forward $8 $-1 #
edge $-1 $56 -100 $87 100 $48 $90 forward 7 unknown #
coedge $-1 $73 $72 $26 $54 reversed $45 $-1 #
edge $-1 $91 -100 $55 100 $53 $92 forward 7 unknown #
vertex $-1 $28 $93 #
vertex $-1 $79 $94 #
straight-curve $-1 200 100 12.5 0 -1 0 I I #
coedge $-1 $95 $29 $96 $97 reversed $10 $-1 #
coedge $-1 $98 $99 $29 $60 forward $100 $-1 #
edge $-1 $101 -3.141592653589793116 $67 0 $59 $102 forward 7 unknown #
coedge $-1 $30 $103 $104 $105 reversed $10 $-1 #
coedge $-1 $106 $107 $30 $63 forward $108 $109 #
edge $-1 $68 -50.11631811008543025 $110 -0 $62 $111 forward 7 unknown #
coedge $-1 $112 $31 $107 $113 reversed $66 $-1 #
coedge $-1 $31 $112 $98 $114 forward $66 $-1 #
loop $-1 $-1 $31 $115 #
vertex $-1 $32 $116 #
vertex $-1 $32 $117 #
straight-curve $-1 126.875 67.5 37.5 1 0 0 I I #
coedge $-1 $47 $49 $33 $71 reversed $22 $-1 #
edge $-1 $74 -75 $77 75 $70 $118 forward 7 unknown #
coedge $-1 $53 $34 $39 $80 forward $45 $-1 #
coedge $-1 $34 $53 $47 $86 reversed $45 $-1 #
vertex $-1 $35 $119 #
straight-curve $-1 100 175 37.5 -1 0 0 I I #
coedge $-1 $36 $48 $38 $79 reversed $13 $-1 #
vertex $-1 $71 $120 #
straight-curve $-1 100 25 37.5 1 0 0 I I #
edge $-1 $41 -12.5 $56 12.5 $38 $121 forward 7 unknown #
edge $-1 $42 -12.5 $55 12.5 $39 $122 forward 7 unknown #
point $-1 200 25 37.5 #
point $-1 200 175 37.5 #
face $-1 $123 $124 $2 $-1 $125 forward single #
plane-surface $-1 200 100 25 -1 0 0 0 0 1 forward_v I I I I #
coedge $-1 $49 $47 $51 $89 reversed $22 $-1 #
edge $-1 $74 -12.5 $91 12.5 $73 $126 forward 7 unknown #
vertex $-1 $89 $127 #
straight-curve $-1 0 25 25 0 0 -1 I I #
edge $-1 $87 -75 $91 75 $85 $128 forward 7 unknown #
straight-curve $-1 100 25 12.5 -1 0 0 I I #
vertex $-1 $54 $129 #
straight-curve $-1 100 175 12.5 1 0 0 I I #
point $-1 200 175 12.5 #
point $-1 200 25 12.5 #
coedge $-1 $130 $58 $131 $132 reversed $10 $-1 #
coedge $-1 $133 $134 $58 $97 forward $135 $-1 #
edge $-1 $136 -31.53024096477903271 $101 6.156792614424309917 $96 $137 forward 7 unknown #
coedge $-1 $138 $59 $65 $114 reversed $100 $-1 #
coedge $-1 $59 $138 $133 $139 forward $100 $-1 #
loop $-1 $-1 $59 $140 #
vertex $-1 $60 $141 #
ellipse-curve $-1 112.5 67.5 37.5 -0 -0 -1 41.25 0 0 1 I I #
coedge $-1 $61 $142 $143 $144 reversed $10 $-1 #
coedge $-1 $145 $146 $61 $105 forward $147 $-1 #
edge $-1 $110 -3.074593469062211426 $148 5.310661446562000343 $104 $149 forward 7 unknown #
coedge $-1 $150 $62 $146 $151 reversed $108 $152 #
coedge $-1 $62 $150 $64 $113 forward $108 $153 #
loop $-1 $-1 $62 $154 #
pcurve $-1 0 forward { exppc nubs 1 open 2 
	-50.11631811008543025 1 -7.105427357601001859e-15 1 
	-0 112.5 
	-70.58742621054589961 112.5 
	0.0006075698899542731138 
	spline forward { sumsur 
	intcurve reversed { exactcur full nubs 3 open 5 
	0 3 8.385254915624210881 1 35.68566700042615736 1 62.2021712949216905 1 70.58742621054589961 3 
	187.5 67.5 150 
	186.25 70 150 
	180.7191201947406114 80.50921704099079079 149.9999999999999716 
	174.2114832369593955 100.758945190292053 150 
	177.2280861379912835 122.0680072900167943 150 
	182.1995658176348911 132.6743487264523367 150 
	183.75 135 150 
	0 
	null_surface 
	null_surface 
	nullbs 
	nullbs 
	I I 
	0 
	0 
	3 8.385254915624210881 35.68566700042615736 62.2021712949216905 
	F 1 F 0 } I I 
	straight 18.75 93.75 150 0 0 -1 I I 
	18.75 93.75 150 
	none F -70.58742621054589961 F -0 F 70.26134046812583733 F 125 OPEN OPEN NON_SINGULAR NON_SINGULAR 
	0 
	0 
	3 -62.2021712949216905 -35.68566700042615736 -8.385254915624210881 
	0 
	0 
	0 
	} I I I I 
	} 0 0 #
vertex $-1 $63 $155 #
intcurve-curve $-1 forward { surfintcur full nubs 3 open 7 
	-50.11631811008543025 3 -44.61688159667659903 2 -39.13607610091776934 2 -28.16026868644568282 2 -12.26737782494849327 2 
	-5.444898832736853933 2 -0 3 
	187.5 67.5 37.5 
	186.2315686092863984 70.03686278142720312 37.5 
	184.9264515468123875 72.51340591898589594 37.5 
	182.4920220340738979 77.65867276940359432 37.5 
	181.3825114946147607 80.28306674471838278 37.5 
	178.4577140519565148 88.29707569230592412 37.5 
	177.0403915941322452 93.84763716958184432 37.5 
	175.5138846218282254 107.6923791035702322 37.5 
	176.375860091952859 115.5514379726872676 37.5 
	179.1736616150817554 125.4486915569975167 37.5 
	180.1979487681373087 128.1642589302374802 37.5 
	181.887729532660245 131.887550254504049 37.5 
	182.7432378496847889 133.4898567745271691 37.5 
	183.75 135 37.5 
	0.0006075698899258514044 
	plane 100 100 37.5 0 0 1 1 0 0 forward_v I I I I 
	spline forward { ref 1 } I I I I 
	nullbs 
	nubs 3 open 7 
	-50.11631811008543025 3 -44.61688159667659903 3 -39.13607610091776934 3 -28.16026868644568282 3 -12.26737782494849327 3 
	-5.444898832736853933 3 -0 3 
	0 112.5 
	-2.836235533837271117 112.5 
	-5.634254654858205313 112.5000000000000142 
	-8.485079645295385831 112.5 
	-11.31276461463950334 112.4999999999999858 
	-14.14247512714581667 112.5 
	-16.97015929059077877 112.5 
	-22.64144677287718466 112.5 
	-28.26902772442532452 112.5 
	-33.94031858118155753 112.5 
	-42.16182758689807031 112.5 
	-49.76369727500582485 112.5 
	-56.94458499598366785 112.5 
	-60.01713592869645453 112.5 
	-62.88873184513486336 112.5 
	-65.15053113853443278 112.5 
	-66.9662791025475741 112.5 
	-68.77153197557602482 112.5 
	-70.58742621054589961 112.5 
	
	F -50.11631811008543025 F -0 
	0 
	1 -0 
	4 -50.11631811008543025 -44.68121997014665681 -27.02682853130890095 -8.142649572659450996 
	} I I #
coedge $-1 $65 $64 $156 $157 forward $66 $-1 #
edge $-1 $158 76.26164907272564619 $68 112.5 $107 $159 forward 7 unknown #
edge $-1 $160 77.99891441039756046 $67 112.5 $65 $161 forward 7 unknown #
face $-1 $154 $66 $2 $-1 $162 forward single #
point $-1 153.75 67.5 37.5 #
point $-1 187.5 67.5 37.5 #
straight-curve $-1 0 100 37.5 0 -1 0 I I #
point $-1 0 175 37.5 #
point $-1 0 25 37.5 #
straight-curve $-1 200 25 25 0 0 -1 I I #
straight-curve $-1 200 175 25 0 0 -1 I I #
face $-1 $163 $164 $2 $-1 $165 forward single #
loop $-1 $-1 $166 $83 #
plane-surface $-1 18.75 93.75 150 0 -1 0 0 0 -1 forward_v I I I I #
straight-curve $-1 0 175 25 0 0 -1 I I #
point $-1 0 25 12.5 #
straight-curve $-1 0 100 12.5 0 1 0 I I #
point $-1 0 175 12.5 #
coedge $-1 $142 $95 $166 $167 reversed $10 $-1 #
coedge $-1 $168 $169 $95 $132 forward $164 $-1 #
edge $-1 $170 3.125 $136 25.625 $131 $171 forward 7 unknown #
coedge $-1 $172 $96 $99 $139 reversed $135 $-1 #
coedge $-1 $96 $172 $168 $173 forward $135 $-1 #
loop $-1 $-1 $96 $163 #
vertex $-1 $97 $174 #
straight-curve $-1 65.12376237623762165 68.11262376237623073 37.5 0.995037190209989153 -0.0995037190209989153 0 I I #
coedge $-1 $99 $98 $175 $176 forward $100 $-1 #
edge $-1 $177 93.58017877418124897 $101 112.5 $99 $178 forward 7 unknown #
face $-1 $115 $100 $2 $-1 $179 forward single #
point $-1 71.25 67.5 37.5 #
coedge $-1 $103 $130 $180 $181 reversed $10 $-1 #
coedge $-1 $182 $183 $103 $144 forward $184 $185 #
edge $-1 $148 -177.8996197006310638 $186 -0 $143 $187 forward 7 unknown #
coedge $-1 $188 $104 $183 $189 reversed $147 $-1 #
coedge $-1 $104 $188 $106 $151 forward $147 $-1 #
loop $-1 $-1 $104 $190 #
vertex $-1 $105 $191 #
straight-curve $-1 182.375 137.75 37.5 -0.4472135954999579832 0.8944271909999159664 0 I I #
coedge $-1 $107 $106 $192 $193 forward $108 $194 #
edge $-1 $195 70.53452637705190398 $110 112.5 $146 $196 forward 7 unknown #
pcurve $-1 0 reversed { exppc nubs 1 open 2 
	70.53452637705190398 1 112.5 1 
	-70.58742621054589961 70.53452637705190398 
	-70.58742621054589961 112.5 
	0 
	spline forward { sumsur 
	intcurve reversed { ref 2 } I I 
	straight 18.75 93.75 150 0 0 -1 I I 
	18.75 93.75 150 
	none F -70.58742621054589961 F -0 F 0 F 125 OPEN OPEN NON_SINGULAR NON_SINGULAR 
	0 
	0 
	3 -62.2021712949216905 -35.68566700042615736 -8.385254915624210881 
	0 
	0 
	0 
	} I I I I 
	} 0 0 #
pcurve $-1 0 forward { exppc nubs 1 open 2 
	76.26164907272564619 1 112.5 1 
	-0 76.26164907272564619 
	-0 112.5 
	0 
	spline forward { ref 5 } I I I I 
	} 0 0 #
face $-1 $190 $108 $2 $-1 $197 forward single #
point $-1 183.75 135 37.5 #
coedge $-1 $192 $175 $112 $157 reversed $198 $199 #
edge $-1 $158 -33.64554517989996896 $160 -0 $156 $200 forward 7 unknown #
vertex $-1 $157 $201 #
straight-curve $-1 187.5 67.5 150 0 0 -1 I I #
vertex $-1 $176 $202 #
straight-curve $-1 153.75 67.5 150 0 0 -1 I I #
plane-surface $-1 153.75 67.5 150 0 -1 0 0 0 -1 forward_v I I I I #
face $-1 $140 $135 $2 $-1 $203 forward single #
loop $-1 $-1 $131 $123 #
plane-surface $-1 33.75 93.75 150 -1 -0 -0 0 0 1 forward_v I I I I #
coedge $-1 $204 $205 $130 $167 forward $124 $-1 #
edge $-1 $206 -40.625 $170 -25.625 $166 $207 forward 7 unknown #
coedge $-1 $208 $131 $134 $173 reversed $164 $-1 #
coedge $-1 $131 $208 $204 $209 forward $164 $-1 #
vertex $-1 $132 $210 #
straight-curve $-1 33.75 96.875 37.5 0 -1 0 I I #
coedge $-1 $134 $133 $211 $212 forward $135 $-1 #
edge $-1 $213 102.9348399256353872 $136 112.5 $134 $214 forward 7 unknown #
point $-1 33.75 71.25 37.5 #
coedge $-1 $156 $211 $138 $176 reversed $198 $215 #
edge $-1 $160 -155.9118722431784647 $177 -23.96064954391302138 $175 $216 forward 7 unknown #
vertex $-1 $212 $217 #
straight-curve $-1 71.25 67.5 150 0 0 -1 I I #
cone-surface $-1 112.5 67.5 150 0 0 -1 41.25 0 0 1 I I 0 -1 41.25 forward I I I I #
coedge $-1 $218 $219 $142 $181 forward $220 $-1 #
edge $-1 $186 -14.55213750217998303 $206 0.9095085938862433883 $180 $221 forward 7 unknown #
coedge $-1 $222 $143 $219 $223 reversed $184 $224 #
coedge $-1 $143 $222 $145 $189 forward $184 $225 #
loop $-1 $-1 $143 $226 #
pcurve $-1 0 forward { exppc nubs 1 open 2 
	-177.8996197006310638 1 0 1 
	-0 112.5 
	-169.7015956323136265 112.5 
	0.0008872839949940616389 
	spline forward { sumsur 
	intcurve reversed { exactcur full nubs 3 open 10 
	0 3 16.77050983124842176 1 35.89183300722136494 1 58.39183300722136494 1 92.34952727523668159 1 
	111.4708504512096283 1 126.9324965472758606 1 142.3941426433420929 1 157.1293046716334629 1 169.7015956323136265 3 
	180 142.5 150 
	176.0471529247895148 138.5471529247895148 150 
	164.1622020230355758 134.4000179405790902 150 
	145.2691585239823553 130.0999253098742088 150.0000000000000568 
	119.8484720160740551 132.2882506492801156 149.9999999999999432 
	94.83051120179919735 128.5216914868922231 150.0000000000000284 
	72.39660702767639577 124.2152316843328208 149.9999999999999716 
	56.2591251945805837 119.9571361902404192 150.0000000000000284 
	41.48211957463386312 116.3253963897500114 149.9999999999999716 
	27.65644576954405309 112.8283411017786477 150 
	18.97570748420957187 110.0752358280698786 150 
	15 108.75 150 
	0 
	null_surface 
	null_surface 
	nullbs 
	nullbs 
	I I 
	0 
	0 
	8 16.77050983124842176 35.89183300722136494 58.39183300722136494 92.34952727523668159 111.4708504512096283 126.9324965472758606 142.3941426433420929 157.1293046716334629 
	F 1 F 0 } I I 
	straight 18.75 93.75 150 0 0 -1 I I 
	18.75 93.75 150 
	none F -169.7015956323136265 F -0 F 70.92201871561152871 F 125 OPEN OPEN NON_SINGULAR NON_SINGULAR 
	0 
	0 
	8 -157.1293046716334629 -142.3941426433420929 -126.9324965472758606 -111.4708504512096283 -92.34952727523668159 -58.39183300722136494 -35.89183300722136494 -16.77050983124842176 
	0 
	0 
	0 
	} I I I I 
	} 0 0 #
vertex $-1 $144 $227 #
intcurve-curve $-1 forward { surfintcur full nubs 3 open 17 
	-177.8996197006310638 3 -167.0817130278422837 2 -156.8909382019748762 2 -150.8276405611871098 2 -142.8652763651702173 2 
	-132.0006862240664702 2 -118.2735108341045702 2 -110.0647556940791958 2 -89.12911455918855097 2 -76.74475499142275225 2 
	-61.10960204798674056 2 -52.59097475593694071 2 -43.91755281326702942 2 -36.17416490900034631 2 -29.36684218681485703 2 
	-10.6064895470965741 2 -0 3 
	180 142.5 37.5 
	177.9746492830128943 140.4746492830128943 37.5 
	175.535115835594155 138.985118117509387 37.5 
	170.4726709606959503 136.68933154137099 37.5 
	167.7889237617900733 135.8104523641221419 37.5 
	162.831388662001018 134.3691763496795204 37.5 
	160.9691421096552517 133.8638399681042586 37.5 
	156.6393019412314231 132.80885529612749 37.5 
	154.1619140319619135 132.2941598241144163 37.5 
	148.2512492695125275 131.3616452310909892 37.5 
	145.2096836766531851 131.1020767837070764 37.5 
	137.1647766217046751 130.9237240247730938 37.5 
	132.6543547305380457 131.1291661688262025 37.5 
	125.420102443213807 131.268874772742322 37.5 
	123.0798582577313454 131.2717532106930207 37.5 
	113.5203914975117101 130.9441168634546671 37.5 
	106.6926335903544754 130.1656201342957786 37.5 
	95.87992006264413192 128.5330384640480474 37.5 
	91.77471992475211948 127.8217908939914196 37.5 
	83.87128325797188211 126.4002169775475863 37.5 
	79.46956083900842316 125.5553011361813844 37.5 
	72.70265860768482469 124.0926598728919998 37.5 
	70.53769152465375214 123.5942693531872578 37.5 
	65.62841257299869824 122.4005991389175847 37.5 
	63.15697560934825106 121.7706299482423731 37.5 
	58.48530782892937907 120.5722838653545068 37.5 
	55.98313564939396514 119.9272642948691612 37.5 
	49.97091797477023078 118.4163993693980501 37.5 
	47.15615357748114889 117.7186994198052901 37.5 
	36.58495758055536839 115.0921276790867012 37.5 
	31.10864336050899581 113.7255746022123617 37.5 
	21.72294151703017917 110.94495016956526 37.5 
	18.35406649475928731 109.868022164919779 37.5 
	15 108.75 37.5 
	0.0008872839949656399295 
	plane 100 100 37.5 0 0 1 1 0 0 forward_v I I I I 
	spline forward { ref 8 } I I I I 
	nullbs 
	nubs 3 open 17 
	-177.8996197006310638 3 -167.0817130278422837 3 -156.8909382019748762 3 -150.8276405611871098 3 -142.8652763651702173 3 
	-132.0006862240664702 3 -118.2735108341045702 3 -110.0647556940791958 3 -89.12911455918855097 3 -76.74475499142275225 3 
	-61.10960204798674056 3 -52.59097475593694071 3 -43.91755281326702942 3 -36.17416490900034631 3 -29.36684218681485703 3 
	-10.6064895470965741 3 -0 3 
	0 112.5 
	-2.88394404858941833 112.5 
	-5.665769707090927199 112.5 
	-8.547730899516068348 112.5 
	-11.18438799897787739 112.5 
	-13.93024935708663214 112.5 
	-17.0954617990321367 112.5 
	-18.99383206452434436 112.5 
	-20.89492605683778237 112.5 
	-22.79394906537621068 112.5 
	-25.32771297114344478 112.5 
	-27.85744910363165516 112.5000000000000284 
	-30.39193208716827144 112.5000000000000284 
	-33.87446497124847156 112.5000000000000284 
	-36.9371713248882827 112.5000000000000284 
	-40.52257611622439981 112.5000000000000284 
	-45.00704375532092882 112.5000000000000284 
	-49.50954987215577319 112.5 
	-54.03010148829922343 112.5 
	-56.73028089037745758 112.5 
	-59.06205907577031411 112.5000000000000142 
	-61.74868741519911453 112.5 
	-68.61736563723373195 112.4999999999999858 
	-75.46304865008922036 112.5 
	-82.33158322026548603 112.5 
	-86.38993456106528868 112.5 
	-90.54923081967859844 112.5 
	-94.09323796601769629 112.5 
	-98.57379445579162791 112.5 
	-103.0540515688315111 112.5 
	-107.5351291040202284 112.5 
	-109.9777423630920055 112.5 
	-112.199773835650646 112.5 
	-114.7041377109549103 112.5 
	-117.2529154463683625 112.5 
	-119.8031341859938266 112.5 
	-122.3510802250185918 112.5 
	-124.6256401746174589 112.5 
	-127.2092578532795955 112.5 
	-130.5078189066865093 112.5 
	-133.4080881917154215 112.5 
	-136.3081183131174612 112.5 
	-139.2083401671322918 112.5 
	-147.2011872756871753 112.5 
	-152.8415200650295844 112.5 
	-159.0952459052940355 112.5 
	-162.6305952315097727 112.5 
	-166.1662422516961044 112.5 
	-169.7015956323136265 112.5 
	
	F -177.8996197006310638 F -0 
	0 
	1 -177.8996197006310638 
	8 -157.2415229404914783 -136.9200420496867423 -113.6243919276803069 -78.72353920349723921 -56.39821586921625851 -39.21058938872550925 -26.77502930368513034 -12.5895068804496848 
	} I I #
coedge $-1 $146 $145 $228 $229 forward $147 $-1 #
edge $-1 $230 71.12963226411801543 $148 112.5 $183 $231 forward 7 unknown #
face $-1 $226 $147 $2 $-1 $232 forward single #
point $-1 180 142.5 37.5 #
coedge $-1 $228 $156 $150 $193 reversed $198 $233 #
edge $-1 $195 -43.16418709427820488 $158 -0 $192 $234 forward 7 unknown #
pcurve $-1 0 forward { exppc nubs 3 open 8 
	-43.16418709427820488 3 -36.92346627211455967 3 -32.5849208813667488 3 -25.56728135415690772 3 -20.91724940800495247 3 
	-13.96494515237429823 3 -7.05516200535623117 3 0 3 
	-70.58742621054589961 70.53452637705190398 
	-68.22935614159659679 70.41758793484841306 
	-65.88753029411140005 70.34155863685970189 
	-63.52703691974631539 70.30542104226967126 
	-61.8966124924300658 70.28046032108997565 
	-59.42356252186554144 70.26306039896486766 
	-56.43401036734299225 70.31587410234567415 
	-51.60020592926297667 70.40126853622680869 
	-46.79648090679327765 70.63902408132318556 
	-41.97452064944575767 70.98871815707917676 
	-38.77546570177227636 71.22071728264532453 
	-35.64599057249401426 71.49463511407591909 
	-32.41485459513490497 71.81634763686759015 
	-27.57665145401638185 72.29807002466385768 
	-22.77020055281623456 72.86491448438637519 
	-17.95076537968455455 73.50917108586986615 
	-13.16173293005533651 74.14936348592395632 
	-9.203623652325957138 74.75514283968873031 
	-6.94395501549662697 75.10963956559939447 
	-4.626711277437297376 75.47316867110207284 
	-2.316652286406126304 75.85360343376014214 
	-0 76.26164907272564619 
	0.000859965419513500297 
	spline forward { ref 5 } I I I I 
	} 0 0 #
vertex $-1 $193 $235 #
straight-curve $-1 183.75 135 150 0 0 -1 I I #
spline-surface $-1 forward { sumsur 
	intcurve reversed { ref 2 } I I 
	straight 18.75 93.75 150 0 0 -1 I I 
	18.75 93.75 150 
	none F -70.58742621054589961 F -0 F 70.26134046812583733 F 112.501215139779859 OPEN OPEN NON_SINGULAR NON_SINGULAR 
	0 
	0 
	3 -62.2021712949216905 -35.68566700042615736 -8.385254915624210881 
	0 
	0 
	0 
	} I I I I #
loop $-1 $-1 $236 $237 #
pcurve $-1 0 forward { exppc nubs 1 open 2 
	0 1 33.64554517989996896 1 
	379.8636197750161614 354.8462108688829062 
	413.8101932428954797 354.8462108688829062 
	0.0001002407159607250755 
	spline forward { exactsur full nubs 3 3 open open none none 3 3 
	0 3 250 1 500 3 
	0 3 250 1 500 3 
	-240 -300 25 
	-181.0744349011210659 -300 25 
	10 -300 25.00000000000000355 
	201.0744349011210659 -300 25 
	260 -300 25 
	-240 -241.0744349011210659 25 
	-181.0744349011210659 -241.0744349011210659 5.358144967040345819 
	10 -241.0744349011210659 -4.462782549439477719 
	201.0744349011210659 -241.0744349011210659 -14.28371006591930836 
	260 -241.0744349011210659 -33.92556509887896254 
	-240 -50 25.00000000000000355 
	-181.0744349011210659 -50 -4.462782549439477719 
	10 -50 24.99999999999999645 
	201.0744349011210659 -50 54.46278254943948127 
	260 -50 25.00000000000000355 
	-240 141.0744349011210659 25 
	-181.0744349011210659 141.0744349011210659 -14.28371006591930836 
	10 141.0744349011210659 54.46278254943948127 
	201.0744349011210659 141.0744349011210659 123.2092751647982709 
	260 141.0744349011210659 83.92556509887896254 
	-240 200 25 
	-181.0744349011210659 200 -33.92556509887896254 
	10 200 25.00000000000000355 
	201.0744349011210659 200 83.92556509887896254 
	260 200 25 
	0 
	0 
	0 
	0 
	0 
	0 
	0 
	F 1 F 0 F 1 F 0 } I I I I 
	} 0 0 #
intcurve-curve $-1 forward { surfintcur full nubs 3 open 2 
	-33.64554517989996896 3 -0 3 
	187.5 67.49999999999998579 73.73835092727435381 
	176.2755838319961015 67.49999999999998579 73.86925771893145054 
	164.9027689600706026 67.49999999999998579 73.18262936140919805 
	153.7499999999999716 67.49999999999998579 72.00108558960242533 
	0.0001002407158882636566 
	plane 153.75 67.5 150 0 -1 0 0 0 -1 forward_v I I I I 
	spline forward { ref 14 } I I I I 
	nullbs 
	nubs 3 open 2 
	-33.64554517989996896 3 -0 3 
	413.8101932428954797 354.8462108688829062 
	402.5345620408226068 354.8462108688829062 
	391.1292082644350785 354.8462108688829062 
	379.8636197750161614 354.8462108688829062 
	
	F -33.64554517989996896 F -0 
	0 
	1 -33.64554517989996896 
	1 -0 
	} I I #
point $-1 187.5 67.5 73.73835092727435381 #
point $-1 153.75 67.50000000000001421 72.00108558960243954 #
plane-surface $-1 33.75 71.25 150 -0.0995037190209989153 -0.995037190209989153 -0 0 0 -1 forward_v I I I I #
coedge $-1 $238 $166 $169 $209 reversed $124 $-1 #
coedge $-1 $166 $238 $218 $239 forward $124 $-1 #
vertex $-1 $167 $240 #
straight-curve $-1 59.375 93.75 37.5 1 0 0 I I #
coedge $-1 $169 $168 $241 $242 forward $164 $-1 #
edge $-1 $243 101.3163903043172951 $170 112.5 $169 $244 forward 7 unknown #
point $-1 33.75 93.75 37.5 #
coedge $-1 $175 $241 $172 $212 reversed $198 $245 #
edge $-1 $177 -38.69997425541984626 $213 -0 $211 $246 forward 7 unknown #
vertex $-1 $242 $247 #
straight-curve $-1 33.75 71.25 150 0 0 -1 I I #
pcurve $-1 0 reversed { exppc nubs 3 open 10 
	-155.9118722431784647 3 -143.3218125682663242 3 -127.7231728685809031 3 -112.0712078434332 3 -95.78317272698382112 3 
	-80.23554693559492534 3 -64.34058929005206551 3 -47.35396680444654294 3 -30.9530316331482922 3 -23.96064954391302138 3 
	379.8636197750162182 354.8462108688829062 
	379.857927249236468 358.780025869633505 
	379.2409011637852245 362.6531457901330668 
	378.0642464449211957 366.3733104283523971 
	376.5582986787256345 371.1345828194702108 
	374.1885409876643394 375.5402611025240276 
	371.0889692928992645 379.4549608635367122 
	367.974914464026881 383.3879525458895614 
	364.2134177428561657 386.7171630788022298 
	359.9067879022099987 389.291075396783981 
	355.5832277398890255 391.8751063377072228 
	350.7993405779708951 393.6223291687520032 
	345.8085891931635842 394.319015507132292 
	341.2125318523419537 394.9606043407316633 
	336.4998909794947508 394.6853003605825165 
	332.0147401150549058 393.4859041710003567 
	327.4385752889327819 392.2621694915569037 
	323.1416323250471692 390.0940391954342203 
	319.3906667654815692 387.1997878559968171 
	315.2873106378339685 384.0336313610787329 
	311.8797553102910456 380.0574269677806001 
	309.2958069431151671 375.5660156548637474 
	306.7568974808781945 371.1528908316205388 
	305.0541341855790165 366.3285632616034491 
	304.2550855298337638 361.302370485906863 
	303.9156601253413328 359.1673096186100338 
	303.7432331905996534 357.016340213967112 
	303.7432113942475667 354.8462108688829062 
	0.0005239678415194109779 
	spline forward { ref 14 } I I I I 
	} 0 0 #
intcurve-curve $-1 forward { surfintcur full nubs 3 open 10 
	-155.9118722431784647 3 -143.3218125682663242 2 -127.7231728685809031 2 -112.0712078434332 2 -95.78317272698382112 2 
	-80.23554693559492534 2 -64.34058929005206551 2 -47.35396680444654294 2 -30.9530316331482922 2 -23.96064954391302138 3 
	153.75 67.50000000000001421 72.00108558960243954 
	153.75 71.61807827166744289 72.74801308669202626 
	153.1334339998074938 75.73920018571868695 73.37597491675528261 
	150.366188536496594 84.6586885543316896 74.41553737686361103 
	147.9174508035567612 89.27608981506523378 74.72491673910288057 
	141.3951183924859833 97.39734397168240321 74.7319251531141191 
	137.3992333087354609 100.7938763835039708 74.42707152063844944 
	128.2004959540485913 106.0250375214667429 73.25149500240584644 
	123.0635930084908978 107.7289403971941795 72.37454419219341162 
	112.7341264792710973 109.0617554518375414 70.31291282034581513 
	107.6342057284530398 108.7714946797511288 69.16167507233664935 
	97.72207612338540628 106.3558229996727107 66.71766110854329668 
	92.98613901211776067 104.2061678962517988 65.43909432852947816 
	84.26388615630159507 98.07172771156862723 62.8515800657410324 
	80.42340625460531101 94.02166558062083368 61.56730984065688261 
	74.65964079974763479 84.77224084634508472 59.26347768845704422 
	72.72645709181486495 79.69941003509546817 58.25595117485037377 
	71.4425898152652934 72.09986361127420196 57.0459191324395789 
	71.25 69.80128211166626784 56.71619834862111276 
	71.25 67.5 56.41982122581875103 
	0.0005239678415194109779 
	cone 112.5 67.5 150 0 0 -1 41.25 0 0 1 I I 0 -1 41.25 forward I I I I 
	spline forward { ref 14 } I I I I 
	nullbs 
	nubs 3 open 10 
	-155.9118722431784647 3 -143.3218125682663242 3 -127.7231728685809031 3 -112.0712078434332 3 -95.78317272698382112 3 
	-80.23554693559492534 3 -64.34058929005206551 3 -47.35396680444654294 3 -30.9530316331482922 3 -23.96064954391302138 3 
	379.8636197750162182 354.8462108688829062 
	379.857927249236468 358.780025869633505 
	379.2409011637852245 362.6531457901330668 
	378.0642464449211957 366.3733104283523971 
	376.5582986787256345 371.1345828194702108 
	374.1885409876643394 375.5402611025240276 
	371.0889692928992645 379.4549608635367122 
	367.974914464026881 383.3879525458895614 
	364.2134177428561657 386.7171630788022298 
	359.9067879022099987 389.291075396783981 
	355.5832277398890255 391.8751063377072228 
	350.7993405779708951 393.6223291687520032 
	345.8085891931635842 394.319015507132292 
	341.2125318523419537 394.9606043407316633 
	336.4998909794947508 394.6853003605825165 
	332.0147401150549058 393.4859041710003567 
	327.4385752889327819 392.2621694915569037 
	323.1416323250471692 390.0940391954342203 
	319.3906667654815692 387.1997878559968171 
	315.2873106378339685 384.0336313610787329 
	311.8797553102910456 380.0574269677806001 
	309.2958069431151671 375.5660156548637474 
	306.7568974808781945 371.1528908316205388 
	305.0541341855790165 366.3285632616034491 
	304.2550855298337638 361.302370485906863 
	303.9156601253413328 359.1673096186100338 
	303.7432331905996534 357.016340213967112 
	303.7432113942475667 354.8462108688829062 
	
	F -155.9118722431784647 F -23.96064954391302138 
	0 
	2 -155.9118722431784647 -23.96064954391302138 
	0 
	} I I #
point $-1 71.25 67.5 56.41982122581875103 #
coedge $-1 $248 $180 $205 $239 reversed $220 $-1 #
coedge $-1 $180 $248 $182 $223 forward $220 $-1 #
loop $-1 $-1 $180 $249 #
straight-curve $-1 18.52941176470587692 94.6323529411764639 37.5 0.2425356250363329691 -0.9701425001453318764 0 I I #
coedge $-1 $183 $182 $250 $251 forward $184 $252 #
edge $-1 $253 106.4762562626173263 $186 112.5 $219 $254 forward 7 unknown #
pcurve $-1 0 reversed { exppc nubs 1 open 2 
	106.4762562626173263 1 112.5 1 
	-169.7015956323136265 106.4762562626173548 
	-169.7015956323136265 112.5 
	0 
	spline forward { sumsur 
	intcurve reversed { ref 9 } I I 
	straight 18.75 93.75 150 0 0 -1 I I 
	18.75 93.75 150 
	none F -169.7015956323136265 F -0 F 0 F 125 OPEN OPEN NON_SINGULAR NON_SINGULAR 
	0 
	0 
	8 -157.1293046716334629 -142.3941426433420929 -126.9324965472758606 -111.4708504512096283 -92.34952727523668159 -58.39183300722136494 -35.89183300722136494 -16.77050983124842176 
	0 
	0 
	0 
	} I I I I 
	} 0 0 #
pcurve $-1 0 forward { exppc nubs 1 open 2 
	71.12963226411801543 1 112.5 1 
	-0 71.12963226411801543 
	-0 112.5 
	0 
	spline forward { ref 19 } I I I I 
	} 0 0 #
face $-1 $249 $184 $2 $-1 $255 forward single #
point $-1 15 108.75 37.5 #
coedge $-1 $250 $192 $188 $229 reversed $198 $256 #
edge $-1 $230 -8.406686886616334675 $195 -0 $228 $257 forward 7 unknown #
vertex $-1 $229 $258 #
straight-curve $-1 180 142.5 150 0 0 -1 I I #
plane-surface $-1 183.75 135 150 0.8944271909999159664 0.4472135954999579832 0 0 0 -1 forward_v I I I I #
pcurve $-1 0 reversed { exppc nubs 3 open 8 
	-43.16418709427820488 3 -36.92346627211455967 3 -32.5849208813667488 3 -25.56728135415690772 3 -20.91724940800495247 3 
	-13.96494515237429823 3 -7.05516200535623117 3 0 3 
	409.9131664370328849 421.7168374091372129 
	408.5658258144658248 419.6366137508393308 
	407.4822207371016702 417.4034320286319826 
	406.5551648701531917 415.105129346774163 
	405.9186113054997804 413.5270229812918501 
	405.0208386312302764 411.0978457251753184 
	404.2046721231625952 408.0862017000874289 
	402.9155029962151389 403.32918403258833 
	402.1758100362894197 398.4150242406357734 
	402.0472923060531798 393.4880260520872071 
	401.9644241933652324 390.3111022116853519 
	402.13396100517474 387.1816753601661389 
	402.5823418491548296 383.9957767034787253 
	403.2387585864859716 379.3317121481620688 
	404.4676404408772328 374.7491645832188283 
	406.1284544967582519 370.3414752215261387 
	407.7582245789246826 366.0161744885916164 
	409.5257400802593111 362.5959794466535868 
	410.5622858333658769 360.6689251259738285 
	411.6147604349907851 358.712257296899736 
	412.7242890549189838 356.7918269995341802 
	413.8101932428954797 354.8462108688829062 
	0.000859965419513500297 
	spline forward { ref 14 } I I I I 
	} 0 0 #
intcurve-curve $-1 forward { surfintcur full nubs 3 open 8 
	-43.16418709427820488 3 -36.92346627211455967 2 -32.5849208813667488 2 -25.56728135415690772 2 -20.91724940800495247 2 
	-13.96494515237429823 2 -7.05516200535623117 2 -0 3 
	183.7499999999999716 134.9999999999999716 79.46547362294809602 
	182.44226521100029 133.0383978165004635 79.58238639446847174 
	181.3893999119329976 130.9207784899561204 79.65863198437956783 
	179.8668946825770547 127.2211779234062021 79.71956927214856137 
	178.9887797176316724 124.8819878059983921 79.73683653679701422 
	176.9122847125065903 117.2864169615613434 79.59886592422149931 
	176.2020735770787212 112.4317907639723444 79.3603666910004506 
	175.9953568430128428 104.3636520574152371 78.77997105968752578 
	176.1674307959402199 101.2010294663837158 78.5055759860305642 
	177.2564456141020059 93.16841327314688215 77.70234148196416868 
	178.4699226249447008 88.44616036194580033 77.13332054271884886 
	181.6710354953644071 79.34467085407035825 75.85226683973199613 
	183.3792412821427718 75.73784566352632908 75.24603926279932864 
	185.3957952522800952 71.61936799986932556 74.52719827679928244 
	186.4642227286131231 69.57155454277375384 74.14629372083292935 
	187.5 67.49999999999998579 73.73835092727435381 
	0.000859965419513500297 
	spline forward { ref 5 } I I I I 
	spline forward { ref 14 } I I I I 
	nubs 3 open 8 
	-43.16418709427820488 3 -36.92346627211455967 3 -32.5849208813667488 3 -25.56728135415690772 3 -20.91724940800495247 3 
	-13.96494515237429823 3 -7.05516200535623117 3 -0 3 
	-70.58742621054589961 70.53452637705190398 
	-68.22935614159659679 70.41758793484841306 
	-65.88753029411140005 70.34155863685970189 
	-63.52703691974631539 70.30542104226967126 
	-61.8966124924300658 70.28046032108997565 
	-59.42356252186554144 70.26306039896486766 
	-56.43401036734299225 70.31587410234567415 
	-51.60020592926297667 70.40126853622680869 
	-46.79648090679327765 70.63902408132318556 
	-41.97452064944575767 70.98871815707917676 
	-38.77546570177227636 71.22071728264532453 
	-35.64599057249401426 71.49463511407591909 
	-32.41485459513490497 71.81634763686759015 
	-27.57665145401638185 72.29807002466385768 
	-22.77020055281623456 72.86491448438637519 
	-17.95076537968455455 73.50917108586986615 
	-13.16173293005533651 74.14936348592395632 
	-9.203623652325957138 74.75514283968873031 
	-6.94395501549662697 75.10963956559939447 
	-4.626711277437297376 75.47316867110207284 
	-2.316652286406126304 75.85360343376014214 
	-0 76.26164907272564619 
	
	nubs 3 open 8 
	-43.16418709427820488 3 -36.92346627211455967 3 -32.5849208813667488 3 -25.56728135415690772 3 -20.91724940800495247 3 
	-13.96494515237429823 3 -7.05516200535623117 3 -0 3 
	409.9131664370328849 421.7168374091372129 
	408.5658258144658248 419.6366137508393308 
	407.4822207371016702 417.4034320286319826 
	406.5551648701531917 415.105129346774163 
	405.9186113054997804 413.5270229812918501 
	405.0208386312302764 411.0978457251753184 
	404.2046721231625952 408.0862017000874289 
	402.9155029962151389 403.32918403258833 
	402.1758100362894197 398.4150242406357734 
	402.0472923060531798 393.4880260520872071 
	401.9644241933652324 390.3111022116853519 
	402.13396100517474 387.1816753601661389 
	402.5823418491548296 383.9957767034787253 
	403.2387585864859716 379.3317121481620688 
	404.4676404408772328 374.7491645832188283 
	406.1284544967582519 370.3414752215261387 
	407.7582245789246826 366.0161744885916164 
	409.5257400802593111 362.5959794466535868 
	410.5622858333658769 360.6689251259738285 
	411.6147604349907851 358.712257296899736 
	412.7242890549189838 356.7918269995341802 
	413.8101932428954797 354.8462108688829062 
	
	F -43.16418709427820488 F -0 
	0 
	2 -43.16418709427820488 -0 
	3 -35.87655334201203061 -22.49822337348432555 -8.344005537810335937 
	} I I #
point $-1 183.75 135 79.46547362294809602 #
coedge $-1 $241 $259 $238 $260 reversed $198 $261 #
face $-1 $-1 $198 $2 $-1 $262 forward single #
coedge $-1 $205 $204 $236 $260 forward $124 $-1 #
edge $-1 $263 105.6774613780640522 $206 112.5 $205 $264 forward 7 unknown #
point $-1 18.75 93.75 37.5 #
coedge $-1 $211 $236 $208 $242 reversed $198 $265 #
edge $-1 $213 -22.52317812970354538 $243 -0 $241 $266 forward 7 unknown #
vertex $-1 $260 $267 #
straight-curve $-1 33.75 93.75 150 0 0 -1 I I #
pcurve $-1 0 forward { exppc nubs 1 open 2 
	0 1 38.69997425541984626 1 
	270.7344037686087859 358.3622084764854208 
	303.7432113942475667 354.8462108688829062 
	0.008763123435689121332 
	spline forward { ref 14 } I I I I 
	} 0 0 #
intcurve-curve $-1 forward { surfintcur full nubs 3 open 2 
	-38.69997425541984626 3 -0 3 
	71.25000000000001421 67.49999999999998579 56.41982122581875814 
	58.73365883154041001 68.75163411684594905 53.4998393854453127 
	46.17008677329769029 70.00799132267025016 50.322250430169575 
	33.75 71.25000000000001421 47.0651600743646128 
	3.458206253286742239e-05 
	plane 33.75 71.25 150 -0.0995037190209989153 -0.995037190209989153 -0 0 0 -1 forward_v I I I I 
	spline forward { ref 14 } I I I I 
	nullbs 
	nubs 3 open 2 
	-38.69997425541984626 3 -0 3 
	303.7432113942475667 354.8462108688829062 
	292.7646875434139702 356.0025606805505163 
	281.6991909831478438 357.1837748499413578 
	270.7344037686087859 358.3622084764854208 
	
	F -38.69997425541984626 F -0 
	0 
	1 -38.69997425541984626 
	1 -0 
	} I I #
point $-1 33.75 71.25 47.0651600743646128 #
coedge $-1 $219 $218 $259 $268 forward $220 $-1 #
face $-1 $237 $220 $2 $-1 $269 forward single #
coedge $-1 $259 $228 $222 $251 reversed $198 $270 #
edge $-1 $253 -148.1045082313568741 $230 -0 $250 $271 forward 7 unknown #
pcurve $-1 0 forward { exppc nubs 3 open 17 
	-148.1045082313568741 3 -136.9213255174378219 3 -125.5510022761188367 3 -118.1882198025074189 3 -109.1145906807219887 3 
	-97.21389063002547459 3 -80.81836123957711493 3 -71.79516242482506527 3 -61.63704838867010949 3 -50.62420278705837262 3 
	-45.05803875995319174 3 -34.2656411497366733 3 -28.21391354745234992 3 -17.64746895522056036 3 -12.63324319765855464 3 
	-6.943781913840209263 3 0 3 
	-169.7015956323136265 106.4762562626173263 
	-165.6758166993960515 105.3177369252460522 
	-161.6523616007362421 104.1529418342430233 
	-157.6300407200205029 102.9830417511098517 
	-153.5403092325892374 101.79353515801904 
	-149.4502575327420573 100.5980268962247806 
	-145.5425022360458627 99.46101757356129269 
	-143.0122133750339515 98.72479900162706201 
	-140.334330283582716 97.94783726475705521 
	-137.4979688725354947 97.13086999076105599 
	-134.0023635736270933 96.12401835299294817 
	-130.4165927209874098 95.09983361227128285 
	-126.8120070345019457 94.08478553422452251 
	-122.0845211704563553 92.75352977901138729 
	-117.3695955455493731 91.45046164285948009 
	-112.6452531611925139 90.16760112542428374 
	-106.1355955360798902 88.39995135115525215 
	-99.80462502162833971 86.72380576849238309 
	-93.86744230750142037 85.21242159750309497 
	-90.60493966863047888 84.38191071656494557 
	-86.82041247119749983 83.44071862139409745 
	-83.2835568000255364 82.588822811874536 
	-79.29993235076523206 81.6293171688579946 
	-75.30481483309418422 80.70012633076615316 
	-71.30469143583336233 79.80833019680295592 
	-66.96689107681227426 78.84125163299461292 
	-62.49750422949329476 77.88978502219927691 
	-57.92487105834391059 76.97737143337496946 
	-55.62098933515827781 76.51765972841216978 
	-53.31450759515028892 76.0728902086175367 
	-51.00242821355283951 75.64724847991945467 
	-46.49872447793732988 74.81814016347101415 
	-42.00964315938743709 74.06881876170641021 
	-37.55495183830303318 73.42867059194060175 
	-35.03702363511193596 73.06683920684653799 
	-32.64038312771918982 72.75516986810238507 
	-30.24817125947138763 72.4751795152942293 
	-26.12450531795658648 71.9925355249551302 
	-22.00093577593001726 71.60404253968596322 
	-17.86344760471180848 71.32771280899819999 
	-15.94157947110371154 71.19935732330240796 
	-14.15697125892230446 71.10457155387699402 
	-12.53071502150748096 71.04062338716030922 
	-10.66731452664029689 70.96735015827779591 
	-8.789029021177224621 70.92538874818457373 
	-6.922219252913631493 70.92475486599329315 
	-4.590002661634720482 70.92396295318644661 
	-2.327938441147114457 70.98363238726095403 
	-0 71.12963226411801543 
	0.0009721187874621147265 
	spline forward { ref 19 } I I I I 
	} 0 0 #
vertex $-1 $251 $272 #
straight-curve $-1 15 108.75 150 0 0 -1 I I #
spline-surface $-1 forward { sumsur 
	intcurve reversed { ref 9 } I I 
	straight 18.75 93.75 150 0 0 -1 I I 
	18.75 93.75 150 
	none F -169.7015956323136265 F -0 F 70.92201871561152871 F 112.5017745679899548 OPEN OPEN NON_SINGULAR NON_SINGULAR 
	0 
	0 
	8 -157.1293046716334629 -142.3941426433420929 -126.9324965472758606 -111.4708504512096283 -92.34952727523668159 -58.39183300722136494 -35.89183300722136494 -16.77050983124842176 
	0 
	0 
	0 
	} I I I I #
pcurve $-1 0 forward { exppc nubs 1 open 2 
	0 1 8.406686886616334675 1 
	409.9131664370328849 421.7168374091372129 
	406.0511471528603806 429.7876258296809056 
	0.01131892113653774727 
	spline forward { ref 14 } I I I I 
	} 0 0 #
intcurve-curve $-1 forward { surfintcur full nubs 3 open 2 
	-8.406686886616334675 3 -0 3 
	180 142.4999999999999716 78.87036773588198457 
	181.2477848392696558 140.0044303214606316 79.13029657555561869 
	182.4983266012082481 137.5033467975834469 79.3274313453344746 
	183.7499999999999716 134.9999999999999716 79.46547362294809602 
	5.270694682422451329e-08 
	plane 183.75 135 150 0.8944271909999159664 0.4472135954999579832 0 0 0 -1 forward_v I I I I 
	spline forward { ref 14 } I I I I 
	nullbs 
	nubs 3 open 2 
	-8.406686886616334675 3 -0 3 
	406.0511471528603806 429.7876258296809056 
	407.3226007018869836 427.0897036303193772 
	408.6099717461114551 424.3995902651624874 
	409.9131664370328849 421.7168374091372129 
	
	F -8.406686886616334675 F -0 
	0 
	1 -8.406686886616334675 
	1 -0 
	} I I #
point $-1 180 142.5 78.87036773588198457 #
coedge $-1 $236 $250 $248 $268 reversed $198 $273 #
edge $-1 $243 -15.60366235124724099 $263 -0 $236 $274 forward 7 unknown #
pcurve $-1 0 forward { exppc nubs 1 open 2 
	0 1 15.60366235124724277 1 
	257.6331876659054387 379.8636197750162182 
	270.7344037686087859 379.8636197750162182 
	1.007788545486975722e-06 
	spline forward { ref 14 } I I I I 
	} 0 0 #
spline-surface $-1 forward { exactsur full nubs 3 3 open open none none 2 2 
	254.35943681029201 3 413.8119414266927834 3 
	354.8444626850856025 3 429.7896606831904478 3 
	14.99766742106097084 67.49813088522736848 41.63418501017973483 
	75.9251613066224138 67.49813088522736848 58.20562414160089304 
	136.592942974009361 67.49813088522736848 74.33208777785526422 
	187.5016744423065518 67.49813088522736848 73.73797421053856738 
	14.99766742106097084 94.20801225639036147 43.83360617470461307 
	75.9251613066224138 94.20801225639036147 61.78658849524711627 
	136.592942974009361 94.20801225639036147 79.26326818991580581 
	187.5016744423065518 94.20801225639036147 78.84220988622286086 
	14.99766742106097084 119.5380418900937798 44.33835414305935529 
	75.9251613066224138 119.5380418900937798 63.3187614948069637 
	136.592942974009361 119.5380418900937798 81.79153908997375311 
	187.5016744423065518 119.5380418900937798 81.18941789198835579 
	14.99766742106097084 142.5018704930750175 41.93703810855409841 
	75.9251613066224138 142.5018704930750175 61.33762064899727307 
	136.592942974009361 142.5018704930750175 80.19924630215264472 
	187.5016744423065518 142.5018704930750175 78.80881236736524897 
	0 
	0 
	0 
	0 
	0 
	0 
	0 
	F 1 F 0 F 1 F 0 } I I I I #
vertex $-1 $260 $275 #
straight-curve $-1 18.75 93.75 150 0 0 -1 I I #
pcurve $-1 0 forward { exppc nubs 1 open 2 
	0 1 22.52317812970354538 1 
	270.7344037686087859 379.8636197750162182 
	270.7344037686087859 358.3622084764854208 
	6.524341039105203873e-06 
	spline forward { ref 14 } I I I I 
	} 0 0 #
intcurve-curve $-1 forward { surfintcur full nubs 3 open 2 
	-22.52317812970354538 3 -0 3 
	33.75 71.25000000000001421 47.0651600743646128 
	33.75 78.72415351729745225 47.7543174822643266 
	33.75 86.25150867157978496 48.3113488491408205 
	33.75 93.75000000000002842 48.68360969568270491 
	6.524341039105203873e-06 
	plane 33.75 93.75 150 -1 -0 -0 0 0 1 forward_v I I I I 
	spline forward { ref 14 } I I I I 
	nullbs 
	nubs 3 open 2 
	-22.52317812970354538 3 -0 3 
	270.7344037686087859 358.3622084764854208 
	270.7344037686087859 365.5164594065900019 
	270.7344037686087859 372.707588589468287 
	270.7344037686087859 379.8636197750162182 
	
	F -22.52317812970354538 F -0 
	0 
	1 -0 
	1 -22.52317812970354538 
	} I I #
point $-1 33.75 93.75 48.68360969568270491 #
edge $-1 $263 -15.47643679847854159 $253 -0 $259 $276 forward 7 unknown #
plane-surface $-1 15 108.75 150 -0.9701425001453318764 -0.2425356250363329691 -0 0 0 1 forward_v I I I I #
pcurve $-1 0 reversed { exppc nubs 3 open 17 
	-148.1045082313568741 3 -136.9213255174378219 3 -125.5510022761188367 3 -118.1882198025074189 3 -109.1145906807219887 3 
	-97.21389063002547459 3 -80.81836123957711493 3 -71.79516242482506527 3 -61.63704838867010949 3 -50.62420278705837262 3 
	-45.05803875995319174 3 -34.2656411497366733 3 -28.21391354745234992 3 -17.64746895522056036 3 -12.63324319765855464 3 
	-6.943781913840209263 3 0 3 
	254.3614716638015238 394.658272871735619 
	257.6892683270842781 395.9306672508921565 
	261.0361546676122089 397.1555807017369943 
	264.4149002063219314 398.2853300227001228 
	267.8437721693095455 399.4318400890764451 
	271.3088276716611631 400.4747630061384598 
	274.624572097928251 401.4447137616595569 
	276.7755586446945131 402.0739392862879527 
	279.0544748906486348 402.7295421152376207 
	281.4663545785523979 403.425421973452444 
	284.4524641373480449 404.2869796650778653 
	287.5132441719636063 405.1716751704155399 
	290.5804827013881209 406.081664526374766 
	294.6352029849657015 407.284620300453355 
	298.6637131743775626 408.5186862308286209 
	302.7284327627641005 409.636748317592037 
	308.3810647134176861 411.1915895156196825 
	313.9389774062584024 412.4457988332725904 
	319.1517310379776973 413.5319844314863644 
	322.0567693186492875 414.1373095562965432 
	325.4280044141627855 414.8117495018435648 
	328.5848637488644499 415.3749500025990642 
	332.180667204570625 416.0164604698570088 
	335.7977789657025482 416.5739957065939052 
	339.4277510519448242 416.9859478935530888 
	343.4248447884729103 417.4395633669294057 
	347.5627303158994437 417.7298942232891932 
	351.7832053871065341 417.746754638209552 
	353.950269379921167 417.7554118622095416 
	356.1169006609857774 417.6972453562192982 
	358.2845441463621796 417.6332567554539423 
	362.5662561329616551 417.5068610816491628 
	366.8318708602536162 417.3627603115187412 
	371.0334114279839923 417.6254159467181353 
	373.4412538241443258 417.7759401089458606 
	375.7222232906769364 418.062003673281481 
	377.9727386299172167 418.4532423274439452 
	381.997804093101081 419.1529759250222469 
	385.9533686239822146 420.1917637957664624 
	389.8549513143850618 421.3864926394283543 
	391.7464029640598824 421.965686269699745 
	393.4929146883968087 422.5338441112677401 
	395.0600375183075812 423.1151002167718502 
	396.8658361716199465 423.7848827459490053 
	398.658654533701224 424.55268812805366 
	400.3493227305912683 425.4795091541179204 
	402.459701933770134 426.6364149396960102 
	404.4002127753545324 428.0360508271288609 
	406.0511471528603806 429.7876258296809056 
	0.0009721187874621147265 
	spline forward { ref 14 } I I I I 
	} 0 0 #
intcurve-curve $-1 forward { surfintcur full nubs 3 open 17 
	-148.1045082313568741 3 -136.9213255174378219 2 -125.5510022761188367 2 -118.1882198025074189 2 -109.1145906807219887 2 
	-97.21389063002547459 2 -80.81836123957711493 2 -71.79516242482506527 2 -61.63704838867010949 2 -50.62420278705837262 2 
	-45.05803875995319174 2 -34.2656411497366733 2 -28.21391354745234992 2 -17.64746895522056036 2 -12.63324319765855464 2 
	-6.943781913840209263 2 -0 3 
	14.99999999999999467 108.75 43.52374373738266655 
	18.81922922974263912 110.0230764099142391 44.68227520673521269 
	22.65535173281270787 111.2420990003350312 45.847029415299005 
	30.44709145769221337 113.4990379651958392 48.20646479166653364 
	34.40679117555818323 114.5283855697713307 49.40212605614737384 
	40.64930028598439549 116.103551104627428 51.27514673597890749 
	43.2486550658014508 116.7479300173075956 52.05209941006906149 
	49.39399147718410887 118.27435134069421 53.87600922434379669 
	52.87388567811123607 119.139289987391976 54.90028937196873926 
	60.9479359259322564 121.1976773349548182 57.24635980500023891 
	65.50884446333377298 122.3970747100163692 58.5491326963194183 
	76.44144312239295402 124.978369541220161 61.60034767185154436 
	82.66041062759862257 126.1847251020603835 63.2777985198312436 
	91.71988819535404502 127.8105902613315834 65.61847832182135676 
	95.45546001086292165 128.4556486212797779 66.55938606892928533 
	102.8972651897885839 129.6041609323499131 68.37010444900246853 
	106.8638312313821928 130.1359055564327605 69.29952663694776049 
	115.1681682762705634 130.9574916883319702 71.15888034143937091 
	119.6420166603226392 131.2363775249894502 72.11215131768113906 
	126.5312170922276493 131.2606955278680232 73.48280624403000161 
	128.8469133263194522 131.2059357229709917 73.92723891623531074 
	135.6665651366937482 131.0263993273844676 75.17779030558769193 
	140.1605516631207422 130.8848021173150755 75.92715453684374438 
	147.0954296885422821 131.279051618036334 76.93254393977238692 
	149.4616695458152833 131.5483925020369611 77.24531588219488754 
	155.8913380663064743 132.5747332087081247 78.01284144166204726 
	159.9313750847085487 133.5498614318732962 78.40042629119510309 
	165.8225130837159611 135.2304805509305936 78.80129670923528806 
	167.5756091776428036 135.7631211717141468 78.89544426506898844 
	170.9392620063905781 136.9323226521976551 79.03191834410826289 
	172.7190128977475183 137.6467243158350584 79.07460434504737634 
	176.4604123528735897 139.5782104678077928 79.07602719377729272 
	178.3665442266844252 140.8665442266843968 79.01524604733685919 
	180 142.4999999999999716 78.87036773588198457 
	0.0009721187874621147265 
	spline forward { ref 19 } I I I I 
	spline forward { ref 14 } I I I I 
	nubs 3 open 17 
	-148.1045082313568741 3 -136.9213255174378219 3 -125.5510022761188367 3 -118.1882198025074189 3 -109.1145906807219887 3 
	-97.21389063002547459 3 -80.81836123957711493 3 -71.79516242482506527 3 -61.63704838867010949 3 -50.62420278705837262 3 
	-45.05803875995319174 3 -34.2656411497366733 3 -28.21391354745234992 3 -17.64746895522056036 3 -12.63324319765855464 3 
	-6.943781913840209263 3 -0 3 
	-169.7015956323136265 106.4762562626173263 
	-165.6758166993960515 105.3177369252460522 
	-161.6523616007362421 104.1529418342430233 
	-157.6300407200205029 102.9830417511098517 
	-153.5403092325892374 101.79353515801904 
	-149.4502575327420573 100.5980268962247806 
	-145.5425022360458627 99.46101757356129269 
	-143.0122133750339515 98.72479900162706201 
	-140.334330283582716 97.94783726475705521 
	-137.4979688725354947 97.13086999076105599 
	-134.0023635736270933 96.12401835299294817 
	-130.4165927209874098 95.09983361227128285 
	-126.8120070345019457 94.08478553422452251 
	-122.0845211704563553 92.75352977901138729 
	-117.3695955455493731 91.45046164285948009 
	-112.6452531611925139 90.16760112542428374 
	-106.1355955360798902 88.39995135115525215 
	-99.80462502162833971 86.72380576849238309 
	-93.86744230750142037 85.21242159750309497 
	-90.60493966863047888 84.38191071656494557 
	-86.82041247119749983 83.44071862139409745 
	-83.2835568000255364 82.588822811874536 
	-79.29993235076523206 81.6293171688579946 
	-75.30481483309418422 80.70012633076615316 
	-71.30469143583336233 79.80833019680295592 
	-66.96689107681227426 78.84125163299461292 
	-62.49750422949329476 77.88978502219927691 
	-57.92487105834391059 76.97737143337496946 
	-55.62098933515827781 76.51765972841216978 
	-53.31450759515028892 76.0728902086175367 
	-51.00242821355283951 75.64724847991945467 
	-46.49872447793732988 74.81814016347101415 
	-42.00964315938743709 74.06881876170641021 
	-37.55495183830303318 73.42867059194060175 
	-35.03702363511193596 73.06683920684653799 
	-32.64038312771918982 72.75516986810238507 
	-30.24817125947138763 72.4751795152942293 
	-26.12450531795658648 71.9925355249551302 
	-22.00093577593001726 71.60404253968596322 
	-17.86344760471180848 71.32771280899819999 
	-15.94157947110371154 71.19935732330240796 
	-14.15697125892230446 71.10457155387699402 
	-12.53071502150748096 71.04062338716030922 
	-10.66731452664029689 70.96735015827779591 
	-8.789029021177224621 70.92538874818457373 
	-6.922219252913631493 70.92475486599329315 
	-4.590002661634720482 70.92396295318644661 
	-2.327938441147114457 70.98363238726095403 
	-0 71.12963226411801543 
	
	nubs 3 open 17 
	-148.1045082313568741 3 -136.9213255174378219 3 -125.5510022761188367 3 -118.1882198025074189 3 -109.1145906807219887 3 
	-97.21389063002547459 3 -80.81836123957711493 3 -71.79516242482506527 3 -61.63704838867010949 3 -50.62420278705837262 3 
	-45.05803875995319174 3 -34.2656411497366733 3 -28.21391354745234992 3 -17.64746895522056036 3 -12.63324319765855464 3 
	-6.943781913840209263 3 -0 3 
	254.3614716638015238 394.658272871735619 
	257.6892683270842781 395.9306672508921565 
	261.0361546676122089 397.1555807017369943 
	264.4149002063219314 398.2853300227001228 
	267.8437721693095455 399.4318400890764451 
	271.3088276716611631 400.4747630061384598 
	274.624572097928251 401.4447137616595569 
	276.7755586446945131 402.0739392862879527 
	279.0544748906486348 402.7295421152376207 
	281.4663545785523979 403.425421973452444 
	284.4524641373480449 404.2869796650778653 
	287.5132441719636063 405.1716751704155399 
	290.5804827013881209 406.081664526374766 
	294.6352029849657015 407.284620300453355 
	298.6637131743775626 408.5186862308286209 
	302.7284327627641005 409.636748317592037 
	308.3810647134176861 411.1915895156196825 
	313.9389774062584024 412.4457988332725904 
	319.1517310379776973 413.5319844314863644 
	322.0567693186492875 414.1373095562965432 
	325.4280044141627855 414.8117495018435648 
	328.5848637488644499 415.3749500025990642 
	332.180667204570625 416.0164604698570088 
	335.7977789657025482 416.5739957065939052 
	339.4277510519448242 416.9859478935530888 
	343.4248447884729103 417.4395633669294057 
	347.5627303158994437 417.7298942232891932 
	351.7832053871065341 417.746754638209552 
	353.950269379921167 417.7554118622095416 
	356.1169006609857774 417.6972453562192982 
	358.2845441463621796 417.6332567554539423 
	362.5662561329616551 417.5068610816491628 
	366.8318708602536162 417.3627603115187412 
	371.0334114279839923 417.6254159467181353 
	373.4412538241443258 417.7759401089458606 
	375.7222232906769364 418.062003673281481 
	377.9727386299172167 418.4532423274439452 
	381.997804093101081 419.1529759250222469 
	385.9533686239822146 420.1917637957664624 
	389.8549513143850618 421.3864926394283543 
	391.7464029640598824 421.965686269699745 
	393.4929146883968087 422.5338441112677401 
	395.0600375183075812 423.1151002167718502 
	396.8658361716199465 423.7848827459490053 
	398.658654533701224 424.55268812805366 
	400.3493227305912683 425.4795091541179204 
	402.459701933770134 426.6364149396960102 
	404.4002127753545324 428.0360508271288609 
	406.0511471528603806 429.7876258296809056 
	
	F -148.1045082313568741 F -0 
	0 
	2 -148.1045082313568741 -0 
	8 -136.4572665829834932 -122.5682526024192072 -109.2157092362446633 -96.22644911504308141 -79.45018857332172502 -51.00012326594736578 -32.9187581958421589 -16.68702310311450887 
	} I I #
point $-1 15 108.75 43.52374373738267366 #
pcurve $-1 0 forward { exppc nubs 1 open 2 
	0 1 15.47643679847854337 1 
	254.3614716638015238 394.658272871735619 
	257.6331876659054956 379.8636197750162182 
	0.01205529832231180994 
	spline forward { ref 14 } I I I I 
	} 0 0 #
intcurve-curve $-1 forward { surfintcur full nubs 3 open 2 
	-15.60366235124724099 3 -0 3 
	33.75 93.75000000000002842 48.68360969568270491 
	28.74992958685881561 93.75000000000002842 47.24007209386065398 
	23.74242012177120031 93.75000000000002842 45.78145567545100647 
	18.74999999999996447 93.75000000000002842 44.32253862193594074 
	1.007788545486975722e-06 
	plane 18.75 93.75 150 0 -1 0 0 0 -1 forward_v I I I I 
	spline forward { ref 14 } I I I I 
	nullbs 
	nubs 3 open 2 
	-15.60366235124724099 3 -0 3 
	270.7344037686087859 379.8636197750162182 
	266.36964453564633 379.8636197750162182 
	261.9953832189461309 379.8636197750162182 
	257.6331876659054387 379.8636197750162182 
	
	F -15.60366235124724099 F -0 
	0 
	1 -15.60366235124724099 
	1 -0 
	} I I #
point $-1 18.75 93.75 44.32253862193594784 #
intcurve-curve $-1 forward { surfintcur full nubs 3 open 2 
	-15.47643679847854159 3 -0 3 
	18.75000000000003197 93.75000000000002842 44.32253862193596206 
	17.49947539551602205 98.75209841793605392 44.15222696626766208 
	16.24803896156043237 103.7578441537582421 43.88997147355143369 
	14.99999999999999467 108.75 43.52374373738266655 
	1.277260544983331459e-07 
	plane 15 108.75 150 -0.9701425001453318764 -0.2425356250363329691 -0 0 0 1 forward_v I I I I 
	spline forward { ref 14 } I I I I 
	nullbs 
	nubs 3 open 2 
	-15.47643679847854159 3 -0 3 
	257.6331876659054956 379.8636197750162182 
	256.5285221908497988 384.7901289983925039 
	255.4366097368452699 389.7252804588811728 
	254.3614716638015238 394.658272871735619 
	
	F -15.47643679847854159 F -0 
	0 
	1 -0 
	0 
	} I I #
End-of-ACIS-data 