600 0 2 0           
24 FBMach with ACIS - 6.0.3 13 ACIS 6.0.3 NT 24 Wed May 23 09:59:43 2001 
1 9.9999999999999995e-007 1e-010 
body $2 $3 $-1 $4 #
bdycol-kcp $-1 1 2 $5 $6 #
model_id-kcp-attrib $-1 $-1 $-1 $0 1 990626382 130 -243138559 1 #
lump $-1 $-1 $7 $0 #
transform $-1 1 0 0 0 1 0 0 0 1 49.934699999999999 50.004800000000003 20 1 rotate no_reflect no_shear #
body $8 $9 $-1 $10 #
body $11 $12 $-1 $13 #
shell $-1 $-1 $-1 $14 $-1 $3 #
model_id-kcp-attrib $-1 $-1 $-1 $5 1 990626382 130 -243138558 1 #
lump $-1 $-1 $15 $5 #
transform $-1 1 0 0 0 1 0 0 0 1 49.934699999999992 50.004800000000003 20.000000000000004 1 no_rotate no_reflect no_shear #
rgb_color-st-attrib $-1 $16 $-1 $6 0.5 1 1 #
lump $-1 $-1 $17 $6 #
transform $-1 1 0 0 0 1 0 0 0 1 49.934699999999992 50.004800000000003 20.000000000000004 1 no_rotate no_reflect no_shear #
face $18 $19 $20 $7 $-1 $21 forward single #
shell $-1 $-1 $-1 $22 $-1 $9 #
model_id-kcp-attrib $-1 $-1 $11 $6 1 990626382 290 -249430013 1 #
shell $-1 $-1 $-1 $23 $-1 $12 #
model_id-kcp-attrib $-1 $-1 $-1 $14 1 990626382 130 -243138559 2 #
face $24 $25 $26 $7 $-1 $27 forward single #
loop $-1 $-1 $28 $14 #
plane-surface $-1 -58.80946481701811 -2.0128811247218579 22.232098612763586 0.18669836198025935 -0.97238730198051748 -0.14002377148519451 0.77790984158441401 0.23337295247532419 -0.58343238118831042 forward_v I I I I #
face $29 $30 $31 $15 $-1 $32 forward single #
face $-1 $33 $34 $17 $-1 $35 reversed single #
model_id-kcp-attrib $-1 $-1 $-1 $19 1 990626382 130 -243138559 3 #
face $36 $37 $38 $7 $-1 $39 reversed single #
loop $-1 $-1 $40 $19 #
plane-surface $-1 -47.29999621667627 -25.000019704811095 13.599997162507208 -0.77790984158441401 -0.23337295247532419 0.58343238118831042 0.59999999999999998 -2.7755575615628914e-017 0.80000000000000004 forward_v I I I I #
coedge $-1 $41 $42 $43 $44 reversed $20 $-1 #
model_id-kcp-attrib $-1 $45 $-1 $22 1 990626382 130 -243138558 5 #
face $46 $47 $48 $15 $-1 $49 reversed single #
loop $-1 $-1 $50 $22 #
plane-surface $-1 0 0 20.000000000000004 0 0 1 1 0 0 forward_v I I I I #
face $-1 $51 $52 $17 $-1 $53 reversed single #
loop $-1 $-1 $54 $23 #
cone-surface $-1 7.1054273576010019e-015 50 19.999999999999996 0 1 0 20 0 0 1 I I 0 -1 20 forward I I I I #
model_id-kcp-attrib $-1 $-1 $-1 $25 1 990626382 130 -243138559 4 #
face $55 $56 $57 $7 $-1 $58 forward single #
loop $-1 $59 $60 $25 #
plane-surface $-1 -50 0 0 1 0 0 0 0 -1 forward_v I I I I #
coedge $-1 $61 $62 $60 $63 reversed $26 $-1 #
coedge $-1 $42 $28 $62 $64 forward $20 $-1 #
coedge $-1 $28 $41 $65 $66 reversed $20 $-1 #
coedge $-1 $67 $60 $28 $44 forward $38 $-1 #
edge $68 $69 8.6497922655346766 $70 8.6498081919845369 $43 $71 forward 7 unknown #
model_id-kcp-attrib $-1 $-1 $29 $22 1 990626382 130 -243138558 3 #
model_id-kcp-attrib $-1 $-1 $-1 $30 1 990626382 130 -243138558 6 #
face $72 $73 $74 $15 $-1 $75 reversed single #
loop $-1 $-1 $76 $30 #
plane-surface $-1 0 0 -20.000000000000004 0 0 1 1 0 0 forward_v I I I I #
coedge $-1 $77 $78 $79 $80 forward $31 $-1 #
face $-1 $81 $82 $17 $-1 $83 forward single #
loop $-1 $-1 $84 $33 #
plane-surface $-1 0 50 0 0 -1 0 0 0 -1 forward_v I I I I #
coedge $-1 $85 $86 $87 $88 reversed $34 $-1 #
model_id-kcp-attrib $-1 $-1 $-1 $37 1 990626382 130 -243138559 5 #
face $89 $90 $91 $7 $-1 $92 reversed single #
loop $-1 $-1 $65 $37 #
plane-surface $-1 0 0 20 0 0 1 1 0 0 forward_v I I I I #
loop $-1 $-1 $93 $25 #
coedge $-1 $43 $94 $40 $63 forward $38 $-1 #
coedge $-1 $95 $40 $96 $97 reversed $26 $-1 #
coedge $-1 $40 $95 $41 $64 reversed $26 $-1 #
edge $98 $99 -37.343322832767043 $69 16.508282793115903 $60 $100 forward 7 unknown #
edge $-1 $69 3.4999873889208999 $101 3.5000070937319903 $41 $102 forward 7 unknown #
coedge $-1 $103 $104 $42 $66 forward $57 $-1 #
edge $105 $70 -20.036076238764039 $101 -20.036064199930099 $65 $106 forward 7 unknown #
coedge $-1 $107 $43 $104 $108 reversed $38 $-1 #
model_id-kcp-attrib $-1 $-1 $-1 $44 1 990626382 130 -243138559 18 #
vertex $-1 $63 $109 #
vertex $-1 $108 $110 #
straight-curve $-1 -50 1.2328140368944376 11.438501968674567 0 -0.14252983293355628 0.9897905064830298 I I #
model_id-kcp-attrib $-1 $-1 $-1 $47 1 990626382 130 -243138558 7 #
face $111 $112 $113 $15 $-1 $114 reversed single #
loop $-1 $-1 $115 $47 #
plane-surface $-1 0 -50 0 0 1 0 0 0 1 forward_v I I I I #
coedge $-1 $116 $117 $118 $119 forward $48 $-1 #
coedge $-1 $120 $50 $121 $122 forward $31 $-1 #
coedge $-1 $50 $120 $123 $124 forward $31 $-1 #
coedge $-1 $125 $126 $50 $80 reversed $127 $-1 #
edge $-1 $128 -50 $129 50 $79 $130 forward 7 unknown #
face $-1 $-1 $131 $17 $-1 $132 reversed single #
loop $-1 $-1 $133 $51 #
plane-surface $-1 0 0 20.000000000000004 0 0 1 1 0 0 forward_v I I I I #
coedge $-1 $134 $134 $135 $136 forward $52 $-1 #
coedge $-1 $135 $54 $137 $138 reversed $34 $-1 #
coedge $-1 $54 $135 $133 $139 reversed $34 $-1 #
coedge $-1 $140 $140 $54 $88 forward $131 $-1 #
edge $-1 $141 -3.1415926535897936 $142 0 $87 $143 forward 7 unknown #
model_id-kcp-attrib $-1 $-1 $-1 $56 1 990626382 130 -243138559 6 #
face $144 $145 $146 $7 $-1 $147 reversed single #
loop $-1 $148 $149 $56 #
cone-surface $-1 -47.958758547847353 -16.489858547221274 4.4875829041792237 0.40824829043052968 0.40824829043052957 0.81649658096105948 -1.0606601717798212 1.0606601717798214 0 1 I I 0 1 1.5 forward I I I I #
coedge $-1 $150 $150 $151 $152 forward $59 $-1 #
coedge $-1 $60 $153 $154 $155 reversed $38 $-1 #
coedge $-1 $62 $61 $103 $156 reversed $26 $-1 #
coedge $-1 $154 $157 $61 $97 forward $158 $-1 #
edge $-1 $159 -3.7500000000000036 $99 21.25 $96 $160 forward 7 unknown #
model_id-kcp-attrib $-1 $-1 $-1 $63 1 990626382 130 -243138559 17 #
vertex $-1 $97 $161 #
straight-curve $-1 -50 -15.327595189572509 13.868961924171007 0 0.9284766908852593 0.37139067635410378 I I #
vertex $-1 $156 $162 #
straight-curve $-1 -52.09999243335254 -3.9409622186070692e-005 17.199994325014409 0.59999999999999998 -2.7755575615628914e-017 0.80000000000000004 I I #
coedge $-1 $163 $65 $95 $156 forward $57 $-1 #
coedge $-1 $65 $164 $67 $108 forward $57 $-1 #
model_id-kcp-attrib $-1 $165 $-1 $66 1 990626382 130 -243138559 19 #
straight-curve $-1 -30.323322049946764 3.7778804867937974 20 0.98206244154654043 0.18855598877693575 0 I I #
coedge $-1 $153 $67 $166 $167 forward $38 $-1 #
edge $168 $169 -50 $70 4.1679616424521512e-005 $67 $170 forward 7 unknown #
point $-1 -50 -3.9409622186167836e-005 19.999984236151128 #
point $-1 -50 -4.1679616424521512e-005 20 #
model_id-kcp-attrib $-1 $-1 $-1 $73 1 990626382 130 -243138558 2 #
face $171 $172 $173 $15 $-1 $174 reversed single #
loop $-1 $-1 $175 $73 #
plane-surface $-1 -50 0 0 1 0 0 0 0 -1 forward_v I I I I #
coedge $-1 $176 $123 $177 $178 forward $74 $-1 #
coedge $-1 $179 $76 $176 $180 forward $48 $-1 #
coedge $-1 $76 $179 $181 $182 forward $48 $-1 #
coedge $-1 $126 $125 $76 $119 reversed $127 $-1 #
edge $-1 $183 -50 $184 50 $118 $185 forward 7 unknown #
coedge $-1 $78 $77 $186 $187 forward $31 $-1 #
coedge $-1 $188 $189 $77 $122 reversed $173 $-1 #
edge $-1 $129 -50 $190 50 $121 $191 forward 7 unknown #
coedge $-1 $115 $192 $78 $124 reversed $74 $-1 #
edge $-1 $193 -50 $128 50 $123 $194 forward 7 unknown #
coedge $-1 $118 $79 $192 $195 forward $127 $-1 #
coedge $-1 $79 $118 $188 $196 reversed $127 $-1 #
loop $-1 $-1 $125 $172 #
vertex $-1 $80 $197 #
vertex $-1 $80 $198 #
straight-curve $-1 50 0 20.000000000000004 0 1 0 I I #
loop $-1 $-1 $87 $81 #
plane-surface $-1 0 -50 0 0 1 0 0 0 1 forward_v I I I I #
coedge $-1 $199 $200 $86 $139 forward $82 $-1 #
coedge $-1 $84 $84 $199 $201 reversed $52 $-1 #
coedge $-1 $86 $85 $84 $136 reversed $34 $-1 #
edge $-1 $202 0 $203 3.1415926535897936 $84 $204 forward 7 unknown #
coedge $-1 $200 $199 $85 $138 forward $82 $-1 #
edge $-1 $203 0 $141 100 $137 $205 forward 7 unknown #
edge $-1 $142 -100 $202 0 $133 $206 forward 7 unknown #
coedge $-1 $87 $87 $200 $207 reversed $131 $-1 #
vertex $-1 $207 $208 #
vertex $-1 $88 $209 #
ellipse-curve $-1 7.1054273576010019e-015 -50 19.999999999999996 0 -1 0 20 0 0 1 I I #
model_id-kcp-attrib $-1 $-1 $-1 $90 1 990626382 130 -243138559 7 #
face $210 $211 $212 $7 $-1 $213 reversed single #
loop $-1 $-1 $151 $90 #
plane-surface $-1 -51.224744871291591 -19.755844870665513 -2.0443897435092522 -0.40824829043052968 -0.40824829043052957 -0.81649658096105948 0.70710678118654746 -0.70710678118654768 0 forward_v I I I I #
loop $-1 $-1 $214 $56 #
coedge $-1 $149 $149 $215 $216 forward $91 $-1 #
coedge $-1 $93 $93 $214 $217 forward $59 $-1 #
coedge $-1 $218 $218 $93 $152 reversed $146 $-1 #
edge $-1 $219 -9.0487633666247671 $220 -7.7071225795990923 $93 $221 forward 7 unknown #
coedge $-1 $94 $107 $222 $223 reversed $38 $-1 #
coedge $-1 $224 $96 $94 $155 forward $158 $-1 #
edge $225 $99 -7.1054273576010019e-015 $226 20 $94 $227 forward 7 unknown #
edge $228 $101 -19.544414185542134 $159 32.65707721415712 $103 $229 forward 7 unknown #
coedge $-1 $96 $230 $163 $231 reversed $158 $-1 #
loop $-1 $-1 $96 $232 #
vertex $-1 $156 $233 #
straight-curve $-1 -37.25 -50 17.000000000000004 -0.59999999999999998 0 -0.80000000000000016 I I #
point $-1 -50 -50 7.1054273576010019e-015 #
point $-1 -49.999988177113345 -3.9409622186167836e-005 20 #
coedge $-1 $234 $103 $157 $231 forward $57 $-1 #
coedge $-1 $104 $234 $235 $236 forward $57 $-1 #
attrib_edge_convexity-kcp-attrib $-1 $237 $105 $66 1 #
coedge $-1 $235 $238 $107 $167 reversed $239 $-1 #
edge $240 $169 -20 $241 20 $166 $242 forward 7 unknown #
attrib_edge_convexity-kcp-attrib $-1 $243 $-1 $108 1 #
vertex $-1 $236 $244 #
straight-curve $-1 -50 0 20 0 -1 0 I I #
model_id-kcp-attrib $-1 $-1 $-1 $112 1 990626382 130 -243138558 4 #
face $245 $-1 $127 $15 $-1 $246 reversed single #
loop $-1 $-1 $188 $112 #
plane-surface $-1 0 50 0 0 -1 0 0 0 -1 forward_v I I I I #
coedge $-1 $247 $186 $189 $248 forward $113 $-1 #
coedge $-1 $192 $115 $116 $180 reversed $74 $-1 #
coedge $-1 $186 $247 $115 $178 reversed $113 $-1 #
edge $-1 $193 -20.000000000000004 $249 20.000000000000004 $177 $250 forward 7 unknown #
coedge $-1 $117 $116 $247 $251 forward $48 $-1 #
edge $-1 $184 -50 $249 50 $176 $252 forward 7 unknown #
coedge $-1 $189 $188 $117 $182 reversed $173 $-1 #
edge $-1 $253 -50 $183 50 $181 $254 forward 7 unknown #
vertex $-1 $119 $255 #
vertex $-1 $195 $256 #
straight-curve $-1 50 0 -20.000000000000004 0 -1 0 I I #
coedge $-1 $175 $177 $120 $187 reversed $113 $-1 #
edge $-1 $190 -50 $193 50 $186 $257 forward 7 unknown #
coedge $-1 $181 $121 $126 $196 forward $173 $-1 #
coedge $-1 $121 $181 $175 $248 reversed $173 $-1 #
vertex $-1 $122 $258 #
straight-curve $-1 0 50 20.000000000000004 -1 0 0 I I #
coedge $-1 $123 $176 $125 $195 reversed $74 $-1 #
vertex $-1 $187 $259 #
straight-curve $-1 0 -50 20.000000000000004 1 0 0 I I #
edge $-1 $128 -20.000000000000004 $184 20.000000000000004 $125 $260 forward 7 unknown #
edge $-1 $129 -20.000000000000004 $183 20.000000000000004 $126 $261 forward 7 unknown #
point $-1 50 -50 20.000000000000004 #
point $-1 50 50 20.000000000000004 #
coedge $-1 $137 $133 $134 $201 forward $82 $-1 #
coedge $-1 $133 $137 $140 $207 forward $82 $-1 #
edge $-1 $202 -20 $203 19.999999999999993 $134 $262 forward 7 unknown #
vertex $-1 $201 $263 #
vertex $-1 $136 $264 #
ellipse-curve $-1 7.1054273576010019e-015 50 19.999999999999996 0 1 0 20 0 0 1 I I #
straight-curve $-1 -19.999999999999993 50 20.000000000000004 0 -1 0 I I #
straight-curve $-1 20.000000000000007 50 20.000000000000004 0 1 0 I I #
edge $-1 $141 -19.999999999999993 $142 20 $140 $265 forward 7 unknown #
point $-1 -19.999999999999993 -50 20.000000000000004 #
point $-1 20 -50 19.999999999999996 #
model_id-kcp-attrib $-1 $-1 $-1 $145 1 990626382 130 -243138559 8 #
face $266 $267 $268 $7 $-1 $269 reversed single #
loop $-1 $-1 $215 $145 #
plane-surface $-1 -45.917517095694706 -14.448617095068627 8.5700658089845199 0.40824829043052968 0.40824829043052957 0.81649658096105948 -0.70710678118654746 0.70710678118654768 0 forward_v I I I I #
coedge $-1 $270 $270 $150 $217 reversed $148 $-1 #
coedge $-1 $215 $215 $149 $216 reversed $212 $-1 #
edge $-1 $271 1.4802973661668731e-016 $271 6.2831853071795862 $215 $272 forward 7 unknown #
edge $-1 $220 -2.6779450443930339 $219 2.6779450443930299 $150 $273 forward 7 unknown #
coedge $-1 $151 $151 $270 $274 reversed $146 $-1 #
vertex $-1 $152 $275 #
vertex $-1 $152 $276 #
straight-curve $-1 -50 -12.507333844894294 -6.281017691521777 0 0.89442719102182489 -0.44721359545614003 I I #
coedge $-1 $277 $278 $153 $223 forward $279 $-1 #
edge $-1 $226 -50 $241 50 $153 $280 forward 7 unknown #
coedge $-1 $281 $154 $278 $282 reversed $158 $-1 #
model_id-kcp-attrib $-1 $-1 $-1 $155 1 990626382 130 -243138559 16 #
vertex $-1 $223 $283 #
straight-curve $-1 -50 -50 0 0 0 -1 I I #
model_id-kcp-attrib $-1 $284 $-1 $156 1 990626382 130 -243138559 20 #
straight-curve $-1 -44.383942086264931 -18.720193045783585 20 0.28734788556634538 -0.95782628522115143 0 I I #
coedge $-1 $157 $285 $286 $287 forward $158 $-1 #
edge $288 $159 -35 $289 -20 $157 $290 forward 7 unknown #
face $291 $292 $158 $7 $-1 $293 reversed single #
point $-1 -35 -50 20.000000000000007 #
coedge $-1 $164 $163 $294 $295 forward $57 $-1 #
coedge $-1 $296 $166 $164 $236 reversed $239 $-1 #
edge $297 $298 20 $169 50 $235 $299 forward 7 unknown #
convexity-sys-attrib $-1 $-1 $165 $66 #
coedge $-1 $166 $300 $277 $301 reversed $239 $-1 #
loop $-1 $-1 $296 $267 #
attrib_edge_convexity-kcp-attrib $-1 $302 $-1 $167 1 #
vertex $-1 $301 $303 #
straight-curve $-1 -50 50 0 0 0 -1 I I #
convexity-sys-attrib $-1 $-1 $168 $108 #
point $-1 -50 50 20 #
model_id-kcp-attrib $-1 $-1 $-1 $172 1 990626382 130 -243138558 8 #
plane-surface $-1 50 0 0 -1 0 0 0 0 1 forward_v I I I I #
coedge $-1 $177 $175 $179 $251 reversed $113 $-1 #
edge $-1 $190 -20.000000000000004 $253 20.000000000000004 $189 $304 forward 7 unknown #
vertex $-1 $251 $305 #
straight-curve $-1 -50 -50 0 0 0 -1 I I #
edge $-1 $249 -50 $253 50 $247 $306 forward 7 unknown #
straight-curve $-1 0 -50 -20.000000000000004 -1 0 0 I I #
vertex $-1 $182 $307 #
straight-curve $-1 0 50 -20.000000000000004 1 0 0 I I #
point $-1 50 50 -20.000000000000004 #
point $-1 50 -50 -20.000000000000004 #
straight-curve $-1 -50 0 20.000000000000004 0 -1 0 I I #
point $-1 -50 50 20.000000000000004 #
point $-1 -50 -50 20.000000000000004 #
straight-curve $-1 50 -50 0 0 0 -1 I I #
straight-curve $-1 50 50 0 0 0 -1 I I #
straight-curve $-1 0 50 20.000000000000004 -1 0 0 I I #
point $-1 20 50 19.999999999999996 #
point $-1 -19.999999999999993 50 20.000000000000004 #
straight-curve $-1 0 -50 20.000000000000004 1 0 0 I I #
model_id-kcp-attrib $-1 $-1 $-1 $211 1 990626382 130 -243138559 9 #
face $308 $309 $239 $7 $-1 $310 reversed single #
loop $-1 $-1 $294 $211 #
cone-surface $-1 0 -0.002400000000001512 20 0 -1 0 14.142135623730949 0 14.142135623730949 1 I I 0 1 20 forward I I I I #
coedge $-1 $214 $214 $218 $274 forward $148 $-1 #
vertex $-1 $216 $311 #
ellipse-curve $-1 -45.917517095694706 -14.448617095068627 8.5700658089845199 0.40824829043052968 0.40824829043052957 0.81649658096105948 -1.0606601717798212 1.0606601717798214 0 1 I I #
ellipse-curve $-1 -50 -18.531099999373922 0.40509999937392838 1 0 0 -7.0216669373253998e-017 1.643167672488665 3.2863353453798236 0.40824829043052974 I I #
edge $-1 $220 1.9932258413707507 $219 2.9205210597642726 $218 $312 forward 7 unknown #
point $-1 -50 -20.600793845125676 -2.2342876919017085 #
point $-1 -50 -19.400793844625991 -2.8342876920780675 #
coedge $-1 $313 $222 $238 $301 forward $279 $-1 #
coedge $-1 $222 $313 $224 $282 forward $279 $-1 #
loop $-1 $-1 $313 $314 #
straight-curve $-1 -50 0 -20 0 1 0 I I #
coedge $-1 $285 $224 $315 $316 reversed $158 $-1 #
edge $317 $318 -50 $226 50 $224 $319 forward 7 unknown #
point $-1 -50 -50 -20 #
attrib_edge_convexity-kcp-attrib $-1 $320 $228 $156 1 #
coedge $-1 $230 $281 $321 $322 reversed $158 $-1 #
coedge $-1 $323 $294 $230 $287 reversed $268 $-1 #
edge $-1 $324 0.78539816339744828 $289 3.9269908169872414 $230 $325 forward 7 unknown #
model_id-kcp-attrib $-1 $326 $-1 $231 1 990626382 130 -243138559 21 #
vertex $-1 $231 $327 #
straight-curve $-1 0 -50 20 1 0 0 I I #
model_id-kcp-attrib $-1 $-1 $-1 $232 1 990626382 130 -243138559 13 #
face $328 $-1 $329 $7 $-1 $330 reversed single #
plane-surface $-1 0 -50 0 0 1 0 0 0 1 forward_v I I I I #
coedge $-1 $286 $331 $234 $295 reversed $268 $-1 #
edge $332 $289 -49.997600000000006 $298 50.002399999999994 $234 $333 forward 7 unknown #
coedge $-1 $334 $235 $331 $335 forward $239 $-1 #
attrib_edge_convexity-kcp-attrib $-1 $336 $-1 $236 1 #
vertex $-1 $335 $337 #
straight-curve $-1 0 50 20 -1 0 0 I I #
coedge $-1 $238 $334 $338 $339 forward $239 $-1 #
edge $340 $241 -50 $341 50 $238 $342 forward 7 unknown #
convexity-sys-attrib $-1 $-1 $240 $167 #
point $-1 -50 50 -20 #
straight-curve $-1 -50 50 0 0 0 -1 I I #
point $-1 -50 -50 -20.000000000000004 #
straight-curve $-1 -50 0 -20.000000000000004 0 1 0 I I #
point $-1 -50 50 -20.000000000000004 #
model_id-kcp-attrib $-1 $343 $-1 $267 1 990626382 130 -243138559 15 #
face $344 $314 $345 $7 $-1 $58 forward single #
plane-surface $-1 0 50 0 0 -1 0 0 0 -1 forward_v I I I I #
point $-1 -46.978177267474528 -13.387956923288804 8.5700658089845199 #
ellipse-curve $-1 -51.224744871291591 -19.755844870665513 -2.0443897435092522 -0.40824829043052968 -0.40824829043052957 -0.81649658096105948 -1.0606601717798212 1.0606601717798214 0 1 I I #
coedge $-1 $278 $277 $346 $347 forward $279 $-1 #
face $348 $232 $279 $7 $-1 $349 reversed single #
coedge $-1 $346 $350 $281 $316 forward $329 $-1 #
edge $351 $352 -20 $318 20 $315 $353 forward 7 unknown #
model_id-kcp-attrib $-1 $-1 $-1 $282 1 990626382 130 -243138559 24 #
vertex $-1 $316 $354 #
straight-curve $-1 0 -50 -20 -1 0 0 I I #
convexity-sys-attrib $-1 $-1 $284 $156 #
coedge $-1 $355 $356 $285 $322 forward $345 $-1 #
edge $357 $324 20 $352 50 $285 $290 forward 7 unknown #
coedge $-1 $331 $286 $356 $358 reversed $268 $-1 #
vertex $-1 $358 $359 #
ellipse-curve $-1 0 -50 20 0 1 0 14.142135623730949 0 14.142135623730949 1 I I #
attrib_edge_convexity-kcp-attrib $-1 $360 $288 $231 1 #
point $-1 -20 -50.000000000000007 20 #
model_id-kcp-attrib $-1 $-1 $-1 $292 1 990626382 130 -243138559 14 #
loop $-1 $-1 $315 $292 #
plane-surface $-1 50 0 0 -1 0 0 0 0 1 forward_v I I I I #
coedge $-1 $294 $323 $296 $335 reversed $268 $-1 #
attrib_edge_convexity-kcp-attrib $-1 $361 $-1 $295 1 #
straight-curve $-1 -20 -0.002400000000001512 20 0 1 0 I I #
coedge $-1 $300 $296 $362 $363 reversed $239 $-1 #
edge $364 $298 2.3561944901923448 $365 5.497787143782138 $296 $366 forward 7 unknown #
convexity-sys-attrib $-1 $-1 $297 $236 #
point $-1 -20 49.999999999999993 20 #
coedge $-1 $350 $346 $300 $339 reversed $329 $-1 #
edge $367 $368 -20 $341 20 $338 $369 forward 7 unknown #
attrib_edge_convexity-kcp-attrib $-1 $370 $-1 $301 1 #
vertex $-1 $347 $371 #
straight-curve $-1 0 50 -20 1 0 0 I I #
model_id-kcp-attrib $-1 $-1 $308 $267 1 990626382 130 -243138559 10 #
model_id-kcp-attrib $-1 $-1 $-1 $309 1 990626382 130 -243138559 11 #
loop $-1 $-1 $356 $309 #
coedge $-1 $338 $315 $313 $347 reversed $329 $-1 #
edge $372 $341 -50 $318 50 $346 $373 forward 7 unknown #
model_id-kcp-attrib $-1 $-1 $-1 $314 1 990626382 130 -243138559 12 #
plane-surface $-1 0 0 -20 0 0 1 1 0 0 forward_v I I I I #
coedge $-1 $315 $338 $355 $374 reversed $329 $-1 #
model_id-kcp-attrib $-1 $375 $-1 $316 1 990626382 130 -243138559 23 #
vertex $-1 $374 $376 #
straight-curve $-1 50 -50 0 0 0 -1 I I #
point $-1 50 -50 -20 #
coedge $-1 $362 $321 $350 $374 forward $345 $-1 #
coedge $-1 $321 $362 $323 $358 forward $345 $-1 #
model_id-kcp-attrib $-1 $-1 $-1 $322 1 990626382 130 -243138559 22 #
edge $-1 $365 -50.002399999999994 $324 49.997600000000006 $356 $377 forward 7 unknown #
point $-1 20 -50.000000000000007 20 #
convexity-sys-attrib $-1 $-1 $326 $231 #
convexity-sys-attrib $-1 $-1 $332 $295 #
coedge $-1 $356 $355 $334 $363 forward $345 $-1 #
edge $378 $368 -50 $365 -20 $334 $299 forward 7 unknown #
attrib_edge_convexity-kcp-attrib $-1 $379 $-1 $335 1 #
vertex $-1 $363 $380 #
ellipse-curve $-1 0 50 20 0 -1 0 14.142135623730949 0 14.142135623730949 1 I I #
attrib_edge_convexity-kcp-attrib $-1 $381 $-1 $339 1 #
vertex $-1 $374 $382 #
straight-curve $-1 50 50 0 0 0 -1 I I #
convexity-sys-attrib $-1 $-1 $340 $301 #
point $-1 50 50 -20 #
attrib_edge_convexity-kcp-attrib $-1 $383 $-1 $347 1 #
straight-curve $-1 50 0 -20 0 -1 0 I I #
edge $384 $352 -50 $368 50 $350 $385 forward 7 unknown #
attrib_edge_convexity-kcp-attrib $-1 $386 $351 $316 1 #
point $-1 50 -50 20 #
straight-curve $-1 20 -0.002400000000001512 20 0 -1 0 I I #
attrib_edge_convexity-kcp-attrib $-1 $387 $-1 $363 1 #
convexity-sys-attrib $-1 $-1 $364 $335 #
point $-1 20 49.999999999999993 20 #
convexity-sys-attrib $-1 $-1 $367 $339 #
point $-1 50 50 20 #
convexity-sys-attrib $-1 $-1 $372 $347 #
attrib_edge_convexity-kcp-attrib $-1 $388 $-1 $374 1 #
straight-curve $-1 50 0 20 0 1 0 I I #
convexity-sys-attrib $-1 $-1 $375 $316 #
convexity-sys-attrib $-1 $-1 $378 $363 #
convexity-sys-attrib $-1 $-1 $384 $374 #
End-of-ACIS-data 