105 192 1 0         
body $-1 $1 $-1 $2 #
lump $-1 $-1 $3 $0 #
transform $-1 1 0 0 0 1 0 0 0 1 49.93469999999999942 50.00480000000000302 20 1 1 0 0 #
shell $-1 $-1 $-1 $4 $1 #
face $-1 $5 $6 $3 $-1 $7 forward single #
face $-1 $8 $9 $3 $-1 $10 forward single #
loop $-1 $-1 $11 $4 #
plane-surface $-1 -58.80946481701811024 -2.012881124721857873 22.23209861276358623 0.186698361980259353 -0.9723873019805174822 -0.1400237714851945148 0.777909841584414008 0.2333729524753241913 -0.5834323811883104227 0 #
face $-1 $12 $13 $3 $-1 $14 reversed single #
loop $-1 $-1 $15 $5 #
plane-surface $-1 -47.29999621667626997 -25.00001970481109481 13.5999971625072078 -0.777909841584414008 -0.2333729524753241913 0.5834323811883104227 0.5999999999999999778 -2.775557561562891351e-17 0.8000000000000000444 0 #
coedge $-1 $16 $17 $18 $19 1 $6 $-1 #
face $-1 $20 $21 $3 $-1 $22 forward single #
loop $-1 $23 $24 $8 #
plane-surface $-1 -50 0 0 1 0 0 0 0 -1 0 #
coedge $-1 $25 $26 $24 $27 1 $9 $-1 #
coedge $-1 $17 $11 $26 $28 0 $6 $-1 #
coedge $-1 $11 $16 $29 $30 1 $6 $-1 #
coedge $-1 $31 $24 $11 $19 0 $13 $-1 #
edge $-1 $32 $33 $18 $34 0 #
face $-1 $35 $36 $3 $-1 $37 reversed single #
loop $-1 $-1 $29 $12 #
plane-surface $-1 0 0 20 0 0 1 1 0 0 0 #
loop $-1 $-1 $38 $8 #
coedge $-1 $18 $39 $15 $27 0 $13 $-1 #
coedge $-1 $40 $15 $41 $42 1 $9 $-1 #
coedge $-1 $15 $40 $16 $28 1 $9 $-1 #
edge $-1 $43 $32 $24 $44 0 #
edge $-1 $32 $45 $16 $46 0 #
coedge $-1 $47 $48 $17 $30 0 $21 $-1 #
edge $-1 $33 $45 $29 $49 0 #
coedge $-1 $50 $18 $48 $51 1 $13 $-1 #
vertex $-1 $27 $52 #
vertex $-1 $51 $53 #
straight-curve $-1 -50 1.232814036894437582 11.43850196867456681 0 -0.142529832933556283 0.9897905064830297972 #
face $-1 $54 $55 $3 $-1 $56 reversed single #
loop $-1 $57 $58 $20 #
cone-surface $-1 -47.95875854784735282 -16.48985854722127442 4.487582904179223675 0.4082482904305296811 0.4082482904305295701 0.8164965809610594816 -1.060660171779821193 1.060660171779821415 0 1 0 1 0 #
coedge $-1 $59 $59 $60 $61 0 $23 $-1 #
coedge $-1 $24 $62 $63 $64 1 $13 $-1 #
coedge $-1 $26 $25 $47 $65 1 $9 $-1 #
coedge $-1 $63 $66 $25 $42 0 $67 $-1 #
edge $-1 $68 $43 $41 $69 0 #
vertex $-1 $42 $70 #
straight-curve $-1 -50 -15.32759518957250933 13.86896192417100693 -0 0.9284766908852593037 0.371390676354103777 #
vertex $-1 $65 $71 #
straight-curve $-1 -52.09999243335253993 -3.94096221860706919e-05 17.1999943250144085 0.5999999999999999778 -2.775557561562891351e-17 0.8000000000000000444 #
coedge $-1 $72 $29 $40 $65 0 $21 $-1 #
coedge $-1 $29 $73 $31 $51 0 $21 $-1 #
straight-curve $-1 -30.32332204994676417 3.777880486793797399 20 0.9820624415465404322 0.1885559887769357457 -0 #
coedge $-1 $62 $31 $74 $75 0 $13 $-1 #
edge $-1 $76 $33 $31 $77 0 #
point $-1 -50 -3.940962218616783641e-05 19.99998423615112841 #
point $-1 -50 -4.16796164245215124e-05 20 #
face $-1 $78 $79 $3 $-1 $80 reversed single #
loop $-1 $-1 $60 $35 #
plane-surface $-1 -51.22474487129159115 -19.75584487066551276 -2.044389743509252177 -0.4082482904305296811 -0.4082482904305295701 -0.8164965809610594816 0.7071067811865474617 -0.7071067811865476838 0 0 #
loop $-1 $-1 $81 $20 #
coedge $-1 $58 $58 $82 $83 0 $36 $-1 #
coedge $-1 $38 $38 $81 $84 0 $23 $-1 #
coedge $-1 $85 $85 $38 $61 1 $55 $-1 #
edge $-1 $86 $87 $38 $88 0 #
coedge $-1 $39 $50 $89 $90 1 $13 $-1 #
coedge $-1 $91 $41 $39 $64 0 $67 $-1 #
edge $-1 $43 $92 $39 $93 0 #
edge $-1 $45 $68 $47 $94 0 #
coedge $-1 $41 $95 $72 $96 1 $67 $-1 #
loop $-1 $-1 $41 $97 #
vertex $-1 $65 $98 #
straight-curve $-1 -37.25 -50 17.00000000000000355 -0.5999999999999999778 0 -0.8000000000000001554 #
point $-1 -50 -50 7.105427357601001859e-15 #
point $-1 -49.99998817711334453 -3.940962218616783641e-05 20 #
coedge $-1 $99 $47 $66 $96 0 $21 $-1 #
coedge $-1 $48 $99 $100 $101 0 $21 $-1 #
coedge $-1 $100 $102 $50 $75 1 $103 $-1 #
edge $-1 $76 $104 $74 $105 0 #
vertex $-1 $101 $106 #
straight-curve $-1 -50 0 20 0 -1 0 #
face $-1 $107 $108 $3 $-1 $109 reversed single #
loop $-1 $-1 $82 $54 #
plane-surface $-1 -45.91751709569470563 -14.44861709506862724 8.570065808984519862 0.4082482904305296811 0.4082482904305295701 0.8164965809610594816 -0.7071067811865474617 0.7071067811865476838 0 0 #
coedge $-1 $110 $110 $59 $84 1 $57 $-1 #
coedge $-1 $82 $82 $58 $83 1 $79 $-1 #
edge $-1 $111 $111 $82 $112 0 #
edge $-1 $87 $86 $59 $113 0 #
coedge $-1 $60 $60 $110 $114 1 $55 $-1 #
vertex $-1 $61 $115 #
vertex $-1 $61 $116 #
straight-curve $-1 -50 -12.50733384489429412 -6.281017691521777024 0 0.8944271910218248856 -0.4472135954561400339 #
coedge $-1 $117 $118 $62 $90 0 $119 $-1 #
edge $-1 $92 $104 $62 $120 0 #
coedge $-1 $121 $63 $118 $122 1 $67 $-1 #
vertex $-1 $90 $123 #
straight-curve $-1 -50 -50 0 0 0 -1 #
straight-curve $-1 -44.38394208626493054 -18.72019304578358501 20 0.2873478855663453846 -0.95782628522115143 0 #
coedge $-1 $66 $124 $125 $126 0 $67 $-1 #
edge $-1 $68 $127 $66 $128 0 #
face $-1 $129 $67 $3 $-1 $130 reversed single #
point $-1 -35 -50 20.00000000000000711 #
coedge $-1 $73 $72 $131 $132 0 $21 $-1 #
coedge $-1 $133 $74 $73 $101 1 $103 $-1 #
edge $-1 $134 $76 $100 $135 0 #
coedge $-1 $74 $136 $117 $137 1 $103 $-1 #
loop $-1 $-1 $133 $107 #
vertex $-1 $137 $138 #
straight-curve $-1 -50 50 0 0 0 -1 #
point $-1 -50 50 20 #
face $-1 $139 $103 $3 $-1 $140 reversed single #
loop $-1 $-1 $131 $78 #
cone-surface $-1 0 -0.002400000000001512035 20 0 -1 0 14.14213562373094923 0 14.14213562373094923 1 0 1 0 #
coedge $-1 $81 $81 $85 $114 0 $57 $-1 #
vertex $-1 $83 $141 #
ellipse-curve $-1 -45.91751709569470563 -14.44861709506862724 8.570065808984519862 0.4082482904305296811 0.4082482904305295701 0.8164965809610594816 -1.060660171779821193 1.060660171779821415 0 1 #
ellipse-curve $-1 -50 -18.53109999937392161 0.4050999993739283767 1 0 0 -7.021666937325399765e-17 1.643167672488665021 3.286335345379823636 0.4082482904305297366 #
edge $-1 $87 $86 $85 $142 0 #
point $-1 -50 -20.60079384512567557 -2.234287691901708506 #
point $-1 -50 -19.40079384462599066 -2.834287692078067522 #
coedge $-1 $143 $89 $102 $137 0 $119 $-1 #
coedge $-1 $89 $143 $91 $122 0 $119 $-1 #
loop $-1 $-1 $143 $144 #
straight-curve $-1 -50 0 -20 0 1 0 #
coedge $-1 $124 $91 $145 $146 1 $67 $-1 #
edge $-1 $147 $92 $91 $148 0 #
point $-1 -50 -50 -20 #
coedge $-1 $95 $121 $149 $150 1 $67 $-1 #
coedge $-1 $151 $131 $95 $126 1 $108 $-1 #
edge $-1 $152 $127 $95 $153 0 #
vertex $-1 $96 $154 #
straight-curve $-1 0 -50 20 1 0 0 #
face $-1 $-1 $155 $3 $-1 $156 reversed single #
plane-surface $-1 0 -50 0 0 1 -0 -0 0 1 0 #
coedge $-1 $125 $157 $99 $132 1 $108 $-1 #
edge $-1 $127 $134 $99 $158 0 #
coedge $-1 $159 $100 $157 $160 0 $103 $-1 #
vertex $-1 $160 $161 #
straight-curve $-1 0 50 20 -1 0 0 #
coedge $-1 $102 $159 $162 $163 0 $103 $-1 #
edge $-1 $104 $164 $102 $165 0 #
point $-1 -50 50 -20 #
face $-1 $144 $166 $3 $-1 $22 forward single #
plane-surface $-1 0 50 0 0 -1 0 0 0 -1 0 #
point $-1 -46.97817726747452838 -13.38795692328880449 8.570065808984519862 #
ellipse-curve $-1 -51.22474487129159115 -19.75584487066551276 -2.044389743509252177 -0.4082482904305296811 -0.4082482904305295701 -0.8164965809610594816 -1.060660171779821193 1.060660171779821415 0 1 #
coedge $-1 $118 $117 $167 $168 0 $119 $-1 #
face $-1 $97 $119 $3 $-1 $169 reversed single #
coedge $-1 $167 $170 $121 $146 0 $155 $-1 #
edge $-1 $171 $147 $145 $172 0 #
vertex $-1 $146 $173 #
straight-curve $-1 0 -50 -20 -1 0 0 #
coedge $-1 $174 $175 $124 $150 0 $166 $-1 #
edge $-1 $152 $171 $124 $128 0 #
coedge $-1 $157 $125 $175 $176 1 $108 $-1 #
vertex $-1 $176 $177 #
ellipse-curve $-1 0 -50 20 0 1 -0 14.14213562373094923 0 14.14213562373094923 1 #
point $-1 -20 -50.00000000000000711 20 #
loop $-1 $-1 $145 $129 #
plane-surface $-1 50 0 0 -1 0 0 0 -0 1 0 #
coedge $-1 $131 $151 $133 $160 1 $108 $-1 #
straight-curve $-1 -20 -0.002400000000001512035 20 -0 1 -0 #
coedge $-1 $136 $133 $178 $179 1 $103 $-1 #
edge $-1 $134 $180 $133 $181 0 #
point $-1 -20 49.99999999999999289 20 #
coedge $-1 $170 $167 $136 $163 1 $155 $-1 #
edge $-1 $182 $164 $162 $183 0 #
vertex $-1 $168 $184 #
straight-curve $-1 0 50 -20 1 0 0 #
loop $-1 $-1 $175 $139 #
coedge $-1 $162 $145 $143 $168 1 $155 $-1 #
edge $-1 $164 $147 $167 $185 0 #
plane-surface $-1 0 0 -20 0 0 1 1 0 0 0 #
coedge $-1 $145 $162 $174 $186 1 $155 $-1 #
vertex $-1 $186 $187 #
straight-curve $-1 50 -50 0 0 0 -1 #
point $-1 50 -50 -20 #
coedge $-1 $178 $149 $170 $186 0 $166 $-1 #
coedge $-1 $149 $178 $151 $176 0 $166 $-1 #
edge $-1 $180 $152 $175 $188 0 #
point $-1 20 -50.00000000000000711 20 #
coedge $-1 $175 $174 $159 $179 0 $166 $-1 #
edge $-1 $182 $180 $159 $135 0 #
vertex $-1 $179 $189 #
ellipse-curve $-1 0 50 20 0 -1 0 14.14213562373094923 0 14.14213562373094923 1 #
vertex $-1 $186 $190 #
straight-curve $-1 50 50 0 0 0 -1 #
point $-1 50 50 -20 #
straight-curve $-1 50 0 -20 0 -1 0 #
edge $-1 $171 $182 $170 $191 0 #
point $-1 50 -50 20 #
straight-curve $-1 20 -0.002400000000001512035 20 0 -1 0 #
point $-1 20 49.99999999999999289 20 #
point $-1 50 50 20 #
straight-curve $-1 50 0 20 0 1 0 #
