600 0 1 0           
71 GICL ACIS Healer - Source: /gicl/data5/repository/new/foralex.sat - 6 0 18 ACIS 6.0.3 Solaris 24 Sat Apr 13 20:20:37 2002 
1 9.999999999999999547e-07 1.000000000000000036e-10 
body $-1 $1 $-1 $-1 #
lump $-1 $-1 $2 $0 #
shell $-1 $-1 $-1 $3 $-1 $1 #
face $-1 $4 $5 $2 $-1 $6 forward single #
face $-1 $7 $8 $2 $-1 $9 forward single #
loop $-1 $-1 $10 $3 #
plane-surface $-1 -8.874764817018110818 47.99191887527814515 42.23209861276358623 0.186698361980259353 -0.9723873019805174822 -0.1400237714851945148 0.777909841584414008 0.2333729524753241913 -0.5834323811883104227 forward_v I I I I #
face $-1 $11 $12 $2 $-1 $13 reversed single #
loop $-1 $-1 $14 $4 #
plane-surface $-1 2.634703783323729454 25.00478029518890821 33.5999971625072078 -0.777909841584414008 -0.2333729524753241913 0.5834323811883104227 0.5999999999999999778 -2.775557561562891351e-17 0.8000000000000000444 forward_v I I I I #
coedge $-1 $15 $16 $17 $18 reversed $5 $-1 #
face $-1 $19 $20 $2 $-1 $21 forward single #
loop $-1 $22 $23 $7 #
plane-surface $-1 -0.0653000000000005798 50.00480000000000302 20 1 0 0 0 0 -1 forward_v I I I I #
coedge $-1 $24 $25 $23 $26 reversed $8 $-1 #
coedge $-1 $16 $10 $25 $27 forward $5 $-1 #
coedge $-1 $10 $15 $28 $29 reversed $5 $-1 #
coedge $-1 $30 $23 $10 $18 forward $12 $-1 #
edge $-1 $31 8.649792265534680169 $32 8.649808191984538652 $17 $33 forward 7 unknown #
face $-1 $34 $35 $2 $-1 $36 reversed single #
loop $-1 $-1 $28 $11 #
plane-surface $-1 49.93469999999999942 50.00480000000000302 40 0 0 1 1 0 0 forward_v I I I I #
loop $-1 $-1 $37 $7 #
coedge $-1 $17 $38 $14 $26 forward $12 $-1 #
coedge $-1 $39 $14 $40 $41 reversed $8 $-1 #
coedge $-1 $14 $39 $15 $27 reversed $8 $-1 #
edge $-1 $42 -37.34332283276704345 $31 16.50828279311589952 $23 $43 forward 7 unknown #
edge $-1 $31 3.499987388920899889 $44 3.50000709373199026 $15 $45 forward 7 unknown #
coedge $-1 $46 $47 $16 $29 forward $20 $-1 #
edge $-1 $32 -20.0360762387640392 $44 -20.03606419993009879 $28 $48 forward 7 unknown #
coedge $-1 $49 $17 $47 $50 reversed $12 $-1 #
vertex $-1 $26 $51 #
vertex $-1 $50 $52 #
straight-curve $-1 -0.0653000000000005798 51.23761403689444194 31.43850196867456503 0 -0.142529832933556283 0.9897905064830297972 I I #
face $-1 $53 $54 $2 $-1 $55 reversed single #
loop $-1 $56 $57 $19 #
cone-surface $-1 1.975941452152646605 33.5149414527787286 24.48758290417922368 0.4082482904305296811 0.4082482904305295701 0.8164965809610594816 -1.060660171779821193 1.060660171779821415 0 1 I I 0 1 1.5 forward I I I I #
coedge $-1 $58 $58 $59 $60 forward $22 $-1 #
coedge $-1 $23 $61 $62 $63 reversed $12 $-1 #
coedge $-1 $25 $24 $46 $64 reversed $8 $-1 #
coedge $-1 $62 $65 $24 $41 forward $66 $-1 #
edge $-1 $67 -3.750000000000006217 $42 21.24999999999999645 $40 $68 forward 7 unknown #
vertex $-1 $41 $69 #
straight-curve $-1 -0.0653000000000005798 34.67720481042749725 33.86896192417100337 0 0.9284766908852593037 0.371390676354103777 I I #
vertex $-1 $64 $70 #
straight-curve $-1 -2.165292433352540513 50.0047605903778134 37.1999943250144085 0.5999999999999999778 -2.775557561562891351e-17 0.8000000000000000444 I I #
coedge $-1 $71 $28 $39 $64 forward $20 $-1 #
coedge $-1 $28 $72 $30 $50 forward $20 $-1 #
straight-curve $-1 19.61137795005323525 53.78268048679380087 40 0.9820624415465404322 0.1885559887769357457 0 I I #
coedge $-1 $61 $30 $73 $74 forward $12 $-1 #
edge $-1 $75 -50 $32 4.167961642309592207e-05 $30 $76 forward 7 unknown #
point $-1 -0.0653000000000005798 50.0047605903778134 39.99998423615112841 #
point $-1 -0.0653000000000005798 50.00475832038357993 40 #
face $-1 $77 $78 $2 $-1 $79 reversed single #
loop $-1 $-1 $59 $34 #
plane-surface $-1 -1.290044871291591733 30.24895512933449027 17.95561025649074693 -0.4082482904305296811 -0.4082482904305295701 -0.8164965809610594816 0.7071067811865474617 -0.7071067811865476838 0 forward_v I I I I #
loop $-1 $-1 $80 $19 #
coedge $-1 $57 $57 $81 $82 forward $35 $-1 #
coedge $-1 $37 $37 $80 $83 forward $22 $-1 #
coedge $-1 $84 $84 $37 $60 reversed $54 $-1 #
edge $-1 $85 -9.048763366624770654 $86 -7.707122579599094969 $37 $87 forward 7 unknown #
coedge $-1 $38 $49 $88 $89 reversed $12 $-1 #
coedge $-1 $90 $40 $38 $63 forward $66 $-1 #
edge $-1 $42 -7.105427357601001859e-15 $91 20 $38 $92 forward 7 unknown #
edge $-1 $44 -19.54441418554213072 $67 32.65707721415711973 $46 $93 forward 7 unknown #
coedge $-1 $40 $94 $71 $95 reversed $66 $-1 #
loop $-1 $-1 $40 $96 #
vertex $-1 $64 $97 #
straight-curve $-1 12.68469999999999942 0.00480000000000302407 37 -0.5999999999999999778 0 -0.8000000000000001554 I I #
point $-1 -0.0653000000000005798 0.00480000000000302407 20.00000000000000711 #
point $-1 -0.06528817711334511387 50.0047605903778134 40 #
coedge $-1 $98 $46 $65 $95 forward $20 $-1 #
coedge $-1 $47 $98 $99 $100 forward $20 $-1 #
coedge $-1 $99 $101 $49 $74 reversed $102 $-1 #
edge $-1 $75 -20 $103 20 $73 $104 forward 7 unknown #
vertex $-1 $100 $105 #
straight-curve $-1 -0.0653000000000005798 50.00480000000000302 40 0 -1 0 I I #
face $-1 $106 $107 $2 $-1 $108 reversed single #
loop $-1 $-1 $81 $53 #
plane-surface $-1 4.017182904305293789 35.55618290493137579 28.57006580898451986 0.4082482904305296811 0.4082482904305295701 0.8164965809610594816 -0.7071067811865474617 0.7071067811865476838 0 forward_v I I I I #
coedge $-1 $109 $109 $58 $83 reversed $56 $-1 #
coedge $-1 $81 $81 $57 $82 reversed $78 $-1 #
edge $-1 $110 1.33577434602673182e-16 $110 6.283185307179586232 $81 $111 forward 7 unknown #
edge $-1 $86 -2.677945044393034379 $85 2.677945044393029939 $58 $112 forward 7 unknown #
coedge $-1 $59 $59 $109 $113 reversed $54 $-1 #
vertex $-1 $60 $114 #
vertex $-1 $60 $115 #
straight-curve $-1 -0.0653000000000005798 37.49746615510571246 13.71898230847822298 0 0.8944271910218248856 -0.4472135954561400339 I I #
coedge $-1 $116 $117 $61 $89 forward $118 $-1 #
edge $-1 $91 -50 $103 50 $61 $119 forward 7 unknown #
coedge $-1 $120 $62 $117 $121 reversed $66 $-1 #
vertex $-1 $89 $122 #
straight-curve $-1 -0.0653000000000005798 0.00480000000000302407 20 0 0 -1 I I #
straight-curve $-1 5.550757913735068882 31.28460695421641802 40 0.2873478855663453846 -0.95782628522115143 0 I I #
coedge $-1 $65 $123 $124 $125 forward $66 $-1 #
edge $-1 $67 -35 $126 -20 $65 $127 forward 7 unknown #
face $-1 $128 $66 $2 $-1 $129 reversed single #
point $-1 14.93469999999999942 0.00480000000000302407 40.00000000000000711 #
coedge $-1 $72 $71 $130 $131 forward $20 $-1 #
coedge $-1 $132 $73 $72 $100 reversed $102 $-1 #
edge $-1 $133 20 $75 50 $99 $134 forward 7 unknown #
coedge $-1 $73 $135 $116 $136 reversed $102 $-1 #
loop $-1 $-1 $132 $106 #
vertex $-1 $136 $137 #
straight-curve $-1 -0.0653000000000005798 100.004800000000003 20 0 0 -1 I I #
point $-1 -0.0653000000000005798 100.004800000000003 40 #
face $-1 $138 $102 $2 $-1 $139 reversed single #
loop $-1 $-1 $130 $77 #
cone-surface $-1 49.93469999999999942 50.00240000000000151 40 0 -1 0 14.14213562373094923 0 14.14213562373094923 1 I I 0 1 20 forward I I I I #
coedge $-1 $80 $80 $84 $113 forward $56 $-1 #
vertex $-1 $82 $140 #
ellipse-curve $-1 4.017182904305293789 35.55618290493137579 28.57006580898451986 0.4082482904305296811 0.4082482904305295701 0.8164965809610594816 -1.060660171779821193 1.060660171779821415 0 1 I I #
ellipse-curve $-1 -0.0653000000000005798 31.47370000062608142 20.40509999937392749 1 0 0 -7.021666937325399765e-17 1.643167672488665021 3.286335345379823636 0.4082482904305297366 I I #
edge $-1 $86 1.993225841370750873 $85 2.920521059764272565 $84 $141 forward 7 unknown #
point $-1 -0.0653000000000005798 29.40400615487432745 17.76571230809829061 #
point $-1 -0.0653000000000005798 30.60400615537401237 17.16571230792193248 #
coedge $-1 $142 $88 $101 $136 forward $118 $-1 #
coedge $-1 $88 $142 $90 $121 forward $118 $-1 #
loop $-1 $-1 $142 $143 #
straight-curve $-1 -0.0653000000000005798 50.00480000000000302 0 0 1 0 I I #
coedge $-1 $123 $90 $144 $145 reversed $66 $-1 #
edge $-1 $146 -49.99999999999999289 $91 50 $90 $147 forward 7 unknown #
point $-1 -0.0653000000000005798 0.00480000000000302407 0 #
coedge $-1 $94 $120 $148 $149 reversed $66 $-1 #
coedge $-1 $150 $130 $94 $125 reversed $107 $-1 #
edge $-1 $151 0.785398163397448279 $126 3.926990816987241395 $94 $152 forward 7 unknown #
vertex $-1 $95 $153 #
straight-curve $-1 49.93469999999999942 0.00480000000000302407 40 1 0 0 I I #
face $-1 $-1 $154 $2 $-1 $155 reversed single #
plane-surface $-1 49.93469999999999942 0.00480000000000302407 20 0 1 0 0 0 1 forward_v I I I I #
coedge $-1 $124 $156 $98 $131 reversed $107 $-1 #
edge $-1 $126 -49.99760000000000559 $133 50.0023999999999873 $98 $157 forward 7 unknown #
coedge $-1 $158 $99 $156 $159 forward $102 $-1 #
vertex $-1 $159 $160 #
straight-curve $-1 49.93469999999999942 100.004800000000003 40 -1 0 0 I I #
coedge $-1 $101 $158 $161 $162 forward $102 $-1 #
edge $-1 $103 -50 $163 49.99999999999999289 $101 $164 forward 7 unknown #
point $-1 -0.0653000000000005798 100.004800000000003 0 #
face $-1 $143 $165 $2 $-1 $21 forward single #
plane-surface $-1 49.93469999999999942 100.004800000000003 20 0 -1 0 0 0 -1 forward_v I I I I #
point $-1 2.956522732525471042 36.61684307671119853 28.57006580898451986 #
ellipse-curve $-1 -1.290044871291591733 30.24895512933449027 17.95561025649074693 -0.4082482904305296811 -0.4082482904305295701 -0.8164965809610594816 -1.060660171779821193 1.060660171779821415 0 1 I I #
coedge $-1 $117 $116 $166 $167 forward $118 $-1 #
face $-1 $96 $118 $2 $-1 $168 reversed single #
coedge $-1 $166 $169 $120 $145 forward $154 $-1 #
edge $-1 $170 -20 $146 20 $144 $171 forward 7 unknown #
vertex $-1 $145 $172 #
straight-curve $-1 49.93469999999999942 0.00480000000000302407 0 -1 0 0 I I #
coedge $-1 $173 $174 $123 $149 forward $165 $-1 #
edge $-1 $151 19.99999999999999289 $170 49.99999999999999289 $123 $127 forward 7 unknown #
coedge $-1 $156 $124 $174 $175 reversed $107 $-1 #
vertex $-1 $175 $176 #
ellipse-curve $-1 49.93469999999999942 0.00480000000000302407 40 0 1 0 14.14213562373094923 0 14.14213562373094923 1 I I #
point $-1 29.93469999999999942 0.004799999999995918643 40 #
loop $-1 $-1 $144 $128 #
plane-surface $-1 99.93469999999999231 50.00480000000000302 20 -1 0 0 0 0 1 forward_v I I I I #
coedge $-1 $130 $150 $132 $159 reversed $107 $-1 #
straight-curve $-1 29.93469999999999942 50.00240000000000151 40 0 1 0 I I #
coedge $-1 $135 $132 $177 $178 reversed $102 $-1 #
edge $-1 $133 2.356194490192344837 $179 5.497787143782137953 $132 $180 forward 7 unknown #
point $-1 29.93469999999999942 100.0047999999999888 40 #
coedge $-1 $169 $166 $135 $162 reversed $154 $-1 #
edge $-1 $181 -20 $163 20 $161 $182 forward 7 unknown #
vertex $-1 $167 $183 #
straight-curve $-1 49.93469999999999942 100.004800000000003 0 1 0 0 I I #
loop $-1 $-1 $174 $138 #
coedge $-1 $161 $144 $142 $167 reversed $154 $-1 #
edge $-1 $163 -50 $146 50 $166 $184 forward 7 unknown #
plane-surface $-1 49.93469999999999942 50.00480000000000302 0 0 0 1 1 0 0 forward_v I I I I #
coedge $-1 $144 $161 $173 $185 reversed $154 $-1 #
vertex $-1 $185 $186 #
straight-curve $-1 99.93469999999999231 0.00480000000000302407 20 0 0 -1 I I #
point $-1 99.93469999999999231 0.00480000000000302407 0 #
coedge $-1 $177 $148 $169 $185 forward $165 $-1 #
coedge $-1 $148 $177 $150 $175 forward $165 $-1 #
edge $-1 $179 -50.0023999999999873 $151 49.99760000000000559 $174 $187 forward 7 unknown #
point $-1 69.93469999999999231 0.004799999999995918643 40 #
coedge $-1 $174 $173 $158 $178 forward $165 $-1 #
edge $-1 $181 -49.99999999999999289 $179 -19.99999999999999289 $158 $134 forward 7 unknown #
vertex $-1 $178 $188 #
ellipse-curve $-1 49.93469999999999942 100.004800000000003 40 0 -1 0 14.14213562373094923 0 14.14213562373094923 1 I I #
vertex $-1 $185 $189 #
straight-curve $-1 99.93469999999999231 100.004800000000003 20 0 0 -1 I I #
point $-1 99.93469999999999231 100.004800000000003 0 #
straight-curve $-1 99.93469999999999231 50.00480000000000302 0 0 -1 0 I I #
edge $-1 $170 -50 $181 50 $169 $190 forward 7 unknown #
point $-1 99.93469999999999231 0.00480000000000302407 40 #
straight-curve $-1 69.93469999999999231 50.00240000000000151 40 0 -1 0 I I #
point $-1 69.93469999999999231 100.0047999999999888 40 #
point $-1 99.93469999999999231 100.004800000000003 40 #
straight-curve $-1 99.93469999999999231 50.00480000000000302 40 0 1 0 I I #
End-of-ACIS-data 