600 0 1 0           
69 GICL ACIS Healer - Source: /gicl/data5/repository/new/gland.sat - 6 0 18 ACIS 6.0.3 Solaris 24 Sat Apr 13 20:18:19 2002 
1 9.999999999999999547e-07 1.000000000000000036e-10 
body $-1 $1 $-1 $-1 #
lump $-1 $-1 $2 $0 #
shell $-1 $-1 $-1 $3 $-1 $1 #
face $-1 $4 $5 $2 $-1 $6 forward single #
face $-1 $7 $8 $2 $-1 $9 forward single #
loop $-1 $10 $11 $3 #
cone-surface $-1 -406.159261713005094 227.0195987115319554 166.2119601103512991 -1.732284021088714512e-15 -1 -2.275957200481570908e-15 3.497202527569244365e-14 -1.593170040337100645e-13 70.00000000000002842 1 I I 0 1 7.000000000000002665 forward I I I I #
face $-1 $12 $13 $2 $-1 $14 forward single #
loop $-1 $15 $16 $4 #
plane-surface $-1 -406.159261713005094 190.0195987115317848 236.2119601103512423 -1.732284021088714512e-15 -1 -2.275957200481570908e-15 4.996003610813204432e-15 -2.275957200481570908e-14 10 forward_v I I I I #
loop $-1 $-1 $17 $3 #
coedge $-1 $11 $11 $16 $18 forward $5 $-1 #
face $-1 $19 $20 $2 $-1 $21 forward single #
loop $-1 $22 $23 $7 #
cone-surface $-1 -406.1592617130050371 227.0195987115318133 278.711960110351356 1.609823385706476786e-15 1 2.275957200481570908e-15 -3.996802888650562757e-15 1.820765760385256095e-14 -7.999999999999998224 1 I I 0 -1 0.7999999999999998224 forward I I I I #
loop $-1 $-1 $24 $4 #
coedge $-1 $16 $16 $11 $18 reversed $8 $-1 #
coedge $-1 $17 $17 $25 $26 reversed $10 $-1 #
edge $-1 $27 3.124484797873655075e-16 $27 6.283185307179586232 $11 $28 forward 7 unknown #
face $-1 $29 $30 $2 $-1 $31 forward single #
loop $-1 $32 $33 $12 #
cone-surface $-1 -406.1592617130051508 227.0195987115323248 53.71196011035132756 1.609823385706476786e-15 1 2.275957200481570908e-15 -3.996802888650562757e-15 1.820765760385256726e-14 -7.999999999999998224 1 I I 0 -1 0.8000000000000001554 forward I I I I #
loop $-1 $-1 $34 $7 #
coedge $-1 $23 $23 $35 $36 forward $13 $-1 #
coedge $-1 $24 $24 $37 $38 reversed $15 $-1 #
coedge $-1 $25 $25 $17 $26 forward $39 $-1 #
edge $-1 $40 3.124484797873681206e-16 $40 6.283185307179586232 $25 $41 forward 7 unknown #
vertex $-1 $18 $42 #
ellipse-curve $-1 -406.1592617130051508 190.0195987115319554 166.2119601103512139 1.732284021088714512e-15 1 2.275957200481570908e-15 3.497202527569244365e-14 -1.593170040337100645e-13 70.00000000000002842 1 I I #
face $-1 $43 $44 $2 $-1 $45 forward single #
loop $-1 $46 $37 $19 #
cone-surface $-1 -406.159261713005094 227.019598711532069 166.2119601103513276 1.609823385706476786e-15 1 2.275957200481570908e-15 -2.697841949839130393e-14 1.22901688826004829e-13 -54 1 I I 0 -1 5.400000000000000355 forward I I I I #
loop $-1 $-1 $47 $12 #
coedge $-1 $33 $33 $48 $49 forward $20 $-1 #
coedge $-1 $34 $34 $50 $51 forward $22 $-1 #
coedge $-1 $35 $35 $23 $36 reversed $52 $-1 #
edge $-1 $53 -3.14159265358979356 $53 3.141592653589792672 $23 $54 reversed 7 unknown #
coedge $-1 $37 $37 $24 $38 forward $30 $-1 #
edge $-1 $55 -3.14159265358979356 $55 3.141592653589792672 $37 $56 forward 7 unknown #
loop $-1 $57 $25 $58 #
vertex $-1 $26 $59 #
ellipse-curve $-1 -406.159261713005094 227.019598711532069 166.2119601103512991 1.609823385706476786e-15 1 2.275957200481570908e-15 3.497202527569244365e-14 -1.593170040337100645e-13 70.00000000000002842 1 I I #
point $-1 -406.159261713005094 190.0195987115317848 236.2119601103512423 #
face $-1 $60 $61 $2 $-1 $62 forward single #
loop $-1 $-1 $63 $29 #
cone-surface $-1 -406.159261713005094 227.0195987115322964 53.71195951835150595 1.609823385706476786e-15 1 2.275957200481570908e-15 7.993605563037007348e-15 -3.641531423161302856e-14 15.99999957112897064 1 I I 0 1 1.599999957112897331 forward I I I I #
loop $-1 $-1 $64 $19 #
coedge $-1 $47 $47 $65 $66 forward $32 $-1 #
coedge $-1 $48 $48 $33 $49 reversed $67 $-1 #
edge $-1 $68 -3.14159265358979356 $68 3.141592653589792672 $33 $69 reversed 7 unknown #
coedge $-1 $50 $50 $34 $51 reversed $70 $-1 #
edge $-1 $71 -3.141592653589792672 $71 3.14159265358979356 $34 $72 reversed 7 unknown #
loop $-1 $-1 $35 $73 #
vertex $-1 $36 $74 #
ellipse-curve $-1 -406.1592617130049803 265.0195987115317848 278.7119601103514697 -1.609823385706476786e-15 -1 -2.275957200481570908e-15 -3.996802888650562757e-15 1.820765760385256095e-14 -7.999999999999998224 1 I I #
vertex $-1 $38 $75 #
ellipse-curve $-1 -406.1592617130051508 190.0195987115319554 166.2119601103512423 -1.732284021088714512e-15 -1 -2.275957200481570908e-15 -2.697841949839130393e-14 1.22901688826004829e-13 -54 1 I I #
loop $-1 $76 $77 $58 #
face $-1 $73 $39 $2 $-1 $78 reversed single #
point $-1 -406.1592617130050371 227.0195987115317848 236.2119601103513276 #
face $-1 $79 $80 $2 $-1 $81 forward single #
loop $-1 $-1 $82 $43 #
plane-surface $-1 -395.1299306720998743 227.0195987115323248 42.12084899924025194 0.6893331900565790038 5.773655387474320279e-16 -0.7244444444444448905 1.609823385706476668e-14 10 2.275957200481570908e-14 forward_v I I I I #
coedge $-1 $83 $84 $85 $86 forward $44 $-1 #
coedge $-1 $64 $64 $87 $88 forward $46 $-1 #
coedge $-1 $65 $65 $47 $66 reversed $76 $-1 #
edge $-1 $89 -3.141592653589792672 $89 3.14159265358979356 $47 $90 reversed 7 unknown #
loop $-1 $52 $48 $73 #
vertex $-1 $49 $91 #
ellipse-curve $-1 -406.159261713005094 265.0195987115322964 53.71196011035141282 -1.609823385706476786e-15 -1 -2.275957200481570908e-15 -3.996802888650562757e-15 1.820765760385256726e-14 -7.999999999999998224 1 I I #
loop $-1 $-1 $50 $58 #
vertex $-1 $51 $92 #
ellipse-curve $-1 -406.1592617130050371 227.0195987115318133 278.711960110351356 1.609823385706476786e-15 1 2.275957200481570908e-15 -3.996802888650562757e-15 1.820765760385256095e-14 -7.999999999999998224 1 I I #
face $-1 $-1 $93 $2 $-1 $94 reversed single #
point $-1 -406.1592617130049803 265.0195987115317848 286.7119601103514128 #
point $-1 -406.159261713005094 190.0195987115318417 220.2119601103512423 #
loop $-1 $70 $65 $58 #
coedge $-1 $95 $96 $97 $98 reversed $57 $-1 #
plane-surface $-1 -406.1592617952531441 227.019598711532069 166.2119599590457142 1.609823385706476786e-15 1 2.275957200481570908e-15 4.996003610813204432e-15 -2.275957200481570908e-14 10 forward_v I I I I #
face $-1 $99 $100 $2 $-1 $101 forward single #
loop $-1 $-1 $102 $60 #
cone-surface $-1 -406.1592617130049234 227.019598711532069 166.211960110351356 1.609823385706476786e-15 1 2.275957200481570908e-15 4.871103520542871166e-14 -2.219058270469530121e-13 97.49999999999992895 1 I I 0 1 9.749999999999992895 forward I I I I #
coedge $-1 $103 $104 $105 $106 forward $61 $-1 #
coedge $-1 $107 $63 $104 $108 reversed $44 $-1 #
coedge $-1 $63 $107 $109 $110 forward $44 $-1 #
coedge $-1 $111 $105 $63 $86 reversed $93 $-1 #
edge $-1 $112 -3.902160859603302612 $113 -2.381024447576283176 $63 $114 reversed 7 unknown #
coedge $-1 $87 $87 $64 $88 reversed $115 $-1 #
edge $-1 $116 -3.141592653589792672 $116 3.14159265358979356 $64 $117 reversed 7 unknown #
vertex $-1 $66 $118 #
ellipse-curve $-1 -406.1592617130051508 227.0195987115323248 53.71196011035132756 1.609823385706476786e-15 1 2.275957200481570908e-15 -3.996802888650562757e-15 1.820765760385256726e-14 -7.999999999999998224 1 I I #
point $-1 -406.159261713005094 265.0195987115322964 61.7119601103513844 #
point $-1 -406.1592617130050371 227.0195987115317848 286.711960110351356 #
loop $-1 $115 $85 $73 #
plane-surface $-1 -417.1885927539103136 265.0195987115323533 42.12084899924030879 -1.609823385706476786e-15 -1 -2.275957200481570908e-15 -4.996003610813204432e-15 2.275957200481570908e-14 -10 forward_v I I I I #
coedge $-1 $119 $77 $107 $120 reversed $57 $-1 #
coedge $-1 $77 $121 $122 $123 reversed $57 $-1 #
coedge $-1 $124 $109 $77 $98 forward $125 $-1 #
edge $-1 $126 -77.54998426709232717 $127 2.23579144579113249e-08 $97 $128 reversed 7 unknown #
face $-1 $129 $130 $2 $-1 $131 forward single #
loop $-1 $-1 $132 $79 #
plane-surface $-1 -338.949275682488576 227.0195987115318133 236.8452934436846817 0.6893331900565792258 -2.720243560616978322e-15 0.7244444444444446685 -1.609823385706476668e-14 -10 -2.275957200481570908e-14 forward_v I I I I #
coedge $-1 $133 $134 $135 $136 forward $80 $-1 #
coedge $-1 $137 $82 $134 $138 reversed $61 $-1 #
coedge $-1 $82 $137 $83 $108 forward $61 $-1 #
coedge $-1 $85 $135 $82 $106 reversed $93 $-1 #
edge $-1 $113 7.990137190437320847 $139 85.54012147988768788 $82 $140 reversed 7 unknown #
coedge $-1 $84 $83 $95 $120 forward $44 $-1 #
edge $-1 $141 5.684341886080801487e-14 $113 38.00000000000005684 $104 $142 forward 7 unknown #
coedge $-1 $97 $143 $84 $110 reversed $125 $-1 #
edge $-1 $126 0 $112 38 $84 $144 forward 7 unknown #
coedge $-1 $145 $85 $143 $146 reversed $93 $-1 #
vertex $-1 $110 $147 #
vertex $-1 $108 $148 #
ellipse-curve $-1 -406.1592617130050371 265.0195987115322964 53.71195951835159121 1.609823385706476786e-15 1 2.275957200481570908e-15 7.993605563037007348e-15 -3.641531423161302856e-14 15.99999957112897064 1 I I #
loop $-1 $67 $87 $73 #
vertex $-1 $88 $149 #
ellipse-curve $-1 -406.1592617130050371 265.019598711532069 166.2119601103514128 -1.609823385706476786e-15 -1 -2.275957200481570908e-15 -2.697841949839130393e-14 1.22901688826004829e-13 -54 1 I I #
point $-1 -406.1592617130051508 227.0195987115322964 61.71196011035129914 #
coedge $-1 $150 $95 $137 $151 reversed $57 $-1 #
edge $-1 $141 -3.9021608596033035 $126 -2.381024447576282288 $107 $152 reversed 7 unknown #
coedge $-1 $96 $153 $154 $155 reversed $57 $-1 #
coedge $-1 $156 $157 $96 $123 forward $158 $-1 #
edge $-1 $127 -2.38102444757628362 $159 -0.7605682060135094957 $122 $160 reversed 7 unknown #
coedge $-1 $143 $97 $157 $161 forward $125 $-1 #
loop $-1 $-1 $143 $162 #
vertex $-1 $98 $163 #
vertex $-1 $98 $164 #
straight-curve $-1 -473.3692477273244776 227.0195987115323248 95.57862676160590354 0.7244444444444447795 4.026652291283985948e-16 -0.6893331900565791148 I I #
face $-1 $165 $166 $2 $-1 $167 forward single #
loop $-1 $-1 $168 $99 #
cone-surface $-1 -406.1592617130049803 227.0195987115318417 278.7119607023511207 1.609823385706476786e-15 1 2.275957200481570908e-15 7.99360556303700577e-15 -3.641531423161302225e-14 15.99999957112897064 1 I I 0 1 1.600000046980460056 forward I I I I #
coedge $-1 $169 $170 $171 $172 forward $100 $-1 #
coedge $-1 $173 $102 $170 $174 reversed $80 $-1 #
coedge $-1 $102 $173 $103 $138 forward $80 $-1 #
coedge $-1 $105 $171 $102 $136 reversed $93 $-1 #
edge $-1 $139 -2.381024447576282732 $175 -0.7605682060135102729 $102 $176 reversed 7 unknown #
coedge $-1 $104 $103 $119 $151 forward $61 $-1 #
edge $-1 $177 2.842170943040399797e-14 $139 38.00000000000002842 $134 $178 forward 7 unknown #
vertex $-1 $138 $179 #
straight-curve $-1 -400.9183414656960736 265.0195987115323533 36.61298195945982314 -0.7244444444444448905 2.73512044575200619e-15 -0.6893331900565790038 I I #
vertex $-1 $151 $180 #
straight-curve $-1 -395.1299309677348788 227.0195987115322964 42.12084871793362595 1.609823385706476786e-15 1 2.275957200481570908e-15 I I #
coedge $-1 $109 $124 $111 $146 forward $125 $-1 #
straight-curve $-1 -417.188592458275366 227.0195987115323533 42.12084871793360463 1.609823385706476786e-15 1 2.275957200481570908e-15 I I #
coedge $-1 $181 $111 $182 $183 reversed $93 $-1 #
edge $-1 $184 -38.77499194068253985 $112 38.77499234876772505 $143 $185 reversed 7 unknown #
point $-1 -417.1885924582752523 265.0195987115323533 42.12084871793371832 #
point $-1 -395.1299309677348219 265.0195987115323533 42.12084871793370411 #
point $-1 -406.1592617130049803 265.0195987115319554 220.2119601103514128 #
coedge $-1 $186 $119 $173 $187 reversed $57 $-1 #
edge $-1 $177 -38.77499202262475819 $141 38.77499226682564881 $137 $188 reversed 7 unknown #
ellipse-curve $-1 -406.159261713005094 227.0195987115323248 53.71195951835150595 -1.609823385706476786e-15 -1 -2.275957200481570908e-15 7.993605563037007348e-15 -3.641531423161302856e-14 15.99999957112897064 1 I I #
coedge $-1 $121 $186 $189 $190 reversed $57 $-1 #
coedge $-1 $191 $192 $121 $155 forward $166 $-1 #
edge $-1 $159 -38.77499185874039256 $193 38.77499243070975155 $154 $194 reversed 7 unknown #
coedge $-1 $182 $122 $192 $195 forward $158 $-1 #
coedge $-1 $122 $182 $124 $161 reversed $158 $-1 #
loop $-1 $-1 $182 $165 #
vertex $-1 $123 $196 #
ellipse-curve $-1 -406.1592617130050371 227.019598711532069 166.2119601103513844 -1.609823385706476786e-15 -1 -2.275957200481570908e-15 4.871103520542871797e-14 -2.219058270469530121e-13 97.49999999999992895 1 I I #
edge $-1 $127 0 $184 38.00000000000002842 $124 $197 forward 7 unknown #
face $-1 $58 $125 $2 $-1 $198 forward single #
point $-1 -417.188592458275366 227.0195987115323533 42.12084871793360463 #
point $-1 -473.3692477435215551 227.0195987115323248 95.57862677701794496 #
face $-1 $162 $158 $2 $-1 $199 forward single #
loop $-1 $-1 $200 $129 #
plane-surface $-1 -417.1885927539101999 227.0195987115318133 290.30307122146246 -0.6893331900565780046 -5.77365538747435775e-16 0.7244444444444457787 -1.609823385706476668e-14 -10 -2.275957200481570908e-14 forward_v I I I I #
coedge $-1 $201 $202 $203 $204 forward $130 $-1 #
coedge $-1 $205 $132 $202 $206 reversed $100 $-1 #
coedge $-1 $132 $205 $133 $174 forward $100 $-1 #
coedge $-1 $135 $203 $132 $172 reversed $93 $-1 #
edge $-1 $175 38.77499194068249722 $207 116.3249762301328332 $132 $208 reversed 7 unknown #
coedge $-1 $134 $133 $150 $187 forward $80 $-1 #
edge $-1 $209 0 $175 37.99999999999997158 $170 $210 forward 7 unknown #
vertex $-1 $174 $211 #
ellipse-curve $-1 -406.1592617130048666 265.019598711532069 166.2119601103514412 1.609823385706476786e-15 1 2.275957200481570908e-15 4.871103520542871166e-14 -2.219058270469530121e-13 97.49999999999992895 1 I I #
vertex $-1 $187 $212 #
straight-curve $-1 -338.949275682488576 227.0195987115320975 95.57862677701805865 1.609823385706476786e-15 1 2.275957200481570908e-15 I I #
point $-1 -338.9492756824885191 265.0195987115321259 95.57862677701810128 #
point $-1 -395.1299309677348788 227.0195987115323533 42.12084871793362595 #
coedge $-1 $203 $145 $200 $213 reversed $93 $-1 #
coedge $-1 $157 $156 $145 $183 forward $158 $-1 #
edge $-1 $214 0.7605682060135092737 $184 2.38102444757628362 $182 $215 reversed 7 unknown #
vertex $-1 $161 $216 #
straight-curve $-1 -445.2789202487159059 265.0195987115323533 68.84973788812919793 -0.7244444444444447795 -4.026652291283985948e-16 0.6893331900565791148 I I #
coedge $-1 $153 $150 $205 $217 reversed $57 $-1 #
edge $-1 $209 0.7605682060135102729 $177 2.381024447576282288 $173 $218 reversed 7 unknown #
straight-curve $-1 -367.0396032366567169 227.0195987115322396 68.84973783164372207 0.7244444444444448905 -2.73512044575200619e-15 0.6893331900565790038 I I #
coedge $-1 $202 $201 $153 $190 forward $130 $-1 #
edge $-1 $193 -0.7605682060135079414 $219 0.7605682060135093847 $189 $220 reversed 7 unknown #
coedge $-1 $200 $154 $201 $221 forward $166 $-1 #
coedge $-1 $154 $200 $156 $195 reversed $166 $-1 #
vertex $-1 $155 $222 #
straight-curve $-1 -445.2789203080783409 227.0195987115318985 263.5741822760882656 -0.7244444444444457787 2.735120445752005401e-15 -0.6893331900565780046 I I #
edge $-1 $159 -2.842170943040408317e-14 $214 37.99999999999997158 $156 $223 forward 7 unknown #
point $-1 -473.3692477435213277 227.0195987115320122 236.8452934436847954 #
straight-curve $-1 -473.3692477435215551 227.0195987115323248 95.57862677701794496 1.609823385706476786e-15 1 2.275957200481570908e-15 I I #
plane-surface $-1 -473.3692477435215551 227.0195987115323248 95.57862677701795917 -0.6893331900565791148 2.720243560616978322e-15 -0.7244444444444447795 1.609823385706476668e-14 10 2.275957200481570908e-14 forward_v I I I I #
cone-surface $-1 -406.1592617130050371 227.019598711532069 166.2119601103513844 1.609823385706476786e-15 1 2.275957200481570908e-15 4.871103520542871797e-14 -2.219058270469530121e-13 97.49999999999992895 1 I I 0 1 9.750000000000010658 forward I I I I #
coedge $-1 $192 $191 $181 $213 forward $166 $-1 #
coedge $-1 $189 $168 $191 $221 reversed $130 $-1 #
coedge $-1 $168 $189 $169 $206 forward $130 $-1 #
coedge $-1 $171 $181 $168 $204 reversed $93 $-1 #
edge $-1 $207 -0.7605682060135093847 $224 0.7605682060135079414 $168 $225 reversed 7 unknown #
coedge $-1 $170 $169 $186 $217 forward $100 $-1 #
edge $-1 $219 -2.842170943040400743e-14 $207 37.99999999999994316 $202 $226 forward 7 unknown #
vertex $-1 $206 $227 #
straight-curve $-1 -310.85894818768287 265.0195987115317848 210.1164045547959347 0.7244444444444446685 4.026652291283991865e-16 -0.6893331900565792258 I I #
vertex $-1 $217 $228 #
straight-curve $-1 -338.9492756824885191 227.0195987115318133 236.8452934436846249 1.609823385706476786e-15 1 2.275957200481570908e-15 I I #
point $-1 -338.9492756824884054 265.0195987115317848 236.845293443684767 #
point $-1 -338.9492756824885191 227.0195987115321259 95.57862677701801601 #
edge $-1 $224 -85.54012188797264571 $214 -7.9901375985224945 $200 $229 reversed 7 unknown #
vertex $-1 $195 $230 #
ellipse-curve $-1 -406.1592617130049803 265.019598711532069 166.2119601103514697 1.609823385706476786e-15 1 2.275957200481570908e-15 4.871103520542871797e-14 -2.219058270469530121e-13 97.49999999999992895 1 I I #
point $-1 -473.3692477435214983 265.0195987115323533 95.57862677701803023 #
edge $-1 $219 -77.54998431180814578 $209 -2.23578340939570709e-08 $205 $231 reversed 7 unknown #
ellipse-curve $-1 -406.1592617130049234 227.019598711532069 166.211960110351356 -1.609823385706476786e-15 -1 -2.275957200481570908e-15 4.871103520542871166e-14 -2.219058270469530121e-13 97.49999999999992895 1 I I #
vertex $-1 $190 $232 #
ellipse-curve $-1 -406.1592617130049803 227.0195987115318133 278.7119607023511207 -1.609823385706476786e-15 -1 -2.275957200481570908e-15 7.99360556303700577e-15 -3.641531423161302225e-14 15.99999957112897064 1 I I #
edge $-1 $193 -5.684341886080801487e-14 $224 37.99999999999994316 $191 $233 forward 7 unknown #
point $-1 -417.1885924582751954 227.0195987115317848 290.3030715027690576 #
straight-curve $-1 -473.3692477435214414 227.0195987115320406 236.8452934436849091 1.609823385706476786e-15 1 2.275957200481570908e-15 I I #
vertex $-1 $221 $234 #
ellipse-curve $-1 -406.1592617130049234 265.0195987115317848 278.7119607023512344 1.609823385706476786e-15 1 2.275957200481570908e-15 7.99360556303700577e-15 -3.641531423161302225e-14 15.99999957112897064 1 I I #
straight-curve $-1 -395.1299309677347651 227.0195987115317848 290.3030715027690007 1.609823385706476786e-15 1 2.275957200481570908e-15 I I #
point $-1 -395.1299309677347082 265.019598711531728 290.3030715027691144 #
point $-1 -338.9492756824885191 227.0195987115318133 236.8452934436846249 #
straight-curve $-1 -479.1576585371176407 265.0195987115320122 231.337426403904459 0.7244444444444457787 -2.735120445752005401e-15 0.6893331900565780046 I I #
point $-1 -473.3692477435212709 265.0195987115320122 236.8452934436849091 #
straight-curve $-1 -338.9492756662914985 227.0195987115318133 236.8452934282726403 -0.7244444444444446685 -4.026652291283991865e-16 0.6893331900565792258 I I #
point $-1 -395.1299309677347651 227.0195987115317564 290.3030715027690007 #
straight-curve $-1 -417.1885924582751954 227.0195987115318417 290.3030715027690576 1.609823385706476786e-15 1 2.275957200481570908e-15 I I #
point $-1 -417.1885924582751386 265.0195987115317848 290.3030715027691713 #
End-of-ACIS-data 