600 0 1 0           
74 GICL ACIS Healer - Source: /gicl/data5/repository/new/lock_remov.sat - 6 0 18 ACIS 6.0.3 Solaris 24 Sat Apr 13 20:18:21 2002 
1 9.999999999999999547e-07 1.000000000000000036e-10 
body $-1 $1 $-1 $-1 #
lump $-1 $-1 $2 $0 #
shell $-1 $-1 $-1 $3 $-1 $1 #
face $-1 $4 $5 $2 $-1 $6 reversed single #
face $-1 $7 $8 $2 $-1 $9 forward single #
loop $-1 $10 $11 $3 #
cone-surface $-1 -686.1592617130047529 620.3614298550965032 166.2119601103519244 -1.47707595972036998e-15 -1 3.358113363858920034e-15 4.364184794797290922e-15 2.014868018315351468e-14 6.000000000000000888 1 I I 0 1 0.6000000000000000888 forward I I I I #
face $-1 $12 $13 $2 $-1 $14 forward single #
loop $-1 $15 $16 $4 #
torus-surface $-1 -671.1592617130049803 497.0195987115305911 166.2119601103523223 -1 -3.605111973709962905e-16 7.273641324662162384e-16 40 10 7.273641324662150551e-16 3.358113363858918851e-15 1 forward_v I I I I #
loop $-1 $-1 $17 $3 #
coedge $-1 $11 $11 $18 $19 reversed $5 $-1 #
face $-1 $20 $21 $2 $-1 $22 reversed single #
loop $-1 $23 $18 $7 #
cone-surface $-1 -661.1592617130049803 497.0195987115305911 166.2119601103523223 -1 -3.605111973709962905e-16 7.273641324662162384e-16 3.636820662331075295e-14 1.67905668192945922e-13 50 1 I I 0 1 5 forward I I I I #
loop $-1 $-1 $24 $4 #
coedge $-1 $16 $16 $25 $26 forward $8 $-1 #
coedge $-1 $17 $17 $27 $28 reversed $10 $-1 #
coedge $-1 $18 $18 $11 $19 forward $13 $-1 #
edge $-1 $29 0 $29 3.619939442770432336 $18 $30 forward 7 unknown #
face $-1 $31 $32 $2 $-1 $33 forward single #
loop $-1 $34 $35 $12 #
plane-surface $-1 -661.1592617130049803 497.0195987115304774 166.2119601103524076 -1 -3.605111973709962905e-16 7.273641324662162384e-16 7.27364132466214996e-15 3.358113363858918693e-14 10 forward_v I I I I #
loop $-1 $36 $37 $7 #
coedge $-1 $24 $24 $38 $39 forward $15 $-1 #
coedge $-1 $25 $25 $16 $26 reversed $34 $-1 #
edge $-1 $40 -3.141592653589800666 $40 3.141592653589785566 $25 $41 forward 7 unknown #
coedge $-1 $27 $27 $17 $28 forward $32 $-1 #
edge $-1 $42 0 $42 3.63150512646015633 $27 $43 forward 7 unknown #
vertex $-1 $19 $44 #
intcurve-curve $-1 forward { surfintcur full nubs 3 periodic 17 
	0 3 0.226247016915801985 2 0.4524940338316039701 2 0.6787394472621083308 2 0.904984860692612747 2 
	1.131230274123117052 2 1.357475687553621579 2 1.583722704469419096 2 1.809969721385216612 2 2.036216738301021678 2 
	2.262463755216826744 2 2.488709168647329939 2 2.714954582077833134 2 2.941199995508336329 2 3.167445408938839524 2 
	3.393692425854635708 2 3.619939442770432336 3 
	-686.1592617130048666 546.6582932954939906 172.2119601103521802 
	-686.9134184360575546 546.6582932954939906 172.2119601103521802 
	-687.7173420509284369 546.6772528863155003 172.061092754148774 
	-689.1954001891602957 546.7455792383989319 171.4485459136551526 
	-689.8695972917714698 546.7939424669719983 170.9869059058241874 
	-690.934203735859569 546.8846042914624377 169.9222994617360598 
	-691.3958466978011757 546.9328151328497825 169.2481007164456344 
	-692.0083957105546233 547.0007923708337785 167.7700370268030952 
	-692.1592617130048666 547.0195987115305343 166.9661114884538051 
	-692.1592617130048666 547.0195987115305343 165.4578087322504416 
	-692.0083957105545096 547.0007923708337785 164.65388319390118 
	-691.3958466978011757 546.9328151328497825 163.1758195042586408 
	-690.934203735859569 546.8846042914624377 162.5016207589682438 
	-689.8695972917714698 546.7939424669719983 161.4370143148801446 
	-689.195400189160182 546.7455792383988182 160.9753743070491794 
	-687.7173420509284369 546.6772528863153866 160.3628274665555864 
	-686.9134184360575546 546.6582932954939906 160.2119601103521802 
	-685.4051049899521786 546.6582932954939906 160.2119601103521802 
	-684.6011813750812962 546.6772528863153866 160.3628274665555864 
	-683.1231232368494375 546.7455792383988182 160.9753743070492078 
	-682.4489261342382633 546.7939424669719983 161.4370143148802015 
	-681.3843196901501642 546.8846042914624377 162.5016207589683574 
	-680.9226767282085575 546.9328151328497825 163.1758195042587545 
	-680.3101277154552236 547.0007923708337785 164.6538831939012937 
	-680.1592617130048666 547.0195987115305343 165.4578087322505837 
	-680.1592617130048666 547.0195987115305343 166.9661114884539188 
	-680.3101277154552236 547.0007923708337785 167.7700370268031804 
	-680.9226767282086712 546.9328151328497825 169.248100716445748 
	-681.3843196901502779 546.8846042914624377 169.9222994617361167 
	-682.448926134238377 546.7939424669719983 170.9869059058242158 
	-683.1231232368495512 546.7455792383989319 171.448545913655181 
	-684.6011813750814099 546.6772528863155003 172.061092754148774 
	-685.4051049899522923 546.6582932954939906 172.2119601103521802 
	-686.1592617130048666 546.6582932954939906 172.2119601103521802 
	0.002687663732366378771 
	cone -686.1592617130047529 620.3614298550965032 166.2119601103519244 -1.47707595972036998e-15 -1 3.358113363858920034e-15 4.364184794797290922e-15 2.014868018315351468e-14 6.000000000000000888 1 I I 0 1 0.6000000000000000888 forward I I I I 
	cone -661.1592617130049803 497.0195987115305911 166.2119601103523223 -1 -3.605111973709962905e-16 7.273641324662162384e-16 3.636820662331075295e-14 1.67905668192945922e-13 50 1 I I 0 1 5 forward I I I I 
	nullbs 
	nullbs 
	I I 
	0 
	0 
	0 
	} I I #
face $-1 $-1 $45 $2 $-1 $46 forward single #
loop $-1 $47 $27 $20 #
cone-surface $-1 -661.1592617130049803 497.0195987115305911 166.2119601103523223 -1 -3.605111973709962905e-16 7.273641324662162384e-16 -1.818410331165537648e-14 -8.395283409647296102e-14 -25 1 I I 0 -1 2.5 forward I I I I #
loop $-1 $-1 $25 $12 #
coedge $-1 $35 $35 $48 $49 reversed $21 $-1 #
loop $-1 $-1 $38 $7 #
coedge $-1 $37 $37 $50 $51 forward $23 $-1 #
coedge $-1 $38 $38 $24 $39 reversed $36 $-1 #
edge $-1 $52 -3.141592653589786455 $52 3.141592653589799777 $38 $53 forward 7 unknown #
vertex $-1 $26 $54 #
ellipse-curve $-1 -661.1592617130049803 497.0195987115305911 166.2119601103523223 -1 -3.605111973709962905e-16 7.273641324662162384e-16 -2.909456529864849886e-14 -4.136432034431072626e-13 -40 1 I I #
vertex $-1 $28 $55 #
intcurve-curve $-1 forward { surfintcur full nubs 3 periodic 17 
	0 3 0.2269824836752869501 2 0.4539649673505739003 2 0.6809206244828086563 2 0.9078762816150434123 2 
	1.134831938747278279 2 1.361787595879512924 2 1.588770079554795656 2 1.815752563230078387 2 2.04273504690536889 2 
	2.269717530580658948 2 2.496673187712892705 2 2.723628844845126018 2 2.950584501977359331 2 3.177540159109593088 2 
	3.404522642784874709 2 3.63150512646015633 3 
	-686.1592617130049803 521.2889209105537702 172.2119601103522655 
	-685.4026534340873695 521.2889209105537702 172.2119601103522655 
	-684.59773206040893 521.3279841132250567 172.0601449911773102 
	-683.1203905522710329 521.4673789470485872 171.4469296702411327 
	-682.4477011899145964 521.565514852151864 170.9856809615005488 
	-681.3856036290122802 521.7484117412067235 169.9235834005981758 
	-680.9243059274443794 521.8452991477471414 169.250867785002697 
	-680.3110548977294911 521.981813407769323 167.773433589848679 
	-680.1592617130049803 522.0195987115305343 166.9684789674596459 
	-680.1592617130049803 522.0195987115305343 165.4554412532447714 
	-680.3110548977294911 521.9818134077692093 164.6504866308557382 
	-680.9243059274444931 521.8452991477471414 163.1730524357017202 
	-681.3856036290123939 521.7484117412067235 162.5003368201062699 
	-682.4477011899147101 521.565514852151864 161.4382392592039253 
	-683.1203905522711466 521.4673789470485872 160.9769905504633414 
	-684.59773206040893 521.3279841132250567 160.3637752295271923 
	-685.4026534340873695 521.2889209105537702 160.2119601103522655 
	-686.915869991922591 521.2889209105537702 160.2119601103522655 
	-687.7207913656010305 521.3279841132250567 160.3637752295272207 
	-689.1981328737389276 521.4673789470485872 160.9769905504633982 
	-689.8708222360952504 521.565514852151864 161.4382392592040105 
	-690.9329197969976804 521.7484117412067235 162.5003368201063836 
	-691.3942174985654674 521.8452991477471414 163.1730524357018624 
	-692.0074685282804694 521.9818134077692093 164.6504866308558803 
	-692.1592617130049803 522.0195987115305343 165.4554412532449135 
	-692.1592617130049803 522.0195987115305343 166.968478967459788 
	-692.0074685282803557 521.981813407769323 167.7734335898488212 
	-691.3942174985654674 521.8452991477471414 169.2508677850028107 
	-690.9329197969975667 521.7484117412067235 169.9235834005982611 
	-689.8708222360951368 521.565514852151864 170.9856809615006057 
	-689.1981328737388139 521.4673789470485872 171.4469296702411611 
	-687.7207913656009168 521.3279841132250567 172.0601449911773102 
	-686.915869991922591 521.2889209105537702 172.2119601103522655 
	-686.1592617130049803 521.2889209105537702 172.2119601103522655 
	0.002799760897220183228 
	cone -686.1592617130047529 620.3614298550965032 166.2119601103519244 -1.47707595972036998e-15 -1 3.358113363858920034e-15 4.364184794797290922e-15 2.014868018315351468e-14 6.000000000000000888 1 I I 0 1 0.6000000000000000888 forward I I I I 
	cone -661.1592617130049803 497.0195987115305911 166.2119601103523223 -1 -3.605111973709962905e-16 7.273641324662162384e-16 -1.818410331165537648e-14 -8.395283409647296102e-14 -25 1 I I 0 -1 2.5 forward I I I I 
	nullbs 
	nullbs 
	I I 
	0 
	0 
	0 
	} I I #
point $-1 -686.1592617130048666 546.6582932954939906 172.2119601103521802 #
loop $-1 $56 $50 $31 #
plane-surface $-1 -711.1592617130049803 497.0195987115307048 216.2119601103523507 -1 -3.605111973709962905e-16 7.273641324662162384e-16 7.27364132466214996e-15 3.358113363858918693e-14 10 forward_v I I I I #
loop $-1 $57 $58 $20 #
coedge $-1 $48 $48 $35 $49 forward $57 $-1 #
edge $-1 $59 -3.141592653589792228 $59 3.141592653589794004 $48 $60 forward 7 unknown #
coedge $-1 $50 $50 $37 $51 reversed $45 $-1 #
edge $-1 $61 1.084376609426597223e-15 $61 6.28318530717958712 $37 $62 forward 7 unknown #
vertex $-1 $39 $63 #
ellipse-curve $-1 -671.1592617130049803 497.0195987115305911 166.2119601103523223 1 3.605111973709962905e-16 -7.273641324662162384e-16 -3.636820662331062674e-14 -5.170540043038841287e-13 -50 1 I I #
point $-1 -661.1592617130049803 497.0195987115307048 206.2119601103523223 #
point $-1 -686.1592617130049803 521.2889209105537702 172.2119601103522655 #
loop $-1 $-1 $64 $31 #
loop $-1 $-1 $48 $20 #
coedge $-1 $58 $58 $64 $65 forward $47 $-1 #
vertex $-1 $49 $66 #
ellipse-curve $-1 -661.1592617130049803 497.0195987115305911 166.2119601103523223 1 3.605111973709962905e-16 -7.273641324662162384e-16 -1.818410331165537648e-14 -8.395283409647296102e-14 -25 1 I I #
vertex $-1 $51 $67 #
ellipse-curve $-1 -711.1592617130049803 497.0195987115305911 166.2119601103523507 1 3.605111973709962905e-16 -7.273641324662162384e-16 3.636820662331075295e-14 1.67905668192945922e-13 50 1 I I #
point $-1 -671.1592617130049803 497.0195987115307616 216.2119601103523223 #
coedge $-1 $64 $64 $58 $65 reversed $56 $-1 #
edge $-1 $68 -3.141592653589794004 $68 3.141592653589792228 $58 $69 forward 7 unknown #
point $-1 -661.1592617130049803 497.019598711530648 191.2119601103523223 #
point $-1 -711.1592617130049803 497.0195987115307048 216.2119601103523507 #
vertex $-1 $65 $70 #
ellipse-curve $-1 -711.1592617130049803 497.0195987115305911 166.2119601103523507 -1 -3.605111973709962905e-16 7.273641324662162384e-16 -1.818410331165537648e-14 -8.395283409647296102e-14 -25 1 I I #
point $-1 -711.1592617130049803 497.019598711530648 191.2119601103523507 #
End-of-ACIS-data 