600 0 1 0           
73 GICL ACIS Healer - Source: /gicl/data5/repository/new/neck_bush.sat - 6 0 18 ACIS 6.0.3 Solaris 24 Sat Apr 13 20:18:22 2002 
1 9.999999999999999547e-07 1.000000000000000036e-10 
body $-1 $1 $-1 $-1 #
lump $-1 $-1 $2 $0 #
shell $-1 $-1 $-1 $3 $-1 $1 #
face $-1 $4 $5 $2 $-1 $6 forward single #
face $-1 $7 $8 $2 $-1 $9 forward single #
loop $-1 $10 $11 $3 #
cone-surface $-1 -406.1592617130056624 34.5251522109955431 166.2119601103523507 2.777648368448215127e-15 -1 -9.87762389242918223e-16 44 1.22216528211721535e-13 -5.382678989481161446e-14 1 I I 0 -1 4.400000000000000355 forward I I I I #
face $-1 $12 $13 $2 $-1 $14 forward single #
loop $-1 $15 $16 $4 #
plane-surface $-1 -357.1592617130057192 55.01959871153055559 166.2119601103523223 -2.777648368448215127e-15 1 9.87762389242918223e-16 -10 -2.777648368448216705e-14 1.223336133972991238e-14 forward_v I I I I #
loop $-1 $-1 $17 $3 #
coedge $-1 $11 $11 $18 $19 reversed $5 $-1 #
face $-1 $20 $21 $2 $-1 $22 forward single #
loop $-1 $23 $24 $7 #
cone-surface $-1 -406.1592617130056624 36.01959871153042059 166.2119601103523507 2.777648368448215127e-15 -1 -9.87762389242918223e-16 54 1.499930118962037147e-13 -6.606015123454152684e-14 1 I I 0 1 5.400000000000000355 forward I I I I #
loop $-1 $-1 $18 $4 #
coedge $-1 $16 $16 $25 $26 reversed $8 $-1 #
coedge $-1 $17 $17 $27 $28 forward $10 $-1 #
coedge $-1 $18 $18 $11 $19 forward $15 $-1 #
edge $-1 $29 -6.855974922719091727e-17 $29 6.283185307179586232 $18 $30 forward 7 unknown #
face $-1 $31 $32 $2 $-1 $33 forward single #
loop $-1 $34 $35 $12 #
plane-surface $-1 -340.1045518001399159 17.01959871153058401 166.2119601103522655 -2.777648368448215127e-15 1 9.87762389242918223e-16 -10 -2.777648368448216705e-14 1.223336133972991238e-14 forward_v I I I I #
loop $-1 $-1 $25 $7 #
coedge $-1 $24 $24 $36 $37 reversed $13 $-1 #
coedge $-1 $25 $25 $16 $26 forward $23 $-1 #
edge $-1 $38 1.706802291432131937e-16 $38 6.283185307179586232 $25 $39 forward 7 unknown #
coedge $-1 $27 $27 $17 $28 reversed $40 $-1 #
edge $-1 $41 5.773881923729000431e-16 $41 6.28318530717958712 $17 $42 forward 7 unknown #
vertex $-1 $19 $43 #
ellipse-curve $-1 -406.1592617130057192 55.01959871153042059 166.2119601103523792 2.777648368448215127e-15 -1 -9.87762389242918223e-16 44 1.22216528211721535e-13 -5.382678989481161446e-14 1 I I #
face $-1 $-1 $40 $2 $-1 $44 forward single #
loop $-1 $45 $46 $20 #
cone-surface $-1 -406.1592617130056055 8.019598711530399271 166.2119601103523223 2.777648368448215127e-15 -1 -9.87762389242918223e-16 70 1.94435385791375182e-13 -8.563352937810938664e-14 1 I I 0 1 7.000000000000000888 forward I I I I #
loop $-1 $-1 $36 $12 #
coedge $-1 $35 $35 $47 $48 reversed $21 $-1 #
coedge $-1 $36 $36 $24 $37 forward $34 $-1 #
edge $-1 $49 -3.556477232716758529e-16 $49 6.283185307179586232 $36 $50 forward 7 unknown #
vertex $-1 $26 $51 #
ellipse-curve $-1 -406.1592617130057192 55.01959871153042059 166.2119601103523792 2.777648368448215127e-15 -1 -9.87762389242918223e-16 54 1.499930118962037147e-13 -6.606015123454152684e-14 1 I I #
loop $-1 $52 $27 $31 #
vertex $-1 $28 $53 #
ellipse-curve $-1 -406.1592617130056055 14.03070571046067272 166.2119601103523223 2.777648368448215127e-15 -1 -9.87762389242918223e-16 44 1.22216528211721535e-13 -5.382678989481161446e-14 1 I I #
point $-1 -362.1592617130057192 55.01959871153054138 166.2119601103523223 #
cone-surface $-1 -406.1592617130056055 6.525152210995535995 166.2119601103523223 2.777648368448215127e-15 -1 -9.87762389242918223e-16 56.99999999999999289 1.583259570015483459e-13 -6.973015963646050055e-14 1 I I -0.8660254037844388186 -0.499999999999999778 5.699999999999999289 forward I I I I #
loop $-1 $-1 $47 $20 #
coedge $-1 $46 $46 $54 $55 reversed $32 $-1 #
coedge $-1 $47 $47 $35 $48 forward $45 $-1 #
edge $-1 $56 5.2628726699621831e-18 $56 6.283185307179586232 $47 $57 forward 7 unknown #
vertex $-1 $37 $58 #
ellipse-curve $-1 -406.1592617130056055 17.01959871153040638 166.2119601103523507 2.777648368448215127e-15 -1 -9.87762389242918223e-16 54 1.499930118962037147e-13 -6.606015123454152684e-14 1 I I #
point $-1 -352.1592617130057192 55.0195987115305698 166.2119601103523223 #
loop $-1 $-1 $54 $31 #
point $-1 -362.1592617130056055 14.03070571046080062 166.2119601103522939 #
coedge $-1 $54 $54 $46 $55 forward $52 $-1 #
edge $-1 $59 5.2628726699621831e-18 $59 6.283185307179586232 $54 $60 forward 7 unknown #
vertex $-1 $48 $61 #
ellipse-curve $-1 -406.1592617130056055 17.01959871153040638 166.2119601103523507 2.777648368448215127e-15 -1 -9.87762389242918223e-16 70 1.94435385791375182e-13 -8.563352937810938664e-14 1 I I #
point $-1 -352.1592617130056055 17.01959871153055559 166.2119601103522655 #
vertex $-1 $55 $62 #
ellipse-curve $-1 -406.1592617130055487 -0.9804012884695936236 166.2119601103523223 2.777648368448215127e-15 -1 -9.87762389242918223e-16 70 1.94435385791375182e-13 -8.563352937810938664e-14 1 I I #
point $-1 -336.1592617130056055 17.01959871153059822 166.2119601103522655 #
point $-1 -336.1592617130055487 -0.9804012884693946717 166.2119601103522371 #
End-of-ACIS-data 