600 0 2 0           
24 FBMach with ACIS - 6.0.3 13 ACIS 6.0.3 NT 24 Wed May 23 09:41:31 2001 
1 9.9999999999999995e-007 1e-010 
body $2 $3 $-1 $4 #
bdycol-kcp $-1 1 3 $5 $6 $7 #
model_id-kcp-attrib $-1 $-1 $-1 $0 1 990625290 100 1499725825 1 #
lump $-1 $-1 $8 $0 #
transform $-1 1 2.7776483684482151e-015 0 2.7436565888951026e-030 -9.8776238924291822e-016 1 2.7776483684482151e-015 -1 -9.8776238924291822e-016 -406.15926171300572 55.019598711530421 166.21196011035238 1 rotate no_reflect no_shear #
body $9 $10 $-1 $11 #
body $12 $13 $-1 $14 #
body $15 $16 $-1 $17 #
shell $-1 $-1 $-1 $18 $-1 $3 #
model_id-kcp-attrib $-1 $-1 $-1 $5 1 990625290 100 1499725826 1 #
lump $-1 $-1 $19 $5 #
transform $-1 1 0 0 0 1 0 0 0 1 -406.15926171300561 27.019598711530413 166.21196011035235 1 no_rotate no_reflect no_shear #
rgb_color-st-attrib $-1 $20 $-1 $6 0.5 1 1 #
lump $-1 $-1 $21 $6 #
transform $-1 1 0 0 0 1 0 0 0 1 -406.15926171300561 27.019598711530413 166.21196011035235 1 no_rotate no_reflect no_shear #
rgb_color-st-attrib $-1 $22 $-1 $7 1 0.5 1 #
lump $-1 $-1 $23 $7 #
transform $-1 1 0 0 0 1 0 0 0 1 -406.15926171300561 27.019598711530413 166.21196011035235 1 no_rotate no_reflect no_shear #
face $24 $25 $26 $8 $-1 $27 forward single #
shell $-1 $-1 $-1 $28 $-1 $10 #
model_id-kcp-attrib $-1 $-1 $12 $6 1 990625290 180 1504968707 1 #
shell $-1 $-1 $-1 $29 $-1 $13 #
model_id-kcp-attrib $-1 $-1 $15 $7 1 990625290 280 1494745092 1 #
shell $-1 $-1 $-1 $30 $-1 $16 #
model_id-kcp-attrib $-1 $-1 $-1 $18 1 990625290 100 1499725825 2 #
face $31 $32 $33 $8 $-1 $34 forward single #
loop $-1 $35 $36 $18 #
cone-surface $-1 0 -1.2548814701313894e-015 20.494446500534874 7.4905260126191417e-032 0 1 44 -5.3826789894811614e-014 -1.735493991486226e-029 1 I I 0 -1 4.4000000000000004 forward I I I I #
face $-1 $37 $38 $19 $-1 $39 forward single #
face $-1 $40 $41 $21 $-1 $42 reversed single #
face $-1 $43 $44 $23 $-1 $45 forward single #
model_id-kcp-attrib $-1 $46 $-1 $25 1 990625290 100 1499725825 8 #
face $47 $48 $49 $8 $-1 $50 forward single #
loop $-1 $51 $52 $25 #
plane-surface $-1 49 -5.9943470564676571e-014 -1.9327092177914789e-029 -7.4905260126191417e-032 0 -1 -10 1.2233361339729912e-014 3.944304526105059e-030 forward_v I I I I #
loop $-1 $-1 $53 $18 #
coedge $-1 $36 $36 $54 $55 reversed $26 $-1 #
face $-1 $56 $57 $19 $-1 $58 reversed single #
loop $-1 $-1 $59 $28 #
plane-surface $-1 0 0 70.000000000000114 0 0 1 1 0 0 forward_v I I I I #
face $-1 $60 $61 $21 $-1 $42 reversed single #
loop $-1 $-1 $62 $29 #
cone-surface $-1 -1.1368683772161603e-013 28.000000000000007 2.8421709430404007e-014 -2.7776483684482151e-015 1 9.8776238924291822e-016 -70 -1.9443538579137516e-013 9.4205773854866027e-014 1 I I 0 1 70 forward I I I I #
face $-1 $63 $64 $23 $-1 $65 forward single #
loop $-1 $66 $67 $30 #
cone-surface $-1 -8.1361997205837571e-015 -10.000000000000028 -1.0276637396958175e-014 -2.9917588874109464e-015 1 7.479397218527366e-016 54 1.6155497992019115e-013 -6.6060151234541514e-014 1 I I 0 -1 54 forward I I I I #
model_id-kcp-attrib $-1 $-1 $31 $25 1 990625290 100 1499725825 3 #
model_id-kcp-attrib $-1 $-1 $-1 $32 1 990625290 100 1499725825 4 #
face $68 $69 $70 $8 $-1 $71 forward single #
loop $-1 $72 $73 $32 #
cone-surface $-1 0 -1.1633760361312584e-015 19.000000000000004 7.4905260126191417e-032 0 1 54 -6.6060151234541527e-014 -2.1299244440967319e-029 1 I I 0 1 5.4000000000000004 forward I I I I #
loop $-1 $-1 $54 $25 #
coedge $-1 $52 $52 $74 $75 reversed $33 $-1 #
coedge $-1 $53 $53 $76 $77 forward $35 $-1 #
coedge $-1 $54 $54 $36 $55 forward $51 $-1 #
edge $78 $79 0 $79 6.2831853071795862 $54 $80 forward 7 unknown #
face $-1 $81 $82 $19 $-1 $83 reversed single #
loop $-1 $-1 $84 $37 #
plane-surface $-1 0 0 -70.000000000000114 0 0 1 1 0 0 forward_v I I I I #
coedge $-1 $85 $86 $87 $88 forward $38 $-1 #
face $-1 $89 $90 $21 $-1 $42 reversed single #
loop $-1 $-1 $91 $40 #
coedge $-1 $92 $93 $94 $95 reversed $41 $-1 #
face $-1 $96 $97 $23 $-1 $98 forward single #
loop $-1 $99 $100 $43 #
cone-surface $-1 -8.1361997205837571e-015 -10.000000000000028 -9.1132613608269201e-015 -2.9917588874109464e-015 1 7.479397218527366e-016 -70 -2.0942312211876631e-013 9.4205773854866015e-014 1 I I 0 1 70 forward I I I I #
loop $-1 $-1 $101 $30 #
coedge $-1 $67 $67 $102 $103 forward $44 $-1 #
model_id-kcp-attrib $-1 $-1 $-1 $48 1 990625290 100 1499725825 5 #
face $104 $105 $106 $8 $-1 $107 forward single #
loop $-1 $108 $109 $48 #
plane-surface $-1 66.054709912865675 -8.3133865527775044e-014 38.000000000000014 -7.4905260126191417e-032 0 -1 -10 1.2233361339729912e-014 3.944304526105059e-030 forward_v I I I I #
loop $-1 $-1 $74 $32 #
coedge $-1 $73 $73 $110 $111 reversed $49 $-1 #
coedge $-1 $74 $74 $52 $75 forward $72 $-1 #
edge $112 $113 0 $113 6.2831853071795862 $74 $114 forward 7 unknown #
coedge $-1 $76 $76 $53 $77 reversed $115 $-1 #
edge $-1 $116 0 $116 6.2831853071795862 $53 $117 forward 7 unknown #
attrib_edge_convexity-kcp-attrib $-1 $118 $-1 $55 1 #
vertex $-1 $55 $119 #
ellipse-curve $-1 0 0 0 7.4905260126191417e-032 0 1 44 -5.3826789894811614e-014 -1.735493991486226e-029 1 I I #
face $-1 $120 $121 $19 $-1 $122 reversed single #
loop $-1 $-1 $123 $56 #
plane-surface $-1 0 -28.000000000000277 0 0 1 0 0 0 1 forward_v I I I I #
coedge $-1 $124 $125 $126 $127 forward $57 $-1 #
coedge $-1 $128 $59 $129 $130 forward $38 $-1 #
coedge $-1 $59 $128 $131 $132 forward $38 $-1 #
coedge $-1 $133 $134 $59 $88 reversed $135 $-1 #
edge $-1 $136 -28.000000000000277 $137 28.000000000000277 $87 $138 forward 7 unknown #
face $-1 $139 $140 $21 $-1 $42 reversed single #
loop $-1 $-1 $141 $60 #
coedge $-1 $142 $143 $144 $145 reversed $61 $-1 #
coedge $-1 $146 $62 $147 $148 forward $41 $-1 #
coedge $-1 $62 $146 $149 $150 reversed $41 $-1 #
coedge $-1 $151 $152 $62 $95 forward $153 $-1 #
edge $-1 $154 -1.3457967693552264e-015 $155 1.5707963267948952 $94 $156 forward 7 unknown #
face $-1 $-1 $157 $23 $-1 $158 reversed single #
loop $-1 $159 $160 $63 #
plane-surface $-1 5.730205278592253 28.000000000000007 1.057508641981787e-014 -2.7751178514300175e-015 1 9.9458754038553378e-016 0 -9.9458754038553378e-016 1 forward_v I I I I #
loop $-1 $-1 $161 $43 #
coedge $-1 $100 $100 $160 $162 forward $64 $-1 #
coedge $-1 $101 $101 $163 $164 reversed $66 $-1 #
coedge $-1 $102 $102 $67 $103 reversed $159 $-1 #
edge $-1 $165 2.1544000669097514e-017 $165 6.2831853071795862 $67 $166 forward 7 unknown #
model_id-kcp-attrib $-1 $-1 $-1 $69 1 990625290 100 1499725825 6 #
face $167 $-1 $115 $8 $-1 $168 forward single #
loop $-1 $169 $170 $69 #
cone-surface $-1 0 -2.8778249314825877e-015 47.000000000000021 7.4905260126191417e-032 0 1 70 -8.5633529378109387e-014 -2.7610131682735413e-029 1 I I 0 1 7.0000000000000009 forward I I I I #
loop $-1 $-1 $110 $48 #
coedge $-1 $109 $109 $171 $172 reversed $70 $-1 #
coedge $-1 $110 $110 $73 $111 forward $108 $-1 #
edge $-1 $173 0 $173 6.2831853071795862 $110 $174 forward 7 unknown #
attrib_edge_convexity-kcp-attrib $-1 $175 $-1 $75 1 #
vertex $-1 $75 $176 #
ellipse-curve $-1 0 0 0 7.4905260126191417e-032 0 1 54 -6.6060151234541527e-014 -2.1299244440967319e-029 1 I I #
loop $-1 $177 $76 $105 #
vertex $-1 $77 $178 #
ellipse-curve $-1 0 -2.5097629402627789e-015 40.988893001069748 7.4905260126191417e-032 0 1 44 -5.3826789894811614e-014 -1.735493991486226e-029 1 I I #
convexity-sys-attrib $-1 $-1 $78 $55 #
point $-1 44 -5.3826789894811614e-014 -1.735493991486226e-029 #
face $179 $180 $181 $19 $-1 $182 reversed single #
loop $-1 $-1 $183 $81 #
plane-surface $-1 -70.000000000000171 0 0 1 0 0 0 0 -1 forward_v I I I I #
coedge $-1 $184 $131 $185 $186 forward $82 $-1 #
coedge $-1 $187 $84 $184 $188 forward $57 $-1 #
coedge $-1 $84 $187 $189 $190 forward $57 $-1 #
coedge $-1 $134 $133 $84 $127 reversed $135 $-1 #
edge $-1 $191 -28.000000000000277 $192 28.000000000000277 $126 $193 forward 7 unknown #
coedge $-1 $86 $85 $194 $195 forward $38 $-1 #
coedge $-1 $196 $197 $85 $130 reversed $181 $-1 #
edge $-1 $137 -70.000000000000171 $198 70.000000000000171 $129 $199 forward 7 unknown #
coedge $-1 $123 $200 $86 $132 reversed $82 $-1 #
edge $-1 $201 -70.000000000000171 $136 70.000000000000171 $131 $202 forward 7 unknown #
coedge $-1 $126 $87 $200 $203 forward $135 $-1 #
coedge $-1 $87 $126 $196 $204 reversed $135 $-1 #
loop $-1 $-1 $133 $180 #
vertex $-1 $88 $205 #
vertex $-1 $88 $206 #
straight-curve $-1 70.000000000000171 0 70.000000000000114 0 1 0 I I #
face $-1 $207 $208 $21 $-1 $209 forward single #
loop $-1 $-1 $210 $89 #
coedge $-1 $211 $212 $210 $213 forward $90 $-1 #
coedge $-1 $214 $91 $215 $216 reversed $61 $-1 #
coedge $-1 $91 $214 $93 $150 forward $61 $-1 #
coedge $-1 $217 $218 $91 $145 forward $219 $-1 #
edge $-1 $220 -3.1415926535897918 $221 -1.5707963267948952 $144 $222 forward 7 unknown #
coedge $-1 $93 $92 $223 $224 reversed $41 $-1 #
coedge $-1 $212 $211 $225 $148 reversed $90 $-1 #
edge $-1 $154 -56.000000000000085 $226 4.6540549192286562e-013 $225 $227 forward 7 unknown #
coedge $-1 $228 $229 $230 $150 forward $231 $-1 #
edge $-1 $155 -56.000000000000213 $221 3.4106051316484809e-013 $149 $232 forward 7 unknown #
coedge $-1 $152 $94 $229 $233 reversed $153 $-1 #
coedge $-1 $94 $151 $234 $235 forward $153 $-1 #
loop $-1 $-1 $94 $236 #
vertex $-1 $237 $238 #
vertex $-1 $239 $240 #
ellipse-curve $-1 4.1861470911484813e-014 -28.000000000000277 -2.6892984367199692e-014 0 1 0 -70 -1.9443538579137516e-013 9.4205773854866027e-014 1 I I #
loop $-1 $241 $242 $96 #
plane-surface $-1 5.7302052785923667 -10.000000000000014 -1.7846623010586138e-014 -2.7751178514300175e-015 1 9.9458754038553378e-016 0 -9.9458754038553378e-016 1 forward_v I I I I #
loop $-1 $-1 $102 $63 #
coedge $-1 $160 $160 $100 $162 reversed $97 $-1 #
coedge $-1 $161 $161 $242 $243 reversed $99 $-1 #
edge $-1 $244 -3.1415926535897931 $244 3.1415926535897931 $100 $245 forward 7 unknown #
coedge $-1 $163 $163 $101 $164 forward $241 $-1 #
edge $-1 $246 2.1544000669097514e-017 $246 6.2831853071795862 $101 $247 forward 7 unknown #
vertex $-1 $103 $248 #
ellipse-curve $-1 -1.2182303744219979e-013 27.999999999999993 1.8145072033445832e-014 -2.7776483684482151e-015 1 9.8776238924291822e-016 54 1.4999301189620371e-013 -6.6060151234541527e-014 1 I I #
model_id-kcp-attrib $-1 $-1 $-1 $105 1 990625290 100 1499725825 7 #
cone-surface $-1 0 -2.9693303654827182e-015 48.494446500534885 7.4905260126191417e-032 0 1 56.999999999999993 -6.9730159636460501e-014 -2.2482535798798834e-029 1 I I -0.86602540378443882 -0.49999999999999978 5.6999999999999993 forward I I I I #
loop $-1 $-1 $171 $69 #
coedge $-1 $170 $170 $249 $250 reversed $106 $-1 #
coedge $-1 $171 $171 $109 $172 forward $169 $-1 #
edge $-1 $251 0 $251 6.2831853071795862 $171 $252 forward 7 unknown #
vertex $-1 $111 $253 #
ellipse-curve $-1 0 -2.326752072262518e-015 38.000000000000014 7.4905260126191417e-032 0 1 54 -6.6060151234541527e-014 -2.1299244440967319e-029 1 I I #
convexity-sys-attrib $-1 $-1 $112 $75 #
point $-1 54 -6.6060151234541527e-014 -2.1299244440967319e-029 #
loop $-1 $-1 $249 $105 #
point $-1 44 -5.6336552835074402e-014 40.988893001069748 #
model_id-kcp-attrib $-1 $-1 $-1 $120 1 990625290 100 1499725826 2 #
face $-1 $-1 $135 $19 $-1 $254 reversed single #
loop $-1 $-1 $196 $120 #
plane-surface $-1 0 28.000000000000277 0 0 -1 0 0 0 -1 forward_v I I I I #
coedge $-1 $255 $194 $197 $256 forward $121 $-1 #
coedge $-1 $200 $123 $124 $188 reversed $82 $-1 #
coedge $-1 $194 $255 $123 $186 reversed $121 $-1 #
edge $-1 $201 -70.000000000000114 $257 70.000000000000114 $185 $258 forward 7 unknown #
coedge $-1 $125 $124 $255 $259 forward $57 $-1 #
edge $-1 $192 -70.000000000000171 $257 70.000000000000171 $184 $260 forward 7 unknown #
coedge $-1 $197 $196 $125 $190 reversed $181 $-1 #
edge $-1 $261 -70.000000000000171 $191 70.000000000000171 $189 $262 forward 7 unknown #
vertex $-1 $127 $263 #
vertex $-1 $203 $264 #
straight-curve $-1 70.000000000000171 0 -70.000000000000114 0 -1 0 I I #
coedge $-1 $183 $185 $128 $195 reversed $121 $-1 #
edge $-1 $198 -28.000000000000277 $201 28.000000000000277 $194 $265 forward 7 unknown #
coedge $-1 $189 $129 $134 $204 forward $181 $-1 #
coedge $-1 $129 $189 $183 $256 reversed $181 $-1 #
vertex $-1 $130 $266 #
straight-curve $-1 0 28.000000000000277 70.000000000000114 -1 0 0 I I #
coedge $-1 $131 $184 $133 $203 reversed $82 $-1 #
vertex $-1 $195 $267 #
straight-curve $-1 0 -28.000000000000277 70.000000000000114 1 0 0 I I #
edge $-1 $136 -70.000000000000114 $192 70.000000000000114 $133 $268 forward 7 unknown #
edge $-1 $137 -70.000000000000114 $191 70.000000000000114 $134 $269 forward 7 unknown #
point $-1 70.000000000000171 -28.000000000000277 70.000000000000114 #
point $-1 70.000000000000171 28.000000000000277 70.000000000000114 #
face $-1 $270 $271 $21 $-1 $272 reversed single #
loop $-1 $-1 $230 $139 #
plane-surface $-1 0 0 70.000000000000114 0 0 1 1 0 0 forward_v I I I I #
coedge $-1 $273 $274 $275 $213 reversed $140 $-1 #
coedge $-1 $147 $141 $276 $277 reversed $90 $-1 #
coedge $-1 $141 $147 $278 $279 reversed $90 $-1 #
edge $-1 $280 -56.000000000000355 $281 1.9895196601282805e-013 $275 $282 forward 7 unknown #
coedge $-1 $143 $142 $283 $284 reversed $61 $-1 #
coedge $-1 $285 $286 $287 $216 forward $288 $-1 #
edge $-1 $289 -56.000000000000483 $220 7.460698725481052e-014 $215 $290 forward 7 unknown #
coedge $-1 $218 $144 $291 $292 reversed $219 $-1 #
coedge $-1 $144 $217 $285 $293 forward $219 $-1 #
loop $-1 $-1 $144 $294 #
vertex $-1 $295 $296 #
vertex $-1 $297 $298 #
ellipse-curve $-1 -1.1368683772161679e-013 28.000000000000277 2.8421709430404272e-014 0 -1 0 -70 -1.9443538579137516e-013 9.4205773854866027e-014 1 I I #
coedge $-1 $299 $300 $146 $224 forward $301 $-1 #
edge $-1 $221 -1.5707963267948952 $226 1.3457967693552264e-015 $223 $222 forward 7 unknown #
coedge $-1 $302 $303 $304 $148 forward $271 $-1 #
vertex $-1 $305 $306 #
straight-curve $-1 -70.000000000000171 27.999999999999812 2.8421709430403815e-014 -2.7776483684482151e-015 1 9.8776238924291822e-016 I I #
coedge $-1 $307 $149 $300 $297 forward $231 $-1 #
coedge $-1 $149 $307 $151 $233 forward $231 $-1 #
coedge $-1 $308 $291 $143 $150 reversed $208 $-1 #
loop $-1 $-1 $149 $309 #
straight-curve $-1 -1.1368683772161583e-013 27.999999999999936 70.000000000000114 -2.7776483684482151e-015 1 9.8776238924291822e-016 I I #
edge $-1 $310 -70.000000000000171 $155 4.1861470911484611e-014 $151 $311 forward 7 unknown #
coedge $-1 $312 $304 $152 $235 reversed $313 $-1 #
edge $-1 $310 -70.000000000000114 $154 2.6892984367199503e-014 $234 $314 forward 7 unknown #
face $-1 $315 $153 $21 $-1 $316 reversed single #
edge $-1 $154 2.6892984367199503e-014 $317 70.000000000000114 $303 $314 forward 7 unknown #
point $-1 -70.000000000000171 -28.00000000000027 -2.6892984367199503e-014 #
edge $-1 $155 4.1861470911484611e-014 $318 70.000000000000171 $319 $311 forward 7 unknown #
point $-1 4.1861470911484611e-014 -28.000000000000277 70.000000000000114 #
loop $-1 $-1 $163 $96 #
coedge $-1 $242 $242 $161 $243 forward $157 $-1 #
edge $320 $321 -3.1415926535897931 $321 3.1415926535897931 $161 $322 forward 7 unknown #
vertex $-1 $162 $323 #
ellipse-curve $-1 -1.2182303744219979e-013 27.999999999999993 1.9308448069577087e-014 2.7776483684482151e-015 -1 -9.8776238924291822e-016 -70 -1.9443538579137516e-013 9.4205773854866027e-014 1 I I #
vertex $-1 $164 $324 #
ellipse-curve $-1 -8.1361997205837571e-015 -10.000000000000028 -1.0276637396958175e-014 -2.7776483684482151e-015 1 9.8776238924291822e-016 54 1.4999301189620371e-013 -6.6060151234541527e-014 1 I I #
point $-1 53.999999999999886 28.000000000000163 -4.9078455237226944e-014 #
coedge $-1 $249 $249 $170 $250 forward $177 $-1 #
edge $-1 $325 0 $325 6.2831853071795862 $249 $326 forward 7 unknown #
vertex $-1 $172 $327 #
ellipse-curve $-1 0 -2.326752072262518e-015 38.000000000000014 7.4905260126191417e-032 0 1 70 -8.5633529378109387e-014 -2.7610131682735413e-029 1 I I #
point $-1 54 -6.8386903306804044e-014 38.000000000000014 #
plane-surface $-1 70.000000000000171 0 0 -1 0 0 0 0 1 forward_v I I I I #
coedge $-1 $185 $183 $187 $259 reversed $121 $-1 #
edge $-1 $198 -70.000000000000114 $261 70.000000000000114 $197 $328 forward 7 unknown #
vertex $-1 $259 $329 #
straight-curve $-1 -70.000000000000171 -28.000000000000277 0 0 0 -1 I I #
edge $-1 $257 -28.000000000000277 $261 28.000000000000277 $255 $330 forward 7 unknown #
straight-curve $-1 0 -28.000000000000277 -70.000000000000114 -1 0 0 I I #
vertex $-1 $190 $331 #
straight-curve $-1 0 28.000000000000277 -70.000000000000114 1 0 0 I I #
point $-1 70.000000000000171 28.000000000000277 -70.000000000000114 #
point $-1 70.000000000000171 -28.000000000000277 -70.000000000000114 #
straight-curve $-1 -70.000000000000171 0 70.000000000000114 0 -1 0 I I #
point $-1 -70.000000000000171 28.000000000000277 70.000000000000114 #
point $-1 -70.000000000000171 -28.000000000000277 70.000000000000114 #
straight-curve $-1 70.000000000000171 -28.000000000000277 0 0 0 -1 I I #
straight-curve $-1 70.000000000000171 28.000000000000277 0 0 0 -1 I I #
face $-1 $332 $333 $21 $-1 $334 reversed single #
loop $-1 $-1 $225 $207 #
plane-surface $-1 -70.000000000000171 0 0 1 0 0 0 0 -1 forward_v I I I I #
coedge $-1 $335 $210 $336 $337 reversed $140 $-1 #
coedge $-1 $210 $335 $338 $339 reversed $140 $-1 #
coedge $-1 $340 $341 $342 $213 forward $343 $-1 #
coedge $-1 $344 $345 $211 $277 forward $346 $-1 #
edge $-1 $226 1.3457967693552264e-015 $281 1.5707963267948979 $276 $222 forward 7 unknown #
coedge $-1 $347 $348 $212 $279 forward $349 $-1 #
edge $-1 $280 -1.5707963267948979 $154 -1.3457967693552264e-015 $278 $156 forward 7 unknown #
vertex $-1 $350 $351 #
vertex $-1 $352 $353 #
straight-curve $-1 -1.1368683772161623e-013 28.000000000000078 -70.000000000000114 -2.7776483684482151e-015 1 9.8776238924291822e-016 I I #
coedge $-1 $354 $319 $214 $284 forward $355 $-1 #
edge $-1 $155 1.5707963267948952 $289 3.1415926535897918 $283 $156 forward 7 unknown #
coedge $-1 $356 $215 $218 $293 reversed $288 $-1 #
coedge $-1 $215 $356 $354 $357 forward $288 $-1 #
coedge $-1 $358 $359 $335 $216 reversed $333 $-1 #
loop $-1 $-1 $215 $360 #
vertex $-1 $361 $362 #
straight-curve $-1 70.000000000000171 28.000000000000203 2.8421709430404203e-014 -2.7776483684482151e-015 1 9.8776238924291822e-016 I I #
coedge $-1 $230 $363 $217 $292 forward $208 $-1 #
edge $-1 $364 -70.000000000000171 $221 1.1368683772161699e-013 $217 $365 forward 7 unknown #
edge $-1 $364 -70.000000000000114 $220 -2.8421709430404083e-014 $285 $366 forward 7 unknown #
face $-1 $367 $219 $21 $-1 $368 reversed single #
edge $-1 $220 -2.8421709430404083e-014 $369 70.000000000000114 $359 $366 forward 7 unknown #
point $-1 70.000000000000171 28.000000000000277 2.8421709430404083e-014 #
edge $-1 $221 1.1368683772161699e-013 $370 70.000000000000171 $300 $365 forward 7 unknown #
point $-1 -1.1368683772161699e-013 28.000000000000277 70.000000000000114 #
coedge $-1 $300 $223 $371 $372 reversed $301 $-1 #
coedge $-1 $223 $299 $228 $297 reversed $301 $-1 #
loop $-1 $-1 $223 $367 #
coedge $-1 $373 $225 $345 $305 forward $271 $-1 #
coedge $-1 $225 $373 $347 $237 reversed $271 $-1 #
coedge $-1 $234 $371 $92 $148 reversed $313 $-1 #
edge $-1 $226 -2.8421709430404462e-014 $374 70.000000000000114 $345 $375 forward 7 unknown #
point $-1 -70.000000000000171 28.000000000000277 2.8421709430404462e-014 #
coedge $-1 $229 $228 $312 $376 forward $231 $-1 #
coedge $-1 $363 $230 $319 $239 forward $208 $-1 #
face $-1 $377 $231 $21 $-1 $209 forward single #
vertex $-1 $376 $378 #
straight-curve $-1 0 -28.000000000000277 70.000000000000114 1 0 0 I I #
coedge $-1 $371 $234 $307 $376 reversed $313 $-1 #
loop $-1 $-1 $304 $379 #
straight-curve $-1 -70.000000000000171 -28.000000000000277 0 0 0 -1 I I #
face $-1 $380 $355 $21 $-1 $316 reversed single #
plane-surface $-1 0 -28.000000000000277 0 0 1 0 0 0 1 forward_v I I I I #
vertex $-1 $381 $382 #
vertex $-1 $383 $384 #
coedge $-1 $283 $354 $308 $239 reversed $355 $-1 #
convexity-sys-attrib $-1 $-1 $-1 $243 #
vertex $-1 $243 $385 #
ellipse-curve $-1 -8.1361997205837571e-015 -10.000000000000028 -9.1132613608269201e-015 2.7776483684482151e-015 -1 -9.8776238924291822e-016 -70 -1.9443538579137516e-013 9.4205773854866027e-014 1 I I #
point $-1 69.999999999999872 28.000000000000185 -6.6325081308532299e-014 #
point $-1 54 -9.9999999999998579 -7.7500164667630951e-014 #
vertex $-1 $250 $386 #
ellipse-curve $-1 0 -3.4288977907026571e-015 56.000000000000014 7.4905260126191417e-032 0 1 70 -8.5633529378109387e-014 -2.7610131682735413e-029 1 I I #
point $-1 70 -8.7960281450371903e-014 38.000000000000014 #
straight-curve $-1 -70.000000000000171 28.000000000000277 0 0 0 -1 I I #
point $-1 -70.000000000000171 -28.000000000000277 -70.000000000000114 #
straight-curve $-1 -70.000000000000171 0 -70.000000000000114 0 1 0 I I #
point $-1 -70.000000000000171 28.000000000000277 -70.000000000000114 #
face $-1 $294 $387 $21 $-1 $368 reversed single #
loop $-1 $-1 $287 $270 #
plane-surface $-1 70.000000000000171 0 0 -1 0 0 0 0 1 forward_v I I I I #
coedge $-1 $274 $273 $142 $216 forward $140 $-1 #
coedge $-1 $388 $389 $273 $337 forward $390 $-1 #
edge $-1 $289 -3.1415926535897944 $280 -1.5707963267948979 $336 $156 forward 7 unknown #
coedge $-1 $391 $392 $274 $339 forward $387 $-1 #
edge $-1 $281 1.5707963267948979 $220 3.1415926535897944 $338 $222 forward 7 unknown #
coedge $-1 $393 $275 $392 $352 forward $343 $-1 #
coedge $-1 $275 $393 $388 $394 forward $343 $-1 #
coedge $-1 $395 $396 $141 $213 reversed $397 $-1 #
loop $-1 $-1 $275 $377 #
coedge $-1 $345 $276 $396 $398 reversed $346 $-1 #
coedge $-1 $276 $344 $302 $305 reversed $346 $-1 #
loop $-1 $-1 $276 $399 #
coedge $-1 $348 $278 $303 $237 forward $349 $-1 #
coedge $-1 $278 $347 $395 $350 reversed $349 $-1 #
loop $-1 $-1 $278 $400 #
edge $-1 $280 -4.1861470911484989e-014 $317 70.000000000000171 $348 $401 forward 7 unknown #
point $-1 4.1861470911484989e-014 -28.000000000000277 -70.000000000000114 #
edge $-1 $281 -1.1368683772161659e-013 $369 70.000000000000171 $392 $402 forward 7 unknown #
point $-1 -1.1368683772161659e-013 28.000000000000277 -70.000000000000114 #
coedge $-1 $319 $283 $286 $357 reversed $355 $-1 #
loop $-1 $-1 $283 $315 #
coedge $-1 $286 $285 $363 $383 reversed $288 $-1 #
edge $-1 $318 -70.000000000000114 $289 2.6892984367199891e-014 $286 $403 forward 7 unknown #
coedge $-1 $404 $287 $389 $361 forward $333 $-1 #
coedge $-1 $287 $404 $391 $295 reversed $333 $-1 #
face $-1 $-1 $288 $21 $-1 $334 reversed single #
edge $-1 $289 2.6892984367199891e-014 $405 70.000000000000114 $358 $403 forward 7 unknown #
point $-1 70.000000000000171 -28.000000000000277 -2.6892984367199891e-014 #
coedge $-1 $291 $308 $356 $383 forward $208 $-1 #
vertex $-1 $383 $406 #
straight-curve $-1 0 28.000000000000277 70.000000000000114 -1 0 0 I I #
straight-curve $-1 70.000000000000171 28.000000000000277 0 0 0 -1 I I #
face $-1 $399 $301 $21 $-1 $368 reversed single #
plane-surface $-1 0 28.000000000000277 0 0 -1 0 0 0 -1 forward_v I I I I #
vertex $-1 $407 $408 #
vertex $-1 $297 $409 #
coedge $-1 $304 $312 $299 $372 forward $313 $-1 #
edge $-1 $370 -70.000000000000114 $226 -2.8421709430404462e-014 $299 $375 forward 7 unknown #
coedge $-1 $303 $302 $410 $381 reversed $271 $-1 #
vertex $-1 $398 $411 #
straight-curve $-1 -70.000000000000171 28.000000000000277 0 0 0 -1 I I #
edge $-1 $370 -28.000000000000277 $310 28.000000000000277 $312 $412 forward 7 unknown #
face $-1 $379 $343 $21 $-1 $413 reversed single #
point $-1 -70.000000000000171 -28.000000000000277 70.000000000000114 #
face $-1 $360 $313 $21 $-1 $272 reversed single #
face $-1 $414 $390 $21 $-1 $316 reversed single #
edge $-1 $317 -28.000000000000277 $374 28.000000000000277 $373 $415 forward 7 unknown #
point $-1 -70.000000000000171 -28.000000000000277 -70.000000000000114 #
edge $-1 $318 -28.000000000000277 $364 28.000000000000277 $356 $416 forward 7 unknown #
point $-1 70.000000000000171 -28.000000000000277 70.000000000000114 #
point $-1 69.999999999999986 -9.9999999999998348 -9.4746790738936307e-014 #
point $-1 70 -8.9062427168812043e-014 56.000000000000014 #
loop $-1 $-1 $338 $332 #
coedge $-1 $389 $336 $341 $394 reversed $390 $-1 #
coedge $-1 $336 $388 $358 $361 reversed $390 $-1 #
loop $-1 $-1 $336 $380 #
coedge $-1 $392 $338 $359 $295 forward $387 $-1 #
coedge $-1 $338 $391 $340 $352 reversed $387 $-1 #
coedge $-1 $341 $340 $404 $407 forward $343 $-1 #
edge $-1 $405 -70.000000000000171 $280 -4.1861470911484989e-014 $388 $401 forward 7 unknown #
coedge $-1 $410 $342 $348 $350 forward $397 $-1 #
coedge $-1 $342 $410 $344 $398 forward $397 $-1 #
loop $-1 $-1 $342 $414 #
edge $-1 $374 -70.000000000000171 $281 -1.1368683772161659e-013 $344 $402 forward 7 unknown #
face $-1 $400 $346 $21 $-1 $368 reversed single #
face $-1 $236 $349 $21 $-1 $316 reversed single #
straight-curve $-1 0 -28.000000000000277 -70.000000000000114 -1 0 0 I I #
straight-curve $-1 0 28.000000000000277 -70.000000000000114 1 0 0 I I #
straight-curve $-1 70.000000000000171 -28.000000000000277 0 0 0 -1 I I #
coedge $-1 $359 $358 $393 $407 reversed $333 $-1 #
vertex $-1 $361 $417 #
point $-1 70.000000000000171 28.000000000000277 70.000000000000114 #
edge $-1 $369 -28.000000000000277 $405 28.000000000000277 $404 $418 forward 7 unknown #
point $-1 70.000000000000171 28.000000000000277 -70.000000000000114 #
point $-1 -70.000000000000171 28.000000000000277 70.000000000000114 #
coedge $-1 $396 $395 $373 $381 forward $397 $-1 #
point $-1 -70.000000000000171 28.000000000000277 -70.000000000000114 #
straight-curve $-1 -70.000000000000171 0 70.000000000000114 0 -1 0 I I #
plane-surface $-1 0 0 -70.000000000000114 0 0 1 1 0 0 forward_v I I I I #
face $-1 $309 $397 $21 $-1 $413 reversed single #
straight-curve $-1 -70.000000000000171 0 -70.000000000000114 0 1 0 I I #
straight-curve $-1 70.000000000000171 0 70.000000000000114 0 1 0 I I #
point $-1 70.000000000000171 -28.000000000000277 -70.000000000000114 #
straight-curve $-1 70.000000000000171 0 -70.000000000000114 0 -1 0 I I #
End-of-ACIS-data 