400 0 1 0           
7 Unknown 13 ACIS 4.0.1 NT 24 Wed Aug 26 17:14:09 1998 
1 9.9999999999999995e-007 1e-010 
body $-1 $1 $-1 $2 #
lump $-1 $-1 $3 $0 #
transform $-1 1 2.7776483684482167e-015 -1.2233361339729912e-015 1.2233361339729944e-015 -1.0489927069340337e-015 1 2.7776483684482151e-015 -1 -1.0489927069340371e-015 -406.15926171300572 55.019598711530421 166.21196011035238 10 rotate no_reflect no_shear #
shell $-1 $-1 $-1 $4 $-1 $1 #
face $-1 $5 $6 $3 $-1 $7 forward single #
face $-1 $8 $9 $3 $-1 $10 forward single #
loop $-1 $11 $12 $4 #
cone-surface $-1 0 0 2.0494446500534873 0 6.1230317691118863e-017 1 4.4000000000000004 0 0 1 I I 0 -1 0.44000000000000006 forward I I I I #
face $-1 $13 $14 $3 $-1 $15 forward single #
loop $-1 $16 $17 $5 #
plane-surface $-1 4.9000000000000004 0 0 0 -6.1230317691118863e-017 -1 -1 0 0 forward_v I I I I #
loop $-1 $-1 $18 $4 #
coedge $-1 $12 $12 $19 $20 reversed $6 $-1 #
face $-1 $21 $22 $3 $-1 $23 forward single #
loop $-1 $24 $25 $8 #
cone-surface $-1 0 0 1.9000000000000004 0 6.1230317691118863e-017 1 5.4000000000000004 0 0 1 I I 0 1 0.54000000000000004 forward I I I I #
loop $-1 $-1 $19 $5 #
coedge $-1 $17 $17 $26 $27 reversed $9 $-1 #
coedge $-1 $18 $18 $28 $29 forward $11 $-1 #
coedge $-1 $19 $19 $12 $20 forward $16 $-1 #
edge $-1 $30 $30 $19 $31 forward #
face $-1 $32 $33 $3 $-1 $34 forward single #
loop $-1 $35 $36 $13 #
plane-surface $-1 6.6054709912865679 0 3.8000000000000016 0 -6.1230317691118863e-017 -1 -1 0 0 forward_v I I I I #
loop $-1 $-1 $26 $8 #
coedge $-1 $25 $25 $37 $38 reversed $14 $-1 #
coedge $-1 $26 $26 $17 $27 forward $24 $-1 #
edge $-1 $39 $39 $26 $40 forward #
coedge $-1 $28 $28 $18 $29 reversed $41 $-1 #
edge $-1 $42 $42 $18 $43 forward #
vertex $-1 $20 $44 #
ellipse-curve $-1 0 0 0 0 6.1230317691118863e-017 1 4.4000000000000004 0 0 1 I I #
face $-1 $-1 $41 $3 $-1 $45 forward single #
loop $-1 $46 $47 $21 #
cone-surface $-1 0 0 4.700000000000002 0 6.1230317691118863e-017 1 7 0 0 1 I I 0 1 0.70000000000000007 forward I I I I #
loop $-1 $-1 $37 $13 #
coedge $-1 $36 $36 $48 $49 reversed $22 $-1 #
coedge $-1 $37 $37 $25 $38 forward $35 $-1 #
edge $-1 $50 $50 $37 $51 forward #
vertex $-1 $27 $52 #
ellipse-curve $-1 0 0 0 0 6.1230317691118863e-017 1 5.4000000000000004 0 0 1 I I #
loop $-1 $53 $28 $32 #
vertex $-1 $29 $54 #
ellipse-curve $-1 0 0 4.0988893001069746 0 6.1230317691118863e-017 1 4.4000000000000004 0 0 1 I I #
point $-1 4.4000000000000004 0 0 #
cone-surface $-1 0 0 4.8494446500534885 0 6.1230317691118863e-017 1 5.6999999999999993 0 0 1 I I -0.86602540378443882 -0.49999999999999978 0.56999999999999995 forward I I I I #
loop $-1 $-1 $48 $21 #
coedge $-1 $47 $47 $55 $56 reversed $33 $-1 #
coedge $-1 $48 $48 $36 $49 forward $46 $-1 #
edge $-1 $57 $57 $48 $58 forward #
vertex $-1 $38 $59 #
ellipse-curve $-1 0 0 3.8000000000000016 0 6.1230317691118863e-017 1 5.4000000000000004 0 0 1 I I #
point $-1 5.4000000000000004 0 0 #
loop $-1 $-1 $55 $32 #
point $-1 4.4000000000000004 0 4.0988893001069746 #
coedge $-1 $55 $55 $47 $56 forward $53 $-1 #
edge $-1 $60 $60 $55 $61 forward #
vertex $-1 $49 $62 #
ellipse-curve $-1 0 0 3.8000000000000016 0 6.1230317691118863e-017 1 7 0 0 1 I I #
point $-1 5.4000000000000004 0 3.8000000000000016 #
vertex $-1 $56 $63 #
ellipse-curve $-1 0 0 5.6000000000000014 0 6.1230317691118863e-017 1 7 0 0 1 I I #
point $-1 7 0 3.8000000000000016 #
point $-1 7 0 5.6000000000000014 #
End-of-ACIS-data 