600 0 1 0           
70 GICL ACIS Healer - Source: /gicl/data5/repository/new/plane2.sat - 6 0 18 ACIS 6.0.3 Solaris 24 Sat Apr 13 20:08:54 2002 
1 9.999999999999999547e-07 1.000000000000000036e-10 
body $-1 $1 $-1 $2 #
lump $-1 $-1 $3 $0 #
transform $-1 1 0 0 0 1 0 0 0 1 0 0 0 1 rotate no_reflect no_shear #
shell $-1 $-1 $-1 $4 $-1 $1 #
face $5 $6 $7 $3 $-1 $8 forward single #
bodyfaceidentifier-eye-attrib $-1 $-1 $-1 $4 1 #
face $9 $10 $11 $3 $-1 $12 forward single #
loop $-1 $-1 $13 $4 #
torus-surface $-1 -41.15645729995981128 -3.907985046680551022e-13 -8.945705467095294239 -0.9956342260592880855 -1.139666295687122495e-14 -0.09334070869305841067 -37.62540364583330188 46.51540364583330245 1.109321019239625436e-14 -1 3.769879373949348256e-15 forward_v I I I I #
bodyfaceidentifier-eye-attrib $-1 $-1 $-1 $6 2 #
face $14 $15 $16 $3 $-1 $17 forward single #
loop $-1 $18 $19 $6 #
cone-surface $-1 -66.67500000000001137 -7.602807272633071989e-13 -17.99999999999999645 1 1.04744500833281462e-14 -1.232595164407830946e-29 8.314094753641716046e-14 -7.9375 2.797935494402992163e-14 1 I I 0.1842885350501849984 0.9828721869343219897 7.9375 forward I I I I #
coedge $-1 $20 $21 $22 $23 reversed $7 $-1 #
bodyfaceidentifier-eye-attrib $-1 $-1 $-1 $10 3 #
face $24 $25 $26 $3 $-1 $27 forward single #
loop $-1 $-1 $28 $10 #
plane-surface $-1 111.1250000000005258 -50.79999999999899529 -17.99999999999980815 -0.3162277660168280047 -0.9486832980505170987 3.344068878819311616e-15 2.46146651317553379e-29 -3.524958103184872016e-15 -1 forward_v I I I I #
loop $-1 $-1 $29 $6 #
coedge $-1 $19 $19 $30 $31 forward $11 $-1 #
coedge $-1 $32 $13 $33 $34 reversed $7 $-1 #
coedge $-1 $13 $32 $35 $36 reversed $7 $-1 #
coedge $-1 $35 $37 $13 $23 forward $38 $-1 #
edge $39 $40 -0.2834060764656100018 $41 26.09251886979280144 $22 $42 forward 7 unknown #
bodyfaceidentifier-eye-attrib $-1 $-1 $-1 $15 4 #
face $43 $44 $45 $3 $-1 $46 reversed single #
loop $-1 $-1 $47 $15 #
plane-surface $-1 -41.2750000000000199 -4.973799150320701301e-13 -17.99999999999999645 -0.3162277660168479332 0.9486832980505105484 -3.344068878819304122e-15 -2.46146651317553379e-29 3.524958103184872016e-15 1 forward_v I I I I #
coedge $-1 $48 $49 $50 $51 reversed $16 $-1 #
coedge $-1 $33 $52 $32 $53 forward $18 $-1 #
coedge $-1 $30 $30 $19 $31 reversed $54 $-1 #
edge $55 $56 -6.283185307179586232 $56 1.680632885702304207e-16 $19 $57 reversed 7 unknown #
coedge $-1 $21 $20 $29 $53 reversed $7 $-1 #
coedge $-1 $52 $29 $20 $34 forward $18 $-1 #
edge $58 $59 -11.3816128218755992 $40 14.86132920109469957 $33 $60 forward 7 unknown #
coedge $-1 $37 $22 $21 $36 forward $38 $-1 #
edge $61 $41 26.09251886979280144 $62 52.51384231069660302 $35 $63 forward 7 unknown #
coedge $-1 $22 $35 $52 $64 forward $38 $-1 #
loop $-1 $65 $35 $66 #
ptlist-eye-attrib $-1 $-1 $-1 $23 #
vertex $-1 $64 $67 #
vertex $-1 $23 $68 #
intcurve-curve $-1 forward { surfintcur full nubs 3 open 22 
	-0.2834060764656100018 3 0 3 1.963603445369259903 2 3.927206890738519807 2 5.166608703456979867 2 
	6.406010516175440372 2 7.647060825062210299 2 8.888111133948950027 2 10.94179529429949937 2 12.99547945465000076 2 
	15.04916361500059985 2 17.10284777535110123 2 19.0436088955530991 2 20.9843700157552 2 22.92513113595720142 2 
	23.89551169605820036 2 24.86589225615919929 2 25.31312932833279916 2 25.53608258339620107 2 25.75903583845959943 2 
	25.92577735412620044 2 26.09251886979280144 3 
	-41.27500000000010516 8.889814420521865657 -8.930203995200727718 
	-41.1794176010587023 8.890080233934874343 -8.930464533796190096 
	-41.0843711145866024 8.890037561227160268 -8.930422700895107369 
	-40.98990361054420362 8.889699196077707199 -8.930091058712537944 
	-40.33537736069639834 8.887354803954828242 -8.927793247245510599 
	-39.61607282051220125 8.869553541818433473 -8.910256175408207469 
	-38.1807179066189093 8.79882866604285141 -8.841777632248678742 
	-37.46465745683190107 8.745942588351226732 -8.791008709037196667 
	-36.40578808088010021 8.646136123330919077 -8.697466376825587986 
	-35.95617343183090497 8.597928204553333842 -8.65274531212103426 
	-35.05981598874079452 8.487781917368884876 -8.552614238282295389 
	-34.61306690873209391 8.425838065409742228 -8.497266542022344993 
	-33.80261626118839047 8.302657938549110384 -8.389454789540344848 
	-33.35806813868940424 8.229121432234727251 -8.326191418106922981 
	-32.47273075986539936 8.06814230564771151 -8.191529591541975464 
	-32.03193272659829915 7.980687053523929819 -8.120203951432035439 
	-30.97201364994567996 7.755427931676791786 -7.941397994057624032 
	-30.28351006299308779 7.592893359764119054 -7.817190563254122537 
	-28.88640065423869885 7.223750984118474605 -7.552078708367119475 
	-28.17779095857137861 7.017102781020192026 -7.411250958384719922 
	-26.77375733735118501 6.56572051333234441 -7.125596632092317861 
	-26.07823257316967158 6.320941595185324502 -6.980853697833317995 
	-24.73113869821477806 5.805926363774290166 -6.701013013158316767 
	-24.07954520180666691 5.535702824108327036 -6.566009150214316747 
	-22.88297116458896596 5.004199546847836189 -6.32402047812181678 
	-22.27924641220725732 4.718924970674116537 -6.204655637380511735 
	-21.06134371599145538 4.101415082946218149 -5.975990858829909769 
	-20.44709690634134347 3.769280440977269109 -5.866785878242009034 
	-19.24094901804654967 3.068465064748238547 -5.670891329314006413 
	-18.64944866531503465 2.700945361773428033 -5.584402864795105614 
	-17.80534378333302925 2.125649958936527639 -5.477633822118704643 
	-17.53128283119393416 1.929982963640469507 -5.445847473438202968 
	-17.004986985077025 1.525951862093215539 -5.390358804623101463 
	-16.75199491946672481 1.318578791469427358 -5.366629021627900897 
	-16.41278499938731272 0.990818970493315021 -5.338284082442498857 
	-16.2898474568831233 0.8612124405883818667 -5.328699310914899456 
	-16.15026414270121791 0.6870920112694633985 -5.318467306743897893 
	-16.10174339880921934 0.6214280138970451617 -5.315026529613398054 
	-16.0147149579992174 0.4840850030798122816 -5.309043123514697982 
	-15.97641778311312066 0.4122723783775228412 -5.306507969390196422 
	-15.92652874723761158 0.2923803139207308277 -5.303262337255098657 
	-15.9071562924631138 0.2345032074602571015 -5.302027227874098969 
	-15.88131271288341395 0.1161206099086271593 -5.300392908314297102 
	-15.87500000000001421 0.05558050522209612154 -5.299999999999997158 
	-15.87500000000001421 -9.947598300641402602e-14 -5.299999999999997158 
	0.001000000000000000021 
	torus -41.15645729995981128 -3.907985046680551022e-13 -8.945705467095294239 -0.9956342260592880855 -1.139666295687122495e-14 -0.09334070869305841067 -37.62540364583330188 46.51540364583330245 1.109321019239625436e-14 -1 3.769879373949348256e-15 forward_v I I I I 
	cone 34.92499999999996874 3.055333763768430799e-13 -17.99999999999999645 1 1.04744500833281462e-14 -1.232595164407830946e-29 1.330255160582674517e-13 -12.69999999999999929 4.476696791044787081e-14 1 I I 0 1 12.69999999999999929 forward I I I I 
	nullbs 
	nullbs 
	I I 
	0 
	0 
	0 
	} I I #
bodyfaceidentifier-eye-attrib $-1 $-1 $-1 $25 5 #
face $69 $70 $71 $3 $-1 $46 reversed single #
loop $-1 $-1 $72 $25 #
plane-surface $-1 60.32500000000000284 5.54223333892878145e-13 -17.99999999999999645 -2.653872685048119002e-29 3.708649056258229393e-15 1 1 1.04744500833281462e-14 -1.232595164407830946e-29 forward_v I I I I #
coedge $-1 $73 $74 $75 $76 reversed $26 $-1 #
coedge $-1 $77 $28 $78 $79 forward $16 $-1 #
coedge $-1 $28 $77 $80 $81 forward $16 $-1 #
coedge $-1 $82 $83 $28 $51 forward $65 $-1 #
edge $84 $85 1.116779459810314869e-16 $86 0.1001674211615591892 $50 $87 forward 7 unknown #
coedge $-1 $29 $33 $37 $64 reversed $18 $-1 #
edge $88 $62 -37.62900036303930307 $59 -11.3816128218755992 $29 $89 forward 7 unknown #
loop $-1 $-1 $30 $90 #
ptlist-eye-attrib $-1 $-1 $-1 $31 #
vertex $-1 $31 $91 #
ellipse-curve $-1 -92.07500000000001705 -1.023181539494544268e-12 -17.99999999999999645 -1 -1.04744500833281462e-14 1.232595164407830946e-29 3.325637901456686292e-14 -3.174999999999999822 1.11917419776119677e-14 1 I I #
ptlist-eye-attrib $-1 $-1 $-1 $34 #
vertex $-1 $53 $92 #
intcurve-curve $-1 forward { surfintcur full nubs 3 open 19 
	-11.3816128218755992 3 -11.26125000683470034 2 -11.09755536868549974 2 -10.89129275139599962 2 -10.68503013410660074 2 
	-10.30574640622739935 2 -9.681667894410880493 2 -9.057589382594390059 2 -7.809432358961370113 2 -5.313118311695379958 2 
	-2.656559155847689979 2 0 3 2.730652223282730162 2 5.461304446565449666 2 8.19195666984816917 2 
	10.92260889313089933 2 12.80887295872740061 2 14.69513702432390012 2 14.86132920109469957 3 
	-66.67500000000002558 -6.750155989720951766e-13 -10.06250000000000711 
	-66.67500000000002558 0.04179873745234630178 -10.06250000000000711 
	-66.67179796704759553 0.08556210412373133067 -10.06224283892835558 
	-66.65644634459071938 0.1877039160102071946 -10.06102184572809932 
	-66.64139377678009168 0.2456872278201558402 -10.05983163257761603 
	-66.60175755590964286 0.3624226746904426477 -10.05676533180883681 
	-66.57105233652524134 0.4311928044192185894 -10.05442936152673639 
	-66.49921265427245487 0.5633395741435194282 -10.04920064843756933 
	-66.45827516551130998 0.626824138954802379 -10.04633164206308038 
	-66.34559625831839469 0.7860178968568334312 -10.0387904646579571 
	-66.24790638372090257 0.9019388692201530944 -10.03279046758333948 
	-66.02045357973285888 1.146827222046013617 -10.02036274981175268 
	-65.86625530062185874 1.29102163926734903 -10.0133654999275592 
	-65.54283014362309245 1.572271581714247191 -10.00213817587041376 
	-65.37337733532149286 1.709066134067384723 -9.997881642773442934 
	-64.8491323458715101 2.112020047103158049 -9.989807133647374826 
	-64.47873327048746717 2.370734283971835055 -9.990792697272485867 
	-63.34229418233871201 3.117528983844636059 -10.01105349484674889 
	-62.55143498502165755 3.573706790715611703 -10.04770376379735808 
	-61.03624884110359972 4.378176265335504525 -10.13298797525684236 
	-60.16088572146870916 4.799904086549517501 -10.19165031895793305 
	-58.3783944115232174 5.571152975697792442 -10.30549021830186618 
	-57.47133697029905619 5.921049472085940124 -10.35922720305284628 
	-56.63671187068847956 6.214513084539703414 -10.39697933310107913 
	-55.77880856413398192 6.516161577491743628 -10.43578439325678175 
	-54.86934498652138359 6.804557790853642985 -10.46467808750261241 
	-52.99281518898528986 7.333547559196787802 -10.47874685332806166 
	-52.02577469452269554 7.574240231083273045 -10.46362467455295331 
	-50.08240215469879786 7.996197607891048165 -10.37465114972141578 
	-49.10577786291979407 8.17757834210465262 -10.30066958758665407 
	-47.19191402841370575 8.476555869716662528 -10.09492252168182702 
	-46.25466263316150162 8.594125456255817141 -9.96322774237158626 
	-44.7444004275712075 8.741269459366698413 -9.706533710725445019 
	-44.06714815401430485 8.794108267255630551 -9.577629930151019266 
	-42.71755905775469842 8.866228301197381256 -9.288562140226687802 
	-42.04519961728190935 8.885399837667897316 -9.12847637738796891 
	-41.38260291111630806 8.889481591514424963 -8.958144307852876409 
	-41.32884979754341259 8.889703420128128641 -8.944233313768847893 
	-41.27500000000010516 8.889814420521865657 -8.930203995200727718 
	0.001000000000000000021 
	torus -41.15645729995981128 -3.907985046680551022e-13 -8.945705467095294239 -0.9956342260592880855 -1.139666295687122495e-14 -0.09334070869305841067 -37.62540364583330188 46.51540364583330245 1.109321019239625436e-14 -1 3.769879373949348256e-15 forward_v I I I I 
	cone -66.67500000000001137 -7.602807272633071989e-13 -17.99999999999999645 1 1.04744500833281462e-14 -1.232595164407830946e-29 8.314094753641716046e-14 -7.9375 2.797935494402992163e-14 1 I I 0.1842885350501849984 0.9828721869343219897 7.9375 forward I I I I 
	nullbs 
	nullbs 
	I I 
	0 
	0 
	0 
	} I I #
ptlist-eye-attrib $-1 $-1 $-1 $36 #
vertex $-1 $36 $93 #
intcurve-curve $-1 forward { surfintcur full nubs 3 open 22 
	26.09251886979280144 3 26.25926038545929941 2 26.42600190112590042 2 26.64895515618939825 2 26.87190841125280016 2 
	27.31914548342640003 2 28.28952604352760147 2 29.25990660362869988 2 31.20066772383109921 2 33.14142884403339906 2 
	35.08218996423570246 2 37.13587412458659998 2 39.18955828493739801 2 41.24324244528820316 2 43.2969266056390012 2 
	44.53797691452459873 2 45.77902722341020336 2 47.01842903612860169 2 48.2578308488470995 2 49.23824942824810336 2 
	50.21866800764919958 2 52.51384231069660302 3 
	-15.87500000000001421 -9.947598300641402602e-14 -5.299999999999997158 
	-15.87500000000001421 -0.05558050522228796808 -5.299999999999997158 
	-15.88131271288341395 -0.1161206099088119004 -5.300392908314194074 
	-15.9071562924631138 -0.234503207460448948 -5.30202722787399594 
	-15.92652874723761158 -0.2923803139209226742 -5.303262337255095105 
	-15.97641778311310645 -0.4122723783777288986 -5.306507969390196422 
	-16.01471495799920319 -0.4840850030800254444 -5.309043123514694429 
	-16.10174339880930461 -0.6214280138972725354 -5.315026529613394501 
	-16.1502641427012037 -0.6870920112696907722 -5.318467306743894341 
	-16.28984745688309488 -0.8612124405886234513 -5.328699310914892351 
	-16.41278499938739799 -0.9908189704935566056 -5.338284082442491751 
	-16.75199491946679586 -1.318578791469711575 -5.366629021627790763 
	-17.00498698507709605 -1.525951862093535283 -5.390358804623090805 
	-17.53128283119418995 -1.9299829636408532 -5.445847473438188757 
	-17.80534378333329926 -2.125649958936925543 -5.477633822118690432 
	-18.64944866531537571 -2.700945361773911202 -5.584402864795087851 
	-19.24094901804697599 -3.068465064748778559 -5.670891329313985096 
	-20.44709690634196875 -3.769280440977901492 -5.866785878242083641 
	-21.06134371599206645 -4.101415082946921586 -5.975990858829980823 
	-22.27924641220816682 -4.718924970674905239 -6.204655637380582789 
	-22.88297116458996072 -5.004199546848674629 -6.324020478121880728 
	-24.07954520180784641 -5.53570282410922232 -6.566009150214377144 
	-24.73113869821595756 -5.805926363775220977 -6.701013013158473086 
	-26.07823257317114951 -6.320941595186305051 -6.980853697833474314 
	-26.77375733735264873 -6.565720513333367592 -7.125596632092573657 
	-28.17779095857314076 -7.017102781021243629 -7.411250958384869136 
	-28.88640065424053205 -7.223750984119526208 -7.552078708367371718 
	-30.28351006299513415 -7.592893359765184869 -7.817190563254371227 
	-30.97201364994784001 -7.755427931677864706 -7.941397994057769694 
	-32.03193272660011814 -7.980687053524910368 -8.120203951432177547 
	-32.47273075986682045 -8.068142305648606794 -8.191529591542050071 
	-33.35806813869002951 -8.22912143223545911 -8.326191418106848374 
	-33.80261626118861784 -8.302657938549771188 -8.389454789540209845 
	-34.61306690873192338 -8.425838065410367506 -8.497266542022156699 
	-35.05981598874062399 -8.487781917369538576 -8.552614238282107095 
	-35.95617343183072023 -8.597928204553994647 -8.652745312120845966 
	-36.40578808087992968 -8.646136123331594092 -8.697466376825385481 
	-37.13963009609162214 -8.715306295861928731 -8.762295235924334236 
	-37.4967084380359239 -8.745316041116090844 -8.790727075828534964 
	-38.21201958921132302 -8.796667970955070359 -8.839765665666348582 
	-38.57025426947912194 -8.818007613883892759 -8.860347781762904162 
	-39.65955489649262233 -8.871730656048136154 -8.912363313744236848 
	-40.45863697487232002 -8.892084715518045357 -8.932429238323784659 
	-41.27499999999992042 -8.889814420522654359 -8.930203995200535871 
	0.001000000000000000021 
	torus -41.15645729995981128 -3.907985046680551022e-13 -8.945705467095294239 -0.9956342260592880855 -1.139666295687122495e-14 -0.09334070869305841067 -37.62540364583330188 46.51540364583330245 1.109321019239625436e-14 -1 3.769879373949348256e-15 forward_v I I I I 
	cone 34.92499999999996874 3.055333763768430799e-13 -17.99999999999999645 1 1.04744500833281462e-14 -1.232595164407830946e-29 1.330255160582674517e-13 -12.69999999999999929 4.476696791044787081e-14 1 I I 0 1 12.69999999999999929 forward I I I I 
	nullbs 
	nullbs 
	I I 
	0 
	0 
	0 
	} I I #
edge $94 $62 -0.7954192916519297052 $40 3.937011945241707611 $52 $95 forward 7 unknown #
loop $-1 $-1 $83 $66 #
face $96 $97 $38 $3 $-1 $98 forward single #
point $-1 -41.27500000000010516 8.889814420521865657 -8.930203995200727718 #
point $-1 -15.87500000000001421 -9.947598300641402602e-14 -5.299999999999997158 #
bodyfaceidentifier-eye-attrib $-1 $-1 $-1 $44 6 #
face $99 $100 $101 $3 $-1 $102 forward single #
loop $-1 $-1 $103 $44 #
coedge $-1 $104 $105 $106 $107 reversed $45 $-1 #
coedge $-1 $108 $47 $109 $110 forward $26 $-1 #
coedge $-1 $47 $108 $104 $111 forward $26 $-1 #
coedge $-1 $106 $112 $47 $76 forward $65 $-1 #
edge $113 $114 3.041425232428233372 $115 3.141592653589793116 $75 $116 forward 7 unknown #
coedge $-1 $49 $48 $117 $118 forward $16 $-1 #
coedge $-1 $103 $119 $48 $79 reversed $71 $-1 #
edge $120 $85 40.16092628413841226 $121 160.6437051365536774 $48 $122 forward 7 unknown #
coedge $-1 $123 $124 $49 $81 reversed $125 $-1 #
edge $126 $127 -160.6437051365536774 $86 -39.95961711528276084 $49 $128 forward 7 unknown #
coedge $-1 $129 $50 $124 $130 forward $65 $-1 #
coedge $-1 $50 $131 $103 $132 forward $65 $-1 #
ptlist-eye-attrib $-1 $-1 $-1 $51 #
vertex $-1 $51 $133 #
vertex $-1 $51 $134 #
ellipse-curve $-1 -41.27500000000030411 -4.973799150320701301e-13 -17.99999999999999645 -0.3162277660168280047 -0.9486832980505170987 3.344068878819311616e-15 38.10000000000013642 -12.69999999999959961 4.476696791044740381e-14 0.3162277660168379967 I I #
ptlist-eye-attrib $-1 $-1 $-1 $53 #
intcurve-curve $-1 forward { surfintcur full nubs 3 open 21 
	-37.62900036303930307 3 -35.74347427247079878 2 -33.68696845439699672 2 -32.32747014681059738 2 -30.96797183922430108 2 
	-28.24897522405149886 2 -26.24783069832960081 2 -24.24668617260759973 2 -22.24554164688559865 2 -20.24439712116360113 2 
	-18.36707902315900043 2 -16.48976092515430025 2 -14.61244282714969955 2 -13.6737837781473992 2 -12.73512472914510063 2 
	-12.23991964631930074 2 -12.00587018434389996 2 -11.77182072236860044 2 -11.59838268367619918 2 -11.42494464498389917 2 
	-11.3816128218755992 3 
	-41.27499999999992042 -8.889814420522654359 -8.930203995200535871 
	-41.94115565717011407 -8.888441276265680813 -9.10375543562835432 
	-42.60980981468512141 -8.869898968807994777 -9.263481358021465439 
	-43.98462944050332624 -8.800416188091013225 -9.561775622504246286 
	-44.68871181021421535 -8.746695170250923468 -9.69706850948191601 
	-45.80613772879792123 -8.637824987158481349 -9.886993519222215809 
	-46.27326494591122241 -8.585788623168056688 -9.95958078871256447 
	-47.22965687484271768 -8.464273024516835164 -10.09217825477541552 
	-47.71892304093772452 -8.394791254118871393 -10.15217563787996724 
	-49.18573362879612887 -8.163853428974960025 -10.30795430582723782 
	-50.16233150528292128 -7.97871088447072907 -10.37818611488330589 
	-51.69838737088943503 -7.645420868525583558 -10.44872662887809867 
	-52.37898635288964044 -7.483939465495275556 -10.46683058809269085 
	-53.76339815005123768 -7.12154429173888559 -10.47692911427077078 
	-54.46720142735473758 -6.92059492318610836 -10.46895371305927114 
	-55.86354684008264826 -6.484453119100287211 -10.43185432526190226 
	-56.55617743583134427 -6.249188640479530932 -10.40283147362581317 
	-57.8977482141240003 -5.754888123944162714 -10.33409523058981705 
	-58.54668620906382159 -5.495825380050526121 -10.29453127586782557 
	-59.73280543263133779 -4.987076569372213442 -10.21915456291719693 
	-60.32856518885048303 -4.714669822843788438 -10.17959522470408018 
	-61.52783093912087509 -4.12266588765985631 -10.10467295262192167 
	-62.1313736532778691 -3.80312536580768068 -10.06945011382508426 
	-63.31250141090566785 -3.125355171102128793 -10.01592021563158497 
	-63.88978047274755312 -2.76806206133824162 -9.997852068307629736 
	-64.71033861638396445 -2.206757170519381361 -9.990621192288188013 
	-64.97621765403280847 -2.015501992620272631 -9.991487133194748793 
	-65.48618148127778227 -1.621038382112416798 -9.99993425386335133 
	-65.73077734388341753 -1.418492523798043692 -10.00758132176509108 
	-66.07580045454398032 -1.088107176333465986 -10.02324276117887081 
	-66.21270935483299525 -0.945148134375472182 -10.03066955006466188 
	-66.36569249070214482 -0.7564775206349665382 -10.04014600021438497 
	-66.41717616747710906 -0.6879380586983288026 -10.04352684074351387 
	-66.51045310367321406 -0.5448573319560807704 -10.04997957831145428 
	-66.55204974644205151 -0.4701869083211391853 -10.05302756019085564 
	-66.60741206205723586 -0.3462223758554330288 -10.0571954467183744 
	-66.62947897098845829 -0.2866881912754450923 -10.0589040889288448 
	-66.66128506642785112 -0.1645991155594899169 -10.06140047267602711 
	-66.67085702281335102 -0.102000318936433132 -10.06216858066581565 
	-66.67459982546495212 -0.02984132072369760635 -10.06246795636674563 
	-66.67500000000001137 -0.01504796557750154307 -10.06250000000000711 
	-66.67500000000002558 -6.750155989720951766e-13 -10.06250000000000711 
	0.001000000000000000021 
	torus -41.15645729995981128 -3.907985046680551022e-13 -8.945705467095294239 -0.9956342260592880855 -1.139666295687122495e-14 -0.09334070869305841067 -37.62540364583330188 46.51540364583330245 1.109321019239625436e-14 -1 3.769879373949348256e-15 forward_v I I I I 
	cone -66.67500000000001137 -7.602807272633071989e-13 -17.99999999999999645 1 1.04744500833281462e-14 -1.232595164407830946e-29 8.314094753641716046e-14 -7.9375 2.797935494402992163e-14 1 I I 0.1842885350501849984 0.9828721869343219897 7.9375 forward I I I I 
	nullbs 
	nullbs 
	I I 
	0 
	0 
	0 
	} I I #
face $135 $136 $137 $3 $-1 $138 forward single #
point $-1 -92.07499999999997442 -3.175000000001027445 -17.99999999999998579 #
point $-1 -66.67500000000002558 -6.750155989720951766e-13 -10.06250000000000711 #
point $-1 -41.27499999999992042 -8.889814420522654359 -8.930203995200535871 #
ptlist-eye-attrib $-1 $-1 $-1 $64 #
ellipse-curve $-1 -41.2750000000000199 -4.973799150320701301e-13 -17.99999999999999645 1 1.04744500833281462e-14 -1.232595164407830946e-29 1.330255160582674517e-13 -12.69999999999999929 4.476696791044787081e-14 1 I I #
bodyfaceidentifier-eye-attrib $-1 $-1 $-1 $66 11 #
face $139 $140 $141 $3 $-1 $142 reversed single #
cone-surface $-1 34.92499999999996874 3.055333763768430799e-13 -17.99999999999999645 1 1.04744500833281462e-14 -1.232595164407830946e-29 1.330255160582674517e-13 -12.69999999999999929 4.476696791044787081e-14 1 I I 0 1 12.69999999999999929 forward I I I I #
bodyfaceidentifier-eye-attrib $-1 $-1 $-1 $70 7 #
face $143 $144 $145 $3 $-1 $146 forward single #
loop $-1 $-1 $147 $70 #
plane-surface $-1 111.1250000000005258 -50.79999999999898819 -16.72999999999980858 -2.46146651317553379e-29 3.524958103184872016e-15 1 1 1.04744500833281462e-14 -1.232595164407830946e-29 forward_v I I I I #
coedge $-1 $119 $78 $83 $132 reversed $71 $-1 #
coedge $-1 $105 $72 $74 $111 reversed $45 $-1 #
coedge $-1 $72 $104 $148 $149 reversed $45 $-1 #
coedge $-1 $131 $75 $72 $107 forward $65 $-1 #
edge $150 $115 -38.09999999999999432 $151 76.19999999999998863 $106 $152 forward 7 unknown #
coedge $-1 $74 $73 $153 $154 reversed $26 $-1 #
coedge $-1 $147 $155 $73 $110 reversed $101 $-1 #
edge $156 $114 -120.6840880212708669 $157 -2.49992625214404702e-29 $73 $158 forward 7 unknown #
edge $159 $160 0 $115 120.4827788524152083 $74 $161 forward 7 unknown #
coedge $-1 $75 $162 $147 $163 forward $65 $-1 #
ptlist-eye-attrib $-1 $-1 $-1 $76 #
vertex $-1 $76 $164 #
vertex $-1 $76 $165 #
ellipse-curve $-1 -41.2750000000000199 -4.973799150320701301e-13 -17.99999999999999645 -0.3162277660168479332 0.9486832980505105484 -3.344068878819304122e-15 -38.09999999999986642 -12.70000000000039897 4.476696791044833782e-14 0.3162277660168379967 I I #
coedge $-1 $166 $167 $77 $118 reversed $168 $-1 #
edge $169 $121 0 $127 1.269999999999999574 $77 $170 forward 7 unknown #
coedge $-1 $78 $103 $166 $171 reversed $71 $-1 #
ptlist-eye-attrib $-1 $-1 $-1 $79 #
vertex $-1 $171 $172 #
straight-curve $-1 -41.2750000000000199 -4.973799150320701301e-13 -17.99999999999999645 0.9486832980505173207 -0.3162277660168280602 1.172777806000982545e-15 I I #
coedge $-1 $124 $80 $167 $173 reversed $125 $-1 #
coedge $-1 $80 $123 $82 $130 reversed $125 $-1 #
loop $-1 $-1 $124 $174 #
ptlist-eye-attrib $-1 $-1 $-1 $81 #
vertex $-1 $118 $175 #
straight-curve $-1 -41.2750000000000199 -4.902744876744691283e-13 -16.72999999999999687 -0.9486832980505173207 0.3162277660168280602 -1.172777806000982545e-15 I I #
coedge $-1 $176 $82 $177 $178 reversed $65 $-1 #
edge $179 $86 -38.29097864623778946 $180 76.20000000000001705 $82 $181 forward 7 unknown #
coedge $-1 $83 $106 $182 $183 reversed $65 $-1 #
edge $184 $185 -76.20000000000001705 $85 38.09999999999999432 $83 $186 forward 7 unknown #
point $-1 -3.174999999999883471 -12.70000000000009521 -17.99999999999995026 #
point $-1 -3.365978646237678618 -12.63634045125419192 -16.72999999999995069 #
bodyfaceidentifier-eye-attrib $-1 $-1 $-1 $90 19 #
face $187 $188 $189 $3 $-1 $190 forward single #
loop $-1 $54 $191 $90 #
sphere-surface $-1 -92.07500000000001705 -1.023181539494544268e-12 -17.99999999999999645 3.174999999999999822 1.04744500833281462e-14 -1 3.524958103184872016e-15 -1 -1.04744500833281462e-14 1.232595164407830946e-29 forward_v I I I I #
bodyfaceidentifier-eye-attrib $-1 $-1 $-1 $97 12 #
face $192 $193 $194 $3 $-1 $195 forward single #
loop $-1 $-1 $196 $97 #
plane-surface $-1 96.83749999999999147 0.3810000000010447252 7.183639525940002102 1.04744500833281462e-14 -1 3.524958103184872016e-15 1 1.04744500833281462e-14 -1.232595164407830946e-29 forward_v I I I I #
bodyfaceidentifier-eye-attrib $-1 $-1 $-1 $100 8 #
face $197 $174 $168 $3 $-1 $146 forward single #
loop $-1 $-1 $198 $100 #
plane-surface $-1 111.1249999999994458 50.8000000000010985 -18.00000000000018474 1 1.04744500833281462e-14 -1.232595164407830946e-29 2.653872685048119002e-29 -3.708649056258229393e-15 -1 forward_v I I I I #
coedge $-1 $155 $109 $112 $163 reversed $101 $-1 #
coedge $-1 $153 $198 $105 $149 forward $145 $-1 #
edge $199 $151 63.50000000000009948 $160 101.6000000000000938 $148 $200 forward 7 unknown #
ptlist-eye-attrib $-1 $-1 $-1 $107 #
vertex $-1 $183 $201 #
straight-curve $-1 34.92499999999985505 12.70000000000030127 -18.00000000000004263 1 1.04744500833281462e-14 -1.232595164407830946e-29 I I #
coedge $-1 $202 $148 $108 $154 forward $145 $-1 #
edge $203 $160 0 $157 1.27000000000002089 $153 $204 forward 7 unknown #
coedge $-1 $109 $147 $202 $205 reversed $101 $-1 #
ptlist-eye-attrib $-1 $-1 $-1 $110 #
vertex $-1 $154 $206 #
straight-curve $-1 111.1249999999994458 50.80000000000111271 -16.73000000000018517 0.9486832980505106594 0.3162277660168479332 -1.172777806001005816e-15 I I #
ptlist-eye-attrib $-1 $-1 $-1 $111 #
vertex $-1 $149 $207 #
straight-curve $-1 111.1249999999994458 50.8000000000010985 -18.00000000000018474 -0.9486832980505106594 -0.3162277660168479332 1.172777806001005816e-15 I I #
coedge $-1 $112 $208 $209 $210 reversed $65 $-1 #
edge $211 $212 -76.19999999999998863 $114 38.29097864623780367 $112 $213 forward 7 unknown #
point $-1 -3.365978646237948624 12.63634045125400718 -16.73000000000003951 #
point $-1 -3.175000000000139266 12.69999999999990337 -18.00000000000004263 #
coedge $-1 $214 $117 $119 $171 forward $168 $-1 #
coedge $-1 $117 $214 $123 $173 forward $168 $-1 #
loop $-1 $-1 $214 $144 #
ptlist-eye-attrib $-1 $-1 $-1 $118 #
straight-curve $-1 111.1250000000005258 -50.79999999999899529 -17.99999999999980815 -2.46146651317553379e-29 3.524958103184872016e-15 1 I I #
edge $215 $121 0 $185 38.10000000000009379 $166 $200 forward 7 unknown #
point $-1 111.1250000000005258 -50.79999999999899529 -17.99999999999980815 #
edge $216 $180 -38.16365954874599709 $127 0 $167 $217 forward 7 unknown #
face $218 $66 $125 $3 $-1 $102 forward single #
point $-1 111.1250000000005258 -50.79999999999898819 -16.72999999999980858 #
coedge $-1 $219 $129 $220 $221 forward $65 $-1 #
coedge $-1 $222 $223 $129 $178 forward $224 $-1 #
edge $225 $226 -1.540791824971419421 $180 -0.1001674211615597165 $129 $227 forward 7 unknown #
ptlist-eye-attrib $-1 $-1 $-1 $130 #
vertex $-1 $178 $228 #
straight-curve $-1 34.92500000000011084 -12.63634045125379401 -16.72999999999994003 1 1.04744500833281462e-14 -1.232595164407830946e-29 I I #
coedge $-1 $229 $222 $131 $183 forward $224 $-1 #
edge $230 $185 -1.116779459809946323e-16 $151 3.141592653589793116 $131 $227 forward 7 unknown #
ptlist-eye-attrib $-1 $-1 $-1 $132 #
vertex $-1 $231 $232 #
straight-curve $-1 34.92500000000011084 -12.69999999999969731 -17.99999999999995026 -1 -1.04744500833281462e-14 1.232595164407830946e-29 I I #
bodyfaceidentifier-eye-attrib $-1 $-1 $-1 $136 20 #
face $233 $-1 $234 $3 $-1 $235 forward single #
loop $-1 $236 $237 $136 #
cone-surface $-1 -104.7750000000000057 -1.158184659288963303e-12 -17.99999999999999645 -1 -1.04744500833281462e-14 1.232595164407830946e-29 1.330255160582674682e-15 -0.1270000000000000018 4.476696791044787831e-16 1 I I 0 1 0.1270000000000000018 forward I I I I #
coedge $-1 $191 $191 $238 $239 forward $137 $-1 #
bodyfaceidentifier-eye-attrib $-1 $-1 $-1 $140 13 #
face $240 $241 $242 $3 $-1 $243 forward single #
loop $-1 $-1 $244 $140 #
plane-surface $-1 60.32500000000000284 0.3810000000005686616 -17.99999999999999645 -0.7497766793969099508 -5.521065478779195569e-15 0.6616909633904209942 1.04744500833281462e-14 -1 3.524958103184872016e-15 forward_v I I I I #
coedge $-1 $245 $246 $208 $247 reversed $141 $-1 #
bodyfaceidentifier-eye-attrib $-1 $-1 $-1 $144 9 #
coedge $-1 $148 $202 $229 $248 reversed $145 $-1 #
ptlist-eye-attrib $-1 $-1 $-1 $149 #
straight-curve $-1 111.1250000000005258 -50.79999999999899529 -17.99999999999980815 -1.04744500833281462e-14 1 -3.708649056258227816e-15 I I #
point $-1 111.1249999999998437 12.70000000000110418 -18.00000000000004263 #
coedge $-1 $198 $153 $155 $205 forward $145 $-1 #
ptlist-eye-attrib $-1 $-1 $-1 $154 #
straight-curve $-1 111.1249999999994458 50.8000000000010985 -18.00000000000018474 -2.46146651317553379e-29 3.524958103184872016e-15 1 I I #
edge $249 $157 -101.600000000000108 $212 -63.43634045125419618 $202 $217 forward 7 unknown #
point $-1 111.1249999999994458 50.80000000000111271 -16.73000000000016385 #
point $-1 111.1249999999994458 50.8000000000010985 -18.00000000000018474 #
coedge $-1 $162 $219 $196 $247 forward $65 $-1 #
coedge $-1 $223 $229 $162 $210 forward $224 $-1 #
edge $250 $212 -3.041425232428233372 $251 -1.600800828618373473 $162 $227 forward 7 unknown #
ptlist-eye-attrib $-1 $-1 $-1 $163 #
vertex $-1 $248 $252 #
straight-curve $-1 34.92499999999985505 12.63634045125440508 -16.7300000000000324 -1 -1.04744500833281462e-14 1.232595164407830946e-29 I I #
coedge $-1 $167 $166 $222 $231 reversed $168 $-1 #
ptlist-eye-attrib $-1 $-1 $-1 $171 #
ptlist-eye-attrib $-1 $-1 $-1 $173 #
straight-curve $-1 111.1250000000005258 -50.79999999999898819 -16.72999999999980858 1.04744500833281462e-14 -1 3.708649056258227816e-15 I I #
bodyfaceidentifier-eye-attrib $-1 $-1 $-1 $174 10 #
coedge $-1 $208 $176 $244 $253 forward $65 $-1 #
coedge $-1 $254 $255 $176 $221 reversed $256 $-1 #
edge $257 $226 -76.20000000000004547 $258 -36.60292621894302556 $176 $259 forward 7 unknown #
coedge $-1 $182 $177 $214 $231 forward $224 $-1 #
coedge $-1 $177 $209 $260 $261 forward $224 $-1 #
loop $-1 $-1 $177 $262 #
ptlist-eye-attrib $-1 $-1 $-1 $178 #
vertex $-1 $261 $263 #
ellipse-curve $-1 111.1250000000000142 1.101341240428155288e-12 -17.99999999999999645 1 1.04744500833281462e-14 -1.232595164407830946e-29 1.330255160582674517e-13 -12.69999999999999929 4.476696791044787081e-14 1 I I #
point $-1 111.1250000000001279 -12.6363404512529911 -16.72999999999995069 #
coedge $-1 $209 $182 $198 $248 forward $224 $-1 #
ptlist-eye-attrib $-1 $-1 $-1 $183 #
edge $264 $180 -0.1001674211615597165 $185 -1.116779459809946323e-16 $222 $227 forward 7 unknown #
point $-1 111.1250000000001279 -12.6999999999989015 -17.99999999999995026 #
bodyfaceidentifier-eye-attrib $-1 $-1 $-1 $188 21 #
loop $-1 $-1 $265 $188 #
plane-surface $-1 -117.4750000000000085 -1.293187779083382338e-12 -17.99999999999999645 -1 -1.04744500833281462e-14 1.232595164407830946e-29 1.04744500833281462e-14 -1 3.524958103184872016e-15 forward_v I I I I #
loop $-1 $-1 $238 $136 #
coedge $-1 $237 $237 $265 $266 reversed $189 $-1 #
coedge $-1 $238 $238 $191 $239 reversed $236 $-1 #
edge $267 $268 3.524958103184872805e-15 $268 6.283185307179589785 $191 $269 forward 7 unknown #
bodyfaceidentifier-eye-attrib $-1 $-1 $-1 $193 14 #
face $270 $271 $272 $3 $-1 $273 forward single #
loop $-1 $-1 $274 $193 #
plane-surface $-1 104.7749999999999915 0.3810000000012152555 32.3672790518800042 -2.46146651317553379e-29 3.524958103184872016e-15 1 1.04744500833281462e-14 -1 3.524958103184872016e-15 forward_v I I I I #
coedge $-1 $275 $276 $219 $253 reversed $194 $-1 #
coedge $-1 $277 $196 $276 $278 reversed $141 $-1 #
coedge $-1 $196 $277 $279 $280 reversed $141 $-1 #
edge $281 $282 36.60292621894302556 $251 76.20000000000004547 $208 $283 forward 7 unknown #
edge $284 $151 -3.141592653589793116 $212 -3.041425232428233372 $229 $227 forward 7 unknown #
ptlist-eye-attrib $-1 $-1 $-1 $205 #
ptlist-eye-attrib $-1 $-1 $-1 $210 #
vertex $-1 $210 $285 #
point $-1 111.1249999999998437 12.636340451255208 -16.73000000000003951 #
edge $286 $258 3.111588151766316201 $282 3.171597155413270031 $219 $287 forward 7 unknown #
coedge $-1 $288 $220 $289 $290 reversed $256 $-1 #
coedge $-1 $220 $288 $275 $291 reversed $256 $-1 #
loop $-1 $-1 $220 $271 #
ptlist-eye-attrib $-1 $-1 $-1 $221 #
vertex $-1 $253 $292 #
straight-curve $-1 34.92499999999996874 -0.3809999999996520614 -5.305716286453993291 -1 -1.04744500833281462e-14 1.232595164407830946e-29 I I #
coedge $-1 $279 $289 $223 $261 reversed $272 $-1 #
edge $293 $251 -1.600800828618373473 $226 -1.540791824971419421 $223 $227 forward 7 unknown #
face $294 $295 $296 $3 $-1 $297 forward single #
point $-1 111.1250000000000142 -0.3809999999988562536 -5.305716286453993291 #
ptlist-eye-attrib $-1 $-1 $-1 $231 #
coedge $-1 $265 $265 $237 $266 forward $234 $-1 #
edge $298 $299 -3.524958103184872805e-15 $299 6.283185307179582679 $265 $300 forward 7 unknown #
ptlist-eye-attrib $-1 $-1 $-1 $239 #
vertex $-1 $239 $301 #
ellipse-curve $-1 -95.24745898318641935 -1.058708676282549277e-12 -17.99999999999999645 1 1.04744500833281462e-14 -1.232595164407830946e-29 1.774344370432737693e-15 -0.1270000000000000018 4.476696791044787831e-16 1 I I #
bodyfaceidentifier-eye-attrib $-1 $-1 $-1 $241 15 #
face $302 $262 $256 $3 $-1 $303 forward single #
loop $-1 $-1 $260 $241 #
plane-surface $-1 111.1250000000000142 0.3810000000012792043 32.3672790518800042 1 1.04744500833281462e-14 -1.232595164407830946e-29 -1.04744500833281462e-14 1 -3.524958103184872016e-15 forward_v I I I I #
coedge $-1 $304 $305 $288 $306 forward $242 $-1 #
coedge $-1 $307 $244 $255 $291 forward $194 $-1 #
coedge $-1 $244 $307 $245 $278 forward $194 $-1 #
coedge $-1 $246 $245 $308 $309 reversed $141 $-1 #
edge $310 $311 -0 $282 50.24562162781134589 $276 $312 forward 7 unknown #
coedge $-1 $313 $260 $246 $280 forward $272 $-1 #
edge $314 $251 12.69428371354599605 $315 50.3672790518800042 $279 $316 forward 7 unknown #
ptlist-eye-attrib $-1 $-1 $-1 $247 #
vertex $-1 $253 $317 #
straight-curve $-1 34.92499999999996874 0.3810000000003483933 -5.305716286454000397 1 1.04744500833281462e-14 -1.232595164407830946e-29 I I #
ptlist-eye-attrib $-1 $-1 $-1 $248 #
point $-1 111.1250000000000142 0.3810000000011442012 -5.305716286454000397 #
ptlist-eye-attrib $-1 $-1 $-1 $253 #
ellipse-curve $-1 60.32500000000000284 5.684341886080801487e-13 -17.99999999999999645 -0.7497766793969099508 -5.521065478779195569e-15 0.6616909633904209942 -11.20797094118450055 -1.621643000692773063e-13 -12.69999999999999929 0.7497766793969099508 I I #
coedge $-1 $255 $254 $274 $306 reversed $256 $-1 #
coedge $-1 $260 $313 $254 $290 forward $272 $-1 #
edge $318 $319 -50.3672790518800042 $226 -12.69428371354600316 $289 $320 forward 7 unknown #
edge $321 $258 -50.24562162781134589 $322 0 $275 $323 forward 7 unknown #
point $-1 71.5279262189429943 -0.3809999999992683684 -5.305716286453993291 #
ptlist-eye-attrib $-1 $-1 $-1 $261 #
bodyfaceidentifier-eye-attrib $-1 $-1 $-1 $262 17 #
face $324 $90 $325 $3 $-1 $326 forward single #
loop $-1 $224 $327 $262 #
cone-surface $-1 114.2999999999999687 1.136868377216160297e-12 -17.99999999999999645 1 1.04744500833281462e-14 -1.232595164407830946e-29 1.197229644524406989e-13 -11.42999999999999972 4.029027111940308436e-14 1 I I -0.371390676354103999 0.9284766908852589706 11.42999999999999972 forward I I I I #
ptlist-eye-attrib $-1 $-1 $-1 $266 #
vertex $-1 $266 $328 #
ellipse-curve $-1 -117.4750000000000085 -1.293187779083382338e-12 -17.99999999999999645 -1 -1.04744500833281462e-14 1.232595164407830946e-29 1.330255160582674682e-15 -0.1270000000000000018 4.476696791044787831e-16 1 I I #
point $-1 -95.24745898318641935 -0.1270000000010611529 -17.99999999999999645 #
bodyfaceidentifier-eye-attrib $-1 $-1 $-1 $271 16 #
plane-surface $-1 104.7749999999999915 -0.3809999999987851993 32.3672790518800042 1.04744500833281462e-14 -1 3.524958103184872016e-15 1 1.04744500833281462e-14 -1.232595164407830946e-29 forward_v I I I I #
coedge $-1 $308 $274 $313 $329 reversed $242 $-1 #
coedge $-1 $274 $308 $307 $330 forward $242 $-1 #
edge $331 $322 -6.350000000000022737 $319 0 $274 $332 forward 7 unknown #
coedge $-1 $276 $275 $305 $330 reversed $194 $-1 #
coedge $-1 $305 $304 $277 $309 forward $242 $-1 #
edge $333 $315 0 $311 6.350000000000022737 $308 $334 forward 7 unknown #
ptlist-eye-attrib $-1 $-1 $-1 $278 #
vertex $-1 $278 $335 #
straight-curve $-1 104.7749999999999915 0.3810000000012152555 32.3672790518800042 -0.6616909633904209942 -9.5737803482414601e-15 -0.7497766793969099508 I I #
coedge $-1 $289 $279 $304 $329 forward $272 $-1 #
ptlist-eye-attrib $-1 $-1 $-1 $280 #
vertex $-1 $280 $336 #
straight-curve $-1 111.1250000000000142 0.3810000000011015686 -17.99999999999999645 -2.46146651317553379e-29 3.524958103184872016e-15 1 I I #
point $-1 71.5279262189429943 0.3810000000007320864 -5.305716286454000397 #
ptlist-eye-attrib $-1 $-1 $-1 $290 #
vertex $-1 $329 $337 #
straight-curve $-1 111.1250000000000142 -0.3809999999988988861 -17.99999999999999645 2.46146651317553379e-29 -3.524958103184872016e-15 -1 I I #
ptlist-eye-attrib $-1 $-1 $-1 $291 #
vertex $-1 $330 $338 #
straight-curve $-1 104.7749999999999915 -0.3809999999987851993 32.3672790518800042 0.6616909633904209942 9.5737803482414601e-15 0.7497766793969099508 I I #
bodyfaceidentifier-eye-attrib $-1 $-1 $-1 $295 18 #
loop $-1 $-1 $339 $295 #
plane-surface $-1 117.4749999999999801 1.172395514004165307e-12 -17.99999999999999645 1 1.04744500833281462e-14 -1.232595164407830946e-29 1.04744500833281462e-14 -1 3.524958103184872016e-15 forward_v I I I I #
coedge $-1 $327 $327 $339 $340 reversed $296 $-1 #
point $-1 -117.4750000000000085 -0.127000000001295632 -17.99999999999999645 #
edge $341 $315 0 $319 0.7620000000000004547 $313 $342 forward 7 unknown #
edge $343 $311 0 $322 0.7620000000000004547 $305 $344 forward 7 unknown #
ptlist-eye-attrib $-1 $-1 $-1 $306 #
straight-curve $-1 111.1250000000000142 -0.3809999999987212504 32.3672790518800042 1 1.04744500833281462e-14 -1.232595164407830946e-29 I I #
ptlist-eye-attrib $-1 $-1 $-1 $309 #
straight-curve $-1 111.1250000000000142 0.3810000000012792043 32.3672790518800042 -1 -1.04744500833281462e-14 1.232595164407830946e-29 I I #
point $-1 104.7749999999999915 0.3810000000012152555 32.3672790518800042 #
point $-1 111.1250000000000142 0.3810000000012792043 32.3672790518800042 #
point $-1 111.1250000000000142 -0.3809999999987212504 32.3672790518800042 #
point $-1 104.7749999999999915 -0.3809999999987851993 32.3672790518800042 #
coedge $-1 $339 $339 $327 $340 forward $325 $-1 #
edge $345 $346 2.819267129461642127e-17 $346 6.283185307179586232 $339 $347 forward 7 unknown #
ptlist-eye-attrib $-1 $-1 $-1 $329 #
straight-curve $-1 111.1250000000000142 0.3810000000012792043 32.3672790518800042 1.04744500833281462e-14 -1 3.524958103184872016e-15 I I #
ptlist-eye-attrib $-1 $-1 $-1 $330 #
straight-curve $-1 104.7749999999999915 0.3810000000012152555 32.3672790518800042 1.04744500833281462e-14 -1 3.524958103184872016e-15 I I #
ptlist-eye-attrib $-1 $-1 $-1 $340 #
vertex $-1 $340 $348 #
ellipse-curve $-1 117.4749999999999801 1.172395514004165307e-12 -17.99999999999999645 1 1.04744500833281462e-14 -1.232595164407830946e-29 1.064204128466139714e-13 -10.16000000000000014 3.581357432835829791e-14 1 I I #
point $-1 117.4750000000000938 -10.1599999999988313 -17.99999999999996092 #
End-of-ACIS-data 