105 349 1 0         
body $-1 $1 $-1 $2 #
lump $-1 $-1 $3 $0 #
transform $-1 1 0 0 0 1 0 0 0 1 0 0 0 1 1 0 0 #
shell $-1 $-1 $-1 $4 $1 #
face $5 $6 $7 $3 $-1 $8 forward single #
bodyfaceidentifier-eye-attrib $-1 $-1 $-1 $4 1 #
face $9 $10 $11 $3 $-1 $12 forward single #
loop $-1 $-1 $13 $4 #
torus-surface $-1 -41.156457299959811 -3.907985046680551e-013 -8.9457054670952942 -0.99563422605928809 -1.1396662956871225e-014 -0.093340708693058411 -37.625403645833302 46.515403645833302 1.1093210192396254e-014 -1 3.7698793739493483e-015 0 #
bodyfaceidentifier-eye-attrib $-1 $-1 $-1 $6 2 #
face $14 $15 $16 $3 $-1 $17 forward single #
loop $-1 $18 $19 $6 #
cone-surface $-1 -66.675000000000011 -7.602807272633072e-013 -17.999999999999996 1 1.0474450083328146e-014 -1.2325951644078309e-029 8.314094753641716e-014 -7.9375 2.7979354944029922e-014 1 0.184288535050185 0.98287218693432199 0 #
coedge $-1 $20 $21 $22 $23 1 $7 $-1 #
bodyfaceidentifier-eye-attrib $-1 $-1 $-1 $10 3 #
face $24 $25 $26 $3 $-1 $27 forward single #
loop $-1 $-1 $28 $10 #
plane-surface $-1 111.12500000000053 -50.799999999998995 -17.999999999999808 -0.316227766016828 -0.9486832980505171 3.3440688788193116e-015 2.4614665131755338e-029 -3.524958103184872e-015 -1 0 #
loop $-1 $-1 $29 $6 #
coedge $-1 $19 $19 $30 $31 0 $11 $-1 #
coedge $-1 $32 $13 $33 $34 1 $7 $-1 #
coedge $-1 $13 $32 $35 $36 1 $7 $-1 #
coedge $-1 $35 $37 $13 $23 0 $38 $-1 #
edge $39 $40 $41 $22 $42 0 #
bodyfaceidentifier-eye-attrib $-1 $-1 $-1 $15 4 #
face $43 $44 $45 $3 $-1 $46 reversed single #
loop $-1 $-1 $47 $15 #
plane-surface $-1 -41.27500000000002 -4.9737991503207013e-013 -17.999999999999996 -0.31622776601684788 0.94868329805051044 -3.3440688788193037e-015 -2.4614665131755338e-029 3.524958103184872e-015 1 0 #
coedge $-1 $48 $49 $50 $51 1 $16 $-1 #
coedge $-1 $33 $52 $32 $53 0 $18 $-1 #
coedge $-1 $30 $30 $19 $31 1 $54 $-1 #
edge $55 $56 $56 $19 $57 1 #
coedge $-1 $21 $20 $29 $53 1 $7 $-1 #
coedge $-1 $52 $29 $20 $34 0 $18 $-1 #
edge $58 $59 $40 $33 $60 0 #
coedge $-1 $37 $22 $21 $36 0 $38 $-1 #
edge $61 $41 $62 $35 $63 0 #
coedge $-1 $22 $35 $52 $64 0 $38 $-1 #
loop $-1 $65 $35 $66 #
ptlist-eye-attrib $-1 $-1 $-1 $23 #
vertex $-1 $64 $67 #
vertex $-1 $23 $68 #
intcurve-curve $-1 0 { surfintcur nubs 3 open 22 
	-0.28340607646561 3 0 3 1.9636034453692599 2 3.9272068907385198 2 5.1666087034569799 2 
	6.4060105161754404 2 7.6470608250622103 2 8.88811113394895 2 10.941795294299499 2 12.995479454650001 2 
	15.0491636150006 2 17.102847775351101 2 19.043608895553099 2 20.9843700157552 2 22.925131135957201 2 
	23.8955116960582 2 24.865892256159199 2 25.313129328332799 2 25.536082583396201 2 25.759035838459599 2 
	25.9257773541262 2 26.092518869792801 3 
	-41.275000000000105 8.8898144205218657 -8.9302039952007277 
	-41.179417601058702 8.8900802339348743 -8.9304645337961901 
	-41.084371114586602 8.8900375612271603 -8.9304227008951074 
	-40.989903610544204 8.8896991960777072 -8.9300910587125379 
	-40.335377360696398 8.8873548039548282 -8.9277932472455106 
	-39.616072820512201 8.8695535418184335 -8.9102561754082075 
	-38.180717906618909 8.7988286660428514 -8.8417776322486787 
	-37.464657456831901 8.7459425883512267 -8.7910087090371967 
	-36.4057880808801 8.6461361233309191 -8.697466376825588 
	-35.956173431830905 8.5979282045533338 -8.6527453121210343 
	-35.059815988740795 8.4877819173688849 -8.5526142382822954 
	-34.613066908732094 8.4258380654097422 -8.497266542022345 
	-33.80261626118839 8.3026579385491104 -8.3894547895403448 
	-33.358068138689404 8.2291214322347273 -8.326191418106923 
	-32.472730759865399 8.0681423056477115 -8.1915295915419755 
	-32.031932726598299 7.9806870535239298 -8.1202039514320354 
	-30.97201364994568 7.7554279316767918 -7.941397994057624 
	-30.283510062993088 7.5928933597641191 -7.8171905632541225 
	-28.886400654238699 7.2237509841184746 -7.5520787083671195 
	-28.177790958571379 7.017102781020192 -7.4112509583847199 
	-26.773757337351185 6.5657205133323444 -7.1255966320923179 
	-26.078232573169672 6.3209415951853245 -6.980853697833318 
	-24.731138698214778 5.8059263637742902 -6.7010130131583168 
	-24.079545201806667 5.535702824108327 -6.5660091502143167 
	-22.882971164588966 5.0041995468478362 -6.3240204781218168 
	-22.279246412207257 4.7189249706741165 -6.2046556373805117 
	-21.061343715991455 4.1014150829462181 -5.9759908588299098 
	-20.447096906341343 3.7692804409772691 -5.866785878242009 
	-19.24094901804655 3.0684650647482385 -5.6708913293140064 
	-18.649448665315035 2.700945361773428 -5.5844028647951056 
	-17.805343783333029 2.1256499589365276 -5.4776338221187046 
	-17.531282831193934 1.9299829636404695 -5.445847473438203 
	-17.004986985077025 1.5259518620932155 -5.3903588046231015 
	-16.751994919466725 1.3185787914694274 -5.3666290216279009 
	-16.412784999387313 0.99081897049331502 -5.3382840824424989 
	-16.289847456883123 0.86121244058838187 -5.3286993109148995 
	-16.150264142701218 0.6870920112694634 -5.3184673067438979 
	-16.101743398809219 0.62142801389704516 -5.3150265296133981 
	-16.014714957999217 0.48408500307981228 -5.309043123514698 
	-15.976417783113121 0.41227237837752284 -5.3065079693901964 
	-15.926528747237612 0.29238031392073083 -5.3032623372550987 
	-15.907156292463114 0.2345032074602571 -5.302027227874099 
	-15.881312712883414 0.11612060990862716 -5.3003929083142971 
	-15.875000000000014 0.055580505222096122 -5.2999999999999972 
	-15.875000000000014 -9.9475983006414026e-014 -5.2999999999999972 
	0.001 
	torus -41.156457299959811 -3.907985046680551e-013 -8.9457054670952942 -0.99563422605928809 -1.1396662956871225e-014 -0.093340708693058411 -37.625403645833302 46.515403645833302 1.1093210192396254e-014 -1 3.7698793739493483e-015 0 
	cone 34.924999999999969 3.0553337637684308e-013 -17.999999999999996 1 1.0474450083328146e-014 -1.2325951644078309e-029 1.3302551605826745e-013 -12.699999999999999 4.4766967910447871e-014 1 0 1 0 
	nullbs 
	nullbs 
	} #
bodyfaceidentifier-eye-attrib $-1 $-1 $-1 $25 5 #
face $69 $70 $71 $3 $-1 $46 reversed single #
loop $-1 $-1 $72 $25 #
plane-surface $-1 60.325000000000003 5.5422333389287814e-013 -17.999999999999996 -2.653872685048119e-029 3.7086490562582294e-015 1 1 1.0474450083328146e-014 -1.2325951644078309e-029 0 #
coedge $-1 $73 $74 $75 $76 1 $26 $-1 #
coedge $-1 $77 $28 $78 $79 0 $16 $-1 #
coedge $-1 $28 $77 $80 $81 0 $16 $-1 #
coedge $-1 $82 $83 $28 $51 0 $65 $-1 #
edge $84 $85 $86 $50 $87 0 #
coedge $-1 $29 $33 $37 $64 1 $18 $-1 #
edge $88 $62 $59 $29 $89 0 #
loop $-1 $-1 $30 $90 #
ptlist-eye-attrib $-1 $-1 $-1 $31 #
vertex $-1 $31 $91 #
ellipse-curve $-1 -92.075000000000017 -1.0231815394945443e-012 -17.999999999999996 -1 -1.0474450083328146e-014 1.2325951644078309e-029 3.3256379014566863e-014 -3.1749999999999998 1.1191741977611968e-014 1 #
ptlist-eye-attrib $-1 $-1 $-1 $34 #
vertex $-1 $53 $92 #
intcurve-curve $-1 0 { surfintcur nubs 3 open 19 
	-11.381612821875599 3 -11.2612500068347 2 -11.0975553686855 2 -10.891292751396 2 -10.685030134106601 2 
	-10.305746406227399 2 -9.6816678944108805 2 -9.0575893825943901 2 -7.8094323589613701 2 -5.31311831169538 2 
	-2.65655915584769 2 0 3 2.7306522232827302 2 5.4613044465654497 2 8.1919566698481692 2 
	10.922608893130899 2 12.808872958727401 2 14.6951370243239 2 14.8613292010947 3 
	-66.675000000000026 -6.7501559897209518e-013 -10.062500000000007 
	-66.675000000000026 0.041798737452346302 -10.062500000000007 
	-66.671797967047596 0.085562104123731331 -10.062242838928356 
	-66.656446344590719 0.18770391601020719 -10.061021845728099 
	-66.641393776780092 0.24568722782015584 -10.059831632577616 
	-66.601757555909643 0.36242267469044265 -10.056765331808837 
	-66.571052336525241 0.43119280441921859 -10.054429361526736 
	-66.499212654272455 0.56333957414351943 -10.049200648437569 
	-66.45827516551131 0.62682413895480238 -10.04633164206308 
	-66.345596258318395 0.78601789685683343 -10.038790464657957 
	-66.247906383720903 0.90193886922015309 -10.032790467583339 
	-66.020453579732859 1.1468272220460136 -10.020362749811753 
	-65.866255300621859 1.291021639267349 -10.013365499927559 
	-65.542830143623092 1.5722715817142472 -10.002138175870414 
	-65.373377335321493 1.7090661340673847 -9.9978816427734429 
	-64.84913234587151 2.112020047103158 -9.9898071336473748 
	-64.478733270487467 2.3707342839718351 -9.9907926972724859 
	-63.342294182338712 3.1175289838446361 -10.011053494846749 
	-62.551434985021658 3.5737067907156117 -10.047703763797358 
	-61.0362488411036 4.3781762653355045 -10.132987975256842 
	-60.160885721468709 4.7999040865495175 -10.191650318957933 
	-58.378394411523217 5.5711529756977924 -10.305490218301866 
	-57.471336970299056 5.9210494720859401 -10.359227203052846 
	-56.63671187068848 6.2145130845397034 -10.396979333101079 
	-55.778808564133982 6.5161615774917436 -10.435784393256782 
	-54.869344986521384 6.804557790853643 -10.464678087502612 
	-52.99281518898529 7.3335475591967878 -10.478746853328062 
	-52.025774694522696 7.574240231083273 -10.463624674552953 
	-50.082402154698798 7.9961976078910482 -10.374651149721416 
	-49.105777862919794 8.1775783421046526 -10.300669587586654 
	-47.191914028413706 8.4765558697166625 -10.094922521681827 
	-46.254662633161502 8.5941254562558171 -9.9632277423715863 
	-44.744400427571208 8.7412694593666984 -9.706533710725445 
	-44.067148154014305 8.7941082672556306 -9.5776299301510193 
	-42.717559057754698 8.8662283011973813 -9.2885621402266878 
	-42.045199617281909 8.8853998376678973 -9.1284763773879689 
	-41.382602911116308 8.889481591514425 -8.9581443078528764 
	-41.328849797543413 8.8897034201281286 -8.9442333137688479 
	-41.275000000000105 8.8898144205218657 -8.9302039952007277 
	0.001 
	torus -41.156457299959811 -3.907985046680551e-013 -8.9457054670952942 -0.99563422605928809 -1.1396662956871225e-014 -0.093340708693058411 -37.625403645833302 46.515403645833302 1.1093210192396254e-014 -1 3.7698793739493483e-015 0 
	cone -66.675000000000011 -7.602807272633072e-013 -17.999999999999996 1 1.0474450083328146e-014 -1.2325951644078309e-029 8.314094753641716e-014 -7.9375 2.7979354944029922e-014 1 0.184288535050185 0.98287218693432199 0 
	nullbs 
	nullbs 
	} #
ptlist-eye-attrib $-1 $-1 $-1 $36 #
vertex $-1 $36 $93 #
intcurve-curve $-1 0 { surfintcur nubs 3 open 22 
	26.092518869792801 3 26.259260385459299 2 26.4260019011259 2 26.648955156189398 2 26.8719084112528 2 
	27.3191454834264 2 28.289526043527601 2 29.2599066036287 2 31.200667723831099 2 33.141428844033399 2 
	35.082189964235702 2 37.1358741245866 2 39.189558284937398 2 41.243242445288203 2 43.296926605639001 2 
	44.537976914524599 2 45.779027223410203 2 47.018429036128602 2 48.2578308488471 2 49.238249428248103 2 
	50.2186680076492 2 52.513842310696603 3 
	-15.875000000000014 -9.9475983006414026e-014 -5.2999999999999972 
	-15.875000000000014 -0.055580505222287968 -5.2999999999999972 
	-15.881312712883414 -0.1161206099088119 -5.3003929083141941 
	-15.907156292463114 -0.23450320746044895 -5.3020272278739959 
	-15.926528747237612 -0.29238031392092267 -5.3032623372550951 
	-15.976417783113106 -0.4122723783777289 -5.3065079693901964 
	-16.014714957999203 -0.48408500308002544 -5.3090431235146944 
	-16.101743398809305 -0.62142801389727254 -5.3150265296133945 
	-16.150264142701204 -0.68709201126969077 -5.3184673067438943 
	-16.289847456883095 -0.86121244058862345 -5.3286993109148924 
	-16.412784999387398 -0.99081897049355661 -5.3382840824424918 
	-16.751994919466796 -1.3185787914697116 -5.3666290216277908 
	-17.004986985077096 -1.5259518620935353 -5.3903588046230908 
	-17.53128283119419 -1.9299829636408532 -5.4458474734381888 
	-17.805343783333299 -2.1256499589369255 -5.4776338221186904 
	-18.649448665315376 -2.7009453617739112 -5.5844028647950879 
	-19.240949018046976 -3.0684650647487786 -5.6708913293139851 
	-20.447096906341969 -3.7692804409779015 -5.8667858782420836 
	-21.061343715992066 -4.1014150829469216 -5.9759908588299808 
	-22.279246412208167 -4.7189249706749052 -6.2046556373805828 
	-22.882971164589961 -5.0041995468486746 -6.3240204781218807 
	-24.079545201807846 -5.5357028241092223 -6.5660091502143771 
	-24.731138698215958 -5.805926363775221 -6.7010130131584731 
	-26.07823257317115 -6.3209415951863051 -6.9808536978334743 
	-26.773757337352649 -6.5657205133333676 -7.1255966320925737 
	-28.177790958573141 -7.0171027810212436 -7.4112509583848691 
	-28.886400654240532 -7.2237509841195262 -7.5520787083673717 
	-30.283510062995134 -7.5928933597651849 -7.8171905632543712 
	-30.97201364994784 -7.7554279316778647 -7.9413979940577697 
	-32.031932726600118 -7.9806870535249104 -8.1202039514321775 
	-32.47273075986682 -8.0681423056486068 -8.1915295915420501 
	-33.35806813869003 -8.2291214322354591 -8.3261914181068484 
	-33.802616261188618 -8.3026579385497712 -8.3894547895402098 
	-34.613066908731923 -8.4258380654103675 -8.4972665420221567 
	-35.059815988740624 -8.4877819173695386 -8.5526142382821071 
	-35.95617343183072 -8.5979282045539946 -8.652745312120846 
	-36.40578808087993 -8.6461361233315941 -8.6974663768253855 
	-37.139630096091622 -8.7153062958619287 -8.7622952359243342 
	-37.496708438035924 -8.7453160411160908 -8.790727075828535 
	-38.212019589211323 -8.7966679709550704 -8.8397656656663486 
	-38.570254269479122 -8.8180076138838928 -8.8603477817629042 
	-39.659554896492622 -8.8717306560481362 -8.9123633137442368 
	-40.45863697487232 -8.8920847155180454 -8.9324292383237847 
	-41.27499999999992 -8.8898144205226544 -8.9302039952005359 
	0.001 
	torus -41.156457299959811 -3.907985046680551e-013 -8.9457054670952942 -0.99563422605928809 -1.1396662956871225e-014 -0.093340708693058411 -37.625403645833302 46.515403645833302 1.1093210192396254e-014 -1 3.7698793739493483e-015 0 
	cone 34.924999999999969 3.0553337637684308e-013 -17.999999999999996 1 1.0474450083328146e-014 -1.2325951644078309e-029 1.3302551605826745e-013 -12.699999999999999 4.4766967910447871e-014 1 0 1 0 
	nullbs 
	nullbs 
	} #
edge $94 $62 $40 $52 $95 0 #
loop $-1 $-1 $83 $66 #
face $96 $97 $38 $3 $-1 $98 forward single #
point $-1 -41.275000000000105 8.8898144205218657 -8.9302039952007277 #
point $-1 -15.875000000000014 -9.9475983006414026e-014 -5.2999999999999972 #
bodyfaceidentifier-eye-attrib $-1 $-1 $-1 $44 6 #
face $99 $100 $101 $3 $-1 $102 forward single #
loop $-1 $-1 $103 $44 #
coedge $-1 $104 $105 $106 $107 1 $45 $-1 #
coedge $-1 $108 $47 $109 $110 0 $26 $-1 #
coedge $-1 $47 $108 $104 $111 0 $26 $-1 #
coedge $-1 $106 $112 $47 $76 0 $65 $-1 #
edge $113 $114 $115 $75 $116 0 #
coedge $-1 $49 $48 $117 $118 0 $16 $-1 #
coedge $-1 $103 $119 $48 $79 1 $71 $-1 #
edge $120 $85 $121 $48 $122 0 #
coedge $-1 $123 $124 $49 $81 1 $125 $-1 #
edge $126 $127 $86 $49 $128 0 #
coedge $-1 $129 $50 $124 $130 0 $65 $-1 #
coedge $-1 $50 $131 $103 $132 0 $65 $-1 #
ptlist-eye-attrib $-1 $-1 $-1 $51 #
vertex $-1 $51 $133 #
vertex $-1 $51 $134 #
ellipse-curve $-1 -41.275000000000304 -4.9737991503207013e-013 -17.999999999999996 -0.316227766016828 -0.9486832980505171 3.3440688788193116e-015 38.100000000000136 -12.6999999999996 4.4766967910447404e-014 0.316227766016838 #
ptlist-eye-attrib $-1 $-1 $-1 $53 #
intcurve-curve $-1 0 { surfintcur nubs 3 open 21 
	-37.629000363039303 3 -35.743474272470799 2 -33.686968454396997 2 -32.327470146810597 2 -30.967971839224301 2 
	-28.248975224051499 2 -26.247830698329601 2 -24.2466861726076 2 -22.245541646885599 2 -20.244397121163601 2 
	-18.367079023159 2 -16.4897609251543 2 -14.6124428271497 2 -13.673783778147399 2 -12.735124729145101 2 
	-12.239919646319301 2 -12.0058701843439 2 -11.7718207223686 2 -11.598382683676199 2 -11.424944644983899 2 
	-11.381612821875599 3 
	-41.27499999999992 -8.8898144205226544 -8.9302039952005359 
	-41.941155657170114 -8.8884412762656808 -9.1037554356283543 
	-42.609809814685121 -8.8698989688079948 -9.2634813580214654 
	-43.984629440503326 -8.8004161880910132 -9.5617756225042463 
	-44.688711810214215 -8.7466951702509235 -9.697068509481916 
	-45.806137728797921 -8.6378249871584813 -9.8869935192222158 
	-46.273264945911222 -8.5857886231680567 -9.9595807887125645 
	-47.229656874842718 -8.4642730245168352 -10.092178254775416 
	-47.718923040937725 -8.3947912541188714 -10.152175637879967 
	-49.185733628796129 -8.16385342897496 -10.307954305827238 
	-50.162331505282921 -7.9787108844707291 -10.378186114883306 
	-51.698387370889435 -7.6454208685255836 -10.448726628878099 
	-52.37898635288964 -7.4839394654952756 -10.466830588092691 
	-53.763398150051238 -7.1215442917388856 -10.476929114270771 
	-54.467201427354738 -6.9205949231861084 -10.468953713059271 
	-55.863546840082648 -6.4844531191002872 -10.431854325261902 
	-56.556177435831344 -6.2491886404795309 -10.402831473625813 
	-57.897748214124 -5.7548881239441627 -10.334095230589817 
	-58.546686209063822 -5.4958253800505261 -10.294531275867826 
	-59.732805432631338 -4.9870765693722134 -10.219154562917197 
	-60.328565188850483 -4.7146698228437884 -10.17959522470408 
	-61.527830939120875 -4.1226658876598563 -10.104672952621922 
	-62.131373653277869 -3.8031253658076807 -10.069450113825084 
	-63.312501410905668 -3.1253551711021288 -10.015920215631585 
	-63.889780472747553 -2.7680620613382416 -9.9978520683076297 
	-64.710338616383964 -2.2067571705193814 -9.990621192288188 
	-64.976217654032808 -2.0155019926202726 -9.9914871331947488 
	-65.486181481277782 -1.6210383821124168 -9.9999342538633513 
	-65.730777343883418 -1.4184925237980437 -10.007581321765091 
	-66.07580045454398 -1.088107176333466 -10.023242761178871 
	-66.212709354832995 -0.94514813437547218 -10.030669550064662 
	-66.365692490702145 -0.75647752063496654 -10.040146000214385 
	-66.417176167477109 -0.6879380586983288 -10.043526840743514 
	-66.510453103673214 -0.54485733195608077 -10.049979578311454 
	-66.552049746442052 -0.47018690832113919 -10.053027560190856 
	-66.607412062057236 -0.34622237585543303 -10.057195446718374 
	-66.629478970988458 -0.28668819127544509 -10.058904088928845 
	-66.661285066427851 -0.16459911555948992 -10.061400472676027 
	-66.670857022813351 -0.10200031893643313 -10.062168580665816 
	-66.674599825464952 -0.029841320723697606 -10.062467956366746 
	-66.675000000000011 -0.015047965577501543 -10.062500000000007 
	-66.675000000000026 -6.7501559897209518e-013 -10.062500000000007 
	0.001 
	torus -41.156457299959811 -3.907985046680551e-013 -8.9457054670952942 -0.99563422605928809 -1.1396662956871225e-014 -0.093340708693058411 -37.625403645833302 46.515403645833302 1.1093210192396254e-014 -1 3.7698793739493483e-015 0 
	cone -66.675000000000011 -7.602807272633072e-013 -17.999999999999996 1 1.0474450083328146e-014 -1.2325951644078309e-029 8.314094753641716e-014 -7.9375 2.7979354944029922e-014 1 0.184288535050185 0.98287218693432199 0 
	nullbs 
	nullbs 
	} #
face $135 $136 $137 $3 $-1 $138 forward single #
point $-1 -92.074999999999974 -3.1750000000010274 -17.999999999999986 #
point $-1 -66.675000000000026 -6.7501559897209518e-013 -10.062500000000007 #
point $-1 -41.27499999999992 -8.8898144205226544 -8.9302039952005359 #
ptlist-eye-attrib $-1 $-1 $-1 $64 #
ellipse-curve $-1 -41.27500000000002 -4.9737991503207013e-013 -17.999999999999996 1 1.0474450083328146e-014 -1.2325951644078309e-029 1.3302551605826745e-013 -12.699999999999999 4.4766967910447871e-014 1 #
bodyfaceidentifier-eye-attrib $-1 $-1 $-1 $66 11 #
face $139 $140 $141 $3 $-1 $142 reversed single #
cone-surface $-1 34.924999999999969 3.0553337637684308e-013 -17.999999999999996 1 1.0474450083328146e-014 -1.2325951644078309e-029 1.3302551605826745e-013 -12.699999999999999 4.4766967910447871e-014 1 0 1 0 #
bodyfaceidentifier-eye-attrib $-1 $-1 $-1 $70 7 #
face $143 $144 $145 $3 $-1 $146 forward single #
loop $-1 $-1 $147 $70 #
plane-surface $-1 111.12500000000053 -50.799999999998988 -16.729999999999809 -2.4614665131755338e-029 3.524958103184872e-015 1 1 1.0474450083328146e-014 -1.2325951644078309e-029 0 #
coedge $-1 $119 $78 $83 $132 1 $71 $-1 #
coedge $-1 $105 $72 $74 $111 1 $45 $-1 #
coedge $-1 $72 $104 $148 $149 1 $45 $-1 #
coedge $-1 $131 $75 $72 $107 0 $65 $-1 #
edge $150 $115 $151 $106 $152 0 #
coedge $-1 $74 $73 $153 $154 1 $26 $-1 #
coedge $-1 $147 $155 $73 $110 1 $101 $-1 #
edge $156 $114 $157 $73 $158 0 #
edge $159 $160 $115 $74 $161 0 #
coedge $-1 $75 $162 $147 $163 0 $65 $-1 #
ptlist-eye-attrib $-1 $-1 $-1 $76 #
vertex $-1 $76 $164 #
vertex $-1 $76 $165 #
ellipse-curve $-1 -41.27500000000002 -4.9737991503207013e-013 -17.999999999999996 -0.31622776601684788 0.94868329805051044 -3.3440688788193037e-015 -38.099999999999866 -12.700000000000399 4.4766967910448338e-014 0.316227766016838 #
coedge $-1 $166 $167 $77 $118 1 $168 $-1 #
edge $169 $121 $127 $77 $170 0 #
coedge $-1 $78 $103 $166 $171 1 $71 $-1 #
ptlist-eye-attrib $-1 $-1 $-1 $79 #
vertex $-1 $171 $172 #
straight-curve $-1 -41.27500000000002 -4.9737991503207013e-013 -17.999999999999996 0.94868329805051732 -0.31622776601682806 1.1727778060009825e-015 #
coedge $-1 $124 $80 $167 $173 1 $125 $-1 #
coedge $-1 $80 $123 $82 $130 1 $125 $-1 #
loop $-1 $-1 $124 $174 #
ptlist-eye-attrib $-1 $-1 $-1 $81 #
vertex $-1 $118 $175 #
straight-curve $-1 -41.27500000000002 -4.9027448767446913e-013 -16.729999999999997 -0.94868329805051732 0.31622776601682806 -1.1727778060009825e-015 #
coedge $-1 $176 $82 $177 $178 1 $65 $-1 #
edge $179 $86 $180 $82 $181 0 #
coedge $-1 $83 $106 $182 $183 1 $65 $-1 #
edge $184 $185 $85 $83 $186 0 #
point $-1 -3.1749999999998835 -12.700000000000095 -17.99999999999995 #
point $-1 -3.3659786462376786 -12.636340451254192 -16.729999999999951 #
bodyfaceidentifier-eye-attrib $-1 $-1 $-1 $90 19 #
face $187 $188 $189 $3 $-1 $190 forward single #
loop $-1 $54 $191 $90 #
sphere-surface $-1 -92.075000000000017 -1.0231815394945443e-012 -17.999999999999996 3.1749999999999998 1.0474450083328146e-014 -1 3.524958103184872e-015 -1 -1.0474450083328146e-014 1.2325951644078309e-029 0 #
bodyfaceidentifier-eye-attrib $-1 $-1 $-1 $97 12 #
face $192 $193 $194 $3 $-1 $195 forward single #
loop $-1 $-1 $196 $97 #
plane-surface $-1 96.837499999999991 0.38100000000104473 7.1836395259400021 1.0474450083328146e-014 -1 3.524958103184872e-015 1 1.0474450083328146e-014 -1.2325951644078309e-029 0 #
bodyfaceidentifier-eye-attrib $-1 $-1 $-1 $100 8 #
face $197 $174 $168 $3 $-1 $146 forward single #
loop $-1 $-1 $198 $100 #
plane-surface $-1 111.12499999999945 50.800000000001098 -18.000000000000185 1 1.0474450083328146e-014 -1.2325951644078309e-029 2.653872685048119e-029 -3.7086490562582294e-015 -1 0 #
coedge $-1 $155 $109 $112 $163 1 $101 $-1 #
coedge $-1 $153 $198 $105 $149 0 $145 $-1 #
edge $199 $151 $160 $148 $200 0 #
ptlist-eye-attrib $-1 $-1 $-1 $107 #
vertex $-1 $183 $201 #
straight-curve $-1 34.924999999999855 12.700000000000301 -18.000000000000043 1 1.0474450083328146e-014 -1.2325951644078309e-029 #
coedge $-1 $202 $148 $108 $154 0 $145 $-1 #
edge $203 $160 $157 $153 $204 0 #
coedge $-1 $109 $147 $202 $205 1 $101 $-1 #
ptlist-eye-attrib $-1 $-1 $-1 $110 #
vertex $-1 $154 $206 #
straight-curve $-1 111.12499999999945 50.800000000001113 -16.730000000000185 0.94868329805051066 0.31622776601684793 -1.1727778060010058e-015 #
ptlist-eye-attrib $-1 $-1 $-1 $111 #
vertex $-1 $149 $207 #
straight-curve $-1 111.12499999999945 50.800000000001098 -18.000000000000185 -0.94868329805051066 -0.31622776601684793 1.1727778060010058e-015 #
coedge $-1 $112 $208 $209 $210 1 $65 $-1 #
edge $211 $212 $114 $112 $213 0 #
point $-1 -3.3659786462379486 12.636340451254007 -16.73000000000004 #
point $-1 -3.1750000000001393 12.699999999999903 -18.000000000000043 #
coedge $-1 $214 $117 $119 $171 0 $168 $-1 #
coedge $-1 $117 $214 $123 $173 0 $168 $-1 #
loop $-1 $-1 $214 $144 #
ptlist-eye-attrib $-1 $-1 $-1 $118 #
straight-curve $-1 111.12500000000053 -50.799999999998995 -17.999999999999808 -2.4614665131755338e-029 3.524958103184872e-015 1 #
edge $215 $121 $185 $166 $200 0 #
point $-1 111.12500000000053 -50.799999999998995 -17.999999999999808 #
edge $216 $180 $127 $167 $217 0 #
face $218 $66 $125 $3 $-1 $102 forward single #
point $-1 111.12500000000053 -50.799999999998988 -16.729999999999809 #
coedge $-1 $219 $129 $220 $221 0 $65 $-1 #
coedge $-1 $222 $223 $129 $178 0 $224 $-1 #
edge $225 $226 $180 $129 $227 0 #
ptlist-eye-attrib $-1 $-1 $-1 $130 #
vertex $-1 $178 $228 #
straight-curve $-1 34.925000000000111 -12.636340451253794 -16.72999999999994 1 1.0474450083328146e-014 -1.2325951644078309e-029 #
coedge $-1 $229 $222 $131 $183 0 $224 $-1 #
edge $230 $185 $151 $131 $227 0 #
ptlist-eye-attrib $-1 $-1 $-1 $132 #
vertex $-1 $231 $232 #
straight-curve $-1 34.925000000000111 -12.699999999999697 -17.99999999999995 -1 -1.0474450083328146e-014 1.2325951644078309e-029 #
bodyfaceidentifier-eye-attrib $-1 $-1 $-1 $136 20 #
face $233 $-1 $234 $3 $-1 $235 forward single #
loop $-1 $236 $237 $136 #
cone-surface $-1 -104.77500000000001 -1.1581846592889633e-012 -17.999999999999996 -1 -1.0474450083328146e-014 1.2325951644078309e-029 1.3302551605826747e-015 -0.127 4.4766967910447878e-016 1 0 1 0 #
coedge $-1 $191 $191 $238 $239 0 $137 $-1 #
bodyfaceidentifier-eye-attrib $-1 $-1 $-1 $140 13 #
face $240 $241 $242 $3 $-1 $243 forward single #
loop $-1 $-1 $244 $140 #
plane-surface $-1 60.325000000000003 0.38100000000056866 -17.999999999999996 -0.74977667939690995 -5.5210654787791956e-015 0.66169096339042099 1.0474450083328146e-014 -1 3.524958103184872e-015 0 #
coedge $-1 $245 $246 $208 $247 1 $141 $-1 #
bodyfaceidentifier-eye-attrib $-1 $-1 $-1 $144 9 #
coedge $-1 $148 $202 $229 $248 1 $145 $-1 #
ptlist-eye-attrib $-1 $-1 $-1 $149 #
straight-curve $-1 111.12500000000053 -50.799999999998995 -17.999999999999808 -1.0474450083328146e-014 1 -3.7086490562582278e-015 #
point $-1 111.12499999999984 12.700000000001104 -18.000000000000043 #
coedge $-1 $198 $153 $155 $205 0 $145 $-1 #
ptlist-eye-attrib $-1 $-1 $-1 $154 #
straight-curve $-1 111.12499999999945 50.800000000001098 -18.000000000000185 -2.4614665131755338e-029 3.524958103184872e-015 1 #
edge $249 $157 $212 $202 $217 0 #
point $-1 111.12499999999945 50.800000000001113 -16.730000000000164 #
point $-1 111.12499999999945 50.800000000001098 -18.000000000000185 #
coedge $-1 $162 $219 $196 $247 0 $65 $-1 #
coedge $-1 $223 $229 $162 $210 0 $224 $-1 #
edge $250 $212 $251 $162 $227 0 #
ptlist-eye-attrib $-1 $-1 $-1 $163 #
vertex $-1 $248 $252 #
straight-curve $-1 34.924999999999855 12.636340451254405 -16.730000000000032 -1 -1.0474450083328146e-014 1.2325951644078309e-029 #
coedge $-1 $167 $166 $222 $231 1 $168 $-1 #
ptlist-eye-attrib $-1 $-1 $-1 $171 #
ptlist-eye-attrib $-1 $-1 $-1 $173 #
straight-curve $-1 111.12500000000053 -50.799999999998988 -16.729999999999809 1.0474450083328146e-014 -1 3.7086490562582278e-015 #
bodyfaceidentifier-eye-attrib $-1 $-1 $-1 $174 10 #
coedge $-1 $208 $176 $244 $253 0 $65 $-1 #
coedge $-1 $254 $255 $176 $221 1 $256 $-1 #
edge $257 $226 $258 $176 $259 0 #
coedge $-1 $182 $177 $214 $231 0 $224 $-1 #
coedge $-1 $177 $209 $260 $261 0 $224 $-1 #
loop $-1 $-1 $177 $262 #
ptlist-eye-attrib $-1 $-1 $-1 $178 #
vertex $-1 $261 $263 #
ellipse-curve $-1 111.12500000000001 1.1013412404281553e-012 -17.999999999999996 1 1.0474450083328146e-014 -1.2325951644078309e-029 1.3302551605826745e-013 -12.699999999999999 4.4766967910447871e-014 1 #
point $-1 111.12500000000013 -12.636340451252991 -16.729999999999951 #
coedge $-1 $209 $182 $198 $248 0 $224 $-1 #
ptlist-eye-attrib $-1 $-1 $-1 $183 #
edge $264 $180 $185 $222 $227 0 #
point $-1 111.12500000000013 -12.699999999998902 -17.99999999999995 #
bodyfaceidentifier-eye-attrib $-1 $-1 $-1 $188 21 #
loop $-1 $-1 $265 $188 #
plane-surface $-1 -117.47500000000001 -1.2931877790833823e-012 -17.999999999999996 -1 -1.0474450083328146e-014 1.2325951644078309e-029 1.0474450083328146e-014 -1 3.524958103184872e-015 0 #
loop $-1 $-1 $238 $136 #
coedge $-1 $237 $237 $265 $266 1 $189 $-1 #
coedge $-1 $238 $238 $191 $239 1 $236 $-1 #
edge $267 $268 $268 $191 $269 0 #
bodyfaceidentifier-eye-attrib $-1 $-1 $-1 $193 14 #
face $270 $271 $272 $3 $-1 $273 forward single #
loop $-1 $-1 $274 $193 #
plane-surface $-1 104.77499999999999 0.38100000000121526 32.367279051880004 -2.4614665131755338e-029 3.524958103184872e-015 1 1.0474450083328146e-014 -1 3.524958103184872e-015 0 #
coedge $-1 $275 $276 $219 $253 1 $194 $-1 #
coedge $-1 $277 $196 $276 $278 1 $141 $-1 #
coedge $-1 $196 $277 $279 $280 1 $141 $-1 #
edge $281 $282 $251 $208 $283 0 #
edge $284 $151 $212 $229 $227 0 #
ptlist-eye-attrib $-1 $-1 $-1 $205 #
ptlist-eye-attrib $-1 $-1 $-1 $210 #
vertex $-1 $210 $285 #
point $-1 111.12499999999984 12.636340451255208 -16.73000000000004 #
edge $286 $258 $282 $219 $287 0 #
coedge $-1 $288 $220 $289 $290 1 $256 $-1 #
coedge $-1 $220 $288 $275 $291 1 $256 $-1 #
loop $-1 $-1 $220 $271 #
ptlist-eye-attrib $-1 $-1 $-1 $221 #
vertex $-1 $253 $292 #
straight-curve $-1 34.924999999999969 -0.38099999999965206 -5.3057162864539933 -1 -1.0474450083328146e-014 1.2325951644078309e-029 #
coedge $-1 $279 $289 $223 $261 1 $272 $-1 #
edge $293 $251 $226 $223 $227 0 #
face $294 $295 $296 $3 $-1 $297 forward single #
point $-1 111.12500000000001 -0.38099999999885625 -5.3057162864539933 #
ptlist-eye-attrib $-1 $-1 $-1 $231 #
coedge $-1 $265 $265 $237 $266 0 $234 $-1 #
edge $298 $299 $299 $265 $300 0 #
ptlist-eye-attrib $-1 $-1 $-1 $239 #
vertex $-1 $239 $301 #
ellipse-curve $-1 -95.247458983186419 -1.0587086762825493e-012 -17.999999999999996 1 1.0474450083328146e-014 -1.2325951644078309e-029 1.7743443704327377e-015 -0.127 4.4766967910447878e-016 1 #
bodyfaceidentifier-eye-attrib $-1 $-1 $-1 $241 15 #
face $302 $262 $256 $3 $-1 $303 forward single #
loop $-1 $-1 $260 $241 #
plane-surface $-1 111.12500000000001 0.3810000000012792 32.367279051880004 1 1.0474450083328146e-014 -1.2325951644078309e-029 -1.0474450083328146e-014 1 -3.524958103184872e-015 0 #
coedge $-1 $304 $305 $288 $306 0 $242 $-1 #
coedge $-1 $307 $244 $255 $291 0 $194 $-1 #
coedge $-1 $244 $307 $245 $278 0 $194 $-1 #
coedge $-1 $246 $245 $308 $309 1 $141 $-1 #
edge $310 $311 $282 $276 $312 0 #
coedge $-1 $313 $260 $246 $280 0 $272 $-1 #
edge $314 $251 $315 $279 $316 0 #
ptlist-eye-attrib $-1 $-1 $-1 $247 #
vertex $-1 $253 $317 #
straight-curve $-1 34.924999999999969 0.38100000000034839 -5.3057162864540004 1 1.0474450083328146e-014 -1.2325951644078309e-029 #
ptlist-eye-attrib $-1 $-1 $-1 $248 #
point $-1 111.12500000000001 0.3810000000011442 -5.3057162864540004 #
ptlist-eye-attrib $-1 $-1 $-1 $253 #
ellipse-curve $-1 60.325000000000003 5.6843418860808015e-013 -17.999999999999996 -0.74977667939690995 -5.5210654787791956e-015 0.66169096339042099 -11.207970941184501 -1.6216430006927731e-013 -12.699999999999999 0.74977667939690995 #
coedge $-1 $255 $254 $274 $306 1 $256 $-1 #
coedge $-1 $260 $313 $254 $290 0 $272 $-1 #
edge $318 $319 $226 $289 $320 0 #
edge $321 $258 $322 $275 $323 0 #
point $-1 71.527926218942994 -0.38099999999926837 -5.3057162864539933 #
ptlist-eye-attrib $-1 $-1 $-1 $261 #
bodyfaceidentifier-eye-attrib $-1 $-1 $-1 $262 17 #
face $324 $90 $325 $3 $-1 $326 forward single #
loop $-1 $224 $327 $262 #
cone-surface $-1 114.29999999999997 1.1368683772161603e-012 -17.999999999999996 1 1.0474450083328146e-014 -1.2325951644078309e-029 1.197229644524407e-013 -11.43 4.0290271119403084e-014 1 -0.371390676354104 0.92847669088525897 0 #
ptlist-eye-attrib $-1 $-1 $-1 $266 #
vertex $-1 $266 $328 #
ellipse-curve $-1 -117.47500000000001 -1.2931877790833823e-012 -17.999999999999996 -1 -1.0474450083328146e-014 1.2325951644078309e-029 1.3302551605826747e-015 -0.127 4.4766967910447878e-016 1 #
point $-1 -95.247458983186419 -0.12700000000106115 -17.999999999999996 #
bodyfaceidentifier-eye-attrib $-1 $-1 $-1 $271 16 #
plane-surface $-1 104.77499999999999 -0.3809999999987852 32.367279051880004 1.0474450083328146e-014 -1 3.524958103184872e-015 1 1.0474450083328146e-014 -1.2325951644078309e-029 0 #
coedge $-1 $308 $274 $313 $329 1 $242 $-1 #
coedge $-1 $274 $308 $307 $330 0 $242 $-1 #
edge $331 $322 $319 $274 $332 0 #
coedge $-1 $276 $275 $305 $330 1 $194 $-1 #
coedge $-1 $305 $304 $277 $309 0 $242 $-1 #
edge $333 $315 $311 $308 $334 0 #
ptlist-eye-attrib $-1 $-1 $-1 $278 #
vertex $-1 $278 $335 #
straight-curve $-1 104.77499999999999 0.38100000000121526 32.367279051880004 -0.66169096339042099 -9.5737803482414601e-015 -0.74977667939690995 #
coedge $-1 $289 $279 $304 $329 0 $272 $-1 #
ptlist-eye-attrib $-1 $-1 $-1 $280 #
vertex $-1 $280 $336 #
straight-curve $-1 111.12500000000001 0.38100000000110157 -17.999999999999996 -2.4614665131755338e-029 3.524958103184872e-015 1 #
point $-1 71.527926218942994 0.38100000000073209 -5.3057162864540004 #
ptlist-eye-attrib $-1 $-1 $-1 $290 #
vertex $-1 $329 $337 #
straight-curve $-1 111.12500000000001 -0.38099999999889889 -17.999999999999996 2.4614665131755338e-029 -3.524958103184872e-015 -1 #
ptlist-eye-attrib $-1 $-1 $-1 $291 #
vertex $-1 $330 $338 #
straight-curve $-1 104.77499999999999 -0.3809999999987852 32.367279051880004 0.66169096339042099 9.5737803482414601e-015 0.74977667939690995 #
bodyfaceidentifier-eye-attrib $-1 $-1 $-1 $295 18 #
loop $-1 $-1 $339 $295 #
plane-surface $-1 117.47499999999998 1.1723955140041653e-012 -17.999999999999996 1 1.0474450083328146e-014 -1.2325951644078309e-029 1.0474450083328146e-014 -1 3.524958103184872e-015 0 #
coedge $-1 $327 $327 $339 $340 1 $296 $-1 #
point $-1 -117.47500000000001 -0.12700000000129563 -17.999999999999996 #
edge $341 $315 $319 $313 $342 0 #
edge $343 $311 $322 $305 $344 0 #
ptlist-eye-attrib $-1 $-1 $-1 $306 #
straight-curve $-1 111.12500000000001 -0.38099999999872125 32.367279051880004 1 1.0474450083328146e-014 -1.2325951644078309e-029 #
ptlist-eye-attrib $-1 $-1 $-1 $309 #
straight-curve $-1 111.12500000000001 0.3810000000012792 32.367279051880004 -1 -1.0474450083328146e-014 1.2325951644078309e-029 #
point $-1 104.77499999999999 0.38100000000121526 32.367279051880004 #
point $-1 111.12500000000001 0.3810000000012792 32.367279051880004 #
point $-1 111.12500000000001 -0.38099999999872125 32.367279051880004 #
point $-1 104.77499999999999 -0.3809999999987852 32.367279051880004 #
coedge $-1 $339 $339 $327 $340 0 $325 $-1 #
edge $345 $346 $346 $339 $347 0 #
ptlist-eye-attrib $-1 $-1 $-1 $329 #
straight-curve $-1 111.12500000000001 0.3810000000012792 32.367279051880004 1.0474450083328146e-014 -1 3.524958103184872e-015 #
ptlist-eye-attrib $-1 $-1 $-1 $330 #
straight-curve $-1 104.77499999999999 0.38100000000121526 32.367279051880004 1.0474450083328146e-014 -1 3.524958103184872e-015 #
ptlist-eye-attrib $-1 $-1 $-1 $340 #
vertex $-1 $340 $348 #
ellipse-curve $-1 117.47499999999998 1.1723955140041653e-012 -17.999999999999996 1 1.0474450083328146e-014 -1.2325951644078309e-029 1.0642041284661397e-013 -10.16 3.5813574328358298e-014 1 #
point $-1 117.47500000000009 -10.159999999998831 -17.999999999999961 #
