107 0 1 0           
body $-1 $1 $-1 $-1 #
lump $-1 $-1 $2 $0 #
shell $-1 $-1 $-1 $3 $-1 $1 #
face $-1 $4 $5 $2 $-1 $6 forward single #
face $-1 $7 $8 $2 $-1 $9 forward single #
loop $-1 $-1 $10 $3 #
torus-surface $-1 -41.156457299959811 -3.9048928974698931e-013 -8.945705467095296 -0.99563422605928809 -1.1396662956871225e-014 -0.093340708693058411 -37.625403645833302 46.515403645833302 1.1093210192396254e-014 -1 3.7698793739493483e-015 0 I I I I #
face $-1 $11 $12 $2 $-1 $13 forward single #
loop $-1 $14 $15 $4 #
cone-surface $-1 -66.675000000000011 -7.6002045233452773e-013 -17.999999999999996 1 1.0474450083328146e-014 -1.2325951644078309e-029 8.314094753641716e-014 -7.9375 2.7979354944029922e-014 1 I I 0.184288535050185 0.98287218693432199 0 I I I I #
coedge $-1 $16 $17 $18 $19 1 $5 $-1 #
face $-1 $20 $21 $2 $-1 $22 forward single #
loop $-1 $-1 $23 $7 #
plane-surface $-1 111.12500000000054 -50.799999999998995 -17.999999999999808 -0.316227766016828 -0.9486832980505171 3.3440688788193116e-015 2.4614665131755338e-029 -3.524958103184872e-015 -1 0 I I I I #
loop $-1 $-1 $24 $4 #
coedge $-1 $15 $15 $25 $26 0 $8 $-1 #
coedge $-1 $27 $10 $28 $29 1 $5 $-1 #
coedge $-1 $10 $27 $30 $31 1 $5 $-1 #
coedge $-1 $30 $32 $10 $19 0 $33 $-1 #
edge $-1 $34 $35 $18 $36 0 #
face $-1 $37 $38 $2 $-1 $39 reversed single #
loop $-1 $-1 $40 $11 #
plane-surface $-1 -41.275000000000013 -4.9396942021799278e-013 -17.999999999999996 -0.31622776601684788 0.94868329805051044 -3.3440688788193037e-015 -2.4614665131755338e-029 3.524958103184872e-015 1 0 I I I I #
coedge $-1 $41 $42 $43 $44 1 $12 $-1 #
coedge $-1 $28 $45 $27 $46 0 $14 $-1 #
coedge $-1 $25 $25 $15 $26 1 $47 $-1 #
edge $-1 $48 $48 $15 $49 1 #
coedge $-1 $17 $16 $24 $46 1 $5 $-1 #
coedge $-1 $45 $24 $16 $29 0 $14 $-1 #
edge $-1 $50 $34 $28 $51 0 #
coedge $-1 $32 $18 $17 $31 0 $33 $-1 #
edge $-1 $35 $52 $30 $53 0 #
coedge $-1 $18 $30 $45 $54 0 $33 $-1 #
loop $-1 $55 $30 $56 #
vertex $-1 $54 $57 #
vertex $-1 $19 $58 #
intcurve-curve $-1 0 { surfintcur nubs 3 open 22 
	-0.28340607646561 3 0 3 1.9636034453692599 2 3.9272068907385198 2 5.1666087034569799 2 
	6.4060105161754404 2 7.6470608250622103 2 8.88811113394895 2 10.941795294299499 2 12.995479454650001 2 
	15.0491636150006 2 17.102847775351101 2 19.043608895553099 2 20.9843700157552 2 22.925131135957201 2 
	23.8955116960582 2 24.865892256159199 2 25.313129328332799 2 25.536082583396201 2 25.759035838459599 2 
	25.9257773541262 2 26.092518869792801 3 
	-41.275000000000105 8.8898144205218674 -8.9302039952007277 
	-41.179417601058702 8.8900802339348779 -8.9304645337961883 
	-41.084371114586602 8.8900375612271603 -8.9304227008951091 
	-40.989903610544204 8.8896991960777108 -8.9300910587125379 
	-40.335377360696405 8.8873548039548265 -8.9277932472455088 
	-39.616072820512201 8.8695535418184352 -8.9102561754082092 
	-38.180717906618902 8.7988286660428496 -8.841777632248677 
	-37.464657456831901 8.7459425883512267 -8.7910087090371967 
	-36.4057880808801 8.6461361233309173 -8.6974663768255862 
	-35.956173431830905 8.5979282045533356 -8.652745312121036 
	-35.059815988740802 8.4877819173688831 -8.5526142382822972 
	-34.613066908732094 8.4258380654097387 -8.4972665420223468 
	-33.802616261188398 8.3026579385491086 -8.3894547895403448 
	-33.358068138689397 8.2291214322347308 -8.3261914181069248 
	-32.472730759865399 8.0681423056477115 -8.1915295915419755 
	-32.031932726598299 7.980687053523928 -8.1202039514320354 
	-30.972013649945687 7.7554279316767891 -7.9413979940576223 
	-30.283510062993088 7.5928933597641164 -7.8171905632541225 
	-28.886400654238692 7.2237509841184719 -7.5520787083671213 
	-28.177790958571386 7.0171027810201902 -7.4112509583847217 
	-26.773757337351185 6.5657205133323462 -7.1255966320923196 
	-26.078232573169679 6.3209415951853245 -6.9808536978333198 
	-24.731138698214778 5.8059263637742893 -6.7010130131583185 
	-24.079545201806667 5.5357028241083253 -6.5660091502143167 
	-22.882971164588959 5.0041995468478389 -6.324020478121815 
	-22.279246412207264 4.7189249706741165 -6.2046556373805117 
	-21.061343715991455 4.1014150829462199 -5.9759908588299115 
	-20.447096906341351 3.7692804409772669 -5.866785878242009 
	-19.24094901804655 3.0684650647482408 -5.6708913293140064 
	-18.649448665315042 2.7009453617734271 -5.5844028647951056 
	-17.805343783333029 2.1256499589365263 -5.4776338221187029 
	-17.531282831193934 1.9299829636404688 -5.445847473438203 
	-17.004986985077025 1.5259518620932147 -5.3903588046231015 
	-16.751994919466725 1.3185787914694276 -5.3666290216279009 
	-16.41278499938732 0.99081897049331402 -5.3382840824425006 
	-16.289847456883116 0.86121244058838042 -5.3286993109148995 
	-16.150264142701218 0.68709201126946295 -5.3184673067438979 
	-16.101743398809219 0.62142801389704638 -5.3150265296133981 
	-16.014714957999217 0.48408500307981139 -5.309043123514698 
	-15.976417783113121 0.41227237837752378 -5.3065079693901982 
	-15.926528747237612 0.29238031392073133 -5.3032623372550987 
	-15.907156292463114 0.23450320746025752 -5.3020272278740972 
	-15.881312712883414 0.11612060990862579 -5.3003929083142971 
	-15.875000000000014 0.055580505222095858 -5.2999999999999972 
	-15.875000000000014 -9.6219550610541597e-014 -5.2999999999999972 
	0.001 
	torus -41.156457299959811 -3.9048928974698931e-013 -8.945705467095296 -0.99563422605928809 -1.1396662956871225e-014 -0.093340708693058411 -37.625403645833302 46.515403645833302 1.1093210192396254e-014 -1 3.7698793739493483e-015 0 I I I I 
	cone 34.924999999999983 3.0418367613161188e-013 -17.999999999999996 1 1.0474450083328146e-014 -1.2325951644078309e-029 1.3302551605826745e-013 -12.699999999999999 4.4766967910447871e-014 1 I I 0 1 0 I I I I 
	nullbs 
	nullbs 
	F -0.28340607646561 F 26.092518869792801 } I I #
face $-1 $59 $60 $2 $-1 $39 reversed single #
loop $-1 $-1 $61 $20 #
plane-surface $-1 60.324999999999989 5.5365537774707776e-013 -17.999999999999996 -2.653872685048119e-029 3.7086490562582294e-015 1 1 1.0474450083328146e-014 -1.2325951644078309e-029 0 I I I I #
coedge $-1 $62 $63 $64 $65 1 $21 $-1 #
coedge $-1 $66 $23 $67 $68 0 $12 $-1 #
coedge $-1 $23 $66 $69 $70 0 $12 $-1 #
coedge $-1 $71 $72 $23 $44 0 $55 $-1 #
edge $-1 $73 $74 $43 $75 0 #
coedge $-1 $24 $28 $32 $54 1 $14 $-1 #
edge $-1 $52 $50 $24 $76 0 #
loop $-1 $-1 $25 $77 #
vertex $-1 $26 $78 #
ellipse-curve $-1 -92.075000000000017 -1.0260714844510627e-012 -17.999999999999996 -1 -1.0474450083328146e-014 1.2325951644078309e-029 3.3256379014566863e-014 -3.1749999999999998 1.1191741977611968e-014 1 I I #
vertex $-1 $46 $79 #
intcurve-curve $-1 0 { surfintcur nubs 3 open 19 
	-11.381612821875599 3 -11.2612500068347 2 -11.0975553686855 2 -10.891292751396 2 -10.685030134106601 2 
	-10.305746406227399 2 -9.6816678944108805 2 -9.0575893825943901 2 -7.8094323589613701 2 -5.31311831169538 2 
	-2.65655915584769 2 0 3 2.7306522232827302 2 5.4613044465654497 2 8.1919566698481692 2 
	10.922608893130899 2 12.808872958727401 2 14.6951370243239 2 14.8613292010947 3 
	-66.675000000000026 -6.7770867890270517e-013 -10.062500000000007 
	-66.675000000000026 0.041798737452346163 -10.062500000000007 
	-66.671797967047596 0.085562104123733093 -10.062242838928356 
	-66.656446344590719 0.18770391601020514 -10.061021845728098 
	-66.641393776780092 0.24568722782015631 -10.059831632577616 
	-66.601757555909643 0.36242267469044376 -10.056765331808837 
	-66.571052336525241 0.43119280441922114 -10.054429361526738 
	-66.499212654272455 0.56333957414352076 -10.049200648437569 
	-66.45827516551131 0.62682413895480327 -10.046331642063079 
	-66.345596258318395 0.78601789685683443 -10.038790464657959 
	-66.247906383720903 0.90193886922015243 -10.032790467583339 
	-66.020453579732859 1.1468272220460149 -10.020362749811751 
	-65.866255300621859 1.2910216392673466 -10.013365499927561 
	-65.542830143623092 1.5722715817142499 -10.002138175870412 
	-65.373377335321493 1.7090661340673816 -9.9978816427734412 
	-64.84913234587151 2.1120200471031576 -9.989807133647373 
	-64.478733270487467 2.3707342839718315 -9.9907926972724859 
	-63.342294182338712 3.1175289838446334 -10.011053494846747 
	-62.551434985021658 3.5737067907156113 -10.047703763797358 
	-61.0362488411036 4.3781762653355063 -10.132987975256842 
	-60.160885721468709 4.7999040865495157 -10.191650318957933 
	-58.378394411523217 5.5711529756977942 -10.305490218301866 
	-57.471336970299056 5.9210494720859428 -10.359227203052846 
	-56.63671187068848 6.2145130845397007 -10.396979333101079 
	-55.778808564133982 6.516161577491741 -10.43578439325678 
	-54.869344986521384 6.8045577908536394 -10.464678087502611 
	-52.99281518898529 7.3335475591967896 -10.478746853328062 
	-52.025774694522696 7.5742402310832704 -10.463624674552953 
	-50.082402154698798 7.9961976078910508 -10.374651149721416 
	-49.105777862919794 8.1775783421046508 -10.300669587586654 
	-47.191914028413699 8.4765558697166625 -10.094922521681827 
	-46.254662633161502 8.5941254562558207 -9.9632277423715863 
	-44.744400427571208 8.7412694593666966 -9.7065337107254468 
	-44.067148154014305 8.794108267255627 -9.5776299301510175 
	-42.717559057754698 8.8662283011973813 -9.2885621402266878 
	-42.045199617281902 8.8853998376678991 -9.1284763773879689 
	-41.382602911116308 8.8894815915144267 -8.9581443078528782 
	-41.328849797543405 8.8897034201281269 -8.9442333137688479 
	-41.275000000000105 8.8898144205218674 -8.9302039952007277 
	0.001 
	torus -41.156457299959811 -3.9048928974698931e-013 -8.945705467095296 -0.99563422605928809 -1.1396662956871225e-014 -0.093340708693058411 -37.625403645833302 46.515403645833302 1.1093210192396254e-014 -1 3.7698793739493483e-015 0 I I I I 
	cone -66.675000000000011 -7.6002045233452773e-013 -17.999999999999996 1 1.0474450083328146e-014 -1.2325951644078309e-029 8.314094753641716e-014 -7.9375 2.7979354944029922e-014 1 I I 0.184288535050185 0.98287218693432199 0 I I I I 
	nullbs 
	nullbs 
	F -11.381612821875599 F 14.8613292010947 } I I #
vertex $-1 $31 $80 #
intcurve-curve $-1 0 { surfintcur nubs 3 open 22 
	26.092518869792801 3 26.259260385459299 2 26.4260019011259 2 26.648955156189398 2 26.8719084112528 2 
	27.3191454834264 2 28.289526043527601 2 29.2599066036287 2 31.200667723831099 2 33.141428844033399 2 
	35.082189964235702 2 37.1358741245866 2 39.189558284937398 2 41.243242445288203 2 43.296926605639001 2 
	44.537976914524599 2 45.779027223410203 2 47.018429036128602 2 48.2578308488471 2 49.238249428248103 2 
	50.2186680076492 2 52.513842310696603 3 
	-15.875000000000014 -9.6219550610541597e-014 -5.2999999999999972 
	-15.875000000000014 -0.055580505222289446 -5.2999999999999972 
	-15.881312712883414 -0.11612060990881522 -5.3003929083141959 
	-15.907156292463114 -0.2345032074604505 -5.3020272278739959 
	-15.926528747237612 -0.29238031392092467 -5.3032623372550951 
	-15.976417783113106 -0.41227237837772623 -5.3065079693901946 
	-16.014714957999203 -0.48408500308002861 -5.3090431235146944 
	-16.101743398809305 -0.62142801389727564 -5.3150265296133945 
	-16.150264142701204 -0.68709201126969011 -5.3184673067438943 
	-16.289847456883102 -0.86121244058862567 -5.3286993109148924 
	-16.412784999387405 -0.99081897049355994 -5.3382840824424935 
	-16.751994919466796 -1.3185787914697125 -5.3666290216277908 
	-17.004986985077096 -1.5259518620935355 -5.3903588046230908 
	-17.53128283119419 -1.9299829636408512 -5.4458474734381888 
	-17.805343783333292 -2.1256499589369238 -5.4776338221186887 
	-18.649448665315383 -2.7009453617739125 -5.5844028647950879 
	-19.240949018046976 -3.0684650647487794 -5.6708913293139851 
	-20.447096906341969 -3.7692804409779033 -5.8667858782420836 
	-21.061343715992066 -4.1014150829469198 -5.9759908588299826 
	-22.27924641220816 -4.7189249706749035 -6.204655637380581 
	-22.882971164589961 -5.0041995468486711 -6.324020478121879 
	-24.079545201807854 -5.5357028241092241 -6.5660091502143771 
	-24.73113869821595 -5.805926363775221 -6.7010130131584749 
	-26.07823257317115 -6.3209415951863059 -6.9808536978334725 
	-26.773757337352642 -6.565720513333364 -7.1255966320925737 
	-28.177790958573141 -7.0171027810212401 -7.4112509583848709 
	-28.886400654240532 -7.223750984119528 -7.5520787083673717 
	-30.283510062995134 -7.592893359765184 -7.8171905632543695 
	-30.972013649947833 -7.7554279316778612 -7.9413979940577697 
	-32.031932726600125 -7.9806870535249121 -8.1202039514321775 
	-32.472730759866828 -8.0681423056486086 -8.1915295915420483 
	-33.35806813869003 -8.2291214322354591 -8.3261914181068484 
	-33.802616261188625 -8.3026579385497712 -8.3894547895402081 
	-34.613066908731923 -8.4258380654103711 -8.4972665420221567 
	-35.059815988740624 -8.4877819173695368 -8.5526142382821071 
	-35.95617343183072 -8.5979282045539946 -8.652745312120846 
	-36.405788080879923 -8.6461361233315923 -8.6974663768253855 
	-37.139630096091622 -8.7153062958619287 -8.762295235924336 
	-37.496708438035924 -8.7453160411160926 -8.7907270758285367 
	-38.212019589211323 -8.7966679709550704 -8.8397656656663468 
	-38.570254269479122 -8.8180076138838928 -8.8603477817629059 
	-39.659554896492622 -8.8717306560481362 -8.9123633137442351 
	-40.45863697487232 -8.8920847155180436 -8.9324292383237847 
	-41.27499999999992 -8.8898144205226526 -8.9302039952005341 
	0.001 
	torus -41.156457299959811 -3.9048928974698931e-013 -8.945705467095296 -0.99563422605928809 -1.1396662956871225e-014 -0.093340708693058411 -37.625403645833302 46.515403645833302 1.1093210192396254e-014 -1 3.7698793739493483e-015 0 I I I I 
	cone 34.924999999999983 3.0418367613161188e-013 -17.999999999999996 1 1.0474450083328146e-014 -1.2325951644078309e-029 1.3302551605826745e-013 -12.699999999999999 4.4766967910447871e-014 1 I I 0 1 0 I I I I 
	nullbs 
	nullbs 
	F 26.092518869792801 F 52.513842310696603 } I I #
edge $-1 $52 $34 $45 $81 0 #
loop $-1 $-1 $72 $56 #
face $-1 $82 $33 $2 $-1 $83 forward single #
point $-1 -41.275000000000105 8.8898144205218674 -8.9302039952007277 #
point $-1 -15.875000000000014 -9.6219550610541597e-014 -5.2999999999999972 #
face $-1 $84 $85 $2 $-1 $86 forward single #
loop $-1 $-1 $87 $37 #
coedge $-1 $88 $89 $90 $91 1 $38 $-1 #
coedge $-1 $92 $40 $93 $94 0 $21 $-1 #
coedge $-1 $40 $92 $88 $95 0 $21 $-1 #
coedge $-1 $90 $96 $40 $65 0 $55 $-1 #
edge $-1 $97 $98 $64 $99 0 #
coedge $-1 $42 $41 $100 $101 0 $12 $-1 #
coedge $-1 $87 $102 $41 $68 1 $60 $-1 #
edge $-1 $73 $103 $41 $104 0 #
coedge $-1 $105 $106 $42 $70 1 $107 $-1 #
edge $-1 $108 $74 $42 $109 0 #
coedge $-1 $110 $43 $106 $111 0 $55 $-1 #
coedge $-1 $43 $112 $87 $113 0 $55 $-1 #
vertex $-1 $44 $114 #
vertex $-1 $44 $115 #
ellipse-curve $-1 -41.275000000000311 -4.9396942021799601e-013 -17.999999999999996 -0.316227766016828 -0.9486832980505171 3.3440688788193116e-015 38.100000000000136 -12.6999999999996 4.4766967910447404e-014 0.316227766016838 I I #
intcurve-curve $-1 0 { surfintcur nubs 3 open 21 
	-37.629000363039303 3 -35.743474272470799 2 -33.686968454396997 2 -32.327470146810597 2 -30.967971839224301 2 
	-28.248975224051499 2 -26.247830698329601 2 -24.2466861726076 2 -22.245541646885599 2 -20.244397121163601 2 
	-18.367079023159 2 -16.4897609251543 2 -14.6124428271497 2 -13.673783778147399 2 -12.735124729145101 2 
	-12.239919646319301 2 -12.0058701843439 2 -11.7718207223686 2 -11.598382683676199 2 -11.424944644983899 2 
	-11.381612821875599 3 
	-41.27499999999992 -8.8898144205226526 -8.9302039952005341 
	-41.941155657170114 -8.888441276265679 -9.1037554356283543 
	-42.609809814685121 -8.8698989688079983 -9.2634813580214637 
	-43.984629440503319 -8.8004161880910114 -9.5617756225042463 
	-44.688711810214215 -8.7466951702509217 -9.697068509481916 
	-45.806137728797921 -8.6378249871584831 -9.8869935192222158 
	-46.273264945911222 -8.5857886231680585 -9.9595807887125662 
	-47.229656874842718 -8.4642730245168369 -10.092178254775416 
	-47.718923040937725 -8.3947912541188732 -10.152175637879967 
	-49.185733628796129 -8.16385342897496 -10.307954305827238 
	-50.162331505282921 -7.9787108844707308 -10.378186114883308 
	-51.698387370889435 -7.6454208685255862 -10.448726628878099 
	-52.378986352889633 -7.4839394654952738 -10.466830588092691 
	-53.763398150051238 -7.1215442917388883 -10.476929114270771 
	-54.467201427354738 -6.9205949231861057 -10.468953713059271 
	-55.863546840082648 -6.4844531191002899 -10.431854325261902 
	-56.556177435831344 -6.2491886404795283 -10.402831473625813 
	-57.897748214124 -5.7548881239441609 -10.334095230589817 
	-58.546686209063822 -5.4958253800505279 -10.294531275867827 
	-59.732805432631338 -4.9870765693722099 -10.219154562917199 
	-60.328565188850483 -4.7146698228437858 -10.17959522470408 
	-61.527830939120875 -4.122665887659859 -10.104672952621922 
	-62.131373653277869 -3.8031253658076842 -10.069450113825084 
	-63.312501410905668 -3.1253551711021266 -10.015920215631585 
	-63.889780472747553 -2.7680620613382421 -9.997852068307628 
	-64.710338616383964 -2.2067571705193809 -9.9906211922881898 
	-64.976217654032808 -2.0155019926202735 -9.9914871331947488 
	-65.486181481277782 -1.6210383821124195 -9.9999342538633513 
	-65.730777343883418 -1.4184925237980419 -10.007581321765091 
	-66.07580045454398 -1.0881071763334655 -10.023242761178873 
	-66.212709354832995 -0.94514813437547307 -10.030669550064662 
	-66.365692490702145 -0.75647752063496876 -10.040146000214385 
	-66.417176167477109 -0.68793805869832636 -10.043526840743514 
	-66.510453103673214 -0.54485733195608033 -10.049979578311454 
	-66.552049746442052 -0.47018690832113569 -10.053027560190856 
	-66.607412062057236 -0.34622237585543431 -10.057195446718374 
	-66.629478970988458 -0.28668819127544354 -10.058904088928845 
	-66.661285066427851 -0.16459911555949092 -10.061400472676025 
	-66.670857022813351 -0.10200031893643099 -10.062168580665816 
	-66.674599825464952 -0.029841320723696337 -10.062467956366746 
	-66.675000000000011 -0.015047965577503042 -10.062500000000007 
	-66.675000000000026 -6.7770867890270517e-013 -10.062500000000007 
	0.001 
	torus -41.156457299959811 -3.9048928974698931e-013 -8.945705467095296 -0.99563422605928809 -1.1396662956871225e-014 -0.093340708693058411 -37.625403645833302 46.515403645833302 1.1093210192396254e-014 -1 3.7698793739493483e-015 0 I I I I 
	cone -66.675000000000011 -7.6002045233452773e-013 -17.999999999999996 1 1.0474450083328146e-014 -1.2325951644078309e-029 8.314094753641716e-014 -7.9375 2.7979354944029922e-014 1 I I 0.184288535050185 0.98287218693432199 0 I I I I 
	nullbs 
	nullbs 
	F -37.629000363039303 F -11.381612821875599 } I I #
face $-1 $116 $117 $2 $-1 $118 forward single #
point $-1 -92.074999999999974 -3.1750000000010257 -17.999999999999986 #
point $-1 -66.675000000000026 -6.7770867890270517e-013 -10.062500000000007 #
point $-1 -41.27499999999992 -8.8898144205226526 -8.9302039952005341 #
ellipse-curve $-1 -41.275000000000013 -4.9396942021799278e-013 -17.999999999999996 1 1.0474450083328146e-014 -1.2325951644078309e-029 1.3302551605826745e-013 -12.699999999999999 4.4766967910447871e-014 1 I I #
face $-1 $119 $120 $2 $-1 $121 reversed single #
cone-surface $-1 34.924999999999983 3.0418367613161188e-013 -17.999999999999996 1 1.0474450083328146e-014 -1.2325951644078309e-029 1.3302551605826745e-013 -12.699999999999999 4.4766967910447871e-014 1 I I 0 1 0 I I I I #
face $-1 $122 $123 $2 $-1 $124 forward single #
loop $-1 $-1 $125 $59 #
plane-surface $-1 111.12500000000054 -50.799999999998988 -16.729999999999809 -2.4614665131755338e-029 3.524958103184872e-015 1 1 1.0474450083328146e-014 -1.2325951644078309e-029 0 I I I I #
coedge $-1 $102 $67 $72 $113 1 $60 $-1 #
coedge $-1 $89 $61 $63 $95 1 $38 $-1 #
coedge $-1 $61 $88 $126 $127 1 $38 $-1 #
coedge $-1 $112 $64 $61 $91 0 $55 $-1 #
edge $-1 $98 $128 $90 $129 0 #
coedge $-1 $63 $62 $130 $131 1 $21 $-1 #
coedge $-1 $125 $132 $62 $94 1 $85 $-1 #
edge $-1 $97 $133 $62 $134 0 #
edge $-1 $135 $98 $63 $136 0 #
coedge $-1 $64 $137 $125 $138 0 $55 $-1 #
vertex $-1 $65 $139 #
vertex $-1 $65 $140 #
ellipse-curve $-1 -41.275000000000013 -4.9396942021799278e-013 -17.999999999999996 -0.31622776601684788 0.94868329805051044 -3.3440688788193037e-015 -38.099999999999866 -12.700000000000399 4.4766967910448338e-014 0.316227766016838 I I #
coedge $-1 $141 $142 $66 $101 1 $143 $-1 #
edge $-1 $103 $108 $66 $144 0 #
coedge $-1 $67 $87 $141 $145 1 $60 $-1 #
vertex $-1 $145 $146 #
straight-curve $-1 -41.275000000000013 -4.9396942021799278e-013 -17.999999999999996 0.94868329805051732 -0.31622776601682806 1.1727778060009825e-015 I I #
coedge $-1 $106 $69 $142 $147 1 $107 $-1 #
coedge $-1 $69 $105 $71 $111 1 $107 $-1 #
loop $-1 $-1 $106 $148 #
vertex $-1 $101 $149 #
straight-curve $-1 -41.275000000000013 -4.8925943591654483e-013 -16.729999999999997 -0.94868329805051732 0.31622776601682806 -1.1727778060009825e-015 I I #
coedge $-1 $150 $71 $151 $152 1 $55 $-1 #
edge $-1 $74 $153 $71 $154 0 #
coedge $-1 $72 $90 $155 $156 1 $55 $-1 #
edge $-1 $157 $73 $72 $158 0 #
point $-1 -3.1749999999998764 -12.700000000000095 -17.99999999999995 #
point $-1 -3.3659786462376786 -12.636340451254192 -16.729999999999951 #
face $-1 $159 $160 $2 $-1 $161 forward single #
loop $-1 $47 $162 $77 #
sphere-surface $-1 -92.075000000000017 -1.0260714844510627e-012 -17.999999999999996 3.1749999999999998 1.0474450083328146e-014 -1 3.524958103184872e-015 -1 -1.0474450083328146e-014 1.2325951644078309e-029 0 I I I I #
face $-1 $163 $164 $2 $-1 $165 forward single #
loop $-1 $-1 $166 $82 #
plane-surface $-1 96.837499999999977 0.38100000000104145 7.1836395259400021 1.0474450083328146e-014 -1 3.524958103184872e-015 1 1.0474450083328146e-014 -1.2325951644078309e-029 0 I I I I #
face $-1 $148 $143 $2 $-1 $124 forward single #
loop $-1 $-1 $167 $84 #
plane-surface $-1 111.12499999999946 50.800000000001098 -18.000000000000185 1 1.0474450083328146e-014 -1.2325951644078309e-029 2.653872685048119e-029 -3.7086490562582294e-015 -1 0 I I I I #
coedge $-1 $132 $93 $96 $138 1 $85 $-1 #
coedge $-1 $130 $167 $89 $127 0 $123 $-1 #
edge $-1 $128 $135 $126 $168 0 #
vertex $-1 $156 $169 #
straight-curve $-1 34.924999999999855 12.700000000000303 -18.000000000000043 1 1.0474450083328146e-014 -1.2325951644078309e-029 I I #
coedge $-1 $170 $126 $92 $131 0 $123 $-1 #
edge $-1 $135 $133 $130 $171 0 #
coedge $-1 $93 $125 $170 $172 1 $85 $-1 #
vertex $-1 $131 $173 #
straight-curve $-1 111.12499999999946 50.800000000001106 -16.730000000000185 0.94868329805051066 0.31622776601684793 -1.1727778060010058e-015 I I #
vertex $-1 $127 $174 #
straight-curve $-1 111.12499999999946 50.800000000001098 -18.000000000000185 -0.94868329805051066 -0.31622776601684793 1.1727778060010058e-015 I I #
coedge $-1 $96 $175 $176 $177 1 $55 $-1 #
edge $-1 $178 $97 $96 $179 0 #
point $-1 -3.3659786462379486 12.636340451254007 -16.73000000000004 #
point $-1 -3.1750000000001464 12.699999999999903 -18.000000000000043 #
coedge $-1 $180 $100 $102 $145 0 $143 $-1 #
coedge $-1 $100 $180 $105 $147 0 $143 $-1 #
loop $-1 $-1 $180 $122 #
straight-curve $-1 111.12500000000054 -50.799999999998995 -17.999999999999808 -2.4614665131755338e-029 3.524958103184872e-015 1 I I #
edge $-1 $103 $157 $141 $168 0 #
point $-1 111.12500000000054 -50.799999999998995 -17.999999999999808 #
edge $-1 $153 $108 $142 $181 0 #
face $-1 $56 $107 $2 $-1 $86 forward single #
point $-1 111.12500000000054 -50.799999999998988 -16.729999999999809 #
coedge $-1 $182 $110 $183 $184 0 $55 $-1 #
coedge $-1 $185 $186 $110 $152 0 $187 $-1 #
edge $-1 $188 $153 $110 $189 0 #
vertex $-1 $152 $190 #
straight-curve $-1 34.925000000000111 -12.63634045125379 -16.72999999999994 1 1.0474450083328146e-014 -1.2325951644078309e-029 I I #
coedge $-1 $191 $185 $112 $156 0 $187 $-1 #
edge $-1 $157 $128 $112 $189 0 #
vertex $-1 $192 $193 #
straight-curve $-1 34.925000000000111 -12.699999999999696 -17.99999999999995 -1 -1.0474450083328146e-014 1.2325951644078309e-029 I I #
face $-1 $-1 $194 $2 $-1 $195 forward single #
loop $-1 $196 $197 $116 #
cone-surface $-1 -104.77500000000001 -1.1590970005093301e-012 -17.999999999999996 -1 -1.0474450083328146e-014 1.2325951644078309e-029 1.3302551605826747e-015 -0.127 4.4766967910447878e-016 1 I I 0 1 0 I I I I #
coedge $-1 $162 $162 $198 $199 0 $117 $-1 #
face $-1 $200 $201 $2 $-1 $202 forward single #
loop $-1 $-1 $203 $119 #
plane-surface $-1 60.324999999999989 0.38100000000057027 -17.999999999999996 -0.74977667939690995 -5.5210654787791956e-015 0.66169096339042099 1.0474450083328146e-014 -1 3.524958103184872e-015 0 I I I I #
coedge $-1 $204 $205 $175 $206 1 $120 $-1 #
coedge $-1 $126 $170 $191 $207 1 $123 $-1 #
straight-curve $-1 111.12500000000054 -50.799999999998995 -17.999999999999808 -1.0474450083328146e-014 1 -3.7086490562582278e-015 I I #
point $-1 111.12499999999986 12.700000000001101 -18.000000000000043 #
coedge $-1 $167 $130 $132 $172 0 $123 $-1 #
straight-curve $-1 111.12499999999946 50.800000000001098 -18.000000000000185 -2.4614665131755338e-029 3.524958103184872e-015 1 I I #
edge $-1 $133 $178 $170 $181 0 #
point $-1 111.12499999999946 50.800000000001106 -16.730000000000164 #
point $-1 111.12499999999946 50.800000000001098 -18.000000000000185 #
coedge $-1 $137 $182 $166 $206 0 $55 $-1 #
coedge $-1 $186 $191 $137 $177 0 $187 $-1 #
edge $-1 $178 $208 $137 $189 0 #
vertex $-1 $207 $209 #
straight-curve $-1 34.924999999999855 12.636340451254409 -16.730000000000032 -1 -1.0474450083328146e-014 1.2325951644078309e-029 I I #
coedge $-1 $142 $141 $185 $192 1 $143 $-1 #
straight-curve $-1 111.12500000000054 -50.799999999998988 -16.729999999999809 1.0474450083328146e-014 -1 3.7086490562582278e-015 I I #
coedge $-1 $175 $150 $203 $210 0 $55 $-1 #
coedge $-1 $211 $212 $150 $184 1 $213 $-1 #
edge $-1 $188 $214 $150 $215 0 #
coedge $-1 $155 $151 $180 $192 0 $187 $-1 #
coedge $-1 $151 $176 $216 $217 0 $187 $-1 #
loop $-1 $-1 $151 $218 #
vertex $-1 $217 $219 #
ellipse-curve $-1 111.125 1.1023367724812167e-012 -17.999999999999996 1 1.0474450083328146e-014 -1.2325951644078309e-029 1.3302551605826745e-013 -12.699999999999999 4.4766967910447871e-014 1 I I #
point $-1 111.12500000000014 -12.636340451252993 -16.729999999999951 #
coedge $-1 $176 $155 $167 $207 0 $187 $-1 #
edge $-1 $153 $157 $185 $189 0 #
point $-1 111.12500000000014 -12.699999999998898 -17.99999999999995 #
loop $-1 $-1 $220 $159 #
plane-surface $-1 -117.47500000000001 -1.2921225165675974e-012 -17.999999999999996 -1 -1.0474450083328146e-014 1.2325951644078309e-029 1.0474450083328146e-014 -1 3.524958103184872e-015 0 I I I I #
loop $-1 $-1 $198 $116 #
coedge $-1 $197 $197 $220 $221 1 $160 $-1 #
coedge $-1 $198 $198 $162 $199 1 $196 $-1 #
edge $-1 $222 $222 $162 $223 0 #
face $-1 $224 $225 $2 $-1 $226 forward single #
loop $-1 $-1 $227 $163 #
plane-surface $-1 104.77499999999998 0.38100000000121337 32.367279051880004 -2.4614665131755338e-029 3.524958103184872e-015 1 1.0474450083328146e-014 -1 3.524958103184872e-015 0 I I I I #
coedge $-1 $228 $229 $182 $210 1 $164 $-1 #
coedge $-1 $230 $166 $229 $231 1 $120 $-1 #
coedge $-1 $166 $230 $232 $233 1 $120 $-1 #
edge $-1 $234 $208 $175 $235 0 #
edge $-1 $128 $178 $191 $189 0 #
vertex $-1 $177 $236 #
point $-1 111.12499999999986 12.636340451255206 -16.73000000000004 #
edge $-1 $214 $234 $182 $237 0 #
coedge $-1 $238 $183 $239 $240 1 $213 $-1 #
coedge $-1 $183 $238 $228 $241 1 $213 $-1 #
loop $-1 $-1 $183 $224 #
vertex $-1 $210 $242 #
straight-curve $-1 34.924999999999983 -0.38099999999965106 -5.3057162864539951 -1 -1.0474450083328146e-014 1.2325951644078309e-029 I I #
coedge $-1 $232 $239 $186 $217 1 $225 $-1 #
edge $-1 $208 $188 $186 $189 0 #
face $-1 $243 $244 $2 $-1 $245 forward single #
point $-1 111.125 -0.38099999999885292 -5.3057162864539951 #
coedge $-1 $220 $220 $197 $221 0 $194 $-1 #
edge $-1 $246 $246 $220 $247 0 #
vertex $-1 $199 $248 #
ellipse-curve $-1 -95.247458983186419 -1.0593012477118545e-012 -17.999999999999996 1 1.0474450083328146e-014 -1.2325951644078309e-029 1.7743443704327377e-015 -0.127 4.4766967910447878e-016 1 I I #
face $-1 $218 $213 $2 $-1 $249 forward single #
loop $-1 $-1 $216 $200 #
plane-surface $-1 111.125 0.38100000000127987 32.367279051880004 1 1.0474450083328146e-014 -1.2325951644078309e-029 -1.0474450083328146e-014 1 -3.524958103184872e-015 0 I I I I #
coedge $-1 $250 $251 $238 $252 0 $201 $-1 #
coedge $-1 $253 $203 $212 $241 0 $164 $-1 #
coedge $-1 $203 $253 $204 $231 0 $164 $-1 #
coedge $-1 $205 $204 $254 $255 1 $120 $-1 #
edge $-1 $256 $234 $229 $257 0 #
coedge $-1 $258 $216 $205 $233 0 $225 $-1 #
edge $-1 $208 $259 $232 $260 0 #
vertex $-1 $210 $261 #
straight-curve $-1 34.924999999999983 0.38100000000034895 -5.3057162864539986 1 1.0474450083328146e-014 -1.2325951644078309e-029 I I #
point $-1 111.125 0.38100000000114709 -5.3057162864539986 #
ellipse-curve $-1 60.324999999999989 5.7023470824814683e-013 -17.999999999999996 -0.74977667939690995 -5.5210654787791956e-015 0.66169096339042099 -11.207970941184501 -1.6216430006927731e-013 -12.699999999999999 0.74977667939690995 I I #
coedge $-1 $212 $211 $227 $252 1 $213 $-1 #
coedge $-1 $216 $258 $211 $240 0 $225 $-1 #
edge $-1 $262 $188 $239 $263 0 #
edge $-1 $214 $264 $228 $265 0 #
point $-1 71.52792621894298 -0.38099999999926765 -5.3057162864539951 #
face $-1 $77 $266 $2 $-1 $267 forward single #
loop $-1 $187 $268 $218 #
cone-surface $-1 114.29999999999998 1.1355931514957833e-012 -17.999999999999996 1 1.0474450083328146e-014 -1.2325951644078309e-029 1.197229644524407e-013 -11.43 4.0290271119403084e-014 1 I I -0.371390676354104 0.92847669088525897 0 I I I I #
vertex $-1 $221 $269 #
ellipse-curve $-1 -117.47500000000001 -1.2921225165675974e-012 -17.999999999999996 -1 -1.0474450083328146e-014 1.2325951644078309e-029 1.3302551605826747e-015 -0.127 4.4766967910447878e-016 1 I I #
point $-1 -95.247458983186419 -0.12700000000105932 -17.999999999999996 #
plane-surface $-1 104.77499999999998 -0.38099999999878664 32.367279051880004 1.0474450083328146e-014 -1 3.524958103184872e-015 1 1.0474450083328146e-014 -1.2325951644078309e-029 0 I I I I #
coedge $-1 $254 $227 $258 $270 1 $201 $-1 #
coedge $-1 $227 $254 $253 $271 0 $201 $-1 #
edge $-1 $264 $262 $227 $272 0 #
coedge $-1 $229 $228 $251 $271 1 $164 $-1 #
coedge $-1 $251 $250 $230 $255 0 $201 $-1 #
edge $-1 $259 $256 $254 $273 0 #
vertex $-1 $231 $274 #
straight-curve $-1 104.77499999999998 0.38100000000121337 32.367279051880004 -0.66169096339042099 -9.5737803482414601e-015 -0.74977667939690995 I I #
coedge $-1 $239 $232 $250 $270 0 $225 $-1 #
vertex $-1 $233 $275 #
straight-curve $-1 111.125 0.38100000000110235 -17.999999999999996 -2.4614665131755338e-029 3.524958103184872e-015 1 I I #
point $-1 71.52792621894298 0.38100000000073236 -5.3057162864539986 #
vertex $-1 $270 $276 #
straight-curve $-1 111.125 -0.38099999999889766 -17.999999999999996 2.4614665131755338e-029 -3.524958103184872e-015 -1 I I #
vertex $-1 $271 $277 #
straight-curve $-1 104.77499999999998 -0.38099999999878664 32.367279051880004 0.66169096339042099 9.5737803482414601e-015 0.74977667939690995 I I #
loop $-1 $-1 $278 $243 #
plane-surface $-1 117.47499999999999 1.1688495305103506e-012 -17.999999999999996 1 1.0474450083328146e-014 -1.2325951644078309e-029 1.0474450083328146e-014 -1 3.524958103184872e-015 0 I I I I #
coedge $-1 $268 $268 $278 $279 1 $244 $-1 #
point $-1 -117.47500000000001 -0.12700000000129213 -17.999999999999996 #
edge $-1 $259 $262 $258 $280 0 #
edge $-1 $256 $264 $251 $281 0 #
straight-curve $-1 111.125 -0.38099999999872014 32.367279051880004 1 1.0474450083328146e-014 -1.2325951644078309e-029 I I #
straight-curve $-1 111.125 0.38100000000127987 32.367279051880004 -1 -1.0474450083328146e-014 1.2325951644078309e-029 I I #
point $-1 104.77499999999998 0.38100000000121337 32.367279051880004 #
point $-1 111.125 0.38100000000127987 32.367279051880004 #
point $-1 111.125 -0.38099999999872014 32.367279051880004 #
point $-1 104.77499999999998 -0.38099999999878664 32.367279051880004 #
coedge $-1 $278 $278 $268 $279 0 $266 $-1 #
edge $-1 $282 $282 $278 $283 0 #
straight-curve $-1 111.125 0.38100000000127987 32.367279051880004 1.0474450083328146e-014 -1 3.524958103184872e-015 I I #
straight-curve $-1 104.77499999999998 0.38100000000121337 32.367279051880004 1.0474450083328146e-014 -1 3.524958103184872e-015 I I #
vertex $-1 $279 $284 #
ellipse-curve $-1 117.47499999999999 1.1688495305103506e-012 -17.999999999999996 1 1.0474450083328146e-014 -1.2325951644078309e-029 1.0642041284661397e-013 -10.16 3.5813574328358298e-014 1 I I #
point $-1 117.47500000000011 -10.159999999998831 -17.999999999999961 #
End-of-ACIS-data 