600 0 1 0           
69 GICL ACIS Healer - Source: /gicl/data5/repository/new/plane.sat - 6 0 18 ACIS 6.0.3 Solaris 24 Sat Apr 13 20:08:56 2002 
1 9.999999999999999547e-07 1.000000000000000036e-10 
body $-1 $1 $-1 $-1 #
lump $-1 $-1 $2 $0 #
shell $-1 $-1 $-1 $3 $-1 $1 #
face $-1 $4 $5 $2 $-1 $6 forward single #
face $-1 $7 $8 $2 $-1 $9 forward single #
loop $-1 $-1 $10 $3 #
torus-surface $-1 -41.15645729995981128 -3.904892897469893101e-13 -8.945705467095296015 -0.9956342260592880855 -1.139666295687122495e-14 -0.09334070869305841067 -37.62540364583330188 46.51540364583330245 1.109321019239625436e-14 -1 3.769879373949348256e-15 forward_v I I I I #
face $-1 $11 $12 $2 $-1 $13 forward single #
loop $-1 $14 $15 $4 #
cone-surface $-1 -66.67500000000001137 -7.600204523345277342e-13 -17.99999999999999645 1 1.04744500833281462e-14 -1.232595164407830946e-29 8.314094753641716046e-14 -7.9375 2.797935494402992163e-14 1 I I 0.1842885350501849984 0.9828721869343219897 7.9375 forward I I I I #
coedge $-1 $16 $17 $18 $19 reversed $5 $-1 #
face $-1 $20 $21 $2 $-1 $22 forward single #
loop $-1 $-1 $23 $7 #
plane-surface $-1 111.12500000000054 -50.79999999999899529 -17.99999999999980815 -0.3162277660168280047 -0.9486832980505170987 3.344068878819311616e-15 2.46146651317553379e-29 -3.524958103184872016e-15 -1 forward_v I I I I #
loop $-1 $-1 $24 $4 #
coedge $-1 $15 $15 $25 $26 forward $8 $-1 #
coedge $-1 $27 $10 $28 $29 reversed $5 $-1 #
coedge $-1 $10 $27 $30 $31 reversed $5 $-1 #
coedge $-1 $30 $32 $10 $19 forward $33 $-1 #
edge $-1 $34 -0.2834060764656100018 $35 26.09251886979280144 $18 $36 forward 7 unknown #
face $-1 $37 $38 $2 $-1 $39 reversed single #
loop $-1 $-1 $40 $11 #
plane-surface $-1 -41.27500000000001279 -4.939694202179927804e-13 -17.99999999999999645 -0.3162277660168479332 0.9486832980505105484 -3.344068878819304122e-15 -2.46146651317553379e-29 3.524958103184872016e-15 1 forward_v I I I I #
coedge $-1 $41 $42 $43 $44 reversed $12 $-1 #
coedge $-1 $28 $45 $27 $46 forward $14 $-1 #
coedge $-1 $25 $25 $15 $26 reversed $47 $-1 #
edge $-1 $48 -6.283185307179586232 $48 1.680632885702250466e-16 $15 $49 reversed 7 unknown #
coedge $-1 $17 $16 $24 $46 reversed $5 $-1 #
coedge $-1 $45 $24 $16 $29 forward $14 $-1 #
edge $-1 $50 -11.3816128218755992 $34 14.86132920109469957 $28 $51 forward 7 unknown #
coedge $-1 $32 $18 $17 $31 forward $33 $-1 #
edge $-1 $35 26.09251886979280144 $52 52.51384231069660302 $30 $53 forward 7 unknown #
coedge $-1 $18 $30 $45 $54 forward $33 $-1 #
loop $-1 $55 $30 $56 #
vertex $-1 $54 $57 #
vertex $-1 $19 $58 #
intcurve-curve $-1 forward { surfintcur full nubs 3 open 22 
	-0.2834060764656100018 3 0 3 1.963603445369259903 2 3.927206890738519807 2 5.166608703456979867 2 
	6.406010516175440372 2 7.647060825062210299 2 8.888111133948950027 2 10.94179529429949937 2 12.99547945465000076 2 
	15.04916361500059985 2 17.10284777535110123 2 19.0436088955530991 2 20.9843700157552 2 22.92513113595720142 2 
	23.89551169605820036 2 24.86589225615919929 2 25.31312932833279916 2 25.53608258339620107 2 25.75903583845959943 2 
	25.92577735412620044 2 26.09251886979280144 3 
	-41.27500000000010516 8.889814420521867433 -8.930203995200727718 
	-41.1794176010587023 8.890080233934877896 -8.93046453379618832 
	-41.0843711145866024 8.890037561227160268 -8.930422700895109145 
	-40.98990361054420362 8.889699196077710752 -8.930091058712537944 
	-40.33537736069640545 8.887354803954826465 -8.927793247245508823 
	-39.61607282051220125 8.869553541818435249 -8.910256175408209245 
	-38.18071790661890219 8.798828666042849633 -8.841777632248676966 
	-37.46465745683190107 8.745942588351226732 -8.791008709037196667 
	-36.40578808088010021 8.6461361233309173 -8.69746637682558621 
	-35.95617343183090497 8.597928204553335618 -8.652745312121036037 
	-35.05981598874080163 8.4877819173688831 -8.552614238282297165 
	-34.61306690873209391 8.425838065409738675 -8.497266542022346769 
	-33.80261626118839757 8.302657938549108607 -8.389454789540344848 
	-33.35806813868939713 8.229121432234730804 -8.326191418106924758 
	-32.47273075986539936 8.06814230564771151 -8.191529591541975464 
	-32.03193272659829915 7.980687053523928043 -8.120203951432035439 
	-30.97201364994568706 7.755427931676789122 -7.941397994057622256 
	-30.28351006299308779 7.59289335976411639 -7.817190563254122537 
	-28.88640065423869174 7.223750984118471941 -7.552078708367121251 
	-28.17779095857138572 7.01710278102019025 -7.411250958384721699 
	-26.77375733735118501 6.565720513332346187 -7.125596632092319638 
	-26.07823257316967869 6.320941595185324502 -6.980853697833319771 
	-24.73113869821477806 5.805926363774289278 -6.701013013158318543 
	-24.07954520180666691 5.53570282410832526 -6.566009150214316747 
	-22.88297116458895886 5.004199546847838853 -6.324020478121815003 
	-22.27924641220726443 4.718924970674116537 -6.204655637380511735 
	-21.06134371599145538 4.101415082946219925 -5.975990858829911545 
	-20.44709690634135058 3.769280440977266888 -5.866785878242009034 
	-19.24094901804654967 3.068465064748240767 -5.670891329314006413 
	-18.64944866531504175 2.700945361773427145 -5.584402864795105614 
	-17.80534378333302925 2.125649958936526307 -5.477633822118702867 
	-17.53128283119393416 1.92998296364046884 -5.445847473438202968 
	-17.004986985077025 1.52595186209321465 -5.390358804623101463 
	-16.75199491946672481 1.31857879146942758 -5.366629021627900897 
	-16.41278499938731983 0.9908189704933140218 -5.338284082442500633 
	-16.28984745688311619 0.8612124405883804235 -5.328699310914899456 
	-16.15026414270121791 0.6870920112694629545 -5.318467306743897893 
	-16.10174339880921934 0.6214280138970463829 -5.315026529613398054 
	-16.0147149579992174 0.4840850030798113934 -5.309043123514697982 
	-15.97641778311312066 0.4122723783775237849 -5.306507969390198198 
	-15.92652874723761158 0.2923803139207313273 -5.303262337255098657 
	-15.9071562924631138 0.2345032074602575178 -5.302027227874097193 
	-15.88131271288341395 0.1161206099086257854 -5.300392908314297102 
	-15.87500000000001421 0.05558050522209585786 -5.299999999999997158 
	-15.87500000000001421 -9.621955061054159683e-14 -5.299999999999997158 
	0.001000000000000000021 
	torus -41.15645729995981128 -3.904892897469893101e-13 -8.945705467095296015 -0.9956342260592880855 -1.139666295687122495e-14 -0.09334070869305841067 -37.62540364583330188 46.51540364583330245 1.109321019239625436e-14 -1 3.769879373949348256e-15 forward_v I I I I 
	cone 34.92499999999998295 3.041836761316118792e-13 -17.99999999999999645 1 1.04744500833281462e-14 -1.232595164407830946e-29 1.330255160582674517e-13 -12.69999999999999929 4.476696791044787081e-14 1 I I 0 1 12.69999999999999929 forward I I I I 
	nullbs 
	nullbs 
	F -0.2834060764656100018 F 26.09251886979280144 
	0 
	2 -0.2834060764656100018 26.09251886979280144 
	0 
	} I I #
face $-1 $59 $60 $2 $-1 $39 reversed single #
loop $-1 $-1 $61 $20 #
plane-surface $-1 60.32499999999998863 5.536553777470777614e-13 -17.99999999999999645 -2.653872685048119002e-29 3.708649056258229393e-15 1 1 1.04744500833281462e-14 -1.232595164407830946e-29 forward_v I I I I #
coedge $-1 $62 $63 $64 $65 reversed $21 $-1 #
coedge $-1 $66 $23 $67 $68 forward $12 $-1 #
coedge $-1 $23 $66 $69 $70 forward $12 $-1 #
coedge $-1 $71 $72 $23 $44 forward $55 $-1 #
edge $-1 $73 1.116779459810306734e-16 $74 0.1001674211615591753 $43 $75 forward 7 unknown #
coedge $-1 $24 $28 $32 $54 reversed $14 $-1 #
edge $-1 $52 -37.62900036303930307 $50 -11.3816128218755992 $24 $76 forward 7 unknown #
loop $-1 $-1 $25 $77 #
vertex $-1 $26 $78 #
ellipse-curve $-1 -92.07500000000001705 -1.026071484451062688e-12 -17.99999999999999645 -1 -1.04744500833281462e-14 1.232595164407830946e-29 3.325637901456686292e-14 -3.174999999999999822 1.11917419776119677e-14 1 I I #
vertex $-1 $46 $79 #
intcurve-curve $-1 forward { surfintcur full nubs 3 open 19 
	-11.3816128218755992 3 -11.26125000683470034 2 -11.09755536868549974 2 -10.89129275139599962 2 -10.68503013410660074 2 
	-10.30574640622739935 2 -9.681667894410880493 2 -9.057589382594390059 2 -7.809432358961370113 2 -5.313118311695379958 2 
	-2.656559155847689979 2 0 3 2.730652223282730162 2 5.461304446565449666 2 8.19195666984816917 2 
	10.92260889313089933 2 12.80887295872740061 2 14.69513702432390012 2 14.86132920109469957 3 
	-66.67500000000002558 -6.777086789027051664e-13 -10.06250000000000711 
	-66.67500000000002558 0.041798737452346163 -10.06250000000000711 
	-66.67179796704759553 0.08556210412373309315 -10.06224283892835558 
	-66.65644634459071938 0.1877039160102051407 -10.06102184572809755 
	-66.64139377678009168 0.245687227820156312 -10.05983163257761603 
	-66.60175755590964286 0.3624226746904437579 -10.05676533180883681 
	-66.57105233652524134 0.4311928044192211429 -10.05442936152673816 
	-66.49921265427245487 0.5633395741435207604 -10.04920064843756933 
	-66.45827516551130998 0.6268241389548032672 -10.0463316420630786 
	-66.34559625831839469 0.7860178968568344304 -10.03879046465795888 
	-66.24790638372090257 0.9019388692201524282 -10.03279046758333948 
	-66.02045357973285888 1.146827222046014949 -10.0203627498117509 
	-65.86625530062185874 1.291021639267346588 -10.01336549992756098 
	-65.54283014362309245 1.572271581714249855 -10.00213817587041198 
	-65.37337733532149286 1.709066134067381615 -9.997881642773441158 
	-64.8491323458715101 2.112020047103157605 -9.98980713364737305 
	-64.47873327048746717 2.370734283971831502 -9.990792697272485867 
	-63.34229418233871201 3.117528983844633395 -10.01105349484674711 
	-62.55143498502165755 3.573706790715611259 -10.04770376379735808 
	-61.03624884110359972 4.378176265335506301 -10.13298797525684236 
	-60.16088572146870916 4.799904086549515725 -10.19165031895793305 
	-58.3783944115232174 5.571152975697794218 -10.30549021830186618 
	-57.47133697029905619 5.921049472085942789 -10.35922720305284628 
	-56.63671187068847956 6.214513084539700749 -10.39697933310107913 
	-55.77880856413398192 6.516161577491740964 -10.43578439325677998 
	-54.86934498652138359 6.804557790853639432 -10.46467808750261064 
	-52.99281518898528986 7.333547559196789578 -10.47874685332806166 
	-52.02577469452269554 7.57424023108327038 -10.46362467455295331 
	-50.08240215469879786 7.996197607891050829 -10.37465114972141578 
	-49.10577786291979407 8.177578342104650844 -10.30066958758665407 
	-47.19191402841369865 8.476555869716662528 -10.09492252168182702 
	-46.25466263316150162 8.594125456255820694 -9.96322774237158626 
	-44.7444004275712075 8.741269459366696637 -9.706533710725446795 
	-44.06714815401430485 8.794108267255626998 -9.57762993015101749 
	-42.71755905775469842 8.866228301197381256 -9.288562140226687802 
	-42.04519961728190225 8.885399837667899092 -9.12847637738796891 
	-41.38260291111630806 8.889481591514426739 -8.958144307852878185 
	-41.32884979754340549 8.889703420128126865 -8.944233313768847893 
	-41.27500000000010516 8.889814420521867433 -8.930203995200727718 
	0.001000000000000000021 
	torus -41.15645729995981128 -3.904892897469893101e-13 -8.945705467095296015 -0.9956342260592880855 -1.139666295687122495e-14 -0.09334070869305841067 -37.62540364583330188 46.51540364583330245 1.109321019239625436e-14 -1 3.769879373949348256e-15 forward_v I I I I 
	cone -66.67500000000001137 -7.600204523345277342e-13 -17.99999999999999645 1 1.04744500833281462e-14 -1.232595164407830946e-29 8.314094753641716046e-14 -7.9375 2.797935494402992163e-14 1 I I 0.1842885350501849984 0.9828721869343219897 7.9375 forward I I I I 
	nullbs 
	nullbs 
	F -11.3816128218755992 F 14.86132920109469957 
	0 
	2 -11.3816128218755992 14.86132920109469957 
	0 
	} I I #
vertex $-1 $31 $80 #
intcurve-curve $-1 forward { surfintcur full nubs 3 open 22 
	26.09251886979280144 3 26.25926038545929941 2 26.42600190112590042 2 26.64895515618939825 2 26.87190841125280016 2 
	27.31914548342640003 2 28.28952604352760147 2 29.25990660362869988 2 31.20066772383109921 2 33.14142884403339906 2 
	35.08218996423570246 2 37.13587412458659998 2 39.18955828493739801 2 41.24324244528820316 2 43.2969266056390012 2 
	44.53797691452459873 2 45.77902722341020336 2 47.01842903612860169 2 48.2578308488470995 2 49.23824942824810336 2 
	50.21866800764919958 2 52.51384231069660302 3 
	-15.87500000000001421 -9.621955061054159683e-14 -5.299999999999997158 
	-15.87500000000001421 -0.05558050522228944607 -5.299999999999997158 
	-15.88131271288341395 -0.1161206099088152172 -5.30039290831419585 
	-15.9071562924631138 -0.2345032074604505024 -5.30202722787399594 
	-15.92652874723761158 -0.2923803139209246726 -5.303262337255095105 
	-15.97641778311310645 -0.4122723783777262341 -5.306507969390194646 
	-16.01471495799920319 -0.4840850030800286086 -5.309043123514694429 
	-16.10174339880930461 -0.621428013897275644 -5.315026529613394501 
	-16.1502641427012037 -0.6870920112696901061 -5.318467306743894341 
	-16.28984745688310198 -0.8612124405886256717 -5.328699310914892351 
	-16.41278499938740509 -0.9908189704935599362 -5.338284082442493528 
	-16.75199491946679586 -1.318578791469712463 -5.366629021627790763 
	-17.00498698507709605 -1.525951862093535505 -5.390358804623090805 
	-17.53128283119418995 -1.929982963640851201 -5.445847473438188757 
	-17.80534378333329215 -2.125649958936923767 -5.477633822118688656 
	-18.64944866531538281 -2.700945361773912534 -5.584402864795087851 
	-19.24094901804697599 -3.068465064748779447 -5.670891329313985096 
	-20.44709690634196875 -3.769280440977903268 -5.866785878242083641 
	-21.06134371599206645 -4.10141508294691981 -5.975990858829982599 
	-22.27924641220815971 -4.718924970674903463 -6.204655637380581013 
	-22.88297116458996072 -5.004199546848671076 -6.324020478121878952 
	-24.07954520180785352 -5.535702824109224096 -6.566009150214377144 
	-24.73113869821595046 -5.805926363775220977 -6.701013013158474863 
	-26.07823257317114951 -6.320941595186305939 -6.980853697833472538 
	-26.77375733735264163 -6.565720513333364039 -7.125596632092573657 
	-28.17779095857314076 -7.017102781021240077 -7.411250958384870913 
	-28.88640065424053205 -7.223750984119527985 -7.552078708367371718 
	-30.28351006299513415 -7.59289335976518398 -7.817190563254369451 
	-30.9720136499478329 -7.755427931677861153 -7.941397994057769694 
	-32.03193272660012525 -7.980687053524912145 -8.120203951432177547 
	-32.47273075986682755 -8.06814230564860857 -8.191529591542048294 
	-33.35806813869002951 -8.22912143223545911 -8.326191418106848374 
	-33.80261626118862495 -8.302657938549771188 -8.389454789540208068 
	-34.61306690873192338 -8.425838065410371058 -8.497266542022156699 
	-35.05981598874062399 -8.487781917369536799 -8.552614238282107095 
	-35.95617343183072023 -8.597928204553994647 -8.652745312120845966 
	-36.40578808087992257 -8.646136123331592316 -8.697466376825385481 
	-37.13963009609162214 -8.715306295861928731 -8.762295235924336012 
	-37.4967084380359239 -8.74531604111609262 -8.790727075828536741 
	-38.21201958921132302 -8.796667970955070359 -8.839765665666346806 
	-38.57025426947912194 -8.818007613883892759 -8.860347781762905939 
	-39.65955489649262233 -8.871730656048136154 -8.912363313744235072 
	-40.45863697487232002 -8.892084715518043581 -8.932429238323784659 
	-41.27499999999992042 -8.889814420522652583 -8.930203995200534095 
	0.001000000000000000021 
	torus -41.15645729995981128 -3.904892897469893101e-13 -8.945705467095296015 -0.9956342260592880855 -1.139666295687122495e-14 -0.09334070869305841067 -37.62540364583330188 46.51540364583330245 1.109321019239625436e-14 -1 3.769879373949348256e-15 forward_v I I I I 
	cone 34.92499999999998295 3.041836761316118792e-13 -17.99999999999999645 1 1.04744500833281462e-14 -1.232595164407830946e-29 1.330255160582674517e-13 -12.69999999999999929 4.476696791044787081e-14 1 I I 0 1 12.69999999999999929 forward I I I I 
	nullbs 
	nullbs 
	F 26.09251886979280144 F 52.51384231069660302 
	0 
	2 26.09251886979280144 52.51384231069660302 
	0 
	} I I #
edge $-1 $52 -0.7954192916519297052 $34 3.937011945241707611 $45 $81 forward 7 unknown #
loop $-1 $-1 $72 $56 #
face $-1 $82 $33 $2 $-1 $83 forward single #
point $-1 -41.27500000000010516 8.889814420521867433 -8.930203995200727718 #
point $-1 -15.87500000000001421 -9.621955061054159683e-14 -5.299999999999997158 #
face $-1 $84 $85 $2 $-1 $86 forward single #
loop $-1 $-1 $87 $37 #
coedge $-1 $88 $89 $90 $91 reversed $38 $-1 #
coedge $-1 $92 $40 $93 $94 forward $21 $-1 #
coedge $-1 $40 $92 $88 $95 forward $21 $-1 #
coedge $-1 $90 $96 $40 $65 forward $55 $-1 #
edge $-1 $97 3.041425232428233372 $98 3.141592653589793116 $64 $99 forward 7 unknown #
coedge $-1 $42 $41 $100 $101 forward $12 $-1 #
coedge $-1 $87 $102 $41 $68 reversed $60 $-1 #
edge $-1 $73 40.16092628413841226 $103 160.6437051365536774 $41 $104 forward 7 unknown #
coedge $-1 $105 $106 $42 $70 reversed $107 $-1 #
edge $-1 $108 -160.6437051365536774 $74 -39.95961711528275373 $42 $109 forward 7 unknown #
coedge $-1 $110 $43 $106 $111 forward $55 $-1 #
coedge $-1 $43 $112 $87 $113 forward $55 $-1 #
vertex $-1 $44 $114 #
vertex $-1 $44 $115 #
ellipse-curve $-1 -41.27500000000031122 -4.939694202179960116e-13 -17.99999999999999645 -0.3162277660168280047 -0.9486832980505170987 3.344068878819311616e-15 38.10000000000013642 -12.69999999999959961 4.476696791044740381e-14 0.3162277660168379967 I I #
intcurve-curve $-1 forward { surfintcur full nubs 3 open 21 
	-37.62900036303930307 3 -35.74347427247079878 2 -33.68696845439699672 2 -32.32747014681059738 2 -30.96797183922430108 2 
	-28.24897522405149886 2 -26.24783069832960081 2 -24.24668617260759973 2 -22.24554164688559865 2 -20.24439712116360113 2 
	-18.36707902315900043 2 -16.48976092515430025 2 -14.61244282714969955 2 -13.6737837781473992 2 -12.73512472914510063 2 
	-12.23991964631930074 2 -12.00587018434389996 2 -11.77182072236860044 2 -11.59838268367619918 2 -11.42494464498389917 2 
	-11.3816128218755992 3 
	-41.27499999999992042 -8.889814420522652583 -8.930203995200534095 
	-41.94115565717011407 -8.888441276265679036 -9.10375543562835432 
	-42.60980981468512141 -8.86989896880799833 -9.263481358021463663 
	-43.98462944050331913 -8.800416188091011449 -9.561775622504246286 
	-44.68871181021421535 -8.746695170250921691 -9.69706850948191601 
	-45.80613772879792123 -8.637824987158483125 -9.886993519222215809 
	-46.27326494591122241 -8.585788623168058464 -9.959580788712566246 
	-47.22965687484271768 -8.464273024516836941 -10.09217825477541552 
	-47.71892304093772452 -8.394791254118873169 -10.15217563787996724 
	-49.18573362879612887 -8.163853428974960025 -10.30795430582723782 
	-50.16233150528292128 -7.978710884470730846 -10.37818611488330767 
	-51.69838737088943503 -7.645420868525586222 -10.44872662887809867 
	-52.37898635288963334 -7.48393946549527378 -10.46683058809269085 
	-53.76339815005123768 -7.121544291738888255 -10.47692911427077078 
	-54.46720142735473758 -6.920594923186105696 -10.46895371305927114 
	-55.86354684008264826 -6.484453119100289875 -10.43185432526190226 
	-56.55617743583134427 -6.249188640479528267 -10.40283147362581317 
	-57.8977482141240003 -5.754888123944160938 -10.33409523058981705 
	-58.54668620906382159 -5.495825380050527897 -10.29453127586782735 
	-59.73280543263133779 -4.987076569372209889 -10.2191545629171987 
	-60.32856518885048303 -4.714669822843785774 -10.17959522470408018 
	-61.52783093912087509 -4.122665887659858974 -10.10467295262192167 
	-62.1313736532778691 -3.803125365807684233 -10.06945011382508426 
	-63.31250141090566785 -3.125355171102126572 -10.01592021563158497 
	-63.88978047274755312 -2.768062061338242064 -9.99785206830762796 
	-64.71033861638396445 -2.206757170519380917 -9.990621192288189789 
	-64.97621765403280847 -2.015501992620273519 -9.991487133194748793 
	-65.48618148127778227 -1.621038382112419463 -9.99993425386335133 
	-65.73077734388341753 -1.418492523798041915 -10.00758132176509108 
	-66.07580045454398032 -1.088107176333465542 -10.02324276117887258 
	-66.21270935483299525 -0.9451481343754730702 -10.03066955006466188 
	-66.36569249070214482 -0.7564775206349687586 -10.04014600021438497 
	-66.41717616747710906 -0.6879380586983263601 -10.04352684074351387 
	-66.51045310367321406 -0.5448573319560803263 -10.04997957831145428 
	-66.55204974644205151 -0.4701869083211356881 -10.05302756019085564 
	-66.60741206205723586 -0.3462223758554343056 -10.0571954467183744 
	-66.62947897098845829 -0.286688191275443538 -10.0589040889288448 
	-66.66128506642785112 -0.1645991155594909161 -10.06140047267602533 
	-66.67085702281335102 -0.1020003189364309948 -10.06216858066581565 
	-66.67459982546495212 -0.02984132072369633654 -10.06246795636674563 
	-66.67500000000001137 -0.01504796557750304187 -10.06250000000000711 
	-66.67500000000002558 -6.777086789027051664e-13 -10.06250000000000711 
	0.001000000000000000021 
	torus -41.15645729995981128 -3.904892897469893101e-13 -8.945705467095296015 -0.9956342260592880855 -1.139666295687122495e-14 -0.09334070869305841067 -37.62540364583330188 46.51540364583330245 1.109321019239625436e-14 -1 3.769879373949348256e-15 forward_v I I I I 
	cone -66.67500000000001137 -7.600204523345277342e-13 -17.99999999999999645 1 1.04744500833281462e-14 -1.232595164407830946e-29 8.314094753641716046e-14 -7.9375 2.797935494402992163e-14 1 I I 0.1842885350501849984 0.9828721869343219897 7.9375 forward I I I I 
	nullbs 
	nullbs 
	F -37.62900036303930307 F -11.3816128218755992 
	0 
	2 -37.62900036303930307 -11.3816128218755992 
	0 
	} I I #
face $-1 $116 $117 $2 $-1 $118 forward single #
point $-1 -92.07499999999997442 -3.175000000001025668 -17.99999999999998579 #
point $-1 -66.67500000000002558 -6.777086789027051664e-13 -10.06250000000000711 #
point $-1 -41.27499999999992042 -8.889814420522652583 -8.930203995200534095 #
ellipse-curve $-1 -41.27500000000001279 -4.939694202179927804e-13 -17.99999999999999645 1 1.04744500833281462e-14 -1.232595164407830946e-29 1.330255160582674517e-13 -12.69999999999999929 4.476696791044787081e-14 1 I I #
face $-1 $119 $120 $2 $-1 $121 reversed single #
cone-surface $-1 34.92499999999998295 3.041836761316118792e-13 -17.99999999999999645 1 1.04744500833281462e-14 -1.232595164407830946e-29 1.330255160582674517e-13 -12.69999999999999929 4.476696791044787081e-14 1 I I 0 1 12.69999999999999929 forward I I I I #
face $-1 $122 $123 $2 $-1 $124 forward single #
loop $-1 $-1 $125 $59 #
plane-surface $-1 111.12500000000054 -50.79999999999898819 -16.72999999999980858 -2.46146651317553379e-29 3.524958103184872016e-15 1 1 1.04744500833281462e-14 -1.232595164407830946e-29 forward_v I I I I #
coedge $-1 $102 $67 $72 $113 reversed $60 $-1 #
coedge $-1 $89 $61 $63 $95 reversed $38 $-1 #
coedge $-1 $61 $88 $126 $127 reversed $38 $-1 #
coedge $-1 $112 $64 $61 $91 forward $55 $-1 #
edge $-1 $98 -38.10000000000000142 $128 76.20000000000000284 $90 $129 forward 7 unknown #
coedge $-1 $63 $62 $130 $131 reversed $21 $-1 #
coedge $-1 $125 $132 $62 $94 reversed $85 $-1 #
edge $-1 $97 -120.6840880212708811 $133 -2.49992625214404702e-29 $62 $134 forward 7 unknown #
edge $-1 $135 0 $98 120.4827788524152368 $63 $136 forward 7 unknown #
coedge $-1 $64 $137 $125 $138 forward $55 $-1 #
vertex $-1 $65 $139 #
vertex $-1 $65 $140 #
ellipse-curve $-1 -41.27500000000001279 -4.939694202179927804e-13 -17.99999999999999645 -0.3162277660168479332 0.9486832980505105484 -3.344068878819304122e-15 -38.09999999999986642 -12.70000000000039897 4.476696791044833782e-14 0.3162277660168379967 I I #
coedge $-1 $141 $142 $66 $101 reversed $143 $-1 #
edge $-1 $103 0 $108 1.269999999999999574 $66 $144 forward 7 unknown #
coedge $-1 $67 $87 $141 $145 reversed $60 $-1 #
vertex $-1 $145 $146 #
straight-curve $-1 -41.27500000000001279 -4.939694202179927804e-13 -17.99999999999999645 0.9486832980505173207 -0.3162277660168280602 1.172777806000982545e-15 I I #
coedge $-1 $106 $69 $142 $147 reversed $107 $-1 #
coedge $-1 $69 $105 $71 $111 reversed $107 $-1 #
loop $-1 $-1 $106 $148 #
vertex $-1 $101 $149 #
straight-curve $-1 -41.27500000000001279 -4.892594359165448301e-13 -16.72999999999999687 -0.9486832980505173207 0.3162277660168280602 -1.172777806000982545e-15 I I #
coedge $-1 $150 $71 $151 $152 reversed $55 $-1 #
edge $-1 $74 -38.29097864623778946 $153 76.20000000000003126 $71 $154 forward 7 unknown #
coedge $-1 $72 $90 $155 $156 reversed $55 $-1 #
edge $-1 $157 -76.20000000000003126 $73 38.09999999999998721 $72 $158 forward 7 unknown #
point $-1 -3.174999999999876366 -12.70000000000009521 -17.99999999999995026 #
point $-1 -3.365978646237678618 -12.63634045125419192 -16.72999999999995069 #
face $-1 $159 $160 $2 $-1 $161 forward single #
loop $-1 $47 $162 $77 #
sphere-surface $-1 -92.07500000000001705 -1.026071484451062688e-12 -17.99999999999999645 3.174999999999999822 1.04744500833281462e-14 -1 3.524958103184872016e-15 -1 -1.04744500833281462e-14 1.232595164407830946e-29 forward_v I I I I #
face $-1 $163 $164 $2 $-1 $165 forward single #
loop $-1 $-1 $166 $82 #
plane-surface $-1 96.83749999999997726 0.38100000000104145 7.183639525940002102 1.04744500833281462e-14 -1 3.524958103184872016e-15 1 1.04744500833281462e-14 -1.232595164407830946e-29 forward_v I I I I #
face $-1 $148 $143 $2 $-1 $124 forward single #
loop $-1 $-1 $167 $84 #
plane-surface $-1 111.12499999999946 50.8000000000010985 -18.00000000000018474 1 1.04744500833281462e-14 -1.232595164407830946e-29 2.653872685048119002e-29 -3.708649056258229393e-15 -1 forward_v I I I I #
coedge $-1 $132 $93 $96 $138 reversed $85 $-1 #
coedge $-1 $130 $167 $89 $127 forward $123 $-1 #
edge $-1 $128 63.50000000000009948 $135 101.6000000000000938 $126 $168 forward 7 unknown #
vertex $-1 $156 $169 #
straight-curve $-1 34.92499999999985505 12.70000000000030305 -18.00000000000004263 1 1.04744500833281462e-14 -1.232595164407830946e-29 I I #
coedge $-1 $170 $126 $92 $131 forward $123 $-1 #
edge $-1 $135 0 $133 1.27000000000002089 $130 $171 forward 7 unknown #
coedge $-1 $93 $125 $170 $172 reversed $85 $-1 #
vertex $-1 $131 $173 #
straight-curve $-1 111.12499999999946 50.8000000000011056 -16.73000000000018517 0.9486832980505106594 0.3162277660168479332 -1.172777806001005816e-15 I I #
vertex $-1 $127 $174 #
straight-curve $-1 111.12499999999946 50.8000000000010985 -18.00000000000018474 -0.9486832980505106594 -0.3162277660168479332 1.172777806001005816e-15 I I #
coedge $-1 $96 $175 $176 $177 reversed $55 $-1 #
edge $-1 $178 -76.20000000000000284 $97 38.29097864623780367 $96 $179 forward 7 unknown #
point $-1 -3.365978646237948624 12.63634045125400718 -16.73000000000003951 #
point $-1 -3.175000000000146372 12.69999999999990337 -18.00000000000004263 #
coedge $-1 $180 $100 $102 $145 forward $143 $-1 #
coedge $-1 $100 $180 $105 $147 forward $143 $-1 #
loop $-1 $-1 $180 $122 #
straight-curve $-1 111.12500000000054 -50.79999999999899529 -17.99999999999980815 -2.46146651317553379e-29 3.524958103184872016e-15 1 I I #
edge $-1 $103 0 $157 38.10000000000009379 $141 $168 forward 7 unknown #
point $-1 111.12500000000054 -50.79999999999899529 -17.99999999999980815 #
edge $-1 $153 -38.16365954874599709 $108 0 $142 $181 forward 7 unknown #
face $-1 $56 $107 $2 $-1 $86 forward single #
point $-1 111.12500000000054 -50.79999999999898819 -16.72999999999980858 #
coedge $-1 $182 $110 $183 $184 forward $55 $-1 #
coedge $-1 $185 $186 $110 $152 forward $187 $-1 #
edge $-1 $188 -1.540791824971419643 $153 -0.1001674211615596749 $110 $189 forward 7 unknown #
vertex $-1 $152 $190 #
straight-curve $-1 34.92500000000011084 -12.63634045125379046 -16.72999999999994003 1 1.04744500833281462e-14 -1.232595164407830946e-29 I I #
coedge $-1 $191 $185 $112 $156 forward $187 $-1 #
edge $-1 $157 -1.116779459809946569e-16 $128 3.141592653589793116 $112 $189 forward 7 unknown #
vertex $-1 $192 $193 #
straight-curve $-1 34.92500000000011084 -12.69999999999969553 -17.99999999999995026 -1 -1.04744500833281462e-14 1.232595164407830946e-29 I I #
face $-1 $-1 $194 $2 $-1 $195 forward single #
loop $-1 $196 $197 $116 #
cone-surface $-1 -104.7750000000000057 -1.159097000509330064e-12 -17.99999999999999645 -1 -1.04744500833281462e-14 1.232595164407830946e-29 1.330255160582674682e-15 -0.1270000000000000018 4.476696791044787831e-16 1 I I 0 1 0.1270000000000000018 forward I I I I #
coedge $-1 $162 $162 $198 $199 forward $117 $-1 #
face $-1 $200 $201 $2 $-1 $202 forward single #
loop $-1 $-1 $203 $119 #
plane-surface $-1 60.32499999999998863 0.3810000000005702714 -17.99999999999999645 -0.7497766793969099508 -5.521065478779195569e-15 0.6616909633904209942 1.04744500833281462e-14 -1 3.524958103184872016e-15 forward_v I I I I #
coedge $-1 $204 $205 $175 $206 reversed $120 $-1 #
coedge $-1 $126 $170 $191 $207 reversed $123 $-1 #
straight-curve $-1 111.12500000000054 -50.79999999999899529 -17.99999999999980815 -1.04744500833281462e-14 1 -3.708649056258227816e-15 I I #
point $-1 111.1249999999998579 12.70000000000110063 -18.00000000000004263 #
coedge $-1 $167 $130 $132 $172 forward $123 $-1 #
straight-curve $-1 111.12499999999946 50.8000000000010985 -18.00000000000018474 -2.46146651317553379e-29 3.524958103184872016e-15 1 I I #
edge $-1 $133 -101.6000000000000938 $178 -63.43634045125419618 $170 $181 forward 7 unknown #
point $-1 111.12499999999946 50.8000000000011056 -16.73000000000016385 #
point $-1 111.12499999999946 50.8000000000010985 -18.00000000000018474 #
coedge $-1 $137 $182 $166 $206 forward $55 $-1 #
coedge $-1 $186 $191 $137 $177 forward $187 $-1 #
edge $-1 $178 -3.041425232428233372 $208 -1.600800828618373695 $137 $189 forward 7 unknown #
vertex $-1 $207 $209 #
straight-curve $-1 34.92499999999985505 12.63634045125440863 -16.7300000000000324 -1 -1.04744500833281462e-14 1.232595164407830946e-29 I I #
coedge $-1 $142 $141 $185 $192 reversed $143 $-1 #
straight-curve $-1 111.12500000000054 -50.79999999999898819 -16.72999999999980858 1.04744500833281462e-14 -1 3.708649056258227816e-15 I I #
coedge $-1 $175 $150 $203 $210 forward $55 $-1 #
coedge $-1 $211 $212 $150 $184 reversed $213 $-1 #
edge $-1 $188 -76.20000000000001705 $214 -36.60292621894299714 $150 $215 forward 7 unknown #
coedge $-1 $155 $151 $180 $192 forward $187 $-1 #
coedge $-1 $151 $176 $216 $217 forward $187 $-1 #
loop $-1 $-1 $151 $218 #
vertex $-1 $217 $219 #
ellipse-curve $-1 111.125 1.102336772481216741e-12 -17.99999999999999645 1 1.04744500833281462e-14 -1.232595164407830946e-29 1.330255160582674517e-13 -12.69999999999999929 4.476696791044787081e-14 1 I I #
point $-1 111.1250000000001421 -12.63634045125299288 -16.72999999999995069 #
coedge $-1 $176 $155 $167 $207 forward $187 $-1 #
edge $-1 $153 -0.1001674211615596749 $157 -1.116779459809946569e-16 $185 $189 forward 7 unknown #
point $-1 111.1250000000001421 -12.69999999999889795 -17.99999999999995026 #
loop $-1 $-1 $220 $159 #
plane-surface $-1 -117.4750000000000085 -1.29212251656759744e-12 -17.99999999999999645 -1 -1.04744500833281462e-14 1.232595164407830946e-29 1.04744500833281462e-14 -1 3.524958103184872016e-15 forward_v I I I I #
loop $-1 $-1 $198 $116 #
coedge $-1 $197 $197 $220 $221 reversed $160 $-1 #
coedge $-1 $198 $198 $162 $199 reversed $196 $-1 #
edge $-1 $222 3.52495810318487241e-15 $222 6.283185307179589785 $162 $223 forward 7 unknown #
face $-1 $224 $225 $2 $-1 $226 forward single #
loop $-1 $-1 $227 $163 #
plane-surface $-1 104.7749999999999773 0.3810000000012133681 32.3672790518800042 -2.46146651317553379e-29 3.524958103184872016e-15 1 1.04744500833281462e-14 -1 3.524958103184872016e-15 forward_v I I I I #
coedge $-1 $228 $229 $182 $210 reversed $164 $-1 #
coedge $-1 $230 $166 $229 $231 reversed $120 $-1 #
coedge $-1 $166 $230 $232 $233 reversed $120 $-1 #
edge $-1 $234 36.60292621894299714 $208 76.20000000000001705 $175 $235 forward 7 unknown #
edge $-1 $128 -3.141592653589793116 $178 -3.041425232428233372 $191 $189 forward 7 unknown #
vertex $-1 $177 $236 #
point $-1 111.1249999999998579 12.63634045125520622 -16.73000000000003951 #
edge $-1 $214 3.111588151766316201 $234 3.171597155413270031 $182 $237 forward 7 unknown #
coedge $-1 $238 $183 $239 $240 reversed $213 $-1 #
coedge $-1 $183 $238 $228 $241 reversed $213 $-1 #
loop $-1 $-1 $183 $224 #
vertex $-1 $210 $242 #
straight-curve $-1 34.92499999999998295 -0.3809999999996510622 -5.305716286453995068 -1 -1.04744500833281462e-14 1.232595164407830946e-29 I I #
coedge $-1 $232 $239 $186 $217 reversed $225 $-1 #
edge $-1 $208 -1.600800828618373695 $188 -1.540791824971419643 $186 $189 forward 7 unknown #
face $-1 $243 $244 $2 $-1 $245 forward single #
point $-1 111.125 -0.3809999999988529229 -5.305716286453995068 #
coedge $-1 $220 $220 $197 $221 forward $194 $-1 #
edge $-1 $246 -3.52495810318487241e-15 $246 6.283185307179582679 $220 $247 forward 7 unknown #
vertex $-1 $199 $248 #
ellipse-curve $-1 -95.24745898318641935 -1.059301247711854499e-12 -17.99999999999999645 1 1.04744500833281462e-14 -1.232595164407830946e-29 1.774344370432737693e-15 -0.1270000000000000018 4.476696791044787831e-16 1 I I #
face $-1 $218 $213 $2 $-1 $249 forward single #
loop $-1 $-1 $216 $200 #
plane-surface $-1 111.125 0.3810000000012798704 32.3672790518800042 1 1.04744500833281462e-14 -1.232595164407830946e-29 -1.04744500833281462e-14 1 -3.524958103184872016e-15 forward_v I I I I #
coedge $-1 $250 $251 $238 $252 forward $201 $-1 #
coedge $-1 $253 $203 $212 $241 forward $164 $-1 #
coedge $-1 $203 $253 $204 $231 forward $164 $-1 #
coedge $-1 $205 $204 $254 $255 reversed $120 $-1 #
edge $-1 $256 -0 $234 50.24562162781134589 $229 $257 forward 7 unknown #
coedge $-1 $258 $216 $205 $233 forward $225 $-1 #
edge $-1 $208 12.69428371354599783 $259 50.3672790518800042 $232 $260 forward 7 unknown #
vertex $-1 $210 $261 #
straight-curve $-1 34.92499999999998295 0.3810000000003489484 -5.30571628645399862 1 1.04744500833281462e-14 -1.232595164407830946e-29 I I #
point $-1 111.125 0.3810000000011470878 -5.30571628645399862 #
ellipse-curve $-1 60.32499999999998863 5.702347082481468331e-13 -17.99999999999999645 -0.7497766793969099508 -5.521065478779195569e-15 0.6616909633904209942 -11.20797094118450055 -1.621643000692773063e-13 -12.69999999999999929 0.7497766793969099508 I I #
coedge $-1 $212 $211 $227 $252 reversed $213 $-1 #
coedge $-1 $216 $258 $211 $240 forward $225 $-1 #
edge $-1 $262 -50.3672790518800042 $188 -12.69428371354600138 $239 $263 forward 7 unknown #
edge $-1 $214 -50.24562162781134589 $264 0 $228 $265 forward 7 unknown #
point $-1 71.52792621894298009 -0.3809999999992676467 -5.305716286453995068 #
face $-1 $77 $266 $2 $-1 $267 forward single #
loop $-1 $187 $268 $218 #
cone-surface $-1 114.2999999999999829 1.135593151495783282e-12 -17.99999999999999645 1 1.04744500833281462e-14 -1.232595164407830946e-29 1.197229644524406989e-13 -11.42999999999999972 4.029027111940308436e-14 1 I I -0.371390676354103999 0.9284766908852589706 11.42999999999999972 forward I I I I #
vertex $-1 $221 $269 #
ellipse-curve $-1 -117.4750000000000085 -1.29212251656759744e-12 -17.99999999999999645 -1 -1.04744500833281462e-14 1.232595164407830946e-29 1.330255160582674682e-15 -0.1270000000000000018 4.476696791044787831e-16 1 I I #
point $-1 -95.24745898318641935 -0.1270000000010593211 -17.99999999999999645 #
plane-surface $-1 104.7749999999999773 -0.3809999999987866426 32.3672790518800042 1.04744500833281462e-14 -1 3.524958103184872016e-15 1 1.04744500833281462e-14 -1.232595164407830946e-29 forward_v I I I I #
coedge $-1 $254 $227 $258 $270 reversed $201 $-1 #
coedge $-1 $227 $254 $253 $271 forward $201 $-1 #
edge $-1 $264 -6.350000000000022737 $262 0 $227 $272 forward 7 unknown #
coedge $-1 $229 $228 $251 $271 reversed $164 $-1 #
coedge $-1 $251 $250 $230 $255 forward $201 $-1 #
edge $-1 $259 0 $256 6.350000000000022737 $254 $273 forward 7 unknown #
vertex $-1 $231 $274 #
straight-curve $-1 104.7749999999999773 0.3810000000012133681 32.3672790518800042 -0.6616909633904209942 -9.5737803482414601e-15 -0.7497766793969099508 I I #
coedge $-1 $239 $232 $250 $270 forward $225 $-1 #
vertex $-1 $233 $275 #
straight-curve $-1 111.125 0.3810000000011023458 -17.99999999999999645 -2.46146651317553379e-29 3.524958103184872016e-15 1 I I #
point $-1 71.52792621894298009 0.3810000000007323639 -5.30571628645399862 #
vertex $-1 $270 $276 #
straight-curve $-1 111.125 -0.3809999999988976649 -17.99999999999999645 2.46146651317553379e-29 -3.524958103184872016e-15 -1 I I #
vertex $-1 $271 $277 #
straight-curve $-1 104.7749999999999773 -0.3809999999987866426 32.3672790518800042 0.6616909633904209942 9.5737803482414601e-15 0.7497766793969099508 I I #
loop $-1 $-1 $278 $243 #
plane-surface $-1 117.4749999999999943 1.168849530510350631e-12 -17.99999999999999645 1 1.04744500833281462e-14 -1.232595164407830946e-29 1.04744500833281462e-14 -1 3.524958103184872016e-15 forward_v I I I I #
coedge $-1 $268 $268 $278 $279 reversed $244 $-1 #
point $-1 -117.4750000000000085 -0.1270000000012921348 -17.99999999999999645 #
edge $-1 $259 0 $262 0.7620000000000000107 $258 $280 forward 7 unknown #
edge $-1 $256 0 $264 0.7620000000000000107 $251 $281 forward 7 unknown #
straight-curve $-1 111.125 -0.3809999999987201402 32.3672790518800042 1 1.04744500833281462e-14 -1.232595164407830946e-29 I I #
straight-curve $-1 111.125 0.3810000000012798704 32.3672790518800042 -1 -1.04744500833281462e-14 1.232595164407830946e-29 I I #
point $-1 104.7749999999999773 0.3810000000012133681 32.3672790518800042 #
point $-1 111.125 0.3810000000012798704 32.3672790518800042 #
point $-1 111.125 -0.3809999999987201402 32.3672790518800042 #
point $-1 104.7749999999999773 -0.3809999999987866426 32.3672790518800042 #
coedge $-1 $278 $278 $268 $279 forward $266 $-1 #
edge $-1 $282 2.819267129461545984e-17 $282 6.283185307179586232 $278 $283 forward 7 unknown #
straight-curve $-1 111.125 0.3810000000012798704 32.3672790518800042 1.04744500833281462e-14 -1 3.524958103184872016e-15 I I #
straight-curve $-1 104.7749999999999773 0.3810000000012133681 32.3672790518800042 1.04744500833281462e-14 -1 3.524958103184872016e-15 I I #
vertex $-1 $279 $284 #
ellipse-curve $-1 117.4749999999999943 1.168849530510350631e-12 -17.99999999999999645 1 1.04744500833281462e-14 -1.232595164407830946e-29 1.064204128466139714e-13 -10.16000000000000014 3.581357432835829791e-14 1 I I #
point $-1 117.475000000000108 -10.1599999999988313 -17.99999999999996092 #
End-of-ACIS-data 