600 0 1 0           
70 GICL ACIS Healer - Source: /gicl/data5/repository/new/plinth.sat - 6 0 18 ACIS 6.0.3 Solaris 24 Sat Apr 13 20:07:52 2002 
1 9.999999999999999547e-07 1.000000000000000036e-10 
body $-1 $1 $-1 $-1 #
lump $-1 $-1 $2 $0 #
shell $-1 $-1 $-1 $3 $-1 $1 #
face $-1 $4 $5 $2 $-1 $6 forward single #
face $-1 $7 $8 $2 $-1 $6 forward single #
loop $-1 $-1 $9 $3 #
plane-surface $-1 2.618611004132350143e-13 -25 30 1.031531367597050018e-14 -0.9848077530122080203 0.1736481776669309973 1.81886811554461996e-15 -0.1736481776669309973 -0.9848077530122080203 forward_v I I I I #
face $-1 $10 $11 $2 $-1 $6 forward single #
loop $-1 $-1 $12 $4 #
coedge $-1 $13 $14 $15 $16 reversed $5 $-1 #
face $-1 $17 $18 $2 $-1 $19 forward single #
loop $-1 $-1 $20 $7 #
coedge $-1 $21 $22 $23 $24 reversed $8 $-1 #
coedge $-1 $25 $9 $26 $27 forward $5 $-1 #
coedge $-1 $9 $25 $28 $29 reversed $5 $-1 #
coedge $-1 $30 $31 $9 $16 forward $32 $-1 #
edge $-1 $33 -55.02544029963636518 $34 -9.430308444971645443 $15 $35 forward 7 unknown #
face $-1 $36 $37 $2 $-1 $19 forward single #
loop $-1 $-1 $38 $10 #
plane-surface $-1 1.384335873787509912e-12 -132.163184184567001 -1.875569883917330039 -1.81886811554461996e-15 0.1736481776669309973 0.9848077530122080203 1.031531367597050018e-14 -0.9848077530122080203 0.1736481776669309973 forward_v I I I I #
coedge $-1 $39 $40 $41 $42 reversed $11 $-1 #
coedge $-1 $22 $12 $43 $44 forward $8 $-1 #
coedge $-1 $12 $21 $45 $46 reversed $8 $-1 #
coedge $-1 $47 $48 $12 $24 forward $49 $-1 #
edge $-1 $50 -38.32052545923360043 $51 -21.74344402979600943 $23 $52 forward 7 unknown #
coedge $-1 $14 $13 $53 $54 reversed $5 $-1 #
coedge $-1 $55 $56 $13 $27 reversed $37 $-1 #
edge $-1 $33 -33.68240888334665328 $50 33.68240888334624827 $13 $57 forward 7 unknown #
coedge $-1 $58 $59 $14 $29 forward $60 $-1 #
edge $-1 $34 -25.88163490354236984 $61 25.88163490354202878 $28 $62 forward 7 unknown #
coedge $-1 $63 $15 $59 $64 reversed $32 $-1 #
coedge $-1 $15 $63 $65 $66 forward $32 $-1 #
loop $-1 $-1 $15 $67 #
vertex $-1 $66 $68 #
vertex $-1 $64 $69 #
straight-curve $-1 -24.26822352064390032 -24.26822352064430177 34.15011064339510227 0.1710878697460349873 0.1710878697460380127 0.9702875252478140311 I I #
face $-1 $70 $71 $2 $-1 $19 forward single #
loop $-1 $-1 $55 $17 #
coedge $-1 $72 $43 $73 $74 reversed $18 $-1 #
coedge $-1 $40 $20 $75 $76 forward $11 $-1 #
coedge $-1 $20 $39 $77 $78 reversed $11 $-1 #
coedge $-1 $79 $80 $20 $42 forward $81 $-1 #
edge $-1 $82 -37.39848592565359553 $83 -34.47686841682072867 $41 $84 forward 7 unknown #
coedge $-1 $38 $72 $21 $44 reversed $18 $-1 #
edge $-1 $50 33.68240888334624827 $85 49.99999999999964473 $21 $57 forward 7 unknown #
coedge $-1 $86 $87 $22 $46 forward $88 $-1 #
edge $-1 $51 34.47686841682055814 $85 37.39848592565339658 $45 $89 forward 7 unknown #
coedge $-1 $90 $23 $87 $91 reversed $49 $-1 #
coedge $-1 $23 $90 $92 $93 reversed $49 $-1 #
loop $-1 $-1 $23 $94 #
vertex $-1 $95 $96 #
vertex $-1 $91 $97 #
straight-curve $-1 71.40308175816730341 -32.50962774323360094 -12.58921529230149972 0.9843464415682130486 0.03060451614527660152 0.173566836012845005 I I #
coedge $-1 $92 $98 $25 $54 forward $99 $-1 #
edge $-1 $61 9.430308444971556625 $50 55.02544029963628702 $53 $100 forward 7 unknown #
coedge $-1 $101 $26 $102 $103 reversed $37 $-1 #
coedge $-1 $26 $101 $104 $105 reversed $37 $-1 #
straight-curve $-1 3.528045061904660154e-13 -33.68240888334649696 -19.24038765061040124 1 1.047444401652940007e-14 0 I I #
coedge $-1 $106 $28 $98 $107 forward $60 $-1 #
coedge $-1 $28 $106 $30 $64 forward $60 $-1 #
loop $-1 $-1 $28 $108 #
vertex $-1 $54 $109 #
straight-curve $-1 2.710957358534070117e-13 -25.88163490354229879 25 1 1.047444401652940007e-14 -0 I I #
coedge $-1 $31 $30 $110 $111 reversed $32 $-1 #
edge $-1 $112 -25.8816349035423805 $34 25.88163490354241958 $59 $113 forward 7 unknown #
coedge $-1 $114 $77 $31 $66 reversed $115 $-1 #
edge $-1 $116 -33.68240888334663197 $33 33.68240888334666749 $31 $117 forward 7 unknown #
face $-1 $108 $32 $2 $-1 $118 forward single #
point $-1 -33.68240888334629801 -33.68240888334690197 -19.24038765061040124 #
point $-1 -25.88163490354209983 -25.88163490354260077 25 #
face $-1 $119 $81 $2 $-1 $120 reversed single #
loop $-1 $-1 $121 $36 #
coedge $-1 $43 $38 $86 $122 reversed $18 $-1 #
coedge $-1 $123 $124 $38 $74 forward $125 $-1 #
edge $-1 $126 24.36052760676385631 $50 47.61576403280793102 $73 $127 forward 7 unknown #
coedge $-1 $121 $128 $39 $76 reversed $71 $-1 #
edge $-1 $82 -50.00000000000035527 $33 -33.68240888334665328 $39 $57 forward 7 unknown #
coedge $-1 $65 $129 $40 $78 forward $115 $-1 #
edge $-1 $83 21.74344402979538415 $33 38.32052545923326647 $77 $130 forward 7 unknown #
coedge $-1 $131 $41 $129 $132 forward $81 $-1 #
coedge $-1 $41 $133 $121 $134 forward $81 $-1 #
loop $-1 $-1 $80 $70 #
vertex $-1 $134 $135 #
vertex $-1 $78 $136 #
straight-curve $-1 -50 -27.18822995485500016 17.58993123989120022 -0 0.1736481776669309973 0.9848077530122080203 I I #
vertex $-1 $122 $137 #
coedge $-1 $138 $45 $72 $122 forward $88 $-1 #
coedge $-1 $45 $139 $47 $91 forward $88 $-1 #
loop $-1 $-1 $45 $140 #
straight-curve $-1 50 -27.18822995485389882 17.58993123989100127 -0 -0.1736481776669309973 -0.9848077530122080203 I I #
coedge $-1 $48 $47 $141 $142 forward $49 $-1 #
edge $-1 $143 -33.17507532709809936 $51 33.17507532709740303 $87 $144 forward 7 unknown #
coedge $-1 $145 $53 $48 $93 forward $99 $-1 #
edge $-1 $50 -33.68240888334619854 $146 33.68240888334670302 $92 $147 forward 7 unknown #
face $-1 $140 $49 $2 $-1 $148 forward single #
edge $-1 $149 -50 $50 -33.68240888334619854 $150 $147 forward 7 unknown #
point $-1 33.68240888334660355 -33.68240888334619854 -19.24038765061040124 #
point $-1 50 -33.17507532709740303 -16.36315607657559923 #
coedge $-1 $53 $145 $58 $107 reversed $99 $-1 #
loop $-1 $-1 $53 $151 #
straight-curve $-1 24.26822352064409927 -24.26822352064380084 34.1501106433950028 0.1710878697460359865 -0.1710878697460339881 -0.9702875252478140311 I I #
coedge $-1 $56 $55 $152 $153 reversed $37 $-1 #
coedge $-1 $154 $155 $55 $103 forward $156 $-1 #
edge $-1 $157 21.74344402979600943 $33 38.32052545923328779 $102 $158 forward 7 unknown #
coedge $-1 $159 $150 $56 $105 forward $160 $-1 #
edge $-1 $50 -38.32052545923370701 $161 -21.74344402979571811 $104 $162 forward 7 unknown #
coedge $-1 $59 $58 $163 $164 forward $60 $-1 #
edge $-1 $61 -25.88163490354209983 $165 25.88163490354239826 $58 $166 forward 7 unknown #
face $-1 $151 $60 $2 $-1 $167 forward single #
point $-1 25.88163490354229879 -25.88163490354209983 25 #
coedge $-1 $163 $168 $63 $111 forward $169 $-1 #
edge $-1 $116 -55.02544029963635808 $112 -9.430308444971631232 $110 $170 forward 7 unknown #
vertex $-1 $164 $171 #
straight-curve $-1 -25.88163490354229879 -1.807304905689379994e-13 25 6.982962677686269866e-15 -1 0 I I #
coedge $-1 $129 $65 $172 $173 reversed $115 $-1 #
loop $-1 $-1 $77 $119 #
vertex $-1 $174 $175 #
straight-curve $-1 -33.68240888334649696 -2.35203004126977007e-13 -19.24038765061040124 6.982962677686269866e-15 -1 0 I I #
plane-surface $-1 -25 -1.745740669421569959e-13 30 -0.9848077530122080203 -6.876875783980319779e-15 0.1736481776669309973 -0.1736481776669309973 -1.212578743696410019e-15 -0.9848077530122080203 forward_v I I I I #
face $-1 $67 $115 $2 $-1 $176 forward single #
plane-surface $-1 -50 0 0 1 0 0 0 0 -1 forward_v I I I I #
coedge $-1 $128 $75 $80 $134 reversed $71 $-1 #
edge $-1 $85 -35.08518042234400269 $126 -18.51586416062311002 $86 $177 forward 7 unknown #
coedge $-1 $124 $73 $150 $95 reversed $125 $-1 #
coedge $-1 $73 $123 $178 $179 reversed $125 $-1 #
loop $-1 $-1 $73 $180 #
vertex $-1 $179 $181 #
straight-curve $-1 67.09314502724029694 -67.09314502723960061 -13.34917342311040045 -0.7016738431598670278 0.7016738431598600334 -0.1237240302064849945 I I #
coedge $-1 $75 $121 $182 $183 reversed $71 $-1 #
coedge $-1 $77 $114 $79 $132 reversed $115 $-1 #
straight-curve $-1 -71.40308175816670655 -32.50962774323510018 -12.58921529230159919 0.9843464415682140478 -0.03060451614525599995 -0.173566836012845005 I I #
coedge $-1 $184 $79 $185 $186 forward $81 $-1 #
edge $-1 $83 -33.17507532709791462 $187 33.17507532709828411 $79 $188 forward 7 unknown #
coedge $-1 $80 $189 $190 $191 reversed $81 $-1 #
edge $-1 $192 18.51586416062307805 $82 35.08518042234288714 $80 $193 forward 7 unknown #
point $-1 -50 -33.68240888334710093 -19.24038765061040124 #
point $-1 -50 -33.17507532709839779 -16.36315607657559923 #
point $-1 50 -33.68240888334599958 -19.24038765061040124 #
coedge $-1 $194 $86 $195 $196 forward $88 $-1 #
coedge $-1 $87 $197 $198 $199 forward $88 $-1 #
face $-1 $200 $88 $2 $-1 $201 reversed single #
coedge $-1 $198 $202 $90 $142 reversed $203 $-1 #
edge $-1 $143 21.74344402979557955 $146 38.32052545923315989 $90 $204 forward 7 unknown #
vertex $-1 $142 $205 #
straight-curve $-1 50 0 -16.36315607657559923 0 -1 0 I I #
coedge $-1 $98 $92 $206 $207 forward $99 $-1 #
vertex $-1 $93 $208 #
straight-curve $-1 33.68240888334649696 0 -19.24038765061040124 0 1 0 I I #
plane-surface $-1 132.163184184567001 0 -1.875569883917330039 -0.1736481776669309973 0 0.9848077530122080203 0.9848077530122080203 0 0.1736481776669309973 forward_v I I I I #
vertex $-1 $179 $209 #
coedge $-1 $104 $159 $123 $95 forward $160 $-1 #
face $-1 $94 $99 $2 $-1 $210 forward single #
coedge $-1 $211 $212 $101 $153 forward $213 $-1 #
edge $-1 $161 -33.17507532709718276 $157 33.17507532709831963 $152 $214 forward 7 unknown #
coedge $-1 $155 $102 $215 $216 forward $156 $-1 #
coedge $-1 $102 $154 $211 $217 reversed $156 $-1 #
loop $-1 $-1 $102 $200 #
vertex $-1 $153 $218 #
straight-curve $-1 -32.50962774323379989 -71.40308175816730341 -12.58921529230159919 -0.03060451614527310085 0.9843464415682130486 -0.173566836012845005 I I #
coedge $-1 $150 $104 $212 $219 reversed $160 $-1 #
loop $-1 $-1 $104 $220 #
vertex $-1 $219 $221 #
straight-curve $-1 32.50962774323429727 -71.40308175816700498 -12.58921529230149972 -0.03060451614526630074 -0.9843464415682130486 0.173566836012845005 I I #
coedge $-1 $206 $110 $106 $164 reversed $169 $-1 #
edge $-1 $165 -25.8816349035423876 $112 25.88163490354241247 $106 $222 forward 7 unknown #
vertex $-1 $107 $223 #
straight-curve $-1 25.88163490354229879 0 25 0 1 0 I I #
plane-surface $-1 0 0 25 0 0 1 1 0 0 forward_v I I I I #
coedge $-1 $110 $206 $224 $174 forward $169 $-1 #
loop $-1 $-1 $110 $225 #
straight-curve $-1 -24.26822352064430177 24.26822352064399979 34.15011064339510227 0.1710878697460370135 -0.1710878697460349873 0.9702875252478140311 I I #
point $-1 -25.88163490354250129 25.88163490354219931 25 #
coedge $-1 $226 $185 $114 $173 forward $227 $-1 #
edge $-1 $187 21.74344402979591351 $116 38.32052545923328779 $172 $228 forward 7 unknown #
edge $-1 $146 -33.68240888334672434 $116 33.68240888334668171 $168 $229 forward 7 unknown #
point $-1 -33.6824088833468025 33.68240888334639749 -19.24038765061040124 #
plane-surface $-1 -132.163184184567001 -9.228905825250099063e-13 -1.875569883917330039 0.1736481776669309973 1.212578743696410019e-15 0.9848077530122080203 -0.9848077530122080203 -6.876875783980319779e-15 0.1736481776669309973 forward_v I I I I #
straight-curve $-1 50 -68.23456657910250556 -13.14791000715490021 0 -0.9848077530122080203 0.1736481776669309973 I I #
coedge $-1 $212 $195 $124 $179 forward $213 $-1 #
edge $-1 $126 18.51586416062309581 $149 35.0851804223434911 $178 $230 forward 7 unknown #
face $-1 $220 $125 $2 $-1 $148 forward single #
point $-1 50 -50 -16.36315607657559923 #
coedge $-1 $231 $215 $128 $183 forward $232 $-1 #
edge $-1 $33 -47.61576403280702152 $192 -24.36052760676321682 $182 $233 forward 7 unknown #
coedge $-1 $234 $131 $235 $236 forward $81 $-1 #
coedge $-1 $172 $226 $131 $186 reversed $227 $-1 #
edge $-1 $187 34.47686841682074999 $237 37.39848592565349605 $131 $238 forward 7 unknown #
vertex $-1 $173 $239 #
straight-curve $-1 -50 -4.804383151235110076e-13 -16.36315607657559923 0 1 -1.231284725356320089e-15 I I #
coedge $-1 $133 $234 $240 $241 reversed $81 $-1 #
coedge $-1 $242 $243 $133 $191 forward $213 $-1 #
edge $-1 $192 16.36315607657559923 $244 25 $133 $245 forward 7 unknown #
vertex $-1 $183 $246 #
straight-curve $-1 -50 -68.23456657910250556 -13.14791000715509917 0 0.9848077530122080203 -0.1736481776669309973 I I #
coedge $-1 $247 $138 $248 $249 reversed $88 $-1 #
coedge $-1 $178 $242 $138 $196 reversed $213 $-1 #
edge $-1 $126 16.36315607657559923 $250 25 $138 $251 forward 7 unknown #
coedge $-1 $139 $247 $252 $253 forward $88 $-1 #
coedge $-1 $202 $141 $139 $199 reversed $203 $-1 #
edge $-1 $254 -37.39848592565359553 $143 -34.47686841682074999 $139 $255 forward 7 unknown #
face $-1 $256 $156 $2 $-1 $118 forward single #
plane-surface $-1 50 0 0 -1 0 0 0 -0 1 forward_v I I I I #
coedge $-1 $141 $198 $257 $258 forward $203 $-1 #
loop $-1 $-1 $198 $259 #
straight-curve $-1 71.4030817581669055 32.5096277432346028 -12.58921529230159919 -0.9843464415682140478 0.03060451614526280006 -0.173566836012845005 I I #
point $-1 50 33.17507532709809936 -16.36315607657559923 #
coedge $-1 $168 $163 $145 $207 reversed $169 $-1 #
edge $-1 $146 -55.02544029963637939 $165 -9.430308444971631232 $145 $260 forward 7 unknown #
point $-1 33.68240888334660355 33.68240888334670302 -19.24038765061040124 #
point $-1 33.68240888334649696 -50 -19.24038765061040124 #
plane-surface $-1 25 0 30 0.9848077530122080203 0 0.1736481776669309973 0.1736481776669309973 0 -0.9848077530122080203 forward_v I I I I #
coedge $-1 $243 $152 $155 $217 forward $213 $-1 #
coedge $-1 $152 $178 $159 $219 forward $213 $-1 #
loop $-1 $-1 $152 $261 #
straight-curve $-1 7.20657472685265956e-13 -50 -16.36315607657559923 -1 0 -1.846927088034480034e-15 I I #
coedge $-1 $182 $231 $154 $216 reversed $232 $-1 #
edge $-1 $33 33.68240888334666749 $262 49.99999999999976552 $154 $117 forward 7 unknown #
edge $-1 $157 34.47686841682074999 $262 37.39848592565349605 $211 $263 forward 7 unknown #
point $-1 -33.17507532709760198 -50 -16.36315607657569871 #
edge $-1 $149 -37.39848592565349605 $161 -34.47686841682065761 $212 $264 forward 7 unknown #
face $-1 $265 $160 $2 $-1 $210 forward single #
point $-1 33.17507532709790041 -50 -16.36315607657559923 #
straight-curve $-1 -9.036524528446910068e-14 25.88163490354229879 25 -1 -3.491481338843129805e-15 0 I I #
point $-1 25.88163490354229879 25.88163490354239826 25 #
coedge $-1 $266 $267 $168 $174 reversed $268 $-1 #
face $-1 $259 $169 $2 $-1 $269 forward single #
coedge $-1 $185 $172 $270 $271 forward $227 $-1 #
loop $-1 $-1 $172 $272 #
straight-curve $-1 -71.40308175816720393 32.50962774323409832 -12.58921529230159919 0.9843464415682130486 0.03060451614526970079 -0.173566836012845005 I I #
straight-curve $-1 -1.176015020634890084e-13 33.68240888334649696 -19.24038765061040124 -1 -3.491481338843129805e-15 0 I I #
straight-curve $-1 68.23456657910250556 -50 -13.14791000715499969 -0.9848077530122080203 0 -0.1736481776669309973 I I #
coedge $-1 $215 $182 $243 $273 reversed $232 $-1 #
loop $-1 $-1 $182 $274 #
straight-curve $-1 -67.09314502723890428 -67.09314502724009799 -13.3491734231105994 -0.7016738431598570358 -0.7016738431598700254 0.1237240302064839953 I I #
coedge $-1 $189 $184 $275 $276 forward $81 $-1 #
coedge $-1 $270 $277 $184 $236 reversed $278 $-1 #
edge $-1 $237 -35.08518042234359058 $279 -18.51586416062309581 $184 $280 forward 7 unknown #
vertex $-1 $236 $281 #
straight-curve $-1 -50 27.18822995485430027 17.58993123989110074 0 0.1736481776669309973 -0.9848077530122080203 I I #
point $-1 -50 33.17507532709780094 -16.36315607657569871 #
coedge $-1 $282 $283 $189 $241 forward $284 $-1 #
edge $-1 $244 -50 $285 50 $189 $286 forward 7 unknown #
coedge $-1 $195 $190 $283 $287 reversed $213 $-1 #
coedge $-1 $190 $211 $231 $273 forward $213 $-1 #
vertex $-1 $241 $288 #
straight-curve $-1 -50 -50 0 0 0 -1 I I #
point $-1 -50 -50 -16.36315607657559923 #
coedge $-1 $197 $194 $289 $290 reversed $88 $-1 #
coedge $-1 $283 $282 $194 $249 forward $284 $-1 #
edge $-1 $291 -50 $250 50 $194 $292 forward 7 unknown #
vertex $-1 $196 $293 #
straight-curve $-1 50 -50 0 0 0 -1 I I #
coedge $-1 $294 $257 $197 $253 reversed $295 $-1 #
edge $-1 $296 18.51586416062309581 $254 35.08518042234329215 $197 $297 forward 7 unknown #
vertex $-1 $253 $298 #
straight-curve $-1 50 27.1882299548545987 17.58993123989120022 0 -0.1736481776669309973 0.9848077530122080203 I I #
face $-1 $274 $299 $2 $-1 $118 forward single #
coedge $-1 $252 $294 $202 $258 reversed $295 $-1 #
edge $-1 $254 -50.00000000000012079 $146 -33.68240888334672434 $202 $229 forward 7 unknown #
face $-1 $300 $203 $2 $-1 $269 forward single #
straight-curve $-1 24.26822352064409927 24.26822352064419874 34.15011064339510227 -0.1710878697460359865 -0.1710878697460359865 0.9702875252478140311 I I #
face $-1 $301 $213 $2 $-1 $302 reversed single #
vertex $-1 $273 $303 #
straight-curve $-1 -27.18822995485410132 -50 17.58993123989110074 -0.1736481776669309973 0 -0.9848077530122080203 I I #
straight-curve $-1 27.18822995485439975 -50 17.58993123989110074 -0.1736481776669309973 0 0.9848077530122080203 I I #
face $-1 $304 $305 $2 $-1 $148 forward single #
coedge $-1 $306 $224 $307 $308 reversed $268 $-1 #
coedge $-1 $224 $306 $309 $310 forward $268 $-1 #
loop $-1 $-1 $267 $311 #
plane-surface $-1 -8.728703347107829602e-14 25 30 -3.438437891990159889e-15 0.9848077530122080203 0.1736481776669309973 -6.062893718482059958e-16 0.1736481776669309973 -0.9848077530122080203 forward_v I I I I #
coedge $-1 $277 $235 $226 $271 reversed $278 $-1 #
edge $-1 $116 33.68240888334668171 $237 49.99999999999987921 $226 $229 forward 7 unknown #
face $-1 $225 $227 $2 $-1 $269 forward single #
edge $-1 $262 -35.08518042234381085 $192 -18.51586416062311002 $243 $312 forward 7 unknown #
face $-1 $313 $232 $2 $-1 $176 forward single #
coedge $-1 $314 $315 $234 $276 reversed $316 $-1 #
edge $-1 $279 16.36315607657559923 $285 25 $275 $317 forward 7 unknown #
coedge $-1 $235 $270 $318 $319 forward $278 $-1 #
loop $-1 $-1 $277 $300 #
vertex $-1 $236 $320 #
straight-curve $-1 -50 68.23456657910250556 -13.14791000715499969 -0 0.9848077530122080203 0.1736481776669309973 I I #
point $-1 -50 33.68240888334639749 -19.24038765061040124 #
coedge $-1 $248 $240 $315 $321 forward $284 $-1 #
coedge $-1 $240 $248 $242 $287 forward $284 $-1 #
loop $-1 $-1 $248 $322 #
vertex $-1 $321 $323 #
straight-curve $-1 -50 0 -25 0 1 0 I I #
edge $-1 $250 -50 $244 50 $242 $324 forward 7 unknown #
point $-1 -50 -50 -25 #
coedge $-1 $315 $325 $247 $290 forward $316 $-1 #
edge $-1 $296 16.36315607657559923 $291 25 $247 $326 forward 7 unknown #
vertex $-1 $249 $327 #
straight-curve $-1 50 0 -25 0 -1 0 I I #
point $-1 50 -50 -25 #
coedge $-1 $257 $252 $328 $329 reversed $295 $-1 #
loop $-1 $-1 $252 $330 #
vertex $-1 $331 $332 #
straight-curve $-1 50 68.23456657910250556 -13.14791000715499969 -0 -0.9848077530122080203 -0.1736481776669309973 I I #
point $-1 50 33.68240888334670302 -19.24038765061040124 #
loop $-1 $-1 $333 $256 #
face $-1 $330 $278 $2 $-1 $334 forward single #
face $-1 $311 $316 $2 $-1 $335 reversed single #
plane-surface $-1 0 -50 0 0 1 -0 -0 0 1 forward_v I I I I #
point $-1 -33.68240888334619854 -50 -19.24038765061040124 #
face $-1 $322 $336 $2 $-1 $210 forward single #
loop $-1 $-1 $328 $265 #
coedge $-1 $267 $266 $337 $338 reversed $268 $-1 #
coedge $-1 $339 $340 $266 $308 forward $336 $-1 #
edge $-1 $341 21.74344402979567903 $146 38.320525459233167 $307 $342 forward 7 unknown #
coedge $-1 $333 $343 $267 $310 reversed $299 $-1 #
edge $-1 $344 21.74344402979549074 $116 38.32052545923327358 $267 $345 forward 7 unknown #
face $-1 $272 $268 $2 $-1 $334 forward single #
straight-curve $-1 -68.23456657910250556 -50 -13.14791000715490021 -0.9848077530122080203 0 0.1736481776669309973 I I #
face $-1 $261 $346 $2 $-1 $176 forward single #
coedge $-1 $347 $275 $348 $349 forward $316 $-1 #
coedge $-1 $275 $289 $282 $321 reversed $316 $-1 #
loop $-1 $-1 $314 $301 #
straight-curve $-1 -50 50 0 0 0 -1 I I #
coedge $-1 $350 $348 $277 $319 reversed $346 $-1 #
edge $-1 $116 -47.61576403280709258 $279 -24.36052760676328433 $277 $351 forward 7 unknown #
point $-1 -50 50 -16.36315607657559923 #
edge $-1 $285 -50 $291 50 $315 $352 forward 7 unknown #
face $-1 $-1 $284 $2 $-1 $353 reversed single #
point $-1 -50 50 -25 #
straight-curve $-1 0 -50 -25 -1 0 0 I I #
coedge $-1 $289 $354 $355 $331 forward $316 $-1 #
straight-curve $-1 50 50 0 0 0 -1 I I #
point $-1 50 50 -25 #
coedge $-1 $355 $356 $294 $329 forward $305 $-1 #
edge $-1 $146 -47.61576403280695047 $296 -24.36052760676321682 $328 $357 forward 7 unknown #
face $-1 $180 $295 $2 $-1 $334 forward single #
edge $-1 $358 -35.0851804223434911 $296 -18.51586416062309581 $325 $359 forward 7 unknown #
point $-1 50 50 -16.36315607657559923 #
coedge $-1 $343 $309 $347 $360 reversed $299 $-1 #
plane-surface $-1 -4.614452912625049531e-13 132.163184184567001 -1.875569883917330039 6.062893718482059958e-16 -0.1736481776669309973 0.9848077530122080203 -3.438437891990159889e-15 0.9848077530122080203 0.1736481776669309973 forward_v I I I I #
plane-surface $-1 0 50 0 0 -1 0 0 0 -1 forward_v I I I I #
loop $-1 $-1 $307 $304 #
coedge $-1 $354 $347 $306 $338 forward $316 $-1 #
edge $-1 $344 -33.17507532709805673 $341 33.175075327098142 $337 $361 forward 7 unknown #
coedge $-1 $340 $307 $356 $362 forward $336 $-1 #
coedge $-1 $307 $339 $354 $363 reversed $336 $-1 #
vertex $-1 $338 $364 #
straight-curve $-1 32.50962774323429727 71.40308175816700498 -12.58921529230159919 0.03060451614526630074 -0.9843464415682140478 -0.173566836012845005 I I #
coedge $-1 $309 $333 $350 $365 forward $299 $-1 #
vertex $-1 $310 $366 #
straight-curve $-1 -32.50962774323480176 71.40308175816680603 -12.58921529230159919 -0.03060451614525940001 -0.9843464415682140478 -0.173566836012845005 I I #
loop $-1 $-1 $348 $313 #
coedge $-1 $337 $314 $333 $360 forward $316 $-1 #
coedge $-1 $318 $350 $314 $349 reversed $346 $-1 #
edge $-1 $279 18.51586416062309581 $367 35.0851804223430932 $314 $368 forward 7 unknown #
coedge $-1 $348 $318 $343 $365 reversed $346 $-1 #
straight-curve $-1 -67.09314502723989904 67.0931450272392027 -13.3491734231105994 -0.7016738431598670278 0.7016738431598600334 0.1237240302064839953 I I #
straight-curve $-1 0 50 -25 1 0 0 I I #
plane-surface $-1 0 0 -25 0 0 1 1 0 0 forward_v I I I I #
coedge $-1 $325 $337 $340 $363 forward $316 $-1 #
coedge $-1 $356 $328 $325 $331 reversed $305 $-1 #
coedge $-1 $328 $355 $339 $362 reversed $305 $-1 #
straight-curve $-1 67.09314502723940166 67.09314502723960061 -13.3491734231105994 0.7016738431598620318 0.7016738431598650294 0.1237240302064839953 I I #
vertex $-1 $331 $369 #
straight-curve $-1 68.23456657910250556 50 -13.14791000715499969 0.9848077530122080203 0 0.1736481776669309973 I I #
edge $-1 $367 -37.39848592565359553 $344 -34.47686841682074999 $347 $370 forward 7 unknown #
straight-curve $-1 -2.402191575617560087e-13 50 -16.36315607657559923 1 0 -6.156423626781600443e-16 I I #
edge $-1 $146 33.68240888334670302 $358 50 $339 $147 forward 7 unknown #
edge $-1 $341 34.47686841682065761 $358 37.39848592565349605 $354 $371 forward 7 unknown #
point $-1 33.17507532709790041 50 -16.36315607657559923 #
edge $-1 $367 -50.00000000000023448 $116 -33.68240888334663197 $343 $117 forward 7 unknown #
point $-1 -33.17507532709829832 50 -16.36315607657559923 #
vertex $-1 $349 $372 #
straight-curve $-1 -68.23456657910250556 50 -13.14791000715499969 0.9848077530122080203 0 -0.1736481776669309973 I I #
point $-1 33.68240888334649696 50 -19.24038765061040124 #
straight-curve $-1 -27.18822995485480121 50 17.58993123989120022 0.1736481776669309973 0 0.9848077530122080203 I I #
straight-curve $-1 27.18822995485439975 50 17.58993123989110074 0.1736481776669309973 0 -0.9848077530122080203 I I #
point $-1 -33.68240888334690197 50 -19.24038765061040124 #
End-of-ACIS-data 