104 373 0 0                             
body $-1 $1 $-1 $-1 #
lump $-1 $-1 $2 $0 #
shell $-1 $-1 $-1 $3 $1 #
face $-1 $4 $5 $2 $-1 $6 0 #
face $-1 $7 $8 $2 $-1 $6 0 #
loop $-1 $-1 $9 $3 #
plane-surface $-1 2.61861100413235e-13 -25 30 1.03153136759705e-14 -0.984807753012208 0.173648177666931 1.81886811554462e-15 -0.173648177666931 -0.984807753012208 0 #
face $-1 $10 $11 $2 $-1 $6 0 #
loop $-1 $-1 $12 $4 #
coedge $-1 $13 $14 $15 $16 1 $5 $-1 #
face $-1 $17 $18 $2 $-1 $19 0 #
loop $-1 $-1 $20 $7 #
coedge $-1 $21 $22 $23 $24 1 $8 $-1 #
coedge $-1 $25 $9 $26 $27 0 $5 $-1 #
coedge $-1 $9 $25 $28 $29 1 $5 $-1 #
coedge $-1 $30 $31 $9 $16 0 $32 $-1 #
edge $-1 $33 $34 $15 $35 0 #
face $-1 $36 $37 $2 $-1 $19 0 #
loop $-1 $-1 $38 $10 #
plane-surface $-1 1.38433587378751e-12 -132.163184184567 -1.87556988391733 -1.81886811554462e-15 0.173648177666931 0.984807753012208 1.03153136759705e-14 -0.984807753012208 0.173648177666931 0 #
coedge $-1 $39 $40 $41 $42 1 $11 $-1 #
coedge $-1 $22 $12 $43 $44 0 $8 $-1 #
coedge $-1 $12 $21 $45 $46 1 $8 $-1 #
coedge $-1 $47 $48 $12 $24 0 $49 $-1 #
edge $-1 $50 $51 $23 $52 0 #
coedge $-1 $14 $13 $53 $54 1 $5 $-1 #
coedge $-1 $55 $56 $13 $27 1 $37 $-1 #
edge $-1 $33 $50 $13 $57 0 #
coedge $-1 $58 $59 $14 $29 0 $60 $-1 #
edge $-1 $34 $61 $28 $62 0 #
coedge $-1 $63 $15 $59 $64 1 $32 $-1 #
coedge $-1 $15 $63 $65 $66 0 $32 $-1 #
loop $-1 $-1 $15 $67 #
vertex $-1 $66 $68 #
vertex $-1 $64 $69 #
straight-curve $-1 -24.2682235206439 -24.2682235206443 34.1501106433951 0.171087869746035 0.171087869746038 0.970287525247814 #
face $-1 $70 $71 $2 $-1 $19 0 #
loop $-1 $-1 $55 $17 #
coedge $-1 $72 $43 $73 $74 1 $18 $-1 #
coedge $-1 $40 $20 $75 $76 0 $11 $-1 #
coedge $-1 $20 $39 $77 $78 1 $11 $-1 #
coedge $-1 $79 $80 $20 $42 0 $81 $-1 #
edge $-1 $82 $83 $41 $84 0 #
coedge $-1 $38 $72 $21 $44 1 $18 $-1 #
edge $-1 $50 $85 $21 $57 0 #
coedge $-1 $86 $87 $22 $46 0 $88 $-1 #
edge $-1 $51 $85 $45 $89 0 #
coedge $-1 $90 $23 $87 $91 1 $49 $-1 #
coedge $-1 $23 $90 $92 $93 1 $49 $-1 #
loop $-1 $-1 $23 $94 #
vertex $-1 $95 $96 #
vertex $-1 $91 $97 #
straight-curve $-1 71.4030817581673 -32.5096277432336 -12.5892152923015 0.984346441568213 0.0306045161452766 0.173566836012845 #
coedge $-1 $92 $98 $25 $54 0 $99 $-1 #
edge $-1 $61 $50 $53 $100 0 #
coedge $-1 $101 $26 $102 $103 1 $37 $-1 #
coedge $-1 $26 $101 $104 $105 1 $37 $-1 #
straight-curve $-1 3.52804506190466e-13 -33.6824088833465 -19.2403876506104 1 1.04744440165294e-14 0 #
coedge $-1 $106 $28 $98 $107 0 $60 $-1 #
coedge $-1 $28 $106 $30 $64 0 $60 $-1 #
loop $-1 $-1 $28 $108 #
vertex $-1 $54 $109 #
straight-curve $-1 2.71095735853407e-13 -25.8816349035423 25 1 1.04744440165294e-14 -0 #
coedge $-1 $31 $30 $110 $111 1 $32 $-1 #
edge $-1 $112 $34 $59 $113 0 #
coedge $-1 $114 $77 $31 $66 1 $115 $-1 #
edge $-1 $116 $33 $31 $117 0 #
face $-1 $108 $32 $2 $-1 $118 0 #
point $-1 -33.6824088833463 -33.6824088833469 -19.2403876506104 #
point $-1 -25.8816349035421 -25.8816349035426 25 #
face $-1 $119 $81 $2 $-1 $120 1 #
loop $-1 $-1 $121 $36 #
coedge $-1 $43 $38 $86 $122 1 $18 $-1 #
coedge $-1 $123 $124 $38 $74 0 $125 $-1 #
edge $-1 $126 $50 $73 $127 0 #
coedge $-1 $121 $128 $39 $76 1 $71 $-1 #
edge $-1 $82 $33 $39 $57 0 #
coedge $-1 $65 $129 $40 $78 0 $115 $-1 #
edge $-1 $83 $33 $77 $130 0 #
coedge $-1 $131 $41 $129 $132 0 $81 $-1 #
coedge $-1 $41 $133 $121 $134 0 $81 $-1 #
loop $-1 $-1 $80 $70 #
vertex $-1 $134 $135 #
vertex $-1 $78 $136 #
straight-curve $-1 -50 -27.188229954855 17.5899312398912 -0 0.173648177666931 0.984807753012208 #
vertex $-1 $122 $137 #
coedge $-1 $138 $45 $72 $122 0 $88 $-1 #
coedge $-1 $45 $139 $47 $91 0 $88 $-1 #
loop $-1 $-1 $45 $140 #
straight-curve $-1 50 -27.1882299548539 17.589931239891 -0 -0.173648177666931 -0.984807753012208 #
coedge $-1 $48 $47 $141 $142 0 $49 $-1 #
edge $-1 $143 $51 $87 $144 0 #
coedge $-1 $145 $53 $48 $93 0 $99 $-1 #
edge $-1 $50 $146 $92 $147 0 #
face $-1 $140 $49 $2 $-1 $148 0 #
edge $-1 $149 $50 $150 $147 0 #
point $-1 33.6824088833466 -33.6824088833462 -19.2403876506104 #
point $-1 50 -33.1750753270974 -16.3631560765756 #
coedge $-1 $53 $145 $58 $107 1 $99 $-1 #
loop $-1 $-1 $53 $151 #
straight-curve $-1 24.2682235206441 -24.2682235206438 34.150110643395 0.171087869746036 -0.171087869746034 -0.970287525247814 #
coedge $-1 $56 $55 $152 $153 1 $37 $-1 #
coedge $-1 $154 $155 $55 $103 0 $156 $-1 #
edge $-1 $157 $33 $102 $158 0 #
coedge $-1 $159 $150 $56 $105 0 $160 $-1 #
edge $-1 $50 $161 $104 $162 0 #
coedge $-1 $59 $58 $163 $164 0 $60 $-1 #
edge $-1 $61 $165 $58 $166 0 #
face $-1 $151 $60 $2 $-1 $167 0 #
point $-1 25.8816349035423 -25.8816349035421 25 #
coedge $-1 $163 $168 $63 $111 0 $169 $-1 #
edge $-1 $116 $112 $110 $170 0 #
vertex $-1 $164 $171 #
straight-curve $-1 -25.8816349035423 -1.80730490568938e-13 25 6.98296267768627e-15 -1 0 #
coedge $-1 $129 $65 $172 $173 1 $115 $-1 #
loop $-1 $-1 $77 $119 #
vertex $-1 $174 $175 #
straight-curve $-1 -33.6824088833465 -2.35203004126977e-13 -19.2403876506104 6.98296267768627e-15 -1 0 #
plane-surface $-1 -25 -1.74574066942157e-13 30 -0.984807753012208 -6.87687578398032e-15 0.173648177666931 -0.173648177666931 -1.21257874369641e-15 -0.984807753012208 0 #
face $-1 $67 $115 $2 $-1 $176 0 #
plane-surface $-1 -50 0 0 1 0 0 0 0 -1 0 #
coedge $-1 $128 $75 $80 $134 1 $71 $-1 #
edge $-1 $85 $126 $86 $177 0 #
coedge $-1 $124 $73 $150 $95 1 $125 $-1 #
coedge $-1 $73 $123 $178 $179 1 $125 $-1 #
loop $-1 $-1 $73 $180 #
vertex $-1 $179 $181 #
straight-curve $-1 67.0931450272403 -67.0931450272396 -13.3491734231104 -0.701673843159867 0.70167384315986 -0.123724030206485 #
coedge $-1 $75 $121 $182 $183 1 $71 $-1 #
coedge $-1 $77 $114 $79 $132 1 $115 $-1 #
straight-curve $-1 -71.4030817581667 -32.5096277432351 -12.5892152923016 0.984346441568214 -0.030604516145256 -0.173566836012845 #
coedge $-1 $184 $79 $185 $186 0 $81 $-1 #
edge $-1 $83 $187 $79 $188 0 #
coedge $-1 $80 $189 $190 $191 1 $81 $-1 #
edge $-1 $192 $82 $80 $193 0 #
point $-1 -50 -33.6824088833471 -19.2403876506104 #
point $-1 -50 -33.1750753270984 -16.3631560765756 #
point $-1 50 -33.682408883346 -19.2403876506104 #
coedge $-1 $194 $86 $195 $196 0 $88 $-1 #
coedge $-1 $87 $197 $198 $199 0 $88 $-1 #
face $-1 $200 $88 $2 $-1 $201 1 #
coedge $-1 $198 $202 $90 $142 1 $203 $-1 #
edge $-1 $143 $146 $90 $204 0 #
vertex $-1 $142 $205 #
straight-curve $-1 50 0 -16.3631560765756 0 -1 0 #
coedge $-1 $98 $92 $206 $207 0 $99 $-1 #
vertex $-1 $93 $208 #
straight-curve $-1 33.6824088833465 0 -19.2403876506104 0 1 0 #
plane-surface $-1 132.163184184567 0 -1.87556988391733 -0.173648177666931 0 0.984807753012208 0.984807753012208 0 0.173648177666931 0 #
vertex $-1 $179 $209 #
coedge $-1 $104 $159 $123 $95 0 $160 $-1 #
face $-1 $94 $99 $2 $-1 $210 0 #
coedge $-1 $211 $212 $101 $153 0 $213 $-1 #
edge $-1 $161 $157 $152 $214 0 #
coedge $-1 $155 $102 $215 $216 0 $156 $-1 #
coedge $-1 $102 $154 $211 $217 1 $156 $-1 #
loop $-1 $-1 $102 $200 #
vertex $-1 $153 $218 #
straight-curve $-1 -32.5096277432338 -71.4030817581673 -12.5892152923016 -0.0306045161452731 0.984346441568213 -0.173566836012845 #
coedge $-1 $150 $104 $212 $219 1 $160 $-1 #
loop $-1 $-1 $104 $220 #
vertex $-1 $219 $221 #
straight-curve $-1 32.5096277432343 -71.403081758167 -12.5892152923015 -0.0306045161452663 -0.984346441568213 0.173566836012845 #
coedge $-1 $206 $110 $106 $164 1 $169 $-1 #
edge $-1 $165 $112 $106 $222 0 #
vertex $-1 $107 $223 #
straight-curve $-1 25.8816349035423 0 25 0 1 0 #
plane-surface $-1 0 0 25 0 0 1 1 0 0 0 #
coedge $-1 $110 $206 $224 $174 0 $169 $-1 #
loop $-1 $-1 $110 $225 #
straight-curve $-1 -24.2682235206443 24.268223520644 34.1501106433951 0.171087869746037 -0.171087869746035 0.970287525247814 #
point $-1 -25.8816349035425 25.8816349035422 25 #
coedge $-1 $226 $185 $114 $173 0 $227 $-1 #
edge $-1 $187 $116 $172 $228 0 #
edge $-1 $146 $116 $168 $229 0 #
point $-1 -33.6824088833468 33.6824088833464 -19.2403876506104 #
plane-surface $-1 -132.163184184567 -9.2289058252501e-13 -1.87556988391733 0.173648177666931 1.21257874369641e-15 0.984807753012208 -0.984807753012208 -6.87687578398032e-15 0.173648177666931 0 #
straight-curve $-1 50 -68.2345665791025 -13.1479100071549 0 -0.984807753012208 0.173648177666931 #
coedge $-1 $212 $195 $124 $179 0 $213 $-1 #
edge $-1 $126 $149 $178 $230 0 #
face $-1 $220 $125 $2 $-1 $148 0 #
point $-1 50 -50 -16.3631560765756 #
coedge $-1 $231 $215 $128 $183 0 $232 $-1 #
edge $-1 $33 $192 $182 $233 0 #
coedge $-1 $234 $131 $235 $236 0 $81 $-1 #
coedge $-1 $172 $226 $131 $186 1 $227 $-1 #
edge $-1 $187 $237 $131 $238 0 #
vertex $-1 $173 $239 #
straight-curve $-1 -50 -4.80438315123511e-13 -16.3631560765756 0 1 -1.23128472535632e-15 #
coedge $-1 $133 $234 $240 $241 1 $81 $-1 #
coedge $-1 $242 $243 $133 $191 0 $213 $-1 #
edge $-1 $192 $244 $133 $245 0 #
vertex $-1 $183 $246 #
straight-curve $-1 -50 -68.2345665791025 -13.1479100071551 0 0.984807753012208 -0.173648177666931 #
coedge $-1 $247 $138 $248 $249 1 $88 $-1 #
coedge $-1 $178 $242 $138 $196 1 $213 $-1 #
edge $-1 $126 $250 $138 $251 0 #
coedge $-1 $139 $247 $252 $253 0 $88 $-1 #
coedge $-1 $202 $141 $139 $199 1 $203 $-1 #
edge $-1 $254 $143 $139 $255 0 #
face $-1 $256 $156 $2 $-1 $118 0 #
plane-surface $-1 50 0 0 -1 0 0 0 -0 1 0 #
coedge $-1 $141 $198 $257 $258 0 $203 $-1 #
loop $-1 $-1 $198 $259 #
straight-curve $-1 71.4030817581669 32.5096277432346 -12.5892152923016 -0.984346441568214 0.0306045161452628 -0.173566836012845 #
point $-1 50 33.1750753270981 -16.3631560765756 #
coedge $-1 $168 $163 $145 $207 1 $169 $-1 #
edge $-1 $146 $165 $145 $260 0 #
point $-1 33.6824088833466 33.6824088833467 -19.2403876506104 #
point $-1 33.6824088833465 -50 -19.2403876506104 #
plane-surface $-1 25 0 30 0.984807753012208 0 0.173648177666931 0.173648177666931 0 -0.984807753012208 0 #
coedge $-1 $243 $152 $155 $217 0 $213 $-1 #
coedge $-1 $152 $178 $159 $219 0 $213 $-1 #
loop $-1 $-1 $152 $261 #
straight-curve $-1 7.20657472685266e-13 -50 -16.3631560765756 -1 0 -1.84692708803448e-15 #
coedge $-1 $182 $231 $154 $216 1 $232 $-1 #
edge $-1 $33 $262 $154 $117 0 #
edge $-1 $157 $262 $211 $263 0 #
point $-1 -33.1750753270976 -50 -16.3631560765757 #
edge $-1 $149 $161 $212 $264 0 #
face $-1 $265 $160 $2 $-1 $210 0 #
point $-1 33.1750753270979 -50 -16.3631560765756 #
straight-curve $-1 -9.03652452844691e-14 25.8816349035423 25 -1 -3.49148133884313e-15 0 #
point $-1 25.8816349035423 25.8816349035424 25 #
coedge $-1 $266 $267 $168 $174 1 $268 $-1 #
face $-1 $259 $169 $2 $-1 $269 0 #
coedge $-1 $185 $172 $270 $271 0 $227 $-1 #
loop $-1 $-1 $172 $272 #
straight-curve $-1 -71.4030817581672 32.5096277432341 -12.5892152923016 0.984346441568213 0.0306045161452697 -0.173566836012845 #
straight-curve $-1 -1.17601502063489e-13 33.6824088833465 -19.2403876506104 -1 -3.49148133884313e-15 0 #
straight-curve $-1 68.2345665791025 -50 -13.147910007155 -0.984807753012208 0 -0.173648177666931 #
coedge $-1 $215 $182 $243 $273 1 $232 $-1 #
loop $-1 $-1 $182 $274 #
straight-curve $-1 -67.0931450272389 -67.0931450272401 -13.3491734231106 -0.701673843159857 -0.70167384315987 0.123724030206484 #
coedge $-1 $189 $184 $275 $276 0 $81 $-1 #
coedge $-1 $270 $277 $184 $236 1 $278 $-1 #
edge $-1 $237 $279 $184 $280 0 #
vertex $-1 $236 $281 #
straight-curve $-1 -50 27.1882299548543 17.5899312398911 0 0.173648177666931 -0.984807753012208 #
point $-1 -50 33.1750753270978 -16.3631560765757 #
coedge $-1 $282 $283 $189 $241 0 $284 $-1 #
edge $-1 $244 $285 $189 $286 0 #
coedge $-1 $195 $190 $283 $287 1 $213 $-1 #
coedge $-1 $190 $211 $231 $273 0 $213 $-1 #
vertex $-1 $241 $288 #
straight-curve $-1 -50 -50 0 0 0 -1 #
point $-1 -50 -50 -16.3631560765756 #
coedge $-1 $197 $194 $289 $290 1 $88 $-1 #
coedge $-1 $283 $282 $194 $249 0 $284 $-1 #
edge $-1 $291 $250 $194 $292 0 #
vertex $-1 $196 $293 #
straight-curve $-1 50 -50 0 0 0 -1 #
coedge $-1 $294 $257 $197 $253 1 $295 $-1 #
edge $-1 $296 $254 $197 $297 0 #
vertex $-1 $253 $298 #
straight-curve $-1 50 27.1882299548546 17.5899312398912 0 -0.173648177666931 0.984807753012208 #
face $-1 $274 $299 $2 $-1 $118 0 #
coedge $-1 $252 $294 $202 $258 1 $295 $-1 #
edge $-1 $254 $146 $202 $229 0 #
face $-1 $300 $203 $2 $-1 $269 0 #
straight-curve $-1 24.2682235206441 24.2682235206442 34.1501106433951 -0.171087869746036 -0.171087869746036 0.970287525247814 #
face $-1 $301 $213 $2 $-1 $302 1 #
vertex $-1 $273 $303 #
straight-curve $-1 -27.1882299548541 -50 17.5899312398911 -0.173648177666931 0 -0.984807753012208 #
straight-curve $-1 27.1882299548544 -50 17.5899312398911 -0.173648177666931 0 0.984807753012208 #
face $-1 $304 $305 $2 $-1 $148 0 #
coedge $-1 $306 $224 $307 $308 1 $268 $-1 #
coedge $-1 $224 $306 $309 $310 0 $268 $-1 #
loop $-1 $-1 $267 $311 #
plane-surface $-1 -8.72870334710783e-14 25 30 -3.43843789199016e-15 0.984807753012208 0.173648177666931 -6.06289371848206e-16 0.173648177666931 -0.984807753012208 0 #
coedge $-1 $277 $235 $226 $271 1 $278 $-1 #
edge $-1 $116 $237 $226 $229 0 #
face $-1 $225 $227 $2 $-1 $269 0 #
edge $-1 $262 $192 $243 $312 0 #
face $-1 $313 $232 $2 $-1 $176 0 #
coedge $-1 $314 $315 $234 $276 1 $316 $-1 #
edge $-1 $279 $285 $275 $317 0 #
coedge $-1 $235 $270 $318 $319 0 $278 $-1 #
loop $-1 $-1 $277 $300 #
vertex $-1 $236 $320 #
straight-curve $-1 -50 68.2345665791025 -13.147910007155 -0 0.984807753012208 0.173648177666931 #
point $-1 -50 33.6824088833464 -19.2403876506104 #
coedge $-1 $248 $240 $315 $321 0 $284 $-1 #
coedge $-1 $240 $248 $242 $287 0 $284 $-1 #
loop $-1 $-1 $248 $322 #
vertex $-1 $321 $323 #
straight-curve $-1 -50 0 -25 0 1 0 #
edge $-1 $250 $244 $242 $324 0 #
point $-1 -50 -50 -25 #
coedge $-1 $315 $325 $247 $290 0 $316 $-1 #
edge $-1 $296 $291 $247 $326 0 #
vertex $-1 $249 $327 #
straight-curve $-1 50 0 -25 0 -1 0 #
point $-1 50 -50 -25 #
coedge $-1 $257 $252 $328 $329 1 $295 $-1 #
loop $-1 $-1 $252 $330 #
vertex $-1 $331 $332 #
straight-curve $-1 50 68.2345665791025 -13.147910007155 -0 -0.984807753012208 -0.173648177666931 #
point $-1 50 33.6824088833467 -19.2403876506104 #
loop $-1 $-1 $333 $256 #
face $-1 $330 $278 $2 $-1 $334 0 #
face $-1 $311 $316 $2 $-1 $335 1 #
plane-surface $-1 0 -50 0 0 1 -0 -0 0 1 0 #
point $-1 -33.6824088833462 -50 -19.2403876506104 #
face $-1 $322 $336 $2 $-1 $210 0 #
loop $-1 $-1 $328 $265 #
coedge $-1 $267 $266 $337 $338 1 $268 $-1 #
coedge $-1 $339 $340 $266 $308 0 $336 $-1 #
edge $-1 $341 $146 $307 $342 0 #
coedge $-1 $333 $343 $267 $310 1 $299 $-1 #
edge $-1 $344 $116 $267 $345 0 #
face $-1 $272 $268 $2 $-1 $334 0 #
straight-curve $-1 -68.2345665791025 -50 -13.1479100071549 -0.984807753012208 0 0.173648177666931 #
face $-1 $261 $346 $2 $-1 $176 0 #
coedge $-1 $347 $275 $348 $349 0 $316 $-1 #
coedge $-1 $275 $289 $282 $321 1 $316 $-1 #
loop $-1 $-1 $314 $301 #
straight-curve $-1 -50 50 0 0 0 -1 #
coedge $-1 $350 $348 $277 $319 1 $346 $-1 #
edge $-1 $116 $279 $277 $351 0 #
point $-1 -50 50 -16.3631560765756 #
edge $-1 $285 $291 $315 $352 0 #
face $-1 $-1 $284 $2 $-1 $353 1 #
point $-1 -50 50 -25 #
straight-curve $-1 0 -50 -25 -1 0 0 #
coedge $-1 $289 $354 $355 $331 0 $316 $-1 #
straight-curve $-1 50 50 0 0 0 -1 #
point $-1 50 50 -25 #
coedge $-1 $355 $356 $294 $329 0 $305 $-1 #
edge $-1 $146 $296 $328 $357 0 #
face $-1 $180 $295 $2 $-1 $334 0 #
edge $-1 $358 $296 $325 $359 0 #
point $-1 50 50 -16.3631560765756 #
coedge $-1 $343 $309 $347 $360 1 $299 $-1 #
plane-surface $-1 -4.61445291262505e-13 132.163184184567 -1.87556988391733 6.06289371848206e-16 -0.173648177666931 0.984807753012208 -3.43843789199016e-15 0.984807753012208 0.173648177666931 0 #
plane-surface $-1 0 50 0 0 -1 0 0 0 -1 0 #
loop $-1 $-1 $307 $304 #
coedge $-1 $354 $347 $306 $338 0 $316 $-1 #
edge $-1 $344 $341 $337 $361 0 #
coedge $-1 $340 $307 $356 $362 0 $336 $-1 #
coedge $-1 $307 $339 $354 $363 1 $336 $-1 #
vertex $-1 $338 $364 #
straight-curve $-1 32.5096277432343 71.403081758167 -12.5892152923016 0.0306045161452663 -0.984346441568214 -0.173566836012845 #
coedge $-1 $309 $333 $350 $365 0 $299 $-1 #
vertex $-1 $310 $366 #
straight-curve $-1 -32.5096277432348 71.4030817581668 -12.5892152923016 -0.0306045161452594 -0.984346441568214 -0.173566836012845 #
loop $-1 $-1 $348 $313 #
coedge $-1 $337 $314 $333 $360 0 $316 $-1 #
coedge $-1 $318 $350 $314 $349 1 $346 $-1 #
edge $-1 $279 $367 $314 $368 0 #
coedge $-1 $348 $318 $343 $365 1 $346 $-1 #
straight-curve $-1 -67.0931450272399 67.0931450272392 -13.3491734231106 -0.701673843159867 0.70167384315986 0.123724030206484 #
straight-curve $-1 0 50 -25 1 0 0 #
plane-surface $-1 0 0 -25 0 0 1 1 0 0 0 #
coedge $-1 $325 $337 $340 $363 0 $316 $-1 #
coedge $-1 $356 $328 $325 $331 1 $305 $-1 #
coedge $-1 $328 $355 $339 $362 1 $305 $-1 #
straight-curve $-1 67.0931450272394 67.0931450272396 -13.3491734231106 0.701673843159862 0.701673843159865 0.123724030206484 #
vertex $-1 $331 $369 #
straight-curve $-1 68.2345665791025 50 -13.147910007155 0.984807753012208 0 0.173648177666931 #
edge $-1 $367 $344 $347 $370 0 #
straight-curve $-1 -2.40219157561756e-13 50 -16.3631560765756 1 0 -6.1564236267816e-16 #
edge $-1 $146 $358 $339 $147 0 #
edge $-1 $341 $358 $354 $371 0 #
point $-1 33.1750753270979 50 -16.3631560765756 #
edge $-1 $367 $116 $343 $117 0 #
point $-1 -33.1750753270983 50 -16.3631560765756 #
vertex $-1 $349 $372 #
straight-curve $-1 -68.2345665791025 50 -13.147910007155 0.984807753012208 0 -0.173648177666931 #
point $-1 33.6824088833465 50 -19.2403876506104 #
straight-curve $-1 -27.1882299548548 50 17.5899312398912 0.173648177666931 0 0.984807753012208 #
straight-curve $-1 27.1882299548544 50 17.5899312398911 0.173648177666931 0 -0.984807753012208 #
point $-1 -33.6824088833469 50 -19.2403876506104 #
