600 0 2 0           
24 FBMach with ACIS - 6.0.3 13 ACIS 6.0.3 NT 24 Tue May 22 17:03:38 2001 
1 9.9999999999999995e-007 1e-010 
body $2 $3 $-1 $4 #
bdycol-kcp $-1 1 5 $5 $6 $7 $8 $9 #
model_id-kcp-attrib $-1 $-1 $-1 $0 1 990565417 80 -565182463 1 #
lump $-1 $-1 $10 $0 #
transform $-1 1 0 0 0 1 0 0 0 1 0 0 0 1 no_rotate no_reflect no_shear #
body $11 $12 $-1 $13 #
body $14 $15 $-1 $16 #
body $17 $18 $-1 $19 #
body $20 $21 $-1 $22 #
body $23 $24 $-1 $25 #
shell $-1 $-1 $-1 $26 $-1 $3 #
model_id-kcp-attrib $-1 $-1 $-1 $5 1 990565417 80 -565182462 1 #
lump $-1 $-1 $27 $5 #
transform $-1 1 0 0 0 1 0 0 0 1 0 0 -4.9737991503207013e-014 1 no_rotate no_reflect no_shear #
rgb_color-st-attrib $-1 $28 $-1 $6 1 0 0 #
lump $-1 $-1 $29 $6 #
transform $-1 1 0 0 0 1 0 0 0 1 37.500000000000057 1.3145040611561853e-013 198.2050807568879 1 no_rotate no_reflect no_shear #
rgb_color-st-attrib $-1 $30 $-1 $7 1 0 0 #
lump $-1 $-1 $31 $7 #
transform $-1 1 0 0 0 1 0 0 0 1 0 33.249999999999943 198.20508075688778 1 no_rotate no_reflect no_shear #
rgb_color-st-attrib $-1 $32 $-1 $8 1 0 0 #
lump $-1 $-1 $33 $8 #
transform $-1 1 0 0 0 1 0 0 0 1 0 0 -4.9737991503207013e-014 1 no_rotate no_reflect no_shear #
rgb_color-st-attrib $-1 $34 $-1 $9 0.5 1 1 #
lump $-1 $-1 $35 $9 #
transform $-1 1 0 0 0 1 0 0 0 1 0 0 0 1 no_rotate no_reflect no_shear #
face $36 $37 $38 $10 $-1 $39 forward single #
shell $-1 $-1 $-1 $40 $-1 $12 #
model_id-kcp-attrib $-1 $-1 $14 $6 1 990565417 500 -554434557 1 #
shell $-1 $-1 $-1 $41 $-1 $15 #
model_id-kcp-attrib $-1 $-1 $17 $7 1 990565417 680 -559415292 1 #
shell $-1 $-1 $-1 $42 $-1 $18 #
model_id-kcp-attrib $-1 $-1 $20 $8 1 990565417 891 -562364411 1 #
shell $-1 $-1 $-1 $43 $-1 $21 #
model_id-kcp-attrib $-1 $-1 $23 $9 1 990565417 921 -560398330 1 #
shell $-1 $-1 $-1 $44 $-1 $24 #
model_id-kcp-attrib $-1 $-1 $-1 $26 1 990565417 80 -565182463 2 #
face $45 $46 $47 $10 $-1 $48 forward single #
loop $-1 $-1 $49 $26 #
plane-surface $-1 -25 0 0 1 0 0 0 1 3.4914813388431298e-015 forward_v I I I I #
face $50 $51 $52 $27 $-1 $53 forward single #
face $-1 $54 $55 $29 $-1 $56 reversed single #
face $-1 $57 $58 $31 $-1 $59 reversed single #
face $-1 $60 $61 $33 $-1 $62 forward single #
face $-1 $63 $64 $35 $-1 $65 forward single #
model_id-kcp-attrib $-1 $-1 $-1 $37 1 990565417 80 -565182463 3 #
face $66 $67 $68 $10 $-1 $69 forward single #
loop $-1 $-1 $70 $37 #
plane-surface $-1 25 0 0 -1 0 0 0 -1 -3.4914813388431298e-015 forward_v I I I I #
coedge $-1 $71 $72 $73 $74 reversed $38 $-1 #
model_id-kcp-attrib $-1 $75 $-1 $40 1 990565417 80 -565182462 7 #
face $76 $77 $78 $27 $-1 $79 reversed single #
loop $-1 $-1 $80 $40 #
plane-surface $-1 0 0 50.00000000000005 0 0 1 1 0 0 forward_v I I I I #
face $-1 $81 $82 $29 $-1 $83 forward single #
loop $-1 $-1 $84 $41 #
plane-surface $-1 -87.500000000000156 -1.3145040611561853e-013 -198.20508075688795 1 0 0 0 0 -1 forward_v I I I I #
face $-1 $85 $86 $31 $-1 $87 forward single #
loop $-1 $-1 $88 $42 #
plane-surface $-1 0 16.750000000000057 -198.20508075688784 0 -1 0 0 0 -1 forward_v I I I I #
face $-1 $89 $90 $33 $-1 $91 forward single #
loop $-1 $-1 $92 $43 #
plane-surface $-1 -16.5 -16.500000000000099 25.00000000000005 0 1 0 0 0 1 forward_v I I I I #
face $-1 $93 $94 $35 $-1 $95 forward single #
loop $-1 $-1 $96 $44 #
plane-surface $-1 25 16.500000000000199 -49.999999999999901 1 0 0 0 0 -1 forward_v I I I I #
model_id-kcp-attrib $-1 $-1 $-1 $46 1 990565417 80 -565182463 4 #
face $97 $98 $99 $10 $-1 $100 forward single #
loop $-1 $-1 $101 $46 #
plane-surface $-1 5.7609442090911694e-014 -16.5 37.5 -3.4914813388431298e-015 1 0 0 0 -1 forward_v I I I I #
coedge $-1 $102 $103 $104 $105 reversed $47 $-1 #
coedge $-1 $106 $49 $107 $108 forward $38 $-1 #
coedge $-1 $49 $106 $109 $110 forward $38 $-1 #
coedge $-1 $111 $112 $49 $74 forward $113 $-1 #
edge $-1 $114 -16.500000000000099 $115 16.499999999999901 $73 $116 forward 7 unknown #
model_id-kcp-attrib $-1 $117 $50 $40 1 990565417 80 -565182462 6 #
model_id-kcp-attrib $-1 $-1 $-1 $51 1 990565417 80 -565182462 8 #
face $118 $119 $120 $27 $-1 $121 reversed single #
loop $-1 $-1 $122 $51 #
plane-surface $-1 0 0 -50.00000000000005 0 0 1 1 0 0 forward_v I I I I #
coedge $-1 $123 $124 $125 $126 forward $52 $-1 #
face $-1 $127 $128 $29 $-1 $129 reversed single #
loop $-1 $-1 $130 $54 #
plane-surface $-1 -37.500000000000057 -1.3145040611561853e-013 -148.2050807568879 0 0 1 1 0 0 forward_v I I I I #
coedge $-1 $131 $132 $133 $134 forward $55 $-1 #
face $-1 $135 $136 $31 $-1 $137 forward single #
loop $-1 $-1 $138 $57 #
plane-surface $-1 0 -33.249999999999943 -148.20508075688778 0 0 1 1 0 0 forward_v I I I I #
coedge $-1 $139 $140 $141 $142 forward $58 $-1 #
face $-1 $143 $144 $33 $-1 $145 forward single #
loop $-1 $-1 $146 $60 #
plane-surface $-1 16.5 -16.499999999999901 25.00000000000005 1 0 0 0 0 -1 forward_v I I I I #
coedge $-1 $147 $148 $149 $150 forward $61 $-1 #
face $-1 $151 $152 $35 $-1 $153 forward single #
loop $-1 $-1 $154 $63 #
plane-surface $-1 25 -16.499999999999801 -50.000000000000099 0 -1 0 0 0 -1 forward_v I I I I #
coedge $-1 $155 $156 $157 $158 forward $64 $-1 #
model_id-kcp-attrib $-1 $-1 $-1 $67 1 990565417 80 -565182463 5 #
face $159 $160 $113 $10 $-1 $100 forward single #
loop $-1 $-1 $161 $67 #
plane-surface $-1 0 0 25 0 0 1 1 0 0 forward_v I I I I #
coedge $-1 $162 $107 $112 $163 forward $68 $-1 #
coedge $-1 $164 $70 $165 $166 forward $47 $-1 #
coedge $-1 $70 $164 $167 $168 forward $47 $-1 #
coedge $-1 $169 $170 $70 $105 forward $171 $-1 #
edge $-1 $172 -16.499999999999901 $173 16.500000000000099 $104 $174 forward 7 unknown #
coedge $-1 $72 $71 $175 $176 reversed $38 $-1 #
coedge $-1 $101 $177 $71 $108 reversed $68 $-1 #
edge $-1 $114 -25.000000000000057 $178 50.000000000000043 $71 $179 forward 7 unknown #
coedge $-1 $180 $181 $72 $110 reversed $182 $-1 #
edge $-1 $183 -49.999999999999957 $115 24.999999999999943 $72 $184 forward 7 unknown #
coedge $-1 $185 $73 $181 $186 reversed $113 $-1 #
coedge $-1 $73 $185 $101 $163 reversed $113 $-1 #
loop $-1 $-1 $73 $98 #
vertex $-1 $163 $187 #
vertex $-1 $186 $188 #
straight-curve $-1 -25 0 25 0 1 0 I I #
model_id-kcp-attrib $-1 $189 $75 $40 1 990565417 80 -565182462 4 #
model_id-kcp-attrib $-1 $-1 $-1 $77 1 990565417 80 -565182462 5 #
face $190 $191 $192 $27 $-1 $193 reversed single #
loop $-1 $-1 $194 $77 #
plane-surface $-1 0 -50 0 0 1 0 0 0 1 forward_v I I I I #
coedge $-1 $195 $196 $197 $198 forward $78 $-1 #
coedge $-1 $199 $80 $200 $201 forward $52 $-1 #
coedge $-1 $80 $199 $202 $203 forward $52 $-1 #
coedge $-1 $204 $205 $80 $126 reversed $206 $-1 #
edge $-1 $207 -50 $208 50 $125 $209 forward 7 unknown #
face $-1 $210 $211 $29 $-1 $212 reversed single #
loop $-1 $-1 $213 $81 #
plane-surface $-1 12.500000000000043 -1.3145040611561853e-013 -198.20508075688795 -1 0 0 0 0 1 forward_v I I I I #
coedge $-1 $214 $215 $216 $217 forward $82 $-1 #
coedge $-1 $218 $84 $215 $219 reversed $55 $-1 #
coedge $-1 $84 $218 $220 $221 forward $55 $-1 #
coedge $-1 $222 $216 $84 $134 reversed $223 $-1 #
edge $-1 $224 -74.102540378443919 $225 -49.102540378443919 $133 $226 forward 7 unknown #
face $-1 $227 $228 $31 $-1 $229 reversed single #
loop $-1 $-1 $230 $85 #
plane-surface $-1 37.500000000000057 -16.750000000000416 1.1368683772161603e-013 0 -1 0 0 0 -1 forward_v I I I I #
coedge $-1 $231 $232 $233 $234 forward $86 $-1 #
coedge $-1 $235 $88 $232 $236 reversed $58 $-1 #
coedge $-1 $88 $235 $237 $238 forward $58 $-1 #
coedge $-1 $239 $233 $88 $142 reversed $240 $-1 #
edge $-1 $241 -74.102540378443862 $242 -49.102540378443862 $141 $243 forward 7 unknown #
face $-1 $244 $245 $33 $-1 $246 forward single #
loop $-1 $-1 $247 $89 #
plane-surface $-1 16.5 -50 25.00000000000005 0 -1 0 0 0 -1 forward_v I I I I #
coedge $-1 $248 $249 $250 $251 forward $90 $-1 #
coedge $-1 $252 $92 $249 $253 reversed $61 $-1 #
coedge $-1 $92 $252 $254 $255 forward $61 $-1 #
coedge $-1 $256 $250 $92 $150 reversed $257 $-1 #
edge $-1 $258 -35.250000000000028 $259 -2.2500000000000284 $92 $260 forward 7 unknown #
face $-1 $261 $262 $35 $-1 $263 forward single #
loop $-1 $-1 $264 $93 #
plane-surface $-1 -25 -16.499999999999801 -50.000000000000099 -1 0 0 0 0 1 forward_v I I I I #
coedge $-1 $265 $266 $267 $268 forward $94 $-1 #
coedge $-1 $269 $96 $266 $270 reversed $64 $-1 #
coedge $-1 $96 $269 $271 $272 forward $64 $-1 #
coedge $-1 $273 $267 $96 $158 reversed $274 $-1 #
edge $-1 $275 -16.500000000000199 $276 16.499999999999801 $96 $277 forward 7 unknown #
model_id-kcp-attrib $-1 $-1 $-1 $98 1 990565417 80 -565182463 6 #
face $278 $279 $171 $10 $-1 $100 forward single #
coedge $-1 $280 $281 $282 $283 forward $99 $-1 #
coedge $-1 $284 $101 $285 $286 reversed $68 $-1 #
edge $-1 $114 25.000000000000057 $287 49.999999999999957 $101 $288 forward 7 unknown #
coedge $-1 $103 $102 $289 $290 reversed $47 $-1 #
coedge $-1 $291 $180 $102 $166 reversed $182 $-1 #
edge $-1 $172 -24.999999999999943 $292 49.999999999999957 $102 $293 forward 7 unknown #
coedge $-1 $177 $294 $103 $168 reversed $68 $-1 #
edge $-1 $295 -50.000000000000043 $173 25.000000000000057 $103 $296 forward 7 unknown #
coedge $-1 $297 $104 $294 $298 reversed $171 $-1 #
coedge $-1 $104 $297 $291 $299 reversed $171 $-1 #
loop $-1 $-1 $104 $160 #
vertex $-1 $299 $300 #
vertex $-1 $298 $301 #
straight-curve $-1 25 0 25 0 -1 0 I I #
coedge $-1 $302 $303 $106 $176 forward $304 $-1 #
edge $-1 $183 -16.500000000000199 $178 16.499999999999801 $175 $305 forward 7 unknown #
coedge $-1 $107 $167 $302 $306 reversed $68 $-1 #
vertex $-1 $306 $307 #
straight-curve $-1 -25 -16.5 -5.7609442090911694e-014 0 3.4914813388431298e-015 -1 I I #
coedge $-1 $165 $109 $303 $308 reversed $182 $-1 #
coedge $-1 $109 $309 $111 $186 forward $182 $-1 #
loop $-1 $-1 $310 $279 #
vertex $-1 $308 $311 #
straight-curve $-1 -25 16.5 5.7609442090911694e-014 0 -3.4914813388431298e-015 1 I I #
coedge $-1 $112 $111 $312 $313 reversed $113 $-1 #
edge $-1 $314 -50.000000000000043 $115 -24.999999999999943 $181 $315 forward 7 unknown #
point $-1 -25 -16.500000000000099 25 #
point $-1 -25 16.499999999999901 25 #
model_id-kcp-attrib $-1 $-1 $117 $40 1 990565417 80 -565182462 3 #
model_id-kcp-attrib $-1 $-1 $-1 $119 1 990565417 80 -565182462 2 #
face $316 $317 $318 $27 $-1 $319 reversed single #
loop $-1 $-1 $320 $119 #
plane-surface $-1 -50.000000000000099 0 0 1 0 0 0 0 -1 forward_v I I I I #
coedge $-1 $321 $202 $322 $323 forward $120 $-1 #
coedge $-1 $324 $122 $321 $325 forward $78 $-1 #
coedge $-1 $122 $324 $326 $327 forward $78 $-1 #
coedge $-1 $205 $204 $122 $198 reversed $206 $-1 #
edge $-1 $328 -50 $329 50 $197 $330 forward 7 unknown #
coedge $-1 $124 $123 $331 $332 forward $52 $-1 #
coedge $-1 $333 $334 $123 $201 reversed $318 $-1 #
edge $-1 $208 -50.000000000000099 $335 50.000000000000099 $200 $336 forward 7 unknown #
coedge $-1 $194 $337 $124 $203 reversed $120 $-1 #
edge $-1 $338 -50.000000000000099 $207 50.000000000000099 $202 $339 forward 7 unknown #
coedge $-1 $197 $125 $337 $340 forward $206 $-1 #
coedge $-1 $125 $197 $333 $341 reversed $206 $-1 #
loop $-1 $-1 $204 $317 #
vertex $-1 $126 $342 #
vertex $-1 $126 $343 #
straight-curve $-1 50.000000000000099 0 50.00000000000005 0 1 0 I I #
face $-1 $344 $223 $29 $-1 $345 reversed single #
loop $-1 $-1 $346 $127 #
plane-surface $-1 0 0 -173.2050807568879 0 0 1 1 0 0 forward_v I I I I #
coedge $-1 $347 $348 $349 $350 forward $128 $-1 #
coedge $-1 $351 $130 $347 $352 forward $82 $-1 #
coedge $-1 $130 $351 $131 $219 forward $82 $-1 #
coedge $-1 $133 $353 $130 $217 reversed $223 $-1 #
edge $-1 $225 -68.749999999999929 $354 31.250000000000071 $216 $355 forward 7 unknown #
coedge $-1 $132 $131 $356 $357 forward $55 $-1 #
edge $-1 $358 -16.499999999999801 $225 16.500000000000199 $131 $359 forward 7 unknown #
coedge $-1 $360 $361 $132 $221 reversed $211 $-1 #
edge $362 $363 -16.499999999999737 $224 16.500000000000263 $220 $364 forward 7 unknown #
coedge $-1 $353 $133 $361 $365 reversed $223 $-1 #
loop $-1 $-1 $222 $210 #
vertex $-1 $221 $366 #
vertex $-1 $134 $367 #
straight-curve $-1 -87.500000000000156 -16.499999999999396 -99.102540378443976 0 0 1 I I #
face $-1 $368 $240 $31 $-1 $369 reversed single #
loop $-1 $-1 $237 $135 #
plane-surface $-1 0 0 -173.20508075688778 0 0 1 1 0 0 forward_v I I I I #
coedge $-1 $370 $371 $372 $373 forward $136 $-1 #
coedge $-1 $374 $138 $371 $375 forward $86 $-1 #
coedge $-1 $138 $374 $139 $236 forward $86 $-1 #
coedge $-1 $141 $372 $138 $234 reversed $240 $-1 #
edge $-1 $242 -33.375000000000028 $376 0.12500000000007105 $233 $377 forward 7 unknown #
coedge $-1 $140 $139 $378 $379 forward $58 $-1 #
edge $-1 $380 -16.5 $242 16.5 $139 $381 forward 7 unknown #
coedge $-1 $382 $383 $140 $238 reversed $228 $-1 #
edge $384 $385 -16.5 $241 16.5 $237 $386 forward 7 unknown #
coedge $-1 $372 $141 $383 $387 reversed $240 $-1 #
loop $-1 $-1 $141 $227 #
vertex $-1 $238 $388 #
vertex $-1 $142 $389 #
straight-curve $-1 -16.5 16.750000000000057 -99.102540378443919 0 0 1 I I #
face $-1 $390 $257 $33 $-1 $391 forward single #
loop $-1 $-1 $392 $143 #
plane-surface $-1 -16.5 -50 25.00000000000005 -1 0 0 0 0 1 forward_v I I I I #
coedge $-1 $393 $394 $395 $396 forward $144 $-1 #
coedge $-1 $397 $146 $394 $398 reversed $90 $-1 #
coedge $-1 $146 $397 $147 $253 forward $90 $-1 #
coedge $-1 $149 $395 $146 $251 reversed $257 $-1 #
edge $-1 $259 -0.12500000000007461 $399 33.375000000000028 $146 $400 forward 7 unknown #
coedge $-1 $148 $147 $401 $402 reversed $61 $-1 #
edge $-1 $403 0 $259 25 $249 $404 forward 7 unknown #
coedge $-1 $405 $392 $148 $255 reversed $245 $-1 #
edge $-1 $406 0 $258 25 $148 $407 forward 7 unknown #
coedge $-1 $395 $149 $392 $408 reversed $257 $-1 #
loop $-1 $-1 $149 $244 #
vertex $-1 $255 $409 #
vertex $-1 $253 $410 #
straight-curve $-1 18.750000000000028 -16.499999999999268 50.000000000000057 1 0 0 I I #
face $-1 $411 $274 $35 $-1 $412 forward single #
loop $-1 $-1 $413 $151 #
plane-surface $-1 -25 16.500000000000199 -49.999999999999901 0 1 0 0 0 1 forward_v I I I I #
coedge $-1 $414 $415 $416 $417 forward $152 $-1 #
coedge $-1 $418 $154 $415 $419 reversed $94 $-1 #
coedge $-1 $154 $418 $155 $270 forward $94 $-1 #
coedge $-1 $157 $416 $154 $268 reversed $274 $-1 #
edge $-1 $276 -25 $420 25 $154 $421 forward 7 unknown #
coedge $-1 $156 $155 $422 $423 forward $64 $-1 #
edge $-1 $424 0 $276 74.999999999999901 $266 $425 forward 7 unknown #
coedge $-1 $426 $413 $156 $272 reversed $262 $-1 #
edge $-1 $427 0 $275 74.999999999999901 $156 $428 forward 7 unknown #
coedge $-1 $416 $157 $413 $429 reversed $274 $-1 #
loop $-1 $-1 $157 $261 #
vertex $-1 $272 $430 #
vertex $-1 $270 $431 #
straight-curve $-1 25 0 24.999999999999901 0 -1 0 I I #
model_id-kcp-attrib $-1 $-1 $-1 $160 1 990565417 80 -565182463 7 #
face $432 $433 $182 $10 $-1 $434 forward single #
coedge $-1 $435 $161 $436 $437 reversed $99 $-1 #
coedge $-1 $161 $435 $438 $439 reversed $99 $-1 #
coedge $-1 $440 $441 $161 $283 reversed $182 $-1 #
edge $-1 $442 -16.5 $443 16.5 $161 $444 forward 7 unknown #
coedge $-1 $445 $162 $446 $447 reversed $68 $-1 #
coedge $-1 $312 $448 $162 $286 forward $449 $-1 #
edge $450 $451 -31.25 $287 -6.25 $285 $452 forward 7 unknown #
vertex $-1 $313 $453 #
straight-curve $-1 5.7609442090911694e-014 -16.5 25 -1 -3.4914813388431298e-015 0 I I #
coedge $-1 $303 $302 $164 $290 forward $304 $-1 #
edge $-1 $295 -16.499999999999801 $292 16.500000000000199 $289 $454 forward 7 unknown #
coedge $-1 $455 $165 $170 $299 forward $182 $-1 #
vertex $-1 $308 $456 #
straight-curve $-1 25 16.5 5.7609442090911694e-014 0 3.4914813388431298e-015 -1 I I #
coedge $-1 $167 $457 $169 $298 forward $68 $-1 #
vertex $-1 $306 $458 #
straight-curve $-1 25 -16.5 -5.7609442090911694e-014 0 -3.4914813388431298e-015 1 I I #
coedge $-1 $170 $169 $459 $460 reversed $171 $-1 #
edge $-1 $461 -50.000000000000043 $173 -24.999999999999943 $294 $288 forward 7 unknown #
edge $-1 $172 25.000000000000057 $462 49.999999999999957 $291 $315 forward 7 unknown #
point $-1 25 16.499999999999901 25 #
point $-1 25 -16.500000000000099 25 #
coedge $-1 $289 $175 $177 $306 forward $304 $-1 #
coedge $-1 $175 $289 $180 $308 forward $304 $-1 #
loop $-1 $463 $303 $464 #
straight-curve $-1 -25 0 -50 0 -1 0 I I #
edge $-1 $178 -25 $295 25 $302 $465 forward 7 unknown #
point $-1 -25 -16.499999999999801 -50.000000000000099 #
edge $-1 $292 -25 $183 25 $303 $466 forward 7 unknown #
coedge $-1 $181 $310 $467 $468 reversed $182 $-1 #
coedge $-1 $309 $440 $469 $470 reversed $182 $-1 #
point $-1 -25 16.500000000000199 -49.999999999999901 #
coedge $-1 $467 $285 $185 $313 forward $449 $-1 #
edge $471 $287 -16.500000000000199 $314 16.499999999999801 $312 $472 forward 7 unknown #
vertex $-1 $313 $473 #
straight-curve $-1 -5.7609442090911694e-014 16.5 25 1 3.4914813388431298e-015 0 I I #
model_id-kcp-attrib $-1 $-1 $-1 $191 1 990565417 80 -565182462 9 #
face $474 $-1 $206 $27 $-1 $475 reversed single #
loop $-1 $-1 $333 $191 #
plane-surface $-1 0 50 0 0 -1 0 0 0 -1 forward_v I I I I #
coedge $-1 $476 $331 $334 $477 forward $192 $-1 #
coedge $-1 $337 $194 $195 $325 reversed $120 $-1 #
coedge $-1 $331 $476 $194 $323 reversed $192 $-1 #
edge $-1 $338 -50.00000000000005 $478 50.00000000000005 $322 $479 forward 7 unknown #
coedge $-1 $196 $195 $476 $480 forward $78 $-1 #
edge $-1 $329 -50.000000000000099 $478 50.000000000000099 $321 $481 forward 7 unknown #
coedge $-1 $334 $333 $196 $327 reversed $318 $-1 #
edge $-1 $482 -50.000000000000099 $328 50.000000000000099 $326 $483 forward 7 unknown #
vertex $-1 $198 $484 #
vertex $-1 $340 $485 #
straight-curve $-1 50.000000000000099 0 -50.00000000000005 0 -1 0 I I #
coedge $-1 $320 $322 $199 $332 reversed $192 $-1 #
edge $-1 $335 -50 $338 50 $331 $486 forward 7 unknown #
coedge $-1 $326 $200 $205 $341 forward $318 $-1 #
coedge $-1 $200 $326 $320 $477 reversed $318 $-1 #
vertex $-1 $201 $487 #
straight-curve $-1 0 50 50.00000000000005 -1 0 0 I I #
coedge $-1 $202 $321 $204 $340 reversed $120 $-1 #
vertex $-1 $332 $488 #
straight-curve $-1 0 -50 50.00000000000005 1 0 0 I I #
edge $-1 $207 -50.00000000000005 $329 50.00000000000005 $204 $489 forward 7 unknown #
edge $-1 $208 -50.00000000000005 $328 50.00000000000005 $205 $490 forward 7 unknown #
point $-1 50.000000000000099 -50 50.00000000000005 #
point $-1 50.000000000000099 50 50.00000000000005 #
face $-1 $-1 $491 $29 $-1 $492 reversed single #
plane-surface $-1 0 -16.499999999999396 0 0 1 0 0 0 1 forward_v I I I I #
coedge $-1 $361 $360 $348 $493 reversed $211 $-1 #
coedge $-1 $494 $213 $214 $352 reversed $128 $-1 #
coedge $-1 $213 $494 $346 $493 forward $128 $-1 #
coedge $-1 $495 $496 $213 $350 reversed $491 $-1 #
edge $-1 $497 -74.102540378443919 $498 -49.102540378443919 $349 $499 forward 7 unknown #
coedge $-1 $215 $214 $496 $500 forward $82 $-1 #
edge $-1 $354 -16.499999999999801 $498 16.500000000000199 $347 $501 forward 7 unknown #
coedge $-1 $216 $222 $494 $502 reversed $223 $-1 #
vertex $-1 $217 $503 #
straight-curve $-1 -18.750000000000028 -16.499999999999396 -148.2050807568879 1 0 0 I I #
coedge $-1 $496 $495 $218 $357 reversed $491 $-1 #
edge $-1 $358 49.102540378443919 $363 74.102540378443919 $356 $504 forward 7 unknown #
vertex $-1 $357 $505 #
straight-curve $-1 -87.500000000000156 -1.3145040611561853e-013 -148.2050807568879 0 -1 0 I I #
coedge $-1 $346 $220 $495 $506 forward $211 $-1 #
coedge $-1 $220 $346 $222 $365 forward $211 $-1 #
convexity-sys-attrib $-1 $-1 $-1 $221 #
vertex $-1 $506 $507 #
straight-curve $-1 -87.500000000000156 -6.5725203057809267e-014 -173.2050807568879 0 -1 0 I I #
edge $508 $509 -12.500000000000043 $224 87.499999999999957 $222 $510 forward 7 unknown #
point $-1 -87.499999999999957 -16.50000000000033 -173.2050807568879 #
point $-1 -87.499999999999957 -16.50000000000033 -148.2050807568879 #
face $-1 $-1 $511 $31 $-1 $512 reversed single #
plane-surface $-1 -16.5 0 0 1 0 0 0 0 -1 forward_v I I I I #
coedge $-1 $513 $230 $514 $515 forward $136 $-1 #
coedge $-1 $230 $513 $231 $375 reversed $136 $-1 #
coedge $-1 $233 $239 $230 $373 reversed $240 $-1 #
edge $-1 $376 148.20508075688784 $516 173.20508075688784 $372 $517 forward 7 unknown #
coedge $-1 $232 $231 $518 $519 forward $86 $-1 #
edge $-1 $376 -35.250000000000028 $520 -2.2500000000000284 $231 $521 forward 7 unknown #
vertex $-1 $234 $522 #
straight-curve $-1 -16.5 -16.624999999999972 -148.20508075688778 0 -1 0 I I #
coedge $-1 $518 $523 $235 $379 reversed $511 $-1 #
edge $-1 $380 49.102540378443862 $385 74.102540378443862 $378 $524 forward 7 unknown #
vertex $-1 $379 $525 #
straight-curve $-1 0 16.750000000000057 -148.20508075688778 -1 0 0 I I #
coedge $-1 $514 $237 $523 $526 forward $228 $-1 #
coedge $-1 $237 $514 $239 $387 forward $228 $-1 #
convexity-sys-attrib $-1 $-1 $-1 $238 #
vertex $-1 $526 $527 #
straight-curve $-1 0 16.750000000000057 -173.20508075688778 -1 0 0 I I #
edge $528 $516 -16.750000000000043 $241 16.750000000000057 $239 $529 forward 7 unknown #
point $-1 -16.5 16.750000000000057 -173.20508075688778 #
point $-1 -16.5 16.750000000000057 -148.20508075688778 #
face $-1 $-1 $530 $33 $-1 $531 reversed single #
plane-surface $-1 2.4628586555293697e-014 -33.249999999999822 50.000000000000057 2.7678191924213491e-032 -3.2229771625351218e-030 1 1 0 -2.7678191924213491e-032 forward_v I I I I #
coedge $-1 $254 $532 $256 $408 forward $245 $-1 #
coedge $-1 $533 $247 $532 $534 reversed $144 $-1 #
coedge $-1 $247 $533 $248 $398 forward $144 $-1 #
coedge $-1 $250 $256 $247 $396 reversed $257 $-1 #
edge $-1 $399 -16.5 $535 16.5 $247 $536 forward 7 unknown #
coedge $-1 $249 $248 $537 $538 reversed $90 $-1 #
edge $-1 $539 0 $399 25 $394 $540 forward 7 unknown #
vertex $-1 $398 $541 #
straight-curve $-1 16.5 -16.624999999999975 50.000000000000057 0 -1 0 I I #
coedge $-1 $537 $542 $252 $402 forward $530 $-1 #
edge $543 $406 -35.250000000000028 $403 -2.2500000000000284 $252 $544 forward 7 unknown #
vertex $-1 $402 $545 #
straight-curve $-1 16.5 -16.499999999999901 25.00000000000005 0 0 1 I I #
coedge $-1 $532 $254 $542 $546 reversed $245 $-1 #
vertex $-1 $546 $547 #
straight-curve $-1 -16.5 -16.500000000000099 25.00000000000005 0 0 1 I I #
edge $-1 $535 -33.375000000000028 $258 0.12499999999987566 $392 $548 forward 7 unknown #
point $-1 -16.5 -16.500000000000099 50.00000000000005 #
point $-1 16.5 -16.499999999999901 50.00000000000005 #
face $-1 $-1 $549 $35 $-1 $550 reversed single #
plane-surface $-1 0 1.9923019057803532e-013 24.999999999999901 0 0 1 1 0 0 forward_v I I I I #
coedge $-1 $271 $551 $273 $429 forward $262 $-1 #
coedge $-1 $552 $264 $551 $553 reversed $152 $-1 #
coedge $-1 $264 $552 $265 $419 forward $152 $-1 #
coedge $-1 $267 $273 $264 $417 reversed $274 $-1 #
edge $-1 $420 -16.499999999999801 $554 16.500000000000199 $264 $555 forward 7 unknown #
coedge $-1 $266 $265 $556 $557 forward $94 $-1 #
edge $-1 $558 0 $420 74.999999999999901 $415 $559 forward 7 unknown #
vertex $-1 $419 $560 #
straight-curve $-1 0 -16.499999999999801 24.999999999999901 -1 0 0 I I #
coedge $-1 $556 $561 $269 $423 reversed $549 $-1 #
edge $-1 $424 -16.499999999999801 $427 16.500000000000199 $269 $562 forward 7 unknown #
vertex $-1 $557 $563 #
straight-curve $-1 25 -16.499999999999801 -50.000000000000099 0 0 1 I I #
coedge $-1 $551 $271 $561 $564 forward $262 $-1 #
vertex $-1 $564 $565 #
straight-curve $-1 25 16.500000000000199 -49.999999999999901 0 0 1 I I #
edge $-1 $554 -25 $275 25 $413 $566 forward 7 unknown #
point $-1 25 16.500000000000199 25 #
point $-1 25 -16.499999999999801 24.999999999999801 #
model_id-kcp-attrib $-1 $-1 $-1 $279 1 990565417 80 -565182463 8 #
face $567 $568 $449 $10 $-1 $569 reversed single #
plane-surface $-1 -5.7609442090911694e-014 16.5 37.5 3.4914813388431298e-015 -1 0 0 0 1 forward_v I I I I #
coedge $-1 $281 $280 $570 $571 reversed $99 $-1 #
coedge $-1 $572 $573 $280 $437 forward $574 $-1 #
edge $-1 $575 -50 $443 -16.500000000000099 $436 $576 forward 7 unknown #
coedge $-1 $577 $578 $281 $439 forward $579 $-1 #
edge $-1 $442 16.499999999999901 $580 50 $438 $581 forward 7 unknown #
coedge $-1 $310 $282 $578 $582 reversed $182 $-1 #
coedge $-1 $282 $583 $572 $584 reversed $182 $-1 #
vertex $-1 $582 $585 #
vertex $-1 $437 $586 #
straight-curve $-1 0 16.499999999999901 25 1 0 0 I I #
coedge $-1 $587 $284 $588 $589 reversed $68 $-1 #
coedge $-1 $590 $591 $284 $447 forward $592 $-1 #
edge $-1 $593 16.500000000000057 $451 49.999999999999957 $446 $594 forward 7 unknown #
coedge $-1 $285 $595 $590 $596 reversed $449 $-1 #
loop $-1 $-1 $285 $433 #
attrib_edge_convexity-kcp-attrib $-1 $597 $-1 $286 1 #
vertex $-1 $447 $598 #
straight-curve $-1 -50 -16.500000000000199 18.75 0 0 -1 I I #
point $-1 -49.999999999999901 -16.500000000000199 25 #
straight-curve $-1 25 0 -50 0 1 0 I I #
coedge $-1 $583 $291 $599 $600 reversed $182 $-1 #
point $-1 25 16.500000000000199 -49.999999999999901 #
coedge $-1 $294 $601 $602 $603 reversed $68 $-1 #
point $-1 25 -16.499999999999801 -50.000000000000099 #
coedge $-1 $602 $599 $297 $460 forward $604 $-1 #
edge $-1 $462 -16.500000000000199 $461 16.499999999999801 $459 $605 forward 7 unknown #
vertex $-1 $460 $606 #
vertex $-1 $460 $607 #
loop $-1 $-1 $608 $464 #
face $609 $610 $304 $10 $-1 $611 reversed single #
straight-curve $-1 0 -16.499999999999801 -50 1 0 0 I I #
straight-curve $-1 0 16.500000000000199 -50 -1 0 0 I I #
coedge $-1 $612 $312 $309 $468 forward $449 $-1 #
edge $613 $314 6.25 $614 31.25 $467 $615 forward 7 unknown #
coedge $-1 $616 $617 $310 $470 forward $618 $-1 #
edge $619 $614 -50.000000000000043 $620 -16.499999999999943 $469 $621 forward 7 unknown #
attrib_edge_convexity-kcp-attrib $-1 $622 $-1 $313 1 #
straight-curve $-1 -50 0 25 0 1 0 I I #
point $-1 -50.000000000000099 16.499999999999801 25 #
model_id-kcp-attrib $-1 $-1 $-1 $317 1 990565417 80 -565182462 10 #
plane-surface $-1 50.000000000000099 0 0 -1 0 0 0 0 1 forward_v I I I I #
coedge $-1 $322 $320 $324 $480 reversed $192 $-1 #
edge $-1 $335 -50.00000000000005 $482 50.00000000000005 $334 $623 forward 7 unknown #
vertex $-1 $480 $624 #
straight-curve $-1 -50.000000000000099 -50 0 0 0 -1 I I #
edge $-1 $478 -50 $482 50 $476 $625 forward 7 unknown #
straight-curve $-1 0 -50 -50.00000000000005 -1 0 0 I I #
vertex $-1 $327 $626 #
straight-curve $-1 0 50 -50.00000000000005 1 0 0 I I #
point $-1 50.000000000000099 50 -50.00000000000005 #
point $-1 50.000000000000099 -50 -50.00000000000005 #
straight-curve $-1 -50.000000000000099 0 50.00000000000005 0 -1 0 I I #
point $-1 -50.000000000000099 50 50.00000000000005 #
point $-1 -50.000000000000099 -50 50.00000000000005 #
straight-curve $-1 50.000000000000099 -50 0 0 0 -1 I I #
straight-curve $-1 50.000000000000099 50 0 0 0 -1 I I #
loop $-1 $-1 $349 $344 #
plane-surface $-1 0 16.499999999999396 0 0 -1 0 0 0 -1 forward_v I I I I #
edge $627 $509 -16.499999999999865 $497 16.500000000000135 $346 $628 forward 7 unknown #
coedge $-1 $348 $347 $353 $502 forward $128 $-1 #
coedge $-1 $356 $349 $360 $506 reversed $491 $-1 #
coedge $-1 $349 $356 $351 $500 reversed $491 $-1 #
vertex $-1 $350 $629 #
vertex $-1 $500 $630 #
straight-curve $-1 12.500000000000043 16.499999999999396 -99.102540378443976 0 0 1 I I #
edge $-1 $498 -31.249999999999872 $358 68.750000000000128 $496 $631 forward 7 unknown #
straight-curve $-1 12.500000000000043 -1.3145040611561853e-013 -148.2050807568879 0 1 0 I I #
edge $-1 $354 49.102540378443919 $509 74.102540378443919 $353 $632 forward 7 unknown #
point $-1 12.500000000000043 -16.499999999999932 -148.2050807568879 #
straight-curve $-1 -87.500000000000156 16.499999999999396 -99.102540378443976 0 0 -1 I I #
point $-1 -87.500000000000156 16.49999999999967 -148.2050807568879 #
edge $633 $363 -87.500000000000156 $497 12.499999999999844 $495 $634 forward 7 unknown #
point $-1 -87.500000000000156 16.49999999999967 -173.2050807568879 #
convexity-sys-attrib $-1 $-1 $-1 $365 #
vertex $-1 $365 $635 #
straight-curve $-1 0 -16.499999999999396 -173.2050807568879 -1 0 0 I I #
loop $-1 $-1 $636 $368 #
plane-surface $-1 16.5 0 0 -1 0 0 0 0 1 forward_v I I I I #
coedge $-1 $371 $370 $636 $637 forward $136 $-1 #
coedge $-1 $383 $382 $370 $515 reversed $228 $-1 #
edge $638 $516 -35.250000000000028 $639 -2.2500000000000284 $514 $640 forward 7 unknown #
vertex $-1 $387 $641 #
straight-curve $-1 -16.5 -16.750000000000416 5.6843418860808015e-014 0 0 -1 I I #
coedge $-1 $636 $378 $374 $519 reversed $511 $-1 #
edge $-1 $520 -0.1249999999998721 $380 33.375000000000028 $518 $642 forward 7 unknown #
vertex $-1 $519 $643 #
straight-curve $-1 18.750000000000028 -16.750000000000416 -148.20508075688781 1 0 0 I I #
point $-1 -16.5 -16.750000000000043 -148.20508075688778 #
coedge $-1 $378 $636 $382 $526 reversed $511 $-1 #
straight-curve $-1 16.5 16.750000000000057 -99.102540378443919 0 0 -1 I I #
point $-1 16.5 16.750000000000057 -148.20508075688778 #
edge $644 $385 -16.750000000000057 $639 16.749999999999844 $523 $645 forward 7 unknown #
point $-1 16.5 16.750000000000057 -173.20508075688778 #
convexity-sys-attrib $-1 $-1 $-1 $387 #
straight-curve $-1 -16.5 0 -173.20508075688778 0 1 0 I I #
loop $-1 $-1 $542 $390 #
plane-surface $-1 2.4628586555293697e-014 -33.249999999999822 25.000000000000057 2.7678191924213491e-032 -3.2229771625351218e-030 1 1 0 -2.7678191924213491e-032 forward_v I I I I #
coedge $-1 $392 $405 $393 $534 forward $245 $-1 #
coedge $-1 $394 $393 $646 $647 reversed $144 $-1 #
edge $-1 $648 0 $535 25 $532 $649 forward 7 unknown #
vertex $-1 $534 $650 #
straight-curve $-1 0 -50 50.000000000000057 -1 0 0 I I #
coedge $-1 $646 $401 $397 $538 forward $530 $-1 #
edge $651 $403 -0.12500000000007461 $539 33.375000000000028 $397 $652 forward 7 unknown #
vertex $-1 $538 $653 #
straight-curve $-1 16.5 -50 25.00000000000005 0 0 1 I I #
point $-1 16.5 -50 50.00000000000005 #
coedge $-1 $401 $646 $405 $546 forward $530 $-1 #
convexity-sys-attrib $-1 $-1 $-1 $402 #
straight-curve $-1 18.750000000000028 -16.499999999999268 25.000000000000057 1 0 0 I I #
point $-1 16.5 -16.499999999999901 25.00000000000005 #
edge $654 $648 -33.375000000000028 $406 0.12499999999987566 $405 $655 forward 7 unknown #
point $-1 -16.5 -16.500000000000099 25.00000000000005 #
straight-curve $-1 -16.5 -16.624999999999975 50.000000000000057 0 1 0 I I #
loop $-1 $-1 $561 $411 #
plane-surface $-1 0 1.9923019057803532e-013 -50 0 0 1 1 0 0 forward_v I I I I #
coedge $-1 $413 $426 $414 $553 forward $262 $-1 #
coedge $-1 $415 $414 $656 $657 forward $152 $-1 #
edge $-1 $658 0 $554 74.999999999999901 $551 $659 forward 7 unknown #
vertex $-1 $553 $660 #
straight-curve $-1 -25 0 24.999999999999901 0 1 0 I I #
coedge $-1 $656 $422 $418 $557 reversed $549 $-1 #
edge $-1 $558 -25 $424 25 $418 $661 forward 7 unknown #
vertex $-1 $657 $662 #
straight-curve $-1 -25 -16.499999999999801 -50.000000000000099 0 0 1 I I #
point $-1 -25 -16.499999999999801 24.999999999999801 #
coedge $-1 $422 $656 $426 $564 reversed $549 $-1 #
straight-curve $-1 25 0 -50 0 1 0 I I #
point $-1 25 -16.499999999999801 -50.000000000000099 #
edge $-1 $427 -25 $658 25 $426 $663 forward 7 unknown #
point $-1 25 16.500000000000199 -49.999999999999901 #
straight-curve $-1 0 16.500000000000199 24.999999999999901 1 0 0 I I #
model_id-kcp-attrib $-1 $-1 $-1 $433 1 990565417 80 -565182463 9 #
face $664 $665 $618 $10 $-1 $666 forward single #
plane-surface $-1 -50 0 0 1 0 0 0 0 -1 forward_v I I I I #
coedge $-1 $667 $668 $435 $571 forward $669 $-1 #
edge $-1 $580 -16.5 $575 16.5 $570 $670 forward 7 unknown #
coedge $-1 $671 $436 $441 $584 forward $574 $-1 #
coedge $-1 $436 $671 $667 $672 reversed $574 $-1 #
loop $-1 $-1 $572 $673 #
vertex $-1 $571 $674 #
straight-curve $-1 16.5 0 25 0 -1 0 I I #
coedge $-1 $675 $438 $668 $676 reversed $579 $-1 #
coedge $-1 $438 $675 $440 $582 forward $579 $-1 #
loop $-1 $-1 $578 $665 #
vertex $-1 $571 $677 #
straight-curve $-1 -16.5 0 25 0 1 0 I I #
edge $-1 $620 -12.5 $442 12.5 $578 $678 forward 7 unknown #
coedge $-1 $441 $455 $679 $680 reversed $182 $-1 #
edge $-1 $443 -12.5 $681 12.5 $572 $682 forward 7 unknown #
point $-1 -16.5 16.499999999999901 25 #
point $-1 16.5 16.500000000000099 25 #
coedge $-1 $683 $445 $684 $685 reversed $68 $-1 #
coedge $-1 $686 $687 $445 $589 forward $688 $-1 #
edge $-1 $689 -12.5 $593 12.5 $588 $690 forward 7 unknown #
coedge $-1 $691 $446 $448 $596 forward $592 $-1 #
coedge $-1 $446 $691 $686 $692 forward $592 $-1 #
loop $-1 $-1 $446 $693 #
vertex $-1 $692 $694 #
straight-curve $-1 5.7609442090911694e-014 -16.5 50 -1 -3.4914813388431298e-015 0 I I #
coedge $-1 $448 $695 $696 $697 reversed $449 $-1 #
edge $698 $451 16.500000000000199 $699 50 $448 $700 forward 7 unknown #
convexity-sys-attrib $-1 $-1 $450 $286 #
point $-1 -49.999999999999901 -16.500000000000199 50 #
coedge $-1 $459 $701 $455 $600 forward $604 $-1 #
edge $-1 $702 -31.25 $462 -6.25 $599 $703 forward 7 unknown #
coedge $-1 $457 $683 $704 $705 reversed $68 $-1 #
coedge $-1 $706 $459 $457 $603 forward $604 $-1 #
edge $-1 $461 6.25 $707 31.25 $602 $708 forward 7 unknown #
loop $-1 $-1 $602 $709 #
straight-curve $-1 50 0 25 0 -1 0 I I #
point $-1 50.000000000000099 -16.499999999999801 25 #
point $-1 49.999999999999901 16.500000000000199 25 #
coedge $-1 $710 $711 $712 $713 forward $463 $-1 #
model_id-kcp-attrib $-1 $-1 $-1 $464 1 990565417 80 -565182463 20 #
face $714 $709 $669 $10 $-1 $715 reversed single #
plane-surface $-1 0 0 -50 0 0 1 1 0 0 forward_v I I I I #
coedge $-1 $716 $467 $617 $717 reversed $449 $-1 #
attrib_edge_convexity-kcp-attrib $-1 $718 $-1 $468 1 #
vertex $-1 $717 $719 #
straight-curve $-1 -50 16.499999999999801 18.75 0 0 1 I I #
coedge $-1 $720 $469 $675 $721 forward $618 $-1 #
coedge $-1 $469 $720 $612 $717 forward $618 $-1 #
loop $-1 $-1 $469 $568 #
attrib_edge_convexity-kcp-attrib $-1 $722 $-1 $470 1 #
vertex $-1 $582 $723 #
straight-curve $-1 -5.7609442090911694e-014 16.5 50 1 3.4914813388431298e-015 0 I I #
convexity-sys-attrib $-1 $-1 $471 $313 #
straight-curve $-1 -50.000000000000099 50 0 0 0 -1 I I #
point $-1 -50.000000000000099 -50 -50.00000000000005 #
straight-curve $-1 -50.000000000000099 0 -50.00000000000005 0 1 0 I I #
point $-1 -50.000000000000099 50 -50.00000000000005 #
convexity-sys-attrib $-1 $-1 $-1 $493 #
straight-curve $-1 12.500000000000043 -6.5725203057809267e-014 -173.2050807568879 0 1 0 I I #
point $-1 12.499999999999844 16.500000000000068 -173.2050807568879 #
point $-1 12.499999999999844 16.500000000000068 -148.2050807568879 #
straight-curve $-1 -18.750000000000028 16.499999999999396 -148.2050807568879 -1 0 0 I I #
straight-curve $-1 12.500000000000043 -16.499999999999396 -99.102540378443976 0 0 -1 I I #
convexity-sys-attrib $-1 $-1 $-1 $506 #
straight-curve $-1 0 16.499999999999396 -173.2050807568879 1 0 0 I I #
point $-1 12.500000000000043 -16.499999999999932 -173.2050807568879 #
coedge $-1 $523 $518 $513 $637 reversed $511 $-1 #
edge $-1 $639 -173.20508075688784 $520 -148.20508075688784 $636 $724 forward 7 unknown #
convexity-sys-attrib $-1 $-1 $-1 $515 #
vertex $-1 $515 $725 #
straight-curve $-1 18.750000000000028 -16.750000000000416 -173.20508075688778 1 0 0 I I #
point $-1 -16.5 -16.750000000000043 -173.20508075688778 #
straight-curve $-1 16.5 -16.624999999999972 -148.20508075688778 0 1 0 I I #
point $-1 16.5 -16.749999999999844 -148.20508075688778 #
convexity-sys-attrib $-1 $-1 $-1 $526 #
straight-curve $-1 16.5 0 -173.20508075688778 0 -1 0 I I #
coedge $-1 $542 $537 $533 $647 forward $530 $-1 #
edge $726 $539 -16.5 $648 16.5 $533 $727 forward 7 unknown #
vertex $-1 $546 $728 #
straight-curve $-1 -16.5 -50 25.00000000000005 0 0 1 I I #
point $-1 -16.5 -50 50.00000000000005 #
convexity-sys-attrib $-1 $-1 $-1 $538 #
straight-curve $-1 16.5 -16.624999999999975 25.000000000000057 0 -1 0 I I #
point $-1 16.5 -50 25.00000000000005 #
convexity-sys-attrib $-1 $-1 $-1 $546 #
straight-curve $-1 -16.5 -16.624999999999975 25.000000000000057 0 1 0 I I #
coedge $-1 $561 $556 $552 $657 reversed $549 $-1 #
edge $-1 $658 -16.500000000000199 $558 16.499999999999801 $552 $729 forward 7 unknown #
vertex $-1 $564 $730 #
straight-curve $-1 -25 16.500000000000199 -49.999999999999901 0 0 1 I I #
point $-1 -25 16.500000000000199 25 #
straight-curve $-1 0 -16.499999999999801 -50 1 0 0 I I #
point $-1 -25 -16.499999999999801 -50.000000000000099 #
straight-curve $-1 0 16.500000000000199 -50 -1 0 0 I I #
model_id-kcp-attrib $-1 $-1 $-1 $568 1 990565417 80 -565182463 10 #
face $731 $673 $579 $10 $-1 $732 forward single #
plane-surface $-1 0 0 50 0 0 1 1 0 0 forward_v I I I I #
coedge $-1 $733 $570 $573 $672 forward $669 $-1 #
coedge $-1 $570 $734 $577 $676 forward $669 $-1 #
loop $-1 $-1 $667 $610 #
straight-curve $-1 0 50 25 1 0 0 I I #
coedge $-1 $573 $572 $735 $736 reversed $574 $-1 #
edge $-1 $575 6.25 $737 31.25 $667 $738 forward 7 unknown #
face $739 $740 $574 $10 $-1 $741 forward single #
point $-1 16.5 50 25 #
coedge $-1 $578 $577 $616 $721 reversed $579 $-1 #
edge $-1 $742 -31.25 $580 -6.25 $668 $743 forward 7 unknown #
point $-1 -16.5 50 25 #
straight-curve $-1 -16.5 16.499999999999901 37.5 0 0 -1 I I #
coedge $-1 $744 $735 $583 $680 forward $745 $-1 #
edge $-1 $681 16.500000000000057 $702 49.999999999999957 $679 $746 forward 7 unknown #
vertex $-1 $736 $747 #
straight-curve $-1 16.5 16.500000000000099 37.5 0 0 1 I I #
coedge $-1 $601 $587 $748 $749 reversed $68 $-1 #
coedge $-1 $750 $751 $587 $685 forward $752 $-1 #
edge $-1 $753 -16.5 $689 16.5 $684 $754 forward 7 unknown #
coedge $-1 $755 $588 $591 $692 reversed $688 $-1 #
coedge $-1 $588 $755 $750 $756 forward $688 $-1 #
loop $-1 $-1 $588 $757 #
vertex $-1 $756 $758 #
straight-curve $-1 -16.5 -16.500000000000099 37.5 0 0 1 I I #
coedge $-1 $591 $590 $759 $760 forward $592 $-1 #
edge $-1 $761 -50 $593 -16.500000000000099 $591 $762 forward 7 unknown #
face $763 $764 $592 $10 $-1 $666 forward single #
point $-1 -16.5 -16.500000000000099 50 #
coedge $-1 $595 $716 $765 $766 reversed $449 $-1 #
coedge $-1 $767 $759 $595 $697 forward $768 $-1 #
edge $769 $699 -50 $770 50 $595 $771 forward 7 unknown #
attrib_edge_convexity-kcp-attrib $-1 $772 $-1 $596 1 #
vertex $-1 $596 $773 #
straight-curve $-1 -50 0 50 0 -1 0 I I #
coedge $-1 $599 $774 $744 $775 reversed $604 $-1 #
vertex $-1 $600 $776 #
straight-curve $-1 50 16.500000000000199 18.75 0 0 -1 I I #
coedge $-1 $777 $778 $601 $705 forward $779 $-1 #
edge $-1 $707 -50.000000000000043 $780 -16.499999999999943 $704 $781 forward 7 unknown #
coedge $-1 $782 $602 $778 $783 reversed $604 $-1 #
vertex $-1 $783 $784 #
straight-curve $-1 50 -16.499999999999801 18.75 0 0 1 I I #
face $785 $-1 $604 $10 $-1 $786 reversed single #
coedge $-1 $765 $608 $767 $787 forward $463 $-1 #
coedge $-1 $608 $765 $788 $789 forward $463 $-1 #
coedge $-1 $774 $782 $608 $713 reversed $604 $-1 #
edge $-1 $790 -50 $791 50 $712 $792 forward 7 unknown #
model_id-kcp-attrib $-1 $-1 $-1 $610 1 990565417 80 -565182463 21 #
plane-surface $-1 0 50 0 0 -1 0 0 0 -1 forward_v I I I I #
coedge $-1 $695 $612 $793 $794 forward $449 $-1 #
edge $795 $796 -50 $614 -16.499999999999801 $612 $700 forward 7 unknown #
convexity-sys-attrib $-1 $-1 $613 $468 #
point $-1 -50.000000000000099 16.499999999999801 50 #
coedge $-1 $617 $616 $734 $797 forward $618 $-1 #
edge $798 $620 16.499999999999901 $742 50 $616 $762 forward 7 unknown #
convexity-sys-attrib $-1 $-1 $619 $470 #
point $-1 -16.5 16.499999999999901 50 #
straight-curve $-1 16.5 -16.750000000000416 5.6843418860808015e-014 0 0 1 I I #
point $-1 16.5 -16.749999999999844 -173.20508075688778 #
convexity-sys-attrib $-1 $-1 $-1 $647 #
straight-curve $-1 0 -50 25.000000000000057 -1 0 0 I I #
point $-1 -16.5 -50 25.00000000000005 #
straight-curve $-1 -25 0 -50 0 -1 0 I I #
point $-1 -25 16.500000000000199 -49.999999999999901 #
model_id-kcp-attrib $-1 $-1 $-1 $665 1 990565417 80 -565182463 11 #
plane-surface $-1 -16.5 0 37.5 1 0 0 0 0 -1 forward_v I I I I #
coedge $-1 $799 $667 $800 $801 reversed $669 $-1 #
coedge $-1 $668 $793 $720 $797 reversed $669 $-1 #
coedge $-1 $679 $800 $671 $736 forward $745 $-1 #
edge $-1 $737 -50 $681 -16.500000000000099 $735 $802 forward 7 unknown #
vertex $-1 $801 $803 #
straight-curve $-1 16.5 50 18.75 0 0 1 I I #
model_id-kcp-attrib $-1 $-1 $-1 $673 1 990565417 80 -565182463 12 #
face $804 $805 $745 $10 $-1 $666 forward single #
plane-surface $-1 16.5 0 37.5 -1 0 0 0 0 1 forward_v I I I I #
vertex $-1 $676 $806 #
straight-curve $-1 -16.5 50 18.75 0 0 -1 I I #
coedge $-1 $800 $679 $701 $775 forward $745 $-1 #
loop $-1 $-1 $679 $740 #
straight-curve $-1 -5.7609442090911694e-014 16.5 50 1 3.4914813388431298e-015 0 I I #
point $-1 16.5 16.500000000000099 50 #
coedge $-1 $807 $808 $683 $749 forward $809 $-1 #
edge $-1 $780 -12.5 $753 12.5 $748 $810 forward 7 unknown #
coedge $-1 $811 $684 $687 $756 reversed $752 $-1 #
coedge $-1 $684 $811 $807 $812 reversed $752 $-1 #
loop $-1 $-1 $684 $805 #
vertex $-1 $749 $813 #
straight-curve $-1 0 -16.500000000000099 25 -1 0 0 I I #
coedge $-1 $687 $686 $814 $815 reversed $688 $-1 #
edge $-1 $816 -50 $689 -16.500000000000099 $687 $581 forward 7 unknown #
face $817 $818 $688 $10 $-1 $732 forward single #
point $-1 -16.5 -16.500000000000099 25 #
coedge $-1 $696 $814 $691 $760 reversed $768 $-1 #
edge $819 $699 -50 $761 -16.5 $759 $820 forward 7 unknown #
vertex $-1 $760 $821 #
straight-curve $-1 -16.5 0 50 0 1 0 I I #
model_id-kcp-attrib $-1 $-1 $-1 $693 1 990565417 80 -565182463 18 #
face $822 $464 $779 $10 $-1 $666 forward single #
coedge $-1 $711 $710 $695 $766 forward $463 $-1 #
edge $823 $770 -50 $824 50 $695 $825 forward 7 unknown #
coedge $-1 $826 $696 $710 $787 reversed $768 $-1 #
loop $-1 $-1 $827 $828 #
attrib_edge_convexity-kcp-attrib $-1 $829 $-1 $697 1 #
vertex $-1 $766 $830 #
straight-curve $-1 -50 -50 0 0 0 -1 I I #
convexity-sys-attrib $-1 $-1 $698 $596 #
point $-1 -50 -50 50 #
coedge $-1 $701 $712 $799 $831 reversed $604 $-1 #
edge $-1 $702 16.500000000000199 $832 50 $701 $833 forward 7 unknown #
point $-1 49.999999999999901 16.500000000000199 50 #
coedge $-1 $834 $704 $808 $835 forward $779 $-1 #
coedge $-1 $704 $834 $706 $783 forward $779 $-1 #
loop $-1 $-1 $704 $764 #
vertex $-1 $705 $836 #
straight-curve $-1 5.7609442090911694e-014 -16.5 50 -1 -3.4914813388431298e-015 0 I I #
coedge $-1 $712 $706 $826 $837 forward $604 $-1 #
edge $-1 $838 -50 $707 -16.499999999999801 $706 $833 forward 7 unknown #
point $-1 50.000000000000099 -16.499999999999801 50 #
model_id-kcp-attrib $-1 $-1 $-1 $709 1 990565417 80 -565182463 22 #
plane-surface $-1 50 0 0 -1 0 0 0 0 1 forward_v I I I I #
edge $839 $791 -50 $770 50 $767 $840 forward 7 unknown #
coedge $-1 $793 $799 $711 $789 reversed $669 $-1 #
edge $-1 $824 -50 $790 50 $788 $841 forward 7 unknown #
vertex $-1 $713 $842 #
vertex $-1 $837 $843 #
straight-curve $-1 50 0 -50 0 -1 0 I I #
coedge $-1 $734 $788 $716 $794 reversed $669 $-1 #
edge $844 $796 -50 $824 50 $793 $845 forward 7 unknown #
attrib_edge_convexity-kcp-attrib $-1 $846 $-1 $717 1 #
vertex $-1 $797 $847 #
edge $848 $742 16.5 $796 50 $734 $849 forward 7 unknown #
attrib_edge_convexity-kcp-attrib $-1 $850 $-1 $721 1 #
coedge $-1 $788 $733 $774 $831 forward $669 $-1 #
coedge $-1 $735 $744 $733 $801 forward $745 $-1 #
edge $-1 $832 -50 $737 -16.5 $733 $849 forward 7 unknown #
straight-curve $-1 16.5 0 50 0 -1 0 I I #
point $-1 16.5 50 50 #
model_id-kcp-attrib $-1 $-1 $-1 $740 1 990565417 80 -565182463 13 #
face $851 $757 $752 $10 $-1 $100 forward single #
point $-1 -16.5 50 50 #
coedge $-1 $852 $748 $751 $812 forward $809 $-1 #
coedge $-1 $748 $852 $777 $835 reversed $809 $-1 #
loop $-1 $-1 $748 $818 #
straight-curve $-1 16.5 -16.499999999999901 37.5 0 0 -1 I I #
coedge $-1 $751 $750 $853 $854 reversed $752 $-1 #
edge $-1 $753 16.499999999999901 $855 50 $807 $576 forward 7 unknown #
point $-1 16.5 -16.499999999999901 25 #
coedge $-1 $759 $853 $755 $815 forward $768 $-1 #
edge $856 $816 6.25 $761 31.25 $814 $857 forward 7 unknown #
vertex $-1 $854 $858 #
model_id-kcp-attrib $-1 $-1 $-1 $757 1 990565417 80 -565182463 15 #
face $859 $828 $809 $10 $-1 $741 forward single #
attrib_edge_convexity-kcp-attrib $-1 $860 $-1 $760 1 #
straight-curve $-1 0 -50 50 1 0 0 I I #
point $-1 -16.5 -50 50 #
model_id-kcp-attrib $-1 $-1 $-1 $764 1 990565417 80 -565182463 19 #
attrib_edge_convexity-kcp-attrib $-1 $861 $-1 $766 1 #
vertex $-1 $789 $862 #
straight-curve $-1 -50 0 -50 0 1 0 I I #
coedge $-1 $863 $767 $782 $837 reversed $768 $-1 #
coedge $-1 $853 $863 $852 $864 forward $768 $-1 #
face $865 $693 $768 $10 $-1 $866 reversed single #
convexity-sys-attrib $-1 $-1 $769 $697 #
point $-1 -50 -50 -50 #
edge $-1 $832 -50 $790 50 $774 $867 forward 7 unknown #
vertex $-1 $775 $868 #
straight-curve $-1 50 0 50 0 1 0 I I #
coedge $-1 $778 $777 $863 $869 forward $779 $-1 #
edge $-1 $780 16.499999999999901 $870 50 $777 $802 forward 7 unknown #
point $-1 16.5 -16.499999999999901 50 #
edge $871 $838 -50 $791 50 $782 $872 forward 7 unknown #
vertex $-1 $783 $873 #
attrib_edge_convexity-kcp-attrib $-1 $874 $-1 $787 1 #
straight-curve $-1 0 -50 -50 -1 0 0 I I #
straight-curve $-1 0 50 -50 1 0 0 I I #
point $-1 50 50 -50 #
point $-1 50 -50 -50 #
attrib_edge_convexity-kcp-attrib $-1 $875 $-1 $794 1 #
straight-curve $-1 -50 50 0 0 0 -1 I I #
convexity-sys-attrib $-1 $-1 $795 $717 #
point $-1 -50 50 50 #
attrib_edge_convexity-kcp-attrib $-1 $876 $-1 $797 1 #
straight-curve $-1 0 50 50 -1 0 0 I I #
convexity-sys-attrib $-1 $-1 $798 $721 #
model_id-kcp-attrib $-1 $-1 $-1 $805 1 990565417 80 -565182463 14 #
coedge $-1 $808 $807 $827 $864 reversed $809 $-1 #
coedge $-1 $814 $827 $811 $854 forward $768 $-1 #
edge $877 $855 -16.5 $816 16.5 $853 $878 forward 7 unknown #
vertex $-1 $854 $879 #
attrib_edge_convexity-kcp-attrib $-1 $880 $-1 $815 1 #
straight-curve $-1 -16.5 -50 18.75 0 0 1 I I #
point $-1 -16.5 -50 25 #
model_id-kcp-attrib $-1 $-1 $-1 $818 1 990565417 80 -565182463 16 #
convexity-sys-attrib $-1 $-1 $819 $760 #
convexity-sys-attrib $-1 $-1 $823 $766 #
point $-1 -50 50 -50 #
coedge $-1 $827 $826 $834 $869 reversed $768 $-1 #
edge $881 $870 -31.25 $855 -6.25 $827 $882 forward 7 unknown #
model_id-kcp-attrib $-1 $-1 $-1 $828 1 990565417 80 -565182463 17 #
plane-surface $-1 0 -50 0 0 1 0 0 0 1 forward_v I I I I #
straight-curve $-1 50 50 0 0 0 -1 I I #
point $-1 50 50 50 #
edge $883 $870 16.5 $838 50 $863 $820 forward 7 unknown #
vertex $-1 $835 $884 #
attrib_edge_convexity-kcp-attrib $-1 $885 $-1 $837 1 #
straight-curve $-1 50 -50 0 0 0 -1 I I #
point $-1 50 -50 50 #
convexity-sys-attrib $-1 $-1 $839 $787 #
convexity-sys-attrib $-1 $-1 $844 $794 #
convexity-sys-attrib $-1 $-1 $848 $797 #
attrib_edge_convexity-kcp-attrib $-1 $886 $-1 $854 1 #
straight-curve $-1 0 -50 25 -1 0 0 I I #
point $-1 16.5 -50 25 #
convexity-sys-attrib $-1 $-1 $856 $815 #
attrib_edge_convexity-kcp-attrib $-1 $887 $-1 $864 1 #
straight-curve $-1 16.5 -50 18.75 0 0 -1 I I #
attrib_edge_convexity-kcp-attrib $-1 $888 $-1 $869 1 #
point $-1 16.5 -50 50 #
convexity-sys-attrib $-1 $-1 $871 $837 #
convexity-sys-attrib $-1 $-1 $877 $854 #
convexity-sys-attrib $-1 $-1 $881 $864 #
convexity-sys-attrib $-1 $-1 $883 $869 #
End-of-ACIS-data 