104 856 0 0                             
body $1 $2 $-1 $-1 #
f_body-lwd-attrib $-1 $3 $-1 $0 #
lump $-1 $-1 $4 $0 #
ref_vt-lwd-attrib $-1 $-1 $1 $0 $-1 $-1 #
shell $-1 $-1 $-1 $5 $2 #
face $-1 $6 $7 $4 $-1 $8 0 #
face $-1 $9 $10 $4 $-1 $8 0 #
loop $-1 $-1 $11 $5 #
cone-surface $-1 0 0 26.75 0 0 -1 -43.5 0 4.44089209850063e-15 1 0 1 0 #
face $-1 $12 $13 $4 $-1 $8 0 #
loop $-1 $-1 $14 $6 #
coedge $15 $16 $17 $18 $19 0 $7 $-1 #
face $-1 $20 $21 $4 $-1 $22 1 #
loop $-1 $23 $24 $9 #
coedge $25 $26 $27 $28 $29 0 $10 $-1 #
copar-lwd-attrib $-1 $-1 $-1 $11 #
coedge $30 $31 $11 $32 $33 1 $7 $-1 #
coedge $34 $11 $31 $35 $36 1 $7 $-1 #
coedge $-1 $37 $38 $11 $19 1 $39 $-1 #
edge $40 $41 $42 $18 $43 1 #
face $-1 $44 $45 $4 $-1 $46 0 #
loop $-1 $47 $48 $12 #
cone-surface $-1 0 0 0 0 -1 -3.49148336110938e-15 12.5 0 0 1 0 1 0 #
loop $-1 $-1 $49 $9 #
coedge $50 $51 $52 $53 $54 0 $13 $-1 #
copar-lwd-attrib $-1 $-1 $-1 $14 #
coedge $55 $56 $14 $57 $58 1 $10 $-1 #
coedge $59 $14 $56 $60 $61 1 $10 $-1 #
coedge $-1 $62 $63 $14 $29 1 $64 $-1 #
edge $-1 $65 $66 $14 $67 0 #
copar-lwd-attrib $-1 $-1 $-1 $16 #
coedge $68 $17 $16 $69 $70 0 $7 $-1 #
coedge $-1 $71 $72 $16 $33 0 $73 $-1 #
edge $74 $75 $42 $32 $76 0 #
copar-lwd-attrib $-1 $-1 $-1 $17 #
coedge $-1 $77 $78 $17 $36 0 $73 $-1 #
edge $79 $41 $80 $17 $81 1 #
coedge $-1 $82 $18 $78 $83 1 $39 $-1 #
coedge $-1 $18 $82 $71 $84 1 $39 $-1 #
loop $-1 $-1 $18 $85 #
epar-lwd-attrib $-1 $-1 $-1 $19 #
vertex $-1 $19 $86 #
vertex $-1 $33 $87 #
ellipse-curve $-1 0 0 24 0 0 -1 -43.5 0 4.44089209850063e-15 1 #
face $-1 $88 $89 $4 $-1 $90 0 #
loop $-1 $91 $92 $20 #
plane-surface $-1 -0.0223377260432231 11.1500000000175 10.9101337101325 -1.64475376528413e-13 -1 3.70880383992116e-14 0 -3.70880383992116e-13 -10 0 #
loop $-1 $-1 $93 $12 #
coedge $-1 $48 $48 $92 $94 1 $21 $-1 #
coedge $95 $49 $49 $93 $96 0 $23 $-1 #
copar-lwd-attrib $-1 $-1 $-1 $24 #
coedge $97 $98 $24 $99 $100 1 $13 $-1 #
coedge $101 $24 $98 $102 $103 1 $13 $-1 #
coedge $-1 $104 $105 $24 $54 1 $106 $-1 #
edge $-1 $107 $108 $24 $109 0 #
copar-lwd-attrib $-1 $-1 $-1 $26 #
coedge $110 $27 $26 $111 $112 0 $10 $-1 #
coedge $-1 $113 $114 $26 $58 0 $73 $-1 #
edge $115 $116 $66 $26 $117 1 #
copar-lwd-attrib $-1 $-1 $-1 $27 #
coedge $-1 $118 $119 $27 $61 0 $73 $-1 #
edge $120 $65 $121 $60 $122 0 #
coedge $-1 $123 $28 $119 $124 1 $64 $-1 #
coedge $-1 $28 $123 $113 $125 1 $64 $-1 #
loop $-1 $-1 $123 $126 #
vertex $-1 $124 $127 #
vertex $-1 $29 $128 #
ellipse-curve $-1 0 0 22 0 0 -1 -43.5 0 4.44089209850063e-15 1 #
copar-lwd-attrib $-1 $-1 $-1 $31 #
coedge $-1 $129 $130 $31 $70 1 $131 $-1 #
edge $-1 $75 $80 $31 $132 0 #
coedge $-1 $133 $32 $38 $84 0 $73 $-1 #
coedge $-1 $32 $134 $129 $135 0 $73 $-1 #
loop $-1 $-1 $136 $137 #
epar-lwd-attrib $-1 $-1 $-1 $33 #
vertex $-1 $135 $138 #
straight-curve $-1 -43.5 0 29.5 0 0 -10 #
coedge $-1 $139 $35 $130 $140 0 $73 $-1 #
coedge $-1 $35 $141 $37 $83 0 $73 $-1 #
epar-lwd-attrib $-1 $-1 $-1 $36 #
vertex $-1 $70 $142 #
straight-curve $-1 43.5 5.32703763912734e-15 29.5 -1.53099573562567e-47 1.25019417941689e-31 -10 #
coedge $-1 $38 $37 $143 $144 0 $39 $-1 #
edge $-1 $145 $41 $37 $146 1 #
edge $-1 $42 $147 $71 $148 0 #
face $-1 $149 $39 $4 $-1 $150 0 #
point $-1 43.5 5.32703763912734e-15 24 #
point $-1 -43.5 0 24 #
face $-1 $151 $152 $4 $-1 $153 0 #
loop $-1 $-1 $154 $44 #
plane-surface $-1 -16.488772789002 11.15 24.2570696000002 -1 0 -1.62092561595292e-14 -1.62092561595292e-13 0 10 0 #
loop $-1 $-1 $155 $20 #
coedge $-1 $92 $92 $48 $94 0 $45 $-1 #
coedge $-1 $93 $93 $49 $96 1 $47 $-1 #
edge $-1 $156 $156 $92 $157 0 #
copar-lwd-attrib $-1 $-1 $-1 $49 #
edge $158 $159 $159 $49 $160 0 #
copar-lwd-attrib $-1 $-1 $-1 $51 #
coedge $161 $52 $51 $162 $163 1 $13 $-1 #
coedge $-1 $164 $165 $51 $100 0 $73 $-1 #
edge $166 $167 $108 $51 $168 1 #
copar-lwd-attrib $-1 $-1 $-1 $52 #
coedge $-1 $169 $170 $52 $103 0 $73 $-1 #
edge $171 $107 $172 $102 $173 0 #
coedge $-1 $174 $53 $170 $175 1 $106 $-1 #
coedge $-1 $53 $174 $164 $176 1 $106 $-1 #
loop $-1 $-1 $174 $177 #
vertex $-1 $175 $178 #
vertex $-1 $54 $179 #
ellipse-curve $-1 0 0 16.3 0 0 -1 -43.5 0 4.44089209850063e-15 1 #
copar-lwd-attrib $-1 $-1 $-1 $56 #
coedge $-1 $180 $181 $56 $112 1 $182 $-1 #
edge $183 $116 $121 $111 $184 1 #
coedge $-1 $141 $57 $63 $125 0 $73 $-1 #
coedge $-1 $57 $185 $180 $186 0 $73 $-1 #
epar-lwd-attrib $-1 $-1 $-1 $58 #
vertex $-1 $112 $187 #
straight-curve $-1 43.5 5.32703763912734e-15 22 -1.53099573562567e-47 1.25019417941689e-31 -10 #
coedge $-1 $188 $60 $181 $189 0 $73 $-1 #
coedge $-1 $60 $133 $62 $124 0 $73 $-1 #
epar-lwd-attrib $-1 $-1 $-1 $61 #
vertex $-1 $61 $190 #
straight-curve $-1 -43.5 0 22 0 0 -10 #
coedge $-1 $63 $62 $191 $192 1 $64 $-1 #
edge $-1 $193 $65 $119 $194 0 #
edge $-1 $66 $195 $63 $196 1 #
face $-1 $197 $64 $4 $-1 $198 0 #
point $-1 -43.5 0 22 #
point $-1 43.5 5.32703763912734e-15 22 #
coedge $-1 $199 $69 $72 $135 1 $131 $-1 #
coedge $-1 $69 $199 $77 $140 1 $131 $-1 #
loop $-1 $-1 $130 $200 #
ellipse-curve $-1 0 0 29.5 0 0 -1 -43.5 0 4.44089209850063e-15 1 #
coedge $-1 $119 $71 $201 $202 0 $73 $-1 #
coedge $-1 $72 $203 $204 $205 0 $73 $-1 #
edge $-1 $206 $75 $72 $207 0 #
coedge $-1 $208 $209 $210 $211 0 $73 $-1 #
face $-1 $-1 $73 $4 $-1 $212 0 #
point $-1 -43.5 0 29.5 #
coedge $-1 $213 $77 $214 $215 0 $73 $-1 #
edge $-1 $80 $216 $130 $217 1 #
coedge $-1 $78 $113 $218 $219 0 $73 $-1 #
point $-1 43.5 5.32703763912734e-15 29.5 #
coedge $-1 $218 $201 $82 $144 1 $220 $-1 #
edge $-1 $145 $147 $143 $221 1 #
vertex $-1 $144 $222 #
straight-curve $-1 43.5 5.32703763912734e-15 24 -10 -1.22460635382238e-15 0 #
vertex $-1 $84 $223 #
straight-curve $-1 -43.5 0 24 10 0 0 #
face $-1 $224 $225 $4 $-1 $226 0 #
plane-surface $-1 -43.5 0 24 0 0 -1 -10 0 0 0 #
face $-1 $227 $228 $4 $-1 $229 0 #
loop $-1 $-1 $230 $88 #
plane-surface $-1 16.4874235629495 11.1500000000613 14.2546009662001 1 0 -3.77475828372554e-15 -3.77475828372554e-14 0 -10 0 #
coedge $-1 $231 $232 $233 $234 1 $89 $-1 #
coedge $-1 $235 $236 $237 $238 1 $91 $-1 #
vertex $-1 $94 $239 #
ellipse-curve $-1 0 11.1500000000175 3.89300394764308e-14 1.64475376528413e-13 1 -3.70880383992116e-14 12.5 0 0 1 #
epar-lwd-attrib $-1 $-1 $-1 $96 #
vertex $-1 $96 $240 #
intcurve-curve $-1 0 surfint nubs 3 periodic 31 
	0 3 2.36906189485108 3 4.73812378970217 3 7.10718568455325 3 9.47624757940434 3 
	11.8447197568023 3 14.2131919342003 3 16.5816641115983 3 18.9501362889963 3 21.3186084663942 3 
	23.6870806437922 3 26.0555528211902 3 28.4240249985882 3 30.7930868934392 3 33.1621487882903 3 
	35.5312106831413 3 37.9002725779923 3 40.2693344728435 3 42.6383963676946 3 45.0074582625457 3 
	47.3765201573968 3 49.7449923347948 3 52.1134645121928 3 54.4819366895907 3 56.8504088669887 3 
	59.4159928932664 3 61.9815769195441 3 67.1127449720995 3 72.243913024655 3 74.8094970509327 3 
	77.3750810772104 3 
	-12.5 41.6653333119993 1.45661260830821e-13 
	-12.5 41.6653333119993 -0.789687298283549 
	-12.4239616894308 41.68840052561 -1.60481331962628 
	-12.2646777133778 41.7352091235563 -2.41405894438673 
	-12.1053937373248 41.7820177215025 -3.22330456914718 
	-11.8629492527761 41.8524826986802 -4.02669147337082 
	-11.5433679337592 41.9404417805284 -4.79589999331379 
	-11.2237866147423 42.0284008623767 -5.56510851325677 
	-10.8265610210056 42.1338115236757 -6.30144913488384 
	-10.3684603224458 42.2462427979326 -6.9817641425263 
	-9.91035962388588 42.3586740721894 -7.66207915016877 
	-9.39131160598278 42.4778959187999 -8.28635792368076 
	-8.83883476483181 42.5925462962711 -8.83883476483172 
	-8.28649544868024 42.7071681344591 -9.39117408098329 
	-7.66228123820157 42.8253959703831 -9.91020609445515 
	-6.98194708119838 42.9360270047817 -10.3683371354978 
	-6.3016129241952 43.0466580391804 -10.8264681765404 
	-5.56516946824826 43.1494844596311 -11.2237642272786 
	-4.79585938008896 43.2348208369876 -11.5433848071703 
	-4.02654929192967 43.3201572143441 -11.8630053870619 
	-3.22306522003802 43.3880026586567 -12.1054582193057 
	-2.41380545031205 43.4329776005289 -12.2647276059454 
	-1.60454568058608 43.4779525424011 -12.4239969925852 
	-0.789490725799241 43.5 -12.4999999999999 
	8.65217050565956e-14 43.5 -12.4999999999999 
	0.789490725799413 43.5 -12.4999999999998 
	1.60454568058626 43.4779525424011 -12.4239969925851 
	2.41380545031222 43.4329776005289 -12.2647276059454 
	3.22306522003818 43.3880026586567 -12.1054582193057 
	4.02654929192983 43.320157214344 -11.8630053870619 
	4.79585938008912 43.2348208369875 -11.5433848071702 
	5.56516946824841 43.149484459631 -11.2237642272785 
	6.30161292419536 43.0466580391804 -10.8264681765403 
	6.98194708119853 42.9360270047817 -10.3683371354977 
	7.66228123820171 42.825395970383 -9.91020609445504 
	8.28649544868038 42.7071681344591 -9.39117408098318 
	8.83883476483194 42.5925462962711 -8.8388347648316 
	9.39131160598289 42.4778959187999 -8.28635792368064 
	9.91035962388597 42.3586740721894 -7.66207915016865 
	10.3684603224458 42.2462427979325 -6.98176414252619 
	10.8265610210057 42.1338115236757 -6.30144913488374 
	11.2237866147423 42.0284008623767 -5.56510851325667 
	11.5433679337592 41.9404417805285 -4.79589999331371 
	11.8629492527761 41.8524826986802 -4.02669147337074 
	12.1053937373248 41.7820177215025 -3.22330456914712 
	12.2646777133778 41.7352091235563 -2.41405894438668 
	12.4239616894308 41.68840052561 -1.60481331962625 
	12.5 41.6653333119993 -0.789687298283533 
	12.5 41.6653333119993 1.45661260830821e-13 
	12.5 41.6653333119993 0.789687298283853 
	12.4239616894308 41.68840052561 1.60481331962659 
	12.2646777133778 41.7352091235563 2.41405894438705 
	12.1053937373248 41.7820177215025 3.22330456914751 
	11.8629492527761 41.8524826986802 4.02669147337115 
	11.5433679337592 41.9404417805285 4.79589999331414 
	11.2237866147423 42.0284008623767 5.56510851325712 
	10.8265610210056 42.1338115236757 6.3014491348842 
	10.3684603224457 42.2462427979326 6.98176414252667 
	9.91035962388582 42.3586740721894 7.66207915016915 
	9.3913116059827 42.4778959187999 8.28635792368115 
	8.83883476483172 42.5925462962712 8.83883476483211 
	8.28649544868015 42.7071681344591 9.39117408098367 
	7.66228123820148 42.8253959703831 9.91020609445552 
	6.98194708119829 42.9360270047817 10.3683371354981 
	6.3016129241951 43.0466580391804 10.8264681765408 
	5.56516946824816 43.1494844596311 11.223764227279 
	4.79585938008886 43.2348208369876 11.5433848071706 
	4.02654929192957 43.3201572143441 11.8630053870623 
	3.22306522003792 43.3880026586567 12.105458219306 
	2.41380545031196 43.4329776005289 12.2647276059458 
	1.60454568058599 43.4779525424011 12.4239969925855 
	0.78949072579915 43.5 12.5000000000002 
	-1.7380878908433e-13 43.5 12.5000000000002 
	-0.855194675426076 43.5 12.5000000000001 
	-1.69357667152164 43.4746287558505 12.4124434186014 
	-2.50558195318745 43.4277798082732 12.2463079773402 
	-3.31758723485327 43.3809308606958 12.0801725360789 
	-4.10319206837287 43.3126153095226 11.8353391149232 
	-4.85269265520393 43.2284787379122 11.5196082396119 
	-6.35169382886604 43.0602055946916 10.8881464889891 
	-7.70568176281557 42.8277267730631 9.97224475209642 
	-8.83983585681076 42.5923385366974 8.83783355945596 
	-9.97398995080595 42.3569503003318 7.7034223668155 
	-10.8891477701915 42.1201219519573 6.34979503564765 
	-11.5201623903777 41.9468217925903 4.85137696941073 
	-11.8356697004708 41.8601717129068 4.10216793629228 
	-12.0803447692554 41.7892954868518 3.31689312424137 
	-12.2463975215877 41.7405767538405 2.50514425597656 
	-12.41245027392 41.6918580208292 1.69339538771175 
	-12.5 41.6653333119993 0.855194675426052 
	-12.5 41.6653333119993 1.45661260830821e-13 
	0.001 
	cone 0 0 0 0 -1 -3.49148336110938e-15 12.5 0 0 1 0 1 0 
	cone 0 0 26.75 0 0 -1 -43.5 0 4.44089209850063e-15 1 0 1 0 
	nullbs 
	nullbs 
	#
copar-lwd-attrib $-1 $-1 $-1 $98 #
coedge $-1 $241 $242 $98 $163 0 $243 $-1 #
edge $244 $172 $167 $162 $245 0 #
coedge $-1 $185 $99 $105 $176 0 $73 $-1 #
coedge $-1 $99 $246 $241 $247 1 $73 $-1 #
epar-lwd-attrib $-1 $-1 $-1 $100 #
vertex $-1 $163 $248 #
straight-curve $-1 43.5 5.32703763912734e-15 16.3 -1.53099573562567e-47 1.25019417941689e-31 -10 #
coedge $-1 $249 $102 $242 $250 0 $73 $-1 #
coedge $-1 $102 $188 $104 $175 0 $73 $-1 #
epar-lwd-attrib $-1 $-1 $-1 $103 #
vertex $-1 $103 $251 #
straight-curve $-1 -43.5 0 16.3 0 0 -10 #
coedge $-1 $105 $104 $252 $253 1 $106 $-1 #
edge $-1 $254 $107 $170 $255 0 #
edge $-1 $108 $256 $105 $257 1 #
face $-1 $258 $106 $4 $-1 $259 0 #
point $-1 -43.5 0 16.3 #
point $-1 43.5 5.32703763912734e-15 16.3 #
coedge $-1 $260 $111 $114 $186 1 $182 $-1 #
coedge $-1 $111 $260 $118 $189 1 $182 $-1 #
loop $-1 $-1 $111 $261 #
epar-lwd-attrib $-1 $-1 $-1 $112 #
ellipse-curve $-1 0 0 19.3 0 0 -1 -43.5 0 4.44089209850063e-15 1 #
coedge $-1 $114 $164 $262 $263 0 $73 $-1 #
edge $-1 $264 $116 $180 $265 1 #
point $-1 43.5 5.32703763912734e-15 19.3 #
coedge $-1 $170 $118 $266 $267 0 $73 $-1 #
edge $-1 $121 $268 $118 $269 0 #
point $-1 -43.5 0 19.3 #
coedge $-1 $201 $218 $123 $192 0 $220 $-1 #
edge $-1 $195 $193 $123 $270 1 #
vertex $-1 $202 $271 #
straight-curve $-1 -38.9 0 22 -10 0 0 #
vertex $-1 $192 $272 #
straight-curve $-1 38.9 4.76371871636905e-15 22 10 1.22460635382238e-15 0 #
face $-1 $85 $220 $4 $-1 $273 0 #
plane-surface $-1 -38.9 0 22 0 0 1 10 0 0 0 #
coedge $-1 $130 $129 $274 $275 1 $131 $-1 #
face $-1 $276 $131 $4 $-1 $277 0 #
coedge $-1 $143 $191 $133 $202 1 $220 $-1 #
edge $-1 $147 $193 $133 $278 0 #
coedge $-1 $134 $279 $280 $281 0 $73 $-1 #
coedge $-1 $282 $274 $134 $205 1 $283 $-1 #
edge $-1 $284 $206 $134 $285 0 #
vertex $-1 $205 $286 #
straight-curve $-1 -39.5 0 29.5 -10 0 0 #
coedge $-1 $287 $136 $288 $289 0 $73 $-1 #
coedge $-1 $136 $290 $291 $292 1 $73 $-1 #
coedge $-1 $293 $293 $136 $211 1 $225 $-1 #
edge $-1 $294 $295 $136 $296 0 #
plane-surface $-1 -34.2652821029645 0 12.5182404111517 0 -1 0 0 0 -10 0 #
coedge $-1 $297 $139 $298 $299 0 $73 $-1 #
coedge $-1 $274 $282 $139 $215 1 $283 $-1 #
edge $-1 $216 $300 $214 $301 1 #
vertex $-1 $275 $302 #
straight-curve $-1 39.5 4.83719509759839e-15 29.5 10 1.22460635382238e-15 0 #
coedge $-1 $191 $143 $141 $219 1 $220 $-1 #
edge $-1 $195 $145 $218 $303 1 #
loop $-1 $-1 $143 $197 #
ellipse-curve $-1 0 0 24 0 0 -1 -38.9 0 3.97128052026838e-15 1 #
point $-1 38.9 4.76371871636905e-15 24 #
point $-1 -38.9 0 24 #
face $-1 $304 $305 $4 $-1 $306 0 #
loop $-1 $-1 $210 $149 #
plane-surface $-1 0 0 38 0 0 1 10 0 0 0 #
face $-1 $307 $308 $4 $-1 $309 0 #
loop $-1 $-1 $310 $151 #
plane-surface $-1 -16.4887727890018 11.1500000000784 14.2570696000014 -0.999034587892994 0 0.0439305382789153 0.439305382789153 0 9.99034587892994 0 #
coedge $-1 $311 $312 $313 $314 1 $152 $-1 #
coedge $-1 $232 $154 $315 $316 1 $89 $-1 #
coedge $-1 $154 $231 $235 $317 0 $89 $-1 #
coedge $-1 $237 $318 $154 $234 0 $319 $-1 #
edge $-1 $320 $321 $233 $322 0 #
coedge $-1 $323 $155 $232 $317 1 $91 $-1 #
coedge $-1 $155 $324 $325 $326 1 $91 $-1 #
coedge $-1 $327 $233 $155 $238 0 $319 $-1 #
edge $-1 $321 $328 $237 $329 0 #
point $-1 -12.5 11.1500000000175 -4.83570445513037e-14 #
point $-1 -12.5 41.6653333119993 1.45661260830821e-13 #
coedge $-1 $330 $162 $165 $247 0 $243 $-1 #
coedge $-1 $162 $330 $169 $250 1 $243 $-1 #
loop $-1 $-1 $241 $276 #
epar-lwd-attrib $-1 $-1 $-1 $163 #
ellipse-curve $-1 0 0 -30 0 0 -1 -43.5 0 4.44089209850063e-15 1 #
coedge $-1 $165 $331 $332 $333 1 $73 $-1 #
edge $-1 $167 $334 $241 $335 0 #
point $-1 43.5 5.32703763912734e-15 -30 #
coedge $-1 $336 $169 $337 $338 0 $73 $-1 #
edge $-1 $172 $339 $169 $340 0 #
point $-1 -43.5 0 -30 #
coedge $-1 $266 $262 $174 $253 0 $341 $-1 #
edge $-1 $256 $254 $174 $342 1 #
vertex $-1 $267 $343 #
straight-curve $-1 -38.7 0 16.3 -10 0 0 #
vertex $-1 $253 $344 #
straight-curve $-1 38.7 4.7392265892926e-15 16.3 10 1.22460635382238e-15 0 #
face $-1 $261 $341 $4 $-1 $345 0 #
plane-surface $-1 -38.7 0 16.3 0 0 1 10 0 0 0 #
coedge $-1 $181 $180 $346 $347 0 $182 $-1 #
face $-1 $126 $182 $4 $-1 $348 0 #
coedge $-1 $252 $346 $185 $263 1 $341 $-1 #
edge $-1 $256 $264 $262 $349 1 #
vertex $-1 $347 $350 #
straight-curve $-1 43.5 5.32703763912734e-15 19.3 -10 -1.22460635382238e-15 0 #
coedge $-1 $346 $252 $188 $267 1 $341 $-1 #
edge $-1 $268 $254 $188 $351 0 #
vertex $-1 $189 $352 #
straight-curve $-1 -43.5 0 19.3 10 0 0 #
ellipse-curve $-1 0 0 22 0 0 -1 -38.9 0 3.97128052026838e-15 1 #
point $-1 -38.9 0 22 #
point $-1 38.9 4.76371871636905e-15 22 #
cone-surface $-1 0 0 23 0 0 -1 -38.9 0 3.97128052026838e-15 1 0 1 0 #
coedge $-1 $204 $214 $199 $275 0 $283 $-1 #
edge $-1 $216 $206 $199 $353 1 #
face $-1 $354 $243 $4 $-1 $355 0 #
plane-surface $-1 -39.5 0 29.5 0 0 1 10 0 0 0 #
straight-curve $-1 -38.9 0 24 0 0 -10 #
coedge $-1 $203 $356 $357 $358 0 $73 $-1 #
coedge $-1 $359 $360 $203 $281 1 $361 $-1 #
edge $-1 $362 $284 $203 $363 0 #
coedge $-1 $214 $204 $360 $364 1 $283 $-1 #
loop $-1 $-1 $214 $365 #
vertex $-1 $281 $366 #
straight-curve $-1 -39.5 0 32 0 0 -10 #
point $-1 -39.5 0 29.5 #
coedge $-1 $356 $208 $367 $368 0 $73 $-1 #
coedge $-1 $369 $370 $208 $289 1 $305 $-1 #
edge $-1 $295 $371 $208 $372 0 #
coedge $-1 $209 $373 $374 $375 1 $73 $-1 #
coedge $-1 $370 $369 $209 $292 0 $305 $-1 #
edge $-1 $294 $376 $291 $377 0 #
coedge $-1 $210 $210 $369 $378 1 $225 $-1 #
vertex $-1 $378 $379 #
vertex $-1 $211 $380 #
straight-curve $-1 0 0 38 -10 0 0 #
coedge $-1 $373 $213 $381 $382 0 $73 $-1 #
coedge $-1 $360 $359 $213 $299 1 $361 $-1 #
edge $-1 $300 $383 $298 $384 1 #
vertex $-1 $364 $385 #
straight-curve $-1 39.5 4.83719509759839e-15 32 -1.53099573562567e-47 1.25019417941689e-31 -10 #
point $-1 39.5 4.83719509759839e-15 29.5 #
straight-curve $-1 38.9 4.76371871636905e-15 24 -1.53099573562567e-47 1.25019417941689e-31 -10 #
face $-1 $386 $387 $4 $-1 $388 0 #
loop $-1 $-1 $291 $224 #
torus-surface $-1 0 0 43.9999999998116 0 0 -1 18.4944475771843 -6.00000000000022 -1 0 0 0 #
face $-1 $389 $390 $4 $-1 $391 0 #
loop $-1 $-1 $392 $227 #
plane-surface $-1 17.1287216984325 11.15 -0.292023457222599 0.999029639710111 0 0.044042922027102 0.44042922027102 0 -9.99029639710111 0 #
coedge $-1 $393 $315 $318 $394 1 $228 $-1 #
coedge $-1 $312 $230 $395 $396 0 $152 $-1 #
coedge $-1 $230 $311 $397 $398 0 $152 $-1 #
coedge $-1 $399 $400 $230 $314 0 $401 $-1 #
edge $-1 $402 $403 $313 $404 0 #
coedge $-1 $310 $405 $231 $316 0 $228 $-1 #
edge $-1 $406 $320 $315 $407 0 #
edge $-1 $406 $321 $232 $408 0 #
coedge $-1 $233 $409 $310 $394 0 $319 $-1 #
loop $-1 $-1 $237 $410 #
vertex $-1 $234 $411 #
vertex $-1 $234 $412 #
intcurve-curve $-1 0 surfint nubs 3 open 5 
	25.4411963395092 3 25.9883922600841 3 26.361496488253 3 26.7789311746707 3 26.8235101318422 3 
	-16.4887727890018 25.2195205913144 14.2570696000014 
	-16.4887727890018 23.3490107343131 14.7762143646685 
	-16.4887727890018 21.3273577282929 15.3982691716932 
	-16.4887727890018 19.5915126552933 15.9584193987919 
	-16.4887727890018 18.4079308487957 16.3403564898446 
	-16.4887727890018 16.9918295250941 16.8114884058195 
	-16.4887727890018 15.8119075324021 17.2045862630456 
	-16.4887727890018 14.4917928571167 17.6443901258108 
	-16.4887727890019 12.9071848152985 18.1707406103735 
	-16.4887727890019 11.5790859521315 18.5858112107075 
	-16.4887727890019 11.4372547525042 18.6301377008567 
	-16.4887727890009 11.2941969047319 18.6745424013241 
	-16.4887727890009 11.1500000004992 18.7189445176236 
	0.01 
	torus 0 0 72.3900469358622 0 0 -1 49.4082074933126 -61.2457076852256 -1 0 0 0 
	plane -16.488772789002 11.15 24.2570696000002 -1 0 -1.62092561595292e-14 -1.62092561595292e-13 0 10 0 
	nullbs 
	nullbs 
	#
coedge $-1 $413 $235 $405 $414 1 $91 $-1 #
coedge $-1 $236 $395 $400 $415 1 $91 $-1 #
coedge $-1 $416 $417 $236 $326 0 $418 $-1 #
edge $-1 $328 $419 $325 $420 0 #
coedge $-1 $421 $237 $417 $422 1 $319 $-1 #
vertex $-1 $422 $423 #
intcurve-curve $-1 0 surfint nubs 3 open 3 
	26.6863602114831 3 26.698545461718 3 26.761644328159 3 
	-16.4887727890009 11.1500000004992 18.7189445176236 
	-16.4481462068556 11.1500000004992 18.7374445073357 
	-16.4075256406845 11.1500000000204 18.7559615235458 
	-16.3669119829737 11.1500000000204 18.7744946501576 
	-16.1566023287476 11.1500000000204 18.8704647171044 
	-15.9464778177365 11.1500000000204 18.9668676403978 
	-15.7366600215255 11.1500000000203 19.0635711207004 
	0.01 
	torus 0 0 72.3900469358622 0 0 -1 49.4082074933126 -61.2457076852256 -1 0 0 0 
	plane -0.0223377260432231 11.1500000000175 10.9101337101325 -1.64475376528413e-13 -1 3.70880383992116e-14 0 -3.70880383992116e-13 -10 0 
	nullbs 
	nullbs 
	#
coedge $-1 $242 $241 $424 $425 1 $243 $-1 #
coedge $-1 $246 $426 $427 $428 1 $73 $-1 #
coedge $-1 $429 $424 $246 $333 0 $430 $-1 #
edge $-1 $334 $431 $332 $432 0 #
vertex $-1 $425 $433 #
straight-curve $-1 43.5 5.32703763912734e-15 -30 -10 -1.22460635382238e-15 0 #
coedge $-1 $434 $249 $435 $436 0 $73 $-1 #
coedge $-1 $424 $429 $249 $338 1 $430 $-1 #
edge $-1 $339 $437 $249 $438 0 #
vertex $-1 $250 $439 #
straight-curve $-1 -43.5 0 -30 10 0 0 #
loop $-1 $-1 $346 $258 #
ellipse-curve $-1 0 0 16.3 0 0 -1 -38.7 0 3.95086262556263e-15 1 #
point $-1 -38.7 0 16.3 #
point $-1 38.7 4.7392265892926e-15 16.3 #
cone-surface $-1 0 0 17.8 0 0 -1 -38.7 0 3.95086262556263e-15 1 0 1 0 #
coedge $-1 $262 $266 $260 $347 1 $341 $-1 #
edge $-1 $264 $268 $346 $440 1 #
plane-surface $-1 -43.5 0 19.3 0 0 -1 -10 0 0 0 #
straight-curve $-1 38.7 4.7392265892926e-15 19.3 -1.53099573562567e-47 1.25019417941689e-31 -10 #
point $-1 38.7 4.7392265892926e-15 19.3 #
straight-curve $-1 -38.7 0 19.3 0 0 -10 #
point $-1 -38.7 0 19.3 #
ellipse-curve $-1 0 0 29.5 0 0 -1 -39.5 0 4.03253420438563e-15 1 #
face $-1 $441 $430 $4 $-1 $442 0 #
plane-surface $-1 -43.5 0 -30 0 0 -1 -10 0 0 0 #
coedge $-1 $279 $287 $443 $444 0 $73 $-1 #
coedge $-1 $445 $446 $279 $358 1 $447 $-1 #
edge $-1 $448 $362 $279 $449 0 #
coedge $-1 $298 $280 $446 $450 1 $361 $-1 #
coedge $-1 $280 $298 $282 $364 0 $361 $-1 #
loop $-1 $-1 $298 $451 #
vertex $-1 $358 $452 #
straight-curve $-1 -43.5 0 32 10 0 0 #
edge $-1 $300 $284 $282 $453 1 #
face $-1 $200 $283 $4 $-1 $454 0 #
point $-1 -39.5 0 32 #
coedge $-1 $455 $456 $287 $368 1 $387 $-1 #
edge $-1 $371 $457 $287 $458 0 #
coedge $-1 $291 $288 $293 $378 0 $305 $-1 #
coedge $-1 $288 $291 $455 $459 1 $305 $-1 #
vertex $-1 $289 $460 #
ellipse-curve $-1 -18.4944475771843 0 43.9999999998116 0 1 0 4.7577184332237e-05 0 -5.99999999981159 1 #
coedge $-1 $290 $297 $461 $462 1 $73 $-1 #
coedge $-1 $456 $455 $290 $375 0 $387 $-1 #
edge $-1 $376 $463 $374 $464 0 #
vertex $-1 $459 $465 #
ellipse-curve $-1 18.4944475771843 2.26484180134548e-15 43.9999999998116 1.22460635382238e-16 -1 -1.25019417941689e-32 -4.7577184332237e-05 -5.82633222294858e-21 -5.99999999981159 1 #
edge $-1 $295 $294 $369 $466 0 #
point $-1 18.4944 2.26483597501326e-15 38 #
point $-1 -18.4944 0 38 #
coedge $-1 $446 $445 $297 $382 1 $447 $-1 #
edge $-1 $383 $467 $381 $468 1 #
vertex $-1 $450 $469 #
straight-curve $-1 43.5 5.32703763912734e-15 32 -10 -1.22460635382238e-15 0 #
point $-1 39.5 4.83719509759839e-15 32 #
face $-1 $470 $471 $4 $-1 $472 0 #
loop $-1 $-1 $374 $304 #
cone-surface $-1 0 0 43 0 0 -1 -24.8453 0 2.53644359666385e-15 1 0.499999825156179 -0.866025504730542 0 #
face $-1 $410 $418 $4 $-1 $473 0 #
loop $-1 $-1 $474 $307 #
cone-surface $-1 -1.6155789838157e-05 11.15 -0.861813780987427 0 1 0 17.1287378542224 0 0.569790323764828 1 0 1 0 #
coedge $-1 $397 $475 $399 $476 1 $308 $-1 #
coedge $-1 $477 $310 $478 $479 1 $228 $-1 #
edge $-1 $480 $320 $318 $481 0 #
coedge $-1 $324 $482 $311 $396 1 $91 $-1 #
edge $-1 $402 $483 $311 $484 0 #
coedge $-1 $485 $392 $312 $398 1 $308 $-1 #
edge $-1 $483 $403 $312 $486 0 #
coedge $-1 $487 $313 $392 $476 0 $401 $-1 #
coedge $-1 $313 $488 $324 $415 0 $401 $-1 #
loop $-1 $-1 $400 $489 #
vertex $-1 $314 $490 #
vertex $-1 $476 $491 #
intcurve-curve $-1 0 surfint nubs 3 open 5 
	28.9608102502183 3 29.0053474612374 3 29.4227730556707 3 29.7958717381655 3 30.3440863643914 3 
	16.4874235629494 11.1500000003288 18.7195589174311 
	16.4874235629494 11.2940586728033 18.6751946870857 
	16.4874235629496 11.4369803045317 18.6308279683191 
	16.4874235629496 11.5786775449138 18.5865393377873 
	16.4874235629496 12.9067367889155 18.171443567233 
	16.4874235629496 14.4912964119592 17.6450626868559 
	16.4874235629496 15.8113708170127 17.2052338344224 
	16.4874235629495 16.9912649775262 16.8121109220888 
	16.4874235629495 18.4073330154858 16.3409492280395 
	16.4874235629495 19.5908874771985 15.9589875933489 
	16.4874235629495 21.3299498145595 15.3977501389728 
	16.4874235629495 23.3558948910502 14.7743989816135 
	16.4874235629495 25.2292984398266 14.2546009662001 
	0.01 
	torus 0 0 72.3900469358622 0 0 -1 49.4082074933126 -61.2457076852256 -1 0 0 0 
	plane 16.4874235629495 11.1500000000613 14.2546009662001 1 0 -3.77475828372554e-15 -3.77475828372554e-14 0 -10 0 
	nullbs 
	nullbs 
	#
coedge $-1 $315 $492 $323 $414 0 $228 $-1 #
vertex $-1 $414 $493 #
straight-curve $-1 -16.4887727890018 11.1500000000784 14.2570696000014 0 10 0 #
straight-curve $-1 -16.4887727890018 11.1500000000784 14.2570696000014 -1.62092561595292e-13 -7.84017295529888e-11 10 #
coedge $-1 $318 $421 $494 $495 0 $319 $-1 #
face $-1 $489 $319 $4 $-1 $496 0 #
point $-1 -16.4887727890018 25.2195205913144 14.2570696000014 #
point $-1 -16.4887727890009 11.1500000004992 18.7189445176236 #
coedge $-1 $482 $323 $497 $498 1 $91 $-1 #
edge $-1 $499 $406 $405 $500 0 #
edge $-1 $419 $402 $400 $501 0 #
coedge $-1 $502 $325 $488 $503 0 $418 $-1 #
coedge $-1 $325 $504 $327 $422 0 $418 $-1 #
loop $-1 $-1 $325 $389 #
vertex $-1 $415 $505 #
intcurve-curve $-1 0 surfint nubs 3 open 5 
	-1.56727762161044 3 -0.802376572210502 3 0 3 0.802376572210501 3 1.56727762161119 3 
	-15.7366600215255 11.1500000000203 19.0635711207004 
	-13.3032579126632 11.15000000002 20.1851082693696 
	-10.7436269766554 11.1500000000196 21.0392538079332 
	-8.15082413630923 11.1500000000192 21.6081846715959 
	-5.43098964649298 11.1500000000188 22.2049897048333 
	-2.67458857403317 11.1500000000183 22.488064948637 
	1.83390044829475e-12 11.1500000000179 22.488064948637 
	2.67458857403684 11.1500000000174 22.488064948637 
	5.43098964649665 11.150000000017 22.2049897048333 
	8.15082413631289 11.1500000000165 21.6081846715959 
	10.7436269766616 11.1500000000161 21.0392538079327 
	13.3032579126645 11.1500000000156 20.1851082693707 
	15.7366600215292 11.1500000000152 19.0635711207004 
	0.01 
	torus 0 0 -14.1991576275331 0 0 -1 0.497720040392189 38.2024000383701 -1 0 0 0 
	plane -0.0223377260432231 11.1500000000175 10.9101337101325 -1.64475376528413e-13 -1 3.70880383992116e-14 0 -3.70880383992116e-13 -10 0 
	nullbs 
	nullbs 
	#
coedge $-1 $409 $327 $506 $507 1 $319 $-1 #
edge $-1 $508 $328 $417 $509 0 #
point $-1 -15.7366600215255 11.1500000000203 19.0635711207004 #
coedge $-1 $332 $337 $330 $425 0 $430 $-1 #
edge $-1 $339 $334 $424 $510 0 #
coedge $-1 $331 $511 $512 $513 1 $73 $-1 #
coedge $-1 $514 $515 $331 $428 0 $516 $-1 #
edge $-1 $431 $517 $427 $518 0 #
coedge $-1 $337 $332 $515 $519 1 $430 $-1 #
loop $-1 $-1 $332 $354 #
vertex $-1 $519 $520 #
straight-curve $-1 40.15 4.91679451059684e-15 -30 1.53099573562567e-47 -1.25019417941689e-31 10 #
point $-1 40.15 4.91679451059684e-15 -30 #
coedge $-1 $521 $336 $522 $523 0 $73 $-1 #
coedge $-1 $515 $514 $336 $436 1 $516 $-1 #
edge $-1 $437 $524 $336 $525 0 #
vertex $-1 $338 $526 #
straight-curve $-1 -40.15 0 -30 0 0 10 #
point $-1 -40.15 0 -30 #
ellipse-curve $-1 0 0 19.3 0 0 -1 -38.7 0 3.95086262556263e-15 1 #
face $-1 $137 $516 $4 $-1 $527 0 #
cone-surface $-1 0 0 -25.75 0 0 -1 -40.15 0 4.09889236217931e-15 1 0 -1 0 #
coedge $-1 $528 $529 $356 $444 1 $471 $-1 #
edge $-1 $457 $448 $356 $530 0 #
coedge $-1 $381 $357 $529 $531 1 $447 $-1 #
coedge $-1 $357 $381 $359 $450 0 $447 $-1 #
loop $-1 $-1 $381 $470 #
vertex $-1 $444 $532 #
straight-curve $-1 -43.5 0 45 0 0 -10 #
edge $-1 $383 $362 $359 $533 1 #
face $-1 $365 $361 $4 $-1 $534 0 #
point $-1 -43.5 0 32 #
ellipse-curve $-1 0 0 32 0 0 -1 -39.5 0 4.03253420438563e-15 1 #
cone-surface $-1 0 0 30.75 0 0 -1 -39.5 0 4.03253420438563e-15 1 0 1 0 #
coedge $-1 $374 $367 $370 $459 0 $387 $-1 #
coedge $-1 $367 $374 $528 $535 1 $387 $-1 #
vertex $-1 $368 $536 #
straight-curve $-1 -23.6906 0 41 -4.99999825156179 0 8.66025504730542 #
edge $-1 $371 $376 $455 $537 0 #
point $-1 -23.6906 0 41 #
coedge $-1 $529 $528 $373 $462 0 $471 $-1 #
edge $-1 $463 $467 $461 $538 0 #
vertex $-1 $535 $539 #
straight-curve $-1 23.6906 2.90116592858644e-15 41 4.99999825156179 6.12302962796334e-16 8.66025504730542 #
point $-1 23.6906 2.90116592858644e-15 41 #
ellipse-curve $-1 0 0 38 0 0 -1 -18.4944 0 1.88808355923011e-15 1 #
vertex $-1 $531 $540 #
straight-curve $-1 43.5 5.32703763912734e-15 45 -1.53099573562567e-47 1.25019417941689e-31 -10 #
point $-1 43.5 5.32703763912734e-15 32 #
face $-1 $451 $447 $4 $-1 $541 0 #
loop $-1 $-1 $461 $386 #
plane-surface $-1 -26 0 45 0 0 1 10 0 0 0 #
torus-surface $-1 0 0 -14.1991576275331 0 0 -1 0.497720040392189 -38.2024000383701 -1 0 0 0 #
coedge $-1 $542 $543 $544 $545 1 $390 $-1 #
coedge $-1 $392 $546 $547 $548 1 $308 $-1 #
edge $-1 $403 $549 $399 $550 0 #
coedge $-1 $551 $393 $552 $553 1 $228 $-1 #
coedge $-1 $494 $554 $393 $479 0 $555 $-1 #
edge $-1 $556 $480 $478 $557 0 #
vertex $-1 $495 $558 #
intcurve-curve $-1 0 surfint nubs 3 open 2 
	25.545493726961 3 25.6585519523895 3 
	-16.5023182649377 26.3447419952961 13.9490287814826 
	-16.4979838188551 25.9764534278354 14.0475994279054 
	-16.4934621139666 25.600688717201 14.1504285703835 
	-16.4887727890018 25.2195205913144 14.2570696000014 
	0.01 
	torus 0 0 72.3900469358622 0 0 -1 49.4082074933126 -61.2457076852256 -1 0 0 0 
	plane -16.4887727890018 11.1500000000784 14.2570696000014 -0.999034587892994 0 0.0439305382789153 0.439305382789153 0 9.99034587892994 0 
	nullbs 
	nullbs 
	#
coedge $-1 $395 $413 $485 $559 1 $91 $-1 #
vertex $-1 $396 $560 #
straight-curve $-1 16.4874235629496 11.15 24.2546009662001 -3.77475828372554e-14 6.12598860527669e-11 -10 #
coedge $-1 $561 $397 $482 $559 0 $308 $-1 #
straight-curve $-1 16.4874235629495 11.1500000000613 14.2546009662001 0 10 0 #
coedge $-1 $562 $399 $563 $564 0 $401 $-1 #
coedge $-1 $400 $562 $416 $503 1 $401 $-1 #
face $-1 $565 $401 $4 $-1 $496 0 #
point $-1 16.4874235629494 11.1500000003288 18.7195589174311 #
point $-1 16.4874235629495 25.2292984398266 14.2546009662001 #
coedge $-1 $405 $551 $543 $566 1 $228 $-1 #
point $-1 -16.4887727890018 11.1500000000784 14.2570696000014 #
coedge $-1 $567 $478 $409 $495 1 $555 $-1 #
edge $-1 $568 $480 $409 $569 0 #
torus-surface $-1 0 0 72.3900469358622 0 0 -1 49.4082074933126 61.2457076852256 -1 0 0 0 #
coedge $-1 $543 $570 $413 $498 0 $390 $-1 #
edge $-1 $571 $499 $497 $572 0 #
vertex $-1 $498 $573 #
straight-curve $-1 -17.1116057295549 11.15 0.0930808470949954 0.439305382789153 5.52994223170266e-11 9.99034587892994 #
intcurve-curve $-1 0 surfint nubs 3 open 3 
	29.9329795767544 3 29.9960784431954 3 30.0081288007741 3 
	15.7366600215292 11.1500000000152 19.0635711207004 
	15.9464778177402 11.1500000000151 18.9668676403978 
	16.1566023287512 11.1500000000151 18.8704647171044 
	16.3669119829774 11.1500000000151 18.7744946501576 
	16.4070760410439 11.150000000015 18.7561666882023 
	16.4472468554187 11.1500000003288 18.7378544819535 
	16.4874235629494 11.1500000003288 18.7195589174311 
	0.01 
	torus 0 0 72.3900469358622 0 0 -1 49.4082074933126 -61.2457076852256 -1 0 0 0 
	plane -0.0223377260432231 11.1500000000175 10.9101337101325 -1.64475376528413e-13 -1 3.70880383992116e-14 0 -3.70880383992116e-13 -10 0 
	nullbs 
	nullbs 
	#
coedge $-1 $504 $416 $574 $575 0 $418 $-1 #
edge $-1 $419 $576 $416 $509 0 #
coedge $-1 $417 $502 $577 $578 1 $418 $-1 #
point $-1 15.7366600215292 11.1500000000152 19.0635711207004 #
coedge $-1 $577 $579 $421 $507 0 $73 $-1 #
edge $-1 $568 $508 $506 $580 0 #
vertex $-1 $507 $581 #
ellipse-curve $-1 0 0 19.0635711207004 0 0 -1 -19.2863933547342 0 1.96893774385319e-15 1 #
ellipse-curve $-1 0 0 -30 0 0 -1 -40.15 0 4.09889236217931e-15 1 #
coedge $-1 $426 $582 $583 $584 1 $73 $-1 #
coedge $-1 $585 $586 $426 $513 0 $587 $-1 #
edge $-1 $517 $588 $512 $589 0 #
coedge $-1 $435 $427 $586 $590 1 $516 $-1 #
coedge $-1 $427 $435 $429 $519 0 $516 $-1 #
loop $-1 $-1 $427 $441 #
vertex $-1 $590 $591 #
straight-curve $-1 40.15 4.91679451059684e-15 -21.5 -10 -1.22460635382238e-15 0 #
edge $-1 $437 $431 $515 $592 0 #
point $-1 40.15 4.91679451059684e-15 -21.5 #
coedge $-1 $593 $434 $594 $595 0 $73 $-1 #
coedge $-1 $586 $596 $434 $523 1 $587 $-1 #
edge $-1 $524 $597 $434 $598 0 #
vertex $-1 $436 $599 #
straight-curve $-1 -40.15 0 -21.5 10 0 0 #
point $-1 -40.15 0 -21.5 #
plane-surface $-1 -40.15 0 -21.5 0 0 -1 -10 0 0 0 #
coedge $-1 $461 $443 $456 $535 0 $471 $-1 #
coedge $-1 $443 $461 $445 $531 0 $471 $-1 #
straight-curve $-1 -26 0 45 -10 0 0 #
edge $-1 $467 $448 $445 $600 1 #
point $-1 -43.5 0 45 #
ellipse-curve $-1 0 0 32 0 0 -1 -43.5 0 4.44089209850063e-15 1 #
plane-surface $-1 -43.5 0 32 0 0 -1 -10 0 0 0 #
edge $-1 $457 $463 $528 $601 0 #
point $-1 -26 0 45 #
ellipse-curve $-1 0 0 41 0 0 -1 -23.6906 0 2.4185608815802e-15 1 #
straight-curve $-1 26 3.18397651993818e-15 45 10 1.22460635382238e-15 0 #
point $-1 26 3.18397651993818e-15 45 #
point $-1 43.5 5.32703763912734e-15 45 #
cone-surface $-1 0 0 38.5 0 0 -1 -43.5 0 4.44089209850063e-15 1 0 1 0 #
coedge $-1 $602 $474 $603 $604 1 $390 $-1 #
coedge $-1 $474 $497 $492 $566 0 $390 $-1 #
coedge $-1 $605 $606 $474 $545 0 $607 $-1 #
edge $-1 $608 $609 $544 $610 0 #
coedge $-1 $475 $611 $612 $613 1 $308 $-1 #
coedge $-1 $614 $563 $475 $548 0 $615 $-1 #
edge $-1 $549 $616 $547 $617 0 #
vertex $-1 $548 $618 #
intcurve-curve $-1 0 surfint nubs 3 open 2 
	30.5861129637656 3 30.6982993953413 3 
	16.4874235629495 25.2292984398266 14.2546009662001 
	16.4920861058129 25.6074241707043 14.1488400788084 
	16.49658295144 25.9802099635298 14.0468377170238 
	16.5008949269314 26.3456335191694 13.9490287814826 
	0.01 
	torus 0 0 72.3900469358622 0 0 -1 49.4082074933126 -61.2457076852256 -1 0 0 0 
	plane 17.1287216984325 11.15 -0.292023457222599 0.999029639710111 0 0.044042922027102 0.44042922027102 0 -9.99029639710111 0 
	nullbs 
	nullbs 
	#
coedge $-1 $492 $477 $605 $619 1 $228 $-1 #
coedge $-1 $620 $621 $477 $553 0 $622 $-1 #
edge $-1 $623 $556 $552 $624 0 #
coedge $-1 $478 $567 $620 $625 0 $555 $-1 #
loop $-1 $-1 $478 $565 #
vertex $-1 $625 $626 #
intcurve-curve $-1 0 surfint nubs 3 open 4 
	13.4561375381396 3 13.6584051508984 3 14.0784522539794 3 14.4837928578913 3 
	-16.759614169454 34.5767943260424 8.09780277776294 
	-16.7346744195058 34.2210331637841 8.66496343155209 
	-16.7109658326136 33.817873389549 9.20412591995617 
	-16.6887541868445 33.3731932559897 9.70924612213821 
	-16.6426274870098 32.4497305258392 10.7582241307296 
	-16.6028443322475 31.3409669980738 11.6629421055188 
	-16.5711954691524 30.1181376238181 12.3826762617165 
	-16.5406546817359 28.9381213984794 13.0772114112018 
	-16.5176994705132 27.6516499736869 13.5992412082943 
	-16.5023182649377 26.3447419952961 13.9490287814826 
	0.01 
	torus 0 0 1.54562971713213 0 0 -1 27.197967648471 12.9986604852038 -1 0 0 0 
	plane -16.4887727890018 11.1500000000784 14.2570696000014 -0.999034587892994 0 0.0439305382789153 0.439305382789153 0 9.99034587892994 0 
	nullbs 
	nullbs 
	#
point $-1 -16.5023182649377 26.3447419952961 13.9490287814826 #
edge $-1 $483 $571 $485 $627 0 #
point $-1 16.4874235629495 11.1500000000613 14.2546009662001 #
coedge $-1 $611 $485 $570 $628 0 $308 $-1 #
coedge $-1 $488 $487 $629 $630 0 $401 $-1 #
coedge $-1 $547 $631 $487 $564 1 $615 $-1 #
edge $-1 $549 $632 $487 $569 0 #
face $-1 $633 $555 $4 $-1 $634 0 #
edge $-1 $499 $609 $543 $635 0 #
coedge $-1 $554 $494 $579 $636 1 $555 $-1 #
vertex $-1 $636 $637 #
ellipse-curve $-1 0 0 13.9490287814826 0 0 -1 -31.0865234292291 0 3.17360681072915e-15 1 #
coedge $-1 $497 $638 $561 $628 1 $390 $-1 #
vertex $-1 $559 $639 #
ellipse-curve $-1 -1.6155789838157e-05 11.15 -0.861813780987427 0 1 0 17.1287378542224 0 0.569790323764828 1 #
point $-1 -17.1116057295549 11.15 0.0930808470949948 #
coedge $-1 $629 $577 $502 $575 1 $73 $-1 #
edge $-1 $576 $640 $502 $641 0 #
vertex $-1 $503 $642 #
coedge $-1 $574 $506 $504 $578 0 $73 $-1 #
edge $-1 $508 $640 $577 $643 0 #
coedge $-1 $506 $644 $567 $636 0 $73 $-1 #
ellipse-curve $-1 -49.4082074933126 0 72.3900469358622 0 -1 0 18.3216840640822 0 -58.4410181543756 1 #
point $-1 -19.2863933547342 0 19.0635711207004 #
coedge $-1 $511 $645 $646 $647 1 $73 $-1 #
coedge $-1 $648 $649 $511 $584 0 $650 $-1 #
edge $-1 $588 $651 $583 $652 0 #
coedge $-1 $653 $512 $649 $654 1 $587 $-1 #
coedge $-1 $512 $522 $514 $590 0 $587 $-1 #
loop $-1 $-1 $653 $655 #
vertex $-1 $654 $656 #
straight-curve $-1 38 4.65350414452503e-15 -21.5 1.53099573562567e-47 -1.25019417941689e-31 10 #
edge $-1 $524 $517 $586 $657 0 #
point $-1 38 4.65350414452503e-15 -21.5 #
ellipse-curve $-1 0 0 -21.5 0 0 -1 -40.15 0 4.09889236217931e-15 1 #
coedge $-1 $658 $521 $659 $660 0 $73 $-1 #
coedge $-1 $661 $662 $521 $595 1 $663 $-1 #
edge $-1 $597 $664 $521 $665 0 #
coedge $-1 $522 $653 $661 $666 1 $587 $-1 #
vertex $-1 $523 $667 #
straight-curve $-1 -38 0 -21.5 0 0 10 #
point $-1 -38 0 -21.5 #
ellipse-curve $-1 0 0 45 0 0 -1 -43.5 0 4.44089209850063e-15 1 #
ellipse-curve $-1 0 0 45 0 0 -1 -26 0 2.6543263117475e-15 1 #
coedge $-1 $668 $542 $669 $670 1 $390 $-1 #
coedge $-1 $671 $672 $542 $604 0 $673 $-1 #
edge $-1 $674 $608 $603 $675 0 #
coedge $-1 $676 $544 $551 $619 0 $607 $-1 #
coedge $-1 $544 $677 $671 $678 0 $607 $-1 #
loop $-1 $-1 $605 $679 #
vertex $-1 $678 $680 #
vertex $-1 $619 $681 #
intcurve-curve $-1 0 surfint nubs 3 open 4 
	4.7464342223654 3 4.91148996969762 3 5.23916129220022 3 5.33395221090485 3 
	-16.3931505896499 36.4864990612289 -5.86015999999999 
	-16.5609173790887 36.4111225160966 -5.30993330254848 
	-16.7006725502524 36.3469738939317 -4.75194090241115 
	-16.8117115487149 36.2955418034062 -4.19126110858213 
	-17.0321479531641 36.1934379906402 -3.07819057021031 
	-17.1382284748074 36.1425113231676 -1.95405152266277 
	-17.1382284748074 36.1425113231676 -0.861813780987427 
	-17.1382284748074 36.1425113231676 -0.545844051971999 
	-17.1294783682415 36.1466646015193 -0.227194551688732 
	-17.1116057295549 36.1551234177988 0.0930808470949929 
	0.01 
	cone -1.6155789838157e-05 11.15 -0.861813780987427 0 1 0 17.1287378542224 0 0.569790323764828 1 0 1 0 
	cone 0 0 -1.79377144424084 0 0 -1 -40 0 4.08357894115e-15 1 0 -1 0 
	nullbs 
	nullbs 
	#
coedge $-1 $546 $561 $682 $683 1 $308 $-1 #
coedge $-1 $684 $685 $546 $613 0 $686 $-1 #
edge $-1 $616 $687 $612 $688 0 #
coedge $-1 $631 $547 $685 $689 0 $615 $-1 #
loop $-1 $-1 $547 $633 #
vertex $-1 $613 $690 #
intcurve-curve $-1 0 surfint nubs 3 open 4 
	2.56841483795742 3 2.97358304869631 3 3.39362410702509 3 3.59603357652897 3 
	16.5008949269314 26.3456335191694 13.9490287814826 
	16.516309974875 27.6520003204603 13.5993678351954 
	16.5393125371829 28.9379233289262 13.0775986046987 
	16.5699141254805 30.1174919723641 12.3834599707384 
	16.6016390318142 31.3403600262461 11.6638410107418 
	16.6415195009081 32.4491756505097 10.7592286726719 
	16.6877604028937 33.3727012009296 9.71034205197753 
	16.7100429780246 33.8177298785487 9.20490435665042 
	16.7338286317744 34.2211812577908 8.66537219115672 
	16.7588503272532 34.5771645552831 8.09780277776294 
	0.01 
	torus 0 0 1.54562971713213 0 0 -1 27.197967648471 12.9986604852038 -1 0 0 0 
	plane 17.1287216984325 11.15 -0.292023457222599 0.999029639710111 0 0.044042922027102 0.44042922027102 0 -9.99029639710111 0 
	nullbs 
	nullbs 
	#
point $-1 16.5008949269314 26.3456335191694 13.9490287814826 #
edge $-1 $609 $623 $605 $691 0 #
coedge $-1 $692 $552 $554 $625 1 $622 $-1 #
coedge $-1 $552 $692 $676 $693 0 $622 $-1 #
loop $-1 $-1 $552 $694 #
vertex $-1 $693 $695 #
intcurve-curve $-1 0 surfint nubs 3 open 4 
	13.2615608723022 3 13.3126529927169 3 13.7867089764108 3 13.8967407098423 3 
	-17.0157650024621 36.2003279181417 2.27261711151831 
	-17.0083619945879 36.2038076612695 2.44097063529668 
	-17.0009195907648 36.2032392849876 2.61022007151353 
	-16.9934408213141 36.1984883320753 2.78029650692218 
	-16.9240493891331 36.1544068252195 4.35834320446547 
	-16.8585848181925 35.7587318269742 5.84708823726978 
	-16.7995982168407 35.0879211505464 7.18851625708111 
	-16.7859070111198 34.9322212668396 7.49987115053315 
	-16.7725673350119 34.7615689626536 7.80323182730242 
	-16.759614169454 34.5767943260424 8.09780277776294 
	0.01 
	torus 0 0 2.27261711151823 0 0 -1 28.4435880985412 11.5564119014588 -1 0 0 0 
	plane -16.4887727890018 11.1500000000784 14.2570696000014 -0.999034587892994 0 0.0439305382789153 0.439305382789153 0 9.99034587892994 0 
	nullbs 
	nullbs 
	#
edge $-1 $696 $556 $554 $697 0 #
point $-1 -16.759614169454 34.5767943260424 8.09780277776294 #
straight-curve $-1 16.4874235629495 11.1500000000613 14.2546009662001 0.44042922027102 -4.20719199936409e-11 -9.99029639710111 #
edge $-1 $571 $698 $561 $699 0 #
coedge $-1 $700 $574 $562 $630 1 $73 $-1 #
edge $-1 $632 $576 $562 $701 0 #
coedge $-1 $563 $614 $700 $702 0 $615 $-1 #
vertex $-1 $564 $703 #
face $-1 $694 $615 $4 $-1 $634 0 #
torus-surface $-1 0 0 1.54562971713213 0 0 -1 27.197967648471 -12.9986604852038 -1 0 0 0 #
straight-curve $-1 -17.1116057295549 11.15 0.0930808470949929 0 10 0 #
edge $-1 $696 $568 $579 $704 0 #
point $-1 -31.0865234292291 0 13.9490287814826 #
coedge $-1 $570 $705 $706 $707 1 $390 $-1 #
point $-1 17.1287216984325 11.15 -0.292023457222599 #
vertex $-1 $578 $708 #
ellipse-curve $-1 0.497720040392189 6.09511123889007e-17 -14.1991576275331 1.22460635382238e-16 -1 -1.25019417941689e-32 18.7886733143422 2.30087287206364e-15 33.2627287482339 1 #
point $-1 19.2863933547342 2.36182398445251e-15 19.0635711207004 #
ellipse-curve $-1 -0.497720040392189 0 -14.1991576275331 0 1 0 -18.7886733143422 0 33.2627287482339 1 #
coedge $-1 $579 $709 $692 $710 0 $73 $-1 #
coedge $-1 $582 $711 $712 $713 1 $73 $-1 #
coedge $-1 $714 $715 $582 $647 0 $716 $-1 #
edge $-1 $651 $717 $646 $718 0 #
coedge $-1 $719 $583 $715 $720 1 $650 $-1 #
coedge $-1 $583 $719 $585 $654 0 $650 $-1 #
loop $-1 $-1 $719 $721 #
vertex $-1 $720 $722 #
ellipse-curve $-1 48.0250651199641 5.88117998886414e-15 -15.76779328953 -1.22460635382238e-16 1 1.25019417941689e-32 -10.0250651199641 -1.22767584433911e-15 0.00449328952994543 1 #
coedge $-1 $596 $585 $723 $724 0 $587 $-1 #
edge $-1 $725 $588 $649 $726 0 #
face $-1 $177 $587 $4 $-1 $727 0 #
point $-1 38 4.65350414452503e-15 -15.7633 #
ellipse-curve $-1 0 0 -21.5 0 0 -1 -38 0 3.8793999940925e-15 1 #
coedge $-1 $728 $593 $729 $730 0 $73 $-1 #
coedge $-1 $731 $732 $593 $660 1 $733 $-1 #
edge $-1 $664 $734 $593 $735 0 #
coedge $-1 $736 $594 $596 $666 0 $663 $-1 #
coedge $-1 $594 $736 $731 $737 1 $663 $-1 #
loop $-1 $-1 $736 $738 #
vertex $-1 $595 $739 #
ellipse-curve $-1 -48.0250651199641 0 -15.7677932895299 0 -1 0 10.0250651199641 0 0.00449328952994543 1 #
edge $-1 $597 $740 $661 $726 0 #
point $-1 -38 0 -15.7633 #
coedge $-1 $741 $602 $742 $743 1 $390 $-1 #
coedge $-1 $744 $745 $602 $670 0 $746 $-1 #
edge $-1 $747 $674 $669 $748 0 #
coedge $-1 $749 $603 $606 $678 1 $673 $-1 #
coedge $-1 $603 $749 $744 $750 0 $673 $-1 #
loop $-1 $-1 $603 $751 #
vertex $-1 $750 $752 #
intcurve-curve $-1 0 surfint nubs 3 open 2 
	8.40338970139159 3 8.82337195734351 3 
	-14.5839988800066 36.6617386164809 -9.8632453 
	-15.3297694501478 36.7248763095088 -8.65495914149338 
	-15.9609093155957 36.6803977833688 -7.27778675152072 
	-16.3931505896499 36.4864990612289 -5.86015999999999 
	0.01 
	cone -1.6155789838157e-05 11.15 -0.861813780987427 0 1 0 17.1287378542224 0 0.569790323764828 1 0 1 0 
	torus 0 0 -5.8572165420501 0 0 -1 24.9777072110192 -15.0222930773504 -1 0 0 0 
	nullbs 
	nullbs 
	#
coedge $-1 $677 $605 $621 $693 1 $607 $-1 #
coedge $-1 $606 $676 $709 $753 1 $607 $-1 #
edge $-1 $754 $608 $606 $755 0 #
face $-1 $756 $607 $4 $-1 $757 0 #
point $-1 -16.3931505896499 36.4864990612289 -5.86015999999999 #
point $-1 -17.1116057295549 36.1551234177988 0.0930808470949929 #
coedge $-1 $706 $758 $611 $683 0 $759 $-1 #
edge $-1 $687 $698 $682 $760 0 #
coedge $-1 $761 $612 $758 $762 0 $686 $-1 #
coedge $-1 $612 $761 $614 $689 1 $686 $-1 #
loop $-1 $-1 $612 $763 #
vertex $-1 $683 $764 #
intcurve-curve $-1 0 surfint nubs 3 open 4 
	3.83061839547499 3 3.94050848842256 3 4.41456382073432 3 4.46578760955184 3 
	16.7588503272532 34.5771645552831 8.09780277776294 
	16.7718202269934 34.7616871301667 7.80360535242953 
	16.7851766456023 34.9321230933433 7.50064048414674 
	16.7988846482529 35.0876455093505 7.18970060280404 
	16.8580196583117 35.7585543112695 5.84833574610838 
	16.9236503467945 36.1543348714192 4.35962881997606 
	16.9932190625603 36.1985292655211 2.78159525980725 
	17.0007362719699 36.2033046665263 2.61108170933445 
	17.0082168452094 36.2038758608189 2.4413991804669 
	17.0156577210421 36.2003783449889 2.27261711151831 
	0.01 
	torus 0 0 2.27261711151823 0 0 -1 28.4435880985412 11.5564119014588 -1 0 0 0 
	plane 17.1287216984325 11.15 -0.292023457222599 0.999029639710111 0 0.044042922027102 0.44042922027102 0 -9.99029639710111 0 
	nullbs 
	nullbs 
	#
edge $-1 $616 $765 $614 $697 0 #
point $-1 16.7588503272532 34.5771645552831 8.09780277776294 #
ellipse-curve $-1 0 0 389.232086376153 0.999034587892994 0 -0.0439305382789153 -40 0 -909.649302769856 0.0439305382789153 #
coedge $-1 $621 $620 $644 $710 1 $622 $-1 #
edge $-1 $766 $623 $621 $767 0 #
face $-1 $763 $622 $4 $-1 $768 0 #
point $-1 -17.0157650024621 36.2003279181417 2.27261711151831 #
vertex $-1 $710 $769 #
ellipse-curve $-1 0 0 8.09780277776294 0 0 -1 -38.4244632099708 0 3.92273321973075e-15 1 #
vertex $-1 $707 $770 #
straight-curve $-1 17.1287216984325 11.15 -0.292023457222599 0 10 0 #
coedge $-1 $771 $629 $631 $702 1 $73 $-1 #
ellipse-curve $-1 49.4082074933126 6.0505604827285e-15 72.3900469358622 -1.22460635382238e-16 1 1.25019417941689e-32 -18.3216840640822 -2.24368507176013e-15 -58.4410181543756 1 #
edge $-1 $765 $632 $631 $772 0 #
point $-1 31.0865234292291 3.80687541096822e-15 13.9490287814826 #
ellipse-curve $-1 -27.197967648471 0 1.54562971713213 0 1 0 -11.2264955615253 0 6.55217306064564 1 #
coedge $-1 $638 $773 $774 $775 1 $390 $-1 #
coedge $-1 $776 $682 $638 $707 0 $759 $-1 #
edge $-1 $698 $777 $706 $778 0 #
point $-1 -6.3815619455454e-11 0 24 #
coedge $-1 $644 $728 $677 $753 0 $73 $-1 #
edge $-1 $766 $696 $644 $779 0 #
coedge $-1 $645 $780 $781 $782 1 $73 $-1 #
coedge $-1 $783 $784 $645 $713 0 $785 $-1 #
edge $-1 $717 $786 $712 $787 0 #
coedge $-1 $788 $646 $784 $789 1 $716 $-1 #
coedge $-1 $646 $788 $648 $720 0 $716 $-1 #
loop $-1 $-1 $788 $790 #
vertex $-1 $789 $791 #
straight-curve $-1 38.6031 4.72736015372406e-15 -12.3431 3.41983341240712 4.18794972584782e-16 9.39706014833277 #
coedge $-1 $649 $648 $792 $793 0 $650 $-1 #
edge $-1 $794 $651 $715 $795 0 #
face $-1 $655 $650 $4 $-1 $796 0 #
point $-1 38.6031 4.72736015372406e-15 -12.3431 #
coedge $-1 $792 $741 $653 $724 1 $390 $-1 #
edge $-1 $725 $740 $653 $797 0 #
vertex $-1 $724 $798 #
ellipse-curve $-1 0 0 -15.7633 0 0 -1 -38 0 3.8793999940925e-15 1 #
cone-surface $-1 0 0 -18.63165 0 0 -1 -38 0 3.8793999940925e-15 1 0 -1 0 #
coedge $-1 $709 $658 $749 $799 0 $73 $-1 #
coedge $-1 $745 $744 $658 $730 1 $746 $-1 #
edge $-1 $734 $800 $658 $801 0 #
coedge $-1 $742 $659 $662 $737 0 $733 $-1 #
coedge $-1 $659 $742 $745 $802 1 $733 $-1 #
loop $-1 $-1 $742 $803 #
vertex $-1 $660 $804 #
straight-curve $-1 -38.6031 0 -12.3431 -3.41983341240712 0 9.39706014833277 #
coedge $-1 $662 $661 $741 $805 0 $663 $-1 #
edge $-1 $664 $806 $731 $795 0 #
face $-1 $721 $663 $4 $-1 $796 0 #
point $-1 -38.6031 0 -12.3431 #
vertex $-1 $666 $807 #
coedge $-1 $723 $668 $736 $805 1 $390 $-1 #
coedge $-1 $732 $731 $668 $743 0 $733 $-1 #
edge $-1 $806 $747 $742 $808 0 #
coedge $-1 $729 $669 $672 $750 1 $746 $-1 #
coedge $-1 $669 $729 $732 $802 0 $746 $-1 #
loop $-1 $-1 $669 $809 #
vertex $-1 $802 $810 #
intcurve-curve $-1 0 surfint nubs 3 open 2 
	4.20158376162142 3 4.33896076266828 3 
	-13.8461224593401 36.572616910073 -10.9615 
	-14.1061484066475 36.5956836630994 -10.6050189341504 
	-14.3523646220021 36.6251289749194 -10.2385356090957 
	-14.5839988800066 36.6617386164809 -9.8632453 
	0.01 
	cone -1.6155789838157e-05 11.15 -0.861813780987427 0 1 0 17.1287378542224 0 0.569790323764828 1 0 1 0 
	cone 0 0 -10.41237265 0 0 -1 -39.28095105 0 4.0101716124031e-15 1 0.303721509862193 -0.952760853754514 0 
	nullbs 
	nullbs 
	#
coedge $-1 $672 $671 $728 $799 1 $673 $-1 #
edge $-1 $800 $674 $672 $811 0 #
face $-1 $812 $673 $4 $-1 $813 0 #
point $-1 -14.5839988800066 36.6617386164809 -9.8632453 #
edge $-1 $754 $766 $709 $814 0 #
vertex $-1 $799 $815 #
ellipse-curve $-1 0 0 -5.86015999999999 0 0 -1 -40 0 4.08357894115e-15 1 #
face $-1 $751 $759 $4 $-1 $757 0 #
cone-surface $-1 0 0 -1.79377144424084 0 0 -1 -40 0 4.08357894115e-15 1 0 -1 0 #
coedge $-1 $682 $816 $684 $762 1 $759 $-1 #
loop $-1 $-1 $682 $756 #
ellipse-curve $-1 0 0 388.24034177844 -0.999029639710111 -0 -0.044042922027102 -40 0 907.323668575263 0.044042922027102 #
coedge $-1 $685 $684 $771 $817 0 $686 $-1 #
edge $-1 $687 $818 $684 $767 0 #
face $-1 $679 $686 $4 $-1 $768 0 #
point $-1 17.0156577210421 36.2003783449889 2.27261711151831 #
vertex $-1 $689 $819 #
vertex $-1 $753 $820 #
ellipse-curve $-1 0 0 2.27261711151831 0 0 -1 -40 0 4.08357894115e-15 1 #
torus-surface $-1 0 0 2.27261711151823 0 0 -1 28.4435880985412 -11.5564119014588 -1 0 0 0 #
point $-1 -38.4244632099708 0 8.09780277776294 #
point $-1 17.1287216984325 36.1470177604965 -0.292023457222599 #
coedge $-1 $780 $700 $761 $817 1 $73 $-1 #
ellipse-curve $-1 27.197967648471 3.3306803993373e-15 1.54562971713212 1.22460635382238e-16 -1 -1.25019417941689e-32 11.2264955615253 1.37480377958026e-15 6.55217306064564 1 #
coedge $-1 $705 $821 $822 $823 1 $390 $-1 #
coedge $-1 $824 $825 $705 $775 0 $826 $-1 #
edge $-1 $777 $827 $774 $828 0 #
coedge $-1 $816 $706 $825 $829 0 $759 $-1 #
vertex $-1 $775 $830 #
intcurve-curve $-1 0 surfint nubs 3 open 4 
	-0.0572325492968925 3 0 3 0.327671297565119 3 0.49272705370429 3 
	17.1287216984325 36.1470177604965 -0.292023457222599 
	17.1350112113999 36.1440373952019 -0.48109549715571 
	17.1381961632278 36.142526644809 -0.671038616664452 
	17.1381961632278 36.142526644809 -0.861813780987427 
	17.1381961632278 36.142526644809 -1.95405143953782 
	17.032115657666 36.1934531876379 -3.0781904269898 
	16.811679272488 36.2955567533961 -4.19126093007213 
	16.7006402693574 36.3469887261564 -4.75194077871207 
	16.5608850868527 36.4111372033357 -5.30993323910655 
	16.3931182780702 36.4865135785978 -5.86016 
	0.01 
	cone -1.6155789838157e-05 11.15 -0.861813780987427 0 1 0 17.1287378542224 0 0.569790323764828 1 0 1 0 
	cone 0 0 -1.79377144424084 0 0 -1 -40 0 4.08357894115e-15 1 0 -1 0 
	nullbs 
	nullbs 
	#
ellipse-curve $-1 -28.4435880985412 0 2.27261711151823 0 1 0 -11.5564119014588 0 7.60502771868232e-14 1 #
coedge $-1 $711 $771 $816 $831 1 $73 $-1 #
coedge $-1 $825 $824 $711 $782 0 $826 $-1 #
edge $-1 $786 $832 $781 $833 0 #
coedge $-1 $822 $712 $824 $834 1 $785 $-1 #
coedge $-1 $712 $822 $714 $789 0 $785 $-1 #
loop $-1 $-1 $822 $835 #
vertex $-1 $834 $836 #
straight-curve $-1 39.1059 4.78893336119425e-15 -10.9615 3.03721509862193 3.71939290769768e-16 9.52760853754514 #
coedge $-1 $715 $714 $821 $837 0 $716 $-1 #
edge $-1 $838 $717 $784 $839 0 #
face $-1 $738 $716 $4 $-1 $840 0 #
point $-1 39.1059 4.78893336119425e-15 -10.9615 #
coedge $-1 $821 $723 $719 $793 1 $390 $-1 #
edge $-1 $794 $725 $719 $841 0 #
vertex $-1 $793 $842 #
ellipse-curve $-1 0 0 -12.3431 0 0 -1 -38.6031 0 3.94097015557769e-15 1 #
torus-surface $-1 0 0 -15.7677932895299 0 0 -1 48.0250651199641 10.0250661269226 -1 0 0 0 #
intcurve-curve $-1 0 surfint nubs 3 open 7 
	1.76919333570654 3 1.96862522186357 3 2.29635450418294 3 2.62408378650232 3 2.95181310383781 3 
	3.27954242117331 3 3.47897430789336 3 
	8.46544484502428 37.0450569384885 -15.7633 
	7.86655403256262 37.1819139866367 -16.10352692382 
	7.24295892606086 37.3090254271634 -16.4098134318147 
	6.60183491404538 37.4221294926904 -16.6774352971797 
	5.54826661870209 37.6079950277203 -17.1172221515245 
	4.44520169607161 37.7556708853185 -17.4524128126471 
	3.33124840009316 37.853702382949 -17.673149181557 
	2.21729510411471 37.9517338805795 -17.8938855504669 
	1.09241478527453 38.0000004644462 -18.000026100005 
	-1.61557899563958e-05 37.9999999999966 -18.000026100005 
	-1.09244721357483 37.9999995355469 -18.000026100005 
	-2.21732760623266 37.9517319852478 -17.8938855283833 
	-3.33128093926275 37.8536995193826 -17.6731491364587 
	-4.44523427229284 37.7556670535174 -17.4524127445341 
	-5.54829919541011 37.6079902257786 -17.1172220599899 
	-6.60186747026522 37.4221237492617 -16.6774351950605 
	-7.24299140312245 37.3090191225802 -16.409813351093 
	-7.8665864259662 37.1819071338064 -16.1035268773362 
	-8.46547715660396 37.0450495547113 -15.7633 
	0.01 
	cone -1.6155789838157e-05 11.15 -0.861813780987427 0 1 0 17.1287378542224 0 0.569790323764828 1 0 1 0 
	cone 0 0 -18.63165 0 0 -1 -38 0 3.8793999940925e-15 1 0 -1 0 
	nullbs 
	nullbs 
	#
point $-1 8.46544484502428 37.0450569384885 -15.7633 #
edge $-1 $800 $754 $728 $843 0 #
vertex $-1 $730 $844 #
straight-curve $-1 -39.1059 0 -10.9615 -3.03721509862193 0 9.52760853754514 #
edge $-1 $734 $747 $745 $839 0 #
face $-1 $790 $733 $4 $-1 $840 0 #
point $-1 -39.1059 0 -10.9615 #
edge $-1 $740 $806 $736 $845 0 #
vertex $-1 $737 $846 #
point $-1 -8.46547715660396 37.0450495547113 -15.7633 #
intcurve-curve $-1 0 surfint nubs 3 open 2 
	3.98240900443253 3 4.16683159894576 3 
	-12.72394590445 36.4458575181135 -12.3431 
	-13.1218205131943 36.4769186039313 -11.9021625933482 
	-13.4966193449272 36.5184829278686 -11.4406492696548 
	-13.8461224593401 36.572616910073 -10.9615 
	0.01 
	cone -1.6155789838157e-05 11.15 -0.861813780987427 0 1 0 17.1287378542224 0 0.569790323764828 1 0 1 0 
	cone 0 0 -11.6523 0 0 -1 -38.8545 0 3.96663544922282e-15 1 0.341983341240712 -0.939706014833277 0 
	nullbs 
	nullbs 
	#
face $-1 $835 $746 $4 $-1 $847 0 #
point $-1 -13.8461224593401 36.572616910073 -10.9615 #
ellipse-curve $-1 0 0 -9.8632453 0 0 -1 -39.4560021 0 4.02804248193826e-15 1 #
face $-1 $809 $826 $4 $-1 $813 0 #
torus-surface $-1 0 0 -5.8572165420501 0 0 -1 24.9777072110192 -15.0222930773504 -1 0 0 0 #
straight-curve $-1 -40 0 -5.86016 0 0 10 #
point $-1 -40 0 -5.86016 #
coedge $-1 $758 $776 $780 $831 0 $759 $-1 #
edge $-1 $818 $765 $761 $848 0 #
vertex $-1 $762 $849 #
point $-1 38.4244632099708 4.70548417891445e-15 8.09780277776294 #
point $-1 -40 0 2.27261711151831 #
coedge $-1 $773 $792 $788 $837 1 $390 $-1 #
coedge $-1 $784 $783 $773 $823 0 $785 $-1 #
edge $-1 $827 $838 $822 $850 0 #
coedge $-1 $781 $774 $783 $834 0 $826 $-1 #
coedge $-1 $774 $781 $776 $829 1 $826 $-1 #
loop $-1 $-1 $774 $812 #
vertex $-1 $823 $851 #
intcurve-curve $-1 0 surfint nubs 3 open 2 
	4.49318713096217 3 4.91316938530275 3 
	16.3931182780702 36.4865135785978 -5.86016 
	15.9608938734638 36.6804042733737 -7.27773142459578 
	15.3297652784295 36.7248921805198 -8.65491354971707 
	14.5839665684269 36.6617514699749 -9.8632453 
	0.01 
	cone -1.6155789838157e-05 11.15 -0.861813780987427 0 1 0 17.1287378542224 0 0.569790323764828 1 0 1 0 
	torus 0 0 -5.8572165420501 0 0 -1 24.9777072110192 -15.0222930773504 -1 0 0 0 
	nullbs 
	nullbs 
	#
edge $-1 $777 $832 $776 $755 0 #
point $-1 16.3931182780702 36.4865135785978 -5.86016 #
edge $-1 $832 $818 $816 $852 0 #
vertex $-1 $829 $853 #
ellipse-curve $-1 24.9777072110192 3.05878589545291e-15 -5.85721654205011 1.22460635382238e-16 -1 -1.25019417941689e-32 14.4782948889808 1.773021191356e-15 -4.0060287579499 1 #
edge $-1 $827 $786 $824 $811 0 #
face $-1 $803 $785 $4 $-1 $847 0 #
point $-1 39.4560021 4.83180708680891e-15 -9.8632453 #
edge $-1 $838 $794 $788 $854 0 #
vertex $-1 $837 $855 #
ellipse-curve $-1 0 0 -10.9615 0 0 -1 -39.1059 0 3.99230074286795e-15 1 #
cone-surface $-1 0 0 -11.6523 0 0 -1 -38.8545 0 3.96663544922282e-15 1 0.341983341240712 -0.939706014833277 0 #
intcurve-curve $-1 0 surfint nubs 3 open 3 
	8.466183825895 3 8.70024269432906 3 8.98750618798771 3 
	12.7239135928703 36.4458687986879 -12.3431 
	12.188430725631 36.4043449543534 -12.9365392936814 
	11.5795566465584 36.4494634684596 -13.5243067665726 
	10.9320386501427 36.5464135484575 -14.0606205153788 
	10.1373313908036 36.6654016426793 -14.7188453551807 
	9.28258583077535 36.8585393268062 -15.2990862265969 
	8.46544484502428 37.0450569384885 -15.7633 
	0.01 
	cone -1.6155789838157e-05 11.15 -0.861813780987427 0 1 0 17.1287378542224 0 0.569790323764828 1 0 1 0 
	torus 0 0 -15.7677932895299 0 0 -1 48.0250651199641 10.0250661269226 -1 0 0 0 
	nullbs 
	nullbs 
	#
point $-1 12.7239135928703 36.4458687986879 -12.3431 #
ellipse-curve $-1 -24.9777072110192 0 -5.8572165420501 0 1 0 -14.4782948889808 0 -4.0060287579499 1 #
point $-1 -39.4560021 0 -9.8632453 #
intcurve-curve $-1 0 surfint nubs 3 open 3 
	0.000927563748191316 3 0.288191079585712 3 0.522249972257262 3 
	-8.46547715660396 37.0450495547113 -15.7633 
	-9.28261808099066 36.8585312071295 -15.2990862614577 
	-10.1373635933008 36.6653927342264 -14.7188454338514 
	-10.9320708466889 36.5464039003822 -14.0606206106565 
	-11.5795888553151 36.4494532151946 -13.524306861252 
	-12.1884629729648 36.4043341306846 -12.9365393648807 
	-12.72394590445 36.4458575181135 -12.3431 
	0.01 
	cone -1.6155789838157e-05 11.15 -0.861813780987427 0 1 0 17.1287378542224 0 0.569790323764828 1 0 1 0 
	torus 0 0 -15.7677932895299 0 0 -1 48.0250651199641 10.0250661269226 -1 0 0 0 
	nullbs 
	nullbs 
	#
point $-1 -12.72394590445 36.4458575181135 -12.3431 #
cone-surface $-1 0 0 -10.41237265 0 0 -1 -39.28095105 0 4.0101716124031e-15 1 0.303721509862193 -0.952760853754514 0 #
ellipse-curve $-1 28.4435880985412 3.48321987109801e-15 2.27261711151822 1.22460635382238e-16 -1 -1.25019417941689e-32 11.5564119014588 1.4152055441915e-15 7.60502771868232e-14 1 #
point $-1 40 4.89842541528951e-15 2.27261711151831 #
intcurve-curve $-1 0 surfint nubs 3 open 2 
	0.754801186649344 3 0.892178181742012 3 
	14.5839665684269 36.6617514699749 -9.8632453 
	14.3523423159764 36.6251432184788 -10.238519398249 
	14.1061163413992 36.5956961398756 -10.6050185964439 
	13.8460901477604 36.5726291429819 -10.9615 
	0.01 
	cone -1.6155789838157e-05 11.15 -0.861813780987427 0 1 0 17.1287378542224 0 0.569790323764828 1 0 1 0 
	cone 0 0 -10.41237265 0 0 -1 -39.28095105 0 4.0101716124031e-15 1 0.303721509862193 -0.952760853754514 0 
	nullbs 
	nullbs 
	#
point $-1 14.5839665684269 36.6617514699749 -9.8632453 #
straight-curve $-1 40 4.89842541528951e-15 -5.86016000000001 1.53099573562567e-47 -1.25019417941689e-31 10 #
point $-1 40 4.89842541528951e-15 -5.86015999999999 #
intcurve-curve $-1 0 surfint nubs 3 open 2 
	0.865578715138003 3 1.05000130341498 3 
	13.8460901477604 36.5726291429819 -10.9615 
	13.4966029434374 36.5184973344035 -11.4406274578093 
	13.1218096151787 36.4769318993553 -11.9021388621494 
	12.7239135928703 36.4458687986879 -12.3431 
	0.01 
	cone -1.6155789838157e-05 11.15 -0.861813780987427 0 1 0 17.1287378542224 0 0.569790323764828 1 0 1 0 
	cone 0 0 -11.6523 0 0 -1 -38.8545 0 3.96663544922282e-15 1 0.341983341240712 -0.939706014833277 0 
	nullbs 
	nullbs 
	#
point $-1 13.8460901477604 36.5726291429819 -10.9615 #
