600 0 1 0           
69 GICL ACIS Healer - Source: /gicl/data5/repository/new/shaft.sat - 6 0 18 ACIS 6.0.3 Solaris 24 Sat Apr 13 20:18:27 2002 
1 9.999999999999999547e-07 1.000000000000000036e-10 
body $-1 $1 $-1 $-1 #
lump $-1 $-1 $2 $0 #
shell $-1 $-1 $-1 $3 $-1 $1 #
face $-1 $4 $5 $2 $-1 $6 reversed single #
face $-1 $7 $8 $2 $-1 $9 reversed single #
loop $-1 $-1 $10 $3 #
plane-surface $-1 -198.1592622291966563 505.0195987115308185 183.2119601103522655 -6.728890642794442385e-16 1 -9.053359190797085372e-16 5.665498452323009731e-15 -9.053359190797081822e-15 -10 forward_v I I I I #
face $-1 $11 $12 $2 $-1 $13 reversed single #
loop $-1 $-1 $14 $4 #
cone-surface $-1 -109.1592617130052076 497.0195987115309322 183.2119601103522939 -5.665498452323009336e-16 9.053359190797081428e-16 1 -7.99999999999998046 -5.283317186521856796e-15 -4.532398761858388536e-15 1 I I 0 1 0.799999999999997935 forward I I I I #
coedge $-1 $15 $16 $17 $18 reversed $5 $-1 #
face $-1 $19 $20 $2 $-1 $21 reversed single #
loop $-1 $-1 $22 $7 #
plane-surface $-1 -109.1592615022708515 489.0195987115309322 183.2119601103523223 6.604146483152335786e-16 -1 9.0533591907970834e-16 -5.665498452323009731e-15 9.053359190797081822e-15 10 forward_v I I I I #
coedge $-1 $23 $24 $25 $26 reversed $8 $-1 #
coedge $-1 $27 $10 $28 $29 reversed $5 $-1 #
coedge $-1 $10 $27 $23 $30 forward $5 $-1 #
coedge $-1 $25 $31 $10 $18 forward $32 $-1 #
edge $-1 $33 207.9999999999999432 $34 297 $17 $35 reversed 7 unknown #
face $-1 $36 $37 $2 $-1 $38 reversed single #
loop $-1 $-1 $39 $11 #
cone-surface $-1 -198.1592617130053213 497.0195987115308185 183.2119601103522655 -5.665498452323009336e-16 9.053359190797081428e-16 1 -7.99999999999998046 -5.283317186521856796e-15 -4.532398761858392481e-15 1 I I 0 1 0.799999999999998046 forward I I I I #
coedge $-1 $40 $41 $42 $43 reversed $12 $-1 #
coedge $-1 $44 $14 $16 $30 reversed $8 $-1 #
coedge $-1 $14 $45 $46 $47 reversed $8 $-1 #
coedge $-1 $46 $17 $14 $26 forward $32 $-1 #
edge $-1 $34 -24.2936748772590505 $48 -12.14683743862952703 $25 $49 reversed 7 unknown #
coedge $-1 $16 $15 $50 $51 reversed $5 $-1 #
coedge $-1 $39 $52 $15 $29 forward $20 $-1 #
edge $-1 $53 0 $33 6.685438564653821913 $15 $54 forward 7 unknown #
edge $-1 $55 5.684341886080801487e-14 $34 6.68543856465376507 $23 $56 forward 7 unknown #
coedge $-1 $17 $57 $39 $58 forward $32 $-1 #
loop $-1 $59 $42 $60 #
vertex $-1 $58 $61 #
vertex $-1 $18 $62 #
straight-curve $-1 -406.1592617130052076 505.019598711530648 189.8973986750062011 -1 -7.216449660063517513e-16 6.049034970839750613e-16 I I #
face $-1 $63 $64 $2 $-1 $65 forward single #
loop $-1 $-1 $66 $19 #
plane-surface $-1 -153.6592617130052076 497.019598660621341 183.2119601103522939 5.665498452323009336e-16 -9.053359190797081428e-16 -1 10 6.604146483152337561e-15 5.66549845232300342e-15 forward_v I I I I #
coedge $-1 $67 $28 $31 $58 reversed $20 $-1 #
coedge $-1 $68 $22 $45 $69 reversed $12 $-1 #
coedge $-1 $22 $68 $70 $71 forward $12 $-1 #
coedge $-1 $57 $46 $22 $43 forward $32 $-1 #
edge $-1 $72 -297 $73 -207.9999999999998863 $42 $74 reversed 7 unknown #
coedge $-1 $45 $23 $66 $75 reversed $8 $-1 #
coedge $-1 $24 $44 $40 $69 forward $8 $-1 #
coedge $-1 $42 $25 $24 $47 forward $32 $-1 #
edge $-1 $48 -12.14683743862952703 $72 -0 $46 $76 reversed 7 unknown #
vertex $-1 $26 $77 #
intcurve-curve $-1 forward { surfintcur full nubs 3 open 9 
	12.14683743862952703 3 13.66489562158713511 2 15.18295380454474142 2 16.70101198750234772 2 18.21907017045995403 2 
	19.73772134715972726 2 21.25637252385950404 2 22.77502370055927727 2 24.2936748772590505 3 
	-101.1592617130052076 497.0195987115309322 191.2119601103519528 
	-101.1592617130052076 497.5256181058501284 191.2119601103519528 
	-101.2080475852762902 498.0478037685242612 191.1962033801048335 
	-101.412263354576794 499.0843089038538096 191.1319639069616017 
	-101.5676379298310223 499.5986417854753086 191.0835216703686683 
	-101.9769800769405776 500.5831706070751466 190.9616468350833429 
	-102.2312727369772034 501.0542154953128033 190.8882115910011805 
	-102.8174257535617784 501.924318937949522 190.7301011335040357 
	-103.1493292951250851 502.3233747926355477 190.6455711966391959 
	-103.8556235535868097 503.0296690510972439 190.4814996325164032 
	-104.2547445300737508 503.3615890243972331 190.396077673973565 
	-105.124810623890653 503.9476817304646943 190.2347419882900965 
	-105.5957530044697421 504.2019037879435359 190.1589927323389588 
	-106.580078096110185 504.6111668914827533 190.0324129675586278 
	-107.0943128536766267 504.7665326553359932 189.9816168991731899 
	-108.1307883030984414 504.9707773505875252 189.9140766330029635 
	-108.6530446541052868 505.0195987115309322 189.8973986750060021 
	-109.1592617130052076 505.0195987115309322 189.8973986750060021 
	0.0002660729531033912505 
	cone -109.1592617130052076 497.0195987115309322 183.2119601103522939 -5.665498452323009336e-16 9.053359190797081428e-16 1 -7.99999999999998046 -5.283317186521856796e-15 -4.532398761858388536e-15 1 I I 0 1 0.799999999999997935 forward I I I I 
	cone -406.1592617130052076 497.0195987115308185 166.2119601103521234 1 7.216449660063517513e-16 -6.049034970839750613e-16 -1.512258742709936391e-14 -1.957188209243678113e-14 -25 1 I I -0 -1 2.5 forward I I I I 
	nullbs 
	nullbs 
	I I 
	0 
	0 
	0 
	} I I #
coedge $-1 $78 $66 $27 $51 forward $37 $-1 #
edge $-1 $55 -66.75000025809572435 $53 22.24999974190438934 $27 $79 forward 7 unknown #
coedge $-1 $28 $70 $78 $80 reversed $20 $-1 #
vertex $-1 $51 $81 #
straight-curve $-1 -198.1592617130053213 505.0195987115308185 183.2119601103522655 -5.665498452323009336e-16 9.053359190797081428e-16 1 I I #
vertex $-1 $75 $82 #
straight-curve $-1 -109.1592617130052076 505.0195987115309322 183.2119601103522655 -5.665498452323009336e-16 9.053359190797081428e-16 1 I I #
coedge $-1 $31 $42 $67 $83 forward $32 $-1 #
edge $-1 $84 12.14683743862951815 $33 24.29367487725902919 $31 $85 reversed 7 unknown #
loop $-1 $86 $87 $60 #
face $-1 $88 $32 $2 $-1 $89 forward single #
point $-1 -198.1592617130052645 505.0195987115308185 189.8973986750060874 #
point $-1 -109.1592617130052076 505.0195987115309322 189.8973986750060305 #
face $-1 $90 $91 $2 $-1 $92 forward single #
loop $-1 $-1 $93 $36 #
plane-surface $-1 -6.159261713005207639 479.5195987115311027 183.7119601103519244 6.049034970839745683e-16 7.828752836974712058e-16 1 10 6.604146483152328884e-15 -6.049034970839750613e-15 forward_v I I I I #
coedge $-1 $50 $94 $44 $75 forward $37 $-1 #
coedge $-1 $70 $39 $57 $83 reversed $20 $-1 #
coedge $-1 $41 $40 $94 $95 reversed $12 $-1 #
edge $-1 $96 0 $72 6.685438564653622961 $40 $97 forward 7 unknown #
coedge $-1 $52 $67 $41 $71 reversed $20 $-1 #
edge $-1 $98 0 $73 6.685438564653736648 $70 $99 forward 7 unknown #
vertex $-1 $43 $100 #
vertex $-1 $43 $101 #
straight-curve $-1 -406.1592617130052076 489.0195987115307048 189.8973986750061158 1 7.216449660063517513e-16 -6.049034970839750613e-16 I I #
edge $-1 $96 1.570796326794895892 $55 4.712388980384688786 $44 $102 forward 7 unknown #
intcurve-curve $-1 forward { surfintcur full nubs 3 open 9 
	0 3 1.518651176699773675 2 3.03730235339954735 2 4.555953530099321469 2 6.0746047067990947 2 
	7.592662889756702782 2 9.110721072714310864 2 10.62877925567191895 2 12.14683743862952703 3 
	-109.1592617130052076 489.0195987115309322 189.8973986750059453 
	-108.6530446541052868 489.0195987115309322 189.8973986750059453 
	-108.1307883030984556 489.0684200724743391 189.9140766330028498 
	-107.0943128536766977 489.2726647677258711 189.9816168991730763 
	-106.5800780961102703 489.4280305315791111 190.0324129675586278 
	-105.5957530044698274 489.8372936351183853 190.158992732338902 
	-105.1248106238906388 490.0915156925971132 190.2347419882900112 
	-104.2547445300736939 490.6776083986646313 190.3960776739735081 
	-103.8556235535867955 491.0095283719646204 190.4814996325163179 
	-103.1493292951250851 491.7158226304263167 190.6455711966391391 
	-102.81742575356175 492.1148784851123423 190.7301011335039789 
	-102.2312727369771608 492.984981927749061 190.8882115910011521 
	-101.976980076940535 493.4560268159867746 190.9616468350833429 
	-101.5676379298310081 494.4405556375866126 191.0835216703686683 
	-101.412263354576794 494.9548885192080547 191.1319639069615732 
	-101.2080475852762902 495.9913936545376032 191.1962033801048051 
	-101.1592617130052076 496.513579317211736 191.2119601103519528 
	-101.1592617130052076 497.0195987115309322 191.2119601103519528 
	0.0002660729531033912505 
	cone -109.1592617130052076 497.0195987115309322 183.2119601103522939 -5.665498452323009336e-16 9.053359190797081428e-16 1 -7.99999999999998046 -5.283317186521856796e-15 -4.532398761858388536e-15 1 I I 0 1 0.799999999999997935 forward I I I I 
	cone -406.1592617130052076 497.0195987115308185 166.2119601103521234 1 7.216449660063517513e-16 -6.049034970839750613e-16 -1.512258742709936391e-14 -1.957188209243678113e-14 -25 1 I I -0 -1 2.5 forward I I I I 
	nullbs 
	nullbs 
	I I 
	0 
	0 
	0 
	} I I #
point $-1 -101.1592617130052076 497.0195987115309322 191.2119601103523223 #
coedge $-1 $94 $50 $52 $80 forward $37 $-1 #
straight-curve $-1 -175.909261971100932 505.0195987115308185 183.2119601103522655 -1 -6.728890642794447315e-16 -5.66549845232300342e-16 I I #
edge $-1 $53 -1.570796326794897446 $98 1.570796326794895892 $52 $103 forward 7 unknown #
point $-1 -198.1592617130053213 505.0195987115308185 183.2119601103522655 #
point $-1 -109.1592617130052076 505.0195987115309322 183.2119601103523223 #
edge $-1 $73 -0 $84 12.14683743862951815 $57 $104 reversed 7 unknown #
vertex $-1 $83 $105 #
intcurve-curve $-1 forward { surfintcur full nubs 3 open 9 
	-24.29367487725902919 3 -22.77502370055925596 2 -21.25637252385948273 2 -19.7377213471597095 2 -18.21907017045993626 2 
	-16.70101198750232996 2 -15.18295380454472365 2 -13.6648956215871209 2 -12.14683743862951815 3 
	-198.1592617130053213 505.0195987115308185 189.8973986750060874 
	-198.6654787719052422 505.0195987115308185 189.8973986750060874 
	-199.1877351229121018 504.9707773505874115 189.9140766330030488 
	-200.2242105723338739 504.7665326553358796 189.9816168991732752 
	-200.7384453299003155 504.6111668914826396 190.0324129675587415 
	-201.7227704215407584 504.2019037879433654 190.1589927323390157 
	-202.1937128021199612 503.9476817304646374 190.2347419882901818 
	-203.0637788959368777 503.3615890243971194 190.3960776739736502 
	-203.4628998724237476 503.0296690510971303 190.4814996325164316 
	-204.1691941308854439 502.323374792635434 190.6455711966392528 
	-204.5010976724487648 501.9243189379494083 190.730101133504121 
	-205.0872506890333398 501.0542154953126897 190.8882115910012658 
	-205.3415433490699797 500.583170607074976 190.9616468350833998 
	-205.750885496179535 499.598641785475138 191.083521670368782 
	-205.906260071433735 499.0843089038536391 191.1319639069616301 
	-206.1104758407342388 498.0478037685241475 191.1962033801048619 
	-206.1592617130052929 497.5256181058500147 191.2119601103520097 
	-206.1592617130052645 497.0195987115307616 191.2119601103519813 
	0.0002660729531320344624 
	cone -198.1592617130053213 497.0195987115308185 183.2119601103522655 -5.665498452323009336e-16 9.053359190797081428e-16 1 -7.99999999999998046 -5.283317186521856796e-15 -4.532398761858392481e-15 1 I I 0 1 0.799999999999998046 forward I I I I 
	cone -406.1592617130052076 497.0195987115308185 166.2119601103521234 1 7.216449660063517513e-16 -6.049034970839750613e-16 -1.512258742709936391e-14 -1.957188209243678113e-14 -25 1 I I -0 -1 2.5 forward I I I I 
	nullbs 
	nullbs 
	I I 
	0 
	0 
	0 
	} I I #
loop $-1 $-1 $106 $60 #
coedge $-1 $87 $87 $107 $108 reversed $59 $-1 #
face $-1 $109 $110 $2 $-1 $111 forward single #
cone-surface $-1 -406.1592617130052076 497.0195987115308185 166.2119601103521234 1 7.216449660063517513e-16 -6.049034970839750613e-16 -1.512258742709936391e-14 -1.957188209243678113e-14 -25 1 I I 0 1 2.5 forward I I I I #
face $-1 $112 $113 $2 $-1 $114 forward single #
loop $-1 $-1 $115 $63 #
plane-surface $-1 -6.159261713005207639 514.5195987115311027 183.7119601103518676 -6.604146483152335786e-16 1 -7.828752836974707128e-16 10 6.604146483152328884e-15 -6.049034970839750613e-15 forward_v I I I I #
coedge $-1 $116 $117 $118 $119 forward $64 $-1 #
coedge $-1 $66 $78 $68 $95 forward $37 $-1 #
edge $-1 $98 -66.75000010536729178 $96 22.24999989463282191 $68 $120 forward 7 unknown #
vertex $-1 $75 $121 #
straight-curve $-1 -109.1592617130052076 489.0195987115309322 183.2119601103523223 -5.665498452323009336e-16 9.053359190797081428e-16 1 I I #
vertex $-1 $80 $122 #
straight-curve $-1 -198.1592617130053213 489.0195987115308185 183.2119601103522655 -5.665498452323009336e-16 9.053359190797081428e-16 1 I I #
point $-1 -109.1592617130052076 489.0195987115309322 189.8973986750059453 #
point $-1 -198.1592617130053213 489.0195987115308185 189.8973986750060021 #
ellipse-curve $-1 -109.1592617130052076 497.0195987115309322 183.2119601103523223 -5.665498452323009336e-16 9.053359190797081428e-16 1 -7.99999999999998046 -5.283317186521856796e-15 -4.532398761858388536e-15 1 I I #
ellipse-curve $-1 -198.1592617130053213 497.0195987115308185 183.2119601103522655 -5.665498452323009336e-16 9.053359190797081428e-16 1 -7.99999999999998046 -5.283317186521856796e-15 -4.532398761858392481e-15 1 I I #
intcurve-curve $-1 forward { surfintcur full nubs 3 open 9 
	-12.14683743862951815 3 -10.62877925567191539 2 -9.110721072714305535 2 -7.592662889756695677 2 -6.074604706799092924 2 
	-4.55595353009931614 2 -3.037302353399546462 2 -1.518651176699776784 2 0 3 
	-206.1592617130052645 497.0195987115307616 191.2119601103519813 
	-206.1592617130052645 496.5135793172115655 191.2119601103519813 
	-206.1104758407342104 495.9913936545374327 191.1962033801048619 
	-205.9062600714337066 494.954888519207941 191.1319639069616301 
	-205.7508854961795066 494.440555637586499 191.0835216703686967 
	-205.3415433490699797 493.4560268159866609 190.9616468350833429 
	-205.0872506890333113 492.9849819277488336 190.8882115910012089 
	-204.5010976724487364 492.114878485112115 190.7301011335040357 
	-204.1691941308854439 491.715822630426203 190.6455711966391959 
	-203.4628998724237476 491.0095283719645067 190.4814996325163747 
	-203.0637788959367072 490.6776083986645176 190.396077673973565 
	-202.1937128021197907 490.0915156925969995 190.2347419882900681 
	-201.7227704215407584 489.8372936351182716 190.1589927323389588 
	-200.7384453299002871 489.4280305315789974 190.0324129675586278 
	-200.224210572333817 489.2726647677257574 189.9816168991731615 
	-199.187735122912045 489.0684200724742254 189.9140766330029351 
	-198.6654787719052422 489.0195987115307616 189.8973986750059453 
	-198.1592617130053213 489.0195987115308185 189.8973986750059737 
	0.0002660729531320344624 
	cone -198.1592617130053213 497.0195987115308185 183.2119601103522655 -5.665498452323009336e-16 9.053359190797081428e-16 1 -7.99999999999998046 -5.283317186521856796e-15 -4.532398761858392481e-15 1 I I 0 1 0.799999999999998046 forward I I I I 
	cone -406.1592617130052076 497.0195987115308185 166.2119601103521234 1 7.216449660063517513e-16 -6.049034970839750613e-16 -1.512258742709936391e-14 -1.957188209243678113e-14 -25 1 I I -0 -1 2.5 forward I I I I 
	nullbs 
	nullbs 
	I I 
	0 
	0 
	0 
	} I I #
point $-1 -206.1592617130053213 497.0195987115308185 191.2119601103522655 #
coedge $-1 $106 $106 $123 $124 forward $86 $-1 #
coedge $-1 $107 $107 $87 $108 forward $125 $-1 #
edge $-1 $126 7.828752836974708114e-16 $126 6.28318530717958712 $107 $127 forward 7 unknown #
face $-1 $-1 $128 $2 $-1 $129 forward single #
loop $-1 $125 $130 $88 #
plane-surface $-1 -6.159261713005207639 497.0195987115311027 153.711960110351896 1 7.216449660063517513e-16 -6.049034970839750613e-16 -6.04903497083974588e-15 -7.828752836974712453e-15 -10 forward_v I I I I #
face $-1 $131 $132 $2 $-1 $133 forward single #
loop $-1 $-1 $134 $90 #
plane-surface $-1 -6.159261713005207639 514.5195987115311027 148.7119601103518676 -6.049034970839745683e-16 -7.828752836974712058e-16 -1 -10 -6.604146483152328884e-15 6.049034970839750613e-15 forward_v I I I I #
coedge $-1 $135 $136 $137 $138 forward $91 $-1 #
coedge $-1 $139 $93 $136 $140 reversed $64 $-1 #
coedge $-1 $93 $139 $141 $142 forward $64 $-1 #
coedge $-1 $143 $137 $93 $119 reversed $144 $-1 #
edge $-1 $145 -0 $146 35 $93 $147 reversed 7 unknown #
straight-curve $-1 -131.4092616076380295 489.0195987115309322 183.2119601103523223 1 6.604146483152340717e-16 5.66549845232300342e-16 I I #
point $-1 -109.1592617130052076 489.0195987115309322 183.2119601103523223 #
point $-1 -198.1592617130053213 489.0195987115308185 183.2119601103522655 #
coedge $-1 $123 $123 $106 $124 reversed $128 $-1 #
edge $-1 $148 7.8287528369747091e-16 $148 6.28318530717958712 $106 $149 forward 7 unknown #
loop $-1 $-1 $107 $88 #
vertex $-1 $108 $150 #
ellipse-curve $-1 -6.159261713005207639 497.0195987115311027 166.2119601103518676 1 7.216449660063517513e-16 -6.049034970839750613e-16 -1.512258742709936391e-14 -1.957188209243678113e-14 -25 1 I I #
loop $-1 $-1 $123 $109 #
plane-surface $-1 -806.1592617130052076 497.0195987115305343 153.7119601103523792 -1 -7.216449660063517513e-16 6.049034970839750613e-16 6.04903497083974588e-15 7.828752836974712453e-15 10 forward_v I I I I #
coedge $-1 $151 $152 $139 $153 forward $110 $-1 #
face $-1 $60 $144 $2 $-1 $154 reversed single #
loop $-1 $-1 $155 $112 #
plane-surface $-1 -6.159261713005207639 479.5195987115310459 148.7119601103519244 6.604146483152335786e-16 -1 7.828752836974707128e-16 -10 -6.604146483152328884e-15 6.049034970839750613e-15 forward_v I I I I #
coedge $-1 $156 $157 $158 $159 forward $113 $-1 #
coedge $-1 $160 $115 $157 $161 reversed $91 $-1 #
coedge $-1 $115 $160 $116 $140 forward $91 $-1 #
coedge $-1 $118 $158 $115 $138 reversed $144 $-1 #
edge $-1 $146 -2.842170943040400743e-14 $162 35 $115 $163 reversed 7 unknown #
coedge $-1 $117 $116 $130 $153 reversed $64 $-1 #
edge $-1 $164 1.687538997430237941e-14 $146 65 $136 $165 forward 7 unknown #
coedge $-1 $166 $155 $117 $142 reversed $132 $-1 #
edge $-1 $167 1.953992523340275511e-14 $145 64.99999999999998579 $117 $168 forward 7 unknown #
coedge $-1 $158 $118 $155 $169 reversed $144 $-1 #
loop $-1 $-1 $118 $131 #
vertex $-1 $142 $170 #
vertex $-1 $140 $171 #
straight-curve $-1 58.84073828699479236 479.5195987115311027 183.7119601103518676 6.604146483152333814e-16 -1 7.828752836974708114e-16 I I #
vertex $-1 $124 $172 #
ellipse-curve $-1 -806.1592617130052076 497.0195987115305343 166.2119601103523792 1 7.216449660063517513e-16 -6.049034970839750613e-16 -1.512258742709936391e-14 -1.957188209243678113e-14 -25 1 I I #
point $-1 -6.159261713005207639 497.0195987115311027 141.211960110351896 #
coedge $-1 $173 $130 $160 $174 forward $110 $-1 #
coedge $-1 $130 $173 $166 $175 forward $110 $-1 #
edge $-1 $167 -8.750000000000056843 $164 26.25 $130 $176 reversed 7 unknown #
plane-surface $-1 58.84073828699479236 479.5195987115311596 183.7119601103518676 -1 -6.604146483152328884e-16 6.049034970839750613e-16 6.04903497083974588e-15 7.828752836974712453e-15 10 forward_v I I I I #
coedge $-1 $141 $177 $143 $169 forward $132 $-1 #
coedge $-1 $178 $134 $177 $179 reversed $113 $-1 #
coedge $-1 $134 $178 $135 $161 forward $113 $-1 #
coedge $-1 $137 $143 $134 $159 reversed $144 $-1 #
edge $-1 $162 -17.5 $180 17.5 $134 $181 reversed 7 unknown #
coedge $-1 $136 $135 $151 $174 reversed $91 $-1 #
edge $-1 $182 -5.329070518200751394e-15 $162 64.99999999999997158 $157 $183 forward 7 unknown #
vertex $-1 $161 $184 #
straight-curve $-1 58.84073828699477815 514.5195987115311027 183.7119601103518391 6.049034970839745683e-16 7.828752836974711072e-16 1 I I #
vertex $-1 $153 $185 #
straight-curve $-1 -6.159261713005219185 514.5195987115311027 183.711960110351896 1 6.604146483152330856e-16 -6.049034970839750613e-16 I I #
coedge $-1 $177 $141 $152 $175 reversed $132 $-1 #
vertex $-1 $153 $186 #
straight-curve $-1 -6.159261713005196981 479.5195987115310459 183.7119601103519244 1 6.604146483152330856e-16 -6.049034970839750613e-16 I I #
edge $-1 $180 -17.5 $145 17.5 $155 $187 reversed 7 unknown #
point $-1 58.84073828699479236 479.5195987115311027 183.7119601103518676 #
point $-1 58.84073828699477815 514.5195987115311027 183.7119601103518676 #
point $-1 -806.1592617130052076 497.0195987115305343 141.2119601103523792 #
coedge $-1 $152 $151 $178 $188 forward $110 $-1 #
edge $-1 $164 -15.00000000000002842 $182 20 $151 $189 reversed 7 unknown #
edge $-1 $190 -2.500000000000028422 $167 32.5 $152 $191 reversed 7 unknown #
straight-curve $-1 -6.159261713005183658 488.2695987115311027 183.7119601103519244 7.216449660063522443e-16 -1 7.828752836974708114e-16 I I #
coedge $-1 $155 $166 $156 $179 forward $132 $-1 #
coedge $-1 $157 $156 $173 $188 reversed $113 $-1 #
edge $-1 $190 -2.664535259100413168e-15 $180 64.99999999999997158 $177 $192 forward 7 unknown #
vertex $-1 $179 $193 #
straight-curve $-1 58.84073828699476394 497.0195987115311027 148.7119601103518391 -6.604146483152333814e-16 1 -7.828752836974708114e-16 I I #
vertex $-1 $174 $194 #
straight-curve $-1 -6.159261713005218297 514.5195987115311027 148.7119601103518676 1 6.604146483152330856e-16 -6.049034970839750613e-16 I I #
point $-1 58.84073828699474973 514.5195987115311027 148.7119601103518391 #
point $-1 -6.15926171300520231 514.5195987115311027 183.711960110351896 #
point $-1 -6.159261713005177441 479.5195987115310459 183.7119601103519244 #
straight-curve $-1 58.84073828699478526 479.5195987115311027 166.2119601103518676 -6.049034970839745683e-16 -7.828752836974711072e-16 -1 I I #
edge $-1 $182 -8.75 $190 26.25000000000005684 $173 $195 reversed 7 unknown #
straight-curve $-1 -6.159261713005211192 514.5195987115311027 168.7119601103518676 6.049034970839744697e-16 7.828752836974711072e-16 1 I I #
vertex $-1 $188 $196 #
straight-curve $-1 -6.159261713005196981 479.5195987115310459 151.2119601103519244 -6.049034970839744697e-16 -7.828752836974711072e-16 -1 I I #
straight-curve $-1 -6.159261713005196093 479.5195987115311027 148.711960110351896 1 6.604146483152330856e-16 -6.049034970839750613e-16 I I #
point $-1 58.84073828699477815 479.5195987115311027 148.7119601103518676 #
point $-1 -6.159261713005223626 514.5195987115311027 148.7119601103518676 #
straight-curve $-1 -6.159261713005217409 505.7695987115311027 148.7119601103518676 -7.216449660063522443e-16 1 -7.828752836974708114e-16 I I #
point $-1 -6.159261713005198757 479.5195987115310459 148.711960110351896 #
End-of-ACIS-data 