400 0 1 0           
7 Unknown 13 ACIS 4.0.1 NT 24 Wed Aug 26 17:16:23 1998 
1 9.9999999999999995e-007 1e-010 
body $-1 $1 $-1 $2 #
lump $-1 $-1 $3 $0 #
transform $-1 -6.0490349708397457e-016 -7.8287528369747121e-016 -1 -6.6041464831523358e-016 1 -7.8287528369747071e-016 1 6.6041464831523289e-016 -6.0490349708397506e-016 -806.15926171300521 497.01959871153053 166.21196011035238 10 rotate no_reflect no_shear #
shell $-1 $-1 $-1 $4 $-1 $1 #
face $-1 $5 $6 $3 $-1 $7 reversed single #
face $-1 $8 $9 $3 $-1 $10 reversed single #
loop $-1 $-1 $11 $4 #
plane-surface $-1 -1.7000000000000246 0.79999999999998916 60.799999948380858 1.2246063538223775e-016 1 -1.2474415964210607e-017 1 -1.2246063538223773e-016 1.1714533423162754e-015 forward_v I I I I #
face $-1 $12 $13 $3 $-1 $14 reversed single #
loop $-1 $-1 $15 $5 #
cone-surface $-1 -1.7000000000000348 -8.3266726846886741e-015 69.700000000000003 -1 1.2246063538223773e-016 -1.1714533423162754e-015 9.3716267385301768e-016 -5.5444981334905514e-033 -0.79999999999999805 1 I I 0 1 0.079999999999999793 forward I I I I #
coedge $-1 $16 $17 $18 $19 reversed $6 $-1 #
face $-1 $20 $21 $3 $-1 $22 reversed single #
loop $-1 $-1 $23 $8 #
plane-surface $-1 -1.7000000000000353 -0.80000000000000593 69.700000021073436 -1.2246063538223773e-016 -1 -1.3652629795383392e-031 -1 1.2246063538223773e-016 -1.1714533423162754e-015 forward_v I I I I #
coedge $-1 $24 $25 $26 $27 reversed $9 $-1 #
coedge $-1 $28 $11 $29 $30 reversed $6 $-1 #
coedge $-1 $11 $28 $24 $31 forward $6 $-1 #
coedge $-1 $26 $32 $11 $19 forward $33 $-1 #
edge $-1 $34 $35 $18 $36 forward #
face $-1 $37 $38 $3 $-1 $39 reversed single #
loop $-1 $-1 $40 $12 #
cone-surface $-1 -1.7000000000000246 -1.4321877017664519e-014 60.79999999999999 -1 1.2246063538223773e-016 -1.1714533423162754e-015 9.3716267385301807e-016 -5.5444981334905541e-033 -0.79999999999999805 1 I I 0 1 0.079999999999999807 forward I I I I #
coedge $-1 $41 $42 $43 $44 reversed $13 $-1 #
coedge $-1 $45 $15 $17 $31 reversed $9 $-1 #
coedge $-1 $15 $46 $47 $48 reversed $9 $-1 #
coedge $-1 $47 $18 $15 $27 forward $33 $-1 #
edge $-1 $35 $49 $26 $50 forward #
coedge $-1 $17 $16 $51 $52 reversed $6 $-1 #
coedge $-1 $40 $53 $16 $30 forward $21 $-1 #
edge $-1 $54 $34 $16 $55 forward #
edge $-1 $56 $35 $24 $57 forward #
coedge $-1 $18 $58 $40 $59 forward $33 $-1 #
loop $-1 $60 $43 $61 #
vertex $-1 $59 $62 #
vertex $-1 $19 $63 #
straight-curve $-1 -2.3685438564654073 0.79999999999998916 40 0 6.1230317691118863e-017 1 I I #
face $-1 $64 $65 $3 $-1 $66 forward single #
loop $-1 $-1 $67 $20 #
plane-surface $-1 -1.7000000000000299 -5.0909619853101162e-009 65.25 1 -1.2246063538223773e-016 1.1714533423162754e-015 -1.1714533423162754e-015 6.9306226668632084e-033 1 forward_v I I I I #
coedge $-1 $68 $29 $32 $59 reversed $21 $-1 #
coedge $-1 $69 $23 $46 $70 reversed $13 $-1 #
coedge $-1 $23 $69 $71 $72 forward $13 $-1 #
coedge $-1 $58 $47 $23 $44 forward $33 $-1 #
edge $-1 $73 $74 $43 $75 forward #
coedge $-1 $46 $24 $67 $76 reversed $9 $-1 #
coedge $-1 $25 $45 $41 $70 forward $9 $-1 #
coedge $-1 $43 $26 $25 $48 forward $33 $-1 #
edge $-1 $49 $73 $47 $77 forward #
vertex $-1 $27 $78 #
intcurve-curve $-1 forward { surfintcur nubs 3 open 5 
	-2.4293674877259033 3 -2.1256372523859484 2 -1.8219070170459934 2 -1.5182953804544708 2 -1.2146837438629485 3 
	-2.3685438564654073 0.79999999999998939 69.699999978926584 
	-2.3685438555646239 0.80000000266692028 69.80124339070656 
	-2.3757162974816555 0.77961997317213694 69.908702107107487 
	-2.4010322504377157 0.69776735246428789 70.105567125435584 
	-2.4187487720556975 0.63632864296401692 70.19504220693446 
	-2.451563084880263 0.49506979127167594 70.336301058626788 
	-2.4688749307088718 0.40558363063439373 70.397761056250971 
	-2.4932498977659421 0.20867786631442567 70.479629485672888 
	-2.500000000000036 0.10120387886383252 70.5 
	-2.5000000000000355 -8.2156503822261584e-015 70.5 
	0.00035766751650046879 
	cone -1.7000000000000348 -8.3266726846886741e-015 69.700000000000003 -1 1.2246063538223773e-016 -1.1714533423162754e-015 9.3716267385301768e-016 -5.5444981334905514e-033 -0.79999999999999805 1 I I 0 1 0.079999999999999793 forward I I I I 
	cone 0 2.6645352591003757e-015 40 0 6.1230317691118863e-017 1 2.5 0 0 1 I I 0 1 0.25 forward I I I I 
	nullbs 
	nullbs 
	I I 
	0 
	0 
	0 
	} I I #
coedge $-1 $79 $67 $28 $52 forward $38 $-1 #
edge $-1 $56 $54 $28 $80 forward #
coedge $-1 $29 $71 $79 $81 reversed $21 $-1 #
vertex $-1 $52 $82 #
straight-curve $-1 -1.7000000000000246 0.79999999999998916 60.799999948380858 -1 1.2246063538223773e-016 -1.1714533423162754e-015 I I #
vertex $-1 $76 $83 #
straight-curve $-1 -1.7000000000000348 0.79999999999998928 69.699999978926584 -1 1.2246063538223773e-016 -1.1714533423162754e-015 I I #
coedge $-1 $32 $43 $68 $84 forward $33 $-1 #
edge $-1 $85 $34 $32 $86 forward #
loop $-1 $87 $88 $61 #
face $-1 $89 $33 $3 $-1 $90 forward single #
point $-1 -2.3685438564654073 0.79999999999998928 60.799999948380858 #
point $-1 -2.3685438564654073 0.79999999999998939 69.699999978926584 #
face $-1 $91 $92 $3 $-1 $93 forward single #
loop $-1 $-1 $94 $37 #
plane-surface $-1 -1.75 -1.7499999999999982 80 -1 0 0 0 0 1 forward_v I I I I #
coedge $-1 $51 $95 $45 $76 forward $38 $-1 #
coedge $-1 $71 $40 $58 $84 reversed $21 $-1 #
coedge $-1 $42 $41 $95 $96 reversed $13 $-1 #
edge $-1 $97 $73 $41 $98 forward #
coedge $-1 $53 $68 $42 $72 reversed $21 $-1 #
edge $-1 $99 $74 $71 $100 forward #
vertex $-1 $44 $101 #
vertex $-1 $44 $102 #
straight-curve $-1 -2.3685438564653993 -0.80000000000000593 40 0 -6.1230317691118863e-017 -1 I I #
edge $-1 $97 $56 $45 $103 forward #
intcurve-curve $-1 forward { surfintcur nubs 3 open 5 
	-1.2146837438629485 3 -0.91107210727142718 2 -0.60746047067990627 2 -0.30373023533995358 2 0 3 
	-2.5000000000000355 -8.2156503822261584e-015 70.5 
	-2.5000000000000355 -0.10120387886384863 70.5 
	-2.4932498977659394 -0.20867786631445157 70.479629485672888 
	-2.4688749307088664 -0.40558363063441799 70.397761056250971 
	-2.4515630848802559 -0.49506979127170114 70.336301058626788 
	-2.4187487720556895 -0.63632864296404001 70.19504220693446 
	-2.4010322504377073 -0.69776735246430466 70.105567125435584 
	-2.3757162974816466 -0.77961997317215337 69.908702107107487 
	-2.3685438573661828 -0.79999999733307292 69.801243432853411 
	-2.3685438564653989 -0.80000000000000593 69.700000021073436 
	0.00035766751650046879 
	cone -1.7000000000000348 -8.3266726846886741e-015 69.700000000000003 -1 1.2246063538223773e-016 -1.1714533423162754e-015 9.3716267385301768e-016 -5.5444981334905514e-033 -0.79999999999999805 1 I I 0 1 0.079999999999999793 forward I I I I 
	cone 0 2.6645352591003757e-015 40 0 6.1230317691118863e-017 1 2.5 0 0 1 I I 0 1 0.25 forward I I I I 
	nullbs 
	nullbs 
	I I 
	0 
	0 
	0 
	} I I #
point $-1 -2.5000000000000355 -8.2156503822261584e-015 70.5 #
coedge $-1 $95 $51 $53 $81 forward $38 $-1 #
straight-curve $-1 -1.7000000000000348 0.79999999999998928 69.699999978926584 1.1714533423162754e-015 -1.2474415964210754e-017 -1 I I #
edge $-1 $54 $99 $53 $104 forward #
point $-1 -1.7000000000000246 0.79999999999998916 60.799999948380858 #
point $-1 -1.7000000000000348 0.79999999999998928 69.699999978926584 #
edge $-1 $74 $85 $58 $105 forward #
vertex $-1 $84 $106 #
intcurve-curve $-1 forward { surfintcur nubs 3 open 5 
	1.2146837438629519 3 1.518295380454473 2 1.8219070170459939 2 2.1256372523859479 2 2.4293674877259024 3 
	-2.5000000000000235 -1.4210854715202004e-014 59.999999999999993 
	-2.5000000000000249 0.10120387886382619 59.999999999999993 
	-2.4932498977659421 0.20867786631442953 60.020370514327105 
	-2.4688749307088722 0.40558363063439612 60.102238943749001 
	-2.451563084880263 0.49506979127167333 60.163698941373198 
	-2.4187487720556984 0.63632864296401337 60.304957793065547 
	-2.401032250437714 0.69776735246429133 60.394432874564451 
	-2.3757162974816568 0.77961997317213161 60.591297892892527 
	-2.3685438586718672 0.79999999346736805 60.698756536600868 
	-2.3685438564654073 0.79999999999998928 60.799999948380858 
	0.00035766751650240193 
	cone -1.7000000000000246 -1.4321877017664519e-014 60.79999999999999 -1 1.2246063538223773e-016 -1.1714533423162754e-015 9.3716267385301807e-016 -5.5444981334905541e-033 -0.79999999999999805 1 I I 0 1 0.079999999999999807 forward I I I I 
	cone 0 2.6645352591003757e-015 40 0 6.1230317691118863e-017 1 2.5 0 0 1 I I 0 1 0.25 forward I I I I 
	nullbs 
	nullbs 
	I I 
	0 
	0 
	0 
	} I I #
loop $-1 $-1 $107 $61 #
coedge $-1 $88 $88 $108 $109 reversed $60 $-1 #
face $-1 $110 $111 $3 $-1 $112 forward single #
cone-surface $-1 0 2.6645352591003757e-015 40 0 6.1230317691118863e-017 1 2.5 0 0 1 I I 0 1 0.25 forward I I I I #
face $-1 $113 $114 $3 $-1 $115 forward single #
loop $-1 $-1 $116 $64 #
plane-surface $-1 -1.75 1.7500000000000018 80 0 1 0 0 0 1 forward_v I I I I #
coedge $-1 $117 $118 $119 $120 forward $65 $-1 #
coedge $-1 $67 $79 $69 $96 forward $38 $-1 #
edge $-1 $99 $97 $69 $121 forward #
vertex $-1 $76 $122 #
straight-curve $-1 -1.7000000000000353 -0.80000000000000593 69.700000021073436 -1 1.2246063538223773e-016 -1.1714533423162754e-015 I I #
vertex $-1 $81 $123 #
straight-curve $-1 -1.7000000000000246 -0.8000000000000107 60.800000051619151 -1 1.2246063538223773e-016 -1.1714533423162754e-015 I I #
point $-1 -2.3685438564653989 -0.80000000000000593 69.700000021073436 #
point $-1 -2.3685438564653971 -0.8000000000000107 60.800000051619151 #
ellipse-curve $-1 -1.7000000000000348 -8.3266726846886741e-015 69.700000000000003 -1 1.2246063538223773e-016 -1.1714533423162754e-015 9.3716267385301768e-016 -5.5444981334905514e-033 -0.79999999999999805 1 F 1.5707963531366786 F 4.7123890067264815 #
ellipse-curve $-1 -1.7000000000000246 -1.4321877017664519e-014 60.79999999999999 -1 1.2246063538223773e-016 -1.1714533423162754e-015 9.3716267385301807e-016 -5.5444981334905541e-033 -0.79999999999999805 1 F -1.5707962622709859 F 1.5707963913188383 #
intcurve-curve $-1 forward { surfintcur nubs 3 open 5 
	0 3 0.30373023533995436 2 0.60746047067990872 2 0.91107210727143029 2 1.2146837438629519 3 
	-2.3685438564653971 -0.8000000000000107 60.800000051619151 
	-2.3685438542589363 -0.8000000065326347 60.698756639839168 
	-2.3757162974816457 -0.77961997317215648 60.591297892892513 
	-2.4010322504377051 -0.69776735246431487 60.39443287456443 
	-2.4187487720556895 -0.63632864296404179 60.304957793065547 
	-2.4515630848802559 -0.49506979127170203 60.163698941373198 
	-2.4688749307088664 -0.40558363063442138 60.102238943748993 
	-2.493249897765939 -0.20867786631445409 60.020370514327091 
	-2.5000000000000231 -0.10120387886385473 59.999999999999993 
	-2.5000000000000235 -1.4210854715202004e-014 59.999999999999993 
	0.00035766751650240193 
	cone -1.7000000000000246 -1.4321877017664519e-014 60.79999999999999 -1 1.2246063538223773e-016 -1.1714533423162754e-015 9.3716267385301807e-016 -5.5444981334905541e-033 -0.79999999999999805 1 I I 0 1 0.079999999999999807 forward I I I I 
	cone 0 2.6645352591003757e-015 40 0 6.1230317691118863e-017 1 2.5 0 0 1 I I 0 1 0.25 forward I I I I 
	nullbs 
	nullbs 
	I I 
	0 
	0 
	0 
	} I I #
point $-1 -2.5000000000000235 -1.4210854715202004e-014 59.999999999999993 #
coedge $-1 $107 $107 $124 $125 forward $87 $-1 #
coedge $-1 $108 $108 $88 $109 forward $126 $-1 #
edge $-1 $127 $127 $108 $128 forward #
face $-1 $-1 $129 $3 $-1 $130 forward single #
loop $-1 $126 $131 $89 #
plane-surface $-1 1.25 5.3290705182007514e-015 80 0 6.1230317691118863e-017 1 1 0 0 forward_v I I I I #
face $-1 $132 $133 $3 $-1 $134 forward single #
loop $-1 $-1 $135 $91 #
plane-surface $-1 1.75 1.7500000000000018 80 1 0 0 0 0 -1 forward_v I I I I #
coedge $-1 $136 $137 $138 $139 forward $92 $-1 #
coedge $-1 $140 $94 $137 $141 reversed $65 $-1 #
coedge $-1 $94 $140 $142 $143 forward $65 $-1 #
coedge $-1 $144 $138 $94 $120 reversed $145 $-1 #
edge $-1 $146 $147 $94 $148 forward #
straight-curve $-1 -1.7000000000000246 -0.8000000000000107 60.800000051619151 -1.1714533423162754e-015 6.9306226668632084e-033 1 I I #
point $-1 -1.7000000000000353 -0.80000000000000593 69.700000021073436 #
point $-1 -1.7000000000000246 -0.8000000000000107 60.800000051619151 #
coedge $-1 $124 $124 $107 $125 reversed $129 $-1 #
edge $-1 $149 $149 $107 $150 forward #
loop $-1 $-1 $108 $89 #
vertex $-1 $109 $151 #
ellipse-curve $-1 0 5.3290705182007514e-015 80 0 6.1230317691118863e-017 1 2.5 0 0 1 I I #
loop $-1 $-1 $124 $110 #
plane-surface $-1 1.25 0 -2.4651903288156619e-032 0 -6.1230317691118863e-017 -1 -1 0 0 forward_v I I I I #
coedge $-1 $152 $153 $140 $154 forward $111 $-1 #
face $-1 $61 $145 $3 $-1 $155 reversed single #
loop $-1 $-1 $156 $113 #
plane-surface $-1 1.75 -1.7499999999999982 80 0 -1 0 0 0 -1 forward_v I I I I #
coedge $-1 $157 $158 $159 $160 forward $114 $-1 #
coedge $-1 $161 $116 $158 $162 reversed $92 $-1 #
coedge $-1 $116 $161 $117 $141 forward $92 $-1 #
coedge $-1 $119 $159 $116 $139 reversed $145 $-1 #
edge $-1 $147 $163 $116 $164 forward #
coedge $-1 $118 $117 $131 $154 reversed $65 $-1 #
edge $-1 $165 $147 $137 $166 forward #
coedge $-1 $167 $156 $118 $143 reversed $133 $-1 #
edge $-1 $168 $146 $118 $169 forward #
coedge $-1 $159 $119 $156 $170 reversed $145 $-1 #
loop $-1 $-1 $119 $132 #
vertex $-1 $143 $171 #
vertex $-1 $141 $172 #
straight-curve $-1 -1.75 1.7500000000000018 86.5 0 1 0 I I #
vertex $-1 $125 $173 #
ellipse-curve $-1 0 0 -2.4651903288156619e-032 0 6.1230317691118863e-017 1 2.5 0 0 1 I I #
point $-1 2.5 5.3290705182007514e-015 80 #
coedge $-1 $174 $131 $161 $175 forward $111 $-1 #
coedge $-1 $131 $174 $167 $176 forward $111 $-1 #
edge $-1 $168 $165 $131 $177 forward #
plane-surface $-1 -1.75 -1.7499999999999982 86.5 0 0 -1 -1 0 0 forward_v I I I I #
coedge $-1 $142 $178 $144 $170 forward $133 $-1 #
coedge $-1 $179 $135 $178 $180 reversed $114 $-1 #
coedge $-1 $135 $179 $136 $162 forward $114 $-1 #
coedge $-1 $138 $144 $135 $160 reversed $145 $-1 #
edge $-1 $163 $181 $135 $182 forward #
coedge $-1 $137 $136 $152 $175 reversed $92 $-1 #
edge $-1 $183 $163 $158 $184 forward #
vertex $-1 $162 $185 #
straight-curve $-1 1.75 1.7500000000000018 86.5 1 0 0 I I #
vertex $-1 $154 $186 #
straight-curve $-1 -1.75 1.7500000000000018 80 0 0 1 I I #
coedge $-1 $178 $142 $153 $176 reversed $133 $-1 #
vertex $-1 $154 $187 #
straight-curve $-1 -1.75 -1.7499999999999982 80 0 0 1 I I #
edge $-1 $181 $146 $156 $188 forward #
point $-1 -1.75 -1.7499999999999982 86.5 #
point $-1 -1.75 1.7500000000000018 86.5 #
point $-1 2.5 0 -2.4651903288156619e-032 #
coedge $-1 $153 $152 $179 $189 forward $111 $-1 #
edge $-1 $165 $183 $152 $190 forward #
edge $-1 $191 $168 $153 $192 forward #
straight-curve $-1 -1.75 -0.87499999999999645 80 0 1 -6.1230317691118863e-017 I I #
coedge $-1 $156 $167 $157 $180 forward $133 $-1 #
coedge $-1 $158 $157 $174 $189 reversed $114 $-1 #
edge $-1 $191 $181 $178 $193 forward #
vertex $-1 $180 $194 #
straight-curve $-1 1.75 -1.7499999999999982 86.5 0 -1 0 I I #
vertex $-1 $175 $195 #
straight-curve $-1 1.75 1.7500000000000018 80 0 0 1 I I #
point $-1 1.75 1.7500000000000018 86.5 #
point $-1 -1.75 1.7500000000000018 80 #
point $-1 -1.75 -1.7499999999999982 80 #
straight-curve $-1 -1.75 -1.7499999999999982 86.5 -1 0 0 I I #
edge $-1 $183 $191 $174 $196 forward #
straight-curve $-1 -0.25 1.7500000000000018 80 1 0 0 I I #
vertex $-1 $189 $197 #
straight-curve $-1 1.5 -1.7499999999999982 80 -1 0 0 I I #
straight-curve $-1 1.75 -1.7499999999999982 80 0 0 1 I I #
point $-1 1.75 -1.7499999999999982 86.5 #
point $-1 1.75 1.7500000000000018 80 #
straight-curve $-1 1.75 0.87500000000000355 80 0 -1 6.1230317691118863e-017 I I #
point $-1 1.75 -1.7499999999999982 80 #
End-of-ACIS-data 