105 964 1 0         
body $-1 $1 $-1 $-1 #
lump $-1 $-1 $2 $0 #
shell $-1 $-1 $-1 $3 $1 #
face $-1 $4 $5 $2 $-1 $6 forward single #
face $-1 $7 $8 $2 $-1 $9 reversed single #
loop $-1 $-1 $10 $3 #
plane-surface $-1 -75 86.60250000000002 20 0 -1 0 0 0 1 0 #
face $-1 $11 $12 $2 $-1 $13 forward single #
loop $-1 $14 $15 $4 #
plane-surface $-1 -75 0 15 0 0 -1 0 -1 0 0 #
coedge $-1 $16 $17 $18 $19 1 $5 $-1 #
face $-1 $20 $21 $2 $-1 $22 forward single #
loop $-1 $-1 $23 $7 #
plane-surface $-1 -75 -86.60250000000002 20 0 1 0 0 0 -1 0 #
loop $-1 $-1 $24 $4 #
coedge $-1 $25 $26 $27 $28 1 $8 $-1 #
coedge $-1 $29 $10 $26 $30 0 $5 $-1 #
coedge $-1 $10 $29 $31 $32 1 $5 $-1 #
coedge $-1 $33 $27 $10 $19 0 $34 $-1 #
edge $-1 $35 $36 $18 $37 0 #
face $-1 $38 $39 $2 $-1 $40 forward single #
loop $-1 $34 $41 $11 #
cone-surface $-1 0 0 0 0 0 1 100 0 0 1 0 1 0 #
coedge $-1 $42 $43 $44 $45 1 $12 $-1 #
coedge $-1 $24 $24 $46 $47 1 $14 $-1 #
coedge $-1 $48 $15 $43 $49 1 $8 $-1 #
coedge $-1 $15 $48 $16 $30 1 $8 $-1 #
coedge $-1 $18 $44 $15 $28 0 $34 $-1 #
edge $-1 $50 $35 $27 $51 0 #
coedge $-1 $17 $16 $52 $53 0 $5 $-1 #
edge $-1 $35 $54 $16 $55 0 #
coedge $-1 $56 $57 $17 $32 0 $39 $-1 #
edge $-1 $36 $58 $31 $59 0 #
coedge $-1 $60 $18 $57 $61 0 $34 $-1 #
loop $-1 $-1 $44 $11 #
vertex $-1 $28 $62 #
vertex $-1 $61 $63 #
straight-curve $-1 -50.000069937451052 86.60250000000002 0 0 0 1 #
face $-1 $64 $65 $2 $-1 $66 forward single #
loop $-1 $-1 $31 $20 #
plane-surface $-1 -75 0 25 0 0 1 1 0 0 0 #
coedge $-1 $67 $68 $69 $70 0 $21 $-1 #
coedge $-1 $71 $23 $72 $73 1 $12 $-1 #
coedge $-1 $23 $71 $25 $49 0 $12 $-1 #
coedge $-1 $27 $74 $23 $45 0 $34 $-1 #
edge $-1 $75 $50 $44 $76 0 #
coedge $-1 $46 $46 $24 $47 0 $77 $-1 #
edge $-1 $78 $78 $46 $79 0 #
coedge $-1 $26 $25 $80 $81 1 $8 $-1 #
edge $-1 $82 $50 $43 $83 0 #
vertex $-1 $28 $84 #
ellipse-curve $-1 0 0 15 0 0 -1 100 0 0 1 #
coedge $-1 $80 $85 $29 $53 1 $86 $-1 #
edge $-1 $54 $58 $29 $87 0 #
vertex $-1 $30 $88 #
straight-curve $-1 -75 86.60250000000002 15 1 0 0 #
coedge $-1 $57 $31 $85 $89 1 $39 $-1 #
coedge $-1 $31 $56 $33 $61 1 $39 $-1 #
vertex $-1 $53 $90 #
straight-curve $-1 -75 86.60250000000002 25 1 0 0 #
coedge $-1 $91 $33 $92 $93 0 $34 $-1 #
edge $-1 $36 $94 $33 $95 0 #
point $-1 -50.000069937451052 86.60250000000002 15 #
point $-1 -50.000069937451052 86.60250000000002 25 #
face $-1 $96 $97 $2 $-1 $98 forward single #
loop $-1 $-1 $99 $38 #
plane-surface $-1 75 -86.60250000000002 -20 0 1 0 0 0 -1 0 #
coedge $-1 $100 $41 $101 $102 0 $21 $-1 #
coedge $-1 $41 $103 $104 $105 0 $21 $-1 #
coedge $-1 $106 $107 $41 $70 1 $108 $-1 #
edge $-1 $109 $110 $41 $111 0 #
coedge $-1 $43 $42 $112 $113 1 $12 $-1 #
coedge $-1 $114 $115 $42 $73 0 $116 $-1 #
edge $-1 $117 $75 $72 $118 0 #
coedge $-1 $44 $119 $114 $120 0 $34 $-1 #
vertex $-1 $73 $121 #
straight-curve $-1 -50.000069937451052 -86.60250000000002 0 0 0 -1 #
loop $-1 $122 $46 $123 #
vertex $-1 $47 $124 #
ellipse-curve $-1 -75 0 15 0 0 1 10 0 0 1 #
coedge $-1 $112 $52 $48 $81 0 $86 $-1 #
edge $-1 $54 $82 $80 $125 0 #
vertex $-1 $49 $126 #
straight-curve $-1 -75 -86.60250000000002 15 -1 0 0 #
point $-1 -50.000069937451052 -86.60250000000002 15 #
coedge $-1 $52 $92 $56 $89 0 $86 $-1 #
loop $-1 $-1 $92 $127 #
straight-curve $-1 -50 86.60250000000002 20 0 0 1 #
point $-1 -50 86.60250000000002 15 #
edge $-1 $94 $58 $85 $128 0 #
point $-1 -50 86.60250000000002 25 #
coedge $-1 $129 $60 $130 $131 1 $34 $-1 #
coedge $-1 $85 $132 $60 $93 1 $86 $-1 #
edge $-1 $94 $133 $60 $134 0 #
vertex $-1 $61 $135 #
ellipse-curve $-1 0 0 25 0 0 -1 100 0 0 1 #
face $-1 $136 $108 $2 $-1 $137 forward single #
loop $-1 $138 $104 $64 #
plane-surface $-1 75 0 -15 0 0 -1 0 -1 0 0 #
coedge $-1 $139 $140 $103 $141 1 $65 $-1 #
coedge $-1 $142 $67 $143 $144 0 $21 $-1 #
coedge $-1 $145 $146 $67 $102 1 $147 $-1 #
edge $-1 $110 $148 $67 $149 0 #
coedge $-1 $68 $150 $99 $141 0 $21 $-1 #
coedge $-1 $151 $152 $68 $105 1 $97 $-1 #
edge $-1 $153 $109 $68 $154 0 #
coedge $-1 $155 $69 $152 $156 0 $108 $-1 #
coedge $-1 $69 $155 $145 $157 1 $108 $-1 #
loop $-1 $-1 $69 $96 #
vertex $-1 $105 $158 #
vertex $-1 $102 $159 #
straight-curve $-1 50.000069937451052 86.60250000000002 0 0 0 -1 #
coedge $-1 $160 $80 $71 $113 0 $86 $-1 #
edge $-1 $82 $117 $71 $161 0 #
coedge $-1 $115 $72 $74 $120 1 $116 $-1 #
coedge $-1 $72 $114 $160 $162 1 $116 $-1 #
loop $-1 $-1 $72 $163 #
vertex $-1 $162 $164 #
straight-curve $-1 -75 -86.60250000000002 25 -1 0 0 #
coedge $-1 $74 $165 $166 $167 0 $34 $-1 #
edge $-1 $168 $75 $74 $95 0 #
point $-1 -50.000069937451052 -86.60250000000002 25 #
loop $-1 $-1 $169 $123 #
face $-1 $170 $77 $2 $-1 $171 reversed single #
point $-1 -85 6.9829667222187641e-014 15 #
straight-curve $-1 -50 0 15 0 -1 0 #
point $-1 -50 -86.60250000000002 15 #
face $-1 $172 $173 $2 $-1 $174 forward single #
straight-curve $-1 -50 0 25 0 -1 0 #
coedge $-1 $175 $91 $176 $177 0 $34 $-1 #
coedge $-1 $178 $179 $91 $131 0 $180 $-1 #
edge $-1 $181 $133 $130 $182 0 #
coedge $-1 $92 $166 $178 $183 1 $86 $-1 #
vertex $-1 $131 $184 #
straight-curve $-1 -50 86.602540378443905 0 0 0 1 #
point $-1 -50 86.602540378443905 25 #
face $-1 $185 $186 $2 $-1 $187 reversed single #
plane-surface $-1 75 86.60250000000002 -20 0 -1 0 0 0 1 0 #
loop $-1 $-1 $188 $64 #
coedge $-1 $189 $99 $190 $191 1 $65 $-1 #
coedge $-1 $99 $189 $151 $192 0 $65 $-1 #
edge $-1 $193 $153 $103 $194 0 #
coedge $-1 $195 $100 $196 $197 1 $21 $-1 #
coedge $-1 $198 $199 $100 $144 1 $200 $-1 #
edge $-1 $148 $201 $100 $202 0 #
coedge $-1 $146 $101 $107 $157 0 $147 $-1 #
coedge $-1 $101 $145 $198 $203 1 $147 $-1 #
loop $-1 $-1 $145 $204 #
vertex $-1 $102 $205 #
ellipse-curve $-1 0 0 -25 0 0 1 100 0 0 1 #
coedge $-1 $103 $206 $207 $208 0 $21 $-1 #
coedge $-1 $209 $104 $140 $192 1 $97 $-1 #
coedge $-1 $104 $209 $106 $156 1 $97 $-1 #
vertex $-1 $105 $210 #
ellipse-curve $-1 0 0 -15 0 0 1 100 0 0 1 #
coedge $-1 $107 $106 $211 $212 1 $108 $-1 #
edge $-1 $109 $213 $106 $214 0 #
edge $-1 $110 $215 $145 $216 0 #
point $-1 50.000069937451052 86.60250000000002 -15 #
point $-1 50.000069937451052 86.60250000000002 -25 #
coedge $-1 $166 $112 $115 $162 0 $86 $-1 #
straight-curve $-1 -50 -86.60250000000002 20 0 0 1 #
edge $-1 $117 $168 $160 $128 0 #
face $-1 $127 $116 $2 $-1 $40 forward single #
point $-1 -50 -86.60250000000002 25 #
coedge $-1 $119 $217 $218 $219 1 $34 $-1 #
coedge $-1 $132 $160 $119 $167 1 $86 $-1 #
edge $-1 $220 $168 $119 $221 0 #
vertex $-1 $120 $222 #
coedge $-1 $169 $169 $223 $224 0 $122 $-1 #
face $-1 $225 $226 $2 $-1 $227 reversed single #
cone-surface $-1 -75 0 0 0 0 1 10 0 0 1 0 1 0 #
face $-1 $228 $229 $2 $-1 $230 reversed single #
loop $-1 $231 $232 $127 #
plane-surface $-1 -50 0 50 -1 0 0 0 0 1 0 #
coedge $-1 $233 $129 $234 $235 0 $34 $-1 #
coedge $-1 $236 $237 $129 $177 1 $238 $-1 #
edge $-1 $181 $239 $129 $240 0 #
coedge $-1 $218 $130 $132 $183 0 $180 $-1 #
coedge $-1 $130 $241 $236 $242 0 $180 $-1 #
loop $-1 $-1 $243 $244 #
vertex $-1 $242 $245 #
ellipse-curve $-1 0 0 75 0 0 1 100 0 0 1 #
edge $-1 $133 $220 $178 $246 0 #
point $-1 -50 86.602540378443905 75 #
face $-1 $247 $248 $2 $-1 $249 forward single #
loop $-1 $-1 $190 $136 #
plane-surface $-1 75 0 -25 0 0 1 1 0 0 0 #
coedge $-1 $188 $188 $250 $251 1 $138 $-1 #
coedge $-1 $140 $139 $252 $253 0 $65 $-1 #
coedge $-1 $207 $254 $139 $191 0 $186 $-1 #
edge $-1 $255 $193 $190 $256 0 #
edge $-1 $257 $153 $140 $258 0 #
vertex $-1 $141 $259 #
straight-curve $-1 50.000069937451052 -86.60250000000002 0 0 0 1 #
coedge $-1 $260 $142 $261 $262 0 $21 $-1 #
coedge $-1 $263 $264 $142 $197 0 $265 $-1 #
edge $-1 $266 $201 $196 $267 0 #
coedge $-1 $211 $143 $146 $203 0 $200 $-1 #
coedge $-1 $143 $268 $263 $269 1 $200 $-1 #
loop $-1 $-1 $268 $270 #
vertex $-1 $197 $271 #
straight-curve $-1 50 86.602540378443905 0 0 0 -1 #
edge $-1 $148 $215 $198 $272 0 #
face $-1 $270 $147 $2 $-1 $187 reversed single #
point $-1 50 86.602540378443905 -25 #
coedge $-1 $150 $273 $268 $274 0 $21 $-1 #
coedge $-1 $254 $190 $150 $208 1 $186 $-1 #
edge $-1 $275 $193 $150 $149 0 #
coedge $-1 $152 $151 $276 $277 1 $97 $-1 #
point $-1 50.000069937451052 -86.60250000000002 -15 #
coedge $-1 $276 $198 $155 $212 0 $200 $-1 #
edge $-1 $215 $213 $211 $278 0 #
vertex $-1 $277 $279 #
straight-curve $-1 75 86.60250000000002 -15 -1 0 0 #
vertex $-1 $212 $280 #
straight-curve $-1 75 86.60250000000002 -25 -1 0 0 #
coedge $-1 $165 $281 $282 $283 0 $34 $-1 #
coedge $-1 $243 $178 $165 $219 0 $180 $-1 #
edge $-1 $220 $284 $218 $182 0 #
vertex $-1 $167 $285 #
straight-curve $-1 -50 -86.602540378443905 0 0 0 -1 #
point $-1 -50 -86.602540378443905 25 #
coedge $-1 $223 $223 $169 $224 1 $286 $-1 #
edge $-1 $287 $287 $169 $288 0 #
face $-1 $289 $290 $2 $-1 $291 forward single #
loop $-1 $292 $250 $170 #
cone-surface $-1 75 0 0 0 0 1 10 0 0 1 0 1 0 #
face $-1 $204 $293 $2 $-1 $294 forward single #
loop $-1 $-1 $295 $172 #
plane-surface $-1 -75 0 -25 0 0 1 1 0 0 0 #
loop $-1 $86 $296 $127 #
coedge $-1 $232 $232 $297 $298 0 $173 $-1 #
coedge $-1 $299 $175 $300 $301 0 $34 $-1 #
coedge $-1 $302 $303 $175 $235 1 $304 $-1 #
edge $-1 $239 $305 $175 $306 0 #
coedge $-1 $307 $176 $179 $242 1 $238 $-1 #
coedge $-1 $176 $308 $302 $309 0 $238 $-1 #
loop $-1 $-1 $176 $310 #
vertex $-1 $235 $311 #
straight-curve $-1 -27.5 96.144422615147107 0 0 0 -1 #
coedge $-1 $179 $243 $312 $313 0 $180 $-1 #
edge $-1 $314 $181 $179 $315 0 #
coedge $-1 $241 $218 $316 $317 0 $180 $-1 #
face $-1 $318 $180 $2 $-1 $319 forward single #
point $-1 -27.5 96.144422615147107 75 #
straight-curve $-1 -50 0 75 0 -1 0 #
face $-1 $320 $321 $2 $-1 $322 reversed single #
loop $-1 $-1 $323 $185 #
plane-surface $-1 75 -86.60250000000002 20 0 1 0 0 0 -1 0 #
coedge $-1 $250 $250 $188 $251 0 $226 $-1 #
edge $-1 $324 $324 $250 $325 0 #
coedge $-1 $326 $276 $189 $253 1 $200 $-1 #
edge $-1 $255 $257 $189 $327 0 #
coedge $-1 $190 $207 $326 $328 1 $186 $-1 #
vertex $-1 $328 $329 #
straight-curve $-1 75 -86.60250000000002 -25 1 0 0 #
vertex $-1 $192 $330 #
straight-curve $-1 75 -86.60250000000002 -15 1 0 0 #
point $-1 50.000069937451052 -86.60250000000002 -25 #
coedge $-1 $331 $195 $332 $333 0 $21 $-1 #
coedge $-1 $334 $335 $195 $262 1 $293 $-1 #
edge $-1 $266 $336 $195 $337 0 #
coedge $-1 $338 $196 $199 $269 0 $265 $-1 #
coedge $-1 $196 $338 $334 $339 0 $265 $-1 #
loop $-1 $-1 $264 $340 #
vertex $-1 $339 $341 #
ellipse-curve $-1 0 0 -75 0 0 -1 100 0 0 1 #
coedge $-1 $199 $326 $206 $274 1 $200 $-1 #
edge $-1 $201 $342 $263 $343 0 #
face $-1 $344 $200 $2 $-1 $345 forward single #
point $-1 50 86.602540378443905 -75 #
straight-curve $-1 50 0 -25 0 -1 0 #
coedge $-1 $206 $346 $338 $347 1 $21 $-1 #
edge $-1 $342 $275 $206 $348 0 #
vertex $-1 $208 $349 #
coedge $-1 $252 $211 $209 $277 0 $200 $-1 #
edge $-1 $213 $257 $276 $350 0 #
straight-curve $-1 50 86.60250000000002 -20 0 0 1 #
point $-1 50 86.60250000000002 -15 #
point $-1 50 86.60250000000002 -25 #
coedge $-1 $217 $351 $352 $353 0 $34 $-1 #
coedge $-1 $354 $316 $217 $283 1 $355 $-1 #
edge $-1 $356 $284 $217 $357 0 #
vertex $-1 $219 $358 #
point $-1 -50 -86.602540378443905 75 #
loop $-1 $-1 $223 $359 #
vertex $-1 $224 $360 #
ellipse-curve $-1 -75 0 -15 0 0 -1 10 0 0 1 #
face $-1 $361 $362 $2 $-1 $363 forward single #
loop $-1 $-1 $364 $225 #
plane-surface $-1 27.5 0 62.5 -1 0 0 0 0 1 0 #
loop $-1 $-1 $365 $170 #
loop $-1 $-1 $261 $228 #
plane-surface $-1 -50 0 -50 -1 0 0 0 0 1 0 #
coedge $-1 $366 $367 $368 $369 0 $229 $-1 #
coedge $-1 $296 $296 $370 $371 0 $231 $-1 #
coedge $-1 $297 $297 $232 $298 1 $372 $-1 #
edge $-1 $373 $373 $232 $374 0 #
coedge $-1 $375 $233 $376 $377 0 $34 $-1 #
coedge $-1 $378 $379 $233 $301 1 $380 $-1 #
edge $-1 $305 $381 $233 $382 0 #
coedge $-1 $383 $234 $237 $309 1 $304 $-1 #
coedge $-1 $234 $383 $378 $384 1 $304 $-1 #
loop $-1 $-1 $234 $385 #
vertex $-1 $235 $386 #
ellipse-curve $-1 0 0 50 0 0 -1 100 0 0 1 #
coedge $-1 $387 $236 $388 $389 1 $238 $-1 #
coedge $-1 $237 $387 $390 $391 1 $238 $-1 #
edge $-1 $392 $239 $237 $393 0 #
face $-1 $394 $238 $2 $-1 $395 forward single #
point $-1 -27.5 96.144422615147107 50 #
coedge $-1 $396 $388 $241 $313 1 $397 $-1 #
edge $-1 $398 $314 $241 $399 0 #
vertex $-1 $313 $400 #
straight-curve $-1 -27.5 0 75 0 1 0 #
coedge $-1 $282 $401 $243 $317 1 $355 $-1 #
edge $-1 $284 $398 $243 $315 0 #
face $-1 $402 $403 $2 $-1 $404 reversed single #
plane-surface $-1 0 0 75 0 0 1 1 0 0 0 #
face $-1 $405 $406 $2 $-1 $407 forward single #
loop $-1 $408 $409 $247 #
plane-surface $-1 75 0 15 0 0 -1 0 -1 0 0 #
coedge $-1 $410 $411 $412 $413 1 $248 $-1 #
vertex $-1 $251 $414 #
ellipse-curve $-1 75 0 -15 0 0 -1 10 0 0 1 #
coedge $-1 $268 $252 $254 $328 0 $200 $-1 #
straight-curve $-1 50 -86.60250000000002 -20 0 0 1 #
edge $-1 $255 $275 $326 $272 0 #
point $-1 50 -86.60250000000002 -25 #
point $-1 50 -86.60250000000002 -15 #
coedge $-1 $415 $260 $416 $417 0 $21 $-1 #
coedge $-1 $418 $419 $260 $333 1 $420 $-1 #
edge $-1 $336 $421 $260 $422 0 #
coedge $-1 $423 $261 $264 $339 1 $293 $-1 #
coedge $-1 $261 $424 $418 $425 0 $293 $-1 #
vertex $-1 $333 $426 #
straight-curve $-1 -50 86.602540378443905 0 0 0 1 #
coedge $-1 $264 $263 $273 $347 0 $265 $-1 #
edge $-1 $427 $266 $264 $428 0 #
face $-1 $-1 $429 $2 $-1 $430 forward single #
point $-1 -50 86.602540378443905 -75 #
vertex $-1 $269 $431 #
straight-curve $-1 50 0 -75 0 -1 0 #
face $-1 $432 $433 $2 $-1 $434 forward single #
plane-surface $-1 50 0 -50 1 0 0 0 0 -1 0 #
coedge $-1 $273 $435 $423 $436 0 $21 $-1 #
edge $-1 $342 $427 $338 $267 0 #
straight-curve $-1 50 -86.602540378443905 0 0 0 1 #
point $-1 50 -86.602540378443905 -25 #
straight-curve $-1 50 0 -15 0 -1 0 #
coedge $-1 $281 $437 $438 $439 0 $34 $-1 #
coedge $-1 $440 $441 $281 $353 1 $442 $-1 #
edge $-1 $443 $356 $281 $444 0 #
coedge $-1 $445 $282 $441 $446 0 $355 $-1 #
loop $-1 $-1 $445 $394 #
vertex $-1 $353 $447 #
straight-curve $-1 -27.5 -96.144422615147107 0 0 0 1 #
point $-1 -27.5 -96.144422615147107 75 #
face $-1 $448 $449 $2 $-1 $450 forward single #
point $-1 -85 -6.9829667222187641e-014 -15 #
face $-1 $451 $452 $2 $-1 $363 forward single #
loop $-1 $-1 $453 $289 #
plane-surface $-1 0 0 50 0 0 1 1 0 0 0 #
coedge $-1 $454 $455 $456 $457 1 $290 $-1 #
coedge $-1 $365 $365 $458 $459 0 $292 $-1 #
coedge $-1 $367 $295 $460 $461 1 $229 $-1 #
coedge $-1 $295 $366 $435 $462 1 $229 $-1 #
coedge $-1 $463 $464 $295 $369 1 $465 $-1 #
edge $-1 $466 $467 $295 $468 0 #
coedge $-1 $370 $370 $296 $371 1 $469 $-1 #
edge $-1 $470 $470 $296 $471 0 #
loop $-1 $-1 $297 $472 #
vertex $-1 $298 $473 #
ellipse-curve $-1 -50 -50 49.999999999999801 1 0 0 -3.4914813388431302e-014 0 -10 1 #
coedge $-1 $474 $299 $475 $476 0 $34 $-1 #
coedge $-1 $477 $475 $299 $377 1 $478 $-1 #
edge $-1 $381 $479 $299 $480 0 #
coedge $-1 $481 $300 $303 $384 0 $380 $-1 #
coedge $-1 $300 $482 $477 $483 0 $380 $-1 #
loop $-1 $-1 $378 $402 #
vertex $-1 $377 $484 #
straight-curve $-1 -20 97.979589711327094 0 0 0 -1 #
coedge $-1 $303 $302 $485 $486 1 $304 $-1 #
edge $-1 $305 $487 $378 $488 0 #
face $-1 $489 $304 $2 $-1 $363 forward single #
point $-1 -20 97.979589711327094 50 #
coedge $-1 $308 $307 $490 $491 0 $238 $-1 #
coedge $-1 $312 $492 $307 $389 0 $397 $-1 #
edge $-1 $493 $314 $388 $494 0 #
coedge $-1 $495 $485 $308 $391 0 $496 $-1 #
edge $-1 $392 $497 $390 $498 0 #
vertex $-1 $486 $499 #
straight-curve $-1 -27.5 0 50 0 1 0 #
face $-1 $500 $355 $2 $-1 $395 forward single #
plane-surface $-1 -27.5 0 62.5 1 0 0 0 0 -1 0 #
coedge $-1 $501 $312 $401 $502 0 $397 $-1 #
loop $-1 $-1 $396 $318 #
vertex $-1 $502 $503 #
ellipse-curve $-1 0 0 75 0 0 -1 37.5 0 0 1 #
point $-1 -27.5 25.495097567963899 75 #
coedge $-1 $316 $504 $396 $502 1 $355 $-1 #
face $-1 $472 $380 $2 $-1 $505 forward single #
loop $-1 $397 $506 $318 #
cone-surface $-1 0 0 0 0 0 1 37.5 0 0 1 0 1 0 #
face $-1 $507 $508 $2 $-1 $434 forward single #
loop $-1 $-1 $509 $320 #
plane-surface $-1 75 86.60250000000002 20 0 -1 0 0 0 1 0 #
loop $-1 $-1 $458 $247 #
coedge $-1 $510 $511 $512 $513 1 $321 $-1 #
coedge $-1 $514 $323 $511 $515 0 $248 $-1 #
coedge $-1 $323 $514 $516 $517 1 $248 $-1 #
coedge $-1 $518 $512 $323 $413 0 $34 $-1 #
edge $-1 $519 $520 $412 $521 0 #
point $-1 65 -6.9829667222187641e-014 -15 #
coedge $-1 $522 $331 $523 $524 0 $21 $-1 #
coedge $-1 $525 $526 $331 $417 1 $527 $-1 #
edge $-1 $421 $528 $331 $529 0 #
coedge $-1 $419 $332 $335 $425 1 $420 $-1 #
coedge $-1 $332 $418 $525 $530 0 $420 $-1 #
loop $-1 $-1 $419 $531 #
vertex $-1 $417 $532 #
ellipse-curve $-1 0 0 -25 0 0 1 100 0 0 1 #
coedge $-1 $460 $334 $346 $436 1 $293 $-1 #
coedge $-1 $335 $533 $534 $535 1 $293 $-1 #
edge $-1 $536 $336 $335 $537 0 #
point $-1 -50 86.602540378443905 -25 #
vertex $-1 $347 $538 #
straight-curve $-1 -50 0 -75 0 1 0 #
loop $-1 $265 $539 $340 #
plane-surface $-1 0 0 -75 0 0 -1 -1 0 0 0 #
point $-1 50 -86.602540378443905 -75 #
face $-1 $340 $540 $2 $-1 $541 forward single #
loop $-1 $-1 $542 $344 #
plane-surface $-1 75 0 25 0 0 1 1 0 0 0 #
coedge $-1 $346 $522 $367 $462 0 $21 $-1 #
edge $-1 $543 $427 $346 $544 0 #
coedge $-1 $351 $545 $546 $547 0 $34 $-1 #
coedge $-1 $548 $549 $351 $439 1 $550 $-1 #
edge $-1 $551 $443 $351 $552 0 #
coedge $-1 $553 $352 $549 $554 1 $442 $-1 #
coedge $-1 $352 $553 $354 $446 1 $442 $-1 #
loop $-1 $-1 $553 $555 #
vertex $-1 $439 $556 #
ellipse-curve $-1 0 0 50 0 0 -1 100 0 0 1 #
coedge $-1 $504 $354 $557 $558 1 $355 $-1 #
edge $-1 $356 $559 $354 $393 0 #
point $-1 -27.5 -96.144422615147107 50 #
face $-1 $531 $465 $2 $-1 $560 forward single #
loop $-1 $286 $523 $359 #
plane-surface $-1 -75 0 -15 0 0 -1 0 -1 0 0 #
face $-1 $561 $562 $2 $-1 $363 forward single #
loop $-1 $-1 $563 $361 #
coedge $-1 $564 $565 $566 $567 1 $362 $-1 #
coedge $-1 $568 $364 $569 $570 0 $290 $-1 #
coedge $-1 $364 $571 $572 $573 0 $290 $-1 #
coedge $-1 $574 $575 $364 $457 0 $576 $-1 #
edge $-1 $577 $578 $456 $579 0 #
coedge $-1 $458 $458 $365 $459 1 $408 $-1 #
edge $-1 $580 $580 $365 $581 0 #
coedge $-1 $582 $423 $366 $461 0 $293 $-1 #
edge $-1 $543 $467 $460 $537 0 #
edge $-1 $466 $543 $435 $422 0 #
coedge $-1 $583 $368 $522 $584 1 $465 $-1 #
coedge $-1 $368 $583 $582 $585 1 $465 $-1 #
loop $-1 $-1 $463 $448 #
vertex $-1 $462 $586 #
vertex $-1 $585 $587 #
straight-curve $-1 -75 -86.60250000000002 -25 1 0 0 #
loop $-1 $496 $370 $588 #
vertex $-1 $371 $589 #
ellipse-curve $-1 -50 50 49.999999999999801 1 0 0 -3.4914813388431302e-014 0 -10 1 #
face $-1 $590 $591 $2 $-1 $592 reversed single #
point $-1 -50 -49.999999999999901 59.999999999999801 #
coedge $-1 $593 $375 $594 $595 0 $34 $-1 #
coedge $-1 $376 $596 $375 $476 1 $478 $-1 #
edge $-1 $479 $597 $375 $480 0 #
coedge $-1 $598 $376 $379 $483 1 $478 $-1 #
loop $-1 $-1 $598 $599 #
vertex $-1 $377 $600 #
ellipse-curve $-1 0 0 0 0 0 -1 100 0 0 1 #
coedge $-1 $601 $378 $602 $603 0 $380 $-1 #
coedge $-1 $379 $601 $604 $605 0 $380 $-1 #
edge $-1 $606 $381 $379 $607 0 #
point $-1 -20 97.979589711327094 0 #
coedge $-1 $390 $602 $383 $486 0 $496 $-1 #
edge $-1 $487 $392 $485 $608 0 #
vertex $-1 $486 $609 #
straight-curve $-1 -20 0 50 0 -1 0 #
face $-1 $610 $611 $2 $-1 $363 forward single #
coedge $-1 $612 $613 $387 $491 1 $611 $-1 #
edge $-1 $493 $497 $387 $393 0 #
coedge $-1 $388 $604 $612 $614 0 $397 $-1 #
vertex $-1 $614 $615 #
straight-curve $-1 -27.5 25.495097567963899 0 0 0 1 #
coedge $-1 $602 $390 $613 $616 0 $496 $-1 #
loop $-1 $-1 $485 $588 #
vertex $-1 $616 $617 #
ellipse-curve $-1 -27.5 50 49.999999999999702 1 0 0 -3.4914813388431302e-014 0 -10 1 #
point $-1 -27.5 60 50 #
face $-1 $618 $619 $2 $-1 $291 forward single #
coedge $-1 $620 $396 $621 $622 0 $397 $-1 #
edge $-1 $398 $623 $396 $624 0 #
point $-1 -27.5 -25.495097567963899 75 #
coedge $-1 $401 $445 $625 $626 0 $355 $-1 #
plane-surface $-1 -20 0 37.5 1 0 0 0 0 -1 0 #
coedge $-1 $506 $506 $539 $627 1 $403 $-1 #
face $-1 $359 $527 $2 $-1 $628 forward single #
loop $-1 $-1 $516 $405 #
coedge $-1 $629 $630 $631 $632 1 $406 $-1 #
coedge $-1 $633 $409 $630 $634 1 $321 $-1 #
coedge $-1 $409 $633 $410 $515 1 $321 $-1 #
coedge $-1 $412 $631 $409 $513 0 $34 $-1 #
edge $-1 $635 $519 $512 $636 0 #
coedge $-1 $411 $410 $637 $638 0 $248 $-1 #
edge $-1 $519 $639 $410 $640 0 #
coedge $-1 $641 $642 $411 $517 0 $508 $-1 #
edge $-1 $520 $643 $516 $644 0 #
coedge $-1 $645 $412 $642 $646 0 $34 $-1 #
vertex $-1 $513 $647 #
vertex $-1 $646 $648 #
straight-curve $-1 50.000069937451052 -86.60250000000002 0 0 0 1 #
coedge $-1 $435 $415 $463 $584 0 $21 $-1 #
coedge $-1 $649 $650 $415 $524 1 $449 $-1 #
edge $-1 $528 $651 $415 $652 0 #
coedge $-1 $534 $416 $419 $530 1 $527 $-1 #
coedge $-1 $416 $534 $649 $653 0 $527 $-1 #
loop $-1 $-1 $416 $507 #
vertex $-1 $524 $654 #
straight-curve $-1 -50.000069937451052 86.60250000000002 0 0 0 1 #
edge $-1 $536 $421 $419 $655 0 #
face $-1 $123 $420 $2 $-1 $230 reversed single #
point $-1 -50.000069937451052 86.60250000000002 -25 #
coedge $-1 $424 $582 $656 $657 0 $293 $-1 #
coedge $-1 $526 $525 $424 $535 0 $527 $-1 #
edge $-1 $536 $658 $534 $659 0 #
vertex $-1 $425 $660 #
straight-curve $-1 -50 0 -25 0 1 0 #
point $-1 -50 -86.602540378443905 -75 #
coedge $-1 $539 $539 $506 $627 0 $429 $-1 #
loop $-1 $661 $662 $432 #
plane-surface $-1 50 0 50 1 0 0 0 0 -1 0 #
coedge $-1 $663 $664 $629 $665 0 $433 $-1 #
vertex $-1 $462 $666 #
straight-curve $-1 -50 -86.602540378443905 0 0 0 -1 #
coedge $-1 $437 $667 $668 $669 0 $34 $-1 #
coedge $-1 $668 $670 $437 $547 1 $671 $-1 #
edge $-1 $672 $551 $437 $673 0 #
coedge $-1 $674 $438 $670 $675 0 $550 $-1 #
coedge $-1 $438 $676 $440 $554 0 $550 $-1 #
loop $-1 $-1 $549 $618 #
vertex $-1 $547 $677 #
straight-curve $-1 -20 -97.979589711327094 0 0 0 1 #
coedge $-1 $441 $440 $678 $679 1 $442 $-1 #
edge $-1 $680 $443 $549 $681 0 #
face $-1 $310 $442 $2 $-1 $363 forward single #
point $-1 -20 -97.979589711327094 50 #
coedge $-1 $678 $682 $445 $558 0 $591 $-1 #
edge $-1 $683 $559 $557 $684 0 #
vertex $-1 $679 $685 #
plane-surface $-1 -75 -86.60250000000002 -20 0 1 0 0 0 -1 0 #
face $-1 $385 $686 $2 $-1 $363 forward single #
loop $-1 $-1 $687 $451 #
coedge $-1 $688 $689 $690 $691 1 $452 $-1 #
coedge $-1 $692 $453 $693 $694 1 $362 $-1 #
coedge $-1 $453 $692 $695 $696 1 $362 $-1 #
coedge $-1 $667 $697 $453 $567 0 $34 $-1 #
edge $-1 $698 $699 $566 $444 0 #
coedge $-1 $700 $454 $701 $702 1 $290 $-1 #
coedge $-1 $687 $703 $454 $570 1 $562 $-1 #
edge $-1 $577 $704 $454 $705 0 #
coedge $-1 $455 $700 $706 $707 1 $290 $-1 #
coedge $-1 $708 $709 $455 $573 1 $686 $-1 #
edge $-1 $710 $578 $455 $705 0 #
coedge $-1 $711 $456 $709 $712 0 $576 $-1 #
coedge $-1 $456 $711 $687 $713 0 $576 $-1 #
loop $-1 $714 $574 $590 #
vertex $-1 $713 $715 #
vertex $-1 $712 $716 #
ellipse-curve $-1 27.5 50 50.000000000000298 -1 0 0 -5.2372220082647e-014 0 -15 1 #
vertex $-1 $459 $717 #
ellipse-curve $-1 75 0 15 0 0 1 10 0 0 1 #
coedge $-1 $533 $460 $464 $585 0 $293 $-1 #
coedge $-1 $464 $463 $650 $718 0 $465 $-1 #
edge $-1 $651 $466 $522 $719 0 #
edge $-1 $467 $720 $464 $721 0 #
point $-1 -50.000069937451052 -86.60250000000002 -25 #
point $-1 -50 -86.60250000000002 -25 #
face $-1 $244 $469 $2 $-1 $722 reversed single #
point $-1 -50 50.000000000000099 59.999999999999801 #
face $-1 $723 $576 $2 $-1 $724 reversed single #
loop $-1 $372 $678 $472 #
cone-surface $-1 -100 -50 50 1 0 -3.4914813388431298e-015 -3.4914813388431302e-014 0 -10 1 0 1 0 #
coedge $-1 $706 $474 $708 $725 0 $34 $-1 #
coedge $-1 $726 $727 $474 $595 1 $728 $-1 #
edge $-1 $597 $729 $474 $730 0 #
coedge $-1 $475 $598 $726 $731 1 $478 $-1 #
vertex $-1 $476 $732 #
coedge $-1 $596 $477 $733 $734 0 $478 $-1 #
face $-1 $735 $478 $2 $-1 $736 forward single #
point $-1 0 100 0 #
coedge $-1 $482 $481 $737 $738 0 $380 $-1 #
coedge $-1 $485 $495 $481 $603 1 $496 $-1 #
edge $-1 $487 $739 $481 $740 0 #
coedge $-1 $492 $733 $482 $605 1 $397 $-1 #
edge $-1 $741 $606 $482 $742 0 #
vertex $-1 $734 $743 #
straight-curve $-1 -20 0 0 0 1 0 #
straight-curve $-1 -100 60 50 -1 0 3.4914813388431298e-015 #
point $-1 -20 60 50 #
face $-1 $555 $744 $2 $-1 $363 forward single #
loop $-1 $-1 $613 $489 #
coedge $-1 $737 $490 $492 $614 1 $611 $-1 #
coedge $-1 $490 $737 $495 $616 1 $611 $-1 #
edge $-1 $741 $493 $492 $745 0 #
point $-1 -27.5 25.495097567963899 50 #
edge $-1 $497 $739 $495 $746 0 #
point $-1 -27.5 40 50 #
face $-1 $747 $550 $2 $-1 $505 forward single #
loop $-1 $-1 $748 $500 #
coedge $-1 $749 $501 $674 $750 1 $397 $-1 #
coedge $-1 $625 $751 $501 $622 1 $744 $-1 #
edge $-1 $623 $752 $501 $753 0 #
vertex $-1 $622 $754 #
straight-curve $-1 -27.5 -25.495097567963899 0 0 0 -1 #
coedge $-1 $755 $621 $504 $626 1 $744 $-1 #
edge $-1 $683 $623 $504 $393 0 #
edge $-1 $756 $756 $539 $757 0 #
plane-surface $-1 -75 86.60250000000002 -20 0 -1 0 0 0 1 0 #
coedge $-1 $758 $509 $542 $665 1 $406 $-1 #
coedge $-1 $509 $758 $510 $634 0 $406 $-1 #
coedge $-1 $512 $759 $509 $632 0 $34 $-1 #
edge $-1 $760 $635 $631 $761 0 #
coedge $-1 $511 $510 $762 $763 1 $321 $-1 #
edge $-1 $764 $635 $630 $765 0 #
vertex $-1 $513 $766 #
ellipse-curve $-1 0 0 15 0 0 -1 100 0 0 1 #
coedge $-1 $762 $767 $514 $638 1 $768 $-1 #
edge $-1 $639 $643 $514 $769 0 #
vertex $-1 $515 $770 #
straight-curve $-1 75 -86.60250000000002 15 -1 0 0 #
coedge $-1 $642 $516 $767 $771 1 $508 $-1 #
coedge $-1 $516 $641 $518 $646 1 $508 $-1 #
vertex $-1 $638 $772 #
straight-curve $-1 75 -86.60250000000002 25 -1 0 0 #
coedge $-1 $773 $518 $774 $775 0 $34 $-1 #
edge $-1 $520 $776 $518 $777 0 #
point $-1 50.000069937451052 -86.60250000000002 15 #
point $-1 50.000069937451052 -86.60250000000002 25 #
coedge $-1 $656 $523 $526 $653 1 $449 $-1 #
coedge $-1 $523 $656 $583 $718 1 $449 $-1 #
vertex $-1 $524 $778 #
ellipse-curve $-1 0 0 -15 0 0 1 100 0 0 1 #
edge $-1 $658 $528 $526 $779 0 #
point $-1 -50.000069937451052 86.60250000000002 -15 #
straight-curve $-1 -75 86.60250000000002 -25 -1 0 0 #
coedge $-1 $650 $649 $533 $657 1 $449 $-1 #
edge $-1 $720 $658 $533 $780 0 #
vertex $-1 $653 $781 #
straight-curve $-1 -50 86.60250000000002 -20 0 0 1 #
point $-1 -50 86.60250000000002 -25 #
loop $-1 $768 $782 $432 #
coedge $-1 $662 $662 $783 $784 0 $540 $-1 #
coedge $-1 $664 $542 $759 $785 1 $433 $-1 #
coedge $-1 $542 $663 $786 $787 1 $433 $-1 #
edge $-1 $788 $760 $542 $789 0 #
point $-1 -50 -86.602540378443905 -25 #
coedge $-1 $545 $566 $790 $791 0 $34 $-1 #
coedge $-1 $792 $546 $545 $669 1 $671 $-1 #
edge $-1 $793 $672 $545 $673 0 #
coedge $-1 $546 $794 $548 $675 1 $671 $-1 #
loop $-1 $-1 $794 $723 #
vertex $-1 $669 $795 #
ellipse-curve $-1 0 0 0 0 0 -1 100 0 0 1 #
coedge $-1 $796 $548 $620 $750 0 $550 $-1 #
edge $-1 $551 $797 $548 $607 0 #
coedge $-1 $549 $796 $798 $799 0 $550 $-1 #
point $-1 -20 -97.979589711327094 0 #
coedge $-1 $798 $557 $553 $679 0 $591 $-1 #
edge $-1 $559 $680 $678 $800 0 #
vertex $-1 $799 $801 #
straight-curve $-1 -20 0 50 0 -1 0 #
coedge $-1 $557 $798 $755 $802 0 $591 $-1 #
vertex $-1 $802 $803 #
ellipse-curve $-1 -27.5 -50 49.999999999999702 1 0 0 -3.4914813388431302e-014 0 -10 1 #
point $-1 -27.5 -60 50 #
loop $-1 $-1 $709 $561 #
coedge $-1 $804 $569 $575 $713 1 $562 $-1 #
coedge $-1 $805 $563 $806 $807 1 $452 $-1 #
coedge $-1 $563 $805 $808 $809 1 $452 $-1 #
coedge $-1 $810 $811 $563 $691 0 $812 $-1 #
edge $-1 $813 $814 $690 $815 0 #
coedge $-1 $565 $564 $816 $817 1 $362 $-1 #
coedge $-1 $748 $818 $564 $694 0 $619 $-1 #
edge $-1 $819 $698 $693 $705 0 #
coedge $-1 $820 $790 $565 $696 0 $821 $-1 #
edge $-1 $699 $822 $695 $823 0 #
coedge $-1 $566 $773 $748 $824 0 $34 $-1 #
vertex $-1 $567 $825 #
vertex $-1 $567 $826 #
coedge $-1 $571 $568 $827 $828 1 $290 $-1 #
coedge $-1 $829 $830 $568 $702 0 $397 $-1 #
edge $-1 $831 $704 $701 $832 0 #
coedge $-1 $569 $804 $829 $833 1 $562 $-1 #
vertex $-1 $833 $834 #
straight-curve $-1 27.5 0 50 0 -1 0 #
coedge $-1 $835 $593 $571 $707 0 $34 $-1 #
edge $-1 $710 $836 $706 $837 0 #
coedge $-1 $838 $572 $593 $725 1 $686 $-1 #
coedge $-1 $572 $838 $574 $712 1 $686 $-1 #
vertex $-1 $725 $839 #
coedge $-1 $575 $574 $840 $841 1 $576 $-1 #
edge $-1 $578 $842 $574 $843 0 #
edge $-1 $844 $577 $575 $845 0 #
loop $-1 $-1 $783 $590 #
point $-1 27.5 35 50 #
point $-1 27.5 65 50 #
point $-1 65 6.9829667222187641e-014 15 #
edge $-1 $651 $720 $583 $846 0 #
straight-curve $-1 -50.000069937451052 -86.60250000000002 0 0 0 -1 #
vertex $-1 $585 $847 #
straight-curve $-1 -50 -86.60250000000002 -20 0 0 1 #
cone-surface $-1 -100 50 50 1 0 -3.4914813388431298e-015 -3.4914813388431302e-014 0 -10 1 0 1 0 #
face $-1 $599 $671 $2 $-1 $736 forward single #
cone-surface $-1 100 50 50 1 0 -3.4914813388431298e-015 -5.2372220082647e-014 0 -15 1 0 1 0 #
edge $-1 $729 $710 $593 $306 0 #
coedge $-1 $848 $594 $596 $731 0 $728 $-1 #
coedge $-1 $594 $840 $838 $849 0 $728 $-1 #
loop $-1 $-1 $727 $850 #
vertex $-1 $595 $851 #
straight-curve $-1 20 97.979589711327094 0 0 0 1 #
edge $-1 $597 $852 $726 $853 0 #
point $-1 20 97.979589711327094 0 #
coedge $-1 $604 $854 $598 $734 1 $397 $-1 #
edge $-1 $606 $852 $598 $855 0 #
face $-1 $163 $856 $2 $-1 $319 forward single #
plane-surface $-1 0 0 0 0 0 1 1 0 0 0 #
coedge $-1 $613 $612 $601 $738 1 $611 $-1 #
edge $-1 $739 $741 $601 $488 0 #
vertex $-1 $603 $857 #
ellipse-curve $-1 -20 50 49.999999999999702 -1 0 0 -3.4914813388431302e-014 0 -10 1 #
vertex $-1 $614 $858 #
straight-curve $-1 -20 31.721443851123801 0 0 0 -1 #
point $-1 -20 31.721443851123801 0 #
loop $-1 $-1 $755 $610 #
ellipse-curve $-1 0 0 50 0 0 1 37.5 0 0 1 #
straight-curve $-1 -100 40 50 1 0 -3.4914813388431298e-015 #
face $-1 $859 $860 $2 $-1 $861 reversed single #
coedge $-1 $862 $693 $697 $824 1 $619 $-1 #
coedge $-1 $863 $620 $794 $864 1 $397 $-1 #
edge $-1 $797 $752 $674 $865 0 #
coedge $-1 $621 $755 $796 $866 1 $744 $-1 #
vertex $-1 $750 $867 #
ellipse-curve $-1 0 0 50 0 0 1 37.5 0 0 1 #
point $-1 -27.5 -25.495097567963899 50 #
coedge $-1 $751 $625 $682 $802 1 $744 $-1 #
vertex $-1 $627 $868 #
ellipse-curve $-1 0 0 -75 0 0 1 37.5 0 0 1 #
coedge $-1 $630 $629 $869 $870 1 $406 $-1 #
coedge $-1 $631 $871 $663 $785 0 $34 $-1 #
vertex $-1 $665 $872 #
straight-curve $-1 50.000069937451052 86.60250000000002 0 0 0 -1 #
coedge $-1 $869 $637 $633 $763 0 $768 $-1 #
edge $-1 $639 $764 $762 $873 0 #
vertex $-1 $763 $874 #
straight-curve $-1 75 86.60250000000002 15 1 0 0 #
point $-1 50.000069937451052 86.60250000000002 15 #
coedge $-1 $637 $774 $641 $771 0 $768 $-1 #
loop $-1 $-1 $774 $432 #
straight-curve $-1 50 -86.60250000000002 20 0 0 1 #
point $-1 50 -86.60250000000002 15 #
edge $-1 $776 $643 $767 $875 0 #
point $-1 50 -86.60250000000002 25 #
coedge $-1 $697 $645 $876 $877 1 $34 $-1 #
coedge $-1 $767 $878 $645 $775 1 $768 $-1 #
edge $-1 $776 $879 $645 $880 0 #
vertex $-1 $646 $881 #
ellipse-curve $-1 0 0 25 0 0 -1 100 0 0 1 #
point $-1 -50.000069937451052 -86.60250000000002 -15 #
straight-curve $-1 -75 86.60250000000002 -15 -1 0 0 #
straight-curve $-1 -50 0 -15 0 1 0 #
point $-1 -50 86.60250000000002 -15 #
coedge $-1 $782 $782 $882 $883 0 $661 $-1 #
coedge $-1 $783 $783 $662 $784 1 $714 $-1 #
edge $-1 $884 $884 $662 $885 0 #
edge $-1 $886 $760 $759 $777 0 #
coedge $-1 $887 $869 $664 $787 0 $768 $-1 #
edge $-1 $788 $886 $786 $875 0 #
vertex $-1 $787 $888 #
straight-curve $-1 75 86.60250000000002 25 1 0 0 #
coedge $-1 $695 $889 $667 $791 1 $821 $-1 #
edge $-1 $699 $793 $667 $890 0 #
coedge $-1 $794 $668 $889 $891 1 $671 $-1 #
vertex $-1 $669 $892 #
coedge $-1 $670 $792 $749 $864 0 $671 $-1 #
point $-1 0 -100 0 #
coedge $-1 $676 $674 $751 $866 0 $550 $-1 #
vertex $-1 $675 $893 #
coedge $-1 $682 $678 $676 $799 1 $591 $-1 #
edge $-1 $894 $680 $676 $895 0 #
straight-curve $-1 -100 -60 50 1 0 -3.4914813388431298e-015 #
point $-1 -20 -60 50 #
edge $-1 $894 $683 $682 $896 0 #
point $-1 -27.5 -40 50 #
coedge $-1 $703 $687 $897 $898 1 $562 $-1 #
coedge $-1 $689 $688 $899 $900 1 $452 $-1 #
coedge $-1 $818 $901 $688 $807 0 $619 $-1 #
edge $-1 $902 $813 $806 $705 0 #
coedge $-1 $903 $820 $689 $809 0 $821 $-1 #
edge $-1 $814 $904 $808 $823 0 #
coedge $-1 $816 $690 $820 $905 1 $812 $-1 #
coedge $-1 $690 $816 $818 $906 0 $812 $-1 #
loop $-1 $-1 $816 $747 #
vertex $-1 $691 $907 #
vertex $-1 $905 $908 #
straight-curve $-1 100 -35 50 -1 0 3.4914813388431298e-015 #
coedge $-1 $811 $810 $692 $817 0 $812 $-1 #
edge $-1 $822 $819 $816 $909 0 #
coedge $-1 $693 $806 $811 $906 1 $619 $-1 #
vertex $-1 $817 $910 #
coedge $-1 $808 $695 $810 $905 0 $821 $-1 #
loop $-1 $-1 $695 $859 #
vertex $-1 $817 $911 #
straight-curve $-1 20 0 50 0 1 0 #
edge $-1 $912 $698 $697 $913 0 #
point $-1 27.5 -96.144422615147107 50 #
point $-1 20 -97.979589711327094 50 #
coedge $-1 $914 $915 $700 $828 0 $856 $-1 #
edge $-1 $836 $831 $827 $916 0 #
coedge $-1 $854 $701 $703 $833 0 $397 $-1 #
coedge $-1 $701 $917 $914 $918 1 $397 $-1 #
vertex $-1 $702 $919 #
straight-curve $-1 27.5 25.495097567963899 0 0 0 -1 #
edge $-1 $704 $920 $829 $745 0 #
point $-1 27.5 25.495097567963899 50 #
coedge $-1 $871 $706 $915 $921 1 $34 $-1 #
vertex $-1 $921 $922 #
straight-curve $-1 27.5 96.144422615147107 0 0 0 1 #
coedge $-1 $709 $708 $727 $849 1 $686 $-1 #
point $-1 27.5 96.144422615147107 50 #
coedge $-1 $727 $897 $711 $841 0 $728 $-1 #
edge $-1 $844 $842 $840 $923 0 #
vertex $-1 $841 $924 #
straight-curve $-1 100 65 50 -1 0 3.4914813388431298e-015 #
vertex $-1 $898 $925 #
straight-curve $-1 100 35 50 1 0 -3.4914813388431298e-015 #
straight-curve $-1 -75 -86.60250000000002 -15 1 0 0 #
point $-1 -50 -86.60250000000002 -15 #
coedge $-1 $897 $726 $854 $926 0 $728 $-1 #
edge $-1 $842 $729 $727 $927 0 #
face $-1 $588 $728 $2 $-1 $928 forward single #
point $-1 20 97.979589711327094 50 #
vertex $-1 $731 $929 #
straight-curve $-1 20 0 0 0 -1 0 #
coedge $-1 $733 $829 $848 $926 1 $397 $-1 #
ellipse-curve $-1 0 0 0 0 0 -1 37.5 0 0 1 #
loop $-1 $-1 $930 $735 #
point $-1 -20 40 50 #
point $-1 -20 31.721443851123801 50 #
face $-1 $850 $821 $2 $-1 $928 forward single #
loop $-1 $812 $882 $747 #
cone-surface $-1 100 -50 50 1 0 -3.4914813388431298e-015 -5.2372220082647e-014 0 -15 1 0 1 0 #
coedge $-1 $901 $748 $930 $931 1 $619 $-1 #
coedge $-1 $899 $749 $903 $932 1 $397 $-1 #
edge $-1 $933 $797 $794 $934 0 #
straight-curve $-1 -20 -31.721443851123801 0 0 0 1 #
edge $-1 $752 $894 $796 $681 0 #
point $-1 -20 -31.721443851123801 50 #
point $-1 -37.5 2.6186110041323501e-013 -75 #
coedge $-1 $786 $762 $758 $870 0 $768 $-1 #
edge $-1 $764 $788 $869 $935 0 #
coedge $-1 $759 $835 $887 $936 0 $34 $-1 #
point $-1 50.000069937451052 86.60250000000002 25 #
straight-curve $-1 50 0 15 0 1 0 #
point $-1 50 86.60250000000002 15 #
straight-curve $-1 50 0 25 0 1 0 #
coedge $-1 $937 $930 $773 $877 0 $856 $-1 #
edge $-1 $912 $879 $876 $182 0 #
coedge $-1 $774 $887 $937 $938 1 $768 $-1 #
vertex $-1 $877 $939 #
straight-curve $-1 50 -86.602540378443905 0 0 0 1 #
point $-1 50 -86.602540378443905 25 #
coedge $-1 $882 $882 $782 $883 1 $860 $-1 #
edge $-1 $940 $940 $782 $941 0 #
vertex $-1 $784 $942 #
ellipse-curve $-1 50 50 50.000000000000199 -1 0 0 -5.2372220082647e-014 0 -15 1 #
vertex $-1 $785 $943 #
coedge $-1 $878 $786 $871 $936 1 $768 $-1 #
point $-1 50 86.60250000000002 25 #
coedge $-1 $790 $903 $792 $891 0 $821 $-1 #
straight-curve $-1 20 -97.979589711327094 0 0 0 -1 #
edge $-1 $933 $793 $889 $853 0 #
point $-1 20 -97.979589711327094 0 #
point $-1 -20 -31.721443851123801 0 #
vertex $-1 $866 $944 #
ellipse-curve $-1 -20 -50 49.999999999999702 -1 0 0 -3.4914813388431302e-014 0 -10 1 #
straight-curve $-1 -100 -40 50 -1 0 3.4914813388431298e-015 #
coedge $-1 $840 $848 $804 $898 0 $728 $-1 #
edge $-1 $920 $844 $897 $927 0 #
coedge $-1 $917 $863 $805 $900 0 $397 $-1 #
edge $-1 $904 $902 $899 $753 0 #
coedge $-1 $806 $862 $917 $945 1 $619 $-1 #
vertex $-1 $900 $946 #
coedge $-1 $889 $808 $863 $932 0 $821 $-1 #
vertex $-1 $900 $947 #
edge $-1 $822 $814 $820 $948 0 #
edge $-1 $819 $813 $811 $949 0 #
point $-1 27.5 -35 50 #
point $-1 20 -35 50 #
straight-curve $-1 100 -65 50 1 0 -3.4914813388431298e-015 #
point $-1 27.5 -65 50 #
point $-1 20 -65 50 #
vertex $-1 $931 $950 #
straight-curve $-1 27.5 -96.144422615147107 0 0 0 -1 #
coedge $-1 $930 $827 $830 $918 0 $856 $-1 #
coedge $-1 $827 $937 $835 $921 0 $856 $-1 #
straight-curve $-1 27.5 0 75 0 -1 0 #
coedge $-1 $830 $899 $901 $945 0 $397 $-1 #
edge $-1 $831 $951 $914 $952 0 #
point $-1 27.5 25.495097567963899 75 #
vertex $-1 $926 $953 #
edge $-1 $954 $836 $915 $182 0 #
point $-1 27.5 96.144422615147107 75 #
ellipse-curve $-1 20 50 50.000000000000298 1 0 0 -5.2372220082647e-014 0 -15 1 #
point $-1 20 65 50 #
point $-1 20 35 50 #
edge $-1 $852 $920 $848 $955 0 #
straight-curve $-1 20 0 50 0 1 0 #
plane-surface $-1 20 0 37.5 -1 0 0 0 0 1 0 #
point $-1 20 31.721443851123801 0 #
coedge $-1 $876 $914 $862 $931 0 $856 $-1 #
edge $-1 $951 $912 $930 $916 0 #
edge $-1 $904 $933 $903 $956 0 #
vertex $-1 $932 $957 #
ellipse-curve $-1 0 0 0 0 0 -1 37.5 0 0 1 #
straight-curve $-1 50 86.60250000000002 20 0 0 1 #
edge $-1 $954 $886 $871 $958 0 #
coedge $-1 $915 $876 $878 $938 0 $856 $-1 #
edge $-1 $879 $954 $937 $959 0 #
point $-1 50 -86.602540378443905 75 #
vertex $-1 $883 $960 #
ellipse-curve $-1 50 -50 50.000000000000199 -1 0 0 -5.2372220082647e-014 0 -15 1 #
point $-1 50 49.999999999999901 65.000000000000199 #
point $-1 50 86.602540378443905 25 #
point $-1 -20 -40 50 #
edge $-1 $902 $951 $917 $961 0 #
point $-1 27.5 -25.495097567963899 50 #
point $-1 20 -31.721443851123801 50 #
ellipse-curve $-1 20 -50 50.000000000000298 1 0 0 -5.2372220082647e-014 0 -15 1 #
ellipse-curve $-1 27.5 -50 50.000000000000298 -1 0 0 -5.2372220082647e-014 0 -15 1 #
point $-1 27.5 -96.144422615147107 75 #
vertex $-1 $918 $962 #
ellipse-curve $-1 0 0 75 0 0 -1 37.5 0 0 1 #
point $-1 20 31.721443851123801 50 #
vertex $-1 $936 $963 #
straight-curve $-1 20 31.721443851123801 0 0 0 1 #
straight-curve $-1 20 -31.721443851123801 0 0 0 -1 #
point $-1 20 -31.721443851123801 0 #
straight-curve $-1 50 86.602540378443905 0 0 0 -1 #
straight-curve $-1 50 0 75 0 1 0 #
point $-1 50 -50.000000000000099 65.000000000000199 #
straight-curve $-1 27.5 -25.495097567963899 0 0 0 1 #
point $-1 27.5 -25.495097567963899 75 #
point $-1 50 86.602540378443905 75 #
