600 0 1 0           
75 GICL ACIS Healer - Source: /gicl/data5/repository/new/sipe_socket.sat - 6 0 18 ACIS 6.0.3 Solaris 24 Sat Apr 13 20:20:49 2002 
1 9.999999999999999547e-07 1.000000000000000036e-10 
body $-1 $1 $-1 $-1 #
lump $-1 $-1 $2 $0 #
shell $-1 $-1 $-1 $3 $-1 $1 #
face $-1 $4 $5 $2 $-1 $6 forward single #
face $-1 $7 $8 $2 $-1 $9 reversed single #
loop $-1 $-1 $10 $3 #
plane-surface $-1 -75 86.60250000000002046 20 0 -1 0 0 0 1 forward_v I I I I #
face $-1 $11 $12 $2 $-1 $13 forward single #
loop $-1 $14 $15 $4 #
plane-surface $-1 -75 0 15 0 0 -1 0 -1 0 forward_v I I I I #
coedge $-1 $16 $17 $18 $19 reversed $5 $-1 #
face $-1 $20 $21 $2 $-1 $22 forward single #
loop $-1 $-1 $23 $7 #
plane-surface $-1 -75 -86.60250000000002046 20 0 1 0 0 0 -1 forward_v I I I I #
loop $-1 $-1 $24 $4 #
coedge $-1 $25 $26 $27 $28 reversed $8 $-1 #
coedge $-1 $29 $10 $26 $30 forward $5 $-1 #
coedge $-1 $10 $29 $31 $32 reversed $5 $-1 #
coedge $-1 $33 $27 $10 $19 forward $34 $-1 #
edge $-1 $35 15 $36 25 $18 $37 forward 7 unknown #
face $-1 $38 $39 $2 $-1 $40 forward single #
loop $-1 $34 $41 $11 #
cone-surface $-1 0 0 0 0 0 1 100 0 0 1 I I 0 1 100 forward I I I I #
coedge $-1 $42 $43 $44 $45 reversed $12 $-1 #
coedge $-1 $24 $24 $46 $47 reversed $14 $-1 #
coedge $-1 $48 $15 $43 $49 reversed $8 $-1 #
coedge $-1 $15 $48 $16 $30 reversed $8 $-1 #
coedge $-1 $18 $44 $15 $28 forward $34 $-1 #
edge $-1 $50 2.094395909961507485 $35 4.188789397218078747 $27 $51 forward 7 unknown #
coedge $-1 $17 $16 $52 $53 forward $5 $-1 #
edge $-1 $35 24.99993006254894823 $54 25 $16 $55 forward 7 unknown #
coedge $-1 $56 $57 $17 $32 forward $39 $-1 #
edge $-1 $36 24.99993006254894823 $58 25 $31 $59 forward 7 unknown #
coedge $-1 $60 $18 $57 $61 forward $34 $-1 #
loop $-1 $-1 $44 $11 #
vertex $-1 $28 $62 #
vertex $-1 $61 $63 #
straight-curve $-1 -50.00006993745105177 86.60250000000002046 0 0 0 1 I I #
face $-1 $64 $65 $2 $-1 $66 forward single #
loop $-1 $-1 $31 $20 #
plane-surface $-1 -75 0 25 0 0 1 1 0 0 forward_v I I I I #
coedge $-1 $67 $68 $69 $70 forward $21 $-1 #
coedge $-1 $71 $23 $72 $73 reversed $12 $-1 #
coedge $-1 $23 $71 $25 $49 forward $12 $-1 #
coedge $-1 $27 $74 $23 $45 forward $34 $-1 #
edge $-1 $75 -25 $50 -15 $44 $76 forward 7 unknown #
coedge $-1 $46 $46 $24 $47 forward $77 $-1 #
edge $-1 $78 -3.141592653589799777 $78 3.141592653589786455 $46 $79 forward 7 unknown #
coedge $-1 $26 $25 $80 $81 reversed $8 $-1 #
edge $-1 $82 -25 $50 -24.99993006254894823 $43 $83 forward 7 unknown #
vertex $-1 $28 $84 #
ellipse-curve $-1 0 0 15 0 0 -1 100 0 0 1 I I #
coedge $-1 $80 $85 $29 $53 reversed $86 $-1 #
edge $-1 $54 -5 $58 5 $29 $87 forward 7 unknown #
vertex $-1 $30 $88 #
straight-curve $-1 -75 86.60250000000002046 15 1 0 0 I I #
coedge $-1 $57 $31 $85 $89 reversed $39 $-1 #
coedge $-1 $31 $56 $33 $61 reversed $39 $-1 #
vertex $-1 $53 $90 #
straight-curve $-1 -75 86.60250000000002046 25 1 0 0 I I #
coedge $-1 $91 $33 $92 $93 forward $34 $-1 #
edge $-1 $36 -2.094395909961507485 $94 -2.094395102393195707 $33 $95 forward 7 unknown #
point $-1 -50.00006993745105177 86.60250000000002046 15 #
point $-1 -50.00006993745105177 86.60250000000002046 25 #
face $-1 $96 $97 $2 $-1 $98 forward single #
loop $-1 $-1 $99 $38 #
plane-surface $-1 75 -86.60250000000002046 -20 0 1 0 0 0 -1 forward_v I I I I #
coedge $-1 $100 $41 $101 $102 forward $21 $-1 #
coedge $-1 $41 $103 $104 $105 forward $21 $-1 #
coedge $-1 $106 $107 $41 $70 reversed $108 $-1 #
edge $-1 $109 15 $110 25 $41 $111 forward 7 unknown #
coedge $-1 $43 $42 $112 $113 reversed $12 $-1 #
coedge $-1 $114 $115 $42 $73 forward $116 $-1 #
edge $-1 $117 -25 $75 -24.99993006254894823 $72 $118 forward 7 unknown #
coedge $-1 $44 $119 $114 $120 forward $34 $-1 #
vertex $-1 $73 $121 #
straight-curve $-1 -50.00006993745105177 -86.60250000000002046 0 0 0 -1 I I #
loop $-1 $122 $46 $123 #
vertex $-1 $47 $124 #
ellipse-curve $-1 -75 0 15 0 0 1 10 0 0 1 I I #
coedge $-1 $112 $52 $48 $81 forward $86 $-1 #
edge $-1 $54 -86.60250000000002046 $82 86.60250000000002046 $80 $125 forward 7 unknown #
vertex $-1 $49 $126 #
straight-curve $-1 -75 -86.60250000000002046 15 -1 0 0 I I #
point $-1 -50.00006993745105177 -86.60250000000002046 15 #
coedge $-1 $52 $92 $56 $89 forward $86 $-1 #
loop $-1 $-1 $92 $127 #
straight-curve $-1 -50 86.60250000000002046 20 0 0 1 I I #
point $-1 -50 86.60250000000002046 15 #
edge $-1 $94 -86.60254037844390496 $58 -86.60250000000002046 $85 $128 forward 7 unknown #
point $-1 -50 86.60250000000002046 25 #
coedge $-1 $129 $60 $130 $131 reversed $34 $-1 #
coedge $-1 $85 $132 $60 $93 reversed $86 $-1 #
edge $-1 $94 25 $133 75 $60 $134 forward 7 unknown #
vertex $-1 $61 $135 #
ellipse-curve $-1 0 0 25 0 0 -1 100 0 0 1 I I #
face $-1 $136 $108 $2 $-1 $137 forward single #
loop $-1 $138 $104 $64 #
plane-surface $-1 75 0 -15 0 0 -1 0 -1 0 forward_v I I I I #
coedge $-1 $139 $140 $103 $141 reversed $65 $-1 #
coedge $-1 $142 $67 $143 $144 forward $21 $-1 #
coedge $-1 $145 $146 $67 $102 reversed $147 $-1 #
edge $-1 $110 1.047196743628285631 $148 1.047197551196597853 $67 $149 forward 7 unknown #
coedge $-1 $68 $150 $99 $141 forward $21 $-1 #
coedge $-1 $151 $152 $68 $105 reversed $97 $-1 #
edge $-1 $153 -1.047196743628285631 $109 1.047196743628285631 $68 $154 forward 7 unknown #
coedge $-1 $155 $69 $152 $156 forward $108 $-1 #
coedge $-1 $69 $155 $145 $157 reversed $108 $-1 #
loop $-1 $-1 $69 $96 #
vertex $-1 $105 $158 #
vertex $-1 $102 $159 #
straight-curve $-1 50.00006993745105177 86.60250000000002046 0 0 0 -1 I I #
coedge $-1 $160 $80 $71 $113 forward $86 $-1 #
edge $-1 $82 -5 $117 5 $71 $161 forward 7 unknown #
coedge $-1 $115 $72 $74 $120 reversed $116 $-1 #
coedge $-1 $72 $114 $160 $162 reversed $116 $-1 #
loop $-1 $-1 $72 $163 #
vertex $-1 $162 $164 #
straight-curve $-1 -75 -86.60250000000002046 25 -1 0 0 I I #
coedge $-1 $74 $165 $166 $167 forward $34 $-1 #
edge $-1 $168 2.094395102393195707 $75 2.094395909961507485 $74 $95 forward 7 unknown #
point $-1 -50.00006993745105177 -86.60250000000002046 25 #
loop $-1 $-1 $169 $123 #
face $-1 $170 $77 $2 $-1 $171 reversed single #
point $-1 -85 6.982966722218764133e-14 15 #
straight-curve $-1 -50 0 15 0 -1 0 I I #
point $-1 -50 -86.60250000000002046 15 #
face $-1 $172 $173 $2 $-1 $174 forward single #
straight-curve $-1 -50 0 25 0 -1 0 I I #
coedge $-1 $175 $91 $176 $177 forward $34 $-1 #
coedge $-1 $178 $179 $91 $131 forward $180 $-1 #
edge $-1 $181 1.849386029186547153 $133 2.094395102393195707 $130 $182 forward 7 unknown #
coedge $-1 $92 $166 $178 $183 reversed $86 $-1 #
vertex $-1 $131 $184 #
straight-curve $-1 -50 86.60254037844390496 0 0 0 1 I I #
point $-1 -50 86.60254037844390496 25 #
face $-1 $185 $186 $2 $-1 $187 reversed single #
plane-surface $-1 75 86.60250000000002046 -20 0 -1 0 0 0 1 forward_v I I I I #
loop $-1 $-1 $188 $64 #
coedge $-1 $189 $99 $190 $191 reversed $65 $-1 #
coedge $-1 $99 $189 $151 $192 forward $65 $-1 #
edge $-1 $193 -25 $153 -15 $103 $194 forward 7 unknown #
coedge $-1 $195 $100 $196 $197 reversed $21 $-1 #
coedge $-1 $198 $199 $100 $144 reversed $200 $-1 #
edge $-1 $148 25 $201 75 $100 $202 forward 7 unknown #
coedge $-1 $146 $101 $107 $157 forward $147 $-1 #
coedge $-1 $101 $145 $198 $203 reversed $147 $-1 #
loop $-1 $-1 $145 $204 #
vertex $-1 $102 $205 #
ellipse-curve $-1 0 0 -25 0 0 1 100 0 0 1 I I #
coedge $-1 $103 $206 $207 $208 forward $21 $-1 #
coedge $-1 $209 $104 $140 $192 reversed $97 $-1 #
coedge $-1 $104 $209 $106 $156 reversed $97 $-1 #
vertex $-1 $105 $210 #
ellipse-curve $-1 0 0 -15 0 0 1 100 0 0 1 I I #
coedge $-1 $107 $106 $211 $212 reversed $108 $-1 #
edge $-1 $109 24.99993006254894823 $213 25 $106 $214 forward 7 unknown #
edge $-1 $110 24.99993006254894823 $215 25 $145 $216 forward 7 unknown #
point $-1 50.00006993745105177 86.60250000000002046 -15 #
point $-1 50.00006993745105177 86.60250000000002046 -25 #
coedge $-1 $166 $112 $115 $162 forward $86 $-1 #
straight-curve $-1 -50 -86.60250000000002046 20 0 0 1 I I #
edge $-1 $117 86.60250000000002046 $168 86.60254037844390496 $160 $128 forward 7 unknown #
face $-1 $127 $116 $2 $-1 $40 forward single #
point $-1 -50 -86.60250000000002046 25 #
coedge $-1 $119 $217 $218 $219 reversed $34 $-1 #
coedge $-1 $132 $160 $119 $167 reversed $86 $-1 #
edge $-1 $220 -75 $168 -25 $119 $221 forward 7 unknown #
vertex $-1 $120 $222 #
coedge $-1 $169 $169 $223 $224 forward $122 $-1 #
face $-1 $225 $226 $2 $-1 $227 reversed single #
cone-surface $-1 -75 0 0 0 0 1 10 0 0 1 I I 0 1 10 forward I I I I #
face $-1 $228 $229 $2 $-1 $230 reversed single #
loop $-1 $231 $232 $127 #
plane-surface $-1 -50 0 50 -1 0 0 0 0 1 forward_v I I I I #
coedge $-1 $233 $129 $234 $235 forward $34 $-1 #
coedge $-1 $236 $237 $129 $177 reversed $238 $-1 #
edge $-1 $181 -75 $239 -50 $129 $240 forward 7 unknown #
coedge $-1 $218 $130 $132 $183 forward $180 $-1 #
coedge $-1 $130 $241 $236 $242 forward $180 $-1 #
loop $-1 $-1 $243 $244 #
vertex $-1 $242 $245 #
ellipse-curve $-1 0 0 75 0 0 1 100 0 0 1 I I #
edge $-1 $133 -86.60254037844390496 $220 86.60254037844390496 $178 $246 forward 7 unknown #
point $-1 -50 86.60254037844390496 75 #
face $-1 $247 $248 $2 $-1 $249 forward single #
loop $-1 $-1 $190 $136 #
plane-surface $-1 75 0 -25 0 0 1 1 0 0 forward_v I I I I #
coedge $-1 $188 $188 $250 $251 reversed $138 $-1 #
coedge $-1 $140 $139 $252 $253 forward $65 $-1 #
coedge $-1 $207 $254 $139 $191 forward $186 $-1 #
edge $-1 $255 -25 $193 -24.99993006254894823 $190 $256 forward 7 unknown #
edge $-1 $257 -25 $153 -24.99993006254894823 $140 $258 forward 7 unknown #
vertex $-1 $141 $259 #
straight-curve $-1 50.00006993745105177 -86.60250000000002046 0 0 0 1 I I #
coedge $-1 $260 $142 $261 $262 forward $21 $-1 #
coedge $-1 $263 $264 $142 $197 forward $265 $-1 #
edge $-1 $266 -2.094395102393195707 $201 -1.047197551196597853 $196 $267 forward 7 unknown #
coedge $-1 $211 $143 $146 $203 forward $200 $-1 #
coedge $-1 $143 $268 $263 $269 reversed $200 $-1 #
loop $-1 $-1 $268 $270 #
vertex $-1 $197 $271 #
straight-curve $-1 50 86.60254037844390496 0 0 0 -1 I I #
edge $-1 $148 -86.60254037844390496 $215 -86.60250000000002046 $198 $272 forward 7 unknown #
face $-1 $270 $147 $2 $-1 $187 reversed single #
point $-1 50 86.60254037844390496 -25 #
coedge $-1 $150 $273 $268 $274 forward $21 $-1 #
coedge $-1 $254 $190 $150 $208 reversed $186 $-1 #
edge $-1 $275 -1.047197551196597853 $193 -1.047196743628285631 $150 $149 forward 7 unknown #
coedge $-1 $152 $151 $276 $277 reversed $97 $-1 #
point $-1 50.00006993745105177 -86.60250000000002046 -15 #
coedge $-1 $276 $198 $155 $212 forward $200 $-1 #
edge $-1 $215 -5 $213 5 $211 $278 forward 7 unknown #
vertex $-1 $277 $279 #
straight-curve $-1 75 86.60250000000002046 -15 -1 0 0 I I #
vertex $-1 $212 $280 #
straight-curve $-1 75 86.60250000000002046 -25 -1 0 0 I I #
coedge $-1 $165 $281 $282 $283 forward $34 $-1 #
coedge $-1 $243 $178 $165 $219 forward $180 $-1 #
edge $-1 $220 -2.094395102393195707 $284 -1.849386029186547153 $218 $182 forward 7 unknown #
vertex $-1 $167 $285 #
straight-curve $-1 -50 -86.60254037844390496 0 0 0 -1 I I #
point $-1 -50 -86.60254037844390496 25 #
coedge $-1 $223 $223 $169 $224 reversed $286 $-1 #
edge $-1 $287 -3.141592653589799777 $287 3.141592653589786455 $169 $288 forward 7 unknown #
face $-1 $289 $290 $2 $-1 $291 forward single #
loop $-1 $292 $250 $170 #
cone-surface $-1 75 0 0 0 0 1 10 0 0 1 I I 0 1 10 forward I I I I #
face $-1 $204 $293 $2 $-1 $294 forward single #
loop $-1 $-1 $295 $172 #
plane-surface $-1 -75 0 -25 0 0 1 1 0 0 forward_v I I I I #
loop $-1 $86 $296 $127 #
coedge $-1 $232 $232 $297 $298 forward $173 $-1 #
coedge $-1 $299 $175 $300 $301 forward $34 $-1 #
coedge $-1 $302 $303 $175 $235 reversed $304 $-1 #
edge $-1 $239 -1.849386029186547153 $305 -1.77215424758522766 $175 $306 forward 7 unknown #
coedge $-1 $307 $176 $179 $242 reversed $238 $-1 #
coedge $-1 $176 $308 $302 $309 forward $238 $-1 #
loop $-1 $-1 $176 $310 #
vertex $-1 $235 $311 #
straight-curve $-1 -27.5 96.14442261514710708 0 0 0 -1 I I #
coedge $-1 $179 $243 $312 $313 forward $180 $-1 #
edge $-1 $314 25.49509756796389937 $181 96.14442261514710708 $179 $315 forward 7 unknown #
coedge $-1 $241 $218 $316 $317 forward $180 $-1 #
face $-1 $318 $180 $2 $-1 $319 forward single #
point $-1 -27.5 96.14442261514710708 75 #
straight-curve $-1 -50 0 75 0 -1 0 I I #
face $-1 $320 $321 $2 $-1 $322 reversed single #
loop $-1 $-1 $323 $185 #
plane-surface $-1 75 -86.60250000000002046 20 0 1 0 0 0 -1 forward_v I I I I #
coedge $-1 $250 $250 $188 $251 forward $226 $-1 #
edge $-1 $324 -3.141592653589799777 $324 3.141592653589786455 $250 $325 forward 7 unknown #
coedge $-1 $326 $276 $189 $253 reversed $200 $-1 #
edge $-1 $255 -5 $257 5 $189 $327 forward 7 unknown #
coedge $-1 $190 $207 $326 $328 reversed $186 $-1 #
vertex $-1 $328 $329 #
straight-curve $-1 75 -86.60250000000002046 -25 1 0 0 I I #
vertex $-1 $192 $330 #
straight-curve $-1 75 -86.60250000000002046 -15 1 0 0 I I #
point $-1 50.00006993745105177 -86.60250000000002046 -25 #
coedge $-1 $331 $195 $332 $333 forward $21 $-1 #
coedge $-1 $334 $335 $195 $262 reversed $293 $-1 #
edge $-1 $266 -75 $336 -25 $195 $337 forward 7 unknown #
coedge $-1 $338 $196 $199 $269 forward $265 $-1 #
coedge $-1 $196 $338 $334 $339 forward $265 $-1 #
loop $-1 $-1 $264 $340 #
vertex $-1 $339 $341 #
ellipse-curve $-1 0 0 -75 0 0 -1 100 0 0 1 I I #
coedge $-1 $199 $326 $206 $274 reversed $200 $-1 #
edge $-1 $201 -86.60254037844390496 $342 86.60254037844390496 $263 $343 forward 7 unknown #
face $-1 $344 $200 $2 $-1 $345 forward single #
point $-1 50 86.60254037844390496 -75 #
straight-curve $-1 50 0 -25 0 -1 0 I I #
coedge $-1 $206 $346 $338 $347 reversed $21 $-1 #
edge $-1 $342 -75 $275 -25 $206 $348 forward 7 unknown #
vertex $-1 $208 $349 #
coedge $-1 $252 $211 $209 $277 forward $200 $-1 #
edge $-1 $213 -86.60250000000002046 $257 86.60250000000002046 $276 $350 forward 7 unknown #
straight-curve $-1 50 86.60250000000002046 -20 0 0 1 I I #
point $-1 50 86.60250000000002046 -15 #
point $-1 50 86.60250000000002046 -25 #
coedge $-1 $217 $351 $352 $353 forward $34 $-1 #
coedge $-1 $354 $316 $217 $283 reversed $355 $-1 #
edge $-1 $356 50 $284 75 $217 $357 forward 7 unknown #
vertex $-1 $219 $358 #
point $-1 -50 -86.60254037844390496 75 #
loop $-1 $-1 $223 $359 #
vertex $-1 $224 $360 #
ellipse-curve $-1 -75 0 -15 0 0 -1 10 0 0 1 I I #
face $-1 $361 $362 $2 $-1 $363 forward single #
loop $-1 $-1 $364 $225 #
plane-surface $-1 27.5 0 62.5 -1 0 0 0 0 1 forward_v I I I I #
loop $-1 $-1 $365 $170 #
loop $-1 $-1 $261 $228 #
plane-surface $-1 -50 0 -50 -1 0 0 0 0 1 forward_v I I I I #
coedge $-1 $366 $367 $368 $369 forward $229 $-1 #
coedge $-1 $296 $296 $370 $371 forward $231 $-1 #
coedge $-1 $297 $297 $232 $298 reversed $372 $-1 #
edge $-1 $373 -3.141592653589802886 $373 3.141592653589783346 $232 $374 forward 7 unknown #
coedge $-1 $375 $233 $376 $377 forward $34 $-1 #
coedge $-1 $378 $379 $233 $301 reversed $380 $-1 #
edge $-1 $305 -50 $381 0 $233 $382 forward 7 unknown #
coedge $-1 $383 $234 $237 $309 reversed $304 $-1 #
coedge $-1 $234 $383 $378 $384 reversed $304 $-1 #
loop $-1 $-1 $234 $385 #
vertex $-1 $235 $386 #
ellipse-curve $-1 0 0 50 0 0 -1 100 0 0 1 I I #
coedge $-1 $387 $236 $388 $389 reversed $238 $-1 #
coedge $-1 $237 $387 $390 $391 reversed $238 $-1 #
edge $-1 $392 60 $239 96.14442261514710708 $237 $393 forward 7 unknown #
face $-1 $394 $238 $2 $-1 $395 forward single #
point $-1 -27.5 96.14442261514710708 50 #
coedge $-1 $396 $388 $241 $313 reversed $397 $-1 #
edge $-1 $398 2.394008303920772907 $314 3.889177003258813325 $241 $399 forward 7 unknown #
vertex $-1 $313 $400 #
straight-curve $-1 -27.5 0 75 0 1 0 I I #
coedge $-1 $282 $401 $243 $317 reversed $355 $-1 #
edge $-1 $284 -96.14442261514710708 $398 -25.49509756796389937 $243 $315 forward 7 unknown #
face $-1 $402 $403 $2 $-1 $404 reversed single #
plane-surface $-1 0 0 75 0 0 1 1 0 0 forward_v I I I I #
face $-1 $405 $406 $2 $-1 $407 forward single #
loop $-1 $408 $409 $247 #
plane-surface $-1 75 0 15 0 0 -1 0 -1 0 forward_v I I I I #
coedge $-1 $410 $411 $412 $413 reversed $248 $-1 #
vertex $-1 $251 $414 #
ellipse-curve $-1 75 0 -15 0 0 -1 10 0 0 1 I I #
coedge $-1 $268 $252 $254 $328 forward $200 $-1 #
straight-curve $-1 50 -86.60250000000002046 -20 0 0 1 I I #
edge $-1 $255 86.60250000000002046 $275 86.60254037844390496 $326 $272 forward 7 unknown #
point $-1 50 -86.60250000000002046 -25 #
point $-1 50 -86.60250000000002046 -15 #
coedge $-1 $415 $260 $416 $417 forward $21 $-1 #
coedge $-1 $418 $419 $260 $333 reversed $420 $-1 #
edge $-1 $336 2.094395102393195707 $421 2.094395909961507485 $260 $422 forward 7 unknown #
coedge $-1 $423 $261 $264 $339 reversed $293 $-1 #
coedge $-1 $261 $424 $418 $425 forward $293 $-1 #
vertex $-1 $333 $426 #
straight-curve $-1 -50 86.60254037844390496 0 0 0 1 I I #
coedge $-1 $264 $263 $273 $347 forward $265 $-1 #
edge $-1 $427 -86.60254037844390496 $266 86.60254037844390496 $264 $428 forward 7 unknown #
face $-1 $-1 $429 $2 $-1 $430 forward single #
point $-1 -50 86.60254037844390496 -75 #
vertex $-1 $269 $431 #
straight-curve $-1 50 0 -75 0 -1 0 I I #
face $-1 $432 $433 $2 $-1 $434 forward single #
plane-surface $-1 50 0 -50 1 0 0 0 0 -1 forward_v I I I I #
coedge $-1 $273 $435 $423 $436 forward $21 $-1 #
edge $-1 $342 1.047197551196597853 $427 2.094395102393195707 $338 $267 forward 7 unknown #
straight-curve $-1 50 -86.60254037844390496 0 0 0 1 I I #
point $-1 50 -86.60254037844390496 -25 #
straight-curve $-1 50 0 -15 0 -1 0 I I #
coedge $-1 $281 $437 $438 $439 forward $34 $-1 #
coedge $-1 $440 $441 $281 $353 reversed $442 $-1 #
edge $-1 $443 1.77215424758522766 $356 1.849386029186547153 $281 $444 forward 7 unknown #
coedge $-1 $445 $282 $441 $446 forward $355 $-1 #
loop $-1 $-1 $445 $394 #
vertex $-1 $353 $447 #
straight-curve $-1 -27.5 -96.14442261514710708 0 0 0 1 I I #
point $-1 -27.5 -96.14442261514710708 75 #
face $-1 $448 $449 $2 $-1 $450 forward single #
point $-1 -85 -6.982966722218764133e-14 -15 #
face $-1 $451 $452 $2 $-1 $363 forward single #
loop $-1 $-1 $453 $289 #
plane-surface $-1 0 0 50 0 0 1 1 0 0 forward_v I I I I #
coedge $-1 $454 $455 $456 $457 reversed $290 $-1 #
coedge $-1 $365 $365 $458 $459 forward $292 $-1 #
coedge $-1 $367 $295 $460 $461 reversed $229 $-1 #
coedge $-1 $295 $366 $435 $462 reversed $229 $-1 #
coedge $-1 $463 $464 $295 $369 reversed $465 $-1 #
edge $-1 $466 24.99993006254894823 $467 25 $295 $468 forward 7 unknown #
coedge $-1 $370 $370 $296 $371 reversed $469 $-1 #
edge $-1 $470 -3.141592653589802886 $470 3.141592653589783346 $296 $471 forward 7 unknown #
loop $-1 $-1 $297 $472 #
vertex $-1 $298 $473 #
ellipse-curve $-1 -50 -50 49.99999999999980105 1 0 0 -3.4914813388431302e-14 0 -10 1 I I #
coedge $-1 $474 $299 $475 $476 forward $34 $-1 #
coedge $-1 $477 $475 $299 $377 reversed $478 $-1 #
edge $-1 $381 -1.77215424758522766 $479 -1.570796326794896558 $299 $480 forward 7 unknown #
coedge $-1 $481 $300 $303 $384 forward $380 $-1 #
coedge $-1 $300 $482 $477 $483 forward $380 $-1 #
loop $-1 $-1 $378 $402 #
vertex $-1 $377 $484 #
straight-curve $-1 -20 97.97958971132709394 0 0 0 -1 I I #
coedge $-1 $303 $302 $485 $486 reversed $304 $-1 #
edge $-1 $305 -97.97958971132709394 $487 -60 $378 $488 forward 7 unknown #
face $-1 $489 $304 $2 $-1 $363 forward single #
point $-1 -20 97.97958971132709394 50 #
coedge $-1 $308 $307 $490 $491 forward $238 $-1 #
coedge $-1 $312 $492 $307 $389 forward $397 $-1 #
edge $-1 $493 50 $314 75 $388 $494 forward 7 unknown #
coedge $-1 $495 $485 $308 $391 forward $496 $-1 #
edge $-1 $392 1.570796326794926534 $497 4.712388980384659476 $390 $498 forward 7 unknown #
vertex $-1 $486 $499 #
straight-curve $-1 -27.5 0 50 0 1 0 I I #
face $-1 $500 $355 $2 $-1 $395 forward single #
plane-surface $-1 -27.5 0 62.5 1 0 0 0 0 -1 forward_v I I I I #
coedge $-1 $501 $312 $401 $502 forward $397 $-1 #
loop $-1 $-1 $396 $318 #
vertex $-1 $502 $503 #
ellipse-curve $-1 0 0 75 0 0 -1 37.5 0 0 1 I I #
point $-1 -27.5 25.49509756796389937 75 #
coedge $-1 $316 $504 $396 $502 reversed $355 $-1 #
face $-1 $472 $380 $2 $-1 $505 forward single #
loop $-1 $397 $506 $318 #
cone-surface $-1 0 0 0 0 0 1 37.5 0 0 1 I I 0 1 37.5 forward I I I I #
face $-1 $507 $508 $2 $-1 $434 forward single #
loop $-1 $-1 $509 $320 #
plane-surface $-1 75 86.60250000000002046 20 0 -1 0 0 0 1 forward_v I I I I #
loop $-1 $-1 $458 $247 #
coedge $-1 $510 $511 $512 $513 reversed $321 $-1 #
coedge $-1 $514 $323 $511 $515 forward $248 $-1 #
coedge $-1 $323 $514 $516 $517 reversed $248 $-1 #
coedge $-1 $518 $512 $323 $413 forward $34 $-1 #
edge $-1 $519 15 $520 25 $412 $521 forward 7 unknown #
point $-1 65 -6.982966722218764133e-14 -15 #
coedge $-1 $522 $331 $523 $524 forward $21 $-1 #
coedge $-1 $525 $526 $331 $417 reversed $527 $-1 #
edge $-1 $421 -25 $528 -15 $331 $529 forward 7 unknown #
coedge $-1 $419 $332 $335 $425 reversed $420 $-1 #
coedge $-1 $332 $418 $525 $530 forward $420 $-1 #
loop $-1 $-1 $419 $531 #
vertex $-1 $417 $532 #
ellipse-curve $-1 0 0 -25 0 0 1 100 0 0 1 I I #
coedge $-1 $460 $334 $346 $436 reversed $293 $-1 #
coedge $-1 $335 $533 $534 $535 reversed $293 $-1 #
edge $-1 $536 86.60250000000002046 $336 86.60254037844390496 $335 $537 forward 7 unknown #
point $-1 -50 86.60254037844390496 -25 #
vertex $-1 $347 $538 #
straight-curve $-1 -50 0 -75 0 1 0 I I #
loop $-1 $265 $539 $340 #
plane-surface $-1 0 0 -75 0 0 -1 -1 0 0 forward_v I I I I #
point $-1 50 -86.60254037844390496 -75 #
face $-1 $340 $540 $2 $-1 $541 forward single #
loop $-1 $-1 $542 $344 #
plane-surface $-1 75 0 25 0 0 1 1 0 0 forward_v I I I I #
coedge $-1 $346 $522 $367 $462 forward $21 $-1 #
edge $-1 $543 25 $427 75 $346 $544 forward 7 unknown #
coedge $-1 $351 $545 $546 $547 forward $34 $-1 #
coedge $-1 $548 $549 $351 $439 reversed $550 $-1 #
edge $-1 $551 0 $443 50 $351 $552 forward 7 unknown #
coedge $-1 $553 $352 $549 $554 reversed $442 $-1 #
coedge $-1 $352 $553 $354 $446 reversed $442 $-1 #
loop $-1 $-1 $553 $555 #
vertex $-1 $439 $556 #
ellipse-curve $-1 0 0 50 0 0 -1 100 0 0 1 I I #
coedge $-1 $504 $354 $557 $558 reversed $355 $-1 #
edge $-1 $356 -96.14442261514710708 $559 -60 $354 $393 forward 7 unknown #
point $-1 -27.5 -96.14442261514710708 50 #
face $-1 $531 $465 $2 $-1 $560 forward single #
loop $-1 $286 $523 $359 #
plane-surface $-1 -75 0 -15 0 0 -1 0 -1 0 forward_v I I I I #
face $-1 $561 $562 $2 $-1 $363 forward single #
loop $-1 $-1 $563 $361 #
coedge $-1 $564 $565 $566 $567 reversed $362 $-1 #
coedge $-1 $568 $364 $569 $570 forward $290 $-1 #
coedge $-1 $364 $571 $572 $573 forward $290 $-1 #
coedge $-1 $574 $575 $364 $457 forward $576 $-1 #
edge $-1 $577 1.570796326794876796 $578 4.712388980384709214 $456 $579 forward 7 unknown #
coedge $-1 $458 $458 $365 $459 reversed $408 $-1 #
edge $-1 $580 -3.141592653589799777 $580 3.141592653589786455 $365 $581 forward 7 unknown #
coedge $-1 $582 $423 $366 $461 forward $293 $-1 #
edge $-1 $543 -86.60254037844390496 $467 -86.60250000000002046 $460 $537 forward 7 unknown #
edge $-1 $466 -2.094395909961507485 $543 -2.094395102393195707 $435 $422 forward 7 unknown #
coedge $-1 $583 $368 $522 $584 reversed $465 $-1 #
coedge $-1 $368 $583 $582 $585 reversed $465 $-1 #
loop $-1 $-1 $463 $448 #
vertex $-1 $462 $586 #
vertex $-1 $585 $587 #
straight-curve $-1 -75 -86.60250000000002046 -25 1 0 0 I I #
loop $-1 $496 $370 $588 #
vertex $-1 $371 $589 #
ellipse-curve $-1 -50 50 49.99999999999980105 1 0 0 -3.4914813388431302e-14 0 -10 1 I I #
face $-1 $590 $591 $2 $-1 $592 reversed single #
point $-1 -50 -49.99999999999990052 59.99999999999980105 #
coedge $-1 $593 $375 $594 $595 forward $34 $-1 #
coedge $-1 $376 $596 $375 $476 reversed $478 $-1 #
edge $-1 $479 -1.570796326794896558 $597 -1.369438406004565678 $375 $480 forward 7 unknown #
coedge $-1 $598 $376 $379 $483 reversed $478 $-1 #
loop $-1 $-1 $598 $599 #
vertex $-1 $377 $600 #
ellipse-curve $-1 0 0 0 0 0 -1 100 0 0 1 I I #
coedge $-1 $601 $378 $602 $603 forward $380 $-1 #
coedge $-1 $379 $601 $604 $605 forward $380 $-1 #
edge $-1 $606 31.72144385112380149 $381 97.97958971132709394 $379 $607 forward 7 unknown #
point $-1 -20 97.97958971132709394 0 #
coedge $-1 $390 $602 $383 $486 forward $496 $-1 #
edge $-1 $487 -80 $392 -72.5 $485 $608 forward 7 unknown #
vertex $-1 $486 $609 #
straight-curve $-1 -20 0 50 0 -1 0 I I #
face $-1 $610 $611 $2 $-1 $363 forward single #
coedge $-1 $612 $613 $387 $491 reversed $611 $-1 #
edge $-1 $493 25.49509756796389937 $497 40 $387 $393 forward 7 unknown #
coedge $-1 $388 $604 $612 $614 forward $397 $-1 #
vertex $-1 $614 $615 #
straight-curve $-1 -27.5 25.49509756796389937 0 0 0 1 I I #
coedge $-1 $602 $390 $613 $616 forward $496 $-1 #
loop $-1 $-1 $485 $588 #
vertex $-1 $616 $617 #
ellipse-curve $-1 -27.5 50 49.99999999999970157 1 0 0 -3.4914813388431302e-14 0 -10 1 I I #
point $-1 -27.5 60 50 #
face $-1 $618 $619 $2 $-1 $291 forward single #
coedge $-1 $620 $396 $621 $622 forward $397 $-1 #
edge $-1 $398 -75 $623 -50 $396 $624 forward 7 unknown #
point $-1 -27.5 -25.49509756796389937 75 #
coedge $-1 $401 $445 $625 $626 forward $355 $-1 #
plane-surface $-1 -20 0 37.5 1 0 0 0 0 -1 forward_v I I I I #
coedge $-1 $506 $506 $539 $627 reversed $403 $-1 #
face $-1 $359 $527 $2 $-1 $628 forward single #
loop $-1 $-1 $516 $405 #
coedge $-1 $629 $630 $631 $632 reversed $406 $-1 #
coedge $-1 $633 $409 $630 $634 reversed $321 $-1 #
coedge $-1 $409 $633 $410 $515 reversed $321 $-1 #
coedge $-1 $412 $631 $409 $513 forward $34 $-1 #
edge $-1 $635 -1.047196743628285631 $519 1.047196743628285631 $512 $636 forward 7 unknown #
coedge $-1 $411 $410 $637 $638 forward $248 $-1 #
edge $-1 $519 24.99993006254894823 $639 25 $410 $640 forward 7 unknown #
coedge $-1 $641 $642 $411 $517 forward $508 $-1 #
edge $-1 $520 24.99993006254894823 $643 25 $516 $644 forward 7 unknown #
coedge $-1 $645 $412 $642 $646 forward $34 $-1 #
vertex $-1 $513 $647 #
vertex $-1 $646 $648 #
straight-curve $-1 50.00006993745105177 -86.60250000000002046 0 0 0 1 I I #
coedge $-1 $435 $415 $463 $584 forward $21 $-1 #
coedge $-1 $649 $650 $415 $524 reversed $449 $-1 #
edge $-1 $528 2.094395909961507485 $651 4.188789397218078747 $415 $652 forward 7 unknown #
coedge $-1 $534 $416 $419 $530 reversed $527 $-1 #
coedge $-1 $416 $534 $649 $653 forward $527 $-1 #
loop $-1 $-1 $416 $507 #
vertex $-1 $524 $654 #
straight-curve $-1 -50.00006993745105177 86.60250000000002046 0 0 0 1 I I #
edge $-1 $536 -25 $421 -24.99993006254894823 $419 $655 forward 7 unknown #
face $-1 $123 $420 $2 $-1 $230 reversed single #
point $-1 -50.00006993745105177 86.60250000000002046 -25 #
coedge $-1 $424 $582 $656 $657 forward $293 $-1 #
coedge $-1 $526 $525 $424 $535 forward $527 $-1 #
edge $-1 $536 -5 $658 5 $534 $659 forward 7 unknown #
vertex $-1 $425 $660 #
straight-curve $-1 -50 0 -25 0 1 0 I I #
point $-1 -50 -86.60254037844390496 -75 #
coedge $-1 $539 $539 $506 $627 forward $429 $-1 #
loop $-1 $661 $662 $432 #
plane-surface $-1 50 0 50 1 0 0 0 0 -1 forward_v I I I I #
coedge $-1 $663 $664 $629 $665 forward $433 $-1 #
vertex $-1 $462 $666 #
straight-curve $-1 -50 -86.60254037844390496 0 0 0 -1 I I #
coedge $-1 $437 $667 $668 $669 forward $34 $-1 #
coedge $-1 $668 $670 $437 $547 reversed $671 $-1 #
edge $-1 $672 1.570796326794896558 $551 1.77215424758522766 $437 $673 forward 7 unknown #
coedge $-1 $674 $438 $670 $675 forward $550 $-1 #
coedge $-1 $438 $676 $440 $554 forward $550 $-1 #
loop $-1 $-1 $549 $618 #
vertex $-1 $547 $677 #
straight-curve $-1 -20 -97.97958971132709394 0 0 0 1 I I #
coedge $-1 $441 $440 $678 $679 reversed $442 $-1 #
edge $-1 $680 60 $443 97.97958971132709394 $549 $681 forward 7 unknown #
face $-1 $310 $442 $2 $-1 $363 forward single #
point $-1 -20 -97.97958971132709394 50 #
coedge $-1 $678 $682 $445 $558 forward $591 $-1 #
edge $-1 $683 1.570796326794926534 $559 4.712388980384659476 $557 $684 forward 7 unknown #
vertex $-1 $679 $685 #
plane-surface $-1 -75 -86.60250000000002046 -20 0 1 0 0 0 -1 forward_v I I I I #
face $-1 $385 $686 $2 $-1 $363 forward single #
loop $-1 $-1 $687 $451 #
coedge $-1 $688 $689 $690 $691 reversed $452 $-1 #
coedge $-1 $692 $453 $693 $694 reversed $362 $-1 #
coedge $-1 $453 $692 $695 $696 reversed $362 $-1 #
coedge $-1 $667 $697 $453 $567 forward $34 $-1 #
edge $-1 $698 1.292206624403246185 $699 1.369438406004565678 $566 $444 forward 7 unknown #
coedge $-1 $700 $454 $701 $702 reversed $290 $-1 #
coedge $-1 $687 $703 $454 $570 reversed $562 $-1 #
edge $-1 $577 -35 $704 -25.49509756796389937 $454 $705 forward 7 unknown #
coedge $-1 $455 $700 $706 $707 reversed $290 $-1 #
coedge $-1 $708 $709 $455 $573 reversed $686 $-1 #
edge $-1 $710 -96.14442261514710708 $578 -65 $455 $705 forward 7 unknown #
coedge $-1 $711 $456 $709 $712 forward $576 $-1 #
coedge $-1 $456 $711 $687 $713 forward $576 $-1 #
loop $-1 $714 $574 $590 #
vertex $-1 $713 $715 #
vertex $-1 $712 $716 #
ellipse-curve $-1 27.5 50 50.00000000000029843 -1 0 0 -5.237222008264700033e-14 0 -15 1 I I #
vertex $-1 $459 $717 #
ellipse-curve $-1 75 0 15 0 0 1 10 0 0 1 I I #
coedge $-1 $533 $460 $464 $585 forward $293 $-1 #
coedge $-1 $464 $463 $650 $718 forward $465 $-1 #
edge $-1 $651 15 $466 25 $522 $719 forward 7 unknown #
edge $-1 $467 -5 $720 5 $464 $721 forward 7 unknown #
point $-1 -50.00006993745105177 -86.60250000000002046 -25 #
point $-1 -50 -86.60250000000002046 -25 #
face $-1 $244 $469 $2 $-1 $722 reversed single #
point $-1 -50 50.00000000000009948 59.99999999999980105 #
face $-1 $723 $576 $2 $-1 $724 reversed single #
loop $-1 $372 $678 $472 #
cone-surface $-1 -100 -50 50 1 0 -3.491481338843129805e-15 -3.4914813388431302e-14 0 -10 1 I I 0 1 10 forward I I I I #
coedge $-1 $706 $474 $708 $725 forward $34 $-1 #
coedge $-1 $726 $727 $474 $595 reversed $728 $-1 #
edge $-1 $597 0 $729 50 $474 $730 forward 7 unknown #
coedge $-1 $475 $598 $726 $731 reversed $478 $-1 #
vertex $-1 $476 $732 #
coedge $-1 $596 $477 $733 $734 forward $478 $-1 #
face $-1 $735 $478 $2 $-1 $736 forward single #
point $-1 0 100 0 #
coedge $-1 $482 $481 $737 $738 forward $380 $-1 #
coedge $-1 $485 $495 $481 $603 reversed $496 $-1 #
edge $-1 $487 -1.570796326794926534 $739 1.570796326794926534 $481 $740 forward 7 unknown #
coedge $-1 $492 $733 $482 $605 reversed $397 $-1 #
edge $-1 $741 -50 $606 0 $482 $742 forward 7 unknown #
vertex $-1 $734 $743 #
straight-curve $-1 -20 0 0 0 1 0 I I #
straight-curve $-1 -100 60 50 -1 0 3.491481338843129805e-15 I I #
point $-1 -20 60 50 #
face $-1 $555 $744 $2 $-1 $363 forward single #
loop $-1 $-1 $613 $489 #
coedge $-1 $737 $490 $492 $614 reversed $611 $-1 #
coedge $-1 $490 $737 $495 $616 reversed $611 $-1 #
edge $-1 $741 2.133332571338752537 $493 2.394008303920772907 $492 $745 forward 7 unknown #
point $-1 -27.5 25.49509756796389937 50 #
edge $-1 $497 72.5 $739 80 $495 $746 forward 7 unknown #
point $-1 -27.5 40 50 #
face $-1 $747 $550 $2 $-1 $505 forward single #
loop $-1 $-1 $748 $500 #
coedge $-1 $749 $501 $674 $750 reversed $397 $-1 #
coedge $-1 $625 $751 $501 $622 reversed $744 $-1 #
edge $-1 $623 -2.394008303920772907 $752 -2.133332571338752537 $501 $753 forward 7 unknown #
vertex $-1 $622 $754 #
straight-curve $-1 -27.5 -25.49509756796389937 0 0 0 -1 I I #
coedge $-1 $755 $621 $504 $626 reversed $744 $-1 #
edge $-1 $683 -40 $623 -25.49509756796389937 $504 $393 forward 7 unknown #
edge $-1 $756 -3.141592653589799777 $756 3.141592653589786455 $539 $757 forward 7 unknown #
plane-surface $-1 -75 86.60250000000002046 -20 0 -1 0 0 0 1 forward_v I I I I #
coedge $-1 $758 $509 $542 $665 reversed $406 $-1 #
coedge $-1 $509 $758 $510 $634 forward $406 $-1 #
coedge $-1 $512 $759 $509 $632 forward $34 $-1 #
edge $-1 $760 -25 $635 -15 $631 $761 forward 7 unknown #
coedge $-1 $511 $510 $762 $763 reversed $321 $-1 #
edge $-1 $764 -25 $635 -24.99993006254894823 $630 $765 forward 7 unknown #
vertex $-1 $513 $766 #
ellipse-curve $-1 0 0 15 0 0 -1 100 0 0 1 I I #
coedge $-1 $762 $767 $514 $638 reversed $768 $-1 #
edge $-1 $639 -5 $643 5 $514 $769 forward 7 unknown #
vertex $-1 $515 $770 #
straight-curve $-1 75 -86.60250000000002046 15 -1 0 0 I I #
coedge $-1 $642 $516 $767 $771 reversed $508 $-1 #
coedge $-1 $516 $641 $518 $646 reversed $508 $-1 #
vertex $-1 $638 $772 #
straight-curve $-1 75 -86.60250000000002046 25 -1 0 0 I I #
coedge $-1 $773 $518 $774 $775 forward $34 $-1 #
edge $-1 $520 1.047196743628285631 $776 1.047197551196597853 $518 $777 forward 7 unknown #
point $-1 50.00006993745105177 -86.60250000000002046 15 #
point $-1 50.00006993745105177 -86.60250000000002046 25 #
coedge $-1 $656 $523 $526 $653 reversed $449 $-1 #
coedge $-1 $523 $656 $583 $718 reversed $449 $-1 #
vertex $-1 $524 $778 #
ellipse-curve $-1 0 0 -15 0 0 1 100 0 0 1 I I #
edge $-1 $658 -25 $528 -24.99993006254894823 $526 $779 forward 7 unknown #
point $-1 -50.00006993745105177 86.60250000000002046 -15 #
straight-curve $-1 -75 86.60250000000002046 -25 -1 0 0 I I #
coedge $-1 $650 $649 $533 $657 reversed $449 $-1 #
edge $-1 $720 -86.60250000000002046 $658 86.60250000000002046 $533 $780 forward 7 unknown #
vertex $-1 $653 $781 #
straight-curve $-1 -50 86.60250000000002046 -20 0 0 1 I I #
point $-1 -50 86.60250000000002046 -25 #
loop $-1 $768 $782 $432 #
coedge $-1 $662 $662 $783 $784 forward $540 $-1 #
coedge $-1 $664 $542 $759 $785 reversed $433 $-1 #
coedge $-1 $542 $663 $786 $787 reversed $433 $-1 #
edge $-1 $788 -25 $760 -24.99993006254894823 $542 $789 forward 7 unknown #
point $-1 -50 -86.60254037844390496 -25 #
coedge $-1 $545 $566 $790 $791 forward $34 $-1 #
coedge $-1 $792 $546 $545 $669 reversed $671 $-1 #
edge $-1 $793 1.369438406004565678 $672 1.570796326794896558 $545 $673 forward 7 unknown #
coedge $-1 $546 $794 $548 $675 reversed $671 $-1 #
loop $-1 $-1 $794 $723 #
vertex $-1 $669 $795 #
ellipse-curve $-1 0 0 0 0 0 -1 100 0 0 1 I I #
coedge $-1 $796 $548 $620 $750 forward $550 $-1 #
edge $-1 $551 -97.97958971132709394 $797 -31.72144385112380149 $548 $607 forward 7 unknown #
coedge $-1 $549 $796 $798 $799 forward $550 $-1 #
point $-1 -20 -97.97958971132709394 0 #
coedge $-1 $798 $557 $553 $679 forward $591 $-1 #
edge $-1 $559 72.5 $680 80 $678 $800 forward 7 unknown #
vertex $-1 $799 $801 #
straight-curve $-1 -20 0 50 0 -1 0 I I #
coedge $-1 $557 $798 $755 $802 forward $591 $-1 #
vertex $-1 $802 $803 #
ellipse-curve $-1 -27.5 -50 49.99999999999970157 1 0 0 -3.4914813388431302e-14 0 -10 1 I I #
point $-1 -27.5 -60 50 #
loop $-1 $-1 $709 $561 #
coedge $-1 $804 $569 $575 $713 reversed $562 $-1 #
coedge $-1 $805 $563 $806 $807 reversed $452 $-1 #
coedge $-1 $563 $805 $808 $809 reversed $452 $-1 #
coedge $-1 $810 $811 $563 $691 forward $812 $-1 #
edge $-1 $813 72.5 $814 80 $690 $815 forward 7 unknown #
coedge $-1 $565 $564 $816 $817 reversed $362 $-1 #
coedge $-1 $748 $818 $564 $694 forward $619 $-1 #
edge $-1 $819 65 $698 96.14442261514710708 $693 $705 forward 7 unknown #
coedge $-1 $820 $790 $565 $696 forward $821 $-1 #
edge $-1 $699 -97.97958971132709394 $822 -65 $695 $823 forward 7 unknown #
coedge $-1 $566 $773 $748 $824 forward $34 $-1 #
vertex $-1 $567 $825 #
vertex $-1 $567 $826 #
coedge $-1 $571 $568 $827 $828 reversed $290 $-1 #
coedge $-1 $829 $830 $568 $702 forward $397 $-1 #
edge $-1 $831 -75 $704 -50 $701 $832 forward 7 unknown #
coedge $-1 $569 $804 $829 $833 reversed $562 $-1 #
vertex $-1 $833 $834 #
straight-curve $-1 27.5 0 50 0 -1 0 I I #
coedge $-1 $835 $593 $571 $707 forward $34 $-1 #
edge $-1 $710 50 $836 75 $706 $837 forward 7 unknown #
coedge $-1 $838 $572 $593 $725 reversed $686 $-1 #
coedge $-1 $572 $838 $574 $712 reversed $686 $-1 #
vertex $-1 $725 $839 #
coedge $-1 $575 $574 $840 $841 reversed $576 $-1 #
edge $-1 $578 72.5 $842 80 $574 $843 forward 7 unknown #
edge $-1 $844 -80 $577 -72.5 $575 $845 forward 7 unknown #
loop $-1 $-1 $783 $590 #
point $-1 27.5 35 50 #
point $-1 27.5 65 50 #
point $-1 65 6.982966722218764133e-14 15 #
edge $-1 $651 24.99993006254894823 $720 25 $583 $846 forward 7 unknown #
straight-curve $-1 -50.00006993745105177 -86.60250000000002046 0 0 0 -1 I I #
vertex $-1 $585 $847 #
straight-curve $-1 -50 -86.60250000000002046 -20 0 0 1 I I #
cone-surface $-1 -100 50 50 1 0 -3.491481338843129805e-15 -3.4914813388431302e-14 0 -10 1 I I 0 1 10 forward I I I I #
face $-1 $599 $671 $2 $-1 $736 forward single #
cone-surface $-1 100 50 50 1 0 -3.491481338843129805e-15 -5.237222008264700033e-14 0 -15 1 I I 0 1 15 forward I I I I #
edge $-1 $729 -1.369438406004565678 $710 -1.292206624403246185 $593 $306 forward 7 unknown #
coedge $-1 $848 $594 $596 $731 forward $728 $-1 #
coedge $-1 $594 $840 $838 $849 forward $728 $-1 #
loop $-1 $-1 $727 $850 #
vertex $-1 $595 $851 #
straight-curve $-1 20 97.97958971132709394 0 0 0 1 I I #
edge $-1 $597 -97.97958971132709394 $852 -31.72144385112380149 $726 $853 forward 7 unknown #
point $-1 20 97.97958971132709394 0 #
coedge $-1 $604 $854 $598 $734 reversed $397 $-1 #
edge $-1 $606 -2.133332571338752537 $852 -1.008260082251041023 $598 $855 forward 7 unknown #
face $-1 $163 $856 $2 $-1 $319 forward single #
plane-surface $-1 0 0 0 0 0 1 1 0 0 forward_v I I I I #
coedge $-1 $613 $612 $601 $738 reversed $611 $-1 #
edge $-1 $739 -40 $741 -31.72144385112380149 $601 $488 forward 7 unknown #
vertex $-1 $603 $857 #
ellipse-curve $-1 -20 50 49.99999999999970157 -1 0 0 -3.4914813388431302e-14 0 -10 1 I I #
vertex $-1 $614 $858 #
straight-curve $-1 -20 31.72144385112380149 0 0 0 -1 I I #
point $-1 -20 31.72144385112380149 0 #
loop $-1 $-1 $755 $610 #
ellipse-curve $-1 0 0 50 0 0 1 37.5 0 0 1 I I #
straight-curve $-1 -100 40 50 1 0 -3.491481338843129805e-15 I I #
face $-1 $859 $860 $2 $-1 $861 reversed single #
coedge $-1 $862 $693 $697 $824 reversed $619 $-1 #
coedge $-1 $863 $620 $794 $864 reversed $397 $-1 #
edge $-1 $797 0 $752 50 $674 $865 forward 7 unknown #
coedge $-1 $621 $755 $796 $866 reversed $744 $-1 #
vertex $-1 $750 $867 #
ellipse-curve $-1 0 0 50 0 0 1 37.5 0 0 1 I I #
point $-1 -27.5 -25.49509756796389937 50 #
coedge $-1 $751 $625 $682 $802 reversed $744 $-1 #
vertex $-1 $627 $868 #
ellipse-curve $-1 0 0 -75 0 0 1 37.5 0 0 1 I I #
coedge $-1 $630 $629 $869 $870 reversed $406 $-1 #
coedge $-1 $631 $871 $663 $785 forward $34 $-1 #
vertex $-1 $665 $872 #
straight-curve $-1 50.00006993745105177 86.60250000000002046 0 0 0 -1 I I #
coedge $-1 $869 $637 $633 $763 forward $768 $-1 #
edge $-1 $639 -86.60250000000002046 $764 86.60250000000002046 $762 $873 forward 7 unknown #
vertex $-1 $763 $874 #
straight-curve $-1 75 86.60250000000002046 15 1 0 0 I I #
point $-1 50.00006993745105177 86.60250000000002046 15 #
coedge $-1 $637 $774 $641 $771 forward $768 $-1 #
loop $-1 $-1 $774 $432 #
straight-curve $-1 50 -86.60250000000002046 20 0 0 1 I I #
point $-1 50 -86.60250000000002046 15 #
edge $-1 $776 -86.60254037844390496 $643 -86.60250000000002046 $767 $875 forward 7 unknown #
point $-1 50 -86.60250000000002046 25 #
coedge $-1 $697 $645 $876 $877 reversed $34 $-1 #
coedge $-1 $767 $878 $645 $775 reversed $768 $-1 #
edge $-1 $776 25 $879 75 $645 $880 forward 7 unknown #
vertex $-1 $646 $881 #
ellipse-curve $-1 0 0 25 0 0 -1 100 0 0 1 I I #
point $-1 -50.00006993745105177 -86.60250000000002046 -15 #
straight-curve $-1 -75 86.60250000000002046 -15 -1 0 0 I I #
straight-curve $-1 -50 0 -15 0 1 0 I I #
point $-1 -50 86.60250000000002046 -15 #
coedge $-1 $782 $782 $882 $883 forward $661 $-1 #
coedge $-1 $783 $783 $662 $784 reversed $714 $-1 #
edge $-1 $884 -3.141592653589799777 $884 3.141592653589786455 $662 $885 forward 7 unknown #
edge $-1 $886 -1.047197551196597853 $760 -1.047196743628285631 $759 $777 forward 7 unknown #
coedge $-1 $887 $869 $664 $787 forward $768 $-1 #
edge $-1 $788 86.60250000000002046 $886 86.60254037844390496 $786 $875 forward 7 unknown #
vertex $-1 $787 $888 #
straight-curve $-1 75 86.60250000000002046 25 1 0 0 I I #
coedge $-1 $695 $889 $667 $791 reversed $821 $-1 #
edge $-1 $699 -50 $793 0 $667 $890 forward 7 unknown #
coedge $-1 $794 $668 $889 $891 reversed $671 $-1 #
vertex $-1 $669 $892 #
coedge $-1 $670 $792 $749 $864 forward $671 $-1 #
point $-1 0 -100 0 #
coedge $-1 $676 $674 $751 $866 forward $550 $-1 #
vertex $-1 $675 $893 #
coedge $-1 $682 $678 $676 $799 reversed $591 $-1 #
edge $-1 $894 -1.570796326794926534 $680 1.570796326794926534 $676 $895 forward 7 unknown #
straight-curve $-1 -100 -60 50 1 0 -3.491481338843129805e-15 I I #
point $-1 -20 -60 50 #
edge $-1 $894 -80 $683 -72.5 $682 $896 forward 7 unknown #
point $-1 -27.5 -40 50 #
coedge $-1 $703 $687 $897 $898 reversed $562 $-1 #
coedge $-1 $689 $688 $899 $900 reversed $452 $-1 #
coedge $-1 $818 $901 $688 $807 forward $619 $-1 #
edge $-1 $902 25.49509756796389937 $813 35 $806 $705 forward 7 unknown #
coedge $-1 $903 $820 $689 $809 forward $821 $-1 #
edge $-1 $814 -35 $904 -31.72144385112380149 $808 $823 forward 7 unknown #
coedge $-1 $816 $690 $820 $905 reversed $812 $-1 #
coedge $-1 $690 $816 $818 $906 forward $812 $-1 #
loop $-1 $-1 $816 $747 #
vertex $-1 $691 $907 #
vertex $-1 $905 $908 #
straight-curve $-1 100 -35 50 -1 0 3.491481338843129805e-15 I I #
coedge $-1 $811 $810 $692 $817 forward $812 $-1 #
edge $-1 $822 -80 $819 -72.5 $816 $909 forward 7 unknown #
coedge $-1 $693 $806 $811 $906 reversed $619 $-1 #
vertex $-1 $817 $910 #
coedge $-1 $808 $695 $810 $905 forward $821 $-1 #
loop $-1 $-1 $695 $859 #
vertex $-1 $817 $911 #
straight-curve $-1 20 0 50 0 1 0 I I #
edge $-1 $912 -75 $698 -50 $697 $913 forward 7 unknown #
point $-1 27.5 -96.14442261514710708 50 #
point $-1 20 -97.97958971132709394 50 #
coedge $-1 $914 $915 $700 $828 forward $856 $-1 #
edge $-1 $836 -96.14442261514710708 $831 -25.49509756796389937 $827 $916 forward 7 unknown #
coedge $-1 $854 $701 $703 $833 forward $397 $-1 #
coedge $-1 $701 $917 $914 $918 reversed $397 $-1 #
vertex $-1 $702 $919 #
straight-curve $-1 27.5 25.49509756796389937 0 0 0 -1 I I #
edge $-1 $704 0.7475843496690203205 $920 1.008260082251041023 $829 $745 forward 7 unknown #
point $-1 27.5 25.49509756796389937 50 #
coedge $-1 $871 $706 $915 $921 reversed $34 $-1 #
vertex $-1 $921 $922 #
straight-curve $-1 27.5 96.14442261514710708 0 0 0 1 I I #
coedge $-1 $709 $708 $727 $849 reversed $686 $-1 #
point $-1 27.5 96.14442261514710708 50 #
coedge $-1 $727 $897 $711 $841 forward $728 $-1 #
edge $-1 $844 -1.570796326794876796 $842 1.570796326794876796 $840 $923 forward 7 unknown #
vertex $-1 $841 $924 #
straight-curve $-1 100 65 50 -1 0 3.491481338843129805e-15 I I #
vertex $-1 $898 $925 #
straight-curve $-1 100 35 50 1 0 -3.491481338843129805e-15 I I #
straight-curve $-1 -75 -86.60250000000002046 -15 1 0 0 I I #
point $-1 -50 -86.60250000000002046 -15 #
coedge $-1 $897 $726 $854 $926 forward $728 $-1 #
edge $-1 $842 65 $729 97.97958971132709394 $727 $927 forward 7 unknown #
face $-1 $588 $728 $2 $-1 $928 forward single #
point $-1 20 97.97958971132709394 50 #
vertex $-1 $731 $929 #
straight-curve $-1 20 0 0 0 -1 0 I I #
coedge $-1 $733 $829 $848 $926 reversed $397 $-1 #
ellipse-curve $-1 0 0 0 0 0 -1 37.5 0 0 1 I I #
loop $-1 $-1 $930 $735 #
point $-1 -20 40 50 #
point $-1 -20 31.72144385112380149 50 #
face $-1 $850 $821 $2 $-1 $928 forward single #
loop $-1 $812 $882 $747 #
cone-surface $-1 100 -50 50 1 0 -3.491481338843129805e-15 -5.237222008264700033e-14 0 -15 1 I I 0 1 15 forward I I I I #
coedge $-1 $901 $748 $930 $931 reversed $619 $-1 #
coedge $-1 $899 $749 $903 $932 reversed $397 $-1 #
edge $-1 $933 1.008260082251041023 $797 2.133332571338752537 $794 $934 forward 7 unknown #
straight-curve $-1 -20 -31.72144385112380149 0 0 0 1 I I #
edge $-1 $752 31.72144385112380149 $894 40 $796 $681 forward 7 unknown #
point $-1 -20 -31.72144385112380149 50 #
point $-1 -37.5 2.618611004132350143e-13 -75 #
coedge $-1 $786 $762 $758 $870 forward $768 $-1 #
edge $-1 $764 -5 $788 5 $869 $935 forward 7 unknown #
coedge $-1 $759 $835 $887 $936 forward $34 $-1 #
point $-1 50.00006993745105177 86.60250000000002046 25 #
straight-curve $-1 50 0 15 0 1 0 I I #
point $-1 50 86.60250000000002046 15 #
straight-curve $-1 50 0 25 0 1 0 I I #
coedge $-1 $937 $930 $773 $877 forward $856 $-1 #
edge $-1 $912 -1.292206624403246185 $879 -1.047197551196597853 $876 $182 forward 7 unknown #
coedge $-1 $774 $887 $937 $938 reversed $768 $-1 #
vertex $-1 $877 $939 #
straight-curve $-1 50 -86.60254037844390496 0 0 0 1 I I #
point $-1 50 -86.60254037844390496 25 #
coedge $-1 $882 $882 $782 $883 reversed $860 $-1 #
edge $-1 $940 -3.141592653589799777 $940 3.141592653589786455 $782 $941 forward 7 unknown #
vertex $-1 $784 $942 #
ellipse-curve $-1 50 50 50.00000000000019895 -1 0 0 -5.237222008264700033e-14 0 -15 1 I I #
vertex $-1 $785 $943 #
coedge $-1 $878 $786 $871 $936 reversed $768 $-1 #
point $-1 50 86.60250000000002046 25 #
coedge $-1 $790 $903 $792 $891 forward $821 $-1 #
straight-curve $-1 20 -97.97958971132709394 0 0 0 -1 I I #
edge $-1 $933 31.72144385112380149 $793 97.97958971132709394 $889 $853 forward 7 unknown #
point $-1 20 -97.97958971132709394 0 #
point $-1 -20 -31.72144385112380149 0 #
vertex $-1 $866 $944 #
ellipse-curve $-1 -20 -50 49.99999999999970157 -1 0 0 -3.4914813388431302e-14 0 -10 1 I I #
straight-curve $-1 -100 -40 50 -1 0 3.491481338843129805e-15 I I #
coedge $-1 $840 $848 $804 $898 forward $728 $-1 #
edge $-1 $920 31.72144385112380149 $844 35 $897 $927 forward 7 unknown #
coedge $-1 $917 $863 $805 $900 forward $397 $-1 #
edge $-1 $904 -1.008260082251041023 $902 -0.7475843496690203205 $899 $753 forward 7 unknown #
coedge $-1 $806 $862 $917 $945 reversed $619 $-1 #
vertex $-1 $900 $946 #
coedge $-1 $889 $808 $863 $932 forward $821 $-1 #
vertex $-1 $900 $947 #
edge $-1 $822 -1.570796326794876796 $814 1.570796326794876796 $820 $948 forward 7 unknown #
edge $-1 $819 1.570796326794876796 $813 4.712388980384709214 $811 $949 forward 7 unknown #
point $-1 27.5 -35 50 #
point $-1 20 -35 50 #
straight-curve $-1 100 -65 50 1 0 -3.491481338843129805e-15 I I #
point $-1 27.5 -65 50 #
point $-1 20 -65 50 #
vertex $-1 $931 $950 #
straight-curve $-1 27.5 -96.14442261514710708 0 0 0 -1 I I #
coedge $-1 $930 $827 $830 $918 forward $856 $-1 #
coedge $-1 $827 $937 $835 $921 forward $856 $-1 #
straight-curve $-1 27.5 0 75 0 -1 0 I I #
coedge $-1 $830 $899 $901 $945 forward $397 $-1 #
edge $-1 $831 -0.7475843496690203205 $951 0.7475843496690203205 $914 $952 forward 7 unknown #
point $-1 27.5 25.49509756796389937 75 #
vertex $-1 $926 $953 #
edge $-1 $954 1.047197551196597853 $836 1.292206624403246185 $915 $182 forward 7 unknown #
point $-1 27.5 96.14442261514710708 75 #
ellipse-curve $-1 20 50 50.00000000000029843 1 0 0 -5.237222008264700033e-14 0 -15 1 I I #
point $-1 20 65 50 #
point $-1 20 35 50 #
edge $-1 $852 0 $920 50 $848 $955 forward 7 unknown #
straight-curve $-1 20 0 50 0 1 0 I I #
plane-surface $-1 20 0 37.5 -1 0 0 0 0 1 forward_v I I I I #
point $-1 20 31.72144385112380149 0 #
coedge $-1 $876 $914 $862 $931 forward $856 $-1 #
edge $-1 $951 25.49509756796389937 $912 96.14442261514710708 $930 $916 forward 7 unknown #
edge $-1 $904 -50 $933 0 $903 $956 forward 7 unknown #
vertex $-1 $932 $957 #
ellipse-curve $-1 0 0 0 0 0 -1 37.5 0 0 1 I I #
straight-curve $-1 50 86.60250000000002046 20 0 0 1 I I #
edge $-1 $954 -75 $886 -25 $871 $958 forward 7 unknown #
coedge $-1 $915 $876 $878 $938 forward $856 $-1 #
edge $-1 $879 -86.60254037844390496 $954 86.60254037844390496 $937 $959 forward 7 unknown #
point $-1 50 -86.60254037844390496 75 #
vertex $-1 $883 $960 #
ellipse-curve $-1 50 -50 50.00000000000019895 -1 0 0 -5.237222008264700033e-14 0 -15 1 I I #
point $-1 50 49.99999999999990052 65.00000000000019895 #
point $-1 50 86.60254037844390496 25 #
point $-1 -20 -40 50 #
edge $-1 $902 50 $951 75 $917 $961 forward 7 unknown #
point $-1 27.5 -25.49509756796389937 50 #
point $-1 20 -31.72144385112380149 50 #
ellipse-curve $-1 20 -50 50.00000000000029843 1 0 0 -5.237222008264700033e-14 0 -15 1 I I #
ellipse-curve $-1 27.5 -50 50.00000000000029843 -1 0 0 -5.237222008264700033e-14 0 -15 1 I I #
point $-1 27.5 -96.14442261514710708 75 #
vertex $-1 $918 $962 #
ellipse-curve $-1 0 0 75 0 0 -1 37.5 0 0 1 I I #
point $-1 20 31.72144385112380149 50 #
vertex $-1 $936 $963 #
straight-curve $-1 20 31.72144385112380149 0 0 0 1 I I #
straight-curve $-1 20 -31.72144385112380149 0 0 0 -1 I I #
point $-1 20 -31.72144385112380149 0 #
straight-curve $-1 50 86.60254037844390496 0 0 0 -1 I I #
straight-curve $-1 50 0 75 0 1 0 I I #
point $-1 50 -50.00000000000009948 65.00000000000019895 #
straight-curve $-1 27.5 -25.49509756796389937 0 0 0 1 I I #
point $-1 27.5 -25.49509756796389937 75 #
point $-1 50 86.60254037844390496 75 #
End-of-ACIS-data 