500 0 1 0           
7 Unknown 13 ACIS 5.0.1 NT 24 Wed Aug 11 21:55:41 1999 
-1 9.9999999999999995e-007 1e-010 
body $1 $2 $-1 $3 #
rgb_color-st-attrib $-1 $4 $-1 $0 1 1 1 #
lump $-1 $-1 $5 $0 #
transform $-1 0 -1 0 1 0 0 0 0 1 -5 10 40 1 rotate no_reflect no_shear #
ref_vt-eye-attrib $-1 $-1 $1 $0 $6 $-1 #
shell $-1 $-1 $-1 $7 $-1 $2 #
eye_refinement $-1 5 grid  2 3 tri 1 4 surf 7 3 adj 0 4 grad 0 9 postcheck 0 4 stol 0 4 ntol 11.25 4 dsil 0 8 flatness 0 7 pixarea 0 4 hmax 0 6 gridar 1 5 mgrid 300 5 ugrid 0 5 vgrid 0 10 end_fields #
face $-1 $8 $9 $5 $-1 $10 reversed single #
face $-1 $11 $12 $5 $-1 $13 forward single #
loop $-1 $-1 $14 $7 #
spline-surface $-1 forward { netsur 2 
	0 
	intcurve forward { exactcur full nubs 1 open 2 
	0 1 50 1 
	25 -50 40 
	-25 -50 40 
	0 
	null_surface 
	null_surface 
	nullbs 
	nullbs 
	I I 
	0 
	0 
	0 
	F 1 F 0 } F 0 F 50 
	1 
	intcurve forward { exactcur full nubs 1 open 2 
	0 1 50 1 
	25 50 40 
	-25 50 40 
	0 
	null_surface 
	null_surface 
	nullbs 
	nullbs 
	I I 
	0 
	0 
	0 
	F 1 F 0 } F 0 F 50 
	3 
	0 
	intcurve forward { exactcur full nurbs 2 open 5 
	-2.3561944901923448 2 -0.78539816339744828 2 0.78539816339744828 2 2.3561944901923448 2 3.9269908169872414 2 
	25 -50 40 1 
	25 -37.5 27.5 0.70710678118654768 
	25 -25 40 1 
	25 -12.5 52.5 0.70710678118654768 
	25 0 40 1 
	25 12.5 27.5 0.70710678118654768 
	25 25 40 1 
	25 37.5 52.5 0.70710678118654768 
	25 50 40 1 
	0 
	null_surface 
	null_surface 
	nullbs 
	nullbs 
	I I 
	0 
	3 -0.78539816339744828 0.78539816339744828 2.3561944901923448 
	0 
	F 1 F 0 } F -2.3561944901923448 F 3.9269908169872414 
	0.49999999999999994 
	intcurve forward { exactcur full nurbs 2 open 5 
	0.78539816339744828 2 2.3561944901923448 2 3.9269908169872414 2 5.497787143782138 2 7.0685834705770345 2 
	0 -50 40 1 
	0 -37.5 52.5 0.70710678118654768 
	0 -25 40 1 
	0 -12.5 27.5 0.70710678118654768 
	0 0 40 1 
	0 12.5 52.5 0.70710678118654768 
	0 25 40 1 
	0 37.5 27.5 0.70710678118654768 
	0 50 40 1 
	0 
	null_surface 
	null_surface 
	nullbs 
	nullbs 
	I I 
	0 
	3 2.3561944901923448 3.9269908169872414 5.497787143782138 
	0 
	F 1 F 0 } F 0.78539816339744828 F 7.0685834705770345 
	1 
	intcurve forward { exactcur full nurbs 2 open 5 
	-2.3561944901923448 2 -0.78539816339744828 2 0.78539816339744828 2 2.3561944901923448 2 3.9269908169872414 2 
	-25 -50 40 1 
	-25 -37.5 27.5 0.70710678118654768 
	-25 -25 40 1 
	-25 -12.5 52.5 0.70710678118654768 
	-25 0 40 1 
	-25 12.5 27.5 0.70710678118654768 
	-25 25 40 1 
	-25 37.5 52.5 0.70710678118654768 
	-25 50 40 1 
	0 
	null_surface 
	null_surface 
	nullbs 
	nullbs 
	I I 
	0 
	3 -0.78539816339744828 0.78539816339744828 2.3561944901923448 
	0 
	F 1 F 0 } F -2.3561944901923448 F 3.9269908169872414 
	0 0 
	1 0 
	0 0.5 
	1 0.5 
	0 1 
	1 1 
	full nubs 3 3 open open none none 3 60 
	0 3 0.49999999999999994 2 1 3 
	0 3 0.020994137591032136 2 0.041988275182064327 2 0.062982412773096519 2 0.08397655036412871 2 
	0.1049706879551609 2 0.12596482554619307 2 0.14695896313722526 2 0.16795310072825742 2 0.18850177657872905 2 
	0.1987761145039649 2 0.20905045242920073 2 0.21932479035443653 2 0.22959912827967235 2 0.23987346620490821 2 
	0.25014780413014404 2 0.26042214205537983 2 0.27069647998061563 2 0.28097081790585149 2 0.29124515583108729 2 
	0.30151949375632314 2 0.31179383168155894 2 0.3323425075320306 2 0.35300505346653854 2 0.37366759940104649 2 
	0.39433014533555444 2 0.41499269127006239 2 0.43565523720457033 2 0.45631778313907828 2 0.47698032907358623 2 
	0.49764287500809418 2 0.50810959359079311 2 0.51857631217349209 2 0.53950974933888984 2 0.5604431865042877 2 
	0.58137662366968557 2 0.59184334225238455 2 0.60231006083508343 2 0.62324349800048129 2 0.64417693516587926 2 
	0.66511037233127701 2 0.6862226657260172 2 0.69677881242338724 2 0.70733495912075739 2 0.71789110581812743 2 
	0.72844725251549747 2 0.73900339921286751 2 0.74955954591023755 2 0.79178413269971792 2 0.80234027939708796 2 
	0.812896426094458 2 0.83400871948919819 2 0.85475762955304835 2 0.87550653961689862 2 0.89625544968074877 2 
	0.91700435974459904 2 0.93775326980844942 2 0.95850217987229958 2 0.97925108993614984 2 1 3 
	25 -50 40 
	16.666666666666664 -50 40 
	8.3333333333333286 -50 40 
	-8.3333333333333286 -50 40 
	-16.666666666666671 -50 40 
	-25 -50 40 
	25 -49.505163431473925 39.505163431473932 
	16.666666666666664 -49.505163431473925 39.835054477157982 
	8.3333333333333286 -49.505163431473925 40.494836568526068 
	-8.3333333333333286 -49.505163431473925 40.494836568526068 
	-16.666666666666671 -49.505163431473925 39.835054477157982 
	-25 -49.505163431473925 39.505163431473932 
	25.000000000000007 -48.968584727235573 39.027487266013679 
	16.666666666666671 -48.968584727235573 39.666492023372356 
	8.3333333333333428 -48.968584727235573 40.972512733986321 
	-8.3333333333333286 -48.968584727235573 40.972512733986321 
	-16.666666666666657 -48.968584727235573 39.666492023372356 
	-24.999999999999986 -48.968584727235573 39.027487266013679 
	25.000000000000007 -47.814146430003696 38.124485454995124 
	16.666666666666671 -47.814146430003696 39.341907776520102 
	8.3333333333333428 -47.814146430003696 41.875514545004876 
	-8.3333333333333286 -47.814146430003696 41.875514545004876 
	-16.666666666666657 -47.814146430003696 39.341907776520102 
	-24.999999999999986 -47.814146430003696 38.124485454995124 
	25 -47.196264856452629 37.699209662074409 
	16.666666666666664 -47.196264856452629 39.185935836091033 
	8.3333333333333428 -47.196264856452629 42.300790337925591 
	-8.3333333333333286 -47.196264856452629 42.300790337925591 
	-16.666666666666671 -47.196264856452629 39.185935836091033 
	-25 -47.196264856452629 37.699209662074409 
	25 -45.886333187986608 36.919551917425977 
	16.666666666666664 -45.886333187986608 38.906820746078836 
	8.3333333333333428 -45.886333187986608 43.080448082574023 
	-8.3333333333333286 -45.886333187986608 43.080448082574023 
	-16.666666666666671 -45.886333187986608 38.906820746078836 
	-25 -45.886333187986608 36.919551917425977 
	25.000000000000007 -45.194280935021048 36.565231172245561 
	16.666666666666671 -45.194280935021048 38.783738803042993 
	8.3333333333333428 -45.194280935021048 43.434768827754439 
	-8.3333333333333286 -45.194280935021048 43.434768827754439 
	-16.666666666666657 -45.194280935021048 38.783738803042993 
	-24.999999999999986 -45.194280935021048 36.565231172245561 
	25.000000000000007 -43.748489937521903 35.944783595443695 
	16.666666666666671 -43.748489937521903 38.589448589019028 
	8.3333333333333428 -43.748489937521903 44.055216404556305 
	-8.3333333333333286 -43.748489937521903 44.055216404556305 
	-16.666666666666657 -43.748489937521903 38.589448589019028 
	-24.999999999999986 -43.748489937521903 35.944783595443695 
	25.000000000000014 -42.994774787138212 35.678719766800327 
	16.666666666666686 -42.994774787138212 38.518303321009014 
	8.3333333333333428 -42.994774787138212 44.321280233199658 
	-8.3333333333333144 -42.994774787138212 44.321280233199658 
	-16.6666666666667 -42.994774787138212 38.518303321009014 
	-25.000000000000028 -42.994774787138212 35.678719766800327 
	25.000000000000014 -41.443207094378039 35.248938106422258 
	16.666666666666686 -41.443207094378039 38.443783349222301 
	8.3333333333333428 -41.443207094378039 44.751061893577756 
	-8.3333333333333144 -41.443207094378039 44.751061893577756 
	-16.6666666666667 -41.443207094378039 38.443783349222301 
	-25.000000000000028 -41.443207094378039 35.248938106422258 
	25 -40.645404326582778 35.08527236668948 
	16.666666666666664 -40.645404326582778 38.440460737447538 
	8.3333333333333357 -40.645404326582778 44.914727633310548 
	-8.3333333333333286 -40.645404326582778 44.914727633310548 
	-16.666666666666657 -40.645404326582778 38.440460737447538 
	-25 -40.645404326582778 35.08527236668948 
	25 -39.027172015632331 34.869513547416119 
	16.666666666666664 -39.027172015632331 38.51255755025069 
	8.3333333333333357 -39.027172015632331 45.130486452583909 
	-8.3333333333333286 -39.027172015632331 45.130486452583909 
	-16.666666666666657 -39.027172015632331 38.51255755025069 
	-25 -39.027172015632331 34.869513547416119 
	25.000000000000007 -38.206811741651478 34.817449459042109 
	16.666666666666671 -38.206811741651478 38.588005965995222 
	8.3333333333333357 -38.206811741651478 45.182550540957919 
	-8.3333333333333286 -38.206811741651478 45.182550540957919 
	-16.666666666666686 -38.206811741651478 38.588005965995208 
	-25.000000000000014 -38.206811741651478 34.817449459042109 
	25.000000000000007 -36.567117881334028 34.827934262674887 
	16.666666666666671 -36.567117881334028 38.822429962861492 
	8.3333333333333357 -36.567117881334028 45.172065737325141 
	-8.3333333333333286 -36.567117881334028 45.172065737325141 
	-16.666666666666686 -36.567117881334028 38.822429962861477 
	-25.000000000000014 -36.567117881334028 34.827934262674887 
	25.000000000000007 -35.747860357257935 34.890481700099386 
	16.666666666666671 -35.747860357257935 38.981404089400897 
	8.3333333333333428 -35.747860357257935 45.109518299900614 
	-8.3333333333333286 -35.747860357257935 45.109518299900614 
	-16.666666666666657 -35.747860357257935 38.981404089400897 
	-25 -35.747860357257935 34.890481700099386 
	25.000000000000007 -34.133934567551734 35.126608518004318 
	16.666666666666671 -34.133934567551734 39.381043279368001 
	8.3333333333333428 -34.133934567551734 44.873391481995682 
	-8.3333333333333286 -34.133934567551734 44.873391481995682 
	-16.666666666666657 -34.133934567551734 39.381043279368001 
	-25 -34.133934567551734 35.126608518004318 
	25 -33.339334238782349 35.300156375526825 
	16.666666666666664 -33.339334238782349 39.621676819837717 
	8.333333333333357 -33.339334238782349 44.699843624473147 
	-8.3333333333333144 -33.339334238782349 44.699843624473147 
	-16.666666666666671 -33.339334238782349 39.621676819837717 
	-25 -33.339334238782349 35.300156375526825 
	25 -31.812350563190243 35.743828273810053 
	16.666666666666664 -31.812350563190243 40.170793210086728 
	8.333333333333357 -31.812350563190243 44.256171726189919 
	-8.3333333333333144 -31.812350563190243 44.256171726189919 
	-16.666666666666671 -31.812350563190243 40.170793210086728 
	-25 -31.812350563190243 35.743828273810053 
	25 -31.079042329333269 36.011767317875851 
	16.666666666666664 -31.079042329333269 40.477670397792252 
	8.3333333333333357 -31.079042329333269 43.988232682124163 
	-8.3333333333333286 -31.079042329333269 43.988232682124163 
	-16.666666666666657 -31.079042329333269 40.477670397792252 
	-25 -31.079042329333269 36.011767317875851 
	25 -30.024119091706396 36.476304008060396 
	16.666666666666664 -30.024119091706396 40.982013219411215 
	8.3333333333333357 -30.024119091706396 43.523695991939618 
	-8.3333333333333286 -30.024119091706396 43.523695991939618 
	-16.666666666666657 -30.024119091706396 40.982013219411215 
	-25 -30.024119091706396 36.476304008060396 
	25 -29.679951271890246 36.641557986616831 
	16.666666666666664 -29.679951271890246 41.157435727774924 
	8.3333333333333357 -29.679951271890246 43.358442013383169 
	-8.3333333333333286 -29.679951271890246 43.358442013383169 
	-16.666666666666671 -29.679951271890246 41.157435727774924 
	-25 -29.679951271890246 36.641557986616831 
	25 -29.008140706963843 36.990916501961735 
	16.666666666666664 -29.008140706963843 41.52113545173296 
	8.3333333333333357 -29.008140706963843 43.009083498038265 
	-8.3333333333333286 -29.008140706963843 43.009083498038265 
	-16.666666666666671 -29.008140706963843 41.52113545173296 
	-25 -29.008140706963843 36.990916501961735 
	25 -28.680498201978821 37.175019246504348 
	16.666666666666664 -28.680498201978821 41.709410875081446 
	8.3333333333333357 -28.680498201978821 42.824980753495652 
	-8.3333333333333286 -28.680498201978821 42.824980753495652 
	-16.666666666666643 -28.680498201978821 41.709410875081446 
	-24.999999999999972 -28.680498201978821 37.175019246504348 
	25 -28.043011798517114 37.559985903041309 
	16.666666666666664 -28.043011798517114 42.096931548569088 
	8.3333333333333357 -28.043011798517114 42.440014096958691 
	-8.3333333333333286 -28.043011798517114 42.440014096958691 
	-16.666666666666643 -28.043011798517114 42.096931548569088 
	-24.999999999999972 -28.043011798517114 37.559985903041309 
	25 -27.733167800492865 37.760848097653934 
	16.666666666666664 -27.733167800492865 42.29617508132651 
	8.3333333333333286 -27.733167800492865 42.239151902346038 
	-8.3333333333333286 -27.733167800492865 42.239151902346038 
	-16.666666666666671 -27.733167800492865 42.29617508132651 
	-25 -27.733167800492865 37.760848097653934 
	25 -27.132243720796325 38.177177661201199 
	16.666666666666664 -27.132243720796325 42.703680490842657 
	8.3333333333333286 -27.132243720796325 41.822822338798773 
	-8.3333333333333286 -27.132243720796325 41.822822338798773 
	-16.666666666666671 -27.132243720796325 42.703680490842657 
	-25 -27.132243720796325 38.177177661201199 
	25 -26.841163243301182 38.392643451454973 
	16.666666666666664 -26.841163243301182 42.911940788920489 
	8.3333333333333286 -26.841163243301182 41.607356548545027 
	-8.3333333333333286 -26.841163243301182 41.607356548545027 
	-16.666666666666657 -26.841163243301182 42.911940788920475 
	-24.999999999999986 -26.841163243301182 38.392643451454973 
	25 -26.278430905540645 38.836007287326112 
	16.666666666666664 -26.278430905540645 43.335511320459332 
	8.3333333333333286 -26.278430905540645 41.163992712673888 
	-8.3333333333333286 -26.278430905540645 41.163992712673888 
	-16.666666666666657 -26.278430905540645 43.335511320459318 
	-24.999999999999986 -26.278430905540645 38.836007287326112 
	25 -26.006778406921455 39.06390394045323 
	16.666666666666664 -26.006778406921455 43.550820161430096 
	8.3333333333333428 -26.006778406921455 40.93609605954677 
	-8.3333333333333286 -26.006778406921455 40.93609605954677 
	-16.666666666666686 -26.006778406921455 43.550820161430082 
	-25.000000000000014 -26.006778406921455 39.06390394045323 
	25 -25.483281849295309 39.529984394939987 
	16.666666666666664 -25.483281849295309 43.986547181964056 
	8.3333333333333428 -25.483281849295324 40.470015605060013 
	-8.3333333333333286 -25.483281849295324 40.470015605060013 
	-16.666666666666686 -25.483281849295309 43.986547181964042 
	-25.000000000000014 -25.483281849295309 39.529984394939987 
	24.999999999999993 -25.231997305915414 39.768399120158278 
	16.666666666666657 -25.231997305915414 44.207196285385905 
	8.3333333333333499 -25.231997305915414 40.231600879841693 
	-8.3333333333333144 -25.231997305915414 40.231600879841693 
	-16.666666666666657 -25.231997305915414 44.207196285385905 
	-24.999999999999986 -25.231997305915414 39.768399120158278 
	24.999999999999993 -24.74708767554641 40.252498415479891 
	16.666666666666657 -24.74708767554641 44.650791037814869 
	8.3333333333333499 -24.74708767554641 39.74750158452008 
	-8.3333333333333144 -24.74708767554641 39.74750158452008 
	-16.666666666666657 -24.74708767554641 44.650791037814869 
	-24.999999999999986 -24.74708767554641 40.252498415479891 
	25 -24.494670066151073 40.490414537866684 
	16.666666666666664 -24.494670066151073 44.86596823910547 
	8.3333333333333286 -24.494670066151073 39.509585462133316 
	-8.3333333333333428 -24.494670066151073 39.509585462133316 
	-16.666666666666657 -24.494670066151073 44.86596823910547 
	-24.999999999999986 -24.494670066151073 40.490414537866684 
	25 -23.970035181524892 40.955901039916284 
	16.666666666666664 -23.970035181524892 45.28120811000322 
	8.3333333333333286 -23.970035181524892 39.044098960083716 
	-8.3333333333333428 -23.970035181524892 39.044098960083716 
	-16.666666666666657 -23.970035181524892 45.28120811000322 
	-24.999999999999986 -23.970035181524892 40.955901039916284 
	25 -23.697817088611657 41.183470237237088 
	16.666666666666664 -23.697817088611657 45.481269597268408 
	8.3333333333333286 -23.697817088611657 38.816529762762912 
	-8.3333333333333428 -23.697817088611657 38.816529762762912 
	-16.666666666666671 -23.697817088611657 45.481269597268408 
	-25 -23.697817088611657 41.183470237237088 
	25 -23.133968601888938 41.626116842833937 
	16.666666666666664 -23.133968601888938 45.864336504134911 
	8.3333333333333286 -23.133968601888938 38.373883157166063 
	-8.3333333333333428 -23.133968601888938 38.373883157166063 
	-16.666666666666671 -23.133968601888938 45.864336504134911 
	-25 -23.133968601888938 41.626116842833937 
	25 -22.842337575894746 41.841192852756237 
	16.666666666666664 -22.842337575894746 46.047340525382452 
	8.3333333333333357 -22.842337575894746 38.158807147243763 
	-8.3333333333333286 -22.842337575894746 38.158807147243763 
	-16.666666666666657 -22.842337575894746 46.047340525382452 
	-25 -22.842337575894746 41.841192852756237 
	25 -22.240335899738994 42.256680369716165 
	16.666666666666664 -22.240335899738994 46.39432429671416 
	8.3333333333333357 -22.240335899738994 37.743319630283835 
	-8.3333333333333286 -22.240335899738994 37.743319630283835 
	-16.666666666666657 -22.240335899738994 46.39432429671416 
	-25 -22.240335899738994 42.256680369716165 
	25.000000000000007 -21.929964861564642 42.457090293337217 
	16.666666666666671 -21.929964861564642 46.558302463381693 
	8.3333333333333428 -21.929964861564642 37.542909706662769 
	-8.3333333333333286 -21.929964861564642 37.542909706662769 
	-16.666666666666671 -21.929964861564642 46.558302463381693 
	-25 -21.929964861564642 42.457090293337217 
	25.000000000000007 -21.291456679932139 42.841091120851303 
	16.666666666666671 -21.291456679932139 46.865284519050334 
	8.3333333333333428 -21.291456679932153 37.158908879148683 
	-8.3333333333333286 -21.291456679932153 37.158908879148683 
	-16.666666666666671 -21.291456679932139 46.865284519050334 
	-25 -21.291456679932139 42.841091120851303 
	25 -20.963319446155822 43.024680304242764 
	16.666666666666664 -20.963319446155822 47.008286687549827 
	8.3333333333333357 -20.963319446155793 36.97531969575725 
	-8.3333333333333286 -20.963319446155793 36.97531969575725 
	-16.666666666666671 -20.963319446155822 47.008286687549827 
	-25 -20.963319446155822 43.024680304242764 
	25 -20.290560611430664 43.372953095005585 
	16.666666666666664 -20.290560611430664 47.271434700930627 
	8.3333333333333357 -20.290560611430635 36.62704690499443 
	-8.3333333333333286 -20.290560611430635 36.62704690499443 
	-16.666666666666671 -20.290560611430664 47.271434700930627 
	-25 -20.290560611430664 43.372953095005585 
	25 -19.945939260877523 43.537634909069354 
	16.666666666666664 -19.945939260877523 47.391578752504316 
	8.3333333333333286 -19.945939260877523 36.462365090930646 
	-8.3333333333333428 -19.945939260877523 36.462365090930646 
	-16.666666666666686 -19.945939260877523 47.391578752504316 
	-25.000000000000014 -19.945939260877523 43.537634909069354 
	25 -18.889730226091956 44.000373554888881 
	16.666666666666664 -18.889730226091956 47.715084754966952 
	8.3333333333333286 -18.889730226091956 35.999626445111119 
	-8.3333333333333428 -18.889730226091956 35.999626445111119 
	-16.666666666666686 -18.889730226091956 47.715084754966952 
	-25.000000000000014 -18.889730226091956 44.000373554888881 
	24.999999999999993 -18.155664979423022 44.267004437763148 
	16.666666666666657 -18.155664979423022 47.881401401087714 
	8.3333333333333215 -18.155664979423022 35.732995562236908 
	-8.333333333333357 -18.155664979423022 35.732995562236908 
	-16.666666666666714 -18.155664979423022 47.8814014010877 
	-25.000000000000043 -18.155664979423022 44.267004437763148 
	24.999999999999993 -16.639614177058093 44.704344155638012 
	16.666666666666657 -16.639614177058093 48.10417090353198 
	8.3333333333333215 -16.639614177058093 35.295655844362031 
	-8.333333333333357 -16.639614177058093 35.295655844362031 
	-16.666666666666714 -16.639614177058093 48.104170903531966 
	-25.000000000000043 -16.639614177058093 44.704344155638012 
	25 -15.857427791084376 44.874462284087059 
	16.666666666666664 -15.857427791084376 48.15995887586466 
	8.3333333333333357 -15.857427791084376 35.125537715912969 
	-8.3333333333333428 -15.857427791084376 35.125537715912969 
	-16.666666666666657 -15.857427791084376 48.15995887586466 
	-25 -15.857427791084376 44.874462284087059 
	25 -14.269075746634542 45.107232378661308 
	16.666666666666664 -14.269075746634542 48.152234869703605 
	8.3333333333333357 -14.269075746634542 34.89276762133872 
	-8.3333333333333428 -14.269075746634542 34.89276762133872 
	-16.666666666666657 -14.269075746634542 48.152234869703605 
	-25 -14.269075746634542 45.107232378661308 
	25 -13.462972820192689 45.169855179477082 
	16.666666666666664 -13.462972820192689 48.088693725900441 
	8.3333333333333286 -13.462972820192689 34.830144820522889 
	-8.3333333333333428 -13.462972820192689 34.830144820522889 
	-16.666666666666671 -13.462972820192689 48.088693725900441 
	-25 -13.462972820192689 45.169855179477082 
	25 -11.84922197406128 45.184105481394255 
	16.666666666666664 -11.84922197406128 47.840445782761606 
	8.3333333333333286 -11.84922197406128 34.815894518605717 
	-8.3333333333333428 -11.84922197406128 34.815894518605717 
	-16.666666666666671 -11.84922197406128 47.840445782761606 
	-25 -11.84922197406128 45.184105481394255 
	25 -11.041644304202137 45.135731126868407 
	16.666666666666664 -11.041644304202137 47.655737127798702 
	8.3333333333333215 -11.041644304202137 34.864268873131621 
	-8.3333333333333428 -11.041644304202137 34.864268873131621 
	-16.666666666666657 -11.041644304202137 47.655737127798702 
	-25 -11.041644304202137 45.135731126868407 
	25 -9.4475287149324316 44.930669314989004 
	16.666666666666664 -9.4475287149324316 47.169499791911491 
	8.3333333333333215 -9.4475287149324316 35.069330685011025 
	-8.3333333333333428 -9.4475287149324316 35.069330685011025 
	-16.666666666666657 -9.4475287149324316 47.169499791911491 
	-25 -9.4475287149324316 44.930669314989004 
	24.999999999999993 -8.6610552035259474 44.774007778630605 
	16.666666666666657 -8.6610552035259474 46.867997031982355 
	8.3333333333333286 -8.6610552035259474 35.225992221369395 
	-8.3333333333333428 -8.6610552035259474 35.225992221369395 
	-16.666666666666686 -8.6610552035259474 46.867997031982355 
	-25.000000000000014 -8.6610552035259474 44.774007778630605 
	24.999999999999993 -7.1298110611726173 44.360898927633187 
	16.666666666666657 -7.1298110611726173 46.158362243394265 
	8.3333333333333286 -7.1298110611726173 35.639101072366813 
	-8.3333333333333428 -7.1298110611726173 35.639101072366813 
	-16.666666666666686 -7.1298110611726173 46.158362243394265 
	-25.000000000000014 -7.1298110611726173 44.360898927633187 
	25 -6.3850874881136548 44.104498930470797 
	16.666666666666664 -6.3850874881136548 45.750277532211925 
	8.3333333333333428 -6.3850874881136548 35.895501069529232 
	-8.3333333333333144 -6.3850874881136548 35.895501069529232 
	-16.666666666666671 -6.3850874881136548 45.750277532211925 
	-25 -6.3850874881136548 44.104498930470797 
	25 -4.9543717066550954 43.505156463424626 
	16.666666666666664 -4.9543717066550954 44.842385579361093 
	8.3333333333333428 -4.9543717066550954 36.494843536575402 
	-8.3333333333333144 -4.9543717066550954 36.494843536575402 
	-16.666666666666671 -4.9543717066550954 44.842385579361093 
	-25 -4.9543717066550954 43.505156463424626 
	25 -4.2684029112389936 43.162271911693168 
	16.666666666666664 -4.2684029112389936 44.342636255844951 
	8.3333333333333286 -4.2684029112389936 36.837728088306818 
	-8.3333333333333286 -4.2684029112389936 36.837728088306818 
	-16.666666666666671 -4.2684029112389936 44.342636255844951 
	-25 -4.2684029112389936 43.162271911693168 
	25 -2.9675148833509155 42.406296641633546 
	16.666666666666664 -2.9675148833509155 43.269414817135612 
	8.3333333333333286 -2.9675148833509155 37.593703358366469 
	-8.3333333333333286 -2.9675148833509155 37.593703358366469 
	-16.666666666666671 -2.9675148833509155 43.269414817135612 
	-25 -2.9675148833509155 42.406296641633546 
	25 -2.3525954170731183 41.993262976020105 
	16.666666666666664 -2.3525954170731183 42.69599975465718 
	8.3333333333333357 -2.3525954170731183 38.006737023979895 
	-8.3333333333333286 -2.3525954170731183 38.006737023979895 
	-16.666666666666657 -2.3525954170731183 42.69599975465718 
	-25 -2.3525954170731183 41.993262976020105 
	25 -1.2010718983854218 41.114650756307526 
	16.666666666666664 -1.2010718983854218 41.49477154881879 
	8.3333333333333357 -1.2010718983854218 38.885349243692474 
	-8.3333333333333286 -1.2010718983854218 38.885349243692474 
	-16.666666666666657 -1.2010718983854218 41.49477154881879 
	-25 -1.2010718983854218 41.114650756307526 
	25.000000000000007 -0.66444897707569339 40.649119522968491 
	16.666666666666671 -0.66444897707569339 40.86700572621892 
	8.3333333333333499 -0.66444897707569339 39.350880477031495 
	-8.3333333333333144 -0.66444897707569339 39.350880477031495 
	-16.666666666666643 -0.66444897707569339 40.86700572621892 
	-24.999999999999986 -0.66444897707569339 40.649119522968491 
	25.000000000000007 0.083109202823393957 39.921289400832848 
	16.666666666666671 0.083109202823393957 39.894617310101367 
	8.3333333333333499 0.083109202823393957 40.078710599167138 
	-8.3333333333333144 0.083109202823393957 40.078710599167138 
	-16.666666666666643 0.083109202823393957 39.894617310101367 
	-24.999999999999986 0.083109202823393957 39.921289400832848 
	25 0.32933646152837071 39.674194910722193 
	16.666666666666664 0.32933646152837071 39.565269649134933 
	8.3333333333333286 0.32933646152837071 40.325805089277821 
	-8.3333333333333286 0.32933646152837071 40.325805089277821 
	-16.666666666666657 0.32933646152837071 39.565269649134933 
	-25 0.32933646152837071 39.674194910722193 
	25 0.85471249116498882 39.195353969706744 
	16.666666666666664 0.85471249116498882 38.922089889206546 
	8.3333333333333286 0.85471249116498882 40.80464603029327 
	-8.3333333333333286 0.85471249116498882 40.80464603029327 
	-16.666666666666657 0.85471249116498882 38.922089889206546 
	-25 0.85471249116498882 39.195353969706744 
	25 1.1277018171053186 38.961056380308037 
	16.666666666666664 1.1277018171053186 38.605706651750694 
	8.3333333333333357 1.1277018171052902 41.038943619692006 
	-8.3333333333333286 1.1277018171052902 41.038943619692006 
	-16.666666666666686 1.1277018171053186 38.605706651750694 
	-25.000000000000028 1.1277018171053186 38.961056380308037 
	25 1.9770500263981035 38.276914362750077 
	16.666666666666664 1.9770500263981035 37.675883296388378 
	8.3333333333333357 1.977050026398075 41.723085637249966 
	-8.3333333333333286 1.977050026398075 41.723085637249966 
	-16.666666666666686 1.9770500263981035 37.675883296388378 
	-25.000000000000028 1.9770500263981035 38.276914362750077 
	25 2.5839521086228814 37.845830188615338 
	16.666666666666664 2.5839521086228814 37.08177903887352 
	8.3333333333333357 2.5839521086228814 42.154169811384662 
	-8.3333333333333286 2.5839521086228814 42.154169811384662 
	-16.666666666666657 2.5839521086228814 37.08177903887352 
	-25 2.5839521086228814 37.845830188615338 
	25 3.8726048151220454 37.051998479773289 
	16.666666666666664 3.8726048151220454 35.965171831818793 
	8.3333333333333357 3.8726048151220454 42.948001520226711 
	-8.3333333333333286 3.8726048151220454 42.948001520226711 
	-16.666666666666657 3.8726048151220454 35.965171831818793 
	-25 3.8726048151220454 37.051998479773289 
	25 4.5543602557334282 36.689310357699284 
	16.666666666666664 4.5543602557334282 35.442728294912271 
	8.3333333333333357 4.5543602557334282 43.310689642300716 
	-8.3333333333333286 4.5543602557334282 43.310689642300716 
	-16.666666666666657 4.5543602557334282 35.442728294912271 
	-25 4.5543602557334282 36.689310357699284 
	25 5.9809809917984751 36.049665988754796 
	16.666666666666664 5.9809809917984751 34.488567483085731 
	8.3333333333333357 5.9809809917984751 43.950334011245204 
	-8.3333333333333286 5.9809809917984751 43.950334011245204 
	-16.666666666666657 5.9809809917984751 34.488567483085731 
	-25 5.9809809917984751 36.049665988754796 
	24.999999999999993 6.7258262561319384 35.772772260173952 
	16.666666666666657 6.7258262561319384 34.056912726455337 
	8.3333333333333215 6.7258262561319384 44.227227739826063 
	-8.3333333333333428 6.7258262561319384 44.227227739826063 
	-16.666666666666657 6.7258262561319384 34.056912726455337 
	-25 6.7258262561319384 35.772772260173952 
	24.999999999999993 7.8778075507993606 35.432614595854233 
	16.666666666666657 7.8778075507993606 33.489656598825121 
	8.3333333333333215 7.8778075507993606 44.567385404145767 
	-8.3333333333333428 7.8778075507993606 44.567385404145767 
	-16.666666666666657 7.8778075507993606 33.489656598825121 
	-25 7.8778075507993606 35.432614595854233 
	25.000000000000021 8.2675491614389927 35.331730571722517 
	16.666666666666686 8.2675491614389927 33.313913600050526 
	8.3333333333333357 8.2675491614389927 44.668269428277441 
	-8.3333333333333286 8.2675491614389927 44.668269428277441 
	-16.666666666666657 8.2675491614389927 33.313913600050526 
	-25 8.2675491614389927 35.331730571722517 
	25.000000000000021 9.0560304667728673 35.156350178899302 
	16.666666666666686 9.0560304667728673 32.990712498975583 
	8.3333333333333357 9.0560304667728673 44.843649821100669 
	-8.3333333333333286 9.0560304667728673 44.843649821100669 
	-16.666666666666657 9.0560304667728673 32.990712498975583 
	-25 9.0560304667728673 35.156350178899302 
	25 9.4547683571383487 35.081855199256722 
	16.666666666666664 9.4547683571383487 32.843255785724153 
	8.3333333333333357 9.4547683571383203 44.918144800743292 
	-8.3333333333333286 9.4547683571383203 44.918144800743292 
	-16.666666666666657 9.4547683571383487 32.843255785724168 
	-25 9.4547683571383487 35.081855199256722 
	25 10.66041833038453 34.899523997510741 
	16.666666666666664 10.66041833038453 32.445209566871782 
	8.3333333333333357 10.660418330384502 45.100476002489273 
	-8.3333333333333286 10.660418330384502 45.100476002489273 
	-16.666666666666657 10.66041833038453 32.445209566871796 
	-25 10.66041833038453 34.899523997510741 
	25 11.476801472276776 34.83304416960614 
	16.666666666666664 11.476801472276776 32.239146639189826 
	8.3333333333333286 11.476801472276776 45.166955830393889 
	-8.3333333333333428 11.476801472276776 45.166955830393889 
	-16.666666666666657 11.476801472276776 32.239146639189826 
	-24.999999999999986 11.476801472276776 34.83304416960614 
	25 13.11163845122374 34.814012271145074 
	16.666666666666664 13.11163845122374 31.951132082663193 
	8.3333333333333286 13.11163845122374 45.185987728854954 
	-8.3333333333333428 13.11163845122374 45.185987728854954 
	-16.666666666666657 13.11163845122374 31.951132082663193 
	-24.999999999999986 13.11163845122374 34.814012271145074 
	25 13.930017352093785 34.861462810271362 
	16.666666666666664 13.930017352093785 31.869183063501282 
	8.3333333333333428 13.930017352093785 45.138537189728638 
	-8.3333333333333286 13.930017352093785 45.138537189728638 
	-16.666666666666657 13.930017352093785 31.869183063501282 
	-24.999999999999986 13.930017352093785 34.861462810271362 
	25 15.5453456852306 35.067593009622087 
	16.666666666666664 15.5453456852306 31.828427406000145 
	8.3333333333333428 15.5453456852306 44.932406990377913 
	-8.3333333333333286 15.5453456852306 44.932406990377913 
	-16.666666666666657 15.5453456852306 31.828427406000145 
	-24.999999999999986 15.5453456852306 35.067593009622087 
	25 16.34222629464287 35.226245216141407 
	16.666666666666664 16.34222629464287 31.869593313955832 
	8.3333333333333499 16.34222629464287 44.773754783858536 
	-8.3333333333333144 16.34222629464287 44.773754783858536 
	-16.666666666666643 16.34222629464287 31.869593313955832 
	-24.999999999999972 16.34222629464287 35.226245216141407 
	25 17.899691681572335 35.647709023636097 
	16.666666666666664 17.899691681572335 32.068781977169138 
	8.3333333333333499 17.899691681572335 44.352290976363847 
	-8.3333333333333144 17.899691681572335 44.352290976363847 
	-16.666666666666643 17.899691681572335 32.068781977169138 
	-24.999999999999972 17.899691681572335 35.647709023636097 
	25 18.659853878029594 35.911350392843119 
	16.666666666666664 18.659853878029594 32.227751564849683 
	8.3333333333333499 18.659853878029594 44.088649607156839 
	-8.3333333333333144 18.659853878029594 44.088649607156839 
	-16.666666666666643 18.659853878029594 32.227751564849683 
	-24.999999999999972 18.659853878029594 35.911350392843119 
	25 19.753781625147482 36.374262000404485 
	16.666666666666664 19.753781625147482 32.545394155751367 
	8.3333333333333499 19.753781625147482 43.625737999595472 
	-8.3333333333333144 19.753781625147482 43.625737999595472 
	-16.666666666666643 19.753781625147482 32.545394155751367 
	-24.999999999999972 19.753781625147482 36.374262000404485 
	25 20.110740854557065 36.539772686840095 
	16.666666666666664 20.110740854557065 32.664438279238738 
	8.3333333333333286 20.110740854557065 43.460227313159891 
	-8.3333333333333428 20.110740854557065 43.460227313159891 
	-16.666666666666657 20.110740854557065 32.664438279238738 
	-25 20.110740854557065 36.539772686840095 
	25 20.807512962317332 36.89110956461387 
	16.666666666666664 20.807512962317332 32.926976720638265 
	8.3333333333333286 20.807512962317332 43.108890435386115 
	-8.3333333333333428 20.807512962317332 43.108890435386115 
	-16.666666666666657 20.807512962317332 32.926976720638265 
	-25 20.807512962317332 36.89110956461387 
	25 21.147325485741419 37.076933697540895 
	16.666666666666664 21.147325485741419 33.070468980139268 
	8.3333333333333286 21.147325485741476 42.923066302459091 
	-8.3333333333333428 21.147325485741476 42.923066302459091 
	-16.666666666666686 21.147325485741476 33.070468980139296 
	-25.000000000000028 21.147325485741476 37.076933697540923 
	25 21.808362418447501 37.466650362835409 
	16.666666666666664 21.808362418447501 33.379878392416131 
	8.3333333333333286 21.808362418447558 42.533349637164577 
	-8.3333333333333428 21.808362418447558 42.533349637164577 
	-16.666666666666686 21.808362418447558 33.37987839241616 
	-25.000000000000028 21.808362418447558 37.466650362835438 
	24.999999999999993 22.129586879684723 37.670540909348858 
	16.666666666666657 22.129586879684723 33.54579355933798 
	8.3333333333333499 22.129586879684666 42.329459090651142 
	-8.3333333333333144 22.129586879684666 42.329459090651142 
	-16.666666666666671 22.129586879684666 33.54579355933798 
	-25 22.129586879684666 37.670540909348858 
	24.999999999999993 22.752349796945708 38.094059418567667 
	16.666666666666657 22.752349796945708 33.897939607520144 
	8.3333333333333499 22.752349796945651 41.905940581432361 
	-8.3333333333333144 22.752349796945651 41.905940581432361 
	-16.666666666666671 22.752349796945651 33.897939607520144 
	-25 22.752349796945651 38.094059418567667 
	25 23.053888662134355 38.313685548166632 
	16.666666666666664 23.053888662134355 34.084168655674091 
	8.3333333333333357 23.053888662134412 41.686314451833368 
	-8.3333333333333428 23.053888662134412 41.686314451833368 
	-16.666666666666657 23.053888662134412 34.084168655674105 
	-25 23.053888662134412 38.313685548166632 
	25 23.636519240402478 38.766317943567742 
	16.666666666666664 23.636519240402478 34.474806990643941 
	8.3333333333333357 23.636519240402535 41.233682056432258 
	-8.3333333333333428 23.636519240402535 41.233682056432258 
	-16.666666666666657 23.636519240402535 34.474806990643955 
	-25 23.636519240402535 38.766317943567742 
	24.999999999999993 23.917611656301418 38.999322589250198 
	16.666666666666657 23.917611656301418 34.679214657340182 
	8.3333333333333357 23.917611656301418 41.000677410749816 
	-8.3333333333333286 23.917611656301418 41.000677410749816 
	-16.666666666666686 23.917611656301418 34.679214657340182 
	-25.000000000000014 23.917611656301418 38.999322589250198 
	24.999999999999993 24.458907994645742 39.476380454772254 
	16.666666666666657 24.458907994645742 35.1041004716608 
	8.3333333333333357 24.458907994645742 40.52361954522776 
	-8.3333333333333286 24.458907994645742 40.52361954522776 
	-16.666666666666686 24.458907994645742 35.1041004716608 
	-25.000000000000014 24.458907994645742 39.476380454772254 
	25 24.719112842982383 39.720432306588407 
	16.666666666666664 24.719112842982383 35.324577251261715 
	8.3333333333333357 24.719112842982383 40.279567693411607 
	-8.3333333333333286 24.719112842982383 40.279567693411607 
	-16.666666666666657 24.719112842982383 35.324577251261715 
	-25 24.719112842982383 39.720432306588407 
	25 25.967550234578113 40.962660779905377 
	16.666666666666664 25.967550234578113 36.462039641210509 
	8.3333333333333357 25.967550234578113 39.037339220094637 
	-8.3333333333333286 25.967550234578113 39.037339220094637 
	-16.666666666666657 25.967550234578113 36.462039641210509 
	-25 25.967550234578113 40.962660779905377 
	24.999999999999993 27.12374402491308 41.893807771515895 
	16.666666666666657 27.12374402491308 37.351323454792023 
	8.3333333333333215 27.12374402491308 38.106192228484147 
	-8.3333333333333428 27.12374402491308 38.106192228484147 
	-16.666666666666671 27.12374402491308 37.351323454792023 
	-25 27.12374402491308 41.893807771515895 
	24.999999999999993 28.768570491248468 42.875594724195096 
	16.666666666666657 28.768570491248468 38.342090718254724 
	8.3333333333333215 28.768570491248468 37.124405275804946 
	-8.3333333333333428 28.768570491248468 37.124405275804946 
	-16.666666666666671 28.768570491248468 38.342090718254724 
	-25 28.768570491248468 42.875594724195096 
	24.999999999999993 29.106882213172824 43.063013983541126 
	16.666666666666657 29.106882213172824 38.534371503923438 
	8.3333333333333428 29.106882213172824 36.936986016458874 
	-8.3333333333333286 29.106882213172824 36.936986016458874 
	-16.666666666666671 29.106882213172824 38.534371503923438 
	-25 29.106882213172824 43.063013983541126 
	24.999999999999993 29.800786086794389 43.417723943898281 
	16.666666666666657 29.800786086794389 38.905157249570152 
	8.3333333333333428 29.800786086794389 36.582276056101719 
	-8.3333333333333286 29.800786086794389 36.582276056101719 
	-16.666666666666671 29.800786086794389 38.905157249570152 
	-25 29.800786086794389 43.417723943898281 
	24.999999999999993 30.15637791895702 43.585012589053406 
	16.666666666666657 30.15637791895702 39.083660153692136 
	8.3333333333333286 30.15637791895702 36.414987410946608 
	-8.3333333333333428 30.15637791895702 36.414987410946608 
	-16.666666666666671 30.15637791895702 39.083660153692136 
	-25 30.15637791895702 43.585012589053406 
	24.999999999999993 31.246445303831734 44.053510645744737 
	16.666666666666657 31.246445303831734 39.595662792718613 
	8.3333333333333286 31.246445303831734 35.946489354255277 
	-8.3333333333333428 31.246445303831734 35.946489354255277 
	-16.666666666666671 31.246445303831734 39.595662792718613 
	-25 31.246445303831734 44.053510645744737 
	24.999999999999993 32.004357992345774 44.321215459219871 
	16.666666666666657 32.004357992345774 39.905519734996588 
	8.3333333333333286 32.004357992345774 35.678784540780114 
	-8.3333333333333286 32.004357992345774 35.678784540780114 
	-16.666666666666671 32.004357992345774 39.905519734996588 
	-25 32.004357992345774 44.321215459219871 
	24.999999999999993 33.551363745464755 44.749384803473504 
	16.666666666666657 33.551363745464755 40.445098807988231 
	8.3333333333333286 33.551363745464755 35.250615196526482 
	-8.3333333333333286 33.551363745464755 35.250615196526482 
	-16.666666666666671 33.551363745464755 40.445098807988231 
	-25 33.551363745464755 44.749384803473504 
	25 34.339642022590567 44.911572222441691 
	16.666666666666664 34.339642022590567 40.67606480180909 
	8.3333333333333357 34.339642022590567 35.088427777558266 
	-8.3333333333333286 34.339642022590567 35.088427777558266 
	-16.666666666666671 34.339642022590567 40.67606480180909 
	-25 34.339642022590567 44.911572222441691 
	25 35.938520822543296 45.127038678718776 
	16.666666666666664 35.938520822543296 41.057887318100043 
	8.3333333333333357 35.938520822543296 34.872961321281181 
	-8.3333333333333286 35.938520822543296 34.872961321281181 
	-16.666666666666671 35.938520822543296 41.057887318100043 
	-25 35.938520822543296 45.127038678718776 
	25 36.749056148465485 45.180290104274846 
	16.666666666666664 36.749056148465485 41.208716228817295 
	8.3333333333333286 36.749056148465485 34.819709895725154 
	-8.3333333333333286 36.749056148465485 34.819709895725154 
	-16.666666666666671 36.749056148465485 41.208716228817295 
	-25 36.749056148465485 45.180290104274846 
	25 38.36963313221392 45.174849732171211 
	16.666666666666664 38.36963313221392 41.428914115495004 
	8.3333333333333286 38.36963313221392 34.825150267828789 
	-8.3333333333333286 38.36963313221392 34.825150267828789 
	-16.666666666666671 38.36963313221392 41.428914115495004 
	-25 38.36963313221392 45.174849732171211 
	25 39.179603040403435 45.116158654869636 
	16.666666666666664 39.179603040403435 41.498283811813607 
	8.3333333333333357 39.179603040403435 34.883841345130378 
	-8.3333333333333286 39.179603040403435 34.883841345130378 
	-16.666666666666686 39.179603040403435 41.498283811813607 
	-25.000000000000014 39.179603040403435 45.116158654869636 
	25 40.776272522032912 44.890116459881554 
	16.666666666666664 40.776272522032912 41.56053083067529 
	8.3333333333333357 40.776272522032912 35.10988354011846 
	-8.3333333333333286 40.776272522032912 35.10988354011846 
	-16.666666666666686 40.776272522032912 41.56053083067529 
	-25.000000000000014 40.776272522032912 44.890116459881554 
	25.000000000000007 41.562907551603587 44.722794211926214 
	16.666666666666671 41.562907551603587 41.553437022949552 
	8.3333333333333428 41.562907551603587 35.277205788073772 
	-8.3333333333333286 41.562907551603587 35.277205788073772 
	-16.666666666666657 41.562907551603587 41.553437022949552 
	-24.999999999999986 41.562907551603587 44.722794211926214 
	25.000000000000007 43.092267629658465 44.288639045423253 
	16.666666666666671 43.092267629658465 41.47359078166572 
	8.3333333333333428 43.092267629658465 35.711360954576719 
	-8.3333333333333286 43.092267629658465 35.711360954576719 
	-16.666666666666657 43.092267629658465 41.47359078166572 
	-24.999999999999986 43.092267629658465 44.288639045423253 
	25 43.834946802492084 44.021856016472483 
	16.666666666666664 43.834946802492084 41.400888237704464 
	8.3333333333333286 43.834946802492084 35.978143983527559 
	-8.3333333333333428 43.834946802492084 35.978143983527559 
	-16.666666666666671 43.834946802492084 41.400888237704464 
	-25 43.834946802492084 44.021856016472483 
	25 45.259589261019102 43.402580033432614 
	16.666666666666664 45.259589261019102 41.205309647553975 
	8.3333333333333286 45.259589261019102 36.597419966567429 
	-8.3333333333333428 45.259589261019102 36.597419966567429 
	-16.666666666666671 45.259589261019102 41.205309647553975 
	-25 45.259589261019102 43.402580033432614 
	24.999999999999993 45.94153119442376 43.050146635266174 
	16.666666666666657 45.94153119442376 41.082493157287402 
	8.3333333333333286 45.94153119442376 36.949853364733826 
	-8.3333333333333286 45.94153119442376 36.949853364733826 
	-16.666666666666671 45.94153119442376 41.082493157287402 
	-25 45.94153119442376 43.050146635266174 
	24.999999999999993 47.232752012292337 42.276334036286841 
	16.666666666666657 47.232752012292337 40.805135175168644 
	8.3333333333333286 47.232752012292337 37.723665963713159 
	-8.3333333333333286 47.232752012292337 37.723665963713159 
	-16.666666666666671 47.232752012292337 40.805135175168644 
	-25 47.232752012292337 42.276334036286841 
	24.999999999999993 47.842033453707302 41.855012396229839 
	16.666666666666657 47.842033453707302 40.650651244072336 
	8.3333333333333286 47.842033453707302 38.144987603770176 
	-8.3333333333333428 47.842033453707302 38.144987603770176 
	-16.666666666666686 47.842033453707302 40.650651244072336 
	-25.000000000000014 47.842033453707302 41.855012396229839 
	24.999999999999993 48.981118743129429 40.961350201955057 
	16.666666666666657 48.981118743129429 40.329569646930238 
	8.3333333333333286 48.981118743129429 39.038649798044958 
	-8.3333333333333428 48.981118743129429 39.038649798044958 
	-16.666666666666686 48.981118743129429 40.329569646930238 
	-25.000000000000014 48.981118743129429 40.961350201955057 
	25 49.510943499720725 40.489056500279275 
	16.666666666666664 49.510943499720725 40.16301883342642 
	8.3333333333333286 49.510943499720725 39.510943499720725 
	-8.3333333333333286 49.510943499720725 39.510943499720725 
	-16.666666666666671 49.510943499720725 40.16301883342642 
	-25 49.510943499720725 40.489056500279275 
	25 50 40 
	16.666666666666664 50 40 
	8.3333333333333286 50 40 
	-8.3333333333333286 50 40 
	-16.666666666666671 50 40 
	-25 50 40 
	0.001 
	0 
	1 0.49999999999999994 
	0 
	0 
	5 -0.78539816339744828 0.78539816339744828 2.3561944901923448 3.9269908169872414 5.497787143782138 
	0 
	} I I I I #
face $-1 $15 $16 $5 $-1 $17 forward single #
loop $-1 $-1 $18 $8 #
plane-surface $-1 -25 50 80 0 1 0 0 0 1 forward_v I I I I #
coedge $-1 $19 $20 $21 $22 reversed $9 $23 #
face $-1 $24 $25 $5 $-1 $26 forward single #
loop $-1 $-1 $27 $11 #
plane-surface $-1 25 50 80 1 0 0 0 0 -1 forward_v I I I I #
coedge $-1 $28 $29 $30 $31 forward $12 $-1 #
coedge $-1 $30 $14 $27 $32 reversed $9 $33 #
coedge $-1 $14 $30 $34 $35 reversed $9 $36 #
coedge $-1 $37 $38 $14 $22 forward $39 $-1 #
edge $40 $41 0 $42 1 $21 $43 forward 7 unknown #
pcurve $-1 0 reversed { exppc nubs 1 open 2 
	0 1 1 1 
	0 0 
	1 0 
	0.001 
	spline forward { ref 0 } I I I I 
	} 0 0 #
face $-1 $44 $39 $5 $-1 $45 forward single #
loop $-1 $-1 $46 $15 #
plane-surface $-1 -25 50 0 0 0 -1 -1 0 0 forward_v I I I I #
coedge $-1 $47 $48 $19 $32 forward $16 $-1 #
coedge $-1 $49 $18 $48 $50 reversed $12 $-1 #
coedge $-1 $18 $49 $51 $52 forward $12 $-1 #
coedge $-1 $20 $19 $18 $31 reversed $9 $53 #
edge $54 $55 -1 $56 0 $18 $57 forward 7 unknown #
edge $58 $56 -1 $41 0 $27 $59 forward 7 unknown #
pcurve $-1 0 forward { exppc nubs 1 open 2 
	0 1 1 1 
	0 0 
	0 1 
	0.001 
	spline forward { ref 0 } I I I I 
	} 0 0 #
coedge $-1 $51 $60 $20 $35 forward $61 $-1 #
edge $62 $42 0 $55 1 $34 $63 forward 7 unknown #
pcurve $-1 0 reversed { exppc nubs 1 open 2 
	0 1 1 1 
	1 0 
	1 1 
	0.001 
	spline forward { ref 0 } I I I I 
	} 0 0 #
coedge $-1 $64 $21 $60 $65 forward $39 $-1 #
coedge $-1 $21 $64 $47 $66 forward $39 $-1 #
loop $-1 $-1 $21 $24 #
ptlist-eye-attrib $-1 $-1 $-1 $22 #
vertex $67 $22 $68 #
vertex $69 $65 $70 #
intcurve-curve $-1 forward { parcur summary 3 0 0.49999999999999994 1 0.001 OPEN 
	spline forward { ref 0 } I I I I 
	null_surface 
	nubs 1 open 2 
	0 1 1 1 
	0 0 
	1 0 
	
	nullbs 
	I I 
	0 
	1 0.49999999999999994 
	0 
	surf1 } F 0 F 1 #
face $-1 $-1 $61 $5 $-1 $71 forward single #
plane-surface $-1 25 -50 80 0 -1 0 0 0 -1 forward_v I I I I #
coedge $-1 $72 $73 $49 $74 forward $25 $-1 #
coedge $-1 $75 $27 $38 $66 reversed $16 $-1 #
coedge $-1 $27 $75 $28 $50 forward $16 $-1 #
coedge $-1 $29 $28 $46 $74 reversed $12 $-1 #
edge $76 $77 0 $56 40 $48 $78 forward 7 unknown #
coedge $-1 $79 $34 $29 $52 reversed $61 $-1 #
edge $80 $81 0 $55 40 $29 $82 forward 7 unknown #
pcurve $-1 0 forward { exppc nubs 1 open 2 
	0 1 1 1 
	0 1 
	1 1 
	0.001 
	spline forward { ref 0 } I I I I 
	} 0 0 #
ptlist-eye-attrib $-1 $-1 $-1 $31 #
vertex $83 $35 $84 #
vertex $85 $32 $86 #
intcurve-curve $-1 reversed { parcur summary 3 0 0.49999999999999994 1 0.001 OPEN 
	spline forward { ref 0 } I I I I 
	null_surface 
	nubs 1 open 2 
	0 1 1 1 
	0 1 
	1 1 
	
	nullbs 
	I I 
	0 
	1 0.49999999999999994 
	0 
	surf1 } F -1 F 0 #
ptlist-eye-attrib $-1 $-1 $-1 $32 #
intcurve-curve $-1 reversed { parcur summary 60 0 0.020994137591032136 0.041988275182064327 0.062982412773096519 0.08397655036412871 0.1049706879551609 0.12596482554619307 0.14695896313722526 0.16795310072825742 0.18850177657872905 0.1987761145039649 0.20905045242920073 0.21932479035443653 0.22959912827967235 0.23987346620490821 0.25014780413014404 0.26042214205537983 0.27069647998061563 0.28097081790585149 0.29124515583108729 0.30151949375632314 0.31179383168155894 0.3323425075320306 0.35300505346653854 0.37366759940104649 0.39433014533555444 0.41499269127006239 0.43565523720457033 0.45631778313907828 0.47698032907358623 0.49764287500809418 0.50810959359079311 0.51857631217349209 0.53950974933888984 0.5604431865042877 0.58137662366968557 0.59184334225238455 0.60231006083508343 0.62324349800048129 0.64417693516587926 0.66511037233127701 0.6862226657260172 0.69677881242338724 0.70733495912075739 0.71789110581812743 0.72844725251549747 0.73900339921286751 0.74955954591023755 0.79178413269971792 0.80234027939708796 0.812896426094458 0.83400871948919819 0.85475762955304835 0.87550653961689862 0.89625544968074877 0.91700435974459904 0.93775326980844942 0.95850217987229958 0.97925108993614984 1 0.001 OPEN 
	spline forward { ref 0 } I I I I 
	null_surface 
	nubs 1 open 2 
	0 1 1 1 
	0 0 
	0 1 
	
	nullbs 
	I I 
	0 
	5 -0.78539816339744828 0.78539816339744828 2.3561944901923448 3.9269908169872414 5.497787143782138 
	0 
	surf1 } F -1 F 0 #
coedge $-1 $34 $79 $37 $65 reversed $61 $-1 #
loop $-1 $-1 $34 $44 #
ptlist-eye-attrib $-1 $-1 $-1 $35 #
intcurve-curve $-1 forward { parcur summary 60 0 0.020994137591032136 0.041988275182064327 0.062982412773096519 0.08397655036412871 0.1049706879551609 0.12596482554619307 0.14695896313722526 0.16795310072825742 0.18850177657872905 0.1987761145039649 0.20905045242920073 0.21932479035443653 0.22959912827967235 0.23987346620490821 0.25014780413014404 0.26042214205537983 0.27069647998061563 0.28097081790585149 0.29124515583108729 0.30151949375632314 0.31179383168155894 0.3323425075320306 0.35300505346653854 0.37366759940104649 0.39433014533555444 0.41499269127006239 0.43565523720457033 0.45631778313907828 0.47698032907358623 0.49764287500809418 0.50810959359079311 0.51857631217349209 0.53950974933888984 0.5604431865042877 0.58137662366968557 0.59184334225238455 0.60231006083508343 0.62324349800048129 0.64417693516587926 0.66511037233127701 0.6862226657260172 0.69677881242338724 0.70733495912075739 0.71789110581812743 0.72844725251549747 0.73900339921286751 0.74955954591023755 0.79178413269971792 0.80234027939708796 0.812896426094458 0.83400871948919819 0.85475762955304835 0.87550653961689862 0.89625544968074877 0.91700435974459904 0.93775326980844942 0.95850217987229958 0.97925108993614984 1 0.001 OPEN 
	spline forward { ref 0 } I I I I 
	null_surface 
	nubs 1 open 2 
	0 1 1 1 
	1 0 
	1 1 
	
	nullbs 
	I I 
	0 
	5 -0.78539816339744828 0.78539816339744828 2.3561944901923448 3.9269908169872414 5.497787143782138 
	0 
	surf1 } F 0 F 1 #
coedge $-1 $38 $37 $87 $88 reversed $39 $-1 #
edge $89 $42 40 $90 80 $37 $91 forward 7 unknown #
edge $92 $93 0 $41 40 $38 $94 forward 7 unknown #
ptlist-eye-attrib $-1 $-1 $-1 $41 #
point $-1 25 -50 40 #
ptlist-eye-attrib $-1 $-1 $-1 $42 #
point $-1 -25 -50 40 #
plane-surface $-1 -25 -50 80 -1 0 0 0 0 1 forward_v I I I I #
coedge $-1 $87 $46 $75 $95 forward $25 $-1 #
coedge $-1 $46 $87 $79 $96 forward $25 $-1 #
edge $97 $81 0 $77 50 $46 $98 forward 7 unknown #
coedge $-1 $48 $47 $72 $95 reversed $16 $-1 #
ptlist-eye-attrib $-1 $-1 $-1 $50 #
vertex $99 $74 $100 #
straight-curve $-1 25 50 0 0 0 1 I I #
coedge $-1 $60 $51 $73 $96 reversed $61 $-1 #
ptlist-eye-attrib $-1 $-1 $-1 $52 #
vertex $101 $74 $102 #
straight-curve $-1 -25 50 0 0 0 1 I I #
ptlist-eye-attrib $-1 $-1 $-1 $55 #
point $-1 -25 50 40 #
ptlist-eye-attrib $-1 $-1 $-1 $56 #
point $-1 25 50 40 #
coedge $-1 $73 $72 $64 $88 forward $25 $-1 #
edge $103 $93 0 $90 50 $87 $104 forward 7 unknown #
ptlist-eye-attrib $-1 $-1 $-1 $65 #
vertex $105 $88 $106 #
straight-curve $-1 -25 -50 80 0 0 -1 I I #
ptlist-eye-attrib $-1 $-1 $-1 $66 #
vertex $107 $95 $108 #
straight-curve $-1 25 -50 0 0 0 1 I I #
edge $109 $77 0 $93 100 $72 $110 forward 7 unknown #
edge $111 $90 0 $81 100 $73 $112 forward 7 unknown #
ptlist-eye-attrib $-1 $-1 $-1 $74 #
straight-curve $-1 -25 50 0 1 0 0 I I #
ptlist-eye-attrib $-1 $-1 $-1 $77 #
point $-1 25 50 0 #
ptlist-eye-attrib $-1 $-1 $-1 $81 #
point $-1 -25 50 0 #
ptlist-eye-attrib $-1 $-1 $-1 $88 #
straight-curve $-1 25 -50 0 -1 0 0 I I #
ptlist-eye-attrib $-1 $-1 $-1 $90 #
point $-1 -25 -50 0 #
ptlist-eye-attrib $-1 $-1 $-1 $93 #
point $-1 25 -50 0 #
ptlist-eye-attrib $-1 $-1 $-1 $95 #
straight-curve $-1 25 50 0 0 -1 0 I I #
ptlist-eye-attrib $-1 $-1 $-1 $96 #
straight-curve $-1 -25 -50 0 0 1 0 I I #
End-of-ACIS-data 