600 0 2 0           
24 FBMach with ACIS - 6.0.3 13 ACIS 6.0.3 NT 24 Wed May 23 09:41:51 2001 
1 9.9999999999999995e-007 1e-010 
body $2 $3 $-1 $4 #
bdycol-kcp $-1 1 6 $5 $6 $7 $8 $9 $10 #
model_id-kcp-attrib $-1 $-1 $-1 $0 1 990625311 90 609878017 1 #
lump $-1 $-1 $11 $0 #
transform $-1 -1 2.6033049414092568e-015 0 -6.9365978065752011e-030 -2.6645352591003753e-015 1 2.6033049414092568e-015 1 2.6645352591003753e-015 -406.15926245350238 -917.98040128847003 166.21197670611511 1 rotate no_reflect no_shear #
body $12 $13 $-1 $14 #
body $15 $16 $-1 $17 #
body $18 $19 $-1 $20 #
body $21 $22 $-1 $23 #
body $24 $25 $-1 $26 #
body $27 $28 $-1 $29 #
shell $-1 $-1 $-1 $30 $-1 $3 #
model_id-kcp-attrib $-1 $-1 $-1 $5 1 990625311 90 609878018 1 #
lump $-1 $-1 $31 $5 #
transform $-1 1 0 0 0 1 0 0 0 1 -406.15926245350056 -242.98040128846995 166.21197670611693 1 no_rotate no_reflect no_shear #
rgb_color-st-attrib $-1 $32 $-1 $6 0.5 1 1 #
lump $-1 $-1 $33 $6 #
transform $-1 1 0 0 0 1 0 0 0 1 -406.15926245350056 -242.98040128846995 166.21197670611693 1 no_rotate no_reflect no_shear #
rgb_color-st-attrib $-1 $34 $-1 $7 1 0 0 #
lump $-1 $-1 $35 $7 #
transform $-1 -3.8285889215894375e-016 0 -1 0 1 0 1 0 -3.8285889215894375e-016 989.36561796557942 362.01959871152866 166.21197670611801 1 rotate no_reflect no_shear #
rgb_color-st-attrib $-1 $36 $-1 $8 1 0.5 1 #
lump $-1 $-1 $37 $8 #
transform $-1 1 0 0 0 1 0 0 0 1 -406.15926245350056 -242.98040128846995 166.21197670611693 1 no_rotate no_reflect no_shear #
rgb_color-st-attrib $-1 $38 $-1 $9 1 0.5 1 #
lump $-1 $-1 $39 $9 #
transform $-1 1 0 0 0 1 0 0 0 1 -406.15926245350056 -242.98040128846995 166.21197670611693 1 no_rotate no_reflect no_shear #
rgb_color-st-attrib $-1 $40 $-1 $10 1 0.5 1 #
lump $-1 $-1 $41 $10 #
transform $-1 1 0 0 0 1 0 0 0 1 -406.15926245350056 -242.98040128846995 166.21197670611693 1 no_rotate no_reflect no_shear #
face $42 $43 $44 $11 $-1 $45 reversed single #
shell $-1 $-1 $-1 $46 $-1 $13 #
model_id-kcp-attrib $-1 $-1 $15 $6 1 990625311 210 617742339 1 #
shell $-1 $-1 $-1 $47 $-1 $16 #
model_id-kcp-attrib $-1 $-1 $18 $7 1 990625311 420 614727684 1 #
shell $-1 $-1 $-1 $48 $-1 $19 #
model_id-kcp-attrib $-1 $-1 $21 $8 1 990625311 600 609746949 1 #
shell $-1 $-1 $-1 $49 $-1 $22 #
model_id-kcp-attrib $-1 $-1 $24 $9 1 990625311 650 613023750 1 #
shell $-1 $-1 $-1 $50 $-1 $25 #
model_id-kcp-attrib $-1 $-1 $27 $10 1 990625311 831 608108551 1 #
shell $-1 $-1 $-1 $51 $-1 $28 #
model_id-kcp-attrib $-1 $-1 $-1 $30 1 990625311 90 609878017 2 #
face $52 $53 $54 $11 $-1 $55 reversed single #
loop $-1 $56 $57 $30 #
cone-surface $-1 2.8511644000611693e-014 -5.4983605093904523e-028 0 3.3690227257271443e-015 -1.1411441865579259e-029 1 1.4799272918253306e-013 43 -4.0705222709404209e-028 1 I I 0 -1 4.2999999999999998 forward I I I I #
face $-1 $58 $59 $31 $-1 $60 forward single #
face $-1 $61 $62 $33 $-1 $63 reversed single #
face $-1 $64 $65 $35 $-1 $66 forward single #
face $-1 $67 $68 $37 $-1 $69 forward single #
face $-1 $70 $71 $39 $-1 $72 forward single #
face $-1 $73 $74 $41 $-1 $75 forward single #
model_id-kcp-attrib $-1 $-1 $-1 $43 1 990625311 90 609878017 3 #
face $76 $77 $78 $11 $-1 $79 reversed single #
loop $-1 $80 $81 $43 #
plane-surface $-1 2.0349378165200244e-012 -86.126864805030891 685 3.3690227257271443e-015 -1.1411441865579259e-029 1 -3.4416913763379783e-014 -10 9.4663308626521417e-029 forward_v I I I I #
loop $-1 $-1 $82 $30 #
coedge $-1 $57 $57 $83 $84 reversed $44 $-1 #
face $-1 $85 $86 $31 $-1 $87 reversed single #
loop $-1 $-1 $88 $46 #
plane-surface $-1 0 0 62.500000000002018 0 0 1 1 0 0 forward_v I I I I #
face $-1 $89 $90 $33 $-1 $63 reversed single #
loop $-1 $-1 $91 $47 #
cone-surface $-1 -1.7621459846850485e-012 -675.00000000000011 -1.8189894035458565e-012 -2.6033049414092568e-015 -1 -2.6645352591003753e-015 2.1510571102112403e-013 1.665334536937729e-013 -62.5 1 I I 0 1 62.5 forward I I I I #
face $-1 $92 $93 $35 $-1 $94 reversed single #
loop $-1 $-1 $95 $48 #
plane-surface $-1 -2.9831000498504546e-009 2.5181821356974297 -1353.3377970878082 -3.9303911869604031e-015 -8.4659846705448462e-014 1 1 0 3.9303911869604031e-015 forward_v I I I I #
face $-1 $96 $97 $37 $-1 $98 forward single #
loop $-1 $99 $100 $49 #
cone-surface $-1 5.319987614500746e-013 224.99999999999977 5.8797411384148189e-013 -2.6438799470143294e-015 -1 -2.6438799470143294e-015 1.5143442055887155e-013 1.1633071766863023e-013 -44.000000000000057 1 I I 0 -1 44.000000000000057 forward I I I I #
face $-1 $101 $102 $39 $-1 $103 forward single #
loop $-1 $104 $105 $50 #
cone-surface $-1 -2.3630460110370122e-012 10.000000000000227 1.5099033134894455e-014 7.4684783904711252e-016 -1 -2.655458983278622e-015 -1.4799272918253334e-013 -1.1418473628098085e-013 43 1 I I 0 -1 43 forward I I I I #
face $-1 $106 $107 $41 $-1 $108 forward single #
loop $-1 $109 $110 $51 #
cone-surface $-1 6.655164294004982e-013 259.99999999999977 6.8123284790999514e-013 2.68714343705641e-015 1 2.68714343705641e-015 1.5143442055887155e-013 1.1823431123048179e-013 -44.000000000000057 1 I I 0 -1 44.000000000000057 forward I I I I #
model_id-kcp-attrib $-1 $-1 $-1 $53 1 990625311 90 609878017 4 #
face $111 $112 $113 $11 $-1 $114 reversed single #
loop $-1 $-1 $115 $53 #
cone-surface $-1 -34.000000000063444 8.8151708155455559e-014 1222.4999999999973 -1 3.4416913763379853e-015 -8.2056919852718778e-014 -4.3021142204224633e-014 -12.499999999999973 1.1832913578315152e-028 1 I I 0 1 1.2499999999999973 forward I I I I #
loop $-1 $-1 $83 $43 #
coedge $-1 $81 $81 $116 $117 reversed $54 $-1 #
coedge $-1 $82 $82 $118 $119 reversed $56 $-1 #
coedge $-1 $83 $83 $57 $84 forward $80 $-1 #
edge $-1 $120 -3.1415926535897931 $120 3.1415926535897931 $57 $121 forward 7 unknown #
face $122 $123 $124 $31 $-1 $125 reversed single #
loop $-1 $-1 $126 $58 #
plane-surface $-1 0 0 -62.500000000002018 0 0 1 1 0 0 forward_v I I I I #
coedge $-1 $127 $128 $129 $130 forward $59 $-1 #
face $-1 $131 $132 $33 $-1 $63 reversed single #
loop $-1 $-1 $133 $61 #
coedge $-1 $134 $135 $136 $137 reversed $62 $-1 #
face $-1 $138 $139 $35 $-1 $140 forward single #
loop $-1 $-1 $141 $64 #
plane-surface $-1 1.5916157281026244e-012 70.000000000001819 -1395.5248804190799 0 -1 0 1 0 3.8285889215894375e-016 forward_v I I I I #
coedge $-1 $142 $143 $141 $144 forward $65 $-1 #
face $-1 $145 $146 $37 $-1 $147 reversed single #
loop $-1 $148 $149 $67 #
cone-surface $-1 5.8082846258328229e-013 224.99999999999977 5.7909232964448084e-013 -2.6438799470143294e-015 -1 -2.6438799470143294e-015 2.1510571102112403e-013 1.65242496688395e-013 -62.5 1 I I 0 1 62.5 forward I I I I #
loop $-1 $-1 $150 $49 #
coedge $-1 $100 $100 $151 $152 forward $68 $-1 #
face $-1 $153 $154 $39 $-1 $155 reversed single #
loop $-1 $156 $157 $70 #
cone-surface $-1 2.1117900180293278e-014 10.000000000000227 6.2172489379016844e-015 7.4684783904711252e-016 -1 -2.655458983278622e-015 2.1510571102112403e-013 1.6596618645491404e-013 -62.5 1 I I 0 1 62.5 forward I I I I #
loop $-1 $-1 $158 $50 #
coedge $-1 $105 $105 $159 $160 forward $71 $-1 #
face $-1 $161 $162 $41 $-1 $163 forward single #
loop $-1 $164 $165 $73 #
cone-surface $-1 6.7194413553260628e-013 259.99999999999977 6.7235106371299399e-013 2.68714343705641e-015 1 2.68714343705641e-015 2.1510571102112403e-013 1.6794646481602505e-013 -62.5 1 I I 0 1 62.5 forward I I I I #
loop $-1 $-1 $166 $51 #
coedge $-1 $110 $110 $167 $168 forward $74 $-1 #
model_id-kcp-attrib $-1 $-1 $-1 $77 1 990625311 90 609878017 5 #
face $169 $170 $171 $11 $-1 $172 reversed single #
loop $-1 $-1 $173 $77 #
plane-surface $-1 -34.000000000063402 12.500000000000117 1222.499999999997 3.4416913763379782e-015 1 -9.4663308626521417e-030 -10 3.4416913763379853e-014 -8.205691985271878e-013 forward_v I I I I #
coedge $-1 $174 $175 $176 $177 reversed $78 $-1 #
coedge $-1 $116 $116 $81 $117 forward $178 $-1 #
edge $-1 $179 -3.1415926535897998 $179 3.1415926535897865 $116 $180 forward 7 unknown #
coedge $-1 $118 $118 $82 $119 forward $181 $-1 #
edge $182 $183 -3.1415926535897931 $183 3.1415926535897931 $118 $184 forward 7 unknown #
vertex $-1 $84 $185 #
ellipse-curve $-1 2.3313599043905259e-012 -8.3496982513117995e-027 685 3.3690227257271443e-015 -1.1411441865579259e-029 1 1.4799272918253306e-013 43 -4.0705222709404209e-028 1 I I #
model_id-kcp-attrib $-1 $-1 $-1 $85 1 990625311 90 609878018 2 #
face $-1 $186 $187 $31 $-1 $188 reversed single #
loop $-1 $-1 $189 $85 #
plane-surface $-1 0 -675.00000000000045 0 0 1 0 0 0 1 forward_v I I I I #
coedge $-1 $190 $191 $192 $193 forward $86 $-1 #
coedge $-1 $194 $88 $195 $196 forward $59 $-1 #
coedge $-1 $88 $194 $197 $198 forward $59 $-1 #
coedge $-1 $199 $200 $88 $130 reversed $201 $-1 #
edge $-1 $202 -675.00000000000045 $203 675.00000000000045 $129 $204 forward 7 unknown #
face $-1 $205 $206 $33 $-1 $63 reversed single #
loop $-1 $-1 $207 $89 #
coedge $-1 $208 $209 $210 $211 reversed $90 $-1 #
coedge $-1 $212 $91 $213 $214 forward $62 $-1 #
coedge $-1 $91 $212 $215 $216 reversed $62 $-1 #
coedge $-1 $217 $218 $91 $137 forward $219 $-1 #
edge $-1 $220 1.5707963267948932 $221 3.14159265358979 $136 $222 forward 7 unknown #
face $-1 $223 $224 $35 $-1 $225 reversed single #
loop $-1 $-1 $226 $92 #
cone-surface $-1 4.3160082712393362e-014 -57.500000000001364 -1361.5248804190151 -3.8245502684967105e-015 -8.4660224794128047e-014 1 12.499999999999973 3.3306690738754627e-014 4.7806878356211506e-014 1 I I 0 1 1.2499999999999973 forward I I I I #
coedge $-1 $227 $228 $95 $144 reversed $93 $-1 #
coedge $-1 $229 $95 $230 $231 forward $65 $-1 #
coedge $-1 $95 $229 $232 $233 forward $65 $-1 #
edge $-1 $234 -12.500000001490482 $235 12.499999998509518 $141 $236 forward 7 unknown #
face $-1 $-1 $237 $37 $-1 $238 forward single #
loop $-1 $239 $240 $96 #
plane-surface $-1 -1.2318498967368539e-014 10.000000000000028 1.6818181818181883 2.4383671860067422e-015 1 2.6750170957292873e-015 0 -2.6750170957292873e-015 1 forward_v I I I I #
loop $-1 $-1 $241 $67 #
coedge $-1 $149 $149 $240 $242 forward $97 $-1 #
coedge $-1 $150 $150 $243 $244 reversed $99 $-1 #
coedge $-1 $151 $151 $100 $152 reversed $239 $-1 #
edge $-1 $245 6.2621915820461944e-016 $245 6.2831853071795871 $100 $246 forward 7 unknown #
face $-1 $-1 $247 $39 $-1 $248 forward single #
loop $-1 $249 $250 $101 #
plane-surface $-1 -4.4544318990103853e-013 -675 1.7727272727254626 -7.771536271667004e-016 1 2.6645468372142608e-015 0 -2.6645468372142608e-015 1 forward_v I I I I #
loop $-1 $-1 $251 $70 #
coedge $-1 $157 $157 $250 $252 forward $102 $-1 #
coedge $-1 $158 $158 $253 $254 reversed $104 $-1 #
coedge $-1 $159 $159 $105 $160 reversed $249 $-1 #
edge $-1 $255 -3.1415926535897931 $255 3.1415926535897931 $105 $256 forward 7 unknown #
face $-1 $-1 $257 $41 $-1 $258 reversed single #
loop $-1 $259 $260 $106 #
plane-surface $-1 1.405233222150768e-012 534.99999999999659 1.6818181818195923 2.8126794253508864e-015 1 2.6696849533471427e-015 0 -2.6696849533471427e-015 1 forward_v I I I I #
loop $-1 $-1 $261 $73 #
coedge $-1 $165 $165 $260 $262 forward $107 $-1 #
coedge $-1 $166 $166 $263 $264 reversed $109 $-1 #
coedge $-1 $167 $167 $110 $168 reversed $259 $-1 #
edge $-1 $265 2.8875661183878759e-016 $265 6.2831853071795862 $110 $266 forward 7 unknown #
model_id-kcp-attrib $-1 $-1 $-1 $112 1 990625311 90 609878017 6 #
face $267 $268 $269 $11 $-1 $270 forward single #
loop $-1 $-1 $271 $112 #
plane-surface $-1 -34.000000000073953 -12.499999999999883 1349.9999999999973 -3.441691376337964e-015 -1 -1.7415263237134159e-016 10 -3.4416913763379853e-014 8.205691985271878e-013 forward_v I I I I #
coedge $-1 $272 $273 $274 $275 reversed $113 $-1 #
coedge $-1 $276 $115 $277 $278 reversed $78 $-1 #
coedge $-1 $115 $279 $280 $281 reversed $78 $-1 #
coedge $-1 $280 $282 $115 $177 forward $283 $-1 #
edge $-1 $284 -3.7894820801105609 $285 -1.8947410400552629 $176 $286 forward 7 unknown #
loop $-1 $287 $116 $288 #
vertex $-1 $117 $289 #
ellipse-curve $-1 9.5800103960820434e-016 -3.2917411714731904e-028 685 3.3690227257271443e-015 -1.1411441865579259e-029 1 -1.5143442055887123e-013 -44.000000000000057 4.1651855795669477e-028 1 I I #
loop $-1 $-1 $118 $290 #
attrib_edge_convexity-kcp-attrib $-1 $291 $-1 $119 1 #
vertex $-1 $119 $292 #
ellipse-curve $-1 2.8511644000611693e-014 -5.4983605093904523e-028 0 0 -1.8369459624254693e-031 -1 1.4799272918253306e-013 43 -4.0705222709404209e-028 1 I I #
point $-1 2.1833671752079925e-012 -43.000000000000007 685 #
face $293 $294 $295 $31 $-1 $296 reversed single #
loop $-1 $-1 $297 $123 #
plane-surface $-1 -62.500000000002018 0 0 1 0 0 0 0 -1 forward_v I I I I #
coedge $-1 $298 $197 $299 $300 forward $124 $-1 #
coedge $-1 $301 $126 $298 $302 forward $86 $-1 #
coedge $-1 $126 $301 $303 $304 forward $86 $-1 #
coedge $-1 $200 $199 $126 $193 reversed $201 $-1 #
edge $-1 $305 -675.00000000000045 $306 675.00000000000045 $192 $307 forward 7 unknown #
coedge $-1 $128 $127 $308 $309 forward $59 $-1 #
coedge $-1 $310 $311 $127 $196 reversed $295 $-1 #
edge $-1 $203 -62.500000000002018 $312 62.500000000002018 $195 $313 forward 7 unknown #
coedge $-1 $189 $314 $128 $198 reversed $124 $-1 #
edge $-1 $315 -62.500000000002018 $202 62.500000000002018 $197 $316 forward 7 unknown #
coedge $-1 $192 $129 $314 $317 forward $201 $-1 #
coedge $-1 $129 $192 $310 $318 reversed $201 $-1 #
loop $-1 $-1 $199 $294 #
vertex $-1 $130 $319 #
vertex $-1 $130 $320 #
straight-curve $-1 62.500000000002018 0 62.500000000002018 0 1 0 I I #
face $-1 $321 $322 $33 $-1 $323 forward single #
loop $-1 $-1 $324 $131 #
coedge $-1 $325 $326 $324 $327 forward $132 $-1 #
coedge $-1 $328 $133 $329 $330 reversed $90 $-1 #
coedge $-1 $133 $328 $135 $216 forward $90 $-1 #
coedge $-1 $331 $332 $133 $211 forward $333 $-1 #
edge $-1 $334 1.5707963267949001 $335 3.1415926535897962 $210 $336 forward 7 unknown #
coedge $-1 $135 $134 $337 $338 reversed $62 $-1 #
coedge $-1 $326 $325 $339 $214 reversed $132 $-1 #
edge $-1 $220 -1350.0000000000009 $340 1.1368683772161603e-013 $339 $341 forward 7 unknown #
coedge $-1 $342 $343 $344 $216 forward $345 $-1 #
edge $-1 $221 -1350.0000000000009 $335 1.1368683772161603e-013 $215 $346 forward 7 unknown #
coedge $-1 $218 $136 $343 $347 reversed $219 $-1 #
coedge $-1 $136 $217 $348 $349 forward $219 $-1 #
loop $-1 $-1 $136 $350 #
vertex $-1 $351 $352 #
vertex $-1 $353 $354 #
ellipse-curve $-1 1.7523156862174495e-012 675.00000000000034 1.7781331962396515e-012 0 -1 0 2.1510571102112403e-013 1.665334536937729e-013 -62.5 1 I I #
face $-1 $355 $356 $35 $-1 $357 reversed single #
loop $-1 $-1 $358 $138 #
plane-surface $-1 -12.499999999996476 0 0 1 0 0 0 0 -1 forward_v I I I I #
coedge $-1 $359 $360 $229 $361 reversed $139 $-1 #
coedge $-1 $362 $141 $363 $364 forward $93 $-1 #
coedge $-1 $141 $362 $365 $366 forward $93 $-1 #
coedge $-1 $143 $142 $226 $361 forward $65 $-1 #
coedge $-1 $365 $358 $142 $231 reversed $224 $-1 #
edge $-1 $235 -68.740908932095365 $367 58.759091067908159 $230 $368 forward 7 unknown #
coedge $-1 $369 $363 $143 $233 reversed $370 $-1 #
edge $-1 $371 -58.759090293621099 $234 68.740908932091955 $232 $372 forward 7 unknown #
vertex $-1 $233 $373 #
vertex $-1 $231 $374 #
straight-curve $-1 -1.4908371229314406e-009 70.000000000001819 -1353.3377970878023 -1 0 -3.9303911869604031e-015 I I #
loop $-1 $375 $376 $145 #
plane-surface $-1 5.5611568964071161e-013 224.99999999999977 1.6818181818187568 2.4383671860067422e-015 1 2.6750170957292873e-015 0 -2.6750170957292873e-015 1 forward_v I I I I #
loop $-1 $-1 $151 $96 #
coedge $-1 $240 $240 $149 $242 reversed $146 $-1 #
coedge $-1 $241 $241 $376 $377 reversed $148 $-1 #
edge $-1 $378 -3.1415926535897931 $378 3.1415926535897931 $149 $379 forward 7 unknown #
coedge $-1 $243 $243 $150 $244 forward $375 $-1 #
edge $-1 $380 6.2621915820461894e-016 $380 6.2831853071795871 $150 $381 forward 7 unknown #
vertex $-1 $152 $382 #
ellipse-curve $-1 -3.6435427158005548e-014 10.000000000000028 1.9539925233401745e-014 -2.6033049414092568e-015 -1 -2.6645352591003753e-015 1.5143442055887155e-013 1.1723955140041668e-013 -44.000000000000057 1 I I #
loop $-1 $383 $384 $153 #
plane-surface $-1 -9.5703395964831067e-013 10.000000000000224 1.7727272727272816 -7.771536271667004e-016 1 2.6645468372142608e-015 0 -2.6645468372142608e-015 1 forward_v I I I I #
loop $-1 $-1 $159 $101 #
coedge $-1 $250 $250 $157 $252 reversed $154 $-1 #
coedge $-1 $251 $251 $384 $385 reversed $156 $-1 #
edge $-1 $386 -3.1415926535897931 $386 3.1415926535897931 $157 $387 forward 7 unknown #
coedge $-1 $253 $253 $158 $254 forward $383 $-1 #
edge $-1 $388 -3.1415926535897931 $388 3.1415926535897931 $158 $389 forward 7 unknown #
vertex $-1 $160 $390 #
ellipse-curve $-1 -1.85145524128974e-012 -675 -1.803890370410962e-012 7.6571778431788751e-016 -1 -2.6645352591003639e-015 -1.4799272918253334e-013 -1.1457501614131615e-013 43 1 I I #
loop $-1 $391 $392 $161 #
plane-surface $-1 6.6626877696026381e-013 259.99999999999977 1.6818181818188533 2.8126794253508864e-015 1 2.6696849533471427e-015 0 -2.6696849533471427e-015 1 forward_v I I I I #
loop $-1 $-1 $167 $106 #
coedge $-1 $260 $260 $165 $262 reversed $162 $-1 #
coedge $-1 $261 $261 $392 $393 reversed $164 $-1 #
edge $-1 $394 -3.1415926535897931 $394 3.1415926535897931 $165 $395 forward 7 unknown #
coedge $-1 $263 $263 $166 $264 forward $391 $-1 #
edge $-1 $396 2.8875661183879424e-016 $396 6.2831853071795862 $166 $397 forward 7 unknown #
vertex $-1 $168 $398 #
ellipse-curve $-1 1.4044808745910024e-012 534.99999999999659 1.4201972931004994e-012 2.6033049414092568e-015 1 2.6645352591003753e-015 1.5143442055887155e-013 1.1723955140041668e-013 -44.000000000000057 1 I I #
model_id-kcp-attrib $-1 $-1 $-1 $170 1 990625311 90 609878017 7 #
face $399 $400 $401 $11 $-1 $402 forward single #
loop $-1 $-1 $403 $170 #
plane-surface $-1 -34.000000000067423 -7.7428586431338431e-008 1271.0000001548547 -1 3.4416913763379853e-015 -8.2056919852718778e-014 -3.4416913763379783e-014 -10 9.4663308626521417e-029 forward_v I I I I #
coedge $-1 $404 $277 $282 $405 reversed $171 $-1 #
coedge $-1 $406 $173 $279 $407 reversed $113 $-1 #
coedge $-1 $173 $406 $408 $409 reversed $113 $-1 #
coedge $-1 $410 $280 $173 $275 forward $283 $-1 #
edge $-1 $411 7.9999999999996625 $412 20.750000000000014 $274 $413 forward 7 unknown #
coedge $-1 $279 $174 $414 $415 reversed $78 $-1 #
coedge $-1 $271 $416 $174 $278 forward $171 $-1 #
edge $-1 $417 0 $284 0.81870833312123592 $174 $418 forward 7 unknown #
coedge $-1 $175 $276 $272 $407 forward $78 $-1 #
coedge $-1 $274 $176 $175 $281 forward $283 $-1 #
edge $-1 $285 -1.8947410400552629 $411 0 $280 $419 forward 7 unknown #
coedge $-1 $176 $410 $271 $405 forward $283 $-1 #
loop $-1 $-1 $282 $268 #
vertex $-1 $177 $420 #
vertex $-1 $177 $421 #
intcurve-curve $-1 forward { surfintcur full nubs 3 open 5 
	-3.7894820801105609 3 -3.3157405960666955 2 -2.8419991120228305 2 -2.3683700760390467 2 -1.8947410400552629 3 
	-42.187083331275851 -12.499999999999829 1222.5000007742835 
	-42.187083302292898 -12.500000097816331 1220.9208624941373 
	-42.285014479736184 -12.18262055207958 1219.2428417478654 
	-42.632543169306544 -10.90435419390392 1216.1659332480763 
	-42.876466955519447 -9.943897408630205 1214.766227878963 
	-43.329627529241201 -7.7340344205248224 1212.5563648908578 
	-43.569181028289051 -6.3342215594924181 1211.5957044990162 
	-43.906586448744847 -3.256925624444329 1210.3172884256528 
	-44.000000000062428 -1.5787634532791284 1209.9999999999964 
	-44.000000000062428 1.5143442055882435e-013 1209.9999999999964 
	0.0049297532841028613 
	cone -34.000000000063444 8.8151708155455559e-014 1222.4999999999973 -1 3.4416913763379853e-015 -8.2056919852718778e-014 -4.3021142204224633e-014 -12.499999999999973 1.1832913578315152e-028 1 I I 0 1 1.2499999999999973 forward I I I I 
	cone -4.1443993961491615e-014 -9.9199258831542279e-029 1142.5 0 -1.8369459624254693e-031 -1 -1.5143442055887123e-013 -44.000000000000057 4.1651855795669477e-028 1 I I 0 1 4.4000000000000057 forward I I I I 
	nullbs 
	nullbs 
	I I 
	0 
	0 
	0 
	} I I #
loop $-1 $-1 $422 $288 #
face $423 $290 $178 $11 $-1 $424 forward single #
point $-1 4.5964295737610547e-013 44.000000000000057 685 #
face $425 $426 $181 $11 $-1 $427 forward single #
convexity-sys-attrib $-1 $-1 $182 $119 #
point $-1 -1.1948108518192141e-013 -43.000000000000007 0 #
model_id-kcp-attrib $-1 $-1 $-1 $186 1 990625311 90 609878018 3 #
face $-1 $-1 $201 $31 $-1 $428 reversed single #
loop $-1 $-1 $310 $186 #
plane-surface $-1 0 675.00000000000045 0 0 -1 0 0 0 -1 forward_v I I I I #
coedge $-1 $429 $308 $311 $430 forward $187 $-1 #
coedge $-1 $314 $189 $190 $302 reversed $124 $-1 #
coedge $-1 $308 $429 $189 $300 reversed $187 $-1 #
edge $-1 $315 -62.500000000002018 $431 62.500000000002018 $299 $432 forward 7 unknown #
coedge $-1 $191 $190 $429 $433 forward $86 $-1 #
edge $-1 $306 -62.500000000002018 $431 62.500000000002018 $298 $434 forward 7 unknown #
coedge $-1 $311 $310 $191 $304 reversed $295 $-1 #
edge $-1 $435 -62.500000000002018 $305 62.500000000002018 $303 $436 forward 7 unknown #
vertex $-1 $193 $437 #
vertex $-1 $317 $438 #
straight-curve $-1 62.500000000002018 0 -62.500000000002018 0 -1 0 I I #
coedge $-1 $297 $299 $194 $309 reversed $187 $-1 #
edge $-1 $312 -675.00000000000045 $315 675.00000000000045 $308 $439 forward 7 unknown #
coedge $-1 $303 $195 $200 $318 forward $295 $-1 #
coedge $-1 $195 $303 $297 $430 reversed $295 $-1 #
vertex $-1 $196 $440 #
straight-curve $-1 0 675.00000000000045 62.500000000002018 -1 0 0 I I #
coedge $-1 $197 $298 $199 $317 reversed $124 $-1 #
vertex $-1 $309 $441 #
straight-curve $-1 0 -675.00000000000045 62.500000000002018 1 0 0 I I #
edge $-1 $202 -62.500000000002018 $306 62.500000000002018 $199 $442 forward 7 unknown #
edge $-1 $203 -62.500000000002018 $305 62.500000000002018 $200 $443 forward 7 unknown #
point $-1 62.500000000002018 -675.00000000000045 62.500000000002018 #
point $-1 62.500000000002018 675.00000000000045 62.500000000002018 #
face $-1 $444 $445 $33 $-1 $446 reversed single #
loop $-1 $-1 $344 $205 #
plane-surface $-1 0 0 62.500000000002018 0 0 1 1 0 0 forward_v I I I I #
coedge $-1 $447 $448 $449 $327 reversed $206 $-1 #
coedge $-1 $213 $207 $450 $451 reversed $132 $-1 #
coedge $-1 $207 $213 $452 $453 reversed $132 $-1 #
edge $-1 $454 -1350.0000000000005 $455 5.6843418860808015e-013 $449 $456 forward 7 unknown #
coedge $-1 $209 $208 $457 $458 reversed $90 $-1 #
coedge $-1 $459 $460 $461 $330 forward $462 $-1 #
edge $-1 $463 -1350.0000000000005 $334 5.6843418860808015e-013 $329 $464 forward 7 unknown #
coedge $-1 $332 $210 $465 $466 reversed $333 $-1 #
coedge $-1 $210 $331 $459 $467 forward $333 $-1 #
loop $-1 $-1 $210 $468 #
vertex $-1 $469 $470 #
vertex $-1 $471 $472 #
ellipse-curve $-1 -1.7621459846850493e-012 -675.00000000000045 -1.8189894035458573e-012 0 1 0 2.1510571102112403e-013 1.665334536937729e-013 -62.5 1 I I #
coedge $-1 $473 $474 $212 $338 forward $475 $-1 #
edge $-1 $335 -3.14159265358979 $340 -1.5707963267948932 $337 $336 forward 7 unknown #
coedge $-1 $476 $477 $478 $214 forward $445 $-1 #
vertex $-1 $479 $480 #
straight-curve $-1 62.500000000002018 -675.00000000000034 -1.8189894035458573e-012 -2.6033049414092568e-015 -1 -2.6645352591003753e-015 I I #
coedge $-1 $481 $215 $474 $471 forward $345 $-1 #
coedge $-1 $215 $481 $217 $347 forward $345 $-1 #
coedge $-1 $482 $465 $209 $216 reversed $322 $-1 #
loop $-1 $-1 $215 $483 #
straight-curve $-1 -1.7621459846850491e-012 -675.00000000000034 62.500000000002018 -2.6033049414092568e-015 -1 -2.6645352591003753e-015 I I #
edge $-1 $484 -62.500000000002018 $221 -1.7523156862174505e-012 $217 $485 forward 7 unknown #
coedge $-1 $486 $478 $218 $349 reversed $487 $-1 #
edge $-1 $484 -62.500000000002018 $220 -1.7781331962396527e-012 $348 $488 forward 7 unknown #
face $-1 $489 $219 $33 $-1 $490 reversed single #
edge $-1 $220 -1.7781331962396527e-012 $491 62.500000000002018 $477 $488 forward 7 unknown #
point $-1 62.500000000002025 675.00000000000057 1.7781331962396527e-012 #
edge $-1 $221 -1.7523156862174505e-012 $492 62.500000000002018 $493 $485 forward 7 unknown #
point $-1 1.7523156862174505e-012 675.00000000000057 62.500000000002018 #
face $-1 $-1 $370 $35 $-1 $494 reversed single #
loop $-1 $-1 $495 $223 #
plane-surface $-1 0 0 -1361.5248804190103 0 0 1 1 0 0 forward_v I I I I #
coedge $-1 $230 $496 $359 $497 forward $224 $-1 #
coedge $-1 $498 $226 $358 $497 reversed $139 $-1 #
coedge $-1 $226 $498 $369 $499 forward $139 $-1 #
edge $-1 $367 -3.1415926535897869 $371 6.1942952989113763e-008 $226 $500 forward 7 unknown #
coedge $-1 $228 $227 $501 $502 forward $93 $-1 #
coedge $-1 $232 $503 $227 $364 reversed $370 $-1 #
edge $-1 $234 655.57535687826237 $504 663.76244020946422 $363 $505 forward 7 unknown #
coedge $-1 $496 $230 $228 $366 reversed $224 $-1 #
edge $-1 $506 -663.76244020946444 $235 -655.57535687826237 $365 $507 forward 7 unknown #
vertex $-1 $231 $508 #
straight-curve $-1 -12.499999999996476 1.2590910679060014 -1353.3377970878082 0 -1 -8.4659846705448462e-014 I I #
coedge $-1 $503 $232 $360 $499 reversed $370 $-1 #
loop $-1 $-1 $369 $355 #
vertex $-1 $233 $509 #
straight-curve $-1 12.499999999996476 1.2590910679060014 -1353.3377970878082 0 1 8.4659846705448462e-014 I I #
point $-1 12.499999999999645 69.999999999997954 -1353.3377970878023 #
point $-1 -12.500000000000355 70.000000000001364 -1353.3377970878023 #
loop $-1 $-1 $243 $145 #
coedge $-1 $376 $376 $241 $377 forward $237 $-1 #
edge $510 $511 -3.1415926535897931 $511 3.1415926535897931 $241 $512 forward 7 unknown #
vertex $-1 $242 $513 #
ellipse-curve $-1 1.2394273975202137e-014 10.000000000000028 1.0658141036400695e-014 2.6033049414092568e-015 1 2.6645352591003753e-015 2.1510571102112403e-013 1.665334536937729e-013 -62.5 1 I I #
vertex $-1 $244 $514 #
ellipse-curve $-1 5.319987614500746e-013 224.99999999999977 5.8797411384148189e-013 -2.6033049414092568e-015 -1 -2.6645352591003753e-015 1.5143442055887155e-013 1.1723955140041668e-013 -44.000000000000057 1 I I #
point $-1 1.4255263636186929e-013 10.000000000000142 -44.000000000000028 #
loop $-1 $-1 $253 $153 #
coedge $-1 $384 $384 $251 $385 forward $247 $-1 #
edge $515 $516 -3.1415926535897931 $516 3.1415926535897931 $251 $517 forward 7 unknown #
vertex $-1 $252 $518 #
ellipse-curve $-1 5.3270866992756541e-013 -675 -1.8127721546079548e-012 -7.6571778431788751e-016 1 2.6645352591003639e-015 2.1510571102112403e-013 1.665334536937729e-013 -62.5 1 I I #
vertex $-1 $254 $519 #
ellipse-curve $-1 -2.3630460110370122e-012 10.000000000000227 1.5099033134894455e-014 7.6571778431788751e-016 -1 -2.6645352591003639e-015 -1.4799272918253334e-013 -1.1457501614131615e-013 43 1 I I #
point $-1 -1.698530205374027e-012 -675 -43.000000000001819 #
loop $-1 $-1 $263 $161 #
coedge $-1 $392 $392 $261 $393 forward $257 $-1 #
edge $520 $521 -3.1415926535897931 $521 3.1415926535897931 $261 $522 forward 7 unknown #
vertex $-1 $262 $523 #
ellipse-curve $-1 1.4109085807231105e-012 534.99999999999659 1.4113155089034982e-012 -2.6033049414092568e-015 -1 -2.6645352591003753e-015 2.1510571102112403e-013 1.665334536937729e-013 -62.5 1 I I #
vertex $-1 $264 $524 #
ellipse-curve $-1 6.655164294004982e-013 259.99999999999977 6.8123284790999514e-013 2.6033049414092568e-015 1 2.6645352591003753e-015 1.5143442055887155e-013 1.1723955140041668e-013 -44.000000000000057 1 I I #
point $-1 1.543210004228967e-012 534.99999999999659 -43.999999999998636 #
model_id-kcp-attrib $-1 $-1 $-1 $268 1 990625311 90 609878017 8 #
face $525 $526 $527 $11 $-1 $528 forward single #
loop $-1 $283 $529 $268 #
cone-surface $-1 -4.1443993961491615e-014 -9.9199258831542279e-029 1142.5 0 -1.8369459624254693e-031 -1 -1.5143442055887123e-013 -44.000000000000057 4.1651855795669477e-028 1 I I 0 1 4.4000000000000057 forward I I I I #
coedge $-1 $530 $414 $416 $531 forward $269 $-1 #
coedge $-1 $416 $271 $532 $533 reversed $171 $-1 #
edge $-1 $534 -20.749999999999662 $284 -8.0000000774283642 $282 $535 forward 7 unknown #
coedge $-1 $273 $272 $536 $537 reversed $113 $-1 #
edge $-1 $538 0 $411 0.81870833312123503 $272 $539 forward 7 unknown #
coedge $-1 $540 $541 $273 $409 forward $542 $-1 #
edge $-1 $412 -2.5187083331244065 $543 -1.7000000000042161 $408 $544 forward 7 unknown #
coedge $-1 $282 $274 $541 $545 forward $283 $-1 #
vertex $-1 $281 $546 #
vertex $-1 $545 $547 #
straight-curve $-1 -42.187083331275751 12.500000000000144 1142.5 0 1.8369459624254693e-030 10 I I #
coedge $-1 $403 $536 $276 $415 forward $269 $-1 #
edge $-1 $538 -3.1415926535897873 $417 6.19429613379909e-008 $276 $548 forward 7 unknown #
coedge $-1 $277 $404 $403 $531 reversed $171 $-1 #
vertex $-1 $531 $549 #
straight-curve $-1 -34.000000000063487 -12.499999999999856 1222.5000007742842 -10 3.4416913763379853e-014 -8.205691985271878e-013 I I #
intcurve-curve $-1 forward { surfintcur full nubs 3 open 5 
	-1.8947410400552629 3 -1.4211120040714773 2 -0.94748296808769084 2 -0.47374148404384542 2 0 3 
	-44.000000000062428 1.5143442055882435e-013 1209.9999999999964 
	-44.000000000062421 1.5787634532794375 1209.9999999999964 
	-43.906586448744797 3.2569256244449285 1210.317288425653 
	-43.569181028288952 6.3342215594929909 1211.5957044990162 
	-43.329627529241094 7.7340344205253508 1212.556364890858 
	-42.876466955519348 9.943897408630626 1214.7662278789635 
	-42.632543169306459 10.904354193904254 1216.1659332480763 
	-42.285014479736091 12.182620552079822 1219.2428417478657 
	-42.187083331275751 12.500000000000144 1220.9208617198503 
	-42.187083331275751 12.500000000000144 1222.4999999999966 
	0.0049297532841028613 
	cone -34.000000000063444 8.8151708155455559e-014 1222.4999999999973 -1 3.4416913763379853e-015 -8.2056919852718778e-014 -4.3021142204224633e-014 -12.499999999999973 1.1832913578315152e-028 1 I I 0 1 1.2499999999999973 forward I I I I 
	cone -4.1443993961491615e-014 -9.9199258831542279e-029 1142.5 0 -1.8369459624254693e-031 -1 -1.5143442055887123e-013 -44.000000000000057 4.1651855795669477e-028 1 I I 0 1 4.4000000000000057 forward I I I I 
	nullbs 
	nullbs 
	I I 
	0 
	0 
	0 
	} I I #
point $-1 -42.187083331275851 -12.499999999999829 1222.5000007742835 #
point $-1 -44.000000000062428 1.5143442055882435e-013 1209.9999999999964 #
coedge $-1 $422 $422 $550 $551 forward $287 $-1 #
model_id-kcp-attrib $-1 $-1 $-1 $288 1 990625311 90 609878017 11 #
cone-surface $-1 9.5800103960820434e-016 -3.7234234726431771e-028 449.99999999999966 0 -1.8369459624254693e-031 -1 -1.5143442055887123e-013 -44.000000000000057 4.1651855795669477e-028 1 I I 0 1 4.4000000000000057 forward I I I I #
model_id-kcp-attrib $-1 $552 $-1 $290 1 990625311 90 609878017 15 #
face $553 $554 $542 $11 $-1 $555 forward single #
plane-surface $-1 -4.7205566278823441e-014 -21.999999999999886 0 0 -1.8369459624254693e-031 -1 -3.4416913763379783e-014 -10 9.4663308626521417e-029 forward_v I I I I #
plane-surface $-1 62.500000000002018 0 0 -1 0 0 0 0 1 forward_v I I I I #
coedge $-1 $299 $297 $301 $433 reversed $187 $-1 #
edge $-1 $312 -62.500000000002018 $435 62.500000000002018 $311 $556 forward 7 unknown #
vertex $-1 $433 $557 #
straight-curve $-1 -62.500000000002018 -675.00000000000045 0 0 0 -1 I I #
edge $-1 $431 -675.00000000000045 $435 675.00000000000045 $429 $558 forward 7 unknown #
straight-curve $-1 0 -675.00000000000045 -62.500000000002018 -1 0 0 I I #
vertex $-1 $304 $559 #
straight-curve $-1 0 675.00000000000045 -62.500000000002018 1 0 0 I I #
point $-1 62.500000000002018 675.00000000000045 -62.500000000002018 #
point $-1 62.500000000002018 -675.00000000000045 -62.500000000002018 #
straight-curve $-1 -62.500000000002018 0 62.500000000002018 0 -1 0 I I #
point $-1 -62.500000000002018 675.00000000000045 62.500000000002018 #
point $-1 -62.500000000002018 -675.00000000000045 62.500000000002018 #
straight-curve $-1 62.500000000002018 -675.00000000000045 0 0 0 -1 I I #
straight-curve $-1 62.500000000002018 675.00000000000045 0 0 0 -1 I I #
face $-1 $560 $561 $33 $-1 $562 reversed single #
loop $-1 $-1 $339 $321 #
plane-surface $-1 62.500000000002018 0 0 -1 0 0 0 0 1 forward_v I I I I #
coedge $-1 $563 $324 $564 $565 reversed $206 $-1 #
coedge $-1 $324 $563 $566 $567 reversed $206 $-1 #
coedge $-1 $568 $569 $570 $327 forward $571 $-1 #
coedge $-1 $572 $573 $325 $451 forward $574 $-1 #
edge $-1 $340 -1.5707963267948932 $455 3.4416913763379916e-015 $450 $336 forward 7 unknown #
coedge $-1 $575 $576 $326 $453 forward $577 $-1 #
edge $-1 $454 -3.4416913763379813e-015 $220 1.5707963267948932 $452 $222 forward 7 unknown #
vertex $-1 $578 $579 #
vertex $-1 $580 $581 #
straight-curve $-1 -1.7621459846850479e-012 -674.99999999999989 -62.500000000002018 -2.6033049414092568e-015 -1 -2.6645352591003753e-015 I I #
coedge $-1 $582 $493 $328 $458 forward $583 $-1 #
edge $-1 $221 -3.1415926535897962 $463 -1.5707963267949001 $457 $222 forward 7 unknown #
coedge $-1 $584 $329 $332 $467 reversed $462 $-1 #
coedge $-1 $329 $584 $582 $585 forward $462 $-1 #
coedge $-1 $586 $587 $563 $330 reversed $561 $-1 #
loop $-1 $-1 $329 $588 #
vertex $-1 $589 $590 #
straight-curve $-1 -62.500000000002018 -674.99999999999989 -1.8189894035458559e-012 -2.6033049414092568e-015 -1 -2.6645352591003753e-015 I I #
coedge $-1 $344 $591 $331 $466 forward $322 $-1 #
edge $-1 $592 -62.500000000002018 $335 -1.7621459846850491e-012 $331 $593 forward 7 unknown #
edge $-1 $592 -62.500000000002018 $334 1.8189894035458577e-012 $459 $594 forward 7 unknown #
face $-1 $595 $333 $33 $-1 $596 reversed single #
edge $-1 $334 1.8189894035458577e-012 $597 62.500000000002018 $587 $594 forward 7 unknown #
point $-1 -62.500000000002018 -675.00000000000045 -1.8189894035458577e-012 #
edge $-1 $335 -1.7621459846850491e-012 $598 62.500000000002018 $474 $593 forward 7 unknown #
point $-1 -1.7621459846850491e-012 -675.00000000000045 62.500000000002018 #
coedge $-1 $474 $337 $599 $600 reversed $475 $-1 #
coedge $-1 $337 $473 $342 $471 reversed $475 $-1 #
loop $-1 $-1 $337 $595 #
coedge $-1 $601 $339 $573 $479 forward $445 $-1 #
coedge $-1 $339 $601 $575 $351 reversed $445 $-1 #
coedge $-1 $348 $599 $134 $214 reversed $487 $-1 #
edge $-1 $340 1.8189894035458569e-012 $602 62.500000000002018 $476 $603 forward 7 unknown #
point $-1 62.500000000002018 -675.00000000000045 -1.8189894035458569e-012 #
coedge $-1 $343 $342 $486 $604 forward $345 $-1 #
coedge $-1 $591 $344 $493 $353 forward $322 $-1 #
face $-1 $605 $345 $33 $-1 $323 forward single #
vertex $-1 $604 $606 #
straight-curve $-1 0 675.00000000000045 62.500000000002018 -1 0 0 I I #
coedge $-1 $599 $348 $481 $604 reversed $487 $-1 #
loop $-1 $-1 $478 $607 #
straight-curve $-1 62.500000000002018 675.00000000000045 0 0 0 -1 I I #
face $-1 $608 $583 $33 $-1 $490 reversed single #
plane-surface $-1 0 675.00000000000045 0 0 -1 0 0 0 -1 forward_v I I I I #
vertex $-1 $609 $610 #
vertex $-1 $353 $611 #
coedge $-1 $457 $582 $482 $353 reversed $583 $-1 #
plane-surface $-1 12.499999999996476 0 0 -1 0 0 0 0 1 forward_v I I I I #
coedge $-1 $612 $613 $498 $614 reversed $356 $-1 #
coedge $-1 $358 $365 $612 $615 reversed $224 $-1 #
edge $616 $617 2.2737367544326472e-013 $367 8.1870833312125342 $358 $618 forward 7 unknown #
coedge $-1 $360 $359 $495 $614 forward $139 $-1 #
edge $619 $620 2.2737360989191176e-013 $371 8.1870833312125342 $369 $621 forward 7 unknown #
ellipse-curve $-1 1.1848170959840217e-014 -57.500000000002046 -1353.3377970878132 -3.9303911869604031e-015 -8.4659846705448462e-014 1 12.499999999999973 3.3306690738754627e-014 4.7806878356211506e-014 1 I I #
coedge $-1 $613 $612 $362 $502 reversed $356 $-1 #
edge $622 $504 -12.499999999998879 $506 12.500000000001121 $501 $623 forward 7 unknown #
coedge $-1 $363 $369 $613 $624 reversed $370 $-1 #
vertex $-1 $624 $625 #
straight-curve $-1 12.499999999996476 70.000000000001819 -697.76244020953993 0 0 -1 I I #
vertex $-1 $502 $626 #
straight-curve $-1 -12.499999999996476 70.000000000001819 -697.76244020953993 0 0 1 I I #
point $-1 -12.500000000000016 -57.50000000000216 -1353.3377970878028 #
point $-1 12.499999999999957 -57.499999225715101 -1353.3377970878028 #
convexity-sys-attrib $-1 $-1 $-1 $377 #
vertex $-1 $377 $627 #
ellipse-curve $-1 5.8082846258328229e-013 224.99999999999977 5.7909232964448084e-013 2.6033049414092568e-015 1 2.6645352591003753e-015 2.1510571102112403e-013 1.665334536937729e-013 -62.5 1 I I #
point $-1 -1.9505764733453203e-013 9.9999999999998579 62.500000000000007 #
point $-1 7.1098682496994944e-013 224.99999999999989 -43.999999999999467 #
convexity-sys-attrib $-1 $-1 $-1 $385 #
vertex $-1 $385 $628 #
ellipse-curve $-1 2.1117900180293278e-014 10.000000000000227 6.2172489379016844e-015 -7.6571778431788751e-016 1 2.6645352591003639e-015 2.1510571102112403e-013 1.665334536937729e-013 -62.5 1 I I #
point $-1 3.2525674861783124e-013 -675.00000000000011 62.499999999998188 #
point $-1 -2.2101209751212991e-012 10.000000000000227 -42.999999999999993 #
convexity-sys-attrib $-1 $-1 $-1 $393 #
vertex $-1 $393 $629 #
ellipse-curve $-1 6.7194413553260628e-013 259.99999999999977 6.7235106371299399e-013 -2.6033049414092568e-015 -1 -2.6645352591003753e-015 2.1510571102112403e-013 1.665334536937729e-013 -62.5 1 I I #
point $-1 1.1881490799905965e-012 534.99999999999636 62.500000000001414 #
point $-1 8.0424555903846279e-013 259.99999999999989 -43.999999999999375 #
model_id-kcp-attrib $-1 $-1 $-1 $400 1 990625311 90 609878017 9 #
face $630 $288 $631 $11 $-1 $632 forward single #
loop $-1 $633 $634 $400 #
cone-surface $-1 -2.7667172480989864e-014 -1.8794611066890611e-028 917.49999999999989 0 -1.8369459624254693e-031 -1 -2.1510571102112363e-013 -62.5 5.9164567891575885e-028 1 I I 0 1 6.25 forward I I I I #
coedge $-1 $529 $529 $635 $636 reversed $401 $-1 #
coedge $-1 $536 $403 $540 $637 reversed $269 $-1 #
edge $-1 $417 0 $638 12.749999922571295 $416 $639 forward 7 unknown #
coedge $-1 $541 $540 $404 $533 forward $542 $-1 #
edge $-1 $638 1.7000000000036928 $534 2.518708333123882 $532 $640 forward 7 unknown #
vertex $-1 $533 $641 #
straight-curve $-1 -42.187083331275858 -12.499999999999821 1142.5 0 -1.8369459624254693e-030 -10 I I #
coedge $-1 $414 $530 $406 $537 forward $269 $-1 #
edge $-1 $543 0 $538 12.750000000000004 $406 $642 forward 7 unknown #
vertex $-1 $537 $643 #
straight-curve $-1 -34.000000000063402 12.500000000000117 1222.499999999997 -10 3.4416913763379853e-014 -8.205691985271878e-013 I I #
coedge $-1 $532 $408 $530 $637 forward $542 $-1 #
coedge $-1 $408 $532 $410 $545 reversed $542 $-1 #
loop $-1 $-1 $532 $426 #
vertex $-1 $409 $644 #
straight-curve $-1 -17.000000000031704 12.500000000000057 1350 10 -3.4416913763379853e-014 -9.0719004100416358e-029 I I #
edge $-1 $412 1.8588544640892022 $534 7.5659234966801776 $410 $645 forward 7 unknown #
point $-1 -42.187083331275751 12.500000000000144 1222.4999999999966 #
point $-1 -42.187083331275772 12.500000000000144 1350 #
ellipse-curve $-1 -34.000000000063444 8.8151708155455559e-014 1222.4999999999973 -1 3.4416913763379853e-015 -8.2056919852718778e-014 -4.3021142204224633e-014 -12.499999999999973 1.1832913578315152e-028 1 F -3.1415926535897905 F 6.19429613379909e-008 #
point $-1 -34.000000000063487 -12.499999999999856 1222.5000007742842 #
coedge $-1 $550 $550 $422 $551 reversed $631 $-1 #
edge $-1 $646 0 $646 6.2831853071795862 $422 $647 forward 7 unknown #
model_id-kcp-attrib $-1 $-1 $425 $290 1 990625311 90 609878017 12 #
model_id-kcp-attrib $-1 $-1 $-1 $426 1 990625311 90 609878017 13 #
face $648 $-1 $649 $11 $-1 $650 forward single #
plane-surface $-1 -1.2986649516183391e-013 -21.999999999999886 1350 0 1.8369459624254693e-031 1 3.4416913763379783e-014 10 -9.4663308626521417e-029 forward_v I I I I #
straight-curve $-1 -62.500000000002018 675.00000000000045 0 0 0 -1 I I #
point $-1 -62.500000000002018 -675.00000000000045 -62.500000000002018 #
straight-curve $-1 -62.500000000002018 0 -62.500000000002018 0 1 0 I I #
point $-1 -62.500000000002018 675.00000000000045 -62.500000000002018 #
face $-1 $468 $651 $33 $-1 $596 reversed single #
loop $-1 $-1 $461 $444 #
plane-surface $-1 -62.500000000002018 0 0 1 0 0 0 0 -1 forward_v I I I I #
coedge $-1 $448 $447 $208 $330 forward $206 $-1 #
coedge $-1 $652 $653 $447 $565 forward $654 $-1 #
edge $-1 $463 -1.5707963267949001 $454 -3.4416913763379813e-015 $564 $222 forward 7 unknown #
coedge $-1 $655 $656 $448 $567 forward $651 $-1 #
edge $-1 $455 3.4416913763379916e-015 $334 1.5707963267949001 $566 $336 forward 7 unknown #
coedge $-1 $657 $449 $656 $580 forward $571 $-1 #
coedge $-1 $449 $657 $652 $658 forward $571 $-1 #
coedge $-1 $659 $660 $207 $327 reversed $661 $-1 #
loop $-1 $-1 $449 $605 #
coedge $-1 $573 $450 $660 $662 reversed $574 $-1 #
coedge $-1 $450 $572 $476 $479 reversed $574 $-1 #
loop $-1 $-1 $450 $663 #
coedge $-1 $576 $452 $477 $351 forward $577 $-1 #
coedge $-1 $452 $575 $659 $578 reversed $577 $-1 #
loop $-1 $-1 $452 $664 #
edge $-1 $454 1.7523156862174497e-012 $491 62.500000000002018 $576 $665 forward 7 unknown #
point $-1 1.7523156862174497e-012 675.00000000000057 -62.500000000002018 #
edge $-1 $455 1.7621459846850497e-012 $597 62.500000000002018 $656 $666 forward 7 unknown #
point $-1 -1.7621459846850497e-012 -675.00000000000045 -62.500000000002018 #
coedge $-1 $493 $457 $460 $585 reversed $583 $-1 #
loop $-1 $-1 $457 $489 #
coedge $-1 $460 $459 $591 $667 reversed $462 $-1 #
edge $-1 $492 -62.500000000002018 $463 -1.7781331962396517e-012 $582 $668 forward 7 unknown #
coedge $-1 $669 $461 $653 $589 forward $561 $-1 #
coedge $-1 $461 $669 $655 $469 reversed $561 $-1 #
face $-1 $607 $462 $33 $-1 $562 reversed single #
edge $-1 $463 -1.7781331962396517e-012 $670 62.500000000002018 $653 $668 forward 7 unknown #
point $-1 -62.500000000002011 675.00000000000057 1.7781331962396517e-012 #
coedge $-1 $465 $482 $584 $667 forward $322 $-1 #
vertex $-1 $667 $671 #
straight-curve $-1 0 -675.00000000000045 62.500000000002018 1 0 0 I I #
straight-curve $-1 -62.500000000002018 -675.00000000000045 0 0 0 -1 I I #
face $-1 $663 $475 $33 $-1 $596 reversed single #
plane-surface $-1 0 -675.00000000000045 0 0 1 0 0 0 1 forward_v I I I I #
vertex $-1 $672 $673 #
vertex $-1 $604 $674 #
coedge $-1 $478 $486 $473 $600 forward $487 $-1 #
edge $-1 $598 -62.500000000002018 $340 1.8189894035458569e-012 $599 $603 forward 7 unknown #
coedge $-1 $477 $476 $675 $609 reversed $445 $-1 #
vertex $-1 $479 $676 #
straight-curve $-1 62.500000000002018 -675.00000000000045 0 0 0 -1 I I #
edge $-1 $598 -675.00000000000045 $484 675.00000000000045 $486 $677 forward 7 unknown #
face $-1 $588 $571 $33 $-1 $678 reversed single #
point $-1 62.500000000002018 675.00000000000045 62.500000000002018 #
face $-1 $-1 $487 $33 $-1 $446 reversed single #
face $-1 $679 $654 $33 $-1 $490 reversed single #
edge $-1 $491 -675.00000000000045 $602 675.00000000000045 $601 $680 forward 7 unknown #
point $-1 62.500000000002018 675.00000000000045 -62.500000000002018 #
point $-1 -62.500000000002018 675.00000000000045 62.500000000002018 #
coedge $-1 $501 $495 $496 $615 forward $356 $-1 #
coedge $-1 $495 $501 $503 $624 forward $356 $-1 #
edge $681 $617 -3.1415926535897776 $620 6.1942952989113763e-008 $495 $682 forward 7 unknown #
edge $683 $617 -57.500000000001592 $506 69.999999999998522 $496 $684 forward 7 unknown #
convexity-sys-attrib $-1 $-1 $-1 $497 #
vertex $-1 $615 $685 #
straight-curve $-1 -12.499999999996476 -57.500000000001364 -1361.5248804190153 -3.8245502684967105e-015 -8.4660224794128047e-014 1 I I #
convexity-sys-attrib $-1 $-1 $-1 $499 #
vertex $-1 $614 $686 #
straight-curve $-1 12.499999999996476 -57.500000000001364 -1361.5248804190153 -3.8245502684967105e-015 -8.4660224794128047e-014 1 I I #
convexity-sys-attrib $-1 $-1 $-1 $502 #
straight-curve $-1 7.9580786405131221e-013 70.000000000001819 -1361.5248804190103 -1 0 0 I I #
edge $687 $504 -69.999999999998636 $620 57.499999225714419 $503 $688 forward 7 unknown #
point $-1 12.499999999999675 69.999999999998636 -1361.5248804190041 #
point $-1 -12.500000000000325 69.999999999998522 -1361.5248804190044 #
point $-1 3.7337654127354811e-013 224.9999999999996 62.500000000000576 #
point $-1 -1.8633402112944089e-013 10.00000000000006 62.500000000000007 #
point $-1 4.4918463480009234e-013 259.9999999999996 62.500000000000675 #
model_id-kcp-attrib $-1 $-1 $-1 $526 1 990625311 90 609878017 10 #
loop $-1 $689 $550 $526 #
plane-surface $-1 -2.098657077113922e-013 -53.249999999999886 899.99999999999966 0 -1.8369459624254693e-031 -1 -3.4416913763379783e-014 -10 9.4663308626521417e-029 forward_v I I I I #
loop $-1 $-1 $690 $400 #
coedge $-1 $634 $634 $691 $692 reversed $527 $-1 #
coedge $-1 $635 $635 $529 $636 forward $693 $-1 #
edge $-1 $694 0 $694 6.2831853071795862 $635 $695 forward 7 unknown #
edge $-1 $543 -2.3500000038714295 $638 0.14999999612857051 $540 $696 forward 7 unknown #
vertex $-1 $533 $697 #
straight-curve $-1 -34.000000000063487 -12.499999999999856 1222.5000007742842 -8.205691985271879e-013 -1.7415263237106847e-015 10 I I #
straight-curve $-1 -17.000000000037026 -12.499999999999943 1350 -10 3.4416913763379714e-014 9.0719004100416358e-029 I I #
point $-1 -42.187083331275851 -12.499999999999856 1349.9999999999966 #
straight-curve $-1 -34.000000000073868 12.500000000000117 1349.9999999999973 8.205691985271879e-013 -2.8259828802220203e-027 -10 I I #
point $-1 -34.000000000063402 12.500000000000117 1222.499999999997 #
point $-1 -34.000000000073868 12.500000000000117 1349.9999999999973 #
ellipse-curve $-1 -5.4149284882398785e-014 -1.735493991486226e-029 1350 0 -1.8369459624254693e-031 -1 -1.5143442055887123e-013 -44.000000000000057 4.1651855795669477e-028 1 I I #
vertex $-1 $551 $698 #
ellipse-curve $-1 -2.6595641921395278e-014 -1.9484864358959005e-028 899.99999999999966 0 -1.8369459624254693e-031 -1 -1.5143442055887123e-013 -44.000000000000057 4.1651855795669477e-028 1 I I #
model_id-kcp-attrib $-1 $-1 $-1 $554 1 990625311 90 609878017 14 #
loop $-1 $693 $699 $554 #
plane-surface $-1 -2.1200876883058136e-013 -53.249999999999886 934.99999999999966 0 1.8369459624254693e-031 1 3.4416913763379783e-014 10 -9.4663308626521417e-029 forward_v I I I I #
loop $-1 $-1 $566 $560 #
coedge $-1 $653 $564 $569 $658 reversed $654 $-1 #
coedge $-1 $564 $652 $586 $589 reversed $654 $-1 #
loop $-1 $-1 $564 $608 #
coedge $-1 $656 $566 $587 $469 forward $651 $-1 #
coedge $-1 $566 $655 $568 $580 reversed $651 $-1 #
coedge $-1 $569 $568 $669 $672 forward $571 $-1 #
edge $-1 $670 -62.500000000002018 $454 1.7523156862174497e-012 $652 $665 forward 7 unknown #
coedge $-1 $675 $570 $576 $578 forward $661 $-1 #
coedge $-1 $570 $675 $572 $662 forward $661 $-1 #
loop $-1 $-1 $570 $679 #
edge $-1 $602 -62.500000000002018 $455 1.7621459846850497e-012 $572 $666 forward 7 unknown #
face $-1 $664 $574 $33 $-1 $596 reversed single #
face $-1 $350 $577 $33 $-1 $490 reversed single #
straight-curve $-1 0 675.00000000000045 -62.500000000002018 1 0 0 I I #
straight-curve $-1 0 -675.00000000000045 -62.500000000002018 -1 0 0 I I #
edge $-1 $492 -675.00000000000045 $592 675.00000000000045 $584 $700 forward 7 unknown #
straight-curve $-1 -62.500000000002018 675.00000000000045 0 0 0 -1 I I #
coedge $-1 $587 $586 $657 $672 reversed $561 $-1 #
vertex $-1 $658 $701 #
point $-1 -62.500000000002018 -675.00000000000045 62.500000000002018 #
edge $-1 $597 -675.00000000000045 $670 675.00000000000045 $669 $702 forward 7 unknown #
point $-1 -62.500000000002018 -675.00000000000045 -62.500000000002018 #
point $-1 62.500000000002018 -675.00000000000045 62.500000000002018 #
coedge $-1 $660 $659 $601 $609 forward $661 $-1 #
point $-1 62.500000000002018 -675.00000000000045 -62.500000000002018 #
straight-curve $-1 62.500000000002018 0 62.500000000002018 0 1 0 I I #
plane-surface $-1 0 0 -62.500000000002018 0 0 1 1 0 0 forward_v I I I I #
face $-1 $483 $661 $33 $-1 $678 reversed single #
straight-curve $-1 62.500000000002018 0 -62.500000000002018 0 -1 0 I I #
convexity-sys-attrib $-1 $-1 $-1 $614 #
ellipse-curve $-1 4.3160082712393715e-014 -57.500000000001364 -1361.5248804190151 0 0 1 12.499999999999973 3.3306690738754627e-014 4.7806878356211506e-014 1 I I #
convexity-sys-attrib $-1 $-1 $-1 $615 #
straight-curve $-1 -12.499999999996476 0 -1361.5248804190103 0 1 0 I I #
point $-1 -12.499999999999986 -57.500000000001592 -1361.5248804190151 #
point $-1 12.499999999999988 -57.499999225714419 -1361.5248804190151 #
convexity-sys-attrib $-1 $-1 $-1 $624 #
straight-curve $-1 12.499999999996476 0 -1361.5248804190103 0 -1 0 I I #
loop $-1 $-1 $691 $526 #
coedge $-1 $690 $690 $699 $703 forward $633 $-1 #
coedge $-1 $691 $691 $634 $692 forward $689 $-1 #
edge $-1 $704 0 $704 6.2831853071795862 $691 $705 forward 7 unknown #
loop $-1 $-1 $635 $554 #
vertex $-1 $636 $706 #
ellipse-curve $-1 -2.8738703040584432e-014 -1.8104357774822234e-028 934.99999999999966 0 -1.8369459624254693e-031 -1 -1.5143442055887123e-013 -44.000000000000057 4.1651855795669477e-028 1 I I #
straight-curve $-1 -34.000000000073946 -11.000000038714177 1350 -3.4416913763379783e-014 -10 9.4663308626521417e-029 I I #
point $-1 -34.000000000073953 -12.499999999999883 1349.9999999999973 #
point $-1 -1.780300624802665e-013 -44.000000000000057 899.99999999999966 #
coedge $-1 $699 $699 $690 $703 reversed $649 $-1 #
straight-curve $-1 -62.500000000002018 0 62.500000000002018 0 -1 0 I I #
point $-1 -62.500000000002018 675.00000000000045 -62.500000000002018 #
straight-curve $-1 -62.500000000002018 0 -62.500000000002018 0 1 0 I I #
edge $-1 $707 0 $707 6.2831853071795862 $690 $708 forward 7 unknown #
vertex $-1 $692 $709 #
ellipse-curve $-1 -2.6595641921395297e-014 -1.9484864358958994e-028 900 0 -1.8369459624254693e-031 -1 -2.1510571102112363e-013 -62.5 5.9164567891575885e-028 1 I I #
point $-1 -1.8017312359945566e-013 -44.000000000000057 934.99999999999966 #
vertex $-1 $703 $710 #
ellipse-curve $-1 -2.8738703040584432e-014 -1.8104357774822234e-028 934.99999999999966 0 -1.8369459624254693e-031 -1 -2.1510571102112363e-013 -62.5 5.9164567891575885e-028 1 I I #
point $-1 -2.4170135294251897e-013 -62.5 900 #
point $-1 -2.4384441406170808e-013 -62.5 934.99999999999966 #
End-of-ACIS-data 