400 0 1 0           
7 Unknown 13 ACIS 4.0.1 NT 24 Wed Aug 26 17:16:09 1998 
1 9.9999999999999995e-007 1e-010 
body $-1 $1 $-1 $2 #
lump $-1 $-1 $3 $0 #
transform $-1 3.4416913763379853e-015 2.6645352591003757e-015 -1 1 -2.6645352591003757e-015 3.4416913763379853e-015 -2.6645352591003757e-015 -1 -2.6645352591003757e-015 -406.15926245349868 476.01959871153014 166.21197670611883 10 rotate no_reflect no_shear #
shell $-1 $-1 $-1 $4 $-1 $1 #
face $-1 $5 $6 $3 $-1 $7 reversed single #
face $-1 $8 $9 $3 $-1 $10 reversed single #
loop $-1 $11 $12 $4 #
cone-surface $-1 0 0 139.40000000000001 0 -3.4302530434182632e-015 -1 -4.2999999999999998 0 0 1 I I 0 -1 0.42999999999999999 forward I I I I #
face $-1 $13 $14 $3 $-1 $15 reversed single #
loop $-1 $16 $17 $5 #
plane-surface $-1 8.6126864805030898 -2.3447910280083306e-013 70.900000000000006 0 -3.4302530434182632e-015 -1 1 0 0 forward_v I I I I #
loop $-1 $-1 $18 $4 #
coedge $-1 $12 $12 $19 $20 reversed $6 $-1 #
face $-1 $21 $22 $3 $-1 $23 reversed single #
loop $-1 $-1 $24 $8 #
cone-surface $-1 2.886579864025407e-015 3.4000000000063397 17.150000000000279 0 1 8.1995689535027672e-014 1.2499999999999973 0 0 1 I I 0 1 0.12499999999999972 forward I I I I #
loop $-1 $-1 $19 $5 #
coedge $-1 $17 $17 $25 $26 reversed $9 $-1 #
coedge $-1 $18 $18 $27 $28 reversed $11 $-1 #
coedge $-1 $19 $19 $12 $20 forward $16 $-1 #
edge $-1 $29 $29 $12 $30 forward #
face $-1 $31 $32 $3 $-1 $33 reversed single #
loop $-1 $-1 $34 $13 #
plane-surface $-1 -1.25 3.4000000000063397 17.150000000000286 -1 0 0 0 1 8.1995689535027672e-014 forward_v I I I I #
coedge $-1 $35 $36 $37 $38 reversed $14 $-1 #
coedge $-1 $25 $25 $17 $26 forward $39 $-1 #
edge $-1 $40 $40 $25 $41 forward #
coedge $-1 $27 $27 $18 $28 forward $42 $-1 #
edge $-1 $43 $43 $27 $44 forward #
vertex $-1 $20 $45 #
ellipse-curve $-1 0 -2.3447910280083306e-013 70.900000000000006 0 -3.4302530434182632e-015 -1 -4.2999999999999998 0 0 1 I I #
face $-1 $46 $47 $3 $-1 $48 forward single #
loop $-1 $-1 $49 $21 #
plane-surface $-1 1.25 3.4000000000073856 4.4000000000002828 1 -1.4279765175629111e-029 1.7415263237135106e-016 0 -1 -8.1995689535027672e-014 forward_v I I I I #
coedge $-1 $50 $51 $52 $53 reversed $22 $-1 #
coedge $-1 $54 $24 $55 $56 reversed $14 $-1 #
coedge $-1 $24 $57 $58 $59 reversed $14 $-1 #
coedge $-1 $58 $60 $24 $38 forward $61 $-1 #
edge $-1 $62 $63 $37 $64 forward #
loop $-1 $65 $25 $66 #
vertex $-1 $26 $67 #
ellipse-curve $-1 0 -1.4389124657412941e-015 70.900000000000006 0 -3.4302530434182632e-015 -1 4.4000000000000057 0 0 1 I I #
loop $-1 $-1 $27 $68 #
vertex $-1 $28 $69 #
ellipse-curve $-1 0 0 139.40000000000001 0 6.1230317691118863e-017 1 -4.2999999999999998 0 0 1 I I #
point $-1 4.3000000000000007 -2.3447910280083306e-013 70.900000000000006 #
face $-1 $70 $71 $3 $-1 $72 forward single #
loop $-1 $-1 $73 $31 #
plane-surface $-1 7.7428703448845226e-009 3.4000000000067376 12.299999984514542 0 1 8.1995689535027672e-014 1 0 0 forward_v I I I I #
coedge $-1 $74 $55 $60 $75 reversed $32 $-1 #
coedge $-1 $76 $34 $57 $77 reversed $22 $-1 #
coedge $-1 $34 $76 $78 $79 reversed $22 $-1 #
coedge $-1 $80 $58 $34 $53 forward $61 $-1 #
edge $-1 $81 $82 $52 $83 forward #
coedge $-1 $57 $35 $84 $85 reversed $14 $-1 #
coedge $-1 $49 $86 $35 $56 forward $32 $-1 #
edge $-1 $87 $62 $35 $88 forward #
coedge $-1 $36 $54 $50 $77 forward $14 $-1 #
coedge $-1 $52 $37 $36 $59 forward $61 $-1 #
edge $-1 $63 $81 $58 $89 forward #
coedge $-1 $37 $80 $49 $75 forward $61 $-1 #
loop $-1 $-1 $60 $46 #
vertex $-1 $38 $90 #
vertex $-1 $38 $91 #
intcurve-curve $-1 forward { surfintcur nubs 3 open 5 
	-3.7894820801105609 3 -3.3157405960666955 2 -2.8419991120228305 2 -2.3683700760390467 2 -1.8947410400552629 3 
	1.2499999999999973 4.2187083331275756 17.149999922571649 
	1.2500000097816475 4.2187083302292807 17.307913750586266 
	1.2182620552079726 4.2285014479736089 17.475715825213452 
	1.0904354193904067 4.263254316930646 17.783406675192381 
	0.99438974086303533 4.2876466955519366 17.923377212103688 
	0.77340344205249711 4.3329627529241126 18.144363510914225 
	0.63342215594925677 4.3569181028288986 18.240429550098391 
	0.325692562444448 4.3906586448744793 18.368271157434716 
	0.15787634532792799 4.400000000006238 18.400000000000357 
	2.616533293482313e-026 4.400000000006238 18.400000000000357 
	0.00049297532841028615 
	cone 2.886579864025407e-015 3.4000000000063397 17.150000000000279 0 1 8.1995689535027672e-014 1.2499999999999973 0 0 1 I I 0 1 0.12499999999999972 forward I I I I 
	cone 0 0 25.150000000000013 0 6.1230317691118863e-017 1 4.4000000000000057 0 0 1 I I 0 1 0.44000000000000061 forward I I I I 
	nullbs 
	nullbs 
	I I 
	0 
	0 
	0 
	} I I #
loop $-1 $-1 $92 $66 #
face $-1 $68 $39 $3 $-1 $93 forward single #
point $-1 -4.4000000000000057 -3.2163966043503897e-014 70.900000000000006 #
face $-1 $94 $42 $3 $-1 $95 forward single #
point $-1 4.3000000000000007 0 139.40000000000001 #
face $-1 $96 $97 $3 $-1 $98 forward single #
loop $-1 $61 $99 $46 #
cone-surface $-1 0 0 25.150000000000013 0 6.1230317691118863e-017 1 4.4000000000000057 0 0 1 I I 0 1 0.44000000000000061 forward I I I I #
coedge $-1 $100 $84 $86 $101 forward $47 $-1 #
coedge $-1 $86 $49 $102 $103 reversed $32 $-1 #
edge $-1 $104 $62 $60 $105 forward #
coedge $-1 $51 $50 $106 $107 reversed $22 $-1 #
edge $-1 $108 $81 $50 $109 forward #
coedge $-1 $110 $111 $51 $79 forward $112 $-1 #
edge $-1 $82 $113 $78 $114 forward #
coedge $-1 $60 $52 $111 $115 forward $61 $-1 #
vertex $-1 $59 $116 #
vertex $-1 $115 $117 #
straight-curve $-1 -1.25 4.2187083331275756 25.150000000000013 0 -6.1230317691118863e-017 -1 I I #
coedge $-1 $73 $106 $54 $85 forward $47 $-1 #
edge $-1 $108 $87 $54 $118 forward #
coedge $-1 $55 $74 $73 $101 reversed $32 $-1 #
vertex $-1 $101 $119 #
straight-curve $-1 1.2499999999999973 3.4000000000063397 17.149999922571578 0 1 8.1995689535027672e-014 I I #
intcurve-curve $-1 forward { surfintcur nubs 3 open 5 
	-1.8947410400552629 3 -1.4211120040714773 2 -0.94748296808769084 2 -0.47374148404384542 2 0 3 
	2.616533293482313e-026 4.400000000006238 18.400000000000357 
	-0.1578763453279286 4.400000000006238 18.400000000000357 
	-0.32569256244447775 4.3906586448744767 18.368271157434705 
	-0.63342215594928408 4.3569181028288932 18.24042955009838 
	-0.77340344205252021 4.3329627529241073 18.1443635109142 
	-0.99438974086304777 4.2876466955519339 17.923377212103663 
	-1.0904354193904107 4.2632543169306443 17.783406675192364 
	-1.2182620552079675 4.2285014479736089 17.475715825213442 
	-1.25 4.2187083331275748 17.307913828014964 
	-1.25 4.2187083331275748 17.15000000000035 
	0.00049297532841028615 
	cone 2.886579864025407e-015 3.4000000000063397 17.150000000000279 0 1 8.1995689535027672e-014 1.2499999999999973 0 0 1 I I 0 1 0.12499999999999972 forward I I I I 
	cone 0 0 25.150000000000013 0 6.1230317691118863e-017 1 4.4000000000000057 0 0 1 I I 0 1 0.44000000000000061 forward I I I I 
	nullbs 
	nullbs 
	I I 
	0 
	0 
	0 
	} I I #
point $-1 1.2499999999999973 4.2187083331275756 17.149999922571649 #
point $-1 2.616533293482313e-026 4.400000000006238 18.400000000000357 #
coedge $-1 $92 $92 $120 $121 forward $65 $-1 #
cone-surface $-1 0 0 94.400000000000034 0 6.1230317691118863e-017 1 4.4000000000000057 0 0 1 I I 0 1 0.44000000000000061 forward I I I I #
face $-1 $122 $112 $3 $-1 $123 forward single #
plane-surface $-1 2.1999999999999886 0 139.40000000000001 0 6.1230317691118863e-017 1 1 0 0 forward_v I I I I #
face $-1 $66 $124 $3 $-1 $125 forward single #
loop $-1 $126 $127 $70 #
cone-surface $-1 0 0 47.650000000000013 0 6.1230317691118863e-017 1 6.25 0 0 1 I I 0 1 0.625 forward I I I I #
coedge $-1 $99 $99 $128 $129 reversed $71 $-1 #
coedge $-1 $106 $73 $110 $130 reversed $47 $-1 #
edge $-1 $87 $131 $86 $132 forward #
coedge $-1 $111 $110 $74 $103 forward $112 $-1 #
edge $-1 $131 $104 $102 $133 forward #
vertex $-1 $103 $134 #
straight-curve $-1 1.2499999999999964 4.2187083331275774 25.150000000000013 0 6.1230317691118863e-017 1 I I #
coedge $-1 $84 $100 $76 $107 forward $47 $-1 #
edge $-1 $113 $108 $76 $135 forward #
vertex $-1 $107 $136 #
straight-curve $-1 -1.25 3.4000000000063397 17.150000000000286 0 1 8.1995689535027672e-014 I I #
coedge $-1 $102 $78 $100 $130 forward $112 $-1 #
coedge $-1 $78 $102 $80 $115 reversed $112 $-1 #
loop $-1 $-1 $102 $94 #
vertex $-1 $79 $137 #
straight-curve $-1 -1.25 1.7000000000031694 4.3999999999999986 0 -1 6.1230317691118863e-017 I I #
edge $-1 $82 $104 $80 $138 forward #
point $-1 -1.25 4.2187083331275748 17.15000000000035 #
point $-1 -1.25 4.2187083331275756 4.3999999999999995 #
ellipse-curve $-1 2.886579864025407e-015 3.4000000000063397 17.150000000000279 0 1 8.1995689535027672e-014 1.2499999999999973 0 0 1 F -3.1415926535897905 F 6.19429613379909e-008 #
point $-1 1.2499999999999973 3.4000000000063397 17.149999922571578 #
coedge $-1 $120 $120 $92 $121 reversed $124 $-1 #
edge $-1 $139 $139 $92 $140 forward #
face $-1 $-1 $141 $3 $-1 $142 forward single #
plane-surface $-1 2.1999999999999886 0 4.3999999999999986 0 -6.1230317691118863e-017 -1 -1 0 0 forward_v I I I I #
loop $-1 $143 $120 $96 #
plane-surface $-1 5.3249999999999886 0 49.400000000000034 0 6.1230317691118863e-017 1 1 0 0 forward_v I I I I #
loop $-1 $-1 $144 $70 #
coedge $-1 $127 $127 $145 $146 reversed $97 $-1 #
coedge $-1 $128 $128 $99 $129 forward $147 $-1 #
edge $-1 $148 $148 $128 $149 forward #
edge $-1 $113 $131 $110 $150 forward #
vertex $-1 $103 $151 #
straight-curve $-1 1.2499999999999973 3.4000000000063397 17.149999922571578 1.7415263237135108e-016 8.1995689535027672e-014 -1 I I #
straight-curve $-1 1.25 1.7000000000036928 4.3999999999999986 1.4290428596635953e-029 1 -6.1230317691118863e-017 I I #
point $-1 1.25 4.2187083331275748 4.4000000000003503 #
straight-curve $-1 -1.25 3.4000000000073856 4.4000000000002828 0 -8.1995689535027672e-014 1 I I #
point $-1 -1.25 3.4000000000063397 17.150000000000286 #
point $-1 -1.25 3.4000000000073856 4.4000000000002828 #
ellipse-curve $-1 0 0 4.4000000000000004 0 6.1230317691118863e-017 1 4.4000000000000057 0 0 1 I I #
vertex $-1 $121 $152 #
ellipse-curve $-1 0 0 49.400000000000034 0 6.1230317691118863e-017 1 4.4000000000000057 0 0 1 I I #
loop $-1 $147 $153 $122 #
plane-surface $-1 5.3249999999999886 0 45.900000000000034 0 -6.1230317691118863e-017 -1 -1 0 0 forward_v I I I I #
loop $-1 $-1 $145 $96 #
coedge $-1 $144 $144 $153 $154 forward $126 $-1 #
coedge $-1 $145 $145 $127 $146 forward $143 $-1 #
edge $-1 $155 $155 $145 $156 forward #
loop $-1 $-1 $128 $122 #
vertex $-1 $129 $157 #
ellipse-curve $-1 0 0 45.900000000000034 0 6.1230317691118863e-017 1 4.4000000000000057 0 0 1 I I #
straight-curve $-1 1.1000000038714295 3.4000000000073856 4.3999999999999986 1 0 0 I I #
point $-1 1.25 3.4000000000073856 4.4000000000002828 #
point $-1 4.4000000000000057 0 49.400000000000034 #
coedge $-1 $153 $153 $144 $154 reversed $141 $-1 #
edge $-1 $158 $158 $144 $159 forward #
vertex $-1 $146 $160 #
ellipse-curve $-1 0 0 49.400000000000006 0 6.1230317691118863e-017 1 6.25 0 0 1 I I #
point $-1 4.4000000000000057 0 45.900000000000034 #
vertex $-1 $154 $161 #
ellipse-curve $-1 0 0 45.900000000000034 0 6.1230317691118863e-017 1 6.25 0 0 1 I I #
point $-1 6.25 0 49.400000000000006 #
point $-1 6.25 0 45.900000000000034 #
End-of-ACIS-data 