600 0 1 0           
70 GICL ACIS Healer - Source: /gicl/data5/repository/new/tld11b.sat - 6 0 18 ACIS 6.0.3 Solaris 24 Sat Apr 13 20:08:17 2002 
1 9.999999999999999547e-07 1.000000000000000036e-10 
body $-1 $1 $-1 $-1 #
lump $-1 $-1 $2 $0 #
shell $-1 $-1 $-1 $3 $-1 $1 #
face $-1 $4 $5 $2 $-1 $6 reversed single #
face $-1 $7 $8 $2 $-1 $9 reversed single #
loop $-1 $-1 $10 $3 #
plane-surface $-1 21.466824842766556 47.82015918207316929 -1.776356839400250465e-14 -0.6223178942978927486 0.7778973678723575258 -0.08715574274765822138 -0.1386965991109136986 -3.330669073875469621e-16 0.9903349198099935524 forward_v I I I I #
face $-1 $11 $12 $2 $-1 $13 reversed single #
loop $-1 $-1 $14 $4 #
plane-surface $-1 38.64980102240825488 61.56654012578665203 -7.815970093361102045e-14 -2.553512956637860043e-15 0.9961946980917457672 -0.08715574274765836016 -2.775557561562891351e-16 0.08715574274765791607 0.9961946980917451011 forward_v I I I I #
coedge $-1 $15 $16 $17 $18 reversed $5 $-1 #
face $-1 $19 $20 $2 $-1 $21 reversed single #
loop $-1 $-1 $22 $7 #
plane-surface $-1 62.95019897759152627 61.56654012578669466 -3.552713678800500929e-15 0.6223178942978873085 0.7778973678723613006 -0.08715574274765874874 -0.1386965991109138929 5.273559366969493567e-16 -0.9903349198099939965 forward_v I I I I #
coedge $-1 $23 $24 $25 $26 reversed $8 $-1 #
coedge $-1 $27 $10 $24 $28 forward $5 $-1 #
coedge $-1 $10 $27 $29 $30 reversed $5 $-1 #
coedge $-1 $31 $25 $10 $18 forward $32 $-1 #
edge $-1 $33 -1.198043214815908142 $34 -0.8770776336268265583 $17 $35 forward 7 unknown #
face $-1 $36 $37 $2 $-1 $38 forward single #
loop $-1 $-1 $39 $11 #
plane-surface $-1 80.13317515723332463 47.8201591820733185 -6.03961325396085158e-14 0.9961946980917459893 -1.11022302462515654e-16 -0.08715574274765872098 -0.08715574274765736096 7.494005416219806648e-16 -0.9961946980917455452 forward_v I I I I #
coedge $-1 $40 $41 $42 $43 reversed $12 $-1 #
coedge $-1 $44 $14 $41 $45 forward $8 $-1 #
coedge $-1 $14 $44 $15 $28 reversed $8 $-1 #
coedge $-1 $17 $42 $14 $26 forward $32 $-1 #
edge $-1 $46 -12.68195942328761028 $33 12.68195942328785186 $25 $47 forward 7 unknown #
coedge $-1 $16 $15 $48 $49 reversed $5 $-1 #
edge $-1 $33 17.40150277595597217 $50 29.33527744230994472 $24 $51 forward 7 unknown #
coedge $-1 $52 $53 $16 $30 forward $54 $-1 #
edge $-1 $34 10.73273055733858961 $55 29.34729155893544572 $16 $56 forward 7 unknown #
coedge $-1 $57 $17 $53 $58 forward $32 $-1 #
loop $-1 $-1 $31 $59 #
vertex $-1 $18 $60 #
vertex $-1 $58 $61 #
ellipse-curve $-1 61.38821957169214727 76.20000000000003126 -31.75000000000004974 0.6223178942978927486 -0.7778973678723575258 0.08715574274765822138 -63.89731465963547663 -50.48412468008977783 5.656249224101543405 0.6223178942978919714 I I #
face $-1 $62 $63 $2 $-1 $64 forward single #
loop $-1 $-1 $65 $19 #
plane-surface $-1 88.34646420125866939 51.22221489579898446 -4.263256414560601115e-14 0.9961946980917456562 -2.775557561562891351e-16 0.08715574274765797158 0.08715574274765891527 6.661338147750939243e-16 -0.9961946980917455452 forward_v I I I I #
coedge $-1 $66 $67 $68 $69 reversed $20 $-1 #
coedge $-1 $70 $22 $67 $71 forward $12 $-1 #
coedge $-1 $22 $70 $23 $45 reversed $12 $-1 #
coedge $-1 $25 $68 $22 $43 forward $32 $-1 #
edge $-1 $72 0.8770776336268308881 $46 1.198043214815910584 $42 $73 forward 7 unknown #
coedge $-1 $24 $23 $74 $75 reversed $8 $-1 #
edge $-1 $46 17.40150277595591888 $76 29.33527744230988432 $41 $77 forward 7 unknown #
vertex $-1 $26 $78 #
straight-curve $-1 50.80000000000001137 63.0824727324930592 17.32718898211469494 -0.999999999999999889 -1.11022302462515654e-16 6.106226635438360972e-16 I I #
coedge $-1 $74 $79 $27 $49 forward $80 $-1 #
edge $-1 $55 -20.20561107922923227 $50 3.924029431918560462 $48 $81 forward 7 unknown #
vertex $-1 $49 $82 #
straight-curve $-1 38.64980102240825488 61.56654012578665203 -7.815970093361102045e-14 -0.03055830594302860748 0.08711503978845577811 0.9957294611391931394 I I #
coedge $-1 $83 $29 $79 $84 reversed $54 $-1 #
coedge $-1 $29 $85 $31 $58 reversed $54 $-1 #
loop $-1 $-1 $53 $86 #
vertex $-1 $84 $87 #
straight-curve $-1 21.466824842766556 47.82015918207316929 -1.776356839400250465e-14 -0.08707937686379643716 0.04185251222438673979 0.9953218320450533119 I I #
coedge $-1 $68 $31 $88 $89 forward $32 $-1 #
edge $-1 $34 0.5821438503669797981 $90 0.8480620789814816707 $31 $91 forward 7 unknown #
face $-1 $92 $32 $2 $-1 $93 forward single #
point $-1 38.11804057671216128 63.08247273249300946 17.32718898211473046 #
point $-1 20.5322253537864654 48.26935091892520546 10.68252104117615531 #
face $-1 $94 $95 $2 $-1 $96 forward single #
loop $-1 $-1 $97 $36 #
plane-surface $-1 66.35225469131717091 69.77982916981204653 -4.618527782440651208e-14 0.6424170105942286213 0.7613831236672365943 0.08715574274765736096 0.1344369078396997763 2.220446049250313081e-16 -0.9909221552728051385 forward_v I I I I #
coedge $-1 $98 $99 $100 $101 reversed $37 $-1 #
coedge $-1 $102 $39 $103 $104 reversed $20 $-1 #
coedge $-1 $39 $105 $40 $71 reversed $20 $-1 #
coedge $-1 $42 $57 $39 $69 forward $32 $-1 #
edge $-1 $106 -0.8480620789814813376 $72 -0.5821438503669776887 $68 $107 forward 7 unknown #
coedge $-1 $41 $40 $108 $109 reversed $12 $-1 #
edge $-1 $72 10.73273055733868198 $110 29.34729155893547414 $67 $111 forward 7 unknown #
vertex $-1 $69 $112 #
ellipse-curve $-1 40.21178042830742783 76.20000000000004547 -31.75000000000004619 -0.6223178942978873085 -0.7778973678723613006 0.08715574274765874874 63.89731465963639323 -50.48412468008977072 5.656249224101442152 0.6223178942978869754 I I #
coedge $-1 $108 $48 $44 $75 forward $80 $-1 #
edge $-1 $50 -25.74476797243084292 $76 0.3485027487638917565 $74 $113 forward 7 unknown #
vertex $-1 $75 $114 #
straight-curve $-1 62.95019897759152627 61.56654012578669466 -3.552713678800500929e-15 0.03055830594302733072 0.08711503978845644425 0.9957294611391934724 I I #
point $-1 63.48195942328761987 63.08247273249311604 17.32718898211475178 #
coedge $-1 $48 $115 $52 $84 forward $80 $-1 #
loop $-1 $116 $117 $118 #
straight-curve $-1 34.68921244868085552 61.67076223480155051 29.20999999999992625 0.7808688094430273896 0.6246950475544283954 -8.881784197001252323e-16 I I #
point $-1 37.75336463940250553 64.12208398737888615 29.20999999999992625 #
coedge $-1 $85 $52 $119 $120 reversed $54 $-1 #
edge $-1 $121 0.4727699781400855894 $55 22.3696040997326655 $79 $122 forward 7 unknown #
coedge $-1 $53 $83 $123 $124 reversed $54 $-1 #
face $-1 $125 $54 $2 $-1 $126 reversed single #
point $-1 18.91128098117428991 49.04841706079615449 29.20999999999994046 #
coedge $-1 $123 $103 $57 $89 reversed $127 $-1 #
edge $-1 $90 -29.49512031736817264 $106 29.49512031736814777 $57 $128 forward 7 unknown #
vertex $-1 $124 $129 #
ellipse-curve $-1 24.24458990971442418 76.20000000000004547 -31.75000000000003553 0.9961946980917459893 8.493206138382447534e-15 0.08715574274765763851 -4.444424107116947908 -3.552713678800500929e-15 50.80000000000001137 0.9961946980917459893 I I #
face $-1 $130 $131 $2 $-1 $132 forward single #
cone-surface $-1 50.80000000000001137 76.20000000000004547 -31.75000000000004263 -1.000000000000000222 6.661338147750939243e-16 6.106226635438360972e-16 -3.375077994860475883e-14 -2.842170943040400743e-14 50.80000000000002558 1 I I 0 1 50.80000000000001847 forward I I I I #
face $-1 $133 $134 $2 $-1 $135 forward single #
loop $-1 $-1 $136 $62 #
plane-surface $-1 35.24774530868254629 69.77982916981198969 -7.460698725481051952e-14 -3.219646771412953967e-15 0.9961946980917457672 0.087155742747657583 -2.775557561562891351e-16 -0.08715574274765847118 0.9961946980917462113 forward_v I I I I #
coedge $-1 $137 $138 $139 $140 reversed $63 $-1 #
coedge $-1 $141 $65 $142 $143 reversed $37 $-1 #
coedge $-1 $65 $144 $145 $146 reversed $37 $-1 #
coedge $-1 $147 $148 $65 $101 forward $149 $-1 #
edge $-1 $150 -0.8480620789814807825 $151 -0.5252769326975089692 $100 $152 forward 7 unknown #
coedge $-1 $105 $66 $153 $154 forward $20 $-1 #
coedge $-1 $88 $155 $66 $104 forward $127 $-1 #
edge $-1 $156 0.5821438503669763564 $106 0.8480620789814817817 $103 $157 forward 7 unknown #
coedge $-1 $67 $102 $117 $158 reversed $20 $-1 #
vertex $-1 $89 $159 #
ellipse-curve $-1 77.35541009028526105 76.2000000000000739 -31.75000000000005684 -0.9961946980917459893 1.11022302462515654e-16 0.08715574274765872098 4.444424107116949685 7.105427357601001859e-15 50.79999999999999716 0.9961946980917459893 I I #
coedge $-1 $117 $74 $70 $109 forward $80 $-1 #
edge $-1 $76 -22.24041910684118051 $110 1.889221404306646868 $108 $160 forward 7 unknown #
vertex $-1 $158 $161 #
straight-curve $-1 80.13317515723332463 47.8201591820733185 -6.03961325396085158e-14 0.08707937686379585429 0.04185251222438746144 0.9953218320450534229 I I #
point $-1 81.06777464621339391 48.26935091892532625 10.68252104117620505 #
straight-curve $-1 63.49813261183334134 64.1220839873789572 29.20999999999995467 0.9999999999999996669 2.498001805406602216e-15 -1.665334536937734811e-16 I I #
point $-1 63.84663536059723299 64.12208398737898563 29.20999999999994756 #
coedge $-1 $79 $162 $163 $164 forward $80 $-1 #
loop $-1 $-1 $165 $118 #
coedge $-1 $166 $108 $105 $158 forward $80 $-1 #
face $-1 $167 $80 $2 $-1 $168 forward single #
coedge $-1 $163 $169 $83 $120 forward $170 $-1 #
edge $-1 $171 10.73273055733876546 $121 29.34729155893550256 $83 $172 forward 7 unknown #
vertex $-1 $164 $173 #
straight-curve $-1 18.91128098117448531 26.67881296106347833 29.20999999999999019 -8.715250743307478842e-15 1.000000000000000444 2.498001805406602216e-16 I I #
coedge $-1 $174 $88 $85 $124 forward $127 $-1 #
edge $-1 $90 -0.8480620789814803384 $171 -0.5821438503669701392 $123 $175 forward 7 unknown #
face $-1 $176 $177 $2 $-1 $178 forward single #
plane-surface $-1 21.46682484276672653 28.37984081792656355 -2.131628207280300558e-14 -0.9961946980917459893 -8.493206138382447534e-15 -0.08715574274765763851 -0.08715574274765891527 -6.661338147750939243e-16 0.9961946980917455452 forward_v I I I I #
loop $-1 $-1 $123 $179 #
straight-curve $-1 50.80000000000001137 38.09999999999999432 1.851041650520311777 1.000000000000000444 -6.661338147750939243e-16 -6.106226635438360972e-16 I I #
point $-1 21.30487968263182452 38.10000000000002274 1.851041650520265591 #
face $-1 $180 $181 $2 $-1 $182 forward single #
loop $-1 $-1 $183 $92 #
plane-surface $-1 101.6000000000000369 76.19999999999998863 -31.75000000000000711 1.000000000000000222 -6.661338147750939243e-16 -6.106226635438360972e-16 6.106226635438360972e-16 5.273559366969493567e-16 -1.000000000000000444 forward_v I I I I #
face $-1 $184 $185 $2 $-1 $186 reversed single #
loop $-1 $-1 $187 $94 #
plane-surface $-1 13.25353579874117571 51.22221489579874998 -1.065814103640150279e-14 -0.6424170105942345055 0.7613831236672325975 0.08715574274765819363 0.1344369078396978334 -4.718447854656915297e-16 0.9909221552728043614 forward_v I I I I #
coedge $-1 $188 $189 $190 $191 reversed $95 $-1 #
coedge $-1 $192 $97 $189 $193 forward $63 $-1 #
coedge $-1 $97 $192 $141 $194 reversed $63 $-1 #
coedge $-1 $142 $190 $97 $140 forward $195 $-1 #
edge $-1 $196 1.615577529922356259 $197 1.982099065603499355 $139 $198 forward 7 unknown #
coedge $-1 $144 $98 $138 $194 forward $37 $-1 #
coedge $-1 $199 $139 $98 $143 forward $195 $-1 #
edge $-1 $197 0.5252769326975107456 $150 0.8480620789814808935 $142 $200 forward 7 unknown #
coedge $-1 $99 $141 $201 $202 forward $37 $-1 #
coedge $-1 $203 $204 $99 $146 forward $177 $-1 #
edge $-1 $151 12.25805008582073974 $205 29.34561143957526141 $145 $206 forward 7 unknown #
coedge $-1 $207 $100 $204 $208 forward $149 $-1 #
coedge $-1 $100 $209 $199 $210 reversed $149 $-1 #
loop $-1 $-1 $100 $211 #
vertex $-1 $143 $212 #
vertex $-1 $208 $213 #
ellipse-curve $-1 91.12422926820678981 4.263256414560601115e-14 -31.75000000000004619 0.9961946980917456562 -2.775557561562891351e-16 0.08715574274765797158 -4.444424107116947908 -3.552713678800500929e-15 50.80000000000001137 0.9961946980917459893 I I #
coedge $-1 $214 $215 $102 $154 reversed $185 $-1 #
edge $-1 $156 10.73273055733860559 $216 29.34729155893540309 $153 $217 forward 7 unknown #
coedge $-1 $103 $218 $214 $219 forward $127 $-1 #
vertex $-1 $104 $220 #
ellipse-curve $-1 77.35541009028526105 4.263256414560601115e-14 -31.75000000000001421 -0.9961946980917459893 1.11022302462515654e-16 0.08715574274765872098 4.444424107116949685 7.105427357601001859e-15 50.79999999999999716 0.9961946980917459893 I I #
edge $-1 $110 -12.64944491765909085 $216 9.247389203933483515 $117 $221 forward 7 unknown #
point $-1 80.29512031736817335 38.10000000000006537 1.851041650520247828 #
straight-curve $-1 81.21348495007036661 50.22860431580053842 29.2099999999999973 0.7808688094430316085 -0.6246950475544238435 1.249000902703301108e-16 I I #
point $-1 82.68871901882553743 49.0484170607962966 29.20999999999992625 #
coedge $-1 $115 $166 $222 $223 forward $80 $-1 #
coedge $-1 $224 $119 $115 $164 reversed $170 $-1 #
edge $-1 $225 15.27582635114163701 $121 39.4054668622895079 $115 $226 forward 7 unknown #
coedge $-1 $201 $227 $203 $228 reversed $116 $-1 #
coedge $-1 $162 $117 $215 $229 forward $80 $-1 #
face $-1 $211 $195 $2 $-1 $93 forward single #
plane-surface $-1 88.34646420125866939 24.97778510420097575 29.20999999999996888 -6.106226635438360972e-16 -5.273559366969493567e-16 1 1.000000000000000444 -6.661338147750939243e-16 -6.106226635438360972e-16 forward_v I I I I #
coedge $-1 $119 $224 $174 $230 reversed $170 $-1 #
loop $-1 $-1 $169 $231 #
vertex $-1 $230 $232 #
straight-curve $-1 21.46682484276672653 28.37984081792656355 -2.131628207280300558e-14 -0.08707937686379629838 -0.0418525122243887937 0.9953218320450529788 I I #
point $-1 18.91128098117450662 27.15158293920356414 29.20999999999997598 #
coedge $-1 $218 $123 $169 $230 forward $127 $-1 #
ellipse-curve $-1 24.24458990971511341 5.684341886080801487e-14 -31.75000000000002132 0.9961946980917459893 8.493206138382447534e-15 0.08715574274765763851 -4.444424107116947908 -3.552713678800500929e-15 50.80000000000001137 0.9961946980917459893 I I #
face $-1 $233 $234 $2 $-1 $235 forward single #
loop $-1 $-1 $204 $125 #
plane-surface $-1 88.34646420125871202 24.97778510420101128 -3.907985046680551022e-14 0.6424170105942342834 -0.7613831236672327085 0.08715574274765817975 0.1344369078396986661 1.665334536937734811e-16 -0.9909221552728046944 forward_v I I I I #
face $-1 $236 $127 $2 $-1 $237 forward single #
face $-1 $-1 $238 $2 $-1 $239 forward single #
loop $-1 $240 $241 $130 #
cone-surface $-1 50.79999999999999716 78.21338860826320172 -29.14432543446740098 -0.7078507298477899612 -0.5589427441540469887 0.4318915986813069985 6.457148047687119252 5.098781278306049991 17.18168119149712325 1 I I -0.08813700386795120245 0.9961083618508479454 19.05000000000000071 forward I I I I #
coedge $-1 $242 $243 $244 $245 forward $131 $-1 #
face $-1 $231 $246 $2 $-1 $247 reversed single #
loop $-1 $-1 $214 $133 #
plane-surface $-1 80.13317515723335305 28.37984081792673408 3.552713678800500929e-15 0.6223178942978925265 -0.7778973678723576368 -0.08715574274765815199 -0.1386965991109134488 -2.775557561562891351e-17 -0.9903349198099939965 forward_v I I I I #
coedge $-1 $248 $249 $250 $251 reversed $134 $-1 #
coedge $-1 $252 $136 $249 $253 forward $95 $-1 #
coedge $-1 $136 $252 $137 $193 reversed $95 $-1 #
coedge $-1 $139 $250 $136 $191 forward $195 $-1 #
edge $-1 $254 -14.96349796904199714 $196 14.96349796904180529 $190 $255 forward 7 unknown #
coedge $-1 $138 $137 $256 $257 forward $63 $-1 #
edge $-1 $196 18.49088338848494928 $258 29.33645201526069712 $137 $259 forward 7 unknown #
edge $-1 $197 12.25805008582069 $260 29.34561143957519391 $141 $261 forward 7 unknown #
loop $-1 $-1 $142 $167 #
vertex $-1 $191 $262 #
vertex $-1 $140 $263 #
ellipse-curve $-1 63.0506377447706754 76.20000000000003126 -31.75000000000005329 0.6424170105942286213 0.7613831236672365943 0.08715574274765736096 -60.60058585774177686 50.47040804978581718 5.777361966166973062 0.6424170105942289544 I I #
coedge $-1 $264 $142 $148 $210 forward $195 $-1 #
ellipse-curve $-1 91.1242292682067756 76.20000000000004547 -31.75000000000008527 0.9961946980917456562 -2.775557561562891351e-16 0.08715574274765797158 -4.444424107116947908 -3.552713678800500929e-15 50.80000000000001137 0.9961946980917459893 I I #
coedge $-1 $256 $165 $144 $202 reversed $116 $-1 #
edge $-1 $260 -11.93477802000119148 $205 11.93477802000116306 $144 $265 forward 7 unknown #
coedge $-1 $266 $145 $165 $228 forward $177 $-1 #
coedge $-1 $145 $266 $147 $208 reversed $177 $-1 #
vertex $-1 $146 $267 #
straight-curve $-1 88.34646420125871202 24.97778510420101128 -3.907985046680551022e-14 -0.08708436240472627876 0.04046386555082642777 0.9953788170386419498 I I #
coedge $-1 $268 $147 $269 $270 forward $149 $-1 #
edge $-1 $151 -1.982099065603497801 $271 -1.615577529922358702 $147 $272 forward 7 unknown #
coedge $-1 $148 $273 $243 $274 reversed $149 $-1 #
edge $-1 $150 37.38451904112379509 $275 50.80000000000001847 $199 $128 forward 7 unknown #
face $-1 $179 $149 $2 $-1 $237 forward single #
point $-1 88.18451904112382067 38.10000000000000853 1.851041650520230064 #
point $-1 87.27897972520983672 25.47379319478898196 12.20140339362463422 #
coedge $-1 $276 $153 $155 $219 reversed $185 $-1 #
coedge $-1 $153 $276 $166 $229 reversed $185 $-1 #
vertex $-1 $158 $277 #
straight-curve $-1 80.13317515723335305 28.37984081792673408 3.552713678800500929e-15 0.08707937686379563225 -0.0418525122243875447 0.9953218320450532008 I I #
coedge $-1 $155 $174 $278 $279 forward $127 $-1 #
edge $-1 $280 -1.198043214815908586 $156 -0.8770776336268312212 $155 $281 forward 7 unknown #
point $-1 81.06777464621339391 27.93064908107468369 10.68252104117619083 #
straight-curve $-1 82.68871901882559428 36.39897214313720042 29.20999999999990493 6.661338147750939243e-16 -1.000000000000000444 5.273559366969493567e-16 I I #
coedge $-1 $282 $283 $162 $223 reversed $246 $-1 #
edge $-1 $284 11.80169622882776537 $225 37.89496695002242888 $162 $285 forward 7 unknown #
coedge $-1 $169 $163 $283 $286 reversed $170 $-1 #
vertex $-1 $223 $287 #
straight-curve $-1 49.68178097547747996 2.535182943761540741 29.21000000000001151 -0.7808688094430362714 0.6246950475544175152 2.914335439641035919e-16 I I #
coedge $-1 $165 $288 $289 $290 reversed $116 $-1 #
edge $-1 $205 1.187436875797837743 $291 27.84316943103158337 $203 $292 forward 7 unknown #
edge $-1 $216 0.9158690620523859405 $284 25.04550957319981208 $166 $293 forward 7 unknown #
edge $-1 $171 0.8770776336268374385 $294 1.198043214815913471 $174 $295 forward 7 unknown #
face $-1 $86 $170 $2 $-1 $296 reversed single #
point $-1 20.53222535378667146 27.9306490810744279 10.68252104117631873 #
face $-1 $297 $298 $2 $-1 $299 forward single #
loop $-1 $-1 $269 $176 #
plane-surface $-1 66.35225469131773934 6.420170830188112632 -2.486899575160350651e-14 9.270362255620057113e-15 -0.9961946980917458783 0.08715574274765799934 2.775557561562891351e-16 -0.08715574274765791607 -0.9961946980917451011 forward_v I I I I #
face $-1 $300 $301 $2 $-1 $182 forward single #
cone-surface $-1 50.80000000000001847 -1.421085471520200372e-14 -31.75000000000004619 -1.000000000000000222 6.661338147750939243e-16 6.106226635438360972e-16 -3.375077994860475883e-14 -2.842170943040400743e-14 50.80000000000002558 1 I I 0 1 50.80000000000001847 forward I I I I #
loop $-1 $302 $303 $180 #
plane-surface $-1 101.5999999999999801 118.3267772165242064 -60.13969251945746919 0.7078507298477899612 0.5589427441540469887 -0.4318915986813069985 -0.3389579027657280141 -0.2676525605410000064 -0.9019255218633660531 forward_v I I I I #
loop $-1 $-1 $304 $130 #
coedge $-1 $305 $305 $242 $306 forward $181 $-1 #
coedge $-1 $307 $183 $241 $306 reversed $131 $-1 #
coedge $-1 $183 $307 $209 $274 forward $131 $-1 #
coedge $-1 $308 $309 $183 $245 reversed $195 $-1 #
edge $-1 $310 2.293530574608312556 $311 3.615550134139377203 $183 $312 forward 7 unknown #
loop $-1 $-1 $278 $184 #
plane-surface $-1 62.95019897759189575 14.6334598742134574 2.486899575160350651e-14 8.826273045769994496e-15 -0.9961946980917457672 -0.08715574274765836016 2.775557561562891351e-16 0.08715574274765847118 -0.9961946980917462113 forward_v I I I I #
coedge $-1 $313 $187 $314 $315 forward $134 $-1 #
coedge $-1 $187 $313 $188 $253 reversed $134 $-1 #
coedge $-1 $190 $316 $187 $251 forward $195 $-1 #
edge $-1 $317 -1.982099065603502686 $254 -1.615577529922357591 $250 $318 forward 7 unknown #
coedge $-1 $189 $188 $319 $320 forward $95 $-1 #
edge $-1 $254 18.4908833884849706 $321 29.33645201526080371 $188 $322 forward 7 unknown #
vertex $-1 $251 $323 #
straight-curve $-1 50.79999999999997584 68.16905962227849614 18.41118017600339485 0.999999999999999889 1.11022302462515654e-16 -6.106226635438360972e-16 I I #
coedge $-1 $319 $201 $192 $257 reversed $116 $-1 #
edge $-1 $258 -21.91667789474232464 $260 4.739054660491929916 $192 $324 forward 7 unknown #
vertex $-1 $193 $325 #
straight-curve $-1 66.35225469131717091 69.77982916981204653 -4.618527782440651208e-14 -0.03184037830458746887 -0.08711155187624128327 0.9956895941201422406 I I #
vertex $-1 $194 $326 #
straight-curve $-1 88.34646420125866939 51.22221489579898446 -4.263256414560601115e-14 -0.08708436240472622325 -0.04046386555082701064 0.9953788170386420608 I I #
point $-1 65.76349796904177936 68.1690596222785814 18.41118017600341616 #
point $-1 87.27897972520976566 50.72620680521099956 12.20140339362457738 #
coedge $-1 $309 $199 $307 $327 reversed $195 $-1 #
straight-curve $-1 85.79092033966641395 38.099999999999973 29.20999999999994046 6.661338147750939243e-16 -1.000000000000000444 5.273559366969493567e-16 I I #
coedge $-1 $204 $203 $328 $329 reversed $177 $-1 #
point $-1 85.79092033966641395 26.16522197999880461 29.21000000000001862 #
coedge $-1 $330 $207 $331 $332 forward $149 $-1 #
coedge $-1 $328 $333 $207 $270 reversed $234 $-1 #
edge $-1 $271 -14.96349796904231511 $334 14.9634979690415264 $207 $335 forward 7 unknown #
vertex $-1 $208 $336 #
ellipse-curve $-1 63.0506377447710662 4.263256414560601115e-14 -31.75000000000003553 0.6424170105942342834 -0.7613831236672327085 0.08715574274765817975 -60.60058585774092421 -50.47040804978583139 5.777361966167010365 0.6424170105942339504 I I #
coedge $-1 $209 $337 $308 $338 reversed $149 $-1 #
edge $-1 $275 -0.8480620789814814486 $310 3.989654732571273232 $243 $339 forward 7 unknown #
vertex $-1 $327 $340 #
coedge $-1 $215 $214 $282 $341 forward $185 $-1 #
point $-1 82.68871901882558006 27.15158293920371335 29.20999999999991203 #
coedge $-1 $283 $282 $218 $279 reversed $246 $-1 #
edge $-1 $294 -12.6819594232873829 $280 12.68195942328809345 $218 $342 forward 7 unknown #
vertex $-1 $219 $343 #
ellipse-curve $-1 40.21178042830803889 5.684341886080801487e-14 -31.75000000000000355 -0.6223178942978925265 0.7778973678723576368 0.08715574274765815199 63.89731465963548374 50.48412468008975651 5.656249224101454587 0.6223178942978919714 I I #
coedge $-1 $278 $222 $276 $341 reversed $246 $-1 #
coedge $-1 $222 $278 $224 $286 forward $246 $-1 #
vertex $-1 $229 $344 #
straight-curve $-1 75.64833158942543889 12.07791601262128722 29.20999999999997598 -1.000000000000000666 -8.437694987151189707e-15 5.551115123125782702e-17 I I #
edge $-1 $294 17.40150277595595441 $225 29.33527744230987722 $224 $345 forward 7 unknown #
point $-1 37.7533646394029816 12.07791601262103143 29.20999999999995467 #
coedge $-1 $227 $346 $347 $348 reversed $116 $-1 #
coedge $-1 $333 $328 $227 $290 forward $234 $-1 #
edge $-1 $291 11.93118848525089248 $349 41.1675304073248256 $289 $350 forward 7 unknown #
vertex $-1 $329 $351 #
straight-curve $-1 86.69846823104191458 26.93096551334689082 29.20999999999997598 -0.764291483507887337 -0.6448709392097866644 3.330669073875469621e-16 I I #
straight-curve $-1 83.40389260291615869 27.72372180647612083 29.20999999999993335 -0.7808688094430276116 -0.6246950475544280623 8.881784197001252323e-16 I I #
vertex $-1 $279 $352 #
ellipse-curve $-1 61.38821957169302124 7.105427357601001859e-14 -31.75000000000007105 0.6223178942978815353 0.7778973678723657414 0.08715574274765752749 -63.89731465963726009 50.48412468008984177 5.65624922410140929 0.6223178942978809802 I I #
plane-surface $-1 38.64980102240870963 14.63345987421318739 -1.421085471520200372e-14 -0.6223178942978815353 -0.7778973678723657414 -0.08715574274765752749 -0.1386965991109164187 -4.996003610813204432e-16 0.9903349198099935524 forward_v I I I I #
face $-1 $118 $353 $2 $-1 $354 forward single #
loop $-1 $-1 $331 $233 #
plane-surface $-1 35.24774530868309341 6.420170830187871047 -3.552713678800500929e-15 -0.6424170105942232922 -0.7613831236672413683 0.08715574274765852669 0.1344369078397004702 -1.942890293094023946e-16 0.9909221552728044724 forward_v I I I I #
face $-1 $355 $356 $2 $-1 $357 forward single #
loop $-1 $-1 $358 $236 #
loop $-1 $-1 $359 $180 #
coedge $-1 $360 $360 $361 $362 forward $238 $-1 #
coedge $-1 $304 $304 $359 $363 reversed $240 $-1 #
coedge $-1 $241 $241 $309 $364 forward $181 $-1 #
edge $-1 $365 -1.255965954171230248 $311 1.350500606412011084 $241 $366 forward 7 unknown #
coedge $-1 $243 $242 $264 $327 forward $131 $-1 #
coedge $-1 $367 $244 $273 $338 forward $195 $-1 #
coedge $-1 $244 $264 $305 $364 reversed $195 $-1 #
vertex $-1 $245 $368 #
vertex $-1 $364 $369 #
ellipse-curve $-1 101.6000000000000369 76.19999999999998863 -31.75000000000000711 1.000000000000000222 -6.661338147750939243e-16 -6.106226635438360972e-16 -3.375077994860475883e-14 -2.842170943040400743e-14 50.80000000000002558 1 I I #
coedge $-1 $249 $248 $370 $371 forward $134 $-1 #
coedge $-1 $372 $373 $248 $315 reversed $353 $-1 #
edge $-1 $317 12.25805008582060118 $374 29.34561143957516194 $248 $375 forward 7 unknown #
coedge $-1 $250 $376 $372 $377 forward $195 $-1 #
vertex $-1 $377 $378 #
ellipse-curve $-1 38.54936225522908444 76.20000000000004547 -31.75000000000004263 -0.6424170105942345055 0.7613831236672325975 0.08715574274765819363 60.60058585774087447 50.47040804978580297 5.777361966166935758 0.6424170105942339504 I I #
coedge $-1 $370 $256 $252 $320 reversed $116 $-1 #
edge $-1 $321 -25.61527571600771225 $258 3.621066206066286597 $252 $379 forward 7 unknown #
vertex $-1 $253 $380 #
straight-curve $-1 35.24774530868254629 69.77982916981198969 -7.460698725481051952e-14 0.03184037830458757989 -0.0871115518762412 0.9956895941201424627 I I #
point $-1 35.83650203095798048 68.16905962227849614 18.41118017600341616 #
straight-curve $-1 82.16890122277411024 53.09085664987911457 29.21000000000000441 0.7642914835078916669 -0.6448709392097817794 1.387778780781445676e-16 I I #
point $-1 65.41817096103687845 67.22428530821984793 29.20999999999990493 #
point $-1 85.79092033966645658 50.03477802000116981 29.20999999999995467 #
edge $-1 $365 -1.655718272275167768 $275 0.8480620789814806715 $307 $312 forward 7 unknown #
coedge $-1 $289 $269 $266 $329 forward $234 $-1 #
edge $-1 $271 18.49088338848494928 $291 29.33645201526075752 $328 $381 forward 7 unknown #
coedge $-1 $382 $268 $383 $384 forward $149 $-1 #
coedge $-1 $385 $386 $268 $332 reversed $298 $-1 #
edge $-1 $334 1.615577529922356925 $387 1.982099065603496024 $268 $388 forward 7 unknown #
coedge $-1 $269 $289 $385 $389 reversed $234 $-1 #
vertex $-1 $270 $390 #
straight-curve $-1 50.79999999999999716 8.030940377721464074 18.41118017600340195 -1.000000000000000444 6.661338147750939243e-16 6.106226635438360972e-16 I I #
point $-1 65.76349796904231937 8.030940377721620393 18.41118017600343748 #
coedge $-1 $273 $391 $392 $393 reversed $149 $-1 #
edge $-1 $310 -50.79999999999999005 $394 50.79999999999999716 $308 $395 forward 7 unknown #
ellipse-curve $-1 101.6000000000000512 -2.842170943040400743e-14 -31.75000000000004619 1.000000000000000222 -6.661338147750939243e-16 -6.106226635438360972e-16 -3.375077994860475883e-14 -2.842170943040400743e-14 50.80000000000002558 1 I I #
point $-1 101.6000000000000512 38.09999999999998721 1.851041650520286908 #
edge $-1 $280 17.40150277595590111 $284 29.33527744230987366 $282 $396 forward 7 unknown #
straight-curve $-1 50.79999999999996163 13.11752726750698628 17.32718898211480152 1.000000000000000444 -6.661338147750939243e-16 -6.106226635438360972e-16 I I #
point $-1 63.48195942328806041 13.11752726750707154 17.32718898211476599 #
point $-1 63.84663536059766642 12.07791601262118775 29.20999999999996888 #
straight-curve $-1 38.64980102240870963 14.63345987421318739 -1.421085471520200372e-14 -0.03055830594302716419 -0.08711503978845713814 0.9957294611391938055 I I #
coedge $-1 $288 $370 $373 $397 reversed $116 $-1 #
coedge $-1 $386 $385 $288 $348 forward $298 $-1 #
edge $-1 $349 15.24189997448010914 $398 41.89763252971437169 $347 $399 forward 7 unknown #
vertex $-1 $389 $400 #
straight-curve $-1 77.349359446288247 8.975714691780481758 29.20999999999998309 -1.000000000000000666 -8.437694987151189707e-15 5.551115123125782702e-17 I I #
point $-1 65.41817096103734741 8.975714691780311227 29.20999999999999019 #
point $-1 38.1180405767125734 13.11752726750685838 17.32718898211479441 #
loop $-1 $-1 $383 $297 #
plane-surface $-1 13.25353579874136756 24.97778510420087628 -3.552713678800500929e-15 -0.9961946980917457672 -7.438494264988548821e-15 0.08715574274765863771 0.08715574274765736096 -7.494005416219806648e-16 0.9961946980917455452 forward_v I I I I #
face $-1 $401 $402 $2 $-1 $403 forward single #
loop $-1 $-1 $404 $300 #
plane-surface $-1 3.552713678800500929e-14 76.20000000000005969 -31.75 -1.000000000000000222 6.661338147750939243e-16 6.106226635438360972e-16 -6.106226635438360972e-16 -5.273559366969493567e-16 1.000000000000000444 forward_v I I I I #
coedge $-1 $405 $406 $407 $408 forward $301 $-1 #
coedge $-1 $359 $359 $304 $363 forward $302 $-1 #
coedge $-1 $303 $303 $409 $410 forward $238 $-1 #
coedge $-1 $411 $411 $303 $362 reversed $412 $-1 #
edge $-1 $413 3.076726058681078513 $414 3.206459248498504611 $303 $415 forward 7 unknown #
edge $-1 $416 1.251551785468770732e-17 $416 6.283185307179586232 $359 $417 forward 7 unknown #
edge $-1 $311 5.511369569731660256 $365 96.8241491416054032 $305 $418 forward 7 unknown #
vertex $-1 $364 $419 #
ellipse-curve $-1 101.6000000000000227 120.8535629582173954 -62.09212422184349123 1.000000000000000222 -6.661338147750939243e-16 -6.106226635438360972e-16 1.776356839400250465e-14 -28.61745752399426834 22.1125322933361943 0.7050861103864289881 I I #
coedge $-1 $420 $308 $421 $422 reversed $195 $-1 #
point $-1 101.6000000000000512 38.0999999999999801 -65.35104165052037217 #
point $-1 101.6000000000000227 99.3856835680420545 -76.95026634304971935 #
coedge $-1 $346 $319 $313 $371 reversed $116 $-1 #
edge $-1 $374 -19.04687090469159116 $321 7.608861650542583455 $313 $423 forward 7 unknown #
coedge $-1 $407 $314 $316 $377 reversed $353 $-1 #
coedge $-1 $314 $424 $346 $397 forward $353 $-1 #
vertex $-1 $315 $425 #
straight-curve $-1 13.25353579874117571 51.22221489579874998 -1.065814103640150279e-14 0.08708436240472627876 -0.04046386555082637226 0.995378817038642616 I I #
coedge $-1 $316 $420 $405 $426 reversed $195 $-1 #
edge $-1 $427 -0.6351165823213053008 $317 -0.5252769326975147424 $316 $428 forward 7 unknown #
point $-1 14.32102027479010786 50.72620680521085745 12.20140339362452764 #
straight-curve $-1 61.79710475497059008 67.2242853082198053 29.20999999999989782 1.000000000000000444 3.053113317719180486e-15 -6.106226635438360972e-16 I I #
point $-1 36.18182903896286717 67.22428530821976267 29.2099999999999973 #
straight-curve $-1 66.35225469131773934 6.420170830188112632 -2.486899575160350651e-14 -0.03184037830458819052 0.08711155187624067264 0.9956895941201423517 I I #
coedge $-1 $391 $330 $406 $429 reversed $149 $-1 #
coedge $-1 $424 $407 $330 $384 reversed $353 $-1 #
edge $-1 $387 0.5252769326975039732 $430 0.7488662659327289806 $330 $431 forward 7 unknown #
coedge $-1 $347 $331 $333 $389 forward $298 $-1 #
coedge $-1 $331 $347 $424 $432 reversed $298 $-1 #
vertex $-1 $332 $433 #
ellipse-curve $-1 38.54936225522961024 4.263256414560601115e-14 -31.75 -0.6424170105942232922 -0.7613831236672413683 0.08715574274765852669 60.60058585774267215 -50.47040804978587403 5.7773619661668425 0.6424170105942229592 I I #
edge $-1 $334 18.49088338848496704 $349 29.33645201526071844 $385 $434 forward 7 unknown #
point $-1 35.83650203095846365 8.030940377721449863 18.41118017600347301 #
coedge $-1 $337 $382 $435 $436 reversed $149 $-1 #
coedge $-1 $437 $421 $337 $393 forward $356 $-1 #
edge $-1 $394 2.293530574608312111 $438 7.131247386161060575 $392 $439 forward 7 unknown #
vertex $-1 $422 $440 #
straight-curve $-1 50.80000000000003979 38.10000000000001563 -65.35104165052035796 -1.000000000000000444 6.661338147750939243e-16 6.106226635438360972e-16 I I #
straight-curve $-1 62.95019897759189575 14.6334598742134574 2.486899575160350651e-14 0.03055830594302805236 -0.08711503978845636098 0.9957294611391933614 I I #
edge $-1 $398 1.187436875797906577 $374 25.05699291580028998 $373 $441 forward 7 unknown #
vertex $-1 $432 $442 #
straight-curve $-1 47.83108338193778764 -0.853343660104357582 29.21000000000001151 -0.764291483507897107 0.6448709392097763393 1.804112415015879378e-16 I I #
point $-1 36.18182903896339297 8.975714691780083854 29.20999999999998309 #
face $-1 $443 $444 $2 $-1 $132 forward single #
loop $-1 $-1 $445 $355 #
plane-surface $-1 1.421085471520200372e-14 38.100000000002197 1.851041650522670778 -0.7078507298477899612 -0.5589427441540469887 0.4318915986813069985 0.3389579027657280141 0.2676525605410000064 0.9019255218633660531 forward_v I I I I #
coedge $-1 $421 $437 $446 $447 reversed $356 $-1 #
coedge $-1 $448 $358 $376 $426 forward $301 $-1 #
coedge $-1 $358 $449 $382 $429 forward $301 $-1 #
coedge $-1 $383 $372 $358 $408 reversed $353 $-1 #
edge $-1 $430 0.1445199838979291385 $427 0.9273808322750228816 $358 $450 forward 7 unknown #
coedge $-1 $451 $451 $360 $410 reversed $444 $-1 #
edge $-1 $414 -4.939368954232527642 $413 1.646456318077774483 $360 $452 forward 7 unknown #
coedge $-1 $361 $361 $451 $453 reversed $412 $-1 #
loop $-1 $-1 $361 $443 #
vertex $-1 $362 $454 #
vertex $-1 $362 $455 #
ellipse-curve $-1 152.1865497317056679 76.20000000000001705 -31.75000000000009592 -0.7078507298477899612 -0.5589427441540469887 0.4318915986813069985 50.69316252090267483 -40.19792887175692186 31.06069082330868625 0.7078507298477899612 I I #
vertex $-1 $363 $456 #
ellipse-curve $-1 101.5999999999999801 118.3267772165242064 -60.13969251945746919 0.7078507298477899612 0.5589427441540469887 -0.4318915986813069985 8.60953073024949056 6.798375037741399396 22.90890825532949648 1 I I #
intcurve-curve $-1 forward { surfintcur full nubs 3 open 34 
	5.511369569731660256 3 7.046823870703829762 3 13.0132173358228993 3 15.99641406838249935 3 18.97961080094210118 3 
	21.96280753350159998 3 24.94600426606119825 3 27.9292009986207006 3 30.91239773118029888 3 33.3317575234194976 3 
	35.75111731565859685 3 38.17047710789780268 3 40.58983690013700141 3 43.00919669237620013 3 45.42855648461539886 3 
	47.84791627685449811 3 50.26727606909369683 3 52.62241928006469749 3 54.97756249103559867 3 57.33270570200659932 3 
	59.6878489129775005 3 62.04299212394850116 3 64.39813533491950182 3 66.75327854589039589 3 69.10842175686140365 3 
	71.96819131841810702 3 74.82796087997479617 3 77.68773044153149954 3 80.5475000030882029 3 83.40726956464490627 3 
	86.26703912620159542 3 91.98657824931500215 3 95.23406932874790698 3 96.8241491416054032 3 
	101.6000000000000227 99.3856835680420545 -76.95026634304971935 
	101.0540211569302471 99.36997441775422146 -76.95832442361354708 
	100.5201599916286739 99.36262963670426984 -76.96208453846026032 
	100.0083418913046671 99.36262963670432669 -76.96208453846031716 
	98.0195440695983109 99.36262963670425563 -76.96208453846024611 
	95.94287536272815942 99.47375996665982711 -76.90592895590769729 
	93.86070737134505748 99.73338435883364639 -76.77021568828175191 
	92.81962337565346388 99.86319655492054892 -76.7023590544687579 
	91.77708966087224951 100.0298359590528037 -76.61461300875271263 
	90.7431878689756104 100.2356592968651938 -76.5040733583550292 
	89.70928607707904234 100.4414826346776408 -76.3935337079573884 
	88.68402215190243965 100.6865135123404684 -76.26018881406615435 
	87.67706590029163749 100.971097954451551 -76.10124244179608866 
	86.67010964868080691 101.2556823965626052 -75.94229606952610823 
	85.68059580626690774 101.5800904132420186 -75.75758700302245074 
	84.71787340926914567 101.9424825808865052 -75.54457261548246549 
	83.75515101227142623 102.3048747485310059 -75.33155822794239498 
	82.81922771867553479 102.7052539020811395 -75.09020873248184103 
	81.91838726352196431 103.1393593056594256 -74.81867678720335846 
	81.01754680836825173 103.5734647092376406 -74.54714484192491852 
	80.15166431549953074 104.0413451251131676 -74.24535818465832904 
	79.32765662564167997 104.5365298478928509 -73.91255538009387749 
	78.50364893578382919 105.0317145706725199 -73.57975257552942594 
	77.72151280645891802 105.5541760132564093 -73.21590060516244591 
	76.98648438560596219 106.095666705232702 -72.82175565092940417 
	76.39037947969880804 106.5348133406994862 -72.5021057786370875 
	75.80895364714605478 106.9985592154378793 -72.15377585036155494 
	75.25084828992441999 107.481925182331068 -71.77600600718302815 
	74.69274293270268572 107.965291149224214 -71.39823616400447293 
	74.15795168711790097 108.4682558246731645 -70.99100844686715561 
	73.65335687554713218 108.9846906977853109 -70.5546911577783078 
	73.14876206397632075 109.5011255708974431 -70.11837386868955946 
	72.67428228971590443 110.0310763693751994 -69.65289436161053516 
	72.23506359124976939 110.5677649578985324 -69.15984805901580046 
	71.79584489278371962 111.1044535464217944 -68.66680175642105155 
	71.39187152021875704 111.6478575442365013 -68.14617832714966994 
	71.02662114524861181 112.1910331595649382 -67.60087909810789597 
	70.66137077027853763 112.7342087748934034 -67.05557986906616463 
	70.33441564111292621 113.2777515892162796 -66.48498762307475829 
	70.04792569408604663 113.815029384129673 -65.89307491177487464 
	69.76143574705912442 114.35230717904318 -65.30116220047490572 
	69.51540041400798486 114.8833082336160061 -64.6879234999291981 
	69.31057735488593607 115.4020014320820167 -64.05856053307002185 
	69.10575429576383044 115.9206946305479846 -63.42919756621070349 
	68.94211509917920466 116.4271371345110566 -62.7836295671138771 
	68.81908113748534106 116.9161524403381094 -62.12819827532823069 
	68.6960471757915343 117.4051677461652048 -61.47276698354272639 
	68.61362281962364307 117.8767543931717654 -60.8074704888290114 
	68.5698174634625417 118.3267772165243628 -60.13969251945738392 
	68.52717482407589955 118.7648551744208305 -59.48963924666736602 
	68.519852663829937 119.195720328076959 -58.81761361487981787 
	68.55107892083299248 119.6136340062262207 -58.12984803545030843 
	68.58230517783599112 120.0315476843754254 -57.44208245602074214 
	68.65207051206716926 120.4365082998057801 -56.73857554045284246 
	68.76214978682226331 120.824024865199334 -56.02625186947275893 
	68.87222906157739999 121.2115414305928027 -55.3139281984926896 
	69.02263367727283594 121.5816648672751796 -54.59270069006061021 
	69.21382081008815135 121.9312287780069539 -53.87000710790117353 
	69.40500794290346676 122.2807926887386998 -53.14731352574173684 
	69.6369840889678926 122.6098037199809028 -52.42315880327782907 
	69.90886374000498904 122.91645064259923 -51.70528098919184146 
	70.18074339104207127 123.2230975652176994 -50.98740317510588227 
	70.49286779997927965 123.5077537980967151 -50.27495240404277865 
	70.84315073426431297 123.7697416987988674 -49.5758148399888654 
	71.19343366854940314 124.0317295995009346 -48.87667727593496636 
	71.58189452063625424 124.2710640935186461 -48.19086822810668735 
	72.00481295145041827 124.4883048581679077 -47.52591879811261322 
	72.42773138226451124 124.7055456228172403 -46.86096936811854619 
	72.88519357732016601 124.9007450068180702 -46.21679753806167668 
	73.37167205637064171 125.07548942868371 -45.6001455987519364 
	73.85815053542111741 125.2502338505494919 -44.98349365944224587 
	74.37366170935686682 125.4045475554038802 -44.39438142822018563 
	74.91070743835197732 125.5408040796158815 -43.83821958672852048 
	75.56282363315060024 125.7062557000055421 -43.16289135267962251 
	76.26463779341546001 125.8496297377532187 -42.51744811088984477 
	77.01149847648214575 125.9735189754559883 -41.91055159919635997 
	77.75835915954888833 126.0974082131586869 -41.30365508750286097 
	78.55027825499911387 126.2018564724791503 -40.73532888360035997 
	79.38057841366939726 126.2902793590853889 -40.21190957933224297 
	80.21087857233970908 126.3787022456915281 -39.68849027506421834 
	81.07972119376955789 126.4511575938189054 -39.20988280980261464 
	81.97869286797293853 126.5112676672632404 -38.77967607454279886 
	82.87766454217637602 126.57137774070749 -38.34946933928298307 
	83.80675632209394621 126.6191737627586065 -37.96764900100612294 
	84.75617473766885723 126.6579844715274419 -37.63487918916798947 
	85.70559315324389615 126.6967951802962631 -37.30210937732990573 
	86.67643104639506646 126.7266805680558406 -37.01796205795114503 
	87.65854173693725215 126.7502970654816039 -36.78065270035261847 
	88.64065242747949469 126.7739135629074383 -36.54334334275414164 
	89.63402722782819865 126.7912627656898508 -36.35283615266651225 
	90.62801572240996961 126.8042616441346269 -36.20518837446440585 
	92.6159927115734547 126.8302594010244206 -35.90989281806015043 
	94.60676327918415041 126.8393321775216407 -35.78708268612674459 
	96.51327632022191949 126.8393321775216407 -35.78708268612671617 
	97.59577334669958759 126.8393321775216549 -35.78708268612673749 
	98.72983279628715536 126.836212673888852 -35.82685290530471889 
	99.88696487489940523 126.8294798997983293 -35.90881774978427643 
	100.4535352869519329 126.8261833093215643 -35.94895046805297056 
	101.0256488496192162 126.8220201815025945 -35.99907888715780757 
	101.6000000000000227 126.8169319442362308 -36.05885141917952552 
	0.001000000000000000021 
	cone 50.79999999999999716 78.21338860826320172 -29.14432543446740098 -0.7078507298477899612 -0.5589427441540469887 0.4318915986813069985 6.457148047687119252 5.098781278306049991 17.18168119149712325 1 I I -0.08813700386795120245 0.9961083618508479454 19.05000000000000071 forward I I I I 
	cone 50.80000000000001137 76.20000000000004547 -31.75000000000004263 -1.000000000000000222 6.661338147750939243e-16 6.106226635438360972e-16 -3.375077994860475883e-14 -2.842170943040400743e-14 50.80000000000002558 1 I I -0 -1 50.80000000000001847 forward I I I I 
	nullbs 
	nullbs 
	I I 
	0 
	0 
	0 
	} I I #
point $-1 101.6000000000000227 126.8169319442362308 -36.05885141917952552 #
coedge $-1 $376 $367 $448 $457 reversed $195 $-1 #
coedge $-1 $392 $404 $367 $422 forward $356 $-1 #
edge $-1 $458 -0.5919489045070618349 $394 3.989654732571273676 $421 $459 forward 7 unknown #
straight-curve $-1 30.36644088026340427 62.317551549317038 29.2099999999999973 0.764291483507887337 0.6448709392097867754 -3.330669073875469621e-16 I I #
coedge $-1 $373 $383 $386 $432 forward $353 $-1 #
point $-1 15.80907966033345247 50.03477802000101349 29.20999999999996888 #
edge $-1 $427 39.50714236818900105 $460 42.31296294863899732 $405 $461 forward 7 unknown #
vertex $-1 $377 $462 #
ellipse-curve $-1 10.47577073179290608 76.20000000000005969 -31.75000000000001421 -0.9961946980917457672 -7.438494264988548821e-15 0.08715574274765863771 4.444424107116949685 7.105427357601001859e-15 50.79999999999999716 0.9961946980917459893 I I #
edge $-1 $463 27.28971078869329858 $430 33.1258692744619978 $406 $464 forward 7 unknown #
vertex $-1 $429 $465 #
ellipse-curve $-1 10.47577073179357399 7.105427357601001859e-14 -31.74999999999999645 -0.9961946980917457672 -7.438494264988548821e-15 0.08715574274765863771 4.444424107116949685 7.105427357601001859e-15 50.79999999999999716 0.9961946980917459893 I I #
edge $-1 $387 12.25805008582083921 $398 29.34561143957512286 $424 $466 forward 7 unknown #
point $-1 14.32102027479029971 25.4737931947887688 12.20140339362477633 #
straight-curve $-1 35.24774530868309341 6.420170830187871047 -3.552713678800500929e-15 0.0318403783045866362 0.08711155187624108898 0.9956895941201425737 I I #
coedge $-1 $467 $445 $391 $436 forward $402 $-1 #
edge $-1 $438 -1.760990752871596898 $463 -1.583340718725474439 $435 $468 forward 7 unknown #
coedge $-1 $404 $392 $445 $469 reversed $356 $-1 #
vertex $-1 $436 $470 #
ellipse-curve $-1 1.421085471520200372e-14 1.421085471520200372e-14 -31.75000000000004619 -1.000000000000000222 6.661338147750939243e-16 6.106226635438360972e-16 -3.375077994860475883e-14 -2.842170943040400743e-14 50.80000000000002558 1 I I #
point $-1 2.131628207280300558e-14 38.10000000000007958 -65.35104165052035796 #
straight-curve $-1 15.80907966033363721 24.97778510420071285 29.20999999999995467 -8.715250743307478842e-15 1.000000000000000444 2.498001805406602216e-16 I I #
point $-1 15.80907966033365142 26.16522197999861987 29.20999999999994046 #
face $-1 $59 $412 $2 $-1 $93 forward single #
loop $-1 $-1 $409 $401 #
coedge $-1 $435 $467 $437 $469 forward $402 $-1 #
coedge $-1 $449 $448 $404 $447 forward $301 $-1 #
edge $-1 $458 1.620094278777258756 $471 4.800799366608140772 $446 $472 forward 7 unknown #
coedge $-1 $446 $405 $420 $457 forward $301 $-1 #
coedge $-1 $406 $446 $467 $473 reversed $301 $-1 #
ellipse-curve $-1 12.661550748843311 49.44574768616617177 -6.7664200827856682 -0.9961946980917457672 -7.438494264988548821e-15 0.08715574274765863771 0.9290297049176814426 -16.16585827062550607 10.6188581180265178 0.7404329795383850499 I I #
coedge $-1 $409 $409 $411 $453 forward $444 $-1 #
straight-curve $-1 101.5999999999999943 117.3200829123926212 -61.44252980222378824 -2.775557561562891351e-16 0.6114309217186737477 0.7912978124361604859 I I #
edge $-1 $414 -2.293530574608384498 $413 -2.163797384790957956 $451 $312 forward 7 unknown #
point $-1 101.5999999999999943 118.326777216524448 -60.13969251945714944 #
point $-1 101.5999999999999943 114.2999999999976239 -65.35104165052307224 #
point $-1 110.2095307302494689 125.1251522542656005 -37.23078426412797626 #
edge $-1 $460 42.31296294863899732 $458 53.31406937893029863 $448 $474 forward 7 unknown #
vertex $-1 $457 $475 #
ellipse-curve $-1 3.552713678800500929e-14 76.20000000000005969 -31.75 -1.000000000000000222 6.661338147750939243e-16 6.106226635438360972e-16 -3.375077994860475883e-14 -2.842170943040400743e-14 50.80000000000002558 1 I I #
vertex $-1 $426 $476 #
intcurve-curve $-1 forward { surfintcur full nubs 3 open 3 
	39.50714236818900105 3 39.81652348268929842 3 42.31296294863899732 3 
	14.05354341345898916 46.06181453345469379 9.144128879142524369 
	13.9633060821574233 46.10749738532564379 9.177796261235389608 
	13.87227847937562331 46.1524851943595209 9.210833302535210265 
	13.78049279933457427 46.19676358173592234 9.243240960306483345 
	13.03986131498075451 46.55405207981934268 9.504742881617669781 
	12.24951768849008005 46.86473751536401267 9.725083094617001933 
	11.42837665403803271 47.12423058828969147 9.906207618037559115 
	0.001000000000000000021 
	cone 50.79999999999999716 78.21338860826320172 -29.14432543446740098 -0.7078507298477899612 -0.5589427441540469887 0.4318915986813069985 6.457148047687119252 5.098781278306049991 17.18168119149712325 1 I I -0.08813700386795120245 0.9961083618508479454 19.05000000000000071 forward I I I I 
	cone 50.80000000000001137 76.20000000000004547 -31.75000000000004263 -1.000000000000000222 6.661338147750939243e-16 6.106226635438360972e-16 -3.375077994860475883e-14 -2.842170943040400743e-14 50.80000000000002558 1 I I -0 -1 50.80000000000001847 forward I I I I 
	nullbs 
	nullbs 
	I I 
	0 
	0 
	0 
	} I I #
point $-1 14.05354341345898916 46.06181453345469379 9.144128879142524369 #
vertex $-1 $429 $477 #
intcurve-curve $-1 forward { surfintcur full nubs 3 open 3 
	27.28971078869329858 3 30.61683207086630176 3 33.1258692744619978 3 
	8.947634959807416521 31.56249232222921108 8.055138844240001816 
	9.825678802290980229 32.13651893281505068 7.599978756486816422 
	10.72699324641128271 32.71484085245901952 7.121065617422754457 
	11.6419886095676901 33.29037264736587787 6.621748578863527968 
	12.33200175083118211 33.72439069564394742 6.245205339262728472 
	13.02979206379638555 34.15684565672997053 5.8570701011262436 
	13.73113892684662574 34.58508610175613995 5.45902873408796907 
	0.001000000000000000021 
	cone 50.80000000000001847 -1.421085471520200372e-14 -31.75000000000004619 -1.000000000000000222 6.661338147750939243e-16 6.106226635438360972e-16 -3.375077994860475883e-14 -2.842170943040400743e-14 50.80000000000002558 1 I I 0 1 50.80000000000001847 forward I I I I 
	cone 50.79999999999999716 78.21338860826320172 -29.14432543446740098 -0.7078507298477899612 -0.5589427441540469887 0.4318915986813069985 6.457148047687119252 5.098781278306049991 17.18168119149712325 1 I I -0.08813700386795120245 0.9961083618508479454 19.05000000000000071 forward I I I I 
	nullbs 
	nullbs 
	I I 
	0 
	0 
	0 
	} I I #
point $-1 13.73113892684662574 34.58508610175613995 5.45902873408796907 #
straight-curve $-1 13.25353579874136756 24.97778510420087628 -3.552713678800500929e-15 0.08708436240472519629 0.04046386555082706615 0.995378817038642838 I I #
coedge $-1 $445 $435 $449 $473 forward $402 $-1 #
ellipse-curve $-1 9.583533180685876118 7.105427357601001859e-14 -31.75000000000000355 0.7078507298477899612 0.5589427441540469887 -0.4318915986813069985 50.69316252090267483 -40.19792887175692186 31.06069082330868625 0.7078507298477899612 I I #
edge $-1 $471 12.24197443555885201 $438 24.94197443555871274 $445 $478 forward 7 unknown #
point $-1 3.552713678800500929e-14 38.10000000000209042 1.851041650522564197 #
vertex $-1 $473 $479 #
ellipse-curve $-1 7.105427357601001859e-15 39.36339287084875593 0.8748257993296810753 -1.000000000000000222 6.661338147750939243e-16 6.106226635438360972e-16 3.375077994860475883e-14 -14.3087287619971768 11.05626614666807939 0.7050861103864289881 I I #
edge $-1 $463 -0.9984191718693692374 $471 3.642092643608783487 $467 $480 forward 7 unknown #
intcurve-curve $-1 forward { surfintcur full nubs 3 open 7 
	42.31296294863899732 3 42.97682054656470285 3 46.13711761044019966 3 49.29741467431559698 3 51.1813950730268985 3 
	53.06537547173820002 3 53.31406937893029863 3 
	11.42837665403803271 47.12423058828969147 9.906207618037559115 
	11.21001737790707864 47.19323544517506974 9.954372571637836842 
	10.98949343230492559 47.25865194997876984 9.99977868016003768 
	10.76718841176689523 47.3204621939981962 10.04249090580602299 
	9.70890436728794981 47.61471013708491995 10.24582264701448864 
	8.608459619852929734 47.82658582585607832 10.38805694709883554 
	7.508773060603232352 47.96184329271110869 10.47850347543220195 
	6.409086501353471022 48.09710075956608932 10.5689500037656039 
	5.310185213092729839 48.15593384556637346 10.60764811135935659 
	4.256752858467564238 48.15593384556636636 10.6076481113593637 
	3.628759392230527681 48.15593384556640899 10.60764811135933527 
	2.971088831172586708 48.13498976739843016 10.59380713461913004 
	2.300779365858389269 48.0908976954582954 10.56451722084046807 
	1.630469900544177619 48.04680562351816775 10.53522730706182031 
	0.9475190064518912436 47.9795941575793421 10.49050318205621934 
	0.2686162687653421699 47.89088065676699557 10.43096445092958291 
	0.1789980463282532241 47.87917007466492691 10.4231050699703367 
	0.08944677728794658833 47.86708947697903227 10.41499028934424942 
	-7.105427357601001859e-15 47.85464702206972731 10.40662420731217352 
	0.001000000000000000021 
	cone 50.79999999999999716 78.21338860826320172 -29.14432543446740098 -0.7078507298477899612 -0.5589427441540469887 0.4318915986813069985 6.457148047687119252 5.098781278306049991 17.18168119149712325 1 I I -0.08813700386795120245 0.9961083618508479454 19.05000000000000071 forward I I I I 
	cone 50.80000000000001137 76.20000000000004547 -31.75000000000004263 -1.000000000000000222 6.661338147750939243e-16 6.106226635438360972e-16 -3.375077994860475883e-14 -2.842170943040400743e-14 50.80000000000002558 1 I I -0 -1 50.80000000000001847 forward I I I I 
	nullbs 
	nullbs 
	I I 
	0 
	0 
	0 
	} I I #
point $-1 -7.105427357601001859e-15 47.85464702206972731 10.40662420731217352 #
point $-1 11.42837665403803271 47.12423058828969147 9.906207618037559115 #
point $-1 8.947634959807416521 31.56249232222921108 8.055138844240001816 #
straight-curve $-1 4.263256414560601115e-14 22.84970558138482488 -17.88548815817368265 -2.775557561562891351e-16 0.6114309217186737477 0.7912978124361604859 I I #
point $-1 2.131628207280300558e-14 30.3348272941750281 -8.198440567416572122 #
ellipse-curve $-1 1.421085471520200372e-14 38.100000000002197 1.851041650522670778 -0.7078507298477899612 -0.5589427441540469887 0.4318915986813069985 4.30476536512474528 3.399187518870699698 11.45445412766474824 1 I I #
End-of-ACIS-data 