104 482 0 0                             
body $-1 $1 $-1 $2 #
lump $-1 $-1 $3 $0 #
transform $-1 0.338957902765728 0.267652560541 0.901925521863366 -0.619721618476079 0.784821709430486 -2.50334620217442e-17 -0.70785072984779 -0.558942744154047 0.431891598681307 50.8 78.2133886082632 -29.1443254344674 1 1 0 0 #
shell $-1 $-1 $-1 $4 $1 #
face $-1 $5 $6 $3 $-1 $7 1 #
face $-1 $8 $9 $3 $-1 $10 1 #
loop $-1 $-1 $11 $4 #
plane-surface $-1 8.2084737150523 -5.67486348989239 50.3387738073593 -0.0813413347167278 0.996174594675974 -0.0319337468622255 0.846196031013769 0.085953280878143 0.525893820654728 0 #
face $-1 $12 $13 $3 $-1 $14 1 #
loop $-1 $-1 $15 $5 #
plane-surface $-1 17.712033341934 -5.53506710744798 30.4923516907766 0.188026072980553 0.781835225881952 -0.594457631332654 0.921820880666179 0.0684017190099007 0.381533050736525 0 #
coedge $-1 $16 $17 $18 $19 1 $6 $-1 #
face $-1 $20 $21 $3 $-1 $22 1 #
loop $-1 $-1 $23 $8 #
plane-surface $-1 25.9488452691956 -20.5945490578469 13.2912972626084 0.340537801892867 0.22484688935415 -0.91295009821443 -0.940220647724518 0.0859532808781438 -0.329540842838595 0 #
coedge $-1 $24 $25 $26 $27 1 $9 $-1 #
coedge $-1 $28 $11 $25 $29 0 $6 $-1 #
coedge $-1 $11 $28 $30 $31 1 $6 $-1 #
coedge $-1 $32 $26 $11 $19 0 $33 $-1 #
edge $-1 $34 $35 $18 $36 0 #
face $-1 $37 $38 $3 $-1 $39 0 #
loop $-1 $-1 $40 $12 #
plane-surface $-1 28.0938967805635 -42.0316690568582 8.81175491975779 0.259060076850445 -0.617363390618705 -0.742798977184284 -0.928035550729651 0.0540122979550635 -0.36855486464233 0 #
coedge $-1 $41 $42 $43 $44 1 $13 $-1 #
coedge $-1 $45 $15 $42 $46 0 $9 $-1 #
coedge $-1 $15 $45 $16 $29 1 $9 $-1 #
coedge $-1 $18 $43 $15 $27 0 $33 $-1 #
edge $-1 $47 $34 $26 $48 0 #
coedge $-1 $17 $16 $49 $50 1 $6 $-1 #
edge $-1 $34 $51 $25 $52 0 #
coedge $-1 $53 $54 $17 $31 0 $55 $-1 #
edge $-1 $35 $56 $17 $57 0 #
coedge $-1 $58 $18 $54 $59 0 $33 $-1 #
loop $-1 $-1 $32 $60 #
vertex $-1 $19 $61 #
vertex $-1 $59 $62 #
ellipse-curve $-1 0.699947691353959 -8.14189965903411 -7.49487895161094 0.0813413347167278 -0.996174594675974 0.0319337468622255 -30.069189473452 -0.0224897733852844 75.8903825219784 0.622317894297892 #
face $-1 $63 $64 $3 $-1 $65 0 #
loop $-1 $-1 $66 $20 #
plane-surface $-1 31.7884249326169 -44.4516146554095 1.09641791909883 0.416276054372587 -0.617363390618705 -0.667515311045198 -0.86895129517818 -0.0540122979550634 -0.491941376871042 0 #
coedge $-1 $67 $68 $69 $70 1 $21 $-1 #
coedge $-1 $71 $23 $68 $72 0 $13 $-1 #
coedge $-1 $23 $71 $24 $46 1 $13 $-1 #
coedge $-1 $26 $69 $23 $44 0 $33 $-1 #
edge $-1 $73 $47 $43 $74 0 #
coedge $-1 $25 $24 $75 $76 1 $9 $-1 #
edge $-1 $47 $77 $42 $78 0 #
vertex $-1 $27 $79 #
straight-curve $-1 37.8640165144764 -11.8750712628708 28.527972295686 -0.338957902765728 0.619721618476078 0.70785072984779 #
coedge $-1 $75 $80 $28 $50 0 $81 $-1 #
edge $-1 $56 $51 $49 $82 0 #
vertex $-1 $50 $83 #
straight-curve $-1 17.712033341934 -5.53506710744798 30.4923516907766 0.911032398039184 0.0873074172607815 0.402985588593718 #
coedge $-1 $84 $30 $80 $85 1 $55 $-1 #
coedge $-1 $30 $86 $32 $59 1 $55 $-1 #
loop $-1 $-1 $54 $87 #
vertex $-1 $85 $88 #
straight-curve $-1 8.2084737150523 -5.67486348989239 50.3387738073593 0.879391851895268 0.0868117325538238 0.468117179679634 #
coedge $-1 $69 $32 $89 $90 0 $33 $-1 #
edge $-1 $35 $91 $32 $92 0 #
face $-1 $93 $33 $3 $-1 $94 0 #
point $-1 33.5653661453987 -4.01578684362294 37.5049065293604 #
point $-1 17.6467495157632 -4.74313655517647 55.3629493661221 #
face $-1 $95 $96 $3 $-1 $97 0 #
loop $-1 $-1 $98 $37 #
plane-surface $-1 29.3003067821089 -16.2569089833241 6.29239132586694 0.50014645397536 0.199430295106024 -0.842663089241363 -0.848169529684742 -0.0833134581093379 -0.523132217142309 0 #
coedge $-1 $99 $100 $101 $102 1 $38 $-1 #
coedge $-1 $103 $40 $104 $105 1 $21 $-1 #
coedge $-1 $40 $106 $41 $72 1 $21 $-1 #
coedge $-1 $43 $58 $40 $70 0 $33 $-1 #
edge $-1 $107 $73 $69 $108 0 #
coedge $-1 $42 $41 $109 $110 1 $13 $-1 #
edge $-1 $73 $111 $68 $112 0 #
vertex $-1 $70 $113 #
ellipse-curve $-1 -6.4779737087338 4.98159748046445 7.49487895161123 -0.340537801892867 -0.22484688935415 0.91295009821443 13.247810065332 -79.2195842876749 -14.569139112296 0.622317894297887 #
coedge $-1 $109 $49 $45 $76 0 $81 $-1 #
edge $-1 $51 $77 $75 $114 0 #
vertex $-1 $76 $115 #
straight-curve $-1 25.9488452691956 -20.5945490578469 13.2912972626084 0.931748356628229 0.0494321316269811 0.359724150264349 #
point $-1 42.1626668835541 -19.7343556821185 19.5510380620118 #
coedge $-1 $49 $116 $53 $85 0 $81 $-1 #
loop $-1 $117 $118 $119 #
straight-curve $-1 42.7427003532372 -2.99880897266225 45.853156609183 0.431882883019204 0.00635295268890357 -0.901907320819137 #
point $-1 44.4374214973464 -2.97387979933142 42.3140457374259 #
coedge $-1 $86 $53 $120 $121 1 $55 $-1 #
edge $-1 $122 $56 $80 $123 0 #
coedge $-1 $54 $84 $124 $125 1 $55 $-1 #
face $-1 $126 $55 $3 $-1 $127 1 #
point $-1 34.0162427871749 -3.12717426389899 64.0767451631641 #
coedge $-1 $124 $104 $58 $90 1 $128 $-1 #
edge $-1 $91 $107 $58 $129 0 #
vertex $-1 $125 $130 #
ellipse-curve $-1 -11.8901791199769 14.8768106311628 18.797266413816 0.416276054372589 -0.617363390618698 -0.667515311045203 44.3113438363092 2.75430570085661 25.0860820609862 0.996194698091746 #
face $-1 $131 $132 $3 $-1 $133 0 #
cone-surface $-1 -2.88901300868984 -1.58015108928497 -1.4210854715202e-14 -0.338957902765728 0.619721618476079 0.70785072984779 45.817816510659 -1.27169987070461e-15 21.9400932130104 1 0 1 0 #
face $-1 $134 $135 $3 $-1 $136 0 #
loop $-1 $-1 $137 $63 #
plane-surface $-1 18.7571875152141 3.01922791318654 28.3097409939223 0.345242050502694 0.781835225881952 -0.519173965193568 0.875165965241653 -0.0684017190099008 0.478963190776846 0 #
coedge $-1 $138 $139 $140 $141 1 $64 $-1 #
coedge $-1 $142 $66 $143 $144 1 $38 $-1 #
coedge $-1 $66 $145 $146 $147 1 $38 $-1 #
coedge $-1 $148 $149 $66 $102 0 $150 $-1 #
edge $-1 $151 $152 $101 $153 0 #
coedge $-1 $106 $67 $154 $155 0 $21 $-1 #
coedge $-1 $89 $156 $67 $105 0 $128 $-1 #
edge $-1 $157 $107 $104 $158 0 #
coedge $-1 $68 $103 $118 $159 1 $21 $-1 #
vertex $-1 $90 $160 #
ellipse-curve $-1 6.11215310259711 -18.0371128097325 -18.7972664138158 -0.259060076850445 0.617363390618705 0.742798977184284 47.3242891850088 -2.75430570085661 18.7941043650345 0.996194698091746 #
coedge $-1 $118 $75 $71 $110 0 $81 $-1 #
edge $-1 $77 $111 $109 $161 0 #
vertex $-1 $159 $162 #
straight-curve $-1 28.0938967805635 -42.0316690568582 8.81175491975779 0.938424337807066 -0.0211182121780159 0.344838778744176 #
point $-1 38.1657523466957 -42.2583251380176 12.5128166177408 #
straight-curve $-1 53.1638140564719 -18.9284690744973 24.0905929383787 0.338957902765729 -0.619721618476076 -0.707850729847791 #
point $-1 53.281941817301 -19.1444437620046 23.8439050133122 #
coedge $-1 $80 $163 $164 $165 0 $81 $-1 #
loop $-1 $-1 $166 $119 #
coedge $-1 $167 $109 $106 $159 0 $81 $-1 #
face $-1 $168 $81 $3 $-1 $169 0 #
coedge $-1 $164 $170 $84 $121 0 $171 $-1 #
edge $-1 $172 $122 $84 $173 0 #
vertex $-1 $165 $174 #
straight-curve $-1 28.0289609715931 -20.6833251927345 76.5800730643082 0.267652560540998 0.784821709430491 -0.558942744154041 #
coedge $-1 $175 $89 $86 $125 0 $128 $-1 #
edge $-1 $91 $172 $124 $176 0 #
face $-1 $177 $178 $3 $-1 $179 0 #
plane-surface $-1 3.00522272715628 -20.9320473803149 61.2047987010436 -0.416276054372589 0.617363390618698 0.667515311045203 0.86895129517818 0.0540122979550634 0.491941376871042 0 #
loop $-1 $-1 $124 $180 #
straight-curve $-1 17.2190614604963 -31.4818582185865 35.8077261480696 0.338957902765728 -0.619721618476079 -0.70785072984779 #
point $-1 7.22145733589831 -13.2030945183604 56.685868591667 #
face $-1 $181 $182 $3 $-1 $183 0 #
loop $-1 $-1 $184 $93 #
plane-surface $-1 14.3300484518092 -33.0620093078698 -35.9588170762677 0.338957902765728 -0.619721618476079 -0.70785072984779 -0.901925521863366 2.50334620217442e-17 -0.431891598681307 0 #
face $-1 $185 $186 $3 $-1 $187 1 #
loop $-1 $-1 $188 $95 #
plane-surface $-1 6.33508340876252 2.08509647030672 54.2510020952288 0.0646418087512605 0.995669714190063 0.0668076103901637 0.939306434356049 -0.0833134581093373 0.332809690476687 0 #
coedge $-1 $189 $190 $191 $192 1 $96 $-1 #
coedge $-1 $193 $98 $190 $194 0 $64 $-1 #
coedge $-1 $98 $193 $142 $195 1 $64 $-1 #
coedge $-1 $143 $191 $98 $141 0 $196 $-1 #
edge $-1 $197 $198 $140 $199 0 #
coedge $-1 $145 $99 $139 $195 0 $38 $-1 #
coedge $-1 $200 $140 $99 $144 0 $196 $-1 #
edge $-1 $198 $151 $143 $201 0 #
coedge $-1 $100 $142 $202 $203 0 $38 $-1 #
coedge $-1 $204 $205 $100 $147 0 $178 $-1 #
edge $-1 $152 $206 $146 $207 0 #
coedge $-1 $208 $101 $205 $209 0 $150 $-1 #
coedge $-1 $101 $210 $200 $211 1 $150 $-1 #
loop $-1 $-1 $101 $212 #
vertex $-1 $144 $213 #
vertex $-1 $209 $214 #
ellipse-curve $-1 -9.61592193851831 -86.3733619737815 14.0479019864886 0.416276054372587 -0.617363390618705 -0.667515311045198 44.3113438363092 2.75430570085661 25.0860820609862 0.996194698091746 #
coedge $-1 $215 $216 $103 $155 1 $186 $-1 #
edge $-1 $157 $217 $154 $218 0 #
coedge $-1 $104 $219 $215 $220 0 $128 $-1 #
vertex $-1 $105 $221 #
ellipse-curve $-1 -14.2829720106271 -77.8405270683355 23.7941706907226 -0.259060076850445 0.617363390618705 0.742798977184284 47.3242891850088 -2.75430570085661 18.7941043650345 0.996194698091746 #
edge $-1 $111 $217 $118 $222 0 #
point $-1 27.2166655850942 -49.7606219188125 14.9295837044721 #
straight-curve $-1 55.4499473228744 -40.8109603632094 19.3164275097274 0.0974804249487578 -0.974195517499945 -0.203569792540112 #
point $-1 55.6341094281884 -42.6514313868499 18.9318391003904 #
coedge $-1 $116 $167 $223 $224 0 $81 $-1 #
coedge $-1 $225 $120 $116 $165 1 $171 $-1 #
edge $-1 $226 $122 $116 $227 0 #
coedge $-1 $202 $228 $204 $229 1 $117 $-1 #
coedge $-1 $163 $118 $216 $230 0 $81 $-1 #
face $-1 $212 $196 $3 $-1 $94 0 #
plane-surface $-1 51.1092805925861 -65.0488129074798 28.3811051230538 0.901925521863366 -2.50334620217442e-17 0.431891598681307 0.338957902765728 -0.619721618476079 -0.70785072984779 0 #
coedge $-1 $120 $225 $175 $231 1 $171 $-1 #
loop $-1 $-1 $170 $232 #
vertex $-1 $231 $233 #
straight-curve $-1 3.00522272715628 -20.9320473803149 61.2047987010436 0.856987987771406 0.0211182121780151 0.514903495744514 #
point $-1 28.1554990667892 -20.3122850503232 76.3158217153729 #
coedge $-1 $219 $124 $170 $231 0 $128 $-1 #
ellipse-curve $-1 -32.2853042332009 -44.9266036274406 61.3887035183539 0.416276054372589 -0.617363390618698 -0.667515311045203 44.3113438363092 2.75430570085661 25.0860820609862 0.996194698091746 #
face $-1 $234 $235 $3 $-1 $236 0 #
loop $-1 $-1 $205 $126 #
plane-surface $-1 24.7640360989572 -65.0488129074798 15.7655515255728 0.0925741687708812 -0.995669714190063 0.00847605574892198 -0.848169529684742 -0.0833134581093373 -0.523132217142308 0 #
face $-1 $237 $128 $3 $-1 $238 0 #
face $-1 $-1 $239 $3 $-1 $240 0 #
loop $-1 $241 $242 $131 #
cone-surface $-1 0 0 0 0 0 1 19.05 0 0 1 -0.0881370038679512 0.996108361850848 0 #
coedge $-1 $243 $244 $245 $246 0 $132 $-1 #
face $-1 $232 $247 $3 $-1 $248 1 #
loop $-1 $-1 $215 $134 #
plane-surface $-1 22.8906457926675 -57.2888529472806 19.6777798134422 -0.0758746428054141 -0.996174594675974 -0.0433499192768598 -0.940220647724518 0.0859532808781431 -0.329540842838595 0 #
coedge $-1 $249 $250 $251 $252 1 $135 $-1 #
coedge $-1 $253 $137 $250 $254 0 $96 $-1 #
coedge $-1 $137 $253 $138 $194 1 $96 $-1 #
coedge $-1 $140 $251 $137 $192 0 $196 $-1 #
edge $-1 $255 $197 $191 $256 0 #
coedge $-1 $139 $138 $257 $258 0 $64 $-1 #
edge $-1 $197 $259 $138 $260 0 #
edge $-1 $198 $261 $142 $262 0 #
loop $-1 $-1 $143 $168 #
vertex $-1 $192 $263 #
vertex $-1 $141 $264 #
ellipse-curve $-1 1.26343746882029 -9.17213613983838 -8.67162286873681 0.50014645397536 0.199430295106024 -0.842663089241363 -1.82176333631161 77.1657650696453 17.1812946504128 0.642417010594229 #
coedge $-1 $265 $143 $149 $211 0 $196 $-1 #
ellipse-curve $-1 10.7792031747059 -26.5699477151785 -28.5435351180498 0.416276054372587 -0.617363390618705 -0.667515311045198 44.3113438363092 2.75430570085661 25.0860820609862 0.996194698091746 #
coedge $-1 $257 $166 $145 $203 1 $117 $-1 #
edge $-1 $261 $206 $145 $266 0 #
coedge $-1 $267 $146 $166 $229 0 $178 $-1 #
coedge $-1 $146 $267 $148 $209 1 $178 $-1 #
vertex $-1 $147 $268 #
straight-curve $-1 24.7640360989572 -65.0488129074798 15.7655515255728 0.879069883388986 0.0857249821451792 0.468921494020782 #
coedge $-1 $269 $148 $270 $271 0 $150 $-1 #
edge $-1 $152 $272 $148 $273 0 #
coedge $-1 $149 $274 $244 $275 1 $150 $-1 #
edge $-1 $151 $276 $200 $129 0 #
face $-1 $180 $150 $3 $-1 $238 0 #
point $-1 29.890839630581 -54.6498528647015 9.34506705980147 #
point $-1 35.539718758476 -63.9979917827381 21.5136146855974 #
coedge $-1 $277 $154 $156 $220 1 $186 $-1 #
coedge $-1 $154 $277 $167 $230 1 $186 $-1 #
vertex $-1 $159 $278 #
straight-curve $-1 22.8906457926675 -57.2888529472806 19.6777798134422 0.916020473683204 -0.0868117325538239 0.391625094809056 #
coedge $-1 $156 $175 $279 $280 0 $128 $-1 #
edge $-1 $281 $157 $156 $282 0 #
point $-1 32.722046721715 -58.2205798819965 23.88098643552 #
straight-curve $-1 52.2484531065546 -52.5789903704739 26.0021545546922 -0.267652560541 -0.784821709430486 0.558942744154047 #
coedge $-1 $283 $284 $163 $224 1 $247 $-1 #
edge $-1 $285 $226 $163 $286 0 #
coedge $-1 $170 $164 $284 $287 1 $171 $-1 #
vertex $-1 $224 $288 #
straight-curve $-1 31.9967607218295 -58.7009142325582 68.2940590012702 -0.0974804249487607 0.974195517499943 0.203569792540119 #
coedge $-1 $166 $289 $290 $291 1 $117 $-1 #
edge $-1 $206 $292 $204 $293 0 #
edge $-1 $217 $285 $167 $294 0 #
edge $-1 $172 $295 $175 $296 0 #
face $-1 $87 $171 $3 $-1 $297 1 #
point $-1 12.2030438907827 -20.7053912991556 66.7311191839013 #
face $-1 $298 $299 $3 $-1 $300 0 #
loop $-1 $-1 $270 $177 #
plane-surface $-1 12.3419319925058 -65.9829443503596 41.7068126268788 -0.188026072980551 -0.781835225881956 0.594457631332649 -0.921820880666179 -0.0684017190099007 -0.381533050736525 0 #
face $-1 $301 $302 $3 $-1 $183 0 #
cone-surface $-1 -23.2841381219141 -61.383565347888 42.5914371045384 -0.338957902765728 0.619721618476079 0.70785072984779 45.817816510659 -1.27169987070461e-15 21.9400932130104 1 0 1 0 #
loop $-1 $303 $304 $181 #
plane-surface $-1 0 0 -71.7665432243371 0 0 -1 -1 0 0 0 #
loop $-1 $-1 $305 $131 #
coedge $-1 $306 $306 $243 $307 0 $182 $-1 #
coedge $-1 $308 $184 $242 $307 1 $132 $-1 #
coedge $-1 $184 $308 $210 $275 0 $132 $-1 #
coedge $-1 $309 $310 $184 $246 1 $196 $-1 #
edge $-1 $311 $312 $184 $313 0 #
loop $-1 $-1 $279 $185 #
plane-surface $-1 13.3870861657859 -57.428649329725 39.5242019300246 -0.345242050502693 -0.781835225881956 0.519173965193564 -0.875165965241653 0.0684017190099008 -0.478963190776846 0 #
coedge $-1 $314 $188 $315 $316 0 $135 $-1 #
coedge $-1 $188 $314 $189 $254 1 $135 $-1 #
coedge $-1 $191 $317 $188 $252 0 $196 $-1 #
edge $-1 $318 $255 $251 $319 0 #
coedge $-1 $190 $189 $320 $321 0 $96 $-1 #
edge $-1 $255 $322 $189 $323 0 #
vertex $-1 $252 $324 #
straight-curve $-1 40.2031338431851 -7.88300744486268 26.1530281508164 0.338957902765728 -0.619721618476078 -0.70785072984779 #
coedge $-1 $320 $202 $193 $258 1 $117 $-1 #
edge $-1 $259 $261 $193 $325 0 #
vertex $-1 $194 $326 #
straight-curve $-1 29.3003067821089 -16.2569089833241 6.29239132586694 0.863929679024966 -0.0486348662788445 0.501258575469645 #
vertex $-1 $195 $327 #
straight-curve $-1 31.7884249326169 -44.4516146554095 1.09641791909883 0.857409368940855 0.0222111418816489 0.514155462120901 #
point $-1 45.2751297328108 -17.1562106243007 15.5611051923542 #
point $-1 42.2985919211458 -44.179349365761 7.39896132567514 #
coedge $-1 $310 $200 $308 $328 1 $196 $-1 #
straight-curve $-1 53.7552532216648 -53.1664880034521 22.8554819074029 -0.267652560541 -0.784821709430486 0.558942744154047 #
coedge $-1 $205 $204 $329 $330 1 $178 $-1 #
point $-1 50.5608793251231 -62.5331608907828 29.5263394847718 #
coedge $-1 $331 $208 $332 $333 0 $150 $-1 #
coedge $-1 $329 $334 $208 $271 1 $235 $-1 #
edge $-1 $272 $335 $208 $336 0 #
vertex $-1 $209 $337 #
ellipse-curve $-1 -19.1316876444038 -68.9755503984416 33.9198142358013 0.0925741687708812 -0.995669714190063 0.00847605574892198 -28.8388312284599 -2.05477877292931 73.6014313982558 0.642417010594234 #
coedge $-1 $210 $338 $309 $339 1 $150 $-1 #
edge $-1 $276 $311 $244 $340 0 #
vertex $-1 $328 $341 #
coedge $-1 $216 $215 $283 $342 0 $186 $-1 #
point $-1 49.7733657078026 -59.836542173274 31.1709156525993 #
coedge $-1 $284 $283 $219 $280 1 $247 $-1 #
edge $-1 $295 $281 $219 $343 0 #
vertex $-1 $220 $344 #
ellipse-curve $-1 -26.8730988219578 -54.8218167781389 50.0863160561492 0.0758746428054141 0.996174594675974 0.0433499192768598 40.272220539926 0.0224897733852629 -71.0046094821042 0.622317894297892 #
coedge $-1 $279 $223 $277 $342 1 $247 $-1 #
coedge $-1 $223 $279 $225 $287 0 $247 $-1 #
vertex $-1 $230 $345 #
straight-curve $-1 43.352465200433 -67.3036029255337 44.5797757893195 -0.338957902765731 0.619721618476072 0.707850729847795 #
edge $-1 $295 $226 $225 $346 0 #
point $-1 30.5076666776767 -43.8192726751685 71.4037558024509 #
coedge $-1 $228 $347 $348 $349 1 $117 $-1 #
coedge $-1 $334 $329 $228 $291 0 $235 $-1 #
edge $-1 $292 $350 $290 $351 0 #
vertex $-1 $330 $352 #
straight-curve $-1 51.0734530724615 -62.494615790043 28.455924255642 -0.43166399644952 -0.0324607577256765 0.901450216804624 #
straight-curve $-1 50.1689138787899 -59.8307237004536 30.3448866406225 -0.431882883019204 -0.00635295268890324 0.901907320819137 #
vertex $-1 $280 $353 #
ellipse-curve $-1 -19.69517742187 -67.9453139176376 35.0965581529268 0.497753779415008 0.224846889354157 -0.837666432075343 -3.0447789988584 79.2195842876755 19.4549121521707 0.622317894297881 #
plane-surface $-1 5.1502742385243 -42.3691673793263 56.7252563581929 -0.497753779415008 -0.224846889354157 0.837666432075343 0.846196031013768 0.0859532808781445 0.52589382065473 0 #
face $-1 $119 $354 $3 $-1 $355 0 #
loop $-1 $-1 $332 $234 #
plane-surface $-1 1.79881272561099 -46.7068074538491 63.7241622949343 -0.342930476453218 -0.199430295106031 0.917946755380447 0.93930643435605 -0.0833134581093387 0.332809690476685 0 #
face $-1 $356 $357 $3 $-1 $358 0 #
loop $-1 $-1 $359 $237 #
loop $-1 $-1 $360 $181 #
coedge $-1 $361 $361 $362 $363 0 $239 $-1 #
coedge $-1 $305 $305 $360 $364 1 $241 $-1 #
coedge $-1 $242 $242 $310 $365 0 $182 $-1 #
edge $-1 $366 $312 $242 $367 0 #
coedge $-1 $244 $243 $265 $328 0 $132 $-1 #
coedge $-1 $368 $245 $274 $339 0 $196 $-1 #
coedge $-1 $245 $265 $306 $365 1 $196 $-1 #
vertex $-1 $246 $369 #
vertex $-1 $365 $370 #
ellipse-curve $-1 14.3300484518092 -33.0620093078698 -35.9588170762677 0.338957902765728 -0.619721618476079 -0.70785072984779 45.817816510659 -1.27169987070461e-15 21.9400932130104 1 #
coedge $-1 $250 $249 $371 $372 0 $135 $-1 #
coedge $-1 $373 $374 $249 $316 1 $354 $-1 #
edge $-1 $318 $375 $249 $376 0 #
coedge $-1 $251 $377 $373 $378 0 $196 $-1 #
vertex $-1 $378 $379 #
ellipse-curve $-1 -7.04146348620007 6.0118339612686 8.67162286873697 0.0646418087512605 0.995669714190063 0.0668076103901637 39.2603316411173 2.05477877292931 -68.6110432067989 0.642417010594234 #
coedge $-1 $371 $257 $253 $321 1 $117 $-1 #
edge $-1 $322 $259 $253 $380 0 #
vertex $-1 $254 $381 #
straight-curve $-1 18.7571875152141 3.01922791318654 28.3097409939223 0.885514774731747 -0.0880992078304636 0.456182105426581 #
point $-1 35.1311379535594 1.39019573457554 36.7449511092787 #
straight-curve $-1 56.5398823850689 -39.1566947123948 17.0403002297144 0.0864612802535645 -0.979756668019657 -0.180558352030398 #
point $-1 54.6449383553844 -17.683683404182 20.9975394723701 #
point $-1 56.9496271182066 -43.7998151161214 16.184624330034 #
edge $-1 $366 $276 $308 $313 0 #
coedge $-1 $290 $270 $267 $330 0 $235 $-1 #
edge $-1 $272 $292 $329 $382 0 #
coedge $-1 $383 $269 $384 $385 0 $150 $-1 #
coedge $-1 $386 $387 $269 $333 1 $299 $-1 #
edge $-1 $335 $388 $269 $389 0 #
coedge $-1 $270 $290 $386 $390 1 $235 $-1 #
vertex $-1 $271 $391 #
straight-curve $-1 24.1070122412594 -55.0807089923103 59.7667935496324 -0.338957902765728 0.619721618476079 0.70785072984779 #
point $-1 29.1790081308853 -64.3539121717486 49.1748705911698 #
coedge $-1 $274 $392 $393 $394 1 $150 $-1 #
edge $-1 $311 $395 $309 $396 0 #
ellipse-curve $-1 -6.06507666141508 -92.8654235664728 6.63262002827066 0.338957902765728 -0.619721618476079 -0.70785072984779 45.817816510659 -1.27169987070461e-15 21.9400932130104 1 #
point $-1 34.4381229209953 -62.9637164371713 -0.15109092819816 #
edge $-1 $281 $285 $283 $397 0 #
straight-curve $-1 24.4907709234815 -51.0886451743021 56.4555160253927 0.338957902765728 -0.619721618476079 -0.70785072984779 #
point $-1 28.7894212925593 -58.9479295935501 47.4785817917181 #
point $-1 39.3521869976313 -59.9898366378416 52.9336150783372 #
straight-curve $-1 5.1502742385243 -42.3691673793263 56.7252563581929 0.864399271117162 -0.0494321316269817 0.500370227386615 #
coedge $-1 $289 $371 $374 $398 1 $117 $-1 #
coedge $-1 $387 $386 $289 $349 0 $299 $-1 #
edge $-1 $350 $399 $348 $400 0 #
vertex $-1 $390 $401 #
straight-curve $-1 43.0987299085046 -70.7924416056814 45.1096548985368 -0.338957902765731 0.619721618476072 0.707850729847795 #
point $-1 39.0545592820413 -63.3984261672587 53.5551553757733 #
point $-1 20.1921205544039 -43.2293607550546 65.4324502590668 #
loop $-1 $-1 $384 $298 #
plane-surface $-1 -0.689305424897098 -18.5121017817636 68.9201357017026 -0.259060076850447 0.617363390618699 0.742798977184288 0.928035550729651 -0.0540122979550635 0.36855486464233 0 #
face $-1 $402 $403 $3 $-1 $404 0 #
loop $-1 $-1 $405 $301 #
plane-surface $-1 -20.1080744691888 29.9017071292998 35.9588170762677 -0.338957902765728 0.619721618476079 0.70785072984779 0.901925521863366 -2.50334620217442e-17 0.431891598681307 0 #
coedge $-1 $406 $407 $408 $409 0 $302 $-1 #
coedge $-1 $360 $360 $305 $364 0 $303 $-1 #
coedge $-1 $304 $304 $410 $411 0 $239 $-1 #
coedge $-1 $412 $412 $304 $363 1 $413 $-1 #
edge $-1 $414 $415 $304 $416 0 #
edge $-1 $417 $417 $360 $418 0 #
edge $-1 $312 $366 $306 $419 0 #
vertex $-1 $365 $420 #
ellipse-curve $-1 -1.0846473083744 1.98307630516019 -74.022110629948 0.338957902765728 -0.619721618476079 -0.70785072984779 12.2843214459174 -22.4596019335355 25.5457371622342 0.705086110386429 #
coedge $-1 $421 $309 $422 $423 1 $196 $-1 #
point $-1 -26.1731511306012 -62.9637164371713 -29.1751061197989 #
point $-1 -20.2315177831292 -14.8653814956847 -68.4399019665971 #
coedge $-1 $347 $320 $314 $372 1 $117 $-1 #
edge $-1 $375 $322 $314 $424 0 #
coedge $-1 $408 $315 $317 $378 1 $354 $-1 #
coedge $-1 $315 $425 $347 $398 0 $354 $-1 #
vertex $-1 $316 $426 #
straight-curve $-1 6.33508340876252 2.08509647030672 54.2510020952288 0.916445234629649 -0.0857249821451792 0.390870003147871 #
coedge $-1 $317 $421 $406 $427 1 $196 $-1 #
edge $-1 $428 $318 $317 $429 0 #
point $-1 17.5689149957644 1.03427534556504 59.0423061708602 #
straight-curve $-1 53.4175493484003 -15.4396303943496 23.5607138291613 0.338957902765729 -0.619721618476076 -0.707850729847792 #
point $-1 44.7350492129365 0.434709730085661 41.6925054399898 #
straight-curve $-1 12.3419319925058 -65.9829443503596 41.7068126268788 0.910560938849718 0.0880992078304636 0.403877835763198 #
coedge $-1 $392 $331 $407 $430 1 $150 $-1 #
coedge $-1 $425 $408 $331 $385 1 $354 $-1 #
edge $-1 $388 $431 $331 $432 0 #
coedge $-1 $348 $332 $334 $390 0 $299 $-1 #
coedge $-1 $332 $348 $425 $433 1 $299 $-1 #
vertex $-1 $333 $434 #
ellipse-curve $-1 -27.4365885994241 -53.7915802973347 51.263059973275 -0.342930476453218 -0.199430295106031 0.917946755380447 12.2432637489692 -77.1657650696459 -12.1909064589566 0.642417010594223 #
edge $-1 $335 $350 $386 $435 0 #
point $-1 19.0350163516339 -45.8075058128724 70.3587165080944 #
coedge $-1 $338 $383 $436 $437 1 $150 $-1 #
coedge $-1 $438 $422 $338 $394 0 $357 $-1 #
edge $-1 $395 $439 $393 $440 0 #
vertex $-1 $423 $441 #
straight-curve $-1 -43.3922125911002 -31.4818582185865 6.78371095646881 -0.338957902765728 0.619721618476079 0.70785072984779 #
straight-curve $-1 13.3870861657859 -57.428649329725 39.5242019300246 0.885115229706206 -0.0873074172607816 0.457108789057246 #
edge $-1 $399 $375 $374 $442 0 #
vertex $-1 $433 $443 #
straight-curve $-1 30.4625043248837 -60.2133861662767 71.4980690021886 -0.0864612802535675 0.979756668019656 0.180558352030405 #
point $-1 29.1446701395933 -45.2800330329912 74.250121343393 #
face $-1 $444 $445 $3 $-1 $133 0 #
loop $-1 $-1 $446 $356 #
plane-surface $-1 0 0 71.7665432243371 0 0 1 1 0 0 0 #
coedge $-1 $422 $438 $447 $448 1 $357 $-1 #
coedge $-1 $449 $359 $377 $427 0 $302 $-1 #
coedge $-1 $359 $450 $383 $430 0 $302 $-1 #
coedge $-1 $384 $373 $359 $409 1 $354 $-1 #
edge $-1 $431 $428 $359 $451 0 #
coedge $-1 $452 $452 $361 $411 1 $445 $-1 #
edge $-1 $415 $414 $361 $453 0 #
coedge $-1 $362 $362 $452 $454 1 $413 $-1 #
loop $-1 $-1 $362 $444 #
vertex $-1 $363 $455 #
vertex $-1 $363 $456 #
ellipse-curve $-1 31.4767592570223 -64.411587780723 -71.7665432243371 -0 -0 1 34.438199241926 -62.963855975822 -2.81125456224686e-15 0.70785072984779 #
vertex $-1 $364 $457 #
ellipse-curve $-1 0 0 -71.7665432243371 0 0 -1 25.4 0 0 1 #
intcurve-curve $-1 0 surfint nubs 3 open 34 
	5.51136956973166 3 7.04682387070383 3 13.0132173358229 3 15.9964140683825 3 18.9796108009421 3 
	21.9628075335016 3 24.9460042660612 3 27.9292009986207 3 30.9123977311803 3 33.3317575234195 3 
	35.7511173156586 3 38.1704771078978 3 40.589836900137 3 43.0091966923762 3 45.4285564846154 3 
	47.8479162768545 3 50.2672760690937 3 52.6224192800647 3 54.9775624910356 3 57.3327057020066 3 
	59.6878489129775 3 62.0429921239485 3 64.3981353349195 3 66.7532785458904 3 69.1084217568614 3 
	71.9681913184181 3 74.8279608799748 3 77.6877304415315 3 80.5475000030882 3 83.4072695646449 3 
	86.2670391262016 3 91.986578249315 3 95.2340693287479 3 96.8241491416054 3 
	-20.2315177831292 -14.8653814956847 -68.4399019665971 
	-20.4280540095468 -14.5393554855864 -68.0481301457755 
	-20.6143676635055 -14.2142745238032 -67.6677547802165 
	-20.7878524533889 -13.897089782305 -67.3054639643529 
	-21.4619711920595 -12.6645887774155 -65.8976919747383 
	-22.0854819912138 -11.29041478983 -64.4655828821888 
	-22.5993568937074 -9.79629141299528 -63.0782204999163 
	-22.8562943449542 -9.04922972457789 -62.38453930878 
	-23.0859275252021 -8.27236682152825 -61.7018261637488 
	-23.281589032993 -7.47010090588613 -61.0372803406837 
	-23.4772505407839 -6.66783499024402 -60.3727345176187 
	-23.6389215458144 -5.84015121889786 -59.7263683916605 
	-23.7607097806581 -4.99277061258006 -59.1040124802258 
	-23.8824980155019 -4.14539000626227 -58.4816565687911 
	-23.9644790947607 -3.27756443213376 -57.8827796862891 
	-24.0016831551562 -2.39653130962817 -57.3118732831998 
	-24.0388872155516 -1.51549818712259 -56.7409668801105 
	-24.0312840370188 -0.621260037136339 -56.1980250970091 
	-23.9755400141639 0.277705612629488 -55.685732222941 
	-23.9197959913091 1.17667126239532 -55.1734393488728 
	-23.8158752254508 2.08048007008252 -54.6917030360511 
	-23.6624783416907 2.97976716989377 -54.2414737638897 
	-23.5090814579306 3.87905426970501 -53.7912444917283 
	-23.3061871588581 4.77380002011906 -53.3724902850127 
	-23.0549100871106 5.65428667323351 -52.9846342797643 
	-22.8511254565288 6.36835758344151 -52.6700847182033 
	-22.6099139141901 7.09263757156841 -52.3672886405034 
	-22.3289937339259 7.81786363124362 -52.0792516345241 
	-22.0480735536617 8.54308969091883 -51.7912146285447 
	-21.7274364181407 9.26924898354847 -51.5179124811675 
	-21.3667220024166 9.98726659677512 -51.260950429157 
	-21.0060075866926 10.7052842100018 -51.0039883771465 
	-20.6051657203684 11.415246475216 -50.7633029877403 
	-20.165705250554 12.1086446533711 -50.5394373480421 
	-19.7262447807396 12.8020428315261 -50.3155717083439 
	-19.2481677183142 13.4788691182696 -50.1084976982786 
	-18.7347705834072 14.1315186867381 -49.9180488669775 
	-18.2213734485002 14.7841682552066 -49.7276000356765 
	-17.6720851381265 15.4133736177077 -49.5535399237556 
	-17.0915282111671 16.0125849087993 -49.3954132035574 
	-16.5109712842076 16.611796199891 -49.2372864833592 
	-15.899147477782 17.181010770051 -49.0950767371303 
	-15.2621057873095 17.7150257304414 -48.9681958070581 
	-14.6250640968369 18.2490406908318 -48.8413148769858 
	-13.9627260082853 18.7479185102739 -48.7297397199856 
	-13.2823929332723 19.2079551443992 -48.6329063289418 
	-12.6020598582594 19.6679917785245 -48.5360729378981 
	-11.9037289833861 20.089183372379 -48.4539827651127 
	-11.1958414005538 20.4695181801034 -48.3861044088434 
	-10.506743135721 20.8397578373803 -48.3200277341577 
	-9.78778580952219 21.1824478648051 -48.2654314645609 
	-9.04503242774883 21.4910840055557 -48.2240846358374 
	-8.30227904597546 21.7997201463063 -48.1827378071138 
	-7.53573194700245 22.0743069429171 -48.1546323210824 
	-6.75223700722952 22.31021984989 -48.141504979487 
	-5.9687420674566 22.5461327568628 -48.1283776378916 
	-5.1682032518851 22.7434046732751 -48.1302273626294 
	-4.35802140029369 22.8992672198707 -48.1488202390963 
	-3.54783954870228 23.0551297664663 -48.1674131155632 
	-2.72801512981431 23.1695841337404 -48.2027595877441 
	-1.90631221736965 23.2417575983699 -48.2565624727927 
	-1.08460930492498 23.3139310629995 -48.3103653578414 
	-0.260045766772555 23.3439052104152 -48.3827078819607 
	0.559377146774619 23.3324410955347 -48.4751405085638 
	1.37880006032179 23.3209769806541 -48.5675731351669 
	2.1930791095625 23.2680742994049 -48.6801245456342 
	2.99431056248465 23.1764778732474 -48.8137267423249 
	3.79554201540679 23.08488144709 -48.9473289390156 
	4.58384307057504 22.9545789494098 -49.1020367655054 
	5.35168370969723 22.7902409349009 -49.2777362467413 
	6.11952434881943 22.6259029203921 -49.4534357279773 
	6.86689875000089 22.4275382469705 -49.6501605909991 
	7.58702061071398 22.2016564768551 -49.8662667709345 
	8.46143986822906 21.9273759967223 -50.1286770874556 
	9.31984148512642 21.6049696468466 -50.4268331175611 
	10.1535305406377 21.2393548988743 -50.7626324829878 
	10.987219596149 20.8737401509019 -51.0984318484145 
	11.7961905839975 20.4649440287943 -51.4719176420201 
	12.5733792256124 20.0197852716613 -51.8830091461123 
	13.3505678672272 19.5746265145282 -52.2941006502045 
	14.0961300873455 19.0930504891494 -52.7429033817048 
	14.8049466899593 18.5831139988425 -53.2270365521496 
	15.5137632925731 18.0731775085355 -53.7111697225944 
	16.1858525293149 17.5349106027023 -54.2306382605221 
	16.8181867760862 16.9769949723914 -54.7806572569519 
	17.4505210228575 16.4190793420804 -55.3306762533818 
	18.0438728189189 15.8408848127673 -55.9118679452297 
	18.597123381071 15.2507843259823 -56.5177640663645 
	19.1503739432231 14.6606838391973 -57.1236601874994 
	19.6635530375962 14.0586840311568 -57.7542400210635 
	20.1371197755997 13.4528896745497 -58.4013332962329 
	21.0842532516068 12.2413009613357 -59.6955198465718 
	21.8722346122867 11.0146979151213 -61.056718744192 
	22.5184622742724 9.83319056768361 -62.4062453917549 
	22.8853831961174 9.16234375843934 -63.1724917020052 
	23.2330768899396 8.45709434671917 -63.9906693107063 
	23.5495677231724 7.73471055490007 -64.8413827895743 
	23.7045321780604 7.38100738638895 -65.2579204477809 
	23.852128219024 7.02318893028921 -65.6822145436499 
	23.9915368285384 6.66325774673223 -66.1117406457474 
	0.001 
	cone 0 0 0 0 0 1 19.05 0 0 1 -0.0881370038679512 0.996108361850848 0 
	cone -2.88901300868984 -1.58015108928497 -1.4210854715202e-14 -0.338957902765728 0.619721618476079 0.70785072984779 45.817816510659 -1.27169987070461e-15 21.9400932130104 1 -0 -1 0 
	nullbs 
	nullbs 
	#
point $-1 23.9915368285384 6.66325774673223 -66.1117406457474 #
coedge $-1 $377 $368 $449 $458 1 $196 $-1 #
coedge $-1 $393 $405 $368 $423 0 $357 $-1 #
edge $-1 $459 $395 $422 $460 0 #
straight-curve $-1 41.4505775844318 0.187720315479204 48.5515154245078 0.43166399644952 0.0324607577256767 -0.901450216804624 #
coedge $-1 $374 $384 $387 $433 0 $354 $-1 #
point $-1 33.2287291698545 -0.430555546390227 65.7213213309917 #
edge $-1 $428 $461 $406 $462 0 #
vertex $-1 $378 $463 #
ellipse-curve $-1 -16.5572291920857 23.4096455366088 28.54353511805 -0.259060076850447 0.617363390618699 0.742798977184288 47.3242891850088 -2.75430570085661 18.7941043650345 0.996194698091746 #
edge $-1 $464 $431 $407 $465 0 #
vertex $-1 $430 $466 #
ellipse-curve $-1 -36.9523543053097 -36.3937687219946 71.1349722225879 -0.259060076850447 0.617363390618699 0.742798977184288 47.3242891850088 -2.75430570085661 18.7941043650345 0.996194698091746 #
edge $-1 $388 $399 $425 $467 0 #
point $-1 10.8100418330948 -18.7843670714122 73.1569595307825 #
straight-curve $-1 1.79881272561099 -46.7068074538491 63.7241622949343 0.932146034556499 0.0486348662788449 0.358801365720134 #
coedge $-1 $468 $446 $392 $437 0 $403 $-1 #
edge $-1 $439 $464 $436 $469 0 #
coedge $-1 $405 $393 $446 $470 1 $357 $-1 #
vertex $-1 $437 $471 #
ellipse-curve $-1 -40.5031995824131 -29.9017071293032 78.5502541808061 -0.338957902765728 0.619721618476079 0.70785072984779 45.817816510659 -1.27169987070461e-15 21.9400932130104 1 #
point $-1 -60.6112740515992 -1.66643247271791e-12 42.7425280327365 #
straight-curve $-1 26.5221608564829 -20.0958275597563 79.7267457115975 0.267652560540998 0.784821709430491 -0.558942744154041 #
point $-1 26.839981376771 -19.1639013210518 79.0630364857293 #
face $-1 $60 $413 $3 $-1 $94 0 #
loop $-1 $-1 $410 $402 #
coedge $-1 $436 $468 $438 $470 0 $403 $-1 #
coedge $-1 $450 $449 $405 $448 0 $302 $-1 #
edge $-1 $459 $472 $447 $473 0 #
coedge $-1 $447 $406 $421 $458 0 $302 $-1 #
coedge $-1 $407 $447 $468 $474 1 $302 $-1 #
ellipse-curve $-1 -0.443857563908026 1.05775237133202 52.7406226150061 -0.259060076850447 0.617363390618699 0.742798977184288 5.56548775060424 -13.2630563147072 12.964370437477 0.740432979538385 #
coedge $-1 $410 $410 $412 $454 0 $445 $-1 #
straight-curve $-1 -1.44450650434492 -0.790075544642493 -71.7665432243371 0.877342744222771 0.479864261181907 0 #
edge $-1 $415 $414 $452 $313 0 #
point $-1 3.60156349188401e-13 1.84519066692701e-13 -71.7665432243371 #
point $-1 -5.77802601738004 -3.16030217857013 -71.7665432243371 #
point $-1 25.4 0 -71.7665432243371 #
edge $-1 $461 $459 $449 $475 0 #
vertex $-1 $458 $476 #
ellipse-curve $-1 -20.1080744691888 29.9017071292998 35.9588170762677 -0.338957902765728 0.619721618476079 0.70785072984779 45.817816510659 -1.27169987070461e-15 21.9400932130104 1 #
vertex $-1 $427 $477 #
intcurve-curve $-1 0 surfint nubs 3 open 3 
	39.507142368189 3 39.8165234826893 3 42.312962948639 3 
	13.4723811529523 -2.46067977719995 60.5183569008899 
	13.4843870998231 -2.36890485830177 60.5712380226012 
	13.4953706274866 -2.27718567579033 60.6247947888144 
	13.5053396632816 -2.18555346593079 60.6790128611985 
	13.5857812068335 -1.44616035392702 61.1165060672265 
	13.5997742026772 -0.712534647946648 61.5974590970025 
	13.554256775484 0 62.1118887672578 
	0.001 
	cone 0 0 0 0 0 1 19.05 0 0 1 -0.0881370038679512 0.996108361850848 0 
	cone -2.88901300868984 -1.58015108928497 -1.4210854715202e-14 -0.338957902765728 0.619721618476079 0.70785072984779 45.817816510659 -1.27169987070461e-15 21.9400932130104 1 -0 -1 0 
	nullbs 
	nullbs 
	#
point $-1 13.4723811529523 -2.46067977719995 60.5183569008899 #
vertex $-1 $430 $478 #
intcurve-curve $-1 0 surfint nubs 3 open 3 
	27.2897107886933 3 30.6168320708663 3 33.125869274462 3 
	6.87872451031179 -10.6758207699097 71.7665432243372 
	6.91946360216019 -10.769454975288 70.6275914227029 
	6.94781661560378 -10.874139423778 69.4595079335799 
	6.96165730294142 -10.989491984021 68.274487643137 
	6.97209479424645 -11.0764812581213 67.3808442368483 
	6.97429493574289 -11.1695169584178 66.4775629433594 
	6.967637981503 -11.2680643733877 65.5698414426207 
	0.001 
	cone -23.2841381219141 -61.383565347888 42.5914371045384 -0.338957902765728 0.619721618476079 0.70785072984779 45.817816510659 -1.27169987070461e-15 21.9400932130104 1 0 1 0 
	cone 0 0 0 0 0 1 19.05 0 0 1 -0.0881370038679512 0.996108361850848 0 
	nullbs 
	nullbs 
	#
point $-1 6.967637981503 -11.2680643733877 65.5698414426207 #
straight-curve $-1 -0.689305424897098 -18.5121017817636 68.9201357017026 0.93810574907778 -0.0222111418816482 0.345636035047753 #
coedge $-1 $446 $436 $450 $474 0 $403 $-1 #
ellipse-curve $-1 -37.254785274402 -35.840829822757 71.7665432243371 -0 -0 -1 34.438199241926 -62.963855975822 0 0.70785072984779 #
edge $-1 $472 $439 $446 $479 0 #
point $-1 -1.17683640610267e-13 -9.83657599817889e-14 71.7665432243371 #
vertex $-1 $474 $480 #
ellipse-curve $-1 -0.5423236541872 0.991538152580093 70.6387595215317 -0.338957902765728 0.619721618476079 0.70785072984779 6.14216072295868 -11.2298009667678 12.7728685811171 0.705086110386429 #
edge $-1 $464 $472 $468 $481 0 #
intcurve-curve $-1 0 surfint nubs 3 open 7 
	42.312962948639 3 42.9768205465647 3 46.1371176104402 3 49.2974146743156 3 51.1813950730269 3 
	53.0653754717382 3 53.3140693789303 3 
	13.554256775484 0 62.1118887672578 
	13.5421527007438 0.189478473752931 62.2486868149795 
	13.5258661897699 0.377482223359232 62.3878312869145 
	13.5055810627192 0.563759471854057 62.5290887219596 
	13.4090136246741 1.45053314639569 63.2015453732329 
	13.2210029969204 2.29878718656776 63.9234994112114 
	12.9660335867013 3.08643971723277 64.6653752608059 
	12.7110641764822 3.87409224789779 65.4072511104005 
	12.3892325374659 4.60127861593 66.1689382503451 
	12.0321633158366 5.25411341969337 66.9146111114118 
	11.8192999675703 5.64329454698222 67.3591367448273 
	11.578288067164 6.03442984427488 67.8303980704249 
	11.3128626998726 6.41523069572684 68.31687199067 
	11.0474373325812 6.79603154717881 68.8033459109151 
	10.7576185790859 7.16652196301393 69.3050245871107 
	10.4500552341483 7.51762838504377 69.8094578752956 
	10.4094554858632 7.56397601583366 69.876045343744 
	10.3685490448648 7.60999175789312 69.942681931737 
	10.3273545150075 7.65565875075005 70.0093382776703 
	0.001 
	cone 0 0 0 0 0 1 19.05 0 0 1 -0.0881370038679512 0.996108361850848 0 
	cone -2.88901300868984 -1.58015108928497 -1.4210854715202e-14 -0.338957902765728 0.619721618476079 0.70785072984779 45.817816510659 -1.27169987070461e-15 21.9400932130104 1 -0 -1 0 
	nullbs 
	nullbs 
	#
point $-1 10.3273545150075 7.65565875075005 70.0093382776703 #
point $-1 13.554256775484 0 62.1118887672578 #
point $-1 6.87872451031179 -10.6758207699097 71.7665432243372 #
straight-curve $-1 -21.8826602976274 -11.9687621349375 71.7665432243371 0.877342744222771 0.479864261181907 -0 #
point $-1 -11.1422528516292 -6.09427611701023 71.7665432243371 #
ellipse-curve $-1 0 0 71.7665432243371 0 0 1 12.7 0 0 1 #

