600 0 1 0           
23 ACIS/3D Toolkit - 6.0.3 18 ACIS 6.0.3 Solaris 24 Wed Aug 29 11:46:44 2001 
1 9.999999999999999547e-07 1.000000000000000036e-10 
body $1 $2 $-1 $3 #
named_attribute-st-attrib $-1 $4 $-1 $0 1 6 #
lump $-1 $-1 $5 $0 #
transform $-1 1 0 0 0 1 0 0 0 1 2.5 5 3 1 no_rotate no_reflect no_shear #
named_attribute-st-attrib $-1 $6 $1 $0 1 5 #
shell $-1 $-1 $-1 $7 $-1 $2 #
named_attribute-st-attrib $-1 $-1 $4 $0 2 10 #
face $-1 $8 $9 $5 $-1 $10 reversed single #
face $-1 $11 $12 $5 $-1 $13 reversed single #
loop $-1 $14 $15 $7 #
cone-surface $-1 2.25 0 0 1 0 0 0 0 -2 1 I I 0 1 2 forward I I I I #
face $-1 $16 $17 $5 $-1 $18 reversed single #
loop $-1 $19 $20 $8 #
plane-surface $-1 2 0 0 -1 0 0 0 0 1 forward_v I I I I #
loop $-1 $-1 $21 $7 #
coedge $-1 $15 $15 $22 $23 forward $9 $-1 #
face $-1 $24 $25 $5 $-1 $26 reversed single #
loop $-1 $27 $28 $11 #
cone-surface $-1 -2.25 0 0 1 0 0 0 0 -2 1 I I 0 1 2 forward I I I I #
loop $-1 $-1 $22 $8 #
coedge $-1 $20 $20 $29 $30 forward $12 $-1 #
coedge $-1 $21 $21 $31 $32 reversed $14 $-1 #
coedge $-1 $22 $22 $15 $23 reversed $19 $-1 #
edge $-1 $33 0 $33 6.283185307179586232 $22 $34 forward 7 unknown #
face $-1 $35 $36 $5 $-1 $37 reversed single #
loop $-1 $38 $39 $16 #
plane-surface $-1 -2 0 0 1 0 0 0 0 -1 forward_v I I I I #
loop $-1 $-1 $40 $11 #
coedge $-1 $28 $28 $41 $42 reversed $17 $-1 #
coedge $-1 $29 $29 $20 $30 reversed $43 $-1 #
edge $-1 $44 0 $44 6.283185307179586232 $20 $45 forward 7 unknown #
coedge $-1 $31 $31 $21 $32 forward $36 $-1 #
edge $-1 $46 0 $46 6.283185307179586232 $31 $47 forward 7 unknown #
vertex $-1 $23 $48 #
ellipse-curve $-1 2 0 0 -1 0 0 0 0 -2 1 I I #
face $-1 $49 $50 $5 $-1 $51 reversed single #
loop $-1 $52 $31 $24 #
plane-surface $-1 2.5 0 0 -1 0 0 0 -0 1 forward_v I I I I #
loop $-1 $-1 $53 $16 #
coedge $-1 $39 $39 $54 $55 forward $25 $-1 #
coedge $-1 $40 $40 $53 $56 forward $27 $-1 #
coedge $-1 $41 $41 $28 $42 forward $57 $-1 #
edge $-1 $58 0 $58 6.283185307179586232 $41 $59 forward 7 unknown #
loop $-1 $60 $29 $61 #
vertex $-1 $30 $62 #
ellipse-curve $-1 2 0 0 -1 0 0 0 0 -1.5 1 I I #
vertex $-1 $32 $63 #
ellipse-curve $-1 2.5 0 0 -1 0 0 0 0 -2 1 I I #
point $-1 2 0 -2 #
face $-1 $64 $57 $5 $-1 $65 reversed single #
loop $-1 $-1 $66 $35 #
plane-surface $-1 0 5 0 0 -1 0 0 0 -1 forward_v I I I I #
loop $-1 $-1 $67 $24 #
coedge $-1 $53 $53 $40 $56 reversed $38 $-1 #
coedge $-1 $54 $54 $39 $55 reversed $60 $-1 #
edge $-1 $68 0 $68 6.283185307179586232 $39 $69 forward 7 unknown #
edge $-1 $70 0 $70 6.283185307179586232 $53 $71 forward 7 unknown #
loop $-1 $72 $41 $49 #
vertex $-1 $42 $73 #
ellipse-curve $-1 -2.5 0 0 1 0 0 0 0 -2 1 I I #
loop $-1 $-1 $54 $61 #
face $-1 $-1 $43 $5 $-1 $74 reversed single #
point $-1 2 0 -1.5 #
point $-1 2.5 0 -2 #
face $-1 $75 $76 $5 $-1 $77 reversed single #
plane-surface $-1 -2.5 0 0 1 0 0 0 0 -1 forward_v I I I I #
coedge $-1 $78 $79 $80 $81 forward $50 $-1 #
coedge $-1 $82 $83 $84 $85 forward $52 $-1 #
vertex $-1 $55 $86 #
ellipse-curve $-1 -2 0 0 1 0 0 0 0 -1.5 1 I I #
vertex $-1 $56 $87 #
ellipse-curve $-1 -2 0 0 1 0 0 0 0 -2 1 I I #
loop $-1 $-1 $88 $49 #
point $-1 -2.5 0 -2 #
cone-surface $-1 0.25 0 0 1 0 0 0 0 -1.5 1 I I 0 1 1.5 forward I I I I #
face $-1 $89 $90 $5 $-1 $91 reversed single #
loop $-1 $-1 $92 $64 #
plane-surface $-1 0 -5 0 0 1 -0 -0 0 1 forward_v I I I I #
coedge $-1 $93 $66 $94 $95 reversed $50 $-1 #
coedge $-1 $66 $93 $96 $97 reversed $50 $-1 #
coedge $-1 $83 $82 $66 $81 reversed $52 $-1 #
edge $-1 $98 -3 $99 3 $80 $100 forward 7 unknown #
coedge $-1 $80 $67 $101 $102 reversed $52 $-1 #
coedge $-1 $67 $80 $103 $104 reversed $52 $-1 #
coedge $-1 $105 $106 $67 $85 reversed $76 $-1 #
edge $-1 $107 -3 $108 3 $67 $109 forward 7 unknown #
point $-1 -2 0 -1.5 #
point $-1 -2 0 -2 #
coedge $-1 $110 $111 $93 $112 forward $72 $-1 #
face $-1 $113 $114 $5 $-1 $115 forward single #
loop $-1 $116 $117 $75 #
plane-surface $-1 0 0 -3 0 0 1 1 0 0 forward_v I I I I #
coedge $-1 $106 $105 $118 $119 forward $76 $-1 #
coedge $-1 $79 $78 $88 $112 reversed $50 $-1 #
coedge $-1 $101 $120 $78 $95 forward $116 $-1 #
edge $-1 $121 -2.5 $99 2.5 $78 $122 forward 7 unknown #
coedge $-1 $123 $103 $79 $97 forward $124 $-1 #
edge $-1 $98 -2.5 $125 2.5 $79 $126 forward 7 unknown #
vertex $-1 $104 $127 #
vertex $-1 $102 $128 #
straight-curve $-1 2.5 5 0 0 0 -1 I I #
coedge $-1 $129 $94 $82 $102 forward $116 $-1 #
edge $-1 $99 -5 $108 5 $82 $130 forward 7 unknown #
coedge $-1 $96 $131 $83 $104 forward $124 $-1 #
edge $-1 $107 -5 $98 5 $83 $132 forward 7 unknown #
coedge $-1 $92 $84 $131 $133 reversed $76 $-1 #
coedge $-1 $84 $92 $129 $134 reversed $76 $-1 #
vertex $-1 $104 $135 #
vertex $-1 $85 $136 #
straight-curve $-1 2.5 -5 0 0 0 -1 I I #
coedge $-1 $118 $88 $120 $137 reversed $72 $-1 #
coedge $-1 $88 $118 $123 $138 reversed $72 $-1 #
edge $-1 $125 -3 $121 3 $93 $139 forward 7 unknown #
face $-1 $140 $141 $5 $-1 $142 forward single #
loop $-1 $-1 $143 $89 #
plane-surface $-1 0 0 3 0 0 1 1 0 0 forward_v I I I I #
loop $-1 $-1 $101 $75 #
coedge $-1 $144 $145 $146 $147 forward $90 $-1 #
coedge $-1 $111 $110 $92 $119 reversed $72 $-1 #
edge $-1 $148 -3 $149 3 $118 $150 forward 7 unknown #
coedge $-1 $94 $129 $110 $137 forward $116 $-1 #
vertex $-1 $95 $151 #
straight-curve $-1 0 5 -3 1 0 0 I I #
coedge $-1 $131 $96 $111 $138 forward $124 $-1 #
loop $-1 $152 $103 $153 #
vertex $-1 $97 $154 #
straight-curve $-1 0 5 3 -1 0 0 I I #
point $-1 2.5 5 3 #
point $-1 2.5 5 -3 #
coedge $-1 $120 $101 $106 $134 forward $116 $-1 #
straight-curve $-1 2.5 0 -3 0 -1 0 I I #
coedge $-1 $103 $123 $105 $133 forward $124 $-1 #
straight-curve $-1 2.5 0 3 0 1 0 I I #
edge $-1 $148 -2.5 $107 2.5 $105 $155 forward 7 unknown #
edge $-1 $108 -2.5 $149 2.5 $106 $156 forward 7 unknown #
point $-1 2.5 -5 3 #
point $-1 2.5 -5 -3 #
edge $-1 $149 -5 $121 5 $110 $157 forward 7 unknown #
edge $-1 $125 -5 $148 5 $111 $158 forward 7 unknown #
straight-curve $-1 -2.5 5 0 0 0 -1 I I #
face $-1 $159 $160 $5 $-1 $161 forward single #
loop $-1 $-1 $162 $113 #
plane-surface $-1 0 4 -0.5 0 -1 0 0 0 -1 forward_v I I I I #
coedge $-1 $143 $143 $163 $164 forward $114 $-1 #
coedge $-1 $165 $117 $166 $167 forward $90 $-1 #
coedge $-1 $117 $165 $168 $169 forward $90 $-1 #
coedge $-1 $170 $171 $117 $147 reversed $160 $-1 #
edge $-1 $172 -1.5 $173 1.5 $117 $174 forward 7 unknown #
vertex $-1 $138 $175 #
vertex $-1 $137 $176 #
straight-curve $-1 -2.5 -5 0 0 0 -1 I I #
point $-1 -2.5 5 -3 #
loop $-1 $-1 $177 $153 #
face $-1 $178 $179 $5 $-1 $115 forward single #
point $-1 -2.5 5 3 #
straight-curve $-1 0 -5 3 1 0 0 I I #
straight-curve $-1 0 -5 -3 -1 0 0 I I #
straight-curve $-1 -2.5 0 -3 0 1 0 I I #
straight-curve $-1 -2.5 0 3 0 -1 0 I I #
face $-1 $180 $181 $5 $-1 $182 reversed single #
loop $-1 $-1 $170 $140 #
plane-surface $-1 0 -4 -0.5 0 1 0 0 0 1 forward_v I I I I #
coedge $-1 $183 $184 $185 $186 reversed $141 $-1 #
coedge $-1 $163 $163 $143 $164 reversed $187 $-1 #
edge $-1 $188 0 $188 6.283185307179586232 $143 $189 forward 7 unknown #
coedge $-1 $145 $144 $184 $190 forward $90 $-1 #
coedge $-1 $191 $185 $144 $167 reversed $192 $-1 #
edge $-1 $173 -4 $193 4 $144 $194 forward 7 unknown #
coedge $-1 $195 $196 $145 $169 reversed $197 $-1 #
edge $-1 $198 -4 $172 4 $145 $199 forward 7 unknown #
coedge $-1 $200 $146 $196 $201 reversed $160 $-1 #
coedge $-1 $146 $200 $191 $202 forward $160 $-1 #
vertex $-1 $147 $203 #
vertex $-1 $147 $204 #
straight-curve $-1 0 -4 -3 1 0 0 I I #
point $-1 -2.5 -5 3 #
point $-1 -2.5 -5 -3 #
coedge $-1 $177 $177 $205 $206 forward $152 $-1 #
face $-1 $207 $208 $5 $-1 $209 forward single #
loop $-1 $124 $210 $153 #
face $-1 $211 $212 $5 $-1 $115 forward single #
loop $-1 $-1 $213 $159 #
plane-surface $-1 0 0 2 0 0 1 1 0 0 forward_v I I I I #
coedge $-1 $214 $162 $215 $216 forward $141 $-1 #
coedge $-1 $162 $214 $165 $190 reversed $141 $-1 #
coedge $-1 $166 $217 $162 $186 forward $192 $-1 #
edge $-1 $218 -2.5 $193 2.5 $185 $219 forward 7 unknown #
loop $-1 $220 $163 $221 #
vertex $-1 $164 $222 #
ellipse-curve $-1 0 2.5 3 0 0 1 1 0 0 1 I I #
edge $-1 $193 -1.5 $198 1.5 $165 $223 forward 7 unknown #
coedge $-1 $224 $166 $171 $202 reversed $192 $-1 #
loop $-1 $-1 $191 $225 #
vertex $-1 $190 $226 #
straight-curve $-1 1.5 0 -3 0 1 -0 I I #
coedge $-1 $227 $168 $214 $228 reversed $197 $-1 #
coedge $-1 $168 $229 $170 $201 forward $197 $-1 #
loop $-1 $-1 $195 $230 #
vertex $-1 $169 $231 #
straight-curve $-1 -1.5 0 -3 0 -1 0 I I #
coedge $-1 $171 $170 $232 $233 forward $160 $-1 #
edge $-1 $234 -2.5 $172 2.5 $196 $235 forward 7 unknown #
edge $-1 $236 -2.5 $173 2.5 $191 $237 forward 7 unknown #
point $-1 -1.5 -4 -3 #
point $-1 1.5 -4 -3 #
coedge $-1 $205 $205 $177 $206 reversed $238 $-1 #
edge $-1 $239 0 $239 6.283185307179586232 $177 $240 forward 7 unknown #
face $-1 $241 $238 $5 $-1 $242 forward single #
loop $-1 $243 $244 $178 #
plane-surface $-1 0 -2.5 4 0 0 1 1 0 0 forward_v I I I I #
coedge $-1 $210 $210 $245 $246 forward $179 $-1 #
face $-1 $247 $248 $5 $-1 $249 forward single #
loop $-1 $-1 $250 $180 #
coedge $-1 $251 $252 $253 $254 forward $181 $-1 #
coedge $-1 $184 $183 $195 $228 forward $141 $-1 #
coedge $-1 $255 $256 $183 $216 reversed $257 $-1 #
edge $-1 $218 -1.5 $258 1.5 $183 $259 forward 7 unknown #
coedge $-1 $185 $260 $255 $261 forward $192 $-1 #
vertex $-1 $261 $262 #
straight-curve $-1 1.5 4 -0.5 0 0 -1 I I #
loop $-1 $-1 $263 $221 #
face $-1 $153 $187 $5 $-1 $264 reversed single #
point $-1 1 2.5 3 #
straight-curve $-1 0 4 -3 -1 0 0 I I #
coedge $-1 $260 $191 $251 $265 forward $192 $-1 #
face $-1 $230 $192 $5 $-1 $266 forward single #
point $-1 1.5 4 -3 #
coedge $-1 $267 $195 $256 $268 forward $197 $-1 #
edge $-1 $258 -2.5 $198 2.5 $214 $269 forward 7 unknown #
coedge $-1 $196 $267 $252 $270 forward $197 $-1 #
face $-1 $271 $197 $5 $-1 $272 forward single #
point $-1 -1.5 4 -3 #
coedge $-1 $252 $251 $200 $233 reversed $181 $-1 #
edge $-1 $234 -1.5 $236 1.5 $200 $273 forward 7 unknown #
vertex $-1 $270 $274 #
straight-curve $-1 -1.5 -4 -0.5 0 0 -1 I I #
vertex $-1 $265 $275 #
straight-curve $-1 1.5 -4 -0.5 0 0 -1 I I #
loop $-1 $276 $205 $207 #
vertex $-1 $206 $277 #
ellipse-curve $-1 0 -2.5 3 -0 -0 -1 1.5 0 0 1 I I #
face $-1 $225 $278 $5 $-1 $279 reversed single #
cone-surface $-1 0 -2.5 3.5 0 0 1 1.5 0 0 1 I I 0 1 1.5 forward I I I I #
loop $-1 $-1 $280 $178 #
coedge $-1 $244 $244 $281 $282 forward $208 $-1 #
coedge $-1 $245 $245 $210 $246 reversed $283 $-1 #
edge $-1 $284 0 $284 6.283185307179586232 $210 $285 forward 7 unknown #
face $-1 $221 $283 $5 $-1 $286 forward single #
loop $-1 $287 $288 $211 #
plane-surface $-1 0 2.5 4 0 0 1 1 0 0 forward_v I I I I #
coedge $-1 $250 $250 $289 $290 forward $212 $-1 #
coedge $-1 $232 $213 $224 $265 reversed $181 $-1 #
coedge $-1 $213 $232 $229 $270 reversed $181 $-1 #
coedge $-1 $291 $292 $293 $254 reversed $294 $-1 #
edge $-1 $295 -1.5 $296 1.5 $213 $297 forward 7 unknown #
coedge $-1 $298 $215 $217 $261 reversed $257 $-1 #
coedge $-1 $215 $298 $227 $268 reversed $257 $-1 #
loop $-1 $-1 $298 $271 #
vertex $-1 $216 $299 #
straight-curve $-1 0 4 2 -1 0 0 I I #
coedge $-1 $217 $224 $292 $300 forward $192 $-1 #
edge $-1 $296 0 $218 4 $217 $301 forward 7 unknown #
point $-1 1.5 4 2 #
coedge $-1 $263 $263 $288 $302 reversed $220 $-1 #
cone-surface $-1 0 2.5 3.5 0 0 1 1 0 0 1 I I 0 1 1 forward I I I I #
edge $-1 $236 -4 $296 0 $224 $301 forward 7 unknown #
plane-surface $-1 1.5 0 -0.5 -1 0 0 0 0 1 forward_v I I I I #
coedge $-1 $229 $227 $291 $303 forward $197 $-1 #
edge $-1 $258 -4 $295 0 $227 $304 forward 7 unknown #
straight-curve $-1 -1.5 4 -0.5 0 0 -1 I I #
edge $-1 $295 0 $234 4 $229 $304 forward 7 unknown #
face $-1 $305 $257 $5 $-1 $182 reversed single #
plane-surface $-1 -1.5 0 -0.5 1 0 0 0 0 -1 forward_v I I I I #
straight-curve $-1 0 -4 2 1 0 0 I I #
point $-1 -1.5 -4 2 #
point $-1 1.5 -4 2 #
loop $-1 $-1 $306 $207 #
point $-1 1.5 -2.5 3 #
loop $-1 $307 $289 $241 #
cone-surface $-1 0 -2.5 3.5 0 0 1 1 0 0 1 I I 0 1 1 forward I I I I #
coedge $-1 $280 $280 $306 $308 forward $243 $-1 #
coedge $-1 $281 $281 $244 $282 reversed $307 $-1 #
edge $-1 $309 0 $309 6.283185307179586232 $244 $310 forward 7 unknown #
loop $-1 $311 $245 $247 #
vertex $-1 $246 $312 #
ellipse-curve $-1 0 2.5 3 -0 -0 -1 1.5 0 0 1 I I #
cone-surface $-1 0 2.5 3.5 0 0 1 1.5 0 0 1 I I 0 1 1.5 forward I I I I #
loop $-1 $-1 $313 $211 #
coedge $-1 $288 $288 $263 $302 forward $248 $-1 #
coedge $-1 $289 $289 $250 $290 reversed $278 $-1 #
edge $-1 $314 0 $314 6.283185307179586232 $250 $315 forward 7 unknown #
coedge $-1 $293 $253 $267 $303 reversed $294 $-1 #
coedge $-1 $253 $293 $260 $300 reversed $294 $-1 #
coedge $-1 $292 $291 $298 $254 forward $294 $-1 #
loop $-1 $316 $293 $305 #
vertex $-1 $270 $317 #
vertex $-1 $261 $318 #
straight-curve $-1 0 0 2 1 0 0 I I #
coedge $-1 $256 $255 $213 $254 reversed $257 $-1 #
point $-1 -1.5 4 2 #
edge $-1 $296 -3.141592653589793116 $296 3.141592653589793116 $260 $319 forward 7 unknown #
straight-curve $-1 1.5 0 2 0 1 0 I I #
edge $-1 $320 0 $320 6.283185307179586232 $288 $321 forward 7 unknown #
edge $-1 $295 -3.141592653589793116 $295 3.141592653589793116 $267 $322 forward 7 unknown #
straight-curve $-1 -1.5 0 2 0 -1 0 I I #
face $-1 $323 $294 $5 $-1 $324 forward single #
coedge $-1 $306 $306 $280 $308 reversed $276 $-1 #
loop $-1 $-1 $281 $241 #
edge $-1 $325 0 $325 6.283185307179586232 $280 $326 forward 7 unknown #
vertex $-1 $282 $327 #
ellipse-curve $-1 0 -2.5 4 -0 -0 -1 1 0 0 1 I I #
loop $-1 $-1 $328 $247 #
point $-1 1.5 2.5 3 #
coedge $-1 $313 $313 $328 $329 forward $287 $-1 #
vertex $-1 $290 $330 #
ellipse-curve $-1 0 -2.5 3 0 0 1 1 0 0 1 I I #
loop $-1 $-1 $331 $305 #
point $-1 -1.5 0 2 #
point $-1 1.5 0 2 #
ellipse-curve $-1 1.5 0 0 1 -0 -0 0 0 -2 1 I I #
vertex $-1 $302 $332 #
ellipse-curve $-1 0 2.5 4 -0 -0 -1 1 0 0 1 I I #
ellipse-curve $-1 -1.5 0 0 -1 -0 -0 0 0 -2 1 I I #
face $-1 $333 $334 $5 $-1 $335 forward single #
cone-surface $-1 0 0 0 1 0 0 0 0 -2 1 I I 0 1 2 forward I I I I #
vertex $-1 $308 $336 #
ellipse-curve $-1 0 -2.5 4 0 0 1 1.5 0 0 1 I I #
point $-1 1 -2.5 4 #
coedge $-1 $328 $328 $313 $329 reversed $311 $-1 #
edge $-1 $337 0 $337 6.283185307179586232 $313 $338 forward 7 unknown #
point $-1 1 -2.5 3 #
coedge $-1 $339 $339 $340 $341 forward $316 $-1 #
point $-1 1 2.5 4 #
face $-1 $342 $343 $5 $-1 $344 forward single #
loop $-1 $-1 $345 $323 #
plane-surface $-1 0 0 -2 0 0 1 1 0 0 forward_v I I I I #
point $-1 1.5 -2.5 4 #
vertex $-1 $329 $346 #
ellipse-curve $-1 0 2.5 4 0 0 1 1.5 0 0 1 I I #
coedge $-1 $331 $331 $331 $341 reversed $316 $-1 #
coedge $-1 $347 $347 $345 $341 reversed $348 $-1 #
edge $-1 $349 -1 $350 1 $331 $351 forward 7 unknown #
face $-1 $352 $353 $5 $-1 $354 forward single #
loop $-1 $-1 $355 $333 #
plane-surface $-1 0 0 -3 0 0 -1 -1 0 0 forward_v I I I I #
coedge $-1 $356 $356 $339 $341 forward $334 $-1 #
point $-1 1.5 2.5 4 #
coedge $-1 $340 $340 $357 $358 forward $348 $-1 #
loop $-1 $-1 $340 $352 #
vertex $-1 $341 $359 #
vertex $-1 $341 $360 #
straight-curve $-1 0 0 -2 1 0 0 I I #
face $-1 $61 $348 $5 $-1 $335 forward single #
loop $-1 $361 $362 $342 #
cone-surface $-1 0 0 -2.5 0 0 1 1 0 0 1 I I 0 1 1 forward I I I I #
coedge $-1 $355 $355 $362 $363 forward $343 $-1 #
coedge $-1 $345 $345 $364 $365 forward $334 $-1 #
coedge $-1 $364 $364 $347 $358 reversed $361 $-1 #
edge $-1 $349 -3.141592653589793116 $350 0 $347 $366 forward 7 unknown #
point $-1 -1 0 -2 #
point $-1 1 0 -2 #
loop $-1 $-1 $364 $342 #
coedge $-1 $362 $362 $355 $363 reversed $353 $-1 #
edge $-1 $367 0 $367 6.283185307179586232 $355 $368 forward 7 unknown #
coedge $-1 $357 $357 $356 $365 reversed $361 $-1 #
edge $-1 $350 0 $349 3.141592653589793116 $356 $366 forward 7 unknown #
ellipse-curve $-1 0 0 -2 0 0 1 1 0 0 1 I I #
vertex $-1 $363 $369 #
ellipse-curve $-1 0 0 -3 0 0 -1 1 0 0 1 I I #
point $-1 1 0 -3 #
End-of-ACIS-data 