600 0 1 0           
70 GICL ACIS Healer - Source: /gicl/data5/repository/Lego2/lego.sat - 6 0 18 ACIS 6.0.3 Solaris 24 Sun Apr 14 00:06:32 2002 
1 9.999999999999999547e-07 1.000000000000000036e-10 
body $1 $2 $-1 $-1 #
named_attribute-st-attrib $-1 $3 $-1 $0 1 6 #
lump $-1 $-1 $4 $0 #
named_attribute-st-attrib $-1 $5 $1 $0 1 5 #
shell $-1 $-1 $-1 $6 $-1 $2 #
named_attribute-st-attrib $-1 $-1 $3 $0 2 10 #
face $-1 $7 $8 $4 $-1 $9 reversed single #
face $-1 $10 $11 $4 $-1 $12 reversed single #
loop $-1 $13 $14 $6 #
cone-surface $-1 4.75 5 3 1 0 0 0 0 -2 1 I I 0 1 2 forward I I I I #
face $-1 $15 $16 $4 $-1 $17 reversed single #
loop $-1 $18 $19 $7 #
plane-surface $-1 4.5 5 3 -1 0 0 0 0 1 forward_v I I I I #
loop $-1 $-1 $20 $6 #
coedge $-1 $14 $14 $21 $22 forward $8 $-1 #
face $-1 $23 $24 $4 $-1 $25 reversed single #
loop $-1 $26 $27 $10 #
cone-surface $-1 0.25 5 3 1 0 0 0 0 -2 1 I I 0 1 2 forward I I I I #
loop $-1 $-1 $21 $7 #
coedge $-1 $19 $19 $28 $29 forward $11 $-1 #
coedge $-1 $20 $20 $30 $31 reversed $13 $-1 #
coedge $-1 $21 $21 $14 $22 reversed $18 $-1 #
edge $-1 $32 0 $32 6.283185307179586232 $21 $33 forward 7 unknown #
face $-1 $34 $35 $4 $-1 $36 reversed single #
loop $-1 $37 $38 $15 #
plane-surface $-1 0.5 5 3 1 0 0 0 0 -1 forward_v I I I I #
loop $-1 $-1 $39 $10 #
coedge $-1 $27 $27 $40 $41 reversed $16 $-1 #
coedge $-1 $28 $28 $19 $29 reversed $42 $-1 #
edge $-1 $43 0 $43 6.283185307179586232 $19 $44 forward 7 unknown #
coedge $-1 $30 $30 $20 $31 forward $35 $-1 #
edge $-1 $45 0 $45 6.283185307179586232 $30 $46 forward 7 unknown #
vertex $-1 $22 $47 #
ellipse-curve $-1 4.5 5 3 -1 0 0 0 0 -2 1 I I #
face $-1 $48 $49 $4 $-1 $50 reversed single #
loop $-1 $51 $30 $23 #
plane-surface $-1 5 5 3 -1 0 0 0 0 1 forward_v I I I I #
loop $-1 $-1 $52 $15 #
coedge $-1 $38 $38 $53 $54 forward $24 $-1 #
coedge $-1 $39 $39 $52 $55 forward $26 $-1 #
coedge $-1 $40 $40 $27 $41 forward $56 $-1 #
edge $-1 $57 0 $57 6.283185307179586232 $40 $58 forward 7 unknown #
loop $-1 $59 $28 $60 #
vertex $-1 $29 $61 #
ellipse-curve $-1 4.5 5 3 -1 0 0 0 0 -1.5 1 I I #
vertex $-1 $31 $62 #
ellipse-curve $-1 5 5 3 -1 0 0 0 0 -2 1 I I #
point $-1 4.5 5 1 #
face $-1 $63 $56 $4 $-1 $64 reversed single #
loop $-1 $-1 $65 $34 #
plane-surface $-1 2.5 10 3 0 -1 0 0 0 -1 forward_v I I I I #
loop $-1 $-1 $66 $23 #
coedge $-1 $52 $52 $39 $55 reversed $37 $-1 #
coedge $-1 $53 $53 $38 $54 reversed $59 $-1 #
edge $-1 $67 0 $67 6.283185307179586232 $38 $68 forward 7 unknown #
edge $-1 $69 0 $69 6.283185307179586232 $52 $70 forward 7 unknown #
loop $-1 $71 $40 $48 #
vertex $-1 $41 $72 #
ellipse-curve $-1 0 5 3 1 0 0 0 0 -2 1 I I #
loop $-1 $-1 $53 $60 #
face $-1 $-1 $42 $4 $-1 $73 reversed single #
point $-1 4.5 5 1.5 #
point $-1 5 5 1 #
face $-1 $74 $75 $4 $-1 $76 reversed single #
plane-surface $-1 0 5 3 1 0 0 0 0 -1 forward_v I I I I #
coedge $-1 $77 $78 $79 $80 forward $49 $-1 #
coedge $-1 $81 $82 $83 $84 forward $51 $-1 #
vertex $-1 $54 $85 #
ellipse-curve $-1 0.5 5 3 1 0 0 0 0 -1.5 1 I I #
vertex $-1 $55 $86 #
ellipse-curve $-1 0.5 5 3 1 0 0 0 0 -2 1 I I #
loop $-1 $-1 $87 $48 #
point $-1 0 5 1 #
cone-surface $-1 2.75 5 3 1 0 0 0 0 -1.5 1 I I 0 1 1.5 forward I I I I #
face $-1 $88 $89 $4 $-1 $90 reversed single #
loop $-1 $-1 $91 $63 #
plane-surface $-1 2.5 0 3 0 1 0 0 0 1 forward_v I I I I #
coedge $-1 $92 $65 $93 $94 reversed $49 $-1 #
coedge $-1 $65 $92 $95 $96 reversed $49 $-1 #
coedge $-1 $82 $81 $65 $80 reversed $51 $-1 #
edge $-1 $97 -3 $98 3 $79 $99 forward 7 unknown #
coedge $-1 $79 $66 $100 $101 reversed $51 $-1 #
coedge $-1 $66 $79 $102 $103 reversed $51 $-1 #
coedge $-1 $104 $105 $66 $84 reversed $75 $-1 #
edge $-1 $106 -3 $107 3 $66 $108 forward 7 unknown #
point $-1 0.5 5 1.5 #
point $-1 0.5 5 1 #
coedge $-1 $109 $110 $92 $111 forward $71 $-1 #
face $-1 $112 $113 $4 $-1 $114 forward single #
loop $-1 $115 $116 $74 #
plane-surface $-1 2.5 5 0 0 0 1 1 0 0 forward_v I I I I #
coedge $-1 $105 $104 $117 $118 forward $75 $-1 #
coedge $-1 $78 $77 $87 $111 reversed $49 $-1 #
coedge $-1 $100 $119 $77 $94 forward $115 $-1 #
edge $-1 $120 -2.5 $98 2.5 $77 $121 forward 7 unknown #
coedge $-1 $122 $102 $78 $96 forward $123 $-1 #
edge $-1 $97 -2.5 $124 2.5 $78 $125 forward 7 unknown #
vertex $-1 $103 $126 #
vertex $-1 $101 $127 #
straight-curve $-1 5 10 3 0 0 -1 I I #
coedge $-1 $128 $93 $81 $101 forward $115 $-1 #
edge $-1 $98 -5 $107 5 $81 $129 forward 7 unknown #
coedge $-1 $95 $130 $82 $103 forward $123 $-1 #
edge $-1 $106 -5 $97 5 $82 $131 forward 7 unknown #
coedge $-1 $91 $83 $130 $132 reversed $75 $-1 #
coedge $-1 $83 $91 $128 $133 reversed $75 $-1 #
vertex $-1 $103 $134 #
vertex $-1 $84 $135 #
straight-curve $-1 5 0 3 0 0 -1 I I #
coedge $-1 $117 $87 $119 $136 reversed $71 $-1 #
coedge $-1 $87 $117 $122 $137 reversed $71 $-1 #
edge $-1 $124 -3 $120 3 $92 $138 forward 7 unknown #
face $-1 $139 $140 $4 $-1 $141 forward single #
loop $-1 $-1 $142 $88 #
plane-surface $-1 2.5 5 6 0 0 1 1 0 0 forward_v I I I I #
loop $-1 $-1 $100 $74 #
coedge $-1 $143 $144 $145 $146 forward $89 $-1 #
coedge $-1 $110 $109 $91 $118 reversed $71 $-1 #
edge $-1 $147 -3 $148 3 $117 $149 forward 7 unknown #
coedge $-1 $93 $128 $109 $136 forward $115 $-1 #
vertex $-1 $94 $150 #
straight-curve $-1 2.5 10 0 1 0 0 I I #
coedge $-1 $130 $95 $110 $137 forward $123 $-1 #
loop $-1 $151 $102 $152 #
vertex $-1 $96 $153 #
straight-curve $-1 2.5 10 6 -1 0 0 I I #
point $-1 5 10 6 #
point $-1 5 10 0 #
coedge $-1 $119 $100 $105 $133 forward $115 $-1 #
straight-curve $-1 5 5 0 0 -1 0 I I #
coedge $-1 $102 $122 $104 $132 forward $123 $-1 #
straight-curve $-1 5 5 6 0 1 0 I I #
edge $-1 $147 -2.5 $106 2.5 $104 $154 forward 7 unknown #
edge $-1 $107 -2.5 $148 2.5 $105 $155 forward 7 unknown #
point $-1 5 0 6 #
point $-1 5 0 0 #
edge $-1 $148 -5 $120 5 $109 $156 forward 7 unknown #
edge $-1 $124 -5 $147 5 $110 $157 forward 7 unknown #
straight-curve $-1 0 10 3 0 0 -1 I I #
face $-1 $158 $159 $4 $-1 $160 forward single #
loop $-1 $-1 $161 $112 #
plane-surface $-1 2.5 9 2.5 0 -1 0 0 0 -1 forward_v I I I I #
coedge $-1 $142 $142 $162 $163 forward $113 $-1 #
coedge $-1 $164 $116 $165 $166 forward $89 $-1 #
coedge $-1 $116 $164 $167 $168 forward $89 $-1 #
coedge $-1 $169 $170 $116 $146 reversed $159 $-1 #
edge $-1 $171 -1.5 $172 1.5 $116 $173 forward 7 unknown #
vertex $-1 $137 $174 #
vertex $-1 $136 $175 #
straight-curve $-1 0 0 3 0 0 -1 I I #
point $-1 0 10 0 #
loop $-1 $-1 $176 $152 #
face $-1 $177 $178 $4 $-1 $114 forward single #
point $-1 0 10 6 #
straight-curve $-1 2.5 0 6 1 0 0 I I #
straight-curve $-1 2.5 0 0 -1 0 0 I I #
straight-curve $-1 0 5 0 0 1 0 I I #
straight-curve $-1 0 5 6 0 -1 0 I I #
face $-1 $179 $180 $4 $-1 $181 reversed single #
loop $-1 $-1 $169 $139 #
plane-surface $-1 2.5 1 2.5 0 1 0 0 0 1 forward_v I I I I #
coedge $-1 $182 $183 $184 $185 reversed $140 $-1 #
coedge $-1 $162 $162 $142 $163 reversed $186 $-1 #
edge $-1 $187 0 $187 6.283185307179586232 $142 $188 forward 7 unknown #
coedge $-1 $144 $143 $183 $189 forward $89 $-1 #
coedge $-1 $190 $184 $143 $166 reversed $191 $-1 #
edge $-1 $172 -4 $192 4 $143 $193 forward 7 unknown #
coedge $-1 $194 $195 $144 $168 reversed $196 $-1 #
edge $-1 $197 -4 $171 4 $144 $198 forward 7 unknown #
coedge $-1 $199 $145 $195 $200 reversed $159 $-1 #
coedge $-1 $145 $199 $190 $201 forward $159 $-1 #
vertex $-1 $146 $202 #
vertex $-1 $146 $203 #
straight-curve $-1 2.5 1 0 1 0 0 I I #
point $-1 0 0 6 #
point $-1 0 0 0 #
coedge $-1 $176 $176 $204 $205 forward $151 $-1 #
face $-1 $206 $207 $4 $-1 $208 forward single #
loop $-1 $123 $209 $152 #
face $-1 $210 $211 $4 $-1 $114 forward single #
loop $-1 $-1 $212 $158 #
plane-surface $-1 2.5 5 5 0 0 1 1 0 0 forward_v I I I I #
coedge $-1 $213 $161 $214 $215 forward $140 $-1 #
coedge $-1 $161 $213 $164 $189 reversed $140 $-1 #
coedge $-1 $165 $216 $161 $185 forward $191 $-1 #
edge $-1 $217 -2.5 $192 2.5 $184 $218 forward 7 unknown #
loop $-1 $219 $162 $220 #
vertex $-1 $163 $221 #
ellipse-curve $-1 2.5 7.5 6 0 0 1 1 0 0 1 I I #
edge $-1 $192 -1.5 $197 1.5 $164 $222 forward 7 unknown #
coedge $-1 $223 $165 $170 $201 reversed $191 $-1 #
loop $-1 $-1 $190 $224 #
vertex $-1 $189 $225 #
straight-curve $-1 4 5 0 0 1 0 I I #
coedge $-1 $226 $167 $213 $227 reversed $196 $-1 #
coedge $-1 $167 $228 $169 $200 forward $196 $-1 #
loop $-1 $-1 $194 $229 #
vertex $-1 $168 $230 #
straight-curve $-1 1 5 0 0 -1 0 I I #
coedge $-1 $170 $169 $231 $232 forward $159 $-1 #
edge $-1 $233 -2.5 $171 2.5 $195 $234 forward 7 unknown #
edge $-1 $235 -2.5 $172 2.5 $190 $236 forward 7 unknown #
point $-1 1 1 0 #
point $-1 4 1 0 #
coedge $-1 $204 $204 $176 $205 reversed $237 $-1 #
edge $-1 $238 0 $238 6.283185307179586232 $176 $239 forward 7 unknown #
face $-1 $240 $237 $4 $-1 $241 forward single #
loop $-1 $242 $243 $177 #
plane-surface $-1 2.5 2.5 7 0 0 1 1 0 0 forward_v I I I I #
coedge $-1 $209 $209 $244 $245 forward $178 $-1 #
face $-1 $246 $247 $4 $-1 $248 forward single #
loop $-1 $-1 $249 $179 #
coedge $-1 $250 $251 $252 $253 forward $180 $-1 #
coedge $-1 $183 $182 $194 $227 forward $140 $-1 #
coedge $-1 $254 $255 $182 $215 reversed $256 $-1 #
edge $-1 $217 -1.5 $257 1.5 $182 $258 forward 7 unknown #
coedge $-1 $184 $259 $254 $260 forward $191 $-1 #
vertex $-1 $260 $261 #
straight-curve $-1 4 9 2.5 0 0 -1 I I #
loop $-1 $-1 $262 $220 #
face $-1 $152 $186 $4 $-1 $263 reversed single #
point $-1 3.5 7.5 6 #
straight-curve $-1 2.5 9 0 -1 0 0 I I #
coedge $-1 $259 $190 $250 $264 forward $191 $-1 #
face $-1 $229 $191 $4 $-1 $265 forward single #
point $-1 4 9 0 #
coedge $-1 $266 $194 $255 $267 forward $196 $-1 #
edge $-1 $257 -2.5 $197 2.5 $213 $268 forward 7 unknown #
coedge $-1 $195 $266 $251 $269 forward $196 $-1 #
face $-1 $270 $196 $4 $-1 $271 forward single #
point $-1 1 9 0 #
coedge $-1 $251 $250 $199 $232 reversed $180 $-1 #
edge $-1 $233 -1.5 $235 1.5 $199 $272 forward 7 unknown #
vertex $-1 $269 $273 #
straight-curve $-1 1 1 2.5 0 0 -1 I I #
vertex $-1 $264 $274 #
straight-curve $-1 4 1 2.5 0 0 -1 I I #
loop $-1 $275 $204 $206 #
vertex $-1 $205 $276 #
ellipse-curve $-1 2.5 2.5 6 -0 -0 -1 1.5 0 0 1 I I #
face $-1 $224 $277 $4 $-1 $278 reversed single #
cone-surface $-1 2.5 2.5 6.5 0 0 1 1.5 0 0 1 I I 0 1 1.5 forward I I I I #
loop $-1 $-1 $279 $177 #
coedge $-1 $243 $243 $280 $281 forward $207 $-1 #
coedge $-1 $244 $244 $209 $245 reversed $282 $-1 #
edge $-1 $283 0 $283 6.283185307179586232 $209 $284 forward 7 unknown #
face $-1 $220 $282 $4 $-1 $285 forward single #
loop $-1 $286 $287 $210 #
plane-surface $-1 2.5 7.5 7 0 0 1 1 0 0 forward_v I I I I #
coedge $-1 $249 $249 $288 $289 forward $211 $-1 #
coedge $-1 $231 $212 $223 $264 reversed $180 $-1 #
coedge $-1 $212 $231 $228 $269 reversed $180 $-1 #
coedge $-1 $290 $291 $292 $253 reversed $293 $-1 #
edge $-1 $294 -1.5 $295 1.5 $212 $296 forward 7 unknown #
coedge $-1 $297 $214 $216 $260 reversed $256 $-1 #
coedge $-1 $214 $297 $226 $267 reversed $256 $-1 #
loop $-1 $-1 $297 $270 #
vertex $-1 $215 $298 #
straight-curve $-1 2.5 9 5 -1 0 0 I I #
coedge $-1 $216 $223 $291 $299 forward $191 $-1 #
edge $-1 $295 0 $217 4 $216 $300 forward 7 unknown #
point $-1 4 9 5 #
coedge $-1 $262 $262 $287 $301 reversed $219 $-1 #
cone-surface $-1 2.5 7.5 6.5 0 0 1 1 0 0 1 I I 0 1 1 forward I I I I #
edge $-1 $235 -4 $295 0 $223 $300 forward 7 unknown #
plane-surface $-1 4 5 2.5 -1 0 0 0 0 1 forward_v I I I I #
coedge $-1 $228 $226 $290 $302 forward $196 $-1 #
edge $-1 $257 -4 $294 0 $226 $303 forward 7 unknown #
straight-curve $-1 1 9 2.5 0 0 -1 I I #
edge $-1 $294 0 $233 4 $228 $303 forward 7 unknown #
face $-1 $304 $256 $4 $-1 $181 reversed single #
plane-surface $-1 1 5 2.5 1 0 0 0 0 -1 forward_v I I I I #
straight-curve $-1 2.5 1 5 1 0 0 I I #
point $-1 1 1 5 #
point $-1 4 1 5 #
loop $-1 $-1 $305 $206 #
point $-1 4 2.5 6 #
loop $-1 $306 $288 $240 #
cone-surface $-1 2.5 2.5 6.5 0 0 1 1 0 0 1 I I 0 1 1 forward I I I I #
coedge $-1 $279 $279 $305 $307 forward $242 $-1 #
coedge $-1 $280 $280 $243 $281 reversed $306 $-1 #
edge $-1 $308 0 $308 6.283185307179586232 $243 $309 forward 7 unknown #
loop $-1 $310 $244 $246 #
vertex $-1 $245 $311 #
ellipse-curve $-1 2.5 7.5 6 -0 -0 -1 1.5 0 0 1 I I #
cone-surface $-1 2.5 7.5 6.5 0 0 1 1.5 0 0 1 I I 0 1 1.5 forward I I I I #
loop $-1 $-1 $312 $210 #
coedge $-1 $287 $287 $262 $301 forward $247 $-1 #
coedge $-1 $288 $288 $249 $289 reversed $277 $-1 #
edge $-1 $313 0 $313 6.283185307179586232 $249 $314 forward 7 unknown #
coedge $-1 $292 $252 $266 $302 reversed $293 $-1 #
coedge $-1 $252 $292 $259 $299 reversed $293 $-1 #
coedge $-1 $291 $290 $297 $253 forward $293 $-1 #
loop $-1 $315 $292 $304 #
vertex $-1 $269 $316 #
vertex $-1 $260 $317 #
straight-curve $-1 2.5 5 5 1 0 0 I I #
coedge $-1 $255 $254 $212 $253 reversed $256 $-1 #
point $-1 1 9 5 #
edge $-1 $295 -3.141592653589793116 $295 3.141592653589793116 $259 $318 forward 7 unknown #
straight-curve $-1 4 5 5 0 1 0 I I #
edge $-1 $319 0 $319 6.283185307179586232 $287 $320 forward 7 unknown #
edge $-1 $294 -3.141592653589793116 $294 3.141592653589793116 $266 $321 forward 7 unknown #
straight-curve $-1 1 5 5 0 -1 0 I I #
face $-1 $322 $293 $4 $-1 $323 forward single #
coedge $-1 $305 $305 $279 $307 reversed $275 $-1 #
loop $-1 $-1 $280 $240 #
edge $-1 $324 0 $324 6.283185307179586232 $279 $325 forward 7 unknown #
vertex $-1 $281 $326 #
ellipse-curve $-1 2.5 2.5 7 -0 -0 -1 1 0 0 1 I I #
loop $-1 $-1 $327 $246 #
point $-1 4 7.5 6 #
coedge $-1 $312 $312 $327 $328 forward $286 $-1 #
vertex $-1 $289 $329 #
ellipse-curve $-1 2.5 2.5 6 0 0 1 1 0 0 1 I I #
loop $-1 $-1 $330 $304 #
point $-1 1 5 5 #
point $-1 4 5 5 #
ellipse-curve $-1 4 5 3 1 0 0 0 0 -2 1 I I #
vertex $-1 $301 $331 #
ellipse-curve $-1 2.5 7.5 7 -0 -0 -1 1 0 0 1 I I #
ellipse-curve $-1 1 5 3 -1 -0 -0 0 0 -2 1 I I #
face $-1 $332 $333 $4 $-1 $334 forward single #
cone-surface $-1 2.5 5 3 1 0 0 0 0 -2 1 I I 0 1 2 forward I I I I #
vertex $-1 $307 $335 #
ellipse-curve $-1 2.5 2.5 7 0 0 1 1.5 0 0 1 I I #
point $-1 3.5 2.5 7 #
coedge $-1 $327 $327 $312 $328 reversed $310 $-1 #
edge $-1 $336 0 $336 6.283185307179586232 $312 $337 forward 7 unknown #
point $-1 3.5 2.5 6 #
coedge $-1 $338 $338 $339 $340 forward $315 $-1 #
point $-1 3.5 7.5 7 #
face $-1 $341 $342 $4 $-1 $343 forward single #
loop $-1 $-1 $344 $322 #
plane-surface $-1 2.5 5 1 0 0 1 1 0 0 forward_v I I I I #
point $-1 4 2.5 7 #
vertex $-1 $328 $345 #
ellipse-curve $-1 2.5 7.5 7 0 0 1 1.5 0 0 1 I I #
coedge $-1 $330 $330 $330 $340 reversed $315 $-1 #
coedge $-1 $346 $346 $344 $340 reversed $347 $-1 #
edge $-1 $348 -1 $349 1 $330 $350 forward 7 unknown #
face $-1 $351 $352 $4 $-1 $353 forward single #
loop $-1 $-1 $354 $332 #
plane-surface $-1 2.5 5 0 0 0 -1 -1 0 0 forward_v I I I I #
coedge $-1 $355 $355 $338 $340 forward $333 $-1 #
point $-1 4 7.5 7 #
coedge $-1 $339 $339 $356 $357 forward $347 $-1 #
loop $-1 $-1 $339 $351 #
vertex $-1 $340 $358 #
vertex $-1 $340 $359 #
straight-curve $-1 2.5 5 1 1 0 0 I I #
face $-1 $60 $347 $4 $-1 $334 forward single #
loop $-1 $360 $361 $341 #
cone-surface $-1 2.5 5 0.5 0 0 1 1 0 0 1 I I 0 1 1 forward I I I I #
coedge $-1 $354 $354 $361 $362 forward $342 $-1 #
coedge $-1 $344 $344 $363 $364 forward $333 $-1 #
coedge $-1 $363 $363 $346 $357 reversed $360 $-1 #
edge $-1 $348 -3.141592653589793116 $349 0 $346 $365 forward 7 unknown #
point $-1 1.5 5 1 #
point $-1 3.5 5 1 #
loop $-1 $-1 $363 $341 #
coedge $-1 $361 $361 $354 $362 reversed $352 $-1 #
edge $-1 $366 0 $366 6.283185307179586232 $354 $367 forward 7 unknown #
coedge $-1 $356 $356 $355 $364 reversed $360 $-1 #
edge $-1 $349 0 $348 3.141592653589793116 $355 $365 forward 7 unknown #
ellipse-curve $-1 2.5 5 1 0 0 1 1 0 0 1 I I #
vertex $-1 $362 $368 #
ellipse-curve $-1 2.5 5 0 0 0 -1 1 0 0 1 I I #
point $-1 3.5 5 0 #
End-of-ACIS-data 