105 124 1 0                             
body $-1 $1 $-1 $2 #
lump $-1 $-1 $3 $0 #
transform $-1 1 0 0 0 1 0 0 0 1 58 0 27 1 0 0 0 #
shell $-1 $-1 $-1 $4 $1 #
face $-1 $5 $6 $3 $-1 $7 reversed single #
face $-1 $8 $9 $3 $-1 $10 reversed single #
loop $-1 $-1 $11 $4 #
plane-surface $-1 0 0 -9 0 0 1 1 0 0 0 #
face $-1 $12 $13 $3 $-1 $14 forward single #
loop $-1 $-1 $15 $5 #
plane-surface $-1 15 0 0 -1 0 0 0 -0 1 0 #
coedge $-1 $16 $17 $18 $19 1 $6 $-1 #
face $-1 $20 $21 $3 $-1 $22 reversed single #
loop $-1 $-1 $23 $8 #
cone-surface $-1 3.5 48 0 -1 0 0 0 6.36396103067893 6.36396103067893 1 0 1 0 #
coedge $-1 $24 $25 $26 $27 1 $9 $-1 #
coedge $-1 $28 $11 $25 $29 0 $6 $-1 #
coedge $-1 $11 $28 $30 $31 1 $6 $-1 #
coedge $-1 $32 $26 $11 $19 0 $13 $-1 #
edge $-1 $33 $34 $11 $35 0 #
face $-1 $36 $37 $3 $-1 $38 forward single #
loop $-1 $-1 $39 $12 #
plane-surface $-1 -15 0 0 1 0 0 0 0 -1 0 #
coedge $-1 $26 $40 $41 $42 0 $13 $-1 #
coedge $-1 $43 $15 $44 $45 1 $9 $-1 #
coedge $-1 $15 $43 $16 $29 1 $9 $-1 #
coedge $-1 $18 $23 $15 $27 0 $13 $-1 #
edge $-1 $46 $33 $15 $47 0 #
coedge $-1 $17 $16 $48 $49 1 $6 $-1 #
edge $-1 $33 $50 $25 $51 0 #
coedge $-1 $52 $53 $17 $31 0 $37 $-1 #
edge $-1 $34 $54 $17 $55 0 #
coedge $-1 $56 $18 $53 $57 0 $13 $-1 #
vertex $-1 $27 $58 #
vertex $-1 $57 $59 #
straight-curve $-1 0 48 -9 -1 -0 -0 #
face $-1 $60 $61 $3 $-1 $62 forward single #
loop $-1 $-1 $53 $20 #
plane-surface $-1 -11.5 0 -5.5 -0.707106781186548 0 -0.707106781186548 -0.707106781186548 0 0.707106781186548 0 #
coedge $-1 $63 $64 $56 $65 1 $21 $-1 #
coedge $-1 $23 $56 $66 $67 0 $13 $-1 #
coedge $-1 $68 $44 $23 $42 1 $69 $-1 #
edge $-1 $70 $46 $41 $71 0 #
coedge $-1 $25 $24 $72 $73 1 $9 $-1 #
coedge $-1 $41 $74 $24 $45 0 $69 $-1 #
edge $-1 $75 $46 $24 $76 0 #
vertex $-1 $45 $77 #
ellipse-curve $-1 15 48 0 -1 0 0 0 6.36396103067893 6.36396103067893 1 #
coedge $-1 $72 $78 $28 $49 0 $61 $-1 #
edge $-1 $54 $50 $28 $79 0 #
vertex $-1 $29 $80 #
straight-curve $-1 15 0 -9 0 -1 0 #
coedge $-1 $81 $30 $78 $82 1 $37 $-1 #
coedge $-1 $30 $81 $32 $57 1 $37 $-1 #
vertex $-1 $31 $83 #
straight-curve $-1 -8 0 -9 -0 -1 -0 #
coedge $-1 $40 $32 $39 $65 0 $13 $-1 #
edge $-1 $34 $84 $53 $85 0 #
point $-1 15 48 -9 #
point $-1 -8 48 -9 #
face $-1 $86 $69 $3 $-1 $87 forward single #
loop $-1 $-1 $88 $36 #
cone-surface $-1 3.5 -48 0 1 0 0 0 -6.36396103067893 6.36396103067893 1 0 1 0 #
coedge $-1 $89 $39 $81 $90 1 $21 $-1 #
coedge $-1 $39 $89 $91 $92 1 $21 $-1 #
edge $-1 $84 $93 $39 $94 0 #
coedge $-1 $91 $95 $40 $67 1 $96 $-1 #
edge $-1 $93 $70 $66 $97 0 #
coedge $-1 $74 $41 $95 $98 1 $69 $-1 #
loop $-1 $-1 $41 $60 #
vertex $-1 $98 $99 #
straight-curve $-1 0 48 9 1 0 0 #
coedge $-1 $88 $48 $43 $73 0 $61 $-1 #
edge $-1 $50 $75 $43 $100 0 #
coedge $-1 $44 $68 $88 $101 1 $69 $-1 #
vertex $-1 $73 $102 #
straight-curve $-1 15 0 9 0 1 0 #
point $-1 15 48 9 #
coedge $-1 $48 $103 $52 $82 0 $61 $-1 #
straight-curve $-1 0 -48 -9 1 0 0 #
point $-1 15 -48 -9 #
coedge $-1 $53 $52 $63 $90 0 $37 $-1 #
edge $-1 $104 $54 $52 $105 0 #
point $-1 -8 -48 -9 #
vertex $-1 $90 $106 #
ellipse-curve $-1 -17 48 0 0.707106781186548 -0 0.707106781186548 9 8.88178419700125e-16 -9 0.707106781186548 #
face $-1 $-1 $96 $3 $-1 $107 forward single #
plane-surface $-1 0 0 9 0 0 1 1 0 0 0 #
coedge $-1 $108 $72 $74 $101 0 $61 $-1 #
coedge $-1 $64 $63 $103 $109 1 $21 $-1 #
edge $-1 $104 $84 $63 $110 0 #
coedge $-1 $111 $66 $64 $92 0 $96 $-1 #
edge $-1 $93 $112 $64 $113 0 #
vertex $-1 $67 $114 #
ellipse-curve $-1 -15 48 0 1 0 0 0 6.36396103067893 6.36396103067893 1 #
coedge $-1 $66 $111 $68 $98 0 $96 $-1 #
loop $-1 $-1 $66 $86 #
ellipse-curve $-1 -17 48 0 0.707106781186548 -0 -0.707106781186548 9 8.88178419700125e-16 9 0.707106781186548 #
edge $-1 $115 $70 $68 $116 0 #
point $-1 -8 48 9 #
ellipse-curve $-1 15 -48 0 -1 0 0 0 -6.36396103067893 6.36396103067893 1 #
edge $-1 $75 $115 $74 $117 0 #
point $-1 15 -48 9 #
coedge $-1 $78 $108 $89 $109 0 $61 $-1 #
vertex $-1 $82 $118 #
ellipse-curve $-1 -17 -48 0 0.707106781186548 -0 0.707106781186548 9 -8.88178419700125e-16 -9 0.707106781186548 #
point $-1 -15 56.7749643873921 -2 #
plane-surface $-1 -11.5 0 5.5 -0.707106781186548 0 0.707106781186548 0.707106781186548 0 0.707106781186548 0 #
coedge $-1 $103 $88 $111 $119 0 $61 $-1 #
edge $-1 $112 $104 $89 $120 0 #
straight-curve $-1 -15 0 -2 0 1 0 #
coedge $-1 $95 $91 $108 $119 1 $96 $-1 #
vertex $-1 $92 $121 #
straight-curve $-1 -15 0 2 0 -1 0 #
point $-1 -15 56.7749643873921 2 #
vertex $-1 $119 $122 #
straight-curve $-1 -8 0 9 0 1 0 #
straight-curve $-1 0 -48 9 -1 -0 -0 #
point $-1 -15 -56.7749643873921 -2 #
edge $-1 $115 $112 $111 $123 0 #
ellipse-curve $-1 -15 -48 0 1 0 0 0 -6.36396103067893 -6.36396103067893 1 #
point $-1 -15 -56.7749643873921 2 #
point $-1 -8 -48 9 #
ellipse-curve $-1 -17 -48 0 0.707106781186548 -0 -0.707106781186548 9 -8.88178419700125e-16 9 0.707106781186548 #
