600 0 2 0           
24 FBMach with ACIS - 6.0.3 13 ACIS 6.0.3 NT 24 Sun Mar 31 23:25:09 2002 
1 9.9999999999999995e-007 1e-010 
body $2 $3 $-1 $4 #
bdycol-kcp $-1 1 4 $5 $6 $7 $8 #
model_id-kcp-attrib $-1 $9 $-1 $0 1 1017635108 80 2085617665 1 #
lump $-1 $-1 $10 $0 #
transform $-1 1.0000000000000002 0 0 0 1 0 0 0 1.0000000000000002 -1.4210854715202004e-014 0 -1.4210854715202004e-014 1 rotate no_reflect no_shear #
body $11 $12 $-1 $13 #
body $14 $15 $-1 $16 #
body $17 $18 $-1 $19 #
body $20 $21 $-1 $22 #
aggregate_advspl_attribute-aggregate_geombuild_base_attribute-aggregate_body_attribute-attrib_HH-attrib $-1 $23 $2 $0 F #
shell $-1 $-1 $-1 $24 $-1 $3 #
model_id-kcp-attrib $-1 $-1 $-1 $5 1 1017635108 80 2085617666 1 #
lump $-1 $-1 $25 $5 #
transform $-1 1 0 0 0 1 0 0 0 1 58 0 27 1 no_rotate no_reflect no_shear #
rgb_color-st-attrib $-1 $26 $-1 $6 0.5 1 1 #
lump $-1 $27 $28 $6 #
transform $-1 1 0 0 0 1 0 0 0 1 58 0 27 1 no_rotate no_reflect no_shear #
rgb_color-st-attrib $-1 $29 $-1 $7 0.5 0.5 1 #
lump $-1 $-1 $30 $7 #
transform $-1 1 0 0 0 1 0 0 0 1 58 0 27 1 no_rotate no_reflect no_shear #
rgb_color-st-attrib $-1 $31 $-1 $8 0.5 0.5 1 #
lump $-1 $-1 $32 $8 #
transform $-1 1 0 0 0 1 0 0 0 1 58 0 27 1 no_rotate no_reflect no_shear #
aggregate_secndry_attribute-aggregate_geombuild_base_attribute-aggregate_body_attribute-attrib_HH-attrib $-1 $33 $9 $0 F #
face $34 $35 $36 $10 $-1 $37 reversed single #
shell $-1 $-1 $-1 $38 $-1 $12 #
model_id-kcp-attrib $-1 $-1 $14 $6 1 1017635108 781 2081226755 1 #
lump $-1 $-1 $39 $6 #
shell $-1 $-1 $-1 $40 $-1 $15 #
model_id-kcp-attrib $-1 $-1 $17 $7 1 1017635108 911 2089746436 1 #
shell $-1 $-1 $-1 $41 $-1 $18 #
model_id-kcp-attrib $-1 $-1 $20 $8 1 1017635108 1001 2095644677 1 #
shell $-1 $-1 $-1 $42 $-1 $21 #
aggregate_sharped_attribute-aggregate_geombuild_base_attribute-aggregate_body_attribute-attrib_HH-attrib $-1 $43 $23 $0 F #
model_id-kcp-attrib $-1 $44 $-1 $24 1 1017635108 80 2085617665 2 #
face $45 $46 $47 $10 $-1 $48 reversed single #
loop $-1 $-1 $49 $24 #
plane-surface $-1 58 0 18 0 0 1 1 0 0 forward_v I I I I #
face $50 $51 $52 $25 $-1 $53 forward single #
shell $-1 $-1 $-1 $54 $-1 $27 #
face $-1 $55 $56 $28 $-1 $57 reversed single #
face $-1 $58 $59 $30 $-1 $60 reversed single #
face $-1 $61 $62 $32 $-1 $63 reversed single #
aggregate_reblend_attribute-aggregate_geombuild_base_attribute-aggregate_body_attribute-attrib_HH-attrib $-1 $64 $33 $0 F #
attrib_hh_face_geombuild-attrib_entity_geombuild-individual_entity_attribute-attrib_HH-attrib $-1 $-1 $34 $24 F #
model_id-kcp-attrib $-1 $65 $-1 $35 1 1017635108 80 2085617665 10 #
face $66 $67 $68 $10 $-1 $69 forward single #
loop $-1 $-1 $70 $35 #
plane-surface $-1 73 0 27 -1 0 0 0 0 1 forward_v I I I I #
coedge $71 $72 $73 $74 $75 reversed $36 $-1 #
model_id-kcp-attrib $-1 $-1 $-1 $38 1 1017635108 80 2085617666 5 #
face $76 $77 $78 $25 $-1 $79 reversed single #
loop $-1 $-1 $80 $38 #
plane-surface $-1 0 0 9 0 0 1 1 0 0 forward_v I I I I #
face $-1 $81 $82 $39 $-1 $83 reversed single #
face $-1 $84 $85 $28 $-1 $57 reversed single #
loop $-1 $-1 $86 $40 #
cone-surface $-1 15 48.000000000000007 7.1054273576010019e-015 1 0 0 0 -7.1054273576010019e-015 -9.0000000000000053 1 I I 0 1 9.0000000000000053 forward I I I I #
face $-1 $87 $88 $30 $-1 $89 reversed single #
loop $-1 $-1 $90 $41 #
plane-surface $-1 -11.499999999999986 0 -5.4999999999999858 -0.70710678118654757 0 -0.70710678118654757 0 -1 0 forward_v I I I I #
face $-1 $91 $92 $32 $-1 $93 reversed single #
loop $-1 $-1 $94 $42 #
plane-surface $-1 -11.499999999999972 0 5.5 -0.70710678118654757 0 0.70710678118654757 0 -1 0 forward_v I I I I #
aggregate_isospline_attribute-aggregate_geombuild_base_attribute-aggregate_body_attribute-attrib_HH-attrib $-1 $95 $43 $0 F #
model_id-kcp-attrib $-1 $96 $45 $35 1 1017635108 80 2085617665 3 #
model_id-kcp-attrib $-1 $97 $-1 $46 1 1017635108 80 2085617665 4 #
face $98 $99 $100 $10 $-1 $101 reversed single #
loop $-1 $-1 $102 $46 #
cone-surface $-1 61.5 48 27 -1 0 0 0 6.3639610306789303 6.3639610306789303 1 I I 0 1 9.0000000000000036 forward I I I I #
coedge $103 $104 $105 $106 $107 reversed $47 $-1 #
attrib_hh_coedge_geombuild-attrib_entity_geombuild-individual_entity_attribute-attrib_HH-attrib $-1 $-1 $-1 $49 F #
coedge $108 $109 $49 $105 $110 forward $36 $-1 #
coedge $111 $49 $109 $112 $113 reversed $36 $-1 #
coedge $114 $115 $106 $49 $75 forward $68 $-1 #
edge $116 $117 -15 $118 8 $49 $119 forward 7 unknown #
model_id-kcp-attrib $-1 $-1 $-1 $51 1 1017635108 80 2085617666 2 #
face $-1 $120 $121 $25 $-1 $122 reversed single #
loop $-1 $-1 $123 $51 #
plane-surface $-1 0 0 -9 0 0 1 1 0 0 forward_v I I I I #
coedge $-1 $124 $125 $126 $127 forward $52 $-1 #
face $-1 $128 $129 $39 $-1 $83 reversed single #
loop $-1 $-1 $130 $54 #
plane-surface $-1 0 -57 0 0 1 0 0 0 1 forward_v I I I I #
face $-1 $131 $132 $28 $-1 $133 reversed single #
loop $-1 $-1 $134 $55 #
coedge $-1 $135 $136 $137 $138 reversed $56 $-1 #
face $-1 $139 $140 $30 $-1 $141 forward single #
loop $-1 $-1 $142 $58 #
plane-surface $-1 0 0 -9 0 0 1 1 0 0 forward_v I I I I #
coedge $-1 $143 $144 $145 $146 forward $59 $-1 #
face $-1 $147 $148 $32 $-1 $149 forward single #
loop $-1 $-1 $150 $61 #
plane-surface $-1 -15 0 0 1 0 0 0 0 -1 forward_v I I I I #
coedge $-1 $151 $152 $153 $154 forward $62 $-1 #
aggregate_analytic_solver_attribute-aggregate_geombuild_base_attribute-aggregate_body_attribute-attrib_HH-attrib $-1 $155 $64 $0 F #
attrib_hh_face_geombuild-attrib_entity_geombuild-individual_entity_attribute-attrib_HH-attrib $-1 $-1 $65 $35 F #
attrib_hh_face_geombuild-attrib_entity_geombuild-individual_entity_attribute-attrib_HH-attrib $-1 $-1 $66 $46 F #
model_id-kcp-attrib $-1 $156 $-1 $67 1 1017635108 80 2085617665 5 #
face $157 $158 $159 $10 $-1 $160 forward single #
loop $-1 $-1 $161 $67 #
plane-surface $-1 43 0 27 1 0 0 0 0 -1 forward_v I I I I #
coedge $162 $106 $163 $164 $165 forward $68 $-1 #
attrib_hh_coedge_geombuild-attrib_entity_geombuild-individual_entity_attribute-attrib_HH-attrib $-1 $-1 $-1 $70 F #
coedge $166 $167 $70 $168 $169 reversed $47 $-1 #
coedge $170 $70 $167 $72 $110 reversed $47 $-1 #
coedge $171 $74 $102 $70 $107 forward $68 $-1 #
edge $172 $173 -0.78539816339744828 $117 2.3561944901923448 $70 $174 forward 7 unknown #
attrib_hh_coedge_geombuild-attrib_entity_geombuild-individual_entity_attribute-attrib_HH-attrib $-1 $-1 $-1 $72 F #
coedge $175 $73 $72 $176 $177 reversed $36 $-1 #
edge $178 $117 -48 $179 48 $105 $180 forward 7 unknown #
attrib_hh_coedge_geombuild-attrib_entity_geombuild-individual_entity_attribute-attrib_HH-attrib $-1 $-1 $-1 $73 F #
coedge $181 $182 $183 $73 $113 forward $159 $-1 #
edge $184 $118 -48 $185 48 $73 $186 forward 7 unknown #
attrib_hh_coedge_geombuild-attrib_entity_geombuild-individual_entity_attribute-attrib_HH-attrib $-1 $-1 $-1 $74 F #
coedge $187 $188 $74 $183 $189 forward $68 $-1 #
attrib_edge_convexity-kcp-attrib $-1 $190 $-1 $75 3 #
vertex $191 $107 $192 #
vertex $193 $189 $194 #
straight-curve $-1 58 48 18 -1 0 0 I I #
face $195 $196 $197 $25 $-1 $198 reversed single #
loop $-1 $-1 $199 $77 #
plane-surface $-1 0 -57 0 0 1 0 0 0 1 forward_v I I I I #
coedge $-1 $200 $201 $202 $203 forward $78 $-1 #
coedge $-1 $204 $80 $205 $206 forward $52 $-1 #
coedge $-1 $80 $204 $207 $208 forward $52 $-1 #
coedge $-1 $209 $210 $80 $127 reversed $211 $-1 #
edge $-1 $212 -57 $213 57 $126 $214 forward 7 unknown #
face $-1 $215 $216 $39 $-1 $217 reversed single #
loop $-1 $-1 $218 $81 #
coedge $-1 $219 $220 $218 $221 forward $82 $-1 #
face $-1 $222 $223 $28 $-1 $224 reversed single #
loop $-1 $-1 $225 $84 #
plane-surface $-1 0 57 0 0 -1 0 0 0 -1 forward_v I I I I #
coedge $-1 $226 $227 $228 $229 reversed $85 $-1 #
coedge $-1 $230 $86 $231 $232 reversed $56 $-1 #
coedge $-1 $86 $230 $227 $233 forward $56 $-1 #
coedge $-1 $234 $235 $86 $138 forward $236 $-1 #
edge $-1 $237 -3.1415926535897944 $238 -1.5707963267948974 $137 $239 forward 7 unknown #
face $-1 $240 $241 $30 $-1 $242 forward single #
loop $-1 $-1 $145 $87 #
cone-surface $-1 15 -48.000000000000007 -7.1054273576010019e-015 1 0 0 0 7.1054273576010019e-015 9.0000000000000053 1 I I 0 1 9.0000000000000053 forward I I I I #
coedge $-1 $243 $244 $143 $245 reversed $88 $-1 #
coedge $-1 $246 $90 $142 $245 forward $59 $-1 #
coedge $-1 $90 $246 $247 $248 forward $59 $-1 #
coedge $-1 $249 $250 $90 $146 reversed $140 $-1 #
edge $251 $252 1.7948894190962636 $253 3.141592653589794 $145 $254 forward 7 unknown #
face $-1 $255 $256 $32 $-1 $257 forward single #
loop $-1 $-1 $153 $91 #
cone-surface $-1 15 -48.000000000000007 -7.1054273576010019e-015 1 0 0 0 7.1054273576010019e-015 9.0000000000000053 1 I I 0 1 9.0000000000000053 forward I I I I #
coedge $-1 $258 $259 $151 $260 reversed $92 $-1 #
coedge $-1 $261 $94 $150 $260 forward $62 $-1 #
coedge $-1 $94 $261 $262 $263 forward $62 $-1 #
coedge $-1 $264 $265 $94 $154 reversed $148 $-1 #
edge $266 $267 7.894919286223332e-016 $268 1.3467032344935288 $153 $269 forward 7 unknown #
aggregate_geombuild_attribute-aggregate_geombuild_base_attribute-aggregate_body_attribute-attrib_HH-attrib $-1 $270 $95 $0 #
attrib_hh_face_geombuild-attrib_entity_geombuild-individual_entity_attribute-attrib_HH-attrib $-1 $-1 $98 $67 F #
model_id-kcp-attrib $-1 $271 $-1 $99 1 1017635108 80 2085617665 6 #
face $272 $273 $274 $10 $-1 $275 forward single #
loop $-1 $-1 $183 $99 #
plane-surface $-1 46.5 0 21.5 -0.70710678118654757 0 -0.70710678118654757 -0.70710678118654802 0 0.70710678118654802 forward_v I I I I #
coedge $276 $277 $278 $188 $279 reversed $100 $-1 #
attrib_hh_coedge_geombuild-attrib_entity_geombuild-individual_entity_attribute-attrib_HH-attrib $-1 $-1 $-1 $102 F #
coedge $280 $102 $188 $281 $282 forward $68 $-1 #
coedge $283 $284 $168 $102 $165 reversed $285 $-1 #
edge $286 $287 -8 $173 15 $164 $288 forward 7 unknown #
attrib_hh_coedge_geombuild-attrib_entity_geombuild-individual_entity_attribute-attrib_HH-attrib $-1 $-1 $-1 $104 F #
coedge $289 $105 $104 $290 $291 reversed $47 $-1 #
coedge $292 $164 $293 $104 $169 forward $285 $-1 #
edge $294 $295 -48 $173 48 $104 $296 forward 7 unknown #
attrib_hh_coedge_geombuild-attrib_entity_geombuild-individual_entity_attribute-attrib_HH-attrib $-1 $-1 $-1 $105 F #
attrib_hh_coedge_geombuild-attrib_entity_geombuild-individual_entity_attribute-attrib_HH-attrib $-1 $-1 $-1 $106 F #
attrib_edge_convexity-kcp-attrib $-1 $297 $-1 $107 1 #
vertex $298 $169 $299 #
ellipse-curve $-1 73 48 27 -1 0 0 0 6.3639610306789303 6.3639610306789303 1 I I #
attrib_hh_coedge_geombuild-attrib_entity_geombuild-individual_entity_attribute-attrib_HH-attrib $-1 $-1 $-1 $109 F #
coedge $300 $290 $301 $109 $177 forward $274 $-1 #
edge $302 $185 -8 $179 15 $109 $303 forward 7 unknown #
attrib_edge_convexity-kcp-attrib $-1 $304 $-1 $110 1 #
vertex $305 $110 $306 #
straight-curve $-1 73 0 18 0 -1 0 I I #
attrib_hh_coedge_geombuild-attrib_entity_geombuild-individual_entity_attribute-attrib_HH-attrib $-1 $-1 $-1 $112 F #
coedge $307 $308 $112 $301 $309 reversed $159 $-1 #
coedge $310 $112 $308 $115 $189 reversed $159 $-1 #
model_id-kcp-attrib $-1 $311 $-1 $113 1 1017635108 80 2085617665 12 #
vertex $312 $113 $313 #
straight-curve $-1 50 0 18 0 -1 0 I I #
attrib_hh_coedge_geombuild-attrib_entity_geombuild-individual_entity_attribute-attrib_HH-attrib $-1 $-1 $-1 $115 F #
coedge $314 $163 $115 $161 $279 forward $68 $-1 #
edge $315 $118 -9.8686491077791613e-017 $316 1.346703234493525 $183 $317 forward 7 unknown #
convexity-sys-attrib $-1 $318 $116 $75 #
attrib_hh_vertex_geombuild-attrib_entity_geombuild-individual_entity_attribute-attrib_HH-attrib $-1 $-1 $-1 $117 F #
point $-1 73 48 18 #
attrib_hh_vertex_geombuild-attrib_entity_geombuild-individual_entity_attribute-attrib_HH-attrib $-1 $-1 $-1 $118 F #
point $-1 50 48 18 #
model_id-kcp-attrib $-1 $-1 $-1 $120 1 1017635108 80 2085617666 4 #
face $-1 $319 $320 $25 $-1 $321 reversed single #
loop $-1 $-1 $322 $120 #
plane-surface $-1 -15 0 0 1 0 0 0 0 -1 forward_v I I I I #
coedge $-1 $323 $207 $324 $325 forward $121 $-1 #
coedge $-1 $326 $123 $323 $327 forward $78 $-1 #
coedge $-1 $123 $326 $328 $329 forward $78 $-1 #
coedge $-1 $210 $209 $123 $203 reversed $211 $-1 #
edge $-1 $330 -57 $331 57 $202 $332 forward 7 unknown #
coedge $-1 $125 $124 $333 $334 forward $52 $-1 #
coedge $-1 $335 $336 $124 $206 reversed $320 $-1 #
edge $-1 $213 -15 $337 15 $205 $338 forward 7 unknown #
coedge $-1 $199 $339 $125 $208 reversed $121 $-1 #
edge $-1 $340 -15 $212 15 $207 $341 forward 7 unknown #
coedge $-1 $202 $126 $339 $342 forward $211 $-1 #
coedge $-1 $126 $202 $335 $343 reversed $211 $-1 #
loop $-1 $-1 $209 $319 #
vertex $-1 $127 $344 #
vertex $-1 $127 $345 #
straight-curve $-1 15 0 9 0 1 0 I I #
face $-1 $346 $347 $39 $-1 $217 reversed single #
loop $-1 $-1 $348 $128 #
plane-surface $-1 -15 0 0 1 0 0 0 0 -1 forward_v I I I I #
coedge $-1 $349 $350 $351 $221 reversed $129 $-1 #
coedge $-1 $352 $130 $353 $354 reversed $82 $-1 #
coedge $-1 $130 $352 $355 $356 forward $82 $-1 #
edge $-1 $357 -30 $358 0 $130 $359 forward 7 unknown #
face $-1 $360 $361 $28 $-1 $217 reversed single #
loop $-1 $-1 $362 $131 #
plane-surface $-1 15 0 0 -1 0 0 0 0 1 forward_v I I I I #
coedge $-1 $363 $364 $136 $233 reversed $132 $-1 #
coedge $-1 $365 $134 $366 $367 forward $85 $-1 #
coedge $-1 $134 $365 $368 $233 reversed $85 $-1 #
coedge $-1 $369 $370 $134 $229 forward $371 $-1 #
edge $-1 $372 1.5582437633995272e-031 $373 1.5707963267948974 $228 $374 forward 7 unknown #
coedge $-1 $136 $135 $375 $376 reversed $56 $-1 #
coedge $-1 $377 $378 $135 $232 forward $379 $-1 #
edge $-1 $380 -30 $237 0 $231 $381 forward 7 unknown #
edge $-1 $373 -30 $238 0 $368 $382 forward 7 unknown #
coedge $-1 $235 $137 $364 $383 reversed $236 $-1 #
coedge $-1 $137 $234 $377 $384 reversed $236 $-1 #
loop $-1 $-1 $137 $385 #
vertex $-1 $384 $386 #
vertex $-1 $387 $388 #
ellipse-curve $-1 15 48.000000000000007 7.1054273576010019e-015 -1 0 0 0 -7.1054273576010019e-015 -9.0000000000000053 1 I I #
face $-1 $-1 $389 $30 $-1 $390 reversed single #
loop $-1 $-1 $391 $139 #
cone-surface $-1 15 48.000000000000007 7.1054273576010019e-015 1 0 0 0 -7.1054273576010019e-015 -9.0000000000000053 1 I I 0 1 9.0000000000000053 forward I I I I #
coedge $-1 $392 $142 $250 $393 forward $88 $-1 #
coedge $-1 $142 $392 $394 $395 reversed $88 $-1 #
edge $396 $253 -48.000000000000007 $397 48.000000000000007 $142 $398 forward 7 unknown #
coedge $-1 $144 $143 $391 $399 forward $59 $-1 #
coedge $-1 $400 $401 $144 $248 reversed $389 $-1 #
edge $402 $403 -56.774964387392139 $252 56.774964387392146 $247 $404 forward 7 unknown #
coedge $-1 $250 $145 $401 $405 reversed $140 $-1 #
coedge $-1 $145 $249 $243 $393 reversed $140 $-1 #
convexity-sys-attrib $-1 $-1 $-1 $146 #
vertex $-1 $146 $406 #
vertex $-1 $393 $407 #
ellipse-curve $-1 -16.999999999999964 -48.000000000000007 -7.1054273576010019e-015 0.70710678118654757 0 0.70710678118654757 -9.0000000000000053 7.1054273576010019e-015 9.0000000000000053 0.70710678118654746 I I #
face $-1 $-1 $408 $32 $-1 $409 forward single #
loop $-1 $-1 $410 $147 #
cone-surface $-1 15 48.000000000000007 7.1054273576010019e-015 1 0 0 0 -7.1054273576010019e-015 -9.0000000000000053 1 I I 0 1 9.0000000000000053 forward I I I I #
coedge $-1 $411 $150 $265 $412 forward $92 $-1 #
coedge $-1 $150 $411 $413 $414 forward $92 $-1 #
edge $415 $268 -56.774964387392139 $416 56.774964387392146 $150 $417 forward 7 unknown #
coedge $-1 $152 $151 $410 $418 forward $62 $-1 #
coedge $-1 $419 $420 $152 $263 reversed $408 $-1 #
edge $421 $422 -48.000000000000007 $267 48.000000000000007 $262 $423 forward 7 unknown #
coedge $-1 $265 $153 $420 $424 forward $148 $-1 #
coedge $-1 $153 $264 $258 $412 reversed $148 $-1 #
convexity-sys-attrib $-1 $-1 $-1 $154 #
vertex $-1 $424 $425 #
vertex $-1 $412 $426 #
ellipse-curve $-1 -16.999999999999979 -48.000000000000007 -7.1054273576010019e-015 0.70710678118654757 0 -0.70710678118654757 9.0000000000000053 7.1054273576010019e-015 9.0000000000000053 0.70710678118654746 I I #
aggregate_stitch_attribute-aggregate_stitch_base_attribute-aggregate_body_attribute-attrib_HH-attrib $-1 $427 $155 $0 F #
attrib_hh_face_geombuild-attrib_entity_geombuild-individual_entity_attribute-attrib_HH-attrib $-1 $-1 $157 $99 F #
model_id-kcp-attrib $-1 $428 $-1 $158 1 1017635108 80 2085617665 7 #
face $429 $430 $285 $10 $-1 $431 forward single #
loop $-1 $-1 $432 $158 #
cone-surface $-1 61.5 -48 27 1 0 0 0 -6.3639610306789303 6.3639610306789303 1 I I 0 1 9.0000000000000036 forward I I I I #
attrib_hh_coedge_geombuild-attrib_entity_geombuild-individual_entity_attribute-attrib_HH-attrib $-1 $-1 $-1 $161 F #
coedge $433 $434 $161 $308 $435 reversed $100 $-1 #
coedge $436 $161 $434 $437 $438 reversed $100 $-1 #
edge $439 $316 -1.0094912556988196 $440 -0.56130507109607697 $161 $441 forward 7 unknown #
attrib_hh_coedge_geombuild-attrib_entity_geombuild-individual_entity_attribute-attrib_HH-attrib $-1 $-1 $-1 $163 F #
coedge $442 $437 $443 $163 $282 reversed $444 $-1 #
edge $445 $440 -1.346703234493525 $287 9.8686491077791613e-017 $281 $446 forward 7 unknown #
attrib_hh_coedge_geombuild-attrib_entity_geombuild-individual_entity_attribute-attrib_HH-attrib $-1 $-1 $-1 $164 F #
coedge $447 $293 $164 $443 $448 reversed $285 $-1 #
loop $-1 $-1 $164 $273 #
attrib_hh_edge_geombuild-attrib_entity_geombuild-individual_entity_attribute-attrib_HH-attrib $-1 $-1 $-1 $165 F #
vertex $449 $448 $450 #
straight-curve $-1 58 48 36 1 0 0 I I #
attrib_hh_coedge_geombuild-attrib_entity_geombuild-individual_entity_attribute-attrib_HH-attrib $-1 $-1 $-1 $167 F #
coedge $451 $432 $176 $167 $291 forward $274 $-1 #
edge $452 $179 -2.3561944901923448 $295 0.78539816339744828 $167 $453 forward 7 unknown #
attrib_hh_coedge_geombuild-attrib_entity_geombuild-individual_entity_attribute-attrib_HH-attrib $-1 $-1 $-1 $168 F #
coedge $454 $168 $284 $432 $455 reversed $285 $-1 #
attrib_edge_convexity-kcp-attrib $-1 $456 $-1 $169 1 #
vertex $457 $291 $458 #
straight-curve $-1 73 0 36 0 1 0 I I #
convexity-sys-attrib $-1 $459 $172 $107 #
attrib_hh_vertex_geombuild-attrib_entity_geombuild-individual_entity_attribute-attrib_HH-attrib $-1 $-1 $-1 $173 F #
point $-1 73 48 36 #
attrib_hh_coedge_geombuild-attrib_entity_geombuild-individual_entity_attribute-attrib_HH-attrib $-1 $-1 $-1 $176 F #
coedge $460 $176 $461 $182 $309 forward $274 $-1 #
attrib_edge_convexity-kcp-attrib $-1 $462 $-1 $177 3 #
straight-curve $-1 58 -48 18 1 0 0 I I #
convexity-sys-attrib $-1 $463 $178 $110 #
attrib_hh_vertex_geombuild-attrib_entity_geombuild-individual_entity_attribute-attrib_HH-attrib $-1 $-1 $-1 $179 F #
point $-1 73 -48 18 #
attrib_hh_coedge_geombuild-attrib_entity_geombuild-individual_entity_attribute-attrib_HH-attrib $-1 $-1 $-1 $182 F #
coedge $464 $183 $182 $277 $435 forward $159 $-1 #
edge $465 $466 -1.346703234493525 $185 9.8686491077791613e-017 $182 $467 forward 7 unknown #
attrib_hh_coedge_geombuild-attrib_entity_geombuild-individual_entity_attribute-attrib_HH-attrib $-1 $-1 $-1 $183 F #
attrib_edge_convexity-kcp-attrib $-1 $468 $184 $113 1 #
attrib_hh_vertex_geombuild-attrib_entity_geombuild-individual_entity_attribute-attrib_HH-attrib $-1 $-1 $-1 $185 F #
point $-1 50 -48 18 #
attrib_hh_coedge_geombuild-attrib_entity_geombuild-individual_entity_attribute-attrib_HH-attrib $-1 $-1 $-1 $188 F #
attrib_edge_convexity-kcp-attrib $-1 $469 $-1 $189 1 #
vertex $470 $435 $471 #
ellipse-curve $-1 41 48 27 0.70710678118654757 0 0.70710678118654757 9 8.8817841970012504e-016 -9 0.70710678118654802 I I #
attrib_hh_edge_geombuild-attrib_entity_geombuild-individual_entity_attribute-attrib_HH-attrib $-1 $-1 $190 $75 F #
face $472 $-1 $211 $25 $-1 $473 reversed single #
loop $-1 $-1 $335 $196 #
plane-surface $-1 0 57 0 0 -1 0 0 0 -1 forward_v I I I I #
coedge $-1 $474 $333 $336 $475 forward $197 $-1 #
coedge $-1 $339 $199 $200 $327 reversed $121 $-1 #
coedge $-1 $333 $474 $199 $325 reversed $197 $-1 #
edge $-1 $340 -9 $476 9 $324 $477 forward 7 unknown #
coedge $-1 $201 $200 $474 $478 forward $78 $-1 #
edge $-1 $331 -15 $476 15 $323 $479 forward 7 unknown #
coedge $-1 $336 $335 $201 $329 reversed $320 $-1 #
edge $-1 $480 -15 $330 15 $328 $481 forward 7 unknown #
vertex $-1 $203 $482 #
vertex $-1 $342 $483 #
straight-curve $-1 15 0 -9 0 -1 0 I I #
coedge $-1 $322 $324 $204 $334 reversed $197 $-1 #
edge $-1 $337 -57 $340 57 $333 $484 forward 7 unknown #
coedge $-1 $328 $205 $210 $343 forward $320 $-1 #
coedge $-1 $205 $328 $322 $475 reversed $320 $-1 #
vertex $-1 $206 $485 #
straight-curve $-1 0 57 9 -1 0 0 I I #
coedge $-1 $207 $323 $209 $342 reversed $121 $-1 #
vertex $-1 $334 $486 #
straight-curve $-1 0 -57 9 1 0 0 I I #
edge $-1 $212 -9 $331 9 $209 $487 forward 7 unknown #
edge $-1 $213 -9 $330 9 $210 $488 forward 7 unknown #
point $-1 15 -57 9 #
point $-1 15 57 9 #
face $-1 $489 $490 $39 $-1 $491 forward single #
loop $-1 $-1 $492 $215 #
coedge $-1 $493 $494 $495 $496 forward $216 $-1 #
coedge $-1 $497 $218 $494 $498 forward $129 $-1 #
coedge $-1 $218 $497 $499 $500 reversed $129 $-1 #
coedge $-1 $501 $495 $502 $221 forward $503 $-1 #
coedge $-1 $220 $219 $504 $505 reversed $82 $-1 #
coedge $-1 $506 $507 $219 $354 forward $508 $-1 #
edge $-1 $509 -9 $358 7.1054273576010019e-015 $353 $510 forward 7 unknown #
coedge $-1 $511 $492 $220 $356 reversed $347 $-1 #
edge $-1 $512 -9 $357 7.1054273576010019e-015 $355 $513 forward 7 unknown #
vertex $-1 $498 $514 #
vertex $-1 $500 $515 #
straight-curve $-1 15 -57 -7.1054273576010019e-015 1 0 0 I I #
face $-1 $516 $379 $28 $-1 $491 forward single #
loop $-1 $-1 $375 $222 #
coedge $-1 $517 $518 $365 $519 forward $223 $-1 #
coedge $-1 $520 $225 $521 $522 reversed $132 $-1 #
coedge $-1 $225 $520 $234 $383 forward $132 $-1 #
coedge $-1 $227 $226 $362 $519 reversed $85 $-1 #
coedge $-1 $523 $524 $226 $367 reversed $525 $-1 #
edge $-1 $372 -30 $526 0 $366 $527 forward 7 unknown #
coedge $-1 $528 $529 $225 $233 forward $530 $-1 #
coedge $-1 $370 $228 $529 $531 forward $371 $-1 #
coedge $-1 $228 $369 $523 $532 reversed $371 $-1 #
loop $-1 $-1 $228 $533 #
vertex $-1 $532 $534 #
vertex $-1 $531 $535 #
ellipse-curve $-1 -15 48.000000000000007 7.1054273576010019e-015 1 0 0 0 -7.1054273576010019e-015 -9.0000000000000053 1 I I #
coedge $-1 $536 $521 $230 $376 forward $361 $-1 #
edge $-1 $373 1.5707963267948974 $380 3.1415926535897944 $375 $374 forward 7 unknown #
coedge $-1 $537 $231 $235 $384 forward $379 $-1 #
coedge $-1 $231 $537 $536 $538 forward $379 $-1 #
loop $-1 $-1 $231 $360 #
vertex $-1 $376 $539 #
straight-curve $-1 15 48.000000000000007 9 1 0 0 I I #
straight-curve $-1 15 57 7.1054273576010019e-015 1 0 0 I I #
edge $-1 $540 -9 $238 -7.1054273576010019e-015 $234 $541 forward 7 unknown #
edge $-1 $237 48 $540 57 $235 $542 forward 7 unknown #
face $-1 $-1 $236 $28 $-1 $224 reversed single #
point $-1 15 48 9 #
edge $-1 $238 -7.1054273576010019e-015 $543 9 $518 $541 forward 7 unknown #
point $-1 15 57 7.1054273576010019e-015 #
loop $-1 $-1 $247 $240 #
plane-surface $-1 -15 0 0 1 0 0 0 0 -1 forward_v I I I I #
coedge $-1 $394 $544 $246 $399 reversed $241 $-1 #
coedge $-1 $244 $243 $545 $546 forward $88 $-1 #
edge $-1 $253 22.999999999999972 $547 30 $243 $548 forward 7 unknown #
coedge $-1 $544 $391 $244 $395 forward $241 $-1 #
edge $-1 $397 22.999999999999972 $549 30 $244 $550 forward 7 unknown #
convexity-sys-attrib $-1 $-1 $-1 $245 #
vertex $-1 $395 $551 #
straight-curve $-1 -7.9999999999999716 0 -9 0 1 0 I I #
edge $552 $397 7.894919286223332e-016 $403 1.3467032344935288 $391 $553 forward 7 unknown #
coedge $-1 $545 $247 $544 $554 forward $389 $-1 #
coedge $-1 $247 $545 $249 $405 forward $389 $-1 #
convexity-sys-attrib $-1 $-1 $-1 $248 #
vertex $-1 $554 $555 #
straight-curve $-1 -15 0 -1.9999999999999716 0 -1 0 I I #
edge $-1 $547 -3.1415926535897944 $252 -1.7948894190962641 $401 $556 forward 7 unknown #
point $-1 -15 -56.774964387392146 -1.9999999999999716 #
point $-1 -7.9999999999999716 -48.000000000000007 -9 #
loop $-1 $-1 $262 $255 #
plane-surface $-1 0 0 9 0 0 1 1 0 0 forward_v I I I I #
coedge $-1 $413 $557 $261 $418 reversed $256 $-1 #
coedge $-1 $259 $258 $558 $559 reversed $92 $-1 #
edge $-1 $268 -1.3467032344935292 $560 -7.894919286223331e-016 $258 $561 forward 7 unknown #
coedge $-1 $557 $410 $259 $414 reversed $256 $-1 #
edge $-1 $562 -3.1415926535897944 $416 -1.7948894190962641 $259 $563 forward 7 unknown #
convexity-sys-attrib $-1 $-1 $-1 $260 #
vertex $-1 $260 $564 #
straight-curve $-1 -15 0 1.9999999999999716 0 1 0 I I #
edge $565 $416 1.7948894190962636 $422 3.141592653589794 $410 $566 forward 7 unknown #
coedge $-1 $558 $262 $557 $567 forward $408 $-1 #
coedge $-1 $262 $558 $264 $424 reversed $408 $-1 #
convexity-sys-attrib $-1 $-1 $-1 $263 #
vertex $-1 $567 $568 #
straight-curve $-1 -7.9999999999999716 0 9 0 -1 0 I I #
edge $-1 $267 22.999999999999972 $560 30 $420 $569 forward 7 unknown #
point $-1 -7.9999999999999716 -48.000000000000007 9 #
point $-1 -15 -56.774964387392139 1.9999999999999714 #
aggregate_simgeom_attribute-aggregate_simgeom_base_attribute-aggregate_body_attribute-attrib_HH-attrib $-1 $-1 $270 $0 F #
attrib_hh_face_geombuild-attrib_entity_geombuild-individual_entity_attribute-attrib_HH-attrib $-1 $-1 $272 $158 F #
model_id-kcp-attrib $-1 $570 $-1 $273 1 1017635108 80 2085617665 8 #
face $571 $-1 $444 $10 $-1 $572 forward single #
plane-surface $-1 58 0 36 0 0 1 1 0 0 forward_v I I I I #
coedge $573 $574 $290 $293 $455 forward $274 $-1 #
attrib_hh_coedge_geombuild-attrib_entity_geombuild-individual_entity_attribute-attrib_HH-attrib $-1 $-1 $-1 $277 F #
coedge $575 $278 $277 $461 $576 reversed $100 $-1 #
edge $577 $466 -56.774964387392103 $316 56.774964387392103 $277 $578 forward 7 unknown #
attrib_hh_coedge_geombuild-attrib_entity_geombuild-individual_entity_attribute-attrib_HH-attrib $-1 $-1 $-1 $278 F #
coedge $579 $580 $281 $278 $438 forward $444 $-1 #
edge $581 $440 -56.774964387392103 $582 56.774964387392103 $278 $583 forward 7 unknown #
attrib_hh_edge_geombuild-attrib_entity_geombuild-individual_entity_attribute-attrib_HH-attrib $-1 $-1 $-1 $279 F #
vertex $584 $282 $585 #
ellipse-curve $-1 43 48 27 1 0 0 0 6.3639610306789303 6.3639610306789303 1 I I #
attrib_hh_coedge_geombuild-attrib_entity_geombuild-individual_entity_attribute-attrib_HH-attrib $-1 $-1 $-1 $281 F #
coedge $586 $281 $580 $284 $448 forward $444 $-1 #
loop $-1 $-1 $281 $430 #
attrib_edge_convexity-kcp-attrib $-1 $587 $-1 $282 1 #
ellipse-curve $-1 41 48 27 0.70710678118654757 0 -0.70710678118654757 9 8.8817841970012504e-016 9 0.70710678118654802 I I #
attrib_hh_coedge_geombuild-attrib_entity_geombuild-individual_entity_attribute-attrib_HH-attrib $-1 $-1 $-1 $284 F #
edge $588 $589 -48 $287 48 $284 $590 forward 7 unknown #
attrib_hh_vertex_geombuild-attrib_entity_geombuild-individual_entity_attribute-attrib_HH-attrib $-1 $-1 $-1 $287 F #
point $-1 50 48 36 #
attrib_hh_coedge_geombuild-attrib_entity_geombuild-individual_entity_attribute-attrib_HH-attrib $-1 $-1 $-1 $290 F #
attrib_edge_convexity-kcp-attrib $-1 $591 $-1 $291 1 #
ellipse-curve $-1 73 -48 27 -1 0 0 0 -6.3639610306789303 6.3639610306789303 1 I I #
attrib_hh_coedge_geombuild-attrib_entity_geombuild-individual_entity_attribute-attrib_HH-attrib $-1 $-1 $-1 $293 F #
edge $592 $295 -15 $589 8 $293 $593 forward 7 unknown #
convexity-sys-attrib $-1 $594 $294 $169 #
attrib_hh_vertex_geombuild-attrib_entity_geombuild-individual_entity_attribute-attrib_HH-attrib $-1 $-1 $-1 $295 F #
point $-1 73 -48 36 #
attrib_hh_edge_geombuild-attrib_entity_geombuild-individual_entity_attribute-attrib_HH-attrib $-1 $-1 $297 $107 F #
attrib_hh_coedge_geombuild-attrib_entity_geombuild-individual_entity_attribute-attrib_HH-attrib $-1 $-1 $-1 $301 F #
coedge $595 $301 $574 $434 $576 forward $274 $-1 #
convexity-sys-attrib $-1 $596 $302 $177 #
attrib_hh_edge_geombuild-attrib_entity_geombuild-individual_entity_attribute-attrib_HH-attrib $-1 $-1 $304 $110 F #
attrib_hh_coedge_geombuild-attrib_entity_geombuild-individual_entity_attribute-attrib_HH-attrib $-1 $-1 $-1 $308 F #
attrib_edge_convexity-kcp-attrib $-1 $597 $-1 $309 1 #
vertex $598 $309 $599 #
ellipse-curve $-1 41 -48 27 0.70710678118654757 0 0.70710678118654757 9 -8.8817841970012504e-016 -9 0.70710678118654802 I I #
convexity-sys-attrib $-1 $600 $311 $113 #
convexity-sys-attrib $-1 $601 $315 $189 #
attrib_hh_vertex_geombuild-attrib_entity_geombuild-individual_entity_attribute-attrib_HH-attrib $-1 $-1 $-1 $316 F #
point $-1 43 56.774964387392103 25 #
model_id-kcp-attrib $-1 $-1 $-1 $319 1 1017635108 80 2085617666 3 #
plane-surface $-1 15 0 0 -1 0 0 0 0 1 forward_v I I I I #
coedge $-1 $324 $322 $326 $478 reversed $197 $-1 #
edge $-1 $337 -9 $480 9 $336 $602 forward 7 unknown #
vertex $-1 $478 $603 #
straight-curve $-1 -15 -57 0 0 0 -1 I I #
edge $-1 $476 -57 $480 57 $474 $604 forward 7 unknown #
straight-curve $-1 0 -57 -9 -1 0 0 I I #
vertex $-1 $329 $605 #
straight-curve $-1 0 57 -9 1 0 0 I I #
point $-1 15 57 -9 #
point $-1 15 -57 -9 #
straight-curve $-1 -15 0 9 0 -1 0 I I #
point $-1 -15 57 9 #
point $-1 -15 -57 9 #
straight-curve $-1 15 -57 0 0 0 -1 I I #
straight-curve $-1 15 57 0 0 0 -1 I I #
face $-1 $606 $607 $39 $-1 $224 reversed single #
loop $-1 $-1 $608 $346 #
plane-surface $-1 0 0 9 0 0 1 1 0 0 forward_v I I I I #
coedge $-1 $355 $511 $609 $610 forward $347 $-1 #
coedge $-1 $494 $348 $611 $612 reversed $216 $-1 #
coedge $-1 $348 $493 $349 $498 reversed $216 $-1 #
coedge $-1 $351 $613 $348 $496 reversed $503 $-1 #
edge $-1 $357 1.5707963267948974 $614 3.1415926535897944 $348 $615 forward 7 unknown #
coedge $-1 $350 $349 $616 $617 reversed $129 $-1 #
edge $-1 $357 7.1054273576010019e-015 $618 9 $494 $513 forward 7 unknown #
coedge $-1 $619 $620 $350 $500 forward $607 $-1 #
edge $-1 $358 7.1054273576010019e-015 $621 9 $499 $510 forward 7 unknown #
coedge $-1 $613 $351 $620 $622 reversed $503 $-1 #
coedge $-1 $609 $623 $130 $221 reversed $624 $-1 #
loop $-1 $-1 $495 $625 #
coedge $-1 $626 $627 $352 $505 forward $490 $-1 #
edge $-1 $512 -15 $509 15 $352 $628 forward 7 unknown #
coedge $-1 $507 $353 $623 $629 forward $508 $-1 #
coedge $-1 $353 $506 $626 $630 reversed $508 $-1 #
loop $-1 $-1 $506 $606 #
vertex $-1 $630 $631 #
straight-curve $-1 15 -57 0 0 0 -1 I I #
coedge $-1 $492 $355 $627 $632 reversed $347 $-1 #
vertex $-1 $632 $633 #
straight-curve $-1 -15 -57 0 0 0 -1 I I #
point $-1 -15 -57 -7.1054273576010019e-015 #
point $-1 15 -57 -7.1054273576010019e-015 #
face $-1 $533 $525 $28 $-1 $634 reversed single #
coedge $-1 $518 $362 $524 $635 reversed $223 $-1 #
coedge $-1 $362 $517 $528 $387 reversed $223 $-1 #
edge $-1 $238 -1.5707963267948974 $526 -1.5582437633995272e-031 $362 $239 forward 7 unknown #
coedge $-1 $364 $363 $537 $636 reversed $132 $-1 #
coedge $-1 $375 $536 $363 $522 forward $361 $-1 #
edge $-1 $637 -9 $373 -7.1054273576010019e-015 $363 $638 forward 7 unknown #
coedge $-1 $639 $366 $370 $532 forward $525 $-1 #
coedge $-1 $366 $639 $517 $635 forward $525 $-1 #
loop $-1 $-1 $366 $516 #
vertex $-1 $519 $640 #
straight-curve $-1 15 48.000000000000007 -9 1 0 0 I I #
coedge $-1 $641 $368 $518 $387 forward $530 $-1 #
coedge $-1 $368 $641 $369 $531 reversed $530 $-1 #
loop $-1 $-1 $368 $642 #
edge $-1 $373 -7.1054273576010019e-015 $643 9 $529 $638 forward 7 unknown #
edge $-1 $372 48 $643 57 $370 $644 forward 7 unknown #
face $-1 $642 $371 $28 $-1 $217 reversed single #
point $-1 -15 48 -9 #
point $-1 -15 57 7.1054273576010019e-015 #
coedge $-1 $521 $375 $378 $538 reversed $361 $-1 #
coedge $-1 $378 $377 $520 $636 forward $379 $-1 #
edge $-1 $637 -57 $380 -48 $536 $645 forward 7 unknown #
point $-1 -15 48 9 #
vertex $-1 $384 $646 #
straight-curve $-1 15 57 0 0 0 -1 I I #
straight-curve $-1 15 0 9 0 1 0 I I #
vertex $-1 $635 $647 #
coedge $-1 $391 $394 $400 $554 reversed $241 $-1 #
coedge $-1 $401 $400 $392 $546 reversed $389 $-1 #
edge $-1 $547 -48 $549 48 $545 $648 forward 7 unknown #
vertex $-1 $546 $649 #
straight-curve $-1 15 -48.000000000000007 -9 -1 0 0 I I #
vertex $-1 $554 $650 #
straight-curve $-1 15 48.000000000000007 -9 -1 0 0 I I #
point $-1 -7.9999999999999716 48.000000000000007 -9 #
convexity-sys-attrib $-1 $-1 $-1 $399 #
ellipse-curve $-1 -16.999999999999979 48.000000000000007 7.1054273576010019e-015 0.70710678118654757 0 0.70710678118654757 9.0000000000000053 -7.1054273576010019e-015 -9.0000000000000053 0.70710678118654746 I I #
edge $-1 $403 -1.346703234493529 $549 -1.5582437633995272e-031 $400 $651 forward 7 unknown #
point $-1 -15 56.774964387392139 -1.9999999999999718 #
ellipse-curve $-1 -15 -48.000000000000007 -7.1054273576010019e-015 -1 0 0 0 7.1054273576010019e-015 9.0000000000000053 1 I I #
coedge $-1 $410 $413 $419 $567 reversed $256 $-1 #
coedge $-1 $420 $419 $411 $559 forward $408 $-1 #
edge $-1 $562 -48 $560 48.000000000000007 $411 $652 forward 7 unknown #
vertex $-1 $412 $653 #
ellipse-curve $-1 -15 -48.000000000000007 -7.1054273576010019e-015 -1 0 0 0 7.1054273576010019e-015 9.0000000000000053 1 I I #
vertex $-1 $559 $654 #
ellipse-curve $-1 -15 48.000000000000007 7.1054273576010019e-015 -1 0 0 0 -7.1054273576010019e-015 -9.0000000000000053 1 I I #
point $-1 -15 56.774964387392146 1.9999999999999716 #
convexity-sys-attrib $-1 $-1 $-1 $418 #
ellipse-curve $-1 -16.999999999999964 48.000000000000007 7.1054273576010019e-015 0.70710678118654757 0 -0.70710678118654757 -9.0000000000000053 -7.1054273576010019e-015 -9.0000000000000053 0.70710678118654746 I I #
edge $-1 $422 22.999999999999972 $562 30 $419 $655 forward 7 unknown #
point $-1 -7.9999999999999716 48.000000000000007 9 #
straight-curve $-1 15 -48.000000000000007 9 -1 0 0 I I #
attrib_hh_face_geombuild-attrib_entity_geombuild-individual_entity_attribute-attrib_HH-attrib $-1 $-1 $429 $273 F #
model_id-kcp-attrib $-1 $656 $-1 $430 1 1017635108 80 2085617665 9 #
plane-surface $-1 46.5 0 32.5 -0.70710678118654757 0 0.70710678118654757 0.70710678118654802 0 0.70710678118654802 forward_v I I I I #
attrib_hh_coedge_geombuild-attrib_entity_geombuild-individual_entity_attribute-attrib_HH-attrib $-1 $-1 $-1 $432 F #
coedge $657 $461 $432 $580 $658 forward $274 $-1 #
attrib_hh_coedge_geombuild-attrib_entity_geombuild-individual_entity_attribute-attrib_HH-attrib $-1 $-1 $-1 $434 F #
edge $659 $582 -1.0094912556988196 $466 -0.56130507109607697 $434 $660 forward 7 unknown #
attrib_edge_convexity-kcp-attrib $-1 $661 $-1 $435 1 #
straight-curve $-1 43 0 25 0 1 0 I I #
attrib_hh_coedge_geombuild-attrib_entity_geombuild-individual_entity_attribute-attrib_HH-attrib $-1 $-1 $-1 $437 F #
coedge $662 $443 $437 $574 $658 reversed $444 $-1 #
attrib_edge_convexity-kcp-attrib $-1 $663 $-1 $438 1 #
vertex $664 $438 $665 #
straight-curve $-1 43 0 29 0 -1 0 I I #
attrib_hh_vertex_geombuild-attrib_entity_geombuild-individual_entity_attribute-attrib_HH-attrib $-1 $-1 $-1 $440 F #
point $-1 43 56.774964387392103 29 #
attrib_hh_coedge_geombuild-attrib_entity_geombuild-individual_entity_attribute-attrib_HH-attrib $-1 $-1 $-1 $443 F #
convexity-sys-attrib $-1 $666 $445 $282 #
model_id-kcp-attrib $-1 $667 $-1 $448 1 1017635108 80 2085617665 11 #
vertex $668 $658 $669 #
straight-curve $-1 50 0 36 0 1 0 I I #
convexity-sys-attrib $-1 $670 $452 $291 #
attrib_hh_edge_geombuild-attrib_entity_geombuild-individual_entity_attribute-attrib_HH-attrib $-1 $-1 $-1 $455 F #
straight-curve $-1 58 -48 36 -1 0 0 I I #
attrib_hh_edge_geombuild-attrib_entity_geombuild-individual_entity_attribute-attrib_HH-attrib $-1 $-1 $456 $169 F #
attrib_hh_coedge_geombuild-attrib_entity_geombuild-individual_entity_attribute-attrib_HH-attrib $-1 $-1 $-1 $461 F #
attrib_hh_edge_geombuild-attrib_entity_geombuild-individual_entity_attribute-attrib_HH-attrib $-1 $-1 $462 $177 F #
convexity-sys-attrib $-1 $671 $465 $309 #
attrib_hh_vertex_geombuild-attrib_entity_geombuild-individual_entity_attribute-attrib_HH-attrib $-1 $-1 $-1 $466 F #
point $-1 43 -56.774964387392103 25 #
attrib_hh_edge_geombuild-attrib_entity_geombuild-individual_entity_attribute-attrib_HH-attrib $-1 $-1 $468 $113 F #
attrib_hh_edge_geombuild-attrib_entity_geombuild-individual_entity_attribute-attrib_HH-attrib $-1 $-1 $469 $189 F #
straight-curve $-1 -15 57 0 0 0 -1 I I #
point $-1 -15 -57 -9 #
straight-curve $-1 -15 0 -9 0 1 0 I I #
point $-1 -15 57 -9 #
face $-1 $672 $508 $39 $-1 $224 reversed single #
loop $-1 $-1 $620 $489 #
coedge $-1 $627 $626 $673 $674 reversed $490 $-1 #
coedge $-1 $673 $502 $492 $610 reversed $624 $-1 #
edge $-1 $675 7.894919286223331e-016 $357 1.5707963267948974 $492 $615 forward 7 unknown #
coedge $-1 $676 $616 $493 $612 forward $677 $-1 #
edge $-1 $618 -57 $614 -48 $493 $644 forward 7 unknown #
coedge $-1 $495 $501 $676 $678 reversed $503 $-1 #
vertex $-1 $496 $679 #
ellipse-curve $-1 -15 -48.000000000000007 -7.1054273576010019e-015 1 0 0 0 7.1054273576010019e-015 9.0000000000000053 1 I I #
coedge $-1 $611 $680 $497 $617 forward $677 $-1 #
edge $-1 $621 -15 $618 15 $497 $681 forward 7 unknown #
vertex $-1 $612 $682 #
coedge $-1 $620 $499 $680 $683 reversed $607 $-1 #
coedge $-1 $499 $619 $501 $622 forward $607 $-1 #
vertex $-1 $500 $684 #
edge $-1 $685 -3.1415926535897944 $358 -1.5707963267948974 $620 $686 forward 7 unknown #
coedge $-1 $502 $673 $506 $629 reversed $624 $-1 #
loop $-1 $-1 $623 $687 #
face $-1 $687 $503 $39 $-1 $688 reversed single #
coedge $-1 $608 $504 $507 $630 forward $490 $-1 #
coedge $-1 $504 $608 $511 $632 forward $490 $-1 #
straight-curve $-1 0 -57 9 1 0 0 I I #
edge $-1 $358 -1.5707963267948974 $689 -7.894919286223331e-016 $506 $686 forward 7 unknown #
edge $-1 $509 -57 $689 -48.000000000000007 $507 $542 forward 7 unknown #
point $-1 15 -57 9 #
edge $-1 $675 48.000000000000007 $512 57 $511 $645 forward 7 unknown #
point $-1 -15 -57 9 #
plane-surface $-1 0 0 -9 0 0 1 1 0 0 forward_v I I I I #
edge $-1 $543 -57 $526 -48 $517 $690 forward 7 unknown #
edge $-1 $540 -15 $637 15 $520 $691 forward 7 unknown #
vertex $-1 $636 $692 #
straight-curve $-1 -15 57 0 0 0 -1 I I #
coedge $-1 $524 $523 $641 $693 forward $525 $-1 #
point $-1 15 48 -9 #
coedge $-1 $529 $528 $639 $693 reversed $530 $-1 #
face $-1 $385 $530 $28 $-1 $133 reversed single #
vertex $-1 $693 $694 #
straight-curve $-1 -15 0 -9 0 1 0 I I #
straight-curve $-1 -15 0 9 0 -1 0 I I #
point $-1 15 57 9 #
point $-1 15 57 -9 #
straight-curve $-1 -15 0 -9 0 1 0 I I #
point $-1 -15 -48 -9 #
point $-1 -15 48 -9 #
ellipse-curve $-1 -15 48.000000000000007 7.1054273576010019e-015 -1 0 0 0 -7.1054273576010019e-015 -9.0000000000000053 1 I I #
straight-curve $-1 -15 0 9 0 -1 0 I I #
point $-1 -15 -48.000000000000007 9 #
point $-1 -15 48 9 #
straight-curve $-1 15 48.000000000000007 9 -1 0 0 I I #
attrib_hh_face_geombuild-attrib_entity_geombuild-individual_entity_attribute-attrib_HH-attrib $-1 $-1 $571 $430 F #
attrib_hh_coedge_geombuild-attrib_entity_geombuild-individual_entity_attribute-attrib_HH-attrib $-1 $-1 $-1 $574 F #
edge $695 $589 -9.8686491077791613e-017 $582 1.346703234493525 $580 $696 forward 7 unknown #
attrib_hh_edge_geombuild-attrib_entity_geombuild-individual_entity_attribute-attrib_HH-attrib $-1 $-1 $-1 $576 F #
ellipse-curve $-1 43 -48 27 1 0 0 0 -6.3639610306789303 -6.3639610306789303 1 I I #
convexity-sys-attrib $-1 $697 $577 $435 #
attrib_hh_coedge_geombuild-attrib_entity_geombuild-individual_entity_attribute-attrib_HH-attrib $-1 $-1 $-1 $580 F #
convexity-sys-attrib $-1 $698 $581 $438 #
attrib_hh_vertex_geombuild-attrib_entity_geombuild-individual_entity_attribute-attrib_HH-attrib $-1 $-1 $-1 $582 F #
point $-1 43 -56.774964387392103 29 #
attrib_hh_edge_geombuild-attrib_entity_geombuild-individual_entity_attribute-attrib_HH-attrib $-1 $-1 $587 $282 F #
attrib_edge_convexity-kcp-attrib $-1 $699 $588 $448 1 #
attrib_hh_vertex_geombuild-attrib_entity_geombuild-individual_entity_attribute-attrib_HH-attrib $-1 $-1 $-1 $589 F #
point $-1 50 -48 36 #
attrib_hh_edge_geombuild-attrib_entity_geombuild-individual_entity_attribute-attrib_HH-attrib $-1 $-1 $591 $291 F #
attrib_hh_edge_geombuild-attrib_entity_geombuild-individual_entity_attribute-attrib_HH-attrib $-1 $-1 $597 $309 F #
face $-1 $625 $677 $39 $-1 $634 reversed single #
coedge $-1 $623 $609 $608 $674 forward $624 $-1 #
edge $-1 $675 -30 $689 0 $608 $700 forward 7 unknown #
vertex $-1 $632 $701 #
coedge $-1 $680 $611 $613 $678 forward $677 $-1 #
loop $-1 $-1 $676 $672 #
edge $-1 $614 -30 $685 0 $676 $702 forward 7 unknown #
point $-1 -15 -48 -9 #
coedge $-1 $616 $676 $619 $683 forward $677 $-1 #
straight-curve $-1 0 -57 -9 -1 0 0 I I #
point $-1 -15 -57 -9 #
edge $-1 $685 48 $621 57 $619 $690 forward 7 unknown #
point $-1 15 -57 -9 #
vertex $-1 $683 $703 #
ellipse-curve $-1 15 -48.000000000000007 -7.1054273576010019e-015 -1 0 0 0 7.1054273576010019e-015 9.0000000000000053 1 I I #
face $-1 $-1 $624 $39 $-1 $688 reversed single #
cone-surface $-1 15 -48.000000000000007 -7.1054273576010019e-015 1 0 0 0 7.1054273576010019e-015 9.0000000000000053 1 I I 0 1 9.0000000000000053 forward I I I I #
vertex $-1 $629 $704 #
straight-curve $-1 15 0 -9 0 -1 0 I I #
straight-curve $-1 0 57 9 -1 0 0 I I #
point $-1 -15 57 9 #
edge $-1 $643 -15 $543 15 $641 $705 forward 7 unknown #
point $-1 -15 57 -9 #
attrib_edge_convexity-kcp-attrib $-1 $706 $-1 $658 1 #
ellipse-curve $-1 41 -48 27 0.70710678118654757 0 -0.70710678118654757 9 -8.8817841970012504e-016 9 0.70710678118654802 I I #
attrib_hh_edge_geombuild-attrib_entity_geombuild-individual_entity_attribute-attrib_HH-attrib $-1 $-1 $661 $435 F #
attrib_hh_edge_geombuild-attrib_entity_geombuild-individual_entity_attribute-attrib_HH-attrib $-1 $-1 $663 $438 F #
convexity-sys-attrib $-1 $707 $667 $448 #
straight-curve $-1 15 -48.000000000000007 9 1 0 0 I I #
point $-1 -15 -48.000000000000007 9 #
straight-curve $-1 15 -48.000000000000007 -9 1 0 0 I I #
point $-1 15 -48 -9 #
point $-1 15 -48.000000000000007 9 #
straight-curve $-1 0 57 -9 1 0 0 I I #
convexity-sys-attrib $-1 $708 $695 $658 #
attrib_hh_edge_geombuild-attrib_entity_geombuild-individual_entity_attribute-attrib_HH-attrib $-1 $-1 $699 $448 F #
attrib_hh_edge_geombuild-attrib_entity_geombuild-individual_entity_attribute-attrib_HH-attrib $-1 $-1 $706 $658 F #
End-of-ACIS-data 