600 0 1 0           
103 GICL ACIS Healer - Source: /gicl/data5/repository/UMD/tmp/chamfer1-feature2/chamfer1-feature2.sat - 6 0 18 ACIS 6.0.3 Solaris 24 Sun Apr 14 00:33:57 2002 
1 9.999999999999999547e-07 1.000000000000000036e-10 
body $-1 $1 $-1 $-1 #
lump $-1 $-1 $2 $0 #
shell $-1 $-1 $-1 $3 $-1 $1 #
face $-1 $4 $5 $2 $-1 $6 reversed single #
face $-1 $7 $8 $2 $-1 $9 reversed single #
loop $-1 $-1 $10 $3 #
plane-surface $-1 58 0 18 0 0 1 1 0 0 forward_v I I I I #
face $-1 $11 $12 $2 $-1 $13 forward single #
loop $-1 $-1 $14 $4 #
plane-surface $-1 73 0 27 -1 0 0 0 0 1 forward_v I I I I #
coedge $-1 $15 $16 $17 $18 reversed $5 $-1 #
face $-1 $19 $20 $2 $-1 $21 reversed single #
loop $-1 $-1 $22 $7 #
cone-surface $-1 61.5 48 27 -1 0 0 0 6.363961030678930264 6.363961030678930264 1 I I 0 1 9.000000000000003553 forward I I I I #
coedge $-1 $23 $24 $25 $26 reversed $8 $-1 #
coedge $-1 $27 $10 $24 $28 forward $5 $-1 #
coedge $-1 $10 $27 $29 $30 reversed $5 $-1 #
coedge $-1 $31 $25 $10 $18 forward $12 $-1 #
edge $-1 $32 -15 $33 8 $10 $34 forward 7 unknown #
face $-1 $35 $36 $2 $-1 $37 forward single #
loop $-1 $-1 $38 $11 #
plane-surface $-1 43 0 27 1 0 0 0 0 -1 forward_v I I I I #
coedge $-1 $25 $39 $40 $41 forward $12 $-1 #
coedge $-1 $42 $14 $43 $44 reversed $8 $-1 #
coedge $-1 $14 $42 $15 $28 reversed $8 $-1 #
coedge $-1 $17 $22 $14 $26 forward $12 $-1 #
edge $-1 $45 -0.785398163397448279 $32 2.356194490192344837 $14 $46 forward 7 unknown #
coedge $-1 $16 $15 $47 $48 reversed $5 $-1 #
edge $-1 $32 -48 $49 48 $24 $50 forward 7 unknown #
coedge $-1 $51 $52 $16 $30 forward $36 $-1 #
edge $-1 $33 -48 $53 48 $16 $54 forward 7 unknown #
coedge $-1 $55 $17 $52 $56 forward $12 $-1 #
vertex $-1 $26 $57 #
vertex $-1 $56 $58 #
straight-curve $-1 58 48 18 -1 -0 -0 I I #
face $-1 $59 $60 $2 $-1 $61 forward single #
loop $-1 $-1 $52 $19 #
plane-surface $-1 46.5 0 21.5 -0.7071067811865475727 0 -0.7071067811865475727 -0.7071067811865480168 0 0.7071067811865480168 forward_v I I I I #
coedge $-1 $62 $63 $55 $64 reversed $20 $-1 #
coedge $-1 $22 $55 $65 $66 forward $12 $-1 #
coedge $-1 $67 $43 $22 $41 reversed $68 $-1 #
edge $-1 $69 -8 $45 15 $40 $70 forward 7 unknown #
coedge $-1 $24 $23 $71 $72 reversed $8 $-1 #
coedge $-1 $40 $73 $23 $44 forward $68 $-1 #
edge $-1 $74 -48 $45 48 $23 $75 forward 7 unknown #
vertex $-1 $44 $76 #
ellipse-curve $-1 73 48 27 -1 0 0 0 6.363961030678930264 6.363961030678930264 1 I I #
coedge $-1 $71 $77 $27 $48 forward $60 $-1 #
edge $-1 $53 -8 $49 15 $27 $78 forward 7 unknown #
vertex $-1 $28 $79 #
straight-curve $-1 73 0 18 0 -1 0 I I #
coedge $-1 $80 $29 $77 $81 reversed $36 $-1 #
coedge $-1 $29 $80 $31 $56 reversed $36 $-1 #
vertex $-1 $30 $82 #
straight-curve $-1 50 0 18 -0 -1 -0 I I #
coedge $-1 $39 $31 $38 $64 forward $12 $-1 #
edge $-1 $33 -9.868649107779161305e-17 $83 1.346703234493525025 $52 $84 forward 7 unknown #
point $-1 73 48 18 #
point $-1 50 48 18 #
face $-1 $85 $68 $2 $-1 $86 forward single #
loop $-1 $-1 $87 $35 #
cone-surface $-1 61.5 -48 27 1 0 0 0 -6.363961030678930264 6.363961030678930264 1 I I 0 1 9.000000000000003553 forward I I I I #
coedge $-1 $88 $38 $80 $89 reversed $20 $-1 #
coedge $-1 $38 $88 $90 $91 reversed $20 $-1 #
edge $-1 $83 -1.00949125569881959 $92 -0.5613050710960769685 $38 $93 forward 7 unknown #
coedge $-1 $90 $94 $39 $66 reversed $95 $-1 #
edge $-1 $92 -1.346703234493525025 $69 9.868649107779161305e-17 $65 $96 forward 7 unknown #
coedge $-1 $73 $40 $94 $97 reversed $68 $-1 #
loop $-1 $-1 $40 $59 #
vertex $-1 $97 $98 #
straight-curve $-1 58 48 36 1 0 0 I I #
coedge $-1 $87 $47 $42 $72 forward $60 $-1 #
edge $-1 $49 -2.356194490192344837 $74 0.785398163397448279 $42 $99 forward 7 unknown #
coedge $-1 $43 $67 $87 $100 reversed $68 $-1 #
vertex $-1 $72 $101 #
straight-curve $-1 73 0 36 0 1 0 I I #
point $-1 73 48 36 #
coedge $-1 $47 $102 $51 $81 forward $60 $-1 #
straight-curve $-1 58 -48 18 1 0 0 I I #
point $-1 73 -48 18 #
coedge $-1 $52 $51 $62 $89 forward $36 $-1 #
edge $-1 $103 -1.346703234493525025 $53 9.868649107779161305e-17 $51 $104 forward 7 unknown #
point $-1 50 -48 18 #
vertex $-1 $89 $105 #
ellipse-curve $-1 41 48 27 0.7071067811865475727 0 0.7071067811865475727 9 8.881784197001250351e-16 -9 0.7071067811865480168 I I #
face $-1 $-1 $95 $2 $-1 $106 forward single #
plane-surface $-1 58 0 36 0 0 1 1 0 0 forward_v I I I I #
coedge $-1 $107 $71 $73 $100 forward $60 $-1 #
coedge $-1 $63 $62 $102 $108 reversed $20 $-1 #
edge $-1 $103 -56.77496438739210305 $83 56.77496438739210305 $62 $109 forward 7 unknown #
coedge $-1 $110 $65 $63 $91 forward $95 $-1 #
edge $-1 $92 -56.77496438739210305 $111 56.77496438739210305 $63 $112 forward 7 unknown #
vertex $-1 $66 $113 #
ellipse-curve $-1 43 48 27 1 0 0 0 6.363961030678930264 6.363961030678930264 1 I I #
coedge $-1 $65 $110 $67 $97 forward $95 $-1 #
loop $-1 $-1 $65 $85 #
ellipse-curve $-1 41 48 27 0.7071067811865475727 0 -0.7071067811865475727 9 8.881784197001250351e-16 9 0.7071067811865480168 I I #
edge $-1 $114 -48 $69 48 $67 $115 forward 7 unknown #
point $-1 50 48 36 #
ellipse-curve $-1 73 -48 27 -1 0 0 0 -6.363961030678930264 6.363961030678930264 1 I I #
edge $-1 $74 -15 $114 8 $73 $116 forward 7 unknown #
point $-1 73 -48 36 #
coedge $-1 $77 $107 $88 $108 forward $60 $-1 #
vertex $-1 $81 $117 #
ellipse-curve $-1 41 -48 27 0.7071067811865475727 0 0.7071067811865475727 9 -8.881784197001250351e-16 -9 0.7071067811865480168 I I #
point $-1 43 56.77496438739210305 25 #
plane-surface $-1 46.5 0 32.5 -0.7071067811865475727 0 0.7071067811865475727 0.7071067811865480168 0 0.7071067811865480168 forward_v I I I I #
coedge $-1 $102 $87 $110 $118 forward $60 $-1 #
edge $-1 $111 -1.00949125569881959 $103 -0.5613050710960769685 $88 $119 forward 7 unknown #
straight-curve $-1 43 0 25 0 1 0 I I #
coedge $-1 $94 $90 $107 $118 reversed $95 $-1 #
vertex $-1 $91 $120 #
straight-curve $-1 43 0 29 0 -1 0 I I #
point $-1 43 56.77496438739210305 29 #
vertex $-1 $118 $121 #
straight-curve $-1 50 0 36 0 1 0 I I #
straight-curve $-1 58 -48 36 -1 -0 -0 I I #
point $-1 43 -56.77496438739210305 25 #
edge $-1 $114 -9.868649107779161305e-17 $111 1.346703234493525025 $110 $122 forward 7 unknown #
ellipse-curve $-1 43 -48 27 1 0 0 0 -6.363961030678930264 -6.363961030678930264 1 I I #
point $-1 43 -56.77496438739210305 29 #
point $-1 50 -48 36 #
ellipse-curve $-1 41 -48 27 0.7071067811865475727 0 -0.7071067811865475727 9 -8.881784197001250351e-16 9 0.7071067811865480168 I I #
End-of-ACIS-data 