600 0 2 0           
24 FBMach with ACIS - 6.0.3 13 ACIS 6.0.3 NT 24 Tue May 22 12:24:24 2001 
1 9.9999999999999995e-007 1e-010 
body $2 $3 $-1 $4 #
bdycol-kcp $-1 1 4 $5 $6 $7 $8 #
model_id-kcp-attrib $-1 $-1 $-1 $0 1 990548663 70 -750387199 1 #
lump $-1 $-1 $9 $0 #
transform $-1 1.0000000000000002 0 0 0 1 0 0 0 1.0000000000000002 58 0 26.999999999999993 1 rotate no_reflect no_shear #
body $10 $11 $-1 $12 #
body $13 $14 $-1 $15 #
body $16 $17 $-1 $18 #
body $19 $20 $-1 $21 #
shell $-1 $-1 $-1 $22 $-1 $3 #
model_id-kcp-attrib $-1 $-1 $-1 $5 1 990548663 70 -750387198 1 #
lump $-1 $-1 $23 $5 #
transform $-1 1 0 0 0 1 0 0 0 1 58 0 27 1 no_rotate no_reflect no_shear #
rgb_color-st-attrib $-1 $24 $-1 $6 0.5 1 1 #
lump $-1 $25 $26 $6 #
transform $-1 1 0 0 0 1 0 0 0 1 58 0 27 1 no_rotate no_reflect no_shear #
rgb_color-st-attrib $-1 $27 $-1 $7 0.5 0.5 1 #
lump $-1 $-1 $28 $7 #
transform $-1 1 0 0 0 1 0 0 0 1 58 0 27 1 no_rotate no_reflect no_shear #
rgb_color-st-attrib $-1 $29 $-1 $8 0.5 0.5 1 #
lump $-1 $-1 $30 $8 #
transform $-1 1 0 0 0 1 0 0 0 1 58 0 27 1 no_rotate no_reflect no_shear #
face $31 $32 $33 $9 $-1 $34 reversed single #
shell $-1 $-1 $-1 $35 $-1 $11 #
model_id-kcp-attrib $-1 $-1 $13 $6 1 990548663 711 -741933053 1 #
lump $-1 $-1 $36 $6 #
shell $-1 $-1 $-1 $37 $-1 $14 #
model_id-kcp-attrib $-1 $-1 $16 $7 1 990548663 841 -750190588 1 #
shell $-1 $-1 $-1 $38 $-1 $17 #
model_id-kcp-attrib $-1 $-1 $19 $8 1 990548663 921 -744947707 1 #
shell $-1 $-1 $-1 $39 $-1 $20 #
model_id-kcp-attrib $-1 $-1 $-1 $22 1 990548663 70 -750387199 2 #
face $40 $41 $42 $9 $-1 $43 reversed single #
loop $-1 $-1 $44 $22 #
plane-surface $-1 0 0 -9 0 0 1 1 0 0 forward_v I I I I #
face $45 $46 $47 $23 $-1 $48 forward single #
shell $-1 $-1 $-1 $49 $-1 $25 #
face $-1 $50 $51 $26 $-1 $52 reversed single #
face $-1 $53 $54 $28 $-1 $55 reversed single #
face $-1 $56 $57 $30 $-1 $58 reversed single #
model_id-kcp-attrib $-1 $59 $-1 $32 1 990548663 70 -750387199 10 #
face $60 $61 $62 $9 $-1 $63 forward single #
loop $-1 $-1 $64 $32 #
plane-surface $-1 15 0 0 -1 0 0 0 0 1 forward_v I I I I #
coedge $-1 $65 $66 $67 $68 reversed $33 $-1 #
model_id-kcp-attrib $-1 $-1 $-1 $35 1 990548663 70 -750387198 5 #
face $69 $70 $71 $23 $-1 $72 reversed single #
loop $-1 $-1 $73 $35 #
plane-surface $-1 0 0 9.0000000000000018 0 0 1 1 0 0 forward_v I I I I #
face $-1 $74 $75 $36 $-1 $76 reversed single #
face $-1 $77 $78 $26 $-1 $52 reversed single #
loop $-1 $-1 $79 $37 #
cone-surface $-1 15 48.000000000000007 7.1054273576010019e-015 1 0 0 0 -7.1054273576010019e-015 -9.0000000000000071 1 I I 0 1 9.0000000000000071 forward I I I I #
face $-1 $80 $81 $28 $-1 $82 reversed single #
loop $-1 $-1 $83 $38 #
plane-surface $-1 -11.499999999999986 0 -5.4999999999999858 -0.70710678118654757 0 -0.70710678118654757 0 -1 0 forward_v I I I I #
face $-1 $84 $85 $30 $-1 $86 reversed single #
loop $-1 $-1 $87 $39 #
plane-surface $-1 -11.499999999999972 0 5.5 -0.70710678118654757 0 0.70710678118654757 0 -1 0 forward_v I I I I #
model_id-kcp-attrib $-1 $-1 $40 $32 1 990548663 70 -750387199 3 #
model_id-kcp-attrib $-1 $-1 $-1 $41 1 990548663 70 -750387199 4 #
face $88 $89 $90 $9 $-1 $91 reversed single #
loop $-1 $-1 $92 $41 #
cone-surface $-1 3.5 48 0 -1 0 0 0 6.3639610306789303 6.3639610306789303 1 I I 0 1 9.0000000000000036 forward I I I I #
coedge $-1 $93 $94 $95 $96 reversed $42 $-1 #
coedge $-1 $97 $44 $94 $98 forward $33 $-1 #
coedge $-1 $44 $97 $99 $100 reversed $33 $-1 #
coedge $-1 $101 $95 $44 $68 forward $62 $-1 #
edge $102 $103 -15 $104 8 $44 $105 forward 7 unknown #
model_id-kcp-attrib $-1 $-1 $-1 $46 1 990548663 70 -750387198 2 #
face $-1 $106 $107 $23 $-1 $108 reversed single #
loop $-1 $-1 $109 $46 #
plane-surface $-1 0 0 -9.0000000000000018 0 0 1 1 0 0 forward_v I I I I #
coedge $-1 $110 $111 $112 $113 forward $47 $-1 #
face $-1 $114 $115 $36 $-1 $76 reversed single #
loop $-1 $-1 $116 $49 #
plane-surface $-1 0 -57 0 0 1 0 0 0 1 forward_v I I I I #
face $-1 $117 $118 $26 $-1 $119 reversed single #
loop $-1 $-1 $120 $50 #
coedge $-1 $121 $122 $123 $124 reversed $51 $-1 #
face $-1 $125 $126 $28 $-1 $127 forward single #
loop $-1 $-1 $128 $53 #
plane-surface $-1 0 0 -9.0000000000000018 0 0 1 1 0 0 forward_v I I I I #
coedge $-1 $129 $130 $131 $132 forward $54 $-1 #
face $-1 $133 $134 $30 $-1 $135 forward single #
loop $-1 $-1 $136 $56 #
plane-surface $-1 -15 0 0 1 0 0 0 0 -1 forward_v I I I I #
coedge $-1 $137 $138 $139 $140 forward $57 $-1 #
model_id-kcp-attrib $-1 $-1 $-1 $61 1 990548663 70 -750387199 5 #
face $141 $142 $143 $9 $-1 $144 forward single #
loop $-1 $-1 $145 $61 #
plane-surface $-1 -15 0 0 1 0 0 0 0 -1 forward_v I I I I #
coedge $-1 $95 $146 $147 $148 forward $62 $-1 #
coedge $-1 $149 $64 $150 $151 reversed $42 $-1 #
coedge $-1 $64 $149 $65 $98 reversed $42 $-1 #
coedge $-1 $67 $92 $64 $96 forward $62 $-1 #
edge $152 $153 -0.78539816339744828 $103 2.3561944901923448 $64 $154 forward 7 unknown #
coedge $-1 $66 $65 $155 $156 reversed $33 $-1 #
edge $157 $103 -48 $158 48 $94 $159 forward 7 unknown #
coedge $-1 $160 $161 $66 $100 forward $143 $-1 #
edge $162 $104 -48 $163 48 $66 $164 forward 7 unknown #
coedge $-1 $165 $67 $161 $166 forward $62 $-1 #
attrib_edge_convexity-kcp-attrib $-1 $167 $-1 $68 3 #
vertex $-1 $96 $168 #
vertex $-1 $166 $169 #
straight-curve $-1 0 48 -9 -1 0 0 I I #
face $170 $171 $172 $23 $-1 $173 reversed single #
loop $-1 $-1 $174 $70 #
plane-surface $-1 0 -57 0 0 1 0 0 0 1 forward_v I I I I #
coedge $-1 $175 $176 $177 $178 forward $71 $-1 #
coedge $-1 $179 $73 $180 $181 forward $47 $-1 #
coedge $-1 $73 $179 $182 $183 forward $47 $-1 #
coedge $-1 $184 $185 $73 $113 reversed $186 $-1 #
edge $-1 $187 -57 $188 57 $112 $189 forward 7 unknown #
face $-1 $190 $191 $36 $-1 $192 reversed single #
loop $-1 $-1 $193 $74 #
coedge $-1 $194 $195 $193 $196 forward $75 $-1 #
face $-1 $197 $198 $26 $-1 $199 reversed single #
loop $-1 $-1 $200 $77 #
plane-surface $-1 0 57 0 0 -1 0 0 0 -1 forward_v I I I I #
coedge $-1 $201 $202 $203 $204 reversed $78 $-1 #
coedge $-1 $205 $79 $206 $207 reversed $51 $-1 #
coedge $-1 $79 $205 $202 $208 forward $51 $-1 #
coedge $-1 $209 $210 $79 $124 forward $211 $-1 #
edge $-1 $212 -3.1415926535897944 $213 -1.5707963267948974 $123 $214 forward 7 unknown #
face $-1 $215 $216 $28 $-1 $217 forward single #
loop $-1 $-1 $131 $80 #
cone-surface $-1 15 -48.000000000000007 -7.1054273576010019e-015 1 0 0 0 7.1054273576010019e-015 9.0000000000000071 1 I I 0 1 9.0000000000000071 forward I I I I #
coedge $-1 $218 $219 $129 $220 reversed $81 $-1 #
coedge $-1 $221 $83 $128 $220 forward $54 $-1 #
coedge $-1 $83 $221 $222 $223 forward $54 $-1 #
coedge $-1 $224 $225 $83 $132 reversed $126 $-1 #
edge $226 $227 1.7948894190962636 $228 3.141592653589794 $131 $229 forward 7 unknown #
face $-1 $230 $231 $30 $-1 $232 forward single #
loop $-1 $-1 $139 $84 #
cone-surface $-1 15 -48.000000000000007 -7.1054273576010019e-015 1 0 0 0 7.1054273576010019e-015 9.0000000000000071 1 I I 0 1 9.0000000000000071 forward I I I I #
coedge $-1 $233 $234 $137 $235 reversed $85 $-1 #
coedge $-1 $236 $87 $136 $235 forward $57 $-1 #
coedge $-1 $87 $236 $237 $238 forward $57 $-1 #
coedge $-1 $239 $240 $87 $140 reversed $134 $-1 #
edge $241 $242 7.894919286223331e-016 $243 1.346703234493529 $139 $244 forward 7 unknown #
model_id-kcp-attrib $-1 $-1 $-1 $89 1 990548663 70 -750387199 6 #
face $245 $246 $247 $9 $-1 $248 forward single #
loop $-1 $-1 $161 $89 #
plane-surface $-1 -11.5 0 -5.5 -0.70710678118654757 0 -0.70710678118654757 -0.70710678118654802 0 0.70710678118654802 forward_v I I I I #
coedge $-1 $249 $250 $165 $251 reversed $90 $-1 #
coedge $-1 $92 $165 $252 $253 forward $62 $-1 #
coedge $-1 $254 $150 $92 $148 reversed $255 $-1 #
edge $-1 $256 -8 $153 15 $147 $257 forward 7 unknown #
coedge $-1 $94 $93 $258 $259 reversed $42 $-1 #
coedge $-1 $147 $260 $93 $151 forward $255 $-1 #
edge $261 $262 -48 $153 48 $93 $263 forward 7 unknown #
attrib_edge_convexity-kcp-attrib $-1 $264 $-1 $96 1 #
vertex $-1 $151 $265 #
ellipse-curve $-1 15 48 0 -1 0 0 0 6.3639610306789303 6.3639610306789303 1 I I #
coedge $-1 $258 $266 $97 $156 forward $247 $-1 #
edge $267 $163 -8 $158 15 $97 $268 forward 7 unknown #
attrib_edge_convexity-kcp-attrib $-1 $269 $-1 $98 1 #
vertex $-1 $98 $270 #
straight-curve $-1 15 0 -9 0 -1 0 I I #
coedge $-1 $271 $99 $266 $272 reversed $143 $-1 #
coedge $-1 $99 $271 $101 $166 reversed $143 $-1 #
model_id-kcp-attrib $-1 $273 $-1 $100 1 990548663 70 -750387199 12 #
vertex $-1 $100 $274 #
straight-curve $-1 -8 0 -9 0 -1 0 I I #
coedge $-1 $146 $101 $145 $251 forward $62 $-1 #
edge $275 $104 -9.8686491077791613e-017 $276 1.3467032344935252 $161 $277 forward 7 unknown #
convexity-sys-attrib $-1 $-1 $102 $68 #
point $-1 15 48 -9 #
point $-1 -8 48 -9 #
model_id-kcp-attrib $-1 $-1 $-1 $106 1 990548663 70 -750387198 4 #
face $-1 $278 $279 $23 $-1 $280 reversed single #
loop $-1 $-1 $281 $106 #
plane-surface $-1 -15 0 0 1 0 0 0 0 -1 forward_v I I I I #
coedge $-1 $282 $182 $283 $284 forward $107 $-1 #
coedge $-1 $285 $109 $282 $286 forward $71 $-1 #
coedge $-1 $109 $285 $287 $288 forward $71 $-1 #
coedge $-1 $185 $184 $109 $178 reversed $186 $-1 #
edge $-1 $289 -57 $290 57 $177 $291 forward 7 unknown #
coedge $-1 $111 $110 $292 $293 forward $47 $-1 #
coedge $-1 $294 $295 $110 $181 reversed $279 $-1 #
edge $-1 $188 -15 $296 15 $180 $297 forward 7 unknown #
coedge $-1 $174 $298 $111 $183 reversed $107 $-1 #
edge $-1 $299 -15 $187 15 $182 $300 forward 7 unknown #
coedge $-1 $177 $112 $298 $301 forward $186 $-1 #
coedge $-1 $112 $177 $294 $302 reversed $186 $-1 #
loop $-1 $-1 $184 $278 #
vertex $-1 $113 $303 #
vertex $-1 $113 $304 #
straight-curve $-1 15 0 9.0000000000000018 0 1 0 I I #
face $-1 $305 $306 $36 $-1 $192 reversed single #
loop $-1 $-1 $307 $114 #
plane-surface $-1 -15 0 0 1 0 0 0 0 -1 forward_v I I I I #
coedge $-1 $308 $309 $310 $196 reversed $115 $-1 #
coedge $-1 $311 $116 $312 $313 reversed $75 $-1 #
coedge $-1 $116 $311 $314 $315 forward $75 $-1 #
edge $-1 $316 -30 $317 0 $116 $318 forward 7 unknown #
face $-1 $319 $320 $26 $-1 $192 reversed single #
loop $-1 $-1 $321 $117 #
plane-surface $-1 15 0 0 -1 0 0 0 0 1 forward_v I I I I #
coedge $-1 $322 $323 $122 $208 reversed $118 $-1 #
coedge $-1 $324 $120 $325 $326 forward $78 $-1 #
coedge $-1 $120 $324 $327 $208 reversed $78 $-1 #
coedge $-1 $328 $329 $120 $204 forward $330 $-1 #
edge $-1 $331 0 $332 1.5707963267948974 $203 $333 forward 7 unknown #
coedge $-1 $122 $121 $334 $335 reversed $51 $-1 #
coedge $-1 $336 $337 $121 $207 forward $338 $-1 #
edge $-1 $339 -30 $212 0 $206 $340 forward 7 unknown #
edge $-1 $332 -30 $213 0 $327 $341 forward 7 unknown #
coedge $-1 $210 $123 $323 $342 reversed $211 $-1 #
coedge $-1 $123 $209 $336 $343 reversed $211 $-1 #
loop $-1 $-1 $123 $344 #
vertex $-1 $343 $345 #
vertex $-1 $346 $347 #
ellipse-curve $-1 15 48.000000000000007 7.1054273576010019e-015 -1 0 0 0 -7.1054273576010019e-015 -9.0000000000000071 1 I I #
face $-1 $-1 $348 $28 $-1 $349 reversed single #
loop $-1 $-1 $350 $125 #
cone-surface $-1 15 48.000000000000007 7.1054273576010019e-015 1 0 0 0 -7.1054273576010019e-015 -9.0000000000000071 1 I I 0 1 9.0000000000000071 forward I I I I #
coedge $-1 $351 $128 $225 $352 forward $81 $-1 #
coedge $-1 $128 $351 $353 $354 reversed $81 $-1 #
edge $355 $228 -48.000000000000007 $356 48.000000000000007 $128 $357 forward 7 unknown #
coedge $-1 $130 $129 $350 $358 forward $54 $-1 #
coedge $-1 $359 $360 $130 $223 reversed $348 $-1 #
edge $361 $362 -56.774964387392146 $227 56.774964387392146 $222 $363 forward 7 unknown #
coedge $-1 $225 $131 $360 $364 reversed $126 $-1 #
coedge $-1 $131 $224 $218 $352 reversed $126 $-1 #
convexity-sys-attrib $-1 $-1 $-1 $132 #
vertex $-1 $132 $365 #
vertex $-1 $352 $366 #
ellipse-curve $-1 -16.999999999999964 -48.000000000000007 -7.1054273576010019e-015 0.70710678118654757 0 0.70710678118654757 -9.0000000000000071 7.1054273576010019e-015 9.0000000000000071 0.70710678118654746 I I #
face $-1 $-1 $367 $30 $-1 $368 forward single #
loop $-1 $-1 $369 $133 #
cone-surface $-1 15 48.000000000000007 7.1054273576010019e-015 1 0 0 0 -7.1054273576010019e-015 -9.0000000000000071 1 I I 0 1 9.0000000000000071 forward I I I I #
coedge $-1 $370 $136 $240 $371 forward $85 $-1 #
coedge $-1 $136 $370 $372 $373 forward $85 $-1 #
edge $374 $243 -56.774964387392146 $375 56.774964387392146 $136 $376 forward 7 unknown #
coedge $-1 $138 $137 $369 $377 forward $57 $-1 #
coedge $-1 $378 $379 $138 $238 reversed $367 $-1 #
edge $380 $381 -48.000000000000007 $242 48.000000000000007 $237 $382 forward 7 unknown #
coedge $-1 $240 $139 $379 $383 forward $134 $-1 #
coedge $-1 $139 $239 $233 $371 reversed $134 $-1 #
convexity-sys-attrib $-1 $-1 $-1 $140 #
vertex $-1 $383 $384 #
vertex $-1 $371 $385 #
ellipse-curve $-1 -16.999999999999979 -48.000000000000007 -7.1054273576010019e-015 0.70710678118654757 0 -0.70710678118654757 9.0000000000000071 7.1054273576010019e-015 9.0000000000000071 0.70710678118654746 I I #
model_id-kcp-attrib $-1 $-1 $-1 $142 1 990548663 70 -750387199 7 #
face $386 $387 $255 $9 $-1 $388 forward single #
loop $-1 $-1 $389 $142 #
cone-surface $-1 3.5 -48 0 1 0 0 0 -6.3639610306789303 6.3639610306789303 1 I I 0 1 9.0000000000000036 forward I I I I #
coedge $-1 $390 $145 $271 $391 reversed $90 $-1 #
coedge $-1 $145 $390 $392 $393 reversed $90 $-1 #
edge $-1 $276 -1.0094912556988196 $394 -0.56130507109607697 $145 $395 forward 7 unknown #
coedge $-1 $392 $396 $146 $253 reversed $397 $-1 #
edge $398 $394 -1.3467032344935252 $256 9.8686491077791613e-017 $252 $399 forward 7 unknown #
coedge $-1 $260 $147 $396 $400 reversed $255 $-1 #
loop $-1 $-1 $147 $246 #
vertex $-1 $400 $401 #
straight-curve $-1 0 48 9 1 0 0 I I #
coedge $-1 $389 $155 $149 $259 forward $247 $-1 #
edge $402 $158 -2.3561944901923448 $262 0.78539816339744828 $149 $403 forward 7 unknown #
coedge $-1 $150 $254 $389 $404 reversed $255 $-1 #
attrib_edge_convexity-kcp-attrib $-1 $405 $-1 $151 1 #
vertex $-1 $259 $406 #
straight-curve $-1 15 0 9 0 1 0 I I #
convexity-sys-attrib $-1 $-1 $152 $96 #
point $-1 15 48 9 #
coedge $-1 $155 $407 $160 $272 forward $247 $-1 #
attrib_edge_convexity-kcp-attrib $-1 $408 $-1 $156 3 #
straight-curve $-1 0 -48 -9 1 0 0 I I #
convexity-sys-attrib $-1 $-1 $157 $98 #
point $-1 15 -48 -9 #
coedge $-1 $161 $160 $249 $391 forward $143 $-1 #
edge $409 $410 -1.3467032344935252 $163 9.8686491077791613e-017 $160 $411 forward 7 unknown #
attrib_edge_convexity-kcp-attrib $-1 $412 $162 $100 1 #
point $-1 -8 -48 -9 #
attrib_edge_convexity-kcp-attrib $-1 $413 $-1 $166 1 #
vertex $-1 $391 $414 #
ellipse-curve $-1 -17 48 0 0.70710678118654757 0 0.70710678118654757 9 8.8817841970012504e-016 -9 0.70710678118654802 I I #
face $415 $-1 $186 $23 $-1 $416 reversed single #
loop $-1 $-1 $294 $171 #
plane-surface $-1 0 57 0 0 -1 0 0 0 -1 forward_v I I I I #
coedge $-1 $417 $292 $295 $418 forward $172 $-1 #
coedge $-1 $298 $174 $175 $286 reversed $107 $-1 #
coedge $-1 $292 $417 $174 $284 reversed $172 $-1 #
edge $-1 $299 -9.0000000000000018 $419 9.0000000000000018 $283 $420 forward 7 unknown #
coedge $-1 $176 $175 $417 $421 forward $71 $-1 #
edge $-1 $290 -15 $419 15 $282 $422 forward 7 unknown #
coedge $-1 $295 $294 $176 $288 reversed $279 $-1 #
edge $-1 $423 -15 $289 15 $287 $424 forward 7 unknown #
vertex $-1 $178 $425 #
vertex $-1 $301 $426 #
straight-curve $-1 15 0 -9.0000000000000018 0 -1 0 I I #
coedge $-1 $281 $283 $179 $293 reversed $172 $-1 #
edge $-1 $296 -57 $299 57 $292 $427 forward 7 unknown #
coedge $-1 $287 $180 $185 $302 forward $279 $-1 #
coedge $-1 $180 $287 $281 $418 reversed $279 $-1 #
vertex $-1 $181 $428 #
straight-curve $-1 0 57 9.0000000000000018 -1 0 0 I I #
coedge $-1 $182 $282 $184 $301 reversed $107 $-1 #
vertex $-1 $293 $429 #
straight-curve $-1 0 -57 9.0000000000000018 1 0 0 I I #
edge $-1 $187 -9.0000000000000018 $290 9.0000000000000018 $184 $430 forward 7 unknown #
edge $-1 $188 -9.0000000000000018 $289 9.0000000000000018 $185 $431 forward 7 unknown #
point $-1 15 -57 9.0000000000000018 #
point $-1 15 57 9.0000000000000018 #
face $-1 $432 $433 $36 $-1 $434 forward single #
loop $-1 $-1 $435 $190 #
coedge $-1 $436 $437 $438 $439 forward $191 $-1 #
coedge $-1 $440 $193 $437 $441 forward $115 $-1 #
coedge $-1 $193 $440 $442 $443 reversed $115 $-1 #
coedge $-1 $444 $438 $445 $196 forward $446 $-1 #
coedge $-1 $195 $194 $447 $448 reversed $75 $-1 #
coedge $-1 $449 $450 $194 $313 forward $451 $-1 #
edge $-1 $452 -9.0000000000000018 $317 7.1054273576010019e-015 $312 $453 forward 7 unknown #
coedge $-1 $454 $435 $195 $315 reversed $306 $-1 #
edge $-1 $455 -9.0000000000000018 $316 7.1054273576010019e-015 $314 $456 forward 7 unknown #
vertex $-1 $441 $457 #
vertex $-1 $443 $458 #
straight-curve $-1 15 -57 -7.1054273576010019e-015 1 0 0 I I #
face $-1 $459 $338 $26 $-1 $434 forward single #
loop $-1 $-1 $334 $197 #
coedge $-1 $460 $461 $324 $462 forward $198 $-1 #
coedge $-1 $463 $200 $464 $465 reversed $118 $-1 #
coedge $-1 $200 $463 $209 $342 forward $118 $-1 #
coedge $-1 $202 $201 $321 $462 reversed $78 $-1 #
coedge $-1 $466 $467 $201 $326 reversed $468 $-1 #
edge $-1 $331 -30 $469 0 $325 $470 forward 7 unknown #
coedge $-1 $471 $472 $200 $208 forward $473 $-1 #
coedge $-1 $329 $203 $472 $474 forward $330 $-1 #
coedge $-1 $203 $328 $466 $475 reversed $330 $-1 #
loop $-1 $-1 $203 $476 #
vertex $-1 $475 $477 #
vertex $-1 $474 $478 #
ellipse-curve $-1 -15 48.000000000000007 7.1054273576010019e-015 1 0 0 0 -7.1054273576010019e-015 -9.0000000000000071 1 I I #
coedge $-1 $479 $464 $205 $335 forward $320 $-1 #
edge $-1 $332 1.5707963267948974 $339 3.1415926535897944 $334 $333 forward 7 unknown #
coedge $-1 $480 $206 $210 $343 forward $338 $-1 #
coedge $-1 $206 $480 $479 $481 forward $338 $-1 #
loop $-1 $-1 $206 $319 #
vertex $-1 $335 $482 #
straight-curve $-1 15 48.000000000000007 9.0000000000000018 1 0 0 I I #
straight-curve $-1 15 57 7.1054273576010019e-015 1 0 0 I I #
edge $-1 $483 -9.0000000000000018 $213 -7.1054273576010019e-015 $209 $484 forward 7 unknown #
edge $-1 $212 48 $483 57 $210 $485 forward 7 unknown #
face $-1 $-1 $211 $26 $-1 $199 reversed single #
point $-1 15 48 9 #
edge $-1 $213 -7.1054273576010019e-015 $486 9.0000000000000018 $461 $484 forward 7 unknown #
point $-1 15 57 7.1054273576010019e-015 #
loop $-1 $-1 $222 $215 #
plane-surface $-1 -15 0 0 1 0 0 0 0 -1 forward_v I I I I #
coedge $-1 $353 $487 $221 $358 reversed $216 $-1 #
coedge $-1 $219 $218 $488 $489 forward $81 $-1 #
edge $-1 $228 22.999999999999968 $490 30 $218 $491 forward 7 unknown #
coedge $-1 $487 $350 $219 $354 forward $216 $-1 #
edge $-1 $356 22.999999999999968 $492 30 $219 $493 forward 7 unknown #
convexity-sys-attrib $-1 $-1 $-1 $220 #
vertex $-1 $354 $494 #
straight-curve $-1 -7.9999999999999716 0 -9.0000000000000018 0 1 0 I I #
edge $495 $356 7.894919286223331e-016 $362 1.3467032344935288 $350 $496 forward 7 unknown #
coedge $-1 $488 $222 $487 $497 forward $348 $-1 #
coedge $-1 $222 $488 $224 $364 forward $348 $-1 #
convexity-sys-attrib $-1 $-1 $-1 $223 #
vertex $-1 $497 $498 #
straight-curve $-1 -15 0 -1.9999999999999716 0 -1 0 I I #
edge $-1 $490 -3.1415926535897944 $227 -1.7948894190962641 $360 $499 forward 7 unknown #
point $-1 -15 -56.774964387392146 -1.9999999999999716 #
point $-1 -7.999999999999968 -48.000000000000007 -9.0000000000000018 #
loop $-1 $-1 $237 $230 #
plane-surface $-1 0 0 9.0000000000000018 0 0 1 1 0 0 forward_v I I I I #
coedge $-1 $372 $500 $236 $377 reversed $231 $-1 #
coedge $-1 $234 $233 $501 $502 reversed $85 $-1 #
edge $-1 $243 -1.3467032344935292 $503 -7.894919286223329e-016 $233 $504 forward 7 unknown #
coedge $-1 $500 $369 $234 $373 reversed $231 $-1 #
edge $-1 $505 -3.1415926535897944 $375 -1.7948894190962641 $234 $506 forward 7 unknown #
convexity-sys-attrib $-1 $-1 $-1 $235 #
vertex $-1 $235 $507 #
straight-curve $-1 -15 0 1.9999999999999716 0 1 0 I I #
edge $508 $375 1.7948894190962636 $381 3.141592653589794 $369 $509 forward 7 unknown #
coedge $-1 $501 $237 $500 $510 forward $367 $-1 #
coedge $-1 $237 $501 $239 $383 reversed $367 $-1 #
convexity-sys-attrib $-1 $-1 $-1 $238 #
vertex $-1 $510 $511 #
straight-curve $-1 -7.9999999999999698 0 9.0000000000000018 0 -1 0 I I #
edge $-1 $242 22.999999999999968 $503 30 $379 $512 forward 7 unknown #
point $-1 -7.999999999999968 -48.000000000000007 9.0000000000000018 #
point $-1 -15 -56.774964387392146 1.9999999999999714 #
model_id-kcp-attrib $-1 $-1 $-1 $246 1 990548663 70 -750387199 8 #
face $513 $-1 $397 $9 $-1 $514 forward single #
plane-surface $-1 0 0 9 0 0 1 1 0 0 forward_v I I I I #
coedge $-1 $515 $258 $260 $404 forward $247 $-1 #
coedge $-1 $250 $249 $407 $516 reversed $90 $-1 #
edge $517 $410 -56.774964387392103 $276 56.774964387392103 $249 $518 forward 7 unknown #
coedge $-1 $519 $252 $250 $393 forward $397 $-1 #
edge $520 $394 -56.774964387392103 $521 56.774964387392103 $250 $522 forward 7 unknown #
vertex $-1 $253 $523 #
ellipse-curve $-1 -15 48 0 1 0 0 0 6.3639610306789303 6.3639610306789303 1 I I #
coedge $-1 $252 $519 $254 $400 forward $397 $-1 #
loop $-1 $-1 $252 $387 #
attrib_edge_convexity-kcp-attrib $-1 $524 $-1 $253 1 #
ellipse-curve $-1 -17 48 0 0.70710678118654757 0 -0.70710678118654757 9 8.8817841970012504e-016 9 0.70710678118654802 I I #
edge $525 $526 -48 $256 48 $254 $527 forward 7 unknown #
point $-1 -8 48 9 #
attrib_edge_convexity-kcp-attrib $-1 $528 $-1 $259 1 #
ellipse-curve $-1 15 -48 0 -1 0 0 0 -6.3639610306789303 6.3639610306789303 1 I I #
edge $-1 $262 -15 $526 8 $260 $529 forward 7 unknown #
convexity-sys-attrib $-1 $-1 $261 $151 #
point $-1 15 -48 9 #
coedge $-1 $266 $515 $390 $516 forward $247 $-1 #
convexity-sys-attrib $-1 $-1 $267 $156 #
attrib_edge_convexity-kcp-attrib $-1 $530 $-1 $272 1 #
vertex $-1 $272 $531 #
ellipse-curve $-1 -17 -48 0 0.70710678118654757 0 0.70710678118654757 9 -8.8817841970012504e-016 -9 0.70710678118654802 I I #
convexity-sys-attrib $-1 $-1 $273 $100 #
convexity-sys-attrib $-1 $-1 $275 $166 #
point $-1 -15 56.774964387392103 -2 #
model_id-kcp-attrib $-1 $-1 $-1 $278 1 990548663 70 -750387198 3 #
plane-surface $-1 15 0 0 -1 0 0 0 0 1 forward_v I I I I #
coedge $-1 $283 $281 $285 $421 reversed $172 $-1 #
edge $-1 $296 -9.0000000000000018 $423 9.0000000000000018 $295 $532 forward 7 unknown #
vertex $-1 $421 $533 #
straight-curve $-1 -15 -57 0 0 0 -1 I I #
edge $-1 $419 -57 $423 57 $417 $534 forward 7 unknown #
straight-curve $-1 0 -57 -9.0000000000000018 -1 0 0 I I #
vertex $-1 $288 $535 #
straight-curve $-1 0 57 -9.0000000000000018 1 0 0 I I #
point $-1 15 57 -9.0000000000000018 #
point $-1 15 -57 -9.0000000000000018 #
straight-curve $-1 -15 0 9.0000000000000018 0 -1 0 I I #
point $-1 -15 57 9.0000000000000018 #
point $-1 -15 -57 9.0000000000000018 #
straight-curve $-1 15 -57 0 0 0 -1 I I #
straight-curve $-1 15 57 0 0 0 -1 I I #
face $-1 $536 $537 $36 $-1 $199 reversed single #
loop $-1 $-1 $538 $305 #
plane-surface $-1 0 0 9.0000000000000018 0 0 1 1 0 0 forward_v I I I I #
coedge $-1 $314 $454 $539 $540 forward $306 $-1 #
coedge $-1 $437 $307 $541 $542 reversed $191 $-1 #
coedge $-1 $307 $436 $308 $441 reversed $191 $-1 #
coedge $-1 $310 $543 $307 $439 reversed $446 $-1 #
edge $-1 $316 1.5707963267948974 $544 3.1415926535897944 $307 $545 forward 7 unknown #
coedge $-1 $309 $308 $546 $547 reversed $115 $-1 #
edge $-1 $316 7.1054273576010019e-015 $548 9.0000000000000018 $437 $456 forward 7 unknown #
coedge $-1 $549 $550 $309 $443 forward $537 $-1 #
edge $-1 $317 7.1054273576010019e-015 $551 9.0000000000000018 $442 $453 forward 7 unknown #
coedge $-1 $543 $310 $550 $552 reversed $446 $-1 #
coedge $-1 $539 $553 $116 $196 reversed $554 $-1 #
loop $-1 $-1 $438 $555 #
coedge $-1 $556 $557 $311 $448 forward $433 $-1 #
edge $-1 $455 -15 $452 15 $311 $558 forward 7 unknown #
coedge $-1 $450 $312 $553 $559 forward $451 $-1 #
coedge $-1 $312 $449 $556 $560 reversed $451 $-1 #
loop $-1 $-1 $449 $536 #
vertex $-1 $560 $561 #
straight-curve $-1 15 -57 0 0 0 -1 I I #
coedge $-1 $435 $314 $557 $562 reversed $306 $-1 #
vertex $-1 $562 $563 #
straight-curve $-1 -15 -57 0 0 0 -1 I I #
point $-1 -15 -57 -7.1054273576010019e-015 #
point $-1 15 -57 -7.1054273576010019e-015 #
face $-1 $476 $468 $26 $-1 $564 reversed single #
coedge $-1 $461 $321 $467 $565 reversed $198 $-1 #
coedge $-1 $321 $460 $471 $346 reversed $198 $-1 #
edge $-1 $213 -1.5707963267948974 $469 0 $321 $214 forward 7 unknown #
coedge $-1 $323 $322 $480 $566 reversed $118 $-1 #
coedge $-1 $334 $479 $322 $465 forward $320 $-1 #
edge $-1 $567 -9.0000000000000018 $332 -7.1054273576010019e-015 $322 $568 forward 7 unknown #
coedge $-1 $569 $325 $329 $475 forward $468 $-1 #
coedge $-1 $325 $569 $460 $565 forward $468 $-1 #
loop $-1 $-1 $325 $459 #
vertex $-1 $462 $570 #
straight-curve $-1 15 48.000000000000007 -9.0000000000000018 1 0 0 I I #
coedge $-1 $571 $327 $461 $346 forward $473 $-1 #
coedge $-1 $327 $571 $328 $474 reversed $473 $-1 #
loop $-1 $-1 $327 $572 #
edge $-1 $332 -7.1054273576010019e-015 $573 9.0000000000000018 $472 $568 forward 7 unknown #
edge $-1 $331 48 $573 57 $329 $574 forward 7 unknown #
face $-1 $572 $330 $26 $-1 $192 reversed single #
point $-1 -15 48 -9 #
point $-1 -15 57 7.1054273576010019e-015 #
coedge $-1 $464 $334 $337 $481 reversed $320 $-1 #
coedge $-1 $337 $336 $463 $566 forward $338 $-1 #
edge $-1 $567 -57 $339 -48 $479 $575 forward 7 unknown #
point $-1 -15 48 9 #
vertex $-1 $343 $576 #
straight-curve $-1 15 57 0 0 0 -1 I I #
straight-curve $-1 15 0 9.0000000000000018 0 1 0 I I #
vertex $-1 $565 $577 #
coedge $-1 $350 $353 $359 $497 reversed $216 $-1 #
coedge $-1 $360 $359 $351 $489 reversed $348 $-1 #
edge $-1 $490 -48 $492 48 $488 $578 forward 7 unknown #
vertex $-1 $489 $579 #
straight-curve $-1 15 -48.000000000000007 -9.0000000000000018 -1 0 0 I I #
vertex $-1 $497 $580 #
straight-curve $-1 15 48.000000000000007 -9.0000000000000018 -1 0 0 I I #
point $-1 -7.999999999999968 48.000000000000007 -9.0000000000000018 #
convexity-sys-attrib $-1 $-1 $-1 $358 #
ellipse-curve $-1 -16.999999999999979 48.000000000000007 7.1054273576010019e-015 0.70710678118654757 0 0.70710678118654757 9.0000000000000071 -7.1054273576010019e-015 -9.0000000000000071 0.70710678118654746 I I #
edge $-1 $362 -1.3467032344935292 $492 0 $359 $581 forward 7 unknown #
point $-1 -15 56.774964387392146 -1.9999999999999718 #
ellipse-curve $-1 -15 -48.000000000000007 -7.1054273576010019e-015 -1 0 0 0 7.1054273576010019e-015 9.0000000000000071 1 I I #
coedge $-1 $369 $372 $378 $510 reversed $231 $-1 #
coedge $-1 $379 $378 $370 $502 forward $367 $-1 #
edge $-1 $505 -48 $503 48.000000000000007 $370 $582 forward 7 unknown #
vertex $-1 $371 $583 #
ellipse-curve $-1 -15 -48.000000000000007 -7.1054273576010019e-015 -1 0 0 0 7.1054273576010019e-015 9.0000000000000071 1 I I #
vertex $-1 $502 $584 #
ellipse-curve $-1 -15 48.000000000000007 7.1054273576010019e-015 -1 0 0 0 -7.1054273576010019e-015 -9.0000000000000071 1 I I #
point $-1 -15 56.774964387392146 1.9999999999999716 #
convexity-sys-attrib $-1 $-1 $-1 $377 #
ellipse-curve $-1 -16.999999999999964 48.000000000000007 7.1054273576010019e-015 0.70710678118654757 0 -0.70710678118654757 -9.0000000000000071 -7.1054273576010019e-015 -9.0000000000000071 0.70710678118654746 I I #
edge $-1 $381 22.999999999999968 $505 30 $378 $585 forward 7 unknown #
point $-1 -7.999999999999968 48.000000000000007 9.0000000000000018 #
straight-curve $-1 15 -48.000000000000007 9.0000000000000018 -1 0 0 I I #
model_id-kcp-attrib $-1 $-1 $-1 $387 1 990548663 70 -750387199 9 #
plane-surface $-1 -11.5 0 5.5 -0.70710678118654757 0 0.70710678118654757 0.70710678118654802 0 0.70710678118654802 forward_v I I I I #
coedge $-1 $407 $389 $519 $586 forward $247 $-1 #
edge $-1 $521 -1.0094912556988196 $410 -0.56130507109607697 $390 $587 forward 7 unknown #
attrib_edge_convexity-kcp-attrib $-1 $588 $-1 $391 1 #
straight-curve $-1 -15 0 -2 0 1 0 I I #
coedge $-1 $396 $392 $515 $586 reversed $397 $-1 #
attrib_edge_convexity-kcp-attrib $-1 $589 $-1 $393 1 #
vertex $-1 $393 $590 #
straight-curve $-1 -15 0 2 0 -1 0 I I #
point $-1 -15 56.774964387392103 2 #
convexity-sys-attrib $-1 $-1 $398 $253 #
model_id-kcp-attrib $-1 $591 $-1 $400 1 990548663 70 -750387199 11 #
vertex $-1 $586 $592 #
straight-curve $-1 -8 0 9 0 1 0 I I #
convexity-sys-attrib $-1 $-1 $402 $259 #
straight-curve $-1 0 -48 9 -1 0 0 I I #
convexity-sys-attrib $-1 $-1 $409 $272 #
point $-1 -15 -56.774964387392103 -2 #
straight-curve $-1 -15 57 0 0 0 -1 I I #
point $-1 -15 -57 -9.0000000000000018 #
straight-curve $-1 -15 0 -9.0000000000000018 0 1 0 I I #
point $-1 -15 57 -9.0000000000000018 #
face $-1 $593 $451 $36 $-1 $199 reversed single #
loop $-1 $-1 $550 $432 #
coedge $-1 $557 $556 $594 $595 reversed $433 $-1 #
coedge $-1 $594 $445 $435 $540 reversed $554 $-1 #
edge $-1 $596 7.894919286223329e-016 $316 1.5707963267948974 $435 $545 forward 7 unknown #
coedge $-1 $597 $546 $436 $542 forward $598 $-1 #
edge $-1 $548 -57 $544 -48 $436 $574 forward 7 unknown #
coedge $-1 $438 $444 $597 $599 reversed $446 $-1 #
vertex $-1 $439 $600 #
ellipse-curve $-1 -15 -48.000000000000007 -7.1054273576010019e-015 1 0 0 0 7.1054273576010019e-015 9.0000000000000071 1 I I #
coedge $-1 $541 $601 $440 $547 forward $598 $-1 #
edge $-1 $551 -15 $548 15 $440 $602 forward 7 unknown #
vertex $-1 $542 $603 #
coedge $-1 $550 $442 $601 $604 reversed $537 $-1 #
coedge $-1 $442 $549 $444 $552 forward $537 $-1 #
vertex $-1 $443 $605 #
edge $-1 $606 -3.1415926535897944 $317 -1.5707963267948974 $550 $607 forward 7 unknown #
coedge $-1 $445 $594 $449 $559 reversed $554 $-1 #
loop $-1 $-1 $553 $608 #
face $-1 $608 $446 $36 $-1 $609 reversed single #
coedge $-1 $538 $447 $450 $560 forward $433 $-1 #
coedge $-1 $447 $538 $454 $562 forward $433 $-1 #
straight-curve $-1 0 -57 9.0000000000000018 1 0 0 I I #
edge $-1 $317 -1.5707963267948974 $610 -7.894919286223329e-016 $449 $607 forward 7 unknown #
edge $-1 $452 -57 $610 -48.000000000000007 $450 $485 forward 7 unknown #
point $-1 15 -57 9.0000000000000018 #
edge $-1 $596 48.000000000000007 $455 57 $454 $575 forward 7 unknown #
point $-1 -15 -57 9.0000000000000018 #
plane-surface $-1 0 0 -9.0000000000000018 0 0 1 1 0 0 forward_v I I I I #
edge $-1 $486 -57 $469 -48 $460 $611 forward 7 unknown #
edge $-1 $483 -15 $567 15 $463 $612 forward 7 unknown #
vertex $-1 $566 $613 #
straight-curve $-1 -15 57 0 0 0 -1 I I #
coedge $-1 $467 $466 $571 $614 forward $468 $-1 #
point $-1 15 48 -9 #
coedge $-1 $472 $471 $569 $614 reversed $473 $-1 #
face $-1 $344 $473 $26 $-1 $119 reversed single #
vertex $-1 $614 $615 #
straight-curve $-1 -15 0 -9.0000000000000018 0 1 0 I I #
straight-curve $-1 -15 0 9.0000000000000018 0 -1 0 I I #
point $-1 15 57 9.0000000000000018 #
point $-1 15 57 -9.0000000000000018 #
straight-curve $-1 -15 0 -9.0000000000000018 0 1 0 I I #
point $-1 -15 -48 -9 #
point $-1 -15 48 -9 #
ellipse-curve $-1 -15 48.000000000000007 7.1054273576010019e-015 -1 0 0 0 -7.1054273576010019e-015 -9.0000000000000071 1 I I #
straight-curve $-1 -15 0 9.0000000000000018 0 -1 0 I I #
point $-1 -15 -48.000000000000007 9.0000000000000018 #
point $-1 -15 48 9 #
straight-curve $-1 15 48.000000000000007 9.0000000000000018 -1 0 0 I I #
edge $616 $526 -9.8686491077791613e-017 $521 1.3467032344935252 $519 $617 forward 7 unknown #
ellipse-curve $-1 -15 -48 0 1 0 0 0 -6.3639610306789303 -6.3639610306789303 1 I I #
convexity-sys-attrib $-1 $-1 $517 $391 #
convexity-sys-attrib $-1 $-1 $520 $393 #
point $-1 -15 -56.774964387392103 2 #
attrib_edge_convexity-kcp-attrib $-1 $618 $525 $400 1 #
point $-1 -8 -48 9 #
face $-1 $555 $598 $36 $-1 $564 reversed single #
coedge $-1 $553 $539 $538 $595 forward $554 $-1 #
edge $-1 $596 -30 $610 0 $538 $619 forward 7 unknown #
vertex $-1 $562 $620 #
coedge $-1 $601 $541 $543 $599 forward $598 $-1 #
loop $-1 $-1 $597 $593 #
edge $-1 $544 -30 $606 0 $597 $621 forward 7 unknown #
point $-1 -15 -48 -9 #
coedge $-1 $546 $597 $549 $604 forward $598 $-1 #
straight-curve $-1 0 -57 -9.0000000000000018 -1 0 0 I I #
point $-1 -15 -57 -9.0000000000000018 #
edge $-1 $606 48 $551 57 $549 $611 forward 7 unknown #
point $-1 15 -57 -9.0000000000000018 #
vertex $-1 $604 $622 #
ellipse-curve $-1 15 -48.000000000000007 -7.1054273576010019e-015 -1 0 0 0 7.1054273576010019e-015 9.0000000000000071 1 I I #
face $-1 $-1 $554 $36 $-1 $609 reversed single #
cone-surface $-1 15 -48.000000000000007 -7.1054273576010019e-015 1 0 0 0 7.1054273576010019e-015 9.0000000000000071 1 I I 0 1 9.0000000000000071 forward I I I I #
vertex $-1 $559 $623 #
straight-curve $-1 15 0 -9.0000000000000018 0 -1 0 I I #
straight-curve $-1 0 57 9.0000000000000018 -1 0 0 I I #
point $-1 -15 57 9.0000000000000018 #
edge $-1 $573 -15 $486 15 $571 $624 forward 7 unknown #
point $-1 -15 57 -9.0000000000000018 #
attrib_edge_convexity-kcp-attrib $-1 $625 $-1 $586 1 #
ellipse-curve $-1 -17 -48 0 0.70710678118654757 0 -0.70710678118654757 9 -8.8817841970012504e-016 9 0.70710678118654802 I I #
convexity-sys-attrib $-1 $-1 $591 $400 #
straight-curve $-1 15 -48.000000000000007 9.0000000000000018 1 0 0 I I #
point $-1 -15 -48.000000000000007 9.0000000000000018 #
straight-curve $-1 15 -48.000000000000007 -9.0000000000000018 1 0 0 I I #
point $-1 15 -48 -9 #
point $-1 15 -48.000000000000007 9.0000000000000018 #
straight-curve $-1 0 57 -9.0000000000000018 1 0 0 I I #
convexity-sys-attrib $-1 $-1 $616 $586 #
End-of-ACIS-data 