104 810 0 0                             
body $-1 $1 $-1 $2 #
lump $-1 $-1 $3 $0 #
transform $-1 1 0 0 0 1 0 0 0 1 0 0 0 1 0 0 0 #
shell $-1 $-1 $-1 $4 $1 #
face $5 $6 $7 $3 $-1 $8 1 #
face_name-twe-attrib $-1 $-1 $-1 $4 1 #
face $9 $10 $11 $3 $-1 $12 0 #
loop $13 $-1 $14 $4 #
plane-surface $15 0 0 0 0 0 1 1 0 0 0 #
face_name-twe-attrib $-1 $-1 $-1 $6 2 #
face $16 $17 $18 $3 $-1 $19 0 #
loop $20 $-1 $21 $6 #
plane-surface $22 0 0 100 0 0 1 1 0 0 0 #
loop_type-twe-attrib $-1 $-1 $-1 $7 0 #
coedge $-1 $23 $24 $25 $26 0 $7 $-1 #
surf-twe-attrib $-1 $-1 $-1 $8 4 #
face_name-twe-attrib $-1 $-1 $-1 $10 3 #
face $27 $28 $29 $3 $-1 $30 0 #
loop $31 $32 $33 $10 #
plane-surface $34 0 0 0 0 1 0 0 0 1 0 #
loop_type-twe-attrib $-1 $-1 $-1 $11 0 #
coedge $-1 $35 $36 $37 $38 1 $11 $-1 #
surf-twe-attrib $-1 $-1 $-1 $12 6 #
coedge $-1 $39 $14 $40 $41 0 $7 $-1 #
coedge $-1 $14 $42 $43 $44 0 $7 $-1 #
coedge $-1 $45 $46 $14 $26 1 $47 $-1 #
edge $48 $49 $50 $25 $51 0 #
face_name-twe-attrib $-1 $-1 $-1 $17 4 #
face $52 $53 $54 $3 $-1 $55 0 #
loop $56 $-1 $43 $17 #
plane-surface $57 -110 0 0 -1 0 0 0 0 1 0 #
loop_type-twe-attrib $-1 $-1 $-1 $18 1 #
loop $58 $59 $60 $10 #
coedge $-1 $33 $33 $61 $62 0 $18 $-1 #
surf-twe-attrib $-1 $-1 $-1 $19 10 #
coedge $-1 $63 $21 $64 $65 1 $11 $-1 #
coedge $-1 $21 $66 $67 $68 1 $11 $-1 #
coedge $-1 $46 $45 $21 $38 0 $47 $-1 #
edge $69 $70 $71 $37 $72 0 #
coedge $-1 $73 $23 $74 $75 0 $7 $-1 #
coedge $-1 $76 $77 $23 $41 1 $78 $-1 #
edge $79 $50 $80 $40 $81 0 #
coedge $-1 $24 $73 $82 $83 0 $7 $-1 #
coedge $-1 $84 $85 $24 $44 1 $29 $-1 #
edge $86 $87 $49 $43 $88 0 #
coedge $-1 $37 $25 $85 $89 1 $47 $-1 #
coedge $-1 $25 $37 $76 $90 0 $47 $-1 #
loop $91 $92 $25 $10 #
edge_name-twe-attrib $-1 $-1 $-1 $26 1 8704 #
vertex $-1 $89 $93 #
vertex $-1 $90 $94 #
straight-curve $95 0 0 0 1 0 0 #
face_name-twe-attrib $-1 $-1 $-1 $28 5 #
face $96 $97 $98 $3 $-1 $99 0 #
loop $100 $-1 $82 $28 #
plane-surface $101 -110 -80 0 0 -1 0 0 0 -1 0 #
loop_type-twe-attrib $-1 $-1 $-1 $29 0 #
surf-twe-attrib $-1 $-1 $-1 $30 17 #
loop_type-twe-attrib $-1 $-1 $-1 $32 1 #
loop $102 $47 $103 $10 #
coedge $-1 $60 $60 $104 $105 0 $32 $-1 #
coedge $-1 $61 $61 $33 $62 1 $106 $-1 #
edge $107 $108 $108 $61 $109 0 #
coedge $-1 $110 $35 $111 $112 1 $11 $-1 #
coedge $-1 $85 $84 $35 $65 0 $29 $-1 #
edge $113 $114 $70 $64 $115 0 #
coedge $-1 $36 $110 $116 $117 1 $11 $-1 #
coedge $-1 $77 $76 $36 $68 0 $78 $-1 #
edge $118 $71 $119 $67 $120 0 #
edge_name-twe-attrib $-1 $-1 $-1 $38 2 8704 #
vertex $-1 $89 $121 #
vertex $-1 $90 $122 #
straight-curve $123 0 0 100 1 0 0 #
coedge $-1 $42 $39 $124 $125 0 $7 $-1 #
coedge $-1 $126 $127 $39 $75 1 $128 $-1 #
edge $129 $80 $130 $74 $131 0 #
coedge $-1 $67 $40 $46 $90 1 $78 $-1 #
coedge $-1 $40 $67 $126 $132 0 $78 $-1 #
loop $133 $-1 $40 $134 #
edge_name-twe-attrib $-1 $-1 $-1 $41 15 8704 #
vertex $-1 $132 $135 #
straight-curve $136 0 -20 0 0 -1 0 #
coedge $-1 $137 $138 $42 $83 1 $54 $-1 #
edge $139 $140 $87 $82 $141 0 #
coedge $-1 $64 $43 $138 $142 1 $29 $-1 #
coedge $-1 $43 $64 $45 $89 0 $29 $-1 #
edge_name-twe-attrib $-1 $-1 $-1 $44 3 8704 #
vertex $-1 $142 $143 #
straight-curve $144 -110 0 0 0 1 0 #
edge $145 $70 $49 $85 $146 0 #
edge $147 $71 $50 $76 $148 0 #
loop_type-twe-attrib $-1 $-1 $-1 $47 0 #
loop $149 $150 $151 $10 #
point $-1 -110 0 0 #
point $-1 0 0 0 #
cur-twe-attrib $-1 $-1 $-1 $51 26 #
face_name-twe-attrib $-1 $-1 $-1 $53 6 #
face $152 $134 $128 $3 $-1 $153 0 #
loop $154 $-1 $124 $53 #
plane-surface $155 40 -80 0 1 0 0 0 0 -1 0 #
loop_type-twe-attrib $-1 $-1 $-1 $54 0 #
surf-twe-attrib $-1 $-1 $-1 $55 28 #
loop_type-twe-attrib $-1 $-1 $-1 $59 1 #
coedge $-1 $103 $103 $156 $157 0 $59 $-1 #
coedge $-1 $104 $104 $60 $105 1 $158 $-1 #
edge $159 $160 $160 $104 $161 0 #
loop $162 $-1 $61 $163 #
edge_name-twe-attrib $-1 $-1 $-1 $62 58 8448 #
vertex $-1 $62 $164 #
ellipse-curve $165 -15 0 15 0 -1 0 0 0 -6 1 #
coedge $-1 $66 $63 $166 $167 1 $11 $-1 #
coedge $-1 $138 $137 $63 $112 0 $54 $-1 #
edge $168 $169 $114 $111 $170 0 #
edge_name-twe-attrib $-1 $-1 $-1 $65 4 8704 #
vertex $-1 $142 $171 #
straight-curve $172 -110 0 100 0 1 0 #
coedge $-1 $127 $126 $66 $117 0 $128 $-1 #
edge $173 $119 $174 $116 $175 0 #
edge_name-twe-attrib $-1 $-1 $-1 $68 17 8704 #
vertex $-1 $132 $176 #
straight-curve $177 0 -20 100 0 -1 0 #
point $-1 -110 0 100 #
point $-1 0 0 100 #
cur-twe-attrib $-1 $-1 $-1 $72 38 #
coedge $-1 $178 $179 $73 $125 1 $98 $-1 #
edge $180 $130 $140 $124 $181 0 #
coedge $-1 $116 $74 $77 $132 1 $128 $-1 #
coedge $-1 $74 $116 $178 $182 0 $128 $-1 #
loop $183 $184 $74 $97 #
edge_name-twe-attrib $-1 $-1 $-1 $75 12 8704 #
vertex $-1 $182 $185 #
straight-curve $186 40 -20 0 1 0 0 #
edge $187 $119 $80 $77 $188 0 #
loop_type-twe-attrib $-1 $-1 $-1 $78 0 #
face $189 $190 $78 $3 $-1 $191 0 #
point $-1 0 -20 0 #
cur-twe-attrib $-1 $-1 $-1 $81 41 #
coedge $-1 $111 $82 $179 $192 1 $54 $-1 #
coedge $-1 $82 $111 $84 $142 0 $54 $-1 #
edge_name-twe-attrib $-1 $-1 $-1 $83 6 8704 #
vertex $-1 $192 $193 #
straight-curve $194 -110 -80 0 -1 0 0 #
edge $195 $114 $87 $138 $196 0 #
point $-1 -110 -80 0 #
cur-twe-attrib $-1 $-1 $-1 $88 44 #
edge_name-twe-attrib $-1 $-1 $-1 $89 5 8704 #
straight-curve $197 -110 0 0 0 0 -1 #
edge_name-twe-attrib $-1 $-1 $-1 $90 16 8704 #
straight-curve $198 0 0 0 0 0 -1 #
loop_type-twe-attrib $-1 $-1 $-1 $92 1 #
loop $199 $-1 $200 $10 #
coedge $-1 $201 $202 $203 $204 0 $92 $-1 #
face_name-twe-attrib $-1 $-1 $-1 $97 7 #
plane-surface $205 40 -20 0 0 1 0 0 0 1 0 #
loop_type-twe-attrib $-1 $-1 $-1 $98 0 #
surf-twe-attrib $-1 $-1 $-1 $99 53 #
coedge $-1 $156 $156 $103 $157 1 $206 $-1 #
edge $207 $208 $208 $156 $209 0 #
loop $210 $-1 $104 $211 #
edge_name-twe-attrib $-1 $-1 $-1 $105 54 8448 #
vertex $-1 $105 $212 #
ellipse-curve $213 -15 0 85 0 -1 0 0 0 -6 1 #
loop_type-twe-attrib $-1 $-1 $-1 $106 1 #
face $214 $215 $216 $3 $-1 $217 1 #
point $-1 -9 0 15 #
cur-twe-attrib $-1 $-1 $-1 $109 62 #
coedge $-1 $179 $178 $110 $167 0 $98 $-1 #
edge $218 $174 $169 $166 $219 0 #
edge_name-twe-attrib $-1 $-1 $-1 $112 7 8704 #
vertex $-1 $192 $220 #
straight-curve $221 -110 -80 100 -1 0 0 #
point $-1 -110 -80 100 #
cur-twe-attrib $-1 $-1 $-1 $115 65 #
edge_name-twe-attrib $-1 $-1 $-1 $117 13 8704 #
vertex $-1 $182 $222 #
straight-curve $223 40 -20 100 1 0 0 #
point $-1 0 -20 100 #
cur-twe-attrib $-1 $-1 $-1 $120 68 #
coedge $-1 $166 $124 $127 $182 1 $98 $-1 #
coedge $-1 $124 $166 $137 $192 0 $98 $-1 #
edge_name-twe-attrib $-1 $-1 $-1 $125 9 8704 #
straight-curve $224 40 -80 0 0 -1 0 #
edge $225 $174 $130 $127 $226 0 #
loop_type-twe-attrib $-1 $-1 $-1 $128 0 #
loop $227 $228 $229 $97 #
point $-1 40 -20 0 #
cur-twe-attrib $-1 $-1 $-1 $131 75 #
edge_name-twe-attrib $-1 $-1 $-1 $132 18 4608 #
straight-curve $230 0 -20 0 0 0 -1 #
face_name-twe-attrib $-1 $-1 $-1 $134 8 #
face $231 $232 $233 $3 $-1 $234 0 #
plane-surface $235 0 -20 0 1 0 0 0 0 -1 0 #
edge $236 $169 $140 $179 $237 0 #
point $-1 40 -80 0 #
cur-twe-attrib $-1 $-1 $-1 $141 83 #
edge_name-twe-attrib $-1 $-1 $-1 $142 8 8704 #
straight-curve $238 -110 -80 0 0 0 -1 #
cur-twe-attrib $-1 $-1 $-1 $146 89 #
cur-twe-attrib $-1 $-1 $-1 $148 90 #
loop_type-twe-attrib $-1 $-1 $-1 $150 1 #
coedge $-1 $200 $200 $239 $240 0 $150 $-1 #
coedge $-1 $241 $151 $242 $243 0 $92 $-1 #
coedge $-1 $151 $244 $245 $246 0 $92 $-1 #
coedge $-1 $247 $248 $151 $204 1 $249 $-1 #
edge $250 $251 $252 $203 $253 0 #
surf-twe-attrib $-1 $-1 $-1 $153 97 #
loop $254 $-1 $156 $255 #
edge_name-twe-attrib $-1 $-1 $-1 $157 50 8448 #
vertex $-1 $157 $256 #
ellipse-curve $257 -95 0 15 0 -1 0 0 0 -6 1 #
loop_type-twe-attrib $-1 $-1 $-1 $158 1 #
face $258 $259 $260 $3 $-1 $261 1 #
point $-1 -9 0 85 #
cur-twe-attrib $-1 $-1 $-1 $161 105 #
face_name-twe-attrib $-1 $-1 $-1 $163 29 #
face $262 $263 $264 $3 $-1 $265 1 #
loop $266 $106 $267 $163 #
cone-surface $268 -15 0 15 0 1 0 0 0 -6 1 0.707106796640858 0.707106765732237 0 #
edge_name-twe-attrib $-1 $-1 $-1 $167 10 8704 #
straight-curve $269 40 -80 100 0 -1 0 #
point $-1 40 -80 100 #
cur-twe-attrib $-1 $-1 $-1 $170 112 #
point $-1 40 -20 100 #
cur-twe-attrib $-1 $-1 $-1 $175 117 #
cur-twe-attrib $-1 $-1 $-1 $181 125 #
edge_name-twe-attrib $-1 $-1 $-1 $182 14 8704 #
straight-curve $270 40 -20 0 0 0 -1 #
loop_type-twe-attrib $-1 $-1 $-1 $184 1 #
loop $271 $-1 $272 $97 #
coedge $-1 $229 $229 $273 $274 0 $184 $-1 #
cur-twe-attrib $-1 $-1 $-1 $188 132 #
face_name-twe-attrib $-1 $-1 $-1 $190 9 #
face $275 $276 $249 $3 $-1 $277 1 #
loop $278 $279 $280 $190 #
plane-surface $281 0 -15 0 0 1 0 0 0 1 0 #
surf-twe-attrib $-1 $-1 $-1 $191 134 #
edge_name-twe-attrib $-1 $-1 $-1 $192 11 8704 #
straight-curve $282 40 -80 0 0 0 -1 #
cur-twe-attrib $-1 $-1 $-1 $196 142 #
coedge $-1 $239 $239 $200 $240 1 $283 $-1 #
edge $284 $285 $285 $239 $286 0 #
coedge $-1 $287 $201 $288 $289 0 $92 $-1 #
coedge $-1 $290 $291 $201 $243 1 $292 $-1 #
edge $293 $252 $294 $242 $295 0 #
coedge $-1 $202 $296 $297 $298 0 $92 $-1 #
coedge $-1 $299 $300 $202 $246 1 $301 $-1 #
edge $302 $303 $251 $245 $304 0 #
coedge $-1 $305 $203 $300 $306 0 $249 $-1 #
coedge $-1 $203 $305 $290 $307 1 $249 $-1 #
loop $308 $-1 $203 $232 #
edge_name-twe-attrib $-1 $-1 $-1 $204 19 8704 #
vertex $-1 $306 $309 #
vertex $-1 $307 $310 #
ellipse-curve $311 -85 0 35 0 -1 0 -5 0 0 1 #
loop_type-twe-attrib $-1 $-1 $-1 $206 1 #
face $312 $313 $314 $3 $-1 $315 1 #
point $-1 -89 0 15 #
cur-twe-attrib $-1 $-1 $-1 $209 157 #
face_name-twe-attrib $-1 $-1 $-1 $211 26 #
face $316 $317 $318 $3 $-1 $319 1 #
loop $320 $158 $321 $211 #
cone-surface $322 -15 0 85 0 1 0 0 0 -6 1 0.707106796640858 0.707106765732237 0 #
face_name-twe-attrib $-1 $-1 $-1 $215 30 #
face $323 $324 $325 $3 $-1 $326 1 #
loop $327 $328 $329 $215 #
cone-surface $330 20 -47 20 0 1 0 0 0 -6 1 0.866025418354902 0.499999974763217 0 #
loop_type-twe-attrib $-1 $-1 $-1 $216 0 #
coedge $-1 $267 $267 $331 $332 1 $216 $-1 #
surf-twe-attrib $-1 $-1 $-1 $217 163 #
cur-twe-attrib $-1 $-1 $-1 $219 167 #
cur-twe-attrib $-1 $-1 $-1 $226 182 #
loop_type-twe-attrib $-1 $-1 $-1 $228 1 #
coedge $-1 $272 $272 $333 $334 0 $228 $-1 #
coedge $-1 $273 $273 $229 $274 1 $335 $-1 #
edge $336 $337 $337 $273 $338 0 #
face_name-twe-attrib $-1 $-1 $-1 $232 10 #
face $339 $340 $301 $3 $-1 $341 1 #
cone-surface $342 -85 -15 35 0 -1 0 -5 0 0 1 0 1 0 #
loop_type-twe-attrib $-1 $-1 $-1 $233 0 #
loop $343 $-1 $344 $190 #
coedge $-1 $345 $346 $305 $347 1 $233 $-1 #
surf-twe-attrib $-1 $-1 $-1 $234 190 #
cur-twe-attrib $-1 $-1 $-1 $237 192 #
loop $348 $-1 $239 $349 #
edge_name-twe-attrib $-1 $-1 $-1 $240 46 8448 #
vertex $-1 $240 $350 #
ellipse-curve $351 -95 0 85 0 -1 0 0 0 -6 1 #
coedge $-1 $352 $241 $353 $354 0 $92 $-1 #
coedge $-1 $355 $356 $241 $289 1 $357 $-1 #
edge $358 $294 $359 $288 $360 0 #
coedge $-1 $361 $242 $248 $307 0 $292 $-1 #
coedge $-1 $242 $361 $355 $362 1 $292 $-1 #
loop $363 $-1 $242 $364 #
edge_name-twe-attrib $-1 $-1 $-1 $243 39 8704 #
vertex $-1 $362 $365 #
straight-curve $366 -25.0000002185569 0 30 1 0 1.18423789724722e-16 #
coedge $-1 $244 $352 $367 $368 0 $92 $-1 #
coedge $-1 $369 $370 $244 $298 1 $371 $-1 #
edge $372 $373 $303 $297 $374 0 #
coedge $-1 $375 $245 $370 $376 0 $301 $-1 #
coedge $-1 $245 $375 $247 $306 1 $301 $-1 #
loop $377 $-1 $245 $276 #
edge_name-twe-attrib $-1 $-1 $-1 $246 21 8704 #
vertex $-1 $376 $378 #
straight-curve $379 -90 0 35.0000002185569 0 0 -1 #
coedge $-1 $248 $247 $280 $347 0 $249 $-1 #
edge $380 $251 $381 $300 $382 0 #
edge $383 $252 $384 $290 $385 0 #
loop_type-twe-attrib $-1 $-1 $-1 $249 0 #
point $-1 -90 0 35.0000002185569 #
point $-1 -85 0 30 #
cur-twe-attrib $-1 $-1 $-1 $253 204 #
face_name-twe-attrib $-1 $-1 $-1 $255 23 #
face $386 $387 $388 $3 $-1 $389 1 #
loop $390 $206 $391 $255 #
cone-surface $392 -95 0 15 0 1 0 0 0 -6 1 0.707106796640858 0.707106765732237 0 #
face_name-twe-attrib $-1 $-1 $-1 $259 27 #
face $393 $163 $394 $3 $-1 $395 1 #
loop $396 $397 $398 $259 #
cone-surface $399 -15 -31 15 0 1 0 0 0 -5 1 0.866025418354902 0.499999974763217 0 #
loop_type-twe-attrib $-1 $-1 $-1 $260 0 #
coedge $-1 $321 $321 $400 $401 1 $260 $-1 #
surf-twe-attrib $-1 $-1 $-1 $261 211 #
face_name-twe-attrib $-1 $-1 $-1 $263 31 #
face $402 $403 $404 $3 $-1 $405 1 #
loop $406 $407 $408 $263 #
cone-surface $409 20 -51.9873085021973 20 0 -1 0 -6 0 0 1 0 1 0 #
loop_type-twe-attrib $-1 $-1 $-1 $264 0 #
loop $410 $-1 $411 $215 #
coedge $-1 $329 $329 $-1 $412 0 $264 $-1 #
surf-twe-attrib $-1 $-1 $-1 $265 215 #
coedge $-1 $331 $331 $267 $332 0 $413 $-1 #
edge $414 $415 $415 $267 $416 1 #
coedge $-1 $333 $333 $272 $334 1 $417 $-1 #
edge $418 $419 $419 $333 $420 0 #
loop $421 $-1 $273 $324 #
edge_name-twe-attrib $-1 $-1 $-1 $274 62 8448 #
vertex $-1 $274 $422 #
ellipse-curve $423 20 -20 20 0 -1 0 0 0 -8 1 #
face_name-twe-attrib $-1 $-1 $-1 $276 11 #
face $424 $425 $371 $3 $-1 $426 1 #
plane-surface $427 -90 -15 35 -1 0 0 0 0 1 0 #
surf-twe-attrib $-1 $-1 $-1 $277 232 #
loop_type-twe-attrib $-1 $-1 $-1 $279 1 #
coedge $-1 $344 $344 $428 $429 0 $279 $-1 #
coedge $-1 $430 $280 $375 $431 1 $233 $-1 #
coedge $-1 $280 $432 $361 $433 1 $233 $-1 #
edge $434 $381 $384 $305 $435 0 #
loop_type-twe-attrib $-1 $-1 $-1 $283 1 #
face $436 $437 $438 $3 $-1 $439 1 #
point $-1 -89 0 85 #
cur-twe-attrib $-1 $-1 $-1 $286 240 #
coedge $-1 $296 $287 $440 $441 0 $92 $-1 #
coedge $-1 $442 $443 $287 $354 1 $444 $-1 #
edge $445 $359 $446 $353 $447 0 #
coedge $-1 $448 $288 $291 $362 0 $357 $-1 #
coedge $-1 $288 $448 $442 $449 1 $357 $-1 #
loop $450 $-1 $288 $451 #
edge_name-twe-attrib $-1 $-1 $-1 $289 36 8704 #
vertex $-1 $449 $452 #
ellipse-curve $453 -25 0 35 0 -1 0 0 0 -5 1 #
coedge $-1 $291 $290 $346 $433 0 $292 $-1 #
edge $454 $294 $455 $291 $456 0 #
loop_type-twe-attrib $-1 $-1 $-1 $292 0 #
face $457 $458 $292 $3 $-1 $459 1 #
point $-1 -25.0000002185569 0 30 #
cur-twe-attrib $-1 $-1 $-1 $295 243 #
coedge $-1 $460 $461 $296 $368 1 $462 $-1 #
edge $463 $464 $373 $367 $465 0 #
coedge $-1 $466 $297 $461 $467 0 $371 $-1 #
coedge $-1 $297 $466 $299 $376 1 $371 $-1 #
loop $468 $-1 $297 $340 #
edge_name-twe-attrib $-1 $-1 $-1 $298 24 8704 #
vertex $-1 $467 $469 #
ellipse-curve $470 -85 0 70 0 -1 0 0 0 5 1 #
coedge $-1 $300 $299 $345 $431 0 $301 $-1 #
edge $471 $303 $472 $370 $473 0 #
loop_type-twe-attrib $-1 $-1 $-1 $301 0 #
point $-1 -90 0 70 #
cur-twe-attrib $-1 $-1 $-1 $304 246 #
edge_name-twe-attrib $-1 $-1 $-1 $306 23 20480 #
vertex $-1 $306 $474 #
straight-curve $475 -90 -15 35.0000002185569 0 -1 0 #
edge_name-twe-attrib $-1 $-1 $-1 $307 40 20480 #
vertex $-1 $307 $476 #
straight-curve $477 -85 -15 30 0 -1 0 #
face_name-twe-attrib $-1 $-1 $-1 $313 24 #
face $478 $211 $479 $3 $-1 $480 1 #
loop $481 $482 $483 $313 #
cone-surface $484 -15 -31 85 0 1 0 0 0 -5 1 0.866025418354902 0.499999974763217 0 #
loop_type-twe-attrib $-1 $-1 $-1 $314 0 #
coedge $-1 $391 $391 $485 $486 1 $314 $-1 #
surf-twe-attrib $-1 $-1 $-1 $315 255 #
face_name-twe-attrib $-1 $-1 $-1 $317 28 #
loop $487 $413 $488 $317 #
cone-surface $489 -15 -35.5810890197754 15 0 -1 0 -5 0 0 1 0 1 0 #
loop_type-twe-attrib $-1 $-1 $-1 $318 0 #
loop $490 $-1 $491 $259 #
coedge $-1 $398 $398 $-1 $492 0 $318 $-1 #
surf-twe-attrib $-1 $-1 $-1 $319 259 #
coedge $-1 $400 $400 $321 $401 0 $493 $-1 #
edge $494 $495 $495 $321 $496 1 #
face_name-twe-attrib $-1 $-1 $-1 $324 32 #
face $497 $498 $499 $3 $-1 $500 0 #
loop $501 $335 $502 $324 #
cone-surface $503 20 -20 20 0 1 0 0 0 -8 1 0.707106796640858 0.707106765732237 0 #
loop_type-twe-attrib $-1 $-1 $-1 $325 0 #
loop $504 $-1 $505 $263 #
coedge $-1 $408 $408 $411 $506 1 $325 $-1 #
surf-twe-attrib $-1 $-1 $-1 $326 263 #
loop_type-twe-attrib $-1 $-1 $-1 $328 1 #
coedge $-1 $411 $411 $408 $506 0 $328 $-1 #
edge $507 $508 $508 $329 $-1 0 #
loop $509 $-1 $331 $317 #
edge_name-twe-attrib $-1 $-1 $-1 $332 57 8448 #
vertex $-1 $332 $510 #
ellipse-curve $511 -15 -1 15 0 -1 0 0 0 -5 1 #
loop $512 $-1 $333 $513 #
edge_name-twe-attrib $-1 $-1 $-1 $334 68 8448 #
vertex $-1 $334 $514 #
ellipse-curve $515 20 -20 80 0 -1 0 0 0 -8 1 #
loop_type-twe-attrib $-1 $-1 $-1 $335 1 #
point $-1 28 -20 20 #
cur-twe-attrib $-1 $-1 $-1 $338 274 #
face_name-twe-attrib $-1 $-1 $-1 $340 12 #
face $516 $517 $462 $3 $-1 $518 1 #
cone-surface $519 -85 -15 70 0 -1 0 -5 0 0 1 0 1 0 #
surf-twe-attrib $-1 $-1 $-1 $341 276 #
coedge $-1 $428 $428 $344 $429 1 $520 $-1 #
edge $521 $522 $522 $428 $523 0 #
coedge $-1 $524 $345 $466 $525 1 $233 $-1 #
edge $526 $472 $381 $375 $527 0 #
coedge $-1 $346 $528 $448 $529 1 $233 $-1 #
edge $530 $384 $455 $361 $531 0 #
edge_name-twe-attrib $-1 $-1 $-1 $347 20 4608 #
ellipse-curve $532 -85 -15 35 0 -1 0 -5 0 0 1 #
face_name-twe-attrib $-1 $-1 $-1 $349 20 #
face $533 $534 $535 $3 $-1 $536 1 #
loop $537 $283 $538 $349 #
cone-surface $539 -95 0 85 0 1 0 0 0 -6 1 0.707106796640858 0.707106765732237 0 #
coedge $-1 $540 $541 $352 $441 1 $542 $-1 #
edge $543 $446 $464 $440 $544 0 #
coedge $-1 $545 $353 $356 $449 0 $444 $-1 #
coedge $-1 $353 $545 $540 $546 1 $444 $-1 #
loop $547 $-1 $353 $548 #
edge_name-twe-attrib $-1 $-1 $-1 $354 33 8704 #
vertex $-1 $546 $549 #
straight-curve $550 -20 0 69.9999997814431 -2.03012211484878e-16 0 1 #
coedge $-1 $356 $355 $432 $529 0 $357 $-1 #
edge $551 $359 $552 $356 $553 0 #
loop_type-twe-attrib $-1 $-1 $-1 $357 0 #
face $554 $364 $357 $3 $-1 $555 1 #
point $-1 -20 0 35 #
cur-twe-attrib $-1 $-1 $-1 $360 289 #
edge_name-twe-attrib $-1 $-1 $-1 $362 42 20480 #
vertex $-1 $362 $556 #
straight-curve $557 -25 -15 30 1.45704632359411e-08 -1 -4.736951571734e-16 #
face_name-twe-attrib $-1 $-1 $-1 $364 17 #
face $558 $559 $560 $3 $-1 $561 1 #
plane-surface $562 -25 -15 30 0 0 -1 -1 0 0 0 #
coedge $-1 $563 $367 $541 $564 0 $462 $-1 #
coedge $-1 $367 $563 $369 $467 1 $462 $-1 #
loop $565 $-1 $367 $425 #
edge_name-twe-attrib $-1 $-1 $-1 $368 27 8704 #
vertex $-1 $564 $566 #
straight-curve $567 -84.9999997814431 0 75 -1 0 0 #
coedge $-1 $370 $369 $430 $525 0 $371 $-1 #
edge $568 $373 $569 $461 $570 0 #
loop_type-twe-attrib $-1 $-1 $-1 $371 0 #
point $-1 -84.9999997814431 0 75 #
cur-twe-attrib $-1 $-1 $-1 $374 298 #
edge_name-twe-attrib $-1 $-1 $-1 $376 26 20480 #
vertex $-1 $376 $571 #
straight-curve $572 -90 -15 70 0 -1 0 #
point $-1 -90 -15 35.0000002185569 #
cur-twe-attrib $-1 $-1 $-1 $382 306 #
point $-1 -85 -15 30 #
cur-twe-attrib $-1 $-1 $-1 $385 307 #
face_name-twe-attrib $-1 $-1 $-1 $387 25 #
loop $573 $493 $574 $387 #
cone-surface $575 -15 -35.5810890197754 85 0 -1 0 -5 0 0 1 0 1 0 #
loop_type-twe-attrib $-1 $-1 $-1 $388 0 #
loop $576 $-1 $577 $313 #
coedge $-1 $483 $483 $-1 $578 0 $388 $-1 #
surf-twe-attrib $-1 $-1 $-1 $389 313 #
coedge $-1 $485 $485 $391 $486 0 $579 $-1 #
edge $580 $581 $581 $391 $582 1 #
loop_type-twe-attrib $-1 $-1 $-1 $394 0 #
coedge $-1 $488 $488 $491 $583 1 $394 $-1 #
surf-twe-attrib $-1 $-1 $-1 $395 317 #
loop_type-twe-attrib $-1 $-1 $-1 $397 1 #
coedge $-1 $491 $491 $488 $583 0 $397 $-1 #
edge $584 $585 $585 $398 $-1 0 #
loop $586 $-1 $400 $387 #
edge_name-twe-attrib $-1 $-1 $-1 $401 53 8448 #
vertex $-1 $401 $587 #
ellipse-curve $588 -15 -1 85 0 -1 0 0 0 -5 1 #
face_name-twe-attrib $-1 $-1 $-1 $403 33 #
face $589 $590 $591 $3 $-1 $592 1 #
loop $593 $594 $595 $403 #
plane-surface $596 20 -30 80 0 1 0 0 0 1 0 #
loop_type-twe-attrib $-1 $-1 $-1 $404 0 #
coedge $-1 $502 $502 $505 $597 1 $404 $-1 #
surf-twe-attrib $-1 $-1 $-1 $405 324 #
loop_type-twe-attrib $-1 $-1 $-1 $407 1 #
coedge $-1 $505 $505 $502 $597 0 $407 $-1 #
edge $598 $599 $599 $408 $600 1 #
edge_name-twe-attrib $-1 $-1 $-1 $412 59 128 #
vertex $-1 $412 $601 #
loop_type-twe-attrib $-1 $-1 $-1 $413 1 #
point $-1 -20 -1 15.0000004371139 #
cur-twe-attrib $-1 $-1 $-1 $416 332 #
loop_type-twe-attrib $-1 $-1 $-1 $417 1 #
face $602 $603 $604 $3 $-1 $605 1 #
point $-1 28 -20 80 #
cur-twe-attrib $-1 $-1 $-1 $420 334 #
face_name-twe-attrib $-1 $-1 $-1 $425 13 #
face $606 $548 $542 $3 $-1 $607 1 #
plane-surface $608 -85 -15 75 0 0 1 1 0 0 0 #
surf-twe-attrib $-1 $-1 $-1 $426 340 #
loop $609 $-1 $428 $610 #
edge_name-twe-attrib $-1 $-1 $-1 $429 70 8704 #
vertex $-1 $429 $611 #
ellipse-curve $612 -60 -15 50 0 -1 0 0 0 -13 1 #
coedge $-1 $613 $430 $563 $614 1 $233 $-1 #
edge $615 $569 $472 $466 $616 0 #
edge_name-twe-attrib $-1 $-1 $-1 $431 22 4608 #
straight-curve $617 -90 -15 35.0000002185569 0 0 -1 #
coedge $-1 $432 $613 $545 $618 1 $233 $-1 #
edge $619 $455 $552 $448 $620 0 #
edge_name-twe-attrib $-1 $-1 $-1 $433 41 4608 #
straight-curve $621 -25 -15 30 1 0 0 #
cur-twe-attrib $-1 $-1 $-1 $435 347 #
face_name-twe-attrib $-1 $-1 $-1 $437 21 #
face $622 $255 $623 $3 $-1 $624 1 #
loop $625 $626 $627 $437 #
cone-surface $628 -95 -31 15 0 1 0 0 0 -5 1 0.866025418354902 0.499999974763217 0 #
loop_type-twe-attrib $-1 $-1 $-1 $438 0 #
coedge $-1 $538 $538 $629 $630 1 $438 $-1 #
surf-twe-attrib $-1 $-1 $-1 $439 349 #
coedge $-1 $631 $440 $443 $546 0 $542 $-1 #
coedge $-1 $440 $631 $460 $564 1 $542 $-1 #
loop $632 $-1 $440 $517 #
edge_name-twe-attrib $-1 $-1 $-1 $441 30 8704 #
ellipse-curve $633 -25 0 70 0 -1 0 5 0 0 1 #
coedge $-1 $443 $442 $528 $618 0 $444 $-1 #
edge $634 $446 $635 $443 $636 0 #
loop_type-twe-attrib $-1 $-1 $-1 $444 0 #
face $637 $451 $444 $3 $-1 $638 1 #
point $-1 -20 0 69.9999997814431 #
cur-twe-attrib $-1 $-1 $-1 $447 354 #
edge_name-twe-attrib $-1 $-1 $-1 $449 38 20480 #
vertex $-1 $449 $639 #
straight-curve $640 -20 -15 35 0 -1 0 #
face_name-twe-attrib $-1 $-1 $-1 $451 16 #
cone-surface $641 -25 -15 35 0 -1 0 -5 0 0 1 0 1 0 #
point $-1 -25 -15 30 #
cur-twe-attrib $-1 $-1 $-1 $456 362 #
face_name-twe-attrib $-1 $-1 $-1 $458 18 #
face $642 $349 $643 $3 $-1 $644 1 #
loop $645 $646 $647 $458 #
cone-surface $648 -95 -31 85 0 1 0 0 0 -5 1 0.866025418354902 0.499999974763217 0 #
surf-twe-attrib $-1 $-1 $-1 $459 364 #
coedge $-1 $461 $460 $524 $614 0 $462 $-1 #
edge $649 $464 $650 $541 $651 0 #
loop_type-twe-attrib $-1 $-1 $-1 $462 0 #
point $-1 -25 0 75 #
cur-twe-attrib $-1 $-1 $-1 $465 368 #
edge_name-twe-attrib $-1 $-1 $-1 $467 29 20480 #
vertex $-1 $467 $652 #
straight-curve $653 -85 -15 75 -1.45704632359411e-08 -1 0 #
point $-1 -90 -15 70 #
cur-twe-attrib $-1 $-1 $-1 $473 376 #
loop_type-twe-attrib $-1 $-1 $-1 $479 0 #
coedge $-1 $574 $574 $577 $654 1 $479 $-1 #
surf-twe-attrib $-1 $-1 $-1 $480 387 #
loop_type-twe-attrib $-1 $-1 $-1 $482 1 #
coedge $-1 $577 $577 $574 $654 0 $482 $-1 #
edge $655 $656 $656 $483 $-1 0 #
loop $657 $-1 $485 $534 #
edge_name-twe-attrib $-1 $-1 $-1 $486 49 8448 #
vertex $-1 $486 $658 #
ellipse-curve $659 -95 -1 15 0 -1 0 0 0 -5 1 #
edge $660 $661 $661 $488 $662 1 #
edge_name-twe-attrib $-1 $-1 $-1 $492 55 128 #
vertex $-1 $492 $663 #
loop_type-twe-attrib $-1 $-1 $-1 $493 1 #
point $-1 -20 -1 85.0000004371139 #
cur-twe-attrib $-1 $-1 $-1 $496 401 #
face_name-twe-attrib $-1 $-1 $-1 $498 34 #
face $664 $665 $666 $3 $-1 $667 1 #
loop $668 $669 $670 $498 #
cone-surface $671 20 -60 80 0 1 0 0 0 -5 1 0.866025418354902 0.499999974763217 0 #
loop_type-twe-attrib $-1 $-1 $-1 $499 1 #
loop $672 $-1 $673 $403 #
coedge $-1 $595 $595 $674 $675 0 $499 $-1 #
surf-twe-attrib $-1 $-1 $-1 $500 403 #
edge $676 $677 $677 $502 $678 1 #
edge_name-twe-attrib $-1 $-1 $-1 $506 60 4352 #
vertex $-1 $506 $679 #
ellipse-curve $680 20 -47 20 0 -1 0 0 0 -6 1 #
point $-1 20 -50.4640998840332 20 #
face_name-twe-attrib $-1 $-1 $-1 $513 37 #
face $681 $610 $682 $3 $-1 $683 0 #
loop $684 $417 $685 $513 #
cone-surface $686 20 -20 80 0 1 0 0 0 -8 1 0.707106796640858 0.707106765732237 0 #
face_name-twe-attrib $-1 $-1 $-1 $517 14 #
cone-surface $687 -25 -15 70 0 -1 0 -5 0 0 1 0 1 0 #
surf-twe-attrib $-1 $-1 $-1 $518 425 #
loop_type-twe-attrib $-1 $-1 $-1 $520 1 #
face $688 $-1 $689 $3 $-1 $690 1 #
point $-1 -47 -15 50 #
cur-twe-attrib $-1 $-1 $-1 $523 429 #
coedge $-1 $528 $524 $631 $691 1 $233 $-1 #
edge $692 $650 $569 $563 $693 0 #
edge_name-twe-attrib $-1 $-1 $-1 $525 25 4608 #
ellipse-curve $694 -85 -15 70 0 -1 0 0 0 5 1 #
cur-twe-attrib $-1 $-1 $-1 $527 431 #
edge $695 $552 $635 $545 $696 0 #
edge_name-twe-attrib $-1 $-1 $-1 $529 37 4608 #
ellipse-curve $697 -25 -15 35 0 -1 0 0 0 -5 1 #
cur-twe-attrib $-1 $-1 $-1 $531 433 #
face_name-twe-attrib $-1 $-1 $-1 $534 22 #
loop $698 $579 $699 $534 #
cone-surface $700 -95 -35.5810890197754 15 0 -1 0 -5 0 0 1 0 1 0 #
loop_type-twe-attrib $-1 $-1 $-1 $535 0 #
loop $701 $-1 $702 $437 #
coedge $-1 $627 $627 $-1 $703 0 $535 $-1 #
surf-twe-attrib $-1 $-1 $-1 $536 437 #
coedge $-1 $629 $629 $538 $630 0 $704 $-1 #
edge $705 $706 $706 $538 $707 1 #
coedge $-1 $541 $540 $613 $691 0 $542 $-1 #
loop_type-twe-attrib $-1 $-1 $-1 $542 0 #
cur-twe-attrib $-1 $-1 $-1 $544 441 #
edge_name-twe-attrib $-1 $-1 $-1 $546 35 20480 #
vertex $-1 $546 $708 #
straight-curve $709 -20 -15 70 4.736951571734e-16 -1 1.45704632359411e-08 #
face_name-twe-attrib $-1 $-1 $-1 $548 15 #
plane-surface $710 -20 -15 70 1 0 0 0 0 -1 0 #
point $-1 -20 -15 35 #
cur-twe-attrib $-1 $-1 $-1 $553 449 #
surf-twe-attrib $-1 $-1 $-1 $555 451 #
face_name-twe-attrib $-1 $-1 $-1 $559 19 #
loop $711 $704 $712 $559 #
cone-surface $713 -95 -35.5810890197754 85 0 -1 0 -5 0 0 1 0 1 0 #
loop_type-twe-attrib $-1 $-1 $-1 $560 0 #
loop $714 $-1 $715 $458 #
coedge $-1 $647 $647 $-1 $716 0 $560 $-1 #
surf-twe-attrib $-1 $-1 $-1 $561 458 #
edge_name-twe-attrib $-1 $-1 $-1 $564 32 20480 #
vertex $-1 $564 $717 #
straight-curve $718 -25 -15 75 0 -1 0 #
point $-1 -85 -15 75 #
cur-twe-attrib $-1 $-1 $-1 $570 467 #
edge $719 $720 $720 $574 $721 1 #
edge_name-twe-attrib $-1 $-1 $-1 $578 51 128 #
vertex $-1 $578 $722 #
loop_type-twe-attrib $-1 $-1 $-1 $579 1 #
point $-1 -100 -1 15.0000004371139 #
cur-twe-attrib $-1 $-1 $-1 $582 486 #
edge_name-twe-attrib $-1 $-1 $-1 $583 56 4352 #
vertex $-1 $583 $723 #
ellipse-curve $724 -15 -31 15 0 -1 0 0 0 -5 1 #
point $-1 -15 -33.8867530822754 15 #
face_name-twe-attrib $-1 $-1 $-1 $590 35 #
face $725 $513 $726 $3 $-1 $727 1 #
loop $728 $729 $730 $590 #
cone-surface $731 20 -65.0310897827148 80 0 -1 0 -5 0 0 1 0 1 0 #
loop_type-twe-attrib $-1 $-1 $-1 $591 0 #
loop $732 $-1 $733 $498 #
coedge $-1 $670 $670 $-1 $734 0 $591 $-1 #
surf-twe-attrib $-1 $-1 $-1 $592 498 #
loop_type-twe-attrib $-1 $-1 $-1 $594 0 #
coedge $-1 $673 $673 $735 $736 0 $594 $-1 #
coedge $-1 $674 $674 $595 $675 1 $729 $-1 #
edge $737 $738 $738 $595 $739 0 #
edge_name-twe-attrib $-1 $-1 $-1 $597 61 8448 #
vertex $-1 $597 $740 #
ellipse-curve $741 20 -22 20 0 -1 0 0 0 -6 1 #
point $-1 14 -47 20.0000005245367 #
cur-twe-attrib $-1 $-1 $-1 $600 506 #
face_name-twe-attrib $-1 $-1 $-1 $603 38 #
loop $742 $-1 $743 $603 #
plane-surface $744 -60 -35 50 0 1 0 0 0 1 0 #
loop_type-twe-attrib $-1 $-1 $-1 $604 0 #
coedge $-1 $685 $685 $745 $746 1 $604 $-1 #
surf-twe-attrib $-1 $-1 $-1 $605 513 #
surf-twe-attrib $-1 $-1 $-1 $607 517 #
face_name-twe-attrib $-1 $-1 $-1 $610 39 #
loop $747 $520 $748 $610 #
cone-surface $749 -60 -36 50 0 -1 0 -13 0 0 1 0 1 0 #
edge $750 $635 $650 $631 $751 0 #
edge_name-twe-attrib $-1 $-1 $-1 $614 28 4608 #
straight-curve $752 -85 -15 75 -1 0 0 #
cur-twe-attrib $-1 $-1 $-1 $616 525 #
edge_name-twe-attrib $-1 $-1 $-1 $618 34 4608 #
straight-curve $753 -20 -15 70 0 0 1 #
cur-twe-attrib $-1 $-1 $-1 $620 529 #
loop_type-twe-attrib $-1 $-1 $-1 $623 0 #
coedge $-1 $699 $699 $702 $754 1 $623 $-1 #
surf-twe-attrib $-1 $-1 $-1 $624 534 #
loop_type-twe-attrib $-1 $-1 $-1 $626 1 #
coedge $-1 $702 $702 $699 $754 0 $626 $-1 #
edge $755 $756 $756 $627 $-1 0 #
loop $757 $-1 $629 $559 #
edge_name-twe-attrib $-1 $-1 $-1 $630 45 8448 #
vertex $-1 $630 $758 #
ellipse-curve $759 -95 -1 85 0 -1 0 0 0 -5 1 #
point $-1 -20 -15 70 #
cur-twe-attrib $-1 $-1 $-1 $636 546 #
surf-twe-attrib $-1 $-1 $-1 $638 548 #
loop_type-twe-attrib $-1 $-1 $-1 $643 0 #
coedge $-1 $712 $712 $715 $760 1 $643 $-1 #
surf-twe-attrib $-1 $-1 $-1 $644 559 #
loop_type-twe-attrib $-1 $-1 $-1 $646 1 #
coedge $-1 $715 $715 $712 $760 0 $646 $-1 #
edge $761 $762 $762 $647 $-1 0 #
point $-1 -25 -15 75 #
cur-twe-attrib $-1 $-1 $-1 $651 564 #
edge_name-twe-attrib $-1 $-1 $-1 $654 52 4352 #
vertex $-1 $654 $763 #
ellipse-curve $764 -15 -31 85 0 -1 0 0 0 -5 1 #
point $-1 -15 -33.8867530822754 85 #
point $-1 -20 -31 15.0000004371139 #
cur-twe-attrib $-1 $-1 $-1 $662 583 #
face_name-twe-attrib $-1 $-1 $-1 $665 36 #
loop $765 $766 $735 $665 #
cone-surface $767 20 -65.0310897827148 80 0 -1 0 -7 0 0 1 0 1 0 #
loop_type-twe-attrib $-1 $-1 $-1 $666 0 #
loop $768 $-1 $674 $590 #
coedge $-1 $730 $730 $733 $769 1 $666 $-1 #
surf-twe-attrib $-1 $-1 $-1 $667 590 #
loop_type-twe-attrib $-1 $-1 $-1 $669 1 #
coedge $-1 $733 $733 $730 $769 0 $669 $-1 #
edge $770 $771 $771 $670 $-1 0 #
coedge $-1 $735 $735 $673 $736 1 $726 $-1 #
edge $772 $773 $773 $735 $774 1 #
edge_name-twe-attrib $-1 $-1 $-1 $675 63 8704 #
vertex $-1 $675 $775 #
ellipse-curve $776 20 -30 80 0 -1 0 0 0 -5 1 #
point $-1 14 -22 20.0000005245367 #
cur-twe-attrib $-1 $-1 $-1 $678 597 #
loop_type-twe-attrib $-1 $-1 $-1 $682 0 #
coedge $-1 $743 $743 $748 $777 0 $682 $-1 #
surf-twe-attrib $-1 $-1 $-1 $683 603 #
coedge $-1 $745 $745 $685 $746 0 $766 $-1 #
edge $778 $779 $779 $685 $780 1 #
loop_type-twe-attrib $-1 $-1 $-1 $689 0 #
coedge $-1 $748 $748 $743 $777 1 $689 $-1 #
surf-twe-attrib $-1 $-1 $-1 $690 610 #
edge_name-twe-attrib $-1 $-1 $-1 $691 31 4608 #
ellipse-curve $781 -25 -15 70 0 -1 0 5 0 0 1 #
cur-twe-attrib $-1 $-1 $-1 $693 614 #
cur-twe-attrib $-1 $-1 $-1 $696 618 #
edge $782 $783 $783 $699 $784 1 #
edge_name-twe-attrib $-1 $-1 $-1 $703 47 128 #
vertex $-1 $703 $785 #
loop_type-twe-attrib $-1 $-1 $-1 $704 1 #
point $-1 -100 -1 85.0000004371139 #
cur-twe-attrib $-1 $-1 $-1 $707 630 #
edge $786 $787 $787 $712 $788 1 #
edge_name-twe-attrib $-1 $-1 $-1 $716 43 128 #
vertex $-1 $716 $789 #
point $-1 -20 -31 85.0000004371139 #
cur-twe-attrib $-1 $-1 $-1 $721 654 #
loop_type-twe-attrib $-1 $-1 $-1 $726 0 #
loop $790 $-1 $745 $665 #
surf-twe-attrib $-1 $-1 $-1 $727 665 #
loop_type-twe-attrib $-1 $-1 $-1 $729 1 #
edge $791 $792 $792 $730 $793 1 #
edge_name-twe-attrib $-1 $-1 $-1 $734 64 128 #
vertex $-1 $734 $794 #
edge_name-twe-attrib $-1 $-1 $-1 $736 66 4608 #
vertex $-1 $736 $795 #
ellipse-curve $796 20 -30 80 0 -1 0 0 0 -7 1 #
point $-1 15 -30 80.0000004371139 #
cur-twe-attrib $-1 $-1 $-1 $739 675 #
edge $797 $798 $798 $748 $799 1 #
edge_name-twe-attrib $-1 $-1 $-1 $746 67 8448 #
vertex $-1 $746 $800 #
ellipse-curve $801 20 -21 80 0 -1 0 0 0 -7 1 #
cur-twe-attrib $-1 $-1 $-1 $751 691 #
edge_name-twe-attrib $-1 $-1 $-1 $754 48 4352 #
vertex $-1 $754 $802 #
ellipse-curve $803 -95 -31 15 0 -1 0 0 0 -5 1 #
point $-1 -95 -33.8867530822754 15 #
edge_name-twe-attrib $-1 $-1 $-1 $760 44 4352 #
vertex $-1 $760 $804 #
ellipse-curve $805 -95 -31 85 0 -1 0 0 0 -5 1 #
point $-1 -95 -33.8867530822754 85 #
loop_type-twe-attrib $-1 $-1 $-1 $766 1 #
edge_name-twe-attrib $-1 $-1 $-1 $769 65 4352 #
vertex $-1 $769 $806 #
ellipse-curve $807 20 -60 80 0 -1 0 0 0 -5 1 #
point $-1 20 -62.8867530822754 80 #
point $-1 27 -30 80 #
cur-twe-attrib $-1 $-1 $-1 $774 736 #
edge_name-twe-attrib $-1 $-1 $-1 $777 69 4608 #
vertex $-1 $777 $808 #
ellipse-curve $809 -60 -35 50 0 -1 0 0 0 -13 1 #
point $-1 13 -21 80.0000006119595 #
cur-twe-attrib $-1 $-1 $-1 $780 746 #
point $-1 -100 -31 15.0000004371139 #
cur-twe-attrib $-1 $-1 $-1 $784 754 #
point $-1 -100 -31 85.0000004371139 #
cur-twe-attrib $-1 $-1 $-1 $788 760 #
point $-1 15 -60 80.0000004371139 #
cur-twe-attrib $-1 $-1 $-1 $793 769 #
point $-1 -47 -35 50 #
cur-twe-attrib $-1 $-1 $-1 $799 777 #
