600 0 1 0           
88 GICL ACIS Healer - Source: /gicl/data5/repository/ICEM-CDC/demos/DEMO02/DEMO02.sat - 6 0 18 ACIS 6.0.3 Solaris 24 Sat Apr 13 23:07:53 2002 
1 9.999999999999999547e-07 1.000000000000000036e-10 
body $-1 $1 $-1 $2 #
lump $-1 $-1 $3 $0 #
transform $-1 1 0 0 0 1 0 0 0 1 0 0 0 1 no_rotate no_reflect no_shear #
shell $-1 $-1 $-1 $4 $-1 $1 #
face $5 $6 $7 $3 $-1 $8 reversed single #
face_name-twe-attrib $-1 $-1 $-1 $4 1 #
face $9 $10 $11 $3 $-1 $12 forward single #
loop $13 $-1 $14 $4 #
plane-surface $15 0 0 0 0 0 1 1 0 0 forward_v I I I I #
face_name-twe-attrib $-1 $-1 $-1 $6 2 #
face $16 $17 $18 $3 $-1 $19 forward single #
loop $20 $-1 $21 $6 #
plane-surface $22 0 0 100 0 0 1 1 0 0 forward_v I I I I #
loop_type-twe-attrib $-1 $-1 $-1 $7 0 #
coedge $-1 $23 $24 $25 $26 forward $7 $-1 #
surf-twe-attrib $-1 $-1 $-1 $8 4 #
face_name-twe-attrib $-1 $-1 $-1 $10 3 #
face $27 $28 $29 $3 $-1 $30 forward single #
loop $31 $32 $33 $10 #
plane-surface $34 0 0 0 0 1 0 0 0 1 forward_v I I I I #
loop_type-twe-attrib $-1 $-1 $-1 $11 0 #
coedge $-1 $35 $36 $37 $38 reversed $11 $-1 #
surf-twe-attrib $-1 $-1 $-1 $12 6 #
coedge $-1 $39 $14 $40 $41 forward $7 $-1 #
coedge $-1 $14 $42 $43 $44 forward $7 $-1 #
coedge $-1 $45 $46 $14 $26 reversed $47 $-1 #
edge $48 $49 -110 $50 0 $25 $51 forward 7 unknown #
face_name-twe-attrib $-1 $-1 $-1 $17 4 #
face $52 $53 $54 $3 $-1 $55 forward single #
loop $56 $-1 $43 $17 #
plane-surface $57 -110 0 0 -1 0 0 0 0 1 forward_v I I I I #
loop_type-twe-attrib $-1 $-1 $-1 $18 1 #
loop $58 $59 $60 $10 #
coedge $-1 $33 $33 $61 $62 forward $18 $-1 #
surf-twe-attrib $-1 $-1 $-1 $19 10 #
coedge $-1 $63 $21 $64 $65 reversed $11 $-1 #
coedge $-1 $21 $66 $67 $68 reversed $11 $-1 #
coedge $-1 $46 $45 $21 $38 forward $47 $-1 #
edge $69 $70 -110 $71 0 $37 $72 forward 7 unknown #
coedge $-1 $73 $23 $74 $75 forward $7 $-1 #
coedge $-1 $76 $77 $23 $41 reversed $78 $-1 #
edge $79 $50 -10 $80 10 $40 $81 forward 7 unknown #
coedge $-1 $24 $73 $82 $83 forward $7 $-1 #
coedge $-1 $84 $85 $24 $44 reversed $29 $-1 #
edge $86 $87 -80 $49 0 $43 $88 forward 7 unknown #
coedge $-1 $37 $25 $85 $89 reversed $47 $-1 #
coedge $-1 $25 $37 $76 $90 forward $47 $-1 #
loop $91 $92 $25 $10 #
edge_name-twe-attrib $-1 $-1 $-1 $26 1 8704 #
vertex $-1 $89 $93 #
vertex $-1 $90 $94 #
straight-curve $-1 0 0 0 1 0 0 I I #
face_name-twe-attrib $-1 $-1 $-1 $28 5 #
face $95 $96 $97 $3 $-1 $98 forward single #
loop $99 $-1 $82 $28 #
plane-surface $100 -110 -80 0 0 -1 0 0 0 -1 forward_v I I I I #
loop_type-twe-attrib $-1 $-1 $-1 $29 0 #
surf-twe-attrib $-1 $-1 $-1 $30 17 #
loop_type-twe-attrib $-1 $-1 $-1 $32 1 #
loop $101 $47 $102 $10 #
coedge $-1 $60 $60 $103 $104 forward $32 $-1 #
coedge $-1 $61 $61 $33 $62 reversed $105 $-1 #
edge $106 $107 1.570796326794896558 $107 7.85398163397448279 $61 $108 forward 7 unknown #
coedge $-1 $109 $35 $110 $111 reversed $11 $-1 #
coedge $-1 $85 $84 $35 $65 forward $29 $-1 #
edge $112 $113 -80 $70 0 $64 $114 forward 7 unknown #
coedge $-1 $36 $109 $115 $116 reversed $11 $-1 #
coedge $-1 $77 $76 $36 $68 forward $78 $-1 #
edge $117 $71 -10 $118 10 $67 $119 forward 7 unknown #
edge_name-twe-attrib $-1 $-1 $-1 $38 2 8704 #
vertex $-1 $89 $120 #
vertex $-1 $90 $121 #
straight-curve $-1 0 0 100 1 0 0 I I #
coedge $-1 $42 $39 $122 $123 forward $7 $-1 #
coedge $-1 $124 $125 $39 $75 reversed $126 $-1 #
edge $127 $80 -20 $128 20 $74 $129 forward 7 unknown #
coedge $-1 $67 $40 $46 $90 reversed $78 $-1 #
coedge $-1 $40 $67 $124 $130 forward $78 $-1 #
loop $131 $-1 $40 $132 #
edge_name-twe-attrib $-1 $-1 $-1 $41 15 8704 #
vertex $-1 $130 $133 #
straight-curve $-1 0 -10 0 0 -1 0 I I #
coedge $-1 $134 $135 $42 $83 reversed $54 $-1 #
edge $136 $137 -95 $87 55 $82 $138 forward 7 unknown #
coedge $-1 $64 $43 $135 $139 reversed $29 $-1 #
coedge $-1 $43 $64 $45 $89 forward $29 $-1 #
edge_name-twe-attrib $-1 $-1 $-1 $44 3 8704 #
vertex $-1 $139 $140 #
straight-curve $-1 -110 0 0 0 1 -0 I I #
edge $141 $70 -100 $49 0 $85 $142 forward 7 unknown #
edge $143 $71 -100 $50 -0 $76 $144 reversed 7 unknown #
loop_type-twe-attrib $-1 $-1 $-1 $47 0 #
loop $145 $146 $147 $10 #
point $-1 -110 0 0 #
point $-1 0 0 0 #
face_name-twe-attrib $-1 $-1 $-1 $53 6 #
face $148 $132 $126 $3 $-1 $149 forward single #
loop $150 $-1 $122 $53 #
plane-surface $151 40 -80 0 1 0 0 0 0 -1 forward_v I I I I #
loop_type-twe-attrib $-1 $-1 $-1 $54 0 #
surf-twe-attrib $-1 $-1 $-1 $55 28 #
loop_type-twe-attrib $-1 $-1 $-1 $59 1 #
coedge $-1 $102 $102 $152 $153 forward $59 $-1 #
coedge $-1 $103 $103 $60 $104 reversed $154 $-1 #
edge $155 $156 1.570796326794896558 $156 7.85398163397448279 $103 $157 forward 7 unknown #
loop $158 $-1 $61 $159 #
edge_name-twe-attrib $-1 $-1 $-1 $62 58 8448 #
vertex $-1 $62 $160 #
ellipse-curve $-1 -15 0 15 -0 -1 -0 0 0 -6 1 I I #
coedge $-1 $66 $63 $161 $162 reversed $11 $-1 #
coedge $-1 $135 $134 $63 $111 forward $54 $-1 #
edge $163 $164 -95 $113 55 $110 $165 forward 7 unknown #
edge_name-twe-attrib $-1 $-1 $-1 $65 4 8704 #
vertex $-1 $139 $166 #
straight-curve $-1 -110 0 100 0 1 -0 I I #
coedge $-1 $125 $124 $66 $116 forward $126 $-1 #
edge $167 $118 -20 $168 20 $115 $169 forward 7 unknown #
edge_name-twe-attrib $-1 $-1 $-1 $68 17 8704 #
vertex $-1 $130 $170 #
straight-curve $-1 0 -10 100 0 -1 0 I I #
point $-1 -110 0 100 #
point $-1 0 0 100 #
coedge $-1 $171 $172 $73 $123 reversed $97 $-1 #
edge $173 $128 -20 $137 40 $122 $174 forward 7 unknown #
coedge $-1 $115 $74 $77 $130 reversed $126 $-1 #
coedge $-1 $74 $115 $171 $175 forward $126 $-1 #
loop $176 $177 $74 $96 #
edge_name-twe-attrib $-1 $-1 $-1 $75 12 8704 #
vertex $-1 $175 $178 #
straight-curve $-1 20 -20 0 1 0 0 I I #
edge $179 $118 -100 $80 -0 $77 $180 reversed 7 unknown #
loop_type-twe-attrib $-1 $-1 $-1 $78 0 #
face $181 $182 $78 $3 $-1 $183 forward single #
point $-1 0 -20 0 #
coedge $-1 $110 $82 $172 $184 reversed $54 $-1 #
coedge $-1 $82 $110 $84 $139 forward $54 $-1 #
edge_name-twe-attrib $-1 $-1 $-1 $83 6 8704 #
vertex $-1 $184 $185 #
straight-curve $-1 -55 -80 0 -1 0 0 I I #
edge $186 $113 -100 $87 -0 $135 $187 forward 7 unknown #
point $-1 -110 -80 0 #
edge_name-twe-attrib $-1 $-1 $-1 $89 5 8704 #
straight-curve $-1 -110 0 0 0 0 -1 I I #
edge_name-twe-attrib $-1 $-1 $-1 $90 16 8704 #
straight-curve $-1 0 0 0 0 0 1 I I #
loop_type-twe-attrib $-1 $-1 $-1 $92 1 #
loop $188 $-1 $189 $10 #
coedge $-1 $190 $191 $192 $193 forward $92 $-1 #
face_name-twe-attrib $-1 $-1 $-1 $96 7 #
plane-surface $194 40 -20 0 0 1 0 0 0 1 forward_v I I I I #
loop_type-twe-attrib $-1 $-1 $-1 $97 0 #
surf-twe-attrib $-1 $-1 $-1 $98 53 #
coedge $-1 $152 $152 $102 $153 reversed $195 $-1 #
edge $196 $197 1.570796326794896558 $197 7.85398163397448279 $152 $198 forward 7 unknown #
loop $199 $-1 $103 $200 #
edge_name-twe-attrib $-1 $-1 $-1 $104 54 8448 #
vertex $-1 $104 $201 #
ellipse-curve $-1 -15 0 85 -0 -1 -0 0 0 -6 1 I I #
loop_type-twe-attrib $-1 $-1 $-1 $105 1 #
face $202 $203 $204 $3 $-1 $205 reversed single #
point $-1 -9 0 15 #
coedge $-1 $172 $171 $109 $162 forward $97 $-1 #
edge $206 $168 -20 $164 40 $161 $207 forward 7 unknown #
edge_name-twe-attrib $-1 $-1 $-1 $111 7 8704 #
vertex $-1 $184 $208 #
straight-curve $-1 -55 -80 100 -1 0 0 I I #
point $-1 -110 -80 100 #
edge_name-twe-attrib $-1 $-1 $-1 $116 13 8704 #
vertex $-1 $175 $209 #
straight-curve $-1 20 -20 100 1 0 0 I I #
point $-1 0 -20 100 #
coedge $-1 $161 $122 $125 $175 reversed $97 $-1 #
coedge $-1 $122 $161 $134 $184 forward $97 $-1 #
edge_name-twe-attrib $-1 $-1 $-1 $123 9 8704 #
straight-curve $-1 40 -40 0 0 -1 0 I I #
edge $210 $168 -100 $128 0 $125 $211 forward 7 unknown #
loop_type-twe-attrib $-1 $-1 $-1 $126 0 #
loop $212 $213 $214 $96 #
point $-1 40 -20 0 #
edge_name-twe-attrib $-1 $-1 $-1 $130 18 4608 #
straight-curve $-1 0 -20 0 0 0 1 I I #
face_name-twe-attrib $-1 $-1 $-1 $132 8 #
face $215 $216 $217 $3 $-1 $218 forward single #
plane-surface $219 0 -20 0 1 0 0 0 0 -1 forward_v I I I I #
edge $220 $164 -100 $137 0 $172 $221 forward 7 unknown #
point $-1 40 -80 0 #
edge_name-twe-attrib $-1 $-1 $-1 $139 8 8704 #
straight-curve $-1 -110 -80 0 -0 -0 -1 I I #
loop_type-twe-attrib $-1 $-1 $-1 $146 1 #
coedge $-1 $189 $189 $222 $223 forward $146 $-1 #
coedge $-1 $224 $147 $225 $226 forward $92 $-1 #
coedge $-1 $147 $227 $228 $229 forward $92 $-1 #
coedge $-1 $230 $231 $147 $193 reversed $232 $-1 #
edge $233 $234 0 $235 1.570796326794896558 $192 $236 forward 7 unknown #
surf-twe-attrib $-1 $-1 $-1 $149 97 #
loop $237 $-1 $152 $238 #
edge_name-twe-attrib $-1 $-1 $-1 $153 50 8448 #
vertex $-1 $153 $239 #
ellipse-curve $-1 -95 0 15 -0 -1 -0 0 0 -6 1 I I #
loop_type-twe-attrib $-1 $-1 $-1 $154 1 #
face $240 $241 $242 $3 $-1 $243 reversed single #
point $-1 -9 0 85 #
face_name-twe-attrib $-1 $-1 $-1 $159 29 #
face $244 $245 $246 $3 $-1 $247 reversed single #
loop $248 $105 $249 $159 #
cone-surface $250 -15 0 15 0 1 0 0 0 -6 1 I I 0.7071067966408579597 0.7071067657322367417 6 forward I I I I #
edge_name-twe-attrib $-1 $-1 $-1 $162 10 8704 #
straight-curve $-1 40 -40 100 0 -1 0 I I #
point $-1 40 -80 100 #
point $-1 40 -20 100 #
edge_name-twe-attrib $-1 $-1 $-1 $175 14 8704 #
straight-curve $-1 40 -20 0 0 0 -1 I I #
loop_type-twe-attrib $-1 $-1 $-1 $177 1 #
loop $251 $-1 $252 $96 #
coedge $-1 $214 $214 $253 $254 forward $177 $-1 #
face_name-twe-attrib $-1 $-1 $-1 $182 9 #
face $255 $256 $232 $3 $-1 $257 reversed single #
loop $258 $259 $260 $182 #
plane-surface $261 0 -15 0 0 1 0 0 0 1 forward_v I I I I #
surf-twe-attrib $-1 $-1 $-1 $183 134 #
edge_name-twe-attrib $-1 $-1 $-1 $184 11 8704 #
straight-curve $-1 40 -80 0 0 0 -1 I I #
coedge $-1 $222 $222 $189 $223 reversed $262 $-1 #
edge $263 $264 1.570796326794896558 $264 7.85398163397448279 $222 $265 forward 7 unknown #
coedge $-1 $266 $190 $267 $268 forward $92 $-1 #
coedge $-1 $269 $270 $190 $226 reversed $271 $-1 #
edge $272 $235 -72.5 $273 -12.5 $225 $274 forward 7 unknown #
coedge $-1 $191 $275 $276 $277 forward $92 $-1 #
coedge $-1 $278 $279 $191 $229 reversed $280 $-1 #
edge $281 $282 -52.5 $234 -17.5 $228 $283 forward 7 unknown #
coedge $-1 $284 $192 $279 $285 forward $232 $-1 #
coedge $-1 $192 $284 $269 $286 reversed $232 $-1 #
loop $287 $-1 $192 $216 #
edge_name-twe-attrib $-1 $-1 $-1 $193 19 8704 #
vertex $-1 $285 $288 #
vertex $-1 $286 $289 #
ellipse-curve $-1 -85 0 35 -0 -1 -0 -5 0 0 1 I I #
loop_type-twe-attrib $-1 $-1 $-1 $195 1 #
face $290 $291 $292 $3 $-1 $293 reversed single #
point $-1 -89 0 15 #
face_name-twe-attrib $-1 $-1 $-1 $200 26 #
face $294 $295 $296 $3 $-1 $297 reversed single #
loop $298 $154 $299 $200 #
cone-surface $300 -15 0 85 0 1 0 0 0 -6 1 I I 0.7071067966408579597 0.7071067657322367417 6 forward I I I I #
face_name-twe-attrib $-1 $-1 $-1 $203 30 #
face $301 $302 $303 $3 $-1 $304 reversed single #
loop $305 $306 $307 $203 #
cone-surface $308 20 -47 20 0 1 0 0 0 -6 1 I I 0.866025418354901988 0.4999999747632163927 6 forward I I I I #
loop_type-twe-attrib $-1 $-1 $-1 $204 0 #
coedge $-1 $249 $249 $309 $310 reversed $204 $-1 #
surf-twe-attrib $-1 $-1 $-1 $205 163 #
loop_type-twe-attrib $-1 $-1 $-1 $213 1 #
coedge $-1 $252 $252 $311 $312 forward $213 $-1 #
coedge $-1 $253 $253 $214 $254 reversed $313 $-1 #
edge $314 $315 1.570796326794896558 $315 7.85398163397448279 $253 $316 forward 7 unknown #
face_name-twe-attrib $-1 $-1 $-1 $216 10 #
face $317 $318 $280 $3 $-1 $319 reversed single #
cone-surface $320 -85 -15 35 0 -1 0 -5 0 0 1 I I 0 1 5 forward I I I I #
loop_type-twe-attrib $-1 $-1 $-1 $217 0 #
loop $321 $-1 $322 $182 #
coedge $-1 $323 $324 $284 $325 reversed $217 $-1 #
surf-twe-attrib $-1 $-1 $-1 $218 190 #
loop $326 $-1 $222 $327 #
edge_name-twe-attrib $-1 $-1 $-1 $223 46 8448 #
vertex $-1 $223 $328 #
ellipse-curve $-1 -95 0 85 -0 -1 -0 0 0 -6 1 I I #
coedge $-1 $329 $224 $330 $331 forward $92 $-1 #
coedge $-1 $332 $333 $224 $268 reversed $334 $-1 #
edge $335 $273 1.570796326794896558 $336 3.141592653589793116 $267 $337 forward 7 unknown #
coedge $-1 $338 $225 $231 $286 forward $271 $-1 #
coedge $-1 $225 $338 $332 $339 reversed $271 $-1 #
loop $340 $-1 $225 $341 #
edge_name-twe-attrib $-1 $-1 $-1 $226 39 8704 #
vertex $-1 $339 $342 #
straight-curve $-1 -12.5 0 30 1 -0 0 I I #
coedge $-1 $227 $329 $343 $344 forward $92 $-1 #
coedge $-1 $345 $346 $227 $277 reversed $347 $-1 #
edge $348 $349 -1.570796326794896558 $282 0 $276 $350 forward 7 unknown #
coedge $-1 $351 $228 $346 $352 forward $280 $-1 #
coedge $-1 $228 $351 $230 $285 reversed $280 $-1 #
loop $353 $-1 $228 $256 #
edge_name-twe-attrib $-1 $-1 $-1 $229 21 8704 #
vertex $-1 $352 $354 #
straight-curve $-1 -90 0 17.5 0 0 -1 I I #
coedge $-1 $231 $230 $260 $325 forward $232 $-1 #
edge $355 $234 -15 $356 0 $279 $357 forward 7 unknown #
edge $358 $235 -15 $359 0 $269 $360 forward 7 unknown #
loop_type-twe-attrib $-1 $-1 $-1 $232 0 #
point $-1 -90 0 35 #
point $-1 -85 0 30 #
face_name-twe-attrib $-1 $-1 $-1 $238 23 #
face $361 $362 $363 $3 $-1 $364 reversed single #
loop $365 $195 $366 $238 #
cone-surface $367 -95 0 15 0 1 0 0 0 -6 1 I I 0.7071067966408579597 0.7071067657322367417 6 forward I I I I #
face_name-twe-attrib $-1 $-1 $-1 $241 27 #
face $368 $159 $369 $3 $-1 $370 reversed single #
loop $371 $372 $373 $241 #
cone-surface $374 -15 -31 15 0 1 0 0 0 -5 1 I I 0.866025418354901988 0.4999999747632163927 5 forward I I I I #
loop_type-twe-attrib $-1 $-1 $-1 $242 0 #
coedge $-1 $299 $299 $375 $376 reversed $242 $-1 #
surf-twe-attrib $-1 $-1 $-1 $243 211 #
face_name-twe-attrib $-1 $-1 $-1 $245 31 #
face $377 $378 $379 $3 $-1 $380 reversed single #
loop $381 $382 $383 $245 #
cone-surface $384 20 -51.98730850219730115 20 0 -1 0 -6 0 0 1 I I 0 1 6 forward I I I I #
loop_type-twe-attrib $-1 $-1 $-1 $246 0 #
loop $385 $-1 $386 $203 #
coedge $-1 $307 $307 $-1 $387 forward $246 $-1 #
surf-twe-attrib $-1 $-1 $-1 $247 215 #
coedge $-1 $309 $309 $249 $310 forward $388 $-1 #
edge $389 $390 -6.283185219756806106 $390 8.742278012618931154e-08 $249 $391 reversed 7 unknown #
coedge $-1 $311 $311 $252 $312 reversed $392 $-1 #
edge $393 $394 1.570796326794896558 $394 7.85398163397448279 $311 $395 forward 7 unknown #
loop $396 $-1 $253 $302 #
edge_name-twe-attrib $-1 $-1 $-1 $254 62 8448 #
vertex $-1 $254 $397 #
ellipse-curve $-1 20 -20 20 -0 -1 -0 0 0 -8 1 I I #
face_name-twe-attrib $-1 $-1 $-1 $256 11 #
face $398 $399 $347 $3 $-1 $400 reversed single #
plane-surface $401 -90 -15 35 -1 0 0 0 0 1 forward_v I I I I #
surf-twe-attrib $-1 $-1 $-1 $257 232 #
loop_type-twe-attrib $-1 $-1 $-1 $259 1 #
coedge $-1 $322 $322 $402 $403 forward $259 $-1 #
coedge $-1 $404 $260 $351 $405 reversed $217 $-1 #
coedge $-1 $260 $406 $338 $407 reversed $217 $-1 #
edge $408 $356 0 $359 1.570796326794896558 $284 $409 forward 7 unknown #
loop_type-twe-attrib $-1 $-1 $-1 $262 1 #
face $410 $411 $412 $3 $-1 $413 reversed single #
point $-1 -89 0 85 #
coedge $-1 $275 $266 $414 $415 forward $92 $-1 #
coedge $-1 $416 $417 $266 $331 reversed $418 $-1 #
edge $419 $336 0 $420 35 $330 $421 forward 7 unknown #
coedge $-1 $422 $267 $270 $339 forward $334 $-1 #
coedge $-1 $267 $422 $416 $423 reversed $334 $-1 #
loop $424 $-1 $267 $425 #
edge_name-twe-attrib $-1 $-1 $-1 $268 36 8704 #
vertex $-1 $423 $426 #
ellipse-curve $-1 -25 0 35 -0 -1 -0 -5 0 0 1 I I #
coedge $-1 $270 $269 $324 $407 forward $271 $-1 #
edge $427 $273 -15 $428 0 $270 $429 forward 7 unknown #
loop_type-twe-attrib $-1 $-1 $-1 $271 0 #
face $430 $431 $271 $3 $-1 $432 reversed single #
point $-1 -25 0 30 #
coedge $-1 $433 $434 $275 $344 reversed $435 $-1 #
edge $436 $437 -17.5 $349 42.5 $343 $438 forward 7 unknown #
coedge $-1 $439 $276 $434 $440 forward $347 $-1 #
coedge $-1 $276 $439 $278 $352 reversed $347 $-1 #
loop $441 $-1 $276 $318 #
edge_name-twe-attrib $-1 $-1 $-1 $277 24 8704 #
vertex $-1 $440 $442 #
ellipse-curve $-1 -85 0 70 -0 -1 -0 -5 0 0 1 I I #
coedge $-1 $279 $278 $323 $405 forward $280 $-1 #
edge $443 $282 -15 $444 0 $346 $445 forward 7 unknown #
loop_type-twe-attrib $-1 $-1 $-1 $280 0 #
point $-1 -90 0 70 #
edge_name-twe-attrib $-1 $-1 $-1 $285 23 20480 #
vertex $-1 $285 $446 #
straight-curve $-1 -90 -15 35 0 -1 0 I I #
edge_name-twe-attrib $-1 $-1 $-1 $286 40 20480 #
vertex $-1 $286 $447 #
straight-curve $-1 -85 -15 30 0 -1 0 I I #
face_name-twe-attrib $-1 $-1 $-1 $291 24 #
face $448 $200 $449 $3 $-1 $450 reversed single #
loop $451 $452 $453 $291 #
cone-surface $454 -15 -31 85 0 1 0 0 0 -5 1 I I 0.866025418354901988 0.4999999747632163927 5 forward I I I I #
loop_type-twe-attrib $-1 $-1 $-1 $292 0 #
coedge $-1 $366 $366 $455 $456 reversed $292 $-1 #
surf-twe-attrib $-1 $-1 $-1 $293 255 #
face_name-twe-attrib $-1 $-1 $-1 $295 28 #
loop $457 $388 $458 $295 #
cone-surface $459 -15 -35.58108901977539773 15 0 -1 0 -5 0 0 1 I I 0 1 5 forward I I I I #
loop_type-twe-attrib $-1 $-1 $-1 $296 0 #
loop $460 $-1 $461 $241 #
coedge $-1 $373 $373 $-1 $462 forward $296 $-1 #
surf-twe-attrib $-1 $-1 $-1 $297 259 #
coedge $-1 $375 $375 $299 $376 forward $463 $-1 #
edge $464 $465 -6.283185219756806994 $465 8.742277941564657843e-08 $299 $466 reversed 7 unknown #
face_name-twe-attrib $-1 $-1 $-1 $302 32 #
face $467 $468 $469 $3 $-1 $470 forward single #
loop $471 $313 $472 $302 #
cone-surface $473 20 -20 20 0 1 0 0 0 -8 1 I I 0.7071067966408579597 0.7071067657322367417 8 forward I I I I #
loop_type-twe-attrib $-1 $-1 $-1 $303 0 #
loop $474 $-1 $475 $245 #
coedge $-1 $383 $383 $386 $476 reversed $303 $-1 #
surf-twe-attrib $-1 $-1 $-1 $304 263 #
loop_type-twe-attrib $-1 $-1 $-1 $306 1 #
coedge $-1 $386 $386 $383 $476 forward $306 $-1 #
edge $477 $478 1 $478 0 $307 $-1 forward 7 unknown #
loop $479 $-1 $309 $295 #
edge_name-twe-attrib $-1 $-1 $-1 $310 57 8448 #
vertex $-1 $310 $480 #
ellipse-curve $-1 -15 -0.9999999562886117133 15 0 -1 0 -5 0 0 1 I I #
loop $481 $-1 $311 $482 #
edge_name-twe-attrib $-1 $-1 $-1 $312 68 8448 #
vertex $-1 $312 $483 #
ellipse-curve $-1 20 -20 80 -0 -1 -0 0 0 -8 1 I I #
loop_type-twe-attrib $-1 $-1 $-1 $313 1 #
point $-1 28 -20 20 #
face_name-twe-attrib $-1 $-1 $-1 $318 12 #
face $484 $485 $435 $3 $-1 $486 reversed single #
cone-surface $487 -85 -15 70 0 -1 0 -5 0 0 1 I I 0 1 5 forward I I I I #
surf-twe-attrib $-1 $-1 $-1 $319 276 #
coedge $-1 $402 $402 $322 $403 reversed $488 $-1 #
edge $489 $490 -3.141592653589793116 $490 3.141592653589793116 $402 $491 forward 7 unknown #
coedge $-1 $492 $323 $439 $493 reversed $217 $-1 #
edge $494 $444 -52.5 $356 -17.5 $351 $495 forward 7 unknown #
coedge $-1 $324 $496 $422 $497 reversed $217 $-1 #
edge $498 $359 -72.5 $428 -12.5 $338 $499 forward 7 unknown #
edge_name-twe-attrib $-1 $-1 $-1 $325 20 4608 #
ellipse-curve $-1 -85 -15 35 -0 -1 -0 -5 0 0 1 I I #
face_name-twe-attrib $-1 $-1 $-1 $327 20 #
face $500 $501 $502 $3 $-1 $503 reversed single #
loop $504 $262 $505 $327 #
cone-surface $506 -95 0 85 0 1 0 0 0 -6 1 I I 0.7071067966408579597 0.7071067657322369637 6 forward I I I I #
coedge $-1 $507 $508 $329 $415 reversed $509 $-1 #
edge $510 $420 -3.141592653589793116 $437 -1.570796326794896558 $414 $511 forward 7 unknown #
coedge $-1 $512 $330 $333 $423 forward $418 $-1 #
coedge $-1 $330 $512 $507 $513 reversed $418 $-1 #
loop $514 $-1 $330 $515 #
edge_name-twe-attrib $-1 $-1 $-1 $331 33 8704 #
vertex $-1 $513 $516 #
straight-curve $-1 -20 0 35 0 0 1 I I #
coedge $-1 $333 $332 $406 $497 forward $334 $-1 #
edge $517 $336 -15 $518 0 $333 $519 forward 7 unknown #
loop_type-twe-attrib $-1 $-1 $-1 $334 0 #
face $520 $341 $334 $3 $-1 $521 reversed single #
point $-1 -20 0 35 #
edge_name-twe-attrib $-1 $-1 $-1 $339 42 20480 #
vertex $-1 $339 $522 #
straight-curve $-1 -25 -15 30 0 -1 0 I I #
face_name-twe-attrib $-1 $-1 $-1 $341 17 #
face $523 $524 $525 $3 $-1 $526 reversed single #
plane-surface $527 -25 -15 30 0 0 -1 -1 0 0 forward_v I I I I #
coedge $-1 $528 $343 $508 $529 forward $435 $-1 #
coedge $-1 $343 $528 $345 $440 reversed $435 $-1 #
loop $530 $-1 $343 $399 #
edge_name-twe-attrib $-1 $-1 $-1 $344 27 8704 #
vertex $-1 $529 $531 #
straight-curve $-1 -42.5 0 75 -1 0 0 I I #
coedge $-1 $346 $345 $404 $493 forward $347 $-1 #
edge $532 $349 -15 $533 0 $434 $534 forward 7 unknown #
loop_type-twe-attrib $-1 $-1 $-1 $347 0 #
point $-1 -85 0 75 #
edge_name-twe-attrib $-1 $-1 $-1 $352 26 20480 #
vertex $-1 $352 $535 #
straight-curve $-1 -90 -15 70 0 -1 0 I I #
point $-1 -90 -15 35 #
point $-1 -85 -15 30 #
face_name-twe-attrib $-1 $-1 $-1 $362 25 #
loop $536 $463 $537 $362 #
cone-surface $538 -15 -35.58108901977539773 85 0 -1 0 -5 0 0 1 I I 0 1 5 forward I I I I #
loop_type-twe-attrib $-1 $-1 $-1 $363 0 #
loop $539 $-1 $540 $291 #
coedge $-1 $453 $453 $-1 $541 forward $363 $-1 #
surf-twe-attrib $-1 $-1 $-1 $364 313 #
coedge $-1 $455 $455 $366 $456 forward $542 $-1 #
edge $543 $544 -6.283185219756806106 $544 8.742278012618931154e-08 $366 $545 reversed 7 unknown #
loop_type-twe-attrib $-1 $-1 $-1 $369 0 #
coedge $-1 $458 $458 $461 $546 reversed $369 $-1 #
surf-twe-attrib $-1 $-1 $-1 $370 317 #
loop_type-twe-attrib $-1 $-1 $-1 $372 1 #
coedge $-1 $461 $461 $458 $546 forward $372 $-1 #
edge $547 $548 1 $548 0 $373 $-1 forward 7 unknown #
loop $549 $-1 $375 $362 #
edge_name-twe-attrib $-1 $-1 $-1 $376 53 8448 #
vertex $-1 $376 $550 #
ellipse-curve $-1 -15 -0.9999999562886117133 85 0 -1 0 -5 0 0 1 I I #
face_name-twe-attrib $-1 $-1 $-1 $378 33 #
face $551 $552 $553 $3 $-1 $554 reversed single #
loop $555 $556 $557 $378 #
plane-surface $558 20 -30 80 0 1 0 0 0 1 forward_v I I I I #
loop_type-twe-attrib $-1 $-1 $-1 $379 0 #
coedge $-1 $472 $472 $475 $559 reversed $379 $-1 #
surf-twe-attrib $-1 $-1 $-1 $380 324 #
loop_type-twe-attrib $-1 $-1 $-1 $382 1 #
coedge $-1 $475 $475 $472 $559 forward $382 $-1 #
edge $560 $561 8.742278308678403946e-08 $561 6.283185394602369023 $383 $562 forward 7 unknown #
edge_name-twe-attrib $-1 $-1 $-1 $387 59 128 #
vertex $-1 $387 $563 #
loop_type-twe-attrib $-1 $-1 $-1 $388 1 #
point $-1 -20 -1 15.00000043711390063 #
loop_type-twe-attrib $-1 $-1 $-1 $392 1 #
face $564 $565 $566 $3 $-1 $567 reversed single #
point $-1 28 -20 80 #
face_name-twe-attrib $-1 $-1 $-1 $399 13 #
face $568 $515 $509 $3 $-1 $569 reversed single #
plane-surface $570 -85 -15 75 0 0 1 1 0 0 forward_v I I I I #
surf-twe-attrib $-1 $-1 $-1 $400 340 #
loop $571 $-1 $402 $572 #
edge_name-twe-attrib $-1 $-1 $-1 $403 70 8704 #
vertex $-1 $403 $573 #
ellipse-curve $-1 -60 -15 50 -0 -1 -0 -13 0 0 1 I I #
coedge $-1 $574 $404 $528 $575 reversed $217 $-1 #
edge $576 $533 -1.570796326794896558 $444 0 $439 $577 forward 7 unknown #
edge_name-twe-attrib $-1 $-1 $-1 $405 22 4608 #
straight-curve $-1 -90 -15 17.5 0 0 -1 I I #
coedge $-1 $406 $574 $512 $578 reversed $217 $-1 #
edge $579 $428 1.570796326794896558 $518 3.141592653589793116 $422 $580 forward 7 unknown #
edge_name-twe-attrib $-1 $-1 $-1 $407 41 4608 #
straight-curve $-1 -12.5 -15 30 1 -0 0 I I #
face_name-twe-attrib $-1 $-1 $-1 $411 21 #
face $581 $238 $582 $3 $-1 $583 reversed single #
loop $584 $585 $586 $411 #
cone-surface $587 -95 -31 15 0 1 0 0 0 -5 1 I I 0.866025418354901988 0.4999999747632163927 5 forward I I I I #
loop_type-twe-attrib $-1 $-1 $-1 $412 0 #
coedge $-1 $505 $505 $588 $589 reversed $412 $-1 #
surf-twe-attrib $-1 $-1 $-1 $413 349 #
coedge $-1 $590 $414 $417 $513 forward $509 $-1 #
coedge $-1 $414 $590 $433 $529 reversed $509 $-1 #
loop $591 $-1 $414 $485 #
edge_name-twe-attrib $-1 $-1 $-1 $415 30 8704 #
ellipse-curve $-1 -25 0 70 -0 -1 -0 -5 0 0 1 I I #
coedge $-1 $417 $416 $496 $578 forward $418 $-1 #
edge $592 $420 -15 $593 0 $417 $594 forward 7 unknown #
loop_type-twe-attrib $-1 $-1 $-1 $418 0 #
face $595 $425 $418 $3 $-1 $596 reversed single #
point $-1 -20 0 70 #
edge_name-twe-attrib $-1 $-1 $-1 $423 38 20480 #
vertex $-1 $423 $597 #
straight-curve $-1 -20 -15 35 0 -1 0 I I #
face_name-twe-attrib $-1 $-1 $-1 $425 16 #
cone-surface $598 -25 -15 35 0 -1 0 -5 0 0 1 I I 0 1 5 forward I I I I #
point $-1 -25 -15 30 #
face_name-twe-attrib $-1 $-1 $-1 $431 18 #
face $599 $327 $600 $3 $-1 $601 reversed single #
loop $602 $603 $604 $431 #
cone-surface $605 -95 -31 85 0 1 0 0 0 -5 1 I I 0.866025418354901988 0.4999999747632170033 5 forward I I I I #
surf-twe-attrib $-1 $-1 $-1 $432 364 #
coedge $-1 $434 $433 $492 $575 forward $435 $-1 #
edge $606 $437 -15 $607 0 $508 $608 forward 7 unknown #
loop_type-twe-attrib $-1 $-1 $-1 $435 0 #
point $-1 -25 0 75 #
edge_name-twe-attrib $-1 $-1 $-1 $440 29 20480 #
vertex $-1 $440 $609 #
straight-curve $-1 -85 -15 75 0 -1 0 I I #
point $-1 -90 -15 70 #
loop_type-twe-attrib $-1 $-1 $-1 $449 0 #
coedge $-1 $537 $537 $540 $610 reversed $449 $-1 #
surf-twe-attrib $-1 $-1 $-1 $450 387 #
loop_type-twe-attrib $-1 $-1 $-1 $452 1 #
coedge $-1 $540 $540 $537 $610 forward $452 $-1 #
edge $611 $612 1 $612 0 $453 $-1 forward 7 unknown #
loop $613 $-1 $455 $501 #
edge_name-twe-attrib $-1 $-1 $-1 $456 49 8448 #
vertex $-1 $456 $614 #
ellipse-curve $-1 -95 -0.9999999562886117133 15 0 -1 0 -5 0 0 1 I I #
edge $615 $616 8.742278012618931154e-08 $616 6.283185394602366358 $458 $617 forward 7 unknown #
edge_name-twe-attrib $-1 $-1 $-1 $462 55 128 #
vertex $-1 $462 $618 #
loop_type-twe-attrib $-1 $-1 $-1 $463 1 #
point $-1 -20 -1 85.00000043711389708 #
face_name-twe-attrib $-1 $-1 $-1 $468 34 #
face $619 $620 $621 $3 $-1 $622 reversed single #
loop $623 $624 $625 $468 #
cone-surface $626 20 -60 80 0 1 0 0 0 -5 1 I I 0.866025418354901988 0.4999999747632163927 5 forward I I I I #
loop_type-twe-attrib $-1 $-1 $-1 $469 1 #
loop $627 $-1 $628 $378 #
coedge $-1 $557 $557 $629 $630 forward $469 $-1 #
surf-twe-attrib $-1 $-1 $-1 $470 403 #
edge $631 $632 -6.283185219756803441 $632 8.742278308678403946e-08 $472 $633 reversed 7 unknown #
edge_name-twe-attrib $-1 $-1 $-1 $476 60 4352 #
vertex $-1 $476 $634 #
ellipse-curve $-1 20 -47 20 -0 1 -0 -6 0 0 1 I I #
point $-1 19.99999935135689455 -50.46410100751609207 20 #
face_name-twe-attrib $-1 $-1 $-1 $482 37 #
face $635 $572 $636 $3 $-1 $637 forward single #
loop $638 $392 $639 $482 #
cone-surface $640 20 -20 80 0 1 0 0 0 -8 1 I I 0.7071067966408579597 0.7071067657322367417 8 forward I I I I #
face_name-twe-attrib $-1 $-1 $-1 $485 14 #
cone-surface $641 -25 -15 70 0 -1 0 -5 0 0 1 I I 0 1 5 forward I I I I #
surf-twe-attrib $-1 $-1 $-1 $486 425 #
loop_type-twe-attrib $-1 $-1 $-1 $488 1 #
face $642 $-1 $643 $3 $-1 $644 reversed single #
point $-1 -47 -15 50 #
coedge $-1 $496 $492 $590 $645 reversed $217 $-1 #
edge $646 $607 -17.5 $533 42.5 $528 $647 forward 7 unknown #
edge_name-twe-attrib $-1 $-1 $-1 $493 25 4608 #
ellipse-curve $-1 -85 -15 70 -0 -1 -0 -5 0 0 1 I I #
edge $648 $518 0 $593 35 $512 $649 forward 7 unknown #
edge_name-twe-attrib $-1 $-1 $-1 $497 37 4608 #
ellipse-curve $-1 -25 -15 35 -0 -1 -0 -5 0 0 1 I I #
face_name-twe-attrib $-1 $-1 $-1 $501 22 #
loop $650 $542 $651 $501 #
cone-surface $652 -95 -35.58108901977539773 15 0 -1 0 -5 0 0 1 I I 0 1 5 forward I I I I #
loop_type-twe-attrib $-1 $-1 $-1 $502 0 #
loop $653 $-1 $654 $411 #
coedge $-1 $586 $586 $-1 $655 forward $502 $-1 #
surf-twe-attrib $-1 $-1 $-1 $503 437 #
coedge $-1 $588 $588 $505 $589 forward $656 $-1 #
edge $657 $658 -6.283185219756806994 $658 8.742277941564657843e-08 $505 $659 reversed 7 unknown #
coedge $-1 $508 $507 $574 $645 forward $509 $-1 #
loop_type-twe-attrib $-1 $-1 $-1 $509 0 #
edge_name-twe-attrib $-1 $-1 $-1 $513 35 20480 #
vertex $-1 $513 $660 #
straight-curve $-1 -20 -15 70 0 -1 0 I I #
face_name-twe-attrib $-1 $-1 $-1 $515 15 #
plane-surface $661 -20 -15 70 1 0 0 0 0 -1 forward_v I I I I #
point $-1 -20 -15 35 #
surf-twe-attrib $-1 $-1 $-1 $521 451 #
face_name-twe-attrib $-1 $-1 $-1 $524 19 #
loop $662 $656 $663 $524 #
cone-surface $664 -95 -35.58108901977539773 85 0 -1 0 -5 0 0 1 I I 0 1 5 forward I I I I #
loop_type-twe-attrib $-1 $-1 $-1 $525 0 #
loop $665 $-1 $666 $431 #
coedge $-1 $604 $604 $-1 $667 forward $525 $-1 #
surf-twe-attrib $-1 $-1 $-1 $526 458 #
edge_name-twe-attrib $-1 $-1 $-1 $529 32 20480 #
vertex $-1 $529 $668 #
straight-curve $-1 -25 -15 75 0 -1 0 I I #
point $-1 -85 -15 75 #
edge $669 $670 8.742277941564657843e-08 $670 6.28318539460236547 $537 $671 forward 7 unknown #
edge_name-twe-attrib $-1 $-1 $-1 $541 51 128 #
vertex $-1 $541 $672 #
loop_type-twe-attrib $-1 $-1 $-1 $542 1 #
point $-1 -100 -1 15.00000043711390063 #
edge_name-twe-attrib $-1 $-1 $-1 $546 56 4352 #
vertex $-1 $546 $673 #
ellipse-curve $-1 -15 -31 15 -0 1 -0 -5 0 0 1 I I #
point $-1 -15 -33.88675115167528418 15 #
face_name-twe-attrib $-1 $-1 $-1 $552 35 #
face $674 $482 $675 $3 $-1 $676 reversed single #
loop $677 $678 $679 $552 #
cone-surface $680 20 -65.03108978271480112 80 0 -1 0 -5 0 0 1 I I 0 1 5 forward I I I I #
loop_type-twe-attrib $-1 $-1 $-1 $553 0 #
loop $681 $-1 $682 $468 #
coedge $-1 $625 $625 $-1 $683 forward $553 $-1 #
surf-twe-attrib $-1 $-1 $-1 $554 498 #
loop_type-twe-attrib $-1 $-1 $-1 $556 0 #
coedge $-1 $628 $628 $684 $685 forward $556 $-1 #
coedge $-1 $629 $629 $557 $630 reversed $678 $-1 #
edge $686 $687 -6.28318539460236547 $687 -8.742277941564657843e-08 $557 $688 reversed 7 unknown #
edge_name-twe-attrib $-1 $-1 $-1 $559 61 8448 #
vertex $-1 $559 $689 #
ellipse-curve $-1 20 -21.99999991257721632 20 0 -1 0 -6 0 0 1 I I #
point $-1 14 -47 20.00000052453669852 #
face_name-twe-attrib $-1 $-1 $-1 $565 38 #
loop $690 $-1 $691 $565 #
plane-surface $692 -60 -35 50 0 1 0 0 0 1 forward_v I I I I #
loop_type-twe-attrib $-1 $-1 $-1 $566 0 #
coedge $-1 $639 $639 $693 $694 reversed $566 $-1 #
surf-twe-attrib $-1 $-1 $-1 $567 513 #
surf-twe-attrib $-1 $-1 $-1 $569 517 #
face_name-twe-attrib $-1 $-1 $-1 $572 39 #
loop $695 $488 $696 $572 #
cone-surface $697 -60 -36 50 0 -1 0 -13 0 0 1 I I 0 1 13 forward I I I I #
edge $698 $593 -3.141592653589793116 $607 -1.570796326794896558 $590 $699 forward 7 unknown #
edge_name-twe-attrib $-1 $-1 $-1 $575 28 4608 #
straight-curve $-1 -42.5 -15 75 -1 0 0 I I #
edge_name-twe-attrib $-1 $-1 $-1 $578 34 4608 #
straight-curve $-1 -20 -15 35 0 0 1 I I #
loop_type-twe-attrib $-1 $-1 $-1 $582 0 #
coedge $-1 $651 $651 $654 $700 reversed $582 $-1 #
surf-twe-attrib $-1 $-1 $-1 $583 534 #
loop_type-twe-attrib $-1 $-1 $-1 $585 1 #
coedge $-1 $654 $654 $651 $700 forward $585 $-1 #
edge $701 $702 1 $702 0 $586 $-1 forward 7 unknown #
loop $703 $-1 $588 $524 #
edge_name-twe-attrib $-1 $-1 $-1 $589 45 8448 #
vertex $-1 $589 $704 #
ellipse-curve $-1 -95 -0.9999999562886117133 85 0 -1 0 -5 0 0 1 I I #
point $-1 -20 -15 70 #
surf-twe-attrib $-1 $-1 $-1 $596 548 #
loop_type-twe-attrib $-1 $-1 $-1 $600 0 #
coedge $-1 $663 $663 $666 $705 reversed $600 $-1 #
surf-twe-attrib $-1 $-1 $-1 $601 559 #
loop_type-twe-attrib $-1 $-1 $-1 $603 1 #
coedge $-1 $666 $666 $663 $705 forward $603 $-1 #
edge $706 $707 1 $707 0 $604 $-1 forward 7 unknown #
point $-1 -25 -15 75 #
edge_name-twe-attrib $-1 $-1 $-1 $610 52 4352 #
vertex $-1 $610 $708 #
ellipse-curve $-1 -15 -31 85 -0 1 -0 -5 0 0 1 I I #
point $-1 -15 -33.88675115167528418 85 #
point $-1 -20 -31 15.00000043711390063 #
face_name-twe-attrib $-1 $-1 $-1 $620 36 #
loop $709 $710 $684 $620 #
cone-surface $711 20 -65.03108978271480112 80 0 -1 0 -7 0 0 1 I I 0 1 7 forward I I I I #
loop_type-twe-attrib $-1 $-1 $-1 $621 0 #
loop $712 $-1 $629 $552 #
coedge $-1 $679 $679 $682 $713 reversed $621 $-1 #
surf-twe-attrib $-1 $-1 $-1 $622 590 #
loop_type-twe-attrib $-1 $-1 $-1 $624 1 #
coedge $-1 $682 $682 $679 $713 forward $624 $-1 #
edge $714 $715 1 $715 0 $625 $-1 forward 7 unknown #
coedge $-1 $684 $684 $628 $685 reversed $675 $-1 #
edge $716 $717 -3.141592653589793116 $717 3.141592653589793116 $684 $718 reversed 7 unknown #
edge_name-twe-attrib $-1 $-1 $-1 $630 63 8704 #
vertex $-1 $630 $719 #
ellipse-curve $-1 20 -30 80 0 1 0 -5 0 0 1 I I #
point $-1 14 -22 20.00000052453669852 #
loop_type-twe-attrib $-1 $-1 $-1 $636 0 #
coedge $-1 $691 $691 $696 $720 forward $636 $-1 #
surf-twe-attrib $-1 $-1 $-1 $637 603 #
coedge $-1 $693 $693 $639 $694 forward $710 $-1 #
edge $721 $722 -6.283185219756799889 $722 8.742278672408614738e-08 $639 $723 reversed 7 unknown #
loop_type-twe-attrib $-1 $-1 $-1 $643 0 #
coedge $-1 $696 $696 $691 $720 reversed $643 $-1 #
surf-twe-attrib $-1 $-1 $-1 $644 610 #
edge_name-twe-attrib $-1 $-1 $-1 $645 31 4608 #
ellipse-curve $-1 -25 -15 70 -0 -1 -0 -5 0 0 1 I I #
edge $724 $725 8.742278012618931154e-08 $725 6.283185394602366358 $651 $726 forward 7 unknown #
edge_name-twe-attrib $-1 $-1 $-1 $655 47 128 #
vertex $-1 $655 $727 #
loop_type-twe-attrib $-1 $-1 $-1 $656 1 #
point $-1 -100 -1 85.00000043711389708 #
edge $728 $729 8.742277941564657843e-08 $729 6.28318539460236547 $663 $730 forward 7 unknown #
edge_name-twe-attrib $-1 $-1 $-1 $667 43 128 #
vertex $-1 $667 $731 #
point $-1 -20 -31 85.00000043711389708 #
loop_type-twe-attrib $-1 $-1 $-1 $675 0 #
loop $732 $-1 $693 $620 #
surf-twe-attrib $-1 $-1 $-1 $676 665 #
loop_type-twe-attrib $-1 $-1 $-1 $678 1 #
edge $733 $734 8.742277941564657843e-08 $734 6.28318539460236547 $679 $735 forward 7 unknown #
edge_name-twe-attrib $-1 $-1 $-1 $683 64 128 #
vertex $-1 $683 $736 #
edge_name-twe-attrib $-1 $-1 $-1 $685 66 4608 #
vertex $-1 $685 $737 #
ellipse-curve $-1 20 -30 80 -0 -1 -0 -7 0 0 1 I I #
point $-1 15 -30 80.00000043711389708 #
edge $738 $739 -3.141592653589793116 $739 3.141592653589793116 $696 $740 reversed 7 unknown #
edge_name-twe-attrib $-1 $-1 $-1 $694 67 8448 #
vertex $-1 $694 $741 #
ellipse-curve $-1 20 -20.99999995628861171 80 0 -1 0 -7 0 0 1 I I #
edge_name-twe-attrib $-1 $-1 $-1 $700 48 4352 #
vertex $-1 $700 $742 #
ellipse-curve $-1 -95 -31 15 -0 1 -0 -5 0 0 1 I I #
point $-1 -95 -33.88675115167528418 15 #
edge_name-twe-attrib $-1 $-1 $-1 $705 44 4352 #
vertex $-1 $705 $743 #
ellipse-curve $-1 -95 -31 85 -0 1 -0 -5 0 0 1 I I #
point $-1 -95 -33.88675115167528418 85 #
loop_type-twe-attrib $-1 $-1 $-1 $710 1 #
edge_name-twe-attrib $-1 $-1 $-1 $713 65 4352 #
vertex $-1 $713 $744 #
ellipse-curve $-1 20 -60 80 -0 1 -0 -5 0 0 1 I I #
point $-1 20 -62.88675115167528418 80 #
point $-1 27 -30 80 #
edge_name-twe-attrib $-1 $-1 $-1 $720 69 4608 #
vertex $-1 $720 $745 #
ellipse-curve $-1 -60 -35 50 -0 -1 -0 -13 0 0 1 I I #
point $-1 13 -21 80.00000061195950707 #
point $-1 -100 -31 15.00000043711390063 #
point $-1 -100 -31 85.00000043711389708 #
point $-1 15 -60 80.00000043711389708 #
point $-1 -47 -35 50 #
End-of-ACIS-data 