106 0 1 0           
body $-1 $1 $-1 $-1 #
lump $-1 $-1 $2 $0 #
shell $-1 $-1 $-1 $3 $1 #
face $-1 $4 $5 $2 $-1 $6 reversed single #
face $-1 $7 $8 $2 $-1 $9 reversed single #
loop $-1 $-1 $10 $3 #
plane-surface $-1 0 -5 5 0 1 0 0 0 1 0 I I I I #
face $-1 $11 $12 $2 $-1 $13 reversed single #
loop $-1 $-1 $14 $4 #
plane-surface $-1 -5 -15.000000000000018 5 1 3.5527136788005009e-15 0 0 0 -1 0 I I I I #
coedge $-1 $15 $16 $17 $18 1 $5 $-1 #
face $-1 $19 $20 $2 $-1 $21 reversed single #
loop $-1 $-1 $22 $7 #
plane-surface $-1 5.3290705182007514e-14 -30 5 -3.5527136788005009e-15 1 0 0 0 -1 0 I I I I #
coedge $-1 $23 $24 $25 $26 1 $8 $-1 #
coedge $-1 $27 $10 $24 $28 0 $5 $-1 #
coedge $-1 $10 $27 $29 $30 0 $5 $-1 #
coedge $-1 $31 $25 $10 $18 0 $32 $-1 #
edge $-1 $33 $34 $17 $35 0 #
face $-1 $36 $37 $2 $-1 $6 reversed single #
loop $-1 $-1 $38 $11 #
plane-surface $-1 5 -14.999999999999982 5 -1 -3.5527136788005009e-15 0 0 0 1 0 I I I I #
coedge $-1 $39 $40 $41 $42 1 $12 $-1 #
coedge $-1 $43 $14 $40 $44 1 $8 $-1 #
coedge $-1 $14 $43 $15 $28 1 $8 $-1 #
coedge $-1 $17 $41 $14 $26 0 $32 $-1 #
edge $-1 $45 $33 $25 $46 0 #
coedge $-1 $16 $15 $47 $48 1 $5 $-1 #
edge $-1 $33 $49 $15 $50 0 #
coedge $-1 $51 $52 $16 $30 1 $53 $-1 #
edge $-1 $54 $34 $29 $55 0 #
coedge $-1 $56 $17 $52 $57 0 $32 $-1 #
loop $-1 $58 $56 $59 #
vertex $-1 $26 $60 #
vertex $-1 $18 $61 #
straight-curve $-1 0 -5 10 -1 0 0 I I #
face $-1 $62 $53 $2 $-1 $63 reversed single #
loop $-1 $-1 $64 $19 #
coedge $-1 $65 $66 $67 $68 1 $20 $-1 #
coedge $-1 $69 $22 $66 $70 1 $12 $-1 #
coedge $-1 $22 $69 $23 $44 0 $12 $-1 #
coedge $-1 $25 $67 $22 $42 0 $32 $-1 #
edge $-1 $71 $45 $41 $72 0 #
coedge $-1 $24 $23 $73 $74 1 $8 $-1 #
edge $-1 $75 $45 $23 $76 0 #
vertex $-1 $26 $77 #
straight-curve $-1 -5.0000000000000266 -7.5000000000000178 10 -3.5527136788005009e-15 1 0 I I #
coedge $-1 $73 $78 $27 $48 0 $79 $-1 #
edge $-1 $54 $49 $27 $80 0 #
vertex $-1 $48 $81 #
straight-curve $-1 -5.0000000000000355 -5 5 0 0 1 I I #
coedge $-1 $82 $29 $78 $83 1 $53 $-1 #
coedge $-1 $29 $82 $31 $57 1 $53 $-1 #
loop $-1 $-1 $52 $36 #
vertex $-1 $83 $84 #
straight-curve $-1 -15 -5 5 0 0 -1 I I #
coedge $-1 $85 $31 $86 $87 0 $32 $-1 #
edge $-1 $34 $88 $31 $89 0 #
loop $-1 $-1 $90 $59 #
face $-1 $91 $32 $2 $-1 $92 forward single #
point $-1 -5.0000000000000355 -5 10 #
point $-1 -15 -5 10 #
face $-1 $93 $94 $2 $-1 $95 reversed single #
plane-surface $-1 -15 0 5 1 0 0 0 0 -1 0 I I I I #
coedge $-1 $96 $97 $98 $99 1 $37 $-1 #
coedge $-1 $100 $38 $97 $101 1 $20 $-1 #
coedge $-1 $38 $100 $39 $70 0 $20 $-1 #
coedge $-1 $41 $98 $38 $68 0 $32 $-1 #
edge $-1 $102 $71 $67 $103 0 #
coedge $-1 $40 $39 $104 $105 1 $12 $-1 #
edge $-1 $106 $71 $39 $107 0 #
vertex $-1 $68 $108 #
straight-curve $-1 7.9936057773011271e-14 -30 10 -1 -3.5527136788005009e-15 0 I I #
coedge $-1 $104 $47 $43 $74 0 $79 $-1 #
edge $-1 $49 $75 $43 $109 0 #
vertex $-1 $74 $110 #
straight-curve $-1 -4.9999999999999467 -30.000000000000018 5 0 0 -1 I I #
point $-1 -4.9999999999999467 -30.000000000000018 10 #
coedge $-1 $47 $111 $51 $83 0 $79 $-1 #
loop $-1 $-1 $112 $93 #
straight-curve $-1 0 -5 15 1 0 0 I I #
point $-1 -5.0000000000000355 -5 15 #
coedge $-1 $52 $51 $113 $114 0 $53 $-1 #
edge $-1 $115 $54 $51 $116 0 #
point $-1 -15 -5 15 #
coedge $-1 $98 $56 $117 $118 0 $32 $-1 #
coedge $-1 $113 $119 $56 $87 1 $94 $-1 #
edge $-1 $88 $120 $56 $121 0 #
vertex $-1 $57 $122 #
straight-curve $-1 -15 0 10 0 1 0 I I #
coedge $-1 $123 $124 $125 $126 0 $58 $-1 #
face $-1 $127 $128 $2 $-1 $129 reversed single #
plane-surface $-1 0 0 10 0 0 1 1 0 0 0 I I I I #
face $-1 $130 $79 $2 $-1 $131 forward single #
loop $-1 $-1 $86 $62 #
plane-surface $-1 0 5 5 0 -1 0 0 0 -1 0 I I I I #
coedge $-1 $132 $64 $133 $134 0 $37 $-1 #
coedge $-1 $64 $132 $65 $101 0 $37 $-1 #
coedge $-1 $67 $85 $64 $99 0 $32 $-1 #
edge $-1 $135 $102 $98 $136 0 #
coedge $-1 $66 $65 $137 $138 1 $20 $-1 #
edge $-1 $139 $102 $97 $140 0 #
vertex $-1 $68 $141 #
straight-curve $-1 4.9999999999999734 -7.4999999999999822 10 3.5527136788005009e-15 -1 0 I I #
coedge $-1 $137 $73 $69 $105 0 $79 $-1 #
edge $-1 $75 $106 $69 $142 0 #
vertex $-1 $105 $143 #
straight-curve $-1 5.0000000000000533 -29.999999999999982 5 0 0 -1 I I #
point $-1 5.0000000000000533 -29.999999999999982 10 #
straight-curve $-1 -5 -15.000000000000018 15 3.5527136788005009e-15 -1 0 I I #
point $-1 -4.9999999999999467 -30.000000000000018 15 #
coedge $-1 $78 $112 $144 $145 0 $79 $-1 #
coedge $-1 $111 $146 $147 $148 0 $79 $-1 #
coedge $-1 $144 $86 $82 $114 1 $94 $-1 #
edge $-1 $115 $88 $113 $149 0 #
vertex $-1 $145 $150 #
straight-curve $-1 -15 0 15 0 -1 0 I I #
coedge $-1 $151 $133 $85 $118 1 $152 $-1 #
edge $-1 $120 $135 $85 $153 0 #
coedge $-1 $86 $144 $151 $154 1 $94 $-1 #
vertex $-1 $154 $155 #
straight-curve $-1 0 5 10 1 0 0 I I #
point $-1 -15 5 10 #
coedge $-1 $156 $90 $157 $158 0 $58 $-1 #
coedge $-1 $90 $159 $160 $161 0 $58 $-1 #
coedge $-1 $162 $163 $90 $126 1 $164 $-1 #
edge $-1 $165 $166 $90 $167 0 #
face $-1 $168 $169 $2 $-1 $170 reversed single #
loop $-1 $-1 $171 $91 #
plane-surface $-1 0 0 -10 0 0 1 1 0 0 0 I I I I #
face $-1 $172 $152 $2 $-1 $173 forward single #
plane-surface $-1 15 0 15 0 0 1 1 0 0 0 I I I I #
coedge $-1 $97 $96 $146 $174 1 $37 $-1 #
coedge $-1 $117 $147 $96 $134 1 $152 $-1 #
edge $-1 $135 $175 $133 $176 0 #
vertex $-1 $118 $177 #
straight-curve $-1 0 -5 10 -1 0 0 I I #
coedge $-1 $146 $104 $100 $138 0 $79 $-1 #
edge $-1 $106 $139 $100 $178 0 #
vertex $-1 $174 $179 #
straight-curve $-1 4.9999999999999645 -5 5 0 0 -1 I I #
point $-1 4.9999999999999645 -5 10 #
straight-curve $-1 5.3290705182007514e-14 -30 15 1 3.5527136788005009e-15 0 I I #
point $-1 5.0000000000000533 -29.999999999999982 15 #
coedge $-1 $119 $113 $111 $145 1 $94 $-1 #
edge $-1 $180 $115 $144 $181 0 #
coedge $-1 $112 $137 $132 $174 0 $79 $-1 #
coedge $-1 $133 $151 $112 $148 1 $152 $-1 #
edge $-1 $175 $180 $112 $182 0 #
straight-curve $-1 -15 5 5 0 0 -1 I I #
point $-1 -15 5 15 #
coedge $-1 $147 $117 $119 $154 0 $152 $-1 #
loop $-1 $-1 $151 $130 #
ellipse-curve $-1 15 0 10 0 0 -1 5 0 0 1 I I #
edge $-1 $120 $180 $151 $183 0 #
point $-1 15 5 10 #
coedge $-1 $184 $123 $185 $186 0 $58 $-1 #
coedge $-1 $187 $188 $123 $158 1 $189 $-1 #
edge $-1 $166 $190 $123 $191 0 #
coedge $-1 $124 $192 $193 $194 0 $58 $-1 #
coedge $-1 $195 $196 $124 $161 1 $197 $-1 #
edge $-1 $198 $165 $124 $199 0 #
coedge $-1 $200 $125 $196 $201 1 $164 $-1 #
coedge $-1 $125 $200 $187 $202 1 $164 $-1 #
loop $-1 $-1 $163 $203 #
vertex $-1 $161 $204 #
vertex $-1 $126 $205 #
straight-curve $-1 -2.5 20 10 -1 0 0 I I #
face $-1 $-1 $206 $2 $-1 $207 reversed single #
loop $-1 $208 $209 $127 #
plane-surface $-1 0 -35 0 0 1 0 0 0 1 0 I I I I #
coedge $-1 $210 $211 $212 $213 0 $128 $-1 #
face $-1 $214 $215 $2 $-1 $216 forward single #
cone-surface $-1 15 0 5 0 0 1 5 0 0 1 I I 0 1 0 I I I I #
edge $-1 $139 $175 $132 $80 0 #
vertex $-1 $148 $217 #
straight-curve $-1 15 -5 5 0 0 1 I I #
point $-1 15 -5 10 #
straight-curve $-1 5 -14.999999999999982 15 -3.5527136788005009e-15 1 0 I I #
point $-1 4.9999999999999645 -5 15 #
vertex $-1 $148 $218 #
straight-curve $-1 0 5 15 -1 0 0 I I #
ellipse-curve $-1 15 0 15 0 0 1 5 0 0 1 I I #
straight-curve $-1 15 5 5 0 0 1 I I #
coedge $-1 $219 $156 $220 $221 0 $58 $-1 #
coedge $-1 $222 $223 $156 $186 1 $224 $-1 #
edge $-1 $190 $225 $156 $226 0 #
coedge $-1 $227 $157 $163 $202 0 $189 $-1 #
coedge $-1 $157 $228 $222 $229 0 $189 $-1 #
loop $-1 $-1 $187 $230 #
vertex $-1 $186 $231 #
straight-curve $-1 -18.5 12.5 10 0 -1 0 I I #
coedge $-1 $159 $232 $233 $234 0 $58 $-1 #
coedge $-1 $235 $236 $159 $194 1 $237 $-1 #
edge $-1 $238 $198 $159 $239 0 #
coedge $-1 $240 $160 $236 $241 1 $197 $-1 #
coedge $-1 $160 $242 $162 $201 0 $197 $-1 #
loop $-1 $-1 $196 $243 #
vertex $-1 $194 $244 #
straight-curve $-1 -11.5 12.5 10 0 1 0 I I #
coedge $-1 $163 $162 $245 $246 1 $164 $-1 #
edge $-1 $247 $165 $196 $248 0 #
edge $-1 $166 $249 $187 $250 0 #
face $-1 $251 $164 $2 $-1 $252 reversed single #
point $-1 -11.5 20 10 #
point $-1 -18.5 20 10 #
loop $-1 $-1 $253 $168 #
plane-surface $-1 35 0 0 -1 0 0 0 0 1 0 I I I I #
loop $-1 $254 $255 $127 #
coedge $-1 $209 $209 $256 $257 0 $169 $-1 #
coedge $-1 $258 $171 $259 $260 0 $128 $-1 #
coedge $-1 $171 $258 $261 $262 0 $128 $-1 #
coedge $-1 $263 $253 $171 $213 1 $206 $-1 #
edge $-1 $264 $265 $212 $266 0 #
face $-1 $267 $268 $2 $-1 $216 forward single #
loop $-1 $-1 $269 $172 #
plane-surface $-1 -5 23 17 0 0 1 1 0 0 0 I I I I #
point $-1 15 -5 15 #
point $-1 15 5 15 #
coedge $-1 $270 $184 $271 $272 0 $58 $-1 #
coedge $-1 $273 $274 $184 $221 1 $275 $-1 #
edge $-1 $225 $276 $184 $277 0 #
coedge $-1 $278 $185 $188 $229 1 $224 $-1 #
coedge $-1 $185 $278 $273 $279 0 $224 $-1 #
loop $-1 $-1 $185 $280 #
vertex $-1 $186 $281 #
straight-curve $-1 -10 15 10 -1 0 0 I I #
coedge $-1 $282 $187 $283 $284 0 $189 $-1 #
coedge $-1 $188 $285 $286 $287 1 $189 $-1 #
edge $-1 $288 $190 $188 $289 0 #
face $-1 $290 $189 $2 $-1 $291 reversed single #
point $-1 -18.5 15 10 #
coedge $-1 $192 $292 $293 $294 0 $58 $-1 #
coedge $-1 $295 $296 $192 $234 1 $297 $-1 #
edge $-1 $298 $238 $192 $299 0 #
coedge $-1 $300 $193 $296 $301 1 $237 $-1 #
coedge $-1 $193 $300 $195 $241 0 $237 $-1 #
loop $-1 $-1 $193 $302 #
vertex $-1 $194 $303 #
straight-curve $-1 -5 15 10 -1 0 0 I I #
coedge $-1 $304 $195 $305 $306 1 $197 $-1 #
edge $-1 $307 $198 $195 $308 0 #
coedge $-1 $196 $309 $310 $311 0 $197 $-1 #
face $-1 $302 $197 $2 $-1 $312 reversed single #
point $-1 -11.5 15 10 #
coedge $-1 $310 $283 $200 $246 0 $313 $-1 #
edge $-1 $249 $247 $200 $314 0 #
vertex $-1 $311 $315 #
straight-curve $-1 -11.5 20 11.5 0 0 -1 I I #
vertex $-1 $284 $316 #
straight-curve $-1 -18.5 20 11.5 0 0 1 I I #
face $-1 $317 $313 $2 $-1 $216 forward single #
plane-surface $-1 -5 20 13 0 1 0 0 0 1 0 I I I I #
coedge $-1 $212 $318 $319 $320 0 $206 $-1 #
loop $-1 $321 $322 $127 #
coedge $-1 $255 $255 $323 $324 0 $208 $-1 #
coedge $-1 $256 $256 $209 $257 1 $325 $-1 #
edge $-1 $326 $326 $209 $327 0 #
coedge $-1 $211 $210 $328 $329 0 $128 $-1 #
coedge $-1 $319 $330 $210 $260 1 $331 $-1 #
edge $-1 $265 $332 $259 $333 0 #
coedge $-1 $334 $335 $211 $262 1 $336 $-1 #
edge $-1 $337 $264 $261 $338 0 #
coedge $-1 $318 $212 $335 $339 1 $206 $-1 #
vertex $-1 $213 $340 #
vertex $-1 $320 $341 #
straight-curve $-1 35 0 -10 0 -1 0 I I #
face $-1 $342 $343 $2 $-1 $216 forward single #
loop $-1 $-1 $344 $214 #
coedge $-1 $345 $346 $347 $348 1 $215 $-1 #
coedge $-1 $349 $219 $350 $351 0 $58 $-1 #
coedge $-1 $352 $353 $219 $272 1 $354 $-1 #
edge $-1 $276 $355 $219 $167 0 #
coedge $-1 $356 $220 $223 $279 1 $275 $-1 #
coedge $-1 $220 $347 $352 $357 0 $275 $-1 #
loop $-1 $-1 $358 $359 #
vertex $-1 $221 $360 #
straight-curve $-1 -21.5 12.5 10 0 1 0 I I #
coedge $-1 $223 $222 $361 $362 1 $224 $-1 #
edge $-1 $363 $225 $273 $364 0 #
face $-1 $365 $224 $2 $-1 $366 reversed single #
point $-1 -21.5 15 10 #
coedge $-1 $367 $227 $368 $369 0 $189 $-1 #
coedge $-1 $245 $370 $227 $284 1 $313 $-1 #
edge $-1 $249 $371 $227 $372 0 #
coedge $-1 $228 $367 $373 $374 1 $189 $-1 #
coedge $-1 $375 $361 $228 $287 0 $376 $-1 #
edge $-1 $288 $377 $228 $378 0 #
vertex $-1 $287 $379 #
straight-curve $-1 -18.5 15 10 0 0 -1 I I #
face $-1 $380 $297 $2 $-1 $381 reversed single #
plane-surface $-1 -18.5 25 10 -1 0 0 0 0 1 0 I I I I #
coedge $-1 $232 $382 $383 $384 0 $58 $-1 #
coedge $-1 $385 $386 $232 $294 1 $387 $-1 #
edge $-1 $388 $298 $232 $167 0 #
coedge $-1 $389 $233 $386 $390 0 $297 $-1 #
coedge $-1 $233 $391 $235 $301 0 $297 $-1 #
loop $-1 $-1 $295 $290 #
vertex $-1 $294 $392 #
straight-curve $-1 -8.5 12.5 10 0 -1 0 I I #
coedge $-1 $236 $235 $393 $394 1 $237 $-1 #
edge $-1 $395 $238 $296 $396 0 #
face $-1 $397 $237 $2 $-1 $398 reversed single #
point $-1 -8.5 15 10 #
coedge $-1 $399 $240 $400 $401 1 $197 $-1 #
coedge $-1 $393 $402 $240 $306 0 $403 $-1 #
edge $-1 $404 $307 $240 $405 0 #
vertex $-1 $306 $406 #
straight-curve $-1 -11.5 15 10 0 0 -1 I I #
coedge $-1 $242 $399 $407 $408 0 $197 $-1 #
coedge $-1 $370 $245 $242 $311 1 $313 $-1 #
edge $-1 $409 $247 $242 $410 0 #
plane-surface $-1 -11.5 25 10 1 0 0 0 0 -1 0 I I I I #
loop $-1 $-1 $283 $251 #
straight-curve $-1 -5 20 17 1 0 0 I I #
point $-1 -11.5 20 17 #
point $-1 -18.5 20 17 #
face $-1 $411 $412 $2 $-1 $413 reversed single #
coedge $-1 $253 $263 $414 $415 1 $206 $-1 #
coedge $-1 $416 $259 $253 $320 1 $331 $-1 #
edge $-1 $417 $265 $253 $418 0 #
loop $-1 $419 $420 $127 #
coedge $-1 $322 $322 $421 $422 0 $254 $-1 #
coedge $-1 $323 $323 $255 $324 1 $423 $-1 #
edge $-1 $424 $424 $255 $425 0 #
loop $-1 $-1 $256 $426 #
vertex $-1 $257 $427 #
ellipse-curve $-1 25 -35 -5 0 1 0 0 0 2 1 I I #
coedge $-1 $428 $429 $258 $329 1 $430 $-1 #
edge $-1 $332 $337 $328 $431 0 #
coedge $-1 $259 $432 $428 $433 0 $331 $-1 #
loop $-1 $-1 $330 $127 #
vertex $-1 $329 $434 #
straight-curve $-1 0 -35 -10 -1 0 0 I I #
coedge $-1 $435 $261 $429 $436 1 $336 $-1 #
coedge $-1 $261 $437 $263 $339 0 $336 $-1 #
loop $-1 $-1 $334 $438 #
vertex $-1 $262 $439 #
straight-curve $-1 0 35 -10 1 0 0 I I #
edge $-1 $440 $264 $263 $441 0 #
point $-1 35 35 -10 #
point $-1 35 -35 -10 #
face $-1 $442 $443 $2 $-1 $216 forward single #
loop $-1 $-1 $444 $267 #
coedge $-1 $445 $446 $389 $447 1 $268 $-1 #
coedge $-1 $448 $269 $449 $450 0 $215 $-1 #
coedge $-1 $269 $448 $451 $452 0 $215 $-1 #
coedge $-1 $274 $358 $269 $348 0 $275 $-1 #
edge $-1 $453 $454 $347 $455 0 #
coedge $-1 $456 $270 $457 $458 0 $58 $-1 #
coedge $-1 $459 $460 $270 $351 1 $461 $-1 #
edge $-1 $355 $462 $270 $463 0 #
coedge $-1 $451 $271 $274 $357 1 $354 $-1 #
coedge $-1 $271 $451 $459 $464 1 $354 $-1 #
loop $-1 $-1 $352 $465 #
vertex $-1 $464 $466 #
coedge $-1 $467 $273 $468 $469 1 $275 $-1 #
edge $-1 $454 $276 $274 $470 0 #
coedge $-1 $347 $471 $472 $473 0 $275 $-1 #
face $-1 $474 $275 $2 $-1 $475 reversed single #
point $-1 -21.5 20 10 #
coedge $-1 $286 $468 $278 $362 0 $376 $-1 #
edge $-1 $363 $288 $278 $476 0 #
vertex $-1 $469 $477 #
straight-curve $-1 -21.5 15 10 0 0 -1 I I #
face $-1 $478 $376 $2 $-1 $479 forward single #
plane-surface $-1 -20 15 10 0 1 0 0 0 1 0 I I I I #
coedge $-1 $285 $282 $480 $481 1 $189 $-1 #
coedge $-1 $482 $483 $282 $369 1 $412 $-1 #
edge $-1 $371 $484 $282 $485 0 #
coedge $-1 $283 $310 $482 $486 0 $313 $-1 #
vertex $-1 $284 $487 #
straight-curve $-1 -18.5 24 17 0 1 0 I I #
coedge $-1 $488 $489 $285 $374 0 $490 $-1 #
edge $-1 $377 $491 $373 $492 0 #
coedge $-1 $468 $286 $489 $493 1 $376 $-1 #
loop $-1 $-1 $375 $365 #
vertex $-1 $493 $494 #
straight-curve $-1 -18.5 25 20 0 1 0 I I #
point $-1 -18.5 15 20 #
face $-1 $359 $495 $2 $-1 $496 reversed single #
plane-surface $-1 -8.5 25 10 -1 0 0 0 0 1 0 I I I I #
coedge $-1 $292 $497 $498 $499 0 $58 $-1 #
coedge $-1 $500 $501 $292 $384 1 $502 $-1 #
edge $-1 $503 $388 $292 $504 0 #
coedge $-1 $505 $293 $501 $506 1 $387 $-1 #
coedge $-1 $293 $505 $295 $390 1 $387 $-1 #
loop $-1 $-1 $386 $507 #
vertex $-1 $384 $508 #
coedge $-1 $509 $295 $344 $447 0 $297 $-1 #
edge $-1 $298 $510 $295 $511 0 #
coedge $-1 $296 $512 $513 $514 1 $297 $-1 #
point $-1 -8.5 20 10 #
coedge $-1 $513 $305 $300 $394 0 $403 $-1 #
edge $-1 $307 $395 $300 $515 0 #
vertex $-1 $514 $516 #
straight-curve $-1 -8.5 15 10 0 0 -1 I I #
face $-1 $517 $403 $2 $-1 $518 forward single #
plane-surface $-1 -10 15 10 0 1 0 0 0 1 0 I I I I #
coedge $-1 $309 $304 $519 $520 1 $197 $-1 #
coedge $-1 $521 $488 $304 $401 0 $490 $-1 #
edge $-1 $522 $404 $400 $523 0 #
coedge $-1 $305 $513 $521 $524 1 $403 $-1 #
loop $-1 $-1 $402 $397 #
vertex $-1 $524 $525 #
straight-curve $-1 -11.5 25 20 0 -1 0 I I #
point $-1 -11.5 15 20 #
coedge $-1 $483 $482 $309 $408 1 $412 $-1 #
edge $-1 $526 $409 $309 $527 0 #
vertex $-1 $311 $528 #
straight-curve $-1 -11.5 24 17 0 -1 0 I I #
face $-1 $230 $529 $2 $-1 $530 reversed single #
loop $-1 $-1 $368 $317 #
plane-surface $-1 -5 26 13 0 -1 0 0 0 -1 0 I I I I #
coedge $-1 $531 $532 $318 $415 0 $58 $-1 #
edge $-1 $417 $440 $318 $533 0 #
coedge $-1 $534 $319 $532 $535 1 $331 $-1 #
vertex $-1 $415 $536 #
straight-curve $-1 35 -35 0 0 0 -1 I I #
loop $-1 $537 $538 $127 #
coedge $-1 $420 $420 $539 $540 0 $321 $-1 #
coedge $-1 $421 $421 $322 $422 1 $541 $-1 #
edge $-1 $542 $542 $322 $543 0 #
loop $-1 $-1 $323 $544 #
vertex $-1 $324 $545 #
ellipse-curve $-1 20 -35 -5 0 1 0 0 0 2 1 I I #
face $-1 $544 $325 $2 $-1 $546 forward single #
point $-1 25.000000000000014 -35 -7 #
coedge $-1 $547 $328 $330 $433 1 $430 $-1 #
coedge $-1 $328 $547 $334 $436 0 $430 $-1 #
loop $-1 $-1 $429 $548 #
straight-curve $-1 -35 0 -10 0 1 0 I I #
coedge $-1 $330 $534 $549 $550 1 $331 $-1 #
edge $-1 $551 $332 $428 $552 0 #
point $-1 -35 -35 -10 #
coedge $-1 $553 $334 $554 $555 1 $336 $-1 #
edge $-1 $556 $337 $334 $557 0 #
coedge $-1 $335 $553 $531 $558 1 $336 $-1 #
face $-1 $59 $336 $2 $-1 $559 reversed single #
point $-1 -35 35 -10 #
vertex $-1 $415 $560 #
straight-curve $-1 35 35 0 0 0 -1 I I #
face $-1 $561 $562 $2 $-1 $413 reversed single #
loop $-1 $-1 $563 $342 #
coedge $-1 $564 $565 $566 $567 1 $343 $-1 #
coedge $-1 $568 $344 $505 $569 0 $268 $-1 #
coedge $-1 $344 $568 $570 $571 0 $268 $-1 #
edge $-1 $510 $572 $389 $573 0 #
coedge $-1 $346 $345 $574 $575 1 $215 $-1 #
coedge $-1 $472 $576 $345 $450 1 $562 $-1 #
edge $-1 $453 $577 $449 $578 0 #
coedge $-1 $353 $352 $346 $452 1 $354 $-1 #
edge $-1 $579 $454 $451 $314 0 #
vertex $-1 $348 $580 #
vertex $-1 $348 $581 #
straight-curve $-1 -21.5 24 17 0 -1 0 I I #
coedge $-1 $532 $349 $582 $583 0 $58 $-1 #
coedge $-1 $584 $585 $349 $458 1 $586 $-1 #
edge $-1 $462 $587 $349 $588 0 #
coedge $-1 $574 $350 $353 $464 0 $461 $-1 #
coedge $-1 $350 $589 $584 $590 0 $461 $-1 #
loop $-1 $-1 $591 $592 #
vertex $-1 $458 $593 #
straight-curve $-1 -30 0 10 0 -1 0 I I #
edge $-1 $355 $579 $459 $594 0 #
face $-1 $203 $354 $2 $-1 $252 reversed single #
point $-1 -30 20 10 #
coedge $-1 $471 $356 $595 $596 1 $275 $-1 #
coedge $-1 $361 $375 $356 $469 0 $376 $-1 #
edge $-1 $597 $363 $356 $598 0 #
straight-curve $-1 -21.5 20 11.5 0 0 -1 I I #
coedge $-1 $358 $467 $599 $600 1 $275 $-1 #
coedge $-1 $601 $449 $358 $473 1 $562 $-1 #
edge $-1 $602 $453 $358 $603 0 #
face $-1 $604 $605 $2 $-1 $92 forward single #
plane-surface $-1 -21.5 25 10 1 0 0 0 0 -1 0 I I I I #
straight-curve $-1 -20 15 20 1 0 0 I I #
point $-1 -21.5 15 20 #
face $-1 $243 $490 $2 $-1 $606 forward single #
plane-surface $-1 -20 25 20 0 0 1 1 0 0 0 I I I I #
coedge $-1 $607 $608 $367 $481 0 $609 $-1 #
edge $-1 $491 $484 $480 $191 0 #
coedge $-1 $407 $368 $370 $486 1 $412 $-1 #
coedge $-1 $368 $407 $607 $610 1 $412 $-1 #
vertex $-1 $481 $611 #
straight-curve $-1 -18.5 26 11.5 0 0 -1 I I #
edge $-1 $409 $371 $482 $578 0 #
point $-1 -18.5 26 17 #
coedge $-1 $400 $373 $608 $612 1 $490 $-1 #
coedge $-1 $373 $595 $375 $493 0 $490 $-1 #
loop $-1 $-1 $595 $478 #
vertex $-1 $612 $613 #
straight-curve $-1 -18.5 30 13 0 0 -1 I I #
edge $-1 $597 $377 $489 $614 0 #
point $-1 -18.5 30 20 #
loop $-1 $-1 $615 $380 #
plane-surface $-1 8.5 25 10 1 0 0 0 0 -1 0 I I I I #
coedge $-1 $382 $616 $617 $618 0 $58 $-1 #
coedge $-1 $619 $620 $382 $499 1 $621 $-1 #
edge $-1 $622 $503 $382 $623 0 #
coedge $-1 $624 $383 $620 $625 1 $502 $-1 #
coedge $-1 $383 $626 $385 $506 0 $502 $-1 #
loop $-1 $-1 $501 $627 #
vertex $-1 $499 $628 #
straight-curve $-1 -1.5 12.5 10 0 1 0 I I #
coedge $-1 $386 $385 $445 $569 1 $387 $-1 #
edge $-1 $629 $388 $501 $630 0 #
face $-1 $631 $387 $2 $-1 $252 reversed single #
point $-1 -1.5 20 10 #
coedge $-1 $632 $389 $633 $634 0 $297 $-1 #
vertex $-1 $447 $635 #
straight-curve $-1 -8.5 20 11.5 0 0 1 I I #
coedge $-1 $391 $632 $636 $637 1 $297 $-1 #
coedge $-1 $402 $393 $391 $514 0 $403 $-1 #
edge $-1 $395 $638 $391 $639 0 #
straight-curve $-1 -10 15 20 1 0 0 I I #
point $-1 -8.5 15 20 #
face $-1 $640 $641 $2 $-1 $642 reversed single #
plane-surface $-1 -10 25 20 0 0 1 1 0 0 0 I I I I #
coedge $-1 $608 $607 $399 $520 0 $609 $-1 #
edge $-1 $526 $522 $519 $199 0 #
coedge $-1 $636 $400 $402 $524 0 $490 $-1 #
vertex $-1 $520 $643 #
straight-curve $-1 -11.5 30 13 0 0 1 I I #
edge $-1 $404 $638 $521 $644 0 #
point $-1 -11.5 30 20 #
vertex $-1 $408 $645 #
straight-curve $-1 -11.5 26 11.5 0 0 1 I I #
point $-1 -11.5 26 17 #
loop $-1 $-1 $646 $411 #
plane-surface $-1 20 23 13 -1 0 0 0 0 1 0 I I I I #
coedge $-1 $647 $414 $437 $558 0 $58 $-1 #
coedge $-1 $414 $456 $416 $535 0 $58 $-1 #
straight-curve $-1 35 0 10 0 1 0 I I #
coedge $-1 $432 $416 $648 $649 0 $331 $-1 #
edge $-1 $650 $417 $416 $651 0 #
point $-1 35 -35 10 #
loop $-1 $331 $652 $127 #
coedge $-1 $538 $538 $653 $654 0 $419 $-1 #
coedge $-1 $539 $539 $420 $540 1 $655 $-1 #
edge $-1 $656 $656 $420 $657 0 #
loop $-1 $-1 $421 $658 #
vertex $-1 $422 $659 #
ellipse-curve $-1 15 -35 -5 0 1 0 0 0 2 1 I I #
face $-1 $658 $423 $2 $-1 $660 forward single #
point $-1 20.000000000000014 -35 -7 #
sphere-surface $-1 25 -35 -5 2 1 0 0 0 0 1 0 I I I I #
coedge $-1 $429 $428 $661 $662 1 $430 $-1 #
face $-1 $438 $430 $2 $-1 $663 reversed single #
coedge $-1 $664 $661 $432 $550 0 $665 $-1 #
edge $-1 $551 $666 $432 $667 0 #
vertex $-1 $662 $668 #
straight-curve $-1 -35 -35 16 0 0 -1 I I #
coedge $-1 $437 $435 $669 $670 0 $336 $-1 #
coedge $-1 $661 $671 $435 $555 0 $665 $-1 #
edge $-1 $672 $556 $435 $673 0 #
vertex $-1 $555 $674 #
straight-curve $-1 -35 35 16 0 0 -1 I I #
edge $-1 $440 $675 $437 $676 0 #
plane-surface $-1 0 35 0 0 -1 0 0 0 -1 0 I I I I #
point $-1 35 35 10 #
face $-1 $677 $678 $2 $-1 $413 reversed single #
loop $-1 $-1 $472 $442 #
coedge $-1 $679 $680 $681 $682 1 $443 $-1 #
coedge $-1 $683 $444 $684 $685 0 $343 $-1 #
coedge $-1 $444 $683 $686 $687 0 $343 $-1 #
coedge $-1 $688 $615 $444 $567 0 $495 $-1 #
edge $-1 $689 $690 $566 $691 0 #
coedge $-1 $446 $445 $626 $692 1 $268 $-1 #
edge $-1 $510 $629 $505 $314 0 #
coedge $-1 $693 $633 $446 $571 1 $694 $-1 #
edge $-1 $695 $572 $570 $578 0 #
vertex $-1 $447 $696 #
straight-curve $-1 -8.5 24 17 0 1 0 I I #
coedge $-1 $591 $459 $448 $575 0 $461 $-1 #
edge $-1 $579 $577 $574 $697 0 #
coedge $-1 $449 $601 $591 $698 1 $562 $-1 #
vertex $-1 $575 $699 #
straight-curve $-1 -5 26 17 -1 0 0 I I #
vertex $-1 $575 $700 #
point $-1 -21.5 26 17 #
point $-1 -21.5 20 17 #
coedge $-1 $701 $648 $456 $583 1 $702 $-1 #
edge $-1 $587 $650 $456 $703 0 #
coedge $-1 $704 $457 $460 $590 1 $586 $-1 #
coedge $-1 $457 $704 $701 $705 0 $586 $-1 #
loop $-1 $-1 $457 $706 #
vertex $-1 $583 $707 #
straight-curve $-1 1.25 -30 10 1 0 0 I I #
coedge $-1 $460 $708 $709 $710 1 $461 $-1 #
edge $-1 $711 $462 $460 $712 0 #
coedge $-1 $713 $574 $576 $698 0 $461 $-1 #
face $-1 $714 $461 $2 $-1 $715 forward single #
point $-1 -30 -30 10 #
straight-curve $-1 -30 20 14.5 0 0 1 I I #
coedge $-1 $489 $716 $467 $596 0 $490 $-1 #
edge $-1 $717 $597 $595 $718 0 #
vertex $-1 $493 $719 #
straight-curve $-1 -21.5 25 20 0 -1 0 I I #
coedge $-1 $720 $721 $471 $600 0 $722 $-1 #
edge $-1 $602 $717 $599 $277 0 #
coedge $-1 $576 $472 $721 $723 1 $562 $-1 #
vertex $-1 $723 $724 #
straight-curve $-1 -21.5 26 11.5 0 0 1 I I #
face $-1 $725 $722 $2 $-1 $92 forward single #
loop $-1 $-1 $726 $474 #
plane-surface $-1 2.5 30 16 0 -1 0 0 0 -1 0 I I I I #
coedge $-1 $519 $480 $483 $610 0 $609 $-1 #
coedge $-1 $480 $519 $488 $612 0 $609 $-1 #
loop $-1 $-1 $607 $727 #
edge $-1 $484 $526 $607 $728 0 #
point $-1 -18.5 26 10 #
edge $-1 $522 $491 $608 $729 0 #
point $-1 -18.5 30 10 #
straight-curve $-1 -8.75 30 20 1 0 0 I I #
coedge $-1 $566 $730 $731 $732 0 $495 $-1 #
coedge $-1 $497 $733 $734 $735 0 $58 $-1 #
coedge $-1 $736 $737 $497 $618 1 $738 $-1 #
edge $-1 $739 $622 $497 $740 0 #
coedge $-1 $741 $498 $737 $742 1 $621 $-1 #
coedge $-1 $498 $741 $500 $625 0 $621 $-1 #
loop $-1 $-1 $498 $743 #
vertex $-1 $499 $744 #
straight-curve $-1 0 15 10 -1 0 0 I I #
coedge $-1 $745 $500 $746 $747 1 $502 $-1 #
edge $-1 $748 $503 $500 $749 0 #
coedge $-1 $501 $750 $568 $692 0 $502 $-1 #
face $-1 $743 $502 $2 $-1 $751 reversed single #
point $-1 -1.5 15 10 #
vertex $-1 $692 $752 #
straight-curve $-1 -1.5 20 11.5 0 0 -1 I I #
face $-1 $753 $754 $2 $-1 $252 reversed single #
coedge $-1 $512 $509 $755 $756 1 $297 $-1 #
coedge $-1 $570 $757 $509 $634 1 $694 $-1 #
edge $-1 $572 $758 $509 $759 0 #
point $-1 -8.5 20 17 #
coedge $-1 $760 $521 $512 $637 0 $490 $-1 #
edge $-1 $638 $761 $636 $762 0 #
vertex $-1 $524 $763 #
straight-curve $-1 -8.5 25 20 0 1 0 I I #
face $-1 $764 $765 $2 $-1 $766 forward single #
loop $-1 $-1 $767 $517 #
plane-surface $-1 10 15 10 0 1 0 0 0 1 0 I I I I #
point $-1 -11.5 30 10 #
straight-curve $-1 -3.75 30 20 1 0 0 I I #
point $-1 -11.5 26 10 #
coedge $-1 $768 $769 $770 $771 1 $529 $-1 #
coedge $-1 $772 $531 $773 $774 0 $58 $-1 #
coedge $-1 $582 $775 $534 $649 1 $702 $-1 #
edge $-1 $650 $666 $534 $776 0 #
vertex $-1 $649 $777 #
straight-curve $-1 0 -35 10 1 0 0 I I #
coedge $-1 $652 $652 $778 $779 0 $537 $-1 #
coedge $-1 $653 $653 $538 $654 1 $780 $-1 #
edge $-1 $781 $781 $538 $782 0 #
loop $-1 $-1 $539 $783 #
vertex $-1 $540 $784 #
ellipse-curve $-1 10 -35 -5 0 1 0 0 0 2 1 I I #
face $-1 $783 $541 $2 $-1 $785 forward single #
point $-1 15.000000000000014 -35 -7 #
sphere-surface $-1 20 -35 -5 2 1 0 0 0 0 1 0 I I I I #
coedge $-1 $549 $554 $547 $662 0 $665 $-1 #
edge $-1 $556 $551 $547 $786 0 #
plane-surface $-1 -35 0 0 1 0 0 0 0 -1 0 I I I I #
coedge $-1 $787 $549 $775 $788 0 $665 $-1 #
loop $-1 $-1 $664 $789 #
vertex $-1 $550 $790 #
straight-curve $-1 0 -35 26 1 0 0 I I #
point $-1 -35 -35 26 #
coedge $-1 $791 $773 $553 $670 1 $792 $-1 #
edge $-1 $672 $675 $553 $793 0 #
coedge $-1 $554 $794 $791 $795 0 $665 $-1 #
vertex $-1 $670 $796 #
straight-curve $-1 0 35 26 -1 0 0 I I #
point $-1 -35 35 26 #
vertex $-1 $558 $797 #
straight-curve $-1 0 35 10 -1 0 0 I I #
face $-1 $798 $799 $2 $-1 $413 reversed single #
loop $-1 $-1 $731 $561 #
coedge $-1 $800 $563 $801 $802 0 $443 $-1 #
coedge $-1 $563 $800 $803 $804 0 $443 $-1 #
coedge $-1 $805 $806 $563 $682 0 $807 $-1 #
edge $-1 $808 $809 $681 $810 0 #
coedge $-1 $565 $564 $811 $812 1 $343 $-1 #
coedge $-1 $731 $813 $564 $685 1 $678 $-1 #
edge $-1 $689 $814 $684 $578 0 #
coedge $-1 $815 $816 $565 $687 1 $754 $-1 #
edge $-1 $817 $690 $686 $314 0 #
coedge $-1 $818 $566 $816 $819 0 $495 $-1 #
vertex $-1 $567 $820 #
vertex $-1 $567 $821 #
straight-curve $-1 8.5 24 17 0 -1 0 I I #
edge $-1 $695 $629 $626 $822 0 #
coedge $-1 $757 $570 $750 $823 1 $694 $-1 #
loop $-1 $-1 $633 $798 #
vertex $-1 $692 $824 #
point $-1 -8.5 26 17 #
straight-curve $-1 -30 11.5 17 0 1 0 I I #
edge $-1 $577 $825 $591 $826 0 #
point $-1 -30 26 17 #
point $-1 -30 20 17 #
coedge $-1 $775 $582 $585 $705 1 $702 $-1 #
loop $-1 $-1 $582 $827 #
straight-curve $-1 -15 -5 10 0 -1 0 I I #
coedge $-1 $585 $584 $787 $828 1 $586 $-1 #
edge $-1 $829 $587 $585 $830 0 #
face $-1 $592 $586 $2 $-1 $831 forward single #
point $-1 -15 -30 10 #
coedge $-1 $589 $713 $832 $833 1 $461 $-1 #
coedge $-1 $794 $787 $589 $710 0 $665 $-1 #
edge $-1 $711 $834 $709 $835 0 #
vertex $-1 $828 $836 #
straight-curve $-1 -30 -30 16 0 0 -1 I I #
coedge $-1 $708 $591 $837 $838 1 $461 $-1 #
face $-1 $827 $792 $2 $-1 $839 forward single #
plane-surface $-1 -30 0 16 1 0 0 0 0 -1 0 I I I I #
coedge $-1 $595 $832 $720 $840 1 $490 $-1 #
vertex $-1 $600 $841 #
straight-curve $-1 -21.5 30 13 0 0 1 I I #
point $-1 -21.5 30 20 #
coedge $-1 $837 $599 $716 $840 0 $722 $-1 #
coedge $-1 $599 $837 $601 $723 0 $722 $-1 #
loop $-1 $-1 $721 $604 #
edge $-1 $825 $602 $721 $728 0 #
point $-1 -21.5 26 10 #
face $-1 $727 $842 $2 $-1 $92 forward single #
coedge $-1 $843 $755 $757 $844 0 $605 $-1 #
face $-1 $426 $609 $2 $-1 $92 forward single #
straight-curve $-1 -2.5 26 10 1 0 0 I I #
straight-curve $-1 1.25 30 10 -1 0 0 I I #
coedge $-1 $615 $845 $846 $847 1 $495 $-1 #
coedge $-1 $848 $684 $615 $732 1 $678 $-1 #
edge $-1 $849 $689 $615 $850 0 #
coedge $-1 $616 $851 $818 $852 0 $58 $-1 #
coedge $-1 $816 $815 $616 $735 1 $754 $-1 #
edge $-1 $853 $739 $616 $167 0 #
coedge $-1 $811 $617 $815 $854 0 $738 $-1 #
coedge $-1 $617 $855 $619 $742 0 $738 $-1 #
loop $-1 $-1 $856 $857 #
vertex $-1 $854 $858 #
straight-curve $-1 1.5 12.5 10 0 -1 0 I I #
coedge $-1 $620 $619 $859 $860 1 $621 $-1 #
edge $-1 $861 $622 $737 $862 0 #
face $-1 $863 $621 $2 $-1 $864 reversed single #
point $-1 1.5 15 10 #
coedge $-1 $865 $624 $866 $867 1 $502 $-1 #
coedge $-1 $859 $868 $624 $747 0 $869 $-1 #
edge $-1 $870 $748 $624 $871 0 #
vertex $-1 $747 $872 #
straight-curve $-1 -1.5 15 10 0 0 -1 I I #
coedge $-1 $626 $865 $693 $823 0 $502 $-1 #
plane-surface $-1 -1.5 25 10 1 0 0 0 0 -1 0 I I I I #
point $-1 -1.5 20 17 #
face $-1 $465 $873 $2 $-1 $252 reversed single #
loop $-1 $-1 $816 $631 #
coedge $-1 $726 $874 $632 $756 0 $605 $-1 #
edge $-1 $761 $758 $755 $299 0 #
coedge $-1 $633 $693 $726 $844 1 $694 $-1 #
vertex $-1 $756 $875 #
straight-curve $-1 -8.5 26 11.5 0 0 -1 I I #
coedge $-1 $866 $636 $874 $876 1 $490 $-1 #
vertex $-1 $876 $877 #
straight-curve $-1 -8.5 30 13 0 0 -1 I I #
point $-1 -8.5 30 20 #
face $-1 $627 $807 $2 $-1 $878 reversed single #
loop $-1 $-1 $879 $640 #
plane-surface $-1 10 25 20 0 0 1 1 0 0 0 I I I I #
coedge $-1 $880 $881 $851 $882 1 $641 $-1 #
coedge $-1 $883 $646 $884 $885 1 $529 $-1 #
coedge $-1 $646 $883 $886 $887 0 $529 $-1 #
coedge $-1 $888 $889 $646 $771 0 $58 $-1 #
edge $-1 $890 $891 $770 $892 0 #
coedge $-1 $893 $647 $894 $895 0 $58 $-1 #
coedge $-1 $669 $896 $647 $774 1 $792 $-1 #
edge $-1 $675 $897 $647 $898 0 #
coedge $-1 $648 $701 $664 $788 1 $702 $-1 #
straight-curve $-1 -15 -35 16 0 0 1 I I #
point $-1 -15 -35 10 #
coedge $-1 $778 $778 $652 $779 1 $899 $-1 #
edge $-1 $900 $900 $652 $901 0 #
loop $-1 $-1 $653 $902 #
vertex $-1 $654 $903 #
ellipse-curve $-1 5 -35 -5 0 1 0 0 0 2 1 I I #
face $-1 $902 $655 $2 $-1 $904 forward single #
point $-1 10.000000000000014 -35 -7 #
sphere-surface $-1 15 -35 -5 2 1 0 0 0 0 1 0 I I I I #
straight-curve $-1 -35 0 26 0 -1 0 I I #
coedge $-1 $709 $664 $704 $828 0 $665 $-1 #
edge $-1 $666 $829 $664 $905 0 #
face $-1 $548 $665 $2 $-1 $906 forward single #
point $-1 -15 -35 26 #
coedge $-1 $896 $669 $671 $795 1 $792 $-1 #
loop $-1 $-1 $773 $714 #
straight-curve $-1 25 35 16 0 0 -1 I I #
coedge $-1 $671 $709 $907 $908 0 $665 $-1 #
edge $-1 $909 $672 $671 $910 0 #
point $-1 25 35 26 #
point $-1 25 35 10 #
face $-1 $507 $694 $2 $-1 $413 reversed single #
loop $-1 $-1 $911 $677 #
coedge $-1 $680 $679 $883 $912 0 $443 $-1 #
coedge $-1 $913 $886 $679 $802 1 $873 $-1 #
edge $-1 $808 $914 $801 $314 0 #
coedge $-1 $884 $915 $680 $804 1 $799 $-1 #
edge $-1 $916 $809 $803 $578 0 #
coedge $-1 $917 $681 $915 $918 0 $807 $-1 #
coedge $-1 $681 $919 $913 $920 0 $807 $-1 #
loop $-1 $-1 $805 $764 #
vertex $-1 $682 $921 #
vertex $-1 $682 $922 #
straight-curve $-1 11.5 24 17 0 1 0 I I #
coedge $-1 $856 $736 $683 $812 0 $738 $-1 #
edge $-1 $817 $814 $811 $923 0 #
coedge $-1 $684 $848 $856 $924 1 $678 $-1 #
vertex $-1 $812 $925 #
coedge $-1 $734 $686 $736 $854 1 $754 $-1 #
coedge $-1 $686 $734 $688 $819 1 $754 $-1 #
vertex $-1 $812 $926 #
coedge $-1 $927 $688 $733 $852 1 $495 $-1 #
edge $-1 $690 $853 $688 $928 0 #
point $-1 8.5 26 17 #
point $-1 8.5 20 17 #
straight-curve $-1 -1.5 24 17 0 -1 0 I I #
edge $-1 $929 $695 $750 $930 0 #
point $-1 -1.5 26 17 #
vertex $-1 $838 $931 #
straight-curve $-1 -30 26 14.5 0 0 -1 I I #
face $-1 $789 $702 $2 $-1 $932 forward single #
edge $-1 $829 $711 $787 $933 0 #
vertex $-1 $705 $934 #
straight-curve $-1 -15 -30 16 0 0 -1 I I #
plane-surface $-1 2.5 -30 16 0 1 0 0 0 1 0 I I I I #
coedge $-1 $716 $907 $708 $833 0 $490 $-1 #
edge $-1 $834 $935 $832 $936 0 #
vertex $-1 $710 $937 #
straight-curve $-1 -30 0 26 0 1 0 I I #
point $-1 -30 -30 26 #
coedge $-1 $721 $720 $713 $838 0 $722 $-1 #
edge $-1 $935 $825 $837 $463 0 #
plane-surface $-1 25 0 16 1 0 0 0 0 -1 0 I I I I #
edge $-1 $717 $935 $720 $729 0 #
point $-1 -21.5 30 10 #
loop $-1 $-1 $938 $725 #
coedge $-1 $874 $726 $865 $939 0 $605 $-1 #
edge $-1 $758 $929 $726 $728 0 #
coedge $-1 $730 $940 $941 $942 1 $495 $-1 #
coedge $-1 $943 $938 $730 $847 0 $842 $-1 #
edge $-1 $849 $944 $846 $945 0 #
coedge $-1 $813 $731 $938 $946 1 $678 $-1 #
vertex $-1 $946 $947 #
straight-curve $-1 8.5 26 11.5 0 0 1 I I #
coedge $-1 $733 $948 $767 $882 0 $58 $-1 #
edge $-1 $949 $853 $733 $945 0 #
vertex $-1 $852 $950 #
edge $-1 $739 $817 $736 $951 0 #
coedge $-1 $737 $952 $953 $954 1 $738 $-1 #
coedge $-1 $955 $811 $813 $924 0 $738 $-1 #
face $-1 $706 $738 $2 $-1 $956 reversed single #
point $-1 1.5 20 10 #
coedge $-1 $953 $746 $741 $860 0 $869 $-1 #
edge $-1 $748 $861 $741 $957 0 #
vertex $-1 $954 $958 #
straight-curve $-1 1.5 15 10 0 0 -1 I I #
face $-1 $857 $869 $2 $-1 $959 forward single #
plane-surface $-1 0 15 10 0 1 0 0 0 1 0 I I I I #
coedge $-1 $750 $745 $843 $939 1 $502 $-1 #
coedge $-1 $960 $760 $745 $867 0 $490 $-1 #
edge $-1 $961 $870 $866 $962 0 #
coedge $-1 $746 $953 $960 $963 1 $869 $-1 #
loop $-1 $-1 $868 $863 #
vertex $-1 $963 $964 #
straight-curve $-1 -1.5 25 20 0 -1 0 I I #
point $-1 -1.5 15 20 #
loop $-1 $-1 $965 $753 #
coedge $-1 $755 $843 $760 $876 0 $605 $-1 #
point $-1 -8.5 26 10 #
edge $-1 $961 $761 $874 $729 0 #
point $-1 -8.5 30 10 #
plane-surface $-1 11.5 25 10 -1 0 0 0 0 1 0 I I I I #
coedge $-1 $966 $967 $968 $969 1 $765 $-1 #
coedge $-1 $970 $767 $971 $972 1 $641 $-1 #
coedge $-1 $767 $970 $927 $973 0 $641 $-1 #
edge $-1 $974 $949 $851 $975 0 #
coedge $-1 $769 $768 $800 $912 1 $529 $-1 #
coedge $-1 $911 $803 $768 $885 0 $799 $-1 #
edge $-1 $916 $890 $768 $976 0 #
coedge $-1 $801 $965 $769 $887 1 $873 $-1 #
edge $-1 $914 $891 $769 $977 0 #
coedge $-1 $948 $770 $965 $978 0 $58 $-1 #
coedge $-1 $770 $893 $911 $979 0 $58 $-1 #
vertex $-1 $979 $980 #
vertex $-1 $978 $981 #
straight-curve $-1 20 11.5 10 0 -1 0 I I #
coedge $-1 $889 $772 $917 $982 0 $58 $-1 #
coedge $-1 $983 $984 $772 $895 1 $490 $-1 #
edge $-1 $897 $985 $772 $729 0 #
coedge $-1 $773 $791 $983 $986 1 $792 $-1 #
vertex $-1 $774 $987 #
straight-curve $-1 25 0 10 0 -1 0 I I #
loop $-1 $-1 $778 $988 #
vertex $-1 $779 $989 #
ellipse-curve $-1 0 -35 -5 0 1 0 0 0 2 1 I I #
face $-1 $988 $780 $2 $-1 $990 forward single #
point $-1 5.0000000000000142 -35 -7 #
sphere-surface $-1 10 -35 -5 2 1 0 0 0 0 1 0 I I I I #
straight-curve $-1 -15 -5 26 0 1 0 I I #
plane-surface $-1 0 0 26 0 0 1 1 0 0 0 I I I I #
coedge $-1 $832 $983 $794 $908 1 $490 $-1 #
edge $-1 $834 $909 $794 $991 0 #
vertex $-1 $908 $992 #
straight-curve $-1 25 0 26 0 1 0 I I #
coedge $-1 $915 $884 $889 $979 1 $799 $-1 #
edge $-1 $914 $916 $883 $993 0 #
coedge $-1 $965 $801 $806 $920 1 $873 $-1 #
vertex $-1 $912 $994 #
coedge $-1 $803 $911 $805 $918 1 $799 $-1 #
vertex $-1 $912 $995 #
coedge $-1 $996 $805 $893 $982 1 $807 $-1 #
edge $-1 $809 $997 $805 $998 0 #
coedge $-1 $806 $971 $948 $999 1 $807 $-1 #
edge $-1 $1000 $808 $806 $1001 0 #
point $-1 11.5 20 17 #
point $-1 11.5 26 17 #
straight-curve $-1 1.5 24 17 0 1 0 I I #
edge $-1 $814 $1002 $856 $1003 0 #
point $-1 1.5 26 17 #
point $-1 1.5 20 17 #
coedge $-1 $940 $818 $881 $973 1 $495 $-1 #
straight-curve $-1 8.5 20 11.5 0 0 -1 I I #
vertex $-1 $823 $1004 #
straight-curve $-1 -1.5 26 11.5 0 0 1 I I #
point $-1 -30 26 10 #
plane-surface $-1 -15 -10 16 1 0 0 0 0 -1 0 I I I I #
straight-curve $-1 1.25 -30 26 -1 0 0 I I #
point $-1 -15 -30 26 #
vertex $-1 $838 $1005 #
straight-curve $-1 -30 30 16 0 0 -1 I I #
point $-1 -30 30 26 #
coedge $-1 $846 $1006 $848 $946 0 $842 $-1 #
edge $-1 $929 $961 $843 $504 0 #
coedge $-1 $845 $927 $966 $1007 1 $495 $-1 #
coedge $-1 $968 $1008 $845 $942 0 $490 $-1 #
edge $-1 $944 $1009 $941 $1010 0 #
coedge $-1 $1006 $846 $1008 $1011 0 $842 $-1 #
vertex $-1 $847 $1012 #
straight-curve $-1 8.5 12.5 10 0 1 0 I I #
edge $-1 $1002 $849 $938 $728 0 #
point $-1 8.5 26 10 #
coedge $-1 $851 $888 $919 $999 0 $58 $-1 #
vertex $-1 $882 $1013 #
point $-1 8.5 20 10 #
straight-curve $-1 1.5 20 11.5 0 0 1 I I #
coedge $-1 $855 $955 $1014 $1015 1 $738 $-1 #
coedge $-1 $868 $859 $855 $954 0 $869 $-1 #
edge $-1 $861 $1016 $855 $1017 0 #
coedge $-1 $952 $856 $1006 $1018 1 $738 $-1 #
plane-surface $-1 1.5 25 10 -1 0 0 0 0 1 0 I I I I #
straight-curve $-1 0 15 20 1 0 0 I I #
point $-1 1.5 15 20 #
plane-surface $-1 0 25 20 0 0 1 1 0 0 0 I I I I #
coedge $-1 $1014 $866 $868 $963 0 $490 $-1 #
vertex $-1 $939 $1019 #
straight-curve $-1 -1.5 30 13 0 0 1 I I #
edge $-1 $870 $1016 $960 $1020 0 #
point $-1 -1.5 30 20 #
coedge $-1 $886 $913 $888 $978 1 $873 $-1 #
coedge $-1 $1021 $879 $940 $1007 0 $765 $-1 #
coedge $-1 $879 $1021 $1022 $1023 0 $765 $-1 #
coedge $-1 $984 $941 $879 $969 0 $490 $-1 #
edge $-1 $1009 $1024 $968 $1025 0 #
coedge $-1 $881 $880 $1021 $1026 1 $641 $-1 #
coedge $-1 $919 $1022 $880 $972 0 $807 $-1 #
edge $-1 $1027 $974 $971 $1028 0 #
edge $-1 $1029 $949 $927 $1030 0 #
vertex $-1 $882 $1031 #
straight-curve $-1 5 15 10 -1 0 0 I I #
straight-curve $-1 20 26 13 0 0 -1 I I #
straight-curve $-1 20 20 13 0 0 -1 I I #
edge $-1 $891 $1000 $888 $167 0 #
edge $-1 $997 $890 $889 $728 0 #
point $-1 20 26 10 #
point $-1 20 20 10 #
edge $-1 $985 $997 $893 $1032 0 #
coedge $-1 $907 $894 $896 $986 0 $490 $-1 #
coedge $-1 $894 $968 $996 $1033 0 $490 $-1 #
vertex $-1 $895 $1034 #
edge $-1 $897 $909 $983 $1035 0 #
point $-1 25 30 10 #
face $-1 $280 $899 $2 $-1 $1036 forward single #
point $-1 1.4210854715202004e-14 -35 -7 #
sphere-surface $-1 5 -35 -5 2 1 0 0 0 0 1 0 I I I I #
straight-curve $-1 1.25 30 26 1 0 0 I I #
point $-1 25 30 26 #
straight-curve $-1 20 23 17 0 1 0 I I #
point $-1 20 20 17 #
point $-1 20 26 17 #
coedge $-1 $1022 $917 $984 $1033 1 $807 $-1 #
vertex $-1 $982 $1037 #
straight-curve $-1 11.5 26 11.5 0 0 -1 I I #
edge $-1 $1000 $974 $948 $1032 0 #
vertex $-1 $920 $1038 #
straight-curve $-1 11.5 20 11.5 0 0 1 I I #
vertex $-1 $1018 $1039 #
straight-curve $-1 1.5 26 11.5 0 0 -1 I I #
point $-1 -1.5 26 10 #
point $-1 -30 30 10 #
coedge $-1 $938 $943 $955 $1018 0 $842 $-1 #
edge $-1 $1009 $1029 $940 $1040 0 #
coedge $-1 $941 $1014 $943 $1011 1 $490 $-1 #
vertex $-1 $969 $1041 #
straight-curve $-1 8.5 30 13 0 0 1 I I #
edge $-1 $944 $1042 $943 $729 0 #
point $-1 8.5 30 10 #
point $-1 8.5 15 10 #
coedge $-1 $1008 $960 $952 $1015 0 $490 $-1 #
edge $-1 $1016 $1042 $1014 $1043 0 #
vertex $-1 $963 $1044 #
straight-curve $-1 1.5 25 20 0 1 0 I I #
edge $-1 $1042 $1002 $1006 $740 0 #
point $-1 -1.5 30 10 #
straight-curve $-1 1.25 30 20 1 0 0 I I #
coedge $-1 $967 $966 $970 $1026 0 $765 $-1 #
coedge $-1 $971 $996 $967 $1023 1 $807 $-1 #
edge $-1 $1027 $1024 $1022 $1045 0 #
vertex $-1 $969 $1046 #
straight-curve $-1 6.25 30 20 1 0 0 I I #
edge $-1 $1029 $1027 $970 $1047 0 #
vertex $-1 $1023 $1048 #
straight-curve $-1 11.5 15 10 0 0 -1 I I #
vertex $-1 $1007 $1049 #
straight-curve $-1 8.5 15 10 0 0 -1 I I #
point $-1 11.5 15 10 #
straight-curve $-1 11.5 12.5 10 0 -1 0 I I #
edge $-1 $1024 $985 $984 $1050 0 #
point $-1 11.5 30 10 #
straight-curve $-1 25 30 16 0 0 1 I I #
sphere-surface $-1 0 -35 -5 2 1 0 0 0 0 1 0 I I I I #
point $-1 11.5 26 10 #
point $-1 11.5 20 10 #
point $-1 1.5 26 10 #
straight-curve $-1 8.5 25 20 0 -1 0 I I #
point $-1 8.5 30 20 #
vertex $-1 $1011 $1051 #
straight-curve $-1 1.5 30 13 0 0 -1 I I #
point $-1 1.5 30 20 #
straight-curve $-1 11.5 25 20 0 1 0 I I #
point $-1 11.5 30 20 #
straight-curve $-1 10 15 20 1 0 0 I I #
point $-1 11.5 15 20 #
point $-1 8.5 15 20 #
straight-curve $-1 11.5 30 13 0 0 -1 I I #
point $-1 1.5 30 10 #
End-of-ACIS-data 