**ABCDEFGHIJKLMNOPQRSTUVWXYZabcdefghijklmnopqrstuvwxyz**************************
**PARASOLID !"#$%&'()*+,-./:;<=>?@[\]^_`{|}~0123456789**************************
**PART1;MC=sun;MC_MODEL=Sun-3;MC_ID=unknown;OS=SunOS;OS_RELEASE=unknown;FRU=sdl_
parasolid_test_sun;APPL=unknown;SITE=sdl-cambridge-u.k.;USER=kramer;FORMAT=text;
GUISE=transmit;KEY=removed_7;FILE=removed_7.xmt_txt;DATE=16-oct-1990;
**PART2;SCH=SCH_210_1012;USFLD_SIZE=0;
**PART3;
**END_OF_HEADER*****************************************************************
T47 : TRANSMIT FILE created by modeller version 22012 SCH_210_10120 12 1 777 0 0
 0 0 0 1e3 1e-8 2 2 0 3 0 1 4 102 9 2 removed_713 4 330 0 1 0 5 6 7 8 9 10 14 5
 256 0 11 0 12 4 8 +16 6 320 0 13 0 14 9 18 7 311 0 15 0 16 10 51 8 266 0 5 17 0
 0 +2.66 2.13 1.2 0 0 1 .2 31 9 322 0 6 18 0 0 -2.66 2.86 1.24 0 0 1 .2 29 10 31
3 0 7 19 0 2.46 2.13 1.24 29 19 309 0 16 20 10 2.46 2.86 1.24 18 16 307 0 21 7 2
2 19 29 20 300 0 22 23 19 2.76 3.06 1.24 18 22 298 0 24 16 25 20 29 23 296 0 25
 26 20 2.66 3.06 1.24 18 25 294 0 13 22 27 23 29 26 287 0 27 28 23 2.76 3.06 1.5
 18 27 285 0 29 25 30 26 29 28 278 0 30 31 26 2.76 1.93 1.24 18 30 276 0 32 27 3
3 28 29 31 270 0 33 34 28 2.76 1.93 1.5 18 33 268 0 35 30 36 31 29 34 112 0 36 3
7 31 2.46 2.86 1.5 18 36 110 0 38 33 39 34 29 37 108 0 39 40 34 2.46 2.13 1.5 18
 39 106 0 41 36 42 37 29 40 100 0 42 43 37 2.66 3.06 1.5 18 42 98 0 44 39 45 40
 29 43 70 0 45 46 40 2.66 1.93 1.5 18 45 68 0 47 42 48 43 29 46 698 0 48 0 43 2.
66 1.93 1.24 18 48 500 0 49 45 0 46 17 49 50 15 51 48 52 53 15 50 378 0 13 54 0
 17 15 50 21 49 7 55 56 17 51 50 49 24 30 57 58 17 52 59 60 61 30 49 53 16 53 27
7 0 49 62 63 64 16 62 280 0 32 65 53 66 16 63 269 0 67 53 68 69 30 64 279 0 53 6
9 66 0 +2.76 1.93 1.24 -1 0 0 30 69 271 0 63 70 64 0 +2.76 1.93 1.5 -1 0 0 30 66
 282 0 62 64 71 0 +2.76 1.93 1.2 0 0 -1 30 71 291 0 65 66 72 0 +2.76 2.495 1.5 0
 -1 0 16 65 289 0 35 73 62 71 30 72 297 0 73 71 74 0 +2.66 3.06 1.2 0 0 1 16 73
 295 0 75 76 65 72 30 74 301 0 76 72 77 0 +2.76 3.06 1.24 1 0 0 16 76 299 0 24 7
8 73 74 30 77 304 0 78 74 79 0 +2.76 3.06 1.2 0 0 1 16 78 302 0 29 80 76 77 30 7
9 314 0 80 77 18 0 +2.46 2.13 1.2 0 0 1 16 80 312 0 81 14 78 79 30 18 317 0 14 7
9 9 0 +2.46 2.495 1.24 0 1 0 16 14 315 0 21 6 80 18 17 21 50 13 15 16 82 14 17 1
3 50 24 21 25 83 6 17 82 84 81 85 7 21 14 15 84 316 0 82 86 0 17 81 84 87 82 39
 88 80 17 85 84 82 87 16 38 68 17 87 84 85 81 36 89 90 17 38 91 44 83 36 85 68 1
6 68 203 0 85 63 92 70 16 92 119 0 93 68 94 95 30 70 205 0 68 95 69 0 +2.46 2.86
 1.2 0 0 -1 31 95 121 0 92 96 70 0 +2.66 2.86 1.5 0 0 1 .2 31 96 116 0 94 97 95
 0 +2.66 2.13 1.5 0 0 1 .2 16 94 114 0 98 92 90 96 30 97 109 0 90 99 96 0 +2.46
 2.495 1.5 0 1 0 16 90 107 0 87 94 100 97 30 99 101 0 100 101 97 0 +2.76 3.06 1.
5 1 0 0 16 100 99 0 102 90 103 99 30 101 82 0 103 104 99 0 +2.66 1.93 1.2 0 0 -1
 16 103 80 0 61 100 56 101 31 104 602 0 56 105 101 0 -2.66 2.13 1.24 0 0 1 .2 16
 56 404 0 15 103 58 104 30 105 605 0 58 0 104 0 +2.76 2.495 1.24 0 -1 0 16 58 40
7 0 51 56 0 105 17 61 59 52 67 48 47 103 15 59 281 0 60 106 0 17 67 59 61 60 45
 107 63 17 47 12 41 55 45 61 103 15 12 326 0 55 5 0 17 41 12 88 47 39 98 94 17 5
5 12 47 88 48 15 56 17 88 12 55 41 7 81 80 17 98 108 107 89 45 41 94 15 108 290
 0 109 110 0 17 107 108 109 98 33 67 63 17 89 108 98 93 39 87 90 17 93 108 89 11
1 36 44 92 17 111 108 93 109 42 102 100 17 44 91 112 38 42 93 92 15 91 321 0 83
 11 0 17 112 91 83 44 25 75 73 17 83 91 38 112 16 13 6 17 75 113 102 114 42 112
 73 15 113 303 0 115 116 0 17 102 113 115 75 27 111 100 17 114 113 75 115 25 24
 76 17 115 113 114 102 22 29 78 17 24 50 51 13 22 114 76 17 29 117 35 57 27 115
 78 15 117 344 0 57 118 0 17 35 117 32 29 33 109 65 17 57 117 29 32 22 51 58 17
 32 117 57 35 30 60 62 17 60 59 67 52 33 32 62 17 109 108 111 107 27 35 65 14 11
8 343 0 54 106 117 4 119 -14 54 377 0 0 118 50 4 120 -14 106 88 0 118 110 59 4 1
21 +50 119 569 0 118 120 121 0 +2.76 2.495 .48 -1 0 0 50 120 586 0 54 0 119 0 +1
.76 2.495 1.24 0 0 1 50 121 89 0 106 119 122 0 +2.76 1.93 1.2 0 -1 0 50 122 133
 0 110 121 123 0 +2.76 2.495 1.5 0 0 1 14 110 132 0 106 116 108 4 122 +50 123 19
7 0 116 122 124 0 +2.76 3.06 1.2 0 1 0 14 116 196 0 110 86 113 4 123 +50 124 207
 0 86 123 17 0 +2.46 2.495 1.2 -1 0 0 14 86 206 0 116 11 84 4 124 +51 17 251 0 1
1 124 8 0 +2.66 2.86 1.2 0 0 1 .2 14 11 241 0 86 5 91 4 17 +1 0 
