600 0 1 0           
100 GICL Pro/E ACIS Translator - Source: f:/data5/repository/PTC/V18/cabecad18/ptc_comp/2_port.prt - 6 0 13 ACIS 6.0.3 NT 24 Thu Apr 04 13:39:46 2002 
1 9.9999999999999995e-007 1e-010 
body $-1 $1 $-1 $2 #
lump $-1 $-1 $3 $0 #
transform $-1 1 0 0 0 1 0 0 0 1 0 0 0 25.399999999999999 no_rotate no_reflect no_shear #
shell $-1 $-1 $-1 $4 $-1 $1 #
face $-1 $5 $6 $3 $-1 $7 forward single #
face $-1 $8 $9 $3 $-1 $10 forward single #
loop $-1 $-1 $11 $4 #
plane-surface $-1 -15.583333333333332 0 -17.5 1 0 0 0 0 1 forward_v I I I I #
face $-1 $12 $13 $3 $-1 $14 forward single #
loop $-1 $-1 $15 $5 #
plane-surface $-1 -17.25 5 -10.833333333333332 0 0 1 0 -1 0 forward_v I I I I #
coedge $-1 $16 $17 $18 $19 forward $6 $-1 #
face $-1 $20 $21 $3 $-1 $22 forward single #
loop $-1 $-1 $23 $8 #
plane-surface $-1 -17.25 3.333333333333333 -10.833333333333332 0 -1 0 0 0 -1 forward_v I I I I #
coedge $-1 $18 $24 $25 $26 forward $9 $-1 #
coedge $-1 $27 $11 $28 $29 forward $6 $-1 #
coedge $-1 $11 $27 $30 $31 forward $6 $-1 #
coedge $-1 $32 $15 $11 $19 reversed $9 $-1 #
edge $-1 $33 0 $34 1.666666666666667 $11 $35 forward 7 unknown #
face $-1 $36 $37 $3 $-1 $38 forward single #
loop $-1 $-1 $39 $12 #
plane-surface $-1 -17.25 3.333333333333333 -14.166666666666666 0 0 -1 0 1 0 forward_v I I I I #
coedge $-1 $28 $40 $41 $42 forward $13 $-1 #
coedge $-1 $15 $32 $43 $44 forward $9 $-1 #
coedge $-1 $40 $28 $15 $26 reversed $13 $-1 #
edge $-1 $45 0 $34 1.6666666666666679 $15 $46 forward 7 unknown #
coedge $-1 $17 $16 $47 $48 forward $6 $-1 #
coedge $-1 $25 $23 $16 $29 reversed $13 $-1 #
edge $-1 $34 0 $49 3.3333333333333304 $16 $50 forward 7 unknown #
coedge $-1 $51 $52 $17 $31 reversed $37 $-1 #
edge $-1 $53 0 $33 3.3333333333333304 $17 $54 forward 7 unknown #
coedge $-1 $24 $18 $52 $55 reversed $9 $-1 #
vertex $-1 $31 $56 #
vertex $-1 $29 $57 #
straight-curve $-1 -15.583333333333332 5 -10.833333333333332 0 -1 0 I I #
face $-1 $58 $59 $3 $-1 $60 reversed single #
loop $-1 $-1 $52 $20 #
plane-surface $-1 -17.25 5 -14.166666666666666 0 1 0 0 0 1 forward_v I I I I #
coedge $-1 $47 $61 $51 $62 forward $21 $-1 #
coedge $-1 $23 $25 $63 $64 forward $13 $-1 #
coedge $-1 $61 $47 $23 $42 reversed $21 $-1 #
edge $-1 $65 0 $49 1.6666666666666679 $23 $66 forward 7 unknown #
coedge $-1 $67 $63 $24 $44 reversed $68 $-1 #
edge $-1 $69 0 $45 1.6666666666666665 $24 $70 forward 7 unknown #
vertex $-1 $44 $71 #
straight-curve $-1 -17.25 3.333333333333333 -10.833333333333332 1 0 0 I I #
coedge $-1 $41 $39 $27 $48 reversed $21 $-1 #
edge $-1 $49 0 $53 1.666666666666667 $27 $72 forward 7 unknown #
vertex $-1 $48 $73 #
straight-curve $-1 -15.583333333333332 3.333333333333333 -10.833333333333334 0 0 -1 I I #
coedge $-1 $74 $30 $39 $62 reversed $37 $-1 #
coedge $-1 $30 $74 $32 $55 forward $37 $-1 #
vertex $-1 $31 $75 #
straight-curve $-1 -15.583333333333332 5 -14.166666666666664 0 0 1 I I #
edge $-1 $69 0 $33 1.6666666666666679 $52 $76 forward 7 unknown #
point $-1 -15.583333333333332 5 -10.833333333333334 #
point $-1 -15.583333333333332 3.333333333333333 -10.833333333333334 #
face $-1 $77 $78 $3 $-1 $79 forward single #
loop $-1 $68 $80 $36 #
plane-surface $-1 -17.25 0 -17.5 -1 0 0 0 0 -1 forward_v I I I I #
coedge $-1 $39 $41 $81 $82 forward $21 $-1 #
edge $-1 $83 0 $53 1.6666666666666679 $51 $84 forward 7 unknown #
coedge $-1 $43 $81 $40 $64 reversed $68 $-1 #
edge $-1 $45 0 $65 3.3333333333333321 $40 $85 forward 7 unknown #
vertex $-1 $64 $86 #
straight-curve $-1 -17.25 3.333333333333333 -14.166666666666666 1 0 0 I I #
coedge $-1 $81 $43 $74 $87 reversed $68 $-1 #
loop $-1 $-1 $81 $36 #
vertex $-1 $87 $88 #
straight-curve $-1 -17.25 5 -10.833333333333332 0 -1 0 I I #
point $-1 -17.25 3.3333333333333335 -10.833333333333332 #
straight-curve $-1 -15.583333333333332 3.333333333333333 -14.166666666666666 0 1 0 I I #
point $-1 -15.583333333333332 3.333333333333333 -14.166666666666664 #
coedge $-1 $52 $51 $67 $87 forward $37 $-1 #
point $-1 -15.583333333333332 5 -14.166666666666664 #
straight-curve $-1 -17.25 5 -10.833333333333332 1 0 0 I I #
face $-1 $89 $90 $3 $-1 $91 forward single #
loop $-1 $-1 $92 $58 #
plane-surface $-1 -17.25 5.4166666666666661 -10.416666666666666 0 1 0 0 0 -1 forward_v I I I I #
coedge $-1 $93 $94 $95 $96 reversed $59 $-1 #
coedge $-1 $63 $67 $61 $82 reversed $68 $-1 #
edge $-1 $65 0 $83 1.666666666666667 $61 $97 forward 7 unknown #
vertex $-1 $87 $98 #
straight-curve $-1 -17.25 5 -14.166666666666666 1 0 0 I I #
straight-curve $-1 -17.25 3.333333333333333 -10.833333333333332 0 0 -1 I I #
point $-1 -17.25 3.333333333333333 -14.166666666666664 #
edge $-1 $83 0 $69 3.3333333333333339 $74 $99 forward 7 unknown #
point $-1 -17.25 5 -10.833333333333332 #
face $-1 $100 $101 $3 $-1 $102 forward single #
loop $-1 $-1 $103 $77 #
plane-surface $-1 -17.25 5.4166666666666661 -14.583333333333332 0 0 -1 0 -1 0 forward_v I I I I #
coedge $-1 $104 $95 $105 $106 forward $78 $-1 #
coedge $-1 $107 $80 $108 $109 reversed $59 $-1 #
coedge $-1 $80 $107 $110 $111 reversed $59 $-1 #
coedge $-1 $92 $112 $80 $96 forward $78 $-1 #
edge $-1 $113 0 $114 4.1666666666666661 $80 $115 forward 7 unknown #
straight-curve $-1 -17.25 3.333333333333333 -14.166666666666666 0 1 0 I I #
point $-1 -17.25 5 -14.166666666666666 #
straight-curve $-1 -17.25 5 -14.166666666666666 0 0 1 I I #
face $-1 $116 $117 $3 $-1 $118 forward single #
loop $-1 $-1 $119 $89 #
plane-surface $-1 -17.25 2.9166666666666665 -14.583333333333332 0 -1 0 0 0 1 forward_v I I I I #
coedge $-1 $120 $110 $121 $122 forward $90 $-1 #
coedge $-1 $112 $92 $123 $124 reversed $78 $-1 #
coedge $-1 $110 $120 $92 $106 reversed $90 $-1 #
edge $-1 $114 0 $125 0.4166666666666643 $105 $126 forward 7 unknown #
coedge $-1 $94 $93 $127 $128 reversed $59 $-1 #
coedge $-1 $129 $130 $93 $109 forward $117 $-1 #
edge $-1 $131 0 $113 2.4999999999999996 $93 $132 forward 7 unknown #
coedge $-1 $103 $105 $94 $111 forward $90 $-1 #
edge $-1 $114 0 $133 2.4999999999999996 $94 $134 forward 7 unknown #
coedge $-1 $95 $104 $129 $135 reversed $78 $-1 #
vertex $-1 $109 $136 #
vertex $-1 $111 $137 #
straight-curve $-1 -17.25 5.4166666666666661 -10.416666666666668 0 0 -1 I I #
face $-1 $-1 $138 $3 $-1 $139 forward single #
loop $-1 $-1 $129 $100 #
plane-surface $-1 -17.25 2.9166666666666665 -10.416666666666666 0 0 1 0 1 0 forward_v I I I I #
coedge $-1 $140 $127 $130 $141 forward $101 $-1 #
coedge $-1 $105 $103 $142 $143 reversed $90 $-1 #
coedge $-1 $127 $140 $103 $122 reversed $101 $-1 #
edge $-1 $133 0 $144 0.4166666666666643 $103 $145 forward 7 unknown #
coedge $-1 $142 $146 $104 $124 forward $138 $-1 #
edge $-1 $147 -1.7763568394002505e-015 $125 4.1666666666666661 $123 $148 forward 7 unknown #
vertex $-1 $143 $149 #
straight-curve $-1 -17.25 5.4166666666666661 -14.583333333333332 -1 0 0 I I #
coedge $-1 $119 $121 $107 $128 forward $101 $-1 #
edge $-1 $133 0 $131 4.1666666666666661 $107 $150 forward 7 unknown #
coedge $-1 $151 $108 $112 $135 forward $117 $-1 #
coedge $-1 $108 $151 $119 $141 reversed $117 $-1 #
vertex $-1 $128 $152 #
straight-curve $-1 -17.25 2.9166666666666665 -10.416666666666666 0 1 0 I I #
vertex $-1 $111 $153 #
straight-curve $-1 -17.25 5.4166666666666661 -14.583333333333332 0 -1 0 I I #
edge $-1 $113 0 $147 0.41666666666666785 $129 $154 forward 7 unknown #
point $-1 -17.25 5.4166666666666661 -10.416666666666668 #
point $-1 -17.25 5.4166666666666661 -14.583333333333334 #
loop $-1 $-1 $155 $116 #
plane-surface $-1 -17.666666666666664 0 -17.5 -1 0 0 0 0 -1 forward_v I I I I #
coedge $-1 $121 $119 $155 $156 reversed $101 $-1 #
edge $-1 $131 0 $157 0.41666666666666785 $119 $158 forward 7 unknown #
coedge $-1 $155 $123 $120 $143 forward $138 $-1 #
edge $-1 $125 0 $144 2.4999999999999996 $142 $159 forward 7 unknown #
vertex $-1 $143 $160 #
straight-curve $-1 -17.25 2.9166666666666665 -14.583333333333332 -1 0 0 I I #
coedge $-1 $123 $155 $151 $161 forward $138 $-1 #
vertex $-1 $124 $162 #
straight-curve $-1 -17.666666666666664 5.4166666666666661 -10.416666666666668 0 0 -1 I I #
point $-1 -17.666666666666664 5.4166666666666661 -14.583333333333334 #
straight-curve $-1 -17.25 2.9166666666666665 -14.583333333333334 0 0 1 I I #
coedge $-1 $130 $129 $146 $161 reversed $117 $-1 #
point $-1 -17.25 2.9166666666666665 -10.416666666666668 #
point $-1 -17.25 2.9166666666666665 -14.583333333333334 #
straight-curve $-1 -17.25 5.4166666666666661 -10.416666666666666 -1 0 0 I I #
coedge $-1 $146 $142 $140 $156 forward $138 $-1 #
edge $-1 $144 0 $157 4.1666666666666679 $155 $163 forward 7 unknown #
vertex $-1 $161 $164 #
straight-curve $-1 -17.25 2.9166666666666665 -10.416666666666666 -1 0 0 I I #
straight-curve $-1 -17.666666666666664 5.4166666666666661 -14.583333333333332 0 -1 0 I I #
point $-1 -17.666666666666664 2.9166666666666665 -14.583333333333334 #
edge $-1 $157 0 $147 2.4999999999999996 $146 $165 forward 7 unknown #
point $-1 -17.666666666666668 5.4166666666666661 -10.416666666666666 #
straight-curve $-1 -17.666666666666664 2.9166666666666665 -14.583333333333334 0 0 1 I I #
point $-1 -17.666666666666668 2.9166666666666665 -10.416666666666666 #
straight-curve $-1 -17.666666666666664 2.9166666666666665 -10.416666666666666 0 1 0 I I #
End-of-ACIS-data 