700 0 2 0           
24 FBMach with ACIS - 7.0.3 13 ACIS 7.0.3 NT 24 Wed May 15 23:28:42 2002 
1 9.9999999999999995e-007 1e-010 
body $2 -1 $-1 $3 $-1 $4 #
bdycol-kcp $-1 -1 1 5 $5 $6 $7 $8 $9 #
model_id-kcp-attrib $-1 -1 $-1 $-1 $0 1 1021519721 1021519721 1219231745 1 #
lump $-1 -1 $-1 $-1 $10 $0 #
transform $-1 -1 1 0 0 0 1 0 0 0 1 0 0 0 1 rotate no_reflect no_shear #
body $11 -1 $-1 $12 $-1 $13 #
body $14 -1 $-1 $15 $-1 $16 #
body $17 -1 $-1 $18 $-1 $19 #
body $20 -1 $-1 $21 $-1 $22 #
body $23 -1 $-1 $24 $-1 $25 #
shell $-1 -1 $-1 $-1 $-1 $26 $-1 $3 #
rgb_color-st-attrib $-1 -1 $27 $-1 $5 1 0.5 1 #
lump $-1 -1 $-1 $-1 $28 $5 #
transform $-1 -1 1 0 0 0 1 0 0 0 1 -422.27499999999998 105.83333333333331 -317.5 1 no_rotate no_reflect no_shear #
model_id-kcp-attrib $-1 -1 $-1 $-1 $6 1 1021519721 1021519721 1219231746 1 #
lump $-1 -1 $-1 $-1 $29 $6 #
transform $-1 -1 1 0 0 0 1 0 0 0 1 -422.27499999999998 105.83333333333331 -317.5 1 no_rotate no_reflect no_shear #
rgb_color-st-attrib $-1 -1 $30 $-1 $7 1 0.5 1 #
lump $-1 -1 $-1 $-1 $31 $7 #
transform $-1 -1 1 0 0 0 1 0 0 0 1 -422.27499999999998 105.83333333333331 -317.5 1 no_rotate no_reflect no_shear #
rgb_color-st-attrib $-1 -1 $32 $-1 $8 1 0.5 1 #
lump $-1 -1 $-1 $-1 $33 $8 #
transform $-1 -1 1 0 0 0 1 0 0 0 1 -422.27499999999998 105.83333333333331 -317.5 1 no_rotate no_reflect no_shear #
rgb_color-st-attrib $-1 -1 $34 $-1 $9 1 0.5 1 #
lump $-1 -1 $-1 $-1 $35 $9 #
transform $-1 -1 1 0 0 0 1 0 0 0 1 -422.27499999999998 105.83333333333331 -317.5 1 no_rotate no_reflect no_shear #
face $36 -1 $-1 $37 $38 $10 $-1 $39 forward single #
model_id-kcp-attrib $-1 -1 $-1 $11 $5 1 1021519721 1021519721 1217527811 1 #
shell $-1 -1 $-1 $-1 $-1 $40 $-1 $12 #
shell $-1 -1 $-1 $-1 $-1 $41 $-1 $15 #
model_id-kcp-attrib $-1 -1 $-1 $17 $7 1 1021519721 1021519722 1210908676 1 #
shell $-1 -1 $-1 $-1 $-1 $42 $-1 $18 #
model_id-kcp-attrib $-1 -1 $-1 $20 $8 1 1021519721 1021519722 1218772997 1 #
shell $-1 -1 $-1 $-1 $-1 $43 $-1 $21 #
model_id-kcp-attrib $-1 -1 $-1 $23 $9 1 1021519721 1021519722 1224671238 1 #
shell $-1 -1 $-1 $-1 $-1 $44 $-1 $24 #
model_id-kcp-attrib $-1 -1 $-1 $-1 $26 1 1021519721 1021519721 1219231745 2 #
face $45 -1 $-1 $46 $47 $10 $-1 $48 forward single #
loop $-1 -1 $-1 $-1 $49 $26 #
plane-surface $-1 -1 $-1 -395.81666666666661 0 -444.5 1 0 0 0 0 25.399999999999999 forward_v I I I I #
face $-1 -1 $-1 $50 $51 $28 $-1 $52 reversed single #
face $53 -1 $-1 $54 $55 $29 $-1 $56 forward single #
face $-1 -1 $-1 $57 $58 $31 $-1 $59 reversed single #
face $-1 -1 $-1 $60 $61 $33 $-1 $62 forward single #
face $-1 -1 $-1 $63 $64 $35 $-1 $65 forward single #
model_id-kcp-attrib $-1 -1 $-1 $-1 $37 1 1021519721 1021519721 1219231745 3 #
face $66 -1 $-1 $67 $68 $10 $-1 $69 forward single #
loop $-1 -1 $-1 $-1 $70 $37 #
plane-surface $-1 -1 $-1 -438.14999999999998 127 -275.16666666666663 0 0 1 0 -25.399999999999999 0 forward_v I I I I #
coedge $-1 -1 $-1 $71 $72 $73 $74 forward $38 $-1 #
face $-1 -1 $-1 $75 $76 $28 $-1 $77 forward single #
loop $-1 -1 $-1 $-1 $78 $40 #
plane-surface $-1 -1 $-1 0 31.749999999999993 0 0 -1 0 0 0 -1 forward_v I I I I #
model_id-kcp-attrib $-1 -1 $-1 $-1 $41 1 1021519721 1021519721 1219231746 6 #
face $79 -1 $-1 $80 $81 $29 $-1 $82 reversed single #
loop $-1 -1 $-1 $-1 $83 $41 #
plane-surface $-1 -1 $-1 0 0 52.916666666666686 0 0 1 1 0 0 forward_v I I I I #
face $-1 -1 $-1 $84 $85 $31 $-1 $86 forward single #
loop $-1 -1 $-1 $-1 $87 $42 #
plane-surface $-1 -1 $-1 0 -31.749999999999993 0 0 1 0 0 0 1 forward_v I I I I #
face $-1 -1 $-1 $88 $89 $33 $-1 $90 forward single #
loop $-1 -1 $-1 $-1 $91 $43 #
plane-surface $-1 -1 $-1 26.458333333333371 -21.166666666666657 -42.333333333333258 1 0 0 0 0 -1 forward_v I I I I #
face $-1 -1 $-1 $92 $93 $35 $-1 $94 forward single #
loop $-1 -1 $-1 $-1 $95 $44 #
plane-surface $-1 -1 $-1 -15.875 -21.166666666666643 42.333333333333371 -1 0 0 0 0 1 forward_v I I I I #
model_id-kcp-attrib $-1 -1 $-1 $-1 $46 1 1021519721 1021519721 1219231745 4 #
face $96 -1 $-1 $97 $98 $10 $-1 $99 forward single #
loop $-1 -1 $-1 $-1 $100 $46 #
plane-surface $-1 -1 $-1 -438.14999999999998 84.666666666666657 -275.16666666666663 0 -1 0 0 0 -25.399999999999999 forward_v I I I I #
coedge $-1 -1 $-1 $73 $101 $102 $103 forward $47 $-1 #
coedge $-1 -1 $-1 $104 $49 $105 $106 forward $38 $-1 #
coedge $-1 -1 $-1 $49 $104 $107 $108 forward $38 $-1 #
coedge $-1 -1 $-1 $109 $70 $49 $74 reversed $47 $-1 #
edge $110 -1 $-1 $111 0 $112 1.6666666666666672 $49 $113 forward @7 unknown #
face $-1 -1 $-1 $114 $115 $28 $-1 $116 forward single #
loop $-1 -1 $-1 $-1 $117 $50 #
plane-surface $-1 -1 $-1 26.458333333333371 21.166666666666686 -52.916666666666686 1 0 0 0 0 -1 forward_v I I I I #
coedge $-1 -1 $-1 $118 $119 $120 $121 forward $51 $-1 #
model_id-kcp-attrib $-1 -1 $-1 $-1 $54 1 1021519721 1021519721 1219231746 4 #
face $122 -1 $-1 $123 $124 $29 $-1 $125 reversed single #
loop $-1 -1 $-1 $-1 $126 $54 #
plane-surface $-1 -1 $-1 0 0 -52.916666666666686 0 0 1 1 0 0 forward_v I I I I #
coedge $-1 -1 $-1 $127 $128 $129 $130 forward $55 $-1 #
face $-1 -1 $-1 $131 $132 $31 $-1 $133 forward single #
loop $-1 -1 $-1 $-1 $134 $57 #
plane-surface $-1 -1 $-1 -15.875 -21.166666666666657 52.916666666666686 0 0 1 1 0 0 forward_v I I I I #
coedge $-1 -1 $-1 $135 $136 $137 $138 forward $58 $-1 #
face $-1 -1 $-1 $139 $140 $33 $-1 $141 forward single #
loop $-1 -1 $-1 $-1 $142 $60 #
plane-surface $-1 -1 $-1 26.458333333333371 21.166666666666686 -42.333333333333258 1.6819019099084604e-032 1 0 0 0 1 forward_v I I I I #
coedge $-1 -1 $-1 $143 $144 $145 $146 forward $61 $-1 #
face $-1 -1 $-1 $147 $148 $35 $-1 $149 forward single #
loop $-1 -1 $-1 $-1 $150 $63 #
plane-surface $-1 -1 $-1 -15.875 21.166666666666686 42.333333333333371 1.6819019099084604e-032 1 0 0 0 1 forward_v I I I I #
coedge $-1 -1 $-1 $151 $152 $153 $154 forward $64 $-1 #
model_id-kcp-attrib $-1 -1 $-1 $-1 $67 1 1021519721 1021519721 1219231745 5 #
face $155 -1 $-1 $156 $157 $10 $-1 $158 forward single #
loop $-1 -1 $-1 $-1 $159 $67 #
plane-surface $-1 -1 $-1 -438.14999999999998 84.666666666666657 -359.83333333333331 0 0 -1 0 25.399999999999999 0 forward_v I I I I #
coedge $-1 -1 $-1 $105 $160 $161 $162 forward $68 $-1 #
coedge $-1 -1 $-1 $70 $109 $163 $164 forward $47 $-1 #
coedge $-1 -1 $-1 $160 $105 $70 $103 reversed $68 $-1 #
edge $165 -1 $-1 $166 0 $112 1.6666666666666683 $70 $167 forward @7 unknown #
coedge $-1 -1 $-1 $72 $71 $168 $169 forward $38 $-1 #
coedge $-1 -1 $-1 $102 $100 $71 $106 reversed $68 $-1 #
edge $170 -1 $-1 $112 0 $171 3.3333333333333299 $71 $172 forward @7 unknown #
coedge $-1 -1 $-1 $173 $174 $72 $108 reversed $157 $-1 #
edge $175 -1 $-1 $176 0 $111 3.3333333333333299 $72 $177 forward @7 unknown #
coedge $-1 -1 $-1 $101 $73 $174 $178 reversed $47 $-1 #
attrib_edge_convexity-kcp-attrib $-1 -1 $179 $-1 $74 1 #
vertex $-1 -1 $-1 $108 $180 #
vertex $-1 -1 $-1 $106 $181 #
straight-curve $-1 -1 $-1 -395.81666666666661 127 -275.16666666666663 0 -25.399999999999999 0 I I #
face $-1 -1 $-1 $182 $183 $28 $-1 $184 forward single #
loop $-1 -1 $-1 $-1 $185 $75 #
plane-surface $-1 -1 $-1 26.458333333333371 21.166666666666686 52.916666666666686 0 0 1 1 0 0 forward_v I I I I #
coedge $-1 -1 $-1 $186 $187 $188 $189 reversed $76 $-1 #
coedge $-1 -1 $-1 $188 $78 $185 $190 forward $51 $-1 #
coedge $-1 -1 $-1 $78 $188 $191 $192 forward $51 $-1 #
coedge $-1 -1 $-1 $193 $194 $78 $121 reversed $195 $-1 #
edge $-1 -1 $-1 $196 -79.375000000000028 $197 26.458333333333286 $120 $198 forward @7 unknown #
model_id-kcp-attrib $-1 -1 $-1 $-1 $80 1 1021519721 1021519721 1219231746 5 #
face $199 -1 $-1 $200 $201 $29 $-1 $202 reversed single #
loop $-1 -1 $-1 $-1 $203 $80 #
plane-surface $-1 -1 $-1 0 -31.749999999999993 0 0 1 0 0 0 1 forward_v I I I I #
coedge $-1 -1 $-1 $204 $205 $206 $207 forward $81 $-1 #
coedge $-1 -1 $-1 $208 $83 $209 $210 forward $55 $-1 #
coedge $-1 -1 $-1 $83 $208 $211 $212 forward $55 $-1 #
coedge $-1 -1 $-1 $213 $214 $83 $130 reversed $215 $-1 #
edge $-1 -1 $-1 $216 -31.749999999999993 $217 31.749999999999993 $129 $218 forward @7 unknown #
face $-1 -1 $-1 $219 $220 $31 $-1 $221 forward single #
loop $-1 -1 $-1 $-1 $222 $84 #
plane-surface $-1 -1 $-1 26.458333333333371 -21.166666666666657 52.916666666666686 1 0 0 0 0 -1 forward_v I I I I #
coedge $-1 -1 $-1 $223 $224 $136 $225 reversed $85 $-1 #
coedge $-1 -1 $-1 $226 $87 $227 $228 forward $58 $-1 #
coedge $-1 -1 $-1 $87 $226 $134 $225 forward $58 $-1 #
coedge $-1 -1 $-1 $229 $230 $87 $138 reversed $231 $-1 #
edge $-1 -1 $-1 $232 -79.374999999999943 $233 26.458333333333371 $137 $234 forward @7 unknown #
face $-1 -1 $-1 $235 $236 $33 $-1 $237 forward single #
loop $-1 -1 $-1 $-1 $238 $88 #
plane-surface $-1 -1 $-1 -15.875 21.166666666666686 -42.333333333333314 -1 0 0 0 0 1 forward_v I I I I #
coedge $-1 -1 $-1 $239 $240 $241 $242 forward $89 $-1 #
coedge $-1 -1 $-1 $243 $91 $240 $244 reversed $61 $-1 #
coedge $-1 -1 $-1 $91 $243 $245 $246 forward $61 $-1 #
coedge $-1 -1 $-1 $247 $241 $91 $146 reversed $248 $-1 #
edge $-1 -1 $-1 $249 -21.166666666666664 $250 21.166666666666679 $91 $251 forward @7 unknown #
face $-1 -1 $-1 $252 $253 $35 $-1 $254 forward single #
loop $-1 -1 $-1 $-1 $255 $92 #
plane-surface $-1 -1 $-1 26.458333333333371 21.166666666666686 42.333333333333314 1 0 0 0 0 -1 forward_v I I I I #
coedge $-1 -1 $-1 $256 $257 $258 $259 forward $93 $-1 #
coedge $-1 -1 $-1 $260 $95 $257 $261 reversed $64 $-1 #
coedge $-1 -1 $-1 $95 $260 $262 $263 forward $64 $-1 #
coedge $-1 -1 $-1 $264 $258 $95 $154 reversed $265 $-1 #
edge $-1 -1 $-1 $266 31.750000000000007 $267 74.083333333333343 $95 $268 forward @7 unknown #
model_id-kcp-attrib $-1 -1 $-1 $-1 $97 1 1021519721 1021519721 1219231745 6 #
face $269 -1 $-1 $270 $271 $10 $-1 $272 reversed single #
loop $-1 -1 $-1 $-1 $174 $97 #
plane-surface $-1 -1 $-1 -438.14999999999998 127 -359.83333333333331 0 1 0 0 0 25.399999999999999 forward_v I I I I #
coedge $-1 -1 $-1 $168 $273 $173 $274 forward $98 $-1 #
coedge $-1 -1 $-1 $100 $102 $275 $276 forward $68 $-1 #
coedge $-1 -1 $-1 $273 $168 $100 $162 reversed $98 $-1 #
edge $277 -1 $-1 $278 0 $171 1.6666666666666683 $100 $279 forward @7 unknown #
coedge $-1 -1 $-1 $280 $275 $101 $164 reversed $281 $-1 #
edge $282 -1 $-1 $283 0 $166 1.6666666666666665 $101 $284 forward @7 unknown #
attrib_edge_convexity-kcp-attrib $-1 -1 $285 $-1 $103 1 #
vertex $-1 -1 $-1 $164 $286 #
straight-curve $-1 -1 $-1 -438.14999999999998 84.666666666666657 -275.16666666666663 25.399999999999999 0 0 I I #
coedge $-1 -1 $-1 $161 $159 $104 $169 reversed $98 $-1 #
edge $287 -1 $-1 $171 0 $176 1.6666666666666672 $104 $288 forward @7 unknown #
attrib_edge_convexity-kcp-attrib $-1 -1 $289 $-1 $106 1 #
vertex $-1 -1 $-1 $169 $290 #
straight-curve $-1 -1 $-1 -395.81666666666661 84.666666666666657 -275.16666666666669 0 0 -25.399999999999999 I I #
coedge $-1 -1 $-1 $291 $107 $159 $274 reversed $157 $-1 #
coedge $-1 -1 $-1 $107 $291 $109 $178 forward $157 $-1 #
attrib_edge_convexity-kcp-attrib $-1 -1 $292 $-1 $108 1 #
vertex $-1 -1 $-1 $108 $293 #
straight-curve $-1 -1 $-1 -395.81666666666661 127 -359.83333333333326 0 0 25.399999999999999 I I #
edge $294 -1 $-1 $283 0 $111 1.6666666666666683 $174 $295 forward @7 unknown #
convexity-sys-attrib $-1 -1 $-1 $110 $74 #
point $-1 -1 $-1 -395.81666666666661 127 -275.16666666666669 #
point $-1 -1 $-1 -395.81666666666661 84.666666666666657 -275.16666666666669 #
face $-1 -1 $-1 $296 $195 $28 $-1 $297 forward single #
loop $-1 -1 $-1 $-1 $191 $114 #
plane-surface $-1 -1 $-1 -15.875 21.166666666666686 -52.916666666666629 0 0 -1 -1 0 0 forward_v I I I I #
coedge $-1 -1 $-1 $298 $299 $118 $190 reversed $115 $-1 #
coedge $-1 -1 $-1 $300 $117 $299 $301 reversed $76 $-1 #
coedge $-1 -1 $-1 $117 $300 $302 $303 forward $76 $-1 #
coedge $-1 -1 $-1 $119 $118 $117 $189 forward $51 $-1 #
edge $-1 -1 $-1 $304 -79.375000000000028 $305 26.458333333333343 $117 $306 forward @7 unknown #
edge $-1 -1 $-1 $197 -29.104166666666686 $304 13.229166666666686 $185 $307 forward @7 unknown #
coedge $-1 -1 $-1 $302 $308 $119 $192 reversed $183 $-1 #
edge $-1 -1 $-1 $305 -34.395833333333371 $196 7.9375 $191 $309 forward @7 unknown #
coedge $-1 -1 $-1 $310 $120 $308 $311 reversed $195 $-1 #
coedge $-1 -1 $-1 $120 $310 $298 $312 forward $195 $-1 #
loop $-1 -1 $-1 $-1 $120 $182 #
vertex $-1 -1 $-1 $121 $313 #
vertex $-1 -1 $-1 $121 $314 #
straight-curve $-1 -1 $-1 -15.875 31.749999999999993 26.458333333333343 0 0 1 I I #
model_id-kcp-attrib $-1 -1 $-1 $-1 $123 1 1021519721 1021519721 1219231746 7 #
face $315 -1 $-1 $316 $317 $29 $-1 $318 reversed single #
loop $-1 -1 $-1 $-1 $319 $123 #
plane-surface $-1 -1 $-1 -26.458333333333371 0 0 1 0 0 0 0 -1 forward_v I I I I #
coedge $-1 -1 $-1 $320 $211 $321 $322 forward $124 $-1 #
coedge $-1 -1 $-1 $323 $126 $320 $324 forward $81 $-1 #
coedge $-1 -1 $-1 $126 $323 $325 $326 forward $81 $-1 #
coedge $-1 -1 $-1 $214 $213 $126 $207 reversed $215 $-1 #
edge $-1 -1 $-1 $327 -31.749999999999993 $328 31.749999999999993 $206 $329 forward @7 unknown #
coedge $-1 -1 $-1 $128 $127 $330 $331 forward $55 $-1 #
coedge $-1 -1 $-1 $332 $333 $127 $210 reversed $317 $-1 #
edge $-1 -1 $-1 $217 -26.458333333333371 $334 26.458333333333371 $209 $335 forward @7 unknown #
coedge $-1 -1 $-1 $203 $336 $128 $212 reversed $124 $-1 #
edge $-1 -1 $-1 $337 -26.458333333333371 $216 26.458333333333371 $211 $338 forward @7 unknown #
coedge $-1 -1 $-1 $206 $129 $336 $339 forward $215 $-1 #
coedge $-1 -1 $-1 $129 $206 $332 $340 reversed $215 $-1 #
loop $-1 -1 $-1 $-1 $213 $316 #
vertex $-1 -1 $-1 $130 $341 #
vertex $-1 -1 $-1 $130 $342 #
straight-curve $-1 -1 $-1 26.458333333333371 0 52.916666666666686 0 1 0 I I #
face $-1 -1 $-1 $343 $231 $31 $-1 $344 forward single #
loop $-1 -1 $-1 $-1 $227 $131 #
plane-surface $-1 -1 $-1 26.458333333333371 -21.166666666666657 -52.916666666666686 0 0 -1 -1 0 0 forward_v I I I I #
coedge $-1 -1 $-1 $345 $346 $226 $347 reversed $132 $-1 #
coedge $-1 -1 $-1 $348 $134 $346 $349 reversed $85 $-1 #
coedge $-1 -1 $-1 $134 $348 $229 $350 forward $85 $-1 #
edge $-1 -1 $-1 $351 -34.395833333333371 $232 7.9375 $134 $352 forward @7 unknown #
coedge $-1 -1 $-1 $136 $135 $222 $347 forward $58 $-1 #
coedge $-1 -1 $-1 $353 $354 $135 $228 reversed $220 $-1 #
edge $-1 -1 $-1 $233 -29.104166666666686 $355 13.229166666666686 $227 $356 forward @7 unknown #
coedge $-1 -1 $-1 $357 $137 $224 $350 reversed $231 $-1 #
coedge $-1 -1 $-1 $137 $357 $353 $358 forward $231 $-1 #
loop $-1 -1 $-1 $-1 $137 $219 #
vertex $-1 -1 $-1 $138 $359 #
vertex $-1 -1 $-1 $228 $360 #
straight-curve $-1 -1 $-1 -15.875 -31.749999999999993 -26.458333333333314 0 0 -1 I I #
face $-1 -1 $-1 $361 $248 $33 $-1 $362 reversed single #
loop $-1 -1 $-1 $-1 $363 $139 #
plane-surface $-1 -1 $-1 -15.875 -21.166666666666657 -42.333333333333258 -1.6819019099084598e-032 -1 0 0 0 -1 forward_v I I I I #
coedge $-1 -1 $-1 $364 $365 $366 $367 forward $140 $-1 #
coedge $-1 -1 $-1 $368 $142 $365 $369 reversed $89 $-1 #
coedge $-1 -1 $-1 $142 $368 $143 $244 forward $89 $-1 #
coedge $-1 -1 $-1 $145 $366 $142 $242 reversed $248 $-1 #
edge $-1 -1 $-1 $250 -21.166666666666686 $370 21.166666666666686 $142 $371 forward @7 unknown #
coedge $-1 -1 $-1 $144 $143 $372 $373 reversed $61 $-1 #
edge $-1 -1 $-1 $374 0 $250 10.583333333333314 $240 $375 forward @7 unknown #
coedge $-1 -1 $-1 $376 $363 $144 $246 reversed $236 $-1 #
edge $-1 -1 $-1 $377 0 $249 10.583333333333314 $144 $378 forward @7 unknown #
coedge $-1 -1 $-1 $366 $145 $363 $379 reversed $248 $-1 #
loop $-1 -1 $-1 $-1 $145 $235 #
vertex $-1 -1 $-1 $246 $380 #
vertex $-1 -1 $-1 $244 $381 #
straight-curve $-1 -1 $-1 26.458333333333371 7.1054273576010019e-015 -52.916666666666657 0 1 0 I I #
face $-1 -1 $-1 $382 $265 $35 $-1 $383 forward single #
loop $-1 -1 $-1 $-1 $384 $147 #
plane-surface $-1 -1 $-1 26.458333333333371 -21.166666666666657 42.333333333333314 -1.6819019099084598e-032 -1 0 0 0 -1 forward_v I I I I #
coedge $-1 -1 $-1 $385 $386 $387 $388 forward $148 $-1 #
coedge $-1 -1 $-1 $389 $150 $386 $390 reversed $93 $-1 #
coedge $-1 -1 $-1 $150 $389 $151 $261 forward $93 $-1 #
coedge $-1 -1 $-1 $153 $387 $150 $259 reversed $265 $-1 #
edge $-1 -1 $-1 $267 -21.166666666666686 $391 21.166666666666686 $150 $392 forward @7 unknown #
coedge $-1 -1 $-1 $152 $151 $393 $394 reversed $64 $-1 #
edge $-1 -1 $-1 $395 0 $267 10.583333333333314 $257 $396 forward @7 unknown #
coedge $-1 -1 $-1 $397 $384 $152 $263 reversed $253 $-1 #
edge $-1 -1 $-1 $398 0 $266 10.583333333333314 $152 $399 forward @7 unknown #
coedge $-1 -1 $-1 $387 $153 $384 $400 reversed $265 $-1 #
loop $-1 -1 $-1 $-1 $153 $252 #
vertex $-1 -1 $-1 $263 $401 #
vertex $-1 -1 $-1 $261 $402 #
straight-curve $-1 -1 $-1 -15.875 -52.91666666666665 52.916666666666686 0 1 0 I I #
model_id-kcp-attrib $-1 -1 $-1 $-1 $156 1 1021519721 1021519721 1219231745 7 #
face $403 -1 $-1 $404 $405 $10 $-1 $406 forward single #
loop $-1 -1 $-1 $281 $407 $156 #
plane-surface $-1 -1 $-1 -438.14999999999998 0 -444.5 -1 0 0 0 0 -25.399999999999999 forward_v I I I I #
coedge $-1 -1 $-1 $159 $161 $408 $409 forward $98 $-1 #
edge $410 -1 $-1 $411 0 $176 1.6666666666666683 $173 $412 forward @7 unknown #
coedge $-1 -1 $-1 $163 $408 $160 $276 reversed $281 $-1 #
edge $413 -1 $-1 $166 0 $278 3.3333333333333321 $160 $414 forward @7 unknown #
attrib_edge_convexity-kcp-attrib $-1 -1 $415 $-1 $162 1 #
vertex $-1 -1 $-1 $276 $416 #
straight-curve $-1 -1 $-1 -438.14999999999998 84.666666666666657 -359.83333333333331 25.399999999999999 0 0 I I #
coedge $-1 -1 $-1 $408 $163 $291 $417 reversed $281 $-1 #
loop $-1 -1 $-1 $-1 $408 $156 #
attrib_edge_convexity-kcp-attrib $-1 -1 $418 $-1 $164 2 #
vertex $-1 -1 $-1 $417 $419 #
straight-curve $-1 -1 $-1 -438.14999999999998 127 -275.16666666666663 0 -25.399999999999999 0 I I #
convexity-sys-attrib $-1 -1 $-1 $165 $103 #
point $-1 -1 $-1 -438.14999999999998 84.666666666666671 -275.16666666666663 #
attrib_edge_convexity-kcp-attrib $-1 -1 $420 $-1 $169 1 #
straight-curve $-1 -1 $-1 -395.81666666666661 84.666666666666657 -359.83333333333331 0 25.399999999999999 0 I I #
convexity-sys-attrib $-1 -1 $-1 $170 $106 #
point $-1 -1 $-1 -395.81666666666661 84.666666666666657 -359.83333333333326 #
coedge $-1 -1 $-1 $174 $173 $280 $417 forward $157 $-1 #
convexity-sys-attrib $-1 -1 $-1 $175 $108 #
point $-1 -1 $-1 -395.81666666666661 127 -359.83333333333326 #
attrib_edge_convexity-kcp-attrib $-1 -1 $421 $-1 $178 1 #
straight-curve $-1 -1 $-1 -438.14999999999998 127 -275.16666666666663 25.399999999999999 0 0 I I #
face $-1 -1 $-1 $-1 $422 $28 $-1 $423 reversed single #
plane-surface $-1 -1 $-1 -15.875 21.166666666666686 52.916666666666686 -1 0 0 0 0 1 forward_v I I I I #
coedge $-1 -1 $-1 $424 $185 $194 $312 reversed $115 $-1 #
coedge $-1 -1 $-1 $185 $424 $186 $301 forward $115 $-1 #
coedge $-1 -1 $-1 $187 $186 $425 $426 reversed $76 $-1 #
edge $-1 -1 $-1 $427 0 $304 10.583333333333307 $299 $428 forward @7 unknown #
coedge $-1 -1 $-1 $429 $191 $187 $303 reversed $183 $-1 #
edge $-1 -1 $-1 $430 0 $305 10.583333333333307 $187 $431 forward @7 unknown #
vertex $-1 -1 $-1 $190 $432 #
vertex $-1 -1 $-1 $192 $433 #
straight-curve $-1 -1 $-1 26.458333333333371 31.749999999999993 -26.458333333333343 0 0 -1 I I #
straight-curve $-1 -1 $-1 13.229166666666686 31.749999999999993 52.916666666666686 1 0 0 I I #
coedge $-1 -1 $-1 $191 $429 $193 $311 forward $183 $-1 #
straight-curve $-1 -1 $-1 -7.9375 31.749999999999993 -52.916666666666629 -1 0 0 I I #
coedge $-1 -1 $-1 $194 $193 $434 $435 reversed $195 $-1 #
edge $-1 -1 $-1 $436 0 $196 10.583333333333314 $308 $437 forward @7 unknown #
edge $-1 -1 $-1 $438 0 $197 10.583333333333314 $194 $439 forward @7 unknown #
point $-1 -1 $-1 -15.875 31.75 -52.916666666666686 #
point $-1 -1 $-1 -15.875 31.75 52.916666666666629 #
model_id-kcp-attrib $-1 -1 $-1 $-1 $200 1 1021519721 1021519721 1219231746 3 #
face $440 -1 $-1 $-1 $215 $29 $-1 $441 reversed single #
loop $-1 -1 $-1 $-1 $332 $200 #
plane-surface $-1 -1 $-1 0 31.749999999999993 0 0 -1 0 0 0 -1 forward_v I I I I #
coedge $-1 -1 $-1 $442 $330 $333 $443 forward $201 $-1 #
coedge $-1 -1 $-1 $336 $203 $204 $324 reversed $124 $-1 #
coedge $-1 -1 $-1 $330 $442 $203 $322 reversed $201 $-1 #
edge $-1 -1 $-1 $337 -52.916666666666686 $444 52.916666666666686 $321 $445 forward @7 unknown #
coedge $-1 -1 $-1 $205 $204 $442 $446 forward $81 $-1 #
edge $-1 -1 $-1 $328 -26.458333333333371 $444 26.458333333333371 $320 $447 forward @7 unknown #
coedge $-1 -1 $-1 $333 $332 $205 $326 reversed $317 $-1 #
edge $-1 -1 $-1 $448 -26.458333333333371 $327 26.458333333333371 $325 $449 forward @7 unknown #
vertex $-1 -1 $-1 $207 $450 #
vertex $-1 -1 $-1 $339 $451 #
straight-curve $-1 -1 $-1 26.458333333333371 0 -52.916666666666686 0 -1 0 I I #
coedge $-1 -1 $-1 $319 $321 $208 $331 reversed $201 $-1 #
edge $-1 -1 $-1 $334 -31.749999999999993 $337 31.749999999999993 $330 $452 forward @7 unknown #
coedge $-1 -1 $-1 $325 $209 $214 $340 forward $317 $-1 #
coedge $-1 -1 $-1 $209 $325 $319 $443 reversed $317 $-1 #
vertex $-1 -1 $-1 $210 $453 #
straight-curve $-1 -1 $-1 0 31.749999999999993 52.916666666666686 -1 0 0 I I #
coedge $-1 -1 $-1 $211 $320 $213 $339 reversed $124 $-1 #
vertex $-1 -1 $-1 $331 $454 #
straight-curve $-1 -1 $-1 0 -31.749999999999993 52.916666666666686 1 0 0 I I #
edge $-1 -1 $-1 $216 -52.916666666666686 $328 52.916666666666686 $213 $455 forward @7 unknown #
edge $-1 -1 $-1 $217 -52.916666666666686 $327 52.916666666666686 $214 $456 forward @7 unknown #
point $-1 -1 $-1 26.458333333333371 -31.749999999999993 52.916666666666686 #
point $-1 -1 $-1 26.458333333333371 31.749999999999993 52.916666666666686 #
face $-1 -1 $-1 $-1 $457 $31 $-1 $458 forward single #
plane-surface $-1 -1 $-1 -15.875 -21.166666666666657 -52.916666666666629 -1 0 0 0 0 1 forward_v I I I I #
coedge $-1 -1 $-1 $459 $222 $354 $460 reversed $132 $-1 #
coedge $-1 -1 $-1 $222 $459 $223 $349 forward $132 $-1 #
edge $-1 -1 $-1 $355 -79.375000000000028 $351 26.458333333333343 $222 $461 forward @7 unknown #
coedge $-1 -1 $-1 $224 $223 $462 $463 reversed $85 $-1 #
edge $-1 -1 $-1 $464 0 $351 10.583333333333336 $346 $465 forward @7 unknown #
edge $-1 -1 $-1 $466 0 $232 10.583333333333329 $224 $467 forward @7 unknown #
vertex $-1 -1 $-1 $347 $468 #
straight-curve $-1 -1 $-1 -7.9375 -31.749999999999993 52.916666666666686 -1 0 0 I I #
coedge $-1 -1 $-1 $469 $227 $230 $358 reversed $220 $-1 #
coedge $-1 -1 $-1 $227 $469 $345 $460 forward $220 $-1 #
vertex $-1 -1 $-1 $228 $470 #
straight-curve $-1 -1 $-1 13.229166666666686 -31.749999999999993 -52.916666666666686 1 0 0 I I #
coedge $-1 -1 $-1 $230 $229 $471 $472 reversed $231 $-1 #
edge $-1 -1 $-1 $473 0 $233 10.583333333333329 $230 $474 forward @7 unknown #
point $-1 -1 $-1 -15.875 -31.749999999999986 52.916666666666629 #
point $-1 -1 $-1 -15.875 -31.749999999999986 -52.916666666666686 #
face $-1 -1 $-1 $-1 $475 $33 $-1 $476 forward single #
plane-surface $-1 -1 $-1 5.2916666666666856 1.5099033134902129e-014 -52.916666666666671 -1.0091411459450761e-031 2.5228528648626929e-032 1 1 0 1.0091411459450761e-031 forward_v I I I I #
coedge $-1 -1 $-1 $245 $477 $247 $379 forward $236 $-1 #
coedge $-1 -1 $-1 $478 $238 $477 $479 reversed $140 $-1 #
coedge $-1 -1 $-1 $238 $478 $239 $369 forward $140 $-1 #
coedge $-1 -1 $-1 $241 $247 $238 $367 reversed $248 $-1 #
edge $-1 -1 $-1 $370 -74.083333333333343 $480 -31.749999999999993 $238 $481 forward @7 unknown #
coedge $-1 -1 $-1 $240 $239 $482 $483 reversed $89 $-1 #
edge $-1 -1 $-1 $484 0 $370 10.583333333333314 $365 $485 forward @7 unknown #
vertex $-1 -1 $-1 $369 $486 #
straight-curve $-1 -1 $-1 5.2916666666666856 21.166666666666686 -52.916666666666657 -1 1.6819019099084604e-032 0 I I #
coedge $-1 -1 $-1 $482 $487 $243 $373 forward $475 $-1 #
edge $488 -1 $-1 $377 -21.166666666666664 $374 21.166666666666679 $243 $489 forward @7 unknown #
vertex $-1 -1 $-1 $373 $490 #
straight-curve $-1 -1 $-1 26.458333333333371 21.166666666666686 -42.333333333333258 0 0 -1 I I #
coedge $-1 -1 $-1 $477 $245 $487 $491 reversed $236 $-1 #
vertex $-1 -1 $-1 $491 $492 #
straight-curve $-1 -1 $-1 26.458333333333371 -21.166666666666657 -42.333333333333258 0 0 -1 I I #
edge $-1 -1 $-1 $480 -21.166666666666686 $249 21.166666666666686 $363 $493 forward @7 unknown #
point $-1 -1 $-1 26.458333333333371 -21.166666666666657 -52.916666666666572 #
point $-1 -1 $-1 26.458333333333371 21.166666666666686 -52.916666666666572 #
face $-1 -1 $-1 $-1 $494 $35 $-1 $495 reversed single #
plane-surface $-1 -1 $-1 5.2916666666666874 1.647167251080232e-014 52.916666666666686 2.0182822918901521e-031 3.0274234378352334e-031 1 1 0 -2.0182822918901521e-031 forward_v I I I I #
coedge $-1 -1 $-1 $262 $496 $264 $400 forward $253 $-1 #
coedge $-1 -1 $-1 $497 $255 $496 $498 reversed $148 $-1 #
coedge $-1 -1 $-1 $255 $497 $256 $390 forward $148 $-1 #
coedge $-1 -1 $-1 $258 $264 $255 $388 reversed $265 $-1 #
edge $-1 -1 $-1 $391 -21.166666666666679 $499 21.166666666666664 $255 $500 forward @7 unknown #
coedge $-1 -1 $-1 $257 $256 $501 $502 reversed $93 $-1 #
edge $-1 -1 $-1 $503 0 $391 10.583333333333314 $386 $504 forward @7 unknown #
vertex $-1 -1 $-1 $390 $505 #
straight-curve $-1 -1 $-1 5.2916666666666856 21.166666666666686 52.916666666666686 1 -1.6819019099084604e-032 0 I I #
coedge $-1 -1 $-1 $501 $506 $260 $394 forward $494 $-1 #
edge $507 -1 $-1 $398 31.750000000000007 $395 74.083333333333343 $260 $508 forward @7 unknown #
vertex $-1 -1 $-1 $394 $509 #
straight-curve $-1 -1 $-1 -15.875 21.166666666666686 42.333333333333371 0 0 1 I I #
coedge $-1 -1 $-1 $496 $262 $506 $510 reversed $253 $-1 #
vertex $-1 -1 $-1 $510 $511 #
straight-curve $-1 -1 $-1 -15.875 -21.166666666666643 42.333333333333371 0 0 1 I I #
edge $-1 -1 $-1 $499 -21.166666666666686 $266 21.166666666666686 $384 $512 forward @7 unknown #
point $-1 -1 $-1 -15.875 -21.166666666666643 52.916666666666686 #
point $-1 -1 $-1 -15.875 21.166666666666686 52.916666666666686 #
model_id-kcp-attrib $-1 -1 $-1 $-1 $270 1 1021519721 1021519721 1219231745 8 #
face $513 -1 $-1 $514 $515 $10 $-1 $516 forward single #
loop $-1 -1 $-1 $-1 $517 $270 #
plane-surface $-1 -1 $-1 -438.14999999999998 137.58333333333331 -264.58333333333331 0 1 0 0 0 -25.399999999999999 forward_v I I I I #
coedge $-1 -1 $-1 $518 $519 $520 $521 reversed $271 $-1 #
coedge $-1 -1 $-1 $275 $280 $273 $409 reversed $281 $-1 #
edge $522 -1 $-1 $278 0 $411 1.6666666666666672 $273 $523 forward @7 unknown #
attrib_edge_convexity-kcp-attrib $-1 -1 $524 $-1 $274 1 #
vertex $-1 -1 $-1 $417 $525 #
straight-curve $-1 -1 $-1 -438.14999999999998 127 -359.83333333333331 25.399999999999999 0 0 I I #
attrib_edge_convexity-kcp-attrib $-1 -1 $526 $-1 $276 2 #
straight-curve $-1 -1 $-1 -438.14999999999998 84.666666666666657 -275.16666666666663 0 0 -25.399999999999999 I I #
convexity-sys-attrib $-1 -1 $-1 $277 $162 #
point $-1 -1 $-1 -438.14999999999998 84.666666666666657 -359.83333333333326 #
edge $527 -1 $-1 $411 0 $283 3.3333333333333344 $291 $528 forward @7 unknown #
convexity-sys-attrib $-1 -1 $-1 $282 $164 #
point $-1 -1 $-1 -438.14999999999998 127 -275.16666666666663 #
convexity-sys-attrib $-1 -1 $-1 $287 $169 #
convexity-sys-attrib $-1 -1 $-1 $294 $178 #
loop $-1 -1 $-1 $-1 $434 $296 #
plane-surface $-1 -1 $-1 5.2916666666666883 21.166666666666686 9.7699626167013776e-015 1.6819019099084604e-032 1 1.6146258335121235e-032 0 -1.6146258335121235e-032 1 forward_v I I I I #
coedge $-1 -1 $-1 $299 $298 $529 $530 reversed $115 $-1 #
coedge $-1 -1 $-1 $529 $531 $300 $426 forward $422 $-1 #
edge $532 -1 $-1 $430 -52.916666666666686 $427 52.916666666666686 $300 $533 forward @7 unknown #
vertex $-1 -1 $-1 $426 $534 #
straight-curve $-1 -1 $-1 26.458333333333371 21.166666666666686 52.916666666666686 0 1 0 I I #
coedge $-1 -1 $-1 $308 $302 $531 $535 reversed $183 $-1 #
vertex $-1 -1 $-1 $535 $536 #
straight-curve $-1 -1 $-1 26.458333333333371 21.166666666666686 -52.916666666666686 0 1 0 I I #
point $-1 -1 $-1 26.458333333333371 31.749999999999993 52.916666666666686 #
point $-1 -1 $-1 26.458333333333371 31.749999999999993 -52.916666666666686 #
coedge $-1 -1 $-1 $531 $529 $310 $435 forward $422 $-1 #
edge $537 -1 $-1 $438 -116.41666666666669 $436 -10.583333333333371 $310 $538 forward @7 unknown #
vertex $-1 -1 $-1 $435 $539 #
straight-curve $-1 -1 $-1 -15.875 21.166666666666686 -52.916666666666629 0 1 0 I I #
vertex $-1 -1 $-1 $435 $540 #
straight-curve $-1 -1 $-1 -15.875 21.166666666666686 52.916666666666686 0 1 0 I I #
model_id-kcp-attrib $-1 -1 $-1 $-1 $316 1 1021519721 1021519721 1219231746 2 #
plane-surface $-1 -1 $-1 26.458333333333371 0 0 -1 0 0 0 0 1 forward_v I I I I #
coedge $-1 -1 $-1 $321 $319 $323 $446 reversed $201 $-1 #
edge $-1 -1 $-1 $334 -52.916666666666686 $448 52.916666666666686 $333 $541 forward @7 unknown #
vertex $-1 -1 $-1 $446 $542 #
straight-curve $-1 -1 $-1 -26.458333333333371 -31.749999999999993 0 0 0 -1 I I #
edge $-1 -1 $-1 $444 -31.749999999999993 $448 31.749999999999993 $442 $543 forward @7 unknown #
straight-curve $-1 -1 $-1 0 -31.749999999999993 -52.916666666666686 -1 0 0 I I #
vertex $-1 -1 $-1 $326 $544 #
straight-curve $-1 -1 $-1 0 31.749999999999993 -52.916666666666686 1 0 0 I I #
point $-1 -1 $-1 26.458333333333371 31.749999999999993 -52.916666666666686 #
point $-1 -1 $-1 26.458333333333371 -31.749999999999993 -52.916666666666686 #
straight-curve $-1 -1 $-1 -26.458333333333371 0 52.916666666666686 0 -1 0 I I #
point $-1 -1 $-1 -26.458333333333371 31.749999999999993 52.916666666666686 #
point $-1 -1 $-1 -26.458333333333371 -31.749999999999993 52.916666666666686 #
straight-curve $-1 -1 $-1 26.458333333333371 -31.749999999999993 0 0 0 -1 I I #
straight-curve $-1 -1 $-1 26.458333333333371 31.749999999999993 0 0 0 -1 I I #
loop $-1 -1 $-1 $-1 $471 $343 #
plane-surface $-1 -1 $-1 5.2916666666666883 -21.166666666666657 9.7699626167013776e-015 1.6819019099084598e-032 1 5.3820861117070812e-033 0 -5.3820861117070812e-033 1 forward_v I I I I #
coedge $-1 -1 $-1 $346 $345 $545 $546 reversed $132 $-1 #
edge $-1 -1 $-1 $547 0 $355 10.583333333333336 $354 $548 forward @7 unknown #
straight-curve $-1 -1 $-1 26.458333333333371 -31.749999999999993 26.458333333333343 0 0 1 I I #
coedge $-1 -1 $-1 $545 $471 $348 $463 forward $457 $-1 #
edge $549 -1 $-1 $466 -18.520833333333343 $464 23.812500000000028 $348 $550 forward @7 unknown #
vertex $-1 -1 $-1 $463 $551 #
straight-curve $-1 -1 $-1 26.458333333333371 -21.166666666666657 52.916666666666686 0 -1 0 I I #
vertex $-1 -1 $-1 $472 $552 #
straight-curve $-1 -1 $-1 -15.875 -21.166666666666657 52.916666666666686 0 -1 0 I I #
point $-1 -1 $-1 26.458333333333371 -31.749999999999993 52.916666666666686 #
coedge $-1 -1 $-1 $354 $353 $553 $554 reversed $220 $-1 #
point $-1 -1 $-1 26.458333333333371 -31.749999999999993 -52.916666666666686 #
coedge $-1 -1 $-1 $462 $553 $357 $472 forward $457 $-1 #
edge $555 -1 $-1 $473 10.583333333333371 $466 116.41666666666669 $357 $556 forward @7 unknown #
vertex $-1 -1 $-1 $472 $557 #
straight-curve $-1 -1 $-1 -15.875 -21.166666666666657 -52.916666666666629 0 -1 0 I I #
loop $-1 -1 $-1 $-1 $487 $361 #
plane-surface $-1 -1 $-1 5.2916666666666856 1.5099033134902129e-014 -42.333333333333357 -1.0091411459450761e-031 2.5228528648626929e-032 1 1 0 1.0091411459450761e-031 forward_v I I I I #
coedge $-1 -1 $-1 $363 $376 $364 $479 forward $236 $-1 #
coedge $-1 -1 $-1 $365 $364 $558 $559 reversed $140 $-1 #
edge $-1 -1 $-1 $560 0 $480 10.583333333333314 $477 $561 forward @7 unknown #
vertex $-1 -1 $-1 $479 $562 #
straight-curve $-1 -1 $-1 -15.875 -52.91666666666665 -52.916666666666657 0 -1 0 I I #
coedge $-1 -1 $-1 $558 $372 $368 $483 forward $475 $-1 #
edge $563 -1 $-1 $374 -21.166666666666686 $484 21.166666666666686 $368 $564 forward @7 unknown #
vertex $-1 -1 $-1 $483 $565 #
straight-curve $-1 -1 $-1 -15.875 21.166666666666686 -42.333333333333314 0 0 -1 I I #
point $-1 -1 $-1 -15.875 21.166666666666686 -52.916666666666629 #
coedge $-1 -1 $-1 $372 $558 $376 $491 forward $475 $-1 #
convexity-sys-attrib $-1 -1 $-1 $-1 $373 #
straight-curve $-1 -1 $-1 26.458333333333371 7.1054273576010019e-015 -42.333333333333343 0 1 0 I I #
point $-1 -1 $-1 26.458333333333371 21.166666666666686 -42.333333333333258 #
edge $566 -1 $-1 $560 -21.166666666666686 $377 21.166666666666686 $376 $567 forward @7 unknown #
point $-1 -1 $-1 26.458333333333371 -21.166666666666657 -42.333333333333258 #
straight-curve $-1 -1 $-1 5.2916666666666856 -21.166666666666657 -52.916666666666657 1 -1.6819019099084598e-032 0 I I #
loop $-1 -1 $-1 $-1 $506 $382 #
plane-surface $-1 -1 $-1 5.2916666666666874 1.647167251080232e-014 42.333333333333371 2.0182822918901521e-031 3.0274234378352334e-031 1 1 0 -2.0182822918901521e-031 forward_v I I I I #
coedge $-1 -1 $-1 $384 $397 $385 $498 forward $253 $-1 #
coedge $-1 -1 $-1 $386 $385 $568 $569 reversed $148 $-1 #
edge $-1 -1 $-1 $570 0 $499 10.583333333333314 $496 $571 forward @7 unknown #
vertex $-1 -1 $-1 $498 $572 #
straight-curve $-1 -1 $-1 26.458333333333371 7.1054273576010019e-015 52.916666666666686 0 -1 0 I I #
coedge $-1 -1 $-1 $568 $393 $389 $502 forward $494 $-1 #
edge $573 -1 $-1 $395 -21.166666666666686 $503 21.166666666666686 $389 $574 forward @7 unknown #
vertex $-1 -1 $-1 $502 $575 #
straight-curve $-1 -1 $-1 26.458333333333371 21.166666666666686 42.333333333333314 0 0 1 I I #
point $-1 -1 $-1 26.458333333333371 21.166666666666686 52.916666666666629 #
coedge $-1 -1 $-1 $393 $568 $397 $510 forward $494 $-1 #
convexity-sys-attrib $-1 -1 $-1 $-1 $394 #
straight-curve $-1 -1 $-1 -15.875 -52.91666666666665 42.333333333333371 0 1 0 I I #
point $-1 -1 $-1 -15.875 21.166666666666686 42.333333333333371 #
edge $576 -1 $-1 $570 -21.166666666666686 $398 21.166666666666686 $397 $577 forward @7 unknown #
point $-1 -1 $-1 -15.875 -21.166666666666643 42.333333333333371 #
straight-curve $-1 -1 $-1 5.2916666666666856 -21.166666666666657 52.916666666666686 -1 1.6819019099084598e-032 0 I I #
model_id-kcp-attrib $-1 -1 $-1 $-1 $404 1 1021519721 1021519721 1219231745 9 #
face $578 -1 $-1 $579 $580 $10 $-1 $581 forward single #
loop $-1 -1 $-1 $-1 $582 $404 #
plane-surface $-1 -1 $-1 -438.14999999999998 137.58333333333331 -370.41666666666663 0 0 -1 0 -25.399999999999999 0 forward_v I I I I #
coedge $-1 -1 $-1 $583 $520 $584 $585 forward $405 $-1 #
coedge $-1 -1 $-1 $586 $407 $587 $588 reversed $271 $-1 #
coedge $-1 -1 $-1 $407 $586 $589 $590 reversed $271 $-1 #
coedge $-1 -1 $-1 $517 $591 $407 $521 forward $405 $-1 #
edge $592 -1 $-1 $593 0 $594 4.1666666666666661 $407 $595 forward @7 unknown #
attrib_edge_convexity-kcp-attrib $-1 -1 $596 $-1 $409 2 #
straight-curve $-1 -1 $-1 -438.14999999999998 84.666666666666657 -359.83333333333331 0 25.399999999999999 0 I I #
convexity-sys-attrib $-1 -1 $-1 $410 $274 #
point $-1 -1 $-1 -438.14999999999998 127 -359.83333333333331 #
convexity-sys-attrib $-1 -1 $-1 $413 $276 #
attrib_edge_convexity-kcp-attrib $-1 -1 $597 $-1 $417 2 #
straight-curve $-1 -1 $-1 -438.14999999999998 127 -359.83333333333331 0 0 25.399999999999999 I I #
coedge $-1 -1 $-1 $434 $425 $424 $530 forward $422 $-1 #
edge $598 -1 $-1 $427 -23.812500000000028 $438 18.520833333333343 $424 $599 forward @7 unknown #
coedge $-1 -1 $-1 $425 $434 $429 $535 forward $422 $-1 #
convexity-sys-attrib $-1 -1 $-1 $-1 $426 #
straight-curve $-1 -1 $-1 26.458333333333371 21.166666666666686 0 0 0 1 I I #
point $-1 -1 $-1 26.458333333333371 21.166666666666686 52.916666666666686 #
edge $600 -1 $-1 $436 -18.520833333333343 $430 23.812500000000028 $429 $601 forward @7 unknown #
point $-1 -1 $-1 26.458333333333371 21.166666666666686 -52.916666666666686 #
convexity-sys-attrib $-1 -1 $-1 $-1 $435 #
straight-curve $-1 -1 $-1 -15.875 21.166666666666686 -63.5 0 0 -1 I I #
point $-1 -1 $-1 -15.875 21.166666666666686 -52.916666666666629 #
point $-1 -1 $-1 -15.875 21.166666666666686 52.916666666666686 #
straight-curve $-1 -1 $-1 -26.458333333333371 31.749999999999993 0 0 0 -1 I I #
point $-1 -1 $-1 -26.458333333333371 -31.749999999999993 -52.916666666666686 #
straight-curve $-1 -1 $-1 -26.458333333333371 0 -52.916666666666686 0 1 0 I I #
point $-1 -1 $-1 -26.458333333333371 31.749999999999993 -52.916666666666686 #
coedge $-1 -1 $-1 $553 $462 $459 $546 forward $457 $-1 #
edge $602 -1 $-1 $464 -52.916666666666686 $547 52.916666666666686 $459 $603 forward @7 unknown #
vertex $-1 -1 $-1 $546 $604 #
straight-curve $-1 -1 $-1 26.458333333333371 -21.166666666666657 -52.916666666666686 0 -1 0 I I #
convexity-sys-attrib $-1 -1 $-1 $-1 $463 #
straight-curve $-1 -1 $-1 2.6458333333333428 -21.166666666666657 52.916666666666686 1 0 0 I I #
point $-1 -1 $-1 26.458333333333371 -21.166666666666657 52.916666666666686 #
point $-1 -1 $-1 -15.875 -21.166666666666657 52.916666666666686 #
coedge $-1 -1 $-1 $471 $545 $469 $554 forward $457 $-1 #
edge $605 -1 $-1 $547 -23.812500000000028 $473 18.520833333333343 $469 $606 forward @7 unknown #
convexity-sys-attrib $-1 -1 $-1 $-1 $472 #
straight-curve $-1 -1 $-1 -15.875 -21.166666666666657 -63.5 0 0 1 I I #
point $-1 -1 $-1 -15.875 -21.166666666666657 -52.916666666666629 #
coedge $-1 -1 $-1 $487 $482 $478 $559 forward $475 $-1 #
edge $607 -1 $-1 $484 -74.083333333333343 $560 -31.749999999999993 $478 $608 forward @7 unknown #
vertex $-1 -1 $-1 $491 $609 #
straight-curve $-1 -1 $-1 -15.875 -21.166666666666657 -42.333333333333258 0 0 -1 I I #
point $-1 -1 $-1 -15.875 -21.166666666666657 -52.916666666666572 #
convexity-sys-attrib $-1 -1 $-1 $-1 $483 #
straight-curve $-1 -1 $-1 5.2916666666666856 21.166666666666686 -42.333333333333343 -1 1.6819019099084604e-032 0 I I #
point $-1 -1 $-1 -15.875 21.166666666666686 -42.333333333333314 #
convexity-sys-attrib $-1 -1 $-1 $-1 $491 #
straight-curve $-1 -1 $-1 5.2916666666666856 -21.166666666666657 -42.333333333333343 1 -1.6819019099084598e-032 0 I I #
coedge $-1 -1 $-1 $506 $501 $497 $569 forward $494 $-1 #
edge $610 -1 $-1 $503 -21.166666666666679 $570 21.166666666666664 $497 $611 forward @7 unknown #
vertex $-1 -1 $-1 $510 $612 #
straight-curve $-1 -1 $-1 26.458333333333371 -21.166666666666657 42.333333333333314 0 0 1 I I #
point $-1 -1 $-1 26.458333333333371 -21.166666666666657 52.916666666666629 #
convexity-sys-attrib $-1 -1 $-1 $-1 $502 #
straight-curve $-1 -1 $-1 5.2916666666666856 21.166666666666686 42.333333333333371 1 -1.6819019099084604e-032 0 I I #
point $-1 -1 $-1 26.458333333333371 21.166666666666686 42.333333333333314 #
convexity-sys-attrib $-1 -1 $-1 $-1 $510 #
straight-curve $-1 -1 $-1 5.2916666666666856 -21.166666666666657 42.333333333333371 -1 1.6819019099084598e-032 0 I I #
model_id-kcp-attrib $-1 -1 $-1 $-1 $514 1 1021519721 1021519721 1219231745 10 #
face $613 -1 $-1 $614 $615 $10 $-1 $616 forward single #
loop $-1 -1 $-1 $-1 $617 $514 #
plane-surface $-1 -1 $-1 -438.14999999999998 74.083333333333329 -370.41666666666663 0 -1 0 0 0 25.399999999999999 forward_v I I I I #
coedge $-1 -1 $-1 $618 $589 $619 $620 forward $515 $-1 #
coedge $-1 -1 $-1 $591 $517 $621 $622 reversed $405 $-1 #
coedge $-1 -1 $-1 $589 $618 $517 $585 reversed $515 $-1 #
edge $623 -1 $-1 $594 0 $624 0.41666666666666369 $584 $625 forward @7 unknown #
coedge $-1 -1 $-1 $519 $518 $626 $627 reversed $271 $-1 #
coedge $-1 -1 $-1 $628 $629 $518 $588 forward $615 $-1 #
edge $630 -1 $-1 $631 0 $593 2.4999999999999996 $518 $632 forward @7 unknown #
coedge $-1 -1 $-1 $582 $584 $519 $590 forward $515 $-1 #
edge $633 -1 $-1 $594 0 $634 2.4999999999999996 $519 $635 forward @7 unknown #
coedge $-1 -1 $-1 $520 $583 $628 $636 reversed $405 $-1 #
attrib_edge_convexity-kcp-attrib $-1 -1 $637 $-1 $521 1 #
vertex $-1 -1 $-1 $588 $638 #
vertex $-1 -1 $-1 $590 $639 #
straight-curve $-1 -1 $-1 -438.14999999999998 137.58333333333331 -264.58333333333337 0 0 -25.399999999999999 I I #
convexity-sys-attrib $-1 -1 $-1 $522 $409 #
convexity-sys-attrib $-1 -1 $-1 $527 $417 #
convexity-sys-attrib $-1 -1 $-1 $-1 $530 #
straight-curve $-1 -1 $-1 2.6458333333333428 21.166666666666686 52.916666666666686 -1 0 0 I I #
convexity-sys-attrib $-1 -1 $-1 $-1 $535 #
straight-curve $-1 -1 $-1 2.6458333333333428 21.166666666666686 -52.916666666666686 1 0 0 I I #
convexity-sys-attrib $-1 -1 $-1 $-1 $546 #
straight-curve $-1 -1 $-1 26.458333333333371 -21.166666666666657 0 0 0 -1 I I #
point $-1 -1 $-1 26.458333333333371 -21.166666666666657 -52.916666666666686 #
convexity-sys-attrib $-1 -1 $-1 $-1 $554 #
straight-curve $-1 -1 $-1 2.6458333333333428 -21.166666666666657 -52.916666666666686 -1 0 0 I I #
convexity-sys-attrib $-1 -1 $-1 $-1 $559 #
straight-curve $-1 -1 $-1 -15.875 -52.91666666666665 -42.333333333333343 0 -1 0 I I #
point $-1 -1 $-1 -15.875 -21.166666666666657 -42.333333333333258 #
convexity-sys-attrib $-1 -1 $-1 $-1 $569 #
straight-curve $-1 -1 $-1 26.458333333333371 7.1054273576010019e-015 42.333333333333371 0 -1 0 I I #
point $-1 -1 $-1 26.458333333333371 -21.166666666666657 42.333333333333314 #
model_id-kcp-attrib $-1 -1 $-1 $-1 $579 1 1021519721 1021519721 1219231745 11 #
face $640 -1 $-1 $-1 $641 $10 $-1 $642 forward single #
loop $-1 -1 $-1 $-1 $628 $579 #
plane-surface $-1 -1 $-1 -438.14999999999998 74.083333333333329 -264.58333333333331 0 0 1 0 25.399999999999999 0 forward_v I I I I #
coedge $-1 -1 $-1 $643 $626 $629 $644 forward $580 $-1 #
coedge $-1 -1 $-1 $584 $582 $645 $646 reversed $515 $-1 #
coedge $-1 -1 $-1 $626 $643 $582 $620 reversed $580 $-1 #
edge $647 -1 $-1 $634 0 $648 0.41666666666666369 $582 $649 forward @7 unknown #
coedge $-1 -1 $-1 $645 $650 $583 $622 forward $641 $-1 #
edge $651 -1 $-1 $652 -2.2379298764097643e-015 $624 4.1666666666666661 $621 $653 forward @7 unknown #
attrib_edge_convexity-kcp-attrib $-1 -1 $654 $-1 $585 1 #
vertex $-1 -1 $-1 $646 $655 #
straight-curve $-1 -1 $-1 -438.14999999999998 137.58333333333331 -370.41666666666663 -25.399999999999999 0 0 I I #
coedge $-1 -1 $-1 $617 $619 $586 $627 forward $580 $-1 #
edge $656 -1 $-1 $634 0 $631 4.1666666666666661 $586 $657 forward @7 unknown #
coedge $-1 -1 $-1 $658 $587 $591 $636 forward $615 $-1 #
coedge $-1 -1 $-1 $587 $658 $617 $644 reversed $615 $-1 #
attrib_edge_convexity-kcp-attrib $-1 -1 $659 $-1 $588 1 #
vertex $-1 -1 $-1 $627 $660 #
straight-curve $-1 -1 $-1 -438.14999999999998 74.083333333333329 -264.58333333333331 0 25.399999999999999 0 I I #
attrib_edge_convexity-kcp-attrib $-1 -1 $661 $-1 $590 1 #
vertex $-1 -1 $-1 $590 $662 #
straight-curve $-1 -1 $-1 -438.14999999999998 137.58333333333331 -370.41666666666663 0 -25.399999999999999 0 I I #
edge $663 -1 $-1 $593 0 $652 0.41666666666666818 $628 $664 forward @7 unknown #
convexity-sys-attrib $-1 -1 $-1 $592 $521 #
point $-1 -1 $-1 -438.14999999999998 137.58333333333331 -264.58333333333337 #
point $-1 -1 $-1 -438.14999999999998 137.58333333333331 -370.41666666666669 #
model_id-kcp-attrib $-1 -1 $-1 $-1 $614 1 1021519721 1021519721 1219231745 12 #
loop $-1 -1 $-1 $-1 $665 $614 #
plane-surface $-1 -1 $-1 -448.73333333333323 0 -444.5 -1 0 0 0 0 -25.399999999999999 forward_v I I I I #
coedge $-1 -1 $-1 $619 $617 $665 $666 reversed $580 $-1 #
edge $-1 -1 $-1 $631 0 $667 0.41666666666666818 $617 $668 forward @7 unknown #
coedge $-1 -1 $-1 $665 $621 $618 $646 forward $641 $-1 #
edge $669 -1 $-1 $624 0 $648 2.4999999999999996 $645 $670 forward @7 unknown #
attrib_edge_convexity-kcp-attrib $-1 -1 $671 $-1 $620 1 #
vertex $-1 -1 $-1 $646 $672 #
straight-curve $-1 -1 $-1 -438.14999999999998 74.083333333333329 -370.41666666666663 -25.399999999999999 0 0 I I #
coedge $-1 -1 $-1 $621 $665 $658 $673 forward $641 $-1 #
attrib_edge_convexity-kcp-attrib $-1 -1 $674 $-1 $622 1 #
vertex $-1 -1 $-1 $622 $675 #
straight-curve $-1 -1 $-1 -448.73333333333323 137.58333333333331 -264.58333333333337 0 0 -25.399999999999999 I I #
convexity-sys-attrib $-1 -1 $-1 $623 $585 #
point $-1 -1 $-1 -448.73333333333323 137.58333333333331 -370.41666666666669 #
attrib_edge_convexity-kcp-attrib $-1 -1 $676 $-1 $627 1 #
straight-curve $-1 -1 $-1 -438.14999999999998 74.083333333333329 -370.41666666666669 0 0 25.399999999999999 I I #
coedge $-1 -1 $-1 $629 $628 $650 $673 reversed $615 $-1 #
convexity-sys-attrib $-1 -1 $-1 $630 $588 #
point $-1 -1 $-1 -438.14999999999998 74.083333333333329 -264.58333333333337 #
convexity-sys-attrib $-1 -1 $-1 $633 $590 #
point $-1 -1 $-1 -438.14999999999998 74.083333333333329 -370.41666666666669 #
attrib_edge_convexity-kcp-attrib $-1 -1 $677 $-1 $636 1 #
straight-curve $-1 -1 $-1 -438.14999999999998 137.58333333333331 -264.58333333333331 -25.399999999999999 0 0 I I #
coedge $-1 -1 $-1 $650 $645 $643 $666 forward $641 $-1 #
edge $-1 -1 $-1 $648 0 $667 4.1666666666666687 $665 $678 forward @7 unknown #
vertex $-1 -1 $-1 $673 $679 #
straight-curve $-1 -1 $-1 -438.14999999999998 74.083333333333329 -264.58333333333331 -25.399999999999999 0 0 I I #
attrib_edge_convexity-kcp-attrib $-1 -1 $680 $-1 $646 1 #
straight-curve $-1 -1 $-1 -448.73333333333323 137.58333333333331 -370.41666666666663 0 -25.399999999999999 0 I I #
convexity-sys-attrib $-1 -1 $-1 $647 $620 #
point $-1 -1 $-1 -448.73333333333323 74.083333333333329 -370.41666666666669 #
edge $-1 -1 $-1 $667 0 $652 2.4999999999999996 $650 $681 forward @7 unknown #
convexity-sys-attrib $-1 -1 $-1 $651 $622 #
point $-1 -1 $-1 -448.73333333333335 137.58333333333331 -264.58333333333331 #
convexity-sys-attrib $-1 -1 $-1 $656 $627 #
convexity-sys-attrib $-1 -1 $-1 $663 $636 #
straight-curve $-1 -1 $-1 -448.73333333333323 74.083333333333329 -370.41666666666669 0 0 25.399999999999999 I I #
point $-1 -1 $-1 -448.73333333333335 74.083333333333329 -264.58333333333331 #
convexity-sys-attrib $-1 -1 $-1 $669 $646 #
straight-curve $-1 -1 $-1 -448.73333333333323 74.083333333333329 -264.58333333333331 0 25.399999999999999 0 I I #
End-of-ACIS-data 