700 0 2 0           
24 FBMach with ACIS - 7.0.3 13 ACIS 7.0.3 NT 24 Wed May 15 23:50:49 2002 
1 9.9999999999999995e-007 1e-010 
body $2 -1 $-1 $3 $-1 $4 #
bdycol-kcp $-1 -1 1 5 $5 $6 $7 $8 $9 #
model_id-kcp-attrib $-1 -1 $-1 $-1 $0 1 1021521048 1021521048 -1913520127 1 #
lump $-1 -1 $-1 $-1 $10 $0 #
transform $-1 -1 1 0 0 0 1 0 0 0 1 0 0 0 1 rotate no_reflect no_shear #
body $11 -1 $-1 $12 $-1 $13 #
body $14 -1 $-1 $15 $-1 $16 #
body $17 -1 $-1 $18 $-1 $19 #
body $20 -1 $-1 $21 $-1 $22 #
body $23 -1 $-1 $24 $-1 $25 #
shell $-1 -1 $-1 $-1 $-1 $26 $-1 $3 #
rgb_color-st-attrib $-1 -1 $27 $-1 $5 1 0.5 1 #
lump $-1 -1 $-1 $-1 $28 $5 #
transform $-1 -1 1 0 0 0 1 0 0 0 1 -422.27499999999998 105.83333333333331 -317.5 1 no_rotate no_reflect no_shear #
rgb_color-st-attrib $-1 -1 $29 $-1 $6 1 0.5 1 #
lump $-1 -1 $-1 $-1 $30 $6 #
transform $-1 -1 1 0 0 0 1 0 0 0 1 -422.27499999999998 105.83333333333331 -317.5 1 no_rotate no_reflect no_shear #
rgb_color-st-attrib $-1 -1 $31 $-1 $7 1 0.5 1 #
lump $-1 -1 $-1 $-1 $32 $7 #
transform $-1 -1 1 0 0 0 1 0 0 0 1 -422.27499999999998 105.83333333333331 -317.5 1 no_rotate no_reflect no_shear #
rgb_color-st-attrib $-1 -1 $33 $-1 $8 1 0.5 1 #
lump $-1 -1 $-1 $-1 $34 $8 #
transform $-1 -1 1 0 0 0 1 0 0 0 1 -422.27499999999998 105.83333333333331 -317.5 1 no_rotate no_reflect no_shear #
model_id-kcp-attrib $-1 -1 $-1 $-1 $9 1 1021521048 1021521048 -1912864766 1 #
lump $-1 -1 $-1 $-1 $35 $9 #
transform $-1 -1 1 0 0 0 1 0 0 0 1 -422.27499999999998 105.83333333333331 -317.5 1 no_rotate no_reflect no_shear #
face $36 -1 $-1 $37 $38 $10 $-1 $39 forward single #
model_id-kcp-attrib $-1 -1 $-1 $11 $5 1 1021521048 1021521048 -1926496250 1 #
shell $-1 -1 $-1 $-1 $-1 $40 $-1 $12 #
model_id-kcp-attrib $-1 -1 $-1 $14 $6 1 1021521048 1021521048 -1923481596 1 #
shell $-1 -1 $-1 $-1 $-1 $41 $-1 $15 #
model_id-kcp-attrib $-1 -1 $-1 $17 $7 1 1021521048 1021521048 -1915617275 1 #
shell $-1 -1 $-1 $-1 $-1 $42 $-1 $18 #
model_id-kcp-attrib $-1 -1 $-1 $20 $8 1 1021521048 1021521048 -1915224061 1 #
shell $-1 -1 $-1 $-1 $-1 $43 $-1 $21 #
shell $-1 -1 $-1 $-1 $-1 $44 $-1 $24 #
model_id-kcp-attrib $-1 -1 $-1 $-1 $26 1 1021521048 1021521048 -1913520127 2 #
face $45 -1 $-1 $46 $47 $10 $-1 $48 forward single #
loop $-1 -1 $-1 $-1 $49 $26 #
plane-surface $-1 -1 $-1 -395.81666666666661 0 -444.5 1 0 0 0 0 25.399999999999999 forward_v I I I I #
face $-1 -1 $-1 $50 $51 $28 $-1 $52 forward single #
face $-1 -1 $-1 $53 $54 $30 $-1 $55 reversed single #
face $-1 -1 $-1 $56 $57 $32 $-1 $58 forward single #
face $-1 -1 $-1 $59 $60 $34 $-1 $61 reversed single #
face $62 -1 $-1 $63 $64 $35 $-1 $65 forward single #
model_id-kcp-attrib $-1 -1 $-1 $-1 $37 1 1021521048 1021521048 -1913520127 3 #
face $66 -1 $-1 $67 $68 $10 $-1 $69 forward single #
loop $-1 -1 $-1 $-1 $70 $37 #
plane-surface $-1 -1 $-1 -438.14999999999998 127 -275.16666666666663 0 0 1 0 -25.399999999999999 0 forward_v I I I I #
coedge $-1 -1 $-1 $71 $72 $73 $74 forward $38 $-1 #
face $-1 -1 $-1 $75 $76 $28 $-1 $77 forward single #
loop $-1 -1 $-1 $-1 $78 $40 #
plane-surface $-1 -1 $-1 -15.875 -21.166666666666643 42.333333333333371 -1 0 0 0 0 1 forward_v I I I I #
face $-1 -1 $-1 $79 $80 $30 $-1 $81 forward single #
loop $-1 -1 $-1 $-1 $82 $41 #
plane-surface $-1 -1 $-1 0 -31.749999999999993 0 0 1 0 0 0 1 forward_v I I I I #
face $-1 -1 $-1 $83 $84 $32 $-1 $85 forward single #
loop $-1 -1 $-1 $-1 $86 $42 #
plane-surface $-1 -1 $-1 26.458333333333371 -21.166666666666657 -42.333333333333258 1 0 0 0 0 -1 forward_v I I I I #
face $-1 -1 $-1 $87 $88 $34 $-1 $89 forward single #
loop $-1 -1 $-1 $-1 $90 $43 #
plane-surface $-1 -1 $-1 0 31.749999999999993 0 0 -1 0 0 0 -1 forward_v I I I I #
model_id-kcp-attrib $-1 -1 $-1 $-1 $44 1 1021521048 1021521048 -1912864766 6 #
face $91 -1 $-1 $92 $93 $35 $-1 $94 reversed single #
loop $-1 -1 $-1 $-1 $95 $44 #
plane-surface $-1 -1 $-1 0 0 52.916666666666686 0 0 1 1 0 0 forward_v I I I I #
model_id-kcp-attrib $-1 -1 $-1 $-1 $46 1 1021521048 1021521048 -1913520127 4 #
face $96 -1 $-1 $97 $98 $10 $-1 $99 forward single #
loop $-1 -1 $-1 $-1 $100 $46 #
plane-surface $-1 -1 $-1 -438.14999999999998 84.666666666666657 -275.16666666666663 0 -1 0 0 0 -25.399999999999999 forward_v I I I I #
coedge $-1 -1 $-1 $73 $101 $102 $103 forward $47 $-1 #
coedge $-1 -1 $-1 $104 $49 $105 $106 forward $38 $-1 #
coedge $-1 -1 $-1 $49 $104 $107 $108 forward $38 $-1 #
coedge $-1 -1 $-1 $109 $70 $49 $74 reversed $47 $-1 #
edge $110 -1 $-1 $111 0 $112 1.6666666666666672 $49 $113 forward @7 unknown #
face $-1 -1 $-1 $114 $115 $28 $-1 $116 forward single #
loop $-1 -1 $-1 $-1 $117 $50 #
plane-surface $-1 -1 $-1 -15.875 21.166666666666686 42.333333333333371 1.6819019099084604e-032 1 0 0 0 1 forward_v I I I I #
coedge $-1 -1 $-1 $118 $119 $120 $121 forward $51 $-1 #
face $-1 -1 $-1 $122 $123 $30 $-1 $124 forward single #
loop $-1 -1 $-1 $-1 $125 $53 #
plane-surface $-1 -1 $-1 -15.875 -21.166666666666657 52.916666666666686 0 0 1 1 0 0 forward_v I I I I #
coedge $-1 -1 $-1 $126 $127 $128 $129 forward $54 $-1 #
face $-1 -1 $-1 $130 $131 $32 $-1 $132 forward single #
loop $-1 -1 $-1 $-1 $133 $56 #
plane-surface $-1 -1 $-1 26.458333333333371 21.166666666666686 -42.333333333333258 1.6819019099084604e-032 1 0 0 0 1 forward_v I I I I #
coedge $-1 -1 $-1 $134 $135 $136 $137 forward $57 $-1 #
face $-1 -1 $-1 $138 $139 $34 $-1 $140 forward single #
loop $-1 -1 $-1 $-1 $141 $59 #
plane-surface $-1 -1 $-1 26.458333333333371 21.166666666666686 -52.916666666666686 1 0 0 0 0 -1 forward_v I I I I #
coedge $-1 -1 $-1 $142 $143 $144 $145 forward $60 $-1 #
model_id-kcp-attrib $-1 -1 $-1 $-1 $63 1 1021521048 1021521048 -1912864766 4 #
face $146 -1 $-1 $147 $148 $35 $-1 $149 reversed single #
loop $-1 -1 $-1 $-1 $150 $63 #
plane-surface $-1 -1 $-1 0 0 -52.916666666666686 0 0 1 1 0 0 forward_v I I I I #
coedge $-1 -1 $-1 $151 $152 $153 $154 forward $64 $-1 #
model_id-kcp-attrib $-1 -1 $-1 $-1 $67 1 1021521048 1021521048 -1913520127 5 #
face $155 -1 $-1 $156 $157 $10 $-1 $158 forward single #
loop $-1 -1 $-1 $-1 $159 $67 #
plane-surface $-1 -1 $-1 -438.14999999999998 84.666666666666657 -359.83333333333331 0 0 -1 0 25.399999999999999 0 forward_v I I I I #
coedge $-1 -1 $-1 $105 $160 $161 $162 forward $68 $-1 #
coedge $-1 -1 $-1 $70 $109 $163 $164 forward $47 $-1 #
coedge $-1 -1 $-1 $160 $105 $70 $103 reversed $68 $-1 #
edge $165 -1 $-1 $166 0 $112 1.6666666666666683 $70 $167 forward @7 unknown #
coedge $-1 -1 $-1 $72 $71 $168 $169 forward $38 $-1 #
coedge $-1 -1 $-1 $102 $100 $71 $106 reversed $68 $-1 #
edge $170 -1 $-1 $112 0 $171 3.3333333333333299 $71 $172 forward @7 unknown #
coedge $-1 -1 $-1 $173 $174 $72 $108 reversed $157 $-1 #
edge $175 -1 $-1 $176 0 $111 3.3333333333333299 $72 $177 forward @7 unknown #
coedge $-1 -1 $-1 $101 $73 $174 $178 reversed $47 $-1 #
attrib_edge_convexity-kcp-attrib $-1 -1 $179 $-1 $74 1 #
vertex $-1 -1 $-1 $108 $180 #
vertex $-1 -1 $-1 $106 $181 #
straight-curve $-1 -1 $-1 -395.81666666666661 127 -275.16666666666663 0 -25.399999999999999 0 I I #
face $-1 -1 $-1 $182 $183 $28 $-1 $184 forward single #
loop $-1 -1 $-1 $-1 $185 $75 #
plane-surface $-1 -1 $-1 26.458333333333371 21.166666666666686 42.333333333333314 1 0 0 0 0 -1 forward_v I I I I #
coedge $-1 -1 $-1 $186 $187 $188 $189 forward $76 $-1 #
coedge $-1 -1 $-1 $190 $78 $187 $191 reversed $51 $-1 #
coedge $-1 -1 $-1 $78 $190 $192 $193 forward $51 $-1 #
coedge $-1 -1 $-1 $194 $188 $78 $121 reversed $195 $-1 #
edge $-1 -1 $-1 $196 31.750000000000007 $197 74.083333333333343 $78 $198 forward @7 unknown #
face $-1 -1 $-1 $199 $200 $30 $-1 $201 forward single #
loop $-1 -1 $-1 $-1 $202 $79 #
plane-surface $-1 -1 $-1 26.458333333333371 -21.166666666666657 52.916666666666686 1 0 0 0 0 -1 forward_v I I I I #
coedge $-1 -1 $-1 $203 $204 $127 $205 reversed $80 $-1 #
coedge $-1 -1 $-1 $206 $82 $207 $208 forward $54 $-1 #
coedge $-1 -1 $-1 $82 $206 $125 $205 forward $54 $-1 #
coedge $-1 -1 $-1 $209 $210 $82 $129 reversed $211 $-1 #
edge $-1 -1 $-1 $212 -79.374999999999943 $213 26.458333333333371 $128 $214 forward @7 unknown #
face $-1 -1 $-1 $215 $216 $32 $-1 $217 forward single #
loop $-1 -1 $-1 $-1 $218 $83 #
plane-surface $-1 -1 $-1 -15.875 21.166666666666686 -42.333333333333314 -1 0 0 0 0 1 forward_v I I I I #
coedge $-1 -1 $-1 $219 $220 $221 $222 forward $84 $-1 #
coedge $-1 -1 $-1 $223 $86 $220 $224 reversed $57 $-1 #
coedge $-1 -1 $-1 $86 $223 $225 $226 forward $57 $-1 #
coedge $-1 -1 $-1 $227 $221 $86 $137 reversed $228 $-1 #
edge $-1 -1 $-1 $229 -21.166666666666664 $230 21.166666666666679 $86 $231 forward @7 unknown #
face $-1 -1 $-1 $232 $233 $34 $-1 $234 forward single #
loop $-1 -1 $-1 $-1 $235 $87 #
plane-surface $-1 -1 $-1 26.458333333333371 21.166666666666686 52.916666666666686 0 0 1 1 0 0 forward_v I I I I #
coedge $-1 -1 $-1 $236 $237 $238 $239 reversed $88 $-1 #
coedge $-1 -1 $-1 $238 $90 $235 $240 forward $60 $-1 #
coedge $-1 -1 $-1 $90 $238 $241 $242 forward $60 $-1 #
coedge $-1 -1 $-1 $243 $244 $90 $145 reversed $245 $-1 #
edge $-1 -1 $-1 $246 -79.375000000000028 $247 26.458333333333286 $144 $248 forward @7 unknown #
model_id-kcp-attrib $-1 -1 $-1 $-1 $92 1 1021521048 1021521048 -1912864766 5 #
face $249 -1 $-1 $250 $251 $35 $-1 $252 reversed single #
loop $-1 -1 $-1 $-1 $253 $92 #
plane-surface $-1 -1 $-1 0 -31.749999999999993 0 0 1 0 0 0 1 forward_v I I I I #
coedge $-1 -1 $-1 $254 $255 $256 $257 forward $93 $-1 #
coedge $-1 -1 $-1 $258 $95 $259 $260 forward $64 $-1 #
coedge $-1 -1 $-1 $95 $258 $261 $262 forward $64 $-1 #
coedge $-1 -1 $-1 $263 $264 $95 $154 reversed $265 $-1 #
edge $-1 -1 $-1 $266 -31.749999999999993 $267 31.749999999999993 $153 $268 forward @7 unknown #
model_id-kcp-attrib $-1 -1 $-1 $-1 $97 1 1021521048 1021521048 -1913520127 6 #
face $269 -1 $-1 $270 $271 $10 $-1 $272 reversed single #
loop $-1 -1 $-1 $-1 $174 $97 #
plane-surface $-1 -1 $-1 -438.14999999999998 127 -359.83333333333331 0 1 0 0 0 25.399999999999999 forward_v I I I I #
coedge $-1 -1 $-1 $168 $273 $173 $274 forward $98 $-1 #
coedge $-1 -1 $-1 $100 $102 $275 $276 forward $68 $-1 #
coedge $-1 -1 $-1 $273 $168 $100 $162 reversed $98 $-1 #
edge $277 -1 $-1 $278 0 $171 1.6666666666666683 $100 $279 forward @7 unknown #
coedge $-1 -1 $-1 $280 $275 $101 $164 reversed $281 $-1 #
edge $282 -1 $-1 $283 0 $166 1.6666666666666665 $101 $284 forward @7 unknown #
attrib_edge_convexity-kcp-attrib $-1 -1 $285 $-1 $103 1 #
vertex $-1 -1 $-1 $164 $286 #
straight-curve $-1 -1 $-1 -438.14999999999998 84.666666666666657 -275.16666666666663 25.399999999999999 0 0 I I #
coedge $-1 -1 $-1 $161 $159 $104 $169 reversed $98 $-1 #
edge $287 -1 $-1 $171 0 $176 1.6666666666666672 $104 $288 forward @7 unknown #
attrib_edge_convexity-kcp-attrib $-1 -1 $289 $-1 $106 1 #
vertex $-1 -1 $-1 $169 $290 #
straight-curve $-1 -1 $-1 -395.81666666666661 84.666666666666657 -275.16666666666669 0 0 -25.399999999999999 I I #
coedge $-1 -1 $-1 $291 $107 $159 $274 reversed $157 $-1 #
coedge $-1 -1 $-1 $107 $291 $109 $178 forward $157 $-1 #
attrib_edge_convexity-kcp-attrib $-1 -1 $292 $-1 $108 1 #
vertex $-1 -1 $-1 $108 $293 #
straight-curve $-1 -1 $-1 -395.81666666666661 127 -359.83333333333326 0 0 25.399999999999999 I I #
edge $294 -1 $-1 $283 0 $111 1.6666666666666683 $174 $295 forward @7 unknown #
convexity-sys-attrib $-1 -1 $-1 $110 $74 #
point $-1 -1 $-1 -395.81666666666661 127 -275.16666666666669 #
point $-1 -1 $-1 -395.81666666666661 84.666666666666657 -275.16666666666669 #
face $-1 -1 $-1 $296 $195 $28 $-1 $297 forward single #
loop $-1 -1 $-1 $-1 $298 $114 #
plane-surface $-1 -1 $-1 26.458333333333371 -21.166666666666657 42.333333333333314 -1.6819019099084598e-032 -1 0 0 0 -1 forward_v I I I I #
coedge $-1 -1 $-1 $299 $300 $301 $302 forward $115 $-1 #
coedge $-1 -1 $-1 $303 $117 $300 $304 reversed $76 $-1 #
coedge $-1 -1 $-1 $117 $303 $118 $191 forward $76 $-1 #
coedge $-1 -1 $-1 $120 $301 $117 $189 reversed $195 $-1 #
edge $-1 -1 $-1 $197 -21.166666666666686 $305 21.166666666666686 $117 $306 forward @7 unknown #
coedge $-1 -1 $-1 $119 $118 $307 $308 reversed $51 $-1 #
edge $-1 -1 $-1 $309 0 $197 10.583333333333314 $187 $310 forward @7 unknown #
coedge $-1 -1 $-1 $311 $298 $119 $193 reversed $183 $-1 #
edge $-1 -1 $-1 $312 0 $196 10.583333333333314 $119 $313 forward @7 unknown #
coedge $-1 -1 $-1 $301 $120 $298 $314 reversed $195 $-1 #
loop $-1 -1 $-1 $-1 $120 $182 #
vertex $-1 -1 $-1 $193 $315 #
vertex $-1 -1 $-1 $191 $316 #
straight-curve $-1 -1 $-1 -15.875 -52.91666666666665 52.916666666666686 0 1 0 I I #
face $-1 -1 $-1 $317 $211 $30 $-1 $318 forward single #
loop $-1 -1 $-1 $-1 $207 $122 #
plane-surface $-1 -1 $-1 26.458333333333371 -21.166666666666657 -52.916666666666686 0 0 -1 -1 0 0 forward_v I I I I #
coedge $-1 -1 $-1 $319 $320 $206 $321 reversed $123 $-1 #
coedge $-1 -1 $-1 $322 $125 $320 $323 reversed $80 $-1 #
coedge $-1 -1 $-1 $125 $322 $209 $324 forward $80 $-1 #
edge $-1 -1 $-1 $325 -34.395833333333371 $212 7.9375 $125 $326 forward @7 unknown #
coedge $-1 -1 $-1 $127 $126 $202 $321 forward $54 $-1 #
coedge $-1 -1 $-1 $327 $328 $126 $208 reversed $200 $-1 #
edge $-1 -1 $-1 $213 -29.104166666666686 $329 13.229166666666686 $207 $330 forward @7 unknown #
coedge $-1 -1 $-1 $331 $128 $204 $324 reversed $211 $-1 #
coedge $-1 -1 $-1 $128 $331 $327 $332 forward $211 $-1 #
loop $-1 -1 $-1 $-1 $128 $199 #
vertex $-1 -1 $-1 $129 $333 #
vertex $-1 -1 $-1 $208 $334 #
straight-curve $-1 -1 $-1 -15.875 -31.749999999999993 -26.458333333333314 0 0 -1 I I #
face $-1 -1 $-1 $335 $228 $32 $-1 $336 reversed single #
loop $-1 -1 $-1 $-1 $337 $130 #
plane-surface $-1 -1 $-1 -15.875 -21.166666666666657 -42.333333333333258 -1.6819019099084598e-032 -1 0 0 0 -1 forward_v I I I I #
coedge $-1 -1 $-1 $338 $339 $340 $341 forward $131 $-1 #
coedge $-1 -1 $-1 $342 $133 $339 $343 reversed $84 $-1 #
coedge $-1 -1 $-1 $133 $342 $134 $224 forward $84 $-1 #
coedge $-1 -1 $-1 $136 $340 $133 $222 reversed $228 $-1 #
edge $-1 -1 $-1 $230 -21.166666666666686 $344 21.166666666666686 $133 $345 forward @7 unknown #
coedge $-1 -1 $-1 $135 $134 $346 $347 reversed $57 $-1 #
edge $-1 -1 $-1 $348 0 $230 10.583333333333314 $220 $349 forward @7 unknown #
coedge $-1 -1 $-1 $350 $337 $135 $226 reversed $216 $-1 #
edge $-1 -1 $-1 $351 0 $229 10.583333333333314 $135 $352 forward @7 unknown #
coedge $-1 -1 $-1 $340 $136 $337 $353 reversed $228 $-1 #
loop $-1 -1 $-1 $-1 $136 $215 #
vertex $-1 -1 $-1 $226 $354 #
vertex $-1 -1 $-1 $224 $355 #
straight-curve $-1 -1 $-1 26.458333333333371 7.1054273576010019e-015 -52.916666666666657 0 1 0 I I #
face $-1 -1 $-1 $356 $245 $34 $-1 $357 forward single #
loop $-1 -1 $-1 $-1 $241 $138 #
plane-surface $-1 -1 $-1 -15.875 21.166666666666686 -52.916666666666629 0 0 -1 -1 0 0 forward_v I I I I #
coedge $-1 -1 $-1 $358 $359 $142 $240 reversed $139 $-1 #
coedge $-1 -1 $-1 $360 $141 $359 $361 reversed $88 $-1 #
coedge $-1 -1 $-1 $141 $360 $362 $363 forward $88 $-1 #
coedge $-1 -1 $-1 $143 $142 $141 $239 forward $60 $-1 #
edge $-1 -1 $-1 $364 -79.375000000000028 $365 26.458333333333343 $141 $366 forward @7 unknown #
edge $-1 -1 $-1 $247 -29.104166666666686 $364 13.229166666666686 $235 $367 forward @7 unknown #
coedge $-1 -1 $-1 $362 $368 $143 $242 reversed $233 $-1 #
edge $-1 -1 $-1 $365 -34.395833333333371 $246 7.9375 $241 $369 forward @7 unknown #
coedge $-1 -1 $-1 $370 $144 $368 $371 reversed $245 $-1 #
coedge $-1 -1 $-1 $144 $370 $358 $372 forward $245 $-1 #
loop $-1 -1 $-1 $-1 $144 $232 #
vertex $-1 -1 $-1 $145 $373 #
vertex $-1 -1 $-1 $145 $374 #
straight-curve $-1 -1 $-1 -15.875 31.749999999999993 26.458333333333343 0 0 1 I I #
model_id-kcp-attrib $-1 -1 $-1 $-1 $147 1 1021521048 1021521048 -1912864766 7 #
face $375 -1 $-1 $376 $377 $35 $-1 $378 reversed single #
loop $-1 -1 $-1 $-1 $379 $147 #
plane-surface $-1 -1 $-1 -26.458333333333371 0 0 1 0 0 0 0 -1 forward_v I I I I #
coedge $-1 -1 $-1 $380 $261 $381 $382 forward $148 $-1 #
coedge $-1 -1 $-1 $383 $150 $380 $384 forward $93 $-1 #
coedge $-1 -1 $-1 $150 $383 $385 $386 forward $93 $-1 #
coedge $-1 -1 $-1 $264 $263 $150 $257 reversed $265 $-1 #
edge $-1 -1 $-1 $387 -31.749999999999993 $388 31.749999999999993 $256 $389 forward @7 unknown #
coedge $-1 -1 $-1 $152 $151 $390 $391 forward $64 $-1 #
coedge $-1 -1 $-1 $392 $393 $151 $260 reversed $377 $-1 #
edge $-1 -1 $-1 $267 -26.458333333333371 $394 26.458333333333371 $259 $395 forward @7 unknown #
coedge $-1 -1 $-1 $253 $396 $152 $262 reversed $148 $-1 #
edge $-1 -1 $-1 $397 -26.458333333333371 $266 26.458333333333371 $261 $398 forward @7 unknown #
coedge $-1 -1 $-1 $256 $153 $396 $399 forward $265 $-1 #
coedge $-1 -1 $-1 $153 $256 $392 $400 reversed $265 $-1 #
loop $-1 -1 $-1 $-1 $263 $376 #
vertex $-1 -1 $-1 $154 $401 #
vertex $-1 -1 $-1 $154 $402 #
straight-curve $-1 -1 $-1 26.458333333333371 0 52.916666666666686 0 1 0 I I #
model_id-kcp-attrib $-1 -1 $-1 $-1 $156 1 1021521048 1021521048 -1913520127 7 #
face $403 -1 $-1 $404 $405 $10 $-1 $406 forward single #
loop $-1 -1 $-1 $281 $407 $156 #
plane-surface $-1 -1 $-1 -438.14999999999998 0 -444.5 -1 0 0 0 0 -25.399999999999999 forward_v I I I I #
coedge $-1 -1 $-1 $159 $161 $408 $409 forward $98 $-1 #
edge $410 -1 $-1 $411 0 $176 1.6666666666666683 $173 $412 forward @7 unknown #
coedge $-1 -1 $-1 $163 $408 $160 $276 reversed $281 $-1 #
edge $413 -1 $-1 $166 0 $278 3.3333333333333321 $160 $414 forward @7 unknown #
attrib_edge_convexity-kcp-attrib $-1 -1 $415 $-1 $162 1 #
vertex $-1 -1 $-1 $276 $416 #
straight-curve $-1 -1 $-1 -438.14999999999998 84.666666666666657 -359.83333333333331 25.399999999999999 0 0 I I #
coedge $-1 -1 $-1 $408 $163 $291 $417 reversed $281 $-1 #
loop $-1 -1 $-1 $-1 $408 $156 #
attrib_edge_convexity-kcp-attrib $-1 -1 $418 $-1 $164 2 #
vertex $-1 -1 $-1 $417 $419 #
straight-curve $-1 -1 $-1 -438.14999999999998 127 -275.16666666666663 0 -25.399999999999999 0 I I #
convexity-sys-attrib $-1 -1 $-1 $165 $103 #
point $-1 -1 $-1 -438.14999999999998 84.666666666666671 -275.16666666666663 #
attrib_edge_convexity-kcp-attrib $-1 -1 $420 $-1 $169 1 #
straight-curve $-1 -1 $-1 -395.81666666666661 84.666666666666657 -359.83333333333331 0 25.399999999999999 0 I I #
convexity-sys-attrib $-1 -1 $-1 $170 $106 #
point $-1 -1 $-1 -395.81666666666661 84.666666666666657 -359.83333333333326 #
coedge $-1 -1 $-1 $174 $173 $280 $417 forward $157 $-1 #
convexity-sys-attrib $-1 -1 $-1 $175 $108 #
point $-1 -1 $-1 -395.81666666666661 127 -359.83333333333326 #
attrib_edge_convexity-kcp-attrib $-1 -1 $421 $-1 $178 1 #
straight-curve $-1 -1 $-1 -438.14999999999998 127 -275.16666666666663 25.399999999999999 0 0 I I #
face $-1 -1 $-1 $-1 $422 $28 $-1 $423 reversed single #
plane-surface $-1 -1 $-1 5.2916666666666874 1.647167251080232e-014 52.916666666666686 2.0182822918901521e-031 3.0274234378352334e-031 1 1 0 -2.0182822918901521e-031 forward_v I I I I #
coedge $-1 -1 $-1 $192 $424 $194 $314 forward $183 $-1 #
coedge $-1 -1 $-1 $425 $185 $424 $426 reversed $115 $-1 #
coedge $-1 -1 $-1 $185 $425 $186 $304 forward $115 $-1 #
coedge $-1 -1 $-1 $188 $194 $185 $302 reversed $195 $-1 #
edge $-1 -1 $-1 $305 -21.166666666666679 $427 21.166666666666664 $185 $428 forward @7 unknown #
coedge $-1 -1 $-1 $187 $186 $429 $430 reversed $76 $-1 #
edge $-1 -1 $-1 $431 0 $305 10.583333333333314 $300 $432 forward @7 unknown #
vertex $-1 -1 $-1 $304 $433 #
straight-curve $-1 -1 $-1 5.2916666666666856 21.166666666666686 52.916666666666686 1 -1.6819019099084604e-032 0 I I #
coedge $-1 -1 $-1 $429 $434 $190 $308 forward $422 $-1 #
edge $435 -1 $-1 $312 31.750000000000007 $309 74.083333333333343 $190 $436 forward @7 unknown #
vertex $-1 -1 $-1 $308 $437 #
straight-curve $-1 -1 $-1 -15.875 21.166666666666686 42.333333333333371 0 0 1 I I #
coedge $-1 -1 $-1 $424 $192 $434 $438 reversed $183 $-1 #
vertex $-1 -1 $-1 $438 $439 #
straight-curve $-1 -1 $-1 -15.875 -21.166666666666643 42.333333333333371 0 0 1 I I #
edge $-1 -1 $-1 $427 -21.166666666666686 $196 21.166666666666686 $298 $440 forward @7 unknown #
point $-1 -1 $-1 -15.875 -21.166666666666643 52.916666666666686 #
point $-1 -1 $-1 -15.875 21.166666666666686 52.916666666666686 #
face $-1 -1 $-1 $-1 $441 $30 $-1 $442 forward single #
plane-surface $-1 -1 $-1 -15.875 -21.166666666666657 -52.916666666666629 -1 0 0 0 0 1 forward_v I I I I #
coedge $-1 -1 $-1 $443 $202 $328 $444 reversed $123 $-1 #
coedge $-1 -1 $-1 $202 $443 $203 $323 forward $123 $-1 #
edge $-1 -1 $-1 $329 -79.375000000000028 $325 26.458333333333343 $202 $445 forward @7 unknown #
coedge $-1 -1 $-1 $204 $203 $446 $447 reversed $80 $-1 #
edge $-1 -1 $-1 $448 0 $325 10.583333333333336 $320 $449 forward @7 unknown #
edge $-1 -1 $-1 $450 0 $212 10.583333333333329 $204 $451 forward @7 unknown #
vertex $-1 -1 $-1 $321 $452 #
straight-curve $-1 -1 $-1 -7.9375 -31.749999999999993 52.916666666666686 -1 0 0 I I #
coedge $-1 -1 $-1 $453 $207 $210 $332 reversed $200 $-1 #
coedge $-1 -1 $-1 $207 $453 $319 $444 forward $200 $-1 #
vertex $-1 -1 $-1 $208 $454 #
straight-curve $-1 -1 $-1 13.229166666666686 -31.749999999999993 -52.916666666666686 1 0 0 I I #
coedge $-1 -1 $-1 $210 $209 $455 $456 reversed $211 $-1 #
edge $-1 -1 $-1 $457 0 $213 10.583333333333329 $210 $458 forward @7 unknown #
point $-1 -1 $-1 -15.875 -31.749999999999986 52.916666666666629 #
point $-1 -1 $-1 -15.875 -31.749999999999986 -52.916666666666686 #
face $-1 -1 $-1 $-1 $459 $32 $-1 $460 forward single #
plane-surface $-1 -1 $-1 5.2916666666666856 1.5099033134902129e-014 -52.916666666666671 -1.0091411459450761e-031 2.5228528648626929e-032 1 1 0 1.0091411459450761e-031 forward_v I I I I #
coedge $-1 -1 $-1 $225 $461 $227 $353 forward $216 $-1 #
coedge $-1 -1 $-1 $462 $218 $461 $463 reversed $131 $-1 #
coedge $-1 -1 $-1 $218 $462 $219 $343 forward $131 $-1 #
coedge $-1 -1 $-1 $221 $227 $218 $341 reversed $228 $-1 #
edge $-1 -1 $-1 $344 -74.083333333333343 $464 -31.749999999999993 $218 $465 forward @7 unknown #
coedge $-1 -1 $-1 $220 $219 $466 $467 reversed $84 $-1 #
edge $-1 -1 $-1 $468 0 $344 10.583333333333314 $339 $469 forward @7 unknown #
vertex $-1 -1 $-1 $343 $470 #
straight-curve $-1 -1 $-1 5.2916666666666856 21.166666666666686 -52.916666666666657 -1 1.6819019099084604e-032 0 I I #
coedge $-1 -1 $-1 $466 $471 $223 $347 forward $459 $-1 #
edge $472 -1 $-1 $351 -21.166666666666664 $348 21.166666666666679 $223 $473 forward @7 unknown #
vertex $-1 -1 $-1 $347 $474 #
straight-curve $-1 -1 $-1 26.458333333333371 21.166666666666686 -42.333333333333258 0 0 -1 I I #
coedge $-1 -1 $-1 $461 $225 $471 $475 reversed $216 $-1 #
vertex $-1 -1 $-1 $475 $476 #
straight-curve $-1 -1 $-1 26.458333333333371 -21.166666666666657 -42.333333333333258 0 0 -1 I I #
edge $-1 -1 $-1 $464 -21.166666666666686 $229 21.166666666666686 $337 $477 forward @7 unknown #
point $-1 -1 $-1 26.458333333333371 -21.166666666666657 -52.916666666666572 #
point $-1 -1 $-1 26.458333333333371 21.166666666666686 -52.916666666666572 #
face $-1 -1 $-1 $-1 $478 $34 $-1 $479 reversed single #
plane-surface $-1 -1 $-1 -15.875 21.166666666666686 52.916666666666686 -1 0 0 0 0 1 forward_v I I I I #
coedge $-1 -1 $-1 $480 $235 $244 $372 reversed $139 $-1 #
coedge $-1 -1 $-1 $235 $480 $236 $361 forward $139 $-1 #
coedge $-1 -1 $-1 $237 $236 $481 $482 reversed $88 $-1 #
edge $-1 -1 $-1 $483 0 $364 10.583333333333307 $359 $484 forward @7 unknown #
coedge $-1 -1 $-1 $485 $241 $237 $363 reversed $233 $-1 #
edge $-1 -1 $-1 $486 0 $365 10.583333333333307 $237 $487 forward @7 unknown #
vertex $-1 -1 $-1 $240 $488 #
vertex $-1 -1 $-1 $242 $489 #
straight-curve $-1 -1 $-1 26.458333333333371 31.749999999999993 -26.458333333333343 0 0 -1 I I #
straight-curve $-1 -1 $-1 13.229166666666686 31.749999999999993 52.916666666666686 1 0 0 I I #
coedge $-1 -1 $-1 $241 $485 $243 $371 forward $233 $-1 #
straight-curve $-1 -1 $-1 -7.9375 31.749999999999993 -52.916666666666629 -1 0 0 I I #
coedge $-1 -1 $-1 $244 $243 $490 $491 reversed $245 $-1 #
edge $-1 -1 $-1 $492 0 $246 10.583333333333314 $368 $493 forward @7 unknown #
edge $-1 -1 $-1 $494 0 $247 10.583333333333314 $244 $495 forward @7 unknown #
point $-1 -1 $-1 -15.875 31.75 -52.916666666666686 #
point $-1 -1 $-1 -15.875 31.75 52.916666666666629 #
model_id-kcp-attrib $-1 -1 $-1 $-1 $250 1 1021521048 1021521048 -1912864766 3 #
face $496 -1 $-1 $-1 $265 $35 $-1 $497 reversed single #
loop $-1 -1 $-1 $-1 $392 $250 #
plane-surface $-1 -1 $-1 0 31.749999999999993 0 0 -1 0 0 0 -1 forward_v I I I I #
coedge $-1 -1 $-1 $498 $390 $393 $499 forward $251 $-1 #
coedge $-1 -1 $-1 $396 $253 $254 $384 reversed $148 $-1 #
coedge $-1 -1 $-1 $390 $498 $253 $382 reversed $251 $-1 #
edge $-1 -1 $-1 $397 -52.916666666666686 $500 52.916666666666686 $381 $501 forward @7 unknown #
coedge $-1 -1 $-1 $255 $254 $498 $502 forward $93 $-1 #
edge $-1 -1 $-1 $388 -26.458333333333371 $500 26.458333333333371 $380 $503 forward @7 unknown #
coedge $-1 -1 $-1 $393 $392 $255 $386 reversed $377 $-1 #
edge $-1 -1 $-1 $504 -26.458333333333371 $387 26.458333333333371 $385 $505 forward @7 unknown #
vertex $-1 -1 $-1 $257 $506 #
vertex $-1 -1 $-1 $399 $507 #
straight-curve $-1 -1 $-1 26.458333333333371 0 -52.916666666666686 0 -1 0 I I #
coedge $-1 -1 $-1 $379 $381 $258 $391 reversed $251 $-1 #
edge $-1 -1 $-1 $394 -31.749999999999993 $397 31.749999999999993 $390 $508 forward @7 unknown #
coedge $-1 -1 $-1 $385 $259 $264 $400 forward $377 $-1 #
coedge $-1 -1 $-1 $259 $385 $379 $499 reversed $377 $-1 #
vertex $-1 -1 $-1 $260 $509 #
straight-curve $-1 -1 $-1 0 31.749999999999993 52.916666666666686 -1 0 0 I I #
coedge $-1 -1 $-1 $261 $380 $263 $399 reversed $148 $-1 #
vertex $-1 -1 $-1 $391 $510 #
straight-curve $-1 -1 $-1 0 -31.749999999999993 52.916666666666686 1 0 0 I I #
edge $-1 -1 $-1 $266 -52.916666666666686 $388 52.916666666666686 $263 $511 forward @7 unknown #
edge $-1 -1 $-1 $267 -52.916666666666686 $387 52.916666666666686 $264 $512 forward @7 unknown #
point $-1 -1 $-1 26.458333333333371 -31.749999999999993 52.916666666666686 #
point $-1 -1 $-1 26.458333333333371 31.749999999999993 52.916666666666686 #
model_id-kcp-attrib $-1 -1 $-1 $-1 $270 1 1021521048 1021521048 -1913520127 8 #
face $513 -1 $-1 $514 $515 $10 $-1 $516 forward single #
loop $-1 -1 $-1 $-1 $517 $270 #
plane-surface $-1 -1 $-1 -438.14999999999998 137.58333333333331 -264.58333333333331 0 1 0 0 0 -25.399999999999999 forward_v I I I I #
coedge $-1 -1 $-1 $518 $519 $520 $521 reversed $271 $-1 #
coedge $-1 -1 $-1 $275 $280 $273 $409 reversed $281 $-1 #
edge $522 -1 $-1 $278 0 $411 1.6666666666666672 $273 $523 forward @7 unknown #
attrib_edge_convexity-kcp-attrib $-1 -1 $524 $-1 $274 1 #
vertex $-1 -1 $-1 $417 $525 #
straight-curve $-1 -1 $-1 -438.14999999999998 127 -359.83333333333331 25.399999999999999 0 0 I I #
attrib_edge_convexity-kcp-attrib $-1 -1 $526 $-1 $276 2 #
straight-curve $-1 -1 $-1 -438.14999999999998 84.666666666666657 -275.16666666666663 0 0 -25.399999999999999 I I #
convexity-sys-attrib $-1 -1 $-1 $277 $162 #
point $-1 -1 $-1 -438.14999999999998 84.666666666666657 -359.83333333333326 #
edge $527 -1 $-1 $411 0 $283 3.3333333333333344 $291 $528 forward @7 unknown #
convexity-sys-attrib $-1 -1 $-1 $282 $164 #
point $-1 -1 $-1 -438.14999999999998 127 -275.16666666666663 #
convexity-sys-attrib $-1 -1 $-1 $287 $169 #
convexity-sys-attrib $-1 -1 $-1 $294 $178 #
loop $-1 -1 $-1 $-1 $434 $296 #
plane-surface $-1 -1 $-1 5.2916666666666874 1.647167251080232e-014 42.333333333333371 2.0182822918901521e-031 3.0274234378352334e-031 1 1 0 -2.0182822918901521e-031 forward_v I I I I #
coedge $-1 -1 $-1 $298 $311 $299 $426 forward $183 $-1 #
coedge $-1 -1 $-1 $300 $299 $529 $530 reversed $115 $-1 #
edge $-1 -1 $-1 $531 0 $427 10.583333333333314 $424 $532 forward @7 unknown #
vertex $-1 -1 $-1 $426 $533 #
straight-curve $-1 -1 $-1 26.458333333333371 7.1054273576010019e-015 52.916666666666686 0 -1 0 I I #
coedge $-1 -1 $-1 $529 $307 $303 $430 forward $422 $-1 #
edge $534 -1 $-1 $309 -21.166666666666686 $431 21.166666666666686 $303 $535 forward @7 unknown #
vertex $-1 -1 $-1 $430 $536 #
straight-curve $-1 -1 $-1 26.458333333333371 21.166666666666686 42.333333333333314 0 0 1 I I #
point $-1 -1 $-1 26.458333333333371 21.166666666666686 52.916666666666629 #
coedge $-1 -1 $-1 $307 $529 $311 $438 forward $422 $-1 #
convexity-sys-attrib $-1 -1 $-1 $-1 $308 #
straight-curve $-1 -1 $-1 -15.875 -52.91666666666665 42.333333333333371 0 1 0 I I #
point $-1 -1 $-1 -15.875 21.166666666666686 42.333333333333371 #
edge $537 -1 $-1 $531 -21.166666666666686 $312 21.166666666666686 $311 $538 forward @7 unknown #
point $-1 -1 $-1 -15.875 -21.166666666666643 42.333333333333371 #
straight-curve $-1 -1 $-1 5.2916666666666856 -21.166666666666657 52.916666666666686 -1 1.6819019099084598e-032 0 I I #
loop $-1 -1 $-1 $-1 $455 $317 #
plane-surface $-1 -1 $-1 5.2916666666666883 -21.166666666666657 9.7699626167013776e-015 1.6819019099084598e-032 1 5.3820861117070812e-033 0 -5.3820861117070812e-033 1 forward_v I I I I #
coedge $-1 -1 $-1 $320 $319 $539 $540 reversed $123 $-1 #
edge $-1 -1 $-1 $541 0 $329 10.583333333333336 $328 $542 forward @7 unknown #
straight-curve $-1 -1 $-1 26.458333333333371 -31.749999999999993 26.458333333333343 0 0 1 I I #
coedge $-1 -1 $-1 $539 $455 $322 $447 forward $441 $-1 #
edge $543 -1 $-1 $450 -18.520833333333343 $448 23.812500000000028 $322 $544 forward @7 unknown #
vertex $-1 -1 $-1 $447 $545 #
straight-curve $-1 -1 $-1 26.458333333333371 -21.166666666666657 52.916666666666686 0 -1 0 I I #
vertex $-1 -1 $-1 $456 $546 #
straight-curve $-1 -1 $-1 -15.875 -21.166666666666657 52.916666666666686 0 -1 0 I I #
point $-1 -1 $-1 26.458333333333371 -31.749999999999993 52.916666666666686 #
coedge $-1 -1 $-1 $328 $327 $547 $548 reversed $200 $-1 #
point $-1 -1 $-1 26.458333333333371 -31.749999999999993 -52.916666666666686 #
coedge $-1 -1 $-1 $446 $547 $331 $456 forward $441 $-1 #
edge $549 -1 $-1 $457 10.583333333333371 $450 116.41666666666669 $331 $550 forward @7 unknown #
vertex $-1 -1 $-1 $456 $551 #
straight-curve $-1 -1 $-1 -15.875 -21.166666666666657 -52.916666666666629 0 -1 0 I I #
loop $-1 -1 $-1 $-1 $471 $335 #
plane-surface $-1 -1 $-1 5.2916666666666856 1.5099033134902129e-014 -42.333333333333357 -1.0091411459450761e-031 2.5228528648626929e-032 1 1 0 1.0091411459450761e-031 forward_v I I I I #
coedge $-1 -1 $-1 $337 $350 $338 $463 forward $216 $-1 #
coedge $-1 -1 $-1 $339 $338 $552 $553 reversed $131 $-1 #
edge $-1 -1 $-1 $554 0 $464 10.583333333333314 $461 $555 forward @7 unknown #
vertex $-1 -1 $-1 $463 $556 #
straight-curve $-1 -1 $-1 -15.875 -52.91666666666665 -52.916666666666657 0 -1 0 I I #
coedge $-1 -1 $-1 $552 $346 $342 $467 forward $459 $-1 #
edge $557 -1 $-1 $348 -21.166666666666686 $468 21.166666666666686 $342 $558 forward @7 unknown #
vertex $-1 -1 $-1 $467 $559 #
straight-curve $-1 -1 $-1 -15.875 21.166666666666686 -42.333333333333314 0 0 -1 I I #
point $-1 -1 $-1 -15.875 21.166666666666686 -52.916666666666629 #
coedge $-1 -1 $-1 $346 $552 $350 $475 forward $459 $-1 #
convexity-sys-attrib $-1 -1 $-1 $-1 $347 #
straight-curve $-1 -1 $-1 26.458333333333371 7.1054273576010019e-015 -42.333333333333343 0 1 0 I I #
point $-1 -1 $-1 26.458333333333371 21.166666666666686 -42.333333333333258 #
edge $560 -1 $-1 $554 -21.166666666666686 $351 21.166666666666686 $350 $561 forward @7 unknown #
point $-1 -1 $-1 26.458333333333371 -21.166666666666657 -42.333333333333258 #
straight-curve $-1 -1 $-1 5.2916666666666856 -21.166666666666657 -52.916666666666657 1 -1.6819019099084598e-032 0 I I #
loop $-1 -1 $-1 $-1 $490 $356 #
plane-surface $-1 -1 $-1 5.2916666666666883 21.166666666666686 9.7699626167013776e-015 1.6819019099084604e-032 1 1.6146258335121235e-032 0 -1.6146258335121235e-032 1 forward_v I I I I #
coedge $-1 -1 $-1 $359 $358 $562 $563 reversed $139 $-1 #
coedge $-1 -1 $-1 $562 $564 $360 $482 forward $478 $-1 #
edge $565 -1 $-1 $486 -52.916666666666686 $483 52.916666666666686 $360 $566 forward @7 unknown #
vertex $-1 -1 $-1 $482 $567 #
straight-curve $-1 -1 $-1 26.458333333333371 21.166666666666686 52.916666666666686 0 1 0 I I #
coedge $-1 -1 $-1 $368 $362 $564 $568 reversed $233 $-1 #
vertex $-1 -1 $-1 $568 $569 #
straight-curve $-1 -1 $-1 26.458333333333371 21.166666666666686 -52.916666666666686 0 1 0 I I #
point $-1 -1 $-1 26.458333333333371 31.749999999999993 52.916666666666686 #
point $-1 -1 $-1 26.458333333333371 31.749999999999993 -52.916666666666686 #
coedge $-1 -1 $-1 $564 $562 $370 $491 forward $478 $-1 #
edge $570 -1 $-1 $494 -116.41666666666669 $492 -10.583333333333371 $370 $571 forward @7 unknown #
vertex $-1 -1 $-1 $491 $572 #
straight-curve $-1 -1 $-1 -15.875 21.166666666666686 -52.916666666666629 0 1 0 I I #
vertex $-1 -1 $-1 $491 $573 #
straight-curve $-1 -1 $-1 -15.875 21.166666666666686 52.916666666666686 0 1 0 I I #
model_id-kcp-attrib $-1 -1 $-1 $-1 $376 1 1021521048 1021521048 -1912864766 2 #
plane-surface $-1 -1 $-1 26.458333333333371 0 0 -1 0 0 0 0 1 forward_v I I I I #
coedge $-1 -1 $-1 $381 $379 $383 $502 reversed $251 $-1 #
edge $-1 -1 $-1 $394 -52.916666666666686 $504 52.916666666666686 $393 $574 forward @7 unknown #
vertex $-1 -1 $-1 $502 $575 #
straight-curve $-1 -1 $-1 -26.458333333333371 -31.749999999999993 0 0 0 -1 I I #
edge $-1 -1 $-1 $500 -31.749999999999993 $504 31.749999999999993 $498 $576 forward @7 unknown #
straight-curve $-1 -1 $-1 0 -31.749999999999993 -52.916666666666686 -1 0 0 I I #
vertex $-1 -1 $-1 $386 $577 #
straight-curve $-1 -1 $-1 0 31.749999999999993 -52.916666666666686 1 0 0 I I #
point $-1 -1 $-1 26.458333333333371 31.749999999999993 -52.916666666666686 #
point $-1 -1 $-1 26.458333333333371 -31.749999999999993 -52.916666666666686 #
straight-curve $-1 -1 $-1 -26.458333333333371 0 52.916666666666686 0 -1 0 I I #
point $-1 -1 $-1 -26.458333333333371 31.749999999999993 52.916666666666686 #
point $-1 -1 $-1 -26.458333333333371 -31.749999999999993 52.916666666666686 #
straight-curve $-1 -1 $-1 26.458333333333371 -31.749999999999993 0 0 0 -1 I I #
straight-curve $-1 -1 $-1 26.458333333333371 31.749999999999993 0 0 0 -1 I I #
model_id-kcp-attrib $-1 -1 $-1 $-1 $404 1 1021521048 1021521048 -1913520127 9 #
face $578 -1 $-1 $579 $580 $10 $-1 $581 forward single #
loop $-1 -1 $-1 $-1 $582 $404 #
plane-surface $-1 -1 $-1 -438.14999999999998 137.58333333333331 -370.41666666666663 0 0 -1 0 -25.399999999999999 0 forward_v I I I I #
coedge $-1 -1 $-1 $583 $520 $584 $585 forward $405 $-1 #
coedge $-1 -1 $-1 $586 $407 $587 $588 reversed $271 $-1 #
coedge $-1 -1 $-1 $407 $586 $589 $590 reversed $271 $-1 #
coedge $-1 -1 $-1 $517 $591 $407 $521 forward $405 $-1 #
edge $592 -1 $-1 $593 0 $594 4.1666666666666661 $407 $595 forward @7 unknown #
attrib_edge_convexity-kcp-attrib $-1 -1 $596 $-1 $409 2 #
straight-curve $-1 -1 $-1 -438.14999999999998 84.666666666666657 -359.83333333333331 0 25.399999999999999 0 I I #
convexity-sys-attrib $-1 -1 $-1 $410 $274 #
point $-1 -1 $-1 -438.14999999999998 127 -359.83333333333331 #
convexity-sys-attrib $-1 -1 $-1 $413 $276 #
attrib_edge_convexity-kcp-attrib $-1 -1 $597 $-1 $417 2 #
straight-curve $-1 -1 $-1 -438.14999999999998 127 -359.83333333333331 0 0 25.399999999999999 I I #
coedge $-1 -1 $-1 $434 $429 $425 $530 forward $422 $-1 #
edge $598 -1 $-1 $431 -21.166666666666679 $531 21.166666666666664 $425 $599 forward @7 unknown #
vertex $-1 -1 $-1 $438 $600 #
straight-curve $-1 -1 $-1 26.458333333333371 -21.166666666666657 42.333333333333314 0 0 1 I I #
point $-1 -1 $-1 26.458333333333371 -21.166666666666657 52.916666666666629 #
convexity-sys-attrib $-1 -1 $-1 $-1 $430 #
straight-curve $-1 -1 $-1 5.2916666666666856 21.166666666666686 42.333333333333371 1 -1.6819019099084604e-032 0 I I #
point $-1 -1 $-1 26.458333333333371 21.166666666666686 42.333333333333314 #
convexity-sys-attrib $-1 -1 $-1 $-1 $438 #
straight-curve $-1 -1 $-1 5.2916666666666856 -21.166666666666657 42.333333333333371 -1 1.6819019099084598e-032 0 I I #
coedge $-1 -1 $-1 $547 $446 $443 $540 forward $441 $-1 #
edge $601 -1 $-1 $448 -52.916666666666686 $541 52.916666666666686 $443 $602 forward @7 unknown #
vertex $-1 -1 $-1 $540 $603 #
straight-curve $-1 -1 $-1 26.458333333333371 -21.166666666666657 -52.916666666666686 0 -1 0 I I #
convexity-sys-attrib $-1 -1 $-1 $-1 $447 #
straight-curve $-1 -1 $-1 2.6458333333333428 -21.166666666666657 52.916666666666686 1 0 0 I I #
point $-1 -1 $-1 26.458333333333371 -21.166666666666657 52.916666666666686 #
point $-1 -1 $-1 -15.875 -21.166666666666657 52.916666666666686 #
coedge $-1 -1 $-1 $455 $539 $453 $548 forward $441 $-1 #
edge $604 -1 $-1 $541 -23.812500000000028 $457 18.520833333333343 $453 $605 forward @7 unknown #
convexity-sys-attrib $-1 -1 $-1 $-1 $456 #
straight-curve $-1 -1 $-1 -15.875 -21.166666666666657 -63.5 0 0 1 I I #
point $-1 -1 $-1 -15.875 -21.166666666666657 -52.916666666666629 #
coedge $-1 -1 $-1 $471 $466 $462 $553 forward $459 $-1 #
edge $606 -1 $-1 $468 -74.083333333333343 $554 -31.749999999999993 $462 $607 forward @7 unknown #
vertex $-1 -1 $-1 $475 $608 #
straight-curve $-1 -1 $-1 -15.875 -21.166666666666657 -42.333333333333258 0 0 -1 I I #
point $-1 -1 $-1 -15.875 -21.166666666666657 -52.916666666666572 #
convexity-sys-attrib $-1 -1 $-1 $-1 $467 #
straight-curve $-1 -1 $-1 5.2916666666666856 21.166666666666686 -42.333333333333343 -1 1.6819019099084604e-032 0 I I #
point $-1 -1 $-1 -15.875 21.166666666666686 -42.333333333333314 #
convexity-sys-attrib $-1 -1 $-1 $-1 $475 #
straight-curve $-1 -1 $-1 5.2916666666666856 -21.166666666666657 -42.333333333333343 1 -1.6819019099084598e-032 0 I I #
coedge $-1 -1 $-1 $490 $481 $480 $563 forward $478 $-1 #
edge $609 -1 $-1 $483 -23.812500000000028 $494 18.520833333333343 $480 $610 forward @7 unknown #
coedge $-1 -1 $-1 $481 $490 $485 $568 forward $478 $-1 #
convexity-sys-attrib $-1 -1 $-1 $-1 $482 #
straight-curve $-1 -1 $-1 26.458333333333371 21.166666666666686 0 0 0 1 I I #
point $-1 -1 $-1 26.458333333333371 21.166666666666686 52.916666666666686 #
edge $611 -1 $-1 $492 -18.520833333333343 $486 23.812500000000028 $485 $612 forward @7 unknown #
point $-1 -1 $-1 26.458333333333371 21.166666666666686 -52.916666666666686 #
convexity-sys-attrib $-1 -1 $-1 $-1 $491 #
straight-curve $-1 -1 $-1 -15.875 21.166666666666686 -63.5 0 0 -1 I I #
point $-1 -1 $-1 -15.875 21.166666666666686 -52.916666666666629 #
point $-1 -1 $-1 -15.875 21.166666666666686 52.916666666666686 #
straight-curve $-1 -1 $-1 -26.458333333333371 31.749999999999993 0 0 0 -1 I I #
point $-1 -1 $-1 -26.458333333333371 -31.749999999999993 -52.916666666666686 #
straight-curve $-1 -1 $-1 -26.458333333333371 0 -52.916666666666686 0 1 0 I I #
point $-1 -1 $-1 -26.458333333333371 31.749999999999993 -52.916666666666686 #
model_id-kcp-attrib $-1 -1 $-1 $-1 $514 1 1021521048 1021521048 -1913520127 10 #
face $613 -1 $-1 $614 $615 $10 $-1 $616 forward single #
loop $-1 -1 $-1 $-1 $617 $514 #
plane-surface $-1 -1 $-1 -438.14999999999998 74.083333333333329 -370.41666666666663 0 -1 0 0 0 25.399999999999999 forward_v I I I I #
coedge $-1 -1 $-1 $618 $589 $619 $620 forward $515 $-1 #
coedge $-1 -1 $-1 $591 $517 $621 $622 reversed $405 $-1 #
coedge $-1 -1 $-1 $589 $618 $517 $585 reversed $515 $-1 #
edge $623 -1 $-1 $594 0 $624 0.41666666666666369 $584 $625 forward @7 unknown #
coedge $-1 -1 $-1 $519 $518 $626 $627 reversed $271 $-1 #
coedge $-1 -1 $-1 $628 $629 $518 $588 forward $615 $-1 #
edge $630 -1 $-1 $631 0 $593 2.4999999999999996 $518 $632 forward @7 unknown #
coedge $-1 -1 $-1 $582 $584 $519 $590 forward $515 $-1 #
edge $633 -1 $-1 $594 0 $634 2.4999999999999996 $519 $635 forward @7 unknown #
coedge $-1 -1 $-1 $520 $583 $628 $636 reversed $405 $-1 #
attrib_edge_convexity-kcp-attrib $-1 -1 $637 $-1 $521 1 #
vertex $-1 -1 $-1 $588 $638 #
vertex $-1 -1 $-1 $590 $639 #
straight-curve $-1 -1 $-1 -438.14999999999998 137.58333333333331 -264.58333333333337 0 0 -25.399999999999999 I I #
convexity-sys-attrib $-1 -1 $-1 $522 $409 #
convexity-sys-attrib $-1 -1 $-1 $527 $417 #
convexity-sys-attrib $-1 -1 $-1 $-1 $530 #
straight-curve $-1 -1 $-1 26.458333333333371 7.1054273576010019e-015 42.333333333333371 0 -1 0 I I #
point $-1 -1 $-1 26.458333333333371 -21.166666666666657 42.333333333333314 #
convexity-sys-attrib $-1 -1 $-1 $-1 $540 #
straight-curve $-1 -1 $-1 26.458333333333371 -21.166666666666657 0 0 0 -1 I I #
point $-1 -1 $-1 26.458333333333371 -21.166666666666657 -52.916666666666686 #
convexity-sys-attrib $-1 -1 $-1 $-1 $548 #
straight-curve $-1 -1 $-1 2.6458333333333428 -21.166666666666657 -52.916666666666686 -1 0 0 I I #
convexity-sys-attrib $-1 -1 $-1 $-1 $553 #
straight-curve $-1 -1 $-1 -15.875 -52.91666666666665 -42.333333333333343 0 -1 0 I I #
point $-1 -1 $-1 -15.875 -21.166666666666657 -42.333333333333258 #
convexity-sys-attrib $-1 -1 $-1 $-1 $563 #
straight-curve $-1 -1 $-1 2.6458333333333428 21.166666666666686 52.916666666666686 -1 0 0 I I #
convexity-sys-attrib $-1 -1 $-1 $-1 $568 #
straight-curve $-1 -1 $-1 2.6458333333333428 21.166666666666686 -52.916666666666686 1 0 0 I I #
model_id-kcp-attrib $-1 -1 $-1 $-1 $579 1 1021521048 1021521048 -1913520127 11 #
face $640 -1 $-1 $-1 $641 $10 $-1 $642 forward single #
loop $-1 -1 $-1 $-1 $628 $579 #
plane-surface $-1 -1 $-1 -438.14999999999998 74.083333333333329 -264.58333333333331 0 0 1 0 25.399999999999999 0 forward_v I I I I #
coedge $-1 -1 $-1 $643 $626 $629 $644 forward $580 $-1 #
coedge $-1 -1 $-1 $584 $582 $645 $646 reversed $515 $-1 #
coedge $-1 -1 $-1 $626 $643 $582 $620 reversed $580 $-1 #
edge $647 -1 $-1 $634 0 $648 0.41666666666666369 $582 $649 forward @7 unknown #
coedge $-1 -1 $-1 $645 $650 $583 $622 forward $641 $-1 #
edge $651 -1 $-1 $652 -2.2379298764097643e-015 $624 4.1666666666666661 $621 $653 forward @7 unknown #
attrib_edge_convexity-kcp-attrib $-1 -1 $654 $-1 $585 1 #
vertex $-1 -1 $-1 $646 $655 #
straight-curve $-1 -1 $-1 -438.14999999999998 137.58333333333331 -370.41666666666663 -25.399999999999999 0 0 I I #
coedge $-1 -1 $-1 $617 $619 $586 $627 forward $580 $-1 #
edge $656 -1 $-1 $634 0 $631 4.1666666666666661 $586 $657 forward @7 unknown #
coedge $-1 -1 $-1 $658 $587 $591 $636 forward $615 $-1 #
coedge $-1 -1 $-1 $587 $658 $617 $644 reversed $615 $-1 #
attrib_edge_convexity-kcp-attrib $-1 -1 $659 $-1 $588 1 #
vertex $-1 -1 $-1 $627 $660 #
straight-curve $-1 -1 $-1 -438.14999999999998 74.083333333333329 -264.58333333333331 0 25.399999999999999 0 I I #
attrib_edge_convexity-kcp-attrib $-1 -1 $661 $-1 $590 1 #
vertex $-1 -1 $-1 $590 $662 #
straight-curve $-1 -1 $-1 -438.14999999999998 137.58333333333331 -370.41666666666663 0 -25.399999999999999 0 I I #
edge $663 -1 $-1 $593 0 $652 0.41666666666666818 $628 $664 forward @7 unknown #
convexity-sys-attrib $-1 -1 $-1 $592 $521 #
point $-1 -1 $-1 -438.14999999999998 137.58333333333331 -264.58333333333337 #
point $-1 -1 $-1 -438.14999999999998 137.58333333333331 -370.41666666666669 #
model_id-kcp-attrib $-1 -1 $-1 $-1 $614 1 1021521048 1021521048 -1913520127 12 #
loop $-1 -1 $-1 $-1 $665 $614 #
plane-surface $-1 -1 $-1 -448.73333333333323 0 -444.5 -1 0 0 0 0 -25.399999999999999 forward_v I I I I #
coedge $-1 -1 $-1 $619 $617 $665 $666 reversed $580 $-1 #
edge $-1 -1 $-1 $631 0 $667 0.41666666666666818 $617 $668 forward @7 unknown #
coedge $-1 -1 $-1 $665 $621 $618 $646 forward $641 $-1 #
edge $669 -1 $-1 $624 0 $648 2.4999999999999996 $645 $670 forward @7 unknown #
attrib_edge_convexity-kcp-attrib $-1 -1 $671 $-1 $620 1 #
vertex $-1 -1 $-1 $646 $672 #
straight-curve $-1 -1 $-1 -438.14999999999998 74.083333333333329 -370.41666666666663 -25.399999999999999 0 0 I I #
coedge $-1 -1 $-1 $621 $665 $658 $673 forward $641 $-1 #
attrib_edge_convexity-kcp-attrib $-1 -1 $674 $-1 $622 1 #
vertex $-1 -1 $-1 $622 $675 #
straight-curve $-1 -1 $-1 -448.73333333333323 137.58333333333331 -264.58333333333337 0 0 -25.399999999999999 I I #
convexity-sys-attrib $-1 -1 $-1 $623 $585 #
point $-1 -1 $-1 -448.73333333333323 137.58333333333331 -370.41666666666669 #
attrib_edge_convexity-kcp-attrib $-1 -1 $676 $-1 $627 1 #
straight-curve $-1 -1 $-1 -438.14999999999998 74.083333333333329 -370.41666666666669 0 0 25.399999999999999 I I #
coedge $-1 -1 $-1 $629 $628 $650 $673 reversed $615 $-1 #
convexity-sys-attrib $-1 -1 $-1 $630 $588 #
point $-1 -1 $-1 -438.14999999999998 74.083333333333329 -264.58333333333337 #
convexity-sys-attrib $-1 -1 $-1 $633 $590 #
point $-1 -1 $-1 -438.14999999999998 74.083333333333329 -370.41666666666669 #
attrib_edge_convexity-kcp-attrib $-1 -1 $677 $-1 $636 1 #
straight-curve $-1 -1 $-1 -438.14999999999998 137.58333333333331 -264.58333333333331 -25.399999999999999 0 0 I I #
coedge $-1 -1 $-1 $650 $645 $643 $666 forward $641 $-1 #
edge $-1 -1 $-1 $648 0 $667 4.1666666666666687 $665 $678 forward @7 unknown #
vertex $-1 -1 $-1 $673 $679 #
straight-curve $-1 -1 $-1 -438.14999999999998 74.083333333333329 -264.58333333333331 -25.399999999999999 0 0 I I #
attrib_edge_convexity-kcp-attrib $-1 -1 $680 $-1 $646 1 #
straight-curve $-1 -1 $-1 -448.73333333333323 137.58333333333331 -370.41666666666663 0 -25.399999999999999 0 I I #
convexity-sys-attrib $-1 -1 $-1 $647 $620 #
point $-1 -1 $-1 -448.73333333333323 74.083333333333329 -370.41666666666669 #
edge $-1 -1 $-1 $667 0 $652 2.4999999999999996 $650 $681 forward @7 unknown #
convexity-sys-attrib $-1 -1 $-1 $651 $622 #
point $-1 -1 $-1 -448.73333333333335 137.58333333333331 -264.58333333333331 #
convexity-sys-attrib $-1 -1 $-1 $656 $627 #
convexity-sys-attrib $-1 -1 $-1 $663 $636 #
straight-curve $-1 -1 $-1 -448.73333333333323 74.083333333333329 -370.41666666666669 0 0 25.399999999999999 I I #
point $-1 -1 $-1 -448.73333333333335 74.083333333333329 -264.58333333333331 #
convexity-sys-attrib $-1 -1 $-1 $669 $646 #
straight-curve $-1 -1 $-1 -448.73333333333323 74.083333333333329 -264.58333333333331 0 25.399999999999999 0 I I #
End-of-ACIS-data 