600 0 1 0           
97 GICL ACIS Healer - Source: /gicl/data5/repository/PTC/V18/cabecad18/ptc_comp/2_port.prt.sat - 6 0 18 ACIS 6.0.3 Solaris 24 Sat Apr 13 22:28:39 2002 
1 9.999999999999999547e-07 1.000000000000000036e-10 
body $-1 $1 $-1 $-1 #
lump $-1 $-1 $2 $0 #
shell $-1 $-1 $-1 $3 $-1 $1 #
face $-1 $4 $5 $2 $-1 $6 forward single #
face $-1 $7 $8 $2 $-1 $9 forward single #
loop $-1 $-1 $10 $3 #
plane-surface $-1 -395.816666666666606 0 -444.5 1 0 0 0 0 25.39999999999999858 forward_v I I I I #
face $-1 $11 $12 $2 $-1 $13 forward single #
loop $-1 $-1 $14 $4 #
plane-surface $-1 -438.1499999999999773 127 -275.1666666666666288 0 0 1 0 -25.39999999999999858 0 forward_v I I I I #
coedge $-1 $15 $16 $17 $18 forward $5 $-1 #
face $-1 $19 $20 $2 $-1 $21 forward single #
loop $-1 $-1 $22 $7 #
plane-surface $-1 -438.1499999999999773 84.66666666666665719 -275.1666666666666288 0 -1 0 0 0 -25.39999999999999858 forward_v I I I I #
coedge $-1 $17 $23 $24 $25 forward $8 $-1 #
coedge $-1 $26 $10 $27 $28 forward $5 $-1 #
coedge $-1 $10 $26 $29 $30 forward $5 $-1 #
coedge $-1 $31 $14 $10 $18 reversed $8 $-1 #
edge $-1 $32 0 $33 1.666666666666667185 $10 $34 forward 7 unknown #
face $-1 $35 $36 $2 $-1 $37 forward single #
loop $-1 $-1 $38 $11 #
plane-surface $-1 -438.1499999999999773 84.66666666666665719 -359.8333333333333144 0 0 -1 0 25.39999999999999858 0 forward_v I I I I #
coedge $-1 $27 $39 $40 $41 forward $12 $-1 #
coedge $-1 $14 $31 $42 $43 forward $8 $-1 #
coedge $-1 $39 $27 $14 $25 reversed $12 $-1 #
edge $-1 $44 0 $33 1.666666666666668295 $14 $45 forward 7 unknown #
coedge $-1 $16 $15 $46 $47 forward $5 $-1 #
coedge $-1 $24 $22 $15 $28 reversed $12 $-1 #
edge $-1 $33 0 $48 3.333333333333329929 $15 $49 forward 7 unknown #
coedge $-1 $50 $51 $16 $30 reversed $36 $-1 #
edge $-1 $52 0 $32 3.333333333333329929 $16 $53 forward 7 unknown #
coedge $-1 $23 $17 $51 $54 reversed $8 $-1 #
vertex $-1 $30 $55 #
vertex $-1 $28 $56 #
straight-curve $-1 -395.816666666666606 127 -275.1666666666666288 0 -25.39999999999999858 0 I I #
face $-1 $57 $58 $2 $-1 $59 reversed single #
loop $-1 $-1 $51 $19 #
plane-surface $-1 -438.1499999999999773 127 -359.8333333333333144 0 1 0 0 0 25.39999999999999858 forward_v I I I I #
coedge $-1 $46 $60 $50 $61 forward $20 $-1 #
coedge $-1 $22 $24 $62 $63 forward $12 $-1 #
coedge $-1 $60 $46 $22 $41 reversed $20 $-1 #
edge $-1 $64 0 $48 1.666666666666668295 $22 $65 forward 7 unknown #
coedge $-1 $66 $62 $23 $43 reversed $67 $-1 #
edge $-1 $68 0 $44 1.666666666666666519 $23 $69 forward 7 unknown #
vertex $-1 $43 $70 #
straight-curve $-1 -438.1499999999999773 84.66666666666665719 -275.1666666666666288 25.39999999999999858 0 0 I I #
coedge $-1 $40 $38 $26 $47 reversed $20 $-1 #
edge $-1 $48 0 $52 1.666666666666667185 $26 $71 forward 7 unknown #
vertex $-1 $47 $72 #
straight-curve $-1 -395.816666666666606 84.66666666666665719 -275.1666666666666856 0 0 -25.39999999999999858 I I #
coedge $-1 $73 $29 $38 $61 reversed $36 $-1 #
coedge $-1 $29 $73 $31 $54 forward $36 $-1 #
vertex $-1 $30 $74 #
straight-curve $-1 -395.816666666666606 127 -359.8333333333332575 0 0 25.39999999999999858 I I #
edge $-1 $68 0 $32 1.666666666666668295 $51 $75 forward 7 unknown #
point $-1 -395.816666666666606 127 -275.1666666666666856 #
point $-1 -395.816666666666606 84.66666666666665719 -275.1666666666666856 #
face $-1 $76 $77 $2 $-1 $78 forward single #
loop $-1 $67 $79 $35 #
plane-surface $-1 -438.1499999999999773 0 -444.5 -1 0 0 0 0 -25.39999999999999858 forward_v I I I I #
coedge $-1 $38 $40 $80 $81 forward $20 $-1 #
edge $-1 $82 0 $52 1.666666666666668295 $50 $83 forward 7 unknown #
coedge $-1 $42 $80 $39 $63 reversed $67 $-1 #
edge $-1 $44 0 $64 3.333333333333332149 $39 $84 forward 7 unknown #
vertex $-1 $63 $85 #
straight-curve $-1 -438.1499999999999773 84.66666666666665719 -359.8333333333333144 25.39999999999999858 0 0 I I #
coedge $-1 $80 $42 $73 $86 reversed $67 $-1 #
loop $-1 $-1 $80 $35 #
vertex $-1 $86 $87 #
straight-curve $-1 -438.1499999999999773 127 -275.1666666666666288 0 -25.39999999999999858 0 I I #
point $-1 -438.1499999999999773 84.6666666666666714 -275.1666666666666288 #
straight-curve $-1 -395.816666666666606 84.66666666666665719 -359.8333333333333144 0 25.39999999999999858 0 I I #
point $-1 -395.816666666666606 84.66666666666665719 -359.8333333333332575 #
coedge $-1 $51 $50 $66 $86 forward $36 $-1 #
point $-1 -395.816666666666606 127 -359.8333333333332575 #
straight-curve $-1 -438.1499999999999773 127 -275.1666666666666288 25.39999999999999858 0 0 I I #
face $-1 $88 $89 $2 $-1 $90 forward single #
loop $-1 $-1 $91 $57 #
plane-surface $-1 -438.1499999999999773 137.5833333333333144 -264.5833333333333144 0 1 0 0 0 -25.39999999999999858 forward_v I I I I #
coedge $-1 $92 $93 $94 $95 reversed $58 $-1 #
coedge $-1 $62 $66 $60 $81 reversed $67 $-1 #
edge $-1 $64 0 $82 1.666666666666667185 $60 $96 forward 7 unknown #
vertex $-1 $86 $97 #
straight-curve $-1 -438.1499999999999773 127 -359.8333333333333144 25.39999999999999858 0 0 I I #
straight-curve $-1 -438.1499999999999773 84.66666666666665719 -275.1666666666666288 0 0 -25.39999999999999858 I I #
point $-1 -438.1499999999999773 84.66666666666665719 -359.8333333333332575 #
edge $-1 $82 0 $68 3.33333333333333437 $73 $98 forward 7 unknown #
point $-1 -438.1499999999999773 127 -275.1666666666666288 #
face $-1 $99 $100 $2 $-1 $101 forward single #
loop $-1 $-1 $102 $76 #
plane-surface $-1 -438.1499999999999773 137.5833333333333144 -370.4166666666666288 0 0 -1 0 -25.39999999999999858 0 forward_v I I I I #
coedge $-1 $103 $94 $104 $105 forward $77 $-1 #
coedge $-1 $106 $79 $107 $108 reversed $58 $-1 #
coedge $-1 $79 $106 $109 $110 reversed $58 $-1 #
coedge $-1 $91 $111 $79 $95 forward $77 $-1 #
edge $-1 $112 0 $113 4.166666666666666075 $79 $114 forward 7 unknown #
straight-curve $-1 -438.1499999999999773 84.66666666666665719 -359.8333333333333144 0 25.39999999999999858 0 I I #
point $-1 -438.1499999999999773 127 -359.8333333333333144 #
straight-curve $-1 -438.1499999999999773 127 -359.8333333333333144 0 0 25.39999999999999858 I I #
face $-1 $115 $116 $2 $-1 $117 forward single #
loop $-1 $-1 $118 $88 #
plane-surface $-1 -438.1499999999999773 74.0833333333333286 -370.4166666666666288 0 -1 0 0 0 25.39999999999999858 forward_v I I I I #
coedge $-1 $119 $109 $120 $121 forward $89 $-1 #
coedge $-1 $111 $91 $122 $123 reversed $77 $-1 #
coedge $-1 $109 $119 $91 $105 reversed $89 $-1 #
edge $-1 $113 0 $124 0.4166666666666636876 $104 $125 forward 7 unknown #
coedge $-1 $93 $92 $126 $127 reversed $58 $-1 #
coedge $-1 $128 $129 $92 $108 forward $116 $-1 #
edge $-1 $130 0 $112 2.499999999999999556 $92 $131 forward 7 unknown #
coedge $-1 $102 $104 $93 $110 forward $89 $-1 #
edge $-1 $113 0 $132 2.499999999999999556 $93 $133 forward 7 unknown #
coedge $-1 $94 $103 $128 $134 reversed $77 $-1 #
vertex $-1 $108 $135 #
vertex $-1 $110 $136 #
straight-curve $-1 -438.1499999999999773 137.5833333333333144 -264.5833333333333712 0 0 -25.39999999999999858 I I #
face $-1 $-1 $137 $2 $-1 $138 forward single #
loop $-1 $-1 $128 $99 #
plane-surface $-1 -438.1499999999999773 74.0833333333333286 -264.5833333333333144 0 0 1 0 25.39999999999999858 0 forward_v I I I I #
coedge $-1 $139 $126 $129 $140 forward $100 $-1 #
coedge $-1 $104 $102 $141 $142 reversed $89 $-1 #
coedge $-1 $126 $139 $102 $121 reversed $100 $-1 #
edge $-1 $132 0 $143 0.4166666666666636876 $102 $144 forward 7 unknown #
coedge $-1 $141 $145 $103 $123 forward $137 $-1 #
edge $-1 $146 -2.237929876409764334e-15 $124 4.166666666666666075 $122 $147 forward 7 unknown #
vertex $-1 $142 $148 #
straight-curve $-1 -438.1499999999999773 137.5833333333333144 -370.4166666666666288 -25.39999999999999858 0 0 I I #
coedge $-1 $118 $120 $106 $127 forward $100 $-1 #
edge $-1 $132 0 $130 4.166666666666666075 $106 $149 forward 7 unknown #
coedge $-1 $150 $107 $111 $134 forward $116 $-1 #
coedge $-1 $107 $150 $118 $140 reversed $116 $-1 #
vertex $-1 $127 $151 #
straight-curve $-1 -438.1499999999999773 74.0833333333333286 -264.5833333333333144 0 25.39999999999999858 0 I I #
vertex $-1 $110 $152 #
straight-curve $-1 -438.1499999999999773 137.5833333333333144 -370.4166666666666288 0 -25.39999999999999858 0 I I #
edge $-1 $112 0 $146 0.416666666666668184 $128 $153 forward 7 unknown #
point $-1 -438.1499999999999773 137.5833333333333144 -264.5833333333333712 #
point $-1 -438.1499999999999773 137.5833333333333144 -370.4166666666666856 #
loop $-1 $-1 $154 $115 #
plane-surface $-1 -448.7333333333332348 0 -444.5 -1 0 0 0 0 -25.39999999999999858 forward_v I I I I #
coedge $-1 $120 $118 $154 $155 reversed $100 $-1 #
edge $-1 $130 0 $156 0.416666666666668184 $118 $157 forward 7 unknown #
coedge $-1 $154 $122 $119 $142 forward $137 $-1 #
edge $-1 $124 0 $143 2.499999999999999556 $141 $158 forward 7 unknown #
vertex $-1 $142 $159 #
straight-curve $-1 -438.1499999999999773 74.0833333333333286 -370.4166666666666288 -25.39999999999999858 0 0 I I #
coedge $-1 $122 $154 $150 $160 forward $137 $-1 #
vertex $-1 $123 $161 #
straight-curve $-1 -448.7333333333332348 137.5833333333333144 -264.5833333333333712 0 0 -25.39999999999999858 I I #
point $-1 -448.7333333333332348 137.5833333333333144 -370.4166666666666856 #
straight-curve $-1 -438.1499999999999773 74.0833333333333286 -370.4166666666666856 0 0 25.39999999999999858 I I #
coedge $-1 $129 $128 $145 $160 reversed $116 $-1 #
point $-1 -438.1499999999999773 74.0833333333333286 -264.5833333333333712 #
point $-1 -438.1499999999999773 74.0833333333333286 -370.4166666666666856 #
straight-curve $-1 -438.1499999999999773 137.5833333333333144 -264.5833333333333144 -25.39999999999999858 0 0 I I #
coedge $-1 $145 $141 $139 $155 forward $137 $-1 #
edge $-1 $143 0 $156 4.166666666666668739 $154 $162 forward 7 unknown #
vertex $-1 $160 $163 #
straight-curve $-1 -438.1499999999999773 74.0833333333333286 -264.5833333333333144 -25.39999999999999858 0 0 I I #
straight-curve $-1 -448.7333333333332348 137.5833333333333144 -370.4166666666666288 0 -25.39999999999999858 0 I I #
point $-1 -448.7333333333332348 74.0833333333333286 -370.4166666666666856 #
edge $-1 $156 0 $146 2.499999999999999556 $145 $164 forward 7 unknown #
point $-1 -448.7333333333333485 137.5833333333333144 -264.5833333333333144 #
straight-curve $-1 -448.7333333333332348 74.0833333333333286 -370.4166666666666856 0 0 25.39999999999999858 I I #
point $-1 -448.7333333333333485 74.0833333333333286 -264.5833333333333144 #
straight-curve $-1 -448.7333333333332348 74.0833333333333286 -264.5833333333333144 0 25.39999999999999858 0 I I #
End-of-ACIS-data 