700 0 2 0           
24 FBMach with ACIS - 7.0.3 13 ACIS 7.0.3 NT 24 Wed May 15 23:50:51 2002 
1 9.9999999999999995e-007 1e-010 
body $2 -1 $-1 $3 $-1 $4 #
bdycol-kcp $-1 -1 1 2 $5 $6 #
model_id-kcp-attrib $-1 -1 $-1 $-1 $0 1 1021521051 1021521051 106954753 1 #
lump $-1 -1 $-1 $-1 $7 $0 #
transform $-1 -1 1 0 0 0 1 0 0 0 1 0 0 0 1 rotate no_reflect no_shear #
body $8 -1 $-1 $9 $-1 $10 #
body $11 -1 $-1 $12 $-1 $13 #
shell $-1 -1 $-1 $-1 $-1 $14 $-1 $3 #
model_id-kcp-attrib $-1 -1 $-1 $-1 $5 1 1021521051 1021521051 106954754 1 #
lump $-1 -1 $-1 $-1 $15 $5 #
transform $-1 -1 1 0 0 0 1 0 0 0 1 30 3.5 -14.75 1 no_rotate no_reflect no_shear #
rgb_color-st-attrib $-1 -1 $16 $-1 $6 0.59999999999999998 0.90000000000000002 1 #
lump $-1 -1 $-1 $-1 $17 $6 #
transform $-1 -1 1 0 0 0 1 0 0 0 1 30 3.5 -14.75 1 no_rotate no_reflect no_shear #
face $18 -1 $-1 $19 $20 $7 $-1 $21 reversed single #
shell $-1 -1 $-1 $-1 $-1 $22 $-1 $9 #
model_id-kcp-attrib $-1 -1 $-1 $11 $6 1 1021521051 1021521051 110493699 1 #
shell $-1 -1 $-1 $-1 $-1 $23 $-1 $12 #
model_id-kcp-attrib $-1 -1 $-1 $-1 $14 1 1021521051 1021521051 106954753 2 #
face $24 -1 $-1 $25 $26 $7 $-1 $27 forward single #
loop $-1 -1 $-1 $-1 $28 $14 #
plane-surface $-1 -1 $-1 0 0 0 0 1 0 1 0 0 forward_v I I I I #
face $29 -1 $-1 $30 $31 $15 $-1 $32 forward single #
face $-1 -1 $-1 $33 $34 $17 $-1 $35 forward single #
model_id-kcp-attrib $-1 -1 $-1 $-1 $19 1 1021521051 1021521051 106954753 3 #
face $36 -1 $-1 $37 $38 $7 $-1 $39 forward single #
loop $-1 -1 $-1 $-1 $40 $19 #
plane-surface $-1 -1 $-1 60 0 -30 0 0 -1 -1 0 0 forward_v I I I I #
coedge $-1 -1 $-1 $41 $42 $43 $44 reversed $20 $-1 #
model_id-kcp-attrib $-1 -1 $-1 $-1 $22 1 1021521051 1021521051 106954754 5 #
face $45 -1 $-1 $46 $47 $15 $-1 $48 reversed single #
loop $-1 -1 $-1 $-1 $49 $22 #
plane-surface $-1 -1 $-1 0 0 15.25 0 0 1 1 0 0 forward_v I I I I #
face $-1 -1 $-1 $50 $51 $17 $-1 $52 forward single #
loop $-1 -1 $-1 $53 $54 $23 #
cone-surface $-1 -1 $-1 -25 0 14.75 0 0 1 1 0 0 1 I I 0 -1 1 forward I I I I #
model_id-kcp-attrib $-1 -1 $-1 $-1 $25 1 1021521051 1021521051 106954753 4 #
face $55 -1 $-1 $56 $57 $7 $-1 $58 forward single #
loop $-1 -1 $-1 $-1 $59 $25 #
plane-surface $-1 -1 $-1 0 0 -30 -1 0 0 0 0 1 forward_v I I I I #
coedge $-1 -1 $-1 $60 $43 $61 $62 forward $26 $-1 #
coedge $-1 -1 $-1 $63 $28 $64 $65 reversed $20 $-1 #
coedge $-1 -1 $-1 $28 $63 $66 $67 reversed $20 $-1 #
coedge $-1 -1 $-1 $40 $68 $28 $44 forward $26 $-1 #
edge $69 -1 $-1 $70 0 $71 60 $28 $72 forward @7 unknown #
model_id-kcp-attrib $-1 -1 $-1 $-1 $30 1 1021521051 1021521051 106954754 3 #
face $73 -1 $-1 $74 $75 $15 $-1 $76 reversed single #
loop $-1 -1 $-1 $-1 $77 $30 #
plane-surface $-1 -1 $-1 0 0 -15.25 0 0 1 1 0 0 forward_v I I I I #
coedge $-1 -1 $-1 $78 $79 $80 $81 forward $31 $-1 #
face $-1 -1 $-1 $82 $83 $17 $-1 $84 forward single #
loop $-1 -1 $-1 $85 $86 $33 #
cone-surface $-1 -1 $-1 25 0 14.75 0 0 1 1 0 0 1 I I 0 -1 1 forward I I I I #
loop $-1 -1 $-1 $-1 $87 $23 #
coedge $-1 -1 $-1 $54 $54 $88 $89 forward $34 $-1 #
model_id-kcp-attrib $-1 -1 $-1 $-1 $37 1 1021521051 1021521051 106954753 5 #
face $90 -1 $-1 $91 $92 $7 $-1 $93 forward single #
loop $-1 -1 $-1 $94 $95 $37 #
plane-surface $-1 -1 $-1 0 0 0 0 0 1 1 0 0 forward_v I I I I #
coedge $-1 -1 $-1 $96 $66 $97 $98 forward $38 $-1 #
coedge $-1 -1 $-1 $68 $40 $99 $100 reversed $26 $-1 #
coedge $-1 -1 $-1 $66 $96 $40 $62 reversed $38 $-1 #
edge $101 -1 $-1 $71 0 $102 7 $61 $103 forward @7 unknown #
coedge $-1 -1 $-1 $42 $41 $104 $105 reversed $20 $-1 #
coedge $-1 -1 $-1 $106 $107 $41 $65 forward $108 $-1 #
edge $109 -1 $-1 $110 0 $70 30 $41 $111 forward @7 unknown #
coedge $-1 -1 $-1 $59 $61 $42 $67 forward $38 $-1 #
edge $112 -1 $-1 $71 0 $113 30 $42 $114 forward @7 unknown #
coedge $-1 -1 $-1 $43 $60 $106 $115 reversed $26 $-1 #
attrib_edge_convexity-kcp-attrib $-1 -1 $116 $-1 $44 1 #
vertex $-1 -1 $-1 $65 $117 #
vertex $-1 -1 $-1 $67 $118 #
straight-curve $-1 -1 $-1 60 0 -30 -1 0 0 I I #
model_id-kcp-attrib $-1 -1 $-1 $-1 $46 1 1021521051 1021521051 106954754 2 #
face $119 -1 $-1 $120 $121 $15 $-1 $122 reversed single #
loop $-1 -1 $-1 $-1 $123 $46 #
plane-surface $-1 -1 $-1 0 -3.5 0 0 1 0 0 0 1 forward_v I I I I #
coedge $-1 -1 $-1 $124 $125 $126 $127 forward $47 $-1 #
coedge $-1 -1 $-1 $128 $49 $129 $130 forward $31 $-1 #
coedge $-1 -1 $-1 $49 $128 $131 $132 forward $31 $-1 #
coedge $-1 -1 $-1 $133 $134 $49 $81 reversed $135 $-1 #
edge $-1 -1 $-1 $136 -3.5 $137 3.5 $80 $138 forward @7 unknown #
face $-1 -1 $-1 $139 $140 $17 $-1 $141 forward single #
loop $-1 -1 $-1 $142 $143 $50 #
cone-surface $-1 -1 $-1 0 0 14.75 0 0 1 1 0 0 1 I I 0 -1 1 forward I I I I #
loop $-1 -1 $-1 $-1 $144 $33 #
coedge $-1 -1 $-1 $86 $86 $145 $146 forward $51 $-1 #
coedge $-1 -1 $-1 $87 $87 $147 $148 reversed $53 $-1 #
coedge $-1 -1 $-1 $88 $88 $54 $89 reversed $149 $-1 #
edge $-1 -1 $-1 $150 -3.1415926535897931 $150 3.1415926535897931 $54 $151 forward @7 unknown #
model_id-kcp-attrib $-1 -1 $-1 $-1 $56 1 1021521051 1021521051 106954753 6 #
face $152 -1 $-1 $153 $154 $7 $-1 $155 forward single #
loop $-1 -1 $-1 $-1 $156 $56 #
cone-surface $-1 -1 $-1 55 3.5 0 0 0 1 1 0 0 1 I I 0 1 1 forward I I I I #
loop $-1 -1 $-1 $157 $158 $37 #
coedge $-1 -1 $-1 $159 $159 $160 $161 reversed $57 $-1 #
coedge $-1 -1 $-1 $61 $59 $162 $163 reversed $38 $-1 #
coedge $-1 -1 $-1 $104 $164 $59 $98 reversed $157 $-1 #
edge $165 -1 $-1 $113 0 $166 7 $59 $167 forward @7 unknown #
coedge $-1 -1 $-1 $162 $168 $60 $100 forward $169 $-1 #
edge $170 -1 $-1 $171 0 $102 60 $99 $172 forward @7 unknown #
attrib_edge_convexity-kcp-attrib $-1 -1 $173 $-1 $62 1 #
vertex $-1 -1 $-1 $163 $174 #
straight-curve $-1 -1 $-1 0 0 -30 0 1 0 I I #
coedge $-1 -1 $-1 $175 $97 $63 $105 forward $157 $-1 #
edge $176 -1 $-1 $113 0 $110 60 $63 $177 forward @7 unknown #
coedge $-1 -1 $-1 $178 $64 $68 $115 forward $108 $-1 #
coedge $-1 -1 $-1 $64 $178 $175 $179 reversed $108 $-1 #
loop $-1 -1 $-1 $-1 $106 $180 #
attrib_edge_convexity-kcp-attrib $-1 -1 $181 $-1 $65 1 #
vertex $-1 -1 $-1 $105 $182 #
straight-curve $-1 -1 $-1 60 0 0 0 0 -1 I I #
attrib_edge_convexity-kcp-attrib $-1 -1 $183 $-1 $67 1 #
vertex $-1 -1 $-1 $67 $184 #
straight-curve $-1 -1 $-1 0 0 -30 0 0 1 I I #
edge $185 -1 $-1 $70 0 $171 7 $106 $186 forward @7 unknown #
convexity-sys-attrib $-1 -1 $-1 $69 $44 #
point $-1 -1 $-1 60 0 -30 #
point $-1 -1 $-1 0 0 -30 #
model_id-kcp-attrib $-1 -1 $-1 $-1 $74 1 1021521051 1021521051 106954754 4 #
face $187 -1 $-1 $188 $189 $15 $-1 $190 reversed single #
loop $-1 -1 $-1 $-1 $191 $74 #
plane-surface $-1 -1 $-1 -30 0 0 1 0 0 0 0 -1 forward_v I I I I #
coedge $-1 -1 $-1 $192 $131 $193 $194 forward $75 $-1 #
coedge $-1 -1 $-1 $195 $77 $192 $196 forward $47 $-1 #
coedge $-1 -1 $-1 $77 $195 $197 $198 forward $47 $-1 #
coedge $-1 -1 $-1 $134 $133 $77 $127 reversed $135 $-1 #
edge $-1 -1 $-1 $199 -3.5 $200 3.5 $126 $201 forward @7 unknown #
coedge $-1 -1 $-1 $79 $78 $202 $203 forward $31 $-1 #
coedge $-1 -1 $-1 $204 $205 $78 $130 reversed $189 $-1 #
edge $-1 -1 $-1 $137 -30 $206 30 $129 $207 forward @7 unknown #
coedge $-1 -1 $-1 $123 $208 $79 $132 reversed $75 $-1 #
edge $-1 -1 $-1 $209 -30 $136 30 $131 $210 forward @7 unknown #
coedge $-1 -1 $-1 $126 $80 $208 $211 forward $135 $-1 #
coedge $-1 -1 $-1 $80 $126 $204 $212 reversed $135 $-1 #
loop $-1 -1 $-1 $-1 $133 $188 #
vertex $-1 -1 $-1 $81 $213 #
vertex $-1 -1 $-1 $81 $214 #
straight-curve $-1 -1 $-1 30 0 15.25 0 1 0 I I #
face $-1 -1 $-1 $215 $216 $17 $-1 $217 forward single #
loop $-1 -1 $-1 $-1 $218 $82 #
plane-surface $-1 -1 $-1 -30 -3.5 14.75 -1 0 0 0 0 1 forward_v I I I I #
loop $-1 -1 $-1 $-1 $219 $50 #
coedge $-1 -1 $-1 $143 $143 $220 $221 forward $83 $-1 #
coedge $-1 -1 $-1 $144 $144 $222 $223 reversed $85 $-1 #
coedge $-1 -1 $-1 $145 $145 $86 $146 reversed $224 $-1 #
edge $-1 -1 $-1 $225 -3.1415926535897931 $225 3.1415926535897931 $86 $226 forward @7 unknown #
coedge $-1 -1 $-1 $147 $147 $87 $148 forward $227 $-1 #
edge $228 -1 $-1 $229 0 $229 6.2831853071795862 $87 $230 forward @7 unknown #
loop $-1 -1 $-1 $-1 $88 $231 #
vertex $-1 -1 $-1 $89 $232 #
ellipse-curve $-1 -1 $-1 -25 0 15.25 0 0 1 1 0 0 1 I I #
model_id-kcp-attrib $-1 -1 $-1 $-1 $91 1 1021521051 1021521051 106954753 7 #
face $233 -1 $-1 $234 $235 $7 $-1 $236 forward single #
loop $-1 -1 $-1 $-1 $237 $91 #
cone-surface $-1 -1 $-1 55 3.5 0 0 0 1 1 0 0 1 I I 0 1 1 forward I I I I #
coedge $-1 -1 $-1 $238 $160 $239 $240 forward $92 $-1 #
loop $-1 -1 $-1 $241 $175 $37 #
coedge $-1 -1 $-1 $242 $242 $243 $244 reversed $94 $-1 #
coedge $-1 -1 $-1 $95 $95 $245 $246 reversed $57 $-1 #
coedge $-1 -1 $-1 $156 $247 $95 $161 forward $92 $-1 #
edge $248 -1 $-1 $249 0 $250 3.1415926535897931 $95 $251 forward @7 unknown #
coedge $-1 -1 $-1 $252 $99 $96 $163 forward $169 $-1 #
edge $253 -1 $-1 $102 0 $166 30 $162 $254 forward @7 unknown #
coedge $-1 -1 $-1 $97 $175 $252 $255 reversed $157 $-1 #
attrib_edge_convexity-kcp-attrib $-1 -1 $256 $-1 $98 1 #
vertex $-1 -1 $-1 $163 $257 #
straight-curve $-1 -1 $-1 0 0 0 0 1 0 I I #
coedge $-1 -1 $-1 $99 $252 $178 $258 forward $169 $-1 #
loop $-1 -1 $-1 $-1 $252 $259 #
attrib_edge_convexity-kcp-attrib $-1 -1 $260 $-1 $100 1 #
vertex $-1 -1 $-1 $100 $261 #
straight-curve $-1 -1 $-1 60 7 -30 -1 0 0 I I #
convexity-sys-attrib $-1 -1 $-1 $101 $62 #
point $-1 -1 $-1 0 7 -30 #
coedge $-1 -1 $-1 $164 $104 $107 $179 forward $157 $-1 #
attrib_edge_convexity-kcp-attrib $-1 -1 $262 $-1 $105 1 #
straight-curve $-1 -1 $-1 0 0 0 1 0 0 I I #
coedge $-1 -1 $-1 $107 $106 $168 $258 reversed $108 $-1 #
edge $263 -1 $-1 $110 0 $264 7 $175 $265 forward @7 unknown #
face $266 -1 $-1 $259 $108 $7 $-1 $267 forward single #
convexity-sys-attrib $-1 -1 $-1 $109 $65 #
point $-1 -1 $-1 60 0 0 #
convexity-sys-attrib $-1 -1 $-1 $112 $67 #
point $-1 -1 $-1 0 0 0 #
attrib_edge_convexity-kcp-attrib $-1 -1 $268 $-1 $115 1 #
straight-curve $-1 -1 $-1 60 0 -30 0 1 0 I I #
model_id-kcp-attrib $-1 -1 $-1 $-1 $120 1 1021521051 1021521051 106954754 8 #
face $269 -1 $-1 $-1 $135 $15 $-1 $270 reversed single #
loop $-1 -1 $-1 $-1 $204 $120 #
plane-surface $-1 -1 $-1 0 3.5 0 0 -1 0 0 0 -1 forward_v I I I I #
coedge $-1 -1 $-1 $271 $202 $205 $272 forward $121 $-1 #
coedge $-1 -1 $-1 $208 $123 $124 $196 reversed $75 $-1 #
coedge $-1 -1 $-1 $202 $271 $123 $194 reversed $121 $-1 #
edge $-1 -1 $-1 $209 -15.25 $273 15.25 $193 $274 forward @7 unknown #
coedge $-1 -1 $-1 $125 $124 $271 $275 forward $47 $-1 #
edge $-1 -1 $-1 $200 -30 $273 30 $192 $276 forward @7 unknown #
coedge $-1 -1 $-1 $205 $204 $125 $198 reversed $189 $-1 #
edge $-1 -1 $-1 $277 -30 $199 30 $197 $278 forward @7 unknown #
vertex $-1 -1 $-1 $127 $279 #
vertex $-1 -1 $-1 $211 $280 #
straight-curve $-1 -1 $-1 30 0 -15.25 0 -1 0 I I #
coedge $-1 -1 $-1 $191 $193 $128 $203 reversed $121 $-1 #
edge $-1 -1 $-1 $206 -3.5 $209 3.5 $202 $281 forward @7 unknown #
coedge $-1 -1 $-1 $197 $129 $134 $212 forward $189 $-1 #
coedge $-1 -1 $-1 $129 $197 $191 $272 reversed $189 $-1 #
vertex $-1 -1 $-1 $130 $282 #
straight-curve $-1 -1 $-1 0 3.5 15.25 -1 0 0 I I #
coedge $-1 -1 $-1 $131 $192 $133 $211 reversed $75 $-1 #
vertex $-1 -1 $-1 $203 $283 #
straight-curve $-1 -1 $-1 0 -3.5 15.25 1 0 0 I I #
edge $-1 -1 $-1 $136 -15.25 $200 15.25 $133 $284 forward @7 unknown #
edge $-1 -1 $-1 $137 -15.25 $199 15.25 $134 $285 forward @7 unknown #
point $-1 -1 $-1 30 -3.5 15.25 #
point $-1 -1 $-1 30 3.5 15.25 #
face $-1 -1 $-1 $286 $287 $17 $-1 $288 forward single #
loop $-1 -1 $-1 $-1 $289 $139 #
plane-surface $-1 -1 $-1 -30 3.5 14.75 0 1 0 0 0 1 forward_v I I I I #
coedge $-1 -1 $-1 $290 $291 $292 $293 forward $140 $-1 #
coedge $-1 -1 $-1 $219 $219 $294 $295 reversed $142 $-1 #
coedge $-1 -1 $-1 $220 $220 $143 $221 reversed $296 $-1 #
edge $-1 -1 $-1 $297 0 $297 6.2831853071795862 $143 $298 forward @7 unknown #
coedge $-1 -1 $-1 $222 $222 $144 $223 forward $299 $-1 #
edge $300 -1 $-1 $301 0 $301 6.2831853071795862 $144 $302 forward @7 unknown #
loop $-1 -1 $-1 $149 $145 $231 #
vertex $-1 -1 $-1 $146 $303 #
ellipse-curve $-1 -1 $-1 25 0 15.25 0 0 1 1 0 0 1 I I #
loop $-1 -1 $-1 $-1 $147 $304 #
convexity-sys-attrib $-1 -1 $-1 $-1 $148 #
vertex $-1 -1 $-1 $148 $305 #
ellipse-curve $-1 -1 $-1 -25 0 14.75 0 0 1 1 0 0 1 I I #
face $-1 -1 $-1 $304 $306 $17 $-1 $307 forward single #
point $-1 -1 $-1 -26 0 15.25 #
model_id-kcp-attrib $-1 -1 $-1 $-1 $153 1 1021521051 1021521051 106954753 8 #
face $308 -1 $-1 $309 $310 $7 $-1 $311 forward single #
loop $-1 -1 $-1 $-1 $312 $153 #
plane-surface $-1 -1 $-1 50 0 0.5 0 0 1 1 0 0 forward_v I I I I #
coedge $-1 -1 $-1 $313 $245 $247 $314 forward $154 $-1 #
coedge $-1 -1 $-1 $247 $156 $312 $315 reversed $92 $-1 #
coedge $-1 -1 $-1 $245 $313 $156 $240 reversed $154 $-1 #
edge $-1 -1 $-1 $250 0 $316 0.5 $239 $317 forward @7 unknown #
loop $-1 -1 $-1 $-1 $318 $37 #
coedge $-1 -1 $-1 $158 $158 $319 $320 reversed $94 $-1 #
coedge $-1 -1 $-1 $321 $322 $158 $244 forward $310 $-1 #
edge $323 -1 $-1 $324 0 $325 3.1415926535897931 $158 $326 forward @7 unknown #
coedge $-1 -1 $-1 $237 $239 $159 $246 forward $154 $-1 #
edge $327 -1 $-1 $250 0 $249 3.1415926535897931 $159 $328 forward @7 unknown #
coedge $-1 -1 $-1 $160 $238 $237 $314 reversed $92 $-1 #
attrib_edge_convexity-kcp-attrib $-1 -1 $329 $-1 $161 2 #
vertex $-1 -1 $-1 $246 $330 #
vertex $-1 -1 $-1 $246 $331 #
ellipse-curve $-1 -1 $-1 55 3.5 0 0 0 1 -1 0 0 1 I I #
coedge $-1 -1 $-1 $168 $162 $164 $255 forward $169 $-1 #
attrib_edge_convexity-kcp-attrib $-1 -1 $332 $-1 $163 1 #
straight-curve $-1 -1 $-1 0 7 -30 0 0 1 I I #
edge $333 -1 $-1 $166 0 $264 60 $252 $334 forward @7 unknown #
convexity-sys-attrib $-1 -1 $-1 $165 $98 #
point $-1 -1 $-1 0 7 0 #
edge $-1 -1 $-1 $264 0 $171 30 $168 $335 forward @7 unknown #
face $336 -1 $-1 $337 $169 $7 $-1 $338 forward single #
convexity-sys-attrib $-1 -1 $-1 $170 $100 #
point $-1 -1 $-1 60 7 -30 #
convexity-sys-attrib $-1 -1 $-1 $176 $105 #
attrib_edge_convexity-kcp-attrib $-1 -1 $339 $-1 $179 1 #
vertex $-1 -1 $-1 $258 $340 #
straight-curve $-1 -1 $-1 60 0 0 0 1 0 I I #
model_id-kcp-attrib $-1 -1 $-1 $-1 $180 1 1021521051 1021521051 106954753 12 #
plane-surface $-1 -1 $-1 60 0 0 1 0 0 0 0 -1 forward_v I I I I #
convexity-sys-attrib $-1 -1 $-1 $185 $115 #
model_id-kcp-attrib $-1 -1 $-1 $-1 $188 1 1021521051 1021521051 106954754 7 #
plane-surface $-1 -1 $-1 30 0 0 -1 0 0 0 0 1 forward_v I I I I #
coedge $-1 -1 $-1 $193 $191 $195 $275 reversed $121 $-1 #
edge $-1 -1 $-1 $206 -15.25 $277 15.25 $205 $341 forward @7 unknown #
vertex $-1 -1 $-1 $275 $342 #
straight-curve $-1 -1 $-1 -30 -3.5 0 0 0 -1 I I #
edge $-1 -1 $-1 $273 -3.5 $277 3.5 $271 $343 forward @7 unknown #
straight-curve $-1 -1 $-1 0 -3.5 -15.25 -1 0 0 I I #
vertex $-1 -1 $-1 $198 $344 #
straight-curve $-1 -1 $-1 0 3.5 -15.25 1 0 0 I I #
point $-1 -1 $-1 30 3.5 -15.25 #
point $-1 -1 $-1 30 -3.5 -15.25 #
straight-curve $-1 -1 $-1 -30 0 15.25 0 -1 0 I I #
point $-1 -1 $-1 -30 3.5 15.25 #
point $-1 -1 $-1 -30 -3.5 15.25 #
straight-curve $-1 -1 $-1 30 -3.5 0 0 0 -1 I I #
straight-curve $-1 -1 $-1 30 3.5 0 0 0 -1 I I #
face $-1 -1 $-1 $231 $345 $17 $-1 $346 forward single #
loop $-1 -1 $-1 $-1 $347 $215 #
plane-surface $-1 -1 $-1 30 3.5 14.75 1 0 0 0 0 -1 forward_v I I I I #
coedge $-1 -1 $-1 $348 $349 $350 $351 forward $216 $-1 #
coedge $-1 -1 $-1 $352 $218 $349 $353 reversed $140 $-1 #
coedge $-1 -1 $-1 $218 $352 $354 $355 forward $140 $-1 #
coedge $-1 -1 $-1 $356 $350 $218 $293 reversed $306 $-1 #
edge $-1 -1 $-1 $357 -3.5 $358 3.5 $218 $359 forward @7 unknown #
coedge $-1 -1 $-1 $294 $294 $219 $295 forward $360 $-1 #
edge $361 -1 $-1 $362 -3.1415926535897931 $362 3.1415926535897931 $219 $363 forward @7 unknown #
loop $-1 -1 $-1 $224 $220 $231 #
vertex $-1 -1 $-1 $221 $364 #
ellipse-curve $-1 -1 $-1 0 0 15.25 0 0 1 1 0 0 1 I I #
loop $-1 -1 $-1 $227 $222 $304 #
convexity-sys-attrib $-1 -1 $-1 $-1 $223 #
vertex $-1 -1 $-1 $223 $365 #
ellipse-curve $-1 -1 $-1 25 0 14.75 0 0 1 1 0 0 1 I I #
point $-1 -1 $-1 24 0 15.25 #
face $-1 -1 $-1 $-1 $366 $17 $-1 $367 reversed single #
point $-1 -1 $-1 -24 0 14.75 #
loop $-1 -1 $-1 $296 $292 $231 #
plane-surface $-1 -1 $-1 0 -1.0408340855860843e-017 15.250000000000007 0 0 1 1 0 0 forward_v I I I I #
model_id-kcp-attrib $-1 -1 $-1 $-1 $234 1 1021521051 1021521051 106954753 9 #
face $368 -1 $-1 $369 $370 $7 $-1 $371 forward single #
loop $-1 -1 $-1 $-1 $321 $234 #
cone-surface $-1 -1 $-1 30 3.5 0 0 0 1 1 0 0 1 I I 0 1 1 forward I I I I #
coedge $-1 -1 $-1 $372 $372 $238 $315 forward $235 $-1 #
coedge $-1 -1 $-1 $239 $237 $372 $373 reversed $154 $-1 #
edge $-1 -1 $-1 $249 0 $374 0.5 $237 $375 forward @7 unknown #
edge $-1 -1 $-1 $374 0 $316 3.1415926535897931 $312 $376 forward @7 unknown #
vertex $-1 -1 $-1 $373 $377 #
straight-curve $-1 -1 $-1 56 3.5 0 0 0 1 I I #
coedge $-1 -1 $-1 $378 $378 $379 $380 reversed $241 $-1 #
coedge $-1 -1 $-1 $381 $382 $242 $320 forward $370 $-1 #
edge $383 -1 $-1 $325 0 $324 3.1415926535897931 $242 $384 forward @7 unknown #
coedge $-1 -1 $-1 $385 $243 $382 $386 forward $310 $-1 #
coedge $-1 -1 $-1 $243 $385 $381 $387 reversed $310 $-1 #
attrib_edge_convexity-kcp-attrib $-1 -1 $388 $-1 $244 2 #
vertex $-1 -1 $-1 $320 $389 #
vertex $-1 -1 $-1 $320 $390 #
ellipse-curve $-1 -1 $-1 30 3.5 0 0 0 1 -1 0 0 1 I I #
attrib_edge_convexity-kcp-attrib $-1 -1 $391 $-1 $246 2 #
ellipse-curve $-1 -1 $-1 55 3.5 0 0 0 1 1 0 0 1 I I #
convexity-sys-attrib $-1 -1 $-1 $248 $161 #
point $-1 -1 $-1 54 3.5 0 #
point $-1 -1 $-1 56 3.5 0 #
convexity-sys-attrib $-1 -1 $-1 $253 $163 #
attrib_edge_convexity-kcp-attrib $-1 -1 $392 $-1 $255 1 #
straight-curve $-1 -1 $-1 0 7 0 1 0 0 I I #
straight-curve $-1 -1 $-1 60 7 0 0 0 -1 I I #
model_id-kcp-attrib $-1 -1 $-1 $-1 $259 1 1021521051 1021521051 106954753 13 #
face $393 -1 $-1 $394 $395 $7 $-1 $396 forward single #
plane-surface $-1 -1 $-1 0 7 0 0 1 0 1 0 0 forward_v I I I I #
convexity-sys-attrib $-1 -1 $-1 $263 $179 #
point $-1 -1 $-1 60 7 0 #
straight-curve $-1 -1 $-1 -30 3.5 0 0 0 -1 I I #
point $-1 -1 $-1 -30 -3.5 -15.25 #
straight-curve $-1 -1 $-1 -30 0 -15.25 0 1 0 I I #
point $-1 -1 $-1 -30 3.5 -15.25 #
loop $-1 -1 $-1 $-1 $397 $286 #
plane-surface $-1 -1 $-1 30 -3.5 14.75 0 -1 0 0 0 -1 forward_v I I I I #
coedge $-1 -1 $-1 $398 $399 $400 $401 forward $287 $-1 #
coedge $-1 -1 $-1 $402 $289 $399 $403 reversed $216 $-1 #
coedge $-1 -1 $-1 $289 $402 $290 $353 forward $216 $-1 #
coedge $-1 -1 $-1 $292 $400 $289 $351 reversed $306 $-1 #
edge $-1 -1 $-1 $358 -30 $404 30 $289 $405 forward @7 unknown #
coedge $-1 -1 $-1 $291 $290 $406 $407 reversed $140 $-1 #
edge $-1 -1 $-1 $408 0 $358 0.5 $349 $409 forward @7 unknown #
coedge $-1 -1 $-1 $410 $397 $291 $355 reversed $345 $-1 #
edge $-1 -1 $-1 $411 0 $357 0.5 $291 $412 forward @7 unknown #
coedge $-1 -1 $-1 $400 $292 $397 $413 reversed $306 $-1 #
vertex $-1 -1 $-1 $355 $414 #
vertex $-1 -1 $-1 $353 $415 #
straight-curve $-1 -1 $-1 -30 0 15.25 0 1 0 I I #
loop $-1 -1 $-1 $299 $294 $304 #
convexity-sys-attrib $-1 -1 $-1 $-1 $295 #
vertex $-1 -1 $-1 $295 $416 #
ellipse-curve $-1 -1 $-1 0 0 14.75 0 0 1 1 0 0 1 I I #
point $-1 -1 $-1 1 0 15.25 #
point $-1 -1 $-1 26 0 14.75 #
loop $-1 -1 $-1 $360 $417 $304 #
plane-surface $-1 -1 $-1 0 -1.0408340855860843e-017 14.750000000000007 0 0 1 1 0 0 forward_v I I I I #
model_id-kcp-attrib $-1 -1 $-1 $-1 $309 1 1021521051 1021521051 106954753 10 #
face $418 -1 $-1 $180 $419 $7 $-1 $420 forward single #
loop $-1 -1 $-1 $-1 $381 $309 #
cone-surface $-1 -1 $-1 30 3.5 0 0 0 1 1 0 0 1 I I 0 1 1 forward I I I I #
coedge $-1 -1 $-1 $312 $312 $313 $373 forward $235 $-1 #
edge $-1 -1 $-1 $316 0 $374 3.1415926535897931 $372 $421 forward @7 unknown #
vertex $-1 -1 $-1 $373 $422 #
straight-curve $-1 -1 $-1 54 3.5 0 0 0 1 I I #
ellipse-curve $-1 -1 $-1 55 3.5 0.5 0 0 1 -1 0 0 1 I I #
point $-1 -1 $-1 56 3.5 0.5 #
coedge $-1 -1 $-1 $318 $318 $423 $424 reversed $241 $-1 #
coedge $-1 -1 $-1 $425 $426 $318 $380 forward $395 $-1 #
edge $427 -1 $-1 $428 0 $429 3.1415926535897931 $318 $430 forward @7 unknown #
coedge $-1 -1 $-1 $431 $319 $322 $387 forward $370 $-1 #
coedge $-1 -1 $-1 $319 $431 $321 $386 reversed $370 $-1 #
attrib_edge_convexity-kcp-attrib $-1 -1 $432 $-1 $320 2 #
ellipse-curve $-1 -1 $-1 30 3.5 0 0 0 1 1 0 0 1 I I #
coedge $-1 -1 $-1 $322 $321 $433 $434 reversed $310 $-1 #
edge $-1 -1 $-1 $325 0 $435 0.5 $382 $436 forward @7 unknown #
edge $-1 -1 $-1 $324 0 $437 0.5 $381 $438 forward @7 unknown #
convexity-sys-attrib $-1 -1 $-1 $323 $244 #
point $-1 -1 $-1 29 3.5 0 #
point $-1 -1 $-1 31 3.5 0 #
convexity-sys-attrib $-1 -1 $-1 $327 $246 #
convexity-sys-attrib $-1 -1 $-1 $333 $255 #
model_id-kcp-attrib $-1 -1 $-1 $-1 $337 1 1021521051 1021521051 106954753 14 #
face $439 -1 $-1 $440 $441 $7 $-1 $442 forward single #
loop $-1 -1 $-1 $-1 $425 $337 #
cone-surface $-1 -1 $-1 5 3.5 0 0 0 1 1 0 0 1 I I 0 1 1 forward I I I I #
coedge $-1 -1 $-1 $354 $443 $356 $413 forward $345 $-1 #
coedge $-1 -1 $-1 $444 $347 $443 $445 reversed $287 $-1 #
coedge $-1 -1 $-1 $347 $444 $348 $403 forward $287 $-1 #
coedge $-1 -1 $-1 $350 $356 $347 $401 reversed $306 $-1 #
edge $-1 -1 $-1 $404 -3.5 $446 3.5 $347 $447 forward @7 unknown #
coedge $-1 -1 $-1 $349 $348 $448 $449 reversed $216 $-1 #
edge $-1 -1 $-1 $450 0 $404 0.5 $399 $451 forward @7 unknown #
vertex $-1 -1 $-1 $403 $452 #
straight-curve $-1 -1 $-1 0 3.5 15.25 1 0 0 I I #
coedge $-1 -1 $-1 $448 $417 $352 $407 forward $366 $-1 #
edge $453 -1 $-1 $411 -3.5 $408 3.5 $352 $454 forward @7 unknown #
vertex $-1 -1 $-1 $407 $455 #
straight-curve $-1 -1 $-1 -30 3.5 14.75 0 0 1 I I #
coedge $-1 -1 $-1 $443 $354 $417 $456 reversed $345 $-1 #
vertex $-1 -1 $-1 $456 $457 #
straight-curve $-1 -1 $-1 -30 -3.5 14.75 0 0 1 I I #
edge $-1 -1 $-1 $446 -30 $357 30 $397 $458 forward @7 unknown #
point $-1 -1 $-1 -30 -3.5 15.25 #
point $-1 -1 $-1 -30 3.5 15.25 #
point $-1 -1 $-1 -1 0 14.75 #
coedge $-1 -1 $-1 $406 $459 $410 $456 forward $366 $-1 #
model_id-kcp-attrib $-1 -1 $-1 $-1 $369 1 1021521051 1021521051 106954753 11 #
loop $-1 -1 $-1 $-1 $433 $369 #
plane-surface $-1 -1 $-1 25 0 0.5 0 0 1 1 0 0 forward_v I I I I #
ellipse-curve $-1 -1 $-1 55 3.5 0.5 0 0 1 1 0 0 1 I I #
point $-1 -1 $-1 54 3.5 0.5 #
coedge $-1 -1 $-1 $460 $461 $378 $424 forward $441 $-1 #
edge $462 -1 $-1 $429 0 $428 3.1415926535897931 $378 $463 forward @7 unknown #
coedge $-1 -1 $-1 $464 $379 $461 $465 forward $395 $-1 #
coedge $-1 -1 $-1 $379 $464 $460 $466 reversed $395 $-1 #
attrib_edge_convexity-kcp-attrib $-1 -1 $467 $-1 $380 2 #
vertex $-1 -1 $-1 $424 $468 #
vertex $-1 -1 $-1 $424 $469 #
ellipse-curve $-1 -1 $-1 5 3.5 0 0 0 1 -1 0 0 1 I I #
coedge $-1 -1 $-1 $382 $381 $470 $471 reversed $370 $-1 #
convexity-sys-attrib $-1 -1 $-1 $383 $320 #
coedge $-1 -1 $-1 $470 $470 $385 $434 forward $419 $-1 #
edge $-1 -1 $-1 $437 0 $435 3.1415926535897931 $433 $472 forward @7 unknown #
vertex $-1 -1 $-1 $471 $473 #
straight-curve $-1 -1 $-1 31 3.5 0 0 0 1 I I #
vertex $-1 -1 $-1 $471 $474 #
straight-curve $-1 -1 $-1 29 3.5 0 0 0 1 I I #
model_id-kcp-attrib $-1 -1 $-1 $-1 $394 1 1021521051 1021521051 106954753 15 #
face $475 -1 $-1 $-1 $476 $7 $-1 $477 forward single #
loop $-1 -1 $-1 $-1 $460 $394 #
cone-surface $-1 -1 $-1 5 3.5 0 0 0 1 1 0 0 1 I I 0 1 1 forward I I I I #
coedge $-1 -1 $-1 $397 $410 $398 $445 forward $345 $-1 #
coedge $-1 -1 $-1 $399 $398 $459 $478 reversed $287 $-1 #
edge $-1 -1 $-1 $479 0 $446 0.5 $443 $480 forward @7 unknown #
vertex $-1 -1 $-1 $445 $481 #
straight-curve $-1 -1 $-1 30 0 15.25 0 -1 0 I I #
coedge $-1 -1 $-1 $459 $406 $402 $449 forward $366 $-1 #
edge $482 -1 $-1 $408 -30 $450 30 $402 $483 forward @7 unknown #
vertex $-1 -1 $-1 $449 $484 #
straight-curve $-1 -1 $-1 30 3.5 14.75 0 0 1 I I #
point $-1 -1 $-1 30 3.5 15.25 #
convexity-sys-attrib $-1 -1 $-1 $-1 $407 #
straight-curve $-1 -1 $-1 -30 0 14.75 0 1 0 I I #
point $-1 -1 $-1 -30 3.5 14.75 #
edge $485 -1 $-1 $479 -30 $411 30 $410 $486 forward @7 unknown #
point $-1 -1 $-1 -30 -3.5 14.75 #
straight-curve $-1 -1 $-1 0 -3.5 15.25 -1 0 0 I I #
coedge $-1 -1 $-1 $417 $448 $444 $478 forward $366 $-1 #
coedge $-1 -1 $-1 $487 $423 $426 $466 forward $441 $-1 #
coedge $-1 -1 $-1 $423 $487 $425 $465 reversed $441 $-1 #
attrib_edge_convexity-kcp-attrib $-1 -1 $488 $-1 $424 2 #
ellipse-curve $-1 -1 $-1 5 3.5 0 0 0 1 1 0 0 1 I I #
coedge $-1 -1 $-1 $426 $425 $489 $490 reversed $395 $-1 #
edge $-1 -1 $-1 $429 0 $491 0.5 $461 $492 forward @7 unknown #
edge $-1 -1 $-1 $428 0 $493 0.5 $460 $494 forward @7 unknown #
convexity-sys-attrib $-1 -1 $-1 $427 $380 #
point $-1 -1 $-1 4 3.5 0 #
point $-1 -1 $-1 6 3.5 0 #
coedge $-1 -1 $-1 $433 $433 $431 $471 forward $419 $-1 #
edge $-1 -1 $-1 $435 0 $437 3.1415926535897931 $470 $495 forward @7 unknown #
ellipse-curve $-1 -1 $-1 30 3.5 0.5 0 0 1 -1 0 0 1 I I #
point $-1 -1 $-1 31 3.5 0.5 #
point $-1 -1 $-1 29 3.5 0.5 #
model_id-kcp-attrib $-1 -1 $-1 $-1 $440 1 1021521051 1021521051 106954753 16 #
loop $-1 -1 $-1 $-1 $489 $440 #
plane-surface $-1 -1 $-1 0 0 0.5 0 0 1 1 0 0 forward_v I I I I #
edge $496 -1 $-1 $450 -3.5 $479 3.5 $444 $497 forward @7 unknown #
vertex $-1 -1 $-1 $456 $498 #
straight-curve $-1 -1 $-1 30 -3.5 14.75 0 0 1 I I #
point $-1 -1 $-1 30 -3.5 15.25 #
convexity-sys-attrib $-1 -1 $-1 $-1 $449 #
straight-curve $-1 -1 $-1 0 3.5 14.75 1 0 0 I I #
point $-1 -1 $-1 30 3.5 14.75 #
convexity-sys-attrib $-1 -1 $-1 $-1 $456 #
straight-curve $-1 -1 $-1 0 -3.5 14.75 -1 0 0 I I #
coedge $-1 -1 $-1 $461 $460 $499 $500 reversed $441 $-1 #
convexity-sys-attrib $-1 -1 $-1 $462 $424 #
coedge $-1 -1 $-1 $499 $499 $464 $490 forward $476 $-1 #
edge $-1 -1 $-1 $493 0 $491 3.1415926535897931 $489 $501 forward @7 unknown #
vertex $-1 -1 $-1 $500 $502 #
straight-curve $-1 -1 $-1 6 3.5 0 0 0 1 I I #
vertex $-1 -1 $-1 $500 $503 #
straight-curve $-1 -1 $-1 4 3.5 0 0 0 1 I I #
ellipse-curve $-1 -1 $-1 30 3.5 0.5 0 0 1 1 0 0 1 I I #
convexity-sys-attrib $-1 -1 $-1 $-1 $478 #
straight-curve $-1 -1 $-1 30 0 14.75 0 -1 0 I I #
point $-1 -1 $-1 30 -3.5 14.75 #
coedge $-1 -1 $-1 $489 $489 $487 $500 forward $476 $-1 #
edge $-1 -1 $-1 $491 0 $493 3.1415926535897931 $499 $504 forward @7 unknown #
ellipse-curve $-1 -1 $-1 5 3.5 0.5 0 0 1 -1 0 0 1 I I #
point $-1 -1 $-1 6 3.5 0.5 #
point $-1 -1 $-1 4 3.5 0.5 #
ellipse-curve $-1 -1 $-1 5 3.5 0.5 0 0 1 1 0 0 1 I I #
End-of-ACIS-data 