600 0 1 0           
101 GICL Pro/E ACIS Translator - Source: f:/data5/repository/PTC/V18/cabecad18/ptc_comp/aft_box.prt - 6 0 13 ACIS 6.0.3 NT 24 Thu Apr 04 13:39:46 2002 
1 9.9999999999999995e-007 1e-010 
body $-1 $1 $-1 $-1 #
lump $-1 $-1 $2 $0 #
shell $-1 $-1 $-1 $3 $-1 $1 #
face $-1 $4 $5 $2 $-1 $6 reversed single #
face $-1 $7 $8 $2 $-1 $9 forward single #
loop $-1 $-1 $10 $3 #
plane-surface $-1 0 0 0 0 1 0 1 0 0 forward_v I I I I #
face $-1 $11 $12 $2 $-1 $13 forward single #
loop $-1 $-1 $14 $4 #
plane-surface $-1 60 0 -30 0 0 -1 -1 0 0 forward_v I I I I #
coedge $-1 $15 $16 $17 $18 reversed $5 $-1 #
face $-1 $19 $20 $2 $-1 $21 forward single #
loop $-1 $-1 $22 $7 #
plane-surface $-1 0 0 -30 -1 0 0 0 0 1 forward_v I I I I #
coedge $-1 $23 $17 $24 $25 forward $8 $-1 #
coedge $-1 $26 $10 $27 $28 reversed $5 $-1 #
coedge $-1 $10 $26 $29 $30 reversed $5 $-1 #
coedge $-1 $14 $31 $10 $18 forward $8 $-1 #
edge $-1 $32 0 $33 60 $10 $34 forward 7 unknown #
face $-1 $35 $36 $2 $-1 $37 forward single #
loop $-1 $38 $39 $11 #
plane-surface $-1 0 0 0 0 0 1 1 0 0 forward_v I I I I #
coedge $-1 $40 $29 $41 $42 forward $12 $-1 #
coedge $-1 $31 $14 $43 $44 reversed $8 $-1 #
coedge $-1 $29 $40 $14 $25 reversed $12 $-1 #
edge $-1 $33 0 $45 7 $24 $46 forward 7 unknown #
coedge $-1 $16 $15 $47 $48 reversed $5 $-1 #
coedge $-1 $49 $50 $15 $28 forward $51 $-1 #
edge $-1 $52 0 $32 30 $15 $53 forward 7 unknown #
coedge $-1 $22 $24 $16 $30 forward $12 $-1 #
edge $-1 $33 0 $54 30 $16 $55 forward 7 unknown #
coedge $-1 $17 $23 $49 $56 reversed $8 $-1 #
vertex $-1 $28 $57 #
vertex $-1 $30 $58 #
straight-curve $-1 60 0 -30 -1 0 0 I I #
face $-1 $59 $60 $2 $-1 $61 forward single #
loop $-1 $-1 $62 $19 #
cone-surface $-1 55 3.5 0 0 0 1 1 0 0 1 I I 0 1 1 forward I I I I #
loop $-1 $63 $64 $11 #
coedge $-1 $65 $65 $66 $67 reversed $20 $-1 #
coedge $-1 $24 $22 $68 $69 reversed $12 $-1 #
coedge $-1 $47 $70 $22 $42 reversed $63 $-1 #
edge $-1 $54 0 $71 7 $22 $72 forward 7 unknown #
coedge $-1 $68 $73 $23 $44 forward $74 $-1 #
edge $-1 $75 0 $45 60 $43 $76 forward 7 unknown #
vertex $-1 $69 $77 #
straight-curve $-1 0 0 -30 0 1 0 I I #
coedge $-1 $78 $41 $26 $48 forward $63 $-1 #
edge $-1 $54 0 $52 60 $26 $79 forward 7 unknown #
coedge $-1 $80 $27 $31 $56 forward $51 $-1 #
coedge $-1 $27 $80 $78 $81 reversed $51 $-1 #
loop $-1 $-1 $49 $82 #
vertex $-1 $48 $83 #
straight-curve $-1 60 0 0 0 0 -1 I I #
vertex $-1 $30 $84 #
straight-curve $-1 0 0 -30 0 0 1 I I #
edge $-1 $32 0 $75 7 $49 $85 forward 7 unknown #
point $-1 60 0 -30 #
point $-1 0 0 -30 #
face $-1 $86 $87 $2 $-1 $88 forward single #
loop $-1 $-1 $89 $35 #
cone-surface $-1 55 3.5 0 0 0 1 1 0 0 1 I I 0 1 1 forward I I I I #
coedge $-1 $90 $66 $91 $92 forward $36 $-1 #
loop $-1 $93 $78 $11 #
coedge $-1 $94 $94 $95 $96 reversed $38 $-1 #
coedge $-1 $39 $39 $97 $98 reversed $20 $-1 #
coedge $-1 $62 $99 $39 $67 forward $36 $-1 #
edge $-1 $100 0 $101 3.1415926535897931 $39 $102 forward 7 unknown #
coedge $-1 $103 $43 $40 $69 forward $74 $-1 #
edge $-1 $45 0 $71 30 $68 $104 forward 7 unknown #
coedge $-1 $41 $78 $103 $105 reversed $63 $-1 #
vertex $-1 $69 $106 #
straight-curve $-1 0 0 0 0 1 0 I I #
coedge $-1 $43 $103 $80 $107 forward $74 $-1 #
loop $-1 $-1 $103 $108 #
vertex $-1 $44 $109 #
straight-curve $-1 60 7 -30 -1 0 0 I I #
point $-1 0 7 -30 #
coedge $-1 $70 $47 $50 $81 forward $63 $-1 #
straight-curve $-1 0 0 0 1 0 0 I I #
coedge $-1 $50 $49 $73 $107 reversed $51 $-1 #
edge $-1 $52 0 $110 7 $78 $111 forward 7 unknown #
face $-1 $108 $51 $2 $-1 $112 forward single #
point $-1 60 0 0 #
point $-1 0 0 0 #
straight-curve $-1 60 0 -30 0 1 0 I I #
face $-1 $113 $114 $2 $-1 $115 forward single #
loop $-1 $-1 $116 $59 #
plane-surface $-1 50 0 0.5 0 0 1 1 0 0 forward_v I I I I #
coedge $-1 $117 $97 $99 $118 forward $60 $-1 #
coedge $-1 $99 $62 $116 $119 reversed $36 $-1 #
coedge $-1 $97 $117 $62 $92 reversed $60 $-1 #
edge $-1 $101 0 $120 0.5 $91 $121 forward 7 unknown #
loop $-1 $-1 $122 $11 #
coedge $-1 $64 $64 $123 $124 reversed $38 $-1 #
coedge $-1 $125 $126 $64 $96 forward $114 $-1 #
edge $-1 $127 0 $128 3.1415926535897931 $64 $129 forward 7 unknown #
coedge $-1 $89 $91 $65 $98 forward $60 $-1 #
edge $-1 $101 0 $100 3.1415926535897931 $65 $130 forward 7 unknown #
coedge $-1 $66 $90 $89 $118 reversed $36 $-1 #
vertex $-1 $98 $131 #
vertex $-1 $98 $132 #
ellipse-curve $-1 55 3.5 0 0 0 1 -1 0 0 1 I I #
coedge $-1 $73 $68 $70 $105 forward $74 $-1 #
straight-curve $-1 0 7 -30 0 0 1 I I #
edge $-1 $71 0 $110 60 $103 $133 forward 7 unknown #
point $-1 0 7 0 #
edge $-1 $110 0 $75 30 $73 $134 forward 7 unknown #
face $-1 $135 $74 $2 $-1 $136 forward single #
point $-1 60 7 -30 #
vertex $-1 $107 $137 #
straight-curve $-1 60 0 0 0 1 0 I I #
plane-surface $-1 60 0 0 1 0 0 0 0 -1 forward_v I I I I #
face $-1 $138 $139 $2 $-1 $140 forward single #
loop $-1 $-1 $125 $86 #
cone-surface $-1 30 3.5 0 0 0 1 1 0 0 1 I I 0 1 1 forward I I I I #
coedge $-1 $141 $141 $90 $119 forward $87 $-1 #
coedge $-1 $91 $89 $141 $142 reversed $60 $-1 #
edge $-1 $100 0 $143 0.5 $89 $144 forward 7 unknown #
edge $-1 $143 0 $120 3.1415926535897931 $116 $145 forward 7 unknown #
vertex $-1 $142 $146 #
straight-curve $-1 56 3.5 0 0 0 1 I I #
coedge $-1 $147 $147 $148 $149 reversed $93 $-1 #
coedge $-1 $150 $151 $94 $124 forward $139 $-1 #
edge $-1 $128 0 $127 3.1415926535897931 $94 $152 forward 7 unknown #
coedge $-1 $153 $95 $151 $154 forward $114 $-1 #
coedge $-1 $95 $153 $150 $155 reversed $114 $-1 #
vertex $-1 $124 $156 #
vertex $-1 $124 $157 #
ellipse-curve $-1 30 3.5 0 0 0 1 -1 0 0 1 I I #
ellipse-curve $-1 55 3.5 0 0 0 1 1 0 0 1 I I #
point $-1 54 3.5 0 #
point $-1 56 3.5 0 #
straight-curve $-1 0 7 0 1 0 0 I I #
straight-curve $-1 60 7 0 0 0 -1 I I #
face $-1 $158 $159 $2 $-1 $160 forward single #
plane-surface $-1 0 7 0 0 1 0 1 0 0 forward_v I I I I #
point $-1 60 7 0 #
face $-1 $82 $161 $2 $-1 $162 forward single #
loop $-1 $-1 $150 $113 #
cone-surface $-1 30 3.5 0 0 0 1 1 0 0 1 I I 0 1 1 forward I I I I #
coedge $-1 $116 $116 $117 $142 forward $87 $-1 #
edge $-1 $120 0 $143 3.1415926535897931 $141 $163 forward 7 unknown #
vertex $-1 $142 $164 #
straight-curve $-1 54 3.5 0 0 0 1 I I #
ellipse-curve $-1 55 3.5 0.5 0 0 1 -1 0 0 1 I I #
point $-1 56 3.5 0.5 #
coedge $-1 $122 $122 $165 $166 reversed $93 $-1 #
coedge $-1 $167 $168 $122 $149 forward $159 $-1 #
edge $-1 $169 0 $170 3.1415926535897931 $122 $171 forward 7 unknown #
coedge $-1 $172 $123 $126 $155 forward $139 $-1 #
coedge $-1 $123 $172 $125 $154 reversed $139 $-1 #
ellipse-curve $-1 30 3.5 0 0 0 1 1 0 0 1 I I #
coedge $-1 $126 $125 $173 $174 reversed $114 $-1 #
edge $-1 $128 0 $175 0.5 $151 $176 forward 7 unknown #
edge $-1 $127 0 $177 0.5 $150 $178 forward 7 unknown #
point $-1 29 3.5 0 #
point $-1 31 3.5 0 #
face $-1 $179 $180 $2 $-1 $181 forward single #
loop $-1 $-1 $167 $135 #
cone-surface $-1 5 3.5 0 0 0 1 1 0 0 1 I I 0 1 1 forward I I I I #
loop $-1 $-1 $173 $138 #
plane-surface $-1 25 0 0.5 0 0 1 1 0 0 forward_v I I I I #
ellipse-curve $-1 55 3.5 0.5 0 0 1 1 0 0 1 I I #
point $-1 54 3.5 0.5 #
coedge $-1 $182 $183 $147 $166 forward $180 $-1 #
edge $-1 $170 0 $169 3.1415926535897931 $147 $184 forward 7 unknown #
coedge $-1 $185 $148 $183 $186 forward $159 $-1 #
coedge $-1 $148 $185 $182 $187 reversed $159 $-1 #
vertex $-1 $166 $188 #
vertex $-1 $166 $189 #
ellipse-curve $-1 5 3.5 0 0 0 1 -1 0 0 1 I I #
coedge $-1 $151 $150 $190 $191 reversed $139 $-1 #
coedge $-1 $190 $190 $153 $174 forward $161 $-1 #
edge $-1 $177 0 $175 3.1415926535897931 $173 $192 forward 7 unknown #
vertex $-1 $191 $193 #
straight-curve $-1 31 3.5 0 0 0 1 I I #
vertex $-1 $191 $194 #
straight-curve $-1 29 3.5 0 0 0 1 I I #
face $-1 $-1 $195 $2 $-1 $196 forward single #
loop $-1 $-1 $182 $158 #
cone-surface $-1 5 3.5 0 0 0 1 1 0 0 1 I I 0 1 1 forward I I I I #
coedge $-1 $197 $165 $168 $187 forward $180 $-1 #
coedge $-1 $165 $197 $167 $186 reversed $180 $-1 #
ellipse-curve $-1 5 3.5 0 0 0 1 1 0 0 1 I I #
coedge $-1 $168 $167 $198 $199 reversed $159 $-1 #
edge $-1 $170 0 $200 0.5 $183 $201 forward 7 unknown #
edge $-1 $169 0 $202 0.5 $182 $203 forward 7 unknown #
point $-1 4 3.5 0 #
point $-1 6 3.5 0 #
coedge $-1 $173 $173 $172 $191 forward $161 $-1 #
edge $-1 $175 0 $177 3.1415926535897931 $190 $204 forward 7 unknown #
ellipse-curve $-1 30 3.5 0.5 0 0 1 -1 0 0 1 I I #
point $-1 31 3.5 0.5 #
point $-1 29 3.5 0.5 #
loop $-1 $-1 $198 $179 #
plane-surface $-1 0 0 0.5 0 0 1 1 0 0 forward_v I I I I #
coedge $-1 $183 $182 $205 $206 reversed $180 $-1 #
coedge $-1 $205 $205 $185 $199 forward $195 $-1 #
edge $-1 $202 0 $200 3.1415926535897931 $198 $207 forward 7 unknown #
vertex $-1 $206 $208 #
straight-curve $-1 6 3.5 0 0 0 1 I I #
vertex $-1 $206 $209 #
straight-curve $-1 4 3.5 0 0 0 1 I I #
ellipse-curve $-1 30 3.5 0.5 0 0 1 1 0 0 1 I I #
coedge $-1 $198 $198 $197 $206 forward $195 $-1 #
edge $-1 $200 0 $202 3.1415926535897931 $205 $210 forward 7 unknown #
ellipse-curve $-1 5 3.5 0.5 0 0 1 -1 0 0 1 I I #
point $-1 6 3.5 0.5 #
point $-1 4 3.5 0.5 #
ellipse-curve $-1 5 3.5 0.5 0 0 1 1 0 0 1 I I #
End-of-ACIS-data 