700 0 2 0           
24 FBMach with ACIS - 7.0.3 13 ACIS 7.0.3 NT 24 Wed May 15 23:50:53 2002 
1 9.9999999999999995e-007 1e-010 
body $2 -1 $-1 $3 $-1 $4 #
bdycol-kcp $-1 -1 1 2 $5 $6 #
model_id-kcp-attrib $-1 -1 $-1 $-1 $0 1 1021521053 1021521053 -1712783359 1 #
lump $-1 -1 $-1 $-1 $7 $0 #
transform $-1 -1 1 0 0 0 1 0 0 0 1 0 0 0 1 rotate no_reflect no_shear #
body $8 -1 $-1 $9 $-1 $10 #
body $11 -1 $-1 $12 $-1 $13 #
shell $-1 -1 $-1 $-1 $-1 $14 $-1 $3 #
rgb_color-st-attrib $-1 -1 $15 $-1 $5 0.5 1 1 #
lump $-1 -1 $-1 $-1 $16 $5 #
transform $-1 -1 1 0 0 0 1 0 0 0 1 0 0.5 0 1 no_rotate no_reflect no_shear #
model_id-kcp-attrib $-1 -1 $-1 $-1 $6 1 1021521053 1021521053 -1712783358 1 #
lump $-1 -1 $-1 $-1 $17 $6 #
transform $-1 -1 1 0 0 0 1 0 0 0 1 0 0.5 0 1 no_rotate no_reflect no_shear #
face $18 -1 $-1 $19 $20 $7 $-1 $21 reversed single #
model_id-kcp-attrib $-1 -1 $-1 $8 $5 1 1021521053 1021521053 -1723662333 1 #
shell $-1 -1 $-1 $-1 $-1 $22 $-1 $9 #
shell $-1 -1 $-1 $-1 $-1 $23 $-1 $12 #
model_id-kcp-attrib $-1 -1 $-1 $-1 $14 1 1021521053 1021521053 -1712783359 2 #
face $24 -1 $-1 $25 $26 $7 $-1 $27 forward single #
loop $-1 -1 $-1 $-1 $28 $14 #
plane-surface $-1 -1 $-1 0 0 0 0 1 0 1 0 0 forward_v I I I I #
face $-1 -1 $-1 $29 $30 $16 $-1 $31 reversed single #
face $-1 -1 $-1 $32 $33 $17 $-1 $34 forward single #
model_id-kcp-attrib $-1 -1 $-1 $-1 $19 1 1021521053 1021521053 -1712783359 3 #
face $35 -1 $-1 $36 $37 $7 $-1 $38 forward single #
loop $-1 -1 $-1 $-1 $39 $19 #
cone-surface $-1 -1 $-1 0 0 0 0 1 0 1.5 0 0 1 I I 0 1 1.5 forward I I I I #
coedge $-1 -1 $-1 $40 $40 $41 $42 reversed $20 $-1 #
face $-1 -1 $-1 $43 $44 $16 $-1 $31 reversed single #
loop $-1 -1 $-1 $-1 $45 $22 #
cone-surface $-1 -1 $-1 -5.6237277068330154e-033 -0.5 0 0 -1 0 1.5 0 0 1 I I 0 1 1.5 forward I I I I #
face $-1 -1 $-1 $46 $47 $17 $-1 $48 reversed single #
loop $-1 -1 $-1 $-1 $49 $23 #
plane-surface $-1 -1 $-1 0 0 1.5 0 0 1 1 0 0 forward_v I I I I #
model_id-kcp-attrib $-1 -1 $-1 $-1 $25 1 1021521053 1021521053 -1712783359 4 #
face $50 -1 $-1 $-1 $51 $7 $-1 $52 forward single #
loop $-1 -1 $-1 $-1 $53 $25 #
cone-surface $-1 -1 $-1 0 0 0 0 1 0 1.5 0 0 1 I I 0 1 1.5 forward I I I I #
coedge $-1 -1 $-1 $54 $41 $55 $56 forward $26 $-1 #
coedge $-1 -1 $-1 $28 $28 $57 $58 reversed $20 $-1 #
coedge $-1 -1 $-1 $39 $59 $28 $42 forward $26 $-1 #
edge $60 -1 $-1 $61 0 $62 3.1415926535897931 $28 $63 forward @7 unknown #
face $-1 -1 $-1 $64 $65 $16 $-1 $31 reversed single #
loop $-1 -1 $-1 $-1 $66 $29 #
coedge $-1 -1 $-1 $67 $68 $69 $70 reversed $30 $-1 #
face $71 -1 $-1 $72 $73 $17 $-1 $74 reversed single #
loop $-1 -1 $-1 $-1 $75 $32 #
plane-surface $-1 -1 $-1 0 0 -1.5 0 0 1 1 0 0 forward_v I I I I #
coedge $-1 -1 $-1 $76 $77 $78 $79 forward $33 $-1 #
model_id-kcp-attrib $-1 -1 $-1 $-1 $36 1 1021521053 1021521053 -1712783359 5 #
loop $-1 -1 $-1 $-1 $80 $36 #
plane-surface $-1 -1 $-1 0 1 0 0 1 0 1 0 0 forward_v I I I I #
coedge $-1 -1 $-1 $81 $57 $59 $82 forward $37 $-1 #
coedge $-1 -1 $-1 $59 $39 $80 $83 reversed $26 $-1 #
coedge $-1 -1 $-1 $57 $81 $39 $56 reversed $37 $-1 #
edge $-1 -1 $-1 $62 0 $84 1 $55 $85 forward @7 unknown #
coedge $-1 -1 $-1 $53 $55 $40 $58 forward $37 $-1 #
edge $86 -1 $-1 $62 0 $61 3.1415926535897931 $40 $87 forward @7 unknown #
coedge $-1 -1 $-1 $41 $54 $53 $82 reversed $26 $-1 #
attrib_edge_convexity-kcp-attrib $-1 -1 $88 $-1 $42 1 #
vertex $-1 -1 $-1 $58 $89 #
vertex $-1 -1 $-1 $58 $90 #
ellipse-curve $-1 -1 $-1 0 0 0 0 1 0 -1.5 0 0 1 I I #
face $-1 -1 $-1 $91 $92 $16 $-1 $31 reversed single #
loop $-1 -1 $-1 $-1 $93 $43 #
coedge $-1 -1 $-1 $94 $95 $96 $97 reversed $44 $-1 #
coedge $-1 -1 $-1 $98 $45 $99 $100 forward $30 $-1 #
coedge $-1 -1 $-1 $45 $98 $101 $102 reversed $30 $-1 #
coedge $-1 -1 $-1 $103 $104 $45 $70 forward $105 $-1 #
edge $-1 -1 $-1 $106 0 $107 1.5707963267948966 $69 $108 forward @7 unknown #
model_id-kcp-attrib $-1 -1 $-1 $-1 $46 1 1021521053 1021521053 -1712783358 2 #
face $-1 -1 $-1 $109 $110 $17 $-1 $111 reversed single #
loop $-1 -1 $-1 $-1 $112 $46 #
plane-surface $-1 -1 $-1 0 -0.5 0 0 1 0 0 0 1 forward_v I I I I #
coedge $-1 -1 $-1 $113 $114 $115 $116 forward $47 $-1 #
coedge $-1 -1 $-1 $117 $49 $118 $119 forward $33 $-1 #
coedge $-1 -1 $-1 $49 $117 $120 $121 forward $33 $-1 #
coedge $-1 -1 $-1 $122 $123 $49 $79 reversed $124 $-1 #
edge $-1 -1 $-1 $125 -0.5 $126 0.5 $78 $127 forward @7 unknown #
coedge $-1 -1 $-1 $128 $128 $54 $83 forward $51 $-1 #
coedge $-1 -1 $-1 $55 $53 $128 $129 reversed $37 $-1 #
edge $-1 -1 $-1 $61 0 $130 1 $53 $131 forward @7 unknown #
edge $-1 -1 $-1 $130 0 $84 3.1415926535897931 $80 $132 forward @7 unknown #
vertex $-1 -1 $-1 $129 $133 #
straight-curve $-1 -1 $-1 1.5 0 0 0 1 0 I I #
attrib_edge_convexity-kcp-attrib $-1 -1 $134 $-1 $58 1 #
ellipse-curve $-1 -1 $-1 0 0 0 0 1 0 1.5 0 0 1 I I #
convexity-sys-attrib $-1 -1 $-1 $60 $42 #
point $-1 -1 $-1 -1.5 0 0 #
point $-1 -1 $-1 1.5 0 0 #
face $-1 -1 $-1 $135 $136 $16 $-1 $137 forward single #
loop $-1 -1 $-1 $-1 $138 $64 #
coedge $-1 -1 $-1 $139 $140 $138 $141 forward $65 $-1 #
coedge $-1 -1 $-1 $142 $66 $143 $144 reversed $44 $-1 #
coedge $-1 -1 $-1 $66 $142 $68 $102 forward $44 $-1 #
coedge $-1 -1 $-1 $145 $146 $66 $97 forward $147 $-1 #
edge $-1 -1 $-1 $148 -3.1415926535897931 $149 -1.5707963267948966 $96 $150 forward @7 unknown #
coedge $-1 -1 $-1 $68 $67 $151 $152 reversed $30 $-1 #
coedge $-1 -1 $-1 $140 $139 $153 $100 reversed $65 $-1 #
edge $-1 -1 $-1 $106 -1 $154 0 $153 $155 forward @7 unknown #
coedge $-1 -1 $-1 $156 $157 $158 $102 forward $159 $-1 #
edge $-1 -1 $-1 $107 -1 $149 0 $101 $160 forward @7 unknown #
coedge $-1 -1 $-1 $104 $69 $157 $161 reversed $105 $-1 #
coedge $-1 -1 $-1 $69 $103 $162 $163 forward $105 $-1 #
loop $-1 -1 $-1 $-1 $69 $164 #
vertex $-1 -1 $-1 $165 $166 #
vertex $-1 -1 $-1 $167 $168 #
ellipse-curve $-1 -1 $-1 -5.6237277068330154e-033 0.5 0 0 -1 0 1.5 0 0 1 I I #
face $169 -1 $-1 $170 $171 $17 $-1 $172 reversed single #
loop $-1 -1 $-1 $-1 $173 $72 #
plane-surface $-1 -1 $-1 -1.5 0 0 1 0 0 0 0 -1 forward_v I I I I #
coedge $-1 -1 $-1 $174 $120 $175 $176 forward $73 $-1 #
coedge $-1 -1 $-1 $177 $75 $174 $178 forward $47 $-1 #
coedge $-1 -1 $-1 $75 $177 $179 $180 forward $47 $-1 #
coedge $-1 -1 $-1 $123 $122 $75 $116 reversed $124 $-1 #
edge $-1 -1 $-1 $181 -0.5 $182 0.5 $115 $183 forward @7 unknown #
coedge $-1 -1 $-1 $77 $76 $184 $185 forward $33 $-1 #
coedge $-1 -1 $-1 $186 $187 $76 $119 reversed $171 $-1 #
edge $-1 -1 $-1 $126 -1.5 $188 1.5 $118 $189 forward @7 unknown #
coedge $-1 -1 $-1 $112 $190 $77 $121 reversed $73 $-1 #
edge $-1 -1 $-1 $191 -1.5 $125 1.5 $120 $192 forward @7 unknown #
coedge $-1 -1 $-1 $115 $78 $190 $193 forward $124 $-1 #
coedge $-1 -1 $-1 $78 $115 $186 $194 reversed $124 $-1 #
loop $-1 -1 $-1 $-1 $122 $170 #
vertex $-1 -1 $-1 $79 $195 #
vertex $-1 -1 $-1 $79 $196 #
straight-curve $-1 -1 $-1 1.5 0 1.5 0 1 0 I I #
coedge $-1 -1 $-1 $80 $80 $81 $129 forward $51 $-1 #
edge $-1 -1 $-1 $84 0 $130 3.1415926535897931 $128 $197 forward @7 unknown #
vertex $-1 -1 $-1 $129 $198 #
straight-curve $-1 -1 $-1 -1.5 0 -1.8369095307335659e-016 0 1 0 I I #
ellipse-curve $-1 -1 $-1 0 1 0 0 1 0 -1.5 0 0 1 I I #
point $-1 -1 $-1 1.5 1 0 #
convexity-sys-attrib $-1 -1 $-1 $86 $58 #
face $-1 -1 $-1 $199 $200 $16 $-1 $201 reversed single #
loop $-1 -1 $-1 $-1 $158 $91 #
plane-surface $-1 -1 $-1 0 0 1.5 0 0 1 1 0 0 forward_v I I I I #
coedge $-1 -1 $-1 $202 $203 $204 $141 reversed $92 $-1 #
coedge $-1 -1 $-1 $99 $93 $205 $206 reversed $65 $-1 #
coedge $-1 -1 $-1 $93 $99 $207 $208 reversed $65 $-1 #
edge $-1 -1 $-1 $209 -1 $210 0 $204 $211 forward @7 unknown #
coedge $-1 -1 $-1 $95 $94 $212 $213 reversed $44 $-1 #
coedge $-1 -1 $-1 $214 $215 $216 $144 forward $217 $-1 #
edge $-1 -1 $-1 $218 -1 $148 0 $143 $219 forward @7 unknown #
coedge $-1 -1 $-1 $146 $96 $220 $221 reversed $147 $-1 #
coedge $-1 -1 $-1 $96 $145 $214 $222 forward $147 $-1 #
loop $-1 -1 $-1 $-1 $96 $223 #
vertex $-1 -1 $-1 $224 $225 #
vertex $-1 -1 $-1 $226 $227 #
ellipse-curve $-1 -1 $-1 -5.6237277068330154e-033 -0.5 0 0 1 0 1.5 0 0 1 I I #
coedge $-1 -1 $-1 $228 $229 $98 $152 forward $230 $-1 #
edge $-1 -1 $-1 $149 -1.5707963267948966 $154 0 $151 $150 forward @7 unknown #
coedge $-1 -1 $-1 $231 $232 $233 $100 forward $200 $-1 #
vertex $-1 -1 $-1 $234 $235 #
straight-curve $-1 -1 $-1 1.5 -0.5 0 0 -1 0 I I #
coedge $-1 -1 $-1 $236 $101 $229 $226 forward $159 $-1 #
coedge $-1 -1 $-1 $101 $236 $103 $161 forward $159 $-1 #
coedge $-1 -1 $-1 $237 $220 $95 $102 reversed $136 $-1 #
loop $-1 -1 $-1 $-1 $101 $238 #
straight-curve $-1 -1 $-1 -5.6237277068330154e-033 -0.5 1.5 0 -1 0 I I #
edge $-1 -1 $-1 $239 -1.5 $107 5.6237277068330154e-033 $103 $240 forward @7 unknown #
coedge $-1 -1 $-1 $241 $233 $104 $163 reversed $242 $-1 #
edge $-1 -1 $-1 $239 -1.5 $106 0 $162 $243 forward @7 unknown #
face $-1 -1 $-1 $244 $105 $16 $-1 $245 reversed single #
edge $-1 -1 $-1 $106 0 $246 1.5 $232 $243 forward @7 unknown #
point $-1 -1 $-1 1.5 0.5 0 #
edge $-1 -1 $-1 $107 5.6237277068330154e-033 $247 1.5 $248 $240 forward @7 unknown #
point $-1 -1 $-1 -5.6237277068330154e-033 0.5 1.5 #
model_id-kcp-attrib $-1 -1 $-1 $-1 $109 1 1021521053 1021521053 -1712783358 3 #
face $-1 -1 $-1 $-1 $124 $17 $-1 $249 reversed single #
loop $-1 -1 $-1 $-1 $186 $109 #
plane-surface $-1 -1 $-1 0 0.5 0 0 -1 0 0 0 -1 forward_v I I I I #
coedge $-1 -1 $-1 $250 $184 $187 $251 forward $110 $-1 #
coedge $-1 -1 $-1 $190 $112 $113 $178 reversed $73 $-1 #
coedge $-1 -1 $-1 $184 $250 $112 $176 reversed $110 $-1 #
edge $-1 -1 $-1 $191 -1.5 $252 1.5 $175 $253 forward @7 unknown #
coedge $-1 -1 $-1 $114 $113 $250 $254 forward $47 $-1 #
edge $-1 -1 $-1 $182 -1.5 $252 1.5 $174 $255 forward @7 unknown #
coedge $-1 -1 $-1 $187 $186 $114 $180 reversed $171 $-1 #
edge $-1 -1 $-1 $256 -1.5 $181 1.5 $179 $257 forward @7 unknown #
vertex $-1 -1 $-1 $116 $258 #
vertex $-1 -1 $-1 $193 $259 #
straight-curve $-1 -1 $-1 1.5 0 -1.5 0 -1 0 I I #
coedge $-1 -1 $-1 $173 $175 $117 $185 reversed $110 $-1 #
edge $-1 -1 $-1 $188 -0.5 $191 0.5 $184 $260 forward @7 unknown #
coedge $-1 -1 $-1 $179 $118 $123 $194 forward $171 $-1 #
coedge $-1 -1 $-1 $118 $179 $173 $251 reversed $171 $-1 #
vertex $-1 -1 $-1 $119 $261 #
straight-curve $-1 -1 $-1 0 0.5 1.5 -1 0 0 I I #
coedge $-1 -1 $-1 $120 $174 $122 $193 reversed $73 $-1 #
vertex $-1 -1 $-1 $185 $262 #
straight-curve $-1 -1 $-1 0 -0.5 1.5 1 0 0 I I #
edge $-1 -1 $-1 $125 -1.5 $182 1.5 $122 $263 forward @7 unknown #
edge $-1 -1 $-1 $126 -1.5 $181 1.5 $123 $264 forward @7 unknown #
point $-1 -1 $-1 1.5 -0.5 1.5 #
point $-1 -1 $-1 1.5 0.5 1.5 #
ellipse-curve $-1 -1 $-1 0 1 0 0 1 0 1.5 0 0 1 I I #
point $-1 -1 $-1 -1.5 1 0 #
face $-1 -1 $-1 $265 $266 $16 $-1 $267 reversed single #
loop $-1 -1 $-1 $-1 $153 $135 #
plane-surface $-1 -1 $-1 1.5 0 0 -1 0 0 0 0 1 forward_v I I I I #
coedge $-1 -1 $-1 $268 $138 $269 $270 reversed $92 $-1 #
coedge $-1 -1 $-1 $138 $268 $271 $272 reversed $92 $-1 #
coedge $-1 -1 $-1 $273 $274 $275 $141 forward $276 $-1 #
coedge $-1 -1 $-1 $277 $278 $139 $206 forward $279 $-1 #
edge $-1 -1 $-1 $154 0 $210 1.5707963267948966 $205 $150 forward @7 unknown #
coedge $-1 -1 $-1 $280 $281 $140 $208 forward $282 $-1 #
edge $-1 -1 $-1 $209 -1.5707963267948966 $106 0 $207 $108 forward @7 unknown #
vertex $-1 -1 $-1 $283 $284 #
vertex $-1 -1 $-1 $285 $286 #
straight-curve $-1 -1 $-1 -5.6237277068330154e-033 -0.5 -1.5 0 -1 0 I I #
coedge $-1 -1 $-1 $287 $248 $142 $213 forward $288 $-1 #
edge $-1 -1 $-1 $107 1.5707963267948966 $218 3.1415926535897931 $212 $108 forward @7 unknown #
coedge $-1 -1 $-1 $289 $143 $146 $222 reversed $217 $-1 #
coedge $-1 -1 $-1 $143 $289 $287 $290 forward $217 $-1 #
coedge $-1 -1 $-1 $291 $292 $268 $144 reversed $266 $-1 #
loop $-1 -1 $-1 $-1 $143 $293 #
vertex $-1 -1 $-1 $294 $295 #
straight-curve $-1 -1 $-1 -1.5 -0.5 0 0 -1 0 I I #
coedge $-1 -1 $-1 $158 $296 $145 $221 forward $136 $-1 #
edge $-1 -1 $-1 $297 -1.5 $149 -5.6237277068330154e-033 $145 $298 forward @7 unknown #
edge $-1 -1 $-1 $297 -1.5 $148 0 $214 $299 forward @7 unknown #
face $-1 -1 $-1 $300 $147 $16 $-1 $301 reversed single #
edge $-1 -1 $-1 $148 0 $302 1.5 $292 $299 forward @7 unknown #
point $-1 -1 $-1 -1.5 -0.5 0 #
edge $-1 -1 $-1 $149 -5.6237277068330154e-033 $303 1.5 $229 $298 forward @7 unknown #
point $-1 -1 $-1 -5.6237277068330154e-033 -0.5 1.5 #
coedge $-1 -1 $-1 $229 $151 $304 $305 reversed $230 $-1 #
coedge $-1 -1 $-1 $151 $228 $156 $226 reversed $230 $-1 #
loop $-1 -1 $-1 $-1 $151 $300 #
coedge $-1 -1 $-1 $306 $153 $278 $234 forward $200 $-1 #
coedge $-1 -1 $-1 $153 $306 $280 $165 reversed $200 $-1 #
coedge $-1 -1 $-1 $162 $304 $67 $100 reversed $242 $-1 #
edge $-1 -1 $-1 $154 0 $307 1.5 $231 $308 forward @7 unknown #
point $-1 -1 $-1 1.5 -0.5 0 #
coedge $-1 -1 $-1 $157 $156 $241 $309 forward $159 $-1 #
coedge $-1 -1 $-1 $296 $158 $248 $167 forward $136 $-1 #
face $-1 -1 $-1 $310 $159 $16 $-1 $137 forward single #
vertex $-1 -1 $-1 $309 $311 #
straight-curve $-1 -1 $-1 0 0.5 1.5 -1 0 0 I I #
coedge $-1 -1 $-1 $304 $162 $236 $309 reversed $242 $-1 #
loop $-1 -1 $-1 $-1 $233 $312 #
straight-curve $-1 -1 $-1 1.5 0.5 0 0 0 -1 I I #
face $-1 -1 $-1 $313 $288 $16 $-1 $245 reversed single #
plane-surface $-1 -1 $-1 0 0.5 0 0 -1 0 0 0 -1 forward_v I I I I #
vertex $-1 -1 $-1 $314 $315 #
vertex $-1 -1 $-1 $167 $316 #
coedge $-1 -1 $-1 $212 $287 $237 $167 reversed $288 $-1 #
plane-surface $-1 -1 $-1 1.5 0 0 -1 0 0 0 0 1 forward_v I I I I #
coedge $-1 -1 $-1 $175 $173 $177 $254 reversed $110 $-1 #
edge $-1 -1 $-1 $188 -1.5 $256 1.5 $187 $317 forward @7 unknown #
vertex $-1 -1 $-1 $254 $318 #
straight-curve $-1 -1 $-1 -1.5 -0.5 0 0 0 -1 I I #
edge $-1 -1 $-1 $252 -0.5 $256 0.5 $250 $319 forward @7 unknown #
straight-curve $-1 -1 $-1 0 -0.5 -1.5 -1 0 0 I I #
vertex $-1 -1 $-1 $180 $320 #
straight-curve $-1 -1 $-1 0 0.5 -1.5 1 0 0 I I #
point $-1 -1 $-1 1.5 0.5 -1.5 #
point $-1 -1 $-1 1.5 -0.5 -1.5 #
straight-curve $-1 -1 $-1 -1.5 0 1.5 0 -1 0 I I #
point $-1 -1 $-1 -1.5 0.5 1.5 #
point $-1 -1 $-1 -1.5 -0.5 1.5 #
straight-curve $-1 -1 $-1 1.5 -0.5 0 0 0 -1 I I #
straight-curve $-1 -1 $-1 1.5 0.5 0 0 0 -1 I I #
face $-1 -1 $-1 $223 $321 $16 $-1 $301 reversed single #
loop $-1 -1 $-1 $-1 $216 $199 #
plane-surface $-1 -1 $-1 -1.5 0 0 1 0 0 0 0 -1 forward_v I I I I #
coedge $-1 -1 $-1 $203 $202 $94 $144 forward $92 $-1 #
coedge $-1 -1 $-1 $322 $323 $202 $270 forward $324 $-1 #
edge $-1 -1 $-1 $218 -3.1415926535897931 $209 -1.5707963267948966 $269 $108 forward @7 unknown #
coedge $-1 -1 $-1 $325 $326 $203 $272 forward $321 $-1 #
edge $-1 -1 $-1 $210 1.5707963267948966 $148 3.1415926535897931 $271 $150 forward @7 unknown #
coedge $-1 -1 $-1 $327 $204 $326 $285 forward $276 $-1 #
coedge $-1 -1 $-1 $204 $327 $322 $328 forward $276 $-1 #
coedge $-1 -1 $-1 $329 $330 $93 $141 reversed $331 $-1 #
loop $-1 -1 $-1 $-1 $204 $310 #
coedge $-1 -1 $-1 $278 $205 $330 $332 reversed $279 $-1 #
coedge $-1 -1 $-1 $205 $277 $231 $234 reversed $279 $-1 #
loop $-1 -1 $-1 $-1 $205 $333 #
coedge $-1 -1 $-1 $281 $207 $232 $165 forward $282 $-1 #
coedge $-1 -1 $-1 $207 $280 $329 $283 reversed $282 $-1 #
loop $-1 -1 $-1 $-1 $207 $334 #
edge $-1 -1 $-1 $209 -5.6237277068330154e-033 $246 1.5 $281 $335 forward @7 unknown #
point $-1 -1 $-1 -5.6237277068330154e-033 0.5 -1.5 #
edge $-1 -1 $-1 $210 5.6237277068330154e-033 $302 1.5 $326 $336 forward @7 unknown #
point $-1 -1 $-1 -5.6237277068330154e-033 -0.5 -1.5 #
coedge $-1 -1 $-1 $248 $212 $215 $290 reversed $288 $-1 #
loop $-1 -1 $-1 $-1 $212 $244 #
coedge $-1 -1 $-1 $215 $214 $296 $337 reversed $217 $-1 #
edge $-1 -1 $-1 $247 -1.5 $218 0 $287 $338 forward @7 unknown #
coedge $-1 -1 $-1 $339 $216 $323 $294 forward $266 $-1 #
coedge $-1 -1 $-1 $216 $339 $325 $224 reversed $266 $-1 #
face $-1 -1 $-1 $312 $217 $16 $-1 $267 reversed single #
edge $-1 -1 $-1 $218 0 $340 1.5 $323 $338 forward @7 unknown #
point $-1 -1 $-1 -1.5 0.5 0 #
coedge $-1 -1 $-1 $220 $237 $289 $337 forward $136 $-1 #
vertex $-1 -1 $-1 $337 $341 #
straight-curve $-1 -1 $-1 0 -0.5 1.5 1 0 0 I I #
straight-curve $-1 -1 $-1 -1.5 -0.5 0 0 0 -1 I I #
face $-1 -1 $-1 $333 $230 $16 $-1 $301 reversed single #
plane-surface $-1 -1 $-1 0 -0.5 0 0 1 0 0 0 1 forward_v I I I I #
vertex $-1 -1 $-1 $342 $343 #
vertex $-1 -1 $-1 $309 $344 #
coedge $-1 -1 $-1 $233 $241 $228 $305 forward $242 $-1 #
edge $-1 -1 $-1 $303 -1.5 $154 0 $304 $308 forward @7 unknown #
coedge $-1 -1 $-1 $232 $231 $345 $314 reversed $200 $-1 #
vertex $-1 -1 $-1 $234 $346 #
straight-curve $-1 -1 $-1 1.5 -0.5 0 0 0 -1 I I #
edge $-1 -1 $-1 $303 -0.5 $239 0.5 $241 $347 forward @7 unknown #
face $-1 -1 $-1 $293 $276 $16 $-1 $348 reversed single #
point $-1 -1 $-1 1.5 0.5 1.5 #
face $-1 -1 $-1 $-1 $242 $16 $-1 $201 reversed single #
face $-1 -1 $-1 $349 $324 $16 $-1 $245 reversed single #
edge $-1 -1 $-1 $246 -0.5 $307 0.5 $306 $350 forward @7 unknown #
point $-1 -1 $-1 1.5 0.5 -1.5 #
point $-1 -1 $-1 -1.5 0.5 1.5 #
straight-curve $-1 -1 $-1 -1.5 0.5 0 0 0 -1 I I #
point $-1 -1 $-1 -1.5 -0.5 -1.5 #
straight-curve $-1 -1 $-1 -1.5 0 -1.5 0 1 0 I I #
point $-1 -1 $-1 -1.5 0.5 -1.5 #
loop $-1 -1 $-1 $-1 $271 $265 #
coedge $-1 -1 $-1 $323 $269 $274 $328 reversed $324 $-1 #
coedge $-1 -1 $-1 $269 $322 $291 $294 reversed $324 $-1 #
loop $-1 -1 $-1 $-1 $269 $313 #
coedge $-1 -1 $-1 $326 $271 $292 $224 forward $321 $-1 #
coedge $-1 -1 $-1 $271 $325 $273 $285 reversed $321 $-1 #
coedge $-1 -1 $-1 $274 $273 $339 $342 forward $276 $-1 #
edge $-1 -1 $-1 $340 -1.5 $209 -5.6237277068330154e-033 $322 $335 forward @7 unknown #
coedge $-1 -1 $-1 $345 $275 $281 $283 forward $331 $-1 #
coedge $-1 -1 $-1 $275 $345 $277 $332 forward $331 $-1 #
loop $-1 -1 $-1 $-1 $275 $349 #
edge $-1 -1 $-1 $307 -1.5 $210 5.6237277068330154e-033 $277 $336 forward @7 unknown #
face $-1 -1 $-1 $334 $279 $16 $-1 $301 reversed single #
face $-1 -1 $-1 $164 $282 $16 $-1 $245 reversed single #
straight-curve $-1 -1 $-1 0 0.5 -1.5 1 0 0 I I #
straight-curve $-1 -1 $-1 0 -0.5 -1.5 -1 0 0 I I #
edge $-1 -1 $-1 $247 -0.5 $297 0.5 $289 $351 forward @7 unknown #
straight-curve $-1 -1 $-1 -1.5 0.5 0 0 0 -1 I I #
coedge $-1 -1 $-1 $292 $291 $327 $342 reversed $266 $-1 #
vertex $-1 -1 $-1 $328 $352 #
point $-1 -1 $-1 -1.5 -0.5 1.5 #
edge $-1 -1 $-1 $302 -0.5 $340 0.5 $339 $353 forward @7 unknown #
point $-1 -1 $-1 -1.5 -0.5 -1.5 #
point $-1 -1 $-1 1.5 -0.5 1.5 #
coedge $-1 -1 $-1 $330 $329 $306 $314 forward $331 $-1 #
point $-1 -1 $-1 1.5 -0.5 -1.5 #
straight-curve $-1 -1 $-1 1.5 0 1.5 0 1 0 I I #
plane-surface $-1 -1 $-1 0 0 -1.5 0 0 1 1 0 0 forward_v I I I I #
face $-1 -1 $-1 $238 $331 $16 $-1 $348 reversed single #
straight-curve $-1 -1 $-1 1.5 0 -1.5 0 -1 0 I I #
straight-curve $-1 -1 $-1 -1.5 0 1.5 0 -1 0 I I #
point $-1 -1 $-1 -1.5 0.5 -1.5 #
straight-curve $-1 -1 $-1 -1.5 0 -1.5 0 1 0 I I #
End-of-ACIS-data 