700 0 2 0           
24 FBMach with ACIS - 7.0.3 13 ACIS 7.0.3 NT 24 Wed May 15 23:15:17 2002 
1 9.9999999999999995e-007 1e-010 
body $2 -1 $-1 $3 $-1 $4 #
bdycol-kcp $-1 -1 1 2 $5 $6 #
model_id-kcp-attrib $-1 -1 $-1 $-1 $0 1 1021518917 1021518917 -2065825791 1 #
lump $-1 -1 $-1 $-1 $7 $0 #
transform $-1 -1 1 0 0 0 1 0 0 0 1 0 0 0 1 rotate no_reflect no_shear #
body $8 -1 $-1 $9 $-1 $10 #
body $11 -1 $-1 $12 $-1 $13 #
shell $-1 -1 $-1 $-1 $-1 $14 $-1 $3 #
rgb_color-st-attrib $-1 -1 $15 $-1 $5 0.59999999999999998 0.90000000000000002 1 #
lump $-1 -1 $-1 $-1 $16 $5 #
transform $-1 -1 1 0 0 0 1 0 0 0 1 30 3.5 -14.5 1 no_rotate no_reflect no_shear #
model_id-kcp-attrib $-1 -1 $-1 $-1 $6 1 1021518917 1021518917 -2065825790 1 #
lump $-1 -1 $-1 $-1 $17 $6 #
transform $-1 -1 1 0 0 0 1 0 0 0 1 30 3.5 -14.5 1 no_rotate no_reflect no_shear #
face $18 -1 $-1 $19 $20 $7 $-1 $21 reversed single #
model_id-kcp-attrib $-1 -1 $-1 $8 $5 1 1021518917 1021518917 -2078408701 1 #
shell $-1 -1 $-1 $-1 $-1 $22 $-1 $9 #
shell $-1 -1 $-1 $-1 $-1 $23 $-1 $12 #
model_id-kcp-attrib $-1 -1 $-1 $-1 $14 1 1021518917 1021518917 -2065825791 2 #
face $24 -1 $-1 $25 $26 $7 $-1 $27 forward single #
loop $-1 -1 $-1 $-1 $28 $14 #
plane-surface $-1 -1 $-1 0 0 0 0 1 0 1 0 0 forward_v I I I I #
face $-1 -1 $-1 $29 $30 $16 $-1 $31 forward single #
face $32 -1 $-1 $33 $34 $17 $-1 $35 forward single #
model_id-kcp-attrib $-1 -1 $-1 $-1 $19 1 1021518917 1021518917 -2065825791 3 #
face $36 -1 $-1 $37 $38 $7 $-1 $39 forward single #
loop $-1 -1 $-1 $-1 $40 $19 #
plane-surface $-1 -1 $-1 60 0 -30 0 0 -1 -1 0 0 forward_v I I I I #
coedge $-1 -1 $-1 $41 $42 $43 $44 reversed $20 $-1 #
face $-1 -1 $-1 $45 $46 $16 $-1 $47 forward single #
loop $-1 -1 $-1 $48 $49 $22 #
cone-surface $-1 -1 $-1 -25 0 14.5 0 0 1 1.5 0 0 1 I I 0 -1 1.5 forward I I I I #
model_id-kcp-attrib $-1 -1 $-1 $-1 $23 1 1021518917 1021518917 -2065825790 5 #
face $50 -1 $-1 $51 $52 $17 $-1 $53 reversed single #
loop $-1 -1 $-1 $-1 $54 $23 #
plane-surface $-1 -1 $-1 0 0 15.5 0 0 1 1 0 0 forward_v I I I I #
model_id-kcp-attrib $-1 -1 $-1 $-1 $25 1 1021518917 1021518917 -2065825791 4 #
face $55 -1 $-1 $56 $57 $7 $-1 $58 forward single #
loop $-1 -1 $-1 $-1 $59 $25 #
plane-surface $-1 -1 $-1 0 0 -30 -1 0 0 0 0 1 forward_v I I I I #
coedge $-1 -1 $-1 $60 $43 $61 $62 forward $26 $-1 #
coedge $-1 -1 $-1 $63 $28 $64 $65 reversed $20 $-1 #
coedge $-1 -1 $-1 $28 $63 $66 $67 reversed $20 $-1 #
coedge $-1 -1 $-1 $40 $68 $28 $44 forward $26 $-1 #
edge $69 -1 $-1 $70 0 $71 60 $28 $72 forward @7 unknown #
face $-1 -1 $-1 $73 $74 $16 $-1 $75 forward single #
loop $-1 -1 $-1 $76 $77 $29 #
cone-surface $-1 -1 $-1 25 0 14.5 0 0 1 1.5 0 0 1 I I 0 -1 1.5 forward I I I I #
loop $-1 -1 $-1 $-1 $78 $22 #
coedge $-1 -1 $-1 $49 $49 $79 $80 forward $30 $-1 #
model_id-kcp-attrib $-1 -1 $-1 $-1 $33 1 1021518917 1021518917 -2065825790 3 #
face $81 -1 $-1 $82 $83 $17 $-1 $84 reversed single #
loop $-1 -1 $-1 $-1 $85 $33 #
plane-surface $-1 -1 $-1 0 0 -15.5 0 0 1 1 0 0 forward_v I I I I #
coedge $-1 -1 $-1 $86 $87 $88 $89 forward $34 $-1 #
model_id-kcp-attrib $-1 -1 $-1 $-1 $37 1 1021518917 1021518917 -2065825791 5 #
face $90 -1 $-1 $91 $92 $7 $-1 $93 forward single #
loop $-1 -1 $-1 $94 $95 $37 #
plane-surface $-1 -1 $-1 0 0 0 0 0 1 1 0 0 forward_v I I I I #
coedge $-1 -1 $-1 $96 $66 $97 $98 forward $38 $-1 #
coedge $-1 -1 $-1 $68 $40 $99 $100 reversed $26 $-1 #
coedge $-1 -1 $-1 $66 $96 $40 $62 reversed $38 $-1 #
edge $101 -1 $-1 $71 0 $102 7 $61 $103 forward @7 unknown #
coedge $-1 -1 $-1 $42 $41 $104 $105 reversed $20 $-1 #
coedge $-1 -1 $-1 $106 $107 $41 $65 forward $108 $-1 #
edge $109 -1 $-1 $110 0 $70 30 $41 $111 forward @7 unknown #
coedge $-1 -1 $-1 $59 $61 $42 $67 forward $38 $-1 #
edge $112 -1 $-1 $71 0 $113 30 $42 $114 forward @7 unknown #
coedge $-1 -1 $-1 $43 $60 $106 $115 reversed $26 $-1 #
attrib_edge_convexity-kcp-attrib $-1 -1 $116 $-1 $44 1 #
vertex $-1 -1 $-1 $65 $117 #
vertex $-1 -1 $-1 $67 $118 #
straight-curve $-1 -1 $-1 60 0 -30 -1 0 0 I I #
face $-1 -1 $-1 $119 $120 $16 $-1 $121 forward single #
loop $-1 -1 $-1 $122 $123 $45 #
cone-surface $-1 -1 $-1 0 0 14.5 0 0 1 1.5 0 0 1 I I 0 -1 1.5 forward I I I I #
loop $-1 -1 $-1 $-1 $124 $29 #
coedge $-1 -1 $-1 $77 $77 $125 $126 forward $46 $-1 #
coedge $-1 -1 $-1 $78 $78 $127 $128 reversed $48 $-1 #
coedge $-1 -1 $-1 $79 $79 $49 $80 reversed $129 $-1 #
edge $-1 -1 $-1 $130 -3.1415926535897931 $130 3.1415926535897931 $49 $131 forward @7 unknown #
model_id-kcp-attrib $-1 -1 $-1 $-1 $51 1 1021518917 1021518917 -2065825790 2 #
face $132 -1 $-1 $133 $134 $17 $-1 $135 reversed single #
loop $-1 -1 $-1 $-1 $136 $51 #
plane-surface $-1 -1 $-1 0 -3.5 0 0 1 0 0 0 1 forward_v I I I I #
coedge $-1 -1 $-1 $137 $138 $139 $140 forward $52 $-1 #
coedge $-1 -1 $-1 $141 $54 $142 $143 forward $34 $-1 #
coedge $-1 -1 $-1 $54 $141 $144 $145 forward $34 $-1 #
coedge $-1 -1 $-1 $146 $147 $54 $89 reversed $148 $-1 #
edge $-1 -1 $-1 $149 -3.5 $150 3.5 $88 $151 forward @7 unknown #
model_id-kcp-attrib $-1 -1 $-1 $-1 $56 1 1021518917 1021518917 -2065825791 6 #
face $152 -1 $-1 $153 $154 $7 $-1 $155 forward single #
loop $-1 -1 $-1 $-1 $156 $56 #
cone-surface $-1 -1 $-1 55 3.5 0 0 0 1 1.5 0 0 1 I I 0 1 1.5 forward I I I I #
loop $-1 -1 $-1 $157 $158 $37 #
coedge $-1 -1 $-1 $159 $159 $160 $161 reversed $57 $-1 #
coedge $-1 -1 $-1 $61 $59 $162 $163 reversed $38 $-1 #
coedge $-1 -1 $-1 $104 $164 $59 $98 reversed $157 $-1 #
edge $165 -1 $-1 $113 0 $166 7 $59 $167 forward @7 unknown #
coedge $-1 -1 $-1 $162 $168 $60 $100 forward $169 $-1 #
edge $170 -1 $-1 $171 0 $102 60 $99 $172 forward @7 unknown #
attrib_edge_convexity-kcp-attrib $-1 -1 $173 $-1 $62 1 #
vertex $-1 -1 $-1 $163 $174 #
straight-curve $-1 -1 $-1 0 0 -30 0 1 0 I I #
coedge $-1 -1 $-1 $175 $97 $63 $105 forward $157 $-1 #
edge $176 -1 $-1 $113 0 $110 60 $63 $177 forward @7 unknown #
coedge $-1 -1 $-1 $178 $64 $68 $115 forward $108 $-1 #
coedge $-1 -1 $-1 $64 $178 $175 $179 reversed $108 $-1 #
loop $-1 -1 $-1 $-1 $106 $180 #
attrib_edge_convexity-kcp-attrib $-1 -1 $181 $-1 $65 1 #
vertex $-1 -1 $-1 $105 $182 #
straight-curve $-1 -1 $-1 60 0 0 0 0 -1 I I #
attrib_edge_convexity-kcp-attrib $-1 -1 $183 $-1 $67 1 #
vertex $-1 -1 $-1 $67 $184 #
straight-curve $-1 -1 $-1 0 0 -30 0 0 1 I I #
edge $185 -1 $-1 $70 0 $171 7 $106 $186 forward @7 unknown #
convexity-sys-attrib $-1 -1 $-1 $69 $44 #
point $-1 -1 $-1 60 0 -30 #
point $-1 -1 $-1 0 0 -30 #
face $-1 -1 $-1 $187 $188 $16 $-1 $189 forward single #
loop $-1 -1 $-1 $-1 $190 $73 #
plane-surface $-1 -1 $-1 -30 -3.5 14.5 -1 0 0 0 0 1 forward_v I I I I #
loop $-1 -1 $-1 $-1 $191 $45 #
coedge $-1 -1 $-1 $123 $123 $192 $193 forward $74 $-1 #
coedge $-1 -1 $-1 $124 $124 $194 $195 reversed $76 $-1 #
coedge $-1 -1 $-1 $125 $125 $77 $126 reversed $196 $-1 #
edge $-1 -1 $-1 $197 -3.1415926535897931 $197 3.1415926535897931 $77 $198 forward @7 unknown #
coedge $-1 -1 $-1 $127 $127 $78 $128 forward $199 $-1 #
edge $200 -1 $-1 $201 0 $201 6.2831853071795862 $78 $202 forward @7 unknown #
loop $-1 -1 $-1 $-1 $79 $203 #
vertex $-1 -1 $-1 $80 $204 #
ellipse-curve $-1 -1 $-1 -25 0 15.5 0 0 1 1.5 0 0 1 I I #
model_id-kcp-attrib $-1 -1 $-1 $-1 $82 1 1021518917 1021518917 -2065825790 4 #
face $205 -1 $-1 $206 $207 $17 $-1 $208 reversed single #
loop $-1 -1 $-1 $-1 $209 $82 #
plane-surface $-1 -1 $-1 -30 0 0 1 0 0 0 0 -1 forward_v I I I I #
coedge $-1 -1 $-1 $210 $144 $211 $212 forward $83 $-1 #
coedge $-1 -1 $-1 $213 $85 $210 $214 forward $52 $-1 #
coedge $-1 -1 $-1 $85 $213 $215 $216 forward $52 $-1 #
coedge $-1 -1 $-1 $147 $146 $85 $140 reversed $148 $-1 #
edge $-1 -1 $-1 $217 -3.5 $218 3.5 $139 $219 forward @7 unknown #
coedge $-1 -1 $-1 $87 $86 $220 $221 forward $34 $-1 #
coedge $-1 -1 $-1 $222 $223 $86 $143 reversed $207 $-1 #
edge $-1 -1 $-1 $150 -30 $224 30 $142 $225 forward @7 unknown #
coedge $-1 -1 $-1 $136 $226 $87 $145 reversed $83 $-1 #
edge $-1 -1 $-1 $227 -30 $149 30 $144 $228 forward @7 unknown #
coedge $-1 -1 $-1 $139 $88 $226 $229 forward $148 $-1 #
coedge $-1 -1 $-1 $88 $139 $222 $230 reversed $148 $-1 #
loop $-1 -1 $-1 $-1 $146 $206 #
vertex $-1 -1 $-1 $89 $231 #
vertex $-1 -1 $-1 $89 $232 #
straight-curve $-1 -1 $-1 30 0 15.5 0 1 0 I I #
model_id-kcp-attrib $-1 -1 $-1 $-1 $91 1 1021518917 1021518917 -2065825791 7 #
face $233 -1 $-1 $234 $235 $7 $-1 $236 forward single #
loop $-1 -1 $-1 $-1 $237 $91 #
cone-surface $-1 -1 $-1 55 3.5 0 0 0 1 1.5 0 0 1 I I 0 1 1.5 forward I I I I #
coedge $-1 -1 $-1 $238 $160 $239 $240 forward $92 $-1 #
loop $-1 -1 $-1 $241 $175 $37 #
coedge $-1 -1 $-1 $242 $242 $243 $244 reversed $94 $-1 #
coedge $-1 -1 $-1 $95 $95 $245 $246 reversed $57 $-1 #
coedge $-1 -1 $-1 $156 $247 $95 $161 forward $92 $-1 #
edge $248 -1 $-1 $249 0 $250 3.1415926535897931 $95 $251 forward @7 unknown #
coedge $-1 -1 $-1 $252 $99 $96 $163 forward $169 $-1 #
edge $253 -1 $-1 $102 0 $166 30 $162 $254 forward @7 unknown #
coedge $-1 -1 $-1 $97 $175 $252 $255 reversed $157 $-1 #
attrib_edge_convexity-kcp-attrib $-1 -1 $256 $-1 $98 1 #
vertex $-1 -1 $-1 $163 $257 #
straight-curve $-1 -1 $-1 0 0 0 0 1 0 I I #
coedge $-1 -1 $-1 $99 $252 $178 $258 forward $169 $-1 #
loop $-1 -1 $-1 $-1 $252 $259 #
attrib_edge_convexity-kcp-attrib $-1 -1 $260 $-1 $100 1 #
vertex $-1 -1 $-1 $100 $261 #
straight-curve $-1 -1 $-1 60 7 -30 -1 0 0 I I #
convexity-sys-attrib $-1 -1 $-1 $101 $62 #
point $-1 -1 $-1 0 7 -30 #
coedge $-1 -1 $-1 $164 $104 $107 $179 forward $157 $-1 #
attrib_edge_convexity-kcp-attrib $-1 -1 $262 $-1 $105 1 #
straight-curve $-1 -1 $-1 0 0 0 1 0 0 I I #
coedge $-1 -1 $-1 $107 $106 $168 $258 reversed $108 $-1 #
edge $263 -1 $-1 $110 0 $264 7 $175 $265 forward @7 unknown #
face $266 -1 $-1 $259 $108 $7 $-1 $267 forward single #
convexity-sys-attrib $-1 -1 $-1 $109 $65 #
point $-1 -1 $-1 60 0 0 #
convexity-sys-attrib $-1 -1 $-1 $112 $67 #
point $-1 -1 $-1 0 0 0 #
attrib_edge_convexity-kcp-attrib $-1 -1 $268 $-1 $115 1 #
straight-curve $-1 -1 $-1 60 0 -30 0 1 0 I I #
face $-1 -1 $-1 $269 $270 $16 $-1 $271 forward single #
loop $-1 -1 $-1 $-1 $272 $119 #
plane-surface $-1 -1 $-1 -30 3.5 14.5 0 1 0 0 0 1 forward_v I I I I #
coedge $-1 -1 $-1 $273 $274 $275 $276 forward $120 $-1 #
coedge $-1 -1 $-1 $191 $191 $277 $278 reversed $122 $-1 #
coedge $-1 -1 $-1 $192 $192 $123 $193 reversed $279 $-1 #
edge $-1 -1 $-1 $280 0 $280 6.2831853071795862 $123 $281 forward @7 unknown #
coedge $-1 -1 $-1 $194 $194 $124 $195 forward $282 $-1 #
edge $283 -1 $-1 $284 0 $284 6.2831853071795862 $124 $285 forward @7 unknown #
loop $-1 -1 $-1 $129 $125 $203 #
vertex $-1 -1 $-1 $126 $286 #
ellipse-curve $-1 -1 $-1 25 0 15.5 0 0 1 1.5 0 0 1 I I #
loop $-1 -1 $-1 $-1 $127 $287 #
convexity-sys-attrib $-1 -1 $-1 $-1 $128 #
vertex $-1 -1 $-1 $128 $288 #
ellipse-curve $-1 -1 $-1 -25 0 14.5 0 0 1 1.5 0 0 1 I I #
face $-1 -1 $-1 $287 $289 $16 $-1 $290 forward single #
point $-1 -1 $-1 -26.5 0 15.5 #
model_id-kcp-attrib $-1 -1 $-1 $-1 $133 1 1021518917 1021518917 -2065825790 8 #
face $291 -1 $-1 $-1 $148 $17 $-1 $292 reversed single #
loop $-1 -1 $-1 $-1 $222 $133 #
plane-surface $-1 -1 $-1 0 3.5 0 0 -1 0 0 0 -1 forward_v I I I I #
coedge $-1 -1 $-1 $293 $220 $223 $294 forward $134 $-1 #
coedge $-1 -1 $-1 $226 $136 $137 $214 reversed $83 $-1 #
coedge $-1 -1 $-1 $220 $293 $136 $212 reversed $134 $-1 #
edge $-1 -1 $-1 $227 -15.5 $295 15.5 $211 $296 forward @7 unknown #
coedge $-1 -1 $-1 $138 $137 $293 $297 forward $52 $-1 #
edge $-1 -1 $-1 $218 -30 $295 30 $210 $298 forward @7 unknown #
coedge $-1 -1 $-1 $223 $222 $138 $216 reversed $207 $-1 #
edge $-1 -1 $-1 $299 -30 $217 30 $215 $300 forward @7 unknown #
vertex $-1 -1 $-1 $140 $301 #
vertex $-1 -1 $-1 $229 $302 #
straight-curve $-1 -1 $-1 30 0 -15.5 0 -1 0 I I #
coedge $-1 -1 $-1 $209 $211 $141 $221 reversed $134 $-1 #
edge $-1 -1 $-1 $224 -3.5 $227 3.5 $220 $303 forward @7 unknown #
coedge $-1 -1 $-1 $215 $142 $147 $230 forward $207 $-1 #
coedge $-1 -1 $-1 $142 $215 $209 $294 reversed $207 $-1 #
vertex $-1 -1 $-1 $143 $304 #
straight-curve $-1 -1 $-1 0 3.5 15.5 -1 0 0 I I #
coedge $-1 -1 $-1 $144 $210 $146 $229 reversed $83 $-1 #
vertex $-1 -1 $-1 $221 $305 #
straight-curve $-1 -1 $-1 0 -3.5 15.5 1 0 0 I I #
edge $-1 -1 $-1 $149 -15.5 $218 15.5 $146 $306 forward @7 unknown #
edge $-1 -1 $-1 $150 -15.5 $217 15.5 $147 $307 forward @7 unknown #
point $-1 -1 $-1 30 -3.5 15.5 #
point $-1 -1 $-1 30 3.5 15.5 #
model_id-kcp-attrib $-1 -1 $-1 $-1 $153 1 1021518917 1021518917 -2065825791 8 #
face $308 -1 $-1 $309 $310 $7 $-1 $311 forward single #
loop $-1 -1 $-1 $-1 $312 $153 #
plane-surface $-1 -1 $-1 50 0 1 0 0 1 1 0 0 forward_v I I I I #
coedge $-1 -1 $-1 $313 $245 $247 $314 forward $154 $-1 #
coedge $-1 -1 $-1 $247 $156 $312 $315 reversed $92 $-1 #
coedge $-1 -1 $-1 $245 $313 $156 $240 reversed $154 $-1 #
edge $-1 -1 $-1 $250 0 $316 1 $239 $317 forward @7 unknown #
loop $-1 -1 $-1 $-1 $318 $37 #
coedge $-1 -1 $-1 $158 $158 $319 $320 reversed $94 $-1 #
coedge $-1 -1 $-1 $321 $322 $158 $244 forward $310 $-1 #
edge $323 -1 $-1 $324 0 $325 3.1415926535897931 $158 $326 forward @7 unknown #
coedge $-1 -1 $-1 $237 $239 $159 $246 forward $154 $-1 #
edge $327 -1 $-1 $250 0 $249 3.1415926535897931 $159 $328 forward @7 unknown #
coedge $-1 -1 $-1 $160 $238 $237 $314 reversed $92 $-1 #
attrib_edge_convexity-kcp-attrib $-1 -1 $329 $-1 $161 2 #
vertex $-1 -1 $-1 $246 $330 #
vertex $-1 -1 $-1 $246 $331 #
ellipse-curve $-1 -1 $-1 55 3.5 0 0 0 1 -1.5 0 0 1 I I #
coedge $-1 -1 $-1 $168 $162 $164 $255 forward $169 $-1 #
attrib_edge_convexity-kcp-attrib $-1 -1 $332 $-1 $163 1 #
straight-curve $-1 -1 $-1 0 7 -30 0 0 1 I I #
edge $333 -1 $-1 $166 0 $264 60 $252 $334 forward @7 unknown #
convexity-sys-attrib $-1 -1 $-1 $165 $98 #
point $-1 -1 $-1 0 7 0 #
edge $-1 -1 $-1 $264 0 $171 30 $168 $335 forward @7 unknown #
face $336 -1 $-1 $337 $169 $7 $-1 $338 forward single #
convexity-sys-attrib $-1 -1 $-1 $170 $100 #
point $-1 -1 $-1 60 7 -30 #
convexity-sys-attrib $-1 -1 $-1 $176 $105 #
attrib_edge_convexity-kcp-attrib $-1 -1 $339 $-1 $179 1 #
vertex $-1 -1 $-1 $258 $340 #
straight-curve $-1 -1 $-1 60 0 0 0 1 0 I I #
model_id-kcp-attrib $-1 -1 $-1 $-1 $180 1 1021518917 1021518917 -2065825791 12 #
plane-surface $-1 -1 $-1 60 0 0 1 0 0 0 0 -1 forward_v I I I I #
convexity-sys-attrib $-1 -1 $-1 $185 $115 #
face $-1 -1 $-1 $203 $341 $16 $-1 $342 forward single #
loop $-1 -1 $-1 $-1 $343 $187 #
plane-surface $-1 -1 $-1 30 3.5 14.5 1 0 0 0 0 -1 forward_v I I I I #
coedge $-1 -1 $-1 $344 $345 $346 $347 forward $188 $-1 #
coedge $-1 -1 $-1 $348 $190 $345 $349 reversed $120 $-1 #
coedge $-1 -1 $-1 $190 $348 $350 $351 forward $120 $-1 #
coedge $-1 -1 $-1 $352 $346 $190 $276 reversed $289 $-1 #
edge $-1 -1 $-1 $353 -3.5 $354 3.5 $190 $355 forward @7 unknown #
coedge $-1 -1 $-1 $277 $277 $191 $278 forward $356 $-1 #
edge $357 -1 $-1 $358 -3.1415926535897931 $358 3.1415926535897931 $191 $359 forward @7 unknown #
loop $-1 -1 $-1 $196 $192 $203 #
vertex $-1 -1 $-1 $193 $360 #
ellipse-curve $-1 -1 $-1 0 0 15.5 0 0 1 1.5 0 0 1 I I #
loop $-1 -1 $-1 $199 $194 $287 #
convexity-sys-attrib $-1 -1 $-1 $-1 $195 #
vertex $-1 -1 $-1 $195 $361 #
ellipse-curve $-1 -1 $-1 25 0 14.5 0 0 1 1.5 0 0 1 I I #
point $-1 -1 $-1 23.5 0 15.5 #
face $-1 -1 $-1 $-1 $362 $16 $-1 $363 reversed single #
point $-1 -1 $-1 -23.5 0 14.5 #
loop $-1 -1 $-1 $279 $275 $203 #
plane-surface $-1 -1 $-1 0 -1.0408340855860843e-017 15.499999999999996 0 0 1 1 0 0 forward_v I I I I #
model_id-kcp-attrib $-1 -1 $-1 $-1 $206 1 1021518917 1021518917 -2065825790 7 #
plane-surface $-1 -1 $-1 30 0 0 -1 0 0 0 0 1 forward_v I I I I #
coedge $-1 -1 $-1 $211 $209 $213 $297 reversed $134 $-1 #
edge $-1 -1 $-1 $224 -15.5 $299 15.5 $223 $364 forward @7 unknown #
vertex $-1 -1 $-1 $297 $365 #
straight-curve $-1 -1 $-1 -30 -3.5 0 0 0 -1 I I #
edge $-1 -1 $-1 $295 -3.5 $299 3.5 $293 $366 forward @7 unknown #
straight-curve $-1 -1 $-1 0 -3.5 -15.5 -1 0 0 I I #
vertex $-1 -1 $-1 $216 $367 #
straight-curve $-1 -1 $-1 0 3.5 -15.5 1 0 0 I I #
point $-1 -1 $-1 30 3.5 -15.5 #
point $-1 -1 $-1 30 -3.5 -15.5 #
straight-curve $-1 -1 $-1 -30 0 15.5 0 -1 0 I I #
point $-1 -1 $-1 -30 3.5 15.5 #
point $-1 -1 $-1 -30 -3.5 15.5 #
straight-curve $-1 -1 $-1 30 -3.5 0 0 0 -1 I I #
straight-curve $-1 -1 $-1 30 3.5 0 0 0 -1 I I #
model_id-kcp-attrib $-1 -1 $-1 $-1 $234 1 1021518917 1021518917 -2065825791 9 #
face $368 -1 $-1 $369 $370 $7 $-1 $371 forward single #
loop $-1 -1 $-1 $-1 $321 $234 #
cone-surface $-1 -1 $-1 30 3.5 0 0 0 1 1.5 0 0 1 I I 0 1 1.5 forward I I I I #
coedge $-1 -1 $-1 $372 $372 $238 $315 forward $235 $-1 #
coedge $-1 -1 $-1 $239 $237 $372 $373 reversed $154 $-1 #
edge $-1 -1 $-1 $249 0 $374 1 $237 $375 forward @7 unknown #
edge $-1 -1 $-1 $374 0 $316 3.1415926535897931 $312 $376 forward @7 unknown #
vertex $-1 -1 $-1 $373 $377 #
straight-curve $-1 -1 $-1 56.5 3.5 0 0 0 1 I I #
coedge $-1 -1 $-1 $378 $378 $379 $380 reversed $241 $-1 #
coedge $-1 -1 $-1 $381 $382 $242 $320 forward $370 $-1 #
edge $383 -1 $-1 $325 0 $324 3.1415926535897931 $242 $384 forward @7 unknown #
coedge $-1 -1 $-1 $385 $243 $382 $386 forward $310 $-1 #
coedge $-1 -1 $-1 $243 $385 $381 $387 reversed $310 $-1 #
attrib_edge_convexity-kcp-attrib $-1 -1 $388 $-1 $244 2 #
vertex $-1 -1 $-1 $320 $389 #
vertex $-1 -1 $-1 $320 $390 #
ellipse-curve $-1 -1 $-1 30 3.5 0 0 0 1 -1.5 0 0 1 I I #
attrib_edge_convexity-kcp-attrib $-1 -1 $391 $-1 $246 2 #
ellipse-curve $-1 -1 $-1 55 3.5 0 0 0 1 1.5 0 0 1 I I #
convexity-sys-attrib $-1 -1 $-1 $248 $161 #
point $-1 -1 $-1 53.5 3.5 0 #
point $-1 -1 $-1 56.5 3.5 0 #
convexity-sys-attrib $-1 -1 $-1 $253 $163 #
attrib_edge_convexity-kcp-attrib $-1 -1 $392 $-1 $255 1 #
straight-curve $-1 -1 $-1 0 7 0 1 0 0 I I #
straight-curve $-1 -1 $-1 60 7 0 0 0 -1 I I #
model_id-kcp-attrib $-1 -1 $-1 $-1 $259 1 1021518917 1021518917 -2065825791 13 #
face $393 -1 $-1 $394 $395 $7 $-1 $396 forward single #
plane-surface $-1 -1 $-1 0 7 0 0 1 0 1 0 0 forward_v I I I I #
convexity-sys-attrib $-1 -1 $-1 $263 $179 #
point $-1 -1 $-1 60 7 0 #
loop $-1 -1 $-1 $-1 $397 $269 #
plane-surface $-1 -1 $-1 30 -3.5 14.5 0 -1 0 0 0 -1 forward_v I I I I #
coedge $-1 -1 $-1 $398 $399 $400 $401 forward $270 $-1 #
coedge $-1 -1 $-1 $402 $272 $399 $403 reversed $188 $-1 #
coedge $-1 -1 $-1 $272 $402 $273 $349 forward $188 $-1 #
coedge $-1 -1 $-1 $275 $400 $272 $347 reversed $289 $-1 #
edge $-1 -1 $-1 $354 -30 $404 30 $272 $405 forward @7 unknown #
coedge $-1 -1 $-1 $274 $273 $406 $407 reversed $120 $-1 #
edge $-1 -1 $-1 $408 0 $354 1 $345 $409 forward @7 unknown #
coedge $-1 -1 $-1 $410 $397 $274 $351 reversed $341 $-1 #
edge $-1 -1 $-1 $411 0 $353 1 $274 $412 forward @7 unknown #
coedge $-1 -1 $-1 $400 $275 $397 $413 reversed $289 $-1 #
vertex $-1 -1 $-1 $351 $414 #
vertex $-1 -1 $-1 $349 $415 #
straight-curve $-1 -1 $-1 -30 0 15.5 0 1 0 I I #
loop $-1 -1 $-1 $282 $277 $287 #
convexity-sys-attrib $-1 -1 $-1 $-1 $278 #
vertex $-1 -1 $-1 $278 $416 #
ellipse-curve $-1 -1 $-1 0 0 14.5 0 0 1 1.5 0 0 1 I I #
point $-1 -1 $-1 1.5 0 15.5 #
point $-1 -1 $-1 26.5 0 14.5 #
loop $-1 -1 $-1 $356 $417 $287 #
plane-surface $-1 -1 $-1 0 -1.0408340855860843e-017 14.499999999999996 0 0 1 1 0 0 forward_v I I I I #
straight-curve $-1 -1 $-1 -30 3.5 0 0 0 -1 I I #
point $-1 -1 $-1 -30 -3.5 -15.5 #
straight-curve $-1 -1 $-1 -30 0 -15.5 0 1 0 I I #
point $-1 -1 $-1 -30 3.5 -15.5 #
model_id-kcp-attrib $-1 -1 $-1 $-1 $309 1 1021518917 1021518917 -2065825791 10 #
face $418 -1 $-1 $180 $419 $7 $-1 $420 forward single #
loop $-1 -1 $-1 $-1 $381 $309 #
cone-surface $-1 -1 $-1 30 3.5 0 0 0 1 1.5 0 0 1 I I 0 1 1.5 forward I I I I #
coedge $-1 -1 $-1 $312 $312 $313 $373 forward $235 $-1 #
edge $-1 -1 $-1 $316 0 $374 3.1415926535897922 $372 $421 forward @7 unknown #
vertex $-1 -1 $-1 $373 $422 #
straight-curve $-1 -1 $-1 53.5 3.5 0 0 0 1 I I #
ellipse-curve $-1 -1 $-1 55 3.5 1 0 0 1 -1.5 0 0 1 I I #
point $-1 -1 $-1 56.5 3.5 1 #
coedge $-1 -1 $-1 $318 $318 $423 $424 reversed $241 $-1 #
coedge $-1 -1 $-1 $425 $426 $318 $380 forward $395 $-1 #
edge $427 -1 $-1 $428 0 $429 3.1415926535897931 $318 $430 forward @7 unknown #
coedge $-1 -1 $-1 $431 $319 $322 $387 forward $370 $-1 #
coedge $-1 -1 $-1 $319 $431 $321 $386 reversed $370 $-1 #
attrib_edge_convexity-kcp-attrib $-1 -1 $432 $-1 $320 2 #
ellipse-curve $-1 -1 $-1 30 3.5 0 0 0 1 1.5 0 0 1 I I #
coedge $-1 -1 $-1 $322 $321 $433 $434 reversed $310 $-1 #
edge $-1 -1 $-1 $325 0 $435 1 $382 $436 forward @7 unknown #
edge $-1 -1 $-1 $324 0 $437 1 $381 $438 forward @7 unknown #
convexity-sys-attrib $-1 -1 $-1 $323 $244 #
point $-1 -1 $-1 28.5 3.5 0 #
point $-1 -1 $-1 31.5 3.5 0 #
convexity-sys-attrib $-1 -1 $-1 $327 $246 #
convexity-sys-attrib $-1 -1 $-1 $333 $255 #
model_id-kcp-attrib $-1 -1 $-1 $-1 $337 1 1021518917 1021518917 -2065825791 14 #
face $439 -1 $-1 $440 $441 $7 $-1 $442 forward single #
loop $-1 -1 $-1 $-1 $425 $337 #
cone-surface $-1 -1 $-1 5 3.5 0 0 0 1 1.5 0 0 1 I I 0 1 1.5 forward I I I I #
coedge $-1 -1 $-1 $350 $443 $352 $413 forward $341 $-1 #
coedge $-1 -1 $-1 $444 $343 $443 $445 reversed $270 $-1 #
coedge $-1 -1 $-1 $343 $444 $344 $403 forward $270 $-1 #
coedge $-1 -1 $-1 $346 $352 $343 $401 reversed $289 $-1 #
edge $-1 -1 $-1 $404 -3.5 $446 3.5 $343 $447 forward @7 unknown #
coedge $-1 -1 $-1 $345 $344 $448 $449 reversed $188 $-1 #
edge $-1 -1 $-1 $450 0 $404 1 $399 $451 forward @7 unknown #
vertex $-1 -1 $-1 $403 $452 #
straight-curve $-1 -1 $-1 0 3.5 15.5 1 0 0 I I #
coedge $-1 -1 $-1 $448 $417 $348 $407 forward $362 $-1 #
edge $453 -1 $-1 $411 -3.5 $408 3.5 $348 $454 forward @7 unknown #
vertex $-1 -1 $-1 $407 $455 #
straight-curve $-1 -1 $-1 -30 3.5 14.5 0 0 1 I I #
coedge $-1 -1 $-1 $443 $350 $417 $456 reversed $341 $-1 #
vertex $-1 -1 $-1 $456 $457 #
straight-curve $-1 -1 $-1 -30 -3.5 14.5 0 0 1 I I #
edge $-1 -1 $-1 $446 -30 $353 30 $397 $458 forward @7 unknown #
point $-1 -1 $-1 -30 -3.5 15.5 #
point $-1 -1 $-1 -30 3.5 15.5 #
point $-1 -1 $-1 -1.5 0 14.5 #
coedge $-1 -1 $-1 $406 $459 $410 $456 forward $362 $-1 #
model_id-kcp-attrib $-1 -1 $-1 $-1 $369 1 1021518917 1021518917 -2065825791 11 #
loop $-1 -1 $-1 $-1 $433 $369 #
plane-surface $-1 -1 $-1 25 0 1 0 0 1 1 0 0 forward_v I I I I #
ellipse-curve $-1 -1 $-1 55 3.4999999999999991 1 0 0 1 1.5 8.8817841970012523e-016 0 1 I I #
point $-1 -1 $-1 53.5 3.5 1 #
coedge $-1 -1 $-1 $460 $461 $378 $424 forward $441 $-1 #
edge $462 -1 $-1 $429 0 $428 3.1415926535897931 $378 $463 forward @7 unknown #
coedge $-1 -1 $-1 $464 $379 $461 $465 forward $395 $-1 #
coedge $-1 -1 $-1 $379 $464 $460 $466 reversed $395 $-1 #
attrib_edge_convexity-kcp-attrib $-1 -1 $467 $-1 $380 2 #
vertex $-1 -1 $-1 $424 $468 #
vertex $-1 -1 $-1 $424 $469 #
ellipse-curve $-1 -1 $-1 5 3.5 0 0 0 1 -1.5 0 0 1 I I #
coedge $-1 -1 $-1 $382 $381 $470 $471 reversed $370 $-1 #
convexity-sys-attrib $-1 -1 $-1 $383 $320 #
coedge $-1 -1 $-1 $470 $470 $385 $434 forward $419 $-1 #
edge $-1 -1 $-1 $437 0 $435 3.1415926535897931 $433 $472 forward @7 unknown #
vertex $-1 -1 $-1 $471 $473 #
straight-curve $-1 -1 $-1 31.5 3.5 0 0 0 1 I I #
vertex $-1 -1 $-1 $471 $474 #
straight-curve $-1 -1 $-1 28.5 3.5 0 0 0 1 I I #
model_id-kcp-attrib $-1 -1 $-1 $-1 $394 1 1021518917 1021518917 -2065825791 15 #
face $475 -1 $-1 $-1 $476 $7 $-1 $477 forward single #
loop $-1 -1 $-1 $-1 $460 $394 #
cone-surface $-1 -1 $-1 5 3.5 0 0 0 1 1.5 0 0 1 I I 0 1 1.5 forward I I I I #
coedge $-1 -1 $-1 $397 $410 $398 $445 forward $341 $-1 #
coedge $-1 -1 $-1 $399 $398 $459 $478 reversed $270 $-1 #
edge $-1 -1 $-1 $479 0 $446 1 $443 $480 forward @7 unknown #
vertex $-1 -1 $-1 $445 $481 #
straight-curve $-1 -1 $-1 30 0 15.5 0 -1 0 I I #
coedge $-1 -1 $-1 $459 $406 $402 $449 forward $362 $-1 #
edge $482 -1 $-1 $408 -30 $450 30 $402 $483 forward @7 unknown #
vertex $-1 -1 $-1 $449 $484 #
straight-curve $-1 -1 $-1 30 3.5 14.5 0 0 1 I I #
point $-1 -1 $-1 30 3.5 15.5 #
convexity-sys-attrib $-1 -1 $-1 $-1 $407 #
straight-curve $-1 -1 $-1 -30 0 14.5 0 1 0 I I #
point $-1 -1 $-1 -30 3.5 14.5 #
edge $485 -1 $-1 $479 -30 $411 30 $410 $486 forward @7 unknown #
point $-1 -1 $-1 -30 -3.5 14.5 #
straight-curve $-1 -1 $-1 0 -3.5 15.5 -1 0 0 I I #
coedge $-1 -1 $-1 $417 $448 $444 $478 forward $362 $-1 #
coedge $-1 -1 $-1 $487 $423 $426 $466 forward $441 $-1 #
coedge $-1 -1 $-1 $423 $487 $425 $465 reversed $441 $-1 #
attrib_edge_convexity-kcp-attrib $-1 -1 $488 $-1 $424 2 #
ellipse-curve $-1 -1 $-1 5 3.5 0 0 0 1 1.5 0 0 1 I I #
coedge $-1 -1 $-1 $426 $425 $489 $490 reversed $395 $-1 #
edge $-1 -1 $-1 $429 0 $491 1 $461 $492 forward @7 unknown #
edge $-1 -1 $-1 $428 0 $493 1 $460 $494 forward @7 unknown #
convexity-sys-attrib $-1 -1 $-1 $427 $380 #
point $-1 -1 $-1 3.5 3.5 0 #
point $-1 -1 $-1 6.5 3.5 0 #
coedge $-1 -1 $-1 $433 $433 $431 $471 forward $419 $-1 #
edge $-1 -1 $-1 $435 0 $437 3.1415926535897922 $470 $495 forward @7 unknown #
ellipse-curve $-1 -1 $-1 30 3.5 1 0 0 1 -1.5 0 0 1 I I #
point $-1 -1 $-1 31.5 3.5 1 #
point $-1 -1 $-1 28.5 3.5 1 #
model_id-kcp-attrib $-1 -1 $-1 $-1 $440 1 1021518917 1021518917 -2065825791 16 #
loop $-1 -1 $-1 $-1 $489 $440 #
plane-surface $-1 -1 $-1 0 0 1 0 0 1 1 0 0 forward_v I I I I #
edge $496 -1 $-1 $450 -3.5 $479 3.5 $444 $497 forward @7 unknown #
vertex $-1 -1 $-1 $456 $498 #
straight-curve $-1 -1 $-1 30 -3.5 14.5 0 0 1 I I #
point $-1 -1 $-1 30 -3.5 15.5 #
convexity-sys-attrib $-1 -1 $-1 $-1 $449 #
straight-curve $-1 -1 $-1 0 3.5 14.5 1 0 0 I I #
point $-1 -1 $-1 30 3.5 14.5 #
convexity-sys-attrib $-1 -1 $-1 $-1 $456 #
straight-curve $-1 -1 $-1 0 -3.5 14.5 -1 0 0 I I #
coedge $-1 -1 $-1 $461 $460 $499 $500 reversed $441 $-1 #
convexity-sys-attrib $-1 -1 $-1 $462 $424 #
coedge $-1 -1 $-1 $499 $499 $464 $490 forward $476 $-1 #
edge $-1 -1 $-1 $493 0 $491 3.1415926535897931 $489 $501 forward @7 unknown #
vertex $-1 -1 $-1 $500 $502 #
straight-curve $-1 -1 $-1 6.5 3.5 0 0 0 1 I I #
vertex $-1 -1 $-1 $500 $503 #
straight-curve $-1 -1 $-1 3.5 3.5 0 0 0 1 I I #
ellipse-curve $-1 -1 $-1 30 3.4999999999999991 1 0 0 1 1.5 8.8817841970012523e-016 0 1 I I #
convexity-sys-attrib $-1 -1 $-1 $-1 $478 #
straight-curve $-1 -1 $-1 30 0 14.5 0 -1 0 I I #
point $-1 -1 $-1 30 -3.5 14.5 #
coedge $-1 -1 $-1 $489 $489 $487 $500 forward $476 $-1 #
edge $-1 -1 $-1 $491 0 $493 3.1415926535897927 $499 $504 forward @7 unknown #
ellipse-curve $-1 -1 $-1 5 3.5 1 0 0 1 -1.5 0 0 1 I I #
point $-1 -1 $-1 6.5 3.5 1 #
point $-1 -1 $-1 3.5 3.5 1 #
ellipse-curve $-1 -1 $-1 5 3.4999999999999996 1 0 0 1 1.5 4.4408920985006262e-016 0 1 I I #
End-of-ACIS-data 