700 0 2 0           
24 FBMach with ACIS - 7.0.3 13 ACIS 7.0.3 NT 24 Wed May 15 23:58:34 2002 
1 9.9999999999999995e-007 1e-010 
body $2 -1 $-1 $3 $-1 $4 #
bdycol-kcp $-1 -1 1 4 $5 $6 $7 $8 #
model_id-kcp-attrib $-1 -1 $-1 $-1 $0 1 1021521511 1021521511 1541275649 1 #
lump $-1 -1 $-1 $-1 $9 $0 #
transform $-1 -1 1 0 0 0 1 0 0 0 1 0 0 0 1 rotate no_reflect no_shear #
body $10 -1 $-1 $11 $-1 $12 #
body $13 -1 $-1 $14 $-1 $15 #
body $16 -1 $-1 $17 $-1 $18 #
body $19 -1 $-1 $20 $-1 $21 #
shell $-1 -1 $-1 $-1 $-1 $22 $-1 $3 #
rgb_color-st-attrib $-1 -1 $23 $-1 $5 0 0 1 #
lump $-1 -1 $-1 $-1 $24 $5 #
transform $-1 -1 1 0 0 0 1 0 0 0 1 0 0.00058324234446338608 7.4995000000000003 1 no_rotate no_reflect no_shear #
rgb_color-st-attrib $-1 -1 $25 $-1 $6 0.5 0.5 1 #
lump $-1 -1 $-1 $-1 $26 $6 #
transform $-1 -1 1 0 0 0 1 0 0 0 1 0 0.00058324234446338608 7.4995000000000003 1 no_rotate no_reflect no_shear #
model_id-kcp-attrib $-1 -1 $-1 $-1 $7 1 1021521511 1021521511 1541275650 1 #
lump $-1 -1 $-1 $-1 $27 $7 #
transform $-1 -1 1 0 0 0 1 0 0 0 1 0 0.00058324234446338608 7.4995000000000003 1 no_rotate no_reflect no_shear #
rgb_color-st-attrib $-1 -1 $28 $-1 $8 0.59999999999999998 0.90000000000000002 1 #
lump $-1 -1 $-1 $-1 $29 $8 #
transform $-1 -1 1 0 0 0 1 0 0 0 1 0 0.00058324234446338608 7.4995000000000003 1 no_rotate no_reflect no_shear #
face $30 -1 $-1 $31 $32 $9 $-1 $33 reversed single #
model_id-kcp-attrib $-1 -1 $-1 $10 $5 1 1021521511 1021521511 1528692740 1 #
shell $-1 -1 $-1 $-1 $-1 $34 $-1 $11 #
model_id-kcp-attrib $-1 -1 $-1 $13 $6 1 1021521511 1021521511 1531707395 1 #
shell $-1 -1 $-1 $-1 $-1 $35 $-1 $14 #
shell $-1 -1 $-1 $-1 $-1 $36 $-1 $17 #
model_id-kcp-attrib $-1 -1 $-1 $19 $8 1 1021521511 1021521512 1532821509 1 #
shell $-1 -1 $-1 $-1 $-1 $37 $-1 $20 #
model_id-kcp-attrib $-1 -1 $-1 $-1 $22 1 1021521511 1021521511 1541275649 2 #
face $38 -1 $-1 $39 $40 $9 $-1 $41 forward single #
loop $-1 -1 $-1 $-1 $42 $22 #
plane-surface $-1 -1 $-1 0 0 0 0 0 1 1 0 0 forward_v I I I I #
face $-1 -1 $-1 $43 $44 $24 $-1 $45 forward single #
face $-1 -1 $-1 $46 $47 $26 $-1 $48 reversed single #
face $49 -1 $-1 $50 $51 $27 $-1 $52 forward single #
face $-1 -1 $-1 $53 $54 $29 $-1 $55 forward single #
model_id-kcp-attrib $-1 -1 $-1 $-1 $31 1 1021521511 1021521511 1541275649 3 #
face $56 -1 $-1 $57 $58 $9 $-1 $59 forward single #
loop $-1 -1 $-1 $-1 $60 $31 #
torus-surface $-1 -1 $-1 0 0 0.5 0 0 1 5.5 0.5 1 0 0 forward_v I I I I #
coedge $-1 -1 $-1 $61 $62 $63 $64 forward $32 $-1 #
face $-1 -1 $-1 $65 $66 $24 $-1 $67 forward single #
loop $-1 -1 $-1 $68 $69 $34 #
cone-surface $-1 -1 $-1 0 -0.00058324234446338608 7.2004999999999981 0 0 1 0 5 0 1 I I 0 1 5 forward I I I I #
face $-1 -1 $-1 $70 $71 $26 $-1 $72 reversed single #
loop $-1 -1 $-1 $-1 $73 $35 #
plane-surface $-1 -1 $-1 0 -0.011970454818632348 -7.4995000000000012 0 0 -1 1 0 0 forward_v I I I I #
model_id-kcp-attrib $-1 -1 $-1 $-1 $36 1 1021521511 1021521511 1541275650 2 #
face $-1 -1 $-1 $74 $75 $27 $-1 $76 reversed single #
loop $-1 -1 $-1 $-1 $77 $36 #
plane-surface $-1 -1 $-1 0 0 7.5004999999999997 0 0 1 1 0 0 forward_v I I I I #
face $-1 -1 $-1 $78 $79 $29 $-1 $80 forward single #
loop $-1 -1 $-1 $-1 $81 $37 #
plane-surface $-1 -1 $-1 8.8817841970012523e-016 5.7173617048325731 7.450499999999999 1 1.2246063538223773e-015 0 0 0 -1 forward_v I I I I #
model_id-kcp-attrib $-1 -1 $-1 $-1 $39 1 1021521511 1021521511 1541275649 4 #
face $82 -1 $-1 $83 $84 $9 $-1 $85 reversed single #
loop $-1 -1 $-1 $-1 $86 $39 #
cone-surface $-1 -1 $-1 -4.5961940777125587 3.8890872965260121 0.5 0.70710678118654713 -0.70710678118654791 0 0 0 -0.5 1 I I 0 1 0.5 forward I I I I #
coedge $-1 -1 $-1 $63 $87 $86 $88 forward $40 $-1 #
coedge $-1 -1 $-1 $89 $42 $90 $91 forward $32 $-1 #
coedge $-1 -1 $-1 $42 $89 $92 $93 forward $32 $-1 #
coedge $-1 -1 $-1 $94 $60 $42 $64 reversed $40 $-1 #
edge $95 -1 $-1 $96 -6.6062857663645685e-016 $97 5.3157175877073071 $42 $98 forward @7 unknown #
face $-1 -1 $-1 $-1 $99 $24 $-1 $100 reversed single #
loop $-1 -1 $-1 $-1 $101 $43 #
plane-surface $-1 -1 $-1 -0.16596128810993688 0.400082750239455 7.4505000000000008 -2.3927275979468901e-031 -1.0198035559083141e-031 1 1 0 2.3927275979468901e-031 forward_v I I I I #
loop $-1 -1 $-1 $-1 $102 $34 #
coedge $-1 -1 $-1 $69 $69 $101 $103 forward $44 $-1 #
face $-1 -1 $-1 $104 $105 $26 $-1 $106 reversed single #
loop $-1 -1 $-1 $-1 $107 $46 #
plane-surface $-1 -1 $-1 6 0 0 -1 0 0 0 0 1 forward_v I I I I #
coedge $-1 -1 $-1 $108 $109 $110 $111 forward $47 $-1 #
face $-1 -1 $-1 $112 $113 $27 $-1 $114 reversed single #
loop $-1 -1 $-1 $-1 $115 $50 #
plane-surface $-1 -1 $-1 0 0 -7.5004999999999997 0 0 1 1 0 0 forward_v I I I I #
coedge $-1 -1 $-1 $116 $117 $118 $119 forward $51 $-1 #
face $-1 -1 $-1 $120 $121 $29 $-1 $122 forward single #
loop $-1 -1 $-1 $-1 $123 $53 #
cone-surface $-1 -1 $-1 0 -0.00058324234446338608 7.4504999999999981 0 0 1 5.7179449471770374 0 0 1 I I 0 -1 5.7179449471770374 forward I I I I #
coedge $-1 -1 $-1 $124 $125 $126 $127 forward $54 $-1 #
model_id-kcp-attrib $-1 -1 $-1 $-1 $57 1 1021521511 1021521511 1541275649 5 #
face $128 -1 $-1 $129 $130 $9 $-1 $131 forward single #
loop $-1 -1 $-1 $-1 $132 $57 #
plane-surface $-1 -1 $-1 -4.2426406871192848 4.2426406871192857 15 -0.70710678118654779 -0.70710678118654735 0 0.70710678118654735 -0.70710678118654779 0 forward_v I I I I #
coedge $-1 -1 $-1 $133 $90 $60 $88 reversed $58 $-1 #
coedge $-1 -1 $-1 $60 $94 $134 $135 forward $40 $-1 #
edge $-1 -1 $-1 $136 0 $97 1 $86 $137 forward @7 unknown #
coedge $-1 -1 $-1 $62 $61 $138 $139 reversed $32 $-1 #
coedge $-1 -1 $-1 $86 $140 $61 $91 reversed $58 $-1 #
edge $141 -1 $-1 $97 0 $142 0.050209820513997722 $61 $143 forward @7 unknown #
coedge $-1 -1 $-1 $144 $145 $62 $93 reversed $146 $-1 #
edge $147 -1 $-1 $148 0 $96 0.050209820513998693 $62 $149 forward @7 unknown #
coedge $-1 -1 $-1 $87 $63 $145 $150 reversed $40 $-1 #
attrib_edge_convexity-kcp-attrib $-1 -1 $151 $-1 $64 3 #
vertex $-1 -1 $-1 $93 $152 #
vertex $-1 -1 $-1 $91 $153 #
ellipse-curve $-1 -1 $-1 1.1102230246251565e-016 5.5511151231257827e-017 0 0 0 -1 0.50000000000000344 5.4772255750516603 0 1 I I #
loop $-1 -1 $-1 $-1 $154 $65 #
plane-surface $-1 -1 $-1 -0.16596128810993688 0.400082750239455 7.2005000000000008 -2.3927275979468901e-031 -1.0198035559083141e-031 1 1 0 2.3927275979468901e-031 forward_v I I I I #
coedge $-1 -1 $-1 $101 $101 $69 $103 reversed $66 $-1 #
coedge $-1 -1 $-1 $102 $102 $154 $155 reversed $68 $-1 #
edge $-1 -1 $-1 $156 2.4492127076447545e-016 $156 6.2831853071795862 $69 $157 forward @7 unknown #
face $-1 -1 $-1 $158 $159 $26 $-1 $160 reversed single #
loop $-1 -1 $-1 $-1 $110 $70 #
plane-surface $-1 -1 $-1 0 -6.0005832423444634 0 0 1 0 0 0 1 forward_v I I I I #
coedge $-1 -1 $-1 $161 $162 $108 $163 reversed $71 $-1 #
coedge $-1 -1 $-1 $164 $73 $107 $163 forward $47 $-1 #
coedge $-1 -1 $-1 $73 $164 $165 $166 forward $47 $-1 #
coedge $-1 -1 $-1 $167 $168 $73 $111 reversed $105 $-1 #
edge $169 -1 $-1 $170 -6 $171 6 $110 $172 forward @7 unknown #
face $-1 -1 $-1 $173 $174 $27 $-1 $175 reversed single #
loop $-1 -1 $-1 $-1 $176 $74 #
plane-surface $-1 -1 $-1 0 -6.0005832423444634 0 0 1 0 0 0 1 forward_v I I I I #
coedge $-1 -1 $-1 $177 $178 $179 $180 forward $75 $-1 #
coedge $-1 -1 $-1 $181 $77 $182 $183 forward $51 $-1 #
coedge $-1 -1 $-1 $77 $181 $184 $185 forward $51 $-1 #
coedge $-1 -1 $-1 $186 $187 $77 $119 reversed $188 $-1 #
edge $-1 -1 $-1 $189 -6.0005832423444634 $190 6.0005832423444634 $118 $191 forward @7 unknown #
face $-1 -1 $-1 $192 $193 $29 $-1 $194 forward single #
loop $-1 -1 $-1 $-1 $195 $78 #
cone-surface $-1 -1 $-1 0 -0.00058324234446338608 7.4504999999999981 0 0 1 0 5 0 1 I I 0 1 5 forward I I I I #
coedge $-1 -1 $-1 $196 $197 $198 $199 forward $79 $-1 #
coedge $-1 -1 $-1 $200 $81 $201 $202 reversed $54 $-1 #
coedge $-1 -1 $-1 $81 $200 $196 $203 forward $54 $-1 #
coedge $-1 -1 $-1 $198 $204 $81 $127 reversed $205 $-1 #
edge $-1 -1 $-1 $206 -3.1054449471770367 $207 -2.3875000000000002 $81 $208 forward @7 unknown #
model_id-kcp-attrib $-1 -1 $-1 $-1 $83 1 1021521511 1021521511 1541275649 6 #
face $209 -1 $-1 $210 $211 $9 $-1 $212 reversed single #
loop $-1 -1 $-1 $-1 $213 $83 #
torus-surface $-1 -1 $-1 0 0 14.449999999999999 0 0 1 5.4499999999999993 0.5 0 1 0 forward_v I I I I #
coedge $-1 -1 $-1 $214 $215 $216 $217 forward $84 $-1 #
coedge $-1 -1 $-1 $140 $86 $218 $219 forward $58 $-1 #
coedge $-1 -1 $-1 $220 $221 $87 $135 reversed $222 $-1 #
edge $-1 -1 $-1 $223 0 $136 5.497787143782138 $134 $224 forward @7 unknown #
vertex $-1 -1 $-1 $135 $225 #
intcurve-curve $-1 -1 $-1 forward { surfintcur full nurbs 3 open 8 
	0 3 0.13794472386415002 1 0.2769417539632556 1 0.41733145926615989 1 0.55951950139643447 1 
	0.70387406027571187 1 0.85059166788715135 1 1 3 
	-4.2426406871192848 4.2426406871192857 0.5 1 
	-4.2426532719216805 4.2428635472218961 0.46673985738046403 1 
	-4.2426388918461875 4.2334226646897291 0.40061428545396438 1 
	-4.2425922263455309 4.1893725905509349 0.29993376613612716 0.99999999999999978 
	-4.2422300703482305 4.1142007083298848 0.20631149227070558 0.99999999999999989 
	-4.24115580639205 4.0086885478264698 0.12369962178667107 1 
	-4.2387537106741568 3.8733137564246469 0.057089557816929717 1 
	-4.2343947368224439 3.7102620338803725 0.011449667313363811 1 
	-4.2294709122827348 3.5860507313038701 0.00073397058434958144 0.99999999999999989 
	-4.2265367368006901 3.5194299556141435 0 1 
	0.001 
	torus 0 0 0.5 0 0 1 5.5 0.5 1 0 0 forward_v I I I I 
	cone -4.5961940777125587 3.8890872965260121 0.5 0.70710678118654713 -0.70710678118654791 0 0 0 -0.5 1 I I 0 1 0.5 forward I I I I 
	nullbs 
	nullbs 
	I F 0.99999925321297534 
	0 
	1 0.99999925321297534 
	0 
	} I I #
coedge $-1 -1 $-1 $226 $227 $89 $139 forward $228 $-1 #
edge $229 -1 $-1 $148 5.9804960505016366e-016 $142 0.96914277623237799 $89 $230 forward @7 unknown #
coedge $-1 -1 $-1 $90 $133 $226 $231 reversed $58 $-1 #
attrib_edge_convexity-kcp-attrib $-1 -1 $232 $-1 $91 3 #
vertex $-1 -1 $-1 $139 $233 #
straight-curve $-1 -1 $-1 -4.2265367368006901 3.5194299556141431 0 0.70710678118654757 -0.70710678118654757 0 I I #
coedge $-1 -1 $-1 $234 $92 $227 $235 forward $146 $-1 #
coedge $-1 -1 $-1 $92 $234 $94 $150 forward $146 $-1 #
loop $-1 -1 $-1 $-1 $144 $236 #
attrib_edge_convexity-kcp-attrib $-1 -1 $237 $-1 $93 3 #
vertex $-1 -1 $-1 $93 $238 #
straight-curve $-1 -1 $-1 0.5 5.4270157545376625 0 -1.1055835424821146e-015 1 0 I I #
edge $-1 -1 $-1 $223 0 $96 1 $145 $239 forward @7 unknown #
convexity-sys-attrib $-1 -1 $-1 $95 $64 #
point $-1 -1 $-1 0.49999999999999994 5.4772255750516612 0 #
point $-1 -1 $-1 -4.2265367368006901 3.5194299556141431 0 #
coedge $-1 -1 $-1 $154 $154 $102 $155 forward $99 $-1 #
edge $240 -1 $-1 $241 -0.78539816339744706 $241 5.4977871437821388 $102 $242 forward @7 unknown #
vertex $-1 -1 $-1 $103 $243 #
ellipse-curve $-1 -1 $-1 0 -0.00058324234446338608 7.4504999999999981 0 0 -1 0 5 0 1 I I #
face $-1 -1 $-1 $244 $245 $26 $-1 $246 reversed single #
loop $-1 -1 $-1 $-1 $247 $104 #
plane-surface $-1 -1 $-1 0 0 -7.5004999999999997 0 0 1 1 0 0 forward_v I I I I #
coedge $-1 -1 $-1 $248 $107 $168 $249 forward $71 $-1 #
coedge $-1 -1 $-1 $107 $248 $250 $251 reversed $71 $-1 #
edge $252 -1 $-1 $171 -5.9945980149351472 $253 6.0065684697537796 $107 $254 forward @7 unknown #
coedge $-1 -1 $-1 $109 $108 $255 $256 forward $47 $-1 #
coedge $-1 -1 $-1 $257 $258 $109 $166 reversed $245 $-1 #
edge $259 -1 $-1 $260 -6.0065684697537796 $170 5.9945980149351472 $165 $261 forward @7 unknown #
coedge $-1 -1 $-1 $262 $110 $258 $263 forward $105 $-1 #
coedge $-1 -1 $-1 $110 $262 $161 $249 reversed $105 $-1 #
convexity-sys-attrib $-1 -1 $-1 $-1 $111 #
vertex $-1 -1 $-1 $263 $264 #
vertex $-1 -1 $-1 $249 $265 #
straight-curve $-1 -1 $-1 0 -6.0005832423444634 -7.4995000000000012 1 0 0 I I #
face $-1 -1 $-1 $266 $267 $27 $-1 $268 reversed single #
loop $-1 -1 $-1 $-1 $269 $112 #
plane-surface $-1 -1 $-1 -6 0 0 1 0 0 0 0 -1 forward_v I I I I #
coedge $-1 -1 $-1 $270 $184 $271 $272 forward $113 $-1 #
coedge $-1 -1 $-1 $273 $115 $270 $274 forward $75 $-1 #
coedge $-1 -1 $-1 $115 $273 $275 $276 forward $75 $-1 #
coedge $-1 -1 $-1 $187 $186 $115 $180 reversed $188 $-1 #
edge $-1 -1 $-1 $277 -6.0005832423444634 $278 6.0005832423444634 $179 $279 forward @7 unknown #
coedge $-1 -1 $-1 $117 $116 $280 $281 forward $51 $-1 #
coedge $-1 -1 $-1 $282 $283 $116 $183 reversed $267 $-1 #
edge $-1 -1 $-1 $190 -6 $284 6 $182 $285 forward @7 unknown #
coedge $-1 -1 $-1 $176 $286 $117 $185 reversed $113 $-1 #
edge $-1 -1 $-1 $287 -6 $189 6 $184 $288 forward @7 unknown #
coedge $-1 -1 $-1 $179 $118 $286 $289 forward $188 $-1 #
coedge $-1 -1 $-1 $118 $179 $282 $290 reversed $188 $-1 #
loop $-1 -1 $-1 $-1 $186 $266 #
vertex $-1 -1 $-1 $119 $291 #
vertex $-1 -1 $-1 $119 $292 #
straight-curve $-1 -1 $-1 6 0 7.5004999999999997 0 1 0 I I #
face $-1 -1 $-1 $293 $294 $29 $-1 $295 forward single #
loop $-1 -1 $-1 $-1 $296 $120 #
plane-surface $-1 -1 $-1 -3.5355339059327373 3.5349506635882744 7.450499999999999 -0.70710678118654779 -0.70710678118654735 0 0 0 1 forward_v I I I I #
coedge $-1 -1 $-1 $297 $201 $204 $298 forward $121 $-1 #
coedge $-1 -1 $-1 $299 $123 $125 $203 reversed $79 $-1 #
coedge $-1 -1 $-1 $123 $299 $300 $301 forward $79 $-1 #
coedge $-1 -1 $-1 $302 $126 $123 $199 reversed $205 $-1 #
edge $-1 -1 $-1 $303 2.3561944901923448 $206 7.8539816339744828 $123 $304 forward @7 unknown #
coedge $-1 -1 $-1 $125 $124 $305 $306 reversed $54 $-1 #
coedge $-1 -1 $-1 $195 $307 $124 $202 forward $121 $-1 #
edge $308 -1 $-1 $309 0 $207 0.050000000000000711 $201 $310 forward @7 unknown #
edge $-1 -1 $-1 $311 0 $206 0.050000000000000711 $125 $312 forward @7 unknown #
coedge $-1 -1 $-1 $126 $302 $195 $298 reversed $205 $-1 #
loop $-1 -1 $-1 $-1 $198 $313 #
vertex $-1 -1 $-1 $203 $314 #
vertex $-1 -1 $-1 $202 $315 #
straight-curve $-1 -1 $-1 4.148354023573303e-015 2.6119167576555364 7.5004999999999988 1.2246063538223773e-015 -1 0 I I #
model_id-kcp-attrib $-1 -1 $-1 $-1 $129 1 1021521511 1021521511 1541275649 7 #
face $316 -1 $-1 $317 $318 $9 $-1 $319 reversed single #
loop $-1 -1 $-1 $-1 $320 $129 #
plane-surface $-1 -1 $-1 1.2246063538223773e-015 5 15 1 1.2246063538223773e-015 0 -1.2246063538223773e-015 1 0 forward_v I I I I #
coedge $-1 -1 $-1 $321 $322 $323 $324 forward $130 $-1 #
coedge $-1 -1 $-1 $218 $132 $325 $326 reversed $84 $-1 #
coedge $-1 -1 $-1 $132 $327 $328 $329 reversed $84 $-1 #
coedge $-1 -1 $-1 $322 $321 $132 $217 reversed $130 $-1 #
edge $330 -1 $-1 $331 1.8841109504205362e-015 $332 1.5707963267949028 $132 $333 forward @7 unknown #
coedge $-1 -1 $-1 $334 $214 $133 $219 reversed $84 $-1 #
edge $335 -1 $-1 $136 0 $336 0.049999999999999906 $218 $337 forward @7 unknown #
coedge $-1 -1 $-1 $338 $134 $339 $340 forward $222 $-1 #
coedge $-1 -1 $-1 $134 $338 $334 $341 reversed $222 $-1 #
loop $-1 -1 $-1 $-1 $221 $342 #
vertex $-1 -1 $-1 $340 $343 #
ellipse-curve $-1 -1 $-1 0 0 0.5 0 0 -1 1.8369095307335659e-015 6 0 1 I I #
point $-1 -1 $-1 -4.2426406871192848 4.2426406871192857 0.5 #
coedge $-1 -1 $-1 $344 $138 $140 $231 forward $228 $-1 #
coedge $-1 -1 $-1 $138 $344 $144 $235 reversed $228 $-1 #
loop $-1 -1 $-1 $-1 $226 $345 #
attrib_edge_convexity-kcp-attrib $-1 -1 $346 $-1 $139 3 #
ellipse-curve $-1 -1 $-1 9.9920072216264089e-016 -3.5527136788005009e-015 0 0 0 1 0.50000000000000233 5.427015754537666 0 1 I I #
edge $-1 -1 $-1 $142 0 $336 1 $226 $347 forward @7 unknown #
convexity-sys-attrib $-1 -1 $-1 $141 $91 #
point $-1 -1 $-1 -4.1910330322330838 3.483926251046535 0 #
coedge $-1 -1 $-1 $145 $144 $348 $349 forward $146 $-1 #
edge $-1 -1 $-1 $148 0 $350 1 $144 $351 forward @7 unknown #
face $352 -1 $-1 $345 $146 $9 $-1 $353 forward single #
convexity-sys-attrib $-1 -1 $-1 $147 $93 #
point $-1 -1 $-1 0.5 5.4270157545376625 0 #
intcurve-curve $-1 -1 $-1 forward { surfintcur full nurbs 3 open 8 
	0 3 0.13794472386415002 1 0.27694175396325571 1 0.41733145926615989 1 0.55951950139643436 1 
	0.70387406027571175 1 0.85059166788715135 1 1 3 
	1.8369095307335659e-015 6 0.5 1 
	-0.00014868709069856912 6.0001664846889264 0.46673985738046392 0.99999999999999978 
	0.0065168567192843904 5.9934806043811477 0.4006142854539636 1 
	0.037631965362641621 5.9622995007538782 0.29993376613612616 1.0000000000000002 
	0.090530430074158758 5.9088888701192746 0.20631149227070539 0.99999999999999978 
	0.16437917493556939 5.8335208866014687 0.12369962178667236 1.0000000000000002 
	0.25840506976632943 5.7360979154283447 0.057089557816929551 1.0000000000000002 
	0.37061778849197641 5.6177206767635806 0.011449667313364035 1.0000000000000002 
	0.45496677312243472 5.5264083526903187 0.00073397058434963012 0.99999999999999978 
	0.50000000000000355 5.4772255750516603 0 1 
	0.001 
	cone 0.5 5.4270157545376625 0.5 -1.1625691632020241e-015 1 0 0 0 -0.5 1 I I 0 1 0.5 forward I I I I 
	torus 0 0 0.5 0 0 1 5.5 0.5 1 0 0 forward_v I I I I 
	nullbs 
	nullbs 
	I F 0.99999925321297534 
	0 
	1 0.99999925321297534 
	0 
	} I I #
convexity-sys-attrib $-1 -1 $-1 $-1 $155 #
vertex $-1 -1 $-1 $155 $354 #
ellipse-curve $-1 -1 $-1 0 -0.00058324234446338608 7.2004999999999981 0 0 -1 0 5 0 1 I I #
point $-1 -1 $-1 1.2246063538223773e-015 4.9994167576555366 7.450499999999999 #
face $-1 -1 $-1 $-1 $355 $26 $-1 $356 reversed single #
loop $-1 -1 $-1 $-1 $165 $158 #
plane-surface $-1 -1 $-1 -6 0 0 1 0 0 0 0 -1 forward_v I I I I #
coedge $-1 -1 $-1 $357 $358 $248 $359 forward $159 $-1 #
coedge $-1 -1 $-1 $162 $161 $247 $359 reversed $71 $-1 #
edge $-1 -1 $-1 $171 7.4995000000000012 $360 7.5004999999999997 $161 $361 forward @7 unknown #
coedge $-1 -1 $-1 $362 $255 $162 $251 forward $355 $-1 #
edge $-1 -1 $-1 $253 7.4995000000000012 $363 7.5004999999999997 $162 $364 forward @7 unknown #
convexity-sys-attrib $-1 -1 $-1 $-1 $163 #
vertex $-1 -1 $-1 $251 $365 #
straight-curve $-1 -1 $-1 6 -0.0059852274093161739 -7.4995000000000012 0 1 0 I I #
coedge $-1 -1 $-1 $250 $366 $164 $256 reversed $355 $-1 #
edge $367 -1 $-1 $253 -6 $260 6 $255 $368 forward @7 unknown #
coedge $-1 -1 $-1 $369 $165 $366 $370 forward $245 $-1 #
coedge $-1 -1 $-1 $165 $369 $167 $263 reversed $245 $-1 #
convexity-sys-attrib $-1 -1 $-1 $-1 $166 #
vertex $-1 -1 $-1 $370 $371 #
straight-curve $-1 -1 $-1 -6 -0.0059852274093161739 -7.4995000000000012 0 -1 0 I I #
coedge $-1 -1 $-1 $168 $167 $357 $372 reversed $105 $-1 #
edge $-1 -1 $-1 $170 7.4995000000000012 $373 7.5004999999999997 $258 $374 forward @7 unknown #
point $-1 -1 $-1 -6 -6.0005832423444634 -7.4995000000000012 #
point $-1 -1 $-1 6 -6.0005832423444634 -7.4995000000000012 #
face $-1 -1 $-1 $-1 $188 $27 $-1 $375 reversed single #
loop $-1 -1 $-1 $-1 $282 $173 #
plane-surface $-1 -1 $-1 0 6.0005832423444634 0 0 -1 0 0 0 -1 forward_v I I I I #
coedge $-1 -1 $-1 $376 $280 $283 $377 forward $174 $-1 #
coedge $-1 -1 $-1 $286 $176 $177 $274 reversed $113 $-1 #
coedge $-1 -1 $-1 $280 $376 $176 $272 reversed $174 $-1 #
edge $-1 -1 $-1 $287 -7.5004999999999997 $378 7.5004999999999997 $271 $379 forward @7 unknown #
coedge $-1 -1 $-1 $178 $177 $376 $380 forward $75 $-1 #
edge $-1 -1 $-1 $278 -6 $378 6 $270 $381 forward @7 unknown #
coedge $-1 -1 $-1 $283 $282 $178 $276 reversed $267 $-1 #
edge $-1 -1 $-1 $382 -6 $277 6 $275 $383 forward @7 unknown #
vertex $-1 -1 $-1 $180 $384 #
vertex $-1 -1 $-1 $289 $385 #
straight-curve $-1 -1 $-1 6 0 -7.5004999999999997 0 -1 0 I I #
coedge $-1 -1 $-1 $269 $271 $181 $281 reversed $174 $-1 #
edge $-1 -1 $-1 $284 -6.0005832423444634 $287 6.0005832423444634 $280 $386 forward @7 unknown #
coedge $-1 -1 $-1 $275 $182 $187 $290 forward $267 $-1 #
coedge $-1 -1 $-1 $182 $275 $269 $377 reversed $267 $-1 #
vertex $-1 -1 $-1 $183 $387 #
straight-curve $-1 -1 $-1 0 6.0005832423444634 7.5004999999999997 -1 0 0 I I #
coedge $-1 -1 $-1 $184 $270 $186 $289 reversed $113 $-1 #
vertex $-1 -1 $-1 $281 $388 #
straight-curve $-1 -1 $-1 0 -6.0005832423444634 7.5004999999999997 1 0 0 I I #
edge $-1 -1 $-1 $189 -7.5004999999999997 $278 7.5004999999999997 $186 $389 forward @7 unknown #
edge $-1 -1 $-1 $190 -7.5004999999999997 $277 7.5004999999999997 $187 $390 forward @7 unknown #
point $-1 -1 $-1 6 -6.0005832423444634 7.5004999999999997 #
point $-1 -1 $-1 6 6.0005832423444634 7.5004999999999997 #
face $-1 -1 $-1 $391 $392 $29 $-1 $393 forward single #
loop $-1 -1 $-1 $-1 $394 $192 #
plane-surface $-1 -1 $-1 -6 6.0005832423444634 7.4504999999999981 0 1 0 0 0 1 forward_v I I I I #
coedge $-1 -1 $-1 $395 $300 $396 $397 reversed $193 $-1 #
coedge $-1 -1 $-1 $307 $195 $395 $398 reversed $121 $-1 #
edge $-1 -1 $-1 $207 1.7763568394002506e-016 $399 5.497787143782138 $195 $400 forward @7 unknown #
coedge $-1 -1 $-1 $197 $196 $401 $402 reversed $79 $-1 #
coedge $-1 -1 $-1 $296 $403 $197 $301 reversed $193 $-1 #
edge $-1 -1 $-1 $404 0 $303 0.050000000000000711 $197 $405 forward @7 unknown #
coedge $-1 -1 $-1 $204 $198 $403 $406 reversed $205 $-1 #
vertex $-1 -1 $-1 $301 $407 #
ellipse-curve $-1 -1 $-1 0 -0.00058324234446338608 7.5004999999999988 0 0 1 5.7179449471770374 0 0 1 I I #
coedge $-1 -1 $-1 $408 $401 $200 $306 forward $409 $-1 #
edge $410 -1 $-1 $311 -3.1054449471770367 $309 -2.3875000000000002 $200 $411 forward @7 unknown #
coedge $-1 -1 $-1 $201 $297 $408 $412 reversed $121 $-1 #
convexity-sys-attrib $-1 -1 $-1 $-1 $202 #
vertex $-1 -1 $-1 $306 $413 #
straight-curve $-1 -1 $-1 8.8817841970012523e-016 4.9994167576555366 7.450499999999999 0 0 1 I I #
vertex $-1 -1 $-1 $402 $414 #
straight-curve $-1 -1 $-1 8.8817841970012523e-016 5.7173617048325731 7.450499999999999 0 0 1 I I #
face $-1 -1 $-1 $415 $416 $29 $-1 $417 forward single #
point $-1 -1 $-1 8.8817841970012523e-016 5.7173617048325731 7.5004999999999997 #
point $-1 -1 $-1 8.8817841970012523e-016 4.9994167576555366 7.5004999999999997 #
model_id-kcp-attrib $-1 -1 $-1 $-1 $210 1 1021521511 1021521511 1541275649 8 #
face $418 -1 $-1 $419 $420 $9 $-1 $421 forward single #
loop $-1 -1 $-1 $-1 $422 $210 #
cone-surface $-1 -1 $-1 0 0 15 0 0 1 0 5 0 1 I I 0 1 5 forward I I I I #
coedge $-1 -1 $-1 $423 $424 $425 $426 forward $211 $-1 #
coedge $-1 -1 $-1 $216 $213 $427 $428 forward $130 $-1 #
coedge $-1 -1 $-1 $213 $216 $429 $430 reversed $130 $-1 #
coedge $-1 -1 $-1 $424 $431 $213 $324 reversed $211 $-1 #
edge $432 -1 $-1 $433 1.776356839400252e-015 $434 1.5707963267948986 $323 $435 forward @7 unknown #
coedge $-1 -1 $-1 $427 $436 $214 $326 forward $437 $-1 #
edge $438 -1 $-1 $336 0 $332 13.949999999999999 $214 $439 forward @7 unknown #
coedge $-1 -1 $-1 $215 $440 $441 $442 reversed $84 $-1 #
coedge $-1 -1 $-1 $443 $429 $215 $329 forward $444 $-1 #
edge $445 -1 $-1 $331 0 $446 0.4500000000000004 $215 $447 forward @7 unknown #
attrib_edge_convexity-kcp-attrib $-1 -1 $448 $-1 $217 2 #
vertex $-1 -1 $-1 $329 $449 #
vertex $-1 -1 $-1 $326 $450 #
ellipse-curve $-1 -1 $-1 -3.853731957466684 3.8537319574666848 14.450000000000001 -0.70710678118654779 -0.70710678118654735 1.2560739669470255e-015 1.3322676295501878e-015 -4.4408920985006262e-016 0.49999999999999822 1 I I #
coedge $-1 -1 $-1 $451 $218 $221 $341 forward $84 $-1 #
attrib_edge_convexity-kcp-attrib $-1 -1 $452 $-1 $219 3 #
vertex $-1 -1 $-1 $219 $453 #
straight-curve $-1 -1 $-1 -4.2426406871192848 4.2426406871192857 0.5 0.70710678118654757 -0.70710678118654757 0 I I #
coedge $-1 -1 $-1 $221 $220 $454 $455 reversed $222 $-1 #
coedge $-1 -1 $-1 $348 $456 $220 $340 reversed $211 $-1 #
edge $457 -1 $-1 $223 0 $458 14 $220 $459 forward @7 unknown #
edge $460 -1 $-1 $136 0 $461 14 $221 $462 forward @7 unknown #
face $463 -1 $-1 $236 $222 $9 $-1 $464 forward single #
point $-1 -1 $-1 1.8369095307335659e-015 6 0.5 #
coedge $-1 -1 $-1 $227 $226 $436 $465 reversed $228 $-1 #
face $466 -1 $-1 $467 $228 $9 $-1 $468 forward single #
convexity-sys-attrib $-1 -1 $-1 $229 $139 #
intcurve-curve $-1 -1 $-1 forward { surfintcur full nurbs 3 open 8 
	0 3 0.14940840325719423 1 0.29612629818062175 1 0.4404811416958907 1 0.58266915840536548 1 
	0.72305871379007258 1 0.86205542158949366 1 1 3 
	-4.1910330322330829 3.4839262510465359 0 1 
	-4.1939945260986082 3.5505553087310142 0.00073221265022168497 1 
	-4.198964108169486 3.6747843485736755 0.011443338475471097 1.0000000000000002 
	-4.2033630715768666 3.8378671856438413 0.057068082168253799 0.99999999999999978 
	-4.205787081895437 3.9732738730404065 0.12367027152958752 0.99999999999999978 
	-4.2068710436076042 4.0788117849173906 0.20628083577607942 1 
	-4.2072364550810928 4.1540033699209573 0.29990971170158232 1.0000000000000002 
	-4.2072835360649483 4.1980646063166178 0.40060029936254798 1 
	-4.2072980456258744 4.2075081333655424 0.46673481276764783 0.99999999999999978 
	-4.2072853480599575 4.2072853480599584 0.49999999999999994 1 
	0.001 
	cone -4.5961940777125587 3.8890872965260121 0.5 0.70710678118654713 -0.70710678118654791 0 0 0 -0.5 1 I I 0 1 0.5 forward I I I I 
	torus 0 0 0.5 0 0 1 5.4499999999999993 0.5 0 1 0 forward_v I I I I 
	nullbs 
	nullbs 
	F 7.4668144516765261e-007 I 
	0 
	1 7.4668144516765261e-007 
	0 
	} I I #
coedge $-1 -1 $-1 $431 $339 $234 $349 reversed $211 $-1 #
edge $469 -1 $-1 $350 -8.8817841970012701e-016 $223 0.049999999999999822 $348 $470 forward @7 unknown #
vertex $-1 -1 $-1 $471 $472 #
intcurve-curve $-1 -1 $-1 forward { surfintcur full nurbs 3 open 8 
	0 3 0.14940840325719429 1 0.29612629818062192 1 0.44048114169589059 1 0.58266915840536548 1 
	0.72305871379007269 1 0.86205542158949366 1 1 3 
	0.50000000000000333 5.4270157545376625 0 1 
	0.45498023388199466 5.4762237054451832 0.00073221265022167976 1 
	0.37065106257093466 5.5675809271201997 0.011443338475470946 1.0000000000000002 
	0.25844461943902886 5.6860084439632113 0.057068082168254604 1 
	0.16441166669683754 5.7834694649732503 0.12367027152958587 1.0000000000000002 
	0.090551570213575114 5.8588625148109594 0.20628083577607934 1 
	0.037641475500211907 5.9122893793859719 0.29990971170158154 0.99999999999999989 
	0.0065187677403251518 5.9434786697117588 0.40060029936254649 1 
	-0.00014855446536413131 5.9501665115352909 0.46673481276764722 1 
	1.4572815610486289e-015 5.9499999999999993 0.5 1 
	0.001 
	torus 0 0 0.5 0 0 1 5.4499999999999993 0.5 0 1 0 forward_v I I I I 
	cone 0.5 5.4270157545376625 0.5 -1.1625691632020241e-015 1 0 0 0 -0.5 1 I I 0 1 0.5 forward I I I I 
	nullbs 
	nullbs 
	F 7.4668144516764583e-007 I 
	0 
	1 7.4668144516764583e-007 
	0 
	} I I #
model_id-kcp-attrib $-1 -1 $-1 $-1 $236 1 1021521511 1021521511 1541275649 15 #
cone-surface $-1 -1 $-1 0.5 5.4270157545376625 0.5 -1.1625691632020241e-015 1 0 0 0 -0.5 1 I I 0 1 0.5 forward I I I I #
point $-1 -1 $-1 -3.5355339059327338 3.5349506635882784 7.200499999999999 #
loop $-1 -1 $-1 $-1 $255 $244 #
plane-surface $-1 -1 $-1 0 6.0005832423444634 0 0 -1 0 0 0 -1 forward_v I I I I #
coedge $-1 -1 $-1 $473 $247 $262 $372 forward $159 $-1 #
coedge $-1 -1 $-1 $247 $473 $362 $474 forward $159 $-1 #
edge $-1 -1 $-1 $363 -6.0005832423444634 $360 6.0005832423444634 $248 $475 forward @7 unknown #
vertex $-1 -1 $-1 $249 $476 #
straight-curve $-1 -1 $-1 6 -6.0005832423444634 0 0 0 -1 I I #
coedge $-1 -1 $-1 $366 $250 $358 $474 reversed $355 $-1 #
vertex $-1 -1 $-1 $359 $477 #
straight-curve $-1 -1 $-1 6 6.0005832423444634 0 0 0 -1 I I #
point $-1 -1 $-1 6 6.0005832423444634 -7.4995000000000012 #
coedge $-1 -1 $-1 $255 $362 $257 $370 reversed $355 $-1 #
convexity-sys-attrib $-1 -1 $-1 $-1 $256 #
straight-curve $-1 -1 $-1 0 6.0005832423444634 -7.4995000000000012 -1 0 0 I I #
coedge $-1 -1 $-1 $258 $257 $473 $478 reversed $245 $-1 #
edge $-1 -1 $-1 $260 7.4995000000000012 $479 7.5004999999999997 $366 $480 forward @7 unknown #
point $-1 -1 $-1 -6 6.0005832423444634 -7.4995000000000012 #
edge $-1 -1 $-1 $360 -6 $373 6 $262 $481 forward @7 unknown #
vertex $-1 -1 $-1 $478 $482 #
straight-curve $-1 -1 $-1 -6 -6.0005832423444634 0 0 0 -1 I I #
plane-surface $-1 -1 $-1 6 0 0 -1 0 0 0 0 1 forward_v I I I I #
coedge $-1 -1 $-1 $271 $269 $273 $380 reversed $174 $-1 #
edge $-1 -1 $-1 $284 -7.5004999999999997 $382 7.5004999999999997 $283 $483 forward @7 unknown #
vertex $-1 -1 $-1 $380 $484 #
straight-curve $-1 -1 $-1 -6 -6.0005832423444634 0 0 0 -1 I I #
edge $-1 -1 $-1 $378 -6.0005832423444634 $382 6.0005832423444634 $376 $485 forward @7 unknown #
straight-curve $-1 -1 $-1 0 -6.0005832423444634 -7.5004999999999997 -1 0 0 I I #
vertex $-1 -1 $-1 $276 $486 #
straight-curve $-1 -1 $-1 0 6.0005832423444634 -7.5004999999999997 1 0 0 I I #
point $-1 -1 $-1 6 6.0005832423444634 -7.5004999999999997 #
point $-1 -1 $-1 6 -6.0005832423444634 -7.5004999999999997 #
straight-curve $-1 -1 $-1 -6 0 7.5004999999999997 0 -1 0 I I #
point $-1 -1 $-1 -6 6.0005832423444634 7.5004999999999997 #
point $-1 -1 $-1 -6 -6.0005832423444634 7.5004999999999997 #
straight-curve $-1 -1 $-1 6 -6.0005832423444634 0 0 0 -1 I I #
straight-curve $-1 -1 $-1 6 6.0005832423444634 0 0 0 -1 I I #
face $-1 -1 $-1 $487 $488 $29 $-1 $489 forward single #
loop $-1 -1 $-1 $-1 $490 $293 #
plane-surface $-1 -1 $-1 6 6.0005832423444634 7.4504999999999981 1 0 0 0 0 -1 forward_v I I I I #
coedge $-1 -1 $-1 $491 $492 $493 $494 forward $294 $-1 #
coedge $-1 -1 $-1 $403 $296 $297 $398 forward $193 $-1 #
coedge $-1 -1 $-1 $401 $408 $296 $397 forward $409 $-1 #
edge $495 -1 $-1 $496 1.9204504871165136 $404 2.6383954342935469 $296 $497 forward @7 unknown #
edge $-1 -1 $-1 $496 0 $399 0.050000000000000711 $395 $498 forward @7 unknown #
vertex $-1 -1 $-1 $398 $499 #
ellipse-curve $-1 -1 $-1 0 -0.00058324234446338608 7.5004999999999988 0 0 -1 0 5 0 1 I I #
coedge $-1 -1 $-1 $305 $396 $299 $402 forward $409 $-1 #
edge $500 -1 $-1 $404 2.3561944901923448 $311 7.8539816339744828 $299 $501 forward @7 unknown #
coedge $-1 -1 $-1 $300 $395 $302 $406 forward $193 $-1 #
vertex $-1 -1 $-1 $397 $502 #
straight-curve $-1 -1 $-1 -4.0431976466002357 4.0426144042557723 7.450499999999999 0 0 1 I I #
edge $-1 -1 $-1 $399 1.9204504871165136 $303 2.6383954342935469 $403 $503 forward @7 unknown #
point $-1 -1 $-1 -4.0431976466002357 4.0426144042557723 7.5004999999999997 #
coedge $-1 -1 $-1 $396 $305 $307 $412 forward $409 $-1 #
loop $-1 -1 $-1 $-1 $396 $415 #
convexity-sys-attrib $-1 -1 $-1 $-1 $306 #
straight-curve $-1 -1 $-1 4.148354023573303e-015 2.6119167576555364 7.4504999999999981 1.2246063538223773e-015 -1 0 I I #
edge $504 -1 $-1 $309 2.4492127076447545e-016 $496 5.497787143782138 $307 $505 forward @7 unknown #
point $-1 -1 $-1 1.2246063538223773e-015 4.9994167576555366 7.450499999999999 #
point $-1 -1 $-1 1.1460967111041533e-015 5.7173617048325731 7.450499999999999 #
face $-1 -1 $-1 $-1 $506 $29 $-1 $507 reversed single #
loop $-1 -1 $-1 $205 $493 $313 #
plane-surface $-1 -1 $-1 0.018989361816983658 -0.046169254635508694 7.5005000000000006 -5.0140343369410309e-032 -4.859025674063825e-032 1 1 0 5.0140343369410309e-032 forward_v I I I I #
model_id-kcp-attrib $-1 -1 $-1 $-1 $317 1 1021521511 1021521511 1541275649 9 #
face $508 -1 $-1 $509 $510 $9 $-1 $511 reversed single #
loop $-1 -1 $-1 $-1 $512 $317 #
plane-surface $-1 -1 $-1 0 0 14.699999999999999 0 0 1 0 1 0 forward_v I I I I #
coedge $-1 -1 $-1 $513 $514 $512 $515 reversed $318 $-1 #
coedge $-1 -1 $-1 $456 $320 $516 $517 forward $211 $-1 #
coedge $-1 -1 $-1 $320 $323 $518 $519 reversed $211 $-1 #
coedge $-1 -1 $-1 $514 $520 $320 $426 reversed $318 $-1 #
edge $521 -1 $-1 $522 0 $523 0.050000000000000711 $425 $524 forward @7 unknown #
coedge $-1 -1 $-1 $525 $325 $321 $428 reversed $437 $-1 #
edge $-1 -1 $-1 $434 2.3463046106848912e-016 $332 0.7853981633974485 $427 $526 forward @7 unknown #
coedge $-1 -1 $-1 $328 $518 $322 $430 forward $444 $-1 #
edge $527 -1 $-1 $433 1.2133714331451083e-016 $331 0.7853981633974485 $429 $528 forward @7 unknown #
coedge $-1 -1 $-1 $323 $348 $525 $471 forward $211 $-1 #
attrib_edge_convexity-kcp-attrib $-1 -1 $529 $-1 $324 2 #
vertex $-1 -1 $-1 $519 $530 #
vertex $-1 -1 $-1 $324 $531 #
ellipse-curve $-1 -1 $-1 6.7353349460230729e-016 5.4500000000000002 14.449999999999999 -1 -1.2246063538223796e-015 1.3225748621281655e-015 6.6128743106408384e-016 -8.8817841970012523e-016 0.5 1 I I #
coedge $-1 -1 $-1 $325 $525 $344 $465 forward $437 $-1 #
loop $-1 -1 $-1 $-1 $427 $467 #
attrib_edge_convexity-kcp-attrib $-1 -1 $532 $-1 $326 2 #
straight-curve $-1 -1 $-1 -4.2072853480599575 4.2072853480599584 0.5 0 0 1 I I #
coedge $-1 -1 $-1 $327 $451 $533 $534 forward $84 $-1 #
coedge $-1 -1 $-1 $520 $513 $327 $442 forward $318 $-1 #
edge $535 -1 $-1 $446 0 $536 0.050000000000000711 $441 $537 forward @7 unknown #
coedge $-1 -1 $-1 $518 $328 $538 $539 forward $444 $-1 #
loop $-1 -1 $-1 $-1 $443 $509 #
attrib_edge_convexity-kcp-attrib $-1 -1 $540 $-1 $329 2 #
vertex $-1 -1 $-1 $442 $541 #
straight-curve $-1 -1 $-1 -3.853731957466684 3.8537319574666844 14.949999999999999 0.70710678118654757 -0.70710678118654757 0 I I #
convexity-sys-attrib $-1 -1 $-1 $330 $217 #
point $-1 -1 $-1 -3.853731957466684 3.8537319574666844 14.949999999999999 #
point $-1 -1 $-1 -4.2072853480599575 4.2072853480599584 14.449999999999999 #
coedge $-1 -1 $-1 $440 $334 $542 $543 forward $84 $-1 #
convexity-sys-attrib $-1 -1 $-1 $335 $219 #
point $-1 -1 $-1 -4.2072853480599575 4.2072853480599584 0.5 #
coedge $-1 -1 $-1 $544 $542 $338 $455 forward $545 $-1 #
edge $-1 -1 $-1 $461 0 $458 5.497787143782138 $338 $546 forward @7 unknown #
coedge $-1 -1 $-1 $339 $423 $544 $547 reversed $211 $-1 #
attrib_edge_convexity-kcp-attrib $-1 -1 $548 $-1 $340 1 #
vertex $-1 -1 $-1 $455 $549 #
straight-curve $-1 -1 $-1 0 6 0.5 0 0 1 I I #
attrib_edge_convexity-kcp-attrib $-1 -1 $550 $-1 $341 1 #
vertex $-1 -1 $-1 $455 $551 #
straight-curve $-1 -1 $-1 -4.2426406871192848 4.2426406871192857 0.5 0 0 1 I I #
model_id-kcp-attrib $-1 -1 $-1 $-1 $342 1 1021521511 1021521511 1541275649 14 #
cone-surface $-1 -1 $-1 0 0 0 0 0 1 6 0 0 1 I I 0 1 6 forward I I I I #
edge $-1 -1 $-1 $350 0 $336 0.7853981633974485 $436 $552 forward @7 unknown #
model_id-kcp-attrib $-1 -1 $-1 $-1 $345 1 1021521511 1021521511 1541275649 16 #
face $553 -1 $-1 $-1 $437 $9 $-1 $554 forward single #
torus-surface $-1 -1 $-1 0 0 0.5 0 0 1 5.4499999999999993 0.5 0 1 0 forward_v I I I I #
attrib_edge_convexity-kcp-attrib $-1 -1 $555 $-1 $349 3 #
straight-curve $-1 -1 $-1 6.1230317691118666e-017 5.9500000000000002 0.5 -1.2246063538223777e-015 1 0 I I #
edge $556 -1 $-1 $350 0 $434 13.949999999999999 $431 $557 forward @7 unknown #
point $-1 -1 $-1 1.4572815610486289e-015 5.9499999999999993 0.5 #
coedge $-1 -1 $-1 $358 $357 $369 $478 forward $159 $-1 #
edge $-1 -1 $-1 $479 -6 $363 6 $362 $558 forward @7 unknown #
straight-curve $-1 -1 $-1 6 0 -7.5004999999999997 0 -1 0 I I #
point $-1 -1 $-1 6 -6.0005832423444634 -7.5004999999999997 #
point $-1 -1 $-1 6 6.0005832423444634 -7.5004999999999997 #
edge $-1 -1 $-1 $373 -6.0005832423444634 $479 6.0005832423444634 $369 $559 forward @7 unknown #
vertex $-1 -1 $-1 $474 $560 #
straight-curve $-1 -1 $-1 -6 6.0005832423444634 0 0 0 -1 I I #
straight-curve $-1 -1 $-1 0 -6.0005832423444634 -7.5004999999999997 -1 0 0 I I #
point $-1 -1 $-1 -6 -6.0005832423444634 -7.5004999999999997 #
straight-curve $-1 -1 $-1 -6 6.0005832423444634 0 0 0 -1 I I #
point $-1 -1 $-1 -6 -6.0005832423444634 -7.5004999999999997 #
straight-curve $-1 -1 $-1 -6 0 -7.5004999999999997 0 1 0 I I #
point $-1 -1 $-1 -6 6.0005832423444634 -7.5004999999999997 #
face $-1 -1 $-1 $313 $561 $29 $-1 $562 forward single #
loop $-1 -1 $-1 $-1 $563 $391 #
plane-surface $-1 -1 $-1 6 -6.0005832423444634 7.4504999999999981 0 -1 0 0 0 -1 forward_v I I I I #
coedge $-1 -1 $-1 $564 $565 $566 $567 forward $392 $-1 #
coedge $-1 -1 $-1 $568 $394 $565 $569 reversed $294 $-1 #
coedge $-1 -1 $-1 $394 $568 $570 $571 forward $294 $-1 #
coedge $-1 -1 $-1 $572 $566 $394 $494 reversed $416 $-1 #
edge $-1 -1 $-1 $573 -6 $574 6 $394 $575 forward @7 unknown #
convexity-sys-attrib $-1 -1 $-1 $-1 $397 #
vertex $-1 -1 $-1 $397 $576 #
straight-curve $-1 -1 $-1 -2.1775703435596427 2.1769871012151789 7.4504999999999981 -0.70710678118654735 0.70710678118654779 0 I I #
straight-curve $-1 -1 $-1 -3.5355339059327373 3.5349506635882744 7.450499999999999 0 0 1 I I #
point $-1 -1 $-1 -3.5355339059327373 3.5349506635882744 7.5004999999999997 #
convexity-sys-attrib $-1 -1 $-1 $-1 $402 #
ellipse-curve $-1 -1 $-1 0 -0.00058324234446338608 7.4504999999999981 0 0 1 5.7179449471770374 0 0 1 I I #
point $-1 -1 $-1 -4.0431976466002357 4.0426144042557723 7.450499999999999 #
straight-curve $-1 -1 $-1 -2.1775703435596427 2.1769871012151789 7.5004999999999988 -0.70710678118654735 0.70710678118654779 0 I I #
convexity-sys-attrib $-1 -1 $-1 $-1 $412 #
ellipse-curve $-1 -1 $-1 0 -0.00058324234446338608 7.4504999999999981 0 0 -1 0 5 0 1 I I #
loop $-1 -1 $-1 $409 $577 $415 #
plane-surface $-1 -1 $-1 0.018989361816983658 -0.046169254635508694 7.4504999999999999 -5.0140343369410309e-032 -4.859025674063825e-032 1 1 0 5.0140343369410309e-032 forward_v I I I I #
model_id-kcp-attrib $-1 -1 $-1 $-1 $419 1 1021521511 1021521511 1541275649 10 #
face $578 -1 $-1 $579 $444 $9 $-1 $580 forward single #
loop $-1 -1 $-1 $-1 $581 $419 #
cone-surface $-1 -1 $-1 0 0 14.949999999999999 0 0 1 0 5 0 1 I I 0 1 5 forward I I I I #
coedge $-1 -1 $-1 $582 $582 $422 $515 forward $420 $-1 #
coedge $-1 -1 $-1 $441 $422 $583 $584 forward $318 $-1 #
coedge $-1 -1 $-1 $422 $425 $581 $585 reversed $318 $-1 #
edge $586 -1 $-1 $587 -2.8421709430403998e-016 $588 5.4977871437821388 $512 $589 forward @7 unknown #
coedge $-1 -1 $-1 $590 $591 $423 $517 reversed $592 $-1 #
edge $593 -1 $-1 $523 0 $594 0.5 $516 $595 forward @7 unknown #
coedge $-1 -1 $-1 $429 $443 $424 $519 forward $444 $-1 #
edge $596 -1 $-1 $522 0 $433 0.45000000000000018 $424 $597 forward @7 unknown #
coedge $-1 -1 $-1 $425 $441 $590 $598 reversed $318 $-1 #
attrib_edge_convexity-kcp-attrib $-1 -1 $599 $-1 $426 1 #
vertex $-1 -1 $-1 $585 $600 #
vertex $-1 -1 $-1 $598 $601 #
straight-curve $-1 -1 $-1 1.2246063538223773e-015 5 14.949999999999999 -2.4492127076447198e-014 0 1 I I #
coedge $-1 -1 $-1 $436 $427 $431 $471 reversed $437 $-1 #
ellipse-curve $-1 -1 $-1 0 0 14.449999999999999 0 0 1 1.4572815610486289e-015 5.9499999999999993 0 1 I I #
attrib_edge_convexity-kcp-attrib $-1 -1 $602 $-1 $430 3 #
ellipse-curve $-1 -1 $-1 -5.5511151231257827e-016 4.4408920985006262e-016 14.949999999999999 0 0 1 1.8899324379789694e-015 5.4499999999999993 0 1 I I #
convexity-sys-attrib $-1 -1 $-1 $432 $324 #
point $-1 -1 $-1 6.735334946023072e-016 5.4500000000000002 14.949999999999999 #
point $-1 -1 $-1 6.1230317691118863e-017 5.9500000000000002 14.449999999999999 #
convexity-sys-attrib $-1 -1 $-1 $438 $326 #
coedge $-1 -1 $-1 $591 $590 $440 $534 reversed $592 $-1 #
edge $603 -1 $-1 $604 0 $536 0.49999999999999939 $533 $605 forward @7 unknown #
attrib_edge_convexity-kcp-attrib $-1 -1 $606 $-1 $442 1 #
vertex $-1 -1 $-1 $534 $607 #
straight-curve $-1 -1 $-1 -3.5355339059327373 3.5355339059327378 14.949999999999999 0 0 1 I I #
coedge $-1 -1 $-1 $583 $581 $443 $539 reversed $510 $-1 #
edge $608 -1 $-1 $446 0 $522 0.78539816339744839 $443 $609 forward @7 unknown #
convexity-sys-attrib $-1 -1 $-1 $445 $329 #
point $-1 -1 $-1 -3.5355339059327373 3.5355339059327378 14.949999999999999 #
coedge $-1 -1 $-1 $454 $610 $451 $543 reversed $545 $-1 #
edge $611 -1 $-1 $461 0 $604 1.5707963267948906 $451 $612 forward @7 unknown #
coedge $-1 -1 $-1 $610 $454 $456 $547 forward $545 $-1 #
loop $-1 -1 $-1 $-1 $544 $613 #
ellipse-curve $-1 -1 $-1 0 0 14.5 0 0 1 -4.2426406871192848 4.2426406871192857 0 1 I I #
edge $614 -1 $-1 $458 0 $594 1.5707963267948948 $456 $615 forward @7 unknown #
convexity-sys-attrib $-1 -1 $-1 $457 $340 #
point $-1 -1 $-1 1.8369095307335659e-015 6 14.5 #
convexity-sys-attrib $-1 -1 $-1 $460 $341 #
point $-1 -1 $-1 -4.2426406871192848 4.2426406871192857 14.5 #
ellipse-curve $-1 -1 $-1 0 0 0.5 0 0 1 1.4572815610486289e-015 5.9499999999999993 0 1 I I #
model_id-kcp-attrib $-1 -1 $-1 $-1 $467 1 1021521511 1021521511 1541275649 17 #
cone-surface $-1 -1 $-1 0 0 14.949999999999999 0 0 1 0 5.9499999999999993 0 1 I I 0 1 5.9499999999999993 forward I I I I #
convexity-sys-attrib $-1 -1 $-1 $469 $349 #
attrib_edge_convexity-kcp-attrib $-1 -1 $616 $-1 $471 2 #
straight-curve $-1 -1 $-1 6.1230317691118666e-017 5.9500000000000002 0.5 0 0 1 I I #
straight-curve $-1 -1 $-1 0 6.0005832423444634 -7.5004999999999997 1 0 0 I I #
straight-curve $-1 -1 $-1 -6 0 -7.5004999999999997 0 1 0 I I #
point $-1 -1 $-1 -6 6.0005832423444634 -7.5004999999999997 #
loop $-1 -1 $-1 $-1 $617 $487 #
plane-surface $-1 -1 $-1 -6 -6.0005832423444634 7.4504999999999981 -1 0 0 0 0 1 forward_v I I I I #
coedge $-1 -1 $-1 $618 $619 $620 $621 forward $488 $-1 #
coedge $-1 -1 $-1 $622 $490 $619 $623 reversed $392 $-1 #
coedge $-1 -1 $-1 $490 $622 $491 $569 forward $392 $-1 #
coedge $-1 -1 $-1 $493 $620 $490 $567 reversed $416 $-1 #
edge $-1 -1 $-1 $574 -5.8883748635166953 $624 6.1127916211722315 $490 $625 forward @7 unknown #
coedge $-1 -1 $-1 $492 $491 $626 $627 reversed $294 $-1 #
edge $-1 -1 $-1 $628 0 $574 0.050000000000000711 $565 $629 forward @7 unknown #
coedge $-1 -1 $-1 $630 $617 $492 $571 reversed $561 $-1 #
edge $-1 -1 $-1 $631 0 $573 0.050000000000000711 $492 $632 forward @7 unknown #
coedge $-1 -1 $-1 $620 $493 $617 $633 reversed $416 $-1 #
vertex $-1 -1 $-1 $571 $634 #
vertex $-1 -1 $-1 $569 $635 #
straight-curve $-1 -1 $-1 0 6.0005832423444634 7.5004999999999988 1 0 0 I I #
point $-1 -1 $-1 -3.5355339059327373 3.5349506635882744 7.450499999999999 #
coedge $-1 -1 $-1 $626 $636 $630 $637 forward $506 $-1 #
model_id-kcp-attrib $-1 -1 $-1 $-1 $509 1 1021521511 1021521511 1541275649 11 #
face $638 -1 $-1 $613 $592 $9 $-1 $639 forward single #
plane-surface $-1 -1 $-1 0 0 14.949999999999999 0 0 1 0 1 0 forward_v I I I I #
coedge $-1 -1 $-1 $538 $640 $514 $585 forward $510 $-1 #
coedge $-1 -1 $-1 $512 $512 $640 $641 forward $420 $-1 #
coedge $-1 -1 $-1 $640 $538 $513 $584 reversed $510 $-1 #
edge $-1 -1 $-1 $587 0 $446 0.25 $513 $642 forward @7 unknown #
edge $-1 -1 $-1 $588 0 $522 0.25 $514 $643 forward @7 unknown #
attrib_edge_convexity-kcp-attrib $-1 -1 $644 $-1 $515 2 #
vertex $-1 -1 $-1 $641 $645 #
vertex $-1 -1 $-1 $641 $646 #
ellipse-curve $-1 -1 $-1 1.2212453270876722e-015 2.4980018054066022e-016 14.699999999999999 0 0 1 -3.535533905932736 3.53553390593274 0 1 I I #
coedge $-1 -1 $-1 $533 $516 $520 $598 forward $592 $-1 #
coedge $-1 -1 $-1 $516 $533 $610 $647 forward $592 $-1 #
loop $-1 -1 $-1 $-1 $591 $579 #
attrib_edge_convexity-kcp-attrib $-1 -1 $648 $-1 $517 1 #
vertex $-1 -1 $-1 $517 $649 #
straight-curve $-1 -1 $-1 1.2246063538223773e-015 5 15 -1.2246063538223773e-015 1 0 I I #
attrib_edge_convexity-kcp-attrib $-1 -1 $650 $-1 $519 2 #
straight-curve $-1 -1 $-1 1.2246063538223773e-015 5 14.949999999999999 -1.2246063538223775e-015 1 0 I I #
edge $-1 -1 $-1 $523 0 $536 5.497787143782138 $590 $651 forward @7 unknown #
convexity-sys-attrib $-1 -1 $-1 $521 $426 #
point $-1 -1 $-1 1.2246063538223773e-015 5 14.949999999999999 #
point $-1 -1 $-1 1.2246063538223773e-015 5 15 #
convexity-sys-attrib $-1 -1 $-1 $527 $430 #
attrib_edge_convexity-kcp-attrib $-1 -1 $652 $-1 $534 1 #
vertex $-1 -1 $-1 $534 $653 #
straight-curve $-1 -1 $-1 -3.8890872965260108 3.8890872965260117 15 0.70710678118654702 -0.70710678118654791 0 I I #
convexity-sys-attrib $-1 -1 $-1 $535 $442 #
point $-1 -1 $-1 -3.5355339059327378 3.5355339059327382 15 #
attrib_edge_convexity-kcp-attrib $-1 -1 $654 $-1 $539 1 #
ellipse-curve $-1 -1 $-1 0 0 14.949999999999999 0 0 -1 -3.5355339059327373 3.5355339059327378 0 1 I I #
coedge $-1 -1 $-1 $542 $544 $591 $647 reversed $545 $-1 #
attrib_edge_convexity-kcp-attrib $-1 -1 $655 $-1 $543 1 #
ellipse-curve $-1 -1 $-1 -3.8890872965260099 3.8890872965260108 14.499999999999998 0.70710678118654757 0.70710678118654757 7.8886090522100699e-031 -0.35355339059327484 0.35355339059327484 1.7763568394002505e-015 1 I I #
face $656 -1 $-1 $342 $545 $9 $-1 $657 forward single #
attrib_edge_convexity-kcp-attrib $-1 -1 $658 $-1 $547 1 #
ellipse-curve $-1 -1 $-1 6.1230317691118971e-016 5.4999999999999991 14.5 1 -2.4492127076447478e-015 0 1.2246063538223761e-015 0.50000000000000089 0 1 I I #
convexity-sys-attrib $-1 -1 $-1 $556 $471 #
coedge $-1 -1 $-1 $570 $659 $572 $633 forward $561 $-1 #
coedge $-1 -1 $-1 $660 $563 $659 $661 reversed $488 $-1 #
coedge $-1 -1 $-1 $563 $660 $564 $623 forward $488 $-1 #
coedge $-1 -1 $-1 $566 $572 $563 $621 reversed $416 $-1 #
edge $-1 -1 $-1 $624 -6 $662 6 $563 $663 forward @7 unknown #
coedge $-1 -1 $-1 $565 $564 $664 $665 reversed $392 $-1 #
edge $-1 -1 $-1 $666 0 $624 0.050000000000000711 $619 $667 forward @7 unknown #
vertex $-1 -1 $-1 $623 $668 #
straight-curve $-1 -1 $-1 6 0.11220837882776835 7.5004999999999988 0 -1 0 I I #
coedge $-1 -1 $-1 $664 $577 $568 $627 forward $506 $-1 #
edge $669 -1 $-1 $631 -6 $628 6 $568 $670 forward @7 unknown #
vertex $-1 -1 $-1 $627 $671 #
straight-curve $-1 -1 $-1 6 6.0005832423444634 7.4504999999999981 0 0 1 I I #
coedge $-1 -1 $-1 $659 $570 $577 $637 reversed $561 $-1 #
vertex $-1 -1 $-1 $637 $672 #
straight-curve $-1 -1 $-1 -6 6.0005832423444634 7.4504999999999981 0 0 1 I I #
edge $-1 -1 $-1 $662 -6.1127916211722315 $573 5.8883748635166953 $617 $673 forward @7 unknown #
point $-1 -1 $-1 -6 6.0005832423444634 7.5004999999999988 #
point $-1 -1 $-1 6 6.0005832423444634 7.5004999999999988 #
coedge $-1 -1 $-1 $577 $664 $660 $674 forward $506 $-1 #
edge $675 -1 $-1 $676 -6.1127916211722315 $631 5.8883748635166953 $630 $677 forward @7 unknown #
model_id-kcp-attrib $-1 -1 $-1 $-1 $579 1 1021521511 1021521511 1541275649 12 #
plane-surface $-1 -1 $-1 0 0 15 0 0 1 1 0 0 forward_v I I I I #
coedge $-1 -1 $-1 $581 $583 $582 $641 reversed $510 $-1 #
edge $678 -1 $-1 $588 0 $587 0.7853981633974485 $582 $679 forward @7 unknown #
straight-curve $-1 -1 $-1 -3.5355339059327333 3.5355339059327417 14.699999999999999 0 0 1 I I #
straight-curve $-1 -1 $-1 1.2246063538223773e-015 5 14.699999999999999 -4.898425415289509e-015 0 1 I I #
convexity-sys-attrib $-1 -1 $-1 $586 $515 #
point $-1 -1 $-1 -3.5355339059327338 3.5355339059327417 14.699999999999999 #
point $-1 -1 $-1 1.2246063538223773e-015 5 14.699999999999999 #
edge $-1 -1 $-1 $604 0 $594 5.497787143782138 $591 $680 forward @7 unknown #
convexity-sys-attrib $-1 -1 $-1 $593 $517 #
point $-1 -1 $-1 0 5.5 15 #
convexity-sys-attrib $-1 -1 $-1 $596 $519 #
ellipse-curve $-1 -1 $-1 -1.1657341758564144e-015 -5.5511151231257827e-016 15 0 0 -1 2.3903405296787916e-015 5.0000000000000009 0 1 I I #
convexity-sys-attrib $-1 -1 $-1 $603 $534 #
point $-1 -1 $-1 -3.8890872965260108 3.8890872965260117 15 #
convexity-sys-attrib $-1 -1 $-1 $608 $539 #
convexity-sys-attrib $-1 -1 $-1 $611 $543 #
model_id-kcp-attrib $-1 -1 $-1 $-1 $613 1 1021521511 1021521511 1541275649 13 #
torus-surface $-1 -1 $-1 0 0 14.5 0 0 1 5.5 0.5 1 0 0 forward_v I I I I #
convexity-sys-attrib $-1 -1 $-1 $614 $547 #
coedge $-1 -1 $-1 $617 $630 $618 $661 forward $561 $-1 #
coedge $-1 -1 $-1 $619 $618 $636 $674 reversed $488 $-1 #
edge $-1 -1 $-1 $676 0 $662 0.050000000000000711 $659 $681 forward @7 unknown #
vertex $-1 -1 $-1 $661 $682 #
straight-curve $-1 -1 $-1 0 -6.0005832423444634 7.5004999999999988 -1 0 0 I I #
coedge $-1 -1 $-1 $636 $626 $622 $665 forward $506 $-1 #
edge $683 -1 $-1 $628 -5.8883748635166953 $666 6.1127916211722315 $622 $684 forward @7 unknown #
vertex $-1 -1 $-1 $665 $685 #
straight-curve $-1 -1 $-1 6 -6.0005832423444634 7.4504999999999981 0 0 1 I I #
point $-1 -1 $-1 6 -6.0005832423444634 7.5004999999999988 #
convexity-sys-attrib $-1 -1 $-1 $-1 $627 #
straight-curve $-1 -1 $-1 0 6.0005832423444634 7.4504999999999981 1 0 0 I I #
point $-1 -1 $-1 6 6.0005832423444634 7.4504999999999981 #
point $-1 -1 $-1 -6 6.0005832423444634 7.4504999999999981 #
straight-curve $-1 -1 $-1 -6 0.11220837882776835 7.5004999999999988 0 1 0 I I #
edge $686 -1 $-1 $666 -6 $676 6 $660 $687 forward @7 unknown #
convexity-sys-attrib $-1 -1 $-1 $-1 $637 #
vertex $-1 -1 $-1 $637 $688 #
straight-curve $-1 -1 $-1 -6 0.11220837882776835 7.4504999999999981 0 1 0 I I #
attrib_edge_convexity-kcp-attrib $-1 -1 $689 $-1 $641 2 #
ellipse-curve $-1 -1 $-1 -3.1641356201816961e-015 6.6613381477509392e-015 14.699999999999999 0 0 1 4.3887419740040734e-015 4.9999999999999929 0 1 I I #
ellipse-curve $-1 -1 $-1 1.4432899320127035e-015 9.9920072216264089e-016 15 0 0 1 -3.8890872965260121 3.8890872965260108 0 1 I I #
straight-curve $-1 -1 $-1 -6 -6.0005832423444634 7.4504999999999981 0 0 1 I I #
point $-1 -1 $-1 -6 -6.0005832423444634 7.5004999999999988 #
convexity-sys-attrib $-1 -1 $-1 $-1 $665 #
straight-curve $-1 -1 $-1 6 0.11220837882776835 7.4504999999999981 0 -1 0 I I #
point $-1 -1 $-1 6 -6.0005832423444634 7.4504999999999981 #
convexity-sys-attrib $-1 -1 $-1 $-1 $674 #
straight-curve $-1 -1 $-1 0 -6.0005832423444634 7.4504999999999981 -1 0 0 I I #
point $-1 -1 $-1 -6 -6.0005832423444634 7.4504999999999981 #
convexity-sys-attrib $-1 -1 $-1 $678 $641 #
End-of-ACIS-data 