600 0 1 0           
101 GICL Pro/E ACIS Translator - Source: f:/data5/repository/PTC/V18/cabecad18/ptc_comp/cap22uf.prt - 6 0 13 ACIS 6.0.3 NT 24 Thu Apr 04 13:39:06 2002 
1 9.9999999999999995e-007 1e-010 
body $-1 $1 $-1 $-1 #
lump $-1 $-1 $2 $0 #
shell $-1 $-1 $-1 $3 $-1 $1 #
face $-1 $4 $5 $2 $-1 $6 reversed single #
face $-1 $7 $8 $2 $-1 $9 forward single #
loop $-1 $-1 $10 $3 #
plane-surface $-1 0 0 0 0 0 1 1 0 0 forward_v I I I I #
face $-1 $11 $12 $2 $-1 $13 reversed single #
loop $-1 $-1 $14 $4 #
cone-surface $-1 0 0 0 0 0 1 12 0 0 1 I I 0 1 12 forward I I I I #
coedge $-1 $15 $16 $17 $18 forward $5 $-1 #
face $-1 $19 $20 $2 $-1 $21 forward single #
loop $-1 $-1 $22 $7 #
plane-surface $-1 -8.4852813742385695 8.4852813742385695 15 -0.70710678118654757 -0.70710678118654757 0 0.70710678118654757 -0.70710678118654757 0 forward_v I I I I #
coedge $-1 $17 $23 $24 $25 reversed $8 $-1 #
coedge $-1 $26 $10 $27 $28 forward $5 $-1 #
coedge $-1 $10 $26 $29 $30 forward $5 $-1 #
coedge $-1 $31 $14 $10 $18 reversed $8 $-1 #
edge $-1 $32 -3.0615158845559431e-016 $33 5.497787143782138 $10 $34 forward 7 unknown #
face $-1 $35 $36 $2 $-1 $37 reversed single #
loop $-1 $-1 $38 $11 #
torus-surface $-1 0 0 14.449999999999999 0 0 1 11.449999999999999 0.5 0 1 0 forward_v I I I I #
coedge $-1 $39 $40 $41 $42 forward $12 $-1 #
coedge $-1 $14 $31 $43 $44 reversed $8 $-1 #
coedge $-1 $45 $27 $14 $25 forward $12 $-1 #
edge $-1 $33 0 $46 14.5 $14 $47 forward 7 unknown #
coedge $-1 $16 $15 $48 $49 reversed $5 $-1 #
coedge $-1 $24 $50 $15 $28 reversed $12 $-1 #
edge $-1 $33 1.2560739669470201e-015 $51 0.55000000000000271 $15 $52 forward 7 unknown #
coedge $-1 $53 $54 $16 $30 reversed $36 $-1 #
edge $-1 $55 0 $32 0.55000000000000071 $16 $56 forward 7 unknown #
coedge $-1 $23 $17 $54 $57 forward $8 $-1 #
vertex $-1 $30 $58 #
vertex $-1 $28 $59 #
ellipse-curve $-1 0 2.4980018054066022e-016 0 0 0 -1 3.6738190614671318e-015 12 0 1 I I #
face $-1 $60 $61 $2 $-1 $62 reversed single #
loop $-1 $-1 $63 $19 #
plane-surface $-1 0 9 15 1 0 0 0 1 0 forward_v I I I I #
coedge $-1 $64 $65 $66 $67 forward $20 $-1 #
coedge $-1 $50 $22 $68 $69 reversed $12 $-1 #
coedge $-1 $22 $70 $71 $72 reversed $12 $-1 #
coedge $-1 $65 $64 $22 $42 reversed $20 $-1 #
edge $-1 $73 2.5121479338940403e-015 $74 1.5707963267948992 $22 $75 forward 7 unknown #
coedge $-1 $76 $77 $23 $44 forward $78 $-1 #
edge $-1 $46 0 $79 5.497787143782138 $23 $80 forward 7 unknown #
coedge $-1 $81 $24 $77 $82 forward $12 $-1 #
vertex $-1 $44 $83 #
straight-curve $-1 -8.4852813742385695 8.4852813742385713 0 0 -1.2250736823450003e-016 1 I I #
coedge $-1 $84 $85 $26 $49 forward $86 $-1 #
edge $-1 $55 0 $51 0.78539816339744772 $26 $87 forward 7 unknown #
coedge $-1 $27 $39 $84 $88 reversed $12 $-1 #
vertex $-1 $49 $89 #
straight-curve $-1 -8.4852813742385713 8.4852813742385713 0 0.70710678118654757 -0.70710678118654757 0 I I #
coedge $-1 $90 $29 $85 $91 forward $36 $-1 #
coedge $-1 $29 $92 $31 $57 reversed $36 $-1 #
vertex $-1 $30 $93 #
straight-curve $-1 0 11.449999999999999 0 0 1 0 I I #
edge $-1 $32 3.7232955852135822e-032 $79 14.5 $31 $94 forward 7 unknown #
point $-1 0 12 0 #
point $-1 -8.4852813742385695 8.4852813742385713 0 #
face $-1 $95 $96 $2 $-1 $97 forward single #
loop $-1 $-1 $98 $35 #
cone-surface $-1 0 0 15 0 0 1 0 9 0 1 I I 0 1 9 forward I I I I #
coedge $-1 $99 $100 $101 $102 forward $36 $-1 #
coedge $-1 $41 $38 $103 $104 forward $20 $-1 #
coedge $-1 $38 $41 $105 $106 reversed $20 $-1 #
coedge $-1 $100 $90 $38 $67 reversed $36 $-1 #
edge $-1 $107 0 $108 1.5707963267948966 $66 $109 forward 7 unknown #
coedge $-1 $103 $110 $39 $69 forward $111 $-1 #
edge $-1 $112 0 $74 13.949999999999999 $39 $113 forward 7 unknown #
coedge $-1 $40 $81 $114 $115 reversed $12 $-1 #
coedge $-1 $116 $105 $40 $72 forward $117 $-1 #
edge $-1 $73 0 $118 2.450000000000002 $40 $119 forward 7 unknown #
vertex $-1 $72 $120 #
vertex $-1 $69 $121 #
ellipse-curve $-1 -8.0963726445859692 8.0963726445859692 14.449999999999999 -0.70710678118654757 -0.70710678118654757 2.5121479338940403e-015 1.7763568394002505e-015 0 0.5 1 I I #
coedge $-1 $122 $43 $92 $123 forward $78 $-1 #
coedge $-1 $43 $122 $45 $82 reversed $78 $-1 #
loop $-1 $-1 $76 $124 #
vertex $-1 $44 $125 #
ellipse-curve $-1 0 0 14.5 0 0 1 -8.4852813742385695 8.4852813742385695 0 1 I I #
coedge $-1 $70 $45 $126 $127 forward $12 $-1 #
edge $-1 $46 0 $128 1.5707963267949123 $45 $129 forward 7 unknown #
point $-1 -8.4852813742385695 8.4852813742385695 14.5 #
coedge $-1 $130 $48 $50 $88 forward $86 $-1 #
coedge $-1 $48 $130 $53 $91 reversed $86 $-1 #
loop $-1 $-1 $84 $131 #
ellipse-curve $-1 2.6645352591003757e-015 -4.4408920985006262e-015 0 0 0 1 -2.6645352591003757e-015 11.450000000000003 0 1 I I #
edge $-1 $51 0 $112 1.5707963267949028 $50 $132 forward 7 unknown #
point $-1 -8.0963726445859674 8.0963726445859692 0 #
coedge $-1 $66 $53 $133 $134 forward $36 $-1 #
edge $-1 $55 0 $135 1.5707963267949037 $53 $136 forward 7 unknown #
coedge $-1 $54 $99 $76 $123 reversed $36 $-1 #
point $-1 0 11.449999999999999 0 #
straight-curve $-1 7.3476381229342635e-016 12 0 -5.0673366365063884e-017 0 1 I I #
face $-1 $137 $138 $2 $-1 $139 reversed single #
loop $-1 $-1 $140 $60 #
plane-surface $-1 0 0 14.699999999999999 0 0 1 0 1 0 forward_v I I I I #
coedge $-1 $141 $142 $140 $143 reversed $61 $-1 #
coedge $-1 $92 $63 $144 $145 forward $36 $-1 #
coedge $-1 $63 $66 $146 $147 reversed $36 $-1 #
coedge $-1 $142 $148 $63 $102 reversed $61 $-1 #
edge $-1 $149 0 $150 0.050000000000000711 $101 $151 forward 7 unknown #
coedge $-1 $133 $68 $64 $104 reversed $111 $-1 #
edge $-1 $108 0 $74 0.78539816339744828 $103 $152 forward 7 unknown #
coedge $-1 $71 $146 $65 $106 forward $117 $-1 #
edge $-1 $107 0 $73 0.78539816339744806 $105 $153 forward 7 unknown #
vertex $-1 $147 $154 #
vertex $-1 $67 $155 #
ellipse-curve $-1 0 11.449999999999999 14.449999999999999 -1 0 0 0 0 0.5 1 I I #
coedge $-1 $68 $133 $130 $156 forward $111 $-1 #
loop $-1 $-1 $103 $157 #
vertex $-1 $88 $158 #
straight-curve $-1 -8.4499260351792422 8.4499260351792422 0.5 0 0 1 I I #
coedge $-1 $148 $141 $70 $115 forward $61 $-1 #
edge $-1 $118 0 $159 0.050000000000000711 $114 $160 forward 7 unknown #
coedge $-1 $146 $71 $161 $162 forward $117 $-1 #
loop $-1 $-1 $116 $137 #
vertex $-1 $115 $163 #
straight-curve $-1 -8.0963726445859692 8.0963726445859692 14.949999999999999 0.70710678118654746 -0.70710678118654746 0 I I #
point $-1 -8.0963726445859692 8.0963726445859692 14.949999999999999 #
point $-1 -8.4499260351792422 8.4499260351792422 14.449999999999999 #
coedge $-1 $77 $76 $164 $165 reversed $78 $-1 #
edge $-1 $79 0 $166 1.5707963267949108 $92 $167 forward 7 unknown #
face $-1 $131 $78 $2 $-1 $168 forward single #
point $-1 3.6738190614671318e-015 12 14.5 #
coedge $-1 $164 $169 $81 $127 reversed $170 $-1 #
edge $-1 $128 0 $159 2.5000000000000004 $126 $171 forward 7 unknown #
vertex $-1 $127 $172 #
ellipse-curve $-1 -8.1317279836452983 8.1317279836452983 14.500000000000005 0.70710678118654757 0.70710678118654757 0 -0.35355339059327129 0.35355339059327129 -5.3290705182007514e-015 1 I I #
coedge $-1 $85 $84 $110 $156 reversed $86 $-1 #
face $-1 $157 $86 $2 $-1 $173 forward single #
ellipse-curve $-1 -8.0963726445859692 8.0963726445859692 0.49999999999999822 0.70710678118654757 0.70710678118654757 2.5121479338940493e-015 1.7763568394002505e-015 0 -0.49999999999999822 1 I I #
coedge $-1 $110 $103 $90 $134 reversed $111 $-1 #
edge $-1 $135 0 $108 13.949999999999999 $90 $174 forward 7 unknown #
vertex $-1 $134 $175 #
ellipse-curve $-1 0 11.450000000000001 0.49999999999999822 1 0 0 0 -1.7763568394002505e-015 -0.49999999999999822 1 I I #
face $-1 $176 $117 $2 $-1 $177 forward single #
loop $-1 $-1 $178 $95 #
cone-surface $-1 0 0 14.949999999999999 0 0 1 0 9 0 1 I I 0 1 9 forward I I I I #
coedge $-1 $179 $179 $98 $143 forward $96 $-1 #
coedge $-1 $114 $98 $180 $181 forward $61 $-1 #
coedge $-1 $98 $101 $178 $182 reversed $61 $-1 #
edge $-1 $183 0 $184 5.497787143782138 $140 $185 forward 7 unknown #
coedge $-1 $169 $164 $99 $145 reversed $170 $-1 #
edge $-1 $150 0 $166 2.5 $144 $186 forward 7 unknown #
coedge $-1 $105 $116 $100 $147 forward $117 $-1 #
edge $-1 $149 0 $107 2.4499999999999993 $100 $187 forward 7 unknown #
coedge $-1 $101 $114 $169 $188 reversed $61 $-1 #
vertex $-1 $182 $189 #
vertex $-1 $188 $190 #
straight-curve $-1 0 9 14.949999999999999 0 0 1 I I #
ellipse-curve $-1 0 0 14.449999999999999 0 0 1 0 11.949999999999999 0 1 I I #
ellipse-curve $-1 2.6645352591003757e-015 -4.4408920985006262e-015 14.949999999999999 0 0 1 -2.6645352591003757e-015 11.450000000000003 0 1 I I #
point $-1 0 11.449999999999999 14.949999999999999 #
point $-1 0 11.949999999999999 14.449999999999999 #
edge $-1 $135 0 $112 0.78539816339744828 $110 $191 forward 7 unknown #
face $-1 $-1 $111 $2 $-1 $192 forward single #
point $-1 -8.4499260351792422 8.4499260351792422 0.5 #
vertex $-1 $127 $193 #
straight-curve $-1 -6.3639610306789267 6.3639610306789267 14.949999999999999 -1.7763568394002252e-014 3.5527136788004504e-014 1 I I #
coedge $-1 $180 $178 $116 $162 reversed $138 $-1 #
edge $-1 $118 0 $149 0.78539816339744828 $116 $194 forward 7 unknown #
point $-1 -6.3639610306789267 6.3639610306789267 14.949999999999999 #
coedge $-1 $144 $126 $122 $165 forward $170 $-1 #
edge $-1 $128 0 $166 5.497787143782138 $164 $195 forward 7 unknown #
vertex $-1 $145 $196 #
ellipse-curve $-1 0 11.500000000000004 14.500000000000004 1 -7.3476381229343156e-015 5.2208108932449929e-029 3.6738190614671318e-015 0.49999999999999645 -3.5527136788005009e-015 1 I I #
torus-surface $-1 0 0 14.5 0 0 1 11.5 0.5 1 0 0 forward_v I I I I #
coedge $-1 $126 $144 $148 $188 forward $170 $-1 #
loop $-1 $-1 $164 $176 #
straight-curve $-1 -8.1317279836452965 8.1317279836452965 15 0.70710678118654757 -0.70710678118654757 0 I I #
point $-1 -8.1317279836452965 8.1317279836452965 15 #
torus-surface $-1 0 0 0.5 0 0 1 11.449999999999999 0.5 0 1 0 forward_v I I I I #
straight-curve $-1 0 11.949999999999999 0.5 0 0 1 I I #
point $-1 0 11.949999999999999 0.5 #
face $-1 $124 $170 $2 $-1 $197 forward single #
plane-surface $-1 0 0 14.949999999999999 0 0 1 0 1 0 forward_v I I I I #
coedge $-1 $161 $198 $142 $182 forward $138 $-1 #
coedge $-1 $140 $140 $198 $199 forward $96 $-1 #
coedge $-1 $198 $161 $141 $181 reversed $138 $-1 #
edge $-1 $183 0 $118 0.25 $141 $200 forward 7 unknown #
edge $-1 $184 0 $149 0.25 $142 $201 forward 7 unknown #
vertex $-1 $199 $202 #
vertex $-1 $199 $203 #
ellipse-curve $-1 3.3306690738754696e-016 4.4408920985006262e-016 14.699999999999999 0 0 1 -6.3639610306789276 6.3639610306789276 0 1 I I #
straight-curve $-1 0 9 15 0 1 0 I I #
straight-curve $-1 0 9 14.949999999999999 0 1 0 I I #
edge $-1 $150 0 $159 5.497787143782138 $169 $204 forward 7 unknown #
point $-1 0 9 14.949999999999999 #
point $-1 2.2042914368802791e-015 9 15 #
ellipse-curve $-1 0 0 0.5 0 0 1 0 11.949999999999999 0 1 I I #
cone-surface $-1 0 0 14.949999999999999 0 0 1 0 11.949999999999999 0 1 I I 0 1 11.949999999999999 forward I I I I #
point $-1 -6.3639610306789276 6.3639610306789276 15 #
ellipse-curve $-1 0 0 14.949999999999999 0 0 -1 -6.3639610306789276 6.3639610306789276 0 1 I I #
ellipse-curve $-1 1.5543122344752192e-015 0 15 0 0 1 -8.1317279836453 8.1317279836452983 0 1 I I #
point $-1 0 11.5 15 #
plane-surface $-1 0 0 15 0 0 1 1 0 0 forward_v I I I I #
coedge $-1 $178 $180 $179 $199 reversed $138 $-1 #
edge $-1 $184 0 $183 0.7853981633974475 $179 $205 forward 7 unknown #
straight-curve $-1 -6.3639610306789276 6.3639610306789285 14.699999999999999 0 0 1 I I #
straight-curve $-1 0 9 14.699999999999999 0 0 1 I I #
point $-1 -6.3639610306789276 6.3639610306789276 14.699999999999999 #
point $-1 0 9 14.699999999999999 #
ellipse-curve $-1 -1.9984014443252818e-015 0 15 0 0 -1 4.2026928812055608e-015 9 0 1 I I #
ellipse-curve $-1 3.7747582837255322e-015 -8.4376949871511897e-015 14.699999999999999 0 0 1 -3.7747582837255322e-015 9.0000000000000089 0 1 I I #
End-of-ACIS-data 