600 0 1 0           
98 GICL ACIS Healer - Source: /gicl/data5/repository/PTC/V18/cabecad18/ptc_comp/cap22uf.prt.sat - 6 0 18 ACIS 6.0.3 Solaris 24 Sat Apr 13 22:26:13 2002 
1 9.999999999999999547e-07 1.000000000000000036e-10 
body $-1 $1 $-1 $-1 #
lump $-1 $-1 $2 $0 #
shell $-1 $-1 $-1 $3 $-1 $1 #
face $-1 $4 $5 $2 $-1 $6 reversed single #
face $-1 $7 $8 $2 $-1 $9 forward single #
loop $-1 $-1 $10 $3 #
plane-surface $-1 0 0 0 0 0 1 1 0 0 forward_v I I I I #
face $-1 $11 $12 $2 $-1 $13 reversed single #
loop $-1 $-1 $14 $4 #
cone-surface $-1 0 0 0 0 0 1 12 0 0 1 I I 0 1 12 forward I I I I #
coedge $-1 $15 $16 $17 $18 forward $5 $-1 #
face $-1 $19 $20 $2 $-1 $21 forward single #
loop $-1 $-1 $22 $7 #
plane-surface $-1 -8.485281374238569541 8.485281374238569541 15 -0.7071067811865475727 -0.7071067811865475727 0 0.7071067811865475727 -0.7071067811865475727 0 forward_v I I I I #
coedge $-1 $17 $23 $24 $25 reversed $8 $-1 #
coedge $-1 $26 $10 $27 $28 forward $5 $-1 #
coedge $-1 $10 $26 $29 $30 forward $5 $-1 #
coedge $-1 $31 $14 $10 $18 reversed $8 $-1 #
edge $-1 $32 -3.061515884555943146e-16 $33 5.497787143782137953 $10 $34 forward 7 unknown #
face $-1 $35 $36 $2 $-1 $37 reversed single #
loop $-1 $-1 $38 $11 #
torus-surface $-1 0 0 14.44999999999999929 0 0 1 11.44999999999999929 0.5 0 1 0 forward_v I I I I #
coedge $-1 $39 $40 $41 $42 forward $12 $-1 #
coedge $-1 $14 $31 $43 $44 reversed $8 $-1 #
coedge $-1 $45 $27 $14 $25 forward $12 $-1 #
edge $-1 $33 0 $46 14.5 $14 $47 forward 7 unknown #
coedge $-1 $16 $15 $48 $49 reversed $5 $-1 #
coedge $-1 $24 $50 $15 $28 reversed $12 $-1 #
edge $-1 $33 1.256073966947020133e-15 $51 0.5500000000000027089 $15 $52 forward 7 unknown #
coedge $-1 $53 $54 $16 $30 reversed $36 $-1 #
edge $-1 $55 0 $32 0.5500000000000007105 $16 $56 forward 7 unknown #
coedge $-1 $23 $17 $54 $57 forward $8 $-1 #
vertex $-1 $30 $58 #
vertex $-1 $28 $59 #
ellipse-curve $-1 0 2.498001805406602216e-16 0 0 0 -1 3.673819061467131775e-15 12 0 1 I I #
face $-1 $60 $61 $2 $-1 $62 reversed single #
loop $-1 $-1 $63 $19 #
plane-surface $-1 0 9 15 1 0 0 0 1 0 forward_v I I I I #
coedge $-1 $64 $65 $66 $67 forward $20 $-1 #
coedge $-1 $50 $22 $68 $69 reversed $12 $-1 #
coedge $-1 $22 $70 $71 $72 reversed $12 $-1 #
coedge $-1 $65 $64 $22 $42 reversed $20 $-1 #
edge $-1 $73 2.512147933894040267e-15 $74 1.570796326794899223 $22 $75 forward 7 unknown #
coedge $-1 $76 $77 $23 $44 forward $78 $-1 #
edge $-1 $46 0 $79 5.497787143782137953 $23 $80 forward 7 unknown #
coedge $-1 $81 $24 $77 $82 forward $12 $-1 #
vertex $-1 $44 $83 #
straight-curve $-1 -8.485281374238569541 8.485281374238571317 0 0 -1.225073682345000303e-16 1 I I #
coedge $-1 $84 $85 $26 $49 forward $86 $-1 #
edge $-1 $55 0 $51 0.7853981633974477239 $26 $87 forward 7 unknown #
coedge $-1 $27 $39 $84 $88 reversed $12 $-1 #
vertex $-1 $49 $89 #
straight-curve $-1 -8.485281374238571317 8.485281374238571317 0 0.7071067811865475727 -0.7071067811865475727 0 I I #
coedge $-1 $90 $29 $85 $91 forward $36 $-1 #
coedge $-1 $29 $92 $31 $57 reversed $36 $-1 #
vertex $-1 $30 $93 #
straight-curve $-1 0 11.44999999999999929 0 0 1 0 I I #
edge $-1 $32 3.723295585213582231e-32 $79 14.5 $31 $94 forward 7 unknown #
point $-1 0 12 0 #
point $-1 -8.485281374238569541 8.485281374238571317 0 #
face $-1 $95 $96 $2 $-1 $97 forward single #
loop $-1 $-1 $98 $35 #
cone-surface $-1 0 0 15 0 0 1 0 9 0 1 I I 0 1 9 forward I I I I #
coedge $-1 $99 $100 $101 $102 forward $36 $-1 #
coedge $-1 $41 $38 $103 $104 forward $20 $-1 #
coedge $-1 $38 $41 $105 $106 reversed $20 $-1 #
coedge $-1 $100 $90 $38 $67 reversed $36 $-1 #
edge $-1 $107 0 $108 1.570796326794896558 $66 $109 forward 7 unknown #
coedge $-1 $103 $110 $39 $69 forward $111 $-1 #
edge $-1 $112 0 $74 13.94999999999999929 $39 $113 forward 7 unknown #
coedge $-1 $40 $81 $114 $115 reversed $12 $-1 #
coedge $-1 $116 $105 $40 $72 forward $117 $-1 #
edge $-1 $73 0 $118 2.450000000000001954 $40 $119 forward 7 unknown #
vertex $-1 $72 $120 #
vertex $-1 $69 $121 #
ellipse-curve $-1 -8.096372644585969169 8.096372644585969169 14.44999999999999929 -0.7071067811865475727 -0.7071067811865475727 2.512147933894040267e-15 1.776356839400250465e-15 0 0.5 1 I I #
coedge $-1 $122 $43 $92 $123 forward $78 $-1 #
coedge $-1 $43 $122 $45 $82 reversed $78 $-1 #
loop $-1 $-1 $76 $124 #
vertex $-1 $44 $125 #
ellipse-curve $-1 0 0 14.5 0 0 1 -8.485281374238569541 8.485281374238569541 0 1 I I #
coedge $-1 $70 $45 $126 $127 forward $12 $-1 #
edge $-1 $46 0 $128 1.570796326794912323 $45 $129 forward 7 unknown #
point $-1 -8.485281374238569541 8.485281374238569541 14.5 #
coedge $-1 $130 $48 $50 $88 forward $86 $-1 #
coedge $-1 $48 $130 $53 $91 reversed $86 $-1 #
loop $-1 $-1 $84 $131 #
ellipse-curve $-1 2.664535259100375697e-15 -4.440892098500626162e-15 0 0 0 1 -2.664535259100375697e-15 11.45000000000000284 0 1 I I #
edge $-1 $51 0 $112 1.570796326794902775 $50 $132 forward 7 unknown #
point $-1 -8.096372644585967393 8.096372644585969169 0 #
coedge $-1 $66 $53 $133 $134 forward $36 $-1 #
edge $-1 $55 0 $135 1.570796326794903885 $53 $136 forward 7 unknown #
coedge $-1 $54 $99 $76 $123 reversed $36 $-1 #
point $-1 0 11.44999999999999929 0 #
straight-curve $-1 7.347638122934263549e-16 12 0 -5.067336636506388357e-17 0 1 I I #
face $-1 $137 $138 $2 $-1 $139 reversed single #
loop $-1 $-1 $140 $60 #
plane-surface $-1 0 0 14.69999999999999929 0 0 1 0 1 0 forward_v I I I I #
coedge $-1 $141 $142 $140 $143 reversed $61 $-1 #
coedge $-1 $92 $63 $144 $145 forward $36 $-1 #
coedge $-1 $63 $66 $146 $147 reversed $36 $-1 #
coedge $-1 $142 $148 $63 $102 reversed $61 $-1 #
edge $-1 $149 0 $150 0.05000000000000071054 $101 $151 forward 7 unknown #
coedge $-1 $133 $68 $64 $104 reversed $111 $-1 #
edge $-1 $108 0 $74 0.785398163397448279 $103 $152 forward 7 unknown #
coedge $-1 $71 $146 $65 $106 forward $117 $-1 #
edge $-1 $107 0 $73 0.7853981633974479459 $105 $153 forward 7 unknown #
vertex $-1 $147 $154 #
vertex $-1 $67 $155 #
ellipse-curve $-1 0 11.44999999999999929 14.44999999999999929 -1 0 0 0 0 0.5 1 I I #
coedge $-1 $68 $133 $130 $156 forward $111 $-1 #
loop $-1 $-1 $103 $157 #
vertex $-1 $88 $158 #
straight-curve $-1 -8.449926035179242234 8.449926035179242234 0.5 0 0 1 I I #
coedge $-1 $148 $141 $70 $115 forward $61 $-1 #
edge $-1 $118 0 $159 0.05000000000000071054 $114 $160 forward 7 unknown #
coedge $-1 $146 $71 $161 $162 forward $117 $-1 #
loop $-1 $-1 $116 $137 #
vertex $-1 $115 $163 #
straight-curve $-1 -8.096372644585969169 8.096372644585969169 14.94999999999999929 0.7071067811865474617 -0.7071067811865474617 0 I I #
point $-1 -8.096372644585969169 8.096372644585969169 14.94999999999999929 #
point $-1 -8.449926035179242234 8.449926035179242234 14.44999999999999929 #
coedge $-1 $77 $76 $164 $165 reversed $78 $-1 #
edge $-1 $79 0 $166 1.570796326794910991 $92 $167 forward 7 unknown #
face $-1 $131 $78 $2 $-1 $168 forward single #
point $-1 3.673819061467131775e-15 12 14.5 #
coedge $-1 $164 $169 $81 $127 reversed $170 $-1 #
edge $-1 $128 0 $159 2.500000000000000444 $126 $171 forward 7 unknown #
vertex $-1 $127 $172 #
ellipse-curve $-1 -8.131727983645298252 8.131727983645298252 14.50000000000000533 0.7071067811865475727 0.7071067811865475727 0 -0.3535533905932712884 0.3535533905932712884 -5.329070518200751394e-15 1 I I #
coedge $-1 $85 $84 $110 $156 reversed $86 $-1 #
face $-1 $157 $86 $2 $-1 $173 forward single #
ellipse-curve $-1 -8.096372644585969169 8.096372644585969169 0.4999999999999982236 0.7071067811865475727 0.7071067811865475727 2.512147933894049339e-15 1.776356839400250465e-15 0 -0.4999999999999982236 1 I I #
coedge $-1 $110 $103 $90 $134 reversed $111 $-1 #
edge $-1 $135 0 $108 13.94999999999999929 $90 $174 forward 7 unknown #
vertex $-1 $134 $175 #
ellipse-curve $-1 0 11.45000000000000107 0.4999999999999982236 1 0 0 0 -1.776356839400250465e-15 -0.4999999999999982236 1 I I #
face $-1 $176 $117 $2 $-1 $177 forward single #
loop $-1 $-1 $178 $95 #
cone-surface $-1 0 0 14.94999999999999929 0 0 1 0 9 0 1 I I 0 1 9 forward I I I I #
coedge $-1 $179 $179 $98 $143 forward $96 $-1 #
coedge $-1 $114 $98 $180 $181 forward $61 $-1 #
coedge $-1 $98 $101 $178 $182 reversed $61 $-1 #
edge $-1 $183 0 $184 5.497787143782137953 $140 $185 forward 7 unknown #
coedge $-1 $169 $164 $99 $145 reversed $170 $-1 #
edge $-1 $150 0 $166 2.5 $144 $186 forward 7 unknown #
coedge $-1 $105 $116 $100 $147 forward $117 $-1 #
edge $-1 $149 0 $107 2.449999999999999289 $100 $187 forward 7 unknown #
coedge $-1 $101 $114 $169 $188 reversed $61 $-1 #
vertex $-1 $182 $189 #
vertex $-1 $188 $190 #
straight-curve $-1 0 9 14.94999999999999929 0 0 1 I I #
ellipse-curve $-1 0 0 14.44999999999999929 0 0 1 0 11.94999999999999929 0 1 I I #
ellipse-curve $-1 2.664535259100375697e-15 -4.440892098500626162e-15 14.94999999999999929 0 0 1 -2.664535259100375697e-15 11.45000000000000284 0 1 I I #
point $-1 0 11.44999999999999929 14.94999999999999929 #
point $-1 0 11.94999999999999929 14.44999999999999929 #
edge $-1 $135 0 $112 0.785398163397448279 $110 $191 forward 7 unknown #
face $-1 $-1 $111 $2 $-1 $192 forward single #
point $-1 -8.449926035179242234 8.449926035179242234 0.5 #
vertex $-1 $127 $193 #
straight-curve $-1 -6.363961030678926711 6.363961030678926711 14.94999999999999929 -1.776356839400225221e-14 3.552713678800450442e-14 1 I I #
coedge $-1 $180 $178 $116 $162 reversed $138 $-1 #
edge $-1 $118 0 $149 0.785398163397448279 $116 $194 forward 7 unknown #
point $-1 -6.363961030678926711 6.363961030678926711 14.94999999999999929 #
coedge $-1 $144 $126 $122 $165 forward $170 $-1 #
edge $-1 $128 0 $166 5.497787143782137953 $164 $195 forward 7 unknown #
vertex $-1 $145 $196 #
ellipse-curve $-1 0 11.50000000000000355 14.50000000000000355 1 -7.347638122934315614e-15 5.220810893244992939e-29 3.673819061467131775e-15 0.4999999999999964473 -3.552713678800500929e-15 1 I I #
torus-surface $-1 0 0 14.5 0 0 1 11.5 0.5 1 0 0 forward_v I I I I #
coedge $-1 $126 $144 $148 $188 forward $170 $-1 #
loop $-1 $-1 $164 $176 #
straight-curve $-1 -8.131727983645296476 8.131727983645296476 15 0.7071067811865475727 -0.7071067811865475727 0 I I #
point $-1 -8.131727983645296476 8.131727983645296476 15 #
torus-surface $-1 0 0 0.5 0 0 1 11.44999999999999929 0.5 0 1 0 forward_v I I I I #
straight-curve $-1 0 11.94999999999999929 0.5 0 0 1 I I #
point $-1 0 11.94999999999999929 0.5 #
face $-1 $124 $170 $2 $-1 $197 forward single #
plane-surface $-1 0 0 14.94999999999999929 0 0 1 0 1 0 forward_v I I I I #
coedge $-1 $161 $198 $142 $182 forward $138 $-1 #
coedge $-1 $140 $140 $198 $199 forward $96 $-1 #
coedge $-1 $198 $161 $141 $181 reversed $138 $-1 #
edge $-1 $183 0 $118 0.25 $141 $200 forward 7 unknown #
edge $-1 $184 0 $149 0.25 $142 $201 forward 7 unknown #
vertex $-1 $199 $202 #
vertex $-1 $199 $203 #
ellipse-curve $-1 3.330669073875469621e-16 4.440892098500626162e-16 14.69999999999999929 0 0 1 -6.3639610306789276 6.3639610306789276 0 1 I I #
straight-curve $-1 0 9 15 0 1 0 I I #
straight-curve $-1 0 9 14.94999999999999929 0 1 0 I I #
edge $-1 $150 0 $159 5.497787143782137953 $169 $204 forward 7 unknown #
point $-1 0 9 14.94999999999999929 #
point $-1 2.204291436880279065e-15 9 15 #
ellipse-curve $-1 0 0 0.5 0 0 1 0 11.94999999999999929 0 1 I I #
cone-surface $-1 0 0 14.94999999999999929 0 0 1 0 11.94999999999999929 0 1 I I 0 1 11.94999999999999929 forward I I I I #
point $-1 -6.3639610306789276 6.3639610306789276 15 #
ellipse-curve $-1 0 0 14.94999999999999929 0 0 -1 -6.3639610306789276 6.3639610306789276 0 1 I I #
ellipse-curve $-1 1.554312234475219157e-15 0 15 0 0 1 -8.131727983645300029 8.131727983645298252 0 1 I I #
point $-1 0 11.5 15 #
plane-surface $-1 0 0 15 0 0 1 1 0 0 forward_v I I I I #
coedge $-1 $178 $180 $179 $199 reversed $138 $-1 #
edge $-1 $184 0 $183 0.7853981633974475018 $179 $205 forward 7 unknown #
straight-curve $-1 -6.3639610306789276 6.363961030678928488 14.69999999999999929 0 0 1 I I #
straight-curve $-1 0 9 14.69999999999999929 0 0 1 I I #
point $-1 -6.3639610306789276 6.3639610306789276 14.69999999999999929 #
point $-1 0 9 14.69999999999999929 #
ellipse-curve $-1 -1.998401444325281773e-15 0 15 0 0 -1 4.202692881205560838e-15 9 0 1 I I #
ellipse-curve $-1 3.774758283725532237e-15 -8.437694987151189707e-15 14.69999999999999929 0 0 1 -3.774758283725532237e-15 9.000000000000008882 0 1 I I #
End-of-ACIS-data 