700 0 2 0           
24 FBMach with ACIS - 7.0.3 13 ACIS 7.0.3 NT 24 Wed May 15 23:36:40 2002 
1 9.9999999999999995e-007 1e-010 
body $2 -1 $-1 $3 $-1 $4 #
bdycol-kcp $-1 -1 1 3 $5 $6 $7 #
model_id-kcp-attrib $-1 -1 $-1 $-1 $0 1 1021520198 1021520198 157483009 1 #
lump $-1 -1 $-1 $-1 $8 $0 #
transform $-1 -1 1 0 0 0 1 0 0 0 1 0 0 0 1 rotate no_reflect no_shear #
body $9 -1 $-1 $10 $-1 $11 #
body $12 -1 $-1 $13 $-1 $14 #
body $15 -1 $-1 $16 $-1 $17 #
shell $-1 -1 $-1 $-1 $-1 $18 $-1 $3 #
rgb_color-st-attrib $-1 -1 $19 $-1 $5 0 0 1 #
lump $-1 -1 $-1 $-1 $20 $5 #
transform $-1 -1 1 0 0 0 1 0 0 0 1 0 0 7.5000000000000009 1 no_rotate no_reflect no_shear #
model_id-kcp-attrib $-1 -1 $-1 $-1 $6 1 1021520198 1021520198 158138370 1 #
lump $-1 -1 $-1 $-1 $21 $6 #
transform $-1 -1 1 0 0 0 1 0 0 0 1 0 0 7.5000000000000009 1 no_rotate no_reflect no_shear #
rgb_color-st-attrib $-1 -1 $22 $-1 $7 0.59999999999999998 0.90000000000000002 1 #
lump $-1 -1 $-1 $-1 $23 $7 #
transform $-1 -1 1 0 0 0 1 0 0 0 1 0 0 7.5000000000000009 1 no_rotate no_reflect no_shear #
face $24 -1 $-1 $25 $26 $8 $-1 $27 reversed single #
model_id-kcp-attrib $-1 -1 $-1 $9 $5 1 1021520198 1021520198 155779075 1 #
shell $-1 -1 $-1 $-1 $-1 $28 $-1 $10 #
shell $-1 -1 $-1 $-1 $-1 $29 $-1 $13 #
model_id-kcp-attrib $-1 -1 $-1 $15 $7 1 1021520198 1021520198 160301060 1 #
shell $-1 -1 $-1 $-1 $-1 $30 $-1 $16 #
model_id-kcp-attrib $-1 -1 $-1 $-1 $18 1 1021520198 1021520198 157483009 2 #
face $31 -1 $-1 $32 $33 $8 $-1 $34 forward single #
loop $-1 -1 $-1 $-1 $35 $18 #
plane-surface $-1 -1 $-1 0 0 0 0 0 1 1 0 0 forward_v I I I I #
face $-1 -1 $-1 $36 $37 $20 $-1 $38 forward single #
face $39 -1 $-1 $40 $41 $21 $-1 $42 forward single #
face $-1 -1 $-1 $43 $44 $23 $-1 $45 forward single #
model_id-kcp-attrib $-1 -1 $-1 $-1 $25 1 1021520198 1021520198 157483009 3 #
face $46 -1 $-1 $47 $48 $8 $-1 $49 reversed single #
loop $-1 -1 $-1 $-1 $50 $25 #
cone-surface $-1 -1 $-1 0 0 0 0 0 1 12 0 0 1 I I 0 1 12 forward I I I I #
coedge $-1 -1 $-1 $51 $52 $53 $54 forward $26 $-1 #
face $-1 -1 $-1 $55 $56 $20 $-1 $57 forward single #
loop $-1 -1 $-1 $58 $59 $28 #
cone-surface $-1 -1 $-1 0 0 7.2000000000000028 0 0 1 0 9 0 1 I I 0 1 9 forward I I I I #
model_id-kcp-attrib $-1 -1 $-1 $-1 $29 1 1021520198 1021520198 158138370 3 #
face $60 -1 $-1 $61 $62 $21 $-1 $63 reversed single #
loop $-1 -1 $-1 $-1 $64 $29 #
plane-surface $-1 -1 $-1 0 0 7.5000000000000009 0 0 1 1 0 0 forward_v I I I I #
face $-1 -1 $-1 $65 $66 $23 $-1 $67 forward single #
loop $-1 -1 $-1 $-1 $68 $30 #
plane-surface $-1 -1 $-1 1.7763568394002505e-015 11.717944947177031 7.450000000000002 1 0 0 0 0 -1 forward_v I I I I #
model_id-kcp-attrib $-1 -1 $-1 $-1 $32 1 1021520198 1021520198 157483009 4 #
face $69 -1 $-1 $70 $71 $8 $-1 $72 forward single #
loop $-1 -1 $-1 $-1 $73 $32 #
plane-surface $-1 -1 $-1 -8.4852813742385695 8.4852813742385695 15 -0.70710678118654757 -0.70710678118654757 0 0.70710678118654757 -0.70710678118654757 0 forward_v I I I I #
coedge $-1 -1 $-1 $53 $74 $75 $76 reversed $33 $-1 #
coedge $-1 -1 $-1 $77 $35 $78 $79 forward $26 $-1 #
coedge $-1 -1 $-1 $35 $77 $80 $81 forward $26 $-1 #
coedge $-1 -1 $-1 $82 $50 $35 $54 reversed $33 $-1 #
edge $83 -1 $-1 $84 -3.0615158845559431e-016 $85 5.497787143782138 $35 $86 forward @7 unknown #
face $-1 -1 $-1 $-1 $87 $20 $-1 $88 reversed single #
loop $-1 -1 $-1 $-1 $89 $36 #
plane-surface $-1 -1 $-1 -0.29873031859788612 0.72119878665105286 7.4500000000000028 0 0 1 1 0 0 forward_v I I I I #
loop $-1 -1 $-1 $-1 $90 $28 #
coedge $-1 -1 $-1 $59 $59 $89 $91 forward $37 $-1 #
model_id-kcp-attrib $-1 -1 $-1 $-1 $40 1 1021520198 1021520198 158138370 2 #
face $-1 -1 $-1 $92 $93 $21 $-1 $94 reversed single #
loop $-1 -1 $-1 $-1 $95 $40 #
plane-surface $-1 -1 $-1 0 0 -7.5000000000000009 0 0 1 1 0 0 forward_v I I I I #
coedge $-1 -1 $-1 $96 $97 $98 $99 forward $41 $-1 #
face $-1 -1 $-1 $100 $101 $23 $-1 $102 forward single #
loop $-1 -1 $-1 $-1 $103 $43 #
cone-surface $-1 -1 $-1 0 0 7.4500000000000028 0 0 1 11.717944947177026 0 0 1 I I 0 -1 11.717944947177026 forward I I I I #
coedge $-1 -1 $-1 $104 $105 $106 $107 forward $44 $-1 #
model_id-kcp-attrib $-1 -1 $-1 $-1 $47 1 1021520198 1021520198 157483009 5 #
face $108 -1 $-1 $109 $110 $8 $-1 $111 reversed single #
loop $-1 -1 $-1 $-1 $112 $47 #
torus-surface $-1 -1 $-1 0 0 14.449999999999999 0 0 1 11.449999999999999 0.5 0 1 0 forward_v I I I I #
coedge $-1 -1 $-1 $113 $114 $115 $116 forward $48 $-1 #
coedge $-1 -1 $-1 $50 $82 $117 $118 reversed $33 $-1 #
coedge $-1 -1 $-1 $119 $78 $50 $76 forward $48 $-1 #
edge $120 -1 $-1 $85 0 $121 14.5 $50 $122 forward @7 unknown #
coedge $-1 -1 $-1 $52 $51 $123 $124 reversed $26 $-1 #
coedge $-1 -1 $-1 $75 $125 $51 $79 reversed $48 $-1 #
edge $126 -1 $-1 $85 1.2560739669470201e-015 $127 0.55000000000000271 $51 $128 forward @7 unknown #
coedge $-1 -1 $-1 $129 $130 $52 $81 reversed $110 $-1 #
edge $131 -1 $-1 $132 0 $84 0.55000000000000071 $52 $133 forward @7 unknown #
coedge $-1 -1 $-1 $74 $53 $130 $134 forward $33 $-1 #
attrib_edge_convexity-kcp-attrib $-1 -1 $135 $-1 $54 1 #
vertex $-1 -1 $-1 $81 $136 #
vertex $-1 -1 $-1 $79 $137 #
ellipse-curve $-1 -1 $-1 0 2.4980018054066022e-016 0 0 0 -1 3.6738190614671318e-015 12 0 1 I I #
loop $-1 -1 $-1 $-1 $138 $55 #
plane-surface $-1 -1 $-1 -0.29873031859788612 0.72119878665105286 7.2000000000000028 0 0 1 1 0 0 forward_v I I I I #
coedge $-1 -1 $-1 $89 $89 $59 $91 reversed $56 $-1 #
coedge $-1 -1 $-1 $90 $90 $138 $139 reversed $58 $-1 #
edge $-1 -1 $-1 $140 0 $140 6.2831853071795862 $59 $141 forward @7 unknown #
face $-1 -1 $-1 $142 $143 $21 $-1 $144 reversed single #
loop $-1 -1 $-1 $-1 $145 $61 #
plane-surface $-1 -1 $-1 0 -12 0 0 1 0 0 0 1 forward_v I I I I #
coedge $-1 -1 $-1 $146 $147 $148 $149 forward $62 $-1 #
coedge $-1 -1 $-1 $150 $64 $151 $152 forward $41 $-1 #
coedge $-1 -1 $-1 $64 $150 $153 $154 forward $41 $-1 #
coedge $-1 -1 $-1 $155 $156 $64 $99 reversed $157 $-1 #
edge $-1 -1 $-1 $158 -12 $159 12 $98 $160 forward @7 unknown #
face $-1 -1 $-1 $161 $162 $23 $-1 $163 forward single #
loop $-1 -1 $-1 $-1 $164 $65 #
cone-surface $-1 -1 $-1 0 0 7.4500000000000028 0 0 1 0 9 0 1 I I 0 1 9 forward I I I I #
coedge $-1 -1 $-1 $165 $166 $167 $168 forward $66 $-1 #
coedge $-1 -1 $-1 $169 $68 $170 $171 reversed $44 $-1 #
coedge $-1 -1 $-1 $68 $169 $165 $172 forward $44 $-1 #
coedge $-1 -1 $-1 $167 $173 $68 $107 reversed $174 $-1 #
edge $-1 -1 $-1 $175 -6.6054449471770313 $176 -3.8875000000000002 $68 $177 forward @7 unknown #
model_id-kcp-attrib $-1 -1 $-1 $-1 $70 1 1021520198 1021520198 157483009 6 #
face $178 -1 $-1 $179 $180 $8 $-1 $181 reversed single #
loop $-1 -1 $-1 $-1 $182 $70 #
plane-surface $-1 -1 $-1 0 9 15 1 0 0 0 1 0 forward_v I I I I #
coedge $-1 -1 $-1 $183 $184 $185 $186 forward $71 $-1 #
coedge $-1 -1 $-1 $125 $73 $187 $188 reversed $48 $-1 #
coedge $-1 -1 $-1 $73 $189 $190 $191 reversed $48 $-1 #
coedge $-1 -1 $-1 $184 $183 $73 $116 reversed $71 $-1 #
edge $192 -1 $-1 $193 2.5121479338940403e-015 $194 1.5707963267948992 $73 $195 forward @7 unknown #
coedge $-1 -1 $-1 $196 $197 $74 $118 forward $198 $-1 #
edge $-1 -1 $-1 $121 0 $199 5.497787143782138 $74 $200 forward @7 unknown #
coedge $-1 -1 $-1 $201 $75 $197 $202 forward $48 $-1 #
attrib_edge_convexity-kcp-attrib $-1 -1 $203 $-1 $76 1 #
vertex $-1 -1 $-1 $118 $204 #
straight-curve $-1 -1 $-1 -8.4852813742385695 8.4852813742385713 0 0 -1.2250736823450003e-016 1 I I #
coedge $-1 -1 $-1 $205 $206 $77 $124 forward $207 $-1 #
edge $208 -1 $-1 $132 0 $127 0.78539816339744772 $77 $209 forward @7 unknown #
coedge $-1 -1 $-1 $78 $113 $205 $210 reversed $48 $-1 #
attrib_edge_convexity-kcp-attrib $-1 -1 $211 $-1 $79 1 #
vertex $-1 -1 $-1 $124 $212 #
straight-curve $-1 -1 $-1 -8.4852813742385713 8.4852813742385713 0 0.70710678118654757 -0.70710678118654757 0 I I #
coedge $-1 -1 $-1 $213 $80 $206 $214 forward $110 $-1 #
coedge $-1 -1 $-1 $80 $215 $82 $134 reversed $110 $-1 #
attrib_edge_convexity-kcp-attrib $-1 -1 $216 $-1 $81 1 #
vertex $-1 -1 $-1 $81 $217 #
straight-curve $-1 -1 $-1 0 11.449999999999999 0 0 1 0 I I #
edge $218 -1 $-1 $84 3.7232955852135822e-032 $199 14.5 $82 $219 forward @7 unknown #
convexity-sys-attrib $-1 -1 $-1 $83 $54 #
point $-1 -1 $-1 0 12 0 #
point $-1 -1 $-1 -8.4852813742385695 8.4852813742385713 0 #
coedge $-1 -1 $-1 $138 $138 $90 $139 forward $87 $-1 #
edge $220 -1 $-1 $221 -0.78539816339744828 $221 5.497787143782138 $90 $222 forward @7 unknown #
vertex $-1 -1 $-1 $91 $223 #
ellipse-curve $-1 -1 $-1 0 0 7.4500000000000028 0 0 -1 0 9 0 1 I I #
face $-1 -1 $-1 $224 $225 $21 $-1 $226 reversed single #
loop $-1 -1 $-1 $-1 $227 $92 #
plane-surface $-1 -1 $-1 -12 0 0 1 0 0 0 0 -1 forward_v I I I I #
coedge $-1 -1 $-1 $228 $153 $229 $230 forward $93 $-1 #
coedge $-1 -1 $-1 $231 $95 $228 $232 forward $62 $-1 #
coedge $-1 -1 $-1 $95 $231 $233 $234 forward $62 $-1 #
coedge $-1 -1 $-1 $156 $155 $95 $149 reversed $157 $-1 #
edge $-1 -1 $-1 $235 -12 $236 12 $148 $237 forward @7 unknown #
coedge $-1 -1 $-1 $97 $96 $238 $239 forward $41 $-1 #
coedge $-1 -1 $-1 $240 $241 $96 $152 reversed $225 $-1 #
edge $-1 -1 $-1 $159 -12 $242 12 $151 $243 forward @7 unknown #
coedge $-1 -1 $-1 $145 $244 $97 $154 reversed $93 $-1 #
edge $-1 -1 $-1 $245 -12 $158 12 $153 $246 forward @7 unknown #
coedge $-1 -1 $-1 $148 $98 $244 $247 forward $157 $-1 #
coedge $-1 -1 $-1 $98 $148 $240 $248 reversed $157 $-1 #
loop $-1 -1 $-1 $-1 $155 $224 #
vertex $-1 -1 $-1 $99 $249 #
vertex $-1 -1 $-1 $99 $250 #
straight-curve $-1 -1 $-1 12 0 7.5000000000000009 0 1 0 I I #
face $-1 -1 $-1 $251 $252 $23 $-1 $253 forward single #
loop $-1 -1 $-1 $-1 $254 $100 #
plane-surface $-1 -1 $-1 -6.3639610306789258 6.3639610306789258 7.4499999999999984 -0.70710678118654757 -0.70710678118654757 0 0 0 1 forward_v I I I I #
coedge $-1 -1 $-1 $255 $170 $173 $256 forward $101 $-1 #
coedge $-1 -1 $-1 $257 $103 $105 $172 reversed $66 $-1 #
coedge $-1 -1 $-1 $103 $257 $258 $259 forward $66 $-1 #
coedge $-1 -1 $-1 $260 $106 $103 $168 reversed $174 $-1 #
edge $-1 -1 $-1 $261 2.3561944901923453 $175 7.8539816339744828 $103 $262 forward @7 unknown #
coedge $-1 -1 $-1 $105 $104 $263 $264 reversed $44 $-1 #
coedge $-1 -1 $-1 $164 $265 $104 $171 forward $101 $-1 #
edge $266 -1 $-1 $267 0 $176 0.050000000000000711 $170 $268 forward @7 unknown #
edge $-1 -1 $-1 $269 0 $175 0.050000000000000711 $105 $270 forward @7 unknown #
coedge $-1 -1 $-1 $106 $260 $164 $256 reversed $174 $-1 #
loop $-1 -1 $-1 $-1 $167 $271 #
vertex $-1 -1 $-1 $172 $272 #
vertex $-1 -1 $-1 $171 $273 #
straight-curve $-1 -1 $-1 0 5.1124999999999998 7.5000000000000036 0 -1 0 I I #
model_id-kcp-attrib $-1 -1 $-1 $-1 $109 1 1021520198 1021520198 157483009 7 #
face $274 -1 $-1 $275 $276 $8 $-1 $277 forward single #
loop $-1 -1 $-1 $-1 $278 $109 #
cone-surface $-1 -1 $-1 0 0 15 0 0 1 0 9 0 1 I I 0 1 9 forward I I I I #
coedge $-1 -1 $-1 $279 $280 $281 $282 forward $110 $-1 #
coedge $-1 -1 $-1 $115 $112 $283 $284 forward $71 $-1 #
coedge $-1 -1 $-1 $112 $115 $285 $286 reversed $71 $-1 #
coedge $-1 -1 $-1 $280 $213 $112 $186 reversed $110 $-1 #
edge $287 -1 $-1 $288 0 $289 1.5707963267948966 $185 $290 forward @7 unknown #
coedge $-1 -1 $-1 $283 $291 $113 $188 forward $292 $-1 #
edge $293 -1 $-1 $294 0 $194 13.949999999999999 $113 $295 forward @7 unknown #
coedge $-1 -1 $-1 $114 $201 $296 $297 reversed $48 $-1 #
coedge $-1 -1 $-1 $298 $285 $114 $191 forward $299 $-1 #
edge $300 -1 $-1 $193 0 $301 2.450000000000002 $114 $302 forward @7 unknown #
attrib_edge_convexity-kcp-attrib $-1 -1 $303 $-1 $116 2 #
vertex $-1 -1 $-1 $191 $304 #
vertex $-1 -1 $-1 $188 $305 #
ellipse-curve $-1 -1 $-1 -8.0963726445859692 8.0963726445859692 14.449999999999999 -0.70710678118654757 -0.70710678118654757 2.5121479338940403e-015 1.7763568394002505e-015 0 0.5 1 I I #
coedge $-1 -1 $-1 $306 $117 $215 $307 forward $198 $-1 #
coedge $-1 -1 $-1 $117 $306 $119 $202 reversed $198 $-1 #
loop $-1 -1 $-1 $-1 $196 $308 #
vertex $-1 -1 $-1 $118 $309 #
ellipse-curve $-1 -1 $-1 0 0 14.5 0 0 1 -8.4852813742385695 8.4852813742385695 0 1 I I #
coedge $-1 -1 $-1 $189 $119 $310 $311 forward $48 $-1 #
edge $312 -1 $-1 $121 0 $313 1.5707963267949123 $119 $314 forward @7 unknown #
convexity-sys-attrib $-1 -1 $-1 $120 $76 #
point $-1 -1 $-1 -8.4852813742385695 8.4852813742385695 14.5 #
coedge $-1 -1 $-1 $315 $123 $125 $210 forward $207 $-1 #
coedge $-1 -1 $-1 $123 $315 $129 $214 reversed $207 $-1 #
loop $-1 -1 $-1 $-1 $205 $316 #
attrib_edge_convexity-kcp-attrib $-1 -1 $317 $-1 $124 3 #
ellipse-curve $-1 -1 $-1 2.6645352591003757e-015 -4.4408920985006262e-015 0 0 0 1 -2.6645352591003757e-015 11.450000000000003 0 1 I I #
edge $318 -1 $-1 $127 0 $294 1.5707963267949028 $125 $319 forward @7 unknown #
convexity-sys-attrib $-1 -1 $-1 $126 $79 #
point $-1 -1 $-1 -8.0963726445859674 8.0963726445859692 0 #
coedge $-1 -1 $-1 $185 $129 $320 $321 forward $110 $-1 #
edge $322 -1 $-1 $132 0 $323 1.5707963267949039 $129 $324 forward @7 unknown #
coedge $-1 -1 $-1 $130 $279 $196 $307 reversed $110 $-1 #
convexity-sys-attrib $-1 -1 $-1 $131 $81 #
point $-1 -1 $-1 0 11.449999999999999 0 #
attrib_edge_convexity-kcp-attrib $-1 -1 $325 $-1 $134 1 #
straight-curve $-1 -1 $-1 7.3476381229342635e-016 12 0 -5.0673366365063884e-017 0 1 I I #
convexity-sys-attrib $-1 -1 $-1 $-1 $139 #
vertex $-1 -1 $-1 $139 $326 #
ellipse-curve $-1 -1 $-1 0 0 7.2000000000000028 0 0 -1 0 9 0 1 I I #
point $-1 -1 $-1 0 9 7.4499999999999984 #
face $-1 -1 $-1 $-1 $157 $21 $-1 $327 reversed single #
loop $-1 -1 $-1 $-1 $240 $142 #
plane-surface $-1 -1 $-1 0 12 0 0 -1 0 0 0 -1 forward_v I I I I #
coedge $-1 -1 $-1 $328 $238 $241 $329 forward $143 $-1 #
coedge $-1 -1 $-1 $244 $145 $146 $232 reversed $93 $-1 #
coedge $-1 -1 $-1 $238 $328 $145 $230 reversed $143 $-1 #
edge $-1 -1 $-1 $245 -7.5000000000000009 $330 7.5000000000000009 $229 $331 forward @7 unknown #
coedge $-1 -1 $-1 $147 $146 $328 $332 forward $62 $-1 #
edge $-1 -1 $-1 $236 -12 $330 12 $228 $333 forward @7 unknown #
coedge $-1 -1 $-1 $241 $240 $147 $234 reversed $225 $-1 #
edge $-1 -1 $-1 $334 -12 $235 12 $233 $335 forward @7 unknown #
vertex $-1 -1 $-1 $149 $336 #
vertex $-1 -1 $-1 $247 $337 #
straight-curve $-1 -1 $-1 12 0 -7.5000000000000009 0 -1 0 I I #
coedge $-1 -1 $-1 $227 $229 $150 $239 reversed $143 $-1 #
edge $-1 -1 $-1 $242 -12 $245 12 $238 $338 forward @7 unknown #
coedge $-1 -1 $-1 $233 $151 $156 $248 forward $225 $-1 #
coedge $-1 -1 $-1 $151 $233 $227 $329 reversed $225 $-1 #
vertex $-1 -1 $-1 $152 $339 #
straight-curve $-1 -1 $-1 0 12 7.5000000000000009 -1 0 0 I I #
coedge $-1 -1 $-1 $153 $228 $155 $247 reversed $93 $-1 #
vertex $-1 -1 $-1 $239 $340 #
straight-curve $-1 -1 $-1 0 -12 7.5000000000000009 1 0 0 I I #
edge $-1 -1 $-1 $158 -7.5000000000000009 $236 7.5000000000000009 $155 $341 forward @7 unknown #
edge $-1 -1 $-1 $159 -7.5000000000000009 $235 7.5000000000000009 $156 $342 forward @7 unknown #
point $-1 -1 $-1 12 -12 7.5000000000000009 #
point $-1 -1 $-1 12 12 7.5000000000000009 #
face $-1 -1 $-1 $343 $344 $23 $-1 $345 forward single #
loop $-1 -1 $-1 $-1 $346 $161 #
plane-surface $-1 -1 $-1 -12 -12 7.4500000000000028 -1 0 0 0 0 1 forward_v I I I I #
coedge $-1 -1 $-1 $347 $258 $348 $349 reversed $162 $-1 #
coedge $-1 -1 $-1 $265 $164 $347 $350 reversed $101 $-1 #
edge $-1 -1 $-1 $176 0 $351 5.497787143782138 $164 $352 forward @7 unknown #
coedge $-1 -1 $-1 $166 $165 $353 $354 reversed $66 $-1 #
coedge $-1 -1 $-1 $254 $355 $166 $259 reversed $162 $-1 #
edge $-1 -1 $-1 $356 0 $261 0.050000000000000711 $166 $357 forward @7 unknown #
coedge $-1 -1 $-1 $173 $167 $355 $358 reversed $174 $-1 #
vertex $-1 -1 $-1 $259 $359 #
ellipse-curve $-1 -1 $-1 0 0 7.5000000000000036 0 0 1 11.717944947177026 0 0 1 I I #
coedge $-1 -1 $-1 $360 $353 $169 $264 forward $361 $-1 #
edge $362 -1 $-1 $269 -6.6054449471770313 $267 -3.8875000000000002 $169 $363 forward @7 unknown #
coedge $-1 -1 $-1 $170 $255 $360 $364 reversed $101 $-1 #
convexity-sys-attrib $-1 -1 $-1 $-1 $171 #
vertex $-1 -1 $-1 $264 $365 #
straight-curve $-1 -1 $-1 0 9 7.4499999999999984 0 0 1 I I #
vertex $-1 -1 $-1 $354 $366 #
straight-curve $-1 -1 $-1 1.7763568394002505e-015 11.717944947177031 7.450000000000002 0 0 1 I I #
face $-1 -1 $-1 $367 $368 $23 $-1 $369 forward single #
point $-1 -1 $-1 1.7763568394002505e-015 11.717944947177031 7.5000000000000027 #
point $-1 -1 $-1 0 9 7.4999999999999991 #
model_id-kcp-attrib $-1 -1 $-1 $-1 $179 1 1021520198 1021520198 157483009 8 #
face $370 -1 $-1 $371 $372 $8 $-1 $373 reversed single #
loop $-1 -1 $-1 $-1 $374 $179 #
plane-surface $-1 -1 $-1 0 0 14.699999999999999 0 0 1 0 1 0 forward_v I I I I #
coedge $-1 -1 $-1 $375 $376 $374 $377 reversed $180 $-1 #
coedge $-1 -1 $-1 $215 $182 $378 $379 forward $110 $-1 #
coedge $-1 -1 $-1 $182 $185 $380 $381 reversed $110 $-1 #
coedge $-1 -1 $-1 $376 $382 $182 $282 reversed $180 $-1 #
edge $383 -1 $-1 $384 0 $385 0.050000000000000711 $281 $386 forward @7 unknown #
coedge $-1 -1 $-1 $320 $187 $183 $284 reversed $292 $-1 #
edge $-1 -1 $-1 $289 0 $194 0.78539816339744828 $283 $387 forward @7 unknown #
coedge $-1 -1 $-1 $190 $380 $184 $286 forward $299 $-1 #
edge $388 -1 $-1 $288 0 $193 0.78539816339744795 $285 $389 forward @7 unknown #
attrib_edge_convexity-kcp-attrib $-1 -1 $390 $-1 $186 2 #
vertex $-1 -1 $-1 $381 $391 #
vertex $-1 -1 $-1 $186 $392 #
ellipse-curve $-1 -1 $-1 0 11.449999999999999 14.449999999999999 -1 0 0 0 0 0.5 1 I I #
coedge $-1 -1 $-1 $187 $320 $315 $393 forward $292 $-1 #
loop $-1 -1 $-1 $-1 $283 $394 #
attrib_edge_convexity-kcp-attrib $-1 -1 $395 $-1 $188 2 #
vertex $-1 -1 $-1 $210 $396 #
straight-curve $-1 -1 $-1 -8.4499260351792422 8.4499260351792422 0.5 0 0 1 I I #
coedge $-1 -1 $-1 $382 $375 $189 $297 forward $180 $-1 #
edge $397 -1 $-1 $301 0 $398 0.050000000000000711 $296 $399 forward @7 unknown #
coedge $-1 -1 $-1 $380 $190 $400 $401 forward $299 $-1 #
loop $-1 -1 $-1 $-1 $298 $371 #
attrib_edge_convexity-kcp-attrib $-1 -1 $402 $-1 $191 2 #
vertex $-1 -1 $-1 $297 $403 #
straight-curve $-1 -1 $-1 -8.0963726445859692 8.0963726445859692 14.949999999999999 0.70710678118654746 -0.70710678118654746 0 I I #
convexity-sys-attrib $-1 -1 $-1 $192 $116 #
point $-1 -1 $-1 -8.0963726445859692 8.0963726445859692 14.949999999999999 #
point $-1 -1 $-1 -8.4499260351792422 8.4499260351792422 14.449999999999999 #
coedge $-1 -1 $-1 $197 $196 $404 $405 reversed $198 $-1 #
edge $406 -1 $-1 $199 0 $407 1.570796326794911 $215 $408 forward @7 unknown #
face $409 -1 $-1 $316 $198 $8 $-1 $410 forward single #
point $-1 -1 $-1 3.6738190614671318e-015 12 14.5 #
coedge $-1 -1 $-1 $404 $411 $201 $311 reversed $412 $-1 #
edge $413 -1 $-1 $313 0 $398 2.5000000000000004 $310 $414 forward @7 unknown #
attrib_edge_convexity-kcp-attrib $-1 -1 $415 $-1 $202 1 #
vertex $-1 -1 $-1 $311 $416 #
ellipse-curve $-1 -1 $-1 -8.1317279836452983 8.1317279836452983 14.500000000000005 0.70710678118654757 0.70710678118654757 0 -0.35355339059327129 0.35355339059327129 -5.3290705182007514e-015 1 I I #
coedge $-1 -1 $-1 $206 $205 $291 $393 reversed $207 $-1 #
face $417 -1 $-1 $394 $207 $8 $-1 $418 forward single #
convexity-sys-attrib $-1 -1 $-1 $208 $124 #
attrib_edge_convexity-kcp-attrib $-1 -1 $419 $-1 $210 2 #
ellipse-curve $-1 -1 $-1 -8.0963726445859692 8.0963726445859692 0.49999999999999822 0.70710678118654757 0.70710678118654757 2.5121479338940493e-015 1.7763568394002505e-015 0 -0.49999999999999822 1 I I #
coedge $-1 -1 $-1 $291 $283 $213 $321 reversed $292 $-1 #
edge $420 -1 $-1 $323 0 $289 13.949999999999999 $213 $421 forward @7 unknown #
attrib_edge_convexity-kcp-attrib $-1 -1 $422 $-1 $214 2 #
vertex $-1 -1 $-1 $321 $423 #
ellipse-curve $-1 -1 $-1 0 11.450000000000001 0.49999999999999822 1 0 0 0 -1.7763568394002505e-015 -0.49999999999999822 1 I I #
convexity-sys-attrib $-1 -1 $-1 $218 $134 #
point $-1 -1 $-1 -6.3639610306789276 6.3639610306789276 7.1999999999999984 #
plane-surface $-1 -1 $-1 12 0 0 -1 0 0 0 0 1 forward_v I I I I #
coedge $-1 -1 $-1 $229 $227 $231 $332 reversed $143 $-1 #
edge $-1 -1 $-1 $242 -7.5000000000000009 $334 7.5000000000000009 $241 $424 forward @7 unknown #
vertex $-1 -1 $-1 $332 $425 #
straight-curve $-1 -1 $-1 -12 -12 0 0 0 -1 I I #
edge $-1 -1 $-1 $330 -12 $334 12 $328 $426 forward @7 unknown #
straight-curve $-1 -1 $-1 0 -12 -7.5000000000000009 -1 0 0 I I #
vertex $-1 -1 $-1 $234 $427 #
straight-curve $-1 -1 $-1 0 12 -7.5000000000000009 1 0 0 I I #
point $-1 -1 $-1 12 12 -7.5000000000000009 #
point $-1 -1 $-1 12 -12 -7.5000000000000009 #
straight-curve $-1 -1 $-1 -12 0 7.5000000000000009 0 -1 0 I I #
point $-1 -1 $-1 -12 12 7.5000000000000009 #
point $-1 -1 $-1 -12 -12 7.5000000000000009 #
straight-curve $-1 -1 $-1 12 -12 0 0 0 -1 I I #
straight-curve $-1 -1 $-1 12 12 0 0 0 -1 I I #
face $-1 -1 $-1 $428 $429 $23 $-1 $430 forward single #
loop $-1 -1 $-1 $-1 $431 $251 #
plane-surface $-1 -1 $-1 -12 12 7.4500000000000028 0 1 0 0 0 1 forward_v I I I I #
coedge $-1 -1 $-1 $432 $433 $434 $435 forward $252 $-1 #
coedge $-1 -1 $-1 $355 $254 $255 $350 forward $162 $-1 #
coedge $-1 -1 $-1 $353 $360 $254 $349 forward $361 $-1 #
edge $436 -1 $-1 $437 2.5668970965232392 $356 5.2848420437002765 $254 $438 forward @7 unknown #
edge $-1 -1 $-1 $437 0 $351 0.050000000000000711 $347 $439 forward @7 unknown #
vertex $-1 -1 $-1 $350 $440 #
ellipse-curve $-1 -1 $-1 0 0 7.5000000000000036 0 0 -1 0 9 0 1 I I #
coedge $-1 -1 $-1 $263 $348 $257 $354 forward $361 $-1 #
edge $441 -1 $-1 $356 2.3561944901923448 $269 7.8539816339744828 $257 $442 forward @7 unknown #
coedge $-1 -1 $-1 $258 $347 $260 $358 forward $162 $-1 #
vertex $-1 -1 $-1 $349 $443 #
straight-curve $-1 -1 $-1 -8.2858383337195249 8.2858383337195214 7.450000000000002 0 0 1 I I #
edge $-1 -1 $-1 $351 2.5668970965232374 $261 5.2848420437002774 $355 $444 forward @7 unknown #
point $-1 -1 $-1 -8.2858383337195249 8.2858383337195214 7.5000000000000027 #
coedge $-1 -1 $-1 $348 $263 $265 $364 forward $361 $-1 #
loop $-1 -1 $-1 $-1 $348 $367 #
convexity-sys-attrib $-1 -1 $-1 $-1 $264 #
straight-curve $-1 -1 $-1 0 5.1124999999999998 7.4500000000000028 0 -1 0 I I #
edge $445 -1 $-1 $267 0 $437 5.497787143782138 $265 $446 forward @7 unknown #
point $-1 -1 $-1 0 9 7.4499999999999984 #
point $-1 -1 $-1 1.6013806025788041e-015 11.717944947177031 7.450000000000002 #
face $-1 -1 $-1 $-1 $447 $23 $-1 $448 reversed single #
loop $-1 -1 $-1 $174 $434 $271 #
plane-surface $-1 -1 $-1 -0.0084897478822976435 0.020496064478571607 7.5000000000000036 -2.042997594908831e-032 -5.5077993680634699e-032 1 1 0 2.042997594908831e-032 forward_v I I I I #
model_id-kcp-attrib $-1 -1 $-1 $-1 $275 1 1021520198 1021520198 157483009 9 #
face $449 -1 $-1 $450 $299 $8 $-1 $451 forward single #
loop $-1 -1 $-1 $-1 $452 $275 #
cone-surface $-1 -1 $-1 0 0 14.949999999999999 0 0 1 0 9 0 1 I I 0 1 9 forward I I I I #
coedge $-1 -1 $-1 $453 $453 $278 $377 forward $276 $-1 #
coedge $-1 -1 $-1 $296 $278 $454 $455 forward $180 $-1 #
coedge $-1 -1 $-1 $278 $281 $452 $456 reversed $180 $-1 #
edge $457 -1 $-1 $458 0 $459 5.497787143782138 $374 $460 forward @7 unknown #
coedge $-1 -1 $-1 $411 $404 $279 $379 reversed $412 $-1 #
edge $461 -1 $-1 $385 0 $407 2.5 $378 $462 forward @7 unknown #
coedge $-1 -1 $-1 $285 $298 $280 $381 forward $299 $-1 #
edge $463 -1 $-1 $384 0 $288 2.4499999999999993 $280 $464 forward @7 unknown #
coedge $-1 -1 $-1 $281 $296 $411 $465 reversed $180 $-1 #
attrib_edge_convexity-kcp-attrib $-1 -1 $466 $-1 $282 1 #
vertex $-1 -1 $-1 $456 $467 #
vertex $-1 -1 $-1 $465 $468 #
straight-curve $-1 -1 $-1 0 9 14.949999999999999 0 0 1 I I #
ellipse-curve $-1 -1 $-1 0 0 14.449999999999999 0 0 1 0 11.949999999999999 0 1 I I #
attrib_edge_convexity-kcp-attrib $-1 -1 $469 $-1 $286 3 #
ellipse-curve $-1 -1 $-1 2.6645352591003757e-015 -4.4408920985006262e-015 14.949999999999999 0 0 1 -2.6645352591003757e-015 11.450000000000003 0 1 I I #
convexity-sys-attrib $-1 -1 $-1 $287 $186 #
point $-1 -1 $-1 0 11.449999999999999 14.949999999999999 #
point $-1 -1 $-1 0 11.949999999999999 14.449999999999999 #
edge $-1 -1 $-1 $323 0 $294 0.78539816339744828 $291 $470 forward @7 unknown #
face $471 -1 $-1 $-1 $292 $8 $-1 $472 forward single #
convexity-sys-attrib $-1 -1 $-1 $293 $188 #
point $-1 -1 $-1 -8.4499260351792422 8.4499260351792422 0.5 #
attrib_edge_convexity-kcp-attrib $-1 -1 $473 $-1 $297 1 #
vertex $-1 -1 $-1 $311 $474 #
straight-curve $-1 -1 $-1 -6.3639610306789267 6.3639610306789267 14.949999999999999 -1.7763568394002252e-014 3.5527136788004504e-014 1 I I #
coedge $-1 -1 $-1 $454 $452 $298 $401 reversed $372 $-1 #
edge $475 -1 $-1 $301 0 $384 0.78539816339744828 $298 $476 forward @7 unknown #
convexity-sys-attrib $-1 -1 $-1 $300 $191 #
point $-1 -1 $-1 -6.3639610306789267 6.3639610306789267 14.949999999999999 #
coedge $-1 -1 $-1 $378 $310 $306 $405 forward $412 $-1 #
edge $-1 -1 $-1 $313 0 $407 5.497787143782138 $404 $477 forward @7 unknown #
attrib_edge_convexity-kcp-attrib $-1 -1 $478 $-1 $307 1 #
vertex $-1 -1 $-1 $379 $479 #
ellipse-curve $-1 -1 $-1 0 11.500000000000004 14.500000000000004 1 -7.3476381229343156e-015 5.2208108932449929e-029 3.6738190614671318e-015 0.49999999999999645 -3.5527136788005009e-015 1 I I #
model_id-kcp-attrib $-1 -1 $-1 $-1 $308 1 1021520198 1021520198 157483009 12 #
torus-surface $-1 -1 $-1 0 0 14.5 0 0 1 11.5 0.5 1 0 0 forward_v I I I I #
coedge $-1 -1 $-1 $310 $378 $382 $465 forward $412 $-1 #
loop $-1 -1 $-1 $-1 $404 $450 #
attrib_edge_convexity-kcp-attrib $-1 -1 $480 $-1 $311 1 #
straight-curve $-1 -1 $-1 -8.1317279836452965 8.1317279836452965 15 0.70710678118654757 -0.70710678118654757 0 I I #
convexity-sys-attrib $-1 -1 $-1 $312 $202 #
point $-1 -1 $-1 -8.1317279836452965 8.1317279836452965 15 #
model_id-kcp-attrib $-1 -1 $-1 $-1 $316 1 1021520198 1021520198 157483009 13 #
torus-surface $-1 -1 $-1 0 0 0.5 0 0 1 11.449999999999999 0.5 0 1 0 forward_v I I I I #
convexity-sys-attrib $-1 -1 $-1 $318 $210 #
attrib_edge_convexity-kcp-attrib $-1 -1 $481 $-1 $321 2 #
straight-curve $-1 -1 $-1 0 11.949999999999999 0.5 0 0 1 I I #
convexity-sys-attrib $-1 -1 $-1 $322 $214 #
point $-1 -1 $-1 0 11.949999999999999 0.5 #
straight-curve $-1 -1 $-1 -12 12 0 0 0 -1 I I #
point $-1 -1 $-1 -12 -12 -7.5000000000000009 #
straight-curve $-1 -1 $-1 -12 0 -7.5000000000000009 0 1 0 I I #
point $-1 -1 $-1 -12 12 -7.5000000000000009 #
face $-1 -1 $-1 $271 $482 $23 $-1 $483 forward single #
loop $-1 -1 $-1 $-1 $484 $343 #
plane-surface $-1 -1 $-1 12 12 7.4500000000000028 1 0 0 0 0 -1 forward_v I I I I #
coedge $-1 -1 $-1 $485 $486 $487 $488 forward $344 $-1 #
coedge $-1 -1 $-1 $489 $346 $486 $490 reversed $252 $-1 #
coedge $-1 -1 $-1 $346 $489 $491 $492 forward $252 $-1 #
coedge $-1 -1 $-1 $493 $487 $346 $435 reversed $368 $-1 #
edge $-1 -1 $-1 $494 -12.612500000000001 $495 11.387499999999999 $346 $496 forward @7 unknown #
convexity-sys-attrib $-1 -1 $-1 $-1 $349 #
vertex $-1 -1 $-1 $349 $497 #
straight-curve $-1 -1 $-1 -4.5488906871192851 4.5488906871192842 7.4500000000000028 -0.70710678118654757 0.70710678118654757 0 I I #
straight-curve $-1 -1 $-1 -6.3639610306789258 6.3639610306789258 7.4499999999999984 0 0 1 I I #
point $-1 -1 $-1 -6.3639610306789258 6.3639610306789258 7.4999999999999991 #
convexity-sys-attrib $-1 -1 $-1 $-1 $354 #
ellipse-curve $-1 -1 $-1 0 0 7.4500000000000028 0 0 1 11.717944947177026 0 0 1 I I #
point $-1 -1 $-1 -8.2858383337195232 8.2858383337195214 7.450000000000002 #
straight-curve $-1 -1 $-1 -4.5488906871192851 4.5488906871192842 7.5000000000000036 -0.70710678118654757 0.70710678118654757 0 I I #
convexity-sys-attrib $-1 -1 $-1 $-1 $364 #
ellipse-curve $-1 -1 $-1 0 0 7.4500000000000028 0 0 -1 0 9 0 1 I I #
loop $-1 -1 $-1 $361 $498 $367 #
plane-surface $-1 -1 $-1 -0.0084897478822976435 0.020496064478571607 7.4500000000000028 -2.042997594908831e-032 -5.5077993680634699e-032 1 1 0 2.042997594908831e-032 forward_v I I I I #
model_id-kcp-attrib $-1 -1 $-1 $-1 $371 1 1021520198 1021520198 157483009 10 #
face $499 -1 $-1 $308 $412 $8 $-1 $500 forward single #
plane-surface $-1 -1 $-1 0 0 14.949999999999999 0 0 1 0 1 0 forward_v I I I I #
coedge $-1 -1 $-1 $400 $501 $376 $456 forward $372 $-1 #
coedge $-1 -1 $-1 $374 $374 $501 $502 forward $276 $-1 #
coedge $-1 -1 $-1 $501 $400 $375 $455 reversed $372 $-1 #
edge $-1 -1 $-1 $458 0 $301 0.25 $375 $503 forward @7 unknown #
edge $-1 -1 $-1 $459 0 $384 0.25 $376 $504 forward @7 unknown #
attrib_edge_convexity-kcp-attrib $-1 -1 $505 $-1 $377 2 #
vertex $-1 -1 $-1 $502 $506 #
vertex $-1 -1 $-1 $502 $507 #
ellipse-curve $-1 -1 $-1 3.3306690738754696e-016 4.4408920985006262e-016 14.699999999999999 0 0 1 -6.3639610306789276 6.3639610306789276 0 1 I I #
attrib_edge_convexity-kcp-attrib $-1 -1 $508 $-1 $379 1 #
straight-curve $-1 -1 $-1 0 9 15 0 1 0 I I #
attrib_edge_convexity-kcp-attrib $-1 -1 $509 $-1 $381 2 #
straight-curve $-1 -1 $-1 0 9 14.949999999999999 0 1 0 I I #
edge $-1 -1 $-1 $385 0 $398 5.497787143782138 $411 $510 forward @7 unknown #
convexity-sys-attrib $-1 -1 $-1 $383 $282 #
point $-1 -1 $-1 0 9 14.949999999999999 #
point $-1 -1 $-1 2.2042914368802791e-015 9 15 #
convexity-sys-attrib $-1 -1 $-1 $388 $286 #
ellipse-curve $-1 -1 $-1 0 0 0.5 0 0 1 0 11.949999999999999 0 1 I I #
model_id-kcp-attrib $-1 -1 $-1 $-1 $394 1 1021520198 1021520198 157483009 14 #
cone-surface $-1 -1 $-1 0 0 14.949999999999999 0 0 1 0 11.949999999999999 0 1 I I 0 1 11.949999999999999 forward I I I I #
convexity-sys-attrib $-1 -1 $-1 $397 $297 #
point $-1 -1 $-1 -6.3639610306789276 6.3639610306789276 15 #
attrib_edge_convexity-kcp-attrib $-1 -1 $511 $-1 $401 1 #
ellipse-curve $-1 -1 $-1 0 0 14.949999999999999 0 0 -1 -6.3639610306789276 6.3639610306789276 0 1 I I #
ellipse-curve $-1 -1 $-1 1.5543122344752192e-015 0 15 0 0 1 -8.1317279836453 8.1317279836452983 0 1 I I #
convexity-sys-attrib $-1 -1 $-1 $406 $307 #
point $-1 -1 $-1 0 11.5 15 #
convexity-sys-attrib $-1 -1 $-1 $413 $311 #
convexity-sys-attrib $-1 -1 $-1 $420 $321 #
loop $-1 -1 $-1 $-1 $512 $428 #
plane-surface $-1 -1 $-1 12 -12 7.4500000000000028 0 -1 0 0 0 -1 forward_v I I I I #
coedge $-1 -1 $-1 $513 $514 $515 $516 forward $429 $-1 #
coedge $-1 -1 $-1 $517 $431 $514 $518 reversed $344 $-1 #
coedge $-1 -1 $-1 $431 $517 $432 $490 forward $344 $-1 #
coedge $-1 -1 $-1 $434 $515 $431 $488 reversed $368 $-1 #
edge $-1 -1 $-1 $495 -12 $519 12 $431 $520 forward @7 unknown #
coedge $-1 -1 $-1 $433 $432 $521 $522 reversed $252 $-1 #
edge $-1 -1 $-1 $523 0 $495 0.050000000000000711 $486 $524 forward @7 unknown #
coedge $-1 -1 $-1 $525 $512 $433 $492 reversed $482 $-1 #
edge $-1 -1 $-1 $526 0 $494 0.050000000000000711 $433 $527 forward @7 unknown #
coedge $-1 -1 $-1 $515 $434 $512 $528 reversed $368 $-1 #
vertex $-1 -1 $-1 $492 $529 #
vertex $-1 -1 $-1 $490 $530 #
straight-curve $-1 -1 $-1 -12 0.61249999999999982 7.5000000000000036 0 1 0 I I #
point $-1 -1 $-1 -6.3639610306789267 6.3639610306789267 7.4499999999999984 #
coedge $-1 -1 $-1 $521 $531 $525 $532 forward $447 $-1 #
model_id-kcp-attrib $-1 -1 $-1 $-1 $450 1 1021520198 1021520198 157483009 11 #
plane-surface $-1 -1 $-1 0 0 15 0 0 1 1 0 0 forward_v I I I I #
coedge $-1 -1 $-1 $452 $454 $453 $502 reversed $372 $-1 #
edge $533 -1 $-1 $459 0 $458 0.7853981633974475 $453 $534 forward @7 unknown #
straight-curve $-1 -1 $-1 -6.3639610306789276 6.3639610306789285 14.699999999999999 0 0 1 I I #
straight-curve $-1 -1 $-1 0 9 14.699999999999999 0 0 1 I I #
convexity-sys-attrib $-1 -1 $-1 $457 $377 #
point $-1 -1 $-1 -6.3639610306789276 6.3639610306789276 14.699999999999999 #
point $-1 -1 $-1 0 9 14.699999999999999 #
convexity-sys-attrib $-1 -1 $-1 $461 $379 #
convexity-sys-attrib $-1 -1 $-1 $463 $381 #
ellipse-curve $-1 -1 $-1 -1.9984014443252818e-015 0 15 0 0 -1 4.2026928812055608e-015 9 0 1 I I #
convexity-sys-attrib $-1 -1 $-1 $475 $401 #
coedge $-1 -1 $-1 $491 $535 $493 $528 forward $482 $-1 #
coedge $-1 -1 $-1 $536 $484 $535 $537 reversed $429 $-1 #
coedge $-1 -1 $-1 $484 $536 $485 $518 forward $429 $-1 #
coedge $-1 -1 $-1 $487 $493 $484 $516 reversed $368 $-1 #
edge $-1 -1 $-1 $519 -11.387499999999999 $538 12.612500000000001 $484 $539 forward @7 unknown #
coedge $-1 -1 $-1 $486 $485 $540 $541 reversed $344 $-1 #
edge $-1 -1 $-1 $542 0 $519 0.050000000000000711 $514 $543 forward @7 unknown #
vertex $-1 -1 $-1 $518 $544 #
straight-curve $-1 -1 $-1 0 12 7.5000000000000036 1 0 0 I I #
coedge $-1 -1 $-1 $540 $498 $489 $522 forward $447 $-1 #
edge $545 -1 $-1 $526 -12.612500000000001 $523 11.387499999999999 $489 $546 forward @7 unknown #
vertex $-1 -1 $-1 $522 $547 #
straight-curve $-1 -1 $-1 -12 12 7.4500000000000028 0 0 1 I I #
coedge $-1 -1 $-1 $535 $491 $498 $532 reversed $482 $-1 #
vertex $-1 -1 $-1 $532 $548 #
straight-curve $-1 -1 $-1 -12 -12 7.4500000000000028 0 0 1 I I #
edge $-1 -1 $-1 $538 -12 $494 12 $512 $549 forward @7 unknown #
point $-1 -1 $-1 -12 -12 7.5000000000000036 #
point $-1 -1 $-1 -12 12 7.5000000000000036 #
coedge $-1 -1 $-1 $498 $540 $536 $550 forward $447 $-1 #
edge $551 -1 $-1 $552 -12 $526 12 $525 $553 forward @7 unknown #
attrib_edge_convexity-kcp-attrib $-1 -1 $554 $-1 $502 2 #
ellipse-curve $-1 -1 $-1 3.7747582837255322e-015 -8.4376949871511897e-015 14.699999999999999 0 0 1 -3.7747582837255322e-015 9.0000000000000089 0 1 I I #
coedge $-1 -1 $-1 $512 $525 $513 $537 forward $482 $-1 #
coedge $-1 -1 $-1 $514 $513 $531 $550 reversed $429 $-1 #
edge $-1 -1 $-1 $552 0 $538 0.050000000000000711 $535 $555 forward @7 unknown #
vertex $-1 -1 $-1 $537 $556 #
straight-curve $-1 -1 $-1 12 0.61249999999999982 7.5000000000000036 0 -1 0 I I #
coedge $-1 -1 $-1 $531 $521 $517 $541 forward $447 $-1 #
edge $557 -1 $-1 $523 -12 $542 12 $517 $558 forward @7 unknown #
vertex $-1 -1 $-1 $541 $559 #
straight-curve $-1 -1 $-1 12 12 7.4500000000000028 0 0 1 I I #
point $-1 -1 $-1 12 12 7.5000000000000036 #
convexity-sys-attrib $-1 -1 $-1 $-1 $522 #
straight-curve $-1 -1 $-1 -12 0.61249999999999982 7.4500000000000028 0 1 0 I I #
point $-1 -1 $-1 -12 12 7.4500000000000028 #
point $-1 -1 $-1 -12 -12 7.4500000000000028 #
straight-curve $-1 -1 $-1 0 -12 7.5000000000000036 -1 0 0 I I #
edge $560 -1 $-1 $542 -11.387499999999999 $552 12.612500000000001 $536 $561 forward @7 unknown #
convexity-sys-attrib $-1 -1 $-1 $-1 $532 #
vertex $-1 -1 $-1 $532 $562 #
straight-curve $-1 -1 $-1 0 -12 7.4500000000000028 -1 0 0 I I #
convexity-sys-attrib $-1 -1 $-1 $533 $502 #
straight-curve $-1 -1 $-1 12 -12 7.4500000000000028 0 0 1 I I #
point $-1 -1 $-1 12 -12 7.5000000000000036 #
convexity-sys-attrib $-1 -1 $-1 $-1 $541 #
straight-curve $-1 -1 $-1 0 12 7.4500000000000028 1 0 0 I I #
point $-1 -1 $-1 12 12 7.4500000000000028 #
convexity-sys-attrib $-1 -1 $-1 $-1 $550 #
straight-curve $-1 -1 $-1 12 0.61249999999999982 7.4500000000000028 0 -1 0 I I #
point $-1 -1 $-1 12 -12 7.4500000000000028 #
End-of-ACIS-data 