600 0 1 0           
94 GICL ACIS Healer - Source: /gicl/data5/repository/PTC/V18/cabecad18/ptc_comp/channel.sat - 6 0 18 ACIS 6.0.3 Solaris 24 Sat Apr 13 22:23:07 2002 
1 9.999999999999999547e-07 1.000000000000000036e-10 
body $-1 $1 $-1 $-1 #
lump $-1 $-1 $2 $0 #
shell $-1 $-1 $-1 $3 $-1 $1 #
face $-1 $4 $5 $2 $-1 $6 reversed single #
face $-1 $7 $8 $2 $-1 $9 forward single #
loop $-1 $-1 $10 $3 #
plane-surface $-1 0 0 0 0 1 0 0.2285999999999999699 0 0 forward_v I I I I #
face $-1 $11 $12 $2 $-1 $13 forward single #
loop $-1 $-1 $14 $4 #
plane-surface $-1 2.285999999999999588 0 -4.114799999999999791 -1 0 0 0 0 0.2285999999999999699 forward_v I I I I #
coedge $-1 $15 $16 $17 $18 reversed $5 $-1 #
face $-1 $19 $20 $2 $-1 $21 reversed single #
loop $-1 $-1 $22 $7 #
plane-surface $-1 2.285999999999999588 0 -1.828799999999999759 0 0 -1 -0.2285999999999999699 0 0 forward_v I I I I #
coedge $-1 $23 $17 $22 $24 forward $8 $-1 #
coedge $-1 $25 $10 $26 $27 reversed $5 $-1 #
coedge $-1 $10 $28 $29 $30 forward $5 $-1 #
coedge $-1 $14 $31 $10 $18 forward $8 $-1 #
edge $-1 $32 0 $33 10.00000000000000178 $10 $34 forward 7 unknown #
face $-1 $35 $36 $2 $-1 $37 reversed single #
loop $-1 $-1 $38 $11 #
plane-surface $-1 -2.285999999999999588 0 -4.114799999999999791 -1 0 0 0 0 0.2285999999999999699 forward_v I I I I #
coedge $-1 $29 $39 $14 $24 reversed $12 $-1 #
coedge $-1 $31 $14 $40 $41 reversed $8 $-1 #
edge $-1 $33 0 $42 10 $14 $43 forward 7 unknown #
coedge $-1 $44 $15 $45 $46 reversed $5 $-1 #
coedge $-1 $47 $48 $15 $27 forward $49 $-1 #
edge $-1 $50 0 $32 3.000000000000000444 $15 $51 forward 7 unknown #
coedge $-1 $16 $52 $53 $54 forward $5 $-1 #
coedge $-1 $55 $22 $16 $30 reversed $12 $-1 #
edge $-1 $56 0 $33 20 $16 $57 forward 7 unknown #
coedge $-1 $17 $23 $47 $58 reversed $8 $-1 #
vertex $-1 $27 $59 #
vertex $-1 $30 $60 #
straight-curve $-1 2.285999999999999588 0 -4.114799999999999791 0 0 0.2285999999999999699 I I #
face $-1 $61 $62 $2 $-1 $63 reversed single #
loop $-1 $-1 $64 $19 #
plane-surface $-1 -2.971799999999999553 0 -4.114799999999999791 0 0 1 0.2285999999999999699 0 0 forward_v I I I I #
coedge $-1 $65 $53 $66 $67 forward $20 $-1 #
coedge $-1 $22 $55 $68 $69 reversed $12 $-1 #
coedge $-1 $68 $70 $23 $41 forward $71 $-1 #
edge $-1 $72 0 $42 10.00000000000000178 $40 $73 forward 7 unknown #
vertex $-1 $69 $74 #
straight-curve $-1 2.285999999999999588 0 -1.828799999999999759 0 0.2285999999999999699 0 I I #
coedge $-1 $75 $25 $76 $77 reversed $5 $-1 #
coedge $-1 $78 $79 $25 $46 forward $80 $-1 #
edge $-1 $81 0 $50 12.00000000000000178 $25 $82 forward 7 unknown #
coedge $-1 $83 $26 $31 $58 forward $49 $-1 #
coedge $-1 $26 $83 $78 $84 reversed $49 $-1 #
loop $-1 $-1 $47 $85 #
vertex $-1 $46 $86 #
straight-curve $-1 2.971799999999999553 0 -4.114799999999999791 -0.2285999999999999699 0 0 I I #
coedge $-1 $28 $87 $88 $89 forward $5 $-1 #
coedge $-1 $38 $90 $28 $54 reversed $20 $-1 #
edge $-1 $91 0 $56 10.00000000000000178 $28 $92 forward 7 unknown #
coedge $-1 $39 $29 $90 $93 forward $12 $-1 #
vertex $-1 $30 $94 #
straight-curve $-1 -2.285999999999999588 0 -1.828799999999999759 0.2285999999999999699 0 0 I I #
edge $-1 $32 0 $72 10 $47 $95 forward 7 unknown #
point $-1 2.285999999999999588 0 -4.114799999999999791 #
point $-1 2.285999999999999588 0 -1.828799999999999759 #
face $-1 $96 $97 $2 $-1 $98 reversed single #
loop $-1 $-1 $99 $35 #
plane-surface $-1 -2.971799999999999553 0 -1.37159999999999993 1 0 0 0 0 -0.2285999999999999699 forward_v I I I I #
coedge $-1 $100 $88 $101 $102 forward $36 $-1 #
coedge $-1 $90 $38 $103 $104 forward $20 $-1 #
coedge $-1 $88 $100 $38 $67 reversed $36 $-1 #
edge $-1 $91 0 $105 10 $66 $106 forward 7 unknown #
coedge $-1 $103 $40 $39 $69 forward $71 $-1 #
edge $-1 $42 0 $107 20 $68 $108 forward 7 unknown #
coedge $-1 $40 $109 $83 $110 forward $71 $-1 #
loop $-1 $-1 $111 $112 #
vertex $-1 $41 $113 #
straight-curve $-1 2.285999999999999588 2.285999999999999588 -4.114799999999999791 0 0 0.2285999999999999699 I I #
point $-1 2.285999999999999588 2.285999999999999588 -1.828799999999999759 #
coedge $-1 $114 $44 $115 $116 reversed $5 $-1 #
coedge $-1 $117 $118 $44 $77 forward $119 $-1 #
edge $-1 $120 0 $81 10 $44 $121 forward 7 unknown #
coedge $-1 $122 $45 $48 $84 forward $80 $-1 #
coedge $-1 $45 $122 $117 $123 reversed $80 $-1 #
loop $-1 $-1 $78 $124 #
vertex $-1 $77 $125 #
straight-curve $-1 2.971799999999999553 0 -1.37159999999999993 0 0 -0.2285999999999999699 I I #
coedge $-1 $48 $47 $70 $110 reversed $49 $-1 #
edge $-1 $50 0 $126 10 $78 $127 forward 7 unknown #
face $-1 $112 $49 $2 $-1 $128 forward single #
point $-1 2.971799999999999553 0 -4.114799999999999791 #
coedge $-1 $52 $129 $130 $131 forward $5 $-1 #
coedge $-1 $64 $66 $52 $89 reversed $36 $-1 #
edge $-1 $132 0 $91 3.000000000000000444 $52 $133 forward 7 unknown #
coedge $-1 $53 $65 $55 $93 reversed $20 $-1 #
vertex $-1 $54 $134 #
straight-curve $-1 -2.285999999999999588 0 -4.114799999999999791 0 0 0.2285999999999999699 I I #
edge $-1 $56 0 $107 10 $55 $135 forward 7 unknown #
point $-1 -2.285999999999999588 0 -1.828799999999999759 #
straight-curve $-1 2.285999999999999588 0 -4.114799999999999791 0 0.2285999999999999699 0 I I #
face $-1 $136 $137 $2 $-1 $138 reversed single #
loop $-1 $-1 $139 $61 #
plane-surface $-1 -0.6857999999999999652 0 -1.37159999999999993 0 0 -1 -0.2285999999999999699 0 0 forward_v I I I I #
coedge $-1 $140 $130 $141 $142 forward $62 $-1 #
coedge $-1 $66 $64 $143 $144 forward $36 $-1 #
coedge $-1 $130 $140 $64 $102 reversed $62 $-1 #
edge $-1 $132 0 $145 10 $101 $146 forward 7 unknown #
coedge $-1 $143 $68 $65 $104 reversed $71 $-1 #
edge $-1 $105 0 $107 10.00000000000000178 $103 $147 forward 7 unknown #
vertex $-1 $144 $148 #
straight-curve $-1 -2.285999999999999588 0 -4.114799999999999791 0 0.2285999999999999699 0 I I #
vertex $-1 $104 $149 #
straight-curve $-1 2.285999999999999588 2.285999999999999588 -1.828799999999999759 -0.2285999999999999699 0 0 I I #
coedge $-1 $70 $150 $122 $151 forward $71 $-1 #
edge $-1 $126 0 $72 3.000000000000000444 $70 $152 forward 7 unknown #
coedge $-1 $153 $154 $155 $156 forward $71 $-1 #
face $-1 $-1 $71 $2 $-1 $157 forward single #
point $-1 2.285999999999999588 2.285999999999999588 -4.114799999999999791 #
coedge $-1 $158 $75 $159 $160 reversed $5 $-1 #
coedge $-1 $161 $162 $75 $116 forward $163 $-1 #
edge $-1 $164 0 $120 3.000000000000000444 $75 $165 forward 7 unknown #
coedge $-1 $166 $76 $79 $123 forward $119 $-1 #
coedge $-1 $76 $166 $161 $167 reversed $119 $-1 #
loop $-1 $-1 $117 $168 #
vertex $-1 $116 $169 #
straight-curve $-1 0.6857999999999999652 0 -1.37159999999999993 0.2285999999999999699 0 0 I I #
coedge $-1 $79 $78 $109 $151 reversed $80 $-1 #
edge $-1 $81 0 $170 10 $117 $171 forward 7 unknown #
face $-1 $85 $80 $2 $-1 $172 forward single #
point $-1 2.971799999999999553 0 -1.37159999999999993 #
vertex $-1 $110 $173 #
straight-curve $-1 2.971799999999999553 0 -4.114799999999999791 0 0.2285999999999999699 0 I I #
plane-surface $-1 2.971799999999999553 0 -4.114799999999999791 0 0 -1 -0.2285999999999999699 0 0 forward_v I I I I #
coedge $-1 $87 $174 $175 $176 forward $5 $-1 #
coedge $-1 $99 $101 $87 $131 reversed $62 $-1 #
edge $-1 $177 0 $132 12.00000000000000178 $87 $178 forward 7 unknown #
vertex $-1 $89 $179 #
straight-curve $-1 -2.971799999999999553 0 -4.114799999999999791 0.2285999999999999699 0 0 I I #
point $-1 -2.285999999999999588 0 -4.114799999999999791 #
straight-curve $-1 -2.285999999999999588 0 -1.828799999999999759 0 0.2285999999999999699 0 I I #
face $-1 $180 $181 $2 $-1 $182 reversed single #
loop $-1 $-1 $183 $96 #
plane-surface $-1 -0.6857999999999999652 0 -0.6857999999999999652 1 0 0 0 0 -0.2285999999999999699 forward_v I I I I #
coedge $-1 $184 $175 $185 $186 forward $97 $-1 #
coedge $-1 $101 $99 $187 $188 forward $62 $-1 #
coedge $-1 $175 $184 $99 $142 reversed $97 $-1 #
edge $-1 $177 0 $189 10 $141 $190 forward 7 unknown #
coedge $-1 $187 $103 $100 $144 reversed $71 $-1 #
edge $-1 $145 0 $105 3.000000000000000444 $143 $191 forward 7 unknown #
vertex $-1 $188 $192 #
straight-curve $-1 -2.971799999999999553 0 -4.114799999999999791 0 0.2285999999999999699 0 I I #
straight-curve $-1 -2.285999999999999588 2.285999999999999588 -4.114799999999999791 0 0 0.2285999999999999699 I I #
point $-1 -2.285999999999999588 2.285999999999999588 -4.114799999999999791 #
point $-1 -2.285999999999999588 2.285999999999999588 -1.828799999999999759 #
coedge $-1 $109 $193 $166 $194 forward $71 $-1 #
edge $-1 $170 0 $126 12.00000000000000178 $109 $195 forward 7 unknown #
straight-curve $-1 2.971799999999999553 2.285999999999999588 -4.114799999999999791 -0.2285999999999999699 0 0 I I #
coedge $-1 $193 $111 $196 $197 forward $71 $-1 #
coedge $-1 $111 $198 $199 $200 forward $71 $-1 #
coedge $-1 $201 $202 $111 $156 reversed $203 $-1 #
edge $-1 $204 0 $205 4.609772228646443537 $111 $206 forward 7 unknown #
plane-surface $-1 0 2.285999999999999588 0 0 1 0 0.2285999999999999699 0 0 forward_v I I I I #
coedge $-1 $207 $114 $208 $209 reversed $5 $-1 #
coedge $-1 $210 $211 $114 $160 forward $212 $-1 #
edge $-1 $213 0 $164 2.5 $114 $214 forward 7 unknown #
coedge $-1 $215 $115 $118 $167 forward $163 $-1 #
coedge $-1 $115 $215 $210 $216 reversed $163 $-1 #
loop $-1 $-1 $161 $217 #
vertex $-1 $160 $218 #
straight-curve $-1 0.6857999999999999652 0 -0.6857999999999999652 0 0 -0.2285999999999999699 I I #
coedge $-1 $118 $117 $150 $194 reversed $119 $-1 #
edge $-1 $120 0 $219 10 $161 $220 forward 7 unknown #
face $-1 $124 $119 $2 $-1 $221 forward single #
point $-1 0.6857999999999999652 0 -1.37159999999999993 #
vertex $-1 $151 $222 #
straight-curve $-1 2.971799999999999553 0 -1.37159999999999993 0 0.2285999999999999699 0 I I #
plane-surface $-1 2.971799999999999553 0 -1.37159999999999993 1 0 0 0 0 -0.2285999999999999699 forward_v I I I I #
point $-1 2.971799999999999553 2.285999999999999588 -4.114799999999999791 #
coedge $-1 $129 $223 $224 $225 forward $5 $-1 #
coedge $-1 $139 $141 $129 $176 reversed $97 $-1 #
edge $-1 $226 0 $177 10 $129 $227 forward 7 unknown #
vertex $-1 $131 $228 #
straight-curve $-1 -2.971799999999999553 0 -1.37159999999999993 0 0 -0.2285999999999999699 I I #
point $-1 -2.971799999999999553 0 -4.114799999999999791 #
face $-1 $229 $230 $2 $-1 $231 reversed single #
loop $-1 $-1 $232 $136 #
plane-surface $-1 -1.257299999999999862 0 -0.6857999999999999652 0 0 1 0.2285999999999999699 0 0 forward_v I I I I #
coedge $-1 $233 $224 $234 $235 forward $137 $-1 #
coedge $-1 $141 $139 $236 $237 forward $97 $-1 #
coedge $-1 $224 $233 $139 $186 reversed $137 $-1 #
edge $-1 $226 0 $238 10 $185 $239 forward 7 unknown #
coedge $-1 $236 $143 $140 $188 reversed $71 $-1 #
edge $-1 $189 0 $145 12.00000000000000178 $187 $240 forward 7 unknown #
vertex $-1 $237 $241 #
straight-curve $-1 -2.971799999999999553 0 -1.37159999999999993 0 0.2285999999999999699 0 I I #
straight-curve $-1 -2.971799999999999553 2.285999999999999588 -4.114799999999999791 0.2285999999999999699 0 0 I I #
point $-1 -2.971799999999999553 2.285999999999999588 -4.114799999999999791 #
coedge $-1 $150 $153 $215 $242 forward $71 $-1 #
edge $-1 $219 0 $170 10 $150 $243 forward 7 unknown #
straight-curve $-1 2.971799999999999553 2.285999999999999588 -1.37159999999999993 0 0 -0.2285999999999999699 I I #
coedge $-1 $211 $210 $153 $197 reversed $212 $-1 #
edge $-1 $205 0 $244 2.5 $153 $245 forward 7 unknown #
coedge $-1 $154 $246 $247 $248 reversed $71 $-1 #
coedge $-1 $249 $250 $154 $200 reversed $251 $-1 #
edge $-1 $252 0 $204 4 $154 $253 forward 7 unknown #
coedge $-1 $208 $155 $250 $254 reversed $203 $-1 #
coedge $-1 $155 $208 $211 $255 forward $203 $-1 #
loop $-1 $-1 $202 $256 #
vertex $-1 $200 $257 #
vertex $-1 $197 $258 #
straight-curve $-1 0.4571999999999999398 2.285999999999999588 0 0.1735660593007067876 0 -0.1487709079720343774 I I #
coedge $-1 $259 $158 $260 $261 forward $5 $-1 #
coedge $-1 $202 $201 $158 $209 forward $203 $-1 #
edge $-1 $262 0 $213 4.609772228646443537 $158 $263 forward 7 unknown #
coedge $-1 $196 $159 $162 $216 forward $212 $-1 #
coedge $-1 $159 $196 $202 $255 reversed $212 $-1 #
loop $-1 $-1 $210 $264 #
vertex $-1 $209 $265 #
straight-curve $-1 1.257299999999999862 0 -0.6857999999999999652 -0.2285999999999999699 0 0 I I #
coedge $-1 $162 $161 $193 $242 reversed $163 $-1 #
edge $-1 $164 0 $244 10 $210 $266 forward 7 unknown #
face $-1 $168 $163 $2 $-1 $267 forward single #
point $-1 0.6857999999999999652 0 -0.6857999999999999652 #
vertex $-1 $194 $268 #
straight-curve $-1 0.6857999999999999652 0 -1.37159999999999993 0 0.2285999999999999699 0 I I #
plane-surface $-1 0.6857999999999999652 0 -1.37159999999999993 0 0 1 0.2285999999999999699 0 0 forward_v I I I I #
point $-1 2.971799999999999553 2.285999999999999588 -1.37159999999999993 #
coedge $-1 $174 $259 $269 $270 forward $5 $-1 #
coedge $-1 $183 $185 $174 $225 reversed $137 $-1 #
edge $-1 $271 0 $226 3.000000000000000444 $174 $272 forward 7 unknown #
vertex $-1 $176 $273 #
straight-curve $-1 -0.6857999999999999652 0 -1.37159999999999993 -0.2285999999999999699 0 0 I I #
point $-1 -2.971799999999999553 0 -1.37159999999999993 #
face $-1 $256 $251 $2 $-1 $274 forward single #
loop $-1 $-1 $275 $180 #
plane-surface $-1 -0.4571999999999999398 0 0 0.6507913734559684915 0 -0.7592566023652965734 -0.1735660593007067876 0 -0.1487709079720343774 forward_v I I I I #
coedge $-1 $276 $269 $277 $278 forward $181 $-1 #
coedge $-1 $185 $183 $279 $280 forward $137 $-1 #
coedge $-1 $269 $276 $183 $235 reversed $181 $-1 #
edge $-1 $271 0 $281 10 $234 $282 forward 7 unknown #
coedge $-1 $279 $187 $184 $237 reversed $71 $-1 #
edge $-1 $238 0 $189 10 $236 $283 forward 7 unknown #
vertex $-1 $280 $284 #
straight-curve $-1 -0.6857999999999999652 0 -1.37159999999999993 0 0.2285999999999999699 0 I I #
straight-curve $-1 -2.971799999999999553 2.285999999999999588 -1.37159999999999993 0 0 -0.2285999999999999699 I I #
point $-1 -2.971799999999999553 2.285999999999999588 -1.37159999999999993 #
edge $-1 $244 0 $219 3.000000000000000444 $193 $285 forward 7 unknown #
straight-curve $-1 0.6857999999999999652 2.285999999999999588 -1.37159999999999993 0.2285999999999999699 0 0 I I #
vertex $-1 $242 $286 #
straight-curve $-1 1.257299999999999862 2.285999999999999588 -0.6857999999999999652 -0.2285999999999999699 0 0 I I #
coedge $-1 $198 $279 $276 $287 reversed $71 $-1 #
coedge $-1 $277 $275 $198 $248 forward $230 $-1 #
edge $-1 $252 0 $288 4.609772228646443537 $198 $289 forward 7 unknown #
coedge $-1 $260 $199 $275 $290 reversed $251 $-1 #
coedge $-1 $199 $260 $201 $254 forward $251 $-1 #
loop $-1 $-1 $250 $229 #
vertex $-1 $200 $291 #
straight-curve $-1 -0.4571999999999999398 2.285999999999999588 0 0.2285999999999999699 0 0 I I #
edge $-1 $262 0 $204 10 $250 $292 forward 7 unknown #
edge $-1 $213 0 $205 10 $202 $293 forward 7 unknown #
face $-1 $264 $203 $2 $-1 $294 forward single #
point $-1 0.4571999999999999398 2.285999999999999588 0 #
point $-1 1.257299999999999862 2.285999999999999588 -0.6857999999999999652 #
coedge $-1 $223 $207 $295 $296 forward $5 $-1 #
coedge $-1 $250 $249 $207 $261 reversed $251 $-1 #
edge $-1 $262 0 $297 4 $207 $298 forward 7 unknown #
vertex $-1 $261 $299 #
straight-curve $-1 0.4571999999999999398 0 0 0.1735660593007067876 0 -0.1487709079720343774 I I #
face $-1 $217 $212 $2 $-1 $300 forward single #
point $-1 1.257299999999999862 0 -0.6857999999999999652 #
straight-curve $-1 0.6857999999999999652 0 -0.6857999999999999652 0 0.2285999999999999699 0 I I #
plane-surface $-1 0.6857999999999999652 0 -0.6857999999999999652 1 0 0 0 0 -0.2285999999999999699 forward_v I I I I #
point $-1 0.6857999999999999652 2.285999999999999588 -1.37159999999999993 #
coedge $-1 $232 $234 $223 $270 reversed $181 $-1 #
edge $-1 $301 0 $271 2.5 $223 $302 forward 7 unknown #
vertex $-1 $225 $303 #
straight-curve $-1 -0.6857999999999999652 0 -0.6857999999999999652 0 0 -0.2285999999999999699 I I #
point $-1 -0.6857999999999999652 0 -1.37159999999999993 #
plane-surface $-1 0 0 0 0 0 1 0.2285999999999999699 0 0 forward_v I I I I #
coedge $-1 $247 $295 $249 $290 forward $230 $-1 #
coedge $-1 $234 $232 $246 $287 forward $181 $-1 #
coedge $-1 $295 $247 $232 $278 reversed $230 $-1 #
edge $-1 $301 0 $288 10 $277 $304 forward 7 unknown #
coedge $-1 $246 $236 $233 $280 reversed $71 $-1 #
edge $-1 $281 0 $238 3.000000000000000444 $279 $305 forward 7 unknown #
vertex $-1 $287 $306 #
straight-curve $-1 -0.6857999999999999652 0 -0.6857999999999999652 0 0.2285999999999999699 0 I I #
straight-curve $-1 -0.6857999999999999652 2.285999999999999588 -1.37159999999999993 -0.2285999999999999699 0 0 I I #
point $-1 -0.6857999999999999652 2.285999999999999588 -1.37159999999999993 #
straight-curve $-1 0.6857999999999999652 2.285999999999999588 -0.6857999999999999652 0 0 -0.2285999999999999699 I I #
point $-1 0.6857999999999999652 2.285999999999999588 -0.6857999999999999652 #
edge $-1 $288 0 $281 2.5 $246 $307 forward 7 unknown #
vertex $-1 $248 $308 #
straight-curve $-1 -0.4571999999999999398 2.285999999999999588 0 -0.1735660593007067876 0 -0.1487709079720343774 I I #
edge $-1 $297 0 $252 10 $249 $309 forward 7 unknown #
point $-1 -0.4571999999999999398 2.285999999999999588 0 #
straight-curve $-1 0.4571999999999999398 0 0 0 0.2285999999999999699 0 I I #
straight-curve $-1 1.257299999999999862 0 -0.6857999999999999652 0 0.2285999999999999699 0 I I #
plane-surface $-1 0.4571999999999999398 0 0 0.6507913734559684915 0 0.7592566023652965734 0.1735660593007067876 0 -0.1487709079720343774 forward_v I I I I #
coedge $-1 $275 $277 $259 $296 reversed $230 $-1 #
edge $-1 $297 0 $301 4.609772228646443537 $259 $310 forward 7 unknown #
vertex $-1 $296 $311 #
straight-curve $-1 0.4571999999999999398 0 0 -0.2285999999999999699 0 0 I I #
point $-1 0.4571999999999999398 0 0 #
plane-surface $-1 1.257299999999999862 0 -0.6857999999999999652 0 0 -1 -0.2285999999999999699 0 0 forward_v I I I I #
vertex $-1 $270 $312 #
straight-curve $-1 -1.257299999999999862 0 -0.6857999999999999652 0.2285999999999999699 0 0 I I #
point $-1 -0.6857999999999999652 0 -0.6857999999999999652 #
straight-curve $-1 -1.257299999999999862 0 -0.6857999999999999652 0 0.2285999999999999699 0 I I #
straight-curve $-1 -0.6857999999999999652 2.285999999999999588 -0.6857999999999999652 0 0 -0.2285999999999999699 I I #
point $-1 -0.6857999999999999652 2.285999999999999588 -0.6857999999999999652 #
straight-curve $-1 -1.257299999999999862 2.285999999999999588 -0.6857999999999999652 0.2285999999999999699 0 0 I I #
point $-1 -1.257299999999999862 2.285999999999999588 -0.6857999999999999652 #
straight-curve $-1 -0.4571999999999999398 0 0 0 0.2285999999999999699 0 I I #
straight-curve $-1 -0.4571999999999999398 0 0 -0.1735660593007067876 0 -0.1487709079720343774 I I #
point $-1 -0.4571999999999999398 0 0 #
point $-1 -1.257299999999999862 0 -0.6857999999999999652 #
End-of-ACIS-data 