600 0 1 0           
101 GICL Pro/E ACIS Translator - Source: f:/data5/repository/PTC/V18/cabecad18/ptc_comp/channel.prt - 6 0 13 ACIS 6.0.3 NT 24 Thu Apr 04 13:39:08 2002 
1 9.9999999999999995e-007 1e-010 
body $-1 $1 $-1 $2 #
lump $-1 $-1 $3 $0 #
transform $-1 1 0 0 0 1 0 0 0 1 0 0 0 0.22859999999999997 no_rotate no_reflect no_shear #
shell $-1 $-1 $-1 $4 $-1 $1 #
face $-1 $5 $6 $3 $-1 $7 reversed single #
face $-1 $8 $9 $3 $-1 $10 forward single #
loop $-1 $-1 $11 $4 #
plane-surface $-1 0 0 0 0 1 0 1 0 0 forward_v I I I I #
face $-1 $12 $13 $3 $-1 $14 forward single #
loop $-1 $-1 $15 $5 #
plane-surface $-1 10 0 -18 -1 0 0 0 0 1 forward_v I I I I #
coedge $-1 $16 $17 $18 $19 reversed $6 $-1 #
face $-1 $20 $21 $3 $-1 $22 reversed single #
loop $-1 $-1 $23 $8 #
plane-surface $-1 10 0 -8 0 0 -1 -1 0 0 forward_v I I I I #
coedge $-1 $24 $18 $23 $25 forward $9 $-1 #
coedge $-1 $26 $11 $27 $28 reversed $6 $-1 #
coedge $-1 $11 $29 $30 $31 forward $6 $-1 #
coedge $-1 $15 $32 $11 $19 forward $9 $-1 #
edge $-1 $33 0 $34 10 $11 $35 forward 7 unknown #
face $-1 $36 $37 $3 $-1 $38 reversed single #
loop $-1 $-1 $39 $12 #
plane-surface $-1 -10 0 -18 -1 0 0 0 0 1 forward_v I I I I #
coedge $-1 $30 $40 $15 $25 reversed $13 $-1 #
coedge $-1 $32 $15 $41 $42 reversed $9 $-1 #
edge $-1 $34 0 $43 10 $15 $44 forward 7 unknown #
coedge $-1 $45 $16 $46 $47 reversed $6 $-1 #
coedge $-1 $48 $49 $16 $28 forward $50 $-1 #
edge $-1 $51 0 $33 3 $16 $52 forward 7 unknown #
coedge $-1 $17 $53 $54 $55 forward $6 $-1 #
coedge $-1 $56 $23 $17 $31 reversed $13 $-1 #
edge $-1 $57 0 $34 20 $17 $58 forward 7 unknown #
coedge $-1 $18 $24 $48 $59 reversed $9 $-1 #
vertex $-1 $28 $60 #
vertex $-1 $31 $61 #
straight-curve $-1 10 0 -18 0 0 1 I I #
face $-1 $62 $63 $3 $-1 $64 reversed single #
loop $-1 $-1 $65 $20 #
plane-surface $-1 -13 0 -18 0 0 1 1 0 0 forward_v I I I I #
coedge $-1 $66 $54 $67 $68 forward $21 $-1 #
coedge $-1 $23 $56 $69 $70 reversed $13 $-1 #
coedge $-1 $69 $71 $24 $42 forward $72 $-1 #
edge $-1 $73 0 $43 10 $41 $74 forward 7 unknown #
vertex $-1 $70 $75 #
straight-curve $-1 10 0 -8 0 1 0 I I #
coedge $-1 $76 $26 $77 $78 reversed $6 $-1 #
coedge $-1 $79 $80 $26 $47 forward $81 $-1 #
edge $-1 $82 0 $51 12 $26 $83 forward 7 unknown #
coedge $-1 $84 $27 $32 $59 forward $50 $-1 #
coedge $-1 $27 $84 $79 $85 reversed $50 $-1 #
loop $-1 $-1 $48 $86 #
vertex $-1 $47 $87 #
straight-curve $-1 13 0 -18 -1 0 0 I I #
coedge $-1 $29 $88 $89 $90 forward $6 $-1 #
coedge $-1 $39 $91 $29 $55 reversed $21 $-1 #
edge $-1 $92 0 $57 10 $29 $93 forward 7 unknown #
coedge $-1 $40 $30 $91 $94 forward $13 $-1 #
vertex $-1 $31 $95 #
straight-curve $-1 -10 0 -8 1 0 0 I I #
edge $-1 $33 0 $73 10 $48 $96 forward 7 unknown #
point $-1 10 0 -18 #
point $-1 10 0 -8 #
face $-1 $97 $98 $3 $-1 $99 reversed single #
loop $-1 $-1 $100 $36 #
plane-surface $-1 -13 0 -6 1 0 0 0 0 -1 forward_v I I I I #
coedge $-1 $101 $89 $102 $103 forward $37 $-1 #
coedge $-1 $91 $39 $104 $105 forward $21 $-1 #
coedge $-1 $89 $101 $39 $68 reversed $37 $-1 #
edge $-1 $92 0 $106 10 $67 $107 forward 7 unknown #
coedge $-1 $104 $41 $40 $70 forward $72 $-1 #
edge $-1 $43 0 $108 20 $69 $109 forward 7 unknown #
coedge $-1 $41 $110 $84 $111 forward $72 $-1 #
loop $-1 $-1 $112 $113 #
vertex $-1 $42 $114 #
straight-curve $-1 10 10 -18 0 0 1 I I #
point $-1 10 10 -8 #
coedge $-1 $115 $45 $116 $117 reversed $6 $-1 #
coedge $-1 $118 $119 $45 $78 forward $120 $-1 #
edge $-1 $121 0 $82 10 $45 $122 forward 7 unknown #
coedge $-1 $123 $46 $49 $85 forward $81 $-1 #
coedge $-1 $46 $123 $118 $124 reversed $81 $-1 #
loop $-1 $-1 $79 $125 #
vertex $-1 $78 $126 #
straight-curve $-1 13 0 -6 0 0 -1 I I #
coedge $-1 $49 $48 $71 $111 reversed $50 $-1 #
edge $-1 $51 0 $127 10 $79 $128 forward 7 unknown #
face $-1 $113 $50 $3 $-1 $129 forward single #
point $-1 13 0 -18 #
coedge $-1 $53 $130 $131 $132 forward $6 $-1 #
coedge $-1 $65 $67 $53 $90 reversed $37 $-1 #
edge $-1 $133 0 $92 3 $53 $134 forward 7 unknown #
coedge $-1 $54 $66 $56 $94 reversed $21 $-1 #
vertex $-1 $55 $135 #
straight-curve $-1 -10 0 -18 0 0 1 I I #
edge $-1 $57 0 $108 10 $56 $136 forward 7 unknown #
point $-1 -10 0 -8 #
straight-curve $-1 10 0 -18 0 1 0 I I #
face $-1 $137 $138 $3 $-1 $139 reversed single #
loop $-1 $-1 $140 $62 #
plane-surface $-1 -3 0 -6 0 0 -1 -1 0 0 forward_v I I I I #
coedge $-1 $141 $131 $142 $143 forward $63 $-1 #
coedge $-1 $67 $65 $144 $145 forward $37 $-1 #
coedge $-1 $131 $141 $65 $103 reversed $63 $-1 #
edge $-1 $133 0 $146 10 $102 $147 forward 7 unknown #
coedge $-1 $144 $69 $66 $105 reversed $72 $-1 #
edge $-1 $106 0 $108 10 $104 $148 forward 7 unknown #
vertex $-1 $145 $149 #
straight-curve $-1 -10 0 -18 0 1 0 I I #
vertex $-1 $105 $150 #
straight-curve $-1 10 10 -8 -1 0 0 I I #
coedge $-1 $71 $151 $123 $152 forward $72 $-1 #
edge $-1 $127 0 $73 3 $71 $153 forward 7 unknown #
coedge $-1 $154 $155 $156 $157 forward $72 $-1 #
face $-1 $-1 $72 $3 $-1 $158 forward single #
point $-1 10 10 -18 #
coedge $-1 $159 $76 $160 $161 reversed $6 $-1 #
coedge $-1 $162 $163 $76 $117 forward $164 $-1 #
edge $-1 $165 0 $121 3 $76 $166 forward 7 unknown #
coedge $-1 $167 $77 $80 $124 forward $120 $-1 #
coedge $-1 $77 $167 $162 $168 reversed $120 $-1 #
loop $-1 $-1 $118 $169 #
vertex $-1 $117 $170 #
straight-curve $-1 3 0 -6 1 0 0 I I #
coedge $-1 $80 $79 $110 $152 reversed $81 $-1 #
edge $-1 $82 0 $171 10 $118 $172 forward 7 unknown #
face $-1 $86 $81 $3 $-1 $173 forward single #
point $-1 13 0 -6 #
vertex $-1 $111 $174 #
straight-curve $-1 13 0 -18 0 1 0 I I #
plane-surface $-1 13 0 -18 0 0 -1 -1 0 0 forward_v I I I I #
coedge $-1 $88 $175 $176 $177 forward $6 $-1 #
coedge $-1 $100 $102 $88 $132 reversed $63 $-1 #
edge $-1 $178 0 $133 12 $88 $179 forward 7 unknown #
vertex $-1 $90 $180 #
straight-curve $-1 -13 0 -18 1 0 0 I I #
point $-1 -10 0 -18 #
straight-curve $-1 -10 0 -8 0 1 0 I I #
face $-1 $181 $182 $3 $-1 $183 reversed single #
loop $-1 $-1 $184 $97 #
plane-surface $-1 -3 0 -3 1 0 0 0 0 -1 forward_v I I I I #
coedge $-1 $185 $176 $186 $187 forward $98 $-1 #
coedge $-1 $102 $100 $188 $189 forward $63 $-1 #
coedge $-1 $176 $185 $100 $143 reversed $98 $-1 #
edge $-1 $178 0 $190 10 $142 $191 forward 7 unknown #
coedge $-1 $188 $104 $101 $145 reversed $72 $-1 #
edge $-1 $146 0 $106 3 $144 $192 forward 7 unknown #
vertex $-1 $189 $193 #
straight-curve $-1 -13 0 -18 0 1 0 I I #
straight-curve $-1 -10 10 -18 0 0 1 I I #
point $-1 -10 10 -18 #
point $-1 -10 10 -8 #
coedge $-1 $110 $194 $167 $195 forward $72 $-1 #
edge $-1 $171 0 $127 12 $110 $196 forward 7 unknown #
straight-curve $-1 13 10 -18 -1 0 0 I I #
coedge $-1 $194 $112 $197 $198 forward $72 $-1 #
coedge $-1 $112 $199 $200 $201 forward $72 $-1 #
coedge $-1 $202 $203 $112 $157 reversed $204 $-1 #
edge $-1 $205 0 $206 4.6097722286464435 $112 $207 forward 7 unknown #
plane-surface $-1 0 10 0 0 1 0 1 0 0 forward_v I I I I #
coedge $-1 $208 $115 $209 $210 reversed $6 $-1 #
coedge $-1 $211 $212 $115 $161 forward $213 $-1 #
edge $-1 $214 0 $165 2.5 $115 $215 forward 7 unknown #
coedge $-1 $216 $116 $119 $168 forward $164 $-1 #
coedge $-1 $116 $216 $211 $217 reversed $164 $-1 #
loop $-1 $-1 $162 $218 #
vertex $-1 $161 $219 #
straight-curve $-1 3 0 -3 0 0 -1 I I #
coedge $-1 $119 $118 $151 $195 reversed $120 $-1 #
edge $-1 $121 0 $220 10 $162 $221 forward 7 unknown #
face $-1 $125 $120 $3 $-1 $222 forward single #
point $-1 3 0 -6 #
vertex $-1 $152 $223 #
straight-curve $-1 13 0 -6 0 1 0 I I #
plane-surface $-1 13 0 -6 1 0 0 0 0 -1 forward_v I I I I #
point $-1 13 10 -18 #
coedge $-1 $130 $224 $225 $226 forward $6 $-1 #
coedge $-1 $140 $142 $130 $177 reversed $98 $-1 #
edge $-1 $227 0 $178 10 $130 $228 forward 7 unknown #
vertex $-1 $132 $229 #
straight-curve $-1 -13 0 -6 0 0 -1 I I #
point $-1 -13 0 -18 #
face $-1 $230 $231 $3 $-1 $232 reversed single #
loop $-1 $-1 $233 $137 #
plane-surface $-1 -5.5 0 -3 0 0 1 1 0 0 forward_v I I I I #
coedge $-1 $234 $225 $235 $236 forward $138 $-1 #
coedge $-1 $142 $140 $237 $238 forward $98 $-1 #
coedge $-1 $225 $234 $140 $187 reversed $138 $-1 #
edge $-1 $227 0 $239 10 $186 $240 forward 7 unknown #
coedge $-1 $237 $144 $141 $189 reversed $72 $-1 #
edge $-1 $190 0 $146 12 $188 $241 forward 7 unknown #
vertex $-1 $238 $242 #
straight-curve $-1 -13 0 -6 0 1 0 I I #
straight-curve $-1 -13 10 -18 1 0 0 I I #
point $-1 -13 10 -18 #
coedge $-1 $151 $154 $216 $243 forward $72 $-1 #
edge $-1 $220 0 $171 10 $151 $244 forward 7 unknown #
straight-curve $-1 13 10 -6 0 0 -1 I I #
coedge $-1 $212 $211 $154 $198 reversed $213 $-1 #
edge $-1 $206 0 $245 2.5 $154 $246 forward 7 unknown #
coedge $-1 $155 $247 $248 $249 reversed $72 $-1 #
coedge $-1 $250 $251 $155 $201 reversed $252 $-1 #
edge $-1 $253 0 $205 4 $155 $254 forward 7 unknown #
coedge $-1 $209 $156 $251 $255 reversed $204 $-1 #
coedge $-1 $156 $209 $212 $256 forward $204 $-1 #
loop $-1 $-1 $203 $257 #
vertex $-1 $201 $258 #
vertex $-1 $198 $259 #
straight-curve $-1 2 10 0 0.75925660236529657 0 -0.65079137345596849 I I #
coedge $-1 $260 $159 $261 $262 forward $6 $-1 #
coedge $-1 $203 $202 $159 $210 forward $204 $-1 #
edge $-1 $263 0 $214 4.6097722286464435 $159 $264 forward 7 unknown #
coedge $-1 $197 $160 $163 $217 forward $213 $-1 #
coedge $-1 $160 $197 $203 $256 reversed $213 $-1 #
loop $-1 $-1 $211 $265 #
vertex $-1 $210 $266 #
straight-curve $-1 5.5 0 -3 -1 0 0 I I #
coedge $-1 $163 $162 $194 $243 reversed $164 $-1 #
edge $-1 $165 0 $245 10 $211 $267 forward 7 unknown #
face $-1 $169 $164 $3 $-1 $268 forward single #
point $-1 3 0 -3 #
vertex $-1 $195 $269 #
straight-curve $-1 3 0 -6 0 1 0 I I #
plane-surface $-1 3 0 -6 0 0 1 1 0 0 forward_v I I I I #
point $-1 13 10 -6 #
coedge $-1 $175 $260 $270 $271 forward $6 $-1 #
coedge $-1 $184 $186 $175 $226 reversed $138 $-1 #
edge $-1 $272 0 $227 3 $175 $273 forward 7 unknown #
vertex $-1 $177 $274 #
straight-curve $-1 -3 0 -6 -1 0 0 I I #
point $-1 -13 0 -6 #
face $-1 $257 $252 $3 $-1 $275 forward single #
loop $-1 $-1 $276 $181 #
plane-surface $-1 -2 0 0 0.65079137345596849 0 -0.75925660236529657 -0.75925660236529657 0 -0.65079137345596849 forward_v I I I I #
coedge $-1 $277 $270 $278 $279 forward $182 $-1 #
coedge $-1 $186 $184 $280 $281 forward $138 $-1 #
coedge $-1 $270 $277 $184 $236 reversed $182 $-1 #
edge $-1 $272 0 $282 10 $235 $283 forward 7 unknown #
coedge $-1 $280 $188 $185 $238 reversed $72 $-1 #
edge $-1 $239 0 $190 10 $237 $284 forward 7 unknown #
vertex $-1 $281 $285 #
straight-curve $-1 -3 0 -6 0 1 0 I I #
straight-curve $-1 -13 10 -6 0 0 -1 I I #
point $-1 -13 10 -6 #
edge $-1 $245 0 $220 3 $194 $286 forward 7 unknown #
straight-curve $-1 3 10 -6 1 0 0 I I #
vertex $-1 $243 $287 #
straight-curve $-1 5.5 10 -3 -1 0 0 I I #
coedge $-1 $199 $280 $277 $288 reversed $72 $-1 #
coedge $-1 $278 $276 $199 $249 forward $231 $-1 #
edge $-1 $253 0 $289 4.6097722286464435 $199 $290 forward 7 unknown #
coedge $-1 $261 $200 $276 $291 reversed $252 $-1 #
coedge $-1 $200 $261 $202 $255 forward $252 $-1 #
loop $-1 $-1 $251 $230 #
vertex $-1 $201 $292 #
straight-curve $-1 -2 10 0 1 0 0 I I #
edge $-1 $263 0 $205 10 $251 $293 forward 7 unknown #
edge $-1 $214 0 $206 10 $203 $294 forward 7 unknown #
face $-1 $265 $204 $3 $-1 $295 forward single #
point $-1 2 10 0 #
point $-1 5.5 10 -3 #
coedge $-1 $224 $208 $296 $297 forward $6 $-1 #
coedge $-1 $251 $250 $208 $262 reversed $252 $-1 #
edge $-1 $263 0 $298 4 $208 $299 forward 7 unknown #
vertex $-1 $262 $300 #
straight-curve $-1 2 0 0 0.75925660236529657 0 -0.65079137345596849 I I #
face $-1 $218 $213 $3 $-1 $301 forward single #
point $-1 5.5 0 -3 #
straight-curve $-1 3 0 -3 0 1 0 I I #
plane-surface $-1 3 0 -3 1 0 0 0 0 -1 forward_v I I I I #
point $-1 3 10 -6 #
coedge $-1 $233 $235 $224 $271 reversed $182 $-1 #
edge $-1 $302 0 $272 2.5 $224 $303 forward 7 unknown #
vertex $-1 $226 $304 #
straight-curve $-1 -3 0 -3 0 0 -1 I I #
point $-1 -3 0 -6 #
plane-surface $-1 0 0 0 0 0 1 1 0 0 forward_v I I I I #
coedge $-1 $248 $296 $250 $291 forward $231 $-1 #
coedge $-1 $235 $233 $247 $288 forward $182 $-1 #
coedge $-1 $296 $248 $233 $279 reversed $231 $-1 #
edge $-1 $302 0 $289 10 $278 $305 forward 7 unknown #
coedge $-1 $247 $237 $234 $281 reversed $72 $-1 #
edge $-1 $282 0 $239 3 $280 $306 forward 7 unknown #
vertex $-1 $288 $307 #
straight-curve $-1 -3 0 -3 0 1 0 I I #
straight-curve $-1 -3 10 -6 -1 0 0 I I #
point $-1 -3 10 -6 #
straight-curve $-1 3 10 -3 0 0 -1 I I #
point $-1 3 10 -3 #
edge $-1 $289 0 $282 2.5 $247 $308 forward 7 unknown #
vertex $-1 $249 $309 #
straight-curve $-1 -2 10 0 -0.75925660236529657 0 -0.65079137345596849 I I #
edge $-1 $298 0 $253 10 $250 $310 forward 7 unknown #
point $-1 -2 10 0 #
straight-curve $-1 2 0 0 0 1 0 I I #
straight-curve $-1 5.5 0 -3 0 1 0 I I #
plane-surface $-1 2 0 0 0.65079137345596849 0 0.75925660236529657 0.75925660236529657 0 -0.65079137345596849 forward_v I I I I #
coedge $-1 $276 $278 $260 $297 reversed $231 $-1 #
edge $-1 $298 0 $302 4.6097722286464435 $260 $311 forward 7 unknown #
vertex $-1 $297 $312 #
straight-curve $-1 2 0 0 -1 0 0 I I #
point $-1 2 0 0 #
plane-surface $-1 5.5 0 -3 0 0 -1 -1 0 0 forward_v I I I I #
vertex $-1 $271 $313 #
straight-curve $-1 -5.5 0 -3 1 0 0 I I #
point $-1 -3 0 -3 #
straight-curve $-1 -5.5 0 -3 0 1 0 I I #
straight-curve $-1 -3 10 -3 0 0 -1 I I #
point $-1 -3 10 -3 #
straight-curve $-1 -5.5 10 -3 1 0 0 I I #
point $-1 -5.5 10 -3 #
straight-curve $-1 -2 0 0 0 1 0 I I #
straight-curve $-1 -2 0 0 -0.75925660236529657 0 -0.65079137345596849 I I #
point $-1 -2 0 0 #
point $-1 -5.5 0 -3 #
End-of-ACIS-data 