600 0 1 0           
91 GICL ACIS Healer - Source: /gicl/data5/repository/PTC/V18/cabecad18/ptc_comp/clip.sat - 6 0 18 ACIS 6.0.3 Solaris 24 Sat Apr 13 22:23:09 2002 
1 9.999999999999999547e-07 1.000000000000000036e-10 
body $-1 $1 $-1 $-1 #
lump $-1 $-1 $2 $0 #
shell $-1 $-1 $-1 $3 $-1 $1 #
face $-1 $4 $5 $2 $-1 $6 reversed single #
face $-1 $7 $8 $2 $-1 $9 reversed single #
loop $-1 $10 $11 $3 #
plane-surface $-1 0 0 0 0 1 0 0.2285999999999999699 0 0 forward_v I I I I #
face $-1 $12 $13 $2 $-1 $14 reversed single #
loop $-1 $-1 $15 $4 #
cone-surface $-1 0 0 0 0 1 0 2.285999999999999588 0 0 1 I I 0 1 2.285999999999999588 forward I I I I #
loop $-1 $-1 $16 $3 #
coedge $-1 $17 $17 $18 $19 reversed $5 $-1 #
face $-1 $20 $21 $2 $-1 $22 forward single #
loop $-1 $-1 $23 $7 #
cone-surface $-1 0 0 0 0 1 0 2.285999999999999588 0 0 1 I I 0 1 2.285999999999999588 forward I I I I #
coedge $-1 $24 $18 $25 $26 forward $8 $-1 #
coedge $-1 $27 $28 $29 $30 reversed $10 $-1 #
coedge $-1 $11 $11 $31 $32 reversed $5 $-1 #
coedge $-1 $15 $33 $11 $19 forward $8 $-1 #
edge $-1 $34 0 $35 3.141592653589793116 $11 $36 forward 7 unknown #
face $-1 $37 $38 $2 $-1 $39 forward single #
loop $-1 $40 $41 $12 #
plane-surface $-1 0 6.172199999999999243 0 0 1 0 0.2285999999999999699 0 0 forward_v I I I I #
coedge $-1 $42 $31 $33 $43 forward $13 $-1 #
coedge $-1 $33 $15 $41 $44 reversed $8 $-1 #
coedge $-1 $31 $42 $15 $26 reversed $13 $-1 #
edge $-1 $35 0 $45 27 $25 $46 forward 7 unknown #
coedge $-1 $47 $16 $48 $49 reversed $10 $-1 #
coedge $-1 $16 $50 $51 $52 reversed $10 $-1 #
coedge $-1 $53 $54 $16 $30 forward $55 $-1 #
edge $-1 $56 0 $57 1.999999999999999556 $16 $58 forward 7 unknown #
coedge $-1 $23 $25 $17 $32 forward $13 $-1 #
edge $-1 $35 0 $34 3.141592653589793116 $17 $59 forward 7 unknown #
coedge $-1 $18 $24 $23 $43 reversed $8 $-1 #
vertex $-1 $32 $60 #
vertex $-1 $32 $61 #
ellipse-curve $-1 0 0 0 0 -1 0 -2.285999999999999588 0 0 1 I I #
face $-1 $62 $63 $2 $-1 $64 forward single #
loop $-1 $-1 $65 $20 #
plane-surface $-1 -2.285999999999999588 0 3.076142009667262034 -1 0 0 0 0 0.2285999999999999699 forward_v I I I I #
loop $-1 $-1 $66 $12 #
coedge $-1 $67 $67 $24 $44 forward $21 $-1 #
coedge $-1 $25 $23 $67 $68 reversed $13 $-1 #
edge $-1 $34 0 $69 27 $23 $70 forward 7 unknown #
edge $-1 $69 0 $45 3.141592653589793116 $41 $71 forward 7 unknown #
vertex $-1 $68 $72 #
straight-curve $-1 2.285999999999999588 0 0 0 0.2285999999999999699 2.073666759139225187e-17 I I #
coedge $-1 $73 $27 $74 $75 reversed $10 $-1 #
coedge $-1 $76 $77 $27 $49 forward $78 $-1 #
edge $-1 $79 0 $56 5.460151615044610551 $27 $80 forward 7 unknown #
coedge $-1 $28 $81 $82 $83 reversed $10 $-1 #
coedge $-1 $84 $85 $28 $52 forward $86 $-1 #
edge $-1 $57 0 $87 5 $28 $88 forward 7 unknown #
coedge $-1 $89 $29 $85 $90 forward $55 $-1 #
coedge $-1 $29 $89 $76 $91 reversed $55 $-1 #
loop $-1 $-1 $53 $92 #
vertex $-1 $49 $93 #
vertex $-1 $52 $94 #
straight-curve $-1 -1.142999999999999794 0 2.618942009667262205 0 0 0.2285999999999999699 I I #
ellipse-curve $-1 0 0 0 0 -1 0 2.285999999999999588 0 0 1 I I #
point $-1 -2.285999999999999588 0 0 #
point $-1 2.285999999999999588 0 0 #
face $-1 $95 $96 $2 $-1 $97 forward single #
loop $-1 $-1 $98 $37 #
plane-surface $-1 -2.285999999999999588 0 3.761942009667261999 0 0 1 0.2285999999999999699 0 0 forward_v I I I I #
coedge $-1 $99 $82 $100 $101 forward $38 $-1 #
coedge $-1 $102 $103 $99 $104 forward $40 $-1 #
coedge $-1 $41 $41 $42 $68 forward $21 $-1 #
edge $-1 $45 0 $69 3.141592653589793116 $67 $105 forward 7 unknown #
vertex $-1 $68 $106 #
straight-curve $-1 -2.285999999999999588 0 -2.799450124837954203e-16 0 0.2285999999999999699 0 I I #
ellipse-curve $-1 0 6.172199999999999243 0 0 -1 0 -2.285999999999999588 0 0 1 I I #
point $-1 2.285999999999999588 6.172199999999999243 0 #
coedge $-1 $107 $47 $108 $109 reversed $10 $-1 #
coedge $-1 $110 $111 $47 $75 forward $112 $-1 #
edge $-1 $113 0 $79 1.999999999999999556 $47 $114 forward 7 unknown #
coedge $-1 $115 $48 $54 $91 forward $78 $-1 #
coedge $-1 $48 $115 $110 $116 reversed $78 $-1 #
loop $-1 $-1 $76 $117 #
vertex $-1 $75 $118 #
ellipse-curve $-1 0 0 0 0 1 0 1.142999999999999794 0 2.618942009667262205 1 I I #
coedge $-1 $50 $119 $120 $121 reversed $10 $-1 #
coedge $-1 $65 $122 $50 $83 forward $38 $-1 #
edge $-1 $87 0 $123 3.000000000000000444 $50 $124 forward 7 unknown #
coedge $-1 $125 $51 $122 $126 forward $86 $-1 #
coedge $-1 $51 $125 $53 $90 reversed $86 $-1 #
loop $-1 $-1 $84 $127 #
vertex $-1 $52 $128 #
straight-curve $-1 -1.142999999999999794 0 3.076142009667262034 -0.2285999999999999699 0 0 I I #
coedge $-1 $54 $53 $129 $130 reversed $55 $-1 #
edge $-1 $57 0 $131 27 $85 $132 forward 7 unknown #
edge $-1 $56 0 $133 27 $76 $134 forward 7 unknown #
face $-1 $127 $55 $2 $-1 $135 forward single #
point $-1 -1.142999999999999794 0 2.618942009667262205 #
point $-1 -1.142999999999999794 0 3.076142009667262034 #
face $-1 $136 $137 $2 $-1 $138 forward single #
loop $-1 $-1 $139 $62 #
plane-surface $-1 -1.37159999999999993 0 3.761942009667261999 -1 0 0 0 0 0.2285999999999999699 forward_v I I I I #
coedge $-1 $140 $120 $141 $142 forward $63 $-1 #
coedge $-1 $122 $65 $66 $104 reversed $38 $-1 #
coedge $-1 $120 $140 $65 $101 reversed $63 $-1 #
edge $-1 $123 0 $143 27 $65 $144 forward 7 unknown #
coedge $-1 $145 $66 $140 $146 forward $40 $-1 #
coedge $-1 $66 $129 $125 $147 forward $40 $-1 #
edge $-1 $148 0 $143 3.000000000000000444 $66 $149 forward 7 unknown #
ellipse-curve $-1 0 6.172199999999999243 0 0 -1 0 2.285999999999999588 0 0 1 I I #
point $-1 -2.285999999999999588 6.172199999999999243 0 #
coedge $-1 $150 $73 $151 $152 reversed $10 $-1 #
coedge $-1 $153 $154 $73 $109 forward $155 $-1 #
edge $-1 $156 0 $113 5 $73 $157 forward 7 unknown #
coedge $-1 $158 $74 $77 $116 forward $112 $-1 #
coedge $-1 $74 $158 $153 $159 reversed $112 $-1 #
loop $-1 $-1 $110 $160 #
vertex $-1 $109 $161 #
straight-curve $-1 1.142999999999999794 0 3.076142009667262034 0 0 -0.2285999999999999699 I I #
coedge $-1 $77 $76 $162 $163 reversed $78 $-1 #
edge $-1 $79 0 $164 27 $110 $165 forward 7 unknown #
face $-1 $92 $78 $2 $-1 $166 forward single #
point $-1 1.142999999999999794 0 2.618942009667262205 #
coedge $-1 $81 $167 $168 $169 reversed $10 $-1 #
coedge $-1 $98 $100 $81 $121 forward $63 $-1 #
edge $-1 $123 0 $170 3.999999999999999112 $81 $171 forward 7 unknown #
coedge $-1 $82 $99 $84 $126 reversed $38 $-1 #
vertex $-1 $83 $172 #
straight-curve $-1 -2.285999999999999588 0 3.076142009667262034 0 0 0.2285999999999999699 I I #
coedge $-1 $85 $84 $103 $147 reversed $86 $-1 #
edge $-1 $87 0 $148 27 $84 $173 forward 7 unknown #
face $-1 $-1 $86 $2 $-1 $174 forward single #
point $-1 -2.285999999999999588 0 3.076142009667262034 #
coedge $-1 $103 $162 $89 $130 forward $40 $-1 #
edge $-1 $133 0 $131 1.999999999999999556 $129 $175 forward 7 unknown #
vertex $-1 $147 $176 #
straight-curve $-1 -1.142999999999999794 0 3.076142009667262034 0 0.2285999999999999699 0 I I #
vertex $-1 $130 $177 #
straight-curve $-1 -1.142999999999999794 0 2.618942009667262205 0 0.2285999999999999699 0 I I #
plane-surface $-1 -1.142999999999999794 0 2.618942009667262205 -1 0 0 0 0 0.2285999999999999699 forward_v I I I I #
face $-1 $178 $179 $2 $-1 $180 forward single #
loop $-1 $-1 $181 $95 #
plane-surface $-1 -1.37159999999999993 0 4.676342009667261657 0 0 -1 -0.2285999999999999699 0 0 forward_v I I I I #
coedge $-1 $182 $168 $183 $184 forward $96 $-1 #
coedge $-1 $100 $98 $102 $146 reversed $63 $-1 #
coedge $-1 $168 $182 $98 $142 reversed $96 $-1 #
edge $-1 $170 0 $185 27 $98 $186 forward 7 unknown #
vertex $-1 $146 $187 #
straight-curve $-1 -2.285999999999999588 0 3.761942009667261999 0 0.2285999999999999699 0 I I #
coedge $-1 $188 $102 $182 $189 forward $40 $-1 #
edge $-1 $143 0 $185 3.999999999999999112 $102 $190 forward 7 unknown #
edge $-1 $131 0 $148 5 $103 $191 forward 7 unknown #
vertex $-1 $147 $192 #
straight-curve $-1 -2.285999999999999588 6.172199999999999243 3.076142009667262034 0 0 0.2285999999999999699 I I #
coedge $-1 $193 $107 $194 $195 reversed $10 $-1 #
coedge $-1 $196 $197 $107 $152 forward $198 $-1 #
edge $-1 $199 0 $156 3.000000000000000444 $107 $200 forward 7 unknown #
coedge $-1 $201 $108 $111 $159 forward $155 $-1 #
coedge $-1 $108 $201 $196 $202 reversed $155 $-1 #
loop $-1 $-1 $153 $203 #
vertex $-1 $152 $204 #
straight-curve $-1 2.285999999999999588 0 3.076142009667262034 -0.2285999999999999699 0 0 I I #
coedge $-1 $111 $110 $205 $206 reversed $112 $-1 #
edge $-1 $113 0 $207 27 $153 $208 forward 7 unknown #
face $-1 $117 $112 $2 $-1 $209 forward single #
point $-1 1.142999999999999794 0 3.076142009667262034 #
coedge $-1 $129 $205 $115 $163 forward $40 $-1 #
edge $-1 $164 -2.175493220967984531e-16 $133 5.460151615044610551 $162 $210 forward 7 unknown #
vertex $-1 $163 $211 #
straight-curve $-1 1.142999999999999794 0 2.618942009667262205 0 0.2285999999999999699 0 I I #
cone-surface $-1 0 0 0 0 1 0 2.857499999999999485 0 0 1 I I 0 1 2.857499999999999485 forward I I I I #
coedge $-1 $119 $212 $213 $214 reversed $10 $-1 #
coedge $-1 $139 $141 $119 $169 forward $96 $-1 #
edge $-1 $170 0 $215 3.999999999999999112 $119 $216 forward 7 unknown #
vertex $-1 $121 $217 #
straight-curve $-1 -2.285999999999999588 0 3.761942009667261999 0.2285999999999999699 0 0 I I #
point $-1 -2.285999999999999588 0 3.761942009667261999 #
straight-curve $-1 -2.285999999999999588 0 3.076142009667262034 0 0.2285999999999999699 0 I I #
plane-surface $-1 -1.142999999999999794 0 3.076142009667262034 0 0 -1 -0.2285999999999999699 0 0 forward_v I I I I #
straight-curve $-1 -1.142999999999999794 6.172199999999999243 2.618942009667262205 0 0 0.2285999999999999699 I I #
point $-1 -1.142999999999999794 6.172199999999999243 3.076142009667262034 #
point $-1 -1.142999999999999794 6.172199999999999243 2.618942009667262205 #
face $-1 $218 $219 $2 $-1 $220 forward single #
loop $-1 $-1 $221 $136 #
plane-surface $-1 -2.514599999999999724 0 4.676342009667261657 -0.4472135954999579832 0 0.8944271909999159664 0.2044660558625807367 0 0.1022330279312903684 forward_v I I I I #
coedge $-1 $222 $213 $223 $224 forward $137 $-1 #
coedge $-1 $141 $139 $145 $189 reversed $96 $-1 #
coedge $-1 $213 $222 $139 $184 reversed $137 $-1 #
edge $-1 $215 0 $225 27 $139 $226 forward 7 unknown #
vertex $-1 $189 $227 #
straight-curve $-1 -1.37159999999999993 0 3.761942009667261999 0 0.2285999999999999699 0 I I #
point $-1 -2.285999999999999588 6.172199999999999243 3.761942009667261999 #
coedge $-1 $228 $145 $222 $229 forward $40 $-1 #
edge $-1 $185 0 $225 3.999999999999999112 $145 $230 forward 7 unknown #
straight-curve $-1 -2.285999999999999588 6.172199999999999243 3.761942009667261999 0.2285999999999999699 0 0 I I #
straight-curve $-1 -1.142999999999999794 6.172199999999999243 3.076142009667262034 -0.2285999999999999699 0 0 I I #
point $-1 -2.285999999999999588 6.172199999999999243 3.076142009667262034 #
coedge $-1 $231 $150 $232 $233 reversed $10 $-1 #
coedge $-1 $234 $235 $150 $195 forward $236 $-1 #
edge $-1 $237 0 $199 3.999999999999999112 $150 $238 forward 7 unknown #
coedge $-1 $239 $151 $154 $202 forward $198 $-1 #
coedge $-1 $151 $239 $234 $240 reversed $198 $-1 #
loop $-1 $-1 $196 $241 #
vertex $-1 $195 $242 #
straight-curve $-1 2.285999999999999588 0 3.761942009667261999 0 0 -0.2285999999999999699 I I #
coedge $-1 $154 $153 $243 $244 reversed $155 $-1 #
edge $-1 $156 0 $245 27 $196 $246 forward 7 unknown #
face $-1 $160 $155 $2 $-1 $247 forward single #
point $-1 2.285999999999999588 0 3.076142009667262034 #
coedge $-1 $162 $243 $158 $206 forward $40 $-1 #
edge $-1 $207 0 $164 1.999999999999999556 $205 $248 forward 7 unknown #
vertex $-1 $206 $249 #
straight-curve $-1 1.142999999999999794 0 3.076142009667262034 0 0.2285999999999999699 0 I I #
plane-surface $-1 1.142999999999999794 0 3.076142009667262034 1 0 0 0 0 -0.2285999999999999699 forward_v I I I I #
ellipse-curve $-1 9.644285370313807702e-16 6.172199999999999243 -1.776578884005175324e-16 0 1 0 1.142999999999998906 0 2.618942009667262205 1 I I #
point $-1 1.142999999999999128 6.172199999999999243 2.618942009667262205 #
coedge $-1 $167 $250 $251 $252 reversed $10 $-1 #
coedge $-1 $181 $183 $167 $214 forward $137 $-1 #
edge $-1 $215 0 $253 5 $167 $254 forward 7 unknown #
vertex $-1 $169 $255 #
straight-curve $-1 -1.37159999999999993 0 3.761942009667261999 0 0 0.2285999999999999699 I I #
point $-1 -1.37159999999999993 0 3.761942009667261999 #
face $-1 $256 $257 $2 $-1 $258 forward single #
loop $-1 $-1 $259 $178 #
plane-surface $-1 -0.6857999999999999652 0 5.590742009667261314 0 0 1 0.2285999999999999699 0 0 forward_v I I I I #
coedge $-1 $260 $251 $261 $262 forward $179 $-1 #
coedge $-1 $183 $181 $188 $229 reversed $137 $-1 #
coedge $-1 $251 $260 $181 $224 reversed $179 $-1 #
edge $-1 $253 0 $263 27 $181 $264 forward 7 unknown #
vertex $-1 $229 $265 #
straight-curve $-1 -1.37159999999999993 0 4.676342009667261657 0 0.2285999999999999699 0 I I #
point $-1 -1.37159999999999993 6.172199999999999243 3.761942009667261999 #
coedge $-1 $266 $188 $260 $267 forward $40 $-1 #
edge $-1 $225 0 $263 5 $188 $268 forward 7 unknown #
straight-curve $-1 -1.37159999999999993 6.172199999999999243 3.761942009667261999 0 0 0.2285999999999999699 I I #
coedge $-1 $269 $193 $270 $271 reversed $10 $-1 #
coedge $-1 $272 $273 $193 $233 forward $274 $-1 #
edge $-1 $275 0 $237 3.999999999999999112 $193 $276 forward 7 unknown #
coedge $-1 $277 $194 $197 $240 forward $236 $-1 #
coedge $-1 $194 $277 $272 $278 reversed $236 $-1 #
loop $-1 $-1 $234 $279 #
vertex $-1 $233 $280 #
straight-curve $-1 1.37159999999999993 0 3.761942009667261999 0.2285999999999999699 0 0 I I #
coedge $-1 $197 $196 $281 $282 reversed $198 $-1 #
edge $-1 $199 0 $283 27 $234 $284 forward 7 unknown #
face $-1 $203 $198 $2 $-1 $285 forward single #
point $-1 2.285999999999999588 0 3.761942009667261999 #
coedge $-1 $205 $281 $201 $244 forward $40 $-1 #
edge $-1 $245 0 $207 5 $243 $286 forward 7 unknown #
vertex $-1 $244 $287 #
straight-curve $-1 2.285999999999999588 0 3.076142009667262034 0 0.2285999999999999699 0 I I #
plane-surface $-1 2.285999999999999588 0 3.076142009667262034 0 0 -1 -0.2285999999999999699 0 0 forward_v I I I I #
straight-curve $-1 1.142999999999999794 6.172199999999999243 3.076142009667262034 0 0 -0.2285999999999999699 I I #
point $-1 1.142999999999999794 6.172199999999999243 3.076142009667262034 #
coedge $-1 $212 $269 $288 $289 reversed $10 $-1 #
coedge $-1 $221 $223 $212 $252 forward $179 $-1 #
edge $-1 $253 0 $290 8.94427190999915922 $212 $291 forward 7 unknown #
vertex $-1 $214 $292 #
straight-curve $-1 -1.37159999999999993 0 4.676342009667261657 -0.2285999999999999699 0 0 I I #
point $-1 -1.37159999999999993 0 4.676342009667261657 #
face $-1 $293 $294 $2 $-1 $295 forward single #
loop $-1 $-1 $296 $218 #
plane-surface $-1 0.6857999999999999652 0 5.590742009667261314 0.4472135954999579832 0 0.8944271909999159664 0.2044660558625807367 0 -0.1022330279312903684 forward_v I I I I #
coedge $-1 $297 $288 $298 $299 forward $219 $-1 #
coedge $-1 $223 $221 $228 $267 reversed $179 $-1 #
coedge $-1 $288 $297 $221 $262 reversed $219 $-1 #
edge $-1 $290 0 $300 27 $221 $301 forward 7 unknown #
vertex $-1 $267 $302 #
straight-curve $-1 -2.514599999999999724 0 4.676342009667261657 0 0.2285999999999999699 0 I I #
point $-1 -1.37159999999999993 6.172199999999999243 4.676342009667261657 #
coedge $-1 $303 $228 $297 $304 forward $40 $-1 #
edge $-1 $263 0 $300 8.94427190999915922 $228 $305 forward 7 unknown #
straight-curve $-1 -1.37159999999999993 6.172199999999999243 4.676342009667261657 -0.2285999999999999699 0 0 I I #
coedge $-1 $250 $231 $306 $307 reversed $10 $-1 #
coedge $-1 $308 $309 $231 $271 forward $294 $-1 #
edge $-1 $310 0 $275 5 $231 $311 forward 7 unknown #
coedge $-1 $312 $232 $235 $278 forward $274 $-1 #
coedge $-1 $232 $312 $308 $313 reversed $274 $-1 #
loop $-1 $-1 $272 $293 #
vertex $-1 $271 $314 #
straight-curve $-1 1.37159999999999993 0 4.676342009667261657 0 0 -0.2285999999999999699 I I #
coedge $-1 $235 $234 $315 $316 reversed $236 $-1 #
edge $-1 $237 0 $317 27 $272 $318 forward 7 unknown #
face $-1 $241 $236 $2 $-1 $319 forward single #
point $-1 1.37159999999999993 0 3.761942009667261999 #
coedge $-1 $243 $315 $239 $282 forward $40 $-1 #
edge $-1 $283 0 $245 3.000000000000000444 $281 $320 forward 7 unknown #
vertex $-1 $282 $321 #
straight-curve $-1 2.285999999999999588 0 3.761942009667261999 0 0.2285999999999999699 0 I I #
plane-surface $-1 2.285999999999999588 0 3.761942009667261999 1 0 0 0 0 -0.2285999999999999699 forward_v I I I I #
straight-curve $-1 2.285999999999999588 6.172199999999999243 3.076142009667262034 -0.2285999999999999699 0 0 I I #
point $-1 2.285999999999999588 6.172199999999999243 3.076142009667262034 #
coedge $-1 $259 $261 $250 $289 forward $219 $-1 #
edge $-1 $290 0 $322 6.000000000000000888 $250 $323 forward 7 unknown #
vertex $-1 $252 $324 #
straight-curve $-1 -2.514599999999999724 0 4.676342009667261657 0.2044660558625807367 0 0.1022330279312903406 I I #
point $-1 -2.514599999999999724 0 4.676342009667261657 #
face $-1 $279 $274 $2 $-1 $325 forward single #
loop $-1 $-1 $308 $256 #
plane-surface $-1 2.514599999999999724 0 4.676342009667261657 0 0 -1 -0.2285999999999999699 0 0 forward_v I I I I #
coedge $-1 $326 $306 $309 $327 forward $257 $-1 #
coedge $-1 $261 $259 $266 $304 reversed $219 $-1 #
coedge $-1 $306 $326 $259 $299 reversed $257 $-1 #
edge $-1 $322 0 $328 27 $259 $329 forward 7 unknown #
vertex $-1 $304 $330 #
straight-curve $-1 -0.6857999999999995211 0 5.590742009667261314 0 0.2285999999999999699 0 I I #
point $-1 -2.514599999999999724 6.172199999999999243 4.676342009667261657 #
coedge $-1 $331 $266 $326 $332 forward $40 $-1 #
edge $-1 $300 0 $328 6.000000000000000888 $266 $333 forward 7 unknown #
straight-curve $-1 -2.514599999999999724 6.172199999999999243 4.676342009667261657 0.2044660558625807367 0 0.1022330279312903406 I I #
coedge $-1 $296 $298 $269 $307 forward $257 $-1 #
edge $-1 $322 0 $310 8.94427190999915922 $269 $334 forward 7 unknown #
coedge $-1 $335 $270 $273 $313 forward $294 $-1 #
coedge $-1 $270 $335 $296 $327 reversed $294 $-1 #
vertex $-1 $307 $336 #
straight-curve $-1 2.514599999999999724 0 4.676342009667261657 -0.2285999999999999699 0 0 I I #
coedge $-1 $273 $272 $337 $338 reversed $274 $-1 #
edge $-1 $275 0 $339 27 $308 $340 forward 7 unknown #
point $-1 1.37159999999999993 0 4.676342009667261657 #
coedge $-1 $281 $337 $277 $316 forward $40 $-1 #
edge $-1 $317 0 $283 3.999999999999999112 $315 $341 forward 7 unknown #
vertex $-1 $316 $342 #
straight-curve $-1 1.37159999999999993 0 3.761942009667261999 0 0.2285999999999999699 0 I I #
plane-surface $-1 1.37159999999999993 0 3.761942009667261999 0 0 1 0.2285999999999999699 0 0 forward_v I I I I #
straight-curve $-1 2.285999999999999588 6.172199999999999243 3.761942009667261999 0 0 -0.2285999999999999699 I I #
point $-1 2.285999999999999588 6.172199999999999243 3.761942009667261999 #
vertex $-1 $289 $343 #
straight-curve $-1 -0.6857999999999999652 0 5.590742009667261314 0.2285999999999999699 0 0 I I #
point $-1 -0.6857999999999999652 0 5.590742009667261314 #
plane-surface $-1 1.37159999999999993 0 4.676342009667261657 1 0 0 0 0 -0.2285999999999999699 forward_v I I I I #
coedge $-1 $298 $296 $303 $332 reversed $257 $-1 #
edge $-1 $310 0 $344 27 $296 $345 forward 7 unknown #
vertex $-1 $332 $346 #
straight-curve $-1 0.6857999999999999652 0 5.590742009667261314 0 0.2285999999999999699 0 I I #
point $-1 -0.6857999999999999652 6.172199999999999243 5.590742009667261314 #
coedge $-1 $337 $303 $335 $347 forward $40 $-1 #
edge $-1 $328 0 $344 8.94427190999915922 $303 $348 forward 7 unknown #
straight-curve $-1 -0.6857999999999999652 6.172199999999999243 5.590742009667261314 0.2285999999999999699 0 0 I I #
straight-curve $-1 0.6857999999999999652 0 5.590742009667261314 0.2044660558625807367 0 -0.1022330279312903406 I I #
coedge $-1 $309 $308 $331 $347 reversed $294 $-1 #
point $-1 2.514599999999999724 0 4.676342009667261657 #
coedge $-1 $315 $331 $312 $338 forward $40 $-1 #
edge $-1 $339 0 $317 3.999999999999999112 $337 $349 forward 7 unknown #
vertex $-1 $338 $350 #
straight-curve $-1 1.37159999999999993 0 4.676342009667261657 0 0.2285999999999999699 0 I I #
straight-curve $-1 1.37159999999999993 6.172199999999999243 3.761942009667261999 0.2285999999999999699 0 0 I I #
point $-1 1.37159999999999993 6.172199999999999243 3.761942009667261999 #
point $-1 0.6857999999999999652 0 5.590742009667261314 #
vertex $-1 $347 $351 #
straight-curve $-1 2.514600000000000168 0 4.676342009667261657 0 0.2285999999999999699 0 I I #
point $-1 0.6857999999999999652 6.172199999999999243 5.590742009667261314 #
edge $-1 $344 0 $339 5 $331 $352 forward 7 unknown #
straight-curve $-1 0.6857999999999999652 6.172199999999999243 5.590742009667261314 0.2044660558625807367 0 -0.1022330279312903406 I I #
straight-curve $-1 1.37159999999999993 6.172199999999999243 4.676342009667261657 0 0 -0.2285999999999999699 I I #
point $-1 1.37159999999999993 6.172199999999999243 4.676342009667261657 #
point $-1 2.514599999999999724 6.172199999999999243 4.676342009667261657 #
straight-curve $-1 2.514599999999999724 6.172199999999999243 4.676342009667261657 -0.2285999999999999699 0 0 I I #
End-of-ACIS-data 