700 0 2 0           
24 FBMach with ACIS - 7.0.3 13 ACIS 7.0.3 NT 24 Wed May 15 23:15:50 2002 
1 9.9999999999999995e-007 1e-010 
body $2 -1 $-1 $3 $-1 $4 #
bdycol-kcp $-1 -1 1 2 $5 $6 #
model_id-kcp-attrib $-1 -1 $-1 $-1 $0 1 1021518949 1021518949 947781633 1 #
lump $-1 -1 $-1 $-1 $7 $0 #
transform $-1 -1 1 0 0 0 1 0 0 0 1 0 0 0 1 rotate no_reflect no_shear #
body $8 -1 $-1 $9 $-1 $10 #
body $11 -1 $-1 $12 $-1 $13 #
shell $-1 -1 $-1 $-1 $-1 $14 $-1 $3 #
model_id-kcp-attrib $-1 -1 $-1 $-1 $5 1 1021518949 1021518949 947781634 1 #
lump $-1 -1 $-1 $-1 $15 $5 #
transform $-1 -1 1 0 0 0 1 0 0 0 1 0 2.8574999999999995 0 1 no_rotate no_reflect no_shear #
rgb_color-st-attrib $-1 -1 $16 $-1 $6 1 0.5 1 #
lump $-1 -1 $-1 $-1 $17 $6 #
transform $-1 -1 1 0 0 0 1 0 0 0 1 0 2.8574999999999995 0 1 no_rotate no_reflect no_shear #
face $18 -1 $-1 $19 $20 $7 $-1 $21 reversed single #
shell $-1 -1 $-1 $-1 $-1 $22 $-1 $9 #
model_id-kcp-attrib $-1 -1 $-1 $11 $6 1 1021518949 1021518950 944439299 1 #
shell $-1 -1 $-1 $-1 $-1 $23 $-1 $12 #
model_id-kcp-attrib $-1 -1 $-1 $-1 $14 1 1021518949 1021518949 947781633 2 #
face $24 -1 $-1 $25 $26 $7 $-1 $27 forward single #
loop $-1 -1 $-1 $-1 $28 $14 #
plane-surface $-1 -1 $-1 0 0 0 0 1 0 0.7619999999999999 0 0 forward_v I I I I #
face $29 -1 $-1 $30 $31 $15 $-1 $32 forward single #
face $-1 -1 $-1 $33 $34 $17 $-1 $35 forward single #
model_id-kcp-attrib $-1 -1 $-1 $-1 $19 1 1021518949 1021518949 947781633 3 #
face $36 -1 $-1 $37 $38 $7 $-1 $39 forward single #
loop $-1 -1 $-1 $-1 $40 $19 #
plane-surface $-1 -1 $-1 4.9529999999999994 0 -4.9529999999999994 0 0 -1 -0.7619999999999999 0 0 forward_v I I I I #
coedge $-1 -1 $-1 $41 $42 $43 $44 reversed $20 $-1 #
model_id-kcp-attrib $-1 -1 $-1 $-1 $22 1 1021518949 1021518949 947781634 5 #
face $45 -1 $-1 $46 $47 $15 $-1 $48 reversed single #
loop $-1 -1 $-1 $-1 $49 $22 #
plane-surface $-1 -1 $-1 0 0 4.9529999999999994 0 0 1 1 0 0 forward_v I I I I #
face $-1 -1 $-1 $50 $51 $17 $-1 $52 forward single #
loop $-1 -1 $-1 $53 $54 $23 #
cone-surface $-1 -1 $-1 0 -2.4764999999999997 0 0 1 0 3.8099999999999996 0 0 1 I I 0 -1 3.8099999999999996 forward I I I I #
model_id-kcp-attrib $-1 -1 $-1 $-1 $25 1 1021518949 1021518949 947781633 4 #
face $55 -1 $-1 $56 $57 $7 $-1 $58 forward single #
loop $-1 -1 $-1 $-1 $59 $25 #
plane-surface $-1 -1 $-1 -4.9529999999999994 0 -4.9529999999999994 -1 0 0 0 0 0.7619999999999999 forward_v I I I I #
coedge $-1 -1 $-1 $60 $43 $61 $62 forward $26 $-1 #
coedge $-1 -1 $-1 $63 $28 $64 $65 reversed $20 $-1 #
coedge $-1 -1 $-1 $28 $63 $66 $67 reversed $20 $-1 #
coedge $-1 -1 $-1 $40 $68 $28 $44 forward $26 $-1 #
edge $69 -1 $-1 $70 0 $71 13 $28 $72 forward @7 unknown #
model_id-kcp-attrib $-1 -1 $-1 $-1 $30 1 1021518949 1021518949 947781634 3 #
face $73 -1 $-1 $74 $75 $15 $-1 $76 reversed single #
loop $-1 -1 $-1 $-1 $77 $30 #
plane-surface $-1 -1 $-1 0 0 -4.9529999999999994 0 0 1 1 0 0 forward_v I I I I #
coedge $-1 -1 $-1 $78 $79 $80 $81 forward $31 $-1 #
face $-1 -1 $-1 $82 $83 $17 $-1 $84 forward single #
loop $-1 -1 $-1 $-1 $85 $33 #
plane-surface $-1 -1 $-1 4.9529999999999994 -2.4764999999999997 -4.9529999999999994 1 0 0 0 0 -1 forward_v I I I I #
loop $-1 -1 $-1 $-1 $86 $23 #
coedge $-1 -1 $-1 $54 $54 $87 $88 forward $34 $-1 #
model_id-kcp-attrib $-1 -1 $-1 $-1 $37 1 1021518949 1021518949 947781633 5 #
face $89 -1 $-1 $90 $91 $7 $-1 $92 forward single #
loop $-1 -1 $-1 $-1 $93 $37 #
plane-surface $-1 -1 $-1 -4.9529999999999994 0 4.9529999999999994 0 0 1 0.7619999999999999 0 0 forward_v I I I I #
coedge $-1 -1 $-1 $94 $66 $95 $96 forward $38 $-1 #
coedge $-1 -1 $-1 $68 $40 $97 $98 reversed $26 $-1 #
coedge $-1 -1 $-1 $66 $94 $40 $62 reversed $38 $-1 #
edge $99 -1 $-1 $71 0 $100 0.5 $61 $101 forward @7 unknown #
coedge $-1 -1 $-1 $42 $41 $102 $103 reversed $20 $-1 #
coedge $-1 -1 $-1 $104 $105 $41 $65 forward $91 $-1 #
edge $106 -1 $-1 $107 0 $70 13 $41 $108 forward @7 unknown #
coedge $-1 -1 $-1 $59 $61 $42 $67 forward $38 $-1 #
edge $109 -1 $-1 $71 0 $110 13 $42 $111 forward @7 unknown #
coedge $-1 -1 $-1 $43 $60 $104 $112 reversed $26 $-1 #
attrib_edge_convexity-kcp-attrib $-1 -1 $113 $-1 $44 1 #
vertex $-1 -1 $-1 $65 $114 #
vertex $-1 -1 $-1 $67 $115 #
straight-curve $-1 -1 $-1 4.9529999999999994 0 -4.9529999999999994 -0.7619999999999999 0 0 I I #
model_id-kcp-attrib $-1 -1 $-1 $-1 $46 1 1021518949 1021518949 947781634 2 #
face $116 -1 $-1 $117 $118 $15 $-1 $119 reversed single #
loop $-1 -1 $-1 $-1 $120 $46 #
plane-surface $-1 -1 $-1 0 -2.8574999999999995 0 0 1 0 0 0 1 forward_v I I I I #
coedge $-1 -1 $-1 $121 $122 $123 $124 forward $47 $-1 #
coedge $-1 -1 $-1 $125 $49 $126 $127 forward $31 $-1 #
coedge $-1 -1 $-1 $49 $125 $128 $129 forward $31 $-1 #
coedge $-1 -1 $-1 $130 $131 $49 $81 reversed $132 $-1 #
edge $-1 -1 $-1 $133 -2.8574999999999995 $134 2.8574999999999995 $80 $135 forward @7 unknown #
face $-1 -1 $-1 $136 $137 $17 $-1 $138 forward single #
loop $-1 -1 $-1 $-1 $139 $50 #
plane-surface $-1 -1 $-1 4.9529999999999994 -2.4764999999999997 4.9529999999999994 0 0 1 1 0 0 forward_v I I I I #
coedge $-1 -1 $-1 $140 $141 $142 $143 forward $51 $-1 #
coedge $-1 -1 $-1 $86 $86 $144 $145 reversed $53 $-1 #
coedge $-1 -1 $-1 $87 $87 $54 $88 reversed $146 $-1 #
edge $-1 -1 $-1 $147 -3.1415926535897931 $147 3.1415926535897931 $54 $148 forward @7 unknown #
model_id-kcp-attrib $-1 -1 $-1 $-1 $56 1 1021518949 1021518949 947781633 6 #
face $149 -1 $-1 $150 $151 $7 $-1 $152 forward single #
loop $-1 -1 $-1 $-1 $104 $56 #
plane-surface $-1 -1 $-1 4.9529999999999994 0 4.9529999999999994 1 0 0 0 0 -0.7619999999999999 forward_v I I I I #
coedge $-1 -1 $-1 $153 $102 $105 $154 forward $57 $-1 #
coedge $-1 -1 $-1 $61 $59 $155 $156 reversed $38 $-1 #
coedge $-1 -1 $-1 $102 $153 $59 $96 reversed $57 $-1 #
edge $157 -1 $-1 $110 0 $158 0.5 $59 $159 forward @7 unknown #
coedge $-1 -1 $-1 $155 $160 $60 $98 forward $151 $-1 #
edge $161 -1 $-1 $162 0 $100 13 $97 $163 forward @7 unknown #
attrib_edge_convexity-kcp-attrib $-1 -1 $164 $-1 $62 1 #
vertex $-1 -1 $-1 $156 $165 #
straight-curve $-1 -1 $-1 -4.9529999999999994 0 -4.9529999999999994 0 0.7619999999999999 0 I I #
coedge $-1 -1 $-1 $93 $95 $63 $103 forward $57 $-1 #
edge $166 -1 $-1 $110 0 $107 13 $63 $167 forward @7 unknown #
coedge $-1 -1 $-1 $168 $64 $68 $112 forward $91 $-1 #
coedge $-1 -1 $-1 $64 $168 $93 $154 reversed $91 $-1 #
attrib_edge_convexity-kcp-attrib $-1 -1 $169 $-1 $65 1 #
vertex $-1 -1 $-1 $103 $170 #
straight-curve $-1 -1 $-1 4.9529999999999994 0 4.9529999999999994 0 0 -0.7619999999999999 I I #
attrib_edge_convexity-kcp-attrib $-1 -1 $171 $-1 $67 1 #
vertex $-1 -1 $-1 $67 $172 #
straight-curve $-1 -1 $-1 -4.9529999999999994 0 -4.9529999999999994 0 0 0.7619999999999999 I I #
edge $173 -1 $-1 $70 0 $162 0.5 $104 $174 forward @7 unknown #
convexity-sys-attrib $-1 -1 $-1 $69 $44 #
point $-1 -1 $-1 4.9529999999999994 0 -4.9529999999999994 #
point $-1 -1 $-1 -4.9529999999999994 0 -4.9529999999999994 #
model_id-kcp-attrib $-1 -1 $-1 $-1 $74 1 1021518949 1021518949 947781634 4 #
face $175 -1 $-1 $176 $177 $15 $-1 $178 reversed single #
loop $-1 -1 $-1 $-1 $179 $74 #
plane-surface $-1 -1 $-1 -4.9529999999999994 0 0 1 0 0 0 0 -1 forward_v I I I I #
coedge $-1 -1 $-1 $180 $128 $181 $182 forward $75 $-1 #
coedge $-1 -1 $-1 $183 $77 $180 $184 forward $47 $-1 #
coedge $-1 -1 $-1 $77 $183 $185 $186 forward $47 $-1 #
coedge $-1 -1 $-1 $131 $130 $77 $124 reversed $132 $-1 #
edge $-1 -1 $-1 $187 -2.8574999999999995 $188 2.8574999999999995 $123 $189 forward @7 unknown #
coedge $-1 -1 $-1 $79 $78 $190 $191 forward $31 $-1 #
coedge $-1 -1 $-1 $192 $193 $78 $127 reversed $177 $-1 #
edge $-1 -1 $-1 $134 -4.9529999999999994 $194 4.9529999999999994 $126 $195 forward @7 unknown #
coedge $-1 -1 $-1 $120 $196 $79 $129 reversed $75 $-1 #
edge $-1 -1 $-1 $197 -4.9529999999999994 $133 4.9529999999999994 $128 $198 forward @7 unknown #
coedge $-1 -1 $-1 $123 $80 $196 $199 forward $132 $-1 #
coedge $-1 -1 $-1 $80 $123 $192 $200 reversed $132 $-1 #
loop $-1 -1 $-1 $-1 $130 $176 #
vertex $-1 -1 $-1 $81 $201 #
vertex $-1 -1 $-1 $81 $202 #
straight-curve $-1 -1 $-1 4.9529999999999994 0 4.9529999999999994 0 1 0 I I #
face $-1 -1 $-1 $203 $204 $17 $-1 $205 forward single #
loop $-1 -1 $-1 $-1 $206 $82 #
plane-surface $-1 -1 $-1 -4.9529999999999994 -2.4764999999999997 4.9529999999999994 -1 0 0 0 0 1 forward_v I I I I #
coedge $-1 -1 $-1 $207 $208 $209 $210 forward $83 $-1 #
coedge $-1 -1 $-1 $211 $85 $208 $212 reversed $51 $-1 #
coedge $-1 -1 $-1 $85 $211 $213 $214 forward $51 $-1 #
coedge $-1 -1 $-1 $215 $209 $85 $143 reversed $216 $-1 #
edge $-1 -1 $-1 $217 -4.9529999999999994 $218 4.9529999999999994 $85 $219 forward @7 unknown #
coedge $-1 -1 $-1 $144 $144 $86 $145 forward $220 $-1 #
edge $221 -1 $-1 $222 0 $222 6.2831853071795862 $86 $223 forward @7 unknown #
loop $-1 -1 $-1 $-1 $87 $203 #
vertex $-1 -1 $-1 $88 $224 #
ellipse-curve $-1 -1 $-1 0 2.8574999999999982 0 0 1 0 3.8099999999999996 0 0 1 I I #
model_id-kcp-attrib $-1 -1 $-1 $-1 $90 1 1021518949 1021518949 947781633 7 #
face $225 -1 $-1 $226 $227 $7 $-1 $228 forward single #
loop $-1 -1 $-1 $229 $230 $90 #
plane-surface $-1 -1 $-1 0 0.38099999999999995 0 0 1 0 0.7619999999999999 0 0 forward_v I I I I #
coedge $-1 -1 $-1 $95 $93 $230 $231 reversed $57 $-1 #
edge $-1 -1 $-1 $107 0 $232 0.5 $93 $233 forward @7 unknown #
coedge $-1 -1 $-1 $230 $97 $94 $156 forward $151 $-1 #
edge $234 -1 $-1 $100 0 $158 13 $155 $235 forward @7 unknown #
attrib_edge_convexity-kcp-attrib $-1 -1 $236 $-1 $96 1 #
vertex $-1 -1 $-1 $156 $237 #
straight-curve $-1 -1 $-1 -4.9529999999999994 0 4.9529999999999994 0 0.7619999999999999 0 I I #
coedge $-1 -1 $-1 $97 $230 $168 $238 forward $151 $-1 #
attrib_edge_convexity-kcp-attrib $-1 -1 $239 $-1 $98 1 #
vertex $-1 -1 $-1 $98 $240 #
straight-curve $-1 -1 $-1 4.9529999999999994 0.38099999999999995 -4.9529999999999994 -0.7619999999999999 0 0 I I #
convexity-sys-attrib $-1 -1 $-1 $99 $62 #
point $-1 -1 $-1 -4.9529999999999994 0.38099999999999995 -4.9529999999999994 #
attrib_edge_convexity-kcp-attrib $-1 -1 $241 $-1 $103 1 #
straight-curve $-1 -1 $-1 -4.9529999999999994 0 4.9529999999999994 0.7619999999999999 0 0 I I #
coedge $-1 -1 $-1 $105 $104 $160 $238 reversed $91 $-1 #
convexity-sys-attrib $-1 -1 $-1 $106 $65 #
point $-1 -1 $-1 4.9529999999999994 0 4.9529999999999994 #
convexity-sys-attrib $-1 -1 $-1 $109 $67 #
point $-1 -1 $-1 -4.9529999999999994 0 4.9529999999999994 #
attrib_edge_convexity-kcp-attrib $-1 -1 $242 $-1 $112 1 #
straight-curve $-1 -1 $-1 4.9529999999999994 0 -4.9529999999999994 0 0.7619999999999999 0 I I #
model_id-kcp-attrib $-1 -1 $-1 $-1 $117 1 1021518949 1021518949 947781634 7 #
face $243 -1 $-1 $-1 $132 $15 $-1 $244 reversed single #
loop $-1 -1 $-1 $-1 $192 $117 #
plane-surface $-1 -1 $-1 0 2.8574999999999995 0 0 -1 0 0 0 -1 forward_v I I I I #
coedge $-1 -1 $-1 $245 $190 $193 $246 forward $118 $-1 #
coedge $-1 -1 $-1 $196 $120 $121 $184 reversed $75 $-1 #
coedge $-1 -1 $-1 $190 $245 $120 $182 reversed $118 $-1 #
edge $-1 -1 $-1 $197 -4.9529999999999994 $247 4.9529999999999994 $181 $248 forward @7 unknown #
coedge $-1 -1 $-1 $122 $121 $245 $249 forward $47 $-1 #
edge $-1 -1 $-1 $188 -4.9529999999999994 $247 4.9529999999999994 $180 $250 forward @7 unknown #
coedge $-1 -1 $-1 $193 $192 $122 $186 reversed $177 $-1 #
edge $-1 -1 $-1 $251 -4.9529999999999994 $187 4.9529999999999994 $185 $252 forward @7 unknown #
vertex $-1 -1 $-1 $124 $253 #
vertex $-1 -1 $-1 $199 $254 #
straight-curve $-1 -1 $-1 4.9529999999999994 0 -4.9529999999999994 0 -1 0 I I #
coedge $-1 -1 $-1 $179 $181 $125 $191 reversed $118 $-1 #
edge $-1 -1 $-1 $194 -2.8574999999999995 $197 2.8574999999999995 $190 $255 forward @7 unknown #
coedge $-1 -1 $-1 $185 $126 $131 $200 forward $177 $-1 #
coedge $-1 -1 $-1 $126 $185 $179 $246 reversed $177 $-1 #
vertex $-1 -1 $-1 $127 $256 #
straight-curve $-1 -1 $-1 0 2.8574999999999995 4.9529999999999994 -1 0 0 I I #
coedge $-1 -1 $-1 $128 $180 $130 $199 reversed $75 $-1 #
vertex $-1 -1 $-1 $191 $257 #
straight-curve $-1 -1 $-1 0 -2.8574999999999995 4.9529999999999994 1 0 0 I I #
edge $-1 -1 $-1 $133 -4.9529999999999994 $188 4.9529999999999994 $130 $258 forward @7 unknown #
edge $-1 -1 $-1 $134 -4.9529999999999994 $187 4.9529999999999994 $131 $259 forward @7 unknown #
point $-1 -1 $-1 4.9529999999999994 -2.8574999999999995 4.9529999999999994 #
point $-1 -1 $-1 4.9529999999999994 2.8574999999999995 4.9529999999999994 #
face $-1 -1 $-1 $260 $216 $17 $-1 $261 forward single #
loop $-1 -1 $-1 $-1 $262 $136 #
plane-surface $-1 -1 $-1 -4.9529999999999994 -2.4764999999999997 -4.9529999999999994 0 0 -1 -1 0 0 forward_v I I I I #
coedge $-1 -1 $-1 $263 $264 $265 $266 forward $137 $-1 #
coedge $-1 -1 $-1 $267 $139 $264 $268 reversed $83 $-1 #
coedge $-1 -1 $-1 $139 $267 $140 $212 forward $83 $-1 #
coedge $-1 -1 $-1 $142 $265 $139 $210 reversed $216 $-1 #
edge $-1 -1 $-1 $218 -4.9529999999999994 $269 4.9529999999999994 $139 $270 forward @7 unknown #
coedge $-1 -1 $-1 $141 $140 $271 $272 reversed $51 $-1 #
edge $-1 -1 $-1 $273 0 $218 5.3339999999999979 $208 $274 forward @7 unknown #
coedge $-1 -1 $-1 $275 $262 $141 $214 reversed $204 $-1 #
edge $-1 -1 $-1 $276 0 $217 5.3339999999999979 $141 $277 forward @7 unknown #
coedge $-1 -1 $-1 $265 $142 $262 $278 reversed $216 $-1 #
loop $-1 -1 $-1 $146 $142 $203 #
vertex $-1 -1 $-1 $214 $279 #
vertex $-1 -1 $-1 $212 $280 #
straight-curve $-1 -1 $-1 4.9529999999999994 2.8574999999999982 0 0 0 1 I I #
loop $-1 -1 $-1 $-1 $144 $260 #
convexity-sys-attrib $-1 -1 $-1 $-1 $145 #
vertex $-1 -1 $-1 $145 $281 #
ellipse-curve $-1 -1 $-1 0 -2.4764999999999997 0 0 1 0 3.8099999999999996 0 0 1 I I #
point $-1 -1 $-1 -3.8099999999999996 2.8574999999999986 0 #
model_id-kcp-attrib $-1 -1 $-1 $-1 $150 1 1021518949 1021518949 947781633 8 #
face $282 -1 $-1 $283 $284 $7 $-1 $285 forward single #
loop $-1 -1 $-1 $-1 $286 $150 #
cone-surface $-1 -1 $-1 0 0 0 0 1 0 3.8099999999999996 0 0 1 I I 0 1 3.8099999999999996 forward I I I I #
loop $-1 -1 $-1 $-1 $287 $90 #
coedge $-1 -1 $-1 $160 $155 $153 $231 forward $151 $-1 #
edge $288 -1 $-1 $158 0 $232 13 $230 $289 forward @7 unknown #
vertex $-1 -1 $-1 $238 $290 #
straight-curve $-1 -1 $-1 4.9529999999999994 0 4.9529999999999994 0 0.7619999999999999 0 I I #
attrib_edge_convexity-kcp-attrib $-1 -1 $291 $-1 $156 1 #
straight-curve $-1 -1 $-1 -4.9529999999999994 0.38099999999999995 -4.9529999999999994 0 0 0.7619999999999999 I I #
convexity-sys-attrib $-1 -1 $-1 $157 $96 #
point $-1 -1 $-1 -4.9529999999999994 0.38099999999999995 4.9529999999999994 #
edge $292 -1 $-1 $232 0 $162 13 $160 $293 forward @7 unknown #
convexity-sys-attrib $-1 -1 $-1 $161 $98 #
point $-1 -1 $-1 4.9529999999999994 0.38099999999999995 -4.9529999999999994 #
convexity-sys-attrib $-1 -1 $-1 $166 $103 #
convexity-sys-attrib $-1 -1 $-1 $173 $112 #
model_id-kcp-attrib $-1 -1 $-1 $-1 $176 1 1021518949 1021518949 947781634 6 #
plane-surface $-1 -1 $-1 4.9529999999999994 0 0 -1 0 0 0 0 1 forward_v I I I I #
coedge $-1 -1 $-1 $181 $179 $183 $249 reversed $118 $-1 #
edge $-1 -1 $-1 $194 -4.9529999999999994 $251 4.9529999999999994 $193 $294 forward @7 unknown #
vertex $-1 -1 $-1 $249 $295 #
straight-curve $-1 -1 $-1 -4.9529999999999994 -2.8574999999999995 0 0 0 -1 I I #
edge $-1 -1 $-1 $247 -2.8574999999999995 $251 2.8574999999999995 $245 $296 forward @7 unknown #
straight-curve $-1 -1 $-1 0 -2.8574999999999995 -4.9529999999999994 -1 0 0 I I #
vertex $-1 -1 $-1 $186 $297 #
straight-curve $-1 -1 $-1 0 2.8574999999999995 -4.9529999999999994 1 0 0 I I #
point $-1 -1 $-1 4.9529999999999994 2.8574999999999995 -4.9529999999999994 #
point $-1 -1 $-1 4.9529999999999994 -2.8574999999999995 -4.9529999999999994 #
straight-curve $-1 -1 $-1 -4.9529999999999994 0 4.9529999999999994 0 -1 0 I I #
point $-1 -1 $-1 -4.9529999999999994 2.8574999999999995 4.9529999999999994 #
point $-1 -1 $-1 -4.9529999999999994 -2.8574999999999995 4.9529999999999994 #
straight-curve $-1 -1 $-1 4.9529999999999994 -2.8574999999999995 0 0 0 -1 I I #
straight-curve $-1 -1 $-1 4.9529999999999994 2.8574999999999995 0 0 0 -1 I I #
face $-1 -1 $-1 $-1 $298 $17 $-1 $299 reversed single #
plane-surface $-1 -1 $-1 4.5614160393406388e-017 2.8574999999999977 5.5511151231257827e-017 3.9314085174186859e-033 1 3.5628389689106836e-033 0 -3.5628389689106836e-033 1 forward_v I I I I #
coedge $-1 -1 $-1 $213 $300 $215 $278 forward $204 $-1 #
coedge $-1 -1 $-1 $301 $206 $300 $302 reversed $137 $-1 #
coedge $-1 -1 $-1 $206 $301 $207 $268 forward $137 $-1 #
coedge $-1 -1 $-1 $209 $215 $206 $266 reversed $216 $-1 #
edge $-1 -1 $-1 $269 -4.9529999999999994 $303 4.9529999999999994 $206 $304 forward @7 unknown #
coedge $-1 -1 $-1 $208 $207 $305 $306 reversed $83 $-1 #
edge $-1 -1 $-1 $307 0 $269 5.3339999999999979 $264 $308 forward @7 unknown #
vertex $-1 -1 $-1 $268 $309 #
straight-curve $-1 -1 $-1 0 2.8574999999999982 4.9529999999999994 -1 0 0 I I #
coedge $-1 -1 $-1 $305 $310 $211 $272 forward $298 $-1 #
edge $311 -1 $-1 $276 -4.9529999999999994 $273 4.9529999999999994 $211 $312 forward @7 unknown #
vertex $-1 -1 $-1 $272 $313 #
straight-curve $-1 -1 $-1 4.9529999999999994 -2.4764999999999997 4.9529999999999994 0 1 0 I I #
coedge $-1 -1 $-1 $300 $213 $310 $314 reversed $204 $-1 #
vertex $-1 -1 $-1 $314 $315 #
straight-curve $-1 -1 $-1 4.9529999999999994 -2.4764999999999997 -4.9529999999999994 0 1 0 I I #
edge $-1 -1 $-1 $303 -4.9529999999999994 $217 4.9529999999999994 $262 $316 forward @7 unknown #
point $-1 -1 $-1 4.9529999999999994 2.8574999999999986 -4.9529999999999994 #
point $-1 -1 $-1 4.9529999999999994 2.8574999999999986 4.9529999999999994 #
point $-1 -1 $-1 3.8099999999999996 -2.4764999999999997 0 #
model_id-kcp-attrib $-1 -1 $-1 $-1 $226 1 1021518949 1021518949 947781633 9 #
face $317 -1 $-1 $-1 $318 $7 $-1 $319 forward single #
loop $-1 -1 $-1 $-1 $320 $226 #
cone-surface $-1 -1 $-1 0 0 0 0 1 0 3.8099999999999996 0 0 1 I I 0 1 3.8099999999999996 forward I I I I #
coedge $-1 -1 $-1 $321 $322 $323 $324 forward $227 $-1 #
coedge $-1 -1 $-1 $325 $325 $322 $326 reversed $229 $-1 #
attrib_edge_convexity-kcp-attrib $-1 -1 $327 $-1 $231 1 #
straight-curve $-1 -1 $-1 -4.9529999999999994 0.38099999999999995 4.9529999999999994 0.7619999999999999 0 0 I I #
point $-1 -1 $-1 4.9529999999999994 0.38099999999999995 4.9529999999999994 #
convexity-sys-attrib $-1 -1 $-1 $234 $156 #
attrib_edge_convexity-kcp-attrib $-1 -1 $328 $-1 $238 1 #
straight-curve $-1 -1 $-1 4.9529999999999994 0.38099999999999995 4.9529999999999994 0 0 -0.7619999999999999 I I #
straight-curve $-1 -1 $-1 -4.9529999999999994 2.8574999999999995 0 0 0 -1 I I #
point $-1 -1 $-1 -4.9529999999999994 -2.8574999999999995 -4.9529999999999994 #
straight-curve $-1 -1 $-1 -4.9529999999999994 0 -4.9529999999999994 0 1 0 I I #
point $-1 -1 $-1 -4.9529999999999994 2.8574999999999995 -4.9529999999999994 #
loop $-1 -1 $-1 $220 $310 $260 #
plane-surface $-1 -1 $-1 4.5614160393406388e-017 -2.4765000000000001 5.5511151231257827e-017 3.9314085174186859e-033 1 3.5628389689106836e-033 0 -3.5628389689106836e-033 1 forward_v I I I I #
coedge $-1 -1 $-1 $262 $275 $263 $302 forward $204 $-1 #
coedge $-1 -1 $-1 $264 $263 $329 $330 reversed $137 $-1 #
edge $-1 -1 $-1 $331 0 $303 5.3339999999999979 $300 $332 forward @7 unknown #
vertex $-1 -1 $-1 $302 $333 #
straight-curve $-1 -1 $-1 -4.9529999999999994 2.8574999999999982 0 0 0 -1 I I #
coedge $-1 -1 $-1 $329 $271 $267 $306 forward $298 $-1 #
edge $334 -1 $-1 $273 -4.9529999999999994 $307 4.9529999999999994 $267 $335 forward @7 unknown #
vertex $-1 -1 $-1 $306 $336 #
straight-curve $-1 -1 $-1 -4.9529999999999994 -2.4764999999999997 4.9529999999999994 0 1 0 I I #
point $-1 -1 $-1 -4.9529999999999994 2.8574999999999986 4.9529999999999994 #
coedge $-1 -1 $-1 $271 $329 $275 $314 forward $298 $-1 #
convexity-sys-attrib $-1 -1 $-1 $-1 $272 #
straight-curve $-1 -1 $-1 4.9529999999999994 -2.4764999999999997 0 0 0 1 I I #
point $-1 -1 $-1 4.9529999999999994 -2.4764999999999997 4.9529999999999994 #
edge $337 -1 $-1 $331 -4.9529999999999994 $276 4.9529999999999994 $275 $338 forward @7 unknown #
point $-1 -1 $-1 4.9529999999999994 -2.4764999999999997 -4.9529999999999994 #
straight-curve $-1 -1 $-1 0 2.8574999999999982 -4.9529999999999994 1 0 0 I I #
model_id-kcp-attrib $-1 -1 $-1 $-1 $283 1 1021518949 1021518949 947781633 10 #
loop $-1 -1 $-1 $-1 $339 $283 #
plane-surface $-1 -1 $-1 0 5.714999999999999 0 0 1 0 0.7619999999999999 0 0 forward_v I I I I #
coedge $-1 -1 $-1 $340 $341 $342 $343 forward $284 $-1 #
coedge $-1 -1 $-1 $342 $286 $339 $344 reversed $227 $-1 #
coedge $-1 -1 $-1 $286 $342 $287 $326 forward $227 $-1 #
coedge $-1 -1 $-1 $341 $340 $286 $324 reversed $284 $-1 #
edge $-1 -1 $-1 $345 0 $346 6.9999999999999991 $323 $347 forward @7 unknown #
coedge $-1 -1 $-1 $287 $287 $341 $348 reversed $229 $-1 #
edge $349 -1 $-1 $350 0 $345 3.1415926535897931 $322 $351 forward @7 unknown #
convexity-sys-attrib $-1 -1 $-1 $288 $231 #
convexity-sys-attrib $-1 -1 $-1 $292 $238 #
coedge $-1 -1 $-1 $310 $305 $301 $330 forward $298 $-1 #
edge $352 -1 $-1 $307 -4.9529999999999994 $331 4.9529999999999994 $301 $353 forward @7 unknown #
vertex $-1 -1 $-1 $314 $354 #
straight-curve $-1 -1 $-1 -4.9529999999999994 -2.4764999999999997 -4.9529999999999994 0 1 0 I I #
point $-1 -1 $-1 -4.9529999999999994 2.8574999999999986 -4.9529999999999994 #
convexity-sys-attrib $-1 -1 $-1 $-1 $306 #
straight-curve $-1 -1 $-1 0 -2.4764999999999997 4.9529999999999994 -1 0 0 I I #
point $-1 -1 $-1 -4.9529999999999994 -2.4764999999999997 4.9529999999999994 #
convexity-sys-attrib $-1 -1 $-1 $-1 $314 #
straight-curve $-1 -1 $-1 0 -2.4764999999999997 -4.9529999999999994 1 0 0 I I #
coedge $-1 -1 $-1 $355 $355 $321 $344 forward $318 $-1 #
coedge $-1 -1 $-1 $323 $320 $355 $356 reversed $284 $-1 #
coedge $-1 -1 $-1 $320 $323 $325 $348 forward $284 $-1 #
coedge $-1 -1 $-1 $322 $321 $320 $343 reversed $227 $-1 #
edge $-1 -1 $-1 $350 0 $357 6.9999999999999991 $320 $358 forward @7 unknown #
edge $-1 -1 $-1 $357 0 $346 3.1415926535897931 $339 $359 forward @7 unknown #
vertex $-1 -1 $-1 $348 $360 #
vertex $-1 -1 $-1 $356 $361 #
straight-curve $-1 -1 $-1 3.8099999999999996 0.38099999999999995 0 0 0.7619999999999999 0 I I #
edge $362 -1 $-1 $345 0 $350 3.1415926535897931 $341 $363 forward @7 unknown #
attrib_edge_convexity-kcp-attrib $-1 -1 $364 $-1 $326 2 #
vertex $-1 -1 $-1 $348 $365 #
ellipse-curve $-1 -1 $-1 -1.6919798895287383e-016 0.38099999999999995 0 0 1 0 -3.8099999999999996 0 0 1 I I #
convexity-sys-attrib $-1 -1 $-1 $-1 $330 #
straight-curve $-1 -1 $-1 -4.9529999999999994 -2.4764999999999997 0 0 0 -1 I I #
point $-1 -1 $-1 -4.9529999999999994 -2.4764999999999997 -4.9529999999999994 #
coedge $-1 -1 $-1 $339 $339 $340 $356 forward $318 $-1 #
edge $-1 -1 $-1 $346 0 $357 3.1415926535897931 $355 $366 forward @7 unknown #
vertex $-1 -1 $-1 $356 $367 #
straight-curve $-1 -1 $-1 -3.8099999999999996 0.38099999999999995 -4.6657502080632568e-016 0 0.7619999999999999 0 I I #
ellipse-curve $-1 -1 $-1 0 5.714999999999999 0 0 1 0 -3.8099999999999996 0 0 1 I I #
point $-1 -1 $-1 3.8099999999999996 0.38099999999999995 0 #
point $-1 -1 $-1 3.8099999999999996 5.714999999999999 0 #
attrib_edge_convexity-kcp-attrib $-1 -1 $368 $-1 $348 2 #
ellipse-curve $-1 -1 $-1 -5.0759396685862148e-016 0.38099999999999995 1.6919798895287383e-016 0 1 0 3.8100000000000001 0 -1.6919798895287383e-016 1 I I #
convexity-sys-attrib $-1 -1 $-1 $349 $326 #
point $-1 -1 $-1 -3.8099999999999996 0.38099999999999995 0 #
ellipse-curve $-1 -1 $-1 0 5.714999999999999 0 0 1 0 3.8099999999999996 0 0 1 I I #
point $-1 -1 $-1 -3.8099999999999996 5.714999999999999 0 #
convexity-sys-attrib $-1 -1 $-1 $362 $348 #
End-of-ACIS-data 