600 0 1 0           
96 GICL ACIS Healer - Source: /gicl/data5/repository/PTC/V18/cabecad18/ptc_comp/conn1.prt.sat - 6 0 18 ACIS 6.0.3 Solaris 24 Sat Apr 13 22:26:22 2002 
1 9.999999999999999547e-07 1.000000000000000036e-10 
body $-1 $1 $-1 $-1 #
lump $-1 $-1 $2 $0 #
shell $-1 $-1 $-1 $3 $-1 $1 #
face $-1 $4 $5 $2 $-1 $6 reversed single #
face $-1 $7 $8 $2 $-1 $9 forward single #
loop $-1 $-1 $10 $3 #
plane-surface $-1 0 0 0 0 1 0 0.7619999999999998996 0 0 forward_v I I I I #
face $-1 $11 $12 $2 $-1 $13 forward single #
loop $-1 $-1 $14 $4 #
plane-surface $-1 4.952999999999999403 0 -4.952999999999999403 0 0 -1 -0.7619999999999998996 0 0 forward_v I I I I #
coedge $-1 $15 $16 $17 $18 reversed $5 $-1 #
face $-1 $19 $20 $2 $-1 $21 forward single #
loop $-1 $-1 $22 $7 #
plane-surface $-1 -4.952999999999999403 0 -4.952999999999999403 -1 0 0 0 0 0.7619999999999998996 forward_v I I I I #
coedge $-1 $23 $17 $24 $25 forward $8 $-1 #
coedge $-1 $26 $10 $27 $28 reversed $5 $-1 #
coedge $-1 $10 $26 $29 $30 reversed $5 $-1 #
coedge $-1 $14 $31 $10 $18 forward $8 $-1 #
edge $-1 $32 0 $33 13 $10 $34 forward 7 unknown #
face $-1 $35 $36 $2 $-1 $37 forward single #
loop $-1 $-1 $38 $11 #
plane-surface $-1 -4.952999999999999403 0 4.952999999999999403 0 0 1 0.7619999999999998996 0 0 forward_v I I I I #
coedge $-1 $39 $29 $40 $41 forward $12 $-1 #
coedge $-1 $31 $14 $42 $43 reversed $8 $-1 #
coedge $-1 $29 $39 $14 $25 reversed $12 $-1 #
edge $-1 $33 0 $44 0.5 $24 $45 forward 7 unknown #
coedge $-1 $16 $15 $46 $47 reversed $5 $-1 #
coedge $-1 $48 $49 $15 $28 forward $36 $-1 #
edge $-1 $50 0 $32 13 $15 $51 forward 7 unknown #
coedge $-1 $22 $24 $16 $30 forward $12 $-1 #
edge $-1 $33 0 $52 13 $16 $53 forward 7 unknown #
coedge $-1 $17 $23 $48 $54 reversed $8 $-1 #
vertex $-1 $28 $55 #
vertex $-1 $30 $56 #
straight-curve $-1 4.952999999999999403 0 -4.952999999999999403 -0.7619999999999998996 0 0 I I #
face $-1 $57 $58 $2 $-1 $59 forward single #
loop $-1 $-1 $48 $19 #
plane-surface $-1 4.952999999999999403 0 4.952999999999999403 1 0 0 0 0 -0.7619999999999998996 forward_v I I I I #
coedge $-1 $60 $46 $49 $61 forward $20 $-1 #
coedge $-1 $24 $22 $62 $63 reversed $12 $-1 #
coedge $-1 $46 $60 $22 $41 reversed $20 $-1 #
edge $-1 $52 0 $64 0.5 $22 $65 forward 7 unknown #
coedge $-1 $62 $66 $23 $43 forward $58 $-1 #
edge $-1 $67 0 $44 13 $42 $68 forward 7 unknown #
vertex $-1 $63 $69 #
straight-curve $-1 -4.952999999999999403 0 -4.952999999999999403 0 0.7619999999999998996 0 I I #
coedge $-1 $38 $40 $26 $47 forward $20 $-1 #
edge $-1 $52 0 $50 13 $26 $70 forward 7 unknown #
coedge $-1 $71 $27 $31 $54 forward $36 $-1 #
coedge $-1 $27 $71 $38 $61 reversed $36 $-1 #
vertex $-1 $47 $72 #
straight-curve $-1 4.952999999999999403 0 4.952999999999999403 0 0 -0.7619999999999998996 I I #
vertex $-1 $30 $73 #
straight-curve $-1 -4.952999999999999403 0 -4.952999999999999403 0 0 0.7619999999999998996 I I #
edge $-1 $32 0 $67 0.5 $48 $74 forward 7 unknown #
point $-1 4.952999999999999403 0 -4.952999999999999403 #
point $-1 -4.952999999999999403 0 -4.952999999999999403 #
face $-1 $75 $76 $2 $-1 $77 forward single #
loop $-1 $78 $79 $35 #
plane-surface $-1 0 0.3809999999999999498 0 0 1 0 0.7619999999999998996 0 0 forward_v I I I I #
coedge $-1 $40 $38 $79 $80 reversed $20 $-1 #
edge $-1 $50 0 $81 0.5 $38 $82 forward 7 unknown #
coedge $-1 $79 $42 $39 $63 forward $58 $-1 #
edge $-1 $44 0 $64 13 $62 $83 forward 7 unknown #
vertex $-1 $63 $84 #
straight-curve $-1 -4.952999999999999403 0 4.952999999999999403 0 0.7619999999999998996 0 I I #
coedge $-1 $42 $79 $71 $85 forward $58 $-1 #
vertex $-1 $43 $86 #
straight-curve $-1 4.952999999999999403 0.3809999999999999498 -4.952999999999999403 -0.7619999999999998996 0 0 I I #
point $-1 -4.952999999999999403 0.3809999999999999498 -4.952999999999999403 #
straight-curve $-1 -4.952999999999999403 0 4.952999999999999403 0.7619999999999998996 0 0 I I #
coedge $-1 $49 $48 $66 $85 reversed $36 $-1 #
point $-1 4.952999999999999403 0 4.952999999999999403 #
point $-1 -4.952999999999999403 0 4.952999999999999403 #
straight-curve $-1 4.952999999999999403 0 -4.952999999999999403 0 0.7619999999999998996 0 I I #
face $-1 $87 $88 $2 $-1 $89 forward single #
loop $-1 $-1 $90 $57 #
cone-surface $-1 0 0 0 0 1 0 3.809999999999999609 0 0 1 I I 0 1 3.809999999999999609 forward I I I I #
loop $-1 $-1 $91 $35 #
coedge $-1 $66 $62 $60 $80 forward $58 $-1 #
edge $-1 $64 0 $81 13 $79 $92 forward 7 unknown #
vertex $-1 $85 $93 #
straight-curve $-1 4.952999999999999403 0 4.952999999999999403 0 0.7619999999999998996 0 I I #
straight-curve $-1 -4.952999999999999403 0.3809999999999999498 -4.952999999999999403 0 0 0.7619999999999998996 I I #
point $-1 -4.952999999999999403 0.3809999999999999498 4.952999999999999403 #
edge $-1 $81 0 $67 13 $66 $94 forward 7 unknown #
point $-1 4.952999999999999403 0.3809999999999999498 -4.952999999999999403 #
face $-1 $-1 $95 $2 $-1 $96 forward single #
loop $-1 $-1 $97 $75 #
cone-surface $-1 0 0 0 0 1 0 3.809999999999999609 0 0 1 I I 0 1 3.809999999999999609 forward I I I I #
coedge $-1 $98 $99 $100 $101 forward $76 $-1 #
coedge $-1 $102 $102 $99 $103 reversed $78 $-1 #
straight-curve $-1 -4.952999999999999403 0.3809999999999999498 4.952999999999999403 0.7619999999999998996 0 0 I I #
point $-1 4.952999999999999403 0.3809999999999999498 4.952999999999999403 #
straight-curve $-1 4.952999999999999403 0.3809999999999999498 4.952999999999999403 0 0 -0.7619999999999998996 I I #
loop $-1 $-1 $104 $87 #
plane-surface $-1 0 5.71499999999999897 0 0 1 0 0.7619999999999998996 0 0 forward_v I I I I #
coedge $-1 $105 $106 $107 $108 forward $88 $-1 #
coedge $-1 $107 $90 $104 $109 reversed $76 $-1 #
coedge $-1 $90 $107 $91 $103 forward $76 $-1 #
coedge $-1 $106 $105 $90 $101 reversed $88 $-1 #
edge $-1 $110 0 $111 6.999999999999999112 $100 $112 forward 7 unknown #
coedge $-1 $91 $91 $106 $113 reversed $78 $-1 #
edge $-1 $114 0 $110 3.141592653589793116 $99 $115 forward 7 unknown #
coedge $-1 $116 $116 $98 $109 forward $95 $-1 #
coedge $-1 $100 $97 $116 $117 reversed $88 $-1 #
coedge $-1 $97 $100 $102 $113 forward $88 $-1 #
coedge $-1 $99 $98 $97 $108 reversed $76 $-1 #
edge $-1 $114 0 $118 6.999999999999999112 $97 $119 forward 7 unknown #
edge $-1 $118 0 $111 3.141592653589793116 $104 $120 forward 7 unknown #
vertex $-1 $113 $121 #
vertex $-1 $117 $122 #
straight-curve $-1 3.809999999999999609 0.3809999999999999498 0 0 0.7619999999999998996 0 I I #
edge $-1 $110 0 $114 3.141592653589793116 $106 $123 forward 7 unknown #
vertex $-1 $113 $124 #
ellipse-curve $-1 -1.691979889528738345e-16 0.3809999999999999498 0 0 1 0 -3.809999999999999609 0 0 1 I I #
coedge $-1 $104 $104 $105 $117 forward $95 $-1 #
edge $-1 $111 0 $118 3.141592653589793116 $116 $125 forward 7 unknown #
vertex $-1 $117 $126 #
straight-curve $-1 -3.809999999999999609 0.3809999999999999498 -4.665750208063256841e-16 0 0.7619999999999998996 0 I I #
ellipse-curve $-1 0 5.71499999999999897 0 0 1 0 -3.809999999999999609 0 0 1 I I #
point $-1 3.809999999999999609 0.3809999999999999498 0 #
point $-1 3.809999999999999609 5.71499999999999897 0 #
ellipse-curve $-1 -5.075939668586214788e-16 0.3809999999999999498 1.691979889528738345e-16 0 1 0 3.810000000000000053 0 -1.691979889528738345e-16 1 I I #
point $-1 -3.809999999999999609 0.3809999999999999498 0 #
ellipse-curve $-1 0 5.71499999999999897 0 0 1 0 3.809999999999999609 0 0 1 I I #
point $-1 -3.809999999999999609 5.71499999999999897 0 #
End-of-ACIS-data 