600 0 1 0           
99 GICL Pro/E ACIS Translator - Source: f:/data5/repository/PTC/V18/cabecad18/ptc_comp/conn1.prt - 6 0 13 ACIS 6.0.3 NT 24 Thu Apr 04 13:39:10 2002 
1 9.9999999999999995e-007 1e-010 
body $-1 $1 $-1 $2 #
lump $-1 $-1 $3 $0 #
transform $-1 1 0 0 0 1 0 0 0 1 0 0 0 0.7619999999999999 no_rotate no_reflect no_shear #
shell $-1 $-1 $-1 $4 $-1 $1 #
face $-1 $5 $6 $3 $-1 $7 reversed single #
face $-1 $8 $9 $3 $-1 $10 forward single #
loop $-1 $-1 $11 $4 #
plane-surface $-1 0 0 0 0 1 0 1 0 0 forward_v I I I I #
face $-1 $12 $13 $3 $-1 $14 forward single #
loop $-1 $-1 $15 $5 #
plane-surface $-1 6.5 0 -6.5 0 0 -1 -1 0 0 forward_v I I I I #
coedge $-1 $16 $17 $18 $19 reversed $6 $-1 #
face $-1 $20 $21 $3 $-1 $22 forward single #
loop $-1 $-1 $23 $8 #
plane-surface $-1 -6.5 0 -6.5 -1 0 0 0 0 1 forward_v I I I I #
coedge $-1 $24 $18 $25 $26 forward $9 $-1 #
coedge $-1 $27 $11 $28 $29 reversed $6 $-1 #
coedge $-1 $11 $27 $30 $31 reversed $6 $-1 #
coedge $-1 $15 $32 $11 $19 forward $9 $-1 #
edge $-1 $33 0 $34 13 $11 $35 forward 7 unknown #
face $-1 $36 $37 $3 $-1 $38 forward single #
loop $-1 $-1 $39 $12 #
plane-surface $-1 -6.5 0 6.5 0 0 1 1 0 0 forward_v I I I I #
coedge $-1 $40 $30 $41 $42 forward $13 $-1 #
coedge $-1 $32 $15 $43 $44 reversed $9 $-1 #
coedge $-1 $30 $40 $15 $26 reversed $13 $-1 #
edge $-1 $34 0 $45 0.5 $25 $46 forward 7 unknown #
coedge $-1 $17 $16 $47 $48 reversed $6 $-1 #
coedge $-1 $49 $50 $16 $29 forward $37 $-1 #
edge $-1 $51 0 $33 13 $16 $52 forward 7 unknown #
coedge $-1 $23 $25 $17 $31 forward $13 $-1 #
edge $-1 $34 0 $53 13 $17 $54 forward 7 unknown #
coedge $-1 $18 $24 $49 $55 reversed $9 $-1 #
vertex $-1 $29 $56 #
vertex $-1 $31 $57 #
straight-curve $-1 6.5 0 -6.5 -1 0 0 I I #
face $-1 $58 $59 $3 $-1 $60 forward single #
loop $-1 $-1 $49 $20 #
plane-surface $-1 6.5 0 6.5 1 0 0 0 0 -1 forward_v I I I I #
coedge $-1 $61 $47 $50 $62 forward $21 $-1 #
coedge $-1 $25 $23 $63 $64 reversed $13 $-1 #
coedge $-1 $47 $61 $23 $42 reversed $21 $-1 #
edge $-1 $53 0 $65 0.5 $23 $66 forward 7 unknown #
coedge $-1 $63 $67 $24 $44 forward $59 $-1 #
edge $-1 $68 0 $45 13 $43 $69 forward 7 unknown #
vertex $-1 $64 $70 #
straight-curve $-1 -6.5 0 -6.5 0 1 0 I I #
coedge $-1 $39 $41 $27 $48 forward $21 $-1 #
edge $-1 $53 0 $51 13 $27 $71 forward 7 unknown #
coedge $-1 $72 $28 $32 $55 forward $37 $-1 #
coedge $-1 $28 $72 $39 $62 reversed $37 $-1 #
vertex $-1 $48 $73 #
straight-curve $-1 6.5 0 6.5 0 0 -1 I I #
vertex $-1 $31 $74 #
straight-curve $-1 -6.5 0 -6.5 0 0 1 I I #
edge $-1 $33 0 $68 0.5 $49 $75 forward 7 unknown #
point $-1 6.5 0 -6.5 #
point $-1 -6.5 0 -6.5 #
face $-1 $76 $77 $3 $-1 $78 forward single #
loop $-1 $79 $80 $36 #
plane-surface $-1 0 0.5 0 0 1 0 1 0 0 forward_v I I I I #
coedge $-1 $41 $39 $80 $81 reversed $21 $-1 #
edge $-1 $51 0 $82 0.5 $39 $83 forward 7 unknown #
coedge $-1 $80 $43 $40 $64 forward $59 $-1 #
edge $-1 $45 0 $65 13 $63 $84 forward 7 unknown #
vertex $-1 $64 $85 #
straight-curve $-1 -6.5 0 6.5 0 1 0 I I #
coedge $-1 $43 $80 $72 $86 forward $59 $-1 #
vertex $-1 $44 $87 #
straight-curve $-1 6.5 0.5 -6.5 -1 0 0 I I #
point $-1 -6.5 0.5 -6.5 #
straight-curve $-1 -6.5 0 6.5 1 0 0 I I #
coedge $-1 $50 $49 $67 $86 reversed $37 $-1 #
point $-1 6.5 0 6.5 #
point $-1 -6.5 0 6.5 #
straight-curve $-1 6.5 0 -6.5 0 1 0 I I #
face $-1 $88 $89 $3 $-1 $90 forward single #
loop $-1 $-1 $91 $58 #
cone-surface $-1 0 0 0 0 1 0 5 0 0 1 I I 0 1 5 forward I I I I #
loop $-1 $-1 $92 $36 #
coedge $-1 $67 $63 $61 $81 forward $59 $-1 #
edge $-1 $65 0 $82 13 $80 $93 forward 7 unknown #
vertex $-1 $86 $94 #
straight-curve $-1 6.5 0 6.5 0 1 0 I I #
straight-curve $-1 -6.5 0.5 -6.5 0 0 1 I I #
point $-1 -6.5 0.5 6.5 #
edge $-1 $82 0 $68 13 $67 $95 forward 7 unknown #
point $-1 6.5 0.5 -6.5 #
face $-1 $-1 $96 $3 $-1 $97 forward single #
loop $-1 $-1 $98 $76 #
cone-surface $-1 0 0 0 0 1 0 5 0 0 1 I I 0 1 5 forward I I I I #
coedge $-1 $99 $100 $101 $102 forward $77 $-1 #
coedge $-1 $103 $103 $100 $104 reversed $79 $-1 #
straight-curve $-1 -6.5 0.5 6.5 1 0 0 I I #
point $-1 6.5 0.5 6.5 #
straight-curve $-1 6.5 0.5 6.5 0 0 -1 I I #
loop $-1 $-1 $105 $88 #
plane-surface $-1 0 7.5 0 0 1 0 1 0 0 forward_v I I I I #
coedge $-1 $106 $107 $108 $109 forward $89 $-1 #
coedge $-1 $108 $91 $105 $110 reversed $77 $-1 #
coedge $-1 $91 $108 $92 $104 forward $77 $-1 #
coedge $-1 $107 $106 $91 $102 reversed $89 $-1 #
edge $-1 $111 0 $112 7 $101 $113 forward 7 unknown #
coedge $-1 $92 $92 $107 $114 reversed $79 $-1 #
edge $-1 $115 0 $111 3.1415926535897931 $100 $116 forward 7 unknown #
coedge $-1 $117 $117 $99 $110 forward $96 $-1 #
coedge $-1 $101 $98 $117 $118 reversed $89 $-1 #
coedge $-1 $98 $101 $103 $114 forward $89 $-1 #
coedge $-1 $100 $99 $98 $109 reversed $77 $-1 #
edge $-1 $115 0 $119 7 $98 $120 forward 7 unknown #
edge $-1 $119 0 $112 3.1415926535897931 $105 $121 forward 7 unknown #
vertex $-1 $114 $122 #
vertex $-1 $118 $123 #
straight-curve $-1 5 0.5 0 0 1 0 I I #
edge $-1 $111 0 $115 3.1415926535897931 $107 $124 forward 7 unknown #
vertex $-1 $114 $125 #
ellipse-curve $-1 -2.2204460492503131e-016 0.5 0 0 1 0 -5 0 0 1 I I #
coedge $-1 $105 $105 $106 $118 forward $96 $-1 #
edge $-1 $112 0 $119 3.1415926535897931 $117 $126 forward 7 unknown #
vertex $-1 $118 $127 #
straight-curve $-1 -5 0.5 -6.1230317691118863e-016 0 1 0 I I #
ellipse-curve $-1 0 7.5 0 0 1 0 -5 0 0 1 I I #
point $-1 5 0.5 0 #
point $-1 5 7.5 0 #
ellipse-curve $-1 -6.6613381477509392e-016 0.5 2.2204460492503131e-016 0 1 0 5.0000000000000009 0 -2.2204460492503131e-016 1 I I #
point $-1 -5 0.5 0 #
ellipse-curve $-1 0 7.5 0 0 1 0 5 0 0 1 I I #
point $-1 -5 7.5 0 #
End-of-ACIS-data 