600 0 1 0           
103 GICL Pro/E ACIS Translator - Source: f:/data5/repository/PTC/V18/cabecad18/ptc_comp/fin_board.prt - 6 0 13 ACIS 6.0.3 NT 24 Thu Apr 04 10:02:30 2002 
1 9.9999999999999995e-007 1e-010 
body $-1 $1 $-1 $-1 #
lump $-1 $-1 $2 $0 #
shell $-1 $-1 $-1 $3 $-1 $1 #
face $-1 $4 $5 $2 $-1 $6 reversed single #
face $-1 $7 $8 $2 $-1 $9 forward single #
loop $-1 $-1 $10 $3 #
plane-surface $-1 0 0 0 0 0 1 1 0 0 forward_v I I I I #
face $-1 $11 $12 $2 $-1 $13 forward single #
loop $-1 $-1 $14 $4 #
plane-surface $-1 0 1.5 0 -1 0 0 0 -1 0 forward_v I I I I #
coedge $-1 $15 $16 $17 $18 reversed $5 $-1 #
face $-1 $19 $20 $2 $-1 $21 forward single #
loop $-1 $22 $23 $7 #
plane-surface $-1 0 0 0 0 -1 0 1 0 0 forward_v I I I I #
coedge $-1 $24 $17 $25 $26 forward $8 $-1 #
coedge $-1 $27 $10 $28 $29 reversed $5 $-1 #
coedge $-1 $10 $27 $30 $31 reversed $5 $-1 #
coedge $-1 $14 $32 $10 $18 forward $8 $-1 #
edge $-1 $33 0 $34 1.5 $10 $35 forward 7 unknown #
face $-1 $36 $37 $2 $-1 $38 forward single #
loop $-1 $-1 $39 $11 #
plane-surface $-1 150 0 0 1 0 0 0 1 0 forward_v I I I I #
loop $-1 $40 $41 $7 #
coedge $-1 $42 $30 $43 $44 forward $12 $-1 #
coedge $-1 $32 $14 $45 $46 reversed $8 $-1 #
coedge $-1 $30 $42 $14 $26 reversed $12 $-1 #
edge $-1 $34 0 $47 60 $25 $48 forward 7 unknown #
coedge $-1 $16 $15 $49 $50 reversed $5 $-1 #
coedge $-1 $51 $52 $15 $29 forward $37 $-1 #
edge $-1 $53 0 $33 150 $15 $54 forward 7 unknown #
coedge $-1 $23 $25 $16 $31 forward $12 $-1 #
edge $-1 $34 0 $55 150 $16 $56 forward 7 unknown #
coedge $-1 $17 $24 $51 $57 reversed $8 $-1 #
vertex $-1 $29 $58 #
vertex $-1 $31 $59 #
straight-curve $-1 0 1.5 0 0 -1 0 I I #
face $-1 $60 $61 $2 $-1 $62 forward single #
loop $-1 $63 $51 $19 #
plane-surface $-1 150 1.5 0 0 1 0 -1 0 0 forward_v I I I I #
coedge $-1 $64 $49 $52 $65 forward $20 $-1 #
loop $-1 $66 $67 $7 #
coedge $-1 $68 $68 $69 $70 reversed $22 $-1 #
coedge $-1 $25 $23 $71 $72 reversed $12 $-1 #
coedge $-1 $49 $64 $23 $44 reversed $20 $-1 #
edge $-1 $55 0 $73 60 $23 $74 forward 7 unknown #
coedge $-1 $71 $75 $24 $46 forward $61 $-1 #
edge $-1 $76 0 $47 1.5 $45 $77 forward 7 unknown #
vertex $-1 $72 $78 #
straight-curve $-1 0 0 0 0 0 1 I I #
coedge $-1 $39 $43 $27 $50 forward $20 $-1 #
edge $-1 $55 0 $53 1.5 $27 $79 forward 7 unknown #
coedge $-1 $80 $28 $32 $57 forward $37 $-1 #
coedge $-1 $28 $80 $39 $65 reversed $37 $-1 #
vertex $-1 $50 $81 #
straight-curve $-1 150 1.5 0 -1 0 0 I I #
vertex $-1 $31 $82 #
straight-curve $-1 0 0 0 1 0 0 I I #
edge $-1 $33 0 $76 60 $51 $83 forward 7 unknown #
point $-1 0 1.5 0 #
point $-1 0 0 0 #
face $-1 $84 $85 $2 $-1 $86 reversed single #
loop $-1 $-1 $87 $36 #
plane-surface $-1 0 0 60 0 0 1 1 0 0 forward_v I I I I #
loop $-1 $88 $89 $19 #
coedge $-1 $43 $39 $87 $90 reversed $20 $-1 #
edge $-1 $53 0 $91 60 $39 $92 forward 7 unknown #
loop $-1 $93 $94 $7 #
coedge $-1 $95 $95 $96 $97 reversed $40 $-1 #
coedge $-1 $41 $41 $98 $99 reversed $22 $-1 #
coedge $-1 $100 $101 $41 $70 forward $85 $-1 #
edge $-1 $102 0 $103 3.1415926535897931 $41 $104 forward 7 unknown #
coedge $-1 $87 $45 $42 $72 forward $61 $-1 #
edge $-1 $47 0 $73 150 $71 $105 forward 7 unknown #
vertex $-1 $72 $106 #
straight-curve $-1 150 0 0 0 0 1 I I #
coedge $-1 $45 $87 $80 $107 forward $61 $-1 #
vertex $-1 $46 $108 #
straight-curve $-1 0 1.5 60 0 -1 0 I I #
point $-1 0 0 60 #
straight-curve $-1 150 0 0 0 1 0 I I #
coedge $-1 $52 $51 $75 $107 reversed $37 $-1 #
point $-1 150 1.5 0 #
point $-1 150 0 0 #
straight-curve $-1 0 1.5 0 0 0 1 I I #
face $-1 $109 $110 $2 $-1 $111 reversed single #
loop $-1 $-1 $100 $60 #
cone-surface $-1 5 1.5 5 0 -1 0 1.25 0 0 1 I I 0 1 1.25 forward I I I I #
coedge $-1 $75 $71 $64 $90 forward $61 $-1 #
loop $-1 $112 $113 $19 #
coedge $-1 $114 $114 $115 $116 forward $63 $-1 #
edge $-1 $73 0 $91 1.5 $87 $117 forward 7 unknown #
vertex $-1 $107 $118 #
straight-curve $-1 150 1.5 0 0 0 1 I I #
loop $-1 $-1 $119 $7 #
coedge $-1 $120 $120 $121 $122 reversed $66 $-1 #
coedge $-1 $67 $67 $123 $124 reversed $40 $-1 #
coedge $-1 $125 $126 $67 $97 forward $127 $-1 #
edge $-1 $128 0 $129 3.1415926535897931 $67 $130 forward 7 unknown #
coedge $-1 $131 $132 $68 $99 forward $110 $-1 #
edge $-1 $103 0 $102 3.1415926535897931 $68 $133 forward 7 unknown #
coedge $-1 $115 $69 $132 $134 reversed $85 $-1 #
coedge $-1 $69 $115 $131 $135 forward $85 $-1 #
vertex $-1 $99 $136 #
vertex $-1 $99 $137 #
ellipse-curve $-1 5 0 5 0 -1 0 -1.25 0 0 1 I I #
straight-curve $-1 0 0 60 1 0 0 I I #
point $-1 150 0 60 #
edge $-1 $91 0 $76 150 $75 $138 forward 7 unknown #
point $-1 0 1.5 60 #
face $-1 $139 $127 $2 $-1 $140 reversed single #
loop $-1 $-1 $131 $84 #
cone-surface $-1 5 1.5 5 0 -1 0 1.25 0 0 1 I I 0 1 1.25 forward I I I I #
loop $-1 $141 $142 $19 #
coedge $-1 $143 $143 $144 $145 forward $88 $-1 #
coedge $-1 $89 $89 $146 $147 forward $63 $-1 #
coedge $-1 $101 $100 $89 $116 reversed $85 $-1 #
edge $-1 $148 0 $149 3.1415926535897931 $89 $150 forward 7 unknown #
straight-curve $-1 150 0 60 0 1 0 I I #
point $-1 150 1.5 60 #
coedge $-1 $151 $151 $152 $153 reversed $93 $-1 #
coedge $-1 $94 $94 $154 $155 reversed $66 $-1 #
coedge $-1 $156 $157 $94 $122 forward $158 $-1 #
edge $-1 $159 0 $160 3.1415926535897931 $94 $161 forward 7 unknown #
coedge $-1 $162 $163 $95 $124 forward $164 $-1 #
edge $-1 $129 0 $128 3.1415926535897931 $95 $165 forward 7 unknown #
coedge $-1 $144 $96 $163 $166 reversed $127 $-1 #
coedge $-1 $96 $144 $162 $167 forward $127 $-1 #
loop $-1 $-1 $125 $109 #
vertex $-1 $124 $168 #
vertex $-1 $124 $169 #
ellipse-curve $-1 5 0 55 0 -1 0 -1.25 0 0 1 I I #
coedge $-1 $146 $98 $101 $135 reversed $110 $-1 #
coedge $-1 $98 $146 $100 $134 forward $110 $-1 #
ellipse-curve $-1 5 0 5 0 -1 0 1.25 0 0 1 I I #
edge $-1 $149 0 $103 1.5 $132 $170 forward 7 unknown #
edge $-1 $148 0 $102 1.5 $131 $171 forward 7 unknown #
point $-1 3.75 0 5 #
point $-1 6.25 0 5 #
straight-curve $-1 150 1.5 60 -1 0 0 I I #
face $-1 $172 $164 $2 $-1 $173 reversed single #
cone-surface $-1 5 1.5 55 0 -1 0 1.25 0 0 1 I I 0 1 1.25 forward I I I I #
loop $-1 $-1 $174 $19 #
coedge $-1 $175 $175 $176 $177 forward $112 $-1 #
coedge $-1 $113 $113 $178 $179 forward $88 $-1 #
coedge $-1 $126 $125 $113 $145 reversed $127 $-1 #
edge $-1 $180 0 $181 3.1415926535897931 $113 $182 forward 7 unknown #
coedge $-1 $132 $131 $114 $147 reversed $110 $-1 #
edge $-1 $149 0 $148 3.1415926535897931 $114 $183 forward 7 unknown #
vertex $-1 $147 $184 #
vertex $-1 $147 $185 #
ellipse-curve $-1 5 1.5 5 0 -1 0 -1.25 0 0 1 I I #
coedge $-1 $119 $119 $186 $187 reversed $93 $-1 #
coedge $-1 $188 $189 $119 $153 forward $190 $-1 #
edge $-1 $191 0 $192 3.141592653589782 $119 $193 forward 7 unknown #
coedge $-1 $194 $195 $120 $155 forward $196 $-1 #
edge $-1 $160 0 $159 3.1415926535897931 $120 $197 forward 7 unknown #
coedge $-1 $176 $121 $195 $198 reversed $158 $-1 #
coedge $-1 $121 $176 $194 $199 forward $158 $-1 #
loop $-1 $-1 $156 $172 #
vertex $-1 $155 $200 #
vertex $-1 $155 $201 #
ellipse-curve $-1 145 0 5 0 -1 0 -1.25 0 0 1 I I #
coedge $-1 $178 $123 $126 $167 reversed $164 $-1 #
coedge $-1 $123 $178 $125 $166 forward $164 $-1 #
loop $-1 $-1 $162 $139 #
ellipse-curve $-1 5 0 55 0 -1 0 1.25 0 0 1 I I #
edge $-1 $181 0 $129 1.5 $163 $202 forward 7 unknown #
edge $-1 $180 0 $128 1.5 $162 $203 forward 7 unknown #
point $-1 3.75 0 55 #
point $-1 6.25 0 55 #
straight-curve $-1 6.25 1.5 5 0 -1 0 I I #
straight-curve $-1 3.75 1.5 5 0 -1 0 I I #
face $-1 $204 $158 $2 $-1 $205 reversed single #
cone-surface $-1 5 1.5 55 0 -1 0 1.25 0 0 1 I I 0 1 1.25 forward I I I I #
coedge $-1 $206 $206 $207 $208 forward $141 $-1 #
coedge $-1 $142 $142 $209 $210 forward $112 $-1 #
coedge $-1 $157 $156 $142 $177 reversed $158 $-1 #
edge $-1 $211 0 $212 3.1415926535897931 $142 $213 forward 7 unknown #
coedge $-1 $163 $162 $143 $179 reversed $164 $-1 #
edge $-1 $181 0 $180 3.1415926535897931 $143 $214 forward 7 unknown #
vertex $-1 $179 $215 #
vertex $-1 $179 $216 #
ellipse-curve $-1 5 1.5 55 0 -1 0 -1.25 0 0 1 I I #
ellipse-curve $-1 5 1.5 5 0 -1 0 1.25 0 0 1 I I #
point $-1 3.75 1.5 5 #
point $-1 6.25 1.5 5 #
coedge $-1 $217 $218 $151 $187 forward $219 $-1 #
edge $-1 $192 0 $191 3.141592653589782 $151 $220 forward 7 unknown #
coedge $-1 $207 $152 $218 $221 reversed $190 $-1 #
coedge $-1 $152 $207 $217 $222 forward $190 $-1 #
loop $-1 $-1 $188 $223 #
vertex $-1 $187 $224 #
vertex $-1 $187 $225 #
ellipse-curve $-1 145 0 55.000000000000007 0 -1 0 -1.25 0 -7.1054273576010019e-015 1 I I #
coedge $-1 $209 $154 $157 $199 reversed $196 $-1 #
coedge $-1 $154 $209 $156 $198 forward $196 $-1 #
loop $-1 $-1 $194 $204 #
ellipse-curve $-1 145 0 5 0 -1 0 1.25 0 0 1 I I #
edge $-1 $212 0 $160 1.5 $195 $226 forward 7 unknown #
edge $-1 $211 0 $159 1.5 $194 $227 forward 7 unknown #
point $-1 143.75 0 5 #
point $-1 146.25 0 5 #
straight-curve $-1 6.25 1.5 55 0 -1 0 I I #
straight-curve $-1 3.75 1.5 55 0 -1 0 I I #
face $-1 $223 $196 $2 $-1 $228 reversed single #
cone-surface $-1 145 1.5 5 0 -1 0 1.25 0 0 1 I I 0 1 1.25 forward I I I I #
coedge $-1 $174 $174 $229 $230 forward $141 $-1 #
coedge $-1 $189 $188 $174 $208 reversed $190 $-1 #
edge $-1 $231 0 $232 3.1415926535897931 $174 $233 forward 7 unknown #
coedge $-1 $195 $194 $175 $210 reversed $196 $-1 #
edge $-1 $212 0 $211 3.1415926535897931 $175 $234 forward 7 unknown #
vertex $-1 $210 $235 #
vertex $-1 $210 $236 #
ellipse-curve $-1 145 1.5 5 0 -1 0 -1.25 0 0 1 I I #
ellipse-curve $-1 5 1.5 55 0 -1 0 1.25 0 0 1 I I #
point $-1 3.75 1.5 55 #
point $-1 6.25 1.5 55 #
coedge $-1 $229 $186 $189 $222 reversed $219 $-1 #
coedge $-1 $186 $229 $188 $221 forward $219 $-1 #
loop $-1 $-1 $217 $237 #
ellipse-curve $-1 145 0 54.999999999999993 0 -1 0 1.25 0 7.1054273576010019e-015 1 I I #
edge $-1 $232 0 $192 1.5 $218 $238 forward 7 unknown #
edge $-1 $231 0 $191 1.5 $217 $239 forward 7 unknown #
face $-1 $237 $190 $2 $-1 $240 reversed single #
point $-1 143.75 0 55 #
point $-1 146.25 0 55 #
straight-curve $-1 146.25 1.5 5 0 -1 0 I I #
straight-curve $-1 143.75 1.5 5 0 -1 0 I I #
cone-surface $-1 145 1.5 5 0 -1 0 1.25 0 0 1 I I 0 1 1.25 forward I I I I #
coedge $-1 $218 $217 $206 $230 reversed $219 $-1 #
edge $-1 $232 0 $231 3.1415926535897931 $206 $241 forward 7 unknown #
vertex $-1 $230 $242 #
vertex $-1 $230 $243 #
ellipse-curve $-1 145 1.5 55 0 -1 0 -1.25 0 0 1 I I #
ellipse-curve $-1 145 1.5 5 0 -1 0 1.25 0 0 1 I I #
point $-1 143.75 1.5 5 #
point $-1 146.25 1.5 5 #
face $-1 $-1 $219 $2 $-1 $244 reversed single #
straight-curve $-1 146.25 1.5 55 0 -1 0 I I #
straight-curve $-1 143.75 1.5 55 0 -1 0 I I #
cone-surface $-1 145 1.5 55 0 -1 0 1.25 0 0 1 I I 0 1 1.25 forward I I I I #
ellipse-curve $-1 145 1.5 55 0 -1 0 1.25 0 0 1 I I #
point $-1 143.75 1.5 55 #
point $-1 146.25 1.5 55 #
cone-surface $-1 145 1.5 55 0 -1 0 1.25 0 0 1 I I 0 1 1.25 forward I I I I #
End-of-ACIS-data 