600 0 1 0           
103 GICL Pro/E ACIS Translator - Source: f:/data5/repository/PTC/V18/cabecad18/ptc_comp/new_tuner.prt - 6 0 13 ACIS 6.0.3 NT 24 Thu Apr 04 13:39:32 2002 
1 9.9999999999999995e-007 1e-010 
body $-1 $1 $-1 $-1 #
lump $-1 $-1 $2 $0 #
shell $-1 $-1 $-1 $3 $-1 $1 #
face $-1 $4 $5 $2 $-1 $6 reversed single #
face $-1 $7 $8 $2 $-1 $9 forward single #
loop $-1 $-1 $10 $3 #
plane-surface $-1 0 0 0 0 1 0 1 0 0 forward_v I I I I #
face $-1 $11 $12 $2 $-1 $13 forward single #
loop $-1 $-1 $14 $4 #
plane-surface $-1 0 0 0 0 0 1 1 0 0 forward_v I I I I #
coedge $-1 $15 $16 $17 $18 reversed $5 $-1 #
face $-1 $19 $20 $2 $-1 $21 forward single #
loop $-1 $-1 $22 $7 #
cone-surface $-1 29.649999999999999 0.34999999999999998 0 0 0 1 0 -0.34999999999999998 0 1 I I 0 1 0.34999999999999998 forward I I I I #
coedge $-1 $23 $17 $24 $25 forward $8 $-1 #
coedge $-1 $26 $10 $27 $28 reversed $5 $-1 #
coedge $-1 $10 $29 $30 $31 reversed $5 $-1 #
coedge $-1 $14 $32 $10 $18 forward $8 $-1 #
edge $-1 $33 0 $34 29.299999999999997 $10 $35 forward 7 unknown #
face $-1 $36 $37 $2 $-1 $38 forward single #
loop $-1 $-1 $39 $11 #
plane-surface $-1 30 0 0 1 0 0 0 0 -1 forward_v I I I I #
coedge $-1 $24 $40 $41 $42 reversed $12 $-1 #
coedge $-1 $43 $14 $44 $45 forward $8 $-1 #
coedge $-1 $30 $22 $14 $25 reversed $12 $-1 #
edge $-1 $34 0 $46 1.5707963267948875 $14 $47 forward 7 unknown #
coedge $-1 $48 $15 $49 $50 reversed $5 $-1 #
coedge $-1 $51 $52 $15 $28 forward $53 $-1 #
edge $-1 $54 0 $33 49.649999999999999 $15 $55 forward 7 unknown #
coedge $-1 $16 $56 $57 $58 forward $5 $-1 #
coedge $-1 $40 $24 $16 $31 forward $12 $-1 #
edge $-1 $34 0 $59 49.649999999999999 $16 $60 forward 7 unknown #
coedge $-1 $17 $61 $51 $62 reversed $8 $-1 #
vertex $-1 $28 $63 #
vertex $-1 $31 $64 #
straight-curve $-1 0.34999999999999998 0 0 1 0 0 I I #
face $-1 $65 $66 $2 $-1 $67 forward single #
loop $-1 $-1 $68 $19 #
cone-surface $-1 29.649999999999999 7.6499999999999995 0 0 0 -1 0 0.34999999999999998 0 1 I I 0 1 0.34999999999999998 forward I I I I #
coedge $-1 $44 $69 $70 $71 reversed $20 $-1 #
coedge $-1 $22 $30 $72 $73 forward $12 $-1 #
coedge $-1 $74 $44 $22 $42 forward $20 $-1 #
edge $-1 $46 0 $75 49.649999999999999 $41 $76 forward 7 unknown #
coedge $-1 $61 $23 $77 $78 reversed $8 $-1 #
coedge $-1 $41 $39 $23 $45 reversed $20 $-1 #
edge $-1 $46 0 $79 7.2999999999999998 $23 $80 forward 7 unknown #
vertex $-1 $45 $81 #
ellipse-curve $-1 29.649999999999999 0.3500000000000032 0 0 0 1 0 -0.3500000000000032 0 1 I I #
coedge $-1 $82 $26 $83 $84 reversed $5 $-1 #
coedge $-1 $85 $86 $26 $50 forward $87 $-1 #
edge $-1 $88 0 $54 1.6499999999999999 $26 $89 forward 7 unknown #
coedge $-1 $90 $27 $32 $62 forward $53 $-1 #
coedge $-1 $27 $90 $91 $92 forward $53 $-1 #
loop $-1 $-1 $51 $93 #
vertex $-1 $50 $94 #
straight-curve $-1 0.34999999999999998 0 -49.649999999999999 0 0 1 I I #
coedge $-1 $29 $95 $96 $97 forward $5 $-1 #
coedge $-1 $98 $72 $29 $58 reversed $99 $-1 #
edge $-1 $100 0 $59 0.35000000000000142 $29 $101 forward 7 unknown #
vertex $-1 $31 $102 #
straight-curve $-1 29.649999999999999 0 0 0 0 -1 I I #
coedge $-1 $32 $43 $103 $104 reversed $8 $-1 #
edge $-1 $33 0 $105 1.5707963267948966 $32 $106 forward 7 unknown #
point $-1 0.34999999999999998 0 0 #
point $-1 29.649999999999999 0 0 #
face $-1 $107 $108 $2 $-1 $109 forward single #
loop $-1 $-1 $110 $36 #
cone-surface $-1 0 7.6499999999999995 -0.34999999999999998 1 0 0 0 0.34999999999999998 0 1 I I 0 1 0.34999999999999998 forward I I I I #
coedge $-1 $70 $111 $112 $113 forward $37 $-1 #
coedge $-1 $39 $114 $115 $116 forward $20 $-1 #
coedge $-1 $117 $68 $39 $71 forward $37 $-1 #
edge $-1 $79 0 $118 50 $39 $119 forward 7 unknown #
coedge $-1 $57 $98 $40 $73 reversed $99 $-1 #
edge $-1 $59 0 $75 1.5707963267949094 $40 $120 forward 7 unknown #
coedge $-1 $96 $41 $98 $121 reversed $20 $-1 #
vertex $-1 $121 $122 #
straight-curve $-1 30 0.34999999999999998 0 0 0 -1 I I #
coedge $-1 $112 $110 $43 $78 forward $66 $-1 #
edge $-1 $123 0 $79 30 $43 $124 forward 7 unknown #
vertex $-1 $78 $125 #
straight-curve $-1 30 0.34999999999999998 0 0 1 0 I I #
point $-1 30 0.34999999999999998 0 #
coedge $-1 $126 $48 $127 $128 reversed $5 $-1 #
coedge $-1 $129 $130 $48 $84 forward $131 $-1 #
edge $-1 $132 0 $88 3.8000000000000043 $48 $133 forward 7 unknown #
coedge $-1 $134 $49 $135 $136 forward $87 $-1 #
coedge $-1 $49 $134 $129 $137 reversed $87 $-1 #
loop $-1 $-1 $49 $138 #
vertex $-1 $84 $139 #
straight-curve $-1 2 0 -49.649999999999999 -1 0 0 I I #
coedge $-1 $52 $51 $140 $141 reversed $53 $-1 #
coedge $-1 $142 $135 $52 $92 reversed $143 $-1 #
edge $-1 $144 0 $54 1.5707963267948966 $91 $145 forward 7 unknown #
face $-1 $146 $53 $2 $-1 $147 forward single #
point $-1 0.34999999999999998 0 -49.649999999999999 #
coedge $-1 $56 $148 $149 $150 reversed $5 $-1 #
coedge $-1 $151 $74 $56 $97 reversed $20 $-1 #
edge $-1 $152 0 $100 3.7999999999999972 $56 $153 forward 7 unknown #
coedge $-1 $72 $57 $74 $121 forward $99 $-1 #
loop $-1 $-1 $57 $154 #
vertex $-1 $58 $155 #
straight-curve $-1 30 0 -49.649999999999999 -1 0 0 I I #
point $-1 29.649999999999999 0 -49.649999999999999 #
coedge $-1 $156 $140 $61 $104 forward $157 $-1 #
edge $-1 $105 0 $123 7.2999999999999998 $103 $158 forward 7 unknown #
vertex $-1 $141 $159 #
ellipse-curve $-1 0.34999999999999998 0.34999999999999998 0 0 0 -1 0 -0.34999999999999998 0 1 I I #
face $-1 $160 $161 $2 $-1 $162 forward single #
loop $-1 $-1 $163 $65 #
cone-surface $-1 0.34999999999999998 7.6499999999999995 -49.649999999999999 0 0 1 0 0.34999999999999998 0 1 I I 0 1 0.34999999999999998 forward I I I I #
coedge $-1 $77 $164 $165 $166 forward $66 $-1 #
coedge $-1 $68 $117 $167 $168 reversed $37 $-1 #
coedge $-1 $164 $77 $68 $113 reversed $66 $-1 #
edge $-1 $169 0 $79 0.99999999999999989 $68 $170 forward 7 unknown #
coedge $-1 $69 $171 $172 $173 reversed $20 $-1 #
coedge $-1 $174 $175 $69 $116 reversed $176 $-1 #
edge $-1 $177 0 $118 6.1499999999999995 $69 $178 forward 7 unknown #
coedge $-1 $111 $70 $179 $180 reversed $37 $-1 #
vertex $-1 $116 $181 #
straight-curve $-1 30 7.6499999999999995 0 0 0 -1 I I #
ellipse-curve $-1 29.650000000000002 0.34999999999999903 -49.649999999999999 0 0 1 -3.5527136788005009e-015 -0.34999999999999903 0 1 I I #
edge $-1 $100 0 $75 0.34999999999999998 $74 $182 forward 7 unknown #
point $-1 30 0.34999999999999998 -49.649999999999999 #
vertex $-1 $183 $184 #
straight-curve $-1 0 7.6499999999999995 0 1 0 0 I I #
point $-1 30 7.6499999999999995 0 #
coedge $-1 $185 $82 $186 $187 forward $5 $-1 #
coedge $-1 $188 $189 $82 $128 forward $190 $-1 #
edge $-1 $191 0 $132 5 $82 $192 forward 7 unknown #
coedge $-1 $193 $83 $86 $137 forward $131 $-1 #
coedge $-1 $83 $194 $188 $195 forward $131 $-1 #
loop $-1 $-1 $196 $197 #
vertex $-1 $128 $198 #
straight-curve $-1 2 0 -53.450000000000003 0 0 1 I I #
coedge $-1 $86 $85 $199 $200 reversed $87 $-1 #
coedge $-1 $91 $142 $85 $136 reversed $143 $-1 #
edge $-1 $54 0 $201 1.5707963267948966 $135 $202 forward 7 unknown #
edge $-1 $88 0 $203 1.5707963267948266 $86 $204 forward 7 unknown #
face $-1 $205 $87 $2 $-1 $206 forward single #
point $-1 2 0 -49.649999999999999 #
coedge $-1 $103 $207 $90 $141 forward $157 $-1 #
edge $-1 $144 0 $105 49.650000000000006 $140 $208 forward 7 unknown #
coedge $-1 $135 $91 $209 $210 reversed $143 $-1 #
loop $-1 $-1 $91 $205 #
vertex $-1 $210 $211 #
ellipse-curve $-1 0.34999999999999998 0.34999999999999998 -49.649999999999999 -2.0301221021717152e-014 0 1 -0.34999999999999992 0 -7.1054273576010019e-015 1 I I #
face $-1 $212 $157 $2 $-1 $213 forward single #
cone-surface $-1 0.34999999999999998 0.34999999999999998 -49.649999999999999 0 0 -1 0 -0.34999999999999998 0 1 I I 0 1 0.34999999999999998 forward I I I I #
coedge $-1 $95 $185 $214 $215 reversed $5 $-1 #
coedge $-1 $216 $217 $95 $150 forward $218 $-1 #
edge $-1 $152 0 $219 5 $95 $220 forward 7 unknown #
coedge $-1 $221 $96 $217 $222 reversed $20 $-1 #
vertex $-1 $97 $223 #
straight-curve $-1 30 0 -53.449999999999996 0 0 1 I I #
face $-1 $-1 $99 $2 $-1 $224 forward single #
point $-1 30 0 -49.649999999999999 #
coedge $-1 $207 $103 $225 $183 reversed $157 $-1 #
loop $-1 $-1 $103 $146 #
straight-curve $-1 0 0.34999999999999998 0 0 1 0 I I #
point $-1 0 0.34999999999999998 0 #
face $-1 $226 $227 $2 $-1 $228 forward single #
loop $-1 $-1 $229 $107 #
sphere-surface $-1 0.34999999999999998 7.6499999999999995 -49.649999999999999 0.34999999999999998 1 0 0 0 0 1 forward_v I I I I #
coedge $-1 $225 $230 $229 $231 forward $108 $-1 #
coedge $-1 $110 $112 $232 $233 reversed $66 $-1 #
coedge $-1 $230 $225 $110 $166 reversed $108 $-1 #
edge $-1 $234 0 $123 1 $110 $235 forward 7 unknown #
coedge $-1 $236 $232 $111 $168 forward $237 $-1 #
edge $-1 $169 0 $238 49.299999999999997 $167 $239 forward 7 unknown #
vertex $-1 $168 $240 #
intcurve-curve $-1 forward { surfintcur full nurbs 3 open 6 
	0 3 0.20843383047879624 1 0.41213566518659617 1 0.61162938398748068 1 0.80738323635205722 1 
	0.99999999999999989 3 
	29.649999999999999 7.9999999999999991 -0.34999999999999998 1 
	29.691956723763468 7.9990838553994195 -0.30804327623653394 0.99999999999999978 
	29.768884505446984 7.9861218961510012 -0.2311154945530095 1 
	29.86772503976044 7.9311853550603608 -0.13227496023956142 1 
	29.942943418316467 7.8518179811595763 -0.057056581683530734 1.0000000000000002 
	29.99012433684474 7.7524878279978626 -0.0098756631552590571 1 
	30.000006295526269 7.6849537871456768 6.2955262627156106e-006 0.99999999999999978 
	30 7.6499999999999995 0 1 
	0.001 
	cone 29.649999999999999 7.6499999999999995 0 0 0 -1 0 0.34999999999999998 0 1 I I 0 1 0.34999999999999998 forward I I I I 
	cone 0 7.6499999999999995 -0.34999999999999998 1 0 0 0 0.34999999999999998 0 1 I I 0 1 0.34999999999999998 forward I I I I 
	nullbs 
	nullbs 
	F 1.1707889864550246e-006 I 
	0 
	1 1.1707889864550246e-006 
	0 
	} I I #
coedge $-1 $114 $221 $241 $242 reversed $20 $-1 #
coedge $-1 $243 $244 $114 $173 forward $245 $-1 #
edge $-1 $177 0 $246 4.6499999999999986 $114 $247 forward 7 unknown #
coedge $-1 $248 $115 $244 $249 forward $176 $-1 #
coedge $-1 $115 $250 $251 $252 reversed $176 $-1 #
loop $-1 $-1 $175 $226 #
vertex $-1 $116 $253 #
straight-curve $-1 30 1.5 -50 0 1 0 I I #
coedge $-1 $251 $254 $117 $180 forward $255 $-1 #
edge $-1 $238 0 $118 0.99999999999999989 $179 $256 forward 7 unknown #
point $-1 30 7.6499999999999995 -50 #
straight-curve $-1 30 0 -49.649999999999999 0 1 0 I I #
edge $-1 $257 7.1054273576010019e-015 $123 49.650000000000006 $156 $258 forward 7 unknown #
point $-1 0 7.6499999999999995 0 #
coedge $-1 $148 $126 $259 $260 reversed $5 $-1 #
coedge $-1 $261 $262 $126 $187 reversed $263 $-1 #
edge $-1 $191 0 $264 3.8000000000000043 $126 $265 forward 7 unknown #
coedge $-1 $266 $127 $130 $195 reversed $190 $-1 #
coedge $-1 $127 $266 $261 $267 forward $190 $-1 #
loop $-1 $-1 $127 $268 #
vertex $-1 $187 $269 #
straight-curve $-1 7 0 -53.449999999999996 -1 0 0 I I #
coedge $-1 $196 $129 $270 $271 forward $131 $-1 #
coedge $-1 $130 $272 $273 $274 forward $131 $-1 #
edge $-1 $275 0 $132 2.5 $130 $276 forward 7 unknown #
coedge $-1 $272 $193 $277 $278 forward $131 $-1 #
face $-1 $279 $131 $2 $-1 $280 forward single #
point $-1 2 0 -53.450000000000003 #
coedge $-1 $281 $270 $134 $200 forward $176 $-1 #
edge $-1 $203 0 $201 1.6499999999999986 $199 $282 forward 7 unknown #
vertex $-1 $136 $283 #
ellipse-curve $-1 0.34999999999999998 0.34999999999999998 -49.649999999999999 1 0 0 0 -0.34999999999999998 0 1 I I #
vertex $-1 $200 $284 #
ellipse-curve $-1 2 0.35000000000001025 -49.649999999999984 1 0 0 0 -0.35000000000001025 -1.4210854715202004e-014 1 I I #
face $-1 $93 $143 $2 $-1 $285 forward single #
cone-surface $-1 30 0.34999999999999998 -49.649999999999999 1 0 0 0 -0.34999999999999998 0 1 I I 0 1 0.34999999999999998 forward I I I I #
coedge $-1 $140 $156 $286 $287 reversed $157 $-1 #
straight-curve $-1 0 0.34999999999999998 -49.650000000000006 0 0 1 I I #
coedge $-1 $286 $288 $142 $210 forward $289 $-1 #
edge $-1 $201 0 $144 1.5707963267948803 $142 $290 forward 7 unknown #
point $-1 0 0.34999999999999998 -49.650000000000006 #
face $-1 $154 $289 $2 $-1 $291 forward single #
plane-surface $-1 0 0 -50 -1 0 0 0 0 1 forward_v I I I I #
coedge $-1 $292 $293 $148 $215 forward $294 $-1 #
edge $-1 $219 7.1054273576010019e-015 $295 3.8000000000000043 $148 $296 forward 7 unknown #
coedge $-1 $297 $149 $293 $298 reversed $218 $-1 #
coedge $-1 $149 $297 $151 $222 forward $218 $-1 #
loop $-1 $-1 $149 $299 #
vertex $-1 $150 $300 #
straight-curve $-1 30 0 -53.449999999999996 -1 0 0 I I #
coedge $-1 $171 $151 $301 $302 reversed $20 $-1 #
edge $-1 $303 0 $152 2.5 $151 $304 forward 7 unknown #
point $-1 30 0 -53.449999999999996 #
plane-surface $-1 30 0 -49.649999999999999 0 0 1 0 1 0 forward_v I I I I #
coedge $-1 $165 $163 $156 $183 forward $108 $-1 #
face $-1 $305 $176 $2 $-1 $306 forward single #
loop $-1 $-1 $307 $160 #
cone-surface $-1 30 7.6499999999999995 -49.649999999999999 -1 0 0 0 0.34999999999999998 0 1 I I 0 1 0.34999999999999998 forward I I I I #
coedge $-1 $308 $309 $163 $231 reversed $161 $-1 #
coedge $-1 $163 $165 $310 $311 reversed $108 $-1 #
edge $-1 $312 -4.4408920985006309e-015 $257 1.5707963267948963 $229 $313 forward 7 unknown #
coedge $-1 $167 $310 $164 $233 forward $237 $-1 #
edge $-1 $234 0 $169 29.299999999999997 $232 $314 forward 7 unknown #
vertex $-1 $233 $315 #
intcurve-curve $-1 forward { surfintcur full nurbs 3 open 6 
	0 3 0.2084338304787956 1 0.41213566518659611 1 0.61162938398748135 1 0.807383236352057 1 
	1 3 
	0.34999999999999998 7.9999999999999991 -0.35000000000000142 1 
	0.30804327623653593 7.9990838553994186 -0.30804327623653693 1.0000000000000002 
	0.23111549455301408 7.9861218961510021 -0.231115494553014 1 
	0.13227496023956126 7.9311853550603626 -0.13227496023956173 0.99999999999999989 
	0.057056581683530172 7.8518179811595745 -0.05705658168352485 1 
	0.0098756631552595325 7.7524878279978626 -0.0098756631552629464 1.0000000000000002 
	-6.2955262625039752e-006 7.6849537871456768 6.2955262610433372e-006 0.99999999999999978 
	0 7.6499999999999995 0 1 
	0.001 
	cone 0 7.6499999999999995 -0.34999999999999998 1 0 0 0 0.34999999999999998 0 1 I I 0 1 0.34999999999999998 forward I I I I 
	cone 0.34999999999999998 7.6499999999999995 -49.649999999999999 0 0 1 0 0.34999999999999998 0 1 I I 0 1 0.34999999999999998 forward I I I I 
	nullbs 
	nullbs 
	F 1.1707889864551101e-006 I 
	0 
	1 1.1707889864551101e-006 
	0 
	} I I #
coedge $-1 $316 $167 $317 $318 reversed $237 $-1 #
loop $-1 $-1 $310 $319 #
vertex $-1 $318 $320 #
straight-curve $-1 29.649999999999999 8 -0.34999999999999998 0 0 -1 I I #
point $-1 29.649999999999999 7.9999999999999991 -0.34999999999999998 #
coedge $-1 $321 $322 $171 $242 forward $323 $-1 #
edge $-1 $246 0 $324 4 $171 $325 forward 7 unknown #
coedge $-1 $326 $172 $322 $327 forward $245 $-1 #
coedge $-1 $172 $326 $174 $249 reversed $245 $-1 #
loop $-1 $-1 $172 $328 #
vertex $-1 $173 $329 #
straight-curve $-1 30 1.5 -50 0 0 -1 I I #
coedge $-1 $330 $174 $331 $332 reversed $176 $-1 #
edge $-1 $177 0 $333 5 $174 $334 forward 7 unknown #
coedge $-1 $175 $335 $336 $337 forward $176 $-1 #
coedge $-1 $254 $179 $175 $252 forward $255 $-1 #
edge $-1 $118 0 $338 0.35000000000000142 $175 $339 forward 7 unknown #
point $-1 30 1.5 -50 #
coedge $-1 $179 $251 $340 $341 reversed $255 $-1 #
loop $-1 $-1 $179 $305 #
intcurve-curve $-1 forward { surfintcur full nurbs 3 open 6 
	0 3 0.2084338304787958 1 0.41213566518659561 1 0.61162938398748146 1 0.80738323635205722 1 
	0.99999999999999989 3 
	29.649999999999999 7.9999999999999991 -49.649999999999999 1 
	29.691956723763468 7.9990838553994195 -49.691956723763468 0.99999999999999989 
	29.768884505446984 7.9861218961510021 -49.768884505446984 1.0000000000000002 
	29.867725039760433 7.9311853550603635 -49.867725039760437 1 
	29.942943418316464 7.8518179811595736 -49.942943418316467 1 
	29.990124336844747 7.7524878279978644 -49.990124336844744 1 
	30.000006295526255 7.6849537871456723 -50.000006295526255 1.0000000000000002 
	30 7.6499999999999995 -50 1 
	0.001 
	cone 30 7.6499999999999995 -49.649999999999999 -1 0 0 0 0.34999999999999998 0 1 I I 0 1 0.34999999999999998 forward I I I I 
	cone 29.649999999999999 7.6499999999999995 0 0 0 -1 0 0.34999999999999998 0 1 I I 0 1 0.34999999999999998 forward I I I I 
	nullbs 
	nullbs 
	F 1.1707889864549926e-006 I 
	0 
	1 1.1707889864549926e-006 
	0 
	} I I #
vertex $-1 $287 $342 #
straight-curve $-1 0 7.6499999999999995 -49.650000000000006 0 0 1 I I #
coedge $-1 $343 $344 $185 $260 forward $345 $-1 #
edge $-1 $295 0 $264 18 $185 $346 forward 7 unknown #
coedge $-1 $347 $186 $189 $267 reversed $263 $-1 #
coedge $-1 $186 $348 $343 $349 reversed $263 $-1 #
loop $-1 $-1 $348 $350 #
vertex $-1 $260 $351 #
straight-curve $-1 7 0 -53.450000000000003 0 0 1 I I #
coedge $-1 $189 $188 $352 $353 reversed $190 $-1 #
edge $-1 $354 0 $191 2.5 $261 $355 forward 7 unknown #
face $-1 $197 $190 $2 $-1 $356 forward single #
point $-1 7 0 -53.450000000000003 #
coedge $-1 $199 $357 $193 $271 reversed $176 $-1 #
edge $-1 $203 0 $358 1.1499999999999999 $270 $359 forward 7 unknown #
coedge $-1 $194 $196 $360 $361 forward $131 $-1 #
coedge $-1 $362 $352 $194 $274 reversed $363 $-1 #
edge $-1 $364 0 $275 1.2000000000000028 $194 $365 forward 7 unknown #
vertex $-1 $195 $366 #
straight-curve $-1 2 -2.5 -53.449999999999996 0 1 0 I I #
coedge $-1 $367 $368 $196 $278 reversed $369 $-1 #
edge $-1 $358 0 $370 4.6499999999999986 $196 $371 forward 7 unknown #
face $-1 $372 $369 $2 $-1 $373 forward single #
plane-surface $-1 2 0 -50 -1 0 0 0 1 0 forward_v I I I I #
coedge $-1 $374 $199 $288 $375 forward $176 $-1 #
straight-curve $-1 2 0.34999999999999998 -50 -1 0 0 I I #
point $-1 0.35000000000000137 0.34999999999999992 -50 #
point $-1 2 0.34999999999999998 -50 #
sphere-surface $-1 0.34999999999999998 0.34999999999999998 -49.649999999999999 0.34999999999999992 1 0 0 0 0 1 forward_v I I I I #
coedge $-1 $376 $209 $207 $287 forward $289 $-1 #
edge $-1 $144 0 $257 7.2999999999999998 $207 $377 forward 7 unknown #
coedge $-1 $209 $376 $281 $375 reversed $289 $-1 #
loop $-1 $-1 $376 $212 #
ellipse-curve $-1 0.34999999999999998 0.34999999999999998 -49.649999999999999 6.2887508388154126e-031 1 -1.5860328923216458e-016 1.3877787807814457e-015 -5.5511151231257827e-017 -0.35000000000000142 1 I I #
cone-surface $-1 0.34999999999999998 0 -49.649999999999999 0 -1 0 -0.34999999999999998 0 0 1 I I 0 1 0.34999999999999998 forward I I I I #
coedge $-1 $331 $214 $344 $378 forward $294 $-1 #
coedge $-1 $214 $379 $216 $298 forward $294 $-1 #
loop $-1 $-1 $380 $381 #
vertex $-1 $215 $382 #
straight-curve $-1 25 0 -53.450000000000003 0 0 1 I I #
coedge $-1 $217 $216 $383 $384 reversed $218 $-1 #
edge $-1 $385 0 $219 2.5 $293 $386 forward 7 unknown #
face $-1 $381 $218 $2 $-1 $387 forward single #
point $-1 25 0 -53.449999999999996 #
coedge $-1 $383 $388 $221 $302 forward $389 $-1 #
edge $-1 $324 0 $303 1.2000000000000028 $221 $390 forward 7 unknown #
vertex $-1 $302 $391 #
straight-curve $-1 30 -2.5 -53.449999999999996 0 1 0 I I #
face $-1 $392 $255 $2 $-1 $393 forward single #
plane-surface $-1 30 0 -50 0 0 -1 -1 0 0 forward_v I I I I #
coedge $-1 $394 $395 $374 $396 forward $227 $-1 #
coedge $-1 $309 $229 $394 $397 reversed $161 $-1 #
coedge $-1 $229 $308 $376 $398 reversed $161 $-1 #
coedge $-1 $232 $399 $230 $311 forward $237 $-1 #
edge $-1 $312 0 $234 49.299999999999997 $310 $400 forward 7 unknown #
vertex $-1 $401 $402 #
ellipse-curve $-1 0.34999999999999998 7.6499999999999995 -49.649999999999999 0 0 1 -1.1102230246251565e-016 0.34999999999999964 0 1 I I #
straight-curve $-1 0.34999999999999998 8 -0.34999999999999998 1 0 0 I I #
point $-1 0.34999999999999998 7.9999999999999991 -0.34999999999999998 #
coedge $-1 $403 $236 $404 $405 reversed $237 $-1 #
coedge $-1 $340 $406 $236 $318 forward $407 $-1 #
edge $-1 $408 0 $238 3.7999999999999972 $236 $409 forward 7 unknown #
face $-1 $410 $237 $2 $-1 $411 forward single #
point $-1 29.649999999999999 8 -49.649999999999999 #
coedge $-1 $412 $241 $388 $413 forward $323 $-1 #
coedge $-1 $241 $412 $243 $327 reversed $323 $-1 #
loop $-1 $-1 $321 $414 #
vertex $-1 $242 $415 #
straight-curve $-1 30 1.5 -54.649999999999999 0 -1 0 I I #
coedge $-1 $244 $243 $380 $416 reversed $245 $-1 #
edge $-1 $246 0 $417 5 $322 $418 forward 7 unknown #
face $-1 $414 $245 $2 $-1 $419 forward single #
point $-1 30 1.5 -54.649999999999999 #
coedge $-1 $420 $248 $421 $422 forward $176 $-1 #
coedge $-1 $380 $292 $248 $332 forward $294 $-1 #
edge $-1 $423 0 $333 1.1499999999999999 $248 $424 forward 7 unknown #
vertex $-1 $332 $425 #
straight-curve $-1 30 1.5 -50 -1 0 0 I I #
coedge $-1 $250 $426 $427 $428 reversed $176 $-1 #
coedge $-1 $429 $340 $250 $337 reversed $407 $-1 #
edge $-1 $430 0 $338 2.6499999999999995 $250 $431 forward 7 unknown #
vertex $-1 $337 $432 #
straight-curve $-1 30 7.6499999999999995 -50 -1 0 0 I I #
coedge $-1 $336 $317 $254 $341 forward $407 $-1 #
edge $-1 $238 0 $338 1.5707963267949143 $254 $433 forward 7 unknown #
point $-1 0 7.6499999999999995 -49.649999999999999 #
coedge $-1 $421 $259 $262 $349 forward $345 $-1 #
coedge $-1 $259 $421 $292 $378 reversed $345 $-1 #
loop $-1 $-1 $259 $434 #
straight-curve $-1 25 0 -49.649999999999999 -1 0 0 I I #
coedge $-1 $435 $261 $436 $437 reversed $263 $-1 #
coedge $-1 $262 $438 $420 $439 reversed $263 $-1 #
edge $-1 $264 0 $440 1.5707963267948266 $343 $441 forward 7 unknown #
face $-1 $268 $263 $2 $-1 $442 reversed single #
point $-1 7 0 -49.649999999999999 #
coedge $-1 $273 $436 $266 $353 forward $363 $-1 #
edge $-1 $354 0 $275 5 $352 $443 forward 7 unknown #
vertex $-1 $437 $444 #
straight-curve $-1 7 -2.5 -53.449999999999996 0 1 0 I I #
plane-surface $-1 7 -2.5 -53.449999999999996 0 0 1 0 1 0 forward_v I I I I #
coedge $-1 $270 $420 $367 $445 forward $176 $-1 #
vertex $-1 $271 $446 #
straight-curve $-1 2 0.34999999999999998 -50 0 1 0 I I #
coedge $-1 $447 $448 $272 $361 reversed $449 $-1 #
edge $-1 $370 0 $364 4 $272 $450 forward 7 unknown #
coedge $-1 $436 $273 $448 $451 reversed $363 $-1 #
loop $-1 $-1 $352 $452 #
vertex $-1 $274 $453 #
straight-curve $-1 2 -2.5 -54.649999999999999 0 0 1 I I #
point $-1 2 -2.5 -53.449999999999996 #
coedge $-1 $454 $277 $357 $445 reversed $369 $-1 #
coedge $-1 $277 $454 $447 $455 forward $369 $-1 #
loop $-1 $-1 $368 $279 #
vertex $-1 $361 $456 #
straight-curve $-1 2 1.5 -50 0 0 -1 I I #
face $-1 $452 $449 $2 $-1 $457 forward single #
plane-surface $-1 7 1.5 -49.649999999999999 0 1 0 0 0 -1 forward_v I I I I #
coedge $-1 $426 $281 $307 $396 reversed $176 $-1 #
edge $-1 $201 -5.5511151231257827e-017 $458 7.2999999999999998 $281 $459 forward 7 unknown #
coedge $-1 $288 $286 $309 $398 forward $289 $-1 #
straight-curve $-1 0 0.34999999999999998 -49.649999999999999 0 1 0 I I #
edge $-1 $295 0 $423 1.5707963267948266 $344 $460 forward 7 unknown #
coedge $-1 $293 $461 $462 $463 forward $294 $-1 #
coedge $-1 $461 $331 $326 $416 forward $294 $-1 #
face $-1 $434 $294 $2 $-1 $464 forward single #
point $-1 25 0 -49.649999999999999 #
coedge $-1 $462 $301 $297 $384 forward $389 $-1 #
edge $-1 $303 0 $385 5 $383 $465 forward 7 unknown #
vertex $-1 $298 $466 #
straight-curve $-1 25 -2.5 -53.449999999999996 0 1 0 I I #
plane-surface $-1 30 -2.5 -53.449999999999996 0 0 1 0 1 0 forward_v I I I I #
coedge $-1 $301 $462 $321 $413 reversed $389 $-1 #
loop $-1 $-1 $383 $467 #
straight-curve $-1 30 -2.5 -54.649999999999999 0 0 1 I I #
point $-1 30 -2.5 -53.449999999999996 #
face $-1 $468 $407 $2 $-1 $469 forward single #
cone-surface $-1 30 7.6499999999999995 -49.649999999999999 -1 0 0 0 0.34999999999999998 0 1 I I 0 1 0.34999999999999998 forward I I I I #
coedge $-1 $470 $307 $308 $397 forward $227 $-1 #
coedge $-1 $307 $470 $471 $472 forward $227 $-1 #
edge $-1 $473 0 $458 27.799999999999997 $374 $474 forward 7 unknown #
edge $-1 $458 0 $312 1.5707963267948966 $308 $475 forward 7 unknown #
edge $-1 $257 -2.0301221021717149e-014 $458 1.5707963267948803 $309 $476 forward 7 unknown #
coedge $-1 $310 $477 $470 $401 forward $237 $-1 #
straight-curve $-1 0.34999999999999998 8 -49.649999999999999 0 0 1 I I #
edge $-1 $478 0 $312 27.799999999999997 $399 $479 forward 7 unknown #
point $-1 0.35000000000000142 7.9999999999999991 -49.649999999999999 #
coedge $-1 $480 $316 $481 $482 reversed $237 $-1 #
coedge $-1 $483 $484 $316 $405 forward $485 $-1 #
edge $-1 $486 0 $408 2.5 $316 $487 forward 7 unknown #
coedge $-1 $317 $429 $483 $488 reversed $407 $-1 #
loop $-1 $-1 $429 $392 #
vertex $-1 $405 $489 #
straight-curve $-1 29.649999999999999 8 -53.449999999999996 0 0 1 I I #
face $-1 $490 $485 $2 $-1 $491 forward single #
plane-surface $-1 0 8 0 0 1 0 1 0 0 forward_v I I I I #
coedge $-1 $322 $321 $461 $492 reversed $323 $-1 #
edge $-1 $324 0 $493 5 $321 $494 forward 7 unknown #
face $-1 $467 $323 $2 $-1 $495 forward single #
point $-1 30 -2.5 -54.649999999999999 #
edge $-1 $333 0 $417 4.6499999999999986 $380 $496 forward 7 unknown #
vertex $-1 $492 $497 #
straight-curve $-1 30 1.5 -54.649999999999999 -1 0 0 I I #
plane-surface $-1 30 1.5 -49.649999999999999 0 1 0 0 0 -1 forward_v I I I I #
coedge $-1 $357 $330 $348 $439 forward $176 $-1 #
coedge $-1 $344 $343 $330 $422 reversed $345 $-1 #
edge $-1 $423 0 $440 18 $330 $498 forward 7 unknown #
vertex $-1 $422 $499 #
straight-curve $-1 25 0.34999999999999998 -50 0 1 0 I I #
point $-1 25 1.5 -50 #
coedge $-1 $335 $374 $500 $501 reversed $176 $-1 #
coedge $-1 $502 $503 $335 $428 forward $504 $-1 #
edge $-1 $430 0 $505 1.5 $335 $506 forward 7 unknown #
coedge $-1 $406 $336 $503 $507 reversed $407 $-1 #
vertex $-1 $337 $508 #
straight-curve $-1 29.649999999999999 5 -50 0 1 0 I I #
point $-1 29.649999999999999 7.6499999999999995 -50 #
ellipse-curve $-1 29.649999999999999 7.6500000000000057 -49.649999999999999 -1 0 0 0 0.34999999999999432 0 1 I I #
face $-1 $350 $345 $2 $-1 $509 forward single #
coedge $-1 $438 $347 $510 $511 reversed $263 $-1 #
coedge $-1 $352 $362 $347 $437 forward $363 $-1 #
edge $-1 $512 0 $354 1.1999999999999957 $347 $513 forward 7 unknown #
coedge $-1 $348 $435 $454 $514 reversed $263 $-1 #
edge $-1 $440 0 $515 1.1499999999999999 $420 $516 forward 7 unknown #
vertex $-1 $439 $517 #
ellipse-curve $-1 7 0.35000000000001025 -49.649999999999984 1 0 0 0 -0.35000000000001025 -1.4210854715202004e-014 1 I I #
plane-surface $-1 7 0 -50 -1 0 0 0 1 0 forward_v I I I I #
straight-curve $-1 7 -2.5 -53.449999999999996 -1 0 0 I I #
point $-1 7 -2.5 -53.450000000000003 #
edge $-1 $515 0 $358 5 $357 $518 forward 7 unknown #
point $-1 2 1.5 -50 #
coedge $-1 $510 $360 $368 $455 reversed $449 $-1 #
coedge $-1 $360 $510 $362 $451 forward $449 $-1 #
loop $-1 $-1 $448 $372 #
straight-curve $-1 2 1.5 -54.649999999999999 0 -1 0 I I #
edge $-1 $512 0 $364 5 $448 $519 forward 7 unknown #
face $-1 $138 $363 $2 $-1 $520 forward single #
point $-1 2 -2.5 -54.649999999999999 #
coedge $-1 $368 $367 $438 $514 forward $369 $-1 #
edge $-1 $521 0 $370 5 $447 $522 forward 7 unknown #
point $-1 2 1.5 -54.649999999999999 #
plane-surface $-1 7 1.5 -54.649999999999999 0 0 -1 0 -1 0 forward_v I I I I #
vertex $-1 $398 $523 #
straight-curve $-1 0.35000000000000142 0.34999999999999998 -50 0 1 0 I I #
ellipse-curve $-1 25 0.35000000000001025 -49.649999999999984 1 0 0 0 -0.35000000000001025 -1.4210854715202004e-014 1 I I #
coedge $-1 $379 $380 $412 $492 forward $294 $-1 #
coedge $-1 $388 $383 $379 $463 reversed $389 $-1 #
edge $-1 $493 0 $385 1.2000000000000028 $379 $524 forward 7 unknown #
plane-surface $-1 25 0 -50 -1 0 0 0 1 0 forward_v I I I I #
straight-curve $-1 30 -2.5 -53.449999999999996 -1 0 0 I I #
point $-1 25 -2.5 -53.449999999999996 #
face $-1 $299 $389 $2 $-1 $525 forward single #
face $-1 $526 $504 $2 $-1 $527 forward single #
plane-surface $-1 29.649999999999999 8 -53.449999999999996 1 0 0 0 0 1 forward_v I I I I #
coedge $-1 $395 $394 $399 $401 reversed $227 $-1 #
coedge $-1 $528 $500 $395 $472 reversed $529 $-1 #
edge $-1 $478 1.0303489374314676e-028 $473 1.5707963267948255 $395 $530 forward 7 unknown #
vertex $-1 $501 $531 #
straight-curve $-1 28.149999999999999 7.6499999999999995 -50 -1 0 0 I I #
ellipse-curve $-1 0.34999999999999998 7.6499999999999995 -49.649999999999999 1 0 3.965082230804114e-015 1.3877787807814457e-015 0 -0.35000000000000142 1 I I #
ellipse-curve $-1 0.34999999999999998 7.6499999999999995 -49.649999999999999 0 -1 0 -0.34999999999999998 0 -7.1054273576010019e-015 1 I I #
coedge $-1 $399 $480 $528 $532 reversed $237 $-1 #
vertex $-1 $401 $533 #
straight-curve $-1 28.149999999999999 8 -49.649999999999999 -1 0 0 I I #
coedge $-1 $477 $403 $534 $535 reversed $237 $-1 #
coedge $-1 $536 $537 $403 $482 forward $538 $-1 #
edge $-1 $539 0 $486 1.2000000000000028 $403 $540 forward 7 unknown #
coedge $-1 $541 $404 $406 $488 forward $485 $-1 #
coedge $-1 $404 $541 $536 $542 reversed $485 $-1 #
loop $-1 $-1 $483 $410 #
vertex $-1 $482 $543 #
straight-curve $-1 32.149999999999999 8 -53.449999999999996 -1 0 0 I I #
edge $-1 $408 0 $544 3 $483 $545 forward 7 unknown #
point $-1 29.649999999999999 8 -53.449999999999996 #
face $-1 $546 $538 $2 $-1 $547 forward single #
plane-surface $-1 32.149999999999999 8 -53.449999999999996 0 0 1 -1 0 0 forward_v I I I I #
edge $-1 $417 0 $493 4 $461 $548 forward 7 unknown #
vertex $-1 $463 $549 #
straight-curve $-1 30 -2.5 -54.649999999999999 -1 0 0 I I #
plane-surface $-1 30 1.5 -54.649999999999999 0 0 -1 0 -1 0 forward_v I I I I #
straight-curve $-1 25 1.5 -50 0 0 -1 I I #
point $-1 25 1.5 -54.649999999999999 #
straight-curve $-1 25 0.34999999999999998 -50 -1 0 0 I I #
point $-1 25 0.34999999999999998 -50 #
coedge $-1 $471 $550 $426 $501 forward $529 $-1 #
edge $-1 $505 0 $473 2.6500000000000004 $426 $551 forward 7 unknown #
coedge $-1 $552 $427 $550 $553 forward $504 $-1 #
coedge $-1 $427 $554 $429 $507 forward $504 $-1 #
loop $-1 $-1 $427 $468 #
vertex $-1 $428 $555 #
straight-curve $-1 29.649999999999999 5 -50 -1 0 0 I I #
edge $-1 $544 0 $430 3.4499999999999957 $503 $556 forward 7 unknown #
point $-1 29.649999999999999 5 -50 #
cone-surface $-1 30 0.34999999999999998 -49.649999999999999 1 0 0 0 -0.34999999999999998 0 1 I I 0 1 0.34999999999999998 forward I I I I #
coedge $-1 $448 $447 $435 $511 forward $449 $-1 #
edge $-1 $521 0 $512 4 $435 $557 forward 7 unknown #
vertex $-1 $511 $558 #
straight-curve $-1 7 -2.5 -54.649999999999999 0 0 1 I I #
edge $-1 $515 0 $521 4.6499999999999986 $438 $559 forward 7 unknown #
vertex $-1 $445 $560 #
straight-curve $-1 7 0.34999999999999998 -50 0 1 0 I I #
point $-1 7 0.34999999999999998 -50 #
straight-curve $-1 7 1.5 -50 -1 0 0 I I #
straight-curve $-1 7 -2.5 -54.649999999999999 -1 0 0 I I #
plane-surface $-1 7 -2.5 -54.649999999999999 0 -1 0 0 0 1 forward_v I I I I #
vertex $-1 $514 $561 #
straight-curve $-1 7 1.5 -54.649999999999999 -1 0 0 I I #
point $-1 0.35000000000000137 7.6499999999999995 -50 #
straight-curve $-1 25 -2.5 -54.649999999999999 0 0 1 I I #
plane-surface $-1 30 -2.5 -54.649999999999999 0 -1 0 0 0 1 forward_v I I I I #
face $-1 $319 $529 $2 $-1 $562 forward single #
plane-surface $-1 0 5 0 0 -1 0 -1 0 0 forward_v I I I I #
coedge $-1 $563 $471 $477 $532 forward $529 $-1 #
loop $-1 $-1 $471 $526 #
ellipse-curve $-1 28.149999999999999 7.6499999999999897 -49.649999999999984 -1 0 0 0 0.3500000000000103 -1.4210854715202004e-014 1 I I #
point $-1 28.149999999999999 7.6500000000000004 -50 #
edge $-1 $478 0 $564 5 $477 $565 forward 7 unknown #
point $-1 28.149999999999999 7.9999999999999991 -49.649999999999999 #
coedge $-1 $566 $567 $480 $535 forward $568 $-1 #
edge $-1 $564 0 $539 4 $480 $569 forward 7 unknown #
coedge $-1 $570 $481 $484 $542 forward $538 $-1 #
coedge $-1 $481 $570 $566 $571 reversed $538 $-1 #
loop $-1 $-1 $536 $490 #
vertex $-1 $535 $572 #
straight-curve $-1 32.149999999999999 8 -54.649999999999999 0 0 1 I I #
coedge $-1 $484 $483 $554 $573 reversed $485 $-1 #
edge $-1 $486 0 $574 3 $536 $575 forward 7 unknown #
point $-1 32.149999999999999 8 -53.449999999999996 #
vertex $-1 $507 $576 #
straight-curve $-1 29.649999999999999 8 -53.449999999999996 0 -1 0 I I #
face $-1 $328 $568 $2 $-1 $577 forward single #
plane-surface $-1 32.149999999999999 8 -54.649999999999999 1 0 0 0 0 1 forward_v I I I I #
straight-curve $-1 25 1.5 -54.649999999999999 0 -1 0 I I #
point $-1 25 -2.5 -54.649999999999999 #
coedge $-1 $500 $563 $502 $553 reversed $529 $-1 #
straight-curve $-1 28.149999999999999 5 -50 0 1 0 I I #
coedge $-1 $578 $502 $579 $580 forward $504 $-1 #
edge $-1 $505 0 $581 4.6499999999999986 $502 $582 forward 7 unknown #
coedge $-1 $503 $578 $541 $573 forward $504 $-1 #
point $-1 28.149999999999999 5 -50 #
straight-curve $-1 29.649999999999999 5 -53.449999999999996 0 0 1 I I #
straight-curve $-1 7 1.5 -54.649999999999999 0 -1 0 I I #
point $-1 7 -2.5 -54.649999999999999 #
straight-curve $-1 7 1.5 -50 0 0 -1 I I #
point $-1 7 1.5 -50 #
point $-1 7 1.5 -54.649999999999999 #
plane-surface $-1 28.149999999999999 8 -49.649999999999999 -1 0 0 0 0 -1 forward_v I I I I #
coedge $-1 $550 $528 $567 $583 forward $529 $-1 #
vertex $-1 $532 $584 #
straight-curve $-1 28.149999999999999 8 -49.649999999999999 0 0 -1 I I #
coedge $-1 $579 $534 $537 $571 forward $568 $-1 #
coedge $-1 $534 $579 $563 $583 reversed $568 $-1 #
loop $-1 $-1 $566 $546 #
straight-curve $-1 28.149999999999999 8 -54.649999999999999 1 0 0 I I #
coedge $-1 $537 $536 $578 $585 reversed $538 $-1 #
edge $-1 $539 0 $586 3 $566 $587 forward 7 unknown #
point $-1 32.149999999999999 8 -54.649999999999999 #
edge $-1 $574 0 $544 2.5 $554 $588 forward 7 unknown #
vertex $-1 $573 $589 #
straight-curve $-1 32.149999999999999 8 -53.449999999999996 0 -1 0 I I #
point $-1 29.649999999999999 5 -53.449999999999996 #
plane-surface $-1 28.149999999999999 8 -54.649999999999999 0 0 -1 1 0 0 forward_v I I I I #
coedge $-1 $554 $552 $570 $585 forward $504 $-1 #
coedge $-1 $567 $566 $552 $580 reversed $568 $-1 #
edge $-1 $581 0 $586 4 $552 $590 forward 7 unknown #
vertex $-1 $580 $591 #
straight-curve $-1 28.149999999999999 5 -50 0 0 -1 I I #
edge $-1 $564 0 $581 3 $567 $592 forward 7 unknown #
point $-1 28.149999999999999 8 -54.649999999999999 #
edge $-1 $586 0 $574 1.2000000000000028 $578 $593 forward 7 unknown #
vertex $-1 $585 $594 #
straight-curve $-1 32.149999999999999 8 -54.649999999999999 0 -1 0 I I #
straight-curve $-1 32.149999999999999 5 -53.449999999999996 -1 0 0 I I #
point $-1 32.149999999999999 5 -53.449999999999996 #
straight-curve $-1 28.149999999999999 5 -54.649999999999999 1 0 0 I I #
point $-1 28.149999999999999 5 -54.649999999999999 #
straight-curve $-1 28.149999999999999 8 -54.649999999999999 0 -1 0 I I #
straight-curve $-1 32.149999999999999 5 -54.649999999999999 0 0 1 I I #
point $-1 32.149999999999999 5 -54.649999999999999 #
End-of-ACIS-data 