600 0 1 0           
109 GICL Pro/E ACIS Translator - Source: f:/data5/repository/PTC/V18/cabecad18/ptc_comp/new_transformer.prt - 6 0 13 ACIS 6.0.3 NT 24 Thu Apr 04 13:39:32 2002 
1 9.9999999999999995e-007 1e-010 
body $-1 $1 $-1 $-1 #
lump $-1 $-1 $2 $0 #
shell $-1 $-1 $-1 $3 $-1 $1 #
face $-1 $4 $5 $2 $-1 $6 reversed single #
face $-1 $7 $8 $2 $-1 $9 forward single #
loop $-1 $-1 $10 $3 #
plane-surface $-1 0 0 0 0 1 0 1 0 0 forward_v I I I I #
face $-1 $11 $12 $2 $-1 $13 forward single #
loop $-1 $-1 $14 $4 #
cone-surface $-1 0 1 6.5 -1 0 0 0 -1 0 1 I I 0 1 1 forward I I I I #
coedge $-1 $15 $16 $17 $18 reversed $5 $-1 #
face $-1 $19 $20 $2 $-1 $21 forward single #
loop $-1 $-1 $22 $7 #
sphere-surface $-1 14 1 6.5 0.99999999999999989 1 0 0 0 0 1 forward_v I I I I #
coedge $-1 $23 $17 $24 $25 forward $8 $-1 #
coedge $-1 $26 $10 $27 $28 forward $5 $-1 #
coedge $-1 $10 $26 $29 $30 forward $5 $-1 #
coedge $-1 $14 $31 $10 $18 forward $8 $-1 #
edge $-1 $32 0 $33 13 $10 $34 forward 7 unknown #
face $-1 $35 $36 $2 $-1 $37 reversed single #
loop $-1 $-1 $38 $11 #
cone-surface $-1 14 1 6.5 0 -1 0 1 0 0 1 I I 0 1 1 forward I I I I #
coedge $-1 $24 $39 $40 $41 reversed $12 $-1 #
coedge $-1 $31 $14 $42 $43 reversed $8 $-1 #
coedge $-1 $39 $22 $14 $25 reversed $12 $-1 #
edge $-1 $33 0 $44 1.5707963267948966 $24 $45 forward 7 unknown #
coedge $-1 $16 $15 $46 $47 forward $5 $-1 #
coedge $-1 $48 $49 $15 $28 reversed $50 $-1 #
edge $-1 $32 0 $51 13 $15 $52 forward 7 unknown #
coedge $-1 $53 $54 $16 $30 reversed $55 $-1 #
edge $-1 $56 0 $33 13 $16 $57 forward 7 unknown #
coedge $-1 $17 $23 $58 $59 forward $8 $-1 #
vertex $-1 $28 $60 #
vertex $-1 $30 $61 #
straight-curve $-1 1 0 6.5 1 0 0 I I #
face $-1 $62 $63 $2 $-1 $64 forward single #
loop $-1 $65 $66 $19 #
plane-surface $-1 0 5 0 0 1 0 1 0 0 forward_v I I I I #
coedge $-1 $67 $68 $69 $70 forward $20 $-1 #
coedge $-1 $22 $24 $54 $71 reversed $12 $-1 #
coedge $-1 $68 $67 $22 $41 forward $20 $-1 #
edge $-1 $44 0 $72 1.5707963267948966 $22 $73 forward 7 unknown #
coedge $-1 $74 $75 $23 $43 forward $76 $-1 #
edge $-1 $77 0 $44 13 $42 $78 forward 7 unknown #
vertex $-1 $79 $80 #
ellipse-curve $-1 14 1 6.5 -1 0 0 0 -1 0 1 I I #
coedge $-1 $81 $82 $26 $47 reversed $83 $-1 #
edge $-1 $51 0 $56 13 $26 $84 forward 7 unknown #
coedge $-1 $85 $27 $86 $87 forward $50 $-1 #
coedge $-1 $27 $85 $88 $89 forward $50 $-1 #
loop $-1 $-1 $49 $90 #
vertex $-1 $47 $91 #
straight-curve $-1 0.99999999999999989 0 6.5 0 0 -1 I I #
coedge $-1 $92 $29 $93 $94 forward $55 $-1 #
coedge $-1 $29 $92 $39 $71 forward $55 $-1 #
loop $-1 $-1 $54 $95 #
vertex $-1 $30 $96 #
straight-curve $-1 14 0 -6.5 0 0 1 I I #
coedge $-1 $97 $86 $31 $59 reversed $98 $-1 #
edge $-1 $77 1.1102230246251565e-016 $32 1.5707963267948966 $58 $99 forward 7 unknown #
point $-1 1 0 6.5 #
point $-1 14 0 6.5 #
face $-1 $100 $101 $2 $-1 $102 forward single #
loop $-1 $-1 $103 $35 #
cone-surface $-1 1 1 6.5 0 -1 0 0 0 1 1 I I 0 1 1 forward I I I I #
loop $-1 $-1 $104 $19 #
coedge $-1 $105 $106 $103 $107 reversed $36 $-1 #
coedge $-1 $40 $38 $74 $79 reversed $20 $-1 #
coedge $-1 $38 $40 $108 $109 forward $20 $-1 #
coedge $-1 $110 $105 $38 $70 reversed $36 $-1 #
edge $-1 $111 0 $112 1.5707963267948983 $69 $113 forward 7 unknown #
edge $-1 $72 0 $33 1.5707963267948966 $39 $114 forward 7 unknown #
vertex $-1 $115 $116 #
ellipse-curve $-1 14 1 6.5 0 1 0 0 0 1 1 I I #
coedge $-1 $117 $42 $67 $79 forward $76 $-1 #
coedge $-1 $42 $117 $118 $119 reversed $76 $-1 #
loop $-1 $-1 $75 $120 #
vertex $-1 $43 $121 #
straight-curve $-1 1 0.99999999999999989 7.5 1 0 0 I I #
edge $-1 $44 -1.1102230246251565e-016 $112 4 $74 $122 forward 7 unknown #
point $-1 14 0.99999999999999989 7.5 #
coedge $-1 $123 $46 $124 $125 forward $83 $-1 #
coedge $-1 $46 $123 $126 $127 forward $83 $-1 #
loop $-1 $-1 $81 $128 #
straight-curve $-1 1 0 -6.5 1 0 0 I I #
coedge $-1 $49 $48 $129 $130 forward $50 $-1 #
coedge $-1 $58 $97 $48 $87 reversed $98 $-1 #
edge $-1 $32 0 $131 1.5707963267948966 $86 $132 forward 7 unknown #
coedge $-1 $133 $124 $49 $89 reversed $134 $-1 #
edge $-1 $135 0 $51 1.5707963267948966 $88 $136 forward 7 unknown #
face $-1 $137 $50 $2 $-1 $138 forward single #
point $-1 1 0 -6.5 #
coedge $-1 $54 $53 $139 $115 forward $55 $-1 #
coedge $-1 $126 $140 $53 $94 reversed $141 $-1 #
edge $-1 $56 0 $142 1.5707963267948966 $93 $143 forward 7 unknown #
face $-1 $144 $55 $2 $-1 $145 forward single #
point $-1 14 0 -6.5 #
coedge $-1 $86 $58 $146 $147 reversed $98 $-1 #
loop $-1 $-1 $97 $137 #
ellipse-curve $-1 1 1 6.5 1 0 -2.2204460492503131e-016 2.2204460492503131e-016 0 1 1 I I #
face $-1 $148 $149 $2 $-1 $150 forward single #
loop $-1 $-1 $151 $62 #
plane-surface $-1 0 0 0 -1 0 0 0 0 1 forward_v I I I I #
coedge $-1 $152 $118 $66 $107 forward $63 $-1 #
coedge $-1 $153 $154 $155 $156 reversed $65 $-1 #
coedge $-1 $69 $66 $117 $157 forward $36 $-1 #
coedge $-1 $66 $158 $159 $160 reversed $36 $-1 #
edge $-1 $161 0 $162 1.5707963267948981 $66 $163 forward 7 unknown #
coedge $-1 $139 $164 $68 $109 reversed $165 $-1 #
edge $-1 $72 0 $111 4 $108 $166 forward 7 unknown #
coedge $-1 $167 $69 $164 $168 reversed $36 $-1 #
vertex $-1 $168 $169 #
vertex $-1 $157 $170 #
ellipse-curve $-1 14 5 6.5000000000000018 0 -1 0 1 0 -1.7763568394002505e-015 1 I I #
ellipse-curve $-1 14 1 6.5 0 0 -1 1 0 0 1 I I #
edge $-1 $142 0 $72 13 $139 $171 forward 7 unknown #
point $-1 15 1 6.5 #
coedge $-1 $75 $74 $105 $157 reversed $76 $-1 #
coedge $-1 $103 $146 $75 $119 forward $63 $-1 #
edge $-1 $77 -1.1102230246251565e-016 $161 4 $75 $172 forward 7 unknown #
face $-1 $173 $76 $2 $-1 $174 forward single #
point $-1 1 0.99999999999999989 7.5 #
straight-curve $-1 14 1 7.5 0 1 0 I I #
coedge $-1 $82 $81 $175 $176 forward $83 $-1 #
coedge $-1 $88 $133 $81 $125 reversed $134 $-1 #
edge $-1 $51 0 $177 1.5707963267948966 $124 $178 forward 7 unknown #
coedge $-1 $140 $93 $82 $127 reversed $141 $-1 #
edge $-1 $179 1.1102230246251565e-016 $56 1.5707963267948966 $126 $180 forward 7 unknown #
face $-1 $181 $83 $2 $-1 $182 forward single #
coedge $-1 $151 $183 $85 $130 reversed $101 $-1 #
edge $-1 $131 0 $135 13 $129 $184 forward 7 unknown #
vertex $-1 $130 $185 #
ellipse-curve $-1 1 1 6.5 0 0 -1 0 -1 0 1 I I #
coedge $-1 $124 $88 $186 $187 reversed $134 $-1 #
loop $-1 $-1 $133 $148 #
vertex $-1 $130 $188 #
ellipse-curve $-1 1 1 -6.5 0 0 1 -1.0000000000000002 0 0 1 I I #
face $-1 $120 $98 $2 $-1 $189 forward single #
cone-surface $-1 1 1 7.5 0 0 1 -1 0 0 1 I I 0 1 1 forward I I I I #
coedge $-1 $190 $108 $92 $115 reversed $165 $-1 #
coedge $-1 $93 $126 $191 $192 reversed $141 $-1 #
loop $-1 $-1 $140 $193 #
vertex $-1 $194 $195 #
ellipse-curve $-1 14 1 -6.5 0 0 1 0 -1 0 1 I I #
face $-1 $90 $165 $2 $-1 $196 forward single #
cone-surface $-1 14 1 -7.5 0 0 -1 1 0 0 1 I I 0 1 1 forward I I I I #
coedge $-1 $118 $152 $97 $147 forward $63 $-1 #
edge $-1 $131 0 $77 1.5707963267948966 $97 $197 forward 7 unknown #
face $-1 $128 $134 $2 $-1 $198 forward single #
loop $-1 $-1 $186 $100 #
cone-surface $-1 1 1 -6.5 0 1 0 0 0 -1 1 I I 0 1 1 forward I I I I #
coedge $-1 $159 $129 $152 $199 forward $101 $-1 #
coedge $-1 $146 $103 $151 $199 reversed $63 $-1 #
coedge $-1 $200 $104 $201 $202 reversed $65 $-1 #
coedge $-1 $104 $203 $204 $205 forward $65 $-1 #
coedge $-1 $206 $207 $104 $156 forward $208 $-1 #
edge $-1 $209 0 $210 1.5707963267948966 $104 $211 forward 7 unknown #
edge $-1 $161 0 $112 13 $117 $212 forward 7 unknown #
coedge $-1 $106 $213 $214 $215 forward $36 $-1 #
coedge $-1 $183 $151 $106 $160 forward $101 $-1 #
edge $-1 $162 0 $216 13 $159 $217 forward 7 unknown #
vertex $-1 $157 $218 #
vertex $-1 $160 $219 #
ellipse-curve $-1 0.99999999999999933 5 6.5000000000000009 0 -1 0 6.6613381477509392e-016 0 0.99999999999999911 1 I I #
coedge $-1 $108 $190 $110 $168 forward $165 $-1 #
loop $-1 $-1 $108 $144 #
straight-curve $-1 15 1 6.5 0 1 0 I I #
coedge $-1 $213 $110 $220 $221 forward $36 $-1 #
edge $-1 $222 0 $111 13 $164 $223 forward 7 unknown #
point $-1 15 5 6.5 #
point $-1 14 5 7.5 #
straight-curve $-1 15 1 -6.5 0 0 1 I I #
straight-curve $-1 1 1 7.5 0 1 0 I I #
face $-1 $224 $208 $2 $-1 $225 forward single #
plane-surface $-1 0 0 7.5 0 0 1 1 0 0 forward_v I I I I #
coedge $-1 $226 $227 $123 $176 reversed $228 $-1 #
edge $-1 $177 0 $179 13 $175 $229 forward 7 unknown #
vertex $-1 $125 $230 #
ellipse-curve $-1 1 1 -6.5 1 0 0 0 -1 0 1 I I #
vertex $-1 $176 $231 #
ellipse-curve $-1 14 1 -6.5 -1 0 0 0 0 -1 1 I I #
face $-1 $232 $228 $2 $-1 $233 reversed single #
cone-surface $-1 0 1 -6.5 1 0 0 0 -1 0 1 I I 0 1 1 forward I I I I #
coedge $-1 $129 $159 $234 $235 reversed $101 $-1 #
straight-curve $-1 0 1 6.5 0 0 -1 I I #
point $-1 0 1 6.5 #
coedge $-1 $234 $236 $133 $187 forward $149 $-1 #
edge $-1 $177 0 $135 1.5707963267948966 $133 $237 forward 7 unknown #
point $-1 0 1 -6.5 #
sphere-surface $-1 1 1 6.5 0.99999999999999989 1 0 0 0 0 1 forward_v I I I I #
coedge $-1 $164 $139 $238 $194 forward $165 $-1 #
coedge $-1 $239 $238 $140 $192 forward $240 $-1 #
edge $-1 $142 0 $179 1.5707963267948966 $140 $241 forward 7 unknown #
face $-1 $95 $141 $2 $-1 $242 forward single #
edge $-1 $142 0 $222 4 $190 $243 forward 7 unknown #
point $-1 15 1 -6.5 #
plane-surface $-1 15 0 7.5 1 0 0 0 0 -1 forward_v I I I I #
ellipse-curve $-1 1 1 6.5 0 1 0 -0.99999999999999989 0 0 1 I I #
sphere-surface $-1 1 1 -6.5 0.99999999999999989 1 0 0 0 0 1 forward_v I I I I #
edge $-1 $131 0 $162 4 $151 $244 forward 7 unknown #
coedge $-1 $245 $153 $246 $247 reversed $65 $-1 #
coedge $-1 $248 $249 $153 $202 forward $250 $-1 #
edge $-1 $251 0 $209 17 $153 $252 forward 7 unknown #
coedge $-1 $154 $253 $254 $255 forward $65 $-1 #
coedge $-1 $256 $257 $154 $205 reversed $258 $-1 #
edge $-1 $259 0 $210 17 $154 $260 forward 7 unknown #
coedge $-1 $261 $155 $257 $262 forward $208 $-1 #
coedge $-1 $155 $261 $248 $263 reversed $208 $-1 #
loop $-1 $-1 $206 $173 #
vertex $-1 $202 $264 #
vertex $-1 $205 $265 #
ellipse-curve $-1 16 5 8.5 0 1 0 0 0 1.5 1 I I #
straight-curve $-1 1 5 7.5 1 0 0 I I #
coedge $-1 $158 $167 $266 $267 reversed $36 $-1 #
coedge $-1 $236 $234 $158 $215 reversed $149 $-1 #
edge $-1 $268 0 $216 1.5707963267948981 $158 $269 forward 7 unknown #
vertex $-1 $235 $270 #
straight-curve $-1 0 5 6.5 0 0 -1 I I #
point $-1 1 5 7.5 #
point $-1 0 5 6.5 #
coedge $-1 $238 $239 $167 $221 reversed $240 $-1 #
edge $-1 $222 0 $271 1.5707963267948983 $167 $272 forward 7 unknown #
vertex $-1 $168 $273 #
straight-curve $-1 15 5 -6.5 0 0 1 I I #
face $-1 $274 $258 $2 $-1 $275 forward single #
cone-surface $-1 16 5 8.5 0 1 0 1.5 0 0 1 I I 0 1 1.5 forward I I I I #
coedge $-1 $266 $175 $236 $276 forward $228 $-1 #
coedge $-1 $175 $266 $239 $277 reversed $228 $-1 #
loop $-1 $-1 $227 $181 #
straight-curve $-1 1 0.99999999999999989 -7.5 1 0 0 I I #
point $-1 1 0.99999999999999989 -7.5 #
point $-1 14 0.99999999999999989 -7.5 #
face $-1 $193 $240 $2 $-1 $278 forward single #
plane-surface $-1 0 0 -7.5 0 0 1 1 0 0 forward_v I I I I #
coedge $-1 $214 $186 $183 $235 forward $149 $-1 #
edge $-1 $135 0 $216 4 $183 $279 forward 7 unknown #
coedge $-1 $186 $214 $226 $276 reversed $149 $-1 #
ellipse-curve $-1 1 1 -6.5 0 1 0 0 0 -1 1 I I #
coedge $-1 $191 $220 $190 $194 reversed $240 $-1 #
coedge $-1 $220 $191 $227 $277 forward $240 $-1 #
loop $-1 $-1 $191 $232 #
ellipse-curve $-1 14 1 -6.5 0 1 0 1 0 0 1 I I #
sphere-surface $-1 14 1 -6.5 0.99999999999999989 1 0 0 0 0 1 forward_v I I I I #
straight-curve $-1 15 1 -6.5 0 1 0 I I #
straight-curve $-1 0 1 6.5 0 1 0 I I #
coedge $-1 $280 $200 $281 $282 forward $65 $-1 #
coedge $-1 $283 $284 $200 $247 forward $285 $-1 #
edge $-1 $286 0 $251 1.5707963267948966 $200 $287 forward 7 unknown #
coedge $-1 $288 $201 $207 $263 forward $250 $-1 #
coedge $-1 $201 $288 $283 $289 reversed $250 $-1 #
loop $-1 $-1 $248 $290 #
vertex $-1 $247 $291 #
straight-curve $-1 -1 5 10 1 0 0 I I #
coedge $-1 $203 $280 $292 $293 forward $65 $-1 #
coedge $-1 $294 $295 $203 $255 reversed $296 $-1 #
edge $-1 $297 0 $259 1.5707963267948966 $203 $298 forward 7 unknown #
coedge $-1 $299 $204 $295 $300 forward $258 $-1 #
coedge $-1 $204 $299 $206 $262 reversed $258 $-1 #
loop $-1 $-1 $257 $224 #
vertex $-1 $205 $301 #
straight-curve $-1 17.5 5 -8.5 0 0 1 I I #
coedge $-1 $207 $206 $302 $303 reversed $208 $-1 #
edge $-1 $210 0 $304 30 $206 $305 forward 7 unknown #
edge $-1 $209 0 $306 30 $248 $307 forward 7 unknown #
point $-1 16 5 10 #
point $-1 17.5 5 8.5 #
coedge $-1 $227 $226 $213 $267 forward $228 $-1 #
edge $-1 $268 0 $271 13 $213 $308 forward 7 unknown #
vertex $-1 $215 $309 #
ellipse-curve $-1 0.99999999999999933 5 -6.5000000000000009 0 1 0 6.6613381477509392e-016 0 -0.99999999999999911 1 I I #
point $-1 0 5 -6.5 #
vertex $-1 $267 $310 #
ellipse-curve $-1 14 5 -6.5000000000000018 0 1 0 1 0 1.7763568394002505e-015 1 I I #
point $-1 15 5 -6.5 #
face $-1 $311 $296 $2 $-1 $312 forward single #
plane-surface $-1 17.5 5 8.5 1 0 0 0 0 -1 forward_v I I I I #
edge $-1 $177 -1.1102230246251565e-016 $268 4 $226 $313 forward 7 unknown #
edge $-1 $179 -1.1102230246251565e-016 $271 4 $227 $314 forward 7 unknown #
cone-surface $-1 14 1 -6.5 0 1 0 1 0 0 1 I I 0 1 1 forward I I I I #
straight-curve $-1 0 1 -6.5 0 1 0 I I #
coedge $-1 $253 $245 $315 $316 forward $65 $-1 #
coedge $-1 $317 $318 $245 $282 reversed $319 $-1 #
edge $-1 $286 0 $320 17 $245 $321 forward 7 unknown #
coedge $-1 $322 $246 $249 $289 forward $285 $-1 #
coedge $-1 $246 $322 $317 $323 reversed $285 $-1 #
loop $-1 $-1 $283 $324 #
vertex $-1 $282 $325 #
ellipse-curve $-1 -1 5 8.5 0 1 0 -1.5 0 0 1 I I #
coedge $-1 $249 $248 $326 $327 reversed $250 $-1 #
edge $-1 $251 1.6434602192104412e-033 $328 30 $249 $329 forward 7 unknown #
face $-1 $330 $250 $2 $-1 $331 forward single #
point $-1 -1 5 10 #
coedge $-1 $332 $333 $253 $293 reversed $334 $-1 #
edge $-1 $335 0 $297 17 $253 $336 forward 7 unknown #
coedge $-1 $337 $254 $333 $338 forward $296 $-1 #
coedge $-1 $254 $337 $256 $300 reversed $296 $-1 #
loop $-1 $-1 $294 $274 #
vertex $-1 $255 $339 #
ellipse-curve $-1 16 5 -8.5 0 -1 0 0 0 -1.5 1 I I #
coedge $-1 $257 $256 $340 $341 reversed $258 $-1 #
edge $-1 $259 0 $342 30 $256 $343 forward 7 unknown #
point $-1 17.5 5 -8.5 #
coedge $-1 $340 $326 $261 $303 forward $344 $-1 #
edge $-1 $306 0 $304 1.570796326794899 $302 $345 forward 7 unknown #
vertex $-1 $341 $346 #
straight-curve $-1 17.5 5 8.5 0 1 0 I I #
vertex $-1 $303 $347 #
straight-curve $-1 16 5 10 0 1 0 I I #
straight-curve $-1 1 5 -7.5 1 0 0 I I #
point $-1 1 5 -7.5 #
point $-1 14 5 -7.5 #
face $-1 $348 $334 $2 $-1 $349 reversed single #
cone-surface $-1 16 5 -8.5 0 -1 0 1.5 0 0 1 I I 0 1 1.5 forward I I I I #
straight-curve $-1 1 1 -7.5 0 1 0 I I #
straight-curve $-1 14 1 -7.5 0 1 0 I I #
coedge $-1 $350 $351 $280 $316 reversed $352 $-1 #
edge $-1 $320 0 $335 1.5707963267948966 $280 $353 forward 7 unknown #
coedge $-1 $354 $281 $284 $323 forward $319 $-1 #
coedge $-1 $281 $354 $350 $355 reversed $319 $-1 #
loop $-1 $-1 $317 $356 #
vertex $-1 $316 $357 #
straight-curve $-1 -2.5 5 8.5 0 0 -1 I I #
coedge $-1 $284 $283 $358 $359 reversed $285 $-1 #
edge $-1 $286 0 $360 30 $317 $361 forward 7 unknown #
face $-1 $290 $285 $2 $-1 $362 forward single #
point $-1 -2.5 5 8.5 #
coedge $-1 $302 $358 $288 $327 forward $344 $-1 #
edge $-1 $328 0 $306 17 $326 $363 forward 7 unknown #
vertex $-1 $327 $364 #
straight-curve $-1 -1.0000000000000002 5 10 7.4014868308343768e-018 1 0 I I #
face $-1 $365 $344 $2 $-1 $366 forward single #
plane-surface $-1 -1 5 10 0 0 1 1 0 0 forward_v I I I I #
coedge $-1 $367 $292 $351 $368 forward $334 $-1 #
coedge $-1 $292 $367 $294 $338 reversed $334 $-1 #
loop $-1 $-1 $332 $311 #
vertex $-1 $293 $369 #
straight-curve $-1 -1 5 -10 1 0 0 I I #
coedge $-1 $295 $294 $370 $371 forward $296 $-1 #
edge $-1 $297 0 $372 30 $333 $373 forward 7 unknown #
point $-1 16 5 -10 #
coedge $-1 $370 $302 $299 $341 forward $344 $-1 #
edge $-1 $304 0 $342 17 $340 $374 forward 7 unknown #
vertex $-1 $371 $375 #
straight-curve $-1 17.5 5 -8.5 0 1 0 I I #
loop $-1 $376 $358 $330 #
ellipse-curve $-1 16 35 8.5000000000000036 0 1 0 0 0 1.4999999999999964 1 I I #
point $-1 17.5 35 8.5 #
point $-1 16 35 10 #
face $-1 $356 $352 $2 $-1 $377 forward single #
plane-surface $-1 -1 5 -10 0 0 1 1 0 0 forward_v I I I I #
coedge $-1 $378 $315 $318 $355 forward $352 $-1 #
coedge $-1 $315 $378 $332 $368 reversed $352 $-1 #
loop $-1 $-1 $350 $348 #
ellipse-curve $-1 -1 5 -8.5 0 -1 0 -1.5 0 0 1 I I #
coedge $-1 $318 $317 $379 $380 reversed $319 $-1 #
edge $-1 $320 0 $381 30 $318 $382 forward 7 unknown #
face $-1 $324 $319 $2 $-1 $383 forward single #
point $-1 -2.5 5 -8.5 #
coedge $-1 $326 $379 $322 $359 forward $344 $-1 #
edge $-1 $360 0 $328 1.5707963267948959 $358 $384 forward 7 unknown #
vertex $-1 $380 $385 #
straight-curve $-1 -2.5 5 8.5 0 1 0 I I #
cone-surface $-1 -1 5 8.5 0 1 0 1.5 0 0 1 I I 0 1 1.5 forward I I I I #
straight-curve $-1 -1 35 10 1 0 0 I I #
point $-1 -1 35 10 #
face $-1 $386 $387 $2 $-1 $388 forward single #
plane-surface $-1 0 35 0 0 1 0 1 0 0 forward_v I I I I #
coedge $-1 $333 $332 $389 $390 forward $334 $-1 #
edge $-1 $335 1.6434602192104412e-033 $391 30 $332 $392 forward 7 unknown #
point $-1 -1 5 -10 #
coedge $-1 $389 $340 $337 $371 reversed $344 $-1 #
edge $-1 $372 0 $342 1.570796326794899 $370 $393 forward 7 unknown #
vertex $-1 $390 $394 #
straight-curve $-1 16 5 -10 0 1 0 I I #
straight-curve $-1 17.5 35 8.5 0 0 -1 I I #
point $-1 17.5 35 -8.5 #
loop $-1 $-1 $395 $330 #
cone-surface $-1 -1 5 -8.5 0 -1 0 1.5 0 0 1 I I 0 1 1.5 forward I I I I #
coedge $-1 $351 $350 $396 $397 forward $352 $-1 #
coedge $-1 $358 $396 $354 $380 forward $344 $-1 #
edge $-1 $381 0 $360 17 $379 $398 forward 7 unknown #
vertex $-1 $380 $399 #
straight-curve $-1 -2.5 5 -8.5 0 1 0 I I #
plane-surface $-1 -2.5 5 0 -1 0 0 0 0 1 forward_v I I I I #
ellipse-curve $-1 -0.99999999999999889 35 8.5 0 1 0 -1.5000000000000011 0 0 1 I I #
point $-1 -2.5 35 8.5 #
face $-1 $400 $401 $2 $-1 $402 forward single #
loop $-1 $-1 $403 $365 #
cone-surface $-1 14 35 6.5 0 -1 0 1 0 0 1 I I 0 1 1 forward I I I I #
coedge $-1 $396 $370 $367 $390 reversed $344 $-1 #
edge $-1 $391 0 $372 17 $389 $404 forward 7 unknown #
vertex $-1 $397 $405 #
straight-curve $-1 -1.0000000000000002 5 -10 7.4014868308343768e-018 1 0 I I #
ellipse-curve $-1 16 35 -8.5000000000000036 0 -1 0 0 0 -1.4999999999999964 1 I I #
point $-1 16 35 -10 #
coedge $-1 $406 $407 $408 $409 forward $376 $-1 #
coedge $-1 $379 $389 $378 $397 reversed $344 $-1 #
edge $-1 $381 0 $391 1.5707963267948959 $396 $410 forward 7 unknown #
straight-curve $-1 -2.5 35 -8.5 0 0 1 I I #
point $-1 -2.5 35 -8.5 #
face $-1 $411 $412 $2 $-1 $413 forward single #
loop $-1 $-1 $414 $386 #
sphere-surface $-1 14 39 6.5 0.99999999999999989 1 0 0 0 0 1 forward_v I I I I #
coedge $-1 $415 $416 $414 $417 forward $387 $-1 #
straight-curve $-1 -1 35 -10 1 0 0 I I #
point $-1 -1 35 -10 #
coedge $-1 $418 $395 $419 $420 reversed $376 $-1 #
coedge $-1 $395 $421 $422 $423 reversed $376 $-1 #
coedge $-1 $416 $415 $395 $409 reversed $387 $-1 #
edge $-1 $424 0 $425 1.5707963267948983 $395 $426 forward 7 unknown #
ellipse-curve $-1 -0.99999999999999889 35 -8.5 0 -1 0 -1.5000000000000011 0 0 1 I I #
face $-1 $427 $428 $2 $-1 $429 forward single #
loop $-1 $-1 $430 $400 #
cone-surface $-1 14 39 7.5 0 0 1 1 0 0 1 I I 0 1 1 forward I I I I #
coedge $-1 $431 $432 $403 $417 reversed $401 $-1 #
coedge $-1 $408 $403 $433 $434 reversed $387 $-1 #
coedge $-1 $403 $408 $435 $436 forward $387 $-1 #
edge $-1 $437 0 $438 1.5707963267948966 $414 $439 forward 7 unknown #
coedge $-1 $440 $406 $441 $442 forward $376 $-1 #
coedge $-1 $433 $443 $406 $420 forward $444 $-1 #
edge $-1 $445 0 $425 13 $419 $446 forward 7 unknown #
coedge $-1 $407 $447 $448 $449 reversed $376 $-1 #
coedge $-1 $450 $435 $407 $423 forward $451 $-1 #
edge $-1 $424 0 $452 13 $422 $453 forward 7 unknown #
vertex $-1 $423 $454 #
vertex $-1 $420 $455 #
ellipse-curve $-1 14 35 6.5000000000000018 0 -1 0 1 0 -1.7763568394002505e-015 1 I I #
face $-1 $456 $457 $2 $-1 $458 forward single #
loop $-1 $-1 $459 $411 #
sphere-surface $-1 14 39 -6.5 0.99999999999999989 1 0 0 0 0 1 forward_v I I I I #
coedge $-1 $460 $461 $462 $463 forward $412 $-1 #
coedge $-1 $432 $414 $464 $465 reversed $401 $-1 #
coedge $-1 $414 $431 $466 $467 reversed $401 $-1 #
coedge $-1 $468 $419 $415 $434 forward $444 $-1 #
edge $-1 $425 0 $438 4 $433 $469 forward 7 unknown #
coedge $-1 $422 $470 $416 $436 reversed $451 $-1 #
edge $-1 $424 0 $437 4 $435 $471 forward 7 unknown #
vertex $-1 $465 $472 #
vertex $-1 $473 $474 #
ellipse-curve $-1 14 39 6.5 0 -1 0 1 0 0 1 I I #
coedge $-1 $475 $418 $476 $477 reversed $376 $-1 #
coedge $-1 $478 $479 $418 $442 reversed $480 $-1 #
edge $-1 $445 0 $481 1.5707963267948981 $418 $482 forward 7 unknown #
coedge $-1 $419 $468 $478 $483 reversed $444 $-1 #
loop $-1 $-1 $433 $484 #
vertex $-1 $420 $485 #
straight-curve $-1 1 35 7.5 1 0 0 I I #
coedge $-1 $421 $475 $486 $487 forward $376 $-1 #
coedge $-1 $488 $489 $421 $449 forward $490 $-1 #
edge $-1 $452 0 $491 1.5707963267948983 $421 $492 forward 7 unknown #
coedge $-1 $470 $422 $489 $493 forward $451 $-1 #
loop $-1 $-1 $435 $494 #
vertex $-1 $493 $495 #
straight-curve $-1 15 35 6.5 0 0 -1 I I #
point $-1 15 35 6.5 #
point $-1 14 35 7.5 #
face $-1 $496 $497 $2 $-1 $498 reversed single #
loop $-1 $-1 $499 $427 #
cone-surface $-1 0 39 -6.5 -1 0 0 0 1 0 1 I I 0 1 1 forward I I I I #
coedge $-1 $462 $500 $499 $501 reversed $428 $-1 #
coedge $-1 $464 $430 $502 $503 reversed $412 $-1 #
coedge $-1 $430 $464 $470 $504 forward $412 $-1 #
coedge $-1 $500 $459 $430 $463 reversed $428 $-1 #
edge $-1 $505 0 $506 1.5707963267948966 $462 $507 forward 7 unknown #
coedge $-1 $461 $460 $431 $465 forward $412 $-1 #
edge $-1 $508 0 $437 1.5707963267948966 $431 $509 forward 7 unknown #
coedge $-1 $510 $511 $432 $467 forward $512 $-1 #
edge $-1 $438 0 $508 1.5707963267948966 $432 $513 forward 7 unknown #
coedge $-1 $443 $433 $511 $473 reversed $444 $-1 #
straight-curve $-1 14 35 7.5 0 1 0 I I #
coedge $-1 $435 $450 $461 $504 reversed $451 $-1 #
straight-curve $-1 15 35 6.5 0 1 0 I I #
point $-1 15 39 6.5 #
edge $-1 $514 0 $438 13 $468 $515 forward 7 unknown #
point $-1 14 39 7.5 #
coedge $-1 $447 $440 $516 $517 reversed $376 $-1 #
coedge $-1 $518 $519 $440 $477 forward $520 $-1 #
edge $-1 $521 0 $481 13 $476 $522 forward 7 unknown #
coedge $-1 $523 $441 $443 $483 forward $480 $-1 #
coedge $-1 $441 $523 $518 $524 reversed $480 $-1 #
loop $-1 $-1 $523 $525 #
vertex $-1 $477 $526 #
ellipse-curve $-1 0.99999999999999933 35 6.5000000000000009 0 -1 0 6.6613381477509392e-016 0 0.99999999999999911 1 I I #
edge $-1 $445 0 $514 4 $443 $527 forward 7 unknown #
face $-1 $528 $444 $2 $-1 $529 forward single #
point $-1 1 35 7.5 #
coedge $-1 $530 $531 $447 $487 reversed $497 $-1 #
edge $-1 $532 0 $491 13 $447 $533 forward 7 unknown #
coedge $-1 $534 $448 $531 $535 forward $490 $-1 #
coedge $-1 $448 $534 $450 $493 reversed $490 $-1 #
loop $-1 $-1 $448 $536 #
vertex $-1 $449 $537 #
ellipse-curve $-1 14 35 -6.5000000000000018 0 1 0 1 0 1.7763568394002505e-015 1 I I #
edge $-1 $452 0 $505 4 $450 $538 forward 7 unknown #
face $-1 $-1 $451 $2 $-1 $539 forward single #
point $-1 15 35 -6.5 #
face $-1 $540 $541 $2 $-1 $542 forward single #
loop $-1 $-1 $530 $456 #
plane-surface $-1 0 0 -7.5 0 0 1 1 0 0 forward_v I I I I #
coedge $-1 $543 $544 $459 $501 forward $457 $-1 #
coedge $-1 $459 $462 $534 $545 reversed $428 $-1 #
edge $-1 $506 0 $546 1.5707963267948966 $459 $547 forward 7 unknown #
coedge $-1 $548 $549 $460 $503 forward $550 $-1 #
edge $-1 $508 0 $506 13 $502 $551 forward 7 unknown #
edge $-1 $437 0 $505 13 $470 $552 forward 7 unknown #
vertex $-1 $504 $553 #
vertex $-1 $554 $555 #
ellipse-curve $-1 14 39 -6.5 0 0 1 1 0 0 1 I I #
vertex $-1 $503 $556 #
ellipse-curve $-1 14 39 6.5 0 0 -1 0 1 0 1 I I #
coedge $-1 $557 $466 $549 $558 reversed $512 $-1 #
coedge $-1 $466 $557 $468 $473 forward $512 $-1 #
loop $-1 $-1 $557 $559 #
ellipse-curve $-1 14 39 6.5 -1 0 0 0 0 1 1 I I #
vertex $-1 $560 $561 #
straight-curve $-1 1 39 7.5 1 0 0 I I #
coedge $-1 $562 $563 $475 $517 forward $541 $-1 #
edge $-1 $532 0 $521 1.5707963267948981 $475 $564 forward 7 unknown #
coedge $-1 $565 $476 $479 $524 forward $520 $-1 #
coedge $-1 $476 $565 $562 $566 reversed $520 $-1 #
loop $-1 $-1 $518 $540 #
vertex $-1 $477 $567 #
straight-curve $-1 0 35 -6.5 0 0 1 I I #
coedge $-1 $479 $478 $568 $569 forward $480 $-1 #
edge $-1 $481 0 $570 4 $518 $571 forward 7 unknown #
face $-1 $572 $480 $2 $-1 $573 forward single #
point $-1 0 35 6.5 #
straight-curve $-1 1 35 7.5 0 1 0 I I #
face $-1 $574 $550 $2 $-1 $575 forward single #
plane-surface $-1 0 0 7.5 0 0 1 1 0 0 forward_v I I I I #
coedge $-1 $576 $486 $563 $577 forward $497 $-1 #
coedge $-1 $486 $576 $488 $535 reversed $497 $-1 #
vertex $-1 $487 $578 #
straight-curve $-1 1 35 -7.5 1 0 0 I I #
coedge $-1 $489 $488 $500 $545 forward $490 $-1 #
edge $-1 $491 0 $546 4 $531 $579 forward 7 unknown #
face $-1 $494 $490 $2 $-1 $580 forward single #
point $-1 14 35 -7.5 #
straight-curve $-1 15 35 -6.5 0 1 0 I I #
plane-surface $-1 15 0 7.5 1 0 0 0 0 -1 forward_v I I I I #
face $-1 $525 $520 $2 $-1 $581 forward single #
loop $-1 $-1 $516 $496 #
cone-surface $-1 1 35 -6.5 0 1 0 0 0 -1 1 I I 0 1 1 forward I I I I #
coedge $-1 $582 $499 $576 $583 reversed $457 $-1 #
coedge $-1 $499 $582 $548 $554 forward $457 $-1 #
edge $-1 $546 0 $505 1.5707963267948966 $500 $584 forward 7 unknown #
vertex $-1 $535 $585 #
ellipse-curve $-1 14 39 -6.5 -1 0 0 0 1 0 1 I I #
coedge $-1 $586 $502 $544 $554 reversed $550 $-1 #
coedge $-1 $502 $586 $510 $558 forward $550 $-1 #
loop $-1 $-1 $549 $528 #
straight-curve $-1 14 40 6.5 0 0 -1 I I #
straight-curve $-1 15 39 6.5 0 0 -1 I I #
point $-1 15 39 -6.5 #
edge $-1 $587 -1.1102230246251565e-016 $506 13 $548 $588 forward 7 unknown #
point $-1 14 40 -6.5 #
point $-1 14 40 6.5 #
coedge $-1 $511 $510 $589 $560 forward $512 $-1 #
edge $-1 $590 -1.1102230246251565e-016 $508 13 $549 $591 forward 7 unknown #
face $-1 $484 $512 $2 $-1 $592 forward single #
edge $-1 $590 0 $514 1.5707963267948966 $589 $593 forward 7 unknown #
point $-1 1 39 7.5 #
coedge $-1 $594 $516 $519 $566 forward $541 $-1 #
coedge $-1 $516 $594 $530 $577 reversed $541 $-1 #
ellipse-curve $-1 0.99999999999999933 35 -6.5000000000000009 0 1 0 6.6613381477509392e-016 0 -0.99999999999999911 1 I I #
coedge $-1 $519 $518 $595 $596 reversed $520 $-1 #
edge $-1 $521 0 $597 4 $519 $598 forward 7 unknown #
point $-1 0 35 -6.5 #
coedge $-1 $589 $599 $523 $569 reversed $600 $-1 #
edge $-1 $514 0 $570 1.5707963267948966 $568 $601 forward 7 unknown #
vertex $-1 $596 $602 #
straight-curve $-1 0 35 6.5 0 1 0 I I #
face $-1 $559 $600 $2 $-1 $603 forward single #
cone-surface $-1 1 35 6.5 0 -1 0 0 0 1 1 I I 0 1 1 forward I I I I #
face $-1 $604 $605 $2 $-1 $606 forward single #
plane-surface $-1 0 40 0 0 1 0 1 0 0 forward_v I I I I #
coedge $-1 $531 $530 $543 $583 forward $497 $-1 #
edge $-1 $532 0 $607 4 $530 $608 forward 7 unknown #
point $-1 1 35 -7.5 #
straight-curve $-1 14 35 -7.5 0 1 0 I I #
cone-surface $-1 14 35 -6.5 0 1 0 1 0 0 1 I I 0 1 1 forward I I I I #
plane-surface $-1 0 0 0 -1 0 0 0 0 1 forward_v I I I I #
coedge $-1 $544 $543 $609 $610 forward $457 $-1 #
edge $-1 $607 0 $546 13 $576 $611 forward 7 unknown #
ellipse-curve $-1 14 39 -6.5 0 -1 0 0 0 -1 1 I I #
point $-1 14 39 -7.5 #
coedge $-1 $549 $548 $612 $613 forward $550 $-1 #
vertex $-1 $613 $614 #
straight-curve $-1 1 40 -6.5 1 0 0 I I #
coedge $-1 $599 $568 $557 $560 reversed $600 $-1 #
vertex $-1 $613 $615 #
straight-curve $-1 1 40 6.5 1 0 0 I I #
cone-surface $-1 0 39 6.5 1 0 0 0 1 0 1 I I 0 1 1 forward I I I I #
ellipse-curve $-1 1 39 6.5 1 0 0 0 1 0 1 I I #
coedge $-1 $563 $562 $616 $617 forward $541 $-1 #
coedge $-1 $618 $619 $565 $596 forward $605 $-1 #
edge $-1 $597 0 $570 13 $565 $620 forward 7 unknown #
vertex $-1 $566 $621 #
straight-curve $-1 0 35 -6.5 0 1 0 I I #
coedge $-1 $568 $589 $618 $622 reversed $600 $-1 #
loop $-1 $-1 $568 $572 #
ellipse-curve $-1 1 39 6.5 0 -1 0 0 0 1 1 I I #
point $-1 0 39 6.5 #
sphere-surface $-1 1 39 6.5 0.99999999999999989 1 0 0 0 0 1 forward_v I I I I #
face $-1 $536 $623 $2 $-1 $624 forward single #
loop $-1 $-1 $618 $574 #
cone-surface $-1 1 39 -7.5 0 0 -1 -1 0 0 1 I I 0 1 1 forward I I I I #
vertex $-1 $583 $625 #
straight-curve $-1 1 35 -7.5 0 1 0 I I #
coedge $-1 $616 $626 $582 $610 reversed $623 $-1 #
edge $-1 $607 0 $587 1.5707963267948966 $609 $627 forward 7 unknown #
straight-curve $-1 1 39 -7.5 1 0 0 I I #
coedge $-1 $619 $618 $586 $613 reversed $605 $-1 #
edge $-1 $587 0 $590 13 $586 $628 forward 7 unknown #
point $-1 0.99999999999999989 40 -6.5 #
point $-1 0.99999999999999989 40 6.5 #
coedge $-1 $626 $609 $594 $617 reversed $623 $-1 #
edge $-1 $597 0 $607 1.5707963267948966 $616 $629 forward 7 unknown #
coedge $-1 $612 $595 $599 $622 forward $605 $-1 #
coedge $-1 $595 $612 $626 $630 forward $605 $-1 #
straight-curve $-1 0 39 -6.5 0 0 1 I I #
point $-1 0 39 -6.5 #
edge $-1 $570 0 $590 1.5707963267948966 $599 $631 forward 7 unknown #
loop $-1 $-1 $616 $604 #
sphere-surface $-1 1 39 -6.5 0.99999999999999989 1 0 0 0 0 1 forward_v I I I I #
point $-1 1 39 -7.5 #
coedge $-1 $609 $616 $619 $630 reversed $623 $-1 #
ellipse-curve $-1 1 39 -6.5 1 0 2.2204460492503131e-016 2.2204460492503131e-016 0 -1 1 I I #
straight-curve $-1 0.99999999999999989 40 -6.5 0 0 1 I I #
ellipse-curve $-1 1 39 -6.5 0 -1 0 -0.99999999999999989 0 0 1 I I #
edge $-1 $587 1.1102230246251565e-016 $597 1.5707963267948966 $626 $632 forward 7 unknown #
ellipse-curve $-1 1 39 6.5 0 0 -1 -1.0000000000000002 0 0 1 I I #
ellipse-curve $-1 1 39 -6.5 0 0 1 0 1 0 1 I I #
End-of-ACIS-data 