700 0 2 0           
24 FBMach with ACIS - 7.0.3 13 ACIS 7.0.3 NT 24 Wed May 15 23:49:46 2002 
1 9.9999999999999995e-007 1e-010 
body $2 -1 $-1 $3 $-1 $4 #
bdycol-kcp $-1 -1 1 2 $5 $6 #
model_id-kcp-attrib $-1 -1 $-1 $-1 $0 1 1021520986 1021520986 207355905 1 #
lump $-1 -1 $-1 $-1 $7 $0 #
transform $-1 -1 1.0000000000000002 0 0 0 1.0000000000000002 0 0 0 1 0 0 0 1 rotate no_reflect no_shear #
body $8 -1 $-1 $9 $-1 $10 #
body $11 -1 $-1 $12 $-1 $13 #
shell $-1 -1 $-1 $-1 $-1 $14 $-1 $3 #
model_id-kcp-attrib $-1 -1 $-1 $-1 $5 1 1021520986 1021520986 208011266 1 #
lump $-1 -1 $-1 $-1 $15 $5 #
transform $-1 -1 1 0 0 0 1 0 0 0 1 0 -4.4408920985006262e-016 1.778 1 no_rotate no_reflect no_shear #
rgb_color-st-attrib $-1 -1 $16 $-1 $6 0.5 1 1 #
lump $-1 -1 $-1 $-1 $17 $6 #
transform $-1 -1 1 0 0 0 1 0 0 0 1 0 -4.4408920985006262e-016 1.778 1 no_rotate no_reflect no_shear #
face $18 -1 $-1 $19 $20 $7 $-1 $21 reversed single #
shell $-1 -1 $-1 $-1 $-1 $22 $-1 $9 #
model_id-kcp-attrib $-1 -1 $-1 $11 $6 1 1021520986 1021520986 215875587 1 #
shell $-1 -1 $-1 $-1 $-1 $23 $-1 $12 #
model_id-kcp-attrib $-1 -1 $-1 $-1 $14 1 1021520986 1021520986 207355905 2 #
face $24 -1 $-1 $25 $26 $7 $-1 $27 forward single #
loop $-1 -1 $-1 $-1 $28 $14 #
plane-surface $-1 -1 $-1 0 0 0 0 0 1 25.399999999999999 0 0 forward_v I I I I #
face $29 -1 $-1 $30 $31 $15 $-1 $32 forward single #
face $-1 -1 $-1 $33 $34 $17 $-1 $35 reversed single #
model_id-kcp-attrib $-1 -1 $-1 $-1 $19 1 1021520986 1021520986 207355905 3 #
face $36 -1 $-1 $37 $38 $7 $-1 $39 forward single #
loop $-1 -1 $-1 $-1 $40 $19 #
plane-surface $-1 -1 $-1 -6.4769999999999994 7.1120000000000001 0 -0.70710678118654757 0.70710678118654757 0 -17.960512242138304 -17.960512242138304 0 forward_v I I I I #
coedge $-1 -1 $-1 $41 $42 $43 $44 reversed $20 $-1 #
model_id-kcp-attrib $-1 -1 $-1 $-1 $22 1 1021520986 1021520986 208011266 7 #
face $45 -1 $-1 $46 $47 $15 $-1 $48 reversed single #
loop $-1 -1 $-1 $-1 $49 $22 #
plane-surface $-1 -1 $-1 0 0 1.778 0 0 1 1 0 0 forward_v I I I I #
face $-1 -1 $-1 $50 $51 $17 $-1 $52 forward single #
loop $-1 -1 $-1 $-1 $53 $23 #
plane-surface $-1 -1 $-1 -6.4770000000000003 7.1120000000000001 -1.778 -0.70710678118654757 0.70710678118654757 0 0 0 -1 forward_v I I I I #
model_id-kcp-attrib $-1 -1 $-1 $-1 $25 1 1021520986 1021520986 207355905 4 #
face $54 -1 $-1 $55 $56 $7 $-1 $57 forward single #
loop $-1 -1 $-1 $-1 $58 $25 #
plane-surface $-1 -1 $-1 -7.1120000000000001 6.4769999999999994 0 -1 0 0 0 -25.399999999999999 0 forward_v I I I I #
coedge $-1 -1 $-1 $59 $43 $60 $61 forward $26 $-1 #
coedge $-1 -1 $-1 $62 $28 $63 $64 reversed $20 $-1 #
coedge $-1 -1 $-1 $28 $65 $66 $67 reversed $20 $-1 #
coedge $-1 -1 $-1 $40 $68 $28 $44 forward $26 $-1 #
edge $69 -1 $-1 $70 0 $71 0.035355339059327424 $28 $72 forward @7 unknown #
model_id-kcp-attrib $-1 -1 $-1 $-1 $30 1 1021520986 1021520986 208011266 2 #
face $73 -1 $-1 $74 $75 $15 $-1 $76 reversed single #
loop $-1 -1 $-1 $-1 $77 $30 #
plane-surface $-1 -1 $-1 0 0 -1.778 0 0 1 1 0 0 forward_v I I I I #
coedge $-1 -1 $-1 $78 $79 $80 $81 forward $31 $-1 #
face $-1 -1 $-1 $82 $83 $17 $-1 $84 reversed single #
loop $-1 -1 $-1 $-1 $85 $33 #
plane-surface $-1 -1 $-1 0 0 1.778 0 0 1 1 0 0 forward_v I I I I #
coedge $-1 -1 $-1 $86 $87 $85 $88 reversed $34 $-1 #
model_id-kcp-attrib $-1 -1 $-1 $-1 $37 1 1021520986 1021520986 207355905 5 #
face $89 -1 $-1 $90 $91 $7 $-1 $92 forward single #
loop $-1 -1 $-1 $-1 $93 $37 #
plane-surface $-1 -1 $-1 -7.1120000000000001 -7.1120000000000001 0 0 -1 0 25.399999999999999 0 0 forward_v I I I I #
coedge $-1 -1 $-1 $94 $66 $95 $96 forward $38 $-1 #
coedge $-1 -1 $-1 $68 $40 $97 $98 reversed $26 $-1 #
coedge $-1 -1 $-1 $66 $94 $40 $61 reversed $38 $-1 #
edge $99 -1 $-1 $71 0 $100 0.14000000000000001 $60 $101 forward @7 unknown #
coedge $-1 -1 $-1 $65 $41 $102 $103 reversed $20 $-1 #
coedge $-1 -1 $-1 $104 $105 $41 $64 forward $106 $-1 #
edge $107 -1 $-1 $108 0 $70 0.53500000000000003 $41 $109 forward @7 unknown #
coedge $-1 -1 $-1 $42 $62 $110 $111 reversed $20 $-1 #
coedge $-1 -1 $-1 $58 $60 $42 $67 forward $38 $-1 #
edge $112 -1 $-1 $71 0 $113 0.53500000000000003 $42 $114 forward @7 unknown #
coedge $-1 -1 $-1 $43 $59 $104 $115 reversed $26 $-1 #
attrib_edge_convexity-kcp-attrib $-1 -1 $116 $-1 $44 1 #
vertex $-1 -1 $-1 $64 $117 #
vertex $-1 -1 $-1 $67 $118 #
straight-curve $-1 -1 $-1 -6.4769999999999994 7.1120000000000001 0 -17.960512242138304 -17.960512242138304 0 I I #
model_id-kcp-attrib $-1 -1 $-1 $-1 $46 1 1021520986 1021520986 208011266 4 #
face $119 -1 $-1 $120 $121 $15 $-1 $122 reversed single #
loop $-1 -1 $-1 $-1 $123 $46 #
plane-surface $-1 -1 $-1 0 -7.1120000000000001 0 0 1 0 0 0 1 forward_v I I I I #
coedge $-1 -1 $-1 $124 $125 $126 $127 forward $47 $-1 #
coedge $-1 -1 $-1 $128 $49 $129 $130 forward $31 $-1 #
coedge $-1 -1 $-1 $49 $128 $131 $132 forward $31 $-1 #
coedge $-1 -1 $-1 $133 $134 $49 $81 reversed $135 $-1 #
edge $-1 -1 $-1 $136 -7.1120000000000001 $137 7.1120000000000001 $80 $138 forward @7 unknown #
face $-1 -1 $-1 $139 $140 $17 $-1 $141 reversed single #
loop $-1 -1 $-1 $-1 $142 $50 #
plane-surface $-1 -1 $-1 0 7.1120000000000001 0 0 -1 0 0 0 -1 forward_v I I I I #
coedge $-1 -1 $-1 $143 $144 $53 $88 forward $51 $-1 #
coedge $-1 -1 $-1 $145 $53 $146 $147 reversed $34 $-1 #
coedge $-1 -1 $-1 $53 $145 $142 $148 reversed $34 $-1 #
edge $-1 -1 $-1 $149 -0.67351920908018759 $150 0.22450640302672878 $85 $151 forward @7 unknown #
model_id-kcp-attrib $-1 -1 $-1 $-1 $55 1 1021520986 1021520986 207355905 6 #
face $152 -1 $-1 $153 $106 $7 $-1 $154 forward single #
loop $-1 -1 $-1 $-1 $155 $55 #
plane-surface $-1 -1 $-1 7.1120000000000001 -7.1120000000000001 0 1 0 0 0 25.399999999999999 0 forward_v I I I I #
coedge $-1 -1 $-1 $156 $110 $157 $158 forward $56 $-1 #
coedge $-1 -1 $-1 $60 $58 $159 $160 reversed $38 $-1 #
coedge $-1 -1 $-1 $110 $156 $58 $96 reversed $56 $-1 #
edge $161 -1 $-1 $113 0 $162 0.14000000000000001 $58 $163 forward @7 unknown #
coedge $-1 -1 $-1 $159 $164 $59 $98 forward $165 $-1 #
edge $166 -1 $-1 $167 0 $100 0.035355339059327424 $97 $168 forward @7 unknown #
attrib_edge_convexity-kcp-attrib $-1 -1 $169 $-1 $61 1 #
vertex $-1 -1 $-1 $160 $170 #
straight-curve $-1 -1 $-1 -7.1120000000000001 6.4769999999999994 0 0 0 25.399999999999999 I I #
coedge $-1 -1 $-1 $155 $157 $62 $103 forward $91 $-1 #
edge $171 -1 $-1 $172 0 $108 0.56000000000000005 $62 $173 forward @7 unknown #
coedge $-1 -1 $-1 $174 $63 $68 $115 forward $106 $-1 #
coedge $-1 -1 $-1 $63 $174 $155 $175 reversed $106 $-1 #
loop $-1 -1 $-1 $-1 $104 $90 #
attrib_edge_convexity-kcp-attrib $-1 -1 $176 $-1 $64 1 #
vertex $-1 -1 $-1 $103 $177 #
straight-curve $-1 -1 $-1 7.1120000000000001 7.1120000000000001 0 -25.399999999999999 0 0 I I #
coedge $-1 -1 $-1 $93 $95 $65 $111 forward $56 $-1 #
edge $178 -1 $-1 $113 0 $172 0.56000000000000005 $65 $179 forward @7 unknown #
attrib_edge_convexity-kcp-attrib $-1 -1 $180 $-1 $67 1 #
vertex $-1 -1 $-1 $67 $181 #
straight-curve $-1 -1 $-1 -7.1120000000000001 6.4769999999999994 0 0 -25.399999999999999 0 I I #
edge $182 -1 $-1 $70 0 $167 0.14000000000000001 $104 $183 forward @7 unknown #
convexity-sys-attrib $-1 -1 $-1 $69 $44 #
point $-1 -1 $-1 -6.4769999999999994 7.1120000000000001 0 #
point $-1 -1 $-1 -7.1120000000000001 6.4769999999999994 0 #
model_id-kcp-attrib $-1 -1 $-1 $-1 $74 1 1021520986 1021520986 208011266 3 #
face $184 -1 $-1 $185 $186 $15 $-1 $187 reversed single #
loop $-1 -1 $-1 $-1 $188 $74 #
plane-surface $-1 -1 $-1 -7.1120000000000001 0 0 1 0 0 0 0 -1 forward_v I I I I #
coedge $-1 -1 $-1 $189 $131 $190 $191 forward $75 $-1 #
coedge $-1 -1 $-1 $192 $77 $189 $193 forward $47 $-1 #
coedge $-1 -1 $-1 $77 $192 $194 $195 forward $47 $-1 #
coedge $-1 -1 $-1 $134 $133 $77 $127 reversed $135 $-1 #
edge $-1 -1 $-1 $196 -7.1120000000000001 $197 7.1120000000000001 $126 $198 forward @7 unknown #
coedge $-1 -1 $-1 $79 $78 $199 $200 forward $31 $-1 #
coedge $-1 -1 $-1 $201 $202 $78 $130 reversed $186 $-1 #
edge $-1 -1 $-1 $137 -7.1120000000000001 $203 7.1120000000000001 $129 $204 forward @7 unknown #
coedge $-1 -1 $-1 $123 $205 $79 $132 reversed $75 $-1 #
edge $-1 -1 $-1 $206 -7.1120000000000001 $136 7.1120000000000001 $131 $207 forward @7 unknown #
coedge $-1 -1 $-1 $126 $80 $205 $208 forward $135 $-1 #
coedge $-1 -1 $-1 $80 $126 $201 $209 reversed $135 $-1 #
loop $-1 -1 $-1 $-1 $133 $185 #
vertex $-1 -1 $-1 $81 $210 #
vertex $-1 -1 $-1 $81 $211 #
straight-curve $-1 -1 $-1 7.1120000000000001 0 1.778 0 1 0 I I #
face $-1 -1 $-1 $-1 $212 $17 $-1 $213 reversed single #
loop $-1 -1 $-1 $-1 $214 $82 #
plane-surface $-1 -1 $-1 0 0 -1.778 0 0 1 1 0 0 forward_v I I I I #
coedge $-1 -1 $-1 $215 $216 $87 $148 forward $83 $-1 #
coedge $-1 -1 $-1 $144 $85 $216 $217 forward $51 $-1 #
coedge $-1 -1 $-1 $85 $143 $218 $219 forward $51 $-1 #
coedge $-1 -1 $-1 $87 $86 $214 $220 reversed $34 $-1 #
coedge $-1 -1 $-1 $218 $221 $86 $147 forward $212 $-1 #
edge $-1 -1 $-1 $222 -0.88900000000000001 $149 2.6669999999999998 $146 $223 forward @7 unknown #
edge $-1 -1 $-1 $150 -2.6669999999999998 $224 0.88900000000000001 $142 $225 forward @7 unknown #
vertex $-1 -1 $-1 $147 $226 #
vertex $-1 -1 $-1 $217 $227 #
straight-curve $-1 -1 $-1 -6.6357500000000007 6.9532500000000006 1.7779999999999998 0.70710678118654757 0.70710678118654757 0 I I #
model_id-kcp-attrib $-1 -1 $-1 $-1 $90 1 1021520986 1021520986 207355905 7 #
face $228 -1 $-1 $-1 $165 $7 $-1 $229 forward single #
plane-surface $-1 -1 $-1 7.1120000000000001 7.1120000000000001 0 0 1 0 -25.399999999999999 0 0 forward_v I I I I #
coedge $-1 -1 $-1 $230 $102 $105 $175 forward $91 $-1 #
coedge $-1 -1 $-1 $95 $93 $231 $232 reversed $56 $-1 #
coedge $-1 -1 $-1 $102 $230 $93 $158 reversed $91 $-1 #
edge $233 -1 $-1 $172 0 $234 0.14000000000000001 $93 $235 forward @7 unknown #
coedge $-1 -1 $-1 $231 $97 $94 $160 forward $165 $-1 #
edge $236 -1 $-1 $100 0 $162 0.53500000000000003 $159 $237 forward @7 unknown #
attrib_edge_convexity-kcp-attrib $-1 -1 $238 $-1 $96 1 #
vertex $-1 -1 $-1 $160 $239 #
straight-curve $-1 -1 $-1 -7.1120000000000001 -7.1120000000000001 0 0 0 25.399999999999999 I I #
coedge $-1 -1 $-1 $97 $240 $174 $241 forward $165 $-1 #
loop $-1 -1 $-1 $-1 $231 $153 #
attrib_edge_convexity-kcp-attrib $-1 -1 $242 $-1 $98 1 #
vertex $-1 -1 $-1 $98 $243 #
straight-curve $-1 -1 $-1 -6.4769999999999994 7.1120000000000001 3.556 -17.960512242138304 -17.960512242138304 0 I I #
convexity-sys-attrib $-1 -1 $-1 $99 $61 #
point $-1 -1 $-1 -7.1120000000000001 6.4769999999999994 3.556 #
attrib_edge_convexity-kcp-attrib $-1 -1 $244 $-1 $103 1 #
vertex $-1 -1 $-1 $111 $245 #
straight-curve $-1 -1 $-1 7.1120000000000001 -7.1120000000000001 0 0 25.399999999999999 0 I I #
coedge $-1 -1 $-1 $105 $104 $164 $241 reversed $106 $-1 #
edge $-1 -1 $-1 $108 0 $246 0.14000000000000001 $155 $247 forward @7 unknown #
convexity-sys-attrib $-1 -1 $-1 $107 $64 #
point $-1 -1 $-1 7.1120000000000001 7.1120000000000001 0 #
attrib_edge_convexity-kcp-attrib $-1 -1 $248 $-1 $111 1 #
straight-curve $-1 -1 $-1 -7.1120000000000001 -7.1120000000000001 0 25.399999999999999 0 0 I I #
convexity-sys-attrib $-1 -1 $-1 $112 $67 #
point $-1 -1 $-1 -7.1120000000000001 -7.1120000000000001 0 #
attrib_edge_convexity-kcp-attrib $-1 -1 $249 $-1 $115 1 #
straight-curve $-1 -1 $-1 -6.4769999999999994 7.1120000000000001 0 0 0 25.399999999999999 I I #
model_id-kcp-attrib $-1 -1 $-1 $-1 $120 1 1021520986 1021520986 208011266 6 #
face $250 -1 $-1 $-1 $135 $15 $-1 $251 reversed single #
loop $-1 -1 $-1 $-1 $201 $120 #
plane-surface $-1 -1 $-1 0 7.1120000000000001 0 0 -1 0 0 0 -1 forward_v I I I I #
coedge $-1 -1 $-1 $252 $199 $202 $253 forward $121 $-1 #
coedge $-1 -1 $-1 $205 $123 $124 $193 reversed $75 $-1 #
coedge $-1 -1 $-1 $199 $252 $123 $191 reversed $121 $-1 #
edge $-1 -1 $-1 $206 -1.778 $254 1.778 $190 $255 forward @7 unknown #
coedge $-1 -1 $-1 $125 $124 $252 $256 forward $47 $-1 #
edge $-1 -1 $-1 $197 -7.1120000000000001 $254 7.1120000000000001 $189 $257 forward @7 unknown #
coedge $-1 -1 $-1 $202 $201 $125 $195 reversed $186 $-1 #
edge $-1 -1 $-1 $258 -7.1120000000000001 $196 7.1120000000000001 $194 $259 forward @7 unknown #
vertex $-1 -1 $-1 $127 $260 #
vertex $-1 -1 $-1 $208 $261 #
straight-curve $-1 -1 $-1 7.1120000000000001 0 -1.778 0 -1 0 I I #
coedge $-1 -1 $-1 $188 $190 $128 $200 reversed $121 $-1 #
edge $-1 -1 $-1 $203 -7.1120000000000001 $206 7.1120000000000001 $199 $262 forward @7 unknown #
coedge $-1 -1 $-1 $194 $129 $134 $209 forward $186 $-1 #
coedge $-1 -1 $-1 $129 $194 $188 $253 reversed $186 $-1 #
vertex $-1 -1 $-1 $130 $263 #
straight-curve $-1 -1 $-1 0 7.1120000000000001 1.778 -1 0 0 I I #
coedge $-1 -1 $-1 $131 $189 $133 $208 reversed $75 $-1 #
vertex $-1 -1 $-1 $200 $264 #
straight-curve $-1 -1 $-1 0 -7.1120000000000001 1.778 1 0 0 I I #
edge $-1 -1 $-1 $136 -1.778 $197 1.778 $133 $265 forward @7 unknown #
edge $-1 -1 $-1 $137 -1.778 $196 1.778 $134 $266 forward @7 unknown #
point $-1 -1 $-1 7.1120000000000001 -7.1120000000000001 1.778 #
point $-1 -1 $-1 7.1120000000000001 7.1120000000000001 1.778 #
loop $-1 -1 $-1 $-1 $146 $139 #
plane-surface $-1 -1 $-1 -7.1120000000000001 0 0 1 0 0 0 0 -1 forward_v I I I I #
coedge $-1 -1 $-1 $267 $268 $145 $220 forward $140 $-1 #
coedge $-1 -1 $-1 $269 $142 $268 $270 reversed $83 $-1 #
coedge $-1 -1 $-1 $142 $269 $143 $217 reversed $83 $-1 #
edge $-1 -1 $-1 $150 6.4770000000000003 $271 7.1120000000000001 $216 $272 forward @7 unknown #
coedge $-1 -1 $-1 $273 $146 $144 $219 reversed $212 $-1 #
edge $-1 -1 $-1 $271 -7.1120000000000001 $149 -6.4769999999999985 $218 $274 forward @7 unknown #
edge $-1 -1 $-1 $224 -0.22450640302672878 $222 0.67351920908018759 $214 $275 forward @7 unknown #
coedge $-1 -1 $-1 $146 $273 $267 $276 reversed $212 $-1 #
vertex $-1 -1 $-1 $276 $277 #
straight-curve $-1 -1 $-1 -7.1120000000000001 6.4770000000000003 -0.88900000000000001 0 0 1 I I #
vertex $-1 -1 $-1 $220 $278 #
straight-curve $-1 -1 $-1 -6.4770000000000012 7.1120000000000001 -0.88900000000000001 0 0 -1 I I #
point $-1 -1 $-1 -7.1120000000000001 6.4769999999999985 1.778 #
point $-1 -1 $-1 -6.4770000000000003 7.1120000000000001 1.778 #
model_id-kcp-attrib $-1 -1 $-1 $-1 $153 1 1021520986 1021520986 207355905 8 #
plane-surface $-1 -1 $-1 0 0 3.556 0 0 1 25.399999999999999 0 0 forward_v I I I I #
coedge $-1 -1 $-1 $157 $155 $240 $279 reversed $91 $-1 #
coedge $-1 -1 $-1 $240 $159 $156 $232 forward $165 $-1 #
edge $280 -1 $-1 $162 0 $234 0.56000000000000005 $231 $281 forward @7 unknown #
attrib_edge_convexity-kcp-attrib $-1 -1 $282 $-1 $158 1 #
vertex $-1 -1 $-1 $279 $283 #
straight-curve $-1 -1 $-1 7.1120000000000001 -7.1120000000000001 0 0 0 25.399999999999999 I I #
model_id-kcp-attrib $-1 -1 $284 $-1 $160 1 1021520986 1021520986 207355905 12 #
straight-curve $-1 -1 $-1 -7.1120000000000001 6.4769999999999994 3.556 0 -25.399999999999999 0 I I #
convexity-sys-attrib $-1 -1 $-1 $161 $96 #
point $-1 -1 $-1 -7.1120000000000001 -7.1120000000000001 3.556 #
coedge $-1 -1 $-1 $164 $231 $230 $279 forward $165 $-1 #
edge $285 -1 $-1 $246 0 $167 0.53500000000000003 $164 $286 forward @7 unknown #
convexity-sys-attrib $-1 -1 $-1 $166 $98 #
point $-1 -1 $-1 -6.4769999999999994 7.1120000000000001 3.556 #
convexity-sys-attrib $-1 -1 $-1 $171 $103 #
point $-1 -1 $-1 7.1120000000000001 -7.1120000000000001 0 #
vertex $-1 -1 $-1 $241 $287 #
straight-curve $-1 -1 $-1 7.1120000000000001 7.1120000000000001 0 0 0 25.399999999999999 I I #
convexity-sys-attrib $-1 -1 $-1 $178 $111 #
convexity-sys-attrib $-1 -1 $-1 $182 $115 #
model_id-kcp-attrib $-1 -1 $-1 $-1 $185 1 1021520986 1021520986 208011266 5 #
plane-surface $-1 -1 $-1 7.1120000000000001 0 0 -1 0 0 0 0 1 forward_v I I I I #
coedge $-1 -1 $-1 $190 $188 $192 $256 reversed $121 $-1 #
edge $-1 -1 $-1 $203 -1.778 $258 1.778 $202 $288 forward @7 unknown #
vertex $-1 -1 $-1 $256 $289 #
straight-curve $-1 -1 $-1 -7.1120000000000001 -7.1120000000000001 0 0 0 -1 I I #
edge $-1 -1 $-1 $254 -7.1120000000000001 $258 7.1120000000000001 $252 $290 forward @7 unknown #
straight-curve $-1 -1 $-1 0 -7.1120000000000001 -1.778 -1 0 0 I I #
vertex $-1 -1 $-1 $195 $291 #
straight-curve $-1 -1 $-1 0 7.1120000000000001 -1.778 1 0 0 I I #
point $-1 -1 $-1 7.1120000000000001 7.1120000000000001 -1.778 #
point $-1 -1 $-1 7.1120000000000001 -7.1120000000000001 -1.778 #
straight-curve $-1 -1 $-1 -7.1120000000000001 0 1.778 0 -1 0 I I #
point $-1 -1 $-1 -7.1120000000000001 7.1120000000000001 1.778 #
point $-1 -1 $-1 -7.1120000000000001 -7.1120000000000001 1.778 #
straight-curve $-1 -1 $-1 7.1120000000000001 -7.1120000000000001 0 0 0 -1 I I #
straight-curve $-1 -1 $-1 7.1120000000000001 7.1120000000000001 0 0 0 -1 I I #
coedge $-1 -1 $-1 $268 $214 $221 $276 forward $140 $-1 #
coedge $-1 -1 $-1 $214 $267 $215 $270 forward $140 $-1 #
coedge $-1 -1 $-1 $216 $215 $273 $292 reversed $83 $-1 #
edge $-1 -1 $-1 $293 -7.1120000000000001 $224 -6.4770000000000003 $215 $294 forward @7 unknown #
vertex $-1 -1 $-1 $217 $295 #
straight-curve $-1 -1 $-1 0 7.1120000000000001 1.778 -1 0 0 I I #
coedge $-1 -1 $-1 $221 $218 $269 $292 forward $212 $-1 #
straight-curve $-1 -1 $-1 -7.1120000000000001 0 1.778 0 -1 0 I I #
straight-curve $-1 -1 $-1 -6.6357500000000007 6.9532500000000006 -1.778 -0.70710678118654757 -0.70710678118654757 0 I I #
edge $-1 -1 $-1 $222 6.4769999999999985 $293 7.1120000000000001 $221 $296 forward @7 unknown #
point $-1 -1 $-1 -7.1120000000000001 6.4769999999999985 -1.778 #
point $-1 -1 $-1 -6.4770000000000003 7.1120000000000001 -1.778 #
edge $297 -1 $-1 $234 0 $246 0.56000000000000005 $240 $298 forward @7 unknown #
model_id-kcp-attrib $-1 -1 $299 $-1 $232 1 1021520986 1021520986 207355905 11 #
straight-curve $-1 -1 $-1 -7.1120000000000001 -7.1120000000000001 3.556 25.399999999999999 0 0 I I #
convexity-sys-attrib $-1 -1 $-1 $233 $158 #
point $-1 -1 $-1 7.1120000000000001 -7.1120000000000001 3.556 #
attrib_edge_convexity-kcp-attrib $-1 -1 $300 $236 $160 1 #
model_id-kcp-attrib $-1 -1 $-1 $-1 $241 1 1021520986 1021520986 207355905 13 #
straight-curve $-1 -1 $-1 7.1120000000000001 7.1120000000000001 3.556 -25.399999999999999 0 0 I I #
point $-1 -1 $-1 7.1120000000000001 7.1120000000000001 3.556 #
straight-curve $-1 -1 $-1 -7.1120000000000001 7.1120000000000001 0 0 0 -1 I I #
point $-1 -1 $-1 -7.1120000000000001 -7.1120000000000001 -1.778 #
straight-curve $-1 -1 $-1 -7.1120000000000001 0 -1.778 0 1 0 I I #
point $-1 -1 $-1 -7.1120000000000001 7.1120000000000001 -1.778 #
edge $-1 -1 $-1 $271 -1.778 $293 1.778 $269 $301 forward @7 unknown #
vertex $-1 -1 $-1 $270 $302 #
straight-curve $-1 -1 $-1 0 7.1120000000000001 -1.778 1 0 0 I I #
point $-1 -1 $-1 -7.1120000000000001 7.1120000000000001 1.778 #
straight-curve $-1 -1 $-1 -7.1120000000000001 0 -1.778 0 1 0 I I #
model_id-kcp-attrib $-1 -1 $-1 $-1 $279 1 1021520986 1021520986 207355905 10 #
straight-curve $-1 -1 $-1 7.1120000000000001 -7.1120000000000001 3.556 0 25.399999999999999 0 I I #
attrib_edge_convexity-kcp-attrib $-1 -1 $303 $280 $232 1 #
convexity-sys-attrib $-1 -1 $-1 $284 $160 #
straight-curve $-1 -1 $-1 -7.1120000000000001 7.1120000000000001 0 0 0 -1 I I #
point $-1 -1 $-1 -7.1120000000000001 7.1120000000000001 -1.778 #
convexity-sys-attrib $-1 -1 $-1 $299 $232 #
End-of-ACIS-data 