700 0 2 0           
24 FBMach with ACIS - 7.0.3 13 ACIS 7.0.3 NT 24 Wed May 15 23:27:48 2002 
1 9.9999999999999995e-007 1e-010 
body $2 -1 $-1 $3 $-1 $4 #
bdycol-kcp $-1 -1 1 2 $5 $6 #
model_id-kcp-attrib $-1 -1 $-1 $-1 $0 1 1021519668 1021519668 1638989825 1 #
lump $-1 -1 $-1 $-1 $7 $0 #
transform $-1 -1 1.0000000000000002 0 0 0 1.0000000000000002 0 0 0 1 0 -8.8817841970012523e-016 0 1 rotate no_reflect no_shear #
body $8 -1 $-1 $9 $-1 $10 #
body $11 -1 $-1 $12 $-1 $13 #
shell $-1 -1 $-1 $-1 $-1 $14 $-1 $3 #
rgb_color-st-attrib $-1 -1 $15 $-1 $5 0.5 1 1 #
lump $-1 -1 $-1 $-1 $16 $5 #
transform $-1 -1 1 0 0 0 1 0 0 0 1 0 0 1.778 1 no_rotate no_reflect no_shear #
model_id-kcp-attrib $-1 -1 $-1 $-1 $6 1 1021519668 1021519668 1638989826 1 #
lump $-1 -1 $-1 $-1 $17 $6 #
transform $-1 -1 1 0 0 0 1 0 0 0 1 0 0 1.778 1 no_rotate no_reflect no_shear #
face $18 -1 $-1 $19 $20 $7 $-1 $21 reversed single #
model_id-kcp-attrib $-1 -1 $-1 $8 $5 1 1021519668 1021519668 1630076931 1 #
shell $-1 -1 $-1 $-1 $-1 $22 $-1 $9 #
shell $-1 -1 $-1 $-1 $-1 $23 $-1 $12 #
model_id-kcp-attrib $-1 -1 $-1 $-1 $14 1 1021519668 1021519668 1638989825 2 #
face $24 -1 $-1 $25 $26 $7 $-1 $27 forward single #
loop $-1 -1 $-1 $-1 $28 $14 #
plane-surface $-1 -1 $-1 0 0 0 0 0 1 25.399999999999999 0 0 forward_v I I I I #
face $-1 -1 $-1 $29 $30 $16 $-1 $31 reversed single #
face $32 -1 $-1 $33 $34 $17 $-1 $35 forward single #
model_id-kcp-attrib $-1 -1 $-1 $-1 $19 1 1021519668 1021519668 1638989825 3 #
face $36 -1 $-1 $37 $38 $7 $-1 $39 forward single #
loop $-1 -1 $-1 $-1 $40 $19 #
plane-surface $-1 -1 $-1 -7.4929999999999994 6.8579999999999997 0 -0.70710678118654757 0.70710678118654757 0 -17.960512242138304 -17.960512242138304 0 forward_v I I I I #
coedge $-1 -1 $-1 $41 $42 $43 $44 reversed $20 $-1 #
face $-1 -1 $-1 $45 $46 $16 $-1 $47 forward single #
loop $-1 -1 $-1 $-1 $48 $22 #
plane-surface $-1 -1 $-1 -7.4929999999999986 6.8579999999999997 -1.778 -0.70710678118654757 0.70710678118654757 0 0 0 -1 forward_v I I I I #
model_id-kcp-attrib $-1 -1 $-1 $-1 $23 1 1021519668 1021519668 1638989826 7 #
face $49 -1 $-1 $50 $51 $17 $-1 $52 reversed single #
loop $-1 -1 $-1 $-1 $53 $23 #
plane-surface $-1 -1 $-1 0 0 1.778 0 0 1 1 0 0 forward_v I I I I #
model_id-kcp-attrib $-1 -1 $-1 $-1 $25 1 1021519668 1021519668 1638989825 4 #
face $54 -1 $-1 $55 $56 $7 $-1 $57 forward single #
loop $-1 -1 $-1 $-1 $58 $25 #
plane-surface $-1 -1 $-1 -8.1280000000000001 6.2229999999999999 0 -1 0 0 0 -25.399999999999999 0 forward_v I I I I #
coedge $-1 -1 $-1 $59 $43 $60 $61 forward $26 $-1 #
coedge $-1 -1 $-1 $62 $28 $63 $64 reversed $20 $-1 #
coedge $-1 -1 $-1 $28 $65 $66 $67 reversed $20 $-1 #
coedge $-1 -1 $-1 $40 $68 $28 $44 forward $26 $-1 #
edge $69 -1 $-1 $70 0 $71 0.035355339059327397 $28 $72 forward @7 unknown #
face $-1 -1 $-1 $73 $74 $16 $-1 $75 reversed single #
loop $-1 -1 $-1 $-1 $76 $29 #
plane-surface $-1 -1 $-1 0 0 1.778 0 0 1 1 0 0 forward_v I I I I #
coedge $-1 -1 $-1 $77 $78 $76 $79 reversed $30 $-1 #
model_id-kcp-attrib $-1 -1 $-1 $-1 $33 1 1021519668 1021519668 1638989826 2 #
face $80 -1 $-1 $81 $82 $17 $-1 $83 reversed single #
loop $-1 -1 $-1 $-1 $84 $33 #
plane-surface $-1 -1 $-1 0 0 -1.778 0 0 1 1 0 0 forward_v I I I I #
coedge $-1 -1 $-1 $85 $86 $87 $88 forward $34 $-1 #
model_id-kcp-attrib $-1 -1 $-1 $-1 $37 1 1021519668 1021519668 1638989825 5 #
face $89 -1 $-1 $90 $91 $7 $-1 $92 forward single #
loop $-1 -1 $-1 $-1 $93 $37 #
plane-surface $-1 -1 $-1 -8.1280000000000001 -6.8579999999999997 0 0 -1 0 25.399999999999999 0 0 forward_v I I I I #
coedge $-1 -1 $-1 $94 $66 $95 $96 forward $38 $-1 #
coedge $-1 -1 $-1 $68 $40 $97 $98 reversed $26 $-1 #
coedge $-1 -1 $-1 $66 $94 $40 $61 reversed $38 $-1 #
edge $99 -1 $-1 $71 0 $100 0.14000000000000001 $60 $101 forward @7 unknown #
coedge $-1 -1 $-1 $65 $41 $102 $103 reversed $20 $-1 #
coedge $-1 -1 $-1 $104 $105 $41 $64 forward $106 $-1 #
edge $107 -1 $-1 $108 0 $70 0.61499999999999999 $41 $109 forward @7 unknown #
coedge $-1 -1 $-1 $42 $62 $110 $111 reversed $20 $-1 #
coedge $-1 -1 $-1 $58 $60 $42 $67 forward $38 $-1 #
edge $112 -1 $-1 $71 0 $113 0.51500000000000001 $42 $114 forward @7 unknown #
coedge $-1 -1 $-1 $43 $59 $104 $115 reversed $26 $-1 #
attrib_edge_convexity-kcp-attrib $-1 -1 $116 $-1 $44 1 #
vertex $-1 -1 $-1 $64 $117 #
vertex $-1 -1 $-1 $67 $118 #
straight-curve $-1 -1 $-1 -7.4929999999999994 6.8579999999999997 0 -17.960512242138304 -17.960512242138304 0 I I #
face $-1 -1 $-1 $119 $120 $16 $-1 $121 reversed single #
loop $-1 -1 $-1 $-1 $122 $45 #
plane-surface $-1 -1 $-1 0 6.8579999999999997 0 0 -1 0 0 0 -1 forward_v I I I I #
coedge $-1 -1 $-1 $123 $124 $48 $79 forward $46 $-1 #
coedge $-1 -1 $-1 $125 $48 $126 $127 reversed $30 $-1 #
coedge $-1 -1 $-1 $48 $125 $122 $128 reversed $30 $-1 #
edge $-1 -1 $-1 $129 -1.1225320151336458 $130 -0.22450640302672878 $76 $131 forward @7 unknown #
model_id-kcp-attrib $-1 -1 $-1 $-1 $50 1 1021519668 1021519668 1638989826 4 #
face $132 -1 $-1 $133 $134 $17 $-1 $135 reversed single #
loop $-1 -1 $-1 $-1 $136 $50 #
plane-surface $-1 -1 $-1 0 -6.8579999999999997 0 0 1 0 0 0 1 forward_v I I I I #
coedge $-1 -1 $-1 $137 $138 $139 $140 forward $51 $-1 #
coedge $-1 -1 $-1 $141 $53 $142 $143 forward $34 $-1 #
coedge $-1 -1 $-1 $53 $141 $144 $145 forward $34 $-1 #
coedge $-1 -1 $-1 $146 $147 $53 $88 reversed $148 $-1 #
edge $-1 -1 $-1 $149 -6.8579999999999997 $150 6.8579999999999997 $87 $151 forward @7 unknown #
model_id-kcp-attrib $-1 -1 $-1 $-1 $55 1 1021519668 1021519668 1638989825 6 #
face $152 -1 $-1 $153 $106 $7 $-1 $154 forward single #
loop $-1 -1 $-1 $-1 $155 $55 #
plane-surface $-1 -1 $-1 8.1280000000000001 -6.8579999999999997 0 1 0 0 0 25.399999999999999 0 forward_v I I I I #
coedge $-1 -1 $-1 $156 $110 $157 $158 forward $56 $-1 #
coedge $-1 -1 $-1 $60 $58 $159 $160 reversed $38 $-1 #
coedge $-1 -1 $-1 $110 $156 $58 $96 reversed $56 $-1 #
edge $161 -1 $-1 $113 0 $162 0.14000000000000001 $58 $163 forward @7 unknown #
coedge $-1 -1 $-1 $159 $164 $59 $98 forward $165 $-1 #
edge $166 -1 $-1 $167 0 $100 0.035355339059327397 $97 $168 forward @7 unknown #
attrib_edge_convexity-kcp-attrib $-1 -1 $169 $-1 $61 1 #
vertex $-1 -1 $-1 $160 $170 #
straight-curve $-1 -1 $-1 -8.1280000000000001 6.2229999999999999 0 0 0 25.399999999999999 I I #
coedge $-1 -1 $-1 $155 $157 $62 $103 forward $91 $-1 #
edge $171 -1 $-1 $172 0 $108 0.54000000000000004 $62 $173 forward @7 unknown #
coedge $-1 -1 $-1 $174 $63 $68 $115 forward $106 $-1 #
coedge $-1 -1 $-1 $63 $174 $155 $175 reversed $106 $-1 #
loop $-1 -1 $-1 $-1 $104 $90 #
attrib_edge_convexity-kcp-attrib $-1 -1 $176 $-1 $64 1 #
vertex $-1 -1 $-1 $103 $177 #
straight-curve $-1 -1 $-1 8.1280000000000001 6.8579999999999997 0 -25.399999999999999 0 0 I I #
coedge $-1 -1 $-1 $93 $95 $65 $111 forward $56 $-1 #
edge $178 -1 $-1 $113 0 $172 0.64000000000000001 $65 $179 forward @7 unknown #
attrib_edge_convexity-kcp-attrib $-1 -1 $180 $-1 $67 1 #
vertex $-1 -1 $-1 $67 $181 #
straight-curve $-1 -1 $-1 -8.1280000000000001 6.2229999999999999 0 0 -25.399999999999999 0 I I #
edge $182 -1 $-1 $70 0 $167 0.14000000000000001 $104 $183 forward @7 unknown #
convexity-sys-attrib $-1 -1 $-1 $69 $44 #
point $-1 -1 $-1 -7.4929999999999994 6.8579999999999997 0 #
point $-1 -1 $-1 -8.1280000000000001 6.2229999999999999 0 #
face $-1 -1 $-1 $-1 $184 $16 $-1 $185 reversed single #
loop $-1 -1 $-1 $-1 $186 $73 #
plane-surface $-1 -1 $-1 0 0 -1.778 0 0 1 1 0 0 forward_v I I I I #
coedge $-1 -1 $-1 $187 $188 $78 $128 forward $74 $-1 #
coedge $-1 -1 $-1 $124 $76 $188 $189 forward $46 $-1 #
coedge $-1 -1 $-1 $76 $123 $190 $191 forward $46 $-1 #
coedge $-1 -1 $-1 $78 $77 $186 $192 reversed $30 $-1 #
coedge $-1 -1 $-1 $190 $193 $77 $127 forward $184 $-1 #
edge $-1 -1 $-1 $194 -0.88900000000000001 $129 2.6669999999999998 $126 $195 forward @7 unknown #
edge $-1 -1 $-1 $130 -2.6669999999999998 $196 0.88900000000000001 $122 $197 forward @7 unknown #
vertex $-1 -1 $-1 $127 $198 #
vertex $-1 -1 $-1 $189 $199 #
straight-curve $-1 -1 $-1 -7.334249999999999 7.01675 1.7779999999999998 0.70710678118654757 0.70710678118654757 0 I I #
model_id-kcp-attrib $-1 -1 $-1 $-1 $81 1 1021519668 1021519668 1638989826 3 #
face $200 -1 $-1 $201 $202 $17 $-1 $203 reversed single #
loop $-1 -1 $-1 $-1 $204 $81 #
plane-surface $-1 -1 $-1 -8.1280000000000001 0 0 1 0 0 0 0 -1 forward_v I I I I #
coedge $-1 -1 $-1 $205 $144 $206 $207 forward $82 $-1 #
coedge $-1 -1 $-1 $208 $84 $205 $209 forward $51 $-1 #
coedge $-1 -1 $-1 $84 $208 $210 $211 forward $51 $-1 #
coedge $-1 -1 $-1 $147 $146 $84 $140 reversed $148 $-1 #
edge $-1 -1 $-1 $212 -6.8579999999999997 $213 6.8579999999999997 $139 $214 forward @7 unknown #
coedge $-1 -1 $-1 $86 $85 $215 $216 forward $34 $-1 #
coedge $-1 -1 $-1 $217 $218 $85 $143 reversed $202 $-1 #
edge $-1 -1 $-1 $150 -8.1280000000000001 $219 8.1280000000000001 $142 $220 forward @7 unknown #
coedge $-1 -1 $-1 $136 $221 $86 $145 reversed $82 $-1 #
edge $-1 -1 $-1 $222 -8.1280000000000001 $149 8.1280000000000001 $144 $223 forward @7 unknown #
coedge $-1 -1 $-1 $139 $87 $221 $224 forward $148 $-1 #
coedge $-1 -1 $-1 $87 $139 $217 $225 reversed $148 $-1 #
loop $-1 -1 $-1 $-1 $146 $201 #
vertex $-1 -1 $-1 $88 $226 #
vertex $-1 -1 $-1 $88 $227 #
straight-curve $-1 -1 $-1 8.1280000000000001 0 1.778 0 1 0 I I #
model_id-kcp-attrib $-1 -1 $-1 $-1 $90 1 1021519668 1021519668 1638989825 7 #
face $228 -1 $-1 $-1 $165 $7 $-1 $229 forward single #
plane-surface $-1 -1 $-1 8.1280000000000001 6.8579999999999997 0 0 1 0 -25.399999999999999 0 0 forward_v I I I I #
coedge $-1 -1 $-1 $230 $102 $105 $175 forward $91 $-1 #
coedge $-1 -1 $-1 $95 $93 $231 $232 reversed $56 $-1 #
coedge $-1 -1 $-1 $102 $230 $93 $158 reversed $91 $-1 #
edge $233 -1 $-1 $172 0 $234 0.14000000000000001 $93 $235 forward @7 unknown #
coedge $-1 -1 $-1 $231 $97 $94 $160 forward $165 $-1 #
edge $236 -1 $-1 $100 0 $162 0.51500000000000001 $159 $237 forward @7 unknown #
attrib_edge_convexity-kcp-attrib $-1 -1 $238 $-1 $96 1 #
vertex $-1 -1 $-1 $160 $239 #
straight-curve $-1 -1 $-1 -8.1280000000000001 -6.8579999999999997 0 0 0 25.399999999999999 I I #
coedge $-1 -1 $-1 $97 $240 $174 $241 forward $165 $-1 #
loop $-1 -1 $-1 $-1 $231 $153 #
attrib_edge_convexity-kcp-attrib $-1 -1 $242 $-1 $98 1 #
vertex $-1 -1 $-1 $98 $243 #
straight-curve $-1 -1 $-1 -7.4929999999999994 6.8579999999999997 3.556 -17.960512242138304 -17.960512242138304 0 I I #
convexity-sys-attrib $-1 -1 $-1 $99 $61 #
point $-1 -1 $-1 -8.1280000000000001 6.2229999999999999 3.556 #
attrib_edge_convexity-kcp-attrib $-1 -1 $244 $-1 $103 1 #
vertex $-1 -1 $-1 $111 $245 #
straight-curve $-1 -1 $-1 8.1280000000000001 -6.8579999999999997 0 0 25.399999999999999 0 I I #
coedge $-1 -1 $-1 $105 $104 $164 $241 reversed $106 $-1 #
edge $-1 -1 $-1 $108 0 $246 0.14000000000000001 $155 $247 forward @7 unknown #
convexity-sys-attrib $-1 -1 $-1 $107 $64 #
point $-1 -1 $-1 8.1280000000000001 6.8579999999999997 0 #
attrib_edge_convexity-kcp-attrib $-1 -1 $248 $-1 $111 1 #
straight-curve $-1 -1 $-1 -8.1280000000000001 -6.8579999999999997 0 25.399999999999999 0 0 I I #
convexity-sys-attrib $-1 -1 $-1 $112 $67 #
point $-1 -1 $-1 -8.1280000000000001 -6.8579999999999997 0 #
attrib_edge_convexity-kcp-attrib $-1 -1 $249 $-1 $115 1 #
straight-curve $-1 -1 $-1 -7.4929999999999994 6.8579999999999997 0 0 0 25.399999999999999 I I #
loop $-1 -1 $-1 $-1 $126 $119 #
plane-surface $-1 -1 $-1 -8.1280000000000001 0 0 1 0 0 0 0 -1 forward_v I I I I #
coedge $-1 -1 $-1 $250 $251 $125 $192 forward $120 $-1 #
coedge $-1 -1 $-1 $252 $122 $251 $253 reversed $74 $-1 #
coedge $-1 -1 $-1 $122 $252 $123 $189 reversed $74 $-1 #
edge $-1 -1 $-1 $130 7.4929999999999986 $254 8.1280000000000001 $188 $255 forward @7 unknown #
coedge $-1 -1 $-1 $256 $126 $124 $191 reversed $184 $-1 #
edge $-1 -1 $-1 $254 -6.8579999999999997 $129 -6.222999999999999 $190 $257 forward @7 unknown #
edge $-1 -1 $-1 $196 0.22450640302672878 $194 1.1225320151336458 $186 $258 forward @7 unknown #
coedge $-1 -1 $-1 $126 $256 $250 $259 reversed $184 $-1 #
vertex $-1 -1 $-1 $259 $260 #
straight-curve $-1 -1 $-1 -8.1280000000000001 6.222999999999999 -0.88900000000000001 0 0 1 I I #
vertex $-1 -1 $-1 $192 $261 #
straight-curve $-1 -1 $-1 -7.4929999999999986 6.8579999999999997 -0.88900000000000001 0 0 -1 I I #
point $-1 -1 $-1 -8.1280000000000001 6.222999999999999 1.778 #
point $-1 -1 $-1 -7.4929999999999986 6.8579999999999997 1.778 #
model_id-kcp-attrib $-1 -1 $-1 $-1 $133 1 1021519668 1021519668 1638989826 6 #
face $262 -1 $-1 $-1 $148 $17 $-1 $263 reversed single #
loop $-1 -1 $-1 $-1 $217 $133 #
plane-surface $-1 -1 $-1 0 6.8579999999999997 0 0 -1 0 0 0 -1 forward_v I I I I #
coedge $-1 -1 $-1 $264 $215 $218 $265 forward $134 $-1 #
coedge $-1 -1 $-1 $221 $136 $137 $209 reversed $82 $-1 #
coedge $-1 -1 $-1 $215 $264 $136 $207 reversed $134 $-1 #
edge $-1 -1 $-1 $222 -1.778 $266 1.778 $206 $267 forward @7 unknown #
coedge $-1 -1 $-1 $138 $137 $264 $268 forward $51 $-1 #
edge $-1 -1 $-1 $213 -8.1280000000000001 $266 8.1280000000000001 $205 $269 forward @7 unknown #
coedge $-1 -1 $-1 $218 $217 $138 $211 reversed $202 $-1 #
edge $-1 -1 $-1 $270 -8.1280000000000001 $212 8.1280000000000001 $210 $271 forward @7 unknown #
vertex $-1 -1 $-1 $140 $272 #
vertex $-1 -1 $-1 $224 $273 #
straight-curve $-1 -1 $-1 8.1280000000000001 0 -1.778 0 -1 0 I I #
coedge $-1 -1 $-1 $204 $206 $141 $216 reversed $134 $-1 #
edge $-1 -1 $-1 $219 -6.8579999999999997 $222 6.8579999999999997 $215 $274 forward @7 unknown #
coedge $-1 -1 $-1 $210 $142 $147 $225 forward $202 $-1 #
coedge $-1 -1 $-1 $142 $210 $204 $265 reversed $202 $-1 #
vertex $-1 -1 $-1 $143 $275 #
straight-curve $-1 -1 $-1 0 6.8579999999999997 1.778 -1 0 0 I I #
coedge $-1 -1 $-1 $144 $205 $146 $224 reversed $82 $-1 #
vertex $-1 -1 $-1 $216 $276 #
straight-curve $-1 -1 $-1 0 -6.8579999999999997 1.778 1 0 0 I I #
edge $-1 -1 $-1 $149 -1.778 $213 1.778 $146 $277 forward @7 unknown #
edge $-1 -1 $-1 $150 -1.778 $212 1.778 $147 $278 forward @7 unknown #
point $-1 -1 $-1 8.1280000000000001 -6.8579999999999997 1.778 #
point $-1 -1 $-1 8.1280000000000001 6.8579999999999997 1.778 #
model_id-kcp-attrib $-1 -1 $-1 $-1 $153 1 1021519668 1021519668 1638989825 8 #
plane-surface $-1 -1 $-1 0 0 3.556 0 0 1 25.399999999999999 0 0 forward_v I I I I #
coedge $-1 -1 $-1 $157 $155 $240 $279 reversed $91 $-1 #
coedge $-1 -1 $-1 $240 $159 $156 $232 forward $165 $-1 #
edge $280 -1 $-1 $162 0 $234 0.64000000000000001 $231 $281 forward @7 unknown #
attrib_edge_convexity-kcp-attrib $-1 -1 $282 $-1 $158 1 #
vertex $-1 -1 $-1 $279 $283 #
straight-curve $-1 -1 $-1 8.1280000000000001 -6.8579999999999997 0 0 0 25.399999999999999 I I #
model_id-kcp-attrib $-1 -1 $284 $-1 $160 1 1021519668 1021519668 1638989825 12 #
straight-curve $-1 -1 $-1 -8.1280000000000001 6.2229999999999999 3.556 0 -25.399999999999999 0 I I #
convexity-sys-attrib $-1 -1 $-1 $161 $96 #
point $-1 -1 $-1 -8.1280000000000001 -6.8579999999999997 3.556 #
coedge $-1 -1 $-1 $164 $231 $230 $279 forward $165 $-1 #
edge $285 -1 $-1 $246 0 $167 0.61499999999999999 $164 $286 forward @7 unknown #
convexity-sys-attrib $-1 -1 $-1 $166 $98 #
point $-1 -1 $-1 -7.4929999999999994 6.8579999999999997 3.556 #
convexity-sys-attrib $-1 -1 $-1 $171 $103 #
point $-1 -1 $-1 8.1280000000000001 -6.8579999999999997 0 #
vertex $-1 -1 $-1 $241 $287 #
straight-curve $-1 -1 $-1 8.1280000000000001 6.8579999999999997 0 0 0 25.399999999999999 I I #
convexity-sys-attrib $-1 -1 $-1 $178 $111 #
convexity-sys-attrib $-1 -1 $-1 $182 $115 #
coedge $-1 -1 $-1 $251 $186 $193 $259 forward $120 $-1 #
coedge $-1 -1 $-1 $186 $250 $187 $253 forward $120 $-1 #
coedge $-1 -1 $-1 $188 $187 $256 $288 reversed $74 $-1 #
edge $-1 -1 $-1 $289 -8.1280000000000001 $196 -7.4929999999999986 $187 $290 forward @7 unknown #
vertex $-1 -1 $-1 $189 $291 #
straight-curve $-1 -1 $-1 0 6.8579999999999997 1.778 -1 0 0 I I #
coedge $-1 -1 $-1 $193 $190 $252 $288 forward $184 $-1 #
straight-curve $-1 -1 $-1 -8.1280000000000001 0 1.778 0 -1 0 I I #
straight-curve $-1 -1 $-1 -7.334249999999999 7.01675 -1.778 -0.70710678118654757 -0.70710678118654757 0 I I #
edge $-1 -1 $-1 $194 6.222999999999999 $289 6.8579999999999997 $193 $292 forward @7 unknown #
point $-1 -1 $-1 -8.1280000000000001 6.222999999999999 -1.778 #
point $-1 -1 $-1 -7.4929999999999986 6.8579999999999997 -1.778 #
model_id-kcp-attrib $-1 -1 $-1 $-1 $201 1 1021519668 1021519668 1638989826 5 #
plane-surface $-1 -1 $-1 8.1280000000000001 0 0 -1 0 0 0 0 1 forward_v I I I I #
coedge $-1 -1 $-1 $206 $204 $208 $268 reversed $134 $-1 #
edge $-1 -1 $-1 $219 -1.778 $270 1.778 $218 $293 forward @7 unknown #
vertex $-1 -1 $-1 $268 $294 #
straight-curve $-1 -1 $-1 -8.1280000000000001 -6.8579999999999997 0 0 0 -1 I I #
edge $-1 -1 $-1 $266 -6.8579999999999997 $270 6.8579999999999997 $264 $295 forward @7 unknown #
straight-curve $-1 -1 $-1 0 -6.8579999999999997 -1.778 -1 0 0 I I #
vertex $-1 -1 $-1 $211 $296 #
straight-curve $-1 -1 $-1 0 6.8579999999999997 -1.778 1 0 0 I I #
point $-1 -1 $-1 8.1280000000000001 6.8579999999999997 -1.778 #
point $-1 -1 $-1 8.1280000000000001 -6.8579999999999997 -1.778 #
straight-curve $-1 -1 $-1 -8.1280000000000001 0 1.778 0 -1 0 I I #
point $-1 -1 $-1 -8.1280000000000001 6.8579999999999997 1.778 #
point $-1 -1 $-1 -8.1280000000000001 -6.8579999999999997 1.778 #
straight-curve $-1 -1 $-1 8.1280000000000001 -6.8579999999999997 0 0 0 -1 I I #
straight-curve $-1 -1 $-1 8.1280000000000001 6.8579999999999997 0 0 0 -1 I I #
edge $297 -1 $-1 $234 0 $246 0.54000000000000004 $240 $298 forward @7 unknown #
model_id-kcp-attrib $-1 -1 $299 $-1 $232 1 1021519668 1021519668 1638989825 11 #
straight-curve $-1 -1 $-1 -8.1280000000000001 -6.8579999999999997 3.556 25.399999999999999 0 0 I I #
convexity-sys-attrib $-1 -1 $-1 $233 $158 #
point $-1 -1 $-1 8.1280000000000001 -6.8579999999999997 3.556 #
attrib_edge_convexity-kcp-attrib $-1 -1 $300 $236 $160 1 #
model_id-kcp-attrib $-1 -1 $-1 $-1 $241 1 1021519668 1021519668 1638989825 13 #
straight-curve $-1 -1 $-1 8.1280000000000001 6.8579999999999997 3.556 -25.399999999999999 0 0 I I #
point $-1 -1 $-1 8.1280000000000001 6.8579999999999997 3.556 #
edge $-1 -1 $-1 $254 -1.778 $289 1.778 $252 $301 forward @7 unknown #
vertex $-1 -1 $-1 $253 $302 #
straight-curve $-1 -1 $-1 0 6.8579999999999997 -1.778 1 0 0 I I #
point $-1 -1 $-1 -8.1280000000000001 6.8579999999999997 1.778 #
straight-curve $-1 -1 $-1 -8.1280000000000001 0 -1.778 0 1 0 I I #
straight-curve $-1 -1 $-1 -8.1280000000000001 6.8579999999999997 0 0 0 -1 I I #
point $-1 -1 $-1 -8.1280000000000001 -6.8579999999999997 -1.778 #
straight-curve $-1 -1 $-1 -8.1280000000000001 0 -1.778 0 1 0 I I #
point $-1 -1 $-1 -8.1280000000000001 6.8579999999999997 -1.778 #
model_id-kcp-attrib $-1 -1 $-1 $-1 $279 1 1021519668 1021519668 1638989825 10 #
straight-curve $-1 -1 $-1 8.1280000000000001 -6.8579999999999997 3.556 0 25.399999999999999 0 I I #
attrib_edge_convexity-kcp-attrib $-1 -1 $303 $280 $232 1 #
convexity-sys-attrib $-1 -1 $-1 $284 $160 #
straight-curve $-1 -1 $-1 -8.1280000000000001 6.8579999999999997 0 0 0 -1 I I #
point $-1 -1 $-1 -8.1280000000000001 6.8579999999999997 -1.778 #
convexity-sys-attrib $-1 -1 $-1 $299 $232 #
End-of-ACIS-data 