700 0 2 0           
24 FBMach with ACIS - 7.0.3 13 ACIS 7.0.3 NT 24 Wed May 15 23:27:51 2002 
1 9.9999999999999995e-007 1e-010 
body $2 -1 $-1 $3 $-1 $4 #
bdycol-kcp $-1 -1 1 1 $5 #
model_id-kcp-attrib $-1 -1 $-1 $-1 $0 1 1021519671 1021519671 -1089470463 1 #
lump $-1 -1 $-1 $-1 $6 $0 #
transform $-1 -1 1 0 0 0 1 0 0 0 1 0 0 0 1 rotate no_reflect no_shear #
body $7 -1 $-1 $8 $-1 $9 #
shell $-1 -1 $-1 $-1 $-1 $10 $-1 $3 #
model_id-kcp-attrib $-1 -1 $-1 $-1 $5 1 1021519671 1021519671 -1089470462 1 #
lump $-1 -1 $-1 $-1 $11 $5 #
transform $-1 -1 1 0 0 0 1 0 0 0 1 1.7018 0 0.38099999999999995 1 no_rotate no_reflect no_shear #
face $12 -1 $-1 $13 $14 $6 $-1 $15 reversed single #
shell $-1 -1 $-1 $-1 $-1 $16 $-1 $8 #
model_id-kcp-attrib $-1 -1 $-1 $-1 $10 1 1021519671 1021519671 -1089470463 2 #
face $17 -1 $-1 $18 $19 $6 $-1 $20 forward single #
loop $-1 -1 $-1 $-1 $21 $10 #
plane-surface $-1 -1 $-1 0 0 0 0 0 1 25.399999999999999 0 0 forward_v I I I I #
face $22 -1 $-1 $23 $24 $11 $-1 $25 forward single #
model_id-kcp-attrib $-1 -1 $-1 $-1 $13 1 1021519671 1021519671 -1089470463 3 #
face $26 -1 $-1 $27 $28 $6 $-1 $29 forward single #
loop $-1 -1 $-1 $-1 $30 $13 #
plane-surface $-1 -1 $-1 4.3307000000000002 1.3461999999999998 0 0 1 0 -25.399999999999999 0 0 forward_v I I I I #
coedge $-1 -1 $-1 $31 $32 $33 $34 reversed $14 $-1 #
model_id-kcp-attrib $-1 -1 $-1 $-1 $16 1 1021519671 1021519671 -1089470462 8 #
face $35 -1 $-1 $36 $37 $11 $-1 $38 reversed single #
loop $-1 -1 $-1 $-1 $39 $16 #
plane-surface $-1 -1 $-1 0 0 0.38099999999999995 0 0 1 1 0 0 forward_v I I I I #
model_id-kcp-attrib $-1 -1 $-1 $-1 $18 1 1021519671 1021519671 -1089470463 4 #
face $40 -1 $-1 $41 $42 $6 $-1 $43 forward single #
loop $-1 -1 $-1 $-1 $44 $18 #
plane-surface $-1 -1 $-1 3.5306000000000002 1.3461999999999998 0 0 1 0 -25.399999999999999 0 0 forward_v I I I I #
coedge $-1 -1 $-1 $45 $33 $46 $47 forward $19 $-1 #
coedge $-1 -1 $-1 $48 $21 $49 $50 reversed $14 $-1 #
coedge $-1 -1 $-1 $21 $51 $52 $53 reversed $14 $-1 #
coedge $-1 -1 $-1 $30 $54 $21 $34 forward $19 $-1 #
edge $55 -1 $-1 $56 0 $57 0.0315 $21 $58 forward @7 unknown #
model_id-kcp-attrib $-1 -1 $-1 $-1 $23 1 1021519671 1021519671 -1089470462 2 #
face $59 -1 $-1 $60 $61 $11 $-1 $62 reversed single #
loop $-1 -1 $-1 $-1 $63 $23 #
plane-surface $-1 -1 $-1 0 0 -0.38099999999999995 0 0 1 1 0 0 forward_v I I I I #
coedge $-1 -1 $-1 $64 $65 $66 $67 forward $24 $-1 #
model_id-kcp-attrib $-1 -1 $-1 $-1 $27 1 1021519671 1021519671 -1089470463 5 #
face $68 -1 $-1 $69 $70 $6 $-1 $71 forward single #
loop $-1 -1 $-1 $-1 $72 $27 #
plane-surface $-1 -1 $-1 -0.92709999999999992 1.3461999999999998 0 -1 0 0 0 -25.399999999999999 0 forward_v I I I I #
coedge $-1 -1 $-1 $73 $52 $74 $75 forward $28 $-1 #
coedge $-1 -1 $-1 $54 $30 $76 $77 reversed $19 $-1 #
coedge $-1 -1 $-1 $52 $73 $30 $47 reversed $28 $-1 #
edge $-1 -1 $-1 $57 0 $78 0.029999999999999999 $46 $79 forward @7 unknown #
coedge $-1 -1 $-1 $51 $31 $80 $81 reversed $14 $-1 #
coedge $-1 -1 $-1 $82 $83 $31 $50 forward $84 $-1 #
edge $85 -1 $-1 $86 0 $56 0.106 $31 $87 forward @7 unknown #
coedge $-1 -1 $-1 $32 $48 $88 $89 reversed $14 $-1 #
coedge $-1 -1 $-1 $44 $46 $32 $53 forward $28 $-1 #
edge $90 -1 $-1 $57 0 $91 0.17550000000000002 $32 $92 forward @7 unknown #
coedge $-1 -1 $-1 $33 $45 $82 $93 reversed $19 $-1 #
attrib_edge_convexity-kcp-attrib $-1 -1 $94 $-1 $34 1 #
vertex $-1 -1 $-1 $50 $95 #
vertex $-1 -1 $-1 $53 $96 #
straight-curve $-1 -1 $-1 4.3307000000000002 1.3461999999999998 0 -25.399999999999999 0 0 I I #
model_id-kcp-attrib $-1 -1 $-1 $-1 $36 1 1021519671 1021519671 -1089470462 6 #
face $97 -1 $-1 $98 $99 $11 $-1 $100 reversed single #
loop $-1 -1 $-1 $-1 $101 $36 #
plane-surface $-1 -1 $-1 0 -1.3461999999999998 0 0 1 0 0 0 1 forward_v I I I I #
coedge $-1 -1 $-1 $102 $103 $104 $105 forward $37 $-1 #
coedge $-1 -1 $-1 $106 $39 $107 $108 forward $24 $-1 #
coedge $-1 -1 $-1 $39 $106 $109 $110 forward $24 $-1 #
coedge $-1 -1 $-1 $111 $112 $39 $67 reversed $113 $-1 #
edge $-1 -1 $-1 $114 -1.3461999999999998 $115 1.3461999999999998 $66 $116 forward @7 unknown #
model_id-kcp-attrib $-1 -1 $-1 $-1 $41 1 1021519671 1021519671 -1089470463 6 #
face $117 -1 $-1 $118 $84 $6 $-1 $119 forward single #
loop $-1 -1 $-1 $-1 $120 $41 #
plane-surface $-1 -1 $-1 -0.92709999999999992 -1.3461999999999998 0 0 -1 0 25.399999999999999 0 0 forward_v I I I I #
coedge $-1 -1 $-1 $121 $88 $122 $123 forward $42 $-1 #
coedge $-1 -1 $-1 $46 $44 $124 $125 reversed $28 $-1 #
coedge $-1 -1 $-1 $88 $121 $44 $75 reversed $42 $-1 #
edge $126 -1 $-1 $91 0 $127 0.029999999999999999 $44 $128 forward @7 unknown #
coedge $-1 -1 $-1 $124 $129 $45 $77 forward $130 $-1 #
edge $-1 -1 $-1 $131 0 $78 0.0315 $76 $132 forward @7 unknown #
vertex $-1 -1 $-1 $125 $133 #
straight-curve $-1 -1 $-1 3.5306000000000002 1.3461999999999998 0 0 0 25.399999999999999 I I #
coedge $-1 -1 $-1 $120 $122 $48 $81 forward $70 $-1 #
edge $134 -1 $-1 $135 0 $86 0.20700000000000002 $48 $136 forward @7 unknown #
coedge $-1 -1 $-1 $137 $49 $54 $93 forward $84 $-1 #
coedge $-1 -1 $-1 $49 $137 $120 $138 reversed $84 $-1 #
loop $-1 -1 $-1 $-1 $82 $69 #
attrib_edge_convexity-kcp-attrib $-1 -1 $139 $-1 $50 1 #
vertex $-1 -1 $-1 $81 $140 #
straight-curve $-1 -1 $-1 4.3307000000000002 -1.3461999999999998 0 0 25.399999999999999 0 I I #
coedge $-1 -1 $-1 $72 $74 $51 $89 forward $42 $-1 #
edge $141 -1 $-1 $91 0 $135 0.106 $51 $142 forward @7 unknown #
attrib_edge_convexity-kcp-attrib $-1 -1 $143 $-1 $53 1 #
vertex $-1 -1 $-1 $53 $144 #
straight-curve $-1 -1 $-1 3.5306000000000002 1.3461999999999998 0 -25.399999999999999 0 0 I I #
edge $-1 -1 $-1 $56 0 $131 0.029999999999999999 $82 $145 forward @7 unknown #
convexity-sys-attrib $-1 -1 $-1 $55 $34 #
point $-1 -1 $-1 4.3307000000000002 1.3461999999999998 0 #
point $-1 -1 $-1 3.5306000000000002 1.3461999999999998 0 #
model_id-kcp-attrib $-1 -1 $-1 $-1 $60 1 1021519671 1021519671 -1089470462 5 #
face $146 -1 $-1 $147 $148 $11 $-1 $149 reversed single #
loop $-1 -1 $-1 $-1 $150 $60 #
plane-surface $-1 -1 $-1 -2.6289000000000002 0 0 1 0 0 0 0 -1 forward_v I I I I #
coedge $-1 -1 $-1 $151 $109 $152 $153 forward $61 $-1 #
coedge $-1 -1 $-1 $154 $63 $151 $155 forward $37 $-1 #
coedge $-1 -1 $-1 $63 $154 $156 $157 forward $37 $-1 #
coedge $-1 -1 $-1 $112 $111 $63 $105 reversed $113 $-1 #
edge $-1 -1 $-1 $158 -1.3461999999999998 $159 1.3461999999999998 $104 $160 forward @7 unknown #
coedge $-1 -1 $-1 $65 $64 $161 $162 forward $24 $-1 #
coedge $-1 -1 $-1 $163 $164 $64 $108 reversed $148 $-1 #
edge $-1 -1 $-1 $115 -2.6289000000000002 $165 2.6289000000000002 $107 $166 forward @7 unknown #
coedge $-1 -1 $-1 $101 $167 $65 $110 reversed $61 $-1 #
edge $-1 -1 $-1 $168 -2.6289000000000002 $114 2.6289000000000002 $109 $169 forward @7 unknown #
coedge $-1 -1 $-1 $104 $66 $167 $170 forward $113 $-1 #
coedge $-1 -1 $-1 $66 $104 $163 $171 reversed $113 $-1 #
loop $-1 -1 $-1 $-1 $111 $147 #
vertex $-1 -1 $-1 $67 $172 #
vertex $-1 -1 $-1 $67 $173 #
straight-curve $-1 -1 $-1 2.6289000000000002 0 0.38099999999999995 0 1 0 I I #
model_id-kcp-attrib $-1 -1 $-1 $-1 $69 1 1021519671 1021519671 -1089470463 7 #
face $174 -1 $-1 $-1 $130 $6 $-1 $175 forward single #
plane-surface $-1 -1 $-1 4.3307000000000002 -1.3461999999999998 0 1 0 0 0 25.399999999999999 0 forward_v I I I I #
coedge $-1 -1 $-1 $176 $80 $83 $138 forward $70 $-1 #
coedge $-1 -1 $-1 $74 $72 $177 $178 reversed $42 $-1 #
coedge $-1 -1 $-1 $80 $176 $72 $123 reversed $70 $-1 #
edge $179 -1 $-1 $135 0 $180 0.029999999999999999 $72 $181 forward @7 unknown #
coedge $-1 -1 $-1 $177 $76 $73 $125 forward $130 $-1 #
edge $-1 -1 $-1 $78 0 $127 0.17550000000000002 $124 $182 forward @7 unknown #
attrib_edge_convexity-kcp-attrib $-1 -1 $183 $-1 $75 1 #
vertex $-1 -1 $-1 $125 $184 #
straight-curve $-1 -1 $-1 -0.92710000000000004 1.3461999999999998 0 0 0 25.399999999999999 I I #
coedge $-1 -1 $-1 $76 $185 $137 $186 forward $130 $-1 #
loop $-1 -1 $-1 $-1 $177 $118 #
vertex $-1 -1 $-1 $77 $187 #
straight-curve $-1 -1 $-1 4.3307000000000002 1.3461999999999998 0.7619999999999999 -25.399999999999999 0 0 I I #
point $-1 -1 $-1 3.5306000000000002 1.3461999999999998 0.7619999999999999 #
attrib_edge_convexity-kcp-attrib $-1 -1 $188 $-1 $81 1 #
vertex $-1 -1 $-1 $89 $189 #
straight-curve $-1 -1 $-1 -0.92709999999999992 -1.3461999999999998 0 25.399999999999999 0 0 I I #
coedge $-1 -1 $-1 $83 $82 $129 $186 reversed $84 $-1 #
edge $190 -1 $-1 $86 0 $191 0.029999999999999999 $120 $192 forward @7 unknown #
convexity-sys-attrib $-1 -1 $-1 $85 $50 #
point $-1 -1 $-1 4.3307000000000002 -1.3461999999999998 0 #
attrib_edge_convexity-kcp-attrib $-1 -1 $193 $-1 $89 1 #
straight-curve $-1 -1 $-1 -0.92709999999999992 1.3461999999999998 0 0 -25.399999999999999 0 I I #
convexity-sys-attrib $-1 -1 $-1 $90 $53 #
point $-1 -1 $-1 -0.92709999999999992 1.3461999999999998 0 #
straight-curve $-1 -1 $-1 4.3307000000000002 1.3461999999999998 0 0 0 25.399999999999999 I I #
model_id-kcp-attrib $-1 -1 $-1 $-1 $98 1 1021519671 1021519671 -1089470462 3 #
face $194 -1 $-1 $-1 $113 $11 $-1 $195 reversed single #
loop $-1 -1 $-1 $-1 $163 $98 #
plane-surface $-1 -1 $-1 0 1.3461999999999998 0 0 -1 0 0 0 -1 forward_v I I I I #
coedge $-1 -1 $-1 $196 $161 $164 $197 forward $99 $-1 #
coedge $-1 -1 $-1 $167 $101 $102 $155 reversed $61 $-1 #
coedge $-1 -1 $-1 $161 $196 $101 $153 reversed $99 $-1 #
edge $-1 -1 $-1 $168 -0.38099999999999995 $198 0.38099999999999995 $152 $199 forward @7 unknown #
coedge $-1 -1 $-1 $103 $102 $196 $200 forward $37 $-1 #
edge $-1 -1 $-1 $159 -2.6289000000000002 $198 2.6289000000000002 $151 $201 forward @7 unknown #
coedge $-1 -1 $-1 $164 $163 $103 $157 reversed $148 $-1 #
edge $-1 -1 $-1 $202 -2.6289000000000002 $158 2.6289000000000002 $156 $203 forward @7 unknown #
vertex $-1 -1 $-1 $105 $204 #
vertex $-1 -1 $-1 $170 $205 #
straight-curve $-1 -1 $-1 2.6289000000000002 0 -0.38099999999999995 0 -1 0 I I #
coedge $-1 -1 $-1 $150 $152 $106 $162 reversed $99 $-1 #
edge $-1 -1 $-1 $165 -1.3461999999999998 $168 1.3461999999999998 $161 $206 forward @7 unknown #
coedge $-1 -1 $-1 $156 $107 $112 $171 forward $148 $-1 #
coedge $-1 -1 $-1 $107 $156 $150 $197 reversed $148 $-1 #
vertex $-1 -1 $-1 $108 $207 #
straight-curve $-1 -1 $-1 0 1.3461999999999998 0.38099999999999995 -1 0 0 I I #
coedge $-1 -1 $-1 $109 $151 $111 $170 reversed $61 $-1 #
vertex $-1 -1 $-1 $162 $208 #
straight-curve $-1 -1 $-1 0 -1.3461999999999998 0.38099999999999995 1 0 0 I I #
edge $-1 -1 $-1 $114 -0.38099999999999995 $159 0.38099999999999995 $111 $209 forward @7 unknown #
edge $-1 -1 $-1 $115 -0.38099999999999995 $158 0.38099999999999995 $112 $210 forward @7 unknown #
point $-1 -1 $-1 2.6289000000000002 -1.3461999999999998 0.38099999999999995 #
point $-1 -1 $-1 2.6289000000000002 1.3461999999999998 0.38099999999999995 #
model_id-kcp-attrib $-1 -1 $-1 $-1 $118 1 1021519671 1021519671 -1089470463 8 #
plane-surface $-1 -1 $-1 0 0 0.7619999999999999 0 0 1 25.399999999999999 0 0 forward_v I I I I #
coedge $-1 -1 $-1 $122 $120 $185 $211 reversed $70 $-1 #
coedge $-1 -1 $-1 $185 $124 $121 $178 forward $130 $-1 #
edge $212 -1 $-1 $127 0 $180 0.106 $177 $213 forward @7 unknown #
attrib_edge_convexity-kcp-attrib $-1 -1 $214 $-1 $123 1 #
vertex $-1 -1 $-1 $211 $215 #
straight-curve $-1 -1 $-1 -0.92709999999999992 -1.3461999999999998 0 0 0 25.399999999999999 I I #
straight-curve $-1 -1 $-1 3.5306000000000002 1.3461999999999998 0.7619999999999999 -25.399999999999999 0 0 I I #
convexity-sys-attrib $-1 -1 $-1 $126 $75 #
point $-1 -1 $-1 -0.92709999999999992 1.3461999999999998 0.7619999999999999 #
coedge $-1 -1 $-1 $129 $177 $176 $211 forward $130 $-1 #
edge $-1 -1 $-1 $191 0 $131 0.106 $129 $216 forward @7 unknown #
point $-1 -1 $-1 4.3307000000000002 1.3461999999999998 0.7619999999999999 #
convexity-sys-attrib $-1 -1 $-1 $134 $81 #
point $-1 -1 $-1 -0.92709999999999992 -1.3461999999999998 0 #
attrib_edge_convexity-kcp-attrib $-1 -1 $217 $-1 $138 1 #
vertex $-1 -1 $-1 $186 $218 #
straight-curve $-1 -1 $-1 4.3307000000000002 -1.3461999999999998 0 0 0 25.399999999999999 I I #
convexity-sys-attrib $-1 -1 $-1 $141 $89 #
model_id-kcp-attrib $-1 -1 $-1 $-1 $147 1 1021519671 1021519671 -1089470462 7 #
plane-surface $-1 -1 $-1 2.6289000000000002 0 0 -1 0 0 0 0 1 forward_v I I I I #
coedge $-1 -1 $-1 $152 $150 $154 $200 reversed $99 $-1 #
edge $-1 -1 $-1 $165 -0.38099999999999995 $202 0.38099999999999995 $164 $219 forward @7 unknown #
vertex $-1 -1 $-1 $200 $220 #
straight-curve $-1 -1 $-1 -2.6289000000000002 -1.3461999999999998 0 0 0 -1 I I #
edge $-1 -1 $-1 $198 -1.3461999999999998 $202 1.3461999999999998 $196 $221 forward @7 unknown #
straight-curve $-1 -1 $-1 0 -1.3461999999999998 -0.38099999999999995 -1 0 0 I I #
vertex $-1 -1 $-1 $157 $222 #
straight-curve $-1 -1 $-1 0 1.3461999999999998 -0.38099999999999995 1 0 0 I I #
point $-1 -1 $-1 2.6289000000000002 1.3461999999999998 -0.38099999999999995 #
point $-1 -1 $-1 2.6289000000000002 -1.3461999999999998 -0.38099999999999995 #
straight-curve $-1 -1 $-1 -2.6289000000000002 0 0.38099999999999995 0 -1 0 I I #
point $-1 -1 $-1 -2.6289000000000002 1.3461999999999998 0.38099999999999995 #
point $-1 -1 $-1 -2.6289000000000002 -1.3461999999999998 0.38099999999999995 #
straight-curve $-1 -1 $-1 2.6289000000000002 -1.3461999999999998 0 0 0 -1 I I #
straight-curve $-1 -1 $-1 2.6289000000000002 1.3461999999999998 0 0 0 -1 I I #
edge $223 -1 $-1 $180 0 $191 0.20700000000000002 $185 $224 forward @7 unknown #
attrib_edge_convexity-kcp-attrib $-1 -1 $225 $-1 $178 1 #
straight-curve $-1 -1 $-1 -0.92709999999999992 1.3461999999999998 0.7619999999999999 0 -25.399999999999999 0 I I #
convexity-sys-attrib $-1 -1 $-1 $179 $123 #
point $-1 -1 $-1 -0.92709999999999992 -1.3461999999999998 0.7619999999999999 #
straight-curve $-1 -1 $-1 4.3307000000000002 -1.3461999999999998 0.7619999999999999 0 25.399999999999999 0 I I #
convexity-sys-attrib $-1 -1 $-1 $190 $138 #
point $-1 -1 $-1 4.3307000000000002 -1.3461999999999998 0.7619999999999999 #
straight-curve $-1 -1 $-1 -2.6289000000000002 1.3461999999999998 0 0 0 -1 I I #
point $-1 -1 $-1 -2.6289000000000002 -1.3461999999999998 -0.38099999999999995 #
straight-curve $-1 -1 $-1 -2.6289000000000002 0 -0.38099999999999995 0 1 0 I I #
point $-1 -1 $-1 -2.6289000000000002 1.3461999999999998 -0.38099999999999995 #
attrib_edge_convexity-kcp-attrib $-1 -1 $226 $-1 $211 1 #
straight-curve $-1 -1 $-1 -0.92709999999999992 -1.3461999999999998 0.7619999999999999 25.399999999999999 0 0 I I #
convexity-sys-attrib $-1 -1 $-1 $212 $178 #
convexity-sys-attrib $-1 -1 $-1 $223 $211 #
End-of-ACIS-data 