600 0 1 0           
92 GICL ACIS Healer - Source: /gicl/data5/repository/PTC/V18/cabecad18/ptc_comp/relay.sat - 6 0 18 ACIS 6.0.3 Solaris 24 Sat Apr 13 22:25:07 2002 
1 9.999999999999999547e-07 1.000000000000000036e-10 
body $-1 $1 $-1 $-1 #
lump $-1 $-1 $2 $0 #
shell $-1 $-1 $-1 $3 $-1 $1 #
face $-1 $4 $5 $2 $-1 $6 reversed single #
face $-1 $7 $8 $2 $-1 $9 forward single #
loop $-1 $-1 $10 $3 #
plane-surface $-1 0 0 0 0 0 1 25.39999999999999858 0 0 forward_v I I I I #
face $-1 $11 $12 $2 $-1 $13 forward single #
loop $-1 $-1 $14 $4 #
cone-surface $-1 -6.349999999999999645 0 0 0 0 -1 -1.269999999999999796 0 0 1 I I 0 1 1.269999999999999796 forward I I I I #
coedge $-1 $15 $16 $17 $18 forward $5 $-1 #
face $-1 $19 $20 $2 $-1 $21 forward single #
loop $-1 $-1 $22 $7 #
torus-surface $-1 -6.349999999999999645 -6.349999999999999645 10.15999999999999837 -1 0 0 6.349999999999999645 1.269999999999999796 0 0 1 forward_v I I I I #
coedge $-1 $23 $24 $22 $25 reversed $8 $-1 #
coedge $-1 $26 $10 $27 $28 reversed $5 $-1 #
coedge $-1 $10 $29 $30 $31 reversed $5 $-1 #
coedge $-1 $24 $23 $10 $18 reversed $8 $-1 #
edge $-1 $32 0 $33 1.57079632679489678 $10 $34 forward 7 unknown #
face $-1 $35 $36 $2 $-1 $37 forward single #
loop $-1 $-1 $38 $11 #
plane-surface $-1 -7.619999999999999218 1.269999999999999796 0 -1 0 0 0 -25.39999999999999858 0 forward_v I I I I #
coedge $-1 $39 $40 $14 $25 forward $12 $-1 #
coedge $-1 $17 $14 $41 $42 reversed $8 $-1 #
coedge $-1 $14 $17 $43 $44 forward $8 $-1 #
edge $-1 $45 -2.185478394931434056e-17 $46 1.570796326794900777 $14 $47 forward 7 unknown #
coedge $-1 $48 $15 $49 $50 forward $5 $-1 #
coedge $-1 $41 $51 $15 $28 forward $52 $-1 #
edge $-1 $53 0 $33 0.5 $15 $54 forward 7 unknown #
coedge $-1 $16 $55 $56 $57 forward $5 $-1 #
coedge $-1 $38 $43 $16 $31 forward $20 $-1 #
edge $-1 $32 0 $58 1.399999999999999911 $16 $59 forward 7 unknown #
vertex $-1 $31 $60 #
vertex $-1 $28 $61 #
ellipse-curve $-1 -6.349999999999999645 1.321859288694326809e-16 0 0 0 -1 -1.269999999999999574 -1.321859288694326809e-16 0 1 I I #
face $-1 $62 $63 $2 $-1 $64 forward single #
loop $-1 $-1 $65 $19 #
cone-surface $-1 -6.349999999999999645 -35.55999999999999517 0 0 0 -1 0 -1.269999999999999796 0 1 I I 0 1 1.269999999999999796 forward I I I I #
coedge $-1 $66 $30 $67 $68 forward $20 $-1 #
coedge $-1 $69 $22 $70 $71 reversed $12 $-1 #
coedge $-1 $22 $69 $72 $73 forward $12 $-1 #
coedge $-1 $74 $27 $23 $42 forward $52 $-1 #
edge $-1 $33 0 $45 0.3999999999999999667 $41 $75 forward 7 unknown #
coedge $-1 $30 $70 $24 $44 reversed $20 $-1 #
edge $-1 $32 0 $46 0.3999999999999999112 $43 $76 forward 7 unknown #
vertex $-1 $77 $78 #
vertex $-1 $44 $79 #
ellipse-curve $-1 -6.350000000000001421 1.586231146433192368e-15 10.16000000000000014 3.081487911019585422e-30 1.110223024625157921e-15 1 3.524958103184872016e-15 1.269999999999998241 -1.409983241273948727e-15 1 I I #
coedge $-1 $80 $26 $81 $82 reversed $5 $-1 #
coedge $-1 $83 $84 $26 $50 reversed $85 $-1 #
edge $-1 $53 1.442415740654731088e-16 $86 1.570796326794896114 $26 $87 forward 7 unknown #
coedge $-1 $27 $74 $83 $88 reversed $52 $-1 #
loop $-1 $-1 $41 $89 #
vertex $-1 $50 $90 #
straight-curve $-1 6.349999999999999645 1.269999999999999796 0 -25.39999999999999858 0 0 I I #
coedge $-1 $29 $80 $91 $92 reversed $5 $-1 #
coedge $-1 $93 $67 $29 $57 reversed $36 $-1 #
edge $-1 $94 1.442415740654718515e-16 $58 1.570796326794896114 $29 $95 forward 7 unknown #
vertex $-1 $31 $96 #
straight-curve $-1 -7.619999999999999218 0 0 0 -25.39999999999999858 0 I I #
point $-1 -7.619999999999999218 0 0 #
point $-1 -6.349999999999999645 1.269999999999999796 0 #
face $-1 $97 $98 $2 $-1 $99 forward single #
loop $-1 $-1 $100 $35 #
torus-surface $-1 -6.349999999999999645 -29.2099999999999973 10.15999999999999837 1 0 0 6.349999999999999645 1.269999999999999796 0 0 1 forward_v I I I I #
coedge $-1 $67 $93 $101 $102 forward $36 $-1 #
coedge $-1 $103 $38 $104 $105 reversed $20 $-1 #
coedge $-1 $56 $65 $38 $68 reversed $36 $-1 #
edge $-1 $58 0 $106 0.3999999999999999112 $38 $107 forward 7 unknown #
coedge $-1 $40 $39 $108 $109 reversed $12 $-1 #
coedge $-1 $43 $103 $39 $71 forward $20 $-1 #
edge $-1 $110 2.44773580232319145e-17 $46 1.570796326794897224 $70 $111 forward 7 unknown #
coedge $-1 $112 $113 $40 $73 reversed $114 $-1 #
edge $-1 $115 0 $45 1.570796326794896558 $72 $116 forward 7 unknown #
coedge $-1 $51 $41 $113 $77 reversed $52 $-1 #
straight-curve $-1 -6.349999999999997868 1.269999999999999796 0 0 0 25.39999999999999858 I I #
straight-curve $-1 -7.619999999999999218 0 0 0 0 25.39999999999999858 I I #
edge $-1 $117 0 $45 0.4999999999999999445 $74 $118 forward 7 unknown #
point $-1 -6.349999999999997868 1.269999999999999796 10.15999999999999837 #
point $-1 -7.619999999999999218 0 10.15999999999999659 #
coedge $-1 $55 $48 $119 $120 forward $5 $-1 #
coedge $-1 $121 $122 $48 $82 forward $123 $-1 #
edge $-1 $124 0 $86 1.399999999999999911 $48 $125 forward 7 unknown #
coedge $-1 $126 $49 $51 $88 forward $85 $-1 #
coedge $-1 $49 $126 $121 $127 reversed $85 $-1 #
loop $-1 $-1 $126 $128 #
vertex $-1 $82 $129 #
ellipse-curve $-1 6.349999999999998757 2.203098814490544887e-17 0 0 0 -1 7.049916206369743637e-16 1.269999999999999796 0 1 I I #
edge $-1 $53 0 $117 0.3999999999999999112 $51 $130 forward 7 unknown #
face $-1 $-1 $52 $2 $-1 $131 forward single #
point $-1 6.349999999999999645 1.269999999999999796 0 #
coedge $-1 $132 $133 $55 $92 forward $134 $-1 #
edge $-1 $94 0 $135 0.5 $55 $136 forward 7 unknown #
coedge $-1 $65 $56 $133 $137 forward $36 $-1 #
vertex $-1 $57 $138 #
ellipse-curve $-1 -6.349999999999998757 -35.55999999999999517 0 0 0 -1 -7.049916206369743637e-16 -1.270000000000001128 0 1 I I #
point $-1 -7.619999999999999218 -35.55999999999999517 0 #
face $-1 $139 $140 $2 $-1 $141 forward single #
loop $-1 $-1 $108 $62 #
cone-surface $-1 -6.349999999999999645 -6.349999999999999645 16.50999999999999801 0 -1 0 0 0 1.269999999999999796 1 I I 0 1 1.269999999999999796 forward I I I I #
coedge $-1 $104 $142 $143 $144 forward $63 $-1 #
coedge $-1 $142 $104 $65 $102 reversed $63 $-1 #
edge $-1 $145 0 $106 1.570796326794902331 $101 $146 forward 7 unknown #
coedge $-1 $70 $66 $147 $148 reversed $20 $-1 #
coedge $-1 $101 $100 $66 $105 forward $63 $-1 #
edge $-1 $149 9.790943209292762102e-17 $106 1.570796326794899889 $66 $150 forward 7 unknown #
vertex $-1 $105 $151 #
straight-curve $-1 -7.619999999999999218 -35.55999999999999517 0 0 0 25.39999999999999858 I I #
coedge $-1 $147 $152 $69 $109 forward $98 $-1 #
edge $-1 $115 0 $110 1.570796326794896558 $69 $153 forward 7 unknown #
vertex $-1 $71 $154 #
ellipse-curve $-1 -7.619999999999999218 -6.34999999999999698 10.15999999999999659 -1 0 0 0 -2.819966482547897455e-15 6.349999999999999645 1 I I #
coedge $-1 $155 $72 $156 $157 reversed $114 $-1 #
coedge $-1 $72 $155 $74 $77 forward $114 $-1 #
loop $-1 $-1 $155 $158 #
vertex $-1 $159 $160 #
ellipse-curve $-1 -6.349999999999997868 -6.349999999999999645 10.15999999999999837 -1 0 0 0 0 7.619999999999996554 1 I I #
vertex $-1 $88 $161 #
straight-curve $-1 6.349999999999999645 1.269999999999999796 10.15999999999999837 -25.39999999999999858 0 0 I I #
coedge $-1 $162 $163 $80 $120 reversed $164 $-1 #
edge $-1 $124 -1.153932592523785265e-15 $135 1.570796326794901221 $80 $165 forward 7 unknown #
coedge $-1 $166 $81 $84 $127 forward $123 $-1 #
coedge $-1 $81 $167 $162 $168 reversed $123 $-1 #
loop $-1 $-1 $121 $169 #
vertex $-1 $120 $170 #
straight-curve $-1 7.619999999999999218 -35.55999999999999517 0 0 25.39999999999999858 0 I I #
coedge $-1 $84 $83 $171 $172 forward $85 $-1 #
edge $-1 $86 0 $173 0.3999999999999999112 $121 $174 forward 7 unknown #
face $-1 $175 $85 $2 $-1 $176 forward single #
point $-1 7.619999999999999218 0 0 #
straight-curve $-1 6.349999999999999645 1.269999999999999796 0 0 0 25.39999999999999858 I I #
plane-surface $-1 7.619999999999999218 1.269999999999999796 0 0 1 0 -25.39999999999999858 0 0 forward_v I I I I #
coedge $-1 $177 $91 $163 $178 forward $134 $-1 #
coedge $-1 $91 $177 $93 $137 reversed $134 $-1 #
loop $-1 $-1 $132 $179 #
vertex $-1 $92 $180 #
straight-curve $-1 -6.349999999999999645 -36.82999999999999829 0 25.39999999999999858 0 0 I I #
edge $-1 $94 0 $145 0.3999999999999999112 $133 $181 forward 7 unknown #
point $-1 -6.349999999999999645 -36.82999999999999829 0 #
face $-1 $179 $182 $2 $-1 $183 forward single #
loop $-1 $-1 $184 $97 #
plane-surface $-1 0 0 17.77999999999999758 0 0 1 25.39999999999999858 0 0 forward_v I I I I #
coedge $-1 $100 $101 $185 $186 reversed $63 $-1 #
coedge $-1 $152 $147 $100 $144 reversed $98 $-1 #
edge $-1 $187 1.223867901161613105e-16 $149 1.570796326794899 $143 $188 forward 7 unknown #
vertex $-1 $137 $189 #
ellipse-curve $-1 -6.349999999999999645 -35.56000000000000227 10.15999999999999659 0 0 -1 0 -1.269999999999995355 0 1 I I #
coedge $-1 $143 $108 $103 $148 forward $98 $-1 #
edge $-1 $110 0 $149 0.9000000000000000222 $103 $190 forward 7 unknown #
vertex $-1 $148 $191 #
ellipse-curve $-1 -7.619999999999999218 -29.21000000000000796 10.16000000000000547 1 0 0 0 1.127986593019158982e-14 6.349999999999990763 1 I I #
point $-1 -7.619999999999999218 -35.55999999999999517 10.15999999999999659 #
coedge $-1 $108 $143 $192 $159 reversed $98 $-1 #
ellipse-curve $-1 -6.349999999999999645 -6.349999999999999645 16.50999999999999801 0 -1 0 0 0 1.270000000000001128 1 I I #
point $-1 -7.619999999999999218 -6.349999999999999645 16.50999999999999801 #
coedge $-1 $113 $112 $193 $194 forward $114 $-1 #
coedge $-1 $192 $195 $112 $157 forward $140 $-1 #
edge $-1 $196 0 $115 0.5 $156 $197 forward 7 unknown #
face $-1 $89 $114 $2 $-1 $198 forward single #
edge $-1 $115 0 $187 0.9000000000000000222 $192 $199 forward 7 unknown #
point $-1 -6.349999999999999645 -6.349999999999999645 17.77999999999999758 #
point $-1 6.349999999999999645 1.269999999999999796 10.15999999999999659 #
coedge $-1 $200 $119 $122 $168 forward $164 $-1 #
coedge $-1 $119 $200 $132 $178 reversed $164 $-1 #
loop $-1 $-1 $200 $201 #
ellipse-curve $-1 6.349999999999999645 -35.56000000000000227 0 0 0 -1 1.269999999999999574 5.63993296509579491e-15 0 1 I I #
coedge $-1 $202 $121 $203 $204 reversed $123 $-1 #
coedge $-1 $122 $202 $205 $206 forward $123 $-1 #
edge $-1 $124 0 $207 0.3999999999999999112 $122 $208 forward 7 unknown #
face $-1 $128 $123 $2 $-1 $209 forward single #
point $-1 7.619999999999999218 -35.55999999999999517 0 #
coedge $-1 $193 $203 $126 $172 reversed $210 $-1 #
edge $-1 $117 -2.884831481309464641e-16 $173 1.570796326794898556 $126 $211 forward 7 unknown #
vertex $-1 $204 $212 #
straight-curve $-1 7.619999999999999218 0 0 0 0 25.39999999999999858 I I #
face $-1 $213 $210 $2 $-1 $214 forward single #
cone-surface $-1 6.349999999999999645 0 0 0 0 -1 0 1.269999999999999796 0 1 I I 0 1 1.269999999999999796 forward I I I I #
coedge $-1 $133 $132 $215 $216 reversed $134 $-1 #
edge $-1 $135 0 $217 0.3999999999999999112 $132 $218 forward 7 unknown #
face $-1 $201 $134 $2 $-1 $219 forward single #
point $-1 6.349999999999999645 -36.82999999999999829 0 #
straight-curve $-1 -6.349999999999999645 -36.82999999999999829 0 0 0 25.39999999999999858 I I #
loop $-1 $-1 $185 $139 #
cone-surface $-1 -7.619999999999999218 -29.2099999999999973 10.15999999999999837 1 0 0 0 0 7.619999999999999218 1 I I 0 1 7.619999999999999218 forward I I I I #
coedge $-1 $195 $192 $220 $221 forward $140 $-1 #
coedge $-1 $215 $220 $142 $186 forward $182 $-1 #
edge $-1 $187 0 $145 1.570796326794897002 $185 $222 forward 7 unknown #
vertex $-1 $159 $223 #
ellipse-curve $-1 -6.350000000000002309 -29.2099999999999973 16.50999999999999801 0 -1 0 2.819966482547897455e-15 0 1.269999999999998241 1 I I #
point $-1 -6.349999999999999645 -36.82999999999999829 10.15999999999999659 #
straight-curve $-1 -7.619999999999999218 -6.349999999999999645 16.50999999999999801 0 -25.39999999999999858 0 I I #
point $-1 -7.619999999999999218 -29.2099999999999973 16.50999999999999801 #
coedge $-1 $184 $156 $152 $159 forward $140 $-1 #
coedge $-1 $224 $171 $155 $194 reversed $210 $-1 #
edge $-1 $196 0 $117 1.570796326794897002 $155 $225 forward 7 unknown #
coedge $-1 $156 $184 $226 $227 forward $140 $-1 #
vertex $-1 $157 $228 #
straight-curve $-1 6.349999999999999645 -6.349999999999999645 17.77999999999999758 -25.39999999999999858 0 0 I I #
cone-surface $-1 7.619999999999999218 -6.349999999999999645 10.15999999999999837 -1 0 0 0 0 7.619999999999999218 1 I I 0 1 7.619999999999999218 forward I I I I #
straight-curve $-1 -6.349999999999999645 -6.349999999999999645 17.77999999999999758 0 -25.39999999999999858 0 I I #
coedge $-1 $163 $162 $229 $230 forward $164 $-1 #
face $-1 $231 $164 $2 $-1 $232 forward single #
coedge $-1 $167 $166 $233 $234 reversed $123 $-1 #
coedge $-1 $171 $224 $166 $204 forward $210 $-1 #
edge $-1 $235 4.8954716046463829e-17 $173 1.570796326794897668 $166 $236 forward 7 unknown #
coedge $-1 $237 $229 $167 $206 reversed $238 $-1 #
edge $-1 $239 9.79094320929277073e-17 $207 1.570796326794898778 $167 $240 forward 7 unknown #
vertex $-1 $168 $241 #
straight-curve $-1 7.619999999999999218 -35.55999999999999517 0 0 -1.409983241273948964e-14 25.39999999999999858 I I #
plane-surface $-1 7.619999999999999218 -36.82999999999999829 0 1 0 0 0 25.39999999999999858 0 forward_v I I I I #
loop $-1 $-1 $224 $175 #
ellipse-curve $-1 6.350000000000001421 1.057487430955461447e-15 10.15999999999999837 0 0 -1 -1.409983241273948727e-15 1.269999999999998685 0 1 I I #
point $-1 7.619999999999999218 7.776250346772093913e-17 10.15999999999999659 #
face $-1 $158 $242 $2 $-1 $243 forward single #
torus-surface $-1 6.349999999999999645 -6.349999999999999645 10.15999999999999837 -1 0 0 6.349999999999999645 1.269999999999999796 0 0 1 forward_v I I I I #
coedge $-1 $244 $185 $177 $216 forward $182 $-1 #
edge $-1 $145 0 $217 0.4999999999999999445 $177 $245 forward 7 unknown #
vertex $-1 $216 $246 #
straight-curve $-1 6.349999999999997868 -36.82999999999999829 0 0 0 25.39999999999999858 I I #
plane-surface $-1 -7.619999999999999218 -36.82999999999999829 0 0 -1 0 25.39999999999999858 0 0 forward_v I I I I #
coedge $-1 $185 $244 $184 $221 reversed $182 $-1 #
edge $-1 $187 0 $247 0.4999999999999999445 $184 $248 forward 7 unknown #
ellipse-curve $-1 -6.349999999999999645 -29.2099999999999973 10.15999999999999837 1 0 0 0 0 7.619999999999996554 1 I I #
point $-1 -6.349999999999999645 -29.2099999999999973 17.77999999999999758 #
coedge $-1 $203 $193 $249 $250 forward $210 $-1 #
ellipse-curve $-1 6.349999999999999645 -6.349999999999999645 10.15999999999999837 -1 0 0 0 0 7.619999999999996554 1 I I #
coedge $-1 $251 $249 $195 $227 reversed $242 $-1 #
edge $-1 $247 0 $196 0.9000000000000000222 $195 $252 forward 7 unknown #
point $-1 6.349999999999999645 -6.349999999999999645 17.77999999999999758 #
coedge $-1 $205 $253 $200 $230 reversed $238 $-1 #
edge $-1 $207 2.307865185047558302e-15 $217 1.570796326794883457 $229 $254 forward 7 unknown #
face $-1 $169 $238 $2 $-1 $255 forward single #
cone-surface $-1 6.349999999999999645 -35.55999999999999517 0 0 0 -1 1.269999999999999796 0 0 1 I I 0 1 1.269999999999999796 forward I I I I #
coedge $-1 $249 $251 $202 $234 forward $242 $-1 #
edge $-1 $239 0 $235 0.9000000000000000222 $202 $256 forward 7 unknown #
vertex $-1 $234 $257 #
ellipse-curve $-1 7.619999999999999218 -6.349999999999994316 10.15999999999999659 -1 0 0 0 -5.63993296509579491e-15 6.349999999999999645 1 I I #
coedge $-1 $253 $205 $251 $258 reversed $238 $-1 #
loop $-1 $-1 $229 $231 #
vertex $-1 $206 $259 #
ellipse-curve $-1 7.619999999999999218 -29.21000000000000796 10.15999999999999837 1 0 0 0 1.127986593019158982e-14 6.349999999999997868 1 I I #
point $-1 7.619999999999999218 -35.56000000000000227 10.15999999999999659 #
loop $-1 $-1 $251 $213 #
cone-surface $-1 6.349999999999999645 -29.2099999999999973 16.50999999999999801 0 1 0 0 0 1.269999999999999796 1 I I 0 1 1.269999999999999796 forward I I I I #
coedge $-1 $220 $215 $253 $260 reversed $182 $-1 #
straight-curve $-1 -6.349999999999999645 -36.82999999999999829 10.15999999999999837 25.39999999999999858 0 0 I I #
point $-1 6.349999999999997868 -36.82999999999999829 10.15999999999999659 #
vertex $-1 $227 $261 #
straight-curve $-1 -6.349999999999999645 -29.2099999999999973 17.77999999999999758 25.39999999999999858 0 0 I I #
coedge $-1 $226 $233 $224 $250 reversed $242 $-1 #
edge $-1 $196 2.884831481309476474e-16 $235 1.570796326794895448 $224 $262 forward 7 unknown #
coedge $-1 $233 $226 $237 $258 forward $242 $-1 #
straight-curve $-1 6.349999999999999645 -29.2099999999999973 17.77999999999999758 0 25.39999999999999858 0 I I #
coedge $-1 $229 $237 $244 $260 forward $238 $-1 #
ellipse-curve $-1 6.349999999999992539 -35.55999999999998806 10.15999999999999659 0 0 -1 1.270000000000006679 -1.127986593019158982e-14 0 1 I I #
torus-surface $-1 6.349999999999999645 -29.2099999999999973 10.15999999999999837 1 0 0 6.349999999999999645 1.269999999999999796 0 0 1 forward_v I I I I #
straight-curve $-1 7.619999999999999218 -29.2099999999999973 16.50999999999999801 0 25.39999999999999858 0 I I #
point $-1 7.619999999999999218 -6.349999999999999645 16.50999999999999801 #
edge $-1 $247 2.66628364181633729e-16 $239 1.570796326794898334 $251 $263 forward 7 unknown #
point $-1 7.619999999999999218 -29.2099999999999973 16.50999999999999801 #
edge $-1 $247 0 $217 1.570796326794897002 $244 $264 forward 7 unknown #
point $-1 6.349999999999997868 -29.2099999999999973 17.77999999999999758 #
ellipse-curve $-1 6.349999999999997868 -6.350000000000002309 16.50999999999999801 0 1 0 1.409983241273948727e-15 0 1.270000000000001128 1 I I #
ellipse-curve $-1 6.349999999999999645 -29.2099999999999973 16.50999999999999801 0 1 0 -2.114974861910922894e-15 0 1.269999999999998241 1 I I #
ellipse-curve $-1 6.349999999999997868 -29.2099999999999973 10.15999999999999837 1 0 0 0 0 7.619999999999996554 1 I I #
End-of-ACIS-data 