600 0 1 0           
99 GICL Pro/E ACIS Translator - Source: f:/data5/repository/PTC/V18/cabecad18/ptc_comp/relay.prt - 6 0 13 ACIS 6.0.3 NT 24 Thu Apr 04 10:02:48 2002 
1 9.9999999999999995e-007 1e-010 
body $-1 $1 $-1 $2 #
lump $-1 $-1 $3 $0 #
transform $-1 1 0 0 0 1 0 0 0 1 0 0 0 25.399999999999999 no_rotate no_reflect no_shear #
shell $-1 $-1 $-1 $4 $-1 $1 #
face $-1 $5 $6 $3 $-1 $7 reversed single #
face $-1 $8 $9 $3 $-1 $10 forward single #
loop $-1 $-1 $11 $4 #
plane-surface $-1 0 0 0 0 0 1 1 0 0 forward_v I I I I #
face $-1 $12 $13 $3 $-1 $14 forward single #
loop $-1 $-1 $15 $5 #
cone-surface $-1 -0.25 0 0 0 0 -1 -0.049999999999999996 0 0 1 I I 0 1 0.049999999999999996 forward I I I I #
coedge $-1 $16 $17 $18 $19 forward $6 $-1 #
face $-1 $20 $21 $3 $-1 $22 forward single #
loop $-1 $-1 $23 $8 #
torus-surface $-1 -0.25 -0.25 0.39999999999999997 -1 0 0 0.25 0.049999999999999996 0 0 1 forward_v I I I I #
coedge $-1 $24 $25 $23 $26 reversed $9 $-1 #
coedge $-1 $27 $11 $28 $29 reversed $6 $-1 #
coedge $-1 $11 $30 $31 $32 reversed $6 $-1 #
coedge $-1 $25 $24 $11 $19 reversed $9 $-1 #
edge $-1 $33 0 $34 1.5707963267948968 $11 $35 forward 7 unknown #
face $-1 $36 $37 $3 $-1 $38 forward single #
loop $-1 $-1 $39 $12 #
plane-surface $-1 -0.29999999999999999 0.049999999999999996 0 -1 0 0 0 -1 0 forward_v I I I I #
coedge $-1 $40 $41 $15 $26 forward $13 $-1 #
coedge $-1 $18 $15 $42 $43 reversed $9 $-1 #
coedge $-1 $15 $18 $44 $45 forward $9 $-1 #
edge $-1 $46 0 $47 1.5707963267949006 $15 $48 forward 7 unknown #
coedge $-1 $49 $16 $50 $51 forward $6 $-1 #
coedge $-1 $42 $52 $16 $29 forward $53 $-1 #
edge $-1 $54 0 $34 0.5 $16 $55 forward 7 unknown #
coedge $-1 $17 $56 $57 $58 forward $6 $-1 #
coedge $-1 $39 $44 $17 $32 forward $21 $-1 #
edge $-1 $33 0 $59 1.3999999999999999 $17 $60 forward 7 unknown #
vertex $-1 $32 $61 #
vertex $-1 $29 $62 #
ellipse-curve $-1 -0.25 5.2041704279304213e-018 0 0 0 -1 -0.049999999999999989 -5.2041704279304213e-018 0 1 I I #
face $-1 $63 $64 $3 $-1 $65 forward single #
loop $-1 $-1 $66 $20 #
cone-surface $-1 -0.25 -1.3999999999999999 0 0 0 -1 0 -0.049999999999999996 0 1 I I 0 1 0.049999999999999996 forward I I I I #
coedge $-1 $67 $31 $68 $69 forward $21 $-1 #
coedge $-1 $70 $23 $71 $72 reversed $13 $-1 #
coedge $-1 $23 $70 $73 $74 forward $13 $-1 #
coedge $-1 $75 $28 $24 $43 forward $53 $-1 #
edge $-1 $34 0 $46 0.39999999999999997 $42 $76 forward 7 unknown #
coedge $-1 $31 $71 $25 $45 reversed $21 $-1 #
edge $-1 $33 0 $47 0.39999999999999991 $44 $77 forward 7 unknown #
vertex $-1 $78 $79 #
vertex $-1 $45 $80 #
ellipse-curve $-1 -0.25000000000000006 6.2450045135165055e-017 0.40000000000000002 3.0814879110195854e-030 1.1102230246251579e-015 1 1.3877787807814457e-016 0.049999999999999933 -5.5511151231257827e-017 1 I I #
coedge $-1 $81 $27 $82 $83 reversed $6 $-1 #
coedge $-1 $84 $85 $27 $51 reversed $86 $-1 #
edge $-1 $54 0 $87 1.5707963267948961 $27 $88 forward 7 unknown #
coedge $-1 $28 $75 $84 $89 reversed $53 $-1 #
loop $-1 $-1 $42 $90 #
vertex $-1 $51 $91 #
straight-curve $-1 0.25 0.049999999999999996 0 -1 0 0 I I #
coedge $-1 $30 $81 $92 $93 reversed $6 $-1 #
coedge $-1 $94 $68 $30 $58 reversed $37 $-1 #
edge $-1 $95 0 $59 1.5707963267948961 $30 $96 forward 7 unknown #
vertex $-1 $32 $97 #
straight-curve $-1 -0.29999999999999999 0 0 0 -1 0 I I #
point $-1 -0.29999999999999999 0 0 #
point $-1 -0.25 0.049999999999999996 0 #
face $-1 $98 $99 $3 $-1 $100 forward single #
loop $-1 $-1 $101 $36 #
torus-surface $-1 -0.25 -1.1499999999999999 0.39999999999999997 1 0 0 0.25 0.049999999999999996 0 0 1 forward_v I I I I #
coedge $-1 $68 $94 $102 $103 forward $37 $-1 #
coedge $-1 $104 $39 $105 $106 reversed $21 $-1 #
coedge $-1 $57 $66 $39 $69 reversed $37 $-1 #
edge $-1 $59 0 $107 0.39999999999999986 $39 $108 forward 7 unknown #
coedge $-1 $41 $40 $109 $110 reversed $13 $-1 #
coedge $-1 $44 $104 $40 $72 forward $21 $-1 #
edge $-1 $111 0 $47 1.570796326794897 $71 $112 forward 7 unknown #
coedge $-1 $113 $114 $41 $74 reversed $115 $-1 #
edge $-1 $116 0 $46 1.5707963267948966 $73 $117 forward 7 unknown #
coedge $-1 $52 $42 $114 $78 reversed $53 $-1 #
straight-curve $-1 -0.24999999999999994 0.049999999999999996 0 0 0 1 I I #
straight-curve $-1 -0.29999999999999999 0 0 0 0 1 I I #
edge $-1 $118 0 $46 0.49999999999999989 $75 $119 forward 7 unknown #
point $-1 -0.24999999999999992 0.049999999999999996 0.39999999999999997 #
point $-1 -0.29999999999999999 0 0.39999999999999991 #
coedge $-1 $56 $49 $120 $121 forward $6 $-1 #
coedge $-1 $122 $123 $49 $83 forward $124 $-1 #
edge $-1 $125 0 $87 1.3999999999999999 $49 $126 forward 7 unknown #
coedge $-1 $127 $50 $52 $89 forward $86 $-1 #
coedge $-1 $50 $127 $122 $128 reversed $86 $-1 #
loop $-1 $-1 $127 $129 #
vertex $-1 $83 $130 #
ellipse-curve $-1 0.24999999999999997 8.6736173798840355e-019 0 0 0 -1 2.7755575615628914e-017 0.049999999999999996 0 1 I I #
edge $-1 $54 0 $118 0.39999999999999991 $52 $131 forward 7 unknown #
face $-1 $-1 $53 $3 $-1 $132 forward single #
point $-1 0.25 0.049999999999999996 0 #
coedge $-1 $133 $134 $56 $93 forward $135 $-1 #
edge $-1 $95 0 $136 0.5 $56 $137 forward 7 unknown #
coedge $-1 $66 $57 $134 $138 forward $37 $-1 #
vertex $-1 $58 $139 #
ellipse-curve $-1 -0.24999999999999997 -1.3999999999999999 0 0 0 -1 -2.7755575615628914e-017 -0.050000000000000044 0 1 I I #
point $-1 -0.29999999999999999 -1.3999999999999999 0 #
face $-1 $140 $141 $3 $-1 $142 forward single #
loop $-1 $-1 $109 $63 #
cone-surface $-1 -0.25 -0.25 0.64999999999999991 0 -1 0 0 0 0.049999999999999996 1 I I 0 1 0.049999999999999996 forward I I I I #
coedge $-1 $105 $143 $144 $145 forward $64 $-1 #
coedge $-1 $143 $105 $66 $103 reversed $64 $-1 #
edge $-1 $146 0 $107 1.570796326794901 $102 $147 forward 7 unknown #
coedge $-1 $71 $67 $148 $149 reversed $21 $-1 #
coedge $-1 $102 $101 $67 $106 forward $64 $-1 #
edge $-1 $150 0 $107 1.5707963267948999 $67 $151 forward 7 unknown #
vertex $-1 $106 $152 #
straight-curve $-1 -0.29999999999999999 -1.3999999999999999 0 0 0 1 I I #
coedge $-1 $148 $153 $70 $110 forward $99 $-1 #
edge $-1 $116 0 $111 1.5707963267948966 $70 $154 forward 7 unknown #
vertex $-1 $72 $155 #
ellipse-curve $-1 -0.29999999999999999 -0.24999999999999989 0.39999999999999991 -1 0 0 0 -1.1102230246251565e-016 0.25 1 I I #
coedge $-1 $156 $73 $157 $158 reversed $115 $-1 #
coedge $-1 $73 $156 $75 $78 forward $115 $-1 #
loop $-1 $-1 $156 $159 #
vertex $-1 $160 $161 #
ellipse-curve $-1 -0.24999999999999992 -0.25 0.39999999999999997 -1 0 0 0 0 0.29999999999999988 1 I I #
vertex $-1 $89 $162 #
straight-curve $-1 0.25 0.049999999999999996 0.39999999999999997 -1 0 0 I I #
coedge $-1 $163 $164 $81 $121 reversed $165 $-1 #
edge $-1 $125 0 $136 1.570796326794901 $81 $166 forward 7 unknown #
coedge $-1 $167 $82 $85 $128 forward $124 $-1 #
coedge $-1 $82 $168 $163 $169 reversed $124 $-1 #
loop $-1 $-1 $122 $170 #
vertex $-1 $121 $171 #
straight-curve $-1 0.29999999999999999 -1.3999999999999999 0 0 1 0 I I #
coedge $-1 $85 $84 $172 $173 forward $86 $-1 #
edge $-1 $87 0 $174 0.39999999999999991 $122 $175 forward 7 unknown #
face $-1 $176 $86 $3 $-1 $177 forward single #
point $-1 0.29999999999999999 0 0 #
straight-curve $-1 0.25 0.049999999999999996 0 0 0 1 I I #
plane-surface $-1 0.29999999999999999 0.049999999999999996 0 0 1 0 -1 0 0 forward_v I I I I #
coedge $-1 $178 $92 $164 $179 forward $135 $-1 #
coedge $-1 $92 $178 $94 $138 reversed $135 $-1 #
loop $-1 $-1 $133 $180 #
vertex $-1 $93 $181 #
straight-curve $-1 -0.25 -1.45 0 1 0 0 I I #
edge $-1 $95 0 $146 0.39999999999999986 $134 $182 forward 7 unknown #
point $-1 -0.25 -1.45 0 #
face $-1 $180 $183 $3 $-1 $184 forward single #
loop $-1 $-1 $185 $98 #
plane-surface $-1 0 0 0.69999999999999996 0 0 1 1 0 0 forward_v I I I I #
coedge $-1 $101 $102 $186 $187 reversed $64 $-1 #
coedge $-1 $153 $148 $101 $145 reversed $99 $-1 #
edge $-1 $188 4.9303806576313266e-030 $150 1.5707963267948988 $144 $189 forward 7 unknown #
vertex $-1 $138 $190 #
ellipse-curve $-1 -0.25 -1.4000000000000001 0.39999999999999991 0 0 -1 0 -0.049999999999999822 0 1 I I #
coedge $-1 $144 $109 $104 $149 forward $99 $-1 #
edge $-1 $111 0 $150 0.89999999999999991 $104 $191 forward 7 unknown #
vertex $-1 $149 $192 #
ellipse-curve $-1 -0.29999999999999999 -1.1500000000000004 0.40000000000000024 1 0 0 0 4.4408920985006262e-016 0.24999999999999967 1 I I #
point $-1 -0.29999999999999999 -1.3999999999999999 0.39999999999999986 #
coedge $-1 $109 $144 $193 $160 reversed $99 $-1 #
ellipse-curve $-1 -0.25 -0.25 0.64999999999999991 0 -1 0 0 0 0.050000000000000044 1 I I #
point $-1 -0.29999999999999999 -0.25 0.64999999999999991 #
coedge $-1 $114 $113 $194 $195 forward $115 $-1 #
coedge $-1 $193 $196 $113 $158 forward $141 $-1 #
edge $-1 $197 0 $116 0.5 $157 $198 forward 7 unknown #
face $-1 $90 $115 $3 $-1 $199 forward single #
edge $-1 $116 0 $188 0.89999999999999991 $193 $200 forward 7 unknown #
point $-1 -0.25 -0.25 0.69999999999999996 #
point $-1 0.25 0.049999999999999996 0.39999999999999991 #
coedge $-1 $201 $120 $123 $169 forward $165 $-1 #
coedge $-1 $120 $201 $133 $179 reversed $165 $-1 #
loop $-1 $-1 $201 $202 #
ellipse-curve $-1 0.25 -1.4000000000000001 0 0 0 -1 0.049999999999999989 2.2204460492503131e-016 0 1 I I #
coedge $-1 $203 $122 $204 $205 reversed $124 $-1 #
coedge $-1 $123 $203 $206 $207 forward $124 $-1 #
edge $-1 $125 0 $208 0.39999999999999991 $123 $209 forward 7 unknown #
face $-1 $129 $124 $3 $-1 $210 forward single #
point $-1 0.29999999999999999 -1.3999999999999999 0 #
coedge $-1 $194 $204 $127 $173 reversed $211 $-1 #
edge $-1 $118 0 $174 1.5707963267948986 $127 $212 forward 7 unknown #
vertex $-1 $205 $213 #
straight-curve $-1 0.29999999999999999 0 0 0 0 1 I I #
face $-1 $214 $211 $3 $-1 $215 forward single #
cone-surface $-1 0.25 0 0 0 0 -1 0 0.049999999999999996 0 1 I I 0 1 0.049999999999999996 forward I I I I #
coedge $-1 $134 $133 $216 $217 reversed $135 $-1 #
edge $-1 $136 0 $218 0.39999999999999986 $133 $219 forward 7 unknown #
face $-1 $202 $135 $3 $-1 $220 forward single #
point $-1 0.25 -1.45 0 #
straight-curve $-1 -0.25 -1.45 0 0 0 1 I I #
loop $-1 $-1 $186 $140 #
cone-surface $-1 -0.29999999999999999 -1.1499999999999999 0.39999999999999997 1 0 0 0 0 0.29999999999999999 1 I I 0 1 0.29999999999999999 forward I I I I #
coedge $-1 $196 $193 $221 $222 forward $141 $-1 #
coedge $-1 $216 $221 $143 $187 forward $183 $-1 #
edge $-1 $188 0 $146 1.570796326794897 $186 $223 forward 7 unknown #
vertex $-1 $160 $224 #
ellipse-curve $-1 -0.25000000000000011 -1.1499999999999999 0.64999999999999991 0 -1 0 1.1102230246251565e-016 0 0.049999999999999933 1 I I #
point $-1 -0.25 -1.45 0.39999999999999986 #
straight-curve $-1 -0.29999999999999999 -0.25 0.64999999999999991 0 -1 0 I I #
point $-1 -0.29999999999999999 -1.1499999999999999 0.64999999999999991 #
coedge $-1 $185 $157 $153 $160 forward $141 $-1 #
coedge $-1 $225 $172 $156 $195 reversed $211 $-1 #
edge $-1 $197 0 $118 1.5707963267948968 $156 $226 forward 7 unknown #
coedge $-1 $157 $185 $227 $228 forward $141 $-1 #
vertex $-1 $158 $229 #
straight-curve $-1 0.25 -0.25 0.69999999999999996 -1 0 0 I I #
cone-surface $-1 0.29999999999999999 -0.25 0.39999999999999997 -1 0 0 0 0 0.29999999999999999 1 I I 0 1 0.29999999999999999 forward I I I I #
straight-curve $-1 -0.25 -0.25 0.69999999999999996 0 -1 0 I I #
coedge $-1 $164 $163 $230 $231 forward $165 $-1 #
face $-1 $232 $165 $3 $-1 $233 forward single #
coedge $-1 $168 $167 $234 $235 reversed $124 $-1 #
coedge $-1 $172 $225 $167 $205 forward $211 $-1 #
edge $-1 $236 0 $174 1.5707963267948974 $167 $237 forward 7 unknown #
coedge $-1 $238 $230 $168 $207 reversed $239 $-1 #
edge $-1 $240 0 $208 1.5707963267948986 $168 $241 forward 7 unknown #
vertex $-1 $169 $242 #
straight-curve $-1 0.29999999999999999 -1.3999999999999999 0 0 -5.5511151231257837e-016 1 I I #
plane-surface $-1 0.29999999999999999 -1.45 0 1 0 0 0 1 0 forward_v I I I I #
loop $-1 $-1 $225 $176 #
ellipse-curve $-1 0.25000000000000006 4.163336342344337e-017 0.39999999999999997 0 0 -1 -5.5511151231257827e-017 0.049999999999999954 0 1 I I #
point $-1 0.29999999999999999 3.0615158845559428e-018 0.39999999999999991 #
face $-1 $159 $243 $3 $-1 $244 forward single #
torus-surface $-1 0.25 -0.25 0.39999999999999997 -1 0 0 0.25 0.049999999999999996 0 0 1 forward_v I I I I #
coedge $-1 $245 $186 $178 $217 forward $183 $-1 #
edge $-1 $146 0 $218 0.49999999999999989 $178 $246 forward 7 unknown #
vertex $-1 $217 $247 #
straight-curve $-1 0.24999999999999994 -1.45 0 0 0 1 I I #
plane-surface $-1 -0.29999999999999999 -1.45 0 0 -1 0 1 0 0 forward_v I I I I #
coedge $-1 $186 $245 $185 $222 reversed $183 $-1 #
edge $-1 $188 0 $248 0.49999999999999994 $185 $249 forward 7 unknown #
ellipse-curve $-1 -0.25 -1.1499999999999999 0.39999999999999997 1 0 0 0 0 0.29999999999999988 1 I I #
point $-1 -0.25 -1.1499999999999999 0.69999999999999996 #
coedge $-1 $204 $194 $250 $251 forward $211 $-1 #
ellipse-curve $-1 0.25 -0.25 0.39999999999999997 -1 0 0 0 0 0.29999999999999988 1 I I #
coedge $-1 $252 $250 $196 $228 reversed $243 $-1 #
edge $-1 $248 0 $197 0.89999999999999991 $196 $253 forward 7 unknown #
point $-1 0.25 -0.25 0.69999999999999996 #
coedge $-1 $206 $254 $201 $231 reversed $239 $-1 #
edge $-1 $208 0 $218 1.5707963267948839 $230 $255 forward 7 unknown #
face $-1 $170 $239 $3 $-1 $256 forward single #
cone-surface $-1 0.25 -1.3999999999999999 0 0 0 -1 0.049999999999999996 0 0 1 I I 0 1 0.049999999999999996 forward I I I I #
coedge $-1 $250 $252 $203 $235 forward $243 $-1 #
edge $-1 $240 0 $236 0.89999999999999991 $203 $257 forward 7 unknown #
vertex $-1 $235 $258 #
ellipse-curve $-1 0.29999999999999999 -0.24999999999999978 0.39999999999999991 -1 0 0 0 -2.2204460492503131e-016 0.25 1 I I #
coedge $-1 $254 $206 $252 $259 reversed $239 $-1 #
loop $-1 $-1 $230 $232 #
vertex $-1 $207 $260 #
ellipse-curve $-1 0.29999999999999999 -1.1500000000000004 0.39999999999999997 1 0 0 0 4.4408920985006262e-016 0.24999999999999994 1 I I #
point $-1 0.29999999999999999 -1.4000000000000001 0.39999999999999991 #
loop $-1 $-1 $252 $214 #
cone-surface $-1 0.25 -1.1499999999999999 0.64999999999999991 0 1 0 0 0 0.049999999999999996 1 I I 0 1 0.049999999999999996 forward I I I I #
coedge $-1 $221 $216 $254 $261 reversed $183 $-1 #
straight-curve $-1 -0.25 -1.45 0.39999999999999997 1 0 0 I I #
point $-1 0.24999999999999992 -1.45 0.39999999999999986 #
vertex $-1 $228 $262 #
straight-curve $-1 -0.25 -1.1499999999999999 0.69999999999999996 1 0 0 I I #
coedge $-1 $227 $234 $225 $251 reversed $243 $-1 #
edge $-1 $197 0 $236 1.5707963267948954 $225 $263 forward 7 unknown #
coedge $-1 $234 $227 $238 $259 forward $243 $-1 #
straight-curve $-1 0.25 -1.1499999999999999 0.69999999999999996 0 1 0 I I #
coedge $-1 $230 $238 $245 $261 forward $239 $-1 #
ellipse-curve $-1 0.24999999999999972 -1.3999999999999997 0.39999999999999991 0 0 -1 0.050000000000000266 -4.4408920985006262e-016 0 1 I I #
torus-surface $-1 0.25 -1.1499999999999999 0.39999999999999997 1 0 0 0.25 0.049999999999999996 0 0 1 forward_v I I I I #
straight-curve $-1 0.29999999999999999 -1.1499999999999999 0.64999999999999991 0 1 0 I I #
point $-1 0.29999999999999999 -0.25 0.64999999999999991 #
edge $-1 $248 5.5511151231258152e-016 $240 1.5707963267948983 $252 $264 forward 7 unknown #
point $-1 0.29999999999999999 -1.1499999999999999 0.64999999999999991 #
edge $-1 $248 0 $218 1.570796326794897 $245 $265 forward 7 unknown #
point $-1 0.24999999999999994 -1.1499999999999999 0.69999999999999996 #
ellipse-curve $-1 0.24999999999999994 -0.25000000000000011 0.64999999999999991 0 1 0 5.5511151231257827e-017 0 0.050000000000000044 1 I I #
ellipse-curve $-1 0.25 -1.1499999999999999 0.64999999999999991 0 1 0 -8.3266726846886741e-017 0 0.049999999999999933 1 I I #
ellipse-curve $-1 0.24999999999999992 -1.1499999999999999 0.39999999999999997 1 0 0 0 0 0.29999999999999988 1 I I #
End-of-ACIS-data 