700 0 2 0           
24 FBMach with ACIS - 7.0.3 13 ACIS 7.0.3 NT 24 Wed May 15 23:49:54 2002 
1 9.9999999999999995e-007 1e-010 
body $2 -1 $-1 $3 $-1 $4 #
bdycol-kcp $-1 -1 1 2 $5 $6 #
model_id-kcp-attrib $-1 -1 $-1 $-1 $0 1 1021520993 1021520993 596049921 1 #
lump $-1 -1 $-1 $-1 $7 $0 #
transform $-1 -1 1 0 0 0 1 0 0 0 1 0 0 0 1 rotate no_reflect no_shear #
body $8 -1 $-1 $9 $-1 $10 #
body $11 -1 $-1 $12 $-1 $13 #
shell $-1 -1 $-1 $-1 $-1 $14 $-1 $3 #
model_id-kcp-attrib $-1 -1 $-1 $-1 $5 1 1021520993 1021520993 596705282 1 #
lump $-1 -1 $-1 $-1 $15 $5 #
transform $-1 -1 1 0 0 0 1 0 0 0 1 -4.4408920985006262e-016 -17.779999999999998 8.8899999999999988 1 no_rotate no_reflect no_shear #
rgb_color-st-attrib $-1 -1 $16 $-1 $6 0.5 1 1 #
lump $-1 -1 $-1 $17 $18 $6 #
transform $-1 -1 1 0 0 0 1 0 0 0 1 -4.4408920985006262e-016 -17.779999999999998 8.8899999999999988 1 no_rotate no_reflect no_shear #
face $19 -1 $-1 $20 $21 $7 $-1 $22 reversed single #
shell $-1 -1 $-1 $-1 $-1 $23 $-1 $9 #
model_id-kcp-attrib $-1 -1 $-1 $11 $6 1 1021520993 1021520994 596639747 1 #
lump $-1 -1 $-1 $-1 $24 $6 #
shell $-1 -1 $-1 $-1 $-1 $25 $-1 $12 #
model_id-kcp-attrib $-1 -1 $-1 $-1 $14 1 1021520993 1021520993 596049921 2 #
face $26 -1 $-1 $27 $28 $7 $-1 $29 forward single #
loop $-1 -1 $-1 $-1 $30 $14 #
plane-surface $-1 -1 $-1 0 0 0 0 0 1 25.399999999999999 0 0 forward_v I I I I #
face $31 -1 $-1 $32 $33 $15 $-1 $34 forward single #
shell $-1 -1 $-1 $-1 $-1 $35 $-1 $17 #
face $-1 -1 $-1 $36 $37 $18 $-1 $38 reversed single #
model_id-kcp-attrib $-1 -1 $-1 $-1 $20 1 1021520993 1021520993 596049921 3 #
face $39 -1 $-1 $40 $41 $7 $-1 $42 forward single #
loop $-1 -1 $-1 $-1 $43 $20 #
cone-surface $-1 -1 $-1 -6.3499999999999996 0 0 0 0 -1 -1.2699999999999998 0 0 1 I I 0 1 1.2699999999999998 forward I I I I #
coedge $-1 -1 $-1 $44 $45 $46 $47 forward $21 $-1 #
model_id-kcp-attrib $-1 -1 $-1 $-1 $23 1 1021520993 1021520993 596705282 4 #
face $48 -1 $-1 $49 $50 $15 $-1 $51 reversed single #
loop $-1 -1 $-1 $-1 $52 $23 #
plane-surface $-1 -1 $-1 0 0 8.8899999999999988 0 0 1 1 0 0 forward_v I I I I #
face $-1 -1 $-1 $53 $54 $24 $-1 $55 reversed single #
face $-1 -1 $-1 $56 $57 $18 $-1 $58 forward single #
loop $-1 -1 $-1 $-1 $59 $25 #
cone-surface $-1 -1 $-1 -7.6199999999999992 11.429999999999998 1.2699999999999996 -1 0 0 0 0 7.6199999999999957 1 I I 0 1 7.6199999999999957 forward I I I I #
model_id-kcp-attrib $-1 -1 $-1 $-1 $27 1 1021520993 1021520993 596049921 4 #
face $60 -1 $-1 $61 $62 $7 $-1 $63 forward single #
loop $-1 -1 $-1 $-1 $64 $27 #
torus-surface $-1 -1 $-1 -6.3499999999999996 -6.3499999999999996 10.159999999999998 -1 0 0 6.3499999999999996 1.2699999999999998 0 0 1 forward_v I I I I #
coedge $-1 -1 $-1 $65 $66 $64 $67 reversed $28 $-1 #
coedge $-1 -1 $-1 $68 $30 $69 $70 reversed $21 $-1 #
coedge $-1 -1 $-1 $30 $71 $72 $73 reversed $21 $-1 #
coedge $-1 -1 $-1 $66 $65 $30 $47 reversed $28 $-1 #
edge $74 -1 $-1 $75 0 $76 1.5707963267948968 $30 $77 forward @7 unknown #
model_id-kcp-attrib $-1 -1 $-1 $-1 $32 1 1021520993 1021520993 596705282 2 #
face $78 -1 $-1 $79 $80 $15 $-1 $81 reversed single #
loop $-1 -1 $-1 $-1 $82 $32 #
plane-surface $-1 -1 $-1 0 0 -8.8899999999999988 0 0 1 1 0 0 forward_v I I I I #
coedge $-1 -1 $-1 $83 $84 $85 $86 forward $33 $-1 #
face $-1 -1 $-1 $87 $88 $24 $-1 $89 reversed single #
loop $-1 -1 $-1 $-1 $90 $35 #
plane-surface $-1 -1 $-1 0 -19.050000000000001 0 0 1 0 0 0 1 forward_v I I I I #
face $-1 -1 $-1 $91 $92 $18 $-1 $93 reversed single #
loop $-1 -1 $-1 $-1 $94 $36 #
plane-surface $-1 -1 $-1 0 0 8.8899999999999988 0 0 1 1 0 0 forward_v I I I I #
coedge $-1 -1 $-1 $95 $96 $97 $98 reversed $37 $-1 #
model_id-kcp-attrib $-1 -1 $-1 $-1 $40 1 1021520993 1021520993 596049921 5 #
face $99 -1 $-1 $100 $101 $7 $-1 $102 forward single #
loop $-1 -1 $-1 $-1 $103 $40 #
plane-surface $-1 -1 $-1 -7.6199999999999992 1.2699999999999998 0 -1 0 0 0 -25.399999999999999 0 forward_v I I I I #
coedge $-1 -1 $-1 $104 $105 $43 $67 forward $41 $-1 #
coedge $-1 -1 $-1 $46 $43 $106 $107 reversed $28 $-1 #
coedge $-1 -1 $-1 $43 $46 $108 $109 forward $28 $-1 #
edge $-1 -1 $-1 $110 -2.1854783949314341e-017 $111 1.5707963267949008 $43 $112 forward @7 unknown #
coedge $-1 -1 $-1 $113 $44 $114 $115 forward $21 $-1 #
coedge $-1 -1 $-1 $106 $116 $44 $70 forward $117 $-1 #
edge $118 -1 $-1 $119 0 $76 0.5 $44 $120 forward @7 unknown #
coedge $-1 -1 $-1 $45 $121 $122 $123 forward $21 $-1 #
coedge $-1 -1 $-1 $103 $108 $45 $73 forward $62 $-1 #
edge $124 -1 $-1 $75 0 $125 1.3999999999999999 $45 $126 forward @7 unknown #
attrib_edge_convexity-kcp-attrib $-1 -1 $127 $-1 $47 1 #
vertex $-1 -1 $-1 $73 $128 #
vertex $-1 -1 $-1 $70 $129 #
ellipse-curve $-1 -1 $-1 -6.3499999999999996 1.3218592886943268e-016 0 0 0 -1 -1.2699999999999996 -1.3218592886943268e-016 0 1 I I #
model_id-kcp-attrib $-1 -1 $-1 $-1 $49 1 1021520993 1021520993 596705282 5 #
face $130 -1 $-1 $131 $132 $15 $-1 $133 reversed single #
loop $-1 -1 $-1 $-1 $134 $49 #
plane-surface $-1 -1 $-1 0 -19.050000000000001 0 0 1 0 0 0 1 forward_v I I I I #
coedge $-1 -1 $-1 $135 $136 $137 $138 forward $50 $-1 #
coedge $-1 -1 $-1 $139 $52 $140 $141 forward $33 $-1 #
coedge $-1 -1 $-1 $52 $139 $142 $143 forward $33 $-1 #
coedge $-1 -1 $-1 $144 $145 $52 $86 reversed $146 $-1 #
edge $-1 -1 $-1 $147 -19.050000000000001 $148 19.050000000000001 $85 $149 forward @7 unknown #
face $-1 -1 $-1 $150 $151 $24 $-1 $93 reversed single #
loop $-1 -1 $-1 $-1 $152 $53 #
plane-surface $-1 -1 $-1 7.620000000000001 0 0 -1 0 0 0 0 1 forward_v I I I I #
coedge $-1 -1 $-1 $153 $154 $155 $156 reversed $54 $-1 #
face $-1 -1 $-1 $157 $158 $18 $-1 $159 reversed single #
loop $-1 -1 $-1 $-1 $97 $56 #
plane-surface $-1 -1 $-1 -7.620000000000001 0 0 1 0 0 0 0 -1 forward_v I I I I #
coedge $-1 -1 $-1 $160 $161 $96 $162 reversed $57 $-1 #
coedge $-1 -1 $-1 $163 $59 $164 $165 reversed $37 $-1 #
coedge $-1 -1 $-1 $59 $163 $94 $162 forward $37 $-1 #
coedge $-1 -1 $-1 $166 $167 $59 $98 forward $92 $-1 #
edge $-1 -1 $-1 $168 -1.5707963267948968 $169 0 $97 $170 forward @7 unknown #
model_id-kcp-attrib $-1 -1 $-1 $-1 $61 1 1021520993 1021520993 596049921 6 #
face $171 -1 $-1 $172 $173 $7 $-1 $174 forward single #
loop $-1 -1 $-1 $-1 $175 $61 #
cone-surface $-1 -1 $-1 -6.3499999999999996 -35.559999999999995 0 0 0 -1 0 -1.2699999999999998 0 1 I I 0 1 1.2699999999999998 forward I I I I #
coedge $-1 -1 $-1 $176 $72 $177 $178 forward $62 $-1 #
coedge $-1 -1 $-1 $179 $64 $180 $181 reversed $41 $-1 #
coedge $-1 -1 $-1 $64 $179 $182 $183 forward $41 $-1 #
coedge $-1 -1 $-1 $184 $69 $65 $107 forward $117 $-1 #
edge $-1 -1 $-1 $76 0 $110 0.39999999999999997 $106 $185 forward @7 unknown #
coedge $-1 -1 $-1 $72 $180 $66 $109 reversed $62 $-1 #
edge $186 -1 $-1 $75 0 $111 0.39999999999999991 $108 $187 forward @7 unknown #
vertex $-1 -1 $-1 $188 $189 #
vertex $-1 -1 $-1 $109 $190 #
ellipse-curve $-1 -1 $-1 -6.3500000000000014 1.5862311464331924e-015 10.16 3.0814879110195854e-030 1.1102230246251579e-015 1 3.524958103184872e-015 1.2699999999999982 -1.4099832412739487e-015 1 I I #
coedge $-1 -1 $-1 $191 $68 $192 $193 reversed $21 $-1 #
coedge $-1 -1 $-1 $194 $195 $68 $115 reversed $196 $-1 #
edge $197 -1 $-1 $119 1.4424157406547311e-016 $198 1.5707963267948961 $68 $199 forward @7 unknown #
coedge $-1 -1 $-1 $69 $184 $194 $200 reversed $117 $-1 #
loop $-1 -1 $-1 $-1 $106 $201 #
attrib_edge_convexity-kcp-attrib $-1 -1 $202 $-1 $70 1 #
vertex $-1 -1 $-1 $115 $203 #
straight-curve $-1 -1 $-1 6.3499999999999996 1.2699999999999998 0 -25.399999999999999 0 0 I I #
coedge $-1 -1 $-1 $71 $191 $204 $205 reversed $21 $-1 #
coedge $-1 -1 $-1 $206 $177 $71 $123 reversed $101 $-1 #
edge $207 -1 $-1 $208 1.4424157406547185e-016 $125 1.5707963267948961 $71 $209 forward @7 unknown #
attrib_edge_convexity-kcp-attrib $-1 -1 $210 $-1 $73 1 #
vertex $-1 -1 $-1 $73 $211 #
straight-curve $-1 -1 $-1 -7.6199999999999992 0 0 0 -25.399999999999999 0 I I #
convexity-sys-attrib $-1 -1 $-1 $74 $47 #
point $-1 -1 $-1 -7.6199999999999992 0 0 #
point $-1 -1 $-1 -6.3499999999999996 1.2699999999999998 0 #
model_id-kcp-attrib $-1 -1 $-1 $-1 $79 1 1021520993 1021520993 596705282 3 #
face $212 -1 $-1 $213 $214 $15 $-1 $215 reversed single #
loop $-1 -1 $-1 $-1 $216 $79 #
plane-surface $-1 -1 $-1 -7.620000000000001 0 0 1 0 0 0 0 -1 forward_v I I I I #
coedge $-1 -1 $-1 $217 $142 $218 $219 forward $80 $-1 #
coedge $-1 -1 $-1 $220 $82 $217 $221 forward $50 $-1 #
coedge $-1 -1 $-1 $82 $220 $222 $223 forward $50 $-1 #
coedge $-1 -1 $-1 $145 $144 $82 $138 reversed $146 $-1 #
edge $-1 -1 $-1 $224 -19.050000000000001 $225 19.050000000000001 $137 $226 forward @7 unknown #
coedge $-1 -1 $-1 $84 $83 $227 $228 forward $33 $-1 #
coedge $-1 -1 $-1 $229 $230 $83 $141 reversed $214 $-1 #
edge $-1 -1 $-1 $148 -7.620000000000001 $231 7.620000000000001 $140 $232 forward @7 unknown #
coedge $-1 -1 $-1 $134 $233 $84 $143 reversed $80 $-1 #
edge $-1 -1 $-1 $234 -7.620000000000001 $147 7.620000000000001 $142 $235 forward @7 unknown #
coedge $-1 -1 $-1 $137 $85 $233 $236 forward $146 $-1 #
coedge $-1 -1 $-1 $85 $137 $229 $237 reversed $146 $-1 #
loop $-1 -1 $-1 $-1 $144 $213 #
vertex $-1 -1 $-1 $86 $238 #
vertex $-1 -1 $-1 $86 $239 #
straight-curve $-1 -1 $-1 7.620000000000001 0 8.8899999999999988 0 1 0 I I #
face $-1 -1 $-1 $240 $241 $24 $-1 $58 forward single #
loop $-1 -1 $-1 $-1 $242 $87 #
coedge $-1 -1 $-1 $243 $244 $245 $246 forward $88 $-1 #
coedge $-1 -1 $-1 $247 $90 $244 $248 reversed $54 $-1 #
coedge $-1 -1 $-1 $90 $247 $249 $250 forward $54 $-1 #
coedge $-1 -1 $-1 $251 $245 $90 $156 forward $252 $-1 #
edge $-1 -1 $-1 $253 -15.24 $254 1.7763568394002505e-015 $90 $255 forward @7 unknown #
face $-1 -1 $-1 $-1 $256 $18 $-1 $89 reversed single #
loop $-1 -1 $-1 $-1 $164 $91 #
plane-surface $-1 -1 $-1 0 19.050000000000001 0 0 -1 0 0 0 -1 forward_v I I I I #
coedge $-1 -1 $-1 $257 $94 $258 $259 forward $57 $-1 #
coedge $-1 -1 $-1 $94 $257 $166 $260 forward $57 $-1 #
edge $-1 -1 $-1 $261 -15.240000000000002 $169 1.7763568394002505e-015 $94 $262 forward @7 unknown #
coedge $-1 -1 $-1 $96 $95 $263 $264 reversed $37 $-1 #
coedge $-1 -1 $-1 $265 $266 $95 $165 forward $158 $-1 #
edge $-1 -1 $-1 $267 -15.24 $168 1.7763568394002505e-015 $164 $268 forward @7 unknown #
coedge $-1 -1 $-1 $167 $97 $161 $260 reversed $92 $-1 #
coedge $-1 -1 $-1 $97 $166 $265 $269 forward $92 $-1 #
vertex $-1 -1 $-1 $98 $270 #
vertex $-1 -1 $-1 $162 $271 #
ellipse-curve $-1 -1 $-1 -7.620000000000001 11.429999999999998 1.2699999999999996 1 0 0 0 0 7.6199999999999957 1 I I #
model_id-kcp-attrib $-1 -1 $-1 $-1 $100 1 1021520993 1021520993 596049921 7 #
face $272 -1 $-1 $273 $274 $7 $-1 $275 forward single #
loop $-1 -1 $-1 $-1 $276 $100 #
torus-surface $-1 -1 $-1 -6.3499999999999996 -29.209999999999997 10.159999999999998 1 0 0 6.3499999999999996 1.2699999999999998 0 0 1 forward_v I I I I #
coedge $-1 -1 $-1 $177 $206 $277 $278 forward $101 $-1 #
coedge $-1 -1 $-1 $279 $103 $280 $281 reversed $62 $-1 #
coedge $-1 -1 $-1 $122 $175 $103 $178 reversed $101 $-1 #
edge $282 -1 $-1 $125 0 $283 0.39999999999999991 $103 $284 forward @7 unknown #
coedge $-1 -1 $-1 $105 $104 $285 $286 reversed $41 $-1 #
coedge $-1 -1 $-1 $108 $279 $104 $181 forward $62 $-1 #
edge $287 -1 $-1 $288 2.4477358023231914e-017 $111 1.5707963267948972 $180 $289 forward @7 unknown #
coedge $-1 -1 $-1 $290 $291 $105 $183 reversed $292 $-1 #
edge $-1 -1 $-1 $293 0 $110 1.5707963267948966 $182 $294 forward @7 unknown #
coedge $-1 -1 $-1 $116 $106 $291 $188 reversed $117 $-1 #
straight-curve $-1 -1 $-1 -6.3499999999999979 1.2699999999999998 0 0 0 25.399999999999999 I I #
attrib_edge_convexity-kcp-attrib $-1 -1 $295 $-1 $109 3 #
straight-curve $-1 -1 $-1 -7.6199999999999992 0 0 0 0 25.399999999999999 I I #
edge $-1 -1 $-1 $296 0 $110 0.49999999999999994 $184 $297 forward @7 unknown #
point $-1 -1 $-1 -6.3499999999999979 1.2699999999999998 10.159999999999998 #
point $-1 -1 $-1 -7.6199999999999992 0 10.159999999999997 #
coedge $-1 -1 $-1 $121 $113 $298 $299 forward $21 $-1 #
coedge $-1 -1 $-1 $300 $301 $113 $193 forward $302 $-1 #
edge $303 -1 $-1 $304 0 $198 1.3999999999999999 $113 $305 forward @7 unknown #
coedge $-1 -1 $-1 $306 $114 $116 $200 forward $196 $-1 #
coedge $-1 -1 $-1 $114 $306 $300 $307 reversed $196 $-1 #
loop $-1 -1 $-1 $-1 $306 $308 #
model_id-kcp-attrib $-1 -1 $309 $-1 $115 1 1021520993 1021520993 596049921 24 #
vertex $-1 -1 $-1 $193 $310 #
ellipse-curve $-1 -1 $-1 6.3499999999999988 2.2030988144905449e-017 0 0 0 -1 7.0499162063697436e-016 1.2699999999999998 0 1 I I #
edge $311 -1 $-1 $119 0 $296 0.39999999999999991 $116 $312 forward @7 unknown #
face $313 -1 $-1 $-1 $117 $7 $-1 $314 forward single #
convexity-sys-attrib $-1 -1 $-1 $118 $70 #
point $-1 -1 $-1 6.3499999999999996 1.2699999999999998 0 #
coedge $-1 -1 $-1 $315 $316 $121 $205 forward $317 $-1 #
edge $318 -1 $-1 $208 0 $319 0.5 $121 $320 forward @7 unknown #
coedge $-1 -1 $-1 $175 $122 $316 $321 forward $101 $-1 #
attrib_edge_convexity-kcp-attrib $-1 -1 $322 $-1 $123 1 #
vertex $-1 -1 $-1 $123 $323 #
ellipse-curve $-1 -1 $-1 -6.3499999999999988 -35.559999999999995 0 0 0 -1 -7.0499162063697436e-016 -1.2700000000000011 0 1 I I #
convexity-sys-attrib $-1 -1 $-1 $124 $73 #
point $-1 -1 $-1 -7.6199999999999992 -35.559999999999995 0 #
model_id-kcp-attrib $-1 -1 $-1 $-1 $131 1 1021520993 1021520993 596705282 7 #
face $324 -1 $-1 $-1 $146 $15 $-1 $325 reversed single #
loop $-1 -1 $-1 $-1 $229 $131 #
plane-surface $-1 -1 $-1 0 19.050000000000001 0 0 -1 0 0 0 -1 forward_v I I I I #
coedge $-1 -1 $-1 $326 $227 $230 $327 forward $132 $-1 #
coedge $-1 -1 $-1 $233 $134 $135 $221 reversed $80 $-1 #
coedge $-1 -1 $-1 $227 $326 $134 $219 reversed $132 $-1 #
edge $-1 -1 $-1 $234 -8.8899999999999988 $328 8.8899999999999988 $218 $329 forward @7 unknown #
coedge $-1 -1 $-1 $136 $135 $326 $330 forward $50 $-1 #
edge $-1 -1 $-1 $225 -7.620000000000001 $328 7.620000000000001 $217 $331 forward @7 unknown #
coedge $-1 -1 $-1 $230 $229 $136 $223 reversed $214 $-1 #
edge $-1 -1 $-1 $332 -7.620000000000001 $224 7.620000000000001 $222 $333 forward @7 unknown #
vertex $-1 -1 $-1 $138 $334 #
vertex $-1 -1 $-1 $236 $335 #
straight-curve $-1 -1 $-1 7.620000000000001 0 -8.8899999999999988 0 -1 0 I I #
coedge $-1 -1 $-1 $216 $218 $139 $228 reversed $132 $-1 #
edge $-1 -1 $-1 $231 -19.050000000000001 $234 19.050000000000001 $227 $336 forward @7 unknown #
coedge $-1 -1 $-1 $222 $140 $145 $237 forward $214 $-1 #
coedge $-1 -1 $-1 $140 $222 $216 $327 reversed $214 $-1 #
vertex $-1 -1 $-1 $141 $337 #
straight-curve $-1 -1 $-1 0 19.050000000000001 8.8899999999999988 -1 0 0 I I #
coedge $-1 -1 $-1 $142 $217 $144 $236 reversed $80 $-1 #
vertex $-1 -1 $-1 $228 $338 #
straight-curve $-1 -1 $-1 0 -19.050000000000001 8.8899999999999988 1 0 0 I I #
edge $-1 -1 $-1 $147 -8.8899999999999988 $225 8.8899999999999988 $144 $339 forward @7 unknown #
edge $-1 -1 $-1 $148 -8.8899999999999988 $224 8.8899999999999988 $145 $340 forward @7 unknown #
point $-1 -1 $-1 7.620000000000001 -19.050000000000001 8.8899999999999988 #
point $-1 -1 $-1 7.620000000000001 19.050000000000001 8.8899999999999988 #
face $-1 -1 $-1 $-1 $252 $24 $-1 $341 reversed single #
loop $-1 -1 $-1 $-1 $342 $150 #
coedge $-1 -1 $-1 $249 $343 $251 $344 forward $151 $-1 #
coedge $-1 -1 $-1 $244 $152 $345 $346 reversed $88 $-1 #
coedge $-1 -1 $-1 $152 $243 $153 $248 forward $88 $-1 #
coedge $-1 -1 $-1 $155 $347 $152 $246 reversed $252 $-1 #
edge $-1 -1 $-1 $253 -1.5707963267948968 $348 2.331176954593503e-016 $152 $349 forward @7 unknown #
coedge $-1 -1 $-1 $154 $153 $350 $351 reversed $54 $-1 #
edge $-1 -1 $-1 $352 -8.8899999999999988 $253 -1.2699999999999978 $244 $353 forward @7 unknown #
coedge $-1 -1 $-1 $343 $242 $154 $250 reversed $151 $-1 #
edge $-1 -1 $-1 $354 -8.8899999999999988 $254 -1.2699999999999978 $249 $355 forward @7 unknown #
coedge $-1 -1 $-1 $347 $155 $242 $344 reversed $252 $-1 #
loop $-1 -1 $-1 $-1 $251 $240 #
vertex $-1 -1 $-1 $156 $356 #
vertex $-1 -1 $-1 $156 $357 #
straight-curve $-1 -1 $-1 -7.6199999999999992 -19.050000000000001 1.2699999999999978 -1 0 0 I I #
loop $-1 -1 $-1 $-1 $263 $157 #
coedge $-1 -1 $-1 $161 $160 $358 $359 forward $57 $-1 #
coedge $-1 -1 $-1 $263 $360 $160 $259 reversed $256 $-1 #
edge $-1 -1 $-1 $261 11.429999999999998 $361 19.050000000000001 $258 $362 forward @7 unknown #
edge $-1 -1 $-1 $363 -19.050000000000001 $169 -11.429999999999998 $166 $364 forward @7 unknown #
vertex $-1 -1 $-1 $259 $365 #
straight-curve $-1 -1 $-1 -7.6199999999999992 11.429999999999998 8.8899999999999988 -1 0 0 I I #
coedge $-1 -1 $-1 $360 $258 $163 $264 forward $256 $-1 #
edge $-1 -1 $-1 $261 0 $267 1.5707963267948968 $263 $366 forward @7 unknown #
coedge $-1 -1 $-1 $358 $164 $167 $269 reversed $158 $-1 #
coedge $-1 -1 $-1 $164 $358 $360 $367 forward $158 $-1 #
vertex $-1 -1 $-1 $264 $368 #
straight-curve $-1 -1 $-1 -7.6199999999999992 19.050000000000001 1.2699999999999996 -1 0 0 I I #
edge $-1 -1 $-1 $363 -8.8899999999999988 $168 -1.2699999999999978 $265 $369 forward @7 unknown #
point $-1 -1 $-1 -7.620000000000001 19.049999999999997 1.2699999999999978 #
point $-1 -1 $-1 -7.620000000000001 11.429999999999998 8.8899999999999988 #
model_id-kcp-attrib $-1 -1 $-1 $-1 $172 1 1021520993 1021520993 596049921 8 #
face $370 -1 $-1 $371 $372 $7 $-1 $373 forward single #
loop $-1 -1 $-1 $-1 $285 $172 #
cone-surface $-1 -1 $-1 -6.3499999999999996 -6.3499999999999996 16.509999999999998 0 -1 0 0 0 1.2699999999999998 1 I I 0 1 1.2699999999999998 forward I I I I #
coedge $-1 -1 $-1 $280 $374 $375 $376 forward $173 $-1 #
coedge $-1 -1 $-1 $374 $280 $175 $278 reversed $173 $-1 #
edge $-1 -1 $-1 $377 0 $283 1.5707963267949023 $277 $378 forward @7 unknown #
coedge $-1 -1 $-1 $180 $176 $379 $380 reversed $62 $-1 #
coedge $-1 -1 $-1 $277 $276 $176 $281 forward $173 $-1 #
edge $381 -1 $-1 $382 9.7909432092927621e-017 $283 1.5707963267948999 $176 $383 forward @7 unknown #
attrib_edge_convexity-kcp-attrib $-1 -1 $384 $-1 $178 3 #
vertex $-1 -1 $-1 $281 $385 #
straight-curve $-1 -1 $-1 -7.6199999999999992 -35.559999999999995 0 0 0 25.399999999999999 I I #
coedge $-1 -1 $-1 $379 $386 $179 $286 forward $274 $-1 #
edge $-1 -1 $-1 $293 0 $288 1.5707963267948966 $179 $387 forward @7 unknown #
attrib_edge_convexity-kcp-attrib $-1 -1 $388 $-1 $181 3 #
vertex $-1 -1 $-1 $181 $389 #
ellipse-curve $-1 -1 $-1 -7.6199999999999992 -6.349999999999997 10.159999999999997 -1 0 0 0 -2.8199664825478975e-015 6.3499999999999996 1 I I #
coedge $-1 -1 $-1 $390 $182 $391 $392 reversed $292 $-1 #
coedge $-1 -1 $-1 $182 $390 $184 $188 forward $292 $-1 #
loop $-1 -1 $-1 $-1 $390 $393 #
vertex $-1 -1 $-1 $394 $395 #
ellipse-curve $-1 -1 $-1 -6.3499999999999979 -6.3499999999999996 10.159999999999998 -1 0 0 0 0 7.6199999999999966 1 I I #
convexity-sys-attrib $-1 -1 $-1 $186 $109 #
vertex $-1 -1 $-1 $200 $396 #
straight-curve $-1 -1 $-1 6.3499999999999996 1.2699999999999998 10.159999999999998 -25.399999999999999 0 0 I I #
coedge $-1 -1 $-1 $397 $398 $191 $299 reversed $399 $-1 #
edge $400 -1 $-1 $304 -1.1539325925237853e-015 $319 1.5707963267949012 $191 $401 forward @7 unknown #
coedge $-1 -1 $-1 $402 $192 $195 $307 forward $302 $-1 #
coedge $-1 -1 $-1 $192 $403 $397 $404 reversed $302 $-1 #
loop $-1 -1 $-1 $-1 $300 $405 #
model_id-kcp-attrib $-1 -1 $406 $-1 $193 1 1021520993 1021520993 596049921 25 #
vertex $-1 -1 $-1 $299 $407 #
straight-curve $-1 -1 $-1 7.6199999999999992 -35.559999999999995 0 0 25.399999999999999 0 I I #
coedge $-1 -1 $-1 $195 $194 $408 $409 forward $196 $-1 #
edge $-1 -1 $-1 $198 0 $410 0.39999999999999991 $300 $411 forward @7 unknown #
face $412 -1 $-1 $413 $196 $7 $-1 $414 forward single #
attrib_edge_convexity-kcp-attrib $-1 -1 $415 $197 $115 1 #
point $-1 -1 $-1 7.6199999999999992 0 0 #
model_id-kcp-attrib $-1 -1 $-1 $-1 $200 1 1021520993 1021520993 596049921 23 #
straight-curve $-1 -1 $-1 6.3499999999999996 1.2699999999999998 0 0 0 25.399999999999999 I I #
model_id-kcp-attrib $-1 -1 $-1 $-1 $201 1 1021520993 1021520993 596049921 19 #
plane-surface $-1 -1 $-1 7.6199999999999992 1.2699999999999998 0 0 1 0 -25.399999999999999 0 0 forward_v I I I I #
coedge $-1 -1 $-1 $416 $204 $398 $417 forward $317 $-1 #
coedge $-1 -1 $-1 $204 $416 $206 $321 reversed $317 $-1 #
loop $-1 -1 $-1 $-1 $315 $418 #
attrib_edge_convexity-kcp-attrib $-1 -1 $419 $-1 $205 1 #
vertex $-1 -1 $-1 $205 $420 #
straight-curve $-1 -1 $-1 -6.3499999999999996 -36.829999999999998 0 25.399999999999999 0 0 I I #
edge $421 -1 $-1 $208 0 $377 0.39999999999999991 $316 $422 forward @7 unknown #
convexity-sys-attrib $-1 -1 $-1 $207 $123 #
point $-1 -1 $-1 -6.3499999999999996 -36.829999999999998 0 #
model_id-kcp-attrib $-1 -1 $-1 $-1 $213 1 1021520993 1021520993 596705282 6 #
plane-surface $-1 -1 $-1 7.620000000000001 0 0 -1 0 0 0 0 1 forward_v I I I I #
coedge $-1 -1 $-1 $218 $216 $220 $330 reversed $132 $-1 #
edge $-1 -1 $-1 $231 -8.8899999999999988 $332 8.8899999999999988 $230 $423 forward @7 unknown #
vertex $-1 -1 $-1 $330 $424 #
straight-curve $-1 -1 $-1 -7.620000000000001 -19.050000000000001 0 0 0 -1 I I #
edge $-1 -1 $-1 $328 -19.050000000000001 $332 19.050000000000001 $326 $425 forward @7 unknown #
straight-curve $-1 -1 $-1 0 -19.050000000000001 -8.8899999999999988 -1 0 0 I I #
vertex $-1 -1 $-1 $223 $426 #
straight-curve $-1 -1 $-1 0 19.050000000000001 -8.8899999999999988 1 0 0 I I #
point $-1 -1 $-1 7.620000000000001 19.050000000000001 -8.8899999999999988 #
point $-1 -1 $-1 7.620000000000001 -19.050000000000001 -8.8899999999999988 #
straight-curve $-1 -1 $-1 -7.620000000000001 0 8.8899999999999988 0 -1 0 I I #
point $-1 -1 $-1 -7.620000000000001 19.050000000000001 8.8899999999999988 #
point $-1 -1 $-1 -7.620000000000001 -19.050000000000001 8.8899999999999988 #
straight-curve $-1 -1 $-1 7.620000000000001 -19.050000000000001 0 0 0 -1 I I #
straight-curve $-1 -1 $-1 7.620000000000001 19.050000000000001 0 0 0 -1 I I #
cone-surface $-1 -1 $-1 -7.6199999999999992 -11.430000000000003 1.2699999999999978 -1 0 0 0 1.7763568394002505e-015 7.6199999999999966 1 I I 0 1 7.6199999999999966 forward I I I I #
coedge $-1 -1 $-1 $427 $345 $347 $428 forward $241 $-1 #
coedge $-1 -1 $-1 $242 $249 $427 $429 reversed $151 $-1 #
edge $-1 -1 $-1 $430 -2.331176954593503e-016 $254 1.5707963267948968 $242 $431 forward @7 unknown #
coedge $-1 -1 $-1 $342 $350 $243 $346 forward $241 $-1 #
edge $-1 -1 $-1 $352 -19.050000000000001 $348 -11.43 $243 $362 forward @7 unknown #
coedge $-1 -1 $-1 $245 $251 $342 $428 reversed $252 $-1 #
vertex $-1 -1 $-1 $246 $432 #
ellipse-curve $-1 -1 $-1 7.620000000000001 -11.430000000000003 1.2699999999999978 -1 0 0 0 1.7763568394002505e-015 7.6199999999999966 1 I I #
coedge $-1 -1 $-1 $345 $427 $247 $351 forward $241 $-1 #
edge $-1 -1 $-1 $354 -7.620000000000001 $352 7.620000000000001 $247 $433 forward @7 unknown #
vertex $-1 -1 $-1 $346 $434 #
straight-curve $-1 -1 $-1 7.620000000000001 -19.050000000000001 0 0 0 -1 I I #
vertex $-1 -1 $-1 $429 $435 #
straight-curve $-1 -1 $-1 -7.620000000000001 -19.050000000000001 0 0 0 -1 I I #
point $-1 -1 $-1 7.620000000000001 -19.050000000000001 1.2699999999999978 #
point $-1 -1 $-1 -7.620000000000001 -19.050000000000001 1.2699999999999978 #
coedge $-1 -1 $-1 $266 $265 $257 $359 reversed $158 $-1 #
edge $-1 -1 $-1 $361 -7.620000000000001 $363 7.620000000000001 $358 $436 forward @7 unknown #
coedge $-1 -1 $-1 $258 $263 $266 $367 reversed $256 $-1 #
vertex $-1 -1 $-1 $259 $437 #
straight-curve $-1 -1 $-1 7.620000000000001 0 8.8899999999999988 0 1 0 I I #
vertex $-1 -1 $-1 $359 $438 #
straight-curve $-1 -1 $-1 -7.620000000000001 0 8.8899999999999988 0 -1 0 I I #
point $-1 -1 $-1 7.6200000000000028 11.429999999999998 8.8899999999999988 #
ellipse-curve $-1 -1 $-1 7.620000000000001 11.429999999999998 1.2699999999999996 -1 0 0 0 0 7.6199999999999957 1 I I #
edge $-1 -1 $-1 $361 -8.8899999999999988 $267 -1.2699999999999978 $360 $439 forward @7 unknown #
point $-1 -1 $-1 7.620000000000001 19.049999999999997 1.2699999999999978 #
straight-curve $-1 -1 $-1 -7.620000000000001 19.050000000000001 0 0 0 -1 I I #
model_id-kcp-attrib $-1 -1 $-1 $-1 $273 1 1021520993 1021520993 596049921 9 #
face $440 -1 $-1 $418 $441 $7 $-1 $442 forward single #
loop $-1 -1 $-1 $-1 $443 $273 #
plane-surface $-1 -1 $-1 0 0 17.779999999999998 0 0 1 25.399999999999999 0 0 forward_v I I I I #
coedge $-1 -1 $-1 $276 $277 $444 $445 reversed $173 $-1 #
coedge $-1 -1 $-1 $386 $379 $276 $376 reversed $274 $-1 #
edge $-1 -1 $-1 $446 1.2238679011616131e-016 $382 1.570796326794899 $375 $447 forward @7 unknown #
vertex $-1 -1 $-1 $321 $448 #
ellipse-curve $-1 -1 $-1 -6.3499999999999996 -35.560000000000002 10.159999999999997 0 0 -1 0 -1.2699999999999954 0 1 I I #
coedge $-1 -1 $-1 $375 $285 $279 $380 forward $274 $-1 #
edge $449 -1 $-1 $288 0 $382 0.90000000000000002 $279 $450 forward @7 unknown #
attrib_edge_convexity-kcp-attrib $-1 -1 $451 $-1 $281 3 #
vertex $-1 -1 $-1 $380 $452 #
ellipse-curve $-1 -1 $-1 -7.6199999999999992 -29.210000000000008 10.160000000000005 1 0 0 0 1.127986593019159e-014 6.3499999999999908 1 I I #
convexity-sys-attrib $-1 -1 $-1 $282 $178 #
point $-1 -1 $-1 -7.6199999999999992 -35.559999999999995 10.159999999999997 #
coedge $-1 -1 $-1 $285 $375 $453 $394 reversed $274 $-1 #
ellipse-curve $-1 -1 $-1 -6.3499999999999996 -6.3499999999999996 16.509999999999998 0 -1 0 0 0 1.2700000000000011 1 I I #
convexity-sys-attrib $-1 -1 $-1 $287 $181 #
point $-1 -1 $-1 -7.6199999999999992 -6.3499999999999996 16.509999999999998 #
coedge $-1 -1 $-1 $291 $290 $454 $455 forward $292 $-1 #
coedge $-1 -1 $-1 $453 $456 $290 $392 forward $372 $-1 #
edge $-1 -1 $-1 $457 0 $293 0.5 $391 $458 forward @7 unknown #
face $459 -1 $-1 $201 $292 $7 $-1 $460 forward single #
edge $-1 -1 $-1 $293 0 $446 0.90000000000000002 $453 $461 forward @7 unknown #
point $-1 -1 $-1 -6.3499999999999996 -6.3499999999999996 17.779999999999998 #
point $-1 -1 $-1 6.3499999999999996 1.2699999999999998 10.159999999999997 #
coedge $-1 -1 $-1 $462 $298 $301 $404 forward $399 $-1 #
coedge $-1 -1 $-1 $298 $462 $315 $417 reversed $399 $-1 #
loop $-1 -1 $-1 $-1 $462 $463 #
model_id-kcp-attrib $-1 -1 $464 $-1 $299 1 1021520993 1021520993 596049921 26 #
ellipse-curve $-1 -1 $-1 6.3499999999999996 -35.560000000000002 0 0 0 -1 1.2699999999999996 5.6399329650957949e-015 0 1 I I #
coedge $-1 -1 $-1 $465 $300 $466 $467 reversed $302 $-1 #
coedge $-1 -1 $-1 $301 $465 $468 $469 forward $302 $-1 #
edge $-1 -1 $-1 $304 0 $470 0.39999999999999991 $301 $471 forward @7 unknown #
face $472 -1 $-1 $308 $302 $7 $-1 $473 forward single #
attrib_edge_convexity-kcp-attrib $-1 -1 $474 $303 $193 1 #
point $-1 -1 $-1 7.6199999999999992 -35.559999999999995 0 #
coedge $-1 -1 $-1 $454 $466 $306 $409 reversed $475 $-1 #
edge $-1 -1 $-1 $296 -2.8848314813094646e-016 $410 1.5707963267948986 $306 $476 forward @7 unknown #
vertex $-1 -1 $-1 $467 $477 #
straight-curve $-1 -1 $-1 7.6199999999999992 0 0 0 0 25.399999999999999 I I #
model_id-kcp-attrib $-1 -1 $-1 $-1 $308 1 1021520993 1021520993 596049921 15 #
face $478 -1 $-1 $479 $475 $7 $-1 $480 forward single #
cone-surface $-1 -1 $-1 6.3499999999999996 0 0 0 0 -1 0 1.2699999999999998 0 1 I I 0 1 1.2699999999999998 forward I I I I #
convexity-sys-attrib $-1 -1 $-1 $309 $115 #
coedge $-1 -1 $-1 $316 $315 $481 $482 reversed $317 $-1 #
edge $483 -1 $-1 $319 0 $484 0.39999999999999991 $315 $485 forward @7 unknown #
face $486 -1 $-1 $463 $317 $7 $-1 $487 forward single #
convexity-sys-attrib $-1 -1 $-1 $318 $205 #
point $-1 -1 $-1 6.3499999999999996 -36.829999999999998 0 #
attrib_edge_convexity-kcp-attrib $-1 -1 $488 $-1 $321 3 #
straight-curve $-1 -1 $-1 -6.3499999999999996 -36.829999999999998 0 0 0 25.399999999999999 I I #
straight-curve $-1 -1 $-1 -7.620000000000001 19.050000000000001 0 0 0 -1 I I #
point $-1 -1 $-1 -7.620000000000001 -19.050000000000001 -8.8899999999999988 #
straight-curve $-1 -1 $-1 -7.620000000000001 0 -8.8899999999999988 0 1 0 I I #
point $-1 -1 $-1 -7.620000000000001 19.050000000000001 -8.8899999999999988 #
coedge $-1 -1 $-1 $350 $342 $343 $429 forward $241 $-1 #
edge $-1 -1 $-1 $348 -15.24 $430 1.7763568394002505e-015 $342 $489 forward @7 unknown #
edge $-1 -1 $-1 $430 11.43 $354 19.050000000000001 $343 $364 forward @7 unknown #
vertex $-1 -1 $-1 $429 $490 #
ellipse-curve $-1 -1 $-1 -7.620000000000001 -11.430000000000003 1.2699999999999978 1 0 0 0 1.7763568394002505e-015 7.6199999999999966 1 I I #
point $-1 -1 $-1 7.620000000000001 -11.43 8.8899999999999988 #
straight-curve $-1 -1 $-1 0 -19.050000000000001 8.8899999999999988 1 0 0 I I #
point $-1 -1 $-1 7.620000000000001 -19.050000000000001 8.8899999999999988 #
point $-1 -1 $-1 -7.620000000000001 -19.050000000000001 8.8899999999999988 #
straight-curve $-1 -1 $-1 0 19.050000000000001 8.8899999999999988 -1 0 0 I I #
point $-1 -1 $-1 7.620000000000001 19.050000000000001 8.8899999999999988 #
point $-1 -1 $-1 -7.620000000000001 19.050000000000001 8.8899999999999988 #
straight-curve $-1 -1 $-1 7.620000000000001 19.050000000000001 0 0 0 -1 I I #
model_id-kcp-attrib $-1 -1 $-1 $-1 $371 1 1021520993 1021520993 596049921 10 #
loop $-1 -1 $-1 $-1 $444 $371 #
cone-surface $-1 -1 $-1 -7.6199999999999992 -29.209999999999997 10.159999999999998 1 0 0 0 0 7.6199999999999992 1 I I 0 1 7.6199999999999992 forward I I I I #
coedge $-1 -1 $-1 $456 $453 $491 $492 forward $372 $-1 #
coedge $-1 -1 $-1 $481 $491 $374 $445 forward $441 $-1 #
edge $-1 -1 $-1 $446 0 $377 1.570796326794897 $444 $493 forward @7 unknown #
vertex $-1 -1 $-1 $394 $494 #
ellipse-curve $-1 -1 $-1 -6.3500000000000023 -29.209999999999997 16.509999999999998 0 -1 0 2.8199664825478975e-015 0 1.2699999999999982 1 I I #
point $-1 -1 $-1 -6.3499999999999996 -36.829999999999998 10.159999999999997 #
attrib_edge_convexity-kcp-attrib $-1 -1 $495 $-1 $380 3 #
straight-curve $-1 -1 $-1 -7.6199999999999992 -6.3499999999999996 16.509999999999998 0 -25.399999999999999 0 I I #
convexity-sys-attrib $-1 -1 $-1 $381 $281 #
point $-1 -1 $-1 -7.6199999999999992 -29.209999999999997 16.509999999999998 #
coedge $-1 -1 $-1 $443 $391 $386 $394 forward $372 $-1 #
coedge $-1 -1 $-1 $496 $408 $390 $455 reversed $475 $-1 #
edge $-1 -1 $-1 $457 0 $296 1.570796326794897 $390 $497 forward @7 unknown #
coedge $-1 -1 $-1 $391 $443 $498 $499 forward $372 $-1 #
vertex $-1 -1 $-1 $392 $500 #
straight-curve $-1 -1 $-1 6.3499999999999996 -6.3499999999999996 17.779999999999998 -25.399999999999999 0 0 I I #
model_id-kcp-attrib $-1 -1 $-1 $-1 $393 1 1021520993 1021520993 596049921 18 #
cone-surface $-1 -1 $-1 7.6199999999999992 -6.3499999999999996 10.159999999999998 -1 0 0 0 0 7.6199999999999992 1 I I 0 1 7.6199999999999992 forward I I I I #
straight-curve $-1 -1 $-1 -6.3499999999999996 -6.3499999999999996 17.779999999999998 0 -25.399999999999999 0 I I #
coedge $-1 -1 $-1 $398 $397 $501 $502 forward $399 $-1 #
face $503 -1 $-1 $504 $399 $7 $-1 $505 forward single #
attrib_edge_convexity-kcp-attrib $-1 -1 $506 $400 $299 1 #
coedge $-1 -1 $-1 $403 $402 $507 $508 reversed $302 $-1 #
coedge $-1 -1 $-1 $408 $496 $402 $467 forward $475 $-1 #
edge $-1 -1 $-1 $509 4.8954716046463829e-017 $410 1.5707963267948977 $402 $510 forward @7 unknown #
coedge $-1 -1 $-1 $511 $501 $403 $469 reversed $512 $-1 #
edge $-1 -1 $-1 $513 9.7909432092927707e-017 $470 1.5707963267948988 $403 $514 forward @7 unknown #
vertex $-1 -1 $-1 $404 $515 #
straight-curve $-1 -1 $-1 7.6199999999999992 -35.559999999999995 0 0 -1.409983241273949e-014 25.399999999999999 I I #
model_id-kcp-attrib $-1 -1 $-1 $-1 $405 1 1021520993 1021520993 596049921 14 #
plane-surface $-1 -1 $-1 7.6199999999999992 -36.829999999999998 0 1 0 0 0 25.399999999999999 0 forward_v I I I I #
convexity-sys-attrib $-1 -1 $-1 $406 $193 #
loop $-1 -1 $-1 $-1 $496 $413 #
ellipse-curve $-1 -1 $-1 6.3500000000000014 1.0574874309554614e-015 10.159999999999998 0 0 -1 -1.4099832412739487e-015 1.2699999999999987 0 1 I I #
point $-1 -1 $-1 7.6199999999999992 7.7762503467720939e-017 10.159999999999997 #
model_id-kcp-attrib $-1 -1 $-1 $-1 $413 1 1021520993 1021520993 596049921 16 #
face $516 -1 $-1 $393 $517 $7 $-1 $518 forward single #
torus-surface $-1 -1 $-1 6.3499999999999996 -6.3499999999999996 10.159999999999998 -1 0 0 6.3499999999999996 1.2699999999999998 0 0 1 forward_v I I I I #
coedge $-1 -1 $-1 $519 $444 $416 $482 forward $441 $-1 #
edge $520 -1 $-1 $377 0 $484 0.49999999999999994 $416 $521 forward @7 unknown #
model_id-kcp-attrib $-1 -1 $522 $-1 $417 1 1021520993 1021520993 596049921 21 #
vertex $-1 -1 $-1 $482 $523 #
straight-curve $-1 -1 $-1 6.3499999999999979 -36.829999999999998 0 0 0 25.399999999999999 I I #
model_id-kcp-attrib $-1 -1 $-1 $-1 $418 1 1021520993 1021520993 596049921 11 #
plane-surface $-1 -1 $-1 -7.6199999999999992 -36.829999999999998 0 0 -1 0 25.399999999999999 0 0 forward_v I I I I #
convexity-sys-attrib $-1 -1 $-1 $421 $321 #
straight-curve $-1 -1 $-1 -7.6199999999999992 -11.430000000000003 8.8899999999999988 -1 0 0 I I #
point $-1 -1 $-1 -7.620000000000001 -11.43 8.8899999999999988 #
coedge $-1 -1 $-1 $444 $519 $443 $492 reversed $441 $-1 #
edge $-1 -1 $-1 $446 0 $524 0.49999999999999994 $443 $525 forward @7 unknown #
ellipse-curve $-1 -1 $-1 -6.3499999999999996 -29.209999999999997 10.159999999999998 1 0 0 0 0 7.6199999999999966 1 I I #
point $-1 -1 $-1 -6.3499999999999996 -29.209999999999997 17.779999999999998 #
convexity-sys-attrib $-1 -1 $-1 $449 $380 #
coedge $-1 -1 $-1 $466 $454 $526 $527 forward $475 $-1 #
ellipse-curve $-1 -1 $-1 6.3499999999999996 -6.3499999999999996 10.159999999999998 -1 0 0 0 0 7.6199999999999966 1 I I #
coedge $-1 -1 $-1 $528 $526 $456 $499 reversed $517 $-1 #
edge $529 -1 $-1 $524 0 $457 0.90000000000000002 $456 $530 forward @7 unknown #
point $-1 -1 $-1 6.3499999999999996 -6.3499999999999996 17.779999999999998 #
coedge $-1 -1 $-1 $468 $531 $462 $502 reversed $512 $-1 #
edge $-1 -1 $-1 $470 2.3078651850475583e-015 $484 1.5707963267948835 $501 $532 forward @7 unknown #
model_id-kcp-attrib $-1 -1 $-1 $-1 $463 1 1021520993 1021520993 596049921 12 #
face $533 -1 $-1 $405 $512 $7 $-1 $534 forward single #
cone-surface $-1 -1 $-1 6.3499999999999996 -35.559999999999995 0 0 0 -1 1.2699999999999998 0 0 1 I I 0 1 1.2699999999999998 forward I I I I #
convexity-sys-attrib $-1 -1 $-1 $464 $299 #
coedge $-1 -1 $-1 $526 $528 $465 $508 forward $517 $-1 #
edge $-1 -1 $-1 $513 0 $509 0.90000000000000002 $465 $535 forward @7 unknown #
vertex $-1 -1 $-1 $508 $536 #
ellipse-curve $-1 -1 $-1 7.6199999999999992 -6.3499999999999943 10.159999999999997 -1 0 0 0 -5.6399329650957949e-015 6.3499999999999996 1 I I #
coedge $-1 -1 $-1 $531 $468 $528 $537 reversed $512 $-1 #
loop $-1 -1 $-1 $-1 $501 $504 #
vertex $-1 -1 $-1 $469 $538 #
ellipse-curve $-1 -1 $-1 7.6199999999999992 -29.210000000000008 10.159999999999998 1 0 0 0 1.127986593019159e-014 6.3499999999999979 1 I I #
point $-1 -1 $-1 7.6199999999999992 -35.560000000000002 10.159999999999997 #
model_id-kcp-attrib $-1 -1 $-1 $-1 $479 1 1021520993 1021520993 596049921 17 #
loop $-1 -1 $-1 $-1 $528 $479 #
cone-surface $-1 -1 $-1 6.3499999999999996 -29.209999999999997 16.509999999999998 0 1 0 0 0 1.2699999999999998 1 I I 0 1 1.2699999999999998 forward I I I I #
coedge $-1 -1 $-1 $491 $481 $531 $539 reversed $441 $-1 #
attrib_edge_convexity-kcp-attrib $-1 -1 $540 $-1 $482 3 #
straight-curve $-1 -1 $-1 -6.3499999999999996 -36.829999999999998 10.159999999999998 25.399999999999999 0 0 I I #
attrib_edge_convexity-kcp-attrib $-1 -1 $541 $483 $417 3 #
point $-1 -1 $-1 6.3499999999999979 -36.829999999999998 10.159999999999997 #
vertex $-1 -1 $-1 $499 $542 #
straight-curve $-1 -1 $-1 -6.3499999999999996 -29.209999999999997 17.779999999999998 25.399999999999999 0 0 I I #
coedge $-1 -1 $-1 $498 $507 $496 $527 reversed $517 $-1 #
edge $-1 -1 $-1 $457 2.8848314813094765e-016 $509 1.5707963267948954 $496 $543 forward @7 unknown #
coedge $-1 -1 $-1 $507 $498 $511 $537 forward $517 $-1 #
model_id-kcp-attrib $-1 -1 $-1 $-1 $499 1 1021520993 1021520993 596049921 22 #
straight-curve $-1 -1 $-1 6.3499999999999996 -29.209999999999997 17.779999999999998 0 25.399999999999999 0 I I #
coedge $-1 -1 $-1 $501 $511 $519 $539 forward $512 $-1 #
ellipse-curve $-1 -1 $-1 6.3499999999999925 -35.559999999999988 10.159999999999997 0 0 -1 1.2700000000000067 -1.127986593019159e-014 0 1 I I #
model_id-kcp-attrib $-1 -1 $-1 $-1 $504 1 1021520993 1021520993 596049921 13 #
torus-surface $-1 -1 $-1 6.3499999999999996 -29.209999999999997 10.159999999999998 1 0 0 6.3499999999999996 1.2699999999999998 0 0 1 forward_v I I I I #
straight-curve $-1 -1 $-1 7.6199999999999992 -29.209999999999997 16.509999999999998 0 25.399999999999999 0 I I #
point $-1 -1 $-1 7.6199999999999992 -6.3499999999999996 16.509999999999998 #
edge $-1 -1 $-1 $524 2.6662836418163373e-016 $513 1.5707963267948983 $528 $544 forward @7 unknown #
point $-1 -1 $-1 7.6199999999999992 -29.209999999999997 16.509999999999998 #
edge $-1 -1 $-1 $524 0 $484 1.570796326794897 $519 $545 forward @7 unknown #
convexity-sys-attrib $-1 -1 $-1 $520 $482 #
convexity-sys-attrib $-1 -1 $-1 $522 $417 #
point $-1 -1 $-1 6.3499999999999979 -29.209999999999997 17.779999999999998 #
ellipse-curve $-1 -1 $-1 6.3499999999999979 -6.3500000000000023 16.509999999999998 0 1 0 1.4099832412739487e-015 0 1.2700000000000011 1 I I #
ellipse-curve $-1 -1 $-1 6.3499999999999996 -29.209999999999997 16.509999999999998 0 1 0 -2.1149748619109229e-015 0 1.2699999999999982 1 I I #
ellipse-curve $-1 -1 $-1 6.3499999999999979 -29.209999999999997 10.159999999999998 1 0 0 0 0 7.6199999999999966 1 I I #
End-of-ACIS-data 