700 0 2 0           
24 FBMach with ACIS - 7.0.3 13 ACIS 7.0.3 NT 24 Wed May 15 23:49:56 2002 
1 9.9999999999999995e-007 1e-010 
body $2 -1 $-1 $3 $-1 $4 #
bdycol-kcp $-1 -1 1 1 $5 #
model_id-kcp-attrib $-1 -1 $-1 $-1 $0 1 1021520996 1021520996 2146893825 1 #
lump $-1 -1 $-1 $-1 $6 $0 #
transform $-1 -1 1 0 0 0 1 0 0 0 1 0 0 0 1 rotate no_reflect no_shear #
body $7 -1 $-1 $8 $-1 $9 #
shell $-1 -1 $-1 $-1 $-1 $10 $-1 $3 #
model_id-kcp-attrib $-1 -1 $-1 $-1 $5 1 1021520996 1021520996 2130771970 1 #
lump $-1 -1 $-1 $-1 $11 $5 #
transform $-1 -1 1 0 0 0 1 0 0 0 1 1.9999999999999998 5.5511151231257827e-017 1.45 1 no_rotate no_reflect no_shear #
face $12 -1 $-1 $13 $14 $6 $-1 $15 reversed single #
shell $-1 -1 $-1 $-1 $-1 $16 $-1 $8 #
model_id-kcp-attrib $-1 -1 $-1 $-1 $10 1 1021520996 1021520996 2146893825 2 #
face $17 -1 $-1 $18 $19 $6 $-1 $20 forward single #
loop $-1 -1 $-1 $-1 $21 $10 #
plane-surface $-1 -1 $-1 0 0 0 0 0 1 -1 0 0 forward_v I I I I #
face $-1 -1 $-1 $22 $23 $11 $-1 $24 forward single #
model_id-kcp-attrib $-1 -1 $-1 $-1 $13 1 1021520996 1021520996 2146893825 3 #
face $25 -1 $-1 $26 $27 $6 $-1 $28 forward single #
loop $-1 -1 $-1 $-1 $29 $13 #
cone-surface $-1 -1 $-1 0 0 0 0 0 1 -0.099999999999999992 0 0 1 I I 0 1 0.099999999999999992 forward I I I I #
coedge $-1 -1 $-1 $30 $30 $31 $32 reversed $14 $-1 #
face $33 -1 $-1 $34 $35 $11 $-1 $36 reversed single #
loop $-1 -1 $-1 $-1 $37 $16 #
plane-surface $-1 -1 $-1 0 0 1.45 0 0 1 1 0 0 forward_v I I I I #
model_id-kcp-attrib $-1 -1 $-1 $-1 $18 1 1021520996 1021520996 2146893825 4 #
face $38 -1 $-1 $39 $40 $6 $-1 $41 forward single #
loop $-1 -1 $-1 $-1 $42 $18 #
cone-surface $-1 -1 $-1 0 0 0 0 0 1 -0.099999999999999992 0 0 1 I I 0 1 0.099999999999999992 forward I I I I #
coedge $-1 -1 $-1 $43 $31 $44 $45 forward $19 $-1 #
coedge $-1 -1 $-1 $21 $21 $46 $47 reversed $14 $-1 #
coedge $-1 -1 $-1 $29 $48 $21 $32 forward $19 $-1 #
edge $49 -1 $-1 $50 0 $51 3.1415926535897931 $21 $52 forward @7 unknown #
model_id-kcp-attrib $-1 -1 $-1 $-1 $22 1 1021520996 1021520996 2130771970 2 #
face $-1 -1 $-1 $53 $54 $11 $-1 $55 reversed single #
loop $-1 -1 $-1 $-1 $56 $22 #
plane-surface $-1 -1 $-1 0 0 -1.45 0 0 1 1 0 0 forward_v I I I I #
coedge $-1 -1 $-1 $57 $58 $59 $60 forward $23 $-1 #
model_id-kcp-attrib $-1 -1 $-1 $-1 $26 1 1021520996 1021520996 2146893825 5 #
face $61 -1 $-1 $62 $63 $6 $-1 $64 forward single #
loop $-1 -1 $-1 $-1 $65 $26 #
torus-surface $-1 -1 $-1 0.25 0 1.75 0 1 0 0.25 0.099999999999999992 1 0 0 forward_v I I I I #
coedge $-1 -1 $-1 $66 $46 $48 $67 forward $27 $-1 #
coedge $-1 -1 $-1 $48 $29 $68 $69 reversed $19 $-1 #
coedge $-1 -1 $-1 $46 $66 $29 $45 reversed $27 $-1 #
edge $-1 -1 $-1 $51 0 $70 1.75 $44 $71 forward @7 unknown #
coedge $-1 -1 $-1 $42 $44 $30 $47 forward $27 $-1 #
edge $72 -1 $-1 $51 0 $50 3.1415926535897931 $30 $73 forward @7 unknown #
coedge $-1 -1 $-1 $31 $43 $42 $67 reversed $19 $-1 #
attrib_edge_convexity-kcp-attrib $-1 -1 $74 $-1 $32 1 #
vertex $-1 -1 $-1 $47 $75 #
vertex $-1 -1 $-1 $47 $76 #
ellipse-curve $-1 -1 $-1 0 0 0 0 0 1 0.099999999999999992 0 0 1 I I #
face $-1 -1 $-1 $77 $78 $11 $-1 $79 reversed single #
loop $-1 -1 $-1 $-1 $80 $34 #
plane-surface $-1 -1 $-1 0 -0.89999999999999991 0 0 1 0 0 0 1 forward_v I I I I #
coedge $-1 -1 $-1 $81 $82 $83 $84 forward $35 $-1 #
coedge $-1 -1 $-1 $85 $37 $86 $87 forward $23 $-1 #
coedge $-1 -1 $-1 $37 $85 $88 $89 forward $23 $-1 #
coedge $-1 -1 $-1 $90 $91 $37 $60 reversed $92 $-1 #
edge $-1 -1 $-1 $93 -0.89999999999999991 $94 0.89999999999999991 $59 $95 forward @7 unknown #
model_id-kcp-attrib $-1 -1 $-1 $-1 $39 1 1021520996 1021520996 2146893825 6 #
face $96 -1 $-1 $97 $98 $6 $-1 $99 forward single #
loop $-1 -1 $-1 $-1 $100 $39 #
torus-surface $-1 -1 $-1 0.25 0 1.75 0 1 0 0.25 0.099999999999999992 1 0 0 forward_v I I I I #
coedge $-1 -1 $-1 $101 $102 $103 $104 forward $40 $-1 #
coedge $-1 -1 $-1 $44 $42 $102 $105 reversed $27 $-1 #
edge $-1 -1 $-1 $50 0 $106 1.75 $42 $107 forward @7 unknown #
coedge $-1 -1 $-1 $100 $103 $43 $69 forward $63 $-1 #
edge $-1 -1 $-1 $106 0 $70 3.1415926535897931 $43 $108 forward @7 unknown #
vertex $-1 -1 $-1 $45 $109 #
straight-curve $-1 -1 $-1 -0.099999999999999992 0 0 0 0 1 I I #
attrib_edge_convexity-kcp-attrib $-1 -1 $110 $-1 $47 1 #
ellipse-curve $-1 -1 $-1 0 0 0 0 0 1 -0.099999999999999992 0 0 1 I I #
convexity-sys-attrib $-1 -1 $-1 $49 $32 #
point $-1 -1 $-1 0.099999999999999992 0 0 #
point $-1 -1 $-1 -0.099999999999999992 0 0 #
face $-1 -1 $-1 $111 $112 $11 $-1 $113 reversed single #
loop $-1 -1 $-1 $-1 $114 $53 #
plane-surface $-1 -1 $-1 -2.0999999999999996 0 0 1 0 0 0 0 -1 forward_v I I I I #
coedge $-1 -1 $-1 $115 $88 $116 $117 forward $54 $-1 #
coedge $-1 -1 $-1 $118 $56 $115 $119 forward $35 $-1 #
coedge $-1 -1 $-1 $56 $118 $120 $121 forward $35 $-1 #
coedge $-1 -1 $-1 $91 $90 $56 $84 reversed $92 $-1 #
edge $-1 -1 $-1 $122 -0.89999999999999991 $123 0.89999999999999991 $83 $124 forward @7 unknown #
coedge $-1 -1 $-1 $58 $57 $125 $126 forward $23 $-1 #
coedge $-1 -1 $-1 $127 $128 $57 $87 reversed $112 $-1 #
edge $-1 -1 $-1 $94 -2.0999999999999996 $129 2.0999999999999996 $86 $130 forward @7 unknown #
coedge $-1 -1 $-1 $80 $131 $58 $89 reversed $54 $-1 #
edge $-1 -1 $-1 $132 -2.0999999999999996 $93 2.0999999999999996 $88 $133 forward @7 unknown #
coedge $-1 -1 $-1 $83 $59 $131 $134 forward $92 $-1 #
coedge $-1 -1 $-1 $59 $83 $127 $135 reversed $92 $-1 #
loop $-1 -1 $-1 $-1 $90 $111 #
vertex $-1 -1 $-1 $60 $136 #
vertex $-1 -1 $-1 $60 $137 #
straight-curve $-1 -1 $-1 2.0999999999999996 0 1.45 0 1 0 I I #
model_id-kcp-attrib $-1 -1 $-1 $-1 $62 1 1021520996 1021520996 2146893825 7 #
face $138 -1 $-1 $139 $140 $6 $-1 $141 forward single #
loop $-1 -1 $-1 $-1 $142 $62 #
cone-surface $-1 -1 $-1 0.25 0 2 1 0 0 0 0 0.099999999999999992 1 I I 0 1 0.099999999999999992 forward I I I I #
coedge $-1 -1 $-1 $143 $68 $144 $145 forward $63 $-1 #
coedge $-1 -1 $-1 $144 $65 $146 $147 reversed $40 $-1 #
coedge $-1 -1 $-1 $65 $144 $66 $105 forward $40 $-1 #
coedge $-1 -1 $-1 $68 $143 $65 $104 reversed $63 $-1 #
edge $-1 -1 $-1 $106 0 $148 1.5707963267948966 $65 $149 forward @7 unknown #
edge $-1 -1 $-1 $70 0 $106 3.1415926535897927 $66 $150 forward @7 unknown #
vertex $-1 -1 $-1 $105 $151 #
straight-curve $-1 -1 $-1 0.099999999999999992 -1.2246063538223771e-017 0 0 0 1 I I #
ellipse-curve $-1 -1 $-1 0 6.9388939039072284e-018 1.75 0 0 1 0.099999999999999992 -1.9184957442131e-017 0 1 I I #
point $-1 -1 $-1 -0.099999999999999992 0 1.75 #
convexity-sys-attrib $-1 -1 $-1 $72 $47 #
face $-1 -1 $-1 $-1 $92 $11 $-1 $152 reversed single #
loop $-1 -1 $-1 $-1 $127 $77 #
plane-surface $-1 -1 $-1 0 0.89999999999999991 0 0 -1 0 0 0 -1 forward_v I I I I #
coedge $-1 -1 $-1 $153 $125 $128 $154 forward $78 $-1 #
coedge $-1 -1 $-1 $131 $80 $81 $119 reversed $54 $-1 #
coedge $-1 -1 $-1 $125 $153 $80 $117 reversed $78 $-1 #
edge $-1 -1 $-1 $132 -1.45 $155 1.45 $116 $156 forward @7 unknown #
coedge $-1 -1 $-1 $82 $81 $153 $157 forward $35 $-1 #
edge $-1 -1 $-1 $123 -2.0999999999999996 $155 2.0999999999999996 $115 $158 forward @7 unknown #
coedge $-1 -1 $-1 $128 $127 $82 $121 reversed $112 $-1 #
edge $-1 -1 $-1 $159 -2.0999999999999996 $122 2.0999999999999996 $120 $160 forward @7 unknown #
vertex $-1 -1 $-1 $84 $161 #
vertex $-1 -1 $-1 $134 $162 #
straight-curve $-1 -1 $-1 2.0999999999999996 0 -1.45 0 -1 0 I I #
coedge $-1 -1 $-1 $114 $116 $85 $126 reversed $78 $-1 #
edge $-1 -1 $-1 $129 -0.89999999999999991 $132 0.89999999999999991 $125 $163 forward @7 unknown #
coedge $-1 -1 $-1 $120 $86 $91 $135 forward $112 $-1 #
coedge $-1 -1 $-1 $86 $120 $114 $154 reversed $112 $-1 #
vertex $-1 -1 $-1 $87 $164 #
straight-curve $-1 -1 $-1 0 0.89999999999999991 1.45 -1 0 0 I I #
coedge $-1 -1 $-1 $88 $115 $90 $134 reversed $54 $-1 #
vertex $-1 -1 $-1 $126 $165 #
straight-curve $-1 -1 $-1 0 -0.89999999999999991 1.45 1 0 0 I I #
edge $-1 -1 $-1 $93 -1.45 $123 1.45 $90 $166 forward @7 unknown #
edge $-1 -1 $-1 $94 -1.45 $122 1.45 $91 $167 forward @7 unknown #
point $-1 -1 $-1 2.0999999999999996 -0.89999999999999991 1.45 #
point $-1 -1 $-1 2.0999999999999996 0.89999999999999991 1.45 #
model_id-kcp-attrib $-1 -1 $-1 $-1 $97 1 1021520996 1021520996 2146893825 8 #
face $168 -1 $-1 $169 $170 $6 $-1 $171 forward single #
loop $-1 -1 $-1 $-1 $172 $97 #
cone-surface $-1 -1 $-1 0.25 0 2 1 0 0 0 0 0.099999999999999992 1 I I 0 1 0.099999999999999992 forward I I I I #
coedge $-1 -1 $-1 $173 $174 $175 $176 reversed $98 $-1 #
coedge $-1 -1 $-1 $103 $100 $173 $177 reversed $63 $-1 #
coedge $-1 -1 $-1 $102 $101 $100 $145 reversed $40 $-1 #
edge $-1 -1 $-1 $70 0 $178 1.5707963267948966 $144 $179 forward @7 unknown #
coedge $-1 -1 $-1 $175 $172 $101 $147 forward $140 $-1 #
edge $-1 -1 $-1 $178 0 $148 3.1415926535897931 $101 $180 forward @7 unknown #
vertex $-1 -1 $-1 $147 $181 #
ellipse-curve $-1 -1 $-1 0.25 -1.2246063538223771e-017 1.75 0 1 0 -0.15000000000000002 0 0 1 I I #
ellipse-curve $-1 -1 $-1 3.4694469519536142e-018 2.4286128663675299e-017 1.75 0 0 1 -0.099999999999999992 -2.4286128663675299e-017 0 1 I I #
point $-1 -1 $-1 0.099999999999999992 -1.2246063538223771e-017 1.75 #
plane-surface $-1 -1 $-1 2.0999999999999996 0 0 -1 0 0 0 0 1 forward_v I I I I #
coedge $-1 -1 $-1 $116 $114 $118 $157 reversed $78 $-1 #
edge $-1 -1 $-1 $129 -1.45 $159 1.45 $128 $182 forward @7 unknown #
vertex $-1 -1 $-1 $157 $183 #
straight-curve $-1 -1 $-1 -2.0999999999999996 -0.89999999999999991 0 0 0 -1 I I #
edge $-1 -1 $-1 $155 -0.89999999999999991 $159 0.89999999999999991 $153 $184 forward @7 unknown #
straight-curve $-1 -1 $-1 0 -0.89999999999999991 -1.45 -1 0 0 I I #
vertex $-1 -1 $-1 $121 $185 #
straight-curve $-1 -1 $-1 0 0.89999999999999991 -1.45 1 0 0 I I #
point $-1 -1 $-1 2.0999999999999996 0.89999999999999991 -1.45 #
point $-1 -1 $-1 2.0999999999999996 -0.89999999999999991 -1.45 #
straight-curve $-1 -1 $-1 -2.0999999999999996 0 1.45 0 -1 0 I I #
point $-1 -1 $-1 -2.0999999999999996 0.89999999999999991 1.45 #
point $-1 -1 $-1 -2.0999999999999996 -0.89999999999999991 1.45 #
straight-curve $-1 -1 $-1 2.0999999999999996 -0.89999999999999991 0 0 0 -1 I I #
straight-curve $-1 -1 $-1 2.0999999999999996 0.89999999999999991 0 0 0 -1 I I #
model_id-kcp-attrib $-1 -1 $-1 $-1 $139 1 1021520996 1021520996 2146893825 9 #
face $186 -1 $-1 $187 $188 $6 $-1 $189 forward single #
loop $-1 -1 $-1 $-1 $190 $139 #
cone-surface $-1 -1 $-1 1.3200000000000001 0 2 -1 0 0 0 0 6.9230769230769171 1 I I -0.98972835684395377 0.14296076265523788 6.9230769230769171 forward I I I I #
coedge $-1 -1 $-1 $146 $191 $192 $193 reversed $140 $-1 #
coedge $-1 -1 $-1 $192 $142 $143 $177 forward $98 $-1 #
coedge $-1 -1 $-1 $142 $192 $194 $195 reversed $98 $-1 #
coedge $-1 -1 $-1 $191 $146 $142 $176 forward $140 $-1 #
edge $-1 -1 $-1 $148 0 $196 0.084444444444444433 $175 $197 forward @7 unknown #
edge $-1 -1 $-1 $148 0 $178 3.1415926535897931 $143 $198 forward @7 unknown #
vertex $-1 -1 $-1 $145 $199 #
ellipse-curve $-1 -1 $-1 0.25 0 1.75 0 1 0 -0.34999999999999998 0 0 1 I I #
ellipse-curve $-1 -1 $-1 0.25 0 2 1 0 0 0 0 0.10000000000000009 1 I I #
point $-1 -1 $-1 0.25 -1.2246063538223771e-017 1.8999999999999999 #
straight-curve $-1 -1 $-1 -2.0999999999999996 0.89999999999999991 0 0 0 -1 I I #
point $-1 -1 $-1 -2.0999999999999996 -0.89999999999999991 -1.45 #
straight-curve $-1 -1 $-1 -2.0999999999999996 0 -1.45 0 1 0 I I #
point $-1 -1 $-1 -2.0999999999999996 0.89999999999999991 -1.45 #
model_id-kcp-attrib $-1 -1 $-1 $-1 $169 1 1021520996 1021520996 2146893825 10 #
face $200 -1 $-1 $201 $202 $6 $-1 $203 forward single #
loop $-1 -1 $-1 $-1 $204 $169 #
cone-surface $-1 -1 $-1 1.3200000000000001 0 2 -1 0 0 0 0 6.9230769230769171 1 I I -0.98972835684395377 0.14296076265523788 6.9230769230769171 forward I I I I #
coedge $-1 -1 $-1 $205 $206 $207 $208 reversed $170 $-1 #
coedge $-1 -1 $-1 $172 $175 $206 $209 reversed $140 $-1 #
coedge $-1 -1 $-1 $174 $173 $172 $193 forward $98 $-1 #
edge $-1 -1 $-1 $178 0 $210 0.084444444444444322 $172 $211 forward @7 unknown #
coedge $-1 -1 $-1 $204 $207 $174 $195 forward $188 $-1 #
edge $-1 -1 $-1 $196 0 $210 3.141592653589802 $174 $212 forward @7 unknown #
vertex $-1 -1 $-1 $209 $213 #
straight-curve $-1 -1 $-1 0.25 -1.2246063538223771e-017 1.8999999999999999 1 0 0 I I #
ellipse-curve $-1 -1 $-1 0.25 0 2 1 0 0 0 -1.2246063538223771e-017 -0.10000000000000009 1 I I #
point $-1 -1 $-1 0.25 0 2.1000000000000001 #
model_id-kcp-attrib $-1 -1 $-1 $-1 $187 1 1021520996 1021520996 2146893825 11 #
face $214 -1 $-1 $215 $216 $6 $-1 $217 forward single #
loop $-1 -1 $-1 $-1 $218 $187 #
cone-surface $-1 -1 $-1 0.074999999999999997 0 2 1 0 0 0 0 0.89999999999999991 1 I I 0 1 0.89999999999999991 forward I I I I #
coedge $-1 -1 $-1 $219 $194 $220 $221 reversed $188 $-1 #
coedge $-1 -1 $-1 $220 $190 $222 $223 forward $170 $-1 #
coedge $-1 -1 $-1 $190 $220 $191 $209 forward $170 $-1 #
coedge $-1 -1 $-1 $194 $219 $190 $208 forward $188 $-1 #
edge $-1 -1 $-1 $224 -4.3159176744114137e-016 $196 0.80830259582643482 $207 $225 forward @7 unknown #
edge $-1 -1 $-1 $210 0 $196 3.1415926535898016 $191 $226 forward @7 unknown #
vertex $-1 -1 $-1 $209 $227 #
straight-curve $-1 -1 $-1 0.25 0 2.1000000000000001 1 0 0 I I #
ellipse-curve $-1 -1 $-1 0.33444444444444443 4.4755865680201623e-016 1.9999999999999996 1 0 0 0 -4.3531259326379248e-016 -0.099999999999999201 1 I I #
point $-1 -1 $-1 0.33444444444444443 1.2246063538223753e-017 1.9000000000000004 #
model_id-kcp-attrib $-1 -1 $-1 $-1 $201 1 1021520996 1021520996 2146893825 12 #
face $228 -1 $-1 $229 $230 $6 $-1 $231 forward single #
loop $-1 -1 $-1 $-1 $232 $201 #
cone-surface $-1 -1 $-1 0.074999999999999997 0 2 1 0 0 0 0 0.89999999999999991 1 I I 0 1 0.89999999999999991 forward I I I I #
coedge $-1 -1 $-1 $233 $234 $219 $235 forward $202 $-1 #
coedge $-1 -1 $-1 $207 $204 $218 $235 reversed $188 $-1 #
coedge $-1 -1 $-1 $206 $205 $204 $221 forward $170 $-1 #
edge $-1 -1 $-1 $236 0 $210 0.80830259582643482 $204 $237 forward @7 unknown #
coedge $-1 -1 $-1 $238 $239 $205 $223 reversed $216 $-1 #
edge $-1 -1 $-1 $224 -1.5217224251948557e-032 $236 3.1415926535897931 $222 $240 forward @7 unknown #
vertex $-1 -1 $-1 $241 $242 #
straight-curve $-1 -1 $-1 0.45000000000000007 1.1021457184401387e-016 1.1000000000000005 -0.14296076265523788 -1.2120276343492866e-016 0.98972835684395377 I I #
ellipse-curve $-1 -1 $-1 0.33444444444444443 -4.4408920985006262e-016 1.9999999999999996 1 4.6584634236082301e-030 1.1102230246251654e-015 -1.1102230246251565e-016 4.195970827736155e-016 0.099999999999999201 1 I I #
point $-1 -1 $-1 0.33444444444444432 -2.4492127076447111e-017 2.0999999999999988 #
model_id-kcp-attrib $-1 -1 $-1 $-1 $215 1 1021520996 1021520996 2146893825 13 #
face $243 -1 $-1 $244 $245 $6 $-1 $246 forward single #
loop $-1 -1 $-1 $-1 $247 $215 #
cone-surface $-1 -1 $-1 0.24999999999999956 0 2 1 0 0 0 0 2.999999999999996 1 I I -0.94868329805051366 0.31622776601683833 2.999999999999996 forward I I I I #
coedge $-1 -1 $-1 $239 $238 $248 $249 forward $216 $-1 #
coedge $-1 -1 $-1 $250 $218 $239 $251 reversed $202 $-1 #
coedge $-1 -1 $-1 $218 $250 $238 $241 forward $202 $-1 #
edge $-1 -1 $-1 $224 5.326028488181995e-032 $236 3.1415926535897931 $218 $252 forward @7 unknown #
vertex $-1 -1 $-1 $251 $253 #
straight-curve $-1 -1 $-1 0.44999999999999996 -2.2042914368802735e-016 2.8999999999999986 -0.14296076265523788 2.4240552686985731e-016 -0.98972835684395377 I I #
coedge $-1 -1 $-1 $232 $222 $234 $241 reversed $216 $-1 #
coedge $-1 -1 $-1 $222 $232 $233 $251 forward $216 $-1 #
ellipse-curve $-1 -1 $-1 0.45000000000000007 0 1.9999999999999996 -1 0 0 0 1.1021457184401387e-016 -0.89999999999999902 1 I I #
edge $-1 -1 $-1 $254 3.3306690738754696e-016 $224 0.49999999999999994 $234 $255 forward @7 unknown #
point $-1 -1 $-1 0.45000000000000001 1.1021457184401395e-016 1.1000000000000001 #
model_id-kcp-attrib $-1 -1 $-1 $-1 $229 1 1021520996 1021520996 2146893825 14 #
face $256 -1 $-1 $257 $258 $6 $-1 $259 forward single #
loop $-1 -1 $-1 $-1 $260 $229 #
cone-surface $-1 -1 $-1 0.074999999999999997 0 2 1 0 0 0 0 0.75 1 I I 0 1 0.75 forward I I I I #
coedge $-1 -1 $-1 $261 $262 $263 $264 forward $230 $-1 #
coedge $-1 -1 $-1 $262 $261 $232 $249 reversed $230 $-1 #
edge $-1 -1 $-1 $254 -3.0434448503897113e-032 $265 3.1415926535897931 $248 $266 forward @7 unknown #
coedge $-1 -1 $-1 $234 $233 $267 $268 reversed $202 $-1 #
edge $-1 -1 $-1 $265 0 $236 0.5 $233 $269 forward @7 unknown #
ellipse-curve $-1 -1 $-1 0.45000000000000007 5.5511151231257827e-017 1.9999999999999996 1 0 0 0 5.4703420612756047e-017 -0.89999999999999902 1 I I #
point $-1 -1 $-1 0.44999999999999996 -2.2042914368802735e-016 2.8999999999999986 #
vertex $-1 -1 $-1 $270 $271 #
straight-curve $-1 -1 $-1 0.94999999999999996 1.1021457184401395e-016 1.1000000000000001 -1 0 0 I I #
model_id-kcp-attrib $-1 -1 $-1 $-1 $244 1 1021520996 1021520996 2146893825 15 #
face $272 -1 $-1 $273 $274 $6 $-1 $275 forward single #
loop $-1 -1 $-1 $-1 $276 $244 #
cone-surface $-1 -1 $-1 0.074999999999999997 0 2 1 0 0 0 0 0.75 1 I I 0 1 0.75 forward I I I I #
coedge $-1 -1 $-1 $263 $277 $278 $279 forward $245 $-1 #
coedge $-1 -1 $-1 $248 $247 $280 $281 forward $230 $-1 #
coedge $-1 -1 $-1 $247 $248 $282 $270 reversed $230 $-1 #
coedge $-1 -1 $-1 $283 $260 $247 $264 reversed $245 $-1 #
edge $-1 -1 $-1 $284 0 $285 3.1415926535897927 $263 $286 forward @7 unknown #
vertex $-1 -1 $-1 $281 $287 #
ellipse-curve $-1 -1 $-1 0.94999999999999996 -2.7755575615628914e-017 2 -1 0 0 0 1.3797014745964286e-016 -0.89999999999999991 1 I I #
coedge $-1 -1 $-1 $280 $282 $250 $268 forward $274 $-1 #
edge $-1 -1 $-1 $254 -9.8911957637665623e-032 $265 3.1415926535897931 $267 $288 forward @7 unknown #
straight-curve $-1 -1 $-1 0.94999999999999996 -2.204291436880279e-016 2.8999999999999999 -1 0 0 I I #
edge $-1 -1 $-1 $284 0 $254 0.15811388300841894 $282 $289 forward @7 unknown #
point $-1 -1 $-1 0.94999999999999962 1.1021457184401378e-016 1.1000000000000014 #
model_id-kcp-attrib $-1 -1 $-1 $-1 $257 1 1021520996 1021520996 2146893825 16 #
face $290 -1 $-1 $291 $292 $6 $-1 $293 reversed single #
loop $-1 -1 $-1 $-1 $267 $257 #
cone-surface $-1 -1 $-1 0.24999999999999956 0 2 1 0 0 0 0 2.999999999999996 1 I I -0.94868329805051366 0.31622776601683833 2.999999999999996 forward I I I I #
coedge $-1 -1 $-1 $294 $295 $283 $296 forward $258 $-1 #
coedge $-1 -1 $-1 $260 $283 $297 $298 reversed $245 $-1 #
coedge $-1 -1 $-1 $295 $294 $260 $279 reversed $258 $-1 #
edge $-1 -1 $-1 $299 1.8364085935793797e-030 $285 0.17500000000000027 $278 $300 forward @7 unknown #
coedge $-1 -1 $-1 $301 $267 $261 $281 reversed $274 $-1 #
edge $-1 -1 $-1 $285 -4.2681092386050985e-032 $265 0.15811388300841964 $280 $302 forward @7 unknown #
coedge $-1 -1 $-1 $267 $301 $262 $270 forward $274 $-1 #
coedge $-1 -1 $-1 $277 $263 $276 $296 reversed $245 $-1 #
vertex $-1 -1 $-1 $303 $304 #
vertex $-1 -1 $-1 $279 $305 #
ellipse-curve $-1 -1 $-1 0.99999999999999956 1.9428902930940239e-016 2 -1 -2.0219589513365541e-032 -1.480297366166878e-016 1.1102230246251565e-016 -1.0244355277272425e-016 -0.74999999999999867 1 I I #
point $-1 -1 $-1 0.94999999999999996 -2.204291436880279e-016 2.8999999999999999 #
ellipse-curve $-1 -1 $-1 0.94999999999999996 5.5511151231257827e-017 2 1 0 0 0 5.4703420612756121e-017 -0.89999999999999991 1 I I #
straight-curve $-1 -1 $-1 0.99999999999999967 9.1845476536678146e-017 1.2500000000000013 -0.31622776601683833 1.1617635945578257e-016 -0.94868329805051355 I I #
model_id-kcp-attrib $-1 -1 $-1 $-1 $273 1 1021520996 1021520996 2146893825 17 #
face $306 -1 $-1 $307 $308 $6 $-1 $309 forward single #
loop $-1 -1 $-1 $310 $311 $273 #
plane-surface $-1 -1 $-1 1.1749999999999998 0 2 -1 0 0 0 0 -1 forward_v I I I I #
coedge $-1 -1 $-1 $278 $276 $301 $303 forward $258 $-1 #
coedge $-1 -1 $-1 $276 $278 $312 $313 reversed $258 $-1 #
edge $-1 -1 $-1 $314 4.5910214839484493e-031 $284 0.17500000000000016 $276 $315 forward @7 unknown #
coedge $-1 -1 $-1 $312 $312 $277 $298 forward $310 $-1 #
edge $-1 -1 $-1 $299 0 $314 3.1415926535897931 $277 $316 forward @7 unknown #
vertex $-1 -1 $-1 $313 $317 #
straight-curve $-1 -1 $-1 1.1749999999999998 4.8244286170173734e-016 2.75 -1 -3.8064789415719667e-015 0 I I #
coedge $-1 -1 $-1 $282 $280 $294 $303 reversed $274 $-1 #
straight-curve $-1 -1 $-1 0.99999999999999956 -1.8369095307335639e-016 2.7499999999999991 -0.3162277660168375 -2.3235271891156455e-016 0.94868329805051388 I I #
edge $-1 -1 $-1 $284 0 $285 3.1415926535897922 $294 $318 forward @7 unknown #
point $-1 -1 $-1 0.99999999999999967 9.1845476536678146e-017 1.2500000000000013 #
point $-1 -1 $-1 0.99999999999999956 0 2.7499999999999991 #
model_id-kcp-attrib $-1 -1 $-1 $-1 $291 1 1021520996 1021520996 2146893825 18 #
face $319 -1 $-1 $320 $321 $6 $-1 $322 forward single #
loop $-1 -1 $-1 $-1 $323 $291 #
cone-surface $-1 -1 $-1 1.4375 0 2 -1 0 0 0 0 -0.73999999999999999 1 I I 0 1 0.73999999999999999 forward I I I I #
loop $-1 -1 $-1 $-1 $297 $273 #
coedge $-1 -1 $-1 $324 $324 $325 $326 forward $292 $-1 #
coedge $-1 -1 $-1 $297 $297 $295 $313 forward $310 $-1 #
edge $-1 -1 $-1 $314 0 $299 3.1415926535897931 $295 $327 forward @7 unknown #
vertex $-1 -1 $-1 $313 $328 #
straight-curve $-1 -1 $-1 1.1749999999999998 -2.4122143085086867e-016 1.25 -1 1.9032394707859834e-015 0 I I #
ellipse-curve $-1 -1 $-1 1.1749999999999998 -5.5511151231257827e-017 2 1 0 0 0 5.5511151231257827e-017 0.75 1 I I #
point $-1 -1 $-1 1.1749999999999998 0 2.75 #
ellipse-curve $-1 -1 $-1 0.99999999999999956 -2.7755575615628914e-016 2 1 -7.2909822908559799e-032 1.480297366166878e-016 1.1102230246251565e-016 3.6940123269296728e-016 -0.74999999999999867 1 I I #
model_id-kcp-attrib $-1 -1 $-1 $-1 $307 1 1021520996 1021520996 2146893825 19 #
face $329 -1 $-1 $330 $331 $6 $-1 $332 forward single #
loop $-1 -1 $-1 $333 $334 $307 #
plane-surface $-1 -1 $-1 1.4249999999999998 0 2 -1 0 0 0 0 -1 forward_v I I I I #
coedge $-1 -1 $-1 $335 $336 $337 $338 forward $308 $-1 #
coedge $-1 -1 $-1 $311 $311 $339 $340 reversed $292 $-1 #
coedge $-1 -1 $-1 $336 $335 $311 $326 reversed $308 $-1 #
edge $-1 -1 $-1 $341 0 $342 3.1415926535897927 $311 $343 forward @7 unknown #
ellipse-curve $-1 -1 $-1 1.1749999999999998 5.5511151231257827e-017 2 1 0 0 0 -5.5511151231257827e-017 -0.75 1 I I #
point $-1 -1 $-1 1.1749999999999998 0 1.25 #
model_id-kcp-attrib $-1 -1 $-1 $-1 $320 1 1021520996 1021520996 2146893825 20 #
face $344 -1 $-1 $345 $346 $6 $-1 $347 forward single #
loop $-1 -1 $-1 $-1 $339 $320 #
cone-surface $-1 -1 $-1 1.4375 0 2 -1 0 0 0 0 -0.73999999999999999 1 I I 0 1 0.73999999999999999 forward I I I I #
loop $-1 -1 $-1 $-1 $348 $307 #
coedge $-1 -1 $-1 $337 $337 $349 $350 forward $321 $-1 #
coedge $-1 -1 $-1 $325 $323 $351 $352 reversed $308 $-1 #
coedge $-1 -1 $-1 $323 $325 $353 $354 forward $308 $-1 #
coedge $-1 -1 $-1 $334 $334 $323 $338 reversed $321 $-1 #
edge $-1 -1 $-1 $355 0 $356 3.1415926535897927 $323 $357 forward @7 unknown #
coedge $-1 -1 $-1 $351 $353 $324 $340 forward $331 $-1 #
edge $-1 -1 $-1 $341 0 $342 3.1415926535897927 $324 $358 forward @7 unknown #
vertex $-1 -1 $-1 $340 $359 #
vertex $-1 -1 $-1 $340 $360 #
ellipse-curve $-1 -1 $-1 1.1749999999999998 1.9428902930940239e-016 2 -1 0 0 0 -1.9428902930940239e-016 -0.73999999999999999 1 I I #
model_id-kcp-attrib $-1 -1 $-1 $-1 $330 1 1021520996 1021520996 2146893825 21 #
face $361 -1 $-1 $362 $363 $6 $-1 $364 forward single #
loop $-1 -1 $-1 $-1 $365 $330 #
cone-surface $-1 -1 $-1 0.074999999999999997 0 2 1 0 0 0 0 0.75 1 I I 0 1 0.75 forward I I I I #
coedge $-1 -1 $-1 $366 $366 $367 $368 reversed $333 $-1 #
coedge $-1 -1 $-1 $353 $351 $334 $350 reversed $331 $-1 #
edge $-1 -1 $-1 $355 0 $356 3.1415926535897927 $334 $369 forward @7 unknown #
coedge $-1 -1 $-1 $349 $339 $335 $352 forward $331 $-1 #
edge $-1 -1 $-1 $342 0 $356 0.25 $335 $370 forward @7 unknown #
coedge $-1 -1 $-1 $339 $349 $336 $354 reversed $331 $-1 #
edge $-1 -1 $-1 $341 0 $355 0.25 $336 $371 forward @7 unknown #
vertex $-1 -1 $-1 $354 $372 #
vertex $-1 -1 $-1 $352 $373 #
ellipse-curve $-1 -1 $-1 1.4249999999999998 1.9428902930940239e-016 2 -1 0 0 0 -1.9428902930940239e-016 -0.73999999999999999 1 I I #
ellipse-curve $-1 -1 $-1 1.1749999999999998 -1.9428902930940239e-016 2 1 0 0 0 1.9428902930940239e-016 -0.73999999999999999 1 I I #
point $-1 -1 $-1 1.1749999999999998 0 1.26 #
point $-1 -1 $-1 1.1749999999999998 9.0620870182855922e-017 2.7400000000000002 #
model_id-kcp-attrib $-1 -1 $-1 $-1 $345 1 1021520996 1021520996 2146893825 22 #
face $374 -1 $-1 $375 $376 $6 $-1 $377 reversed single #
loop $-1 -1 $-1 $-1 $378 $345 #
cone-surface $-1 -1 $-1 0.074999999999999997 0 2 1 0 0 0 0 0.75 1 I I 0 1 0.75 forward I I I I #
coedge $-1 -1 $-1 $367 $379 $380 $381 forward $346 $-1 #
coedge $-1 -1 $-1 $348 $348 $382 $383 reversed $333 $-1 #
coedge $-1 -1 $-1 $384 $365 $348 $368 forward $346 $-1 #
edge $-1 -1 $-1 $385 0 $386 3.1415926535897931 $367 $387 forward @7 unknown #
ellipse-curve $-1 -1 $-1 1.4249999999999998 -1.9428902930940239e-016 2 1 0 0 0 1.9428902930940239e-016 -0.73999999999999999 1 I I #
straight-curve $-1 -1 $-1 1.1749999999999998 9.0620870182855922e-017 2.7400000000000002 1 0 0 I I #
straight-curve $-1 -1 $-1 1.1749999999999998 0 1.26 1 0 0 I I #
point $-1 -1 $-1 1.4249999999999998 0 1.26 #
point $-1 -1 $-1 1.4249999999999998 0 2.7400000000000002 #
model_id-kcp-attrib $-1 -1 $-1 $-1 $362 1 1021520996 1021520996 2146893825 23 #
face $388 -1 $-1 $389 $390 $6 $-1 $391 forward single #
loop $-1 -1 $-1 $392 $393 $362 #
plane-surface $-1 -1 $-1 1.575 0 2 -1 0 0 0 0 -1 forward_v I I I I #
coedge $-1 -1 $-1 $382 $394 $384 $395 forward $363 $-1 #
coedge $-1 -1 $-1 $365 $384 $396 $397 reversed $346 $-1 #
coedge $-1 -1 $-1 $394 $382 $365 $381 reversed $363 $-1 #
edge $-1 -1 $-1 $398 2.1424766925092739e-030 $385 0.15000000000000013 $380 $399 forward @7 unknown #
coedge $-1 -1 $-1 $380 $378 $366 $383 forward $363 $-1 #
edge $-1 -1 $-1 $386 0 $385 3.1415926535897931 $382 $400 forward @7 unknown #
coedge $-1 -1 $-1 $379 $367 $378 $395 reversed $346 $-1 #
vertex $-1 -1 $-1 $381 $401 #
vertex $-1 -1 $-1 $383 $402 #
ellipse-curve $-1 -1 $-1 1.4249999999999998 -5.5511151231257827e-017 2 1 0 0 0 5.5511151231257827e-017 0.75 1 I I #
model_id-kcp-attrib $-1 -1 $-1 $-1 $375 1 1021520996 1021520996 2146893825 24 #
face $403 -1 $-1 $404 $405 $6 $-1 $406 forward single #
loop $-1 -1 $-1 $-1 $407 $375 #
cone-surface $-1 -1 $-1 1.8374999999999999 0 2 -1 0 0 0 0 -0.73999999999999999 1 I I 0 1 0.73999999999999999 forward I I I I #
loop $-1 -1 $-1 $-1 $396 $362 #
coedge $-1 -1 $-1 $408 $408 $409 $410 forward $376 $-1 #
coedge $-1 -1 $-1 $378 $380 $411 $412 reversed $363 $-1 #
edge $-1 -1 $-1 $413 5.3561917312731848e-031 $386 0.15000000000000013 $378 $414 forward @7 unknown #
coedge $-1 -1 $-1 $411 $411 $379 $397 forward $392 $-1 #
edge $-1 -1 $-1 $398 0 $413 3.1415926535897936 $379 $415 forward @7 unknown #
vertex $-1 -1 $-1 $412 $416 #
straight-curve $-1 -1 $-1 1.575 4.8244286170173734e-016 2.75 -1 -4.4408920985006222e-015 0 I I #
ellipse-curve $-1 -1 $-1 1.4249999999999998 5.5511151231257827e-017 2 1 0 0 0 -5.5511151231257827e-017 -0.75 1 I I #
point $-1 -1 $-1 1.4249999999999998 0 2.75 #
point $-1 -1 $-1 1.4249999999999998 0 1.25 #
model_id-kcp-attrib $-1 -1 $-1 $-1 $389 1 1021520996 1021520996 2146893825 25 #
face $417 -1 $-1 $418 $419 $6 $-1 $420 forward single #
loop $-1 -1 $-1 $421 $422 $389 #
plane-surface $-1 -1 $-1 1.825 0 2 -1 0 0 0 0 -1 forward_v I I I I #
coedge $-1 -1 $-1 $423 $424 $425 $426 forward $390 $-1 #
coedge $-1 -1 $-1 $393 $393 $427 $428 reversed $376 $-1 #
coedge $-1 -1 $-1 $424 $423 $393 $410 reversed $390 $-1 #
edge $-1 -1 $-1 $429 0 $430 3.1415926535897927 $393 $431 forward @7 unknown #
coedge $-1 -1 $-1 $396 $396 $394 $412 forward $392 $-1 #
edge $-1 -1 $-1 $413 0 $398 3.1415926535897931 $394 $432 forward @7 unknown #
vertex $-1 -1 $-1 $412 $433 #
straight-curve $-1 -1 $-1 1.575 -2.4122143085086867e-016 1.25 -1 2.2204460492503111e-015 0 I I #
ellipse-curve $-1 -1 $-1 1.575 -1.3877787807814457e-016 1.9999999999999998 1 0 0 0 1.3877787807814457e-016 0.75000000000000022 1 I I #
point $-1 -1 $-1 1.575 0 2.75 #
model_id-kcp-attrib $-1 -1 $-1 $-1 $404 1 1021520996 1021520996 2146893825 26 #
face $434 -1 $-1 $435 $436 $6 $-1 $437 forward single #
loop $-1 -1 $-1 $-1 $427 $404 #
cone-surface $-1 -1 $-1 1.8374999999999999 0 2 -1 0 0 0 0 -0.73999999999999999 1 I I 0 1 0.73999999999999999 forward I I I I #
loop $-1 -1 $-1 $-1 $438 $389 #
coedge $-1 -1 $-1 $425 $425 $439 $440 forward $405 $-1 #
coedge $-1 -1 $-1 $409 $407 $441 $442 reversed $390 $-1 #
coedge $-1 -1 $-1 $407 $409 $443 $444 forward $390 $-1 #
coedge $-1 -1 $-1 $422 $422 $407 $426 reversed $405 $-1 #
edge $-1 -1 $-1 $445 0 $446 3.1415926535897927 $407 $447 forward @7 unknown #
coedge $-1 -1 $-1 $441 $443 $408 $428 forward $419 $-1 #
edge $-1 -1 $-1 $429 0 $430 3.1415926535897927 $408 $448 forward @7 unknown #
vertex $-1 -1 $-1 $428 $449 #
vertex $-1 -1 $-1 $428 $450 #
ellipse-curve $-1 -1 $-1 1.575 1.9428902930940239e-016 2 -1 7.8781648565146251e-032 3.0006027692571798e-016 -2.2204460492503131e-016 -1.9428902930940239e-016 -0.73999999999999999 1 I I #
ellipse-curve $-1 -1 $-1 1.575 5.5511151231257827e-017 2 1 0 0 0 -5.5511151231257827e-017 -0.75 1 I I #
point $-1 -1 $-1 1.575 0 1.25 #
model_id-kcp-attrib $-1 -1 $-1 $-1 $418 1 1021520996 1021520996 2146893825 27 #
face $451 -1 $-1 $452 $453 $6 $-1 $454 forward single #
loop $-1 -1 $-1 $-1 $455 $418 #
cone-surface $-1 -1 $-1 0.074999999999999997 0 2 1 0 0 0 0 0.75 1 I I 0 1 0.75 forward I I I I #
coedge $-1 -1 $-1 $456 $456 $457 $458 reversed $421 $-1 #
coedge $-1 -1 $-1 $443 $441 $422 $440 reversed $419 $-1 #
edge $-1 -1 $-1 $445 0 $446 3.1415926535897927 $422 $459 forward @7 unknown #
coedge $-1 -1 $-1 $439 $427 $423 $442 forward $419 $-1 #
edge $-1 -1 $-1 $430 0 $446 0.25000000000000022 $423 $460 forward @7 unknown #
coedge $-1 -1 $-1 $427 $439 $424 $444 reversed $419 $-1 #
edge $-1 -1 $-1 $429 0 $445 0.25 $424 $461 forward @7 unknown #
vertex $-1 -1 $-1 $444 $462 #
vertex $-1 -1 $-1 $442 $463 #
ellipse-curve $-1 -1 $-1 1.825 1.9428902930940239e-016 2 -1 0 0 0 -1.9428902930940239e-016 -0.73999999999999999 1 I I #
ellipse-curve $-1 -1 $-1 1.575 -1.9428902930940239e-016 2 1 7.8781648565146251e-032 -3.0006027692571798e-016 -2.2204460492503131e-016 1.9428902930940239e-016 -0.73999999999999999 1 I I #
point $-1 -1 $-1 1.5749999999999997 0 1.26 #
point $-1 -1 $-1 1.5749999999999997 9.0620870182855922e-017 2.7400000000000002 #
model_id-kcp-attrib $-1 -1 $-1 $-1 $435 1 1021520996 1021520996 2146893825 28 #
face $464 -1 $-1 $465 $466 $6 $-1 $467 reversed single #
loop $-1 -1 $-1 $-1 $468 $435 #
cone-surface $-1 -1 $-1 0.074999999999999997 0 2 1 0 0 0 0 0.75 1 I I 0 1 0.75 forward I I I I #
coedge $-1 -1 $-1 $469 $457 $470 $471 reversed $436 $-1 #
coedge $-1 -1 $-1 $438 $438 $472 $473 reversed $421 $-1 #
coedge $-1 -1 $-1 $455 $474 $438 $458 forward $436 $-1 #
edge $-1 -1 $-1 $475 0 $476 3.1415926535897931 $457 $477 forward @7 unknown #
ellipse-curve $-1 -1 $-1 1.825 -1.9428902930940239e-016 2 1 0 0 0 1.9428902930940239e-016 -0.73999999999999999 1 I I #
straight-curve $-1 -1 $-1 1.5749999999999997 9.0620870182855922e-017 2.7400000000000002 1 0 0 I I #
straight-curve $-1 -1 $-1 1.5749999999999997 0 1.26 1 0 0 I I #
point $-1 -1 $-1 1.8249999999999997 0 1.26 #
point $-1 -1 $-1 1.825 0 2.7400000000000002 #
model_id-kcp-attrib $-1 -1 $-1 $-1 $452 1 1021520996 1021520996 2146893825 29 #
face $478 -1 $-1 $479 $480 $6 $-1 $481 forward single #
loop $-1 -1 $-1 $482 $483 $452 #
plane-surface $-1 -1 $-1 1.9749999999999999 0 2 -1 0 0 0 0 -1 forward_v I I I I #
coedge $-1 -1 $-1 $484 $472 $474 $485 reversed $453 $-1 #
coedge $-1 -1 $-1 $474 $455 $486 $487 reversed $436 $-1 #
coedge $-1 -1 $-1 $472 $484 $455 $471 forward $453 $-1 #
edge $-1 -1 $-1 $488 0 $476 0.14999999999999991 $470 $489 forward @7 unknown #
coedge $-1 -1 $-1 $468 $470 $456 $473 forward $453 $-1 #
edge $-1 -1 $-1 $476 0 $475 3.1415926535897931 $472 $490 forward @7 unknown #
coedge $-1 -1 $-1 $457 $469 $468 $485 forward $436 $-1 #
vertex $-1 -1 $-1 $473 $491 #
vertex $-1 -1 $-1 $473 $492 #
ellipse-curve $-1 -1 $-1 1.825 -5.5511151231257827e-017 2 1 0 0 0 5.5511151231257827e-017 0.75 1 I I #
model_id-kcp-attrib $-1 -1 $-1 $-1 $465 1 1021520996 1021520996 2146893825 30 #
face $493 -1 $-1 $494 $495 $6 $-1 $496 forward single #
loop $-1 -1 $-1 $-1 $497 $465 #
cone-surface $-1 -1 $-1 2.2374999999999998 0 2 -1 0 0 0 0 -0.73999999999999999 1 I I 0 1 0.73999999999999999 forward I I I I #
loop $-1 -1 $-1 $-1 $486 $452 #
coedge $-1 -1 $-1 $498 $498 $499 $500 forward $466 $-1 #
coedge $-1 -1 $-1 $470 $468 $501 $502 reversed $453 $-1 #
edge $-1 -1 $-1 $503 0 $475 0.14999999999999991 $468 $504 forward @7 unknown #
coedge $-1 -1 $-1 $501 $501 $469 $487 forward $482 $-1 #
edge $-1 -1 $-1 $503 0 $488 3.1415926535897931 $469 $505 forward @7 unknown #
vertex $-1 -1 $-1 $471 $506 #
straight-curve $-1 -1 $-1 1.9749999999999999 9.1845476536678294e-017 1.25 -1 0 0 I I #
ellipse-curve $-1 -1 $-1 1.825 5.5511151231257827e-017 2 1 0 0 0 -5.5511151231257827e-017 -0.75 1 I I #
point $-1 -1 $-1 1.825 0 2.75 #
point $-1 -1 $-1 1.825 0 1.25 #
model_id-kcp-attrib $-1 -1 $-1 $-1 $479 1 1021520996 1021520996 2146893825 31 #
face $507 -1 $-1 $508 $509 $6 $-1 $510 forward single #
loop $-1 -1 $-1 $511 $512 $479 #
plane-surface $-1 -1 $-1 2.2249999999999996 0 2 -1 0 0 0 0 -1 forward_v I I I I #
coedge $-1 -1 $-1 $513 $514 $515 $516 forward $480 $-1 #
coedge $-1 -1 $-1 $483 $483 $517 $518 reversed $466 $-1 #
coedge $-1 -1 $-1 $514 $513 $483 $500 reversed $480 $-1 #
edge $-1 -1 $-1 $519 0 $520 3.1415926535897927 $483 $521 forward @7 unknown #
coedge $-1 -1 $-1 $486 $486 $484 $502 forward $482 $-1 #
edge $-1 -1 $-1 $488 1.2246063538223773e-016 $503 3.1415926535897931 $484 $522 forward @7 unknown #
vertex $-1 -1 $-1 $502 $523 #
straight-curve $-1 -1 $-1 1.9749999999999999 -1.8369095307335659e-016 2.75 -1 0 0 I I #
ellipse-curve $-1 -1 $-1 1.9749999999999999 -5.5511151231257827e-017 2 1 0 0 0 5.5511151231257827e-017 0.75 1 I I #
point $-1 -1 $-1 1.9749999999999999 9.1845476536678294e-017 1.25 #
model_id-kcp-attrib $-1 -1 $-1 $-1 $494 1 1021520996 1021520996 2146893825 32 #
face $524 -1 $-1 $525 $526 $6 $-1 $527 forward single #
loop $-1 -1 $-1 $-1 $517 $494 #
cone-surface $-1 -1 $-1 2.2374999999999998 0 2 -1 0 0 0 0 -0.73999999999999999 1 I I 0 1 0.73999999999999999 forward I I I I #
loop $-1 -1 $-1 $-1 $528 $479 #
coedge $-1 -1 $-1 $515 $515 $529 $530 forward $495 $-1 #
coedge $-1 -1 $-1 $499 $497 $531 $532 reversed $480 $-1 #
coedge $-1 -1 $-1 $497 $499 $533 $534 forward $480 $-1 #
coedge $-1 -1 $-1 $512 $512 $497 $516 reversed $495 $-1 #
edge $-1 -1 $-1 $535 0 $536 3.1415926535897927 $497 $537 forward @7 unknown #
coedge $-1 -1 $-1 $531 $533 $498 $518 forward $509 $-1 #
edge $-1 -1 $-1 $519 0 $520 3.1415926535897927 $498 $538 forward @7 unknown #
vertex $-1 -1 $-1 $518 $539 #
vertex $-1 -1 $-1 $518 $540 #
ellipse-curve $-1 -1 $-1 1.9749999999999999 1.9428902930940239e-016 2 -1 7.8781648565146251e-032 3.0006027692571798e-016 -2.2204460492503131e-016 -1.9428902930940239e-016 -0.73999999999999999 1 I I #
ellipse-curve $-1 -1 $-1 1.9749999999999999 5.5511151231257827e-017 2 1 0 0 0 -5.5511151231257827e-017 -0.75 1 I I #
point $-1 -1 $-1 1.9749999999999999 0 2.75 #
model_id-kcp-attrib $-1 -1 $-1 $-1 $508 1 1021520996 1021520996 2146893825 33 #
face $541 -1 $-1 $542 $543 $6 $-1 $544 forward single #
loop $-1 -1 $-1 $-1 $545 $508 #
cone-surface $-1 -1 $-1 0.074999999999999997 0 2 1 0 0 0 0 0.75 1 I I 0 1 0.75 forward I I I I #
coedge $-1 -1 $-1 $546 $546 $547 $548 reversed $511 $-1 #
coedge $-1 -1 $-1 $533 $531 $512 $530 reversed $509 $-1 #
edge $-1 -1 $-1 $535 0 $536 3.1415926535897927 $512 $549 forward @7 unknown #
coedge $-1 -1 $-1 $529 $517 $513 $532 forward $509 $-1 #
edge $-1 -1 $-1 $520 0 $536 0.25 $513 $550 forward @7 unknown #
coedge $-1 -1 $-1 $517 $529 $514 $534 reversed $509 $-1 #
edge $-1 -1 $-1 $519 0 $535 0.25 $514 $551 forward @7 unknown #
vertex $-1 -1 $-1 $534 $552 #
vertex $-1 -1 $-1 $532 $553 #
ellipse-curve $-1 -1 $-1 2.2249999999999996 1.9428902930940239e-016 2 -1 0 0 0 -1.9428902930940239e-016 -0.73999999999999999 1 I I #
ellipse-curve $-1 -1 $-1 1.9749999999999999 -1.9428902930940239e-016 2 1 7.8781648565146251e-032 -3.0006027692571798e-016 -2.2204460492503131e-016 1.9428902930940239e-016 -0.73999999999999999 1 I I #
point $-1 -1 $-1 1.9749999999999996 0 1.26 #
point $-1 -1 $-1 1.9749999999999996 9.0620870182855922e-017 2.7400000000000002 #
model_id-kcp-attrib $-1 -1 $-1 $-1 $525 1 1021520996 1021520996 2146893825 34 #
face $554 -1 $-1 $555 $556 $6 $-1 $557 reversed single #
loop $-1 -1 $-1 $-1 $558 $525 #
cone-surface $-1 -1 $-1 0.074999999999999997 0 2 1 0 0 0 0 0.75 1 I I 0 1 0.75 forward I I I I #
coedge $-1 -1 $-1 $559 $547 $560 $561 reversed $526 $-1 #
coedge $-1 -1 $-1 $528 $528 $562 $563 reversed $511 $-1 #
coedge $-1 -1 $-1 $545 $564 $528 $548 forward $526 $-1 #
edge $-1 -1 $-1 $565 0 $566 3.1415926535897931 $547 $567 forward @7 unknown #
ellipse-curve $-1 -1 $-1 2.2249999999999996 -1.9428902930940239e-016 2 1 0 0 0 1.9428902930940239e-016 -0.73999999999999999 1 I I #
straight-curve $-1 -1 $-1 1.9749999999999996 9.0620870182855922e-017 2.7400000000000002 1 0 0 I I #
straight-curve $-1 -1 $-1 1.9749999999999996 0 1.26 1 0 0 I I #
point $-1 -1 $-1 2.2249999999999996 0 1.26 #
point $-1 -1 $-1 2.2249999999999996 0 2.7400000000000002 #
model_id-kcp-attrib $-1 -1 $-1 $-1 $542 1 1021520996 1021520996 2146893825 35 #
face $568 -1 $-1 $569 $570 $6 $-1 $571 forward single #
loop $-1 -1 $-1 $572 $573 $542 #
plane-surface $-1 -1 $-1 2.375 0 2 -1 0 0 0 0 -1 forward_v I I I I #
coedge $-1 -1 $-1 $574 $562 $564 $575 reversed $543 $-1 #
coedge $-1 -1 $-1 $564 $545 $576 $577 reversed $526 $-1 #
coedge $-1 -1 $-1 $562 $574 $545 $561 forward $543 $-1 #
edge $-1 -1 $-1 $578 0 $566 0.15000000000000036 $560 $579 forward @7 unknown #
coedge $-1 -1 $-1 $558 $560 $546 $563 forward $543 $-1 #
edge $-1 -1 $-1 $566 0 $565 3.1415926535897931 $562 $580 forward @7 unknown #
coedge $-1 -1 $-1 $547 $559 $558 $575 forward $526 $-1 #
vertex $-1 -1 $-1 $563 $581 #
vertex $-1 -1 $-1 $563 $582 #
ellipse-curve $-1 -1 $-1 2.2249999999999996 -5.5511151231257827e-017 2 1 0 0 0 5.5511151231257827e-017 0.75 1 I I #
model_id-kcp-attrib $-1 -1 $-1 $-1 $555 1 1021520996 1021520996 2146893825 36 #
face $583 -1 $-1 $584 $585 $6 $-1 $586 forward single #
loop $-1 -1 $-1 $-1 $587 $555 #
cone-surface $-1 -1 $-1 2.6374999999999997 0 2 -1 0 0 0 0 -0.73999999999999999 1 I I 0 1 0.73999999999999999 forward I I I I #
loop $-1 -1 $-1 $-1 $576 $542 #
coedge $-1 -1 $-1 $588 $588 $589 $590 forward $556 $-1 #
coedge $-1 -1 $-1 $560 $558 $591 $592 reversed $543 $-1 #
edge $-1 -1 $-1 $593 0 $565 0.15000000000000036 $558 $594 forward @7 unknown #
coedge $-1 -1 $-1 $591 $591 $559 $577 forward $572 $-1 #
edge $-1 -1 $-1 $593 2.4492127076447545e-016 $578 3.1415926535897931 $559 $595 forward @7 unknown #
vertex $-1 -1 $-1 $561 $596 #
straight-curve $-1 -1 $-1 2.375 9.1845476536678294e-017 1.25 -1 0 0 I I #
ellipse-curve $-1 -1 $-1 2.2249999999999996 5.5511151231257827e-017 2 1 0 0 0 -5.5511151231257827e-017 -0.75 1 I I #
point $-1 -1 $-1 2.2249999999999996 0 2.75 #
point $-1 -1 $-1 2.2249999999999996 0 1.25 #
model_id-kcp-attrib $-1 -1 $-1 $-1 $569 1 1021520996 1021520996 2146893825 37 #
face $597 -1 $-1 $598 $599 $6 $-1 $600 forward single #
loop $-1 -1 $-1 $601 $602 $569 #
plane-surface $-1 -1 $-1 2.625 0 2 -1 0 0 0 0 -1 forward_v I I I I #
coedge $-1 -1 $-1 $603 $604 $605 $606 forward $570 $-1 #
coedge $-1 -1 $-1 $573 $573 $607 $608 reversed $556 $-1 #
coedge $-1 -1 $-1 $604 $603 $573 $590 reversed $570 $-1 #
edge $-1 -1 $-1 $609 0 $610 3.1415926535897927 $573 $611 forward @7 unknown #
coedge $-1 -1 $-1 $576 $576 $574 $592 forward $572 $-1 #
edge $-1 -1 $-1 $578 1.2246063538223773e-016 $593 3.1415926535897936 $574 $612 forward @7 unknown #
vertex $-1 -1 $-1 $592 $613 #
straight-curve $-1 -1 $-1 2.375 -1.8369095307335659e-016 2.75 -1 0 0 I I #
ellipse-curve $-1 -1 $-1 2.375 -5.5511151231257827e-017 2 1 0 0 0 5.5511151231257827e-017 0.75 1 I I #
point $-1 -1 $-1 2.375 9.1845476536678294e-017 1.25 #
model_id-kcp-attrib $-1 -1 $-1 $-1 $584 1 1021520996 1021520996 2146893825 38 #
face $614 -1 $-1 $615 $616 $6 $-1 $617 forward single #
loop $-1 -1 $-1 $-1 $607 $584 #
cone-surface $-1 -1 $-1 2.6374999999999997 0 2 -1 0 0 0 0 -0.73999999999999999 1 I I 0 1 0.73999999999999999 forward I I I I #
loop $-1 -1 $-1 $-1 $618 $569 #
coedge $-1 -1 $-1 $605 $605 $619 $620 forward $585 $-1 #
coedge $-1 -1 $-1 $589 $587 $621 $622 reversed $570 $-1 #
coedge $-1 -1 $-1 $587 $589 $623 $624 forward $570 $-1 #
coedge $-1 -1 $-1 $602 $602 $587 $606 reversed $585 $-1 #
edge $-1 -1 $-1 $625 0 $626 3.1415926535897927 $587 $627 forward @7 unknown #
coedge $-1 -1 $-1 $621 $623 $588 $608 forward $599 $-1 #
edge $-1 -1 $-1 $609 0 $610 3.1415926535897927 $588 $628 forward @7 unknown #
vertex $-1 -1 $-1 $608 $629 #
vertex $-1 -1 $-1 $608 $630 #
ellipse-curve $-1 -1 $-1 2.375 1.9428902930940239e-016 2 -1 1.575632971302925e-031 6.0012055385143595e-016 -4.4408920985006262e-016 -1.9428902930940239e-016 -0.73999999999999999 1 I I #
ellipse-curve $-1 -1 $-1 2.375 5.5511151231257827e-017 2 1 0 0 0 -5.5511151231257827e-017 -0.75 1 I I #
point $-1 -1 $-1 2.375 -1.8369095307335659e-016 2.75 #
model_id-kcp-attrib $-1 -1 $-1 $-1 $598 1 1021520996 1021520996 2146893825 39 #
face $631 -1 $-1 $632 $633 $6 $-1 $634 forward single #
loop $-1 -1 $-1 $-1 $635 $598 #
cone-surface $-1 -1 $-1 0.074999999999999997 0 2 1 0 0 0 0 0.75 1 I I 0 1 0.75 forward I I I I #
coedge $-1 -1 $-1 $636 $636 $637 $638 reversed $601 $-1 #
coedge $-1 -1 $-1 $623 $621 $602 $620 reversed $599 $-1 #
edge $-1 -1 $-1 $625 0 $626 3.1415926535897927 $602 $639 forward @7 unknown #
coedge $-1 -1 $-1 $619 $607 $603 $622 forward $599 $-1 #
edge $-1 -1 $-1 $610 0 $626 0.25000000000000044 $603 $640 forward @7 unknown #
coedge $-1 -1 $-1 $607 $619 $604 $624 reversed $599 $-1 #
edge $-1 -1 $-1 $609 0 $625 0.25 $604 $641 forward @7 unknown #
vertex $-1 -1 $-1 $624 $642 #
vertex $-1 -1 $-1 $622 $643 #
ellipse-curve $-1 -1 $-1 2.625 1.9428902930940239e-016 2 -1 0 0 0 -1.9428902930940239e-016 -0.73999999999999999 1 I I #
ellipse-curve $-1 -1 $-1 2.375 -1.9428902930940239e-016 2 1 1.575632971302925e-031 -6.0012055385143595e-016 -4.4408920985006262e-016 1.9428902930940239e-016 -0.73999999999999999 1 I I #
point $-1 -1 $-1 2.3749999999999996 0 1.26 #
point $-1 -1 $-1 2.3749999999999996 9.0620870182855922e-017 2.7400000000000002 #
model_id-kcp-attrib $-1 -1 $-1 $-1 $615 1 1021520996 1021520996 2146893825 40 #
face $644 -1 $-1 $645 $646 $6 $-1 $647 forward single #
loop $-1 -1 $-1 $-1 $648 $615 #
cone-surface $-1 -1 $-1 3.75 0 2 -1 0 0 0 0 3.0000000000000089 1 I I -0.9486832980505141 0.31622776601683711 3.0000000000000089 forward I I I I #
coedge $-1 -1 $-1 $649 $650 $651 $652 forward $616 $-1 #
coedge $-1 -1 $-1 $618 $618 $653 $654 reversed $601 $-1 #
coedge $-1 -1 $-1 $650 $649 $618 $638 forward $616 $-1 #
edge $-1 -1 $-1 $655 2.4492127076447545e-016 $656 3.1415926535897931 $637 $657 forward @7 unknown #
ellipse-curve $-1 -1 $-1 2.625 -1.9428902930940239e-016 2 1 0 0 0 1.9428902930940239e-016 -0.73999999999999999 1 I I #
straight-curve $-1 -1 $-1 2.3749999999999996 9.0620870182855922e-017 2.7400000000000002 1 0 0 I I #
straight-curve $-1 -1 $-1 2.3749999999999996 0 1.26 1 0 0 I I #
point $-1 -1 $-1 2.6249999999999996 0 1.26 #
point $-1 -1 $-1 2.625 0 2.7400000000000002 #
model_id-kcp-attrib $-1 -1 $-1 $-1 $632 1 1021520996 1021520996 2146893825 41 #
face $658 -1 $-1 $659 $660 $6 $-1 $661 forward single #
loop $-1 -1 $-1 $-1 $662 $632 #
cone-surface $-1 -1 $-1 0.074999999999999997 0 2 1 0 0 0 0 0.89999999999999991 1 I I 0 1 0.89999999999999991 forward I I I I #
coedge $-1 -1 $-1 $663 $664 $665 $666 forward $633 $-1 #
coedge $-1 -1 $-1 $637 $635 $667 $668 forward $616 $-1 #
coedge $-1 -1 $-1 $635 $637 $669 $670 reversed $616 $-1 #
coedge $-1 -1 $-1 $664 $663 $635 $652 reversed $633 $-1 #
edge $-1 -1 $-1 $671 0 $672 3.1415926535897931 $651 $673 forward @7 unknown #
coedge $-1 -1 $-1 $667 $669 $636 $654 forward $674 $-1 #
edge $-1 -1 $-1 $656 1.2246063538223773e-016 $655 3.1415926535897936 $653 $675 forward @7 unknown #
vertex $-1 -1 $-1 $668 $676 #
vertex $-1 -1 $-1 $670 $677 #
ellipse-curve $-1 -1 $-1 2.625 -5.5511151231257827e-017 2 1 0 0 0 5.5511151231257827e-017 0.75 1 I I #
model_id-kcp-attrib $-1 -1 $-1 $-1 $645 1 1021520996 1021520996 2146893825 42 #
face $678 -1 $-1 $679 $680 $6 $-1 $681 forward single #
loop $-1 -1 $-1 $-1 $682 $645 #
cone-surface $-1 -1 $-1 2.6800000000000006 0 2 1 0 0 0 0 6.9230769230768754 1 I I -0.98972835684395366 0.14296076265523874 6.9230769230768754 forward I I I I #
coedge $-1 -1 $-1 $683 $684 $685 $686 forward $646 $-1 #
coedge $-1 -1 $-1 $651 $648 $687 $688 forward $633 $-1 #
coedge $-1 -1 $-1 $648 $651 $689 $690 reversed $633 $-1 #
coedge $-1 -1 $-1 $684 $683 $648 $666 reversed $646 $-1 #
edge $-1 -1 $-1 $691 -3.0434448503897064e-032 $692 3.1415926535897927 $665 $693 forward @7 unknown #
coedge $-1 -1 $-1 $694 $653 $649 $668 reversed $674 $-1 #
edge $-1 -1 $-1 $672 0 $655 0.375 $667 $695 forward @7 unknown #
coedge $-1 -1 $-1 $653 $694 $650 $670 forward $674 $-1 #
edge $-1 -1 $-1 $671 8.8817841970012523e-016 $656 0.375 $669 $696 forward @7 unknown #
vertex $-1 -1 $-1 $690 $697 #
vertex $-1 -1 $-1 $688 $698 #
ellipse-curve $-1 -1 $-1 3 -5.5511151231257827e-017 2 -1 0 0 0 1.4735662776793612e-016 -0.75 1 I I #
loop $-1 -1 $-1 $-1 $653 $699 #
ellipse-curve $-1 -1 $-1 2.625 5.5511151231257827e-017 2 1 0 0 0 -5.5511151231257827e-017 -0.75 1 I I #
point $-1 -1 $-1 2.625 -1.8369095307335659e-016 2.75 #
point $-1 -1 $-1 2.625 9.1845476536678294e-017 1.25 #
model_id-kcp-attrib $-1 -1 $-1 $-1 $659 1 1021520996 1021520996 2146893825 43 #
face $700 -1 $-1 $701 $702 $6 $-1 $703 forward single #
loop $-1 -1 $-1 $-1 $704 $659 #
cone-surface $-1 -1 $-1 2.6800000000000006 0 2 1 0 0 0 0 6.9230769230768754 1 I I -0.98972835684395366 0.14296076265523874 6.9230769230768754 forward I I I I #
coedge $-1 -1 $-1 $685 $705 $706 $707 forward $660 $-1 #
coedge $-1 -1 $-1 $665 $662 $708 $709 forward $646 $-1 #
coedge $-1 -1 $-1 $662 $665 $710 $711 reversed $646 $-1 #
coedge $-1 -1 $-1 $712 $682 $662 $686 reversed $660 $-1 #
edge $-1 -1 $-1 $713 0 $714 3.1415926535897931 $685 $715 forward @7 unknown #
coedge $-1 -1 $-1 $716 $717 $663 $688 reversed $718 $-1 #
edge $-1 -1 $-1 $692 0 $672 0.15811388300841855 $687 $719 forward @7 unknown #
coedge $-1 -1 $-1 $717 $716 $664 $690 forward $718 $-1 #
edge $-1 -1 $-1 $691 -2.808666774861353e-016 $671 0.15811388300841883 $689 $720 forward @7 unknown #
vertex $-1 -1 $-1 $711 $721 #
vertex $-1 -1 $-1 $709 $722 #
ellipse-curve $-1 -1 $-1 3.0499999999999989 2.2204460492503131e-016 2 -1 0 0 0 -1.1183003308101738e-016 -0.89999999999999991 1 I I #
coedge $-1 -1 $-1 $669 $667 $717 $723 reversed $674 $-1 #
straight-curve $-1 -1 $-1 3 -1.8369095307335659e-016 2.75 -1 0 0 I I #
straight-curve $-1 -1 $-1 3 9.1845476536678294e-017 1.25 -1 0 0 I I #
point $-1 -1 $-1 2.9999999999999991 9.1845476536678294e-017 1.25 #
point $-1 -1 $-1 3 -1.8369095307335659e-016 2.75 #
face $724 -1 $-1 $725 $674 $6 $-1 $726 forward single #
model_id-kcp-attrib $-1 -1 $-1 $-1 $679 1 1021520996 1021520996 2146893825 44 #
face $727 -1 $-1 $699 $718 $6 $-1 $728 forward single #
loop $-1 -1 $-1 $-1 $729 $679 #
cone-surface $-1 -1 $-1 0.074999999999999997 0 2 1 0 0 0 0 0.89999999999999991 1 I I 0 1 0.89999999999999991 forward I I I I #
coedge $-1 -1 $-1 $730 $731 $712 $732 forward $680 $-1 #
coedge $-1 -1 $-1 $682 $712 $733 $734 reversed $660 $-1 #
coedge $-1 -1 $-1 $731 $730 $682 $707 reversed $680 $-1 #
edge $-1 -1 $-1 $735 0 $714 0.80830259582643715 $706 $736 forward @7 unknown #
coedge $-1 -1 $-1 $737 $729 $683 $709 reversed $702 $-1 #
edge $-1 -1 $-1 $714 0 $692 0.50000000000000089 $708 $738 forward @7 unknown #
coedge $-1 -1 $-1 $729 $737 $684 $711 forward $702 $-1 #
edge $-1 -1 $-1 $713 0 $691 0.5 $710 $739 forward @7 unknown #
coedge $-1 -1 $-1 $705 $685 $704 $732 reversed $660 $-1 #
vertex $-1 -1 $-1 $740 $741 #
vertex $-1 -1 $-1 $707 $742 #
ellipse-curve $-1 -1 $-1 3.5499999999999998 -2.7755575615628914e-017 2 -1 0 0 0 1.3797014745964286e-016 -0.89999999999999991 1 I I #
coedge $-1 -1 $-1 $689 $687 $729 $743 reversed $718 $-1 #
coedge $-1 -1 $-1 $687 $689 $694 $723 forward $718 $-1 #
loop $-1 -1 $-1 $-1 $717 $701 #
straight-curve $-1 -1 $-1 3.0499999999999989 -2.2042914368802785e-016 2.8999999999999999 -0.31622776601683705 2.3235271891156529e-016 -0.9486832980505141 I I #
straight-curve $-1 -1 $-1 3.0499999999999989 1.1021457184401392e-016 1.1000000000000001 -0.31622776601683705 -1.1617635945578265e-016 0.9486832980505141 I I #
point $-1 -1 $-1 3.0499999999999998 1.1021457184401395e-016 1.1000000000000001 #
point $-1 -1 $-1 3.0499999999999989 -2.2042914368802785e-016 2.8999999999999999 #
edge $-1 -1 $-1 $671 0 $672 3.1415926535897931 $717 $744 forward @7 unknown #
model_id-kcp-attrib $-1 -1 $-1 $-1 $699 1 1021520996 1021520996 2146893825 46 #
face $745 -1 $-1 $746 $747 $6 $-1 $748 forward single #
cone-surface $-1 -1 $-1 0.074999999999999997 0 2 1 0 0 0 0 0.75 1 I I 0 1 0.75 forward I I I I #
model_id-kcp-attrib $-1 -1 $-1 $-1 $701 1 1021520996 1021520996 2146893825 45 #
cone-surface $-1 -1 $-1 3.75 0 2 -1 0 0 0 0 3.0000000000000089 1 I I -0.9486832980505141 0.31622776601683711 3.0000000000000089 forward I I I I #
coedge $-1 -1 $-1 $708 $710 $716 $743 forward $702 $-1 #
coedge $-1 -1 $-1 $706 $704 $737 $740 forward $680 $-1 #
coedge $-1 -1 $-1 $704 $706 $749 $750 reversed $680 $-1 #
edge $-1 -1 $-1 $751 0 $713 0.80830259582643715 $704 $752 forward @7 unknown #
coedge $-1 -1 $-1 $753 $754 $705 $734 forward $755 $-1 #
edge $-1 -1 $-1 $735 0 $751 3.1415926535897931 $733 $756 forward @7 unknown #
vertex $-1 -1 $-1 $734 $757 #
straight-curve $-1 -1 $-1 3.6655555555555566 -2.4492127076447111e-017 2.0999999999999979 -0.14296076265523869 -2.4240552686985726e-016 0.98972835684395366 I I #
coedge $-1 -1 $-1 $710 $708 $730 $740 reversed $702 $-1 #
straight-curve $-1 -1 $-1 3.5499999999999998 -2.204291436880279e-016 2.8999999999999999 -1 0 0 I I #
straight-curve $-1 -1 $-1 3.5499999999999998 1.1021457184401395e-016 1.1000000000000001 -1 0 0 I I #
edge $-1 -1 $-1 $713 0 $714 3.1415926535897931 $730 $758 forward @7 unknown #
point $-1 -1 $-1 3.5499999999999998 1.1021457184401395e-016 1.1000000000000001 #
point $-1 -1 $-1 3.5499999999999998 0 2.8999999999999999 #
edge $-1 -1 $-1 $691 6.0868897007794128e-032 $692 3.1415926535897927 $729 $759 forward @7 unknown #
ellipse-curve $-1 -1 $-1 3 2.7755575615628914e-017 2 1 0 0 0 6.4089900921049381e-017 -0.75 1 I I #
model_id-kcp-attrib $-1 -1 $-1 $-1 $725 1 1021520996 1021520996 2146893825 47 #
face $760 -1 $-1 $761 $755 $6 $-1 $762 forward single #
loop $-1 -1 $-1 $-1 $763 $725 #
cone-surface $-1 -1 $-1 0.25 0 2 1 0 0 0 0 0.099999999999999992 1 I I 0 1 0.099999999999999992 forward I I I I #
coedge $-1 -1 $-1 $763 $764 $731 $750 forward $747 $-1 #
edge $-1 -1 $-1 $751 0 $735 3.1415926535897931 $749 $765 forward @7 unknown #
vertex $-1 -1 $-1 $734 $766 #
straight-curve $-1 -1 $-1 3.6655555555555566 1.2246063538223556e-017 1.9000000000000021 -0.14296076265523869 1.2120276343492863e-016 -0.98972835684395366 I I #
coedge $-1 -1 $-1 $767 $733 $764 $768 forward $755 $-1 #
coedge $-1 -1 $-1 $733 $767 $763 $769 reversed $755 $-1 #
loop $-1 -1 $-1 $-1 $753 $746 #
ellipse-curve $-1 -1 $-1 3.6655555555555566 -3.4694469519536142e-018 2 1 0 0 0 -2.1022680124493497e-017 0.099999999999997868 1 I I #
point $-1 -1 $-1 3.6655555555555566 -2.4492127076447111e-017 2.0999999999999979 #
ellipse-curve $-1 -1 $-1 3.5499999999999998 5.5511151231257827e-017 2 1 0 0 0 5.4703420612756121e-017 -0.89999999999999991 1 I I #
ellipse-curve $-1 -1 $-1 3.0499999999999989 -2.4980018054066022e-016 2 1 0 0 0 3.6001475238467415e-016 -0.89999999999999991 1 I I #
model_id-kcp-attrib $-1 -1 $-1 $-1 $746 1 1021520996 1021520996 2146893825 48 #
face $770 -1 $-1 $771 $772 $6 $-1 $773 forward single #
cone-surface $-1 -1 $-1 0.25 0 2 1 0 0 0 0 0.099999999999999992 1 I I 0 1 0.099999999999999992 forward I I I I #
coedge $-1 -1 $-1 $774 $749 $754 $769 forward $747 $-1 #
coedge $-1 -1 $-1 $749 $774 $753 $768 reversed $747 $-1 #
ellipse-curve $-1 -1 $-1 3.6655555555555566 -1.0408340855860843e-017 2 1 0 0 0 2.2654404394084398e-017 -0.099999999999997868 1 I I #
point $-1 -1 $-1 3.6655555555555566 1.2246063538223556e-017 1.9000000000000021 #
coedge $-1 -1 $-1 $754 $753 $775 $776 reversed $755 $-1 #
edge $-1 -1 $-1 $751 8.8817841970012523e-016 $777 0.084444444444444322 $753 $778 forward @7 unknown #
edge $-1 -1 $-1 $735 8.8817841970012523e-016 $779 0.084444444444444322 $754 $780 forward @7 unknown #
model_id-kcp-attrib $-1 -1 $-1 $-1 $761 1 1021520996 1021520996 2146893825 49 #
face $781 -1 $-1 $782 $783 $6 $-1 $784 forward single #
loop $-1 -1 $-1 $-1 $785 $761 #
torus-surface $-1 -1 $-1 3.75 0 1.75 0 1 0 0.25 0.099999999999999992 0 0 -1 forward_v I I I I #
coedge $-1 -1 $-1 $764 $763 $786 $787 reversed $747 $-1 #
coedge $-1 -1 $-1 $785 $788 $767 $776 forward $772 $-1 #
edge $-1 -1 $-1 $779 0 $777 3.1415926535897909 $767 $789 forward @7 unknown #
vertex $-1 -1 $-1 $776 $790 #
straight-curve $-1 -1 $-1 3.6655555555555557 -1.2246063538223771e-017 1.8999999999999999 1 0 0 I I #
vertex $-1 -1 $-1 $769 $791 #
straight-curve $-1 -1 $-1 3.6655555555555557 0 2.1000000000000001 1 0 0 I I #
model_id-kcp-attrib $-1 -1 $-1 $-1 $771 1 1021520996 1021520996 2146893825 50 #
face $792 -1 $-1 $793 $794 $6 $-1 $795 forward single #
loop $-1 -1 $-1 $-1 $796 $771 #
torus-surface $-1 -1 $-1 3.75 0 1.75 0 1 0 0.25 0.099999999999999992 0 0 -1 forward_v I I I I #
coedge $-1 -1 $-1 $797 $775 $798 $799 forward $772 $-1 #
coedge $-1 -1 $-1 $796 $798 $774 $787 forward $783 $-1 #
edge $-1 -1 $-1 $777 0 $779 3.1415926535897918 $774 $800 forward @7 unknown #
coedge $-1 -1 $-1 $775 $797 $796 $801 reversed $772 $-1 #
ellipse-curve $-1 -1 $-1 3.75 1.0755285551056204e-016 2 1 0 0 0 -1.0755285551056204e-016 0.10000000000000009 1 I I #
point $-1 -1 $-1 3.75 -1.2246063538223771e-017 1.8999999999999999 #
point $-1 -1 $-1 3.75 0 2.1000000000000001 #
model_id-kcp-attrib $-1 -1 $-1 $-1 $782 1 1021520996 1021520996 2146893825 51 #
face $802 -1 $-1 $803 $804 $6 $-1 $805 forward single #
loop $-1 -1 $-1 $-1 $806 $782 #
cone-surface $-1 -1 $-1 4 0 1.75 0 0 -1 0.099999999999999992 0 0 1 I I 0 1 0.099999999999999992 forward I I I I #
coedge $-1 -1 $-1 $807 $786 $788 $801 forward $783 $-1 #
coedge $-1 -1 $-1 $788 $785 $808 $809 reversed $772 $-1 #
coedge $-1 -1 $-1 $786 $807 $785 $799 reversed $783 $-1 #
edge $-1 -1 $-1 $777 0 $810 1.5707963267948966 $785 $811 forward @7 unknown #
ellipse-curve $-1 -1 $-1 3.75 -7.9797279894933126e-017 2 1 0 0 0 6.7551216356709349e-017 -0.10000000000000009 1 I I #
edge $-1 -1 $-1 $779 0 $812 1.5707963267948966 $788 $813 forward @7 unknown #
model_id-kcp-attrib $-1 -1 $-1 $-1 $793 1 1021520996 1021520996 2146893825 52 #
face $814 -1 $-1 $-1 $815 $6 $-1 $816 forward single #
loop $-1 -1 $-1 $-1 $817 $793 #
cone-surface $-1 -1 $-1 4 0 1.75 0 0 -1 0.099999999999999992 0 0 1 I I 0 1 0.099999999999999992 forward I I I I #
coedge $-1 -1 $-1 $818 $819 $820 $821 forward $794 $-1 #
coedge $-1 -1 $-1 $798 $796 $819 $822 reversed $783 $-1 #
coedge $-1 -1 $-1 $817 $820 $797 $809 forward $804 $-1 #
edge $-1 -1 $-1 $812 0 $810 3.1415926535897931 $797 $823 forward @7 unknown #
vertex $-1 -1 $-1 $809 $824 #
ellipse-curve $-1 -1 $-1 3.75 -1.2246063538223771e-017 1.75 0 1 0 0 0 0.14999999999999991 1 I I #
vertex $-1 -1 $-1 $801 $825 #
ellipse-curve $-1 -1 $-1 3.75 0 1.75 0 1 0 0 0 0.35000000000000009 1 I I #
model_id-kcp-attrib $-1 -1 $-1 $-1 $803 1 1021520996 1021520996 2146893825 53 #
loop $-1 -1 $-1 $-1 $826 $803 #
plane-surface $-1 -1 $-1 4 0 0 0 0 -1 1 0 0 forward_v I I I I #
coedge $-1 -1 $-1 $827 $808 $828 $829 forward $804 $-1 #
coedge $-1 -1 $-1 $828 $806 $826 $830 reversed $794 $-1 #
coedge $-1 -1 $-1 $806 $828 $807 $822 forward $794 $-1 #
coedge $-1 -1 $-1 $808 $827 $806 $821 reversed $804 $-1 #
edge $-1 -1 $-1 $812 0 $831 1.75 $820 $832 forward @7 unknown #
edge $-1 -1 $-1 $810 0 $812 3.1415926535897931 $807 $833 forward @7 unknown #
ellipse-curve $-1 -1 $-1 4 0 1.75 0 0 -1 0.099999999999999645 0 0 1 I I #
point $-1 -1 $-1 3.8999999999999999 -1.2246063538223771e-017 1.75 #
point $-1 -1 $-1 4.0999999999999996 0 1.75 #
coedge $-1 -1 $-1 $834 $834 $818 $830 forward $815 $-1 #
coedge $-1 -1 $-1 $820 $817 $834 $835 reversed $804 $-1 #
coedge $-1 -1 $-1 $819 $818 $817 $829 reversed $794 $-1 #
edge $-1 -1 $-1 $810 0 $836 1.75 $817 $837 forward @7 unknown #
edge $-1 -1 $-1 $836 0 $831 3.1415926535897887 $826 $838 forward @7 unknown #
vertex $-1 -1 $-1 $835 $839 #
straight-curve $-1 -1 $-1 4.0999999999999996 0 1.75 0 0 -1 I I #
ellipse-curve $-1 -1 $-1 4 0 1.75 0 0 -1 -0.10000000000000009 -1.2246063538223771e-017 0 1 I I #
coedge $-1 -1 $-1 $826 $826 $827 $835 forward $815 $-1 #
edge $-1 -1 $-1 $831 0 $836 3.1415926535897971 $834 $840 forward @7 unknown #
vertex $-1 -1 $-1 $835 $841 #
straight-curve $-1 -1 $-1 3.8999999999999999 -1.2246063538223771e-017 1.75 0 0 -1 I I #
ellipse-curve $-1 -1 $-1 4 -2.2204460492503131e-016 0 0 0 -1 -0.10000000000000009 2.2204460492503131e-016 0 1 I I #
point $-1 -1 $-1 4.0999999999999996 0 0 #
ellipse-curve $-1 -1 $-1 3.9999999999999996 -2.0816681711721685e-016 0 0 0 -1 0.10000000000000009 2.0816681711721685e-016 0 1 I I #
point $-1 -1 $-1 3.8999999999999999 0 0 #
End-of-ACIS-data 