700 0 2 0           
24 FBMach with ACIS - 7.0.3 13 ACIS 7.0.3 NT 24 Wed May 15 23:50:02 2002 
1 9.9999999999999995e-007 1e-010 
body $2 -1 $-1 $3 $-1 $4 #
bdycol-kcp $-1 -1 1 3 $5 $6 $7 #
model_id-kcp-attrib $-1 -1 $-1 $-1 $0 1 1021521002 1021521002 -1693253631 1 #
lump $-1 -1 $-1 $-1 $8 $0 #
transform $-1 -1 1 0 0 0 1 0 0 0 1 0 0 0 1 rotate no_reflect no_shear #
body $9 -1 $-1 $10 $-1 $11 #
body $12 -1 $-1 $13 $-1 $14 #
body $15 -1 $-1 $16 $-1 $17 #
shell $-1 -1 $-1 $-1 $-1 $18 $-1 $3 #
model_id-kcp-attrib $-1 -1 $-1 $-1 $5 1 1021521002 1021521002 -1693253630 1 #
lump $-1 -1 $-1 $-1 $19 $5 #
transform $-1 -1 1 0 0 0 1 0 0 0 1 0 3 0 1 no_rotate no_reflect no_shear #
rgb_color-st-attrib $-1 -1 $20 $-1 $6 0.5 1 1 #
lump $-1 -1 $-1 $-1 $21 $6 #
transform $-1 -1 1 0 0 0 1 0 0 0 1 0 3 0 1 no_rotate no_reflect no_shear #
rgb_color-st-attrib $-1 -1 $22 $-1 $7 0 0 1 #
lump $-1 -1 $-1 $-1 $23 $7 #
transform $-1 -1 1 0 0 0 1 0 0 0 1 0 3 0 1 no_rotate no_reflect no_shear #
face $24 -1 $-1 $25 $26 $8 $-1 $27 forward single #
shell $-1 -1 $-1 $-1 $-1 $28 $-1 $10 #
model_id-kcp-attrib $-1 -1 $-1 $12 $6 1 1021521002 1021521002 -1685323773 1 #
shell $-1 -1 $-1 $-1 $-1 $29 $-1 $13 #
model_id-kcp-attrib $-1 -1 $-1 $15 $7 1 1021521002 1021521002 -1683750908 1 #
shell $-1 -1 $-1 $-1 $-1 $30 $-1 $16 #
model_id-kcp-attrib $-1 -1 $-1 $-1 $18 1 1021521002 1021521002 -1693253631 2 #
face $31 -1 $-1 $32 $33 $8 $-1 $34 forward single #
loop $-1 -1 $-1 $-1 $35 $18 #
cone-surface $-1 -1 $-1 0 1 0 0 -1 0 1.3333333333333335 0 0 1 I I -0.80000000000000004 0.59999999999999998 1.3333333333333335 forward I I I I #
face $-1 -1 $-1 $36 $37 $19 $-1 $38 forward single #
face $-1 -1 $-1 $39 $40 $21 $-1 $41 reversed single #
face $-1 -1 $-1 $42 $43 $23 $-1 $44 forward single #
model_id-kcp-attrib $-1 -1 $-1 $-1 $25 1 1021521002 1021521002 -1693253631 3 #
face $45 -1 $-1 $46 $47 $8 $-1 $48 forward single #
loop $-1 -1 $-1 $-1 $49 $25 #
cone-surface $-1 -1 $-1 0 1 0 0 -1 0 1.3333333333333335 0 0 1 I I -0.80000000000000004 0.59999999999999998 1.3333333333333335 forward I I I I #
coedge $-1 -1 $-1 $50 $51 $52 $53 forward $26 $-1 #
face $-1 -1 $-1 $54 $55 $19 $-1 $56 reversed single #
loop $-1 -1 $-1 $-1 $57 $28 #
plane-surface $-1 -1 $-1 0 0 2.5 0 0 1 1 0 0 forward_v I I I I #
face $-1 -1 $-1 $58 $59 $21 $-1 $41 reversed single #
loop $-1 -1 $-1 $-1 $60 $29 #
cone-surface $-1 -1 $-1 -1.6170810361967678e-032 3 -1.1102230246251568e-016 0 1 0 2.5 0 1.1102230246251568e-016 1 I I 0 1 2.5 forward I I I I #
face $-1 -1 $-1 $61 $62 $23 $-1 $63 forward single #
loop $-1 -1 $-1 $-1 $64 $30 #
plane-surface $-1 -1 $-1 -0.34000000000000008 2.5 0.34000000000000008 0 0 1 1 0 0 forward_v I I I I #
model_id-kcp-attrib $-1 -1 $-1 $-1 $32 1 1021521002 1021521002 -1693253631 4 #
face $65 -1 $-1 $66 $67 $8 $-1 $68 reversed single #
loop $-1 -1 $-1 $-1 $69 $32 #
cone-surface $-1 -1 $-1 0 -0.29999999999999999 0 0 1 0 2 0 0 1 I I 0 1 2 forward I I I I #
coedge $-1 -1 $-1 $52 $70 $71 $72 forward $33 $-1 #
coedge $-1 -1 $-1 $51 $35 $73 $74 reversed $26 $-1 #
coedge $-1 -1 $-1 $35 $50 $70 $75 reversed $26 $-1 #
coedge $-1 -1 $-1 $70 $49 $35 $53 reversed $33 $-1 #
edge $-1 -1 $-1 $76 0 $77 2.5 $35 $78 forward @7 unknown #
face $-1 -1 $-1 $79 $80 $19 $-1 $81 reversed single #
loop $-1 -1 $-1 $-1 $82 $36 #
plane-surface $-1 -1 $-1 0 0 -2.5 0 0 1 1 0 0 forward_v I I I I #
coedge $-1 -1 $-1 $83 $84 $85 $86 forward $37 $-1 #
face $-1 -1 $-1 $87 $88 $21 $-1 $41 reversed single #
loop $-1 -1 $-1 $-1 $89 $39 #
coedge $-1 -1 $-1 $90 $91 $92 $93 reversed $40 $-1 #
face $-1 -1 $-1 $94 $95 $23 $-1 $96 forward single #
loop $-1 -1 $-1 $-1 $97 $42 #
plane-surface $-1 -1 $-1 -1.54 2.5 0.34000000000000008 -1 0 0 0 0 1 forward_v I I I I #
coedge $-1 -1 $-1 $98 $99 $100 $101 forward $43 $-1 #
model_id-kcp-attrib $-1 -1 $-1 $-1 $46 1 1021521002 1021521002 -1693253631 5 #
face $102 -1 $-1 $103 $104 $8 $-1 $105 forward single #
loop $-1 -1 $-1 $106 $107 $46 #
plane-surface $-1 -1 $-1 0 5 0 0 1 0 1 0 0 forward_v I I I I #
coedge $-1 -1 $-1 $108 $109 $110 $111 forward $47 $-1 #
coedge $-1 -1 $-1 $49 $52 $51 $75 forward $33 $-1 #
coedge $-1 -1 $-1 $109 $108 $49 $72 reversed $47 $-1 #
edge $-1 -1 $-1 $112 0 $77 3.1415926535897931 $49 $113 forward @7 unknown #
coedge $-1 -1 $-1 $114 $115 $50 $74 forward $116 $-1 #
edge $-1 -1 $-1 $112 0 $77 3.1415926535897931 $50 $117 forward @7 unknown #
edge $-1 -1 $-1 $76 0 $112 2.5 $51 $118 forward @7 unknown #
vertex $-1 -1 $-1 $75 $119 #
vertex $-1 -1 $-1 $74 $120 #
straight-curve $-1 -1 $-1 0 0 0 -0.80000000000000004 0.59999999999999998 9.7968508305790183e-017 I I #
face $-1 -1 $-1 $121 $122 $19 $-1 $123 reversed single #
loop $-1 -1 $-1 $-1 $124 $54 #
plane-surface $-1 -1 $-1 0 -3 0 0 1 0 0 0 1 forward_v I I I I #
coedge $-1 -1 $-1 $125 $126 $127 $128 forward $55 $-1 #
coedge $-1 -1 $-1 $129 $57 $130 $131 forward $37 $-1 #
coedge $-1 -1 $-1 $57 $129 $132 $133 forward $37 $-1 #
coedge $-1 -1 $-1 $134 $135 $57 $86 reversed $136 $-1 #
edge $-1 -1 $-1 $137 -3 $138 3 $85 $139 forward @7 unknown #
face $-1 -1 $-1 $140 $141 $21 $-1 $41 reversed single #
loop $-1 -1 $-1 $-1 $142 $58 #
coedge $-1 -1 $-1 $143 $144 $145 $146 reversed $59 $-1 #
coedge $-1 -1 $-1 $147 $60 $148 $149 forward $40 $-1 #
coedge $-1 -1 $-1 $60 $147 $150 $151 reversed $40 $-1 #
coedge $-1 -1 $-1 $152 $153 $60 $93 forward $154 $-1 #
edge $-1 -1 $-1 $155 -3.1415926535897931 $156 -1.5707963267948966 $92 $157 forward @7 unknown #
face $-1 -1 $-1 $158 $159 $23 $-1 $160 forward single #
loop $-1 -1 $-1 $-1 $161 $61 #
plane-surface $-1 -1 $-1 -1.54 2.5 -0.31000000000000005 0 0 -1 -1 0 0 forward_v I I I I #
coedge $-1 -1 $-1 $162 $163 $164 $165 forward $62 $-1 #
coedge $-1 -1 $-1 $166 $64 $163 $167 reversed $43 $-1 #
coedge $-1 -1 $-1 $64 $166 $168 $169 forward $43 $-1 #
coedge $-1 -1 $-1 $170 $164 $64 $101 reversed $171 $-1 #
edge $-1 -1 $-1 $172 -0.42999999999999994 $173 0.77000000000000002 $64 $174 forward @7 unknown #
model_id-kcp-attrib $-1 -1 $-1 $-1 $66 1 1021521002 1021521002 -1693253631 6 #
face $175 -1 $-1 $176 $177 $8 $-1 $178 forward single #
loop $-1 -1 $-1 $-1 $179 $66 #
cone-surface $-1 -1 $-1 0 -0.29999999999999999 0 0 1 0 2.5 0 0 1 I I 0 1 2.5 forward I I I I #
loop $-1 -1 $-1 $-1 $180 $46 #
coedge $-1 -1 $-1 $181 $181 $182 $183 forward $67 $-1 #
coedge $-1 -1 $-1 $71 $69 $114 $184 reversed $47 $-1 #
coedge $-1 -1 $-1 $69 $71 $115 $185 forward $47 $-1 #
coedge $-1 -1 $-1 $180 $180 $69 $111 reversed $106 $-1 #
edge $186 -1 $-1 $187 0 $188 3.1415926535897931 $110 $189 forward @7 unknown #
vertex $-1 -1 $-1 $75 $190 #
ellipse-curve $-1 -1 $-1 -1.6653345369377348e-016 1.4999999999999998 -5.5511151231257827e-017 0 -1 0 2 0 5.5511151231257827e-017 1 I I #
coedge $-1 -1 $-1 $191 $73 $108 $184 forward $116 $-1 #
coedge $-1 -1 $-1 $73 $191 $109 $185 reversed $116 $-1 #
loop $-1 -1 $-1 $-1 $73 $192 #
ellipse-curve $-1 -1 $-1 -1.6653345369377348e-016 1.4999999999999998 5.5511151231257827e-017 0 1 0 2 0 -5.5511151231257827e-017 1 I I #
straight-curve $-1 -1 $-1 0 0 0 0.80000000000000004 0.59999999999999998 0 I I #
point $-1 -1 $-1 0 0 0 #
point $-1 -1 $-1 -2 1.5 2.4492127076447545e-016 #
face $193 -1 $-1 $194 $195 $19 $-1 $196 reversed single #
loop $-1 -1 $-1 $-1 $197 $79 #
plane-surface $-1 -1 $-1 -2.5 0 0 1 0 0 0 0 -1 forward_v I I I I #
coedge $-1 -1 $-1 $198 $132 $199 $200 forward $80 $-1 #
coedge $-1 -1 $-1 $201 $82 $198 $202 forward $55 $-1 #
coedge $-1 -1 $-1 $82 $201 $203 $204 forward $55 $-1 #
coedge $-1 -1 $-1 $135 $134 $82 $128 reversed $136 $-1 #
edge $-1 -1 $-1 $205 -3 $206 3 $127 $207 forward @7 unknown #
coedge $-1 -1 $-1 $84 $83 $208 $209 forward $37 $-1 #
coedge $-1 -1 $-1 $210 $211 $83 $131 reversed $195 $-1 #
edge $-1 -1 $-1 $138 -2.5 $212 2.5 $130 $213 forward @7 unknown #
coedge $-1 -1 $-1 $124 $214 $84 $133 reversed $80 $-1 #
edge $-1 -1 $-1 $215 -2.5 $137 2.5 $132 $216 forward @7 unknown #
coedge $-1 -1 $-1 $127 $85 $214 $217 forward $136 $-1 #
coedge $-1 -1 $-1 $85 $127 $210 $218 reversed $136 $-1 #
loop $-1 -1 $-1 $-1 $134 $194 #
vertex $-1 -1 $-1 $86 $219 #
vertex $-1 -1 $-1 $86 $220 #
straight-curve $-1 -1 $-1 2.5 0 2.5 0 1 0 I I #
face $-1 -1 $-1 $221 $222 $21 $-1 $223 forward single #
loop $-1 -1 $-1 $-1 $224 $87 #
coedge $-1 -1 $-1 $225 $226 $224 $227 forward $88 $-1 #
coedge $-1 -1 $-1 $228 $89 $229 $230 reversed $59 $-1 #
coedge $-1 -1 $-1 $89 $228 $91 $151 forward $59 $-1 #
coedge $-1 -1 $-1 $231 $232 $89 $146 forward $233 $-1 #
edge $-1 -1 $-1 $234 -4.440892098500627e-017 $235 1.5707963267948966 $145 $236 forward @7 unknown #
coedge $-1 -1 $-1 $91 $90 $237 $238 reversed $40 $-1 #
coedge $-1 -1 $-1 $226 $225 $239 $149 reversed $88 $-1 #
edge $-1 -1 $-1 $155 -6 $240 0 $239 $241 forward @7 unknown #
coedge $-1 -1 $-1 $242 $243 $244 $151 forward $245 $-1 #
edge $-1 -1 $-1 $156 -6 $235 0 $150 $246 forward @7 unknown #
coedge $-1 -1 $-1 $153 $92 $243 $247 reversed $154 $-1 #
coedge $-1 -1 $-1 $92 $152 $248 $249 forward $154 $-1 #
loop $-1 -1 $-1 $-1 $92 $250 #
vertex $-1 -1 $-1 $251 $252 #
vertex $-1 -1 $-1 $253 $254 #
ellipse-curve $-1 -1 $-1 -1.6170810361967678e-032 -3 -1.1102230246251568e-016 0 1 0 2.5 0 1.1102230246251568e-016 1 I I #
face $-1 -1 $-1 $255 $256 $23 $-1 $257 forward single #
loop $-1 -1 $-1 $-1 $258 $94 #
plane-surface $-1 -1 $-1 -0.34000000000000008 2.5 -0.31000000000000005 -1 0 0 0 0 1 forward_v I I I I #
coedge $-1 -1 $-1 $259 $260 $261 $262 forward $95 $-1 #
coedge $-1 -1 $-1 $263 $97 $260 $264 reversed $62 $-1 #
coedge $-1 -1 $-1 $97 $263 $98 $167 forward $62 $-1 #
coedge $-1 -1 $-1 $100 $261 $97 $165 reversed $171 $-1 #
edge $-1 -1 $-1 $173 -0.48749999999999999 $265 0.16250000000000014 $97 $266 forward @7 unknown #
coedge $-1 -1 $-1 $99 $98 $267 $268 reversed $43 $-1 #
edge $269 -1 $-1 $270 0 $173 0.5 $163 $271 forward @7 unknown #
coedge $-1 -1 $-1 $272 $273 $99 $169 reversed $274 $-1 #
edge $-1 -1 $-1 $275 0 $172 0.5 $99 $276 forward @7 unknown #
coedge $-1 -1 $-1 $277 $100 $273 $278 reversed $171 $-1 #
loop $-1 -1 $-1 $-1 $100 $279 #
vertex $-1 -1 $-1 $169 $280 #
vertex $-1 -1 $-1 $167 $281 #
straight-curve $-1 -1 $-1 -0.77000000000000002 3 0.34000000000000008 -1 0 0 I I #
model_id-kcp-attrib $-1 -1 $-1 $-1 $103 1 1021521002 1021521002 -1693253631 7 #
face $282 -1 $-1 $283 $284 $8 $-1 $285 forward single #
loop $-1 -1 $-1 $286 $287 $103 #
plane-surface $-1 -1 $-1 0 6 0 0 1 0 1 0 0 forward_v I I I I #
coedge $-1 -1 $-1 $288 $289 $290 $291 forward $104 $-1 #
coedge $-1 -1 $-1 $110 $110 $191 $292 forward $106 $-1 #
coedge $-1 -1 $-1 $107 $107 $293 $294 reversed $67 $-1 #
coedge $-1 -1 $-1 $289 $288 $107 $183 reversed $104 $-1 #
edge $295 -1 $-1 $296 0 $297 3.1415926535897931 $107 $298 forward @7 unknown #
edge $-1 -1 $-1 $77 2.2204460492503131e-016 $188 3.5 $114 $299 forward @7 unknown #
edge $-1 -1 $-1 $112 2.2204460492503131e-016 $187 3.5 $115 $300 forward @7 unknown #
attrib_edge_convexity-kcp-attrib $-1 -1 $301 $-1 $111 2 #
vertex $-1 -1 $-1 $185 $302 #
vertex $-1 -1 $-1 $292 $303 #
ellipse-curve $-1 -1 $-1 5.5511151231257827e-017 5 5.5511151231257827e-017 0 -1 0 2 0 -5.5511151231257827e-017 1 I I #
point $-1 -1 $-1 2 1.5 0 #
coedge $-1 -1 $-1 $115 $114 $180 $292 reversed $116 $-1 #
face $304 -1 $-1 $-1 $116 $8 $-1 $305 forward single #
model_id-kcp-attrib $-1 -1 $-1 $-1 $121 1 1021521002 1021521002 -1693253630 2 #
face $-1 -1 $-1 $-1 $136 $19 $-1 $306 reversed single #
loop $-1 -1 $-1 $-1 $210 $121 #
plane-surface $-1 -1 $-1 0 3 0 0 -1 0 0 0 -1 forward_v I I I I #
coedge $-1 -1 $-1 $307 $208 $211 $308 forward $122 $-1 #
coedge $-1 -1 $-1 $214 $124 $125 $202 reversed $80 $-1 #
coedge $-1 -1 $-1 $208 $307 $124 $200 reversed $122 $-1 #
edge $-1 -1 $-1 $215 -2.5 $309 2.5 $199 $310 forward @7 unknown #
coedge $-1 -1 $-1 $126 $125 $307 $311 forward $55 $-1 #
edge $-1 -1 $-1 $206 -2.5 $309 2.5 $198 $312 forward @7 unknown #
coedge $-1 -1 $-1 $211 $210 $126 $204 reversed $195 $-1 #
edge $-1 -1 $-1 $313 -2.5 $205 2.5 $203 $314 forward @7 unknown #
vertex $-1 -1 $-1 $128 $315 #
vertex $-1 -1 $-1 $217 $316 #
straight-curve $-1 -1 $-1 2.5 0 -2.5 0 -1 0 I I #
coedge $-1 -1 $-1 $197 $199 $129 $209 reversed $122 $-1 #
edge $-1 -1 $-1 $212 -3 $215 3 $208 $317 forward @7 unknown #
coedge $-1 -1 $-1 $203 $130 $135 $218 forward $195 $-1 #
coedge $-1 -1 $-1 $130 $203 $197 $308 reversed $195 $-1 #
vertex $-1 -1 $-1 $131 $318 #
straight-curve $-1 -1 $-1 0 3 2.5 -1 0 0 I I #
coedge $-1 -1 $-1 $132 $198 $134 $217 reversed $80 $-1 #
vertex $-1 -1 $-1 $209 $319 #
straight-curve $-1 -1 $-1 0 -3 2.5 1 0 0 I I #
edge $-1 -1 $-1 $137 -2.5 $206 2.5 $134 $320 forward @7 unknown #
edge $-1 -1 $-1 $138 -2.5 $205 2.5 $135 $321 forward @7 unknown #
point $-1 -1 $-1 2.5 -3 2.5 #
point $-1 -1 $-1 2.5 3 2.5 #
face $-1 -1 $-1 $322 $323 $21 $-1 $324 reversed single #
loop $-1 -1 $-1 $-1 $244 $140 #
plane-surface $-1 -1 $-1 0 0 2.5 0 0 1 1 0 0 forward_v I I I I #
coedge $-1 -1 $-1 $325 $326 $327 $227 reversed $141 $-1 #
coedge $-1 -1 $-1 $148 $142 $328 $329 reversed $88 $-1 #
coedge $-1 -1 $-1 $142 $148 $330 $331 reversed $88 $-1 #
edge $-1 -1 $-1 $332 -6 $333 0 $327 $334 forward @7 unknown #
coedge $-1 -1 $-1 $144 $143 $335 $336 reversed $59 $-1 #
coedge $-1 -1 $-1 $337 $338 $339 $230 forward $340 $-1 #
edge $-1 -1 $-1 $341 -6 $234 0 $229 $342 forward @7 unknown #
coedge $-1 -1 $-1 $232 $145 $343 $344 reversed $233 $-1 #
coedge $-1 -1 $-1 $145 $231 $337 $345 forward $233 $-1 #
loop $-1 -1 $-1 $-1 $145 $346 #
vertex $-1 -1 $-1 $347 $348 #
vertex $-1 -1 $-1 $349 $350 #
ellipse-curve $-1 -1 $-1 -1.6170810361967678e-032 3 -1.1102230246251568e-016 0 -1 0 2.5 0 1.1102230246251568e-016 1 I I #
coedge $-1 -1 $-1 $351 $352 $147 $238 forward $353 $-1 #
edge $-1 -1 $-1 $235 1.5707963267948966 $240 3.1415926535897931 $237 $236 forward @7 unknown #
coedge $-1 -1 $-1 $354 $355 $356 $149 forward $323 $-1 #
vertex $-1 -1 $-1 $357 $358 #
straight-curve $-1 -1 $-1 -2.5 3 -1.1102230246251568e-016 0 1 0 I I #
coedge $-1 -1 $-1 $359 $150 $352 $349 forward $245 $-1 #
coedge $-1 -1 $-1 $150 $359 $152 $247 forward $245 $-1 #
coedge $-1 -1 $-1 $360 $343 $144 $151 reversed $222 $-1 #
loop $-1 -1 $-1 $-1 $150 $361 #
straight-curve $-1 -1 $-1 -1.6170810361967678e-032 3 2.5 0 1 0 I I #
edge $-1 -1 $-1 $362 -2.5 $156 -1.6170810361967678e-032 $152 $363 forward @7 unknown #
coedge $-1 -1 $-1 $364 $356 $153 $249 reversed $365 $-1 #
edge $-1 -1 $-1 $362 -2.5 $155 1.1102230246251568e-016 $248 $366 forward @7 unknown #
face $-1 -1 $-1 $367 $154 $21 $-1 $368 reversed single #
edge $-1 -1 $-1 $155 1.1102230246251568e-016 $369 2.5 $355 $366 forward @7 unknown #
point $-1 -1 $-1 -2.5 -3 -1.1102230246251568e-016 #
edge $-1 -1 $-1 $156 -1.6170810361967678e-032 $370 2.5 $371 $363 forward @7 unknown #
point $-1 -1 $-1 -1.6170810361967678e-032 -3 2.5 #
face $-1 -1 $-1 $372 $373 $23 $-1 $374 forward single #
loop $-1 -1 $-1 $-1 $375 $158 #
plane-surface $-1 -1 $-1 -0.34000000000000008 2.5 -1.5099999999999998 0 0 -1 -1 0 0 forward_v I I I I #
coedge $-1 -1 $-1 $376 $377 $378 $379 forward $159 $-1 #
coedge $-1 -1 $-1 $380 $161 $377 $381 reversed $95 $-1 #
coedge $-1 -1 $-1 $161 $380 $162 $264 forward $95 $-1 #
coedge $-1 -1 $-1 $164 $378 $161 $262 reversed $171 $-1 #
edge $-1 -1 $-1 $265 -1.3700000000000001 $382 -0.17000000000000004 $161 $383 forward @7 unknown #
coedge $-1 -1 $-1 $163 $162 $384 $385 reversed $62 $-1 #
edge $-1 -1 $-1 $386 0 $265 0.5 $260 $387 forward @7 unknown #
vertex $-1 -1 $-1 $264 $388 #
straight-curve $-1 -1 $-1 -1.54 3 -0.14749999999999991 0 0 -1 I I #
coedge $-1 -1 $-1 $384 $389 $166 $268 forward $390 $-1 #
edge $391 -1 $-1 $275 -0.42999999999999994 $270 0.77000000000000002 $166 $392 forward @7 unknown #
convexity-sys-attrib $-1 -1 $-1 $-1 $167 #
vertex $-1 -1 $-1 $268 $393 #
straight-curve $-1 -1 $-1 -1.54 2.5 0.34000000000000008 0 1 0 I I #
coedge $-1 -1 $-1 $394 $168 $389 $395 reversed $274 $-1 #
coedge $-1 -1 $-1 $168 $394 $170 $278 forward $274 $-1 #
loop $-1 -1 $-1 $-1 $273 $396 #
vertex $-1 -1 $-1 $395 $397 #
straight-curve $-1 -1 $-1 -0.34000000000000008 2.5 0.34000000000000008 0 1 0 I I #
coedge $-1 -1 $-1 $398 $170 $399 $400 reversed $171 $-1 #
edge $-1 -1 $-1 $401 -1.3624999999999998 $172 -0.16249999999999998 $273 $402 forward @7 unknown #
face $-1 -1 $-1 $403 $171 $23 $-1 $404 forward single #
point $-1 -1 $-1 -0.34000000000000008 3 0.34000000000000008 #
point $-1 -1 $-1 -1.54 3 0.34000000000000008 #
model_id-kcp-attrib $-1 -1 $-1 $-1 $176 1 1021521002 1021521002 -1693253631 8 #
face $405 -1 $-1 $406 $407 $8 $-1 $408 reversed single #
loop $-1 -1 $-1 $-1 $293 $176 #
cone-surface $-1 -1 $-1 0 -0.29999999999999999 0 0 1 0 2.5 0 0 1 I I 0 1 2.5 forward I I I I #
loop $-1 -1 $-1 $-1 $409 $103 #
coedge $-1 -1 $-1 $290 $290 $410 $411 forward $177 $-1 #
coedge $-1 -1 $-1 $182 $179 $412 $413 reversed $104 $-1 #
coedge $-1 -1 $-1 $179 $182 $414 $415 forward $104 $-1 #
coedge $-1 -1 $-1 $287 $287 $179 $291 reversed $177 $-1 #
edge $416 -1 $-1 $417 0 $418 3.1415926535897931 $290 $419 forward @7 unknown #
edge $420 -1 $-1 $187 0 $188 3.1415926535897931 $191 $421 forward @7 unknown #
coedge $-1 -1 $-1 $412 $414 $181 $294 forward $284 $-1 #
edge $422 -1 $-1 $296 0 $297 3.1415926535897931 $181 $423 forward @7 unknown #
attrib_edge_convexity-kcp-attrib $-1 -1 $424 $-1 $183 1 #
vertex $-1 -1 $-1 $294 $425 #
vertex $-1 -1 $-1 $294 $426 #
ellipse-curve $-1 -1 $-1 2.2204460492503131e-016 5 1.1102230246251565e-016 0 -1 0 2.5 0 -1.1102230246251565e-016 1 I I #
straight-curve $-1 -1 $-1 -2 1.4999999999999998 2.4492127076447545e-016 0 1 0 I I #
straight-curve $-1 -1 $-1 2 1.4999999999999998 0 0 1 0 I I #
convexity-sys-attrib $-1 -1 $-1 $186 $111 #
point $-1 -1 $-1 2 5 0 #
point $-1 -1 $-1 -2 5 0 #
model_id-kcp-attrib $-1 -1 $-1 $-1 $192 1 1021521002 1021521002 -1693253631 22 #
cone-surface $-1 -1 $-1 0 -0.29999999999999999 0 0 1 0 2 0 0 1 I I 0 1 2 forward I I I I #
plane-surface $-1 -1 $-1 2.5 0 0 -1 0 0 0 0 1 forward_v I I I I #
coedge $-1 -1 $-1 $199 $197 $201 $311 reversed $122 $-1 #
edge $-1 -1 $-1 $212 -2.5 $313 2.5 $211 $427 forward @7 unknown #
vertex $-1 -1 $-1 $311 $428 #
straight-curve $-1 -1 $-1 -2.5 -3 0 0 0 -1 I I #
edge $-1 -1 $-1 $309 -3 $313 3 $307 $429 forward @7 unknown #
straight-curve $-1 -1 $-1 0 -3 -2.5 -1 0 0 I I #
vertex $-1 -1 $-1 $204 $430 #
straight-curve $-1 -1 $-1 0 3 -2.5 1 0 0 I I #
point $-1 -1 $-1 2.5 3 -2.5 #
point $-1 -1 $-1 2.5 -3 -2.5 #
straight-curve $-1 -1 $-1 -2.5 0 2.5 0 -1 0 I I #
point $-1 -1 $-1 -2.5 3 2.5 #
point $-1 -1 $-1 -2.5 -3 2.5 #
straight-curve $-1 -1 $-1 2.5 -3 0 0 0 -1 I I #
straight-curve $-1 -1 $-1 2.5 3 0 0 0 -1 I I #
face $-1 -1 $-1 $431 $432 $21 $-1 $433 reversed single #
loop $-1 -1 $-1 $-1 $239 $221 #
plane-surface $-1 -1 $-1 -2.5 0 0 1 0 0 0 0 -1 forward_v I I I I #
coedge $-1 -1 $-1 $434 $224 $435 $436 reversed $141 $-1 #
coedge $-1 -1 $-1 $224 $434 $437 $438 reversed $141 $-1 #
coedge $-1 -1 $-1 $439 $440 $441 $227 forward $442 $-1 #
coedge $-1 -1 $-1 $443 $444 $225 $329 forward $445 $-1 #
edge $-1 -1 $-1 $240 -3.1415926535897931 $333 -1.5707963267948966 $328 $236 forward @7 unknown #
coedge $-1 -1 $-1 $446 $447 $226 $331 forward $448 $-1 #
edge $-1 -1 $-1 $332 1.5707963267948966 $155 3.1415926535897931 $330 $157 forward @7 unknown #
vertex $-1 -1 $-1 $449 $450 #
vertex $-1 -1 $-1 $451 $452 #
straight-curve $-1 -1 $-1 -1.6170810361967678e-032 3 -2.5 0 1 0 I I #
coedge $-1 -1 $-1 $453 $371 $228 $336 forward $454 $-1 #
edge $-1 -1 $-1 $156 -1.5707963267948966 $341 4.440892098500627e-017 $335 $157 forward @7 unknown #
coedge $-1 -1 $-1 $455 $229 $232 $345 reversed $340 $-1 #
coedge $-1 -1 $-1 $229 $455 $453 $456 forward $340 $-1 #
coedge $-1 -1 $-1 $457 $458 $434 $230 reversed $432 $-1 #
loop $-1 -1 $-1 $-1 $229 $459 #
vertex $-1 -1 $-1 $460 $461 #
straight-curve $-1 -1 $-1 2.5 3 -1.1102230246251568e-016 0 1 0 I I #
coedge $-1 -1 $-1 $244 $462 $231 $344 forward $222 $-1 #
edge $-1 -1 $-1 $463 -2.5 $235 1.6170810361967678e-032 $231 $464 forward @7 unknown #
edge $-1 -1 $-1 $463 -2.5 $234 1.1102230246251568e-016 $337 $465 forward @7 unknown #
face $-1 -1 $-1 $466 $233 $21 $-1 $467 reversed single #
edge $-1 -1 $-1 $234 1.1102230246251568e-016 $468 2.5 $458 $465 forward @7 unknown #
point $-1 -1 $-1 2.5 3 -1.1102230246251568e-016 #
edge $-1 -1 $-1 $235 1.6170810361967678e-032 $469 2.5 $352 $464 forward @7 unknown #
point $-1 -1 $-1 -1.6170810361967678e-032 3 2.5 #
coedge $-1 -1 $-1 $352 $237 $470 $471 reversed $353 $-1 #
coedge $-1 -1 $-1 $237 $351 $242 $349 reversed $353 $-1 #
loop $-1 -1 $-1 $-1 $237 $466 #
coedge $-1 -1 $-1 $472 $239 $444 $357 forward $323 $-1 #
coedge $-1 -1 $-1 $239 $472 $446 $251 reversed $323 $-1 #
coedge $-1 -1 $-1 $248 $470 $90 $149 reversed $365 $-1 #
edge $-1 -1 $-1 $240 1.1102230246251568e-016 $473 2.5 $444 $474 forward @7 unknown #
point $-1 -1 $-1 -2.5 3 -1.1102230246251568e-016 #
coedge $-1 -1 $-1 $243 $242 $364 $475 forward $245 $-1 #
coedge $-1 -1 $-1 $462 $244 $371 $253 forward $222 $-1 #
face $-1 -1 $-1 $476 $245 $21 $-1 $223 forward single #
vertex $-1 -1 $-1 $475 $477 #
straight-curve $-1 -1 $-1 0 -3 2.5 1 0 0 I I #
coedge $-1 -1 $-1 $470 $248 $359 $475 reversed $365 $-1 #
loop $-1 -1 $-1 $-1 $356 $478 #
straight-curve $-1 -1 $-1 -2.5 -3 0 0 0 -1 I I #
face $-1 -1 $-1 $479 $454 $21 $-1 $368 reversed single #
plane-surface $-1 -1 $-1 0 -3 0 0 1 0 0 0 1 forward_v I I I I #
vertex $-1 -1 $-1 $480 $481 #
vertex $-1 -1 $-1 $482 $483 #
coedge $-1 -1 $-1 $335 $453 $360 $253 reversed $454 $-1 #
face $-1 -1 $-1 $484 $485 $23 $-1 $486 forward single #
loop $-1 -1 $-1 $-1 $487 $255 #
plane-surface $-1 -1 $-1 0.33999999999999997 2.5 -1.5099999999999998 1 0 0 0 0 -1 forward_v I I I I #
coedge $-1 -1 $-1 $488 $489 $490 $491 forward $256 $-1 #
coedge $-1 -1 $-1 $492 $258 $489 $493 reversed $159 $-1 #
coedge $-1 -1 $-1 $258 $492 $259 $381 forward $159 $-1 #
coedge $-1 -1 $-1 $261 $490 $258 $379 reversed $171 $-1 #
edge $-1 -1 $-1 $382 -0.43749999999999978 $494 0.76249999999999996 $258 $495 forward @7 unknown #
coedge $-1 -1 $-1 $260 $259 $496 $497 reversed $95 $-1 #
edge $-1 -1 $-1 $498 0 $382 0.5 $377 $499 forward @7 unknown #
vertex $-1 -1 $-1 $381 $500 #
straight-curve $-1 -1 $-1 -0.17000000000000004 3 -0.30999999999999994 1 0 0 I I #
coedge $-1 -1 $-1 $496 $267 $263 $385 forward $390 $-1 #
edge $501 -1 $-1 $270 -0.48749999999999999 $386 0.16250000000000003 $263 $502 forward @7 unknown #
vertex $-1 -1 $-1 $385 $503 #
straight-curve $-1 -1 $-1 -1.54 2.5 -0.31000000000000005 0 1 0 I I #
point $-1 -1 $-1 -1.54 3 -0.31000000000000005 #
coedge $-1 -1 $-1 $267 $504 $272 $395 forward $390 $-1 #
loop $-1 -1 $-1 $-1 $389 $403 #
convexity-sys-attrib $-1 -1 $-1 $-1 $268 #
straight-curve $-1 -1 $-1 -0.77000000000000002 2.5 0.34000000000000008 -1 0 0 I I #
point $-1 -1 $-1 -1.54 2.5 0.34000000000000008 #
coedge $-1 -1 $-1 $273 $272 $505 $506 forward $274 $-1 #
edge $507 -1 $-1 $508 -1.3624999999999998 $275 -0.16249999999999998 $272 $509 forward @7 unknown #
face $-1 -1 $-1 $279 $274 $23 $-1 $510 forward single #
point $-1 -1 $-1 -0.34000000000000008 2.5 0.34000000000000008 #
coedge $-1 -1 $-1 $511 $277 $512 $513 reversed $171 $-1 #
coedge $-1 -1 $-1 $505 $514 $277 $400 forward $515 $-1 #
edge $-1 -1 $-1 $516 -0.51000000000000001 $401 0.17000000000000004 $399 $517 forward @7 unknown #
vertex $-1 -1 $-1 $506 $518 #
straight-curve $-1 -1 $-1 -0.34000000000000008 3 0.1775000000000001 0 0 -1 I I #
face $-1 -1 $-1 $-1 $390 $23 $-1 $519 reversed single #
plane-surface $-1 -1 $-1 1.3877787807814457e-017 3 0.015000000000000065 0 1 0 0 0 1 forward_v I I I I #
model_id-kcp-attrib $-1 -1 $-1 $-1 $283 1 1021521002 1021521002 -1693253631 9 #
face $520 -1 $-1 $521 $522 $8 $-1 $523 reversed single #
loop $-1 -1 $-1 $-1 $524 $283 #
plane-surface $-1 -1 $-1 -0.34000000000000008 6 0.34000000000000008 -1 0 0 0 0 1 forward_v I I I I #
coedge $-1 -1 $-1 $525 $526 $527 $528 reversed $286 $-1 #
coedge $-1 -1 $-1 $414 $412 $287 $411 reversed $284 $-1 #
edge $529 -1 $-1 $417 0 $418 3.1415926535897931 $410 $530 forward @7 unknown #
coedge $-1 -1 $-1 $410 $293 $288 $413 forward $284 $-1 #
edge $-1 -1 $-1 $297 0 $418 1 $412 $531 forward @7 unknown #
coedge $-1 -1 $-1 $293 $410 $289 $415 reversed $284 $-1 #
edge $-1 -1 $-1 $296 0 $417 1 $414 $532 forward @7 unknown #
attrib_edge_convexity-kcp-attrib $-1 -1 $533 $-1 $291 1 #
vertex $-1 -1 $-1 $415 $534 #
vertex $-1 -1 $-1 $411 $535 #
ellipse-curve $-1 -1 $-1 0 6 0 0 -1 0 2.5 0 0 1 I I #
attrib_edge_convexity-kcp-attrib $-1 -1 $536 $-1 $292 2 #
ellipse-curve $-1 -1 $-1 5.5511151231257827e-017 5 -5.5511151231257827e-017 0 1 0 2 0 5.5511151231257827e-017 1 I I #
attrib_edge_convexity-kcp-attrib $-1 -1 $537 $-1 $294 1 #
ellipse-curve $-1 -1 $-1 2.2204460492503131e-016 5 -1.1102230246251565e-016 0 1 0 2.5 0 1.1102230246251565e-016 1 I I #
convexity-sys-attrib $-1 -1 $-1 $295 $183 #
point $-1 -1 $-1 2.5 5 0 #
point $-1 -1 $-1 -2.5 5 -3.0615158845559431e-016 #
straight-curve $-1 -1 $-1 -2.5 3 0 0 0 -1 I I #
point $-1 -1 $-1 -2.5 -3 -2.5 #
straight-curve $-1 -1 $-1 -2.5 0 -2.5 0 1 0 I I #
point $-1 -1 $-1 -2.5 3 -2.5 #
face $-1 -1 $-1 $346 $538 $21 $-1 $467 reversed single #
loop $-1 -1 $-1 $-1 $339 $322 #
plane-surface $-1 -1 $-1 2.5 0 0 -1 0 0 0 0 1 forward_v I I I I #
coedge $-1 -1 $-1 $326 $325 $143 $230 forward $141 $-1 #
coedge $-1 -1 $-1 $539 $540 $325 $436 forward $541 $-1 #
edge $-1 -1 $-1 $341 4.440892098500627e-017 $332 1.5707963267948966 $435 $157 forward @7 unknown #
coedge $-1 -1 $-1 $542 $543 $326 $438 forward $538 $-1 #
edge $-1 -1 $-1 $333 -1.5707963267948966 $234 -4.440892098500627e-017 $437 $236 forward @7 unknown #
coedge $-1 -1 $-1 $544 $327 $543 $451 forward $442 $-1 #
coedge $-1 -1 $-1 $327 $544 $539 $545 forward $442 $-1 #
coedge $-1 -1 $-1 $546 $547 $142 $227 reversed $548 $-1 #
loop $-1 -1 $-1 $-1 $327 $476 #
coedge $-1 -1 $-1 $444 $328 $547 $549 reversed $445 $-1 #
coedge $-1 -1 $-1 $328 $443 $354 $357 reversed $445 $-1 #
loop $-1 -1 $-1 $-1 $328 $550 #
coedge $-1 -1 $-1 $447 $330 $355 $251 forward $448 $-1 #
coedge $-1 -1 $-1 $330 $446 $546 $449 reversed $448 $-1 #
loop $-1 -1 $-1 $-1 $330 $551 #
edge $-1 -1 $-1 $332 1.6170810361967678e-032 $369 2.5 $447 $552 forward @7 unknown #
point $-1 -1 $-1 -1.6170810361967678e-032 -3 -2.5 #
edge $-1 -1 $-1 $333 -1.6170810361967678e-032 $468 2.5 $543 $553 forward @7 unknown #
point $-1 -1 $-1 -1.6170810361967678e-032 3 -2.5 #
coedge $-1 -1 $-1 $371 $335 $338 $456 reversed $454 $-1 #
loop $-1 -1 $-1 $-1 $335 $367 #
coedge $-1 -1 $-1 $338 $337 $462 $482 reversed $340 $-1 #
edge $-1 -1 $-1 $370 -2.5 $341 1.1102230246251568e-016 $338 $554 forward @7 unknown #
coedge $-1 -1 $-1 $555 $339 $540 $460 forward $432 $-1 #
coedge $-1 -1 $-1 $339 $555 $542 $347 reversed $432 $-1 #
face $-1 -1 $-1 $-1 $340 $21 $-1 $433 reversed single #
edge $-1 -1 $-1 $341 1.1102230246251568e-016 $556 2.5 $457 $554 forward @7 unknown #
point $-1 -1 $-1 2.5 -3 -1.1102230246251568e-016 #
coedge $-1 -1 $-1 $343 $360 $455 $482 forward $222 $-1 #
vertex $-1 -1 $-1 $482 $557 #
straight-curve $-1 -1 $-1 0 3 2.5 -1 0 0 I I #
straight-curve $-1 -1 $-1 2.5 3 0 0 0 -1 I I #
face $-1 -1 $-1 $550 $353 $21 $-1 $467 reversed single #
plane-surface $-1 -1 $-1 0 3 0 0 -1 0 0 0 -1 forward_v I I I I #
vertex $-1 -1 $-1 $558 $559 #
vertex $-1 -1 $-1 $349 $560 #
coedge $-1 -1 $-1 $356 $364 $351 $471 forward $365 $-1 #
edge $-1 -1 $-1 $469 -2.5 $240 1.1102230246251568e-016 $351 $474 forward @7 unknown #
coedge $-1 -1 $-1 $355 $354 $561 $480 reversed $323 $-1 #
vertex $-1 -1 $-1 $549 $562 #
straight-curve $-1 -1 $-1 -2.5 3 0 0 0 -1 I I #
edge $-1 -1 $-1 $469 -3 $362 3 $364 $563 forward @7 unknown #
face $-1 -1 $-1 $478 $442 $21 $-1 $564 reversed single #
point $-1 -1 $-1 -2.5 -3 2.5 #
face $-1 -1 $-1 $459 $365 $21 $-1 $324 reversed single #
face $-1 -1 $-1 $565 $541 $21 $-1 $368 reversed single #
edge $-1 -1 $-1 $369 -3 $473 3 $472 $566 forward @7 unknown #
point $-1 -1 $-1 -2.5 -3 -2.5 #
edge $-1 -1 $-1 $370 -3 $463 3 $455 $567 forward @7 unknown #
point $-1 -1 $-1 2.5 -3 2.5 #
face $-1 -1 $-1 $568 $569 $23 $-1 $570 forward single #
loop $-1 -1 $-1 $-1 $571 $372 #
plane-surface $-1 -1 $-1 0.33999999999999997 2.5 -0.31000000000000005 0 0 -1 -1 0 0 forward_v I I I I #
coedge $-1 -1 $-1 $572 $573 $574 $575 forward $373 $-1 #
coedge $-1 -1 $-1 $576 $375 $573 $577 reversed $256 $-1 #
coedge $-1 -1 $-1 $375 $576 $376 $493 forward $256 $-1 #
coedge $-1 -1 $-1 $378 $574 $375 $491 reversed $171 $-1 #
edge $-1 -1 $-1 $494 -0.51000000000000001 $578 0.16999999999999998 $375 $579 forward @7 unknown #
coedge $-1 -1 $-1 $377 $376 $580 $581 reversed $159 $-1 #
edge $-1 -1 $-1 $582 0 $494 0.5 $489 $583 forward @7 unknown #
vertex $-1 -1 $-1 $493 $584 #
straight-curve $-1 -1 $-1 -0.34000000000000008 3 -0.74749999999999983 0 0 -1 I I #
coedge $-1 -1 $-1 $580 $384 $380 $497 forward $390 $-1 #
edge $585 -1 $-1 $386 -1.3700000000000001 $498 -0.17000000000000004 $380 $586 forward @7 unknown #
vertex $-1 -1 $-1 $497 $587 #
straight-curve $-1 -1 $-1 -0.34000000000000008 2.5 -0.31000000000000005 0 1 0 I I #
point $-1 -1 $-1 -0.34000000000000008 3 -0.31000000000000005 #
convexity-sys-attrib $-1 -1 $-1 $-1 $385 #
straight-curve $-1 -1 $-1 -1.54 2.5 -0.14749999999999991 0 0 -1 I I #
point $-1 -1 $-1 -1.54 2.5 -0.30999999999999994 #
coedge $-1 -1 $-1 $389 $588 $589 $590 forward $390 $-1 #
coedge $-1 -1 $-1 $589 $399 $394 $506 reversed $515 $-1 #
edge $-1 -1 $-1 $508 0 $401 0.5 $394 $591 forward @7 unknown #
convexity-sys-attrib $-1 -1 $-1 $-1 $395 #
vertex $-1 -1 $-1 $395 $592 #
straight-curve $-1 -1 $-1 -0.34000000000000008 2.5 0.1775000000000001 0 0 -1 I I #
plane-surface $-1 -1 $-1 -0.34000000000000008 2.5 1.54 -1 0 0 0 0 1 forward_v I I I I #
coedge $-1 -1 $-1 $593 $398 $594 $595 reversed $171 $-1 #
coedge $-1 -1 $-1 $596 $597 $398 $513 forward $598 $-1 #
edge $-1 -1 $-1 $599 -0.4375 $516 0.76249999999999996 $512 $600 forward @7 unknown #
coedge $-1 -1 $-1 $399 $589 $596 $601 forward $515 $-1 #
loop $-1 -1 $-1 $-1 $399 $602 #
vertex $-1 -1 $-1 $601 $603 #
straight-curve $-1 -1 $-1 -0.17000000000000004 3 1.54 -1 0 0 I I #
point $-1 -1 $-1 -0.34000000000000008 3 1.54 #
plane-surface $-1 -1 $-1 1.3877787807814457e-017 2.5 0.015000000000000065 0 1 0 0 0 1 forward_v I I I I #
model_id-kcp-attrib $-1 -1 $-1 $-1 $406 1 1021521002 1021521002 -1693253631 10 #
face $604 -1 $-1 $605 $606 $8 $-1 $607 reversed single #
loop $-1 -1 $-1 $-1 $608 $406 #
plane-surface $-1 -1 $-1 -0.34000000000000008 6 1.54 0 0 1 1 0 0 forward_v I I I I #
coedge $-1 -1 $-1 $609 $527 $610 $611 forward $407 $-1 #
coedge $-1 -1 $-1 $612 $409 $613 $614 reversed $286 $-1 #
coedge $-1 -1 $-1 $409 $615 $616 $617 reversed $286 $-1 #
coedge $-1 -1 $-1 $524 $618 $409 $528 forward $407 $-1 #
edge $619 -1 $-1 $620 0 $621 1.2 $409 $622 forward @7 unknown #
attrib_edge_convexity-kcp-attrib $-1 -1 $623 $-1 $411 1 #
ellipse-curve $-1 -1 $-1 0 6 0 0 1 0 2.5 0 0 1 I I #
straight-curve $-1 -1 $-1 -2.5 5 3.0615158845559431e-016 0 1 0 I I #
straight-curve $-1 -1 $-1 2.5 5 0 0 1 0 I I #
convexity-sys-attrib $-1 -1 $-1 $416 $291 #
point $-1 -1 $-1 2.5 6 0 #
point $-1 -1 $-1 -2.5 6 0 #
convexity-sys-attrib $-1 -1 $-1 $420 $292 #
convexity-sys-attrib $-1 -1 $-1 $422 $294 #
loop $-1 -1 $-1 $-1 $437 $431 #
coedge $-1 -1 $-1 $540 $435 $440 $545 reversed $541 $-1 #
coedge $-1 -1 $-1 $435 $539 $457 $460 reversed $541 $-1 #
loop $-1 -1 $-1 $-1 $435 $479 #
coedge $-1 -1 $-1 $543 $437 $458 $347 forward $538 $-1 #
coedge $-1 -1 $-1 $437 $542 $439 $451 reversed $538 $-1 #
coedge $-1 -1 $-1 $440 $439 $555 $558 forward $442 $-1 #
edge $-1 -1 $-1 $556 -2.5 $332 1.6170810361967678e-032 $539 $552 forward @7 unknown #
coedge $-1 -1 $-1 $561 $441 $447 $449 forward $548 $-1 #
coedge $-1 -1 $-1 $441 $561 $443 $549 forward $548 $-1 #
loop $-1 -1 $-1 $-1 $441 $565 #
edge $-1 -1 $-1 $473 -2.5 $333 -1.6170810361967678e-032 $443 $553 forward @7 unknown #
face $-1 -1 $-1 $551 $445 $21 $-1 $467 reversed single #
face $-1 -1 $-1 $250 $448 $21 $-1 $368 reversed single #
straight-curve $-1 -1 $-1 0 -3 -2.5 -1 0 0 I I #
straight-curve $-1 -1 $-1 0 3 -2.5 1 0 0 I I #
straight-curve $-1 -1 $-1 2.5 -3 0 0 0 -1 I I #
coedge $-1 -1 $-1 $458 $457 $544 $558 reversed $432 $-1 #
vertex $-1 -1 $-1 $460 $624 #
point $-1 -1 $-1 2.5 3 2.5 #
edge $-1 -1 $-1 $468 -3 $556 3 $555 $625 forward @7 unknown #
point $-1 -1 $-1 2.5 3 -2.5 #
point $-1 -1 $-1 -2.5 3 2.5 #
coedge $-1 -1 $-1 $547 $546 $472 $480 forward $548 $-1 #
point $-1 -1 $-1 -2.5 3 -2.5 #
straight-curve $-1 -1 $-1 -2.5 0 2.5 0 -1 0 I I #
plane-surface $-1 -1 $-1 0 0 -2.5 0 0 1 1 0 0 forward_v I I I I #
face $-1 -1 $-1 $361 $548 $21 $-1 $564 reversed single #
straight-curve $-1 -1 $-1 -2.5 0 -2.5 0 1 0 I I #
straight-curve $-1 -1 $-1 2.5 0 2.5 0 1 0 I I #
face $-1 -1 $-1 $626 $627 $23 $-1 $628 forward single #
loop $-1 -1 $-1 $-1 $629 $484 #
plane-surface $-1 -1 $-1 1.54 2.5 -0.31000000000000005 1 0 0 0 0 -1 forward_v I I I I #
coedge $-1 -1 $-1 $630 $631 $632 $633 forward $485 $-1 #
coedge $-1 -1 $-1 $634 $487 $631 $635 reversed $373 $-1 #
coedge $-1 -1 $-1 $487 $634 $488 $577 forward $373 $-1 #
coedge $-1 -1 $-1 $490 $632 $487 $575 reversed $171 $-1 #
edge $-1 -1 $-1 $578 -1.3624999999999998 $636 -0.16250000000000014 $487 $637 forward @7 unknown #
coedge $-1 -1 $-1 $489 $488 $638 $639 reversed $256 $-1 #
edge $-1 -1 $-1 $640 0 $578 0.5 $573 $641 forward @7 unknown #
vertex $-1 -1 $-1 $577 $642 #
straight-curve $-1 -1 $-1 0.16999999999999998 3 -1.5099999999999998 1 0 0 I I #
coedge $-1 -1 $-1 $638 $496 $492 $581 forward $390 $-1 #
edge $643 -1 $-1 $498 -0.43749999999999989 $582 0.76249999999999996 $492 $644 forward @7 unknown #
vertex $-1 -1 $-1 $581 $645 #
straight-curve $-1 -1 $-1 -0.34000000000000008 2.5 -1.5099999999999998 0 1 0 I I #
point $-1 -1 $-1 -0.34000000000000008 3 -1.5099999999999998 #
convexity-sys-attrib $-1 -1 $-1 $-1 $497 #
straight-curve $-1 -1 $-1 -0.17000000000000004 2.5 -0.30999999999999994 1 0 0 I I #
point $-1 -1 $-1 -0.34000000000000008 2.5 -0.30999999999999994 #
coedge $-1 -1 $-1 $504 $646 $647 $648 forward $390 $-1 #
coedge $-1 -1 $-1 $514 $505 $504 $590 reversed $515 $-1 #
edge $649 -1 $-1 $650 -0.51000000000000001 $508 0.17000000000000004 $589 $651 forward @7 unknown #
straight-curve $-1 -1 $-1 -0.34000000000000008 2.5 1.54 0 1 0 I I #
point $-1 -1 $-1 -0.34000000000000008 2.5 1.54 #
coedge $-1 -1 $-1 $632 $511 $629 $652 reversed $171 $-1 #
coedge $-1 -1 $-1 $653 $654 $511 $595 forward $627 $-1 #
edge $-1 -1 $-1 $655 -1.3700000000000001 $599 -0.16999999999999998 $594 $656 forward @7 unknown #
coedge $-1 -1 $-1 $647 $512 $514 $601 reversed $598 $-1 #
coedge $-1 -1 $-1 $512 $647 $653 $657 forward $598 $-1 #
loop $-1 -1 $-1 $-1 $512 $626 #
vertex $-1 -1 $-1 $657 $658 #
straight-curve $-1 -1 $-1 0.33999999999999997 3 0.77750000000000008 0 0 1 I I #
edge $-1 -1 $-1 $650 0 $516 0.5 $514 $659 forward @7 unknown #
face $-1 -1 $-1 $396 $515 $23 $-1 $660 forward single #
point $-1 -1 $-1 0.33999999999999997 3 1.54 #
model_id-kcp-attrib $-1 -1 $-1 $-1 $521 1 1021521002 1021521002 -1693253631 11 #
face $661 -1 $-1 $662 $663 $8 $-1 $664 reversed single #
loop $-1 -1 $-1 $-1 $665 $521 #
plane-surface $-1 -1 $-1 0.33999999999999997 6 1.54 1 0 0 0 0 -1 forward_v I I I I #
coedge $-1 -1 $-1 $666 $616 $667 $668 forward $522 $-1 #
coedge $-1 -1 $-1 $618 $524 $669 $670 reversed $407 $-1 #
coedge $-1 -1 $-1 $616 $666 $524 $611 reversed $522 $-1 #
edge $-1 -1 $-1 $621 0 $671 0.5 $524 $672 forward @7 unknown #
coedge $-1 -1 $-1 $673 $525 $674 $675 reversed $286 $-1 #
coedge $-1 -1 $-1 $676 $677 $525 $614 forward $678 $-1 #
edge $679 -1 $-1 $680 0 $620 1.2 $525 $681 forward @7 unknown #
coedge $-1 -1 $-1 $526 $682 $683 $684 reversed $286 $-1 #
coedge $-1 -1 $-1 $608 $610 $526 $617 forward $522 $-1 #
edge $685 -1 $-1 $621 0 $686 0.68000000000000005 $526 $687 forward @7 unknown #
coedge $-1 -1 $-1 $527 $609 $676 $688 reversed $407 $-1 #
attrib_edge_convexity-kcp-attrib $-1 -1 $689 $-1 $528 1 #
vertex $-1 -1 $-1 $614 $690 #
vertex $-1 -1 $-1 $617 $691 #
straight-curve $-1 -1 $-1 -0.34000000000000008 6 0.34000000000000008 0 0 1 I I #
convexity-sys-attrib $-1 -1 $-1 $529 $411 #
point $-1 -1 $-1 2.5 -3 -2.5 #
straight-curve $-1 -1 $-1 2.5 0 -2.5 0 -1 0 I I #
face $-1 -1 $-1 $602 $598 $23 $-1 $692 forward single #
loop $-1 -1 $-1 $-1 $594 $568 #
plane-surface $-1 -1 $-1 1.54 2.5 0.34000000000000008 0 0 1 1 0 0 forward_v I I I I #
coedge $-1 -1 $-1 $693 $694 $593 $652 forward $569 $-1 #
coedge $-1 -1 $-1 $695 $571 $694 $696 reversed $485 $-1 #
coedge $-1 -1 $-1 $571 $695 $572 $635 forward $485 $-1 #
coedge $-1 -1 $-1 $574 $593 $571 $633 reversed $171 $-1 #
edge $-1 -1 $-1 $636 -0.43000000000000005 $697 0.77000000000000002 $571 $698 forward @7 unknown #
coedge $-1 -1 $-1 $573 $572 $699 $700 reversed $373 $-1 #
edge $-1 -1 $-1 $701 0 $636 0.5 $631 $702 forward @7 unknown #
vertex $-1 -1 $-1 $635 $703 #
straight-curve $-1 -1 $-1 0.33999999999999997 3 -0.14749999999999991 0 0 1 I I #
coedge $-1 -1 $-1 $699 $580 $576 $639 forward $390 $-1 #
edge $704 -1 $-1 $582 -0.51000000000000001 $640 0.16999999999999998 $576 $705 forward @7 unknown #
vertex $-1 -1 $-1 $639 $706 #
straight-curve $-1 -1 $-1 0.33999999999999997 2.5 -1.5099999999999998 0 1 0 I I #
point $-1 -1 $-1 0.33999999999999997 3 -1.5099999999999998 #
convexity-sys-attrib $-1 -1 $-1 $-1 $581 #
straight-curve $-1 -1 $-1 -0.34000000000000008 2.5 -0.74749999999999983 0 0 -1 I I #
point $-1 -1 $-1 -0.34000000000000008 2.5 -1.5099999999999998 #
coedge $-1 -1 $-1 $588 $707 $708 $709 forward $390 $-1 #
coedge $-1 -1 $-1 $597 $596 $588 $648 reversed $598 $-1 #
edge $710 -1 $-1 $711 -0.4375 $650 0.76249999999999996 $647 $712 forward @7 unknown #
convexity-sys-attrib $-1 -1 $-1 $-1 $590 #
vertex $-1 -1 $-1 $648 $713 #
straight-curve $-1 -1 $-1 -0.17000000000000004 2.5 1.54 -1 0 0 I I #
edge $-1 -1 $-1 $697 -0.48750000000000016 $655 0.16249999999999998 $629 $714 forward @7 unknown #
coedge $-1 -1 $-1 $708 $594 $597 $657 reversed $627 $-1 #
coedge $-1 -1 $-1 $594 $708 $693 $715 forward $627 $-1 #
vertex $-1 -1 $-1 $715 $716 #
straight-curve $-1 -1 $-1 0.16999999999999998 3 0.34000000000000008 -1 0 0 I I #
edge $-1 -1 $-1 $711 0 $599 0.5 $597 $717 forward @7 unknown #
point $-1 -1 $-1 0.33999999999999997 3 0.34000000000000008 #
straight-curve $-1 -1 $-1 0.33999999999999997 2.5 1.54 0 1 0 I I #
plane-surface $-1 -1 $-1 0.33999999999999997 2.5 1.54 0 0 1 1 0 0 forward_v I I I I #
model_id-kcp-attrib $-1 -1 $-1 $-1 $605 1 1021521002 1021521002 -1693253631 12 #
face $718 -1 $-1 $719 $720 $8 $-1 $721 reversed single #
loop $-1 -1 $-1 $-1 $722 $605 #
plane-surface $-1 -1 $-1 0.33999999999999997 6 0.34000000000000008 0 0 1 1 0 0 forward_v I I I I #
coedge $-1 -1 $-1 $723 $683 $724 $725 forward $606 $-1 #
coedge $-1 -1 $-1 $610 $608 $726 $727 reversed $522 $-1 #
coedge $-1 -1 $-1 $683 $723 $608 $668 reversed $606 $-1 #
edge $-1 -1 $-1 $686 0 $728 0.5 $608 $729 forward @7 unknown #
coedge $-1 -1 $-1 $726 $730 $609 $670 forward $731 $-1 #
edge $732 -1 $-1 $733 0 $671 1.2 $669 $734 forward @7 unknown #
vertex $-1 -1 $-1 $727 $735 #
straight-curve $-1 -1 $-1 -0.34000000000000008 6 1.54 0 -1 0 I I #
coedge $-1 -1 $-1 $736 $612 $737 $738 reversed $286 $-1 #
coedge $-1 -1 $-1 $739 $740 $612 $675 forward $741 $-1 #
edge $742 -1 $-1 $743 0 $680 0.65000000000000002 $612 $744 forward @7 unknown #
coedge $-1 -1 $-1 $745 $613 $618 $688 forward $678 $-1 #
coedge $-1 -1 $-1 $613 $745 $739 $746 reversed $678 $-1 #
loop $-1 -1 $-1 $-1 $676 $747 #
attrib_edge_convexity-kcp-attrib $-1 -1 $748 $-1 $614 1 #
vertex $-1 -1 $-1 $675 $749 #
straight-curve $-1 -1 $-1 -1.54 6 0.34000000000000008 1 0 0 I I #
coedge $-1 -1 $-1 $615 $750 $751 $752 reversed $286 $-1 #
coedge $-1 -1 $-1 $665 $667 $615 $684 forward $606 $-1 #
edge $753 -1 $-1 $686 0 $754 1.2 $615 $755 forward @7 unknown #
attrib_edge_convexity-kcp-attrib $-1 -1 $756 $-1 $617 1 #
vertex $-1 -1 $-1 $617 $757 #
straight-curve $-1 -1 $-1 -0.34000000000000008 6 1.54 1 0 0 I I #
edge $-1 -1 $-1 $620 0 $733 0.5 $676 $758 forward @7 unknown #
convexity-sys-attrib $-1 -1 $-1 $619 $528 #
point $-1 -1 $-1 -0.34000000000000008 6 0.34000000000000008 #
point $-1 -1 $-1 -0.34000000000000008 6 1.54 #
plane-surface $-1 -1 $-1 0.33999999999999997 2.5 0.34000000000000008 1 0 0 0 0 -1 forward_v I I I I #
coedge $-1 -1 $-1 $759 $629 $654 $715 reversed $569 $-1 #
coedge $-1 -1 $-1 $629 $759 $630 $696 forward $569 $-1 #
coedge $-1 -1 $-1 $631 $630 $760 $761 reversed $485 $-1 #
edge $-1 -1 $-1 $762 0 $697 0.5 $694 $763 forward @7 unknown #
vertex $-1 -1 $-1 $696 $764 #
straight-curve $-1 -1 $-1 0.77000000000000002 3 -0.30999999999999994 1 0 0 I I #
coedge $-1 -1 $-1 $760 $638 $634 $700 forward $390 $-1 #
edge $765 -1 $-1 $640 -1.3624999999999998 $701 -0.16250000000000003 $634 $766 forward @7 unknown #
vertex $-1 -1 $-1 $700 $767 #
straight-curve $-1 -1 $-1 0.33999999999999997 2.5 -0.31000000000000005 0 1 0 I I #
point $-1 -1 $-1 0.33999999999999997 3 -0.31000000000000005 #
convexity-sys-attrib $-1 -1 $-1 $-1 $639 #
straight-curve $-1 -1 $-1 0.16999999999999998 2.5 -1.5099999999999998 1 0 0 I I #
point $-1 -1 $-1 0.33999999999999997 2.5 -1.5099999999999998 #
coedge $-1 -1 $-1 $646 $760 $759 $768 forward $390 $-1 #
coedge $-1 -1 $-1 $654 $653 $646 $709 reversed $627 $-1 #
edge $769 -1 $-1 $770 -1.3700000000000001 $711 -0.16999999999999998 $708 $771 forward @7 unknown #
convexity-sys-attrib $-1 -1 $-1 $-1 $648 #
vertex $-1 -1 $-1 $709 $772 #
straight-curve $-1 -1 $-1 0.33999999999999997 2.5 0.77750000000000008 0 0 1 I I #
point $-1 -1 $-1 0.33999999999999997 2.5 1.54 #
straight-curve $-1 -1 $-1 1.54 3 0.1775000000000001 0 0 1 I I #
edge $-1 -1 $-1 $770 0 $655 0.5 $654 $773 forward @7 unknown #
point $-1 -1 $-1 1.54 3 0.34000000000000008 #
straight-curve $-1 -1 $-1 0.33999999999999997 2.5 0.34000000000000008 0 1 0 I I #
model_id-kcp-attrib $-1 -1 $-1 $-1 $662 1 1021521002 1021521002 -1693253631 13 #
face $774 -1 $-1 $775 $776 $8 $-1 $777 reversed single #
loop $-1 -1 $-1 $-1 $778 $662 #
plane-surface $-1 -1 $-1 1.54 6 0.34000000000000008 1 0 0 0 0 -1 forward_v I I I I #
coedge $-1 -1 $-1 $779 $751 $780 $781 forward $663 $-1 #
coedge $-1 -1 $-1 $667 $665 $782 $783 reversed $606 $-1 #
coedge $-1 -1 $-1 $751 $779 $665 $725 reversed $663 $-1 #
edge $-1 -1 $-1 $754 0 $784 0.5 $665 $785 forward @7 unknown #
coedge $-1 -1 $-1 $782 $669 $666 $727 forward $731 $-1 #
edge $786 -1 $-1 $671 0 $728 0.68000000000000005 $726 $787 forward @7 unknown #
vertex $-1 -1 $-1 $783 $788 #
straight-curve $-1 -1 $-1 0.33999999999999997 6 1.54 0 -1 0 I I #
coedge $-1 -1 $-1 $669 $789 $745 $790 forward $731 $-1 #
loop $-1 -1 $-1 $-1 $791 $792 #
attrib_edge_convexity-kcp-attrib $-1 -1 $793 $-1 $670 2 #
vertex $-1 -1 $-1 $670 $794 #
straight-curve $-1 -1 $-1 -0.34000000000000008 5.5 0.34000000000000008 0 0 1 I I #
point $-1 -1 $-1 -0.34000000000000008 5.5 1.54 #
coedge $-1 -1 $-1 $795 $673 $796 $797 reversed $286 $-1 #
coedge $-1 -1 $-1 $798 $799 $673 $738 forward $800 $-1 #
edge $801 -1 $-1 $802 0 $743 1.2 $673 $803 forward @7 unknown #
coedge $-1 -1 $-1 $804 $674 $677 $746 forward $741 $-1 #
coedge $-1 -1 $-1 $674 $804 $798 $805 reversed $741 $-1 #
loop $-1 -1 $-1 $-1 $739 $806 #
attrib_edge_convexity-kcp-attrib $-1 -1 $807 $-1 $675 1 #
vertex $-1 -1 $-1 $738 $808 #
straight-curve $-1 -1 $-1 -1.54 6 -0.30999999999999994 0 0 1 I I #
coedge $-1 -1 $-1 $677 $676 $730 $790 reversed $678 $-1 #
edge $-1 -1 $-1 $680 0 $809 0.5 $739 $810 forward @7 unknown #
face $811 -1 $-1 $792 $678 $8 $-1 $812 reversed single #
convexity-sys-attrib $-1 -1 $-1 $679 $614 #
point $-1 -1 $-1 -1.54 6 0.34000000000000008 #
coedge $-1 -1 $-1 $682 $813 $814 $815 reversed $286 $-1 #
coedge $-1 -1 $-1 $722 $724 $682 $752 forward $663 $-1 #
edge $816 -1 $-1 $754 0 $817 1.2000000000000002 $682 $818 forward @7 unknown #
attrib_edge_convexity-kcp-attrib $-1 -1 $819 $-1 $684 1 #
vertex $-1 -1 $-1 $684 $820 #
straight-curve $-1 -1 $-1 0.33999999999999997 6 1.54 0 0 -1 I I #
convexity-sys-attrib $-1 -1 $-1 $685 $617 #
point $-1 -1 $-1 0.33999999999999997 6 1.54 #
straight-curve $-1 -1 $-1 -0.34000000000000008 6 0.34000000000000008 0 -1 0 I I #
coedge $-1 -1 $-1 $694 $693 $707 $768 reversed $569 $-1 #
coedge $-1 -1 $-1 $707 $699 $695 $761 forward $390 $-1 #
edge $821 -1 $-1 $701 -0.43000000000000005 $762 0.77000000000000002 $695 $822 forward @7 unknown #
vertex $-1 -1 $-1 $761 $823 #
straight-curve $-1 -1 $-1 1.54 2.5 -0.31000000000000005 0 1 0 I I #
point $-1 -1 $-1 1.54 3 -0.31000000000000005 #
convexity-sys-attrib $-1 -1 $-1 $-1 $700 #
straight-curve $-1 -1 $-1 0.33999999999999997 2.5 -0.14749999999999991 0 0 1 I I #
point $-1 -1 $-1 0.33999999999999997 2.5 -0.30999999999999994 #
edge $824 -1 $-1 $762 -0.48750000000000004 $770 0.16249999999999998 $759 $825 forward @7 unknown #
convexity-sys-attrib $-1 -1 $-1 $-1 $709 #
vertex $-1 -1 $-1 $768 $826 #
straight-curve $-1 -1 $-1 0.16999999999999998 2.5 0.34000000000000008 -1 0 0 I I #
point $-1 -1 $-1 0.33999999999999997 2.5 0.34000000000000008 #
straight-curve $-1 -1 $-1 1.54 2.5 0.34000000000000008 0 1 0 I I #
model_id-kcp-attrib $-1 -1 $-1 $-1 $719 1 1021521002 1021521002 -1693253631 14 #
face $827 -1 $-1 $828 $829 $8 $-1 $830 reversed single #
loop $-1 -1 $-1 $-1 $831 $719 #
plane-surface $-1 -1 $-1 1.54 6 -0.30999999999999994 0 0 -1 -1 0 0 forward_v I I I I #
coedge $-1 -1 $-1 $832 $814 $833 $834 forward $720 $-1 #
coedge $-1 -1 $-1 $724 $722 $835 $836 reversed $663 $-1 #
coedge $-1 -1 $-1 $814 $832 $722 $781 reversed $720 $-1 #
edge $-1 -1 $-1 $817 0 $837 0.5 $722 $838 forward @7 unknown #
coedge $-1 -1 $-1 $835 $726 $723 $783 forward $731 $-1 #
edge $839 -1 $-1 $728 0 $784 1.2 $782 $840 forward @7 unknown #
vertex $-1 -1 $-1 $836 $841 #
straight-curve $-1 -1 $-1 0.33999999999999997 6 0.34000000000000008 0 -1 0 I I #
attrib_edge_convexity-kcp-attrib $-1 -1 $842 $-1 $727 2 #
straight-curve $-1 -1 $-1 -0.34000000000000008 5.5 1.54 1 0 0 I I #
point $-1 -1 $-1 0.33999999999999997 5.5 1.54 #
coedge $-1 -1 $-1 $730 $843 $804 $844 forward $731 $-1 #
edge $845 -1 $-1 $809 0 $733 1.2 $730 $846 forward @7 unknown #
coedge $-1 -1 $-1 $847 $848 $849 $850 forward $731 $-1 #
face $851 -1 $-1 $192 $731 $8 $-1 $852 forward single #
convexity-sys-attrib $-1 -1 $-1 $732 $670 #
point $-1 -1 $-1 -0.34000000000000008 5.5 0.34000000000000008 #
coedge $-1 -1 $-1 $853 $736 $854 $855 reversed $286 $-1 #
coedge $-1 -1 $-1 $856 $857 $736 $797 forward $858 $-1 #
edge $859 -1 $-1 $860 0 $802 1.1999999999999997 $736 $861 forward @7 unknown #
coedge $-1 -1 $-1 $862 $737 $740 $805 forward $800 $-1 #
coedge $-1 -1 $-1 $737 $862 $856 $863 reversed $800 $-1 #
loop $-1 -1 $-1 $-1 $798 $864 #
attrib_edge_convexity-kcp-attrib $-1 -1 $865 $-1 $738 1 #
vertex $-1 -1 $-1 $797 $866 #
straight-curve $-1 -1 $-1 -0.34000000000000008 6 -0.30999999999999994 -1 0 0 I I #
coedge $-1 -1 $-1 $740 $739 $789 $844 reversed $741 $-1 #
edge $-1 -1 $-1 $743 0 $867 0.5 $798 $868 forward @7 unknown #
face $869 -1 $-1 $747 $741 $8 $-1 $870 reversed single #
convexity-sys-attrib $-1 -1 $-1 $742 $675 #
point $-1 -1 $-1 -1.54 6 -0.30999999999999994 #
vertex $-1 -1 $-1 $790 $871 #
straight-curve $-1 -1 $-1 -1.54 6 0.34000000000000008 0 -1 0 I I #
model_id-kcp-attrib $-1 -1 $-1 $-1 $747 1 1021521002 1021521002 -1693253631 20 #
plane-surface $-1 -1 $-1 -1.54 6 0.34000000000000008 0 0 1 1 0 0 forward_v I I I I #
coedge $-1 -1 $-1 $750 $853 $872 $873 reversed $286 $-1 #
coedge $-1 -1 $-1 $778 $780 $750 $815 forward $720 $-1 #
edge $874 -1 $-1 $817 0 $875 0.65000000000000002 $750 $876 forward @7 unknown #
attrib_edge_convexity-kcp-attrib $-1 -1 $877 $-1 $752 1 #
vertex $-1 -1 $-1 $752 $878 #
straight-curve $-1 -1 $-1 0.33999999999999997 6 0.34000000000000008 1 0 0 I I #
convexity-sys-attrib $-1 -1 $-1 $753 $684 #
point $-1 -1 $-1 0.33999999999999997 6 0.34000000000000008 #
convexity-sys-attrib $-1 -1 $-1 $-1 $761 #
straight-curve $-1 -1 $-1 0.77000000000000002 2.5 -0.30999999999999994 1 0 0 I I #
point $-1 -1 $-1 1.54 2.5 -0.30999999999999994 #
convexity-sys-attrib $-1 -1 $-1 $-1 $768 #
straight-curve $-1 -1 $-1 1.54 2.5 0.1775000000000001 0 0 1 I I #
point $-1 -1 $-1 1.54 2.5 0.34000000000000008 #
model_id-kcp-attrib $-1 -1 $-1 $-1 $775 1 1021521002 1021521002 -1693253631 15 #
face $879 -1 $-1 $880 $881 $8 $-1 $882 reversed single #
loop $-1 -1 $-1 $-1 $883 $775 #
plane-surface $-1 -1 $-1 0.33999999999999997 6 -0.30999999999999994 1 0 0 0 0 -1 forward_v I I I I #
coedge $-1 -1 $-1 $884 $872 $885 $886 forward $776 $-1 #
coedge $-1 -1 $-1 $780 $778 $887 $888 reversed $720 $-1 #
coedge $-1 -1 $-1 $872 $884 $778 $834 reversed $776 $-1 #
edge $-1 -1 $-1 $875 0 $889 0.5 $833 $890 forward @7 unknown #
coedge $-1 -1 $-1 $887 $782 $779 $836 forward $731 $-1 #
edge $891 -1 $-1 $784 0 $837 1.2000000000000002 $835 $892 forward @7 unknown #
vertex $-1 -1 $-1 $888 $893 #
straight-curve $-1 -1 $-1 1.54 6 0.34000000000000008 0 -1 0 I I #
attrib_edge_convexity-kcp-attrib $-1 -1 $894 $-1 $783 2 #
straight-curve $-1 -1 $-1 0.33999999999999997 5.5 1.54 0 0 -1 I I #
point $-1 -1 $-1 0.33999999999999997 5.5 0.34000000000000008 #
convexity-sys-attrib $-1 -1 $-1 $786 $727 #
coedge $-1 -1 $-1 $789 $895 $862 $896 forward $731 $-1 #
edge $897 -1 $-1 $867 0 $809 0.65000000000000002 $789 $898 forward @7 unknown #
attrib_edge_convexity-kcp-attrib $-1 -1 $899 $-1 $790 2 #
straight-curve $-1 -1 $-1 -1.54 5.5 0.34000000000000008 1 0 0 I I #
coedge $-1 -1 $-1 $895 $791 $900 $901 forward $731 $-1 #
coedge $-1 -1 $-1 $791 $887 $884 $902 forward $731 $-1 #
coedge $-1 -1 $-1 $885 $883 $791 $850 reversed $829 $-1 #
edge $903 -1 $-1 $904 0 $905 1.1999999999999997 $791 $906 forward @7 unknown #
model_id-kcp-attrib $-1 -1 $-1 $-1 $792 1 1021521002 1021521002 -1693253631 21 #
plane-surface $-1 -1 $-1 0 5.5 0 0 1 0 0 0 1 forward_v I I I I #
coedge $-1 -1 $-1 $813 $795 $907 $908 reversed $286 $-1 #
coedge $-1 -1 $-1 $909 $910 $795 $855 forward $881 $-1 #
edge $911 -1 $-1 $912 0 $860 0.68000000000000005 $795 $913 forward @7 unknown #
coedge $-1 -1 $-1 $914 $796 $799 $863 forward $858 $-1 #
coedge $-1 -1 $-1 $796 $914 $909 $915 reversed $858 $-1 #
loop $-1 -1 $-1 $-1 $856 $880 #
attrib_edge_convexity-kcp-attrib $-1 -1 $916 $-1 $797 1 #
vertex $-1 -1 $-1 $855 $917 #
straight-curve $-1 -1 $-1 -0.34000000000000008 6 -1.5099999999999998 0 0 1 I I #
coedge $-1 -1 $-1 $799 $798 $843 $896 reversed $800 $-1 #
edge $-1 -1 $-1 $802 0 $918 0.5 $856 $919 forward @7 unknown #
face $920 -1 $-1 $806 $800 $8 $-1 $921 reversed single #
convexity-sys-attrib $-1 -1 $-1 $801 $738 #
point $-1 -1 $-1 -0.34000000000000008 6 -0.30999999999999994 #
vertex $-1 -1 $-1 $844 $922 #
straight-curve $-1 -1 $-1 -1.54 6 -0.30999999999999994 0 -1 0 I I #
model_id-kcp-attrib $-1 -1 $-1 $-1 $806 1 1021521002 1021521002 -1693253631 19 #
plane-surface $-1 -1 $-1 -1.54 6 -0.30999999999999994 -1 0 0 0 0 1 forward_v I I I I #
point $-1 -1 $-1 -1.54 5.5 0.34000000000000008 #
coedge $-1 -1 $-1 $831 $833 $813 $873 forward $776 $-1 #
edge $923 -1 $-1 $875 0 $924 1.2000000000000002 $813 $925 forward @7 unknown #
attrib_edge_convexity-kcp-attrib $-1 -1 $926 $-1 $815 1 #
vertex $-1 -1 $-1 $815 $927 #
straight-curve $-1 -1 $-1 1.54 6 0.34000000000000008 0 0 -1 I I #
convexity-sys-attrib $-1 -1 $-1 $816 $752 #
point $-1 -1 $-1 1.54 6 0.34000000000000008 #
model_id-kcp-attrib $-1 -1 $-1 $-1 $828 1 1021521002 1021521002 -1693253631 16 #
face $928 -1 $-1 $864 $858 $8 $-1 $929 reversed single #
loop $-1 -1 $-1 $-1 $909 $828 #
plane-surface $-1 -1 $-1 0.33999999999999997 6 -1.5099999999999998 0 0 -1 -1 0 0 forward_v I I I I #
coedge $-1 -1 $-1 $849 $907 $910 $930 forward $829 $-1 #
coedge $-1 -1 $-1 $833 $831 $848 $902 reversed $776 $-1 #
coedge $-1 -1 $-1 $907 $849 $831 $886 reversed $829 $-1 #
edge $-1 -1 $-1 $924 0 $904 0.5 $831 $931 forward @7 unknown #
coedge $-1 -1 $-1 $848 $835 $832 $888 forward $731 $-1 #
edge $932 -1 $-1 $837 0 $889 0.65000000000000002 $887 $933 forward @7 unknown #
vertex $-1 -1 $-1 $902 $934 #
straight-curve $-1 -1 $-1 1.54 6 -0.30999999999999994 0 -1 0 I I #
attrib_edge_convexity-kcp-attrib $-1 -1 $935 $-1 $836 2 #
straight-curve $-1 -1 $-1 0.33999999999999997 5.5 0.34000000000000008 1 0 0 I I #
point $-1 -1 $-1 1.54 5.5 0.34000000000000008 #
convexity-sys-attrib $-1 -1 $-1 $839 $783 #
coedge $-1 -1 $-1 $843 $847 $914 $936 forward $731 $-1 #
edge $937 -1 $-1 $918 0 $867 1.2 $843 $938 forward @7 unknown #
attrib_edge_convexity-kcp-attrib $-1 -1 $939 $-1 $844 2 #
straight-curve $-1 -1 $-1 -1.54 5.5 -0.30999999999999994 0 0 1 I I #
convexity-sys-attrib $-1 -1 $-1 $845 $790 #
coedge $-1 -1 $-1 $910 $909 $847 $901 reversed $881 $-1 #
edge $940 -1 $-1 $905 0 $941 0.68000000000000005 $847 $942 forward @7 unknown #
edge $943 -1 $-1 $889 0 $904 1.2000000000000002 $848 $944 forward @7 unknown #
attrib_edge_convexity-kcp-attrib $-1 -1 $945 $-1 $850 2 #
vertex $-1 -1 $-1 $902 $946 #
vertex $-1 -1 $-1 $901 $947 #
straight-curve $-1 -1 $-1 0.33999999999999997 5.5 -0.30999999999999994 0 0 -1 I I #
coedge $-1 -1 $-1 $883 $885 $853 $908 forward $829 $-1 #
edge $948 -1 $-1 $924 0 $912 1.1999999999999997 $853 $949 forward @7 unknown #
coedge $-1 -1 $-1 $900 $854 $857 $915 forward $881 $-1 #
coedge $-1 -1 $-1 $854 $900 $883 $930 reversed $881 $-1 #
attrib_edge_convexity-kcp-attrib $-1 -1 $950 $-1 $855 1 #
vertex $-1 -1 $-1 $908 $951 #
straight-curve $-1 -1 $-1 0.33999999999999997 6 -1.5099999999999998 -1 0 0 I I #
coedge $-1 -1 $-1 $857 $856 $895 $936 reversed $858 $-1 #
edge $-1 -1 $-1 $860 0 $941 0.5 $909 $952 forward @7 unknown #
convexity-sys-attrib $-1 -1 $-1 $859 $797 #
point $-1 -1 $-1 -0.34000000000000008 6 -1.5099999999999998 #
vertex $-1 -1 $-1 $896 $953 #
straight-curve $-1 -1 $-1 -0.34000000000000008 6 -0.31000000000000005 0 -1 0 I I #
model_id-kcp-attrib $-1 -1 $-1 $-1 $864 1 1021521002 1021521002 -1693253631 18 #
plane-surface $-1 -1 $-1 -0.34000000000000008 6 -0.30999999999999994 0 0 -1 -1 0 0 forward_v I I I I #
point $-1 -1 $-1 -1.54 5.5 -0.30999999999999994 #
attrib_edge_convexity-kcp-attrib $-1 -1 $954 $-1 $873 1 #
vertex $-1 -1 $-1 $873 $955 #
straight-curve $-1 -1 $-1 1.54 6 -0.30999999999999994 -1 0 0 I I #
convexity-sys-attrib $-1 -1 $-1 $874 $815 #
point $-1 -1 $-1 1.54 6 -0.30999999999999994 #
model_id-kcp-attrib $-1 -1 $-1 $-1 $880 1 1021521002 1021521002 -1693253631 17 #
plane-surface $-1 -1 $-1 -0.34000000000000008 6 -1.5099999999999998 -1 0 0 0 0 1 forward_v I I I I #
edge $-1 -1 $-1 $912 0 $905 0.5 $883 $956 forward @7 unknown #
straight-curve $-1 -1 $-1 0.33999999999999986 6 -0.30999999999999994 0 -1 0 I I #
attrib_edge_convexity-kcp-attrib $-1 -1 $957 $-1 $888 2 #
straight-curve $-1 -1 $-1 1.54 5.5 0.34000000000000008 0 0 -1 I I #
point $-1 -1 $-1 1.54 5.5 -0.30999999999999994 #
convexity-sys-attrib $-1 -1 $-1 $891 $836 #
edge $958 -1 $-1 $941 0 $918 1.1999999999999997 $895 $959 forward @7 unknown #
attrib_edge_convexity-kcp-attrib $-1 -1 $960 $-1 $896 2 #
straight-curve $-1 -1 $-1 -0.34000000000000008 5.5 -0.30999999999999994 -1 0 0 I I #
convexity-sys-attrib $-1 -1 $-1 $897 $844 #
attrib_edge_convexity-kcp-attrib $-1 -1 $961 $-1 $901 2 #
vertex $-1 -1 $-1 $936 $962 #
straight-curve $-1 -1 $-1 0.33999999999999997 5.5 -1.5099999999999998 -1 0 0 I I #
attrib_edge_convexity-kcp-attrib $-1 -1 $963 $-1 $902 2 #
straight-curve $-1 -1 $-1 1.54 5.5 -0.30999999999999994 -1 0 0 I I #
convexity-sys-attrib $-1 -1 $-1 $903 $850 #
point $-1 -1 $-1 0.33999999999999997 5.5 -0.30999999999999994 #
point $-1 -1 $-1 0.33999999999999997 5.5 -1.5099999999999998 #
attrib_edge_convexity-kcp-attrib $-1 -1 $964 $-1 $908 1 #
straight-curve $-1 -1 $-1 0.33999999999999997 6 -0.30999999999999994 0 0 -1 I I #
convexity-sys-attrib $-1 -1 $-1 $911 $855 #
point $-1 -1 $-1 0.33999999999999997 6 -1.5099999999999998 #
straight-curve $-1 -1 $-1 -0.34000000000000008 6 -1.5099999999999998 0 -1 0 I I #
point $-1 -1 $-1 -0.34000000000000008 5.5 -0.30999999999999994 #
convexity-sys-attrib $-1 -1 $-1 $923 $873 #
point $-1 -1 $-1 0.33999999999999997 6 -0.30999999999999994 #
straight-curve $-1 -1 $-1 0.33999999999999997 6 -1.5099999999999998 0 -1 0 I I #
convexity-sys-attrib $-1 -1 $-1 $932 $888 #
attrib_edge_convexity-kcp-attrib $-1 -1 $965 $-1 $936 2 #
straight-curve $-1 -1 $-1 -0.34000000000000008 5.5 -1.5099999999999998 0 0 1 I I #
convexity-sys-attrib $-1 -1 $-1 $937 $896 #
convexity-sys-attrib $-1 -1 $-1 $940 $901 #
point $-1 -1 $-1 -0.34000000000000008 5.5 -1.5099999999999998 #
convexity-sys-attrib $-1 -1 $-1 $943 $902 #
convexity-sys-attrib $-1 -1 $-1 $948 $908 #
convexity-sys-attrib $-1 -1 $-1 $958 $936 #
End-of-ACIS-data 