600 0 1 0           
92 GICL ACIS Healer - Source: /gicl/data5/repository/PTC/V18/cabecad18/ptc_comp/screw.sat - 6 0 18 ACIS 6.0.3 Solaris 24 Sat Apr 13 22:25:10 2002 
1 9.999999999999999547e-07 1.000000000000000036e-10 
body $-1 $1 $-1 $-1 #
lump $-1 $-1 $2 $0 #
shell $-1 $-1 $-1 $3 $-1 $1 #
face $-1 $4 $5 $2 $-1 $6 forward single #
face $-1 $7 $8 $2 $-1 $9 forward single #
loop $-1 $-1 $10 $3 #
cone-surface $-1 0 1 0 0 -1 0 1.333333333333333481 0 0 1 I I -0.8000000000000000444 0.5999999999999999778 1.333333333333333481 forward I I I I #
face $-1 $11 $12 $2 $-1 $13 forward single #
loop $-1 $-1 $14 $4 #
cone-surface $-1 0 1 0 0 -1 0 1.333333333333333481 0 0 1 I I -0.8000000000000000444 0.5999999999999999778 1.333333333333333481 forward I I I I #
coedge $-1 $15 $16 $17 $18 forward $5 $-1 #
face $-1 $19 $20 $2 $-1 $21 reversed single #
loop $-1 $-1 $22 $7 #
cone-surface $-1 0 -0.2999999999999999889 0 0 1 0 2 0 0 1 I I 0 1 2 forward I I I I #
coedge $-1 $17 $23 $24 $25 forward $8 $-1 #
coedge $-1 $16 $10 $26 $27 reversed $5 $-1 #
coedge $-1 $10 $15 $23 $28 reversed $5 $-1 #
coedge $-1 $23 $14 $10 $18 reversed $8 $-1 #
edge $-1 $29 0 $30 2.5 $10 $31 forward 7 unknown #
face $-1 $32 $33 $2 $-1 $34 forward single #
loop $-1 $35 $36 $11 #
plane-surface $-1 0 5 0 0 1 0 1 0 0 forward_v I I I I #
coedge $-1 $37 $38 $39 $40 forward $12 $-1 #
coedge $-1 $14 $17 $16 $28 forward $8 $-1 #
coedge $-1 $38 $37 $14 $25 reversed $12 $-1 #
edge $-1 $41 0 $30 3.141592653589793116 $14 $42 forward 7 unknown #
coedge $-1 $43 $44 $15 $27 forward $45 $-1 #
edge $-1 $41 0 $30 3.141592653589793116 $15 $46 forward 7 unknown #
edge $-1 $29 0 $41 2.5 $16 $47 forward 7 unknown #
vertex $-1 $28 $48 #
vertex $-1 $27 $49 #
straight-curve $-1 0 0 0 -0.8000000000000000444 0.5999999999999999778 9.796850830579018312e-17 I I #
face $-1 $50 $51 $2 $-1 $52 forward single #
loop $-1 $-1 $53 $19 #
cone-surface $-1 0 -0.2999999999999999889 0 0 1 0 2.5 0 0 1 I I 0 1 2.5 forward I I I I #
loop $-1 $-1 $54 $11 #
coedge $-1 $55 $55 $56 $57 forward $20 $-1 #
coedge $-1 $24 $22 $43 $58 reversed $12 $-1 #
coedge $-1 $22 $24 $44 $59 forward $12 $-1 #
coedge $-1 $54 $54 $22 $40 reversed $35 $-1 #
edge $-1 $60 0 $61 3.141592653589793116 $39 $62 forward 7 unknown #
vertex $-1 $28 $63 #
ellipse-curve $-1 -1.665334536937734811e-16 1.499999999999999778 -5.551115123125782702e-17 0 -1 0 2 0 5.551115123125782702e-17 1 I I #
coedge $-1 $64 $26 $37 $58 forward $45 $-1 #
coedge $-1 $26 $64 $38 $59 reversed $45 $-1 #
loop $-1 $-1 $26 $65 #
ellipse-curve $-1 -1.665334536937734811e-16 1.499999999999999778 5.551115123125782702e-17 0 1 0 2 0 -5.551115123125782702e-17 1 I I #
straight-curve $-1 0 0 0 0.8000000000000000444 0.5999999999999999778 0 I I #
point $-1 0 0 0 #
point $-1 -2 1.5 2.449212707644754516e-16 #
face $-1 $66 $67 $2 $-1 $68 forward single #
loop $-1 $69 $70 $32 #
plane-surface $-1 0 6 0 0 1 0 1 0 0 forward_v I I I I #
coedge $-1 $71 $72 $73 $74 forward $33 $-1 #
coedge $-1 $39 $39 $64 $75 forward $35 $-1 #
coedge $-1 $36 $36 $76 $77 reversed $20 $-1 #
coedge $-1 $72 $71 $36 $57 reversed $33 $-1 #
edge $-1 $78 0 $79 3.141592653589793116 $36 $80 forward 7 unknown #
edge $-1 $30 2.220446049250313081e-16 $61 3.5 $43 $81 forward 7 unknown #
edge $-1 $41 2.220446049250313081e-16 $60 3.5 $44 $82 forward 7 unknown #
vertex $-1 $59 $83 #
vertex $-1 $75 $84 #
ellipse-curve $-1 5.551115123125782702e-17 5 5.551115123125782702e-17 0 -1 0 2 0 -5.551115123125782702e-17 1 I I #
point $-1 2 1.5 0 #
coedge $-1 $44 $43 $54 $75 reversed $45 $-1 #
face $-1 $-1 $45 $2 $-1 $85 forward single #
face $-1 $86 $87 $2 $-1 $88 reversed single #
loop $-1 $-1 $76 $50 #
cone-surface $-1 0 -0.2999999999999999889 0 0 1 0 2.5 0 0 1 I I 0 1 2.5 forward I I I I #
loop $-1 $-1 $89 $32 #
coedge $-1 $73 $73 $90 $91 forward $51 $-1 #
coedge $-1 $56 $53 $92 $93 reversed $33 $-1 #
coedge $-1 $53 $56 $94 $95 forward $33 $-1 #
coedge $-1 $70 $70 $53 $74 reversed $51 $-1 #
edge $-1 $96 0 $97 3.141592653589793116 $73 $98 forward 7 unknown #
edge $-1 $60 0 $61 3.141592653589793116 $64 $99 forward 7 unknown #
coedge $-1 $92 $94 $55 $77 forward $67 $-1 #
edge $-1 $78 0 $79 3.141592653589793116 $55 $100 forward 7 unknown #
vertex $-1 $77 $101 #
vertex $-1 $77 $102 #
ellipse-curve $-1 2.220446049250313081e-16 5 1.11022302462515654e-16 0 -1 0 2.5 0 -1.11022302462515654e-16 1 I I #
straight-curve $-1 -2 1.499999999999999778 2.449212707644754516e-16 0 1 0 I I #
straight-curve $-1 2 1.499999999999999778 0 0 1 0 I I #
point $-1 2 5 0 #
point $-1 -2 5 0 #
cone-surface $-1 0 -0.2999999999999999889 0 0 1 0 2 0 0 1 I I 0 1 2 forward I I I I #
face $-1 $103 $104 $2 $-1 $105 reversed single #
loop $-1 $-1 $106 $66 #
plane-surface $-1 -0.3400000000000000799 6 0.3400000000000000799 -1 0 0 0 0 1 forward_v I I I I #
coedge $-1 $107 $108 $109 $110 reversed $69 $-1 #
coedge $-1 $94 $92 $70 $91 reversed $67 $-1 #
edge $-1 $96 0 $97 3.141592653589793116 $90 $111 forward 7 unknown #
coedge $-1 $90 $76 $71 $93 forward $67 $-1 #
edge $-1 $79 0 $97 1 $92 $112 forward 7 unknown #
coedge $-1 $76 $90 $72 $95 reversed $67 $-1 #
edge $-1 $78 0 $96 1 $94 $113 forward 7 unknown #
vertex $-1 $95 $114 #
vertex $-1 $91 $115 #
ellipse-curve $-1 0 6 0 0 -1 0 2.5 0 0 1 I I #
ellipse-curve $-1 5.551115123125782702e-17 5 -5.551115123125782702e-17 0 1 0 2 0 5.551115123125782702e-17 1 I I #
ellipse-curve $-1 2.220446049250313081e-16 5 -1.11022302462515654e-16 0 1 0 2.5 0 1.11022302462515654e-16 1 I I #
point $-1 2.5 5 0 #
point $-1 -2.5 5 -3.061515884555943146e-16 #
face $-1 $116 $117 $2 $-1 $118 reversed single #
loop $-1 $-1 $119 $86 #
plane-surface $-1 -0.3400000000000000799 6 1.540000000000000036 0 0 1 1 0 0 forward_v I I I I #
coedge $-1 $120 $109 $121 $122 forward $87 $-1 #
coedge $-1 $123 $89 $124 $125 reversed $69 $-1 #
coedge $-1 $89 $126 $127 $128 reversed $69 $-1 #
coedge $-1 $106 $129 $89 $110 forward $87 $-1 #
edge $-1 $130 0 $131 1.199999999999999956 $89 $132 forward 7 unknown #
ellipse-curve $-1 0 6 0 0 1 0 2.5 0 0 1 I I #
straight-curve $-1 -2.5 5 3.061515884555943146e-16 0 1 0 I I #
straight-curve $-1 2.5 5 0 0 1 0 I I #
point $-1 2.5 6 0 #
point $-1 -2.5 6 0 #
face $-1 $133 $134 $2 $-1 $135 reversed single #
loop $-1 $-1 $136 $103 #
plane-surface $-1 0.3399999999999999689 6 1.540000000000000036 1 0 0 0 0 -1 forward_v I I I I #
coedge $-1 $137 $127 $138 $139 forward $104 $-1 #
coedge $-1 $129 $106 $140 $141 reversed $87 $-1 #
coedge $-1 $127 $137 $106 $122 reversed $104 $-1 #
edge $-1 $131 0 $142 0.5 $106 $143 forward 7 unknown #
coedge $-1 $144 $107 $145 $146 reversed $69 $-1 #
coedge $-1 $147 $148 $107 $125 forward $149 $-1 #
edge $-1 $150 0 $130 1.199999999999999956 $107 $151 forward 7 unknown #
coedge $-1 $108 $152 $153 $154 reversed $69 $-1 #
coedge $-1 $119 $121 $108 $128 forward $104 $-1 #
edge $-1 $131 0 $155 0.6800000000000000488 $108 $156 forward 7 unknown #
coedge $-1 $109 $120 $147 $157 reversed $87 $-1 #
vertex $-1 $125 $158 #
vertex $-1 $128 $159 #
straight-curve $-1 -0.3400000000000000799 6 0.3400000000000000799 0 0 1 I I #
face $-1 $160 $161 $2 $-1 $162 reversed single #
loop $-1 $-1 $163 $116 #
plane-surface $-1 0.3399999999999999689 6 0.3400000000000000799 0 0 1 1 0 0 forward_v I I I I #
coedge $-1 $164 $153 $165 $166 forward $117 $-1 #
coedge $-1 $121 $119 $167 $168 reversed $104 $-1 #
coedge $-1 $153 $164 $119 $139 reversed $117 $-1 #
edge $-1 $155 0 $169 0.5 $119 $170 forward 7 unknown #
coedge $-1 $167 $171 $120 $141 forward $172 $-1 #
edge $-1 $173 0 $142 1.199999999999999956 $140 $174 forward 7 unknown #
vertex $-1 $168 $175 #
straight-curve $-1 -0.3400000000000000799 6 1.540000000000000036 0 -1 0 I I #
coedge $-1 $176 $123 $177 $178 reversed $69 $-1 #
coedge $-1 $179 $180 $123 $146 forward $181 $-1 #
edge $-1 $182 0 $150 0.6500000000000000222 $123 $183 forward 7 unknown #
coedge $-1 $184 $124 $129 $157 forward $149 $-1 #
coedge $-1 $124 $184 $179 $185 reversed $149 $-1 #
loop $-1 $-1 $147 $186 #
vertex $-1 $146 $187 #
straight-curve $-1 -1.540000000000000036 6 0.3400000000000000799 1 0 0 I I #
coedge $-1 $126 $188 $189 $190 reversed $69 $-1 #
coedge $-1 $136 $138 $126 $154 forward $117 $-1 #
edge $-1 $155 0 $191 1.199999999999999956 $126 $192 forward 7 unknown #
vertex $-1 $128 $193 #
straight-curve $-1 -0.3400000000000000799 6 1.540000000000000036 1 0 0 I I #
edge $-1 $130 0 $173 0.5 $147 $194 forward 7 unknown #
point $-1 -0.3400000000000000799 6 0.3400000000000000799 #
point $-1 -0.3400000000000000799 6 1.540000000000000036 #
face $-1 $195 $196 $2 $-1 $197 reversed single #
loop $-1 $-1 $198 $133 #
plane-surface $-1 1.540000000000000036 6 0.3400000000000000799 1 0 0 0 0 -1 forward_v I I I I #
coedge $-1 $199 $189 $200 $201 forward $134 $-1 #
coedge $-1 $138 $136 $202 $203 reversed $117 $-1 #
coedge $-1 $189 $199 $136 $166 reversed $134 $-1 #
edge $-1 $191 0 $204 0.5 $136 $205 forward 7 unknown #
coedge $-1 $202 $140 $137 $168 forward $172 $-1 #
edge $-1 $142 0 $169 0.6800000000000000488 $167 $206 forward 7 unknown #
vertex $-1 $203 $207 #
straight-curve $-1 0.3399999999999999689 6 1.540000000000000036 0 -1 0 I I #
coedge $-1 $140 $208 $184 $209 forward $172 $-1 #
loop $-1 $-1 $210 $211 #
vertex $-1 $141 $212 #
straight-curve $-1 -0.3400000000000000799 5.5 0.3400000000000000799 0 0 1 I I #
point $-1 -0.3400000000000000799 5.5 1.540000000000000036 #
coedge $-1 $213 $144 $214 $215 reversed $69 $-1 #
coedge $-1 $216 $217 $144 $178 forward $218 $-1 #
edge $-1 $219 0 $182 1.199999999999999956 $144 $220 forward 7 unknown #
coedge $-1 $221 $145 $148 $185 forward $181 $-1 #
coedge $-1 $145 $221 $216 $222 reversed $181 $-1 #
loop $-1 $-1 $179 $223 #
vertex $-1 $178 $224 #
straight-curve $-1 -1.540000000000000036 6 -0.3099999999999999423 0 0 1 I I #
coedge $-1 $148 $147 $171 $209 reversed $149 $-1 #
edge $-1 $150 0 $225 0.5 $179 $226 forward 7 unknown #
face $-1 $211 $149 $2 $-1 $227 reversed single #
point $-1 -1.540000000000000036 6 0.3400000000000000799 #
coedge $-1 $152 $228 $229 $230 reversed $69 $-1 #
coedge $-1 $163 $165 $152 $190 forward $134 $-1 #
edge $-1 $191 0 $231 1.200000000000000178 $152 $232 forward 7 unknown #
vertex $-1 $154 $233 #
straight-curve $-1 0.3399999999999999689 6 1.540000000000000036 0 0 -1 I I #
point $-1 0.3399999999999999689 6 1.540000000000000036 #
straight-curve $-1 -0.3400000000000000799 6 0.3400000000000000799 0 -1 0 I I #
face $-1 $234 $235 $2 $-1 $236 reversed single #
loop $-1 $-1 $237 $160 #
plane-surface $-1 1.540000000000000036 6 -0.3099999999999999423 0 0 -1 -1 0 0 forward_v I I I I #
coedge $-1 $238 $229 $239 $240 forward $161 $-1 #
coedge $-1 $165 $163 $241 $242 reversed $134 $-1 #
coedge $-1 $229 $238 $163 $201 reversed $161 $-1 #
edge $-1 $231 0 $243 0.5 $163 $244 forward 7 unknown #
coedge $-1 $241 $167 $164 $203 forward $172 $-1 #
edge $-1 $169 0 $204 1.199999999999999956 $202 $245 forward 7 unknown #
vertex $-1 $242 $246 #
straight-curve $-1 0.3399999999999999689 6 0.3400000000000000799 0 -1 0 I I #
straight-curve $-1 -0.3400000000000000799 5.5 1.540000000000000036 1 0 0 I I #
point $-1 0.3399999999999999689 5.5 1.540000000000000036 #
coedge $-1 $171 $247 $221 $248 forward $172 $-1 #
edge $-1 $225 0 $173 1.199999999999999956 $171 $249 forward 7 unknown #
coedge $-1 $250 $251 $252 $253 forward $172 $-1 #
face $-1 $65 $172 $2 $-1 $254 forward single #
point $-1 -0.3400000000000000799 5.5 0.3400000000000000799 #
coedge $-1 $255 $176 $256 $257 reversed $69 $-1 #
coedge $-1 $258 $259 $176 $215 forward $260 $-1 #
edge $-1 $261 0 $219 1.199999999999999734 $176 $262 forward 7 unknown #
coedge $-1 $263 $177 $180 $222 forward $218 $-1 #
coedge $-1 $177 $263 $258 $264 reversed $218 $-1 #
loop $-1 $-1 $216 $265 #
vertex $-1 $215 $266 #
straight-curve $-1 -0.3400000000000000799 6 -0.3099999999999999423 -1 0 0 I I #
coedge $-1 $180 $179 $208 $248 reversed $181 $-1 #
edge $-1 $182 0 $267 0.5 $216 $268 forward 7 unknown #
face $-1 $186 $181 $2 $-1 $269 reversed single #
point $-1 -1.540000000000000036 6 -0.3099999999999999423 #
vertex $-1 $209 $270 #
straight-curve $-1 -1.540000000000000036 6 0.3400000000000000799 0 -1 0 I I #
plane-surface $-1 -1.540000000000000036 6 0.3400000000000000799 0 0 1 1 0 0 forward_v I I I I #
coedge $-1 $188 $255 $271 $272 reversed $69 $-1 #
coedge $-1 $198 $200 $188 $230 forward $161 $-1 #
edge $-1 $231 0 $273 0.6500000000000000222 $188 $274 forward 7 unknown #
vertex $-1 $190 $275 #
straight-curve $-1 0.3399999999999999689 6 0.3400000000000000799 1 0 0 I I #
point $-1 0.3399999999999999689 6 0.3400000000000000799 #
face $-1 $276 $277 $2 $-1 $278 reversed single #
loop $-1 $-1 $279 $195 #
plane-surface $-1 0.3399999999999999689 6 -0.3099999999999999423 1 0 0 0 0 -1 forward_v I I I I #
coedge $-1 $280 $271 $281 $282 forward $196 $-1 #
coedge $-1 $200 $198 $283 $284 reversed $161 $-1 #
coedge $-1 $271 $280 $198 $240 reversed $196 $-1 #
edge $-1 $273 0 $285 0.5 $239 $286 forward 7 unknown #
coedge $-1 $283 $202 $199 $242 forward $172 $-1 #
edge $-1 $204 0 $243 1.200000000000000178 $241 $287 forward 7 unknown #
vertex $-1 $284 $288 #
straight-curve $-1 1.540000000000000036 6 0.3400000000000000799 0 -1 0 I I #
straight-curve $-1 0.3399999999999999689 5.5 1.540000000000000036 0 0 -1 I I #
point $-1 0.3399999999999999689 5.5 0.3400000000000000799 #
coedge $-1 $208 $289 $263 $290 forward $172 $-1 #
edge $-1 $267 0 $225 0.6500000000000000222 $208 $291 forward 7 unknown #
straight-curve $-1 -1.540000000000000036 5.5 0.3400000000000000799 1 0 0 I I #
coedge $-1 $289 $210 $292 $293 forward $172 $-1 #
coedge $-1 $210 $283 $280 $294 forward $172 $-1 #
coedge $-1 $281 $279 $210 $253 reversed $235 $-1 #
edge $-1 $295 0 $296 1.199999999999999734 $210 $297 forward 7 unknown #
plane-surface $-1 0 5.5 0 0 1 0 0 0 1 forward_v I I I I #
coedge $-1 $228 $213 $298 $299 reversed $69 $-1 #
coedge $-1 $300 $301 $213 $257 forward $277 $-1 #
edge $-1 $302 0 $261 0.6800000000000000488 $213 $303 forward 7 unknown #
coedge $-1 $304 $214 $217 $264 forward $260 $-1 #
coedge $-1 $214 $304 $300 $305 reversed $260 $-1 #
loop $-1 $-1 $258 $276 #
vertex $-1 $257 $306 #
straight-curve $-1 -0.3400000000000000799 6 -1.509999999999999787 0 0 1 I I #
coedge $-1 $217 $216 $247 $290 reversed $218 $-1 #
edge $-1 $219 0 $307 0.5 $258 $308 forward 7 unknown #
face $-1 $223 $218 $2 $-1 $309 reversed single #
point $-1 -0.3400000000000000799 6 -0.3099999999999999423 #
vertex $-1 $248 $310 #
straight-curve $-1 -1.540000000000000036 6 -0.3099999999999999423 0 -1 0 I I #
plane-surface $-1 -1.540000000000000036 6 -0.3099999999999999423 -1 0 0 0 0 1 forward_v I I I I #
point $-1 -1.540000000000000036 5.5 0.3400000000000000799 #
coedge $-1 $237 $239 $228 $272 forward $196 $-1 #
edge $-1 $273 0 $311 1.200000000000000178 $228 $312 forward 7 unknown #
vertex $-1 $230 $313 #
straight-curve $-1 1.540000000000000036 6 0.3400000000000000799 0 0 -1 I I #
point $-1 1.540000000000000036 6 0.3400000000000000799 #
face $-1 $265 $260 $2 $-1 $314 reversed single #
loop $-1 $-1 $300 $234 #
plane-surface $-1 0.3399999999999999689 6 -1.509999999999999787 0 0 -1 -1 0 0 forward_v I I I I #
coedge $-1 $252 $298 $301 $315 forward $235 $-1 #
coedge $-1 $239 $237 $251 $294 reversed $196 $-1 #
coedge $-1 $298 $252 $237 $282 reversed $235 $-1 #
edge $-1 $311 0 $295 0.5 $237 $316 forward 7 unknown #
coedge $-1 $251 $241 $238 $284 forward $172 $-1 #
edge $-1 $243 0 $285 0.6500000000000000222 $283 $317 forward 7 unknown #
vertex $-1 $294 $318 #
straight-curve $-1 1.540000000000000036 6 -0.3099999999999999423 0 -1 0 I I #
straight-curve $-1 0.3399999999999999689 5.5 0.3400000000000000799 1 0 0 I I #
point $-1 1.540000000000000036 5.5 0.3400000000000000799 #
coedge $-1 $247 $250 $304 $319 forward $172 $-1 #
edge $-1 $307 0 $267 1.199999999999999956 $247 $320 forward 7 unknown #
straight-curve $-1 -1.540000000000000036 5.5 -0.3099999999999999423 0 0 1 I I #
coedge $-1 $301 $300 $250 $293 reversed $277 $-1 #
edge $-1 $296 0 $321 0.6800000000000000488 $250 $322 forward 7 unknown #
edge $-1 $285 0 $295 1.200000000000000178 $251 $323 forward 7 unknown #
vertex $-1 $294 $324 #
vertex $-1 $293 $325 #
straight-curve $-1 0.3399999999999999689 5.5 -0.3099999999999999423 0 0 -1 I I #
coedge $-1 $279 $281 $255 $299 forward $235 $-1 #
edge $-1 $311 0 $302 1.199999999999999734 $255 $326 forward 7 unknown #
coedge $-1 $292 $256 $259 $305 forward $277 $-1 #
coedge $-1 $256 $292 $279 $315 reversed $277 $-1 #
vertex $-1 $299 $327 #
straight-curve $-1 0.3399999999999999689 6 -1.509999999999999787 -1 0 0 I I #
coedge $-1 $259 $258 $289 $319 reversed $260 $-1 #
edge $-1 $261 0 $321 0.5 $300 $328 forward 7 unknown #
point $-1 -0.3400000000000000799 6 -1.509999999999999787 #
vertex $-1 $290 $329 #
straight-curve $-1 -0.3400000000000000799 6 -0.3100000000000000533 0 -1 0 I I #
plane-surface $-1 -0.3400000000000000799 6 -0.3099999999999999423 0 0 -1 -1 0 0 forward_v I I I I #
point $-1 -1.540000000000000036 5.5 -0.3099999999999999423 #
vertex $-1 $272 $330 #
straight-curve $-1 1.540000000000000036 6 -0.3099999999999999423 -1 0 0 I I #
point $-1 1.540000000000000036 6 -0.3099999999999999423 #
plane-surface $-1 -0.3400000000000000799 6 -1.509999999999999787 -1 0 0 0 0 1 forward_v I I I I #
edge $-1 $302 0 $296 0.5 $279 $331 forward 7 unknown #
straight-curve $-1 0.3399999999999998579 6 -0.3099999999999999423 0 -1 0 I I #
straight-curve $-1 1.540000000000000036 5.5 0.3400000000000000799 0 0 -1 I I #
point $-1 1.540000000000000036 5.5 -0.3099999999999999423 #
edge $-1 $321 0 $307 1.199999999999999734 $289 $332 forward 7 unknown #
straight-curve $-1 -0.3400000000000000799 5.5 -0.3099999999999999423 -1 0 0 I I #
vertex $-1 $319 $333 #
straight-curve $-1 0.3399999999999999689 5.5 -1.509999999999999787 -1 0 0 I I #
straight-curve $-1 1.540000000000000036 5.5 -0.3099999999999999423 -1 0 0 I I #
point $-1 0.3399999999999999689 5.5 -0.3099999999999999423 #
point $-1 0.3399999999999999689 5.5 -1.509999999999999787 #
straight-curve $-1 0.3399999999999999689 6 -0.3099999999999999423 0 0 -1 I I #
point $-1 0.3399999999999999689 6 -1.509999999999999787 #
straight-curve $-1 -0.3400000000000000799 6 -1.509999999999999787 0 -1 0 I I #
point $-1 -0.3400000000000000799 5.5 -0.3099999999999999423 #
point $-1 0.3399999999999999689 6 -0.3099999999999999423 #
straight-curve $-1 0.3399999999999999689 6 -1.509999999999999787 0 -1 0 I I #
straight-curve $-1 -0.3400000000000000799 5.5 -1.509999999999999787 0 0 1 I I #
point $-1 -0.3400000000000000799 5.5 -1.509999999999999787 #
End-of-ACIS-data 