600 0 1 0           
104 GICL Pro/E ACIS Translator - Source: f:/data5/repository/PTC/V18/cabecad18/ptc_comp/small_clip.prt - 6 0 13 ACIS 6.0.3 NT 24 Thu Apr 04 13:39:38 2002 
1 9.9999999999999995e-007 1e-010 
body $-1 $1 $-1 $2 #
lump $-1 $-1 $3 $0 #
transform $-1 1 0 0 0 1 0 0 0 1 0 0 0 0.22859999999999997 no_rotate no_reflect no_shear #
shell $-1 $-1 $-1 $4 $-1 $1 #
face $-1 $5 $6 $3 $-1 $7 reversed single #
face $-1 $8 $9 $3 $-1 $10 reversed single #
loop $-1 $11 $12 $4 #
plane-surface $-1 0 0 0 0 1 0 1 0 0 forward_v I I I I #
face $-1 $13 $14 $3 $-1 $15 reversed single #
loop $-1 $-1 $16 $5 #
cone-surface $-1 0 0 0 0 1 0 10 0 0 1 I I 0 1 10 forward I I I I #
loop $-1 $-1 $17 $4 #
coedge $-1 $18 $18 $19 $20 reversed $6 $-1 #
face $-1 $21 $22 $3 $-1 $23 forward single #
loop $-1 $-1 $24 $8 #
cone-surface $-1 0 0 0 0 1 0 10 0 0 1 I I 0 1 10 forward I I I I #
coedge $-1 $25 $19 $26 $27 forward $9 $-1 #
coedge $-1 $28 $29 $30 $31 reversed $11 $-1 #
coedge $-1 $12 $12 $32 $33 reversed $6 $-1 #
coedge $-1 $16 $34 $12 $20 forward $9 $-1 #
edge $-1 $35 0 $36 3.1415926535897931 $12 $37 forward 7 unknown #
face $-1 $38 $39 $3 $-1 $40 forward single #
loop $-1 $41 $42 $13 #
plane-surface $-1 0 15 0 0 1 0 1 0 0 forward_v I I I I #
coedge $-1 $43 $32 $34 $44 forward $14 $-1 #
coedge $-1 $34 $16 $42 $45 reversed $9 $-1 #
coedge $-1 $32 $43 $16 $27 reversed $14 $-1 #
edge $-1 $36 0 $46 15 $26 $47 forward 7 unknown #
coedge $-1 $48 $17 $49 $50 reversed $11 $-1 #
coedge $-1 $17 $51 $52 $53 reversed $11 $-1 #
coedge $-1 $54 $55 $17 $31 forward $56 $-1 #
edge $-1 $57 0 $58 2 $17 $59 forward 7 unknown #
coedge $-1 $24 $26 $18 $33 forward $14 $-1 #
edge $-1 $36 0 $35 3.1415926535897931 $18 $60 forward 7 unknown #
coedge $-1 $19 $25 $24 $44 reversed $9 $-1 #
vertex $-1 $33 $61 #
vertex $-1 $33 $62 #
ellipse-curve $-1 0 0 0 0 -1 0 -10 0 0 1 I I #
face $-1 $63 $64 $3 $-1 $65 forward single #
loop $-1 $-1 $66 $21 #
plane-surface $-1 -10 0 13.456439237389599 -1 0 0 0 0 1 forward_v I I I I #
loop $-1 $-1 $67 $13 #
coedge $-1 $68 $68 $25 $45 forward $22 $-1 #
coedge $-1 $26 $24 $68 $69 reversed $14 $-1 #
edge $-1 $35 0 $70 15 $24 $71 forward 7 unknown #
edge $-1 $70 0 $46 3.1415926535897931 $42 $72 forward 7 unknown #
vertex $-1 $69 $73 #
straight-curve $-1 10 0 0 0 1 1.6328084717631697e-016 I I #
coedge $-1 $74 $28 $75 $76 reversed $11 $-1 #
coedge $-1 $77 $78 $28 $50 forward $79 $-1 #
edge $-1 $80 0 $57 5.4601516150446106 $28 $81 forward 7 unknown #
coedge $-1 $29 $82 $83 $84 reversed $11 $-1 #
coedge $-1 $85 $86 $29 $53 forward $87 $-1 #
edge $-1 $58 0 $88 5 $29 $89 forward 7 unknown #
coedge $-1 $90 $30 $86 $91 forward $56 $-1 #
coedge $-1 $30 $90 $77 $92 reversed $56 $-1 #
loop $-1 $-1 $54 $93 #
vertex $-1 $50 $94 #
vertex $-1 $53 $95 #
straight-curve $-1 -5 0 11.456439237389599 0 0 1 I I #
ellipse-curve $-1 0 0 0 0 -1 0 10 0 0 1 I I #
point $-1 -10 0 0 #
point $-1 10 0 0 #
face $-1 $96 $97 $3 $-1 $98 forward single #
loop $-1 $-1 $99 $38 #
plane-surface $-1 -10 0 16.456439237389599 0 0 1 1 0 0 forward_v I I I I #
coedge $-1 $100 $83 $101 $102 forward $39 $-1 #
coedge $-1 $103 $104 $100 $105 forward $41 $-1 #
coedge $-1 $42 $42 $43 $69 forward $22 $-1 #
edge $-1 $46 0 $70 3.1415926535897931 $68 $106 forward 7 unknown #
vertex $-1 $69 $107 #
straight-curve $-1 -10 0 -1.2246063538223773e-015 0 1 0 I I #
ellipse-curve $-1 0 15 0 0 -1 0 -10 0 0 1 I I #
point $-1 10 15 0 #
coedge $-1 $108 $48 $109 $110 reversed $11 $-1 #
coedge $-1 $111 $112 $48 $76 forward $113 $-1 #
edge $-1 $114 0 $80 2 $48 $115 forward 7 unknown #
coedge $-1 $116 $49 $55 $92 forward $79 $-1 #
coedge $-1 $49 $116 $111 $117 reversed $79 $-1 #
loop $-1 $-1 $77 $118 #
vertex $-1 $76 $119 #
ellipse-curve $-1 0 0 0 0 1 0 5 0 11.456439237389599 1 I I #
coedge $-1 $51 $120 $121 $122 reversed $11 $-1 #
coedge $-1 $66 $123 $51 $84 forward $39 $-1 #
edge $-1 $88 0 $124 3 $51 $125 forward 7 unknown #
coedge $-1 $126 $52 $123 $127 forward $87 $-1 #
coedge $-1 $52 $126 $54 $91 reversed $87 $-1 #
loop $-1 $-1 $85 $128 #
vertex $-1 $53 $129 #
straight-curve $-1 -5 0 13.456439237389599 -1 0 0 I I #
coedge $-1 $55 $54 $130 $131 reversed $56 $-1 #
edge $-1 $58 0 $132 15 $86 $133 forward 7 unknown #
edge $-1 $57 0 $134 15 $77 $135 forward 7 unknown #
face $-1 $128 $56 $3 $-1 $136 forward single #
point $-1 -5 0 11.456439237389599 #
point $-1 -5 0 13.456439237389599 #
face $-1 $137 $138 $3 $-1 $139 forward single #
loop $-1 $-1 $140 $63 #
plane-surface $-1 -6 0 16.456439237389599 -1 0 0 0 0 1 forward_v I I I I #
coedge $-1 $141 $121 $142 $143 forward $64 $-1 #
coedge $-1 $123 $66 $67 $105 reversed $39 $-1 #
coedge $-1 $121 $141 $66 $102 reversed $64 $-1 #
edge $-1 $124 0 $144 15 $66 $145 forward 7 unknown #
coedge $-1 $146 $67 $141 $147 forward $41 $-1 #
coedge $-1 $67 $130 $126 $148 forward $41 $-1 #
edge $-1 $149 0 $144 3 $67 $150 forward 7 unknown #
ellipse-curve $-1 0 15 0 0 -1 0 10 0 0 1 I I #
point $-1 -10 15 0 #
coedge $-1 $151 $74 $152 $153 reversed $11 $-1 #
coedge $-1 $154 $155 $74 $110 forward $156 $-1 #
edge $-1 $157 0 $114 5 $74 $158 forward 7 unknown #
coedge $-1 $159 $75 $78 $117 forward $113 $-1 #
coedge $-1 $75 $159 $154 $160 reversed $113 $-1 #
loop $-1 $-1 $111 $161 #
vertex $-1 $110 $162 #
straight-curve $-1 5 0 13.456439237389599 0 0 -1 I I #
coedge $-1 $78 $77 $163 $164 reversed $79 $-1 #
edge $-1 $80 0 $165 15 $111 $166 forward 7 unknown #
face $-1 $93 $79 $3 $-1 $167 forward single #
point $-1 5 0 11.456439237389599 #
coedge $-1 $82 $168 $169 $170 reversed $11 $-1 #
coedge $-1 $99 $101 $82 $122 forward $64 $-1 #
edge $-1 $124 0 $171 4 $82 $172 forward 7 unknown #
coedge $-1 $83 $100 $85 $127 reversed $39 $-1 #
vertex $-1 $84 $173 #
straight-curve $-1 -10 0 13.456439237389599 0 0 1 I I #
coedge $-1 $86 $85 $104 $148 reversed $87 $-1 #
edge $-1 $88 0 $149 15 $85 $174 forward 7 unknown #
face $-1 $-1 $87 $3 $-1 $175 forward single #
point $-1 -10 0 13.456439237389599 #
coedge $-1 $104 $163 $90 $131 forward $41 $-1 #
edge $-1 $134 0 $132 2 $130 $176 forward 7 unknown #
vertex $-1 $148 $177 #
straight-curve $-1 -5 0 13.456439237389599 0 1 0 I I #
vertex $-1 $131 $178 #
straight-curve $-1 -5 0 11.456439237389599 0 1 0 I I #
plane-surface $-1 -5 0 11.456439237389599 -1 0 0 0 0 1 forward_v I I I I #
face $-1 $179 $180 $3 $-1 $181 forward single #
loop $-1 $-1 $182 $96 #
plane-surface $-1 -6 0 20.456439237389599 0 0 -1 -1 0 0 forward_v I I I I #
coedge $-1 $183 $169 $184 $185 forward $97 $-1 #
coedge $-1 $101 $99 $103 $147 reversed $64 $-1 #
coedge $-1 $169 $183 $99 $143 reversed $97 $-1 #
edge $-1 $171 0 $186 15 $99 $187 forward 7 unknown #
vertex $-1 $147 $188 #
straight-curve $-1 -10 0 16.456439237389599 0 1 0 I I #
coedge $-1 $189 $103 $183 $190 forward $41 $-1 #
edge $-1 $144 0 $186 4 $103 $191 forward 7 unknown #
edge $-1 $132 0 $149 5 $104 $192 forward 7 unknown #
vertex $-1 $148 $193 #
straight-curve $-1 -10 15 13.456439237389599 0 0 1 I I #
coedge $-1 $194 $108 $195 $196 reversed $11 $-1 #
coedge $-1 $197 $198 $108 $153 forward $199 $-1 #
edge $-1 $200 0 $157 3 $108 $201 forward 7 unknown #
coedge $-1 $202 $109 $112 $160 forward $156 $-1 #
coedge $-1 $109 $202 $197 $203 reversed $156 $-1 #
loop $-1 $-1 $154 $204 #
vertex $-1 $153 $205 #
straight-curve $-1 10 0 13.456439237389599 -1 0 0 I I #
coedge $-1 $112 $111 $206 $207 reversed $113 $-1 #
edge $-1 $114 0 $208 15 $154 $209 forward 7 unknown #
face $-1 $118 $113 $3 $-1 $210 forward single #
point $-1 5 0 13.456439237389599 #
coedge $-1 $130 $206 $116 $164 forward $41 $-1 #
edge $-1 $165 -3.1832314562052498e-016 $134 5.4601516150446106 $163 $211 forward 7 unknown #
vertex $-1 $164 $212 #
straight-curve $-1 5 0 11.456439237389601 0 1 0 I I #
cone-surface $-1 0 0 0 0 1 0 12.5 0 0 1 I I 0 1 12.5 forward I I I I #
coedge $-1 $120 $213 $214 $215 reversed $11 $-1 #
coedge $-1 $140 $142 $120 $170 forward $97 $-1 #
edge $-1 $171 0 $216 4 $120 $217 forward 7 unknown #
vertex $-1 $122 $218 #
straight-curve $-1 -10 0 16.456439237389599 1 0 0 I I #
point $-1 -10 0 16.456439237389599 #
straight-curve $-1 -10 0 13.456439237389599 0 1 0 I I #
plane-surface $-1 -5 0 13.456439237389599 0 0 -1 -1 0 0 forward_v I I I I #
straight-curve $-1 -5 15 11.456439237389599 0 0 1 I I #
point $-1 -5 15 13.456439237389599 #
point $-1 -5 15 11.456439237389599 #
face $-1 $219 $220 $3 $-1 $221 forward single #
loop $-1 $-1 $222 $137 #
plane-surface $-1 -11 0 20.456439237389599 -0.44721359549995798 0 0.89442719099991597 0.89442719099991586 0 0.44721359549995793 forward_v I I I I #
coedge $-1 $223 $214 $224 $225 forward $138 $-1 #
coedge $-1 $142 $140 $146 $190 reversed $97 $-1 #
coedge $-1 $214 $223 $140 $185 reversed $138 $-1 #
edge $-1 $216 0 $226 15 $140 $227 forward 7 unknown #
vertex $-1 $190 $228 #
straight-curve $-1 -6 0 16.456439237389599 0 1 0 I I #
point $-1 -10 15 16.456439237389599 #
coedge $-1 $229 $146 $223 $230 forward $41 $-1 #
edge $-1 $186 0 $226 4 $146 $231 forward 7 unknown #
straight-curve $-1 -10 15 16.456439237389599 1 0 0 I I #
straight-curve $-1 -5 15 13.456439237389599 -1 0 0 I I #
point $-1 -10 15 13.456439237389599 #
coedge $-1 $232 $151 $233 $234 reversed $11 $-1 #
coedge $-1 $235 $236 $151 $196 forward $237 $-1 #
edge $-1 $238 0 $200 4 $151 $239 forward 7 unknown #
coedge $-1 $240 $152 $155 $203 forward $199 $-1 #
coedge $-1 $152 $240 $235 $241 reversed $199 $-1 #
loop $-1 $-1 $197 $242 #
vertex $-1 $196 $243 #
straight-curve $-1 10 0 16.456439237389599 0 0 -1 I I #
coedge $-1 $155 $154 $244 $245 reversed $156 $-1 #
edge $-1 $157 0 $246 15 $197 $247 forward 7 unknown #
face $-1 $161 $156 $3 $-1 $248 forward single #
point $-1 10 0 13.456439237389599 #
coedge $-1 $163 $244 $159 $207 forward $41 $-1 #
edge $-1 $208 0 $165 1.9999999999999982 $206 $249 forward 7 unknown #
vertex $-1 $207 $250 #
straight-curve $-1 5 0 13.456439237389599 0 1 0 I I #
plane-surface $-1 5 0 13.456439237389599 1 0 0 0 0 -1 forward_v I I I I #
ellipse-curve $-1 4.2188474935755949e-015 15 -7.7715611723760958e-016 0 1 0 4.9999999999999956 0 11.456439237389599 1 I I #
point $-1 4.9999999999999964 15 11.456439237389601 #
coedge $-1 $168 $251 $252 $253 reversed $11 $-1 #
coedge $-1 $182 $184 $168 $215 forward $138 $-1 #
edge $-1 $216 0 $254 5 $168 $255 forward 7 unknown #
vertex $-1 $170 $256 #
straight-curve $-1 -6 0 16.456439237389599 0 0 1 I I #
point $-1 -6 0 16.456439237389599 #
face $-1 $257 $258 $3 $-1 $259 forward single #
loop $-1 $-1 $260 $179 #
plane-surface $-1 -3 0 24.456439237389599 0 0 1 1 0 0 forward_v I I I I #
coedge $-1 $261 $252 $262 $263 forward $180 $-1 #
coedge $-1 $184 $182 $189 $230 reversed $138 $-1 #
coedge $-1 $252 $261 $182 $225 reversed $180 $-1 #
edge $-1 $254 0 $264 15 $182 $265 forward 7 unknown #
vertex $-1 $230 $266 #
straight-curve $-1 -6 0 20.456439237389599 0 1 0 I I #
point $-1 -6 15 16.456439237389599 #
coedge $-1 $267 $189 $261 $268 forward $41 $-1 #
edge $-1 $226 0 $264 5 $189 $269 forward 7 unknown #
straight-curve $-1 -6 15 16.456439237389599 0 0 1 I I #
coedge $-1 $270 $194 $271 $272 reversed $11 $-1 #
coedge $-1 $273 $274 $194 $234 forward $275 $-1 #
edge $-1 $276 0 $238 4 $194 $277 forward 7 unknown #
coedge $-1 $278 $195 $198 $241 forward $237 $-1 #
coedge $-1 $195 $278 $273 $279 reversed $237 $-1 #
loop $-1 $-1 $235 $280 #
vertex $-1 $234 $281 #
straight-curve $-1 6 0 16.456439237389599 1 0 0 I I #
coedge $-1 $198 $197 $282 $283 reversed $199 $-1 #
edge $-1 $200 0 $284 15 $235 $285 forward 7 unknown #
face $-1 $204 $199 $3 $-1 $286 forward single #
point $-1 10 0 16.456439237389599 #
coedge $-1 $206 $282 $202 $245 forward $41 $-1 #
edge $-1 $246 0 $208 5 $244 $287 forward 7 unknown #
vertex $-1 $245 $288 #
straight-curve $-1 10 0 13.456439237389599 0 1 0 I I #
plane-surface $-1 10 0 13.456439237389599 0 0 -1 -1 0 0 forward_v I I I I #
straight-curve $-1 5 15 13.456439237389599 0 0 -1 I I #
point $-1 5 15 13.456439237389599 #
coedge $-1 $213 $270 $289 $290 reversed $11 $-1 #
coedge $-1 $222 $224 $213 $253 forward $180 $-1 #
edge $-1 $254 0 $291 8.944271909999161 $213 $292 forward 7 unknown #
vertex $-1 $215 $293 #
straight-curve $-1 -6 0 20.456439237389599 -1 0 0 I I #
point $-1 -6 0 20.456439237389599 #
face $-1 $294 $295 $3 $-1 $296 forward single #
loop $-1 $-1 $297 $219 #
plane-surface $-1 3 0 24.456439237389599 0.44721359549995798 0 0.89442719099991597 0.89442719099991586 0 -0.44721359549995793 forward_v I I I I #
coedge $-1 $298 $289 $299 $300 forward $220 $-1 #
coedge $-1 $224 $222 $229 $268 reversed $180 $-1 #
coedge $-1 $289 $298 $222 $263 reversed $220 $-1 #
edge $-1 $291 0 $301 15 $222 $302 forward 7 unknown #
vertex $-1 $268 $303 #
straight-curve $-1 -11 0 20.456439237389599 0 1 0 I I #
point $-1 -6 15 20.456439237389599 #
coedge $-1 $304 $229 $298 $305 forward $41 $-1 #
edge $-1 $264 0 $301 8.944271909999161 $229 $306 forward 7 unknown #
straight-curve $-1 -6 15 20.456439237389599 -1 0 0 I I #
coedge $-1 $251 $232 $307 $308 reversed $11 $-1 #
coedge $-1 $309 $310 $232 $272 forward $295 $-1 #
edge $-1 $311 0 $276 5 $232 $312 forward 7 unknown #
coedge $-1 $313 $233 $236 $279 forward $275 $-1 #
coedge $-1 $233 $313 $309 $314 reversed $275 $-1 #
loop $-1 $-1 $273 $294 #
vertex $-1 $272 $315 #
straight-curve $-1 6 0 20.456439237389599 0 0 -1 I I #
coedge $-1 $236 $235 $316 $317 reversed $237 $-1 #
edge $-1 $238 0 $318 15 $273 $319 forward 7 unknown #
face $-1 $242 $237 $3 $-1 $320 forward single #
point $-1 6 0 16.456439237389599 #
coedge $-1 $244 $316 $240 $283 forward $41 $-1 #
edge $-1 $284 0 $246 3 $282 $321 forward 7 unknown #
vertex $-1 $283 $322 #
straight-curve $-1 10 0 16.456439237389599 0 1 0 I I #
plane-surface $-1 10 0 16.456439237389599 1 0 0 0 0 -1 forward_v I I I I #
straight-curve $-1 10 15 13.456439237389599 -1 0 0 I I #
point $-1 10 15 13.456439237389599 #
coedge $-1 $260 $262 $251 $290 forward $220 $-1 #
edge $-1 $291 0 $323 6 $251 $324 forward 7 unknown #
vertex $-1 $253 $325 #
straight-curve $-1 -11 0 20.456439237389599 0.89442719099991586 0 0.44721359549995782 I I #
point $-1 -11 0 20.456439237389599 #
face $-1 $280 $275 $3 $-1 $326 forward single #
loop $-1 $-1 $309 $257 #
plane-surface $-1 11 0 20.456439237389599 0 0 -1 -1 0 0 forward_v I I I I #
coedge $-1 $327 $307 $310 $328 forward $258 $-1 #
coedge $-1 $262 $260 $267 $305 reversed $220 $-1 #
coedge $-1 $307 $327 $260 $300 reversed $258 $-1 #
edge $-1 $323 0 $329 15 $260 $330 forward 7 unknown #
vertex $-1 $305 $331 #
straight-curve $-1 -2.9999999999999982 0 24.456439237389599 0 1 0 I I #
point $-1 -11 15 20.456439237389599 #
coedge $-1 $332 $267 $327 $333 forward $41 $-1 #
edge $-1 $301 0 $329 6 $267 $334 forward 7 unknown #
straight-curve $-1 -11 15 20.456439237389599 0.89442719099991586 0 0.44721359549995782 I I #
coedge $-1 $297 $299 $270 $308 forward $258 $-1 #
edge $-1 $323 0 $311 8.944271909999161 $270 $335 forward 7 unknown #
coedge $-1 $336 $271 $274 $314 forward $295 $-1 #
coedge $-1 $271 $336 $297 $328 reversed $295 $-1 #
vertex $-1 $308 $337 #
straight-curve $-1 11 0 20.456439237389599 -1 0 0 I I #
coedge $-1 $274 $273 $338 $339 reversed $275 $-1 #
edge $-1 $276 0 $340 15 $309 $341 forward 7 unknown #
point $-1 6 0 20.456439237389599 #
coedge $-1 $282 $338 $278 $317 forward $41 $-1 #
edge $-1 $318 0 $284 4 $316 $342 forward 7 unknown #
vertex $-1 $317 $343 #
straight-curve $-1 6 0 16.456439237389599 0 1 0 I I #
plane-surface $-1 6 0 16.456439237389599 0 0 1 1 0 0 forward_v I I I I #
straight-curve $-1 10 15 16.456439237389599 0 0 -1 I I #
point $-1 10 15 16.456439237389599 #
vertex $-1 $290 $344 #
straight-curve $-1 -3 0 24.456439237389599 1 0 0 I I #
point $-1 -3 0 24.456439237389599 #
plane-surface $-1 6 0 20.456439237389599 1 0 0 0 0 -1 forward_v I I I I #
coedge $-1 $299 $297 $304 $333 reversed $258 $-1 #
edge $-1 $311 0 $345 15 $297 $346 forward 7 unknown #
vertex $-1 $333 $347 #
straight-curve $-1 3 0 24.456439237389599 0 1 0 I I #
point $-1 -3 15 24.456439237389599 #
coedge $-1 $338 $304 $336 $348 forward $41 $-1 #
edge $-1 $329 0 $345 8.944271909999161 $304 $349 forward 7 unknown #
straight-curve $-1 -3 15 24.456439237389599 1 0 0 I I #
straight-curve $-1 3 0 24.456439237389599 0.89442719099991586 0 -0.44721359549995782 I I #
coedge $-1 $310 $309 $332 $348 reversed $295 $-1 #
point $-1 11 0 20.456439237389599 #
coedge $-1 $316 $332 $313 $339 forward $41 $-1 #
edge $-1 $340 0 $318 4 $338 $350 forward 7 unknown #
vertex $-1 $339 $351 #
straight-curve $-1 6 0 20.456439237389599 0 1 0 I I #
straight-curve $-1 6 15 16.456439237389599 1 0 0 I I #
point $-1 6 15 16.456439237389599 #
point $-1 3 0 24.456439237389599 #
vertex $-1 $348 $352 #
straight-curve $-1 11.000000000000002 0 20.456439237389599 0 1 0 I I #
point $-1 3 15 24.456439237389599 #
edge $-1 $345 0 $340 5 $332 $353 forward 7 unknown #
straight-curve $-1 3 15 24.456439237389599 0.89442719099991586 0 -0.44721359549995782 I I #
straight-curve $-1 6 15 20.456439237389599 0 0 -1 I I #
point $-1 6 15 20.456439237389599 #
point $-1 11 15 20.456439237389599 #
straight-curve $-1 11 15 20.456439237389599 -1 0 0 I I #
End-of-ACIS-data 