700 0 2 0           
24 FBMach with ACIS - 7.0.3 13 ACIS 7.0.3 NT 24 Wed May 15 23:28:11 2002 
1 9.9999999999999995e-007 1e-010 
body $2 -1 $-1 $3 $-1 $4 #
bdycol-kcp $-1 -1 1 6 $5 $6 $7 $8 $9 $10 #
model_id-kcp-attrib $-1 -1 $-1 $-1 $0 1 1021519688 1021519689 -1457848319 1 #
lump $-1 -1 $-1 $-1 $11 $0 #
transform $-1 -1 1 0 0 0 1 0 0 0 1 0 0 0 1 rotate no_reflect no_shear #
body $12 -1 $-1 $13 $-1 $14 #
body $15 -1 $-1 $16 $-1 $17 #
body $18 -1 $-1 $19 $-1 $20 #
body $21 -1 $-1 $22 $-1 $23 #
body $24 -1 $-1 $25 $-1 $26 #
body $27 -1 $-1 $28 $-1 $29 #
shell $-1 -1 $-1 $-1 $-1 $30 $-1 $3 #
model_id-kcp-attrib $-1 -1 $-1 $-1 $5 1 1021519688 1021519689 -1457192958 1 #
lump $-1 -1 $-1 $-1 $31 $5 #
transform $-1 -1 1 0 0 0 1 0 0 0 1 0 0 1.5 1 no_rotate no_reflect no_shear #
rgb_color-st-attrib $-1 -1 $32 $-1 $6 1 0.5 1 #
lump $-1 -1 $-1 $-1 $33 $6 #
transform $-1 -1 1 0 0 0 1 0 0 0 1 0 0 1.5 1 no_rotate no_reflect no_shear #
rgb_color-st-attrib $-1 -1 $34 $-1 $7 0.5 1 1 #
lump $-1 -1 $-1 $-1 $35 $7 #
transform $-1 -1 1 0 0 0 1 0 0 0 1 0 0 1.5 1 no_rotate no_reflect no_shear #
rgb_color-st-attrib $-1 -1 $36 $-1 $8 1 0.5 1 #
lump $-1 -1 $-1 $-1 $37 $8 #
transform $-1 -1 1 0 0 0 1 0 0 0 1 0 0 1.5 1 no_rotate no_reflect no_shear #
rgb_color-st-attrib $-1 -1 $38 $-1 $9 1 0.5 1 #
lump $-1 -1 $-1 $-1 $39 $9 #
transform $-1 -1 1 0 0 0 1 0 0 0 1 0 0 1.5 1 no_rotate no_reflect no_shear #
rgb_color-st-attrib $-1 -1 $40 $-1 $10 1 0.5 1 #
lump $-1 -1 $-1 $-1 $41 $10 #
transform $-1 -1 1 0 0 0 1 0 0 0 1 0 0 1.5 1 no_rotate no_reflect no_shear #
face $42 -1 $-1 $43 $44 $11 $-1 $45 reversed single #
shell $-1 -1 $-1 $-1 $-1 $46 $-1 $13 #
model_id-kcp-attrib $-1 -1 $-1 $15 $6 1 1021519688 1021519689 -1453981692 1 #
shell $-1 -1 $-1 $-1 $-1 $47 $-1 $16 #
model_id-kcp-attrib $-1 -1 $-1 $18 $7 1 1021519688 1021519689 -1449983997 1 #
shell $-1 -1 $-1 $-1 $-1 $48 $-1 $19 #
model_id-kcp-attrib $-1 -1 $-1 $21 $8 1 1021519688 1021519689 -1445855227 1 #
shell $-1 -1 $-1 $-1 $-1 $49 $-1 $22 #
model_id-kcp-attrib $-1 -1 $-1 $24 $9 1 1021519688 1021519690 -1454178298 1 #
shell $-1 -1 $-1 $-1 $-1 $50 $-1 $25 #
model_id-kcp-attrib $-1 -1 $-1 $27 $10 1 1021519688 1021519690 -1449328633 1 #
shell $-1 -1 $-1 $-1 $-1 $51 $-1 $28 #
model_id-kcp-attrib $-1 -1 $-1 $-1 $30 1 1021519688 1021519689 -1457848319 2 #
face $52 -1 $-1 $53 $54 $11 $-1 $55 forward single #
loop $-1 -1 $-1 $56 $57 $30 #
plane-surface $-1 -1 $-1 0 0 0 0 0 1 1 0 0 forward_v I I I I #
face $58 -1 $-1 $59 $60 $31 $-1 $61 forward single #
face $-1 -1 $-1 $62 $63 $33 $-1 $64 forward single #
face $-1 -1 $-1 $65 $66 $35 $-1 $67 reversed single #
face $-1 -1 $-1 $68 $69 $37 $-1 $70 forward single #
face $-1 -1 $-1 $71 $72 $39 $-1 $73 forward single #
face $-1 -1 $-1 $74 $75 $41 $-1 $76 forward single #
model_id-kcp-attrib $-1 -1 $-1 $-1 $43 1 1021519688 1021519689 -1457848319 3 #
face $77 -1 $-1 $78 $79 $11 $-1 $80 forward single #
loop $-1 -1 $-1 $-1 $81 $43 #
cone-surface $-1 -1 $-1 0 0 0 0 0 1 2.5 0 0 1 I I 0 1 2.5 forward I I I I #
loop $-1 -1 $-1 $-1 $82 $30 #
coedge $-1 -1 $-1 $83 $83 $84 $85 reversed $44 $-1 #
model_id-kcp-attrib $-1 -1 $-1 $-1 $46 1 1021519688 1021519689 -1457192958 2 #
face $86 -1 $-1 $87 $88 $31 $-1 $89 reversed single #
loop $-1 -1 $-1 $-1 $90 $46 #
plane-surface $-1 -1 $-1 0 0 5.5 0 0 1 1 0 0 forward_v I I I I #
face $-1 -1 $-1 $91 $92 $33 $-1 $93 forward single #
loop $-1 -1 $-1 $-1 $94 $47 #
cone-surface $-1 -1 $-1 9.372879511388359e-033 0 5.5 0 0 1 -2.5 0 0 1 I I 0 1 2.5 forward I I I I #
face $-1 -1 $-1 $95 $96 $35 $-1 $67 reversed single #
loop $-1 -1 $-1 $-1 $97 $48 #
cone-surface $-1 -1 $-1 9.372879511388359e-033 0 5.5 0 0 1 -2.5 0 0 1 I I 0 1 2.5 forward I I I I #
face $-1 -1 $-1 $98 $99 $37 $-1 $100 forward single #
loop $-1 -1 $-1 $-1 $101 $49 #
cone-surface $-1 -1 $-1 9.372879511388359e-033 0 5.5 0 0 1 -2.5 0 0 1 I I 0 1 2.5 forward I I I I #
face $-1 -1 $-1 $102 $103 $39 $-1 $104 forward single #
loop $-1 -1 $-1 $-1 $105 $50 #
plane-surface $-1 -1 $-1 -1.5 1.8200000000000001 -5.5 0 0 -1 -1 0 0 forward_v I I I I #
face $-1 -1 $-1 $106 $107 $41 $-1 $108 forward single #
loop $-1 -1 $-1 $-1 $109 $51 #
plane-surface $-1 -1 $-1 -1.5 -1.78 -1.5 0 0 1 1 0 0 forward_v I I I I #
model_id-kcp-attrib $-1 -1 $-1 $-1 $53 1 1021519688 1021519689 -1457848319 4 #
face $110 -1 $-1 $111 $112 $11 $-1 $113 forward single #
loop $-1 -1 $-1 $-1 $114 $53 #
cone-surface $-1 -1 $-1 0 0 0 0 0 1 2.5 0 0 1 I I 0 1 2.5 forward I I I I #
coedge $-1 -1 $-1 $115 $84 $116 $117 forward $54 $-1 #
coedge $-1 -1 $-1 $118 $119 $120 $121 reversed $56 $-1 #
coedge $-1 -1 $-1 $57 $57 $122 $123 reversed $44 $-1 #
coedge $-1 -1 $-1 $81 $124 $57 $85 forward $54 $-1 #
edge $125 -1 $-1 $126 0 $127 3.1415926535897931 $57 $128 forward @7 unknown #
model_id-kcp-attrib $-1 -1 $-1 $-1 $59 1 1021519688 1021519689 -1457192958 3 #
face $-1 -1 $-1 $129 $130 $31 $-1 $131 reversed single #
loop $-1 -1 $-1 $-1 $132 $59 #
plane-surface $-1 -1 $-1 0 0 -5.5 0 0 1 1 0 0 forward_v I I I I #
coedge $-1 -1 $-1 $133 $134 $135 $136 forward $60 $-1 #
face $-1 -1 $-1 $137 $138 $33 $-1 $139 forward single #
loop $-1 -1 $-1 $-1 $140 $62 #
plane-surface $-1 -1 $-1 -1.5 -2 -5.5 0 0 -1 -1 0 0 forward_v I I I I #
coedge $-1 -1 $-1 $141 $142 $143 $144 forward $63 $-1 #
face $-1 -1 $-1 $145 $146 $35 $-1 $67 reversed single #
loop $-1 -1 $-1 $-1 $147 $65 #
coedge $-1 -1 $-1 $148 $149 $150 $151 reversed $66 $-1 #
face $-1 -1 $-1 $152 $153 $37 $-1 $154 forward single #
loop $-1 -1 $-1 $-1 $155 $68 #
plane-surface $-1 -1 $-1 1.5 -2 -1.5 0 0 1 1 0 0 forward_v I I I I #
coedge $-1 -1 $-1 $156 $157 $155 $158 forward $69 $-1 #
face $-1 -1 $-1 $159 $160 $39 $-1 $161 forward single #
loop $-1 -1 $-1 $-1 $162 $71 #
plane-surface $-1 -1 $-1 1.5 1.8200000000000001 -5.5 1 0 0 0 0 -1 forward_v I I I I #
coedge $-1 -1 $-1 $163 $164 $165 $166 forward $72 $-1 #
face $-1 -1 $-1 $167 $168 $41 $-1 $169 forward single #
loop $-1 -1 $-1 $-1 $170 $74 #
plane-surface $-1 -1 $-1 1.5 -1.78 -1.5 1 0 0 0 0 -1 forward_v I I I I #
coedge $-1 -1 $-1 $171 $172 $173 $174 forward $75 $-1 #
model_id-kcp-attrib $-1 -1 $-1 $-1 $78 1 1021519688 1021519689 -1457848319 5 #
face $175 -1 $-1 $176 $177 $11 $-1 $178 forward single #
loop $-1 -1 $-1 $-1 $179 $78 #
torus-surface $-1 -1 $-1 0 0 6.75 0 0 1 2.25 0.25 1 0 0 forward_v I I I I #
coedge $-1 -1 $-1 $180 $122 $124 $181 forward $79 $-1 #
coedge $-1 -1 $-1 $124 $81 $182 $183 reversed $54 $-1 #
coedge $-1 -1 $-1 $122 $180 $81 $117 reversed $79 $-1 #
edge $-1 -1 $-1 $127 0 $184 6.75 $116 $185 forward @7 unknown #
coedge $-1 -1 $-1 $186 $82 $187 $188 reversed $56 $-1 #
coedge $-1 -1 $-1 $82 $186 $189 $190 reversed $56 $-1 #
coedge $-1 -1 $-1 $191 $192 $82 $121 forward $193 $-1 #
edge $194 -1 $-1 $195 0 $196 3.6000000000000001 $82 $197 forward @7 unknown #
coedge $-1 -1 $-1 $114 $116 $83 $123 forward $79 $-1 #
edge $198 -1 $-1 $127 0 $126 3.1415926535897931 $83 $199 forward @7 unknown #
coedge $-1 -1 $-1 $84 $115 $114 $181 reversed $54 $-1 #
attrib_edge_convexity-kcp-attrib $-1 -1 $200 $-1 $85 1 #
vertex $-1 -1 $-1 $123 $201 #
vertex $-1 -1 $-1 $123 $202 #
ellipse-curve $-1 -1 $-1 0 0 0 0 0 1 -2.5 0 0 1 I I #
face $-1 -1 $-1 $203 $204 $31 $-1 $205 reversed single #
loop $-1 -1 $-1 $-1 $206 $87 #
plane-surface $-1 -1 $-1 0 -2.5 0 0 1 0 0 0 1 forward_v I I I I #
coedge $-1 -1 $-1 $207 $208 $209 $210 forward $88 $-1 #
coedge $-1 -1 $-1 $211 $90 $212 $213 forward $60 $-1 #
coedge $-1 -1 $-1 $90 $211 $214 $215 forward $60 $-1 #
coedge $-1 -1 $-1 $216 $217 $90 $136 reversed $218 $-1 #
edge $-1 -1 $-1 $219 -2.5 $220 2.5 $135 $221 forward @7 unknown #
face $-1 -1 $-1 $-1 $222 $33 $-1 $223 forward single #
loop $-1 -1 $-1 $-1 $143 $91 #
plane-surface $-1 -1 $-1 -1.5 2 -1.5 0 0 1 1 0 0 forward_v I I I I #
coedge $-1 -1 $-1 $224 $224 $225 $226 reversed $92 $-1 #
coedge $-1 -1 $-1 $225 $94 $227 $228 reversed $63 $-1 #
coedge $-1 -1 $-1 $94 $225 $229 $230 reversed $63 $-1 #
coedge $-1 -1 $-1 $231 $231 $94 $144 reversed $138 $-1 #
edge $-1 -1 $-1 $232 -0.92729521800161219 $233 0.92729521800161219 $143 $234 forward @7 unknown #
face $-1 -1 $-1 $235 $236 $35 $-1 $67 reversed single #
loop $-1 -1 $-1 $-1 $237 $95 #
coedge $-1 -1 $-1 $238 $239 $240 $241 reversed $96 $-1 #
coedge $-1 -1 $-1 $242 $97 $243 $244 reversed $66 $-1 #
coedge $-1 -1 $-1 $97 $242 $245 $246 reversed $66 $-1 #
coedge $-1 -1 $-1 $247 $248 $249 $151 forward $250 $-1 #
edge $-1 -1 $-1 $251 -11 $252 0 $150 $253 forward @7 unknown #
face $-1 -1 $-1 $-1 $254 $37 $-1 $255 reversed single #
loop $-1 -1 $-1 $-1 $256 $98 #
plane-surface $-1 -1 $-1 1.5 2 -5.5 0 0 -1 -1 0 0 forward_v I I I I #
coedge $-1 -1 $-1 $257 $257 $101 $158 reversed $99 $-1 #
coedge $-1 -1 $-1 $258 $101 $259 $260 reversed $69 $-1 #
coedge $-1 -1 $-1 $101 $258 $261 $262 reversed $69 $-1 #
edge $-1 -1 $-1 $263 2.2142974355881808 $264 4.0688878715914054 $155 $265 forward @7 unknown #
face $-1 -1 $-1 $266 $267 $39 $-1 $268 forward single #
loop $-1 -1 $-1 $-1 $269 $102 #
plane-surface $-1 -1 $-1 1.5 1.8200000000000001 -1.5 0 0 1 1 0 0 forward_v I I I I #
coedge $-1 -1 $-1 $270 $271 $272 $273 forward $103 $-1 #
coedge $-1 -1 $-1 $274 $105 $271 $275 reversed $72 $-1 #
coedge $-1 -1 $-1 $105 $274 $276 $277 forward $72 $-1 #
coedge $-1 -1 $-1 $278 $272 $105 $166 reversed $279 $-1 #
edge $-1 -1 $-1 $280 -1.5 $281 1.5 $105 $282 forward @7 unknown #
face $-1 -1 $-1 $283 $284 $41 $-1 $285 forward single #
loop $-1 -1 $-1 $-1 $286 $106 #
plane-surface $-1 -1 $-1 1.5 -1.78 -5.5 0 0 -1 -1 0 0 forward_v I I I I #
coedge $-1 -1 $-1 $287 $288 $289 $290 forward $107 $-1 #
coedge $-1 -1 $-1 $291 $109 $288 $292 reversed $75 $-1 #
coedge $-1 -1 $-1 $109 $291 $293 $294 forward $75 $-1 #
coedge $-1 -1 $-1 $295 $289 $109 $174 reversed $296 $-1 #
edge $-1 -1 $-1 $297 -1.5 $298 1.5 $109 $299 forward @7 unknown #
model_id-kcp-attrib $-1 -1 $-1 $-1 $111 1 1021519688 1021519689 -1457848319 6 #
face $300 -1 $-1 $301 $302 $11 $-1 $303 forward single #
loop $-1 -1 $-1 $-1 $304 $111 #
torus-surface $-1 -1 $-1 0 0 6.75 0 0 1 2.25 0.25 1 0 0 forward_v I I I I #
coedge $-1 -1 $-1 $305 $306 $307 $308 forward $112 $-1 #
coedge $-1 -1 $-1 $116 $114 $305 $309 reversed $79 $-1 #
edge $-1 -1 $-1 $126 0 $310 6.75 $114 $311 forward @7 unknown #
coedge $-1 -1 $-1 $307 $304 $115 $183 forward $177 $-1 #
edge $-1 -1 $-1 $310 0 $184 3.1415926535897931 $115 $312 forward @7 unknown #
vertex $-1 -1 $-1 $117 $313 #
straight-curve $-1 -1 $-1 2.5 0 0 0 0 1 I I #
coedge $-1 -1 $-1 $119 $118 $314 $315 reversed $56 $-1 #
coedge $-1 -1 $-1 $316 $317 $118 $188 forward $318 $-1 #
edge $319 -1 $-1 $320 0 $195 3 $118 $321 forward @7 unknown #
coedge $-1 -1 $-1 $322 $323 $119 $190 forward $324 $-1 #
edge $325 -1 $-1 $196 0 $326 3 $119 $327 forward @7 unknown #
coedge $-1 -1 $-1 $328 $120 $323 $329 forward $193 $-1 #
coedge $-1 -1 $-1 $120 $328 $316 $330 reversed $193 $-1 #
loop $-1 -1 $-1 $-1 $191 $331 #
attrib_edge_convexity-kcp-attrib $-1 -1 $332 $-1 $121 2 #
vertex $-1 -1 $-1 $188 $333 #
vertex $-1 -1 $-1 $190 $334 #
straight-curve $-1 -1 $-1 1.5 1.8200000000000001 0 0 -1 0 I I #
attrib_edge_convexity-kcp-attrib $-1 -1 $335 $-1 $123 1 #
ellipse-curve $-1 -1 $-1 0 0 0 0 0 1 2.5 0 0 1 I I #
convexity-sys-attrib $-1 -1 $-1 $125 $85 #
point $-1 -1 $-1 -2.5 0 0 #
point $-1 -1 $-1 2.5 0 0 #
face $-1 -1 $-1 $336 $337 $31 $-1 $338 reversed single #
loop $-1 -1 $-1 $-1 $339 $129 #
plane-surface $-1 -1 $-1 -2.5 0 0 1 0 0 0 0 -1 forward_v I I I I #
coedge $-1 -1 $-1 $340 $214 $341 $342 forward $130 $-1 #
coedge $-1 -1 $-1 $343 $132 $340 $344 forward $88 $-1 #
coedge $-1 -1 $-1 $132 $343 $345 $346 forward $88 $-1 #
coedge $-1 -1 $-1 $217 $216 $132 $210 reversed $218 $-1 #
edge $-1 -1 $-1 $347 -2.5 $348 2.5 $209 $349 forward @7 unknown #
coedge $-1 -1 $-1 $134 $133 $350 $351 forward $60 $-1 #
coedge $-1 -1 $-1 $352 $353 $133 $213 reversed $337 $-1 #
edge $-1 -1 $-1 $220 -2.5 $354 2.5 $212 $355 forward @7 unknown #
coedge $-1 -1 $-1 $206 $356 $134 $215 reversed $130 $-1 #
edge $-1 -1 $-1 $357 -2.5 $219 2.5 $214 $358 forward @7 unknown #
coedge $-1 -1 $-1 $209 $135 $356 $359 forward $218 $-1 #
coedge $-1 -1 $-1 $135 $209 $352 $360 reversed $218 $-1 #
loop $-1 -1 $-1 $-1 $216 $336 #
vertex $-1 -1 $-1 $136 $361 #
vertex $-1 -1 $-1 $136 $362 #
straight-curve $-1 -1 $-1 2.5 0 5.5 0 1 0 I I #
loop $-1 -1 $-1 $-1 $363 $137 #
plane-surface $-1 -1 $-1 -1.5 1.1102230246251565e-016 -3.5 1 0 0 0 0 -1 forward_v I I I I #
coedge $-1 -1 $-1 $140 $140 $364 $365 reversed $92 $-1 #
coedge $-1 -1 $-1 $142 $141 $140 $226 forward $63 $-1 #
edge $-1 -1 $-1 $366 -0.92729521800161219 $367 0.92729521800161219 $140 $368 forward @7 unknown #
coedge $-1 -1 $-1 $363 $364 $141 $228 forward $222 $-1 #
edge $369 -1 $-1 $366 -11 $233 -7 $227 $370 forward @7 unknown #
coedge $-1 -1 $-1 $364 $363 $142 $230 forward $222 $-1 #
edge $371 -1 $-1 $232 7 $367 11 $229 $372 forward @7 unknown #
coedge $-1 -1 $-1 $143 $143 $363 $373 reversed $138 $-1 #
vertex $-1 -1 $-1 $373 $374 #
vertex $-1 -1 $-1 $373 $375 #
ellipse-curve $-1 -1 $-1 9.372879511388359e-033 0 -1.5 0 0 -1 -2.5 0 0 1 I I #
face $-1 -1 $-1 $376 $377 $35 $-1 $378 reversed single #
loop $-1 -1 $-1 $-1 $379 $145 #
coedge $-1 -1 $-1 $380 $381 $382 $383 reversed $146 $-1 #
coedge $-1 -1 $-1 $384 $147 $385 $386 reversed $96 $-1 #
coedge $-1 -1 $-1 $147 $384 $97 $151 forward $96 $-1 #
coedge $-1 -1 $-1 $387 $388 $147 $241 forward $389 $-1 #
edge $-1 -1 $-1 $390 -3.1415926535897931 $252 -1.5707963267948966 $240 $391 forward @7 unknown #
coedge $-1 -1 $-1 $149 $148 $381 $392 forward $66 $-1 #
coedge $-1 -1 $-1 $393 $394 $148 $244 forward $395 $-1 #
edge $-1 -1 $-1 $396 0 $251 1.5707963267948966 $243 $397 forward @7 unknown #
coedge $-1 -1 $-1 $398 $399 $149 $246 forward $400 $-1 #
edge $-1 -1 $-1 $252 -1.5707963267948966 $401 0 $245 $391 forward @7 unknown #
coedge $-1 -1 $-1 $402 $150 $399 $403 reversed $250 $-1 #
coedge $-1 -1 $-1 $150 $402 $393 $404 reversed $250 $-1 #
coedge $-1 -1 $-1 $405 $406 $239 $151 reversed $407 $-1 #
loop $-1 -1 $-1 $-1 $150 $408 #
vertex $-1 -1 $-1 $404 $409 #
vertex $-1 -1 $-1 $410 $411 #
straight-curve $-1 -1 $-1 9.372879511388359e-033 -2.5 5.5 0 0 1 I I #
loop $-1 -1 $-1 $-1 $412 $152 #
plane-surface $-1 -1 $-1 1.5 5.5511151231257827e-017 -3.5 1 0 0 0 0 -1 forward_v I I I I #
coedge $-1 -1 $-1 $413 $413 $258 $414 reversed $153 $-1 #
coedge $-1 -1 $-1 $155 $155 $412 $415 reversed $99 $-1 #
coedge $-1 -1 $-1 $157 $156 $256 $414 forward $69 $-1 #
coedge $-1 -1 $-1 $412 $416 $156 $260 forward $254 $-1 #
edge $417 -1 $-1 $418 -11 $264 -7 $259 $419 forward @7 unknown #
coedge $-1 -1 $-1 $416 $412 $157 $262 forward $254 $-1 #
edge $420 -1 $-1 $263 7 $421 11 $261 $422 forward @7 unknown #
vertex $-1 -1 $-1 $415 $423 #
vertex $-1 -1 $-1 $415 $424 #
ellipse-curve $-1 -1 $-1 9.372879511388359e-033 0 -1.5 0 0 -1 -2.5 0 0 1 I I #
face $-1 -1 $-1 $425 $279 $39 $-1 $426 forward single #
loop $-1 -1 $-1 $-1 $427 $159 #
plane-surface $-1 -1 $-1 -1.5 1.8200000000000001 -1.5 -1 0 0 0 0 1 forward_v I I I I #
coedge $-1 -1 $-1 $428 $429 $430 $431 forward $160 $-1 #
coedge $-1 -1 $-1 $432 $162 $429 $433 reversed $103 $-1 #
coedge $-1 -1 $-1 $162 $432 $163 $275 forward $103 $-1 #
coedge $-1 -1 $-1 $165 $430 $162 $273 reversed $279 $-1 #
edge $-1 -1 $-1 $281 -2 $434 2 $162 $435 forward @7 unknown #
coedge $-1 -1 $-1 $164 $163 $436 $437 reversed $72 $-1 #
edge $-1 -1 $-1 $438 0 $281 0.17999999999999994 $271 $439 forward @7 unknown #
coedge $-1 -1 $-1 $440 $427 $164 $277 reversed $267 $-1 #
edge $-1 -1 $-1 $441 0 $280 0.17999999999999994 $164 $442 forward @7 unknown #
coedge $-1 -1 $-1 $430 $165 $427 $443 reversed $279 $-1 #
loop $-1 -1 $-1 $-1 $165 $266 #
vertex $-1 -1 $-1 $277 $444 #
vertex $-1 -1 $-1 $275 $445 #
straight-curve $-1 -1 $-1 0 2 -5.5 1 0 0 I I #
face $-1 -1 $-1 $446 $296 $41 $-1 $447 reversed single #
loop $-1 -1 $-1 $-1 $448 $167 #
plane-surface $-1 -1 $-1 -1.5 -1.78 -5.5 -1 0 0 0 0 1 forward_v I I I I #
coedge $-1 -1 $-1 $449 $450 $451 $452 forward $168 $-1 #
coedge $-1 -1 $-1 $453 $170 $450 $454 reversed $107 $-1 #
coedge $-1 -1 $-1 $170 $453 $171 $292 forward $107 $-1 #
coedge $-1 -1 $-1 $173 $451 $170 $290 reversed $296 $-1 #
edge $-1 -1 $-1 $298 -2 $455 2 $170 $456 forward @7 unknown #
coedge $-1 -1 $-1 $172 $171 $457 $458 reversed $75 $-1 #
edge $-1 -1 $-1 $459 0 $298 0.21999999999999997 $288 $460 forward @7 unknown #
coedge $-1 -1 $-1 $461 $448 $172 $294 reversed $284 $-1 #
edge $-1 -1 $-1 $462 0 $297 0.21999999999999997 $172 $463 forward @7 unknown #
coedge $-1 -1 $-1 $451 $173 $448 $464 reversed $296 $-1 #
loop $-1 -1 $-1 $-1 $173 $283 #
vertex $-1 -1 $-1 $294 $465 #
vertex $-1 -1 $-1 $292 $466 #
straight-curve $-1 -1 $-1 0 -1.9999999999999993 -1.5 1 0 0 I I #
model_id-kcp-attrib $-1 -1 $-1 $-1 $176 1 1021519688 1021519689 -1457848319 7 #
face $467 -1 $-1 $468 $469 $11 $-1 $470 forward single #
loop $-1 -1 $-1 $471 $472 $176 #
plane-surface $-1 -1 $-1 0 0 7 0 0 1 1 0 0 forward_v I I I I #
coedge $-1 -1 $-1 $182 $473 $474 $475 forward $177 $-1 #
coedge $-1 -1 $-1 $474 $179 $180 $309 forward $112 $-1 #
coedge $-1 -1 $-1 $179 $474 $476 $477 reversed $112 $-1 #
coedge $-1 -1 $-1 $473 $182 $179 $308 reversed $177 $-1 #
edge $-1 -1 $-1 $478 -7.888609052210062e-031 $184 1.5707963267948895 $179 $479 forward @7 unknown #
edge $-1 -1 $-1 $184 0 $310 3.1415926535897931 $180 $480 forward @7 unknown #
vertex $-1 -1 $-1 $309 $481 #
straight-curve $-1 -1 $-1 -2.5 3.0615158845559431e-016 0 0 0 1 I I #
ellipse-curve $-1 -1 $-1 0 0 6.7499999999999991 0 0 1 -2.5 3.0615158845559431e-016 0 1 I I #
point $-1 -1 $-1 2.5 0 6.75 #
coedge $-1 -1 $-1 $482 $483 $186 $315 forward $484 $-1 #
edge $485 -1 $-1 $326 0 $320 3.6000000000000001 $186 $486 forward @7 unknown #
coedge $-1 -1 $-1 $487 $187 $192 $330 forward $318 $-1 #
coedge $-1 -1 $-1 $187 $487 $482 $488 reversed $318 $-1 #
loop $-1 -1 $-1 $-1 $316 $489 #
attrib_edge_convexity-kcp-attrib $-1 -1 $490 $-1 $188 2 #
vertex $-1 -1 $-1 $315 $491 #
straight-curve $-1 -1 $-1 -1.5 1.8200000000000001 0 1 0 0 I I #
coedge $-1 -1 $-1 $492 $189 $483 $493 forward $324 $-1 #
coedge $-1 -1 $-1 $189 $492 $191 $329 reversed $324 $-1 #
loop $-1 -1 $-1 $-1 $322 $494 #
attrib_edge_convexity-kcp-attrib $-1 -1 $495 $-1 $190 2 #
vertex $-1 -1 $-1 $190 $496 #
straight-curve $-1 -1 $-1 1.5 -1.78 0 -1 0 0 I I #
coedge $-1 -1 $-1 $192 $191 $497 $498 reversed $193 $-1 #
edge $499 -1 $-1 $196 0 $500 4 $323 $501 forward @7 unknown #
edge $502 -1 $-1 $195 0 $503 4 $316 $504 forward @7 unknown #
face $505 -1 $-1 $494 $193 $11 $-1 $506 forward single #
convexity-sys-attrib $-1 -1 $-1 $194 $121 #
point $-1 -1 $-1 1.5 1.8200000000000001 0 #
point $-1 -1 $-1 1.5 -1.78 0 #
convexity-sys-attrib $-1 -1 $-1 $198 $123 #
face $-1 -1 $-1 $-1 $218 $31 $-1 $507 reversed single #
loop $-1 -1 $-1 $-1 $352 $203 #
plane-surface $-1 -1 $-1 0 2.5 0 0 -1 0 0 0 -1 forward_v I I I I #
coedge $-1 -1 $-1 $508 $350 $353 $509 forward $204 $-1 #
coedge $-1 -1 $-1 $356 $206 $207 $344 reversed $130 $-1 #
coedge $-1 -1 $-1 $350 $508 $206 $342 reversed $204 $-1 #
edge $-1 -1 $-1 $357 -5.5 $510 5.5 $341 $511 forward @7 unknown #
coedge $-1 -1 $-1 $208 $207 $508 $512 forward $88 $-1 #
edge $-1 -1 $-1 $348 -2.5 $510 2.5 $340 $513 forward @7 unknown #
coedge $-1 -1 $-1 $353 $352 $208 $346 reversed $337 $-1 #
edge $-1 -1 $-1 $514 -2.5 $347 2.5 $345 $515 forward @7 unknown #
vertex $-1 -1 $-1 $210 $516 #
vertex $-1 -1 $-1 $359 $517 #
straight-curve $-1 -1 $-1 2.5 0 -5.5 0 -1 0 I I #
coedge $-1 -1 $-1 $339 $341 $211 $351 reversed $204 $-1 #
edge $-1 -1 $-1 $354 -2.5 $357 2.5 $350 $518 forward @7 unknown #
coedge $-1 -1 $-1 $345 $212 $217 $360 forward $337 $-1 #
coedge $-1 -1 $-1 $212 $345 $339 $509 reversed $337 $-1 #
vertex $-1 -1 $-1 $213 $519 #
straight-curve $-1 -1 $-1 0 2.5 5.5 -1 0 0 I I #
coedge $-1 -1 $-1 $214 $340 $216 $359 reversed $130 $-1 #
vertex $-1 -1 $-1 $351 $520 #
straight-curve $-1 -1 $-1 0 -2.5 5.5 1 0 0 I I #
edge $-1 -1 $-1 $219 -5.5 $348 5.5 $216 $521 forward @7 unknown #
edge $-1 -1 $-1 $220 -5.5 $347 5.5 $217 $522 forward @7 unknown #
point $-1 -1 $-1 2.5 -2.5 5.5 #
point $-1 -1 $-1 2.5 2.5 5.5 #
coedge $-1 -1 $-1 $229 $227 $231 $373 forward $222 $-1 #
coedge $-1 -1 $-1 $227 $229 $224 $365 forward $222 $-1 #
edge $523 -1 $-1 $367 -2.0099999999999998 $366 1.99 $224 $524 forward @7 unknown #
vertex $-1 -1 $-1 $365 $525 #
vertex $-1 -1 $-1 $230 $526 #
ellipse-curve $-1 -1 $-1 9.372879511388359e-033 0 -5.5 0 0 1 -2.5 0 0 1 I I #
convexity-sys-attrib $-1 -1 $-1 $-1 $228 #
straight-curve $-1 -1 $-1 -1.5 2 5.5 0 0 1 I I #
convexity-sys-attrib $-1 -1 $-1 $-1 $230 #
straight-curve $-1 -1 $-1 -1.5 -2 5.5 0 0 -1 I I #
edge $527 -1 $-1 $233 -1.99 $232 2.0099999999999998 $231 $528 forward @7 unknown #
point $-1 -1 $-1 -1.5 -2 -1.5 #
point $-1 -1 $-1 -1.5 2 -1.5 #
face $-1 -1 $-1 $529 $407 $35 $-1 $530 reversed single #
loop $-1 -1 $-1 $-1 $531 $235 #
plane-surface $-1 -1 $-1 -2.5 0 0 1 0 0 0 0 -1 forward_v I I I I #
coedge $-1 -1 $-1 $532 $533 $534 $535 reversed $236 $-1 #
coedge $-1 -1 $-1 $536 $237 $533 $537 forward $146 $-1 #
coedge $-1 -1 $-1 $237 $536 $538 $392 reversed $146 $-1 #
coedge $-1 -1 $-1 $539 $540 $237 $383 forward $541 $-1 #
edge $-1 -1 $-1 $542 -1.5707963267948966 $396 0 $382 $397 forward @7 unknown #
coedge $-1 -1 $-1 $239 $238 $543 $544 reversed $96 $-1 #
coedge $-1 -1 $-1 $545 $546 $547 $386 forward $548 $-1 #
edge $-1 -1 $-1 $549 -11 $390 0 $385 $550 forward @7 unknown #
coedge $-1 -1 $-1 $388 $240 $406 $410 forward $389 $-1 #
coedge $-1 -1 $-1 $240 $387 $545 $551 forward $389 $-1 #
loop $-1 -1 $-1 $-1 $240 $552 #
vertex $-1 -1 $-1 $553 $554 #
ellipse-curve $-1 -1 $-1 9.372879511388359e-033 0 5.5 0 0 -1 -2.5 0 0 1 I I #
edge $-1 -1 $-1 $396 -11 $401 0 $538 $555 forward @7 unknown #
coedge $-1 -1 $-1 $394 $243 $248 $404 forward $395 $-1 #
coedge $-1 -1 $-1 $243 $393 $556 $557 forward $395 $-1 #
loop $-1 -1 $-1 $-1 $243 $558 #
vertex $-1 -1 $-1 $559 $560 #
ellipse-curve $-1 -1 $-1 9.372879511388359e-033 0 -5.5 0 0 1 -2.5 0 0 1 I I #
coedge $-1 -1 $-1 $399 $245 $561 $562 forward $400 $-1 #
coedge $-1 -1 $-1 $245 $398 $247 $403 forward $400 $-1 #
loop $-1 -1 $-1 $-1 $245 $563 #
vertex $-1 -1 $-1 $562 $564 #
coedge $-1 -1 $-1 $248 $247 $565 $566 forward $250 $-1 #
edge $-1 -1 $-1 $567 -2.5 $252 9.372879511388359e-033 $247 $568 forward @7 unknown #
edge $-1 -1 $-1 $251 -9.372879511388359e-033 $569 2.5 $248 $570 forward @7 unknown #
coedge $-1 -1 $-1 $571 $249 $572 $573 reversed $407 $-1 #
coedge $-1 -1 $-1 $249 $571 $387 $410 reversed $407 $-1 #
loop $-1 -1 $-1 $-1 $249 $376 #
face $-1 -1 $-1 $574 $250 $35 $-1 $530 reversed single #
point $-1 -1 $-1 9.372879511388359e-033 -2.5 -5.5 #
edge $-1 -1 $-1 $252 9.372879511388359e-033 $575 2.5 $406 $568 forward @7 unknown #
point $-1 -1 $-1 9.372879511388359e-033 -2.5 5.5 #
coedge $-1 -1 $-1 $261 $259 $257 $415 forward $254 $-1 #
coedge $-1 -1 $-1 $256 $256 $416 $576 reversed $153 $-1 #
edge $-1 -1 $-1 $418 2.2142974355881808 $421 4.0688878715914054 $256 $577 forward @7 unknown #
edge $578 -1 $-1 $264 -2.0099999999999998 $263 1.99 $257 $579 forward @7 unknown #
coedge $-1 -1 $-1 $259 $261 $413 $576 forward $254 $-1 #
convexity-sys-attrib $-1 -1 $-1 $-1 $260 #
vertex $-1 -1 $-1 $576 $580 #
straight-curve $-1 -1 $-1 1.5 -2 5.5 0 0 1 I I #
convexity-sys-attrib $-1 -1 $-1 $-1 $262 #
vertex $-1 -1 $-1 $262 $581 #
straight-curve $-1 -1 $-1 1.5 2 5.5 0 0 -1 I I #
point $-1 -1 $-1 1.5 2 -1.5 #
point $-1 -1 $-1 1.5 -2 -1.5 #
face $-1 -1 $-1 $-1 $582 $39 $-1 $583 reversed single #
plane-surface $-1 -1 $-1 -8.6510885035726482e-018 2 -3.5 6.5411352008375761e-033 1 -3.7936442052307325e-049 0 3.7936442052307325e-049 1 forward_v I I I I #
coedge $-1 -1 $-1 $276 $584 $278 $443 forward $267 $-1 #
coedge $-1 -1 $-1 $585 $269 $584 $586 reversed $160 $-1 #
coedge $-1 -1 $-1 $269 $585 $270 $433 forward $160 $-1 #
coedge $-1 -1 $-1 $272 $278 $269 $431 reversed $279 $-1 #
edge $-1 -1 $-1 $434 -1.5 $587 1.5 $269 $588 forward @7 unknown #
coedge $-1 -1 $-1 $271 $270 $589 $590 reversed $103 $-1 #
edge $-1 -1 $-1 $591 0 $434 0.17999999999999994 $429 $592 forward @7 unknown #
vertex $-1 -1 $-1 $433 $593 #
straight-curve $-1 -1 $-1 1.5 2 -3.5 0 0 1 I I #
coedge $-1 -1 $-1 $589 $594 $274 $437 forward $582 $-1 #
edge $595 -1 $-1 $441 -1.5 $438 1.5 $274 $596 forward @7 unknown #
vertex $-1 -1 $-1 $437 $597 #
straight-curve $-1 -1 $-1 1.5 1.8200000000000001 -5.5 0 1 0 I I #
coedge $-1 -1 $-1 $584 $276 $594 $598 reversed $267 $-1 #
vertex $-1 -1 $-1 $598 $599 #
straight-curve $-1 -1 $-1 -1.5 1.8200000000000001 -5.5 0 1 0 I I #
edge $-1 -1 $-1 $587 -2 $280 2 $427 $600 forward @7 unknown #
point $-1 -1 $-1 -1.5 2 -5.5 #
point $-1 -1 $-1 1.5 2 -5.5 #
face $-1 -1 $-1 $-1 $601 $41 $-1 $602 forward single #
plane-surface $-1 -1 $-1 -8.6510885035726482e-018 -1.9999999999999993 -3.5 1.3082270401675158e-032 1 2.94351084037691e-032 0 -2.94351084037691e-032 1 forward_v I I I I #
coedge $-1 -1 $-1 $293 $603 $295 $464 forward $284 $-1 #
coedge $-1 -1 $-1 $604 $286 $603 $605 reversed $168 $-1 #
coedge $-1 -1 $-1 $286 $604 $287 $454 forward $168 $-1 #
coedge $-1 -1 $-1 $289 $295 $286 $452 reversed $296 $-1 #
edge $-1 -1 $-1 $455 -1.5 $606 1.5 $286 $607 forward @7 unknown #
coedge $-1 -1 $-1 $288 $287 $608 $609 reversed $107 $-1 #
edge $-1 -1 $-1 $610 0 $455 0.21999999999999997 $450 $611 forward @7 unknown #
vertex $-1 -1 $-1 $454 $612 #
straight-curve $-1 -1 $-1 1.5 -1.9999999999999993 -3.5 0 0 -1 I I #
coedge $-1 -1 $-1 $608 $613 $291 $458 forward $601 $-1 #
edge $614 -1 $-1 $462 -1.5 $459 1.5 $291 $615 forward @7 unknown #
vertex $-1 -1 $-1 $458 $616 #
straight-curve $-1 -1 $-1 1.5 -1.78 -1.5 0 -1 0 I I #
coedge $-1 -1 $-1 $603 $293 $613 $617 reversed $284 $-1 #
vertex $-1 -1 $-1 $617 $618 #
straight-curve $-1 -1 $-1 -1.5 -1.78 -1.5 0 -1 0 I I #
edge $-1 -1 $-1 $606 -2 $297 2 $448 $619 forward @7 unknown #
point $-1 -1 $-1 -1.5 -2 -1.5 #
point $-1 -1 $-1 1.5 -2 -1.5 #
model_id-kcp-attrib $-1 -1 $-1 $-1 $301 1 1021519688 1021519689 -1457848319 8 #
face $620 -1 $-1 $621 $622 $11 $-1 $623 forward single #
loop $-1 -1 $-1 $-1 $624 $301 #
torus-surface $-1 -1 $-1 0 0 6.75 0 0 -1 1.25 0.25 -1 0 0 forward_v I I I I #
loop $-1 -1 $-1 $-1 $625 $176 #
coedge $-1 -1 $-1 $476 $476 $473 $626 forward $302 $-1 #
coedge $-1 -1 $-1 $304 $307 $472 $626 reversed $177 $-1 #
coedge $-1 -1 $-1 $306 $305 $304 $475 reversed $112 $-1 #
edge $-1 -1 $-1 $627 0 $310 1.5707963267948895 $474 $628 forward @7 unknown #
coedge $-1 -1 $-1 $472 $472 $306 $477 forward $302 $-1 #
edge $629 -1 $-1 $478 0 $627 3.1415926535897931 $476 $630 forward @7 unknown #
vertex $-1 -1 $-1 $477 $631 #
ellipse-curve $-1 -1 $-1 2.2499999999999991 -5.5107285922006947e-016 6.7499999999999991 2.449212707644759e-016 1 3.1315620895736197e-031 8.8817841970012523e-016 -2.9582283945787943e-031 0.25000000000000089 1 I I #
ellipse-curve $-1 -1 $-1 0 0 6.7499999999999991 0 0 1 2.5 0 0 1 I I #
point $-1 -1 $-1 -2.5 3.0615158845559431e-016 6.75 #
coedge $-1 -1 $-1 $632 $314 $317 $488 forward $484 $-1 #
coedge $-1 -1 $-1 $314 $632 $322 $493 reversed $484 $-1 #
loop $-1 -1 $-1 $-1 $482 $633 #
attrib_edge_convexity-kcp-attrib $-1 -1 $634 $-1 $315 2 #
straight-curve $-1 -1 $-1 -1.5 -1.78 0 0 1 0 I I #
coedge $-1 -1 $-1 $317 $316 $635 $636 reversed $318 $-1 #
edge $637 -1 $-1 $320 0 $638 4 $482 $639 forward @7 unknown #
face $640 -1 $-1 $331 $318 $11 $-1 $641 forward single #
convexity-sys-attrib $-1 -1 $-1 $319 $188 #
point $-1 -1 $-1 -1.5 1.8200000000000001 0 #
coedge $-1 -1 $-1 $323 $322 $642 $643 reversed $324 $-1 #
edge $644 -1 $-1 $326 0 $645 4 $322 $646 forward @7 unknown #
face $647 -1 $-1 $-1 $324 $11 $-1 $648 forward single #
convexity-sys-attrib $-1 -1 $-1 $325 $190 #
point $-1 -1 $-1 -1.5 -1.78 0 #
coedge $-1 -1 $-1 $642 $635 $328 $498 forward $649 $-1 #
edge $650 -1 $-1 $503 0 $500 3.6000000000000001 $497 $651 forward @7 unknown #
attrib_edge_convexity-kcp-attrib $-1 -1 $652 $-1 $329 1 #
vertex $-1 -1 $-1 $643 $653 #
straight-curve $-1 -1 $-1 1.5 -1.78 0 0 0 -1 I I #
attrib_edge_convexity-kcp-attrib $-1 -1 $654 $-1 $330 1 #
vertex $-1 -1 $-1 $498 $655 #
straight-curve $-1 -1 $-1 1.5 1.8200000000000001 0 0 0 -1 I I #
model_id-kcp-attrib $-1 -1 $-1 $-1 $331 1 1021519688 1021519689 -1457848319 15 #
plane-surface $-1 -1 $-1 1.5 1.8200000000000001 0 1 0 0 0 -1 0 forward_v I I I I #
plane-surface $-1 -1 $-1 2.5 0 0 -1 0 0 0 0 1 forward_v I I I I #
coedge $-1 -1 $-1 $341 $339 $343 $512 reversed $204 $-1 #
edge $-1 -1 $-1 $354 -5.5 $514 5.5 $353 $656 forward @7 unknown #
vertex $-1 -1 $-1 $512 $657 #
straight-curve $-1 -1 $-1 -2.5 -2.5 0 0 0 -1 I I #
edge $-1 -1 $-1 $510 -2.5 $514 2.5 $508 $658 forward @7 unknown #
straight-curve $-1 -1 $-1 0 -2.5 -5.5 -1 0 0 I I #
vertex $-1 -1 $-1 $346 $659 #
straight-curve $-1 -1 $-1 0 2.5 -5.5 1 0 0 I I #
point $-1 -1 $-1 2.5 2.5 -5.5 #
point $-1 -1 $-1 2.5 -2.5 -5.5 #
straight-curve $-1 -1 $-1 -2.5 0 5.5 0 -1 0 I I #
point $-1 -1 $-1 -2.5 2.5 5.5 #
point $-1 -1 $-1 -2.5 -2.5 5.5 #
straight-curve $-1 -1 $-1 2.5 -2.5 0 0 0 -1 I I #
straight-curve $-1 -1 $-1 2.5 2.5 0 0 0 -1 I I #
convexity-sys-attrib $-1 -1 $-1 $-1 $365 #
straight-curve $-1 -1 $-1 -1.5 0.010000000000000009 -5.5 0 1 0 I I #
point $-1 -1 $-1 -1.5 2 -5.5 #
point $-1 -1 $-1 -1.5 -2 -5.5 #
convexity-sys-attrib $-1 -1 $-1 $-1 $373 #
straight-curve $-1 -1 $-1 -1.5 0.010000000000000009 -1.5 0 -1 0 I I #
face $-1 -1 $-1 $660 $661 $35 $-1 $662 reversed single #
plane-surface $-1 -1 $-1 0 -2.5 0 0 1 0 0 0 1 forward_v I I I I #
coedge $-1 -1 $-1 $556 $561 $242 $392 reversed $377 $-1 #
coedge $-1 -1 $-1 $663 $379 $238 $386 forward $236 $-1 #
coedge $-1 -1 $-1 $379 $663 $664 $537 reversed $236 $-1 #
coedge $-1 -1 $-1 $665 $666 $379 $535 forward $667 $-1 #
edge $-1 -1 $-1 $549 -3.1415926535897931 $542 -1.5707963267948966 $534 $397 forward @7 unknown #
coedge $-1 -1 $-1 $381 $380 $668 $669 reversed $146 $-1 #
edge $-1 -1 $-1 $542 -11 $670 0 $664 $671 forward @7 unknown #
coedge $-1 -1 $-1 $672 $673 $531 $392 forward $674 $-1 #
coedge $-1 -1 $-1 $540 $382 $673 $559 forward $541 $-1 #
coedge $-1 -1 $-1 $382 $539 $675 $676 forward $541 $-1 #
loop $-1 -1 $-1 $-1 $382 $677 #
vertex $-1 -1 $-1 $678 $679 #
coedge $-1 -1 $-1 $680 $572 $384 $544 forward $681 $-1 #
edge $-1 -1 $-1 $251 1.5707963267948966 $549 3.1415926535897931 $543 $397 forward @7 unknown #
coedge $-1 -1 $-1 $682 $385 $388 $551 reversed $548 $-1 #
coedge $-1 -1 $-1 $385 $682 $680 $683 reversed $548 $-1 #
coedge $-1 -1 $-1 $684 $685 $532 $386 reversed $661 $-1 #
loop $-1 -1 $-1 $-1 $385 $686 #
vertex $-1 -1 $-1 $683 $687 #
straight-curve $-1 -1 $-1 2.5 0 5.5 0 0 1 I I #
edge $-1 -1 $-1 $575 -2.5 $390 0 $545 $688 forward @7 unknown #
face $-1 -1 $-1 $563 $389 $35 $-1 $689 forward single #
edge $-1 -1 $-1 $390 0 $690 2.5 $685 $688 forward @7 unknown #
point $-1 -1 $-1 2.5 0 5.5 #
straight-curve $-1 -1 $-1 -2.5 0 5.5 0 0 1 I I #
coedge $-1 -1 $-1 $565 $531 $394 $557 reversed $377 $-1 #
edge $-1 -1 $-1 $569 -2.5 $396 0 $556 $691 forward @7 unknown #
face $-1 -1 $-1 $692 $395 $35 $-1 $693 reversed single #
edge $-1 -1 $-1 $396 0 $694 2.5 $673 $691 forward @7 unknown #
point $-1 -1 $-1 -2.5 0 -5.5 #
coedge $-1 -1 $-1 $531 $565 $398 $562 reversed $377 $-1 #
edge $-1 -1 $-1 $401 0 $567 2.5 $561 $695 forward @7 unknown #
face $-1 -1 $-1 $696 $400 $35 $-1 $689 forward single #
point $-1 -1 $-1 -2.5 0 5.5 #
coedge $-1 -1 $-1 $561 $556 $402 $566 reversed $377 $-1 #
edge $-1 -1 $-1 $567 -5.5 $569 5.5 $565 $697 forward @7 unknown #
vertex $-1 -1 $-1 $562 $698 #
straight-curve $-1 -1 $-1 0 -2.5 5.5 1 0 0 I I #
vertex $-1 -1 $-1 $557 $699 #
straight-curve $-1 -1 $-1 0 -2.5 -5.5 -1 0 0 I I #
coedge $-1 -1 $-1 $406 $405 $682 $700 reversed $407 $-1 #
coedge $-1 -1 $-1 $543 $680 $405 $573 forward $681 $-1 #
edge $-1 -1 $-1 $701 -2.5 $251 -9.372879511388359e-033 $405 $570 forward @7 unknown #
face $-1 -1 $-1 $702 $674 $35 $-1 $378 reversed single #
vertex $-1 -1 $-1 $551 $703 #
edge $704 -1 $-1 $421 -1.99 $418 2.0099999999999998 $413 $705 forward @7 unknown #
ellipse-curve $-1 -1 $-1 9.372879511388359e-033 0 -5.5 0 0 1 -2.5 0 0 1 I I #
convexity-sys-attrib $-1 -1 $-1 $-1 $415 #
straight-curve $-1 -1 $-1 1.5 0.010000000000000009 -1.5 0 1 0 I I #
point $-1 -1 $-1 1.5 -2 -5.5 #
point $-1 -1 $-1 1.5 2 -5.5 #
loop $-1 -1 $-1 $-1 $594 $425 #
plane-surface $-1 -1 $-1 -8.6510885035726482e-018 1.8200000000000003 -3.5 6.5411352008375761e-033 1 -3.7936442052307325e-049 0 3.7936442052307325e-049 1 forward_v I I I I #
coedge $-1 -1 $-1 $427 $440 $428 $586 forward $267 $-1 #
coedge $-1 -1 $-1 $429 $428 $706 $707 reversed $160 $-1 #
edge $-1 -1 $-1 $708 0 $587 0.17999999999999994 $584 $709 forward @7 unknown #
vertex $-1 -1 $-1 $586 $710 #
straight-curve $-1 -1 $-1 0 2 -1.5 -1 0 0 I I #
coedge $-1 -1 $-1 $706 $436 $432 $590 forward $582 $-1 #
edge $711 -1 $-1 $438 -2 $591 2 $432 $712 forward @7 unknown #
vertex $-1 -1 $-1 $590 $713 #
straight-curve $-1 -1 $-1 1.5 1.8200000000000001 -1.5 0 1 0 I I #
point $-1 -1 $-1 1.5 2 -1.5 #
coedge $-1 -1 $-1 $436 $706 $440 $598 forward $582 $-1 #
convexity-sys-attrib $-1 -1 $-1 $-1 $437 #
straight-curve $-1 -1 $-1 0 1.8200000000000003 -5.5 1 0 0 I I #
point $-1 -1 $-1 1.5 1.8200000000000001 -5.5 #
edge $714 -1 $-1 $708 -2 $441 2 $440 $715 forward @7 unknown #
point $-1 -1 $-1 -1.5 1.8200000000000001 -5.5 #
straight-curve $-1 -1 $-1 -1.5 2 -3.5 0 0 -1 I I #
loop $-1 -1 $-1 $-1 $613 $446 #
plane-surface $-1 -1 $-1 -8.6510885035726482e-018 -1.7799999999999994 -3.5 1.3082270401675158e-032 1 2.94351084037691e-032 0 -2.94351084037691e-032 1 forward_v I I I I #
coedge $-1 -1 $-1 $448 $461 $449 $605 forward $284 $-1 #
coedge $-1 -1 $-1 $450 $449 $716 $717 reversed $168 $-1 #
edge $-1 -1 $-1 $718 0 $606 0.21999999999999997 $603 $719 forward @7 unknown #
vertex $-1 -1 $-1 $605 $720 #
straight-curve $-1 -1 $-1 0 -1.9999999999999993 -5.5 -1 0 0 I I #
coedge $-1 -1 $-1 $716 $457 $453 $609 forward $601 $-1 #
edge $721 -1 $-1 $459 -2 $610 2 $453 $722 forward @7 unknown #
vertex $-1 -1 $-1 $609 $723 #
straight-curve $-1 -1 $-1 1.5 -1.78 -5.5 0 -1 0 I I #
point $-1 -1 $-1 1.5 -2 -5.5 #
coedge $-1 -1 $-1 $457 $716 $461 $617 forward $601 $-1 #
convexity-sys-attrib $-1 -1 $-1 $-1 $458 #
straight-curve $-1 -1 $-1 0 -1.7799999999999994 -1.5 1 0 0 I I #
point $-1 -1 $-1 1.5 -1.78 -1.5 #
edge $724 -1 $-1 $718 -2 $462 2 $461 $725 forward @7 unknown #
point $-1 -1 $-1 -1.5 -1.78 -1.5 #
straight-curve $-1 -1 $-1 -1.5 -1.9999999999999993 -3.5 0 0 1 I I #
model_id-kcp-attrib $-1 -1 $-1 $-1 $468 1 1021519688 1021519689 -1457848319 9 #
face $726 -1 $-1 $727 $728 $11 $-1 $729 reversed single #
loop $-1 -1 $-1 $-1 $730 $468 #
torus-surface $-1 -1 $-1 0 0 6.75 0 0 -1 1.25 0.25 -1 0 0 forward_v I I I I #
coedge $-1 -1 $-1 $731 $732 $733 $734 forward $469 $-1 #
coedge $-1 -1 $-1 $735 $735 $732 $736 forward $471 $-1 #
edge $737 -1 $-1 $627 0 $478 3.1415926535897931 $472 $738 forward @7 unknown #
vertex $-1 -1 $-1 $477 $739 #
ellipse-curve $-1 -1 $-1 -2.2499999999999991 2.7553642961003474e-016 6.7499999999999991 -1.2246063538223795e-016 -1 1.5657810447868098e-031 -8.8817841970012523e-016 1.4791141972893971e-031 0.25000000000000089 1 I I #
attrib_edge_convexity-kcp-attrib $-1 -1 $740 $-1 $477 3 #
ellipse-curve $-1 -1 $-1 2.2204460492503131e-016 1.1102230246251565e-016 7 0 0 1 2.25 -1.1102230246251565e-016 0 1 I I #
point $-1 -1 $-1 2.25 0 7 #
coedge $-1 -1 $-1 $483 $482 $741 $742 reversed $484 $-1 #
face $743 -1 $-1 $489 $484 $11 $-1 $744 forward single #
convexity-sys-attrib $-1 -1 $-1 $485 $315 #
coedge $-1 -1 $-1 $497 $741 $487 $636 forward $649 $-1 #
edge $745 -1 $-1 $638 0 $503 3 $635 $746 forward @7 unknown #
attrib_edge_convexity-kcp-attrib $-1 -1 $747 $-1 $488 1 #
vertex $-1 -1 $-1 $636 $748 #
straight-curve $-1 -1 $-1 -1.5 1.8200000000000001 0 0 0 -1 I I #
model_id-kcp-attrib $-1 -1 $-1 $-1 $489 1 1021519688 1021519689 -1457848319 14 #
plane-surface $-1 -1 $-1 -1.5 1.8200000000000001 0 0 1 0 1 0 0 forward_v I I I I #
coedge $-1 -1 $-1 $741 $497 $492 $643 forward $649 $-1 #
edge $749 -1 $-1 $500 0 $645 3 $642 $750 forward @7 unknown #
attrib_edge_convexity-kcp-attrib $-1 -1 $751 $-1 $493 1 #
vertex $-1 -1 $-1 $643 $752 #
straight-curve $-1 -1 $-1 -1.5 -1.78 0 0 0 -1 I I #
model_id-kcp-attrib $-1 -1 $-1 $-1 $494 1 1021519688 1021519689 -1457848319 16 #
plane-surface $-1 -1 $-1 1.5 -1.78 0 0 -1 0 -1 0 0 forward_v I I I I #
loop $-1 -1 $-1 $753 $741 $754 #
attrib_edge_convexity-kcp-attrib $-1 -1 $755 $-1 $498 1 #
straight-curve $-1 -1 $-1 1.5 1.8200000000000001 -4 0 -1 0 I I #
convexity-sys-attrib $-1 -1 $-1 $499 $329 #
point $-1 -1 $-1 1.5 -1.78 -4 #
convexity-sys-attrib $-1 -1 $-1 $502 $330 #
point $-1 -1 $-1 1.5 1.8200000000000001 -4 #
straight-curve $-1 -1 $-1 -2.5 2.5 0 0 0 -1 I I #
point $-1 -1 $-1 -2.5 -2.5 -5.5 #
straight-curve $-1 -1 $-1 -2.5 0 -5.5 0 1 0 I I #
point $-1 -1 $-1 -2.5 2.5 -5.5 #
face $-1 -1 $-1 $552 $756 $35 $-1 $689 forward single #
loop $-1 -1 $-1 $-1 $547 $529 #
plane-surface $-1 -1 $-1 2.5 0 0 -1 0 0 0 0 1 forward_v I I I I #
coedge $-1 -1 $-1 $533 $532 $757 $758 reversed $236 $-1 #
coedge $-1 -1 $-1 $759 $760 $761 $537 forward $762 $-1 #
coedge $-1 -1 $-1 $666 $534 $760 $678 forward $667 $-1 #
coedge $-1 -1 $-1 $534 $665 $684 $763 forward $667 $-1 #
loop $-1 -1 $-1 $-1 $534 $764 #
coedge $-1 -1 $-1 $765 $766 $536 $669 forward $767 $-1 #
edge $-1 -1 $-1 $401 0 $670 1.5707963267948966 $668 $391 forward @7 unknown #
vertex $-1 -1 $-1 $768 $769 #
straight-curve $-1 -1 $-1 9.372879511388359e-033 2.5 5.5 0 0 1 I I #
coedge $-1 -1 $-1 $770 $538 $766 $771 reversed $674 $-1 #
coedge $-1 -1 $-1 $538 $770 $539 $559 reversed $674 $-1 #
loop $-1 -1 $-1 $-1 $538 $574 #
coedge $-1 -1 $-1 $772 $761 $540 $676 reversed $773 $-1 #
edge $-1 -1 $-1 $694 -2.5 $542 9.372879511388359e-033 $675 $774 forward @7 unknown #
face $-1 -1 $-1 $558 $541 $35 $-1 $693 reversed single #
edge $-1 -1 $-1 $542 9.372879511388359e-033 $775 2.5 $760 $774 forward @7 unknown #
point $-1 -1 $-1 9.372879511388359e-033 2.5 -5.5 #
coedge $-1 -1 $-1 $572 $543 $546 $683 forward $681 $-1 #
loop $-1 -1 $-1 $-1 $543 $692 #
coedge $-1 -1 $-1 $546 $545 $571 $700 forward $548 $-1 #
edge $-1 -1 $-1 $549 0 $701 2.5 $546 $776 forward @7 unknown #
coedge $-1 -1 $-1 $777 $547 $666 $763 reversed $661 $-1 #
coedge $-1 -1 $-1 $547 $777 $778 $553 reversed $661 $-1 #
face $-1 -1 $-1 $-1 $548 $35 $-1 $662 reversed single #
point $-1 -1 $-1 2.5 0 -5.5 #
straight-curve $-1 -1 $-1 2.5 0 5.5 0 1 0 I I #
plane-surface $-1 -1 $-1 0 0 5.5 0 0 1 1 0 0 forward_v I I I I #
vertex $-1 -1 $-1 $553 $779 #
straight-curve $-1 -1 $-1 -2.5 0 -5.5 0 1 0 I I #
face $-1 -1 $-1 $408 $681 $35 $-1 $693 reversed single #
plane-surface $-1 -1 $-1 0 0 -5.5 0 0 1 1 0 0 forward_v I I I I #
vertex $-1 -1 $-1 $676 $780 #
straight-curve $-1 -1 $-1 -2.5 0 5.5 0 -1 0 I I #
face $-1 -1 $-1 $781 $767 $35 $-1 $689 forward single #
straight-curve $-1 -1 $-1 -2.5 -2.5 0 0 0 -1 I I #
point $-1 -1 $-1 -2.5 -2.5 5.5 #
point $-1 -1 $-1 -2.5 -2.5 -5.5 #
edge $-1 -1 $-1 $575 -5.5 $701 5.5 $682 $782 forward @7 unknown #
vertex $-1 -1 $-1 $700 $783 #
face $-1 -1 $-1 $686 $762 $35 $-1 $784 reversed single #
point $-1 -1 $-1 2.5 -2.5 5.5 #
convexity-sys-attrib $-1 -1 $-1 $-1 $576 #
straight-curve $-1 -1 $-1 1.5 0.010000000000000009 -5.5 0 -1 0 I I #
coedge $-1 -1 $-1 $594 $589 $585 $707 forward $582 $-1 #
edge $785 -1 $-1 $591 -1.5 $708 1.5 $585 $786 forward @7 unknown #
vertex $-1 -1 $-1 $598 $787 #
straight-curve $-1 -1 $-1 -1.5 1.8200000000000001 -1.5 0 1 0 I I #
point $-1 -1 $-1 -1.5 2 -1.5 #
convexity-sys-attrib $-1 -1 $-1 $-1 $590 #
straight-curve $-1 -1 $-1 1.5 1.8200000000000003 -3.5 0 0 1 I I #
point $-1 -1 $-1 1.5 1.8200000000000001 -1.5 #
convexity-sys-attrib $-1 -1 $-1 $-1 $598 #
straight-curve $-1 -1 $-1 -1.5 1.8200000000000003 -3.5 0 0 -1 I I #
coedge $-1 -1 $-1 $613 $608 $604 $717 forward $601 $-1 #
edge $788 -1 $-1 $610 -1.5 $718 1.5 $604 $789 forward @7 unknown #
vertex $-1 -1 $-1 $617 $790 #
straight-curve $-1 -1 $-1 -1.5 -1.78 -5.5 0 -1 0 I I #
point $-1 -1 $-1 -1.5 -2 -5.5 #
convexity-sys-attrib $-1 -1 $-1 $-1 $609 #
straight-curve $-1 -1 $-1 1.5 -1.7799999999999994 -3.5 0 0 -1 I I #
point $-1 -1 $-1 1.5 -1.78 -5.5 #
convexity-sys-attrib $-1 -1 $-1 $-1 $617 #
straight-curve $-1 -1 $-1 -1.5 -1.7799999999999994 -3.5 0 0 1 I I #
model_id-kcp-attrib $-1 -1 $-1 $-1 $621 1 1021519688 1021519689 -1457848319 10 #
face $791 -1 $-1 $754 $792 $11 $-1 $793 reversed single #
loop $-1 -1 $-1 $-1 $794 $621 #
cone-surface $-1 -1 $-1 0 0 7 0 0 -1 -1 0 0 1 I I 0 1 1 forward I I I I #
coedge $-1 -1 $-1 $795 $796 $797 $798 forward $622 $-1 #
coedge $-1 -1 $-1 $797 $624 $799 $800 forward $469 $-1 #
coedge $-1 -1 $-1 $624 $797 $625 $736 reversed $469 $-1 #
coedge $-1 -1 $-1 $796 $795 $624 $734 reversed $622 $-1 #
edge $-1 -1 $-1 $801 0 $802 1.5707963267948895 $733 $803 forward @7 unknown #
coedge $-1 -1 $-1 $625 $625 $796 $804 forward $471 $-1 #
edge $805 -1 $-1 $801 0 $806 3.1415926535897931 $625 $807 forward @7 unknown #
attrib_edge_convexity-kcp-attrib $-1 -1 $808 $-1 $626 3 #
ellipse-curve $-1 -1 $-1 0 -1.1102230246251565e-016 7 0 0 1 -2.25 3.8655873207255054e-016 0 1 I I #
point $-1 -1 $-1 -2.25 2.7553642961003488e-016 7 #
convexity-sys-attrib $-1 -1 $-1 $629 $477 #
coedge $-1 -1 $-1 $635 $642 $632 $742 forward $649 $-1 #
edge $809 -1 $-1 $645 0 $638 3.6000000000000001 $741 $810 forward @7 unknown #
model_id-kcp-attrib $-1 -1 $-1 $-1 $633 1 1021519688 1021519689 -1457848319 13 #
plane-surface $-1 -1 $-1 -1.5 -1.78 0 -1 0 0 0 1 0 forward_v I I I I #
attrib_edge_convexity-kcp-attrib $-1 -1 $811 $-1 $636 1 #
straight-curve $-1 -1 $-1 -1.5 1.8200000000000001 -4 1 0 0 I I #
convexity-sys-attrib $-1 -1 $-1 $637 $488 #
point $-1 -1 $-1 -1.5 1.8200000000000001 -4 #
attrib_edge_convexity-kcp-attrib $-1 -1 $812 $-1 $643 1 #
straight-curve $-1 -1 $-1 1.5 -1.78 -4 -1 0 0 I I #
convexity-sys-attrib $-1 -1 $-1 $644 $493 #
point $-1 -1 $-1 -1.5 -1.78 -4 #
loop $-1 -1 $-1 $-1 $813 $754 #
face $814 -1 $-1 $633 $649 $11 $-1 $815 forward single #
convexity-sys-attrib $-1 -1 $-1 $650 $498 #
loop $-1 -1 $-1 $-1 $757 $660 #
coedge $-1 -1 $-1 $778 $816 $663 $758 forward $756 $-1 #
edge $-1 -1 $-1 $670 1.5707963267948966 $390 3.1415926535897931 $757 $391 forward @7 unknown #
coedge $-1 -1 $-1 $817 $664 $816 $818 reversed $762 $-1 #
coedge $-1 -1 $-1 $664 $817 $665 $678 reversed $762 $-1 #
coedge $-1 -1 $-1 $675 $819 $380 $537 reversed $773 $-1 #
loop $-1 -1 $-1 $-1 $664 $702 #
edge $-1 -1 $-1 $775 -2.5 $549 0 $684 $776 forward @7 unknown #
face $-1 -1 $-1 $677 $667 $35 $-1 $693 reversed single #
coedge $-1 -1 $-1 $766 $668 $819 $768 forward $767 $-1 #
coedge $-1 -1 $-1 $668 $765 $672 $771 forward $767 $-1 #
loop $-1 -1 $-1 $-1 $668 $696 #
edge $-1 -1 $-1 $670 -9.372879511388359e-033 $820 2.5 $819 $821 forward @7 unknown #
point $-1 -1 $-1 9.372879511388359e-033 2.5 5.5 #
coedge $-1 -1 $-1 $673 $672 $772 $822 forward $674 $-1 #
edge $-1 -1 $-1 $820 -2.5 $401 0 $672 $695 forward @7 unknown #
coedge $-1 -1 $-1 $819 $675 $770 $822 reversed $773 $-1 #
loop $-1 -1 $-1 $-1 $761 $781 #
straight-curve $-1 -1 $-1 0 2.5 -5.5 1 0 0 I I #
vertex $-1 -1 $-1 $763 $823 #
straight-curve $-1 -1 $-1 2.5 0 -5.5 0 -1 0 I I #
coedge $-1 -1 $-1 $685 $684 $817 $824 reversed $661 $-1 #
coedge $-1 -1 $-1 $816 $757 $685 $553 forward $756 $-1 #
point $-1 -1 $-1 2.5 2.5 5.5 #
point $-1 -1 $-1 -2.5 2.5 -5.5 #
face $-1 -1 $-1 $764 $773 $35 $-1 $784 reversed single #
straight-curve $-1 -1 $-1 2.5 -2.5 0 0 0 -1 I I #
point $-1 -1 $-1 2.5 -2.5 -5.5 #
plane-surface $-1 -1 $-1 0 2.5 0 0 -1 0 0 0 -1 forward_v I I I I #
convexity-sys-attrib $-1 -1 $-1 $-1 $707 #
straight-curve $-1 -1 $-1 0 1.8200000000000003 -1.5 -1 0 0 I I #
point $-1 -1 $-1 -1.5 1.8200000000000001 -1.5 #
convexity-sys-attrib $-1 -1 $-1 $-1 $717 #
straight-curve $-1 -1 $-1 0 -1.7799999999999994 -5.5 -1 0 0 I I #
point $-1 -1 $-1 -1.5 -1.78 -5.5 #
model_id-kcp-attrib $-1 -1 $-1 $-1 $727 1 1021519688 1021519689 -1457848319 11 #
loop $-1 -1 $-1 $-1 $825 $727 #
cone-surface $-1 -1 $-1 0 0 7 0 0 -1 -1 0 0 1 I I 0 1 1 forward I I I I #
coedge $-1 -1 $-1 $826 $827 $828 $829 forward $728 $-1 #
coedge $-1 -1 $-1 $733 $730 $827 $830 forward $622 $-1 #
coedge $-1 -1 $-1 $730 $733 $735 $804 reversed $622 $-1 #
coedge $-1 -1 $-1 $732 $731 $730 $798 reversed $469 $-1 #
edge $-1 -1 $-1 $806 0 $831 1.5707963267948895 $730 $832 forward @7 unknown #
coedge $-1 -1 $-1 $825 $828 $731 $800 reversed $792 $-1 #
edge $-1 -1 $-1 $802 0 $831 3.1415926535897931 $799 $833 forward @7 unknown #
vertex $-1 -1 $-1 $804 $834 #
vertex $-1 -1 $-1 $830 $835 #
ellipse-curve $-1 -1 $-1 1.2500000000000009 1.5307579422779726e-016 6.7499999999999991 1.2246063538223773e-016 -1 4.0637121826570474e-032 -8.8817841970012523e-016 -9.8607613152626476e-032 0.25000000000000089 1 I I #
edge $836 -1 $-1 $806 0 $801 3.1415926535897931 $735 $837 forward @7 unknown #
attrib_edge_convexity-kcp-attrib $-1 -1 $838 $-1 $736 3 #
vertex $-1 -1 $-1 $804 $839 #
ellipse-curve $-1 -1 $-1 0 -5.5511151231257827e-017 7 0 0 -1 1.25 2.0858694545905498e-016 0 1 I I #
convexity-sys-attrib $-1 -1 $-1 $737 $626 #
attrib_edge_convexity-kcp-attrib $-1 -1 $840 $-1 $742 1 #
straight-curve $-1 -1 $-1 -1.5 -1.78 -4 0 1 0 I I #
convexity-sys-attrib $-1 -1 $-1 $745 $636 #
convexity-sys-attrib $-1 -1 $-1 $749 $643 #
coedge $-1 -1 $-1 $841 $841 $842 $843 reversed $753 $-1 #
model_id-kcp-attrib $-1 -1 $-1 $-1 $754 1 1021519688 1021519689 -1457848319 12 #
plane-surface $-1 -1 $-1 0 0 -4 0 0 -1 0 1 0 forward_v I I I I #
coedge $-1 -1 $-1 $757 $778 $759 $818 forward $756 $-1 #
coedge $-1 -1 $-1 $760 $759 $777 $824 forward $762 $-1 #
edge $-1 -1 $-1 $690 -2.5 $670 -9.372879511388359e-033 $759 $821 forward @7 unknown #
coedge $-1 -1 $-1 $761 $772 $765 $768 reversed $773 $-1 #
vertex $-1 -1 $-1 $768 $844 #
straight-curve $-1 -1 $-1 0 2.5 5.5 -1 0 0 I I #
edge $-1 -1 $-1 $820 -5.5 $694 5.5 $772 $845 forward @7 unknown #
point $-1 -1 $-1 2.5 2.5 -5.5 #
edge $-1 -1 $-1 $690 -5.5 $775 5.5 $777 $846 forward @7 unknown #
coedge $-1 -1 $-1 $842 $799 $847 $848 forward $792 $-1 #
coedge $-1 -1 $-1 $847 $794 $841 $849 forward $728 $-1 #
coedge $-1 -1 $-1 $794 $847 $795 $830 reversed $728 $-1 #
coedge $-1 -1 $-1 $799 $842 $794 $829 reversed $792 $-1 #
edge $-1 -1 $-1 $831 0 $850 10.75 $794 $851 forward @7 unknown #
edge $-1 -1 $-1 $831 0 $802 3.1415926535897931 $827 $852 forward @7 unknown #
vertex $-1 -1 $-1 $830 $853 #
ellipse-curve $-1 -1 $-1 -1.2500000000000009 -3.0615158845559451e-016 6.7499999999999991 -2.4492127076447545e-016 1 8.1274243653140948e-032 8.8817841970012523e-016 1.9721522630525295e-031 0.25000000000000089 1 I I #
ellipse-curve $-1 -1 $-1 0 0 6.75 0 0 -1 1 1.2246063538223773e-016 0 1 I I #
point $-1 -1 $-1 1.25 1.5307579422779716e-016 7 #
point $-1 -1 $-1 1 1.2246063538223773e-016 6.75 #
attrib_edge_convexity-kcp-attrib $-1 -1 $854 $-1 $804 3 #
ellipse-curve $-1 -1 $-1 -1.1102230246251565e-016 5.5511151231257827e-017 7 0 0 -1 -1.25 -5.5511151231257827e-017 0 1 I I #
convexity-sys-attrib $-1 -1 $-1 $805 $736 #
point $-1 -1 $-1 -1.25 0 7 #
convexity-sys-attrib $-1 -1 $-1 $809 $742 #
coedge $-1 -1 $-1 $813 $813 $826 $849 reversed $753 $-1 #
coedge $-1 -1 $-1 $828 $825 $813 $843 forward $792 $-1 #
edge $-1 -1 $-1 $855 0 $850 3.1415926535897931 $813 $856 forward @7 unknown #
point $-1 -1 $-1 -2.5 2.5 5.5 #
straight-curve $-1 -1 $-1 -2.5 2.5 0 0 0 -1 I I #
straight-curve $-1 -1 $-1 2.5 2.5 0 0 0 -1 I I #
coedge $-1 -1 $-1 $827 $826 $825 $848 reversed $728 $-1 #
edge $-1 -1 $-1 $802 0 $855 10.75 $847 $857 forward @7 unknown #
edge $-1 -1 $-1 $850 0 $855 3.1415926535897931 $841 $858 forward @7 unknown #
vertex $-1 -1 $-1 $849 $859 #
straight-curve $-1 -1 $-1 -1 0 6.75 0 0 -1 I I #
ellipse-curve $-1 -1 $-1 0 0 6.75 0 0 -1 -1 0 0 1 I I #
point $-1 -1 $-1 -1 0 6.75 #
convexity-sys-attrib $-1 -1 $-1 $836 $804 #
vertex $-1 -1 $-1 $849 $860 #
ellipse-curve $-1 -1 $-1 0 0 -4 0 0 -1 1 0 0 1 I I #
straight-curve $-1 -1 $-1 1 1.2246063538223773e-016 6.75 0 -4.1310624172098847e-017 -1 I I #
ellipse-curve $-1 -1 $-1 0 0 -4 0 0 -1 -1 0 0 1 I I #
point $-1 -1 $-1 -1 0 -4 #
point $-1 -1 $-1 1 0 -4 #
End-of-ACIS-data 