600 0 1 0           
100 GICL Pro/E ACIS Translator - Source: f:/data5/repository/PTC/V18/cabecad18/ptc_comp/socket.prt - 6 0 13 ACIS 6.0.3 NT 24 Thu Apr 04 10:02:53 2002 
1 9.9999999999999995e-007 1e-010 
body $-1 $1 $-1 $-1 #
lump $-1 $-1 $2 $0 #
shell $-1 $-1 $-1 $3 $-1 $1 #
face $-1 $4 $5 $2 $-1 $6 reversed single #
face $-1 $7 $8 $2 $-1 $9 forward single #
loop $-1 $10 $11 $3 #
plane-surface $-1 0 0 0 0 0 1 1 0 0 forward_v I I I I #
face $-1 $12 $13 $2 $-1 $14 forward single #
loop $-1 $-1 $15 $4 #
cone-surface $-1 0 0 0 0 0 1 2.5 0 0 1 I I 0 1 2.5 forward I I I I #
loop $-1 $-1 $16 $3 #
coedge $-1 $17 $17 $18 $19 reversed $5 $-1 #
face $-1 $20 $21 $2 $-1 $22 forward single #
loop $-1 $-1 $23 $7 #
cone-surface $-1 0 0 0 0 0 1 2.5 0 0 1 I I 0 1 2.5 forward I I I I #
coedge $-1 $24 $18 $25 $26 forward $8 $-1 #
coedge $-1 $27 $28 $29 $30 reversed $10 $-1 #
coedge $-1 $11 $11 $31 $32 reversed $5 $-1 #
coedge $-1 $15 $33 $11 $19 forward $8 $-1 #
edge $-1 $34 0 $35 3.1415926535897931 $11 $36 forward 7 unknown #
face $-1 $37 $38 $2 $-1 $39 forward single #
loop $-1 $-1 $40 $12 #
torus-surface $-1 0 0 6.75 0 0 1 2.25 0.25 1 0 0 forward_v I I I I #
coedge $-1 $41 $31 $33 $42 forward $13 $-1 #
coedge $-1 $33 $15 $43 $44 reversed $8 $-1 #
coedge $-1 $31 $41 $15 $26 reversed $13 $-1 #
edge $-1 $35 0 $45 6.75 $25 $46 forward 7 unknown #
coedge $-1 $47 $16 $48 $49 reversed $10 $-1 #
coedge $-1 $16 $47 $50 $51 reversed $10 $-1 #
coedge $-1 $52 $53 $16 $30 forward $54 $-1 #
edge $-1 $55 0 $56 3.6000000000000001 $16 $57 forward 7 unknown #
coedge $-1 $23 $25 $17 $32 forward $13 $-1 #
edge $-1 $35 0 $34 3.1415926535897931 $17 $58 forward 7 unknown #
coedge $-1 $18 $24 $23 $42 reversed $8 $-1 #
vertex $-1 $32 $59 #
vertex $-1 $32 $60 #
ellipse-curve $-1 0 0 0 0 0 1 -2.5 0 0 1 I I #
face $-1 $61 $62 $2 $-1 $63 forward single #
loop $-1 $-1 $64 $20 #
torus-surface $-1 0 0 6.75 0 0 1 2.25 0.25 1 0 0 forward_v I I I I #
coedge $-1 $65 $66 $67 $68 forward $21 $-1 #
coedge $-1 $25 $23 $65 $69 reversed $13 $-1 #
edge $-1 $34 0 $70 6.75 $23 $71 forward 7 unknown #
coedge $-1 $67 $64 $24 $44 forward $38 $-1 #
edge $-1 $70 0 $45 3.1415926535897931 $24 $72 forward 7 unknown #
vertex $-1 $26 $73 #
straight-curve $-1 2.5 0 0 0 0 1 I I #
coedge $-1 $28 $27 $74 $75 reversed $10 $-1 #
coedge $-1 $76 $77 $27 $49 forward $78 $-1 #
edge $-1 $79 0 $55 3 $27 $80 forward 7 unknown #
coedge $-1 $81 $82 $28 $51 forward $83 $-1 #
edge $-1 $56 0 $84 3 $28 $85 forward 7 unknown #
coedge $-1 $86 $29 $82 $87 forward $54 $-1 #
coedge $-1 $29 $86 $76 $88 reversed $54 $-1 #
loop $-1 $-1 $52 $89 #
vertex $-1 $49 $90 #
vertex $-1 $51 $91 #
straight-curve $-1 1.5 1.8200000000000001 0 0 -1 0 I I #
ellipse-curve $-1 0 0 0 0 0 1 2.5 0 0 1 I I #
point $-1 -2.5 0 0 #
point $-1 2.5 0 0 #
face $-1 $92 $93 $2 $-1 $94 forward single #
loop $-1 $95 $96 $37 #
plane-surface $-1 0 0 7 0 0 1 1 0 0 forward_v I I I I #
coedge $-1 $43 $97 $98 $99 forward $38 $-1 #
coedge $-1 $98 $40 $41 $69 forward $21 $-1 #
coedge $-1 $40 $98 $100 $101 reversed $21 $-1 #
coedge $-1 $97 $43 $40 $68 reversed $38 $-1 #
edge $-1 $102 -7.888609052210062e-031 $45 1.5707963267948895 $40 $103 forward 7 unknown #
edge $-1 $45 0 $70 3.1415926535897931 $41 $104 forward 7 unknown #
vertex $-1 $69 $105 #
straight-curve $-1 -2.5 3.0615158845559431e-016 0 0 0 1 I I #
ellipse-curve $-1 0 0 6.7499999999999991 0 0 1 -2.5 3.0615158845559431e-016 0 1 I I #
point $-1 2.5 0 6.75 #
coedge $-1 $106 $107 $47 $75 forward $108 $-1 #
edge $-1 $84 0 $79 3.6000000000000001 $47 $109 forward 7 unknown #
coedge $-1 $110 $48 $53 $88 forward $78 $-1 #
coedge $-1 $48 $110 $106 $111 reversed $78 $-1 #
loop $-1 $-1 $76 $112 #
vertex $-1 $75 $113 #
straight-curve $-1 -1.5 1.8200000000000001 0 1 0 0 I I #
coedge $-1 $114 $50 $107 $115 forward $83 $-1 #
coedge $-1 $50 $114 $52 $87 reversed $83 $-1 #
loop $-1 $-1 $81 $116 #
vertex $-1 $51 $117 #
straight-curve $-1 1.5 -1.78 0 -1 0 0 I I #
coedge $-1 $53 $52 $118 $119 reversed $54 $-1 #
edge $-1 $56 0 $120 4 $82 $121 forward 7 unknown #
edge $-1 $55 0 $122 4 $76 $123 forward 7 unknown #
face $-1 $116 $54 $2 $-1 $124 forward single #
point $-1 1.5 1.8200000000000001 0 #
point $-1 1.5 -1.78 0 #
face $-1 $125 $126 $2 $-1 $127 forward single #
loop $-1 $-1 $128 $61 #
torus-surface $-1 0 0 6.75 0 0 -1 1.25 0.25 -1 0 0 forward_v I I I I #
loop $-1 $-1 $129 $37 #
coedge $-1 $100 $100 $97 $130 forward $62 $-1 #
coedge $-1 $64 $67 $96 $130 reversed $38 $-1 #
coedge $-1 $66 $65 $64 $99 reversed $21 $-1 #
edge $-1 $131 0 $70 1.5707963267948895 $98 $132 forward 7 unknown #
coedge $-1 $96 $96 $66 $101 forward $62 $-1 #
edge $-1 $102 0 $131 3.1415926535897931 $100 $133 forward 7 unknown #
vertex $-1 $101 $134 #
ellipse-curve $-1 2.2499999999999991 -5.5107285922006947e-016 6.7499999999999991 2.449212707644759e-016 1 3.1315620895736197e-031 8.8817841970012523e-016 -2.9582283945787943e-031 0.25000000000000089 1 I I #
ellipse-curve $-1 0 0 6.7499999999999991 0 0 1 2.5 0 0 1 I I #
point $-1 -2.5 3.0615158845559431e-016 6.75 #
coedge $-1 $135 $74 $77 $111 forward $108 $-1 #
coedge $-1 $74 $135 $81 $115 reversed $108 $-1 #
loop $-1 $-1 $106 $136 #
straight-curve $-1 -1.5 -1.78 0 0 1 0 I I #
coedge $-1 $77 $76 $137 $138 reversed $78 $-1 #
edge $-1 $79 0 $139 4 $106 $140 forward 7 unknown #
face $-1 $89 $78 $2 $-1 $141 forward single #
point $-1 -1.5 1.8200000000000001 0 #
coedge $-1 $82 $81 $142 $143 reversed $83 $-1 #
edge $-1 $84 0 $144 4 $81 $145 forward 7 unknown #
face $-1 $-1 $83 $2 $-1 $146 forward single #
point $-1 -1.5 -1.78 0 #
coedge $-1 $142 $137 $86 $119 forward $147 $-1 #
edge $-1 $122 0 $120 3.6000000000000001 $118 $148 forward 7 unknown #
vertex $-1 $143 $149 #
straight-curve $-1 1.5 -1.78 0 0 0 -1 I I #
vertex $-1 $119 $150 #
straight-curve $-1 1.5 1.8200000000000001 0 0 0 -1 I I #
plane-surface $-1 1.5 1.8200000000000001 0 1 0 0 0 -1 0 forward_v I I I I #
face $-1 $151 $152 $2 $-1 $153 reversed single #
loop $-1 $-1 $154 $92 #
torus-surface $-1 0 0 6.75 0 0 -1 1.25 0.25 -1 0 0 forward_v I I I I #
coedge $-1 $155 $156 $157 $158 forward $93 $-1 #
coedge $-1 $159 $159 $156 $160 forward $95 $-1 #
edge $-1 $131 0 $102 3.1415926535897931 $96 $161 forward 7 unknown #
vertex $-1 $101 $162 #
ellipse-curve $-1 -2.2499999999999991 2.7553642961003474e-016 6.7499999999999991 -1.2246063538223795e-016 -1 1.5657810447868098e-031 -8.8817841970012523e-016 1.4791141972893971e-031 0.25000000000000089 1 I I #
ellipse-curve $-1 2.2204460492503131e-016 1.1102230246251565e-016 7 0 0 1 2.25 -1.1102230246251565e-016 0 1 I I #
point $-1 2.25 0 7 #
coedge $-1 $107 $106 $163 $164 reversed $108 $-1 #
face $-1 $112 $108 $2 $-1 $165 forward single #
coedge $-1 $118 $163 $110 $138 forward $147 $-1 #
edge $-1 $139 0 $122 3 $137 $166 forward 7 unknown #
vertex $-1 $138 $167 #
straight-curve $-1 -1.5 1.8200000000000001 0 0 0 -1 I I #
plane-surface $-1 -1.5 1.8200000000000001 0 0 1 0 1 0 0 forward_v I I I I #
coedge $-1 $163 $118 $114 $143 forward $147 $-1 #
edge $-1 $120 0 $144 3 $142 $168 forward 7 unknown #
vertex $-1 $143 $169 #
straight-curve $-1 -1.5 -1.78 0 0 0 -1 I I #
plane-surface $-1 1.5 -1.78 0 0 -1 0 -1 0 0 forward_v I I I I #
loop $-1 $170 $163 $171 #
straight-curve $-1 1.5 1.8200000000000001 -4 0 -1 0 I I #
point $-1 1.5 -1.78 -4 #
point $-1 1.5 1.8200000000000001 -4 #
face $-1 $171 $172 $2 $-1 $173 reversed single #
loop $-1 $-1 $174 $125 #
cone-surface $-1 0 0 7 0 0 -1 -1 0 0 1 I I 0 1 1 forward I I I I #
coedge $-1 $175 $176 $177 $178 forward $126 $-1 #
coedge $-1 $177 $128 $179 $180 forward $93 $-1 #
coedge $-1 $128 $177 $129 $160 reversed $93 $-1 #
coedge $-1 $176 $175 $128 $158 reversed $126 $-1 #
edge $-1 $181 0 $182 1.5707963267948895 $157 $183 forward 7 unknown #
coedge $-1 $129 $129 $176 $184 forward $95 $-1 #
edge $-1 $181 0 $185 3.1415926535897931 $129 $186 forward 7 unknown #
ellipse-curve $-1 0 -1.1102230246251565e-016 7 0 0 1 -2.25 3.8655873207255054e-016 0 1 I I #
point $-1 -2.25 2.7553642961003488e-016 7 #
coedge $-1 $137 $142 $135 $164 forward $147 $-1 #
edge $-1 $144 0 $139 3.6000000000000001 $163 $187 forward 7 unknown #
plane-surface $-1 -1.5 -1.78 0 -1 0 0 0 1 0 forward_v I I I I #
straight-curve $-1 -1.5 1.8200000000000001 -4 1 0 0 I I #
point $-1 -1.5 1.8200000000000001 -4 #
straight-curve $-1 1.5 -1.78 -4 -1 0 0 I I #
point $-1 -1.5 -1.78 -4 #
loop $-1 $-1 $188 $171 #
face $-1 $136 $147 $2 $-1 $189 forward single #
loop $-1 $-1 $190 $151 #
cone-surface $-1 0 0 7 0 0 -1 -1 0 0 1 I I 0 1 1 forward I I I I #
coedge $-1 $191 $192 $193 $194 forward $152 $-1 #
coedge $-1 $157 $154 $192 $195 forward $126 $-1 #
coedge $-1 $154 $157 $159 $184 reversed $126 $-1 #
coedge $-1 $156 $155 $154 $178 reversed $93 $-1 #
edge $-1 $185 0 $196 1.5707963267948895 $154 $197 forward 7 unknown #
coedge $-1 $190 $193 $155 $180 reversed $172 $-1 #
edge $-1 $182 0 $196 3.1415926535897931 $179 $198 forward 7 unknown #
vertex $-1 $184 $199 #
vertex $-1 $195 $200 #
ellipse-curve $-1 1.2500000000000009 1.5307579422779726e-016 6.7499999999999991 1.2246063538223773e-016 -1 4.0637121826570474e-032 -8.8817841970012523e-016 -9.8607613152626476e-032 0.25000000000000089 1 I I #
edge $-1 $185 0 $181 3.1415926535897931 $159 $201 forward 7 unknown #
vertex $-1 $184 $202 #
ellipse-curve $-1 0 -5.5511151231257827e-017 7 0 0 -1 1.25 2.0858694545905498e-016 0 1 I I #
straight-curve $-1 -1.5 -1.78 -4 0 1 0 I I #
coedge $-1 $203 $203 $204 $205 reversed $170 $-1 #
plane-surface $-1 0 0 -4 0 0 -1 0 1 0 forward_v I I I I #
coedge $-1 $204 $179 $206 $207 forward $172 $-1 #
coedge $-1 $206 $174 $203 $208 forward $152 $-1 #
coedge $-1 $174 $206 $175 $195 reversed $152 $-1 #
coedge $-1 $179 $204 $174 $194 reversed $172 $-1 #
edge $-1 $196 0 $209 10.75 $174 $210 forward 7 unknown #
edge $-1 $196 0 $182 3.1415926535897931 $192 $211 forward 7 unknown #
vertex $-1 $195 $212 #
ellipse-curve $-1 -1.2500000000000009 -3.0615158845559451e-016 6.7499999999999991 -2.4492127076447545e-016 1 8.1274243653140948e-032 8.8817841970012523e-016 1.9721522630525295e-031 0.25000000000000089 1 I I #
ellipse-curve $-1 0 0 6.75 0 0 -1 1 1.2246063538223773e-016 0 1 I I #
point $-1 1.25 1.5307579422779716e-016 7 #
point $-1 1 1.2246063538223773e-016 6.75 #
ellipse-curve $-1 -1.1102230246251565e-016 5.5511151231257827e-017 7 0 0 -1 -1.25 -5.5511151231257827e-017 0 1 I I #
point $-1 -1.25 0 7 #
coedge $-1 $188 $188 $191 $208 reversed $170 $-1 #
coedge $-1 $193 $190 $188 $205 forward $172 $-1 #
edge $-1 $213 0 $209 3.1415926535897931 $188 $214 forward 7 unknown #
coedge $-1 $192 $191 $190 $207 reversed $152 $-1 #
edge $-1 $182 0 $213 10.75 $206 $215 forward 7 unknown #
edge $-1 $209 0 $213 3.1415926535897931 $203 $216 forward 7 unknown #
vertex $-1 $208 $217 #
straight-curve $-1 -1 0 6.75 0 0 -1 I I #
ellipse-curve $-1 0 0 6.75 0 0 -1 -1 0 0 1 I I #
point $-1 -1 0 6.75 #
vertex $-1 $208 $218 #
ellipse-curve $-1 0 0 -4 0 0 -1 1 0 0 1 I I #
straight-curve $-1 1 1.2246063538223773e-016 6.75 0 -4.1310624172098847e-017 -1 I I #
ellipse-curve $-1 0 0 -4 0 0 -1 -1 0 0 1 I I #
point $-1 -1 0 -4 #
point $-1 1 0 -4 #
End-of-ACIS-data 