700 0 2 0           
24 FBMach with ACIS - 7.0.3 13 ACIS 7.0.3 NT 24 Wed May 15 23:28:15 2002 
1 9.9999999999999995e-007 1e-010 
body $2 -1 $-1 $3 $-1 $4 #
bdycol-kcp $-1 -1 1 6 $5 $6 $7 $8 $9 $10 #
model_id-kcp-attrib $-1 -1 $-1 $-1 $0 1 1021519692 1021519692 932249601 1 #
lump $-1 -1 $-1 $-1 $11 $0 #
transform $-1 -1 1 0 0 0 1 0 0 0 1 0 0 0 1 rotate no_reflect no_shear #
body $12 -1 $-1 $13 $-1 $14 #
body $15 -1 $-1 $16 $-1 $17 #
body $18 -1 $-1 $19 $-1 $20 #
body $21 -1 $-1 $22 $-1 $23 #
body $24 -1 $-1 $25 $-1 $26 #
body $27 -1 $-1 $28 $-1 $29 #
shell $-1 -1 $-1 $-1 $-1 $30 $-1 $3 #
model_id-kcp-attrib $-1 -1 $-1 $-1 $5 1 1021519692 1021519692 932249602 1 #
lump $-1 -1 $-1 $-1 $31 $5 #
transform $-1 -1 1 0 0 0 1 0 0 0 1 0 0 1.5 1 no_rotate no_reflect no_shear #
rgb_color-st-attrib $-1 -1 $32 $-1 $6 0.5 1 1 #
lump $-1 -1 $-1 $-1 $33 $6 #
transform $-1 -1 1 0 0 0 1 0 0 0 1 0 0 1.5 1 no_rotate no_reflect no_shear #
rgb_color-st-attrib $-1 -1 $34 $-1 $7 1 0.5 1 #
lump $-1 -1 $-1 $-1 $35 $7 #
transform $-1 -1 1 0 0 0 1 0 0 0 1 0 0 1.5 1 no_rotate no_reflect no_shear #
rgb_color-st-attrib $-1 -1 $36 $-1 $8 1 0.5 1 #
lump $-1 -1 $-1 $-1 $37 $8 #
transform $-1 -1 1 0 0 0 1 0 0 0 1 0 0 1.5 1 no_rotate no_reflect no_shear #
rgb_color-st-attrib $-1 -1 $38 $-1 $9 1 0.5 1 #
lump $-1 -1 $-1 $-1 $39 $9 #
transform $-1 -1 1 0 0 0 1 0 0 0 1 0 0 1.5 1 no_rotate no_reflect no_shear #
rgb_color-st-attrib $-1 -1 $40 $-1 $10 1 0.5 1 #
lump $-1 -1 $-1 $-1 $41 $10 #
transform $-1 -1 1 0 0 0 1 0 0 0 1 0 0 1.5 1 no_rotate no_reflect no_shear #
face $42 -1 $-1 $43 $44 $11 $-1 $45 reversed single #
shell $-1 -1 $-1 $-1 $-1 $46 $-1 $13 #
model_id-kcp-attrib $-1 -1 $-1 $15 $6 1 1021519692 1021519693 924254211 1 #
shell $-1 -1 $-1 $-1 $-1 $47 $-1 $16 #
model_id-kcp-attrib $-1 -1 $-1 $18 $7 1 1021519692 1021519693 929038341 1 #
shell $-1 -1 $-1 $-1 $-1 $48 $-1 $19 #
model_id-kcp-attrib $-1 -1 $-1 $21 $8 1 1021519692 1021519693 937689092 1 #
shell $-1 -1 $-1 $-1 $-1 $49 $-1 $22 #
model_id-kcp-attrib $-1 -1 $-1 $24 $9 1 1021519692 1021519694 925564935 1 #
shell $-1 -1 $-1 $-1 $-1 $50 $-1 $25 #
model_id-kcp-attrib $-1 -1 $-1 $27 $10 1 1021519692 1021519694 937492486 1 #
shell $-1 -1 $-1 $-1 $-1 $51 $-1 $28 #
model_id-kcp-attrib $-1 -1 $-1 $-1 $30 1 1021519692 1021519692 932249601 2 #
face $52 -1 $-1 $53 $54 $11 $-1 $55 forward single #
loop $-1 -1 $-1 $56 $57 $30 #
plane-surface $-1 -1 $-1 0 0 0 0 0 1 1 0 0 forward_v I I I I #
face $58 -1 $-1 $59 $60 $31 $-1 $61 forward single #
face $-1 -1 $-1 $62 $63 $33 $-1 $64 reversed single #
face $-1 -1 $-1 $65 $66 $35 $-1 $67 forward single #
face $-1 -1 $-1 $68 $69 $37 $-1 $70 forward single #
face $-1 -1 $-1 $71 $72 $39 $-1 $73 forward single #
face $-1 -1 $-1 $74 $75 $41 $-1 $76 forward single #
model_id-kcp-attrib $-1 -1 $-1 $-1 $43 1 1021519692 1021519692 932249601 3 #
face $77 -1 $-1 $78 $79 $11 $-1 $80 forward single #
loop $-1 -1 $-1 $-1 $81 $43 #
cone-surface $-1 -1 $-1 0 0 0 0 0 1 2.5 0 0 1 I I 0 1 2.5 forward I I I I #
loop $-1 -1 $-1 $-1 $82 $30 #
coedge $-1 -1 $-1 $83 $83 $84 $85 reversed $44 $-1 #
model_id-kcp-attrib $-1 -1 $-1 $-1 $46 1 1021519692 1021519692 932249602 2 #
face $86 -1 $-1 $87 $88 $31 $-1 $89 reversed single #
loop $-1 -1 $-1 $-1 $90 $46 #
plane-surface $-1 -1 $-1 0 0 5.5 0 0 1 1 0 0 forward_v I I I I #
face $-1 -1 $-1 $91 $92 $33 $-1 $64 reversed single #
loop $-1 -1 $-1 $-1 $93 $47 #
cone-surface $-1 -1 $-1 9.372879511388359e-033 0 5.5 0 0 1 -2.5 0 0 1 I I 0 1 2.5 forward I I I I #
face $-1 -1 $-1 $94 $95 $35 $-1 $96 forward single #
loop $-1 -1 $-1 $-1 $97 $48 #
cone-surface $-1 -1 $-1 9.372879511388359e-033 0 5.5 0 0 1 -2.5 0 0 1 I I 0 1 2.5 forward I I I I #
face $-1 -1 $-1 $98 $99 $37 $-1 $100 forward single #
loop $-1 -1 $-1 $-1 $101 $49 #
cone-surface $-1 -1 $-1 9.372879511388359e-033 0 5.5 0 0 1 -2.5 0 0 1 I I 0 1 2.5 forward I I I I #
face $-1 -1 $-1 $102 $103 $39 $-1 $104 forward single #
loop $-1 -1 $-1 $-1 $105 $50 #
plane-surface $-1 -1 $-1 -1.5 -1.78 -1.5 0 0 1 1 0 0 forward_v I I I I #
face $-1 -1 $-1 $106 $107 $41 $-1 $108 forward single #
loop $-1 -1 $-1 $-1 $109 $51 #
plane-surface $-1 -1 $-1 -1.5 1.8200000000000001 -5.5 0 0 -1 -1 0 0 forward_v I I I I #
model_id-kcp-attrib $-1 -1 $-1 $-1 $53 1 1021519692 1021519692 932249601 4 #
face $110 -1 $-1 $111 $112 $11 $-1 $113 forward single #
loop $-1 -1 $-1 $-1 $114 $53 #
cone-surface $-1 -1 $-1 0 0 0 0 0 1 2.5 0 0 1 I I 0 1 2.5 forward I I I I #
coedge $-1 -1 $-1 $115 $84 $116 $117 forward $54 $-1 #
coedge $-1 -1 $-1 $118 $119 $120 $121 reversed $56 $-1 #
coedge $-1 -1 $-1 $57 $57 $122 $123 reversed $44 $-1 #
coedge $-1 -1 $-1 $81 $124 $57 $85 forward $54 $-1 #
edge $125 -1 $-1 $126 0 $127 3.1415926535897931 $57 $128 forward @7 unknown #
model_id-kcp-attrib $-1 -1 $-1 $-1 $59 1 1021519692 1021519692 932249602 3 #
face $-1 -1 $-1 $129 $130 $31 $-1 $131 reversed single #
loop $-1 -1 $-1 $-1 $132 $59 #
plane-surface $-1 -1 $-1 0 0 -5.5 0 0 1 1 0 0 forward_v I I I I #
coedge $-1 -1 $-1 $133 $134 $135 $136 forward $60 $-1 #
face $-1 -1 $-1 $137 $138 $33 $-1 $64 reversed single #
loop $-1 -1 $-1 $-1 $139 $62 #
coedge $-1 -1 $-1 $140 $141 $142 $143 reversed $63 $-1 #
face $-1 -1 $-1 $144 $145 $35 $-1 $146 forward single #
loop $-1 -1 $-1 $-1 $147 $65 #
plane-surface $-1 -1 $-1 1.5 -2 -1.5 0 0 1 1 0 0 forward_v I I I I #
coedge $-1 -1 $-1 $148 $149 $147 $150 forward $66 $-1 #
face $-1 -1 $-1 $151 $152 $37 $-1 $153 forward single #
loop $-1 -1 $-1 $-1 $154 $68 #
plane-surface $-1 -1 $-1 -1.5 -2 -5.5 0 0 -1 -1 0 0 forward_v I I I I #
coedge $-1 -1 $-1 $155 $156 $157 $158 forward $69 $-1 #
face $-1 -1 $-1 $159 $160 $39 $-1 $161 forward single #
loop $-1 -1 $-1 $-1 $162 $71 #
plane-surface $-1 -1 $-1 1.5 -1.78 -1.5 1 0 0 0 0 -1 forward_v I I I I #
coedge $-1 -1 $-1 $163 $164 $165 $166 forward $72 $-1 #
face $-1 -1 $-1 $167 $168 $41 $-1 $169 forward single #
loop $-1 -1 $-1 $-1 $170 $74 #
plane-surface $-1 -1 $-1 1.5 1.8200000000000001 -5.5 1 0 0 0 0 -1 forward_v I I I I #
coedge $-1 -1 $-1 $171 $172 $173 $174 forward $75 $-1 #
model_id-kcp-attrib $-1 -1 $-1 $-1 $78 1 1021519692 1021519692 932249601 5 #
face $175 -1 $-1 $176 $177 $11 $-1 $178 forward single #
loop $-1 -1 $-1 $-1 $179 $78 #
torus-surface $-1 -1 $-1 0 0 6.75 0 0 1 2.25 0.25 1 0 0 forward_v I I I I #
coedge $-1 -1 $-1 $180 $122 $124 $181 forward $79 $-1 #
coedge $-1 -1 $-1 $124 $81 $182 $183 reversed $54 $-1 #
coedge $-1 -1 $-1 $122 $180 $81 $117 reversed $79 $-1 #
edge $-1 -1 $-1 $127 0 $184 6.75 $116 $185 forward @7 unknown #
coedge $-1 -1 $-1 $186 $82 $187 $188 reversed $56 $-1 #
coedge $-1 -1 $-1 $82 $186 $189 $190 reversed $56 $-1 #
coedge $-1 -1 $-1 $191 $192 $82 $121 forward $193 $-1 #
edge $194 -1 $-1 $195 0 $196 3.6000000000000001 $82 $197 forward @7 unknown #
coedge $-1 -1 $-1 $114 $116 $83 $123 forward $79 $-1 #
edge $198 -1 $-1 $127 0 $126 3.1415926535897931 $83 $199 forward @7 unknown #
coedge $-1 -1 $-1 $84 $115 $114 $181 reversed $54 $-1 #
attrib_edge_convexity-kcp-attrib $-1 -1 $200 $-1 $85 1 #
vertex $-1 -1 $-1 $123 $201 #
vertex $-1 -1 $-1 $123 $202 #
ellipse-curve $-1 -1 $-1 0 0 0 0 0 1 -2.5 0 0 1 I I #
face $-1 -1 $-1 $203 $204 $31 $-1 $205 reversed single #
loop $-1 -1 $-1 $-1 $206 $87 #
plane-surface $-1 -1 $-1 0 -2.5 0 0 1 0 0 0 1 forward_v I I I I #
coedge $-1 -1 $-1 $207 $208 $209 $210 forward $88 $-1 #
coedge $-1 -1 $-1 $211 $90 $212 $213 forward $60 $-1 #
coedge $-1 -1 $-1 $90 $211 $214 $215 forward $60 $-1 #
coedge $-1 -1 $-1 $216 $217 $90 $136 reversed $218 $-1 #
edge $-1 -1 $-1 $219 -2.5 $220 2.5 $135 $221 forward @7 unknown #
face $-1 -1 $-1 $222 $223 $33 $-1 $64 reversed single #
loop $-1 -1 $-1 $-1 $224 $91 #
coedge $-1 -1 $-1 $225 $226 $227 $228 reversed $92 $-1 #
coedge $-1 -1 $-1 $229 $93 $230 $231 reversed $63 $-1 #
coedge $-1 -1 $-1 $93 $229 $232 $233 reversed $63 $-1 #
coedge $-1 -1 $-1 $234 $235 $236 $143 forward $237 $-1 #
edge $-1 -1 $-1 $238 -11 $239 0 $142 $240 forward @7 unknown #
face $-1 -1 $-1 $-1 $241 $35 $-1 $242 reversed single #
loop $-1 -1 $-1 $-1 $243 $94 #
plane-surface $-1 -1 $-1 1.5 2 -5.5 0 0 -1 -1 0 0 forward_v I I I I #
coedge $-1 -1 $-1 $244 $244 $97 $150 reversed $95 $-1 #
coedge $-1 -1 $-1 $245 $97 $246 $247 reversed $66 $-1 #
coedge $-1 -1 $-1 $97 $245 $248 $249 reversed $66 $-1 #
edge $-1 -1 $-1 $250 2.2142974355881808 $251 4.0688878715914054 $147 $252 forward @7 unknown #
face $-1 -1 $-1 $-1 $253 $37 $-1 $254 forward single #
loop $-1 -1 $-1 $-1 $157 $98 #
plane-surface $-1 -1 $-1 -1.5 2 -1.5 0 0 1 1 0 0 forward_v I I I I #
coedge $-1 -1 $-1 $255 $255 $256 $257 reversed $99 $-1 #
coedge $-1 -1 $-1 $256 $101 $258 $259 reversed $69 $-1 #
coedge $-1 -1 $-1 $101 $256 $260 $261 reversed $69 $-1 #
coedge $-1 -1 $-1 $262 $262 $101 $158 reversed $152 $-1 #
edge $-1 -1 $-1 $263 -0.92729521800161219 $264 0.92729521800161219 $157 $265 forward @7 unknown #
face $-1 -1 $-1 $266 $267 $39 $-1 $268 forward single #
loop $-1 -1 $-1 $-1 $269 $102 #
plane-surface $-1 -1 $-1 1.5 -1.78 -5.5 0 0 -1 -1 0 0 forward_v I I I I #
coedge $-1 -1 $-1 $270 $271 $272 $273 forward $103 $-1 #
coedge $-1 -1 $-1 $274 $105 $271 $275 reversed $72 $-1 #
coedge $-1 -1 $-1 $105 $274 $276 $277 forward $72 $-1 #
coedge $-1 -1 $-1 $278 $272 $105 $166 reversed $279 $-1 #
edge $-1 -1 $-1 $280 -1.5 $281 1.5 $105 $282 forward @7 unknown #
face $-1 -1 $-1 $283 $284 $41 $-1 $285 forward single #
loop $-1 -1 $-1 $-1 $286 $106 #
plane-surface $-1 -1 $-1 1.5 1.8200000000000001 -1.5 0 0 1 1 0 0 forward_v I I I I #
coedge $-1 -1 $-1 $287 $288 $289 $290 forward $107 $-1 #
coedge $-1 -1 $-1 $291 $109 $288 $292 reversed $75 $-1 #
coedge $-1 -1 $-1 $109 $291 $293 $294 forward $75 $-1 #
coedge $-1 -1 $-1 $295 $289 $109 $174 reversed $296 $-1 #
edge $-1 -1 $-1 $297 -1.5 $298 1.5 $109 $299 forward @7 unknown #
model_id-kcp-attrib $-1 -1 $-1 $-1 $111 1 1021519692 1021519692 932249601 6 #
face $300 -1 $-1 $301 $302 $11 $-1 $303 forward single #
loop $-1 -1 $-1 $-1 $304 $111 #
torus-surface $-1 -1 $-1 0 0 6.75 0 0 1 2.25 0.25 1 0 0 forward_v I I I I #
coedge $-1 -1 $-1 $305 $306 $307 $308 forward $112 $-1 #
coedge $-1 -1 $-1 $116 $114 $305 $309 reversed $79 $-1 #
edge $-1 -1 $-1 $126 0 $310 6.75 $114 $311 forward @7 unknown #
coedge $-1 -1 $-1 $307 $304 $115 $183 forward $177 $-1 #
edge $-1 -1 $-1 $310 0 $184 3.1415926535897931 $115 $312 forward @7 unknown #
vertex $-1 -1 $-1 $117 $313 #
straight-curve $-1 -1 $-1 2.5 0 0 0 0 1 I I #
coedge $-1 -1 $-1 $119 $118 $314 $315 reversed $56 $-1 #
coedge $-1 -1 $-1 $316 $317 $118 $188 forward $318 $-1 #
edge $319 -1 $-1 $320 0 $195 3 $118 $321 forward @7 unknown #
coedge $-1 -1 $-1 $322 $323 $119 $190 forward $324 $-1 #
edge $325 -1 $-1 $196 0 $326 3 $119 $327 forward @7 unknown #
coedge $-1 -1 $-1 $328 $120 $323 $329 forward $193 $-1 #
coedge $-1 -1 $-1 $120 $328 $316 $330 reversed $193 $-1 #
loop $-1 -1 $-1 $-1 $191 $331 #
attrib_edge_convexity-kcp-attrib $-1 -1 $332 $-1 $121 2 #
vertex $-1 -1 $-1 $188 $333 #
vertex $-1 -1 $-1 $190 $334 #
straight-curve $-1 -1 $-1 1.5 1.8200000000000001 0 0 -1 0 I I #
attrib_edge_convexity-kcp-attrib $-1 -1 $335 $-1 $123 1 #
ellipse-curve $-1 -1 $-1 0 0 0 0 0 1 2.5 0 0 1 I I #
convexity-sys-attrib $-1 -1 $-1 $125 $85 #
point $-1 -1 $-1 -2.5 0 0 #
point $-1 -1 $-1 2.5 0 0 #
face $-1 -1 $-1 $336 $337 $31 $-1 $338 reversed single #
loop $-1 -1 $-1 $-1 $339 $129 #
plane-surface $-1 -1 $-1 -2.5 0 0 1 0 0 0 0 -1 forward_v I I I I #
coedge $-1 -1 $-1 $340 $214 $341 $342 forward $130 $-1 #
coedge $-1 -1 $-1 $343 $132 $340 $344 forward $88 $-1 #
coedge $-1 -1 $-1 $132 $343 $345 $346 forward $88 $-1 #
coedge $-1 -1 $-1 $217 $216 $132 $210 reversed $218 $-1 #
edge $-1 -1 $-1 $347 -2.5 $348 2.5 $209 $349 forward @7 unknown #
coedge $-1 -1 $-1 $134 $133 $350 $351 forward $60 $-1 #
coedge $-1 -1 $-1 $352 $353 $133 $213 reversed $337 $-1 #
edge $-1 -1 $-1 $220 -2.5 $354 2.5 $212 $355 forward @7 unknown #
coedge $-1 -1 $-1 $206 $356 $134 $215 reversed $130 $-1 #
edge $-1 -1 $-1 $357 -2.5 $219 2.5 $214 $358 forward @7 unknown #
coedge $-1 -1 $-1 $209 $135 $356 $359 forward $218 $-1 #
coedge $-1 -1 $-1 $135 $209 $352 $360 reversed $218 $-1 #
loop $-1 -1 $-1 $-1 $216 $336 #
vertex $-1 -1 $-1 $136 $361 #
vertex $-1 -1 $-1 $136 $362 #
straight-curve $-1 -1 $-1 2.5 0 5.5 0 1 0 I I #
face $-1 -1 $-1 $363 $364 $33 $-1 $365 reversed single #
loop $-1 -1 $-1 $-1 $366 $137 #
coedge $-1 -1 $-1 $367 $368 $369 $370 reversed $138 $-1 #
coedge $-1 -1 $-1 $371 $139 $372 $373 reversed $92 $-1 #
coedge $-1 -1 $-1 $139 $371 $93 $143 forward $92 $-1 #
coedge $-1 -1 $-1 $374 $375 $139 $228 forward $376 $-1 #
edge $-1 -1 $-1 $377 -3.1415926535897931 $239 -1.5707963267948966 $227 $378 forward @7 unknown #
coedge $-1 -1 $-1 $141 $140 $368 $379 forward $63 $-1 #
coedge $-1 -1 $-1 $380 $381 $140 $231 forward $382 $-1 #
edge $-1 -1 $-1 $383 0 $238 1.5707963267948966 $230 $384 forward @7 unknown #
coedge $-1 -1 $-1 $385 $386 $141 $233 forward $387 $-1 #
edge $-1 -1 $-1 $239 -1.5707963267948966 $388 0 $232 $378 forward @7 unknown #
coedge $-1 -1 $-1 $389 $142 $386 $390 reversed $237 $-1 #
coedge $-1 -1 $-1 $142 $389 $380 $391 reversed $237 $-1 #
coedge $-1 -1 $-1 $392 $393 $226 $143 reversed $394 $-1 #
loop $-1 -1 $-1 $-1 $142 $395 #
vertex $-1 -1 $-1 $391 $396 #
vertex $-1 -1 $-1 $397 $398 #
straight-curve $-1 -1 $-1 9.372879511388359e-033 -2.5 5.5 0 0 1 I I #
loop $-1 -1 $-1 $-1 $399 $144 #
plane-surface $-1 -1 $-1 1.5 5.5511151231257827e-017 -3.5 1 0 0 0 0 -1 forward_v I I I I #
coedge $-1 -1 $-1 $400 $400 $245 $401 reversed $145 $-1 #
coedge $-1 -1 $-1 $147 $147 $399 $402 reversed $95 $-1 #
coedge $-1 -1 $-1 $149 $148 $243 $401 forward $66 $-1 #
coedge $-1 -1 $-1 $399 $403 $148 $247 forward $241 $-1 #
edge $404 -1 $-1 $405 -11 $251 -7 $246 $406 forward @7 unknown #
coedge $-1 -1 $-1 $403 $399 $149 $249 forward $241 $-1 #
edge $407 -1 $-1 $250 7 $408 11 $248 $409 forward @7 unknown #
vertex $-1 -1 $-1 $402 $410 #
vertex $-1 -1 $-1 $402 $411 #
ellipse-curve $-1 -1 $-1 9.372879511388359e-033 0 -1.5 0 0 -1 -2.5 0 0 1 I I #
loop $-1 -1 $-1 $-1 $412 $151 #
plane-surface $-1 -1 $-1 -1.5 1.1102230246251565e-016 -3.5 1 0 0 0 0 -1 forward_v I I I I #
coedge $-1 -1 $-1 $154 $154 $413 $414 reversed $99 $-1 #
coedge $-1 -1 $-1 $156 $155 $154 $257 forward $69 $-1 #
edge $-1 -1 $-1 $415 -0.92729521800161219 $416 0.92729521800161219 $154 $417 forward @7 unknown #
coedge $-1 -1 $-1 $412 $413 $155 $259 forward $253 $-1 #
edge $418 -1 $-1 $415 -11 $264 -7 $258 $419 forward @7 unknown #
coedge $-1 -1 $-1 $413 $412 $156 $261 forward $253 $-1 #
edge $420 -1 $-1 $263 7 $416 11 $260 $421 forward @7 unknown #
coedge $-1 -1 $-1 $157 $157 $412 $422 reversed $152 $-1 #
vertex $-1 -1 $-1 $422 $423 #
vertex $-1 -1 $-1 $422 $424 #
ellipse-curve $-1 -1 $-1 9.372879511388359e-033 0 -1.5 0 0 -1 -2.5 0 0 1 I I #
face $-1 -1 $-1 $425 $279 $39 $-1 $426 reversed single #
loop $-1 -1 $-1 $-1 $427 $159 #
plane-surface $-1 -1 $-1 -1.5 -1.78 -5.5 -1 0 0 0 0 1 forward_v I I I I #
coedge $-1 -1 $-1 $428 $429 $430 $431 forward $160 $-1 #
coedge $-1 -1 $-1 $432 $162 $429 $433 reversed $103 $-1 #
coedge $-1 -1 $-1 $162 $432 $163 $275 forward $103 $-1 #
coedge $-1 -1 $-1 $165 $430 $162 $273 reversed $279 $-1 #
edge $-1 -1 $-1 $281 -2 $434 2 $162 $435 forward @7 unknown #
coedge $-1 -1 $-1 $164 $163 $436 $437 reversed $72 $-1 #
edge $-1 -1 $-1 $438 0 $281 0.21999999999999997 $271 $439 forward @7 unknown #
coedge $-1 -1 $-1 $440 $427 $164 $277 reversed $267 $-1 #
edge $-1 -1 $-1 $441 0 $280 0.21999999999999997 $164 $442 forward @7 unknown #
coedge $-1 -1 $-1 $430 $165 $427 $443 reversed $279 $-1 #
loop $-1 -1 $-1 $-1 $165 $266 #
vertex $-1 -1 $-1 $277 $444 #
vertex $-1 -1 $-1 $275 $445 #
straight-curve $-1 -1 $-1 0 -1.9999999999999993 -1.5 1 0 0 I I #
face $-1 -1 $-1 $446 $296 $41 $-1 $447 forward single #
loop $-1 -1 $-1 $-1 $448 $167 #
plane-surface $-1 -1 $-1 -1.5 1.8200000000000001 -1.5 -1 0 0 0 0 1 forward_v I I I I #
coedge $-1 -1 $-1 $449 $450 $451 $452 forward $168 $-1 #
coedge $-1 -1 $-1 $453 $170 $450 $454 reversed $107 $-1 #
coedge $-1 -1 $-1 $170 $453 $171 $292 forward $107 $-1 #
coedge $-1 -1 $-1 $173 $451 $170 $290 reversed $296 $-1 #
edge $-1 -1 $-1 $298 -2 $455 2 $170 $456 forward @7 unknown #
coedge $-1 -1 $-1 $172 $171 $457 $458 reversed $75 $-1 #
edge $-1 -1 $-1 $459 0 $298 0.17999999999999994 $288 $460 forward @7 unknown #
coedge $-1 -1 $-1 $461 $448 $172 $294 reversed $284 $-1 #
edge $-1 -1 $-1 $462 0 $297 0.17999999999999994 $172 $463 forward @7 unknown #
coedge $-1 -1 $-1 $451 $173 $448 $464 reversed $296 $-1 #
loop $-1 -1 $-1 $-1 $173 $283 #
vertex $-1 -1 $-1 $294 $465 #
vertex $-1 -1 $-1 $292 $466 #
straight-curve $-1 -1 $-1 0 2 -5.5 1 0 0 I I #
model_id-kcp-attrib $-1 -1 $-1 $-1 $176 1 1021519692 1021519692 932249601 7 #
face $467 -1 $-1 $468 $469 $11 $-1 $470 forward single #
loop $-1 -1 $-1 $471 $472 $176 #
plane-surface $-1 -1 $-1 0 0 7 0 0 1 1 0 0 forward_v I I I I #
coedge $-1 -1 $-1 $182 $473 $474 $475 forward $177 $-1 #
coedge $-1 -1 $-1 $474 $179 $180 $309 forward $112 $-1 #
coedge $-1 -1 $-1 $179 $474 $476 $477 reversed $112 $-1 #
coedge $-1 -1 $-1 $473 $182 $179 $308 reversed $177 $-1 #
edge $-1 -1 $-1 $478 -7.888609052210062e-031 $184 1.5707963267948895 $179 $479 forward @7 unknown #
edge $-1 -1 $-1 $184 0 $310 3.1415926535897931 $180 $480 forward @7 unknown #
vertex $-1 -1 $-1 $309 $481 #
straight-curve $-1 -1 $-1 -2.5 3.0615158845559431e-016 0 0 0 1 I I #
ellipse-curve $-1 -1 $-1 0 0 6.7499999999999991 0 0 1 -2.5 3.0615158845559431e-016 0 1 I I #
point $-1 -1 $-1 2.5 0 6.75 #
coedge $-1 -1 $-1 $482 $483 $186 $315 forward $484 $-1 #
edge $485 -1 $-1 $326 0 $320 3.6000000000000001 $186 $486 forward @7 unknown #
coedge $-1 -1 $-1 $487 $187 $192 $330 forward $318 $-1 #
coedge $-1 -1 $-1 $187 $487 $482 $488 reversed $318 $-1 #
loop $-1 -1 $-1 $-1 $316 $489 #
attrib_edge_convexity-kcp-attrib $-1 -1 $490 $-1 $188 2 #
vertex $-1 -1 $-1 $315 $491 #
straight-curve $-1 -1 $-1 -1.5 1.8200000000000001 0 1 0 0 I I #
coedge $-1 -1 $-1 $492 $189 $483 $493 forward $324 $-1 #
coedge $-1 -1 $-1 $189 $492 $191 $329 reversed $324 $-1 #
loop $-1 -1 $-1 $-1 $322 $494 #
attrib_edge_convexity-kcp-attrib $-1 -1 $495 $-1 $190 2 #
vertex $-1 -1 $-1 $190 $496 #
straight-curve $-1 -1 $-1 1.5 -1.78 0 -1 0 0 I I #
coedge $-1 -1 $-1 $192 $191 $497 $498 reversed $193 $-1 #
edge $499 -1 $-1 $196 0 $500 4 $323 $501 forward @7 unknown #
edge $502 -1 $-1 $195 0 $503 4 $316 $504 forward @7 unknown #
face $505 -1 $-1 $494 $193 $11 $-1 $506 forward single #
convexity-sys-attrib $-1 -1 $-1 $194 $121 #
point $-1 -1 $-1 1.5 1.8200000000000001 0 #
point $-1 -1 $-1 1.5 -1.78 0 #
convexity-sys-attrib $-1 -1 $-1 $198 $123 #
face $-1 -1 $-1 $-1 $218 $31 $-1 $507 reversed single #
loop $-1 -1 $-1 $-1 $352 $203 #
plane-surface $-1 -1 $-1 0 2.5 0 0 -1 0 0 0 -1 forward_v I I I I #
coedge $-1 -1 $-1 $508 $350 $353 $509 forward $204 $-1 #
coedge $-1 -1 $-1 $356 $206 $207 $344 reversed $130 $-1 #
coedge $-1 -1 $-1 $350 $508 $206 $342 reversed $204 $-1 #
edge $-1 -1 $-1 $357 -5.5 $510 5.5 $341 $511 forward @7 unknown #
coedge $-1 -1 $-1 $208 $207 $508 $512 forward $88 $-1 #
edge $-1 -1 $-1 $348 -2.5 $510 2.5 $340 $513 forward @7 unknown #
coedge $-1 -1 $-1 $353 $352 $208 $346 reversed $337 $-1 #
edge $-1 -1 $-1 $514 -2.5 $347 2.5 $345 $515 forward @7 unknown #
vertex $-1 -1 $-1 $210 $516 #
vertex $-1 -1 $-1 $359 $517 #
straight-curve $-1 -1 $-1 2.5 0 -5.5 0 -1 0 I I #
coedge $-1 -1 $-1 $339 $341 $211 $351 reversed $204 $-1 #
edge $-1 -1 $-1 $354 -2.5 $357 2.5 $350 $518 forward @7 unknown #
coedge $-1 -1 $-1 $345 $212 $217 $360 forward $337 $-1 #
coedge $-1 -1 $-1 $212 $345 $339 $509 reversed $337 $-1 #
vertex $-1 -1 $-1 $213 $519 #
straight-curve $-1 -1 $-1 0 2.5 5.5 -1 0 0 I I #
coedge $-1 -1 $-1 $214 $340 $216 $359 reversed $130 $-1 #
vertex $-1 -1 $-1 $351 $520 #
straight-curve $-1 -1 $-1 0 -2.5 5.5 1 0 0 I I #
edge $-1 -1 $-1 $219 -5.5 $348 5.5 $216 $521 forward @7 unknown #
edge $-1 -1 $-1 $220 -5.5 $347 5.5 $217 $522 forward @7 unknown #
point $-1 -1 $-1 2.5 -2.5 5.5 #
point $-1 -1 $-1 2.5 2.5 5.5 #
face $-1 -1 $-1 $523 $394 $33 $-1 $524 reversed single #
loop $-1 -1 $-1 $-1 $525 $222 #
plane-surface $-1 -1 $-1 -2.5 0 0 1 0 0 0 0 -1 forward_v I I I I #
coedge $-1 -1 $-1 $526 $527 $528 $529 reversed $223 $-1 #
coedge $-1 -1 $-1 $530 $224 $527 $531 forward $138 $-1 #
coedge $-1 -1 $-1 $224 $530 $532 $379 reversed $138 $-1 #
coedge $-1 -1 $-1 $533 $534 $224 $370 forward $535 $-1 #
edge $-1 -1 $-1 $536 -1.5707963267948966 $383 0 $369 $384 forward @7 unknown #
coedge $-1 -1 $-1 $226 $225 $537 $538 reversed $92 $-1 #
coedge $-1 -1 $-1 $539 $540 $541 $373 forward $542 $-1 #
edge $-1 -1 $-1 $543 -11 $377 0 $372 $544 forward @7 unknown #
coedge $-1 -1 $-1 $375 $227 $393 $397 forward $376 $-1 #
coedge $-1 -1 $-1 $227 $374 $539 $545 forward $376 $-1 #
loop $-1 -1 $-1 $-1 $227 $546 #
vertex $-1 -1 $-1 $547 $548 #
ellipse-curve $-1 -1 $-1 9.372879511388359e-033 0 5.5 0 0 -1 -2.5 0 0 1 I I #
edge $-1 -1 $-1 $383 -11 $388 0 $532 $549 forward @7 unknown #
coedge $-1 -1 $-1 $381 $230 $235 $391 forward $382 $-1 #
coedge $-1 -1 $-1 $230 $380 $550 $551 forward $382 $-1 #
loop $-1 -1 $-1 $-1 $230 $552 #
vertex $-1 -1 $-1 $553 $554 #
ellipse-curve $-1 -1 $-1 9.372879511388359e-033 0 -5.5 0 0 1 -2.5 0 0 1 I I #
coedge $-1 -1 $-1 $386 $232 $555 $556 forward $387 $-1 #
coedge $-1 -1 $-1 $232 $385 $234 $390 forward $387 $-1 #
loop $-1 -1 $-1 $-1 $232 $557 #
vertex $-1 -1 $-1 $556 $558 #
coedge $-1 -1 $-1 $235 $234 $559 $560 forward $237 $-1 #
edge $-1 -1 $-1 $561 -2.5 $239 9.372879511388359e-033 $234 $562 forward @7 unknown #
edge $-1 -1 $-1 $238 -9.372879511388359e-033 $563 2.5 $235 $564 forward @7 unknown #
coedge $-1 -1 $-1 $565 $236 $566 $567 reversed $394 $-1 #
coedge $-1 -1 $-1 $236 $565 $374 $397 reversed $394 $-1 #
loop $-1 -1 $-1 $-1 $236 $363 #
face $-1 -1 $-1 $568 $237 $33 $-1 $524 reversed single #
point $-1 -1 $-1 9.372879511388359e-033 -2.5 -5.5 #
edge $-1 -1 $-1 $239 9.372879511388359e-033 $569 2.5 $393 $562 forward @7 unknown #
point $-1 -1 $-1 9.372879511388359e-033 -2.5 5.5 #
coedge $-1 -1 $-1 $248 $246 $244 $402 forward $241 $-1 #
coedge $-1 -1 $-1 $243 $243 $403 $570 reversed $145 $-1 #
edge $-1 -1 $-1 $405 2.2142974355881808 $408 4.0688878715914054 $243 $571 forward @7 unknown #
edge $572 -1 $-1 $251 -2.0099999999999998 $250 1.99 $244 $573 forward @7 unknown #
coedge $-1 -1 $-1 $246 $248 $400 $570 forward $241 $-1 #
convexity-sys-attrib $-1 -1 $-1 $-1 $247 #
vertex $-1 -1 $-1 $570 $574 #
straight-curve $-1 -1 $-1 1.5 -2 5.5 0 0 1 I I #
convexity-sys-attrib $-1 -1 $-1 $-1 $249 #
vertex $-1 -1 $-1 $249 $575 #
straight-curve $-1 -1 $-1 1.5 2 5.5 0 0 -1 I I #
point $-1 -1 $-1 1.5 2 -1.5 #
point $-1 -1 $-1 1.5 -2 -1.5 #
coedge $-1 -1 $-1 $260 $258 $262 $422 forward $253 $-1 #
coedge $-1 -1 $-1 $258 $260 $255 $414 forward $253 $-1 #
edge $576 -1 $-1 $416 -2.0099999999999998 $415 1.99 $255 $577 forward @7 unknown #
vertex $-1 -1 $-1 $414 $578 #
vertex $-1 -1 $-1 $261 $579 #
ellipse-curve $-1 -1 $-1 9.372879511388359e-033 0 -5.5 0 0 1 -2.5 0 0 1 I I #
convexity-sys-attrib $-1 -1 $-1 $-1 $259 #
straight-curve $-1 -1 $-1 -1.5 2 5.5 0 0 1 I I #
convexity-sys-attrib $-1 -1 $-1 $-1 $261 #
straight-curve $-1 -1 $-1 -1.5 -2 5.5 0 0 -1 I I #
edge $580 -1 $-1 $264 -1.99 $263 2.0099999999999998 $262 $581 forward @7 unknown #
point $-1 -1 $-1 -1.5 -2 -1.5 #
point $-1 -1 $-1 -1.5 2 -1.5 #
face $-1 -1 $-1 $-1 $582 $39 $-1 $583 forward single #
plane-surface $-1 -1 $-1 -8.6510885035726482e-018 -1.9999999999999993 -3.5 1.3082270401675158e-032 1 2.94351084037691e-032 0 -2.94351084037691e-032 1 forward_v I I I I #
coedge $-1 -1 $-1 $276 $584 $278 $443 forward $267 $-1 #
coedge $-1 -1 $-1 $585 $269 $584 $586 reversed $160 $-1 #
coedge $-1 -1 $-1 $269 $585 $270 $433 forward $160 $-1 #
coedge $-1 -1 $-1 $272 $278 $269 $431 reversed $279 $-1 #
edge $-1 -1 $-1 $434 -1.5 $587 1.5 $269 $588 forward @7 unknown #
coedge $-1 -1 $-1 $271 $270 $589 $590 reversed $103 $-1 #
edge $-1 -1 $-1 $591 0 $434 0.21999999999999997 $429 $592 forward @7 unknown #
vertex $-1 -1 $-1 $433 $593 #
straight-curve $-1 -1 $-1 1.5 -1.9999999999999993 -3.5 0 0 -1 I I #
coedge $-1 -1 $-1 $589 $594 $274 $437 forward $582 $-1 #
edge $595 -1 $-1 $441 -1.5 $438 1.5 $274 $596 forward @7 unknown #
vertex $-1 -1 $-1 $437 $597 #
straight-curve $-1 -1 $-1 1.5 -1.78 -1.5 0 -1 0 I I #
coedge $-1 -1 $-1 $584 $276 $594 $598 reversed $267 $-1 #
vertex $-1 -1 $-1 $598 $599 #
straight-curve $-1 -1 $-1 -1.5 -1.78 -1.5 0 -1 0 I I #
edge $-1 -1 $-1 $587 -2 $280 2 $427 $600 forward @7 unknown #
point $-1 -1 $-1 -1.5 -2 -1.5 #
point $-1 -1 $-1 1.5 -2 -1.5 #
face $-1 -1 $-1 $-1 $601 $41 $-1 $602 reversed single #
plane-surface $-1 -1 $-1 -8.6510885035726482e-018 2 -3.5 6.5411352008375761e-033 1 -3.7936442052307325e-049 0 3.7936442052307325e-049 1 forward_v I I I I #
coedge $-1 -1 $-1 $293 $603 $295 $464 forward $284 $-1 #
coedge $-1 -1 $-1 $604 $286 $603 $605 reversed $168 $-1 #
coedge $-1 -1 $-1 $286 $604 $287 $454 forward $168 $-1 #
coedge $-1 -1 $-1 $289 $295 $286 $452 reversed $296 $-1 #
edge $-1 -1 $-1 $455 -1.5 $606 1.5 $286 $607 forward @7 unknown #
coedge $-1 -1 $-1 $288 $287 $608 $609 reversed $107 $-1 #
edge $-1 -1 $-1 $610 0 $455 0.17999999999999994 $450 $611 forward @7 unknown #
vertex $-1 -1 $-1 $454 $612 #
straight-curve $-1 -1 $-1 1.5 2 -3.5 0 0 1 I I #
coedge $-1 -1 $-1 $608 $613 $291 $458 forward $601 $-1 #
edge $614 -1 $-1 $462 -1.5 $459 1.5 $291 $615 forward @7 unknown #
vertex $-1 -1 $-1 $458 $616 #
straight-curve $-1 -1 $-1 1.5 1.8200000000000001 -5.5 0 1 0 I I #
coedge $-1 -1 $-1 $603 $293 $613 $617 reversed $284 $-1 #
vertex $-1 -1 $-1 $617 $618 #
straight-curve $-1 -1 $-1 -1.5 1.8200000000000001 -5.5 0 1 0 I I #
edge $-1 -1 $-1 $606 -2 $297 2 $448 $619 forward @7 unknown #
point $-1 -1 $-1 -1.5 2 -5.5 #
point $-1 -1 $-1 1.5 2 -5.5 #
model_id-kcp-attrib $-1 -1 $-1 $-1 $301 1 1021519692 1021519692 932249601 8 #
face $620 -1 $-1 $621 $622 $11 $-1 $623 forward single #
loop $-1 -1 $-1 $-1 $624 $301 #
torus-surface $-1 -1 $-1 0 0 6.75 0 0 -1 1.25 0.25 -1 0 0 forward_v I I I I #
loop $-1 -1 $-1 $-1 $625 $176 #
coedge $-1 -1 $-1 $476 $476 $473 $626 forward $302 $-1 #
coedge $-1 -1 $-1 $304 $307 $472 $626 reversed $177 $-1 #
coedge $-1 -1 $-1 $306 $305 $304 $475 reversed $112 $-1 #
edge $-1 -1 $-1 $627 0 $310 1.5707963267948895 $474 $628 forward @7 unknown #
coedge $-1 -1 $-1 $472 $472 $306 $477 forward $302 $-1 #
edge $629 -1 $-1 $478 0 $627 3.1415926535897931 $476 $630 forward @7 unknown #
vertex $-1 -1 $-1 $477 $631 #
ellipse-curve $-1 -1 $-1 2.2499999999999991 -5.5107285922006947e-016 6.7499999999999991 2.449212707644759e-016 1 3.1315620895736197e-031 8.8817841970012523e-016 -2.9582283945787943e-031 0.25000000000000089 1 I I #
ellipse-curve $-1 -1 $-1 0 0 6.7499999999999991 0 0 1 2.5 0 0 1 I I #
point $-1 -1 $-1 -2.5 3.0615158845559431e-016 6.75 #
coedge $-1 -1 $-1 $632 $314 $317 $488 forward $484 $-1 #
coedge $-1 -1 $-1 $314 $632 $322 $493 reversed $484 $-1 #
loop $-1 -1 $-1 $-1 $482 $633 #
attrib_edge_convexity-kcp-attrib $-1 -1 $634 $-1 $315 2 #
straight-curve $-1 -1 $-1 -1.5 -1.78 0 0 1 0 I I #
coedge $-1 -1 $-1 $317 $316 $635 $636 reversed $318 $-1 #
edge $637 -1 $-1 $320 0 $638 4 $482 $639 forward @7 unknown #
face $640 -1 $-1 $331 $318 $11 $-1 $641 forward single #
convexity-sys-attrib $-1 -1 $-1 $319 $188 #
point $-1 -1 $-1 -1.5 1.8200000000000001 0 #
coedge $-1 -1 $-1 $323 $322 $642 $643 reversed $324 $-1 #
edge $644 -1 $-1 $326 0 $645 4 $322 $646 forward @7 unknown #
face $647 -1 $-1 $-1 $324 $11 $-1 $648 forward single #
convexity-sys-attrib $-1 -1 $-1 $325 $190 #
point $-1 -1 $-1 -1.5 -1.78 0 #
coedge $-1 -1 $-1 $642 $635 $328 $498 forward $649 $-1 #
edge $650 -1 $-1 $503 0 $500 3.6000000000000001 $497 $651 forward @7 unknown #
attrib_edge_convexity-kcp-attrib $-1 -1 $652 $-1 $329 1 #
vertex $-1 -1 $-1 $643 $653 #
straight-curve $-1 -1 $-1 1.5 -1.78 0 0 0 -1 I I #
attrib_edge_convexity-kcp-attrib $-1 -1 $654 $-1 $330 1 #
vertex $-1 -1 $-1 $498 $655 #
straight-curve $-1 -1 $-1 1.5 1.8200000000000001 0 0 0 -1 I I #
model_id-kcp-attrib $-1 -1 $-1 $-1 $331 1 1021519692 1021519692 932249601 15 #
plane-surface $-1 -1 $-1 1.5 1.8200000000000001 0 1 0 0 0 -1 0 forward_v I I I I #
plane-surface $-1 -1 $-1 2.5 0 0 -1 0 0 0 0 1 forward_v I I I I #
coedge $-1 -1 $-1 $341 $339 $343 $512 reversed $204 $-1 #
edge $-1 -1 $-1 $354 -5.5 $514 5.5 $353 $656 forward @7 unknown #
vertex $-1 -1 $-1 $512 $657 #
straight-curve $-1 -1 $-1 -2.5 -2.5 0 0 0 -1 I I #
edge $-1 -1 $-1 $510 -2.5 $514 2.5 $508 $658 forward @7 unknown #
straight-curve $-1 -1 $-1 0 -2.5 -5.5 -1 0 0 I I #
vertex $-1 -1 $-1 $346 $659 #
straight-curve $-1 -1 $-1 0 2.5 -5.5 1 0 0 I I #
point $-1 -1 $-1 2.5 2.5 -5.5 #
point $-1 -1 $-1 2.5 -2.5 -5.5 #
straight-curve $-1 -1 $-1 -2.5 0 5.5 0 -1 0 I I #
point $-1 -1 $-1 -2.5 2.5 5.5 #
point $-1 -1 $-1 -2.5 -2.5 5.5 #
straight-curve $-1 -1 $-1 2.5 -2.5 0 0 0 -1 I I #
straight-curve $-1 -1 $-1 2.5 2.5 0 0 0 -1 I I #
face $-1 -1 $-1 $660 $661 $33 $-1 $662 reversed single #
plane-surface $-1 -1 $-1 0 -2.5 0 0 1 0 0 0 1 forward_v I I I I #
coedge $-1 -1 $-1 $550 $555 $229 $379 reversed $364 $-1 #
coedge $-1 -1 $-1 $663 $366 $225 $373 forward $223 $-1 #
coedge $-1 -1 $-1 $366 $663 $664 $531 reversed $223 $-1 #
coedge $-1 -1 $-1 $665 $666 $366 $529 forward $667 $-1 #
edge $-1 -1 $-1 $543 -3.1415926535897931 $536 -1.5707963267948966 $528 $384 forward @7 unknown #
coedge $-1 -1 $-1 $368 $367 $668 $669 reversed $138 $-1 #
edge $-1 -1 $-1 $536 -11 $670 0 $664 $671 forward @7 unknown #
coedge $-1 -1 $-1 $672 $673 $525 $379 forward $674 $-1 #
coedge $-1 -1 $-1 $534 $369 $673 $553 forward $535 $-1 #
coedge $-1 -1 $-1 $369 $533 $675 $676 forward $535 $-1 #
loop $-1 -1 $-1 $-1 $369 $677 #
vertex $-1 -1 $-1 $678 $679 #
coedge $-1 -1 $-1 $680 $566 $371 $538 forward $681 $-1 #
edge $-1 -1 $-1 $238 1.5707963267948966 $543 3.1415926535897931 $537 $384 forward @7 unknown #
coedge $-1 -1 $-1 $682 $372 $375 $545 reversed $542 $-1 #
coedge $-1 -1 $-1 $372 $682 $680 $683 reversed $542 $-1 #
coedge $-1 -1 $-1 $684 $685 $526 $373 reversed $661 $-1 #
loop $-1 -1 $-1 $-1 $372 $686 #
vertex $-1 -1 $-1 $683 $687 #
straight-curve $-1 -1 $-1 2.5 0 5.5 0 0 1 I I #
edge $-1 -1 $-1 $569 -2.5 $377 0 $539 $688 forward @7 unknown #
face $-1 -1 $-1 $557 $376 $33 $-1 $689 forward single #
edge $-1 -1 $-1 $377 0 $690 2.5 $685 $688 forward @7 unknown #
point $-1 -1 $-1 2.5 0 5.5 #
straight-curve $-1 -1 $-1 -2.5 0 5.5 0 0 1 I I #
coedge $-1 -1 $-1 $559 $525 $381 $551 reversed $364 $-1 #
edge $-1 -1 $-1 $563 -2.5 $383 0 $550 $691 forward @7 unknown #
face $-1 -1 $-1 $692 $382 $33 $-1 $693 reversed single #
edge $-1 -1 $-1 $383 0 $694 2.5 $673 $691 forward @7 unknown #
point $-1 -1 $-1 -2.5 0 -5.5 #
coedge $-1 -1 $-1 $525 $559 $385 $556 reversed $364 $-1 #
edge $-1 -1 $-1 $388 0 $561 2.5 $555 $695 forward @7 unknown #
face $-1 -1 $-1 $696 $387 $33 $-1 $689 forward single #
point $-1 -1 $-1 -2.5 0 5.5 #
coedge $-1 -1 $-1 $555 $550 $389 $560 reversed $364 $-1 #
edge $-1 -1 $-1 $561 -5.5 $563 5.5 $559 $697 forward @7 unknown #
vertex $-1 -1 $-1 $556 $698 #
straight-curve $-1 -1 $-1 0 -2.5 5.5 1 0 0 I I #
vertex $-1 -1 $-1 $551 $699 #
straight-curve $-1 -1 $-1 0 -2.5 -5.5 -1 0 0 I I #
coedge $-1 -1 $-1 $393 $392 $682 $700 reversed $394 $-1 #
coedge $-1 -1 $-1 $537 $680 $392 $567 forward $681 $-1 #
edge $-1 -1 $-1 $701 -2.5 $238 -9.372879511388359e-033 $392 $564 forward @7 unknown #
face $-1 -1 $-1 $702 $674 $33 $-1 $365 reversed single #
vertex $-1 -1 $-1 $545 $703 #
edge $704 -1 $-1 $408 -1.99 $405 2.0099999999999998 $400 $705 forward @7 unknown #
ellipse-curve $-1 -1 $-1 9.372879511388359e-033 0 -5.5 0 0 1 -2.5 0 0 1 I I #
convexity-sys-attrib $-1 -1 $-1 $-1 $402 #
straight-curve $-1 -1 $-1 1.5 0.010000000000000009 -1.5 0 1 0 I I #
point $-1 -1 $-1 1.5 -2 -5.5 #
point $-1 -1 $-1 1.5 2 -5.5 #
convexity-sys-attrib $-1 -1 $-1 $-1 $414 #
straight-curve $-1 -1 $-1 -1.5 0.010000000000000009 -5.5 0 1 0 I I #
point $-1 -1 $-1 -1.5 2 -5.5 #
point $-1 -1 $-1 -1.5 -2 -5.5 #
convexity-sys-attrib $-1 -1 $-1 $-1 $422 #
straight-curve $-1 -1 $-1 -1.5 0.010000000000000009 -1.5 0 -1 0 I I #
loop $-1 -1 $-1 $-1 $594 $425 #
plane-surface $-1 -1 $-1 -8.6510885035726482e-018 -1.7799999999999994 -3.5 1.3082270401675158e-032 1 2.94351084037691e-032 0 -2.94351084037691e-032 1 forward_v I I I I #
coedge $-1 -1 $-1 $427 $440 $428 $586 forward $267 $-1 #
coedge $-1 -1 $-1 $429 $428 $706 $707 reversed $160 $-1 #
edge $-1 -1 $-1 $708 0 $587 0.21999999999999997 $584 $709 forward @7 unknown #
vertex $-1 -1 $-1 $586 $710 #
straight-curve $-1 -1 $-1 0 -1.9999999999999993 -5.5 -1 0 0 I I #
coedge $-1 -1 $-1 $706 $436 $432 $590 forward $582 $-1 #
edge $711 -1 $-1 $438 -2 $591 2 $432 $712 forward @7 unknown #
vertex $-1 -1 $-1 $590 $713 #
straight-curve $-1 -1 $-1 1.5 -1.78 -5.5 0 -1 0 I I #
point $-1 -1 $-1 1.5 -2 -5.5 #
coedge $-1 -1 $-1 $436 $706 $440 $598 forward $582 $-1 #
convexity-sys-attrib $-1 -1 $-1 $-1 $437 #
straight-curve $-1 -1 $-1 0 -1.7799999999999994 -1.5 1 0 0 I I #
point $-1 -1 $-1 1.5 -1.78 -1.5 #
edge $714 -1 $-1 $708 -2 $441 2 $440 $715 forward @7 unknown #
point $-1 -1 $-1 -1.5 -1.78 -1.5 #
straight-curve $-1 -1 $-1 -1.5 -1.9999999999999993 -3.5 0 0 1 I I #
loop $-1 -1 $-1 $-1 $613 $446 #
plane-surface $-1 -1 $-1 -8.6510885035726482e-018 1.8200000000000003 -3.5 6.5411352008375761e-033 1 -3.7936442052307325e-049 0 3.7936442052307325e-049 1 forward_v I I I I #
coedge $-1 -1 $-1 $448 $461 $449 $605 forward $284 $-1 #
coedge $-1 -1 $-1 $450 $449 $716 $717 reversed $168 $-1 #
edge $-1 -1 $-1 $718 0 $606 0.17999999999999994 $603 $719 forward @7 unknown #
vertex $-1 -1 $-1 $605 $720 #
straight-curve $-1 -1 $-1 0 2 -1.5 -1 0 0 I I #
coedge $-1 -1 $-1 $716 $457 $453 $609 forward $601 $-1 #
edge $721 -1 $-1 $459 -2 $610 2 $453 $722 forward @7 unknown #
vertex $-1 -1 $-1 $609 $723 #
straight-curve $-1 -1 $-1 1.5 1.8200000000000001 -1.5 0 1 0 I I #
point $-1 -1 $-1 1.5 2 -1.5 #
coedge $-1 -1 $-1 $457 $716 $461 $617 forward $601 $-1 #
convexity-sys-attrib $-1 -1 $-1 $-1 $458 #
straight-curve $-1 -1 $-1 0 1.8200000000000003 -5.5 1 0 0 I I #
point $-1 -1 $-1 1.5 1.8200000000000001 -5.5 #
edge $724 -1 $-1 $718 -2 $462 2 $461 $725 forward @7 unknown #
point $-1 -1 $-1 -1.5 1.8200000000000001 -5.5 #
straight-curve $-1 -1 $-1 -1.5 2 -3.5 0 0 -1 I I #
model_id-kcp-attrib $-1 -1 $-1 $-1 $468 1 1021519692 1021519692 932249601 9 #
face $726 -1 $-1 $727 $728 $11 $-1 $729 reversed single #
loop $-1 -1 $-1 $-1 $730 $468 #
torus-surface $-1 -1 $-1 0 0 6.75 0 0 -1 1.25 0.25 -1 0 0 forward_v I I I I #
coedge $-1 -1 $-1 $731 $732 $733 $734 forward $469 $-1 #
coedge $-1 -1 $-1 $735 $735 $732 $736 forward $471 $-1 #
edge $737 -1 $-1 $627 0 $478 3.1415926535897931 $472 $738 forward @7 unknown #
vertex $-1 -1 $-1 $477 $739 #
ellipse-curve $-1 -1 $-1 -2.2499999999999991 2.7553642961003474e-016 6.7499999999999991 -1.2246063538223795e-016 -1 1.5657810447868098e-031 -8.8817841970012523e-016 1.4791141972893971e-031 0.25000000000000089 1 I I #
attrib_edge_convexity-kcp-attrib $-1 -1 $740 $-1 $477 3 #
ellipse-curve $-1 -1 $-1 2.2204460492503131e-016 1.1102230246251565e-016 7 0 0 1 2.25 -1.1102230246251565e-016 0 1 I I #
point $-1 -1 $-1 2.25 0 7 #
coedge $-1 -1 $-1 $483 $482 $741 $742 reversed $484 $-1 #
face $743 -1 $-1 $489 $484 $11 $-1 $744 forward single #
convexity-sys-attrib $-1 -1 $-1 $485 $315 #
coedge $-1 -1 $-1 $497 $741 $487 $636 forward $649 $-1 #
edge $745 -1 $-1 $638 0 $503 3 $635 $746 forward @7 unknown #
attrib_edge_convexity-kcp-attrib $-1 -1 $747 $-1 $488 1 #
vertex $-1 -1 $-1 $636 $748 #
straight-curve $-1 -1 $-1 -1.5 1.8200000000000001 0 0 0 -1 I I #
model_id-kcp-attrib $-1 -1 $-1 $-1 $489 1 1021519692 1021519692 932249601 14 #
plane-surface $-1 -1 $-1 -1.5 1.8200000000000001 0 0 1 0 1 0 0 forward_v I I I I #
coedge $-1 -1 $-1 $741 $497 $492 $643 forward $649 $-1 #
edge $749 -1 $-1 $500 0 $645 3 $642 $750 forward @7 unknown #
attrib_edge_convexity-kcp-attrib $-1 -1 $751 $-1 $493 1 #
vertex $-1 -1 $-1 $643 $752 #
straight-curve $-1 -1 $-1 -1.5 -1.78 0 0 0 -1 I I #
model_id-kcp-attrib $-1 -1 $-1 $-1 $494 1 1021519692 1021519692 932249601 16 #
plane-surface $-1 -1 $-1 1.5 -1.78 0 0 -1 0 -1 0 0 forward_v I I I I #
loop $-1 -1 $-1 $753 $741 $754 #
attrib_edge_convexity-kcp-attrib $-1 -1 $755 $-1 $498 1 #
straight-curve $-1 -1 $-1 1.5 1.8200000000000001 -4 0 -1 0 I I #
convexity-sys-attrib $-1 -1 $-1 $499 $329 #
point $-1 -1 $-1 1.5 -1.78 -4 #
convexity-sys-attrib $-1 -1 $-1 $502 $330 #
point $-1 -1 $-1 1.5 1.8200000000000001 -4 #
straight-curve $-1 -1 $-1 -2.5 2.5 0 0 0 -1 I I #
point $-1 -1 $-1 -2.5 -2.5 -5.5 #
straight-curve $-1 -1 $-1 -2.5 0 -5.5 0 1 0 I I #
point $-1 -1 $-1 -2.5 2.5 -5.5 #
face $-1 -1 $-1 $546 $756 $33 $-1 $689 forward single #
loop $-1 -1 $-1 $-1 $541 $523 #
plane-surface $-1 -1 $-1 2.5 0 0 -1 0 0 0 0 1 forward_v I I I I #
coedge $-1 -1 $-1 $527 $526 $757 $758 reversed $223 $-1 #
coedge $-1 -1 $-1 $759 $760 $761 $531 forward $762 $-1 #
coedge $-1 -1 $-1 $666 $528 $760 $678 forward $667 $-1 #
coedge $-1 -1 $-1 $528 $665 $684 $763 forward $667 $-1 #
loop $-1 -1 $-1 $-1 $528 $764 #
coedge $-1 -1 $-1 $765 $766 $530 $669 forward $767 $-1 #
edge $-1 -1 $-1 $388 0 $670 1.5707963267948966 $668 $378 forward @7 unknown #
vertex $-1 -1 $-1 $768 $769 #
straight-curve $-1 -1 $-1 9.372879511388359e-033 2.5 5.5 0 0 1 I I #
coedge $-1 -1 $-1 $770 $532 $766 $771 reversed $674 $-1 #
coedge $-1 -1 $-1 $532 $770 $533 $553 reversed $674 $-1 #
loop $-1 -1 $-1 $-1 $532 $568 #
coedge $-1 -1 $-1 $772 $761 $534 $676 reversed $773 $-1 #
edge $-1 -1 $-1 $694 -2.5 $536 9.372879511388359e-033 $675 $774 forward @7 unknown #
face $-1 -1 $-1 $552 $535 $33 $-1 $693 reversed single #
edge $-1 -1 $-1 $536 9.372879511388359e-033 $775 2.5 $760 $774 forward @7 unknown #
point $-1 -1 $-1 9.372879511388359e-033 2.5 -5.5 #
coedge $-1 -1 $-1 $566 $537 $540 $683 forward $681 $-1 #
loop $-1 -1 $-1 $-1 $537 $692 #
coedge $-1 -1 $-1 $540 $539 $565 $700 forward $542 $-1 #
edge $-1 -1 $-1 $543 0 $701 2.5 $540 $776 forward @7 unknown #
coedge $-1 -1 $-1 $777 $541 $666 $763 reversed $661 $-1 #
coedge $-1 -1 $-1 $541 $777 $778 $547 reversed $661 $-1 #
face $-1 -1 $-1 $-1 $542 $33 $-1 $662 reversed single #
point $-1 -1 $-1 2.5 0 -5.5 #
straight-curve $-1 -1 $-1 2.5 0 5.5 0 1 0 I I #
plane-surface $-1 -1 $-1 0 0 5.5 0 0 1 1 0 0 forward_v I I I I #
vertex $-1 -1 $-1 $547 $779 #
straight-curve $-1 -1 $-1 -2.5 0 -5.5 0 1 0 I I #
face $-1 -1 $-1 $395 $681 $33 $-1 $693 reversed single #
plane-surface $-1 -1 $-1 0 0 -5.5 0 0 1 1 0 0 forward_v I I I I #
vertex $-1 -1 $-1 $676 $780 #
straight-curve $-1 -1 $-1 -2.5 0 5.5 0 -1 0 I I #
face $-1 -1 $-1 $781 $767 $33 $-1 $689 forward single #
straight-curve $-1 -1 $-1 -2.5 -2.5 0 0 0 -1 I I #
point $-1 -1 $-1 -2.5 -2.5 5.5 #
point $-1 -1 $-1 -2.5 -2.5 -5.5 #
edge $-1 -1 $-1 $569 -5.5 $701 5.5 $682 $782 forward @7 unknown #
vertex $-1 -1 $-1 $700 $783 #
face $-1 -1 $-1 $686 $762 $33 $-1 $784 reversed single #
point $-1 -1 $-1 2.5 -2.5 5.5 #
convexity-sys-attrib $-1 -1 $-1 $-1 $570 #
straight-curve $-1 -1 $-1 1.5 0.010000000000000009 -5.5 0 -1 0 I I #
coedge $-1 -1 $-1 $594 $589 $585 $707 forward $582 $-1 #
edge $785 -1 $-1 $591 -1.5 $708 1.5 $585 $786 forward @7 unknown #
vertex $-1 -1 $-1 $598 $787 #
straight-curve $-1 -1 $-1 -1.5 -1.78 -5.5 0 -1 0 I I #
point $-1 -1 $-1 -1.5 -2 -5.5 #
convexity-sys-attrib $-1 -1 $-1 $-1 $590 #
straight-curve $-1 -1 $-1 1.5 -1.7799999999999994 -3.5 0 0 -1 I I #
point $-1 -1 $-1 1.5 -1.78 -5.5 #
convexity-sys-attrib $-1 -1 $-1 $-1 $598 #
straight-curve $-1 -1 $-1 -1.5 -1.7799999999999994 -3.5 0 0 1 I I #
coedge $-1 -1 $-1 $613 $608 $604 $717 forward $601 $-1 #
edge $788 -1 $-1 $610 -1.5 $718 1.5 $604 $789 forward @7 unknown #
vertex $-1 -1 $-1 $617 $790 #
straight-curve $-1 -1 $-1 -1.5 1.8200000000000001 -1.5 0 1 0 I I #
point $-1 -1 $-1 -1.5 2 -1.5 #
convexity-sys-attrib $-1 -1 $-1 $-1 $609 #
straight-curve $-1 -1 $-1 1.5 1.8200000000000003 -3.5 0 0 1 I I #
point $-1 -1 $-1 1.5 1.8200000000000001 -1.5 #
convexity-sys-attrib $-1 -1 $-1 $-1 $617 #
straight-curve $-1 -1 $-1 -1.5 1.8200000000000003 -3.5 0 0 -1 I I #
model_id-kcp-attrib $-1 -1 $-1 $-1 $621 1 1021519692 1021519692 932249601 10 #
face $791 -1 $-1 $754 $792 $11 $-1 $793 reversed single #
loop $-1 -1 $-1 $-1 $794 $621 #
cone-surface $-1 -1 $-1 0 0 7 0 0 -1 -1 0 0 1 I I 0 1 1 forward I I I I #
coedge $-1 -1 $-1 $795 $796 $797 $798 forward $622 $-1 #
coedge $-1 -1 $-1 $797 $624 $799 $800 forward $469 $-1 #
coedge $-1 -1 $-1 $624 $797 $625 $736 reversed $469 $-1 #
coedge $-1 -1 $-1 $796 $795 $624 $734 reversed $622 $-1 #
edge $-1 -1 $-1 $801 0 $802 1.5707963267948895 $733 $803 forward @7 unknown #
coedge $-1 -1 $-1 $625 $625 $796 $804 forward $471 $-1 #
edge $805 -1 $-1 $801 0 $806 3.1415926535897931 $625 $807 forward @7 unknown #
attrib_edge_convexity-kcp-attrib $-1 -1 $808 $-1 $626 3 #
ellipse-curve $-1 -1 $-1 0 -1.1102230246251565e-016 7 0 0 1 -2.25 3.8655873207255054e-016 0 1 I I #
point $-1 -1 $-1 -2.25 2.7553642961003488e-016 7 #
convexity-sys-attrib $-1 -1 $-1 $629 $477 #
coedge $-1 -1 $-1 $635 $642 $632 $742 forward $649 $-1 #
edge $809 -1 $-1 $645 0 $638 3.6000000000000001 $741 $810 forward @7 unknown #
model_id-kcp-attrib $-1 -1 $-1 $-1 $633 1 1021519692 1021519692 932249601 13 #
plane-surface $-1 -1 $-1 -1.5 -1.78 0 -1 0 0 0 1 0 forward_v I I I I #
attrib_edge_convexity-kcp-attrib $-1 -1 $811 $-1 $636 1 #
straight-curve $-1 -1 $-1 -1.5 1.8200000000000001 -4 1 0 0 I I #
convexity-sys-attrib $-1 -1 $-1 $637 $488 #
point $-1 -1 $-1 -1.5 1.8200000000000001 -4 #
attrib_edge_convexity-kcp-attrib $-1 -1 $812 $-1 $643 1 #
straight-curve $-1 -1 $-1 1.5 -1.78 -4 -1 0 0 I I #
convexity-sys-attrib $-1 -1 $-1 $644 $493 #
point $-1 -1 $-1 -1.5 -1.78 -4 #
loop $-1 -1 $-1 $-1 $813 $754 #
face $814 -1 $-1 $633 $649 $11 $-1 $815 forward single #
convexity-sys-attrib $-1 -1 $-1 $650 $498 #
loop $-1 -1 $-1 $-1 $757 $660 #
coedge $-1 -1 $-1 $778 $816 $663 $758 forward $756 $-1 #
edge $-1 -1 $-1 $670 1.5707963267948966 $377 3.1415926535897931 $757 $378 forward @7 unknown #
coedge $-1 -1 $-1 $817 $664 $816 $818 reversed $762 $-1 #
coedge $-1 -1 $-1 $664 $817 $665 $678 reversed $762 $-1 #
coedge $-1 -1 $-1 $675 $819 $367 $531 reversed $773 $-1 #
loop $-1 -1 $-1 $-1 $664 $702 #
edge $-1 -1 $-1 $775 -2.5 $543 0 $684 $776 forward @7 unknown #
face $-1 -1 $-1 $677 $667 $33 $-1 $693 reversed single #
coedge $-1 -1 $-1 $766 $668 $819 $768 forward $767 $-1 #
coedge $-1 -1 $-1 $668 $765 $672 $771 forward $767 $-1 #
loop $-1 -1 $-1 $-1 $668 $696 #
edge $-1 -1 $-1 $670 -9.372879511388359e-033 $820 2.5 $819 $821 forward @7 unknown #
point $-1 -1 $-1 9.372879511388359e-033 2.5 5.5 #
coedge $-1 -1 $-1 $673 $672 $772 $822 forward $674 $-1 #
edge $-1 -1 $-1 $820 -2.5 $388 0 $672 $695 forward @7 unknown #
coedge $-1 -1 $-1 $819 $675 $770 $822 reversed $773 $-1 #
loop $-1 -1 $-1 $-1 $761 $781 #
straight-curve $-1 -1 $-1 0 2.5 -5.5 1 0 0 I I #
vertex $-1 -1 $-1 $763 $823 #
straight-curve $-1 -1 $-1 2.5 0 -5.5 0 -1 0 I I #
coedge $-1 -1 $-1 $685 $684 $817 $824 reversed $661 $-1 #
coedge $-1 -1 $-1 $816 $757 $685 $547 forward $756 $-1 #
point $-1 -1 $-1 2.5 2.5 5.5 #
point $-1 -1 $-1 -2.5 2.5 -5.5 #
face $-1 -1 $-1 $764 $773 $33 $-1 $784 reversed single #
straight-curve $-1 -1 $-1 2.5 -2.5 0 0 0 -1 I I #
point $-1 -1 $-1 2.5 -2.5 -5.5 #
plane-surface $-1 -1 $-1 0 2.5 0 0 -1 0 0 0 -1 forward_v I I I I #
convexity-sys-attrib $-1 -1 $-1 $-1 $707 #
straight-curve $-1 -1 $-1 0 -1.7799999999999994 -5.5 -1 0 0 I I #
point $-1 -1 $-1 -1.5 -1.78 -5.5 #
convexity-sys-attrib $-1 -1 $-1 $-1 $717 #
straight-curve $-1 -1 $-1 0 1.8200000000000003 -1.5 -1 0 0 I I #
point $-1 -1 $-1 -1.5 1.8200000000000001 -1.5 #
model_id-kcp-attrib $-1 -1 $-1 $-1 $727 1 1021519692 1021519692 932249601 11 #
loop $-1 -1 $-1 $-1 $825 $727 #
cone-surface $-1 -1 $-1 0 0 7 0 0 -1 -1 0 0 1 I I 0 1 1 forward I I I I #
coedge $-1 -1 $-1 $826 $827 $828 $829 forward $728 $-1 #
coedge $-1 -1 $-1 $733 $730 $827 $830 forward $622 $-1 #
coedge $-1 -1 $-1 $730 $733 $735 $804 reversed $622 $-1 #
coedge $-1 -1 $-1 $732 $731 $730 $798 reversed $469 $-1 #
edge $-1 -1 $-1 $806 0 $831 1.5707963267948895 $730 $832 forward @7 unknown #
coedge $-1 -1 $-1 $825 $828 $731 $800 reversed $792 $-1 #
edge $-1 -1 $-1 $802 0 $831 3.1415926535897931 $799 $833 forward @7 unknown #
vertex $-1 -1 $-1 $804 $834 #
vertex $-1 -1 $-1 $830 $835 #
ellipse-curve $-1 -1 $-1 1.2500000000000009 1.5307579422779726e-016 6.7499999999999991 1.2246063538223773e-016 -1 4.0637121826570474e-032 -8.8817841970012523e-016 -9.8607613152626476e-032 0.25000000000000089 1 I I #
edge $836 -1 $-1 $806 0 $801 3.1415926535897931 $735 $837 forward @7 unknown #
attrib_edge_convexity-kcp-attrib $-1 -1 $838 $-1 $736 3 #
vertex $-1 -1 $-1 $804 $839 #
ellipse-curve $-1 -1 $-1 0 -5.5511151231257827e-017 7 0 0 -1 1.25 2.0858694545905498e-016 0 1 I I #
convexity-sys-attrib $-1 -1 $-1 $737 $626 #
attrib_edge_convexity-kcp-attrib $-1 -1 $840 $-1 $742 1 #
straight-curve $-1 -1 $-1 -1.5 -1.78 -4 0 1 0 I I #
convexity-sys-attrib $-1 -1 $-1 $745 $636 #
convexity-sys-attrib $-1 -1 $-1 $749 $643 #
coedge $-1 -1 $-1 $841 $841 $842 $843 reversed $753 $-1 #
model_id-kcp-attrib $-1 -1 $-1 $-1 $754 1 1021519692 1021519692 932249601 12 #
plane-surface $-1 -1 $-1 0 0 -4 0 0 -1 0 1 0 forward_v I I I I #
coedge $-1 -1 $-1 $757 $778 $759 $818 forward $756 $-1 #
coedge $-1 -1 $-1 $760 $759 $777 $824 forward $762 $-1 #
edge $-1 -1 $-1 $690 -2.5 $670 -9.372879511388359e-033 $759 $821 forward @7 unknown #
coedge $-1 -1 $-1 $761 $772 $765 $768 reversed $773 $-1 #
vertex $-1 -1 $-1 $768 $844 #
straight-curve $-1 -1 $-1 0 2.5 5.5 -1 0 0 I I #
edge $-1 -1 $-1 $820 -5.5 $694 5.5 $772 $845 forward @7 unknown #
point $-1 -1 $-1 2.5 2.5 -5.5 #
edge $-1 -1 $-1 $690 -5.5 $775 5.5 $777 $846 forward @7 unknown #
coedge $-1 -1 $-1 $842 $799 $847 $848 forward $792 $-1 #
coedge $-1 -1 $-1 $847 $794 $841 $849 forward $728 $-1 #
coedge $-1 -1 $-1 $794 $847 $795 $830 reversed $728 $-1 #
coedge $-1 -1 $-1 $799 $842 $794 $829 reversed $792 $-1 #
edge $-1 -1 $-1 $831 0 $850 10.75 $794 $851 forward @7 unknown #
edge $-1 -1 $-1 $831 0 $802 3.1415926535897931 $827 $852 forward @7 unknown #
vertex $-1 -1 $-1 $830 $853 #
ellipse-curve $-1 -1 $-1 -1.2500000000000009 -3.0615158845559451e-016 6.7499999999999991 -2.4492127076447545e-016 1 8.1274243653140948e-032 8.8817841970012523e-016 1.9721522630525295e-031 0.25000000000000089 1 I I #
ellipse-curve $-1 -1 $-1 0 0 6.75 0 0 -1 1 1.2246063538223773e-016 0 1 I I #
point $-1 -1 $-1 1.25 1.5307579422779716e-016 7 #
point $-1 -1 $-1 1 1.2246063538223773e-016 6.75 #
attrib_edge_convexity-kcp-attrib $-1 -1 $854 $-1 $804 3 #
ellipse-curve $-1 -1 $-1 -1.1102230246251565e-016 5.5511151231257827e-017 7 0 0 -1 -1.25 -5.5511151231257827e-017 0 1 I I #
convexity-sys-attrib $-1 -1 $-1 $805 $736 #
point $-1 -1 $-1 -1.25 0 7 #
convexity-sys-attrib $-1 -1 $-1 $809 $742 #
coedge $-1 -1 $-1 $813 $813 $826 $849 reversed $753 $-1 #
coedge $-1 -1 $-1 $828 $825 $813 $843 forward $792 $-1 #
edge $-1 -1 $-1 $855 0 $850 3.1415926535897931 $813 $856 forward @7 unknown #
point $-1 -1 $-1 -2.5 2.5 5.5 #
straight-curve $-1 -1 $-1 -2.5 2.5 0 0 0 -1 I I #
straight-curve $-1 -1 $-1 2.5 2.5 0 0 0 -1 I I #
coedge $-1 -1 $-1 $827 $826 $825 $848 reversed $728 $-1 #
edge $-1 -1 $-1 $802 0 $855 10.75 $847 $857 forward @7 unknown #
edge $-1 -1 $-1 $850 0 $855 3.1415926535897931 $841 $858 forward @7 unknown #
vertex $-1 -1 $-1 $849 $859 #
straight-curve $-1 -1 $-1 -1 0 6.75 0 0 -1 I I #
ellipse-curve $-1 -1 $-1 0 0 6.75 0 0 -1 -1 0 0 1 I I #
point $-1 -1 $-1 -1 0 6.75 #
convexity-sys-attrib $-1 -1 $-1 $836 $804 #
vertex $-1 -1 $-1 $849 $860 #
ellipse-curve $-1 -1 $-1 0 0 -4 0 0 -1 1 0 0 1 I I #
straight-curve $-1 -1 $-1 1 1.2246063538223773e-016 6.75 0 -4.1310624172098847e-017 -1 I I #
ellipse-curve $-1 -1 $-1 0 0 -4 0 0 -1 -1 0 0 1 I I #
point $-1 -1 $-1 -1 0 -4 #
point $-1 -1 $-1 1 0 -4 #
End-of-ACIS-data 