700 0 2 0           
24 FBMach with ACIS - 7.0.3 13 ACIS 7.0.3 NT 24 Wed May 15 23:50:14 2002 
1 9.9999999999999995e-007 1e-010 
body $2 -1 $-1 $3 $-1 $4 #
bdycol-kcp $-1 -1 1 6 $5 $6 $7 $8 $9 $10 #
model_id-kcp-attrib $-1 -1 $-1 $-1 $0 1 1021521012 1021521012 1353318401 1 #
lump $-1 -1 $-1 $-1 $11 $0 #
transform $-1 -1 1 0 0 0 1 0 0 0 1 0 0 0 1 rotate no_reflect no_shear #
body $12 -1 $-1 $13 $-1 $14 #
body $15 -1 $-1 $16 $-1 $17 #
body $18 -1 $-1 $19 $-1 $20 #
body $21 -1 $-1 $22 $-1 $23 #
body $24 -1 $-1 $25 $-1 $26 #
body $27 -1 $-1 $28 $-1 $29 #
shell $-1 -1 $-1 $-1 $-1 $30 $-1 $3 #
rgb_color-st-attrib $-1 -1 $31 $-1 $5 0.5 1 1 #
lump $-1 -1 $-1 $-1 $32 $5 #
transform $-1 -1 1 0 0 0 1 0 0 0 1 0 0 1.5 1 no_rotate no_reflect no_shear #
model_id-kcp-attrib $-1 -1 $-1 $-1 $6 1 1021521012 1021521012 1353973762 1 #
lump $-1 -1 $-1 $-1 $33 $6 #
transform $-1 -1 1 0 0 0 1 0 0 0 1 0 0 1.5 1 no_rotate no_reflect no_shear #
rgb_color-st-attrib $-1 -1 $34 $-1 $7 1 0.5 1 #
lump $-1 -1 $-1 $-1 $35 $7 #
transform $-1 -1 1 0 0 0 1 0 0 0 1 0 0 1.5 1 no_rotate no_reflect no_shear #
rgb_color-st-attrib $-1 -1 $36 $-1 $8 1 0.5 1 #
lump $-1 -1 $-1 $-1 $37 $8 #
transform $-1 -1 1 0 0 0 1 0 0 0 1 0 0 1.5 1 no_rotate no_reflect no_shear #
rgb_color-st-attrib $-1 -1 $38 $-1 $9 1 0.5 1 #
lump $-1 -1 $-1 $-1 $39 $9 #
transform $-1 -1 1 0 0 0 1 0 0 0 1 0 0 1.5 1 no_rotate no_reflect no_shear #
rgb_color-st-attrib $-1 -1 $40 $-1 $10 1 0.5 1 #
lump $-1 -1 $-1 $-1 $41 $10 #
transform $-1 -1 1 0 0 0 1 0 0 0 1 0 0 1.5 1 no_rotate no_reflect no_shear #
face $42 -1 $-1 $43 $44 $11 $-1 $45 reversed single #
model_id-kcp-attrib $-1 -1 $-1 $12 $5 1 1021521012 1021521012 1344405507 1 #
shell $-1 -1 $-1 $-1 $-1 $46 $-1 $13 #
shell $-1 -1 $-1 $-1 $-1 $47 $-1 $16 #
model_id-kcp-attrib $-1 -1 $-1 $18 $7 1 1021521012 1021521012 1356464132 1 #
shell $-1 -1 $-1 $-1 $-1 $48 $-1 $19 #
model_id-kcp-attrib $-1 -1 $-1 $21 $8 1 1021521012 1021521013 1345060871 1 #
shell $-1 -1 $-1 $-1 $-1 $49 $-1 $22 #
model_id-kcp-attrib $-1 -1 $-1 $24 $9 1 1021521012 1021521013 1350107141 1 #
shell $-1 -1 $-1 $-1 $-1 $50 $-1 $25 #
model_id-kcp-attrib $-1 -1 $-1 $27 $10 1 1021521012 1021521013 1356988422 1 #
shell $-1 -1 $-1 $-1 $-1 $51 $-1 $28 #
model_id-kcp-attrib $-1 -1 $-1 $-1 $30 1 1021521012 1021521012 1353318401 2 #
face $52 -1 $-1 $53 $54 $11 $-1 $55 forward single #
loop $-1 -1 $-1 $56 $57 $30 #
plane-surface $-1 -1 $-1 0 0 0 0 0 1 1 0 0 forward_v I I I I #
face $-1 -1 $-1 $58 $59 $32 $-1 $60 reversed single #
face $61 -1 $-1 $62 $63 $33 $-1 $64 forward single #
face $-1 -1 $-1 $65 $66 $35 $-1 $67 forward single #
face $-1 -1 $-1 $68 $69 $37 $-1 $70 forward single #
face $-1 -1 $-1 $71 $72 $39 $-1 $73 forward single #
face $-1 -1 $-1 $74 $75 $41 $-1 $76 forward single #
model_id-kcp-attrib $-1 -1 $-1 $-1 $43 1 1021521012 1021521012 1353318401 3 #
face $77 -1 $-1 $78 $79 $11 $-1 $80 forward single #
loop $-1 -1 $-1 $-1 $81 $43 #
cone-surface $-1 -1 $-1 0 0 0 0 0 1 2.5 0 0 1 I I 0 1 2.5 forward I I I I #
loop $-1 -1 $-1 $-1 $82 $30 #
coedge $-1 -1 $-1 $83 $83 $84 $85 reversed $44 $-1 #
face $-1 -1 $-1 $86 $87 $32 $-1 $60 reversed single #
loop $-1 -1 $-1 $-1 $88 $46 #
cone-surface $-1 -1 $-1 9.372879511388359e-033 0 5.5 0 0 1 -2.5 0 0 1 I I 0 1 2.5 forward I I I I #
model_id-kcp-attrib $-1 -1 $-1 $-1 $47 1 1021521012 1021521012 1353973762 2 #
face $89 -1 $-1 $90 $91 $33 $-1 $92 reversed single #
loop $-1 -1 $-1 $-1 $93 $47 #
plane-surface $-1 -1 $-1 0 0 5.5 0 0 1 1 0 0 forward_v I I I I #
face $-1 -1 $-1 $94 $95 $35 $-1 $96 forward single #
loop $-1 -1 $-1 $-1 $97 $48 #
cone-surface $-1 -1 $-1 9.372879511388359e-033 0 5.5 0 0 1 -2.5 0 0 1 I I 0 1 2.5 forward I I I I #
face $-1 -1 $-1 $98 $99 $37 $-1 $100 forward single #
loop $-1 -1 $-1 $-1 $101 $49 #
plane-surface $-1 -1 $-1 -1.5 -1.78 -1.5 0 0 1 1 0 0 forward_v I I I I #
face $-1 -1 $-1 $102 $103 $39 $-1 $104 forward single #
loop $-1 -1 $-1 $-1 $105 $50 #
cone-surface $-1 -1 $-1 9.372879511388359e-033 0 5.5 0 0 1 -2.5 0 0 1 I I 0 1 2.5 forward I I I I #
face $-1 -1 $-1 $106 $107 $41 $-1 $108 forward single #
loop $-1 -1 $-1 $-1 $109 $51 #
plane-surface $-1 -1 $-1 -1.5 1.8200000000000001 -5.5 0 0 -1 -1 0 0 forward_v I I I I #
model_id-kcp-attrib $-1 -1 $-1 $-1 $53 1 1021521012 1021521012 1353318401 4 #
face $110 -1 $-1 $111 $112 $11 $-1 $113 forward single #
loop $-1 -1 $-1 $-1 $114 $53 #
cone-surface $-1 -1 $-1 0 0 0 0 0 1 2.5 0 0 1 I I 0 1 2.5 forward I I I I #
coedge $-1 -1 $-1 $115 $84 $116 $117 forward $54 $-1 #
coedge $-1 -1 $-1 $118 $119 $120 $121 reversed $56 $-1 #
coedge $-1 -1 $-1 $57 $57 $122 $123 reversed $44 $-1 #
coedge $-1 -1 $-1 $81 $124 $57 $85 forward $54 $-1 #
edge $125 -1 $-1 $126 0 $127 3.1415926535897931 $57 $128 forward @7 unknown #
face $-1 -1 $-1 $129 $130 $32 $-1 $60 reversed single #
loop $-1 -1 $-1 $-1 $131 $58 #
coedge $-1 -1 $-1 $132 $133 $134 $135 reversed $59 $-1 #
model_id-kcp-attrib $-1 -1 $-1 $-1 $62 1 1021521012 1021521012 1353973762 3 #
face $-1 -1 $-1 $136 $137 $33 $-1 $138 reversed single #
loop $-1 -1 $-1 $-1 $139 $62 #
plane-surface $-1 -1 $-1 0 0 -5.5 0 0 1 1 0 0 forward_v I I I I #
coedge $-1 -1 $-1 $140 $141 $142 $143 forward $63 $-1 #
face $-1 -1 $-1 $144 $145 $35 $-1 $146 forward single #
loop $-1 -1 $-1 $-1 $147 $65 #
plane-surface $-1 -1 $-1 -1.5 -2 -5.5 0 0 -1 -1 0 0 forward_v I I I I #
coedge $-1 -1 $-1 $148 $149 $150 $151 forward $66 $-1 #
face $-1 -1 $-1 $152 $153 $37 $-1 $154 forward single #
loop $-1 -1 $-1 $-1 $155 $68 #
plane-surface $-1 -1 $-1 1.5 -1.78 -1.5 1 0 0 0 0 -1 forward_v I I I I #
coedge $-1 -1 $-1 $156 $157 $158 $159 forward $69 $-1 #
face $-1 -1 $-1 $160 $161 $39 $-1 $162 forward single #
loop $-1 -1 $-1 $-1 $163 $71 #
plane-surface $-1 -1 $-1 1.5 -2 -1.5 0 0 1 1 0 0 forward_v I I I I #
coedge $-1 -1 $-1 $164 $165 $163 $166 forward $72 $-1 #
face $-1 -1 $-1 $167 $168 $41 $-1 $169 forward single #
loop $-1 -1 $-1 $-1 $170 $74 #
plane-surface $-1 -1 $-1 1.5 1.8200000000000001 -5.5 1 0 0 0 0 -1 forward_v I I I I #
coedge $-1 -1 $-1 $171 $172 $173 $174 forward $75 $-1 #
model_id-kcp-attrib $-1 -1 $-1 $-1 $78 1 1021521012 1021521012 1353318401 5 #
face $175 -1 $-1 $176 $177 $11 $-1 $178 forward single #
loop $-1 -1 $-1 $-1 $179 $78 #
torus-surface $-1 -1 $-1 0 0 6.75 0 0 1 2.25 0.25 1 0 0 forward_v I I I I #
coedge $-1 -1 $-1 $180 $122 $124 $181 forward $79 $-1 #
coedge $-1 -1 $-1 $124 $81 $182 $183 reversed $54 $-1 #
coedge $-1 -1 $-1 $122 $180 $81 $117 reversed $79 $-1 #
edge $-1 -1 $-1 $127 0 $184 6.75 $116 $185 forward @7 unknown #
coedge $-1 -1 $-1 $186 $82 $187 $188 reversed $56 $-1 #
coedge $-1 -1 $-1 $82 $186 $189 $190 reversed $56 $-1 #
coedge $-1 -1 $-1 $191 $192 $82 $121 forward $193 $-1 #
edge $194 -1 $-1 $195 0 $196 3.6000000000000001 $82 $197 forward @7 unknown #
coedge $-1 -1 $-1 $114 $116 $83 $123 forward $79 $-1 #
edge $198 -1 $-1 $127 0 $126 3.1415926535897931 $83 $199 forward @7 unknown #
coedge $-1 -1 $-1 $84 $115 $114 $181 reversed $54 $-1 #
attrib_edge_convexity-kcp-attrib $-1 -1 $200 $-1 $85 1 #
vertex $-1 -1 $-1 $123 $201 #
vertex $-1 -1 $-1 $123 $202 #
ellipse-curve $-1 -1 $-1 0 0 0 0 0 1 -2.5 0 0 1 I I #
face $-1 -1 $-1 $203 $204 $32 $-1 $60 reversed single #
loop $-1 -1 $-1 $-1 $205 $86 #
coedge $-1 -1 $-1 $206 $207 $208 $209 reversed $87 $-1 #
coedge $-1 -1 $-1 $210 $88 $211 $212 reversed $59 $-1 #
coedge $-1 -1 $-1 $88 $210 $213 $214 reversed $59 $-1 #
coedge $-1 -1 $-1 $215 $216 $217 $135 forward $218 $-1 #
edge $-1 -1 $-1 $219 -11 $220 0 $134 $221 forward @7 unknown #
face $-1 -1 $-1 $222 $223 $33 $-1 $224 reversed single #
loop $-1 -1 $-1 $-1 $225 $90 #
plane-surface $-1 -1 $-1 0 -2.5 0 0 1 0 0 0 1 forward_v I I I I #
coedge $-1 -1 $-1 $226 $227 $228 $229 forward $91 $-1 #
coedge $-1 -1 $-1 $230 $93 $231 $232 forward $63 $-1 #
coedge $-1 -1 $-1 $93 $230 $233 $234 forward $63 $-1 #
coedge $-1 -1 $-1 $235 $236 $93 $143 reversed $237 $-1 #
edge $-1 -1 $-1 $238 -2.5 $239 2.5 $142 $240 forward @7 unknown #
face $-1 -1 $-1 $-1 $241 $35 $-1 $242 forward single #
loop $-1 -1 $-1 $-1 $150 $94 #
plane-surface $-1 -1 $-1 -1.5 2 -1.5 0 0 1 1 0 0 forward_v I I I I #
coedge $-1 -1 $-1 $243 $243 $244 $245 reversed $95 $-1 #
coedge $-1 -1 $-1 $244 $97 $246 $247 reversed $66 $-1 #
coedge $-1 -1 $-1 $97 $244 $248 $249 reversed $66 $-1 #
coedge $-1 -1 $-1 $250 $250 $97 $151 reversed $145 $-1 #
edge $-1 -1 $-1 $251 -0.92729521800161219 $252 0.92729521800161219 $150 $253 forward @7 unknown #
face $-1 -1 $-1 $254 $255 $37 $-1 $256 forward single #
loop $-1 -1 $-1 $-1 $257 $98 #
plane-surface $-1 -1 $-1 1.5 -1.78 -5.5 0 0 -1 -1 0 0 forward_v I I I I #
coedge $-1 -1 $-1 $258 $259 $260 $261 forward $99 $-1 #
coedge $-1 -1 $-1 $262 $101 $259 $263 reversed $69 $-1 #
coedge $-1 -1 $-1 $101 $262 $264 $265 forward $69 $-1 #
coedge $-1 -1 $-1 $266 $260 $101 $159 reversed $267 $-1 #
edge $-1 -1 $-1 $268 -1.5 $269 1.5 $101 $270 forward @7 unknown #
face $-1 -1 $-1 $-1 $271 $39 $-1 $272 reversed single #
loop $-1 -1 $-1 $-1 $273 $102 #
plane-surface $-1 -1 $-1 1.5 2 -5.5 0 0 -1 -1 0 0 forward_v I I I I #
coedge $-1 -1 $-1 $274 $274 $105 $166 reversed $103 $-1 #
coedge $-1 -1 $-1 $275 $105 $276 $277 reversed $72 $-1 #
coedge $-1 -1 $-1 $105 $275 $278 $279 reversed $72 $-1 #
edge $-1 -1 $-1 $280 2.2142974355881808 $281 4.0688878715914054 $163 $282 forward @7 unknown #
face $-1 -1 $-1 $283 $284 $41 $-1 $285 forward single #
loop $-1 -1 $-1 $-1 $286 $106 #
plane-surface $-1 -1 $-1 1.5 1.8200000000000001 -1.5 0 0 1 1 0 0 forward_v I I I I #
coedge $-1 -1 $-1 $287 $288 $289 $290 forward $107 $-1 #
coedge $-1 -1 $-1 $291 $109 $288 $292 reversed $75 $-1 #
coedge $-1 -1 $-1 $109 $291 $293 $294 forward $75 $-1 #
coedge $-1 -1 $-1 $295 $289 $109 $174 reversed $296 $-1 #
edge $-1 -1 $-1 $297 -1.5 $298 1.5 $109 $299 forward @7 unknown #
model_id-kcp-attrib $-1 -1 $-1 $-1 $111 1 1021521012 1021521012 1353318401 6 #
face $300 -1 $-1 $301 $302 $11 $-1 $303 forward single #
loop $-1 -1 $-1 $-1 $304 $111 #
torus-surface $-1 -1 $-1 0 0 6.75 0 0 1 2.25 0.25 1 0 0 forward_v I I I I #
coedge $-1 -1 $-1 $305 $306 $307 $308 forward $112 $-1 #
coedge $-1 -1 $-1 $116 $114 $305 $309 reversed $79 $-1 #
edge $-1 -1 $-1 $126 0 $310 6.75 $114 $311 forward @7 unknown #
coedge $-1 -1 $-1 $307 $304 $115 $183 forward $177 $-1 #
edge $-1 -1 $-1 $310 0 $184 3.1415926535897931 $115 $312 forward @7 unknown #
vertex $-1 -1 $-1 $117 $313 #
straight-curve $-1 -1 $-1 2.5 0 0 0 0 1 I I #
coedge $-1 -1 $-1 $119 $118 $314 $315 reversed $56 $-1 #
coedge $-1 -1 $-1 $316 $317 $118 $188 forward $318 $-1 #
edge $319 -1 $-1 $320 0 $195 3 $118 $321 forward @7 unknown #
coedge $-1 -1 $-1 $322 $323 $119 $190 forward $324 $-1 #
edge $325 -1 $-1 $196 0 $326 3 $119 $327 forward @7 unknown #
coedge $-1 -1 $-1 $328 $120 $323 $329 forward $193 $-1 #
coedge $-1 -1 $-1 $120 $328 $316 $330 reversed $193 $-1 #
loop $-1 -1 $-1 $-1 $191 $331 #
attrib_edge_convexity-kcp-attrib $-1 -1 $332 $-1 $121 2 #
vertex $-1 -1 $-1 $188 $333 #
vertex $-1 -1 $-1 $190 $334 #
straight-curve $-1 -1 $-1 1.5 1.8200000000000001 0 0 -1 0 I I #
attrib_edge_convexity-kcp-attrib $-1 -1 $335 $-1 $123 1 #
ellipse-curve $-1 -1 $-1 0 0 0 0 0 1 2.5 0 0 1 I I #
convexity-sys-attrib $-1 -1 $-1 $125 $85 #
point $-1 -1 $-1 -2.5 0 0 #
point $-1 -1 $-1 2.5 0 0 #
face $-1 -1 $-1 $336 $337 $32 $-1 $338 reversed single #
loop $-1 -1 $-1 $-1 $339 $129 #
coedge $-1 -1 $-1 $340 $341 $342 $343 reversed $130 $-1 #
coedge $-1 -1 $-1 $344 $131 $345 $346 reversed $87 $-1 #
coedge $-1 -1 $-1 $131 $344 $88 $135 forward $87 $-1 #
coedge $-1 -1 $-1 $347 $348 $131 $209 forward $349 $-1 #
edge $-1 -1 $-1 $350 -3.1415926535897931 $220 -1.5707963267948966 $208 $351 forward @7 unknown #
coedge $-1 -1 $-1 $133 $132 $341 $352 forward $59 $-1 #
coedge $-1 -1 $-1 $353 $354 $132 $212 forward $355 $-1 #
edge $-1 -1 $-1 $356 0 $219 1.5707963267948966 $211 $357 forward @7 unknown #
coedge $-1 -1 $-1 $358 $359 $133 $214 forward $360 $-1 #
edge $-1 -1 $-1 $220 -1.5707963267948966 $361 0 $213 $351 forward @7 unknown #
coedge $-1 -1 $-1 $362 $134 $359 $363 reversed $218 $-1 #
coedge $-1 -1 $-1 $134 $362 $353 $364 reversed $218 $-1 #
coedge $-1 -1 $-1 $365 $366 $207 $135 reversed $367 $-1 #
loop $-1 -1 $-1 $-1 $134 $368 #
vertex $-1 -1 $-1 $364 $369 #
vertex $-1 -1 $-1 $370 $371 #
straight-curve $-1 -1 $-1 9.372879511388359e-033 -2.5 5.5 0 0 1 I I #
face $-1 -1 $-1 $372 $373 $33 $-1 $374 reversed single #
loop $-1 -1 $-1 $-1 $375 $136 #
plane-surface $-1 -1 $-1 -2.5 0 0 1 0 0 0 0 -1 forward_v I I I I #
coedge $-1 -1 $-1 $376 $233 $377 $378 forward $137 $-1 #
coedge $-1 -1 $-1 $379 $139 $376 $380 forward $91 $-1 #
coedge $-1 -1 $-1 $139 $379 $381 $382 forward $91 $-1 #
coedge $-1 -1 $-1 $236 $235 $139 $229 reversed $237 $-1 #
edge $-1 -1 $-1 $383 -2.5 $384 2.5 $228 $385 forward @7 unknown #
coedge $-1 -1 $-1 $141 $140 $386 $387 forward $63 $-1 #
coedge $-1 -1 $-1 $388 $389 $140 $232 reversed $373 $-1 #
edge $-1 -1 $-1 $239 -2.5 $390 2.5 $231 $391 forward @7 unknown #
coedge $-1 -1 $-1 $225 $392 $141 $234 reversed $137 $-1 #
edge $-1 -1 $-1 $393 -2.5 $238 2.5 $233 $394 forward @7 unknown #
coedge $-1 -1 $-1 $228 $142 $392 $395 forward $237 $-1 #
coedge $-1 -1 $-1 $142 $228 $388 $396 reversed $237 $-1 #
loop $-1 -1 $-1 $-1 $235 $372 #
vertex $-1 -1 $-1 $143 $397 #
vertex $-1 -1 $-1 $143 $398 #
straight-curve $-1 -1 $-1 2.5 0 5.5 0 1 0 I I #
loop $-1 -1 $-1 $-1 $399 $144 #
plane-surface $-1 -1 $-1 -1.5 1.1102230246251565e-016 -3.5 1 0 0 0 0 -1 forward_v I I I I #
coedge $-1 -1 $-1 $147 $147 $400 $401 reversed $95 $-1 #
coedge $-1 -1 $-1 $149 $148 $147 $245 forward $66 $-1 #
edge $-1 -1 $-1 $402 -0.92729521800161219 $403 0.92729521800161219 $147 $404 forward @7 unknown #
coedge $-1 -1 $-1 $399 $400 $148 $247 forward $241 $-1 #
edge $405 -1 $-1 $402 -11 $252 -7 $246 $406 forward @7 unknown #
coedge $-1 -1 $-1 $400 $399 $149 $249 forward $241 $-1 #
edge $407 -1 $-1 $251 7 $403 11 $248 $408 forward @7 unknown #
coedge $-1 -1 $-1 $150 $150 $399 $409 reversed $145 $-1 #
vertex $-1 -1 $-1 $409 $410 #
vertex $-1 -1 $-1 $409 $411 #
ellipse-curve $-1 -1 $-1 9.372879511388359e-033 0 -1.5 0 0 -1 -2.5 0 0 1 I I #
face $-1 -1 $-1 $412 $267 $37 $-1 $413 reversed single #
loop $-1 -1 $-1 $-1 $414 $152 #
plane-surface $-1 -1 $-1 -1.5 -1.78 -5.5 -1 0 0 0 0 1 forward_v I I I I #
coedge $-1 -1 $-1 $415 $416 $417 $418 forward $153 $-1 #
coedge $-1 -1 $-1 $419 $155 $416 $420 reversed $99 $-1 #
coedge $-1 -1 $-1 $155 $419 $156 $263 forward $99 $-1 #
coedge $-1 -1 $-1 $158 $417 $155 $261 reversed $267 $-1 #
edge $-1 -1 $-1 $269 -2 $421 2 $155 $422 forward @7 unknown #
coedge $-1 -1 $-1 $157 $156 $423 $424 reversed $69 $-1 #
edge $-1 -1 $-1 $425 0 $269 0.21999999999999997 $259 $426 forward @7 unknown #
coedge $-1 -1 $-1 $427 $414 $157 $265 reversed $255 $-1 #
edge $-1 -1 $-1 $428 0 $268 0.21999999999999997 $157 $429 forward @7 unknown #
coedge $-1 -1 $-1 $417 $158 $414 $430 reversed $267 $-1 #
loop $-1 -1 $-1 $-1 $158 $254 #
vertex $-1 -1 $-1 $265 $431 #
vertex $-1 -1 $-1 $263 $432 #
straight-curve $-1 -1 $-1 0 -1.9999999999999993 -1.5 1 0 0 I I #
loop $-1 -1 $-1 $-1 $433 $160 #
plane-surface $-1 -1 $-1 1.5 5.5511151231257827e-017 -3.5 1 0 0 0 0 -1 forward_v I I I I #
coedge $-1 -1 $-1 $434 $434 $275 $435 reversed $161 $-1 #
coedge $-1 -1 $-1 $163 $163 $433 $436 reversed $103 $-1 #
coedge $-1 -1 $-1 $165 $164 $273 $435 forward $72 $-1 #
coedge $-1 -1 $-1 $433 $437 $164 $277 forward $271 $-1 #
edge $438 -1 $-1 $439 -11 $281 -7 $276 $440 forward @7 unknown #
coedge $-1 -1 $-1 $437 $433 $165 $279 forward $271 $-1 #
edge $441 -1 $-1 $280 7 $442 11 $278 $443 forward @7 unknown #
vertex $-1 -1 $-1 $436 $444 #
vertex $-1 -1 $-1 $436 $445 #
ellipse-curve $-1 -1 $-1 9.372879511388359e-033 0 -1.5 0 0 -1 -2.5 0 0 1 I I #
face $-1 -1 $-1 $446 $296 $41 $-1 $447 forward single #
loop $-1 -1 $-1 $-1 $448 $167 #
plane-surface $-1 -1 $-1 -1.5 1.8200000000000001 -1.5 -1 0 0 0 0 1 forward_v I I I I #
coedge $-1 -1 $-1 $449 $450 $451 $452 forward $168 $-1 #
coedge $-1 -1 $-1 $453 $170 $450 $454 reversed $107 $-1 #
coedge $-1 -1 $-1 $170 $453 $171 $292 forward $107 $-1 #
coedge $-1 -1 $-1 $173 $451 $170 $290 reversed $296 $-1 #
edge $-1 -1 $-1 $298 -2 $455 2 $170 $456 forward @7 unknown #
coedge $-1 -1 $-1 $172 $171 $457 $458 reversed $75 $-1 #
edge $-1 -1 $-1 $459 0 $298 0.17999999999999994 $288 $460 forward @7 unknown #
coedge $-1 -1 $-1 $461 $448 $172 $294 reversed $284 $-1 #
edge $-1 -1 $-1 $462 0 $297 0.17999999999999994 $172 $463 forward @7 unknown #
coedge $-1 -1 $-1 $451 $173 $448 $464 reversed $296 $-1 #
loop $-1 -1 $-1 $-1 $173 $283 #
vertex $-1 -1 $-1 $294 $465 #
vertex $-1 -1 $-1 $292 $466 #
straight-curve $-1 -1 $-1 0 2 -5.5 1 0 0 I I #
model_id-kcp-attrib $-1 -1 $-1 $-1 $176 1 1021521012 1021521012 1353318401 7 #
face $467 -1 $-1 $468 $469 $11 $-1 $470 forward single #
loop $-1 -1 $-1 $471 $472 $176 #
plane-surface $-1 -1 $-1 0 0 7 0 0 1 1 0 0 forward_v I I I I #
coedge $-1 -1 $-1 $182 $473 $474 $475 forward $177 $-1 #
coedge $-1 -1 $-1 $474 $179 $180 $309 forward $112 $-1 #
coedge $-1 -1 $-1 $179 $474 $476 $477 reversed $112 $-1 #
coedge $-1 -1 $-1 $473 $182 $179 $308 reversed $177 $-1 #
edge $-1 -1 $-1 $478 -7.888609052210062e-031 $184 1.5707963267948895 $179 $479 forward @7 unknown #
edge $-1 -1 $-1 $184 0 $310 3.1415926535897931 $180 $480 forward @7 unknown #
vertex $-1 -1 $-1 $309 $481 #
straight-curve $-1 -1 $-1 -2.5 3.0615158845559431e-016 0 0 0 1 I I #
ellipse-curve $-1 -1 $-1 0 0 6.7499999999999991 0 0 1 -2.5 3.0615158845559431e-016 0 1 I I #
point $-1 -1 $-1 2.5 0 6.75 #
coedge $-1 -1 $-1 $482 $483 $186 $315 forward $484 $-1 #
edge $485 -1 $-1 $326 0 $320 3.6000000000000001 $186 $486 forward @7 unknown #
coedge $-1 -1 $-1 $487 $187 $192 $330 forward $318 $-1 #
coedge $-1 -1 $-1 $187 $487 $482 $488 reversed $318 $-1 #
loop $-1 -1 $-1 $-1 $316 $489 #
attrib_edge_convexity-kcp-attrib $-1 -1 $490 $-1 $188 2 #
vertex $-1 -1 $-1 $315 $491 #
straight-curve $-1 -1 $-1 -1.5 1.8200000000000001 0 1 0 0 I I #
coedge $-1 -1 $-1 $492 $189 $483 $493 forward $324 $-1 #
coedge $-1 -1 $-1 $189 $492 $191 $329 reversed $324 $-1 #
loop $-1 -1 $-1 $-1 $322 $494 #
attrib_edge_convexity-kcp-attrib $-1 -1 $495 $-1 $190 2 #
vertex $-1 -1 $-1 $190 $496 #
straight-curve $-1 -1 $-1 1.5 -1.78 0 -1 0 0 I I #
coedge $-1 -1 $-1 $192 $191 $497 $498 reversed $193 $-1 #
edge $499 -1 $-1 $196 0 $500 4 $323 $501 forward @7 unknown #
edge $502 -1 $-1 $195 0 $503 4 $316 $504 forward @7 unknown #
face $505 -1 $-1 $494 $193 $11 $-1 $506 forward single #
convexity-sys-attrib $-1 -1 $-1 $194 $121 #
point $-1 -1 $-1 1.5 1.8200000000000001 0 #
point $-1 -1 $-1 1.5 -1.78 0 #
convexity-sys-attrib $-1 -1 $-1 $198 $123 #
face $-1 -1 $-1 $507 $367 $32 $-1 $508 reversed single #
loop $-1 -1 $-1 $-1 $509 $203 #
plane-surface $-1 -1 $-1 -2.5 0 0 1 0 0 0 0 -1 forward_v I I I I #
coedge $-1 -1 $-1 $510 $511 $512 $513 reversed $204 $-1 #
coedge $-1 -1 $-1 $514 $205 $511 $515 forward $130 $-1 #
coedge $-1 -1 $-1 $205 $514 $516 $352 reversed $130 $-1 #
coedge $-1 -1 $-1 $517 $518 $205 $343 forward $519 $-1 #
edge $-1 -1 $-1 $520 -1.5707963267948966 $356 0 $342 $357 forward @7 unknown #
coedge $-1 -1 $-1 $207 $206 $521 $522 reversed $87 $-1 #
coedge $-1 -1 $-1 $523 $524 $525 $346 forward $526 $-1 #
edge $-1 -1 $-1 $527 -11 $350 0 $345 $528 forward @7 unknown #
coedge $-1 -1 $-1 $348 $208 $366 $370 forward $349 $-1 #
coedge $-1 -1 $-1 $208 $347 $523 $529 forward $349 $-1 #
loop $-1 -1 $-1 $-1 $208 $530 #
vertex $-1 -1 $-1 $531 $532 #
ellipse-curve $-1 -1 $-1 9.372879511388359e-033 0 5.5 0 0 -1 -2.5 0 0 1 I I #
edge $-1 -1 $-1 $356 -11 $361 0 $516 $533 forward @7 unknown #
coedge $-1 -1 $-1 $354 $211 $216 $364 forward $355 $-1 #
coedge $-1 -1 $-1 $211 $353 $534 $535 forward $355 $-1 #
loop $-1 -1 $-1 $-1 $211 $536 #
vertex $-1 -1 $-1 $537 $538 #
ellipse-curve $-1 -1 $-1 9.372879511388359e-033 0 -5.5 0 0 1 -2.5 0 0 1 I I #
coedge $-1 -1 $-1 $359 $213 $539 $540 forward $360 $-1 #
coedge $-1 -1 $-1 $213 $358 $215 $363 forward $360 $-1 #
loop $-1 -1 $-1 $-1 $213 $541 #
vertex $-1 -1 $-1 $540 $542 #
coedge $-1 -1 $-1 $216 $215 $543 $544 forward $218 $-1 #
edge $-1 -1 $-1 $545 -2.5 $220 9.372879511388359e-033 $215 $546 forward @7 unknown #
edge $-1 -1 $-1 $219 -9.372879511388359e-033 $547 2.5 $216 $548 forward @7 unknown #
coedge $-1 -1 $-1 $549 $217 $550 $551 reversed $367 $-1 #
coedge $-1 -1 $-1 $217 $549 $347 $370 reversed $367 $-1 #
loop $-1 -1 $-1 $-1 $217 $336 #
face $-1 -1 $-1 $552 $218 $32 $-1 $508 reversed single #
point $-1 -1 $-1 9.372879511388359e-033 -2.5 -5.5 #
edge $-1 -1 $-1 $220 9.372879511388359e-033 $553 2.5 $366 $546 forward @7 unknown #
point $-1 -1 $-1 9.372879511388359e-033 -2.5 5.5 #
face $-1 -1 $-1 $-1 $237 $33 $-1 $554 reversed single #
loop $-1 -1 $-1 $-1 $388 $222 #
plane-surface $-1 -1 $-1 0 2.5 0 0 -1 0 0 0 -1 forward_v I I I I #
coedge $-1 -1 $-1 $555 $386 $389 $556 forward $223 $-1 #
coedge $-1 -1 $-1 $392 $225 $226 $380 reversed $137 $-1 #
coedge $-1 -1 $-1 $386 $555 $225 $378 reversed $223 $-1 #
edge $-1 -1 $-1 $393 -5.5 $557 5.5 $377 $558 forward @7 unknown #
coedge $-1 -1 $-1 $227 $226 $555 $559 forward $91 $-1 #
edge $-1 -1 $-1 $384 -2.5 $557 2.5 $376 $560 forward @7 unknown #
coedge $-1 -1 $-1 $389 $388 $227 $382 reversed $373 $-1 #
edge $-1 -1 $-1 $561 -2.5 $383 2.5 $381 $562 forward @7 unknown #
vertex $-1 -1 $-1 $229 $563 #
vertex $-1 -1 $-1 $395 $564 #
straight-curve $-1 -1 $-1 2.5 0 -5.5 0 -1 0 I I #
coedge $-1 -1 $-1 $375 $377 $230 $387 reversed $223 $-1 #
edge $-1 -1 $-1 $390 -2.5 $393 2.5 $386 $565 forward @7 unknown #
coedge $-1 -1 $-1 $381 $231 $236 $396 forward $373 $-1 #
coedge $-1 -1 $-1 $231 $381 $375 $556 reversed $373 $-1 #
vertex $-1 -1 $-1 $232 $566 #
straight-curve $-1 -1 $-1 0 2.5 5.5 -1 0 0 I I #
coedge $-1 -1 $-1 $233 $376 $235 $395 reversed $137 $-1 #
vertex $-1 -1 $-1 $387 $567 #
straight-curve $-1 -1 $-1 0 -2.5 5.5 1 0 0 I I #
edge $-1 -1 $-1 $238 -5.5 $384 5.5 $235 $568 forward @7 unknown #
edge $-1 -1 $-1 $239 -5.5 $383 5.5 $236 $569 forward @7 unknown #
point $-1 -1 $-1 2.5 -2.5 5.5 #
point $-1 -1 $-1 2.5 2.5 5.5 #
coedge $-1 -1 $-1 $248 $246 $250 $409 forward $241 $-1 #
coedge $-1 -1 $-1 $246 $248 $243 $401 forward $241 $-1 #
edge $570 -1 $-1 $403 -2.0099999999999998 $402 1.99 $243 $571 forward @7 unknown #
vertex $-1 -1 $-1 $401 $572 #
vertex $-1 -1 $-1 $249 $573 #
ellipse-curve $-1 -1 $-1 9.372879511388359e-033 0 -5.5 0 0 1 -2.5 0 0 1 I I #
convexity-sys-attrib $-1 -1 $-1 $-1 $247 #
straight-curve $-1 -1 $-1 -1.5 2 5.5 0 0 1 I I #
convexity-sys-attrib $-1 -1 $-1 $-1 $249 #
straight-curve $-1 -1 $-1 -1.5 -2 5.5 0 0 -1 I I #
edge $574 -1 $-1 $252 -1.99 $251 2.0099999999999998 $250 $575 forward @7 unknown #
point $-1 -1 $-1 -1.5 -2 -1.5 #
point $-1 -1 $-1 -1.5 2 -1.5 #
face $-1 -1 $-1 $-1 $576 $37 $-1 $577 forward single #
plane-surface $-1 -1 $-1 -8.6510885035726482e-018 -1.9999999999999993 -3.5 1.3082270401675158e-032 1 2.94351084037691e-032 0 -2.94351084037691e-032 1 forward_v I I I I #
coedge $-1 -1 $-1 $264 $578 $266 $430 forward $255 $-1 #
coedge $-1 -1 $-1 $579 $257 $578 $580 reversed $153 $-1 #
coedge $-1 -1 $-1 $257 $579 $258 $420 forward $153 $-1 #
coedge $-1 -1 $-1 $260 $266 $257 $418 reversed $267 $-1 #
edge $-1 -1 $-1 $421 -1.5 $581 1.5 $257 $582 forward @7 unknown #
coedge $-1 -1 $-1 $259 $258 $583 $584 reversed $99 $-1 #
edge $-1 -1 $-1 $585 0 $421 0.21999999999999997 $416 $586 forward @7 unknown #
vertex $-1 -1 $-1 $420 $587 #
straight-curve $-1 -1 $-1 1.5 -1.9999999999999993 -3.5 0 0 -1 I I #
coedge $-1 -1 $-1 $583 $588 $262 $424 forward $576 $-1 #
edge $589 -1 $-1 $428 -1.5 $425 1.5 $262 $590 forward @7 unknown #
vertex $-1 -1 $-1 $424 $591 #
straight-curve $-1 -1 $-1 1.5 -1.78 -1.5 0 -1 0 I I #
coedge $-1 -1 $-1 $578 $264 $588 $592 reversed $255 $-1 #
vertex $-1 -1 $-1 $592 $593 #
straight-curve $-1 -1 $-1 -1.5 -1.78 -1.5 0 -1 0 I I #
edge $-1 -1 $-1 $581 -2 $268 2 $414 $594 forward @7 unknown #
point $-1 -1 $-1 -1.5 -2 -1.5 #
point $-1 -1 $-1 1.5 -2 -1.5 #
coedge $-1 -1 $-1 $278 $276 $274 $436 forward $271 $-1 #
coedge $-1 -1 $-1 $273 $273 $437 $595 reversed $161 $-1 #
edge $-1 -1 $-1 $439 2.2142974355881808 $442 4.0688878715914054 $273 $596 forward @7 unknown #
edge $597 -1 $-1 $281 -2.0099999999999998 $280 1.99 $274 $598 forward @7 unknown #
coedge $-1 -1 $-1 $276 $278 $434 $595 forward $271 $-1 #
convexity-sys-attrib $-1 -1 $-1 $-1 $277 #
vertex $-1 -1 $-1 $595 $599 #
straight-curve $-1 -1 $-1 1.5 -2 5.5 0 0 1 I I #
convexity-sys-attrib $-1 -1 $-1 $-1 $279 #
vertex $-1 -1 $-1 $279 $600 #
straight-curve $-1 -1 $-1 1.5 2 5.5 0 0 -1 I I #
point $-1 -1 $-1 1.5 2 -1.5 #
point $-1 -1 $-1 1.5 -2 -1.5 #
face $-1 -1 $-1 $-1 $601 $41 $-1 $602 reversed single #
plane-surface $-1 -1 $-1 -8.6510885035726482e-018 2 -3.5 6.5411352008375761e-033 1 -3.7936442052307325e-049 0 3.7936442052307325e-049 1 forward_v I I I I #
coedge $-1 -1 $-1 $293 $603 $295 $464 forward $284 $-1 #
coedge $-1 -1 $-1 $604 $286 $603 $605 reversed $168 $-1 #
coedge $-1 -1 $-1 $286 $604 $287 $454 forward $168 $-1 #
coedge $-1 -1 $-1 $289 $295 $286 $452 reversed $296 $-1 #
edge $-1 -1 $-1 $455 -1.5 $606 1.5 $286 $607 forward @7 unknown #
coedge $-1 -1 $-1 $288 $287 $608 $609 reversed $107 $-1 #
edge $-1 -1 $-1 $610 0 $455 0.17999999999999994 $450 $611 forward @7 unknown #
vertex $-1 -1 $-1 $454 $612 #
straight-curve $-1 -1 $-1 1.5 2 -3.5 0 0 1 I I #
coedge $-1 -1 $-1 $608 $613 $291 $458 forward $601 $-1 #
edge $614 -1 $-1 $462 -1.5 $459 1.5 $291 $615 forward @7 unknown #
vertex $-1 -1 $-1 $458 $616 #
straight-curve $-1 -1 $-1 1.5 1.8200000000000001 -5.5 0 1 0 I I #
coedge $-1 -1 $-1 $603 $293 $613 $617 reversed $284 $-1 #
vertex $-1 -1 $-1 $617 $618 #
straight-curve $-1 -1 $-1 -1.5 1.8200000000000001 -5.5 0 1 0 I I #
edge $-1 -1 $-1 $606 -2 $297 2 $448 $619 forward @7 unknown #
point $-1 -1 $-1 -1.5 2 -5.5 #
point $-1 -1 $-1 1.5 2 -5.5 #
model_id-kcp-attrib $-1 -1 $-1 $-1 $301 1 1021521012 1021521012 1353318401 8 #
face $620 -1 $-1 $621 $622 $11 $-1 $623 forward single #
loop $-1 -1 $-1 $-1 $624 $301 #
torus-surface $-1 -1 $-1 0 0 6.75 0 0 -1 1.25 0.25 -1 0 0 forward_v I I I I #
loop $-1 -1 $-1 $-1 $625 $176 #
coedge $-1 -1 $-1 $476 $476 $473 $626 forward $302 $-1 #
coedge $-1 -1 $-1 $304 $307 $472 $626 reversed $177 $-1 #
coedge $-1 -1 $-1 $306 $305 $304 $475 reversed $112 $-1 #
edge $-1 -1 $-1 $627 0 $310 1.5707963267948895 $474 $628 forward @7 unknown #
coedge $-1 -1 $-1 $472 $472 $306 $477 forward $302 $-1 #
edge $629 -1 $-1 $478 0 $627 3.1415926535897931 $476 $630 forward @7 unknown #
vertex $-1 -1 $-1 $477 $631 #
ellipse-curve $-1 -1 $-1 2.2499999999999991 -5.5107285922006947e-016 6.7499999999999991 2.449212707644759e-016 1 3.1315620895736197e-031 8.8817841970012523e-016 -2.9582283945787943e-031 0.25000000000000089 1 I I #
ellipse-curve $-1 -1 $-1 0 0 6.7499999999999991 0 0 1 2.5 0 0 1 I I #
point $-1 -1 $-1 -2.5 3.0615158845559431e-016 6.75 #
coedge $-1 -1 $-1 $632 $314 $317 $488 forward $484 $-1 #
coedge $-1 -1 $-1 $314 $632 $322 $493 reversed $484 $-1 #
loop $-1 -1 $-1 $-1 $482 $633 #
attrib_edge_convexity-kcp-attrib $-1 -1 $634 $-1 $315 2 #
straight-curve $-1 -1 $-1 -1.5 -1.78 0 0 1 0 I I #
coedge $-1 -1 $-1 $317 $316 $635 $636 reversed $318 $-1 #
edge $637 -1 $-1 $320 0 $638 4 $482 $639 forward @7 unknown #
face $640 -1 $-1 $331 $318 $11 $-1 $641 forward single #
convexity-sys-attrib $-1 -1 $-1 $319 $188 #
point $-1 -1 $-1 -1.5 1.8200000000000001 0 #
coedge $-1 -1 $-1 $323 $322 $642 $643 reversed $324 $-1 #
edge $644 -1 $-1 $326 0 $645 4 $322 $646 forward @7 unknown #
face $647 -1 $-1 $-1 $324 $11 $-1 $648 forward single #
convexity-sys-attrib $-1 -1 $-1 $325 $190 #
point $-1 -1 $-1 -1.5 -1.78 0 #
coedge $-1 -1 $-1 $642 $635 $328 $498 forward $649 $-1 #
edge $650 -1 $-1 $503 0 $500 3.6000000000000001 $497 $651 forward @7 unknown #
attrib_edge_convexity-kcp-attrib $-1 -1 $652 $-1 $329 1 #
vertex $-1 -1 $-1 $643 $653 #
straight-curve $-1 -1 $-1 1.5 -1.78 0 0 0 -1 I I #
attrib_edge_convexity-kcp-attrib $-1 -1 $654 $-1 $330 1 #
vertex $-1 -1 $-1 $498 $655 #
straight-curve $-1 -1 $-1 1.5 1.8200000000000001 0 0 0 -1 I I #
model_id-kcp-attrib $-1 -1 $-1 $-1 $331 1 1021521012 1021521012 1353318401 15 #
plane-surface $-1 -1 $-1 1.5 1.8200000000000001 0 1 0 0 0 -1 0 forward_v I I I I #
face $-1 -1 $-1 $656 $657 $32 $-1 $658 reversed single #
plane-surface $-1 -1 $-1 0 -2.5 0 0 1 0 0 0 1 forward_v I I I I #
coedge $-1 -1 $-1 $534 $539 $210 $352 reversed $337 $-1 #
coedge $-1 -1 $-1 $659 $339 $206 $346 forward $204 $-1 #
coedge $-1 -1 $-1 $339 $659 $660 $515 reversed $204 $-1 #
coedge $-1 -1 $-1 $661 $662 $339 $513 forward $663 $-1 #
edge $-1 -1 $-1 $527 -3.1415926535897931 $520 -1.5707963267948966 $512 $357 forward @7 unknown #
coedge $-1 -1 $-1 $341 $340 $664 $665 reversed $130 $-1 #
edge $-1 -1 $-1 $520 -11 $666 0 $660 $667 forward @7 unknown #
coedge $-1 -1 $-1 $668 $669 $509 $352 forward $670 $-1 #
coedge $-1 -1 $-1 $518 $342 $669 $537 forward $519 $-1 #
coedge $-1 -1 $-1 $342 $517 $671 $672 forward $519 $-1 #
loop $-1 -1 $-1 $-1 $342 $673 #
vertex $-1 -1 $-1 $674 $675 #
coedge $-1 -1 $-1 $676 $550 $344 $522 forward $677 $-1 #
edge $-1 -1 $-1 $219 1.5707963267948966 $527 3.1415926535897931 $521 $357 forward @7 unknown #
coedge $-1 -1 $-1 $678 $345 $348 $529 reversed $526 $-1 #
coedge $-1 -1 $-1 $345 $678 $676 $679 reversed $526 $-1 #
coedge $-1 -1 $-1 $680 $681 $510 $346 reversed $657 $-1 #
loop $-1 -1 $-1 $-1 $345 $682 #
vertex $-1 -1 $-1 $679 $683 #
straight-curve $-1 -1 $-1 2.5 0 5.5 0 0 1 I I #
edge $-1 -1 $-1 $553 -2.5 $350 0 $523 $684 forward @7 unknown #
face $-1 -1 $-1 $541 $349 $32 $-1 $685 forward single #
edge $-1 -1 $-1 $350 0 $686 2.5 $681 $684 forward @7 unknown #
point $-1 -1 $-1 2.5 0 5.5 #
straight-curve $-1 -1 $-1 -2.5 0 5.5 0 0 1 I I #
coedge $-1 -1 $-1 $543 $509 $354 $535 reversed $337 $-1 #
edge $-1 -1 $-1 $547 -2.5 $356 0 $534 $687 forward @7 unknown #
face $-1 -1 $-1 $688 $355 $32 $-1 $689 reversed single #
edge $-1 -1 $-1 $356 0 $690 2.5 $669 $687 forward @7 unknown #
point $-1 -1 $-1 -2.5 0 -5.5 #
coedge $-1 -1 $-1 $509 $543 $358 $540 reversed $337 $-1 #
edge $-1 -1 $-1 $361 0 $545 2.5 $539 $691 forward @7 unknown #
face $-1 -1 $-1 $692 $360 $32 $-1 $685 forward single #
point $-1 -1 $-1 -2.5 0 5.5 #
coedge $-1 -1 $-1 $539 $534 $362 $544 reversed $337 $-1 #
edge $-1 -1 $-1 $545 -5.5 $547 5.5 $543 $693 forward @7 unknown #
vertex $-1 -1 $-1 $540 $694 #
straight-curve $-1 -1 $-1 0 -2.5 5.5 1 0 0 I I #
vertex $-1 -1 $-1 $535 $695 #
straight-curve $-1 -1 $-1 0 -2.5 -5.5 -1 0 0 I I #
coedge $-1 -1 $-1 $366 $365 $678 $696 reversed $367 $-1 #
coedge $-1 -1 $-1 $521 $676 $365 $551 forward $677 $-1 #
edge $-1 -1 $-1 $697 -2.5 $219 -9.372879511388359e-033 $365 $548 forward @7 unknown #
face $-1 -1 $-1 $698 $670 $32 $-1 $338 reversed single #
vertex $-1 -1 $-1 $529 $699 #
plane-surface $-1 -1 $-1 2.5 0 0 -1 0 0 0 0 1 forward_v I I I I #
coedge $-1 -1 $-1 $377 $375 $379 $559 reversed $223 $-1 #
edge $-1 -1 $-1 $390 -5.5 $561 5.5 $389 $700 forward @7 unknown #
vertex $-1 -1 $-1 $559 $701 #
straight-curve $-1 -1 $-1 -2.5 -2.5 0 0 0 -1 I I #
edge $-1 -1 $-1 $557 -2.5 $561 2.5 $555 $702 forward @7 unknown #
straight-curve $-1 -1 $-1 0 -2.5 -5.5 -1 0 0 I I #
vertex $-1 -1 $-1 $382 $703 #
straight-curve $-1 -1 $-1 0 2.5 -5.5 1 0 0 I I #
point $-1 -1 $-1 2.5 2.5 -5.5 #
point $-1 -1 $-1 2.5 -2.5 -5.5 #
straight-curve $-1 -1 $-1 -2.5 0 5.5 0 -1 0 I I #
point $-1 -1 $-1 -2.5 2.5 5.5 #
point $-1 -1 $-1 -2.5 -2.5 5.5 #
straight-curve $-1 -1 $-1 2.5 -2.5 0 0 0 -1 I I #
straight-curve $-1 -1 $-1 2.5 2.5 0 0 0 -1 I I #
convexity-sys-attrib $-1 -1 $-1 $-1 $401 #
straight-curve $-1 -1 $-1 -1.5 0.010000000000000009 -5.5 0 1 0 I I #
point $-1 -1 $-1 -1.5 2 -5.5 #
point $-1 -1 $-1 -1.5 -2 -5.5 #
convexity-sys-attrib $-1 -1 $-1 $-1 $409 #
straight-curve $-1 -1 $-1 -1.5 0.010000000000000009 -1.5 0 -1 0 I I #
loop $-1 -1 $-1 $-1 $588 $412 #
plane-surface $-1 -1 $-1 -8.6510885035726482e-018 -1.7799999999999994 -3.5 1.3082270401675158e-032 1 2.94351084037691e-032 0 -2.94351084037691e-032 1 forward_v I I I I #
coedge $-1 -1 $-1 $414 $427 $415 $580 forward $255 $-1 #
coedge $-1 -1 $-1 $416 $415 $704 $705 reversed $153 $-1 #
edge $-1 -1 $-1 $706 0 $581 0.21999999999999997 $578 $707 forward @7 unknown #
vertex $-1 -1 $-1 $580 $708 #
straight-curve $-1 -1 $-1 0 -1.9999999999999993 -5.5 -1 0 0 I I #
coedge $-1 -1 $-1 $704 $423 $419 $584 forward $576 $-1 #
edge $709 -1 $-1 $425 -2 $585 2 $419 $710 forward @7 unknown #
vertex $-1 -1 $-1 $584 $711 #
straight-curve $-1 -1 $-1 1.5 -1.78 -5.5 0 -1 0 I I #
point $-1 -1 $-1 1.5 -2 -5.5 #
coedge $-1 -1 $-1 $423 $704 $427 $592 forward $576 $-1 #
convexity-sys-attrib $-1 -1 $-1 $-1 $424 #
straight-curve $-1 -1 $-1 0 -1.7799999999999994 -1.5 1 0 0 I I #
point $-1 -1 $-1 1.5 -1.78 -1.5 #
edge $712 -1 $-1 $706 -2 $428 2 $427 $713 forward @7 unknown #
point $-1 -1 $-1 -1.5 -1.78 -1.5 #
straight-curve $-1 -1 $-1 -1.5 -1.9999999999999993 -3.5 0 0 1 I I #
edge $714 -1 $-1 $442 -1.99 $439 2.0099999999999998 $434 $715 forward @7 unknown #
ellipse-curve $-1 -1 $-1 9.372879511388359e-033 0 -5.5 0 0 1 -2.5 0 0 1 I I #
convexity-sys-attrib $-1 -1 $-1 $-1 $436 #
straight-curve $-1 -1 $-1 1.5 0.010000000000000009 -1.5 0 1 0 I I #
point $-1 -1 $-1 1.5 -2 -5.5 #
point $-1 -1 $-1 1.5 2 -5.5 #
loop $-1 -1 $-1 $-1 $613 $446 #
plane-surface $-1 -1 $-1 -8.6510885035726482e-018 1.8200000000000003 -3.5 6.5411352008375761e-033 1 -3.7936442052307325e-049 0 3.7936442052307325e-049 1 forward_v I I I I #
coedge $-1 -1 $-1 $448 $461 $449 $605 forward $284 $-1 #
coedge $-1 -1 $-1 $450 $449 $716 $717 reversed $168 $-1 #
edge $-1 -1 $-1 $718 0 $606 0.17999999999999994 $603 $719 forward @7 unknown #
vertex $-1 -1 $-1 $605 $720 #
straight-curve $-1 -1 $-1 0 2 -1.5 -1 0 0 I I #
coedge $-1 -1 $-1 $716 $457 $453 $609 forward $601 $-1 #
edge $721 -1 $-1 $459 -2 $610 2 $453 $722 forward @7 unknown #
vertex $-1 -1 $-1 $609 $723 #
straight-curve $-1 -1 $-1 1.5 1.8200000000000001 -1.5 0 1 0 I I #
point $-1 -1 $-1 1.5 2 -1.5 #
coedge $-1 -1 $-1 $457 $716 $461 $617 forward $601 $-1 #
convexity-sys-attrib $-1 -1 $-1 $-1 $458 #
straight-curve $-1 -1 $-1 0 1.8200000000000003 -5.5 1 0 0 I I #
point $-1 -1 $-1 1.5 1.8200000000000001 -5.5 #
edge $724 -1 $-1 $718 -2 $462 2 $461 $725 forward @7 unknown #
point $-1 -1 $-1 -1.5 1.8200000000000001 -5.5 #
straight-curve $-1 -1 $-1 -1.5 2 -3.5 0 0 -1 I I #
model_id-kcp-attrib $-1 -1 $-1 $-1 $468 1 1021521012 1021521012 1353318401 9 #
face $726 -1 $-1 $727 $728 $11 $-1 $729 reversed single #
loop $-1 -1 $-1 $-1 $730 $468 #
torus-surface $-1 -1 $-1 0 0 6.75 0 0 -1 1.25 0.25 -1 0 0 forward_v I I I I #
coedge $-1 -1 $-1 $731 $732 $733 $734 forward $469 $-1 #
coedge $-1 -1 $-1 $735 $735 $732 $736 forward $471 $-1 #
edge $737 -1 $-1 $627 0 $478 3.1415926535897931 $472 $738 forward @7 unknown #
vertex $-1 -1 $-1 $477 $739 #
ellipse-curve $-1 -1 $-1 -2.2499999999999991 2.7553642961003474e-016 6.7499999999999991 -1.2246063538223795e-016 -1 1.5657810447868098e-031 -8.8817841970012523e-016 1.4791141972893971e-031 0.25000000000000089 1 I I #
attrib_edge_convexity-kcp-attrib $-1 -1 $740 $-1 $477 3 #
ellipse-curve $-1 -1 $-1 2.2204460492503131e-016 1.1102230246251565e-016 7 0 0 1 2.25 -1.1102230246251565e-016 0 1 I I #
point $-1 -1 $-1 2.25 0 7 #
coedge $-1 -1 $-1 $483 $482 $741 $742 reversed $484 $-1 #
face $743 -1 $-1 $489 $484 $11 $-1 $744 forward single #
convexity-sys-attrib $-1 -1 $-1 $485 $315 #
coedge $-1 -1 $-1 $497 $741 $487 $636 forward $649 $-1 #
edge $745 -1 $-1 $638 0 $503 3 $635 $746 forward @7 unknown #
attrib_edge_convexity-kcp-attrib $-1 -1 $747 $-1 $488 1 #
vertex $-1 -1 $-1 $636 $748 #
straight-curve $-1 -1 $-1 -1.5 1.8200000000000001 0 0 0 -1 I I #
model_id-kcp-attrib $-1 -1 $-1 $-1 $489 1 1021521012 1021521012 1353318401 14 #
plane-surface $-1 -1 $-1 -1.5 1.8200000000000001 0 0 1 0 1 0 0 forward_v I I I I #
coedge $-1 -1 $-1 $741 $497 $492 $643 forward $649 $-1 #
edge $749 -1 $-1 $500 0 $645 3 $642 $750 forward @7 unknown #
attrib_edge_convexity-kcp-attrib $-1 -1 $751 $-1 $493 1 #
vertex $-1 -1 $-1 $643 $752 #
straight-curve $-1 -1 $-1 -1.5 -1.78 0 0 0 -1 I I #
model_id-kcp-attrib $-1 -1 $-1 $-1 $494 1 1021521012 1021521012 1353318401 16 #
plane-surface $-1 -1 $-1 1.5 -1.78 0 0 -1 0 -1 0 0 forward_v I I I I #
loop $-1 -1 $-1 $753 $741 $754 #
attrib_edge_convexity-kcp-attrib $-1 -1 $755 $-1 $498 1 #
straight-curve $-1 -1 $-1 1.5 1.8200000000000001 -4 0 -1 0 I I #
convexity-sys-attrib $-1 -1 $-1 $499 $329 #
point $-1 -1 $-1 1.5 -1.78 -4 #
convexity-sys-attrib $-1 -1 $-1 $502 $330 #
point $-1 -1 $-1 1.5 1.8200000000000001 -4 #
face $-1 -1 $-1 $530 $756 $32 $-1 $685 forward single #
loop $-1 -1 $-1 $-1 $525 $507 #
plane-surface $-1 -1 $-1 2.5 0 0 -1 0 0 0 0 1 forward_v I I I I #
coedge $-1 -1 $-1 $511 $510 $757 $758 reversed $204 $-1 #
coedge $-1 -1 $-1 $759 $760 $761 $515 forward $762 $-1 #
coedge $-1 -1 $-1 $662 $512 $760 $674 forward $663 $-1 #
coedge $-1 -1 $-1 $512 $661 $680 $763 forward $663 $-1 #
loop $-1 -1 $-1 $-1 $512 $764 #
coedge $-1 -1 $-1 $765 $766 $514 $665 forward $767 $-1 #
edge $-1 -1 $-1 $361 0 $666 1.5707963267948966 $664 $351 forward @7 unknown #
vertex $-1 -1 $-1 $768 $769 #
straight-curve $-1 -1 $-1 9.372879511388359e-033 2.5 5.5 0 0 1 I I #
coedge $-1 -1 $-1 $770 $516 $766 $771 reversed $670 $-1 #
coedge $-1 -1 $-1 $516 $770 $517 $537 reversed $670 $-1 #
loop $-1 -1 $-1 $-1 $516 $552 #
coedge $-1 -1 $-1 $772 $761 $518 $672 reversed $773 $-1 #
edge $-1 -1 $-1 $690 -2.5 $520 9.372879511388359e-033 $671 $774 forward @7 unknown #
face $-1 -1 $-1 $536 $519 $32 $-1 $689 reversed single #
edge $-1 -1 $-1 $520 9.372879511388359e-033 $775 2.5 $760 $774 forward @7 unknown #
point $-1 -1 $-1 9.372879511388359e-033 2.5 -5.5 #
coedge $-1 -1 $-1 $550 $521 $524 $679 forward $677 $-1 #
loop $-1 -1 $-1 $-1 $521 $688 #
coedge $-1 -1 $-1 $524 $523 $549 $696 forward $526 $-1 #
edge $-1 -1 $-1 $527 0 $697 2.5 $524 $776 forward @7 unknown #
coedge $-1 -1 $-1 $777 $525 $662 $763 reversed $657 $-1 #
coedge $-1 -1 $-1 $525 $777 $778 $531 reversed $657 $-1 #
face $-1 -1 $-1 $-1 $526 $32 $-1 $658 reversed single #
point $-1 -1 $-1 2.5 0 -5.5 #
straight-curve $-1 -1 $-1 2.5 0 5.5 0 1 0 I I #
plane-surface $-1 -1 $-1 0 0 5.5 0 0 1 1 0 0 forward_v I I I I #
vertex $-1 -1 $-1 $531 $779 #
straight-curve $-1 -1 $-1 -2.5 0 -5.5 0 1 0 I I #
face $-1 -1 $-1 $368 $677 $32 $-1 $689 reversed single #
plane-surface $-1 -1 $-1 0 0 -5.5 0 0 1 1 0 0 forward_v I I I I #
vertex $-1 -1 $-1 $672 $780 #
straight-curve $-1 -1 $-1 -2.5 0 5.5 0 -1 0 I I #
face $-1 -1 $-1 $781 $767 $32 $-1 $685 forward single #
straight-curve $-1 -1 $-1 -2.5 -2.5 0 0 0 -1 I I #
point $-1 -1 $-1 -2.5 -2.5 5.5 #
point $-1 -1 $-1 -2.5 -2.5 -5.5 #
edge $-1 -1 $-1 $553 -5.5 $697 5.5 $678 $782 forward @7 unknown #
vertex $-1 -1 $-1 $696 $783 #
face $-1 -1 $-1 $682 $762 $32 $-1 $784 reversed single #
point $-1 -1 $-1 2.5 -2.5 5.5 #
straight-curve $-1 -1 $-1 -2.5 2.5 0 0 0 -1 I I #
point $-1 -1 $-1 -2.5 -2.5 -5.5 #
straight-curve $-1 -1 $-1 -2.5 0 -5.5 0 1 0 I I #
point $-1 -1 $-1 -2.5 2.5 -5.5 #
coedge $-1 -1 $-1 $588 $583 $579 $705 forward $576 $-1 #
edge $785 -1 $-1 $585 -1.5 $706 1.5 $579 $786 forward @7 unknown #
vertex $-1 -1 $-1 $592 $787 #
straight-curve $-1 -1 $-1 -1.5 -1.78 -5.5 0 -1 0 I I #
point $-1 -1 $-1 -1.5 -2 -5.5 #
convexity-sys-attrib $-1 -1 $-1 $-1 $584 #
straight-curve $-1 -1 $-1 1.5 -1.7799999999999994 -3.5 0 0 -1 I I #
point $-1 -1 $-1 1.5 -1.78 -5.5 #
convexity-sys-attrib $-1 -1 $-1 $-1 $592 #
straight-curve $-1 -1 $-1 -1.5 -1.7799999999999994 -3.5 0 0 1 I I #
convexity-sys-attrib $-1 -1 $-1 $-1 $595 #
straight-curve $-1 -1 $-1 1.5 0.010000000000000009 -5.5 0 -1 0 I I #
coedge $-1 -1 $-1 $613 $608 $604 $717 forward $601 $-1 #
edge $788 -1 $-1 $610 -1.5 $718 1.5 $604 $789 forward @7 unknown #
vertex $-1 -1 $-1 $617 $790 #
straight-curve $-1 -1 $-1 -1.5 1.8200000000000001 -1.5 0 1 0 I I #
point $-1 -1 $-1 -1.5 2 -1.5 #
convexity-sys-attrib $-1 -1 $-1 $-1 $609 #
straight-curve $-1 -1 $-1 1.5 1.8200000000000003 -3.5 0 0 1 I I #
point $-1 -1 $-1 1.5 1.8200000000000001 -1.5 #
convexity-sys-attrib $-1 -1 $-1 $-1 $617 #
straight-curve $-1 -1 $-1 -1.5 1.8200000000000003 -3.5 0 0 -1 I I #
model_id-kcp-attrib $-1 -1 $-1 $-1 $621 1 1021521012 1021521012 1353318401 10 #
face $791 -1 $-1 $754 $792 $11 $-1 $793 reversed single #
loop $-1 -1 $-1 $-1 $794 $621 #
cone-surface $-1 -1 $-1 0 0 7 0 0 -1 -1 0 0 1 I I 0 1 1 forward I I I I #
coedge $-1 -1 $-1 $795 $796 $797 $798 forward $622 $-1 #
coedge $-1 -1 $-1 $797 $624 $799 $800 forward $469 $-1 #
coedge $-1 -1 $-1 $624 $797 $625 $736 reversed $469 $-1 #
coedge $-1 -1 $-1 $796 $795 $624 $734 reversed $622 $-1 #
edge $-1 -1 $-1 $801 0 $802 1.5707963267948895 $733 $803 forward @7 unknown #
coedge $-1 -1 $-1 $625 $625 $796 $804 forward $471 $-1 #
edge $805 -1 $-1 $801 0 $806 3.1415926535897931 $625 $807 forward @7 unknown #
attrib_edge_convexity-kcp-attrib $-1 -1 $808 $-1 $626 3 #
ellipse-curve $-1 -1 $-1 0 -1.1102230246251565e-016 7 0 0 1 -2.25 3.8655873207255054e-016 0 1 I I #
point $-1 -1 $-1 -2.25 2.7553642961003488e-016 7 #
convexity-sys-attrib $-1 -1 $-1 $629 $477 #
coedge $-1 -1 $-1 $635 $642 $632 $742 forward $649 $-1 #
edge $809 -1 $-1 $645 0 $638 3.6000000000000001 $741 $810 forward @7 unknown #
model_id-kcp-attrib $-1 -1 $-1 $-1 $633 1 1021521012 1021521012 1353318401 13 #
plane-surface $-1 -1 $-1 -1.5 -1.78 0 -1 0 0 0 1 0 forward_v I I I I #
attrib_edge_convexity-kcp-attrib $-1 -1 $811 $-1 $636 1 #
straight-curve $-1 -1 $-1 -1.5 1.8200000000000001 -4 1 0 0 I I #
convexity-sys-attrib $-1 -1 $-1 $637 $488 #
point $-1 -1 $-1 -1.5 1.8200000000000001 -4 #
attrib_edge_convexity-kcp-attrib $-1 -1 $812 $-1 $643 1 #
straight-curve $-1 -1 $-1 1.5 -1.78 -4 -1 0 0 I I #
convexity-sys-attrib $-1 -1 $-1 $644 $493 #
point $-1 -1 $-1 -1.5 -1.78 -4 #
loop $-1 -1 $-1 $-1 $813 $754 #
face $814 -1 $-1 $633 $649 $11 $-1 $815 forward single #
convexity-sys-attrib $-1 -1 $-1 $650 $498 #
loop $-1 -1 $-1 $-1 $757 $656 #
coedge $-1 -1 $-1 $778 $816 $659 $758 forward $756 $-1 #
edge $-1 -1 $-1 $666 1.5707963267948966 $350 3.1415926535897931 $757 $351 forward @7 unknown #
coedge $-1 -1 $-1 $817 $660 $816 $818 reversed $762 $-1 #
coedge $-1 -1 $-1 $660 $817 $661 $674 reversed $762 $-1 #
coedge $-1 -1 $-1 $671 $819 $340 $515 reversed $773 $-1 #
loop $-1 -1 $-1 $-1 $660 $698 #
edge $-1 -1 $-1 $775 -2.5 $527 0 $680 $776 forward @7 unknown #
face $-1 -1 $-1 $673 $663 $32 $-1 $689 reversed single #
coedge $-1 -1 $-1 $766 $664 $819 $768 forward $767 $-1 #
coedge $-1 -1 $-1 $664 $765 $668 $771 forward $767 $-1 #
loop $-1 -1 $-1 $-1 $664 $692 #
edge $-1 -1 $-1 $666 -9.372879511388359e-033 $820 2.5 $819 $821 forward @7 unknown #
point $-1 -1 $-1 9.372879511388359e-033 2.5 5.5 #
coedge $-1 -1 $-1 $669 $668 $772 $822 forward $670 $-1 #
edge $-1 -1 $-1 $820 -2.5 $361 0 $668 $691 forward @7 unknown #
coedge $-1 -1 $-1 $819 $671 $770 $822 reversed $773 $-1 #
loop $-1 -1 $-1 $-1 $761 $781 #
straight-curve $-1 -1 $-1 0 2.5 -5.5 1 0 0 I I #
vertex $-1 -1 $-1 $763 $823 #
straight-curve $-1 -1 $-1 2.5 0 -5.5 0 -1 0 I I #
coedge $-1 -1 $-1 $681 $680 $817 $824 reversed $657 $-1 #
coedge $-1 -1 $-1 $816 $757 $681 $531 forward $756 $-1 #
point $-1 -1 $-1 2.5 2.5 5.5 #
point $-1 -1 $-1 -2.5 2.5 -5.5 #
face $-1 -1 $-1 $764 $773 $32 $-1 $784 reversed single #
straight-curve $-1 -1 $-1 2.5 -2.5 0 0 0 -1 I I #
point $-1 -1 $-1 2.5 -2.5 -5.5 #
plane-surface $-1 -1 $-1 0 2.5 0 0 -1 0 0 0 -1 forward_v I I I I #
convexity-sys-attrib $-1 -1 $-1 $-1 $705 #
straight-curve $-1 -1 $-1 0 -1.7799999999999994 -5.5 -1 0 0 I I #
point $-1 -1 $-1 -1.5 -1.78 -5.5 #
convexity-sys-attrib $-1 -1 $-1 $-1 $717 #
straight-curve $-1 -1 $-1 0 1.8200000000000003 -1.5 -1 0 0 I I #
point $-1 -1 $-1 -1.5 1.8200000000000001 -1.5 #
model_id-kcp-attrib $-1 -1 $-1 $-1 $727 1 1021521012 1021521012 1353318401 11 #
loop $-1 -1 $-1 $-1 $825 $727 #
cone-surface $-1 -1 $-1 0 0 7 0 0 -1 -1 0 0 1 I I 0 1 1 forward I I I I #
coedge $-1 -1 $-1 $826 $827 $828 $829 forward $728 $-1 #
coedge $-1 -1 $-1 $733 $730 $827 $830 forward $622 $-1 #
coedge $-1 -1 $-1 $730 $733 $735 $804 reversed $622 $-1 #
coedge $-1 -1 $-1 $732 $731 $730 $798 reversed $469 $-1 #
edge $-1 -1 $-1 $806 0 $831 1.5707963267948895 $730 $832 forward @7 unknown #
coedge $-1 -1 $-1 $825 $828 $731 $800 reversed $792 $-1 #
edge $-1 -1 $-1 $802 0 $831 3.1415926535897931 $799 $833 forward @7 unknown #
vertex $-1 -1 $-1 $804 $834 #
vertex $-1 -1 $-1 $830 $835 #
ellipse-curve $-1 -1 $-1 1.2500000000000009 1.5307579422779726e-016 6.7499999999999991 1.2246063538223773e-016 -1 4.0637121826570474e-032 -8.8817841970012523e-016 -9.8607613152626476e-032 0.25000000000000089 1 I I #
edge $836 -1 $-1 $806 0 $801 3.1415926535897931 $735 $837 forward @7 unknown #
attrib_edge_convexity-kcp-attrib $-1 -1 $838 $-1 $736 3 #
vertex $-1 -1 $-1 $804 $839 #
ellipse-curve $-1 -1 $-1 0 -5.5511151231257827e-017 7 0 0 -1 1.25 2.0858694545905498e-016 0 1 I I #
convexity-sys-attrib $-1 -1 $-1 $737 $626 #
attrib_edge_convexity-kcp-attrib $-1 -1 $840 $-1 $742 1 #
straight-curve $-1 -1 $-1 -1.5 -1.78 -4 0 1 0 I I #
convexity-sys-attrib $-1 -1 $-1 $745 $636 #
convexity-sys-attrib $-1 -1 $-1 $749 $643 #
coedge $-1 -1 $-1 $841 $841 $842 $843 reversed $753 $-1 #
model_id-kcp-attrib $-1 -1 $-1 $-1 $754 1 1021521012 1021521012 1353318401 12 #
plane-surface $-1 -1 $-1 0 0 -4 0 0 -1 0 1 0 forward_v I I I I #
coedge $-1 -1 $-1 $757 $778 $759 $818 forward $756 $-1 #
coedge $-1 -1 $-1 $760 $759 $777 $824 forward $762 $-1 #
edge $-1 -1 $-1 $686 -2.5 $666 -9.372879511388359e-033 $759 $821 forward @7 unknown #
coedge $-1 -1 $-1 $761 $772 $765 $768 reversed $773 $-1 #
vertex $-1 -1 $-1 $768 $844 #
straight-curve $-1 -1 $-1 0 2.5 5.5 -1 0 0 I I #
edge $-1 -1 $-1 $820 -5.5 $690 5.5 $772 $845 forward @7 unknown #
point $-1 -1 $-1 2.5 2.5 -5.5 #
edge $-1 -1 $-1 $686 -5.5 $775 5.5 $777 $846 forward @7 unknown #
coedge $-1 -1 $-1 $842 $799 $847 $848 forward $792 $-1 #
coedge $-1 -1 $-1 $847 $794 $841 $849 forward $728 $-1 #
coedge $-1 -1 $-1 $794 $847 $795 $830 reversed $728 $-1 #
coedge $-1 -1 $-1 $799 $842 $794 $829 reversed $792 $-1 #
edge $-1 -1 $-1 $831 0 $850 10.75 $794 $851 forward @7 unknown #
edge $-1 -1 $-1 $831 0 $802 3.1415926535897931 $827 $852 forward @7 unknown #
vertex $-1 -1 $-1 $830 $853 #
ellipse-curve $-1 -1 $-1 -1.2500000000000009 -3.0615158845559451e-016 6.7499999999999991 -2.4492127076447545e-016 1 8.1274243653140948e-032 8.8817841970012523e-016 1.9721522630525295e-031 0.25000000000000089 1 I I #
ellipse-curve $-1 -1 $-1 0 0 6.75 0 0 -1 1 1.2246063538223773e-016 0 1 I I #
point $-1 -1 $-1 1.25 1.5307579422779716e-016 7 #
point $-1 -1 $-1 1 1.2246063538223773e-016 6.75 #
attrib_edge_convexity-kcp-attrib $-1 -1 $854 $-1 $804 3 #
ellipse-curve $-1 -1 $-1 -1.1102230246251565e-016 5.5511151231257827e-017 7 0 0 -1 -1.25 -5.5511151231257827e-017 0 1 I I #
convexity-sys-attrib $-1 -1 $-1 $805 $736 #
point $-1 -1 $-1 -1.25 0 7 #
convexity-sys-attrib $-1 -1 $-1 $809 $742 #
coedge $-1 -1 $-1 $813 $813 $826 $849 reversed $753 $-1 #
coedge $-1 -1 $-1 $828 $825 $813 $843 forward $792 $-1 #
edge $-1 -1 $-1 $855 0 $850 3.1415926535897931 $813 $856 forward @7 unknown #
point $-1 -1 $-1 -2.5 2.5 5.5 #
straight-curve $-1 -1 $-1 -2.5 2.5 0 0 0 -1 I I #
straight-curve $-1 -1 $-1 2.5 2.5 0 0 0 -1 I I #
coedge $-1 -1 $-1 $827 $826 $825 $848 reversed $728 $-1 #
edge $-1 -1 $-1 $802 0 $855 10.75 $847 $857 forward @7 unknown #
edge $-1 -1 $-1 $850 0 $855 3.1415926535897931 $841 $858 forward @7 unknown #
vertex $-1 -1 $-1 $849 $859 #
straight-curve $-1 -1 $-1 -1 0 6.75 0 0 -1 I I #
ellipse-curve $-1 -1 $-1 0 0 6.75 0 0 -1 -1 0 0 1 I I #
point $-1 -1 $-1 -1 0 6.75 #
convexity-sys-attrib $-1 -1 $-1 $836 $804 #
vertex $-1 -1 $-1 $849 $860 #
ellipse-curve $-1 -1 $-1 0 0 -4 0 0 -1 1 0 0 1 I I #
straight-curve $-1 -1 $-1 1 1.2246063538223773e-016 6.75 0 -4.1310624172098847e-017 -1 I I #
ellipse-curve $-1 -1 $-1 0 0 -4 0 0 -1 -1 0 0 1 I I #
point $-1 -1 $-1 -1 0 -4 #
point $-1 -1 $-1 1 0 -4 #
End-of-ACIS-data 