600 0 1 0           
99 GICL ACIS Healer - Source: /gicl/data5/repository/PTC/V18/cabecad18/ptc_comp/socket_board.sat - 6 0 18 ACIS 6.0.3 Solaris 24 Sat Apr 13 22:25:18 2002 
1 9.999999999999999547e-07 1.000000000000000036e-10 
body $-1 $1 $-1 $-1 #
lump $-1 $-1 $2 $0 #
shell $-1 $-1 $-1 $3 $-1 $1 #
face $-1 $4 $5 $2 $-1 $6 reversed single #
face $-1 $7 $8 $2 $-1 $9 forward single #
loop $-1 $-1 $10 $3 #
plane-surface $-1 0 0 0 0 0 1 1 0 0 forward_v I I I I #
face $-1 $11 $12 $2 $-1 $13 forward single #
loop $-1 $-1 $14 $4 #
plane-surface $-1 50 40 0 0 1 0 -1 0 0 forward_v I I I I #
coedge $-1 $15 $16 $17 $18 reversed $5 $-1 #
face $-1 $19 $20 $2 $-1 $21 forward single #
loop $-1 $-1 $22 $7 #
plane-surface $-1 0 40 0 -1 0 0 0 -1 0 forward_v I I I I #
coedge $-1 $23 $17 $24 $25 forward $8 $-1 #
coedge $-1 $26 $10 $27 $28 reversed $5 $-1 #
coedge $-1 $10 $26 $29 $30 reversed $5 $-1 #
coedge $-1 $14 $31 $10 $18 forward $8 $-1 #
edge $-1 $32 0 $33 50 $10 $34 forward 7 unknown #
face $-1 $35 $36 $2 $-1 $37 forward single #
loop $-1 $-1 $38 $11 #
plane-surface $-1 0 0 0 0 -1 0 1 0 0 forward_v I I I I #
coedge $-1 $39 $29 $40 $41 forward $12 $-1 #
coedge $-1 $31 $14 $42 $43 reversed $8 $-1 #
coedge $-1 $29 $39 $14 $25 reversed $12 $-1 #
edge $-1 $33 0 $44 3 $24 $45 forward 7 unknown #
coedge $-1 $16 $15 $46 $47 reversed $5 $-1 #
coedge $-1 $48 $49 $15 $28 forward $36 $-1 #
edge $-1 $50 0 $32 40 $15 $51 forward 7 unknown #
coedge $-1 $22 $24 $16 $30 forward $12 $-1 #
edge $-1 $33 0 $52 40 $16 $53 forward 7 unknown #
coedge $-1 $17 $23 $48 $54 reversed $8 $-1 #
vertex $-1 $28 $55 #
vertex $-1 $30 $56 #
straight-curve $-1 50 40 0 -1 0 0 I I #
face $-1 $57 $58 $2 $-1 $59 forward single #
loop $-1 $-1 $48 $19 #
plane-surface $-1 50 0 0 1 0 0 0 1 0 forward_v I I I I #
coedge $-1 $60 $46 $49 $61 forward $20 $-1 #
coedge $-1 $24 $22 $62 $63 reversed $12 $-1 #
coedge $-1 $46 $60 $22 $41 reversed $20 $-1 #
edge $-1 $52 0 $64 3 $22 $65 forward 7 unknown #
coedge $-1 $62 $66 $23 $43 forward $58 $-1 #
edge $-1 $67 0 $44 50 $42 $68 forward 7 unknown #
vertex $-1 $63 $69 #
straight-curve $-1 0 40 0 0 0 1 I I #
coedge $-1 $38 $40 $26 $47 forward $20 $-1 #
edge $-1 $52 0 $50 50 $26 $70 forward 7 unknown #
coedge $-1 $71 $27 $31 $54 forward $36 $-1 #
coedge $-1 $27 $71 $38 $61 reversed $36 $-1 #
vertex $-1 $47 $72 #
straight-curve $-1 50 0 0 0 1 0 I I #
vertex $-1 $30 $73 #
straight-curve $-1 0 40 0 0 -1 0 I I #
edge $-1 $32 0 $67 3 $48 $74 forward 7 unknown #
point $-1 50 40 0 #
point $-1 0 40 0 #
face $-1 $75 $76 $2 $-1 $77 forward single #
loop $-1 $78 $79 $35 #
plane-surface $-1 0 0 3 0 0 1 1 0 0 forward_v I I I I #
coedge $-1 $40 $38 $79 $80 reversed $20 $-1 #
edge $-1 $50 0 $81 3 $38 $82 forward 7 unknown #
coedge $-1 $79 $42 $39 $63 forward $58 $-1 #
edge $-1 $44 0 $64 40 $62 $83 forward 7 unknown #
vertex $-1 $63 $84 #
straight-curve $-1 0 0 0 0 0 1 I I #
coedge $-1 $42 $79 $71 $85 forward $58 $-1 #
vertex $-1 $43 $86 #
straight-curve $-1 50 40 3 -1 0 0 I I #
point $-1 0 40 3 #
straight-curve $-1 0 0 0 1 0 0 I I #
coedge $-1 $49 $48 $66 $85 reversed $36 $-1 #
point $-1 50 0 0 #
point $-1 0 0 0 #
straight-curve $-1 50 40 0 0 0 1 I I #
face $-1 $87 $88 $2 $-1 $89 forward single #
loop $-1 $-1 $90 $57 #
plane-surface $-1 28.60999999999999943 38 3 0 1 0 -1 0 0 forward_v I I I I #
loop $-1 $91 $92 $35 #
coedge $-1 $66 $62 $60 $80 forward $58 $-1 #
edge $-1 $64 0 $81 50 $79 $93 forward 7 unknown #
vertex $-1 $85 $94 #
straight-curve $-1 50 0 0 0 0 1 I I #
straight-curve $-1 0 40 3 0 -1 0 I I #
point $-1 0 0 3 #
edge $-1 $81 0 $67 40 $66 $95 forward 7 unknown #
point $-1 50 40 3 #
face $-1 $96 $97 $2 $-1 $98 forward single #
loop $-1 $-1 $99 $75 #
plane-surface $-1 1.5 38 3 -1 0 0 0 -1 0 forward_v I I I I #
coedge $-1 $100 $101 $102 $103 forward $76 $-1 #
loop $-1 $-1 $104 $35 #
coedge $-1 $105 $106 $101 $107 reversed $78 $-1 #
straight-curve $-1 0 0 3 1 0 0 I I #
point $-1 50 0 3 #
straight-curve $-1 50 0 3 0 1 0 I I #
face $-1 $108 $109 $2 $-1 $110 forward single #
loop $-1 $-1 $111 $87 #
plane-surface $-1 1.5 8 3 0 -1 0 1 0 0 forward_v I I I I #
coedge $-1 $112 $113 $114 $115 forward $88 $-1 #
coedge $-1 $116 $90 $117 $118 reversed $76 $-1 #
coedge $-1 $90 $116 $92 $107 forward $76 $-1 #
coedge $-1 $113 $112 $90 $103 reversed $88 $-1 #
edge $-1 $119 0 $120 0.09999999999999964473 $102 $121 forward 7 unknown #
coedge $-1 $122 $123 $124 $125 reversed $91 $-1 #
coedge $-1 $126 $92 $127 $128 reversed $78 $-1 #
coedge $-1 $92 $126 $113 $129 reversed $78 $-1 #
edge $-1 $130 0 $119 27.10999999999999943 $92 $131 forward 7 unknown #
face $-1 $132 $133 $2 $-1 $134 forward single #
loop $-1 $-1 $135 $96 #
plane-surface $-1 28.60999999999999943 8 3 1 0 0 0 1 0 forward_v I I I I #
coedge $-1 $136 $137 $138 $139 forward $97 $-1 #
coedge $-1 $102 $99 $140 $141 reversed $88 $-1 #
coedge $-1 $99 $102 $106 $129 forward $88 $-1 #
coedge $-1 $137 $136 $99 $115 reversed $97 $-1 #
edge $-1 $142 0 $143 0.09999999999999964473 $99 $144 forward 7 unknown #
coedge $-1 $101 $100 $135 $145 reversed $76 $-1 #
coedge $-1 $140 $146 $100 $118 forward $133 $-1 #
edge $-1 $147 0 $120 27.10999999999999943 $117 $148 forward 7 unknown #
vertex $-1 $129 $149 #
vertex $-1 $141 $150 #
straight-curve $-1 1.5 38 3 0 0 1 I I #
coedge $-1 $151 $104 $152 $153 reversed $91 $-1 #
coedge $-1 $104 $151 $154 $155 reversed $91 $-1 #
coedge $-1 $156 $157 $104 $125 forward $158 $-1 #
edge $-1 $159 0 $160 15 $104 $161 forward 7 unknown #
coedge $-1 $106 $105 $137 $162 reversed $78 $-1 #
coedge $-1 $135 $138 $105 $128 forward $109 $-1 #
edge $-1 $163 0 $130 30 $105 $164 forward 7 unknown #
edge $-1 $119 0 $142 30 $106 $165 forward 7 unknown #
vertex $-1 $128 $166 #
straight-curve $-1 28.60999999999999943 38 3 -1 0 0 I I #
face $-1 $167 $168 $2 $-1 $169 forward single #
loop $-1 $170 $171 $108 #
plane-surface $-1 0 0 3.099999999999999645 0 0 1 1 0 0 forward_v I I I I #
coedge $-1 $172 $127 $116 $145 forward $109 $-1 #
coedge $-1 $114 $111 $171 $173 reversed $97 $-1 #
coedge $-1 $111 $114 $126 $162 forward $97 $-1 #
coedge $-1 $127 $172 $111 $139 reversed $109 $-1 #
edge $-1 $163 0 $174 0.09999999999999964473 $111 $175 forward 7 unknown #
coedge $-1 $171 $117 $112 $141 forward $133 $-1 #
edge $-1 $120 0 $143 30 $140 $176 forward 7 unknown #
vertex $-1 $129 $177 #
vertex $-1 $141 $178 #
straight-curve $-1 1.5 8 3 0 0 1 I I #
edge $-1 $130 0 $147 0.09999999999999964473 $135 $179 forward 7 unknown #
coedge $-1 $117 $171 $172 $180 forward $133 $-1 #
vertex $-1 $118 $181 #
straight-curve $-1 28.60999999999999943 38 3.099999999999999645 -1 0 0 I I #
point $-1 1.5 38 3 #
point $-1 1.5 38 3.099999999999999645 #
coedge $-1 $123 $122 $182 $183 reversed $91 $-1 #
coedge $-1 $184 $185 $122 $153 forward $186 $-1 #
edge $-1 $187 0 $159 30 $122 $188 forward 7 unknown #
coedge $-1 $189 $190 $123 $155 forward $191 $-1 #
edge $-1 $160 0 $192 30 $123 $193 forward 7 unknown #
coedge $-1 $194 $124 $190 $195 forward $158 $-1 #
coedge $-1 $124 $194 $184 $196 reversed $158 $-1 #
loop $-1 $-1 $156 $197 #
vertex $-1 $153 $198 #
vertex $-1 $155 $199 #
straight-curve $-1 47.5 38 3 -1 0 0 I I #
edge $-1 $142 0 $163 27.10999999999999943 $126 $200 forward 7 unknown #
vertex $-1 $162 $201 #
straight-curve $-1 28.60999999999999943 8 3 0 1 0 I I #
straight-curve $-1 1.5 38 3 0 -1 0 I I #
point $-1 28.60999999999999943 38 3 #
face $-1 $202 $203 $2 $-1 $204 forward single #
loop $-1 $-1 $205 $132 #
plane-surface $-1 28.10999999999999943 35 3 -1 0 0 0 -1 0 forward_v I I I I #
loop $-1 $206 $207 $108 #
coedge $-1 $146 $140 $136 $173 forward $133 $-1 #
coedge $-1 $138 $135 $146 $180 reversed $109 $-1 #
edge $-1 $143 0 $174 27.10999999999999943 $171 $208 forward 7 unknown #
vertex $-1 $180 $209 #
straight-curve $-1 28.60999999999999943 8 3 0 0 1 I I #
straight-curve $-1 1.5 38 3.099999999999999645 0 -1 0 I I #
point $-1 1.5 8 3 #
point $-1 1.5 8 3.099999999999999645 #
straight-curve $-1 28.60999999999999943 38 3 0 0 1 I I #
edge $-1 $174 0 $147 30 $146 $210 forward 7 unknown #
point $-1 28.60999999999999943 38 3.099999999999999645 #
coedge $-1 $211 $212 $151 $183 forward $213 $-1 #
edge $-1 $192 0 $187 15 $151 $214 forward 7 unknown #
coedge $-1 $215 $152 $157 $196 forward $186 $-1 #
coedge $-1 $152 $215 $211 $216 reversed $186 $-1 #
loop $-1 $-1 $184 $217 #
vertex $-1 $183 $218 #
straight-curve $-1 47.5 8 3 0 1 0 I I #
coedge $-1 $219 $154 $212 $220 forward $191 $-1 #
coedge $-1 $154 $219 $156 $195 reversed $191 $-1 #
loop $-1 $-1 $189 $221 #
vertex $-1 $155 $222 #
straight-curve $-1 32.5 38 3 0 -1 0 I I #
coedge $-1 $157 $156 $223 $224 reversed $158 $-1 #
edge $-1 $160 0 $225 0.09999999999999964473 $190 $226 forward 7 unknown #
edge $-1 $159 0 $227 0.09999999999999964473 $184 $228 forward 7 unknown #
face $-1 $221 $158 $2 $-1 $229 forward single #
point $-1 47.5 38 3 #
point $-1 32.5 38 3 #
straight-curve $-1 1.5 8 3 1 0 0 I I #
point $-1 28.60999999999999943 8 3 #
face $-1 $230 $231 $2 $-1 $232 forward single #
loop $-1 $-1 $233 $167 #
plane-surface $-1 28.10999999999999943 23.5 3 0 1 0 -1 0 0 forward_v I I I I #
coedge $-1 $234 $235 $236 $237 forward $168 $-1 #
loop $-1 $-1 $238 $108 #
coedge $-1 $239 $240 $234 $241 forward $170 $-1 #
straight-curve $-1 1.5 8 3.099999999999999645 1 0 0 I I #
point $-1 28.60999999999999943 8 3.099999999999999645 #
straight-curve $-1 28.60999999999999943 8 3.099999999999999645 0 1 0 I I #
coedge $-1 $242 $182 $185 $216 forward $213 $-1 #
coedge $-1 $182 $242 $189 $220 reversed $213 $-1 #
loop $-1 $-1 $211 $243 #
straight-curve $-1 32.5 8 3 1 0 0 I I #
coedge $-1 $185 $184 $244 $245 reversed $186 $-1 #
edge $-1 $187 0 $246 0.09999999999999964473 $211 $247 forward 7 unknown #
face $-1 $248 $186 $2 $-1 $249 forward single #
point $-1 47.5 8 3 #
coedge $-1 $190 $189 $250 $251 reversed $191 $-1 #
edge $-1 $192 0 $252 0.09999999999999964473 $189 $253 forward 7 unknown #
face $-1 $243 $191 $2 $-1 $254 forward single #
point $-1 32.5 8 3 #
coedge $-1 $250 $244 $194 $224 forward $255 $-1 #
edge $-1 $227 0 $225 15 $223 $256 forward 7 unknown #
vertex $-1 $251 $257 #
straight-curve $-1 32.5 38 3 0 0 1 I I #
vertex $-1 $224 $258 #
straight-curve $-1 47.5 38 3 0 0 1 I I #
plane-surface $-1 47.5 38 3 0 1 0 -1 0 0 forward_v I I I I #
face $-1 $259 $260 $2 $-1 $261 forward single #
loop $-1 $-1 $262 $202 #
plane-surface $-1 2 23.5 3 1 0 0 0 1 0 forward_v I I I I #
coedge $-1 $263 $264 $265 $266 forward $203 $-1 #
coedge $-1 $267 $205 $207 $241 reversed $168 $-1 #
coedge $-1 $205 $267 $268 $269 forward $168 $-1 #
coedge $-1 $264 $263 $205 $237 reversed $203 $-1 #
edge $-1 $270 0 $271 0.09999999999999964473 $205 $272 forward 7 unknown #
coedge $-1 $273 $274 $275 $276 forward $206 $-1 #
coedge $-1 $277 $207 $263 $278 forward $170 $-1 #
coedge $-1 $207 $277 $279 $280 forward $170 $-1 #
edge $-1 $281 0 $271 11.5 $207 $282 forward 7 unknown #
coedge $-1 $212 $211 $283 $284 reversed $213 $-1 #
face $-1 $217 $213 $2 $-1 $285 forward single #
coedge $-1 $223 $283 $215 $245 forward $255 $-1 #
edge $-1 $246 0 $227 30 $244 $286 forward 7 unknown #
vertex $-1 $245 $287 #
straight-curve $-1 47.5 8 3 0 0 1 I I #
face $-1 $288 $255 $2 $-1 $289 forward single #
plane-surface $-1 47.5 8 3 1 0 0 0 1 0 forward_v I I I I #
coedge $-1 $283 $223 $219 $251 forward $255 $-1 #
edge $-1 $225 0 $252 30 $250 $290 forward 7 unknown #
vertex $-1 $251 $291 #
straight-curve $-1 32.5 8 3 0 0 1 I I #
plane-surface $-1 32.5 38 3 -1 0 0 0 -1 0 forward_v I I I I #
loop $-1 $292 $283 $248 #
straight-curve $-1 47.5 38 3.099999999999999645 -1 0 0 I I #
point $-1 32.5 38 3.099999999999999645 #
point $-1 47.5 38 3.099999999999999645 #
face $-1 $293 $294 $2 $-1 $295 forward single #
loop $-1 $-1 $296 $230 #
plane-surface $-1 2 35 3 0 -1 0 1 0 0 forward_v I I I I #
coedge $-1 $297 $298 $299 $300 forward $231 $-1 #
coedge $-1 $236 $233 $239 $278 reversed $203 $-1 #
coedge $-1 $233 $236 $301 $302 forward $203 $-1 #
coedge $-1 $298 $297 $233 $266 reversed $231 $-1 #
edge $-1 $303 0 $304 0.09999999999999964473 $233 $305 forward 7 unknown #
coedge $-1 $235 $234 $296 $306 reversed $168 $-1 #
coedge $-1 $307 $301 $235 $269 reversed $294 $-1 #
edge $-1 $308 0 $270 11.5 $268 $309 forward 7 unknown #
vertex $-1 $269 $310 #
vertex $-1 $278 $311 #
straight-curve $-1 28.10999999999999943 23.5 3 0 0 1 I I #
coedge $-1 $312 $238 $313 $314 forward $206 $-1 #
coedge $-1 $238 $312 $315 $316 forward $206 $-1 #
coedge $-1 $317 $318 $238 $276 reversed $319 $-1 #
edge $-1 $320 0 $321 13 $238 $322 forward 7 unknown #
coedge $-1 $240 $239 $297 $323 forward $170 $-1 #
edge $-1 $271 0 $304 26.10999999999999943 $239 $324 forward 7 unknown #
coedge $-1 $299 $296 $240 $280 reversed $260 $-1 #
edge $-1 $325 0 $281 26.10999999999999943 $240 $326 forward 7 unknown #
vertex $-1 $280 $327 #
straight-curve $-1 28.10999999999999943 35 3.099999999999999645 0 -1 0 I I #
coedge $-1 $244 $250 $242 $284 forward $255 $-1 #
edge $-1 $252 0 $246 15 $283 $328 forward 7 unknown #
plane-surface $-1 32.5 8 3 0 -1 0 1 0 0 forward_v I I I I #
straight-curve $-1 47.5 8 3.099999999999999645 0 1 0 I I #
point $-1 47.5 8 3.099999999999999645 #
face $-1 $329 $330 $2 $-1 $331 forward single #
plane-surface $-1 0 0 3.099999999999999645 0 0 1 1 0 0 forward_v I I I I #
straight-curve $-1 32.5 38 3.099999999999999645 0 -1 0 I I #
point $-1 32.5 8 3.099999999999999645 #
loop $-1 $-1 $332 $248 #
face $-1 $333 $319 $2 $-1 $334 forward single #
loop $-1 $-1 $335 $259 #
plane-surface $-1 0 0 3 0 0 1 1 0 0 forward_v I I I I #
coedge $-1 $279 $336 $267 $306 forward $260 $-1 #
coedge $-1 $265 $262 $277 $323 reversed $231 $-1 #
coedge $-1 $262 $265 $335 $337 forward $231 $-1 #
coedge $-1 $336 $279 $262 $300 reversed $260 $-1 #
edge $-1 $338 0 $325 0.09999999999999964473 $299 $339 forward 7 unknown #
coedge $-1 $268 $335 $264 $302 reversed $294 $-1 #
edge $-1 $270 0 $303 26.10999999999999943 $301 $340 forward 7 unknown #
vertex $-1 $302 $341 #
vertex $-1 $323 $342 #
straight-curve $-1 2 23.5 3 0 0 1 I I #
edge $-1 $308 0 $281 0.09999999999999964473 $296 $343 forward 7 unknown #
coedge $-1 $335 $268 $336 $344 reversed $294 $-1 #
vertex $-1 $344 $345 #
straight-curve $-1 28.10999999999999943 35 3 0 -1 0 I I #
point $-1 28.10999999999999943 23.5 3 #
point $-1 28.10999999999999943 23.5 3.099999999999999645 #
coedge $-1 $274 $273 $346 $347 forward $206 $-1 #
coedge $-1 $348 $349 $273 $314 reversed $350 $-1 #
edge $-1 $321 0 $351 26.10999999999999943 $273 $352 forward 7 unknown #
coedge $-1 $353 $354 $274 $316 reversed $355 $-1 #
edge $-1 $356 0 $320 26.10999999999999943 $274 $357 forward 7 unknown #
coedge $-1 $358 $275 $354 $359 reversed $319 $-1 #
coedge $-1 $275 $358 $348 $360 forward $319 $-1 #
loop $-1 $-1 $318 $293 #
vertex $-1 $316 $361 #
vertex $-1 $314 $362 #
straight-curve $-1 28.10999999999999943 21.5 3.099999999999999645 0 -1 0 I I #
edge $-1 $304 0 $325 11.5 $277 $363 forward 7 unknown #
straight-curve $-1 28.10999999999999943 23.5 3.099999999999999645 -1 0 0 I I #
vertex $-1 $280 $364 #
straight-curve $-1 2 35 3.099999999999999645 1 0 0 I I #
point $-1 28.10999999999999943 35 3.099999999999999645 #
straight-curve $-1 32.5 8 3.099999999999999645 1 0 0 I I #
face $-1 $365 $366 $2 $-1 $367 forward single #
loop $-1 $-1 $368 $288 #
plane-surface $-1 47 35 3 -1 0 0 0 -1 0 forward_v I I I I #
coedge $-1 $369 $370 $371 $372 forward $292 $-1 #
face $-1 $373 $350 $2 $-1 $374 forward single #
plane-surface $-1 28.10999999999999943 21.5 3 -1 0 0 0 -1 0 forward_v I I I I #
coedge $-1 $301 $307 $298 $337 reversed $294 $-1 #
coedge $-1 $296 $299 $307 $344 forward $260 $-1 #
edge $-1 $303 0 $338 11.5 $335 $375 forward 7 unknown #
vertex $-1 $344 $376 #
straight-curve $-1 2 35 3 0 0 1 I I #
straight-curve $-1 28.10999999999999943 23.5 3 -1 0 0 I I #
point $-1 2 23.5 3 #
point $-1 2 23.5 3.099999999999999645 #
straight-curve $-1 28.10999999999999943 35 3 0 0 1 I I #
edge $-1 $338 0 $308 26.10999999999999943 $307 $377 forward 7 unknown #
point $-1 28.10999999999999943 35 3 #
coedge $-1 $378 $379 $312 $347 reversed $380 $-1 #
edge $-1 $351 0 $356 13 $312 $381 forward 7 unknown #
coedge $-1 $382 $313 $318 $360 reversed $350 $-1 #
coedge $-1 $313 $382 $378 $383 forward $350 $-1 #
loop $-1 $-1 $349 $333 #
vertex $-1 $347 $384 #
straight-curve $-1 28.10999999999999943 8.5 3.099999999999999645 -1 0 0 I I #
coedge $-1 $385 $315 $379 $386 reversed $355 $-1 #
coedge $-1 $315 $385 $317 $359 forward $355 $-1 #
loop $-1 $-1 $354 $387 #
vertex $-1 $316 $388 #
straight-curve $-1 2 21.5 3.099999999999999645 1 0 0 I I #
coedge $-1 $318 $317 $389 $390 forward $319 $-1 #
edge $-1 $391 0 $320 0.09999999999999964473 $354 $392 forward 7 unknown #
edge $-1 $393 0 $321 0.09999999999999964473 $318 $394 forward 7 unknown #
point $-1 28.10999999999999943 21.5 3.099999999999999645 #
point $-1 28.10999999999999943 8.5 3.099999999999999645 #
straight-curve $-1 2 23.5 3.099999999999999645 0 1 0 I I #
point $-1 2 35 3.099999999999999645 #
face $-1 $395 $396 $2 $-1 $397 forward single #
loop $-1 $-1 $398 $329 #
plane-surface $-1 47 8.5 3 0 1 0 -1 0 0 forward_v I I I I #
coedge $-1 $371 $399 $400 $401 forward $330 $-1 #
coedge $-1 $402 $332 $403 $404 forward $292 $-1 #
coedge $-1 $332 $402 $405 $406 forward $292 $-1 #
coedge $-1 $407 $368 $332 $372 reversed $330 $-1 #
edge $-1 $408 0 $409 26.5 $332 $410 forward 7 unknown #
face $-1 $387 $380 $2 $-1 $411 forward single #
plane-surface $-1 28.10999999999999943 8.5 3 0 1 0 -1 0 0 forward_v I I I I #
straight-curve $-1 2 23.5 3 0 1 0 I I #
point $-1 2 35 3 #
straight-curve $-1 2 35 3 1 0 0 I I #
coedge $-1 $412 $346 $349 $383 reversed $380 $-1 #
coedge $-1 $346 $412 $353 $386 forward $380 $-1 #
loop $-1 $-1 $379 $373 #
straight-curve $-1 2 8.5 3.099999999999999645 0 1 0 I I #
coedge $-1 $349 $348 $413 $414 forward $350 $-1 #
edge $-1 $415 0 $351 0.09999999999999964473 $349 $416 forward 7 unknown #
point $-1 2 8.5 3.099999999999999645 #
coedge $-1 $354 $353 $417 $418 forward $355 $-1 #
edge $-1 $419 0 $356 0.09999999999999964473 $353 $420 forward 7 unknown #
face $-1 $421 $355 $2 $-1 $422 forward single #
point $-1 2 21.5 3.099999999999999645 #
coedge $-1 $417 $413 $358 $390 reversed $423 $-1 #
edge $-1 $391 0 $393 13 $389 $424 forward 7 unknown #
vertex $-1 $418 $425 #
straight-curve $-1 28.10999999999999943 21.5 3 0 0 1 I I #
vertex $-1 $390 $426 #
straight-curve $-1 28.10999999999999943 8.5 3 0 0 1 I I #
face $-1 $427 $428 $2 $-1 $429 forward single #
loop $-1 $-1 $430 $365 #
plane-surface $-1 33 8.5 3 1 0 0 0 1 0 forward_v I I I I #
coedge $-1 $403 $431 $432 $433 forward $366 $-1 #
coedge $-1 $368 $407 $434 $435 forward $330 $-1 #
coedge $-1 $431 $403 $368 $401 reversed $366 $-1 #
edge $-1 $436 0 $409 0.09999999999999964473 $368 $437 forward 7 unknown #
coedge $-1 $370 $369 $438 $439 forward $292 $-1 #
coedge $-1 $400 $398 $369 $404 reversed $366 $-1 #
edge $-1 $409 0 $440 14 $369 $441 forward 7 unknown #
coedge $-1 $442 $443 $370 $406 reversed $428 $-1 #
edge $-1 $444 0 $408 14 $370 $445 forward 7 unknown #
coedge $-1 $399 $371 $443 $446 reversed $330 $-1 #
vertex $-1 $406 $447 #
vertex $-1 $404 $448 #
straight-curve $-1 47 35 3.099999999999999645 0 -1 0 I I #
plane-surface $-1 2 8.5 3 1 0 0 0 1 0 forward_v I I I I #
coedge $-1 $379 $378 $449 $450 forward $380 $-1 #
coedge $-1 $389 $449 $382 $414 reversed $423 $-1 #
edge $-1 $393 0 $415 26.10999999999999943 $413 $451 forward 7 unknown #
vertex $-1 $414 $452 #
straight-curve $-1 2 8.5 3 0 0 1 I I #
coedge $-1 $449 $389 $385 $418 reversed $423 $-1 #
edge $-1 $419 0 $391 26.10999999999999943 $417 $453 forward 7 unknown #
vertex $-1 $418 $454 #
straight-curve $-1 2 21.5 3 0 0 1 I I #
face $-1 $197 $423 $2 $-1 $455 forward single #
plane-surface $-1 2 21.5 3 0 -1 0 1 0 0 forward_v I I I I #
loop $-1 $-1 $449 $421 #
straight-curve $-1 28.10999999999999943 21.5 3 0 -1 0 I I #
point $-1 28.10999999999999943 21.5 3 #
point $-1 28.10999999999999943 8.5 3 #
face $-1 $-1 $456 $2 $-1 $457 forward single #
loop $-1 $-1 $443 $395 #
plane-surface $-1 33 35 3 0 -1 0 1 0 0 forward_v I I I I #
coedge $-1 $438 $458 $442 $459 forward $396 $-1 #
coedge $-1 $398 $400 $460 $461 forward $366 $-1 #
coedge $-1 $458 $438 $398 $433 reversed $396 $-1 #
edge $-1 $462 0 $440 0.09999999999999964473 $398 $463 forward 7 unknown #
coedge $-1 $464 $460 $399 $435 reversed $456 $-1 #
edge $-1 $465 0 $436 26.5 $434 $466 forward 7 unknown #
vertex $-1 $435 $467 #
straight-curve $-1 47 8.5 3 0 0 1 I I #
coedge $-1 $432 $430 $402 $439 reversed $396 $-1 #
edge $-1 $440 0 $444 26.5 $402 $468 forward 7 unknown #
vertex $-1 $439 $469 #
straight-curve $-1 47 8.5 3.099999999999999645 -1 0 0 I I #
coedge $-1 $470 $405 $430 $459 reversed $428 $-1 #
coedge $-1 $405 $470 $407 $446 forward $428 $-1 #
vertex $-1 $406 $471 #
straight-curve $-1 33 35 3.099999999999999645 1 0 0 I I #
edge $-1 $465 0 $408 0.09999999999999964473 $443 $472 forward 7 unknown #
point $-1 47 35 3.099999999999999645 #
point $-1 47 8.5 3.099999999999999645 #
coedge $-1 $413 $417 $412 $450 reversed $423 $-1 #
edge $-1 $415 0 $419 13 $449 $473 forward 7 unknown #
straight-curve $-1 28.10999999999999943 8.5 3 -1 0 0 I I #
point $-1 2 8.5 3 #
straight-curve $-1 2 21.5 3 1 0 0 I I #
point $-1 2 21.5 3 #
plane-surface $-1 0 0 3 0 0 1 1 0 0 forward_v I I I I #
loop $-1 $-1 $474 $427 #
plane-surface $-1 0 0 3 0 0 1 1 0 0 forward_v I I I I #
coedge $-1 $430 $432 $474 $475 forward $396 $-1 #
edge $-1 $476 0 $444 0.09999999999999964473 $442 $477 forward 7 unknown #
coedge $-1 $434 $474 $431 $461 reversed $456 $-1 #
edge $-1 $436 0 $462 14 $460 $478 forward 7 unknown #
vertex $-1 $461 $479 #
straight-curve $-1 33 8.5 3 0 0 1 I I #
coedge $-1 $474 $434 $470 $480 reversed $456 $-1 #
vertex $-1 $480 $481 #
straight-curve $-1 47 35 3 0 -1 0 I I #
point $-1 47 8.5 3 #
straight-curve $-1 33 8.5 3.099999999999999645 0 1 0 I I #
point $-1 33 8.5 3.099999999999999645 #
coedge $-1 $443 $442 $464 $480 forward $428 $-1 #
point $-1 33 35 3.099999999999999645 #
straight-curve $-1 47 35 3 0 0 1 I I #
straight-curve $-1 2 8.5 3 0 1 0 I I #
coedge $-1 $460 $464 $458 $475 reversed $456 $-1 #
edge $-1 $462 0 $476 26.5 $474 $482 forward 7 unknown #
vertex $-1 $480 $483 #
straight-curve $-1 33 35 3 0 0 1 I I #
straight-curve $-1 47 8.5 3 -1 0 0 I I #
point $-1 33 8.5 3 #
edge $-1 $476 0 $465 14 $464 $484 forward 7 unknown #
point $-1 47 35 3 #
straight-curve $-1 33 8.5 3 0 1 0 I I #
point $-1 33 35 3 #
straight-curve $-1 33 35 3 1 0 0 I I #
End-of-ACIS-data 