600 0 1 0           
93 GICL ACIS Healer - Source: /gicl/data5/repository/PTC/V18/cabecad18/ptc_comp/soic16.sat - 6 0 18 ACIS 6.0.3 Solaris 24 Sat Apr 13 22:25:20 2002 
1 9.999999999999999547e-07 1.000000000000000036e-10 
body $-1 $1 $-1 $-1 #
lump $-1 $-1 $2 $0 #
shell $-1 $-1 $-1 $3 $-1 $1 #
face $-1 $4 $5 $2 $-1 $6 reversed single #
face $-1 $7 $8 $2 $-1 $9 forward single #
loop $-1 $-1 $10 $3 #
plane-surface $-1 0 0 0 0 0 1 25.39999999999999858 0 0 forward_v I I I I #
face $-1 $11 $12 $2 $-1 $13 forward single #
loop $-1 $-1 $14 $4 #
plane-surface $-1 6.857999999999999652 0.6349999999999998979 0 0 1 0 -25.39999999999999858 0 0 forward_v I I I I #
coedge $-1 $15 $16 $17 $18 reversed $5 $-1 #
face $-1 $19 $20 $2 $-1 $21 forward single #
loop $-1 $-1 $22 $7 #
plane-surface $-1 -1.269999999999999796 0.6349999999999998979 0 -1 0 0 0 -25.39999999999999858 0 forward_v I I I I #
coedge $-1 $23 $17 $24 $25 forward $8 $-1 #
coedge $-1 $26 $10 $27 $28 reversed $5 $-1 #
coedge $-1 $10 $26 $29 $30 reversed $5 $-1 #
coedge $-1 $14 $31 $10 $18 forward $8 $-1 #
edge $-1 $32 0 $33 0.3200000000000000067 $10 $34 forward 7 unknown #
face $-1 $35 $36 $2 $-1 $37 forward single #
loop $-1 $-1 $38 $11 #
plane-surface $-1 -1.269999999999999796 -9.524999999999998579 0 0 -1 0 25.39999999999999858 0 0 forward_v I I I I #
coedge $-1 $39 $29 $40 $41 forward $12 $-1 #
coedge $-1 $31 $14 $42 $43 reversed $8 $-1 #
coedge $-1 $29 $39 $14 $25 reversed $12 $-1 #
edge $-1 $33 0 $44 0.07000000000000000666 $24 $45 forward 7 unknown #
coedge $-1 $16 $15 $46 $47 reversed $5 $-1 #
coedge $-1 $48 $49 $15 $28 forward $36 $-1 #
edge $-1 $50 0 $32 0.3999999999999999667 $15 $51 forward 7 unknown #
coedge $-1 $22 $24 $16 $30 forward $12 $-1 #
edge $-1 $33 0 $52 0.3999999999999999667 $16 $53 forward 7 unknown #
coedge $-1 $17 $23 $48 $54 reversed $8 $-1 #
vertex $-1 $28 $55 #
vertex $-1 $30 $56 #
straight-curve $-1 6.857999999999999652 0.6349999999999998979 0 -25.39999999999999858 0 0 I I #
face $-1 $-1 $57 $2 $-1 $58 forward single #
loop $-1 $-1 $48 $19 #
plane-surface $-1 6.857999999999999652 -9.524999999999998579 0 1 0 0 0 25.39999999999999858 0 forward_v I I I I #
coedge $-1 $59 $46 $49 $60 forward $20 $-1 #
coedge $-1 $24 $22 $61 $62 reversed $12 $-1 #
coedge $-1 $46 $59 $22 $41 reversed $20 $-1 #
edge $-1 $52 0 $63 0.07000000000000000666 $22 $64 forward 7 unknown #
coedge $-1 $61 $65 $23 $43 forward $57 $-1 #
edge $-1 $66 0 $44 0.3200000000000000067 $42 $67 forward 7 unknown #
vertex $-1 $62 $68 #
straight-curve $-1 -1.269999999999999574 0.6349999999999998979 0 0 0 25.39999999999999858 I I #
coedge $-1 $38 $40 $26 $47 forward $20 $-1 #
edge $-1 $52 0 $50 0.3200000000000000067 $26 $69 forward 7 unknown #
coedge $-1 $70 $27 $31 $54 forward $36 $-1 #
coedge $-1 $27 $70 $38 $60 reversed $36 $-1 #
vertex $-1 $47 $71 #
straight-curve $-1 6.857999999999999652 -9.524999999999998579 0 0 25.39999999999999858 0 I I #
vertex $-1 $30 $72 #
straight-curve $-1 -1.269999999999999796 0.6349999999999998979 0 0 -25.39999999999999858 0 I I #
edge $-1 $32 0 $66 0.07000000000000000666 $48 $73 forward 7 unknown #
point $-1 6.857999999999999652 0.6349999999999998979 0 #
point $-1 -1.269999999999999796 0.6349999999999998979 0 #
loop $-1 $-1 $74 $35 #
plane-surface $-1 0 0 1.778000000000000025 0 0 1 25.39999999999999858 0 0 forward_v I I I I #
coedge $-1 $40 $38 $74 $75 reversed $20 $-1 #
edge $-1 $50 0 $76 0.07000000000000000666 $38 $77 forward 7 unknown #
coedge $-1 $74 $42 $39 $62 forward $57 $-1 #
edge $-1 $44 0 $63 0.3999999999999999667 $61 $78 forward 7 unknown #
vertex $-1 $62 $79 #
straight-curve $-1 -1.269999999999999796 -9.524999999999998579 0 0 0 25.39999999999999858 I I #
coedge $-1 $42 $74 $70 $80 forward $57 $-1 #
vertex $-1 $43 $81 #
straight-curve $-1 6.857999999999999652 0.6349999999999998979 1.778000000000000025 -25.39999999999999858 0 0 I I #
point $-1 -1.269999999999999796 0.6349999999999998979 1.778000000000000025 #
straight-curve $-1 -1.269999999999999796 -9.524999999999998579 0 25.39999999999999858 0 0 I I #
coedge $-1 $49 $48 $65 $80 reversed $36 $-1 #
point $-1 6.857999999999999652 -9.524999999999998579 0 #
point $-1 -1.269999999999999796 -9.524999999999998579 0 #
straight-curve $-1 6.857999999999999652 0.635000000000000564 0 0 0 25.39999999999999858 I I #
coedge $-1 $65 $61 $59 $75 forward $57 $-1 #
edge $-1 $63 0 $76 0.3200000000000000067 $74 $82 forward 7 unknown #
vertex $-1 $80 $83 #
straight-curve $-1 6.857999999999999652 -9.524999999999998579 0 0 0 25.39999999999999858 I I #
straight-curve $-1 -1.269999999999999796 0.6349999999999998979 1.778000000000000025 0 -25.39999999999999858 0 I I #
point $-1 -1.269999999999999796 -9.524999999999998579 1.778000000000000025 #
edge $-1 $76 0 $66 0.3999999999999999667 $65 $84 forward 7 unknown #
point $-1 6.857999999999999652 0.6349999999999998979 1.778000000000000025 #
straight-curve $-1 -1.269999999999999796 -9.524999999999998579 1.778000000000000025 25.39999999999999858 0 0 I I #
point $-1 6.857999999999999652 -9.524999999999998579 1.778000000000000025 #
straight-curve $-1 6.857999999999999652 -9.524999999999998579 1.778000000000000025 0 25.39999999999999858 0 I I #
End-of-ACIS-data 