600 0 1 0           
100 GICL Pro/E ACIS Translator - Source: f:/data5/repository/PTC/V18/cabecad18/ptc_comp/soic16.prt - 6 0 13 ACIS 6.0.3 NT 24 Thu Apr 04 10:02:54 2002 
1 9.9999999999999995e-007 1e-010 
body $-1 $1 $-1 $2 #
lump $-1 $-1 $3 $0 #
transform $-1 1 0 0 0 1 0 0 0 1 0 0 0 25.399999999999999 no_rotate no_reflect no_shear #
shell $-1 $-1 $-1 $4 $-1 $1 #
face $-1 $5 $6 $3 $-1 $7 reversed single #
face $-1 $8 $9 $3 $-1 $10 forward single #
loop $-1 $-1 $11 $4 #
plane-surface $-1 0 0 0 0 0 1 1 0 0 forward_v I I I I #
face $-1 $12 $13 $3 $-1 $14 forward single #
loop $-1 $-1 $15 $5 #
plane-surface $-1 0.27000000000000002 0.024999999999999998 0 0 1 0 -1 0 0 forward_v I I I I #
coedge $-1 $16 $17 $18 $19 reversed $6 $-1 #
face $-1 $20 $21 $3 $-1 $22 forward single #
loop $-1 $-1 $23 $8 #
plane-surface $-1 -0.049999999999999996 0.024999999999999998 0 -1 0 0 0 -1 0 forward_v I I I I #
coedge $-1 $24 $18 $25 $26 forward $9 $-1 #
coedge $-1 $27 $11 $28 $29 reversed $6 $-1 #
coedge $-1 $11 $27 $30 $31 reversed $6 $-1 #
coedge $-1 $15 $32 $11 $19 forward $9 $-1 #
edge $-1 $33 0 $34 0.32000000000000001 $11 $35 forward 7 unknown #
face $-1 $36 $37 $3 $-1 $38 forward single #
loop $-1 $-1 $39 $12 #
plane-surface $-1 -0.049999999999999996 -0.375 0 0 -1 0 1 0 0 forward_v I I I I #
coedge $-1 $40 $30 $41 $42 forward $13 $-1 #
coedge $-1 $32 $15 $43 $44 reversed $9 $-1 #
coedge $-1 $30 $40 $15 $26 reversed $13 $-1 #
edge $-1 $34 0 $45 0.070000000000000007 $25 $46 forward 7 unknown #
coedge $-1 $17 $16 $47 $48 reversed $6 $-1 #
coedge $-1 $49 $50 $16 $29 forward $37 $-1 #
edge $-1 $51 0 $33 0.40000000000000002 $16 $52 forward 7 unknown #
coedge $-1 $23 $25 $17 $31 forward $13 $-1 #
edge $-1 $34 0 $53 0.40000000000000002 $17 $54 forward 7 unknown #
coedge $-1 $18 $24 $49 $55 reversed $9 $-1 #
vertex $-1 $29 $56 #
vertex $-1 $31 $57 #
straight-curve $-1 0.27000000000000002 0.024999999999999998 0 -1 0 0 I I #
face $-1 $-1 $58 $3 $-1 $59 forward single #
loop $-1 $-1 $49 $20 #
plane-surface $-1 0.27000000000000002 -0.375 0 1 0 0 0 1 0 forward_v I I I I #
coedge $-1 $60 $47 $50 $61 forward $21 $-1 #
coedge $-1 $25 $23 $62 $63 reversed $13 $-1 #
coedge $-1 $47 $60 $23 $42 reversed $21 $-1 #
edge $-1 $53 0 $64 0.070000000000000007 $23 $65 forward 7 unknown #
coedge $-1 $62 $66 $24 $44 forward $58 $-1 #
edge $-1 $67 0 $45 0.32000000000000001 $43 $68 forward 7 unknown #
vertex $-1 $63 $69 #
straight-curve $-1 -0.049999999999999989 0.024999999999999998 0 0 0 1 I I #
coedge $-1 $39 $41 $27 $48 forward $21 $-1 #
edge $-1 $53 0 $51 0.32000000000000001 $27 $70 forward 7 unknown #
coedge $-1 $71 $28 $32 $55 forward $37 $-1 #
coedge $-1 $28 $71 $39 $61 reversed $37 $-1 #
vertex $-1 $48 $72 #
straight-curve $-1 0.27000000000000002 -0.375 0 0 1 0 I I #
vertex $-1 $31 $73 #
straight-curve $-1 -0.049999999999999996 0.024999999999999998 0 0 -1 0 I I #
edge $-1 $33 0 $67 0.070000000000000007 $49 $74 forward 7 unknown #
point $-1 0.27000000000000002 0.024999999999999998 0 #
point $-1 -0.049999999999999996 0.024999999999999998 0 #
loop $-1 $-1 $75 $36 #
plane-surface $-1 0 0 0.070000000000000007 0 0 1 1 0 0 forward_v I I I I #
coedge $-1 $41 $39 $75 $76 reversed $21 $-1 #
edge $-1 $51 0 $77 0.070000000000000007 $39 $78 forward 7 unknown #
coedge $-1 $75 $43 $40 $63 forward $58 $-1 #
edge $-1 $45 0 $64 0.40000000000000002 $62 $79 forward 7 unknown #
vertex $-1 $63 $80 #
straight-curve $-1 -0.049999999999999996 -0.375 0 0 0 1 I I #
coedge $-1 $43 $75 $71 $81 forward $58 $-1 #
vertex $-1 $44 $82 #
straight-curve $-1 0.27000000000000002 0.024999999999999998 0.070000000000000007 -1 0 0 I I #
point $-1 -0.049999999999999996 0.024999999999999998 0.070000000000000007 #
straight-curve $-1 -0.049999999999999996 -0.375 0 1 0 0 I I #
coedge $-1 $50 $49 $66 $81 reversed $37 $-1 #
point $-1 0.27000000000000002 -0.375 0 #
point $-1 -0.049999999999999996 -0.375 0 #
straight-curve $-1 0.27000000000000002 0.025000000000000022 0 0 0 1 I I #
coedge $-1 $66 $62 $60 $76 forward $58 $-1 #
edge $-1 $64 0 $77 0.32000000000000001 $75 $83 forward 7 unknown #
vertex $-1 $81 $84 #
straight-curve $-1 0.27000000000000002 -0.375 0 0 0 1 I I #
straight-curve $-1 -0.049999999999999996 0.024999999999999998 0.070000000000000007 0 -1 0 I I #
point $-1 -0.049999999999999996 -0.375 0.070000000000000007 #
edge $-1 $77 0 $67 0.40000000000000002 $66 $85 forward 7 unknown #
point $-1 0.27000000000000002 0.024999999999999998 0.070000000000000007 #
straight-curve $-1 -0.049999999999999996 -0.375 0.070000000000000007 1 0 0 I I #
point $-1 0.27000000000000002 -0.375 0.070000000000000007 #
straight-curve $-1 0.27000000000000002 -0.375 0.070000000000000007 0 1 0 I I #
End-of-ACIS-data 