600 0 1 0           
94 GICL ACIS Healer - Source: /gicl/data5/repository/PTC/V18/cabecad18/ptc_comp/sq_conn.sat - 6 0 18 ACIS 6.0.3 Solaris 24 Sat Apr 13 22:25:22 2002 
1 9.999999999999999547e-07 1.000000000000000036e-10 
body $-1 $1 $-1 $-1 #
lump $-1 $-1 $2 $0 #
shell $-1 $-1 $-1 $3 $-1 $1 #
face $-1 $4 $5 $2 $-1 $6 forward single #
face $-1 $7 $8 $2 $-1 $9 reversed single #
loop $-1 $10 $11 $3 #
plane-surface $-1 0 6.095999999999999197 0 0 1 0 0.7619999999999998996 0 0 forward_v I I I I #
face $-1 $12 $13 $2 $-1 $14 reversed single #
loop $-1 $-1 $15 $4 #
cone-surface $-1 3.047999999999999599 6.095999999999999197 -3.047999999999999599 0 -1 0 0.3809999999999999498 0 0 1 I I 0 1 0.3809999999999999498 forward I I I I #
loop $-1 $16 $17 $3 #
coedge $-1 $18 $18 $19 $20 forward $5 $-1 #
face $-1 $21 $22 $2 $-1 $23 reversed single #
loop $-1 $-1 $24 $7 #
cone-surface $-1 3.047999999999999599 6.095999999999999197 -3.047999999999999599 0 -1 0 0.3809999999999999498 0 0 1 I I 0 1 0.3809999999999999498 forward I I I I #
coedge $-1 $25 $19 $26 $27 forward $8 $-1 #
loop $-1 $28 $29 $3 #
coedge $-1 $30 $30 $31 $32 forward $10 $-1 #
coedge $-1 $11 $11 $33 $34 forward $5 $-1 #
coedge $-1 $15 $35 $11 $20 reversed $8 $-1 #
edge $-1 $36 0 $37 3.141592653589793116 $11 $38 forward 7 unknown #
face $-1 $39 $40 $2 $-1 $41 reversed single #
loop $-1 $-1 $42 $12 #
plane-surface $-1 3.047999999999999599 1.523999999999999799 -3.047999999999999599 0 -1 0 0.7619999999999998996 0 0 forward_v I I I I #
coedge $-1 $43 $33 $35 $44 forward $13 $-1 #
coedge $-1 $35 $15 $42 $45 forward $8 $-1 #
coedge $-1 $33 $43 $15 $27 reversed $13 $-1 #
edge $-1 $36 0 $46 6 $26 $47 forward 7 unknown #
loop $-1 $-1 $48 $3 #
coedge $-1 $49 $50 $51 $52 forward $16 $-1 #
coedge $-1 $17 $17 $53 $54 forward $10 $-1 #
coedge $-1 $55 $56 $17 $32 reversed $40 $-1 #
edge $-1 $57 0 $58 3.141592653589793116 $17 $59 forward 7 unknown #
coedge $-1 $24 $26 $18 $34 reversed $13 $-1 #
edge $-1 $37 0 $36 3.141592653589793116 $18 $60 forward 7 unknown #
coedge $-1 $19 $25 $24 $44 reversed $8 $-1 #
vertex $-1 $34 $61 #
vertex $-1 $34 $62 #
ellipse-curve $-1 3.047999999999999599 6.095999999999999197 -3.047999999999999599 0 -1 0 -0.3809999999999999498 0 0 1 I I #
face $-1 $63 $64 $2 $-1 $65 reversed single #
loop $-1 $-1 $55 $21 #
cone-surface $-1 7.619999999999999218 6.095999999999999197 -3.047999999999999599 0 -1 0 0.3809999999999999498 0 0 1 I I 0 1 0.3809999999999999498 forward I I I I #
coedge $-1 $66 $66 $25 $45 reversed $22 $-1 #
coedge $-1 $26 $24 $66 $67 forward $13 $-1 #
edge $-1 $37 0 $68 6 $24 $69 forward 7 unknown #
edge $-1 $46 0 $68 3.141592653589793116 $42 $70 forward 7 unknown #
vertex $-1 $67 $71 #
straight-curve $-1 2.666999999999999815 6.095999999999999197 -3.047999999999999599 0 -0.7619999999999998996 0 I I #
coedge $-1 $72 $72 $73 $74 forward $28 $-1 #
coedge $-1 $75 $29 $76 $77 forward $16 $-1 #
coedge $-1 $29 $75 $78 $79 forward $16 $-1 #
coedge $-1 $80 $81 $29 $52 reversed $82 $-1 #
edge $-1 $83 0 $84 20 $29 $85 forward 7 unknown #
coedge $-1 $86 $87 $30 $54 reversed $64 $-1 #
edge $-1 $58 0 $57 3.141592653589793116 $30 $88 forward 7 unknown #
coedge $-1 $89 $31 $87 $90 forward $40 $-1 #
coedge $-1 $31 $89 $86 $91 reversed $40 $-1 #
vertex $-1 $54 $92 #
vertex $-1 $54 $93 #
ellipse-curve $-1 7.619999999999999218 6.095999999999999197 -3.047999999999999599 0 -1 0 -0.3809999999999999498 0 0 1 I I #
ellipse-curve $-1 3.047999999999999599 6.095999999999999197 -3.047999999999999599 0 -1 0 0.3809999999999999498 0 0 1 I I #
point $-1 2.666999999999999815 6.095999999999999197 -3.047999999999999599 #
point $-1 3.428999999999999382 6.095999999999999197 -3.047999999999999599 #
face $-1 $94 $95 $2 $-1 $96 reversed single #
loop $-1 $-1 $86 $39 #
cone-surface $-1 7.619999999999999218 6.095999999999999197 -3.047999999999999599 0 -1 0 0.3809999999999999498 0 0 1 I I 0 1 0.3809999999999999498 forward I I I I #
coedge $-1 $42 $42 $43 $67 reversed $22 $-1 #
edge $-1 $68 0 $46 3.141592653589793116 $66 $97 forward 7 unknown #
vertex $-1 $67 $98 #
straight-curve $-1 3.428999999999999382 6.095999999999999197 -3.047999999999999599 0 -0.7619999999999998996 0 I I #
ellipse-curve $-1 3.047999999999999599 1.523999999999999799 -3.047999999999999599 0 -1 0 -0.3809999999999999498 0 0 1 I I #
point $-1 2.666999999999999815 1.523999999999999799 -3.047999999999999599 #
coedge $-1 $48 $48 $99 $100 forward $28 $-1 #
coedge $-1 $101 $102 $48 $74 reversed $103 $-1 #
edge $-1 $104 0 $105 3.141592653589793116 $48 $106 forward 7 unknown #
coedge $-1 $50 $49 $107 $108 forward $16 $-1 #
coedge $-1 $109 $110 $49 $77 reversed $111 $-1 #
edge $-1 $84 0 $112 8 $49 $113 forward 7 unknown #
coedge $-1 $114 $115 $50 $79 reversed $116 $-1 #
edge $-1 $117 0 $83 8 $50 $118 forward 7 unknown #
coedge $-1 $119 $51 $115 $120 reversed $82 $-1 #
coedge $-1 $51 $119 $109 $121 forward $82 $-1 #
loop $-1 $-1 $81 $94 #
vertex $-1 $79 $122 #
vertex $-1 $77 $123 #
straight-curve $-1 0 6.095999999999999197 0 0.7619999999999998996 0 0 I I #
coedge $-1 $124 $53 $56 $91 forward $64 $-1 #
coedge $-1 $53 $124 $55 $90 reversed $64 $-1 #
ellipse-curve $-1 7.619999999999999218 6.095999999999999197 -3.047999999999999599 0 -1 0 0.3809999999999999498 0 0 1 I I #
coedge $-1 $56 $55 $125 $126 forward $40 $-1 #
edge $-1 $57 0 $127 6 $87 $128 forward 7 unknown #
edge $-1 $58 0 $129 6 $86 $130 forward 7 unknown #
point $-1 7.238999999999998991 6.095999999999999197 -3.047999999999999599 #
point $-1 8.000999999999999446 6.095999999999999197 -3.047999999999999599 #
face $-1 $131 $82 $2 $-1 $132 forward single #
loop $-1 $-1 $125 $63 #
plane-surface $-1 7.619999999999999218 1.523999999999999799 -3.047999999999999599 0 -1 0 0.7619999999999998996 0 0 forward_v I I I I #
ellipse-curve $-1 3.047999999999999599 1.523999999999999799 -3.047999999999999599 0 -1 0 0.3809999999999999498 0 0 1 I I #
point $-1 3.428999999999999382 1.523999999999999799 -3.047999999999999599 #
coedge $-1 $133 $134 $72 $100 reversed $135 $-1 #
edge $-1 $105 0 $104 3.141592653589793116 $72 $136 forward 7 unknown #
coedge $-1 $137 $73 $134 $138 forward $103 $-1 #
coedge $-1 $73 $137 $133 $139 reversed $103 $-1 #
loop $-1 $-1 $101 $140 #
vertex $-1 $100 $141 #
vertex $-1 $100 $142 #
ellipse-curve $-1 12.19199999999999839 6.095999999999999197 -3.047999999999999599 0 -1 0 -0.3809999999999999498 0 0 1 I I #
coedge $-1 $143 $144 $75 $108 reversed $145 $-1 #
edge $-1 $112 0 $117 20 $75 $146 forward 7 unknown #
coedge $-1 $147 $76 $81 $121 reversed $111 $-1 #
coedge $-1 $76 $147 $143 $148 forward $111 $-1 #
loop $-1 $-1 $110 $131 #
vertex $-1 $108 $149 #
straight-curve $-1 15.23999999999999844 6.095999999999999197 0 0 0 -0.7619999999999998996 I I #
coedge $-1 $150 $78 $144 $151 reversed $116 $-1 #
coedge $-1 $78 $150 $80 $120 forward $116 $-1 #
loop $-1 $-1 $115 $152 #
vertex $-1 $79 $153 #
straight-curve $-1 0 6.095999999999999197 -6.095999999999999197 0 0 0.7619999999999998996 I I #
coedge $-1 $81 $80 $154 $155 forward $82 $-1 #
edge $-1 $156 0 $83 8 $115 $157 forward 7 unknown #
edge $-1 $158 0 $84 8 $81 $159 forward 7 unknown #
point $-1 0 6.095999999999999197 0 #
point $-1 15.23999999999999844 6.095999999999999197 0 #
coedge $-1 $87 $86 $160 $161 forward $64 $-1 #
coedge $-1 $160 $160 $89 $126 reversed $95 $-1 #
edge $-1 $127 -5.548201151932526693e-16 $129 3.141592653589797113 $125 $162 forward 7 unknown #
vertex $-1 $161 $163 #
straight-curve $-1 7.238999999999998991 6.095999999999999197 -3.047999999999999599 0 -0.7619999999999998996 0 I I #
vertex $-1 $161 $164 #
straight-curve $-1 8.000999999999999446 6.095999999999999197 -3.047999999999999599 0 -0.7619999999999998996 0 I I #
face $-1 $165 $111 $2 $-1 $166 forward single #
plane-surface $-1 0 0 0 0 0 1 0.7619999999999998996 0 0 forward_v I I I I #
coedge $-1 $167 $99 $102 $139 forward $135 $-1 #
coedge $-1 $99 $167 $101 $138 reversed $135 $-1 #
loop $-1 $-1 $133 $168 #
ellipse-curve $-1 12.19199999999999839 6.095999999999999197 -3.047999999999999599 0 -1 0 0.3809999999999999498 0 0 1 I I #
coedge $-1 $102 $101 $169 $170 forward $103 $-1 #
edge $-1 $104 0 $171 6 $134 $172 forward 7 unknown #
edge $-1 $105 0 $173 6 $133 $174 forward 7 unknown #
face $-1 $168 $103 $2 $-1 $175 reversed single #
point $-1 11.81099999999999817 6.095999999999999197 -3.047999999999999599 #
point $-1 12.57299999999999862 6.095999999999999197 -3.047999999999999599 #
coedge $-1 $176 $107 $110 $148 reversed $145 $-1 #
coedge $-1 $107 $176 $114 $151 forward $145 $-1 #
loop $-1 $-1 $144 $165 #
straight-curve $-1 15.23999999999999844 6.095999999999999197 -6.095999999999999197 -0.7619999999999998996 0 0 I I #
coedge $-1 $110 $109 $177 $178 forward $111 $-1 #
edge $-1 $179 0 $112 8 $110 $180 forward 7 unknown #
point $-1 15.23999999999999844 6.095999999999999197 -6.095999999999999197 #
coedge $-1 $115 $114 $181 $182 forward $116 $-1 #
edge $-1 $183 0 $117 8 $114 $184 forward 7 unknown #
face $-1 $185 $116 $2 $-1 $186 forward single #
point $-1 0 6.095999999999999197 -6.095999999999999197 #
coedge $-1 $181 $177 $119 $155 reversed $187 $-1 #
edge $-1 $156 0 $158 20 $119 $188 forward 7 unknown #
vertex $-1 $182 $189 #
straight-curve $-1 0 0 0 0 0.7619999999999998996 0 I I #
vertex $-1 $155 $190 #
straight-curve $-1 15.23999999999999844 0 0 0 0.7619999999999998996 0 I I #
coedge $-1 $125 $125 $124 $161 reversed $95 $-1 #
edge $-1 $129 0 $127 3.141592653589793116 $160 $191 forward 7 unknown #
ellipse-curve $-1 7.619999999999999218 1.523999999999999799 -3.048000000000000487 0 -1 0 -0.3809999999999999498 0 6.767919558114953379e-16 1 I I #
point $-1 7.238999999999998991 1.523999999999999799 -3.047999999999999599 #
point $-1 8.000999999999999446 1.523999999999999799 -3.047999999999999599 #
face $-1 $152 $145 $2 $-1 $192 forward single #
plane-surface $-1 15.23999999999999844 0 0 1 0 0 0 0 -0.7619999999999998996 forward_v I I I I #
coedge $-1 $134 $133 $193 $194 forward $135 $-1 #
face $-1 $195 $135 $2 $-1 $196 reversed single #
coedge $-1 $193 $193 $137 $170 reversed $197 $-1 #
edge $-1 $171 5.594824691024637632e-17 $173 3.141592653589800221 $169 $198 forward 7 unknown #
vertex $-1 $194 $199 #
straight-curve $-1 11.81099999999999817 6.095999999999999197 -3.047999999999999599 0 -0.7619999999999998996 0 I I #
vertex $-1 $194 $200 #
straight-curve $-1 12.57299999999999862 6.095999999999999197 -3.047999999999999599 0 -0.7619999999999998996 0 I I #
cone-surface $-1 12.19199999999999839 6.095999999999999197 -3.047999999999999599 0 -1 0 0.3809999999999999498 0 0 1 I I 0 1 0.3809999999999999498 forward I I I I #
coedge $-1 $144 $143 $201 $202 forward $145 $-1 #
coedge $-1 $154 $201 $147 $178 reversed $187 $-1 #
edge $-1 $158 0 $179 8 $147 $203 forward 7 unknown #
vertex $-1 $178 $204 #
straight-curve $-1 15.23999999999999844 0 -6.095999999999999197 0 0.7619999999999998996 0 I I #
coedge $-1 $201 $154 $150 $182 reversed $187 $-1 #
edge $-1 $183 0 $156 8 $150 $205 forward 7 unknown #
vertex $-1 $182 $206 #
straight-curve $-1 0 0 -6.095999999999999197 0 0.7619999999999998996 0 I I #
face $-1 $207 $208 $2 $-1 $209 reversed single #
plane-surface $-1 0 0 -6.095999999999999197 -1 0 0 0 0 0.7619999999999998996 forward_v I I I I #
loop $-1 $-1 $201 $185 #
straight-curve $-1 0 0 0 0.7619999999999998996 0 0 I I #
point $-1 0 0 0 #
point $-1 15.23999999999999844 0 0 #
ellipse-curve $-1 7.619999999999999218 1.523999999999999799 -3.047999999999999599 0 -1 0 0.3809999999999999498 0 0 1 I I #
plane-surface $-1 15.23999999999999844 0 -6.095999999999999197 0 0 -1 -0.7619999999999998996 0 0 forward_v I I I I #
coedge $-1 $169 $169 $167 $194 reversed $197 $-1 #
edge $-1 $173 5.548201151932526693e-16 $171 3.141592653589789119 $193 $210 forward 7 unknown #
face $-1 $-1 $197 $2 $-1 $211 reversed single #
cone-surface $-1 12.19199999999999839 6.095999999999999197 -3.047999999999999599 0 -1 0 0.3809999999999999498 0 0 1 I I 0 1 0.3809999999999999498 forward I I I I #
loop $-1 $-1 $169 $195 #
ellipse-curve $-1 12.19199999999999839 1.523999999999999799 -3.048000000000000931 0 -1 0 -0.3809999999999999498 0 1.353583911622990676e-15 1 I I #
point $-1 11.81099999999999817 1.523999999999999799 -3.047999999999999599 #
point $-1 12.57299999999999862 1.523999999999999799 -3.047999999999999599 #
coedge $-1 $177 $181 $176 $202 reversed $187 $-1 #
edge $-1 $179 0 $183 20 $176 $212 forward 7 unknown #
straight-curve $-1 15.23999999999999844 0 0 0 0 -0.7619999999999998996 I I #
point $-1 15.23999999999999844 0 -6.095999999999999197 #
straight-curve $-1 0 0 -6.095999999999999197 0 0 0.7619999999999998996 I I #
point $-1 0 0 -6.095999999999999197 #
face $-1 $213 $214 $2 $-1 $215 forward single #
loop $-1 $187 $216 $185 #
plane-surface $-1 0 0 0 0 -1 0 0.7619999999999998996 0 0 forward_v I I I I #
ellipse-curve $-1 12.19199999999999839 1.523999999999999799 -3.048000000000000487 0 -1 0 0.3809999999999999498 0 6.767919558114953379e-16 1 I I #
plane-surface $-1 12.19199999999999839 1.523999999999999799 -3.047999999999999599 0 -1 0 0.7619999999999998996 0 0 forward_v I I I I #
straight-curve $-1 15.23999999999999844 0 -6.095999999999999197 -0.7619999999999998996 0 0 I I #
face $-1 $217 $218 $2 $-1 $219 forward single #
loop $-1 $-1 $220 $207 #
plane-surface $-1 16.76399999999999935 0 1.523999999999999799 0 0 1 -0.7619999999999998996 0 0 forward_v I I I I #
coedge $-1 $221 $222 $223 $224 reversed $208 $-1 #
face $-1 $225 $226 $2 $-1 $227 forward single #
loop $-1 $-1 $228 $213 #
plane-surface $-1 -2.285999999999999588 0 1.523999999999999799 -1 0 0 0 0 -0.7619999999999998996 forward_v I I I I #
coedge $-1 $229 $223 $230 $231 forward $214 $-1 #
coedge $-1 $232 $216 $233 $234 reversed $208 $-1 #
coedge $-1 $216 $232 $235 $236 reversed $208 $-1 #
coedge $-1 $220 $237 $216 $224 forward $214 $-1 #
edge $-1 $238 0 $239 25 $216 $240 forward 7 unknown #
face $-1 $241 $242 $2 $-1 $243 forward single #
loop $-1 $-1 $244 $217 #
plane-surface $-1 -2.285999999999999588 0 -7.619999999999999218 0 0 -1 0.7619999999999998996 0 0 forward_v I I I I #
coedge $-1 $245 $235 $246 $247 forward $218 $-1 #
coedge $-1 $237 $220 $248 $249 reversed $214 $-1 #
coedge $-1 $235 $245 $220 $231 reversed $218 $-1 #
edge $-1 $239 0 $250 2 $230 $251 forward 7 unknown #
coedge $-1 $222 $221 $252 $253 reversed $208 $-1 #
coedge $-1 $254 $255 $221 $234 forward $242 $-1 #
edge $-1 $256 0 $238 12 $221 $257 forward 7 unknown #
coedge $-1 $228 $230 $222 $236 forward $218 $-1 #
edge $-1 $239 0 $258 12 $222 $259 forward 7 unknown #
coedge $-1 $223 $229 $254 $260 reversed $214 $-1 #
vertex $-1 $234 $261 #
vertex $-1 $236 $262 #
straight-curve $-1 16.76399999999999935 0 1.523999999999999799 -0.7619999999999998996 0 0 I I #
face $-1 $140 $263 $2 $-1 $264 forward single #
loop $-1 $-1 $254 $225 #
plane-surface $-1 16.76399999999999935 0 -7.619999999999999218 1 0 0 0 0 0.7619999999999998996 forward_v I I I I #
coedge $-1 $265 $252 $255 $266 forward $226 $-1 #
coedge $-1 $230 $228 $267 $268 reversed $218 $-1 #
coedge $-1 $252 $265 $228 $247 reversed $226 $-1 #
edge $-1 $258 0 $269 2 $228 $270 forward 7 unknown #
coedge $-1 $267 $271 $229 $249 forward $263 $-1 #
edge $-1 $272 0 $250 25 $248 $273 forward 7 unknown #
vertex $-1 $268 $274 #
straight-curve $-1 -2.285999999999999588 0 1.523999999999999799 0 -0.7619999999999998996 0 I I #
coedge $-1 $244 $246 $232 $253 forward $226 $-1 #
edge $-1 $258 0 $256 25 $232 $275 forward 7 unknown #
coedge $-1 $276 $233 $237 $260 forward $242 $-1 #
coedge $-1 $233 $276 $244 $266 reversed $242 $-1 #
vertex $-1 $253 $277 #
straight-curve $-1 16.76399999999999935 0 -7.619999999999999218 0 0 0.7619999999999998996 I I #
vertex $-1 $236 $278 #
straight-curve $-1 -2.285999999999999588 0 1.523999999999999799 0 0 -0.7619999999999998996 I I #
edge $-1 $238 0 $272 2 $254 $279 forward 7 unknown #
point $-1 16.76399999999999935 0 1.523999999999999799 #
point $-1 -2.285999999999999588 0 1.523999999999999799 #
loop $-1 $-1 $280 $241 #
plane-surface $-1 0 -1.523999999999999799 0 0 -1 0 0.7619999999999998996 0 0 forward_v I I I I #
coedge $-1 $246 $244 $280 $281 reversed $226 $-1 #
edge $-1 $256 0 $282 2 $244 $283 forward 7 unknown #
coedge $-1 $280 $248 $245 $268 forward $263 $-1 #
edge $-1 $250 0 $269 12 $267 $284 forward 7 unknown #
vertex $-1 $268 $285 #
straight-curve $-1 -2.285999999999999588 0 -7.619999999999999218 0 -0.7619999999999998996 0 I I #
coedge $-1 $248 $280 $276 $286 forward $263 $-1 #
vertex $-1 $249 $287 #
straight-curve $-1 16.76399999999999935 -1.523999999999999799 1.523999999999999799 -0.7619999999999998996 0 0 I I #
point $-1 -2.285999999999999588 -1.523999999999999799 1.523999999999999799 #
straight-curve $-1 -2.285999999999999588 0 -7.619999999999999218 0.7619999999999998996 0 0 I I #
coedge $-1 $255 $254 $271 $286 reversed $242 $-1 #
point $-1 16.76399999999999935 0 -7.619999999999999218 #
point $-1 -2.285999999999999588 0 -7.619999999999999218 #
straight-curve $-1 16.76399999999999935 0 1.523999999999999799 0 -0.7619999999999998996 0 I I #
coedge $-1 $271 $267 $265 $281 forward $263 $-1 #
edge $-1 $269 0 $282 25 $280 $288 forward 7 unknown #
vertex $-1 $286 $289 #
straight-curve $-1 16.76399999999999935 0 -7.619999999999999218 0 -0.7619999999999998996 0 I I #
straight-curve $-1 -2.285999999999999588 -1.523999999999999799 1.523999999999999799 0 0 -0.7619999999999998996 I I #
point $-1 -2.285999999999999588 -1.523999999999999799 -7.619999999999999218 #
edge $-1 $282 0 $272 12 $271 $290 forward 7 unknown #
point $-1 16.76399999999999935 -1.523999999999999799 1.523999999999999799 #
straight-curve $-1 -2.285999999999999588 -1.523999999999999799 -7.619999999999999218 0.7619999999999998996 0 0 I I #
point $-1 16.76399999999999935 -1.523999999999999799 -7.619999999999999218 #
straight-curve $-1 16.76399999999999935 -1.523999999999999799 -7.619999999999999218 0 0 0.7619999999999998996 I I #
End-of-ACIS-data 