600 0 1 0           
101 GICL Pro/E ACIS Translator - Source: f:/data5/repository/PTC/V18/cabecad18/ptc_comp/sq_conn.prt - 6 0 13 ACIS 6.0.3 NT 24 Thu Apr 04 13:39:41 2002 
1 9.9999999999999995e-007 1e-010 
body $-1 $1 $-1 $2 #
lump $-1 $-1 $3 $0 #
transform $-1 1 0 0 0 1 0 0 0 1 0 0 0 0.7619999999999999 no_rotate no_reflect no_shear #
shell $-1 $-1 $-1 $4 $-1 $1 #
face $-1 $5 $6 $3 $-1 $7 forward single #
face $-1 $8 $9 $3 $-1 $10 reversed single #
loop $-1 $11 $12 $4 #
plane-surface $-1 0 8 0 0 1 0 1 0 0 forward_v I I I I #
face $-1 $13 $14 $3 $-1 $15 reversed single #
loop $-1 $-1 $16 $5 #
cone-surface $-1 4 8 -4 0 -1 0 0.5 0 0 1 I I 0 1 0.5 forward I I I I #
loop $-1 $17 $18 $4 #
coedge $-1 $19 $19 $20 $21 forward $6 $-1 #
face $-1 $22 $23 $3 $-1 $24 reversed single #
loop $-1 $-1 $25 $8 #
cone-surface $-1 4 8 -4 0 -1 0 0.5 0 0 1 I I 0 1 0.5 forward I I I I #
coedge $-1 $26 $20 $27 $28 forward $9 $-1 #
loop $-1 $29 $30 $4 #
coedge $-1 $31 $31 $32 $33 forward $11 $-1 #
coedge $-1 $12 $12 $34 $35 forward $6 $-1 #
coedge $-1 $16 $36 $12 $21 reversed $9 $-1 #
edge $-1 $37 0 $38 3.1415926535897931 $12 $39 forward 7 unknown #
face $-1 $40 $41 $3 $-1 $42 reversed single #
loop $-1 $-1 $43 $13 #
plane-surface $-1 4 2 -4 0 -1 0 1 0 0 forward_v I I I I #
coedge $-1 $44 $34 $36 $45 forward $14 $-1 #
coedge $-1 $36 $16 $43 $46 forward $9 $-1 #
coedge $-1 $34 $44 $16 $28 reversed $14 $-1 #
edge $-1 $37 0 $47 6 $27 $48 forward 7 unknown #
loop $-1 $-1 $49 $4 #
coedge $-1 $50 $51 $52 $53 forward $17 $-1 #
coedge $-1 $18 $18 $54 $55 forward $11 $-1 #
coedge $-1 $56 $57 $18 $33 reversed $41 $-1 #
edge $-1 $58 0 $59 3.1415926535897931 $18 $60 forward 7 unknown #
coedge $-1 $25 $27 $19 $35 reversed $14 $-1 #
edge $-1 $38 0 $37 3.1415926535897931 $19 $61 forward 7 unknown #
coedge $-1 $20 $26 $25 $45 reversed $9 $-1 #
vertex $-1 $35 $62 #
vertex $-1 $35 $63 #
ellipse-curve $-1 4 8 -4 0 -1 0 -0.5 0 0 1 I I #
face $-1 $64 $65 $3 $-1 $66 reversed single #
loop $-1 $-1 $56 $22 #
cone-surface $-1 10 8 -4 0 -1 0 0.5 0 0 1 I I 0 1 0.5 forward I I I I #
coedge $-1 $67 $67 $26 $46 reversed $23 $-1 #
coedge $-1 $27 $25 $67 $68 forward $14 $-1 #
edge $-1 $38 0 $69 6 $25 $70 forward 7 unknown #
edge $-1 $47 0 $69 3.1415926535897931 $43 $71 forward 7 unknown #
vertex $-1 $68 $72 #
straight-curve $-1 3.5 8 -4 0 -1 0 I I #
coedge $-1 $73 $73 $74 $75 forward $29 $-1 #
coedge $-1 $76 $30 $77 $78 forward $17 $-1 #
coedge $-1 $30 $76 $79 $80 forward $17 $-1 #
coedge $-1 $81 $82 $30 $53 reversed $83 $-1 #
edge $-1 $84 0 $85 20 $30 $86 forward 7 unknown #
coedge $-1 $87 $88 $31 $55 reversed $65 $-1 #
edge $-1 $59 0 $58 3.1415926535897931 $31 $89 forward 7 unknown #
coedge $-1 $90 $32 $88 $91 forward $41 $-1 #
coedge $-1 $32 $90 $87 $92 reversed $41 $-1 #
vertex $-1 $55 $93 #
vertex $-1 $55 $94 #
ellipse-curve $-1 10 8 -4 0 -1 0 -0.5 0 0 1 I I #
ellipse-curve $-1 4 8 -4 0 -1 0 0.5 0 0 1 I I #
point $-1 3.5 8 -4 #
point $-1 4.5 8 -4 #
face $-1 $95 $96 $3 $-1 $97 reversed single #
loop $-1 $-1 $87 $40 #
cone-surface $-1 10 8 -4 0 -1 0 0.5 0 0 1 I I 0 1 0.5 forward I I I I #
coedge $-1 $43 $43 $44 $68 reversed $23 $-1 #
edge $-1 $69 0 $47 3.1415926535897931 $67 $98 forward 7 unknown #
vertex $-1 $68 $99 #
straight-curve $-1 4.5 8 -4 0 -1 0 I I #
ellipse-curve $-1 4 2 -4 0 -1 0 -0.5 0 0 1 I I #
point $-1 3.5 2 -4 #
coedge $-1 $49 $49 $100 $101 forward $29 $-1 #
coedge $-1 $102 $103 $49 $75 reversed $104 $-1 #
edge $-1 $105 0 $106 3.1415926535897931 $49 $107 forward 7 unknown #
coedge $-1 $51 $50 $108 $109 forward $17 $-1 #
coedge $-1 $110 $111 $50 $78 reversed $112 $-1 #
edge $-1 $85 0 $113 8 $50 $114 forward 7 unknown #
coedge $-1 $115 $116 $51 $80 reversed $117 $-1 #
edge $-1 $118 0 $84 8 $51 $119 forward 7 unknown #
coedge $-1 $120 $52 $116 $121 reversed $83 $-1 #
coedge $-1 $52 $120 $110 $122 forward $83 $-1 #
loop $-1 $-1 $82 $95 #
vertex $-1 $80 $123 #
vertex $-1 $78 $124 #
straight-curve $-1 0 8 0 1 0 0 I I #
coedge $-1 $125 $54 $57 $92 forward $65 $-1 #
coedge $-1 $54 $125 $56 $91 reversed $65 $-1 #
ellipse-curve $-1 10 8 -4 0 -1 0 0.5 0 0 1 I I #
coedge $-1 $57 $56 $126 $127 forward $41 $-1 #
edge $-1 $58 0 $128 6 $88 $129 forward 7 unknown #
edge $-1 $59 0 $130 6 $87 $131 forward 7 unknown #
point $-1 9.5 8 -4 #
point $-1 10.5 8 -4 #
face $-1 $132 $83 $3 $-1 $133 forward single #
loop $-1 $-1 $126 $64 #
plane-surface $-1 10 2 -4 0 -1 0 1 0 0 forward_v I I I I #
ellipse-curve $-1 4 2 -4 0 -1 0 0.5 0 0 1 I I #
point $-1 4.5 2 -4 #
coedge $-1 $134 $135 $73 $101 reversed $136 $-1 #
edge $-1 $106 0 $105 3.1415926535897931 $73 $137 forward 7 unknown #
coedge $-1 $138 $74 $135 $139 forward $104 $-1 #
coedge $-1 $74 $138 $134 $140 reversed $104 $-1 #
loop $-1 $-1 $102 $141 #
vertex $-1 $101 $142 #
vertex $-1 $101 $143 #
ellipse-curve $-1 16 8 -4 0 -1 0 -0.5 0 0 1 I I #
coedge $-1 $144 $145 $76 $109 reversed $146 $-1 #
edge $-1 $113 0 $118 20 $76 $147 forward 7 unknown #
coedge $-1 $148 $77 $82 $122 reversed $112 $-1 #
coedge $-1 $77 $148 $144 $149 forward $112 $-1 #
loop $-1 $-1 $111 $132 #
vertex $-1 $109 $150 #
straight-curve $-1 20 8 0 0 0 -1 I I #
coedge $-1 $151 $79 $145 $152 reversed $117 $-1 #
coedge $-1 $79 $151 $81 $121 forward $117 $-1 #
loop $-1 $-1 $116 $153 #
vertex $-1 $80 $154 #
straight-curve $-1 0 8 -8 0 0 1 I I #
coedge $-1 $82 $81 $155 $156 forward $83 $-1 #
edge $-1 $157 0 $84 8 $116 $158 forward 7 unknown #
edge $-1 $159 0 $85 8 $82 $160 forward 7 unknown #
point $-1 0 8 0 #
point $-1 20 8 0 #
coedge $-1 $88 $87 $161 $162 forward $65 $-1 #
coedge $-1 $161 $161 $90 $127 reversed $96 $-1 #
edge $-1 $128 0 $130 3.1415926535897967 $126 $163 forward 7 unknown #
vertex $-1 $162 $164 #
straight-curve $-1 9.5 8 -4 0 -1 0 I I #
vertex $-1 $162 $165 #
straight-curve $-1 10.5 8 -4 0 -1 0 I I #
face $-1 $166 $112 $3 $-1 $167 forward single #
plane-surface $-1 0 0 0 0 0 1 1 0 0 forward_v I I I I #
coedge $-1 $168 $100 $103 $140 forward $136 $-1 #
coedge $-1 $100 $168 $102 $139 reversed $136 $-1 #
loop $-1 $-1 $134 $169 #
ellipse-curve $-1 16 8 -4 0 -1 0 0.5 0 0 1 I I #
coedge $-1 $103 $102 $170 $171 forward $104 $-1 #
edge $-1 $105 0 $172 6 $135 $173 forward 7 unknown #
edge $-1 $106 0 $174 6 $134 $175 forward 7 unknown #
face $-1 $169 $104 $3 $-1 $176 reversed single #
point $-1 15.5 8 -4 #
point $-1 16.5 8 -4 #
coedge $-1 $177 $108 $111 $149 reversed $146 $-1 #
coedge $-1 $108 $177 $115 $152 forward $146 $-1 #
loop $-1 $-1 $145 $166 #
straight-curve $-1 20 8 -8 -1 0 0 I I #
coedge $-1 $111 $110 $178 $179 forward $112 $-1 #
edge $-1 $180 0 $113 8 $111 $181 forward 7 unknown #
point $-1 20 8 -8 #
coedge $-1 $116 $115 $182 $183 forward $117 $-1 #
edge $-1 $184 0 $118 8 $115 $185 forward 7 unknown #
face $-1 $186 $117 $3 $-1 $187 forward single #
point $-1 0 8 -8 #
coedge $-1 $182 $178 $120 $156 reversed $188 $-1 #
edge $-1 $157 0 $159 20 $120 $189 forward 7 unknown #
vertex $-1 $183 $190 #
straight-curve $-1 0 0 0 0 1 0 I I #
vertex $-1 $156 $191 #
straight-curve $-1 20 0 0 0 1 0 I I #
coedge $-1 $126 $126 $125 $162 reversed $96 $-1 #
edge $-1 $130 0 $128 3.1415926535897931 $161 $192 forward 7 unknown #
ellipse-curve $-1 10 2 -4.0000000000000009 0 -1 0 -0.5 0 8.8817841970012523e-016 1 I I #
point $-1 9.5 2 -4 #
point $-1 10.5 2 -4 #
face $-1 $153 $146 $3 $-1 $193 forward single #
plane-surface $-1 20 0 0 1 0 0 0 0 -1 forward_v I I I I #
coedge $-1 $135 $134 $194 $195 forward $136 $-1 #
face $-1 $196 $136 $3 $-1 $197 reversed single #
coedge $-1 $194 $194 $138 $171 reversed $198 $-1 #
edge $-1 $172 0 $174 3.1415926535898002 $170 $199 forward 7 unknown #
vertex $-1 $195 $200 #
straight-curve $-1 15.5 8 -4 0 -1 0 I I #
vertex $-1 $195 $201 #
straight-curve $-1 16.5 8 -4 0 -1 0 I I #
cone-surface $-1 16 8 -4 0 -1 0 0.5 0 0 1 I I 0 1 0.5 forward I I I I #
coedge $-1 $145 $144 $202 $203 forward $146 $-1 #
coedge $-1 $155 $202 $148 $179 reversed $188 $-1 #
edge $-1 $159 0 $180 8 $148 $204 forward 7 unknown #
vertex $-1 $179 $205 #
straight-curve $-1 20 0 -8 0 1 0 I I #
coedge $-1 $202 $155 $151 $183 reversed $188 $-1 #
edge $-1 $184 0 $157 8 $151 $206 forward 7 unknown #
vertex $-1 $183 $207 #
straight-curve $-1 0 0 -8 0 1 0 I I #
face $-1 $208 $209 $3 $-1 $210 reversed single #
plane-surface $-1 0 0 -8 -1 0 0 0 0 1 forward_v I I I I #
loop $-1 $-1 $202 $186 #
straight-curve $-1 0 0 0 1 0 0 I I #
point $-1 0 0 0 #
point $-1 20 0 0 #
ellipse-curve $-1 10 2 -4 0 -1 0 0.5 0 0 1 I I #
plane-surface $-1 20 0 -8 0 0 -1 -1 0 0 forward_v I I I I #
coedge $-1 $170 $170 $168 $195 reversed $198 $-1 #
edge $-1 $174 0 $172 3.1415926535897896 $194 $211 forward 7 unknown #
face $-1 $-1 $198 $3 $-1 $212 reversed single #
cone-surface $-1 16 8 -4 0 -1 0 0.5 0 0 1 I I 0 1 0.5 forward I I I I #
loop $-1 $-1 $170 $196 #
ellipse-curve $-1 16 2 -4.0000000000000018 0 -1 0 -0.5 0 1.7763568394002505e-015 1 I I #
point $-1 15.5 2 -4 #
point $-1 16.5 2 -4 #
coedge $-1 $178 $182 $177 $203 reversed $188 $-1 #
edge $-1 $180 0 $184 20 $177 $213 forward 7 unknown #
straight-curve $-1 20 0 0 0 0 -1 I I #
point $-1 20 0 -8 #
straight-curve $-1 0 0 -8 0 0 1 I I #
point $-1 0 0 -8 #
face $-1 $214 $215 $3 $-1 $216 forward single #
loop $-1 $188 $217 $186 #
plane-surface $-1 0 0 0 0 -1 0 1 0 0 forward_v I I I I #
ellipse-curve $-1 16 2 -4.0000000000000009 0 -1 0 0.5 0 8.8817841970012523e-016 1 I I #
plane-surface $-1 16 2 -4 0 -1 0 1 0 0 forward_v I I I I #
straight-curve $-1 20 0 -8 -1 0 0 I I #
face $-1 $218 $219 $3 $-1 $220 forward single #
loop $-1 $-1 $221 $208 #
plane-surface $-1 22 0 2 0 0 1 -1 0 0 forward_v I I I I #
coedge $-1 $222 $223 $224 $225 reversed $209 $-1 #
face $-1 $226 $227 $3 $-1 $228 forward single #
loop $-1 $-1 $229 $214 #
plane-surface $-1 -3 0 2 -1 0 0 0 0 -1 forward_v I I I I #
coedge $-1 $230 $224 $231 $232 forward $215 $-1 #
coedge $-1 $233 $217 $234 $235 reversed $209 $-1 #
coedge $-1 $217 $233 $236 $237 reversed $209 $-1 #
coedge $-1 $221 $238 $217 $225 forward $215 $-1 #
edge $-1 $239 0 $240 25 $217 $241 forward 7 unknown #
face $-1 $242 $243 $3 $-1 $244 forward single #
loop $-1 $-1 $245 $218 #
plane-surface $-1 -3 0 -10 0 0 -1 1 0 0 forward_v I I I I #
coedge $-1 $246 $236 $247 $248 forward $219 $-1 #
coedge $-1 $238 $221 $249 $250 reversed $215 $-1 #
coedge $-1 $236 $246 $221 $232 reversed $219 $-1 #
edge $-1 $240 0 $251 2 $231 $252 forward 7 unknown #
coedge $-1 $223 $222 $253 $254 reversed $209 $-1 #
coedge $-1 $255 $256 $222 $235 forward $243 $-1 #
edge $-1 $257 0 $239 12 $222 $258 forward 7 unknown #
coedge $-1 $229 $231 $223 $237 forward $219 $-1 #
edge $-1 $240 0 $259 12 $223 $260 forward 7 unknown #
coedge $-1 $224 $230 $255 $261 reversed $215 $-1 #
vertex $-1 $235 $262 #
vertex $-1 $237 $263 #
straight-curve $-1 22 0 2 -1 0 0 I I #
face $-1 $141 $264 $3 $-1 $265 forward single #
loop $-1 $-1 $255 $226 #
plane-surface $-1 22 0 -10 1 0 0 0 0 1 forward_v I I I I #
coedge $-1 $266 $253 $256 $267 forward $227 $-1 #
coedge $-1 $231 $229 $268 $269 reversed $219 $-1 #
coedge $-1 $253 $266 $229 $248 reversed $227 $-1 #
edge $-1 $259 0 $270 2 $229 $271 forward 7 unknown #
coedge $-1 $268 $272 $230 $250 forward $264 $-1 #
edge $-1 $273 0 $251 25 $249 $274 forward 7 unknown #
vertex $-1 $269 $275 #
straight-curve $-1 -3 0 2 0 -1 0 I I #
coedge $-1 $245 $247 $233 $254 forward $227 $-1 #
edge $-1 $259 0 $257 25 $233 $276 forward 7 unknown #
coedge $-1 $277 $234 $238 $261 forward $243 $-1 #
coedge $-1 $234 $277 $245 $267 reversed $243 $-1 #
vertex $-1 $254 $278 #
straight-curve $-1 22 0 -10 0 0 1 I I #
vertex $-1 $237 $279 #
straight-curve $-1 -3 0 2 0 0 -1 I I #
edge $-1 $239 0 $273 2 $255 $280 forward 7 unknown #
point $-1 22 0 2 #
point $-1 -3 0 2 #
loop $-1 $-1 $281 $242 #
plane-surface $-1 0 -2 0 0 -1 0 1 0 0 forward_v I I I I #
coedge $-1 $247 $245 $281 $282 reversed $227 $-1 #
edge $-1 $257 0 $283 2 $245 $284 forward 7 unknown #
coedge $-1 $281 $249 $246 $269 forward $264 $-1 #
edge $-1 $251 0 $270 12 $268 $285 forward 7 unknown #
vertex $-1 $269 $286 #
straight-curve $-1 -3 0 -10 0 -1 0 I I #
coedge $-1 $249 $281 $277 $287 forward $264 $-1 #
vertex $-1 $250 $288 #
straight-curve $-1 22 -2 2 -1 0 0 I I #
point $-1 -3 -2 2 #
straight-curve $-1 -3 0 -10 1 0 0 I I #
coedge $-1 $256 $255 $272 $287 reversed $243 $-1 #
point $-1 22 0 -10 #
point $-1 -3 0 -10 #
straight-curve $-1 22 0 2 0 -1 0 I I #
coedge $-1 $272 $268 $266 $282 forward $264 $-1 #
edge $-1 $270 0 $283 25 $281 $289 forward 7 unknown #
vertex $-1 $287 $290 #
straight-curve $-1 22 0 -10 0 -1 0 I I #
straight-curve $-1 -3 -2 2 0 0 -1 I I #
point $-1 -3 -2 -10 #
edge $-1 $283 0 $273 12 $272 $291 forward 7 unknown #
point $-1 22 -2 2 #
straight-curve $-1 -3 -2 -10 1 0 0 I I #
point $-1 22 -2 -10 #
straight-curve $-1 22 -2 -10 0 0 1 I I #
End-of-ACIS-data 