600 0 1 0           
98 GICL ACIS Healer - Source: /gicl/data5/repository/PTC/V18/cabecad18/ptc_comp/transformer.sat - 6 0 18 ACIS 6.0.3 Solaris 24 Sat Apr 13 22:25:25 2002 
1 9.999999999999999547e-07 1.000000000000000036e-10 
body $-1 $1 $-1 $-1 #
lump $-1 $-1 $2 $0 #
shell $-1 $-1 $-1 $3 $-1 $1 #
face $-1 $4 $5 $2 $-1 $6 reversed single #
face $-1 $7 $8 $2 $-1 $9 forward single #
loop $-1 $-1 $10 $3 #
plane-surface $-1 0 0 0 0 1 0 1 0 0 forward_v I I I I #
face $-1 $11 $12 $2 $-1 $13 forward single #
loop $-1 $-1 $14 $4 #
cone-surface $-1 0 1 6.5 -1 0 0 0 -1 0 1 I I 0 1 1 forward I I I I #
coedge $-1 $15 $16 $17 $18 reversed $5 $-1 #
face $-1 $19 $20 $2 $-1 $21 forward single #
loop $-1 $-1 $22 $7 #
sphere-surface $-1 24 1 6.5 0.999999999999999889 1 0 0 0 0 1 forward_v I I I I #
coedge $-1 $23 $17 $24 $25 forward $8 $-1 #
coedge $-1 $26 $10 $27 $28 forward $5 $-1 #
coedge $-1 $10 $26 $29 $30 forward $5 $-1 #
coedge $-1 $14 $31 $10 $18 forward $8 $-1 #
edge $-1 $32 0 $33 23 $10 $34 forward 7 unknown #
face $-1 $35 $36 $2 $-1 $37 forward single #
loop $-1 $-1 $38 $11 #
cone-surface $-1 24 1 -7.5 0 0 -1 1 0 0 1 I I 0 1 1 forward I I I I #
coedge $-1 $39 $24 $38 $40 reversed $12 $-1 #
coedge $-1 $31 $14 $41 $42 reversed $8 $-1 #
coedge $-1 $22 $39 $14 $25 reversed $12 $-1 #
edge $-1 $33 0 $43 1.570796326794896558 $24 $44 forward 7 unknown #
coedge $-1 $16 $15 $45 $46 forward $5 $-1 #
coedge $-1 $47 $48 $15 $28 reversed $49 $-1 #
edge $-1 $32 0 $50 13 $15 $51 forward 7 unknown #
coedge $-1 $52 $38 $16 $30 reversed $20 $-1 #
edge $-1 $53 0 $33 13 $16 $54 forward 7 unknown #
coedge $-1 $17 $23 $55 $56 forward $8 $-1 #
vertex $-1 $28 $57 #
vertex $-1 $30 $58 #
straight-curve $-1 1 0 6.5 1 0 0 I I #
face $-1 $59 $60 $2 $-1 $61 forward single #
loop $-1 $-1 $62 $19 #
sphere-surface $-1 24 1 -6.5 0.999999999999999889 1 0 0 0 0 1 forward_v I I I I #
coedge $-1 $29 $63 $22 $40 forward $20 $-1 #
coedge $-1 $24 $22 $64 $65 reversed $12 $-1 #
edge $-1 $66 0 $33 1.570796326794896558 $22 $67 forward 7 unknown #
coedge $-1 $68 $69 $23 $42 forward $70 $-1 #
edge $-1 $71 0 $43 23 $41 $72 forward 7 unknown #
vertex $-1 $25 $73 #
ellipse-curve $-1 24 1 6.5 -1 0 0 0 -1.000000000000000222 0 1 I I #
coedge $-1 $74 $75 $26 $46 reversed $76 $-1 #
edge $-1 $50 0 $53 23 $26 $77 forward 7 unknown #
coedge $-1 $78 $27 $79 $80 forward $49 $-1 #
coedge $-1 $27 $78 $81 $82 forward $49 $-1 #
loop $-1 $-1 $48 $83 #
vertex $-1 $46 $84 #
straight-curve $-1 0.999999999999999889 0 6.5 0 0 -1 I I #
coedge $-1 $63 $29 $85 $86 forward $20 $-1 #
vertex $-1 $30 $87 #
straight-curve $-1 24 0 -6.5 0 0 1 I I #
coedge $-1 $88 $79 $31 $56 reversed $89 $-1 #
edge $-1 $71 1.11022302462515654e-16 $32 1.570796326794896558 $55 $90 forward 7 unknown #
point $-1 1 0 6.5 #
point $-1 24 0 6.5 #
face $-1 $91 $92 $2 $-1 $93 reversed single #
loop $-1 $-1 $94 $35 #
cone-surface $-1 24 1 -6.5 0 1 0 1 0 0 1 I I 0 1 1 forward I I I I #
coedge $-1 $85 $95 $94 $96 reversed $36 $-1 #
coedge $-1 $38 $52 $97 $98 forward $20 $-1 #
coedge $-1 $99 $100 $39 $65 forward $101 $-1 #
edge $-1 $43 0 $66 1.570796326794896558 $39 $102 forward 7 unknown #
vertex $-1 $65 $103 #
ellipse-curve $-1 24 1 6.5 0 0 -1 1 0 0 1 I I #
coedge $-1 $104 $41 $100 $105 forward $70 $-1 #
coedge $-1 $41 $104 $106 $107 reversed $70 $-1 #
loop $-1 $108 $68 $109 #
vertex $-1 $110 $111 #
straight-curve $-1 1 0.999999999999999889 7.5 1 0 0 I I #
point $-1 24 0.999999999999999889 7.5 #
coedge $-1 $112 $45 $113 $114 forward $76 $-1 #
coedge $-1 $45 $112 $95 $115 forward $76 $-1 #
loop $-1 $-1 $74 $116 #
straight-curve $-1 1 0 -6.5 1 0 0 I I #
coedge $-1 $48 $47 $117 $118 forward $49 $-1 #
coedge $-1 $55 $88 $47 $80 reversed $89 $-1 #
edge $-1 $32 0 $119 1.570796326794896558 $79 $120 forward 7 unknown #
coedge $-1 $121 $113 $48 $82 reversed $122 $-1 #
edge $-1 $123 0 $50 1.570796326794896558 $81 $124 forward 7 unknown #
face $-1 $125 $49 $2 $-1 $126 forward single #
point $-1 1 0 -6.5 #
coedge $-1 $95 $62 $52 $86 reversed $36 $-1 #
edge $-1 $53 0 $127 1.570796326794896558 $85 $128 forward 7 unknown #
point $-1 24 0 -6.5 #
coedge $-1 $79 $55 $129 $110 reversed $89 $-1 #
loop $-1 $-1 $79 $125 #
ellipse-curve $-1 1 1 6.5 1 0 0 0 0 1 1 I I #
face $-1 $130 $131 $2 $-1 $132 forward single #
loop $-1 $133 $134 $59 #
plane-surface $-1 0 0 -7.5 0 0 1 1 0 0 forward_v I I I I #
coedge $-1 $135 $136 $62 $96 forward $60 $-1 #
coedge $-1 $62 $85 $75 $115 reversed $36 $-1 #
edge $-1 $127 0 $137 1.570796326794896558 $62 $138 forward 7 unknown #
coedge $-1 $139 $140 $63 $98 reversed $141 $-1 #
edge $-1 $127 0 $66 13 $97 $142 forward 7 unknown #
coedge $-1 $143 $64 $140 $144 forward $101 $-1 #
coedge $-1 $64 $143 $68 $105 reversed $101 $-1 #
loop $-1 $-1 $143 $145 #
ellipse-curve $-1 24 1 6.5 0 1 0 0 0 1 1 I I #
point $-1 25 1 6.5 #
coedge $-1 $69 $68 $146 $147 reversed $70 $-1 #
edge $-1 $43 -1.11022302462515654e-16 $148 48 $68 $149 forward 7 unknown #
coedge $-1 $150 $129 $69 $107 forward $151 $-1 #
edge $-1 $71 -1.11022302462515654e-16 $152 48 $69 $153 forward 7 unknown #
loop $-1 $-1 $154 $109 #
face $-1 $145 $70 $2 $-1 $155 forward single #
edge $-1 $119 0 $71 1.57079632679489678 $88 $156 forward 7 unknown #
point $-1 1 0.999999999999999889 7.5 #
coedge $-1 $75 $74 $157 $158 forward $76 $-1 #
coedge $-1 $81 $121 $74 $114 reversed $122 $-1 #
edge $-1 $50 0 $159 1.570796326794896558 $113 $160 forward 7 unknown #
edge $-1 $137 1.11022302462515654e-16 $53 1.570796326794896558 $95 $161 forward 7 unknown #
face $-1 $83 $76 $2 $-1 $162 forward single #
coedge $-1 $163 $164 $78 $118 reversed $165 $-1 #
edge $-1 $119 0 $123 13 $117 $166 forward 7 unknown #
vertex $-1 $118 $167 #
ellipse-curve $-1 1 1 6.5 0 0 -1 0 -0.999999999999999889 0 1 I I #
coedge $-1 $113 $81 $168 $169 reversed $122 $-1 #
loop $-1 $-1 $121 $130 #
vertex $-1 $118 $170 #
ellipse-curve $-1 1 1 -6.5 0 0 1 -1.000000000000000222 0 0 1 I I #
face $-1 $171 $89 $2 $-1 $172 forward single #
cone-surface $-1 1 1 6.5 0 0 1 -1 0 0 1 I I 0 1 1 forward I I I I #
vertex $-1 $173 $174 #
ellipse-curve $-1 24 1 -6.5 0 0 1 0 -1 0 1 I I #
coedge $-1 $106 $175 $88 $110 forward $151 $-1 #
face $-1 $116 $122 $2 $-1 $176 forward single #
loop $-1 $-1 $168 $91 #
cone-surface $-1 1 1 -6.5 0 1 0 0 0 -1 1 I I 0 1 1 forward I I I I #
loop $-1 $-1 $177 $59 #
coedge $-1 $178 $157 $179 $180 forward $92 $-1 #
coedge $-1 $181 $94 $182 $183 forward $60 $-1 #
coedge $-1 $94 $181 $139 $173 reversed $60 $-1 #
vertex $-1 $158 $184 #
ellipse-curve $-1 24 1 -6.5 0 1 0 1 0 0 1 I I #
coedge $-1 $185 $97 $136 $173 forward $141 $-1 #
coedge $-1 $97 $185 $99 $144 reversed $141 $-1 #
loop $-1 $-1 $140 $186 #
straight-curve $-1 25 1 -6.5 0 0 1 I I #
coedge $-1 $100 $99 $187 $188 forward $101 $-1 #
edge $-1 $66 0 $189 48 $140 $190 forward 7 unknown #
face $-1 $191 $101 $2 $-1 $192 forward single #
coedge $-1 $193 $194 $104 $147 forward $195 $-1 #
edge $-1 $152 0 $148 23 $104 $196 forward 7 unknown #
vertex $-1 $147 $197 #
straight-curve $-1 24 1 7.5 0 1 0 I I #
coedge $-1 $175 $106 $198 $199 forward $151 $-1 #
loop $-1 $-1 $150 $171 #
vertex $-1 $200 $201 #
straight-curve $-1 1 1 7.5 0 1 0 I I #
coedge $-1 $202 $203 $204 $205 forward $108 $-1 #
plane-surface $-1 0 0 7.5 0 0 1 1 0 0 forward_v I I I I #
ellipse-curve $-1 1 1 6.5 2.220446049250312588e-16 1 0 -1.000000000000000222 2.220446049250313081e-16 0 1 I I #
coedge $-1 $134 $182 $112 $158 reversed $92 $-1 #
edge $-1 $159 0 $137 23 $157 $206 forward 7 unknown #
vertex $-1 $114 $207 #
ellipse-curve $-1 1 1 -6.5 1 0 0 0 -1 0 1 I I #
ellipse-curve $-1 24 1 -6.5 -1 0 0 0 0 -1 1 I I #
cone-surface $-1 0 1 -6.5 1 0 0 0 -1 0 1 I I 0 1 1 forward I I I I #
coedge $-1 $208 $117 $175 $209 forward $165 $-1 #
coedge $-1 $117 $208 $210 $211 reversed $165 $-1 #
loop $-1 $-1 $163 $212 #
straight-curve $-1 0 1 6.5 0 0 -1 I I #
point $-1 0 1 6.5 #
coedge $-1 $210 $179 $121 $169 forward $131 $-1 #
edge $-1 $159 0 $123 1.570796326794896558 $121 $213 forward 7 unknown #
point $-1 0 1 -6.5 #
face $-1 $214 $151 $2 $-1 $215 forward single #
sphere-surface $-1 1 1 6.5 0.999999999999999889 1 0 0 0 0 1 forward_v I I I I #
edge $-1 $127 0 $216 48 $139 $217 forward 7 unknown #
point $-1 25 1 -6.5 #
coedge $-1 $129 $150 $163 $209 reversed $151 $-1 #
sphere-surface $-1 1 1 -6.5 0.999999999999999889 1 0 0 0 0 1 forward_v I I I I #
coedge $-1 $218 $219 $220 $221 forward $133 $-1 #
coedge $-1 $182 $134 $222 $223 forward $92 $-1 #
coedge $-1 $168 $224 $134 $180 reversed $131 $-1 #
edge $-1 $159 -1.11022302462515654e-16 $225 48 $134 $226 forward 7 unknown #
coedge $-1 $136 $135 $227 $228 forward $60 $-1 #
coedge $-1 $157 $178 $135 $183 reversed $92 $-1 #
edge $-1 $137 -1.11022302462515654e-16 $229 48 $182 $230 forward 7 unknown #
point $-1 24 0.999999999999999889 -7.5 #
coedge $-1 $140 $139 $231 $232 reversed $141 $-1 #
face $-1 $233 $141 $2 $-1 $234 forward single #
coedge $-1 $235 $236 $143 $188 reversed $237 $-1 #
edge $-1 $189 0 $148 1.570796326794896558 $187 $238 forward 7 unknown #
vertex $-1 $232 $239 #
straight-curve $-1 25 1 6.5 0 1 0 I I #
face $-1 $240 $237 $2 $-1 $241 forward single #
cone-surface $-1 24 0 6.5 0 -1 0 1 0 0 1 I I 0 1 1 forward I I I I #
coedge $-1 $242 $146 $236 $243 forward $195 $-1 #
coedge $-1 $146 $242 $244 $200 forward $195 $-1 #
loop $-1 $-1 $194 $245 #
straight-curve $-1 1 49 7.5 1 0 0 I I #
point $-1 24 49 7.5 #
coedge $-1 $244 $246 $150 $199 reversed $247 $-1 #
edge $-1 $152 0 $248 1.570796326794896558 $198 $249 forward 7 unknown #
edge $-1 $250 0 $152 1.570796326794896558 $244 $251 forward 7 unknown #
point $-1 1 49 7.5 #
coedge $-1 $252 $154 $253 $254 forward $108 $-1 #
coedge $-1 $154 $252 $255 $256 reversed $108 $-1 #
coedge $-1 $257 $258 $154 $205 reversed $259 $-1 #
edge $-1 $260 0 $261 35 $154 $262 forward 7 unknown #
straight-curve $-1 1 0.999999999999999889 -7.5 1 0 0 I I #
point $-1 1 0.999999999999999889 -7.5 #
coedge $-1 $164 $163 $263 $264 reversed $165 $-1 #
edge $-1 $119 0 $248 48 $163 $265 forward 7 unknown #
coedge $-1 $224 $168 $164 $211 forward $131 $-1 #
edge $-1 $123 0 $266 48 $164 $267 forward 7 unknown #
face $-1 $268 $165 $2 $-1 $269 forward single #
ellipse-curve $-1 1 1 -6.5 0 1 0 0 0 -1 1 I I #
face $-1 $270 $247 $2 $-1 $271 forward single #
cone-surface $-1 1 0 6.5 0 -1 0 0 0 1 1 I I 0 1 1 forward I I I I #
vertex $-1 $232 $272 #
straight-curve $-1 25 1 -6.5 0 1 0 I I #
coedge $-1 $273 $177 $274 $275 reversed $133 $-1 #
coedge $-1 $177 $273 $276 $277 forward $133 $-1 #
coedge $-1 $278 $279 $177 $221 reversed $280 $-1 #
edge $-1 $281 0 $282 35 $177 $283 forward 7 unknown #
coedge $-1 $284 $285 $178 $223 reversed $286 $-1 #
edge $-1 $225 0 $229 23 $178 $287 forward 7 unknown #
coedge $-1 $179 $210 $288 $289 forward $131 $-1 #
vertex $-1 $223 $290 #
straight-curve $-1 1 1 -7.5 0 1 0 I I #
coedge $-1 $291 $292 $181 $228 reversed $293 $-1 #
edge $-1 $229 0 $216 1.570796326794896558 $227 $294 forward 7 unknown #
vertex $-1 $295 $296 #
straight-curve $-1 24 1 -7.5 0 1 0 I I #
coedge $-1 $297 $298 $185 $232 forward $299 $-1 #
edge $-1 $189 0 $216 13 $185 $300 forward 7 unknown #
face $-1 $301 $259 $2 $-1 $302 forward single #
plane-surface $-1 25 0 7.5 1 0 0 0 0 -1 forward_v I I I I #
coedge $-1 $236 $187 $298 $303 reversed $237 $-1 #
coedge $-1 $187 $235 $193 $243 reversed $237 $-1 #
loop $-1 $-1 $235 $191 #
ellipse-curve $-1 24 49 6.5 0 -1 0 1 0 0 1 I I #
point $-1 25 49 6.5 #
face $-1 $304 $299 $2 $-1 $305 forward single #
sphere-surface $-1 24 49 6.5 0.999999999999999889 1 0 0 0 0 1 forward_v I I I I #
coedge $-1 $194 $193 $306 $307 reversed $195 $-1 #
edge $-1 $148 0 $308 1.570796326794896558 $236 $309 forward 7 unknown #
coedge $-1 $246 $198 $194 $200 reversed $247 $-1 #
face $-1 $109 $195 $2 $-1 $310 forward single #
coedge $-1 $198 $244 $311 $312 reversed $247 $-1 #
loop $-1 $-1 $246 $214 #
vertex $-1 $199 $313 #
ellipse-curve $-1 1 49 6.5 0 -1 0 0 0 1 1 I I #
vertex $-1 $314 $315 #
ellipse-curve $-1 1 49 6.5 1 -2.220446049250313081e-16 0 2.220446049250313081e-16 1 0 1 I I #
coedge $-1 $203 $202 $316 $317 reversed $108 $-1 #
coedge $-1 $318 $319 $202 $254 reversed $320 $-1 #
edge $-1 $261 0 $321 15 $202 $322 forward 7 unknown #
coedge $-1 $323 $324 $203 $256 forward $325 $-1 #
edge $-1 $260 0 $326 15 $203 $327 forward 7 unknown #
coedge $-1 $328 $204 $324 $329 forward $259 $-1 #
coedge $-1 $204 $328 $318 $330 reversed $259 $-1 #
loop $-1 $-1 $257 $233 #
vertex $-1 $256 $331 #
vertex $-1 $254 $332 #
straight-curve $-1 5 7.5 7.5 0 1 0 I I #
coedge $-1 $311 $333 $208 $264 forward $334 $-1 #
edge $-1 $266 0 $248 13 $208 $335 forward 7 unknown #
straight-curve $-1 0 1 6.5 0 1 0 I I #
vertex $-1 $211 $336 #
straight-curve $-1 0 1 -6.5 0 1 0 I I #
face $-1 $337 $280 $2 $-1 $338 reversed single #
plane-surface $-1 0 0 0 -1 0 0 0 0 1 forward_v I I I I #
face $-1 $339 $334 $2 $-1 $340 forward single #
sphere-surface $-1 1 49 6.5 0.999999999999999889 1 0 0 0 0 1 forward_v I I I I #
point $-1 25 49 -6.5 #
coedge $-1 $219 $218 $341 $342 reversed $133 $-1 #
coedge $-1 $343 $344 $218 $275 forward $345 $-1 #
edge $-1 $346 0 $282 15 $218 $347 forward 7 unknown #
coedge $-1 $348 $349 $219 $277 reversed $350 $-1 #
edge $-1 $351 0 $281 15 $219 $352 forward 7 unknown #
coedge $-1 $353 $220 $349 $354 reversed $280 $-1 #
coedge $-1 $220 $353 $343 $355 forward $280 $-1 #
loop $-1 $-1 $278 $268 #
vertex $-1 $277 $356 #
vertex $-1 $275 $357 #
straight-curve $-1 20 7.5 -7.5 0 1 0 I I #
coedge $-1 $358 $222 $359 $360 forward $286 $-1 #
coedge $-1 $222 $358 $291 $295 forward $286 $-1 #
loop $-1 $-1 $285 $361 #
straight-curve $-1 1 49 -7.5 1 0 0 I I #
coedge $-1 $362 $359 $224 $289 reversed $363 $-1 #
edge $-1 $266 0 $225 1.570796326794896558 $288 $364 forward 7 unknown #
point $-1 1 49 -7.5 #
coedge $-1 $292 $227 $285 $295 reversed $293 $-1 #
coedge $-1 $227 $291 $297 $365 reversed $293 $-1 #
loop $-1 $-1 $227 $304 #
ellipse-curve $-1 24 49 -6.5 0 -1 0 0 0 -1 1 I I #
edge $-1 $366 0 $229 1.570796326794896558 $291 $367 forward 7 unknown #
point $-1 24 49 -7.5 #
coedge $-1 $368 $231 $292 $365 forward $299 $-1 #
coedge $-1 $231 $368 $235 $303 forward $299 $-1 #
loop $-1 $-1 $297 $240 #
straight-curve $-1 25 49 6.5 0 0 -1 I I #
face $-1 $369 $325 $2 $-1 $370 reversed single #
plane-surface $-1 5 7.5 7.5 -1 0 0 0 0 1 forward_v I I I I #
edge $-1 $308 0 $189 1.570796326794896558 $235 $371 forward 7 unknown #
face $-1 $361 $293 $2 $-1 $372 forward single #
cone-surface $-1 24 49 6.5 0 0 1 1 0 0 1 I I 0 1 1 forward I I I I #
coedge $-1 $373 $374 $242 $307 forward $375 $-1 #
edge $-1 $250 -1.11022302462515654e-16 $308 23 $306 $376 forward 7 unknown #
vertex $-1 $377 $378 #
ellipse-curve $-1 24 49 6.5 -1 0 0 0 0 1 1 I I #
cone-surface $-1 0 49 6.5 1 0 0 0 1 0 1 I I 0 1 1 forward I I I I #
coedge $-1 $379 $263 $246 $312 forward $334 $-1 #
edge $-1 $248 0 $250 1.570796326794896558 $246 $380 forward 7 unknown #
point $-1 0 49 6.5 #
edge $-1 $381 0 $250 13 $374 $382 forward 7 unknown #
point $-1 0.999999999999999889 50 6.5 #
coedge $-1 $383 $384 $252 $317 forward $385 $-1 #
edge $-1 $326 0 $321 35 $252 $386 forward 7 unknown #
coedge $-1 $387 $253 $258 $330 forward $320 $-1 #
coedge $-1 $253 $388 $383 $389 forward $320 $-1 #
loop $-1 $-1 $318 $390 #
vertex $-1 $317 $391 #
straight-curve $-1 5 42.5 7.5 1 0 0 I I #
coedge $-1 $392 $255 $384 $393 reversed $325 $-1 #
coedge $-1 $255 $394 $257 $329 reversed $325 $-1 #
loop $-1 $-1 $323 $301 #
vertex $-1 $256 $395 #
straight-curve $-1 5 7.5 7.5 1 0 0 I I #
coedge $-1 $258 $257 $396 $397 forward $259 $-1 #
edge $-1 $260 0 $398 3.5 $324 $399 forward 7 unknown #
edge $-1 $261 0 $400 3.5 $318 $401 forward 7 unknown #
point $-1 5 7.5 7.5 #
point $-1 5 42.5 7.5 #
coedge $-1 $263 $379 $362 $402 forward $334 $-1 #
loop $-1 $-1 $311 $270 #
straight-curve $-1 0 49 -6.5 0 0 1 I I #
point $-1 0 49 -6.5 #
face $-1 $403 $350 $2 $-1 $404 forward single #
plane-surface $-1 20 7.5 -11 -1 0 0 0 0 1 forward_v I I I I #
face $-1 $245 $375 $2 $-1 $405 forward single #
cone-surface $-1 1 49 -7.5 0 0 -1 -1 0 0 1 I I 0 1 1 forward I I I I #
coedge $-1 $406 $407 $273 $342 forward $408 $-1 #
edge $-1 $351 0 $346 35 $273 $409 forward 7 unknown #
coedge $-1 $410 $274 $279 $355 reversed $345 $-1 #
coedge $-1 $274 $411 $406 $412 reversed $345 $-1 #
loop $-1 $-1 $343 $413 #
vertex $-1 $342 $414 #
straight-curve $-1 5 42.5 -7.5 1 0 0 I I #
coedge $-1 $415 $276 $407 $416 forward $350 $-1 #
coedge $-1 $276 $417 $278 $354 forward $350 $-1 #
loop $-1 $-1 $348 $337 #
vertex $-1 $277 $418 #
straight-curve $-1 5 7.5 -7.5 1 0 0 I I #
coedge $-1 $279 $278 $419 $420 forward $280 $-1 #
edge $-1 $421 0 $281 3.5 $349 $422 forward 7 unknown #
edge $-1 $423 0 $282 3.5 $343 $424 forward 7 unknown #
point $-1 20 7.5 -7.5 #
point $-1 20 42.5 -7.5 #
coedge $-1 $285 $284 $425 $426 forward $286 $-1 #
coedge $-1 $288 $362 $284 $360 reversed $363 $-1 #
edge $-1 $225 0 $381 1.57079632679489678 $359 $427 forward 7 unknown #
face $-1 $428 $286 $2 $-1 $429 forward single #
coedge $-1 $359 $288 $333 $402 reversed $363 $-1 #
loop $-1 $-1 $288 $428 #
ellipse-curve $-1 1 49 -6.5 0 -1 0 -0.999999999999999889 0 0 1 I I #
edge $-1 $216 0 $366 1.570796326794896558 $292 $430 forward 7 unknown #
vertex $-1 $426 $431 #
ellipse-curve $-1 24 49 -6.5 -1 0 0 0 1 0 1 I I #
coedge $-1 $298 $297 $373 $377 reversed $299 $-1 #
face $-1 $390 $385 $2 $-1 $432 forward single #
plane-surface $-1 0 7.5 0 0 1 0 1 0 0 forward_v I I I I #
ellipse-curve $-1 24 49 6.5 0 0 -1 0 1 0 1 I I #
sphere-surface $-1 24 49 -6.5 0.999999999999999889 1 0 0 0 0 1 forward_v I I I I #
coedge $-1 $425 $306 $368 $377 forward $375 $-1 #
coedge $-1 $306 $425 $379 $314 forward $375 $-1 #
loop $-1 $-1 $306 $339 #
straight-curve $-1 1 50 6.5 1 0 0 I I #
edge $-1 $308 0 $366 13 $373 $433 forward 7 unknown #
point $-1 24 50 6.5 #
coedge $-1 $333 $311 $374 $314 reversed $334 $-1 #
ellipse-curve $-1 1 49 6.5 0 0 -1 -0.999999999999999889 0 0 1 I I #
vertex $-1 $314 $434 #
straight-curve $-1 0.999999999999999889 50 -6.5 0 0 1 I I #
coedge $-1 $435 $316 $319 $389 reversed $385 $-1 #
coedge $-1 $316 $435 $323 $393 forward $385 $-1 #
loop $-1 $-1 $383 $369 #
straight-curve $-1 20 7.5 7.5 0 1 0 I I #
coedge $-1 $436 $318 $437 $438 forward $320 $-1 #
coedge $-1 $319 $436 $439 $440 forward $320 $-1 #
edge $-1 $441 0 $321 3.5 $319 $442 forward 7 unknown #
face $-1 $443 $320 $2 $-1 $444 forward single #
point $-1 20 42.5 7.5 #
coedge $-1 $445 $323 $446 $447 reversed $325 $-1 #
edge $-1 $448 0 $326 3.5 $323 $449 forward 7 unknown #
coedge $-1 $324 $445 $450 $451 reversed $325 $-1 #
point $-1 20 7.5 7.5 #
coedge $-1 $450 $437 $328 $397 reversed $452 $-1 #
edge $-1 $398 0 $400 35 $328 $453 forward 7 unknown #
vertex $-1 $329 $454 #
straight-curve $-1 5 7.5 7.5 0 0 1 I I #
vertex $-1 $438 $455 #
straight-curve $-1 5 42.5 7.5 0 0 1 I I #
edge $-1 $381 1.11022302462515654e-16 $266 1.570796326794896558 $362 $456 forward 7 unknown #
face $-1 $413 $408 $2 $-1 $457 reversed single #
plane-surface $-1 0 7.5 0 0 -1 0 1 0 0 forward_v I I I I #
plane-surface $-1 0 50 0 0 1 0 1 0 0 forward_v I I I I #
coedge $-1 $458 $341 $344 $412 forward $408 $-1 #
coedge $-1 $341 $458 $348 $416 reversed $408 $-1 #
loop $-1 $-1 $406 $403 #
straight-curve $-1 5 7.5 -7.5 0 1 0 I I #
coedge $-1 $459 $343 $460 $461 reversed $345 $-1 #
coedge $-1 $344 $459 $462 $463 reversed $345 $-1 #
edge $-1 $346 0 $464 3.5 $344 $465 forward 7 unknown #
face $-1 $466 $345 $2 $-1 $467 reversed single #
point $-1 5 42.5 -7.5 #
coedge $-1 $468 $348 $469 $470 forward $350 $-1 #
edge $-1 $351 0 $471 3.5 $348 $472 forward 7 unknown #
coedge $-1 $349 $468 $473 $474 forward $350 $-1 #
point $-1 5 7.5 -7.5 #
coedge $-1 $473 $460 $353 $420 reversed $475 $-1 #
edge $-1 $421 0 $423 35 $419 $476 forward 7 unknown #
vertex $-1 $354 $477 #
straight-curve $-1 20 7.5 -11 0 0 1 I I #
vertex $-1 $461 $478 #
straight-curve $-1 20 42.5 -11 0 0 1 I I #
coedge $-1 $374 $373 $358 $426 reversed $375 $-1 #
edge $-1 $381 -1.11022302462515654e-16 $366 23 $425 $479 forward 7 unknown #
ellipse-curve $-1 1 49 -6.5 1 0 2.220446049250313081e-16 2.220446049250313081e-16 0 -1 1 I I #
face $-1 $186 $363 $2 $-1 $480 forward single #
cone-surface $-1 0 49 -6.5 -1 0 0 0 1 0 1 I I 0 1 1 forward I I I I #
ellipse-curve $-1 24 49 -6.5 0 0 1 1 0 0 1 I I #
point $-1 24 50 -6.5 #
plane-surface $-1 20 7.5 11 1 0 0 0 0 -1 forward_v I I I I #
straight-curve $-1 24 50 6.5 0 0 -1 I I #
point $-1 0.999999999999999889 50 -6.5 #
coedge $-1 $384 $383 $481 $482 reversed $385 $-1 #
coedge $-1 $388 $387 $483 $484 forward $320 $-1 #
coedge $-1 $396 $485 $387 $438 reversed $452 $-1 #
edge $-1 $400 0 $486 1.570796326794899 $387 $487 forward 7 unknown #
coedge $-1 $488 $481 $388 $440 reversed $489 $-1 #
edge $-1 $490 0 $441 1.570796326794896558 $388 $491 forward 7 unknown #
vertex $-1 $389 $492 #
straight-curve $-1 20 42.5 11 0 0 -1 I I #
face $-1 $493 $452 $2 $-1 $494 forward single #
plane-surface $-1 0 42.5 0 0 1 0 1 0 0 forward_v I I I I #
coedge $-1 $394 $392 $495 $496 reversed $325 $-1 #
coedge $-1 $481 $488 $392 $447 forward $489 $-1 #
edge $-1 $497 0 $448 1.570796326794896558 $392 $498 forward 7 unknown #
vertex $-1 $447 $499 #
straight-curve $-1 20 7.5 11 0 0 -1 I I #
coedge $-1 $485 $396 $394 $451 forward $452 $-1 #
edge $-1 $398 0 $500 1.570796326794896558 $394 $501 forward 7 unknown #
loop $-1 $-1 $485 $443 #
straight-curve $-1 5 7.5 11 0 1 0 I I #
point $-1 5 7.5 11 #
point $-1 5 42.5 11 #
ellipse-curve $-1 1 49 -6.5 0 0 1 0 1 0 1 I I #
plane-surface $-1 5 7.5 -7.5 1 0 0 0 0 -1 forward_v I I I I #
coedge $-1 $407 $406 $502 $503 reversed $408 $-1 #
coedge $-1 $411 $410 $504 $505 reversed $345 $-1 #
coedge $-1 $419 $506 $410 $461 forward $475 $-1 #
edge $-1 $507 0 $423 1.570796326794896558 $410 $508 forward 7 unknown #
coedge $-1 $509 $502 $411 $463 forward $510 $-1 #
edge $-1 $464 0 $511 1.570796326794899 $411 $512 forward 7 unknown #
vertex $-1 $412 $513 #
straight-curve $-1 5 42.5 -7.5 0 0 -1 I I #
face $-1 $514 $475 $2 $-1 $515 forward single #
plane-surface $-1 0 42.5 0 0 -1 0 1 0 0 forward_v I I I I #
coedge $-1 $417 $415 $516 $517 forward $350 $-1 #
coedge $-1 $502 $509 $415 $470 reversed $510 $-1 #
edge $-1 $471 0 $518 1.570796326794896558 $415 $519 forward 7 unknown #
vertex $-1 $470 $520 #
straight-curve $-1 5 7.5 -7.5 0 0 -1 I I #
coedge $-1 $506 $419 $417 $474 reversed $475 $-1 #
edge $-1 $521 0 $421 1.570796326794896558 $417 $522 forward 7 unknown #
loop $-1 $-1 $506 $466 #
straight-curve $-1 20 7.5 -11 0 1 0 I I #
point $-1 20 7.5 -11 #
point $-1 20 42.5 -11 #
straight-curve $-1 1 50 -6.5 1 0 0 I I #
sphere-surface $-1 1 49 -6.5 0.999999999999999889 1 0 0 0 0 1 forward_v I I I I #
coedge $-1 $439 $446 $435 $482 forward $489 $-1 #
edge $-1 $448 0 $441 35 $481 $523 forward 7 unknown #
coedge $-1 $524 $525 $436 $484 reversed $526 $-1 #
edge $-1 $486 0 $490 12 $436 $527 forward 7 unknown #
coedge $-1 $437 $450 $524 $528 forward $452 $-1 #
vertex $-1 $484 $529 #
ellipse-curve $-1 6.499999999999998224 42.5 11.00000000000000178 0 1 0 -1.499999999999998224 0 -1.776356839400250465e-15 1 I I #
coedge $-1 $446 $439 $525 $530 reversed $489 $-1 #
loop $-1 $-1 $481 $531 #
vertex $-1 $440 $532 #
ellipse-curve $-1 18.5 42.5 11 0 1 0 0 0 1.5 1 I I #
point $-1 20 42.5 11 #
face $-1 $531 $526 $2 $-1 $533 forward single #
cone-surface $-1 6.5 7.5 11 0 1 0 1.5 0 0 1 I I 0 1 1.5 forward I I I I #
coedge $-1 $525 $524 $445 $496 forward $526 $-1 #
edge $-1 $500 0 $497 12 $445 $534 forward 7 unknown #
vertex $-1 $496 $535 #
ellipse-curve $-1 18.5 7.5 11 0 1 0 0 0 1.5 1 I I #
point $-1 20 7.5 11 #
vertex $-1 $451 $536 #
ellipse-curve $-1 6.5 7.5 11 0 1 0 -1.5 0 0 1 I I #
coedge $-1 $462 $469 $458 $503 forward $510 $-1 #
edge $-1 $471 0 $464 35 $458 $537 forward 7 unknown #
coedge $-1 $538 $539 $459 $505 forward $540 $-1 #
edge $-1 $511 0 $507 12 $459 $541 forward 7 unknown #
coedge $-1 $460 $473 $538 $542 forward $475 $-1 #
vertex $-1 $505 $543 #
ellipse-curve $-1 18.5 42.5 -11 0 -1 0 0 0 -1.5 1 I I #
coedge $-1 $469 $462 $539 $544 reversed $510 $-1 #
loop $-1 $-1 $502 $545 #
vertex $-1 $463 $546 #
ellipse-curve $-1 6.499999999999998224 42.5 -11.00000000000000178 0 -1 0 -1.499999999999998224 0 1.776356839400250465e-15 1 I I #
point $-1 5 42.5 -11 #
face $-1 $545 $540 $2 $-1 $547 reversed single #
cone-surface $-1 18.5 7.5 -11 0 -1 0 1.5 0 0 1 I I 0 1 1.5 forward I I I I #
coedge $-1 $539 $538 $468 $517 reversed $540 $-1 #
edge $-1 $518 0 $521 12 $468 $548 forward 7 unknown #
vertex $-1 $517 $549 #
ellipse-curve $-1 6.5 7.5 -11 0 -1 0 -1.5 0 0 1 I I #
point $-1 5 7.5 -11 #
vertex $-1 $474 $550 #
ellipse-curve $-1 18.5 7.5 -11 0 -1 0 0 0 -1.5 1 I I #
straight-curve $-1 20 7.5 11 0 1 0 I I #
coedge $-1 $495 $483 $485 $528 reversed $526 $-1 #
coedge $-1 $483 $495 $488 $530 forward $526 $-1 #
loop $-1 $-1 $525 $493 #
straight-curve $-1 6.5 42.5 12.5 1 0 0 I I #
edge $-1 $500 0 $486 35 $485 $551 forward 7 unknown #
point $-1 6.5 42.5 12.5 #
edge $-1 $497 0 $490 35 $525 $552 forward 7 unknown #
face $-1 $212 $489 $2 $-1 $553 forward single #
point $-1 18.5 42.5 12.5 #
plane-surface $-1 6.5 7.5 12.5 0 0 1 1 0 0 forward_v I I I I #
straight-curve $-1 6.5 7.5 12.5 1 0 0 I I #
point $-1 18.5 7.5 12.5 #
point $-1 6.5 7.5 12.5 #
straight-curve $-1 5 7.5 -11 0 1 0 I I #
coedge $-1 $516 $504 $506 $542 reversed $540 $-1 #
coedge $-1 $504 $516 $509 $544 forward $540 $-1 #
loop $-1 $-1 $539 $514 #
straight-curve $-1 6.5 42.5 -12.5 1 0 0 I I #
edge $-1 $521 0 $507 35 $538 $554 forward 7 unknown #
point $-1 18.5 42.5 -12.5 #
edge $-1 $518 0 $511 35 $509 $555 forward 7 unknown #
face $-1 $-1 $510 $2 $-1 $556 forward single #
point $-1 6.5 42.5 -12.5 #
plane-surface $-1 6.5 7.5 -12.5 0 0 1 1 0 0 forward_v I I I I #
straight-curve $-1 6.5 7.5 -12.5 1 0 0 I I #
point $-1 6.5 7.5 -12.5 #
point $-1 18.5 7.5 -12.5 #
straight-curve $-1 6.5 7.5 12.5 0 1 0 I I #
straight-curve $-1 18.5 7.5 12.5 0 1 0 I I #
cone-surface $-1 18.5 7.5 11 0 1 0 1.5 0 0 1 I I 0 1 1.5 forward I I I I #
straight-curve $-1 18.5 7.5 -12.5 0 1 0 I I #
straight-curve $-1 6.5 7.5 -12.5 0 1 0 I I #
cone-surface $-1 6.5 7.5 -11 0 -1 0 1.5 0 0 1 I I 0 1 1.5 forward I I I I #
End-of-ACIS-data 