700 0 2 0           
24 FBMach with ACIS - 7.0.3 13 ACIS 7.0.3 NT 24 Wed May 15 23:28:33 2002 
1 9.9999999999999995e-007 1e-010 
body $2 -1 $-1 $3 $-1 $4 #
bdycol-kcp $-1 -1 1 2 $5 $6 #
model_id-kcp-attrib $-1 -1 $-1 $-1 $0 1 1021519713 1021519713 -1173749759 1 #
lump $-1 -1 $-1 $-1 $7 $0 #
transform $-1 -1 1 0 0 0 1 0 0 0 1 0 0 0 1 rotate no_reflect no_shear #
body $8 -1 $-1 $9 $-1 $10 #
body $11 -1 $-1 $12 $-1 $13 #
shell $-1 -1 $-1 $-1 $-1 $14 $-1 $3 #
model_id-kcp-attrib $-1 -1 $-1 $-1 $5 1 1021519713 1021519713 -1173749758 1 #
lump $-1 -1 $-1 $-1 $15 $5 #
transform $-1 -1 1 0 0 0 1 0 0 0 1 0 0.5 0 1 no_rotate no_reflect no_shear #
rgb_color-st-attrib $-1 -1 $16 $-1 $6 0.5 1 1 #
lump $-1 -1 $-1 $-1 $17 $6 #
transform $-1 -1 1 0 0 0 1 0 0 0 1 0 0.5 0 1 no_rotate no_reflect no_shear #
face $18 -1 $-1 $19 $20 $7 $-1 $21 reversed single #
shell $-1 -1 $-1 $-1 $-1 $22 $-1 $9 #
model_id-kcp-attrib $-1 -1 $-1 $11 $6 1 1021519713 1021519713 -1167851517 1 #
shell $-1 -1 $-1 $-1 $-1 $23 $-1 $12 #
model_id-kcp-attrib $-1 -1 $-1 $-1 $14 1 1021519713 1021519713 -1173749759 2 #
face $24 -1 $-1 $25 $26 $7 $-1 $27 forward single #
loop $-1 -1 $-1 $-1 $28 $14 #
plane-surface $-1 -1 $-1 0 0 0 0 1 0 1 0 0 forward_v I I I I #
face $-1 -1 $-1 $29 $30 $15 $-1 $31 forward single #
face $-1 -1 $-1 $32 $33 $17 $-1 $34 reversed single #
model_id-kcp-attrib $-1 -1 $-1 $-1 $19 1 1021519713 1021519713 -1173749759 3 #
face $35 -1 $-1 $36 $37 $7 $-1 $38 forward single #
loop $-1 -1 $-1 $-1 $39 $19 #
cone-surface $-1 -1 $-1 0 0 0 0 1 0 1.5 0 0 1 I I 0 1 1.5 forward I I I I #
coedge $-1 -1 $-1 $40 $40 $41 $42 reversed $20 $-1 #
face $-1 -1 $-1 $43 $44 $15 $-1 $45 reversed single #
loop $-1 -1 $-1 $-1 $46 $22 #
plane-surface $-1 -1 $-1 0 0 1.5 0 0 1 1 0 0 forward_v I I I I #
face $-1 -1 $-1 $47 $48 $17 $-1 $34 reversed single #
loop $-1 -1 $-1 $-1 $49 $23 #
cone-surface $-1 -1 $-1 -5.6237277068330154e-033 -0.5 0 0 -1 0 1.5 0 0 1 I I 0 1 1.5 forward I I I I #
model_id-kcp-attrib $-1 -1 $-1 $-1 $25 1 1021519713 1021519713 -1173749759 4 #
face $50 -1 $-1 $-1 $51 $7 $-1 $52 forward single #
loop $-1 -1 $-1 $-1 $53 $25 #
cone-surface $-1 -1 $-1 0 0 0 0 1 0 1.5 0 0 1 I I 0 1 1.5 forward I I I I #
coedge $-1 -1 $-1 $54 $41 $55 $56 forward $26 $-1 #
coedge $-1 -1 $-1 $28 $28 $57 $58 reversed $20 $-1 #
coedge $-1 -1 $-1 $39 $59 $28 $42 forward $26 $-1 #
edge $60 -1 $-1 $61 0 $62 3.1415926535897931 $28 $63 forward @7 unknown #
face $64 -1 $-1 $65 $66 $15 $-1 $67 reversed single #
loop $-1 -1 $-1 $-1 $68 $29 #
plane-surface $-1 -1 $-1 0 0 -1.5 0 0 1 1 0 0 forward_v I I I I #
coedge $-1 -1 $-1 $69 $70 $71 $72 forward $30 $-1 #
face $-1 -1 $-1 $73 $74 $17 $-1 $34 reversed single #
loop $-1 -1 $-1 $-1 $75 $32 #
coedge $-1 -1 $-1 $76 $77 $78 $79 reversed $33 $-1 #
model_id-kcp-attrib $-1 -1 $-1 $-1 $36 1 1021519713 1021519713 -1173749759 5 #
loop $-1 -1 $-1 $-1 $80 $36 #
plane-surface $-1 -1 $-1 0 1 0 0 1 0 1 0 0 forward_v I I I I #
coedge $-1 -1 $-1 $81 $57 $59 $82 forward $37 $-1 #
coedge $-1 -1 $-1 $59 $39 $80 $83 reversed $26 $-1 #
coedge $-1 -1 $-1 $57 $81 $39 $56 reversed $37 $-1 #
edge $-1 -1 $-1 $62 0 $84 1 $55 $85 forward @7 unknown #
coedge $-1 -1 $-1 $53 $55 $40 $58 forward $37 $-1 #
edge $86 -1 $-1 $62 0 $61 3.1415926535897931 $40 $87 forward @7 unknown #
coedge $-1 -1 $-1 $41 $54 $53 $82 reversed $26 $-1 #
attrib_edge_convexity-kcp-attrib $-1 -1 $88 $-1 $42 1 #
vertex $-1 -1 $-1 $58 $89 #
vertex $-1 -1 $-1 $58 $90 #
ellipse-curve $-1 -1 $-1 0 0 0 0 1 0 -1.5 0 0 1 I I #
model_id-kcp-attrib $-1 -1 $-1 $-1 $43 1 1021519713 1021519713 -1173749758 2 #
face $-1 -1 $-1 $91 $92 $15 $-1 $93 reversed single #
loop $-1 -1 $-1 $-1 $94 $43 #
plane-surface $-1 -1 $-1 0 -0.5 0 0 1 0 0 0 1 forward_v I I I I #
coedge $-1 -1 $-1 $95 $96 $97 $98 forward $44 $-1 #
coedge $-1 -1 $-1 $99 $46 $100 $101 forward $30 $-1 #
coedge $-1 -1 $-1 $46 $99 $102 $103 forward $30 $-1 #
coedge $-1 -1 $-1 $104 $105 $46 $72 reversed $106 $-1 #
edge $-1 -1 $-1 $107 -0.5 $108 0.5 $71 $109 forward @7 unknown #
face $-1 -1 $-1 $110 $111 $17 $-1 $34 reversed single #
loop $-1 -1 $-1 $-1 $112 $47 #
coedge $-1 -1 $-1 $113 $114 $115 $116 reversed $48 $-1 #
coedge $-1 -1 $-1 $117 $49 $118 $119 forward $33 $-1 #
coedge $-1 -1 $-1 $49 $117 $120 $121 reversed $33 $-1 #
coedge $-1 -1 $-1 $122 $123 $49 $79 forward $124 $-1 #
edge $-1 -1 $-1 $125 0 $126 1.5707963267948966 $78 $127 forward @7 unknown #
coedge $-1 -1 $-1 $128 $128 $54 $83 forward $51 $-1 #
coedge $-1 -1 $-1 $55 $53 $128 $129 reversed $37 $-1 #
edge $-1 -1 $-1 $61 0 $130 1 $53 $131 forward @7 unknown #
edge $-1 -1 $-1 $130 0 $84 3.1415926535897931 $80 $132 forward @7 unknown #
vertex $-1 -1 $-1 $129 $133 #
straight-curve $-1 -1 $-1 1.5 0 0 0 1 0 I I #
attrib_edge_convexity-kcp-attrib $-1 -1 $134 $-1 $58 1 #
ellipse-curve $-1 -1 $-1 0 0 0 0 1 0 1.5 0 0 1 I I #
convexity-sys-attrib $-1 -1 $-1 $60 $42 #
point $-1 -1 $-1 -1.5 0 0 #
point $-1 -1 $-1 1.5 0 0 #
face $135 -1 $-1 $136 $137 $15 $-1 $138 reversed single #
loop $-1 -1 $-1 $-1 $139 $65 #
plane-surface $-1 -1 $-1 -1.5 0 0 1 0 0 0 0 -1 forward_v I I I I #
coedge $-1 -1 $-1 $140 $102 $141 $142 forward $66 $-1 #
coedge $-1 -1 $-1 $143 $68 $140 $144 forward $44 $-1 #
coedge $-1 -1 $-1 $68 $143 $145 $146 forward $44 $-1 #
coedge $-1 -1 $-1 $105 $104 $68 $98 reversed $106 $-1 #
edge $-1 -1 $-1 $147 -0.5 $148 0.5 $97 $149 forward @7 unknown #
coedge $-1 -1 $-1 $70 $69 $150 $151 forward $30 $-1 #
coedge $-1 -1 $-1 $152 $153 $69 $101 reversed $137 $-1 #
edge $-1 -1 $-1 $108 -1.5 $154 1.5 $100 $155 forward @7 unknown #
coedge $-1 -1 $-1 $94 $156 $70 $103 reversed $66 $-1 #
edge $-1 -1 $-1 $157 -1.5 $107 1.5 $102 $158 forward @7 unknown #
coedge $-1 -1 $-1 $97 $71 $156 $159 forward $106 $-1 #
coedge $-1 -1 $-1 $71 $97 $152 $160 reversed $106 $-1 #
loop $-1 -1 $-1 $-1 $104 $136 #
vertex $-1 -1 $-1 $72 $161 #
vertex $-1 -1 $-1 $72 $162 #
straight-curve $-1 -1 $-1 1.5 0 1.5 0 1 0 I I #
face $-1 -1 $-1 $163 $164 $17 $-1 $165 forward single #
loop $-1 -1 $-1 $-1 $166 $73 #
coedge $-1 -1 $-1 $167 $168 $166 $169 forward $74 $-1 #
coedge $-1 -1 $-1 $170 $75 $171 $172 reversed $48 $-1 #
coedge $-1 -1 $-1 $75 $170 $77 $121 forward $48 $-1 #
coedge $-1 -1 $-1 $173 $174 $75 $116 forward $175 $-1 #
edge $-1 -1 $-1 $176 -3.1415926535897931 $177 -1.5707963267948966 $115 $178 forward @7 unknown #
coedge $-1 -1 $-1 $77 $76 $179 $180 reversed $33 $-1 #
coedge $-1 -1 $-1 $168 $167 $181 $119 reversed $74 $-1 #
edge $-1 -1 $-1 $125 -1 $182 0 $181 $183 forward @7 unknown #
coedge $-1 -1 $-1 $184 $185 $186 $121 forward $187 $-1 #
edge $-1 -1 $-1 $126 -1 $177 0 $120 $188 forward @7 unknown #
coedge $-1 -1 $-1 $123 $78 $185 $189 reversed $124 $-1 #
coedge $-1 -1 $-1 $78 $122 $190 $191 forward $124 $-1 #
loop $-1 -1 $-1 $-1 $78 $192 #
vertex $-1 -1 $-1 $193 $194 #
vertex $-1 -1 $-1 $195 $196 #
ellipse-curve $-1 -1 $-1 -5.6237277068330154e-033 0.5 0 0 -1 0 1.5 0 0 1 I I #
coedge $-1 -1 $-1 $80 $80 $81 $129 forward $51 $-1 #
edge $-1 -1 $-1 $84 0 $130 3.1415926535897931 $128 $197 forward @7 unknown #
vertex $-1 -1 $-1 $129 $198 #
straight-curve $-1 -1 $-1 -1.5 0 -1.8369095307335659e-016 0 1 0 I I #
ellipse-curve $-1 -1 $-1 0 1 0 0 1 0 -1.5 0 0 1 I I #
point $-1 -1 $-1 1.5 1 0 #
convexity-sys-attrib $-1 -1 $-1 $86 $58 #
model_id-kcp-attrib $-1 -1 $-1 $-1 $91 1 1021519713 1021519713 -1173749758 3 #
face $-1 -1 $-1 $-1 $106 $15 $-1 $199 reversed single #
loop $-1 -1 $-1 $-1 $152 $91 #
plane-surface $-1 -1 $-1 0 0.5 0 0 -1 0 0 0 -1 forward_v I I I I #
coedge $-1 -1 $-1 $200 $150 $153 $201 forward $92 $-1 #
coedge $-1 -1 $-1 $156 $94 $95 $144 reversed $66 $-1 #
coedge $-1 -1 $-1 $150 $200 $94 $142 reversed $92 $-1 #
edge $-1 -1 $-1 $157 -1.5 $202 1.5 $141 $203 forward @7 unknown #
coedge $-1 -1 $-1 $96 $95 $200 $204 forward $44 $-1 #
edge $-1 -1 $-1 $148 -1.5 $202 1.5 $140 $205 forward @7 unknown #
coedge $-1 -1 $-1 $153 $152 $96 $146 reversed $137 $-1 #
edge $-1 -1 $-1 $206 -1.5 $147 1.5 $145 $207 forward @7 unknown #
vertex $-1 -1 $-1 $98 $208 #
vertex $-1 -1 $-1 $159 $209 #
straight-curve $-1 -1 $-1 1.5 0 -1.5 0 -1 0 I I #
coedge $-1 -1 $-1 $139 $141 $99 $151 reversed $92 $-1 #
edge $-1 -1 $-1 $154 -0.5 $157 0.5 $150 $210 forward @7 unknown #
coedge $-1 -1 $-1 $145 $100 $105 $160 forward $137 $-1 #
coedge $-1 -1 $-1 $100 $145 $139 $201 reversed $137 $-1 #
vertex $-1 -1 $-1 $101 $211 #
straight-curve $-1 -1 $-1 0 0.5 1.5 -1 0 0 I I #
coedge $-1 -1 $-1 $102 $140 $104 $159 reversed $66 $-1 #
vertex $-1 -1 $-1 $151 $212 #
straight-curve $-1 -1 $-1 0 -0.5 1.5 1 0 0 I I #
edge $-1 -1 $-1 $107 -1.5 $148 1.5 $104 $213 forward @7 unknown #
edge $-1 -1 $-1 $108 -1.5 $147 1.5 $105 $214 forward @7 unknown #
point $-1 -1 $-1 1.5 -0.5 1.5 #
point $-1 -1 $-1 1.5 0.5 1.5 #
face $-1 -1 $-1 $215 $216 $17 $-1 $217 reversed single #
loop $-1 -1 $-1 $-1 $186 $110 #
plane-surface $-1 -1 $-1 0 0 1.5 0 0 1 1 0 0 forward_v I I I I #
coedge $-1 -1 $-1 $218 $219 $220 $169 reversed $111 $-1 #
coedge $-1 -1 $-1 $118 $112 $221 $222 reversed $74 $-1 #
coedge $-1 -1 $-1 $112 $118 $223 $224 reversed $74 $-1 #
edge $-1 -1 $-1 $225 -1 $226 0 $220 $227 forward @7 unknown #
coedge $-1 -1 $-1 $114 $113 $228 $229 reversed $48 $-1 #
coedge $-1 -1 $-1 $230 $231 $232 $172 forward $233 $-1 #
edge $-1 -1 $-1 $234 -1 $176 0 $171 $235 forward @7 unknown #
coedge $-1 -1 $-1 $174 $115 $236 $237 reversed $175 $-1 #
coedge $-1 -1 $-1 $115 $173 $230 $238 forward $175 $-1 #
loop $-1 -1 $-1 $-1 $115 $239 #
vertex $-1 -1 $-1 $240 $241 #
vertex $-1 -1 $-1 $242 $243 #
ellipse-curve $-1 -1 $-1 -5.6237277068330154e-033 -0.5 0 0 1 0 1.5 0 0 1 I I #
coedge $-1 -1 $-1 $244 $245 $117 $180 forward $246 $-1 #
edge $-1 -1 $-1 $177 -1.5707963267948966 $182 0 $179 $178 forward @7 unknown #
coedge $-1 -1 $-1 $247 $248 $249 $119 forward $216 $-1 #
vertex $-1 -1 $-1 $250 $251 #
straight-curve $-1 -1 $-1 1.5 -0.5 0 0 -1 0 I I #
coedge $-1 -1 $-1 $252 $120 $245 $242 forward $187 $-1 #
coedge $-1 -1 $-1 $120 $252 $122 $189 forward $187 $-1 #
coedge $-1 -1 $-1 $253 $236 $114 $121 reversed $164 $-1 #
loop $-1 -1 $-1 $-1 $120 $254 #
straight-curve $-1 -1 $-1 -5.6237277068330154e-033 -0.5 1.5 0 -1 0 I I #
edge $-1 -1 $-1 $255 -1.5 $126 5.6237277068330154e-033 $122 $256 forward @7 unknown #
coedge $-1 -1 $-1 $257 $249 $123 $191 reversed $258 $-1 #
edge $-1 -1 $-1 $255 -1.5 $125 0 $190 $259 forward @7 unknown #
face $-1 -1 $-1 $260 $124 $17 $-1 $261 reversed single #
edge $-1 -1 $-1 $125 0 $262 1.5 $248 $259 forward @7 unknown #
point $-1 -1 $-1 1.5 0.5 0 #
edge $-1 -1 $-1 $126 5.6237277068330154e-033 $263 1.5 $264 $256 forward @7 unknown #
point $-1 -1 $-1 -5.6237277068330154e-033 0.5 1.5 #
ellipse-curve $-1 -1 $-1 0 1 0 0 1 0 1.5 0 0 1 I I #
point $-1 -1 $-1 -1.5 1 0 #
plane-surface $-1 -1 $-1 1.5 0 0 -1 0 0 0 0 1 forward_v I I I I #
coedge $-1 -1 $-1 $141 $139 $143 $204 reversed $92 $-1 #
edge $-1 -1 $-1 $154 -1.5 $206 1.5 $153 $265 forward @7 unknown #
vertex $-1 -1 $-1 $204 $266 #
straight-curve $-1 -1 $-1 -1.5 -0.5 0 0 0 -1 I I #
edge $-1 -1 $-1 $202 -0.5 $206 0.5 $200 $267 forward @7 unknown #
straight-curve $-1 -1 $-1 0 -0.5 -1.5 -1 0 0 I I #
vertex $-1 -1 $-1 $146 $268 #
straight-curve $-1 -1 $-1 0 0.5 -1.5 1 0 0 I I #
point $-1 -1 $-1 1.5 0.5 -1.5 #
point $-1 -1 $-1 1.5 -0.5 -1.5 #
straight-curve $-1 -1 $-1 -1.5 0 1.5 0 -1 0 I I #
point $-1 -1 $-1 -1.5 0.5 1.5 #
point $-1 -1 $-1 -1.5 -0.5 1.5 #
straight-curve $-1 -1 $-1 1.5 -0.5 0 0 0 -1 I I #
straight-curve $-1 -1 $-1 1.5 0.5 0 0 0 -1 I I #
face $-1 -1 $-1 $269 $270 $17 $-1 $271 reversed single #
loop $-1 -1 $-1 $-1 $181 $163 #
plane-surface $-1 -1 $-1 1.5 0 0 -1 0 0 0 0 1 forward_v I I I I #
coedge $-1 -1 $-1 $272 $166 $273 $274 reversed $111 $-1 #
coedge $-1 -1 $-1 $166 $272 $275 $276 reversed $111 $-1 #
coedge $-1 -1 $-1 $277 $278 $279 $169 forward $280 $-1 #
coedge $-1 -1 $-1 $281 $282 $167 $222 forward $283 $-1 #
edge $-1 -1 $-1 $182 0 $226 1.5707963267948966 $221 $178 forward @7 unknown #
coedge $-1 -1 $-1 $284 $285 $168 $224 forward $286 $-1 #
edge $-1 -1 $-1 $225 -1.5707963267948966 $125 0 $223 $127 forward @7 unknown #
vertex $-1 -1 $-1 $287 $288 #
vertex $-1 -1 $-1 $289 $290 #
straight-curve $-1 -1 $-1 -5.6237277068330154e-033 -0.5 -1.5 0 -1 0 I I #
coedge $-1 -1 $-1 $291 $264 $170 $229 forward $292 $-1 #
edge $-1 -1 $-1 $126 1.5707963267948966 $234 3.1415926535897931 $228 $127 forward @7 unknown #
coedge $-1 -1 $-1 $293 $171 $174 $238 reversed $233 $-1 #
coedge $-1 -1 $-1 $171 $293 $291 $294 forward $233 $-1 #
coedge $-1 -1 $-1 $295 $296 $272 $172 reversed $270 $-1 #
loop $-1 -1 $-1 $-1 $171 $297 #
vertex $-1 -1 $-1 $298 $299 #
straight-curve $-1 -1 $-1 -1.5 -0.5 0 0 -1 0 I I #
coedge $-1 -1 $-1 $186 $300 $173 $237 forward $164 $-1 #
edge $-1 -1 $-1 $301 -1.5 $177 -5.6237277068330154e-033 $173 $302 forward @7 unknown #
edge $-1 -1 $-1 $301 -1.5 $176 0 $230 $303 forward @7 unknown #
face $-1 -1 $-1 $304 $175 $17 $-1 $305 reversed single #
edge $-1 -1 $-1 $176 0 $306 1.5 $296 $303 forward @7 unknown #
point $-1 -1 $-1 -1.5 -0.5 0 #
edge $-1 -1 $-1 $177 -5.6237277068330154e-033 $307 1.5 $245 $302 forward @7 unknown #
point $-1 -1 $-1 -5.6237277068330154e-033 -0.5 1.5 #
coedge $-1 -1 $-1 $245 $179 $308 $309 reversed $246 $-1 #
coedge $-1 -1 $-1 $179 $244 $184 $242 reversed $246 $-1 #
loop $-1 -1 $-1 $-1 $179 $304 #
coedge $-1 -1 $-1 $310 $181 $282 $250 forward $216 $-1 #
coedge $-1 -1 $-1 $181 $310 $284 $193 reversed $216 $-1 #
coedge $-1 -1 $-1 $190 $308 $76 $119 reversed $258 $-1 #
edge $-1 -1 $-1 $182 0 $311 1.5 $247 $312 forward @7 unknown #
point $-1 -1 $-1 1.5 -0.5 0 #
coedge $-1 -1 $-1 $185 $184 $257 $313 forward $187 $-1 #
coedge $-1 -1 $-1 $300 $186 $264 $195 forward $164 $-1 #
face $-1 -1 $-1 $314 $187 $17 $-1 $165 forward single #
vertex $-1 -1 $-1 $313 $315 #
straight-curve $-1 -1 $-1 0 0.5 1.5 -1 0 0 I I #
coedge $-1 -1 $-1 $308 $190 $252 $313 reversed $258 $-1 #
loop $-1 -1 $-1 $-1 $249 $316 #
straight-curve $-1 -1 $-1 1.5 0.5 0 0 0 -1 I I #
face $-1 -1 $-1 $317 $292 $17 $-1 $261 reversed single #
plane-surface $-1 -1 $-1 0 0.5 0 0 -1 0 0 0 -1 forward_v I I I I #
vertex $-1 -1 $-1 $318 $319 #
vertex $-1 -1 $-1 $195 $320 #
coedge $-1 -1 $-1 $228 $291 $253 $195 reversed $292 $-1 #
straight-curve $-1 -1 $-1 -1.5 0.5 0 0 0 -1 I I #
point $-1 -1 $-1 -1.5 -0.5 -1.5 #
straight-curve $-1 -1 $-1 -1.5 0 -1.5 0 1 0 I I #
point $-1 -1 $-1 -1.5 0.5 -1.5 #
face $-1 -1 $-1 $239 $321 $17 $-1 $305 reversed single #
loop $-1 -1 $-1 $-1 $232 $215 #
plane-surface $-1 -1 $-1 -1.5 0 0 1 0 0 0 0 -1 forward_v I I I I #
coedge $-1 -1 $-1 $219 $218 $113 $172 forward $111 $-1 #
coedge $-1 -1 $-1 $322 $323 $218 $274 forward $324 $-1 #
edge $-1 -1 $-1 $234 -3.1415926535897931 $225 -1.5707963267948966 $273 $127 forward @7 unknown #
coedge $-1 -1 $-1 $325 $326 $219 $276 forward $321 $-1 #
edge $-1 -1 $-1 $226 1.5707963267948966 $176 3.1415926535897931 $275 $178 forward @7 unknown #
coedge $-1 -1 $-1 $327 $220 $326 $289 forward $280 $-1 #
coedge $-1 -1 $-1 $220 $327 $322 $328 forward $280 $-1 #
coedge $-1 -1 $-1 $329 $330 $112 $169 reversed $331 $-1 #
loop $-1 -1 $-1 $-1 $220 $314 #
coedge $-1 -1 $-1 $282 $221 $330 $332 reversed $283 $-1 #
coedge $-1 -1 $-1 $221 $281 $247 $250 reversed $283 $-1 #
loop $-1 -1 $-1 $-1 $221 $333 #
coedge $-1 -1 $-1 $285 $223 $248 $193 forward $286 $-1 #
coedge $-1 -1 $-1 $223 $284 $329 $287 reversed $286 $-1 #
loop $-1 -1 $-1 $-1 $223 $334 #
edge $-1 -1 $-1 $225 -5.6237277068330154e-033 $262 1.5 $285 $335 forward @7 unknown #
point $-1 -1 $-1 -5.6237277068330154e-033 0.5 -1.5 #
edge $-1 -1 $-1 $226 5.6237277068330154e-033 $306 1.5 $326 $336 forward @7 unknown #
point $-1 -1 $-1 -5.6237277068330154e-033 -0.5 -1.5 #
coedge $-1 -1 $-1 $264 $228 $231 $294 reversed $292 $-1 #
loop $-1 -1 $-1 $-1 $228 $260 #
coedge $-1 -1 $-1 $231 $230 $300 $337 reversed $233 $-1 #
edge $-1 -1 $-1 $263 -1.5 $234 0 $291 $338 forward @7 unknown #
coedge $-1 -1 $-1 $339 $232 $323 $298 forward $270 $-1 #
coedge $-1 -1 $-1 $232 $339 $325 $240 reversed $270 $-1 #
face $-1 -1 $-1 $316 $233 $17 $-1 $271 reversed single #
edge $-1 -1 $-1 $234 0 $340 1.5 $323 $338 forward @7 unknown #
point $-1 -1 $-1 -1.5 0.5 0 #
coedge $-1 -1 $-1 $236 $253 $293 $337 forward $164 $-1 #
vertex $-1 -1 $-1 $337 $341 #
straight-curve $-1 -1 $-1 0 -0.5 1.5 1 0 0 I I #
straight-curve $-1 -1 $-1 -1.5 -0.5 0 0 0 -1 I I #
face $-1 -1 $-1 $333 $246 $17 $-1 $305 reversed single #
plane-surface $-1 -1 $-1 0 -0.5 0 0 1 0 0 0 1 forward_v I I I I #
vertex $-1 -1 $-1 $342 $343 #
vertex $-1 -1 $-1 $313 $344 #
coedge $-1 -1 $-1 $249 $257 $244 $309 forward $258 $-1 #
edge $-1 -1 $-1 $307 -1.5 $182 0 $308 $312 forward @7 unknown #
coedge $-1 -1 $-1 $248 $247 $345 $318 reversed $216 $-1 #
vertex $-1 -1 $-1 $250 $346 #
straight-curve $-1 -1 $-1 1.5 -0.5 0 0 0 -1 I I #
edge $-1 -1 $-1 $307 -0.5 $255 0.5 $257 $347 forward @7 unknown #
face $-1 -1 $-1 $297 $280 $17 $-1 $348 reversed single #
point $-1 -1 $-1 1.5 0.5 1.5 #
face $-1 -1 $-1 $-1 $258 $17 $-1 $217 reversed single #
face $-1 -1 $-1 $349 $324 $17 $-1 $261 reversed single #
edge $-1 -1 $-1 $262 -0.5 $311 0.5 $310 $350 forward @7 unknown #
point $-1 -1 $-1 1.5 0.5 -1.5 #
point $-1 -1 $-1 -1.5 0.5 1.5 #
loop $-1 -1 $-1 $-1 $275 $269 #
coedge $-1 -1 $-1 $323 $273 $278 $328 reversed $324 $-1 #
coedge $-1 -1 $-1 $273 $322 $295 $298 reversed $324 $-1 #
loop $-1 -1 $-1 $-1 $273 $317 #
coedge $-1 -1 $-1 $326 $275 $296 $240 forward $321 $-1 #
coedge $-1 -1 $-1 $275 $325 $277 $289 reversed $321 $-1 #
coedge $-1 -1 $-1 $278 $277 $339 $342 forward $280 $-1 #
edge $-1 -1 $-1 $340 -1.5 $225 -5.6237277068330154e-033 $322 $335 forward @7 unknown #
coedge $-1 -1 $-1 $345 $279 $285 $287 forward $331 $-1 #
coedge $-1 -1 $-1 $279 $345 $281 $332 forward $331 $-1 #
loop $-1 -1 $-1 $-1 $279 $349 #
edge $-1 -1 $-1 $311 -1.5 $226 5.6237277068330154e-033 $281 $336 forward @7 unknown #
face $-1 -1 $-1 $334 $283 $17 $-1 $305 reversed single #
face $-1 -1 $-1 $192 $286 $17 $-1 $261 reversed single #
straight-curve $-1 -1 $-1 0 0.5 -1.5 1 0 0 I I #
straight-curve $-1 -1 $-1 0 -0.5 -1.5 -1 0 0 I I #
edge $-1 -1 $-1 $263 -0.5 $301 0.5 $293 $351 forward @7 unknown #
straight-curve $-1 -1 $-1 -1.5 0.5 0 0 0 -1 I I #
coedge $-1 -1 $-1 $296 $295 $327 $342 reversed $270 $-1 #
vertex $-1 -1 $-1 $328 $352 #
point $-1 -1 $-1 -1.5 -0.5 1.5 #
edge $-1 -1 $-1 $306 -0.5 $340 0.5 $339 $353 forward @7 unknown #
point $-1 -1 $-1 -1.5 -0.5 -1.5 #
point $-1 -1 $-1 1.5 -0.5 1.5 #
coedge $-1 -1 $-1 $330 $329 $310 $318 forward $331 $-1 #
point $-1 -1 $-1 1.5 -0.5 -1.5 #
straight-curve $-1 -1 $-1 1.5 0 1.5 0 1 0 I I #
plane-surface $-1 -1 $-1 0 0 -1.5 0 0 1 1 0 0 forward_v I I I I #
face $-1 -1 $-1 $254 $331 $17 $-1 $348 reversed single #
straight-curve $-1 -1 $-1 1.5 0 -1.5 0 -1 0 I I #
straight-curve $-1 -1 $-1 -1.5 0 1.5 0 -1 0 I I #
point $-1 -1 $-1 -1.5 0.5 -1.5 #
straight-curve $-1 -1 $-1 -1.5 0 -1.5 0 1 0 I I #
End-of-ACIS-data 