600 0 1 0           
99 GICL Pro/E ACIS Translator - Source: f:/data5/repository/PTC/V18/cabecad18/ptc_comp/tuner.prt - 6 0 13 ACIS 6.0.3 NT 24 Thu Apr 04 10:03:00 2002 
1 9.9999999999999995e-007 1e-010 
body $-1 $1 $-1 $-1 #
lump $-1 $-1 $2 $0 #
shell $-1 $-1 $-1 $3 $-1 $1 #
face $-1 $4 $5 $2 $-1 $6 reversed single #
face $-1 $7 $8 $2 $-1 $9 forward single #
loop $-1 $-1 $10 $3 #
plane-surface $-1 0 0 0 0 1 0 -1 0 0 forward_v I I I I #
face $-1 $11 $12 $2 $-1 $13 forward single #
loop $-1 $-1 $14 $4 #
cone-surface $-1 -44.5 0.5 -0.5 -1 0 0 0 -0.5 0 1 I I 0 1 0.5 forward I I I I #
coedge $-1 $15 $16 $17 $18 reversed $5 $-1 #
face $-1 $19 $20 $2 $-1 $21 forward single #
loop $-1 $-1 $22 $7 #
sphere-surface $-1 -0.5 0.5 -0.5 0.49999999999999994 1 0 0 0 0 1 forward_v I I I I #
coedge $-1 $23 $17 $24 $25 forward $8 $-1 #
coedge $-1 $26 $10 $27 $28 reversed $5 $-1 #
coedge $-1 $10 $29 $30 $31 reversed $5 $-1 #
coedge $-1 $14 $32 $10 $18 forward $8 $-1 #
edge $-1 $33 0 $34 44 $10 $35 forward 7 unknown #
face $-1 $36 $37 $2 $-1 $38 forward single #
loop $-1 $-1 $39 $11 #
cone-surface $-1 -0.5 0.5 -0.5 0 0 1 0 -0.5 0 1 I I 0 1 0.5 forward I I I I #
coedge $-1 $40 $24 $41 $42 reversed $12 $-1 #
coedge $-1 $32 $14 $43 $44 reversed $8 $-1 #
coedge $-1 $22 $40 $14 $25 reversed $12 $-1 #
edge $-1 $34 0 $45 1.5707963267948966 $24 $46 forward 7 unknown #
coedge $-1 $47 $15 $48 $49 reversed $5 $-1 #
coedge $-1 $50 $51 $15 $28 forward $52 $-1 #
edge $-1 $53 0 $33 9 $15 $54 forward 7 unknown #
coedge $-1 $16 $47 $55 $56 reversed $5 $-1 #
coedge $-1 $39 $41 $16 $31 forward $20 $-1 #
edge $-1 $34 0 $57 19 $16 $58 forward 7 unknown #
coedge $-1 $17 $23 $59 $60 forward $8 $-1 #
vertex $-1 $28 $61 #
vertex $-1 $31 $62 #
straight-curve $-1 -44.5 0 -0.5 1 0 0 I I #
face $-1 $63 $64 $2 $-1 $65 forward single #
loop $-1 $-1 $66 $19 #
sphere-surface $-1 -0.5 0.5 -19.5 0.49999999999999994 1 0 0 0 0 1 forward_v I I I I #
coedge $-1 $67 $30 $66 $68 forward $20 $-1 #
coedge $-1 $24 $22 $69 $70 reversed $12 $-1 #
coedge $-1 $30 $67 $22 $42 forward $20 $-1 #
edge $-1 $71 1.1102230246251565e-016 $34 1.5707963267948966 $22 $72 forward 7 unknown #
coedge $-1 $73 $74 $23 $44 forward $75 $-1 #
edge $-1 $76 0 $45 44 $43 $77 forward 7 unknown #
vertex $-1 $25 $78 #
ellipse-curve $-1 -0.5 0.5 -0.5 -1 2.2204460492503126e-016 0 -1.1102230246251565e-016 -0.50000000000000011 0 1 I I #
coedge $-1 $29 $26 $79 $80 reversed $5 $-1 #
coedge $-1 $81 $82 $26 $49 forward $83 $-1 #
edge $-1 $84 0 $53 10 $26 $85 forward 7 unknown #
coedge $-1 $86 $27 $87 $88 forward $52 $-1 #
coedge $-1 $27 $86 $89 $90 forward $52 $-1 #
loop $-1 $-1 $50 $91 #
vertex $-1 $49 $92 #
straight-curve $-1 -44.5 0 -9.5 0 0 1 I I #
coedge $-1 $93 $94 $29 $56 forward $64 $-1 #
edge $-1 $57 0 $95 34 $29 $96 forward 7 unknown #
vertex $-1 $31 $97 #
straight-curve $-1 -0.5 0 -0.5 0 0 -1 I I #
coedge $-1 $98 $87 $32 $60 reversed $99 $-1 #
edge $-1 $76 0 $33 1.5707963267948966 $59 $100 forward 7 unknown #
point $-1 -44.5 0 -0.5 #
point $-1 -0.5 0 -0.5 #
face $-1 $101 $102 $2 $-1 $103 forward single #
loop $-1 $-1 $93 $36 #
cone-surface $-1 0 0.5 -19.5 1 0 0 0 -0.5 0 1 I I 0 1 0.5 forward I I I I #
coedge $-1 $104 $105 $39 $68 reversed $37 $-1 #
coedge $-1 $41 $39 $106 $107 reversed $20 $-1 #
edge $-1 $57 0 $108 1.5707963267948966 $66 $109 forward 7 unknown #
coedge $-1 $110 $111 $40 $70 forward $112 $-1 #
edge $-1 $45 0 $71 1.5707963267948966 $40 $113 forward 7 unknown #
vertex $-1 $70 $114 #
ellipse-curve $-1 -0.5 0.5 -0.5 0 0 -1 0.49999999999999994 0 0 1 I I #
coedge $-1 $115 $43 $111 $116 forward $75 $-1 #
coedge $-1 $43 $117 $118 $119 reversed $75 $-1 #
loop $-1 $-1 $74 $120 #
vertex $-1 $121 $122 #
straight-curve $-1 -44.5 0.49999999999999994 0 1 0 0 I I #
point $-1 -0.5 0.5 0 #
coedge $-1 $123 $124 $47 $80 forward $125 $-1 #
edge $-1 $95 0 $84 10 $47 $126 forward 7 unknown #
coedge $-1 $127 $48 $128 $129 forward $83 $-1 #
coedge $-1 $48 $127 $123 $130 reversed $83 $-1 #
loop $-1 $-1 $81 $131 #
vertex $-1 $80 $132 #
straight-curve $-1 -34.5 0 -9.5 -1 0 0 I I #
coedge $-1 $51 $50 $133 $134 reversed $52 $-1 #
coedge $-1 $59 $98 $50 $88 reversed $99 $-1 #
edge $-1 $33 0 $135 1.5707963267948966 $87 $136 forward 7 unknown #
coedge $-1 $137 $128 $51 $90 reversed $138 $-1 #
edge $-1 $139 1.1102230246251565e-016 $53 1.5707963267948966 $89 $140 forward 7 unknown #
face $-1 $141 $52 $2 $-1 $142 forward single #
point $-1 -44.5 0 -9.5 #
coedge $-1 $143 $55 $144 $145 forward $64 $-1 #
coedge $-1 $55 $143 $104 $146 forward $64 $-1 #
vertex $-1 $56 $147 #
straight-curve $-1 -0.5 0 -19.5 -1 0 0 I I #
point $-1 -0.5 0 -19.5 #
coedge $-1 $87 $59 $148 $121 reversed $99 $-1 #
loop $-1 $-1 $59 $141 #
ellipse-curve $-1 -44.5 0.5 -0.5 1 0 0 0 0 0.49999999999999994 1 I I #
face $-1 $131 $125 $2 $-1 $149 forward single #
loop $-1 $-1 $150 $63 #
sphere-surface $-1 -34.5 0.5 -19.5 0.49999999999999994 1 0 0 0 0 1 forward_v I I I I #
coedge $-1 $105 $66 $94 $146 reversed $37 $-1 #
coedge $-1 $66 $104 $151 $152 reversed $37 $-1 #
coedge $-1 $153 $154 $67 $107 forward $155 $-1 #
edge $-1 $71 0 $108 19 $106 $156 forward 7 unknown #
vertex $-1 $107 $157 #
ellipse-curve $-1 -0.5 0.5 -19.5 0 0 1 0 -0.49999999999999994 0 1 I I #
coedge $-1 $158 $69 $154 $159 forward $112 $-1 #
coedge $-1 $69 $158 $73 $116 reversed $112 $-1 #
loop $-1 $-1 $158 $160 #
ellipse-curve $-1 -0.5 0.5 -0.5 0 1 0 0 0 0.5 1 I I #
point $-1 0 0.49999999999999994 -0.5 #
coedge $-1 $161 $73 $162 $163 reversed $75 $-1 #
edge $-1 $45 0 $164 59 $73 $165 forward 7 unknown #
coedge $-1 $74 $166 $167 $168 reversed $75 $-1 #
coedge $-1 $169 $148 $74 $119 forward $170 $-1 #
edge $-1 $76 0 $171 59 $74 $172 forward 7 unknown #
face $-1 $160 $75 $2 $-1 $173 forward single #
edge $-1 $135 0 $76 1.5707963267948966 $98 $174 forward 7 unknown #
point $-1 -44.5 0.5 0 #
coedge $-1 $175 $79 $82 $130 forward $125 $-1 #
coedge $-1 $79 $175 $150 $176 forward $125 $-1 #
loop $-1 $-1 $123 $101 #
straight-curve $-1 -34.5 0 -19.5 0 0 1 I I #
coedge $-1 $82 $81 $177 $178 reversed $83 $-1 #
coedge $-1 $89 $137 $81 $129 reversed $138 $-1 #
edge $-1 $53 0 $179 1.5707963267948966 $128 $180 forward 7 unknown #
edge $-1 $84 0 $181 1 $82 $182 forward 7 unknown #
face $-1 $183 $83 $2 $-1 $184 forward single #
point $-1 -34.5 0 -9.5 #
coedge $-1 $185 $186 $86 $134 forward $187 $-1 #
edge $-1 $139 0 $135 9 $133 $188 forward 7 unknown #
vertex $-1 $88 $189 #
ellipse-curve $-1 -44.5 0.5 -0.5 0 2.2204460492503126e-016 -1 0 -0.50000000000000011 -1.1102230246251565e-016 1 I I #
coedge $-1 $128 $89 $190 $191 reversed $138 $-1 #
loop $-1 $-1 $89 $183 #
vertex $-1 $191 $192 #
ellipse-curve $-1 -44.5 0.5 -9.5 0 0 1 -0.5 0 0 1 I I #
face $-1 $193 $99 $2 $-1 $194 forward single #
cone-surface $-1 -44.5 0.5 -9.5 0 0 -1 0 -0.5 0 1 I I 0 1 0.5 forward I I I I #
coedge $-1 $94 $93 $195 $196 reversed $64 $-1 #
coedge $-1 $150 $197 $93 $145 reversed $102 $-1 #
edge $-1 $95 0 $198 1.5707963267948966 $144 $199 forward 7 unknown #
edge $-1 $200 1.1102230246251565e-016 $57 1.5707963267948966 $104 $201 forward 7 unknown #
point $-1 -34.5 0 -19.5 #
coedge $-1 $118 $202 $98 $121 forward $170 $-1 #
cone-surface $-1 -34.5 0.5 -19.5 0 0 -1 0 -0.5 0 1 I I 0 1 0.5 forward I I I I #
coedge $-1 $197 $144 $124 $176 reversed $102 $-1 #
coedge $-1 $203 $204 $105 $152 forward $205 $-1 #
edge $-1 $108 0 $200 1.5707963267948966 $105 $206 forward 7 unknown #
coedge $-1 $207 $106 $204 $208 forward $155 $-1 #
coedge $-1 $106 $207 $110 $159 reversed $155 $-1 #
loop $-1 $-1 $153 $209 #
straight-curve $-1 0 0.49999999999999994 -0.5 0 0 -1 I I #
point $-1 0 0.49999999999999994 -19.5 #
coedge $-1 $111 $110 $210 $211 forward $112 $-1 #
edge $-1 $71 -5.5511151231257827e-017 $212 59 $154 $213 forward 7 unknown #
face $-1 $209 $112 $2 $-1 $214 forward single #
coedge $-1 $215 $115 $216 $217 reversed $75 $-1 #
coedge $-1 $218 $219 $115 $163 forward $220 $-1 #
edge $-1 $221 0 $164 2.5 $115 $222 forward 7 unknown #
vertex $-1 $211 $223 #
straight-curve $-1 -0.5 0.5 0 0 1 0 I I #
coedge $-1 $117 $224 $225 $226 forward $75 $-1 #
coedge $-1 $227 $228 $117 $168 forward $229 $-1 #
edge $-1 $171 0 $230 14.5 $117 $231 forward 7 unknown #
coedge $-1 $202 $118 $232 $233 forward $170 $-1 #
loop $-1 $-1 $169 $193 #
vertex $-1 $168 $234 #
straight-curve $-1 -44.5 0.5 0 0 1 0 I I #
plane-surface $-1 -45 0 0 0 0 1 1 0 0 forward_v I I I I #
ellipse-curve $-1 -44.5 0.5 -0.5 0 1 0 -0.5 0 0 1 I I #
coedge $-1 $124 $123 $235 $236 reversed $125 $-1 #
edge $-1 $237 0 $95 1.5707963267948966 $150 $238 forward 7 unknown #
coedge $-1 $239 $240 $127 $178 forward $241 $-1 #
edge $-1 $181 0 $179 9.5 $177 $242 forward 7 unknown #
vertex $-1 $129 $243 #
ellipse-curve $-1 -44.5 0.5 -9.5 1 0 0 0 -0.50000000000000011 0 1 I I #
vertex $-1 $244 $245 #
intcurve-curve $-1 forward { surfintcur full nurbs 3 open 6 
	0 3 0.20858093685609524 1 0.41232944676481526 1 0.61178879757480131 1 0.80746186659233787 1 
	1 3 
	-34.5 0 -9.5 1 
	-34.560200052936345 0.0013469669125997091 -9.5602000529363451 1 
	-34.670454277937687 0.019980362396631979 -9.6704542779376865 1 
	-34.811768011765515 0.098862605118411009 -9.8117680117655244 1.0000000000000002 
	-34.918955935670525 0.21241398650577817 -9.918955935670521 0.99999999999999978 
	-34.985974234281706 0.35403017406979181 -9.9859742342817075 1.0000000000000002 
	-35.000019357238301 0.45023605304410946 -10.000019357238303 1 
	-35 0.49999999999999994 -10 1 
	0.001 
	cone -34.5 0.5 -9.5 1 0 0 0 -0.5 0 1 I I 0 1 0.5 forward I I I I 
	cone -34.5 0.5 -19.5 0 0 -1 0 -0.5 0 1 I I 0 1 0.5 forward I I I I 
	nullbs 
	nullbs 
	F 8.1655819033043835e-007 I 
	0 
	1 8.1655819033043835e-007 
	0 
	} I I #
face $-1 $91 $138 $2 $-1 $246 forward single #
cone-surface $-1 -34.5 0.5 -9.5 1 0 0 0 -0.5 0 1 I I 0 1 0.5 forward I I I I #
coedge $-1 $247 $133 $202 $248 forward $187 $-1 #
coedge $-1 $133 $247 $249 $250 reversed $187 $-1 #
loop $-1 $-1 $185 $251 #
straight-curve $-1 -45 0.49999999999999994 -9.5 0 0 1 I I #
point $-1 -45 0.49999999999999994 -0.5 #
coedge $-1 $249 $252 $137 $191 forward $253 $-1 #
edge $-1 $179 0 $139 1.5707963267948966 $137 $254 forward 7 unknown #
point $-1 -45 0.49999999999999994 -9.5 #
face $-1 $255 $170 $2 $-1 $256 forward single #
sphere-surface $-1 -44.5 0.5 -0.5 0.49999999999999994 1 0 0 0 0 1 forward_v I I I I #
coedge $-1 $257 $258 $143 $196 forward $259 $-1 #
edge $-1 $200 0 $198 34 $195 $260 forward 7 unknown #
coedge $-1 $144 $150 $261 $262 reversed $102 $-1 #
vertex $-1 $145 $263 #
ellipse-curve $-1 -34.5 0.5 -19.5 1 0 0 0 -0.50000000000000011 0 1 I I #
vertex $-1 $152 $264 #
ellipse-curve $-1 -0.5 0.5 -19.5 -1 0 0 0 0 -0.5 1 I I #
coedge $-1 $148 $169 $185 $248 reversed $170 $-1 #
coedge $-1 $265 $151 $258 $266 forward $205 $-1 #
coedge $-1 $151 $265 $153 $208 reversed $205 $-1 #
loop $-1 $-1 $265 $267 #
ellipse-curve $-1 -0.5 0.5 -19.5 -2.2204460492503126e-016 1 0 0.50000000000000011 1.1102230246251565e-016 0 1 I I #
coedge $-1 $154 $153 $268 $269 reversed $155 $-1 #
edge $-1 $108 -5.5511151231257827e-017 $270 59 $153 $271 forward 7 unknown #
face $-1 $267 $155 $2 $-1 $272 forward single #
coedge $-1 $273 $274 $158 $211 reversed $275 $-1 #
edge $-1 $212 0 $164 1.5707963267948966 $210 $276 forward 7 unknown #
vertex $-1 $159 $277 #
straight-curve $-1 0 0.5 -0.5 0 1 0 I I #
cone-surface $-1 -0.5 0 -0.5 0 -1 0 0.5 0 0 1 I I 0 1 0.5 forward I I I I #
coedge $-1 $278 $161 $279 $280 reversed $75 $-1 #
coedge $-1 $281 $282 $161 $217 forward $283 $-1 #
edge $-1 $284 0 $221 4.4499999999999957 $161 $285 forward 7 unknown #
coedge $-1 $286 $162 $274 $287 forward $220 $-1 #
coedge $-1 $162 $286 $281 $288 forward $220 $-1 #
loop $-1 $-1 $162 $289 #
vertex $-1 $217 $290 #
straight-curve $-1 -3 59.5 0 1 0 0 I I #
point $-1 -0.5 59.5 0 #
coedge $-1 $166 $291 $292 $293 reversed $75 $-1 #
coedge $-1 $294 $295 $166 $226 reversed $296 $-1 #
edge $-1 $297 0 $230 4.4499999999999957 $166 $298 forward 7 unknown #
coedge $-1 $299 $167 $295 $300 reversed $229 $-1 #
coedge $-1 $167 $299 $301 $302 forward $229 $-1 #
loop $-1 $-1 $299 $303 #
vertex $-1 $168 $304 #
straight-curve $-1 -44.5 59.5 0 1 0 0 I I #
coedge $-1 $301 $305 $169 $233 reversed $306 $-1 #
edge $-1 $171 0 $307 1.5707963267948966 $232 $308 forward 7 unknown #
point $-1 -44.5 59.5 0 #
coedge $-1 $309 $310 $175 $236 forward $311 $-1 #
edge $-1 $237 0 $181 9.5 $235 $312 forward 7 unknown #
vertex $-1 $262 $313 #
ellipse-curve $-1 -34.5 0.5 -19.5 0 0 1 -0.5 0 0 1 I I #
coedge $-1 $314 $177 $252 $315 forward $241 $-1 #
coedge $-1 $177 $314 $309 $244 reversed $241 $-1 #
loop $-1 $-1 $177 $316 #
straight-curve $-1 -35 0.49999999999999994 -10 -1 0 0 I I #
point $-1 -44.5 0.5 -10 #
edge $-1 $181 0 $317 59.001911639760849 $309 $318 forward 7 unknown #
point $-1 -35 0.5 -10 #
sphere-surface $-1 -44.5 0.5 -9.5 0.49999999999999994 1 0 0 0 0 1 forward_v I I I I #
coedge $-1 $186 $185 $319 $320 reversed $187 $-1 #
edge $-1 $135 -5.5511151231257827e-017 $307 59 $185 $321 forward 7 unknown #
coedge $-1 $322 $190 $186 $250 forward $253 $-1 #
edge $-1 $139 -5.5511151231257827e-017 $323 59 $186 $324 forward 7 unknown #
face $-1 $325 $187 $2 $-1 $326 forward single #
coedge $-1 $190 $322 $239 $315 reversed $253 $-1 #
loop $-1 $-1 $322 $327 #
ellipse-curve $-1 -44.5 0.5 -9.5 0 1 0 0 0 -0.5 1 I I #
face $-1 $303 $306 $2 $-1 $328 forward single #
cone-surface $-1 -44.5 0 -0.5 0 -1 0 0 0 0.5 1 I I 0 1 0.5 forward I I I I #
coedge $-1 $329 $195 $330 $331 forward $259 $-1 #
coedge $-1 $195 $329 $203 $266 reversed $259 $-1 #
loop $-1 $-1 $257 $332 #
straight-curve $-1 -0.5 0.49999999999999994 -20 -1 0 0 I I #
coedge $-1 $333 $330 $197 $262 forward $334 $-1 #
edge $-1 $198 0 $237 1.5707963267948966 $197 $335 forward 7 unknown #
point $-1 -34.5 0.49999999999999994 -20 #
point $-1 -0.5 0.49999999999999994 -20 #
coedge $-1 $204 $203 $336 $337 forward $205 $-1 #
edge $-1 $200 -5.5511151231257827e-017 $338 59 $258 $339 forward 7 unknown #
face $-1 $332 $205 $2 $-1 $340 forward single #
coedge $-1 $341 $342 $207 $269 forward $343 $-1 #
edge $-1 $212 0 $270 19 $207 $344 forward 7 unknown #
vertex $-1 $337 $345 #
straight-curve $-1 0 0.5 -19.5 0 1 0 I I #
plane-surface $-1 0 0 0 1 0 0 0 0 -1 forward_v I I I I #
coedge $-1 $274 $210 $342 $346 reversed $275 $-1 #
coedge $-1 $210 $273 $218 $287 reversed $275 $-1 #
loop $-1 $-1 $273 $347 #
ellipse-curve $-1 -0.5 59.5 -0.5 0 -1 0 0.50000000000000011 0 0 1 I I #
point $-1 0 59.5 -0.5 #
coedge $-1 $348 $215 $349 $350 forward $75 $-1 #
coedge $-1 $351 $352 $215 $280 forward $353 $-1 #
edge $-1 $354 0 $284 3 $215 $355 forward 7 unknown #
coedge $-1 $356 $216 $219 $288 reversed $283 $-1 #
coedge $-1 $216 $357 $351 $358 forward $283 $-1 #
loop $-1 $-1 $359 $360 #
vertex $-1 $280 $361 #
straight-curve $-1 -3 63.949999999999996 0 0 -1 0 I I #
coedge $-1 $219 $218 $362 $363 reversed $220 $-1 #
edge $-1 $164 0 $364 1.5707963267948966 $274 $365 forward 7 unknown #
edge $-1 $366 0 $221 1.5707963267949043 $219 $367 forward 7 unknown #
face $-1 $120 $220 $2 $-1 $368 forward single #
point $-1 -3 59.5 0 #
coedge $-1 $224 $348 $369 $370 reversed $75 $-1 #
coedge $-1 $371 $372 $224 $293 forward $373 $-1 #
edge $-1 $297 0 $374 3 $224 $375 forward 7 unknown #
coedge $-1 $376 $225 $372 $377 reversed $296 $-1 #
coedge $-1 $225 $378 $227 $300 forward $296 $-1 #
loop $-1 $-1 $295 $379 #
vertex $-1 $226 $380 #
straight-curve $-1 -30 63.949999999999996 0 0 -1 0 I I #
coedge $-1 $228 $227 $381 $382 reversed $229 $-1 #
edge $-1 $383 0 $230 1.5707963267949041 $227 $384 forward 7 unknown #
coedge $-1 $305 $232 $228 $302 reversed $306 $-1 #
edge $-1 $385 0 $171 1.5707963267948966 $301 $386 forward 7 unknown #
face $-1 $387 $229 $2 $-1 $388 forward single #
point $-1 -30 59.5 0 #
coedge $-1 $232 $301 $389 $390 reversed $306 $-1 #
loop $-1 $-1 $301 $255 #
vertex $-1 $320 $391 #
ellipse-curve $-1 -44.5 59.5 -0.5 0 -1 0 0 0 0.50000000000000011 1 I I #
coedge $-1 $392 $235 $240 $244 forward $311 $-1 #
coedge $-1 $235 $393 $333 $394 reversed $311 $-1 #
loop $-1 $-1 $310 $395 #
straight-curve $-1 -35 0.49999999999999994 -19.5 0 0 1 I I #
point $-1 -35 0.5 -19.5 #
coedge $-1 $240 $239 $396 $397 reversed $241 $-1 #
edge $-1 $179 0 $398 59 $239 $399 forward 7 unknown #
face $-1 $327 $241 $2 $-1 $400 forward single #
tvertex-vertex $-1 $401 $402 0.00288469239354476 #
straight-curve $-1 -35 0.5 -10 0 1 0 I I #
coedge $-1 $389 $403 $247 $320 forward $404 $-1 #
edge $-1 $323 0 $307 9 $247 $405 forward 7 unknown #
straight-curve $-1 -45 0.5 -0.5 0 1 0 I I #
coedge $-1 $252 $249 $406 $407 forward $253 $-1 #
vertex $-1 $250 $408 #
straight-curve $-1 -45 0.5 -9.5 0 1 0 I I #
face $-1 $409 $410 $2 $-1 $411 forward single #
plane-surface $-1 -45 0 -10 -1 0 0 0 0 1 forward_v I I I I #
face $-1 $412 $253 $2 $-1 $413 forward single #
sphere-surface $-1 -44.5 59.5 -0.5 0.49999999999999994 1 0 0 0 0 1 forward_v I I I I #
coedge $-1 $258 $257 $414 $415 reversed $259 $-1 #
coedge $-1 $261 $416 $257 $331 reversed $334 $-1 #
edge $-1 $198 -5.5511151231257827e-017 $417 59 $257 $418 forward 7 unknown #
face $-1 $419 $259 $2 $-1 $420 forward single #
coedge $-1 $416 $261 $310 $394 forward $334 $-1 #
loop $-1 $-1 $416 $419 #
ellipse-curve $-1 -34.5 0.5 -19.5 0 1 0 0 0 -0.5 1 I I #
coedge $-1 $421 $422 $265 $337 reversed $423 $-1 #
edge $-1 $338 0 $270 1.5707963267948966 $336 $424 forward 7 unknown #
vertex $-1 $425 $426 #
straight-curve $-1 -0.5 0.5 -20 0 1 0 I I #
cone-surface $-1 -0.5 0 -19.5 0 -1 0 0 0 -0.5 1 I I 0 1 0.5 forward I I I I #
coedge $-1 $427 $268 $422 $428 forward $343 $-1 #
coedge $-1 $268 $427 $273 $346 forward $343 $-1 #
loop $-1 $-1 $342 $429 #
straight-curve $-1 0 59.5 -0.5 0 0 -1 I I #
point $-1 0 59.5 -19.5 #
edge $-1 $364 0 $212 1.5707963267948966 $273 $430 forward 7 unknown #
face $-1 $289 $275 $2 $-1 $431 forward single #
coedge $-1 $291 $278 $432 $433 reversed $75 $-1 #
coedge $-1 $434 $435 $278 $350 reversed $436 $-1 #
edge $-1 $354 0 $437 4.4499999999999957 $278 $438 forward 7 unknown #
coedge $-1 $439 $279 $282 $358 reversed $353 $-1 #
coedge $-1 $279 $439 $434 $440 forward $353 $-1 #
loop $-1 $-1 $279 $441 #
vertex $-1 $350 $442 #
straight-curve $-1 -6 63.949999999999996 0 1 0 0 I I #
coedge $-1 $359 $281 $443 $444 forward $283 $-1 #
coedge $-1 $282 $445 $446 $447 forward $283 $-1 #
edge $-1 $448 0 $284 2.1800000000000002 $282 $449 forward 7 unknown #
coedge $-1 $445 $356 $450 $451 forward $283 $-1 #
face $-1 $452 $283 $2 $-1 $453 forward single #
point $-1 -3 63.949999999999996 0 #
coedge $-1 $454 $443 $286 $363 forward $455 $-1 #
edge $-1 $366 0 $364 2.5 $362 $456 forward 7 unknown #
vertex $-1 $457 $458 #
ellipse-curve $-1 -0.5 59.5 -0.5 -1 0 0 0 0 0.5 1 I I #
vertex $-1 $363 $459 #
ellipse-curve $-1 -3 59.5 -0.49999999999999611 1 0 0 0 0.5 -3.8857805861880479e-015 1 I I #
cone-surface $-1 -44.5 59.5 -0.5 1 0 0 0 0.5 0 1 I I 0 1 0.5 forward I I I I #
coedge $-1 $460 $461 $291 $370 forward $462 $-1 #
edge $-1 $374 0 $463 4.4499999999999957 $291 $464 forward 7 unknown #
coedge $-1 $465 $292 $461 $466 reversed $373 $-1 #
coedge $-1 $292 $465 $294 $377 forward $373 $-1 #
loop $-1 $-1 $292 $467 #
vertex $-1 $293 $468 #
straight-curve $-1 -30 63.949999999999996 0 1 0 0 I I #
coedge $-1 $469 $294 $470 $471 reversed $296 $-1 #
edge $-1 $472 0 $297 2.1800000000000002 $294 $473 forward 7 unknown #
coedge $-1 $295 $474 $475 $476 reversed $296 $-1 #
face $-1 $467 $296 $2 $-1 $477 reversed single #
point $-1 -30 63.949999999999996 0 #
coedge $-1 $475 $478 $299 $382 forward $455 $-1 #
edge $-1 $385 0 $383 14.5 $381 $479 forward 7 unknown #
vertex $-1 $476 $480 #
ellipse-curve $-1 -30 59.5 -0.49999999999999623 1 0 0 0 0.5 -3.7747582837255322e-015 1 I I #
vertex $-1 $382 $481 #
ellipse-curve $-1 -44.5 59.5 -0.5 1 0 0 0 0.5 0 1 I I #
face $-1 $482 $455 $2 $-1 $483 forward single #
cone-surface $-1 -44.5 59.5 -0.5 1 0 0 0 0.5 0 1 I I 0 1 0.5 forward I I I I #
coedge $-1 $484 $319 $305 $390 forward $404 $-1 #
edge $-1 $307 0 $385 1.5707963267948966 $305 $485 forward 7 unknown #
point $-1 -45 59.5 -0.5 #
coedge $-1 $486 $309 $487 $401 reversed $311 $-1 #
coedge $-1 $310 $488 $489 $490 reversed $311 $-1 #
edge $-1 $237 0 $491 59 $310 $492 forward 7 unknown #
face $-1 $316 $311 $2 $-1 $493 forward single #
coedge $-1 $494 $495 $314 $397 forward $410 $-1 #
edge $-1 $317 -0.00044208012036506261 $398 9.4992631997993939 $314 $496 forward 7 unknown #
vertex $-1 $397 $497 #
straight-curve $-1 -44.5 0.5 -10 0 1 0 I I #
plane-surface $-1 -35 0 -10 0 0 -1 -1 0 0 forward_v I I I I #
edge $-1 $498 0 $317 4.4480883602391472 $392 $499 forward 7 unknown #
point $-1 -35.000294720080241 59.501911639760849 -10 #
coedge $-1 $319 $484 $500 $501 forward $404 $-1 #
loop $-1 $-1 $403 $502 #
straight-curve $-1 -45 59.5 -9.5 0 0 1 I I #
coedge $-1 $500 $503 $322 $407 reversed $504 $-1 #
edge $-1 $323 0 $398 1.5707963267948966 $406 $505 forward 7 unknown #
point $-1 -45 59.5 -9.5 #
face $-1 $506 $507 $2 $-1 $508 forward single #
loop $-1 $-1 $396 $325 #
cone-surface $-1 -34.5 59.5 -9.5 -1 0 0 0 0.5 0 1 I I 0 1 0.5 forward I I I I #
face $-1 $502 $504 $2 $-1 $509 forward single #
cone-surface $-1 -44.5 0 -9.5 0 -1 0 -0.5 0 0 1 I I 0 1 0.5 forward I I I I #
coedge $-1 $510 $511 $329 $415 forward $512 $-1 #
edge $-1 $338 0 $417 34 $329 $513 forward 7 unknown #
coedge $-1 $330 $333 $514 $515 forward $334 $-1 #
vertex $-1 $415 $516 #
straight-curve $-1 -34.5 0.5 -20 0 1 0 I I #
face $-1 $395 $334 $2 $-1 $517 forward single #
plane-surface $-1 0 0 -20 0 0 -1 -1 0 0 forward_v I I I I #
coedge $-1 $422 $336 $511 $425 reversed $423 $-1 #
coedge $-1 $336 $421 $341 $428 reversed $423 $-1 #
loop $-1 $-1 $422 $518 #
ellipse-curve $-1 -0.5 59.5 -19.5 0 -1 0 0 0 -0.5 1 I I #
edge $-1 $519 0 $338 1.5707963267948966 $421 $520 forward 7 unknown #
point $-1 -0.5 59.5 -20 #
coedge $-1 $342 $341 $454 $457 reversed $343 $-1 #
edge $-1 $270 0 $519 1.5707963267948966 $422 $521 forward 7 unknown #
face $-1 $347 $343 $2 $-1 $522 forward single #
ellipse-curve $-1 -0.5 59.5 -0.5 0 0 -1 0 0.5 0 1 I I #
sphere-surface $-1 -0.5 59.5 -0.5 0.49999999999999994 1 0 0 0 0 1 forward_v I I I I #
coedge $-1 $523 $524 $348 $433 forward $525 $-1 #
edge $-1 $463 0 $437 21 $348 $526 forward 7 unknown #
coedge $-1 $527 $349 $352 $440 reversed $436 $-1 #
coedge $-1 $349 $528 $523 $529 forward $436 $-1 #
loop $-1 $-1 $435 $530 #
vertex $-1 $433 $531 #
straight-curve $-1 -6 63.949999999999996 0 0 -1 0 I I #
coedge $-1 $352 $351 $532 $533 reversed $353 $-1 #
edge $-1 $534 0 $354 2.1800000000000002 $434 $535 forward 7 unknown #
face $-1 $536 $353 $2 $-1 $537 forward single #
point $-1 -6 63.949999999999996 0 #
coedge $-1 $362 $538 $356 $444 reversed $455 $-1 #
edge $-1 $366 0 $539 0.87999999999999989 $443 $540 forward 7 unknown #
coedge $-1 $357 $359 $541 $542 forward $283 $-1 #
coedge $-1 $543 $532 $357 $447 reversed $544 $-1 #
edge $-1 $545 0 $448 1.2800000000000082 $357 $546 forward 7 unknown #
vertex $-1 $358 $547 #
straight-curve $-1 -3 63.949999999999996 2.1800000000000002 0 0 -1 I I #
coedge $-1 $548 $549 $359 $451 reversed $550 $-1 #
edge $-1 $539 0 $551 5.230000000000004 $359 $552 forward 7 unknown #
face $-1 $530 $550 $2 $-1 $553 forward single #
plane-surface $-1 -3 0 0 1 0 0 0 0 -1 forward_v I I I I #
coedge $-1 $554 $362 $427 $457 forward $455 $-1 #
loop $-1 $-1 $555 $387 #
straight-curve $-1 -3 60 -0.5 1 0 0 I I #
edge $-1 $364 0 $519 19 $454 $556 forward 7 unknown #
point $-1 -0.5 60 -0.5 #
point $-1 -3 60 -0.5 #
coedge $-1 $557 $369 $524 $558 reversed $462 $-1 #
coedge $-1 $369 $559 $371 $466 forward $462 $-1 #
loop $-1 $-1 $560 $561 #
vertex $-1 $370 $562 #
straight-curve $-1 -27 63.949999999999996 0 0 -1 0 I I #
coedge $-1 $372 $371 $563 $564 reversed $373 $-1 #
edge $-1 $565 0 $374 2.1800000000000002 $461 $566 forward 7 unknown #
face $-1 $567 $373 $2 $-1 $568 forward single #
point $-1 -27 63.949999999999996 0 #
coedge $-1 $474 $376 $569 $570 reversed $296 $-1 #
coedge $-1 $563 $571 $376 $471 forward $572 $-1 #
edge $-1 $573 0 $472 1.2800000000000082 $376 $574 forward 7 unknown #
vertex $-1 $471 $575 #
straight-curve $-1 -30 63.949999999999996 2.1800000000000002 0 0 -1 I I #
coedge $-1 $378 $469 $576 $577 reversed $296 $-1 #
coedge $-1 $578 $381 $378 $476 forward $455 $-1 #
edge $-1 $383 0 $579 0.87999999999999989 $475 $580 forward 7 unknown #
plane-surface $-1 -30 0 0 1 0 0 0 0 -1 forward_v I I I I #
coedge $-1 $381 $581 $484 $582 forward $455 $-1 #
straight-curve $-1 -44.5 60 -0.5 1 0 0 I I #
point $-1 -30 60 -0.5 #
point $-1 -44.5 60 -0.5 #
face $-1 $583 $584 $2 $-1 $585 forward single #
plane-surface $-1 0 60 0 0 1 0 -1 0 0 forward_v I I I I #
coedge $-1 $403 $389 $478 $582 reversed $404 $-1 #
ellipse-curve $-1 -44.5 59.5 -0.5 0 0 -1 -0.5 0 0 1 I I #
coedge $-1 $488 $392 $586 $587 reversed $311 $-1 #
coedge $-1 $588 $589 $392 $401 forward $590 $-1 #
coedge $-1 $393 $486 $591 $592 forward $311 $-1 #
coedge $-1 $593 $594 $393 $490 forward $595 $-1 #
edge $-1 $491 0 $596 6.5 $393 $597 forward 7 unknown #
vertex $-1 $490 $598 #
straight-curve $-1 -35 0.5 -19.5 0 1 0 I I #
plane-surface $-1 -35 0 -20 -1 0 0 0 0 1 forward_v I I I I #
coedge $-1 $599 $396 $503 $600 forward $410 $-1 #
coedge $-1 $396 $599 $601 $602 forward $410 $-1 #
straight-curve $-1 -35.000736800200606 59.5 -10 -1 0 0 I I #
point $-1 -44.5 59.5 -10 #
vertex $-1 $587 $603 #
straight-curve $-1 -35 63.949999999999996 -10 0 -1 0 I I #
coedge $-1 $503 $406 $403 $501 reversed $504 $-1 #
edge $-1 $604 0 $323 1.5707963267948966 $500 $605 forward 7 unknown #
face $-1 $251 $404 $2 $-1 $606 forward single #
coedge $-1 $406 $500 $494 $600 reversed $504 $-1 #
loop $-1 $-1 $500 $412 #
ellipse-curve $-1 -44.5 59.5 -9.5 0 -1 0 -0.5 0 0 1 I I #
face $-1 $607 $590 $2 $-1 $608 forward single #
loop $-1 $-1 $601 $409 #
cone-surface $-1 -34.5 59.5 -19.5 0 0 1 0 0.5 0 1 I I 0 1 0.5 forward I I I I #
sphere-surface $-1 -44.5 59.5 -9.5 0.49999999999999994 1 0 0 0 0 1 forward_v I I I I #
coedge $-1 $609 $414 $610 $611 forward $512 $-1 #
coedge $-1 $414 $609 $421 $425 forward $512 $-1 #
loop $-1 $-1 $511 $612 #
straight-curve $-1 -0.5 59.5 -20 -1 0 0 I I #
coedge $-1 $613 $610 $416 $515 reversed $614 $-1 #
edge $-1 $491 0 $417 1.5707963267948966 $514 $615 forward 7 unknown #
point $-1 -34.5 59.5 -20 #
cone-surface $-1 -34.5 0 -19.5 0 -1 0 -0.5 0 0 1 I I 0 1 0.5 forward I I I I #
face $-1 $429 $423 $2 $-1 $616 forward single #
vertex $-1 $617 $618 #
ellipse-curve $-1 -0.5 59.5 -19.5 -1 -2.2204460492503131e-016 0 -1.1102230246251565e-016 0.5 0 1 I I #
ellipse-curve $-1 -0.5 59.5 -19.5 0 0 1 0.49999999999999994 0 0 1 I I #
cone-surface $-1 -0.5 59.5 -0.5 0 0 -1 0 0.5 0 1 I I 0 1 0.5 forward I I I I #
coedge $-1 $619 $432 $435 $529 reversed $525 $-1 #
coedge $-1 $432 $619 $460 $558 forward $525 $-1 #
loop $-1 $-1 $432 $620 #
straight-curve $-1 -27 59.5 0 1 0 0 I I #
coedge $-1 $621 $434 $622 $623 reversed $436 $-1 #
coedge $-1 $435 $624 $625 $626 reversed $436 $-1 #
edge $-1 $627 0 $437 1.5707963267949043 $523 $628 forward 7 unknown #
face $-1 $620 $436 $2 $-1 $629 reversed single #
point $-1 -6 59.5 0 #
coedge $-1 $446 $622 $439 $533 forward $544 $-1 #
edge $-1 $534 0 $448 3 $532 $630 forward 7 unknown #
vertex $-1 $623 $631 #
straight-curve $-1 -6 63.949999999999996 2.1800000000000002 0 0 -1 I I #
face $-1 $632 $544 $2 $-1 $633 forward single #
plane-surface $-1 -6 63.949999999999996 2.1800000000000002 0 -1 0 0 0 -1 forward_v I I I I #
coedge $-1 $443 $625 $548 $634 forward $455 $-1 #
vertex $-1 $444 $635 #
straight-curve $-1 -3 60 -0.5 0 0 -1 I I #
coedge $-1 $636 $637 $445 $542 reversed $638 $-1 #
edge $-1 $551 0 $545 3.5600000000000001 $445 $639 forward 7 unknown #
coedge $-1 $622 $446 $637 $640 reversed $544 $-1 #
loop $-1 $-1 $532 $536 #
vertex $-1 $447 $641 #
straight-curve $-1 -3 65.230000000000004 2.1800000000000002 0 -1 0 I I #
point $-1 -3 63.949999999999996 2.1800000000000002 #
coedge $-1 $642 $450 $538 $634 reversed $550 $-1 #
coedge $-1 $450 $642 $636 $643 forward $550 $-1 #
loop $-1 $-1 $642 $452 #
vertex $-1 $542 $644 #
straight-curve $-1 -3 60 -1.3799999999999999 0 1 0 I I #
plane-surface $-1 -6 59.5 -1.3799999999999999 0 0 -1 0 1 0 forward_v I I I I #
coedge $-1 $645 $454 $609 $617 forward $455 $-1 #
coedge $-1 $646 $647 $648 $649 forward $455 $-1 #
straight-curve $-1 -0.5 60 -0.5 0 0 -1 I I #
coedge $-1 $560 $460 $650 $651 forward $462 $-1 #
edge $-1 $652 0 $463 1.5707963267949041 $524 $653 forward 7 unknown #
coedge $-1 $461 $654 $655 $656 forward $462 $-1 #
coedge $-1 $654 $557 $657 $658 forward $462 $-1 #
face $-1 $659 $462 $2 $-1 $660 forward single #
point $-1 -27 59.5 0 #
coedge $-1 $655 $470 $465 $564 forward $572 $-1 #
edge $-1 $472 0 $565 3 $563 $661 forward 7 unknown #
vertex $-1 $466 $662 #
straight-curve $-1 -27 63.949999999999996 2.1800000000000002 0 0 -1 I I #
face $-1 $663 $572 $2 $-1 $664 forward single #
plane-surface $-1 -30 63.949999999999996 2.1800000000000002 0 -1 0 0 0 -1 forward_v I I I I #
coedge $-1 $665 $666 $469 $570 forward $667 $-1 #
edge $-1 $668 0 $573 3.5600000000000001 $469 $669 forward 7 unknown #
coedge $-1 $470 $655 $665 $670 reversed $572 $-1 #
loop $-1 $-1 $563 $567 #
vertex $-1 $570 $671 #
straight-curve $-1 -30 65.230000000000004 2.1800000000000002 0 -1 0 I I #
point $-1 -30 63.949999999999996 2.1800000000000002 #
coedge $-1 $672 $673 $474 $577 forward $674 $-1 #
edge $-1 $579 0 $668 5.230000000000004 $474 $675 forward 7 unknown #
coedge $-1 $650 $475 $673 $676 forward $455 $-1 #
vertex $-1 $676 $677 #
straight-curve $-1 -30 60 -0.5 0 0 -1 I I #
coedge $-1 $478 $678 $599 $679 forward $455 $-1 #
edge $-1 $604 0 $385 9 $478 $680 forward 7 unknown #
face $-1 $681 $682 $2 $-1 $683 reversed single #
loop $-1 $-1 $684 $482 #
plane-surface $-1 -33.619999999999997 59.5 -13 1 0 0 0 1 0 forward_v I I I I #
coedge $-1 $685 $686 $486 $587 forward $687 $-1 #
edge $-1 $688 0 $498 3 $486 $689 forward 7 unknown #
coedge $-1 $690 $487 $691 $692 reversed $590 $-1 #
coedge $-1 $487 $693 $685 $694 forward $590 $-1 #
loop $-1 $-1 $695 $506 #
coedge $-1 $696 $697 $488 $592 reversed $682 $-1 #
edge $-1 $688 0 $596 4.4499999999999957 $488 $698 forward 7 unknown #
coedge $-1 $699 $489 $697 $700 reversed $595 $-1 #
coedge $-1 $489 $699 $613 $701 forward $595 $-1 #
loop $-1 $-1 $699 $681 #
vertex $-1 $490 $702 #
straight-curve $-1 -35 59.5 -19.5 0 0 1 I I #
point $-1 -35 59.5 -19.5 #
coedge $-1 $495 $494 $581 $679 reversed $410 $-1 #
edge $-1 $398 0 $604 1.5707963267948966 $503 $703 forward 7 unknown #
coedge $-1 $704 $691 $495 $602 reversed $507 $-1 #
edge $-1 $705 0 $317 0.9976135144603816 $601 $706 forward 7 unknown #
point $-1 -35 63.949999999999996 -10 #
vertex $-1 $582 $707 #
ellipse-curve $-1 -44.5 59.5 -9.5 0 0 1 0 0.5 0 1 I I #
cone-surface $-1 -44.5 59.5 -9.5 0 0 1 0 0.5 0 1 I I 0 1 0.5 forward I I I I #
face $-1 $708 $709 $2 $-1 $710 forward single #
plane-surface $-1 -45 0 -10 0 0 1 1 0 0 forward_v I I I I #
coedge $-1 $511 $510 $554 $617 reversed $512 $-1 #
coedge $-1 $514 $613 $510 $611 reversed $614 $-1 #
edge $-1 $417 0 $711 1.5707963267948966 $610 $712 forward 7 unknown #
face $-1 $518 $512 $2 $-1 $713 forward single #
coedge $-1 $610 $514 $594 $701 reversed $614 $-1 #
loop $-1 $-1 $613 $714 #
ellipse-curve $-1 -34.5 59.5 -19.5 0 -1 0 -0.5 0 0 1 I I #
sphere-surface $-1 -0.5 59.5 -19.5 0.49999999999999994 1 0 0 0 0 1 forward_v I I I I #
edge $-1 $519 0 $711 34 $554 $715 forward 7 unknown #
point $-1 -0.5 60 -19.5 #
coedge $-1 $524 $523 $716 $717 reversed $525 $-1 #
face $-1 $561 $525 $2 $-1 $718 forward single #
coedge $-1 $624 $527 $719 $720 reversed $436 $-1 #
coedge $-1 $532 $543 $527 $623 forward $544 $-1 #
edge $-1 $721 0 $534 1.2800000000000082 $527 $722 forward 7 unknown #
coedge $-1 $528 $621 $642 $723 reversed $436 $-1 #
coedge $-1 $538 $716 $528 $626 forward $455 $-1 #
edge $-1 $627 0 $724 0.87999999999999989 $625 $725 forward 7 unknown #
vertex $-1 $626 $726 #
ellipse-curve $-1 -6 59.5 -0.49999999999999611 1 0 0 0 0.5 -3.8857805861880479e-015 1 I I #
plane-surface $-1 -6 0 0 1 0 0 0 0 -1 forward_v I I I I #
straight-curve $-1 -6 63.949999999999996 2.1800000000000002 1 0 0 I I #
point $-1 -6 63.949999999999996 2.1800000000000002 #
face $-1 $-1 $638 $2 $-1 $727 forward single #
plane-surface $-1 -6 65.230000000000004 2.1800000000000002 0 0 1 0 -1 0 forward_v I I I I #
edge $-1 $724 0 $539 3 $538 $728 forward 7 unknown #
point $-1 -3 60 -1.3799999999999999 #
coedge $-1 $719 $541 $549 $643 reversed $638 $-1 #
coedge $-1 $541 $719 $543 $640 forward $638 $-1 #
loop $-1 $-1 $637 $632 #
straight-curve $-1 -3 65.230000000000004 -1.3799999999999999 0 0 1 I I #
edge $-1 $721 0 $545 3 $637 $729 forward 7 unknown #
point $-1 -3 65.230000000000004 2.1800000000000002 #
coedge $-1 $549 $548 $624 $723 forward $550 $-1 #
edge $-1 $730 0 $551 3 $549 $731 forward 7 unknown #
point $-1 -3 65.230000000000004 -1.3799999999999999 #
coedge $-1 $647 $554 $699 $732 forward $455 $-1 #
coedge $-1 $678 $555 $690 $733 reversed $455 $-1 #
coedge $-1 $555 $645 $734 $735 forward $455 $-1 #
coedge $-1 $684 $736 $555 $649 reversed $584 $-1 #
edge $-1 $737 0 $738 3 $555 $739 forward 7 unknown #
coedge $-1 $716 $578 $557 $651 reversed $455 $-1 #
edge $-1 $652 0 $740 0.87999999999999989 $650 $741 forward 7 unknown #
vertex $-1 $717 $742 #
ellipse-curve $-1 -27 59.5 -0.49999999999999623 1 0 0 0 0.5 -3.7747582837255322e-015 1 I I #
coedge $-1 $559 $560 $743 $744 forward $462 $-1 #
coedge $-1 $571 $563 $559 $656 reversed $572 $-1 #
edge $-1 $745 0 $565 1.2800000000000082 $559 $746 forward 7 unknown #
coedge $-1 $673 $672 $560 $658 reversed $674 $-1 #
edge $-1 $740 0 $747 5.230000000000004 $560 $748 forward 7 unknown #
face $-1 $379 $674 $2 $-1 $749 forward single #
plane-surface $-1 -27 0 0 1 0 0 0 0 -1 forward_v I I I I #
straight-curve $-1 -30 63.949999999999996 2.1800000000000002 1 0 0 I I #
point $-1 -27 63.949999999999996 2.1800000000000002 #
face $-1 $441 $667 $2 $-1 $750 forward single #
plane-surface $-1 -30 65.230000000000004 2.1800000000000002 0 0 1 0 -1 0 forward_v I I I I #
coedge $-1 $743 $569 $571 $670 forward $667 $-1 #
coedge $-1 $569 $743 $672 $751 reversed $667 $-1 #
loop $-1 $-1 $665 $663 #
vertex $-1 $577 $752 #
straight-curve $-1 -30 65.230000000000004 -1.3799999999999999 0 0 1 I I #
edge $-1 $573 0 $745 3 $665 $753 forward 7 unknown #
point $-1 -30 65.230000000000004 2.1800000000000002 #
coedge $-1 $657 $576 $666 $751 forward $674 $-1 #
coedge $-1 $576 $657 $578 $676 reversed $674 $-1 #
loop $-1 $-1 $576 $659 #
straight-curve $-1 -30 60 -1.3799999999999999 0 1 0 I I #
edge $-1 $579 0 $740 3 $578 $754 forward 7 unknown #
point $-1 -30 60 -1.3799999999999999 #
coedge $-1 $581 $646 $704 $755 forward $455 $-1 #
edge $-1 $705 0 $604 10 $581 $756 forward 7 unknown #
straight-curve $-1 -44.5 60 -9.5 0 0 1 I I #
face $-1 $714 $595 $2 $-1 $757 forward single #
loop $-1 $-1 $697 $583 #
plane-surface $-1 -45 0 -13 0 0 1 1 0 0 forward_v I I I I #
coedge $-1 $758 $648 $759 $760 forward $584 $-1 #
coedge $-1 $761 $586 $589 $694 reversed $687 $-1 #
coedge $-1 $586 $761 $696 $762 forward $687 $-1 #
loop $-1 $-1 $586 $763 #
vertex $-1 $592 $764 #
straight-curve $-1 -35 63.949999999999996 -13 0 0 1 I I #
coedge $-1 $695 $588 $646 $733 forward $590 $-1 #
coedge $-1 $601 $704 $588 $692 forward $507 $-1 #
edge $-1 $765 0 $317 0.99999999999999989 $691 $766 forward 7 unknown #
coedge $-1 $589 $767 $768 $769 forward $590 $-1 #
edge $-1 $770 0 $498 2.1799999999999997 $589 $771 forward 7 unknown #
coedge $-1 $767 $690 $736 $772 forward $590 $-1 #
coedge $-1 $773 $591 $686 $762 reversed $682 $-1 #
coedge $-1 $591 $734 $593 $700 forward $682 $-1 #
straight-curve $-1 -35 63.949999999999996 -13 0 -1 0 I I #
coedge $-1 $594 $593 $645 $732 reversed $595 $-1 #
edge $-1 $774 0 $596 1.5707963267948681 $593 $775 forward 7 unknown #
edge $-1 $711 0 $491 1.5707963267948966 $613 $776 forward 7 unknown #
point $-1 -35 59.5 -13 #
ellipse-curve $-1 -44.5 59.5 -9.5 1 0 0 0 0 -0.5 1 I I #
coedge $-1 $691 $601 $678 $755 reversed $507 $-1 #
vertex $-1 $679 $777 #
intcurve-curve $-1 forward { surfintcur full nurbs 3 open 6 
	0 3 0.20830764405162464 1 0.41184658803837093 1 0.61115053719733281 1 0.80671022053778352 1 
	0.99999999999999989 3 
	-34.5 60 -9.5 1 
	-34.559785997760017 59.998676179796938 -9.5597793059206246 1 
	-34.669373362186484 59.980259940146759 -9.6693529651066399 0.99999999999999989 
	-34.809995226224046 59.902453651027258 -9.8099946321672498 1.0000000000000002 
	-34.917116814619796 59.789872573106138 -9.9170537883819687 0.99999999999999989 
	-34.984581686034495 59.65075849733217 -9.9847631090186297 1 
	-34.999943977059218 59.551842703822594 -9.99957883253294 1 
	-35.000736800200606 59.5 -10 1 
	0.001 
	cone -34.5 59.5 -19.5 0 0 1 0 0.5 0 1 I I 0 1 0.5 forward I I I I 
	cone -34.5 59.5 -9.5 -1 0 0 0 0.5 0 1 I I 0 1 0.5 forward I I I I 
	nullbs 
	nullbs 
	F 8.2118412593083032e-007 I 
	0 
	1 8.2118412593083032e-007 
	0 
	} I I #
point $-1 -44.5 60 -9.5 #
face $-1 $763 $778 $2 $-1 $779 forward single #
loop $-1 $-1 $780 $607 #
plane-surface $-1 -33.619999999999997 65.230000000000004 -13 0 1 0 -1 0 0 forward_v I I I I #
vertex $-1 $732 $781 #
ellipse-curve $-1 -34.5 59.5 -19.5 1 0 0 0 0 -0.5 1 I I #
cone-surface $-1 0 59.5 -19.5 -1 0 0 0 0.5 0 1 I I 0 1 0.5 forward I I I I #
face $-1 $612 $614 $2 $-1 $782 forward single #
straight-curve $-1 -0.5 60 -19.5 -1 0 0 I I #
coedge $-1 $625 $650 $619 $717 forward $455 $-1 #
edge $-1 $652 0 $627 21 $716 $783 forward 7 unknown #
cone-surface $-1 -44.5 59.5 -0.5 1 0 0 0 0.5 0 1 I I 0 1 0.5 forward I I I I #
coedge $-1 $637 $636 $621 $720 forward $638 $-1 #
edge $-1 $730 0 $721 3.5600000000000001 $621 $784 forward 7 unknown #
vertex $-1 $720 $785 #
straight-curve $-1 -6 65.230000000000004 2.1800000000000002 0 -1 0 I I #
edge $-1 $724 0 $730 5.230000000000004 $624 $786 forward 7 unknown #
vertex $-1 $634 $787 #
straight-curve $-1 -6 60 -0.5 0 0 -1 I I #
point $-1 -6 60 -0.5 #
plane-surface $-1 -6 65.230000000000004 -1.3799999999999999 0 1 0 0 0 1 forward_v I I I I #
straight-curve $-1 -6 60 -1.3799999999999999 1 0 0 I I #
straight-curve $-1 -6 65.230000000000004 2.1800000000000002 1 0 0 I I #
vertex $-1 $723 $788 #
straight-curve $-1 -6 65.230000000000004 -1.3799999999999999 1 0 0 I I #
edge $-1 $711 0 $774 6.5 $645 $789 forward 7 unknown #
edge $-1 $765 0 $738 0.88000000000000256 $646 $790 forward 7 unknown #
coedge $-1 $697 $759 $647 $735 reversed $682 $-1 #
edge $-1 $774 0 $737 0.88000000000000256 $647 $791 forward 7 unknown #
coedge $-1 $648 $758 $695 $772 reversed $584 $-1 #
vertex $-1 $735 $792 #
vertex $-1 $733 $793 #
straight-curve $-1 -33.619999999999997 60 -13 0 0 1 I I #
vertex $-1 $651 $794 #
straight-curve $-1 -27 60 -0.5 0 0 -1 I I #
point $-1 -27 60 -0.5 #
coedge $-1 $666 $665 $654 $744 reversed $667 $-1 #
edge $-1 $747 0 $745 3.5600000000000001 $654 $795 forward 7 unknown #
vertex $-1 $656 $796 #
straight-curve $-1 -27 65.230000000000004 2.1800000000000002 0 -1 0 I I #
vertex $-1 $744 $797 #
straight-curve $-1 -27 60 -1.3799999999999999 0 1 0 I I #
plane-surface $-1 -30 59.5 -1.3799999999999999 0 0 -1 0 1 0 forward_v I I I I #
plane-surface $-1 -30 65.230000000000004 -1.3799999999999999 0 1 0 0 0 1 forward_v I I I I #
edge $-1 $668 0 $747 3 $672 $798 forward 7 unknown #
point $-1 -30 65.230000000000004 -1.3799999999999999 #
straight-curve $-1 -30 65.230000000000004 2.1800000000000002 1 0 0 I I #
straight-curve $-1 -30 60 -1.3799999999999999 1 0 0 I I #
edge $-1 $765 0 $705 0.5 $678 $799 forward 7 unknown #
straight-curve $-1 -34.5 60 -9.5 -1 0 0 I I #
cone-surface $-1 -34.5 59.5 -19.5 0 0 1 0 0.5 0 1 I I 0 1 0.5 forward I I I I #
coedge $-1 $736 $684 $800 $801 forward $584 $-1 #
coedge $-1 $734 $802 $684 $760 reversed $682 $-1 #
edge $-1 $737 0 $803 5.230000000000004 $759 $804 forward 7 unknown #
coedge $-1 $686 $685 $805 $806 reversed $687 $-1 #
edge $-1 $807 0 $688 2.1799999999999997 $696 $808 forward 7 unknown #
face $-1 $360 $687 $2 $-1 $809 forward single #
point $-1 -35 63.949999999999996 -13 #
vertex $-1 $755 $810 #
intcurve-curve $-1 forward { surfintcur full nurbs 3 open 6 
	0 3 0.20010269043856696 1 0.40020532180343704 1 0.60030793862108422 1 0.80041052626741271 1 
	0.99999999999999989 3 
	-34.5 60 -10 1 
	-34.553852302789899 59.999605453490076 -10.000000000000002 1 
	-34.655830474288003 59.983723442938718 -9.9999999999999964 1 
	-34.798182157910716 59.911599915951236 -10.000000000000002 0.99999999999999989 
	-34.910227198507691 59.800241213155537 -10 1 
	-34.982911012545294 59.657756344710293 -10 0.99999999999999978 
	-34.999309021019236 59.557472004228806 -10.000000000000002 1 
	-35 59.504779099402136 -10 1 
	0.001 
	plane -45 0 -10 0 0 1 1 0 0 forward_v I I I I 
	cone -34.5 59.5 -19.5 0 0 1 0 0.5 0 1 I I 0 1 0.5 forward I I I I 
	nullbs 
	nullbs 
	I I 
	0 
	0 
	0 
	} I I #
coedge $-1 $693 $695 $811 $812 forward $590 $-1 #
coedge $-1 $813 $805 $693 $769 reversed $778 $-1 #
edge $-1 $814 0 $770 1.2800000000000082 $693 $815 forward 7 unknown #
vertex $-1 $694 $816 #
straight-curve $-1 -37.18 63.949999999999996 -10 1 0 0 I I #
edge $-1 $738 0 $817 5.230000000000004 $695 $818 forward 7 unknown #
coedge $-1 $802 $696 $819 $820 reversed $682 $-1 #
vertex $-1 $735 $821 #
ellipse-curve $-1 -34.499999999999993 59.499999999999993 -13 0 0 1 -7.1054273576010019e-015 0.50000000000000711 0 1 I I #
ellipse-curve $-1 -34.5 59.5 -19.5 0 0 1 0 0.5 0 1 I I #
point $-1 -34.5 60 -9.5 #
loop $-1 $-1 $805 $708 #
plane-surface $-1 -37.18 65.230000000000004 -13 -1 0 0 0 -1 0 forward_v I I I I #
coedge $-1 $811 $822 $813 $823 forward $709 $-1 #
point $-1 -34.5 60 -19.5 #
sphere-surface $-1 -34.5 59.5 -19.5 0.49999999999999994 1 0 0 0 0 1 forward_v I I I I #
straight-curve $-1 -27 60 -0.5 1 0 0 I I #
straight-curve $-1 -6 65.230000000000004 -1.3799999999999999 0 0 1 I I #
point $-1 -6 65.230000000000004 2.1800000000000002 #
straight-curve $-1 -6 60 -1.3799999999999999 0 1 0 I I #
point $-1 -6 60 -1.3799999999999999 #
point $-1 -6 65.230000000000004 -1.3799999999999999 #
straight-curve $-1 -34.5 60 -19.5 0 0 1 I I #
straight-curve $-1 -34.5 60 -10 1 0 0 I I #
straight-curve $-1 -34.5 60 -13 1 0 0 I I #
point $-1 -33.619999999999997 60 -13 #
point $-1 -33.619999999999997 60 -10 #
point $-1 -27 60 -1.3799999999999999 #
straight-curve $-1 -27 65.230000000000004 -1.3799999999999999 0 0 1 I I #
point $-1 -27 65.230000000000004 2.1800000000000002 #
point $-1 -27 65.230000000000004 -1.3799999999999999 #
straight-curve $-1 -30 65.230000000000004 -1.3799999999999999 1 0 0 I I #
straight-curve $-1 -34.5 60 -10 0 0 1 I I #
coedge $-1 $822 $811 $758 $801 reversed $709 $-1 #
edge $-1 $803 0 $817 3 $758 $824 forward 7 unknown #
coedge $-1 $759 $773 $822 $825 reversed $682 $-1 #
vertex $-1 $760 $826 #
straight-curve $-1 -33.619999999999997 60 -13 0 1 0 I I #
coedge $-1 $768 $819 $761 $806 forward $778 $-1 #
edge $-1 $807 0 $770 3 $805 $827 forward 7 unknown #
vertex $-1 $820 $828 #
straight-curve $-1 -37.18 63.949999999999996 -13 1 0 0 I I #
plane-surface $-1 -37.18 63.949999999999996 -13 0 -1 0 1 0 0 forward_v I I I I #
point $-1 -34.5 60 -10 #
coedge $-1 $800 $780 $767 $812 reversed $709 $-1 #
edge $-1 $817 0 $814 3.5600000000000023 $767 $829 forward 7 unknown #
coedge $-1 $819 $768 $780 $823 reversed $778 $-1 #
vertex $-1 $769 $830 #
straight-curve $-1 -37.18 65.230000000000004 -10 0 -1 0 I I #
point $-1 -37.18 63.949999999999996 -10 #
vertex $-1 $812 $831 #
straight-curve $-1 -33.619999999999997 60 -10 0 1 0 I I #
coedge $-1 $805 $813 $773 $820 forward $778 $-1 #
edge $-1 $832 0 $807 1.2800000000000082 $773 $833 forward 7 unknown #
point $-1 -34.5 60 -13 #
coedge $-1 $780 $800 $802 $825 forward $709 $-1 #
edge $-1 $832 0 $814 3 $780 $834 forward 7 unknown #
straight-curve $-1 -33.619999999999997 65.230000000000004 -13 0 0 1 I I #
edge $-1 $803 0 $832 3.5600000000000023 $802 $835 forward 7 unknown #
point $-1 -33.619999999999997 65.230000000000004 -13 #
straight-curve $-1 -37.18 63.949999999999996 -13 0 0 1 I I #
point $-1 -37.18 63.949999999999996 -13 #
straight-curve $-1 -33.619999999999997 65.230000000000004 -10 -1 0 0 I I #
point $-1 -37.18 65.230000000000004 -10 #
point $-1 -33.619999999999997 65.230000000000004 -10 #
vertex $-1 $825 $836 #
straight-curve $-1 -37.18 65.230000000000004 -13 0 -1 0 I I #
straight-curve $-1 -37.18 65.230000000000004 -13 0 0 1 I I #
straight-curve $-1 -33.619999999999997 65.230000000000004 -13 -1 0 0 I I #
point $-1 -37.18 65.230000000000004 -13 #
End-of-ACIS-data 