600 0 1 0           
96 GICL ACIS Healer - Source: /gicl/data5/repository/PTC/V18/cabecad18/ptc_comp/tuner.prt.sat - 6 0 18 ACIS 6.0.3 Solaris 24 Sat Apr 13 22:28:38 2002 
1 9.999999999999999547e-07 1.000000000000000036e-10 
body $-1 $1 $-1 $-1 #
lump $-1 $-1 $2 $0 #
shell $-1 $-1 $-1 $3 $-1 $1 #
face $-1 $4 $5 $2 $-1 $6 reversed single #
face $-1 $7 $8 $2 $-1 $9 forward single #
loop $-1 $-1 $10 $3 #
plane-surface $-1 0 0 0 0 1 0 -1 0 0 forward_v I I I I #
face $-1 $11 $12 $2 $-1 $13 forward single #
loop $-1 $-1 $14 $4 #
cone-surface $-1 -44.5 0.5 -0.5 -1 0 0 0 -0.5 0 1 I I 0 1 0.5 forward I I I I #
coedge $-1 $15 $16 $17 $18 reversed $5 $-1 #
face $-1 $19 $20 $2 $-1 $21 forward single #
loop $-1 $-1 $22 $7 #
sphere-surface $-1 -0.5 0.5 -0.5 0.5 1 0 0 0 0 1 forward_v I I I I #
coedge $-1 $23 $17 $24 $25 forward $8 $-1 #
coedge $-1 $26 $10 $27 $28 reversed $5 $-1 #
coedge $-1 $10 $29 $30 $31 reversed $5 $-1 #
coedge $-1 $14 $32 $10 $18 forward $8 $-1 #
edge $-1 $33 -0 $34 44 $10 $35 reversed 7 unknown #
face $-1 $36 $37 $2 $-1 $38 forward single #
loop $-1 $-1 $39 $11 #
cone-surface $-1 -0.5 0.5 -0.5 0 0 1 0 -0.5 0 1 I I 0 1 0.5 forward I I I I #
coedge $-1 $40 $24 $41 $42 reversed $12 $-1 #
coedge $-1 $32 $14 $43 $44 reversed $8 $-1 #
coedge $-1 $22 $40 $14 $25 reversed $12 $-1 #
edge $-1 $34 0 $45 1.570796326794896558 $24 $46 forward 7 unknown #
coedge $-1 $47 $15 $48 $49 reversed $5 $-1 #
coedge $-1 $50 $51 $15 $28 forward $52 $-1 #
edge $-1 $53 -0 $33 9 $15 $54 reversed 7 unknown #
coedge $-1 $16 $47 $55 $56 reversed $5 $-1 #
coedge $-1 $39 $41 $16 $31 forward $20 $-1 #
edge $-1 $34 -0 $57 19 $16 $58 reversed 7 unknown #
coedge $-1 $17 $23 $59 $60 forward $8 $-1 #
vertex $-1 $28 $61 #
vertex $-1 $31 $62 #
straight-curve $-1 -44.5 0 -0.5 -1 0 0 I I #
face $-1 $63 $64 $2 $-1 $65 forward single #
loop $-1 $-1 $66 $19 #
sphere-surface $-1 -0.5 0.5 -19.5 0.5 1 0 0 0 0 1 forward_v I I I I #
coedge $-1 $67 $30 $66 $68 forward $20 $-1 #
coedge $-1 $24 $22 $69 $70 reversed $12 $-1 #
coedge $-1 $30 $67 $22 $42 forward $20 $-1 #
edge $-1 $71 -1.570796326794896558 $34 -0 $22 $72 reversed 7 unknown #
coedge $-1 $73 $74 $23 $44 forward $75 $-1 #
edge $-1 $76 -0 $45 44 $43 $77 reversed 7 unknown #
vertex $-1 $25 $78 #
ellipse-curve $-1 -0.5 0.5 -0.5 -1 0 0 0 -0.5 0 1 I I #
coedge $-1 $29 $26 $79 $80 reversed $5 $-1 #
coedge $-1 $81 $82 $26 $49 forward $83 $-1 #
edge $-1 $84 -0 $53 10 $26 $85 reversed 7 unknown #
coedge $-1 $86 $27 $87 $88 forward $52 $-1 #
coedge $-1 $27 $86 $89 $90 forward $52 $-1 #
loop $-1 $-1 $50 $91 #
vertex $-1 $49 $92 #
straight-curve $-1 -44.5 0 -9.5 0 0 -1 I I #
coedge $-1 $93 $94 $29 $56 forward $64 $-1 #
edge $-1 $57 0.5 $95 34.5 $29 $96 reversed 7 unknown #
vertex $-1 $31 $97 #
straight-curve $-1 -0.5 0 -0.5 0 0 1 I I #
coedge $-1 $98 $87 $32 $60 reversed $99 $-1 #
edge $-1 $76 -1.570796326794896558 $33 -0 $59 $100 reversed 7 unknown #
point $-1 -44.5 0 -0.5 #
point $-1 -0.5 0 -0.5 #
face $-1 $101 $102 $2 $-1 $103 forward single #
loop $-1 $-1 $93 $36 #
cone-surface $-1 0 0.5 -19.5 1 0 0 0 -0.5 0 1 I I 0 1 0.5 forward I I I I #
coedge $-1 $104 $105 $39 $68 reversed $37 $-1 #
coedge $-1 $41 $39 $106 $107 reversed $20 $-1 #
edge $-1 $57 0 $108 1.570796326794896558 $66 $109 forward 7 unknown #
coedge $-1 $110 $111 $40 $70 forward $112 $-1 #
edge $-1 $45 -1.570796326794896558 $71 -0 $40 $113 reversed 7 unknown #
vertex $-1 $70 $114 #
ellipse-curve $-1 -0.5 0.5 -0.5 0 0 1 0 -0.5 0 1 I I #
coedge $-1 $115 $43 $111 $116 forward $75 $-1 #
coedge $-1 $43 $117 $118 $119 reversed $75 $-1 #
loop $-1 $-1 $74 $120 #
vertex $-1 $121 $122 #
straight-curve $-1 -44.5 0.5 0 -1 0 0 I I #
point $-1 -0.5 0.4999999999999999445 0 #
coedge $-1 $123 $124 $47 $80 forward $125 $-1 #
edge $-1 $95 -0 $84 10 $47 $126 reversed 7 unknown #
coedge $-1 $127 $48 $128 $129 forward $83 $-1 #
coedge $-1 $48 $127 $123 $130 reversed $83 $-1 #
loop $-1 $-1 $81 $131 #
vertex $-1 $80 $132 #
straight-curve $-1 -34.5 0 -9.5 1 0 0 I I #
coedge $-1 $51 $50 $133 $134 reversed $52 $-1 #
coedge $-1 $59 $98 $50 $88 reversed $99 $-1 #
edge $-1 $33 0 $135 1.570796326794896558 $87 $136 forward 7 unknown #
coedge $-1 $137 $128 $51 $90 reversed $138 $-1 #
edge $-1 $139 -1.570796326794896558 $53 -0 $89 $140 reversed 7 unknown #
face $-1 $141 $52 $2 $-1 $142 forward single #
point $-1 -44.5 0 -9.5 #
coedge $-1 $143 $55 $144 $145 forward $64 $-1 #
coedge $-1 $55 $143 $104 $146 forward $64 $-1 #
vertex $-1 $56 $147 #
straight-curve $-1 0 0 -19.5 1 0 0 I I #
point $-1 -0.5 0 -19.5 #
coedge $-1 $87 $59 $148 $121 reversed $99 $-1 #
loop $-1 $-1 $59 $141 #
ellipse-curve $-1 -44.5 0.5 -0.5 -1 0 0 0 -0.5 0 1 I I #
face $-1 $131 $125 $2 $-1 $149 forward single #
loop $-1 $-1 $150 $63 #
sphere-surface $-1 -34.5 0.5 -19.5 0.5 1 0 0 0 0 1 forward_v I I I I #
coedge $-1 $105 $66 $94 $146 reversed $37 $-1 #
coedge $-1 $66 $104 $151 $152 reversed $37 $-1 #
coedge $-1 $153 $154 $67 $107 forward $155 $-1 #
edge $-1 $71 -0 $108 19 $106 $156 reversed 7 unknown #
vertex $-1 $107 $157 #
ellipse-curve $-1 -0.5 0.5 -19.5 0 0 1 0 -0.5 0 1 I I #
coedge $-1 $158 $69 $154 $159 forward $112 $-1 #
coedge $-1 $69 $158 $73 $116 reversed $112 $-1 #
loop $-1 $-1 $158 $160 #
ellipse-curve $-1 -0.5 0.5 -0.5 0 -1 0 0.5 0 0 1 I I #
point $-1 0 0.5 -0.5 #
coedge $-1 $161 $73 $162 $163 reversed $75 $-1 #
edge $-1 $45 0.4999999999999999445 $164 59.5 $73 $165 reversed 7 unknown #
coedge $-1 $74 $166 $167 $168 reversed $75 $-1 #
coedge $-1 $169 $148 $74 $119 forward $170 $-1 #
edge $-1 $76 0.5 $171 59.5 $74 $172 reversed 7 unknown #
face $-1 $160 $75 $2 $-1 $173 forward single #
edge $-1 $135 -1.570796326794896558 $76 -0 $98 $174 reversed 7 unknown #
point $-1 -44.5 0.5 0 #
coedge $-1 $175 $79 $82 $130 forward $125 $-1 #
coedge $-1 $79 $175 $150 $176 forward $125 $-1 #
loop $-1 $-1 $123 $101 #
straight-curve $-1 -34.5 0 -19.5 0 0 -1 I I #
coedge $-1 $82 $81 $177 $178 reversed $83 $-1 #
coedge $-1 $89 $137 $81 $129 reversed $138 $-1 #
edge $-1 $53 0 $179 1.570796326794896558 $128 $180 forward 7 unknown #
edge $-1 $84 -1.570796326794896558 $181 0 $82 $182 forward 7 unknown #
face $-1 $183 $83 $2 $-1 $184 forward single #
point $-1 -34.5 0 -9.5 #
coedge $-1 $185 $186 $86 $134 forward $187 $-1 #
edge $-1 $139 -0 $135 9 $133 $188 reversed 7 unknown #
vertex $-1 $88 $189 #
ellipse-curve $-1 -44.5 0.5 -0.5 0 0 -1 0 -0.5 0 1 I I #
coedge $-1 $128 $89 $190 $191 reversed $138 $-1 #
loop $-1 $-1 $89 $183 #
vertex $-1 $191 $192 #
ellipse-curve $-1 -44.5 0.5 -9.5 0 0 -1 0 -0.5 0 1 I I #
face $-1 $193 $99 $2 $-1 $194 forward single #
cone-surface $-1 -44.5 0.5 -9.5 0 0 -1 0 -0.5 0 1 I I 0 1 0.5 forward I I I I #
coedge $-1 $94 $93 $195 $196 reversed $64 $-1 #
coedge $-1 $150 $197 $93 $145 reversed $102 $-1 #
edge $-1 $95 0 $198 1.570796326794896558 $144 $199 forward 7 unknown #
edge $-1 $200 -1.570796326794896558 $57 -0 $104 $201 reversed 7 unknown #
point $-1 -34.5 0 -19.5 #
coedge $-1 $118 $202 $98 $121 forward $170 $-1 #
cone-surface $-1 -34.5 0.5 -19.5 0 0 -1 0 -0.5 0 1 I I 0 1 0.5 forward I I I I #
coedge $-1 $197 $144 $124 $176 reversed $102 $-1 #
coedge $-1 $203 $204 $105 $152 forward $205 $-1 #
edge $-1 $108 -1.570796326794896558 $200 -0 $105 $206 reversed 7 unknown #
coedge $-1 $207 $106 $204 $208 forward $155 $-1 #
coedge $-1 $106 $207 $110 $159 reversed $155 $-1 #
loop $-1 $-1 $153 $209 #
straight-curve $-1 0 0.5 -0.5 0 0 1 I I #
point $-1 0 0.5 -19.5 #
coedge $-1 $111 $110 $210 $211 forward $112 $-1 #
edge $-1 $71 0.5 $212 59.5 $154 $213 reversed 7 unknown #
face $-1 $209 $112 $2 $-1 $214 forward single #
coedge $-1 $215 $115 $216 $217 reversed $75 $-1 #
coedge $-1 $218 $219 $115 $163 forward $220 $-1 #
edge $-1 $221 41.5 $164 44 $115 $222 forward 7 unknown #
vertex $-1 $211 $223 #
straight-curve $-1 -0.5 0 0 0 -1 0 I I #
coedge $-1 $117 $224 $225 $226 forward $75 $-1 #
coedge $-1 $227 $228 $117 $168 forward $229 $-1 #
edge $-1 $171 0 $230 14.5 $117 $231 forward 7 unknown #
coedge $-1 $202 $118 $232 $233 forward $170 $-1 #
loop $-1 $-1 $169 $193 #
vertex $-1 $168 $234 #
straight-curve $-1 -44.5 0 0 0 -1 0 I I #
plane-surface $-1 -45 0 0 0 0 1 1 0 0 forward_v I I I I #
ellipse-curve $-1 -44.5 0.5 -0.5 0 -1 0 0 0 0.5 1 I I #
coedge $-1 $124 $123 $235 $236 reversed $125 $-1 #
edge $-1 $237 -1.570796326794896558 $95 -0 $150 $238 reversed 7 unknown #
coedge $-1 $239 $240 $127 $178 forward $241 $-1 #
edge $-1 $181 0.5 $179 10 $177 $242 reversed 7 unknown #
vertex $-1 $129 $243 #
ellipse-curve $-1 -44.5 0.5 -9.5 1 0 0 0 -0.5 0 1 I I #
vertex $-1 $244 $245 #
ellipse-curve $-1 -34.5 0.5 -9.5 0.7071067811865474617 0 -0.7071067811865474617 -0.5 0 -0.5 0.7071067811865474617 I I #
face $-1 $91 $138 $2 $-1 $246 forward single #
cone-surface $-1 -34.5 0.5 -9.5 1 0 0 0 -0.5 0 1 I I 0 1 0.5 forward I I I I #
coedge $-1 $247 $133 $202 $248 forward $187 $-1 #
coedge $-1 $133 $247 $249 $250 reversed $187 $-1 #
loop $-1 $-1 $185 $251 #
straight-curve $-1 -45 0.5 -9.5 0 0 -1 I I #
point $-1 -45 0.4999999999999999445 -0.5 #
coedge $-1 $249 $252 $137 $191 forward $253 $-1 #
edge $-1 $179 -1.570796326794896558 $139 -0 $137 $254 reversed 7 unknown #
point $-1 -45 0.5 -9.5 #
face $-1 $255 $170 $2 $-1 $256 forward single #
sphere-surface $-1 -44.5 0.5 -0.5 0.5 1 0 0 0 0 1 forward_v I I I I #
coedge $-1 $257 $258 $143 $196 forward $259 $-1 #
edge $-1 $200 0.5 $198 34.5 $195 $260 reversed 7 unknown #
coedge $-1 $144 $150 $261 $262 reversed $102 $-1 #
vertex $-1 $145 $263 #
ellipse-curve $-1 -34.5 0.5 -19.5 1 0 0 0 -0.5 0 1 I I #
vertex $-1 $152 $264 #
ellipse-curve $-1 -0.5 0.5 -19.5 1 0 0 0 -0.5 0 1 I I #
coedge $-1 $148 $169 $185 $248 reversed $170 $-1 #
coedge $-1 $265 $151 $258 $266 forward $205 $-1 #
coedge $-1 $151 $265 $153 $208 reversed $205 $-1 #
loop $-1 $-1 $265 $267 #
ellipse-curve $-1 -0.5 0.5 -19.5 0 -1 0 0 0 -0.5 1 I I #
coedge $-1 $154 $153 $268 $269 reversed $155 $-1 #
edge $-1 $108 0.5 $270 59.5 $153 $271 reversed 7 unknown #
face $-1 $267 $155 $2 $-1 $272 forward single #
coedge $-1 $273 $274 $158 $211 reversed $275 $-1 #
edge $-1 $212 0 $164 1.570796326794896558 $210 $276 forward 7 unknown #
vertex $-1 $159 $277 #
straight-curve $-1 0 0 -0.5 0 -1 0 I I #
cone-surface $-1 -0.5 0 -0.5 0 -1 0 0.5 0 0 1 I I 0 1 0.5 forward I I I I #
coedge $-1 $278 $161 $279 $280 reversed $75 $-1 #
coedge $-1 $281 $282 $161 $217 forward $283 $-1 #
edge $-1 $284 -63.94999999999999574 $221 -59.5 $161 $285 reversed 7 unknown #
coedge $-1 $286 $162 $274 $287 forward $220 $-1 #
coedge $-1 $162 $286 $281 $288 forward $220 $-1 #
loop $-1 $-1 $162 $289 #
vertex $-1 $217 $290 #
straight-curve $-1 -44.5 59.5 0 1 0 0 I I #
point $-1 -0.4999999999999999445 59.5 0 #
coedge $-1 $166 $291 $292 $293 reversed $75 $-1 #
coedge $-1 $294 $295 $166 $226 reversed $296 $-1 #
edge $-1 $297 -63.94999999999999574 $230 -59.5 $166 $298 reversed 7 unknown #
coedge $-1 $299 $167 $295 $300 reversed $229 $-1 #
coedge $-1 $167 $299 $301 $302 forward $229 $-1 #
loop $-1 $-1 $299 $303 #
vertex $-1 $168 $304 #
straight-curve $-1 -44.5 59.5 0 1 0 0 I I #
coedge $-1 $301 $305 $169 $233 reversed $306 $-1 #
edge $-1 $171 0 $307 1.570796326794896558 $232 $308 forward 7 unknown #
point $-1 -44.5 59.5 0 #
coedge $-1 $309 $310 $175 $236 forward $311 $-1 #
edge $-1 $237 -0 $181 9.5 $235 $312 reversed 7 unknown #
vertex $-1 $262 $313 #
ellipse-curve $-1 -34.5 0.5 -19.5 0 0 -1 0 -0.5 0 1 I I #
coedge $-1 $314 $177 $252 $315 forward $241 $-1 #
coedge $-1 $177 $314 $309 $244 reversed $241 $-1 #
loop $-1 $-1 $177 $316 #
straight-curve $-1 -34.5 0.5 -10 1 0 0 I I #
point $-1 -44.5 0.4999999999999999445 -10 #
edge $-1 $181 0.5 $317 59.5 $309 $318 reversed 7 unknown #
point $-1 -35 0.5 -10 #
sphere-surface $-1 -44.5 0.5 -9.5 0.5 1 0 0 0 0 1 forward_v I I I I #
coedge $-1 $186 $185 $319 $320 reversed $187 $-1 #
edge $-1 $135 0.4999999999999999445 $307 59.5 $185 $321 reversed 7 unknown #
coedge $-1 $322 $190 $186 $250 forward $253 $-1 #
edge $-1 $139 0.5 $323 59.5 $186 $324 reversed 7 unknown #
face $-1 $325 $187 $2 $-1 $326 forward single #
coedge $-1 $190 $322 $239 $315 reversed $253 $-1 #
loop $-1 $-1 $322 $327 #
ellipse-curve $-1 -44.5 0.5 -9.5 0 -1 0 -0.5 0 0 1 I I #
face $-1 $303 $306 $2 $-1 $328 forward single #
cone-surface $-1 -44.5 0 -0.5 0 -1 0 0 0 0.5 1 I I 0 1 0.5 forward I I I I #
coedge $-1 $329 $195 $330 $331 forward $259 $-1 #
coedge $-1 $195 $329 $203 $266 reversed $259 $-1 #
loop $-1 $-1 $257 $332 #
straight-curve $-1 0 0.5 -20 1 0 0 I I #
coedge $-1 $333 $330 $197 $262 forward $334 $-1 #
edge $-1 $198 -1.570796326794896558 $237 -0 $197 $335 reversed 7 unknown #
point $-1 -34.5 0.4999999999999999445 -20 #
point $-1 -0.5 0.5 -20 #
coedge $-1 $204 $203 $336 $337 forward $205 $-1 #
edge $-1 $200 0.5 $338 59.5 $258 $339 reversed 7 unknown #
face $-1 $332 $205 $2 $-1 $340 forward single #
coedge $-1 $341 $342 $207 $269 forward $343 $-1 #
edge $-1 $212 0 $270 19 $207 $344 forward 7 unknown #
vertex $-1 $337 $345 #
straight-curve $-1 0 0 -19.5 0 -1 0 I I #
plane-surface $-1 0 0 0 1 0 0 0 0 -1 forward_v I I I I #
coedge $-1 $274 $210 $342 $346 reversed $275 $-1 #
coedge $-1 $210 $273 $218 $287 reversed $275 $-1 #
loop $-1 $-1 $273 $347 #
ellipse-curve $-1 -0.5 59.5 -0.5 0 -1 0 0.5 0 0 1 I I #
point $-1 0 59.5 -0.5 #
coedge $-1 $348 $215 $349 $350 forward $75 $-1 #
coedge $-1 $351 $352 $215 $280 forward $353 $-1 #
edge $-1 $354 19.5 $284 22.5 $215 $355 forward 7 unknown #
coedge $-1 $356 $216 $219 $288 reversed $283 $-1 #
coedge $-1 $216 $357 $351 $358 forward $283 $-1 #
loop $-1 $-1 $359 $360 #
vertex $-1 $280 $361 #
straight-curve $-1 -3 0 0 0 1 0 I I #
coedge $-1 $219 $218 $362 $363 reversed $220 $-1 #
edge $-1 $164 -1.570796326794896558 $364 -0 $274 $365 reversed 7 unknown #
edge $-1 $366 -0 $221 1.570796326794896558 $219 $367 reversed 7 unknown #
face $-1 $120 $220 $2 $-1 $368 forward single #
point $-1 -3 59.5 0 #
coedge $-1 $224 $348 $369 $370 reversed $75 $-1 #
coedge $-1 $371 $372 $224 $293 forward $373 $-1 #
edge $-1 $297 7.5 $374 10.5 $224 $375 forward 7 unknown #
coedge $-1 $376 $225 $372 $377 reversed $296 $-1 #
coedge $-1 $225 $378 $227 $300 forward $296 $-1 #
loop $-1 $-1 $295 $379 #
vertex $-1 $226 $380 #
straight-curve $-1 -30 0 0 0 1 0 I I #
coedge $-1 $228 $227 $381 $382 reversed $229 $-1 #
edge $-1 $383 -0 $230 1.570796326794896558 $227 $384 reversed 7 unknown #
coedge $-1 $305 $232 $228 $302 reversed $306 $-1 #
edge $-1 $385 0 $171 1.570796326794896558 $301 $386 forward 7 unknown #
face $-1 $387 $229 $2 $-1 $388 forward single #
point $-1 -30 59.5 0 #
coedge $-1 $232 $301 $389 $390 reversed $306 $-1 #
loop $-1 $-1 $301 $255 #
vertex $-1 $320 $391 #
ellipse-curve $-1 -44.5 59.5 -0.5 0 -1 0 0 0 0.5 1 I I #
coedge $-1 $392 $235 $240 $244 forward $311 $-1 #
coedge $-1 $235 $393 $333 $394 reversed $311 $-1 #
loop $-1 $-1 $310 $395 #
straight-curve $-1 -35 0.5 -19.5 0 0 -1 I I #
point $-1 -35 0.5 -19.5 #
coedge $-1 $240 $239 $396 $397 reversed $241 $-1 #
edge $-1 $179 0.4999999999999999445 $398 59.5 $239 $399 reversed 7 unknown #
face $-1 $327 $241 $2 $-1 $400 forward single #
vertex $-1 $401 $402 #
straight-curve $-1 -35 0 -10 -0 -1 -0 I I #
coedge $-1 $389 $403 $247 $320 forward $404 $-1 #
edge $-1 $323 0 $307 9 $247 $405 forward 7 unknown #
straight-curve $-1 -45 0 -0.5 0 -1 0 I I #
coedge $-1 $252 $249 $406 $407 forward $253 $-1 #
vertex $-1 $250 $408 #
straight-curve $-1 -45 0 -9.5 0 -1 0 I I #
face $-1 $409 $410 $2 $-1 $411 forward single #
plane-surface $-1 -45 0 -10 -1 0 0 0 0 1 forward_v I I I I #
face $-1 $412 $253 $2 $-1 $413 forward single #
sphere-surface $-1 -44.5 59.5 -0.5 0.5 1 0 0 0 0 1 forward_v I I I I #
coedge $-1 $258 $257 $414 $415 reversed $259 $-1 #
coedge $-1 $261 $416 $257 $331 reversed $334 $-1 #
edge $-1 $198 0.4999999999999999445 $417 59.5 $257 $418 reversed 7 unknown #
face $-1 $419 $259 $2 $-1 $420 forward single #
coedge $-1 $416 $261 $310 $394 forward $334 $-1 #
loop $-1 $-1 $416 $419 #
ellipse-curve $-1 -34.5 0.5 -19.5 0 -1 0 -0.5 0 0 1 I I #
coedge $-1 $421 $422 $265 $337 reversed $423 $-1 #
edge $-1 $338 0 $270 1.570796326794896558 $336 $424 forward 7 unknown #
vertex $-1 $425 $426 #
straight-curve $-1 -0.5 0 -20 0 -1 0 I I #
cone-surface $-1 -0.5 0 -19.5 0 -1 0 0 0 -0.5 1 I I 0 1 0.5 forward I I I I #
coedge $-1 $427 $268 $422 $428 forward $343 $-1 #
coedge $-1 $268 $427 $273 $346 forward $343 $-1 #
loop $-1 $-1 $342 $429 #
straight-curve $-1 0 59.5 -0.5 0 0 -1 I I #
point $-1 0 59.5 -19.5 #
edge $-1 $364 0 $212 1.570796326794896558 $273 $430 forward 7 unknown #
face $-1 $289 $275 $2 $-1 $431 forward single #
coedge $-1 $291 $278 $432 $433 reversed $75 $-1 #
coedge $-1 $434 $435 $278 $350 reversed $436 $-1 #
edge $-1 $354 -63.94999999999999574 $437 -59.5 $278 $438 reversed 7 unknown #
coedge $-1 $439 $279 $282 $358 reversed $353 $-1 #
coedge $-1 $279 $439 $434 $440 forward $353 $-1 #
loop $-1 $-1 $279 $441 #
vertex $-1 $350 $442 #
straight-curve $-1 -25.5 63.94999999999999574 0 1 0 -0 I I #
coedge $-1 $359 $281 $443 $444 forward $283 $-1 #
coedge $-1 $282 $445 $446 $447 forward $283 $-1 #
edge $-1 $448 -1.09000000000000008 $284 1.09000000000000008 $282 $449 forward 7 unknown #
coedge $-1 $445 $356 $450 $451 forward $283 $-1 #
face $-1 $452 $283 $2 $-1 $453 forward single #
point $-1 -3 63.94999999999999574 0 #
coedge $-1 $454 $443 $286 $363 forward $455 $-1 #
edge $-1 $366 41.5 $364 44 $362 $456 forward 7 unknown #
vertex $-1 $457 $458 #
ellipse-curve $-1 -0.5 59.5 -0.5 1 0 0 0 0.5 0 1 I I #
vertex $-1 $363 $459 #
ellipse-curve $-1 -3 59.5 -0.5 -1 -0 -0 0 0.5 0 1 I I #
cone-surface $-1 -44.5 59.5 -0.5 1 0 0 0 0.5 0 1 I I 0 1 0.5 forward I I I I #
coedge $-1 $460 $461 $291 $370 forward $462 $-1 #
edge $-1 $374 -63.94999999999999574 $463 -59.5 $291 $464 reversed 7 unknown #
coedge $-1 $465 $292 $461 $466 reversed $373 $-1 #
coedge $-1 $292 $465 $294 $377 forward $373 $-1 #
loop $-1 $-1 $292 $467 #
vertex $-1 $293 $468 #
straight-curve $-1 -37.5 63.94999999999999574 0 1 0 -0 I I #
coedge $-1 $469 $294 $470 $471 reversed $296 $-1 #
edge $-1 $472 -1.09000000000000008 $297 1.09000000000000008 $294 $473 forward 7 unknown #
coedge $-1 $295 $474 $475 $476 reversed $296 $-1 #
face $-1 $467 $296 $2 $-1 $477 reversed single #
point $-1 -30 63.94999999999999574 0 #
coedge $-1 $475 $478 $299 $382 forward $455 $-1 #
edge $-1 $385 0 $383 14.5 $381 $479 forward 7 unknown #
vertex $-1 $476 $480 #
ellipse-curve $-1 -30 59.5 -0.5 -1 -0 -0 0 0.5 0 1 I I #
vertex $-1 $382 $481 #
ellipse-curve $-1 -44.5 59.5 -0.5 1 0 0 0 0.5 0 1 I I #
face $-1 $482 $455 $2 $-1 $483 forward single #
cone-surface $-1 -44.5 59.5 -0.5 1 0 0 0 0.5 0 1 I I 0 1 0.5 forward I I I I #
coedge $-1 $484 $319 $305 $390 forward $404 $-1 #
edge $-1 $307 -1.570796326794896558 $385 -0 $305 $485 reversed 7 unknown #
point $-1 -45 59.5 -0.5 #
coedge $-1 $486 $309 $487 $401 reversed $311 $-1 #
coedge $-1 $310 $488 $489 $490 reversed $311 $-1 #
edge $-1 $237 0.5 $491 59.5 $310 $492 reversed 7 unknown #
face $-1 $316 $311 $2 $-1 $493 forward single #
coedge $-1 $494 $495 $314 $397 forward $410 $-1 #
edge $-1 $317 0.5 $398 10 $314 $496 forward 7 unknown #
vertex $-1 $397 $497 #
straight-curve $-1 -44.5 0 -10 0 -1 0 I I #
plane-surface $-1 -35 0 -10 0 0 -1 -1 0 0 forward_v I I I I #
edge $-1 $498 -63.94999999999999574 $317 -59.5 $392 $499 forward 7 unknown #
point $-1 -35 59.5 -10 #
coedge $-1 $319 $484 $500 $501 forward $404 $-1 #
loop $-1 $-1 $403 $502 #
straight-curve $-1 -45 59.5 -9.5 0 0 1 I I #
coedge $-1 $500 $503 $322 $407 reversed $504 $-1 #
edge $-1 $323 0 $398 1.570796326794896558 $406 $505 forward 7 unknown #
point $-1 -45 59.5 -9.5 #
face $-1 $506 $507 $2 $-1 $508 forward single #
loop $-1 $-1 $396 $325 #
cone-surface $-1 -34.5 59.5 -9.5 -1 0 0 0 0.5 0 1 I I 0 1 0.5 forward I I I I #
face $-1 $502 $504 $2 $-1 $509 forward single #
cone-surface $-1 -44.5 0 -9.5 0 -1 0 -0.5 0 0 1 I I 0 1 0.5 forward I I I I #
coedge $-1 $510 $511 $329 $415 forward $512 $-1 #
edge $-1 $338 0.5 $417 34.5 $329 $513 forward 7 unknown #
coedge $-1 $330 $333 $514 $515 forward $334 $-1 #
vertex $-1 $415 $516 #
straight-curve $-1 -34.5 0 -20 0 -1 0 I I #
face $-1 $395 $334 $2 $-1 $517 forward single #
plane-surface $-1 0 0 -20 0 0 -1 -1 0 0 forward_v I I I I #
coedge $-1 $422 $336 $511 $425 reversed $423 $-1 #
coedge $-1 $336 $421 $341 $428 reversed $423 $-1 #
loop $-1 $-1 $422 $518 #
ellipse-curve $-1 -0.5 59.5 -19.5 0 -1 0 0 0 -0.5 1 I I #
edge $-1 $519 0 $338 1.570796326794896558 $421 $520 forward 7 unknown #
point $-1 -0.5 59.5 -20 #
coedge $-1 $342 $341 $454 $457 reversed $343 $-1 #
edge $-1 $270 -1.570796326794896558 $519 -0 $422 $521 reversed 7 unknown #
face $-1 $347 $343 $2 $-1 $522 forward single #
ellipse-curve $-1 -0.5 59.5 -0.5 0 0 -1 0 0.5 0 1 I I #
sphere-surface $-1 -0.5 59.5 -0.5 0.5 1 0 0 0 0 1 forward_v I I I I #
coedge $-1 $523 $524 $348 $433 forward $525 $-1 #
edge $-1 $463 17.5 $437 38.5 $348 $526 forward 7 unknown #
coedge $-1 $527 $349 $352 $440 reversed $436 $-1 #
coedge $-1 $349 $528 $523 $529 forward $436 $-1 #
loop $-1 $-1 $435 $530 #
vertex $-1 $433 $531 #
straight-curve $-1 -6 0 0 0 1 0 I I #
coedge $-1 $352 $351 $532 $533 reversed $353 $-1 #
edge $-1 $534 -1.09000000000000008 $354 1.09000000000000008 $434 $535 forward 7 unknown #
face $-1 $536 $353 $2 $-1 $537 forward single #
point $-1 -6 63.94999999999999574 0 #
coedge $-1 $362 $538 $356 $444 reversed $455 $-1 #
edge $-1 $366 0.5 $539 1.379999999999999893 $443 $540 forward 7 unknown #
coedge $-1 $357 $359 $541 $542 forward $283 $-1 #
coedge $-1 $543 $532 $357 $447 reversed $544 $-1 #
edge $-1 $545 -32.61500000000000199 $448 -31.33499999999999375 $357 $546 forward 7 unknown #
vertex $-1 $358 $547 #
straight-curve $-1 -3 63.94999999999999574 1.09000000000000008 0 0 -1 I I #
coedge $-1 $548 $549 $359 $451 reversed $550 $-1 #
edge $-1 $539 30.25 $551 35.48000000000000398 $359 $552 forward 7 unknown #
face $-1 $530 $550 $2 $-1 $553 forward single #
plane-surface $-1 -3 0 0 1 0 0 0 0 -1 forward_v I I I I #
coedge $-1 $554 $362 $427 $457 forward $455 $-1 #
loop $-1 $-1 $555 $387 #
straight-curve $-1 -44.5 60 -0.5 1 0 0 I I #
edge $-1 $364 0 $519 19 $454 $556 forward 7 unknown #
point $-1 -0.5 60 -0.5 #
point $-1 -3 60 -0.5 #
coedge $-1 $557 $369 $524 $558 reversed $462 $-1 #
coedge $-1 $369 $559 $371 $466 forward $462 $-1 #
loop $-1 $-1 $560 $561 #
vertex $-1 $370 $562 #
straight-curve $-1 -27 0 0 0 1 0 I I #
coedge $-1 $372 $371 $563 $564 reversed $373 $-1 #
edge $-1 $565 -1.09000000000000008 $374 1.09000000000000008 $461 $566 forward 7 unknown #
face $-1 $567 $373 $2 $-1 $568 forward single #
point $-1 -27 63.94999999999999574 0 #
coedge $-1 $474 $376 $569 $570 reversed $296 $-1 #
coedge $-1 $563 $571 $376 $471 forward $572 $-1 #
edge $-1 $573 -32.61500000000000199 $472 -31.33499999999999375 $376 $574 forward 7 unknown #
vertex $-1 $471 $575 #
straight-curve $-1 -30 63.94999999999999574 1.09000000000000008 0 0 -1 I I #
coedge $-1 $378 $469 $576 $577 reversed $296 $-1 #
coedge $-1 $578 $381 $378 $476 forward $455 $-1 #
edge $-1 $383 0.5 $579 1.379999999999999893 $475 $580 forward 7 unknown #
plane-surface $-1 -30 0 0 1 0 0 0 0 -1 forward_v I I I I #
coedge $-1 $381 $581 $484 $582 forward $455 $-1 #
straight-curve $-1 -44.5 60 -0.5 1 0 0 I I #
point $-1 -30 60 -0.5 #
point $-1 -44.5 60 -0.5 #
face $-1 $583 $584 $2 $-1 $585 forward single #
plane-surface $-1 0 60 0 0 1 0 -1 0 0 forward_v I I I I #
coedge $-1 $403 $389 $478 $582 reversed $404 $-1 #
ellipse-curve $-1 -44.5 59.5 -0.5 0 0 1 0 0.5 0 1 I I #
coedge $-1 $488 $392 $586 $587 reversed $311 $-1 #
coedge $-1 $588 $589 $392 $401 forward $590 $-1 #
coedge $-1 $393 $486 $591 $592 forward $311 $-1 #
coedge $-1 $593 $594 $393 $490 forward $595 $-1 #
edge $-1 $491 0 $596 6.5 $393 $597 forward 7 unknown #
vertex $-1 $490 $598 #
straight-curve $-1 -35 0 -19.5 0 -1 0 I I #
plane-surface $-1 -35 0 -20 -1 0 0 0 0 1 forward_v I I I I #
coedge $-1 $599 $396 $503 $600 forward $410 $-1 #
coedge $-1 $396 $599 $601 $602 forward $410 $-1 #
straight-curve $-1 -34.5 59.5 -10 -1 0 0 I I #
point $-1 -44.5 59.5 -10 #
vertex $-1 $587 $603 #
straight-curve $-1 -35 0 -10 -0 -1 -0 I I #
coedge $-1 $503 $406 $403 $501 reversed $504 $-1 #
edge $-1 $604 0 $323 1.570796326794896558 $500 $605 forward 7 unknown #
face $-1 $251 $404 $2 $-1 $606 forward single #
coedge $-1 $406 $500 $494 $600 reversed $504 $-1 #
loop $-1 $-1 $500 $412 #
ellipse-curve $-1 -44.5 59.5 -9.5 0 -1 0 -0.5 0 0 1 I I #
face $-1 $607 $590 $2 $-1 $400 reversed single #
loop $-1 $-1 $601 $409 #
cone-surface $-1 -34.5 59.5 -19.5 0 0 1 0 0.5 0 1 I I 0 1 0.5 forward I I I I #
sphere-surface $-1 -44.5 59.5 -9.5 0.5 1 0 0 0 0 1 forward_v I I I I #
coedge $-1 $608 $414 $609 $610 forward $512 $-1 #
coedge $-1 $414 $608 $421 $425 forward $512 $-1 #
loop $-1 $-1 $511 $611 #
straight-curve $-1 0 59.5 -20 -1 0 0 I I #
coedge $-1 $612 $609 $416 $515 reversed $613 $-1 #
edge $-1 $491 0 $417 1.570796326794896558 $514 $614 forward 7 unknown #
point $-1 -34.5 59.5 -20 #
cone-surface $-1 -34.5 0 -19.5 0 -1 0 -0.5 0 0 1 I I 0 1 0.5 forward I I I I #
face $-1 $429 $423 $2 $-1 $615 forward single #
vertex $-1 $616 $617 #
ellipse-curve $-1 -0.5 59.5 -19.5 -1 0 0 0 0.5 0 1 I I #
ellipse-curve $-1 -0.5 59.5 -19.5 0 0 -1 0 0.5 0 1 I I #
cone-surface $-1 -0.5 59.5 -0.5 0 0 -1 0 0.5 0 1 I I 0 1 0.5 forward I I I I #
coedge $-1 $618 $432 $435 $529 reversed $525 $-1 #
coedge $-1 $432 $618 $460 $558 forward $525 $-1 #
loop $-1 $-1 $432 $619 #
straight-curve $-1 -44.5 59.5 0 1 0 0 I I #
coedge $-1 $620 $434 $621 $622 reversed $436 $-1 #
coedge $-1 $435 $623 $624 $625 reversed $436 $-1 #
edge $-1 $626 -0 $437 1.570796326794896558 $523 $627 reversed 7 unknown #
face $-1 $619 $436 $2 $-1 $628 reversed single #
point $-1 -6 59.5 0 #
coedge $-1 $446 $621 $439 $533 forward $544 $-1 #
edge $-1 $534 0 $448 3 $532 $629 forward 7 unknown #
vertex $-1 $622 $630 #
straight-curve $-1 -6 63.94999999999999574 1.09000000000000008 0 0 -1 I I #
face $-1 $631 $544 $2 $-1 $632 forward single #
plane-surface $-1 -6 63.94999999999999574 2.18000000000000016 0 -1 0 0 0 -1 forward_v I I I I #
coedge $-1 $443 $624 $548 $633 forward $455 $-1 #
vertex $-1 $444 $634 #
straight-curve $-1 -3 60 0 0 0 -1 I I #
coedge $-1 $635 $636 $445 $542 reversed $637 $-1 #
edge $-1 $551 -0.6899999999999999467 $545 2.870000000000000107 $445 $638 forward 7 unknown #
coedge $-1 $621 $446 $636 $639 reversed $544 $-1 #
loop $-1 $-1 $532 $536 #
vertex $-1 $447 $640 #
straight-curve $-1 -3 32.61500000000000199 2.18000000000000016 0 -1 0 I I #
point $-1 -3 63.94999999999999574 2.18000000000000016 #
coedge $-1 $641 $450 $538 $633 reversed $550 $-1 #
coedge $-1 $450 $641 $635 $642 forward $550 $-1 #
loop $-1 $-1 $641 $452 #
vertex $-1 $542 $643 #
straight-curve $-1 -3 29.75 -1.379999999999999893 -0 1 0 I I #
plane-surface $-1 -6 59.5 -1.379999999999999893 0 0 -1 0 1 0 forward_v I I I I #
coedge $-1 $644 $454 $608 $616 forward $455 $-1 #
coedge $-1 $645 $646 $647 $648 forward $455 $-1 #
straight-curve $-1 -0.5 60 -0.5 0 0 -1 I I #
coedge $-1 $560 $460 $649 $650 forward $462 $-1 #
edge $-1 $651 -0 $463 1.570796326794896558 $524 $652 reversed 7 unknown #
coedge $-1 $461 $653 $654 $655 forward $462 $-1 #
coedge $-1 $653 $557 $656 $657 forward $462 $-1 #
face $-1 $658 $462 $2 $-1 $659 forward single #
point $-1 -27 59.5 0 #
coedge $-1 $654 $470 $465 $564 forward $572 $-1 #
edge $-1 $472 0 $565 3 $563 $660 forward 7 unknown #
vertex $-1 $466 $661 #
straight-curve $-1 -27 63.94999999999999574 1.09000000000000008 0 0 -1 I I #
face $-1 $662 $572 $2 $-1 $663 forward single #
plane-surface $-1 -30 63.94999999999999574 2.18000000000000016 0 -1 0 0 0 -1 forward_v I I I I #
coedge $-1 $664 $665 $469 $570 forward $666 $-1 #
edge $-1 $667 -0.6899999999999999467 $573 2.870000000000000107 $469 $668 forward 7 unknown #
coedge $-1 $470 $654 $664 $669 reversed $572 $-1 #
loop $-1 $-1 $563 $567 #
vertex $-1 $570 $670 #
straight-curve $-1 -30 32.61500000000000199 2.18000000000000016 0 -1 0 I I #
point $-1 -30 63.94999999999999574 2.18000000000000016 #
coedge $-1 $671 $672 $474 $577 forward $673 $-1 #
edge $-1 $579 30.25 $667 35.48000000000000398 $474 $674 forward 7 unknown #
coedge $-1 $649 $475 $672 $675 forward $455 $-1 #
vertex $-1 $675 $676 #
straight-curve $-1 -30 60 0 0 0 -1 I I #
coedge $-1 $478 $677 $599 $678 forward $455 $-1 #
edge $-1 $604 0 $385 9 $478 $679 forward 7 unknown #
face $-1 $680 $681 $2 $-1 $682 reversed single #
loop $-1 $-1 $683 $482 #
plane-surface $-1 -33.61999999999999744 59.5 -13 1 0 0 0 1 0 forward_v I I I I #
coedge $-1 $684 $685 $486 $587 forward $686 $-1 #
edge $-1 $687 3.5 $498 6.5 $486 $688 forward 7 unknown #
coedge $-1 $689 $487 $690 $691 reversed $590 $-1 #
coedge $-1 $487 $692 $684 $693 forward $590 $-1 #
loop $-1 $-1 $694 $506 #
coedge $-1 $695 $696 $488 $592 reversed $681 $-1 #
edge $-1 $687 -63.94999999999999574 $596 -59.5 $488 $697 reversed 7 unknown #
coedge $-1 $698 $489 $696 $699 reversed $595 $-1 #
coedge $-1 $489 $698 $612 $700 forward $595 $-1 #
loop $-1 $-1 $698 $680 #
vertex $-1 $490 $701 #
straight-curve $-1 -35 59.5 -19.5 0 0 1 I I #
point $-1 -35 59.5 -19.5 #
coedge $-1 $495 $494 $581 $678 reversed $410 $-1 #
edge $-1 $398 -1.570796326794896558 $604 -0 $503 $702 reversed 7 unknown #
coedge $-1 $703 $690 $495 $602 reversed $507 $-1 #
edge $-1 $704 -1.570796326794896558 $317 0 $601 $705 forward 7 unknown #
point $-1 -35 63.94999999999999574 -10 #
vertex $-1 $582 $706 #
ellipse-curve $-1 -44.5 59.5 -9.5 0 0 1 0 0.5 0 1 I I #
cone-surface $-1 -44.5 59.5 -9.5 0 0 1 0 0.5 0 1 I I 0 1 0.5 forward I I I I #
face $-1 $707 $708 $2 $-1 $709 forward single #
coedge $-1 $511 $510 $554 $616 reversed $512 $-1 #
coedge $-1 $514 $612 $510 $610 reversed $613 $-1 #
edge $-1 $417 -1.570796326794896558 $710 -0 $609 $711 reversed 7 unknown #
face $-1 $518 $512 $2 $-1 $712 forward single #
coedge $-1 $609 $514 $594 $700 reversed $613 $-1 #
loop $-1 $-1 $612 $713 #
ellipse-curve $-1 -34.5 59.5 -19.5 0 -1 0 -0.5 0 0 1 I I #
sphere-surface $-1 -0.5 59.5 -19.5 0.5 1 0 0 0 0 1 forward_v I I I I #
edge $-1 $519 0.5 $710 34.5 $554 $714 forward 7 unknown #
point $-1 -0.5 60 -19.5 #
coedge $-1 $524 $523 $715 $716 reversed $525 $-1 #
face $-1 $561 $525 $2 $-1 $717 forward single #
coedge $-1 $623 $527 $718 $719 reversed $436 $-1 #
coedge $-1 $532 $543 $527 $622 forward $544 $-1 #
edge $-1 $720 -32.61500000000000199 $534 -31.33499999999999375 $527 $721 forward 7 unknown #
coedge $-1 $528 $620 $641 $722 reversed $436 $-1 #
coedge $-1 $538 $715 $528 $625 forward $455 $-1 #
edge $-1 $626 0.5 $723 1.379999999999999893 $624 $724 forward 7 unknown #
vertex $-1 $625 $725 #
ellipse-curve $-1 -6 59.5 -0.5 -1 -0 -0 0 0.5 0 1 I I #
plane-surface $-1 -6 0 0 1 0 0 0 0 -1 forward_v I I I I #
straight-curve $-1 -6 63.94999999999999574 2.18000000000000016 1 0 -0 I I #
point $-1 -6 63.94999999999999574 2.18000000000000016 #
face $-1 $-1 $637 $2 $-1 $726 forward single #
plane-surface $-1 -6 65.23000000000000398 2.18000000000000016 0 0 1 0 -1 0 forward_v I I I I #
edge $-1 $723 -3 $539 -0 $538 $727 reversed 7 unknown #
point $-1 -3 60 -1.379999999999999893 #
coedge $-1 $718 $541 $549 $642 reversed $637 $-1 #
coedge $-1 $541 $718 $543 $639 forward $637 $-1 #
loop $-1 $-1 $636 $631 #
straight-curve $-1 -3 65.23000000000000398 -0.6899999999999999467 0 0 1 I I #
edge $-1 $720 0 $545 3 $636 $728 forward 7 unknown #
point $-1 -3 65.23000000000000398 2.18000000000000016 #
coedge $-1 $549 $548 $623 $722 forward $550 $-1 #
edge $-1 $729 0 $551 3 $549 $730 forward 7 unknown #
point $-1 -3 65.23000000000000398 -1.379999999999999893 #
coedge $-1 $646 $554 $698 $731 forward $455 $-1 #
coedge $-1 $677 $555 $689 $732 reversed $455 $-1 #
coedge $-1 $555 $644 $733 $734 forward $455 $-1 #
coedge $-1 $683 $735 $555 $648 reversed $584 $-1 #
edge $-1 $736 -6.5 $737 -3.5 $555 $738 reversed 7 unknown #
coedge $-1 $715 $578 $557 $650 reversed $455 $-1 #
edge $-1 $651 0.5 $739 1.379999999999999893 $649 $740 forward 7 unknown #
vertex $-1 $716 $741 #
ellipse-curve $-1 -27 59.5 -0.5 -1 -0 -0 0 0.5 0 1 I I #
coedge $-1 $559 $560 $742 $743 forward $462 $-1 #
coedge $-1 $571 $563 $559 $655 reversed $572 $-1 #
edge $-1 $744 -32.61500000000000199 $565 -31.33499999999999375 $559 $745 forward 7 unknown #
coedge $-1 $672 $671 $560 $657 reversed $673 $-1 #
edge $-1 $739 30.25 $746 35.48000000000000398 $560 $747 forward 7 unknown #
face $-1 $379 $673 $2 $-1 $748 forward single #
plane-surface $-1 -27 0 0 1 0 0 0 0 -1 forward_v I I I I #
straight-curve $-1 -30 63.94999999999999574 2.18000000000000016 1 0 -0 I I #
point $-1 -27 63.94999999999999574 2.18000000000000016 #
face $-1 $441 $666 $2 $-1 $749 forward single #
plane-surface $-1 -30 65.23000000000000398 2.18000000000000016 0 0 1 0 -1 0 forward_v I I I I #
coedge $-1 $742 $569 $571 $669 forward $666 $-1 #
coedge $-1 $569 $742 $671 $750 reversed $666 $-1 #
loop $-1 $-1 $664 $662 #
vertex $-1 $577 $751 #
straight-curve $-1 -30 65.23000000000000398 -0.6899999999999999467 0 0 1 I I #
edge $-1 $573 0 $744 3 $664 $752 forward 7 unknown #
point $-1 -30 65.23000000000000398 2.18000000000000016 #
coedge $-1 $656 $576 $665 $750 forward $673 $-1 #
coedge $-1 $576 $656 $578 $675 reversed $673 $-1 #
loop $-1 $-1 $576 $658 #
straight-curve $-1 -30 29.75 -1.379999999999999893 -0 1 0 I I #
edge $-1 $579 -15 $739 -12 $578 $753 reversed 7 unknown #
point $-1 -30 60 -1.379999999999999893 #
coedge $-1 $581 $645 $703 $754 forward $455 $-1 #
edge $-1 $704 0 $604 10 $581 $755 forward 7 unknown #
straight-curve $-1 -44.5 60 -9.5 0 0 1 I I #
face $-1 $713 $595 $2 $-1 $756 forward single #
loop $-1 $-1 $696 $583 #
plane-surface $-1 -45 0 -13 0 0 1 1 0 0 forward_v I I I I #
coedge $-1 $757 $647 $758 $759 forward $584 $-1 #
coedge $-1 $760 $586 $589 $693 reversed $686 $-1 #
coedge $-1 $586 $760 $695 $761 forward $686 $-1 #
loop $-1 $-1 $586 $762 #
vertex $-1 $592 $763 #
straight-curve $-1 -35 63.94999999999999574 -16.5 0 0 1 I I #
coedge $-1 $694 $588 $645 $732 forward $590 $-1 #
coedge $-1 $601 $703 $588 $691 forward $507 $-1 #
edge $-1 $764 0 $317 1.570796326794896558 $690 $765 forward 7 unknown #
coedge $-1 $589 $766 $767 $768 forward $590 $-1 #
edge $-1 $769 -1.089999999999996305 $498 1.090000000000003411 $589 $770 reversed 7 unknown #
coedge $-1 $766 $689 $735 $771 forward $590 $-1 #
coedge $-1 $772 $591 $685 $761 reversed $681 $-1 #
coedge $-1 $591 $733 $593 $699 forward $681 $-1 #
straight-curve $-1 -35 0 -13 0 1 -0 I I #
coedge $-1 $594 $593 $644 $731 reversed $595 $-1 #
edge $-1 $773 -0 $596 1.570796326794896558 $593 $774 reversed 7 unknown #
edge $-1 $710 0 $491 1.570796326794896558 $612 $775 forward 7 unknown #
point $-1 -35 59.5 -13 #
ellipse-curve $-1 -44.5 59.5 -9.5 -1 0 0 0 0.5 0 1 I I #
coedge $-1 $690 $601 $677 $754 reversed $507 $-1 #
vertex $-1 $678 $776 #
ellipse-curve $-1 -34.5 59.5 -9.5 -0.7071067811865474617 0 0.7071067811865474617 -0.5 0 -0.5 0.7071067811865474617 I I #
point $-1 -44.5 60 -9.5 #
face $-1 $762 $777 $2 $-1 $778 forward single #
loop $-1 $-1 $779 $607 #
plane-surface $-1 -33.61999999999999744 65.23000000000000398 -13 0 1 0 -1 0 0 forward_v I I I I #
vertex $-1 $731 $780 #
ellipse-curve $-1 -34.5 59.5 -19.5 -1 0 0 0 0.5 0 1 I I #
cone-surface $-1 0 59.5 -19.5 -1 0 0 0 0.5 0 1 I I 0 1 0.5 forward I I I I #
face $-1 $611 $613 $2 $-1 $781 forward single #
straight-curve $-1 0 60 -19.5 -1 0 0 I I #
coedge $-1 $624 $649 $618 $716 forward $455 $-1 #
edge $-1 $651 17.5 $626 38.5 $715 $782 forward 7 unknown #
cone-surface $-1 -44.5 59.5 -0.5 1 0 0 0 0.5 0 1 I I 0 1 0.5 forward I I I I #
coedge $-1 $636 $635 $620 $719 forward $637 $-1 #
edge $-1 $729 -0.6899999999999999467 $720 2.870000000000000107 $620 $783 forward 7 unknown #
vertex $-1 $719 $784 #
straight-curve $-1 -6 32.61500000000000199 2.18000000000000016 0 -1 0 I I #
edge $-1 $723 30.25 $729 35.48000000000000398 $623 $785 forward 7 unknown #
vertex $-1 $633 $786 #
straight-curve $-1 -6 60 0 0 0 -1 I I #
point $-1 -6 60 -0.5 #
plane-surface $-1 -6 65.23000000000000398 -1.379999999999999893 0 1 0 0 0 1 forward_v I I I I #
straight-curve $-1 -3 60 -1.379999999999999893 -1 0 0 I I #
straight-curve $-1 -6 65.23000000000000398 2.18000000000000016 1 0 0 I I #
vertex $-1 $722 $787 #
straight-curve $-1 -6 65.23000000000000398 -1.379999999999999893 1 -0 0 I I #
edge $-1 $710 0 $773 6.5 $644 $788 forward 7 unknown #
edge $-1 $764 -17 $737 -16.11999999999999744 $645 $789 reversed 7 unknown #
coedge $-1 $696 $758 $646 $734 reversed $681 $-1 #
edge $-1 $773 -12 $736 -11.11999999999999744 $646 $790 forward 7 unknown #
coedge $-1 $647 $757 $694 $771 reversed $584 $-1 #
vertex $-1 $734 $791 #
vertex $-1 $732 $792 #
straight-curve $-1 -33.61999999999999744 60 -6.5 0 0 -1 I I #
vertex $-1 $650 $793 #
straight-curve $-1 -27 60 0 0 0 -1 I I #
point $-1 -27 60 -0.5 #
coedge $-1 $665 $664 $653 $743 reversed $666 $-1 #
edge $-1 $746 -0.6899999999999999467 $744 2.870000000000000107 $653 $794 forward 7 unknown #
vertex $-1 $655 $795 #
straight-curve $-1 -27 32.61500000000000199 2.18000000000000016 0 -1 0 I I #
vertex $-1 $743 $796 #
straight-curve $-1 -27 29.75 -1.379999999999999893 -0 1 0 I I #
plane-surface $-1 -30 59.5 -1.379999999999999893 0 0 -1 0 1 0 forward_v I I I I #
plane-surface $-1 -30 65.23000000000000398 -1.379999999999999893 0 1 0 0 0 1 forward_v I I I I #
edge $-1 $667 0 $746 3 $671 $797 forward 7 unknown #
point $-1 -30 65.23000000000000398 -1.379999999999999893 #
straight-curve $-1 -30 65.23000000000000398 2.18000000000000016 1 0 0 I I #
straight-curve $-1 -15 60 -1.379999999999999893 -1 0 0 I I #
edge $-1 $764 9.5 $704 10 $677 $798 forward 7 unknown #
straight-curve $-1 -34.5 60 -9.5 -1 0 0 I I #
cone-surface $-1 -34.5 59.5 -19.5 0 0 1 0 0.5 0 1 I I 0 1 0.5 forward I I I I #
coedge $-1 $735 $683 $799 $800 forward $584 $-1 #
coedge $-1 $733 $801 $683 $759 reversed $681 $-1 #
edge $-1 $736 30.25 $802 35.48000000000000398 $758 $803 forward 7 unknown #
coedge $-1 $685 $684 $804 $805 reversed $686 $-1 #
edge $-1 $806 3.910000000000003695 $687 6.090000000000003411 $695 $807 forward 7 unknown #
face $-1 $360 $686 $2 $-1 $808 forward single #
point $-1 -35 63.94999999999999574 -13 #
vertex $-1 $754 $809 #
ellipse-curve $-1 -34.5 59.5 -10 -0 -0 1 0 0.5 0 1 I I #
coedge $-1 $692 $694 $810 $811 forward $590 $-1 #
coedge $-1 $812 $804 $692 $768 reversed $777 $-1 #
edge $-1 $813 -32.61500000000000199 $769 -31.33499999999999375 $692 $814 reversed 7 unknown #
vertex $-1 $693 $815 #
straight-curve $-1 -36.09000000000000341 63.94999999999999574 -10 -1 -0 -0 I I #
edge $-1 $737 30.25 $816 35.48000000000000398 $694 $817 reversed 7 unknown #
coedge $-1 $801 $695 $818 $819 reversed $681 $-1 #
vertex $-1 $734 $820 #
ellipse-curve $-1 -34.5 59.5 -13 -0 -0 -1 0 0.5 0 1 I I #
ellipse-curve $-1 -34.5 59.5 -19.5 0 0 1 0 0.5 0 1 I I #
point $-1 -34.5 60 -9.5 #
loop $-1 $-1 $804 $707 #
plane-surface $-1 -37.17999999999999972 65.23000000000000398 -13 -1 0 0 0 -1 0 forward_v I I I I #
coedge $-1 $810 $821 $812 $822 forward $708 $-1 #
point $-1 -34.5 60 -19.5 #
sphere-surface $-1 -34.5 59.5 -19.5 0.5 1 0 0 0 0 1 forward_v I I I I #
straight-curve $-1 -44.5 60 -0.5 1 0 0 I I #
straight-curve $-1 -6 65.23000000000000398 -0.6899999999999999467 0 0 1 I I #
point $-1 -6 65.23000000000000398 2.18000000000000016 #
straight-curve $-1 -6 29.75 -1.379999999999999893 -0 1 0 I I #
point $-1 -6 60 -1.379999999999999893 #
point $-1 -6 65.23000000000000398 -1.379999999999999893 #
straight-curve $-1 -34.5 60 -19.5 0 0 1 I I #
straight-curve $-1 -17.5 60 -10 -1 0 0 I I #
straight-curve $-1 -22.5 60 -13 1 0 0 I I #
point $-1 -33.61999999999999744 60 -13 #
point $-1 -33.61999999999999744 60 -10 #
point $-1 -27 60 -1.379999999999999893 #
straight-curve $-1 -27 65.23000000000000398 -0.6899999999999999467 0 0 1 I I #
point $-1 -27 65.23000000000000398 2.18000000000000016 #
point $-1 -27 65.23000000000000398 -1.379999999999999893 #
straight-curve $-1 -30 65.23000000000000398 -1.379999999999999893 1 -0 0 I I #
straight-curve $-1 -34.5 60 -19.5 0 0 1 I I #
coedge $-1 $821 $810 $757 $800 reversed $708 $-1 #
edge $-1 $802 0 $816 3 $757 $823 forward 7 unknown #
coedge $-1 $758 $772 $821 $824 reversed $681 $-1 #
vertex $-1 $759 $825 #
straight-curve $-1 -33.61999999999999744 29.75 -13 0 1 0 I I #
coedge $-1 $767 $818 $760 $805 forward $777 $-1 #
edge $-1 $806 0 $769 3 $804 $826 forward 7 unknown #
vertex $-1 $819 $827 #
straight-curve $-1 -41.09000000000000341 63.94999999999999574 -13 1 0 -0 I I #
plane-surface $-1 -37.17999999999999972 63.94999999999999574 -13 0 -1 0 1 0 0 forward_v I I I I #
point $-1 -34.5 60 -10 #
coedge $-1 $799 $779 $766 $811 reversed $708 $-1 #
edge $-1 $816 -0.6900000000000048317 $813 2.869999999999997442 $766 $828 reversed 7 unknown #
coedge $-1 $818 $767 $779 $822 reversed $777 $-1 #
vertex $-1 $768 $829 #
straight-curve $-1 -37.17999999999999972 32.61500000000000199 -10 0 1 0 I I #
point $-1 -37.17999999999999972 63.94999999999999574 -10 #
vertex $-1 $811 $830 #
straight-curve $-1 -33.61999999999999744 29.75 -10 0 -1 0 I I #
coedge $-1 $804 $812 $772 $819 forward $777 $-1 #
edge $-1 $831 -32.61500000000000199 $806 -31.33499999999999375 $772 $832 forward 7 unknown #
point $-1 -34.5 60 -13 #
coedge $-1 $779 $799 $801 $824 forward $708 $-1 #
edge $-1 $831 0 $813 3 $779 $833 forward 7 unknown #
straight-curve $-1 -33.61999999999999744 65.23000000000000398 -13 0 0 1 I I #
edge $-1 $802 -5.690000000000004832 $831 -2.130000000000002558 $801 $834 forward 7 unknown #
point $-1 -33.61999999999999744 65.23000000000000398 -13 #
straight-curve $-1 -37.17999999999999972 63.94999999999999574 -13 0 0 1 I I #
point $-1 -37.17999999999999972 63.94999999999999574 -13 #
straight-curve $-1 -34.31000000000000227 65.23000000000000398 -10 1 -0 0 I I #
point $-1 -37.17999999999999972 65.23000000000000398 -10 #
point $-1 -33.61999999999999744 65.23000000000000398 -10 #
vertex $-1 $824 $835 #
straight-curve $-1 -37.17999999999999972 32.61500000000000199 -13 0 -1 0 I I #
straight-curve $-1 -37.17999999999999972 65.23000000000000398 -13 0 -0 1 I I #
straight-curve $-1 -39.31000000000000227 65.23000000000000398 -13 -1 0 0 I I #
point $-1 -37.17999999999999972 65.23000000000000398 -13 #
End-of-ACIS-data 