**ABCDEFGHIJKLMNOPQRSTUVWXYZabcdefghijklmnopqrstuvwxyz**************************
**PARASOLID !"#$%&'()*+,-./:;<=>?@[\]^_`{|}~0123456789**************************
**PART1;
MC=unknown;
MC_MODEL=unknown;
MC_ID=unknown;
OS=WindowsNT;
OS_RELEASE=4.0;
FRU=unknown;
APPL=IronCAD;
SITE=Visionary Design Systems Inc, Atlanta, GA;
USER=market;
FORMAT=text;
GUISE=transmit;
KEY=V:\ZData\nativeICS\ICS3\good ChamberOR;
FILE=V:\ZData\nativeICS\ICS3\good chamberor.X_T;
DATE=unknown;
**PART2;
SCH=SCH_1100129_11004;
USFLD_SIZE=0;
**PART3;
**END_OF_HEADER*****************************************************************
T51 : TRANSMIT FILE created by modeller version 110012917 SCH_1100129_110040 12
 1 1957 0 0 0 0 0 0 1e3 1e-8 0 2 0 1 0 1 1 3 4 5 6 7 8 9 13 3 298 0 1 0 10 0 0 1
1 0 59 4 1835 0 1 12 0 13 +0 14 38 5 1834 0 8 15 0 0 +4 16 17 18 18 29 6 1405 0
 9 19 0 .620330565795348 .72476544008391 .18161 19 7 1 0 1 11 0 20 V16 8 1831 0
 ?21 0 22 5 0 0 1 18 9 1403 0 23 0 24 6 ?1 17 23 0 25 26 27 9 28 29 0 30 +18 24
 1400 0 31 9 32 19 ?1 17 31 0 33 34 35 24 36 37 0 27 +18 32 1390 0 38 24 39 40 ?
1 29 19 1402 0 24 40 6 .620330565795348 .72476544008391 0 29 40 1392 0 32 41 19
 .927322217554238 .152635332837098 .18161 29 41 1386 0 39 42 40 .919011126788543
 .19657718290497 .22479 18 39 1384 0 43 32 44 41 ?1 29 42 1381 0 44 45 41 .62974
6397594355 .697598390706955 .22479 18 44 1379 0 46 39 47 42 ?1 29 45 1378 0 47 4
8 42 .595847184529138 .726766931477141 .18161 18 47 1376 0 49 44 50 45 ?1 29 48
 1375 0 50 51 45 .595847184529138 .726766931477141 0 18 50 1373 0 52 47 53 48 ?1
 29 51 1372 0 53 54 48 .927322217554237 .152635332837098 0 18 53 1370 0 55 50 56
 51 ?1 29 54 1363 0 56 57 51 .937830565795349 .1748393086807915 .18161 18 56 136
1 0 58 53 59 54 ?1 29 57 1360 0 59 60 54 .937830565795349 .1748393086807915 0 18
 59 1358 0 61 56 62 57 ?1 29 60 1352 0 62 63 57 1.12661999126949 .28383693429844
1 .18161 18 62 1350 0 64 59 65 60 ?1 29 63 1349 0 65 66 60 .809119991269489 .833
76306570156 .18161 18 65 1347 0 26 62 67 63 ?1 29 66 1340 0 67 68 63 1.115824991
26949 .302534422766147 .2032 18 67 1338 0 69 65 70 66 ?1 29 68 1336 0 70 71 66 .
819914991269489 .815065577233854 .2032 18 70 1334 0 72 67 73 68 ?1 29 71 1332 0
 73 74 68 .940123544566118 .201093145214949 .2032 18 73 1330 0 75 70 76 71 ?1 29
 74 1329 0 76 77 71 .644213544566117 .713624299682655 .2032 18 76 1327 0 78 73 7
9 74 ?1 29 77 1115 0 79 80 74 .29591 -.914717444897606 .2032 18 79 1113 0 81 76
 82 77 ?1 29 80 1111 0 82 83 77 -.29591 -.914717444897606 .2032 18 82 1109 0 84
 79 85 80 ?1 29 83 1107 0 85 86 80 .29591 -1.1176 .2032 18 85 1105 0 87 82 88 83
 ?1 29 86 1104 0 88 89 83 -.29591 -1.1176 .2032 18 88 1102 0 90 85 91 86 ?1 29 8
9 1095 0 91 92 86 -.3175 -.899604748764703 .18161 18 91 1093 0 93 88 94 89 ?1 29
 92 1092 0 94 95 89 -.3175 -1.1176 .18161 18 94 1090 0 96 91 97 92 ?1 29 95 1089
 0 97 98 92 -.3175 -.899604748764703 0 18 97 1087 0 99 94 100 95 ?1 29 98 1080 0
 100 101 95 .3175 -.899604748764703 .18161 18 100 1078 0 102 97 103 98 ?1 29 101
 1077 0 103 104 98 .3175 -1.1176 .18161 18 103 1075 0 105 100 106 101 ?1 29 104
 1074 0 106 107 101 .3175 -.899604748764703 0 18 106 1072 0 108 103 109 104 ?1 2
9 107 1062 0 109 110 104 -.331475033025099 -.879402264314241 .18161 18 109 1060
 0 111 106 112 107 ?1 29 110 1058 0 112 113 107 -.289264729194187 -.894175573611
927 .22479 18 112 1056 0 114 109 115 110 ?1 29 113 1053 0 115 116 110 .289264729
1941885 -.894175573611926 .22479 18 115 1051 0 117 112 118 113 ?1 29 116 1050 0
 118 119 113 .3314750330251 -.879402264314241 .18161 18 118 1048 0 120 115 121 1
16 ?1 29 119 1047 0 121 122 116 .3314750330250995 -.879402264314239 0 18 121 104
5 0 123 118 124 119 ?1 29 122 1044 0 124 125 119 -.331475033025098 -.87940226431
424 0 18 124 1042 0 126 121 127 122 ?1 29 125 801 0 127 128 122 -.94012354456611
8 .201093145214948 .2032 18 127 799 0 129 124 130 125 ?1 29 128 797 0 130 131 12
5 -.644213544566117 .713624299682655 .2032 18 130 795 0 132 127 133 128 ?1 29 13
1 793 0 133 134 128 -1.11582499126949 .3025344227661465 .2032 18 133 791 0 135 1
30 136 131 ?1 29 134 790 0 136 137 131 -.819914991269489 .815065577233853 .2032
 18 136 788 0 138 133 139 134 ?1 29 137 781 0 139 140 134 -.620330565795349 .724
765440083909 .18161 18 139 779 0 141 136 142 137 ?1 29 140 778 0 142 143 137 -.8
09119991269489 .833763065701559 .18161 18 142 776 0 144 139 145 140 ?1 29 143 77
5 0 145 146 140 -.620330565795349 .724765440083909 0 18 145 773 0 147 142 148 14
3 ?1 29 146 766 0 148 149 143 -.937830565795349 .1748393086807905 .18161 18 148
 764 0 150 145 151 146 ?1 29 149 763 0 151 152 146 -1.12661999126949 .2838369342
984405 .18161 18 151 761 0 153 148 154 149 ?1 29 152 760 0 154 155 149 -.9378305
65795349 .1748393086807905 0 18 154 758 0 156 151 157 152 ?1 29 155 748 0 157 15
8 152 -.595847184529139 .726766931477141 .18161 18 157 746 0 159 154 160 155 ?1
 29 158 744 0 160 161 155 -.629746397594355 .697598390706955 .22479 18 160 742 0
 162 157 163 158 ?1 29 161 739 0 163 164 158 -.919011126788543 .196577182904969
 .22479 18 163 737 0 165 160 166 161 ?1 29 164 736 0 166 167 161 -.9273222175542
38 .152635332837097 .18161 18 166 734 0 168 163 169 164 ?1 29 167 733 0 169 170
 164 -.927322217554238 .152635332837097 0 18 169 731 0 171 166 172 167 ?1 29 170
 730 0 172 173 167 -.595847184529139 .726766931477141 0 18 172 728 0 174 169 175
 170 ?1 29 173 206 0 175 176 170 -1.12661999126949 .2838369342984405 0 18 175 17
7 0 177 172 178 173 ?1 29 176 207 0 178 179 173 -.809119991269489 .8337630657015
59 0 18 178 178 0 180 175 181 176 ?1 29 179 210 0 181 182 176 .809119991269489 .
83376306570156 0 18 181 181 0 183 178 184 179 ?1 29 182 211 0 184 185 179 1.1266
1999126949 .283836934298441 0 18 184 182 0 186 181 187 182 ?1 29 185 214 0 187 1
88 182 .3175 -1.1176 0 18 187 185 0 189 184 190 185 ?1 29 188 215 0 190 0 185 -.
3175 -1.1176 0 18 190 186 0 191 187 0 188 ?1 17 191 0 192 193 96 190 194 195 0 1
96 +15 192 262 0 197 198 0 17 193 0 192 197 191 187 199 200 0 201 +17 96 0 192 1
91 197 94 202 203 0 194 +17 194 0 204 93 196 94 191 195 0 205 -16 195 1091 0 ?19
1 206 207 208 0 0 1 17 196 0 204 194 99 190 209 210 0 199 +15 204 264 0 93 211 0
 17 99 0 204 196 93 97 212 213 0 209 +17 209 0 33 126 199 97 196 210 0 214 -16 2
10 1088 0 ?196 200 215 216 0 0 1 17 199 0 33 209 201 190 193 200 0 0 -15 33 142
 0 217 218 219 17 201 0 33 199 108 187 220 221 0 0 -16 200 169 0 ?193 221 210 22
2 0 0 1 16 221 167 0 ?220 223 200 224 0 0 1 31 222 203 0 200 216 224 0 +11102230
24625156e-30 -1.1176 0 0 0 1 -1 0 0 .3175 30 216 204 0 210 225 222 0 +-.3175 -.8
84543831587786 0 190550292178745e-29 -1 0 30 224 202 0 221 222 226 0 +.3175 -1.1
176 0 0 1 0 31 226 201 0 223 224 227 0 +-888178419700125e-30 -2220446049250315e-
31 0 0 0 1 -1 0 0 .9398 16 223 1046 0 ?228 229 221 226 0 0 1 30 227 200 0 229 22
6 230 0 +.924787428915846 .167308850092333 0 .866025403784438 .5 0 16 229 1359 0
 ?186 231 223 227 0 0 1 31 230 199 0 231 227 232 0 +.967869991269489 .5588 0 0 0
 1 -1 0 0 .3175 16 231 161 0 ?233 234 229 230 0 0 1 30 232 198 0 234 230 235 0 +
.809119991269489 .833763065701559 0 -.866025403784439 -.5 0 16 234 159 0 ?27 236
 231 232 0 0 1 31 235 197 0 236 232 237 0 +0 -1332267629550188e-30 0 0 0 1 1 0 0
 .9398 16 236 1374 0 ?174 238 234 235 0 0 1 30 237 196 0 238 235 239 0 +-.607287
428915846 .717234981495452 0 -.86602540378444 .5 0 16 238 774 0 ?240 241 236 237
 0 0 1 31 239 195 0 241 237 242 0 +-.967869991269489 .5588 0 0 0 1 1 0 0 .3175 1
6 241 153 0 ?243 244 238 239 0 0 1 30 242 194 0 245 239 246 0 +-1.12661999126949
 .28383693429844 0 .866025403784439 -.5 0 16 245 175 0 ?247 215 248 242 0 0 1 31
 246 193 0 244 242 249 0 +-177635683940025e-29 4440892098500625e-31 0 0 0 -1 -1
 0 0 .6223 16 244 151 0 ?250 251 241 246 0 0 1 31 249 192 0 251 246 252 0 +66613
3814775094e-30 -1.1176 0 0 0 -1 -1 0 0 .1524 16 251 149 0 ?253 254 244 249 0 0 1
 31 252 191 0 254 249 255 0 +-.967869991269489 .5588 0 0 0 -1 -1 0 0 .1524 16 25
4 147 0 ?256 257 251 252 0 0 1 31 255 190 0 257 252 258 0 +.967869991269489 .558
8 0 0 0 -1 -1 0 0 .1524 16 257 145 0 ?259 260 254 255 0 0 1 31 258 87 0 260 255
 261 0 +666133814775094e-30 -1.1176 .2032 0 0 -1 -1 0 0 .1524 16 260 83 0 ?262 2
63 257 258 0 0 1 31 261 101 0 263 258 264 0 +-.967869991269489 .5588 .2032 0 0 -
1 -1 0 0 .1524 16 263 97 0 ?265 266 260 261 0 0 1 31 264 117 0 266 261 267 0 +.9
67869991269489 .5588 .2032 0 0 -1 -1 0 0 .1524 16 266 113 0 ?268 269 263 264 0 0
 1 30 267 270 0 269 264 270 0 +-1.12661999126949 .2838369342984405 .2032 0 0 -1
 16 269 762 0 ?177 271 266 267 0 0 1 30 270 271 0 271 267 272 0 +-.8091199912694
89 .833763065701559 .2032 0 0 -1 16 271 777 0 ?180 273 269 270 0 0 1 30 272 274
 0 273 270 274 0 +.809119991269489 .83376306570156 .2032 0 0 -1 16 273 1348 0 ?1
83 275 271 272 0 0 1 30 274 275 0 275 272 276 0 +1.12661999126949 .2838369342984
41 .2032 0 0 -1 16 275 1351 0 ?277 207 273 274 0 0 1 30 276 278 0 207 274 208 0
 +.3175 -1.1176 .2032 0 0 -1 16 207 1076 0 ?189 195 275 276 0 0 1 30 208 279 0 1
95 276 278 0 +-.3175 -1.1176 .2032 0 0 -1 38 278 740 0 206 208 279 0 +280 16 281
 282 283 16 206 738 0 ?284 285 195 278 0 0 1 31 279 745 0 285 278 286 0 +0 -1332
267629550188e-30 .22479 0 0 1 1 0 0 .9398 59 280 741 0 1 287 288 289 +0 290 51 1
6 288 0 291 292 293 294 -0 -1332267629550188e-30 .2032 0 0 -1 .9398 -1 0 0 40 6
 281 0 1 6 .00244378432521401 .340016089873782 ??-.927322217554238 .152635332837
097 .18161 -.926931676272932 .1549893787388485 .195471175072302 -.92578374774413
7 .161704954818402 .207763993812689 -.923897912889967 .172153090467657 .21741365
4012255 -.921297865665348 .185564766915697 .2233848743190635 -.919011126788543 .
196577182904969 .22479 41 1 282 L-.927322217554238 .152635332837097 .18161 41 1
 283 L-.919011126788543 .196577182904969 .22479 14 291 611 0 ?295 296 297 3 16 -
0 0 295 296 20 50 292 287 0 298 299 16 0 +-.607287428915846 .717234981495452 .20
32 -.5 -.866025403784439 0 .86602540378444 -.5 0 50 293 289 0 300 16 301 0 +.809
119991269489 .833763065701559 .2032 .5 -.866025403784439 0 .866025403784439 .5 0
 141 294 5 302 303 16 141 302 14 304 294 16 141 303 290 294 305 16 56 290 899 0
 306 307 308 309 +R308 16 310 .02159 -.02159 1 1 0 0 0 0 141 305 311 303 312 16
 56 311 893 0 313 314 315 316 +R315 16 317 .02159 -.02159 1 1 0 0 0 0 141 312 27
8 305 318 16 141 318 286 312 319 16 38 286 749 0 320 279 321 0 +288 16 322 323 3
24 141 319 325 318 326 16 56 325 1213 0 327 328 329 330 +R329 16 331 .02159 -.02
159 1 1 0 0 0 0 141 326 332 319 333 16 56 332 1207 0 334 335 336 337 +R336 16 33
8 .02159 -.02159 1 1 0 0 0 0 141 333 339 326 340 16 38 339 1054 0 341 342 343 0
 +344 16 345 346 347 141 340 348 333 349 16 38 348 1063 0 350 343 351 0 +352 16
 353 354 355 141 349 356 340 357 16 56 356 1496 0 358 359 360 361 +R360 16 362 .
02159 -.02159 1 1 0 0 0 0 141 357 363 349 364 16 56 363 1491 0 365 366 367 368 +
R367 16 369 .02159 -.02159 1 1 0 0 0 0 141 364 370 357 304 16 38 370 1382 0 371
 372 373 0 +374 16 375 376 377 141 304 378 364 302 16 38 378 1393 0 379 380 381
 0 +382 16 383 384 385 16 379 1391 0 ?386 387 388 378 0 0 1 30 380 1389 0 388 37
3 378 0 +.595847184529138 .726766931477141 .2032 0 0 -1 30 381 1397 0 387 378 38
9 0 -.927322217554238 .152635332837098 .2032 0 0 -1 59 382 1394 0 1 374 12 390 +
0 363 40 6 383 0 1 6 .002665660219330295 .351553673457958 ??.919011126788543 .19
657718290497 .22479 .922056606679876 .1817571293732215 .222215432315008 .9245588
14832269 .168567606365969 .2147745717376655 .9263101453144 .158661761894974 .203
323500956255 .927196294351321 .1533984085353575 .1895721296772605 .9273222175542
38 .152635332837098 .18161 41 1 384 L.919011126788543 .19657718290497 .22479 41
 1 385 L.927322217554238 .152635332837098 .18161 59 374 1383 0 1 352 382 391 +0
 356 59 12 1828 0 1 382 4 392 +1 14 141 390 378 390 390 382 141 392 15 392 392 1
2 56 14 1852 0 393 0 394 395 +R396 16 397 -.02159 -.02159 1 1 0 0 0 0 14 393 184
3 0 ?0 398 399 3 14 -0 0 0 398 20 51 394 1851 0 1 14 400 401 --.0176374072165847
 1.028504075896686 .7112 0 -1 1608142872339125e-31 .65659 -1 0 0 141 395 12 402
 402 14 51 396 635 0 403 404 405 406 --.0176374072165847 1.028504075896686 .7112
 0 -1 1608142872339125e-31 .635 -1 0 0 38 397 1853 0 1 0 407 408 +394 400 409 41
0 410 31 407 1813 0 411 397 412 0 +-.0176374072165847 -.774895924103316 .7112 0
 -1 3591067330652175e-30 1 0 0 .1778 141 408 14 408 408 397 51 400 1850 0 1 394
 413 414 -0 -1332267629550188e-30 .2032 0 0 -1 .96139 -1 0 0 40 22 409 0 1 22 .0
500402147734329 .386840472867052 ??-.674197985729426 .685366914972109 .717415693
274583 -.655241432079863 .703512187375549 .554446896113195 -.579830494902453 .76
6855481353023 .372010730921172 -.4541348718256 .847367836474778 .220710049552591
 -.246043471587435 .929372552956672 .0956180819268495 -.0625937469464808 .959350
173264799 .0561508754161333 .127139772539461 .952946068955958 .0707704595180781
 .295232721664128 .914936266719596 .1339455408971134 .4479921504490735 .85063139
2105896 .248275013497777 .575086081079209 .770419841027577 .428730011288871 .630
444489429673 .725817110467753 .605842117810821 .633234873986063 .723383941256547
 .797662140050208 .574415008337843 .77092031384329 .995073854618857 .46336969038
2087 .84235340691138 1.158125721076446 .2780322050057425 .920309092142224 1.2974
50721541814 .0953144868127241 .956653479951663 1.35800159070243 -.10113983924069
58 .956055157937222 1.362458606043758 -.2746821016704515 .921314536475955 1.3153
84121897554 -.432822320046727 .858449515911896 1.2198569730754 -.572683639073417
 .772207343682789 1.061962182399316 -.65232372548479 .7062184430257 .87937760107
443 -.674197985729426 .685366914972109 .717415693274583 41 1 410 H-.674197985729
426 .685366914972109 .717415693274583 50 413 1809 0 398 400 415 0 +-.01763740721
65847 -.774895924103316 .7112 0 -1 3591067330652175e-30 1 0 0 141 414 397 414 41
4 400 14 398 1800 0 ?393 416 417 3 413 -0 0 393 416 20 51 415 1808 0 416 413 418
 419 --.0176374072165847 -.774895924103316 .7112 0 1 -3591067330652175e-30 .1778
 -1 0 0 14 416 1784 0 ?398 420 421 3 415 +420 420 398 420 20 54 418 1752 0 422 4
15 423 0 +-177635683940025e-29 4440892098500625e-31 1.3843 0 0 1 .6604 .0381 1 0
 0 141 419 412 424 424 415 38 412 1812 0 425 407 426 0 +427 415 428 429 429 141
 424 426 419 419 415 38 426 1811 0 430 412 431 0 +427 415 432 433 433 16 430 177
7 0 ?434 435 425 426 0 0 1 31 431 1686 0 435 426 436 0 +-.4355812670829575 1.028
504075896686 .9525 365349811989104e-29 -1 -3335006769182585e-30 -.51911462862019
4 888178419700125e-30 -.854704628718318 .0635 51 427 285 0 10 437 299 438 +-1776
35683940025e-29 4440892098500625e-31 .2032 0 0 -1 .6223 -1 0 0 40 20 432 0 1 20
 .0106686699869433 .349496593791048 ??-.1954374072165845 -.590814276960585 .7112
 -.1860057625321955 -.593851114594237 .768339626602883 -.15902883186135 -.601637
033963847 .819002156921488 -.1160350904240652 -.61138625090059 .859290296574091
 -.0604174140825283 -.619360174757451 .883776681543458 -.000875172401359968 -.62
2299384599782 .888208100051951 .0549037059681558 -.619873271783001 .873528761770
429 .103015891875095 -.613714115872511 .841797172321208 .1392918198135006 -.6065
10576109801 .794782639966329 .158206529875725 -.601853789474388 .737501136627077
 .157148695744813 -.6021308640368 .678601561209663 .1375630859069794 -.606905006
896259 .624449513348907 .1009780863421394 -.614052698128327 .578749236741276 .04
9994956412133 -.620288476705273 .546765504257802 -.00829887912738264 -.622244661
371417 .533645411512051 -.0657297865872839 -.61881894375915 .540027680256232 -.1
1764971208593 -.611077601656367 .56419531002475 -.160251646337614 -.601312481033
019 .605020817483234 -.1876784070317085 -.593324620704417 .659249077179779 -.195
4374072165845 -.590814276960585 .7112 41 1 433 H-.1954374072165845 -.59081427696
0585 .7112 14 10 1774 0 ?439 0 440 3 427 -0 0 439 0 20 51 437 284 0 441 442 427
 0 +666133814775094e-30 -1.1176 .2032 0 0 -1 .1524 -1 0 0 51 299 286 0 443 427 2
92 0 --.967869991269489 .5588 .2032 0 0 -1 .3175 -1 0 0 141 438 412 444 444 427
 141 444 426 438 438 427 14 443 247 0 ?445 298 446 3 299 -0 0 445 298 20 14 445
 235 0 ?447 443 448 3 442 -0 0 447 443 20 14 298 249 0 ?443 300 449 3 292 -0 0 4
43 300 20 15 446 246 0 450 443 0 13 20 3 0 0 0 0 0 0 7 10 17 450 0 446 144 243 1
51 177 269 0 451 -17 144 0 446 180 450 142 451 452 0 453 +17 243 0 446 450 180 1
75 454 241 0 217 +17 177 0 455 247 153 175 450 269 0 243 +17 451 0 456 457 458 1
51 144 452 0 459 -15 456 835 0 458 460 0 17 457 0 456 461 451 133 459 462 0 463
 -17 458 0 456 451 461 142 464 465 0 0 +16 452 808 0 ?144 466 467 468 0 0 1 17 4
59 0 469 470 463 151 457 462 0 0 +15 469 839 0 459 471 0 17 470 0 469 472 459 14
8 153 473 0 474 -17 463 0 469 459 472 133 129 475 0 0 -16 462 860 0 ?459 476 477
 478 0 0 1 16 476 857 0 ?479 480 462 481 0 0 1 16 477 863 0 ?132 462 482 483 0 0
 1 31 478 906 0 462 483 481 0 +-1.11582499126949 .3025344227661465 .18161 .86602
5403784436 -.5 0 .5 .866025403784436 0 .02159 31 483 907 0 477 310 478 0 --.6442
13544566117 .713624299682655 .22479 -.74228388030108 -.670085547557304 0 .670085
547557304 -.74228388030108 0 .02159 31 481 905 0 476 478 484 0 +-.60953556579534
9 .743462928551616 .18161 0 0 -1 -1 0 0 .02159 38 484 904 0 480 481 317 0 +314 3
15 485 486 487 16 480 856 0 ?488 465 476 484 0 0 1 38 317 903 0 1 484 489 490 +4
91 492 493 494 495 59 314 894 0 1 496 311 497 +1 311 51 315 892 0 498 311 491 49
9 +.147955 .256265577233854 .18161 .86602540378444 -.5 0 .02159 .5 .866025403784
439 0 40 6 485 0 1 6 .00177321859341937 .3542111709428355 ??-.620330565795349 .7
24765440083909 .18161 -.621352029051153 .724330359702292 .1877366235979785 -.624
15299079366 .723119356267913 .193140283404665 -.628582127771623 .721149483440964
 .197756255334238 -.63501960958895 .718161881482379 .2014449364691825 -.64421354
4566118 .713624299682655 .2032 41 1 486 L-.620330565795349 .724765440083909 .181
61 41 1 487 L-.644213544566118 .713624299682655 .2032 14 498 830 0 ?500 501 502
 3 315 +0 0 500 501 20 51 491 891 0 1 315 492 503 -0 -1332267629550188e-30 .2032
 0 0 -1 .96139 -1 0 0 141 499 311 504 504 315 141 504 484 499 499 315 51 492 890
 0 1 491 505 506 +.147955 .256265577233854 .18161 .86602540378444 -.5 0 .04318 .
5 .866025403784439 0 141 503 317 503 503 491 54 505 889 0 460 492 507 0 +-.96786
9991269489 .5588 .18161 0 0 1 .29591 .02159 1 0 0 141 506 317 506 506 492 14 460
 834 0 ?313 500 456 3 505 +0 0 313 500 20 51 507 888 0 500 505 508 0 +-.60953556
5795349 .743462928551615 .2032 0 0 -1 .02159 -1 0 0 14 500 832 0 ?460 498 509 3
 507 -0 0 460 498 20 50 508 664 0 439 507 510 0 +-.01763740721658475 .9015040758
96686 .7112 0 -1 425720114542727e-29 1 0 0 14 439 1764 0 ?296 10 511 3 508 -0 0
 296 10 20 51 510 663 0 501 508 404 0 --.01763740721658475 .901504075896686 .711
2 0 1 -425720114542727e-29 .3175 -1 0 0 14 501 651 0 ?498 403 512 3 510 +0 0 498
 403 20 50 404 636 0 296 510 396 0 +-.0176374072165847 1.028504075896686 .7112 0
 1 -1608142872339125e-31 1 0 0 14 296 1663 0 ?291 439 513 3 404 +0 0 291 439 20
 15 513 1632 0 514 296 515 17 514 0 513 514 514 0 516 517 0 0 +15 515 641 0 518
 296 519 17 518 0 515 518 518 0 520 521 0 0 +15 519 629 0 522 296 523 17 522 0 5
19 522 522 0 524 248 0 0 +15 523 1604 0 525 296 526 17 525 0 523 525 525 0 527 5
28 0 0 +15 526 1660 0 529 296 0 17 529 0 526 529 529 0 530 435 0 0 +17 530 0 531
 530 530 0 529 435 0 0 -16 435 1666 0 ?529 532 430 431 0 0 1 16 532 1668 0 ?533
 517 435 436 0 0 1 17 533 0 534 533 533 0 535 532 0 0 +16 517 1638 0 ?514 536 53
2 537 0 0 1 31 436 1685 0 532 431 537 0 +-.4355812670829565 .825304075896686 .95
25 365349811989104e-29 -1 -3335006769182585e-30 -.519114628620194 88817841970012
5e-30 -.854704628718318 .0635 31 537 1658 0 517 436 538 0 +.4003064526497865 1.0
28504075896686 .9525 -3230097885304065e-30 -1 -175973434653849e-29 -.48063860689
211 2220446049250315e-31 .876918770220373 .0635 31 538 1657 0 536 537 539 0 +.40
03064526497855 .825304075896686 .9525 -3230097885304065e-30 -1 -175973434653849e
-29 -.48063860689211 2220446049250315e-31 .876918770220373 .0635 16 536 1640 0 ?
540 528 517 538 0 0 1 31 539 1630 0 528 538 541 0 +-.01763740721658435 1.0285040
75896686 .2286 796695734462223e-31 -1 3684492244914875e-30 .999753235512308 -346
9446951953615e-33 -.02221414150203185 .0635 16 528 1610 0 ?525 542 536 539 0 0 1
 31 541 1629 0 542 539 543 0 +-.01763740721658435 .825304075896686 .2286 7966957
34462223e-31 -1 3684492244914875e-30 .999753235512308 -3469446951953615e-33 -.02
221414150203185 .0635 16 542 1612 0 ?544 545 528 541 0 0 1 31 543 1508 0 545 541
 546 0 +.819914991269489 .815065577233853 .18161 .866025403784439 .5 18822132046
28085e-30 -.5 .866025403784439 0 .02159 16 545 1468 0 ?72 547 542 543 0 0 1 31 5
46 1507 0 547 543 548 0 +1.11582499126949 .302534422766147 .18161 .8660254037844
4 .5 0 -.5 .86602540378444 0 .02159 16 547 1466 0 ?64 549 545 546 0 0 1 38 548 1
506 0 549 546 362 0 -359 360 550 551 552 16 549 1463 0 ?553 554 547 548 0 0 1 38
 362 1505 0 1 548 555 556 +557 558 559 560 561 59 359 1497 0 1 562 356 563 +1 35
6 51 360 1495 0 564 356 557 565 +-.147955 .256265577233855 .18161 .8660254037844
39 .5 0 .02159 -.5 .866025403784439 0 40 6 550 0 1 6 .002015037352269535 .394842
022290008 ??.644213544566117 .713624299682655 .2032 .634528586795086 .7183951106
04745 .201246527906282 .626522825706322 .722073850586732 .1959239527453055 .6224
43396687571 .723861652198237 .1903295635473015 .620423895012436 .724725831542889
 .183478042473479 .620330565795348 .72476544008391 .18161 41 1 551 L.64421354456
6117 .713624299682655 .2032 41 1 552 L.620330565795348 .72476544008391 .18161 14
 564 1439 0 ?566 567 568 3 360 +0 0 566 567 20 51 557 1494 0 1 360 558 569 -0 -1
332267629550188e-30 .2032 0 0 -1 .96139 -1 0 0 141 565 356 570 570 360 141 570 5
48 565 565 360 51 558 1493 0 1 557 366 571 +-.147955 .256265577233855 .18161 .86
6025403784439 .5 0 .04318 -.5 .866025403784439 0 141 569 362 569 569 557 59 366
 1492 0 1 558 363 572 +1 363 141 571 362 571 571 558 141 572 555 572 572 366 38
 555 1504 0 554 362 369 0 -366 367 573 574 575 16 554 1460 0 ?576 577 549 555 0
 0 1 38 369 1503 0 1 555 578 579 +580 581 582 583 584 51 367 1490 0 567 363 580
 585 +.1479550000000022 -.256265577233854 .18161 -.866025403784438 -.5 0 .02159
 .5 -.866025403784438 0 40 6 573 0 1 6 .001773218593419455 .354211170942833 ??.9
37830565795349 .1748393086807915 .18161 .937964506760082 .175941462000159 .18773
66235979785 .938316227893093 .1789726677413875 .193140283404665 .938824836471712
 .1837933492946195 .197756255334238 .939456238187845 .190862173064117 .201444936
4691825 .940123544566118 .201093145214949 .2032 41 1 574 L.937830565795349 .1748
393086807915 .18161 41 1 575 L.940123544566118 .201093145214949 .2032 14 567 143
7 0 ?564 358 586 3 367 +0 0 564 358 20 51 580 1489 0 1 367 581 587 -0 -133226762
9550188e-30 .2032 0 0 -1 .96139 -1 0 0 141 585 363 588 588 367 141 588 555 585 5
85 367 51 581 1488 0 1 580 589 590 +.1479550000000022 -.256265577233854 .18161 -
.866025403784438 -.5 0 .04318 .5 -.866025403784438 0 141 587 369 587 587 580 51
 589 1487 0 591 581 592 0 +.609535565795348 .743462928551616 .2032 0 0 -1 .02159
 -1 0 0 141 590 369 590 590 581 14 591 1431 0 ?365 593 594 3 589 -0 0 365 593 20
 54 592 1486 0 593 589 595 0 +0 -1332267629550188e-30 .22479 0 0 1 .96139 .02159
 1 0 0 14 593 1429 0 ?591 596 597 3 592 -0 0 591 596 20 51 595 1485 0 596 592 59
8 0 +.948625565795349 .1561418202130855 .2032 0 0 -1 .02159 -1 0 0 14 596 1427 0
 ?593 599 600 3 595 -0 0 593 599 20 51 598 1215 0 599 595 328 0 +.33909 -.899604
748764703 .2032 0 0 -1 .02159 -1 0 0 14 599 1158 0 ?596 327 601 3 598 -0 0 596 3
27 20 59 328 1214 0 1 598 325 602 +1 325 141 602 603 602 602 328 38 603 1223 0 6
04 605 331 0 +328 329 606 607 608 16 604 1179 0 ?609 610 611 603 0 0 1 31 605 12
24 0 611 612 603 0 +.29591 -.914717444897606 .22479 -.95145304704397 -.307793923
381772 0 .307793923381772 -.951453047043971 0 .02159 38 331 1222 0 1 603 613 614
 +615 616 617 618 619 51 329 1212 0 620 325 615 621 +.29591 0 .18161 0 -1 0 .021
59 0 0 -1 40 6 606 0 1 6 .002015037352269415 .394842022290003 ??.29591 -.9147174
44897606 .2032 .304884122340698 -.908715430894358 .201246527906282 .312072885163
398 -.903621608405853 .1959239527453055 .315660881285264 -.900982620048432 .1903
29563547302 .3174190333887255 -.899665769967106 .183478042473479 .3175 -.8996047
48764703 .18161 41 1 607 L.29591 -.914717444897606 .2032 41 1 608 L.3175 -.89960
4748764703 .18161 14 620 1152 0 ?622 334 623 3 329 +0 0 622 334 20 51 615 1211 0
 1 329 616 624 -0 -1332267629550188e-30 .2032 0 0 -1 .96139 -1 0 0 141 621 325 6
25 625 329 141 625 603 621 621 329 51 616 1210 0 1 615 626 627 +.29591 0 .18161
 0 -1 0 .04318 0 0 -1 141 624 331 624 624 615 54 626 1209 0 622 616 335 0 +0 -13
32267629550188e-30 .22479 0 0 1 .96139 .02159 1 0 0 141 627 331 627 627 616 14 6
22 1154 0 ?327 620 628 3 626 -0 0 327 620 20 59 335 1208 0 1 626 332 629 +1 332
 141 629 630 629 629 335 38 630 1218 0 631 632 338 0 +335 336 633 634 635 16 631
 1170 0 ?636 637 638 630 0 0 1 31 632 1219 0 638 639 630 0 +-.33909 -.8996047487
64703 .18161 0 0 -1 -1 0 0 .02159 38 338 1217 0 1 630 640 641 +642 643 644 645 6
46 51 336 1206 0 647 332 642 648 +-.29591 -563857369586129e-30 .18161 -190550292
178745e-29 1 0 .02159 -1 -190550292178745e-29 0 40 6 633 0 1 6 .0017732185934194
65 .354211170942835 ??-.3175 -.899604748764703 .18161 -.3166124777089285 -.90027
1821702453 .1877366235979785 -.3141632370994325 -.902092024009302 .1931402834046
65 -.3102427087000885 -.904942832735585 .197756255334238 -.3044366285988945 -.90
9024054546498 .2014449364691825 -.29591 -.914717444897606 .2032 41 1 634 L-.3175
 -.899604748764703 .18161 41 1 635 L-.29591 -.914717444897606 .2032 14 647 1144
 0 ?649 650 651 3 336 +0 0 649 650 20 51 642 1205 0 1 336 643 652 -0 -1332267629
550188e-30 .2032 0 0 -1 .96139 -1 0 0 141 648 332 653 653 336 141 653 630 648 64
8 336 51 643 1204 0 1 642 654 655 +-.29591 -563857369586129e-30 .18161 -19055029
2178745e-29 1 0 .04318 -1 -190550292178745e-29 0 141 652 338 652 652 642 54 654
 1203 0 656 643 657 0 +1110223024625156e-30 -1.1176 .18161 0 0 1 .29591 .02159 1
 0 0 141 655 338 655 655 643 14 656 1148 0 ?334 649 658 3 654 +0 0 334 649 20 51
 657 1202 0 649 654 659 0 +-.33909 -.899604748764703 .2032 0 0 -1 .02159 -1 0 0
 14 649 1146 0 ?656 647 660 3 657 -0 0 656 647 20 51 659 901 0 650 657 307 0 +-.
948625565795349 .1561418202130845 .2032 0 0 -1 .02159 -1 0 0 14 650 844 0 ?647 3
06 661 3 659 -0 0 647 306 20 59 307 900 0 1 659 290 662 +1 290 141 662 663 662 6
62 307 38 663 909 0 482 664 310 0 +307 308 665 666 667 16 482 865 0 ?474 477 668
 663 0 0 1 31 664 910 0 668 669 663 0 +-.940123544566118 .201093145214948 .22479
 .2091691667428925 .977879470939074 -181526869043952e-30 -.977879470939074 .2091
691667428925 0 .02159 38 310 908 0 1 663 483 670 +671 672 673 674 675 51 308 898
 0 471 290 671 676 +-.147955 -.2562655772338545 .18161 -.866025403784439 .5 0 .0
2159 -.5 -.866025403784439 0 40 6 665 0 1 6 .002015037352269335 .394842022289995
 ??-.940123544566118 .201093145214948 .2032 -.939412709135784 .190320320289611 .
201246527906282 -.93859571086972 .181547757819119 .1959239527453055 -.9381042779
72836 .1771209678501925 .190329563547302 -.937842928401162 .1749399384242145 .18
3478042473479 -.937830565795349 .174839308680791 .18161 41 1 666 L-.940123544566
118 .201093145214948 .2032 41 1 667 L-.937830565795349 .174839308680791 .18161 1
4 471 838 0 ?677 313 469 3 308 +0 0 677 313 20 51 671 897 0 1 308 672 678 -0 -13
32267629550188e-30 .2032 0 0 -1 .96139 -1 0 0 141 676 290 679 679 308 141 679 66
3 676 676 308 51 672 896 0 1 671 496 680 +-.147955 -.2562655772338545 .18161 -.8
66025403784439 .5 0 .04318 -.5 -.866025403784439 0 141 678 310 678 678 671 54 49
6 895 0 677 672 314 0 +0 -1332267629550188e-30 .22479 0 0 1 .96139 .02159 1 0 0
 141 680 310 680 680 672 14 677 840 0 ?306 471 681 3 496 -0 0 306 471 20 14 306
 842 0 ?650 677 682 3 290 -0 0 650 677 20 15 681 841 0 132 677 0 17 132 0 681 68
3 684 130 685 477 0 488 +17 683 0 681 686 132 127 687 467 0 472 -17 684 0 681 13
2 686 160 165 285 0 0 -17 685 0 688 689 488 160 132 477 0 684 -17 488 0 688 685
 479 130 690 480 0 691 +15 688 837 0 479 313 0 17 479 0 688 488 689 139 692 476
 0 0 +17 690 0 502 693 691 139 488 480 0 479 -17 691 0 502 690 464 130 138 694 0
 687 -15 502 831 0 690 498 0 17 464 0 502 691 693 136 458 465 0 461 -17 138 0 69
5 135 687 136 691 694 0 464 +16 694 796 0 ?138 475 696 697 0 0 1 17 687 0 695 13
8 129 130 683 467 0 0 +15 695 789 0 129 698 699 17 129 0 695 687 135 127 463 475
 0 683 +16 467 803 0 ?687 452 475 700 0 0 1 16 475 800 0 ?129 467 694 701 0 0 1
 31 700 805 0 467 701 468 0 -0 -1332267629550188e-30 .2032 0 0 1 1 0 0 .96139 30
 701 802 0 475 697 700 0 +-.147955 -.2562655772338545 .2032 .866025403784439 -.5
 0 31 468 810 0 452 700 702 0 --.967869991269489 .5588 .18161 0 0 1 1 0 0 .3175
 31 702 821 0 466 468 342 0 +-.948625565795349 .1561418202130845 0 0 0 1 1 0 0 .
02159 16 466 813 0 ?156 703 452 702 0 0 1 31 342 822 0 703 702 339 0 +-.60953556
5795349 .743462928551615 0 0 0 1 1 0 0 .02159 16 703 817 0 ?704 341 466 342 0 0
 1 17 704 0 33 35 705 172 706 703 0 707 +16 341 1052 0 ?708 709 703 339 0 0 1 17
 708 0 710 711 712 115 120 341 0 0 +16 709 1057 0 ?117 350 341 343 0 0 1 17 117
 0 713 120 114 115 714 709 0 715 +16 350 1061 0 ?716 717 709 348 0 0 1 31 343 10
59 0 709 339 348 0 +0 -1332267629550188e-30 .22479 0 0 1 1 0 0 .9398 17 716 0 71
8 719 720 109 114 350 0 0 +16 717 1065 0 ?111 721 350 351 0 0 1 17 111 0 713 114
 722 109 723 717 0 724 +16 721 1067 0 ?725 726 717 727 0 0 1 30 351 1066 0 717 3
48 727 0 --.3314750330250985 -.879402264314241 .2032 0 0 -1 30 727 1069 0 721 35
1 728 0 +.3314750330251 -.879402264314241 .2032 0 0 -1 30 728 1081 0 726 727 729
 0 -.3175 0 .18161 0 1 0 16 726 1079 0 ?105 730 721 728 0 0 1 30 729 1084 0 730
 728 731 0 +.3175 -.899604748764703 .2032 0 0 1 16 730 1082 0 ?102 732 726 729 0
 0 1 30 731 1096 0 732 729 733 0 --.3175 -60499717766752e-29 .18161 190550292178
745e-29 -1 0 16 732 1094 0 ?93 213 730 731 0 0 1 30 733 1099 0 213 731 734 0 --.
3175 -.899604748764703 .2032 0 0 1 16 213 1097 0 ?99 735 732 733 0 0 1 31 734 11
08 0 735 733 736 0 +1110223024625156e-30 -1.1176 .2032 0 0 1 1 0 0 .29591 16 735
 1106 0 ?87 737 213 734 0 0 1 30 736 1112 0 737 734 738 0 +-.29591 -563857369586
129e-30 .2032 190550292178745e-29 -1 0 16 737 1110 0 ?90 739 735 736 0 0 1 30 73
8 1116 0 739 736 740 0 +.29591 0 .2032 0 1 0 16 739 1114 0 ?81 741 737 738 0 0 1
 31 740 1119 0 741 738 742 0 -0 -1332267629550188e-30 .2032 0 0 1 1 0 0 .96139 1
6 741 1117 0 ?743 203 739 740 0 0 1 31 742 1124 0 203 740 744 0 -111022302462515
6e-30 -1.1176 .18161 0 0 1 1 0 0 .3175 16 203 1122 0 ?96 745 741 742 0 0 1 31 74
4 1135 0 745 742 746 0 +.33909 -.899604748764703 0 0 0 1 1 0 0 .02159 16 745 112
7 0 ?108 747 203 744 0 0 1 31 746 1136 0 747 744 748 0 +-.33909 -.89960474876470
3 0 0 0 1 1 0 0 .02159 16 747 1131 0 ?126 749 745 746 0 0 1 31 748 1333 0 749 74
6 750 0 -0 -1332267629550188e-30 .2032 0 0 1 1 0 0 .96139 16 749 1331 0 ?75 751
 747 748 0 0 1 30 750 1337 0 751 748 752 0 +-.147955 .256265577233855 .2032 -.86
6025403784439 -.5 0 16 751 1335 0 ?78 753 749 750 0 0 1 30 752 1341 0 753 750 75
4 0 +.1479550000000022 -.256265577233854 .2032 .866025403784438 .5 0 16 753 1339
 0 ?69 755 751 752 0 0 1 31 754 1344 0 755 752 756 0 +.967869991269489 .5588 .20
32 0 0 1 1 0 0 .29591 16 755 1342 0 ?757 758 753 754 0 0 1 31 756 1355 0 758 754
 759 0 -.967869991269489 .5588 .18161 0 0 1 1 0 0 .3175 16 758 1353 0 ?760 761 7
55 756 0 0 1 30 759 1364 0 761 756 372 0 -.15875 -.27496306570156 .18161 .866025
403784438 .5 0 16 761 1362 0 ?58 762 758 759 0 0 1 30 372 1367 0 762 759 370 0 -
.937830565795349 .1748393086807915 .2032 0 0 1 16 762 1365 0 ?61 371 761 372 0 0
 1 17 61 0 763 186 58 59 764 762 0 765 +16 371 1380 0 ?766 767 762 370 0 0 1 17
 766 0 768 769 770 44 49 371 0 0 +16 767 1385 0 ?46 388 371 373 0 0 1 17 46 0 71
3 49 43 44 771 767 0 772 +16 388 1388 0 ?52 379 767 380 0 0 1 31 373 1387 0 767
 370 380 0 +0 -1332267629550188e-30 .22479 0 0 1 1 0 0 .9398 17 52 0 713 174 49
 50 773 388 0 35 +15 713 1377 0 228 291 0 17 174 0 713 159 52 172 35 236 0 704 +
17 49 0 713 52 46 47 766 371 0 773 -17 773 0 594 30 36 47 52 388 0 770 -17 35 0
 33 31 704 50 174 236 0 36 -17 36 0 594 773 28 50 31 37 0 0 -15 594 1432 0 36 59
1 0 17 28 0 594 36 30 24 23 29 0 0 -16 37 1416 0 ?31 774 775 776 0 0 1 16 774 16
91 0 ?777 778 37 779 0 0 1 16 775 1412 0 ?55 37 29 780 0 0 1 31 776 1421 0 37 78
0 779 0 +.609535565795348 .743462928551616 0 0 0 1 1 0 0 .02159 31 780 1420 0 77
5 781 776 0 +.948625565795349 .1561418202130855 0 0 0 1 1 0 0 .02159 31 779 1694
 0 774 776 782 0 +0 -1332267629550188e-30 1.4224 0 0 1 1 0 0 .91821 31 782 1700
 0 778 779 783 0 -0 -1332267629550188e-30 1.40081 0 0 1 1 0 0 .9398 16 778 1697
 0 ?784 785 774 782 0 0 1 31 783 1731 0 785 782 786 0 --177635683940025e-29 4440
892098500625e-31 1.4224 0 0 1 1 0 0 .6604 16 785 1728 0 ?787 788 778 783 0 0 1 3
1 786 1737 0 788 783 789 0 +-177635683940025e-29 4440892098500625e-31 1.3843 0 0
 1 1 0 0 .6223 16 788 1734 0 ?790 22 785 786 0 0 1 31 789 1763 0 791 786 15 0 --
.0176374072165847 .901504075896686 .7112 0 -1 425720114542727e-29 0 -42572011454
2727e-29 -1 .1778 16 791 1779 0 ?792 425 411 789 0 0 1 38 15 1827 0 22 789 5 0 +
12 396 793 794 794 16 22 1824 0 ?795 8 788 15 0 0 1 40 22 793 0 1 22 .0514572382
836531 .39231486270022 ??-.652637407216585 .685337971703015 .7112 -.627555565650
653 .709920558627237 .887905517775748 -.559423848346871 .768353021062415 1.04239
8508763822 -.433896632866978 .850601214175017 1.19073441697227 -.229262508811465
5 .931857531366411 1.309898435253472 -.0535837304077159 .959826570185313 1.34518
1751984266 .127273984608738 .952257126579031 1.32944403637985 .287579346499612 .
914052803406582 1.268037259215784 .434102833408497 .849855659054487 1.1574687026
89302 .556706701176203 .76956133437415 .982039149966348 .609170314450756 .725784
720827569 .81287143186853 .612047734377466 .723189411058868 .629214498503206 .57
3114057596287 .756561271729247 .478310097210191 .462004622472085 .83395919016325
8 .295064777558865 .2931793990861885 .912144938325566 .1574690970157575 .1179213
048152676 .953549714189502 .0908381414107849 -.0744125569927487 .958354053507555
 .0787432169959009 -.2431760874301035 .928088259706823 .1176030797523086 -.39651
64876833805 .869864185655026 .2016162067092055 -.535303255618246 .78649095073411
3 .3434404734087945 -.633566514430454 .704194485777331 .556745039293892 -.652637
407216585 .685337971703015 .7112 41 1 794 H-.652637407216585 .685337971703015 .7
112 17 795 0 796 795 795 0 797 22 0 0 +15 796 1825 0 795 403 798 17 797 0 799 79
7 797 0 795 22 0 0 -15 799 1845 0 797 393 0 14 403 619 0 ?501 218 796 3 396 -0 0
 501 218 20 15 798 621 0 524 403 0 17 524 0 798 524 524 0 522 248 0 0 -16 248 61
7 0 ?522 245 800 801 0 0 1 16 800 649 0 ?802 248 521 803 0 0 1 31 801 638 0 248
 803 225 0 +-.0176374072165847 1.028504075896686 .7112 0 1 -1608142872339125e-31
 1 0 0 .635 31 803 666 0 800 804 801 0 +-.01763740721658475 .901504075896686 .71
12 0 -1 425720114542727e-29 1 0 0 .3175 31 225 205 0 215 801 216 0 +111022302462
5156e-30 0 0 0 0 1 1 0 0 .9398 16 215 732 0 ?722 210 245 225 0 0 1 17 722 0 713
 111 805 124 806 215 0 723 +17 805 0 713 722 168 169 807 808 0 806 +17 806 0 33
 156 126 169 722 215 0 0 -17 723 0 660 214 724 124 111 717 0 0 -15 660 1147 0 21
4 649 0 17 214 0 660 212 723 97 126 747 0 0 -17 724 0 660 723 212 109 719 638 0
 716 -17 212 0 660 724 214 91 99 213 0 809 -17 719 0 718 636 716 91 724 638 0 0
 +16 638 1171 0 ?719 631 810 632 0 0 1 16 810 1174 0 ?811 638 610 639 0 0 1 17 8
11 0 623 812 813 103 814 810 0 0 +16 610 1177 0 ?84 810 604 613 0 0 1 31 639 122
0 0 810 613 632 0 +.29591 -1.1176 .18161 0 1 0 0 0 1 .02159 31 613 1221 0 610 33
1 639 0 --.29591 -.914717444897606 .22479 .951453047043971 -.30779392338177 0 .3
0779392338177 .951453047043971 0 .02159 17 84 0 628 815 714 82 720 610 0 636 +15
 628 1155 0 84 622 0 17 815 0 628 715 84 79 743 741 0 816 -17 714 0 628 84 715 1
12 117 709 0 0 -17 720 0 718 716 636 112 84 610 0 714 -17 636 0 718 720 719 82 8
09 631 0 817 +15 718 1151 0 719 334 0 17 809 0 651 205 817 91 636 631 0 719 -17
 817 0 651 809 818 82 90 737 0 743 -15 651 1145 0 809 647 0 17 818 0 651 817 205
 88 819 637 0 820 -17 90 0 821 87 743 88 817 737 0 818 +17 743 0 821 90 81 82 81
5 741 0 0 +15 821 1103 0 81 822 823 17 81 0 821 743 87 79 813 739 0 815 +17 87 0
 821 81 90 85 820 735 0 814 +17 813 0 623 811 816 85 81 739 0 0 -15 623 1153 0 8
11 620 0 17 816 0 623 813 812 79 609 604 0 711 -17 812 0 623 816 811 100 105 726
 0 609 -17 609 0 710 712 711 100 816 604 0 824 +17 711 0 710 609 708 79 715 611
 0 0 +15 710 1157 0 711 327 0 17 715 0 628 714 815 115 711 611 0 708 -16 611 118
0 0 ?711 604 825 605 0 0 1 16 825 1183 0 ?824 611 826 612 0 0 1 17 824 0 601 827
 828 100 712 825 0 0 +16 826 1453 0 ?829 825 830 831 0 0 1 31 612 1225 0 825 831
 605 0 -.33909 -.899604748764703 .18161 0 0 -1 -1 0 0 .02159 31 831 1499 0 826 8
32 612 0 +.948625565795349 .1561418202130855 .18161 0 0 -1 -1 0 0 .02159 31 832
 1500 0 830 833 831 0 +.940123544566118 .201093145214949 .22479 -.20916916674289
2 .977879470939074 0 -.977879470939075 -.209169166742892 0 .02159 16 830 1455 0
 ?834 826 835 832 0 0 1 31 833 1501 0 835 578 832 0 +.644213544566117 .713624299
682655 .22479 .74228388030108 -.670085547557304 0 .670085547557304 .742283880301
08 0 .02159 16 835 1456 0 ?769 830 577 833 0 0 1 31 578 1502 0 577 369 833 0 +.6
09535565795348 .743462928551616 .18161 0 0 -1 -1 0 0 .02159 16 577 1458 0 ?770 8
35 554 578 0 0 1 17 770 0 768 766 836 47 30 577 0 0 +15 768 1436 0 766 358 0 17
 836 0 768 770 769 9 553 549 0 837 -17 30 0 594 28 773 9 770 577 0 836 -17 769 0
 768 836 766 76 772 835 0 553 +17 553 0 568 838 837 76 836 549 0 0 +17 837 0 568
 553 839 9 26 840 0 0 -15 568 1440 0 553 564 0 17 839 0 568 837 838 65 72 545 0
 0 -17 26 0 25 183 23 65 837 840 0 841 +16 840 1404 0 ?26 29 387 389 0 0 1 16 29
 1407 0 ?23 775 840 781 0 0 1 16 387 1395 0 ?38 840 379 381 0 0 1 30 389 1406 0
 840 381 781 0 --.15875 .274963065701561 .18161 -.866025403784439 -.5 0 30 781 1
409 0 29 389 780 0 +.620330565795348 .72476544008391 .2032 0 0 1 17 38 0 713 43
 228 32 842 387 0 843 +17 43 0 713 46 38 39 386 379 0 771 -17 228 0 713 38 725 5
3 844 223 0 842 +17 842 0 600 845 843 53 38 387 0 0 -17 843 0 600 842 764 32 829
 826 0 386 -15 600 1428 0 845 596 0 17 764 0 600 843 845 56 61 762 0 829 -17 829
 0 846 847 386 56 843 826 0 576 +17 386 0 846 829 834 32 43 379 0 0 +15 846 1434
 0 386 365 0 17 834 0 846 386 847 39 848 830 0 0 +17 847 0 846 834 829 73 576 55
4 0 849 -17 848 0 597 850 771 73 834 830 0 847 -15 597 1430 0 772 593 0 17 850 0
 597 772 848 76 75 749 0 769 -17 771 0 597 848 772 39 46 767 0 834 -17 772 0 597
 771 850 44 769 835 0 766 -17 75 0 851 69 78 73 850 749 0 848 +15 851 1328 0 69
 852 853 17 69 0 851 757 75 67 849 753 0 854 +17 78 0 851 75 757 76 838 751 0 85
0 +17 757 0 851 78 69 70 855 755 0 0 +17 838 0 568 839 553 70 78 751 0 757 -17 8
55 0 856 64 72 67 757 755 0 0 -15 856 1442 0 64 566 0 17 64 0 856 857 855 62 854
 547 0 858 +17 72 0 856 855 857 70 839 545 0 838 +17 857 0 856 72 64 65 760 758
 0 839 -17 760 0 859 277 841 62 857 758 0 860 +15 859 254 0 841 861 0 17 277 0 8
59 233 760 184 860 275 0 862 +17 841 0 859 760 233 65 183 273 0 857 -17 860 0 76
3 58 186 62 277 275 0 0 -15 763 256 0 58 863 0 17 58 0 763 61 860 56 858 761 0 7
64 +17 186 0 763 860 61 184 765 229 0 277 +17 765 0 33 55 862 59 186 229 0 845 -
17 55 0 33 844 765 53 845 775 0 228 +17 862 0 33 765 34 184 233 231 0 0 -17 845
 0 600 764 842 59 55 775 0 0 -17 34 0 33 862 31 181 27 234 0 0 -17 233 0 859 841
 277 181 862 231 0 34 +17 27 0 25 23 183 24 34 234 0 28 +15 25 252 0 27 300 0 17
 183 0 25 27 26 181 841 273 0 233 +14 300 253 0 ?298 861 25 3 293 -0 0 298 861 2
0 14 861 255 0 ?300 863 859 3 301 -0 0 300 863 20 14 863 257 0 ?861 864 763 3 86
5 -0 0 861 864 20 51 301 290 0 861 293 865 0 -.967869991269489 .5588 .2032 0 0 -
1 .3175 -1 0 0 50 865 291 0 863 301 866 0 +.924787428915846 .167308850092333 .20
32 -.5 .866025403784438 0 -.866025403784438 -.5 0 50 866 293 0 864 865 867 0 +.3
175 -1.1176 .2032 -1 0 0 0 0 1 14 864 261 0 ?863 198 868 3 866 -0 0 863 198 20 5
1 867 294 0 198 866 869 0 -1110223024625156e-30 -1.1176 .2032 0 0 -1 .3175 -1 0
 0 14 198 263 0 ?864 211 192 3 867 -0 0 864 211 20 50 869 295 0 211 867 287 0 +-
.3175 -.884543831587786 .2032 1 190550292178745e-29 0 -190550292178745e-29 1 0 1
4 211 265 0 ?198 870 204 3 869 -0 0 198 870 20 50 287 297 0 870 869 280 0 +-1.12
661999126949 .28383693429844 .2032 .5 .866025403784439 0 -.866025403784439 .5 0
 14 870 269 0 ?211 852 455 3 287 -0 0 211 852 20 14 852 430 0 ?870 698 851 3 871
 +822 698 870 698 20 15 455 268 0 247 870 0 17 247 0 455 150 177 154 217 245 0 8
72 +17 150 0 455 153 247 148 872 873 0 470 +17 217 0 33 454 156 175 247 245 0 0
 -17 872 0 661 171 874 154 150 873 0 0 -15 661 845 0 874 650 0 17 171 0 661 807
 872 169 156 466 0 805 -17 874 0 661 872 807 148 875 876 0 0 +16 873 768 0 ?150
 877 473 878 0 0 1 16 877 780 0 ?141 879 873 880 0 0 1 16 473 765 0 ?153 873 808
 881 0 0 1 30 878 770 0 873 881 880 0 +-.937830565795349 .1748393086807905 .2032
 0 0 1 30 881 767 0 473 882 878 0 --.15875 -.2749630657015605 .18161 .8660254037
84439 -.5 0 30 880 782 0 877 878 883 0 -.15875 .27496306570156 .18161 -.86602540
378444 .5 0 30 883 785 0 879 880 884 0 --.620330565795349 .724765440083909 .2032
 0 0 1 16 879 783 0 ?147 696 877 883 0 0 1 31 884 794 0 696 883 697 0 +-.9678699
91269489 .5588 .2032 0 0 1 1 0 0 .29591 16 696 792 0 ?135 694 879 884 0 0 1 30 6
97 798 0 694 884 701 0 +.147955 .256265577233854 .2032 -.86602540378444 .5 0 17
 135 0 695 129 138 133 461 696 0 457 +17 461 0 456 458 457 136 135 696 0 0 -17 1
47 0 449 240 141 145 885 879 0 705 +15 449 248 0 141 298 0 17 240 0 449 453 147
 178 705 238 0 454 +17 141 0 449 147 453 139 693 877 0 885 +17 885 0 509 692 706
 139 147 879 0 690 -17 705 0 33 704 454 145 240 238 0 706 -17 454 0 33 705 217 1
78 243 241 0 0 -17 706 0 509 885 707 145 704 703 0 0 -15 509 833 0 706 500 0 17
 707 0 509 706 692 172 159 886 0 0 -17 692 0 509 707 885 157 479 476 0 689 -17 1
59 0 713 162 174 157 707 886 0 692 +16 886 751 0 ?159 808 320 321 0 0 1 16 808 7
53 0 ?805 473 886 882 0 0 1 16 320 747 0 ?689 886 285 286 0 0 1 30 321 752 0 886
 286 882 0 --.595847184529139 .726766931477141 .2032 0 0 -1 30 882 755 0 808 321
 881 0 +-.927322217554238 .152635332837097 .2032 0 0 -1 17 689 0 688 479 685 157
 162 320 0 0 +16 285 743 0 ?165 320 206 279 0 0 1 17 165 0 713 168 162 163 684 2
85 0 686 +17 168 0 713 805 165 166 284 206 0 875 -17 162 0 713 165 159 160 689 3
20 0 685 -17 686 0 681 684 683 163 887 668 0 284 -17 887 0 682 474 284 127 686 6
68 0 0 +16 668 866 0 ?887 482 876 664 0 0 1 17 284 0 682 887 875 163 168 206 0 0
 +15 682 843 0 887 306 0 17 875 0 682 284 474 166 874 876 0 807 -17 474 0 682 87
5 887 148 472 482 0 874 +16 876 869 0 ?874 668 637 669 0 0 1 17 807 0 661 874 17
1 166 805 808 0 0 -16 637 1168 0 ?819 876 631 640 0 0 1 31 669 911 0 876 640 664
 0 --.948625565795349 .1561418202130845 .18161 0 0 -1 -1 0 0 .02159 31 640 1216
 0 637 338 669 0 +-.29591 -1.1176 .18161 0 -1 0 0 0 -1 .02159 17 819 0 658 202 8
20 94 818 637 0 0 +15 658 1149 0 819 656 0 17 202 0 658 814 819 103 96 203 0 811
 -17 820 0 658 819 814 88 87 735 0 0 -17 814 0 658 820 202 85 811 810 0 813 -17
 472 0 469 463 470 127 474 482 0 887 -17 453 0 449 141 240 142 180 271 0 693 -17
 693 0 502 464 690 142 141 877 0 458 -17 180 0 446 243 144 178 453 271 0 240 +17
 153 0 455 177 150 151 470 473 0 450 +17 156 0 33 217 806 154 171 466 0 247 +14
 698 434 0 ?852 822 695 3 871 +852 822 852 822 20 50 871 64 0 822 888 889 0 +111
0223024625156e-30 0 .2032 0 0 1 1 0 0 14 822 438 0 ?698 295 821 3 871 +698 852 6
98 295 20 14 295 582 0 ?822 291 890 3 405 +0 0 822 291 20 15 890 1729 0 787 295
 891 50 405 549 0 295 396 888 0 +-155431223447522e-29 1110223024625156e-30 1.422
4 0 0 1 1 0 0 50 888 189 0 218 405 871 0 +1110223024625156e-30 0 0 0 0 1 1 0 0 1
4 218 138 0 ?403 441 892 3 888 -0 0 403 441 20 14 441 239 0 ?218 447 893 3 437 -
0 0 218 447 20 15 892 140 0 894 218 895 17 894 0 892 894 894 0 256 254 0 0 -15 8
95 141 0 896 218 33 17 896 0 895 896 896 0 250 244 0 0 -17 250 0 897 250 250 0 8
96 244 0 0 +15 897 244 0 250 10 898 15 898 1773 0 899 10 0 17 899 0 898 899 899
 0 434 430 0 0 -17 434 0 900 434 434 0 899 430 0 0 +15 900 1787 0 434 416 0 17 2
56 0 901 256 256 0 894 254 0 0 +15 901 236 0 256 445 0 14 447 231 0 ?441 445 902
 3 889 -0 0 441 445 20 15 893 238 0 903 441 904 17 903 0 893 903 903 0 262 260 0
 0 -15 904 240 0 253 441 0 17 253 0 904 253 253 0 905 251 0 0 +17 905 0 219 905
 905 0 253 251 0 0 -15 219 143 0 905 218 906 15 906 144 0 907 218 0 17 907 0 906
 907 907 0 259 257 0 0 -17 259 0 908 259 259 0 907 257 0 0 +15 908 232 0 259 447
 0 17 262 0 823 262 262 0 903 260 0 0 +15 823 84 0 262 822 0 15 902 230 0 909 44
7 908 51 889 282 0 447 871 442 0 +.967869991269489 .5588 .2032 0 0 -1 .1524 -1 0
 0 51 442 283 0 445 889 437 0 +-.967869991269489 .5588 .2032 0 0 -1 .1524 -1 0 0
 17 909 0 902 909 909 0 268 266 0 0 -17 268 0 853 268 268 0 909 266 0 0 +15 853
 114 0 268 852 0 17 787 0 890 787 787 0 910 785 0 0 +15 891 1692 0 777 295 0 17
 777 0 891 777 777 0 911 774 0 0 +17 911 0 912 911 911 0 777 774 0 0 -15 912 171
0 0 911 913 0 14 913 1708 0 ?422 914 915 3 423 +0 0 422 914 20 14 422 1745 0 ?42
0 913 916 3 418 +0 0 420 913 20 14 914 1674 0 ?913 917 918 3 919 -0 0 913 917 20
 15 915 1709 0 920 913 912 54 423 1715 0 913 418 919 0 +0 -1332267629550188e-30
 1.40081 0 0 1 .91821 .02159 1 0 0 50 919 1683 0 914 423 921 0 +-.43558126708295
65 .825304075896686 .9525 365349811989104e-29 -1 -3335006769182585e-30 -.5191146
28620194 888178419700125e-30 -.854704628718318 51 921 1682 0 917 919 922 0 --.43
55812670829565 .825304075896686 .9525 -3653498119891035e-30 1 3335006769182585e-
30 .0635 .519114628620194 -888178419700125e-30 .854704628718318 14 917 1670 0 ?9
14 923 534 3 921 +0 0 914 923 20 50 922 1655 0 923 921 924 0 +.4003064526497855
 .825304075896686 .9525 -3230097885304065e-30 -1 -175973434653849e-29 -.48063860
689211 2220446049250315e-31 .876918770220373 14 923 1646 0 ?917 925 926 3 922 -0
 0 917 925 20 51 924 1654 0 925 922 927 0 -.4003064526497855 .825304075896686 .9
525 3230097885304065e-30 1 175973434653849e-29 .0635 .48063860689211 -2220446049
250315e-31 -.876918770220373 14 925 1642 0 ?923 928 929 3 924 +0 0 923 928 20 50
 927 1627 0 928 924 930 0 +-.01763740721658435 .825304075896686 .2286 7966957344
62223e-31 -1 3684492244914875e-30 .999753235512308 -3469446951953615e-33 -.02221
414150203185 14 928 1618 0 ?925 931 932 3 927 -0 0 925 931 20 51 930 1626 0 931
 927 562 0 --.01763740721658435 .825304075896686 .2286 -796695734462223e-31 1 -3
684492244914875e-30 .0635 -.999753235512308 3469446951953615e-33 .02221414150203
185 14 931 1614 0 ?928 566 933 3 930 +0 0 928 566 20 54 562 1498 0 566 930 359 0
 +.967869991269489 .5588 .18161 0 0 1 .29591 .02159 1 0 0 14 566 1441 0 ?931 564
 856 3 562 +0 0 931 564 20 15 933 1616 0 544 931 934 17 544 0 933 544 544 0 935
 542 0 0 +15 934 1617 0 527 931 0 17 527 0 934 527 527 0 525 528 0 0 -17 935 0 9
32 935 935 0 544 542 0 0 -15 932 1620 0 935 928 0 15 929 1644 0 540 925 936 17 5
40 0 929 540 540 0 937 536 0 0 +15 936 1645 0 516 925 0 17 516 0 936 516 516 0 5
14 517 0 0 -17 937 0 926 937 937 0 540 536 0 0 -15 926 1648 0 937 923 0 15 534 1
672 0 533 917 531 15 531 1673 0 530 917 0 17 920 0 915 920 920 0 784 778 0 0 -17
 784 0 938 784 784 0 920 778 0 0 +15 938 1698 0 784 291 713 15 918 1676 0 535 91
4 0 17 535 0 918 535 535 0 533 532 0 0 -14 420 1788 0 ?416 422 939 3 415 +416 41
6 416 422 20 15 916 1746 0 940 422 941 17 940 0 916 940 940 0 790 788 0 0 -15 94
1 1747 0 910 422 0 17 910 0 941 910 910 0 787 785 0 0 -17 790 0 942 790 790 0 94
0 788 0 0 +15 942 1735 0 790 10 897 15 939 1790 0 792 420 943 17 792 0 939 792 7
92 0 944 791 0 0 +15 943 1791 0 945 420 0 17 945 0 943 945 945 0 946 425 0 0 +17
 946 0 440 946 946 0 945 425 0 0 -16 425 1778 0 ?945 430 791 412 0 0 1 15 440 17
68 0 946 10 942 17 944 0 947 944 944 0 792 791 0 0 -15 947 1762 0 944 439 0 15 8
68 260 0 220 864 0 17 220 0 868 102 189 106 201 221 0 827 +17 102 0 868 105 220
 100 827 730 0 812 +17 189 0 868 220 105 187 197 207 0 193 +17 827 0 601 123 824
 106 102 730 0 0 -15 601 1159 0 824 599 0 17 123 0 601 828 827 121 108 745 0 725
 -17 828 0 601 824 123 118 725 721 0 0 -17 108 0 33 201 844 106 123 745 0 220 +1
7 725 0 713 228 120 121 828 721 0 844 +17 120 0 713 725 117 118 708 341 0 712 -1
7 844 0 33 108 55 121 228 223 0 0 -17 712 0 710 708 609 118 824 825 0 828 -17 10
5 0 868 189 102 103 812 726 0 197 +17 197 0 192 96 193 103 189 207 0 202 -17 858
 0 586 854 576 62 58 761 0 760 -15 586 1438 0 576 567 0 17 854 0 586 849 858 67
 64 547 0 855 -17 576 0 586 858 849 56 847 554 0 0 +17 849 0 586 576 854 73 69 7
53 0 0 -14 365 1433 0 ?358 591 846 3 363 -0 0 358 591 20 14 358 1435 0 ?567 365
 768 3 356 -0 0 567 365 20 14 327 1156 0 ?599 622 710 3 325 -0 0 599 622 20 17 2
05 0 651 818 809 94 93 732 0 819 -17 93 0 204 99 194 91 205 732 0 212 +14 334 11
50 0 ?620 656 718 3 332 -0 0 620 656 20 17 126 0 33 806 209 124 214 747 0 722 +3
1 804 667 0 521 489 803 0 +-.01763740721658475 1.028504075896686 .7112 0 -1 4257
20114542727e-29 1 0 0 .3175 16 521 647 0 ?518 800 465 804 0 0 1 31 489 902 0 465
 317 804 0 +-.819914991269489 .815065577233853 .18161 -.866025403784439 .5 0 -.5
 -.866025403784439 0 .02159 16 465 854 0 ?458 521 480 489 0 0 1 17 802 0 512 802
 802 0 948 800 0 0 +15 512 653 0 802 501 949 17 948 0 511 948 948 0 802 800 0 0
 -15 511 657 0 948 439 947 15 949 654 0 520 501 0 17 520 0 949 520 520 0 518 521
 0 0 -16 411 1782 0 ?950 791 0 407 0 0 1 17 950 0 421 950 950 0 951 411 0 0 +15
 421 1786 0 950 416 900 17 951 0 417 951 951 0 950 411 0 0 -15 417 1802 0 951 39
8 0 17 114 0 713 117 111 112 716 350 0 720 -15 699 98 0 265 698 0 17 265 0 699 2
65 265 0 952 263 0 0 +17 952 0 448 952 952 0 265 263 0 0 -15 448 234 0 952 445 9
01 14 313 836 0 ?471 460 688 3 311 -0 0 471 460 20 141 670 290 670 670 310 40 7
 673 0 1 7 .002823451495578345 .3590752939623855 ??-.936768056802184 .2161858918
96448 .222193195326569 -.940123544566118 .201093145214948 .22479 -.9432928182484
77 .185659341647133 .222119121016742 -.945892435957714 .171925075826605 .2143573
09889248 -.947674385438279 .161814681917874 .202498030733811 -.94852655760748 .1
56742150085118 .188599248523205 -.948527451859052 .1567367384175625 .17465212224
8876 41 1 674 L-.936768056802184 .216185891896448 .222193195326569 41 1 675 L-.9
48527451859052 .1567367384175625 .174652122248876 141 641 332 641 641 338 40 8 6
44 .0140494846047396 .999890253504124 8 .00276985753241406 .352023552728454 ??-.
3369532936678225 -.900407246742501 .168195066347653 -.33909 -.899604748764703 .1
8161 -.336881267228335 -.900434197424018 .1952433290763605 -.3305943478118435 -.
90276138004174 .2073298059259205 -.320726917008909 -.906313950464167 .2169460018
9853 -.307730352569033 -.910808850532176 .223140611181919 -.2927904668554735 -.9
15720740520034 .2246771674592165 -.2779210913437275 -.920342653084337 .220864446
440579 41 1 645 L-.3369532936678225 -.900407246742501 .168195066347653 41 1 646
 L-.2779210913437275 -.920342653084337 .220864446440579 141 614 325 614 614 331
 40 7 617 .0153389336186762 1.000547700762766 7 .0028234514955783 .3590752939623
85 ??.2808359069507545 -.919457408185475 .222073367614951 .29591 -.9147174448976
06 .22479 .3108607028079275 -.909745214634167 .222119121016742 .324054734765451
 -.90512941670023 .214357309889248 .333701567472962 -.901617433264294 .202498030
733811 .338520594986235 -.899819170094842 .188599248523205 .338525728753601 -.89
9817238705643 .174652122248876 41 1 618 L.2808359069507545 -.919457408185475 .22
2073367614951 41 1 619 L.338525728753601 -.899817238705643 .174652122248876 141
 579 363 579 579 369 40 8 582 .0140494846047397 .999890253504125 8 .002766700135
71694 .3448870775790245 ??.948252196264519 .158393511166077 .168195066347653 .94
8625565795349 .1561418202130855 .18161 .948239523019619 .1584693632331755 .19524
33290763605 .947111462577565 .1650775864682635 .207329805925921 .945254363410653
 .1753993174249035 .21694600189853 .942648778837083 .1889021224257625 .223140611
181919 .939432657490383 .20429638797727 .2246771674592165 .936000663429267 .2194
84601191004 .220864446440579 41 1 583 L.948252196264519 .158393511166077 .168195
066347653 41 1 584 L.936000663429267 .219484601191004 .220864446440579 141 563 5
48 563 563 359 141 556 356 556 556 362 40 7 559 0 1 7 .002823451495578365 .35907
5293962386 ??.655606502723212 .70317198869625 .2221931953265695 .644213544566117
 .713624299682655 .22479 .63243211544055 .724085872987032 .222119121016742 .6218
37701192262 .733204340873622 .214357309889248 .613972817965316 .739802751346417
 .2024980307338105 .610005962621245 .743077020009722 .1885992485232045 .61000172
3105451 .743080500288079 .1746521222488755 41 1 560 L.655606502723212 .703171988
69625 .2221931953265695 41 1 561 L.610001723105451 .743080500288079 .17465212224
88755 141 497 484 497 497 314 141 490 311 490 490 317 40 8 493 .0140494846047396
8 .999890253504125 8 .002766700135717125 .344887077579034 ??-.611298902596696 .7
42013735576422 .168195066347653 -.609535565795349 .743462928551615 .18161 -.6113
58255791283 .74196483419084 .1952433290763605 -.616517114765721 .737683793573474
 .207329805925921 -.624527446401744 .730914633039261 .21694600189853 -.634918426
26805 .721906728106411 .223140611181919 -.646642190634909 .711424352542761 .2246
771674592165 -.658079572085539 .700858051893331 .220864446440579 41 1 494 L-.611
298902596696 .742013735576422 .168195066347653 41 1 495 L-.658079572085539 .7008
58051893331 .220864446440579 40 20 428 0 1 20 .0106686699869433 .349496593791048
 ??-.1954374072165845 .590814276960587 .7112 -.1860057625321955 .593851114594237
 .654060373397124 -.15902883186135 .601637033963848 .60339784307852 -.1160350904
240652 .611386250900591 .563109703425917 -.0604174140825282 .619360174757452 .53
862331845655 -.00087517240135997 .622299384599783 .534191899948057 .054903705968
1558 .619873271783001 .548871238229579 .103015891875095 .613714115872512 .580602
8276788 .1392918198135006 .606510576109802 .627617360033679 .158206529875725 .60
1853789474389 .68489886337293 .157148695744813 .602130864036801 .743798438790345
 .1375630859069794 .60690500689626 .797950486651101 .1009780863421394 .614052698
128328 .843650763258732 .0499949564121329 .620288476705274 .875634495742206 -.00
829887912738262 .622244661371417 .888754588487957 -.0657297865872839 .6188189437
59151 .882372319743776 -.11764971208593 .611077601656368 .858204689975258 -.1602
51646337614 .60131248103302 .817379182516773 -.1876784070317085 .593324620704418
 .763150922820228 -.1954374072165845 .590814276960586 .7112 41 1 429 H-.19543740
72165845 .590814276960587 .7112 141 406 15 953 953 396 141 953 14 406 406 396 14
1 402 4 395 395 14 141 401 397 401 401 394 15 399 1844 0 954 393 799 17 954 0 39
9 954 954 0 21 8 0 0 -17 21 0 297 21 21 0 954 8 0 0 +15 297 1832 0 21 291 938 59
 352 1064 0 1 344 374 955 +0 332 141 391 370 391 391 374 59 344 1055 0 1 288 352
 956 +0 325 141 955 348 955 955 352 59 288 750 0 1 280 344 957 +0 311 141 956 33
9 956 956 344 141 957 286 957 957 288 40 6 375 0 1 6 .00244378432521403 .3400160
898737815 ??.595847184529138 .726766931477141 .18161 .597690577441076 .725251689
855428 .195471175072302 .602932472662619 .720899766547986 .207763993812689 .6110
37906129975 .714042517832304 .217413654012255 .621352735029005 .705084972660725
 .2233848743190635 .629746397594355 .697598390706955 .22479 41 1 376 L.595847184
529138 .726766931477141 .18161 41 1 377 L.629746397594355 .697598390706955 .2247
9 141 368 366 958 958 363 141 958 382 368 368 363 141 361 359 959 959 356 141 95
9 374 361 361 356 40 6 353 0 1 6 .0026656602193303 .3515536734579595 ??-.2892647
29194187 -.894175573611927 .22479 -.303622011983793 -.889403009798662 .222215432
315008 -.316295578048069 -.884975224120564 .2147745717376655 -.325749956246954 -
.881538998573014 .2033235009562555 -.3307512284839365 -.879674749470719 .1895721
296772605 -.331475033025099 -.879402264314241 .18161 41 1 354 L-.289264729194187
 -.894175573611927 .22479 41 1 355 L-.331475033025099 -.879402264314241 .18161 4
0 6 345 0 1 6 .002443784325214 .3400160898737815 ??.3314750330251 -.879402264314
241 .18161 .3292410988318555 -.880241068594278 .195471175072302 .322851275081518
 -.88260472136639 .207763993812689 .3128600067599915 -.886195608299964 .21741365
40122545 .2999451306363425 -.890649739576424 .2233848743190635 .2892647291941885
 -.894175573611926 .22479 41 1 346 L.3314750330251 -.879402264314241 .18161 41 1
 347 L.2892647291941885 -.894175573611926 .22479 141 337 335 960 960 332 141 960
 352 337 337 332 141 330 328 961 961 325 141 961 344 330 330 325 40 6 322 0 1 6
 .00266566021933032 .3515536734579575 ??-.629746397594355 .697598390706955 .2247
9 -.618434594696082 .707645880425438 .222215432315008 -.608263236784199 .7164076
17754592 .2147745717376655 -.600560189067445 .722877236678037 .203323500956255 -
.596445065867384 .726276340935358 .1895721296772605 -.595847184529139 .726766931
477141 .18161 41 1 323 L-.629746397594355 .697598390706955 .22479 41 1 324 L-.59
5847184529139 .726766931477141 .18161 141 316 314 962 962 311 141 962 288 316 31
6 311 141 309 307 963 963 290 141 963 280 309 309 290 141 289 278 289 289 280 19
 11 299 0 1 0 7 3 S40 22 17 0 1 22 .0517817977579197 .3950061137947415 ??-.65908
6236909211 .669947290700437 .7112 -.632501780589502 .695101098798664 .5241904038
41805 -.559701833066016 .754955560322951 .360242007287854 -.4254609035911895 .83
7977958848184 .2045219226510645 -.214311739715998 .915037987309763 .086324979455
6469 -.0376935317113921 .939043789004071 .054943422408794 .1421405237681564 .928
988757468525 .0751753908469572 .30206831651847 .889931891863471 .141627013904455
4 .4481570912413595 .826062504638774 .2590399168887265 .568540917023427 .7483216
32501801 .4428297886245875 .618651210951319 .70745651399112 .621986554871499 .61
6762169107654 .709103988676994 .8135201381528 .571058633550739 .746402088051181
 .97374368712833 .447814150990425 .826248465156048 1.16372918154209 .26364110661
6634 .90206286194586 1.301580342622746 .0874702409823768 .935720576316715 1.3589
93450920842 -.1014166248036624 .934311890223727 1.362119087186492 -.268076197730
441 .900754790278902 1.315574267224186 -.4205043679703545 .840476124894606 1.222
01478097954 -.556442126351154 .757361340458969 1.06737590157767 -.63729328993603
7 .6907107228084 .880842269679026 -.659086236909211 .669947290700437 .7112 41 1
 18 H-.659086236909211 .669947290700437 .7112 141 13 5 13 13 4 1 0 
