600 0 1 0           
81 GICL ACIS Healer - Source: /gicl/data5/repository/Heriot_Watt/ex37/ex37.sat - 6 0 18 ACIS 6.0.3 Solaris 24 Sat Apr 13 23:38:32 2002 
1 9.999999999999999547e-07 1.000000000000000036e-10 
body $-1 $1 $-1 $-1 #
lump $-1 $-1 $2 $0 #
shell $-1 $-1 $-1 $3 $-1 $1 #
face $-1 $4 $5 $2 $-1 $6 forward single #
face $-1 $7 $8 $2 $-1 $9 forward single #
loop $-1 $-1 $10 $3 #
plane-surface $-1 0 39.5 -39.5 0 0.7071067811865475727 -0.7071067811865475727 -1 0 0 forward_v I I I I #
face $-1 $11 $12 $2 $-1 $13 reversed single #
loop $-1 $-1 $14 $4 #
plane-surface $-1 4.5 39.5 0 0.7071067811865475727 0.7071067811865475727 0 0 0 -1 forward_v I I I I #
coedge $-1 $15 $16 $17 $18 forward $5 $-1 #
face $-1 $19 $20 $2 $-1 $21 forward single #
loop $-1 $-1 $22 $7 #
plane-surface $-1 0 40 0 0 -1 0 0 0 -1 forward_v I I I I #
coedge $-1 $23 $24 $25 $26 reversed $8 $-1 #
coedge $-1 $27 $10 $28 $29 forward $5 $-1 #
coedge $-1 $10 $25 $30 $31 forward $5 $-1 #
coedge $-1 $32 $33 $10 $18 reversed $34 $-1 #
edge $-1 $35 -4 $36 4 $17 $37 forward 7 unknown #
face $-1 $38 $39 $2 $-1 $40 forward single #
loop $-1 $-1 $41 $11 #
plane-surface $-1 -4.5 39.5 0 -0.7071067811865475727 0.7071067811865475727 0 0 0 1 forward_v I I I I #
coedge $-1 $42 $43 $44 $45 reversed $12 $-1 #
coedge $-1 $46 $14 $43 $47 forward $8 $-1 #
coedge $-1 $14 $48 $49 $50 reversed $8 $-1 #
coedge $-1 $16 $44 $14 $26 forward $5 $-1 #
edge $-1 $51 11.83568051838732949 $52 12.70170592217176875 $14 $53 forward 7 unknown #
coedge $-1 $44 $15 $41 $54 forward $5 $-1 #
coedge $-1 $55 $56 $15 $29 reversed $57 $-1 #
edge $-1 $36 11.83568051838732949 $58 12.70170592217176875 $28 $59 forward 7 unknown #
coedge $-1 $49 $60 $16 $31 reversed $39 $-1 #
edge $-1 $52 -12.70170592217176875 $35 -11.83568051838732949 $30 $61 forward 7 unknown #
coedge $-1 $62 $17 $60 $63 reversed $34 $-1 #
coedge $-1 $17 $62 $55 $64 reversed $34 $-1 #
loop $-1 $-1 $17 $65 #
vertex $-1 $63 $66 #
vertex $-1 $29 $67 #
straight-curve $-1 0 39 -40 -1 0 0 F -7.099999999999999645 F 7.099999999999999645 #
face $-1 $68 $69 $2 $-1 $70 forward single #
loop $-1 $-1 $30 $19 #
plane-surface $-1 4.5 0 -39.5 0.7071067811865475727 0 -0.7071067811865475727 -0.7071067811865475727 0 -0.7071067811865475727 forward_v I I I I #
coedge $-1 $71 $72 $27 $54 reversed $20 $-1 #
coedge $-1 $73 $22 $72 $74 reversed $12 $-1 #
coedge $-1 $22 $73 $23 $47 reversed $12 $-1 #
coedge $-1 $25 $27 $22 $45 forward $5 $-1 #
edge $-1 $75 -4 $51 4 $22 $76 forward 7 unknown #
coedge $-1 $77 $23 $78 $79 forward $8 $-1 #
edge $-1 $51 -39 $80 39 $43 $81 forward 7 unknown #
coedge $-1 $24 $77 $82 $83 forward $8 $-1 #
coedge $-1 $84 $30 $24 $50 forward $39 $-1 #
edge $-1 $52 -22.80533563299021793 $85 -21.93931022920577689 $24 $86 forward 7 unknown #
vertex $-1 $45 $87 #
vertex $-1 $26 $88 #
straight-curve $-1 -2.833333333333333037 46.8333333333333357 -32.1666666666666643 0.5773502691896257311 -0.5773502691896257311 -0.5773502691896257311 I I #
edge $-1 $58 -12.70170592217176875 $75 -11.83568051838732949 $41 $89 forward 7 unknown #
coedge $-1 $90 $28 $33 $64 forward $57 $-1 #
coedge $-1 $28 $91 $71 $92 reversed $57 $-1 #
loop $-1 $-1 $28 $93 #
vertex $-1 $54 $94 #
straight-curve $-1 2.833333333333333037 32.1666666666666643 -46.8333333333333357 -0.5773502691896257311 0.5773502691896257311 0.5773502691896257311 I I #
coedge $-1 $30 $95 $32 $63 forward $39 $-1 #
straight-curve $-1 -2.833333333333333037 32.1666666666666643 -46.8333333333333357 -0.5773502691896257311 -0.5773502691896257311 -0.5773502691896257311 I I #
coedge $-1 $33 $32 $96 $97 reversed $34 $-1 #
edge $-1 $98 -39 $35 39 $32 $99 forward 7 unknown #
edge $-1 $36 -39 $100 39 $33 $101 forward 7 unknown #
face $-1 $102 $34 $2 $-1 $103 reversed single #
point $-1 4 39 -40 #
point $-1 -4 39 -40 #
face $-1 $65 $104 $2 $-1 $105 reversed single #
loop $-1 $-1 $106 $38 #
plane-surface $-1 4.5 -39.5 0 0.7071067811865475727 -0.7071067811865475727 0 0 0 -1 forward_v I I I I #
coedge $-1 $107 $41 $56 $92 forward $20 $-1 #
coedge $-1 $41 $108 $42 $74 forward $20 $-1 #
coedge $-1 $43 $42 $109 $110 reversed $12 $-1 #
edge $-1 $111 -39 $75 39 $42 $112 forward 7 unknown #
vertex $-1 $74 $113 #
straight-curve $-1 0 40 -39 1 0 0 F -7.099999999999999645 F 7.099999999999999645 #
coedge $-1 $48 $46 $114 $115 forward $8 $-1 #
coedge $-1 $109 $116 $46 $79 reversed $117 $-1 #
edge $-1 $80 11.83568051838732771 $118 12.70170592217176875 $78 $119 forward 7 unknown #
vertex $-1 $79 $120 #
straight-curve $-1 4 40 0 0 0 1 F -43.10000000000000142 F 42.10000000000000142 #
coedge $-1 $121 $122 $48 $83 reversed $104 $-1 #
edge $-1 $123 -39 $85 39 $82 $124 forward 7 unknown #
coedge $-1 $125 $49 $122 $126 forward $39 $-1 #
vertex $-1 $83 $127 #
straight-curve $-1 17.66666666666666785 26.3333333333333357 -26.33333333333333215 0.5773502691896257311 -0.5773502691896257311 0.5773502691896257311 I I #
point $-1 4 40 -39 #
point $-1 4.500000000000001776 39.5 -39.5 #
straight-curve $-1 2.833333333333333037 46.8333333333333357 -32.1666666666666643 0.5773502691896257311 0.5773502691896257311 0.5773502691896257311 I I #
coedge $-1 $128 $55 $129 $130 forward $57 $-1 #
coedge $-1 $56 $128 $131 $132 forward $57 $-1 #
edge $-1 $58 -22.80533563299021438 $133 -21.93931022920577689 $56 $134 forward 7 unknown #
face $-1 $135 $57 $2 $-1 $136 forward single #
point $-1 -4.500000000000001776 39.5 -39.5 #
coedge $-1 $60 $125 $137 $138 forward $39 $-1 #
coedge $-1 $137 $129 $62 $97 forward $139 $-1 #
edge $-1 $100 -4 $98 4 $62 $140 forward 7 unknown #
vertex $-1 $97 $141 #
straight-curve $-1 4 0 -40 0 1 0 F -42.10000000000000142 F 42.10000000000000142 #
vertex $-1 $130 $142 #
straight-curve $-1 -4 0 -40 0 -1 0 F -43.10000000000000142 F 42.10000000000000142 #
face $-1 $143 $144 $2 $-1 $145 forward single #
plane-surface $-1 0 0 -40 0 0 1 1 0 0 forward_v I I I I #
loop $-1 $-1 $122 $68 #
plane-surface $-1 5 0 0 -1 0 0 0 0 1 forward_v I I I I #
coedge $-1 $146 $147 $125 $148 reversed $69 $-1 #
coedge $-1 $149 $71 $150 $151 forward $20 $-1 #
coedge $-1 $72 $149 $152 $153 reversed $20 $-1 #
coedge $-1 $152 $78 $73 $110 forward $117 $-1 #
edge $-1 $80 -4 $111 4 $73 $154 forward 7 unknown #
vertex $-1 $153 $155 #
straight-curve $-1 -4 40 0 0 0 -1 F -42.10000000000000142 F 42.10000000000000142 #
point $-1 -4 40 -39 #
coedge $-1 $156 $157 $77 $115 reversed $144 $-1 #
edge $-1 $118 -22.80533563299022148 $123 -21.93931022920577689 $114 $158 forward 7 unknown #
coedge $-1 $78 $159 $156 $160 reversed $117 $-1 #
loop $-1 $-1 $78 $161 #
vertex $-1 $115 $162 #
straight-curve $-1 -2.833333333333333925 46.8333333333333357 32.1666666666666714 0.5773502691896257311 -0.5773502691896257311 0.5773502691896257311 I I #
point $-1 4 40 39 #
coedge $-1 $163 $82 $157 $164 reversed $104 $-1 #
coedge $-1 $82 $163 $84 $126 reversed $104 $-1 #
vertex $-1 $164 $165 #
straight-curve $-1 5 39 0 0 0 -1 F -42.10000000000000142 F 43.10000000000000142 #
coedge $-1 $95 $84 $106 $148 forward $39 $-1 #
edge $-1 $85 -39 $166 39 $122 $167 forward 7 unknown #
point $-1 5 39 -39 #
coedge $-1 $91 $90 $168 $169 forward $57 $-1 #
coedge $-1 $96 $170 $90 $130 reversed $139 $-1 #
edge $-1 $100 11.83568051838732771 $171 12.7017059221717652 $129 $172 forward 7 unknown #
coedge $-1 $173 $150 $91 $132 reversed $174 $-1 #
edge $-1 $175 -39 $133 39 $131 $176 forward 7 unknown #
vertex $-1 $132 $177 #
straight-curve $-1 -17.66666666666666785 26.33333333333333215 -26.3333333333333357 -0.5773502691896257311 -0.5773502691896257311 0.5773502691896257311 I I #
face $-1 $178 $139 $2 $-1 $179 forward single #
plane-surface $-1 -4.5 0 -39.5 -0.7071067811865475727 0 -0.7071067811865475727 -0.7071067811865475727 0 0.7071067811865475727 forward_v I I I I #
coedge $-1 $180 $96 $95 $138 reversed $139 $-1 #
edge $-1 $181 -12.7017059221717652 $98 -11.83568051838732771 $137 $182 forward 7 unknown #
loop $-1 $-1 $137 $135 #
straight-curve $-1 0 -39 -40 1 0 0 F -7.099999999999999645 F 7.099999999999999645 #
point $-1 4 -39 -40 #
point $-1 -4 -39 -40 #
face $-1 $183 $184 $2 $-1 $185 forward single #
loop $-1 $-1 $114 $102 #
plane-surface $-1 4.5 0 39.5 0.7071067811865475727 0 0.7071067811865475727 0.7071067811865475727 0 -0.7071067811865475727 forward_v I I I I #
coedge $-1 $186 $106 $163 $187 forward $69 $-1 #
coedge $-1 $106 $188 $180 $189 reversed $69 $-1 #
edge $-1 $166 21.93931022920577689 $181 22.80533563299021793 $106 $190 forward 7 unknown #
coedge $-1 $108 $107 $191 $192 forward $20 $-1 #
coedge $-1 $131 $193 $107 $151 reversed $174 $-1 #
edge $-1 $133 -39 $194 39 $150 $195 forward 7 unknown #
coedge $-1 $196 $109 $108 $153 forward $117 $-1 #
edge $-1 $111 11.83568051838732949 $197 12.70170592217176875 $108 $198 forward 7 unknown #
straight-curve $-1 0 40 39 -1 0 0 F -8.099999999999999645 F 7.099999999999999645 #
point $-1 -4 40 39 #
coedge $-1 $199 $114 $116 $160 forward $144 $-1 #
coedge $-1 $114 $200 $121 $164 forward $144 $-1 #
straight-curve $-1 17.66666666666666785 26.33333333333333215 26.3333333333333357 0.5773502691896257311 -0.5773502691896257311 -0.5773502691896257311 I I #
coedge $-1 $116 $196 $201 $202 forward $117 $-1 #
edge $-1 $118 -12.70170592217176164 $203 -11.83568051838732771 $116 $204 forward 7 unknown #
face $-1 $205 $117 $2 $-1 $206 forward single #
point $-1 4.499999999999997335 39.5 39.50000000000000711 #
coedge $-1 $122 $121 $146 $187 reversed $104 $-1 #
edge $-1 $207 -39 $123 39 $121 $208 forward 7 unknown #
point $-1 5 39 39 #
vertex $-1 $126 $209 #
straight-curve $-1 5 0 -39 0 -1 0 F -42.10000000000000142 F 42.10000000000000142 #
coedge $-1 $210 $211 $128 $169 reversed $212 $-1 #
edge $-1 $171 -22.80533563299021793 $175 -21.93931022920577689 $168 $213 forward 7 unknown #
coedge $-1 $129 $214 $210 $215 forward $139 $-1 #
vertex $-1 $215 $216 #
straight-curve $-1 2.833333333333333925 -32.1666666666666714 -46.8333333333333357 -0.5773502691896257311 -0.5773502691896257311 0.5773502691896257311 I I #
coedge $-1 $193 $131 $211 $217 reversed $174 $-1 #
loop $-1 $-1 $150 $218 #
vertex $-1 $217 $219 #
straight-curve $-1 -5 0 -39 0 1 0 F -42.10000000000000142 F 43.10000000000000142 #
point $-1 -5 39 -39 #
face $-1 $-1 $220 $2 $-1 $221 reversed single #
plane-surface $-1 0 -39.5 -39.5 0 -0.7071067811865475727 -0.7071067811865475727 -1 0 0 forward_v I I I I #
coedge $-1 $214 $137 $147 $189 forward $139 $-1 #
vertex $-1 $138 $222 #
straight-curve $-1 -2.833333333333333925 -32.1666666666666714 -46.8333333333333357 -0.5773502691896257311 0.5773502691896257311 -0.5773502691896257311 I I #
face $-1 $161 $223 $2 $-1 $224 forward single #
loop $-1 $-1 $225 $143 #
plane-surface $-1 0 -39.5 39.5 0 -0.7071067811865475727 0.7071067811865475727 1 0 0 forward_v I I I I #
coedge $-1 $226 $146 $200 $227 reversed $69 $-1 #
edge $-1 $166 -39 $207 39 $163 $228 forward 7 unknown #
coedge $-1 $147 $226 $229 $230 forward $69 $-1 #
edge $-1 $181 -12.70170592217176875 $231 -11.83568051838732949 $147 $232 forward 7 unknown #
straight-curve $-1 17.66666666666666785 -26.3333333333333357 -26.33333333333333215 -0.5773502691896257311 -0.5773502691896257311 -0.5773502691896257311 I I #
coedge $-1 $233 $234 $149 $192 reversed $235 $-1 #
edge $-1 $194 21.93931022920577689 $197 22.80533563299021438 $191 $236 forward 7 unknown #
coedge $-1 $150 $173 $233 $237 reversed $174 $-1 #
vertex $-1 $192 $238 #
straight-curve $-1 -5 39 0 0 0 1 F -42.10000000000000142 F 42.10000000000000142 #
coedge $-1 $159 $152 $234 $239 forward $117 $-1 #
vertex $-1 $192 $240 #
straight-curve $-1 2.833333333333333037 46.8333333333333357 32.1666666666666643 -0.5773502691896257311 -0.5773502691896257311 0.5773502691896257311 I I #
coedge $-1 $241 $156 $242 $243 forward $144 $-1 #
coedge $-1 $157 $241 $186 $227 forward $144 $-1 #
coedge $-1 $244 $242 $159 $202 reversed $223 $-1 #
edge $-1 $245 -4 $203 4 $201 $246 forward 7 unknown #
vertex $-1 $202 $247 #
straight-curve $-1 -2.833333333333333925 32.1666666666666714 46.8333333333333357 -0.5773502691896257311 -0.5773502691896257311 0.5773502691896257311 I I #
face $-1 $248 $235 $2 $-1 $249 forward single #
plane-surface $-1 0 39.5 39.5 0 0.7071067811865475727 0.7071067811865475727 1 0 0 forward_v I I I I #
vertex $-1 $187 $250 #
straight-curve $-1 5 0 39 0 1 0 F -42.10000000000000142 F 42.10000000000000142 #
point $-1 5 -39 -39 #
coedge $-1 $251 $168 $170 $215 reversed $212 $-1 #
coedge $-1 $168 $252 $173 $217 forward $212 $-1 #
loop $-1 $-1 $252 $248 #
straight-curve $-1 -17.66666666666666785 -26.3333333333333357 -26.33333333333333215 -0.5773502691896257311 0.5773502691896257311 0.5773502691896257311 I I #
coedge $-1 $170 $180 $253 $254 forward $139 $-1 #
edge $-1 $255 11.83568051838732949 $171 12.70170592217176875 $210 $256 forward 7 unknown #
point $-1 -4.500000000000000888 -39.5 -39.5 #
edge $-1 $257 -39 $175 39 $173 $258 forward 7 unknown #
face $-1 $93 $174 $2 $-1 $259 reversed single #
point $-1 -5 -39 -39 #
loop $-1 $-1 $253 $178 #
plane-surface $-1 0 -40 0 0 1 0 0 0 1 forward_v I I I I #
point $-1 4.500000000000000888 -39.5 -39.5 #
loop $-1 $-1 $242 $183 #
plane-surface $-1 0 0 40 0 0 1 1 0 0 forward_v I I I I #
coedge $-1 $260 $261 $241 $262 reversed $184 $-1 #
coedge $-1 $188 $186 $261 $263 forward $69 $-1 #
edge $-1 $264 -22.80533563299022148 $207 -21.93931022920577689 $186 $265 forward 7 unknown #
straight-curve $-1 5 -39 0 0 0 1 F -43.10000000000000142 F 42.10000000000000142 #
coedge $-1 $266 $253 $188 $230 reversed $220 $-1 #
edge $-1 $267 -39 $231 39 $229 $268 forward 7 unknown #
vertex $-1 $230 $269 #
straight-curve $-1 -2.833333333333333037 -46.8333333333333357 -32.1666666666666643 -0.5773502691896257311 -0.5773502691896257311 0.5773502691896257311 I I #
coedge $-1 $270 $191 $193 $237 forward $235 $-1 #
coedge $-1 $191 $271 $196 $239 reversed $235 $-1 #
loop $-1 $-1 $234 $205 #
straight-curve $-1 -17.66666666666666785 26.33333333333333215 26.3333333333333357 0.5773502691896257311 0.5773502691896257311 0.5773502691896257311 I I #
edge $-1 $194 -39 $257 39 $193 $272 forward 7 unknown #
point $-1 -5 39 39 #
edge $-1 $197 -12.70170592217176875 $245 -11.83568051838732949 $234 $273 forward 7 unknown #
point $-1 -4.500000000000001776 39.5 39.5 #
coedge $-1 $200 $199 $225 $262 forward $144 $-1 #
coedge $-1 $201 $274 $199 $243 reversed $223 $-1 #
edge $-1 $203 -39 $275 39 $242 $276 forward 7 unknown #
coedge $-1 $274 $201 $271 $277 reversed $223 $-1 #
vertex $-1 $277 $278 #
straight-curve $-1 0 39 40 1 0 0 F -7.099999999999999645 F 8.099999999999999645 #
point $-1 4 39 40 #
face $-1 $218 $212 $2 $-1 $279 forward single #
plane-surface $-1 -4.5 0 39.5 -0.7071067811865475727 0 0.7071067811865475727 0.7071067811865475727 0 0.7071067811865475727 forward_v I I I I #
point $-1 5 -39 39 #
coedge $-1 $280 $210 $281 $282 forward $212 $-1 #
coedge $-1 $211 $280 $270 $283 reversed $212 $-1 #
coedge $-1 $229 $281 $214 $254 reversed $220 $-1 #
edge $-1 $231 -4 $255 4 $253 $284 forward 7 unknown #
vertex $-1 $215 $285 #
straight-curve $-1 2.833333333333333037 -46.8333333333333357 -32.1666666666666643 -0.5773502691896257311 0.5773502691896257311 -0.5773502691896257311 I I #
vertex $-1 $237 $286 #
straight-curve $-1 -5 -39 0 0 0 -1 F -42.10000000000000142 F 43.10000000000000142 #
plane-surface $-1 -5 0 0 1 0 0 0 0 -1 forward_v I I I I #
coedge $-1 $287 $225 $274 $288 forward $184 $-1 #
coedge $-1 $225 $289 $226 $263 reversed $184 $-1 #
edge $-1 $275 11.83568051838732771 $264 12.70170592217176875 $225 $290 forward 7 unknown #
edge $-1 $264 -12.70170592217176164 $267 -11.83568051838732771 $261 $291 forward 7 unknown #
vertex $-1 $227 $292 #
straight-curve $-1 17.66666666666666785 -26.3333333333333357 26.33333333333333215 0.5773502691896257311 0.5773502691896257311 -0.5773502691896257311 I I #
coedge $-1 $281 $229 $289 $293 reversed $220 $-1 #
vertex $-1 $293 $294 #
straight-curve $-1 4 -40 0 0 0 -1 F -42.10000000000000142 F 43.10000000000000142 #
point $-1 4 -40 -39 #
coedge $-1 $295 $233 $252 $283 forward $235 $-1 #
coedge $-1 $234 $295 $244 $277 forward $235 $-1 #
straight-curve $-1 -5 0 39 0 -1 0 F -43.10000000000000142 F 42.10000000000000142 #
straight-curve $-1 2.833333333333333037 32.1666666666666643 46.8333333333333357 0.5773502691896257311 -0.5773502691896257311 0.5773502691896257311 I I #
coedge $-1 $242 $244 $260 $288 reversed $223 $-1 #
vertex $-1 $243 $296 #
straight-curve $-1 4 0 40 0 -1 0 F -42.10000000000000142 F 42.10000000000000142 #
edge $-1 $297 -39 $245 39 $244 $298 forward 7 unknown #
point $-1 -4 39 40 #
plane-surface $-1 -4.5 -39.5 0 -0.7071067811865475727 -0.7071067811865475727 0 0 0 1 forward_v I I I I #
coedge $-1 $252 $251 $299 $300 forward $212 $-1 #
coedge $-1 $253 $266 $251 $282 reversed $220 $-1 #
edge $-1 $255 -39 $301 39 $281 $302 forward 7 unknown #
edge $-1 $257 21.93931022920577689 $303 22.80533563299022148 $252 $304 forward 7 unknown #
straight-curve $-1 0 -40 -39 -1 0 0 F -7.099999999999999645 F 7.099999999999999645 #
point $-1 -4 -40 -39 #
point $-1 -5 -39 39 #
coedge $-1 $299 $260 $295 $305 reversed $184 $-1 #
edge $-1 $275 -4 $297 4 $274 $306 forward 7 unknown #
coedge $-1 $261 $299 $266 $293 forward $184 $-1 #
straight-curve $-1 -2.833333333333333925 -32.1666666666666714 46.8333333333333357 0.5773502691896257311 -0.5773502691896257311 -0.5773502691896257311 I I #
straight-curve $-1 -2.833333333333333925 -46.8333333333333357 32.1666666666666714 -0.5773502691896257311 -0.5773502691896257311 -0.5773502691896257311 I I #
point $-1 4.499999999999997335 -39.50000000000000711 39.5 #
edge $-1 $301 -4 $267 4 $266 $307 forward 7 unknown #
point $-1 4 -40 39 #
coedge $-1 $271 $270 $287 $305 forward $235 $-1 #
point $-1 4 -39 40 #
vertex $-1 $288 $308 #
straight-curve $-1 -4 0 40 0 1 0 F -42.10000000000000142 F 43.10000000000000142 #
coedge $-1 $289 $287 $280 $300 reversed $184 $-1 #
edge $-1 $301 11.83568051838732771 $303 12.70170592217176164 $299 $309 forward 7 unknown #
vertex $-1 $282 $310 #
straight-curve $-1 -4 -40 0 0 0 1 F -43.10000000000000142 F 42.10000000000000142 #
vertex $-1 $300 $311 #
straight-curve $-1 -17.66666666666666785 -26.3333333333333357 26.33333333333333215 0.5773502691896257311 -0.5773502691896257311 0.5773502691896257311 I I #
edge $-1 $303 -12.70170592217176875 $297 -11.83568051838732771 $287 $312 forward 7 unknown #
straight-curve $-1 0 -39 40 -1 0 0 F -8.099999999999999645 F 8.099999999999999645 #
straight-curve $-1 0 -40 39 1 0 0 F -8.099999999999999645 F 8.099999999999999645 #
point $-1 -4 -39 40 #
straight-curve $-1 2.833333333333333925 -46.8333333333333357 32.1666666666666714 -0.5773502691896257311 0.5773502691896257311 0.5773502691896257311 I I #
point $-1 -4 -40 39 #
point $-1 -4.499999999999997335 -39.50000000000000711 39.5 #
straight-curve $-1 2.833333333333333925 -32.1666666666666714 46.8333333333333357 0.5773502691896257311 0.5773502691896257311 0.5773502691896257311 I I #
End-of-ACIS-data 