106 0 1 0           
body $-1 $1 $-1 $-1 #
lump $-1 $-1 $2 $0 #
shell $-1 $-1 $-1 $3 $1 #
face $-1 $4 $5 $2 $-1 $6 forward single #
face $-1 $7 $8 $2 $-1 $9 forward single #
loop $-1 $-1 $10 $3 #
plane-surface $-1 0 39.5 -39.5 0 0.70710678118654746 -0.70710678118654746 -1 0 0 0 I I I I #
face $-1 $11 $12 $2 $-1 $13 reversed single #
loop $-1 $-1 $14 $4 #
plane-surface $-1 4.5 39.5 0 0.70710678118654746 0.70710678118654746 0 0 0 -1 0 I I I I #
coedge $-1 $15 $16 $17 $18 0 $5 $-1 #
face $-1 $19 $20 $2 $-1 $21 forward single #
loop $-1 $-1 $22 $7 #
plane-surface $-1 0 40 0 0 -1 0 0 0 -1 0 I I I I #
coedge $-1 $23 $24 $25 $26 1 $8 $-1 #
coedge $-1 $27 $10 $28 $29 0 $5 $-1 #
coedge $-1 $10 $25 $30 $31 0 $5 $-1 #
coedge $-1 $32 $33 $10 $18 1 $34 $-1 #
edge $-1 $35 $36 $17 $37 0 #
face $-1 $38 $39 $2 $-1 $40 forward single #
loop $-1 $-1 $41 $11 #
plane-surface $-1 -4.5 39.5 0 -0.70710678118654746 0.70710678118654746 0 0 0 1 0 I I I I #
coedge $-1 $42 $43 $44 $45 1 $12 $-1 #
coedge $-1 $46 $14 $43 $47 0 $8 $-1 #
coedge $-1 $14 $48 $49 $50 1 $8 $-1 #
coedge $-1 $16 $44 $14 $26 0 $5 $-1 #
edge $-1 $51 $52 $14 $53 0 #
coedge $-1 $44 $15 $41 $54 0 $5 $-1 #
coedge $-1 $55 $56 $15 $29 1 $57 $-1 #
edge $-1 $36 $58 $28 $59 0 #
coedge $-1 $49 $60 $16 $31 1 $39 $-1 #
edge $-1 $52 $35 $30 $61 0 #
coedge $-1 $62 $17 $60 $63 1 $34 $-1 #
coedge $-1 $17 $62 $55 $64 1 $34 $-1 #
loop $-1 $-1 $17 $65 #
vertex $-1 $63 $66 #
vertex $-1 $29 $67 #
straight-curve $-1 0 39 -40 -1 0 0 F -7.0999999999999996 F 7.0999999999999996 #
face $-1 $68 $69 $2 $-1 $70 forward single #
loop $-1 $-1 $30 $19 #
plane-surface $-1 4.5 0 -39.5 0.70710678118654746 0 -0.70710678118654746 -0.70710678118654757 0 -0.70710678118654757 0 I I I I #
coedge $-1 $71 $72 $27 $54 1 $20 $-1 #
coedge $-1 $73 $22 $72 $74 1 $12 $-1 #
coedge $-1 $22 $73 $23 $47 1 $12 $-1 #
coedge $-1 $25 $27 $22 $45 0 $5 $-1 #
edge $-1 $75 $51 $22 $76 0 #
coedge $-1 $77 $23 $78 $79 0 $8 $-1 #
edge $-1 $51 $80 $43 $81 0 #
coedge $-1 $24 $77 $82 $83 0 $8 $-1 #
coedge $-1 $84 $30 $24 $50 0 $39 $-1 #
edge $-1 $52 $85 $24 $86 0 #
vertex $-1 $45 $87 #
vertex $-1 $26 $88 #
straight-curve $-1 -2.833333333333333 46.833333333333336 -32.166666666666664 0.57735026918962573 -0.57735026918962573 -0.57735026918962573 I I #
edge $-1 $58 $75 $41 $89 0 #
coedge $-1 $90 $28 $33 $64 0 $57 $-1 #
coedge $-1 $28 $91 $71 $92 1 $57 $-1 #
loop $-1 $-1 $28 $93 #
vertex $-1 $54 $94 #
straight-curve $-1 2.833333333333333 32.166666666666664 -46.833333333333336 -0.57735026918962573 0.57735026918962573 0.57735026918962573 I I #
coedge $-1 $30 $95 $32 $63 0 $39 $-1 #
straight-curve $-1 -2.833333333333333 32.166666666666664 -46.833333333333336 -0.57735026918962573 -0.57735026918962573 -0.57735026918962573 I I #
coedge $-1 $33 $32 $96 $97 1 $34 $-1 #
edge $-1 $98 $35 $32 $99 0 #
edge $-1 $36 $100 $33 $101 0 #
face $-1 $102 $34 $2 $-1 $103 reversed single #
point $-1 4 39 -40 #
point $-1 -4 39 -40 #
face $-1 $65 $104 $2 $-1 $105 reversed single #
loop $-1 $-1 $106 $38 #
plane-surface $-1 4.5 -39.5 0 0.70710678118654746 -0.70710678118654746 0 0 0 -1 0 I I I I #
coedge $-1 $107 $41 $56 $92 0 $20 $-1 #
coedge $-1 $41 $108 $42 $74 0 $20 $-1 #
coedge $-1 $43 $42 $109 $110 1 $12 $-1 #
edge $-1 $111 $75 $42 $112 0 #
vertex $-1 $74 $113 #
straight-curve $-1 0 40 -39 1 0 0 F -7.0999999999999996 F 7.0999999999999996 #
coedge $-1 $48 $46 $114 $115 0 $8 $-1 #
coedge $-1 $109 $116 $46 $79 1 $117 $-1 #
edge $-1 $80 $118 $78 $119 0 #
vertex $-1 $79 $120 #
straight-curve $-1 4 40 0 0 0 1 F -43.100000000000001 F 42.100000000000001 #
coedge $-1 $121 $122 $48 $83 1 $104 $-1 #
edge $-1 $123 $85 $82 $124 0 #
coedge $-1 $125 $49 $122 $126 0 $39 $-1 #
vertex $-1 $83 $127 #
straight-curve $-1 17.666666666666668 26.333333333333336 -26.333333333333332 0.57735026918962573 -0.57735026918962573 0.57735026918962573 I I #
point $-1 4 40 -39 #
point $-1 4.5000000000000018 39.5 -39.5 #
straight-curve $-1 2.833333333333333 46.833333333333336 -32.166666666666664 0.57735026918962573 0.57735026918962573 0.57735026918962573 I I #
coedge $-1 $128 $55 $129 $130 0 $57 $-1 #
coedge $-1 $56 $128 $131 $132 0 $57 $-1 #
edge $-1 $58 $133 $56 $134 0 #
face $-1 $135 $57 $2 $-1 $136 forward single #
point $-1 -4.5000000000000018 39.5 -39.5 #
coedge $-1 $60 $125 $137 $138 0 $39 $-1 #
coedge $-1 $137 $129 $62 $97 0 $139 $-1 #
edge $-1 $100 $98 $62 $140 0 #
vertex $-1 $97 $141 #
straight-curve $-1 4 0 -40 0 1 0 F -42.100000000000001 F 42.100000000000001 #
vertex $-1 $130 $142 #
straight-curve $-1 -4 0 -40 0 -1 0 F -43.100000000000001 F 42.100000000000001 #
face $-1 $143 $144 $2 $-1 $145 forward single #
plane-surface $-1 0 0 -40 0 0 1 1 0 0 0 I I I I #
loop $-1 $-1 $122 $68 #
plane-surface $-1 5 0 0 -1 0 0 0 0 1 0 I I I I #
coedge $-1 $146 $147 $125 $148 1 $69 $-1 #
coedge $-1 $149 $71 $150 $151 0 $20 $-1 #
coedge $-1 $72 $149 $152 $153 1 $20 $-1 #
coedge $-1 $152 $78 $73 $110 0 $117 $-1 #
edge $-1 $80 $111 $73 $154 0 #
vertex $-1 $153 $155 #
straight-curve $-1 -4 40 0 0 0 -1 F -42.100000000000001 F 42.100000000000001 #
point $-1 -4 40 -39 #
coedge $-1 $156 $157 $77 $115 1 $144 $-1 #
edge $-1 $118 $123 $114 $158 0 #
coedge $-1 $78 $159 $156 $160 1 $117 $-1 #
loop $-1 $-1 $78 $161 #
vertex $-1 $115 $162 #
straight-curve $-1 -2.8333333333333339 46.833333333333336 32.166666666666671 0.57735026918962573 -0.57735026918962573 0.57735026918962573 I I #
point $-1 4 40 39 #
coedge $-1 $163 $82 $157 $164 1 $104 $-1 #
coedge $-1 $82 $163 $84 $126 1 $104 $-1 #
vertex $-1 $164 $165 #
straight-curve $-1 5 39 0 0 0 -1 F -42.100000000000001 F 43.100000000000001 #
coedge $-1 $95 $84 $106 $148 0 $39 $-1 #
edge $-1 $85 $166 $122 $167 0 #
point $-1 5 39 -39 #
coedge $-1 $91 $90 $168 $169 0 $57 $-1 #
coedge $-1 $96 $170 $90 $130 1 $139 $-1 #
edge $-1 $100 $171 $129 $172 0 #
coedge $-1 $173 $150 $91 $132 1 $174 $-1 #
edge $-1 $175 $133 $131 $176 0 #
vertex $-1 $132 $177 #
straight-curve $-1 -17.666666666666668 26.333333333333332 -26.333333333333336 -0.57735026918962573 -0.57735026918962573 0.57735026918962573 I I #
face $-1 $178 $139 $2 $-1 $179 forward single #
plane-surface $-1 -4.5 0 -39.5 -0.70710678118654746 0 -0.70710678118654746 -0.70710678118654757 0 0.70710678118654757 0 I I I I #
coedge $-1 $180 $96 $95 $138 1 $139 $-1 #
edge $-1 $181 $98 $137 $182 0 #
loop $-1 $-1 $137 $135 #
straight-curve $-1 0 -39 -40 1 0 0 F -7.0999999999999996 F 7.0999999999999996 #
point $-1 4 -39 -40 #
point $-1 -4 -39 -40 #
face $-1 $183 $184 $2 $-1 $185 forward single #
loop $-1 $-1 $114 $102 #
plane-surface $-1 4.5 0 39.5 0.70710678118654746 0 0.70710678118654746 0.70710678118654757 0 -0.70710678118654757 0 I I I I #
coedge $-1 $186 $106 $163 $187 0 $69 $-1 #
coedge $-1 $106 $188 $180 $189 1 $69 $-1 #
edge $-1 $166 $181 $106 $190 0 #
coedge $-1 $108 $107 $191 $192 0 $20 $-1 #
coedge $-1 $131 $193 $107 $151 1 $174 $-1 #
edge $-1 $133 $194 $150 $195 0 #
coedge $-1 $196 $109 $108 $153 0 $117 $-1 #
edge $-1 $111 $197 $108 $198 0 #
straight-curve $-1 0 40 39 -1 0 0 F -8.0999999999999996 F 7.0999999999999996 #
point $-1 -4 40 39 #
coedge $-1 $199 $114 $116 $160 0 $144 $-1 #
coedge $-1 $114 $200 $121 $164 0 $144 $-1 #
straight-curve $-1 17.666666666666668 26.333333333333332 26.333333333333336 0.57735026918962573 -0.57735026918962573 -0.57735026918962573 I I #
coedge $-1 $116 $196 $201 $202 0 $117 $-1 #
edge $-1 $118 $203 $116 $204 0 #
face $-1 $205 $117 $2 $-1 $206 forward single #
point $-1 4.4999999999999973 39.5 39.500000000000007 #
coedge $-1 $122 $121 $146 $187 1 $104 $-1 #
edge $-1 $207 $123 $121 $208 0 #
point $-1 5 39 39 #
vertex $-1 $126 $209 #
straight-curve $-1 5 0 -39 0 -1 0 F -42.100000000000001 F 42.100000000000001 #
coedge $-1 $210 $211 $128 $169 1 $212 $-1 #
edge $-1 $171 $175 $168 $213 0 #
coedge $-1 $129 $214 $210 $215 0 $139 $-1 #
vertex $-1 $215 $216 #
straight-curve $-1 2.8333333333333339 -32.166666666666671 -46.833333333333336 -0.57735026918962573 -0.57735026918962573 0.57735026918962573 I I #
coedge $-1 $193 $131 $211 $217 1 $174 $-1 #
loop $-1 $-1 $150 $218 #
vertex $-1 $217 $219 #
straight-curve $-1 -5 0 -39 0 1 0 F -42.100000000000001 F 43.100000000000001 #
point $-1 -5 39 -39 #
face $-1 $-1 $220 $2 $-1 $221 reversed single #
plane-surface $-1 0 -39.5 -39.5 0 -0.70710678118654746 -0.70710678118654746 -1 0 0 0 I I I I #
coedge $-1 $214 $137 $147 $189 0 $139 $-1 #
vertex $-1 $138 $222 #
straight-curve $-1 -2.8333333333333339 -32.166666666666671 -46.833333333333336 -0.57735026918962573 0.57735026918962573 -0.57735026918962573 I I #
face $-1 $161 $223 $2 $-1 $224 forward single #
loop $-1 $-1 $225 $143 #
plane-surface $-1 0 -39.5 39.5 0 -0.70710678118654746 0.70710678118654746 1 0 0 0 I I I I #
coedge $-1 $226 $146 $200 $227 1 $69 $-1 #
edge $-1 $166 $207 $163 $228 0 #
coedge $-1 $147 $226 $229 $230 0 $69 $-1 #
edge $-1 $181 $231 $147 $232 0 #
straight-curve $-1 17.666666666666668 -26.333333333333336 -26.333333333333332 -0.57735026918962573 -0.57735026918962573 -0.57735026918962573 I I #
coedge $-1 $233 $234 $149 $192 1 $235 $-1 #
edge $-1 $194 $197 $191 $236 0 #
coedge $-1 $150 $173 $233 $237 1 $174 $-1 #
vertex $-1 $192 $238 #
straight-curve $-1 -5 39 0 0 0 1 F -42.100000000000001 F 42.100000000000001 #
coedge $-1 $159 $152 $234 $239 0 $117 $-1 #
vertex $-1 $192 $240 #
straight-curve $-1 2.833333333333333 46.833333333333336 32.166666666666664 -0.57735026918962573 -0.57735026918962573 0.57735026918962573 I I #
coedge $-1 $241 $156 $242 $243 0 $144 $-1 #
coedge $-1 $157 $241 $186 $227 0 $144 $-1 #
coedge $-1 $244 $242 $159 $202 1 $223 $-1 #
edge $-1 $245 $203 $201 $246 0 #
vertex $-1 $202 $247 #
straight-curve $-1 -2.8333333333333339 32.166666666666671 46.833333333333336 -0.57735026918962573 -0.57735026918962573 0.57735026918962573 I I #
face $-1 $248 $235 $2 $-1 $249 forward single #
plane-surface $-1 0 39.5 39.5 0 0.70710678118654746 0.70710678118654746 1 0 0 0 I I I I #
vertex $-1 $187 $250 #
straight-curve $-1 5 0 39 0 1 0 F -42.100000000000001 F 42.100000000000001 #
point $-1 5 -39 -39 #
coedge $-1 $251 $168 $170 $215 1 $212 $-1 #
coedge $-1 $168 $252 $173 $217 0 $212 $-1 #
loop $-1 $-1 $252 $248 #
straight-curve $-1 -17.666666666666668 -26.333333333333336 -26.333333333333332 -0.57735026918962573 0.57735026918962573 0.57735026918962573 I I #
coedge $-1 $170 $180 $253 $254 0 $139 $-1 #
edge $-1 $255 $171 $210 $256 0 #
point $-1 -4.5000000000000009 -39.5 -39.5 #
edge $-1 $257 $175 $173 $258 0 #
face $-1 $93 $174 $2 $-1 $259 reversed single #
point $-1 -5 -39 -39 #
loop $-1 $-1 $253 $178 #
plane-surface $-1 0 -40 0 0 1 0 0 0 1 0 I I I I #
point $-1 4.5000000000000009 -39.5 -39.5 #
loop $-1 $-1 $242 $183 #
plane-surface $-1 0 0 40 0 0 1 1 0 0 0 I I I I #
coedge $-1 $260 $261 $241 $262 1 $184 $-1 #
coedge $-1 $188 $186 $261 $263 0 $69 $-1 #
edge $-1 $264 $207 $186 $265 0 #
straight-curve $-1 5 -39 0 0 0 1 F -43.100000000000001 F 42.100000000000001 #
coedge $-1 $266 $253 $188 $230 1 $220 $-1 #
edge $-1 $267 $231 $229 $268 0 #
vertex $-1 $230 $269 #
straight-curve $-1 -2.833333333333333 -46.833333333333336 -32.166666666666664 -0.57735026918962573 -0.57735026918962573 0.57735026918962573 I I #
coedge $-1 $270 $191 $193 $237 0 $235 $-1 #
coedge $-1 $191 $271 $196 $239 1 $235 $-1 #
loop $-1 $-1 $234 $205 #
straight-curve $-1 -17.666666666666668 26.333333333333332 26.333333333333336 0.57735026918962573 0.57735026918962573 0.57735026918962573 I I #
edge $-1 $194 $257 $193 $272 0 #
point $-1 -5 39 39 #
edge $-1 $197 $245 $234 $273 0 #
point $-1 -4.5000000000000018 39.5 39.5 #
coedge $-1 $200 $199 $225 $262 0 $144 $-1 #
coedge $-1 $201 $274 $199 $243 1 $223 $-1 #
edge $-1 $203 $275 $242 $276 0 #
coedge $-1 $274 $201 $271 $277 1 $223 $-1 #
vertex $-1 $277 $278 #
straight-curve $-1 0 39 40 1 0 0 F -7.0999999999999996 F 8.0999999999999996 #
point $-1 4 39 40 #
face $-1 $218 $212 $2 $-1 $279 forward single #
plane-surface $-1 -4.5 0 39.5 -0.70710678118654746 0 0.70710678118654746 0.70710678118654757 0 0.70710678118654757 0 I I I I #
point $-1 5 -39 39 #
coedge $-1 $280 $210 $281 $282 0 $212 $-1 #
coedge $-1 $211 $280 $270 $283 1 $212 $-1 #
coedge $-1 $229 $281 $214 $254 1 $220 $-1 #
edge $-1 $231 $255 $253 $284 0 #
vertex $-1 $215 $285 #
straight-curve $-1 2.833333333333333 -46.833333333333336 -32.166666666666664 -0.57735026918962573 0.57735026918962573 -0.57735026918962573 I I #
vertex $-1 $237 $286 #
straight-curve $-1 -5 -39 0 0 0 -1 F -42.100000000000001 F 43.100000000000001 #
plane-surface $-1 -5 0 0 1 0 0 0 0 -1 0 I I I I #
coedge $-1 $287 $225 $274 $288 0 $184 $-1 #
coedge $-1 $225 $289 $226 $263 1 $184 $-1 #
edge $-1 $275 $264 $225 $290 0 #
edge $-1 $264 $267 $261 $291 0 #
vertex $-1 $227 $292 #
straight-curve $-1 17.666666666666668 -26.333333333333336 26.333333333333332 0.57735026918962573 0.57735026918962573 -0.57735026918962573 I I #
coedge $-1 $281 $229 $289 $293 1 $220 $-1 #
vertex $-1 $293 $294 #
straight-curve $-1 4 -40 0 0 0 -1 F -42.100000000000001 F 43.100000000000001 #
point $-1 4 -40 -39 #
coedge $-1 $295 $233 $252 $283 0 $235 $-1 #
coedge $-1 $234 $295 $244 $277 0 $235 $-1 #
straight-curve $-1 -5 0 39 0 -1 0 F -43.100000000000001 F 42.100000000000001 #
straight-curve $-1 2.833333333333333 32.166666666666664 46.833333333333336 0.57735026918962573 -0.57735026918962573 0.57735026918962573 I I #
coedge $-1 $242 $244 $260 $288 1 $223 $-1 #
vertex $-1 $243 $296 #
straight-curve $-1 4 0 40 0 -1 0 F -42.100000000000001 F 42.100000000000001 #
edge $-1 $297 $245 $244 $298 0 #
point $-1 -4 39 40 #
plane-surface $-1 -4.5 -39.5 0 -0.70710678118654746 -0.70710678118654746 0 0 0 1 0 I I I I #
coedge $-1 $252 $251 $299 $300 0 $212 $-1 #
coedge $-1 $253 $266 $251 $282 1 $220 $-1 #
edge $-1 $255 $301 $281 $302 0 #
edge $-1 $257 $303 $252 $304 0 #
straight-curve $-1 0 -40 -39 -1 0 0 F -7.0999999999999996 F 7.0999999999999996 #
point $-1 -4 -40 -39 #
point $-1 -5 -39 39 #
coedge $-1 $299 $260 $295 $305 1 $184 $-1 #
edge $-1 $275 $297 $274 $306 0 #
coedge $-1 $261 $299 $266 $293 0 $184 $-1 #
straight-curve $-1 -2.8333333333333339 -32.166666666666671 46.833333333333336 0.57735026918962573 -0.57735026918962573 -0.57735026918962573 I I #
straight-curve $-1 -2.8333333333333339 -46.833333333333336 32.166666666666671 -0.57735026918962573 -0.57735026918962573 -0.57735026918962573 I I #
point $-1 4.4999999999999973 -39.500000000000007 39.5 #
edge $-1 $301 $267 $266 $307 0 #
point $-1 4 -40 39 #
coedge $-1 $271 $270 $287 $305 0 $235 $-1 #
point $-1 4 -39 40 #
vertex $-1 $288 $308 #
straight-curve $-1 -4 0 40 0 1 0 F -42.100000000000001 F 43.100000000000001 #
coedge $-1 $289 $287 $280 $300 1 $184 $-1 #
edge $-1 $301 $303 $299 $309 0 #
vertex $-1 $282 $310 #
straight-curve $-1 -4 -40 0 0 0 1 F -43.100000000000001 F 42.100000000000001 #
vertex $-1 $300 $311 #
straight-curve $-1 -17.666666666666668 -26.333333333333336 26.333333333333332 0.57735026918962573 -0.57735026918962573 0.57735026918962573 I I #
edge $-1 $303 $297 $287 $312 0 #
straight-curve $-1 0 -39 40 -1 0 0 F -8.0999999999999996 F 8.0999999999999996 #
straight-curve $-1 0 -40 39 1 0 0 F -8.0999999999999996 F 8.0999999999999996 #
point $-1 -4 -39 40 #
straight-curve $-1 2.8333333333333339 -46.833333333333336 32.166666666666671 -0.57735026918962573 0.57735026918962573 0.57735026918962573 I I #
point $-1 -4 -40 39 #
point $-1 -4.4999999999999973 -39.500000000000007 39.5 #
straight-curve $-1 2.8333333333333339 -32.166666666666671 46.833333333333336 0.57735026918962573 0.57735026918962573 0.57735026918962573 I I #
End-of-ACIS-data 