**ABCDEFGHIJKLMNOPQRSTUVWXYZabcdefghijklmnopqrstuvwxyz**************************
**PARASOLID !"#$%&'()*+,-./:;<=>?@[\]^_`{|}~0123456789**************************
**PART1;MC=sun;MC_MODEL=Sun-3;MC_ID=unknown;OS=SunOS;OS_RELEASE=unknown;FRU=sdl_
parasolid_test_sun;APPL=unknown;SITE=sdl-cambridge-u.k.;USER=kramer;FORMAT=text;
GUISE=transmit;KEY=cals_test;FILE=cals_test.xmt_txt;DATE=11-mar-1991;
**PART2;SCH=SCH_210_1012;USFLD_SIZE=0;
**PART3;
**END_OF_HEADER*****************************************************************
T47 : TRANSMIT FILE created by modeller version 22012 SCH_210_10120 12 1 594 0 0
 0 0 0 1e3 1e-8 2 2 0 0 3 1 4 102 9 2 cals_test13 4 2 0 1 0 5 6 0 7 8 0 14 5 584
 0 9 0 10 4 7 -16 6 573 0 11 0 12 8 51 7 589 0 5 13 0 0 +0 1.237436867076 -1.237
436867076 1 0 0 .156 31 8 576 0 6 14 0 0 +.241 1.237436867076 -1.237436867076 1
 0 0 .156 31 14 570 0 12 15 8 0 +0 1.237436867076 -1.237436867076 -1 0 0 .156 16
 12 567 0 16 6 17 14 31 15 548 0 17 18 14 0 +.241 0 -1.75 1 0 0 .156 16 17 545 0
 19 12 20 15 31 18 542 0 20 21 15 0 +0 0 -1.75 -1 0 0 .156 16 20 539 0 22 17 23
 18 31 21 520 0 23 24 18 0 +.241 -1.237436867076 -1.237436867076 1 0 0 .156 16 2
3 517 0 25 20 26 21 31 24 514 0 26 27 21 0 +0 -1.237436867076 -1.237436867076 -1
 0 0 .156 16 26 511 0 28 23 29 24 31 27 492 0 29 30 24 0 +.241 -1.75 0 1 0 0 .15
6 16 29 489 0 31 26 32 27 31 30 486 0 32 33 27 0 +0 -1.75 0 -1 0 0 .156 16 32 48
3 0 34 29 35 30 31 33 464 0 35 36 30 0 +.241 -1.237436867076 1.237436867076 1 0
 0 .156 16 35 461 0 37 32 38 33 31 36 458 0 38 39 33 0 +0 -1.237436867076 1.2374
36867076 -1 0 0 .156 16 38 455 0 40 35 41 36 31 39 436 0 41 42 36 0 +.241 0 1.75
 1 0 0 .156 16 41 433 0 43 38 44 39 31 42 430 0 44 45 39 0 +0 0 1.75 -1 0 0 .156
 16 44 427 0 46 41 47 42 31 45 408 0 47 48 42 0 +.241 1.237436867076 1.237436867
076 1 0 0 .156 16 47 405 0 49 44 50 45 31 48 402 0 50 51 45 0 +0 1.237436867076
 1.237436867076 -1 0 0 .156 16 50 399 0 52 47 53 48 31 51 380 0 53 54 48 0 +.241
 1.75 0 1 0 0 .156 16 53 377 0 55 50 56 51 31 54 374 0 56 57 51 0 +0 1.75 0 -1 0
 0 .156 16 56 371 0 58 53 59 54 31 57 302 0 59 60 54 0 -.241 0 0 1 0 0 1.24 16 5
9 299 0 61 56 62 57 31 60 296 0 62 63 57 0 +.361 0 0 1 0 0 1.12 16 62 293 0 64 5
9 65 60 31 63 290 0 65 66 60 0 +.375 0 0 -1 0 0 .7565 16 65 287 0 67 62 68 63 31
 66 284 0 68 69 63 0 -.255 0 0 -1 0 0 .8765 16 68 281 0 70 65 71 66 31 69 278 0
 71 72 66 0 -.6185 0 0 1 0 0 .80875 16 71 275 0 73 68 74 69 31 72 272 0 74 75 69
 0 +.7085 0 0 1 0 0 .71875 16 74 269 0 76 71 77 72 31 75 266 0 77 78 72 0 +1.317
 0 0 1 0 0 .625 16 77 263 0 79 74 80 75 31 78 260 0 80 81 75 0 +1.227 0 0 1 0 0
 .741412831426 16 80 257 0 82 77 83 78 31 81 254 0 83 84 78 0 -1.227 0 0 1 0 0 .
715 16 83 251 0 85 80 86 81 31 84 248 0 86 87 81 0 +.8685 0 0 -1 0 0 .7414128314
26 16 86 245 0 88 83 89 84 31 87 242 0 89 90 84 0 +.8915 0 0 1 0 0 .78125 16 89
 239 0 91 86 92 87 31 90 236 0 92 93 87 0 +1.204 0 0 -1 0 0 .78125 16 92 233 0 9
4 89 95 90 31 93 213 0 95 96 90 0 -.1785 0 0 1 0 0 2 16 95 210 0 97 92 98 93 31
 96 207 0 98 99 93 0 +.241 0 0 1 0 0 1.9375 16 98 204 0 100 95 101 96 31 99 188
 0 101 102 96 0 +.375 0 0 1 0 0 .3765 16 101 170 0 103 98 104 99 31 102 186 0 10
4 105 99 0 +0 0 0 1 0 0 .8765 16 104 162 0 106 101 107 102 31 105 185 0 107 108
 102 0 +0 0 0 1 0 0 2 16 107 158 0 109 104 110 105 31 108 182 0 110 111 105 0 +.
6185 0 0 1 0 0 1.12 16 110 146 0 112 107 113 108 31 111 180 0 113 114 108 0 +.86
85 0 0 1 0 0 .71875 16 113 138 0 115 110 116 111 31 114 176 0 116 117 111 0 +1.6
21 0 0 1 0 0 .625 16 116 123 0 118 113 119 114 31 117 175 0 119 0 114 0 +1.621 0
 0 1 0 0 .3765 16 119 121 0 120 116 0 117 17 120 121 120 120 0 122 119 15 121 17
4 0 120 123 124 17 122 125 122 122 0 120 119 15 125 122 0 122 126 127 14 126 119
 0 0 128 125 4 129 +15 127 118 0 118 126 0 17 118 127 118 118 0 130 116 17 130 1
31 130 130 0 118 116 15 131 124 0 130 132 133 14 132 267 0 134 135 131 4 136 +15
 133 264 0 79 132 0 17 79 133 79 79 0 137 77 17 137 138 137 137 0 79 77 15 138 3
34 0 137 139 0 14 139 332 0 140 141 142 4 143 -14 140 321 0 144 139 145 4 146 +1
4 141 343 0 139 147 148 4 149 -15 142 333 0 150 139 138 54 143 337 0 139 146 149
 0 +1.317 0 0 1 0 0 .715 .09 52 146 326 0 140 151 143 0 +1.227 0 0 -1 0 0 .74141
2831426 .866025403783982 .500000000000791 54 149 348 0 141 143 152 0 +.7085 0 0
 1 0 0 .80875 .09 54 152 359 0 147 149 153 0 +.255 0 0 -1 0 0 .7565 .12 14 147 3
54 0 141 154 155 4 152 -54 153 370 0 154 152 156 0 +.361 0 0 1 0 0 1.24 .12 14 1
54 365 0 147 157 158 4 153 -51 156 393 0 157 153 159 0 +0 1.75 0 1 0 0 .156 14 1
57 388 0 154 160 161 4 156 -51 159 421 0 160 156 162 0 +0 1.237436867076 1.23743
6867076 1 0 0 .156 14 160 416 0 157 163 164 4 159 -51 162 449 0 163 159 165 0 +0
 0 1.75 1 0 0 .156 14 163 444 0 160 166 167 4 162 -51 165 477 0 166 162 168 0 +0
 -1.237436867076 1.237436867076 1 0 0 .156 14 166 472 0 163 169 170 4 165 -51 16
8 505 0 169 165 171 0 +0 -1.75 0 1 0 0 .156 14 169 500 0 166 172 173 4 168 -51 1
71 533 0 172 168 13 0 +0 -1.237436867076 -1.237436867076 1 0 0 .156 14 172 528 0
 169 9 174 4 171 -51 13 561 0 9 171 7 0 +0 0 -1.75 1 0 0 .156 14 9 556 0 172 5 1
75 4 13 -15 175 557 0 19 9 176 17 19 175 19 19 0 177 17 15 176 558 0 22 9 0 17 2
2 176 22 22 0 178 20 17 178 179 178 178 0 22 20 15 179 541 0 178 128 180 14 128
 160 0 126 123 181 4 182 +15 180 513 0 183 128 184 17 183 180 183 183 0 28 26 15
 184 485 0 185 128 186 17 185 184 185 185 0 34 32 15 186 457 0 187 128 188 17 18
7 186 187 187 0 40 38 15 188 429 0 189 128 190 17 189 188 189 189 0 46 44 15 190
 401 0 191 128 192 17 191 190 191 191 0 52 50 15 192 373 0 193 128 194 17 193 19
2 193 193 0 58 56 15 194 165 0 106 128 195 17 106 194 106 106 0 196 104 15 195 1
59 0 197 128 0 17 197 195 197 197 0 109 107 17 109 198 109 109 0 197 107 15 198
 161 0 109 199 200 14 199 214 0 123 201 198 4 202 +15 200 211 0 97 199 0 17 97 2
00 97 97 0 203 95 17 203 204 203 203 0 97 95 15 204 222 0 203 201 205 14 201 221
 0 199 206 204 4 207 +15 205 223 0 208 201 0 17 208 205 208 208 0 100 98 17 100
 209 100 100 0 208 98 15 209 205 0 100 210 211 14 210 303 0 212 144 213 4 214 +1
5 211 300 0 61 210 0 17 61 211 61 61 0 215 59 17 215 158 215 215 0 61 59 15 158
 366 0 215 154 216 15 216 367 0 217 154 0 17 217 216 217 217 0 64 62 17 64 218 6
4 64 0 217 62 15 218 294 0 64 212 0 14 212 297 0 219 210 220 4 221 +14 219 291 0
 222 212 223 4 224 +15 220 147 0 225 212 218 51 221 298 0 212 224 214 0 +.42975
 0 0 -1 0 0 1.12 50 224 292 0 219 226 221 0 +.375 0 .6265 -1 0 0 50 214 304 0 21
0 221 151 0 +.241 0 1.56 1 0 0 52 151 315 0 144 214 146 0 +.8915 0 0 1 0 0 .7812
5 .866025403783981 .500000000000793 14 144 310 0 210 140 227 4 151 +15 227 311 0
 228 144 229 17 228 227 228 228 0 88 86 15 229 312 0 230 144 0 17 230 229 230 23
0 0 91 89 17 91 231 91 91 0 230 89 15 231 240 0 91 206 0 14 206 243 0 201 232 23
3 4 234 +14 232 249 0 206 134 235 4 236 +15 233 234 0 94 206 231 51 234 244 0 20
6 207 236 0 +1.04775 0 0 -1 0 0 .78125 54 207 226 0 201 202 234 0 +.1785 0 0 1 0
 0 1.9375 .0625 50 236 250 0 232 234 237 0 +.8685 0 .75 -1 0 0 50 237 262 0 134
 236 136 0 +1.227 0 .703125 1 0 0 14 134 261 0 232 132 238 4 237 +51 136 268 0 1
32 237 239 0 +1.424 0 0 -1 0 0 .625 51 239 274 0 135 136 240 0 +.7435 0 0 -1 0 0
 .71875 14 135 273 0 132 241 242 4 239 +50 240 280 0 241 239 226 0 +.6185 0 .919
375 1 0 0 14 241 279 0 135 222 243 4 240 +51 226 286 0 222 240 224 0 -.1875 0 0
 1 0 0 .8765 14 222 285 0 241 219 244 4 226 +15 244 163 0 196 222 245 17 196 244
 196 196 0 106 104 15 245 282 0 70 222 0 17 70 245 70 70 0 246 68 17 246 247 246
 246 0 70 68 15 247 356 0 246 147 0 15 243 149 0 112 241 248 17 112 243 112 112
 0 225 110 15 248 276 0 73 241 0 17 73 248 73 73 0 249 71 17 249 148 249 249 0 7
3 71 15 148 344 0 249 141 250 15 250 345 0 251 141 0 17 251 250 251 251 0 76 74
 17 76 252 76 76 0 251 74 15 252 270 0 76 135 0 17 225 220 225 225 0 112 110 15
 242 139 0 253 135 252 17 253 242 253 253 0 115 113 17 115 235 115 115 0 253 113
 15 235 141 0 115 232 254 15 254 246 0 88 232 0 17 88 254 88 88 0 228 86 15 238
 252 0 85 134 255 17 85 238 85 85 0 150 83 15 255 258 0 82 134 0 17 82 255 82 82
 0 256 80 17 256 257 256 256 0 82 80 15 257 323 0 256 140 0 17 150 142 150 150 0
 85 83 51 202 215 0 199 258 207 0 +.1205 0 0 -1 0 0 2 51 258 202 0 123 182 202 0
 -.998 0 0 1 0 0 .3765 14 123 172 0 128 199 121 4 258 +50 182 199 0 128 129 258
 0 +0 0 1.43825 -1 0 0 50 129 189 0 126 0 182 0 +1.621 0 .50075 1 0 0 17 94 233
 94 94 0 259 92 17 259 145 259 259 0 94 92 15 145 322 0 259 140 257 15 223 173 0
 103 219 260 17 103 223 103 103 0 261 101 15 260 288 0 67 219 0 17 67 260 67 67
 0 262 65 17 262 155 262 262 0 67 65 15 155 355 0 262 147 247 17 261 124 261 261
 0 103 101 15 124 171 0 261 123 0 15 213 575 0 263 210 264 17 263 213 263 263 0
 11 6 15 264 547 0 177 210 265 17 177 264 177 177 0 19 17 15 265 519 0 266 210 2
67 17 266 265 266 266 0 25 23 15 267 491 0 268 210 269 17 268 267 268 268 0 31 2
9 15 269 463 0 270 210 271 17 270 269 270 270 0 37 35 15 271 435 0 272 210 273 1
7 272 271 272 272 0 43 41 15 273 407 0 274 210 275 17 274 273 274 274 0 49 47 15
 275 379 0 276 210 209 17 276 275 276 276 0 55 53 17 55 161 55 55 0 276 53 15 16
1 389 0 55 157 277 15 277 390 0 58 157 0 17 58 277 58 58 0 193 56 17 49 164 49 4
9 0 274 47 15 164 417 0 49 160 278 15 278 418 0 52 160 0 17 52 278 52 52 0 191 5
0 17 43 167 43 43 0 272 41 15 167 445 0 43 163 279 15 279 446 0 46 163 0 17 46 2
79 46 46 0 189 44 17 37 170 37 37 0 270 35 15 170 473 0 37 166 280 15 280 474 0
 40 166 0 17 40 280 40 40 0 187 38 17 31 173 31 31 0 268 29 15 173 501 0 31 169
 281 15 281 502 0 34 169 0 17 34 281 34 34 0 185 32 17 25 174 25 25 0 266 23 15
 174 529 0 25 172 282 15 282 530 0 28 172 0 17 28 282 28 28 0 183 26 17 11 10 11
 11 0 263 6 15 10 585 0 11 5 283 15 283 586 0 16 5 0 17 16 283 16 16 0 284 12 17
 284 181 284 284 0 16 12 15 181 569 0 284 128 179 1 0 
