600 0 1 0           
7 Unknown 16 ACIS 6.0 Solaris 24 Fri Aug 25 13:39:54 2000 
-1 9.999999999999999547e-07 1.000000000000000036e-10 
body $-1 $1 $-1 $2 #
lump $-1 $-1 $3 $0 #
transform $-1 1 0 0 0 1 0 0 0 1 0 0 0 1 no_rotate no_reflect no_shear #
shell $-1 $-1 $-1 $4 $-1 $1 #
face $5 $6 $7 $3 $-1 $8 forward single #
fmesh-eye-attrib $-1 $-1 $-1 $4 #
face $9 $10 $11 $3 $-1 $12 forward single #
loop $-1 $-1 $13 $4 #
spline-surface $-1 forward { exactsur full nubs 1 1 open open none none 2 2 
	0 1 1.329841170419810981 1 
	0 1 1 1 
	-0.7437243840000009598 53.50000000000002132 -63.89001850000003202 
	-0.7437243840000009598 51.50000000000002132 -63.89001850000003202 
	0.7602146160000009534 53.50000000000002132 -63.89001850000003202 
	0.7602146160000009534 51.50000000000002132 -63.89001850000003202 
	0 
	0 
	0 
	0 
	0 
	0 
	0 
	F 1 F 0 F 1 F 0 } I I I I #
fmesh-eye-attrib $-1 $-1 $-1 $6 #
face $14 $15 $16 $3 $-1 $17 forward single #
loop $-1 $-1 $18 $6 #
spline-surface $-1 forward { exactsur full nubs 1 1 open open none none 2 2 
	0 1 1.329841170419810981 1 
	0 1 1 1 
	0.7602146160000009534 53.50000000000002132 -67.65110150000003841 
	0.7602146160000009534 51.50000000000002132 -67.65110150000003841 
	-0.7437243840000009598 53.50000000000002132 -67.65110150000003841 
	-0.7437243840000009598 51.50000000000002132 -67.65110150000003841 
	0 
	0 
	0 
	0 
	0 
	0 
	0 
	F 1 F 0 F 1 F 0 } I I I I #
coedge $-1 $19 $20 $21 $22 forward $7 $23 #
fmesh-eye-attrib $-1 $-1 $-1 $10 #
face $24 $25 $26 $3 $-1 $27 forward single #
loop $-1 $-1 $28 $10 #
spline-surface $-1 forward { exactsur full nubs 1 1 open open none none 2 2 
	0 1 1 1 
	0 1 1.880541500000000976 1 
	-0.7437243840000009598 53.50000000000002132 -67.65110150000003841 
	-0.7437243840000009598 51.50000000000002132 -67.65110150000003841 
	-0.7437243840000009598 53.50000000000002132 -63.89001850000003202 
	-0.7437243840000009598 51.50000000000002132 -63.89001850000003202 
	0 
	0 
	0 
	0 
	0 
	0 
	0 
	F 1 F 0 F 1 F 0 } I I I I #
coedge $-1 $29 $30 $31 $32 forward $11 $33 #
coedge $-1 $34 $13 $35 $36 forward $7 $37 #
coedge $-1 $13 $34 $38 $39 forward $7 $40 #
coedge $-1 $41 $42 $13 $22 reversed $16 $43 #
edge $44 $45 0 $46 1 $13 $47 forward 7 unknown #
pcurve $-1 0 forward { exppc nubs 2 open 7 
	0 2 0.1666666666666666574 2 0.3333333333333333148 2 0.5 2 0.6666666666666666297 2 
	0.8333333333333333703 2 1 2 
	4.724544916782530566e-15 0 
	0.110820097534987394 0 
	0.2216401950699700696 0 
	0.3324602926049551321 0 
	0.4432803901399401392 0 
	0.5541004876749251462 0 
	0.6649205852099102643 0 
	0.7757406827448929398 0 
	0.8865607802798756154 0 
	0.9973808778148629539 0 
	1.108200975349850292 0 
	1.219021072884830748 0 
	1.329841170419810981 0 
	0.001000000000000000021 
	spline forward { ref 0 } I I I I 
	} 0 0 #
fmesh-eye-attrib $-1 $-1 $-1 $15 #
face $48 $49 $50 $3 $-1 $51 forward single #
loop $-1 $-1 $52 $15 #
spline-surface $-1 forward { exactsur full nubs 1 1 open open none none 2 2 
	0 1 1 1 
	0 1 1.880541500000000976 1 
	0.7602146160000009534 53.50000000000002132 -63.89001850000003202 
	0.7602146160000009534 51.50000000000002132 -63.89001850000003202 
	0.7602146160000009534 53.50000000000002132 -67.65110150000003841 
	0.7602146160000009534 51.50000000000002132 -67.65110150000003841 
	0 
	0 
	0 
	0 
	0 
	0 
	0 
	F 1 F 0 F 1 F 0 } I I I I #
coedge $-1 $42 $41 $53 $54 reversed $16 $55 #
coedge $-1 $53 $18 $56 $57 forward $11 $58 #
coedge $-1 $18 $53 $59 $60 forward $11 $61 #
coedge $-1 $62 $63 $18 $32 reversed $26 $64 #
edge $65 $66 0 $67 1 $18 $68 forward 7 unknown #
pcurve $-1 0 forward { exppc nubs 2 open 7 
	0 2 0.1666666666666666574 2 0.3333333333333333148 2 0.5 2 0.6666666666666666297 2 
	0.8333333333333333703 2 1 2 
	4.724544916782530566e-15 0 
	0.110820097534987394 0 
	0.2216401950699700696 0 
	0.3324602926049551321 0 
	0.4432803901399401392 0 
	0.5541004876749251462 0 
	0.6649205852099102643 0 
	0.7757406827448929398 0 
	0.8865607802798756154 0 
	0.9973808778148629539 0 
	1.108200975349850292 0 
	1.219021072884830748 0 
	1.329841170419810981 0 
	0.001000000000000000021 
	spline forward { ref 1 } I I I I 
	} 0 0 #
coedge $-1 $20 $19 $52 $69 forward $7 $70 #
coedge $-1 $71 $72 $19 $36 reversed $50 $73 #
edge $74 $46 0 $75 1 $19 $76 forward 7 unknown #
pcurve $-1 0 forward { exppc nubs 2 open 7 
	0 2 0.1666666666666666574 2 0.3333333333333333148 2 0.5 2 0.6666666666666666297 2 
	0.8333333333333333703 2 1 2 
	1.329841170419810981 0 
	1.329841170419810981 0.08333333333333331483 
	1.329841170419810981 0.1666666666666666297 
	1.329841170419810981 0.2499999999999999445 
	1.329841170419810981 0.3333333333333332593 
	1.329841170419810981 0.4166666666666666297 
	1.329841170419810981 0.5 
	1.329841170419810981 0.5833333333333332593 
	1.329841170419810981 0.6666666666666665186 
	1.329841170419810981 0.75 
	1.329841170419810981 0.8333333333333333703 
	1.329841170419810981 0.9166666666666667407 
	1.329841170419810981 1 
	0.001000000000000000021 
	spline forward { ref 0 } I I I I 
	} 0 0 #
coedge $-1 $77 $78 $20 $39 reversed $79 $80 #
edge $81 $82 0 $45 1 $20 $83 forward 7 unknown #
pcurve $-1 0 forward { exppc nubs 2 open 7 
	0 2 0.1666666666666666574 2 0.3333333333333333148 2 0.5 2 0.6666666666666666297 2 
	0.8333333333333333703 2 1 2 
	4.724544916782530566e-15 1 
	2.362272458391265283e-15 0.9166666666666666297 
	0 0.8333333333333332593 
	2.362272458391264888e-15 0.75 
	4.724544916782529777e-15 0.6666666666666667407 
	4.724544916782529777e-15 0.5833333333333333703 
	4.724544916782530566e-15 0.5 
	2.362272458391265283e-15 0.4166666666666666852 
	0 0.3333333333333333703 
	2.362272458391273566e-15 0.25 
	4.724544916782547132e-15 0.1666666666666666297 
	4.724544916782539243e-15 0.08333333333333331483 
	4.724544916782530566e-15 0 
	0.001000000000000000021 
	spline forward { ref 0 } I I I I 
	} 0 0 #
coedge $-1 $28 $21 $78 $84 forward $16 $85 #
coedge $-1 $21 $28 $71 $86 forward $16 $87 #
pcurve $-1 0 forward { exppc nubs 2 open 7 
	-1 2 -0.8333333333333333703 2 -0.6666666666666667407 2 -0.5 2 -0.3333333333333333703 2 
	-0.1666666666666666297 2 -0 2 
	1 1.880541500000000976 
	0.9166666666666696273 1.880541500000000976 
	0.8333333333333392545 1.880541500000000976 
	0.7500000000000035527 1.880541500000000976 
	0.6666666666666678509 1.880541500000000976 
	0.5833333333333357018 1.880541500000000976 
	0.5000000000000035527 1.880541500000000976 
	0.4166666666666714036 1.880541500000000976 
	0.3333333333333392545 1.880541500000000976 
	0.2500000000000035527 1.880541500000000976 
	0.1666666666666678509 1.880541500000000976 
	0.08333333333333570181 1.880541500000000976 
	3.552713678800500929e-15 1.880541500000000976 
	0.001000000000000000021 
	spline forward { ref 2 } I I I I 
	} 0 0 #
ptlist-eye-attrib $-1 $-1 $-1 $22 #
vertex $-1 $22 $88 #
vertex $-1 $22 $89 #
intcurve-curve $-1 forward { exactcur full nubs 1 open 2 
	0 1 1 1 
	-0.7437243840000009598 53.50000000000001421 -63.89001850000003202 
	-0.7437243840000009598 51.50000000000001421 -63.89001850000003202 
	0 
	null_surface 
	null_surface 
	nullbs 
	nullbs 
	I I 
	0 
	0 
	0 
	F 1 F 0 } I I #
fmesh-eye-attrib $-1 $-1 $-1 $25 #
face $90 $-1 $79 $3 $-1 $91 forward single #
loop $-1 $-1 $71 $25 #
spline-surface $-1 forward { exactsur full nubs 1 1 open open none none 2 2 
	0 1 2.500821509383027053 1 
	0 1 1 1 
	-0.7437243840000009598 51.50000000000002132 -63.89001850000003202 
	-0.7437243840000009598 51.50000000000002132 -67.65110150000003841 
	0.7602146160000009534 51.50000000000002132 -63.89001850000003202 
	0.7602146160000009534 51.50000000000002132 -67.65110150000003841 
	0 
	0 
	0 
	0 
	0 
	0 
	0 
	F 1 F 0 F 1 F 0 } I I I I #
coedge $-1 $63 $62 $34 $69 reversed $26 $92 #
coedge $-1 $30 $29 $28 $54 forward $11 $93 #
edge $94 $95 0 $96 1 $53 $97 forward 7 unknown #
pcurve $-1 0 forward { exppc nubs 2 open 7 
	-1 2 -0.8333333333333333703 2 -0.6666666666666667407 2 -0.5 2 -0.3333333333333333703 2 
	-0.1666666666666666297 2 -0 2 
	3.552713678800500929e-15 0 
	0.08333333333333570181 0 
	0.1666666666666678509 0 
	0.2500000000000035527 0 
	0.3333333333333392545 0 
	0.4166666666666714036 0 
	0.5000000000000035527 0 
	0.5833333333333357018 0 
	0.6666666666666678509 0 
	0.7500000000000035527 0 
	0.8333333333333392545 0 
	0.9166666666666696273 0 
	1 0 
	0.001000000000000000021 
	spline forward { ref 2 } I I I I 
	} 0 0 #
coedge $-1 $72 $71 $29 $57 reversed $50 $98 #
edge $99 $67 0 $95 1 $29 $100 forward 7 unknown #
pcurve $-1 0 forward { exppc nubs 2 open 7 
	0 2 0.1666666666666666574 2 0.3333333333333333148 2 0.5 2 0.6666666666666666297 2 
	0.8333333333333333703 2 1 2 
	1.329841170419810981 0 
	1.329841170419810981 0.08333333333333334259 
	1.329841170419810981 0.1666666666666666852 
	1.329841170419810981 0.2499999999999999722 
	1.329841170419810981 0.3333333333333332593 
	1.329841170419810981 0.4166666666666666297 
	1.329841170419810981 0.5 
	1.329841170419810981 0.5833333333333332593 
	1.329841170419810981 0.6666666666666666297 
	1.329841170419810981 0.75 
	1.329841170419810981 0.8333333333333333703 
	1.329841170419810981 0.9166666666666667407 
	1.329841170419810981 1 
	0.001000000000000000021 
	spline forward { ref 1 } I I I I 
	} 0 0 #
coedge $-1 $78 $77 $30 $60 reversed $79 $101 #
edge $102 $96 0 $66 1 $30 $103 forward 7 unknown #
pcurve $-1 0 forward { exppc nubs 2 open 7 
	0 2 0.1666666666666666574 2 0.3333333333333333148 2 0.5 2 0.6666666666666666297 2 
	0.8333333333333333703 2 1 2 
	4.724544916782530566e-15 1 
	2.362272458391265283e-15 0.9166666666666667407 
	0 0.8333333333333333703 
	2.362272458391264888e-15 0.75 
	4.724544916782529777e-15 0.6666666666666667407 
	4.724544916782529777e-15 0.5833333333333333703 
	4.724544916782530566e-15 0.5 
	4.724544916782522677e-15 0.4166666666666666852 
	4.724544916782514789e-15 0.3333333333333333703 
	4.724544916782522677e-15 0.2499999999999999445 
	4.724544916782530566e-15 0.1666666666666665464 
	4.724544916782530566e-15 0.0833333333333332732 
	4.724544916782530566e-15 0 
	0.001000000000000000021 
	spline forward { ref 1 } I I I I 
	} 0 0 #
coedge $-1 $52 $31 $77 $104 forward $26 $105 #
coedge $-1 $31 $52 $72 $106 forward $26 $107 #
pcurve $-1 0 forward { exppc nubs 2 open 7 
	-1 2 -0.8333333333333333703 2 -0.6666666666666667407 2 -0.5 2 -0.3333333333333333703 2 
	-0.1666666666666666297 2 -0 2 
	1 1.880541500000000976 
	0.9166666666666696273 1.880541500000000976 
	0.8333333333333392545 1.880541500000000976 
	0.7500000000000035527 1.880541500000000976 
	0.6666666666666678509 1.880541500000000976 
	0.5833333333333357018 1.880541500000000976 
	0.5000000000000035527 1.880541500000000976 
	0.4166666666666714036 1.880541500000000976 
	0.3333333333333392545 1.880541500000000976 
	0.2500000000000035527 1.880541500000000976 
	0.1666666666666678509 1.880541500000000976 
	0.08333333333333570181 1.880541500000000976 
	3.552713678800500929e-15 1.880541500000000976 
	0.001000000000000000021 
	spline forward { ref 4 } I I I I 
	} 0 0 #
ptlist-eye-attrib $-1 $-1 $-1 $32 #
vertex $-1 $32 $108 #
vertex $-1 $32 $109 #
intcurve-curve $-1 forward { exactcur full nubs 1 open 2 
	0 1 1 1 
	0.7602146160000009534 53.50000000000001421 -67.65110150000003841 
	0.7602146160000009534 51.50000000000001421 -67.65110150000003841 
	0 
	null_surface 
	null_surface 
	nullbs 
	nullbs 
	I I 
	0 
	0 
	0 
	F 1 F 0 } I I #
edge $110 $75 0 $82 1 $34 $111 forward 7 unknown #
pcurve $-1 0 forward { exppc nubs 2 open 7 
	0 2 0.1666666666666666574 2 0.3333333333333333148 2 0.5 2 0.6666666666666666297 2 
	0.8333333333333333703 2 1 2 
	1.329841170419810981 1 
	1.219021072884830748 1 
	1.108200975349850292 1 
	0.9973808778148629539 1 
	0.8865607802798756154 1 
	0.7757406827448929398 1 
	0.6649205852099102643 1 
	0.5541004876749275887 1 
	0.4432803901399448576 1 
	0.3324602926049574636 1 
	0.2216401950699700696 1 
	0.110820097534987394 1 
	4.724544916782530566e-15 1 
	0.001000000000000000021 
	spline forward { ref 0 } I I I I 
	} 0 0 #
coedge $-1 $56 $35 $42 $86 reversed $50 $112 #
coedge $-1 $35 $56 $63 $106 reversed $50 $113 #
pcurve $-1 0 forward { exppc nubs 2 open 7 
	-1 2 -0.8333333333333333703 2 -0.6666666666666667407 2 -0.5 2 -0.3333333333333333703 2 
	-0.1666666666666666297 2 -0 2 
	0 1 
	0 0.9166666666666667407 
	0 0.8333333333333333703 
	0 0.75 
	0 0.6666666666666667407 
	0 0.5833333333333333703 
	0 0.5 
	0 0.4166666666666666852 
	0 0.3333333333333333703 
	0 0.25 
	0 0.1666666666666666297 
	0 0.08333333333333331483 
	0 0 
	0.001000000000000000021 
	spline forward { ref 10 } I I I I 
	} 0 0 #
ptlist-eye-attrib $-1 $-1 $-1 $36 #
vertex $-1 $69 $114 #
intcurve-curve $-1 forward { exactcur full nubs 1 open 2 
	0 1 1 1 
	-0.7437243840000009598 51.50000000000001421 -63.89001850000003202 
	0.7602146160000009534 51.50000000000001421 -63.89001850000003202 
	0 
	null_surface 
	null_surface 
	nullbs 
	nullbs 
	I I 
	0 
	0 
	0 
	F 1 F 0 } I I #
coedge $-1 $59 $38 $62 $104 reversed $79 $115 #
coedge $-1 $38 $59 $41 $84 reversed $79 $116 #
loop $-1 $-1 $78 $49 #
pcurve $-1 0 forward { exppc nubs 2 open 7 
	-1 2 -0.8333333333333333703 2 -0.6666666666666667407 2 -0.5 2 -0.3333333333333333703 2 
	-0.1666666666666666297 2 -0 2 
	2.500821509383027053 0 
	2.500821509383027053 0.08333333333333331483 
	2.500821509383027053 0.1666666666666666297 
	2.500821509383027053 0.2499999999999999445 
	2.500821509383027053 0.3333333333333332593 
	2.500821509383027053 0.4166666666666666297 
	2.500821509383027053 0.5 
	2.500821509383027053 0.5833333333333332593 
	2.500821509383027053 0.6666666666666665186 
	2.500821509383027053 0.75 
	2.500821509383027053 0.8333333333333333703 
	2.500821509383027053 0.9166666666666667407 
	2.500821509383027053 1 
	0.001000000000000000021 
	spline forward { exactsur full nubs 1 1 open open none none 2 2 
	0 1 2.500821509383027053 1 
	0 1 1 1 
	-0.7437243840000009598 53.50000000000002132 -67.65110150000003841 
	-0.7437243840000009598 53.50000000000002132 -63.89001850000003202 
	0.7602146160000009534 53.50000000000002132 -67.65110150000003841 
	0.7602146160000009534 53.50000000000002132 -63.89001850000003202 
	0 
	0 
	0 
	0 
	0 
	0 
	0 
	F 1 F 0 F 1 F 0 } I I I I 
	} 0 0 #
ptlist-eye-attrib $-1 $-1 $-1 $39 #
vertex $-1 $39 $117 #
intcurve-curve $-1 forward { exactcur full nubs 1 open 2 
	0 1 1 1 
	0.7602146160000009534 53.50000000000001421 -63.89001850000003202 
	-0.7437243840000009598 53.50000000000001421 -63.89001850000003202 
	0 
	null_surface 
	null_surface 
	nullbs 
	nullbs 
	I I 
	0 
	0 
	0 
	F 1 F 0 } I I #
edge $118 $45 0 $96 1 $41 $119 forward 7 unknown #
pcurve $-1 0 forward { exppc nubs 2 open 7 
	0 2 0.1666666666666666574 2 0.3333333333333333148 2 0.5 2 0.6666666666666666297 2 
	0.8333333333333333703 2 1 2 
	3.552713678800500929e-15 1.880541500000000976 
	3.552713678800500929e-15 1.723829708333333377 
	3.552713678800500929e-15 1.567117916666665778 
	3.552713678800494618e-15 1.410406124999999733 
	3.552713678800488308e-15 1.25369433333333391 
	3.552713678800494618e-15 1.096982541666667199 
	3.552713678800500929e-15 0.9402707500000004881 
	1.776356839400250465e-15 0.7835589583333320007 
	0 0.6268471666666634023 
	1.776356839400256776e-15 0.4701353749999975795 
	3.552713678800513551e-15 0.3134235833333317567 
	3.55271367880050724e-15 0.1567117916666658783 
	3.552713678800500929e-15 0 
	0.001000000000000000021 
	spline forward { ref 2 } I I I I 
	} 0 0 #
edge $120 $95 0 $46 1 $42 $121 forward 7 unknown #
pcurve $-1 0 forward { exppc nubs 2 open 7 
	0 2 0.1666666666666666574 2 0.3333333333333333148 2 0.5 2 0.6666666666666666297 2 
	0.8333333333333333703 2 1 2 
	1 0 
	1 0.1567117916666658783 
	1 0.3134235833333317567 
	1 0.4701353749999975795 
	1 0.6268471666666634023 
	1 0.7835589583333327779 
	1 0.9402707500000021534 
	1 1.096982541666668087 
	1 1.25369433333333391 
	1 1.410406125000003286 
	1 1.567117916666672661 
	1 1.723829708333336708 
	1 1.880541500000000976 
	0.001000000000000000021 
	spline forward { ref 2 } I I I I 
	} 0 0 #
point $-1 -0.7437243840000009598 53.50000000000001421 -63.89001850000003202 #
point $-1 -0.7437243840000009598 51.50000000000001421 -63.89001850000003202 #
fmesh-eye-attrib $-1 $-1 $-1 $49 #
spline-surface $-1 forward { ref 20 } I I I I #
pcurve $-1 0 forward { exppc nubs 2 open 7 
	-1 2 -0.8333333333333333703 2 -0.6666666666666667407 2 -0.5 2 -0.3333333333333333703 2 
	-0.1666666666666666297 2 -0 2 
	3.552713678800500929e-15 0 
	0.08333333333333570181 0 
	0.1666666666666678509 0 
	0.2500000000000035527 0 
	0.3333333333333392545 0 
	0.4166666666666714036 0 
	0.5000000000000035527 0 
	0.5833333333333357018 0 
	0.6666666666666678509 0 
	0.7500000000000035527 0 
	0.8333333333333392545 0 
	0.9166666666666696273 0 
	1 0 
	0.001000000000000000021 
	spline forward { ref 4 } I I I I 
	} 0 0 #
pcurve $-1 0 forward { exppc nubs 2 open 7 
	0 2 0.1666666666666666574 2 0.3333333333333333148 2 0.5 2 0.6666666666666666297 2 
	0.8333333333333333703 2 1 2 
	1.329841170419810981 1 
	1.219021072884830748 1 
	1.108200975349850292 1 
	0.9973808778148629539 1 
	0.8865607802798756154 1 
	0.7757406827448929398 1 
	0.6649205852099102643 1 
	0.5541004876749275887 1 
	0.4432803901399448576 1 
	0.3324602926049574636 1 
	0.2216401950699700696 1 
	0.110820097534987394 1 
	4.724544916782530566e-15 1 
	0.001000000000000000021 
	spline forward { ref 1 } I I I I 
	} 0 0 #
ptlist-eye-attrib $-1 $-1 $-1 $54 #
vertex $-1 $54 $122 #
vertex $-1 $60 $123 #
intcurve-curve $-1 forward { exactcur full nubs 1 open 2 
	0 1 1 1 
	-0.7437243840000009598 51.50000000000001421 -67.65110150000003841 
	-0.7437243840000009598 53.50000000000001421 -67.65110150000003841 
	0 
	null_surface 
	null_surface 
	nullbs 
	nullbs 
	I I 
	0 
	0 
	0 
	F 1 F 0 } I I #
pcurve $-1 0 forward { exppc nubs 2 open 7 
	-1 2 -0.8333333333333333703 2 -0.6666666666666667407 2 -0.5 2 -0.3333333333333333703 2 
	-0.1666666666666666297 2 -0 2 
	2.500821509383027053 0 
	2.500821509383027053 0.08333333333333331483 
	2.500821509383027053 0.1666666666666666297 
	2.500821509383027053 0.2499999999999999445 
	2.500821509383027053 0.3333333333333332593 
	2.500821509383027053 0.4166666666666666297 
	2.500821509383027053 0.5 
	2.500821509383027053 0.5833333333333332593 
	2.500821509383027053 0.6666666666666665186 
	2.500821509383027053 0.75 
	2.500821509383027053 0.8333333333333333703 
	2.500821509383027053 0.9166666666666667407 
	2.500821509383027053 1 
	0.001000000000000000021 
	spline forward { ref 10 } I I I I 
	} 0 0 #
ptlist-eye-attrib $-1 $-1 $-1 $57 #
intcurve-curve $-1 forward { exactcur full nubs 1 open 2 
	0 1 1 1 
	0.7602146160000009534 51.50000000000001421 -67.65110150000003841 
	-0.7437243840000009598 51.50000000000001421 -67.65110150000003841 
	0 
	null_surface 
	null_surface 
	nullbs 
	nullbs 
	I I 
	0 
	0 
	0 
	F 1 F 0 } I I #
pcurve $-1 0 forward { exppc nubs 2 open 7 
	-1 2 -0.8333333333333333703 2 -0.6666666666666667407 2 -0.5 2 -0.3333333333333333703 2 
	-0.1666666666666666297 2 -0 2 
	0 1 
	0 0.9166666666666667407 
	0 0.8333333333333333703 
	0 0.75 
	0 0.6666666666666667407 
	0 0.5833333333333333703 
	0 0.5 
	0 0.4166666666666666852 
	0 0.3333333333333333703 
	0 0.25 
	0 0.1666666666666666297 
	0 0.08333333333333331483 
	0 0 
	0.001000000000000000021 
	spline forward { ref 20 } I I I I 
	} 0 0 #
ptlist-eye-attrib $-1 $-1 $-1 $60 #
intcurve-curve $-1 forward { exactcur full nubs 1 open 2 
	0 1 1 1 
	-0.7437243840000009598 53.50000000000001421 -67.65110150000003841 
	0.7602146160000009534 53.50000000000001421 -67.65110150000003841 
	0 
	null_surface 
	null_surface 
	nullbs 
	nullbs 
	I I 
	0 
	0 
	0 
	F 1 F 0 } I I #
edge $124 $66 0 $82 1 $62 $125 forward 7 unknown #
pcurve $-1 0 forward { exppc nubs 2 open 7 
	0 2 0.1666666666666666574 2 0.3333333333333333148 2 0.5 2 0.6666666666666666297 2 
	0.8333333333333333703 2 1 2 
	3.552713678800500929e-15 1.880541500000000976 
	1.776356839400250465e-15 1.723829708333335153 
	0 1.567117916666669331 
	1.776356839400250465e-15 1.410406125000003508 
	3.552713678800500929e-15 1.253694333333337685 
	3.552713678800500929e-15 1.096982541666668975 
	3.552713678800500929e-15 0.9402707500000004881 
	1.776356839400250465e-15 0.7835589583333337771 
	0 0.6268471666666669551 
	0 0.4701353749999975795 
	0 0.3134235833333281485 
	1.776356839400250465e-15 0.1567117916666640742 
	3.552713678800500929e-15 0 
	0.001000000000000000021 
	spline forward { ref 4 } I I I I 
	} 0 0 #
edge $126 $75 0 $67 1 $63 $127 forward 7 unknown #
pcurve $-1 0 forward { exppc nubs 2 open 7 
	0 2 0.1666666666666666574 2 0.3333333333333333148 2 0.5 2 0.6666666666666666297 2 
	0.8333333333333333703 2 1 2 
	1 0 
	1 0.1567117916666676547 
	1 0.3134235833333353094 
	1 0.4701353750000011322 
	1 0.6268471666666669551 
	1 0.7835589583333328889 
	1 0.9402707499999988228 
	1 1.096982541666668309 
	1 1.253694333333337685 
	1 1.410406125000003508 
	1 1.567117916666669331 
	1 1.723829708333335153 
	1 1.880541500000000976 
	0.001000000000000000021 
	spline forward { ref 4 } I I I I 
	} 0 0 #
point $-1 0.7602146160000009534 53.50000000000001421 -67.65110150000003841 #
point $-1 0.7602146160000009534 51.50000000000001421 -67.65110150000003841 #
ptlist-eye-attrib $-1 $-1 $-1 $69 #
intcurve-curve $-1 forward { exactcur full nubs 1 open 2 
	0 1 1 1 
	0.7602146160000009534 51.50000000000001421 -63.89001850000003202 
	0.7602146160000009534 53.50000000000001421 -63.89001850000003202 
	0 
	null_surface 
	null_surface 
	nullbs 
	nullbs 
	I I 
	0 
	0 
	0 
	F 1 F 0 } I I #
pcurve $-1 0 forward { exppc nubs 2 open 7 
	-1 2 -0.8333333333333333703 2 -0.6666666666666667407 2 -0.5 2 -0.3333333333333333703 2 
	-0.1666666666666666297 2 -0 2 
	0 0 
	0.208401792448582035 0 
	0.41680358489716407 0 
	0.6252053773457532104 0 
	0.8336071697943423509 0 
	1.04200896224292805 0 
	1.250410754691513526 0 
	1.458812547140101668 0 
	1.667214339588689587 0 
	1.875616132037273953 0 
	2.08401792448585832 0 
	2.292419716934442686 0 
	2.500821509383027053 0 
	0.001000000000000000021 
	spline forward { ref 10 } I I I I 
	} 0 0 #
pcurve $-1 0 forward { exppc nubs 2 open 7 
	-1 2 -0.8333333333333333703 2 -0.6666666666666667407 2 -0.5 2 -0.3333333333333333703 2 
	-0.1666666666666666297 2 -0 2 
	2.500821509383027053 1 
	2.292419716934442686 1 
	2.08401792448585832 1 
	1.875616132037273953 1 
	1.667214339588689587 1 
	1.458812547140101668 1 
	1.250410754691513526 1 
	1.04200896224292805 1 
	0.8336071697943423509 1 
	0.6252053773457532104 1 
	0.41680358489716407 1 
	0.208401792448582035 1 
	0 1 
	0.001000000000000000021 
	spline forward { ref 10 } I I I I 
	} 0 0 #
point $-1 0.7602146160000009534 51.50000000000001421 -63.89001850000003202 #
pcurve $-1 0 forward { exppc nubs 2 open 7 
	-1 2 -0.8333333333333333703 2 -0.6666666666666667407 2 -0.5 2 -0.3333333333333333703 2 
	-0.1666666666666666297 2 -0 2 
	2.500821509383027053 1 
	2.292419716934444907 1 
	2.084017924485862761 1 
	1.875616132037273731 1 
	1.667214339588684702 1 
	1.458812547140099003 1 
	1.250410754691513526 1 
	1.042008962242925607 1 
	0.8336071697943375769 1 
	0.6252053773457532104 1 
	0.416803584897168844 1 
	0.208401792448584422 1 
	0 1 
	0.001000000000000000021 
	spline forward { ref 20 } I I I I 
	} 0 0 #
pcurve $-1 0 forward { exppc nubs 2 open 7 
	-1 2 -0.8333333333333333703 2 -0.6666666666666667407 2 -0.5 2 -0.3333333333333333703 2 
	-0.1666666666666666297 2 -0 2 
	0 0 
	0.208401792448584422 0 
	0.416803584897168844 0 
	0.6252053773457532104 0 
	0.8336071697943375769 0 
	1.042008962242925607 0 
	1.250410754691513526 0 
	1.458812547140099003 0 
	1.667214339588684702 0 
	1.875616132037273731 0 
	2.084017924485862761 0 
	2.292419716934444907 0 
	2.500821509383027053 0 
	0.001000000000000000021 
	spline forward { ref 20 } I I I I 
	} 0 0 #
point $-1 0.7602146160000009534 53.50000000000001421 -63.89001850000003202 #
ptlist-eye-attrib $-1 $-1 $-1 $84 #
intcurve-curve $-1 forward { exactcur full nubs 1 open 2 
	0 1 1 1 
	-0.7437243840000009598 53.50000000000001421 -63.89001850000003202 
	-0.7437243840000009598 53.50000000000001421 -67.65110150000003841 
	0 
	null_surface 
	null_surface 
	nullbs 
	nullbs 
	I I 
	0 
	0 
	0 
	F 1 F 0 } I I #
ptlist-eye-attrib $-1 $-1 $-1 $86 #
intcurve-curve $-1 forward { exactcur full nubs 1 open 2 
	0 1 1 1 
	-0.7437243840000009598 51.50000000000001421 -67.65110150000003841 
	-0.7437243840000009598 51.50000000000001421 -63.89001850000003202 
	0 
	null_surface 
	null_surface 
	nullbs 
	nullbs 
	I I 
	0 
	0 
	0 
	F 1 F 0 } I I #
point $-1 -0.7437243840000009598 51.50000000000001421 -67.65110150000003841 #
point $-1 -0.7437243840000009598 53.50000000000001421 -67.65110150000003841 #
ptlist-eye-attrib $-1 $-1 $-1 $104 #
intcurve-curve $-1 forward { exactcur full nubs 1 open 2 
	0 1 1 1 
	0.7602146160000009534 53.50000000000001421 -67.65110150000003841 
	0.7602146160000009534 53.50000000000001421 -63.89001850000003202 
	0 
	null_surface 
	null_surface 
	nullbs 
	nullbs 
	I I 
	0 
	0 
	0 
	F 1 F 0 } I I #
ptlist-eye-attrib $-1 $-1 $-1 $106 #
intcurve-curve $-1 forward { exactcur full nubs 1 open 2 
	0 1 1 1 
	0.7602146160000009534 51.50000000000001421 -63.89001850000003202 
	0.7602146160000009534 51.50000000000001421 -67.65110150000003841 
	0 
	null_surface 
	null_surface 
	nullbs 
	nullbs 
	I I 
	0 
	0 
	0 
	F 1 F 0 } I I #
End-of-ACIS-data 