600 0 1 0           
86 GICL ACIS Healer - Source: /gicl/data5/repository/SDRC_I-DEAS/blender/Part27.sat - 6 0 18 ACIS 6.0.3 Solaris 24 Sat Apr 13 23:10:47 2002 
1 9.999999999999999547e-07 1.000000000000000036e-10 
body $-1 $1 $-1 $2 #
lump $-1 $-1 $3 $0 #
transform $-1 1 0 0 0 1 0 0 0 1 0 0 0 1 no_rotate no_reflect no_shear #
shell $-1 $-1 $-1 $4 $-1 $1 #
face $5 $6 $7 $3 $-1 $8 reversed single #
fmesh-eye-attrib $-1 $-1 $-1 $4 #
face $9 $10 $11 $3 $-1 $12 reversed single #
loop $-1 $-1 $13 $4 #
cone-surface $-1 0 104.6999999618420674 0 0 1 0 0.548780487804877648 0 -2.439024390243902385 1 I I 0 1 2.5 forward I I I I #
fmesh-eye-attrib $-1 $-1 $-1 $6 #
face $14 $15 $16 $3 $-1 $17 reversed single #
loop $-1 $-1 $18 $6 #
plane-surface $-1 -24.73621372529000695 79.50000000000002842 3.552713678800500929e-15 0 1 -7.105427357509630467e-16 -0 7.105427357509630467e-16 1 forward_v I I I I #
coedge $-1 $19 $20 $21 $22 reversed $7 $-1 #
fmesh-eye-attrib $-1 $-1 $-1 $10 #
face $23 $24 $25 $3 $-1 $26 reversed single #
loop $-1 $-1 $27 $10 #
cone-surface $-1 1.140574850981412425 84.50000007450586281 1.776356839400250465e-15 0 1 0 -2.220446049250313081e-14 0 -22.14058370632570671 1 I I 0 1 22.14058370632570671 forward I I I I #
coedge $-1 $28 $29 $27 $30 forward $11 $-1 #
coedge $-1 $31 $13 $20 $32 reversed $7 $-1 #
coedge $-1 $13 $31 $19 $32 forward $7 $-1 #
coedge $-1 $21 $21 $13 $22 forward $33 $-1 #
edge $-1 $34 -1.349482070711664594 $34 4.933703236467922082 $13 $35 forward 7 unknown #
fmesh-eye-attrib $-1 $-1 $-1 $15 #
face $36 $37 $38 $3 $-1 $39 reversed single #
loop $-1 $-1 $40 $15 #
plane-surface $-1 -24.73621372529000695 92.00000018626455756 -10.00000000000000178 0 0 1 1 0 0 forward_v I I I I #
coedge $-1 $41 $42 $18 $30 reversed $16 $-1 #
coedge $-1 $43 $18 $44 $45 forward $11 $-1 #
coedge $-1 $18 $43 $46 $47 forward $11 $-1 #
edge $-1 $48 1.102172083995424767 $49 2.039420569594366128 $18 $50 forward 7 unknown #
coedge $-1 $20 $19 $51 $52 reversed $7 $-1 #
edge $-1 $53 0 $34 0.01322210872417499926 $20 $54 forward 7 unknown #
loop $-1 $-1 $21 $55 #
vertex $-1 $22 $56 #
ellipse-curve $-1 0 104.4999999525026055 0 -3.383535410114074603e-16 1 -0 0.548780487804877648 0 -2.439024390243902385 1 I I #
fmesh-eye-attrib $-1 $-1 $-1 $24 #
face $57 $58 $59 $3 $-1 $60 forward single #
loop $-1 $-1 $61 $24 #
plane-surface $-1 -30.85938372529000517 80.00000000010004442 0 1 -0 0 0 0 -1 forward_v I I I I #
coedge $-1 $62 $63 $64 $65 reversed $25 $-1 #
coedge $-1 $66 $27 $67 $68 forward $16 $-1 #
coedge $-1 $27 $66 $69 $70 forward $16 $-1 #
coedge $-1 $29 $28 $71 $72 forward $11 $-1 #
coedge $-1 $69 $73 $28 $45 reversed $74 $-1 #
edge $-1 $49 -6.123169999999998225 $75 6.123169999999998225 $28 $76 forward 7 unknown #
coedge $-1 $77 $67 $29 $47 reversed $25 $-1 #
edge $-1 $78 -6.123169999999998225 $48 6.123169999999998225 $29 $79 forward 7 unknown #
vertex $-1 $30 $80 #
vertex $-1 $30 $81 #
ellipse-curve $-1 1.140574850981412425 79.50000000000002842 1.776356839400250465e-15 0 1 -7.105427357509630467e-16 -2.220446049250313081e-14 0 -22.14058370632570671 1 I I #
coedge $-1 $51 $51 $31 $52 forward $82 $-1 #
edge $-1 $53 1.349482070711664594 $53 7.632667377891250382 $31 $83 forward 7 unknown #
vertex $-1 $52 $84 #
intcurve-curve $-1 forward { exactcur full nubs 1 open 2 
	0 1 0.01322210872417499926 1 
	2.5 105.5000000000000568 0 
	2.5 104.4999999525026055 0 
	0 
	null_surface 
	null_surface 
	nullbs 
	nullbs 
	I I 
	0 
	0 
	0 
	F 1 F 0 } I I #
face $85 $86 $87 $3 $-1 $88 forward single #
point $-1 2.5 104.4999999525026055 4.656613979999999911e-07 #
fmesh-eye-attrib $-1 $-1 $-1 $37 #
face $89 $90 $74 $3 $-1 $91 reversed single #
loop $-1 $-1 $92 $37 #
plane-surface $-1 -25.29356372529001007 80.50000000000004263 4.440892098500626162e-16 0 1 -0 -0 0 1 forward_v I I I I #
coedge $-1 $93 $94 $92 $95 reversed $38 $-1 #
coedge $-1 $67 $40 $96 $97 reversed $25 $-1 #
coedge $-1 $40 $77 $98 $99 reversed $25 $-1 #
coedge $-1 $100 $101 $40 $65 forward $102 $-1 #
edge $-1 $103 -19.00000289073770432 $104 4.999997061764844375 $40 $105 forward 7 unknown #
coedge $-1 $42 $41 $106 $107 reversed $16 $-1 #
coedge $-1 $46 $62 $41 $68 reversed $25 $-1 #
edge $-1 $48 -5.000000074505834391 $108 19.99999987799674273 $41 $109 forward 7 unknown #
coedge $-1 $110 $44 $42 $70 reversed $74 $-1 #
edge $-1 $111 -19.99999987799674273 $49 5.000000074505834391 $42 $112 forward 7 unknown #
coedge $-1 $94 $93 $43 $72 reversed $38 $-1 #
edge $-1 $75 -10 $78 10.00000000000000355 $43 $113 forward 7 unknown #
coedge $-1 $44 $114 $94 $115 reversed $74 $-1 #
loop $-1 $-1 $116 $58 #
vertex $-1 $72 $117 #
straight-curve $-1 -24.73621372529000695 79.50000000000002842 10.00000000000000178 -1 0 0 I I #
coedge $-1 $63 $46 $93 $118 forward $25 $-1 #
vertex $-1 $47 $119 #
straight-curve $-1 -24.73621372529000695 79.50000000000001421 -10.00000000000000178 1 -0 0 I I #
point $-1 -18.61304372529000872 79.50000000000002842 -10.00000000000000355 #
point $-1 -18.61304372529000872 79.50000000000002842 10 #
loop $-1 $-1 $51 $120 #
ellipse-curve $-1 0 105.5000000000000568 0 0 -1 -0 0.548780487804877648 0 -2.439024390243902385 1 I I #
point $-1 2.5 105.5000000000000568 4.656613979999999911e-07 #
fmesh-eye-attrib $-1 $-1 $-1 $55 #
face $121 $122 $123 $3 $-1 $124 forward single #
loop $-1 $33 $125 $55 #
plane-surface $-1 0 104.4999999525026055 4.656613938891496218e-07 3.383535410114074603e-16 -1 0 0 0 -1 forward_v I I I I #
fmesh-eye-attrib $-1 $-1 $-1 $58 #
face $126 $127 $128 $3 $-1 $129 forward single #
plane-surface $-1 -24.73621372529000695 92.00000018626455756 10.00000000000000178 0 0 -1 -1 0 0 forward_v I I I I #
coedge $-1 $130 $98 $61 $95 forward $59 $-1 #
coedge $-1 $71 $61 $77 $118 reversed $38 $-1 #
coedge $-1 $61 $71 $73 $115 forward $38 $-1 #
edge $-1 $131 -10.00000000000000178 $132 10.00000000000000178 $61 $133 forward 7 unknown #
coedge $-1 $134 $106 $62 $97 forward $87 $-1 #
edge $-1 $108 6.244936862645003472 $103 7.359689277915917316 $62 $135 reversed 7 unknown #
coedge $-1 $92 $136 $63 $99 forward $59 $-1 #
edge $-1 $104 -5.287092584729084166 $131 5.844494999999998441 $63 $137 forward 7 unknown #
coedge $-1 $138 $64 $136 $139 forward $102 $-1 #
coedge $-1 $64 $140 $134 $141 forward $102 $-1 #
loop $-1 $-1 $142 $143 #
vertex $-1 $141 $144 #
vertex $-1 $139 $145 #
straight-curve $-1 -19.72779614056092257 85.49999706176488701 -10 2.757430970021810532e-23 -1 3.308722450212110332e-24 I I #
coedge $-1 $96 $146 $66 $107 forward $87 $-1 #
edge $-1 $111 -2.039420569594366128 $108 -1.102172083995424767 $66 $147 reversed 7 unknown #
vertex $-1 $107 $148 #
straight-curve $-1 -18.61304372529000517 84.50000007450586281 -10.00000000000000178 0 1 0 I I #
coedge $-1 $116 $69 $146 $149 reversed $74 $-1 #
vertex $-1 $107 $150 #
straight-curve $-1 -18.61304372529000872 84.50000007450586281 10.00000000000000178 -0 -1 -0 I I #
straight-curve $-1 -30.85938372529000517 79.50000000000002842 1.953992523373524184e-15 0 -7.105427357509630467e-16 -1 I I #
coedge $-1 $73 $116 $130 $151 reversed $74 $-1 #
edge $-1 $75 -6.50000009318227967 $132 -5.500000093182265459 $94 $152 forward 7 unknown #
coedge $-1 $114 $110 $138 $153 reversed $74 $-1 #
point $-1 -30.85938372529000517 79.50000000000002842 10.00000000000000178 #
edge $-1 $78 -6.50000009318227967 $131 -5.500000093182265459 $77 $154 forward 7 unknown #
point $-1 -30.85938372529000517 79.50000000000002842 -10.00000000000000178 #
face $155 $-1 $156 $3 $-1 $157 forward single #
fmesh-eye-attrib $-1 $-1 $-1 $86 #
face $158 $159 $160 $3 $-1 $161 forward single #
loop $-1 $-1 $162 $86 #
plane-surface $-1 0 104.9999999762513312 17.5000004656614081 0 0 1 1 0 0 forward_v I I I I #
coedge $-1 $163 $164 $165 $166 reversed $87 $-1 #
fmesh-eye-attrib $-1 $-1 $-1 $90 #
face $167 $168 $169 $3 $-1 $170 forward single #
loop $-1 $-1 $171 $90 #
plane-surface $-1 24.73621372529000695 79.50000000000002842 3.552713678800500929e-15 0 -1 7.105427357509631453e-16 0 -7.105427357509631453e-16 -1 forward_v I I I I #
coedge $-1 $136 $92 $114 $151 forward $59 $-1 #
vertex $-1 $99 $172 #
vertex $-1 $95 $173 #
straight-curve $-1 -30.85938372529000517 80.50000000000004263 2.220446049250313081e-16 0 0 1 I I #
coedge $-1 $174 $96 $101 $141 reversed $87 $-1 #
straight-curve $-1 -12.36810686264500525 104.4999999525026055 -10.00000000000000178 1 3.383535410114074603e-16 -0 I I #
coedge $-1 $98 $130 $100 $139 reversed $59 $-1 #
straight-curve $-1 -25.01488872529000673 80.50000000000004263 -10.00000000000000178 -1 0 0 I I #
coedge $-1 $175 $100 $116 $153 forward $102 $-1 #
edge $-1 $104 1.123931555610468536 $176 2.017661093702761477 $136 $177 forward 7 unknown #
coedge $-1 $101 $142 $178 $179 forward $102 $-1 #
edge $-1 $180 0.8106047088653265398 $103 1.123931555610468536 $134 $181 reversed 7 unknown #
coedge $-1 $140 $182 $183 $184 forward $102 $-1 #
face $185 $186 $102 $3 $-1 $187 forward single #
point $-1 -19.72779614056092257 104.4999999525025913 -10.00000000000000355 #
point $-1 -19.72779614056092257 80.50000000000004263 -10.00000000000000355 #
coedge $-1 $106 $188 $110 $149 forward $87 $-1 #
ellipse-curve $-1 1.140574850981412425 104.4999999525026055 1.776356839400250465e-15 -3.383535410114074603e-16 1 -0 -2.220446049250313081e-14 0 -22.14058370632570671 1 I I #
point $-1 -18.61304372529000872 104.4999999525026055 -10.00000000000000355 #
edge $-1 $189 -7.359689277915917316 $111 -6.244936862645003472 $110 $190 reversed 7 unknown #
point $-1 -18.61304372529000872 104.4999999525026055 10 #
edge $-1 $132 -5.844495000000001994 $176 5.287092584729084166 $130 $191 reversed 7 unknown #
straight-curve $-1 -30.85938372529000873 86.00000009318230809 10.00000000000000178 0 1 0 I I #
edge $-1 $176 -4.999997061764844375 $189 19.00000289073771853 $116 $192 forward 7 unknown #
straight-curve $-1 -30.85938372529000517 86.00000009318230809 -10.00000000000000178 0 1 -0 I I #
fmesh-eye-attrib $-1 $-1 $-1 $120 #
loop $-1 $82 $193 $120 #
plane-surface $-1 -1.065814103640150279e-14 105.5000000000000568 4.656613974418633006e-07 -0 1 0 0 -0 1 forward_v I I I I #
fmesh-eye-attrib $-1 $-1 $-1 $122 #
face $194 $195 $196 $3 $-1 $197 forward single #
loop $-1 $-1 $198 $122 #
cone-surface $-1 12.00599274895278157 105.2999999905005524 12.49997175404021732 -1.232595164407830946e-32 -1 -1.232595164407830946e-32 4.594946357246773694 3.233665162169509333e-32 -1.971485503639546 1 I I 0 1 5.00002871162119078 forward I I I I #
coedge $-1 $199 $200 $201 $202 reversed $123 $-1 #
coedge $-1 $203 $125 $204 $205 reversed $87 $-1 #
coedge $-1 $125 $206 $207 $208 reversed $87 $-1 #
coedge $-1 $209 $210 $125 $166 forward $211 $-1 #
edge $-1 $212 6.244936862645007025 $213 7.359689277915920869 $165 $214 reversed 7 unknown #
fmesh-eye-attrib $-1 $-1 $-1 $127 #
face $215 $216 $217 $3 $-1 $218 forward single #
loop $-1 $-1 $219 $127 #
cone-surface $-1 -1.140574850981412425 84.50000007450586281 1.776356839400250465e-15 0 -1 0 2.220446049250313081e-14 0 -22.14058370632570671 1 I I 0 -1 22.14058370632570671 forward I I I I #
coedge $-1 $220 $221 $219 $222 forward $128 $-1 #
point $-1 -30.85938372529000517 80.50000000000004263 -10.00000000000000178 #
point $-1 -30.85938372529000873 80.50000000000004263 10.00000000000000178 #
coedge $-1 $223 $134 $224 $225 forward $87 $-1 #
coedge $-1 $182 $138 $188 $226 forward $102 $-1 #
vertex $-1 $153 $227 #
ellipse-curve $-1 1.140574850981412425 80.50000000000004263 1.776356855943852855e-15 0 1 -0 -4.948119229930277766e-08 -1.26067619309001757e-16 -23.14063326360464146 1 I I #
coedge $-1 $228 $224 $140 $179 reversed $229 $-1 #
edge $-1 $230 -0.2000000094995044719 $180 0.8000000379979468335 $178 $231 forward 7 unknown #
vertex $-1 $225 $232 #
ellipse-curve $-1 1.140574850981412425 104.4999999525026055 1.776356776534514444e-15 3.383535410114074603e-16 -1 0 -4.948119229930277766e-08 -1.26067619309001757e-16 -23.14063326360464146 1 I I #
coedge $-1 $142 $175 $233 $234 forward $102 $-1 #
coedge $-1 $193 $235 $142 $184 reversed $156 $-1 #
edge $-1 $236 -2.330988011289418349 $230 -0.8106047088653265398 $142 $237 forward 7 unknown #
fmesh-eye-attrib $-1 $-1 $-1 $143 #
face $238 $120 $239 $3 $-1 $240 forward single #
cone-surface $-1 1.140574850981412425 85.49999706176490122 1.776356839400250465e-15 -2.75743097002181112e-23 1.000000000000000222 -3.308722450212110699e-24 -4.948119229930277766e-08 -1.26067619309001757e-16 -23.14063326360464146 1 I I 0 1 23.14063326360463435 forward I I I I #
coedge $-1 $146 $241 $175 $226 reversed $87 $-1 #
vertex $-1 $226 $242 #
straight-curve $-1 -12.36810686264500525 104.4999999525026055 10.00000000000000178 -1 -3.383535410114074603e-16 -0 I I #
straight-curve $-1 -25.01488872529000673 80.50000000000004263 10.00000000000000178 -1 0 0 I I #
straight-curve $-1 -19.72779614056092257 85.49999706176488701 10 -2.757430970021810532e-23 1 -3.308722450212110332e-24 I I #
coedge $-1 $201 $183 $243 $244 forward $156 $-1 #
fmesh-eye-attrib $-1 $-1 $-1 $159 #
face $245 $246 $247 $3 $-1 $248 forward single #
loop $-1 $-1 $249 $159 #
cone-surface $-1 -1.140574850981412425 100.4999977955211108 1.776356839400250465e-15 2.536525044920033625e-23 -1 0 4.948120651015794947e-08 3.642505312198324359e-15 -23.14063326360464146 1 I I 0 1 23.14063326360464146 forward I I I I #
coedge $-1 $250 $251 $252 $253 reversed $160 $-1 #
coedge $-1 $254 $162 $255 $256 forward $123 $-1 #
coedge $-1 $162 $254 $250 $257 reversed $123 $-1 #
coedge $-1 $252 $193 $162 $202 forward $156 $-1 #
edge $-1 $258 -12.00599274895277091 $259 12.0059927489527869 $162 $260 reversed 7 unknown #
coedge $-1 $261 $163 $262 $263 reversed $87 $-1 #
coedge $-1 $264 $265 $163 $205 forward $169 $-1 #
edge $-1 $266 -2.039420569594366128 $212 -1.102172083995424767 $204 $267 reversed 7 unknown #
coedge $-1 $164 $223 $268 $269 forward $87 $-1 #
coedge $-1 $270 $271 $164 $208 forward $196 $-1 #
edge $-1 $213 -1.123931555610468092 $272 -0.8106047088653258736 $164 $273 reversed 7 unknown #
coedge $-1 $274 $165 $271 $275 forward $211 $-1 #
coedge $-1 $165 $276 $264 $277 forward $211 $-1 #
loop $-1 $-1 $209 $278 #
vertex $-1 $205 $279 #
vertex $-1 $208 $280 #
straight-curve $-1 12.3681068626450017 104.4999999525026055 -10.00000000000000178 -1 -3.383535410114074603e-16 -0 I I #
fmesh-eye-attrib $-1 $-1 $-1 $168 #
face $281 $282 $283 $3 $-1 $284 forward single #
loop $-1 $-1 $285 $168 #
plane-surface $-1 24.73621372529000695 92.00000018626455756 10.00000000000000178 0 0 1 1 0 0 forward_v I I I I #
coedge $-1 $265 $264 $171 $222 reversed $169 $-1 #
coedge $-1 $286 $171 $276 $287 forward $128 $-1 #
coedge $-1 $171 $286 $288 $289 reversed $128 $-1 #
edge $-1 $290 -2.039420569594366128 $291 -1.102172083995424767 $171 $292 forward 7 unknown #
coedge $-1 $206 $174 $293 $294 forward $87 $-1 #
coedge $-1 $178 $295 $174 $225 reversed $229 $-1 #
edge $-1 $180 1.165492011014853446 $296 1.976096722018461982 $174 $297 forward 7 unknown #
edge $-1 $189 2.017661093702761477 $298 2.330988011289418349 $188 $299 reversed 7 unknown #
point $-1 -19.72779614056092257 80.50000000000004263 10.00000000000000178 #
coedge $-1 $295 $178 $235 $300 reversed $229 $-1 #
loop $-1 $-1 $228 $301 #
vertex $-1 $184 $302 #
straight-curve $-1 -15.62953438793165262 105.2999999905005524 -15.94529221919649231 1.232595164407830946e-32 -1 -1.232595164407830946e-32 I I #
point $-1 -15.62953438793165262 104.4999999525026055 -15.94529221919649231 #
coedge $-1 $303 $243 $182 $234 reversed $239 $-1 #
edge $-1 $298 19.00000289073770787 $236 20.00000293823515918 $182 $304 forward 7 unknown #
coedge $-1 $183 $305 $228 $300 forward $156 $-1 #
vertex $-1 $244 $306 #
ellipse-curve $-1 1.140574850981412425 105.5000000000000568 1.776356773225791797e-15 0 -1 -0 -4.948119229930277766e-08 -1.26067619309001757e-16 -23.14063326360464146 1 I I #
fmesh-eye-attrib $-1 $-1 $-1 $186 #
loop $-1 $-1 $243 $186 #
cone-surface $-1 -12.00599274895277624 105.2999999905005808 12.49997175404021732 -1.232595164407830946e-32 -1 -1.232595164407830946e-32 4.594946357246770141 8.093752159141996357e-32 1.971485503639552883 1 I I 0 1 5.000012024130729316 forward I I I I #
coedge $-1 $188 $307 $303 $308 forward $87 $-1 #
point $-1 -19.72779614056092257 104.4999999525026055 10 #
coedge $-1 $233 $255 $193 $244 reversed $239 $-1 #
edge $-1 $236 -1.976100571733422129 $258 -1.165495931571329136 $243 $309 reversed 7 unknown #
fmesh-eye-attrib $-1 $-1 $-1 $195 #
face $310 $301 $311 $3 $-1 $312 forward single #
loop $-1 $-1 $313 $195 #
cone-surface $-1 12.00599363446968226 105.2999999905005808 -12.49997082271741888 1.232595164407830946e-32 -1 -1.232595164407830946e-32 -4.594946357246771029 3.233665162169501122e-32 -1.971485503639549774 1 I I 0 1 5.000012024130717769 forward I I I I #
coedge $-1 $314 $270 $315 $316 forward $196 $-1 #
coedge $-1 $317 $198 $200 $257 forward $160 $-1 #
coedge $-1 $198 $317 $314 $318 reversed $160 $-1 #
coedge $-1 $315 $201 $198 $253 forward $156 $-1 #
edge $-1 $259 -1.976096722018462648 $319 -1.165492081856368989 $198 $320 reversed 7 unknown #
coedge $-1 $200 $199 $307 $321 reversed $123 $-1 #
coedge $-1 $243 $303 $199 $256 reversed $239 $-1 #
edge $-1 $258 -0.2000000094994902611 $322 0.8000000379979610443 $199 $323 forward 7 unknown #
edge $-1 $259 -0.2000000094994902611 $324 0.8000000379979610443 $200 $325 forward 7 unknown #
vertex $-1 $244 $326 #
vertex $-1 $253 $327 #
straight-curve $-1 -5.329070518200751394e-15 105.5000000000000568 17.5000004656614081 -1 -0 0 I I #
coedge $-1 $328 $203 $329 $330 reversed $87 $-1 #
coedge $-1 $331 $285 $203 $263 forward $217 $-1 #
edge $-1 $332 -7.359689277915920869 $266 -6.244936862645007025 $262 $333 reversed 7 unknown #
coedge $-1 $219 $204 $210 $277 reversed $169 $-1 #
coedge $-1 $204 $219 $331 $334 reversed $169 $-1 #
vertex $-1 $205 $335 #
ellipse-curve $-1 -1.140574850981412425 104.4999999525026055 1.776356839400250465e-15 3.383535410114074603e-16 -1 0 2.220446049250313081e-14 0 -22.14058370632570671 1 I I #
coedge $-1 $336 $337 $206 $269 reversed $247 $-1 #
edge $-1 $338 1.165495931571329802 $272 1.976100642574937449 $206 $339 forward 7 unknown #
coedge $-1 $249 $207 $337 $340 forward $196 $-1 #
coedge $-1 $207 $341 $209 $275 reversed $196 $-1 #
vertex $-1 $208 $342 #
ellipse-curve $-1 -1.140574850981412425 104.4999999525026055 1.776356839400250465e-15 3.383535410114074603e-16 -1 0 4.948120651015794947e-08 3.642505312198324359e-15 -23.14063326360464146 1 I I #
coedge $-1 $343 $209 $344 $345 forward $211 $-1 #
edge $-1 $213 -4.000002156981508961 $346 19.99999779552106816 $209 $347 forward 7 unknown #
coedge $-1 $210 $343 $220 $287 reversed $211 $-1 #
edge $-1 $291 -5.000000074505834391 $212 19.99999987799674273 $264 $348 reversed 7 unknown #
face $349 $55 $211 $3 $-1 $350 forward single #
point $-1 18.61304372529000872 104.4999999525026055 -10.00000000000000355 #
point $-1 19.72779614056092257 104.4999999525026197 -10 #
fmesh-eye-attrib $-1 $-1 $-1 $216 #
face $351 $278 $352 $3 $-1 $353 reversed single #
loop $-1 $-1 $354 $216 #
plane-surface $-1 30.85938372529000517 80.00000000010004442 0 1 -0 0 0 0 -1 forward_v I I I I #
coedge $-1 $262 $355 $356 $357 forward $217 $-1 #
coedge $-1 $221 $220 $358 $359 forward $128 $-1 #
edge $-1 $291 -6.123169999999998225 $360 6.123169999999998225 $220 $361 forward 7 unknown #
coedge $-1 $362 $331 $221 $289 forward $217 $-1 #
edge $-1 $290 -6.123169999999998225 $363 6.123169999999998225 $221 $364 reversed 7 unknown #
vertex $-1 $222 $365 #
vertex $-1 $222 $366 #
ellipse-curve $-1 -1.140574850981412425 79.50000000000002842 1.776356839400250465e-15 -0 1 -7.105427357509631453e-16 2.220446049250313081e-14 0 -22.14058370632570671 1 I I #
coedge $-1 $367 $368 $223 $294 reversed $311 $-1 #
edge $-1 $296 -12.00599363446968049 $338 12.00599363446968226 $223 $369 forward 7 unknown #
coedge $-1 $224 $228 $367 $370 forward $229 $-1 #
vertex $-1 $225 $371 #
ellipse-curve $-1 -12.00599363446968049 104.4999999525026055 -12.49997082271741888 3.383535410114074603e-16 -1 0 -4.594946357246774582 8.093752159141989788e-32 1.971485503639542669 1 I I #
vertex $-1 $226 $372 #
ellipse-curve $-1 1.140574850981412425 104.4999999525026055 1.776356776534514444e-15 3.383535410114074603e-16 -1 0 -4.948119229930277766e-08 -1.26067619309001757e-16 -23.14063326360464146 1 I I #
edge $-1 $373 -1.976096722018461982 $230 -1.165492011014853446 $228 $374 reversed 7 unknown #
face $375 $143 $229 $3 $-1 $376 forward single #
point $-1 -15.62953438793165262 105.5000000000000568 -15.94529221919649231 #
coedge $-1 $255 $233 $241 $308 reversed $239 $-1 #
straight-curve $-1 -15.62953325834294915 85.49999706176490122 15.94529340721639876 -2.75743097002181112e-23 1.000000000000000222 -3.308722450212110699e-24 I I #
coedge $-1 $235 $377 $378 $379 forward $156 $-1 #
point $-1 -15.62953325834294915 105.5000000000000568 15.94529340721639876 #
coedge $-1 $241 $328 $254 $321 forward $87 $-1 #
edge $-1 $322 1.165495931571329136 $298 1.976100571733422351 $241 $380 forward 7 unknown #
ellipse-curve $-1 -12.00599274895277624 105.5000000000000568 12.49997175404021732 0 -1 -0 4.594946357246770141 8.093752159141996357e-32 1.971485503639552883 1 I I #
fmesh-eye-attrib $-1 $-1 $-1 $246 #
loop $-1 $-1 $378 $246 #
plane-surface $-1 0 104.9999999762513312 -17.49999953433860966 0 0 -1 -1 0 0 forward_v I I I I #
coedge $-1 $337 $336 $377 $381 reversed $247 $-1 #
coedge $-1 $329 $249 $251 $318 forward $196 $-1 #
coedge $-1 $377 $252 $249 $316 reversed $156 $-1 #
edge $-1 $382 0.8106047088653259847 $319 2.330988011289417461 $249 $383 forward 7 unknown #
coedge $-1 $251 $250 $328 $384 reversed $160 $-1 #
edge $-1 $319 -0.2000000094995044719 $385 0.8000000379979468335 $251 $386 forward 7 unknown #
vertex $-1 $316 $387 #
ellipse-curve $-1 12.00599274895278157 105.5000000000000568 12.49997175404021732 0 -1 -0 4.594946357246773694 3.233665162169509333e-32 -1.971485503639546 1 I I #
edge $-1 $324 -12.00599274895278157 $322 12.00599274895277624 $307 $388 forward 7 unknown #
vertex $-1 $308 $389 #
straight-curve $-1 -12.00599274895277624 105.2999999905005666 17.5000004656614081 -1.232595164407830946e-32 -1 -1.232595164407830946e-32 I I #
vertex $-1 $384 $390 #
straight-curve $-1 12.00599274895278157 105.2999999905005666 17.5000004656614081 -1.232595164407830946e-32 -1 -1.232595164407830946e-32 I I #
point $-1 -12.00599274895277624 105.5000000000000568 17.5000004656614081 #
point $-1 12.00599274895278157 105.5000000000000568 17.5000004656614081 #
coedge $-1 $307 $261 $317 $384 forward $87 $-1 #
coedge $-1 $356 $314 $261 $330 forward $196 $-1 #
edge $-1 $385 -2.330988011289417461 $332 -2.017661093702760589 $261 $391 reversed 7 unknown #
coedge $-1 $288 $262 $265 $334 forward $217 $-1 #
vertex $-1 $330 $392 #
straight-curve $-1 12.3681068626450017 104.4999999525026055 10.00000000000000178 1 3.383535410114074603e-16 -0 I I #
edge $-1 $266 -19.99999987799674273 $290 5.000000074505834391 $265 $393 reversed 7 unknown #
point $-1 18.61304372529000872 104.4999999525026055 10 #
coedge $-1 $313 $268 $368 $394 reversed $247 $-1 #
coedge $-1 $268 $313 $270 $340 reversed $247 $-1 #
vertex $-1 $269 $395 #
ellipse-curve $-1 12.00599363446968226 104.4999999525026055 -12.49997082271741888 3.383535410114074603e-16 -1 0 -4.594946357246771029 3.233665162169501122e-32 -1.971485503639549774 1 I I #
edge $-1 $272 4.000002156981508961 $382 5.000002204478946055 $270 $396 reversed 7 unknown #
coedge $-1 $271 $356 $397 $398 forward $196 $-1 #
point $-1 15.62953438793164906 104.4999999525026197 -15.94529221919649231 #
coedge $-1 $276 $274 $399 $400 reversed $211 $-1 #
coedge $-1 $397 $401 $274 $345 reversed $352 $-1 #
edge $-1 $346 -5.287092584729084166 $402 5.844495000000001994 $344 $403 forward 7 unknown #
vertex $-1 $275 $404 #
straight-curve $-1 19.72779614056092257 100.4999977955211108 -10.00000000000000178 2.536525044920033331e-23 -1 0 I I #
straight-curve $-1 18.61304372529000517 84.50000007450586281 -10.00000000000000178 -0 -1 0 I I #
fmesh-eye-attrib $-1 $-1 $-1 $278 #
plane-surface $-1 24.73621372529000695 92.00000018626455756 -10.00000000000000178 0 0 -1 -1 0 0 forward_v I I I I #
fmesh-eye-attrib $-1 $-1 $-1 $282 #
loop $-1 $-1 $401 $282 #
plane-surface $-1 25.29356372529001007 80.50000000000004263 4.440892098500626162e-16 0 -1 0 0 0 -1 forward_v I I I I #
coedge $-1 $405 $399 $401 $406 forward $283 $-1 #
coedge $-1 $285 $362 $407 $408 forward $217 $-1 #
coedge $-1 $341 $329 $285 $357 reversed $196 $-1 #
edge $-1 $409 -19.99999779552106816 $332 4.00000215698149475 $285 $410 forward 7 unknown #
coedge $-1 $399 $405 $286 $359 reversed $283 $-1 #
edge $-1 $360 -10.00000000000000355 $363 10 $286 $411 forward 7 unknown #
vertex $-1 $359 $412 #
straight-curve $-1 24.73621372529000695 79.50000000000001421 -10.00000000000000178 1 0 0 I I #
coedge $-1 $355 $288 $405 $413 forward $217 $-1 #
vertex $-1 $289 $414 #
straight-curve $-1 24.73621372529000695 79.50000000000002842 10.00000000000000178 -1 0 0 I I #
point $-1 18.61304372529000872 79.50000000000002842 10 #
point $-1 18.61304372529000872 79.50000000000002842 -10.00000000000000355 #
coedge $-1 $378 $293 $295 $370 reversed $311 $-1 #
coedge $-1 $293 $378 $336 $394 forward $311 $-1 #
straight-curve $-1 8.458838927058457496e-17 104.4999999525026055 -17.49999953433860966 1 3.383535410114074603e-16 0 I I #
edge $-1 $373 -0.2000000094994902611 $296 0.8000000379979610443 $367 $415 forward 7 unknown #
point $-1 -12.00599363446968049 104.4999999525026055 -17.49999953433860966 #
point $-1 -15.62953325834295271 104.4999999525026055 15.94529340721640231 #
vertex $-1 $300 $416 #
ellipse-curve $-1 -12.00599363446968049 105.5000000000000568 -12.49997082271741888 0 -1 -0 -4.594946357246774582 8.093752159141989788e-32 1.971485503639542669 1 I I #
fmesh-eye-attrib $-1 $-1 $-1 $301 #
cone-surface $-1 -12.00599363446968049 105.2999999905005524 -12.49997082271741888 1.232595164407830946e-32 -1 -1.232595164407830946e-32 -4.594946357246774582 8.093752159141989788e-32 1.971485503639542669 1 I I 0 1 5.000028711621195221 forward I I I I #
coedge $-1 $305 $315 $313 $381 forward $156 $-1 #
coedge $-1 $368 $367 $305 $379 reversed $311 $-1 #
edge $-1 $417 -12.00599363446968759 $373 12.00599363446967516 $378 $418 reversed 7 unknown #
ellipse-curve $-1 -12.00599274895277624 104.4999999525026055 12.49997175404021732 3.383535410114074603e-16 -1 0 4.594946357246770141 8.093752159141996357e-32 1.971485503639552883 1 I I #
edge $-1 $382 -1.976100642574937893 $417 -1.165495931571329802 $313 $419 reversed 7 unknown #
vertex $-1 $381 $420 #
ellipse-curve $-1 -1.140574850981412425 105.5000000000000568 1.776356839400250465e-15 0 -1 -0 4.948120651015794947e-08 3.642505312198324359e-15 -23.14063326360464146 1 I I #
edge $-1 $385 1.165492081856369211 $324 1.976096722018462648 $328 $421 forward 7 unknown #
vertex $-1 $384 $422 #
straight-curve $-1 15.62953325834295804 105.2999999905005524 15.94529340721639876 -1.232595164407830946e-32 -1 -1.232595164407830946e-32 I I #
point $-1 15.62953325834295626 105.5000000000000568 15.94529340721639699 #
straight-curve $-1 8.458838927058457496e-17 104.4999999525026055 17.5000004656614081 -1 -3.383535410114074603e-16 0 I I #
point $-1 -12.00599274895277624 104.4999999525026055 17.5000004656614081 #
point $-1 12.00599274895278157 104.4999999525026055 17.5000004656614081 #
ellipse-curve $-1 -1.140574850981412425 104.4999999525026055 1.776356839400250465e-15 3.383535410114074603e-16 -1 0 4.948120651015794947e-08 3.642505312198324359e-15 -23.14063326360464146 1 I I #
point $-1 19.72779614056092257 104.4999999525026055 10.00000000000000355 #
straight-curve $-1 18.61304372529000872 84.50000007450586281 10.00000000000000178 0 1 0 I I #
edge $-1 $417 -0.2000000094994902611 $338 0.8000000379979610443 $336 $423 forward 7 unknown #
point $-1 12.00599363446968226 104.4999999525026055 -17.49999953433860966 #
straight-curve $-1 15.62953438793165262 100.4999977955211108 -15.94529221919649231 2.536525044920033625e-23 -1 0 I I #
coedge $-1 $407 $344 $341 $398 reversed $352 $-1 #
edge $-1 $409 -2.017661093702760589 $346 -1.123931555610467869 $397 $424 reversed 7 unknown #
coedge $-1 $354 $358 $343 $400 forward $283 $-1 #
edge $-1 $360 -6.500000093182293881 $402 -5.500000093182265459 $399 $425 forward 7 unknown #
coedge $-1 $344 $407 $354 $406 reversed $352 $-1 #
vertex $-1 $406 $426 #
straight-curve $-1 25.01488872529000673 80.50000000000004263 -10.00000000000000178 1 0 0 I I #
point $-1 19.72779614056092257 80.50000000000004263 -10.00000000000000178 #
coedge $-1 $358 $354 $362 $413 reversed $283 $-1 #
edge $-1 $402 -10.00000000000000178 $427 10.00000000000000178 $354 $428 reversed 7 unknown #
coedge $-1 $401 $397 $355 $408 reversed $352 $-1 #
edge $-1 $427 -5.844494999999998441 $409 5.287092584729084166 $355 $429 reversed 7 unknown #
vertex $-1 $398 $430 #
straight-curve $-1 19.72779614056092257 100.4999977955211108 10.00000000000000178 -2.536525044920033331e-23 1 -0 I I #
straight-curve $-1 30.85938372529000517 79.50000000000002842 1.953992523373524184e-15 0 7.105427357509631453e-16 1 I I #
point $-1 30.85938372529000517 79.50000000000001421 -10.00000000000000178 #
edge $-1 $363 -6.50000009318227967 $427 -5.500000093182265459 $362 $431 forward 7 unknown #
point $-1 30.85938372529000517 79.50000000000002842 10.00000000000000178 #
straight-curve $-1 -12.00599363446968049 105.2999999905005666 -17.49999953433860966 1.232595164407830946e-32 -1 -1.232595164407830946e-32 I I #
point $-1 -12.00599363446968049 105.5000000000000568 -17.49999953433860966 #
vertex $-1 $381 $432 #
straight-curve $-1 -5.329070518200751394e-15 105.5000000000000568 -17.49999953433860966 1 0 0 I I #
ellipse-curve $-1 12.00599363446968226 105.5000000000000568 -12.49997082271741888 0 -1 -0 -4.594946357246771029 3.233665162169501122e-32 -1.971485503639549774 1 I I #
point $-1 15.62953438793165262 105.5000000000000568 -15.94529221919649231 #
ellipse-curve $-1 12.00599274895278157 104.4999999525026055 12.49997175404021732 3.383535410114074603e-16 -1 0 4.594946357246773694 3.233665162169509333e-32 -1.971485503639546 1 I I #
point $-1 15.62953325834295626 104.4999999525026055 15.94529340721639876 #
straight-curve $-1 12.00599363446968226 105.2999999905005666 -17.49999953433860966 1.232595164407830946e-32 -1 -1.232595164407830946e-32 I I #
ellipse-curve $-1 -1.140574850981412425 80.50000000000004263 1.776356839400250465e-15 0 -1 0 4.948120651015794947e-08 3.642505312198324359e-15 -23.14063326360464146 1 I I #
straight-curve $-1 30.85938372529000873 86.00000009318230809 -10.00000000000000178 0 1 0 I I #
point $-1 30.85938372529000873 80.50000000000004263 -10.00000000000000178 #
vertex $-1 $408 $433 #
straight-curve $-1 30.85938372529000517 80.50000000000004263 2.220446049250313081e-16 0 0 -1 I I #
straight-curve $-1 25.01488872529000673 80.50000000000004263 10.00000000000000178 1 0 -0 I I #
point $-1 19.72779614056092257 80.50000000000004263 10.00000000000000355 #
straight-curve $-1 30.85938372529000517 86.00000009318230809 10.00000000000000178 0 1 -0 I I #
point $-1 12.00599363446968226 105.5000000000000568 -17.49999953433860966 #
point $-1 30.85938372529000517 80.50000000000004263 10.00000000000000178 #
End-of-ACIS-data 