600 0 1 0           
86 GICL ACIS Healer - Source: /gicl/data5/repository/SDRC_I-DEAS/blender/Part29.sat - 6 0 18 ACIS 6.0.3 Solaris 24 Sat Apr 13 23:11:00 2002 
1 9.999999999999999547e-07 1.000000000000000036e-10 
body $-1 $1 $-1 $2 #
lump $-1 $-1 $3 $0 #
transform $-1 1 0 0 0 1 0 0 0 1 0 0 0 1 no_rotate no_reflect no_shear #
shell $-1 $-1 $-1 $4 $-1 $1 #
face $5 $6 $7 $3 $-1 $8 reversed single #
fmesh-eye-attrib $-1 $-1 $-1 $4 #
face $9 $10 $11 $3 $-1 $12 reversed single #
loop $-1 $-1 $13 $4 #
plane-surface $-1 -47.40748164366098649 222.7788999954415488 -3.257335997375321313e-06 1.972152263052529514e-31 -1 -5.169878828456422968e-26 6.588601366838047761e-25 5.169878828456422968e-26 -1 forward_v I I I I #
fmesh-eye-attrib $-1 $-1 $-1 $6 #
face $14 $15 $16 $3 $-1 $17 reversed single #
loop $-1 $-1 $18 $6 #
cone-surface $-1 -40.3563624057150605 224.2788999547348681 11.99999677881213422 -1 0 0 0 -1.06066014944258713 -1.060660142995816457 1 I I 0 1 1.499999963851825324 forward I I I I #
coedge $-1 $19 $20 $21 $22 reversed $7 $-1 #
fmesh-eye-attrib $-1 $-1 $-1 $10 #
face $23 $24 $25 $3 $-1 $26 reversed single #
loop $-1 $-1 $27 $10 #
cone-surface $-1 0 225.6788999984546251 0 0 1 0 -32.78216398457129088 0 6.897805773481706204 1 I I 0 1 33.50000000000000711 forward I I I I #
coedge $-1 $28 $29 $30 $31 reversed $11 $-1 #
coedge $-1 $32 $13 $29 $33 forward $7 $-1 #
coedge $-1 $13 $32 $34 $35 reversed $7 $-1 #
coedge $-1 $36 $30 $13 $22 forward $37 $-1 #
edge $-1 $38 -2.494131406037251253 $39 -2.023828041579017523 $13 $40 forward 7 unknown #
fmesh-eye-attrib $-1 $-1 $-1 $15 #
face $41 $42 $43 $3 $-1 $44 forward single #
loop $-1 $-1 $45 $15 #
plane-surface $-1 -37.74378999764425657 225.7789000000000783 13.4999967426640044 0 -0 1 1 0 -0 forward_v I I I I #
coedge $-1 $46 $47 $45 $48 reversed $16 $-1 #
coedge $-1 $49 $18 $50 $51 forward $11 $-1 #
coedge $-1 $18 $49 $19 $33 reversed $11 $-1 #
coedge $-1 $21 $52 $18 $31 forward $37 $-1 #
edge $-1 $53 2.281760675509831415 $38 7.885514193990971421 $18 $54 forward 7 unknown #
coedge $-1 $20 $19 $55 $56 reversed $7 $-1 #
edge $-1 $38 -9.730437546388571945 $57 -2.954353079210008559 $19 $58 reversed 7 unknown #
coedge $-1 $59 $60 $20 $35 forward $61 $-1 #
edge $-1 $39 -9.730442832569409006 $62 -2.954358121063947351 $20 $63 reversed 7 unknown #
coedge $-1 $64 $21 $60 $65 forward $37 $-1 #
loop $-1 $-1 $64 $66 #
vertex $-1 $31 $67 #
vertex $-1 $65 $68 #
ellipse-curve $-1 -2.340947012632455812e-16 222.7788999954415488 -5.610095856665722586e-18 1.972152263052529514e-31 -1 -5.169878828456422968e-26 32.71215682676509573 -7.248649573706388058e-15 -39.78193366852990209 1 I I #
fmesh-eye-attrib $-1 $-1 $-1 $24 #
face $69 $70 $71 $3 $-1 $72 forward single #
loop $-1 $-1 $73 $24 #
cone-surface $-1 0 214.9121126439457043 0 2.066517402007202908e-15 1 4.241313081137078035e-15 16.13815789473683182 1.98951966012828052e-13 -53.36311797266480283 1 I I 0 -1 55.74999999999998579 forward I I I I #
coedge $-1 $74 $75 $27 $48 forward $25 $-1 #
coedge $-1 $76 $27 $77 $78 reversed $16 $-1 #
coedge $-1 $27 $76 $79 $80 reversed $16 $-1 #
edge $-1 $81 -1.600000001545481609 $82 0.3999999984545468124 $27 $83 reversed 7 unknown #
coedge $-1 $29 $28 $84 $85 reversed $11 $-1 #
coedge $-1 $86 $87 $28 $51 reversed $25 $-1 #
edge $-1 $53 -4.471797479024225197 $88 2.432609012522831904 $28 $89 reversed 7 unknown #
coedge $-1 $30 $90 $86 $91 forward $37 $-1 #
vertex $-1 $91 $92 #
intcurve-curve $-1 forward { surfintcur full nubs 3 open 9 
	2.281760675509831415 3 3.345434372736002082 2 5.018151559104003567 2 5.854510152288003866 2 6.690868745472004164 2 
	7.205862012008267925 2 7.463358645276398917 2 7.720855278544530798 2 7.885514193990971421 3 
	-44.82815818828284904 224.2788944386742003 13.50006452527723688 
	-45.19186798132057703 224.1674466260010092 13.50009793972034799 
	-45.55830194189274351 224.0562033157462452 13.48764505261785729 
	-46.49752000839411892 223.7735719256862978 13.42338683248444653 
	-47.06703610878221156 223.6045668978719334 13.35373053284662603 
	-47.8928182979430801 223.3638116470890509 13.19244998716466455 
	-48.16317903541621348 223.2857355397443371 13.12918437040194419 
	-48.69027637667467445 223.1355622140220873 12.97683817678950113 
	-48.94718890565918912 223.0633586242656747 12.88847203866455082 
	-49.34557241985282872 222.9544332430108398 12.7086621448555821 
	-49.50818043843407423 222.9107407453570886 12.62443070482573049 
	-49.72948790124789298 222.8540117458274779 12.47184264316866376 
	-49.79940150744793215 222.8365924668193259 12.41668085446631409 
	-49.92457970450391258 222.8070216605282212 12.29571763962253428 
	-49.98003495076483915 222.7947951887499869 12.23013201630428881 
	-50.05031936947917615 222.7821020093525703 12.10888563699730724 
	-50.07304604599343634 222.7790386688860735 12.05551851604367286 
	-50.08655010354725334 222.7789811773650399 11.99993599285593682 
	0.0004553384025828491203 
	cone -40.3563624057150605 224.2788999547348681 11.99999677881213422 -1 0 0 0 -1.06066014944258713 -1.060660142995816457 1 I I 0 1 1.499999963851825324 forward I I I I 
	cone 0 223.8045478824303132 0 2.282408068431066887e-16 1 5.469806868258209316e-18 30.67648162541187773 -6.797566624372384187e-15 -37.30630675527652329 1 I I -0.9524229323878061759 0.3047795233637136114 48.29914128256343275 forward I I I I 
	nullbs 
	nullbs 
	I I 
	0 
	0 
	0 
	} I I #
coedge $-1 $84 $93 $32 $56 forward $94 $-1 #
edge $-1 $62 1.988692197312615484 $57 2.529267229932642191 $32 $95 forward 7 unknown #
vertex $-1 $85 $96 #
straight-curve $-1 -40.3563624057150605 222.7788999954415488 11.99999677881213422 -1 0 0 I I #
coedge $-1 $97 $34 $93 $98 reversed $61 $-1 #
coedge $-1 $34 $97 $36 $65 reversed $61 $-1 #
loop $-1 $-1 $60 $99 #
vertex $-1 $98 $100 #
straight-curve $-1 -40.35635554407423342 222.7788999954415488 -12.00000329348417694 -1 0 0 I I #
coedge $-1 $101 $36 $102 $103 forward $37 $-1 #
edge $-1 $39 -7.885530670536025966 $104 -2.281777088533907261 $36 $105 reversed 7 unknown #
face $106 $99 $37 $3 $-1 $107 forward single #
point $-1 -50.08679995210363245 222.7788999908830476 11.99999677881212712 #
point $-1 -50.08679837664364243 222.7788999954415488 -12.00000329348417694 #
fmesh-eye-attrib $-1 $-1 $-1 $42 #
face $108 $109 $110 $3 $-1 $111 forward single #
loop $-1 $112 $113 $42 #
plane-surface $-1 -9.028553993317700588e-07 197.2789000000000215 -3.257335983164466597e-06 -2.50411536826244284e-16 -1 -2.499435111164787675e-16 0 2.499435111164787675e-16 -1 forward_v I I I I #
coedge $-1 $114 $115 $116 $117 forward $43 $-1 #
coedge $-1 $87 $45 $118 $119 reversed $25 $-1 #
coedge $-1 $45 $86 $120 $121 reversed $25 $-1 #
coedge $-1 $47 $46 $122 $123 forward $16 $-1 #
coedge $-1 $120 $124 $46 $78 forward $125 $-1 #
edge $-1 $126 -2.934204674113952027 $81 -0.207387970467171584 $46 $127 forward 7 unknown #
coedge $-1 $128 $118 $47 $80 forward $129 $-1 #
edge $-1 $82 0.207387970467171584 $130 2.934204674113952027 $47 $131 forward 7 unknown #
vertex $-1 $78 $132 #
vertex $-1 $80 $133 #
straight-curve $-1 -30.65942086778649056 225.6788999984545967 13.4999967426640044 0 1 0 I I #
coedge $-1 $134 $55 $49 $85 forward $94 $-1 #
edge $-1 $57 8.190821028993058306 $88 13.87615013646117212 $49 $135 forward 7 unknown #
coedge $-1 $75 $50 $52 $91 reversed $25 $-1 #
coedge $-1 $50 $74 $134 $136 reversed $25 $-1 #
vertex $-1 $136 $137 #
straight-curve $-1 -40.3563624057150605 224.2788999547348681 13.4999967426640044 -1 0 0 I I #
coedge $-1 $52 $138 $139 $140 forward $37 $-1 #
edge $-1 $141 5.203827976625614582 $53 15.46270376255623269 $86 $142 forward 7 unknown #
point $-1 -44.8281598847392857 224.2788999547348681 13.49999674266400085 #
coedge $-1 $55 $143 $59 $98 forward $94 $-1 #
loop $-1 $-1 $143 $144 #
ellipse-curve $-1 1.944694832667701396e-16 222.7788999954415203 5.735605805712709693e-16 -1.972152263052529514e-31 1 5.169878828456422968e-26 28.5444879662767832 2.260402743445432073e-14 -34.71354496403809264 1 I I #
point $-1 -43.31071548492506906 222.7788999908830476 11.99999677881213778 #
coedge $-1 $60 $59 $145 $146 reversed $61 $-1 #
edge $-1 $147 2.276364741216946985 $62 7.961694190445488317 $59 $148 forward 7 unknown #
face $149 $144 $61 $3 $-1 $150 reversed single #
point $-1 -43.31071366513818077 222.7788999954415488 -12.00000329348418582 #
coedge $-1 $151 $64 $152 $153 forward $37 $-1 #
coedge $-1 $145 $154 $64 $103 reversed $155 $-1 #
edge $-1 $104 -15.46270465580231779 $156 -5.203828368485152289 $64 $157 reversed 7 unknown #
vertex $-1 $65 $158 #
intcurve-curve $-1 forward { surfintcur full nubs 3 open 9 
	2.281777088533907261 3 3.345439360177701715 2 5.018159040266552573 2 5.854518880310978446 2 6.690878720355403431 2 
	7.205874202293673036 2 7.463371943262807839 2 7.720869684231942642 2 7.885530670536025966 3 
	-44.82815621145795149 224.2788944430545541 -13.50007104201755581 
	-45.19186215129774098 224.1674478160701369 -13.50010445478559262 
	-45.55829216773201296 224.0562056979889007 -13.48765182886601011 
	-46.49750725160292575 223.7735751653450507 -13.42339452150445567 
	-47.06702431712517409 223.6045698304900782 -13.35373852087485602 
	-47.89280799291560697 223.3638141119442935 -13.19245839405336795 
	-48.16316923400430028 223.285737847069754 -13.12919291107057518 
	-48.69026759242495928 223.1355642020018308 -12.97684701366321036 
	-48.94718063218965654 223.0633604518581024 -12.88848102974898069 
	-49.34556543558974795 222.9544346735451086 -12.70867134165256473 
	-49.50817429360443356 222.9107419289329357 -12.62443983756400456 
	-49.729483053809723 222.854012553651927 -12.47185159507473706 
	-49.79939709827341687 222.8365931486677596 -12.41668973213908167 
	-49.92457616811505972 222.8070220951087208 -12.29572632088299855 
	-49.98003185016901995 222.7947955014444119 -12.23014057802829768 
	-50.05031718015725062 222.7821020972468773 -12.10889352082787873 
	-50.07304429520600308 222.7790386729929821 -12.05552573660004612 
	-50.08654853669669649 222.7789811791255374 -11.9999425095620893 
	0.000455335171460292433 
	cone -40.35635554407422632 224.2788999592933692 -12.00000329348417694 -1 0 0 0 1.060660146219198241 -1.060660146219205568 1 I I 0 1 1.499995579489204145 forward I I I I 
	cone 0 223.8045478824303132 0 2.282408068431066887e-16 1 5.469806868258209316e-18 30.67648162541187773 -6.797566624372384187e-15 -37.30630675527652329 1 I I 0.9524229323878061759 -0.3047795233637136114 48.29914128256343275 forward I I I I 
	nullbs 
	nullbs 
	I I 
	0 
	0 
	0 
	} I I #
fmesh-eye-attrib $-1 $-1 $-1 $66 #
cone-surface $-1 0 223.8045478824303132 0 2.282408068431066887e-16 1 5.469806868258209316e-18 30.67648162541187773 -6.797566624372384187e-15 -37.30630675527652329 1 I I -0.9524229323878061759 0.3047795233637136114 48.29914128256343275 forward I I I I #
fmesh-eye-attrib $-1 $-1 $-1 $70 #
face $159 $160 $161 $3 $-1 $162 forward single #
loop $-1 $-1 $163 $70 #
cone-surface $-1 0 198.7788999997671908 0 0 1 0 16.42763157894737347 0 -54.32030394526870509 1 I I 0 1 56.75000000000003553 forward I I I I #
loop $-1 $-1 $164 $42 #
coedge $-1 $113 $113 $165 $166 forward $71 $-1 #
coedge $-1 $116 $73 $167 $168 reversed $43 $-1 #
coedge $-1 $73 $116 $164 $169 forward $43 $-1 #
coedge $-1 $115 $114 $73 $117 reversed $43 $-1 #
edge $-1 $170 0 $171 1 $73 $172 forward 7 unknown #
coedge $-1 $79 $173 $74 $119 forward $129 $-1 #
edge $-1 $174 -16.35221765414445017 $82 -12.42281899639861109 $74 $175 forward 7 unknown #
coedge $-1 $139 $77 $75 $121 forward $125 $-1 #
edge $-1 $81 12.41714250906243677 $141 16.68119453432687394 $75 $176 forward 7 unknown #
coedge $-1 $177 $178 $76 $123 reversed $179 $-1 #
edge $-1 $126 0 $130 0.01035357704872500069 $76 $180 forward 7 unknown #
coedge $-1 $77 $181 $177 $182 forward $125 $-1 #
loop $-1 $-1 $181 $183 #
vertex $-1 $182 $184 #
ellipse-curve $-1 0 227.2789000000000783 0 3.927526809844588017e-16 -1 -0 -32.78216398457129088 0 6.897805773481706204 1 I I #
coedge $-1 $185 $79 $178 $186 forward $129 $-1 #
loop $-1 $-1 $185 $187 #
vertex $-1 $186 $188 #
ellipse-curve $-1 0 225.2789000000000499 0 -0 1 -0 -32.78216398457129088 0 6.897805773481706204 1 I I #
point $-1 -30.65942086778649056 227.2789000000000783 13.4999967426640044 #
point $-1 -30.65942086778649056 225.2789000000000499 13.4999967426640044 #
coedge $-1 $189 $84 $87 $136 forward $94 $-1 #
intcurve-curve $-1 forward { surfintcur full nubs 3 open 10 
	8.190821028993058306 3 8.211106328829925971 2 8.436247631317693063 2 8.701354089737044717 2 8.966460548156398147 2 
	9.496673464995101455 2 10.3286528634084025 2 11.16063226182170354 2 12.82459105864830384 2 13.87615013646117212 3 
	-43.31068102602233694 222.7789113076867977 11.99998735576723163 
	-43.30880965672950111 222.7789044603708817 12.00682249699271331 
	-43.30678604107073681 222.7789466579706641 12.01362657981557724 
	-43.28045945899498292 222.7800595201317151 12.09546835502773554 
	-43.2384145461668794 222.7869193599770767 12.16595163608283059 
	-43.13898905178481868 222.8063589764516337 12.29417579677993544 
	-43.07479278340267115 222.8206318770988617 12.35641174547839505 
	-42.93423904023212145 222.8536407289856527 12.47139209044259012 
	-42.85777444976652362 222.8724216922764185 12.52399255028245939 
	-42.61935746751090903 222.9324932229636715 12.66947323351958232 
	-42.44859161968511785 222.9774574789818473 12.74989647763563205 
	-42.04128731334148483 223.0865624201405808 12.91834090578455729 
	-41.78293942356584978 223.1576382711349993 13.00170855299657369 
	-41.25338445135999166 223.3054193522519313 13.14585440306825781 
	-40.98206466843633677 223.3821999508361955 13.2061408526783346 
	-40.15421185900316203 223.6188418409902852 13.36004772902570537 
	-39.58421268095805345 223.7848509500022942 13.42691435372907627 
	-38.64805558210155567 224.0616304488387414 13.48823183427481709 
	-38.28447768979735599 224.1701408850145754 13.50009047267382911 
	-37.92375140222429764 224.2788933683795563 13.50006047082849925 
	0.0005004038949027949474 
	cone -40.3563624057150605 224.2788999547348681 11.99999677881213422 -1 0 0 0 -1.06066014944258713 -1.060660142995816457 1 I I 0 1 1.499999963851825324 forward I I I I 
	cone 0 222.1436464230424406 0 3.061289093303926332e-16 1 9.028844629793526855e-16 29.80532022684968041 2.360246492760204709e-14 -36.2468692759408242 1 I I 0.9524229323878061759 -0.3047795233637136114 46.92752546355067977 forward I I I I 
	nullbs 
	nullbs 
	I I 
	0 
	0 
	0 
	} I I #
edge $-1 $88 3.951639274013245995 $174 7.414084255789410882 $87 $190 forward 7 unknown #
point $-1 -37.9237533931922286 224.2788999547348965 13.49999674266400262 #
coedge $-1 $90 $191 $151 $192 reversed $37 $-1 #
coedge $-1 $152 $120 $90 $140 reversed $125 $-1 #
edge $-1 $193 0.8826127777177138478 $141 3.655339290119040019 $90 $194 forward 7 unknown #
vertex $-1 $140 $195 #
intcurve-curve $-1 forward { exactcur full nurbs 2 open 2 
	5.203827976625614582 2 15.46270376255623269 2 
	-34.92347289305092772 227.2789000000000783 13.49999674266400085 1.009672247456736338 
	-39.32480438504008191 225.9651912192426835 13.49999674266399907 1.015634694124632809 
	-44.82815988473929281 224.2788999547348681 13.49999674266399907 1.007515230903727632 
	0 
	null_surface 
	null_surface 
	nullbs 
	nullbs 
	I I 
	0 
	0 
	0 
	F 1 F 0 } I I #
coedge $-1 $93 $196 $197 $198 forward $94 $-1 #
face $199 $187 $94 $3 $-1 $200 forward single #
coedge $-1 $197 $102 $97 $146 forward $155 $-1 #
edge $-1 $104 -4.471802363894624932 $147 2.432604485078968537 $97 $201 reversed 7 unknown #
vertex $-1 $198 $202 #
intcurve-curve $-1 forward { surfintcur full nubs 3 open 10 
	2.276364741216946985 3 3.32791941117323864 2 4.991879116759857737 2 5.823858969553167952 2 6.655838822346477279 2 
	7.186052763264435761 2 7.451159733723415002 2 7.716266704182394243 2 7.941408186111729606 2 7.961694190445488317 3 
	-37.9237490680029623 224.2788933728567713 -13.50006698622507528 
	-38.28447386692801047 224.1701413449993652 -13.50009698745736841 
	-38.64805023430775321 224.0616313666302517 -13.48823844705750119 
	-39.58420615971732559 223.7848522111692091 -13.42692131170003833 
	-40.15420569282418484 223.6188429984908055 -13.36005480656394617 
	-40.98205905033321983 223.382200949986327 -13.20614810770579695 
	-41.25337901904253357 223.3054202980168839 -13.14586171670014281 
	-41.78293436704692709 223.1576391082663235 -13.00171599885423035 
	-42.04128244603040798 223.0865632024672323 -12.91834842264796457 
	-42.44858729455276602 222.9774581049864537 -12.74990407829829842 
	-42.61935352425822288 222.9324937428177407 -12.66948079931869664 
	-42.85777108733168461 222.8724220539209284 -12.52400002815138791 
	-42.93423587260558349 222.8536410380977202 -12.47139953311015681 
	-43.07478999973815803 222.8206320844989534 -12.35641909957230489 
	-43.13898645755415373 222.8063591345243992 -12.29418309817364374 
	-43.23841223382018484 222.7869194450089481 -12.16595887337015469 
	-43.28045727525737618 222.7800595696819812 -12.09547559404423289 
	-43.30678407815146613 222.7789466657586672 -12.01363356485734712 
	-43.30880776948979616 222.7789044652290613 -12.00682924757766479 
	-43.31067920412689176 222.778911312937737 -11.9999938698599351 
	0.0005004054732039646099 
	cone -40.35635554407422632 224.2788999592933692 -12.00000329348417694 -1 0 0 0 1.060660146219198241 -1.060660146219205568 1 I I 0 1 1.499995579489204145 forward I I I I 
	cone 0 222.1436464230424406 0 3.061289093303926332e-16 1 9.028844629793526855e-16 29.80532022684968041 2.360246492760204709e-14 -36.2468692759408242 1 I I 0.9524229323878061759 -0.3047795233637136114 46.92752546355067977 forward I I I I 
	nullbs 
	nullbs 
	I I 
	0 
	0 
	0 
	} I I #
fmesh-eye-attrib $-1 $-1 $-1 $99 #
cone-surface $-1 -40.35635554407422632 224.2788999592933692 -12.00000329348417694 -1 0 0 0 1.060660146219198241 -1.060660146219205568 1 I I 0 1 1.499995579489204145 forward I I I I #
coedge $-1 $191 $101 $138 $192 forward $37 $-1 #
coedge $-1 $181 $139 $101 $153 reversed $125 $-1 #
edge $-1 $156 -1.890113374148270076 $193 0.8826127777177138478 $101 $203 forward 7 unknown #
coedge $-1 $102 $204 $181 $205 reversed $155 $-1 #
loop $-1 $-1 $204 $206 #
vertex $-1 $153 $207 #
intcurve-curve $-1 forward { exactcur full nurbs 2 open 2 
	5.203828368485152289 2 15.46270465580231779 2 
	-34.92347037474251437 227.2789000000001352 -13.50000325733600093 1.009672248763653579 
	-39.32480210811714727 225.9651912419246571 -13.50000325733600093 1.015634695973720358 
	-44.82815790796885125 224.2788999592933692 -13.50000325733600093 1.007515231719032123 
	0 
	null_surface 
	null_surface 
	nullbs 
	nullbs 
	I I 
	0 
	0 
	0 
	F 1 F 0 } I I #
point $-1 -44.82815790796885125 224.2788999592933692 -13.5000032573360027 #
fmesh-eye-attrib $-1 $-1 $-1 $109 #
face $208 $209 $210 $3 $-1 $211 forward single #
loop $-1 $-1 $212 $109 #
torus-surface $-1 0 205.2789000000000783 0 1.505834168152227332e-16 -1 3.405627616058475141e-16 56.75000000000007816 0.5000000011642669051 0 -3.405627616058475141e-16 -1 forward_v I I I I #
coedge $-1 $165 $213 $214 $215 forward $110 $-1 #
coedge $-1 $164 $164 $115 $169 reversed $112 $-1 #
coedge $-1 $214 $163 $113 $166 reversed $110 $-1 #
edge $-1 $216 1.277119334800018713 $216 7.560304641979604945 $113 $217 forward 7 unknown #
coedge $-1 $218 $219 $114 $168 forward $94 $-1 #
edge $-1 $171 1.277119333770457832 $171 7.56030464095004362 $114 $220 forward 7 unknown #
edge $-1 $170 1.277119333770459608 $170 7.560304640950045396 $115 $221 forward 7 unknown #
vertex $-1 $169 $222 #
vertex $-1 $168 $223 #
intcurve-curve $-1 forward { exactcur full nubs 1 open 2 
	0 1 1 1 
	55.74999909714461666 197.2789000000000215 -3.25733599999999986e-06 
	55.74999909714455271 219.3204158049323667 -3.25733599999999986e-06 
	0 
	null_surface 
	null_surface 
	nullbs 
	nullbs 
	I I 
	0 
	0 
	0 
	F 1 F 0 } I I #
coedge $-1 $118 $224 $189 $225 forward $129 $-1 #
vertex $-1 $225 $226 #
straight-curve $-1 -18.23660187138787947 225.2789000000000499 13.4999967426640044 1 0 0 I I #
straight-curve $-1 -18.24227835872405379 227.2789000000000783 13.4999967426640044 -1 -3.927526809844588017e-16 0 I I #
coedge $-1 $227 $122 $124 $182 reversed $179 $-1 #
coedge $-1 $122 $227 $128 $186 reversed $179 $-1 #
loop $-1 $-1 $227 $228 #
intcurve-curve $-1 forward { exactcur full nubs 1 open 2 
	0 1 0.01035357704872500069 1 
	33.49999909714461666 227.2789000000001067 -3.25733599999999986e-06 
	33.49999909714462376 225.2789000000000499 -3.25733599999999986e-06 
	0 
	null_surface 
	null_surface 
	nullbs 
	nullbs 
	I I 
	0 
	0 
	0 
	F 1 F 0 } I I #
coedge $-1 $124 $152 $154 $205 forward $125 $-1 #
edge $-1 $229 0.6221643363718517561 $126 3.348980633065634205 $177 $230 forward 7 unknown #
face $231 $-1 $125 $3 $-1 $232 forward single #
point $-1 33.49999909714461666 227.2789000000001067 -3.25733599999999986e-06 #
coedge $-1 $224 $128 $233 $234 forward $129 $-1 #
edge $-1 $130 -3.348980633065634205 $235 -0.6221643363718520892 $128 $236 reversed 7 unknown #
face $237 $228 $129 $3 $-1 $238 forward single #
point $-1 33.49999909714461666 225.2789000000000499 -3.25733599999999986e-06 #
coedge $-1 $219 $134 $173 $225 reversed $94 $-1 #
intcurve-curve $-1 forward { exactcur full nurbs 2 open 2 
	3.951639274013245995 2 7.414084255789410882 2 
	-37.9237533931922286 224.2788999547349249 13.49999674266400262 1.005138936720100906 
	-36.18895084221468039 224.8018955344421954 13.49999674266400262 1.006323350259819893 
	-34.58881952554096273 225.2788999999974635 13.49999674266400262 1.005638001171061946 
	0 
	null_surface 
	null_surface 
	nullbs 
	nullbs 
	I I 
	0 
	0 
	0 
	F 1 F 0 } I I #
coedge $-1 $138 $151 $239 $240 forward $37 $-1 #
edge $-1 $193 0 $241 1 $138 $242 forward 7 unknown #
vertex $-1 $140 $243 #
ellipse-curve $-1 7.929889305711795592e-16 227.2789000000000783 1.900403507543055755e-17 3.927526809844588017e-16 -1 -0 23.7806916216216031 -5.269536371397891397e-15 -28.92019323865137892 1 I I #
point $-1 -34.92347289305092772 227.2789000000000783 13.49999674266400085 #
coedge $-1 $143 $218 $224 $244 reversed $94 $-1 #
coedge $-1 $233 $145 $143 $198 reversed $155 $-1 #
edge $-1 $245 -7.414084656458681977 $147 -3.951639479852528503 $143 $246 reversed 7 unknown #
fmesh-eye-attrib $-1 $-1 $-1 $144 #
cone-surface $-1 0 222.1436464230424406 0 3.061289093303926332e-16 1 9.028844629793526855e-16 29.80532022684968041 2.360246492760204709e-14 -36.2468692759408242 1 I I 0.9524229323878061759 -0.3047795233637136114 46.92752546355067977 forward I I I I #
straight-curve $-1 -40.35635554407422632 224.2788999592933692 -13.5000032573360027 -1 0 0 I I #
point $-1 -37.92375105899525778 224.278899959293426 -13.5000032573359956 #
ellipse-curve $-1 7.929889305711795592e-16 227.2789000000000783 1.900403507543055755e-17 3.927526809844588017e-16 -1 -0 23.7806916216216031 -5.269536371397891397e-15 -28.92019323865137892 1 I I #
coedge $-1 $154 $233 $227 $247 forward $155 $-1 #
edge $-1 $156 -16.68119659838071556 $229 -12.4171442228748603 $154 $248 forward 7 unknown #
face $249 $183 $155 $3 $-1 $250 reversed single #
point $-1 -34.92347037474253568 227.2789000000001636 -13.50000325733599915 #
fmesh-eye-attrib $-1 $-1 $-1 $160 #
face $251 $252 $253 $3 $-1 $254 forward single #
loop $-1 $-1 $255 $160 #
cone-surface $-1 0 207.0789000009315259 0 0 1 0 16.42763157894737347 0 -54.32030394526870509 1 I I 0 1 56.75000000000002132 forward I I I I #
coedge $-1 $256 $257 $258 $259 forward $161 $-1 #
coedge $-1 $163 $214 $256 $260 forward $110 $-1 #
coedge $-1 $213 $165 $163 $215 reversed $110 $-1 #
edge $-1 $261 0 $216 1 $163 $262 forward 7 unknown #
vertex $-1 $166 $263 #
ellipse-curve $-1 0 197.2789000000000215 0 -2.50411536826244284e-16 -1 -2.499435111164787675e-16 16.42763157894737347 0 -54.32030394526870509 1 I I #
coedge $-1 $196 $167 $219 $264 forward $94 $-1 #
coedge $-1 $167 $189 $218 $264 reversed $94 $-1 #
ellipse-curve $-1 9.109835195502113726e-15 219.3204158049322814 1.869699386231028351e-14 -2.066517402007202908e-15 -1 -4.241313081137078035e-15 16.13815789473683182 1.98951966012828052e-13 -53.36311797266480283 1 I I #
ellipse-curve $-1 -3.643934078200719273e-14 197.2789000000000215 -7.478797544923854659e-14 -2.50411536826244284e-16 -1 -2.499435111164787675e-16 16.13815789473683182 1.98951966012828052e-13 -53.36311797266480283 1 I I #
point $-1 55.74999909714461666 197.2789000000000215 -3.25733599999999986e-06 #
point $-1 55.74999909714455271 219.3204158049323667 -3.25733599999999986e-06 #
coedge $-1 $173 $185 $196 $244 forward $129 $-1 #
edge $-1 $265 0.8826127769868100659 $174 3.652089566533883946 $189 $266 forward 7 unknown #
point $-1 -34.58881952553232964 225.2789000000000499 13.4999967426640044 #
coedge $-1 $178 $177 $204 $247 reversed $179 $-1 #
face $267 $206 $179 $3 $-1 $17 reversed single #
vertex $-1 $182 $268 #
ellipse-curve $-1 0 227.2789000000000783 0 3.927526809844588017e-16 -1 -0 -32.78216398457129088 0 6.897805773481706204 1 I I #
fmesh-eye-attrib $-1 $-1 $-1 $183 #
plane-surface $-1 1.259233280196148996 227.2789000000000783 -3.257335990269893955e-06 -3.927526809844588017e-16 1 0 0 -0 1 forward_v I I I I #
coedge $-1 $204 $197 $185 $234 reversed $155 $-1 #
edge $-1 $235 12.42282071021103107 $245 16.35221969383317742 $185 $269 reversed 7 unknown #
vertex $-1 $186 $270 #
ellipse-curve $-1 0 225.2789000000000499 0 0 -1 0 -32.78216398457129088 0 6.897805773481706204 1 I I #
fmesh-eye-attrib $-1 $-1 $-1 $187 #
plane-surface $-1 1.270586254868495857 225.2789000000000499 -3.257335997375321313e-06 0 -1 0 0 0 -1 forward_v I I I I #
coedge $-1 $271 $272 $191 $240 reversed $273 $-1 #
edge $-1 $241 -0.8826128107462331007 $241 5.400572496433353464 $239 $274 forward 7 unknown #
vertex $-1 $240 $275 #
intcurve-curve $-1 forward { exactcur full nubs 1 open 2 
	0 1 1 1 
	37.4419390971446191 227.2789000000001067 -3.25733599999999986e-06 
	60.35627766723579413 219.9462109706860815 -3.25733599999999986e-06 
	0 
	null_surface 
	null_surface 
	nullbs 
	nullbs 
	I I 
	0 
	0 
	0 
	F 1 F 0 } I I #
point $-1 37.4419390971446191 227.2789000000001067 -3.25733599999999986e-06 #
edge $-1 $245 -1.886863648758288159 $265 0.8826127769868100659 $196 $276 forward 7 unknown #
vertex $-1 $244 $277 #
intcurve-curve $-1 forward { exactcur full nurbs 2 open 2 
	3.951639479852528503 2 7.414084656458681977 2 
	-37.92375105899525067 224.278899959293426 -13.50000325733599382 1.005138937412346722 
	-36.18894839986351997 224.8018955396010483 -13.50000325733599382 1.006323351134144284 
	-34.58881698286744921 225.2788999999974919 -13.50000325733599382 1.005638001990773578 
	0 
	null_surface 
	null_surface 
	nullbs 
	nullbs 
	I I 
	0 
	0 
	0 
	F 1 F 0 } I I #
edge $-1 $235 -0.3999999984545468124 $229 1.600000001545481609 $227 $278 reversed 7 unknown #
straight-curve $-1 -18.24227377636182013 227.2789000000000783 -13.50000325733599738 1 3.927526809844588017e-16 2.507434284657232067e-16 I I #
fmesh-eye-attrib $-1 $-1 $-1 $206 #
plane-surface $-1 -37.74378083291978925 225.7789000000000783 -13.5000032573360027 2.507434284657232067e-16 0 -1 -1 0 -2.507434284657232067e-16 forward_v I I I I #
fmesh-eye-attrib $-1 $-1 $-1 $209 #
face $279 $280 $281 $3 $-1 $282 forward single #
loop $-1 $283 $284 $209 #
plane-surface $-1 -9.028553833445585042e-07 212.2789000000000783 -3.25733600448074867e-06 0 -1 0 0 0 -1 forward_v I I I I #
coedge $-1 $285 $286 $287 $288 forward $210 $-1 #
coedge $-1 $258 $212 $213 $260 reversed $161 $-1 #
coedge $-1 $212 $258 $285 $289 forward $161 $-1 #
coedge $-1 $257 $256 $212 $259 reversed $161 $-1 #
edge $-1 $290 0 $261 1 $212 $291 forward 7 unknown #
edge $-1 $261 -5.006065972379567519 $261 1.277119334800018713 $213 $292 reversed 7 unknown #
vertex $-1 $259 $293 #
intcurve-curve $-1 forward { exactcur full nubs 1 open 2 
	0 1 1 1 
	56.74999909714461666 204.778899998835783 -3.25733599999999986e-06 
	56.74999909714461666 197.2789000000000215 -3.25733599999999986e-06 
	0 
	null_surface 
	null_surface 
	nullbs 
	nullbs 
	I I 
	0 
	0 
	0 
	F 1 F 0 } I I #
point $-1 56.74999909714461666 197.2789000000000215 -3.25733599999999986e-06 #
edge $-1 $171 0 $265 1 $218 $294 forward 7 unknown #
vertex $-1 $244 $295 #
ellipse-curve $-1 9.597917579882453821e-16 225.2789000000000499 2.830771742135465924e-15 0 -1 0 23.58256284828705063 1.867474022400387868e-14 -28.67924472032650129 1 I I #
fmesh-eye-attrib $-1 $-1 $-1 $228 #
point $-1 -30.65941799923668043 227.2789000000000783 -13.50000325733599738 #
straight-curve $-1 -18.23659728902564581 225.2789000000000783 -13.50000325733599738 1 0 2.507434284657232067e-16 I I #
point $-1 -30.65941799923667688 225.2789000000000499 -13.50000325733600626 #
coedge $-1 $296 $239 $272 $297 forward $273 $-1 #
coedge $-1 $239 $296 $271 $297 reversed $273 $-1 #
loop $-1 $-1 $271 $280 #
ellipse-curve $-1 6.521453356320864443e-16 219.9462109706859678 1.562870849118133971e-17 2.282408068431066887e-16 1 5.469806868258209316e-18 38.33439314586888713 -8.494474516206163721e-15 -46.61925208503936346 1 I I #
point $-1 60.35627766723579413 219.9462109706860815 -3.25733599999999986e-06 #
ellipse-curve $-1 9.597917579882453821e-16 225.2789000000000499 2.830771742135465924e-15 0 -1 0 23.58256284828705063 1.867474022400387868e-14 -28.67924472032650129 1 I I #
point $-1 -34.58881698285882322 225.2789000000001067 -13.5000032573359956 #
straight-curve $-1 -30.65941799923667688 225.6788999984545967 -13.50000325733599915 -0 -1 -0 I I #
fmesh-eye-attrib $-1 $-1 $-1 $252 #
face $298 $66 $273 $3 $-1 $299 forward single #
loop $-1 $-1 $300 $252 #
cone-surface $-1 0 213.240908434704636 0 0 1 0 18.07529842105262574 0 -59.76854907017143859 1 I I 0 1 62.44194000000003797 forward I I I I #
loop $-1 $-1 $301 $209 #
coedge $-1 $284 $284 $302 $303 forward $253 $-1 #
coedge $-1 $287 $255 $257 $289 reversed $210 $-1 #
coedge $-1 $255 $287 $301 $304 forward $210 $-1 #
coedge $-1 $286 $285 $255 $288 reversed $210 $-1 #
edge $-1 $305 0 $290 1 $255 $306 forward 7 unknown #
edge $-1 $290 -5.006065972379567519 $290 1.277119334800018713 $257 $307 reversed 7 unknown #
vertex $-1 $289 $308 #
intcurve-curve $-1 forward { exactcur full nurbs 2 open 3 
	0 2 0.5 2 1 2 
	56.7499990971446735 205.7789000011643452 -3.25733599999999986e-06 1 
	57.24999909830898304 205.7789000011642884 -3.25733599999999986e-06 0.7071067811865480168 
	57.2499990983089404 205.2789000000000499 -3.25733599999999986e-06 1 
	57.24999909830891198 204.7788999988357261 -3.25733599999999986e-06 0.7071067811865480168 
	56.74999909714461666 204.778899998835783 -3.25733599999999986e-06 1 
	0 
	null_surface 
	null_surface 
	nullbs 
	nullbs 
	I I 
	0 
	0 
	0 
	F 1 F 0 } I I #
ellipse-curve $-1 0 204.7788999988358114 0 0 1 0 16.42763157894737347 0 -54.32030394526870509 1 I I #
point $-1 56.74999909714461666 204.778899998835783 -3.25733599999999986e-06 #
intcurve-curve $-1 forward { exactcur full nubs 1 open 2 
	0 1 1 1 
	55.74999909714455271 219.3204158049323667 -3.25733599999999986e-06 
	37.12999166678800833 225.2789000000000499 -3.25733599999999986e-06 
	0 
	null_surface 
	null_surface 
	nullbs 
	nullbs 
	I I 
	0 
	0 
	0 
	F 1 F 0 } I I #
point $-1 37.12999166678800833 225.2789000000000499 -3.25733599999999986e-06 #
coedge $-1 $272 $271 $309 $310 reversed $273 $-1 #
edge $-1 $241 0 $311 1 $271 $312 forward 7 unknown #
fmesh-eye-attrib $-1 $-1 $-1 $280 #
torus-surface $-1 0 217.088942173523094 0 2.087367579447279358e-16 -1 -1.897600037881105116e-16 59.44194000000054245 2.999999999999452882 0 1.897600037881105116e-16 -1 forward_v I I I I #
coedge $-1 $302 $309 $313 $314 forward $281 $-1 #
coedge $-1 $301 $301 $286 $304 reversed $283 $-1 #
coedge $-1 $313 $300 $284 $303 reversed $281 $-1 #
edge $-1 $315 1.277119340032174089 $315 7.560304647211760098 $284 $316 forward 7 unknown #
edge $-1 $305 -5.006065972379567519 $305 1.277119334800018713 $286 $317 reversed 7 unknown #
vertex $-1 $304 $318 #
intcurve-curve $-1 forward { exactcur full nubs 1 open 2 
	0 1 1 1 
	56.74999909714461666 212.2789000000000783 -3.25733599999999986e-06 
	56.74999909714461666 205.7789000011643452 -3.25733599999999986e-06 
	0 
	null_surface 
	null_surface 
	nullbs 
	nullbs 
	I I 
	0 
	0 
	0 
	F 1 F 0 } I I #
ellipse-curve $-1 0 205.7789000011643452 0 0 1 0 16.42763157894737347 0 -54.32030394526870509 1 I I #
point $-1 56.74999909714461666 205.7789000011643452 -3.25733599999999986e-06 #
coedge $-1 $300 $313 $296 $310 forward $281 $-1 #
edge $-1 $311 -5.006065967147412366 $311 1.277119340032174089 $309 $319 reversed 7 unknown #
vertex $-1 $297 $320 #
intcurve-curve $-1 forward { exactcur full nurbs 2 open 2 
	0 2 1 2 
	60.35627766723579413 219.9462109706860815 -3.25733599999999986e-06 1 
	62.44193909714483937 219.2787901486025248 -3.257336000000000283e-06 0.8077064823819140038 
	62.4419390971446262 217.0889421735227245 -3.25733599999999986e-06 1 
	0 
	null_surface 
	null_surface 
	nullbs 
	nullbs 
	I I 
	0 
	0 
	0 
	F 1 F 0 } I I #
coedge $-1 $309 $302 $300 $314 reversed $281 $-1 #
edge $-1 $311 0 $315 1 $300 $321 forward 7 unknown #
vertex $-1 $303 $322 #
ellipse-curve $-1 0 212.2789000000000783 0 0 -1 0 18.07529842105262574 0 -59.76854907017143859 1 I I #
ellipse-curve $-1 0 212.2789000000000783 0 -0 1 -0 16.42763157894737347 0 -54.32030394526870509 1 I I #
point $-1 56.74999909714461666 212.2789000000000783 -3.25733599999999986e-06 #
ellipse-curve $-1 0 217.088942173523094 0 0 1 0 18.07529842105262574 0 -59.76854907017143859 1 I I #
point $-1 62.4419390971446262 217.0889421735227245 -3.25733599999999986e-06 #
intcurve-curve $-1 forward { exactcur full nubs 1 open 2 
	0 1 1 1 
	62.4419390971446262 217.0889421735227245 -3.25733599999999986e-06 
	62.4419390971446262 212.2789000000000783 -3.25733599999999986e-06 
	0 
	null_surface 
	null_surface 
	nullbs 
	nullbs 
	I I 
	0 
	0 
	0 
	F 1 F 0 } I I #
point $-1 62.4419390971446262 212.2789000000000783 -3.25733599999999986e-06 #
End-of-ACIS-data 