600 0 2 0           
24 FBMach with ACIS - 6.0.3 13 ACIS 6.0.3 NT 24 Wed May 23 19:51:35 2001 
1 9.9999999999999995e-007 1e-010 
body $2 $3 $-1 $4 #
bdycol-kcp $-1 1 1 $5 #
model_id-kcp-attrib $-1 $-1 $-1 $0 1 990661895 90 -1269170175 1 #
lump $-1 $-1 $6 $0 #
transform $-1 1 0 0 0 1 0 0 0 1 0 0 0 1 no_rotate no_reflect no_shear #
body $7 $8 $-1 $9 #
shell $-1 $-1 $-1 $10 $-1 $3 #
model_id-kcp-attrib $-1 $-1 $-1 $5 1 990661895 90 -1269170174 1 #
lump $-1 $-1 $11 $5 #
transform $-1 1 0 0 0 1 0 0 0 1 0.0082451159999999968 52.500000000000014 -65.770560000000032 1 no_rotate no_reflect no_shear #
face $12 $13 $14 $6 $-1 $15 forward single #
shell $-1 $-1 $-1 $16 $-1 $8 #
model_id-kcp-attrib $-1 $17 $-1 $10 1 990661895 90 -1269170175 2 #
face $18 $19 $20 $6 $-1 $21 forward single #
loop $-1 $-1 $22 $10 #
spline-surface $-1 forward { exactsur full nubs 1 1 open open none none 2 2 
	0 1 1.329841170419811 1 
	0 1 1 1 
	-0.74372438400000096 53.500000000000021 -63.890018500000032 
	-0.74372438400000096 51.500000000000021 -63.890018500000032 
	0.76021461600000095 53.500000000000021 -63.890018500000032 
	0.76021461600000095 51.500000000000021 -63.890018500000032 
	0 
	0 
	0 
	0 
	0 
	0 
	0 
	F 1 F 0 F 1 F 0 } I I I I #
face $-1 $23 $24 $11 $-1 $25 forward single #
fmesh-eye-attrib $-1 $-1 $12 $10 #
model_id-kcp-attrib $-1 $26 $-1 $13 1 990661895 90 -1269170175 3 #
face $27 $28 $29 $6 $-1 $30 forward single #
loop $-1 $-1 $31 $13 #
spline-surface $-1 forward { exactsur full nubs 1 1 open open none none 2 2 
	0 1 1.329841170419811 1 
	0 1 1 1 
	0.76021461600000095 53.500000000000021 -67.651101500000038 
	0.76021461600000095 51.500000000000021 -67.651101500000038 
	-0.74372438400000096 53.500000000000021 -67.651101500000038 
	-0.74372438400000096 51.500000000000021 -67.651101500000038 
	0 
	0 
	0 
	0 
	0 
	0 
	0 
	F 1 F 0 F 1 F 0 } I I I I #
coedge $-1 $32 $33 $34 $35 forward $14 $36 #
face $-1 $37 $38 $11 $-1 $39 reversed single #
loop $-1 $-1 $40 $16 #
plane-surface $-1 0 0 1.8805415000000032 0 0 1 1 0 0 forward_v I I I I #
fmesh-eye-attrib $-1 $-1 $18 $13 #
model_id-kcp-attrib $-1 $41 $-1 $19 1 990661895 90 -1269170175 4 #
face $42 $43 $44 $6 $-1 $45 forward single #
loop $-1 $-1 $46 $19 #
spline-surface $-1 forward { exactsur full nubs 1 1 open open none none 2 2 
	0 1 1 1 
	0 1 1.880541500000001 1 
	-0.74372438400000096 53.500000000000021 -67.651101500000038 
	-0.74372438400000096 51.500000000000021 -67.651101500000038 
	-0.74372438400000096 53.500000000000021 -63.890018500000032 
	-0.74372438400000096 51.500000000000021 -63.890018500000032 
	0 
	0 
	0 
	0 
	0 
	0 
	0 
	F 1 F 0 F 1 F 0 } I I I I #
coedge $-1 $47 $48 $49 $50 forward $20 $51 #
coedge $-1 $52 $22 $53 $54 forward $14 $55 #
coedge $-1 $22 $52 $56 $57 forward $14 $58 #
coedge $-1 $59 $60 $22 $35 reversed $29 $61 #
edge $62 $63 0 $64 1 $22 $65 forward 7 unknown #
pcurve $-1 0 forward { exppc nubs 2 open 7 
	0 2 0.16666666666666666 2 0.33333333333333331 2 0.5 2 0.66666666666666663 2 
	0.83333333333333337 2 1 2 
	4.7245449167825306e-015 0 
	0.11082009753498739 0 
	0.22164019506997007 0 
	0.33246029260495513 0 
	0.44328039013994014 0 
	0.55410048767492515 0 
	0.66492058520991026 0 
	0.77574068274489294 0 
	0.88656078027987562 0 
	0.99738087781486295 0 
	1.1082009753498503 0 
	1.2190210728848307 0 
	1.329841170419811 0 
	0.001 
	spline forward { ref 0 } I I I I 
	} 0 0 #
face $-1 $66 $67 $11 $-1 $68 reversed single #
loop $-1 $-1 $69 $23 #
plane-surface $-1 0 0 -1.8805415000000032 0 0 1 1 0 0 forward_v I I I I #
coedge $-1 $70 $71 $72 $73 forward $24 $-1 #
fmesh-eye-attrib $-1 $-1 $27 $19 #
model_id-kcp-attrib $-1 $74 $-1 $28 1 990661895 90 -1269170175 5 #
face $75 $76 $77 $6 $-1 $78 forward single #
loop $-1 $-1 $79 $28 #
spline-surface $-1 forward { exactsur full nubs 1 1 open open none none 2 2 
	0 1 1 1 
	0 1 1.880541500000001 1 
	0.76021461600000095 53.500000000000021 -63.890018500000032 
	0.76021461600000095 51.500000000000021 -63.890018500000032 
	0.76021461600000095 53.500000000000021 -67.651101500000038 
	0.76021461600000095 51.500000000000021 -67.651101500000038 
	0 
	0 
	0 
	0 
	0 
	0 
	0 
	F 1 F 0 F 1 F 0 } I I I I #
coedge $-1 $60 $59 $80 $81 reversed $29 $82 #
coedge $-1 $80 $31 $83 $84 forward $20 $85 #
coedge $-1 $31 $80 $86 $87 forward $20 $88 #
coedge $-1 $89 $90 $31 $50 reversed $44 $91 #
edge $92 $93 0 $94 1 $31 $95 forward 7 unknown #
pcurve $-1 0 forward { exppc nubs 2 open 7 
	0 2 0.16666666666666666 2 0.33333333333333331 2 0.5 2 0.66666666666666663 2 
	0.83333333333333337 2 1 2 
	4.7245449167825306e-015 0 
	0.11082009753498739 0 
	0.22164019506997007 0 
	0.33246029260495513 0 
	0.44328039013994014 0 
	0.55410048767492515 0 
	0.66492058520991026 0 
	0.77574068274489294 0 
	0.88656078027987562 0 
	0.99738087781486295 0 
	1.1082009753498503 0 
	1.2190210728848307 0 
	1.329841170419811 0 
	0.001 
	spline forward { ref 1 } I I I I 
	} 0 0 #
coedge $-1 $33 $32 $79 $96 forward $14 $97 #
coedge $-1 $98 $99 $32 $54 reversed $77 $100 #
edge $101 $64 0 $102 1 $32 $103 forward 7 unknown #
pcurve $-1 0 forward { exppc nubs 2 open 7 
	0 2 0.16666666666666666 2 0.33333333333333331 2 0.5 2 0.66666666666666663 2 
	0.83333333333333337 2 1 2 
	1.329841170419811 0 
	1.329841170419811 0.083333333333333315 
	1.329841170419811 0.16666666666666663 
	1.329841170419811 0.24999999999999994 
	1.329841170419811 0.33333333333333326 
	1.329841170419811 0.41666666666666663 
	1.329841170419811 0.5 
	1.329841170419811 0.58333333333333326 
	1.329841170419811 0.66666666666666652 
	1.329841170419811 0.75 
	1.329841170419811 0.83333333333333337 
	1.329841170419811 0.91666666666666674 
	1.329841170419811 1 
	0.001 
	spline forward { ref 0 } I I I I 
	} 0 0 #
coedge $-1 $104 $105 $33 $57 reversed $106 $107 #
edge $108 $109 0 $63 1 $33 $110 forward 7 unknown #
pcurve $-1 0 forward { exppc nubs 2 open 7 
	0 2 0.16666666666666666 2 0.33333333333333331 2 0.5 2 0.66666666666666663 2 
	0.83333333333333337 2 1 2 
	4.7245449167825306e-015 1 
	2.3622724583912653e-015 0.91666666666666663 
	0 0.83333333333333326 
	2.3622724583912649e-015 0.75 
	4.7245449167825298e-015 0.66666666666666674 
	4.7245449167825298e-015 0.58333333333333337 
	4.7245449167825306e-015 0.5 
	2.3622724583912653e-015 0.41666666666666669 
	0 0.33333333333333337 
	2.3622724583912736e-015 0.25 
	4.7245449167825471e-015 0.16666666666666663 
	4.7245449167825392e-015 0.083333333333333315 
	4.7245449167825306e-015 0 
	0.001 
	spline forward { ref 0 } I I I I 
	} 0 0 #
coedge $-1 $46 $34 $105 $111 forward $29 $112 #
coedge $-1 $34 $46 $98 $113 forward $29 $114 #
pcurve $-1 0 forward { exppc nubs 2 open 7 
	-1 2 -0.83333333333333337 2 -0.66666666666666674 2 -0.5 2 -0.33333333333333337 2 
	-0.16666666666666663 2 0 2 
	1 1.880541500000001 
	0.91666666666666963 1.880541500000001 
	0.83333333333333925 1.880541500000001 
	0.75000000000000355 1.880541500000001 
	0.66666666666666785 1.880541500000001 
	0.5833333333333357 1.880541500000001 
	0.50000000000000355 1.880541500000001 
	0.4166666666666714 1.880541500000001 
	0.33333333333333925 1.880541500000001 
	0.25000000000000355 1.880541500000001 
	0.16666666666666785 1.880541500000001 
	0.083333333333335702 1.880541500000001 
	3.5527136788005009e-015 1.880541500000001 
	0.001 
	spline forward { ref 2 } I I I I 
	} 0 0 #
ptlist-eye-attrib $-1 $-1 $-1 $35 #
vertex $-1 $35 $115 #
vertex $-1 $35 $116 #
intcurve-curve $-1 forward { exactcur full nubs 1 open 2 
	0 1 1 1 
	-0.74372438400000096 53.500000000000014 -63.890018500000032 
	-0.74372438400000096 51.500000000000014 -63.890018500000032 
	0 
	null_surface 
	null_surface 
	nullbs 
	nullbs 
	I I 
	0 
	0 
	0 
	F 1 F 0 } I I #
face $-1 $117 $118 $11 $-1 $119 reversed single #
loop $-1 $-1 $120 $37 #
plane-surface $-1 0 -1.0000000000000036 0 0 1 0 0 0 1 forward_v I I I I #
coedge $-1 $121 $122 $123 $124 forward $38 $-1 #
coedge $-1 $125 $40 $126 $127 forward $24 $-1 #
coedge $-1 $40 $125 $128 $129 forward $24 $-1 #
coedge $-1 $130 $131 $40 $73 reversed $132 $-1 #
edge $-1 $133 -1.0000000000000036 $134 1.0000000000000036 $72 $135 forward 7 unknown #
fmesh-eye-attrib $-1 $-1 $42 $28 #
model_id-kcp-attrib $-1 $136 $-1 $43 1 990661895 90 -1269170175 6 #
face $137 $-1 $106 $6 $-1 $138 forward single #
loop $-1 $-1 $98 $43 #
spline-surface $-1 forward { exactsur full nubs 1 1 open open none none 2 2 
	0 1 2.5008215093830271 1 
	0 1 1 1 
	-0.74372438400000096 51.500000000000021 -63.890018500000032 
	-0.74372438400000096 51.500000000000021 -67.651101500000038 
	0.76021461600000095 51.500000000000021 -63.890018500000032 
	0.76021461600000095 51.500000000000021 -67.651101500000038 
	0 
	0 
	0 
	0 
	0 
	0 
	0 
	F 1 F 0 F 1 F 0 } I I I I #
coedge $-1 $90 $89 $52 $96 reversed $44 $139 #
coedge $-1 $48 $47 $46 $81 forward $20 $140 #
edge $141 $142 0 $143 1 $80 $144 forward 7 unknown #
pcurve $-1 0 forward { exppc nubs 2 open 7 
	-1 2 -0.83333333333333337 2 -0.66666666666666674 2 -0.5 2 -0.33333333333333337 2 
	-0.16666666666666663 2 0 2 
	3.5527136788005009e-015 0 
	0.083333333333335702 0 
	0.16666666666666785 0 
	0.25000000000000355 0 
	0.33333333333333925 0 
	0.4166666666666714 0 
	0.50000000000000355 0 
	0.5833333333333357 0 
	0.66666666666666785 0 
	0.75000000000000355 0 
	0.83333333333333925 0 
	0.91666666666666963 0 
	1 0 
	0.001 
	spline forward { ref 2 } I I I I 
	} 0 0 #
coedge $-1 $99 $98 $47 $84 reversed $77 $145 #
edge $146 $94 0 $142 1 $47 $147 forward 7 unknown #
pcurve $-1 0 forward { exppc nubs 2 open 7 
	0 2 0.16666666666666666 2 0.33333333333333331 2 0.5 2 0.66666666666666663 2 
	0.83333333333333337 2 1 2 
	1.329841170419811 0 
	1.329841170419811 0.083333333333333343 
	1.329841170419811 0.16666666666666669 
	1.329841170419811 0.24999999999999997 
	1.329841170419811 0.33333333333333326 
	1.329841170419811 0.41666666666666663 
	1.329841170419811 0.5 
	1.329841170419811 0.58333333333333326 
	1.329841170419811 0.66666666666666663 
	1.329841170419811 0.75 
	1.329841170419811 0.83333333333333337 
	1.329841170419811 0.91666666666666674 
	1.329841170419811 1 
	0.001 
	spline forward { ref 1 } I I I I 
	} 0 0 #
coedge $-1 $105 $104 $48 $87 reversed $106 $148 #
edge $149 $143 0 $93 1 $48 $150 forward 7 unknown #
pcurve $-1 0 forward { exppc nubs 2 open 7 
	0 2 0.16666666666666666 2 0.33333333333333331 2 0.5 2 0.66666666666666663 2 
	0.83333333333333337 2 1 2 
	4.7245449167825306e-015 1 
	2.3622724583912653e-015 0.91666666666666674 
	0 0.83333333333333337 
	2.3622724583912649e-015 0.75 
	4.7245449167825298e-015 0.66666666666666674 
	4.7245449167825298e-015 0.58333333333333337 
	4.7245449167825306e-015 0.5 
	4.7245449167825227e-015 0.41666666666666669 
	4.7245449167825148e-015 0.33333333333333337 
	4.7245449167825227e-015 0.24999999999999994 
	4.7245449167825306e-015 0.16666666666666655 
	4.7245449167825306e-015 0.083333333333333273 
	4.7245449167825306e-015 0 
	0.001 
	spline forward { ref 1 } I I I I 
	} 0 0 #
coedge $-1 $79 $49 $104 $151 forward $44 $152 #
coedge $-1 $49 $79 $99 $153 forward $44 $154 #
pcurve $-1 0 forward { exppc nubs 2 open 7 
	-1 2 -0.83333333333333337 2 -0.66666666666666674 2 -0.5 2 -0.33333333333333337 2 
	-0.16666666666666663 2 0 2 
	1 1.880541500000001 
	0.91666666666666963 1.880541500000001 
	0.83333333333333925 1.880541500000001 
	0.75000000000000355 1.880541500000001 
	0.66666666666666785 1.880541500000001 
	0.5833333333333357 1.880541500000001 
	0.50000000000000355 1.880541500000001 
	0.4166666666666714 1.880541500000001 
	0.33333333333333925 1.880541500000001 
	0.25000000000000355 1.880541500000001 
	0.16666666666666785 1.880541500000001 
	0.083333333333335702 1.880541500000001 
	3.5527136788005009e-015 1.880541500000001 
	0.001 
	spline forward { ref 4 } I I I I 
	} 0 0 #
ptlist-eye-attrib $-1 $-1 $-1 $50 #
vertex $-1 $50 $155 #
vertex $-1 $50 $156 #
intcurve-curve $-1 forward { exactcur full nubs 1 open 2 
	0 1 1 1 
	0.76021461600000095 53.500000000000014 -67.651101500000038 
	0.76021461600000095 51.500000000000014 -67.651101500000038 
	0 
	null_surface 
	null_surface 
	nullbs 
	nullbs 
	I I 
	0 
	0 
	0 
	F 1 F 0 } I I #
edge $157 $102 0 $109 1 $52 $158 forward 7 unknown #
pcurve $-1 0 forward { exppc nubs 2 open 7 
	0 2 0.16666666666666666 2 0.33333333333333331 2 0.5 2 0.66666666666666663 2 
	0.83333333333333337 2 1 2 
	1.329841170419811 1 
	1.2190210728848307 1 
	1.1082009753498503 1 
	0.99738087781486295 1 
	0.88656078027987562 1 
	0.77574068274489294 1 
	0.66492058520991026 1 
	0.55410048767492759 1 
	0.44328039013994486 1 
	0.33246029260495746 1 
	0.22164019506997007 1 
	0.11082009753498739 1 
	4.7245449167825306e-015 1 
	0.001 
	spline forward { ref 0 } I I I I 
	} 0 0 #
coedge $-1 $83 $53 $60 $113 reversed $77 $159 #
coedge $-1 $53 $83 $90 $153 reversed $77 $160 #
pcurve $-1 0 forward { exppc nubs 2 open 7 
	-1 2 -0.83333333333333337 2 -0.66666666666666674 2 -0.5 2 -0.33333333333333337 2 
	-0.16666666666666663 2 0 2 
	0 1 
	0 0.91666666666666674 
	0 0.83333333333333337 
	0 0.75 
	0 0.66666666666666674 
	0 0.58333333333333337 
	0 0.5 
	0 0.41666666666666669 
	0 0.33333333333333337 
	0 0.25 
	0 0.16666666666666663 
	0 0.083333333333333315 
	0 0 
	0.001 
	spline forward { ref 10 } I I I I 
	} 0 0 #
ptlist-eye-attrib $-1 $-1 $-1 $54 #
vertex $-1 $96 $161 #
intcurve-curve $-1 forward { exactcur full nubs 1 open 2 
	0 1 1 1 
	-0.74372438400000096 51.500000000000014 -63.890018500000032 
	0.76021461600000095 51.500000000000014 -63.890018500000032 
	0 
	null_surface 
	null_surface 
	nullbs 
	nullbs 
	I I 
	0 
	0 
	0 
	F 1 F 0 } I I #
coedge $-1 $86 $56 $89 $151 reversed $106 $162 #
coedge $-1 $56 $86 $59 $111 reversed $106 $163 #
loop $-1 $-1 $105 $76 #
pcurve $-1 0 forward { exppc nubs 2 open 7 
	-1 2 -0.83333333333333337 2 -0.66666666666666674 2 -0.5 2 -0.33333333333333337 2 
	-0.16666666666666663 2 0 2 
	2.5008215093830271 0 
	2.5008215093830271 0.083333333333333315 
	2.5008215093830271 0.16666666666666663 
	2.5008215093830271 0.24999999999999994 
	2.5008215093830271 0.33333333333333326 
	2.5008215093830271 0.41666666666666663 
	2.5008215093830271 0.5 
	2.5008215093830271 0.58333333333333326 
	2.5008215093830271 0.66666666666666652 
	2.5008215093830271 0.75 
	2.5008215093830271 0.83333333333333337 
	2.5008215093830271 0.91666666666666674 
	2.5008215093830271 1 
	0.001 
	spline forward { exactsur full nubs 1 1 open open none none 2 2 
	0 1 2.5008215093830271 1 
	0 1 1 1 
	-0.74372438400000096 53.500000000000021 -67.651101500000038 
	-0.74372438400000096 53.500000000000021 -63.890018500000032 
	0.76021461600000095 53.500000000000021 -67.651101500000038 
	0.76021461600000095 53.500000000000021 -63.890018500000032 
	0 
	0 
	0 
	0 
	0 
	0 
	0 
	F 1 F 0 F 1 F 0 } I I I I 
	} 0 0 #
ptlist-eye-attrib $-1 $-1 $-1 $57 #
vertex $-1 $57 $164 #
intcurve-curve $-1 forward { exactcur full nubs 1 open 2 
	0 1 1 1 
	0.76021461600000095 53.500000000000014 -63.890018500000032 
	-0.74372438400000096 53.500000000000014 -63.890018500000032 
	0 
	null_surface 
	null_surface 
	nullbs 
	nullbs 
	I I 
	0 
	0 
	0 
	F 1 F 0 } I I #
edge $165 $63 0 $143 1 $59 $166 forward 7 unknown #
pcurve $-1 0 forward { exppc nubs 2 open 7 
	0 2 0.16666666666666666 2 0.33333333333333331 2 0.5 2 0.66666666666666663 2 
	0.83333333333333337 2 1 2 
	3.5527136788005009e-015 1.880541500000001 
	3.5527136788005009e-015 1.7238297083333334 
	3.5527136788005009e-015 1.5671179166666658 
	3.5527136788004946e-015 1.4104061249999997 
	3.5527136788004883e-015 1.2536943333333339 
	3.5527136788004946e-015 1.0969825416666672 
	3.5527136788005009e-015 0.94027075000000049 
	1.7763568394002505e-015 0.783558958333332 
	0 0.6268471666666634 
	1.7763568394002568e-015 0.47013537499999758 
	3.5527136788005136e-015 0.31342358333333176 
	3.5527136788005072e-015 0.15671179166666588 
	3.5527136788005009e-015 0 
	0.001 
	spline forward { ref 2 } I I I I 
	} 0 0 #
edge $167 $142 0 $64 1 $60 $168 forward 7 unknown #
pcurve $-1 0 forward { exppc nubs 2 open 7 
	0 2 0.16666666666666666 2 0.33333333333333331 2 0.5 2 0.66666666666666663 2 
	0.83333333333333337 2 1 2 
	1 0 
	1 0.15671179166666588 
	1 0.31342358333333176 
	1 0.47013537499999758 
	1 0.6268471666666634 
	1 0.78355895833333278 
	1 0.94027075000000215 
	1 1.0969825416666681 
	1 1.2536943333333339 
	1 1.4104061250000033 
	1 1.5671179166666727 
	1 1.7238297083333367 
	1 1.880541500000001 
	0.001 
	spline forward { ref 2 } I I I I 
	} 0 0 #
point $-1 -0.74372438400000096 53.500000000000014 -63.890018500000032 #
point $-1 -0.74372438400000096 51.500000000000014 -63.890018500000032 #
face $-1 $169 $170 $11 $-1 $171 reversed single #
loop $-1 $-1 $172 $66 #
plane-surface $-1 -0.75196950000000096 0 0 1 0 0 0 0 -1 forward_v I I I I #
coedge $-1 $173 $128 $174 $175 forward $67 $-1 #
coedge $-1 $176 $69 $173 $177 forward $38 $-1 #
coedge $-1 $69 $176 $178 $179 forward $38 $-1 #
coedge $-1 $131 $130 $69 $124 reversed $132 $-1 #
edge $-1 $180 -1.0000000000000036 $181 1.0000000000000036 $123 $182 forward 7 unknown #
coedge $-1 $71 $70 $183 $184 forward $24 $-1 #
coedge $-1 $185 $186 $70 $127 reversed $170 $-1 #
edge $-1 $134 -0.75196950000000096 $187 0.75196950000000096 $126 $188 forward 7 unknown #
coedge $-1 $120 $189 $71 $129 reversed $67 $-1 #
edge $-1 $190 -0.75196950000000096 $133 0.75196950000000096 $128 $191 forward 7 unknown #
coedge $-1 $123 $72 $189 $192 forward $132 $-1 #
coedge $-1 $72 $123 $185 $193 reversed $132 $-1 #
loop $-1 $-1 $130 $169 #
vertex $-1 $73 $194 #
vertex $-1 $73 $195 #
straight-curve $-1 0.75196950000000096 0 1.8805415000000032 0 1 0 I I #
fmesh-eye-attrib $-1 $-1 $75 $43 #
model_id-kcp-attrib $-1 $196 $-1 $76 1 990661895 90 -1269170175 7 #
spline-surface $-1 forward { ref 20 } I I I I #
pcurve $-1 0 forward { exppc nubs 2 open 7 
	-1 2 -0.83333333333333337 2 -0.66666666666666674 2 -0.5 2 -0.33333333333333337 2 
	-0.16666666666666663 2 0 2 
	3.5527136788005009e-015 0 
	0.083333333333335702 0 
	0.16666666666666785 0 
	0.25000000000000355 0 
	0.33333333333333925 0 
	0.4166666666666714 0 
	0.50000000000000355 0 
	0.5833333333333357 0 
	0.66666666666666785 0 
	0.75000000000000355 0 
	0.83333333333333925 0 
	0.91666666666666963 0 
	1 0 
	0.001 
	spline forward { ref 4 } I I I I 
	} 0 0 #
pcurve $-1 0 forward { exppc nubs 2 open 7 
	0 2 0.16666666666666666 2 0.33333333333333331 2 0.5 2 0.66666666666666663 2 
	0.83333333333333337 2 1 2 
	1.329841170419811 1 
	1.2190210728848307 1 
	1.1082009753498503 1 
	0.99738087781486295 1 
	0.88656078027987562 1 
	0.77574068274489294 1 
	0.66492058520991026 1 
	0.55410048767492759 1 
	0.44328039013994486 1 
	0.33246029260495746 1 
	0.22164019506997007 1 
	0.11082009753498739 1 
	4.7245449167825306e-015 1 
	0.001 
	spline forward { ref 1 } I I I I 
	} 0 0 #
ptlist-eye-attrib $-1 $-1 $-1 $81 #
vertex $-1 $81 $197 #
vertex $-1 $87 $198 #
intcurve-curve $-1 forward { exactcur full nubs 1 open 2 
	0 1 1 1 
	-0.74372438400000096 51.500000000000014 -67.651101500000038 
	-0.74372438400000096 53.500000000000014 -67.651101500000038 
	0 
	null_surface 
	null_surface 
	nullbs 
	nullbs 
	I I 
	0 
	0 
	0 
	F 1 F 0 } I I #
pcurve $-1 0 forward { exppc nubs 2 open 7 
	-1 2 -0.83333333333333337 2 -0.66666666666666674 2 -0.5 2 -0.33333333333333337 2 
	-0.16666666666666663 2 0 2 
	2.5008215093830271 0 
	2.5008215093830271 0.083333333333333315 
	2.5008215093830271 0.16666666666666663 
	2.5008215093830271 0.24999999999999994 
	2.5008215093830271 0.33333333333333326 
	2.5008215093830271 0.41666666666666663 
	2.5008215093830271 0.5 
	2.5008215093830271 0.58333333333333326 
	2.5008215093830271 0.66666666666666652 
	2.5008215093830271 0.75 
	2.5008215093830271 0.83333333333333337 
	2.5008215093830271 0.91666666666666674 
	2.5008215093830271 1 
	0.001 
	spline forward { ref 10 } I I I I 
	} 0 0 #
ptlist-eye-attrib $-1 $-1 $-1 $84 #
intcurve-curve $-1 forward { exactcur full nubs 1 open 2 
	0 1 1 1 
	0.76021461600000095 51.500000000000014 -67.651101500000038 
	-0.74372438400000096 51.500000000000014 -67.651101500000038 
	0 
	null_surface 
	null_surface 
	nullbs 
	nullbs 
	I I 
	0 
	0 
	0 
	F 1 F 0 } I I #
pcurve $-1 0 forward { exppc nubs 2 open 7 
	-1 2 -0.83333333333333337 2 -0.66666666666666674 2 -0.5 2 -0.33333333333333337 2 
	-0.16666666666666663 2 0 2 
	0 1 
	0 0.91666666666666674 
	0 0.83333333333333337 
	0 0.75 
	0 0.66666666666666674 
	0 0.58333333333333337 
	0 0.5 
	0 0.41666666666666669 
	0 0.33333333333333337 
	0 0.25 
	0 0.16666666666666663 
	0 0.083333333333333315 
	0 0 
	0.001 
	spline forward { ref 20 } I I I I 
	} 0 0 #
ptlist-eye-attrib $-1 $-1 $-1 $87 #
intcurve-curve $-1 forward { exactcur full nubs 1 open 2 
	0 1 1 1 
	-0.74372438400000096 53.500000000000014 -67.651101500000038 
	0.76021461600000095 53.500000000000014 -67.651101500000038 
	0 
	null_surface 
	null_surface 
	nullbs 
	nullbs 
	I I 
	0 
	0 
	0 
	F 1 F 0 } I I #
edge $199 $93 0 $109 1 $89 $200 forward 7 unknown #
pcurve $-1 0 forward { exppc nubs 2 open 7 
	0 2 0.16666666666666666 2 0.33333333333333331 2 0.5 2 0.66666666666666663 2 
	0.83333333333333337 2 1 2 
	3.5527136788005009e-015 1.880541500000001 
	1.7763568394002505e-015 1.7238297083333352 
	0 1.5671179166666693 
	1.7763568394002505e-015 1.4104061250000035 
	3.5527136788005009e-015 1.2536943333333377 
	3.5527136788005009e-015 1.096982541666669 
	3.5527136788005009e-015 0.94027075000000049 
	1.7763568394002505e-015 0.78355895833333378 
	0 0.62684716666666696 
	0 0.47013537499999758 
	0 0.31342358333332815 
	1.7763568394002505e-015 0.15671179166666407 
	3.5527136788005009e-015 0 
	0.001 
	spline forward { ref 4 } I I I I 
	} 0 0 #
edge $201 $102 0 $94 1 $90 $202 forward 7 unknown #
pcurve $-1 0 forward { exppc nubs 2 open 7 
	0 2 0.16666666666666666 2 0.33333333333333331 2 0.5 2 0.66666666666666663 2 
	0.83333333333333337 2 1 2 
	1 0 
	1 0.15671179166666765 
	1 0.31342358333333531 
	1 0.47013537500000113 
	1 0.62684716666666696 
	1 0.78355895833333289 
	1 0.94027074999999882 
	1 1.0969825416666683 
	1 1.2536943333333377 
	1 1.4104061250000035 
	1 1.5671179166666693 
	1 1.7238297083333352 
	1 1.880541500000001 
	0.001 
	spline forward { ref 4 } I I I I 
	} 0 0 #
point $-1 0.76021461600000095 53.500000000000014 -67.651101500000038 #
point $-1 0.76021461600000095 51.500000000000014 -67.651101500000038 #
ptlist-eye-attrib $-1 $-1 $-1 $96 #
intcurve-curve $-1 forward { exactcur full nubs 1 open 2 
	0 1 1 1 
	0.76021461600000095 51.500000000000014 -63.890018500000032 
	0.76021461600000095 53.500000000000014 -63.890018500000032 
	0 
	null_surface 
	null_surface 
	nullbs 
	nullbs 
	I I 
	0 
	0 
	0 
	F 1 F 0 } I I #
pcurve $-1 0 forward { exppc nubs 2 open 7 
	-1 2 -0.83333333333333337 2 -0.66666666666666674 2 -0.5 2 -0.33333333333333337 2 
	-0.16666666666666663 2 0 2 
	0 0 
	0.20840179244858204 0 
	0.41680358489716407 0 
	0.62520537734575321 0 
	0.83360716979434235 0 
	1.042008962242928 0 
	1.2504107546915135 0 
	1.4588125471401017 0 
	1.6672143395886896 0 
	1.875616132037274 0 
	2.0840179244858583 0 
	2.2924197169344427 0 
	2.5008215093830271 0 
	0.001 
	spline forward { ref 10 } I I I I 
	} 0 0 #
pcurve $-1 0 forward { exppc nubs 2 open 7 
	-1 2 -0.83333333333333337 2 -0.66666666666666674 2 -0.5 2 -0.33333333333333337 2 
	-0.16666666666666663 2 0 2 
	2.5008215093830271 1 
	2.2924197169344427 1 
	2.0840179244858583 1 
	1.875616132037274 1 
	1.6672143395886896 1 
	1.4588125471401017 1 
	1.2504107546915135 1 
	1.042008962242928 1 
	0.83360716979434235 1 
	0.62520537734575321 1 
	0.41680358489716407 1 
	0.20840179244858204 1 
	0 1 
	0.001 
	spline forward { ref 10 } I I I I 
	} 0 0 #
point $-1 0.76021461600000095 51.500000000000014 -63.890018500000032 #
pcurve $-1 0 forward { exppc nubs 2 open 7 
	-1 2 -0.83333333333333337 2 -0.66666666666666674 2 -0.5 2 -0.33333333333333337 2 
	-0.16666666666666663 2 0 2 
	2.5008215093830271 1 
	2.2924197169344449 1 
	2.0840179244858628 1 
	1.8756161320372737 1 
	1.6672143395886847 1 
	1.458812547140099 1 
	1.2504107546915135 1 
	1.0420089622429256 1 
	0.83360716979433758 1 
	0.62520537734575321 1 
	0.41680358489716884 1 
	0.20840179244858442 1 
	0 1 
	0.001 
	spline forward { ref 20 } I I I I 
	} 0 0 #
pcurve $-1 0 forward { exppc nubs 2 open 7 
	-1 2 -0.83333333333333337 2 -0.66666666666666674 2 -0.5 2 -0.33333333333333337 2 
	-0.16666666666666663 2 0 2 
	0 0 
	0.20840179244858442 0 
	0.41680358489716884 0 
	0.62520537734575321 0 
	0.83360716979433758 0 
	1.0420089622429256 0 
	1.2504107546915135 0 
	1.458812547140099 0 
	1.6672143395886847 0 
	1.8756161320372737 0 
	2.0840179244858628 0 
	2.2924197169344449 0 
	2.5008215093830271 0 
	0.001 
	spline forward { ref 20 } I I I I 
	} 0 0 #
point $-1 0.76021461600000095 53.500000000000014 -63.890018500000032 #
ptlist-eye-attrib $-1 $-1 $-1 $111 #
intcurve-curve $-1 forward { exactcur full nubs 1 open 2 
	0 1 1 1 
	-0.74372438400000096 53.500000000000014 -63.890018500000032 
	-0.74372438400000096 53.500000000000014 -67.651101500000038 
	0 
	null_surface 
	null_surface 
	nullbs 
	nullbs 
	I I 
	0 
	0 
	0 
	F 1 F 0 } I I #
ptlist-eye-attrib $-1 $-1 $-1 $113 #
intcurve-curve $-1 forward { exactcur full nubs 1 open 2 
	0 1 1 1 
	-0.74372438400000096 51.500000000000014 -67.651101500000038 
	-0.74372438400000096 51.500000000000014 -63.890018500000032 
	0 
	null_surface 
	null_surface 
	nullbs 
	nullbs 
	I I 
	0 
	0 
	0 
	F 1 F 0 } I I #
face $-1 $-1 $132 $11 $-1 $203 reversed single #
loop $-1 $-1 $185 $117 #
plane-surface $-1 0 1.0000000000000036 0 0 -1 0 0 0 -1 forward_v I I I I #
coedge $-1 $204 $183 $186 $205 forward $118 $-1 #
coedge $-1 $189 $120 $121 $177 reversed $67 $-1 #
coedge $-1 $183 $204 $120 $175 reversed $118 $-1 #
edge $-1 $190 -1.8805415000000032 $206 1.8805415000000032 $174 $207 forward 7 unknown #
coedge $-1 $122 $121 $204 $208 forward $38 $-1 #
edge $-1 $181 -0.75196950000000096 $206 0.75196950000000096 $173 $209 forward 7 unknown #
coedge $-1 $186 $185 $122 $179 reversed $170 $-1 #
edge $-1 $210 -0.75196950000000096 $180 0.75196950000000096 $178 $211 forward 7 unknown #
vertex $-1 $124 $212 #
vertex $-1 $192 $213 #
straight-curve $-1 0.75196950000000096 0 -1.8805415000000032 0 -1 0 I I #
coedge $-1 $172 $174 $125 $184 reversed $118 $-1 #
edge $-1 $187 -1.0000000000000036 $190 1.0000000000000036 $183 $214 forward 7 unknown #
coedge $-1 $178 $126 $131 $193 forward $170 $-1 #
coedge $-1 $126 $178 $172 $205 reversed $170 $-1 #
vertex $-1 $127 $215 #
straight-curve $-1 0 1.0000000000000036 1.8805415000000032 -1 0 0 I I #
coedge $-1 $128 $173 $130 $192 reversed $67 $-1 #
vertex $-1 $184 $216 #
straight-curve $-1 0 -1.0000000000000036 1.8805415000000032 1 0 0 I I #
edge $-1 $133 -1.8805415000000032 $181 1.8805415000000032 $130 $217 forward 7 unknown #
edge $-1 $134 -1.8805415000000032 $180 1.8805415000000032 $131 $218 forward 7 unknown #
point $-1 0.75196950000000096 -1.0000000000000036 1.8805415000000032 #
point $-1 0.75196950000000096 1.0000000000000036 1.8805415000000032 #
fmesh-eye-attrib $-1 $-1 $137 $76 #
point $-1 -0.74372438400000096 51.500000000000014 -67.651101500000038 #
point $-1 -0.74372438400000096 53.500000000000014 -67.651101500000038 #
ptlist-eye-attrib $-1 $-1 $-1 $151 #
intcurve-curve $-1 forward { exactcur full nubs 1 open 2 
	0 1 1 1 
	0.76021461600000095 53.500000000000014 -67.651101500000038 
	0.76021461600000095 53.500000000000014 -63.890018500000032 
	0 
	null_surface 
	null_surface 
	nullbs 
	nullbs 
	I I 
	0 
	0 
	0 
	F 1 F 0 } I I #
ptlist-eye-attrib $-1 $-1 $-1 $153 #
intcurve-curve $-1 forward { exactcur full nubs 1 open 2 
	0 1 1 1 
	0.76021461600000095 51.500000000000014 -63.890018500000032 
	0.76021461600000095 51.500000000000014 -67.651101500000038 
	0 
	null_surface 
	null_surface 
	nullbs 
	nullbs 
	I I 
	0 
	0 
	0 
	F 1 F 0 } I I #
plane-surface $-1 0.75196950000000096 0 0 -1 0 0 0 0 1 forward_v I I I I #
coedge $-1 $174 $172 $176 $208 reversed $118 $-1 #
edge $-1 $187 -1.8805415000000032 $210 1.8805415000000032 $186 $219 forward 7 unknown #
vertex $-1 $208 $220 #
straight-curve $-1 -0.75196950000000096 -1.0000000000000036 0 0 0 -1 I I #
edge $-1 $206 -1.0000000000000036 $210 1.0000000000000036 $204 $221 forward 7 unknown #
straight-curve $-1 0 -1.0000000000000036 -1.8805415000000032 -1 0 0 I I #
vertex $-1 $179 $222 #
straight-curve $-1 0 1.0000000000000036 -1.8805415000000032 1 0 0 I I #
point $-1 0.75196950000000096 1.0000000000000036 -1.8805415000000032 #
point $-1 0.75196950000000096 -1.0000000000000036 -1.8805415000000032 #
straight-curve $-1 -0.75196950000000096 0 1.8805415000000032 0 -1 0 I I #
point $-1 -0.75196950000000096 1.0000000000000036 1.8805415000000032 #
point $-1 -0.75196950000000096 -1.0000000000000036 1.8805415000000032 #
straight-curve $-1 0.75196950000000096 -1.0000000000000036 0 0 0 -1 I I #
straight-curve $-1 0.75196950000000096 1.0000000000000036 0 0 0 -1 I I #
straight-curve $-1 -0.75196950000000096 1.0000000000000036 0 0 0 -1 I I #
point $-1 -0.75196950000000096 -1.0000000000000036 -1.8805415000000032 #
straight-curve $-1 -0.75196950000000096 0 -1.8805415000000032 0 1 0 I I #
point $-1 -0.75196950000000096 1.0000000000000036 -1.8805415000000032 #
End-of-ACIS-data 