600 0 1 0           
86 GICL ACIS Healer - Source: /gicl/data5/repository/SDRC_I-DEAS/blender/Part19.sat - 6 0 18 ACIS 6.0.3 Solaris 24 Sat Apr 13 23:10:01 2002 
1 9.999999999999999547e-07 1.000000000000000036e-10 
body $-1 $1 $-1 $2 #
lump $-1 $3 $4 $0 #
transform $-1 1 0 0 0 1 0 0 0 1 0 0 0 1 no_rotate no_reflect no_shear #
lump $-1 $-1 $5 $0 #
shell $-1 $-1 $-1 $6 $-1 $1 #
shell $-1 $-1 $-1 $7 $-1 $3 #
face $8 $9 $10 $4 $-1 $11 forward single #
face $12 $13 $14 $5 $-1 $15 forward single #
fmesh-eye-attrib $-1 $-1 $-1 $6 #
face $16 $17 $18 $4 $-1 $19 forward single #
loop $-1 $-1 $20 $6 #
plane-surface $-1 66.04192735664128122 -7.105427357601001859e-15 17.50000007450581307 0 0 1 1 0 0 forward_v I I I I #
fmesh-eye-attrib $-1 $-1 $-1 $7 #
face $21 $22 $23 $5 $-1 $24 forward single #
loop $-1 $-1 $25 $7 #
plane-surface $-1 66.90112030395459897 -2.846703972991804221e-06 -13.74999977648229077 -1.146036747575372233e-16 0 -1 -1 0 1.146036747575372233e-16 forward_v I I I I #
fmesh-eye-attrib $-1 $-1 $-1 $9 #
face $26 $27 $28 $4 $-1 $29 forward single #
loop $-1 $-1 $30 $9 #
cone-surface $-1 0 0 3.50000001490116297 0 0 1 -1.776356839400250465e-14 -76.65112777509105513 0 1 I I 0 1 76.65112777509106934 forward I I I I #
coedge $-1 $31 $32 $33 $34 reversed $10 $-1 #
fmesh-eye-attrib $-1 $-1 $-1 $13 #
face $35 $36 $37 $5 $-1 $38 forward single #
loop $-1 $-1 $39 $13 #
plane-surface $-1 68.15111978321033348 -3.500002846703929027 -8.749999888241102752 -0 -1 -0 0 0 -1 forward_v I I I I #
coedge $-1 $40 $41 $42 $43 forward $14 $-1 #
fmesh-eye-attrib $-1 $-1 $-1 $17 #
face $44 $45 $46 $4 $-1 $47 forward single #
loop $-1 $-1 $48 $17 #
plane-surface $-1 56.76544000000001944 50.00000000000000711 8.750000037252906537 0 1 -0 -0 0 1 forward_v I I I I #
coedge $-1 $49 $50 $51 $52 reversed $18 $-1 #
coedge $-1 $53 $20 $54 $55 forward $10 $-1 #
coedge $-1 $20 $53 $56 $57 forward $10 $-1 #
coedge $-1 $58 $59 $20 $34 forward $60 $-1 #
edge $-1 $61 3.305530616512101005 $62 5.970926636287877898 $20 $63 reversed 7 unknown #
fmesh-eye-attrib $-1 $-1 $-1 $22 #
face $64 $65 $66 $5 $-1 $67 forward single #
loop $-1 $-1 $68 $22 #
cone-surface $-1 61.65112082501336488 -2.846703959669127926e-06 -6.349999956404937862 0 0 -1 3.50000000000075806 -2.640556884259599225e-09 0 1 I I 0 1 3.500000000000131006 forward I I I I #
coedge $-1 $69 $70 $71 $72 forward $23 $-1 #
coedge $-1 $73 $25 $74 $75 forward $14 $-1 #
coedge $-1 $25 $73 $76 $77 reversed $14 $-1 #
coedge $-1 $78 $79 $25 $43 reversed $80 $-1 #
edge $-1 $81 -2.599999999999951683 $82 10.3999989581963419 $25 $83 forward 7 unknown #
fmesh-eye-attrib $-1 $-1 $-1 $27 #
face $84 $85 $60 $4 $-1 $86 forward single #
loop $-1 $-1 $87 $27 #
cone-surface $-1 0 0 3.500000014901162082 0 0 -1 1.421085471520200372e-14 74.65112559955832694 0 1 I I 0 -1 74.65112559955832694 forward I I I I #
coedge $-1 $88 $89 $90 $91 reversed $28 $-1 #
coedge $-1 $54 $30 $89 $92 forward $18 $-1 #
coedge $-1 $30 $54 $59 $93 reversed $18 $-1 #
coedge $-1 $94 $90 $30 $52 forward $95 $-1 #
edge $-1 $96 -2.281419352239348441 $97 -0.8601733013504454517 $30 $98 reversed 7 unknown #
coedge $-1 $32 $31 $99 $100 forward $10 $-1 #
coedge $-1 $50 $49 $31 $55 reversed $18 $-1 #
edge $-1 $61 0.8601733013504452297 $101 2.281419352239348441 $31 $102 forward 7 unknown #
coedge $-1 $103 $104 $32 $57 reversed $46 $-1 #
edge $-1 $105 0.836880800995196239 $62 2.304711852594595989 $32 $106 forward 7 unknown #
coedge $-1 $107 $33 $104 $108 forward $60 $-1 #
coedge $-1 $33 $107 $50 $93 forward $60 $-1 #
loop $-1 $-1 $107 $45 #
vertex $-1 $34 $109 #
vertex $-1 $34 $110 #
straight-curve $-1 61.40368367832064678 -50.00000000000000711 17.50000007450581307 1 0 -0 I I #
fmesh-eye-attrib $-1 $-1 $-1 $36 #
face $111 $112 $113 $5 $-1 $114 forward single #
loop $-1 $-1 $115 $36 #
plane-surface $-1 74.65111978321026243 -2.846703956560503457e-06 -8.749999888241106305 1 0 0 0 0 -1 forward_v I I I I #
coedge $-1 $116 $117 $118 $119 forward $37 $-1 #
coedge $-1 $120 $39 $117 $121 forward $23 $-1 #
coedge $-1 $39 $120 $122 $123 reversed $23 $-1 #
coedge $-1 $124 $125 $39 $72 reversed $126 $-1 #
edge $-1 $127 -10.39999999999984936 $128 2.599998958197048182 $39 $129 reversed 7 unknown #
coedge $-1 $41 $40 $130 $131 forward $14 $-1 #
coedge $-1 $132 $133 $40 $75 reversed $134 $-1 #
edge $-1 $82 -1.570796326794905218 $135 1.570796326794905218 $40 $136 forward 7 unknown #
coedge $-1 $137 $138 $41 $77 forward $66 $-1 #
edge $-1 $81 -2.499999999999963585 $139 2.499999999999984901 $41 $140 reversed 7 unknown #
coedge $-1 $141 $42 $138 $142 reversed $80 $-1 #
coedge $-1 $42 $141 $132 $143 forward $80 $-1 #
loop $-1 $-1 $42 $144 #
vertex $-1 $43 $145 #
vertex $-1 $43 $146 #
straight-curve $-1 72.05111978321031074 -2.500002846703928139 -13.74999977648229077 -1 0 0 I I #
fmesh-eye-attrib $-1 $-1 $-1 $45 #
face $147 $-1 $95 $4 $-1 $148 forward single #
plane-surface $-1 56.76544000000001944 -50.00000000000000711 8.750000037252906537 0 -1 0 0 0 -1 forward_v I I I I #
coedge $-1 $104 $103 $149 $150 reversed $46 $-1 #
coedge $-1 $99 $48 $103 $151 forward $28 $-1 #
coedge $-1 $48 $99 $49 $92 reversed $28 $-1 #
coedge $-1 $51 $149 $48 $91 forward $95 $-1 #
edge $-1 $152 -5.970926636287892109 $96 -3.3055306165120939 $48 $153 reversed 7 unknown #
edge $-1 $96 -3.50000001490116297 $101 14.0000000596046501 $49 $154 forward 7 unknown #
edge $-1 $97 -3.50000001490116297 $61 14.0000000596046501 $50 $155 reversed 7 unknown #
coedge $-1 $149 $51 $107 $156 reversed $95 $-1 #
loop $-1 $-1 $149 $85 #
vertex $-1 $52 $157 #
vertex $-1 $52 $158 #
ellipse-curve $-1 0 0 0 -0 -0 1 -1.776356839400250465e-14 -76.65112777509105513 0 1 I I #
coedge $-1 $89 $88 $53 $100 reversed $28 $-1 #
edge $-1 $101 3.3055306165120939 $105 5.970926636287892109 $53 $159 forward 7 unknown #
vertex $-1 $100 $160 #
ellipse-curve $-1 0 0 17.50000007450581307 0 0 1 -1.776356839400250465e-14 -76.65112777509105513 0 1 I I #
coedge $-1 $87 $56 $88 $151 reversed $46 $-1 #
coedge $-1 $56 $87 $58 $108 reversed $46 $-1 #
vertex $-1 $57 $161 #
ellipse-curve $-1 0 0 17.50000007450581307 -0 -0 -1 1.421085471520200372e-14 74.65112559955832694 0 1 I I #
coedge $-1 $59 $58 $94 $156 forward $60 $-1 #
edge $-1 $62 -14.00000005960465188 $162 3.500000014901161638 $104 $163 reversed 7 unknown #
point $-1 58.09815306180854577 -50.00000000000001421 17.50000007450581307 #
point $-1 55.43275704203276888 -49.99999999999999289 17.50000007450581307 #
fmesh-eye-attrib $-1 $-1 $-1 $65 #
face $164 $144 $165 $5 $-1 $166 forward single #
loop $-1 $-1 $167 $65 #
plane-surface $-1 68.15111978321033348 3.499997153297587094 -8.749999888241102752 0 1 0 0 0 1 forward_v I I I I #
coedge $-1 $168 $169 $170 $171 forward $66 $-1 #
coedge $-1 $172 $68 $173 $174 forward $37 $-1 #
coedge $-1 $68 $172 $69 $121 reversed $37 $-1 #
coedge $-1 $175 $176 $68 $119 reversed $177 $-1 #
edge $-1 $128 1.570796326040309721 $178 4.712388979630386387 $68 $179 forward 7 unknown #
coedge $-1 $70 $69 $141 $180 forward $23 $-1 #
edge $-1 $128 -1.599999956405015133 $181 6.399999820077349355 $69 $182 forward 7 unknown #
coedge $-1 $138 $183 $70 $123 forward $66 $-1 #
edge $-1 $127 -3.9999998882411818 $184 3.999999888241182688 $70 $185 reversed 7 unknown #
coedge $-1 $186 $71 $183 $187 reversed $126 $-1 #
coedge $-1 $71 $186 $175 $188 forward $126 $-1 #
loop $-1 $-1 $186 $189 #
vertex $-1 $72 $190 #
vertex $-1 $72 $191 #
straight-curve $-1 64.25111978321041306 -3.500002846703929027 -4.749999999999922728 1 -1.441831998707606023e-17 5.382063481711800799e-18 I I #
coedge $-1 $192 $193 $73 $131 reversed $194 $-1 #
edge $-1 $135 -2.599998958196444221 $139 10.39999999999984936 $73 $195 forward 7 unknown #
coedge $-1 $196 $74 $79 $143 reversed $134 $-1 #
coedge $-1 $74 $196 $192 $197 forward $134 $-1 #
loop $-1 $-1 $74 $198 #
vertex $-1 $131 $199 #
ellipse-curve $-1 61.65112082501394752 -2.846704193426585761e-06 -13.74999977648229077 -1.146036747575372233e-16 0 -1 -2.50000000000075806 0 -4.77128406753231647e-14 1 I I #
coedge $-1 $169 $76 $193 $200 forward $66 $-1 #
coedge $-1 $76 $122 $78 $142 forward $66 $-1 #
vertex $-1 $77 $201 #
straight-curve $-1 74.65111978321026243 -2.846703964776153839e-06 -13.74999977648229077 0 -1 -0 I I #
coedge $-1 $79 $78 $120 $180 reversed $80 $-1 #
edge $-1 $184 -2.356194490192346169 $81 -0.7853981633974501664 $138 $202 forward 7 unknown #
edge $-1 $181 -1.989519660129603472e-14 $82 1.570796326794876796 $79 $203 reversed 7 unknown #
face $204 $198 $80 $5 $-1 $205 forward single #
point $-1 74.65111978321026243 -2.500002846703928583 -13.74999977648229077 #
point $-1 61.65112082501396884 -2.500002846703928139 -13.74999977648228722 #
fmesh-eye-attrib $-1 $-1 $-1 $85 #
plane-surface $-1 66.04192735664126701 -1.421085471520200372e-14 0 0 0 -1 -1 0 0 forward_v I I I I #
coedge $-1 $90 $94 $87 $150 forward $95 $-1 #
edge $-1 $162 -2.304711852594595989 $152 -0.836880800995196239 $87 $206 reversed 7 unknown #
edge $-1 $152 -3.500000014901161638 $105 14.00000005960465188 $88 $207 forward 7 unknown #
vertex $-1 $91 $208 #
straight-curve $-1 61.40368367832064678 50.00000000000000711 0 -1 0 0 I I #
straight-curve $-1 58.09815306180855288 50.00000000000000711 3.50000001490116297 0 0 1 I I #
straight-curve $-1 58.09815306180855288 -50.00000000000000711 3.50000001490116297 -0 -0 -1 I I #
edge $-1 $162 -5.970926636287877898 $97 -3.305530616512086795 $107 $209 forward 7 unknown #
point $-1 58.09815306180855288 50.00000000000001421 0 #
point $-1 58.09815306180855998 -50.00000000000000711 0 #
straight-curve $-1 61.40368367832064678 50.00000000000000711 17.50000007450581307 -1 0 0 I I #
point $-1 58.09815306180855288 50.00000000000001421 17.50000007450581307 #
point $-1 55.43275704203275467 50.00000000000000711 17.50000007450581307 #
vertex $-1 $150 $210 #
straight-curve $-1 55.43275704203275467 -50.00000000000000711 3.500000014901161638 0 -0 1 I I #
fmesh-eye-attrib $-1 $-1 $-1 $112 #
loop $-1 $-1 $211 $112 #
plane-surface $-1 66.90112030395459897 -2.846703933023775335e-06 -3.749999999999920952 -0 0 1 1 -0 0 forward_v I I I I #
coedge $-1 $212 $173 $213 $214 forward $113 $-1 #
coedge $-1 $183 $115 $215 $216 forward $66 $-1 #
coedge $-1 $115 $137 $212 $217 forward $66 $-1 #
coedge $-1 $213 $218 $115 $171 reversed $219 $-1 #
edge $-1 $220 -2.356194490192344837 $221 -0.78539816339744839 $115 $222 forward 7 unknown #
coedge $-1 $117 $116 $196 $223 forward $37 $-1 #
coedge $-1 $167 $224 $116 $174 reversed $113 $-1 #
edge $-1 $178 -1.599999956404885459 $225 6.399999820077299617 $116 $226 forward 7 unknown #
coedge $-1 $227 $118 $125 $188 reversed $177 $-1 #
coedge $-1 $118 $227 $228 $229 forward $177 $-1 #
loop $-1 $-1 $227 $230 #
vertex $-1 $119 $231 #
ellipse-curve $-1 61.6511208250128675 -2.846704082237749844e-06 -4.750000000000052403 0 0 -1 3.50000000000075806 -2.640556884259599225e-09 0 1 I I #
edge $-1 $181 -10.39999895819694586 $184 2.599999999999951683 $120 $232 reversed 7 unknown #
vertex $-1 $180 $233 #
straight-curve $-1 61.65112082501336488 -3.500002846703929027 -6.349999956404937862 0 0 -1 I I #
coedge $-1 $122 $168 $124 $187 forward $66 $-1 #
vertex $-1 $123 $234 #
straight-curve $-1 74.65111978321026243 -3.500002846703929027 -8.749999888241104529 0 0 1 I I #
coedge $-1 $125 $124 $235 $236 reversed $126 $-1 #
edge $-1 $237 0.7853981633974498333 $127 2.356194490192346613 $183 $238 forward 7 unknown #
edge $-1 $239 -1.570796326794844822 $128 5.18696197104660951e-14 $125 $240 forward 7 unknown #
face $241 $230 $126 $5 $-1 $242 forward single #
point $-1 74.65111978321026243 -3.500002846703929027 -4.749999999999922728 #
point $-1 61.65112082501336488 -3.500002846703929027 -4.749999999999922728 #
coedge $-1 $243 $130 $133 $197 reversed $194 $-1 #
coedge $-1 $130 $243 $137 $200 reversed $194 $-1 #
loop $-1 $-1 $130 $244 #
straight-curve $-1 64.25111978321041306 2.499997153296020347 -13.74999977648229077 1 0 0 I I #
coedge $-1 $133 $132 $172 $223 reversed $134 $-1 #
edge $-1 $225 -8.206768598026876897e-14 $135 1.570796326794873243 $133 $245 reversed 7 unknown #
face $246 $244 $134 $5 $-1 $247 forward single #
point $-1 61.65112082501396884 2.499997153296020347 -13.7499997764822961 #
edge $-1 $139 0.7853981633974467247 $248 2.356194490192343505 $137 $249 forward 7 unknown #
point $-1 74.65111978321026243 2.499997153296020347 -13.74999977648229077 #
ellipse-curve $-1 74.65111978321026243 -2.500002846703928139 -12.74999977648228722 1 0 0 0 0.7071067811865485719 -0.7071067811865465735 1 I I #
ellipse-curve $-1 61.65112082501394752 -2.500002846703928139 -12.74999977648228722 -1 3.797025382564201094e-28 -1.908513627012347943e-14 0 -1 -1.989519660128491493e-14 1 I I #
fmesh-eye-attrib $-1 $-1 $-1 $144 #
cone-surface $-1 72.05111978321031074 -2.500002846703928139 -12.74999977648228722 -1 0 0 0 0.7071067811865485719 -0.7071067811865465735 1 I I 0 1 1.000000000000001332 forward I I I I #
ellipse-curve $-1 0 0 0 0 0 -1 1.421085471520200372e-14 74.65112559955832694 0 1 I I #
straight-curve $-1 55.43275704203275467 50.00000000000000711 3.500000014901161638 0 0 1 I I #
point $-1 55.43275704203275467 50.00000000000000711 0 #
straight-curve $-1 61.40368367832064678 -50.00000000000000711 0 1 0 0 I I #
point $-1 55.43275704203276888 -49.99999999999999289 0 #
coedge $-1 $250 $215 $218 $251 forward $165 $-1 #
coedge $-1 $224 $167 $169 $217 reversed $113 $-1 #
coedge $-1 $228 $170 $167 $214 reversed $219 $-1 #
edge $-1 $178 -10.39999895819694586 $220 2.599999999999951683 $167 $252 reversed 7 unknown #
coedge $-1 $211 $235 $168 $216 reversed $165 $-1 #
edge $-1 $221 -2.49999999999996092 $237 2.499999999999983125 $168 $253 forward 7 unknown #
edge $-1 $248 -3.99999988824119157 $220 3.999999888241184465 $169 $254 forward 7 unknown #
coedge $-1 $170 $228 $211 $251 reversed $219 $-1 #
loop $-1 $-1 $218 $255 #
vertex $-1 $171 $256 #
vertex $-1 $171 $257 #
ellipse-curve $-1 74.65111978321026243 2.49999715329601635 -4.749999999999920064 1 0 0 7.274268552347631623e-18 -0.7071067811865475727 0.7071067811865474617 1 I I #
edge $-1 $225 -4.71238897963007819 $181 -1.570796326040618363 $172 $258 reversed 7 unknown #
coedge $-1 $173 $212 $243 $259 forward $113 $-1 #
vertex $-1 $223 $260 #
straight-curve $-1 61.65112082501336488 3.499997153297587094 -6.349999956404937862 0 0 -1 I I #
coedge $-1 $176 $175 $250 $261 reversed $177 $-1 #
coedge $-1 $218 $213 $176 $229 reversed $219 $-1 #
edge $-1 $262 -1.570796326794843711 $178 1.852740183493323457e-13 $176 $263 forward 7 unknown #
face $264 $255 $177 $5 $-1 $265 forward single #
point $-1 61.65112082501336488 3.499997153296675823 -4.750000000000052403 #
straight-curve $-1 72.05111978321031074 -3.500002846703929027 -12.74999977648228722 -1 0 0 I I #
point $-1 61.65112082501336488 -3.500002846703929027 -12.74999977648228722 #
point $-1 74.65111978321026243 -3.500002846703929027 -12.74999977648228722 #
coedge $-1 $215 $250 $186 $236 forward $165 $-1 #
edge $-1 $239 -2.599998958197495824 $237 10.39999999999984936 $235 $266 forward 7 unknown #
vertex $-1 $187 $267 #
ellipse-curve $-1 74.65111978321026243 -2.500002846703927695 -4.749999999999922728 1 0 0 1.577038945581552341e-17 0.707106781186548683 0.7071067811865464625 1 I I #
vertex $-1 $236 $268 #
ellipse-curve $-1 61.6511208250128675 -2.500002846703927695 -4.749999999999922728 1 -2.547220725039688951e-27 -4.910814344228784005e-14 0 -1 5.186961971049051824e-14 1 I I #
fmesh-eye-attrib $-1 $-1 $-1 $189 #
cone-surface $-1 64.25111978321039885 -2.500002846703927695 -4.749999999999922728 1 -1.441831998707606023e-17 5.382063481711800799e-18 1.577038945581552341e-17 0.707106781186548683 0.7071067811865464625 1 I I 0 1 1.000000000000001776 forward I I I I #
coedge $-1 $193 $192 $224 $259 reversed $194 $-1 #
face $269 $189 $194 $5 $-1 $270 forward single #
ellipse-curve $-1 61.65112082501394752 2.499997153296020347 -12.7499997764822961 1 4.475065629449808604e-28 1.908513627012347943e-14 0 1 -2.344791028008130116e-14 1 I I #
fmesh-eye-attrib $-1 $-1 $-1 $198 #
torus-surface $-1 61.65112082501394752 -2.846704193426585761e-06 -12.74999977648223748 1.908513627012347943e-14 -1.671430645535279188e-14 -1 2.50000000000075806 1 1 -7.544470489380368945e-10 1.908513628273354091e-14 forward_v I I I I #
vertex $-1 $217 $271 #
ellipse-curve $-1 74.65111978321026243 2.499997153296020347 -12.7499997764822961 1 0 0 0 -0.7071067811865463515 -0.7071067811865485719 1 I I #
coedge $-1 $235 $211 $227 $261 forward $165 $-1 #
edge $-1 $221 -2.599999999999951683 $262 10.39999895819739351 $211 $272 forward 7 unknown #
straight-curve $-1 72.05111978321031074 3.499997153297587094 -4.749999999999920064 -1 -2.18876528618355508e-18 -2.043561926222984576e-17 I I #
straight-curve $-1 74.65111978321027664 -2.846703944792139396e-06 -3.749999999999920952 0 -1 0 I I #
straight-curve $-1 74.65111978321027664 3.499997153297587094 -8.749999888241104529 0 0 1 I I #
face $273 $-1 $219 $5 $-1 $274 forward single #
point $-1 74.65111978321026243 3.49999715329601635 -4.749999999999920064 #
point $-1 74.65111978321026243 2.49999715329601635 -3.749999999999920064 #
ellipse-curve $-1 61.65112082501394752 -2.846704193426585761e-06 -12.74999977648223748 0 0 -1 3.50000000000075806 -2.640556884259599225e-09 0 1 I I #
edge $-1 $248 -10.39999999999986358 $225 2.599998958197048182 $224 $275 reversed 7 unknown #
point $-1 61.65112082501336488 3.4999971532965648 -12.74999977648223748 #
edge $-1 $262 1.570796326794876796 $239 4.712388980384709214 $250 $276 forward 7 unknown #
vertex $-1 $251 $277 #
ellipse-curve $-1 61.6511208250128675 2.49999715329601635 -4.749999999999920064 -1 -2.599560876923803183e-27 4.910814344228784005e-14 0 1 5.293543381412537621e-14 1 I I #
fmesh-eye-attrib $-1 $-1 $-1 $230 #
torus-surface $-1 61.6511208250128675 -2.846704082237749844e-06 -4.750000000000052403 4.910814344228784005e-14 9.85692603836835613e-15 1 2.50000000000075806 1 1 -7.544589626515327451e-10 -4.91081434348511915e-14 forward_v I I I I #
straight-curve $-1 64.25111978321041306 -2.500002846703927695 -3.749999999999920952 1 -1.441831998707606023e-17 5.382063481711800799e-18 I I #
point $-1 74.65111978321026243 -2.500002846703927695 -3.749999999999922728 #
point $-1 61.65112082501291724 -2.500002846703927695 -3.749999999999922728 #
fmesh-eye-attrib $-1 $-1 $-1 $244 #
cone-surface $-1 64.25111978321039885 2.499997153296020347 -12.7499997764822961 1 0 0 0 -0.7071067811865463515 -0.7071067811865485719 1 I I 0 1 0.999999999999995115 forward I I I I #
point $-1 74.65111978321027664 3.499997153297587094 -12.7499997764822961 #
straight-curve $-1 72.05111978321031074 2.49999715329601635 -3.749999999999920952 -1 -2.18876528618355508e-18 -2.043561926222984576e-17 I I #
fmesh-eye-attrib $-1 $-1 $-1 $255 #
cone-surface $-1 72.05111978321029653 2.49999715329601635 -4.749999999999920064 -1 -2.18876528618355508e-18 -2.043561926222984576e-17 7.274268552347631623e-18 -0.7071067811865475727 0.7071067811865474617 1 I I 0 1 0.9999999999999993339 forward I I I I #
straight-curve $-1 64.25111978321041306 3.499997153297587094 -12.7499997764822961 1 0 0 I I #
ellipse-curve $-1 61.6511208250128675 -2.846704082237749844e-06 -3.749999999999920952 -0 0 1 2.50000000000075806 0 -1.227703586057568375e-13 1 I I #
point $-1 61.65112082501291724 2.49999715329601635 -3.749999999999920064 #
End-of-ACIS-data 