600 0 1 0           
86 GICL ACIS Healer - Source: /gicl/data5/repository/SDRC_I-DEAS/blender/Part26.sat - 6 0 18 ACIS 6.0.3 Solaris 24 Sat Apr 13 23:10:44 2002 
1 9.999999999999999547e-07 1.000000000000000036e-10 
body $-1 $1 $-1 $2 #
lump $-1 $-1 $3 $0 #
transform $-1 1 0 0 0 1 0 0 0 1 0 0 0 1 no_rotate no_reflect no_shear #
shell $-1 $-1 $-1 $4 $-1 $1 #
face $5 $6 $7 $3 $-1 $8 forward single #
fmesh-eye-attrib $-1 $-1 $-1 $4 #
face $9 $10 $11 $3 $-1 $12 forward single #
loop $-1 $13 $14 $4 #
plane-surface $-1 44.00000000000002132 50.50000000000001421 -6.705521999883501394e-05 0 -1 0 0 0 -1 forward_v I I I I #
fmesh-eye-attrib $-1 $-1 $-1 $6 #
face $15 $16 $17 $3 $-1 $18 forward single #
loop $-1 $-1 $19 $6 #
torus-surface $-1 44.00000000000001421 51.90000321220497881 -6.705522000283181683e-05 -8.58743351625422371e-16 -1 -3.298048442281566193e-16 6.09999678779136989 1.400003212208640768 0 3.298048442281566193e-16 -1 forward_v I I I I #
loop $-1 $-1 $20 $4 #
coedge $-1 $14 $14 $21 $22 reversed $7 $-1 #
fmesh-eye-attrib $-1 $-1 $-1 $10 #
face $23 $24 $25 $3 $-1 $26 forward single #
loop $-1 $-1 $27 $10 #
cone-surface $-1 44.00000000000002132 52.02000272000001502 -6.705521999617047868e-05 0 1 0 -2.171052631578948677 0 7.178894794528909884 1 I I 0 1 7.499999999999997335 forward I I I I #
coedge $-1 $21 $28 $29 $30 forward $11 $-1 #
coedge $-1 $20 $20 $31 $32 forward $13 $-1 #
coedge $-1 $29 $19 $14 $22 forward $11 $-1 #
edge $-1 $33 -4.712388980384688786 $33 1.570796326794897224 $14 $34 reversed 7 unknown #
fmesh-eye-attrib $-1 $-1 $-1 $16 #
face $35 $36 $37 $3 $-1 $38 forward single #
loop $-1 $39 $40 $16 #
plane-surface $-1 44.00000000000001421 52.50000000000001421 -6.705521999794683552e-05 0 1 -4.715310801756813895e-16 -0 4.715310801756813895e-16 1 forward_v I I I I #
coedge $-1 $41 $42 $43 $44 forward $17 $-1 #
coedge $-1 $19 $29 $41 $45 reversed $11 $-1 #
coedge $-1 $28 $21 $19 $30 reversed $11 $-1 #
edge $-1 $46 0 $33 1 $19 $47 forward 7 unknown #
coedge $-1 $48 $49 $20 $32 reversed $50 $-1 #
edge $-1 $51 -7.632667191626689274 $51 -1.349481884447103486 $20 $52 reversed 7 unknown #
vertex $-1 $22 $53 #
ellipse-curve $-1 44.00000000000001421 50.50000000000001421 -6.705522000283181683e-05 0 -1 0 0 2.011808490389788521e-15 -6.09999678779136989 1 I I #
fmesh-eye-attrib $-1 $-1 $-1 $24 #
face $54 $55 $56 $3 $-1 $57 forward single #
loop $-1 $-1 $58 $24 #
cone-surface $-1 44.00000000000002842 52.9000000000000199 -6.705522000194363841e-05 0 1 0 -1.157894736842109751 0 3.828743890415416296 1 I I 0 1 4.000000000000004441 forward I I I I #
loop $-1 $-1 $59 $16 #
coedge $-1 $40 $40 $42 $60 forward $25 $-1 #
coedge $-1 $43 $27 $28 $45 forward $17 $-1 #
coedge $-1 $27 $43 $40 $60 reversed $17 $-1 #
coedge $-1 $42 $41 $27 $44 reversed $17 $-1 #
edge $-1 $61 0 $46 1 $27 $62 forward 7 unknown #
edge $-1 $46 -1.277119392198010406 $46 5.00606591498157627 $28 $63 forward 7 unknown #
vertex $-1 $30 $64 #
intcurve-curve $-1 forward { surfcur full nurbs 2 open 2 
	0 2 1 2 
	36.50000000000002132 51.900003400000017 -6.705522000000000273e-05 1 
	36.49999981220538103 50.50000321220171884 -6.705522000000000273e-05 0.7071075449641569532 
	37.90000321220864521 50.50000000000001421 -6.705522000000000273e-05 1 
	0.01000000000000000021 
	torus 44.00000000000001421 51.90000321220497881 -6.705522000283181683e-05 -8.58743351625422371e-16 -1 -3.298048442281566193e-16 6.09999678779136989 1.400003212208640768 0 3.298048442281566193e-16 -1 forward_v I I I I 
	null_surface 
	nullbs 
	nullbs 
	I I 
	0 
	0 
	0 
	surf1 } I I #
coedge $-1 $65 $31 $49 $66 reversed $50 $-1 #
coedge $-1 $31 $65 $48 $66 forward $50 $-1 #
loop $-1 $-1 $65 $67 #
vertex $-1 $32 $68 #
ellipse-curve $-1 44.00000000000000711 50.50000000000001421 -6.705521999900101884e-05 0 -1 0 0.6585365853658586843 0 -2.926829268292685526 1 I I #
point $-1 37.90000321220864521 50.50000000000001421 -6.705522000000000273e-05 #
fmesh-eye-attrib $-1 $-1 $-1 $36 #
face $69 $70 $71 $3 $-1 $72 forward single #
loop $-1 $73 $74 $36 #
plane-surface $-1 44.00000000000001421 54.50000000000002132 -6.705521999794683552e-05 0 -1 0 0 0 -1 forward_v I I I I #
coedge $-1 $75 $76 $77 $78 forward $37 $-1 #
coedge $-1 $59 $59 $75 $79 reversed $39 $-1 #
edge $-1 $61 -7.56030469937759797 $61 -1.277119392198011294 $42 $80 reversed 7 unknown #
vertex $-1 $44 $81 #
intcurve-curve $-1 forward { exactcur full nubs 1 open 2 
	0 1 1 1 
	36.50000000000002132 52.50000000000002132 -6.705522000000000273e-05 
	36.50000000000002132 51.900003400000017 -6.705522000000000273e-05 
	0 
	null_surface 
	null_surface 
	nullbs 
	nullbs 
	I I 
	0 
	0 
	0 
	F 1 F 0 } I I #
ellipse-curve $-1 44.00000000000001421 51.90000321220497881 -6.705522000283181683e-05 0 1 0 -2.171052631578948677 0 7.178894794528909884 1 I I #
point $-1 36.50000000000002132 51.900003400000017 -6.705522000000000273e-05 #
coedge $-1 $49 $48 $82 $83 reversed $50 $-1 #
edge $-1 $84 0.01268422751810499918 $51 0.2653138768091499733 $48 $85 forward 7 unknown #
face $86 $-1 $50 $3 $-1 $87 reversed single #
point $-1 47.00000000000002132 50.50000000000001421 -6.705522000000000273e-05 #
fmesh-eye-attrib $-1 $-1 $-1 $55 #
face $88 $89 $90 $3 $-1 $91 forward single #
loop $-1 $-1 $92 $55 #
cone-surface $-1 44.00000000000002132 54.62000000000002586 -6.705521999617047868e-05 0 1 0 -2.171052631578948677 0 7.178894794528909884 1 I I 0 1 7.499999999999997335 forward I I I I #
loop $-1 $-1 $93 $36 #
coedge $-1 $74 $74 $94 $95 reversed $56 $-1 #
coedge $-1 $77 $58 $59 $79 forward $37 $-1 #
coedge $-1 $58 $77 $93 $96 reversed $37 $-1 #
coedge $-1 $76 $75 $58 $78 reversed $37 $-1 #
edge $-1 $97 0 $98 1 $58 $99 forward 7 unknown #
edge $-1 $98 -1.277119392198009296 $98 5.006065914981577158 $59 $100 forward 7 unknown #
ellipse-curve $-1 44.00000000000002132 52.50000000000001421 -6.705521999617047868e-05 -0 -1 4.715310801756813895e-16 -2.171052631578948677 0 7.178894794528909884 1 I I #
point $-1 36.50000000000002132 52.50000000000002132 -6.705522000000000273e-05 #
coedge $-1 $82 $82 $65 $83 forward $101 $-1 #
edge $-1 $84 -4.93370342273248319 $84 1.349481884447103264 $82 $102 reversed 7 unknown #
vertex $-1 $83 $103 #
intcurve-curve $-1 forward { exactcur full nubs 1 open 2 
	0.01268422751810499918 1 0.2653138768091499733 1 
	47.00000000000002132 56.50000000000002132 -6.705522000000000273e-05 
	47.00000000000002132 50.50000000000001421 -6.705522000000000273e-05 
	0 
	null_surface 
	null_surface 
	nullbs 
	nullbs 
	I I 
	0 
	0 
	0 
	F 1 F 0 } I I #
fmesh-eye-attrib $-1 $-1 $-1 $67 #
cone-surface $-1 44.00000000000000711 51.69999999985749639 -6.705521999883501394e-05 -2.702793298022941251e-17 1 1.38337970303807114e-16 0.6585365853658586843 0 -2.926829268292685526 1 I I 0 1 3.000000000000003997 forward I I I I #
fmesh-eye-attrib $-1 $-1 $-1 $70 #
face $104 $67 $105 $3 $-1 $106 forward single #
loop $-1 $-1 $107 $70 #
torus-surface $-1 44.00000000000001421 55.09999678779138321 -6.705522000371999525e-05 -1.525538522899611696e-15 -1 1.386848194513934058e-15 6.09999678779136989 1.400003212208640768 0 -1.386848194513934058e-15 -1 forward_v I I I I #
coedge $-1 $94 $108 $109 $110 forward $71 $-1 #
coedge $-1 $93 $93 $76 $96 forward $73 $-1 #
coedge $-1 $109 $92 $74 $95 forward $71 $-1 #
edge $-1 $111 -7.56030469937759797 $111 -1.277119392198011294 $74 $112 reversed 7 unknown #
edge $-1 $97 -1.277119392198009296 $97 5.006065914981577158 $76 $113 forward 7 unknown #
vertex $-1 $78 $114 #
vertex $-1 $79 $115 #
intcurve-curve $-1 forward { exactcur full nubs 1 open 2 
	0 1 1 1 
	40.00000000000001421 54.50000000000002132 -6.705522000000000273e-05 
	40.00000000000001421 52.50000000000002132 -6.705522000000000273e-05 
	0 
	null_surface 
	null_surface 
	nullbs 
	nullbs 
	I I 
	0 
	0 
	0 
	F 1 F 0 } I I #
ellipse-curve $-1 44.00000000000002842 52.50000000000001421 -6.705522000194363841e-05 0 1 -4.715310801756813895e-16 -1.157894736842109751 0 3.828743890415416296 1 I I #
loop $-1 $-1 $82 $89 #
ellipse-curve $-1 44.00000000000000711 56.50000000000002132 -6.705521999817099432e-05 0 1 0 0.6585365853658586843 0 -2.926829268292685526 1 I I #
point $-1 47.00000000000002132 56.50000000000002132 -6.705522000000000273e-05 #
fmesh-eye-attrib $-1 $-1 $-1 $89 #
loop $-1 $101 $116 $89 #
plane-surface $-1 44.00000000000001421 56.50000000000002132 -6.705521999794683552e-05 0 1 0 0 0 1 forward_v I I I I #
coedge $-1 $117 $118 $119 $120 forward $90 $-1 #
coedge $-1 $92 $109 $117 $121 forward $71 $-1 #
coedge $-1 $108 $94 $92 $110 reversed $71 $-1 #
edge $-1 $122 5.353681054032272986e-06 $111 1 $92 $123 forward 7 unknown #
vertex $-1 $95 $124 #
ellipse-curve $-1 44.00000000000002132 54.50000000000002132 -6.705521999617047868e-05 0 -1 0 -2.171052631578948677 0 7.178894794528909884 1 I I #
ellipse-curve $-1 44.00000000000002842 54.50000000000002132 -6.705522000194363841e-05 -0 1 -0 -1.157894736842109751 0 3.828743890415416296 1 I I #
point $-1 40.00000000000001421 54.50000000000002132 -6.705522000000000273e-05 #
point $-1 40.00000000000001421 52.50000000000002132 -6.705522000000000273e-05 #
coedge $-1 $116 $116 $118 $125 forward $105 $-1 #
coedge $-1 $119 $107 $108 $121 reversed $90 $-1 #
coedge $-1 $107 $119 $116 $125 reversed $90 $-1 #
coedge $-1 $118 $117 $107 $120 reversed $90 $-1 #
edge $-1 $126 0 $122 1 $107 $127 forward 7 unknown #
edge $-1 $122 -5.00606591498157627 $122 1.277119392198010406 $108 $128 reversed 7 unknown #
vertex $-1 $110 $129 #
intcurve-curve $-1 forward { exactcur full nubs 1 open 2 
	0 1 1 1 
	36.50000000000002132 55.10000000000001563 -6.705522000000000273e-05 
	36.50000000000002132 54.50000000000002132 -6.705522000000000273e-05 
	0 
	null_surface 
	null_surface 
	nullbs 
	nullbs 
	I I 
	0 
	0 
	0 
	F 1 F 0 } I I #
point $-1 36.50000000000002132 54.50000000000002132 -6.705522000000000273e-05 #
edge $-1 $126 1.570796326794897224 $126 7.853981633974483678 $118 $130 forward 7 unknown #
vertex $-1 $120 $131 #
intcurve-curve $-1 forward { surfcur full nurbs 2 open 2 
	0 2 1 2 
	37.90000321220864521 56.50000000000002132 -6.705522000000000273e-05 1 
	36.49999777686243618 56.50000222313759934 -6.705522000000000273e-05 0.7071056583333970025 
	36.50000000000002132 55.09999678779138321 -6.705522000000000273e-05 1 
	0.01000000000000000021 
	torus 44.00000000000001421 55.09999678779138321 -6.705522000371999525e-05 -1.525538522899611696e-15 -1 1.386848194513934058e-15 6.09999678779136989 1.400003212208640768 0 -1.386848194513934058e-15 -1 forward_v I I I I 
	null_surface 
	nullbs 
	nullbs 
	I I 
	0 
	0 
	0 
	surf1 } I I #
ellipse-curve $-1 44.00000000000001421 55.09999678779138321 -6.705522000371999525e-05 0 1 0 -2.171052631578948677 0 7.178894794528909884 1 I I #
point $-1 36.50000000000002132 55.09999678779138321 -6.705522000000000273e-05 #
ellipse-curve $-1 44.00000000000001421 56.50000000000002132 -6.705522000371999525e-05 0 1 0 0 -8.459769531689258746e-15 -6.09999678779136989 1 I I #
point $-1 37.90000321220864521 56.50000000000002132 -6.705522000000000273e-05 #
End-of-ACIS-data 