600 0 1 0           
86 GICL ACIS Healer - Source: /gicl/data5/repository/SDRC_I-DEAS/blender/Part20.sat - 6 0 18 ACIS 6.0.3 Solaris 24 Sat Apr 13 23:10:06 2002 
1 9.999999999999999547e-07 1.000000000000000036e-10 
body $-1 $1 $-1 $2 #
lump $-1 $-1 $3 $0 #
transform $-1 1 0 0 0 1 0 0 0 1 0 0 0 1 no_rotate no_reflect no_shear #
shell $-1 $-1 $-1 $4 $-1 $1 #
face $5 $6 $7 $3 $-1 $8 forward single #
fmesh-eye-attrib $-1 $-1 $-1 $4 #
face $9 $10 $11 $3 $-1 $12 forward single #
loop $-1 $-1 $13 $4 #
plane-surface $-1 0 -5.42101100000000022e-17 0 0 -1 0 0 0 -1 forward_v I I I I #
fmesh-eye-attrib $-1 $-1 $-1 $6 #
face $14 $15 $16 $3 $-1 $17 forward single #
loop $-1 $-1 $18 $6 #
cone-surface $-1 -8.881784197001252323e-16 0.1860338176130585386 -4.440892098500626162e-16 7.222113867263148082e-16 1 4.033099591860711634e-16 0.5922510760515415917 -1.372469404857750435e-16 -0.7202488404347668904 1 I I 0.7071067811865472397 0.7071067811865477948 0.9324804176130645494 forward I I I I #
coedge $-1 $13 $13 $19 $20 forward $7 $-1 #
fmesh-eye-attrib $-1 $-1 $-1 $10 #
face $21 $22 $23 $3 $-1 $24 forward single #
loop $-1 $-1 $25 $10 #
cone-surface $-1 -1.665334536937734811e-16 3.152938767358059113 4.440892098500626162e-16 -4.019664967442093065e-17 1 -4.229495581428621335e-17 0.3184210526315793821 0 -1.05290456986424541 1 I I 0 1 1.10000000000000675 forward I I I I #
coedge $-1 $19 $26 $27 $28 forward $11 $-1 #
coedge $-1 $27 $18 $13 $20 reversed $11 $-1 #
edge $-1 $29 0.8826128647147026829 $29 7.165798171894288693 $13 $30 forward 7 unknown #
fmesh-eye-attrib $-1 $-1 $-1 $15 #
face $31 $32 $33 $3 $-1 $34 forward single #
loop $-1 $-1 $35 $15 #
cone-surface $-1 -2.220446049250313081e-16 14.6922465475230819 4.440892098500626162e-16 -1.332380659823305952e-16 1 3.119763458532415303e-16 0.8239727967644825402 4.224005765324432807e-16 -1.002050440120710428 1 I I 0.5000000000000019984 0.8660254037844374864 1.297318871501526028 forward I I I I #
coedge $-1 $36 $37 $38 $39 forward $16 $-1 #
coedge $-1 $18 $27 $36 $40 forward $11 $-1 #
coedge $-1 $26 $19 $18 $28 reversed $11 $-1 #
edge $-1 $41 0 $29 1 $18 $42 forward 7 unknown #
vertex $-1 $20 $43 #
ellipse-curve $-1 -1.022534161096442616e-15 -5.551115123125782702e-17 -5.191185012388142641e-16 0 -1 0 0.4740944621621664967 -1.098655909024363565e-16 -0.5765561270151720041 1 I I #
fmesh-eye-attrib $-1 $-1 $-1 $22 #
face $44 $45 $46 $3 $-1 $47 forward single #
loop $-1 $48 $49 $22 #
plane-surface $-1 0 15.00000000000000533 0 0 -1 0 0 0 -1 forward_v I I I I #
coedge $-1 $50 $51 $52 $53 forward $23 $-1 #
coedge $-1 $38 $25 $26 $40 reversed $16 $-1 #
coedge $-1 $25 $38 $50 $54 forward $16 $-1 #
coedge $-1 $37 $36 $25 $39 reversed $16 $-1 #
edge $-1 $55 0 $41 1 $25 $56 forward 7 unknown #
edge $-1 $41 1.277119392198011516 $41 7.56030469937759797 $26 $57 forward 7 unknown #
vertex $-1 $40 $58 #
intcurve-curve $-1 forward { exactcur full nubs 1 open 2 
	0 1 1 1 
	1.100000000000006084 0.3535534000000000177 0 
	0.7464466000000059553 -1.084201999999999957e-16 0 
	0 
	null_surface 
	null_surface 
	nullbs 
	nullbs 
	I I 
	0 
	0 
	0 
	F 1 F 0 } I I #
point $-1 0.7464466000000059553 -1.084201999999999957e-16 0 #
fmesh-eye-attrib $-1 $-1 $-1 $32 #
face $59 $60 $61 $3 $-1 $62 reversed single #
loop $-1 $-1 $63 $32 #
cone-surface $-1 -2.220446049250313081e-16 15.13874974000000684 4.440892098500626162e-16 0 1 0 0.7236842105263182612 0 -2.392964931509640625 1 I I 0 1 2.500000000000006661 forward I I I I #
loop $-1 $-1 $64 $22 #
coedge $-1 $49 $49 $65 $66 forward $33 $-1 #
coedge $-1 $52 $35 $37 $54 reversed $23 $-1 #
coedge $-1 $35 $52 $64 $67 forward $23 $-1 #
coedge $-1 $51 $50 $35 $53 reversed $23 $-1 #
edge $-1 $68 0 $55 1 $35 $69 forward 7 unknown #
edge $-1 $55 -5.006065914981574494 $55 1.277119392198012182 $37 $70 reversed 7 unknown #
vertex $-1 $54 $71 #
intcurve-curve $-1 forward { exactcur full nubs 1 open 2 
	0 1 1 1 
	1.100000000000006972 14.35048023679029683 0 
	1.100000000000006084 0.3535534000000000177 0 
	0 
	null_surface 
	null_surface 
	nullbs 
	nullbs 
	I I 
	0 
	0 
	0 
	F 1 F 0 } I I #
ellipse-curve $-1 -5.400754077838149273e-17 0.3535534000000013499 5.624890902696310415e-16 4.019664967442093065e-17 -1 4.229495581428621335e-17 0.3184210526315793821 0 -1.05290456986424541 1 I I #
point $-1 1.100000000000006084 0.3535534000000000177 0 #
fmesh-eye-attrib $-1 $-1 $-1 $45 #
face $72 $73 $74 $3 $-1 $75 forward single #
loop $-1 $-1 $76 $45 #
plane-surface $-1 -1.387500000000000622 15.8092929717740347 0.3624999999999999889 0 0 1 1 0 0 forward_v I I I I #
coedge $-1 $65 $77 $78 $79 forward $46 $-1 #
coedge $-1 $64 $64 $51 $67 reversed $48 $-1 #
coedge $-1 $78 $63 $49 $66 reversed $46 $-1 #
edge $-1 $80 1.277119392198010406 $80 7.560304699377596194 $49 $81 forward 7 unknown #
edge $-1 $68 -5.400572442464883771 $68 0.8826128647147025719 $51 $82 reversed 7 unknown #
vertex $-1 $67 $83 #
intcurve-curve $-1 forward { exactcur full nubs 1 open 2 
	0 1 1 1 
	1.475000410133116002 15.00000000000000533 0 
	1.100000000000006972 14.35048023679029683 0 
	0 
	null_surface 
	null_surface 
	nullbs 
	nullbs 
	I I 
	0 
	0 
	0 
	F 1 F 0 } I I #
ellipse-curve $-1 -6.166371053553418288e-16 14.3504802367902986 -2.951031182821147972e-17 -4.019664967442093065e-17 1 -4.229495581428621335e-17 0.3184210526315793821 0 -1.05290456986424541 1 I I #
point $-1 1.100000000000006972 14.35048023679029683 0 #
fmesh-eye-attrib $-1 $-1 $-1 $60 #
face $84 $85 $86 $3 $-1 $87 reversed single #
loop $-1 $-1 $88 $60 #
sphere-surface $-1 2.964295475749167963e-14 7.956947374653994487 1.08801856413265341e-14 8.491125999999992402 -0.9907939663091714921 -0.1343349126328877985 -0.01677639929349711637 0 -0.1239222574763542278 0.9922919298784830255 forward_v I I I I #
coedge $-1 $89 $90 $88 $91 reversed $61 $-1 #
coedge $-1 $63 $78 $92 $93 forward $46 $-1 #
coedge $-1 $77 $65 $63 $79 reversed $46 $-1 #
edge $-1 $94 0 $80 1 $63 $95 forward 7 unknown #
vertex $-1 $66 $96 #
ellipse-curve $-1 -2.220446049250313081e-16 15.00000000000000533 4.440892098500626162e-16 0 -1 0 0.7236842105263182612 0 -2.392964931509640625 1 I I #
ellipse-curve $-1 -2.630490797324416748e-16 15.00000000000000533 5.401010073775323582e-16 -0 1 -0 0.9368245848142757737 4.802528023852040265e-16 -1.139291844603663506 1 I I #
point $-1 1.475000410133116002 15.00000000000000533 0 #
fmesh-eye-attrib $-1 $-1 $-1 $73 #
face $97 $98 $99 $3 $-1 $100 forward single #
loop $-1 $-1 $101 $73 #
plane-surface $-1 -0.5124999999999999556 15.80929297177403825 1.237499999999999822 -1 -0 -0 0 0 1 forward_v I I I I #
coedge $-1 $102 $103 $76 $91 forward $74 $-1 #
coedge $-1 $104 $76 $105 $106 forward $61 $-1 #
coedge $-1 $76 $107 $108 $109 reversed $61 $-1 #
edge $-1 $110 0.06044901606140047623 $111 0.2494124943371439085 $76 $112 forward 7 unknown #
coedge $-1 $113 $114 $77 $93 reversed $115 $-1 #
edge $-1 $94 -5.00606591498157627 $94 1.277119392198010406 $77 $116 reversed 7 unknown #
vertex $-1 $117 $118 #
intcurve-curve $-1 forward { exactcur full nubs 1 open 2 
	0 1 1 1 
	2.500000000000006217 15.69374870000000577 0 
	2.500000000000006217 15.00000000000000533 0 
	0 
	null_surface 
	null_surface 
	nullbs 
	nullbs 
	I I 
	0 
	0 
	0 
	F 1 F 0 } I I #
point $-1 2.500000000000006217 15.00000000000000533 0 #
fmesh-eye-attrib $-1 $-1 $-1 $85 #
face $119 $120 $121 $3 $-1 $122 reversed single #
loop $-1 $-1 $123 $85 #
sphere-surface $-1 1.032507412901395583e-14 7.956947374654202321 -1.23234755733392376e-14 8.491125999999992402 -0.9926722161928754895 0.1198510139663480079 -0.01541446236374834251 -3.353933868501901342e-18 0.1275628239808987985 0.9918304925429638486 forward_v I I I I #
coedge $-1 $124 $105 $103 $125 reversed $86 $-1 #
coedge $-1 $103 $88 $126 $127 reversed $74 $-1 #
coedge $-1 $88 $102 $101 $125 forward $74 $-1 #
coedge $-1 $107 $89 $128 $129 forward $61 $-1 #
coedge $-1 $101 $130 $89 $106 reversed $86 $-1 #
edge $-1 $110 -0.6155442373000905576 $131 0.6155442373150918911 $89 $132 forward 7 unknown #
coedge $-1 $90 $104 $133 $134 reversed $61 $-1 #
coedge $-1 $135 $126 $90 $109 forward $115 $-1 #
edge $-1 $111 2.363046833650376488 $136 2.53927210497529332 $90 $137 forward 7 unknown #
vertex $-1 $125 $138 #
vertex $-1 $127 $139 #
ellipse-curve $-1 2.964295475749167963e-14 7.956947374653994487 0.3624999999999999889 0 0 1 0 8.483384613341296898 0 1 I I #
coedge $-1 $140 $92 $114 $117 reversed $115 $-1 #
coedge $-1 $92 $141 $113 $117 forward $115 $-1 #
loop $-1 $-1 $135 $142 #
ellipse-curve $-1 0 15.69374869999999866 3.330669073875469621e-16 0 1 0 0.7236842105263182612 0 -2.392964931509640625 1 I I #
edge $-1 $143 0 $94 1 $113 $144 forward 7 unknown #
point $-1 2.500000000000006217 15.69374870000000577 0 #
fmesh-eye-attrib $-1 $-1 $-1 $98 #
face $145 $146 $147 $3 $-1 $148 reversed single #
loop $-1 $-1 $149 $98 #
plane-surface $-1 -0.1375000000000000111 15.68744394691327315 2.112499999999999822 0 0 1 1 0 0 forward_v I I I I #
coedge $-1 $150 $150 $149 $151 forward $99 $-1 #
coedge $-1 $152 $101 $153 $154 reversed $86 $-1 #
edge $-1 $155 -1.816598392437762 $110 -1.613578981285235914 $103 $156 reversed 7 unknown #
coedge $-1 $108 $153 $102 $127 forward $115 $-1 #
edge $-1 $155 -2.898030962337020178 $111 -1.742211642524847726 $102 $157 forward 7 unknown #
coedge $-1 $158 $159 $104 $129 reversed $160 $-1 #
edge $-1 $131 -0.2499999962747101456 $161 1.500000003725290965 $104 $162 reversed 7 unknown #
coedge $-1 $105 $152 $158 $163 forward $86 $-1 #
vertex $-1 $129 $164 #
straight-curve $-1 -0.5124999999999999556 15.80929297177403647 0.3625000000000000444 0 -1 0 I I #
coedge $-1 $165 $166 $107 $134 forward $167 $-1 #
edge $-1 $136 -0.367141485350355623 $161 0.5391978189403392463 $107 $168 forward 7 unknown #
coedge $-1 $169 $108 $166 $170 forward $115 $-1 #
vertex $-1 $170 $171 #
intcurve-curve $-1 forward { surfintcur full nubs 3 open 4 
	2.363046833650376488 3 2.431522561181632458 2 2.524991173464150584 2 2.53927210497529332 3 
	-2.093987691701331588 16.1778131120219939 0.3625000000000000444 
	-2.117956428933394974 16.17168162320701796 0.3625000000000000444 
	-2.141098210317333272 16.1639339555170416 0.3624999999999999889 
	-2.191024882308935329 16.14340777707663932 0.3624999999999999889 
	-2.221343130175961633 16.12765214160697624 0.3624999999999999334 
	-2.253988740627172582 16.10601619720789301 0.3624999999999999334 
	-2.258268824020676302 16.10307822965670255 0.3624999999999999334 
	-2.26249431015902891 16.10008001984978421 0.3624999999999999334 
	0.0001340443305412402589 
	torus 0 15.69374869999999866 3.330669073875469621e-16 -2.352115564967888685e-15 -1 -4.019374726595212247e-16 1.999999999999997113 -0.5000000000000106581 0 4.019374726595212247e-16 -1 forward_v I I I I 
	plane -1.387500000000000622 15.8092929717740347 0.3624999999999999889 0 0 1 1 0 0 forward_v I I I I 
	nullbs 
	nullbs 
	I I 
	0 
	0 
	0 
	} I I #
point $-1 -0.5124999999999999556 16.42483720907412703 0.3625000000000002665 #
point $-1 -2.093993484403796401 16.17783575640145344 0.3625000000000007105 #
coedge $-1 $172 $113 $173 $174 forward $115 $-1 #
coedge $-1 $114 $175 $176 $177 forward $115 $-1 #
face $178 $179 $115 $3 $-1 $180 forward single #
vertex $-1 $117 $181 #
intcurve-curve $-1 forward { exactcur full nurbs 2 open 2 
	0 2 1 2 
	2.125138810225247976 16.17783575640144633 0 1 
	2.500000000000004885 16.08093235304101398 0 0.7906572014629630329 
	2.500000000000006217 15.69374870000000577 0 1 
	0 
	null_surface 
	null_surface 
	nullbs 
	nullbs 
	I I 
	0 
	0 
	0 
	F 1 F 0 } I I #
fmesh-eye-attrib $-1 $-1 $-1 $120 #
face $182 $183 $184 $3 $-1 $100 forward single #
loop $-1 $-1 $185 $120 #
plane-surface $-1 0.2374999999999999889 15.81537777874857298 1.237499999999999822 1 0 -0 -0 0 -1 forward_v I I I I #
coedge $-1 $186 $187 $123 $151 reversed $121 $-1 #
coedge $-1 $123 $123 $172 $188 reversed $99 $-1 #
edge $-1 $189 -0.02814372823778832355 $190 0.02814372823773749269 $123 $191 reversed 7 unknown #
coedge $-1 $130 $124 $192 $193 forward $86 $-1 #
coedge $-1 $126 $194 $124 $154 forward $115 $-1 #
edge $-1 $195 0.5794144968525595241 $155 0.6286735456909624542 $124 $196 forward 7 unknown #
vertex $-1 $154 $197 #
ellipse-curve $-1 -0.5124999999999999556 7.956947374653994487 1.08801856413265341e-14 1 0 0 0 0 -8.475645373532085358 1 I I #
ellipse-curve $-1 1.138628700161338782e-15 16.17783575640144988 5.276396353847328844e-16 -2.352115564967888685e-15 -1 -4.019374726595212247e-16 0 8.541729224325957801e-16 -2.125138810225242203 1 I I #
coedge $-1 $198 $128 $130 $163 reversed $160 $-1 #
coedge $-1 $128 $199 $165 $200 reversed $160 $-1 #
loop $-1 $-1 $199 $201 #
vertex $-1 $134 $202 #
straight-curve $-1 -0.7624999962747101012 15.19374873445894458 0.3624999999999999889 1 0 -0 I I #
edge $-1 $203 -1.499999893829226716 $131 0.2500001061707730621 $130 $204 reversed 7 unknown #
point $-1 -0.5124999999999999556 15.19374873445894458 0.3625000000000000444 #
coedge $-1 $205 $133 $159 $200 forward $167 $-1 #
coedge $-1 $133 $205 $135 $170 reversed $167 $-1 #
loop $-1 $-1 $166 $179 #
straight-curve $-1 -2.262500000000001066 15.73294655339928383 0.3624999999999999889 0 -1 0 I I #
coedge $-1 $206 $135 $207 $208 forward $115 $-1 #
edge $-1 $136 -0.3432160806230765693 $209 0.3663597115640495616 $135 $210 reversed 7 unknown #
point $-1 -2.262500000000001066 16.10008803874963945 0.3624999999999997669 #
coedge $-1 $194 $140 $150 $188 forward $115 $-1 #
coedge $-1 $211 $212 $140 $174 reversed $184 $-1 #
edge $-1 $143 1.570796326794896336 $189 3.032476281648941452 $173 $213 forward 7 unknown #
coedge $-1 $141 $214 $215 $216 forward $115 $-1 #
coedge $-1 $217 $218 $141 $177 reversed $219 $-1 #
edge $-1 $220 0.1119913593290392251 $143 1.570796326794896336 $176 $221 forward 7 unknown #
fmesh-eye-attrib $-1 $-1 $-1 $142 #
face $222 $201 $167 $3 $-1 $223 reversed single #
torus-surface $-1 0 15.69374869999999866 3.330669073875469621e-16 -2.352115564967888685e-15 -1 -4.019374726595212247e-16 1.999999999999997113 0.5000000000000106581 0 4.019374726595212247e-16 -1 forward_v I I I I #
point $-1 2.125138810225247976 16.17783575640144633 0 #
fmesh-eye-attrib $-1 $-1 $-1 $146 #
face $224 $225 $226 $3 $-1 $227 reversed single #
loop $-1 $-1 $212 $146 #
coedge $-1 $228 $229 $212 $230 reversed $147 $-1 #
coedge $-1 $231 $149 $229 $232 forward $121 $-1 #
coedge $-1 $149 $192 $194 $233 reversed $121 $-1 #
edge $-1 $189 3.032476281648941452 $190 3.250709025530437835 $150 $234 forward 7 unknown #
vertex $-1 $174 $235 #
vertex $-1 $233 $236 #
ellipse-curve $-1 1.032507412901395583e-14 7.956947374654202321 2.112499999999999822 -0 -0 -1 0 8.224145213812546373 0 1 I I #
coedge $-1 $187 $231 $152 $193 reversed $121 $-1 #
edge $-1 $195 -0.4142097088813407879 $203 0.5546197248847111183 $152 $237 reversed 7 unknown #
coedge $-1 $153 $172 $187 $233 forward $115 $-1 #
vertex $-1 $233 $238 #
intcurve-curve $-1 forward { surfintcur full nubs 3 open 2 
	0.5794144968525595241 3 0.6286735456909624542 3 
	-0.5124999999999999556 16.16256314729277932 2.112494608623993742 
	-0.5124999999999999556 16.1683004426463981 2.096509909256081272 
	-0.5124999999999999556 16.17346408685310521 2.079669489879292232 
	-0.5124999999999999556 16.17781272453633434 2.062409943813869884 
	0.0001360717377523228339 
	torus 0 15.69374869999999866 3.330669073875469621e-16 -2.352115564967888685e-15 -1 -4.019374726595212247e-16 1.999999999999997113 -0.5000000000000106581 0 4.019374726595212247e-16 -1 forward_v I I I I 
	plane -0.5124999999999999556 15.80929297177403825 1.237499999999999822 -1 -0 -0 0 0 1 forward_v I I I I 
	nullbs 
	nullbs 
	I I 
	0 
	0 
	0 
	} I I #
point $-1 -0.5124999999999999556 16.17783575640144988 2.062415746818658135 #
coedge $-1 $239 $158 $231 $240 reversed $160 $-1 #
coedge $-1 $159 $241 $242 $243 forward $160 $-1 #
edge $-1 $161 -0.3749998938292270489 $244 0.3750001061707739503 $165 $245 reversed 7 unknown #
face $246 $247 $160 $3 $-1 $248 reversed single #
point $-1 -2.262500000000001066 15.19374873445894458 0.3624999999999999889 #
vertex $-1 $163 $249 #
straight-curve $-1 -0.5124999999999999556 15.19374873445894458 0.6125001061707731065 -0 0 1 I I #
coedge $-1 $166 $165 $250 $251 forward $167 $-1 #
coedge $-1 $252 $169 $253 $254 forward $115 $-1 #
coedge $-1 $250 $255 $169 $208 reversed $256 $-1 #
edge $-1 $209 -2.547656018176178705 $257 -2.366456555901545578 $169 $258 reversed 7 unknown #
vertex $-1 $208 $259 #
intcurve-curve $-1 forward { surfintcur full nubs 3 open 3 
	-0.3663597115640495616 3 0 3 0.3432160806230765693 3 
	-2.262500000000000622 16.09712690611931407 -0.3875001610881442238 
	-2.262500000000000622 16.11344638803515039 -0.2556811090140063136 
	-2.262500000000001066 16.11929981326374417 -0.1221199038546826321 
	-2.262500000000001066 16.11929981326374417 5.04111846340222499e-16 
	-2.262500000000001066 16.11929981326374417 0.114405360207692583 
	-2.262500000000001066 16.11416257257903339 0.2388521433861847398 
	-2.262500000000001066 16.10009556567090527 0.3625008563069596623 
	0.0005158277811467456555 
	torus 0 15.69374869999999866 3.330669073875469621e-16 -2.352115564967888685e-15 -1 -4.019374726595212247e-16 1.999999999999997113 0.5000000000000106581 0 4.019374726595212247e-16 -1 forward_v I I I I 
	plane -2.262500000000001066 15.65660013502453296 -0.0125000000000005107 -1 -0 -0 0 0 1 forward_v I I I I 
	nullbs 
	nullbs 
	I I 
	0 
	0 
	0 
	} I I #
coedge $-1 $260 $173 $218 $261 reversed $184 $-1 #
coedge $-1 $173 $262 $185 $230 forward $184 $-1 #
ellipse-curve $-1 1.138628700161308213e-15 16.17783575640143567 5.276396353847276582e-16 -2.352115564967888685e-15 -1 -4.019374726595212247e-16 0 8.541729224325957801e-16 -2.125138810225242203 1 I I #
coedge $-1 $175 $252 $263 $264 forward $115 $-1 #
coedge $-1 $265 $266 $175 $216 reversed $267 $-1 #
edge $-1 $268 0.5984691115459011002 $220 0.6233051804185735234 $215 $269 forward 7 unknown #
coedge $-1 $270 $176 $266 $271 forward $219 $-1 #
coedge $-1 $176 $272 $211 $261 forward $219 $-1 #
loop $-1 $-1 $272 $273 #
vertex $-1 $216 $274 #
ellipse-curve $-1 1.138628700161308213e-15 16.17783575640143567 5.276396353847276582e-16 -2.352115564967888685e-15 -1 -4.019374726595212247e-16 0 8.541729224325957801e-16 -2.125138810225242203 1 I I #
fmesh-eye-attrib $-1 $-1 $-1 $179 #
plane-surface $-1 -2.262500000000001066 15.65660013502453296 -0.0125000000000005107 -1 -0 -0 0 0 1 forward_v I I I I #
fmesh-eye-attrib $-1 $-1 $-1 $183 #
face $275 $276 $277 $3 $-1 $278 reversed single #
loop $-1 $-1 $279 $183 #
plane-surface $-1 1.112500000000000266 15.81537777874857298 0.3624999999999999889 0 0 1 1 0 0 forward_v I I I I #
coedge $-1 $280 $185 $281 $282 forward $147 $-1 #
coedge $-1 $185 $280 $186 $232 reversed $147 $-1 #
edge $-1 $283 -1.528074994359496674 $189 -1.319270972770749895 $185 $284 forward 7 unknown #
coedge $-1 $192 $186 $198 $240 forward $121 $-1 #
edge $-1 $189 -0.4264248935707186661 $285 0.5576621283719784827 $186 $286 reversed 7 unknown #
edge $-1 $190 0.2229741312225205496 $195 0.4829905906409642236 $187 $287 forward 7 unknown #
ellipse-curve $-1 1.138628700161308213e-15 16.17783575640143567 5.276396353847276582e-16 -2.352115564967888685e-15 -1 -4.019374726595212247e-16 0 8.541729224325957801e-16 -2.125138810225242203 1 I I #
point $-1 0.2314275539467764709 16.17783575640164173 2.112499999999999822 #
point $-1 -0.2314275539463321318 16.17783575640144633 2.112499999999999822 #
straight-curve $-1 -0.5124999999999999556 15.7483684593436557 2.112499999999999822 0 1 0 I I #
point $-1 -0.5124999999999998446 16.16257816822499649 2.112499999999999822 #
coedge $-1 $288 $198 $280 $289 reversed $160 $-1 #
edge $-1 $285 -0.3749999962747098126 $203 0.3750000037252901874 $231 $290 reversed 7 unknown #
coedge $-1 $199 $291 $292 $293 reversed $160 $-1 #
coedge $-1 $294 $250 $199 $243 reversed $256 $-1 #
edge $-1 $295 -0.2499999962747101456 $244 1.500000003725290965 $199 $296 reversed 7 unknown #
vertex $-1 $251 $297 #
straight-curve $-1 -2.262500000000001066 15.19374873445894458 -0.01249989382922706005 -0 0 1 I I #
fmesh-eye-attrib $-1 $-1 $-1 $201 #
face $298 $299 $300 $3 $-1 $301 reversed single #
plane-surface $-1 -0.1374999925494195807 15.19374873445894458 -0.0124997876584536094 0 -1 0 0 0 -1 forward_v I I I I #
point $-1 -0.5124999999999999556 15.19374873445894458 2.112499999999999822 #
coedge $-1 $242 $207 $205 $251 reversed $256 $-1 #
edge $-1 $244 -0.5389210199643059696 $209 0.3644558505220185651 $205 $302 reversed 7 unknown #
coedge $-1 $214 $206 $303 $304 forward $115 $-1 #
coedge $-1 $305 $306 $206 $254 reversed $307 $-1 #
edge $-1 $257 -1.387429452775017946 $308 -0.2435616912527694411 $206 $309 forward 7 unknown #
coedge $-1 $207 $294 $305 $310 reversed $256 $-1 #
loop $-1 $-1 $255 $311 #
vertex $-1 $310 $312 #
intcurve-curve $-1 forward { surfintcur full nubs 3 open 4 
	2.366456555901545578 3 2.435216009601686604 2 2.528816660520940118 2 2.547656018176178705 3 
	-2.089505822654141198 16.17781313691440914 -0.3875000000000009548 
	-2.113578214636004482 16.17166821479704097 -0.3875000000000009548 
	-2.136821320641279609 16.16389859906128024 -0.3875000000000010103 
	-2.186883994768799688 16.14333876360788622 -0.3875000000000010103 
	-2.217253425337284423 16.12757615105634912 -0.3875000000000009548 
	-2.251332540076787847 16.10501674326434696 -0.3875000000000009548 
	-2.256961408803735747 16.10111459104628651 -0.3875000000000009548 
	-2.2624910921324215 16.09711329451371853 -0.3875000000000009548 
	0.0001342029727248200037 
	torus 0 15.69374869999999866 3.330669073875469621e-16 -2.352115564967888685e-15 -1 -4.019374726595212247e-16 1.999999999999997113 0.5000000000000106581 0 4.019374726595212247e-16 -1 forward_v I I I I 
	plane -1.387500000000000622 15.80873937382196814 -0.3875000000000010103 0 0 -1 -1 0 0 forward_v I I I I 
	nullbs 
	nullbs 
	I I 
	0 
	0 
	0 
	} I I #
point $-1 -2.262500000000001066 16.09712560494526912 -0.3875000000000012323 #
coedge $-1 $262 $211 $313 $314 forward $184 $-1 #
edge $-1 $315 0.9338117848852890424 $143 1 $211 $316 forward 7 unknown #
coedge $-1 $212 $260 $279 $317 forward $184 $-1 #
coedge $-1 $318 $319 $214 $264 reversed $320 $-1 #
edge $-1 $321 -0.4828459706482979286 $268 0.2284891347149675678 $263 $322 forward 7 unknown #
coedge $-1 $323 $215 $319 $324 forward $267 $-1 #
coedge $-1 $215 $325 $217 $271 reversed $267 $-1 #
loop $-1 $-1 $266 $326 #
vertex $-1 $264 $327 #
intcurve-curve $-1 forward { surfintcur full nubs 3 open 2 
	0.5984691115459011002 3 0.6233051804185735234 3 
	0.2374999999999999889 16.17047816150089901 -2.137489337463825301 
	0.2374999999999999889 16.17311573313515893 -2.129083229124804966 
	0.2374999999999999889 16.1755719530651163 -2.120507220829309425 
	0.2374999999999999889 16.17781301673720407 -2.111820052891619337 
	0.0001334181342797776477 
	torus 0 15.69374869999999866 3.330669073875469621e-16 -2.352115564967888685e-15 -1 -4.019374726595212247e-16 1.999999999999997113 -0.5000000000000106581 0 4.019374726595212247e-16 -1 forward_v I I I I 
	plane 0.2374999999999999889 15.81482497536079634 -1.26250000000000151 1 0 -0 -0 0 -1 forward_v I I I I 
	nullbs 
	nullbs 
	I I 
	0 
	0 
	0 
	} I I #
coedge $-1 $272 $217 $328 $329 forward $219 $-1 #
edge $-1 $220 -1.822244762196534751 $330 -1.616465941829457575 $217 $331 reversed 7 unknown #
coedge $-1 $218 $270 $332 $333 forward $219 $-1 #
face $334 $326 $219 $3 $-1 $100 forward single #
point $-1 0.2374999999999999889 16.17783575640144633 -2.111825919133859308 #
fmesh-eye-attrib $-1 $-1 $-1 $225 #
face $335 $273 $336 $3 $-1 $337 reversed single #
loop $-1 $-1 $328 $225 #
plane-surface $-1 1.112500000000000488 15.8148249753607999 -0.3875000000000010103 0 0 -1 -1 0 0 forward_v I I I I #
coedge $-1 $338 $281 $262 $317 reversed $226 $-1 #
coedge $-1 $229 $228 $239 $289 forward $147 $-1 #
coedge $-1 $279 $339 $228 $282 reversed $226 $-1 #
edge $-1 $283 -0.6216290442748366729 $340 0.6216290442896283963 $228 $341 forward 7 unknown #
vertex $-1 $317 $342 #
ellipse-curve $-1 0.2374999999999999889 7.956947374654202321 -1.23234755733392376e-14 1 0 -0 0 -0 8.487803867778513478 1 I I #
vertex $-1 $232 $343 #
straight-curve $-1 0.2374999999999999889 15.75141086283092307 2.112499999999999822 -0 1 0 I I #
intcurve-curve $-1 forward { surfintcur full nubs 3 open 3 
	0.2229741312225205496 3 0.4752621652223754101 2 0.4829905906409642236 3 
	-0.2314332400409853663 16.17803916391722652 2.112499999999999822 
	-0.3212082426400198476 16.17552957541792935 2.112499999999999822 
	-0.4130049222273791676 16.17103939825600278 2.112499999999999822 
	-0.5069192492825798091 16.16306241296560131 2.112499999999999822 
	-0.5097100074007591131 16.16282215512132936 2.112499999999999822 
	-0.5125000429338067987 16.16257866017297218 2.112499999999999822 
	0.0003104809101211381981 
	torus 0 15.69374869999999866 3.330669073875469621e-16 -2.352115564967888685e-15 -1 -4.019374726595212247e-16 1.999999999999997113 -0.5000000000000106581 0 4.019374726595212247e-16 -1 forward_v I I I I 
	plane -0.1375000000000000111 15.68744394691327315 2.112499999999999822 0 0 1 1 0 0 forward_v I I I I 
	nullbs 
	nullbs 
	I I 
	0 
	0 
	0 
	} I I #
coedge $-1 $344 $239 $339 $345 reversed $160 $-1 #
edge $-1 $340 -0.2500001061707731176 $285 1.499999893829226716 $280 $346 reversed 7 unknown #
straight-curve $-1 -0.1374999962747097959 15.19374873445894458 2.112499999999999822 1 0 -0 I I #
coedge $-1 $241 $347 $348 $349 reversed $160 $-1 #
coedge $-1 $350 $351 $241 $293 forward $300 $-1 #
edge $-1 $295 -0.2499998938292265493 $352 1.500000106170774394 $241 $353 forward 7 unknown #
coedge $-1 $255 $242 $351 $354 reversed $256 $-1 #
vertex $-1 $243 $355 #
straight-curve $-1 -0.7624999962747101012 15.19374873445894636 -0.3875000000000010103 1 0 0 I I #
point $-1 -2.262500000000001066 15.19374873445894458 -0.3875000000000010103 #
fmesh-eye-attrib $-1 $-1 $-1 $247 #
face $356 $311 $307 $3 $-1 $357 forward single #
loop $-1 $-1 $358 $247 #
plane-surface $-1 -0.5124999999999999556 15.80873937382196814 -1.26250000000000151 -1 -0 -0 0 0 1 forward_v I I I I #
straight-curve $-1 -2.262500000000001066 15.73266975442325055 -0.3875000000000010103 0 -1 0 I I #
coedge $-1 $358 $350 $252 $304 reversed $300 $-1 #
edge $-1 $308 -0.6286497458181742326 $321 -0.5530266925827933555 $252 $359 reversed 7 unknown #
coedge $-1 $306 $253 $255 $310 forward $307 $-1 #
coedge $-1 $253 $305 $358 $360 forward $307 $-1 #
loop $-1 $-1 $306 $299 #
vertex $-1 $360 $361 #
ellipse-curve $-1 1.138628700161319454e-15 16.17783575640143923 5.276396353847295318e-16 -2.352115564967888685e-15 -1 -4.019374726595212247e-16 0 8.541729224325957801e-16 -2.125138810225242203 1 I I #
edge $-1 $257 2.892692192320179601 $362 3.081135751894552577 $305 $363 reversed 7 unknown #
face $364 $-1 $256 $3 $-1 $365 reversed single #
point $-1 -2.089511596695670104 16.17783575640157068 -0.3875000000000010103 #
coedge $-1 $332 $366 $260 $314 reversed $336 $-1 #
edge $-1 $315 -1.570796326794895226 $367 -1.526870724057908912 $260 $368 reversed 7 unknown #
vertex $-1 $333 $369 #
intcurve-curve $-1 forward { exactcur full nurbs 2 open 2 
	0.9338117848852890424 2 1 2 
	1.987500000000002043 16.21219204079659093 0 0.9990125191739830379 
	2.056462908387760802 16.19558880419200975 0 0.9994712634590819933 
	2.125138810225247976 16.17783575640144633 0 1 
	0 
	null_surface 
	null_surface 
	nullbs 
	nullbs 
	I I 
	0 
	0 
	0 
	F 1 F 0 } I I #
edge $-1 $367 -0.2364794242522369749 $283 -0.02799955984816273474 $262 $370 reversed 7 unknown #
coedge $-1 $348 $263 $350 $371 forward $320 $-1 #
coedge $-1 $263 $348 $265 $324 reversed $320 $-1 #
loop $-1 $-1 $263 $372 #
vertex $-1 $304 $373 #
intcurve-curve $-1 forward { surfintcur full nubs 3 open 4 
	-0.4828459706482979286 3 -0.4613853932647824507 2 0 3 0.2284891347149675678 3 
	-0.5125003765409483769 16.15284253247035195 -2.137500000000002842 
	-0.5047667992942038717 16.15361811470771869 -2.137500000000002842 
	-0.4970260841552835984 16.15436619981482735 -2.137500000000002842 
	-0.3227471626096892754 16.17061629467138317 -2.137500000000002398 
	-0.1537951310882597344 16.17447081307574308 -2.137500000000001954 
	1.130713964589714688e-15 16.17447081307574308 -2.137500000000001954 
	0.0761630449049902486 16.17447081307574308 -2.137500000000001954 
	0.1560432717723410634 16.17352550461050242 -2.137500000000001954 
	0.2375060363540343888 16.17068527702050318 -2.137500000000001954 
	0.0002771797166236123497 
	torus 0 15.69374869999999866 3.330669073875469621e-16 -2.352115564967888685e-15 -1 -4.019374726595212247e-16 1.999999999999997113 -0.5000000000000106581 0 4.019374726595212247e-16 -1 forward_v I I I I 
	plane -0.1374999999999999556 15.68415979495970269 -2.137500000000001954 0 0 -1 -1 0 0 forward_v I I I I 
	nullbs 
	nullbs 
	I I 
	0 
	0 
	0 
	} I I #
coedge $-1 $325 $265 $347 $374 forward $267 $-1 #
edge $-1 $268 -0.4210197585207389182 $375 0.5557436507013040483 $265 $376 reversed 7 unknown #
coedge $-1 $266 $323 $377 $378 reversed $267 $-1 #
face $379 $372 $267 $3 $-1 $380 reversed single #
point $-1 0.2374999999999999611 16.17051214368098755 -2.137500000000001954 #
coedge $-1 $377 $381 $270 $329 reversed $277 $-1 #
edge $-1 $330 -3.113589444668453776 $382 -2.905081830340511928 $328 $383 forward 7 unknown #
vertex $-1 $271 $384 #
ellipse-curve $-1 0.2374999999999999889 7.956947374654202321 -1.23234755733392376e-14 -1 -0 0 0 -0 8.487803867778513478 1 I I #
coedge $-1 $385 $313 $272 $333 reversed $336 $-1 #
edge $-1 $382 -1.617753437898115765 $315 -1.570796326794895226 $332 $386 forward 7 unknown #
fmesh-eye-attrib $-1 $-1 $-1 $273 #
fmesh-eye-attrib $-1 $-1 $-1 $276 #
loop $-1 $-1 $332 $276 #
plane-surface $-1 1.987500000000000933 15.70297038763151853 -0.0125000000000005107 1 -2.180235301676974773e-16 0 0 0 -1 forward_v I I I I #
coedge $-1 $339 $279 $366 $387 forward $226 $-1 #
coedge $-1 $281 $338 $288 $345 forward $226 $-1 #
vertex $-1 $289 $388 #
straight-curve $-1 0.2375000000000000444 15.81537777874857298 0.3624999999999999889 0 -1 0 I I #
point $-1 0.2374999999999999889 16.43700682302340965 0.3624999999999999889 #
point $-1 0.2375000000000000167 15.19374873445894458 2.112499999999999822 #
coedge $-1 $389 $288 $390 $391 reversed $160 $-1 #
edge $-1 $392 -1.499999996274710368 $340 0.2500000037252902985 $339 $393 reversed 7 unknown #
straight-curve $-1 0.2374999999999999889 15.19374873445894458 0.6125001061707731065 0 -0 -1 I I #
coedge $-1 $291 $389 $323 $374 reversed $160 $-1 #
coedge $-1 $319 $318 $291 $349 forward $320 $-1 #
edge $-1 $352 -0.3750000037252901874 $375 0.374999996274709757 $348 $394 reversed 7 unknown #
coedge $-1 $303 $292 $318 $371 reversed $300 $-1 #
coedge $-1 $292 $358 $294 $354 forward $300 $-1 #
vertex $-1 $349 $395 #
straight-curve $-1 -0.5124999999999999556 15.19374873445894636 -0.6374998938292275596 0 0 -1 I I #
edge $-1 $362 -0.6149906393481501254 $295 0.6149906393630217849 $351 $396 forward 7 unknown #
point $-1 -0.5124999999999999556 15.19374873445894636 -0.3875000000000010103 #
fmesh-eye-attrib $-1 $-1 $-1 $299 #
sphere-surface $-1 1.831867990631508292e-14 7.956947374654125937 1.37667655053519411e-14 8.491125999999992402 -0.9908491490209548891 -0.1339051690659915084 0.01695197870037142354 0 0.125594459027025207 0.9920816659235816015 forward_v I I I I #
coedge $-1 $351 $303 $306 $360 reversed $300 $-1 #
intcurve-curve $-1 forward { surfintcur full nubs 3 open 3 
	0.5530266925827933555 3 0.558142826869428399 2 0.6286497458181742326 3 
	-0.5124999999999999556 16.15283741020210684 -2.137499425293698074 
	-0.5124999999999999556 16.15350450565659202 -2.135911902952079888 
	-0.5124999999999999556 16.1541602359972245 -2.134328351950902647 
	-0.5124999999999999556 16.16368272665897265 -2.110988482092620799 
	-0.5124999999999999556 16.1715865841797779 -2.087121007280273943 
	-0.5124999999999999556 16.17781329550198421 -2.062410087072815479 
	0.0001351716150331849005 
	torus 0 15.69374869999999866 3.330669073875469621e-16 -2.352115564967888685e-15 -1 -4.019374726595212247e-16 1.999999999999997113 0.5000000000000106581 0 4.019374726595212247e-16 -1 forward_v I I I I 
	plane -0.5124999999999999556 15.80873937382196814 -1.26250000000000151 -1 -0 -0 0 0 1 forward_v I I I I 
	nullbs 
	nullbs 
	I I 
	0 
	0 
	0 
	} I I #
edge $-1 $362 -1.525061152038366785 $308 -1.324994261152024455 $358 $397 forward 7 unknown #
point $-1 -0.5124999999999999556 16.17783575640157068 -2.062415746818690554 #
vertex $-1 $310 $398 #
ellipse-curve $-1 1.831867990631508292e-14 7.956947374654125937 -0.3875000000000010103 -0 -0 1 0 -8.482279439978139379 0 1 I I #
fmesh-eye-attrib $-1 $-1 $-1 $311 #
plane-surface $-1 -1.387500000000000622 15.80873937382196814 -0.3875000000000010103 0 0 -1 -1 0 0 forward_v I I I I #
coedge $-1 $313 $390 $338 $387 reversed $336 $-1 #
vertex $-1 $317 $399 #
ellipse-curve $-1 1.987499999999998934 7.956947374654202321 -1.23234755733392376e-14 -1 2.180235301676974773e-16 -0 -0 0 8.255244666142605325 1 I I #
point $-1 1.987500000000000933 16.21219204079658738 -7.950816000000000018e-16 #
ellipse-curve $-1 1.032507412901395583e-14 7.956947374654202321 0.3624999999999999889 -0 -0 -1 0 8.483384613341296898 0 1 I I #
edge $-1 $321 -0.4063891934699199737 $352 0.5527008499318899482 $318 $400 reversed 7 unknown #
face $401 $142 $320 $3 $-1 $402 reversed single #
point $-1 -0.5125000000000003997 16.1528387778607545 -2.137500000000001954 #
edge $-1 $375 -1.500000106170774394 $403 0.2499998938292264938 $323 $404 reversed 7 unknown #
vertex $-1 $374 $405 #
straight-curve $-1 0.2374999999999999889 15.74949238516024863 -2.137500000000001954 0 1 0 I I #
coedge $-1 $406 $328 $325 $378 forward $277 $-1 #
edge $-1 $330 -0.6210762408870653672 $403 0.6210762409018535379 $377 $407 forward 7 unknown #
fmesh-eye-attrib $-1 $-1 $-1 $326 #
plane-surface $-1 0.2374999999999999889 15.81482497536079634 -1.26250000000000151 1 0 -0 -0 0 -1 forward_v I I I I #
coedge $-1 $328 $406 $385 $408 reversed $277 $-1 #
vertex $-1 $333 $409 #
ellipse-curve $-1 1.032507412901395583e-14 7.956947374654202321 -0.3875000000000010103 0 0 -1 0 -8.482279439978141156 0 1 I I #
point $-1 0.2374999999999999889 16.43590121624786349 -0.3875000000000016764 #
coedge $-1 $390 $332 $381 $408 forward $336 $-1 #
ellipse-curve $-1 1.987499999999998934 7.956947374654202321 -1.23234755733392376e-14 1 -2.180235301676974773e-16 0 -0 0 8.255244666142605325 1 I I #
edge $-1 $367 -0.4450551617457776388 $392 0.5654253487311020621 $338 $410 reversed 7 unknown #
point $-1 0.2375000000000000444 15.19374873445894458 0.3624999999999999889 #
coedge $-1 $347 $344 $406 $411 reversed $160 $-1 #
coedge $-1 $366 $385 $344 $391 forward $336 $-1 #
edge $-1 $412 -0.3750001061707739503 $392 0.3749998938292270489 $390 $413 reversed 7 unknown #
vertex $-1 $345 $414 #
straight-curve $-1 0.4875000037252903429 15.19374873445894458 0.3624999999999999889 1 0 -0 I I #
straight-curve $-1 -0.1374999962747097682 15.19374873445894458 -2.137500000000001954 -1 -0 -0 I I #
point $-1 -0.5124999999999999556 15.19374873445894458 -2.137500000000001954 #
straight-curve $-1 -0.5124999999999999556 15.80873937382196814 -0.3875000000000010103 0 -1 0 I I #
ellipse-curve $-1 -0.5124999999999999556 7.956947374654125937 1.37667655053519411e-14 -1 -0 -0 0 0 -8.475645373532085358 1 I I #
point $-1 -0.5124999999999992895 16.42373001317011827 -0.3875000000000010103 #
point $-1 1.987500000000000711 16.20422924493582428 0.3624999999999999889 #
straight-curve $-1 -0.5124999999999999556 15.74644958439083453 -2.137500000000001954 -0 1 0 I I #
fmesh-eye-attrib $-1 $-1 $-1 $372 #
plane-surface $-1 -0.1374999999999999556 15.68415979495970269 -2.137500000000001954 0 0 -1 -1 0 0 forward_v I I I I #
vertex $-1 $411 $415 #
straight-curve $-1 0.2374999999999999889 15.19374873445894458 -0.6374998938292275596 0 -0 -1 I I #
point $-1 0.2374999999999999889 15.19374873445894458 -2.137500000000001954 #
coedge $-1 $381 $377 $389 $411 forward $277 $-1 #
straight-curve $-1 0.2374999999999999889 15.81482497536079812 -0.3875000000000010658 0 -1 0 I I #
edge $-1 $382 -0.444194746931714235 $412 0.5651489470372137447 $381 $416 forward 7 unknown #
point $-1 1.987500000000000711 16.20309242842787256 -0.3875000000000010658 #
straight-curve $-1 1.987500000000000933 15.75917408319004664 0.3624999999999999889 2.180235301676974773e-16 1 -0 I I #
edge $-1 $403 -0.250000003725290465 $412 1.499999996274710146 $406 $417 reversed 7 unknown #
vertex $-1 $408 $418 #
straight-curve $-1 1.987500000000000711 15.19374873445894458 -0.01249989382922706005 0 0 -1 I I #
point $-1 1.987500000000000711 15.19374873445894458 0.3624999999999999889 #
point $-1 0.2374999999999999889 15.19374873445894458 -0.3875000000000010658 #
straight-curve $-1 1.987500000000000933 15.75889768149615833 -0.3875000000000010103 -2.180235301676974773e-16 -1 -0 I I #
straight-curve $-1 0.4875000037252904539 15.19374873445894458 -0.3875000000000010103 -1 -0 -0 I I #
point $-1 1.987500000000000711 15.19374873445894458 -0.3875000000000010103 #
End-of-ACIS-data 