600 0 1 0           
86 GICL ACIS Healer - Source: /gicl/data5/repository/SDRC_I-DEAS/blender/Part21.sat - 6 0 18 ACIS 6.0.3 Solaris 24 Sat Apr 13 23:10:08 2002 
1 9.999999999999999547e-07 1.000000000000000036e-10 
body $-1 $1 $-1 $2 #
lump $-1 $-1 $3 $0 #
transform $-1 1 0 0 0 1 0 0 0 1 0 0 0 1 no_rotate no_reflect no_shear #
shell $-1 $-1 $-1 $4 $-1 $1 #
face $5 $6 $7 $3 $-1 $8 forward single #
fmesh-eye-attrib $-1 $-1 $-1 $4 #
face $9 $10 $11 $3 $-1 $12 forward single #
loop $-1 $-1 $13 $4 #
plane-surface $-1 5.500000000000001776 4.499999973922971463 -1.050000000102357944e-05 1 0 -0 -0 0 -1 forward_v I I I I #
fmesh-eye-attrib $-1 $-1 $-1 $6 #
face $14 $15 $16 $3 $-1 $17 forward single #
loop $-1 $-1 $18 $6 #
plane-surface $-1 -9.500000000883801476e-06 4.499999973922971463 5.499999000000000748 0 0 1 1 0 0 forward_v I I I I #
coedge $-1 $19 $20 $21 $22 reversed $7 $-1 #
fmesh-eye-attrib $-1 $-1 $-1 $10 #
face $23 $24 $25 $3 $-1 $26 forward single #
loop $-1 $-1 $27 $10 #
plane-surface $-1 -5.500019000000002656 4.499999973922971463 -1.050000000102357944e-05 -1 -0 -0 0 0 1 forward_v I I I I #
coedge $-1 $28 $29 $30 $31 reversed $11 $-1 #
coedge $-1 $32 $13 $29 $33 forward $7 $-1 #
coedge $-1 $13 $32 $34 $35 reversed $7 $-1 #
coedge $-1 $36 $30 $13 $22 forward $25 $-1 #
edge $-1 $37 -5.500009441130789156 $38 5.500009558869214388 $13 $39 reversed 7 unknown #
fmesh-eye-attrib $-1 $-1 $-1 $15 #
face $40 $41 $42 $3 $-1 $43 forward single #
loop $-1 $-1 $44 $15 #
plane-surface $-1 -9.38226157476407252e-06 7.500000000000004441 -1.038226157490385049e-05 -0 1 0 0 -0 1 forward_v I I I I #
coedge $-1 $45 $46 $44 $47 reversed $16 $-1 #
coedge $-1 $48 $18 $46 $49 forward $11 $-1 #
coedge $-1 $18 $48 $19 $33 reversed $11 $-1 #
coedge $-1 $21 $44 $18 $31 forward $25 $-1 #
edge $-1 $50 -5.500009558869214388 $37 5.500009441130789156 $18 $51 reversed 7 unknown #
coedge $-1 $20 $19 $52 $53 forward $7 $-1 #
edge $-1 $37 -3.000000026077032977 $54 2.999991773926171668 $19 $55 forward 7 unknown #
coedge $-1 $56 $57 $20 $35 forward $42 $-1 #
edge $-1 $38 -3.000000026077032977 $58 2.999991773926171668 $20 $59 reversed 7 unknown #
coedge $-1 $44 $21 $57 $60 reversed $25 $-1 #
vertex $-1 $22 $61 #
vertex $-1 $22 $62 #
straight-curve $-1 5.500000000000001776 7.500000000000004441 -1.044113078796371497e-05 0 0 1 I I #
fmesh-eye-attrib $-1 $-1 $-1 $24 #
face $63 $64 $65 $3 $-1 $66 forward single #
loop $-1 $-1 $57 $24 #
plane-surface $-1 -9.499999999995623057e-06 4.499999973922971463 -5.500020000000002796 0 0 -1 -1 0 0 forward_v I I I I #
coedge $-1 $30 $36 $27 $47 forward $25 $-1 #
coedge $-1 $67 $27 $68 $69 reversed $16 $-1 #
coedge $-1 $27 $67 $28 $49 reversed $16 $-1 #
edge $-1 $70 -5.500009558869214388 $50 5.500009441130789156 $27 $71 reversed 7 unknown #
coedge $-1 $29 $28 $72 $73 forward $11 $-1 #
edge $-1 $50 -3.000000026077032977 $74 2.999991773926171668 $28 $75 forward 7 unknown #
vertex $-1 $31 $76 #
straight-curve $-1 -9.441130787823936998e-06 7.500000000000004441 5.499999000000000748 -1 -0 0 I I #
coedge $-1 $72 $77 $32 $53 reversed $78 $-1 #
edge $-1 $54 -5.500004249999999928 $58 5.500014750000003616 $32 $79 reversed 7 unknown #
vertex $-1 $73 $80 #
straight-curve $-1 5.500000000000001776 4.499999973922971463 5.499999000000000748 0 -1 0 I I #
coedge $-1 $68 $34 $77 $81 forward $42 $-1 #
coedge $-1 $34 $68 $36 $60 forward $42 $-1 #
vertex $-1 $81 $82 #
straight-curve $-1 5.500000000000001776 4.499999973922971463 -5.500020000000002796 0 1 0 I I #
edge $-1 $70 -5.500009558869215276 $38 5.500009441130789156 $36 $83 reversed 7 unknown #
point $-1 5.500000000000001776 7.500000000000004441 5.499999000000000748 #
point $-1 5.500000000000001776 7.500000000000004441 -5.500020000000002796 #
fmesh-eye-attrib $-1 $-1 $-1 $41 #
face $84 $85 $86 $3 $-1 $87 forward single #
loop $-1 $-1 $88 $41 #
plane-surface $-1 2.328306001331270636e-07 -1.499999000000002081 -4.440892098500626162e-16 0 -1 0 0 0 -1 forward_v I I I I #
coedge $-1 $46 $45 $89 $90 forward $16 $-1 #
coedge $-1 $57 $56 $45 $69 forward $42 $-1 #
edge $-1 $91 -2.999991773926171668 $70 3.000000026077032977 $45 $92 reversed 7 unknown #
vertex $-1 $47 $93 #
straight-curve $-1 -5.500019000000002656 7.500000000000004441 -1.044113078796371497e-05 0 0 -1 I I #
coedge $-1 $89 $52 $48 $73 reversed $78 $-1 #
edge $-1 $74 -5.500014366415302725 $54 5.500004633584701708 $48 $94 reversed 7 unknown #
vertex $-1 $90 $95 #
straight-curve $-1 -5.500019000000002656 4.499999973922971463 5.499999000000000748 0 -1 0 I I #
point $-1 -5.500019000000002656 7.500000000000004441 5.499999000000000748 #
coedge $-1 $52 $89 $56 $81 reversed $78 $-1 #
loop $-1 $-1 $77 $96 #
straight-curve $-1 5.500000000000001776 1.500008199996800018 -5.249999999623611302e-06 0 -0 1 I I #
point $-1 5.500000000000001776 1.500008199996799796 5.499999000000000748 #
edge $-1 $58 -5.500004633584700819 $91 5.500014366415303613 $56 $97 reversed 7 unknown #
point $-1 5.500000000000001776 1.500008199996799796 -5.500020000000002796 #
straight-curve $-1 -9.441130787379847789e-06 7.500000000000003553 -5.500020000000002796 -1 0 -0 I I #
fmesh-eye-attrib $-1 $-1 $-1 $64 #
face $98 $99 $100 $3 $-1 $101 forward single #
loop $-1 $-1 $102 $64 #
torus-surface $-1 2.328305999110824587e-07 -1.499999000000001859 -1.332267629550187849e-15 -8.554428338340935933e-17 -1 9.218417390647787128e-17 2.500000000000001332 0.2500000000000461853 0 -9.218417390647787128e-17 -1 forward_v I I I I #
coedge $-1 $88 $88 $103 $104 forward $65 $-1 #
coedge $-1 $77 $72 $67 $90 reversed $78 $-1 #
edge $-1 $91 -5.500014750000003616 $74 5.500004249999999928 $67 $105 reversed 7 unknown #
vertex $-1 $81 $106 #
straight-curve $-1 -5.500019000000002656 4.499999973922971463 -5.500020000000002796 0 -1 0 I I #
point $-1 -5.500019000000002656 7.500000000000004441 -5.500020000000002796 #
straight-curve $-1 -4.633584699709203392e-06 1.500008199996800018 5.499999000000000748 -1 0 0 I I #
point $-1 -5.500019000000002656 1.500008199996799796 5.499999000000000748 #
face $107 $-1 $108 $3 $-1 $109 forward single #
straight-curve $-1 -4.633584699265114182e-06 1.500008199996800018 -5.500020000000002796 1 -0 0 I I #
fmesh-eye-attrib $-1 $-1 $-1 $85 #
face $110 $111 $112 $3 $-1 $113 forward single #
loop $-1 $114 $115 $85 #
plane-surface $-1 2.328306001331270636e-07 -1.499999000000001859 -8.881784197001252323e-16 2.326632639658385222e-17 -1 0 0 0 -1 forward_v I I I I #
coedge $-1 $103 $116 $117 $118 forward $86 $-1 #
coedge $-1 $117 $102 $88 $104 reversed $86 $-1 #
edge $-1 $119 -3.141592653589793116 $119 3.141592653589793116 $88 $120 reversed 7 unknown #
straight-curve $-1 -5.500019000000002656 1.500008199996800018 -5.249999999623611302e-06 0 0 -1 I I #
point $-1 -5.500019000000002656 1.500008199996799796 -5.500020000000002796 #
fmesh-eye-attrib $-1 $-1 $-1 $96 #
loop $-1 $78 $121 $96 #
plane-surface $-1 2.328306014653946932e-07 1.500008199996800018 1.776356839400250465e-15 0 1 0 0 0 1 forward_v I I I I #
fmesh-eye-attrib $-1 $-1 $-1 $99 #
face $122 $123 $124 $3 $-1 $125 forward single #
loop $-1 $-1 $126 $99 #
torus-surface $-1 2.328306001331270636e-07 -1.49999899999999986 0 1.257379803541692366e-17 -1 -3.273955994450265748e-17 5.00000200000000028 0.2500000000107780451 0 3.273955994450265748e-17 -1 forward_v I I I I #
loop $-1 $-1 $127 $85 #
coedge $-1 $115 $115 $128 $129 forward $100 $-1 #
coedge $-1 $102 $117 $127 $130 forward $86 $-1 #
coedge $-1 $116 $103 $102 $118 reversed $86 $-1 #
edge $-1 $131 0 $119 1 $102 $132 forward 7 unknown #
vertex $-1 $118 $133 #
ellipse-curve $-1 2.328305999110824587e-07 -1.499999000000002081 -1.332267629550187849e-15 -0 1 -0 0 -2.074143912895710873e-16 -2.249999999999955147 1 I I #
coedge $-1 $121 $121 $134 $135 forward $108 $-1 #
fmesh-eye-attrib $-1 $-1 $-1 $111 #
face $136 $137 $138 $3 $-1 $139 forward single #
loop $-1 $140 $141 $111 #
plane-surface $-1 2.328306001331270636e-07 -1.499999000000002081 0 0 -1 0 0 0 -1 forward_v I I I I #
coedge $-1 $128 $142 $143 $144 forward $112 $-1 #
coedge $-1 $127 $127 $116 $130 reversed $114 $-1 #
coedge $-1 $143 $126 $115 $129 reversed $112 $-1 #
edge $-1 $145 -3.141592653589793116 $145 3.141592653589793116 $115 $146 reversed 7 unknown #
edge $-1 $131 -3.141592653589793116 $131 3.141592653589793116 $116 $147 reversed 7 unknown #
vertex $-1 $130 $148 #
intcurve-curve $-1 forward { exactcur full nurbs 2 open 3 
	0 2 0.5 2 1 2 
	2.32830600000000007e-07 -1.499999000000002969 2.750000000000047073 1 
	2.32830600000000007e-07 -1.749999000000048044 2.750000000000046185 0.7071067811865480168 
	2.32830600000000007e-07 -1.749999000000048044 2.5 1 
	2.32830600000000007e-07 -1.749999000000046934 2.249999999999956035 0.7071067811865480168 
	2.32830600000000007e-07 -1.499999000000002081 2.249999999999956035 1 
	0 
	null_surface 
	null_surface 
	nullbs 
	nullbs 
	I I 
	0 
	0 
	0 
	F 1 F 0 } I I #
point $-1 2.32830600000000007e-07 -1.499999000000002081 2.249999999999956035 #
coedge $-1 $149 $150 $121 $135 reversed $151 $-1 #
edge $-1 $152 -7.560304699377596194 $152 -1.277119392198010406 $134 $153 reversed 7 unknown #
fmesh-eye-attrib $-1 $-1 $-1 $123 #
face $154 $155 $156 $3 $-1 $157 forward single #
loop $-1 $-1 $158 $123 #
torus-surface $-1 2.328306005772162735e-07 -1.49999899999999653 4.440892098500626162e-16 1.174968880795456665e-17 -1 1.292470436167624664e-17 7.500000999984163919 0.2499950001259101384 0 -1.292470436167624664e-17 -1 forward_v I I I I #
loop $-1 $-1 $159 $111 #
coedge $-1 $141 $141 $160 $161 forward $124 $-1 #
coedge $-1 $126 $143 $159 $162 forward $112 $-1 #
coedge $-1 $142 $128 $126 $144 reversed $112 $-1 #
edge $-1 $163 0 $145 1 $126 $164 forward 7 unknown #
vertex $-1 $144 $165 #
ellipse-curve $-1 2.328306001331270636e-07 -1.499999000000001859 0 -2.326632639658385222e-17 1 -0 0 1.555129752151546564e-16 -4.750001999989222234 1 I I #
ellipse-curve $-1 2.328305999110824587e-07 -1.499999000000001859 -1.332267629550187849e-15 -2.326632639658385222e-17 1 -0 0 -2.535064782428185402e-16 -2.750000000000047518 1 I I #
point $-1 2.32830600000000007e-07 -1.499999000000002081 2.750000000000047073 #
coedge $-1 $166 $134 $150 $167 forward $151 $-1 #
coedge $-1 $134 $166 $149 $167 reversed $151 $-1 #
loop $-1 $-1 $149 $168 #
vertex $-1 $135 $169 #
ellipse-curve $-1 2.328305992449486439e-07 1.500008199996800018 8.881784197001252323e-16 -0 -1 -0 9.571855897294646809 0 2.894735684210530735 1 I I #
fmesh-eye-attrib $-1 $-1 $-1 $137 #
face $170 $168 $171 $3 $-1 $172 forward single #
loop $-1 $173 $174 $137 #
plane-surface $-1 2.328305956922349651e-07 -1.49999900000000097 -1.776356839400250465e-15 0 -1 0 0 0 -1 forward_v I I I I #
coedge $-1 $160 $175 $176 $177 forward $138 $-1 #
coedge $-1 $159 $159 $142 $162 reversed $140 $-1 #
coedge $-1 $176 $158 $141 $161 reversed $138 $-1 #
edge $-1 $178 -3.141592653589793116 $178 3.141592653589793116 $141 $179 reversed 7 unknown #
edge $-1 $163 -3.141592653589793116 $163 3.141592653589793116 $142 $180 reversed 7 unknown #
vertex $-1 $162 $181 #
intcurve-curve $-1 forward { exactcur full nurbs 2 open 3 
	0 2 0.5 2 1 2 
	2.32830600000000007e-07 -1.499999000000002081 5.250002000010777437 1 
	2.32830600000000007e-07 -1.749999000010777905 5.250002000010777437 0.7071067811865480168 
	2.32830600000000007e-07 -1.749999000010777905 5.00000200000000028 1 
	2.32830600000000007e-07 -1.749999000010777905 4.750001999989224011 0.7071067811865480168 
	2.32830600000000007e-07 -1.499999000000002081 4.750001999989223123 1 
	0 
	null_surface 
	null_surface 
	nullbs 
	nullbs 
	I I 
	0 
	0 
	0 
	F 1 F 0 } I I #
point $-1 2.32830600000000007e-07 -1.499999000000002081 4.750001999989223123 #
coedge $-1 $150 $149 $182 $183 reversed $151 $-1 #
edge $-1 $152 0 $184 1 $149 $185 forward 7 unknown #
face $186 $96 $151 $3 $-1 $187 forward single #
point $-1 2.32830600000000007e-07 1.500008199996798908 9.999996000000006546 #
fmesh-eye-attrib $-1 $-1 $-1 $155 #
loop $-1 $-1 $188 $155 #
torus-surface $-1 2.328306010213054833e-07 -0.4999941694687516369 -1.776356839400250465e-15 7.618268189041160345e-17 -1 -7.143492080981658671e-17 8.999991169468755103 1.000004830531249667 0 7.143492080981658671e-17 -1 forward_v I I I I #
loop $-1 $-1 $189 $137 #
coedge $-1 $174 $174 $190 $191 forward $156 $-1 #
coedge $-1 $158 $176 $189 $192 forward $138 $-1 #
coedge $-1 $175 $160 $158 $177 reversed $138 $-1 #
edge $-1 $193 0 $178 1 $158 $194 forward 7 unknown #
vertex $-1 $177 $195 #
ellipse-curve $-1 2.328306005772162735e-07 -1.499999000000002081 4.440892098500626162e-16 -0 1 -0 0 -9.37041841685469266e-17 -7.25000599985825378 1 I I #
ellipse-curve $-1 2.328306001331270636e-07 -1.499999000000002081 0 -0 1 -0 0 1.718827551881117136e-16 -5.250002000010778325 1 I I #
point $-1 2.32830600000000007e-07 -1.499999000000002081 5.250002000010777437 #
coedge $-1 $188 $196 $166 $183 forward $171 $-1 #
edge $-1 $184 -5.00606591498157627 $184 1.277119392198010406 $182 $197 reversed 7 unknown #
vertex $-1 $183 $198 #
intcurve-curve $-1 forward { exactcur full nubs 1 open 2 
	0 1 1 1 
	2.32830600000000007e-07 1.500008199996798908 9.999996000000006546 
	2.32830600000000007e-07 -0.4999941694687530247 9.999996000000006546 
	0 
	null_surface 
	null_surface 
	nullbs 
	nullbs 
	I I 
	0 
	0 
	0 
	F 1 F 0 } I I #
fmesh-eye-attrib $-1 $-1 $-1 $168 #
cone-surface $-1 2.328305992449486439e-07 -0.09999369557564267985 8.881784197001252323e-16 0 1 0 9.571855897294646809 0 2.894735684210530735 1 I I 0 1 9.999996000000006546 forward I I I I #
coedge $-1 $190 $182 $196 $199 forward $171 $-1 #
coedge $-1 $189 $189 $175 $192 reversed $173 $-1 #
coedge $-1 $196 $188 $174 $191 reversed $171 $-1 #
edge $-1 $200 -3.141592653589793116 $200 3.141592653589793116 $174 $201 forward 7 unknown #
edge $-1 $193 -3.141592653589793116 $193 3.141592653589793116 $175 $202 reversed 7 unknown #
vertex $-1 $192 $203 #
intcurve-curve $-1 forward { exactcur full nurbs 2 open 3 
	0 2 0.5 2 1 2 
	2.32830600000000007e-07 -1.499999000000004967 7.749996000110068728 1 
	2.32830600000000007e-07 -1.749994000125908 7.749996000110069616 0.7071067811865480168 
	2.32830600000000007e-07 -1.74999400012590689 7.50000099998416303 1 
	2.32830600000000007e-07 -1.749994000125906002 7.250005999858260886 0.7071067811865480168 
	2.32830600000000007e-07 -1.499999000000002081 7.250005999858261774 1 
	0 
	null_surface 
	null_surface 
	nullbs 
	nullbs 
	I I 
	0 
	0 
	0 
	F 1 F 0 } I I #
point $-1 2.32830600000000007e-07 -1.499999000000002081 7.250005999858261774 #
coedge $-1 $182 $190 $188 $199 reversed $171 $-1 #
ellipse-curve $-1 2.328306010213054833e-07 -0.4999941694687516369 -1.776356839400250465e-15 0 1 0 9.571855897294646809 0 2.894735684210530735 1 I I #
point $-1 2.32830600000000007e-07 -0.4999941694687530247 9.999996000000006546 #
edge $-1 $184 0 $200 1 $188 $204 forward 7 unknown #
vertex $-1 $199 $205 #
ellipse-curve $-1 2.328306010213054833e-07 -1.499999000000000748 -1.776356839400250465e-15 0 -1 0 0 6.429136564800490577e-16 -8.999991169468755103 1 I I #
ellipse-curve $-1 2.328306005772162735e-07 -1.49999900000000097 4.440892098500626162e-16 -0 1 -0 0 -1.001664071055961366e-16 -7.749996000110074057 1 I I #
point $-1 2.32830600000000007e-07 -1.49999900000000097 7.749996000110068728 #
intcurve-curve $-1 forward { exactcur full nurbs 2 open 2 
	0 2 1 2 
	2.32830600000000007e-07 -0.4999941694687530247 9.999996000000006546 1 
	2.32830600000000007e-07 -1.499998999999998972 9.99999600000000477 0.7071067811865480168 
	2.32830600000000007e-07 -1.49999900000000097 8.99999116946875688 1 
	0 
	null_surface 
	null_surface 
	nullbs 
	nullbs 
	I I 
	0 
	0 
	0 
	F 1 F 0 } I I #
point $-1 2.32830600000000007e-07 -1.49999900000000097 8.99999116946875688 #
End-of-ACIS-data 