600 0 2 0           
24 FBMach with ACIS - 6.0.3 13 ACIS 6.0.3 NT 24 Wed May 23 19:51:39 2001 
1 9.9999999999999995e-007 1e-010 
body $2 $3 $-1 $4 #
bdycol-kcp $-1 1 1 $5 #
model_id-kcp-attrib $-1 $-1 $-1 $0 1 990661899 80 173015041 1 #
lump $-1 $-1 $6 $0 #
transform $-1 1 0 0 0 1 0 0 0 1 0 0 0 1 no_rotate no_reflect no_shear #
body $7 $8 $-1 $9 #
shell $-1 $-1 $-1 $-1 $10 $3 #
model_id-kcp-attrib $-1 $-1 $-1 $5 1 990661899 90 173670402 1 #
lump $-1 $-1 $11 $5 #
transform $-1 1 0 0 0 1 0 0 0 1 44.023518921807437 53.500002026557944 -6.6589558712415453e-005 1 no_rotate no_reflect no_shear #
wire $-1 $12 $13 $6 $-1 out #
shell $-1 $-1 $-1 $14 $-1 $8 #
wire $-1 $15 $16 $6 $-1 out #
coedge $-1 $-1 $-1 $-1 $17 forward $10 $-1 #
face $-1 $18 $19 $11 $-1 $20 forward single #
wire $-1 $21 $22 $6 $-1 out #
coedge $-1 $-1 $-1 $-1 $23 forward $12 $-1 #
edge $-1 $24 0 $24 1 $13 $25 forward 7 unknown #
face $-1 $26 $27 $11 $-1 $28 reversed single #
loop $-1 $-1 $29 $14 #
plane-surface $-1 0 0 7.5483475811779517 0 0 1 1 0 0 forward_v I I I I #
wire $-1 $30 $31 $6 $-1 out #
coedge $-1 $-1 $-1 $-1 $32 forward $15 $-1 #
edge $-1 $33 0 $33 1 $16 $34 forward 7 unknown #
tvertex-vertex $-1 $17 $35 0 #
intcurve-curve $-1 forward { exactcur full nubs 2 closed 32 
	0 2 0.046874992549419001 1 0.078124992549419001 1 0.109375 1 0.140625 1 
	0.171875 1 0.203124985098839 1 0.234374970197678 1 0.265624970197678 1 0.296875 1 
	0.328125 1 0.359375 1 0.390625 1 0.421875 1 0.453124970197678 1 
	0.484375 1 0.515625 1 0.546875 1 0.578125059604645 1 0.609375 1 
	0.640625 1 0.671875059604645 1 0.703125059604645 1 0.73437511920928999 1 0.76562511920928999 1 
	0.79687511920928999 1 0.82812511920928999 1 0.859375 1 0.890625 1 0.921875 1 
	0.953125059604645 1 1 2 
	40.999999973922989 50.500003397464774 -6.7055220000000003e-005 
	41.000503586605213 50.500003397464774 0.446120160637208 
	41.214989969506881 50.500003397464774 1.153595512738236 
	41.493549482896945 50.500003397464774 1.674676546832331 
	41.868440812453649 50.500003397464774 2.1314946934634542 
	42.325244057923577 50.500003397464774 2.5063815992379279 
	42.846408328972778 50.500003397464774 2.7849501930230951 
	43.41190378740432 50.500003397464774 2.956491196533451 
	44.000000232830665 50.500003397464774 3.014413639908442 
	44.588096212595723 50.500003397464774 2.9564916621947379 
	45.153591554611943 50.500003397464774 2.784949960192451 
	45.674756407737753 50.500003397464774 2.506381832068572 
	46.131559886038325 50.500003397464774 2.1314925979876609 
	46.506448887288592 50.500003397464774 1.6746886540258019 
	46.785017248243115 50.500003397464774 1.153524732222565 
	46.95655755326154 50.500003397464774 0.58802845888377098 
	47.014481160789749 50.500003397464774 -6.6925390894000003e-005 
	46.95655755326154 50.500003397464774 -0.58816309319271898 
	46.785017248243115 50.500003397464774 -1.153658260585956 
	46.506449352949879 50.500003397464774 -1.6748224152198361 
	46.131559886038325 50.500003397464774 -2.1316267084276599 
	45.674756407737753 50.500003397464774 -2.5065157096779269 
	45.15359202027323 50.500003397464774 -2.7850838378018059 
	44.588095514103792 50.500003397464774 -2.9566257726347369 
	44.000000000000021 50.500003397464774 -3.014547750348441 
	43.41190378740432 50.500003397464774 -2.9566248413121619 
	42.846407979726813 50.500003397464774 -2.78508407063245 
	42.325244523584864 50.500003397464774 -2.5065157096779269 
	41.868440812453649 50.500003397464774 -2.1316288039034532 
	41.493549715727589 50.500003397464774 -1.67481054085701 
	41.214990202337525 50.500003397464774 -1.153730205254845 
	41.000503586605213 50.500003397464774 -0.446254794946156 
	40.999999973922989 50.500003397464774 -6.7055220000000003e-005 
	0 
	null_surface 
	null_surface 
	nullbs 
	nullbs 
	I I 
	0 
	0 
	0 
	F 1 F 0 } I I #
face $-1 $36 $37 $11 $-1 $38 reversed single #
loop $-1 $-1 $39 $18 #
plane-surface $-1 0 0 -7.5483475811779517 0 0 1 1 0 0 forward_v I I I I #
coedge $-1 $40 $41 $42 $43 forward $19 $-1 #
wire $-1 $44 $45 $6 $-1 out #
coedge $-1 $-1 $-1 $-1 $46 forward $21 $-1 #
edge $-1 $47 0 $47 1 $22 $48 forward 7 unknown #
tvertex-vertex $-1 $23 $49 0 #
intcurve-curve $-1 forward { exactcur full nubs 3 closed 31 
	0 3 0.062500007450580999 1 0.093750022351741999 1 0.125000014901161 1 0.156250014901161 1 
	0.1875 1 0.21875 1 0.25 1 0.28125 1 0.3125 1 
	0.34375 1 0.375 1 0.40625 1 0.437500029802322 1 0.468750089406967 1 
	0.500000059604645 1 0.531250059604645 1 0.562500059604645 1 0.593750059604645 1 0.625000059604645 1 
	0.656250059604645 1 0.687500059604645 1 0.71875017881393399 1 0.75000017881393399 1 0.78125017881393399 1 
	0.81250017881393399 1 0.84375017881393399 1 0.875000059604645 1 0.906250059604645 1 0.9375 1 
	1 3 
	47.000000026077053 56.500000655651114 -6.7055220000000003e-005 
	47.000523429363987 56.500000655651114 0.39273305447378098 
	46.882557222619674 56.500000655651114 0.98139140755475396 
	46.510479418560884 56.500000655651114 1.6773861134478529 
	46.134996931999943 56.500000655651114 2.1349277813041301 
	45.677454099990449 56.500000655651114 2.510421210905323 
	45.155451172962806 56.500000655651114 2.7894377708488789 
	44.589043833315394 56.500000655651114 2.961256075655827 
	44.000000232830665 56.500000655651114 3.0192714184576359 
	43.410956399515293 56.500000655651114 2.9612553771638961 
	42.84454905986788 56.500000655651114 2.7894384693408099 
	42.322545085102341 56.500000655651114 2.510421210905323 
	41.865005861967823 56.500000655651114 2.1349273156428432 
	41.489510569721482 56.500000655651114 1.6773879760930031 
	41.210496105253718 56.500000655651114 1.1553837684968189 
	41.038675937801621 56.500000655651114 0.58897590498045904 
	40.980661060661099 56.500000655651114 -6.7020127445999994e-005 
	41.03867780044677 56.500000655651114 -0.58911088853537297 
	41.210495173931143 56.500000655651114 -1.1555171804448889 
	41.489511501044056 56.500000655651114 -1.677521504456394 
	41.865005861967823 56.500000655651114 -2.135061658913485 
	42.322544619441054 56.500000655651114 -2.5105548556840338 
	42.844549991190455 56.500000655651114 -2.789572812611453 
	43.410956166684649 56.500000655651114 -2.9613897204345392 
	44.000001396983883 56.500000655651114 -3.0194055288976349 
	44.589043833315394 56.500000655651114 -2.961390186095826 
	45.155452337116024 56.500000655651114 -2.789571415627591 
	45.677453983575127 56.500000655651114 -2.510555321345322 
	46.134996466338656 56.500000655651114 -2.1350623574054159 
	46.510479418560884 56.500000655651114 -1.677519758226566 
	46.882556524127743 56.500000655651114 -0.981527729885869 
	47.000523895025275 56.500000655651114 -0.39286553509927502 
	47.000000026077053 56.500000655651114 -6.7055220000000003e-005 
	0 
	null_surface 
	null_surface 
	nullbs 
	nullbs 
	I I 
	0 
	0 
	0 
	F 1 F 0 } I I #
point $-1 40.999999973922989 50.500003397464774 -6.7055220000000003e-005 #
face $-1 $50 $51 $11 $-1 $52 reversed single #
loop $-1 $-1 $53 $26 #
plane-surface $-1 0 -2.9999986290931702 0 0 1 0 0 0 1 forward_v I I I I #
coedge $-1 $54 $55 $56 $57 forward $27 $-1 #
coedge $-1 $58 $29 $59 $60 forward $19 $-1 #
coedge $-1 $29 $58 $61 $62 forward $19 $-1 #
coedge $-1 $63 $64 $29 $43 reversed $65 $-1 #
edge $-1 $66 -2.9999986290931702 $67 2.9999986290931702 $42 $68 forward 7 unknown #
wire $-1 $69 $70 $6 $-1 out #
coedge $-1 $-1 $-1 $-1 $71 forward $30 $-1 #
edge $-1 $72 0 $72 1 $31 $73 forward 7 unknown #
tvertex-vertex $-1 $32 $74 0 #
intcurve-curve $-1 forward { exactcur full nubs 3 closed 31 
	0 3 0.06249999627471 1 0.093750007450580999 1 0.125000014901161 1 0.156250014901161 1 
	0.1875 1 0.21875 1 0.25 1 0.28125 1 0.312500029802322 1 
	0.343750029802322 1 0.375000029802322 1 0.406250029802322 1 0.437500029802322 1 0.468750089406967 1 
	0.500000059604645 1 0.53125 1 0.5625 1 0.593750059604645 1 0.625000059604645 1 
	0.656250059604645 1 0.687500059604645 1 0.718750059604645 1 0.750000059604645 1 0.781250059604645 1 
	0.812500059604645 1 0.843750059604645 1 0.875 1 0.90625 1 0.9375 1 
	1 3 
	36.499999701976797 55.100000705570004 -6.7055220000000003e-005 
	36.498691193759463 55.100000705570004 -0.98206684924124898 
	36.793606128543637 55.100000705570004 -2.4537141434794592 
	37.723801337182543 55.100000705570004 -4.1936999186819719 
	38.662507437169573 55.100000705570004 -5.337555427098863 
	39.806365273892901 55.100000705570004 -6.2762890011018451 
	41.111372184008381 55.100000705570004 -6.9738295860534842 
	42.527391348034165 55.100000705570004 -7.4033755809014972 
	43.999999534338734 55.100000705570004 -7.5484127737528022 
	45.47261004894974 55.100000705570004 -7.4033746495789234 
	46.888627350330374 55.100000705570004 -6.9738291203921969 
	48.193637520074873 55.100000705570004 -6.2762885354405578 
	49.33748511224988 55.100000705570004 -5.3375521674698518 
	50.276220083236723 55.100000705570004 -4.1937041096335577 
	50.973763927817373 55.100000705570004 -2.8886932413971351 
	51.403307594358949 55.100000705570004 -1.4726757071858569 
	51.548347115516691 55.100000705570004 -6.8833242507000005e-005 
	51.403307594358949 55.100000705570004 1.47254497279019 
	50.973762996494798 55.100000705570004 2.8885577339732742 
	50.276221945881872 55.100000705570004 4.1935690678709836 
	49.337487906217603 55.100000705570004 5.3374194540137152 
	48.193633794784574 55.100000705570004 6.2761544250005583 
	46.888632006943247 55.100000705570004 6.9736959412747721 
	45.472607254982016 55.100000705570004 7.4032396078163494 
	44.000000931322596 55.100000705570004 7.5482809916192393 
	42.527390416711583 55.100000705570004 7.4032391421550612 
	41.111372184008381 55.100000705570004 6.9736954756134848 
	39.806365739554188 55.100000705570004 6.2761544250005583 
	38.66250976547601 55.100000705570004 5.3374231793040137 
	37.723799940198681 55.100000705570004 4.1935639455968232 
	36.793607525527499 55.100000705570004 2.4535809643620339 
	36.498690728098175 55.100000705570004 0.98193227313996201 
	36.499999701976797 55.100000705570004 -6.7055220000000003e-005 
	0 
	null_surface 
	null_surface 
	nullbs 
	nullbs 
	I I 
	0 
	0 
	0 
	F 1 F 0 } I I #
point $-1 47.000000026077053 56.500000655651114 -6.7055220000000003e-005 #
face $-1 $75 $76 $11 $-1 $77 reversed single #
loop $-1 $-1 $78 $36 #
plane-surface $-1 -7.5248281937092578 0 0 1 0 0 0 0 -1 forward_v I I I I #
coedge $-1 $79 $61 $80 $81 forward $37 $-1 #
coedge $-1 $82 $39 $79 $83 forward $27 $-1 #
coedge $-1 $39 $82 $84 $85 forward $27 $-1 #
coedge $-1 $64 $63 $39 $57 reversed $65 $-1 #
edge $-1 $86 -2.9999986290931702 $87 2.9999986290931702 $56 $88 forward 7 unknown #
coedge $-1 $41 $40 $89 $90 forward $19 $-1 #
coedge $-1 $91 $92 $40 $60 reversed $76 $-1 #
edge $-1 $67 -7.5248281937092578 $93 7.5248281937092578 $59 $94 forward 7 unknown #
coedge $-1 $53 $95 $41 $62 reversed $37 $-1 #
edge $-1 $96 -7.5248281937092578 $66 7.5248281937092578 $61 $97 forward 7 unknown #
coedge $-1 $56 $42 $95 $98 forward $65 $-1 #
coedge $-1 $42 $56 $91 $99 reversed $65 $-1 #
loop $-1 $-1 $63 $75 #
vertex $-1 $43 $100 #
vertex $-1 $43 $101 #
straight-curve $-1 7.5248281937092578 0 7.5483475811779517 0 1 0 I I #
wire $-1 $102 $103 $6 $-1 out #
coedge $-1 $-1 $-1 $-1 $104 forward $44 $-1 #
edge $-1 $105 0 $105 1 $45 $106 forward 7 unknown #
tvertex-vertex $-1 $46 $107 0 #
intcurve-curve $-1 forward { exactcur full nubs 3 closed 31 
	0 3 0.062500007450580999 1 0.093750022351741999 1 0.125000014901161 1 0.156250029802322 1 
	0.187500044703484 1 0.218750044703484 1 0.250000029802322 1 0.281250029802322 1 0.312500029802322 1 
	0.34375 1 0.375 1 0.40625 1 0.4375 1 0.46875 1 
	0.5 1 0.53125 1 0.5625 1 0.59375 1 0.625 1 
	0.656249940395355 1 0.687499940395355 1 0.718749940395355 1 0.749999940395355 1 0.781249940395355 1 
	0.812499940395355 1 0.843749940395355 1 0.874999940395355 1 0.90625 1 0.9375 1 
	1 3 
	37.899999652057907 56.500000655651114 -6.7055220000000003e-005 
	37.898935616016409 56.500000655651114 0.79862657003641901 
	38.13880053907635 56.500000655651114 1.995565136899957 
	38.89535763859751 56.500000655651114 3.4107542596811151 
	39.658839121460936 56.500000655651114 4.3410896323675008 
	40.589177055284402 56.500000655651114 5.104593932634006 
	41.650583041831872 56.500000655651114 5.6719272397512297 
	42.802278190851233 56.500000655651114 6.0212886892312873 
	44.000000000000021 56.500000655651114 6.139256060128818 
	45.197722740471384 56.500000655651114 6.0212891548925738 
	46.349415328353665 56.500000655651114 5.671927705412517 
	47.410824108868859 56.500000655651114 5.1045934669727187 
	48.341156687587528 56.500000655651114 4.3410891667062144 
	49.104659590870156 56.500000655651114 3.4107586834633441 
	49.671992432326107 56.500000655651114 2.3493499029481502 
	50.021356675773887 56.500000655651114 1.197655103174754 
	50.139320787042408 56.500000655651114 -6.7172195207000006e-005 
	50.021356675773887 56.500000655651114 -1.197788747953467 
	49.671992432326107 56.500000655651114 -2.349483780557506 
	49.104660522192745 56.500000655651114 -3.4108923282420558 
	48.34115296229723 56.500000655651114 -4.3412228114849256 
	47.410826902836583 56.500000655651114 -5.1047266460901426 
	46.349417190998814 56.500000655651114 -5.6720599532073663 
	45.197722740471384 56.500000655651114 -6.0214232653325723 
	43.999999534338734 56.500000655651114 -6.1393897049075301 
	42.802277259528658 56.500000655651114 -6.021422799671285 
	41.65058164484801 56.500000655651114 -5.6720599532073663 
	40.589175891131184 56.500000655651114 -5.1047261804288553 
	39.658840052783511 56.500000655651114 -4.3412246741300748 
	38.895357172936222 56.500000655651114 -3.410886740306609 
	38.13880053907635 56.500000655651114 -1.9957004114931749 
	37.898936081677697 56.500000655651114 -0.79876324161349999 
	37.899999652057907 56.500000655651114 -6.7055220000000003e-005 
	0 
	null_surface 
	null_surface 
	nullbs 
	nullbs 
	I I 
	0 
	0 
	0 
	F 1 F 0 } I I #
point $-1 36.499999701976797 55.100000705570004 -6.7055220000000003e-005 #
face $-1 $-1 $65 $11 $-1 $108 reversed single #
loop $-1 $-1 $91 $50 #
plane-surface $-1 0 2.9999986290931702 0 0 -1 0 0 0 -1 forward_v I I I I #
coedge $-1 $109 $89 $92 $110 forward $51 $-1 #
coedge $-1 $95 $53 $54 $83 reversed $37 $-1 #
coedge $-1 $89 $109 $53 $81 reversed $51 $-1 #
edge $-1 $96 -7.5483475811779517 $111 7.5483475811779517 $80 $112 forward 7 unknown #
coedge $-1 $55 $54 $109 $113 forward $27 $-1 #
edge $-1 $87 -7.5248281937092578 $111 7.5248281937092578 $79 $114 forward 7 unknown #
coedge $-1 $92 $91 $55 $85 reversed $76 $-1 #
edge $-1 $115 -7.5248281937092578 $86 7.5248281937092578 $84 $116 forward 7 unknown #
vertex $-1 $57 $117 #
vertex $-1 $98 $118 #
straight-curve $-1 7.5248281937092578 0 -7.5483475811779517 0 -1 0 I I #
coedge $-1 $78 $80 $58 $90 reversed $51 $-1 #
edge $-1 $93 -2.9999986290931702 $96 2.9999986290931702 $89 $119 forward 7 unknown #
coedge $-1 $84 $59 $64 $99 forward $76 $-1 #
coedge $-1 $59 $84 $78 $110 reversed $76 $-1 #
vertex $-1 $60 $120 #
straight-curve $-1 0 2.9999986290931702 7.5483475811779517 -1 0 0 I I #
coedge $-1 $61 $79 $63 $98 reversed $37 $-1 #
vertex $-1 $90 $121 #
straight-curve $-1 0 -2.9999986290931702 7.5483475811779517 1 0 0 I I #
edge $-1 $66 -7.5483475811779517 $87 7.5483475811779517 $63 $122 forward 7 unknown #
edge $-1 $67 -7.5483475811779517 $86 7.5483475811779517 $64 $123 forward 7 unknown #
point $-1 7.5248281937092578 -2.9999986290931702 7.5483475811779517 #
point $-1 7.5248281937092578 2.9999986290931702 7.5483475811779517 #
wire $-1 $124 $125 $6 $-1 out #
coedge $-1 $-1 $-1 $-1 $126 forward $69 $-1 #
edge $-1 $127 0 $127 1 $70 $128 forward 7 unknown #
tvertex-vertex $-1 $71 $129 0 #
intcurve-curve $-1 forward { exactcur full nubs 3 closed 31 
	0 3 0.062500007450580999 1 0.093750022351741999 1 0.125000014901161 1 0.156250029802322 1 
	0.187500044703484 1 0.218750044703484 1 0.250000029802322 1 0.281250029802322 1 0.312500029802322 1 
	0.34375 1 0.375 1 0.40625 1 0.4375 1 0.46875 1 
	0.5 1 0.53125 1 0.5625 1 0.59375 1 0.625 1 
	0.656249940395355 1 0.687499940395355 1 0.718749940395355 1 0.749999940395355 1 0.781249940395355 1 
	0.812499940395355 1 0.843749940395355 1 0.874999940395355 1 0.90625 1 0.9375 1 
	1 3 
	37.899999652057907 50.500003397464774 -6.7055220000000003e-005 
	37.898935616016409 50.500003397464774 0.79862657003641901 
	38.13880053907635 50.500003397464774 1.995565136899957 
	38.89535763859751 50.500003397464774 3.4107542596811151 
	39.658839121460936 50.500003397464774 4.3410896323675008 
	40.589177055284402 50.500003397464774 5.104593932634006 
	41.650583041831872 50.500003397464774 5.6719272397512297 
	42.802278190851233 50.500003397464774 6.0212886892312873 
	44.000000000000021 50.500003397464774 6.139256060128818 
	45.197722740471384 50.500003397464774 6.0212891548925738 
	46.349415328353665 50.500003397464774 5.671927705412517 
	47.410824108868859 50.500003397464774 5.1045934669727187 
	48.341156687587528 50.500003397464774 4.3410891667062144 
	49.104659590870156 50.500003397464774 3.4107586834633441 
	49.671992432326107 50.500003397464774 2.3493499029481502 
	50.021356675773887 50.500003397464774 1.197655103174754 
	50.139320787042408 50.500003397464774 -6.7172195207000006e-005 
	50.021356675773887 50.500003397464774 -1.197788747953467 
	49.671992432326107 50.500003397464774 -2.349483780557506 
	49.104660522192745 50.500003397464774 -3.4108923282420558 
	48.34115296229723 50.500003397464774 -4.3412228114849256 
	47.410826902836583 50.500003397464774 -5.1047266460901426 
	46.349417190998814 50.500003397464774 -5.6720599532073663 
	45.197722740471384 50.500003397464774 -6.0214232653325723 
	43.999999534338734 50.500003397464774 -6.1393897049075301 
	42.802277259528658 50.500003397464774 -6.021422799671285 
	41.65058164484801 50.500003397464774 -5.6720599532073663 
	40.589175891131184 50.500003397464774 -5.1047261804288553 
	39.658840052783511 50.500003397464774 -4.3412246741300748 
	38.895357172936222 50.500003397464774 -3.410886740306609 
	38.13880053907635 50.500003397464774 -1.9957004114931749 
	37.898936081677697 50.500003397464774 -0.79876324161349999 
	37.899999652057907 50.500003397464774 -6.7055220000000003e-005 
	0 
	null_surface 
	null_surface 
	nullbs 
	nullbs 
	I I 
	0 
	0 
	0 
	F 1 F 0 } I I #
point $-1 37.899999652057907 56.500000655651114 -6.7055220000000003e-005 #
plane-surface $-1 7.5248281937092578 0 0 -1 0 0 0 0 1 forward_v I I I I #
coedge $-1 $80 $78 $82 $113 reversed $51 $-1 #
edge $-1 $93 -7.5483475811779517 $115 7.5483475811779517 $92 $130 forward 7 unknown #
vertex $-1 $113 $131 #
straight-curve $-1 -7.5248281937092578 -2.9999986290931702 0 0 0 -1 I I #
edge $-1 $111 -2.9999986290931702 $115 2.9999986290931702 $109 $132 forward 7 unknown #
straight-curve $-1 0 -2.9999986290931702 -7.5483475811779517 -1 0 0 I I #
vertex $-1 $85 $133 #
straight-curve $-1 0 2.9999986290931702 -7.5483475811779517 1 0 0 I I #
point $-1 7.5248281937092578 2.9999986290931702 -7.5483475811779517 #
point $-1 7.5248281937092578 -2.9999986290931702 -7.5483475811779517 #
straight-curve $-1 -7.5248281937092578 0 7.5483475811779517 0 -1 0 I I #
point $-1 -7.5248281937092578 2.9999986290931702 7.5483475811779517 #
point $-1 -7.5248281937092578 -2.9999986290931702 7.5483475811779517 #
straight-curve $-1 7.5248281937092578 -2.9999986290931702 0 0 0 -1 I I #
straight-curve $-1 7.5248281937092578 2.9999986290931702 0 0 0 -1 I I #
wire $-1 $134 $135 $6 $-1 out #
coedge $-1 $-1 $-1 $-1 $136 forward $102 $-1 #
edge $-1 $137 0 $137 1 $103 $138 forward 7 unknown #
tvertex-vertex $-1 $104 $139 0 #
intcurve-curve $-1 forward { exactcur full nubs 3 closed 31 
	0 3 0.062500007450580999 1 0.093750022351741999 1 0.125000014901161 1 0.156250044703484 1 
	0.187500044703484 1 0.218750044703484 1 0.250000059604645 1 0.281250059604645 1 0.312500059604645 1 
	0.343750089406967 1 0.375000089406967 1 0.406250089406967 1 0.437500089406967 1 0.46875011920928999 1 
	0.50000011920928999 1 0.53125011920928999 1 0.56250011920928999 1 0.59375011920928999 1 0.62500011920928999 1 
	0.65625011920928999 1 0.68750017881393399 1 0.71875017881393399 1 0.75000017881393399 1 0.78125017881393399 1 
	0.812500059604645 1 0.84375 1 0.875 1 0.90625 1 0.9375 1 
	1 3 
	36.499999701976797 51.900003289338223 -6.7055220000000003e-005 
	36.498691193759463 51.900003289338223 0.98193297163189297 
	36.793607059866211 51.900003289338223 2.453579567378172 
	37.723800405859969 51.900003289338223 4.1935653425806851 
	38.66250790283086 51.900003289338223 5.3374213166588644 
	39.806365273892901 51.900003289338223 6.2761544250005583 
	41.111372649669669 51.900003289338223 6.9736964069360594 
	42.527390416711583 51.900003289338223 7.4032396078163494 
	44.000000465661309 51.900003289338223 7.5482809916192393 
	45.472609117627158 51.900003289338223 7.4032396078163494 
	46.888628281652949 51.900003289338223 6.9736968725973467 
	48.193636588752284 51.900003289338223 6.2761534936779837 
	49.337486974895029 51.900003289338223 5.3374199196750034 
	50.276221014559297 51.900003289338223 4.1935695335322709 
	50.973762996494798 51.900003289338223 2.8885602951103539 
	51.403307594358949 51.900003289338223 1.4725428773143969 
	51.548345252871542 51.900003289338223 -6.7289170414999995e-005 
	51.403307594358949 51.900003289338223 -1.472675474355214 
	50.973761133849649 51.900003289338223 -2.8886941727197089 
	50.276219151914148 51.900003289338223 -4.193704575294845 
	49.33748511224988 51.900003289338223 -5.3375517018085654 
	48.193638451397433 51.900003289338223 -6.2762880697792713 
	46.888625487685225 51.900003289338223 -6.9738300517147724 
	45.472608186304591 51.900003289338223 -7.4033755809014972 
	43.999997206032297 51.900003289338223 -7.5484141707366641 
	42.527389019727728 51.900003289338223 -7.4033746495789234 
	41.11137404665353 51.900003289338223 -6.9738295860534842 
	39.806364808231613 51.900003289338223 -6.2762885354405578 
	38.662508368492148 51.900003289338223 -5.3375558927601503 
	37.723801337182543 51.900003289338223 -4.1936989873593973 
	36.793606128543637 51.900003289338223 -2.453714609140746 
	36.498690728098175 51.900003289338223 -0.98206498659609998 
	36.499999701976797 51.900003289338223 -6.7055220000000003e-005 
	0 
	null_surface 
	null_surface 
	nullbs 
	nullbs 
	I I 
	0 
	0 
	0 
	F 1 F 0 } I I #
point $-1 37.899999652057907 50.500003397464774 -6.7055220000000003e-005 #
straight-curve $-1 -7.5248281937092578 2.9999986290931702 0 0 0 -1 I I #
point $-1 -7.5248281937092578 -2.9999986290931702 -7.5483475811779517 #
straight-curve $-1 -7.5248281937092578 0 -7.5483475811779517 0 1 0 I I #
point $-1 -7.5248281937092578 2.9999986290931702 -7.5483475811779517 #
wire $-1 $-1 $140 $6 $-1 out #
coedge $-1 $-1 $-1 $-1 $141 forward $124 $-1 #
edge $-1 $142 0 $142 1 $125 $143 forward 7 unknown #
tvertex-vertex $-1 $126 $144 0 #
intcurve-curve $-1 forward { exactcur full nubs 3 closed 31 
	0 3 0.062500007450580999 1 0.093750022351741999 1 0.125000014901161 1 0.156250044703484 1 
	0.187500044703484 1 0.218750044703484 1 0.250000059604645 1 0.281250059604645 1 0.312500059604645 1 
	0.343750089406967 1 0.375000089406967 1 0.406250089406967 1 0.437500089406967 1 0.46875011920928999 1 
	0.50000011920928999 1 0.53125011920928999 1 0.56250011920928999 1 0.59375011920928999 1 0.62500011920928999 1 
	0.65625011920928999 1 0.68750017881393399 1 0.71875017881393399 1 0.75000017881393399 1 0.78125017881393399 1 
	0.812500059604645 1 0.84375 1 0.875 1 0.90625 1 0.9375 1 
	1 3 
	36.499999701976797 52.500000000000021 -6.7055220000000003e-005 
	36.498691193759463 52.500000000000021 0.98193297163189297 
	36.793607059866211 52.500000000000021 2.453579567378172 
	37.723800405859969 52.500000000000021 4.1935653425806851 
	38.66250790283086 52.500000000000021 5.3374213166588644 
	39.806365273892901 52.500000000000021 6.2761544250005583 
	41.111372649669669 52.500000000000021 6.9736964069360594 
	42.527390416711583 52.500000000000021 7.4032396078163494 
	44.000000465661309 52.500000000000021 7.5482809916192393 
	45.472609117627158 52.500000000000021 7.4032396078163494 
	46.888628281652949 52.500000000000021 6.9736968725973467 
	48.193636588752284 52.500000000000021 6.2761534936779837 
	49.337486974895029 52.500000000000021 5.3374199196750034 
	50.276221014559297 52.500000000000021 4.1935695335322709 
	50.973762996494798 52.500000000000021 2.8885602951103539 
	51.403307594358949 52.500000000000021 1.4725428773143969 
	51.548345252871542 52.500000000000021 -6.7289170414999995e-005 
	51.403307594358949 52.500000000000021 -1.472675474355214 
	50.973761133849649 52.500000000000021 -2.8886941727197089 
	50.276219151914148 52.500000000000021 -4.193704575294845 
	49.33748511224988 52.500000000000021 -5.3375517018085654 
	48.193638451397433 52.500000000000021 -6.2762880697792713 
	46.888625487685225 52.500000000000021 -6.9738300517147724 
	45.472608186304591 52.500000000000021 -7.4033755809014972 
	43.999997206032297 52.500000000000021 -7.5484141707366641 
	42.527389019727728 52.500000000000021 -7.4033746495789234 
	41.11137404665353 52.500000000000021 -6.9738295860534842 
	39.806364808231613 52.500000000000021 -6.2762885354405578 
	38.662508368492148 52.500000000000021 -5.3375558927601503 
	37.723801337182543 52.500000000000021 -4.1936989873593973 
	36.793606128543637 52.500000000000021 -2.453714609140746 
	36.498690728098175 52.500000000000021 -0.98206498659609998 
	36.499999701976797 52.500000000000021 -6.7055220000000003e-005 
	0 
	null_surface 
	null_surface 
	nullbs 
	nullbs 
	I I 
	0 
	0 
	0 
	F 1 F 0 } I I #
point $-1 36.499999701976797 51.900003289338223 -6.7055220000000003e-005 #
coedge $-1 $-1 $-1 $-1 $145 forward $134 $-1 #
edge $-1 $146 0 $146 1 $135 $147 forward 7 unknown #
tvertex-vertex $-1 $136 $148 0 #
intcurve-curve $-1 forward { exactcur full nubs 3 closed 31 
	0 3 0.062499988824129001 1 0.093749977648258001 1 0.124999977648258 1 0.156249955296516 1 
	0.187499955296516 1 0.218749955296516 1 0.249999925494194 1 0.281249910593033 1 0.312499910593033 1 
	0.343749910593033 1 0.374999910593033 1 0.40624988079071001 1 0.43749988079071001 1 0.46874988079071001 1 
	0.49999988079071001 1 0.531249940395355 1 0.562499940395355 1 0.593749940395355 1 0.62499988079071001 1 
	0.65624982118606601 1 0.68749982118606601 1 0.71874982118606601 1 0.749999940395355 1 0.781249940395355 1 
	0.812499940395355 1 0.843749940395355 1 0.875 1 0.90625 1 0.9375 1 
	1 3 
	39.999999344348929 52.500000000000021 -6.7055220000000003e-005 
	39.999301318079254 52.500000000000021 0.52366644377426097 
	40.156589826568982 52.500000000000021 1.3085444225052081 
	40.652693487703822 52.500000000000021 2.236537635331759 
	41.153336415067336 52.500000000000021 2.8465930372530308 
	41.763394610956333 52.500000000000021 3.34725086577774 
	42.459398280829213 52.500000000000021 3.7192737218046279 
	43.21460752375426 52.500000000000021 3.9483639411681981 
	44.000000000000021 52.500000000000021 4.0257186628931851 
	44.785391777753851 52.500000000000021 3.9483639411681981 
	45.540601253509536 52.500000000000021 3.7192741874659152 
	46.236605621874354 52.500000000000021 3.3472513314390269 
	46.846660092473051 52.500000000000021 2.8465930372530308 
	47.347318153828404 52.500000000000021 2.2365401964688392 
	47.719341475516572 52.500000000000021 1.540533616212912 
	47.948430530726938 52.500000000000021 0.78532472253383001 
	48.025785252451925 52.500000000000021 -6.7569911068000003e-005 
	47.948431462049513 52.500000000000021 -0.78545982250406599 
	47.719340078532717 52.500000000000021 -1.5406679594835571 
	47.347319085150978 52.500000000000021 -2.2366736084169072 
	46.846659161150477 52.500000000000021 -2.846726914862387 
	46.236608415842078 52.500000000000021 -3.3473831135725902 
	45.540601253509536 52.500000000000021 -3.7194082979059151 
	44.785393640399001 52.500000000000021 -3.948498051608198 
	43.999998603016159 52.500000000000021 -4.0258523076718973 
	43.214609153568766 52.500000000000021 -3.9484989829307722 
	42.459396651014707 52.500000000000021 -3.7194069009220532 
	41.763395542278907 52.500000000000021 -3.3473861403709568 
	41.153335716575405 52.500000000000021 -2.8467266820317429 
	40.652694419026396 52.500000000000021 -2.2366722114330448 
	40.156588895246408 52.500000000000021 -1.3086780672839211 
	39.999302249401829 52.500000000000021 -0.52380305714368003 
	39.999999344348929 52.500000000000021 -6.7055220000000003e-005 
	0 
	null_surface 
	null_surface 
	nullbs 
	nullbs 
	I I 
	0 
	0 
	0 
	F 1 F 0 } I I #
point $-1 36.499999701976797 52.500000000000021 -6.7055220000000003e-005 #
edge $-1 $149 0 $149 1 $140 $150 forward 7 unknown #
tvertex-vertex $-1 $141 $151 0 #
intcurve-curve $-1 forward { exactcur full nubs 3 closed 31 
	0 3 0.062499988824129001 1 0.093749977648258001 1 0.124999977648258 1 0.156249955296516 1 
	0.187499955296516 1 0.218749955296516 1 0.249999925494194 1 0.281249910593033 1 0.312499910593033 1 
	0.343749910593033 1 0.374999910593033 1 0.40624988079071001 1 0.43749988079071001 1 0.46874988079071001 1 
	0.49999988079071001 1 0.531249940395355 1 0.562499940395355 1 0.593749940395355 1 0.62499988079071001 1 
	0.65624982118606601 1 0.68749982118606601 1 0.71874982118606601 1 0.749999940395355 1 0.781249940395355 1 
	0.812499940395355 1 0.843749940395355 1 0.875 1 0.90625 1 0.9375 1 
	1 3 
	39.999999344348929 54.500000327825568 -6.7055220000000003e-005 
	39.999301318079254 54.500000327825568 0.52366644377426097 
	40.156589826568982 54.500000327825568 1.3085444225052081 
	40.652693487703822 54.500000327825568 2.236537635331759 
	41.153336415067336 54.500000327825568 2.8465930372530308 
	41.763394610956333 54.500000327825568 3.34725086577774 
	42.459398280829213 54.500000327825568 3.7192737218046279 
	43.21460752375426 54.500000327825568 3.9483639411681981 
	44.000000000000021 54.500000327825568 4.0257186628931851 
	44.785391777753851 54.500000327825568 3.9483639411681981 
	45.540601253509536 54.500000327825568 3.7192741874659152 
	46.236605621874354 54.500000327825568 3.3472513314390269 
	46.846660092473051 54.500000327825568 2.8465930372530308 
	47.347318153828404 54.500000327825568 2.2365401964688392 
	47.719341475516572 54.500000327825568 1.540533616212912 
	47.948430530726938 54.500000327825568 0.78532472253383001 
	48.025785252451925 54.500000327825568 -6.7569911068000003e-005 
	47.948431462049513 54.500000327825568 -0.78545982250406599 
	47.719340078532717 54.500000327825568 -1.5406679594835571 
	47.347319085150978 54.500000327825568 -2.2366736084169072 
	46.846659161150477 54.500000327825568 -2.846726914862387 
	46.236608415842078 54.500000327825568 -3.3473831135725902 
	45.540601253509536 54.500000327825568 -3.7194082979059151 
	44.785393640399001 54.500000327825568 -3.948498051608198 
	43.999998603016159 54.500000327825568 -4.0258523076718973 
	43.214609153568766 54.500000327825568 -3.9484989829307722 
	42.459396651014707 54.500000327825568 -3.7194069009220532 
	41.763395542278907 54.500000327825568 -3.3473861403709568 
	41.153335716575405 54.500000327825568 -2.8467266820317429 
	40.652694419026396 54.500000327825568 -2.2366722114330448 
	40.156588895246408 54.500000327825568 -1.3086780672839211 
	39.999302249401829 54.500000327825568 -0.52380305714368003 
	39.999999344348929 54.500000327825568 -6.7055220000000003e-005 
	0 
	null_surface 
	null_surface 
	nullbs 
	nullbs 
	I I 
	0 
	0 
	0 
	F 1 F 0 } I I #
point $-1 39.999999344348929 52.500000000000021 -6.7055220000000003e-005 #
tvertex-vertex $-1 $145 $152 0 #
intcurve-curve $-1 forward { exactcur full nubs 3 closed 31 
	0 3 0.062500007450580999 1 0.093750022351741999 1 0.125000014901161 1 0.156250044703484 1 
	0.187500044703484 1 0.218750044703484 1 0.250000059604645 1 0.281250059604645 1 0.312500059604645 1 
	0.343750089406967 1 0.375000089406967 1 0.406250089406967 1 0.437500089406967 1 0.46875011920928999 1 
	0.50000011920928999 1 0.53125011920928999 1 0.56250011920928999 1 0.59375011920928999 1 0.62500011920928999 1 
	0.65625011920928999 1 0.68750017881393399 1 0.71875017881393399 1 0.75000017881393399 1 0.78125017881393399 1 
	0.812500059604645 1 0.84375 1 0.875 1 0.90625 1 0.9375 1 
	1 3 
	36.499999701976797 54.500000327825568 -6.7055220000000003e-005 
	36.498691193759463 54.500000327825568 0.98193297163189297 
	36.793607059866211 54.500000327825568 2.453579567378172 
	37.723800405859969 54.500000327825568 4.1935653425806851 
	38.66250790283086 54.500000327825568 5.3374213166588644 
	39.806365273892901 54.500000327825568 6.2761544250005583 
	41.111372649669669 54.500000327825568 6.9736964069360594 
	42.527390416711583 54.500000327825568 7.4032396078163494 
	44.000000465661309 54.500000327825568 7.5482809916192393 
	45.472609117627158 54.500000327825568 7.4032396078163494 
	46.888628281652949 54.500000327825568 6.9736968725973467 
	48.193636588752284 54.500000327825568 6.2761534936779837 
	49.337486974895029 54.500000327825568 5.3374199196750034 
	50.276221014559297 54.500000327825568 4.1935695335322709 
	50.973762996494798 54.500000327825568 2.8885602951103539 
	51.403307594358949 54.500000327825568 1.4725428773143969 
	51.548345252871542 54.500000327825568 -6.7289170414999995e-005 
	51.403307594358949 54.500000327825568 -1.472675474355214 
	50.973761133849649 54.500000327825568 -2.8886941727197089 
	50.276219151914148 54.500000327825568 -4.193704575294845 
	49.33748511224988 54.500000327825568 -5.3375517018085654 
	48.193638451397433 54.500000327825568 -6.2762880697792713 
	46.888625487685225 54.500000327825568 -6.9738300517147724 
	45.472608186304591 54.500000327825568 -7.4033755809014972 
	43.999997206032297 54.500000327825568 -7.5484141707366641 
	42.527389019727728 54.500000327825568 -7.4033746495789234 
	41.11137404665353 54.500000327825568 -6.9738295860534842 
	39.806364808231613 54.500000327825568 -6.2762885354405578 
	38.662508368492148 54.500000327825568 -5.3375558927601503 
	37.723801337182543 54.500000327825568 -4.1936989873593973 
	36.793606128543637 54.500000327825568 -2.453714609140746 
	36.498690728098175 54.500000327825568 -0.98206498659609998 
	36.499999701976797 54.500000327825568 -6.7055220000000003e-005 
	0 
	null_surface 
	null_surface 
	nullbs 
	nullbs 
	I I 
	0 
	0 
	0 
	F 1 F 0 } I I #
point $-1 39.999999344348929 54.500000327825568 -6.7055220000000003e-005 #
point $-1 36.499999701976797 54.500000327825568 -6.7055220000000003e-005 #
End-of-ACIS-data 