600 0 1 0           
86 GICL ACIS Healer - Source: /gicl/data5/repository/SDRC_I-DEAS/blender/Part34.sat - 6 0 18 ACIS 6.0.3 Solaris 24 Sat Apr 13 23:12:48 2002 
1 9.999999999999999547e-07 1.000000000000000036e-10 
body $-1 $1 $-1 $2 #
lump $-1 $-1 $3 $0 #
transform $-1 1 0 0 0 1 0 0 0 1 0 0 0 1 no_rotate no_reflect no_shear #
shell $-1 $-1 $-1 $4 $-1 $1 #
face $5 $6 $7 $3 $-1 $8 forward single #
fmesh-eye-attrib $-1 $-1 $-1 $4 #
face $9 $10 $11 $3 $-1 $12 forward single #
loop $-1 $-1 $13 $4 #
plane-surface $-1 0.008245115999999996781 52.50000000000002132 -63.89001850000003202 -0 0 1 1 -0 0 forward_v I I I I #
fmesh-eye-attrib $-1 $-1 $-1 $6 #
face $14 $15 $16 $3 $-1 $17 forward single #
loop $-1 $-1 $18 $6 #
plane-surface $-1 0.008245115999999996781 52.50000000000002132 -67.65110150000003841 -0 -0 -1 -1 0 0 forward_v I I I I #
coedge $-1 $19 $20 $21 $22 forward $7 $-1 #
fmesh-eye-attrib $-1 $-1 $-1 $10 #
face $23 $24 $25 $3 $-1 $26 forward single #
loop $-1 $-1 $27 $10 #
plane-surface $-1 -0.7437243840000009598 52.50000000000002132 -65.77056000000003166 -1 0 0 0 -0 1 forward_v I I I I #
coedge $-1 $28 $29 $30 $31 forward $11 $-1 #
coedge $-1 $32 $13 $33 $34 forward $7 $-1 #
coedge $-1 $13 $32 $35 $36 forward $7 $-1 #
coedge $-1 $37 $38 $13 $22 reversed $16 $-1 #
edge $-1 $39 0 $40 1 $13 $41 forward 7 unknown #
fmesh-eye-attrib $-1 $-1 $-1 $15 #
face $42 $43 $44 $3 $-1 $45 forward single #
loop $-1 $-1 $46 $15 #
plane-surface $-1 0.7602146160000009534 52.50000000000002132 -65.77056000000003166 1 0 0 0 0 -1 forward_v I I I I #
coedge $-1 $38 $37 $47 $48 reversed $16 $-1 #
coedge $-1 $47 $18 $49 $50 forward $11 $-1 #
coedge $-1 $18 $47 $51 $52 forward $11 $-1 #
coedge $-1 $53 $54 $18 $31 reversed $25 $-1 #
edge $-1 $55 0 $56 1 $18 $57 forward 7 unknown #
coedge $-1 $20 $19 $46 $58 forward $7 $-1 #
coedge $-1 $59 $60 $19 $34 reversed $44 $-1 #
edge $-1 $40 0 $61 1 $19 $62 forward 7 unknown #
coedge $-1 $63 $64 $20 $36 reversed $65 $-1 #
edge $-1 $66 0 $39 1 $20 $67 forward 7 unknown #
coedge $-1 $27 $21 $64 $68 forward $16 $-1 #
coedge $-1 $21 $27 $59 $69 forward $16 $-1 #
vertex $-1 $22 $70 #
vertex $-1 $22 $71 #
intcurve-curve $-1 forward { exactcur full nubs 1 open 2 
	0 1 1 1 
	-0.7437243840000009598 53.50000000000001421 -63.89001850000003202 
	-0.7437243840000009598 51.50000000000001421 -63.89001850000003202 
	0 
	null_surface 
	null_surface 
	nullbs 
	nullbs 
	I I 
	0 
	0 
	0 
	F 1 F 0 } I I #
fmesh-eye-attrib $-1 $-1 $-1 $24 #
face $72 $-1 $65 $3 $-1 $73 forward single #
loop $-1 $-1 $59 $24 #
plane-surface $-1 0.008245115999999996781 51.50000000000002132 -65.77056000000003166 0 -1 0 0 0 -1 forward_v I I I I #
coedge $-1 $54 $53 $32 $58 reversed $25 $-1 #
coedge $-1 $29 $28 $27 $48 forward $11 $-1 #
edge $-1 $74 0 $75 1 $47 $76 forward 7 unknown #
coedge $-1 $60 $59 $28 $50 reversed $44 $-1 #
edge $-1 $56 0 $74 1 $28 $77 forward 7 unknown #
coedge $-1 $64 $63 $29 $52 reversed $65 $-1 #
edge $-1 $75 0 $55 1 $29 $78 forward 7 unknown #
coedge $-1 $46 $30 $63 $79 forward $25 $-1 #
coedge $-1 $30 $46 $60 $80 forward $25 $-1 #
vertex $-1 $31 $81 #
vertex $-1 $31 $82 #
intcurve-curve $-1 forward { exactcur full nubs 1 open 2 
	0 1 1 1 
	0.7602146160000009534 53.50000000000001421 -67.65110150000003841 
	0.7602146160000009534 51.50000000000001421 -67.65110150000003841 
	0 
	null_surface 
	null_surface 
	nullbs 
	nullbs 
	I I 
	0 
	0 
	0 
	F 1 F 0 } I I #
edge $-1 $61 0 $66 1 $32 $83 forward 7 unknown #
coedge $-1 $49 $33 $38 $69 reversed $44 $-1 #
coedge $-1 $33 $49 $54 $80 reversed $44 $-1 #
vertex $-1 $58 $84 #
intcurve-curve $-1 forward { exactcur full nubs 1 open 2 
	0 1 1 1 
	-0.7437243840000009598 51.50000000000001421 -63.89001850000003202 
	0.7602146160000009534 51.50000000000001421 -63.89001850000003202 
	0 
	null_surface 
	null_surface 
	nullbs 
	nullbs 
	I I 
	0 
	0 
	0 
	F 1 F 0 } I I #
coedge $-1 $51 $35 $53 $79 reversed $65 $-1 #
coedge $-1 $35 $51 $37 $68 reversed $65 $-1 #
loop $-1 $-1 $64 $43 #
vertex $-1 $36 $85 #
intcurve-curve $-1 forward { exactcur full nubs 1 open 2 
	0 1 1 1 
	0.7602146160000009534 53.50000000000001421 -63.89001850000003202 
	-0.7437243840000009598 53.50000000000001421 -63.89001850000003202 
	0 
	null_surface 
	null_surface 
	nullbs 
	nullbs 
	I I 
	0 
	0 
	0 
	F 1 F 0 } I I #
edge $-1 $39 0 $75 1 $37 $86 forward 7 unknown #
edge $-1 $74 0 $40 1 $38 $87 forward 7 unknown #
point $-1 -0.7437243840000009598 53.50000000000001421 -63.89001850000003202 #
point $-1 -0.7437243840000009598 51.50000000000001421 -63.89001850000003202 #
fmesh-eye-attrib $-1 $-1 $-1 $43 #
plane-surface $-1 0.008245115999999996781 53.50000000000002132 -65.77056000000003166 0 1 0 0 0 1 forward_v I I I I #
vertex $-1 $48 $88 #
vertex $-1 $52 $89 #
intcurve-curve $-1 forward { exactcur full nubs 1 open 2 
	0 1 1 1 
	-0.7437243840000009598 51.50000000000001421 -67.65110150000003841 
	-0.7437243840000009598 53.50000000000001421 -67.65110150000003841 
	0 
	null_surface 
	null_surface 
	nullbs 
	nullbs 
	I I 
	0 
	0 
	0 
	F 1 F 0 } I I #
intcurve-curve $-1 forward { exactcur full nubs 1 open 2 
	0 1 1 1 
	0.7602146160000009534 51.50000000000001421 -67.65110150000003841 
	-0.7437243840000009598 51.50000000000001421 -67.65110150000003841 
	0 
	null_surface 
	null_surface 
	nullbs 
	nullbs 
	I I 
	0 
	0 
	0 
	F 1 F 0 } I I #
intcurve-curve $-1 forward { exactcur full nubs 1 open 2 
	0 1 1 1 
	-0.7437243840000009598 53.50000000000001421 -67.65110150000003841 
	0.7602146160000009534 53.50000000000001421 -67.65110150000003841 
	0 
	null_surface 
	null_surface 
	nullbs 
	nullbs 
	I I 
	0 
	0 
	0 
	F 1 F 0 } I I #
edge $-1 $55 0 $66 1 $53 $90 forward 7 unknown #
edge $-1 $61 0 $56 1 $54 $91 forward 7 unknown #
point $-1 0.7602146160000009534 53.50000000000001421 -67.65110150000003841 #
point $-1 0.7602146160000009534 51.50000000000001421 -67.65110150000003841 #
intcurve-curve $-1 forward { exactcur full nubs 1 open 2 
	0 1 1 1 
	0.7602146160000009534 51.50000000000001421 -63.89001850000003202 
	0.7602146160000009534 53.50000000000001421 -63.89001850000003202 
	0 
	null_surface 
	null_surface 
	nullbs 
	nullbs 
	I I 
	0 
	0 
	0 
	F 1 F 0 } I I #
point $-1 0.7602146160000009534 51.50000000000001421 -63.89001850000003202 #
point $-1 0.7602146160000009534 53.50000000000001421 -63.89001850000003202 #
intcurve-curve $-1 forward { exactcur full nubs 1 open 2 
	0 1 1 1 
	-0.7437243840000009598 53.50000000000001421 -63.89001850000003202 
	-0.7437243840000009598 53.50000000000001421 -67.65110150000003841 
	0 
	null_surface 
	null_surface 
	nullbs 
	nullbs 
	I I 
	0 
	0 
	0 
	F 1 F 0 } I I #
intcurve-curve $-1 forward { exactcur full nubs 1 open 2 
	0 1 1 1 
	-0.7437243840000009598 51.50000000000001421 -67.65110150000003841 
	-0.7437243840000009598 51.50000000000001421 -63.89001850000003202 
	0 
	null_surface 
	null_surface 
	nullbs 
	nullbs 
	I I 
	0 
	0 
	0 
	F 1 F 0 } I I #
point $-1 -0.7437243840000009598 51.50000000000001421 -67.65110150000003841 #
point $-1 -0.7437243840000009598 53.50000000000001421 -67.65110150000003841 #
intcurve-curve $-1 forward { exactcur full nubs 1 open 2 
	0 1 1 1 
	0.7602146160000009534 53.50000000000001421 -67.65110150000003841 
	0.7602146160000009534 53.50000000000001421 -63.89001850000003202 
	0 
	null_surface 
	null_surface 
	nullbs 
	nullbs 
	I I 
	0 
	0 
	0 
	F 1 F 0 } I I #
intcurve-curve $-1 forward { exactcur full nubs 1 open 2 
	0 1 1 1 
	0.7602146160000009534 51.50000000000001421 -63.89001850000003202 
	0.7602146160000009534 51.50000000000001421 -67.65110150000003841 
	0 
	null_surface 
	null_surface 
	nullbs 
	nullbs 
	I I 
	0 
	0 
	0 
	F 1 F 0 } I I #
End-of-ACIS-data 