600 0 1 0           
86 GICL ACIS Healer - Source: /gicl/data5/repository/SDRC_I-DEAS/blender/Part23.sat - 6 0 18 ACIS 6.0.3 Solaris 24 Sat Apr 13 23:10:13 2002 
1 9.999999999999999547e-07 1.000000000000000036e-10 
body $-1 $1 $-1 $2 #
lump $-1 $-1 $3 $0 #
transform $-1 1 0 0 0 1 0 0 0 1 0 0 0 1 no_rotate no_reflect no_shear #
shell $-1 $-1 $-1 $4 $-1 $1 #
face $5 $6 $7 $3 $-1 $8 forward single #
fmesh-eye-attrib $-1 $-1 $-1 $4 #
face $9 $10 $11 $3 $-1 $12 forward single #
loop $-1 $-1 $13 $4 #
plane-surface $-1 1.159524186264514256 54.90953910815421324 -59.1909828391492141 -0 0.9396879645842965978 0.3420329358635239014 0 -0.3420329358635239569 0.9396879645842968198 forward_v I I I I #
fmesh-eye-attrib $-1 $-1 $-1 $6 #
face $14 $15 $16 $3 $-1 $17 forward single #
loop $-1 $-1 $18 $6 #
plane-surface $-1 1.159524186264514256 62.42705511295142173 -60.84027972908748438 0 -0.3420329358635209038 0.939687964584297819 1 0 -0 forward_v I I I I #
coedge $-1 $19 $20 $21 $22 reversed $7 $-1 #
fmesh-eye-attrib $-1 $-1 $-1 $10 #
face $23 $24 $25 $3 $-1 $26 forward single #
loop $-1 $-1 $27 $10 #
plane-surface $-1 1.159524186264514256 69.507899352694551 -61.28988162164451126 -0 0.939687964584297708 0.3420329358635212369 0 -0.3420329358635212369 0.939687964584297708 forward_v I I I I #
coedge $-1 $28 $29 $30 $31 reversed $11 $-1 #
coedge $-1 $32 $13 $33 $34 reversed $7 $-1 #
coedge $-1 $13 $32 $28 $35 reversed $7 $-1 #
coedge $-1 $30 $36 $13 $22 forward $37 $-1 #
edge $-1 $38 -6.828864456978763542 $39 1.413260557067449907 $13 $40 reversed 7 unknown #
fmesh-eye-attrib $-1 $-1 $-1 $15 #
face $41 $42 $43 $3 $-1 $44 forward single #
loop $-1 $-1 $45 $15 #
plane-surface $-1 13.65952437252903096 61.99038334789734961 -62.37685098797031458 1 0 0 0 0 -1 forward_v I I I I #
coedge $-1 $46 $47 $48 $49 forward $16 $-1 #
coedge $-1 $50 $18 $20 $35 forward $11 $-1 #
coedge $-1 $18 $50 $46 $51 reversed $11 $-1 #
coedge $-1 $48 $21 $18 $31 forward $37 $-1 #
edge $-1 $39 -6.032058865434443362 $52 6.967952046368741215 $18 $53 reversed 7 unknown #
coedge $-1 $20 $19 $54 $55 reversed $7 $-1 #
coedge $-1 $56 $57 $19 $34 forward $58 $-1 #
edge $-1 $59 -12.49999977939677187 $38 12.50000059313226508 $19 $60 forward 7 unknown #
edge $-1 $39 -12.50000018626452025 $61 12.5000001862645167 $20 $62 forward 7 unknown #
coedge $-1 $21 $63 $56 $64 reversed $37 $-1 #
loop $-1 $-1 $65 $66 #
vertex $-1 $22 $67 #
vertex $-1 $22 $68 #
straight-curve $-1 -11.340476000000006 55.83569655883452043 -61.73547174200042775 0 -0.3420329358635239569 0.9396879645842968198 I I #
fmesh-eye-attrib $-1 $-1 $-1 $24 #
face $69 $70 $71 $3 $-1 $72 reversed single #
loop $-1 $-1 $73 $24 #
plane-surface $-1 1.159524186264514256 54.47287202280246277 -66.76240127734079977 0 -0.9396879645842965978 -0.3420329358635240125 0 0.342032935863524068 -0.9396879645842967088 forward_v I I I I #
coedge $-1 $74 $75 $76 $77 reversed $25 $-1 #
coedge $-1 $76 $27 $29 $51 forward $16 $-1 #
coedge $-1 $27 $76 $78 $79 forward $16 $-1 #
coedge $-1 $65 $30 $27 $49 reversed $37 $-1 #
edge $-1 $80 -3.619280450058608878 $52 2.069454411944993133 $27 $81 forward 7 unknown #
coedge $-1 $29 $28 $74 $82 reversed $11 $-1 #
edge $-1 $52 -12.50000018626451848 $83 12.5000001862645167 $29 $84 reversed 7 unknown #
vertex $-1 $31 $85 #
straight-curve $-1 -11.34047600000000422 61.98733133382118154 -61.00033287525229042 0 -0.939687964584297819 -0.3420329358635209038 I I #
coedge $-1 $86 $74 $32 $55 forward $25 $-1 #
edge $-1 $61 -1.413260557067443246 $59 6.828864456978758213 $32 $87 reversed 7 unknown #
coedge $-1 $88 $33 $36 $64 forward $58 $-1 #
coedge $-1 $33 $89 $86 $90 forward $58 $-1 #
loop $-1 $-1 $88 $91 #
vertex $-1 $55 $92 #
straight-curve $-1 1.159524593132258641 53.50000000000000711 -55.31847000000001202 -1 -1.808661799959570543e-16 4.969046975357763119e-16 I I #
vertex $-1 $35 $93 #
straight-curve $-1 1.159524186264514256 56.31907821630841937 -63.06349567829840908 1 0 0 I I #
coedge $-1 $36 $94 $95 $96 forward $37 $-1 #
edge $-1 $38 -5.692040493985160765 $97 -3.879060622875549313 $36 $98 forward 7 unknown #
coedge $-1 $99 $48 $100 $101 forward $37 $-1 #
face $102 $103 $37 $3 $-1 $104 forward single #
point $-1 -11.340476000000006 53.50000000000000711 -55.31847000000000492 #
point $-1 -11.340476000000006 56.31907821630841937 -63.06349567829840908 #
fmesh-eye-attrib $-1 $-1 $-1 $42 #
face $105 $106 $107 $3 $-1 $108 reversed single #
loop $-1 $-1 $109 $42 #
plane-surface $-1 1.159526000000001389 69.20794634555568337 -61.92512996070114184 -0 0.9396879645842964868 0.3420329358635245121 0 -0.3420329358635245676 0.9396879645842965978 forward_v I I I I #
coedge $-1 $110 $111 $112 $113 forward $43 $-1 #
coedge $-1 $54 $45 $50 $82 forward $25 $-1 #
coedge $-1 $45 $114 $115 $116 forward $25 $-1 #
coedge $-1 $47 $46 $45 $77 forward $16 $-1 #
edge $-1 $83 -2.069454411944997574 $117 3.619280450058603993 $76 $118 forward 7 unknown #
coedge $-1 $115 $100 $47 $79 reversed $119 $-1 #
edge $-1 $117 -12.5000001862645167 $80 12.50000018626451848 $47 $120 forward 7 unknown #
vertex $-1 $49 $121 #
straight-curve $-1 -11.34047600000000422 69.24285357774768102 -60.56170518403714453 0 -0.3420329358635212369 0.939687964584297708 I I #
edge $-1 $83 -6.967952046368734997 $61 6.032058865434443362 $50 $122 reversed 7 unknown #
vertex $-1 $51 $123 #
straight-curve $-1 1.159524186264514256 68.53503200959441699 -58.61706377987655969 -1 -0 0 I I #
point $-1 -11.34047600000000422 68.53503200959441699 -58.61706377987655969 #
coedge $-1 $114 $54 $57 $90 reversed $25 $-1 #
straight-curve $-1 13.65952437252903096 55.83569655883452754 -61.73547174200043486 0 0.3420329358635239569 -0.9396879645842968198 I I #
coedge $-1 $124 $56 $125 $126 forward $58 $-1 #
coedge $-1 $57 $124 $127 $128 forward $58 $-1 #
edge $-1 $129 -3.079060084755823823 $59 5.692040493985146554 $86 $130 forward 7 unknown #
face $131 $-1 $132 $3 $-1 $133 forward single #
point $-1 13.65952437252903096 53.50000000000000711 -55.31847000000001913 #
point $-1 13.65952437252903096 56.31907821630842648 -63.06349567829840908 #
coedge $-1 $63 $99 $124 $134 reversed $37 $-1 #
coedge $-1 $135 $136 $63 $96 reversed $137 $-1 #
edge $-1 $138 1.862845365094763395 $97 2.875985622875553815 $63 $139 reversed 7 unknown #
vertex $-1 $126 $140 #
straight-curve $-1 -11.34047600000000422 53.50000000000000711 -61.01051049398516568 0 0 -1 I I #
coedge $-1 $94 $65 $141 $142 forward $37 $-1 #
coedge $-1 $78 $143 $65 $101 reversed $119 $-1 #
edge $-1 $80 -7.717953366794004566 $144 8.282062826710209436 $100 $145 reversed 7 unknown #
fmesh-eye-attrib $-1 $-1 $-1 $66 #
face $146 $147 $137 $3 $-1 $148 reversed single #
plane-surface $-1 -11.34047600000000422 61.9903833478973354 -62.37685098797032168 -1 -0 -0 0 0 1 forward_v I I I I #
fmesh-eye-attrib $-1 $-1 $-1 $70 #
face $149 $150 $151 $3 $-1 $152 reversed single #
loop $-1 $-1 $153 $70 #
plane-surface $-1 -10.84047400000000216 61.92536462002738062 -64.57588521364344558 -1 -0 0 0 -0 1 forward_v I I I I #
coedge $-1 $154 $155 $156 $157 forward $71 $-1 #
coedge $-1 $158 $73 $159 $160 forward $43 $-1 #
coedge $-1 $73 $161 $162 $163 forward $43 $-1 #
coedge $-1 $164 $165 $73 $113 reversed $166 $-1 #
edge $-1 $167 -2.102822453448339068 $168 2.597203566472598979 $73 $169 reversed 7 unknown #
coedge $-1 $75 $86 $158 $170 forward $25 $-1 #
coedge $-1 $159 $78 $75 $116 reversed $119 $-1 #
edge $-1 $171 -8.282062826710216541 $117 7.717953366793997461 $75 $172 forward 7 unknown #
vertex $-1 $79 $173 #
straight-curve $-1 13.65952437252903096 69.24285357774769523 -60.56170518403714453 0 0.3420329358635212369 -0.939687964584297708 I I #
loop $-1 $-1 $174 $175 #
straight-curve $-1 1.159524186264514256 70.48076669579468501 -63.96269946341245571 -1 0 -0 I I #
point $-1 -11.34047600000000422 70.48076669579468501 -63.96269946341245571 #
straight-curve $-1 13.65952437252903096 61.98733133382118865 -61.00033287525229042 -0 0.939687964584297819 0.3420329358635209038 I I #
point $-1 13.65952437252903096 68.53503200959441699 -58.61706377987655969 #
coedge $-1 $89 $88 $94 $134 forward $58 $-1 #
coedge $-1 $176 $177 $88 $126 reversed $178 $-1 #
edge $-1 $97 1.766740835740109095 $138 7.215408240333688106 $125 $179 forward 7 unknown #
coedge $-1 $141 $158 $89 $128 reversed $43 $-1 #
edge $-1 $180 -12.50000059313225975 $129 12.49999977939677542 $127 $181 forward 7 unknown #
vertex $-1 $170 $182 #
straight-curve $-1 13.65952437252903096 53.50000000000000711 -61.01051049398516568 0 -0 1 I I #
fmesh-eye-attrib $-1 $-1 $-1 $91 #
loop $-1 $183 $184 $91 #
plane-surface $-1 1.159524999999998585 53.50000000000000711 -59.64417000000001678 -1.80866179995957079e-16 1 0 0 -0 1 forward_v I I I I #
edge $-1 $138 -2.865920365094758893 $180 3.079060084755809612 $94 $185 forward 7 unknown #
coedge $-1 $136 $95 $177 $186 forward $137 $-1 #
coedge $-1 $95 $135 $176 $187 forward $137 $-1 #
loop $-1 $-1 $95 $103 #
vertex $-1 $126 $188 #
straight-curve $-1 -11.34047600000000422 53.50000000000002842 -60.00743549398517018 0 0 -1 I I #
point $-1 -11.34047600000000422 53.50000000000001421 -57.13144987110961637 #
coedge $-1 $189 $127 $99 $142 reversed $43 $-1 #
edge $-1 $144 -3.619287291069849921 $180 2.069474934978740688 $141 $190 reversed 7 unknown #
coedge $-1 $100 $191 $189 $192 reversed $119 $-1 #
vertex $-1 $192 $193 #
straight-curve $-1 -11.34047600000000422 63.22829880579550377 -66.602493712314768 -0 0.9396879645842971529 0.3420329358635229022 I I #
fmesh-eye-attrib $-1 $-1 $-1 $103 #
face $194 $195 $178 $3 $-1 $196 reversed single #
plane-surface $-1 -11.28685300000000602 53.50000000000002132 -57.63802000000001158 1.325070837909583757e-13 1 0 0 0 1 forward_v I I I I #
fmesh-eye-attrib $-1 $-1 $-1 $106 #
face $197 $175 $166 $3 $-1 $198 reversed single #
loop $-1 $-1 $199 $106 #
plane-surface $-1 1.159526000000001389 61.12158722074809702 -62.36761849687033532 0 -0.3420329358635227357 0.9396879645842971529 1 0 -0 forward_v I I I I #
coedge $-1 $156 $200 $191 $201 reversed $107 $-1 #
coedge $-1 $202 $109 $203 $204 reversed $71 $-1 #
coedge $-1 $109 $202 $205 $206 forward $71 $-1 #
coedge $-1 $207 $153 $109 $157 reversed $107 $-1 #
edge $-1 $208 -2.350000000000006306 $209 2.350026019920932185 $109 $210 reversed 7 unknown #
coedge $-1 $127 $110 $114 $170 reversed $43 $-1 #
coedge $-1 $174 $115 $110 $160 reversed $119 $-1 #
edge $-1 $168 12.00000181373549069 $171 12.5000001862645167 $110 $211 forward 7 unknown #
coedge $-1 $111 $189 $200 $212 forward $43 $-1 #
coedge $-1 $199 $213 $111 $163 reversed $151 $-1 #
edge $-1 $214 -11.99999909313225821 $167 12.00000090686774712 $111 $215 reversed 7 unknown #
coedge $-1 $216 $112 $213 $217 forward $166 $-1 #
coedge $-1 $112 $216 $174 $218 reversed $166 $-1 #
loop $-1 $-1 $164 $150 #
vertex $-1 $163 $219 #
vertex $-1 $218 $220 #
straight-curve $-1 13.15952600000000494 54.55741488472908429 -66.99467104295089825 0 -0.342032935863524068 0.9396879645842967088 I I #
edge $-1 $129 -2.069474934978727365 $171 3.619287291069849921 $114 $221 forward 7 unknown #
vertex $-1 $116 $222 #
straight-curve $-1 13.65952437252903096 63.22829880579551087 -66.602493712314768 -0 0.9396879645842971529 0.3420329358635229022 I I #
point $-1 13.65952437252903096 70.48076669579468501 -63.96269946341245571 #
coedge $-1 $203 $159 $165 $218 forward $119 $-1 #
face $223 $66 $119 $3 $-1 $224 forward single #
coedge $-1 $225 $125 $136 $187 reversed $178 $-1 #
coedge $-1 $125 $226 $135 $186 reversed $178 $-1 #
loop $-1 $-1 $227 $147 #
ellipse-curve $-1 -12.48323000000000604 53.50000000000001421 -57.63802000000001158 1.80866179995957079e-16 -1 -0 0.2743902439024417106 -7.105427357601001859e-15 -1.219512195121964737 1 I I #
vertex $-1 $142 $228 #
straight-curve $-1 1.159524593132255976 53.50000000000000711 -64.08957057874097529 1 1.80866179995957079e-16 -4.969046975357762133e-16 I I #
point $-1 13.65952437252903096 53.50000000000000711 -64.0895705787409895 #
loop $-1 $58 $229 $91 #
coedge $-1 $230 $231 $232 $233 forward $132 $-1 #
straight-curve $-1 -11.34047600000000422 53.50000000000000711 -61.01051049398516568 0 0 -1 I I #
edge $-1 $138 0.9322229331541022068 $234 1.349481884447099933 $135 $235 reversed 7 unknown #
edge $-1 $234 1.349481884447099933 $97 1.766740835740109095 $136 $236 reversed 7 unknown #
point $-1 -11.34047600000000422 53.50000000000000711 -58.14459012889040679 #
coedge $-1 $161 $141 $143 $192 forward $43 $-1 #
straight-curve $-1 -11.34047600000000422 54.20782858770675716 -66.0342312681493695 0 0.342032935863524068 -0.9396879645842967088 I I #
coedge $-1 $143 $203 $153 $201 forward $119 $-1 #
edge $-1 $144 -12.50000018626451848 $237 -11.99999818626451464 $189 $238 forward 7 unknown #
point $-1 -11.34047600000000422 55.44574404560491843 -69.43523197594061003 #
fmesh-eye-attrib $-1 $-1 $-1 $147 #
face $239 $240 $241 $3 $-1 $242 reversed single #
cone-surface $-1 -12.48323000000000604 51.89999992392409922 -57.63802000000000447 -5.792549674983257052e-17 1 -3.453641305100270147e-15 0.2743902439024417106 -7.105427357601001859e-15 -1.219512195121964737 1 I I 0 1 1.250000000000013767 forward I I I I #
fmesh-eye-attrib $-1 $-1 $-1 $150 #
plane-surface $-1 13.15952600000000494 61.92536462002738062 -64.57588521364344558 1 0 0 0 0 -1 forward_v I I I I #
coedge $-1 $205 $162 $207 $243 reversed $151 $-1 #
coedge $-1 $153 $207 $161 $212 reversed $107 $-1 #
edge $-1 $209 -7.625435005796452614 $237 7.875443102548533858 $153 $244 forward 7 unknown #
coedge $-1 $155 $154 $216 $245 forward $71 $-1 #
coedge $-1 $191 $174 $154 $204 forward $119 $-1 #
edge $-1 $246 -12.0000009068677489 $209 11.99999909313226176 $154 $247 forward 7 unknown #
coedge $-1 $213 $199 $155 $206 reversed $151 $-1 #
edge $-1 $248 -12.00000000000000533 $208 12.00000000000000533 $155 $249 reversed 7 unknown #
coedge $-1 $200 $156 $199 $243 forward $107 $-1 #
vertex $-1 $157 $250 #
vertex $-1 $201 $251 #
straight-curve $-1 -10.84047400000000394 69.20794634555568337 -61.92512996070113473 0 -0.3420329358635245676 0.9396879645842965978 I I #
straight-curve $-1 1.159524186264514256 55.44574404560491843 -69.43523197594061003 1 0 0 I I #
edge $-1 $237 -2.597203566472598979 $214 2.102822453448339068 $161 $252 reversed 7 unknown #
coedge $-1 $162 $205 $164 $217 reversed $151 $-1 #
vertex $-1 $163 $253 #
straight-curve $-1 1.159525093132257823 53.83818034737640801 -65.01867409178787227 -1 -0 0 I I #
coedge $-1 $165 $164 $202 $245 reversed $166 $-1 #
edge $-1 $167 -7.750878108344986472 $248 7.750000000000000888 $213 $254 forward 7 unknown #
edge $-1 $168 -7.875443102548533858 $246 7.625435005796452614 $165 $255 forward 7 unknown #
point $-1 13.15952600000000494 53.83818034737640801 -65.01867409178787227 #
point $-1 13.15952600000000494 55.44574404560492553 -69.43523197594061003 #
straight-curve $-1 13.65952437252903096 54.20782858770675716 -66.0342312681493695 0 0.342032935863524068 -0.9396879645842967088 I I #
point $-1 13.65952437252903096 55.44574404560491843 -69.43523197594061003 #
fmesh-eye-attrib $-1 $-1 $-1 $175 #
plane-surface $-1 1.159524186264514256 62.96325537069979816 -66.69896571967653642 0 0.3420329358635229022 -0.9396879645842971529 -1 0 0 forward_v I I I I #
coedge $-1 $227 $176 $226 $256 forward $178 $-1 #
coedge $-1 $177 $227 $225 $256 reversed $178 $-1 #
coedge $-1 $226 $225 $257 $258 reversed $178 $-1 #
point $-1 -11.34047600000000422 53.50000000000000711 -64.08957057874097529 #
coedge $-1 $229 $229 $259 $260 forward $183 $-1 #
coedge $-1 $261 $184 $262 $263 forward $132 $-1 #
coedge $-1 $184 $264 $265 $266 reversed $132 $-1 #
coedge $-1 $267 $268 $184 $233 reversed $269 $-1 #
edge $-1 $270 -4.810069984176976732 $271 -1.583650047469092215 $232 $272 reversed 7 unknown #
vertex $-1 $187 $273 #
ellipse-curve $-1 -12.48323000000000604 53.50000000000002132 -57.63802000000001158 1.325070837909583757e-13 1 0 0.2743902439024417106 -7.105427357601001859e-15 -1.219512195121964737 1 I I #
ellipse-curve $-1 -12.48323000000000604 53.50000000000002132 -57.63802000000001158 1.325070837909583757e-13 1 0 0.2743902439024417106 -7.105427357601001859e-15 -1.219512195121964737 1 I I #
vertex $-1 $201 $274 #
straight-curve $-1 1.159524186264514256 55.44574404560491843 -69.43523197594061003 1 0 0 I I #
fmesh-eye-attrib $-1 $-1 $-1 $195 #
face $275 $276 $277 $3 $-1 $278 forward single #
loop $-1 $-1 $279 $195 #
cone-surface $-1 18.51675000000000892 51.89999992392409212 -57.6705000000000183 0 1 0 0.2743902439024381579 0 -1.219512195121950526 1 I I 0 1 1.249999999999999112 forward I I I I #
edge $-1 $208 -7.750000000000000888 $214 7.750878108344986472 $207 $280 reversed 7 unknown #
straight-curve $-1 -10.84047400000000216 62.84620314483819925 -66.74157105034980475 0 -0.9396879645842971529 -0.3420329358635229022 I I #
edge $-1 $246 -2.350026019920932185 $248 2.350000000000006306 $202 $281 reversed 7 unknown #
vertex $-1 $218 $282 #
straight-curve $-1 1.159525093132257823 70.01173264450491729 -64.13342112808076934 -1 0 -0 I I #
vertex $-1 $206 $283 #
straight-curve $-1 1.159526000000001389 68.40416894627639977 -59.71686324392803158 1 0 0 I I #
point $-1 -10.84047400000000394 68.40416894627639977 -59.71686324392803158 #
point $-1 -10.84047400000000394 70.01173264450491729 -64.13342112808076934 #
straight-curve $-1 -10.84047400000000039 54.55741488472908429 -66.99467104295089825 -0 0.342032935863524068 -0.9396879645842967088 I I #
point $-1 -10.84047400000000039 53.83818034737640801 -65.01867409178787227 #
straight-curve $-1 13.15952600000000672 61.12158722074809702 -62.36761849687033532 -0 0.9396879645842972639 0.3420329358635227912 I I #
straight-curve $-1 13.15952600000000494 62.84620314483819925 -66.74157105034980475 -0 0.9396879645842971529 0.3420329358635229022 I I #
edge $-1 $234 0 $284 0.0423857202780899972 $225 $285 forward 7 unknown #
coedge $-1 $257 $257 $227 $258 forward $286 $-1 #
edge $-1 $284 -1.34948188444709416 $284 4.933703422732492072 $227 $287 forward 7 unknown #
coedge $-1 $288 $289 $229 $260 reversed $241 $-1 #
edge $-1 $290 1.349481884447105928 $290 7.632667191626691938 $259 $291 forward 7 unknown #
coedge $-1 $292 $230 $293 $294 forward $132 $-1 #
coedge $-1 $295 $296 $230 $263 reversed $297 $-1 #
edge $-1 $271 5.77787693381055778 $298 7.277868486225310463 $262 $299 reversed 7 unknown #
coedge $-1 $231 $300 $301 $302 forward $132 $-1 #
coedge $-1 $303 $304 $231 $266 forward $305 $-1 #
edge $-1 $270 -18.72293000000000873 $306 19.33616000000000668 $265 $307 forward 7 unknown #
coedge $-1 $308 $232 $304 $309 reversed $269 $-1 #
coedge $-1 $232 $308 $295 $310 reversed $269 $-1 #
loop $-1 $-1 $232 $311 #
vertex $-1 $266 $312 #
vertex $-1 $263 $313 #
straight-curve $-1 19.57584000000001012 53.50000000000000711 -56.44730998417698231 0 0 1 I I #
point $-1 -11.23323000000000604 53.50000000000001421 -57.63802000000001868 #
point $-1 -10.84047400000000039 55.44574404560492553 -69.43523197594061003 #
fmesh-eye-attrib $-1 $-1 $-1 $240 #
face $314 $315 $297 $3 $-1 $316 forward single #
loop $-1 $317 $318 $240 #
plane-surface $-1 1.15952500000000569 51.4999999050051116 -59.64417000000001678 0 -1 0 0 0 -1 forward_v I I I I #
coedge $-1 $289 $288 $319 $320 reversed $241 $-1 #
straight-curve $-1 -10.84047400000000216 61.12158722074809702 -62.36761849687033532 0 0.9396879645842972639 0.3420329358635227912 I I #
straight-curve $-1 13.15952600000000672 69.20794634555568337 -61.92512996070113473 0 0.3420329358635245676 -0.9396879645842965978 I I #
point $-1 13.15952600000000672 70.01173264450491729 -64.13342112808076934 #
point $-1 13.15952600000000672 68.40416894627639977 -59.71686324392803158 #
vertex $-1 $258 $321 #
intcurve-curve $-1 forward { exactcur full nubs 1 open 2 
	0 1 0.0423857202780899972 1 
	-11.23323000000000604 53.50000000000001421 -57.63802000000001868 
	-11.23323000000000604 51.49999990500512581 -57.63802000000001868 
	0 
	null_surface 
	null_surface 
	nullbs 
	nullbs 
	I I 
	0 
	0 
	0 
	F 1 F 0 } I I #
loop $-1 $-1 $257 $240 #
ellipse-curve $-1 -12.48323000000000604 51.49999990500511871 -57.63802000000000447 -0 1 -0 0.2743902439024417106 -7.105427357601001859e-15 -1.219512195121964737 1 I I #
coedge $-1 $279 $259 $289 $322 forward $241 $-1 #
coedge $-1 $259 $279 $288 $322 reversed $241 $-1 #
vertex $-1 $260 $323 #
ellipse-curve $-1 18.51675000000000892 53.50000000000000711 -57.6705000000000183 1.80866179995957079e-16 -1 -0 0.2743902439024381579 0 -1.219512195121950526 1 I I #
coedge $-1 $324 $261 $325 $326 forward $132 $-1 #
coedge $-1 $327 $328 $261 $294 reversed $329 $-1 #
edge $-1 $298 -4.939430000000008647 $330 6.984430000000010352 $293 $331 reversed 7 unknown #
coedge $-1 $332 $262 $268 $310 forward $297 $-1 #
coedge $-1 $262 $332 $327 $333 reversed $297 $-1 #
loop $-1 $-1 $262 $276 #
vertex $-1 $263 $334 #
straight-curve $-1 14.85159009816996445 53.50000000000000711 -51.53720165088513028 -0.8176446047483336699 -1.478842562551353087e-16 0.5757232845090959339 I I #
coedge $-1 $264 $335 $336 $337 forward $132 $-1 #
coedge $-1 $338 $339 $264 $302 reversed $340 $-1 #
edge $-1 $341 0.06890500000000798764 $306 5.314985000000014281 $301 $342 reversed 7 unknown #
coedge $-1 $343 $265 $339 $344 forward $305 $-1 #
coedge $-1 $265 $343 $267 $309 forward $305 $-1 #
loop $-1 $-1 $265 $345 #
vertex $-1 $302 $346 #
straight-curve $-1 0.8529100000000027215 53.50000000000000711 -51.63724000000000558 -1 -1.80866179995957079e-16 3.733892406571465036e-16 I I #
coedge $-1 $268 $267 $347 $348 reversed $269 $-1 #
edge $-1 $349 -1.000000047497451305 $270 1.0000000474974442 $304 $350 forward 7 unknown #
edge $-1 $271 -1.0000000474974442 $351 1.000000047497451305 $295 $352 reversed 7 unknown #
face $353 $91 $269 $3 $-1 $354 forward single #
point $-1 19.57584000000001012 53.50000000000000711 -51.63724000000000558 #
point $-1 19.57584000000001012 53.50000000000000711 -54.8636599367078901 #
fmesh-eye-attrib $-1 $-1 $-1 $276 #
face $355 $356 $329 $3 $-1 $357 forward single #
plane-surface $-1 20.18907000000000806 52.49999995250256291 -55.29544996835394954 0.5757232845090959339 0 0.8176446047483336699 0.8176446047483336699 0 -0.5757232845090959339 forward_v I I I I #
loop $-1 $286 $319 $240 #
coedge $-1 $358 $347 $343 $359 reversed $277 $-1 #
coedge $-1 $319 $319 $279 $320 forward $317 $-1 #
edge $-1 $360 -1.349481884447105928 $360 4.933703422732480526 $279 $361 forward 7 unknown #
point $-1 -11.23323000000000604 51.49999990500512581 -57.63802000000001868 #
edge $-1 $290 0 $360 0.0423857202780899972 $288 $362 forward 7 unknown #
point $-1 19.76675000000000537 53.50000000000001421 -57.6705000000000183 #
coedge $-1 $363 $292 $364 $365 forward $132 $-1 #
coedge $-1 $366 $367 $292 $326 reversed $368 $-1 #
edge $-1 $330 -19.64277500000000742 $369 19.64277500000001453 $325 $370 reversed 7 unknown #
coedge $-1 $371 $293 $296 $333 forward $329 $-1 #
coedge $-1 $293 $371 $366 $372 reversed $329 $-1 #
loop $-1 $-1 $293 $315 #
vertex $-1 $294 $373 #
straight-curve $-1 20.80230000000000956 53.50000000000001421 -60.66667000000001764 0 0 1 I I #
coedge $-1 $296 $295 $374 $375 reversed $297 $-1 #
edge $-1 $298 -1.0000000474974442 $376 1.000000047497451305 $296 $377 reversed 7 unknown #
point $-1 20.80230000000000956 53.50000000000000711 -55.72724000000000899 #
coedge $-1 $300 $363 $378 $379 forward $132 $-1 #
coedge $-1 $380 $381 $300 $337 reversed $382 $-1 #
edge $-1 $383 7.498765000000004122 $341 10.59559500000000121 $336 $384 reversed 7 unknown #
coedge $-1 $385 $301 $381 $386 forward $340 $-1 #
coedge $-1 $301 $385 $303 $344 reversed $340 $-1 #
loop $-1 $-1 $301 $387 #
vertex $-1 $337 $388 #
straight-curve $-1 -18.48325000000000529 53.5 -56.95222500000001276 0 0 -1 I I #
coedge $-1 $304 $303 $318 $359 forward $305 $-1 #
edge $-1 $306 -1.000000047497437095 $389 1.000000047497451305 $339 $390 reversed 7 unknown #
face $391 $311 $305 $3 $-1 $392 forward single #
point $-1 -18.48325000000000529 53.5 -51.63723999999999847 #
coedge $-1 $318 $374 $308 $348 forward $277 $-1 #
edge $-1 $351 1.583650047469092215 $349 4.810069984176969626 $347 $393 forward 7 unknown #
vertex $-1 $359 $394 #
straight-curve $-1 19.57584000000001012 52.49999995250256291 -51.63724000000000558 -0 1 0 I I #
vertex $-1 $348 $395 #
straight-curve $-1 19.57584000000001012 52.49999995250256291 -54.8636599367078901 -0 1 0 I I #
fmesh-eye-attrib $-1 $-1 $-1 $311 #
plane-surface $-1 19.57584000000001012 52.49999995250256291 -53.25044996835394784 1 0 -0 -0 0 -1 forward_v I I I I #
fmesh-eye-attrib $-1 $-1 $-1 $315 #
face $396 $397 $368 $3 $-1 $398 forward single #
plane-surface $-1 20.80230000000000956 52.49999995250256291 -61.68917000000001849 1 0 -0 -0 0 -1 forward_v I I I I #
coedge $-1 $399 $318 $385 $400 forward $277 $-1 #
edge $-1 $389 -19.33616000000001023 $349 18.72293000000000518 $318 $401 reversed 7 unknown #
vertex $-1 $320 $402 #
ellipse-curve $-1 18.51675000000000892 51.4999999050051116 -57.6705000000000183 -0 1 -0 0.2743902439024381579 0 -1.219512195121950526 1 I I #
intcurve-curve $-1 forward { exactcur full nubs 1 open 2 
	0 1 0.0423857202780899972 1 
	19.76675000000000537 53.50000000000001421 -57.6705000000000183 
	19.76675000000000537 51.49999990500512581 -57.67050000000003251 
	0 
	null_surface 
	null_surface 
	nullbs 
	nullbs 
	I I 
	0 
	0 
	0 
	F 1 F 0 } I I #
coedge $-1 $335 $324 $403 $404 forward $132 $-1 #
coedge $-1 $405 $406 $324 $365 reversed $407 $-1 #
edge $-1 $369 -6.32121500000001646 $408 2.949784999999998547 $364 $409 reversed 7 unknown #
coedge $-1 $410 $325 $328 $372 forward $368 $-1 #
coedge $-1 $325 $410 $405 $411 reversed $368 $-1 #
loop $-1 $-1 $325 $356 #
vertex $-1 $326 $412 #
straight-curve $-1 1.159525000000000361 53.50000000000000711 -67.65110000000002799 1 1.80866179995957079e-16 0 I I #
coedge $-1 $328 $327 $413 $414 reversed $329 $-1 #
edge $-1 $330 -1.000000047497451305 $415 1.000000047497451305 $328 $416 reversed 7 unknown #
point $-1 20.80230000000000956 53.50000000000001421 -67.65110000000002799 #
coedge $-1 $347 $413 $332 $375 forward $277 $-1 #
edge $-1 $376 -7.277868486225308686 $351 -5.777876933810552451 $374 $417 forward 7 unknown #
vertex $-1 $375 $418 #
straight-curve $-1 20.80230000000000956 52.49999995250256291 -55.72724000000000899 -0 1 0 I I #
coedge $-1 $419 $420 $335 $379 reversed $421 $-1 #
edge $-1 $422 0.2578400000000016234 $383 1.754620000000009838 $378 $423 reversed 7 unknown #
coedge $-1 $424 $336 $420 $425 forward $382 $-1 #
coedge $-1 $336 $424 $338 $386 reversed $382 $-1 #
loop $-1 $-1 $336 $426 #
vertex $-1 $379 $427 #
straight-curve $-1 -7.88765500000000408 53.50000000000000711 -56.88332000000001187 1 1.80866179995957079e-16 0 I I #
coedge $-1 $339 $338 $358 $400 reversed $340 $-1 #
edge $-1 $341 -1.0000000474974442 $428 1.000000047497451305 $381 $429 reversed 7 unknown #
face $430 $345 $340 $3 $-1 $431 forward single #
point $-1 -18.48325000000000529 53.50000000000000711 -56.88332000000000477 #
vertex $-1 $359 $432 #
straight-curve $-1 -18.48325000000000529 52.49999995250256291 -51.63723999999999847 0 1 0 I I #
fmesh-eye-attrib $-1 $-1 $-1 $345 #
plane-surface $-1 0.5462950000000041939 52.49999995250256291 -51.63724000000000558 3.733892406571465036e-16 0 1 1 0 -3.733892406571465036e-16 forward_v I I I I #
straight-curve $-1 19.57584000000001012 51.4999999050051116 -56.44730998417698231 0 0 1 I I #
point $-1 19.57584000000001012 51.4999999050051116 -51.63724000000001269 #
point $-1 19.57584000000001012 51.4999999050051116 -54.8636599367078901 #
fmesh-eye-attrib $-1 $-1 $-1 $356 #
face $433 $434 $407 $3 $-1 $435 forward single #
plane-surface $-1 1.159525000000002137 52.49999995250256291 -67.65110000000002799 0 0 -1 -1 0 0 forward_v I I I I #
coedge $-1 $436 $358 $424 $437 forward $277 $-1 #
edge $-1 $389 -5.314985000000014281 $428 -0.06890500000000798764 $358 $438 forward 7 unknown #
straight-curve $-1 0.8529100000000063853 51.4999999050051116 -51.63724000000000558 -1 0 3.733892406571465036e-16 I I #
point $-1 19.76675000000000537 51.49999990500512581 -57.6705000000000183 #
coedge $-1 $439 $440 $363 $404 reversed $441 $-1 #
edge $-1 $408 -10.59559500000000121 $422 -7.498765000000002345 $403 $442 reversed 7 unknown #
coedge $-1 $443 $364 $367 $411 forward $407 $-1 #
coedge $-1 $364 $443 $439 $444 reversed $407 $-1 #
loop $-1 $-1 $364 $397 #
vertex $-1 $365 $445 #
straight-curve $-1 -18.48325000000000529 53.5 -61.32988500000001153 -7.664143412362194587e-16 -1.386184341935129421e-31 -1 I I #
coedge $-1 $367 $366 $446 $447 reversed $368 $-1 #
edge $-1 $369 -1.0000000474974442 $448 1.000000047497451305 $367 $449 reversed 7 unknown #
point $-1 -18.48325000000001239 53.50000000000000711 -67.65110000000002799 #
coedge $-1 $374 $446 $371 $414 forward $277 $-1 #
edge $-1 $415 -6.984430000000010352 $376 4.939430000000001542 $413 $450 forward 7 unknown #
vertex $-1 $414 $451 #
straight-curve $-1 20.80230000000000956 52.49999995250256291 -67.65110000000002799 0 1 0 I I #
straight-curve $-1 14.85159009816996623 51.4999999050051116 -51.53720165088513738 -0.8176446047483336699 0 0.5757232845090959339 I I #
point $-1 20.80230000000000956 51.4999999050051116 -55.7272400000000161 #
coedge $-1 $452 $378 $440 $453 forward $421 $-1 #
coedge $-1 $378 $452 $380 $425 reversed $421 $-1 #
loop $-1 $-1 $378 $454 #
vertex $-1 $404 $455 #
straight-curve $-1 -15.38642000000000465 53.50000000000000711 -58.63794000000001461 0 0 -1 I I #
coedge $-1 $381 $380 $399 $437 reversed $382 $-1 #
edge $-1 $383 -1.0000000474974442 $456 1.000000047497451305 $420 $457 forward 7 unknown #
face $458 $387 $382 $3 $-1 $459 forward single #
point $-1 -15.3864200000000082 53.50000000000000711 -56.88332000000000477 #
vertex $-1 $437 $460 #
straight-curve $-1 -18.48325000000000529 52.49999995250256291 -56.88332000000000477 -0 1 0 I I #
fmesh-eye-attrib $-1 $-1 $-1 $387 #
plane-surface $-1 -18.48325000000000529 52.49999995250256291 -54.26028000000000162 -1 -0 -0 0 0 1 forward_v I I I I #
point $-1 -18.48325000000000529 51.4999999050051116 -51.63723999999999847 #
fmesh-eye-attrib $-1 $-1 $-1 $397 #
face $461 $454 $441 $3 $-1 $462 forward single #
plane-surface $-1 -18.48325000000000884 52.49999995250256291 -63.01560000000002049 -1 0 7.664143412362194587e-16 7.664143412362194587e-16 -0 1 forward_v I I I I #
coedge $-1 $463 $399 $452 $464 forward $277 $-1 #
edge $-1 $428 -10.59559500000000476 $456 -7.498765000000004122 $399 $465 forward 7 unknown #
straight-curve $-1 -18.48325000000000529 51.4999999050051116 -56.95222500000001276 0 0 -1 I I #
coedge $-1 $466 $403 $406 $444 forward $441 $-1 #
coedge $-1 $403 $466 $419 $453 reversed $441 $-1 #
loop $-1 $-1 $403 $434 #
straight-curve $-1 -7.88765500000000408 53.50000000000000711 -58.38010000000001298 -1 -1.80866179995957079e-16 0 I I #
coedge $-1 $406 $405 $467 $468 reversed $407 $-1 #
edge $-1 $408 -1.000000047497437095 $469 1.000000047497451305 $406 $470 reversed 7 unknown #
point $-1 -18.48325000000000529 53.5 -58.38010000000001298 #
coedge $-1 $413 $467 $410 $447 forward $277 $-1 #
edge $-1 $448 -19.64277500000001453 $415 19.64277500000000742 $446 $471 forward 7 unknown #
vertex $-1 $447 $472 #
straight-curve $-1 -18.48325000000001239 52.49999995250256291 -67.65110000000002799 0 1 0 I I #
straight-curve $-1 20.80230000000000956 51.4999999050051116 -60.66667000000001764 0 0 1 I I #
point $-1 20.80230000000000956 51.4999999050051116 -67.65110000000002799 #
coedge $-1 $420 $419 $436 $464 reversed $421 $-1 #
edge $-1 $422 -1.0000000474974442 $473 1.000000047497451305 $440 $474 forward 7 unknown #
face $475 $426 $421 $3 $-1 $476 forward single #
point $-1 -15.38642000000000643 53.50000000000000711 -58.38010000000001298 #
vertex $-1 $464 $477 #
straight-curve $-1 -15.3864200000000082 52.49999995250256291 -56.88332000000000477 0 -1 0 I I #
fmesh-eye-attrib $-1 $-1 $-1 $426 #
plane-surface $-1 -16.93483500000000674 52.49999995250256291 -56.88332000000000477 0 0 -1 -1 0 0 forward_v I I I I #
point $-1 -18.48325000000000529 51.4999999050051116 -56.88332000000000477 #
fmesh-eye-attrib $-1 $-1 $-1 $434 #
plane-surface $-1 -16.93483500000000674 52.49999995250256291 -58.38010000000001298 0 0 1 1 0 0 forward_v I I I I #
coedge $-1 $467 $436 $466 $478 forward $277 $-1 #
edge $-1 $456 -1.754620000000009838 $473 -0.2578400000000016234 $436 $479 forward 7 unknown #
straight-curve $-1 -7.887655000000000527 51.4999999050051116 -56.88332000000000477 1 0 0 I I #
coedge $-1 $440 $439 $463 $478 reversed $441 $-1 #
coedge $-1 $446 $463 $443 $468 forward $277 $-1 #
edge $-1 $469 -2.949784999999998547 $448 6.32121500000001646 $467 $480 forward 7 unknown #
vertex $-1 $468 $481 #
straight-curve $-1 -18.48325000000000529 52.49999995250256291 -58.38010000000001298 0 1 -0 I I #
straight-curve $-1 1.159525000000003914 51.4999999050051116 -67.65110000000002799 1 0 0 I I #
point $-1 -18.48325000000000884 51.4999999050051116 -67.65110000000002799 #
vertex $-1 $478 $482 #
straight-curve $-1 -15.38642000000000643 52.49999995250256291 -58.38010000000001298 0 -1 0 I I #
fmesh-eye-attrib $-1 $-1 $-1 $454 #
plane-surface $-1 -15.38642000000000643 52.49999995250256291 -57.63171000000001243 -1 -0 -0 0 0 1 forward_v I I I I #
point $-1 -15.38642000000000465 51.4999999050051116 -56.88332000000000477 #
edge $-1 $473 7.498765000000004122 $469 10.59559500000000121 $463 $483 forward 7 unknown #
straight-curve $-1 -15.38642000000000465 51.4999999050051116 -58.63794000000001461 0 0 -1 I I #
straight-curve $-1 -18.48325000000000529 51.4999999050051116 -61.32988500000001153 -7.664143412362194587e-16 -0 -1 I I #
point $-1 -18.48325000000000173 51.4999999050051116 -58.38010000000001298 #
point $-1 -15.38642000000000465 51.4999999050051116 -58.38010000000001298 #
straight-curve $-1 -7.887655000000000527 51.4999999050051116 -58.38010000000001298 -1 0 0 I I #
End-of-ACIS-data 