600 0 1 0           
86 GICL ACIS Healer - Source: /gicl/data5/repository/SDRC_I-DEAS/blender/Part22.sat - 6 0 18 ACIS 6.0.3 Solaris 24 Sat Apr 13 23:10:10 2002 
1 9.999999999999999547e-07 1.000000000000000036e-10 
body $-1 $1 $-1 $2 #
lump $-1 $-1 $3 $0 #
transform $-1 1 0 0 0 1 0 0 0 1 0 0 0 1 no_rotate no_reflect no_shear #
shell $-1 $-1 $-1 $4 $-1 $1 #
face $5 $6 $7 $3 $-1 $8 forward single #
fmesh-eye-attrib $-1 $-1 $-1 $4 #
face $9 $10 $11 $3 $-1 $12 forward single #
loop $-1 $-1 $13 $4 #
plane-surface $-1 3.659525880713466073 66.09978818589880234 -70.93145172215571392 1 2.829536431799584932e-09 1.029869489850779393e-09 1.029869489850779393e-09 0 -1 forward_v I I I I #
fmesh-eye-attrib $-1 $-1 $-1 $6 #
face $14 $15 $16 $3 $-1 $17 forward single #
loop $-1 $-1 $18 $6 #
plane-surface $-1 1.159525929064992411 68.36351395836166489 -69.84147658336270581 -3.011129748827581957e-09 0.9396923590810341009 0.3420208623530454073 0 -0.3420208623530454073 0.9396923590810341009 forward_v I I I I #
coedge $-1 $19 $20 $21 $22 reversed $7 $-1 #
fmesh-eye-attrib $-1 $-1 $-1 $10 #
face $23 $24 $25 $3 $-1 $26 forward single #
loop $-1 $-1 $27 $10 #
cone-surface $-1 -0.3404740298795518871 64.81721024924260632 -67.40760606389734733 1 2.829542256232524287e-09 1.029867497347186188e-09 1.957237841481751099e-08 -6.107999798742858921 -2.223135410466944961 1 I I 0 1 6.499999430362654707 forward I I I I #
coedge $-1 $28 $29 $30 $31 reversed $11 $-1 #
coedge $-1 $32 $13 $33 $34 forward $7 $-1 #
coedge $-1 $13 $32 $35 $36 forward $7 $-1 #
coedge $-1 $37 $38 $13 $22 forward $16 $-1 #
edge $-1 $39 -1.96558748300987296 $40 -1.176005170579917491 $13 $41 reversed 7 unknown #
fmesh-eye-attrib $-1 $-1 $-1 $15 #
face $42 $43 $44 $3 $-1 $45 forward single #
loop $-1 $-1 $46 $15 #
plane-surface $-1 1.159525944120645358 63.66505216295649916 -71.55158089512792685 3.011130720909360618e-09 -0.9396923590810331017 -0.3420208623530479608 0 0.3420208623530480163 -0.9396923590810332128 forward_v I I I I #
coedge $-1 $38 $37 $47 $48 forward $16 $-1 #
coedge $-1 $33 $18 $49 $50 reversed $11 $-1 #
coedge $-1 $18 $33 $38 $51 reversed $11 $-1 #
coedge $-1 $47 $52 $18 $31 forward $44 $-1 #
edge $-1 $53 -2.625051248448525332 $54 2.37500006565821753 $18 $55 reversed 7 unknown #
coedge $-1 $20 $19 $56 $57 reversed $7 $-1 #
coedge $-1 $29 $28 $19 $34 reversed $11 $-1 #
edge $-1 $39 -2.375000065658244175 $58 2.625051248448525332 $19 $59 forward 7 unknown #
coedge $-1 $60 $61 $20 $36 reversed $25 $-1 #
edge $-1 $62 -2.625055074313831227 $40 2.375000065658231296 $20 $63 forward 7 unknown #
coedge $-1 $27 $21 $61 $64 forward $16 $-1 #
coedge $-1 $21 $27 $29 $51 forward $16 $-1 #
vertex $-1 $22 $65 #
vertex $-1 $22 $66 #
ellipse-curve $-1 3.659525880713480284 64.81721026056077051 -67.40760605977787634 1 2.829536431799584932e-09 1.029869489850779393e-09 1.957237841481751099e-08 -6.107999798742858921 -2.223135410466944961 1 I I #
fmesh-eye-attrib $-1 $-1 $-1 $24 #
face $67 $68 $69 $3 $-1 $70 forward single #
loop $-1 $-1 $71 $24 #
plane-surface $-1 -1.340474007527826972 66.09978817175111487 -70.93145172730505976 -1 -2.829536431799591136e-09 -1.029869489850774843e-09 -1.029869489850774843e-09 0 1 forward_v I I I I #
coedge $-1 $61 $60 $71 $72 reversed $25 $-1 #
coedge $-1 $71 $30 $27 $48 reversed $44 $-1 #
edge $-1 $73 1.176005170579921932 $54 1.965587483009876069 $27 $74 forward 7 unknown #
coedge $-1 $75 $56 $28 $50 forward $76 $-1 #
edge $-1 $58 -2.499998412417172577 $53 2.500001475824120245 $28 $77 forward 7 unknown #
edge $-1 $54 -0.9999999776482375591 $39 3.999999910593055485 $29 $78 reversed 7 unknown #
coedge $-1 $30 $71 $75 $79 reversed $44 $-1 #
vertex $-1 $79 $80 #
vertex $-1 $48 $81 #
straight-curve $-1 -1.340474015055653556 68.40626653662545209 -69.95893806912395974 -6.203854594147707562e-25 -0.3420208623530454073 0.9396923590810341009 I I #
coedge $-1 $49 $82 $32 $57 forward $76 $-1 #
edge $-1 $62 -2.499960631665721245 $58 2.500039368335737588 $32 $83 forward 7 unknown #
vertex $-1 $50 $84 #
straight-curve $-1 3.659525873185639266 68.40626655077313956 -69.9589380639746139 -7.031035206700735236e-24 -0.3420208623530454073 0.9396923590810341009 I I #
coedge $-1 $46 $35 $82 $85 reversed $25 $-1 #
coedge $-1 $35 $46 $37 $64 reversed $25 $-1 #
vertex $-1 $85 $86 #
straight-curve $-1 3.659525888241292435 63.70780475536798804 -71.66904237573984915 -1.240770918829541696e-24 0.3420208623530480163 -0.9396923590810332128 I I #
edge $-1 $40 -3.999999910593055041 $73 0.999999977648237337 $37 $87 forward 7 unknown #
point $-1 3.659525873185641931 69.21856612131810493 -72.19070747849062286 #
point $-1 3.659525888241318636 64.52010432591295341 -73.9008117902558439 #
fmesh-eye-attrib $-1 $-1 $-1 $43 #
face $88 $89 $90 $3 $-1 $91 forward single #
loop $-1 $-1 $92 $43 #
plane-surface $-1 19.65953400000000784 65.07558309186543966 -68.1177135642076621 1 0 0 0 0 -1 forward_v I I I I #
coedge $-1 $52 $47 $46 $72 forward $44 $-1 #
edge $-1 $73 -2.375000065658231296 $93 2.625055074313831227 $46 $94 reversed 7 unknown #
vertex $-1 $48 $95 #
ellipse-curve $-1 -1.340474007527812539 64.81721024641306883 -67.40760606492720797 1 2.829536431799591136e-09 1.029869489850774843e-09 1.957237841481751099e-08 -6.107999798742858921 -2.223135410466944961 1 I I #
coedge $-1 $82 $49 $52 $79 forward $76 $-1 #
loop $-1 $-1 $75 $96 #
straight-curve $-1 1.159527460768466689 67.50844425198400245 -67.49219746618607019 -1 -2.829536405203033284e-09 -1.029867028266494843e-09 I I #
straight-curve $-1 -0.34047403740741361 69.21856610999995496 -72.19070748261007964 -1 -2.829542256232524287e-09 -1.029867497347186188e-09 I I #
edge $-1 $53 -2.500039368335732703 $93 2.499960631665707922 $52 $97 forward 7 unknown #
point $-1 -1.340474015055653556 67.50844424491015161 -67.49219746876075021 #
point $-1 -1.340474015055651114 69.21856610717041747 -72.19070748363994028 #
coedge $-1 $56 $75 $60 $85 forward $76 $-1 #
straight-curve $-1 3.659525880713584645 65.15917571295848632 -68.34726128668941669 -3.011130615732456513e-09 0.9396926207859085389 0.3420201433256683798 I I #
point $-1 3.659525873185639266 67.50844425905783908 -67.49219746361140437 #
edge $-1 $93 -2.500001475824118913 $62 2.49999841241717391 $60 $98 forward 7 unknown #
point $-1 3.659525888241292435 62.80998115512692692 -69.20229818024024837 #
straight-curve $-1 -0.3404740223517365716 64.52010431459481765 -73.90081179437531489 -1 -2.829542256232524287e-09 -1.029867497347186188e-09 I I #
fmesh-eye-attrib $-1 $-1 $-1 $68 #
face $99 $100 $101 $3 $-1 $102 forward single #
loop $-1 $-1 $103 $68 #
plane-surface $-1 1.159528999999999144 58.32391148138955828 -67.11047482431922617 0 -0.9396926207859083169 -0.342020143325669046 0 0.342020143325669046 -0.9396926207859083169 forward_v I I I I #
coedge $-1 $104 $105 $106 $107 reversed $69 $-1 #
vertex $-1 $79 $108 #
straight-curve $-1 -1.340474000000000609 63.70780474122031478 -71.66904238088918078 -7.651420666115507462e-24 0.3420208623530480163 -0.9396923590810332128 I I #
point $-1 -1.340473999999973964 64.52010431176528016 -73.90081179540517553 #
face $109 $-1 $110 $3 $-1 $111 forward single #
straight-curve $-1 -1.340474007527708622 65.15917569881079885 -68.34726129183874832 3.011130615732460649e-09 -0.9396926207859085389 -0.3420201433256683798 I I #
straight-curve $-1 1.159527475824118525 62.8099811480530974 -69.20229818281491418 1 2.829537318661107455e-09 1.029867360738044155e-09 I I #
fmesh-eye-attrib $-1 $-1 $-1 $89 #
face $112 $113 $114 $3 $-1 $115 forward single #
loop $-1 $-1 $116 $89 #
plane-surface $-1 -17.34047599999999889 65.07362953765669999 -68.11234621813150625 -1 0 -0 -0 0 1 forward_v I I I I #
coedge $-1 $117 $118 $119 $120 reversed $90 $-1 #
coedge $-1 $121 $92 $122 $123 forward $69 $-1 #
coedge $-1 $92 $121 $124 $125 reversed $69 $-1 #
coedge $-1 $126 $127 $92 $107 forward $128 $-1 #
edge $-1 $129 1.383556590391314289 $130 1.872145912754358488 $92 $131 reversed 7 unknown #
point $-1 -1.340474000000000609 62.80998114097925367 -69.20229818538958 #
fmesh-eye-attrib $-1 $-1 $-1 $96 #
loop $-1 $76 $132 $96 #
plane-surface $-1 1.159529000000002696 65.15913678689643973 -68.347275454617332 0 0.3420201433256683798 -0.9396926207859085389 -1 0 0 forward_v I I I I #
fmesh-eye-attrib $-1 $-1 $-1 $100 #
face $133 $134 $135 $3 $-1 $136 forward single #
loop $-1 $-1 $137 $100 #
plane-surface $-1 -14.09047600000000244 64.98812228841697447 -67.87741698164566628 0 -0.3420201433256687684 0.9396926207859084279 1 0 -0 forward_v I I I I #
coedge $-1 $138 $139 $140 $141 reversed $101 $-1 #
coedge $-1 $142 $103 $143 $144 forward $90 $-1 #
coedge $-1 $103 $145 $146 $147 forward $90 $-1 #
coedge $-1 $148 $149 $103 $120 forward $150 $-1 #
edge $-1 $151 -3.377849943352230433 $152 3.133555209093499272 $103 $153 reversed 7 unknown #
coedge $-1 $105 $104 $145 $154 reversed $69 $-1 #
coedge $-1 $155 $146 $104 $123 reversed $156 $-1 #
edge $-1 $129 -6.000000052154060626 $157 6.000000052154091712 $104 $158 forward 7 unknown #
coedge $-1 $159 $132 $105 $125 forward $110 $-1 #
edge $-1 $130 -6.000000052154060626 $160 6.0000000521540926 $105 $161 reversed 7 unknown #
coedge $-1 $140 $106 $132 $162 forward $128 $-1 #
coedge $-1 $106 $163 $155 $164 forward $128 $-1 #
loop $-1 $-1 $127 $165 #
vertex $-1 $107 $166 #
vertex $-1 $107 $167 #
straight-curve $-1 19.65953400000000784 70.15698094721386724 -64.53591287757581085 0 -0.3420201433256687129 0.9396926207859084279 I I #
coedge $-1 $124 $168 $126 $162 reversed $110 $-1 #
fmesh-eye-attrib $-1 $-1 $-1 $113 #
face $169 $170 $171 $3 $-1 $172 forward single #
loop $-1 $-1 $173 $113 #
plane-surface $-1 -10.84047600000000422 63.87655998088021647 -64.82342464137151694 -1 0 -0 -0 0 1 forward_v I I I I #
coedge $-1 $174 $175 $176 $177 reversed $114 $-1 #
coedge $-1 $178 $116 $168 $179 forward $101 $-1 #
coedge $-1 $116 $178 $174 $180 reversed $101 $-1 #
coedge $-1 $176 $126 $116 $141 forward $128 $-1 #
edge $-1 $181 -1.875001817950089578 $182 -1.37498887480417098 $116 $183 reversed 7 unknown #
coedge $-1 $184 $117 $185 $186 forward $90 $-1 #
coedge $-1 $187 $188 $117 $144 reversed $171 $-1 #
edge $-1 $151 -12.0000005000000094 $189 12.00000350000000537 $117 $190 forward 7 unknown #
coedge $-1 $118 $191 $121 $154 forward $90 $-1 #
coedge $-1 $122 $192 $118 $147 reversed $156 $-1 #
edge $-1 $157 -10.87500400000000411 $152 -4.37499800000000505 $118 $193 forward 7 unknown #
coedge $-1 $194 $119 $192 $195 forward $150 $-1 #
coedge $-1 $119 $194 $187 $196 forward $150 $-1 #
loop $-1 $-1 $194 $170 #
vertex $-1 $120 $197 #
vertex $-1 $120 $198 #
straight-curve $-1 13.15952800000000877 58.28213462137711787 -66.99569384477933909 0 -0.342020143325669046 0.9396926207859083169 I I #
edge $-1 $160 -1.872145912754358488 $157 -1.383556590391314289 $121 $199 reversed 7 unknown #
coedge $-1 $192 $122 $127 $164 reversed $156 $-1 #
loop $-1 $-1 $155 $200 #
vertex $-1 $154 $201 #
straight-curve $-1 19.65953400000000784 64.99202939683443958 -67.8881516737979922 0 -0.9396926207859086499 -0.3420201433256682133 I I #
coedge $-1 $168 $124 $191 $202 reversed $110 $-1 #
vertex $-1 $125 $203 #
straight-curve $-1 19.65953400000000784 65.15913678689643973 -68.347275454617332 -0 0.9396926207859085389 0.3420201433256683798 I I #
edge $-1 $130 -18.50000500000000869 $181 18.50000500000000159 $126 $204 forward 7 unknown #
coedge $-1 $127 $205 $194 $206 reversed $128 $-1 #
edge $-1 $207 4.37499800000000505 $129 10.87500400000000411 $155 $208 reversed 7 unknown #
face $209 $96 $128 $3 $-1 $210 forward single #
point $-1 19.65953400000000784 70.63018517055867562 -65.83603079600624142 #
point $-1 19.65953400000000784 70.79729256062067577 -66.29515457682558122 #
coedge $-1 $132 $159 $138 $179 reversed $110 $-1 #
fmesh-eye-attrib $-1 $-1 $-1 $134 #
face $211 $200 $150 $3 $-1 $212 forward single #
loop $-1 $-1 $213 $134 #
plane-surface $-1 1.159526000000001389 62.76499767334345847 -61.76943230109738181 0 -0.342020143325669157 0.9396926207859083169 1 0 -0 forward_v I I I I #
coedge $-1 $214 $215 $216 $217 reversed $135 $-1 #
coedge $-1 $218 $137 $139 $180 forward $114 $-1 #
coedge $-1 $137 $218 $214 $219 reversed $114 $-1 #
coedge $-1 $216 $140 $137 $177 forward $128 $-1 #
edge $-1 $182 -10.87500249999999724 $220 -4.37500250000000257 $137 $221 reversed 7 unknown #
coedge $-1 $139 $138 $222 $223 reversed $101 $-1 #
edge $-1 $181 -6.000000052154060626 $224 6.0000000521540926 $138 $225 forward 7 unknown #
edge $-1 $182 -6.000000052154073948 $226 6.000000052154078389 $139 $227 reversed 7 unknown #
vertex $-1 $141 $228 #
vertex $-1 $141 $229 #
straight-curve $-1 -17.34047599999999889 70.15600417010949741 -64.53322920453771872 0 0.3420201433256687129 -0.9396926207859084279 I I #
coedge $-1 $222 $142 $218 $230 forward $90 $-1 #
coedge $-1 $215 $214 $142 $186 reversed $135 $-1 #
edge $-1 $189 -3.374994038156502008 $231 3.124987493506366398 $142 $232 forward 7 unknown #
coedge $-1 $213 $143 $149 $196 reversed $171 $-1 #
coedge $-1 $143 $213 $215 $233 forward $171 $-1 #
vertex $-1 $186 $234 #
straight-curve $-1 1.159527500000000266 57.12684189961919401 -63.82155317888914681 -1 -0 0 I I #
coedge $-1 $145 $222 $159 $202 forward $90 $-1 #
coedge $-1 $146 $155 $148 $195 reversed $156 $-1 #
straight-curve $-1 8.784530000000003724 59.35387362311017512 -69.94027255158974299 -1 -0 0 I I #
coedge $-1 $149 $148 $163 $206 forward $150 $-1 #
edge $-1 $152 -6.000000052154073948 $207 6.000000052154091712 $148 $235 reversed 7 unknown #
edge $-1 $236 -6.000000052154069508 $151 6.000000052154085495 $187 $237 reversed 7 unknown #
point $-1 13.15952800000000877 57.12684189961919401 -63.82155317888914681 #
point $-1 13.15952800000000877 59.35387362311017512 -69.94027255158974299 #
straight-curve $-1 19.65953400000000784 58.88066939976536673 -68.64015463315932664 0 0.342020143325669046 -0.9396926207859083169 I I #
face $238 $165 $156 $3 $-1 $239 forward single #
point $-1 19.65953400000000784 59.35387362311017512 -69.9402725515897572 #
edge $-1 $224 -18.50000500000000159 $160 18.50000500000000869 $191 $240 forward 7 unknown #
point $-1 19.65953400000000784 59.52098101317217527 -70.399396332409097 #
straight-curve $-1 1.15952900000000092 70.79729256062068998 -66.29515457682558122 -1 0 0 I I #
coedge $-1 $163 $216 $213 $241 forward $128 $-1 #
edge $-1 $207 -3.13355520909350771 $236 3.377849943352232653 $194 $242 forward 7 unknown #
vertex $-1 $206 $243 #
straight-curve $-1 8.784530000000003724 70.63018517055867562 -65.83603079600624142 -1 0 0 I I #
fmesh-eye-attrib $-1 $-1 $-1 $165 #
plane-surface $-1 1.159528999999999144 69.60022302883805878 -63.00623306873571039 0 0.9396926207859084279 0.3420201433256687129 0 -0.3420201433256687129 0.9396926207859084279 forward_v I I I I #
fmesh-eye-attrib $-1 $-1 $-1 $170 #
plane-surface $-1 13.159528000000007 63.87851353508894192 -64.82879198744768701 1 0 0 0 0 -1 forward_v I I I I #
coedge $-1 $188 $187 $205 $241 reversed $171 $-1 #
coedge $-1 $185 $173 $175 $219 forward $135 $-1 #
coedge $-1 $173 $185 $188 $233 reversed $135 $-1 #
coedge $-1 $205 $176 $173 $217 forward $128 $-1 #
edge $-1 $220 -3.124987493506359293 $244 3.374994038156508225 $173 $245 reversed 7 unknown #
coedge $-1 $175 $174 $184 $230 reversed $114 $-1 #
edge $-1 $220 -6.000000052154073948 $231 6.000000052154078389 $175 $246 forward 7 unknown #
vertex $-1 $177 $247 #
straight-curve $-1 -6.46547350000000165 70.62627806214122472 -65.8252961038539155 -1 0 0 I I #
coedge $-1 $191 $184 $178 $223 forward $90 $-1 #
edge $-1 $226 1.374988874804154992 $224 1.87500181795007359 $222 $248 forward 7 unknown #
vertex $-1 $202 $249 #
straight-curve $-1 -17.34047599999999889 65.15913678689643973 -68.347275454617332 0 -0.9396926207859085389 -0.3420201433256683798 I I #
vertex $-1 $223 $250 #
straight-curve $-1 -17.34047599999999889 64.98812228841697447 -67.87741698164566628 0 0.9396926207859084279 0.3420201433256687684 I I #
point $-1 -17.34047599999999889 70.79729256062067577 -66.29515457682558122 #
point $-1 -17.34047599999999889 70.62627806214122472 -65.8252961038539155 #
edge $-1 $231 4.375002500000004346 $226 10.87500250000000079 $184 $251 forward 7 unknown #
vertex $-1 $230 $252 #
straight-curve $-1 -10.840476000000006 58.28115784427275514 -66.99301017174124695 0 0.342020143325669046 -0.9396926207859083169 I I #
edge $-1 $244 -6.000000052154060626 $189 6.000000052154091712 $215 $253 reversed 7 unknown #
point $-1 -10.840476000000006 57.12684189961919401 -63.82155317888914681 #
straight-curve $-1 13.15952800000000877 64.99202939683442537 -67.8881516737979922 0 -0.9396926207859086499 -0.3420201433256682133 I I #
vertex $-1 $241 $254 #
straight-curve $-1 13.15952800000000877 62.76499767334345137 -61.76943230109738181 -0 0.9396926207859083169 0.342020143325669157 I I #
fmesh-eye-attrib $-1 $-1 $-1 $200 #
plane-surface $-1 16.40953100000000831 64.99202939683442537 -67.8881516737979922 0 -0.3420201433256681578 0.9396926207859085389 1 0 -0 forward_v I I I I #
straight-curve $-1 1.15952900000000092 59.52098101317217527 -70.399396332409097 1 0 0 I I #
edge $-1 $244 -12.00000350000000537 $236 12.0000005000000094 $213 $255 reversed 7 unknown #
straight-curve $-1 13.159528000000007 69.55844616882562548 -62.8914520891958162 0 -0.3420201433256687129 0.9396926207859084279 I I #
point $-1 13.15952800000000877 70.63018517055868983 -65.83603079600622721 #
vertex $-1 $217 $256 #
straight-curve $-1 -10.84047600000000422 69.55746939172125565 -62.88876841615773827 0 0.3420201433256687129 -0.9396926207859084279 I I #
straight-curve $-1 -10.84047600000000422 64.98812228841697447 -67.87741698164566628 0 -0.9396926207859084279 -0.3420201433256687684 I I #
point $-1 -10.84047600000000422 70.62627806214122472 -65.8252961038539155 #
straight-curve $-1 -17.34047600000000244 58.87969262266100401 -68.63747096012124871 0 0.342020143325669046 -0.9396926207859083169 I I #
point $-1 -17.34047600000000244 59.52098101317217527 -70.399396332409097 #
point $-1 -17.34047600000000244 59.34996651469272422 -69.92953785943743128 #
straight-curve $-1 -6.46547350000000165 59.34996651469272422 -69.92953785943743128 -1 -0 0 I I #
point $-1 -10.840476000000006 59.34996651469272422 -69.92953785943743128 #
straight-curve $-1 -10.84047600000000422 62.76499767334345847 -61.76943230109738181 0 0.9396926207859083169 0.342020143325669157 I I #
point $-1 13.15952800000000877 68.40315344706769451 -59.71731142330562392 #
straight-curve $-1 1.159527500000000266 68.40315344706769451 -59.71731142330563102 -1 0 0 I I #
point $-1 -10.84047600000000422 68.40315344706769451 -59.71731142330563102 #
End-of-ACIS-data 