  0
SECTION
  2
HEADER
  9
$ACADVER
  1
AC1009
  9
$INSBASE
 10
0.0
 20
0.0
 30
0.0
  9
$EXTMIN
 10
0.0
 20
0.0
 30
0.0
  9
$EXTMAX
 10
4.0
 20
4.0
 30
4.0
  9
$LIMMIN
 10
0.0
 20
0.0
  9
$LIMMAX
 10
12.0
 20
9.0
  9
$ORTHOMODE
 70
     0
  9
$REGENMODE
 70
     1
  9
$FILLMODE
 70
     1
  9
$QTEXTMODE
 70
     0
  9
$MIRRTEXT
 70
     1
  9
$DRAGMODE
 70
     2
  9
$LTSCALE
 40
1.0
  9
$OSMODE
 70
     0
  9
$ATTMODE
 70
     1
  9
$TEXTSIZE
 40
0.2
  9
$TRACEWID
 40
0.05
  9
$TEXTSTYLE
  7
STANDARD
  9
$CLAYER
  8
0
  9
$CELTYPE
  6
BYLAYER
  9
$CECOLOR
 62
   256
  9
$DIMSCALE
 40
1.0
  9
$DIMASZ
 40
0.18
  9
$DIMEXO
 40
0.0625
  9
$DIMDLI
 40
0.38
  9
$DIMRND
 40
0.0
  9
$DIMDLE
 40
0.0
  9
$DIMEXE
 40
0.18
  9
$DIMTP
 40
0.0
  9
$DIMTM
 40
0.0
  9
$DIMTXT
 40
0.18
  9
$DIMCEN
 40
0.09
  9
$DIMTSZ
 40
0.0
  9
$DIMTOL
 70
     0
  9
$DIMLIM
 70
     0
  9
$DIMTIH
 70
     1
  9
$DIMTOH
 70
     1
  9
$DIMSE1
 70
     0
  9
$DIMSE2
 70
     0
  9
$DIMTAD
 70
     0
  9
$DIMZIN
 70
     0
  9
$DIMBLK
  1

  9
$DIMASO
 70
     1
  9
$DIMSHO
 70
     1
  9
$DIMPOST
  1

  9
$DIMAPOST
  1

  9
$DIMALT
 70
     0
  9
$DIMALTD
 70
     2
  9
$DIMALTF
 40
25.4
  9
$DIMLFAC
 40
1.0
  9
$DIMTOFL
 70
     0
  9
$DIMTVP
 40
0.0
  9
$DIMTIX
 70
     0
  9
$DIMSOXD
 70
     0
  9
$DIMSAH
 70
     0
  9
$DIMBLK1
  1

  9
$DIMBLK2
  1

  9
$DIMSTYLE
  2
*UNNAMED
  9
$DIMCLRD
 70
     0
  9
$DIMCLRE
 70
     0
  9
$DIMCLRT
 70
     0
  9
$DIMTFAC
 40
1.0
  9
$DIMGAP
 40
0.09
  9
$LUNITS
 70
     2
  9
$LUPREC
 70
     4
  9
$SKETCHINC
 40
0.1
  9
$FILLETRAD
 40
0.0
  9
$AUNITS
 70
     0
  9
$AUPREC
 70
     0
  9
$MENU
  1
acad
  9
$ELEVATION
 40
0.0
  9
$PELEVATION
 40
0.0
  9
$THICKNESS
 40
0.0
  9
$LIMCHECK
 70
     0
  9
$BLIPMODE
 70
     1
  9
$CHAMFERA
 40
0.0
  9
$CHAMFERB
 40
0.0
  9
$SKPOLY
 70
     0
  9
$TDCREATE
 40
2449373.536160937
  9
$TDUPDATE
 40
2449373.536160937
  9
$TDINDWG
 40
0.0000000000
  9
$TDUSRTIMER
 40
0.0000000000
  9
$USRTIMER
 70
     1
  9
$ANGBASE
 50
0.0
  9
$ANGDIR
 70
     0
  9
$PDMODE
 70
     0
  9
$PDSIZE
 40
0.0
  9
$PLINEWID
 40
0.0
  9
$COORDS
 70
     1
  9
$SPLFRAME
 70
     0
  9
$SPLINETYPE
 70
     6
  9
$SPLINESEGS
 70
     8
  9
$ATTDIA
 70
     0
  9
$ATTREQ
 70
     1
  9
$HANDLING
 70
     1
  9
$HANDSEED
  5
53
  9
$SURFTAB1
 70
     6
  9
$SURFTAB2
 70
     6
  9
$SURFTYPE
 70
     6
  9
$SURFU
 70
     6
  9
$SURFV
 70
     6
  9
$UCSNAME
  2

  9
$UCSORG
 10
0.0
 20
0.0
 30
0.0
  9
$UCSXDIR
 10
1.0
 20
0.0
 30
0.0
  9
$UCSYDIR
 10
0.0
 20
1.0
 30
0.0
  9
$PUCSNAME
  2

  9
$PUCSORG
 10
0.0
 20
0.0
 30
0.0
  9
$PUCSXDIR
 10
1.0
 20
0.0
 30
0.0
  9
$PUCSYDIR
 10
0.0
 20
1.0
 30
0.0
  9
$USERI1
 70
     0
  9
$USERI2
 70
     0
  9
$USERI3
 70
     0
  9
$USERI4
 70
     0
  9
$USERI5
 70
     0
  9
$USERR1
 40
0.0
  9
$USERR2
 40
0.0
  9
$USERR3
 40
0.0
  9
$USERR4
 40
0.0
  9
$USERR5
 40
0.0
  9
$WORLDVIEW
 70
     1
  9
$SHADEDGE
 70
     3
  9
$SHADEDIF
 70
    70
  9
$TILEMODE
 70
     1
  9
$MAXACTVP
 70
    16
  9
$PINSBASE
 10
0.0
 20
0.0
 30
0.0
  9
$PLIMCHECK
 70
     0
  9
$PEXTMIN
 10
1.000000E+20
 20
1.000000E+20
 30
1.000000E+20
  9
$PEXTMAX
 10
-1.000000E+20
 20
-1.000000E+20
 30
-1.000000E+20
  9
$PLIMMIN
 10
0.0
 20
0.0
  9
$PLIMMAX
 10
12.0
 20
9.0
  9
$UNITMODE
 70
     0
  9
$VISRETAIN
 70
     0
  9
$PLINEGEN
 70
     0
  9
$PSLTSCALE
 70
     1
  9
$TREEDEPTH
 70
  3020
  9
$DWGCODEPAGE
  3
ascii
  0
ENDSEC
  0
SECTION
  2
TABLES
  0
TABLE
  2
VPORT
 70
     2
  0
VPORT
  2
*ACTIVE
 70
     0
 10
0.0
 20
0.0
 11
1.0
 21
1.0
 12
7.896686
 22
4.951264
 13
0.0
 23
0.0
 14
1.0
 24
1.0
 15
0.0
 25
0.0
 16
0.0
 26
0.0
 36
1.0
 17
0.0
 27
0.0
 37
0.0
 40
9.902529
 41
1.594883
 42
50.0
 43
0.0
 44
0.0
 50
0.0
 51
0.0
 71
     0
 72
   100
 73
     1
 74
     1
 75
     0
 76
     0
 77
     0
 78
     0
  0
ENDTAB
  0
TABLE
  2
LTYPE
 70
     1
  0
LTYPE
  2
CONTINUOUS
 70
    64
  3
Solid line
 72
    65
 73
     0
 40
0.0
  0
ENDTAB
  0
TABLE
  2
LAYER
 70
     2
  0
LAYER
  2
0
 70
    64
 62
     7
  6
CONTINUOUS
  0
LAYER
  2
AME_FRZ
 70
    65
 62
     7
  6
CONTINUOUS
  0
ENDTAB
  0
TABLE
  2
STYLE
 70
     1
  0
STYLE
  2
STANDARD
 70
     0
 40
0.0
 41
1.0
 50
0.0
 71
     0
 42
0.2
  3
txt
  4

  0
ENDTAB
  0
TABLE
  2
VIEW
 70
     0
  0
ENDTAB
  0
TABLE
  2
UCS
 70
     0
  0
ENDTAB
  0
TABLE
  2
APPID
 70
     3
  0
APPID
  2
ACAD
 70
    64
  0
APPID
  2
AME_SOL
 70
    64
  0
APPID
  2
AVE_INVOKE
 70
    64
  0
ENDTAB
  0
TABLE
  2
DIMSTYLE
 70
     0
  0
ENDTAB
  0
ENDSEC
  0
SECTION
  2
BLOCKS
  0
BLOCK
  8
0
  5
1
  2
AME_NIL
 70
    64
 10
0.0
 20
0.0
 30
0.0
  1
AME_NIL
  3
AME_NIL
  0
ENDBLK
  8
0
  5
2
  0
BLOCK
  8
0
  5
4
  2
AME_SOL
 70
    64
 10
0.0
 20
0.0
 30
0.0
  1
AME_SOL
  3
AME_SOL
  0
ENDBLK
  8
0
  5
5
  0
BLOCK
  8
0
  5
36
  2
*U4
 70
    65
 10
0.0
 20
0.0
 30
0.0
  1
*U
  3
*U
  0
LINE
  8
0
 62
     7
  5
37
 10
4.0
 20
2.0
 30
0.0
 11
4.0
 21
2.0
 31
4.0
1001
AME_SOL
1070
     1
1071
       26
  0
LINE
  8
0
 62
     7
  5
38
 10
4.0
 20
2.0
 30
4.0
 11
4.0
 21
0.0
 31
4.0
1001
AME_SOL
1070
     1
1071
       25
  0
LINE
  8
0
 62
     7
  5
39
 10
3.0
 20
2.0
 30
4.0
 11
4.0
 21
2.0
 31
4.0
1001
AME_SOL
1070
     1
1071
       24
  0
LINE
  8
0
 62
     7
  5
3A
 10
0.0
 20
2.0
 30
4.0
 11
1.0
 21
2.0
 31
4.0
1001
AME_SOL
1070
     1
1071
       23
  0
LINE
  8
0
 62
     7
  5
3B
 10
0.0
 20
2.0
 30
0.0
 11
0.0
 21
2.0
 31
4.0
1001
AME_SOL
1070
     1
1071
       22
  0
LINE
  8
0
 62
     7
  5
3C
 10
0.0
 20
2.0
 30
4.0
 11
0.0
 21
0.0
 31
4.0
1001
AME_SOL
1070
     1
1071
       21
  0
LINE
  8
0
 62
     7
  5
3D
 10
0.0
 20
0.0
 30
0.0
 11
0.0
 21
0.0
 31
4.0
1001
AME_SOL
1070
     1
1071
       20
  0
LINE
  8
0
 62
     7
  5
3E
 10
4.0
 20
0.0
 30
4.0
 11
4.0
 21
0.0
 31
0.0
1001
AME_SOL
1070
     1
1071
       19
  0
LINE
  8
0
 62
     7
  5
3F
 10
0.0
 20
0.0
 30
4.0
 11
4.0
 21
0.0
 31
4.0
1001
AME_SOL
1070
     1
1071
       18
  0
LINE
  8
0
 62
     7
  5
40
 10
0.0
 20
0.0
 30
0.0
 11
4.0
 21
0.0
 31
0.0
1001
AME_SOL
1070
     1
1071
       17
  0
LINE
  8
0
 62
     7
  5
41
 10
0.0
 20
2.0
 30
0.0
 11
0.0
 21
0.0
 31
0.0
1001
AME_SOL
1070
     1
1071
       16
  0
LINE
  8
0
 62
     7
  5
42
 10
4.0
 20
0.0
 30
0.0
 11
4.0
 21
2.0
 31
0.0
1001
AME_SOL
1070
     1
1071
       15
  0
LINE
  8
0
 62
     7
  5
43
 10
4.0
 20
2.0
 30
0.0
 11
0.0
 21
2.0
 31
0.0
1001
AME_SOL
1070
     1
1071
       14
  0
LINE
  8
0
 62
     7
  5
44
 10
3.0
 20
2.0
 30
2.0
 11
1.0
 21
2.0
 31
2.0
1001
AME_SOL
1070
     1
1071
       13
  0
LINE
  8
0
 62
     7
  5
45
 10
3.0
 20
2.0
 30
2.0
 11
3.0
 21
2.0
 31
4.0
1001
AME_SOL
1070
     1
1071
       12
  0
LINE
  8
0
 62
     7
  5
46
 10
1.0
 20
2.0
 30
2.0
 11
1.0
 21
2.0
 31
4.0
1001
AME_SOL
1070
     1
1071
       11
  0
ARC
  8
0
 62
     7
  5
47
 10
2.0
 20
2.0
 30
4.0
 40
1.0
 50
180.0
 51
0.0
1001
AME_SOL
1070
     1
1071
       10
  0
ARC
  8
0
 62
     7
  5
48
 10
2.0
 20
2.0
 30
2.0
 40
1.0
 50
180.0
 51
0.0
1001
AME_SOL
1070
     1
1071
        9
  0
LINE
  8
0
 62
     7
  5
49
 10
3.0
 20
2.0
 30
2.0
 11
3.0
 21
2.0
 31
4.0
1001
AME_SOL
1070
     0
1071
        1
  0
LINE
  8
0
 62
     7
  5
4A
 10
2.0
 20
1.0
 30
2.0
 11
2.0
 21
1.0
 31
4.0
1001
AME_SOL
1070
     0
1071
        1
  0
LINE
  8
0
 62
     7
  5
4B
 10
1.0
 20
2.0
 30
2.0
 11
1.0
 21
2.0
 31
4.0
1001
AME_SOL
1070
     0
1071
        1
  0
ENDBLK
  8
0
  5
4C
  0
BLOCK
  8
0
  5
50
  2
AME_JNK
 70
     0
 10
0.0
 20
0.0
 30
0.0
  1
AME_JNK
  3
AME_JNK
  0
ENDBLK
  8
0
  5
51
  0
ENDSEC
  0
SECTION
  2
ENTITIES
  0
INSERT
  8
AME_FRZ
  5
3
  2
AME_NIL
 10
0.0
 20
0.0
 30
0.0
  0
INSERT
  8
AME_FRZ
  5
6
  2
AME_SOL
 10
0.0
 20
0.0
 30
0.0
1001
AME_SOL
1000
R2.1
1000
AME2
1000
sq cm
1070
     3
1070
     0
1070
     3
1000
wire
1040
45.0
1000
U
1040
1.0
1000
cm
1000
gm
1000
MILD_STEEL
1070
    25
1000
CSG
1070
     1
1070
     3
1070
     3
1070
     3
1070
     0
1000
cu cm
1070
     1
1070
     0
1005
3
  0
INSERT
  8
AME_FRZ
  5
26
  2
AME_NIL
 10
0.0
 20
0.0
 30
0.0
1001
AME_SOL
1002
{
1070
     1
1071
  2403536
1070
  1536
1070
     1
1010
4.0
1020
2.0
1030
4.0
1005
0
1005
0
1005
4D
1040
0.0
1040
1.0
1070
     0
1000
MILD_STEEL
1000
0
1010
0.0
1020
0.0
1030
0.0
1010
0.0
1020
0.0
1030
1.0
1040
0.0
1002
}
1001
AVE_INVOKE
1000
SOLAVEMESH
  0
INSERT
  8
AME_FRZ
  5
32
  2
AME_NIL
 10
2.0
 20
2.0
 30
2.0
1001
AME_SOL
1002
{
1070
     1
1071
  2408120
1070
  1538
1070
     1
1010
1.0
1020
1.0
1030
2.0
1005
0
1005
0
1005
4D
1040
0.0
1040
1.0
1070
     0
1000
MILD_STEEL
1000
0
1010
2.0
1020
2.0
1030
2.0
1010
0.0
1020
0.0
1030
1.0
1040
0.0
1002
}
1001
AVE_INVOKE
1000
SOLAVEMESH
  0
INSERT
  8
0
  5
4D
  2
*U4
 10
0.0
 20
0.0
 30
0.0
1001
AME_SOL
1002
{
1070
     1
1071
  2439544
1070
  1543
1070
     1
1070
     0
1005
26
1005
32
1005
0
1005
4E
1005
0
1040
0.0
1040
1.0
1070
     0
1000
MILD_STEEL
1000
0
1002
}
1001
AVE_INVOKE
1000
SOLAVEMESH
  0
INSERT
  8
AME_FRZ
  5
4E
  2
AME_NIL
 10
1.0
 20
1.0
 30
1.0
1001
AME_SOL
1004
C7CF0100D7006B016A01680164015C015001740018005101FE00430132011F0104002E00D90033015C0082005D01520144013401E7002001DF00F2000C002800530145017F0035015800210116010900210017014D003500460136012201180144000E017800520019010F0101010001F8000201F7002B00
1004
100103012C002F0004013000310023011A01110105013200E80006018800340012010701E000CB0008019800CA001B0113010901C8005B000A01B800590014010B01A90057000C0156005500500065015E0154010A00A00002005F0155014701060037012900A400480196003801EE0024011A001B003F00
1004
6901660160015601490139012501EA002400260126002A003A010800270148001C01540090004A0175003B0114008400570110004B01A8003C015F0028011500EF0061015801BF00250059014C013D012901CE00D0002A01D7001D0115010D01510053000300FC003E014E00EB004D013F012B01B0000F00
1004
2C01F500F30040012D01ED00AF002E011E0119002D00FB006701620140005A014E0105004101C0002F0127007000F00063015B014F018000420130017900BC003101D800E4000100FF000000402CD402CD1DC5FBB59DEF7E38C7290AEF28A484F04050A29213C101428A484F0405084CF398689313C3DE30
1004
49084C2133CE61A24C77AFC4618AE142D60B24F9D70A16B05927CE1A9CEC416DE74F0F78C12421313C3DE3049084C2133CE61A24C76805A62DA06F7EEC757A016BFDB3FFFFFFFED9FFFFB3FB3FB1A7F6CFFB67FFFFFF402D7FB67FFFFFFFDB3FFFF67F67F634FED9FF6CFFFFFFB6A0DC8059BCD22FF6CFFF
1004
FFFFFB67FFFDB3A5FB3FB0B0E72B9DC81ED71A1107395CEE40F6B8D277F9787395CEE40F6B8D08BFB57F607395CEE40F6B8D2717FF6AFF2C32EE1977FFFEC2C32EE37BDEF77FFFF60DC802F348BFDB3FFFFFFFED9FFDB7BDEF7BCFFB67FEC2C39CAE77207B5C68441CE573B903DAE349DEEFFED5FDC17873
1004
95CEE40F6B8D08BFB57F607395CEE40F6B8D273BFFB8FEC2C6F7BDE37BDEF77FF71FD837201DE6917FB67FFFFFFFDB3FFBBF4267F67F6161CE573B903DAE34220E72B9DC81ED71A4EFF2F0E72B9DC81ED71A117F6AFEC0E72B9DC81ED71A4E2FFED5FE5865DC32EFFFFD858DEF7BC32EEEFFFFEC1B901E69
1004
17FB67FFFFFFFDB3FFB6F7BDEF79DDFA133FB0B0E72B9DC81ED71A1107395CEE40F6B8D273BFD7E232D70A16B05927CEB850B582C93E70D4E7620B6F3A787BC609210989E1EF18248426230F78C12458ED1D690F5F15BDFBB1D7E8EB5FED9FFFFFFB8FDB53FB8FECFECFEC69FFFFFFFFFF475AFF6CFFFFFF
1004
DC7EDA9FDC7F67F67F634FFFFFFFFFEDA8BF11862514909E080A145242782028514909E080A1099E730D126230F78C12458514909E0807768EB498DCADDEEC741DD1D6BFFFDB3FFFED9FFFFFFFFFFDA7FFFFFFFFFD1D6BFFFDB3FFFED9FFFFFFFFFFDA7FFFFFFFFF6CEBF11862514909E080A14524278202
1004
8514909E080A1099E730D12614524278201C84CF39868931DA3AD2C4DEADDEEC73DDD1D6BFDB3FFFFFFFFFED9FFFFFFDA7FFFFFFFFFD1D6BFDB3FFFFFFFFFED9FFFFFFDA7FFFFFFFFF6CEBF11862514909E080A145242782028514909E080A14524278201D187BC60922C2133CE61A24C768EB44A095BBDD
1004
8E73BA3AD7FFFFFB67FFFDB3FFFFFFFFB4FFFFFFFFFFA3AD7FFFFFB67FFFDB3FFFFFFFFB4FFFFFFFFFED9D7E233128A484F04050A29213C10145E2F6E176BA5CB084CF39868931187BC60922C2133CE61A24C768EB4E66B2B77BB1CD77475AFF6D4FEE3FB8FEE3F6D4FEE3F499FD9FA4C69FFFFFFFFFF475
1004
AFF6D4FEE3FB8FEE3F6D4FEE3F499FD9FA4C69FFFFFFFFFDB3AFC468528A484F040503539D882DBCE514909E080A1099E730D126230F78C1245842679CC34498ED1D6923256EF761977475AFFB8FEE3F6D4FDB53FB8FEE3F499FD9FA4C69FFFFFFFFFF475AFFB8FEE3F6D4FDB53FB8FEE3F499FD9FA4C69F
1004
FFFFFFFFDB3AFC4618AF17B70BB5D2E58514909E080A14524278202842679CC344988C3DE3049161099E730D1263B475A4320D5BBDDAFAEE8EB5FF71FB6A7F71FDC7F71FB6A7E933FB3F498D3FFFFFFFFFE8EB5FF71FB6A7F71FDC7F71FB6A7E933FB3F498D3FFFFFFFFFB6733365C285AC1649F3AE142D6
1004
0B24F9C3539D882DBCE9E1EF182484262787BC609210988C3DE3049160ABE8E0872FC6D1B1ABFB82D6744E074D5EF7BB62DA0687AF8AF2D8B681A1EBE2B7BDEF7BDEF59D17FB67FFFFFFFDB3FFFF67F67F6063FB67FDB38ABE8E0872FC6D1B1ABFB833365C285AC1649F3AE142D60B24F9D78BDB85DAE972
1004
C4F0F78C1242131187BC60922C2133CE61A24C157D1C10E5F8DA36357F705ACE8970396AF76F7B16D03733595E5B99ACAD8B681BBDEF7BD6745FED9FFFFFFFF6CFFFFD9FD9FA4C0C7F6CFFB67157D1C10E5F8DA36357F70666CB850B582C93E70D4E7620B6F386A73B105B79D3C3DE3049084C461EF18248
1004
B084CF39868933FFFB0B348962398AF76F7B16D0348C95E5A464AD8B681BBDEF7BCD22FF6CFFFFFFFFB67FFFDB3FF67F617FFFD8666CB850B582C93E70D4E7620B6F386A73B105B79D3C3DE3049084C461EF18248B084CF39868933FFFB0B34887517D57BDEED8B681A464AF2D8B681A464ADEF7BDDE6917
1004
FB67FFFFFFFDB3FFBBF4267F67F617FFFD8666CB850B582C93E70D4E7620B6F386A73B105B79D3C3DE3049084C461EF18248B1187BC60922CFF77F6166910E21EAF76F7A1EBE2B48C95E5A464AD0F5F15BBDEF7BCD22FFFF6CFFFFFFFFB6A3BF4267F67F617FEEFEC333628A484F040503539D882DBCE514
1004
909E080A1099E730D126230F78C12458514909E0807FED5FD859A443896615EF7BB4C6E569192BCB4C6E569192B77BBCD22FFFF6CFFFFFFFFB6A7F67F67F97FDABFB0CCD978BDB85DAE972C28A484F04050A29213C10142133CE61A24C461EF18248B0A29213C100FFB6A7ED9CB348874871ABDEF7698DCA
1004
D0C83579698DCAD0C8356EF779A45FED9FFFFFFFFFF6D4FD267ED9FFCBFDB53F6CE666C514909E080A145242782028514909E080A14524278201D187BC60922C28A484F0403FF6AFEE0B34887596655EF7BB4C6E564A095E5A6372B2504ADDEEF348BFDB53FFFFFFFFF6D4FFFFFF2FFB57F70666C514909E
1004
080A145242782028514909E080A1099E730D12614524278201CA29213C100FFFFA4C2CD224C872BDEF7698DCAD626F579698DCAD626F56EF779A45FFFEDA9FFFFFFFB6A7FFFFF97FFFA4C333628A484F04050A29213C10145E2F6E176BA5CB084CF39868930A29213C100E42679CC34499FDABFB0B348876
1004
877D5EF7BB589BD5B99ACAF2D626F56E66B2B77BBCD22FFFFFF6CFFFFB6A7FFF67FFE930BFED5FD8666CBC5EDC2ED74B96145242782028514909E080A1099E730D12614524278201C84CF39868933FB57F6166910EC0EF2BDEF76B137AB4320D5E5AC4DEAD0C8356EF779A45FED9FFFFFFFF6D4FFFD267FF
1004
F617FDABFB0CCD8A29213C101428A484F04050A29213C101428A484F040394524278201C84CF39868933FFF49859A44E61DD57BDEED626F564A095E5AC4DEAC9412B77BBCD22FF6D4FFFFFFFDB53FFFFFFFCBFFFD26199B145242782028514909E080A2F17B70BB5D2E58514909E0807461EF18248B084CF
1004
39868933F6D4FDB3966910E88D2BDEF764A095B99ACAF2C9412B733595BBDDE6917FFFFFB67FDB53FFFFFFF6CFFA4C2FF6D4FDB3999B1452427820281A9CEC416DE728A484F04050A29213C100E8C3DE3049161099E730D1267F6AFEC2CD221C91DB57BDEEC9412B48C95E59282569192B77BBCD22FFFF6C
1004
FFFFB6A7FFFFFFF67F617FDABFB0CCD8A29213C10140D4E7620B6F3AF17B70BB5D2E5842679CC344988C3DE3049161099E730D1267E9357E84D459A4428ECABDEF76E66B2B48C95E5B99ACAD23256EF779A45FFFED9FFFFFFFF6CFFA4CFECFD2617FA4D5FA135199B1452427820281A9CEC416DE75E2F6E1
1004
76BA5CB084CF39868931187BC60922C2133CE61A24C2FDB53FB82CD221A0E57BDEEDCCD6569192BCB733595A464ADDEEF348BFFFDB3FFFFFFFED9FF499FD9FA4C2CBF6D4FEE0CCD978BDB85DAE972C28A484F0405178BDB85DAE972C2133CE61A24C461EF18248B084CF39868933FFFB0B348962E15EF7BB
1004
733595A1906AF2DCCD6568641AB77BBCD22FF6CFFFFFFDC7FFED9FF499FD9FA4C2FFFFB0CCD978BDB85DAE972C0D4E7620B6F394524278202842679CC344988C3DE3049161099E730D1267E9357F7059A450F57BDEED232568641ABCB48C95A1906ADDEEF348BFDB3FFFFFFFED9FFFF499FD9FA4C2FF49AB
1004
FB85F1671C85
1005
4F
  0
INSERT
  8
AME_FRZ
  5
4F
  2
AME_NIL
 10
1.0
 20
1.0
 30
1.0
1001
AME_SOL
1004

1005
0
  0
ENDSEC
  0
EOF
