600 0 1 0           
87 GICL ACIS Healer - Source: /gicl/data5/repository/Allied-Signal/part10/part10.sat - 6 0 18 ACIS 6.0.3 Solaris 24 Sun Apr 14 00:15:23 2002 
1 9.999999999999999547e-07 1.000000000000000036e-10 
body $-1 $1 $-1 $-1 #
lump $-1 $-1 $2 $0 #
shell $-1 $-1 $-1 $3 $-1 $1 #
face $-1 $4 $5 $2 $-1 $6 forward single #
face $-1 $7 $8 $2 $-1 $9 reversed single #
loop $-1 $-1 $10 $3 #
plane-surface $-1 0.4989999999999999991 0.4119999999999999774 4 0 -1 0 0 0 -1 forward_v I I I I #
face $-1 $11 $12 $2 $-1 $13 reversed single #
loop $-1 $-1 $14 $4 #
cone-surface $-1 0.5495965881556534871 0.2820000000000000284 4 0 0 1 0.1300000000000000044 0 0 1 I I 0 1 0.1300000000000000044 forward I I I I #
coedge $-1 $15 $16 $17 $18 forward $5 $-1 #
face $-1 $19 $20 $2 $-1 $21 reversed single #
loop $-1 $-1 $22 $7 #
plane-surface $-1 0.6748815965698031771 0.3250000000000000111 4 0.8660254037844501429 0.4999999999999800715 0 0 0 -1 forward_v I I I I #
coedge $-1 $23 $24 $25 $26 reversed $8 $-1 #
coedge $-1 $25 $10 $27 $28 forward $5 $-1 #
coedge $-1 $10 $25 $29 $30 forward $5 $-1 #
coedge $-1 $31 $32 $10 $18 reversed $33 $-1 #
edge $-1 $34 -0.03500000000000014211 $35 -0 $10 $36 reversed 7 unknown #
face $-1 $37 $38 $2 $-1 $39 reversed single #
loop $-1 $-1 $40 $11 #
cone-surface $-1 0.5750000000000000666 0.2379999999999999893 4 0 0 1 0.1300000000000000044 0 0 1 I I 0 1 0.1300000000000000044 forward I I I I #
coedge $-1 $41 $42 $43 $44 reversed $12 $-1 #
coedge $-1 $43 $14 $45 $46 forward $8 $-1 #
coedge $-1 $14 $43 $47 $48 forward $8 $-1 #
coedge $-1 $16 $15 $14 $26 forward $5 $-1 #
edge $-1 $49 0 $50 0.03500000000000014211 $25 $51 forward 7 unknown #
coedge $-1 $52 $45 $15 $28 reversed $53 $-1 #
edge $-1 $35 0 $49 0.1011931763113109173 $15 $54 forward 7 unknown #
coedge $-1 $47 $55 $16 $30 reversed $56 $-1 #
edge $-1 $50 -0.1011931763113109173 $34 -0 $16 $57 reversed 7 unknown #
coedge $-1 $58 $17 $55 $59 forward $33 $-1 #
coedge $-1 $17 $58 $52 $60 forward $33 $-1 #
loop $-1 $-1 $32 $61 #
vertex $-1 $18 $62 #
vertex $-1 $18 $63 #
straight-curve $-1 0.4484034118443425698 0.4119999999999999774 4 0 0 1 I I #
face $-1 $64 $65 $2 $-1 $66 reversed single #
loop $-1 $-1 $67 $19 #
plane-surface $-1 0.4989999999999999991 0.1079999999999999988 4 0 -1 0 0 0 -1 forward_v I I I I #
coedge $-1 $68 $69 $70 $71 forward $20 $-1 #
coedge $-1 $72 $22 $73 $74 forward $12 $-1 #
coedge $-1 $22 $72 $75 $76 forward $12 $-1 #
coedge $-1 $24 $23 $22 $44 forward $8 $-1 #
edge $-1 $77 0 $78 0.03500000000000014211 $43 $79 forward 7 unknown #
coedge $-1 $27 $73 $23 $46 reversed $53 $-1 #
edge $-1 $49 -1.570796326794896558 $77 -0.523598775598300703 $23 $80 reversed 7 unknown #
coedge $-1 $75 $29 $24 $48 reversed $56 $-1 #
edge $-1 $78 0.523598775598300703 $50 1.570796326794896558 $24 $81 forward 7 unknown #
vertex $-1 $28 $82 #
vertex $-1 $26 $83 #
straight-curve $-1 0.5495965881556534871 0.4119999999999999774 4 0 0 1 I I #
coedge $-1 $84 $27 $32 $60 reversed $53 $-1 #
loop $-1 $-1 $27 $85 #
straight-curve $-1 0.4484034118443425698 0.4119999999999999774 4 1 0 0 I I #
coedge $-1 $29 $86 $31 $59 reversed $56 $-1 #
loop $-1 $-1 $55 $87 #
straight-curve $-1 0.4484034118443425698 0.4119999999999999774 4.035000000000000142 1 0 0 I I #
coedge $-1 $32 $31 $88 $89 reversed $33 $-1 #
edge $-1 $34 1.570796326794896558 $90 2.617993877991492191 $31 $91 forward 7 unknown #
edge $-1 $92 -2.617993877991492191 $35 -1.570796326794896558 $32 $93 reversed 7 unknown #
face $-1 $87 $33 $2 $-1 $94 reversed single #
point $-1 0.4484034118443425698 0.4119999999999999774 4.035000000000000142 #
point $-1 0.4484034118443425698 0.4119999999999999774 4 #
face $-1 $61 $95 $2 $-1 $96 forward single #
loop $-1 $-1 $97 $37 #
cone-surface $-1 0.4230000000000000426 0.2379999999999999893 4 0 0 1 0.1300000000000000044 0 0 1 I I 0 1 0.1300000000000000044 forward I I I I #
coedge $-1 $98 $99 $68 $100 reversed $38 $-1 #
coedge $-1 $101 $40 $67 $100 forward $20 $-1 #
coedge $-1 $40 $101 $72 $102 reversed $20 $-1 #
coedge $-1 $73 $103 $40 $71 reversed $53 $-1 #
edge $-1 $104 -0.5235987755983168013 $105 1.570796326794896558 $40 $106 reversed 7 unknown #
coedge $-1 $42 $41 $69 $102 forward $12 $-1 #
coedge $-1 $45 $70 $41 $74 reversed $53 $-1 #
edge $-1 $77 -0.05080682368868651849 $104 -0 $41 $107 reversed 7 unknown #
coedge $-1 $108 $47 $42 $76 reversed $56 $-1 #
edge $-1 $109 0 $78 0.05080682368868651849 $42 $110 forward 7 unknown #
vertex $-1 $46 $111 #
vertex $-1 $44 $112 #
straight-curve $-1 0.6621798906476300539 0.3470000000000000306 4 0 0 1 I I #
ellipse-curve $-1 0.5495965881556534871 0.2820000000000000284 4 0 0 1 0.1300000000000000044 0 0 1 I I #
ellipse-curve $-1 0.5495965881556534871 0.2820000000000000284 4.035000000000000142 0 0 1 0.1300000000000000044 0 0 1 I I #
point $-1 0.5495965881556534871 0.4119999999999999774 4 #
point $-1 0.5495965881556534871 0.4119999999999999774 4.035000000000000142 #
coedge $-1 $113 $52 $114 $115 reversed $53 $-1 #
face $-1 $116 $117 $2 $-1 $118 reversed single #
coedge $-1 $55 $119 $120 $121 reversed $56 $-1 #
face $-1 $85 $122 $2 $-1 $123 forward single #
coedge $-1 $120 $114 $58 $89 forward $95 $-1 #
edge $-1 $92 0 $90 0.03500000000000014211 $88 $124 forward 7 unknown #
vertex $-1 $89 $125 #
ellipse-curve $-1 0.4484034118443425698 0.2820000000000000284 4.035000000000000142 0 0 1 0.1300000000000000044 0 0 1 I I #
vertex $-1 $115 $126 #
ellipse-curve $-1 0.4484034118443425698 0.2820000000000000284 4 0 0 1 0.1300000000000000044 0 0 1 I I #
cone-surface $-1 0.4484034118443425698 0.2820000000000000284 4 0 0 1 0.1300000000000000044 0 0 1 I I 0 1 0.1300000000000000044 forward I I I I #
loop $-1 $-1 $127 $64 #
plane-surface $-1 0.3231184034301928798 0.3250000000000000111 4 0.8660254037844450359 -0.4999999999999890088 0 0 0 -1 forward_v I I I I #
coedge $-1 $128 $129 $113 $130 forward $65 $-1 #
coedge $-1 $131 $67 $103 $132 forward $38 $-1 #
coedge $-1 $67 $131 $133 $134 forward $38 $-1 #
edge $-1 $105 0 $135 0.03500000000000014211 $68 $136 forward 7 unknown #
coedge $-1 $69 $68 $108 $137 forward $20 $-1 #
edge $-1 $104 0 $109 0.03500000000000014211 $72 $138 forward 7 unknown #
coedge $-1 $70 $113 $98 $132 reversed $53 $-1 #
vertex $-1 $74 $139 #
vertex $-1 $71 $140 #
ellipse-curve $-1 0.5750000000000000666 0.2379999999999999893 4 0 0 1 0.1300000000000000044 0 0 1 I I #
straight-curve $-1 0.6875833024919724146 0.3029999999999999916 4 -0.4999999999999830136 0.8660254037844484776 0 I I #
coedge $-1 $133 $75 $101 $137 reversed $56 $-1 #
vertex $-1 $102 $141 #
straight-curve $-1 0.6875833024919724146 0.3029999999999999916 4.035000000000000142 -0.4999999999999830136 0.8660254037844484776 0 I I #
point $-1 0.6621798906476300539 0.3470000000000000306 4 #
point $-1 0.6621798906476300539 0.3470000000000000306 4.035000000000000142 #
coedge $-1 $103 $84 $97 $130 reversed $53 $-1 #
coedge $-1 $88 $127 $84 $115 forward $95 $-1 #
edge $-1 $142 0 $92 0.05080682368868854465 $114 $143 forward 7 unknown #
face $-1 $144 $145 $2 $-1 $146 reversed single #
loop $-1 $147 $148 $85 #
plane-surface $-1 0.9929999999999999938 0.1600000000000000033 4 0 0 1 1 0 0 forward_v I I I I #
coedge $-1 $86 $133 $149 $150 reversed $56 $-1 #
coedge $-1 $127 $88 $86 $121 forward $95 $-1 #
edge $-1 $90 -0.05080682368868854465 $151 -0 $120 $152 reversed 7 unknown #
loop $-1 $153 $154 $87 #
plane-surface $-1 0.7379999999999999893 0.2600000000000000089 4.035000000000000142 0 0 1 1 0 0 forward_v I I I I #
straight-curve $-1 0.335820109352366114 0.3470000000000000306 4 0 0 1 I I #
point $-1 0.335820109352366114 0.3470000000000000306 4.035000000000000142 #
point $-1 0.335820109352366114 0.3470000000000000306 4 #
coedge $-1 $114 $120 $128 $155 reversed $95 $-1 #
coedge $-1 $149 $97 $127 $155 forward $65 $-1 #
coedge $-1 $97 $149 $131 $156 reversed $65 $-1 #
edge $-1 $157 -4.712388980384689674 $142 -2.61799387799150729 $97 $158 reversed 7 unknown #
coedge $-1 $99 $98 $129 $156 forward $38 $-1 #
edge $-1 $105 -0.152000000000000024 $157 -0 $98 $159 reversed 7 unknown #
coedge $-1 $119 $108 $99 $134 reversed $56 $-1 #
edge $-1 $160 0 $135 0.152000000000000024 $99 $161 forward 7 unknown #
vertex $-1 $100 $162 #
straight-curve $-1 0.5750000000000000666 0.1079999999999999988 4 0 0 1 I I #
edge $-1 $135 -1.570796326794896558 $109 0.5235987755983168013 $101 $163 forward 7 unknown #
straight-curve $-1 0.6875833024919724146 0.3029999999999999916 4 0 0 1 I I #
point $-1 0.6875833024919724146 0.3029999999999999916 4 #
point $-1 0.5750000000000000666 0.1079999999999999988 4 #
point $-1 0.6875833024919724146 0.3029999999999999916 4.035000000000000142 #
vertex $-1 $130 $164 #
straight-curve $-1 0.3104166975080197011 0.3029999999999999916 4 0.5000000000000425215 0.8660254037844141717 0 I I #
face $-1 $165 $166 $2 $-1 $167 reversed single #
loop $-1 $168 $169 $116 #
cone-surface $-1 0.1990000000000000102 0.2600000000000000089 4.035000000000000142 0 0 -1 0.06525000000000000244 0 0 1 I I 0 1 0.06525000000000000244 forward I I I I #
loop $-1 $170 $171 $85 #
coedge $-1 $172 $173 $174 $175 forward $117 $-1 #
coedge $-1 $129 $128 $119 $150 forward $65 $-1 #
edge $-1 $151 2.61799387799150729 $160 4.712388980384689674 $149 $176 forward 7 unknown #
vertex $-1 $155 $177 #
straight-curve $-1 0.3104166975080197011 0.3029999999999999916 4.035000000000000142 0.5000000000000425215 0.8660254037844141717 0 I I #
loop $-1 $178 $179 $87 #
coedge $-1 $180 $181 $182 $183 forward $122 $-1 #
edge $-1 $142 0 $151 0.03500000000000014211 $128 $184 forward 7 unknown #
edge $-1 $157 0 $160 0.03500000000000014211 $131 $185 forward 7 unknown #
vertex $-1 $132 $186 #
ellipse-curve $-1 0.4230000000000000426 0.2379999999999999893 4 0 0 1 0.1300000000000000044 0 0 1 I I #
straight-curve $-1 0.4230000000000000426 0.1079999999999999988 4 1 0 0 I I #
vertex $-1 $156 $187 #
straight-curve $-1 0.4230000000000000426 0.1079999999999999988 4.035000000000000142 1 0 0 I I #
point $-1 0.5750000000000000666 0.1079999999999999988 4.035000000000000142 #
ellipse-curve $-1 0.5750000000000000666 0.2379999999999999893 4.035000000000000142 0 0 1 0.1300000000000000044 0 0 1 I I #
point $-1 0.3104166975080197011 0.3029999999999999916 4 #
face $-1 $188 $189 $2 $-1 $190 reversed single #
loop $-1 $191 $192 $144 #
cone-surface $-1 0.7990000000000000435 0.2600000000000000089 4.035000000000000142 0 0 -1 0.06525000000000000244 0 0 1 I I 0 1 0.06525000000000000244 forward I I I I #
loop $-1 $-1 $193 $116 #
coedge $-1 $169 $169 $194 $195 reversed $145 $-1 #
loop $-1 $53 $196 $85 #
coedge $-1 $171 $171 $197 $198 forward $147 $-1 #
coedge $-1 $199 $148 $200 $201 forward $117 $-1 #
coedge $-1 $148 $202 $203 $204 forward $117 $-1 #
coedge $-1 $205 $206 $148 $175 reversed $207 $-1 #
edge $-1 $208 0 $209 0.2549999999999923994 $148 $210 forward 7 unknown #
ellipse-curve $-1 0.4230000000000000426 0.2379999999999999893 4.035000000000000142 0 0 1 0.1300000000000000044 0 0 1 I I #
point $-1 0.3104166975080197011 0.3029999999999999916 4.035000000000000142 #
loop $-1 $56 $194 $87 #
coedge $-1 $179 $179 $192 $211 forward $153 $-1 #
coedge $-1 $212 $154 $213 $214 forward $122 $-1 #
coedge $-1 $154 $212 $215 $216 forward $122 $-1 #
coedge $-1 $217 $218 $154 $183 reversed $219 $-1 #
edge $-1 $220 -1.570796326794896558 $221 1.570796326794896558 $154 $222 forward 7 unknown #
straight-curve $-1 0.3104166975080197011 0.3029999999999999916 4 0 0 1 I I #
straight-curve $-1 0.4230000000000000426 0.1079999999999999988 4 0 0 1 I I #
point $-1 0.4230000000000000426 0.1079999999999999988 4 #
point $-1 0.4230000000000000426 0.1079999999999999988 4.035000000000000142 #
face $-1 $223 $224 $2 $-1 $225 reversed single #
loop $-1 $-1 $226 $165 #
plane-surface $-1 0.9929999999999999938 0.1600000000000000033 4.104000000000000092 0 0 -1 -1 0 0 forward_v I I I I #
loop $-1 $-1 $197 $144 #
coedge $-1 $192 $192 $179 $211 reversed $166 $-1 #
coedge $-1 $193 $193 $196 $227 reversed $168 $-1 #
coedge $-1 $194 $194 $169 $195 forward $178 $-1 #
edge $-1 $228 -6.283185307179586232 $228 -0 $194 $229 reversed 7 unknown #
coedge $-1 $196 $196 $193 $227 forward $170 $-1 #
coedge $-1 $197 $197 $171 $198 reversed $191 $-1 #
edge $-1 $230 0 $230 6.283185307179586232 $171 $231 forward 7 unknown #
coedge $-1 $232 $172 $233 $234 forward $117 $-1 #
coedge $-1 $235 $236 $172 $201 reversed $237 $-1 #
edge $-1 $209 -0.8233426868638165086 $238 1.570796326794896558 $172 $239 reversed 7 unknown #
coedge $-1 $173 $240 $241 $242 forward $117 $-1 #
coedge $-1 $243 $244 $173 $204 reversed $245 $-1 #
edge $-1 $246 -1.570796326794896558 $208 -0.8233426868637767626 $173 $247 reversed 7 unknown #
coedge $-1 $248 $174 $244 $249 reversed $207 $-1 #
coedge $-1 $174 $248 $235 $250 reversed $207 $-1 #
loop $-1 $-1 $248 $251 #
vertex $-1 $175 $252 #
vertex $-1 $175 $253 #
straight-curve $-1 0.914741086304562967 0.4506897700766338555 4 0.7334221926024845351 -0.6797734088636919747 0 I I #
edge $-1 $254 -6.283185307179586232 $254 -0 $179 $255 reversed 7 unknown #
coedge $-1 $181 $180 $256 $257 forward $122 $-1 #
coedge $-1 $258 $259 $180 $214 reversed $260 $-1 #
edge $-1 $221 -0.4779999999999999805 $261 -0 $180 $262 reversed 7 unknown #
coedge $-1 $263 $264 $181 $216 reversed $265 $-1 #
edge $-1 $266 0 $220 0.4779999999999999805 $181 $267 forward 7 unknown #
coedge $-1 $268 $182 $264 $269 reversed $219 $-1 #
coedge $-1 $182 $268 $258 $270 reversed $219 $-1 #
loop $-1 $-1 $268 $271 #
vertex $-1 $183 $272 #
vertex $-1 $183 $273 #
ellipse-curve $-1 0.7379999999999999893 0.2600000000000000089 4.035000000000000142 0 0 1 0.1869999999999999996 0 0 1 I I #
face $-1 $274 $275 $2 $-1 $276 reversed single #
loop $-1 $277 $278 $188 #
cone-surface $-1 0.9929999999999999938 0.1600000000000000033 4.270000000000000462 0 0 -1 0.04450000000000000483 0 0 1 I I 0 1 0.04450000000000000483 forward I I I I #
coedge $-1 $226 $226 $278 $279 forward $189 $-1 #
edge $-1 $280 0 $280 6.283185307179586232 $196 $281 forward 7 unknown #
vertex $-1 $195 $282 #
ellipse-curve $-1 0.1990000000000000102 0.2600000000000000089 4.035000000000000142 0 0 1 0.06525000000000000244 0 0 1 I I #
vertex $-1 $198 $283 #
ellipse-curve $-1 0.7990000000000000435 0.2600000000000000089 4 0 0 1 0.06525000000000000244 0 0 1 I I #
coedge $-1 $284 $199 $285 $286 forward $117 $-1 #
coedge $-1 $287 $288 $199 $234 reversed $289 $-1 #
edge $-1 $238 -0.7329999999999999849 $290 -0 $199 $291 reversed 7 unknown #
coedge $-1 $292 $200 $206 $250 forward $237 $-1 #
coedge $-1 $200 $292 $287 $293 forward $237 $-1 #
loop $-1 $-1 $235 $294 #
vertex $-1 $201 $295 #
ellipse-curve $-1 0.9929999999999999938 0.1600000000000000033 4 0 0 1 0.1600000000000000033 0 0 1 I I #
coedge $-1 $202 $296 $297 $298 forward $117 $-1 #
coedge $-1 $299 $300 $202 $242 reversed $301 $-1 #
edge $-1 $302 0 $246 0.3224007041947756225 $202 $303 forward 7 unknown #
coedge $-1 $304 $203 $300 $305 reversed $245 $-1 #
coedge $-1 $203 $304 $205 $249 forward $245 $-1 #
loop $-1 $-1 $243 $306 #
vertex $-1 $242 $307 #
ellipse-curve $-1 0.7379999999999999893 0.2600000000000000089 4 0 0 1 0.2600000000000000089 0 0 1 I I #
coedge $-1 $206 $205 $308 $309 reversed $207 $-1 #
edge $-1 $310 0 $208 0.3610000000000006537 $244 $311 forward 7 unknown #
edge $-1 $209 -0.3610000000000006537 $312 -0 $235 $313 reversed 7 unknown #
face $-1 $314 $207 $2 $-1 $315 forward single #
point $-1 0.914741086304562967 0.4506897700766338555 4 #
point $-1 1.101763745418190998 0.2773475508163976699 4 #
vertex $-1 $211 $316 #
ellipse-curve $-1 0.7990000000000000435 0.2600000000000000089 4.035000000000000142 0 0 1 0.06525000000000000244 0 0 1 I I #
coedge $-1 $317 $318 $212 $257 reversed $319 $-1 #
edge $-1 $261 1.570796326794896558 $266 4.712388980384689674 $212 $320 forward 7 unknown #
coedge $-1 $321 $213 $218 $270 forward $260 $-1 #
coedge $-1 $213 $321 $317 $322 reversed $260 $-1 #
loop $-1 $-1 $259 $323 #
vertex $-1 $214 $324 #
straight-curve $-1 0.2600000000000000089 0.4470000000000000639 4.035000000000000142 1 0 0 I I #
coedge $-1 $325 $215 $318 $326 forward $265 $-1 #
coedge $-1 $215 $325 $217 $269 forward $265 $-1 #
loop $-1 $-1 $264 $327 #
vertex $-1 $257 $328 #
straight-curve $-1 0.2600000000000000089 0.072999999999999024 4.035000000000000142 1 0 0 I I #
coedge $-1 $218 $217 $329 $330 forward $219 $-1 #
edge $-1 $331 0 $220 0.2350000000000003197 $264 $332 forward 7 unknown #
edge $-1 $221 -0.2350000000000003197 $333 -0 $258 $334 reversed 7 unknown #
face $-1 $335 $219 $2 $-1 $336 reversed single #
point $-1 0.7379999999999999893 0.072999999999999024 4.035000000000000142 #
point $-1 0.7379999999999999893 0.4470000000000000639 4.035000000000000142 #
face $-1 $327 $337 $2 $-1 $338 reversed single #
loop $-1 $-1 $339 $223 #
plane-surface $-1 0.1600000000000000033 0.5130000000000000115 4.104000000000000092 0 0 -1 -1 0 0 forward_v I I I I #
loop $-1 $-1 $340 $188 #
coedge $-1 $278 $278 $226 $279 reversed $224 $-1 #
edge $-1 $341 0 $341 6.283185307179586232 $226 $342 forward 7 unknown #
vertex $-1 $227 $343 #
ellipse-curve $-1 0.1990000000000000102 0.2600000000000000089 4 0 0 1 0.06525000000000000244 0 0 1 I I #
point $-1 0.2642500000000000404 0.2600000000000000089 4.035000000000000142 #
point $-1 0.8642499999999999627 0.2600000000000000089 4 #
coedge $-1 $296 $232 $344 $345 forward $117 $-1 #
coedge $-1 $346 $347 $232 $286 reversed $348 $-1 #
edge $-1 $290 1.570796326794896558 $349 3.141592653589793116 $232 $350 reversed 7 unknown #
coedge $-1 $351 $233 $236 $293 reversed $289 $-1 #
coedge $-1 $233 $351 $346 $352 forward $289 $-1 #
loop $-1 $-1 $287 $353 #
vertex $-1 $234 $354 #
straight-curve $-1 0.2600000000000000089 0 4 1 0 0 I I #
coedge $-1 $236 $235 $355 $356 reversed $237 $-1 #
edge $-1 $357 0 $238 0.3610000000000006537 $236 $358 forward 7 unknown #
face $-1 $353 $237 $2 $-1 $359 forward single #
point $-1 0.9929999999999999938 0 4 #
coedge $-1 $240 $284 $360 $361 forward $117 $-1 #
coedge $-1 $362 $363 $240 $298 reversed $364 $-1 #
edge $-1 $365 -2.649565217630937219 $302 -1.570796326794896558 $240 $366 forward 7 unknown #
coedge $-1 $367 $241 $363 $368 reversed $301 $-1 #
coedge $-1 $241 $367 $243 $305 forward $301 $-1 #
loop $-1 $-1 $299 $369 #
vertex $-1 $298 $370 #
straight-curve $-1 0.4155992958052243669 0.5200000000000000178 4 1 0 0 I I #
coedge $-1 $244 $243 $371 $372 reversed $245 $-1 #
edge $-1 $373 0 $246 0.3610000000000006537 $300 $374 forward 7 unknown #
face $-1 $251 $245 $2 $-1 $375 forward single #
point $-1 0.7379999999999999893 0.5200000000000000178 4 #
coedge $-1 $371 $355 $248 $309 forward $376 $-1 #
edge $-1 $312 -0.2549999999999923994 $310 -0 $308 $377 reversed 7 unknown #
vertex $-1 $309 $378 #
straight-curve $-1 0.914741086304562967 0.4506897700766338555 4.361000000000000654 0 0 -1 I I #
vertex $-1 $309 $379 #
straight-curve $-1 1.101763745418190998 0.2773475508163976699 4.361000000000000654 0 0 -1 I I #
face $-1 $380 $381 $2 $-1 $382 reversed single #
plane-surface $-1 1.008252415861378148 0.3640186604465157072 4.361000000000000654 0.6797734088637119587 0.7334221926024659943 0 0 0 -1 forward_v I I I I #
point $-1 0.8642499999999999627 0.2600000000000000089 4.035000000000000142 #
coedge $-1 $383 $256 $259 $322 forward $319 $-1 #
coedge $-1 $256 $383 $263 $326 reversed $319 $-1 #
loop $-1 $-1 $318 $384 #
ellipse-curve $-1 0.2600000000000000089 0.2600000000000000089 4.035000000000000142 0 0 1 0.1869999999999999996 0 0 1 I I #
coedge $-1 $259 $258 $385 $386 forward $260 $-1 #
edge $-1 $261 -0.2350000000000003197 $387 -0 $317 $388 reversed 7 unknown #
face $-1 $271 $260 $2 $-1 $389 reversed single #
point $-1 0.2600000000000000089 0.4470000000000000639 4.035000000000000142 #
coedge $-1 $264 $263 $390 $391 forward $265 $-1 #
edge $-1 $266 -0.2350000000000003197 $392 -0 $263 $393 reversed 7 unknown #
face $-1 $384 $265 $2 $-1 $394 forward single #
point $-1 0.2600000000000000089 0.072999999999999024 4.035000000000000142 #
coedge $-1 $390 $385 $268 $330 reversed $395 $-1 #
edge $-1 $331 -1.570796326794896558 $333 1.570796326794896558 $268 $396 forward 7 unknown #
vertex $-1 $269 $397 #
straight-curve $-1 0.7379999999999999893 0.072999999999999024 4.270000000000000462 0 0 -1 I I #
vertex $-1 $270 $398 #
straight-curve $-1 0.7379999999999999893 0.4470000000000000639 4.270000000000000462 0 0 -1 I I #
face $-1 $399 $400 $2 $-1 $401 forward single #
cone-surface $-1 0.7379999999999999893 0.2600000000000000089 4.270000000000000462 0 0 -1 0.1869999999999999996 0 0 1 I I 0 1 0.1869999999999999996 forward I I I I #
loop $-1 $402 $403 $274 #
cone-surface $-1 0.1600000000000000033 0.5130000000000000115 4.270000000000000462 0 0 -1 0.04450000000000000483 0 0 1 I I 0 1 0.04450000000000000483 forward I I I I #
coedge $-1 $339 $339 $403 $404 forward $275 $-1 #
coedge $-1 $340 $340 $405 $406 forward $277 $-1 #
vertex $-1 $279 $407 #
ellipse-curve $-1 0.9929999999999999938 0.1600000000000000033 4.104000000000000092 0 0 1 0.04450000000000000483 0 0 1 I I #
point $-1 0.2642500000000000404 0.2600000000000000089 4 #
coedge $-1 $408 $409 $284 $345 reversed $410 $-1 #
edge $-1 $349 0 $411 0.2530000000000000027 $284 $412 forward 7 unknown #
coedge $-1 $413 $285 $288 $352 reversed $348 $-1 #
coedge $-1 $285 $413 $408 $414 forward $348 $-1 #
loop $-1 $-1 $346 $415 #
vertex $-1 $286 $416 #
ellipse-curve $-1 0.2600000000000000089 0.2600000000000000089 4 0 0 1 0.2600000000000000089 0 0 1 I I #
coedge $-1 $288 $287 $417 $418 reversed $289 $-1 #
edge $-1 $419 0 $290 0.3610000000000006537 $288 $420 forward 7 unknown #
face $-1 $415 $289 $2 $-1 $421 reversed single #
point $-1 0.2600000000000000089 0 4 #
coedge $-1 $308 $417 $292 $356 forward $376 $-1 #
edge $-1 $357 -1.570796326794896558 $312 0.8233426868638165086 $355 $422 forward 7 unknown #
vertex $-1 $418 $423 #
straight-curve $-1 0.9929999999999999938 0 4.361000000000000654 0 0 -1 I I #
cone-surface $-1 0.9929999999999999938 0.1600000000000000033 4.361000000000000654 0 0 -1 0.1600000000000000033 0 0 1 I I 0 1 0.1600000000000000033 forward I I I I #
coedge $-1 $424 $425 $296 $361 reversed $426 $-1 #
edge $-1 $411 -3.141592653589793116 $365 -0.4920274359588842072 $296 $427 reversed 7 unknown #
coedge $-1 $428 $297 $425 $429 reversed $364 $-1 #
coedge $-1 $297 $428 $299 $368 forward $364 $-1 #
loop $-1 $-1 $362 $430 #
vertex $-1 $361 $431 #
ellipse-curve $-1 0.4155992958052243669 0.6500000000000000222 4 0 0 1 0.1300000000000000044 0 0 1 I I #
coedge $-1 $300 $299 $432 $433 reversed $301 $-1 #
edge $-1 $434 0 $302 0.3610000000000006537 $363 $435 forward 7 unknown #
face $-1 $306 $301 $2 $-1 $436 forward single #
point $-1 0.4155992958052243669 0.5200000000000000178 4 #
coedge $-1 $432 $308 $304 $372 forward $376 $-1 #
edge $-1 $310 0.8233426868637767626 $373 1.570796326794896558 $371 $437 forward 7 unknown #
vertex $-1 $372 $438 #
straight-curve $-1 0.7379999999999999893 0.5200000000000000178 4.361000000000000654 0 0 -1 I I #
cone-surface $-1 0.7379999999999999893 0.2600000000000000089 4.361000000000000654 0 0 -1 0.2600000000000000089 0 0 1 I I 0 1 0.2600000000000000089 forward I I I I #
loop $-1 $439 $308 $399 #
straight-curve $-1 0.914741086304562967 0.4506897700766338555 4.361000000000000654 0.7334221926024845351 -0.6797734088636919747 0 I I #
point $-1 0.914741086304562967 0.4506897700766338555 4.361000000000000654 #
point $-1 1.101763745418190998 0.2773475508163976699 4.361000000000000654 #
face $-1 $440 $441 $2 $-1 $442 reversed single #
loop $-1 $-1 $443 $314 #
cone-surface $-1 0.7379999999999999893 0.2600000000000000089 4.361000000000000654 0 0 -1 0.23000000000000001 0 0 1 I I 0 1 0.23000000000000001 forward I I I I #
coedge $-1 $318 $317 $444 $445 forward $319 $-1 #
face $-1 $323 $319 $2 $-1 $446 reversed single #
coedge $-1 $329 $444 $321 $386 reversed $395 $-1 #
edge $-1 $333 -0.4779999999999999805 $387 -0 $321 $447 reversed 7 unknown #
vertex $-1 $322 $448 #
straight-curve $-1 0.2600000000000000089 0.4470000000000000639 4.270000000000000462 0 0 -1 I I #
plane-surface $-1 0.4989999999999999991 0.4470000000000000639 4.270000000000000462 0 1 0 0 0 1 forward_v I I I I #
coedge $-1 $444 $329 $325 $391 reversed $395 $-1 #
edge $-1 $392 -0.4779999999999999805 $331 -0 $325 $449 reversed 7 unknown #
vertex $-1 $326 $450 #
straight-curve $-1 0.2600000000000000089 0.072999999999999024 4.270000000000000462 0 0 -1 I I #
plane-surface $-1 0.4989999999999999991 0.072999999999999024 4.270000000000000462 0 1 0 0 0 1 forward_v I I I I #
loop $-1 $-1 $329 $335 #
ellipse-curve $-1 0.7379999999999999893 0.2600000000000000089 4.270000000000000462 0 0 1 0.1869999999999999996 0 0 1 I I #
point $-1 0.7379999999999999893 0.072999999999999024 4.270000000000000462 #
point $-1 0.7379999999999999893 0.4470000000000000639 4.270000000000000462 #
face $-1 $294 $376 $2 $-1 $451 forward single #
loop $-1 $452 $405 $335 #
plane-surface $-1 0.7379999999999999893 0.2600000000000000089 4.270000000000000462 0 0 1 1 0 0 forward_v I I I I #
loop $-1 $-1 $453 $274 #
coedge $-1 $403 $403 $339 $404 reversed $337 $-1 #
edge $-1 $454 0 $454 6.283185307179586232 $339 $455 forward 7 unknown #
coedge $-1 $405 $405 $340 $406 reversed $400 $-1 #
edge $-1 $456 0 $456 6.283185307179586232 $340 $457 forward 7 unknown #
point $-1 1.037500000000000089 0.1600000000000000033 4.104000000000000092 #
coedge $-1 $458 $344 $347 $414 reversed $410 $-1 #
coedge $-1 $344 $458 $424 $459 forward $410 $-1 #
loop $-1 $-1 $408 $460 #
vertex $-1 $345 $461 #
straight-curve $-1 0 0.2600000000000000089 4 0 1 0 I I #
coedge $-1 $347 $346 $462 $463 reversed $348 $-1 #
edge $-1 $464 0 $349 0.3610000000000006537 $347 $465 forward 7 unknown #
face $-1 $460 $348 $2 $-1 $466 forward single #
point $-1 0 0.2600000000000000089 4 #
coedge $-1 $355 $462 $351 $418 forward $376 $-1 #
edge $-1 $419 0 $357 0.7329999999999999849 $417 $467 forward 7 unknown #
vertex $-1 $463 $468 #
straight-curve $-1 0.2600000000000000089 0 4.361000000000000654 0 0 -1 I I #
plane-surface $-1 0.6264999999999999458 0 4.361000000000000654 0 1 0 0 0 1 forward_v I I I I #
ellipse-curve $-1 0.9929999999999999938 0.1600000000000000033 4.361000000000000654 0 0 1 0.1600000000000000033 0 0 1 I I #
point $-1 0.9929999999999999938 0 4.361000000000000654 #
coedge $-1 $469 $360 $409 $459 reversed $426 $-1 #
coedge $-1 $360 $469 $362 $429 forward $426 $-1 #
loop $-1 $-1 $424 $470 #
ellipse-curve $-1 0.1600000000000000033 0.5130000000000000115 4 0 0 1 0.1600000000000000033 0 0 1 I I #
coedge $-1 $363 $362 $471 $472 reversed $364 $-1 #
edge $-1 $473 0 $365 0.3610000000000006537 $425 $474 forward 7 unknown #
face $-1 $369 $364 $2 $-1 $475 reversed single #
point $-1 0.3010203011449015809 0.5885862069024417886 4 #
coedge $-1 $471 $371 $367 $433 forward $376 $-1 #
edge $-1 $373 -0.3224007041947756225 $434 -0 $432 $476 reversed 7 unknown #
vertex $-1 $433 $477 #
straight-curve $-1 0.4155992958052243669 0.5200000000000000178 4.361000000000000654 0 0 -1 I I #
plane-surface $-1 0.5767996479026101797 0.5200000000000000178 4.361000000000000654 0 1 0 0 0 1 forward_v I I I I #
ellipse-curve $-1 0.7379999999999999893 0.2600000000000000089 4.361000000000000654 0 0 1 0.2600000000000000089 0 0 1 I I #
point $-1 0.7379999999999999893 0.5200000000000000178 4.361000000000000654 #
loop $-1 $-1 $478 $399 #
face $-1 $479 $480 $2 $-1 $481 reversed single #
loop $-1 $-1 $482 $380 #
plane-surface $-1 0.9878592135954665787 0.3420159946684436791 4.361000000000000654 0.6797734088637119587 0.7334221926024659943 0 0 0 -1 forward_v I I I I #
coedge $-1 $483 $484 $485 $486 forward $381 $-1 #
coedge $-1 $385 $390 $383 $445 reversed $395 $-1 #
edge $-1 $387 1.570796326794896558 $392 4.712388980384689674 $383 $487 forward 7 unknown #
cone-surface $-1 0.2600000000000000089 0.2600000000000000089 4.270000000000000462 0 0 -1 0.1869999999999999996 0 0 1 I I 0 1 0.1869999999999999996 forward I I I I #
straight-curve $-1 0.2600000000000000089 0.4470000000000000639 4.270000000000000462 1 0 0 I I #
point $-1 0.2600000000000000089 0.4470000000000000639 4.270000000000000462 #
straight-curve $-1 0.7379999999999999893 0.072999999999999024 4.270000000000000462 -1 0 0 I I #
point $-1 0.2600000000000000089 0.072999999999999024 4.270000000000000462 #
plane-surface $-1 0.9929999999999999938 0.1600000000000000033 4.361000000000000654 0 0 1 1 0 0 forward_v I I I I #
loop $-1 $488 $489 $335 #
coedge $-1 $453 $453 $489 $490 forward $402 $-1 #
vertex $-1 $404 $491 #
ellipse-curve $-1 0.1600000000000000033 0.5130000000000000115 4.104000000000000092 0 0 1 0.04450000000000000483 0 0 1 I I #
vertex $-1 $406 $492 #
ellipse-curve $-1 0.9929999999999999938 0.1600000000000000033 4.270000000000000462 0 0 1 0.04450000000000000483 0 0 1 I I #
coedge $-1 $409 $408 $493 $494 reversed $410 $-1 #
edge $-1 $495 0 $411 0.3610000000000006537 $409 $496 forward 7 unknown #
face $-1 $470 $410 $2 $-1 $497 forward single #
point $-1 0 0.5130000000000000115 4 #
coedge $-1 $417 $493 $413 $463 forward $376 $-1 #
edge $-1 $464 -3.141592653589793116 $419 -1.570796326794896558 $462 $498 forward 7 unknown #
vertex $-1 $494 $499 #
straight-curve $-1 0 0.2600000000000000089 4.361000000000000654 0 0 -1 I I #
cone-surface $-1 0.2600000000000000089 0.2600000000000000089 4.361000000000000654 0 0 -1 0.2600000000000000089 0 0 1 I I 0 1 0.2600000000000000089 forward I I I I #
straight-curve $-1 0.2600000000000000089 0 4.361000000000000654 1 0 0 I I #
point $-1 0.2600000000000000089 0 4.361000000000000654 #
coedge $-1 $425 $424 $500 $501 reversed $426 $-1 #
face $-1 $430 $426 $2 $-1 $502 forward single #
coedge $-1 $500 $432 $428 $472 forward $376 $-1 #
edge $-1 $434 1.570796326794896558 $473 2.649565217630937219 $471 $503 reversed 7 unknown #
vertex $-1 $472 $504 #
straight-curve $-1 0.3010203011449015809 0.5885862069024417886 4.361000000000000654 0 0 -1 I I #
cone-surface $-1 0.4155992958052243669 0.6500000000000000222 4.361000000000000654 0 0 -1 0.1300000000000000044 0 0 1 I I 0 1 0.1300000000000000044 forward I I I I #
straight-curve $-1 0.4155992958052243669 0.5200000000000000178 4.361000000000000654 1 0 0 I I #
point $-1 0.4155992958052243669 0.5200000000000000178 4.361000000000000654 #
coedge $-1 $505 $506 $507 $508 forward $439 $-1 #
face $-1 $509 $510 $2 $-1 $511 forward single #
loop $-1 $-1 $512 $440 #
cone-surface $-1 0.9929999999999999938 0.1600000000000000033 4.361000000000000654 0 0 -1 0.1300000000000000044 0 0 1 I I 0 1 0.1300000000000000044 forward I I I I #
coedge $-1 $513 $514 $515 $516 reversed $441 $-1 #
coedge $-1 $515 $443 $517 $518 reversed $381 $-1 #
coedge $-1 $443 $515 $505 $519 reversed $381 $-1 #
coedge $-1 $507 $520 $443 $486 reversed $521 $-1 #
edge $-1 $522 0 $523 0.09100000000000019185 $443 $524 forward 7 unknown #
ellipse-curve $-1 0.2600000000000000089 0.2600000000000000089 4.270000000000000462 0 0 1 0.1869999999999999996 0 0 1 I I #
loop $-1 $395 $525 $335 #
coedge $-1 $489 $489 $453 $490 reversed $452 $-1 #
edge $-1 $526 0 $526 6.283185307179586232 $453 $527 forward 7 unknown #
point $-1 0.2044999999999999873 0.5130000000000000115 4.104000000000000092 #
point $-1 1.037500000000000089 0.1600000000000000033 4.270000000000000462 #
coedge $-1 $462 $500 $458 $494 forward $376 $-1 #
edge $-1 $495 -0.2530000000000000027 $464 -0 $493 $528 reversed 7 unknown #
vertex $-1 $501 $529 #
straight-curve $-1 0 0.5130000000000000115 4.361000000000000654 0 0 -1 I I #
plane-surface $-1 0 0.3865000000000000102 4.361000000000000654 -1 0 0 0 0 1 forward_v I I I I #
ellipse-curve $-1 0.2600000000000000089 0.2600000000000000089 4.361000000000000654 0 0 1 0.2600000000000000089 0 0 1 I I #
point $-1 0 0.2600000000000000089 4.361000000000000654 #
coedge $-1 $493 $471 $469 $501 forward $376 $-1 #
edge $-1 $473 0.4920274359588842072 $495 3.141592653589793116 $500 $530 forward 7 unknown #
cone-surface $-1 0.1600000000000000033 0.5130000000000000115 4.361000000000000654 0 0 -1 0.1600000000000000033 0 0 1 I I 0 1 0.1600000000000000033 forward I I I I #
ellipse-curve $-1 0.4155992958052243669 0.6500000000000000222 4.361000000000000654 0 0 1 0.1300000000000000044 0 0 1 I I #
point $-1 0.3010203011449015809 0.5885862069024417886 4.361000000000000654 #
coedge $-1 $531 $478 $484 $519 forward $439 $-1 #
coedge $-1 $478 $532 $533 $534 forward $439 $-1 #
coedge $-1 $535 $485 $478 $508 reversed $521 $-1 #
edge $-1 $536 0 $522 0.3224007042196338491 $478 $537 forward 7 unknown #
face $-1 $538 $539 $2 $-1 $540 reversed single #
loop $-1 $-1 $541 $479 #
plane-surface $-1 0.6264999999999999458 0.02999999999999941255 4.361000000000000654 2.911672912756075104e-18 1 0 0 0 1 forward_v I I I I #
coedge $-1 $542 $543 $544 $545 reversed $480 $-1 #
coedge $-1 $544 $482 $546 $547 reversed $441 $-1 #
coedge $-1 $482 $544 $531 $548 reversed $441 $-1 #
coedge $-1 $484 $483 $482 $516 forward $381 $-1 #
edge $-1 $549 -0.09100000000000019185 $550 -0 $515 $551 reversed 7 unknown #
coedge $-1 $525 $546 $483 $518 forward $488 $-1 #
edge $-1 $549 0.8233426868637799823 $523 1.570796326794896558 $517 $552 forward 7 unknown #
edge $-1 $522 -1.570796326794896558 $550 -0.8233426868637799823 $505 $553 forward 7 unknown #
coedge $-1 $485 $535 $525 $554 reversed $521 $-1 #
loop $-1 $-1 $507 $555 #
vertex $-1 $508 $556 #
vertex $-1 $554 $557 #
straight-curve $-1 0.7379999999999999893 0.4900000000000000466 4.361000000000000654 0 0 -1 I I #
coedge $-1 $558 $517 $520 $554 forward $488 $-1 #
vertex $-1 $490 $559 #
ellipse-curve $-1 0.1600000000000000033 0.5130000000000000115 4.270000000000000462 0 0 1 0.04450000000000000483 0 0 1 I I #
straight-curve $-1 0 0.2600000000000000089 4.361000000000000654 0 1 0 I I #
point $-1 0 0.5130000000000000115 4.361000000000000654 #
ellipse-curve $-1 0.1600000000000000033 0.5130000000000000115 4.361000000000000654 0 0 1 0.1600000000000000033 0 0 1 I I #
coedge $-1 $560 $505 $514 $548 forward $439 $-1 #
coedge $-1 $506 $561 $562 $563 forward $439 $-1 #
coedge $-1 $564 $565 $506 $534 reversed $566 $-1 #
edge $-1 $567 -2.649565217590400312 $536 -1.570796326794896558 $506 $568 forward 7 unknown #
coedge $-1 $520 $507 $565 $569 reversed $521 $-1 #
vertex $-1 $508 $570 #
straight-curve $-1 0.4155992957803661403 0.4900000000000000466 4.361000000000000654 1 0 0 I I #
face $-1 $571 $572 $2 $-1 $573 reversed single #
loop $-1 $-1 $574 $509 #
cone-surface $-1 0.2600000000000000089 0.2600000000000000089 4.361000000000000654 0 0 -1 0.23000000000000001 0 0 1 I I 0 1 0.23000000000000001 forward I I I I #
coedge $-1 $575 $576 $577 $578 reversed $510 $-1 #
coedge $-1 $577 $512 $579 $580 reversed $480 $-1 #
coedge $-1 $512 $577 $560 $581 reversed $480 $-1 #
coedge $-1 $514 $513 $512 $545 forward $441 $-1 #
edge $-1 $582 -0.09100000000000019185 $583 -0 $544 $584 reversed 7 unknown #
coedge $-1 $517 $579 $513 $547 forward $488 $-1 #
edge $-1 $582 -0.2549999999999933986 $549 -0 $546 $585 reversed 7 unknown #
edge $-1 $550 0 $583 0.2549999999999933986 $531 $586 forward 7 unknown #
vertex $-1 $547 $587 #
vertex $-1 $519 $588 #
straight-curve $-1 0.8943478840386515083 0.4286871042985614388 4.361000000000000654 0 0 -1 I I #
ellipse-curve $-1 0.7379999999999999893 0.2600000000000000089 4.270000000000000462 0 0 1 0.23000000000000001 0 0 1 I I #
ellipse-curve $-1 0.7379999999999999893 0.2600000000000000089 4.361000000000000654 0 0 -1 0.23000000000000001 0 0 1 I I #
edge $-1 $523 -0.3224007042196338491 $589 -0 $525 $590 reversed 7 unknown #
face $-1 $-1 $521 $2 $-1 $591 reversed single #
point $-1 0.7379999999999999893 0.4900000000000000466 4.361000000000000654 #
point $-1 0.7379999999999999893 0.4900000000000000466 4.270000000000000462 #
coedge $-1 $592 $525 $593 $594 forward $488 $-1 #
point $-1 0.2044999999999999873 0.5130000000000000115 4.270000000000000462 #
coedge $-1 $595 $531 $543 $581 forward $439 $-1 #
coedge $-1 $532 $596 $597 $598 forward $439 $-1 #
coedge $-1 $599 $600 $532 $563 reversed $601 $-1 #
edge $-1 $602 -3.141592653589793116 $567 -0.4920274359993329072 $532 $603 reversed 7 unknown #
coedge $-1 $593 $533 $600 $604 reversed $566 $-1 #
coedge $-1 $533 $593 $535 $569 forward $566 $-1 #
loop $-1 $-1 $564 $605 #
vertex $-1 $563 $606 #
ellipse-curve $-1 0.4155992957803661403 0.6500000000000000222 4.361000000000000654 0 0 1 0.1600000000000000033 0 0 1 I I #
edge $-1 $589 -0.09100000000000019185 $536 -0 $565 $607 reversed 7 unknown #
point $-1 0.4155992957803661403 0.4900000000000000466 4.361000000000000654 #
face $-1 $605 $601 $2 $-1 $608 reversed single #
loop $-1 $-1 $609 $538 #
plane-surface $-1 0.02999999999999999889 0.3865000000000000102 4.361000000000000654 -1 -4.217897717490520217e-18 0 0 0 1 forward_v I I I I #
coedge $-1 $610 $611 $612 $613 reversed $539 $-1 #
coedge $-1 $612 $541 $614 $615 reversed $510 $-1 #
coedge $-1 $541 $612 $595 $616 reversed $510 $-1 #
coedge $-1 $543 $542 $541 $578 forward $480 $-1 #
edge $-1 $617 -0.09100000000000019185 $618 -0 $577 $619 reversed 7 unknown #
coedge $-1 $546 $614 $542 $580 forward $488 $-1 #
edge $-1 $617 -1.570796326794896558 $582 0.823342686863823725 $579 $620 forward 7 unknown #
edge $-1 $583 -0.823342686863823725 $618 1.570796326794896558 $560 $621 reversed 7 unknown #
vertex $-1 $580 $622 #
vertex $-1 $548 $623 #
straight-curve $-1 1.081370543152281538 0.2553448850383259749 4.361000000000000654 0 0 -1 I I #
straight-curve $-1 0.8943478840386515083 0.4286871042985614388 4.270000000000000462 0.7334221926024898641 -0.6797734088636863126 0 I I #
straight-curve $-1 0.8943478840386515083 0.4286871042985614388 4.361000000000000654 0.7334221926024898641 -0.6797734088636863126 0 I I #
point $-1 0.8943478840386515083 0.4286871042985614388 4.270000000000000462 #
point $-1 0.8943478840386515083 0.4286871042985614388 4.361000000000000654 #
vertex $-1 $554 $624 #
straight-curve $-1 0.4155992957803661403 0.4900000000000000466 4.270000000000000462 1 0 0 I I #
plane-surface $-1 0.5767996478901811219 0.4900000000000000466 4.361000000000000654 0 1 0 0 0 1 forward_v I I I I #
coedge $-1 $625 $558 $626 $627 forward $488 $-1 #
coedge $-1 $565 $564 $558 $594 reversed $566 $-1 #
edge $-1 $589 1.570796326794896558 $628 2.649565217590400312 $558 $629 reversed 7 unknown #
coedge $-1 $596 $560 $576 $616 forward $439 $-1 #
coedge $-1 $561 $595 $611 $630 forward $439 $-1 #
coedge $-1 $609 $631 $561 $598 reversed $572 $-1 #
edge $-1 $632 0 $602 0.2530000000000000027 $561 $633 forward 7 unknown #
coedge $-1 $626 $562 $631 $634 reversed $601 $-1 #
coedge $-1 $562 $626 $564 $604 forward $601 $-1 #
loop $-1 $-1 $599 $571 #
vertex $-1 $598 $635 #
ellipse-curve $-1 0.1600000000000000033 0.5130000000000000115 4.361000000000000654 0 0 1 0.1300000000000000044 0 0 1 I I #
edge $-1 $628 -0.09100000000000019185 $567 -0 $600 $636 reversed 7 unknown #
face $-1 $555 $566 $2 $-1 $637 forward single #
point $-1 0.2745789946630314837 0.5744137931049803081 4.361000000000000654 #
straight-curve $-1 0.4155992957803661403 0.4900000000000000466 4.361000000000000654 0 0 -1 I I #
cone-surface $-1 0.1600000000000000033 0.5130000000000000115 4.361000000000000654 0 0 -1 0.1300000000000000044 0 0 1 I I 0 1 0.1300000000000000044 forward I I I I #
coedge $-1 $638 $597 $639 $640 reversed $572 $-1 #
coedge $-1 $639 $574 $641 $642 reversed $539 $-1 #
coedge $-1 $574 $639 $596 $630 reversed $539 $-1 #
coedge $-1 $576 $575 $574 $613 forward $510 $-1 #
edge $-1 $643 -0.09100000000000019185 $644 -0 $612 $645 reversed 7 unknown #
coedge $-1 $579 $641 $575 $615 forward $488 $-1 #
edge $-1 $643 0 $617 0.7329999999999999849 $614 $646 forward 7 unknown #
edge $-1 $618 -0.7329999999999999849 $644 -0 $595 $647 reversed 7 unknown #
vertex $-1 $615 $648 #
vertex $-1 $581 $649 #
straight-curve $-1 0.9929999999999999938 0.02999999999999941255 4.361000000000000654 0 0 -1 I I #
ellipse-curve $-1 0.9929999999999999938 0.1600000000000000033 4.270000000000000462 0 0 1 0.1300000000000000044 0 0 1 I I #
ellipse-curve $-1 0.9929999999999999938 0.1600000000000000033 4.361000000000000654 0 0 1 0.1300000000000000044 0 0 1 I I #
point $-1 1.081370543152281538 0.2553448850383259749 4.270000000000000462 #
point $-1 1.081370543152281538 0.2553448850383259749 4.361000000000000654 #
point $-1 0.4155992957803661403 0.4900000000000000466 4.270000000000000462 #
coedge $-1 $641 $592 $638 $650 forward $488 $-1 #
coedge $-1 $600 $599 $592 $627 reversed $601 $-1 #
edge $-1 $628 0.4920274359993329072 $651 3.141592653589793116 $592 $652 forward 7 unknown #
vertex $-1 $594 $653 #
ellipse-curve $-1 0.4155992957803661403 0.6500000000000000222 4.270000000000000462 0 0 1 0.1600000000000000033 0 0 1 I I #
edge $-1 $644 1.570796326794896558 $632 3.141592653589793116 $596 $654 reversed 7 unknown #
coedge $-1 $597 $638 $599 $634 forward $572 $-1 #
vertex $-1 $630 $655 #
straight-curve $-1 0.02999999999999999889 0.2600000000000000089 4.361000000000000654 0 1 0 I I #
edge $-1 $651 -0.09100000000000019185 $602 -0 $631 $656 reversed 7 unknown #
point $-1 0.02999999999999999889 0.5130000000000000115 4.361000000000000654 #
straight-curve $-1 0.2745789946630314837 0.5744137931049803081 4.361000000000000654 0 0 -1 I I #
cone-surface $-1 0.4155992957803661403 0.6500000000000000222 4.361000000000000654 0 0 -1 0.1600000000000000033 0 0 1 I I 0 1 0.1600000000000000033 forward I I I I #
coedge $-1 $631 $609 $625 $650 reversed $572 $-1 #
coedge $-1 $611 $610 $609 $640 forward $539 $-1 #
edge $-1 $657 -0.09100000000000019185 $632 -0 $639 $658 reversed 7 unknown #
coedge $-1 $614 $625 $610 $642 forward $488 $-1 #
edge $-1 $657 -3.141592653589793116 $643 -1.570796326794896558 $641 $659 forward 7 unknown #
vertex $-1 $642 $660 #
vertex $-1 $616 $661 #
straight-curve $-1 0.2600000000000000089 0.02999999999999941255 4.361000000000000654 0 0 -1 I I #
straight-curve $-1 0.2600000000000000089 0.02999999999999941255 4.270000000000000462 1 0 0 I I #
straight-curve $-1 0.2600000000000000089 0.02999999999999941255 4.361000000000000654 1 0 0 I I #
point $-1 0.9929999999999999938 0.02999999999999941255 4.270000000000000462 #
point $-1 0.9929999999999999938 0.02999999999999941255 4.361000000000000654 #
edge $-1 $651 -0.2530000000000000027 $657 -0 $625 $662 reversed 7 unknown #
vertex $-1 $627 $663 #
ellipse-curve $-1 0.1600000000000000033 0.5130000000000000115 4.270000000000000462 0 0 1 0.1300000000000000044 0 0 1 I I #
point $-1 0.2745789946630314837 0.5744137931049803081 4.270000000000000462 #
ellipse-curve $-1 0.2600000000000000089 0.2600000000000000089 4.361000000000000654 0 0 1 0.23000000000000001 0 0 1 I I #
point $-1 0.02999999999999999889 0.2600000000000000089 4.361000000000000654 #
straight-curve $-1 0.02999999999999999889 0.5130000000000000115 4.361000000000000654 0 0 -1 I I #
vertex $-1 $650 $664 #
straight-curve $-1 0.02999999999999999889 0.2600000000000000089 4.361000000000000654 0 0 -1 I I #
ellipse-curve $-1 0.2600000000000000089 0.2600000000000000089 4.270000000000000462 0 0 1 0.23000000000000001 0 0 1 I I #
point $-1 0.2600000000000000089 0.02999999999999941255 4.270000000000000462 #
point $-1 0.2600000000000000089 0.02999999999999941255 4.361000000000000654 #
straight-curve $-1 0.02999999999999999889 0.2600000000000000089 4.270000000000000462 0 1 0 I I #
point $-1 0.02999999999999999889 0.5130000000000000115 4.270000000000000462 #
point $-1 0.02999999999999999889 0.2600000000000000089 4.270000000000000462 #
End-of-ACIS-data 