#define _width 208
#define _height 253
static char _bits[] = {
 0x00,0x00,0x00,0x00,0x00,0x00,0x00,0x00,0x00,0x00,0xfc,0xff,0x03,0x00,0x00,
 0x00,0x00,0x00,0x00,0x00,0x00,0x00,0x00,0x00,0x00,0x00,0x00,0x00,0x00,0x00,
 0x00,0x00,0x00,0x00,0x00,0xfc,0x03,0x00,0xfc,0x01,0x00,0x00,0x00,0x00,0x00,
 0x00,0x00,0x00,0x00,0x00,0x00,0x00,0x00,0x00,0x00,0x00,0x00,0x00,0x00,0x00,
 0x00,0xfc,0x03,0x00,0xfc,0x01,0x00,0x00,0x00,0x00,0x00,0x00,0x00,0x00,0x00,
 0x00,0x00,0x00,0x00,0x00,0x00,0x00,0x00,0x00,0x00,0x00,0xf8,0x03,0x00,0x00,
 0x00,0x3e,0x00,0x00,0x00,0x00,0x00,0x00,0x00,0x00,0x00,0x00,0x00,0x00,0x00,
 0x00,0x00,0x00,0x00,0x00,0x00,0x00,0x07,0xc0,0xff,0xff,0x01,0xc0,0x01,0x00,
 0x00,0x00,0x00,0x00,0x00,0x00,0x00,0x00,0x00,0x00,0x00,0x00,0x00,0x00,0x00,
 0x00,0x00,0x00,0x07,0xc0,0xff,0xff,0x01,0xc0,0x01,0x00,0x00,0x00,0x00,0x00,
 0x00,0x00,0x00,0x00,0x00,0x00,0x00,0x00,0x00,0x00,0x00,0x00,0x00,0xe0,0x00,
 0x38,0x00,0x00,0xfe,0x00,0x02,0x00,0x00,0x00,0x00,0x00,0x00,0x00,0x00,0x00,
 0x00,0x00,0x00,0x00,0x00,0x00,0x00,0x00,0x00,0x1c,0xe0,0x07,0x00,0x00,0x00,
 0x0f,0x1c,0x00,0x00,0x00,0x00,0x00,0x00,0x00,0x00,0x00,0x00,0x00,0x00,0x00,
 0x00,0x00,0x00,0x00,0x80,0x03,0x1e,0x00,0x00,0x00,0x00,0x30,0x20,0x00,0x00,
 0x00,0x00,0x00,0x00,0x00,0x00,0x00,0x00,0x00,0x00,0x00,0x00,0x00,0x00,0x00,
 0x80,0x03,0x1e,0x00,0x00,0x00,0x00,0x30,0x20,0x00,0x00,0x00,0x00,0x00,0x00,
 0x00,0x00,0x00,0x00,0x00,0x00,0x00,0x00,0x00,0x00,0x00,0x40,0xc0,0x07,0x00,
 0x00,0x00,0x00,0x40,0xc0,0x00,0x00,0x00,0x00,0x00,0x00,0x00,0x00,0x00,0x00,
 0x00,0x00,0x00,0x00,0x00,0x00,0x00,0x38,0x38,0x06,0x00,0x00,0x00,0x00,0x80,
 0x01,0x07,0x00,0x00,0x00,0x00,0x00,0x00,0x00,0x00,0x00,0x00,0x00,0x00,0x00,
 0x00,0x00,0x00,0x38,0x38,0x06,0x00,0x00,0x00,0x00,0x80,0x01,0x07,0x00,0x00,
 0x00,0x00,0x00,0x00,0x00,0x00,0x00,0x00,0x00,0x00,0x00,0x00,0x00,0x00,0x07,
 0x04,0x06,0x00,0x00,0x00,0x00,0x00,0x0e,0x08,0x00,0x00,0x00,0x00,0x00,0x00,
 0x00,0x00,0x00,0x00,0x00,0x00,0x00,0x00,0x00,0xc0,0x80,0x03,0x06,0x00,0x00,
 0x00,0x00,0x00,0x10,0x30,0x00,0x00,0x00,0x00,0x00,0x00,0x00,0x00,0x00,0x00,
 0x00,0x00,0x00,0x00,0x00,0xc0,0x80,0x03,0x06,0x00,0x00,0x00,0x00,0x00,0x10,
 0x30,0x00,0x00,0x00,0x00,0x00,0x00,0x00,0x00,0x00,0x00,0x00,0x00,0x00,0x00,
 0x00,0x30,0x40,0x00,0x06,0x00,0x00,0x00,0x00,0x00,0x20,0x30,0x00,0x00,0x00,
 0x00,0x00,0x00,0x00,0x00,0x00,0x00,0x00,0x00,0x00,0x00,0x00,0x0e,0x38,0x00,
 0x06,0x00,0x00,0x00,0x00,0x00,0x20,0x40,0x00,0x00,0x00,0x00,0x00,0x00,0x00,
 0x00,0x00,0x00,0x00,0x00,0x00,0x00,0x00,0x0e,0x38,0x00,0x06,0x00,0x00,0x00,
 0x00,0x00,0x20,0x40,0x00,0x00,0x00,0x00,0x00,0x00,0x00,0x00,0x00,0x00,0x00,
 0x00,0x00,0x00,0x80,0x01,0x07,0x00,0x06,0x00,0x00,0x00,0x00,0x00,0xc0,0x40,
 0x00,0x00,0x00,0x00,0x00,0x00,0x00,0x00,0x00,0x00,0x00,0x00,0x00,0x00,0x70,
 0xc0,0x00,0x00,0x06,0x00,0x00,0x00,0x00,0x00,0xc0,0x40,0x00,0x00,0x00,0x00,
 0x00,0x00,0x00,0x00,0x00,0x00,0x00,0x00,0x00,0x00,0x0e,0x30,0x00,0x00,0x06,
 0x00,0xfc,0xff,0x01,0x00,0xc0,0x40,0x00,0x00,0x00,0x00,0x00,0x00,0x00,0x00,
 0x00,0x00,0x00,0x00,0x00,0x00,0x0e,0x30,0x00,0x00,0x06,0x00,0xfc,0xff,0x01,
 0x00,0xc0,0x40,0x00,0x00,0x00,0x00,0x00,0x00,0x00,0x00,0x00,0x00,0x00,0x00,
 0x00,0x00,0x01,0x0c,0x00,0x00,0x06,0xe0,0x03,0x00,0x7e,0x00,0xc0,0x40,0x00,
 0x00,0x00,0x00,0x00,0x00,0x00,0x00,0x00,0x00,0x00,0x00,0x00,0xe0,0x80,0x03,
 0x00,0x00,0x86,0x1f,0x00,0x00,0x80,0x01,0xc0,0x40,0x00,0x00,0x00,0x00,0x00,
 0x00,0x00,0x00,0x00,0x00,0x00,0x00,0x00,0xe0,0x80,0x03,0x00,0x00,0x86,0x1f,
 0x00,0x00,0x80,0x01,0xc0,0x40,0x00,0x00,0x00,0x00,0x00,0x00,0x00,0x00,0x00,
 0x00,0x00,0x00,0x00,0x1c,0x70,0x00,0x00,0x00,0x76,0x00,0x00,0x00,0x00,0x0e,
 0x20,0x40,0x00,0x00,0x00,0x00,0x00,0x00,0x00,0x00,0x00,0x00,0x00,0x00,0x00,
 0x02,0x08,0x00,0x00,0x00,0x0e,0x00,0x00,0x00,0x00,0x70,0x20,0x30,0x00,0x00,
 0x00,0x00,0x00,0x00,0x00,0x00,0x00,0x00,0x00,0x00,0x00,0x02,0x08,0x00,0x00,
 0x00,0x0e,0x00,0x00,0x00,0x00,0x70,0x20,0x30,0x00,0x00,0x00,0x00,0x00,0x00,
 0x00,0x00,0x00,0x00,0x00,0x00,0xc0,0x01,0x07,0x00,0x00,0xc0,0x01,0x00,0x00,
 0x00,0x00,0x80,0x21,0x30,0x00,0x00,0x00,0x00,0x00,0x00,0x00,0x00,0x00,0x00,
 0x00,0x00,0x38,0x80,0x00,0x00,0x00,0x38,0x00,0x00,0x00,0x00,0x00,0x00,0x1e,
 0x30,0x00,0x00,0x00,0x00,0x00,0x00,0x00,0x00,0x00,0x00,0x00,0x00,0x04,0x70,
 0x00,0x00,0x00,0x04,0x00,0x00,0x00,0x00,0x00,0x00,0x10,0x08,0x00,0x00,0x00,
 0x00,0x00,0x00,0x00,0x00,0x00,0x00,0x00,0x00,0x04,0x70,0x00,0x00,0x00,0x04,
 0x00,0x00,0x00,0x00,0x00,0x00,0x10,0x08,0x00,0x00,0x00,0x00,0x00,0x00,0x00,
 0x00,0x00,0x00,0x00,0x00,0x03,0x0e,0x00,0x00,0x80,0x03,0x00,0x00,0xe0,0x0f,
 0x00,0x00,0x10,0x08,0x00,0x00,0x00,0x00,0x00,0x00,0x00,0x00,0x00,0x00,0x00,
 0x80,0x80,0x01,0x00,0x00,0x70,0x00,0x00,0x00,0x1c,0x30,0x00,0x00,0x10,0x08,
 0x00,0x00,0x00,0x00,0x00,0x00,0x00,0x00,0x00,0x00,0x00,0x80,0x80,0x01,0x00,
 0x00,0x70,0x00,0x00,0x00,0x1c,0x30,0x00,0x00,0x10,0x08,0x00,0x00,0x00,0x00,
 0x00,0x00,0x00,0x00,0x00,0x00,0x00,0x70,0xf0,0x01,0x00,0x00,0x0e,0x00,0x00,
 0xc0,0x03,0xc0,0x03,0x00,0x10,0x08,0x00,0x00,0x00,0x00,0x00,0x00,0x00,0x00,
 0x00,0x00,0x00,0x0c,0x88,0x01,0x00,0x00,0x01,0x00,0x00,0xc0,0x00,0x00,0x0c,
 0x00,0x30,0x08,0x00,0x00,0x00,0x00,0x00,0x00,0x00,0x00,0x00,0x00,0x00,0x0c,
 0x88,0x01,0x00,0x00,0x01,0x00,0x00,0xc0,0x00,0x00,0x0c,0x00,0x30,0x08,0x00,
 0x00,0x00,0x00,0x00,0x00,0x00,0x00,0x00,0x00,0x00,0x02,0x87,0x01,0x00,0xe0,
 0x00,0x00,0x00,0xc0,0x00,0x00,0x0c,0x00,0x30,0x30,0x00,0x00,0x00,0x00,0x00,
 0x00,0x00,0x00,0x00,0x00,0x00,0x81,0x80,0x01,0x00,0x1c,0x00,0x00,0x00,0x20,
 0x00,0x00,0x0c,0x00,0xd0,0x30,0x00,0x00,0x00,0x00,0x00,0x00,0x00,0x00,0x00,
 0x00,0x00,0x81,0x80,0x01,0x00,0x1c,0x00,0x00,0x00,0x20,0x00,0x00,0x0c,0x00,
 0xd0,0x30,0x00,0x00,0x00,0x00,0x00,0x00,0x00,0x00,0x00,0x00,0xc0,0x60,0x80,
 0x01,0x00,0x02,0x00,0x00,0x00,0xc0,0x00,0x00,0x0c,0x00,0xd0,0x40,0x00,0x00,
 0x00,0x00,0x00,0x00,0x00,0x00,0x00,0x00,0xc0,0x10,0x80,0x01,0xc0,0x01,0x00,
 0x00,0x00,0xc0,0x00,0x00,0x02,0x00,0x10,0x81,0x00,0x00,0x00,0x00,0x00,0x00,
 0x00,0x00,0x00,0x00,0x20,0x10,0x80,0x01,0x38,0x00,0x00,0x00,0x00,0x00,0x0f,
 0xf0,0x01,0x00,0x10,0x06,0x07,0x00,0x00,0x00,0x00,0x00,0x00,0x00,0x00,0x00,
 0x20,0x10,0x80,0x01,0x38,0x00,0x00,0x00,0x00,0x00,0x0f,0xf0,0x01,0x00,0x10,
 0x06,0x07,0x00,0x00,0x00,0x00,0x00,0x00,0x00,0x00,0x00,0x18,0x0c,0x80,0x01,
 0x07,0x00,0x00,0x00,0x00,0x00,0xf0,0x0f,0x00,0x00,0x10,0x08,0x18,0x00,0x00,
 0x00,0x00,0x00,0x00,0x00,0x00,0x00,0x04,0x02,0x80,0x81,0x00,0x00,0x00,0xfc,
 0x0f,0x00,0x00,0x00,0x00,0x00,0x10,0x70,0xe0,0x00,0x00,0x00,0x00,0x00,0x00,
 0x00,0x00,0x00,0x04,0x02,0x80,0x81,0x00,0x00,0x00,0xfc,0x0f,0x00,0x00,0x00,
 0x00,0x00,0x10,0x70,0xe0,0x00,0x00,0x00,0x00,0x00,0x00,0x00,0x00,0x00,0x04,
 0x02,0x80,0x71,0x00,0x00,0xfe,0x03,0xf0,0x1f,0x00,0x00,0x00,0x00,0x10,0x80,
 0x00,0x07,0x00,0x00,0x00,0x00,0x00,0x00,0x00,0x00,0x04,0x02,0x80,0x0f,0x00,
 0xf0,0x01,0x00,0x00,0xe0,0x03,0x00,0x00,0x00,0x10,0x80,0x07,0x18,0x00,0x00,
 0x00,0x00,0x00,0x00,0x00,0x00,0x04,0x02,0x80,0x0f,0x00,0xf0,0x01,0x00,0x00,
 0xe0,0x03,0x00,0x00,0x00,0x10,0x80,0x07,0x18,0x00,0x00,0x00,0x00,0x00,0x00,
 0x00,0x00,0x04,0x02,0x80,0x01,0x80,0x0f,0x00,0x00,0x00,0x00,0x7c,0x00,0x00,
 0x00,0x10,0x80,0x38,0x60,0x00,0x00,0x00,0x00,0x00,0x00,0x00,0x00,0x03,0x01,
 0x70,0x00,0x70,0x00,0x00,0x00,0x00,0x00,0x80,0x03,0x00,0x00,0x10,0x80,0xc0,
 0x80,0x03,0x00,0x00,0x00,0x00,0x00,0x00,0x00,0x03,0x01,0x70,0x00,0x70,0x00,
 0x00,0x00,0x00,0x00,0x80,0x03,0x00,0x00,0x10,0x80,0xc0,0x80,0x03,0x00,0x00,
 0x00,0x00,0x00,0x00,0x00,0x03,0x01,0x08,0x00,0x0e,0x00,0x00,0x00,0x00,0x00,
 0x00,0x0c,0x00,0x00,0x10,0x80,0x00,0x07,0x1c,0x00,0x00,0x00,0x00,0x00,0x00,
 0x00,0x03,0x01,0x07,0x80,0x01,0x00,0x00,0x00,0x00,0x00,0x00,0x70,0x00,0x00,
 0x20,0x80,0x00,0x18,0x20,0x00,0x00,0x00,0x00,0x00,0x00,0x00,0x03,0x81,0x00,
 0x70,0x00,0x00,0x00,0x00,0x00,0x00,0x00,0xc0,0x03,0x00,0x20,0x80,0x00,0x60,
 0xc0,0x01,0x00,0x00,0x00,0x00,0x00,0x00,0x03,0x81,0x00,0x70,0x00,0x00,0x00,
 0x00,0x00,0x00,0x00,0xc0,0x03,0x00,0x20,0x80,0x00,0x60,0xc0,0x01,0x00,0x00,
 0x00,0x00,0x00,0x00,0x03,0x61,0x00,0x0e,0x00,0x00,0x00,0x00,0x00,0x00,0x00,
 0x40,0x1c,0x00,0xc0,0x80,0x00,0x80,0x03,0x0e,0x00,0x00,0x00,0x00,0x00,0x00,
 0x07,0x62,0x80,0x01,0x00,0x00,0x00,0x00,0x00,0x00,0x00,0x40,0xe0,0x00,0x00,
 0x81,0x00,0x00,0x1c,0x70,0x00,0x00,0x00,0x00,0x00,0x00,0x07,0x62,0x80,0x01,
 0x00,0x00,0x00,0x00,0x00,0x00,0x00,0x40,0xe0,0x00,0x00,0x81,0x00,0x00,0x1c,
 0x70,0x00,0x00,0x00,0x00,0x00,0x00,0x07,0x12,0x40,0x00,0x00,0x00,0x00,0x00,
 0x00,0x00,0x00,0x40,0x00,0x01,0x00,0x81,0x00,0x00,0x20,0x80,0x00,0x00,0x00,
 0x00,0x00,0x00,0x07,0x0e,0x40,0x00,0x00,0x00,0x00,0x00,0x00,0x00,0x00,0x40,
 0x00,0x0e,0x00,0x86,0x00,0x00,0xc0,0x01,0x07,0x00,0x00,0x00,0x00,0x00,0x07,
 0x0e,0x40,0x00,0x00,0x00,0x00,0x00,0x00,0x00,0x00,0x40,0x00,0x0e,0x00,0x86,
 0x00,0x00,0xc0,0x01,0x07,0x00,0x00,0x00,0x00,0x00,0x07,0x0e,0x30,0x00,0x00,
 0x00,0x00,0x00,0x00,0x00,0x00,0x40,0x00,0x70,0x00,0xb8,0x00,0x00,0x00,0x0e,
 0x38,0x00,0x00,0x00,0x00,0x00,0x1b,0x0e,0x30,0x00,0x00,0x00,0x00,0x00,0x00,
 0x00,0x00,0x40,0x00,0x80,0x01,0xc0,0x00,0x00,0x00,0x70,0xc0,0x01,0x00,0x00,
 0x00,0x00,0x23,0x10,0x08,0x00,0x00,0x00,0x00,0x00,0x00,0x00,0x00,0x40,0x00,
 0x00,0x0e,0x00,0x07,0x00,0x00,0x80,0x00,0x02,0x00,0x00,0x00,0x00,0x23,0x10,
 0x08,0x00,0x00,0x00,0x00,0x00,0x00,0x00,0x00,0x40,0x00,0x00,0x0e,0x00,0x07,
 0x00,0x00,0x80,0x00,0x02,0x00,0x00,0x00,0x00,0xc3,0x10,0x08,0x00,0x00,0x00,
 0x00,0x00,0x00,0x00,0x00,0x40,0x00,0x00,0x30,0x00,0x38,0x00,0x00,0x00,0x07,
 0x1c,0x00,0x00,0x00,0x00,0xc3,0x60,0x08,0x00,0x00,0x00,0x00,0x00,0x00,0x00,
 0x00,0x40,0x00,0x00,0xc0,0x01,0xc0,0x00,0x00,0x00,0x38,0xe0,0x00,0x00,0x00,
 0x00,0xc3,0x60,0x08,0x00,0x00,0x00,0x00,0x00,0x00,0x00,0x00,0x40,0x00,0x00,
 0xc0,0x01,0xc0,0x00,0x00,0x00,0x38,0xe0,0x00,0x00,0x00,0x00,0x03,0x81,0x04,
 0x00,0x00,0x00,0x00,0x00,0x00,0x00,0x00,0x40,0x00,0x00,0x00,0x06,0x00,0x07,
 0x00,0x00,0x40,0x00,0x01,0x00,0x00,0x00,0x03,0x02,0x07,0x00,0x00,0x00,0x00,
 0x00,0x00,0x00,0x00,0x40,0x00,0x00,0x00,0x38,0x00,0x18,0x00,0x00,0x80,0x03,
 0x0e,0x00,0x00,0x00,0x03,0x02,0x07,0x00,0x00,0x00,0x00,0x00,0x00,0x00,0x00,
 0x40,0x00,0x00,0x00,0x38,0x00,0x18,0x00,0x00,0x80,0x03,0x0e,0x00,0x00,0x00,
 0x03,0x0c,0x04,0x00,0x00,0x00,0x00,0x00,0x00,0x00,0x00,0x40,0x00,0x00,0x00,
 0xc0,0x00,0x60,0x00,0x00,0x00,0x1c,0x70,0x00,0x00,0x00,0x03,0x10,0x38,0x00,
 0x00,0x00,0x00,0x00,0x00,0x00,0x00,0x40,0x00,0x00,0x00,0x00,0x03,0x80,0x03,
 0x00,0x00,0x60,0x80,0x03,0x00,0x00,0x03,0x10,0x38,0x00,0x00,0x00,0x00,0x00,
 0x00,0x00,0x00,0x40,0x00,0x00,0x00,0x00,0x03,0x80,0x03,0x00,0x00,0x60,0x80,
 0x03,0x00,0x00,0x03,0x60,0x40,0x00,0x00,0x00,0x00,0x00,0x00,0x00,0x00,0x40,
 0x00,0x00,0x00,0x00,0x1c,0x00,0x1c,0x00,0x00,0x80,0x01,0x0c,0x00,0x00,0x03,
 0x80,0x80,0x01,0x00,0x00,0x00,0x00,0x00,0x00,0x00,0x40,0x00,0x00,0x00,0x00,
 0xe0,0x00,0x20,0x00,0x00,0x00,0x0e,0x30,0x00,0x00,0x03,0x00,0x03,0x0e,0x00,
 0x00,0x00,0x00,0x00,0x00,0x00,0x40,0x00,0x00,0x00,0x00,0x00,0x07,0xc0,0x01,
 0x00,0x00,0x30,0xc0,0x00,0x00,0x03,0x00,0x03,0x0e,0x00,0x00,0x00,0x00,0x00,
 0x00,0x00,0x40,0x00,0x00,0x00,0x00,0x00,0x07,0xc0,0x01,0x00,0x00,0x30,0xc0,
 0x00,0x00,0x03,0x00,0x04,0x70,0x00,0x00,0x00,0x00,0x00,0x00,0x00,0x40,0x00,
 0x00,0x00,0x00,0x00,0x08,0x00,0x0e,0x00,0x00,0xf0,0x01,0x01,0x00,0x03,0x00,
 0x3c,0x80,0x01,0x00,0x00,0x00,0x00,0x00,0x00,0x40,0x00,0x00,0x00,0x00,0x00,
 0x70,0x00,0x70,0x00,0x00,0x30,0x02,0x0e,0x00,0x03,0x00,0x3c,0x80,0x01,0x00,
 0x00,0x00,0x00,0x00,0x00,0x40,0x00,0x00,0x00,0x00,0x00,0x70,0x00,0x70,0x00,
 0x00,0x30,0x02,0x0e,0x00,0x03,0x00,0xc4,0x01,0x06,0x00,0x00,0x00,0x00,0x00,
 0x00,0x40,0x00,0x00,0x00,0x00,0x00,0x80,0x03,0x80,0x00,0x00,0x30,0x1c,0x30,
 0x00,0x03,0x00,0x04,0x0e,0x38,0x00,0x00,0x00,0x00,0x00,0x00,0x40,0x00,0x00,
 0x00,0x00,0x00,0x00,0x04,0x00,0x07,0x00,0x30,0x20,0x40,0x00,0x03,0x00,0x04,
 0x0e,0x38,0x00,0x00,0x00,0x00,0x00,0x00,0x40,0x00,0x00,0x00,0x00,0x00,0x00,
 0x04,0x00,0x07,0x00,0x30,0x20,0x40,0x00,0x03,0x00,0x04,0x10,0xc0,0x01,0x00,
 0x00,0x00,0x00,0x00,0x40,0x00,0x00,0x00,0x00,0x00,0x00,0x38,0x00,0x38,0x00,
 0x30,0xc0,0x80,0x00,0x03,0x00,0x04,0xe0,0x00,0x0e,0x00,0x00,0x00,0x00,0x00,
 0x40,0x00,0x00,0x00,0x00,0x00,0x00,0xc0,0x01,0x40,0x00,0x30,0x00,0x81,0x00,
 0x03,0x00,0x04,0xe0,0x00,0x0e,0x00,0x00,0x00,0x00,0x00,0x40,0x00,0x00,0x00,
 0x00,0x00,0x00,0xc0,0x01,0x40,0x00,0x30,0x00,0x81,0x00,0x03,0x00,0x04,0x00,
 0x07,0x10,0x00,0x00,0x00,0x00,0x00,0x40,0x00,0x00,0x00,0x00,0x00,0x00,0x00,
 0x0e,0x80,0x03,0x30,0x00,0x01,0x03,0x03,0x00,0x04,0x00,0x38,0xe0,0x00,0x00,
 0x00,0x00,0x00,0x40,0x00,0x00,0x00,0x00,0x00,0x00,0x00,0x10,0x00,0x1c,0x30,
 0x00,0x06,0x04,0x03,0x00,0x04,0x00,0x40,0x00,0x07,0xfc,0x0f,0x00,0x00,0x40,
 0x00,0x00,0x00,0x00,0x00,0x00,0x00,0xe0,0x00,0x60,0x30,0x00,0x08,0x04,0x03,
 0x00,0x04,0x00,0x40,0x00,0x07,0xfc,0x0f,0x00,0x00,0x40,0x00,0x00,0x00,0x00,
 0x00,0x00,0x00,0xe0,0x00,0x60,0x30,0x00,0x08,0x04,0x03,0x00,0x04,0x00,0x80,
 0x03,0xf8,0x03,0xf0,0x1f,0x00,0x40,0x00,0x00,0x00,0x00,0x00,0x00,0x00,0x00,
 0x07,0x80,0x31,0x00,0x08,0x18,0x03,0x00,0x04,0x00,0x00,0x1c,0x40,0x00,0x00,
 0xe0,0x03,0x40,0x00,0x00,0x00,0x00,0x00,0x00,0x00,0x00,0x08,0x00,0x3e,0x00,
 0x30,0x18,0x03,0x00,0x04,0x00,0x00,0x1c,0x40,0x00,0x00,0xe0,0x03,0x40,0x00,
 0x00,0x00,0x00,0x00,0x00,0x00,0x00,0x08,0x00,0x3e,0x00,0x30,0x18,0x03,0x00,
 0x04,0x00,0x00,0xe0,0x80,0x03,0x00,0x00,0x7c,0x40,0x00,0x00,0x00,0x00,0x00,
 0x00,0x00,0x00,0x70,0x00,0x30,0x00,0x30,0x18,0x03,0x00,0x04,0x00,0x00,0x00,
 0x01,0x1c,0x00,0x00,0x80,0x4f,0x00,0x00,0x00,0x00,0x00,0x00,0x00,0x00,0x80,
 0x03,0xc0,0x01,0x40,0x20,0x03,0x00,0x04,0x00,0x00,0x00,0x01,0x1c,0x00,0x00,
 0x80,0x4f,0x00,0x00,0x00,0x00,0x00,0x00,0x00,0x00,0x80,0x03,0xc0,0x01,0x40,
 0x20,0x03,0x00,0x04,0x00,0x00,0x00,0x0e,0xe0,0x00,0x00,0x00,0x70,0x00,0x00,
 0x00,0x00,0x00,0x00,0x00,0x00,0x00,0x1c,0x00,0x02,0x40,0x20,0x03,0x00,0x04,
 0x00,0x00,0x00,0x70,0x00,0x01,0x00,0x00,0x80,0x03,0x00,0x00,0x00,0x00,0x00,
 0x00,0x00,0x00,0x60,0x00,0x1c,0x40,0x20,0x03,0x00,0x04,0x00,0x00,0x00,0x80,
 0x03,0x0e,0x00,0x00,0x00,0x1c,0x00,0x00,0x00,0x00,0x00,0x00,0x00,0x00,0xe0,
 0x00,0x20,0x40,0x20,0x03,0x00,0x04,0x00,0x00,0x00,0x80,0x03,0x0e,0x00,0x00,
 0x00,0x1c,0x00,0x00,0x00,0x00,0x00,0x00,0x00,0x00,0xe0,0x00,0x20,0x40,0x20,
 0x03,0x00,0x04,0x00,0x00,0x00,0x00,0x04,0x70,0x00,0x00,0x00,0x60,0x00,0x00,
 0x00,0x00,0x00,0x00,0x00,0x00,0x60,0x07,0xc0,0x40,0x20,0x03,0x00,0x04,0x00,
 0x00,0x00,0x00,0x38,0x80,0x03,0x00,0x00,0x80,0x01,0x00,0x00,0x00,0x00,0x00,
 0x00,0x00,0x60,0x08,0x00,0x41,0x20,0x03,0x00,0x04,0x00,0x00,0x00,0x00,0x38,
 0x80,0x03,0x00,0x00,0x80,0x01,0x00,0x00,0x00,0x00,0x00,0x00,0x00,0x60,0x08,
 0x00,0x41,0x20,0x03,0x00,0x04,0x00,0x00,0x00,0x00,0xc0,0x01,0x04,0x00,0x00,
 0x00,0x0e,0x00,0x00,0x00,0x00,0x00,0x00,0x00,0x60,0x30,0x00,0x41,0x20,0x03,
 0x00,0x04,0x00,0x00,0x00,0x00,0x00,0x0e,0x38,0x00,0x00,0x00,0x30,0x00,0x00,
 0x00,0x00,0x00,0x00,0x00,0x60,0x40,0x00,0x46,0x20,0x03,0x00,0x04,0x00,0x00,
 0x00,0x00,0x00,0x0e,0x38,0x00,0x00,0x00,0x30,0x00,0x00,0x00,0x00,0x00,0x00,
 0x00,0x60,0x40,0x00,0x46,0x20,0x03,0x00,0x04,0x00,0x00,0x00,0x00,0x00,0x10,
 0xc0,0x01,0x00,0x00,0xc0,0x01,0x00,0x00,0x00,0x00,0x00,0x00,0x60,0x80,0x01,
 0x48,0x20,0x03,0x00,0x04,0x00,0x00,0x00,0x00,0x00,0xe0,0x00,0x0e,0x00,0x00,
 0x00,0x0e,0x00,0x00,0x00,0x00,0x00,0x00,0x60,0x80,0x01,0x48,0x20,0x03,0x00,
 0x04,0x00,0x00,0x00,0x00,0x00,0xe0,0x00,0x0e,0x00,0x00,0x00,0x0e,0x00,0x00,
 0x00,0x00,0x00,0x00,0x60,0x80,0x01,0x48,0x20,0x03,0x00,0x04,0x00,0x00,0x00,
 0x00,0x00,0x00,0x07,0x10,0x00,0x00,0x00,0x10,0x00,0x00,0x00,0x00,0x00,0x00,
 0x60,0x00,0x02,0x70,0x20,0x03,0x00,0x04,0x00,0x00,0x00,0x00,0x00,0x00,0x38,
 0xe0,0x00,0x00,0x00,0xe0,0x00,0x00,0x00,0x00,0x00,0x00,0x60,0x00,0x02,0x70,
 0x20,0x03,0x00,0x04,0x00,0x00,0x00,0x00,0x00,0x00,0xc0,0x00,0x07,0x00,0x00,
 0x00,0x07,0x00,0x00,0x00,0x00,0x00,0x60,0x00,0x0c,0x70,0x20,0x03,0x00,0x04,
 0x00,0x00,0x00,0x00,0x00,0x00,0xc0,0x00,0x07,0x00,0x00,0x00,0x07,0x00,0x00,
 0x00,0x00,0x00,0x60,0x00,0x0c,0x70,0x20,0x03,0x00,0x04,0x00,0x00,0x00,0x00,
 0x00,0x00,0x00,0x03,0xfc,0xff,0x0f,0x00,0x08,0x00,0x00,0x00,0x00,0x00,0x60,
 0x00,0x0c,0x40,0x20,0x03,0x00,0x04,0x00,0x00,0x00,0x00,0x00,0x00,0x00,0x1c,
 0xc0,0x01,0x70,0x00,0x70,0x00,0x00,0x00,0x00,0x00,0x60,0x00,0x10,0xc0,0xc0,
 0x03,0x00,0x04,0x00,0x00,0x00,0x00,0x00,0x00,0x00,0x1c,0xc0,0x01,0x70,0x00,
 0x70,0x00,0x00,0x00,0x00,0x00,0x60,0x00,0x10,0xc0,0xc0,0x03,0x00,0x04,0x00,
 0x00,0x00,0x00,0x00,0x00,0x00,0xe0,0x00,0x02,0x80,0x1f,0x80,0x03,0x00,0x00,
 0x00,0x00,0x60,0x00,0x10,0xc0,0xc0,0x03,0x00,0x04,0x00,0x00,0x00,0x00,0x00,
 0x00,0x00,0x00,0x07,0x1c,0x00,0xe0,0x01,0x04,0x00,0x00,0x00,0x00,0x60,0x00,
 0x10,0xc0,0xc0,0x03,0x00,0x04,0x00,0x00,0x00,0x00,0x00,0x00,0x00,0x00,0x07,
 0x1c,0x00,0xe0,0x01,0x04,0x00,0x00,0x00,0x00,0x60,0x00,0x10,0xc0,0xc0,0x03,
 0x00,0x04,0x00,0x00,0x00,0x00,0x00,0x00,0x00,0x00,0x08,0xe0,0x00,0x00,0x0f,
 0x38,0x00,0x00,0x00,0x00,0x60,0x00,0x0c,0xc0,0xc0,0x03,0x00,0x04,0x00,0x00,
 0x00,0x00,0x00,0x00,0x00,0x00,0x70,0x00,0x3f,0x00,0x31,0xc0,0x01,0x00,0x00,
 0x00,0x60,0x00,0x0c,0xc0,0xc0,0x03,0x00,0x04,0x00,0x00,0x00,0x00,0x00,0x00,
 0x00,0x00,0x70,0x00,0x3f,0x00,0x31,0xc0,0x01,0x00,0x00,0x00,0x60,0x00,0x0c,
 0xc0,0xc0,0x03,0x00,0x04,0x00,0x00,0x00,0x00,0x00,0x00,0x00,0x00,0x80,0x03,
 0xc8,0x0f,0xc1,0x00,0x06,0x00,0x00,0x00,0x60,0x00,0x02,0xc0,0xc0,0x03,0x00,
 0x04,0x00,0x00,0x00,0x00,0x00,0x00,0x00,0x00,0x00,0x1c,0x70,0x30,0x01,0x07,
 0x18,0x00,0x00,0x00,0x60,0x80,0x01,0xc0,0xc0,0x03,0x00,0x04,0x00,0x00,0x00,
 0x00,0x00,0x00,0x00,0x00,0x00,0x60,0x80,0xc3,0x01,0x18,0xe0,0x00,0x00,0x00,
 0x60,0x80,0x01,0xc0,0xc0,0x03,0x00,0x04,0x00,0x00,0x00,0x00,0x00,0x00,0x00,
 0x00,0x00,0x60,0x80,0xc3,0x01,0x18,0xe0,0x00,0x00,0x00,0x60,0x80,0x01,0xc0,
 0xc0,0x04,0x00,0x04,0x00,0x00,0x00,0x00,0x00,0x00,0x00,0x00,0x00,0x80,0x01,
 0x1c,0x0e,0xe0,0x00,0x03,0x00,0x00,0x60,0x40,0x00,0xc0,0xc0,0x04,0x00,0x04,
 0x00,0x00,0x00,0x00,0x00,0x00,0x00,0x00,0x00,0x00,0x0e,0x20,0x30,0x00,0x01,
 0x1c,0x00,0x00,0x60,0x30,0x00,0xc0,0xc0,0x04,0x00,0x04,0x00,0x00,0x00,0x00,
 0x00,0x00,0x00,0x00,0x00,0x00,0x0e,0x20,0x30,0x00,0x01,0x1c,0x00,0x00,0x60,
 0x30,0x00,0xc0,0xc0,0x04,0x00,0x04,0x00,0x00,0x00,0x00,0x00,0x00,0x00,0x00,
 0x00,0x00,0x70,0xc0,0xc1,0x00,0x07,0xe0,0x00,0x00,0x60,0x08,0x00,0xc0,0xc0,
 0x04,0x00,0x04,0x00,0x00,0x00,0x00,0x00,0x00,0x00,0x00,0x00,0x00,0x80,0x01,
 0x0e,0x07,0x19,0x00,0x01,0x00,0x60,0x07,0x00,0xc0,0xc0,0x04,0x00,0x04,0x00,
 0x00,0x00,0x00,0x00,0x00,0x00,0x00,0x00,0x00,0x80,0x01,0x0e,0x07,0x19,0x00,
 0x01,0x00,0x60,0x07,0x00,0xc0,0xc0,0x18,0x00,0x04,0x00,0x00,0x00,0x00,0x00,
 0x00,0x00,0x00,0x00,0x00,0x00,0x0e,0x70,0x18,0x61,0x00,0x0e,0x00,0xe0,0x00,
 0x00,0x80,0xc0,0x20,0x00,0x04,0x00,0x00,0x00,0x00,0x00,0x00,0x00,0x00,0x00,
 0x00,0x00,0x30,0x80,0xe0,0x81,0x00,0x70,0x00,0x60,0x00,0x00,0x80,0xc0,0xc0,
 0x00,0x04,0x00,0x00,0x00,0x00,0x00,0x00,0x00,0x00,0x00,0x00,0x00,0xc0,0x01,
 0x07,0x81,0x00,0x80,0x00,0x7c,0x00,0x00,0x80,0xc0,0xc0,0x00,0x04,0x00,0x00,
 0x00,0x00,0x00,0x00,0x00,0x00,0x00,0x00,0x00,0xc0,0x01,0x07,0x81,0x00,0x80,
 0x00,0x7c,0x00,0x00,0x80,0xc0,0xc0,0x00,0x04,0x00,0x00,0x00,0x00,0x00,0x00,
 0x00,0x00,0x00,0x00,0x00,0x00,0x06,0x38,0x06,0x03,0x00,0x87,0x63,0x00,0x00,
 0x80,0xc0,0x00,0x01,0x04,0x00,0x00,0x00,0x00,0x00,0x00,0x00,0x00,0x00,0x00,
 0x00,0x00,0x38,0xc0,0x19,0x03,0x00,0x78,0x60,0x00,0x00,0xc0,0xc0,0x00,0x01,
 0x04,0x00,0x00,0x00,0x00,0x00,0x00,0x00,0x00,0x00,0x00,0x00,0x00,0x38,0xc0,
 0x19,0x03,0x00,0x78,0x60,0x00,0x00,0xc0,0xc0,0x00,0x02,0x04,0x00,0x00,0x00,
 0x00,0x00,0x00,0x00,0x00,0x00,0x00,0x00,0x00,0xc0,0x00,0x66,0x04,0xe0,0x47,
 0x60,0x00,0x00,0xc0,0xe0,0x00,0x0c,0x04,0x00,0x00,0x00,0x00,0x00,0x00,0x00,
 0x00,0x00,0x00,0x00,0x00,0x00,0x07,0x98,0xff,0x1f,0x80,0x63,0x00,0x00,0xb0,
 0xe0,0x00,0x0c,0x04,0x00,0x00,0x00,0x00,0x00,0x00,0x00,0x00,0x00,0x00,0x00,
 0x00,0x00,0x07,0x98,0xff,0x1f,0x80,0x63,0x00,0x00,0xb0,0xe0,0x00,0x10,0x04,
 0x00,0x00,0x00,0x00,0x00,0x00,0x00,0x00,0x00,0x00,0x00,0x00,0x00,0x18,0xe0,
 0x00,0x00,0x00,0x7c,0x00,0x00,0x8e,0xd8,0x00,0xe0,0x04,0x00,0x00,0x00,0x00,
 0x00,0x00,0x00,0x00,0x00,0x00,0x00,0x00,0x00,0xe0,0x00,0x07,0x00,0xc0,0x7f,
 0x00,0x00,0x81,0xc4,0x00,0xe0,0x04,0x00,0x00,0x00,0x00,0x00,0x00,0x00,0x00,
 0x00,0x00,0x00,0x00,0x00,0xe0,0x00,0x07,0x00,0xc0,0x7f,0x00,0x00,0x81,0xc4,
 0x00,0x00,0x07,0x00,0x00,0x00,0x00,0x00,0x00,0x00,0x00,0x00,0x00,0x00,0x00,
 0x00,0x00,0x07,0x18,0x00,0x3c,0xe0,0x01,0xe0,0x80,0xc3,0x00,0x00,0x04,0x00,
 0x00,0x00,0x00,0x00,0x00,0x00,0x00,0x00,0x00,0x00,0x00,0x00,0x00,0x18,0xe0,
 0x80,0x03,0x00,0x06,0x1c,0xc0,0xc0,0x00,0x00,0x38,0x00,0x00,0x00,0x00,0x00,
 0x00,0x00,0x00,0x00,0x00,0x00,0x00,0x00,0x00,0xe0,0x00,0x8f,0x00,0x00,0x88,
 0x03,0xb8,0xc0,0x00,0x00,0x38,0x00,0x00,0x00,0x00,0x00,0x00,0x00,0x00,0x00,
 0x00,0x00,0x00,0x00,0x00,0xe0,0x00,0x8f,0x00,0x00,0x88,0x03,0xb8,0xc0,0x00,
 0x00,0xc0,0x01,0x00,0x00,0x00,0x00,0x00,0x00,0x00,0x00,0x00,0x00,0x00,0x00,
 0x00,0x60,0x07,0xf0,0x07,0xfc,0x7f,0xc0,0x87,0xc0,0x00,0x00,0x00,0x0e,0x00,
 0x00,0x00,0x00,0x00,0x00,0x00,0x00,0x00,0x00,0x00,0x00,0x00,0x60,0xf8,0x00,
 0xf8,0x03,0x00,0x3c,0x00,0xc0,0x00,0x00,0x00,0x0e,0x00,0x00,0x00,0x00,0x00,
 0x00,0x00,0x00,0x00,0x00,0x00,0x00,0x00,0x60,0xf8,0x00,0xf8,0x03,0x00,0x3c,
 0x00,0xc0,0x00,0x00,0x00,0x10,0x00,0x00,0x00,0x00,0x00,0x00,0x00,0x00,0x00,
 0x00,0x00,0x00,0x00,0x60,0x00,0x0f,0x00,0x00,0xf0,0x03,0x00,0xc0,0x00,0x00,
 0x00,0xe0,0x00,0x00,0x00,0x00,0x00,0x00,0x00,0x00,0x00,0x00,0x00,0x00,0x00,
 0x60,0x00,0xf0,0xff,0xff,0x0f,0x00,0x00,0xc0,0x00,0x00,0x00,0xe0,0x00,0x00,
 0x00,0x00,0x00,0x00,0x00,0x00,0x00,0x00,0x00,0x00,0x00,0x60,0x00,0xf0,0xff,
 0xff,0x0f,0x00,0x00,0xc0,0x00,0x00,0x00,0x00,0x07,0x00,0x00,0x00,0x00,0x00,
 0x00,0x00,0x00,0x00,0x00,0x00,0x00,0x60,0x00,0x00,0x00,0x00,0x00,0x00,0x00,
 0xc0,0x00,0x00,0x00,0x00,0x08,0x00,0x00,0x00,0x00,0x00,0x00,0x00,0x00,0x00,
 0x00,0x00,0x00,0x60,0x00,0x00,0x00,0x00,0x00,0x00,0x00,0xc0,0x00,0x00,0x00,
 0x00,0x08,0x00,0x00,0x00,0x00,0x00,0x00,0x00,0x00,0x00,0x00,0x00,0x00,0x60,
 0x00,0x00,0x00,0x00,0x00,0x00,0x00,0xc0,0x00,0x00,0x00,0x00,0x70,0x00,0x00,
 0x00,0x00,0x00,0x00,0x00,0x00,0x00,0x00,0x00,0x00,0x60,0x00,0x00,0x00,0x00,
 0x00,0x00,0x00,0xc0,0x00,0x00,0x00,0x00,0x80,0x03,0x00,0x00,0x00,0x00,0x00,
 0x00,0x00,0x00,0x00,0x00,0x00,0x60,0x00,0x00,0x00,0x00,0x00,0x00,0x00,0xc0,
 0x00,0x00,0x00,0x00,0x00,0x1c,0x00,0x00,0x00,0x00,0x00,0x00,0x00,0x00,0x00,
 0x00,0x00,0x60,0x00,0x00,0x00,0x00,0x00,0x00,0x00,0xc0,0x00,0x00,0x00,0x00,
 0x00,0x1c,0x00,0x00,0x00,0x00,0x00,0x00,0x00,0x00,0x00,0x00,0x00,0x60,0x00,
 0x00,0x00,0x00,0x00,0x00,0x00,0xc0,0x00,0x00,0x00,0x00,0x00,0x20,0x00,0x00,
 0x00,0x00,0x00,0x00,0x00,0x00,0x00,0x00,0x00,0x60,0x00,0x00,0x00,0x00,0x00,
 0x00,0x00,0xc0,0x00,0x00,0x00,0x00,0x00,0xc0,0x01,0x00,0x00,0x00,0x00,0x00,
 0x00,0x00,0x00,0x00,0x00,0x60,0x00,0x00,0x00,0x00,0x00,0x00,0x00,0xc0,0x00,
 0x00,0x00,0x00,0x00,0xc0,0x01,0x00,0x00,0x00,0x00,0x00,0x00,0x00,0x00,0x00,
 0x00,0x60,0x00,0x00,0x00,0x00,0x00,0x00,0x00,0xc0,0x00,0x00,0x00,0x00,0x00,
 0x00,0x0e,0x00,0x00,0x00,0x00,0x00,0x00,0x00,0x00,0x00,0x00,0x60,0x00,0x00,
 0x00,0x00,0x00,0x00,0x00,0xc0,0x00,0x00,0x00,0x00,0x00,0x00,0x30,0x00,0x00,
 0x00,0x00,0x00,0x00,0x00,0x00,0x00,0x00,0x60,0x00,0x00,0x00,0x00,0x00,0x00,
 0x00,0xc0,0x00,0x00,0x00,0x00,0x00,0x00,0x30,0x00,0x00,0x00,0x00,0x00,0x00,
 0x00,0x00,0x00,0x00,0x60,0x00,0x00,0x00,0x00,0x00,0x00,0x00,0xc0,0x00,0x00,
 0x00,0x00,0x00,0x00,0xc0,0x00,0x00,0x00,0x00,0x00,0x00,0x00,0x00,0x00,0x00,
 0x60,0x00,0x00,0x00,0x00,0x00,0x00,0x00,0xc0,0x00,0x00,0x00,0x00,0x00,0x00,
 0x00,0x07,0x00,0x00,0x00,0x00,0x00,0x00,0x00,0x00,0x00,0x60,0x00,0x00,0x00,
 0x00,0x00,0x00,0x00,0xc0,0x00,0x00,0x00,0x00,0x00,0x00,0x00,0x38,0x00,0x00,
 0x00,0x00,0x00,0x00,0x00,0x00,0x00,0x60,0x00,0x00,0x00,0x00,0x00,0x00,0x00,
 0xc0,0x00,0x00,0x00,0x00,0x00,0x00,0x00,0x38,0x00,0x00,0x00,0x00,0x00,0x00,
 0x00,0x00,0x00,0x60,0x00,0x00,0x00,0x00,0x00,0x00,0x00,0xc0,0x00,0x00,0x00,
 0x00,0x00,0x00,0x00,0xc0,0x00,0x00,0x00,0x00,0x00,0x00,0x00,0x00,0x00,0x60,
 0x00,0x00,0x00,0x00,0x00,0x00,0x00,0xc0,0x00,0x00,0x00,0x00,0x00,0x00,0x00,
 0x00,0x07,0x00,0x00,0x00,0x00,0x00,0x00,0x00,0x00,0x60,0x00,0x00,0x00,0x00,
 0x00,0x00,0x00,0xc0,0x00,0x00,0x00,0x00,0x00,0x00,0x00,0x00,0x07,0x00,0x00,
 0x00,0x00,0x00,0x00,0x00,0x00,0x60,0x00,0x00,0x00,0x00,0x00,0x00,0x00,0xc0,
 0x00,0x00,0x00,0x00,0x00,0x00,0x00,0x00,0x18,0x00,0x00,0x00,0x00,0x00,0x00,
 0x00,0x00,0x60,0x00,0x00,0x00,0x00,0x00,0x00,0x00,0xc0,0x00,0x00,0x00,0x00,
 0x00,0x00,0x00,0x00,0x60,0x00,0x00,0x00,0x00,0x00,0x00,0x00,0x00,0x60,0x00,
 0x00,0x00,0x00,0x00,0x00,0x00,0xc0,0x00,0x00,0x00,0x00,0x00,0x00,0x00,0x00,
 0x60,0x00,0x00,0x00,0x00,0x00,0x00,0x00,0x00,0x60,0x00,0x00,0x00,0x00,0x00,
 0x00,0x00,0xc0,0x00,0x00,0x00,0x00,0x00,0x00,0x00,0x00,0x80,0x03,0x00,0x00,
 0x00,0x00,0x00,0x00,0x00,0x60,0x00,0x00,0x00,0x00,0x00,0x00,0x00,0xc0,0x00,
 0x00,0x00,0x00,0x00,0x00,0x00,0x00,0x00,0x1c,0x00,0x00,0x00,0x00,0x00,0x00,
 0x00,0x60,0x00,0x00,0x00,0x00,0x00,0x00,0x00,0xc0,0x00,0x00,0x00,0x00,0x00,
 0x00,0x00,0x00,0x00,0x1c,0x00,0x00,0x00,0x00,0x00,0x00,0x00,0x60,0x00,0x00,
 0x00,0x00,0x00,0x00,0x00,0xc0,0x00,0x00,0x00,0x00,0x00,0x00,0x00,0x00,0x00,
 0xe0,0x00,0x00,0x00,0x00,0x00,0x00,0x00,0x60,0x00,0x00,0x00,0x00,0x00,0x00,
 0x00,0xc0,0x00,0x00,0x00,0x00,0x00,0x00,0x00,0x00,0x00,0x00,0x01,0x00,0x00,
 0x00,0x00,0x00,0x00,0x60,0x00,0x00,0x00,0x00,0x00,0x00,0x00,0xc0,0x00,0x00,
 0x00,0x00,0x00,0x00,0x00,0x00,0x00,0x00,0x0e,0x00,0x00,0x00,0x00,0x00,0x00,
 0x60,0x00,0x00,0x00,0x00,0x00,0x00,0x00,0xc0,0x00,0x00,0x00,0x00,0x00,0x00,
 0x00,0x00,0x00,0x00,0x0e,0x00,0x00,0x00,0x00,0x00,0x00,0x60,0x00,0x00,0x00,
 0x00,0x00,0x00,0x00,0xc0,0x00,0x00,0x00,0x00,0x00,0x00,0x00,0x00,0x00,0x00,
 0x70,0x00,0x00,0x00,0x00,0x00,0x00,0x60,0x00,0x00,0x00,0x00,0x00,0x00,0x00,
 0xc0,0x00,0x00,0x00,0x00,0x00,0x00,0x00,0x00,0x00,0x00,0x80,0x03,0x00,0x00,
 0x00,0x00,0x00,0x60,0x00,0x00,0x00,0x00,0x00,0x00,0x00,0xc0,0x00,0x00,0x00,
 0x00,0x00,0x00,0x00,0x00,0x00,0x00,0x80,0x03,0x00,0x00,0x00,0x00,0x00,0x60,
 0x00,0x00,0x00,0x00,0x00,0x00,0x00,0xc0,0x00,0x00,0x00,0x00,0x00,0x00,0x00,
 0x00,0x00,0x00,0x00,0x04,0x00,0x00,0x00,0x00,0x00,0x60,0x00,0x00,0x00,0x00,
 0x00,0x00,0x00,0xc0,0x00,0x00,0x00,0x00,0x00,0x00,0x00,0x00,0x00,0x00,0x00,
 0x38,0x00,0x00,0x00,0x00,0x00,0x60,0x00,0x00,0x00,0x00,0x00,0x00,0x00,0xc0,
 0x00,0x00,0x00,0x00,0x00,0x00,0x00,0x00,0x00,0x00,0x00,0x38,0x00,0x00,0x00,
 0x00,0x00,0x60,0x00,0x00,0x00,0x00,0x00,0x00,0x00,0xc0,0x00,0x00,0x00,0x00,
 0x00,0x00,0x00,0x00,0x00,0x00,0x00,0xc0,0x01,0x00,0x00,0x00,0x00,0x60,0x00,
 0x00,0x00,0x00,0x00,0x00,0x00,0xc0,0x00,0x00,0x00,0x00,0x00,0x00,0x00,0x00,
 0x00,0x00,0x00,0x00,0x02,0x00,0x00,0x00,0x00,0x60,0x00,0x00,0x00,0x00,0x00,
 0x00,0x00,0xc0,0x00,0x00,0x00,0x00,0x00,0x00,0x00,0x00,0x00,0x00,0x00,0x00,
 0x02,0x00,0x00,0x00,0x00,0x60,0x00,0x00,0x00,0x00,0x00,0x00,0x00,0xc0,0x00,
 0x00,0x00,0x00,0x00,0x00,0x00,0x00,0x00,0x00,0x00,0x00,0x1c,0x00,0x00,0x00,
 0x00,0x60,0x00,0x00,0x00,0x00,0x00,0x00,0x00,0xc0,0x00,0x00,0x00,0x00,0x00,
 0x00,0x00,0x00,0x00,0x00,0x00,0x00,0xe0,0x00,0x00,0x00,0x00,0x60,0x00,0x00,
 0x00,0x00,0x00,0x00,0x00,0xc0,0x00,0x00,0x00,0x00,0x00,0x00,0x00,0x00,0x00,
 0x00,0x00,0x00,0x00,0x07,0x00,0x00,0x00,0x60,0x00,0x00,0x00,0x00,0x00,0x00,
 0x00,0xc0,0x00,0x00,0x00,0x00,0x00,0x00,0x00,0x00,0x00,0x00,0x00,0x00,0x00,
 0x07,0x00,0x00,0x00,0x60,0x00,0x00,0x00,0x00,0x00,0x00,0x00,0xc0,0x00,0x00,
 0x00,0x00,0x00,0x00,0x00,0x00,0x00,0x00,0x00,0x00,0x00,0x08,0x00,0x00,0x00,
 0x60,0x00,0x00,0x00,0x00,0x00,0x00,0x00,0xc0,0x00,0x00,0x00,0x00,0x00,0x00,
 0x00,0x00,0x00,0x00,0x00,0x00,0x00,0x70,0x00,0x00,0x00,0x60,0x00,0x00,0x00,
 0x00,0x00,0x00,0x00,0xc0,0x00,0x00,0x00,0x00,0x00,0x00,0x00,0x00,0x00,0x00,
 0x00,0x00,0x00,0x70,0x00,0x00,0x00,0x60,0x00,0x00,0x00,0x00,0x00,0x00,0x00,
 0xc0,0x00,0x00,0x00,0x00,0x00,0x00,0x00,0x00,0x00,0x00,0x00,0x00,0x00,0x80,
 0x03,0x00,0x00,0x60,0x00,0x00,0x00,0x00,0x00,0x00,0x00,0xc0,0x00,0x00,0x00,
 0x00,0x00,0x00,0x00,0x00,0x00,0x00,0x00,0x00,0x00,0x00,0x0c,0x00,0x00,0x60,
 0x00,0x00,0x00,0x00,0x00,0x00,0x00,0xc0,0x00,0x00,0x00,0x00,0x00,0x00,0x00,
 0x00,0x00,0x00,0x00,0x00,0x00,0x00,0x0c,0x00,0x00,0x60,0x00,0x00,0x00,0x00,
 0x00,0x00,0x00,0xc0,0x00,0x00,0x00,0x00,0x00,0x00,0x00,0x00,0x00,0x00,0x00,
 0x00,0x00,0x00,0x30,0x00,0x00,0x60,0x00,0x00,0x00,0x00,0x00,0x00,0x00,0xc0,
 0x00,0x00,0x00,0x00,0x00,0x00,0x00,0x00,0x00,0x00,0x00,0x00,0x00,0x00,0xc0,
 0x01,0x00,0x60,0x00,0x00,0x00,0x00,0x00,0x00,0x00,0xc0,0x00,0x00,0x00,0x00,
 0x00,0x00,0x00,0x00,0x00,0x00,0x00,0x00,0x00,0x00,0x00,0x0e,0x00,0x60,0x00,
 0x00,0x00,0x00,0x00,0x00,0x00,0xc0,0x00,0x00,0x00,0x00,0x00,0x00,0x00,0x00,
 0x00,0x00,0x00,0x00,0x00,0x00,0x00,0x0e,0x00,0x60,0x00,0x00,0x00,0x00,0x00,
 0x00,0x00,0xc0,0x00,0x00,0x00,0x00,0x00,0x00,0x00,0x00,0x00,0x00,0x00,0x00,
 0x00,0x00,0x00,0x30,0x00,0x60,0x00,0x00,0x00,0x00,0x00,0x00,0x00,0x20,0x00,
 0x00,0x00,0x00,0x00,0x00,0x00,0x00,0x00,0x00,0x00,0x00,0x00,0x00,0x00,0xc0,
 0x00,0x60,0x00,0x00,0x00,0x00,0x00,0x00,0x00,0x20,0x00,0x00,0x00,0x00,0x00,
 0x00,0x00,0x00,0x00,0x00,0x00,0x00,0x00,0x00,0x00,0xc0,0x00,0x60,0x00,0x00,
 0x00,0x00,0x00,0x00,0x00,0x20,0x00,0x00,0x00,0x00,0x00,0x00,0x00,0x00,0x00,
 0x00,0x00,0x00,0x00,0x00,0x00,0x00,0x07,0x60,0x00,0x00,0x00,0x00,0x00,0x00,
 0x00,0x18,0x00,0x00,0x00,0x00,0x00,0x00,0x00,0x00,0x00,0x00,0x00,0x00,0x00,
 0x00,0x00,0x00,0x18,0x60,0x00,0x00,0x00,0x00,0x00,0x00,0x00,0x04,0x00,0x00,
 0x00,0x00,0x00,0x00,0x00,0x00,0x00,0x00,0x00,0x00,0x00,0x00,0x00,0x00,0x18,
 0x60,0x00,0x00,0x00,0x00,0x00,0x00,0x00,0x04,0x00,0x00,0x00,0x00,0x00,0x00,
 0x00,0x00,0x00,0x00,0x00,0x00,0x00,0x00,0x00,0x00,0xe0,0x60,0x00,0x00,0x00,
 0x00,0x00,0x00,0x00,0x03,0x00,0x00,0x00,0x00,0x00,0x00,0x00,0x00,0x00,0x00,
 0x00,0x00,0x00,0x00,0x00,0x00,0x00,0x67,0x00,0x00,0x00,0x00,0x00,0x00,0x80,
 0x00,0x00,0x00,0x00,0x00,0x00,0x00,0x00,0x00,0x00,0x00,0x00,0x00,0x00,0x00,
 0x00,0x00,0x00,0x67,0x00,0x00,0x00,0x00,0x00,0x00,0x80,0x00,0x00,0x00,0x00,
 0x00,0x00,0x00,0x00,0x00,0x00,0x00,0x00,0x00,0x00,0x00,0x00,0x00,0x00,0x78,
 0x00,0x00,0x00,0x00,0x00,0x00,0x40,0x00,0x00,0x00,0x00,0x00,0x00,0x00,0x00,
 0x00,0x00,0x00,0x00,0x00,0x00,0x00,0x00,0x00,0x00,0xe0,0x00,0x00,0x00,0x00,
 0x00,0x00,0x38,0x00,0x00,0x00,0x00,0x00,0x00,0x00,0x00,0x00,0x00,0x00,0x00,
 0x00,0x00,0x00,0x00,0x00,0x00,0x00,0x07,0x00,0x00,0x00,0x00,0xc0,0x07,0x00,
 0x00,0x00,0x00,0x00,0x00,0x00,0x00,0x00,0x00,0x00,0x00,0x00,0x00,0x00,0x00,
 0x00,0x00,0x00,0x07,0x00,0x00,0x00,0x00,0xc0,0x07,0x00,0x00,0x00,0x00,0x00,
 0x00,0x00,0x00,0x00,0x00,0x00,0x00,0x00,0x00,0x00,0x00,0x00,0x00,0x00,0xf8,
 0x01,0x00,0x00,0x00,0x3c,0x00,0x00,0x00,0x00,0x00,0x00,0x00,0x00,0x00,0x00,
 0x00,0x00,0x00,0x00,0x00,0x00,0x00,0x00,0x00,0x00,0x00,0xfe,0x03,0x00,0xf0,
 0x03,0x00,0x00,0x00,0x00,0x00,0x00,0x00,0x00,0x00,0x00,0x00,0x00,0x00,0x00,
 0x00,0x00,0x00,0x00,0x00,0x00,0x00,0xfe,0x03,0x00,0xf0,0x03,0x00,0x00,0x00,
 0x00,0x00,0x00,0x00,0x00,0x00,0x00,0x00,0x00,0x00,0x00,0x00,0x00,0x00,0x00,
 0x00,0x00,0x00,0x00,0xfc,0xff,0x0f,0x00,0x00,0x00,0x00,0x00,0x00,0x00,0x00,
 0x00,0x00,0x00,0x00,0x00,0x00,0x00,0x00,0x00,0x00,0x00,0x00,0x00,0x00,0x00,
 0x00,0x00,0x00,0x00,0x00,0x00,0x00,0x00,0x00,0x00,0x00,0x00,0x00,0x00,0x00,
 0x00,0x00,0x00,0x00,0x00,0x00,0x00,0x00,0x00,0x00,0x00,0x00,0x00,0x00,0x00,
 0x00,0x00,0x00,0x00,0x00,0x00,0x00,0x00,0x00,0x00,0x00,0x00,0x00,0x00,0x00,
 0x00,0x00,0x00,0x00,0x00,0x00,0x00,0x00,0x00,0x00,0x00,0x00,0x00,0x00,0x00,
 0x00,0x00,0x00,0x00,0x00,0x00,0x00,0x00,0x00,0x00,0x00,0x00,0x00,0x00,0x00,
 0x00,0x00,0x00,0x00,0x00,0x00,0x00,0x00,0x00,0x00,0x00,0x00,0x00,0x00,0x00,
 0x00,0x00,0x00,0x00,0x00,0x00,0x00,0x00,0x00,0x00,0x00,0x00,0x00,0x00,0x00,
 0x00,0x00,0x00,0x00,0x00,0x00,0x00,0x00,0x00,0x00,0x00,0x00,0x00,0x00,0x00,
 0x00,0x00,0x00,0x00,0x00,0x00,0x00,0x00,0x00,0x00,0x00,0x00,0x00,0x00,0x00,
 0x00,0x00,0x00,0x00,0x00,0x00,0x00,0x00,0x00,0x00,0x00,0x00,0x00,0x00,0x00,
 0x20,0xc0,0x03,0x00,0x00,0x00,0x00,0x00,0x00,0x00,0x00,0x00,0x00,0x00,0x00,
 0x00,0x00,0x00,0x00,0x00,0x00,0x00,0x00,0x00,0x00,0x40,0x20,0x30,0x04,0x00,
 0x00,0x00,0x00,0x00,0x00,0x00,0x00,0x00,0x00,0x00,0x00,0x00,0x00,0x00,0x00,
 0x00,0x00,0x00,0x00,0x00,0x00,0x40,0x20,0x30,0x04,0x00,0x00,0x00,0x00,0x00,
 0x00,0x00,0x00,0x00,0x00,0x00,0x00,0x00,0x00,0x00,0x00,0x00,0x00,0x00,0x00,
 0x00,0x00,0x40,0x3c,0x30,0x04,0x00,0x00,0x00,0x00,0x00,0x00,0x00,0x00,0x00,
 0x00,0x00,0x00,0x00,0x00,0x00,0x00,0x00,0x00,0x00,0xec,0xf3,0x0f,0xf9,0x21,
 0x30,0x04,0x00,0x00,0x00,0x00,0x00,0x00,0x00,0x00,0x00,0x00,0x00,0x00,0x00,
 0x00,0x00,0x00,0x00,0x00,0x00,0xec,0xf3,0x0f,0xf9,0x21,0x30,0x04,0x00,0x00,
 0x00,0x00,0x00,0x00,0x00,0x00,0x00,0x00,0x00,0x00,0x00,0x00,0x00,0x00,0x00,
 0x00,0x00,0x1c,0x04,0x0c,0x47,0x20,0x30,0x04,0x00,0x00,0x00,0x00,0x00,0x00,
 0x00,0x00,0x00,0x00,0x00,0x00,0x00,0x00,0x00,0x00,0x00,0x00,0x00,0x0c,0xc4,
 0x0f,0x41,0x20,0x30,0x04,0x00,0x00,0x00,0x00,0x00,0x00,0x00,0x00,0x00,0x00,
 0x00,0x00,0x00,0x00,0x00,0x00,0x00,0x00,0x00,0x0c,0xc4,0x0f,0x41,0x20,0x30,
 0x04,0x00,0x00,0x00,0x00,0x00,0x00,0x00,0x00,0x00,0x00,0x00,0x00,0x00,0x00,
 0x00,0x00,0x00,0x00,0x00,0x0c,0x34,0x0c,0x41,0x20,0x30,0x04,0x00,0x00,0x00,
 0x00,0x00,0x00,0x00,0x00,0x00,0x00,0x00,0x00,0x00,0x00,0x00,0x00,0x00,0x00,
 0x00,0x1c,0x34,0x0c,0x41,0x20,0x30,0x04,0x00,0x00,0x00,0x00,0x00,0x00,0x00,
 0x00,0x00,0x00,0x00,0x00,0x00,0x00,0x00,0x00,0x00,0x00,0x00,0xec,0xc3,0x13,
 0xc1,0x21,0xc0,0x03,0x00,0x00,0x00,0x00,0x00,0x00,0x00,0x00,0x00,0x00,0x00,
 0x00,0x00,0x00,0x00,0x00,0x00,0x00,0x00,0xec,0xc3,0x13,0xc1,0x21,0xc0,0x03,
 0x00,0x00,0x00,0x00,0x00,0x00,0x00,0x00,0x00,0x00,0x00,0x00,0x00,0x00,0x00,
 0x00,0x00,0x00,0x00,0x0c,0x00,0x00,0x00,0x00,0x00,0x00,0x00,0x00,0x00,0x00,
 0x00,0x00,0x00,0x00,0x00,0x00,0x00,0x00,0x00,0x00,0x00,0x00,0x00,0x00,0x00,
 0x0c,0x00,0x00,0x00,0x00,0x00,0x00,0x00,0x00,0x00,0x00,0x00,0x00,0x00,0x00,
 0x00,0x00,0x00,0x00,0x00,0x00,0x00,0x00,0x00,0x00,0x00,0x0c,0x00,0x00,0x00,
 0x00,0x00,0x00,0x00,0x00,0x00,0x00,0x00,0x00,0x00,0x00,0x00,0x00,0x00,0x00,
 0x00,0x00,0x00,0x00,0x00,0x00,0x00,0x0c,0x00,0x00,0x00,0x00,0x00,0x00,0x00,
 0x00,0x00,0x00,0x00,0x00,0x00,0x00,0x00};
