**ABCDEFGHIJKLMNOPQRSTUVWXYZabcdefghijklmnopqrstuvwxyz**************************
**PARASOLID !"#$%&'()*+,-./:;<=>?@[\]^_`{|}~0123456789**************************
**PART1;
MC=unknown;
MC_MODEL=unknown;
MC_ID=unknown;
OS=unknown;
OS_RELEASE=unknown;
FRU=sdl_parasolid_customer_support;
APPL=parasolid_acceptance_tests;
SITE=unknown;
USER=unknown;
FORMAT=text;
GUISE=transmit;
KEY=stock;
FILE=stock.xmt_txt;
DATE=unknown;
**PART2;
SCH=SCH_504068_5059;
USFLD_SIZE=0;
**PART3;
**END_OF_HEADER*****************************************************************
T50 : TRANSMIT FILE created by modeller version 50406815 SCH_504068_50590 12 1 5
9 0 0 0 0 0 1e3 1e-8 2 2 0 3 0 1 4 5 6 7 102 5 2 stock13 4 2 0 1 0 8 9 10 50 5 5
1 0 8 11 0 0 +0 .227763 .031749 0 0 1 1 0 0 30 6 59 0 9 12 0 0 +0 .220726 .03174
9 -1 0 0 29 7 55 0 10 13 0 -.0174498 .220726 .031749 18 10 20 0 14 0 15 7 ?29 13
 54 0 15 16 7 -.0174498 .2348 .031749 18 15 18 0 17 10 18 13 ?29 16 53 0 18 19 1
3 .0174498 .2348 .031749 18 18 16 0 20 15 21 16 ?29 19 52 0 21 22 16 .0174498 .2
20726 .031749 18 21 14 0 23 18 24 19 ?29 22 38 0 25 26 19 -.0174498 .220726 .020
1675999999993 18 25 8 0 27 28 29 22 ?29 26 37 0 28 30 22 -.0174498 .2348 .020167
5999999993 18 28 10 0 31 24 25 26 ?29 30 36 0 24 32 26 .0174498 .2348 .020167599
9999993 18 24 12 0 33 21 28 30 ?29 32 35 0 29 0 30 .0174498 .220726 .02016759999
99993 18 29 7 0 34 25 0 32 ?17 34 35 23 36 29 37 38 0 15 35 29 0 23 39 0 17 23 3
5 40 34 21 41 42 0 17 36 35 34 40 25 14 43 0 17 37 44 45 46 25 34 38 0 16 38 9 0
 34 47 48 49 ?0 0 16 47 11 0 27 50 38 51 ?0 0 16 48 3 0 33 38 0 52 ?0 0 30 49 39
 0 38 0 52 0 +0 .220726 .0201675999999993 1 0 0 30 52 40 0 48 49 53 0 +.0174498
 .227763 .0201675999999993 0 1 0 30 53 41 0 50 52 51 0 +0 .2348 .020167599999999
3 -1 0 0 16 50 13 0 31 42 47 53 ?0 0 30 51 42 0 47 53 54 0 +-.0174498 .227763 .0
201675999999993 0 -1 0 30 54 47 0 42 51 55 0 +.0174498 .220726 .0201675999999993
 0 0 1 16 42 15 0 23 56 50 54 ?0 0 30 55 48 0 56 54 57 0 +.0174498 .2348 .020167
5999999993 0 0 1 16 56 17 0 20 58 42 55 ?0 0 30 57 49 0 58 55 59 0 +-.0174498 .2
348 .0201675999999993 0 0 1 16 58 19 0 17 43 56 57 ?0 0 30 59 50 0 43 57 60 0 +-
.0174498 .220726 .0201675999999993 0 0 1 16 43 21 0 14 61 58 59 ?0 0 30 60 56 0
 61 59 62 0 +.0174498 .227763 .031749 0 -1 0 16 61 22 0 63 64 43 60 ?0 0 30 62 5
7 0 64 60 12 0 +0 .2348 .031749 1 0 0 16 64 25 0 65 66 61 62 ?0 0 30 12 58 0 66
 62 6 0 +-.0174498 .227763 .031749 0 1 0 16 66 28 0 67 9 64 12 ?0 0 17 67 68 69
 14 15 70 66 0 16 9 31 0 40 0 66 6 ?0 0 17 40 35 36 23 10 71 9 0 17 71 72 73 70
 21 40 9 0 15 72 32 0 71 8 0 17 73 72 74 71 18 63 61 0 17 70 72 71 74 10 67 66 0
 17 74 72 70 73 15 65 64 0 17 65 75 76 17 18 74 64 0 15 75 23 0 17 77 0 17 76 75
 31 65 24 20 56 0 17 17 75 65 31 15 69 58 0 17 31 75 17 76 28 78 50 0 17 69 68 2
7 67 28 17 58 0 15 68 26 0 14 79 0 17 27 68 14 69 25 45 47 0 17 14 68 67 27 10 3
6 43 0 17 45 44 78 37 28 27 47 0 15 44 5 0 46 80 0 17 78 44 46 45 24 31 50 0 17
 46 44 37 78 29 33 48 0 17 33 81 20 41 24 46 48 0 15 81 4 0 33 82 0 17 20 81 63
 33 18 76 56 0 17 41 81 33 63 29 23 42 0 17 63 81 41 20 21 73 61 0 14 82 1 0 0 8
0 81 4 83 +?0 0 14 80 6 0 82 77 44 4 84 +?0 0 50 83 43 0 82 84 85 0 +.0174498 .2
27763 .0201675999999993 1 0 0 0 0 -1 50 84 34 0 80 0 83 0 +0 .227763 .0201675999
999993 0 0 -1 -1 0 0 50 85 44 0 77 83 86 0 +0 .2348 .0201675999999993 0 1 0 0 0
 1 14 77 24 0 80 79 75 4 85 +?0 0 50 86 45 0 79 85 11 0 +-.0174498 .227763 .0201
675999999993 -1 0 0 0 0 1 14 79 27 0 77 39 68 4 86 +?0 0 50 11 46 0 39 86 5 0 +0
 .220726 .0201675999999993 0 -1 0 0 0 -1 14 39 30 0 79 8 35 4 11 +?0 0 14 8 33 0
 39 0 72 4 5 +?0 0 1 0 
