600 0 1 0           
95 GICL ACIS Healer - Source: /gicl/data5/repository/UMD/through_pocket1/through_pocket1.sat - 6 0 18 ACIS 6.0.3 Solaris 24 Sun Apr 14 00:35:43 2002 
1 9.999999999999999547e-07 1.000000000000000036e-10 
body $-1 $1 $-1 $-1 #
lump $-1 $-1 $2 $0 #
shell $-1 $-1 $-1 $3 $-1 $1 #
face $-1 $4 $5 $2 $-1 $6 forward single #
face $-1 $7 $8 $2 $-1 $9 reversed single #
loop $-1 $-1 $10 $3 #
plane-surface $-1 20 -20 17.5 0 1 0 0 0 1.5 forward_v I I I I #
face $-1 $11 $12 $2 $-1 $13 forward single #
loop $-1 $-1 $14 $4 #
cone-surface $-1 -5.999999999999950262 -14 17.5 -0 -0 -1 -4.242640687119280329 -4.242640687119280329 0 1 I I 0 1 5.999999999999992895 forward I I I I #
coedge $-1 $15 $16 $17 $18 reversed $5 $-1 #
face $-1 $19 $20 $2 $-1 $21 reversed single #
loop $-1 $-1 $22 $7 #
plane-surface $-1 -12 -5 17.5 1 0 0 0 0 -1.5 forward_v I I I I #
coedge $-1 $23 $24 $25 $26 reversed $8 $-1 #
coedge $-1 $27 $10 $28 $29 forward $5 $-1 #
coedge $-1 $10 $27 $23 $30 forward $5 $-1 #
coedge $-1 $25 $31 $10 $18 forward $32 $-1 #
edge $-1 $33 -19 $34 15.99999999999995026 $17 $35 forward 7 unknown #
face $-1 $36 $37 $2 $-1 $38 forward single #
loop $-1 $-1 $39 $11 #
cone-surface $-1 -5.999999999999950262 14 17.5 0 0 -1 -4.242640687119280329 4.242640687119280329 0 1 I I 0 1 5.999999999999992895 forward I I I I #
coedge $-1 $40 $41 $42 $43 reversed $12 $-1 #
coedge $-1 $44 $14 $16 $30 reversed $8 $-1 #
coedge $-1 $14 $44 $40 $45 reversed $8 $-1 #
coedge $-1 $42 $17 $14 $26 forward $32 $-1 #
edge $-1 $34 -0.785398163397448279 $46 0.785398163397448279 $25 $47 forward 7 unknown #
coedge $-1 $16 $15 $48 $49 reversed $5 $-1 #
coedge $-1 $50 $51 $15 $29 reversed $52 $-1 #
edge $-1 $33 -41.6666666666666643 $53 25 $15 $54 forward 7 unknown #
edge $-1 $55 -25 $34 41.6666666666666643 $16 $56 forward 7 unknown #
coedge $-1 $17 $57 $50 $58 forward $32 $-1 #
loop $-1 $59 $60 $61 #
vertex $-1 $18 $62 #
vertex $-1 $26 $63 #
straight-curve $-1 10 -20 50 -1 0 0 I I #
face $-1 $64 $65 $2 $-1 $66 reversed single #
loop $-1 $-1 $67 $19 #
plane-surface $-1 20 20 17.5 0 -1 0 0 0 -1.5 forward_v I I I I #
coedge $-1 $68 $69 $70 $71 reversed $20 $-1 #
coedge $-1 $72 $22 $24 $45 forward $12 $-1 #
coedge $-1 $22 $72 $68 $73 forward $12 $-1 #
coedge $-1 $70 $25 $22 $43 forward $32 $-1 #
edge $-1 $46 -11.5 $74 16.5 $42 $75 forward 7 unknown #
coedge $-1 $24 $23 $76 $77 reversed $8 $-1 #
edge $-1 $46 -21.66666666666666785 $78 45 $40 $79 forward 7 unknown #
vertex $-1 $43 $80 #
ellipse-curve $-1 -5.999999999999950262 -14 50 -0 -0 -1 -4.242640687119280329 -4.242640687119280329 0 1 I I #
coedge $-1 $81 $76 $27 $49 forward $82 $-1 #
edge $-1 $55 -15.99999999999995026 $53 19 $48 $83 forward 7 unknown #
coedge $-1 $84 $28 $31 $58 reversed $52 $-1 #
coedge $-1 $28 $84 $81 $85 reversed $52 $-1 #
loop $-1 $-1 $50 $86 #
vertex $-1 $49 $87 #
straight-curve $-1 29 -20 -12.5 0 0 -1.5 I I #
vertex $-1 $77 $88 #
straight-curve $-1 -5.999999999999950262 -20 -12.5 0 0 1.5 I I #
coedge $-1 $31 $89 $90 $91 forward $32 $-1 #
edge $-1 $92 -0.785398163397448279 $33 0.785398163397448279 $31 $93 forward 7 unknown #
loop $-1 $-1 $94 $61 #
coedge $-1 $89 $70 $67 $95 forward $32 $-1 #
face $-1 $96 $32 $2 $-1 $97 forward single #
point $-1 29 -20 50 #
point $-1 -5.999999999999950262 -20 50 #
face $-1 $86 $98 $2 $-1 $99 forward single #
loop $-1 $-1 $100 $36 #
cone-surface $-1 29 14 17.5 0 0 -1 4.242640687119280329 4.242640687119280329 0 1 I I 0 1 5.999999999999992895 forward I I I I #
coedge $-1 $101 $102 $60 $95 reversed $37 $-1 #
coedge $-1 $103 $39 $41 $73 reversed $20 $-1 #
coedge $-1 $39 $103 $101 $104 reversed $20 $-1 #
coedge $-1 $60 $42 $39 $71 forward $32 $-1 #
edge $-1 $74 -0.785398163397448279 $105 0.785398163397448279 $70 $106 forward 7 unknown #
coedge $-1 $41 $40 $107 $108 reversed $12 $-1 #
edge $-1 $109 -25 $74 41.6666666666666643 $41 $110 forward 7 unknown #
vertex $-1 $71 $111 #
straight-curve $-1 -12 -2.5 50 0 1 0 I I #
coedge $-1 $48 $107 $44 $77 forward $82 $-1 #
edge $-1 $78 -0.785398163397448279 $55 0.785398163397448279 $76 $112 forward 7 unknown #
vertex $-1 $108 $113 #
straight-curve $-1 -12 -14 17.5 0 0 -1.5 I I #
point $-1 -12 -14 50 #
coedge $-1 $114 $48 $51 $85 forward $82 $-1 #
loop $-1 $115 $116 $96 #
straight-curve $-1 10 -20 -50 1 0 0 I I #
coedge $-1 $51 $50 $117 $118 reversed $52 $-1 #
edge $-1 $53 -0.785398163397448279 $119 0.785398163397448279 $81 $120 forward 7 unknown #
face $-1 $61 $52 $2 $-1 $121 reversed single #
point $-1 29 -20 -50 #
point $-1 -5.999999999999950262 -20 -50 #
coedge $-1 $57 $60 $100 $122 forward $32 $-1 #
coedge $-1 $123 $117 $57 $91 reversed $98 $-1 #
edge $-1 $124 -16.5 $92 11.5 $57 $125 forward 7 unknown #
vertex $-1 $91 $126 #
ellipse-curve $-1 29 -14 50 -0 -0 -1 4.242640687119280329 -4.242640687119280329 0 1 I I #
coedge $-1 $127 $128 $129 $130 forward $59 $-1 #
edge $-1 $105 -15.99999999999995026 $131 19 $60 $132 forward 7 unknown #
face $-1 $133 $82 $2 $-1 $134 reversed single #
plane-surface $-1 0 0 50 0 0 1 1 0 0 forward_v I I I I #
loop $-1 $-1 $90 $64 #
plane-surface $-1 35 -5 17.5 -1 0 0 0 0 1.5 forward_v I I I I #
coedge $-1 $135 $136 $89 $122 reversed $65 $-1 #
coedge $-1 $137 $67 $69 $104 forward $37 $-1 #
coedge $-1 $67 $137 $135 $138 forward $37 $-1 #
coedge $-1 $69 $68 $139 $140 reversed $20 $-1 #
edge $-1 $105 -41.6666666666666643 $141 25 $101 $142 forward 7 unknown #
vertex $-1 $95 $143 #
ellipse-curve $-1 -5.999999999999950262 14 50 -0 -0 -1 -4.242640687119280329 4.242640687119280329 0 1 I I #
coedge $-1 $76 $139 $72 $108 forward $82 $-1 #
edge $-1 $109 -16.5 $78 11.5 $107 $144 forward 7 unknown #
vertex $-1 $140 $145 #
straight-curve $-1 -12 14 -12.5 0 0 1.5 I I #
point $-1 -12 14 50 #
ellipse-curve $-1 -5.999999999999950262 -14 -50 0 0 1 -4.242640687119280329 -4.242640687119280329 0 1 I I #
point $-1 -12 -14 -50 #
coedge $-1 $146 $81 $147 $148 forward $82 $-1 #
loop $-1 $-1 $149 $96 #
coedge $-1 $139 $146 $137 $150 forward $82 $-1 #
coedge $-1 $90 $147 $84 $118 forward $98 $-1 #
edge $-1 $119 -25 $92 41.6666666666666643 $117 $151 forward 7 unknown #
vertex $-1 $148 $152 #
ellipse-curve $-1 29 -14 -50 0 0 1 4.242640687119280329 -4.242640687119280329 0 1 I I #
cone-surface $-1 29 -14 17.5 0 0 -1 4.242640687119280329 -4.242640687119280329 0 1 I I 0 1 5.999999999999992895 forward I I I I #
edge $-1 $131 -0.785398163397448279 $124 0.785398163397448279 $89 $153 forward 7 unknown #
coedge $-1 $147 $90 $136 $154 forward $98 $-1 #
vertex $-1 $122 $155 #
straight-curve $-1 35 -2.5 50 0 -1 0 I I #
point $-1 35 -14 50 #
coedge $-1 $156 $94 $157 $158 forward $59 $-1 #
coedge $-1 $94 $156 $159 $160 forward $59 $-1 #
coedge $-1 $161 $162 $94 $130 reversed $163 $-1 #
edge $-1 $164 -50 $165 50 $129 $166 forward 7 unknown #
vertex $-1 $95 $167 #
straight-curve $-1 10 20 50 1 0 -0 I I #
face $-1 $168 $169 $2 $-1 $170 reversed single #
plane-surface $-1 0 0 -50 0 0 1 1 0 0 forward_v I I I I #
coedge $-1 $171 $100 $102 $138 reversed $65 $-1 #
coedge $-1 $100 $171 $123 $154 reversed $65 $-1 #
coedge $-1 $102 $101 $116 $150 reversed $37 $-1 #
edge $-1 $172 -25 $131 41.6666666666666643 $102 $173 forward 7 unknown #
coedge $-1 $107 $116 $103 $140 forward $82 $-1 #
edge $-1 $141 -0.785398163397448279 $109 0.785398163397448279 $139 $174 forward 7 unknown #
vertex $-1 $150 $175 #
straight-curve $-1 -5.999999999999950262 20 -12.5 0 0 -1.5 I I #
point $-1 -5.999999999999950262 20 50 #
straight-curve $-1 -12 -2.5 -50 0 -1 0 I I #
point $-1 -12 14 -50 #
coedge $-1 $116 $114 $171 $176 forward $82 $-1 #
coedge $-1 $117 $123 $114 $148 reversed $98 $-1 #
edge $-1 $119 -11.5 $177 16.5 $114 $178 forward 7 unknown #
coedge $-1 $179 $180 $181 $182 forward $115 $-1 #
edge $-1 $172 -19 $141 15.99999999999995026 $116 $183 forward 7 unknown #
straight-curve $-1 35 -14 -12.5 0 0 1.5 I I #
point $-1 35 -14 -50 #
ellipse-curve $-1 29 14 50 -0 -0 -1 4.242640687119280329 4.242640687119280329 0 1 I I #
edge $-1 $124 -21.66666666666666785 $177 45 $123 $184 forward 7 unknown #
point $-1 35 14 50 #
coedge $-1 $128 $127 $185 $186 forward $59 $-1 #
coedge $-1 $187 $188 $127 $158 reversed $189 $-1 #
edge $-1 $165 -50 $190 50 $157 $191 forward 7 unknown #
coedge $-1 $192 $193 $128 $160 reversed $169 $-1 #
edge $-1 $194 -50 $164 50 $159 $195 forward 7 unknown #
coedge $-1 $181 $129 $193 $196 forward $163 $-1 #
coedge $-1 $129 $181 $187 $197 reversed $163 $-1 #
loop $-1 $-1 $161 $198 #
vertex $-1 $130 $199 #
vertex $-1 $130 $200 #
straight-curve $-1 50 0 50 0 1 0 I I #
point $-1 29 20 50 #
face $-1 $201 $202 $2 $-1 $203 reversed single #
loop $-1 $-1 $192 $133 #
plane-surface $-1 0 -50 0 0 1 -0 -0 0 1 forward_v I I I I #
coedge $-1 $136 $135 $146 $176 reversed $65 $-1 #
vertex $-1 $150 $204 #
straight-curve $-1 29 20 -12.5 0 0 1.5 I I #
ellipse-curve $-1 -5.999999999999950262 14 -50 0 0 1 -4.242640687119280329 4.242640687119280329 0 1 I I #
point $-1 -5.999999999999950262 20 -50 #
edge $-1 $177 -0.785398163397448279 $172 0.785398163397448279 $146 $205 forward 7 unknown #
vertex $-1 $176 $206 #
straight-curve $-1 35 -2.5 -50 0 1 -0 I I #
coedge $-1 $207 $149 $208 $209 forward $115 $-1 #
coedge $-1 $149 $207 $210 $211 forward $115 $-1 #
coedge $-1 $162 $161 $149 $182 reversed $163 $-1 #
edge $-1 $212 -50 $213 50 $181 $214 forward 7 unknown #
straight-curve $-1 10 20 -50 -1 0 0 I I #
straight-curve $-1 35 14 17.5 0 0 -1.5 I I #
coedge $-1 $215 $216 $156 $186 reversed $202 $-1 #
edge $-1 $190 -50 $194 50 $185 $217 forward 7 unknown #
coedge $-1 $210 $157 $162 $197 forward $189 $-1 #
coedge $-1 $157 $210 $215 $218 reversed $189 $-1 #
loop $-1 $-1 $187 $201 #
vertex $-1 $158 $219 #
straight-curve $-1 0 50 50 -1 0 0 I I #
coedge $-1 $208 $159 $216 $220 forward $169 $-1 #
coedge $-1 $159 $208 $161 $196 reversed $169 $-1 #
vertex $-1 $186 $221 #
straight-curve $-1 0 -50 50 1 0 0 I I #
edge $-1 $164 -50 $213 50 $161 $222 forward 7 unknown #
edge $-1 $165 -50 $212 50 $162 $223 forward 7 unknown #
face $-1 $-1 $163 $2 $-1 $224 reversed single #
point $-1 50 -50 50 #
point $-1 50 50 50 #
face $-1 $198 $189 $2 $-1 $225 reversed single #
loop $-1 $-1 $215 $168 #
plane-surface $-1 -50 0 0 1 0 0 0 0 -1 forward_v I I I I #
point $-1 29 20 -50 #
ellipse-curve $-1 29 14 -50 0 0 1 4.242640687119280329 4.242640687119280329 0 1 I I #
point $-1 35 14 -50 #
coedge $-1 $180 $179 $226 $227 forward $115 $-1 #
coedge $-1 $193 $192 $179 $209 reversed $169 $-1 #
edge $-1 $213 -50 $228 50 $208 $229 forward 7 unknown #
coedge $-1 $188 $187 $180 $211 reversed $189 $-1 #
edge $-1 $230 -50 $212 50 $210 $231 forward 7 unknown #
vertex $-1 $182 $232 #
vertex $-1 $196 $233 #
straight-curve $-1 50 0 -50 0 -1 0 I I #
coedge $-1 $226 $185 $188 $218 forward $202 $-1 #
coedge $-1 $185 $226 $192 $220 reversed $202 $-1 #
straight-curve $-1 -50 0 50 0 -1 0 I I #
edge $-1 $190 -50 $230 50 $188 $234 forward 7 unknown #
point $-1 -50 50 50 #
edge $-1 $194 -50 $228 50 $216 $235 forward 7 unknown #
point $-1 -50 -50 50 #
straight-curve $-1 50 -50 0 0 0 -1 I I #
straight-curve $-1 50 50 0 0 0 -1 I I #
plane-surface $-1 50 0 0 -1 0 0 0 -0 1 forward_v I I I I #
plane-surface $-1 0 50 0 0 -1 0 0 0 -1 forward_v I I I I #
coedge $-1 $216 $215 $207 $227 reversed $202 $-1 #
edge $-1 $228 -50 $230 50 $226 $236 forward 7 unknown #
vertex $-1 $227 $237 #
straight-curve $-1 0 -50 -50 -1 0 0 I I #
vertex $-1 $211 $238 #
straight-curve $-1 0 50 -50 1 0 0 I I #
point $-1 50 50 -50 #
point $-1 50 -50 -50 #
straight-curve $-1 -50 50 0 0 0 -1 I I #
straight-curve $-1 -50 -50 0 0 0 -1 I I #
straight-curve $-1 -50 0 -50 0 1 0 I I #
point $-1 -50 -50 -50 #
point $-1 -50 50 -50 #
End-of-ACIS-data 