600 0 2 0           
24 FBMach with ACIS - 6.0.3 13 ACIS 6.0.3 NT 24 Tue May 22 12:37:20 2001 
1 9.9999999999999995e-007 1e-010 
body $2 $3 $-1 $4 #
bdycol-kcp $-1 1 2 $5 $6 #
model_id-kcp-attrib $-1 $-1 $-1 $0 1 990549440 60 -1304690687 1 #
lump $-1 $-1 $7 $0 #
transform $-1 1 0 0 0 1 0 0 0 1 0 0 0 1 no_rotate no_reflect no_shear #
body $8 $9 $-1 $10 #
body $11 $12 $-1 $13 #
shell $-1 $-1 $-1 $14 $-1 $3 #
model_id-kcp-attrib $-1 $-1 $-1 $5 1 990549440 60 -1304690686 1 #
lump $-1 $-1 $15 $5 #
transform $-1 1 0 0 0 1 0 0 0 1 0 0 0 1 no_rotate no_reflect no_shear #
rgb_color-st-attrib $-1 $16 $-1 $6 0.5 1 1 #
lump $-1 $-1 $17 $6 #
transform $-1 1 0 0 0 1 0 0 0 1 0 0 0 1 no_rotate no_reflect no_shear #
face $18 $19 $20 $7 $-1 $21 forward single #
shell $-1 $-1 $-1 $22 $-1 $9 #
model_id-kcp-attrib $-1 $-1 $11 $6 1 990549440 210 -1294860285 1 #
shell $-1 $-1 $-1 $23 $-1 $12 #
model_id-kcp-attrib $-1 $-1 $-1 $14 1 990549440 60 -1304690687 2 #
face $24 $25 $26 $7 $-1 $27 reversed single #
loop $-1 $-1 $28 $14 #
plane-surface $-1 20 -20 17.5 0 1 0 0 0 1.5 forward_v I I I I #
face $29 $30 $31 $15 $-1 $32 forward single #
face $-1 $33 $34 $17 $-1 $35 forward single #
model_id-kcp-attrib $-1 $-1 $-1 $19 1 990549440 60 -1304690687 3 #
face $36 $37 $38 $7 $-1 $39 forward single #
loop $-1 $-1 $40 $19 #
cone-surface $-1 -5.9999999999999503 -14 17.5 0 0 -1 -4.2426406871192803 -4.2426406871192803 0 1 I I 0 1 5.9999999999999929 forward I I I I #
coedge $-1 $41 $42 $43 $44 reversed $20 $-1 #
model_id-kcp-attrib $-1 $-1 $-1 $22 1 990549440 60 -1304690686 2 #
face $45 $46 $47 $15 $-1 $48 reversed single #
loop $-1 $-1 $49 $22 #
plane-surface $-1 0 0 50 0 0 1 1 0 0 forward_v I I I I #
face $-1 $50 $51 $17 $-1 $52 forward single #
loop $-1 $-1 $53 $23 #
cone-surface $-1 -5.9999999999999503 14 50 0 0 -1 -4.2426406871192803 4.2426406871192803 0 1 I I 0 1 5.9999999999999929 forward I I I I #
model_id-kcp-attrib $-1 $-1 $-1 $25 1 990549440 60 -1304690687 4 #
face $54 $55 $56 $7 $-1 $57 reversed single #
loop $-1 $-1 $58 $25 #
plane-surface $-1 -12 -5 17.5 1 0 0 0 0 -1.5 forward_v I I I I #
coedge $-1 $59 $60 $61 $62 reversed $26 $-1 #
coedge $-1 $63 $28 $64 $65 forward $20 $-1 #
coedge $-1 $28 $63 $59 $66 forward $20 $-1 #
coedge $-1 $61 $67 $28 $44 forward $68 $-1 #
edge $69 $70 -19 $71 15.99999999999995 $43 $72 forward 7 unknown #
model_id-kcp-attrib $-1 $-1 $-1 $30 1 990549440 60 -1304690686 3 #
face $73 $74 $75 $15 $-1 $76 reversed single #
loop $-1 $-1 $77 $30 #
plane-surface $-1 0 0 -50 0 0 1 1 0 0 forward_v I I I I #
coedge $-1 $78 $79 $80 $81 forward $31 $-1 #
face $-1 $82 $83 $17 $-1 $84 forward single #
loop $-1 $-1 $85 $33 #
plane-surface $-1 -12 14 50 -1 0 0 0 0 1 forward_v I I I I #
coedge $-1 $86 $87 $88 $89 forward $34 $-1 #
model_id-kcp-attrib $-1 $-1 $-1 $37 1 990549440 60 -1304690687 5 #
face $90 $91 $92 $7 $-1 $93 forward single #
loop $-1 $-1 $94 $37 #
cone-surface $-1 -5.9999999999999503 14 17.5 0 0 -1 -4.2426406871192803 4.2426406871192803 0 1 I I 0 1 5.9999999999999929 forward I I I I #
coedge $-1 $95 $96 $97 $98 reversed $38 $-1 #
coedge $-1 $99 $40 $42 $66 reversed $26 $-1 #
coedge $-1 $40 $99 $95 $100 reversed $26 $-1 #
coedge $-1 $97 $43 $40 $62 forward $68 $-1 #
edge $101 $71 -0.78539816339744828 $102 0.78539816339744828 $61 $103 forward 7 unknown #
coedge $-1 $42 $41 $104 $105 reversed $20 $-1 #
coedge $-1 $106 $107 $41 $65 reversed $108 $-1 #
edge $-1 $70 -41.666666666666664 $109 25 $41 $110 forward 7 unknown #
edge $-1 $111 -25 $71 41.666666666666664 $42 $112 forward 7 unknown #
coedge $-1 $43 $113 $106 $114 forward $68 $-1 #
loop $-1 $115 $116 $117 #
attrib_edge_convexity-kcp-attrib $-1 $118 $-1 $44 1 #
vertex $-1 $44 $119 #
vertex $-1 $62 $120 #
straight-curve $-1 10 -20 50 -1 0 0 I I #
model_id-kcp-attrib $-1 $-1 $-1 $46 1 990549440 60 -1304690686 4 #
face $121 $122 $123 $15 $-1 $124 reversed single #
loop $-1 $-1 $125 $46 #
plane-surface $-1 0 -50 0 0 1 0 0 0 1 forward_v I I I I #
coedge $-1 $126 $127 $128 $129 forward $47 $-1 #
coedge $-1 $130 $49 $131 $132 forward $31 $-1 #
coedge $-1 $49 $130 $133 $134 forward $31 $-1 #
coedge $-1 $135 $136 $49 $81 reversed $137 $-1 #
edge $-1 $138 -50 $139 50 $80 $140 forward 7 unknown #
face $-1 $141 $142 $17 $-1 $143 forward single #
loop $-1 $-1 $144 $50 #
cone-surface $-1 -5.9999999999999503 -14 50 0 0 -1 -4.2426406871192803 -4.2426406871192803 0 1 I I 0 1 5.9999999999999929 forward I I I I #
coedge $-1 $145 $146 $147 $148 forward $51 $-1 #
coedge $-1 $149 $53 $146 $150 reversed $34 $-1 #
coedge $-1 $53 $149 $151 $152 forward $34 $-1 #
coedge $-1 $153 $147 $53 $89 reversed $154 $-1 #
edge $-1 $155 -0.78539816339744828 $156 0.78539816339744828 $53 $157 forward 7 unknown #
model_id-kcp-attrib $-1 $-1 $-1 $55 1 990549440 60 -1304690687 6 #
face $158 $159 $160 $7 $-1 $161 reversed single #
loop $-1 $-1 $162 $55 #
plane-surface $-1 20 20 17.5 0 -1 0 0 0 -1.5 forward_v I I I I #
coedge $-1 $163 $164 $165 $166 reversed $56 $-1 #
coedge $-1 $167 $58 $60 $100 forward $38 $-1 #
coedge $-1 $58 $167 $163 $168 forward $38 $-1 #
coedge $-1 $165 $61 $58 $98 forward $68 $-1 #
edge $169 $102 -11.5 $170 16.5 $97 $171 forward 7 unknown #
coedge $-1 $60 $59 $172 $173 reversed $26 $-1 #
edge $-1 $102 -21.666666666666668 $174 45 $95 $175 forward 7 unknown #
attrib_edge_convexity-kcp-attrib $-1 $176 $-1 $62 1 #
vertex $-1 $98 $177 #
ellipse-curve $-1 -5.9999999999999503 -14 50 0 0 -1 -4.2426406871192803 -4.2426406871192803 0 1 I I #
coedge $-1 $178 $172 $63 $105 forward $179 $-1 #
edge $-1 $111 -15.99999999999995 $109 19 $104 $180 forward 7 unknown #
coedge $-1 $181 $64 $67 $114 reversed $108 $-1 #
coedge $-1 $64 $181 $178 $182 reversed $108 $-1 #
loop $-1 $-1 $106 $183 #
vertex $-1 $105 $184 #
straight-curve $-1 29 -20 -12.5 0 0 -1.5 I I #
vertex $-1 $173 $185 #
straight-curve $-1 -5.9999999999999503 -20 -12.5 0 0 1.5 I I #
coedge $-1 $67 $186 $187 $188 forward $68 $-1 #
edge $189 $190 -0.78539816339744828 $70 0.78539816339744828 $67 $191 forward 7 unknown #
loop $-1 $-1 $192 $117 #
coedge $-1 $186 $165 $162 $193 forward $68 $-1 #
face $194 $195 $68 $7 $-1 $196 forward single #
convexity-sys-attrib $-1 $-1 $69 $44 #
point $-1 29 -20 50 #
point $-1 -5.9999999999999503 -20 50 #
model_id-kcp-attrib $-1 $-1 $-1 $74 1 990549440 60 -1304690686 5 #
face $197 $198 $199 $15 $-1 $200 reversed single #
loop $-1 $-1 $201 $74 #
plane-surface $-1 -50 0 0 1 0 0 0 0 -1 forward_v I I I I #
coedge $-1 $202 $133 $203 $204 forward $75 $-1 #
coedge $-1 $205 $77 $202 $206 forward $47 $-1 #
coedge $-1 $77 $205 $207 $208 forward $47 $-1 #
coedge $-1 $136 $135 $77 $129 reversed $137 $-1 #
edge $-1 $209 -50 $210 50 $128 $211 forward 7 unknown #
coedge $-1 $79 $78 $212 $213 forward $31 $-1 #
coedge $-1 $214 $215 $78 $132 reversed $199 $-1 #
edge $-1 $139 -50 $216 50 $131 $217 forward 7 unknown #
coedge $-1 $125 $218 $79 $134 reversed $75 $-1 #
edge $-1 $219 -50 $138 50 $133 $220 forward 7 unknown #
coedge $-1 $128 $80 $218 $221 forward $137 $-1 #
coedge $-1 $80 $128 $214 $222 reversed $137 $-1 #
loop $-1 $-1 $135 $198 #
vertex $-1 $81 $223 #
vertex $-1 $81 $224 #
straight-curve $-1 50 0 50 0 1 0 I I #
face $-1 $225 $226 $17 $-1 $227 forward single #
loop $-1 $-1 $228 $82 #
plane-surface $-1 -5.9999999999999503 -20 50 0 -1 0 0 0 -1 forward_v I I I I #
coedge $-1 $229 $230 $231 $232 forward $83 $-1 #
coedge $-1 $233 $85 $230 $234 reversed $51 $-1 #
coedge $-1 $85 $233 $86 $150 forward $51 $-1 #
coedge $-1 $88 $231 $85 $148 reversed $154 $-1 #
edge $-1 $156 -16.5 $235 11.5 $85 $236 forward 7 unknown #
coedge $-1 $87 $86 $237 $238 forward $34 $-1 #
edge $-1 $239 0 $156 100 $146 $240 forward 7 unknown #
coedge $-1 $241 $242 $87 $152 reversed $243 $-1 #
edge $-1 $244 0 $155 100 $87 $245 forward 7 unknown #
coedge $-1 $246 $88 $242 $247 reversed $154 $-1 #
loop $-1 $-1 $88 $248 #
vertex $-1 $152 $249 #
vertex $-1 $150 $250 #
ellipse-curve $-1 -5.9999999999999503 14 -50 0 0 1 -4.2426406871192803 4.2426406871192803 0 1 I I #
model_id-kcp-attrib $-1 $-1 $-1 $91 1 990549440 60 -1304690687 7 #
face $251 $183 $252 $7 $-1 $253 forward single #
loop $-1 $-1 $254 $91 #
cone-surface $-1 29 14 17.5 0 0 -1 4.2426406871192803 4.2426406871192803 0 1 I I 0 1 5.9999999999999929 forward I I I I #
coedge $-1 $255 $256 $116 $193 reversed $92 $-1 #
coedge $-1 $257 $94 $96 $168 reversed $56 $-1 #
coedge $-1 $94 $257 $255 $258 reversed $56 $-1 #
coedge $-1 $116 $97 $94 $166 forward $68 $-1 #
edge $259 $170 -0.78539816339744828 $260 0.78539816339744828 $165 $261 forward 7 unknown #
coedge $-1 $96 $95 $262 $263 reversed $38 $-1 #
edge $-1 $264 -25 $170 41.666666666666664 $96 $265 forward 7 unknown #
attrib_edge_convexity-kcp-attrib $-1 $266 $-1 $98 1 #
vertex $-1 $166 $267 #
straight-curve $-1 -12 -2.5 50 0 1 0 I I #
coedge $-1 $104 $262 $99 $173 forward $179 $-1 #
edge $-1 $174 -0.78539816339744828 $111 0.78539816339744828 $172 $268 forward 7 unknown #
vertex $-1 $263 $269 #
straight-curve $-1 -12 -14 17.5 0 0 -1.5 I I #
convexity-sys-attrib $-1 $-1 $101 $62 #
point $-1 -12 -14 50 #
coedge $-1 $270 $104 $107 $182 forward $179 $-1 #
loop $-1 $271 $272 $195 #
straight-curve $-1 10 -20 -50 1 0 0 I I #
coedge $-1 $107 $106 $273 $274 reversed $108 $-1 #
edge $-1 $109 -0.78539816339744828 $275 0.78539816339744828 $178 $276 forward 7 unknown #
face $277 $117 $108 $7 $-1 $278 reversed single #
point $-1 29 -20 -50 #
point $-1 -5.9999999999999503 -20 -50 #
coedge $-1 $113 $116 $254 $279 forward $68 $-1 #
coedge $-1 $280 $273 $113 $188 reversed $252 $-1 #
edge $281 $282 -16.5 $190 11.5 $113 $283 forward 7 unknown #
attrib_edge_convexity-kcp-attrib $-1 $284 $-1 $114 1 #
vertex $-1 $188 $285 #
ellipse-curve $-1 29 -14 50 0 0 -1 4.2426406871192803 -4.2426406871192803 0 1 I I #
coedge $-1 $286 $287 $288 $289 forward $115 $-1 #
edge $290 $260 -15.99999999999995 $291 19 $116 $292 forward 7 unknown #
model_id-kcp-attrib $-1 $-1 $-1 $117 1 990549440 60 -1304690687 10 #
face $293 $294 $179 $7 $-1 $295 reversed single #
plane-surface $-1 0 0 50 0 0 1 1 0 0 forward_v I I I I #
model_id-kcp-attrib $-1 $-1 $-1 $122 1 990549440 60 -1304690686 6 #
face $296 $-1 $137 $15 $-1 $297 reversed single #
loop $-1 $-1 $214 $122 #
plane-surface $-1 0 50 0 0 -1 0 0 0 -1 forward_v I I I I #
coedge $-1 $298 $212 $215 $299 forward $123 $-1 #
coedge $-1 $218 $125 $126 $206 reversed $75 $-1 #
coedge $-1 $212 $298 $125 $204 reversed $123 $-1 #
edge $-1 $219 -50 $300 50 $203 $301 forward 7 unknown #
coedge $-1 $127 $126 $298 $302 forward $47 $-1 #
edge $-1 $210 -50 $300 50 $202 $303 forward 7 unknown #
coedge $-1 $215 $214 $127 $208 reversed $199 $-1 #
edge $-1 $304 -50 $209 50 $207 $305 forward 7 unknown #
vertex $-1 $129 $306 #
vertex $-1 $221 $307 #
straight-curve $-1 50 0 -50 0 -1 0 I I #
coedge $-1 $201 $203 $130 $213 reversed $123 $-1 #
edge $-1 $216 -50 $219 50 $212 $308 forward 7 unknown #
coedge $-1 $207 $131 $136 $222 forward $199 $-1 #
coedge $-1 $131 $207 $201 $299 reversed $199 $-1 #
vertex $-1 $132 $309 #
straight-curve $-1 0 50 50 -1 0 0 I I #
coedge $-1 $133 $202 $135 $221 reversed $75 $-1 #
vertex $-1 $213 $310 #
straight-curve $-1 0 -50 50 1 0 0 I I #
edge $-1 $138 -50 $210 50 $135 $311 forward 7 unknown #
edge $-1 $139 -50 $209 50 $136 $312 forward 7 unknown #
point $-1 50 -50 50 #
point $-1 50 50 50 #
face $-1 $313 $314 $17 $-1 $315 forward single #
loop $-1 $-1 $316 $141 #
cone-surface $-1 29 -14 50 0 0 -1 4.2426406871192803 -4.2426406871192803 0 1 I I 0 1 5.9999999999999929 forward I I I I #
coedge $-1 $317 $318 $319 $320 forward $142 $-1 #
coedge $-1 $321 $144 $318 $322 reversed $83 $-1 #
coedge $-1 $144 $321 $145 $234 forward $83 $-1 #
coedge $-1 $147 $319 $144 $232 reversed $154 $-1 #
edge $-1 $235 -0.78539816339744828 $323 0.78539816339744828 $144 $324 forward 7 unknown #
coedge $-1 $146 $145 $325 $326 forward $51 $-1 #
edge $-1 $327 0 $235 100 $230 $328 forward 7 unknown #
vertex $-1 $234 $329 #
straight-curve $-1 -12 -2.5 -50 0 -1 0 I I #
coedge $-1 $325 $330 $149 $238 reversed $331 $-1 #
edge $-1 $239 -0.78539816339744828 $244 0.78539816339744828 $149 $332 forward 7 unknown #
vertex $-1 $326 $333 #
straight-curve $-1 -12 14 50 0 0 -1 I I #
coedge $-1 $334 $151 $330 $335 forward $243 $-1 #
coedge $-1 $151 $334 $153 $247 forward $243 $-1 #
loop $-1 $-1 $242 $336 #
vertex $-1 $335 $337 #
straight-curve $-1 -5.9999999999999503 20 50 0 0 -1 I I #
coedge $-1 $338 $153 $339 $340 reversed $154 $-1 #
edge $-1 $341 -19 $155 15.99999999999995 $242 $342 forward 7 unknown #
face $-1 $343 $154 $17 $-1 $344 reversed single #
point $-1 -5.9999999999999503 20 -50 #
point $-1 -12 14 -50 #
model_id-kcp-attrib $-1 $-1 $-1 $159 1 990549440 60 -1304690687 8 #
loop $-1 $-1 $187 $159 #
plane-surface $-1 35 -5 17.5 -1 0 0 0 0 1.5 forward_v I I I I #
coedge $-1 $345 $346 $186 $279 reversed $160 $-1 #
coedge $-1 $347 $162 $164 $258 forward $92 $-1 #
coedge $-1 $162 $347 $345 $348 forward $92 $-1 #
coedge $-1 $164 $163 $349 $350 reversed $56 $-1 #
edge $-1 $260 -41.666666666666664 $351 25 $255 $352 forward 7 unknown #
attrib_edge_convexity-kcp-attrib $-1 $353 $-1 $166 1 #
vertex $-1 $193 $354 #
ellipse-curve $-1 -5.9999999999999503 14 50 0 0 -1 -4.2426406871192803 4.2426406871192803 0 1 I I #
coedge $-1 $172 $349 $167 $263 forward $179 $-1 #
edge $-1 $264 -16.5 $174 11.5 $262 $355 forward 7 unknown #
vertex $-1 $350 $356 #
straight-curve $-1 -12 14 -12.5 0 0 1.5 I I #
convexity-sys-attrib $-1 $-1 $169 $98 #
point $-1 -12 14 50 #
ellipse-curve $-1 -5.9999999999999503 -14 -50 0 0 1 -4.2426406871192803 -4.2426406871192803 0 1 I I #
point $-1 -12 -14 -50 #
coedge $-1 $357 $178 $358 $359 forward $179 $-1 #
loop $-1 $-1 $360 $195 #
coedge $-1 $349 $357 $347 $361 forward $179 $-1 #
coedge $-1 $187 $358 $181 $274 forward $252 $-1 #
edge $-1 $275 -25 $190 41.666666666666664 $273 $362 forward 7 unknown #
vertex $-1 $359 $363 #
ellipse-curve $-1 29 -14 -50 0 0 1 4.2426406871192803 -4.2426406871192803 0 1 I I #
model_id-kcp-attrib $-1 $-1 $-1 $183 1 990549440 60 -1304690687 9 #
cone-surface $-1 29 -14 17.5 0 0 -1 4.2426406871192803 -4.2426406871192803 0 1 I I 0 1 5.9999999999999929 forward I I I I #
edge $364 $291 -0.78539816339744828 $282 0.78539816339744828 $186 $365 forward 7 unknown #
coedge $-1 $358 $187 $346 $366 forward $252 $-1 #
attrib_edge_convexity-kcp-attrib $-1 $367 $-1 $188 1 #
vertex $-1 $279 $368 #
straight-curve $-1 35 -2.5 50 0 -1 0 I I #
convexity-sys-attrib $-1 $-1 $189 $114 #
point $-1 35 -14 50 #
coedge $-1 $369 $192 $370 $371 forward $115 $-1 #
coedge $-1 $192 $369 $372 $373 forward $115 $-1 #
coedge $-1 $374 $375 $192 $289 reversed $376 $-1 #
edge $377 $378 -50 $379 50 $288 $380 forward 7 unknown #
attrib_edge_convexity-kcp-attrib $-1 $381 $-1 $193 1 #
vertex $-1 $193 $382 #
straight-curve $-1 10 20 50 1 0 0 I I #
model_id-kcp-attrib $-1 $-1 $-1 $195 1 990549440 60 -1304690687 11 #
face $383 $384 $385 $7 $-1 $386 reversed single #
plane-surface $-1 0 0 -50 0 0 1 1 0 0 forward_v I I I I #
model_id-kcp-attrib $-1 $-1 $-1 $198 1 990549440 60 -1304690686 7 #
plane-surface $-1 50 0 0 -1 0 0 0 0 1 forward_v I I I I #
coedge $-1 $203 $201 $205 $302 reversed $123 $-1 #
edge $-1 $216 -50 $304 50 $215 $387 forward 7 unknown #
vertex $-1 $302 $388 #
straight-curve $-1 -50 -50 0 0 0 -1 I I #
edge $-1 $300 -50 $304 50 $298 $389 forward 7 unknown #
straight-curve $-1 0 -50 -50 -1 0 0 I I #
vertex $-1 $208 $390 #
straight-curve $-1 0 50 -50 1 0 0 I I #
point $-1 50 50 -50 #
point $-1 50 -50 -50 #
straight-curve $-1 -50 0 50 0 -1 0 I I #
point $-1 -50 50 50 #
point $-1 -50 -50 50 #
straight-curve $-1 50 -50 0 0 0 -1 I I #
straight-curve $-1 50 50 0 0 0 -1 I I #
face $-1 $336 $391 $17 $-1 $392 forward single #
loop $-1 $-1 $393 $225 #
plane-surface $-1 35 -14 50 1 0 0 0 0 -1 forward_v I I I I #
coedge $-1 $394 $395 $396 $397 forward $226 $-1 #
coedge $-1 $398 $228 $395 $399 reversed $142 $-1 #
coedge $-1 $228 $398 $229 $322 forward $142 $-1 #
coedge $-1 $231 $396 $228 $320 reversed $154 $-1 #
edge $-1 $323 -15.99999999999995 $400 19 $228 $401 forward 7 unknown #
coedge $-1 $230 $229 $402 $403 forward $83 $-1 #
edge $-1 $404 0 $323 100 $318 $405 forward 7 unknown #
vertex $-1 $322 $406 #
ellipse-curve $-1 -5.9999999999999503 -14 -50 0 0 1 -4.2426406871192803 -4.2426406871192803 0 1 I I #
coedge $-1 $402 $237 $233 $326 reversed $331 $-1 #
edge $-1 $327 -11.5 $239 16.5 $233 $407 forward 7 unknown #
vertex $-1 $403 $408 #
straight-curve $-1 -12 -14 50 0 0 -1 I I #
point $-1 -12 -14 -50 #
coedge $-1 $237 $409 $241 $335 reversed $331 $-1 #
loop $-1 $-1 $330 $343 #
ellipse-curve $-1 -5.9999999999999503 14 50 0 0 -1 -4.2426406871192803 4.2426406871192803 0 1 I I #
point $-1 -12 14 50 #
coedge $-1 $242 $241 $410 $411 forward $243 $-1 #
edge $-1 $244 -15.99999999999995 $412 19 $241 $413 forward 7 unknown #
face $-1 $248 $243 $17 $-1 $414 forward single #
point $-1 -5.9999999999999503 20 50 #
coedge $-1 $396 $246 $393 $415 reversed $154 $-1 #
coedge $-1 $410 $416 $246 $340 forward $391 $-1 #
edge $-1 $417 -0.78539816339744828 $341 0.78539816339744828 $339 $418 forward 7 unknown #
vertex $-1 $411 $419 #
straight-curve $-1 10 20 -50 -1 0 0 I I #
face $-1 $-1 $331 $17 $-1 $420 forward single #
plane-surface $-1 11.500000000000014 -2.2204460492503131e-016 -50 0 0 1 1 0 0 forward_v I I I I #
coedge $-1 $421 $254 $256 $348 reversed $160 $-1 #
coedge $-1 $254 $421 $280 $366 reversed $160 $-1 #
coedge $-1 $256 $255 $272 $361 reversed $92 $-1 #
edge $-1 $422 -25 $291 41.666666666666664 $256 $423 forward 7 unknown #
coedge $-1 $262 $272 $257 $350 forward $179 $-1 #
edge $-1 $351 -0.78539816339744828 $264 0.78539816339744828 $349 $424 forward 7 unknown #
vertex $-1 $361 $425 #
straight-curve $-1 -5.9999999999999503 20 -12.5 0 0 -1.5 I I #
convexity-sys-attrib $-1 $-1 $259 $166 #
point $-1 -5.9999999999999503 20 50 #
straight-curve $-1 -12 -2.5 -50 0 -1 0 I I #
point $-1 -12 14 -50 #
coedge $-1 $272 $270 $421 $426 forward $179 $-1 #
coedge $-1 $273 $280 $270 $359 reversed $252 $-1 #
edge $-1 $275 -11.5 $427 16.5 $270 $428 forward 7 unknown #
coedge $-1 $429 $430 $431 $432 forward $271 $-1 #
edge $-1 $422 -19 $351 15.99999999999995 $272 $433 forward 7 unknown #
straight-curve $-1 35 -14 -12.5 0 0 1.5 I I #
point $-1 35 -14 -50 #
attrib_edge_convexity-kcp-attrib $-1 $434 $-1 $279 1 #
ellipse-curve $-1 29 14 50 0 0 -1 4.2426406871192803 4.2426406871192803 0 1 I I #
edge $-1 $282 -21.666666666666668 $427 45 $280 $435 forward 7 unknown #
convexity-sys-attrib $-1 $-1 $281 $188 #
point $-1 35 14 50 #
coedge $-1 $287 $286 $436 $437 forward $115 $-1 #
coedge $-1 $438 $439 $286 $371 reversed $440 $-1 #
edge $441 $379 -50 $442 50 $370 $443 forward 7 unknown #
coedge $-1 $444 $445 $287 $373 reversed $385 $-1 #
edge $446 $447 -50 $378 50 $372 $448 forward 7 unknown #
coedge $-1 $431 $288 $445 $449 forward $376 $-1 #
coedge $-1 $288 $431 $438 $450 reversed $376 $-1 #
loop $-1 $-1 $374 $451 #
attrib_edge_convexity-kcp-attrib $-1 $452 $-1 $289 1 #
vertex $-1 $289 $453 #
vertex $-1 $289 $454 #
straight-curve $-1 50 0 50 0 1 0 I I #
convexity-sys-attrib $-1 $-1 $290 $193 #
point $-1 29 20 50 #
model_id-kcp-attrib $-1 $-1 $-1 $294 1 990549440 60 -1304690687 12 #
face $455 $456 $457 $7 $-1 $458 reversed single #
loop $-1 $-1 $444 $294 #
plane-surface $-1 0 -50 0 0 1 0 0 0 1 forward_v I I I I #
straight-curve $-1 -50 50 0 0 0 -1 I I #
point $-1 -50 -50 -50 #
straight-curve $-1 -50 0 -50 0 1 0 I I #
point $-1 -50 50 -50 #
loop $-1 $-1 $339 $313 #
cone-surface $-1 29 14 50 0 0 -1 4.2426406871192803 4.2426406871192803 0 1 I I 0 1 5.9999999999999929 forward I I I I #
coedge $-1 $459 $460 $338 $415 forward $314 $-1 #
coedge $-1 $461 $316 $460 $462 reversed $226 $-1 #
coedge $-1 $316 $461 $317 $399 forward $226 $-1 #
coedge $-1 $319 $338 $316 $397 reversed $154 $-1 #
edge $-1 $400 -0.78539816339744828 $463 0.78539816339744828 $316 $464 forward 7 unknown #
coedge $-1 $318 $317 $465 $466 forward $142 $-1 #
edge $-1 $467 0 $400 100 $395 $468 forward 7 unknown #
vertex $-1 $399 $469 #
straight-curve $-1 10 -20 -50 1 0 0 I I #
coedge $-1 $465 $325 $321 $403 reversed $331 $-1 #
edge $-1 $404 -0.78539816339744828 $327 0.78539816339744828 $321 $470 forward 7 unknown #
vertex $-1 $466 $471 #
straight-curve $-1 -5.9999999999999503 -20 50 0 0 -1 I I #
point $-1 -5.9999999999999503 -20 -50 #
straight-curve $-1 -12 -2.5 50 0 1 0 I I #
point $-1 -12 -14 50 #
coedge $-1 $330 $472 $473 $474 reversed $331 $-1 #
coedge $-1 $473 $339 $334 $411 reversed $391 $-1 #
edge $-1 $412 0 $341 100 $334 $475 forward 7 unknown #
vertex $-1 $335 $476 #
straight-curve $-1 10 20 50 1 0 0 I I #
plane-surface $-1 29 20 50 0 1 0 0 0 1 forward_v I I I I #
edge $-1 $463 -11.5 $417 16.5 $393 $477 forward 7 unknown #
coedge $-1 $339 $473 $459 $478 forward $391 $-1 #
vertex $-1 $478 $479 #
ellipse-curve $-1 29 14 -50 0 0 1 4.2426406871192803 4.2426406871192803 0 1 I I #
point $-1 29 20 -50 #
plane-surface $-1 11.500000000000014 -2.2204460492503131e-016 50 0 0 1 1 0 0 forward_v I I I I #
coedge $-1 $346 $345 $357 $426 reversed $160 $-1 #
vertex $-1 $361 $480 #
straight-curve $-1 29 20 -12.5 0 0 1.5 I I #
ellipse-curve $-1 -5.9999999999999503 14 -50 0 0 1 -4.2426406871192803 4.2426406871192803 0 1 I I #
point $-1 -5.9999999999999503 20 -50 #
edge $-1 $427 -0.78539816339744828 $422 0.78539816339744828 $357 $481 forward 7 unknown #
vertex $-1 $426 $482 #
straight-curve $-1 35 -2.5 -50 0 1 0 I I #
coedge $-1 $483 $360 $484 $485 forward $271 $-1 #
coedge $-1 $360 $483 $486 $487 forward $271 $-1 #
coedge $-1 $375 $374 $360 $432 reversed $376 $-1 #
edge $-1 $488 -50 $489 50 $431 $490 forward 7 unknown #
straight-curve $-1 10 20 -50 -1 0 0 I I #
convexity-sys-attrib $-1 $-1 $364 $279 #
straight-curve $-1 35 14 17.5 0 0 -1.5 I I #
coedge $-1 $491 $492 $369 $437 reversed $457 $-1 #
edge $493 $442 -50 $447 50 $436 $494 forward 7 unknown #
coedge $-1 $486 $370 $375 $450 forward $440 $-1 #
coedge $-1 $370 $486 $491 $495 reversed $440 $-1 #
loop $-1 $-1 $438 $456 #
attrib_edge_convexity-kcp-attrib $-1 $496 $-1 $371 1 #
vertex $-1 $371 $497 #
straight-curve $-1 0 50 50 -1 0 0 I I #
coedge $-1 $484 $372 $492 $498 forward $385 $-1 #
coedge $-1 $372 $484 $374 $449 reversed $385 $-1 #
attrib_edge_convexity-kcp-attrib $-1 $499 $-1 $373 1 #
vertex $-1 $437 $500 #
straight-curve $-1 0 -50 50 1 0 0 I I #
edge $501 $378 -50 $489 50 $374 $502 forward 7 unknown #
edge $-1 $379 -50 $488 50 $375 $503 forward 7 unknown #
face $504 $-1 $376 $7 $-1 $505 reversed single #
convexity-sys-attrib $-1 $-1 $377 $289 #
point $-1 50 -50 50 #
point $-1 50 50 50 #
model_id-kcp-attrib $-1 $-1 $-1 $384 1 990549440 60 -1304690687 13 #
face $506 $451 $440 $7 $-1 $507 reversed single #
loop $-1 $-1 $491 $384 #
plane-surface $-1 -50 0 0 1 0 0 0 0 -1 forward_v I I I I #
coedge $-1 $508 $393 $416 $478 reversed $314 $-1 #
coedge $-1 $393 $508 $394 $462 forward $314 $-1 #
coedge $-1 $395 $394 $509 $510 forward $226 $-1 #
edge $-1 $511 0 $463 100 $460 $512 forward 7 unknown #
vertex $-1 $462 $513 #
ellipse-curve $-1 29 -14 -50 0 0 1 4.2426406871192803 -4.2426406871192803 0 1 I I #
coedge $-1 $509 $402 $398 $466 reversed $331 $-1 #
edge $-1 $467 -19 $404 15.99999999999995 $398 $514 forward 7 unknown #
vertex $-1 $510 $515 #
straight-curve $-1 29 -20 50 0 0 -1 I I #
point $-1 29 -20 -50 #
ellipse-curve $-1 -5.9999999999999503 -14 50 0 0 -1 -4.2426406871192803 -4.2426406871192803 0 1 I I #
point $-1 -5.9999999999999503 -20 50 #
coedge $-1 $409 $509 $508 $516 reversed $331 $-1 #
coedge $-1 $416 $410 $409 $474 forward $391 $-1 #
edge $-1 $412 -0.78539816339744828 $517 0.78539816339744828 $473 $518 forward 7 unknown #
straight-curve $-1 29 20 50 0 0 -1 I I #
point $-1 29 20 50 #
straight-curve $-1 35 -2.5 -50 0 1 0 I I #
edge $-1 $517 0 $417 100 $416 $519 forward 7 unknown #
point $-1 35 14 -50 #
point $-1 29 20 -50 #
ellipse-curve $-1 29 14 -50 0 0 1 4.2426406871192803 4.2426406871192803 0 1 I I #
point $-1 35 14 -50 #
coedge $-1 $430 $429 $520 $521 forward $271 $-1 #
coedge $-1 $445 $444 $429 $485 reversed $385 $-1 #
edge $522 $489 -50 $523 50 $484 $524 forward 7 unknown #
coedge $-1 $439 $438 $430 $487 reversed $440 $-1 #
edge $-1 $525 -50 $488 50 $486 $526 forward 7 unknown #
vertex $-1 $432 $527 #
vertex $-1 $449 $528 #
straight-curve $-1 50 0 -50 0 -1 0 I I #
coedge $-1 $520 $436 $439 $495 forward $457 $-1 #
coedge $-1 $436 $520 $444 $498 reversed $457 $-1 #
attrib_edge_convexity-kcp-attrib $-1 $529 $-1 $437 1 #
straight-curve $-1 -50 0 50 0 -1 0 I I #
edge $530 $442 -50 $525 50 $439 $531 forward 7 unknown #
convexity-sys-attrib $-1 $-1 $441 $371 #
point $-1 -50 50 50 #
edge $532 $447 -50 $523 50 $492 $533 forward 7 unknown #
convexity-sys-attrib $-1 $-1 $446 $373 #
point $-1 -50 -50 50 #
attrib_edge_convexity-kcp-attrib $-1 $534 $-1 $449 1 #
straight-curve $-1 50 -50 0 0 0 -1 I I #
straight-curve $-1 50 50 0 0 0 -1 I I #
model_id-kcp-attrib $-1 $-1 $-1 $451 1 990549440 60 -1304690687 15 #
plane-surface $-1 50 0 0 -1 0 0 0 0 1 forward_v I I I I #
model_id-kcp-attrib $-1 $-1 $-1 $456 1 990549440 60 -1304690687 14 #
plane-surface $-1 0 50 0 0 -1 0 0 0 -1 forward_v I I I I #
coedge $-1 $460 $459 $472 $516 forward $314 $-1 #
coedge $-1 $472 $465 $461 $510 reversed $331 $-1 #
edge $-1 $511 -0.78539816339744828 $467 0.78539816339744828 $461 $535 forward 7 unknown #
vertex $-1 $516 $536 #
straight-curve $-1 35 -14 50 0 0 -1 I I #
point $-1 35 -14 -50 #
straight-curve $-1 10 -20 50 -1 0 0 I I #
point $-1 29 -20 50 #
edge $-1 $517 -16.5 $511 11.5 $508 $537 forward 7 unknown #
vertex $-1 $474 $538 #
ellipse-curve $-1 29 14 50 0 0 -1 4.2426406871192803 4.2426406871192803 0 1 I I #
straight-curve $-1 35 14 50 0 0 -1 I I #
coedge $-1 $492 $491 $483 $521 reversed $457 $-1 #
edge $539 $523 -50 $525 50 $520 $540 forward 7 unknown #
attrib_edge_convexity-kcp-attrib $-1 $541 $-1 $485 1 #
vertex $-1 $521 $542 #
straight-curve $-1 0 -50 -50 -1 0 0 I I #
vertex $-1 $487 $543 #
straight-curve $-1 0 50 -50 1 0 0 I I #
point $-1 50 50 -50 #
point $-1 50 -50 -50 #
convexity-sys-attrib $-1 $-1 $493 $437 #
attrib_edge_convexity-kcp-attrib $-1 $544 $-1 $495 1 #
straight-curve $-1 -50 50 0 0 0 -1 I I #
attrib_edge_convexity-kcp-attrib $-1 $545 $-1 $498 1 #
straight-curve $-1 -50 -50 0 0 0 -1 I I #
convexity-sys-attrib $-1 $-1 $501 $449 #
ellipse-curve $-1 29 -14 50 0 0 -1 4.2426406871192803 -4.2426406871192803 0 1 I I #
point $-1 35 -14 50 #
straight-curve $-1 35 -2.5 50 0 -1 0 I I #
point $-1 35 14 50 #
attrib_edge_convexity-kcp-attrib $-1 $546 $-1 $521 1 #
straight-curve $-1 -50 0 -50 0 1 0 I I #
convexity-sys-attrib $-1 $-1 $522 $485 #
point $-1 -50 -50 -50 #
point $-1 -50 50 -50 #
convexity-sys-attrib $-1 $-1 $530 $495 #
convexity-sys-attrib $-1 $-1 $532 $498 #
convexity-sys-attrib $-1 $-1 $539 $521 #
End-of-ACIS-data 