105 239 1 0                             
body $-1 $1 $-1 $-1 #
lump $-1 $-1 $2 $0 #
shell $-1 $-1 $-1 $3 $1 #
face $-1 $4 $5 $2 $-1 $6 forward single #
face $-1 $7 $8 $2 $-1 $9 reversed single #
loop $-1 $-1 $10 $3 #
plane-surface $-1 20 -20 17.5 0 1 0 0 0 1.5 0 #
face $-1 $11 $12 $2 $-1 $13 forward single #
loop $-1 $-1 $14 $4 #
cone-surface $-1 -5.99999999999995 -14 17.5 -0 -0 -1 -4.24264068711928 -4.24264068711928 0 1 0 1 0 #
coedge $-1 $15 $16 $17 $18 1 $5 $-1 #
face $-1 $19 $20 $2 $-1 $21 reversed single #
loop $-1 $-1 $22 $7 #
plane-surface $-1 -12 -5 17.5 1 0 0 0 0 -1.5 0 #
coedge $-1 $23 $24 $25 $26 1 $8 $-1 #
coedge $-1 $27 $10 $28 $29 0 $5 $-1 #
coedge $-1 $10 $27 $23 $30 0 $5 $-1 #
coedge $-1 $25 $31 $10 $18 0 $32 $-1 #
edge $-1 $33 $34 $17 $35 0 #
face $-1 $36 $37 $2 $-1 $38 forward single #
loop $-1 $-1 $39 $11 #
cone-surface $-1 -5.99999999999995 14 17.5 0 0 -1 -4.24264068711928 4.24264068711928 0 1 0 1 0 #
coedge $-1 $40 $41 $42 $43 1 $12 $-1 #
coedge $-1 $44 $14 $16 $30 1 $8 $-1 #
coedge $-1 $14 $44 $40 $45 1 $8 $-1 #
coedge $-1 $42 $17 $14 $26 0 $32 $-1 #
edge $-1 $34 $46 $25 $47 0 #
coedge $-1 $16 $15 $48 $49 1 $5 $-1 #
coedge $-1 $50 $51 $15 $29 1 $52 $-1 #
edge $-1 $33 $53 $15 $54 0 #
edge $-1 $55 $34 $16 $56 0 #
coedge $-1 $17 $57 $50 $58 0 $32 $-1 #
loop $-1 $59 $60 $61 #
vertex $-1 $18 $62 #
vertex $-1 $26 $63 #
straight-curve $-1 10 -20 50 -1 0 0 #
face $-1 $64 $65 $2 $-1 $66 reversed single #
loop $-1 $-1 $67 $19 #
plane-surface $-1 20 20 17.5 0 -1 0 0 0 -1.5 0 #
coedge $-1 $68 $69 $70 $71 1 $20 $-1 #
coedge $-1 $72 $22 $24 $45 0 $12 $-1 #
coedge $-1 $22 $72 $68 $73 0 $12 $-1 #
coedge $-1 $70 $25 $22 $43 0 $32 $-1 #
edge $-1 $46 $74 $42 $75 0 #
coedge $-1 $24 $23 $76 $77 1 $8 $-1 #
edge $-1 $46 $78 $40 $79 0 #
vertex $-1 $43 $80 #
ellipse-curve $-1 -5.99999999999995 -14 50 -0 -0 -1 -4.24264068711928 -4.24264068711928 0 1 #
coedge $-1 $81 $76 $27 $49 0 $82 $-1 #
edge $-1 $55 $53 $48 $83 0 #
coedge $-1 $84 $28 $31 $58 1 $52 $-1 #
coedge $-1 $28 $84 $81 $85 1 $52 $-1 #
loop $-1 $-1 $50 $86 #
vertex $-1 $49 $87 #
straight-curve $-1 29 -20 -12.5 0 0 -1.5 #
vertex $-1 $77 $88 #
straight-curve $-1 -5.99999999999995 -20 -12.5 0 0 1.5 #
coedge $-1 $31 $89 $90 $91 0 $32 $-1 #
edge $-1 $92 $33 $31 $93 0 #
loop $-1 $-1 $94 $61 #
coedge $-1 $89 $70 $67 $95 0 $32 $-1 #
face $-1 $96 $32 $2 $-1 $97 forward single #
point $-1 29 -20 50 #
point $-1 -5.99999999999995 -20 50 #
face $-1 $86 $98 $2 $-1 $99 forward single #
loop $-1 $-1 $100 $36 #
cone-surface $-1 29 14 17.5 0 0 -1 4.24264068711928 4.24264068711928 0 1 0 1 0 #
coedge $-1 $101 $102 $60 $95 1 $37 $-1 #
coedge $-1 $103 $39 $41 $73 1 $20 $-1 #
coedge $-1 $39 $103 $101 $104 1 $20 $-1 #
coedge $-1 $60 $42 $39 $71 0 $32 $-1 #
edge $-1 $74 $105 $70 $106 0 #
coedge $-1 $41 $40 $107 $108 1 $12 $-1 #
edge $-1 $109 $74 $41 $110 0 #
vertex $-1 $71 $111 #
straight-curve $-1 -12 -2.5 50 0 1 0 #
coedge $-1 $48 $107 $44 $77 0 $82 $-1 #
edge $-1 $78 $55 $76 $112 0 #
vertex $-1 $108 $113 #
straight-curve $-1 -12 -14 17.5 0 0 -1.5 #
point $-1 -12 -14 50 #
coedge $-1 $114 $48 $51 $85 0 $82 $-1 #
loop $-1 $115 $116 $96 #
straight-curve $-1 10 -20 -50 1 0 0 #
coedge $-1 $51 $50 $117 $118 1 $52 $-1 #
edge $-1 $53 $119 $81 $120 0 #
face $-1 $61 $52 $2 $-1 $121 reversed single #
point $-1 29 -20 -50 #
point $-1 -5.99999999999995 -20 -50 #
coedge $-1 $57 $60 $100 $122 0 $32 $-1 #
coedge $-1 $123 $117 $57 $91 1 $98 $-1 #
edge $-1 $124 $92 $57 $125 0 #
vertex $-1 $91 $126 #
ellipse-curve $-1 29 -14 50 -0 -0 -1 4.24264068711928 -4.24264068711928 0 1 #
coedge $-1 $127 $128 $129 $130 0 $59 $-1 #
edge $-1 $105 $131 $60 $132 0 #
face $-1 $133 $82 $2 $-1 $134 reversed single #
plane-surface $-1 0 0 50 0 0 1 1 0 0 0 #
loop $-1 $-1 $90 $64 #
plane-surface $-1 35 -5 17.5 -1 0 0 0 0 1.5 0 #
coedge $-1 $135 $136 $89 $122 1 $65 $-1 #
coedge $-1 $137 $67 $69 $104 0 $37 $-1 #
coedge $-1 $67 $137 $135 $138 0 $37 $-1 #
coedge $-1 $69 $68 $139 $140 1 $20 $-1 #
edge $-1 $105 $141 $101 $142 0 #
vertex $-1 $95 $143 #
ellipse-curve $-1 -5.99999999999995 14 50 -0 -0 -1 -4.24264068711928 4.24264068711928 0 1 #
coedge $-1 $76 $139 $72 $108 0 $82 $-1 #
edge $-1 $109 $78 $107 $144 0 #
vertex $-1 $140 $145 #
straight-curve $-1 -12 14 -12.5 0 0 1.5 #
point $-1 -12 14 50 #
ellipse-curve $-1 -5.99999999999995 -14 -50 0 0 1 -4.24264068711928 -4.24264068711928 0 1 #
point $-1 -12 -14 -50 #
coedge $-1 $146 $81 $147 $148 0 $82 $-1 #
loop $-1 $-1 $149 $96 #
coedge $-1 $139 $146 $137 $150 0 $82 $-1 #
coedge $-1 $90 $147 $84 $118 0 $98 $-1 #
edge $-1 $119 $92 $117 $151 0 #
vertex $-1 $148 $152 #
ellipse-curve $-1 29 -14 -50 0 0 1 4.24264068711928 -4.24264068711928 0 1 #
cone-surface $-1 29 -14 17.5 0 0 -1 4.24264068711928 -4.24264068711928 0 1 0 1 0 #
edge $-1 $131 $124 $89 $153 0 #
coedge $-1 $147 $90 $136 $154 0 $98 $-1 #
vertex $-1 $122 $155 #
straight-curve $-1 35 -2.5 50 0 -1 0 #
point $-1 35 -14 50 #
coedge $-1 $156 $94 $157 $158 0 $59 $-1 #
coedge $-1 $94 $156 $159 $160 0 $59 $-1 #
coedge $-1 $161 $162 $94 $130 1 $163 $-1 #
edge $-1 $164 $165 $129 $166 0 #
vertex $-1 $95 $167 #
straight-curve $-1 10 20 50 1 0 -0 #
face $-1 $168 $169 $2 $-1 $170 reversed single #
plane-surface $-1 0 0 -50 0 0 1 1 0 0 0 #
coedge $-1 $171 $100 $102 $138 1 $65 $-1 #
coedge $-1 $100 $171 $123 $154 1 $65 $-1 #
coedge $-1 $102 $101 $116 $150 1 $37 $-1 #
edge $-1 $172 $131 $102 $173 0 #
coedge $-1 $107 $116 $103 $140 0 $82 $-1 #
edge $-1 $141 $109 $139 $174 0 #
vertex $-1 $150 $175 #
straight-curve $-1 -5.99999999999995 20 -12.5 0 0 -1.5 #
point $-1 -5.99999999999995 20 50 #
straight-curve $-1 -12 -2.5 -50 0 -1 0 #
point $-1 -12 14 -50 #
coedge $-1 $116 $114 $171 $176 0 $82 $-1 #
coedge $-1 $117 $123 $114 $148 1 $98 $-1 #
edge $-1 $119 $177 $114 $178 0 #
coedge $-1 $179 $180 $181 $182 0 $115 $-1 #
edge $-1 $172 $141 $116 $183 0 #
straight-curve $-1 35 -14 -12.5 0 0 1.5 #
point $-1 35 -14 -50 #
ellipse-curve $-1 29 14 50 -0 -0 -1 4.24264068711928 4.24264068711928 0 1 #
edge $-1 $124 $177 $123 $184 0 #
point $-1 35 14 50 #
coedge $-1 $128 $127 $185 $186 0 $59 $-1 #
coedge $-1 $187 $188 $127 $158 1 $189 $-1 #
edge $-1 $165 $190 $157 $191 0 #
coedge $-1 $192 $193 $128 $160 1 $169 $-1 #
edge $-1 $194 $164 $159 $195 0 #
coedge $-1 $181 $129 $193 $196 0 $163 $-1 #
coedge $-1 $129 $181 $187 $197 1 $163 $-1 #
loop $-1 $-1 $161 $198 #
vertex $-1 $130 $199 #
vertex $-1 $130 $200 #
straight-curve $-1 50 0 50 0 1 0 #
point $-1 29 20 50 #
face $-1 $201 $202 $2 $-1 $203 reversed single #
loop $-1 $-1 $192 $133 #
plane-surface $-1 0 -50 0 0 1 -0 -0 0 1 0 #
coedge $-1 $136 $135 $146 $176 1 $65 $-1 #
vertex $-1 $150 $204 #
straight-curve $-1 29 20 -12.5 0 0 1.5 #
ellipse-curve $-1 -5.99999999999995 14 -50 0 0 1 -4.24264068711928 4.24264068711928 0 1 #
point $-1 -5.99999999999995 20 -50 #
edge $-1 $177 $172 $146 $205 0 #
vertex $-1 $176 $206 #
straight-curve $-1 35 -2.5 -50 0 1 -0 #
coedge $-1 $207 $149 $208 $209 0 $115 $-1 #
coedge $-1 $149 $207 $210 $211 0 $115 $-1 #
coedge $-1 $162 $161 $149 $182 1 $163 $-1 #
edge $-1 $212 $213 $181 $214 0 #
straight-curve $-1 10 20 -50 -1 0 0 #
straight-curve $-1 35 14 17.5 0 0 -1.5 #
coedge $-1 $215 $216 $156 $186 1 $202 $-1 #
edge $-1 $190 $194 $185 $217 0 #
coedge $-1 $210 $157 $162 $197 0 $189 $-1 #
coedge $-1 $157 $210 $215 $218 1 $189 $-1 #
loop $-1 $-1 $187 $201 #
vertex $-1 $158 $219 #
straight-curve $-1 0 50 50 -1 0 0 #
coedge $-1 $208 $159 $216 $220 0 $169 $-1 #
coedge $-1 $159 $208 $161 $196 1 $169 $-1 #
vertex $-1 $186 $221 #
straight-curve $-1 0 -50 50 1 0 0 #
edge $-1 $164 $213 $161 $222 0 #
edge $-1 $165 $212 $162 $223 0 #
face $-1 $-1 $163 $2 $-1 $224 reversed single #
point $-1 50 -50 50 #
point $-1 50 50 50 #
face $-1 $198 $189 $2 $-1 $225 reversed single #
loop $-1 $-1 $215 $168 #
plane-surface $-1 -50 0 0 1 0 0 0 0 -1 0 #
point $-1 29 20 -50 #
ellipse-curve $-1 29 14 -50 0 0 1 4.24264068711928 4.24264068711928 0 1 #
point $-1 35 14 -50 #
coedge $-1 $180 $179 $226 $227 0 $115 $-1 #
coedge $-1 $193 $192 $179 $209 1 $169 $-1 #
edge $-1 $213 $228 $208 $229 0 #
coedge $-1 $188 $187 $180 $211 1 $189 $-1 #
edge $-1 $230 $212 $210 $231 0 #
vertex $-1 $182 $232 #
vertex $-1 $196 $233 #
straight-curve $-1 50 0 -50 0 -1 0 #
coedge $-1 $226 $185 $188 $218 0 $202 $-1 #
coedge $-1 $185 $226 $192 $220 1 $202 $-1 #
straight-curve $-1 -50 0 50 0 -1 0 #
edge $-1 $190 $230 $188 $234 0 #
point $-1 -50 50 50 #
edge $-1 $194 $228 $216 $235 0 #
point $-1 -50 -50 50 #
straight-curve $-1 50 -50 0 0 0 -1 #
straight-curve $-1 50 50 0 0 0 -1 #
plane-surface $-1 50 0 0 -1 0 0 0 -0 1 0 #
plane-surface $-1 0 50 0 0 -1 0 0 0 -1 0 #
coedge $-1 $216 $215 $207 $227 1 $202 $-1 #
edge $-1 $228 $230 $226 $236 0 #
vertex $-1 $227 $237 #
straight-curve $-1 0 -50 -50 -1 0 0 #
vertex $-1 $211 $238 #
straight-curve $-1 0 50 -50 1 0 0 #
point $-1 50 50 -50 #
point $-1 50 -50 -50 #
straight-curve $-1 -50 50 0 0 0 -1 #
straight-curve $-1 -50 -50 0 0 0 -1 #
straight-curve $-1 -50 0 -50 0 1 0 #
point $-1 -50 -50 -50 #
point $-1 -50 50 -50 #
