600 0 2 0           
24 FBMach with ACIS - 6.0.3 13 ACIS 6.0.3 NT 24 Mon Apr 01 00:09:16 2002 
1 9.9999999999999995e-007 1e-010 
body $2 $3 $-1 $4 #
bdycol-kcp $-1 1 2 $5 $6 #
model_id-kcp-attrib $-1 $7 $-1 $0 1 1017637756 80 122683393 1 #
lump $-1 $-1 $8 $0 #
transform $-1 1 0 0 0 1 0 0 0 1 0 0 0 1 rotate no_reflect no_shear #
body $9 $10 $-1 $11 #
body $12 $13 $-1 $14 #
aggregate_advspl_attribute-aggregate_geombuild_base_attribute-aggregate_body_attribute-attrib_HH-attrib $-1 $15 $2 $0 F #
shell $-1 $-1 $-1 $16 $-1 $3 #
model_id-kcp-attrib $-1 $-1 $-1 $5 1 1017637756 80 122683394 1 #
lump $-1 $-1 $17 $5 #
transform $-1 1 0 0 0 1 0 0 0 1 0 0 0 1 no_rotate no_reflect no_shear #
rgb_color-st-attrib $-1 $18 $-1 $6 0.5 1 1 #
lump $-1 $-1 $19 $6 #
transform $-1 1 0 0 0 1 0 0 0 1 0 0 0 1 no_rotate no_reflect no_shear #
aggregate_secndry_attribute-aggregate_geombuild_base_attribute-aggregate_body_attribute-attrib_HH-attrib $-1 $20 $7 $0 F #
face $21 $22 $23 $8 $-1 $24 forward single #
shell $-1 $-1 $-1 $25 $-1 $10 #
model_id-kcp-attrib $-1 $-1 $12 $6 1 1017637756 230 132513795 1 #
shell $-1 $-1 $-1 $26 $-1 $13 #
aggregate_sharped_attribute-aggregate_geombuild_base_attribute-aggregate_body_attribute-attrib_HH-attrib $-1 $27 $15 $0 F #
model_id-kcp-attrib $-1 $28 $-1 $16 1 1017637756 80 122683393 2 #
face $29 $30 $31 $8 $-1 $32 reversed single #
loop $-1 $-1 $33 $16 #
plane-surface $-1 20 -20 17.5 0 1 0 0 0 1.5 forward_v I I I I #
face $34 $35 $36 $17 $-1 $37 forward single #
face $-1 $38 $39 $19 $-1 $40 forward single #
aggregate_reblend_attribute-aggregate_geombuild_base_attribute-aggregate_body_attribute-attrib_HH-attrib $-1 $41 $20 $0 F #
attrib_hh_face_geombuild-attrib_entity_geombuild-individual_entity_attribute-attrib_HH-attrib $-1 $-1 $21 $16 F #
model_id-kcp-attrib $-1 $42 $-1 $22 1 1017637756 80 122683393 3 #
face $43 $44 $45 $8 $-1 $46 forward single #
loop $-1 $-1 $47 $22 #
cone-surface $-1 -5.9999999999999503 -14 17.5 0 0 -1 -4.2426406871192803 -4.2426406871192803 0 1 I I 0 1 5.9999999999999929 forward I I I I #
coedge $48 $49 $50 $51 $52 reversed $23 $-1 #
model_id-kcp-attrib $-1 $-1 $-1 $25 1 1017637756 80 122683394 2 #
face $53 $54 $55 $17 $-1 $56 reversed single #
loop $-1 $-1 $57 $25 #
plane-surface $-1 0 0 50 0 0 1 1 0 0 forward_v I I I I #
face $-1 $58 $59 $19 $-1 $60 forward single #
loop $-1 $-1 $61 $26 #
cone-surface $-1 -5.9999999999999503 14 50 0 0 -1 -4.2426406871192803 4.2426406871192803 0 1 I I 0 1 5.9999999999999929 forward I I I I #
aggregate_isospline_attribute-aggregate_geombuild_base_attribute-aggregate_body_attribute-attrib_HH-attrib $-1 $62 $27 $0 F #
attrib_hh_face_geombuild-attrib_entity_geombuild-individual_entity_attribute-attrib_HH-attrib $-1 $-1 $29 $22 F #
model_id-kcp-attrib $-1 $63 $-1 $30 1 1017637756 80 122683393 4 #
face $64 $65 $66 $8 $-1 $67 reversed single #
loop $-1 $-1 $68 $30 #
plane-surface $-1 -12 -5 17.5 1 0 0 0 0 -1.5 forward_v I I I I #
coedge $69 $70 $71 $72 $73 reversed $31 $-1 #
attrib_hh_coedge_geombuild-attrib_entity_geombuild-individual_entity_attribute-attrib_HH-attrib $-1 $-1 $-1 $33 F #
coedge $74 $75 $33 $76 $77 forward $23 $-1 #
coedge $78 $33 $75 $70 $79 forward $23 $-1 #
coedge $80 $72 $81 $33 $52 forward $82 $-1 #
edge $83 $84 -19 $85 15.99999999999995 $51 $86 forward 7 unknown #
model_id-kcp-attrib $-1 $-1 $-1 $35 1 1017637756 80 122683394 3 #
face $87 $88 $89 $17 $-1 $90 reversed single #
loop $-1 $-1 $91 $35 #
plane-surface $-1 0 0 -50 0 0 1 1 0 0 forward_v I I I I #
coedge $-1 $92 $93 $94 $95 forward $36 $-1 #
face $-1 $96 $97 $19 $-1 $98 forward single #
loop $-1 $-1 $99 $38 #
plane-surface $-1 -12 14 50 -1 0 0 0 0 1 forward_v I I I I #
coedge $-1 $100 $101 $102 $103 forward $39 $-1 #
aggregate_analytic_solver_attribute-aggregate_geombuild_base_attribute-aggregate_body_attribute-attrib_HH-attrib $-1 $104 $41 $0 F #
attrib_hh_face_geombuild-attrib_entity_geombuild-individual_entity_attribute-attrib_HH-attrib $-1 $-1 $43 $30 F #
model_id-kcp-attrib $-1 $105 $-1 $44 1 1017637756 80 122683393 5 #
face $106 $107 $108 $8 $-1 $109 forward single #
loop $-1 $-1 $110 $44 #
cone-surface $-1 -5.9999999999999503 14 17.5 0 0 -1 -4.2426406871192803 4.2426406871192803 0 1 I I 0 1 5.9999999999999929 forward I I I I #
coedge $111 $112 $113 $114 $115 reversed $45 $-1 #
attrib_hh_coedge_geombuild-attrib_entity_geombuild-individual_entity_attribute-attrib_HH-attrib $-1 $-1 $-1 $47 F #
coedge $116 $117 $47 $50 $79 reversed $31 $-1 #
coedge $118 $47 $117 $112 $119 reversed $31 $-1 #
coedge $120 $114 $51 $47 $73 forward $82 $-1 #
edge $121 $85 -0.78539816339744828 $122 0.78539816339744828 $72 $123 forward 7 unknown #
attrib_hh_coedge_geombuild-attrib_entity_geombuild-individual_entity_attribute-attrib_HH-attrib $-1 $-1 $-1 $49 F #
coedge $124 $50 $49 $125 $126 reversed $23 $-1 #
coedge $127 $128 $129 $49 $77 reversed $130 $-1 #
edge $131 $84 -41.666666666666664 $132 25 $49 $133 forward 7 unknown #
attrib_hh_coedge_geombuild-attrib_entity_geombuild-individual_entity_attribute-attrib_HH-attrib $-1 $-1 $-1 $50 F #
edge $134 $135 -25 $85 41.666666666666664 $50 $136 forward 7 unknown #
attrib_hh_coedge_geombuild-attrib_entity_geombuild-individual_entity_attribute-attrib_HH-attrib $-1 $-1 $-1 $51 F #
coedge $137 $51 $138 $128 $139 forward $82 $-1 #
loop $-1 $140 $141 $142 #
attrib_edge_convexity-kcp-attrib $-1 $143 $-1 $52 1 #
vertex $144 $52 $145 #
vertex $146 $73 $147 #
straight-curve $-1 10 -20 50 -1 0 0 I I #
model_id-kcp-attrib $-1 $-1 $-1 $54 1 1017637756 80 122683394 4 #
face $148 $149 $150 $17 $-1 $151 reversed single #
loop $-1 $-1 $152 $54 #
plane-surface $-1 0 -50 0 0 1 0 0 0 1 forward_v I I I I #
coedge $-1 $153 $154 $155 $156 forward $55 $-1 #
coedge $-1 $157 $57 $158 $159 forward $36 $-1 #
coedge $-1 $57 $157 $160 $161 forward $36 $-1 #
coedge $-1 $162 $163 $57 $95 reversed $164 $-1 #
edge $-1 $165 -50 $166 50 $94 $167 forward 7 unknown #
face $-1 $168 $169 $19 $-1 $170 forward single #
loop $-1 $-1 $171 $58 #
cone-surface $-1 -5.9999999999999503 -14 50 0 0 -1 -4.2426406871192803 -4.2426406871192803 0 1 I I 0 1 5.9999999999999929 forward I I I I #
coedge $-1 $172 $173 $174 $175 forward $59 $-1 #
coedge $-1 $176 $61 $173 $177 reversed $39 $-1 #
coedge $-1 $61 $176 $178 $179 forward $39 $-1 #
coedge $-1 $180 $174 $61 $103 reversed $181 $-1 #
edge $-1 $182 -0.78539816339744828 $183 0.78539816339744828 $61 $184 forward 7 unknown #
aggregate_geombuild_attribute-aggregate_geombuild_base_attribute-aggregate_body_attribute-attrib_HH-attrib $-1 $185 $62 $0 #
attrib_hh_face_geombuild-attrib_entity_geombuild-individual_entity_attribute-attrib_HH-attrib $-1 $-1 $64 $44 F #
model_id-kcp-attrib $-1 $186 $-1 $65 1 1017637756 80 122683393 6 #
face $187 $188 $189 $8 $-1 $190 reversed single #
loop $-1 $-1 $191 $65 #
plane-surface $-1 20 20 17.5 0 -1 0 0 0 -1.5 forward_v I I I I #
coedge $192 $193 $194 $195 $196 reversed $66 $-1 #
attrib_hh_coedge_geombuild-attrib_entity_geombuild-individual_entity_attribute-attrib_HH-attrib $-1 $-1 $-1 $68 F #
coedge $197 $198 $68 $71 $119 forward $45 $-1 #
coedge $199 $68 $198 $193 $200 forward $45 $-1 #
coedge $201 $195 $72 $68 $115 forward $82 $-1 #
edge $202 $122 -11.5 $203 16.5 $114 $204 forward 7 unknown #
attrib_hh_coedge_geombuild-attrib_entity_geombuild-individual_entity_attribute-attrib_HH-attrib $-1 $-1 $-1 $70 F #
coedge $205 $71 $70 $206 $207 reversed $31 $-1 #
attrib_hh_coedge_geombuild-attrib_entity_geombuild-individual_entity_attribute-attrib_HH-attrib $-1 $-1 $-1 $71 F #
edge $208 $122 -21.666666666666668 $209 45 $112 $210 forward 7 unknown #
attrib_hh_coedge_geombuild-attrib_entity_geombuild-individual_entity_attribute-attrib_HH-attrib $-1 $-1 $-1 $72 F #
attrib_edge_convexity-kcp-attrib $-1 $211 $-1 $73 1 #
vertex $212 $115 $213 #
ellipse-curve $-1 -5.9999999999999503 -14 50 0 0 -1 -4.2426406871192803 -4.2426406871192803 0 1 I I #
attrib_hh_coedge_geombuild-attrib_entity_geombuild-individual_entity_attribute-attrib_HH-attrib $-1 $-1 $-1 $75 F #
coedge $214 $215 $206 $75 $126 forward $216 $-1 #
edge $217 $135 -15.99999999999995 $132 19 $125 $218 forward 7 unknown #
attrib_hh_coedge_geombuild-attrib_entity_geombuild-individual_entity_attribute-attrib_HH-attrib $-1 $-1 $-1 $76 F #
coedge $219 $220 $76 $81 $139 reversed $130 $-1 #
coedge $221 $76 $220 $215 $222 reversed $130 $-1 #
loop $-1 $-1 $128 $223 #
attrib_hh_edge_geombuild-attrib_entity_geombuild-individual_entity_attribute-attrib_HH-attrib $-1 $-1 $-1 $77 F #
vertex $224 $126 $225 #
straight-curve $-1 29 -20 -12.5 0 0 -1.5 I I #
attrib_hh_edge_geombuild-attrib_entity_geombuild-individual_entity_attribute-attrib_HH-attrib $-1 $-1 $-1 $79 F #
vertex $226 $207 $227 #
straight-curve $-1 -5.9999999999999503 -20 -12.5 0 0 1.5 I I #
attrib_hh_coedge_geombuild-attrib_entity_geombuild-individual_entity_attribute-attrib_HH-attrib $-1 $-1 $-1 $81 F #
coedge $228 $81 $229 $230 $231 forward $82 $-1 #
edge $232 $233 -0.78539816339744828 $84 0.78539816339744828 $81 $234 forward 7 unknown #
loop $-1 $-1 $235 $142 #
coedge $236 $229 $195 $191 $237 forward $82 $-1 #
face $238 $239 $82 $8 $-1 $240 forward single #
convexity-sys-attrib $-1 $241 $83 $52 #
attrib_hh_vertex_geombuild-attrib_entity_geombuild-individual_entity_attribute-attrib_HH-attrib $-1 $-1 $-1 $84 F #
point $-1 29 -20 50 #
attrib_hh_vertex_geombuild-attrib_entity_geombuild-individual_entity_attribute-attrib_HH-attrib $-1 $-1 $-1 $85 F #
point $-1 -5.9999999999999503 -20 50 #
model_id-kcp-attrib $-1 $-1 $-1 $88 1 1017637756 80 122683394 5 #
face $242 $243 $244 $17 $-1 $245 reversed single #
loop $-1 $-1 $246 $88 #
plane-surface $-1 -50 0 0 1 0 0 0 0 -1 forward_v I I I I #
coedge $-1 $247 $160 $248 $249 forward $89 $-1 #
coedge $-1 $250 $91 $247 $251 forward $55 $-1 #
coedge $-1 $91 $250 $252 $253 forward $55 $-1 #
coedge $-1 $163 $162 $91 $156 reversed $164 $-1 #
edge $-1 $254 -50 $255 50 $155 $256 forward 7 unknown #
coedge $-1 $93 $92 $257 $258 forward $36 $-1 #
coedge $-1 $259 $260 $92 $159 reversed $244 $-1 #
edge $-1 $166 -50 $261 50 $158 $262 forward 7 unknown #
coedge $-1 $152 $263 $93 $161 reversed $89 $-1 #
edge $-1 $264 -50 $165 50 $160 $265 forward 7 unknown #
coedge $-1 $155 $94 $263 $266 forward $164 $-1 #
coedge $-1 $94 $155 $259 $267 reversed $164 $-1 #
loop $-1 $-1 $162 $243 #
vertex $-1 $95 $268 #
vertex $-1 $95 $269 #
straight-curve $-1 50 0 50 0 1 0 I I #
face $-1 $270 $271 $19 $-1 $272 forward single #
loop $-1 $-1 $273 $96 #
plane-surface $-1 -5.9999999999999503 -20 50 0 -1 0 0 0 -1 forward_v I I I I #
coedge $-1 $274 $275 $276 $277 forward $97 $-1 #
coedge $-1 $278 $99 $275 $279 reversed $59 $-1 #
coedge $-1 $99 $278 $100 $177 forward $59 $-1 #
coedge $-1 $102 $276 $99 $175 reversed $181 $-1 #
edge $-1 $183 -16.5 $280 11.5 $99 $281 forward 7 unknown #
coedge $-1 $101 $100 $282 $283 forward $39 $-1 #
edge $-1 $284 0 $183 100 $173 $285 forward 7 unknown #
coedge $-1 $286 $287 $101 $179 reversed $288 $-1 #
edge $-1 $289 0 $182 100 $101 $290 forward 7 unknown #
coedge $-1 $291 $102 $287 $292 reversed $181 $-1 #
loop $-1 $-1 $102 $293 #
vertex $-1 $179 $294 #
vertex $-1 $177 $295 #
ellipse-curve $-1 -5.9999999999999503 14 -50 0 0 1 -4.2426406871192803 4.2426406871192803 0 1 I I #
aggregate_stitch_attribute-aggregate_stitch_base_attribute-aggregate_body_attribute-attrib_HH-attrib $-1 $296 $104 $0 F #
attrib_hh_face_geombuild-attrib_entity_geombuild-individual_entity_attribute-attrib_HH-attrib $-1 $-1 $106 $65 F #
model_id-kcp-attrib $-1 $297 $-1 $107 1 1017637756 80 122683393 7 #
face $298 $223 $299 $8 $-1 $300 forward single #
loop $-1 $-1 $301 $107 #
cone-surface $-1 29 14 17.5 0 0 -1 4.2426406871192803 4.2426406871192803 0 1 I I 0 1 5.9999999999999929 forward I I I I #
coedge $302 $303 $304 $141 $237 reversed $108 $-1 #
attrib_hh_coedge_geombuild-attrib_entity_geombuild-individual_entity_attribute-attrib_HH-attrib $-1 $-1 $-1 $110 F #
coedge $305 $306 $110 $113 $200 reversed $66 $-1 #
coedge $307 $110 $306 $303 $308 reversed $66 $-1 #
coedge $309 $141 $114 $110 $196 forward $82 $-1 #
edge $310 $203 -0.78539816339744828 $311 0.78539816339744828 $195 $312 forward 7 unknown #
attrib_hh_coedge_geombuild-attrib_entity_geombuild-individual_entity_attribute-attrib_HH-attrib $-1 $-1 $-1 $112 F #
coedge $313 $113 $112 $314 $315 reversed $45 $-1 #
attrib_hh_coedge_geombuild-attrib_entity_geombuild-individual_entity_attribute-attrib_HH-attrib $-1 $-1 $-1 $113 F #
edge $316 $317 -25 $203 41.666666666666664 $113 $318 forward 7 unknown #
attrib_hh_coedge_geombuild-attrib_entity_geombuild-individual_entity_attribute-attrib_HH-attrib $-1 $-1 $-1 $114 F #
attrib_edge_convexity-kcp-attrib $-1 $319 $-1 $115 1 #
vertex $320 $196 $321 #
straight-curve $-1 -12 -2.5 50 0 1 0 I I #
attrib_hh_coedge_geombuild-attrib_entity_geombuild-individual_entity_attribute-attrib_HH-attrib $-1 $-1 $-1 $117 F #
coedge $322 $125 $314 $117 $207 forward $216 $-1 #
edge $323 $209 -0.78539816339744828 $135 0.78539816339744828 $206 $324 forward 7 unknown #
attrib_hh_edge_geombuild-attrib_entity_geombuild-individual_entity_attribute-attrib_HH-attrib $-1 $-1 $-1 $119 F #
vertex $325 $315 $326 #
straight-curve $-1 -12 -14 17.5 0 0 -1.5 I I #
convexity-sys-attrib $-1 $327 $121 $73 #
attrib_hh_vertex_geombuild-attrib_entity_geombuild-individual_entity_attribute-attrib_HH-attrib $-1 $-1 $-1 $122 F #
point $-1 -12 -14 50 #
attrib_hh_coedge_geombuild-attrib_entity_geombuild-individual_entity_attribute-attrib_HH-attrib $-1 $-1 $-1 $125 F #
coedge $328 $329 $125 $129 $222 forward $216 $-1 #
loop $-1 $330 $331 $239 #
attrib_hh_edge_geombuild-attrib_entity_geombuild-individual_entity_attribute-attrib_HH-attrib $-1 $-1 $-1 $126 F #
straight-curve $-1 10 -20 -50 1 0 0 I I #
attrib_hh_coedge_geombuild-attrib_entity_geombuild-individual_entity_attribute-attrib_HH-attrib $-1 $-1 $-1 $128 F #
coedge $332 $129 $128 $333 $334 reversed $130 $-1 #
attrib_hh_coedge_geombuild-attrib_entity_geombuild-individual_entity_attribute-attrib_HH-attrib $-1 $-1 $-1 $129 F #
edge $335 $132 -0.78539816339744828 $336 0.78539816339744828 $215 $337 forward 7 unknown #
face $338 $142 $130 $8 $-1 $339 reversed single #
attrib_hh_vertex_geombuild-attrib_entity_geombuild-individual_entity_attribute-attrib_HH-attrib $-1 $-1 $-1 $132 F #
point $-1 29 -20 -50 #
attrib_hh_vertex_geombuild-attrib_entity_geombuild-individual_entity_attribute-attrib_HH-attrib $-1 $-1 $-1 $135 F #
point $-1 -5.9999999999999503 -20 -50 #
attrib_hh_coedge_geombuild-attrib_entity_geombuild-individual_entity_attribute-attrib_HH-attrib $-1 $-1 $-1 $138 F #
coedge $340 $138 $141 $301 $341 forward $82 $-1 #
coedge $342 $343 $333 $138 $231 reversed $299 $-1 #
edge $344 $345 -16.5 $233 11.5 $138 $346 forward 7 unknown #
attrib_edge_convexity-kcp-attrib $-1 $347 $-1 $139 1 #
vertex $348 $231 $349 #
ellipse-curve $-1 29 -14 50 0 0 -1 4.2426406871192803 -4.2426406871192803 0 1 I I #
coedge $350 $351 $352 $353 $354 forward $140 $-1 #
attrib_hh_coedge_geombuild-attrib_entity_geombuild-individual_entity_attribute-attrib_HH-attrib $-1 $-1 $-1 $141 F #
edge $355 $311 -15.99999999999995 $356 19 $141 $357 forward 7 unknown #
model_id-kcp-attrib $-1 $358 $-1 $142 1 1017637756 80 122683393 10 #
face $359 $360 $216 $8 $-1 $361 reversed single #
plane-surface $-1 0 0 50 0 0 1 1 0 0 forward_v I I I I #
attrib_hh_edge_geombuild-attrib_entity_geombuild-individual_entity_attribute-attrib_HH-attrib $-1 $-1 $143 $52 F #
model_id-kcp-attrib $-1 $-1 $-1 $149 1 1017637756 80 122683394 6 #
face $362 $-1 $164 $17 $-1 $363 reversed single #
loop $-1 $-1 $259 $149 #
plane-surface $-1 0 50 0 0 -1 0 0 0 -1 forward_v I I I I #
coedge $-1 $364 $257 $260 $365 forward $150 $-1 #
coedge $-1 $263 $152 $153 $251 reversed $89 $-1 #
coedge $-1 $257 $364 $152 $249 reversed $150 $-1 #
edge $-1 $264 -50 $366 50 $248 $367 forward 7 unknown #
coedge $-1 $154 $153 $364 $368 forward $55 $-1 #
edge $-1 $255 -50 $366 50 $247 $369 forward 7 unknown #
coedge $-1 $260 $259 $154 $253 reversed $244 $-1 #
edge $-1 $370 -50 $254 50 $252 $371 forward 7 unknown #
vertex $-1 $156 $372 #
vertex $-1 $266 $373 #
straight-curve $-1 50 0 -50 0 -1 0 I I #
coedge $-1 $246 $248 $157 $258 reversed $150 $-1 #
edge $-1 $261 -50 $264 50 $257 $374 forward 7 unknown #
coedge $-1 $252 $158 $163 $267 forward $244 $-1 #
coedge $-1 $158 $252 $246 $365 reversed $244 $-1 #
vertex $-1 $159 $375 #
straight-curve $-1 0 50 50 -1 0 0 I I #
coedge $-1 $160 $247 $162 $266 reversed $89 $-1 #
vertex $-1 $258 $376 #
straight-curve $-1 0 -50 50 1 0 0 I I #
edge $-1 $165 -50 $255 50 $162 $377 forward 7 unknown #
edge $-1 $166 -50 $254 50 $163 $378 forward 7 unknown #
point $-1 50 -50 50 #
point $-1 50 50 50 #
face $-1 $379 $380 $19 $-1 $381 forward single #
loop $-1 $-1 $382 $168 #
cone-surface $-1 29 -14 50 0 0 -1 4.2426406871192803 -4.2426406871192803 0 1 I I 0 1 5.9999999999999929 forward I I I I #
coedge $-1 $383 $384 $385 $386 forward $169 $-1 #
coedge $-1 $387 $171 $384 $388 reversed $97 $-1 #
coedge $-1 $171 $387 $172 $279 forward $97 $-1 #
coedge $-1 $174 $385 $171 $277 reversed $181 $-1 #
edge $-1 $280 -0.78539816339744828 $389 0.78539816339744828 $171 $390 forward 7 unknown #
coedge $-1 $173 $172 $391 $392 forward $59 $-1 #
edge $-1 $393 0 $280 100 $275 $394 forward 7 unknown #
vertex $-1 $279 $395 #
straight-curve $-1 -12 -2.5 -50 0 -1 0 I I #
coedge $-1 $391 $396 $176 $283 reversed $397 $-1 #
edge $-1 $284 -0.78539816339744828 $289 0.78539816339744828 $176 $398 forward 7 unknown #
vertex $-1 $392 $399 #
straight-curve $-1 -12 14 50 0 0 -1 I I #
coedge $-1 $400 $178 $396 $401 forward $288 $-1 #
coedge $-1 $178 $400 $180 $292 forward $288 $-1 #
loop $-1 $-1 $287 $402 #
vertex $-1 $401 $403 #
straight-curve $-1 -5.9999999999999503 20 50 0 0 -1 I I #
coedge $-1 $404 $180 $405 $406 reversed $181 $-1 #
edge $-1 $407 -19 $182 15.99999999999995 $287 $408 forward 7 unknown #
face $-1 $409 $181 $19 $-1 $410 reversed single #
point $-1 -5.9999999999999503 20 -50 #
point $-1 -12 14 -50 #
aggregate_simgeom_attribute-aggregate_simgeom_base_attribute-aggregate_body_attribute-attrib_HH-attrib $-1 $-1 $185 $0 F #
attrib_hh_face_geombuild-attrib_entity_geombuild-individual_entity_attribute-attrib_HH-attrib $-1 $-1 $187 $107 F #
model_id-kcp-attrib $-1 $411 $-1 $188 1 1017637756 80 122683393 8 #
loop $-1 $-1 $230 $188 #
plane-surface $-1 35 -5 17.5 -1 0 0 0 0 1.5 forward_v I I I I #
coedge $412 $413 $414 $229 $341 reversed $189 $-1 #
attrib_hh_coedge_geombuild-attrib_entity_geombuild-individual_entity_attribute-attrib_HH-attrib $-1 $-1 $-1 $191 F #
coedge $415 $416 $191 $194 $308 forward $108 $-1 #
coedge $417 $191 $416 $413 $418 forward $108 $-1 #
attrib_hh_coedge_geombuild-attrib_entity_geombuild-individual_entity_attribute-attrib_HH-attrib $-1 $-1 $-1 $193 F #
coedge $419 $194 $193 $420 $421 reversed $66 $-1 #
attrib_hh_coedge_geombuild-attrib_entity_geombuild-individual_entity_attribute-attrib_HH-attrib $-1 $-1 $-1 $194 F #
edge $422 $311 -41.666666666666664 $423 25 $303 $424 forward 7 unknown #
attrib_hh_coedge_geombuild-attrib_entity_geombuild-individual_entity_attribute-attrib_HH-attrib $-1 $-1 $-1 $195 F #
attrib_edge_convexity-kcp-attrib $-1 $425 $-1 $196 1 #
vertex $426 $237 $427 #
ellipse-curve $-1 -5.9999999999999503 14 50 0 0 -1 -4.2426406871192803 4.2426406871192803 0 1 I I #
attrib_hh_coedge_geombuild-attrib_entity_geombuild-individual_entity_attribute-attrib_HH-attrib $-1 $-1 $-1 $198 F #
coedge $428 $206 $420 $198 $315 forward $216 $-1 #
edge $429 $317 -16.5 $209 11.5 $314 $430 forward 7 unknown #
attrib_hh_edge_geombuild-attrib_entity_geombuild-individual_entity_attribute-attrib_HH-attrib $-1 $-1 $-1 $200 F #
vertex $431 $421 $432 #
straight-curve $-1 -12 14 -12.5 0 0 1.5 I I #
convexity-sys-attrib $-1 $433 $202 $115 #
attrib_hh_vertex_geombuild-attrib_entity_geombuild-individual_entity_attribute-attrib_HH-attrib $-1 $-1 $-1 $203 F #
point $-1 -12 14 50 #
attrib_hh_coedge_geombuild-attrib_entity_geombuild-individual_entity_attribute-attrib_HH-attrib $-1 $-1 $-1 $206 F #
attrib_hh_edge_geombuild-attrib_entity_geombuild-individual_entity_attribute-attrib_HH-attrib $-1 $-1 $-1 $207 F #
ellipse-curve $-1 -5.9999999999999503 -14 -50 0 0 1 -4.2426406871192803 -4.2426406871192803 0 1 I I #
attrib_hh_vertex_geombuild-attrib_entity_geombuild-individual_entity_attribute-attrib_HH-attrib $-1 $-1 $-1 $209 F #
point $-1 -12 -14 -50 #
attrib_hh_edge_geombuild-attrib_entity_geombuild-individual_entity_attribute-attrib_HH-attrib $-1 $-1 $211 $73 F #
attrib_hh_coedge_geombuild-attrib_entity_geombuild-individual_entity_attribute-attrib_HH-attrib $-1 $-1 $-1 $215 F #
coedge $434 $435 $215 $436 $437 forward $216 $-1 #
loop $-1 $-1 $438 $239 #
coedge $439 $420 $435 $416 $440 forward $216 $-1 #
attrib_hh_coedge_geombuild-attrib_entity_geombuild-individual_entity_attribute-attrib_HH-attrib $-1 $-1 $-1 $220 F #
coedge $441 $230 $436 $220 $334 forward $299 $-1 #
edge $442 $336 -25 $233 41.666666666666664 $333 $443 forward 7 unknown #
attrib_hh_edge_geombuild-attrib_entity_geombuild-individual_entity_attribute-attrib_HH-attrib $-1 $-1 $-1 $222 F #
vertex $444 $437 $445 #
ellipse-curve $-1 29 -14 -50 0 0 1 4.2426406871192803 -4.2426406871192803 0 1 I I #
model_id-kcp-attrib $-1 $446 $-1 $223 1 1017637756 80 122683393 9 #
cone-surface $-1 29 -14 17.5 0 0 -1 4.2426406871192803 -4.2426406871192803 0 1 I I 0 1 5.9999999999999929 forward I I I I #
attrib_hh_coedge_geombuild-attrib_entity_geombuild-individual_entity_attribute-attrib_HH-attrib $-1 $-1 $-1 $229 F #
edge $447 $356 -0.78539816339744828 $345 0.78539816339744828 $229 $448 forward 7 unknown #
attrib_hh_coedge_geombuild-attrib_entity_geombuild-individual_entity_attribute-attrib_HH-attrib $-1 $-1 $-1 $230 F #
coedge $449 $436 $230 $414 $450 forward $299 $-1 #
attrib_edge_convexity-kcp-attrib $-1 $451 $-1 $231 1 #
vertex $452 $341 $453 #
straight-curve $-1 35 -2.5 50 0 -1 0 I I #
convexity-sys-attrib $-1 $454 $232 $139 #
attrib_hh_vertex_geombuild-attrib_entity_geombuild-individual_entity_attribute-attrib_HH-attrib $-1 $-1 $-1 $233 F #
point $-1 35 -14 50 #
attrib_hh_coedge_geombuild-attrib_entity_geombuild-individual_entity_attribute-attrib_HH-attrib $-1 $-1 $-1 $235 F #
coedge $455 $456 $235 $457 $458 forward $140 $-1 #
coedge $459 $235 $456 $460 $461 forward $140 $-1 #
coedge $462 $463 $464 $235 $354 reversed $465 $-1 #
edge $466 $467 -50 $468 50 $353 $469 forward 7 unknown #
attrib_edge_convexity-kcp-attrib $-1 $470 $-1 $237 1 #
vertex $471 $237 $472 #
straight-curve $-1 10 20 50 1 0 0 I I #
attrib_hh_face_geombuild-attrib_entity_geombuild-individual_entity_attribute-attrib_HH-attrib $-1 $-1 $238 $142 F #
model_id-kcp-attrib $-1 $473 $-1 $239 1 1017637756 80 122683393 11 #
face $474 $475 $476 $8 $-1 $477 reversed single #
plane-surface $-1 0 0 -50 0 0 1 1 0 0 forward_v I I I I #
model_id-kcp-attrib $-1 $-1 $-1 $243 1 1017637756 80 122683394 7 #
plane-surface $-1 50 0 0 -1 0 0 0 0 1 forward_v I I I I #
coedge $-1 $248 $246 $250 $368 reversed $150 $-1 #
edge $-1 $261 -50 $370 50 $260 $478 forward 7 unknown #
vertex $-1 $368 $479 #
straight-curve $-1 -50 -50 0 0 0 -1 I I #
edge $-1 $366 -50 $370 50 $364 $480 forward 7 unknown #
straight-curve $-1 0 -50 -50 -1 0 0 I I #
vertex $-1 $253 $481 #
straight-curve $-1 0 50 -50 1 0 0 I I #
point $-1 50 50 -50 #
point $-1 50 -50 -50 #
straight-curve $-1 -50 0 50 0 -1 0 I I #
point $-1 -50 50 50 #
point $-1 -50 -50 50 #
straight-curve $-1 50 -50 0 0 0 -1 I I #
straight-curve $-1 50 50 0 0 0 -1 I I #
face $-1 $402 $482 $19 $-1 $483 forward single #
loop $-1 $-1 $484 $270 #
plane-surface $-1 35 -14 50 1 0 0 0 0 -1 forward_v I I I I #
coedge $-1 $485 $486 $487 $488 forward $271 $-1 #
coedge $-1 $489 $273 $486 $490 reversed $169 $-1 #
coedge $-1 $273 $489 $274 $388 forward $169 $-1 #
coedge $-1 $276 $487 $273 $386 reversed $181 $-1 #
edge $-1 $389 -15.99999999999995 $491 19 $273 $492 forward 7 unknown #
coedge $-1 $275 $274 $493 $494 forward $97 $-1 #
edge $-1 $495 0 $389 100 $384 $496 forward 7 unknown #
vertex $-1 $388 $497 #
ellipse-curve $-1 -5.9999999999999503 -14 -50 0 0 1 -4.2426406871192803 -4.2426406871192803 0 1 I I #
coedge $-1 $493 $282 $278 $392 reversed $397 $-1 #
edge $-1 $393 -11.5 $284 16.5 $278 $498 forward 7 unknown #
vertex $-1 $494 $499 #
straight-curve $-1 -12 -14 50 0 0 -1 I I #
point $-1 -12 -14 -50 #
coedge $-1 $282 $500 $286 $401 reversed $397 $-1 #
loop $-1 $-1 $396 $409 #
ellipse-curve $-1 -5.9999999999999503 14 50 0 0 -1 -4.2426406871192803 4.2426406871192803 0 1 I I #
point $-1 -12 14 50 #
coedge $-1 $287 $286 $501 $502 forward $288 $-1 #
edge $-1 $289 -15.99999999999995 $503 19 $286 $504 forward 7 unknown #
face $-1 $293 $288 $19 $-1 $505 forward single #
point $-1 -5.9999999999999503 20 50 #
coedge $-1 $487 $291 $484 $506 reversed $181 $-1 #
coedge $-1 $501 $507 $291 $406 forward $482 $-1 #
edge $-1 $508 -0.78539816339744828 $407 0.78539816339744828 $405 $509 forward 7 unknown #
vertex $-1 $502 $510 #
straight-curve $-1 10 20 -50 -1 0 0 I I #
face $-1 $-1 $397 $19 $-1 $511 forward single #
plane-surface $-1 11.500000000000014 -2.2204460492503131e-016 -50 0 0 1 1 0 0 forward_v I I I I #
attrib_hh_face_geombuild-attrib_entity_geombuild-individual_entity_attribute-attrib_HH-attrib $-1 $-1 $298 $188 F #
attrib_hh_coedge_geombuild-attrib_entity_geombuild-individual_entity_attribute-attrib_HH-attrib $-1 $-1 $-1 $301 F #
coedge $512 $513 $301 $304 $418 reversed $189 $-1 #
coedge $514 $301 $513 $343 $450 reversed $189 $-1 #
attrib_hh_coedge_geombuild-attrib_entity_geombuild-individual_entity_attribute-attrib_HH-attrib $-1 $-1 $-1 $303 F #
coedge $515 $304 $303 $331 $440 reversed $108 $-1 #
attrib_hh_coedge_geombuild-attrib_entity_geombuild-individual_entity_attribute-attrib_HH-attrib $-1 $-1 $-1 $304 F #
edge $516 $517 -25 $356 41.666666666666664 $304 $518 forward 7 unknown #
attrib_hh_coedge_geombuild-attrib_entity_geombuild-individual_entity_attribute-attrib_HH-attrib $-1 $-1 $-1 $306 F #
coedge $519 $314 $331 $306 $421 forward $216 $-1 #
edge $520 $423 -0.78539816339744828 $317 0.78539816339744828 $420 $521 forward 7 unknown #
attrib_hh_edge_geombuild-attrib_entity_geombuild-individual_entity_attribute-attrib_HH-attrib $-1 $-1 $-1 $308 F #
vertex $522 $440 $523 #
straight-curve $-1 -5.9999999999999503 20 -12.5 0 0 -1.5 I I #
convexity-sys-attrib $-1 $524 $310 $196 #
attrib_hh_vertex_geombuild-attrib_entity_geombuild-individual_entity_attribute-attrib_HH-attrib $-1 $-1 $-1 $311 F #
point $-1 -5.9999999999999503 20 50 #
attrib_hh_coedge_geombuild-attrib_entity_geombuild-individual_entity_attribute-attrib_HH-attrib $-1 $-1 $-1 $314 F #
attrib_hh_edge_geombuild-attrib_entity_geombuild-individual_entity_attribute-attrib_HH-attrib $-1 $-1 $-1 $315 F #
straight-curve $-1 -12 -2.5 -50 0 -1 0 I I #
attrib_hh_vertex_geombuild-attrib_entity_geombuild-individual_entity_attribute-attrib_HH-attrib $-1 $-1 $-1 $317 F #
point $-1 -12 14 -50 #
attrib_hh_edge_geombuild-attrib_entity_geombuild-individual_entity_attribute-attrib_HH-attrib $-1 $-1 $319 $115 F #
attrib_hh_coedge_geombuild-attrib_entity_geombuild-individual_entity_attribute-attrib_HH-attrib $-1 $-1 $-1 $329 F #
coedge $525 $331 $329 $513 $526 forward $216 $-1 #
coedge $527 $333 $343 $329 $437 reversed $299 $-1 #
edge $528 $336 -11.5 $529 16.5 $329 $530 forward 7 unknown #
coedge $531 $532 $533 $534 $535 forward $330 $-1 #
attrib_hh_coedge_geombuild-attrib_entity_geombuild-individual_entity_attribute-attrib_HH-attrib $-1 $-1 $-1 $331 F #
edge $536 $517 -19 $423 15.99999999999995 $331 $537 forward 7 unknown #
attrib_hh_coedge_geombuild-attrib_entity_geombuild-individual_entity_attribute-attrib_HH-attrib $-1 $-1 $-1 $333 F #
attrib_hh_edge_geombuild-attrib_entity_geombuild-individual_entity_attribute-attrib_HH-attrib $-1 $-1 $-1 $334 F #
straight-curve $-1 35 -14 -12.5 0 0 1.5 I I #
attrib_hh_vertex_geombuild-attrib_entity_geombuild-individual_entity_attribute-attrib_HH-attrib $-1 $-1 $-1 $336 F #
point $-1 35 -14 -50 #
attrib_hh_face_geombuild-attrib_entity_geombuild-individual_entity_attribute-attrib_HH-attrib $-1 $-1 $338 $223 F #
attrib_edge_convexity-kcp-attrib $-1 $538 $-1 $341 1 #
ellipse-curve $-1 29 14 50 0 0 -1 4.2426406871192803 4.2426406871192803 0 1 I I #
attrib_hh_coedge_geombuild-attrib_entity_geombuild-individual_entity_attribute-attrib_HH-attrib $-1 $-1 $-1 $343 F #
edge $539 $345 -21.666666666666668 $529 45 $343 $540 forward 7 unknown #
convexity-sys-attrib $-1 $541 $344 $231 #
attrib_hh_vertex_geombuild-attrib_entity_geombuild-individual_entity_attribute-attrib_HH-attrib $-1 $-1 $-1 $345 F #
point $-1 35 14 50 #
attrib_hh_edge_geombuild-attrib_entity_geombuild-individual_entity_attribute-attrib_HH-attrib $-1 $-1 $347 $139 F #
attrib_hh_coedge_geombuild-attrib_entity_geombuild-individual_entity_attribute-attrib_HH-attrib $-1 $-1 $-1 $351 F #
coedge $542 $352 $351 $543 $544 forward $140 $-1 #
coedge $545 $546 $547 $351 $458 reversed $548 $-1 #
edge $549 $468 -50 $550 50 $457 $551 forward 7 unknown #
attrib_hh_coedge_geombuild-attrib_entity_geombuild-individual_entity_attribute-attrib_HH-attrib $-1 $-1 $-1 $352 F #
coedge $552 $553 $554 $352 $461 reversed $476 $-1 #
edge $555 $556 -50 $467 50 $460 $557 forward 7 unknown #
attrib_hh_coedge_geombuild-attrib_entity_geombuild-individual_entity_attribute-attrib_HH-attrib $-1 $-1 $-1 $353 F #
coedge $558 $534 $353 $554 $559 forward $465 $-1 #
coedge $560 $353 $534 $546 $561 reversed $465 $-1 #
loop $-1 $-1 $463 $562 #
attrib_edge_convexity-kcp-attrib $-1 $563 $-1 $354 1 #
vertex $564 $354 $565 #
vertex $566 $354 $567 #
straight-curve $-1 50 0 50 0 1 0 I I #
convexity-sys-attrib $-1 $568 $355 $237 #
attrib_hh_vertex_geombuild-attrib_entity_geombuild-individual_entity_attribute-attrib_HH-attrib $-1 $-1 $-1 $356 F #
point $-1 29 20 50 #
attrib_hh_face_geombuild-attrib_entity_geombuild-individual_entity_attribute-attrib_HH-attrib $-1 $-1 $359 $239 F #
model_id-kcp-attrib $-1 $569 $-1 $360 1 1017637756 80 122683393 12 #
face $570 $571 $572 $8 $-1 $573 reversed single #
loop $-1 $-1 $553 $360 #
plane-surface $-1 0 -50 0 0 1 0 0 0 1 forward_v I I I I #
straight-curve $-1 -50 50 0 0 0 -1 I I #
point $-1 -50 -50 -50 #
straight-curve $-1 -50 0 -50 0 1 0 I I #
point $-1 -50 50 -50 #
loop $-1 $-1 $405 $379 #
cone-surface $-1 29 14 50 0 0 -1 4.2426406871192803 4.2426406871192803 0 1 I I 0 1 5.9999999999999929 forward I I I I #
coedge $-1 $574 $575 $404 $506 forward $380 $-1 #
coedge $-1 $576 $382 $575 $577 reversed $271 $-1 #
coedge $-1 $382 $576 $383 $490 forward $271 $-1 #
coedge $-1 $385 $404 $382 $488 reversed $181 $-1 #
edge $-1 $491 -0.78539816339744828 $578 0.78539816339744828 $382 $579 forward 7 unknown #
coedge $-1 $384 $383 $580 $581 forward $169 $-1 #
edge $-1 $582 0 $491 100 $486 $583 forward 7 unknown #
vertex $-1 $490 $584 #
straight-curve $-1 10 -20 -50 1 0 0 I I #
coedge $-1 $580 $391 $387 $494 reversed $397 $-1 #
edge $-1 $495 -0.78539816339744828 $393 0.78539816339744828 $387 $585 forward 7 unknown #
vertex $-1 $581 $586 #
straight-curve $-1 -5.9999999999999503 -20 50 0 0 -1 I I #
point $-1 -5.9999999999999503 -20 -50 #
straight-curve $-1 -12 -2.5 50 0 1 0 I I #
point $-1 -12 -14 50 #
coedge $-1 $396 $587 $588 $589 reversed $397 $-1 #
coedge $-1 $588 $405 $400 $502 reversed $482 $-1 #
edge $-1 $503 0 $407 100 $400 $590 forward 7 unknown #
vertex $-1 $401 $591 #
straight-curve $-1 10 20 50 1 0 0 I I #
plane-surface $-1 29 20 50 0 1 0 0 0 1 forward_v I I I I #
edge $-1 $578 -11.5 $508 16.5 $484 $592 forward 7 unknown #
coedge $-1 $405 $588 $574 $593 forward $482 $-1 #
vertex $-1 $593 $594 #
ellipse-curve $-1 29 14 -50 0 0 1 4.2426406871192803 4.2426406871192803 0 1 I I #
point $-1 29 20 -50 #
plane-surface $-1 11.500000000000014 -2.2204460492503131e-016 50 0 0 1 1 0 0 forward_v I I I I #
attrib_hh_coedge_geombuild-attrib_entity_geombuild-individual_entity_attribute-attrib_HH-attrib $-1 $-1 $-1 $413 F #
coedge $595 $414 $413 $435 $526 reversed $189 $-1 #
attrib_hh_coedge_geombuild-attrib_entity_geombuild-individual_entity_attribute-attrib_HH-attrib $-1 $-1 $-1 $414 F #
attrib_hh_coedge_geombuild-attrib_entity_geombuild-individual_entity_attribute-attrib_HH-attrib $-1 $-1 $-1 $416 F #
attrib_hh_edge_geombuild-attrib_entity_geombuild-individual_entity_attribute-attrib_HH-attrib $-1 $-1 $-1 $418 F #
vertex $596 $440 $597 #
straight-curve $-1 29 20 -12.5 0 0 1.5 I I #
attrib_hh_coedge_geombuild-attrib_entity_geombuild-individual_entity_attribute-attrib_HH-attrib $-1 $-1 $-1 $420 F #
attrib_hh_edge_geombuild-attrib_entity_geombuild-individual_entity_attribute-attrib_HH-attrib $-1 $-1 $-1 $421 F #
ellipse-curve $-1 -5.9999999999999503 14 -50 0 0 1 -4.2426406871192803 4.2426406871192803 0 1 I I #
attrib_hh_vertex_geombuild-attrib_entity_geombuild-individual_entity_attribute-attrib_HH-attrib $-1 $-1 $-1 $423 F #
point $-1 -5.9999999999999503 20 -50 #
attrib_hh_edge_geombuild-attrib_entity_geombuild-individual_entity_attribute-attrib_HH-attrib $-1 $-1 $425 $196 F #
attrib_hh_coedge_geombuild-attrib_entity_geombuild-individual_entity_attribute-attrib_HH-attrib $-1 $-1 $-1 $435 F #
edge $598 $529 -0.78539816339744828 $517 0.78539816339744828 $435 $599 forward 7 unknown #
attrib_hh_coedge_geombuild-attrib_entity_geombuild-individual_entity_attribute-attrib_HH-attrib $-1 $-1 $-1 $436 F #
attrib_hh_edge_geombuild-attrib_entity_geombuild-individual_entity_attribute-attrib_HH-attrib $-1 $-1 $-1 $437 F #
vertex $600 $526 $601 #
straight-curve $-1 35 -2.5 -50 0 1 0 I I #
attrib_hh_coedge_geombuild-attrib_entity_geombuild-individual_entity_attribute-attrib_HH-attrib $-1 $-1 $-1 $438 F #
coedge $602 $603 $438 $604 $605 forward $330 $-1 #
coedge $606 $438 $603 $607 $608 forward $330 $-1 #
coedge $609 $464 $463 $438 $535 reversed $465 $-1 #
edge $610 $611 -50 $612 50 $534 $613 forward 7 unknown #
attrib_hh_edge_geombuild-attrib_entity_geombuild-individual_entity_attribute-attrib_HH-attrib $-1 $-1 $-1 $440 F #
straight-curve $-1 10 20 -50 -1 0 0 I I #
convexity-sys-attrib $-1 $614 $447 $341 #
attrib_hh_edge_geombuild-attrib_entity_geombuild-individual_entity_attribute-attrib_HH-attrib $-1 $-1 $-1 $450 F #
straight-curve $-1 35 14 17.5 0 0 -1.5 I I #
attrib_hh_edge_geombuild-attrib_entity_geombuild-individual_entity_attribute-attrib_HH-attrib $-1 $-1 $451 $231 F #
attrib_hh_coedge_geombuild-attrib_entity_geombuild-individual_entity_attribute-attrib_HH-attrib $-1 $-1 $-1 $456 F #
coedge $615 $616 $617 $456 $544 reversed $572 $-1 #
edge $618 $550 -50 $556 50 $543 $619 forward 7 unknown #
attrib_hh_coedge_geombuild-attrib_entity_geombuild-individual_entity_attribute-attrib_HH-attrib $-1 $-1 $-1 $457 F #
coedge $620 $607 $457 $464 $561 forward $548 $-1 #
coedge $621 $457 $607 $616 $622 reversed $548 $-1 #
loop $-1 $-1 $546 $571 #
attrib_edge_convexity-kcp-attrib $-1 $623 $-1 $458 1 #
vertex $624 $458 $625 #
straight-curve $-1 0 50 50 -1 0 0 I I #
attrib_hh_coedge_geombuild-attrib_entity_geombuild-individual_entity_attribute-attrib_HH-attrib $-1 $-1 $-1 $460 F #
coedge $626 $604 $460 $617 $627 forward $476 $-1 #
coedge $628 $460 $604 $463 $559 reversed $476 $-1 #
attrib_edge_convexity-kcp-attrib $-1 $629 $-1 $461 1 #
vertex $630 $544 $631 #
straight-curve $-1 0 -50 50 1 0 0 I I #
attrib_hh_coedge_geombuild-attrib_entity_geombuild-individual_entity_attribute-attrib_HH-attrib $-1 $-1 $-1 $463 F #
edge $632 $467 -50 $612 50 $463 $633 forward 7 unknown #
attrib_hh_coedge_geombuild-attrib_entity_geombuild-individual_entity_attribute-attrib_HH-attrib $-1 $-1 $-1 $464 F #
edge $634 $468 -50 $611 50 $464 $635 forward 7 unknown #
face $636 $-1 $465 $8 $-1 $637 reversed single #
convexity-sys-attrib $-1 $638 $466 $354 #
attrib_hh_vertex_geombuild-attrib_entity_geombuild-individual_entity_attribute-attrib_HH-attrib $-1 $-1 $-1 $467 F #
point $-1 50 -50 50 #
attrib_hh_vertex_geombuild-attrib_entity_geombuild-individual_entity_attribute-attrib_HH-attrib $-1 $-1 $-1 $468 F #
point $-1 50 50 50 #
attrib_hh_edge_geombuild-attrib_entity_geombuild-individual_entity_attribute-attrib_HH-attrib $-1 $-1 $470 $237 F #
attrib_hh_face_geombuild-attrib_entity_geombuild-individual_entity_attribute-attrib_HH-attrib $-1 $-1 $474 $360 F #
model_id-kcp-attrib $-1 $639 $-1 $475 1 1017637756 80 122683393 13 #
face $640 $562 $548 $8 $-1 $641 reversed single #
loop $-1 $-1 $616 $475 #
plane-surface $-1 -50 0 0 1 0 0 0 0 -1 forward_v I I I I #
coedge $-1 $642 $484 $507 $593 reversed $380 $-1 #
coedge $-1 $484 $642 $485 $577 forward $380 $-1 #
coedge $-1 $486 $485 $643 $644 forward $271 $-1 #
edge $-1 $645 0 $578 100 $575 $646 forward 7 unknown #
vertex $-1 $577 $647 #
ellipse-curve $-1 29 -14 -50 0 0 1 4.2426406871192803 -4.2426406871192803 0 1 I I #
coedge $-1 $643 $493 $489 $581 reversed $397 $-1 #
edge $-1 $582 -19 $495 15.99999999999995 $489 $648 forward 7 unknown #
vertex $-1 $644 $649 #
straight-curve $-1 29 -20 50 0 0 -1 I I #
point $-1 29 -20 -50 #
ellipse-curve $-1 -5.9999999999999503 -14 50 0 0 -1 -4.2426406871192803 -4.2426406871192803 0 1 I I #
point $-1 -5.9999999999999503 -20 50 #
coedge $-1 $500 $643 $642 $650 reversed $397 $-1 #
coedge $-1 $507 $501 $500 $589 forward $482 $-1 #
edge $-1 $503 -0.78539816339744828 $651 0.78539816339744828 $588 $652 forward 7 unknown #
straight-curve $-1 29 20 50 0 0 -1 I I #
point $-1 29 20 50 #
straight-curve $-1 35 -2.5 -50 0 1 0 I I #
edge $-1 $651 0 $508 100 $507 $653 forward 7 unknown #
point $-1 35 14 -50 #
attrib_hh_coedge_geombuild-attrib_entity_geombuild-individual_entity_attribute-attrib_HH-attrib $-1 $-1 $-1 $513 F #
attrib_hh_vertex_geombuild-attrib_entity_geombuild-individual_entity_attribute-attrib_HH-attrib $-1 $-1 $-1 $517 F #
point $-1 29 20 -50 #
attrib_hh_edge_geombuild-attrib_entity_geombuild-individual_entity_attribute-attrib_HH-attrib $-1 $-1 $-1 $526 F #
ellipse-curve $-1 29 14 -50 0 0 1 4.2426406871192803 4.2426406871192803 0 1 I I #
attrib_hh_vertex_geombuild-attrib_entity_geombuild-individual_entity_attribute-attrib_HH-attrib $-1 $-1 $-1 $529 F #
point $-1 35 14 -50 #
attrib_hh_coedge_geombuild-attrib_entity_geombuild-individual_entity_attribute-attrib_HH-attrib $-1 $-1 $-1 $532 F #
coedge $654 $533 $532 $655 $656 forward $330 $-1 #
coedge $657 $554 $553 $532 $605 reversed $476 $-1 #
edge $658 $612 -50 $659 50 $604 $660 forward 7 unknown #
attrib_hh_coedge_geombuild-attrib_entity_geombuild-individual_entity_attribute-attrib_HH-attrib $-1 $-1 $-1 $533 F #
coedge $661 $547 $546 $533 $608 reversed $548 $-1 #
edge $662 $663 -50 $611 50 $607 $664 forward 7 unknown #
attrib_hh_coedge_geombuild-attrib_entity_geombuild-individual_entity_attribute-attrib_HH-attrib $-1 $-1 $-1 $534 F #
attrib_hh_edge_geombuild-attrib_entity_geombuild-individual_entity_attribute-attrib_HH-attrib $-1 $-1 $-1 $535 F #
vertex $665 $535 $666 #
vertex $667 $559 $668 #
straight-curve $-1 50 0 -50 0 -1 0 I I #
attrib_hh_edge_geombuild-attrib_entity_geombuild-individual_entity_attribute-attrib_HH-attrib $-1 $-1 $538 $341 F #
attrib_hh_coedge_geombuild-attrib_entity_geombuild-individual_entity_attribute-attrib_HH-attrib $-1 $-1 $-1 $543 F #
coedge $669 $655 $543 $547 $622 forward $572 $-1 #
coedge $670 $543 $655 $553 $627 reversed $572 $-1 #
attrib_edge_convexity-kcp-attrib $-1 $671 $-1 $544 1 #
straight-curve $-1 -50 0 50 0 -1 0 I I #
attrib_hh_coedge_geombuild-attrib_entity_geombuild-individual_entity_attribute-attrib_HH-attrib $-1 $-1 $-1 $546 F #
attrib_hh_coedge_geombuild-attrib_entity_geombuild-individual_entity_attribute-attrib_HH-attrib $-1 $-1 $-1 $547 F #
edge $672 $550 -50 $663 50 $547 $673 forward 7 unknown #
convexity-sys-attrib $-1 $674 $549 $458 #
attrib_hh_vertex_geombuild-attrib_entity_geombuild-individual_entity_attribute-attrib_HH-attrib $-1 $-1 $-1 $550 F #
point $-1 -50 50 50 #
attrib_hh_coedge_geombuild-attrib_entity_geombuild-individual_entity_attribute-attrib_HH-attrib $-1 $-1 $-1 $553 F #
edge $675 $556 -50 $659 50 $617 $676 forward 7 unknown #
attrib_hh_coedge_geombuild-attrib_entity_geombuild-individual_entity_attribute-attrib_HH-attrib $-1 $-1 $-1 $554 F #
convexity-sys-attrib $-1 $677 $555 $461 #
attrib_hh_vertex_geombuild-attrib_entity_geombuild-individual_entity_attribute-attrib_HH-attrib $-1 $-1 $-1 $556 F #
point $-1 -50 -50 50 #
attrib_edge_convexity-kcp-attrib $-1 $678 $-1 $559 1 #
straight-curve $-1 50 -50 0 0 0 -1 I I #
attrib_hh_edge_geombuild-attrib_entity_geombuild-individual_entity_attribute-attrib_HH-attrib $-1 $-1 $-1 $561 F #
straight-curve $-1 50 50 0 0 0 -1 I I #
model_id-kcp-attrib $-1 $679 $-1 $562 1 1017637756 80 122683393 15 #
plane-surface $-1 50 0 0 -1 0 0 0 0 1 forward_v I I I I #
attrib_hh_edge_geombuild-attrib_entity_geombuild-individual_entity_attribute-attrib_HH-attrib $-1 $-1 $563 $354 F #
attrib_hh_face_geombuild-attrib_entity_geombuild-individual_entity_attribute-attrib_HH-attrib $-1 $-1 $570 $475 F #
model_id-kcp-attrib $-1 $680 $-1 $571 1 1017637756 80 122683393 14 #
plane-surface $-1 0 50 0 0 -1 0 0 0 -1 forward_v I I I I #
coedge $-1 $575 $574 $587 $650 forward $380 $-1 #
coedge $-1 $587 $580 $576 $644 reversed $397 $-1 #
edge $-1 $645 -0.78539816339744828 $582 0.78539816339744828 $576 $681 forward 7 unknown #
vertex $-1 $650 $682 #
straight-curve $-1 35 -14 50 0 0 -1 I I #
point $-1 35 -14 -50 #
straight-curve $-1 10 -20 50 -1 0 0 I I #
point $-1 29 -20 50 #
edge $-1 $651 -16.5 $645 11.5 $642 $683 forward 7 unknown #
vertex $-1 $589 $684 #
ellipse-curve $-1 29 14 50 0 0 -1 4.2426406871192803 4.2426406871192803 0 1 I I #
straight-curve $-1 35 14 50 0 0 -1 I I #
attrib_hh_coedge_geombuild-attrib_entity_geombuild-individual_entity_attribute-attrib_HH-attrib $-1 $-1 $-1 $603 F #
coedge $685 $617 $616 $603 $656 reversed $572 $-1 #
edge $686 $659 -50 $663 50 $655 $687 forward 7 unknown #
attrib_hh_coedge_geombuild-attrib_entity_geombuild-individual_entity_attribute-attrib_HH-attrib $-1 $-1 $-1 $604 F #
attrib_edge_convexity-kcp-attrib $-1 $688 $-1 $605 1 #
vertex $689 $656 $690 #
straight-curve $-1 0 -50 -50 -1 0 0 I I #
attrib_hh_coedge_geombuild-attrib_entity_geombuild-individual_entity_attribute-attrib_HH-attrib $-1 $-1 $-1 $607 F #
attrib_hh_edge_geombuild-attrib_entity_geombuild-individual_entity_attribute-attrib_HH-attrib $-1 $-1 $-1 $608 F #
vertex $691 $608 $692 #
straight-curve $-1 0 50 -50 1 0 0 I I #
attrib_hh_vertex_geombuild-attrib_entity_geombuild-individual_entity_attribute-attrib_HH-attrib $-1 $-1 $-1 $611 F #
point $-1 50 50 -50 #
attrib_hh_vertex_geombuild-attrib_entity_geombuild-individual_entity_attribute-attrib_HH-attrib $-1 $-1 $-1 $612 F #
point $-1 50 -50 -50 #
attrib_hh_coedge_geombuild-attrib_entity_geombuild-individual_entity_attribute-attrib_HH-attrib $-1 $-1 $-1 $616 F #
attrib_hh_coedge_geombuild-attrib_entity_geombuild-individual_entity_attribute-attrib_HH-attrib $-1 $-1 $-1 $617 F #
convexity-sys-attrib $-1 $693 $618 $544 #
attrib_edge_convexity-kcp-attrib $-1 $694 $-1 $622 1 #
straight-curve $-1 -50 50 0 0 0 -1 I I #
attrib_hh_edge_geombuild-attrib_entity_geombuild-individual_entity_attribute-attrib_HH-attrib $-1 $-1 $623 $458 F #
attrib_edge_convexity-kcp-attrib $-1 $695 $-1 $627 1 #
straight-curve $-1 -50 -50 0 0 0 -1 I I #
attrib_hh_edge_geombuild-attrib_entity_geombuild-individual_entity_attribute-attrib_HH-attrib $-1 $-1 $629 $461 F #
convexity-sys-attrib $-1 $696 $632 $559 #
attrib_hh_face_geombuild-attrib_entity_geombuild-individual_entity_attribute-attrib_HH-attrib $-1 $-1 $636 $562 F #
attrib_hh_face_geombuild-attrib_entity_geombuild-individual_entity_attribute-attrib_HH-attrib $-1 $-1 $640 $571 F #
ellipse-curve $-1 29 -14 50 0 0 -1 4.2426406871192803 -4.2426406871192803 0 1 I I #
point $-1 35 -14 50 #
straight-curve $-1 35 -2.5 50 0 -1 0 I I #
point $-1 35 14 50 #
attrib_hh_coedge_geombuild-attrib_entity_geombuild-individual_entity_attribute-attrib_HH-attrib $-1 $-1 $-1 $655 F #
attrib_edge_convexity-kcp-attrib $-1 $697 $-1 $656 1 #
straight-curve $-1 -50 0 -50 0 1 0 I I #
convexity-sys-attrib $-1 $698 $658 $605 #
attrib_hh_vertex_geombuild-attrib_entity_geombuild-individual_entity_attribute-attrib_HH-attrib $-1 $-1 $-1 $659 F #
point $-1 -50 -50 -50 #
attrib_hh_vertex_geombuild-attrib_entity_geombuild-individual_entity_attribute-attrib_HH-attrib $-1 $-1 $-1 $663 F #
point $-1 -50 50 -50 #
attrib_hh_edge_geombuild-attrib_entity_geombuild-individual_entity_attribute-attrib_HH-attrib $-1 $-1 $671 $544 F #
convexity-sys-attrib $-1 $699 $672 $622 #
convexity-sys-attrib $-1 $700 $675 $627 #
attrib_hh_edge_geombuild-attrib_entity_geombuild-individual_entity_attribute-attrib_HH-attrib $-1 $-1 $678 $559 F #
convexity-sys-attrib $-1 $701 $686 $656 #
attrib_hh_edge_geombuild-attrib_entity_geombuild-individual_entity_attribute-attrib_HH-attrib $-1 $-1 $688 $605 F #
attrib_hh_edge_geombuild-attrib_entity_geombuild-individual_entity_attribute-attrib_HH-attrib $-1 $-1 $694 $622 F #
attrib_hh_edge_geombuild-attrib_entity_geombuild-individual_entity_attribute-attrib_HH-attrib $-1 $-1 $695 $627 F #
attrib_hh_edge_geombuild-attrib_entity_geombuild-individual_entity_attribute-attrib_HH-attrib $-1 $-1 $697 $656 F #
End-of-ACIS-data 