600 0 1 0           
102 GICL ACIS Healer - Source: /gicl/data5/repository/NIST/Manfred_Osti/suitcase/pump220/pump220.sat - 6 0 18 ACIS 6.0.3 Solaris 24 Sun Apr 14 00:36:52 2002 
1 9.999999999999999547e-07 1.000000000000000036e-10 
body $-1 $1 $-1 $-1 #
lump $-1 $-1 $2 $0 #
shell $-1 $-1 $-1 $3 $-1 $1 #
face $-1 $4 $5 $2 $-1 $6 reversed single #
face $-1 $7 $8 $2 $-1 $9 forward single #
loop $-1 $-1 $10 $3 #
plane-surface $-1 0 0 -4.129999999999999893 0 0 1 1 0 0 forward_v I I I I #
face $-1 $11 $12 $2 $-1 $13 forward single #
loop $-1 $14 $15 $4 #
plane-surface $-1 0 0 4.129999999999999893 0 0 1 1 0 0 forward_v I I I I #
coedge $-1 $16 $17 $18 $19 forward $5 $-1 #
face $-1 $20 $21 $2 $-1 $22 forward single #
loop $-1 $-1 $18 $7 #
cone-surface $-1 -4.25 4.099999999999999645 -4.129999999999999893 0 0 1 4 0 0 1 I I 0 1 4 forward I I I I #
loop $-1 $-1 $23 $4 #
coedge $-1 $24 $25 $26 $27 reversed $8 $-1 #
coedge $-1 $28 $10 $29 $30 forward $5 $-1 #
coedge $-1 $10 $31 $32 $33 forward $5 $-1 #
coedge $-1 $34 $35 $10 $19 reversed $12 $-1 #
edge $-1 $36 -1.570796326794896558 $37 0 $18 $38 forward 7 unknown #
face $-1 $39 $40 $2 $-1 $41 forward single #
loop $-1 $-1 $32 $11 #
plane-surface $-1 -8.25 4.099999999999999645 -4.129999999999999893 -1 0 0 0 0 1 forward_v I I I I #
coedge $-1 $23 $23 $42 $43 forward $14 $-1 #
coedge $-1 $44 $15 $45 $46 reversed $8 $-1 #
coedge $-1 $15 $47 $48 $49 reversed $8 $-1 #
coedge $-1 $35 $34 $15 $27 forward $12 $-1 #
edge $-1 $50 -1.570796326794896558 $51 0 $26 $52 forward 7 unknown #
coedge $-1 $53 $16 $54 $55 forward $5 $-1 #
coedge $-1 $56 $57 $16 $30 reversed $58 $-1 #
edge $-1 $37 -8.5 $59 0 $29 $60 forward 7 unknown #
coedge $-1 $17 $61 $62 $63 forward $5 $-1 #
coedge $-1 $64 $65 $17 $33 reversed $21 $-1 #
edge $-1 $66 -8.5 $36 0 $32 $67 forward 7 unknown #
coedge $-1 $26 $18 $65 $68 reversed $12 $-1 #
coedge $-1 $18 $26 $56 $69 forward $12 $-1 #
vertex $-1 $68 $70 #
vertex $-1 $69 $71 #
ellipse-curve $-1 -4.25 4.099999999999999645 -4.129999999999999893 0 0 -1 0 4 0 1 I I #
face $-1 $72 $73 $2 $-1 $74 forward single #
loop $-1 $-1 $62 $20 #
cone-surface $-1 -4.25 -4.400000000000000355 -4.129999999999999893 0 0 1 4 0 0 1 I I 0 1 4 forward I I I I #
coedge $-1 $42 $42 $23 $43 reversed $75 $-1 #
edge $-1 $76 -3.141592653589793116 $76 3.141592653589793116 $42 $77 forward 7 unknown #
coedge $-1 $78 $24 $79 $80 reversed $8 $-1 #
coedge $-1 $65 $64 $24 $46 forward $21 $-1 #
edge $-1 $81 -8.5 $50 0 $45 $82 forward 7 unknown #
coedge $-1 $25 $83 $84 $85 reversed $8 $-1 #
coedge $-1 $57 $56 $25 $49 forward $58 $-1 #
edge $-1 $51 -8.5 $86 0 $48 $87 forward 7 unknown #
vertex $-1 $68 $88 #
vertex $-1 $69 $89 #
ellipse-curve $-1 -4.25 4.099999999999999645 4.129999999999999893 0 0 -1 0 4 0 1 I I #
coedge $-1 $90 $28 $91 $92 forward $5 $-1 #
coedge $-1 $93 $94 $28 $55 reversed $95 $-1 #
edge $-1 $59 -1.570796326794896558 $96 0 $54 $97 forward 7 unknown #
coedge $-1 $48 $29 $35 $69 reversed $58 $-1 #
coedge $-1 $29 $48 $93 $98 forward $58 $-1 #
loop $-1 $-1 $29 $99 #
vertex $-1 $98 $100 #
straight-curve $-1 4.25 8.099999999999999645 -4.129999999999999893 1 0 0 I I #
coedge $-1 $31 $90 $101 $102 forward $5 $-1 #
coedge $-1 $103 $104 $31 $63 reversed $40 $-1 #
edge $-1 $105 -1.570796326794896558 $66 0 $62 $106 forward 7 unknown #
coedge $-1 $45 $32 $104 $107 reversed $21 $-1 #
coedge $-1 $32 $45 $34 $68 forward $21 $-1 #
vertex $-1 $107 $108 #
straight-curve $-1 -8.25 4.099999999999999645 -4.129999999999999893 0 1 0 I I #
edge $-1 $50 -8.259999999999999787 $36 0 $65 $109 forward 7 unknown #
edge $-1 $51 -8.259999999999999787 $37 0 $56 $110 forward 7 unknown #
point $-1 -8.25 4.099999999999999645 -4.129999999999999893 #
point $-1 -4.25 8.099999999999999645 -4.129999999999999893 #
face $-1 $111 $112 $2 $-1 $113 forward single #
loop $-1 $-1 $101 $39 #
plane-surface $-1 -4.25 -8.400000000000000355 -4.129999999999999893 0 -1 0 0 0 -1 forward_v I I I I #
loop $-1 $114 $42 $115 #
vertex $-1 $43 $116 #
ellipse-curve $-1 0 0 4.129999999999999893 0 0 -1 -3 0 0 1 I I #
coedge $-1 $117 $44 $118 $119 reversed $8 $-1 #
coedge $-1 $104 $103 $44 $80 forward $40 $-1 #
edge $-1 $120 -1.570796326794896558 $81 0 $79 $121 forward 7 unknown #
vertex $-1 $107 $122 #
straight-curve $-1 -8.25 4.099999999999999645 4.129999999999999893 0 1 0 I I #
coedge $-1 $47 $117 $123 $124 reversed $8 $-1 #
coedge $-1 $94 $93 $47 $85 forward $95 $-1 #
edge $-1 $86 -1.570796326794896558 $125 0 $84 $126 forward 7 unknown #
vertex $-1 $98 $127 #
straight-curve $-1 4.25 8.099999999999999645 4.129999999999999893 1 0 0 I I #
point $-1 -8.25 4.099999999999999645 4.129999999999999893 #
point $-1 -4.25 8.099999999999999645 4.129999999999999893 #
coedge $-1 $61 $53 $128 $129 forward $5 $-1 #
coedge $-1 $130 $131 $53 $92 reversed $132 $-1 #
edge $-1 $96 -8.5 $133 0 $91 $134 forward 7 unknown #
coedge $-1 $84 $54 $57 $98 reversed $95 $-1 #
coedge $-1 $54 $84 $130 $135 forward $95 $-1 #
loop $-1 $-1 $54 $136 #
vertex $-1 $135 $137 #
ellipse-curve $-1 4.25 4.099999999999999645 -4.129999999999999893 0 0 -1 4 0 0 1 I I #
edge $-1 $86 -8.259999999999999787 $59 0 $57 $138 forward 7 unknown #
face $-1 $115 $58 $2 $-1 $139 forward single #
point $-1 4.25 8.099999999999999645 -4.129999999999999893 #
coedge $-1 $140 $141 $61 $102 reversed $73 $-1 #
edge $-1 $142 -8.5 $105 0 $101 $143 forward 7 unknown #
coedge $-1 $79 $62 $141 $144 reversed $40 $-1 #
coedge $-1 $62 $79 $64 $107 forward $40 $-1 #
vertex $-1 $144 $145 #
ellipse-curve $-1 -4.25 -4.400000000000000355 -4.129999999999999893 0 0 -1 -4 0 0 1 I I #
edge $-1 $81 -8.259999999999999787 $66 0 $104 $146 forward 7 unknown #
point $-1 -8.25 -4.400000000000000355 -4.129999999999999893 #
straight-curve $-1 -8.25 4.099999999999999645 -4.129999999999999893 0 0 -1 I I #
straight-curve $-1 -4.25 8.099999999999999645 -4.129999999999999893 0 0 -1 I I #
face $-1 $136 $132 $2 $-1 $147 forward single #
loop $-1 $-1 $128 $72 #
cone-surface $-1 4.25 -4.400000000000000355 -4.129999999999999893 0 0 1 4 0 0 1 I I 0 1 4 forward I I I I #
loop $-1 $-1 $148 $115 #
face $-1 $149 $75 $2 $-1 $150 forward single #
point $-1 3 0 4.129999999999999893 #
coedge $-1 $83 $78 $151 $152 reversed $8 $-1 #
coedge $-1 $141 $140 $78 $119 forward $73 $-1 #
edge $-1 $153 -8.5 $120 0 $118 $154 forward 7 unknown #
vertex $-1 $144 $155 #
ellipse-curve $-1 -4.25 -4.400000000000000355 4.129999999999999893 0 0 -1 -4 0 0 1 I I #
point $-1 -8.25 -4.400000000000000355 4.129999999999999893 #
coedge $-1 $131 $130 $83 $124 forward $132 $-1 #
edge $-1 $125 -8.5 $156 0 $123 $157 forward 7 unknown #
vertex $-1 $135 $158 #
ellipse-curve $-1 4.25 4.099999999999999645 4.129999999999999893 0 0 -1 4 0 0 1 I I #
point $-1 4.25 8.099999999999999645 4.129999999999999893 #
coedge $-1 $159 $160 $90 $129 reversed $112 $-1 #
edge $-1 $133 -1.570796326794896558 $142 0 $128 $161 forward 7 unknown #
coedge $-1 $123 $91 $94 $135 reversed $132 $-1 #
coedge $-1 $91 $123 $159 $162 forward $132 $-1 #
loop $-1 $-1 $91 $111 #
vertex $-1 $162 $163 #
straight-curve $-1 8.25 -4.400000000000000355 -4.129999999999999893 0 -1 0 I I #
edge $-1 $125 -8.259999999999999787 $96 0 $94 $164 forward 7 unknown #
face $-1 $99 $95 $2 $-1 $165 forward single #
point $-1 8.25 4.099999999999999645 -4.129999999999999893 #
straight-curve $-1 4.25 8.099999999999999645 -4.129999999999999893 -2.150553074334439974e-16 0 -1 I I #
plane-surface $-1 4.25 8.099999999999999645 -4.129999999999999893 0 1 0 0 0 1 forward_v I I I I #
coedge $-1 $118 $101 $160 $166 reversed $73 $-1 #
coedge $-1 $101 $118 $103 $144 forward $73 $-1 #
vertex $-1 $166 $167 #
straight-curve $-1 -4.25 -8.400000000000000355 -4.129999999999999893 -1 0 0 I I #
edge $-1 $120 -8.259999999999999787 $105 0 $141 $168 forward 7 unknown #
point $-1 -4.25 -8.400000000000000355 -4.129999999999999893 #
straight-curve $-1 -8.25 -4.400000000000000355 -4.129999999999999893 0 0 -1 I I #
plane-surface $-1 8.25 -4.400000000000000355 -4.129999999999999893 1 0 0 0 0 -1 forward_v I I I I #
coedge $-1 $148 $148 $169 $170 forward $114 $-1 #
face $-1 $171 $172 $2 $-1 $173 reversed single #
cone-surface $-1 0 0 4.129999999999999893 0 0 1 3 0 0 1 I I 0 1 3 forward I I I I #
coedge $-1 $160 $159 $117 $152 forward $112 $-1 #
edge $-1 $156 -1.570796326794896558 $153 0 $151 $174 forward 7 unknown #
vertex $-1 $166 $175 #
straight-curve $-1 -4.25 -8.400000000000000355 4.129999999999999893 -1 0 0 I I #
point $-1 -4.25 -8.400000000000000355 4.129999999999999893 #
vertex $-1 $162 $176 #
straight-curve $-1 8.25 -4.400000000000000355 4.129999999999999893 0 -1 0 I I #
point $-1 8.25 4.099999999999999645 4.129999999999999893 #
coedge $-1 $151 $128 $131 $162 reversed $112 $-1 #
coedge $-1 $128 $151 $140 $166 forward $112 $-1 #
ellipse-curve $-1 4.25 -4.400000000000000355 -4.129999999999999893 0 0 -1 0 -4 0 1 I I #
edge $-1 $156 -8.259999999999999787 $133 0 $131 $177 forward 7 unknown #
point $-1 8.25 -4.400000000000000355 -4.129999999999999893 #
straight-curve $-1 8.25 4.099999999999999645 -4.129999999999999893 0 0 -1 I I #
cone-surface $-1 4.25 4.099999999999999645 -4.129999999999999893 0 0 1 4 0 0 1 I I 0 1 4 forward I I I I #
edge $-1 $153 -8.259999999999999787 $142 0 $160 $178 forward 7 unknown #
point $-1 4.25 -8.400000000000000355 -4.129999999999999893 #
straight-curve $-1 -4.25 -8.400000000000000355 -4.129999999999999893 2.150553074334439974e-16 0 -1 I I #
coedge $-1 $169 $169 $148 $170 reversed $179 $-1 #
edge $-1 $180 -3.141592653589793116 $180 3.141592653589793116 $169 $181 forward 7 unknown #
face $-1 $182 $183 $2 $-1 $184 forward single #
loop $-1 $179 $185 $149 #
plane-surface $-1 0 0 5.379999999999999893 0 0 1 1 0 0 forward_v I I I I #
ellipse-curve $-1 4.25 -4.400000000000000355 4.129999999999999893 0 0 -1 0 -4 0 1 I I #
point $-1 4.25 -8.400000000000000355 4.129999999999999893 #
point $-1 8.25 -4.400000000000000355 4.129999999999999893 #
straight-curve $-1 8.25 -4.400000000000000355 -4.129999999999999893 0 2.150553074334439974e-16 -1 I I #
straight-curve $-1 4.25 -8.400000000000000355 -4.129999999999999893 0 0 -1 I I #
loop $-1 $-1 $169 $149 #
vertex $-1 $170 $186 #
ellipse-curve $-1 0 0 5.379999999999999893 0 0 -1 -3 0 0 1 I I #
face $-1 $-1 $187 $2 $-1 $188 forward single #
loop $-1 $-1 $189 $171 #
plane-surface $-1 0 0 6.620000000000000107 0 0 1 1 0 0 forward_v I I I I #
coedge $-1 $185 $185 $190 $191 forward $172 $-1 #
point $-1 3 0 5.379999999999999893 #
loop $-1 $192 $193 $182 #
cone-surface $-1 0 0 5.379999999999999893 0 0 1 4 0 0 1 I I 0 1 4 forward I I I I #
coedge $-1 $189 $189 $193 $194 reversed $183 $-1 #
coedge $-1 $190 $190 $185 $191 reversed $192 $-1 #
edge $-1 $195 -3.141592653589793116 $195 3.141592653589793116 $190 $196 forward 7 unknown #
loop $-1 $-1 $190 $182 #
coedge $-1 $193 $193 $189 $194 forward $187 $-1 #
edge $-1 $197 0 $197 6.283185307179586232 $193 $198 forward 7 unknown #
vertex $-1 $191 $199 #
ellipse-curve $-1 0 0 5.379999999999999893 0 0 -1 -4 0 0 1 I I #
vertex $-1 $194 $200 #
ellipse-curve $-1 0 0 6.620000000000000107 0 0 -1 4 0 0 1 I I #
point $-1 4 0 5.379999999999999893 #
point $-1 4 0 6.620000000000000107 #
End-of-ACIS-data 