700 0 2 0           
24 FBMach with ACIS - 7.0.3 13 ACIS 7.0.3 NT 24 Tue May 14 14:19:45 2002 
1 9.9999999999999995e-007 1e-010 
body $2 -1 $-1 $3 $-1 $4 #
bdycol-kcp $-1 -1 1 2 $5 $6 #
model_id-kcp-attrib $-1 -1 $-1 $-1 $0 1 1021400385 1021400385 1707016193 1 #
lump $-1 -1 $-1 $-1 $7 $0 #
transform $-1 -1 1 0 0 0 1 0 0 0 1 0 0 0 1 rotate no_reflect no_shear #
body $8 -1 $-1 $9 $-1 $10 #
body $11 -1 $-1 $12 $-1 $13 #
shell $-1 -1 $-1 $-1 $-1 $14 $-1 $3 #
rgb_color-st-attrib $-1 -1 $15 $-1 $5 0.5 1 1 #
lump $-1 -1 $-1 $16 $17 $5 #
transform $-1 -1 1 0 0 0 1 0 0 0 1 0 -3.8099999999999881 31.623000000000005 1 no_rotate no_reflect no_shear #
model_id-kcp-attrib $-1 -1 $-1 $-1 $6 1 1021400385 1021400385 1707016194 1 #
lump $-1 -1 $-1 $-1 $18 $6 #
transform $-1 -1 1 0 0 0 1 0 0 0 1 0 -3.8099999999999881 31.623000000000005 1 no_rotate no_reflect no_shear #
face $19 -1 $-1 $20 $21 $7 $-1 $22 reversed single #
model_id-kcp-attrib $-1 -1 $-1 $8 $5 1 1021400385 1021400385 1700069379 1 #
lump $-1 -1 $-1 $23 $24 $5 #
shell $-1 -1 $-1 $-1 $-1 $25 $-1 $9 #
shell $-1 -1 $-1 $-1 $-1 $26 $-1 $12 #
model_id-kcp-attrib $-1 -1 $-1 $-1 $14 1 1021400385 1021400385 1707016193 2 #
face $27 -1 $-1 $28 $29 $7 $-1 $30 forward single #
loop $-1 -1 $-1 $-1 $31 $14 #
plane-surface $-1 -1 $-1 0 0 -104.90199999999999 0 0 1 25.399999999999999 0 0 forward_v I I I I #
lump $-1 -1 $-1 $32 $33 $5 #
shell $-1 -1 $-1 $-1 $-1 $34 $-1 $16 #
face $-1 -1 $-1 $35 $36 $17 $-1 $37 reversed single #
face $38 -1 $-1 $39 $40 $18 $-1 $41 forward single #
model_id-kcp-attrib $-1 -1 $-1 $-1 $20 1 1021400385 1021400385 1707016193 3 #
face $42 -1 $-1 $43 $44 $7 $-1 $45 forward single #
loop $-1 -1 $-1 $-1 $46 $20 #
plane-surface $-1 -1 $-1 107.94999999999999 205.73999999999998 -104.90199999999999 0 1 0 -25.399999999999999 0 0 forward_v I I I I #
coedge $-1 -1 $-1 $47 $48 $49 $50 reversed $21 $-1 #
lump $-1 -1 $-1 $-1 $51 $5 #
shell $-1 -1 $-1 $-1 $-1 $52 $-1 $23 #
face $-1 -1 $-1 $53 $54 $24 $-1 $55 reversed single #
face $-1 -1 $-1 $56 $57 $17 $-1 $58 reversed single #
loop $-1 -1 $-1 $-1 $59 $25 #
cone-surface $-1 -1 $-1 -107.9500000000001 -107.9500000000001 -136.52499999999998 0 0 -1 -101.59999999999988 1.2789769243681803e-013 0 1 I I 0 1 101.59999999999988 forward I I I I #
model_id-kcp-attrib $-1 -1 $-1 $-1 $26 1 1021400385 1021400385 1707016194 7 #
face $60 -1 $-1 $61 $62 $18 $-1 $63 reversed single #
loop $-1 -1 $-1 $-1 $64 $26 #
plane-surface $-1 -1 $-1 0 0 136.52499999999998 0 0 1 1 0 0 forward_v I I I I #
model_id-kcp-attrib $-1 -1 $-1 $-1 $28 1 1021400385 1021400385 1707016193 4 #
face $65 -1 $-1 $66 $67 $7 $-1 $68 forward single #
loop $-1 -1 $-1 $-1 $69 $28 #
cone-surface $-1 -1 $-1 -107.94999999999999 104.13999999999999 -104.90199999999999 0 0 1 101.59999999999999 0 0 1 I I 0 1 101.59999999999999 forward I I I I #
coedge $-1 -1 $-1 $70 $49 $71 $72 forward $29 $-1 #
coedge $-1 -1 $-1 $73 $31 $74 $75 reversed $21 $-1 #
coedge $-1 -1 $-1 $31 $76 $77 $78 reversed $21 $-1 #
coedge $-1 -1 $-1 $46 $79 $31 $50 forward $29 $-1 #
edge $80 -1 $-1 $81 0 $82 8.5 $31 $83 forward @7 unknown #
shell $-1 -1 $-1 $-1 $-1 $84 $-1 $32 #
face $-1 -1 $-1 $85 $86 $33 $-1 $87 reversed single #
face $-1 -1 $-1 $88 $89 $24 $-1 $90 reversed single #
loop $-1 -1 $-1 $-1 $91 $34 #
plane-surface $-1 -1 $-1 0 209.54999999999995 0 0 -1 0 0 0 -1 forward_v I I I I #
face $-1 -1 $-1 $92 $93 $17 $-1 $94 forward single #
loop $-1 -1 $-1 $-1 $95 $35 #
plane-surface $-1 -1 $-1 -209.54999999999998 0 0 1 0 0 0 0 -1 forward_v I I I I #
coedge $-1 -1 $-1 $96 $97 $98 $99 reversed $36 $-1 #
model_id-kcp-attrib $-1 -1 $-1 $-1 $39 1 1021400385 1021400385 1707016194 2 #
face $100 -1 $-1 $101 $102 $18 $-1 $103 reversed single #
loop $-1 -1 $-1 $-1 $104 $39 #
plane-surface $-1 -1 $-1 0 0 -136.52499999999998 0 0 1 1 0 0 forward_v I I I I #
coedge $-1 -1 $-1 $105 $106 $107 $108 forward $40 $-1 #
model_id-kcp-attrib $-1 -1 $-1 $-1 $43 1 1021400385 1021400385 1707016193 5 #
face $109 -1 $-1 $110 $111 $7 $-1 $112 forward single #
loop $-1 -1 $-1 $-1 $113 $43 #
plane-surface $-1 -1 $-1 -209.54999999999998 104.13999999999999 -104.90199999999999 -1 0 0 0 -25.399999999999999 0 forward_v I I I I #
coedge $-1 -1 $-1 $114 $77 $115 $116 forward $44 $-1 #
coedge $-1 -1 $-1 $79 $46 $117 $118 reversed $29 $-1 #
coedge $-1 -1 $-1 $77 $114 $46 $72 reversed $44 $-1 #
edge $119 -1 $-1 $82 0 $120 8.2599999999999998 $71 $121 forward @7 unknown #
coedge $-1 -1 $-1 $122 $47 $123 $124 reversed $21 $-1 #
coedge $-1 -1 $-1 $125 $126 $47 $75 forward $127 $-1 #
edge $128 -1 $-1 $129 0 $81 1.5707963267948966 $47 $130 forward @7 unknown #
coedge $-1 -1 $-1 $48 $131 $132 $133 reversed $21 $-1 #
coedge $-1 -1 $-1 $69 $71 $48 $78 forward $44 $-1 #
edge $134 -1 $-1 $82 0 $135 1.5707963267948966 $48 $136 forward @7 unknown #
coedge $-1 -1 $-1 $49 $70 $125 $137 reversed $29 $-1 #
attrib_edge_convexity-kcp-attrib $-1 -1 $138 $-1 $50 1 #
vertex $-1 -1 $-1 $75 $139 #
vertex $-1 -1 $-1 $78 $140 #
straight-curve $-1 -1 $-1 107.94999999999999 205.73999999999998 -104.90199999999999 -25.399999999999999 0 0 I I #
face $-1 -1 $-1 $141 $142 $51 $-1 $143 reversed single #
face $-1 -1 $-1 $144 $145 $33 $-1 $58 reversed single #
loop $-1 -1 $-1 $-1 $146 $52 #
cone-surface $-1 -1 $-1 -107.94999999999999 107.94999999999996 -136.52499999999998 0 0 -1 0 101.59999999999999 0 1 I I 0 1 101.59999999999999 forward I I I I #
face $-1 -1 $-1 $147 $148 $24 $-1 $143 reversed single #
loop $-1 -1 $-1 $-1 $149 $53 #
plane-surface $-1 -1 $-1 0 0 -136.52499999999998 0 0 1 1 0 0 forward_v I I I I #
coedge $-1 -1 $-1 $150 $151 $152 $153 reversed $54 $-1 #
face $-1 -1 $-1 $154 $155 $17 $-1 $90 reversed single #
loop $-1 -1 $-1 $-1 $98 $56 #
plane-surface $-1 -1 $-1 0 0 136.52499999999998 0 0 1 1 0 0 forward_v I I I I #
coedge $-1 -1 $-1 $156 $157 $97 $158 forward $57 $-1 #
coedge $-1 -1 $-1 $159 $59 $160 $161 forward $36 $-1 #
coedge $-1 -1 $-1 $59 $159 $95 $158 reversed $36 $-1 #
coedge $-1 -1 $-1 $162 $163 $59 $99 forward $93 $-1 #
edge $-1 -1 $-1 $164 -1.5707963267948992 $165 0 $98 $166 forward @7 unknown #
model_id-kcp-attrib $-1 -1 $-1 $-1 $61 1 1021400385 1021400385 1707016194 5 #
face $167 -1 $-1 $168 $169 $18 $-1 $170 reversed single #
loop $-1 -1 $-1 $-1 $171 $61 #
plane-surface $-1 -1 $-1 0 -209.54999999999995 0 0 1 0 0 0 1 forward_v I I I I #
coedge $-1 -1 $-1 $172 $173 $174 $175 forward $62 $-1 #
coedge $-1 -1 $-1 $176 $64 $177 $178 forward $40 $-1 #
coedge $-1 -1 $-1 $64 $176 $179 $180 forward $40 $-1 #
coedge $-1 -1 $-1 $181 $182 $64 $108 reversed $183 $-1 #
edge $-1 -1 $-1 $184 -209.54999999999995 $185 209.54999999999995 $107 $186 forward @7 unknown #
model_id-kcp-attrib $-1 -1 $-1 $-1 $66 1 1021400385 1021400385 1707016193 6 #
face $187 -1 $-1 $188 $189 $7 $-1 $190 forward single #
loop $-1 -1 $-1 $-1 $191 $66 #
cone-surface $-1 -1 $-1 -107.94999999999999 -111.75999999999998 -104.90199999999999 0 0 1 101.59999999999999 0 0 1 I I 0 1 101.59999999999999 forward I I I I #
coedge $-1 -1 $-1 $192 $132 $193 $194 forward $67 $-1 #
coedge $-1 -1 $-1 $71 $69 $195 $196 reversed $44 $-1 #
coedge $-1 -1 $-1 $132 $192 $69 $116 reversed $67 $-1 #
edge $197 -1 $-1 $135 1.2031967439644801e-031 $198 8.2599999999999998 $69 $199 forward @7 unknown #
coedge $-1 -1 $-1 $195 $200 $70 $118 forward $201 $-1 #
edge $202 -1 $-1 $203 0 $120 8.5 $117 $204 forward @7 unknown #
attrib_edge_convexity-kcp-attrib $-1 -1 $205 $-1 $72 3 #
vertex $-1 -1 $-1 $196 $206 #
straight-curve $-1 -1 $-1 -107.94999999999999 205.73999999999998 -104.90199999999999 0 0 25.399999999999999 I I #
coedge $-1 -1 $-1 $207 $73 $208 $209 reversed $21 $-1 #
coedge $-1 -1 $-1 $210 $211 $73 $124 forward $212 $-1 #
edge $213 -1 $-1 $214 0 $129 8.5 $73 $215 forward @7 unknown #
coedge $-1 -1 $-1 $216 $74 $79 $137 forward $127 $-1 #
coedge $-1 -1 $-1 $74 $216 $210 $217 reversed $127 $-1 #
loop $-1 -1 $-1 $-1 $125 $218 #
attrib_edge_convexity-kcp-attrib $-1 -1 $219 $-1 $75 1 #
vertex $-1 -1 $-1 $124 $220 #
ellipse-curve $-1 -1 $-1 107.94999999999999 104.13999999999999 -104.90199999999999 0 0 1 101.59999999999999 0 0 1 I I #
coedge $-1 -1 $-1 $76 $207 $221 $222 reversed $21 $-1 #
coedge $-1 -1 $-1 $113 $115 $76 $133 forward $67 $-1 #
edge $223 -1 $-1 $135 0 $224 8.5 $76 $225 forward @7 unknown #
attrib_edge_convexity-kcp-attrib $-1 -1 $226 $-1 $78 1 #
vertex $-1 -1 $-1 $78 $227 #
ellipse-curve $-1 -1 $-1 -107.94999999999999 104.13999999999999 -104.90199999999999 0 0 1 0 101.59999999999999 0 1 I I #
edge $228 -1 $-1 $81 0 $203 8.2599999999999998 $125 $229 forward @7 unknown #
convexity-sys-attrib $-1 -1 $-1 $80 $50 #
point $-1 -1 $-1 107.94999999999999 205.73999999999998 -104.90199999999999 #
point $-1 -1 $-1 -107.94999999999999 205.73999999999998 -104.90199999999999 #
face $-1 -1 $-1 $230 $231 $51 $-1 $90 reversed single #
loop $-1 -1 $-1 $-1 $232 $84 #
plane-surface $-1 -1 $-1 209.54999999999998 0 0 -1 0 0 0 0 1 forward_v I I I I #
face $-1 -1 $-1 $233 $234 $33 $-1 $94 forward single #
loop $-1 -1 $-1 $-1 $235 $85 #
coedge $-1 -1 $-1 $236 $237 $238 $239 reversed $86 $-1 #
face $-1 -1 $-1 $240 $241 $24 $-1 $94 forward single #
loop $-1 -1 $-1 $-1 $242 $88 #
coedge $-1 -1 $-1 $243 $244 $245 $246 forward $89 $-1 #
coedge $-1 -1 $-1 $247 $91 $248 $249 reversed $54 $-1 #
coedge $-1 -1 $-1 $91 $247 $243 $250 reversed $54 $-1 #
coedge $-1 -1 $-1 $245 $251 $91 $153 forward $252 $-1 #
edge $-1 -1 $-1 $253 -273.04999999999995 $254 0 $91 $255 forward @7 unknown #
face $-1 -1 $-1 $-1 $256 $17 $-1 $257 reversed single #
loop $-1 -1 $-1 $-1 $258 $92 #
coedge $-1 -1 $-1 $259 $95 $260 $261 reversed $57 $-1 #
coedge $-1 -1 $-1 $95 $259 $162 $262 reversed $57 $-1 #
edge $-1 -1 $-1 $165 -273.04999999999995 $263 0 $95 $264 forward @7 unknown #
coedge $-1 -1 $-1 $97 $96 $258 $265 reversed $36 $-1 #
coedge $-1 -1 $-1 $266 $267 $96 $161 reversed $256 $-1 #
edge $-1 -1 $-1 $164 -273.04999999999995 $268 0 $160 $269 forward @7 unknown #
coedge $-1 -1 $-1 $163 $98 $157 $262 forward $93 $-1 #
coedge $-1 -1 $-1 $98 $162 $266 $270 forward $93 $-1 #
vertex $-1 -1 $-1 $99 $271 #
vertex $-1 -1 $-1 $262 $272 #
ellipse-curve $-1 -1 $-1 -107.9500000000001 -107.9500000000001 136.52499999999998 0 0 -1 -101.59999999999988 1.2789769243681803e-013 0 1 I I #
model_id-kcp-attrib $-1 -1 $-1 $-1 $101 1 1021400385 1021400385 1707016194 4 #
face $273 -1 $-1 $274 $275 $18 $-1 $276 reversed single #
loop $-1 -1 $-1 $-1 $277 $101 #
plane-surface $-1 -1 $-1 -209.54999999999998 0 0 1 0 0 0 0 -1 forward_v I I I I #
coedge $-1 -1 $-1 $278 $179 $279 $280 forward $102 $-1 #
coedge $-1 -1 $-1 $281 $104 $278 $282 forward $62 $-1 #
coedge $-1 -1 $-1 $104 $281 $283 $284 forward $62 $-1 #
coedge $-1 -1 $-1 $182 $181 $104 $175 reversed $183 $-1 #
edge $-1 -1 $-1 $285 -209.54999999999995 $286 209.54999999999995 $174 $287 forward @7 unknown #
coedge $-1 -1 $-1 $106 $105 $288 $289 forward $40 $-1 #
coedge $-1 -1 $-1 $290 $291 $105 $178 reversed $275 $-1 #
edge $-1 -1 $-1 $185 -209.54999999999998 $292 209.54999999999998 $177 $293 forward @7 unknown #
coedge $-1 -1 $-1 $171 $294 $106 $180 reversed $102 $-1 #
edge $-1 -1 $-1 $295 -209.54999999999998 $184 209.54999999999998 $179 $296 forward @7 unknown #
coedge $-1 -1 $-1 $174 $107 $294 $297 forward $183 $-1 #
coedge $-1 -1 $-1 $107 $174 $290 $298 reversed $183 $-1 #
loop $-1 -1 $-1 $-1 $181 $274 #
vertex $-1 -1 $-1 $108 $299 #
vertex $-1 -1 $-1 $108 $300 #
straight-curve $-1 -1 $-1 209.54999999999998 0 136.52499999999998 0 1 0 I I #
model_id-kcp-attrib $-1 -1 $-1 $-1 $110 1 1021400385 1021400385 1707016193 7 #
face $301 -1 $-1 $302 $303 $7 $-1 $304 forward single #
loop $-1 -1 $-1 $-1 $305 $110 #
plane-surface $-1 -1 $-1 -107.94999999999999 -213.35999999999996 -104.90199999999999 0 -1 0 25.399999999999999 0 0 forward_v I I I I #
coedge $-1 -1 $-1 $306 $221 $307 $308 forward $111 $-1 #
coedge $-1 -1 $-1 $115 $113 $309 $310 reversed $67 $-1 #
coedge $-1 -1 $-1 $221 $306 $113 $194 reversed $111 $-1 #
edge $311 -1 $-1 $224 0 $312 8.2599999999999998 $113 $313 forward @7 unknown #
coedge $-1 -1 $-1 $309 $117 $114 $196 forward $201 $-1 #
edge $-1 -1 $-1 $120 0 $198 1.5707963267948966 $195 $314 forward @7 unknown #
attrib_edge_convexity-kcp-attrib $-1 -1 $315 $-1 $116 3 #
vertex $-1 -1 $-1 $196 $316 #
straight-curve $-1 -1 $-1 -209.54999999999998 104.14000000000001 -104.90199999999999 0 -2.7312024044047432e-015 25.399999999999999 I I #
coedge $-1 -1 $-1 $117 $317 $216 $318 forward $201 $-1 #
loop $-1 -1 $-1 $319 $309 $320 #
model_id-kcp-attrib $-1 -1 $321 $-1 $118 1 1021400385 1021400385 1707016193 22 #
vertex $-1 -1 $-1 $118 $322 #
straight-curve $-1 -1 $-1 107.94999999999999 205.73999999999998 104.90199999999999 -25.399999999999999 0 0 I I #
convexity-sys-attrib $-1 -1 $-1 $119 $72 #
point $-1 -1 $-1 -107.94999999999999 205.73999999999998 104.90199999999999 #
coedge $-1 -1 $-1 $131 $122 $323 $324 reversed $21 $-1 #
coedge $-1 -1 $-1 $325 $326 $122 $209 forward $303 $-1 #
edge $327 -1 $-1 $328 0 $214 1.5707963267948966 $122 $329 forward @7 unknown #
coedge $-1 -1 $-1 $330 $123 $126 $217 forward $212 $-1 #
coedge $-1 -1 $-1 $123 $330 $325 $331 reversed $212 $-1 #
loop $-1 -1 $-1 $-1 $210 $302 #
attrib_edge_convexity-kcp-attrib $-1 -1 $332 $-1 $124 1 #
vertex $-1 -1 $-1 $209 $333 #
straight-curve $-1 -1 $-1 209.54999999999998 -111.75999999999998 -104.90199999999999 0 25.399999999999999 0 I I #
coedge $-1 -1 $-1 $126 $125 $200 $318 reversed $127 $-1 #
edge $-1 -1 $-1 $129 0 $334 8.2599999999999998 $210 $335 forward @7 unknown #
face $336 -1 $-1 $320 $127 $7 $-1 $337 forward single #
convexity-sys-attrib $-1 -1 $-1 $128 $75 #
point $-1 -1 $-1 209.54999999999998 104.13999999999999 -104.90199999999999 #
coedge $-1 -1 $-1 $191 $193 $131 $222 forward $111 $-1 #
edge $338 -1 $-1 $224 0 $339 1.5707963267948966 $131 $340 forward @7 unknown #
attrib_edge_convexity-kcp-attrib $-1 -1 $341 $-1 $133 1 #
vertex $-1 -1 $-1 $133 $342 #
straight-curve $-1 -1 $-1 -209.54999999999998 104.13999999999999 -104.90199999999999 0 -25.399999999999999 0 I I #
convexity-sys-attrib $-1 -1 $-1 $134 $78 #
point $-1 -1 $-1 -209.54999999999998 104.13999999999999 -104.90199999999999 #
attrib_edge_convexity-kcp-attrib $-1 -1 $343 $-1 $137 3 #
straight-curve $-1 -1 $-1 107.94999999999999 205.73999999999998 -104.90199999999999 0 0 25.399999999999999 I I #
face $-1 -1 $-1 $344 $345 $51 $-1 $94 forward single #
loop $-1 -1 $-1 $-1 $346 $141 #
coedge $-1 -1 $-1 $347 $348 $349 $350 reversed $142 $-1 #
face $-1 -1 $-1 $351 $352 $33 $-1 $55 reversed single #
loop $-1 -1 $-1 $-1 $238 $144 #
coedge $-1 -1 $-1 $353 $354 $236 $355 reversed $145 $-1 #
coedge $-1 -1 $-1 $356 $146 $235 $355 forward $86 $-1 #
coedge $-1 -1 $-1 $146 $356 $357 $358 reversed $86 $-1 #
coedge $-1 -1 $-1 $359 $360 $146 $239 forward $234 $-1 #
edge $-1 -1 $-1 $361 -1.5707963267948966 $362 -2.7974123455122054e-016 $238 $363 forward @7 unknown #
face $-1 -1 $-1 $-1 $252 $24 $-1 $364 reversed single #
loop $-1 -1 $-1 $-1 $365 $147 #
coedge $-1 -1 $-1 $366 $367 $368 $369 forward $148 $-1 #
coedge $-1 -1 $-1 $244 $149 $151 $250 forward $89 $-1 #
coedge $-1 -1 $-1 $149 $243 $366 $370 forward $89 $-1 #
coedge $-1 -1 $-1 $368 $152 $149 $246 reversed $252 $-1 #
edge $-1 -1 $-1 $371 0 $254 1.5707963267948954 $149 $372 forward @7 unknown #
coedge $-1 -1 $-1 $151 $150 $373 $374 forward $54 $-1 #
coedge $-1 -1 $-1 $365 $375 $150 $249 forward $241 $-1 #
edge $-1 -1 $-1 $376 -209.54999999999998 $253 -107.95 $150 $377 forward @7 unknown #
edge $-1 -1 $-1 $254 107.95 $378 209.54999999999998 $151 $379 forward @7 unknown #
coedge $-1 -1 $-1 $152 $368 $365 $380 reversed $252 $-1 #
loop $-1 -1 $-1 $-1 $251 $240 #
vertex $-1 -1 $-1 $153 $381 #
vertex $-1 -1 $-1 $250 $382 #
straight-curve $-1 -1 $-1 107.94999999999995 209.54999999999995 -136.52499999999998 0 0 -1 I I #
loop $-1 -1 $-1 $-1 $160 $154 #
plane-surface $-1 -1 $-1 0 -209.54999999999995 0 0 1 0 0 0 1 forward_v I I I I #
coedge $-1 -1 $-1 $383 $260 $159 $265 forward $155 $-1 #
coedge $-1 -1 $-1 $157 $156 $384 $385 reversed $57 $-1 #
coedge $-1 -1 $-1 $258 $383 $156 $261 forward $155 $-1 #
edge $-1 -1 $-1 $386 -209.54999999999995 $263 -107.94999999999997 $156 $387 forward @7 unknown #
edge $-1 -1 $-1 $165 107.94999999999997 $388 209.54999999999995 $157 $389 forward @7 unknown #
vertex $-1 -1 $-1 $158 $390 #
straight-curve $-1 -1 $-1 -209.54999999999998 -107.9500000000001 -136.52499999999998 0 0 -1 I I #
edge $-1 -1 $-1 $263 0 $268 1.5707963267948992 $258 $391 forward @7 unknown #
coedge $-1 -1 $-1 $384 $160 $163 $270 reversed $256 $-1 #
coedge $-1 -1 $-1 $160 $384 $383 $392 reversed $256 $-1 #
vertex $-1 -1 $-1 $392 $393 #
straight-curve $-1 -1 $-1 -107.9500000000001 -209.54999999999995 -136.52499999999998 0 0 -1 I I #
edge $-1 -1 $-1 $388 -209.54999999999998 $164 -107.94999999999996 $266 $394 forward @7 unknown #
point $-1 -1 $-1 -107.94999999999996 -209.54999999999995 136.52499999999998 #
point $-1 -1 $-1 -209.54999999999998 -107.94999999999997 136.52499999999998 #
model_id-kcp-attrib $-1 -1 $-1 $-1 $168 1 1021400385 1021400385 1707016194 3 #
face $395 -1 $-1 $-1 $183 $18 $-1 $396 reversed single #
loop $-1 -1 $-1 $-1 $290 $168 #
plane-surface $-1 -1 $-1 0 209.54999999999995 0 0 -1 0 0 0 -1 forward_v I I I I #
coedge $-1 -1 $-1 $397 $288 $291 $398 forward $169 $-1 #
coedge $-1 -1 $-1 $294 $171 $172 $282 reversed $102 $-1 #
coedge $-1 -1 $-1 $288 $397 $171 $280 reversed $169 $-1 #
edge $-1 -1 $-1 $295 -136.52499999999998 $399 136.52499999999998 $279 $400 forward @7 unknown #
coedge $-1 -1 $-1 $173 $172 $397 $401 forward $62 $-1 #
edge $-1 -1 $-1 $286 -209.54999999999998 $399 209.54999999999998 $278 $402 forward @7 unknown #
coedge $-1 -1 $-1 $291 $290 $173 $284 reversed $275 $-1 #
edge $-1 -1 $-1 $403 -209.54999999999998 $285 209.54999999999998 $283 $404 forward @7 unknown #
vertex $-1 -1 $-1 $175 $405 #
vertex $-1 -1 $-1 $297 $406 #
straight-curve $-1 -1 $-1 209.54999999999998 0 -136.52499999999998 0 -1 0 I I #
coedge $-1 -1 $-1 $277 $279 $176 $289 reversed $169 $-1 #
edge $-1 -1 $-1 $292 -209.54999999999995 $295 209.54999999999995 $288 $407 forward @7 unknown #
coedge $-1 -1 $-1 $283 $177 $182 $298 forward $275 $-1 #
coedge $-1 -1 $-1 $177 $283 $277 $398 reversed $275 $-1 #
vertex $-1 -1 $-1 $178 $408 #
straight-curve $-1 -1 $-1 0 209.54999999999995 136.52499999999998 -1 0 0 I I #
coedge $-1 -1 $-1 $179 $278 $181 $297 reversed $102 $-1 #
vertex $-1 -1 $-1 $289 $409 #
straight-curve $-1 -1 $-1 0 -209.54999999999995 136.52499999999998 1 0 0 I I #
edge $-1 -1 $-1 $184 -136.52499999999998 $286 136.52499999999998 $181 $410 forward @7 unknown #
edge $-1 -1 $-1 $185 -136.52499999999998 $285 136.52499999999998 $182 $411 forward @7 unknown #
point $-1 -1 $-1 209.54999999999998 -209.54999999999995 136.52499999999998 #
point $-1 -1 $-1 209.54999999999998 209.54999999999995 136.52499999999998 #
model_id-kcp-attrib $-1 -1 $-1 $-1 $188 1 1021400385 1021400385 1707016193 8 #
face $412 -1 $-1 $218 $212 $7 $-1 $413 forward single #
loop $-1 -1 $-1 $-1 $325 $188 #
cone-surface $-1 -1 $-1 107.94999999999999 -111.75999999999998 -104.90199999999999 0 0 1 101.59999999999999 0 0 1 I I 0 1 101.59999999999999 forward I I I I #
coedge $-1 -1 $-1 $414 $323 $326 $415 forward $189 $-1 #
coedge $-1 -1 $-1 $193 $191 $416 $417 reversed $111 $-1 #
coedge $-1 -1 $-1 $323 $414 $191 $308 reversed $189 $-1 #
edge $-1 -1 $-1 $339 1.2031967439644801e-031 $418 8.2599999999999998 $191 $419 forward @7 unknown #
coedge $-1 -1 $-1 $416 $195 $192 $310 forward $201 $-1 #
edge $420 -1 $-1 $198 0 $312 8.4999999999999982 $309 $421 forward @7 unknown #
attrib_edge_convexity-kcp-attrib $-1 -1 $422 $-1 $194 3 #
vertex $-1 -1 $-1 $417 $423 #
straight-curve $-1 -1 $-1 -209.54999999999998 -111.75999999999996 -104.90199999999999 0 0 25.399999999999999 I I #
ellipse-curve $-1 -1 $-1 -107.94999999999999 104.13999999999999 104.90199999999999 0 0 1 0 101.59999999999999 0 1 I I #
convexity-sys-attrib $-1 -1 $-1 $197 $116 #
point $-1 -1 $-1 -209.54999999999998 104.13999999999999 104.90199999999999 #
coedge $-1 -1 $-1 $200 $424 $330 $425 forward $201 $-1 #
edge $-1 -1 $-1 $334 -2.4477358023231745e-017 $203 1.5707963267948957 $200 $426 forward @7 unknown #
loop $-1 -1 $-1 $-1 $427 $320 #
face $428 -1 $-1 $429 $201 $7 $-1 $430 forward single #
attrib_edge_convexity-kcp-attrib $-1 -1 $431 $202 $118 1 #
point $-1 -1 $-1 107.94999999999999 205.73999999999998 104.90199999999999 #
coedge $-1 -1 $-1 $305 $307 $207 $324 forward $189 $-1 #
edge $432 -1 $-1 $339 0 $328 8.5 $207 $433 forward @7 unknown #
coedge $-1 -1 $-1 $434 $208 $211 $331 forward $303 $-1 #
coedge $-1 -1 $-1 $208 $434 $305 $415 reversed $303 $-1 #
attrib_edge_convexity-kcp-attrib $-1 -1 $435 $-1 $209 1 #
vertex $-1 -1 $-1 $324 $436 #
ellipse-curve $-1 -1 $-1 107.94999999999999 -111.75999999999998 -104.90199999999999 0 0 1 0 -101.59999999999997 0 1 I I #
coedge $-1 -1 $-1 $211 $210 $317 $425 reversed $212 $-1 #
edge $-1 -1 $-1 $214 0 $437 8.2599999999999998 $325 $438 forward @7 unknown #
convexity-sys-attrib $-1 -1 $-1 $213 $124 #
point $-1 -1 $-1 209.54999999999998 -111.75999999999998 -104.90199999999999 #
vertex $-1 -1 $-1 $318 $439 #
straight-curve $-1 -1 $-1 209.54999999999998 104.14000000000001 -104.90199999999999 0 0 25.399999999999999 I I #
model_id-kcp-attrib $-1 -1 $-1 $-1 $218 1 1021400385 1021400385 1707016193 10 #
cone-surface $-1 -1 $-1 107.94999999999999 104.13999999999999 -104.90199999999999 0 0 1 101.59999999999999 0 0 1 I I 0 1 101.59999999999999 forward I I I I #
attrib_edge_convexity-kcp-attrib $-1 -1 $440 $-1 $222 1 #
vertex $-1 -1 $-1 $222 $441 #
ellipse-curve $-1 -1 $-1 -107.94999999999999 -111.75999999999998 -104.90199999999999 0 0 1 -101.59999999999999 0 0 1 I I #
convexity-sys-attrib $-1 -1 $-1 $223 $133 #
point $-1 -1 $-1 -209.54999999999998 -111.75999999999998 -104.90199999999999 #
convexity-sys-attrib $-1 -1 $-1 $228 $137 #
face $-1 -1 $-1 $442 $443 $51 $-1 $257 reversed single #
loop $-1 -1 $-1 $-1 $444 $230 #
coedge $-1 -1 $-1 $445 $446 $447 $448 forward $231 $-1 #
coedge $-1 -1 $-1 $449 $232 $450 $451 reversed $142 $-1 #
coedge $-1 -1 $-1 $232 $449 $445 $452 reversed $142 $-1 #
coedge $-1 -1 $-1 $447 $453 $232 $350 forward $454 $-1 #
edge $-1 -1 $-1 $455 -273.04999999999995 $456 0 $232 $457 forward @7 unknown #
face $-1 -1 $-1 $-1 $458 $33 $-1 $90 reversed single #
loop $-1 -1 $-1 $-1 $357 $233 #
coedge $-1 -1 $-1 $459 $235 $360 $460 reversed $145 $-1 #
coedge $-1 -1 $-1 $235 $459 $461 $462 reversed $145 $-1 #
edge $-1 -1 $-1 $361 -273.04999999999995 $463 0 $235 $464 forward @7 unknown #
coedge $-1 -1 $-1 $237 $236 $465 $466 reversed $86 $-1 #
coedge $-1 -1 $-1 $467 $468 $237 $358 forward $352 $-1 #
edge $-1 -1 $-1 $362 -273.04999999999995 $469 0 $357 $470 forward @7 unknown #
coedge $-1 -1 $-1 $360 $238 $468 $471 forward $234 $-1 #
coedge $-1 -1 $-1 $238 $359 $353 $460 forward $234 $-1 #
vertex $-1 -1 $-1 $239 $472 #
vertex $-1 -1 $-1 $471 $473 #
ellipse-curve $-1 -1 $-1 -107.94999999999999 107.94999999999996 136.52499999999998 0 0 -1 0 101.59999999999999 0 1 I I #
cone-surface $-1 -1 $-1 107.94999999999995 107.94999999999992 -136.52499999999998 0 0 -1 101.60000000000004 5.6843418860808015e-014 0 1 I I 0 1 101.60000000000004 forward I I I I #
coedge $-1 -1 $-1 $375 $248 $251 $380 forward $241 $-1 #
coedge $-1 -1 $-1 $373 $242 $244 $370 reversed $148 $-1 #
coedge $-1 -1 $-1 $242 $373 $375 $474 reversed $148 $-1 #
coedge $-1 -1 $-1 $251 $245 $242 $369 reversed $252 $-1 #
edge $-1 -1 $-1 $475 -273.04999999999995 $371 0 $242 $476 forward @7 unknown #
edge $-1 -1 $-1 $378 -209.54999999999995 $371 -107.94999999999997 $366 $477 forward @7 unknown #
vertex $-1 -1 $-1 $246 $478 #
ellipse-curve $-1 -1 $-1 107.94999999999995 107.94999999999992 -136.52499999999998 0 0 1 101.60000000000004 5.6843418860808015e-014 0 1 I I #
coedge $-1 -1 $-1 $367 $366 $247 $374 reversed $148 $-1 #
edge $-1 -1 $-1 $376 -136.52499999999998 $378 136.52499999999998 $373 $479 forward @7 unknown #
coedge $-1 -1 $-1 $248 $365 $367 $474 forward $241 $-1 #
vertex $-1 -1 $-1 $474 $480 #
straight-curve $-1 -1 $-1 0 209.54999999999995 136.52499999999998 -1 0 0 I I #
vertex $-1 -1 $-1 $370 $481 #
straight-curve $-1 -1 $-1 0 209.54999999999995 -136.52499999999998 1 0 0 I I #
edge $-1 -1 $-1 $253 -1.5707963267948954 $475 0 $365 $482 forward @7 unknown #
point $-1 -1 $-1 107.95 209.54999999999995 136.52499999999998 #
point $-1 -1 $-1 107.95 209.54999999999995 -136.52499999999998 #
coedge $-1 -1 $-1 $260 $258 $267 $392 forward $155 $-1 #
coedge $-1 -1 $-1 $267 $266 $259 $385 forward $256 $-1 #
edge $-1 -1 $-1 $388 -136.52499999999998 $386 136.52499999999998 $259 $483 forward @7 unknown #
vertex $-1 -1 $-1 $261 $484 #
straight-curve $-1 -1 $-1 -209.54999999999998 0 -136.52499999999998 0 1 0 I I #
vertex $-1 -1 $-1 $262 $485 #
straight-curve $-1 -1 $-1 -209.54999999999998 0 136.52499999999998 0 -1 0 I I #
point $-1 -1 $-1 -209.54999999999998 -107.94999999999997 -136.52499999999998 #
ellipse-curve $-1 -1 $-1 -107.9500000000001 -107.9500000000001 -136.52499999999998 0 0 1 -101.59999999999988 1.2789769243681803e-013 0 1 I I #
edge $-1 -1 $-1 $268 107.94999999999996 $386 209.54999999999998 $267 $486 forward @7 unknown #
point $-1 -1 $-1 -107.94999999999996 -209.54999999999995 -136.52499999999998 #
straight-curve $-1 -1 $-1 0 -209.54999999999995 136.52499999999998 1 0 0 I I #
model_id-kcp-attrib $-1 -1 $-1 $-1 $274 1 1021400385 1021400385 1707016194 6 #
plane-surface $-1 -1 $-1 209.54999999999998 0 0 -1 0 0 0 0 1 forward_v I I I I #
coedge $-1 -1 $-1 $279 $277 $281 $401 reversed $169 $-1 #
edge $-1 -1 $-1 $292 -136.52499999999998 $403 136.52499999999998 $291 $487 forward @7 unknown #
vertex $-1 -1 $-1 $401 $488 #
straight-curve $-1 -1 $-1 -209.54999999999998 -209.54999999999995 0 0 0 -1 I I #
edge $-1 -1 $-1 $399 -209.54999999999995 $403 209.54999999999995 $397 $489 forward @7 unknown #
straight-curve $-1 -1 $-1 0 -209.54999999999995 -136.52499999999998 -1 0 0 I I #
vertex $-1 -1 $-1 $284 $490 #
straight-curve $-1 -1 $-1 0 209.54999999999995 -136.52499999999998 1 0 0 I I #
point $-1 -1 $-1 209.54999999999998 209.54999999999995 -136.52499999999998 #
point $-1 -1 $-1 209.54999999999998 -209.54999999999995 -136.52499999999998 #
straight-curve $-1 -1 $-1 -209.54999999999998 0 136.52499999999998 0 -1 0 I I #
point $-1 -1 $-1 -209.54999999999998 209.54999999999995 136.52499999999998 #
point $-1 -1 $-1 -209.54999999999998 -209.54999999999995 136.52499999999998 #
straight-curve $-1 -1 $-1 209.54999999999998 -209.54999999999995 0 0 0 -1 I I #
straight-curve $-1 -1 $-1 209.54999999999998 209.54999999999995 0 0 0 -1 I I #
model_id-kcp-attrib $-1 -1 $-1 $-1 $302 1 1021400385 1021400385 1707016193 9 #
plane-surface $-1 -1 $-1 209.54999999999998 -111.75999999999998 -104.90199999999999 1 0 0 0 25.399999999999999 0 forward_v I I I I #
coedge $-1 -1 $-1 $307 $305 $491 $492 reversed $189 $-1 #
edge $-1 -1 $-1 $328 0 $493 8.2599999999999998 $305 $494 forward @7 unknown #
coedge $-1 -1 $-1 $491 $309 $306 $417 forward $201 $-1 #
edge $-1 -1 $-1 $312 -1.4861253085533617e-016 $418 1.570796326794899 $416 $495 forward @7 unknown #
vertex $-1 -1 $-1 $492 $496 #
straight-curve $-1 -1 $-1 -107.95000000000002 -213.35999999999996 -104.90199999999999 2.7312024044047432e-015 0 25.399999999999999 I I #
model_id-kcp-attrib $-1 -1 $497 $-1 $310 1 1021400385 1021400385 1707016193 21 #
straight-curve $-1 -1 $-1 -209.54999999999998 104.13999999999999 104.90199999999999 0 -25.399999999999999 0 I I #
convexity-sys-attrib $-1 -1 $-1 $311 $194 #
point $-1 -1 $-1 -209.54999999999998 -111.75999999999996 104.90199999999999 #
coedge $-1 -1 $-1 $317 $491 $434 $498 forward $201 $-1 #
edge $499 -1 $-1 $437 0 $334 8.5 $317 $500 forward @7 unknown #
ellipse-curve $-1 -1 $-1 107.94999999999995 104.13999999999994 104.90199999999999 0 0 1 101.60000000000004 4.5119463720766359e-014 0 1 I I #
coedge $-1 -1 $-1 $501 $501 $502 $503 reversed $319 $-1 #
model_id-kcp-attrib $-1 -1 $-1 $-1 $320 1 1021400385 1021400385 1707016193 11 #
face $504 -1 $-1 $505 $506 $7 $-1 $507 forward single #
plane-surface $-1 -1 $-1 0 0 104.90199999999999 0 0 1 25.399999999999999 0 0 forward_v I I I I #
convexity-sys-attrib $-1 -1 $-1 $321 $118 #
attrib_edge_convexity-kcp-attrib $-1 -1 $508 $-1 $324 1 #
straight-curve $-1 -1 $-1 -107.94999999999999 -213.35999999999996 -104.90199999999999 25.399999999999999 0 0 I I #
coedge $-1 -1 $-1 $326 $325 $424 $498 reversed $303 $-1 #
convexity-sys-attrib $-1 -1 $-1 $327 $209 #
point $-1 -1 $-1 107.94999999999999 -213.35999999999996 -104.90199999999999 #
vertex $-1 -1 $-1 $425 $509 #
straight-curve $-1 -1 $-1 209.54999999999998 -111.75999999999998 -104.90199999999999 0 0 25.399999999999999 I I #
point $-1 -1 $-1 209.54999999999998 104.13999999999999 104.90199999999999 #
convexity-sys-attrib $-1 -1 $-1 $338 $222 #
point $-1 -1 $-1 -107.94999999999999 -213.35999999999996 -104.90199999999999 #
face $-1 -1 $-1 $-1 $454 $51 $-1 $510 reversed single #
loop $-1 -1 $-1 $-1 $511 $344 #
coedge $-1 -1 $-1 $512 $450 $453 $513 forward $345 $-1 #
coedge $-1 -1 $-1 $446 $346 $348 $452 forward $231 $-1 #
coedge $-1 -1 $-1 $346 $445 $514 $515 forward $231 $-1 #
coedge $-1 -1 $-1 $516 $349 $346 $448 reversed $454 $-1 #
edge $-1 -1 $-1 $517 1.3987061727561039e-016 $456 1.5707963267948992 $346 $518 forward @7 unknown #
coedge $-1 -1 $-1 $348 $347 $519 $520 forward $142 $-1 #
coedge $-1 -1 $-1 $444 $512 $347 $451 forward $345 $-1 #
edge $-1 -1 $-1 $521 -209.54999999999995 $455 -107.94999999999997 $347 $522 forward @7 unknown #
edge $-1 -1 $-1 $456 107.94999999999997 $523 209.54999999999995 $348 $477 forward @7 unknown #
coedge $-1 -1 $-1 $349 $516 $444 $513 reversed $454 $-1 #
loop $-1 -1 $-1 $-1 $453 $442 #
vertex $-1 -1 $-1 $350 $524 #
vertex $-1 -1 $-1 $452 $525 #
straight-curve $-1 -1 $-1 209.54999999999998 -107.9500000000001 -136.52499999999998 0 0 -1 I I #
loop $-1 -1 $-1 $-1 $465 $351 #
coedge $-1 -1 $-1 $354 $353 $526 $527 forward $145 $-1 #
edge $-1 -1 $-1 $528 -209.54999999999995 $361 -107.94999999999996 $353 $389 forward @7 unknown #
coedge $-1 -1 $-1 $529 $465 $354 $462 forward $458 $-1 #
edge $-1 -1 $-1 $463 107.94999999999996 $530 209.54999999999995 $354 $387 forward @7 unknown #
vertex $-1 -1 $-1 $462 $531 #
straight-curve $-1 -1 $-1 -209.54999999999998 107.94999999999996 -136.52499999999998 0 0 -1 I I #
coedge $-1 -1 $-1 $461 $529 $356 $466 forward $458 $-1 #
edge $-1 -1 $-1 $469 2.7974123455122054e-016 $463 1.5707963267948966 $465 $532 forward @7 unknown #
coedge $-1 -1 $-1 $526 $357 $529 $533 reversed $352 $-1 #
coedge $-1 -1 $-1 $357 $526 $359 $471 reversed $352 $-1 #
vertex $-1 -1 $-1 $358 $534 #
straight-curve $-1 -1 $-1 -107.94999999999999 209.54999999999995 -136.52499999999998 0 0 -1 I I #
edge $-1 -1 $-1 $362 107.95000000000002 $528 209.54999999999998 $468 $377 forward @7 unknown #
point $-1 -1 $-1 -209.54999999999998 107.94999999999996 136.52499999999998 #
point $-1 -1 $-1 -107.95000000000002 209.54999999999995 136.52499999999998 #
edge $-1 -1 $-1 $475 107.94999999999997 $376 209.54999999999995 $367 $522 forward @7 unknown #
vertex $-1 -1 $-1 $474 $535 #
straight-curve $-1 -1 $-1 209.54999999999998 107.94999999999992 -136.52499999999998 0 0 -1 I I #
straight-curve $-1 -1 $-1 209.54999999999998 0 -136.52499999999998 0 -1 0 I I #
point $-1 -1 $-1 209.54999999999998 107.94999999999997 -136.52499999999998 #
straight-curve $-1 -1 $-1 209.54999999999998 209.54999999999995 0 0 0 -1 I I #
point $-1 -1 $-1 209.54999999999998 209.54999999999995 136.52499999999998 #
point $-1 -1 $-1 209.54999999999998 209.54999999999995 -136.52499999999998 #
ellipse-curve $-1 -1 $-1 107.94999999999995 107.94999999999992 136.52499999999998 0 0 -1 101.60000000000004 5.6843418860808015e-014 0 1 I I #
straight-curve $-1 -1 $-1 -209.54999999999998 -209.54999999999995 0 0 0 -1 I I #
point $-1 -1 $-1 -209.54999999999998 -209.54999999999995 -136.52499999999998 #
point $-1 -1 $-1 -209.54999999999998 -209.54999999999995 136.52499999999998 #
straight-curve $-1 -1 $-1 0 -209.54999999999995 -136.52499999999998 -1 0 0 I I #
straight-curve $-1 -1 $-1 -209.54999999999998 209.54999999999995 0 0 0 -1 I I #
point $-1 -1 $-1 -209.54999999999998 -209.54999999999995 -136.52499999999998 #
straight-curve $-1 -1 $-1 -209.54999999999998 0 -136.52499999999998 0 1 0 I I #
point $-1 -1 $-1 -209.54999999999998 209.54999999999995 -136.52499999999998 #
coedge $-1 -1 $-1 $424 $416 $414 $492 forward $201 $-1 #
edge $536 -1 $-1 $418 0 $493 8.5 $491 $537 forward @7 unknown #
vertex $-1 -1 $-1 $498 $538 #
straight-curve $-1 -1 $-1 107.94999999999999 -213.35999999999996 -104.90199999999999 0 0 25.399999999999999 I I #
ellipse-curve $-1 -1 $-1 -107.9500000000001 -111.76000000000009 104.90199999999999 0 0 1 -101.59999999999988 1.127986593019159e-013 0 1 I I #
point $-1 -1 $-1 -107.94999999999999 -213.35999999999996 104.90199999999999 #
attrib_edge_convexity-kcp-attrib $-1 -1 $539 $420 $310 1 #
edge $-1 -1 $-1 $493 -2.063091604815254e-016 $437 1.5707963267948992 $424 $540 forward @7 unknown #
model_id-kcp-attrib $-1 -1 $-1 $-1 $425 1 1021400385 1021400385 1707016193 19 #
straight-curve $-1 -1 $-1 209.54999999999998 -111.75999999999998 104.90199999999999 0 25.399999999999999 0 I I #
coedge $-1 -1 $-1 $427 $427 $541 $542 reversed $319 $-1 #
coedge $-1 -1 $-1 $543 $544 $427 $503 forward $506 $-1 #
edge $-1 -1 $-1 $545 0 $546 3.1415926535897931 $427 $547 forward @7 unknown #
model_id-kcp-attrib $-1 -1 $-1 $-1 $429 1 1021400385 1021400385 1707016193 12 #
face $548 -1 $-1 $549 $550 $7 $-1 $551 forward single #
loop $-1 -1 $-1 $-1 $544 $429 #
cone-surface $-1 -1 $-1 0 0 104.90199999999999 0 0 1 76.199999999999989 0 0 1 I I 0 1 76.199999999999989 forward I I I I #
convexity-sys-attrib $-1 -1 $-1 $432 $324 #
point $-1 -1 $-1 209.54999999999998 -111.75999999999998 104.90199999999999 #
cone-surface $-1 -1 $-1 107.95000000000012 -107.9500000000001 -136.52499999999998 0 0 -1 -1.4210854715202004e-013 -101.59999999999985 0 1 I I 0 1 101.59999999999985 forward I I I I #
coedge $-1 -1 $-1 $514 $552 $516 $553 forward $443 $-1 #
coedge $-1 -1 $-1 $450 $444 $552 $554 forward $345 $-1 #
edge $-1 -1 $-1 $455 -1.5707963267948992 $555 -1.3987061727561039e-016 $444 $556 forward @7 unknown #
coedge $-1 -1 $-1 $519 $511 $446 $515 reversed $443 $-1 #
edge $-1 -1 $-1 $523 -209.54999999999998 $517 -107.94999999999999 $514 $486 forward @7 unknown #
coedge $-1 -1 $-1 $453 $447 $511 $553 reversed $454 $-1 #
vertex $-1 -1 $-1 $448 $557 #
ellipse-curve $-1 -1 $-1 107.95000000000012 -107.9500000000001 -136.52499999999998 0 0 1 -1.4210854715202004e-013 -101.59999999999985 0 1 I I #
coedge $-1 -1 $-1 $552 $514 $449 $520 reversed $443 $-1 #
edge $-1 -1 $-1 $521 -136.52499999999998 $523 136.52499999999998 $449 $558 forward @7 unknown #
vertex $-1 -1 $-1 $451 $559 #
straight-curve $-1 -1 $-1 209.54999999999998 0 136.52499999999998 0 1 0 I I #
vertex $-1 -1 $-1 $520 $560 #
point $-1 -1 $-1 209.54999999999995 -107.94999999999997 136.52499999999998 #
point $-1 -1 $-1 209.54999999999995 -107.94999999999997 -136.52499999999998 #
coedge $-1 -1 $-1 $468 $467 $459 $527 reversed $352 $-1 #
edge $-1 -1 $-1 $528 -136.52499999999998 $530 136.52499999999998 $526 $561 forward @7 unknown #
vertex $-1 -1 $-1 $471 $562 #
coedge $-1 -1 $-1 $465 $461 $467 $533 forward $458 $-1 #
vertex $-1 -1 $-1 $533 $563 #
point $-1 -1 $-1 -209.54999999999998 107.94999999999996 -136.52499999999998 #
ellipse-curve $-1 -1 $-1 -107.94999999999999 107.94999999999996 -136.52499999999998 0 0 1 0 101.59999999999999 0 1 I I #
edge $-1 -1 $-1 $530 -209.54999999999998 $469 -107.95000000000002 $467 $379 forward @7 unknown #
point $-1 -1 $-1 -107.95000000000002 209.54999999999995 -136.52499999999998 #
point $-1 -1 $-1 209.54999999999998 107.94999999999997 136.52499999999998 #
model_id-kcp-attrib $-1 -1 $-1 $-1 $492 1 1021400385 1021400385 1707016193 20 #
straight-curve $-1 -1 $-1 -107.94999999999999 -213.35999999999996 104.90199999999999 25.399999999999999 0 0 I I #
point $-1 -1 $-1 107.94999999999997 -213.35999999999996 104.90199999999999 #
convexity-sys-attrib $-1 -1 $-1 $497 $310 #
ellipse-curve $-1 -1 $-1 107.95000000000013 -111.76000000000009 104.90199999999999 0 0 1 -1.3535839116229907e-013 -101.59999999999985 0 1 I I #
coedge $-1 -1 $-1 $564 $565 $501 $542 forward $550 $-1 #
edge $-1 -1 $-1 $546 0 $545 3.1415926535897931 $501 $566 forward @7 unknown #
coedge $-1 -1 $-1 $567 $502 $565 $568 forward $506 $-1 #
coedge $-1 -1 $-1 $502 $567 $564 $569 reversed $506 $-1 #
vertex $-1 -1 $-1 $542 $570 #
vertex $-1 -1 $-1 $542 $571 #
ellipse-curve $-1 -1 $-1 0 0 104.90199999999999 0 0 1 -76.199999999999989 0 0 1 I I #
model_id-kcp-attrib $-1 -1 $-1 $-1 $505 1 1021400385 1021400385 1707016193 13 #
face $572 -1 $-1 $573 $574 $7 $-1 $575 reversed single #
loop $-1 -1 $-1 $-1 $565 $505 #
cone-surface $-1 -1 $-1 0 0 104.90199999999999 0 0 1 76.199999999999989 0 0 1 I I 0 1 76.199999999999989 forward I I I I #
coedge $-1 -1 $-1 $511 $519 $512 $554 reversed $443 $-1 #
edge $-1 -1 $-1 $555 -273.04999999999995 $517 0 $511 $576 forward @7 unknown #
edge $-1 -1 $-1 $555 107.94999999999999 $521 209.54999999999998 $552 $394 forward @7 unknown #
vertex $-1 -1 $-1 $554 $577 #
ellipse-curve $-1 -1 $-1 107.95000000000012 -107.9500000000001 136.52499999999998 0 0 -1 -1.4210854715202004e-013 -101.59999999999985 0 1 I I #
point $-1 -1 $-1 107.94999999999999 -209.54999999999995 -136.52499999999998 #
straight-curve $-1 -1 $-1 209.54999999999998 -209.54999999999995 0 0 0 -1 I I #
point $-1 -1 $-1 209.54999999999998 -209.54999999999995 136.52499999999998 #
point $-1 -1 $-1 209.54999999999998 -209.54999999999995 -136.52499999999998 #
straight-curve $-1 -1 $-1 -209.54999999999998 209.54999999999995 0 0 0 -1 I I #
point $-1 -1 $-1 -209.54999999999998 209.54999999999995 136.52499999999998 #
point $-1 -1 $-1 -209.54999999999998 209.54999999999995 -136.52499999999998 #
coedge $-1 -1 $-1 $578 $541 $544 $569 forward $550 $-1 #
coedge $-1 -1 $-1 $541 $578 $543 $568 reversed $550 $-1 #
ellipse-curve $-1 -1 $-1 0 0 104.90199999999999 0 0 1 76.199999999999989 0 0 1 I I #
coedge $-1 -1 $-1 $544 $543 $579 $580 reversed $506 $-1 #
edge $-1 -1 $-1 $546 0 $581 1.25 $565 $582 forward @7 unknown #
edge $-1 -1 $-1 $545 0 $583 1.25 $564 $584 forward @7 unknown #
point $-1 -1 $-1 -76.199999999999989 0 104.90199999999999 #
point $-1 -1 $-1 76.199999999999989 0 104.90199999999999 #
model_id-kcp-attrib $-1 -1 $-1 $-1 $549 1 1021400385 1021400385 1707016193 14 #
face $585 -1 $-1 $586 $587 $7 $-1 $588 forward single #
loop $-1 -1 $-1 $589 $590 $549 #
plane-surface $-1 -1 $-1 0 0 136.65199999999999 0 0 1 25.399999999999999 0 0 forward_v I I I I #
straight-curve $-1 -1 $-1 107.95000000000012 -209.54999999999995 -136.52499999999998 0 0 -1 I I #
point $-1 -1 $-1 107.94999999999999 -209.54999999999995 136.52499999999998 #
coedge $-1 -1 $-1 $565 $564 $591 $592 reversed $550 $-1 #
coedge $-1 -1 $-1 $591 $591 $567 $580 forward $589 $-1 #
edge $-1 -1 $-1 $583 0 $581 3.1415926535897931 $567 $593 forward @7 unknown #
vertex $-1 -1 $-1 $592 $594 #
straight-curve $-1 -1 $-1 76.199999999999989 0 104.90199999999999 0 0 25.399999999999999 I I #
vertex $-1 -1 $-1 $592 $595 #
straight-curve $-1 -1 $-1 -76.199999999999989 9.3315004161265141e-015 104.90199999999999 0 0 25.399999999999999 I I #
model_id-kcp-attrib $-1 -1 $-1 $-1 $573 1 1021400385 1021400385 1707016193 15 #
face $596 -1 $-1 $597 $598 $7 $-1 $599 forward single #
loop $-1 -1 $-1 $-1 $600 $573 #
cone-surface $-1 -1 $-1 0 0 136.65199999999999 0 0 1 101.59999999999999 0 0 1 I I 0 1 101.59999999999999 forward I I I I #
loop $-1 -1 $-1 $-1 $579 $549 #
coedge $-1 -1 $-1 $601 $601 $602 $603 reversed $574 $-1 #
coedge $-1 -1 $-1 $579 $579 $578 $592 forward $589 $-1 #
edge $-1 -1 $-1 $581 0 $583 3.1415926535897931 $578 $604 forward @7 unknown #
ellipse-curve $-1 -1 $-1 -2.8199664825478975e-015 2.8199664825478975e-015 136.65199999999999 0 0 1 -76.199999999999989 -2.8199664825478975e-015 0 1 I I #
point $-1 -1 $-1 76.199999999999989 0 136.65199999999999 #
point $-1 -1 $-1 -76.199999999999989 0 136.65199999999999 #
model_id-kcp-attrib $-1 -1 $-1 $-1 $586 1 1021400385 1021400385 1707016193 16 #
face $605 -1 $-1 $-1 $606 $7 $-1 $607 forward single #
loop $-1 -1 $-1 $-1 $608 $586 #
cone-surface $-1 -1 $-1 0 0 136.65199999999999 0 0 1 101.59999999999999 0 0 1 I I 0 1 101.59999999999999 forward I I I I #
coedge $-1 -1 $-1 $609 $602 $610 $611 forward $587 $-1 #
coedge $-1 -1 $-1 $590 $590 $612 $613 reversed $574 $-1 #
coedge $-1 -1 $-1 $600 $614 $590 $603 forward $587 $-1 #
edge $-1 -1 $-1 $615 0 $616 3.1415926535897931 $590 $617 forward @7 unknown #
ellipse-curve $-1 -1 $-1 2.8199664825478975e-015 0 136.65199999999999 0 0 1 76.199999999999989 0 0 1 I I #
model_id-kcp-attrib $-1 -1 $-1 $-1 $597 1 1021400385 1021400385 1707016193 17 #
loop $-1 -1 $-1 $-1 $618 $597 #
plane-surface $-1 -1 $-1 0 0 168.148 0 0 1 25.399999999999999 0 0 forward_v I I I I #
coedge $-1 -1 $-1 $619 $612 $614 $620 forward $598 $-1 #
coedge $-1 -1 $-1 $614 $600 $618 $621 reversed $587 $-1 #
coedge $-1 -1 $-1 $612 $619 $600 $611 reversed $598 $-1 #
edge $-1 -1 $-1 $616 0 $622 1.2400000000000004 $610 $623 forward @7 unknown #
coedge $-1 -1 $-1 $608 $610 $601 $613 forward $598 $-1 #
edge $-1 -1 $-1 $616 0 $615 3.1415926535897931 $601 $624 forward @7 unknown #
coedge $-1 -1 $-1 $602 $609 $608 $620 reversed $587 $-1 #
vertex $-1 -1 $-1 $613 $625 #
vertex $-1 -1 $-1 $613 $626 #
ellipse-curve $-1 -1 $-1 0 0 136.65199999999999 0 0 1 -101.59999999999999 0 0 1 I I #
coedge $-1 -1 $-1 $627 $627 $609 $621 forward $606 $-1 #
coedge $-1 -1 $-1 $610 $608 $627 $628 reversed $598 $-1 #
edge $-1 -1 $-1 $615 0 $629 1.2400000000000004 $608 $630 forward @7 unknown #
edge $-1 -1 $-1 $629 0 $622 3.1415926535897931 $618 $631 forward @7 unknown #
vertex $-1 -1 $-1 $628 $632 #
straight-curve $-1 -1 $-1 101.59999999999999 0 136.65199999999999 0 0 25.399999999999999 I I #
ellipse-curve $-1 -1 $-1 0 0 136.65199999999999 0 0 1 101.59999999999999 0 0 1 I I #
point $-1 -1 $-1 -101.59999999999999 0 136.65199999999999 #
point $-1 -1 $-1 101.59999999999999 0 136.65199999999999 #
coedge $-1 -1 $-1 $618 $618 $619 $628 forward $606 $-1 #
edge $-1 -1 $-1 $622 0 $629 3.1415926535897931 $627 $633 forward @7 unknown #
vertex $-1 -1 $-1 $628 $634 #
straight-curve $-1 -1 $-1 -101.59999999999999 1.2442000554835353e-014 136.65199999999999 0 0 25.399999999999999 I I #
ellipse-curve $-1 -1 $-1 0 0 168.148 0 0 1 -101.59999999999999 0 0 1 I I #
point $-1 -1 $-1 101.59999999999999 0 168.148 #
ellipse-curve $-1 -1 $-1 0 0 168.148 0 0 1 101.59999999999999 0 0 1 I I #
point $-1 -1 $-1 -101.59999999999999 0 168.148 #
End-of-ACIS-data 