600 0 1 0           
109 GICL Pro/E ACIS Translator - Source: f:/data5/repository/NIST/Manfred_Osti/suitcase/pump220/pump220.prt - 6 0 13 ACIS 6.0.3 NT 24 Thu Apr 04 13:52:29 2002 
1 9.9999999999999995e-007 1e-010 
body $-1 $1 $-1 $2 #
lump $-1 $-1 $3 $0 #
transform $-1 1 0 0 0 1 0 0 0 1 0 0 0 25.399999999999999 no_rotate no_reflect no_shear #
shell $-1 $-1 $-1 $4 $-1 $1 #
face $-1 $5 $6 $3 $-1 $7 reversed single #
face $-1 $8 $9 $3 $-1 $10 forward single #
loop $-1 $-1 $11 $4 #
plane-surface $-1 0 0 -4.1299999999999999 0 0 1 1 0 0 forward_v I I I I #
face $-1 $12 $13 $3 $-1 $14 forward single #
loop $-1 $-1 $15 $5 #
plane-surface $-1 4.25 8.0999999999999996 -4.1299999999999999 0 1 0 -1 0 0 forward_v I I I I #
coedge $-1 $16 $17 $18 $19 reversed $6 $-1 #
face $-1 $20 $21 $3 $-1 $22 forward single #
loop $-1 $-1 $23 $8 #
cone-surface $-1 -4.25 4.0999999999999996 -4.1299999999999999 0 0 1 4 0 0 1 I I 0 1 4 forward I I I I #
coedge $-1 $24 $18 $25 $26 forward $9 $-1 #
coedge $-1 $27 $11 $28 $29 reversed $6 $-1 #
coedge $-1 $11 $30 $31 $32 reversed $6 $-1 #
coedge $-1 $15 $33 $11 $19 forward $9 $-1 #
edge $-1 $34 0 $35 8.5 $11 $36 forward 7 unknown #
face $-1 $37 $38 $3 $-1 $39 forward single #
loop $-1 $-1 $40 $12 #
plane-surface $-1 -8.25 4.0999999999999996 -4.1299999999999999 -1 0 0 0 -1 0 forward_v I I I I #
coedge $-1 $41 $31 $42 $43 forward $13 $-1 #
coedge $-1 $33 $15 $44 $45 reversed $9 $-1 #
coedge $-1 $31 $41 $15 $26 reversed $13 $-1 #
edge $-1 $35 0 $46 8.2599999999999998 $25 $47 forward 7 unknown #
coedge $-1 $48 $16 $49 $50 reversed $6 $-1 #
coedge $-1 $51 $52 $16 $29 forward $53 $-1 #
edge $-1 $54 0 $34 1.5707963267948966 $16 $55 forward 7 unknown #
coedge $-1 $17 $56 $57 $58 reversed $6 $-1 #
coedge $-1 $23 $25 $17 $32 forward $13 $-1 #
edge $-1 $35 0 $59 1.5707963267948966 $17 $60 forward 7 unknown #
coedge $-1 $18 $24 $51 $61 reversed $9 $-1 #
vertex $-1 $29 $62 #
vertex $-1 $32 $63 #
straight-curve $-1 4.25 8.0999999999999996 -4.1299999999999999 -1 0 0 I I #
face $-1 $64 $65 $3 $-1 $66 forward single #
loop $-1 $-1 $67 $20 #
cone-surface $-1 -4.25 -4.3999999999999995 -4.1299999999999999 0 0 1 4 0 0 1 I I 0 1 4 forward I I I I #
coedge $-1 $68 $57 $69 $70 forward $21 $-1 #
coedge $-1 $25 $23 $71 $72 reversed $13 $-1 #
coedge $-1 $57 $68 $23 $43 reversed $21 $-1 #
edge $-1 $59 9.5503741552180606e-032 $73 8.2599999999999998 $23 $74 forward 7 unknown #
coedge $-1 $71 $75 $24 $45 forward $76 $-1 #
edge $-1 $77 0 $46 8.5 $44 $78 forward 7 unknown #
vertex $-1 $72 $79 #
straight-curve $-1 -4.25 8.0999999999999996 -4.1299999999999999 0 0 1 I I #
coedge $-1 $80 $27 $81 $82 reversed $6 $-1 #
coedge $-1 $83 $84 $27 $50 forward $85 $-1 #
edge $-1 $86 0 $54 8.5 $27 $87 forward 7 unknown #
coedge $-1 $88 $28 $33 $61 forward $53 $-1 #
coedge $-1 $28 $88 $83 $89 reversed $53 $-1 #
loop $-1 $-1 $51 $90 #
vertex $-1 $50 $91 #
ellipse-curve $-1 4.25 4.0999999999999996 -4.1299999999999999 0 0 1 4 0 0 1 I I #
coedge $-1 $30 $80 $92 $93 reversed $6 $-1 #
coedge $-1 $40 $42 $30 $58 forward $21 $-1 #
edge $-1 $59 0 $94 8.5 $30 $95 forward 7 unknown #
vertex $-1 $32 $96 #
ellipse-curve $-1 -4.25 4.0999999999999996 -4.1299999999999999 0 0 1 0 4 0 1 I I #
edge $-1 $34 0 $77 8.2599999999999998 $51 $97 forward 7 unknown #
point $-1 4.25 8.0999999999999996 -4.1299999999999999 #
point $-1 -4.25 8.0999999999999996 -4.1299999999999999 #
face $-1 $98 $99 $3 $-1 $100 forward single #
loop $-1 $-1 $101 $37 #
plane-surface $-1 -4.25 -8.3999999999999986 -4.1299999999999999 0 -1 0 1 0 0 forward_v I I I I #
coedge $-1 $102 $92 $103 $104 forward $38 $-1 #
coedge $-1 $42 $40 $105 $106 reversed $21 $-1 #
coedge $-1 $92 $102 $40 $70 reversed $38 $-1 #
edge $-1 $94 0 $107 8.2599999999999998 $40 $108 forward 7 unknown #
coedge $-1 $105 $44 $41 $72 forward $76 $-1 #
edge $-1 $46 0 $73 1.5707963267948966 $71 $109 forward 7 unknown #
vertex $-1 $72 $110 #
straight-curve $-1 -8.25 4.1000000000000005 -4.1299999999999999 0 -1.0752765371672218e-016 1 I I #
coedge $-1 $44 $111 $88 $112 forward $76 $-1 #
loop $-1 $113 $105 $114 #
vertex $-1 $45 $115 #
straight-curve $-1 4.25 8.0999999999999996 4.1299999999999999 -1 0 0 I I #
point $-1 -4.25 8.0999999999999996 4.1299999999999999 #
coedge $-1 $56 $48 $116 $117 reversed $6 $-1 #
coedge $-1 $118 $119 $48 $82 forward $99 $-1 #
edge $-1 $120 0 $86 1.5707963267948966 $48 $121 forward 7 unknown #
coedge $-1 $122 $49 $52 $89 forward $85 $-1 #
coedge $-1 $49 $122 $118 $123 reversed $85 $-1 #
loop $-1 $-1 $83 $98 #
vertex $-1 $82 $124 #
straight-curve $-1 8.25 -4.3999999999999995 -4.1299999999999999 0 1 0 I I #
coedge $-1 $52 $51 $75 $112 reversed $53 $-1 #
edge $-1 $54 0 $125 8.2599999999999998 $83 $126 forward 7 unknown #
face $-1 $114 $53 $3 $-1 $127 forward single #
point $-1 8.25 4.0999999999999996 -4.1299999999999999 #
coedge $-1 $67 $69 $56 $93 forward $38 $-1 #
edge $-1 $94 0 $128 1.5707963267948966 $56 $129 forward 7 unknown #
vertex $-1 $58 $130 #
straight-curve $-1 -8.25 4.0999999999999996 -4.1299999999999999 0 -1 0 I I #
point $-1 -8.25 4.0999999999999996 -4.1299999999999999 #
straight-curve $-1 4.25 8.0999999999999996 -4.1299999999999999 0 0 1 I I #
face $-1 $90 $85 $3 $-1 $131 forward single #
loop $-1 $-1 $118 $64 #
cone-surface $-1 4.25 -4.3999999999999995 -4.1299999999999999 0 0 1 4 0 0 1 I I 0 1 4 forward I I I I #
coedge $-1 $132 $116 $119 $133 forward $65 $-1 #
coedge $-1 $69 $67 $134 $135 reversed $38 $-1 #
coedge $-1 $116 $132 $67 $104 reversed $65 $-1 #
edge $-1 $128 9.5503741552180606e-032 $136 8.2599999999999998 $67 $137 forward 7 unknown #
coedge $-1 $134 $71 $68 $106 forward $76 $-1 #
edge $-1 $73 0 $107 8.4999999999999982 $105 $138 forward 7 unknown #
vertex $-1 $135 $139 #
straight-curve $-1 -8.25 -4.3999999999999986 -4.1299999999999999 0 0 1 I I #
ellipse-curve $-1 -4.25 4.0999999999999996 4.1299999999999999 0 0 1 0 4 0 1 I I #
point $-1 -8.25 4.0999999999999996 4.1299999999999999 #
coedge $-1 $75 $140 $122 $141 forward $76 $-1 #
edge $-1 $125 0 $77 1.5707963267948957 $75 $142 forward 7 unknown #
loop $-1 $-1 $143 $114 #
face $-1 $144 $76 $3 $-1 $145 forward single #
point $-1 4.25 8.0999999999999996 4.1299999999999999 #
coedge $-1 $101 $103 $80 $117 forward $65 $-1 #
edge $-1 $128 0 $120 8.5 $80 $146 forward 7 unknown #
coedge $-1 $147 $81 $84 $123 forward $99 $-1 #
coedge $-1 $81 $147 $101 $133 reversed $99 $-1 #
vertex $-1 $117 $148 #
ellipse-curve $-1 4.25 -4.3999999999999995 -4.1299999999999999 0 0 1 0 -3.9999999999999991 0 1 I I #
coedge $-1 $84 $83 $111 $141 reversed $85 $-1 #
edge $-1 $86 0 $149 8.2599999999999998 $118 $150 forward 7 unknown #
point $-1 8.25 -4.3999999999999995 -4.1299999999999999 #
vertex $-1 $112 $151 #
straight-curve $-1 8.25 4.1000000000000005 -4.1299999999999999 0 0 1 I I #
cone-surface $-1 4.25 4.0999999999999996 -4.1299999999999999 0 0 1 4 0 0 1 I I 0 1 4 forward I I I I #
vertex $-1 $93 $152 #
ellipse-curve $-1 -4.25 -4.3999999999999995 -4.1299999999999999 0 0 1 -4 0 0 1 I I #
point $-1 -8.25 -4.3999999999999995 -4.1299999999999999 #
plane-surface $-1 8.25 -4.3999999999999995 -4.1299999999999999 1 0 0 0 1 0 forward_v I I I I #
coedge $-1 $103 $101 $153 $154 reversed $65 $-1 #
edge $-1 $120 0 $155 8.2599999999999998 $101 $156 forward 7 unknown #
coedge $-1 $153 $105 $102 $135 forward $76 $-1 #
edge $-1 $107 -2.2204460492503141e-016 $136 1.5707963267948988 $134 $157 forward 7 unknown #
vertex $-1 $154 $158 #
straight-curve $-1 -4.2500000000000009 -8.3999999999999986 -4.1299999999999999 1.0752765371672218e-016 0 1 I I #
straight-curve $-1 -8.25 4.0999999999999996 4.1299999999999999 0 -1 0 I I #
point $-1 -8.25 -4.3999999999999986 4.1299999999999999 #
coedge $-1 $111 $153 $147 $159 forward $76 $-1 #
edge $-1 $149 0 $125 8.5 $111 $160 forward 7 unknown #
ellipse-curve $-1 4.2499999999999982 4.0999999999999979 4.1299999999999999 0 0 1 4.0000000000000018 1.7763568394002505e-015 0 1 I I #
coedge $-1 $161 $161 $162 $163 reversed $113 $-1 #
face $-1 $164 $165 $3 $-1 $166 forward single #
plane-surface $-1 0 0 4.1299999999999999 0 0 1 1 0 0 forward_v I I I I #
straight-curve $-1 -4.25 -8.3999999999999986 -4.1299999999999999 1 0 0 I I #
coedge $-1 $119 $118 $140 $159 reversed $99 $-1 #
point $-1 4.25 -8.3999999999999986 -4.1299999999999999 #
vertex $-1 $141 $167 #
straight-curve $-1 8.25 -4.3999999999999995 -4.1299999999999999 0 0 1 I I #
point $-1 8.25 4.0999999999999996 4.1299999999999999 #
point $-1 -4.25 -8.3999999999999986 -4.1299999999999999 #
coedge $-1 $140 $134 $132 $154 forward $76 $-1 #
edge $-1 $136 0 $155 8.5 $153 $168 forward 7 unknown #
vertex $-1 $159 $169 #
straight-curve $-1 4.25 -8.3999999999999986 -4.1299999999999999 0 0 1 I I #
ellipse-curve $-1 -4.2500000000000044 -4.4000000000000039 4.1299999999999999 0 0 1 -3.9999999999999956 4.4408920985006262e-015 0 1 I I #
point $-1 -4.25 -8.3999999999999986 4.1299999999999999 #
edge $-1 $155 -2.220446049250317e-016 $149 1.570796326794899 $140 $170 forward 7 unknown #
straight-curve $-1 8.25 -4.3999999999999995 4.1299999999999999 0 1 0 I I #
coedge $-1 $143 $143 $171 $172 reversed $113 $-1 #
coedge $-1 $173 $174 $143 $163 forward $165 $-1 #
edge $-1 $175 0 $176 3.1415926535897931 $143 $177 forward 7 unknown #
face $-1 $178 $179 $3 $-1 $180 forward single #
loop $-1 $-1 $174 $144 #
cone-surface $-1 0 0 4.1299999999999999 0 0 1 3 0 0 1 I I 0 1 3 forward I I I I #
point $-1 8.25 -4.3999999999999995 4.1299999999999999 #
straight-curve $-1 -4.25 -8.3999999999999986 4.1299999999999999 1 0 0 I I #
point $-1 4.2499999999999991 -8.3999999999999986 4.1299999999999999 #
ellipse-curve $-1 4.2500000000000053 -4.4000000000000039 4.1299999999999999 0 0 1 -5.3290705182007514e-015 -3.9999999999999947 0 1 I I #
coedge $-1 $181 $182 $161 $172 forward $179 $-1 #
edge $-1 $176 0 $175 3.1415926535897931 $161 $183 forward 7 unknown #
coedge $-1 $184 $162 $182 $185 forward $165 $-1 #
coedge $-1 $162 $184 $181 $186 reversed $165 $-1 #
vertex $-1 $172 $187 #
vertex $-1 $172 $188 #
ellipse-curve $-1 0 0 4.1299999999999999 0 0 1 -3 0 0 1 I I #
face $-1 $189 $190 $3 $-1 $191 reversed single #
loop $-1 $-1 $182 $164 #
cone-surface $-1 0 0 4.1299999999999999 0 0 1 3 0 0 1 I I 0 1 3 forward I I I I #
coedge $-1 $192 $171 $174 $186 forward $179 $-1 #
coedge $-1 $171 $192 $173 $185 reversed $179 $-1 #
ellipse-curve $-1 0 0 4.1299999999999999 0 0 1 3 0 0 1 I I #
coedge $-1 $174 $173 $193 $194 reversed $165 $-1 #
edge $-1 $176 0 $195 1.25 $182 $196 forward 7 unknown #
edge $-1 $175 0 $197 1.25 $181 $198 forward 7 unknown #
point $-1 -3 0 4.1299999999999999 #
point $-1 3 0 4.1299999999999999 #
face $-1 $199 $200 $3 $-1 $201 forward single #
loop $-1 $202 $203 $178 #
plane-surface $-1 0 0 5.3799999999999999 0 0 1 1 0 0 forward_v I I I I #
coedge $-1 $182 $181 $204 $205 reversed $179 $-1 #
coedge $-1 $204 $204 $184 $194 forward $202 $-1 #
edge $-1 $197 0 $195 3.1415926535897931 $184 $206 forward 7 unknown #
vertex $-1 $205 $207 #
straight-curve $-1 3 0 4.1299999999999999 0 0 1 I I #
vertex $-1 $205 $208 #
straight-curve $-1 -3 3.6738190614671318e-016 4.1299999999999999 0 0 1 I I #
face $-1 $209 $210 $3 $-1 $211 forward single #
loop $-1 $-1 $212 $189 #
cone-surface $-1 0 0 5.3799999999999999 0 0 1 4 0 0 1 I I 0 1 4 forward I I I I #
loop $-1 $-1 $193 $178 #
coedge $-1 $213 $213 $214 $215 reversed $190 $-1 #
coedge $-1 $193 $193 $192 $205 forward $202 $-1 #
edge $-1 $195 0 $197 3.1415926535897931 $192 $216 forward 7 unknown #
ellipse-curve $-1 -1.1102230246251565e-016 1.1102230246251565e-016 5.3799999999999999 0 0 1 -3 -1.1102230246251565e-016 0 1 I I #
point $-1 3 0 5.3799999999999999 #
point $-1 -3 0 5.3799999999999999 #
face $-1 $-1 $217 $3 $-1 $218 forward single #
loop $-1 $-1 $219 $199 #
cone-surface $-1 0 0 5.3799999999999999 0 0 1 4 0 0 1 I I 0 1 4 forward I I I I #
coedge $-1 $220 $214 $221 $222 forward $200 $-1 #
coedge $-1 $203 $203 $223 $224 reversed $190 $-1 #
coedge $-1 $212 $225 $203 $215 forward $200 $-1 #
edge $-1 $226 0 $227 3.1415926535897931 $203 $228 forward 7 unknown #
ellipse-curve $-1 1.1102230246251565e-016 0 5.3799999999999999 0 0 1 3 0 0 1 I I #
loop $-1 $-1 $229 $209 #
plane-surface $-1 0 0 6.6200000000000001 0 0 1 1 0 0 forward_v I I I I #
coedge $-1 $230 $223 $225 $231 forward $210 $-1 #
coedge $-1 $225 $212 $229 $232 reversed $200 $-1 #
coedge $-1 $223 $230 $212 $222 reversed $210 $-1 #
edge $-1 $227 0 $233 1.2400000000000002 $221 $234 forward 7 unknown #
coedge $-1 $219 $221 $213 $224 forward $210 $-1 #
edge $-1 $227 0 $226 3.1415926535897931 $213 $235 forward 7 unknown #
coedge $-1 $214 $220 $219 $231 reversed $200 $-1 #
vertex $-1 $224 $236 #
vertex $-1 $224 $237 #
ellipse-curve $-1 0 0 5.3799999999999999 0 0 1 -4 0 0 1 I I #
coedge $-1 $238 $238 $220 $232 forward $217 $-1 #
coedge $-1 $221 $219 $238 $239 reversed $210 $-1 #
edge $-1 $226 0 $240 1.2400000000000002 $219 $241 forward 7 unknown #
edge $-1 $240 0 $233 3.1415926535897931 $229 $242 forward 7 unknown #
vertex $-1 $239 $243 #
straight-curve $-1 4 0 5.3799999999999999 0 0 1 I I #
ellipse-curve $-1 0 0 5.3799999999999999 0 0 1 4 0 0 1 I I #
point $-1 -4 0 5.3799999999999999 #
point $-1 4 0 5.3799999999999999 #
coedge $-1 $229 $229 $230 $239 forward $217 $-1 #
edge $-1 $233 0 $240 3.1415926535897931 $238 $244 forward 7 unknown #
vertex $-1 $239 $245 #
straight-curve $-1 -4 4.898425415289509e-016 5.3799999999999999 0 0 1 I I #
ellipse-curve $-1 0 0 6.6200000000000001 0 0 1 -4 0 0 1 I I #
point $-1 4 0 6.6200000000000001 #
ellipse-curve $-1 0 0 6.6200000000000001 0 0 1 4 0 0 1 I I #
point $-1 -4 0 6.6200000000000001 #
End-of-ACIS-data 