700 0 2 0           
24 FBMach with ACIS - 7.0.3 13 ACIS 7.0.3 NT 24 Tue May 14 14:19:44 2002 
1 9.9999999999999995e-007 1e-010 
body $2 -1 $-1 $3 $-1 $4 #
bdycol-kcp $-1 -1 1 2 $5 $6 #
model_id-kcp-attrib $-1 -1 $-1 $-1 $0 1 1021400383 1021400383 1808072705 1 #
lump $-1 -1 $-1 $-1 $7 $0 #
transform $-1 -1 1 0 0 0 1 0 0 0 1 0 0 0 1 rotate no_reflect no_shear #
body $8 -1 $-1 $9 $-1 $10 #
body $11 -1 $-1 $12 $-1 $13 #
shell $-1 -1 $-1 $-1 $-1 $14 $-1 $3 #
model_id-kcp-attrib $-1 -1 $-1 $-1 $5 1 1021400383 1021400383 1808072706 1 #
lump $-1 -1 $-1 $-1 $15 $5 #
transform $-1 -1 1 0 0 0 1 0 0 0 1 0 -0.15000000000000036 1.2450000000000001 1 no_rotate no_reflect no_shear #
rgb_color-st-attrib $-1 -1 $16 $-1 $6 0.5 1 1 #
lump $-1 -1 $-1 $17 $18 $6 #
transform $-1 -1 1 0 0 0 1 0 0 0 1 0 -0.15000000000000036 1.2450000000000001 1 no_rotate no_reflect no_shear #
face $19 -1 $-1 $20 $21 $7 $-1 $22 reversed single #
shell $-1 -1 $-1 $-1 $-1 $23 $-1 $9 #
model_id-kcp-attrib $-1 -1 $-1 $11 $6 1 1021400383 1021400384 1802043395 1 #
lump $-1 -1 $-1 $24 $25 $6 #
shell $-1 -1 $-1 $-1 $-1 $26 $-1 $12 #
model_id-kcp-attrib $-1 -1 $-1 $-1 $14 1 1021400383 1021400383 1808072705 2 #
face $27 -1 $-1 $28 $29 $7 $-1 $30 forward single #
loop $-1 -1 $-1 $-1 $31 $14 #
plane-surface $-1 -1 $-1 0 0 -4.1299999999999999 0 0 1 1 0 0 forward_v I I I I #
face $32 -1 $-1 $33 $34 $15 $-1 $35 forward single #
lump $-1 -1 $-1 $36 $37 $6 #
shell $-1 -1 $-1 $-1 $-1 $38 $-1 $17 #
face $-1 -1 $-1 $39 $40 $18 $-1 $41 reversed single #
model_id-kcp-attrib $-1 -1 $-1 $-1 $20 1 1021400383 1021400383 1808072705 3 #
face $42 -1 $-1 $43 $44 $7 $-1 $45 forward single #
loop $-1 -1 $-1 $46 $47 $20 #
plane-surface $-1 -1 $-1 0 0 4.1299999999999999 0 0 1 1 0 0 forward_v I I I I #
coedge $-1 -1 $-1 $48 $49 $50 $51 forward $21 $-1 #
model_id-kcp-attrib $-1 -1 $-1 $-1 $23 1 1021400383 1021400383 1808072706 7 #
face $52 -1 $-1 $53 $54 $15 $-1 $55 reversed single #
loop $-1 -1 $-1 $-1 $56 $23 #
plane-surface $-1 -1 $-1 0 0 5.375 0 0 1 1 0 0 forward_v I I I I #
lump $-1 -1 $-1 $-1 $57 $6 #
shell $-1 -1 $-1 $-1 $-1 $58 $-1 $24 #
face $-1 -1 $-1 $59 $60 $25 $-1 $61 reversed single #
face $-1 -1 $-1 $62 $63 $18 $-1 $64 reversed single #
loop $-1 -1 $-1 $-1 $65 $26 #
cone-surface $-1 -1 $-1 -4.25 -4.25 -5.375 0 0 -1 0 -4 0 1 I I 0 1 4 forward I I I I #
model_id-kcp-attrib $-1 -1 $-1 $-1 $28 1 1021400383 1021400383 1808072705 4 #
face $66 -1 $-1 $67 $68 $7 $-1 $69 forward single #
loop $-1 -1 $-1 $-1 $50 $28 #
cone-surface $-1 -1 $-1 -4.25 4.0999999999999996 -4.1299999999999999 0 0 1 4 0 0 1 I I 0 1 4 forward I I I I #
loop $-1 -1 $-1 $-1 $70 $20 #
coedge $-1 -1 $-1 $71 $72 $73 $74 reversed $29 $-1 #
coedge $-1 -1 $-1 $75 $31 $76 $77 forward $21 $-1 #
coedge $-1 -1 $-1 $31 $78 $79 $80 forward $21 $-1 #
coedge $-1 -1 $-1 $81 $82 $31 $51 reversed $44 $-1 #
edge $83 -1 $-1 $84 -1.5707963267948966 $85 0 $50 $86 forward @7 unknown #
model_id-kcp-attrib $-1 -1 $-1 $-1 $33 1 1021400383 1021400383 1808072706 2 #
face $87 -1 $-1 $88 $89 $15 $-1 $90 reversed single #
loop $-1 -1 $-1 $-1 $91 $33 #
plane-surface $-1 -1 $-1 0 0 -5.375 0 0 1 1 0 0 forward_v I I I I #
coedge $-1 -1 $-1 $92 $93 $94 $95 forward $34 $-1 #
shell $-1 -1 $-1 $-1 $-1 $96 $-1 $36 #
face $-1 -1 $-1 $97 $98 $37 $-1 $99 reversed single #
face $-1 -1 $-1 $100 $101 $25 $-1 $102 reversed single #
loop $-1 -1 $-1 $-1 $103 $38 #
plane-surface $-1 -1 $-1 0 8.25 0 0 -1 0 0 0 -1 forward_v I I I I #
face $-1 -1 $-1 $104 $105 $18 $-1 $106 forward single #
loop $-1 -1 $-1 $-1 $107 $39 #
plane-surface $-1 -1 $-1 -8.25 0 0 1 0 0 0 0 -1 forward_v I I I I #
coedge $-1 -1 $-1 $108 $109 $110 $111 reversed $40 $-1 #
model_id-kcp-attrib $-1 -1 $-1 $-1 $43 1 1021400383 1021400383 1808072705 5 #
face $112 -1 $-1 $113 $114 $7 $-1 $115 forward single #
loop $-1 -1 $-1 $-1 $79 $43 #
plane-surface $-1 -1 $-1 -8.25 4.0999999999999996 -4.1299999999999999 -1 0 0 0 0 1 forward_v I I I I #
coedge $-1 -1 $-1 $70 $70 $116 $117 forward $46 $-1 #
coedge $-1 -1 $-1 $118 $47 $119 $120 reversed $29 $-1 #
coedge $-1 -1 $-1 $47 $121 $122 $123 reversed $29 $-1 #
coedge $-1 -1 $-1 $82 $81 $47 $74 forward $44 $-1 #
edge $-1 -1 $-1 $124 -1.5707963267948966 $125 0 $73 $126 forward @7 unknown #
coedge $-1 -1 $-1 $127 $48 $128 $129 forward $21 $-1 #
coedge $-1 -1 $-1 $130 $131 $48 $77 reversed $132 $-1 #
edge $133 -1 $-1 $85 -8.5 $134 0 $76 $135 forward @7 unknown #
coedge $-1 -1 $-1 $49 $136 $137 $138 forward $21 $-1 #
coedge $-1 -1 $-1 $139 $140 $49 $80 reversed $68 $-1 #
edge $141 -1 $-1 $142 -8.5 $84 0 $79 $143 forward @7 unknown #
coedge $-1 -1 $-1 $73 $50 $140 $144 reversed $44 $-1 #
coedge $-1 -1 $-1 $50 $73 $130 $145 forward $44 $-1 #
attrib_edge_convexity-kcp-attrib $-1 -1 $146 $-1 $51 1 #
vertex $-1 -1 $-1 $144 $147 #
vertex $-1 -1 $-1 $145 $148 #
ellipse-curve $-1 -1 $-1 -4.25 4.0999999999999996 -4.1299999999999999 0 0 -1 0 4 0 1 I I #
model_id-kcp-attrib $-1 -1 $-1 $-1 $53 1 1021400383 1021400383 1808072706 4 #
face $149 -1 $-1 $150 $151 $15 $-1 $152 reversed single #
loop $-1 -1 $-1 $-1 $153 $53 #
plane-surface $-1 -1 $-1 0 -8.25 0 0 1 0 0 0 1 forward_v I I I I #
coedge $-1 -1 $-1 $154 $155 $156 $157 forward $54 $-1 #
coedge $-1 -1 $-1 $158 $56 $159 $160 forward $34 $-1 #
coedge $-1 -1 $-1 $56 $158 $161 $162 forward $34 $-1 #
coedge $-1 -1 $-1 $163 $164 $56 $95 reversed $165 $-1 #
edge $-1 -1 $-1 $166 -8.25 $167 8.25 $94 $168 forward @7 unknown #
face $-1 -1 $-1 $169 $170 $57 $-1 $171 reversed single #
face $-1 -1 $-1 $172 $173 $37 $-1 $64 reversed single #
loop $-1 -1 $-1 $-1 $174 $58 #
cone-surface $-1 -1 $-1 -4.25 4.25 -5.375 0 0 -1 -4 0 0 1 I I 0 1 4 forward I I I I #
face $-1 -1 $-1 $175 $176 $25 $-1 $171 reversed single #
loop $-1 -1 $-1 $-1 $177 $59 #
plane-surface $-1 -1 $-1 0 0 -5.375 0 0 1 1 0 0 forward_v I I I I #
coedge $-1 -1 $-1 $178 $179 $180 $181 reversed $60 $-1 #
face $-1 -1 $-1 $182 $183 $18 $-1 $102 reversed single #
loop $-1 -1 $-1 $-1 $110 $62 #
plane-surface $-1 -1 $-1 0 0 5.375 0 0 1 1 0 0 forward_v I I I I #
coedge $-1 -1 $-1 $184 $185 $109 $186 forward $63 $-1 #
coedge $-1 -1 $-1 $187 $65 $188 $189 forward $40 $-1 #
coedge $-1 -1 $-1 $65 $187 $107 $186 reversed $40 $-1 #
coedge $-1 -1 $-1 $190 $191 $65 $111 forward $105 $-1 #
edge $-1 -1 $-1 $192 0 $193 1.5707963267948966 $110 $194 forward @7 unknown #
model_id-kcp-attrib $-1 -1 $-1 $-1 $67 1 1021400383 1021400383 1808072705 6 #
face $195 -1 $-1 $196 $197 $7 $-1 $198 forward single #
loop $-1 -1 $-1 $-1 $137 $67 #
cone-surface $-1 -1 $-1 -4.25 -4.4000000000000004 -4.1299999999999999 0 0 1 4 0 0 1 I I 0 1 4 forward I I I I #
coedge $-1 -1 $-1 $116 $116 $70 $117 reversed $199 $-1 #
edge $-1 -1 $-1 $200 -3.1415926535897931 $200 3.1415926535897931 $116 $201 forward @7 unknown #
coedge $-1 -1 $-1 $202 $71 $203 $204 reversed $29 $-1 #
coedge $-1 -1 $-1 $140 $139 $71 $120 forward $68 $-1 #
edge $205 -1 $-1 $206 -8.5 $124 0 $119 $207 forward @7 unknown #
coedge $-1 -1 $-1 $72 $208 $209 $210 reversed $29 $-1 #
coedge $-1 -1 $-1 $131 $130 $72 $123 forward $132 $-1 #
edge $211 -1 $-1 $125 -8.5 $212 0 $122 $213 forward @7 unknown #
vertex $-1 -1 $-1 $144 $214 #
vertex $-1 -1 $-1 $145 $215 #
ellipse-curve $-1 -1 $-1 -4.25 4.0999999999999996 4.1299999999999999 0 0 -1 0 4 0 1 I I #
coedge $-1 -1 $-1 $216 $75 $217 $218 forward $21 $-1 #
coedge $-1 -1 $-1 $219 $220 $75 $129 reversed $221 $-1 #
edge $222 -1 $-1 $134 -1.5707963267948966 $223 0 $128 $224 forward @7 unknown #
coedge $-1 -1 $-1 $122 $76 $82 $145 reversed $132 $-1 #
coedge $-1 -1 $-1 $76 $122 $219 $225 forward $132 $-1 #
loop $-1 -1 $-1 $-1 $76 $226 #
attrib_edge_convexity-kcp-attrib $-1 -1 $227 $-1 $77 1 #
vertex $-1 -1 $-1 $225 $228 #
straight-curve $-1 -1 $-1 4.25 8.0999999999999996 -4.1299999999999999 1 0 0 I I #
coedge $-1 -1 $-1 $78 $216 $229 $230 forward $21 $-1 #
coedge $-1 -1 $-1 $231 $232 $78 $138 reversed $114 $-1 #
edge $233 -1 $-1 $234 -1.5707963267948966 $142 0 $137 $235 forward @7 unknown #
coedge $-1 -1 $-1 $119 $79 $232 $236 reversed $68 $-1 #
coedge $-1 -1 $-1 $79 $119 $81 $144 forward $68 $-1 #
attrib_edge_convexity-kcp-attrib $-1 -1 $237 $-1 $80 1 #
vertex $-1 -1 $-1 $236 $238 #
straight-curve $-1 -1 $-1 -8.25 4.0999999999999996 -4.1299999999999999 0 1 0 I I #
edge $239 -1 $-1 $124 -8.2599999999999998 $84 0 $140 $240 forward @7 unknown #
edge $-1 -1 $-1 $125 -8.2599999999999998 $85 0 $130 $241 forward @7 unknown #
convexity-sys-attrib $-1 -1 $-1 $83 $51 #
point $-1 -1 $-1 -8.25 4.0999999999999996 -4.1299999999999999 #
point $-1 -1 $-1 -4.25 8.0999999999999996 -4.1299999999999999 #
model_id-kcp-attrib $-1 -1 $-1 $-1 $88 1 1021400383 1021400383 1808072706 3 #
face $242 -1 $-1 $243 $244 $15 $-1 $245 reversed single #
loop $-1 -1 $-1 $-1 $246 $88 #
plane-surface $-1 -1 $-1 -8.25 0 0 1 0 0 0 0 -1 forward_v I I I I #
coedge $-1 -1 $-1 $247 $161 $248 $249 forward $89 $-1 #
coedge $-1 -1 $-1 $250 $91 $247 $251 forward $54 $-1 #
coedge $-1 -1 $-1 $91 $250 $252 $253 forward $54 $-1 #
coedge $-1 -1 $-1 $164 $163 $91 $157 reversed $165 $-1 #
edge $-1 -1 $-1 $254 -8.25 $255 8.25 $156 $256 forward @7 unknown #
coedge $-1 -1 $-1 $93 $92 $257 $258 forward $34 $-1 #
coedge $-1 -1 $-1 $259 $260 $92 $160 reversed $244 $-1 #
edge $-1 -1 $-1 $167 -8.25 $261 8.25 $159 $262 forward @7 unknown #
coedge $-1 -1 $-1 $153 $263 $93 $162 reversed $89 $-1 #
edge $-1 -1 $-1 $264 -8.25 $166 8.25 $161 $265 forward @7 unknown #
coedge $-1 -1 $-1 $156 $94 $263 $266 forward $165 $-1 #
coedge $-1 -1 $-1 $94 $156 $259 $267 reversed $165 $-1 #
loop $-1 -1 $-1 $-1 $163 $243 #
vertex $-1 -1 $-1 $95 $268 #
vertex $-1 -1 $-1 $95 $269 #
straight-curve $-1 -1 $-1 8.25 0 5.375 0 1 0 I I #
face $-1 -1 $-1 $270 $271 $57 $-1 $102 reversed single #
loop $-1 -1 $-1 $-1 $272 $96 #
plane-surface $-1 -1 $-1 8.25 0 0 -1 0 0 0 0 1 forward_v I I I I #
face $-1 -1 $-1 $273 $274 $37 $-1 $106 forward single #
loop $-1 -1 $-1 $-1 $275 $97 #
coedge $-1 -1 $-1 $276 $277 $278 $279 reversed $98 $-1 #
face $-1 -1 $-1 $280 $281 $25 $-1 $106 forward single #
loop $-1 -1 $-1 $-1 $282 $100 #
coedge $-1 -1 $-1 $283 $284 $285 $286 forward $101 $-1 #
coedge $-1 -1 $-1 $287 $103 $288 $289 reversed $60 $-1 #
coedge $-1 -1 $-1 $103 $287 $283 $290 reversed $60 $-1 #
coedge $-1 -1 $-1 $285 $291 $103 $181 forward $292 $-1 #
edge $-1 -1 $-1 $293 -10.75 $294 0 $103 $295 forward @7 unknown #
face $-1 -1 $-1 $-1 $296 $18 $-1 $297 reversed single #
loop $-1 -1 $-1 $-1 $298 $104 #
coedge $-1 -1 $-1 $299 $107 $300 $301 reversed $63 $-1 #
coedge $-1 -1 $-1 $107 $299 $190 $302 reversed $63 $-1 #
edge $-1 -1 $-1 $193 -10.75 $303 0 $107 $304 forward @7 unknown #
coedge $-1 -1 $-1 $109 $108 $298 $305 reversed $40 $-1 #
coedge $-1 -1 $-1 $306 $307 $108 $189 reversed $296 $-1 #
edge $-1 -1 $-1 $192 -10.75 $308 0 $188 $309 forward @7 unknown #
coedge $-1 -1 $-1 $191 $110 $185 $302 forward $105 $-1 #
coedge $-1 -1 $-1 $110 $190 $306 $310 forward $105 $-1 #
vertex $-1 -1 $-1 $111 $311 #
vertex $-1 -1 $-1 $302 $312 #
ellipse-curve $-1 -1 $-1 -4.25 -4.25 5.375 0 0 -1 0 -4 0 1 I I #
model_id-kcp-attrib $-1 -1 $-1 $-1 $113 1 1021400383 1021400383 1808072705 7 #
face $313 -1 $-1 $314 $315 $7 $-1 $316 forward single #
loop $-1 -1 $-1 $-1 $229 $113 #
plane-surface $-1 -1 $-1 -4.25 -8.4000000000000004 -4.1299999999999999 0 -1 0 0 0 -1 forward_v I I I I #
loop $-1 -1 $-1 $317 $116 $318 #
vertex $-1 -1 $-1 $117 $319 #
ellipse-curve $-1 -1 $-1 0 0 4.1299999999999999 0 0 -1 -3 0 0 1 I I #
coedge $-1 -1 $-1 $320 $118 $321 $322 reversed $29 $-1 #
coedge $-1 -1 $-1 $232 $231 $118 $204 forward $114 $-1 #
edge $-1 -1 $-1 $323 -1.5707963267948966 $206 0 $203 $324 forward @7 unknown #
model_id-kcp-attrib $-1 -1 $325 $-1 $120 1 1021400383 1021400383 1808072705 19 #
vertex $-1 -1 $-1 $236 $326 #
straight-curve $-1 -1 $-1 -8.25 4.0999999999999996 4.1299999999999999 0 1 0 I I #
coedge $-1 -1 $-1 $121 $320 $327 $328 reversed $29 $-1 #
coedge $-1 -1 $-1 $220 $219 $121 $210 forward $221 $-1 #
edge $-1 -1 $-1 $212 -1.5707963267948966 $329 0 $209 $330 forward @7 unknown #
model_id-kcp-attrib $-1 -1 $-1 $-1 $123 1 1021400383 1021400383 1808072705 20 #
vertex $-1 -1 $-1 $225 $331 #
straight-curve $-1 -1 $-1 4.25 8.0999999999999996 4.1299999999999999 1 0 0 I I #
point $-1 -1 $-1 -8.25 4.0999999999999996 4.1299999999999999 #
point $-1 -1 $-1 -4.25 8.0999999999999996 4.1299999999999999 #
coedge $-1 -1 $-1 $136 $127 $332 $333 forward $21 $-1 #
coedge $-1 -1 $-1 $334 $335 $127 $218 reversed $336 $-1 #
edge $337 -1 $-1 $223 -8.5 $338 0 $217 $339 forward @7 unknown #
coedge $-1 -1 $-1 $209 $128 $131 $225 reversed $221 $-1 #
coedge $-1 -1 $-1 $128 $209 $334 $340 forward $221 $-1 #
loop $-1 -1 $-1 $-1 $128 $341 #
attrib_edge_convexity-kcp-attrib $-1 -1 $342 $-1 $129 1 #
vertex $-1 -1 $-1 $340 $343 #
ellipse-curve $-1 -1 $-1 4.25 4.0999999999999996 -4.1299999999999999 0 0 -1 4 0 0 1 I I #
edge $-1 -1 $-1 $212 -8.2599999999999998 $134 0 $131 $344 forward @7 unknown #
face $345 -1 $-1 $318 $132 $7 $-1 $346 forward single #
convexity-sys-attrib $-1 -1 $-1 $133 $77 #
point $-1 -1 $-1 4.25 8.0999999999999996 -4.1299999999999999 #
coedge $-1 -1 $-1 $347 $348 $136 $230 reversed $197 $-1 #
edge $349 -1 $-1 $350 -8.5 $234 0 $229 $351 forward @7 unknown #
coedge $-1 -1 $-1 $203 $137 $348 $352 reversed $114 $-1 #
coedge $-1 -1 $-1 $137 $203 $139 $236 forward $114 $-1 #
attrib_edge_convexity-kcp-attrib $-1 -1 $353 $-1 $138 1 #
vertex $-1 -1 $-1 $352 $354 #
ellipse-curve $-1 -1 $-1 -4.25 -4.4000000000000004 -4.1299999999999999 0 0 -1 -4 0 0 1 I I #
edge $355 -1 $-1 $206 -8.2599999999999998 $142 0 $232 $356 forward @7 unknown #
convexity-sys-attrib $-1 -1 $-1 $141 $80 #
point $-1 -1 $-1 -8.25 -4.4000000000000004 -4.1299999999999999 #
attrib_edge_convexity-kcp-attrib $-1 -1 $357 $-1 $144 3 #
straight-curve $-1 -1 $-1 -8.25 4.0999999999999996 -4.1299999999999999 0 0 -1 I I #
straight-curve $-1 -1 $-1 -4.25 8.0999999999999996 -4.1299999999999999 0 0 -1 I I #
model_id-kcp-attrib $-1 -1 $-1 $-1 $150 1 1021400383 1021400383 1808072706 6 #
face $358 -1 $-1 $-1 $165 $15 $-1 $359 reversed single #
loop $-1 -1 $-1 $-1 $259 $150 #
plane-surface $-1 -1 $-1 0 8.25 0 0 -1 0 0 0 -1 forward_v I I I I #
coedge $-1 -1 $-1 $360 $257 $260 $361 forward $151 $-1 #
coedge $-1 -1 $-1 $263 $153 $154 $251 reversed $89 $-1 #
coedge $-1 -1 $-1 $257 $360 $153 $249 reversed $151 $-1 #
edge $-1 -1 $-1 $264 -5.375 $362 5.375 $248 $363 forward @7 unknown #
coedge $-1 -1 $-1 $155 $154 $360 $364 forward $54 $-1 #
edge $-1 -1 $-1 $255 -8.25 $362 8.25 $247 $365 forward @7 unknown #
coedge $-1 -1 $-1 $260 $259 $155 $253 reversed $244 $-1 #
edge $-1 -1 $-1 $366 -8.25 $254 8.25 $252 $367 forward @7 unknown #
vertex $-1 -1 $-1 $157 $368 #
vertex $-1 -1 $-1 $266 $369 #
straight-curve $-1 -1 $-1 8.25 0 -5.375 0 -1 0 I I #
coedge $-1 -1 $-1 $246 $248 $158 $258 reversed $151 $-1 #
edge $-1 -1 $-1 $261 -8.25 $264 8.25 $257 $370 forward @7 unknown #
coedge $-1 -1 $-1 $252 $159 $164 $267 forward $244 $-1 #
coedge $-1 -1 $-1 $159 $252 $246 $361 reversed $244 $-1 #
vertex $-1 -1 $-1 $160 $371 #
straight-curve $-1 -1 $-1 0 8.25 5.375 -1 0 0 I I #
coedge $-1 -1 $-1 $161 $247 $163 $266 reversed $89 $-1 #
vertex $-1 -1 $-1 $258 $372 #
straight-curve $-1 -1 $-1 0 -8.25 5.375 1 0 0 I I #
edge $-1 -1 $-1 $166 -5.375 $255 5.375 $163 $373 forward @7 unknown #
edge $-1 -1 $-1 $167 -5.375 $254 5.375 $164 $374 forward @7 unknown #
point $-1 -1 $-1 8.25 -8.25 5.375 #
point $-1 -1 $-1 8.25 8.25 5.375 #
face $-1 -1 $-1 $375 $376 $57 $-1 $106 forward single #
loop $-1 -1 $-1 $-1 $377 $169 #
coedge $-1 -1 $-1 $378 $379 $380 $381 reversed $170 $-1 #
face $-1 -1 $-1 $382 $383 $37 $-1 $61 reversed single #
loop $-1 -1 $-1 $-1 $278 $172 #
coedge $-1 -1 $-1 $384 $385 $276 $386 reversed $173 $-1 #
coedge $-1 -1 $-1 $387 $174 $275 $386 forward $98 $-1 #
coedge $-1 -1 $-1 $174 $387 $388 $389 reversed $98 $-1 #
coedge $-1 -1 $-1 $390 $391 $174 $279 forward $274 $-1 #
edge $-1 -1 $-1 $392 0 $393 1.5707963267948966 $278 $394 forward @7 unknown #
face $-1 -1 $-1 $-1 $292 $25 $-1 $395 reversed single #
loop $-1 -1 $-1 $-1 $396 $175 #
coedge $-1 -1 $-1 $397 $398 $399 $400 forward $176 $-1 #
coedge $-1 -1 $-1 $284 $177 $179 $290 forward $101 $-1 #
coedge $-1 -1 $-1 $177 $283 $397 $401 forward $101 $-1 #
coedge $-1 -1 $-1 $399 $180 $177 $286 reversed $292 $-1 #
edge $-1 -1 $-1 $402 -1.5707963267948966 $294 0 $177 $403 forward @7 unknown #
coedge $-1 -1 $-1 $179 $178 $404 $405 forward $60 $-1 #
coedge $-1 -1 $-1 $396 $406 $178 $289 forward $281 $-1 #
edge $-1 -1 $-1 $407 -8.25 $293 -4.25 $178 $408 forward @7 unknown #
edge $-1 -1 $-1 $294 4.25 $409 8.25 $179 $410 forward @7 unknown #
coedge $-1 -1 $-1 $180 $399 $396 $411 reversed $292 $-1 #
loop $-1 -1 $-1 $-1 $291 $280 #
vertex $-1 -1 $-1 $181 $412 #
vertex $-1 -1 $-1 $290 $413 #
straight-curve $-1 -1 $-1 4.25 8.25 -5.375 0 0 -1 I I #
loop $-1 -1 $-1 $-1 $188 $182 #
plane-surface $-1 -1 $-1 0 -8.25 0 0 1 0 0 0 1 forward_v I I I I #
coedge $-1 -1 $-1 $414 $300 $187 $305 forward $183 $-1 #
coedge $-1 -1 $-1 $185 $184 $415 $416 reversed $63 $-1 #
coedge $-1 -1 $-1 $298 $414 $184 $301 forward $183 $-1 #
edge $-1 -1 $-1 $417 -8.25 $303 -4.25 $184 $418 forward @7 unknown #
edge $-1 -1 $-1 $193 4.25 $419 8.25 $185 $420 forward @7 unknown #
vertex $-1 -1 $-1 $186 $421 #
straight-curve $-1 -1 $-1 -8.25 -4.25 -5.375 0 0 -1 I I #
edge $-1 -1 $-1 $303 -1.5707963267948966 $308 0 $298 $422 forward @7 unknown #
coedge $-1 -1 $-1 $415 $188 $191 $310 reversed $296 $-1 #
coedge $-1 -1 $-1 $188 $415 $414 $423 reversed $296 $-1 #
vertex $-1 -1 $-1 $423 $424 #
straight-curve $-1 -1 $-1 -4.25 -8.25 -5.375 0 0 -1 I I #
edge $-1 -1 $-1 $419 -8.25 $192 -4.25 $306 $425 forward @7 unknown #
point $-1 -1 $-1 -4.25 -8.25 5.375 #
point $-1 -1 $-1 -8.25 -4.25 5.375 #
model_id-kcp-attrib $-1 -1 $-1 $-1 $196 1 1021400383 1021400383 1808072705 8 #
face $426 -1 $-1 $341 $336 $7 $-1 $427 forward single #
loop $-1 -1 $-1 $-1 $332 $196 #
cone-surface $-1 -1 $-1 4.25 -4.4000000000000004 -4.1299999999999999 0 0 1 4 0 0 1 I I 0 1 4 forward I I I I #
loop $-1 -1 $-1 $-1 $428 $318 #
face $429 -1 $-1 $430 $199 $7 $-1 $431 forward single #
point $-1 -1 $-1 3 0 4.1299999999999999 #
coedge $-1 -1 $-1 $208 $202 $432 $433 reversed $29 $-1 #
coedge $-1 -1 $-1 $348 $347 $202 $322 forward $197 $-1 #
edge $434 -1 $-1 $435 -8.5 $323 0 $321 $436 forward @7 unknown #
vertex $-1 -1 $-1 $352 $437 #
ellipse-curve $-1 -1 $-1 -4.25 -4.4000000000000004 4.1299999999999999 0 0 -1 -4 0 0 1 I I #
attrib_edge_convexity-kcp-attrib $-1 -1 $438 $205 $120 1 #
point $-1 -1 $-1 -8.25 -4.4000000000000004 4.1299999999999999 #
coedge $-1 -1 $-1 $335 $334 $208 $328 forward $336 $-1 #
edge $439 -1 $-1 $329 -8.5 $440 0 $327 $441 forward @7 unknown #
vertex $-1 -1 $-1 $340 $442 #
ellipse-curve $-1 -1 $-1 4.25 4.0999999999999996 4.1299999999999999 0 0 -1 4 0 0 1 I I #
point $-1 -1 $-1 4.25 8.0999999999999996 4.1299999999999999 #
coedge $-1 -1 $-1 $443 $444 $216 $333 reversed $315 $-1 #
edge $445 -1 $-1 $338 -1.5707963267948966 $350 0 $332 $446 forward @7 unknown #
coedge $-1 -1 $-1 $327 $217 $220 $340 reversed $336 $-1 #
coedge $-1 -1 $-1 $217 $327 $443 $447 forward $336 $-1 #
loop $-1 -1 $-1 $-1 $217 $314 #
attrib_edge_convexity-kcp-attrib $-1 -1 $448 $-1 $218 1 #
vertex $-1 -1 $-1 $447 $449 #
straight-curve $-1 -1 $-1 8.25 -4.4000000000000004 -4.1299999999999999 0 -1 0 I I #
edge $-1 -1 $-1 $329 -8.2599999999999998 $223 0 $220 $450 forward @7 unknown #
face $451 -1 $-1 $226 $221 $7 $-1 $452 forward single #
convexity-sys-attrib $-1 -1 $-1 $222 $129 #
point $-1 -1 $-1 8.25 4.0999999999999996 -4.1299999999999999 #
straight-curve $-1 -1 $-1 4.25 8.0999999999999996 -4.1299999999999999 -2.15055307433444e-016 0 -1 I I #
model_id-kcp-attrib $-1 -1 $-1 $-1 $226 1 1021400383 1021400383 1808072705 11 #
plane-surface $-1 -1 $-1 4.25 8.0999999999999996 -4.1299999999999999 0 1 0 0 0 1 forward_v I I I I #
coedge $-1 -1 $-1 $321 $229 $444 $453 reversed $197 $-1 #
coedge $-1 -1 $-1 $229 $321 $231 $352 forward $197 $-1 #
attrib_edge_convexity-kcp-attrib $-1 -1 $454 $-1 $230 1 #
vertex $-1 -1 $-1 $453 $455 #
straight-curve $-1 -1 $-1 -4.25 -8.4000000000000004 -4.1299999999999999 -1 0 0 I I #
edge $456 -1 $-1 $323 -8.2599999999999998 $234 0 $348 $457 forward @7 unknown #
convexity-sys-attrib $-1 -1 $-1 $233 $138 #
point $-1 -1 $-1 -4.25 -8.4000000000000004 -4.1299999999999999 #
attrib_edge_convexity-kcp-attrib $-1 -1 $458 $-1 $236 3 #
straight-curve $-1 -1 $-1 -8.25 -4.4000000000000004 -4.1299999999999999 0 0 -1 I I #
convexity-sys-attrib $-1 -1 $-1 $239 $144 #
model_id-kcp-attrib $-1 -1 $-1 $-1 $243 1 1021400383 1021400383 1808072706 5 #
plane-surface $-1 -1 $-1 8.25 0 0 -1 0 0 0 0 1 forward_v I I I I #
coedge $-1 -1 $-1 $248 $246 $250 $364 reversed $151 $-1 #
edge $-1 -1 $-1 $261 -5.375 $366 5.375 $260 $459 forward @7 unknown #
vertex $-1 -1 $-1 $364 $460 #
straight-curve $-1 -1 $-1 -8.25 -8.25 0 0 0 -1 I I #
edge $-1 -1 $-1 $362 -8.25 $366 8.25 $360 $461 forward @7 unknown #
straight-curve $-1 -1 $-1 0 -8.25 -5.375 -1 0 0 I I #
vertex $-1 -1 $-1 $253 $462 #
straight-curve $-1 -1 $-1 0 8.25 -5.375 1 0 0 I I #
point $-1 -1 $-1 8.25 8.25 -5.375 #
point $-1 -1 $-1 8.25 -8.25 -5.375 #
straight-curve $-1 -1 $-1 -8.25 0 5.375 0 -1 0 I I #
point $-1 -1 $-1 -8.25 8.25 5.375 #
point $-1 -1 $-1 -8.25 -8.25 5.375 #
straight-curve $-1 -1 $-1 8.25 -8.25 0 0 0 -1 I I #
straight-curve $-1 -1 $-1 8.25 8.25 0 0 0 -1 I I #
face $-1 -1 $-1 $463 $464 $57 $-1 $297 reversed single #
loop $-1 -1 $-1 $-1 $465 $270 #
coedge $-1 -1 $-1 $466 $467 $468 $469 forward $271 $-1 #
coedge $-1 -1 $-1 $470 $272 $471 $472 reversed $170 $-1 #
coedge $-1 -1 $-1 $272 $470 $466 $473 reversed $170 $-1 #
coedge $-1 -1 $-1 $468 $474 $272 $381 forward $475 $-1 #
edge $-1 -1 $-1 $476 -10.75 $477 0 $272 $478 forward @7 unknown #
face $-1 -1 $-1 $-1 $479 $37 $-1 $102 reversed single #
loop $-1 -1 $-1 $-1 $388 $273 #
coedge $-1 -1 $-1 $480 $275 $391 $481 reversed $173 $-1 #
coedge $-1 -1 $-1 $275 $480 $482 $483 reversed $173 $-1 #
edge $-1 -1 $-1 $392 -10.75 $484 0 $275 $485 forward @7 unknown #
coedge $-1 -1 $-1 $277 $276 $486 $487 reversed $98 $-1 #
coedge $-1 -1 $-1 $488 $489 $277 $389 forward $383 $-1 #
edge $-1 -1 $-1 $393 -10.75 $490 0 $388 $491 forward @7 unknown #
coedge $-1 -1 $-1 $391 $278 $489 $492 forward $274 $-1 #
coedge $-1 -1 $-1 $278 $390 $384 $481 forward $274 $-1 #
vertex $-1 -1 $-1 $279 $493 #
vertex $-1 -1 $-1 $492 $494 #
ellipse-curve $-1 -1 $-1 -4.25 4.25 5.375 0 0 -1 -4 0 0 1 I I #
cone-surface $-1 -1 $-1 4.25 4.25 -5.375 0 0 -1 0 4 0 1 I I 0 1 4 forward I I I I #
coedge $-1 -1 $-1 $406 $288 $291 $411 forward $281 $-1 #
coedge $-1 -1 $-1 $404 $282 $284 $401 reversed $176 $-1 #
coedge $-1 -1 $-1 $282 $404 $406 $495 reversed $176 $-1 #
coedge $-1 -1 $-1 $291 $285 $282 $400 reversed $292 $-1 #
edge $-1 -1 $-1 $496 -10.75 $402 0 $282 $497 forward @7 unknown #
edge $-1 -1 $-1 $409 -8.25 $402 -4.25 $397 $498 forward @7 unknown #
vertex $-1 -1 $-1 $286 $499 #
ellipse-curve $-1 -1 $-1 4.25 4.25 -5.375 0 0 1 0 4 0 1 I I #
coedge $-1 -1 $-1 $398 $397 $287 $405 reversed $176 $-1 #
edge $-1 -1 $-1 $407 -5.375 $409 5.375 $404 $500 forward @7 unknown #
coedge $-1 -1 $-1 $288 $396 $398 $495 forward $281 $-1 #
vertex $-1 -1 $-1 $495 $501 #
straight-curve $-1 -1 $-1 0 8.25 5.375 -1 0 0 I I #
vertex $-1 -1 $-1 $401 $502 #
straight-curve $-1 -1 $-1 0 8.25 -5.375 1 0 0 I I #
edge $-1 -1 $-1 $293 0 $496 1.5707963267948966 $396 $503 forward @7 unknown #
point $-1 -1 $-1 4.25 8.25 5.375 #
point $-1 -1 $-1 4.25 8.25 -5.375 #
coedge $-1 -1 $-1 $300 $298 $307 $423 forward $183 $-1 #
coedge $-1 -1 $-1 $307 $306 $299 $416 forward $296 $-1 #
edge $-1 -1 $-1 $419 -5.375 $417 5.375 $299 $504 forward @7 unknown #
vertex $-1 -1 $-1 $301 $505 #
straight-curve $-1 -1 $-1 -8.25 0 -5.375 0 1 0 I I #
vertex $-1 -1 $-1 $302 $506 #
straight-curve $-1 -1 $-1 -8.25 0 5.375 0 -1 0 I I #
point $-1 -1 $-1 -8.25 -4.25 -5.375 #
ellipse-curve $-1 -1 $-1 -4.25 -4.25 -5.375 0 0 1 0 -4 0 1 I I #
edge $-1 -1 $-1 $308 4.25 $417 8.25 $307 $507 forward @7 unknown #
point $-1 -1 $-1 -4.25 -8.25 -5.375 #
straight-curve $-1 -1 $-1 0 -8.25 5.375 1 0 0 I I #
model_id-kcp-attrib $-1 -1 $-1 $-1 $314 1 1021400383 1021400383 1808072705 9 #
plane-surface $-1 -1 $-1 8.25 -4.4000000000000004 -4.1299999999999999 1 0 0 0 0 -1 forward_v I I I I #
coedge $-1 -1 $-1 $428 $428 $508 $509 forward $317 $-1 #
model_id-kcp-attrib $-1 -1 $-1 $-1 $318 1 1021400383 1021400383 1808072705 12 #
face $510 -1 $-1 $511 $512 $7 $-1 $513 reversed single #
cone-surface $-1 -1 $-1 0 0 4.1299999999999999 0 0 1 3 0 0 1 I I 0 1 3 forward I I I I #
coedge $-1 -1 $-1 $444 $443 $320 $433 forward $315 $-1 #
edge $-1 -1 $-1 $440 -1.5707963267948966 $435 0 $432 $514 forward @7 unknown #
model_id-kcp-attrib $-1 -1 $515 $-1 $322 1 1021400383 1021400383 1808072705 18 #
vertex $-1 -1 $-1 $453 $516 #
straight-curve $-1 -1 $-1 -4.25 -8.4000000000000004 4.1299999999999999 -1 0 0 I I #
point $-1 -1 $-1 -4.25 -8.4000000000000004 4.1299999999999999 #
convexity-sys-attrib $-1 -1 $-1 $325 $120 #
model_id-kcp-attrib $-1 -1 $-1 $-1 $328 1 1021400383 1021400383 1808072705 17 #
vertex $-1 -1 $-1 $447 $517 #
straight-curve $-1 -1 $-1 8.25 -4.4000000000000004 4.1299999999999999 0 -1 0 I I #
point $-1 -1 $-1 8.25 4.0999999999999996 4.1299999999999999 #
coedge $-1 -1 $-1 $432 $332 $335 $447 reversed $315 $-1 #
coedge $-1 -1 $-1 $332 $432 $347 $453 forward $315 $-1 #
attrib_edge_convexity-kcp-attrib $-1 -1 $518 $-1 $333 1 #
ellipse-curve $-1 -1 $-1 4.25 -4.4000000000000004 -4.1299999999999999 0 0 -1 0 -4 0 1 I I #
edge $-1 -1 $-1 $440 -8.2599999999999998 $338 0 $335 $519 forward @7 unknown #
convexity-sys-attrib $-1 -1 $-1 $337 $218 #
point $-1 -1 $-1 8.25 -4.4000000000000004 -4.1299999999999999 #
straight-curve $-1 -1 $-1 8.25 4.0999999999999996 -4.1299999999999999 0 0 -1 I I #
model_id-kcp-attrib $-1 -1 $-1 $-1 $341 1 1021400383 1021400383 1808072705 10 #
cone-surface $-1 -1 $-1 4.25 4.0999999999999996 -4.1299999999999999 0 0 1 4 0 0 1 I I 0 1 4 forward I I I I #
edge $520 -1 $-1 $435 -8.2599999999999998 $350 0 $444 $521 forward @7 unknown #
convexity-sys-attrib $-1 -1 $-1 $349 $230 #
point $-1 -1 $-1 4.25 -8.4000000000000004 -4.1299999999999999 #
attrib_edge_convexity-kcp-attrib $-1 -1 $522 $-1 $352 3 #
straight-curve $-1 -1 $-1 -4.25 -8.4000000000000004 -4.1299999999999999 2.15055307433444e-016 0 -1 I I #
convexity-sys-attrib $-1 -1 $-1 $355 $236 #
straight-curve $-1 -1 $-1 -8.25 8.25 0 0 0 -1 I I #
point $-1 -1 $-1 -8.25 -8.25 -5.375 #
straight-curve $-1 -1 $-1 -8.25 0 -5.375 0 1 0 I I #
point $-1 -1 $-1 -8.25 8.25 -5.375 #
face $-1 -1 $-1 $-1 $475 $57 $-1 $523 reversed single #
loop $-1 -1 $-1 $-1 $524 $375 #
coedge $-1 -1 $-1 $525 $471 $474 $526 forward $376 $-1 #
coedge $-1 -1 $-1 $467 $377 $379 $473 forward $271 $-1 #
coedge $-1 -1 $-1 $377 $466 $527 $528 forward $271 $-1 #
coedge $-1 -1 $-1 $529 $380 $377 $469 reversed $475 $-1 #
edge $-1 -1 $-1 $530 -1.5707963267948966 $477 0 $377 $531 forward @7 unknown #
coedge $-1 -1 $-1 $379 $378 $532 $533 forward $170 $-1 #
coedge $-1 -1 $-1 $465 $525 $378 $472 forward $376 $-1 #
edge $-1 -1 $-1 $534 -8.25 $476 -4.25 $378 $535 forward @7 unknown #
edge $-1 -1 $-1 $477 4.25 $536 8.25 $379 $498 forward @7 unknown #
coedge $-1 -1 $-1 $380 $529 $465 $526 reversed $475 $-1 #
loop $-1 -1 $-1 $-1 $474 $463 #
vertex $-1 -1 $-1 $381 $537 #
vertex $-1 -1 $-1 $473 $538 #
straight-curve $-1 -1 $-1 8.25 -4.25 -5.375 0 0 -1 I I #
loop $-1 -1 $-1 $-1 $486 $382 #
coedge $-1 -1 $-1 $385 $384 $539 $540 forward $173 $-1 #
edge $-1 -1 $-1 $541 -8.25 $392 -4.25 $384 $420 forward @7 unknown #
coedge $-1 -1 $-1 $542 $486 $385 $483 forward $479 $-1 #
edge $-1 -1 $-1 $484 4.25 $543 8.25 $385 $418 forward @7 unknown #
vertex $-1 -1 $-1 $483 $544 #
straight-curve $-1 -1 $-1 -8.25 4.25 -5.375 0 0 -1 I I #
coedge $-1 -1 $-1 $482 $542 $387 $487 forward $479 $-1 #
edge $-1 -1 $-1 $490 -1.5707963267948966 $484 0 $486 $545 forward @7 unknown #
coedge $-1 -1 $-1 $539 $388 $542 $546 reversed $383 $-1 #
coedge $-1 -1 $-1 $388 $539 $390 $492 reversed $383 $-1 #
vertex $-1 -1 $-1 $389 $547 #
straight-curve $-1 -1 $-1 -4.25 8.25 -5.375 0 0 -1 I I #
edge $-1 -1 $-1 $393 4.25 $541 8.25 $489 $408 forward @7 unknown #
point $-1 -1 $-1 -8.25 4.25 5.375 #
point $-1 -1 $-1 -4.25 8.25 5.375 #
edge $-1 -1 $-1 $496 4.25 $407 8.25 $398 $535 forward @7 unknown #
vertex $-1 -1 $-1 $495 $548 #
straight-curve $-1 -1 $-1 8.25 4.25 -5.375 0 0 -1 I I #
straight-curve $-1 -1 $-1 8.25 0 -5.375 0 -1 0 I I #
point $-1 -1 $-1 8.25 4.25 -5.375 #
straight-curve $-1 -1 $-1 8.25 8.25 0 0 0 -1 I I #
point $-1 -1 $-1 8.25 8.25 5.375 #
point $-1 -1 $-1 8.25 8.25 -5.375 #
ellipse-curve $-1 -1 $-1 4.25 4.25 5.375 0 0 -1 0 4 0 1 I I #
straight-curve $-1 -1 $-1 -8.25 -8.25 0 0 0 -1 I I #
point $-1 -1 $-1 -8.25 -8.25 -5.375 #
point $-1 -1 $-1 -8.25 -8.25 5.375 #
straight-curve $-1 -1 $-1 0 -8.25 -5.375 -1 0 0 I I #
coedge $-1 -1 $-1 $508 $508 $428 $509 reversed $549 $-1 #
edge $-1 -1 $-1 $550 -3.1415926535897931 $550 3.1415926535897931 $508 $551 forward @7 unknown #
model_id-kcp-attrib $-1 -1 $-1 $-1 $430 1 1021400383 1021400383 1808072705 13 #
face $552 -1 $-1 $553 $554 $7 $-1 $555 forward single #
loop $-1 -1 $-1 $549 $556 $430 #
plane-surface $-1 -1 $-1 0 0 5.3799999999999999 0 0 1 1 0 0 forward_v I I I I #
ellipse-curve $-1 -1 $-1 4.25 -4.4000000000000004 4.1299999999999999 0 0 -1 0 -4 0 1 I I #
attrib_edge_convexity-kcp-attrib $-1 -1 $557 $434 $322 1 #
point $-1 -1 $-1 4.25 -8.4000000000000004 4.1299999999999999 #
point $-1 -1 $-1 8.25 -4.4000000000000004 4.1299999999999999 #
convexity-sys-attrib $-1 -1 $-1 $445 $333 #
straight-curve $-1 -1 $-1 8.25 -4.4000000000000004 -4.1299999999999999 0 2.15055307433444e-016 -1 I I #
attrib_edge_convexity-kcp-attrib $-1 -1 $558 $-1 $453 3 #
straight-curve $-1 -1 $-1 4.25 -8.4000000000000004 -4.1299999999999999 0 0 -1 I I #
convexity-sys-attrib $-1 -1 $-1 $456 $352 #
cone-surface $-1 -1 $-1 4.25 -4.25 -5.375 0 0 -1 4 0 0 1 I I 0 1 4 forward I I I I #
coedge $-1 -1 $-1 $527 $559 $529 $560 forward $464 $-1 #
coedge $-1 -1 $-1 $471 $465 $559 $561 forward $376 $-1 #
edge $-1 -1 $-1 $476 0 $562 1.5707963267948966 $465 $563 forward @7 unknown #
coedge $-1 -1 $-1 $532 $524 $467 $528 reversed $464 $-1 #
edge $-1 -1 $-1 $536 -8.25 $530 -4.25 $527 $507 forward @7 unknown #
coedge $-1 -1 $-1 $474 $468 $524 $560 reversed $475 $-1 #
vertex $-1 -1 $-1 $469 $564 #
ellipse-curve $-1 -1 $-1 4.25 -4.25 -5.375 0 0 1 4 0 0 1 I I #
coedge $-1 -1 $-1 $559 $527 $470 $533 reversed $464 $-1 #
edge $-1 -1 $-1 $534 -5.375 $536 5.375 $470 $565 forward @7 unknown #
vertex $-1 -1 $-1 $472 $566 #
straight-curve $-1 -1 $-1 8.25 0 5.375 0 1 0 I I #
vertex $-1 -1 $-1 $533 $567 #
point $-1 -1 $-1 8.25 -4.25 5.375 #
point $-1 -1 $-1 8.25 -4.25 -5.375 #
coedge $-1 -1 $-1 $489 $488 $480 $540 reversed $383 $-1 #
edge $-1 -1 $-1 $541 -5.375 $543 5.375 $539 $568 forward @7 unknown #
vertex $-1 -1 $-1 $492 $569 #
coedge $-1 -1 $-1 $486 $482 $488 $546 forward $479 $-1 #
vertex $-1 -1 $-1 $546 $570 #
point $-1 -1 $-1 -8.25 4.25 -5.375 #
ellipse-curve $-1 -1 $-1 -4.25 4.25 -5.375 0 0 1 -4 0 0 1 I I #
edge $-1 -1 $-1 $543 -8.25 $490 -4.25 $488 $410 forward @7 unknown #
point $-1 -1 $-1 -4.25 8.25 -5.375 #
point $-1 -1 $-1 8.25 4.25 5.375 #
loop $-1 -1 $-1 $-1 $508 $430 #
vertex $-1 -1 $-1 $509 $571 #
ellipse-curve $-1 -1 $-1 0 0 5.3799999999999999 0 0 -1 -3 0 0 1 I I #
model_id-kcp-attrib $-1 -1 $-1 $-1 $511 1 1021400383 1021400383 1808072705 14 #
face $572 -1 $-1 $-1 $573 $7 $-1 $574 forward single #
loop $-1 -1 $-1 $-1 $575 $511 #
plane-surface $-1 -1 $-1 0 0 6.6200000000000001 0 0 1 1 0 0 forward_v I I I I #
coedge $-1 -1 $-1 $556 $556 $576 $577 forward $512 $-1 #
convexity-sys-attrib $-1 -1 $-1 $515 $322 #
convexity-sys-attrib $-1 -1 $-1 $520 $453 #
coedge $-1 -1 $-1 $524 $532 $525 $561 reversed $464 $-1 #
edge $-1 -1 $-1 $562 -10.75 $530 0 $524 $578 forward @7 unknown #
edge $-1 -1 $-1 $562 4.25 $534 8.25 $559 $425 forward @7 unknown #
vertex $-1 -1 $-1 $561 $579 #
ellipse-curve $-1 -1 $-1 4.25 -4.25 5.375 0 0 -1 4 0 0 1 I I #
point $-1 -1 $-1 4.25 -8.25 -5.375 #
straight-curve $-1 -1 $-1 8.25 -8.25 0 0 0 -1 I I #
point $-1 -1 $-1 8.25 -8.25 5.375 #
point $-1 -1 $-1 8.25 -8.25 -5.375 #
straight-curve $-1 -1 $-1 -8.25 8.25 0 0 0 -1 I I #
point $-1 -1 $-1 -8.25 8.25 5.375 #
point $-1 -1 $-1 -8.25 8.25 -5.375 #
point $-1 -1 $-1 3 0 5.3799999999999999 #
model_id-kcp-attrib $-1 -1 $-1 $-1 $553 1 1021400383 1021400383 1808072705 15 #
loop $-1 -1 $-1 $580 $581 $553 #
cone-surface $-1 -1 $-1 0 0 5.3799999999999999 0 0 1 4 0 0 1 I I 0 1 4 forward I I I I #
coedge $-1 -1 $-1 $575 $575 $581 $582 reversed $554 $-1 #
coedge $-1 -1 $-1 $576 $576 $556 $577 reversed $580 $-1 #
edge $-1 -1 $-1 $583 -3.1415926535897931 $583 3.1415926535897931 $576 $584 forward @7 unknown #
straight-curve $-1 -1 $-1 4.25 -8.25 -5.375 0 0 -1 I I #
point $-1 -1 $-1 4.25 -8.25 5.375 #
loop $-1 -1 $-1 $-1 $576 $553 #
coedge $-1 -1 $-1 $581 $581 $575 $582 forward $573 $-1 #
edge $-1 -1 $-1 $585 0 $585 6.2831853071795862 $581 $586 forward @7 unknown #
vertex $-1 -1 $-1 $577 $587 #
ellipse-curve $-1 -1 $-1 0 0 5.3799999999999999 0 0 -1 -4 0 0 1 I I #
vertex $-1 -1 $-1 $582 $588 #
ellipse-curve $-1 -1 $-1 0 0 6.6200000000000001 0 0 -1 4 0 0 1 I I #
point $-1 -1 $-1 4 0 5.3799999999999999 #
point $-1 -1 $-1 4 0 6.6200000000000001 #
End-of-ACIS-data 