105 201 1 0                             
body $-1 $1 $-1 $-1 #
lump $-1 $-1 $2 $0 #
shell $-1 $-1 $-1 $3 $1 #
face $-1 $4 $5 $2 $-1 $6 reversed single #
face $-1 $7 $8 $2 $-1 $9 forward single #
loop $-1 $-1 $10 $3 #
plane-surface $-1 0 0 -4.13 0 0 1 1 0 0 0 #
face $-1 $11 $12 $2 $-1 $13 forward single #
loop $-1 $14 $15 $4 #
plane-surface $-1 0 0 4.13 0 0 1 1 0 0 0 #
coedge $-1 $16 $17 $18 $19 0 $5 $-1 #
face $-1 $20 $21 $2 $-1 $22 forward single #
loop $-1 $-1 $18 $7 #
cone-surface $-1 -4.25 4.1 -4.13 0 0 1 4 0 0 1 0 1 0 #
loop $-1 $-1 $23 $4 #
coedge $-1 $24 $25 $26 $27 1 $8 $-1 #
coedge $-1 $28 $10 $29 $30 0 $5 $-1 #
coedge $-1 $10 $31 $32 $33 0 $5 $-1 #
coedge $-1 $34 $35 $10 $19 1 $12 $-1 #
edge $-1 $36 $37 $18 $38 0 #
face $-1 $39 $40 $2 $-1 $41 forward single #
loop $-1 $-1 $32 $11 #
plane-surface $-1 -8.25 4.1 -4.13 -1 0 0 0 0 1 0 #
coedge $-1 $23 $23 $42 $43 0 $14 $-1 #
coedge $-1 $44 $15 $45 $46 1 $8 $-1 #
coedge $-1 $15 $47 $48 $49 1 $8 $-1 #
coedge $-1 $35 $34 $15 $27 0 $12 $-1 #
edge $-1 $50 $51 $26 $52 0 #
coedge $-1 $53 $16 $54 $55 0 $5 $-1 #
coedge $-1 $56 $57 $16 $30 1 $58 $-1 #
edge $-1 $37 $59 $29 $60 0 #
coedge $-1 $17 $61 $62 $63 0 $5 $-1 #
coedge $-1 $64 $65 $17 $33 1 $21 $-1 #
edge $-1 $66 $36 $32 $67 0 #
coedge $-1 $26 $18 $65 $68 1 $12 $-1 #
coedge $-1 $18 $26 $56 $69 0 $12 $-1 #
vertex $-1 $68 $70 #
vertex $-1 $69 $71 #
ellipse-curve $-1 -4.25 4.1 -4.13 0 0 -1 0 4 0 1 #
face $-1 $72 $73 $2 $-1 $74 forward single #
loop $-1 $-1 $62 $20 #
cone-surface $-1 -4.25 -4.4 -4.13 0 0 1 4 0 0 1 0 1 0 #
coedge $-1 $42 $42 $23 $43 1 $75 $-1 #
edge $-1 $76 $76 $42 $77 0 #
coedge $-1 $78 $24 $79 $80 1 $8 $-1 #
coedge $-1 $65 $64 $24 $46 0 $21 $-1 #
edge $-1 $81 $50 $45 $82 0 #
coedge $-1 $25 $83 $84 $85 1 $8 $-1 #
coedge $-1 $57 $56 $25 $49 0 $58 $-1 #
edge $-1 $51 $86 $48 $87 0 #
vertex $-1 $68 $88 #
vertex $-1 $69 $89 #
ellipse-curve $-1 -4.25 4.1 4.13 0 0 -1 0 4 0 1 #
coedge $-1 $90 $28 $91 $92 0 $5 $-1 #
coedge $-1 $93 $94 $28 $55 1 $95 $-1 #
edge $-1 $59 $96 $54 $97 0 #
coedge $-1 $48 $29 $35 $69 1 $58 $-1 #
coedge $-1 $29 $48 $93 $98 0 $58 $-1 #
loop $-1 $-1 $29 $99 #
vertex $-1 $98 $100 #
straight-curve $-1 4.25 8.1 -4.13 1 0 0 #
coedge $-1 $31 $90 $101 $102 0 $5 $-1 #
coedge $-1 $103 $104 $31 $63 1 $40 $-1 #
edge $-1 $105 $66 $62 $106 0 #
coedge $-1 $45 $32 $104 $107 1 $21 $-1 #
coedge $-1 $32 $45 $34 $68 0 $21 $-1 #
vertex $-1 $107 $108 #
straight-curve $-1 -8.25 4.1 -4.13 0 1 0 #
edge $-1 $50 $36 $65 $109 0 #
edge $-1 $51 $37 $56 $110 0 #
point $-1 -8.25 4.1 -4.13 #
point $-1 -4.25 8.1 -4.13 #
face $-1 $111 $112 $2 $-1 $113 forward single #
loop $-1 $-1 $101 $39 #
plane-surface $-1 -4.25 -8.4 -4.13 0 -1 0 0 0 -1 0 #
loop $-1 $114 $42 $115 #
vertex $-1 $43 $116 #
ellipse-curve $-1 0 0 4.13 0 0 -1 -3 0 0 1 #
coedge $-1 $117 $44 $118 $119 1 $8 $-1 #
coedge $-1 $104 $103 $44 $80 0 $40 $-1 #
edge $-1 $120 $81 $79 $121 0 #
vertex $-1 $107 $122 #
straight-curve $-1 -8.25 4.1 4.13 0 1 0 #
coedge $-1 $47 $117 $123 $124 1 $8 $-1 #
coedge $-1 $94 $93 $47 $85 0 $95 $-1 #
edge $-1 $86 $125 $84 $126 0 #
vertex $-1 $98 $127 #
straight-curve $-1 4.25 8.1 4.13 1 0 0 #
point $-1 -8.25 4.1 4.13 #
point $-1 -4.25 8.1 4.13 #
coedge $-1 $61 $53 $128 $129 0 $5 $-1 #
coedge $-1 $130 $131 $53 $92 1 $132 $-1 #
edge $-1 $96 $133 $91 $134 0 #
coedge $-1 $84 $54 $57 $98 1 $95 $-1 #
coedge $-1 $54 $84 $130 $135 0 $95 $-1 #
loop $-1 $-1 $54 $136 #
vertex $-1 $135 $137 #
ellipse-curve $-1 4.25 4.1 -4.13 0 0 -1 4 0 0 1 #
edge $-1 $86 $59 $57 $138 0 #
face $-1 $115 $58 $2 $-1 $139 forward single #
point $-1 4.25 8.1 -4.13 #
coedge $-1 $140 $141 $61 $102 1 $73 $-1 #
edge $-1 $142 $105 $101 $143 0 #
coedge $-1 $79 $62 $141 $144 1 $40 $-1 #
coedge $-1 $62 $79 $64 $107 0 $40 $-1 #
vertex $-1 $144 $145 #
ellipse-curve $-1 -4.25 -4.4 -4.13 0 0 -1 -4 0 0 1 #
edge $-1 $81 $66 $104 $146 0 #
point $-1 -8.25 -4.4 -4.13 #
straight-curve $-1 -8.25 4.1 -4.13 0 0 -1 #
straight-curve $-1 -4.25 8.1 -4.13 0 0 -1 #
face $-1 $136 $132 $2 $-1 $147 forward single #
loop $-1 $-1 $128 $72 #
cone-surface $-1 4.25 -4.4 -4.13 0 0 1 4 0 0 1 0 1 0 #
loop $-1 $-1 $148 $115 #
face $-1 $149 $75 $2 $-1 $150 forward single #
point $-1 3 0 4.13 #
coedge $-1 $83 $78 $151 $152 1 $8 $-1 #
coedge $-1 $141 $140 $78 $119 0 $73 $-1 #
edge $-1 $153 $120 $118 $154 0 #
vertex $-1 $144 $155 #
ellipse-curve $-1 -4.25 -4.4 4.13 0 0 -1 -4 0 0 1 #
point $-1 -8.25 -4.4 4.13 #
coedge $-1 $131 $130 $83 $124 0 $132 $-1 #
edge $-1 $125 $156 $123 $157 0 #
vertex $-1 $135 $158 #
ellipse-curve $-1 4.25 4.1 4.13 0 0 -1 4 0 0 1 #
point $-1 4.25 8.1 4.13 #
coedge $-1 $159 $160 $90 $129 1 $112 $-1 #
edge $-1 $133 $142 $128 $161 0 #
coedge $-1 $123 $91 $94 $135 1 $132 $-1 #
coedge $-1 $91 $123 $159 $162 0 $132 $-1 #
loop $-1 $-1 $91 $111 #
vertex $-1 $162 $163 #
straight-curve $-1 8.25 -4.4 -4.13 0 -1 0 #
edge $-1 $125 $96 $94 $164 0 #
face $-1 $99 $95 $2 $-1 $165 forward single #
point $-1 8.25 4.1 -4.13 #
straight-curve $-1 4.25 8.1 -4.13 -2.15055307433444e-16 0 -1 #
plane-surface $-1 4.25 8.1 -4.13 0 1 0 0 0 1 0 #
coedge $-1 $118 $101 $160 $166 1 $73 $-1 #
coedge $-1 $101 $118 $103 $144 0 $73 $-1 #
vertex $-1 $166 $167 #
straight-curve $-1 -4.25 -8.4 -4.13 -1 0 0 #
edge $-1 $120 $105 $141 $168 0 #
point $-1 -4.25 -8.4 -4.13 #
straight-curve $-1 -8.25 -4.4 -4.13 0 0 -1 #
plane-surface $-1 8.25 -4.4 -4.13 1 0 0 0 0 -1 0 #
coedge $-1 $148 $148 $169 $170 0 $114 $-1 #
face $-1 $171 $172 $2 $-1 $173 reversed single #
cone-surface $-1 0 0 4.13 0 0 1 3 0 0 1 0 1 0 #
coedge $-1 $160 $159 $117 $152 0 $112 $-1 #
edge $-1 $156 $153 $151 $174 0 #
vertex $-1 $166 $175 #
straight-curve $-1 -4.25 -8.4 4.13 -1 0 0 #
point $-1 -4.25 -8.4 4.13 #
vertex $-1 $162 $176 #
straight-curve $-1 8.25 -4.4 4.13 0 -1 0 #
point $-1 8.25 4.1 4.13 #
coedge $-1 $151 $128 $131 $162 1 $112 $-1 #
coedge $-1 $128 $151 $140 $166 0 $112 $-1 #
ellipse-curve $-1 4.25 -4.4 -4.13 0 0 -1 0 -4 0 1 #
edge $-1 $156 $133 $131 $177 0 #
point $-1 8.25 -4.4 -4.13 #
straight-curve $-1 8.25 4.1 -4.13 0 0 -1 #
cone-surface $-1 4.25 4.1 -4.13 0 0 1 4 0 0 1 0 1 0 #
edge $-1 $153 $142 $160 $178 0 #
point $-1 4.25 -8.4 -4.13 #
straight-curve $-1 -4.25 -8.4 -4.13 2.15055307433444e-16 0 -1 #
coedge $-1 $169 $169 $148 $170 1 $179 $-1 #
edge $-1 $180 $180 $169 $181 0 #
face $-1 $182 $183 $2 $-1 $184 forward single #
loop $-1 $179 $185 $149 #
plane-surface $-1 0 0 5.38 0 0 1 1 0 0 0 #
ellipse-curve $-1 4.25 -4.4 4.13 0 0 -1 0 -4 0 1 #
point $-1 4.25 -8.4 4.13 #
point $-1 8.25 -4.4 4.13 #
straight-curve $-1 8.25 -4.4 -4.13 0 2.15055307433444e-16 -1 #
straight-curve $-1 4.25 -8.4 -4.13 0 0 -1 #
loop $-1 $-1 $169 $149 #
vertex $-1 $170 $186 #
ellipse-curve $-1 0 0 5.38 0 0 -1 -3 0 0 1 #
face $-1 $-1 $187 $2 $-1 $188 forward single #
loop $-1 $-1 $189 $171 #
plane-surface $-1 0 0 6.62 0 0 1 1 0 0 0 #
coedge $-1 $185 $185 $190 $191 0 $172 $-1 #
point $-1 3 0 5.38 #
loop $-1 $192 $193 $182 #
cone-surface $-1 0 0 5.38 0 0 1 4 0 0 1 0 1 0 #
coedge $-1 $189 $189 $193 $194 1 $183 $-1 #
coedge $-1 $190 $190 $185 $191 1 $192 $-1 #
edge $-1 $195 $195 $190 $196 0 #
loop $-1 $-1 $190 $182 #
coedge $-1 $193 $193 $189 $194 0 $187 $-1 #
edge $-1 $197 $197 $193 $198 0 #
vertex $-1 $191 $199 #
ellipse-curve $-1 0 0 5.38 0 0 -1 -4 0 0 1 #
vertex $-1 $194 $200 #
ellipse-curve $-1 0 0 6.62 0 0 -1 4 0 0 1 #
point $-1 4 0 5.38 #
point $-1 4 0 6.62 #
