600 0 2 0           
24 FBMach with ACIS - 6.0.3 13 ACIS 6.0.3 NT 24 Tue May 22 15:33:58 2001 
1 9.9999999999999995e-007 1e-010 
body $2 $3 $-1 $4 #
bdycol-kcp $-1 1 2 $5 $6 #
model_id-kcp-attrib $-1 $-1 $-1 $0 1 990560037 50 -1775108095 1 #
lump $-1 $-1 $7 $0 #
transform $-1 1 0 0 0 1 0 0 0 1 0 0 0 1 no_rotate no_reflect no_shear #
body $8 $9 $-1 $10 #
body $11 $12 $-1 $13 #
shell $-1 $-1 $-1 $14 $-1 $3 #
model_id-kcp-attrib $-1 $-1 $-1 $5 1 990560037 50 -1775108094 1 #
lump $-1 $-1 $15 $5 #
transform $-1 1 0 0 0 1 0 0 0 1 0 -0.15000000000000036 1.2450000000000001 1 no_rotate no_reflect no_shear #
rgb_color-st-attrib $-1 $16 $-1 $6 0.5 1 1 #
lump $-1 $17 $18 $6 #
transform $-1 1 0 0 0 1 0 0 0 1 0 -0.15000000000000036 1.2450000000000001 1 no_rotate no_reflect no_shear #
face $19 $20 $21 $7 $-1 $22 reversed single #
shell $-1 $-1 $-1 $23 $-1 $9 #
model_id-kcp-attrib $-1 $-1 $11 $6 1 990560037 190 -1765933053 1 #
lump $-1 $24 $25 $6 #
shell $-1 $-1 $-1 $26 $-1 $12 #
model_id-kcp-attrib $-1 $27 $-1 $14 1 990560037 50 -1775108095 16 #
face $28 $29 $30 $7 $-1 $31 forward single #
loop $-1 $-1 $32 $14 #
plane-surface $-1 0 0 -4.1299999999999999 0 0 1 1 0 0 forward_v I I I I #
face $33 $34 $35 $15 $-1 $36 forward single #
lump $-1 $37 $38 $6 #
shell $-1 $-1 $-1 $39 $-1 $17 #
face $-1 $40 $41 $18 $-1 $42 reversed single #
model_id-kcp-attrib $-1 $-1 $19 $14 1 990560037 50 -1775108095 2 #
model_id-kcp-attrib $-1 $-1 $-1 $20 1 990560037 50 -1775108095 3 #
face $43 $44 $45 $7 $-1 $46 forward single #
loop $-1 $47 $48 $20 #
plane-surface $-1 0 0 4.1299999999999999 0 0 1 1 0 0 forward_v I I I I #
coedge $-1 $49 $50 $51 $52 forward $21 $-1 #
model_id-kcp-attrib $-1 $-1 $-1 $23 1 990560037 50 -1775108094 7 #
face $53 $54 $55 $15 $-1 $56 reversed single #
loop $-1 $-1 $57 $23 #
plane-surface $-1 0 0 5.375 0 0 1 1 0 0 forward_v I I I I #
lump $-1 $-1 $58 $6 #
shell $-1 $-1 $-1 $59 $-1 $24 #
face $-1 $60 $61 $25 $-1 $62 reversed single #
face $-1 $63 $64 $18 $-1 $65 reversed single #
loop $-1 $-1 $66 $26 #
cone-surface $-1 -4.25 -4.25 -5.375 0 0 -1 0 -4 0 1 I I 0 1 4 forward I I I I #
model_id-kcp-attrib $-1 $-1 $-1 $29 1 990560037 50 -1775108095 4 #
face $67 $68 $69 $7 $-1 $70 forward single #
loop $-1 $-1 $51 $29 #
cone-surface $-1 -4.25 4.0999999999999996 -4.1299999999999999 0 0 1 4 0 0 1 I I 0 1 4 forward I I I I #
loop $-1 $-1 $71 $20 #
coedge $-1 $72 $73 $74 $75 reversed $30 $-1 #
coedge $-1 $76 $32 $77 $78 forward $21 $-1 #
coedge $-1 $32 $79 $80 $81 forward $21 $-1 #
coedge $-1 $82 $83 $32 $52 reversed $45 $-1 #
edge $84 $85 -1.5707963267948966 $86 0 $51 $87 forward 7 unknown #
model_id-kcp-attrib $-1 $-1 $-1 $34 1 990560037 50 -1775108094 2 #
face $88 $89 $90 $15 $-1 $91 reversed single #
loop $-1 $-1 $92 $34 #
plane-surface $-1 0 0 -5.375 0 0 1 1 0 0 forward_v I I I I #
coedge $-1 $93 $94 $95 $96 forward $35 $-1 #
shell $-1 $-1 $-1 $97 $-1 $37 #
face $-1 $98 $99 $38 $-1 $100 reversed single #
face $-1 $101 $102 $25 $-1 $103 reversed single #
loop $-1 $-1 $104 $39 #
plane-surface $-1 0 8.25 0 0 -1 0 0 0 -1 forward_v I I I I #
face $-1 $105 $106 $18 $-1 $107 forward single #
loop $-1 $-1 $108 $40 #
plane-surface $-1 -8.25 0 0 1 0 0 0 0 -1 forward_v I I I I #
coedge $-1 $109 $110 $111 $112 reversed $41 $-1 #
model_id-kcp-attrib $-1 $-1 $-1 $44 1 990560037 50 -1775108095 5 #
face $113 $114 $115 $7 $-1 $116 forward single #
loop $-1 $-1 $80 $44 #
plane-surface $-1 -8.25 4.0999999999999996 -4.1299999999999999 -1 0 0 0 0 1 forward_v I I I I #
coedge $-1 $71 $71 $117 $118 forward $47 $-1 #
coedge $-1 $119 $48 $120 $121 reversed $30 $-1 #
coedge $-1 $48 $122 $123 $124 reversed $30 $-1 #
coedge $-1 $83 $82 $48 $75 forward $45 $-1 #
edge $-1 $125 -1.5707963267948966 $126 0 $74 $127 forward 7 unknown #
coedge $-1 $128 $49 $129 $130 forward $21 $-1 #
coedge $-1 $131 $132 $49 $78 reversed $133 $-1 #
edge $134 $86 -8.5 $135 0 $77 $136 forward 7 unknown #
coedge $-1 $50 $137 $138 $139 forward $21 $-1 #
coedge $-1 $140 $141 $50 $81 reversed $69 $-1 #
edge $142 $143 -8.5 $85 0 $80 $144 forward 7 unknown #
coedge $-1 $74 $51 $141 $145 reversed $45 $-1 #
coedge $-1 $51 $74 $131 $146 forward $45 $-1 #
attrib_edge_convexity-kcp-attrib $-1 $147 $-1 $52 1 #
vertex $-1 $145 $148 #
vertex $-1 $146 $149 #
ellipse-curve $-1 -4.25 4.0999999999999996 -4.1299999999999999 0 0 -1 0 4 0 1 I I #
model_id-kcp-attrib $-1 $-1 $-1 $54 1 990560037 50 -1775108094 4 #
face $150 $151 $152 $15 $-1 $153 reversed single #
loop $-1 $-1 $154 $54 #
plane-surface $-1 0 -8.25 0 0 1 0 0 0 1 forward_v I I I I #
coedge $-1 $155 $156 $157 $158 forward $55 $-1 #
coedge $-1 $159 $57 $160 $161 forward $35 $-1 #
coedge $-1 $57 $159 $162 $163 forward $35 $-1 #
coedge $-1 $164 $165 $57 $96 reversed $166 $-1 #
edge $-1 $167 -8.25 $168 8.25 $95 $169 forward 7 unknown #
face $-1 $170 $171 $58 $-1 $172 reversed single #
face $-1 $173 $174 $38 $-1 $65 reversed single #
loop $-1 $-1 $175 $59 #
cone-surface $-1 -4.25 4.25 -5.375 0 0 -1 -4 0 0 1 I I 0 1 4 forward I I I I #
face $-1 $176 $177 $25 $-1 $172 reversed single #
loop $-1 $-1 $178 $60 #
plane-surface $-1 0 0 -5.375 0 0 1 1 0 0 forward_v I I I I #
coedge $-1 $179 $180 $181 $182 reversed $61 $-1 #
face $-1 $183 $184 $18 $-1 $103 reversed single #
loop $-1 $-1 $111 $63 #
plane-surface $-1 0 0 5.375 0 0 1 1 0 0 forward_v I I I I #
coedge $-1 $185 $186 $110 $187 forward $64 $-1 #
coedge $-1 $188 $66 $189 $190 forward $41 $-1 #
coedge $-1 $66 $188 $108 $187 reversed $41 $-1 #
coedge $-1 $191 $192 $66 $112 forward $106 $-1 #
edge $-1 $193 0 $194 1.5707963267948966 $111 $195 forward 7 unknown #
model_id-kcp-attrib $-1 $-1 $-1 $68 1 990560037 50 -1775108095 6 #
face $196 $197 $198 $7 $-1 $199 forward single #
loop $-1 $-1 $138 $68 #
cone-surface $-1 -4.25 -4.4000000000000004 -4.1299999999999999 0 0 1 4 0 0 1 I I 0 1 4 forward I I I I #
coedge $-1 $117 $117 $71 $118 reversed $200 $-1 #
edge $-1 $201 -3.1415926535897931 $201 3.1415926535897931 $117 $202 forward 7 unknown #
coedge $-1 $203 $72 $204 $205 reversed $30 $-1 #
coedge $-1 $141 $140 $72 $121 forward $69 $-1 #
edge $206 $207 -8.5 $125 0 $120 $208 forward 7 unknown #
coedge $-1 $73 $209 $210 $211 reversed $30 $-1 #
coedge $-1 $132 $131 $73 $124 forward $133 $-1 #
edge $212 $126 -8.5 $213 0 $123 $214 forward 7 unknown #
vertex $-1 $145 $215 #
vertex $-1 $146 $216 #
ellipse-curve $-1 -4.25 4.0999999999999996 4.1299999999999999 0 0 -1 0 4 0 1 I I #
coedge $-1 $217 $76 $218 $219 forward $21 $-1 #
coedge $-1 $220 $221 $76 $130 reversed $222 $-1 #
edge $223 $135 -1.5707963267948966 $224 0 $129 $225 forward 7 unknown #
coedge $-1 $123 $77 $83 $146 reversed $133 $-1 #
coedge $-1 $77 $123 $220 $226 forward $133 $-1 #
loop $-1 $-1 $77 $227 #
attrib_edge_convexity-kcp-attrib $-1 $228 $-1 $78 1 #
vertex $-1 $226 $229 #
straight-curve $-1 4.25 8.0999999999999996 -4.1299999999999999 1 0 0 I I #
coedge $-1 $79 $217 $230 $231 forward $21 $-1 #
coedge $-1 $232 $233 $79 $139 reversed $115 $-1 #
edge $234 $235 -1.5707963267948966 $143 0 $138 $236 forward 7 unknown #
coedge $-1 $120 $80 $233 $237 reversed $69 $-1 #
coedge $-1 $80 $120 $82 $145 forward $69 $-1 #
attrib_edge_convexity-kcp-attrib $-1 $238 $-1 $81 1 #
vertex $-1 $237 $239 #
straight-curve $-1 -8.25 4.0999999999999996 -4.1299999999999999 0 1 0 I I #
edge $240 $125 -8.2599999999999998 $85 0 $141 $241 forward 7 unknown #
edge $-1 $126 -8.2599999999999998 $86 0 $131 $242 forward 7 unknown #
convexity-sys-attrib $-1 $-1 $84 $52 #
point $-1 -8.25 4.0999999999999996 -4.1299999999999999 #
point $-1 -4.25 8.0999999999999996 -4.1299999999999999 #
model_id-kcp-attrib $-1 $-1 $-1 $89 1 990560037 50 -1775108094 3 #
face $243 $244 $245 $15 $-1 $246 reversed single #
loop $-1 $-1 $247 $89 #
plane-surface $-1 -8.25 0 0 1 0 0 0 0 -1 forward_v I I I I #
coedge $-1 $248 $162 $249 $250 forward $90 $-1 #
coedge $-1 $251 $92 $248 $252 forward $55 $-1 #
coedge $-1 $92 $251 $253 $254 forward $55 $-1 #
coedge $-1 $165 $164 $92 $158 reversed $166 $-1 #
edge $-1 $255 -8.25 $256 8.25 $157 $257 forward 7 unknown #
coedge $-1 $94 $93 $258 $259 forward $35 $-1 #
coedge $-1 $260 $261 $93 $161 reversed $245 $-1 #
edge $-1 $168 -8.25 $262 8.25 $160 $263 forward 7 unknown #
coedge $-1 $154 $264 $94 $163 reversed $90 $-1 #
edge $-1 $265 -8.25 $167 8.25 $162 $266 forward 7 unknown #
coedge $-1 $157 $95 $264 $267 forward $166 $-1 #
coedge $-1 $95 $157 $260 $268 reversed $166 $-1 #
loop $-1 $-1 $164 $244 #
vertex $-1 $96 $269 #
vertex $-1 $96 $270 #
straight-curve $-1 8.25 0 5.375 0 1 0 I I #
face $-1 $271 $272 $58 $-1 $103 reversed single #
loop $-1 $-1 $273 $97 #
plane-surface $-1 8.25 0 0 -1 0 0 0 0 1 forward_v I I I I #
face $-1 $274 $275 $38 $-1 $107 forward single #
loop $-1 $-1 $276 $98 #
coedge $-1 $277 $278 $279 $280 reversed $99 $-1 #
face $-1 $281 $282 $25 $-1 $107 forward single #
loop $-1 $-1 $283 $101 #
coedge $-1 $284 $285 $286 $287 forward $102 $-1 #
coedge $-1 $288 $104 $289 $290 reversed $61 $-1 #
coedge $-1 $104 $288 $284 $291 reversed $61 $-1 #
coedge $-1 $286 $292 $104 $182 forward $293 $-1 #
edge $-1 $294 -10.75 $295 0 $104 $296 forward 7 unknown #
face $-1 $-1 $297 $18 $-1 $298 reversed single #
loop $-1 $-1 $299 $105 #
coedge $-1 $300 $108 $301 $302 reversed $64 $-1 #
coedge $-1 $108 $300 $191 $303 reversed $64 $-1 #
edge $-1 $194 -10.75 $304 0 $108 $305 forward 7 unknown #
coedge $-1 $110 $109 $299 $306 reversed $41 $-1 #
coedge $-1 $307 $308 $109 $190 reversed $297 $-1 #
edge $-1 $193 -10.75 $309 0 $189 $310 forward 7 unknown #
coedge $-1 $192 $111 $186 $303 forward $106 $-1 #
coedge $-1 $111 $191 $307 $311 forward $106 $-1 #
vertex $-1 $112 $312 #
vertex $-1 $303 $313 #
ellipse-curve $-1 -4.25 -4.25 5.375 0 0 -1 0 -4 0 1 I I #
model_id-kcp-attrib $-1 $-1 $-1 $114 1 990560037 50 -1775108095 7 #
face $314 $315 $316 $7 $-1 $317 forward single #
loop $-1 $-1 $230 $114 #
plane-surface $-1 -4.25 -8.4000000000000004 -4.1299999999999999 0 -1 0 0 0 -1 forward_v I I I I #
loop $-1 $318 $117 $319 #
vertex $-1 $118 $320 #
ellipse-curve $-1 0 0 4.1299999999999999 0 0 -1 -3 0 0 1 I I #
coedge $-1 $321 $119 $322 $323 reversed $30 $-1 #
coedge $-1 $233 $232 $119 $205 forward $115 $-1 #
edge $-1 $324 -1.5707963267948966 $207 0 $204 $325 forward 7 unknown #
model_id-kcp-attrib $-1 $326 $-1 $121 1 990560037 50 -1775108095 19 #
vertex $-1 $237 $327 #
straight-curve $-1 -8.25 4.0999999999999996 4.1299999999999999 0 1 0 I I #
coedge $-1 $122 $321 $328 $329 reversed $30 $-1 #
coedge $-1 $221 $220 $122 $211 forward $222 $-1 #
edge $-1 $213 -1.5707963267948966 $330 0 $210 $331 forward 7 unknown #
model_id-kcp-attrib $-1 $-1 $-1 $124 1 990560037 50 -1775108095 20 #
vertex $-1 $226 $332 #
straight-curve $-1 4.25 8.0999999999999996 4.1299999999999999 1 0 0 I I #
point $-1 -8.25 4.0999999999999996 4.1299999999999999 #
point $-1 -4.25 8.0999999999999996 4.1299999999999999 #
coedge $-1 $137 $128 $333 $334 forward $21 $-1 #
coedge $-1 $335 $336 $128 $219 reversed $337 $-1 #
edge $338 $224 -8.5 $339 0 $218 $340 forward 7 unknown #
coedge $-1 $210 $129 $132 $226 reversed $222 $-1 #
coedge $-1 $129 $210 $335 $341 forward $222 $-1 #
loop $-1 $-1 $129 $342 #
attrib_edge_convexity-kcp-attrib $-1 $343 $-1 $130 1 #
vertex $-1 $341 $344 #
ellipse-curve $-1 4.25 4.0999999999999996 -4.1299999999999999 0 0 -1 4 0 0 1 I I #
edge $-1 $213 -8.2599999999999998 $135 0 $132 $345 forward 7 unknown #
face $346 $319 $133 $7 $-1 $347 forward single #
convexity-sys-attrib $-1 $-1 $134 $78 #
point $-1 4.25 8.0999999999999996 -4.1299999999999999 #
coedge $-1 $348 $349 $137 $231 reversed $198 $-1 #
edge $350 $351 -8.5 $235 0 $230 $352 forward 7 unknown #
coedge $-1 $204 $138 $349 $353 reversed $115 $-1 #
coedge $-1 $138 $204 $140 $237 forward $115 $-1 #
attrib_edge_convexity-kcp-attrib $-1 $354 $-1 $139 1 #
vertex $-1 $353 $355 #
ellipse-curve $-1 -4.25 -4.4000000000000004 -4.1299999999999999 0 0 -1 -4 0 0 1 I I #
edge $356 $207 -8.2599999999999998 $143 0 $233 $357 forward 7 unknown #
convexity-sys-attrib $-1 $-1 $142 $81 #
point $-1 -8.25 -4.4000000000000004 -4.1299999999999999 #
attrib_edge_convexity-kcp-attrib $-1 $358 $-1 $145 3 #
straight-curve $-1 -8.25 4.0999999999999996 -4.1299999999999999 0 0 -1 I I #
straight-curve $-1 -4.25 8.0999999999999996 -4.1299999999999999 0 0 -1 I I #
model_id-kcp-attrib $-1 $-1 $-1 $151 1 990560037 50 -1775108094 6 #
face $359 $-1 $166 $15 $-1 $360 reversed single #
loop $-1 $-1 $260 $151 #
plane-surface $-1 0 8.25 0 0 -1 0 0 0 -1 forward_v I I I I #
coedge $-1 $361 $258 $261 $362 forward $152 $-1 #
coedge $-1 $264 $154 $155 $252 reversed $90 $-1 #
coedge $-1 $258 $361 $154 $250 reversed $152 $-1 #
edge $-1 $265 -5.375 $363 5.375 $249 $364 forward 7 unknown #
coedge $-1 $156 $155 $361 $365 forward $55 $-1 #
edge $-1 $256 -8.25 $363 8.25 $248 $366 forward 7 unknown #
coedge $-1 $261 $260 $156 $254 reversed $245 $-1 #
edge $-1 $367 -8.25 $255 8.25 $253 $368 forward 7 unknown #
vertex $-1 $158 $369 #
vertex $-1 $267 $370 #
straight-curve $-1 8.25 0 -5.375 0 -1 0 I I #
coedge $-1 $247 $249 $159 $259 reversed $152 $-1 #
edge $-1 $262 -8.25 $265 8.25 $258 $371 forward 7 unknown #
coedge $-1 $253 $160 $165 $268 forward $245 $-1 #
coedge $-1 $160 $253 $247 $362 reversed $245 $-1 #
vertex $-1 $161 $372 #
straight-curve $-1 0 8.25 5.375 -1 0 0 I I #
coedge $-1 $162 $248 $164 $267 reversed $90 $-1 #
vertex $-1 $259 $373 #
straight-curve $-1 0 -8.25 5.375 1 0 0 I I #
edge $-1 $167 -5.375 $256 5.375 $164 $374 forward 7 unknown #
edge $-1 $168 -5.375 $255 5.375 $165 $375 forward 7 unknown #
point $-1 8.25 -8.25 5.375 #
point $-1 8.25 8.25 5.375 #
face $-1 $376 $377 $58 $-1 $107 forward single #
loop $-1 $-1 $378 $170 #
coedge $-1 $379 $380 $381 $382 reversed $171 $-1 #
face $-1 $383 $384 $38 $-1 $62 reversed single #
loop $-1 $-1 $279 $173 #
coedge $-1 $385 $386 $277 $387 reversed $174 $-1 #
coedge $-1 $388 $175 $276 $387 forward $99 $-1 #
coedge $-1 $175 $388 $389 $390 reversed $99 $-1 #
coedge $-1 $391 $392 $175 $280 forward $275 $-1 #
edge $-1 $393 0 $394 1.5707963267948966 $279 $395 forward 7 unknown #
face $-1 $-1 $293 $25 $-1 $396 reversed single #
loop $-1 $-1 $397 $176 #
coedge $-1 $398 $399 $400 $401 forward $177 $-1 #
coedge $-1 $285 $178 $180 $291 forward $102 $-1 #
coedge $-1 $178 $284 $398 $402 forward $102 $-1 #
coedge $-1 $400 $181 $178 $287 reversed $293 $-1 #
edge $-1 $403 -1.5707963267948966 $295 0 $178 $404 forward 7 unknown #
coedge $-1 $180 $179 $405 $406 forward $61 $-1 #
coedge $-1 $397 $407 $179 $290 forward $282 $-1 #
edge $-1 $408 -8.25 $294 -4.25 $179 $409 forward 7 unknown #
edge $-1 $295 4.25 $410 8.25 $180 $411 forward 7 unknown #
coedge $-1 $181 $400 $397 $412 reversed $293 $-1 #
loop $-1 $-1 $292 $281 #
vertex $-1 $182 $413 #
vertex $-1 $291 $414 #
straight-curve $-1 4.25 8.25 -5.375 0 0 -1 I I #
loop $-1 $-1 $189 $183 #
plane-surface $-1 0 -8.25 0 0 1 0 0 0 1 forward_v I I I I #
coedge $-1 $415 $301 $188 $306 forward $184 $-1 #
coedge $-1 $186 $185 $416 $417 reversed $64 $-1 #
coedge $-1 $299 $415 $185 $302 forward $184 $-1 #
edge $-1 $418 -8.25 $304 -4.25 $185 $419 forward 7 unknown #
edge $-1 $194 4.25 $420 8.25 $186 $421 forward 7 unknown #
vertex $-1 $187 $422 #
straight-curve $-1 -8.25 -4.25 -5.375 0 0 -1 I I #
edge $-1 $304 -1.5707963267948966 $309 0 $299 $423 forward 7 unknown #
coedge $-1 $416 $189 $192 $311 reversed $297 $-1 #
coedge $-1 $189 $416 $415 $424 reversed $297 $-1 #
vertex $-1 $424 $425 #
straight-curve $-1 -4.25 -8.25 -5.375 0 0 -1 I I #
edge $-1 $420 -8.25 $193 -4.25 $307 $426 forward 7 unknown #
point $-1 -4.25 -8.25 5.375 #
point $-1 -8.25 -4.25 5.375 #
model_id-kcp-attrib $-1 $-1 $-1 $197 1 990560037 50 -1775108095 8 #
face $427 $342 $337 $7 $-1 $428 forward single #
loop $-1 $-1 $333 $197 #
cone-surface $-1 4.25 -4.4000000000000004 -4.1299999999999999 0 0 1 4 0 0 1 I I 0 1 4 forward I I I I #
loop $-1 $-1 $429 $319 #
face $430 $431 $200 $7 $-1 $432 forward single #
point $-1 3 0 4.1299999999999999 #
coedge $-1 $209 $203 $433 $434 reversed $30 $-1 #
coedge $-1 $349 $348 $203 $323 forward $198 $-1 #
edge $435 $436 -8.5 $324 0 $322 $437 forward 7 unknown #
vertex $-1 $353 $438 #
ellipse-curve $-1 -4.25 -4.4000000000000004 4.1299999999999999 0 0 -1 -4 0 0 1 I I #
attrib_edge_convexity-kcp-attrib $-1 $439 $206 $121 1 #
point $-1 -8.25 -4.4000000000000004 4.1299999999999999 #
coedge $-1 $336 $335 $209 $329 forward $337 $-1 #
edge $440 $330 -8.5 $441 0 $328 $442 forward 7 unknown #
vertex $-1 $341 $443 #
ellipse-curve $-1 4.25 4.0999999999999996 4.1299999999999999 0 0 -1 4 0 0 1 I I #
point $-1 4.25 8.0999999999999996 4.1299999999999999 #
coedge $-1 $444 $445 $217 $334 reversed $316 $-1 #
edge $446 $339 -1.5707963267948966 $351 0 $333 $447 forward 7 unknown #
coedge $-1 $328 $218 $221 $341 reversed $337 $-1 #
coedge $-1 $218 $328 $444 $448 forward $337 $-1 #
loop $-1 $-1 $218 $315 #
attrib_edge_convexity-kcp-attrib $-1 $449 $-1 $219 1 #
vertex $-1 $448 $450 #
straight-curve $-1 8.25 -4.4000000000000004 -4.1299999999999999 0 -1 0 I I #
edge $-1 $330 -8.2599999999999998 $224 0 $221 $451 forward 7 unknown #
face $452 $227 $222 $7 $-1 $453 forward single #
convexity-sys-attrib $-1 $-1 $223 $130 #
point $-1 8.25 4.0999999999999996 -4.1299999999999999 #
straight-curve $-1 4.25 8.0999999999999996 -4.1299999999999999 -2.15055307433444e-016 0 -1 I I #
model_id-kcp-attrib $-1 $-1 $-1 $227 1 990560037 50 -1775108095 11 #
plane-surface $-1 4.25 8.0999999999999996 -4.1299999999999999 0 1 0 0 0 1 forward_v I I I I #
coedge $-1 $322 $230 $445 $454 reversed $198 $-1 #
coedge $-1 $230 $322 $232 $353 forward $198 $-1 #
attrib_edge_convexity-kcp-attrib $-1 $455 $-1 $231 1 #
vertex $-1 $454 $456 #
straight-curve $-1 -4.25 -8.4000000000000004 -4.1299999999999999 -1 0 0 I I #
edge $457 $324 -8.2599999999999998 $235 0 $349 $458 forward 7 unknown #
convexity-sys-attrib $-1 $-1 $234 $139 #
point $-1 -4.25 -8.4000000000000004 -4.1299999999999999 #
attrib_edge_convexity-kcp-attrib $-1 $459 $-1 $237 3 #
straight-curve $-1 -8.25 -4.4000000000000004 -4.1299999999999999 0 0 -1 I I #
convexity-sys-attrib $-1 $-1 $240 $145 #
model_id-kcp-attrib $-1 $-1 $-1 $244 1 990560037 50 -1775108094 5 #
plane-surface $-1 8.25 0 0 -1 0 0 0 0 1 forward_v I I I I #
coedge $-1 $249 $247 $251 $365 reversed $152 $-1 #
edge $-1 $262 -5.375 $367 5.375 $261 $460 forward 7 unknown #
vertex $-1 $365 $461 #
straight-curve $-1 -8.25 -8.25 0 0 0 -1 I I #
edge $-1 $363 -8.25 $367 8.25 $361 $462 forward 7 unknown #
straight-curve $-1 0 -8.25 -5.375 -1 0 0 I I #
vertex $-1 $254 $463 #
straight-curve $-1 0 8.25 -5.375 1 0 0 I I #
point $-1 8.25 8.25 -5.375 #
point $-1 8.25 -8.25 -5.375 #
straight-curve $-1 -8.25 0 5.375 0 -1 0 I I #
point $-1 -8.25 8.25 5.375 #
point $-1 -8.25 -8.25 5.375 #
straight-curve $-1 8.25 -8.25 0 0 0 -1 I I #
straight-curve $-1 8.25 8.25 0 0 0 -1 I I #
face $-1 $464 $465 $58 $-1 $298 reversed single #
loop $-1 $-1 $466 $271 #
coedge $-1 $467 $468 $469 $470 forward $272 $-1 #
coedge $-1 $471 $273 $472 $473 reversed $171 $-1 #
coedge $-1 $273 $471 $467 $474 reversed $171 $-1 #
coedge $-1 $469 $475 $273 $382 forward $476 $-1 #
edge $-1 $477 -10.75 $478 0 $273 $479 forward 7 unknown #
face $-1 $-1 $480 $38 $-1 $103 reversed single #
loop $-1 $-1 $389 $274 #
coedge $-1 $481 $276 $392 $482 reversed $174 $-1 #
coedge $-1 $276 $481 $483 $484 reversed $174 $-1 #
edge $-1 $393 -10.75 $485 0 $276 $486 forward 7 unknown #
coedge $-1 $278 $277 $487 $488 reversed $99 $-1 #
coedge $-1 $489 $490 $278 $390 forward $384 $-1 #
edge $-1 $394 -10.75 $491 0 $389 $492 forward 7 unknown #
coedge $-1 $392 $279 $490 $493 forward $275 $-1 #
coedge $-1 $279 $391 $385 $482 forward $275 $-1 #
vertex $-1 $280 $494 #
vertex $-1 $493 $495 #
ellipse-curve $-1 -4.25 4.25 5.375 0 0 -1 -4 0 0 1 I I #
cone-surface $-1 4.25 4.25 -5.375 0 0 -1 0 4 0 1 I I 0 1 4 forward I I I I #
coedge $-1 $407 $289 $292 $412 forward $282 $-1 #
coedge $-1 $405 $283 $285 $402 reversed $177 $-1 #
coedge $-1 $283 $405 $407 $496 reversed $177 $-1 #
coedge $-1 $292 $286 $283 $401 reversed $293 $-1 #
edge $-1 $497 -10.75 $403 0 $283 $498 forward 7 unknown #
edge $-1 $410 -8.25 $403 -4.25 $398 $499 forward 7 unknown #
vertex $-1 $287 $500 #
ellipse-curve $-1 4.25 4.25 -5.375 0 0 1 0 4 0 1 I I #
coedge $-1 $399 $398 $288 $406 reversed $177 $-1 #
edge $-1 $408 -5.375 $410 5.375 $405 $501 forward 7 unknown #
coedge $-1 $289 $397 $399 $496 forward $282 $-1 #
vertex $-1 $496 $502 #
straight-curve $-1 0 8.25 5.375 -1 0 0 I I #
vertex $-1 $402 $503 #
straight-curve $-1 0 8.25 -5.375 1 0 0 I I #
edge $-1 $294 0 $497 1.5707963267948966 $397 $504 forward 7 unknown #
point $-1 4.25 8.25 5.375 #
point $-1 4.25 8.25 -5.375 #
coedge $-1 $301 $299 $308 $424 forward $184 $-1 #
coedge $-1 $308 $307 $300 $417 forward $297 $-1 #
edge $-1 $420 -5.375 $418 5.375 $300 $505 forward 7 unknown #
vertex $-1 $302 $506 #
straight-curve $-1 -8.25 0 -5.375 0 1 0 I I #
vertex $-1 $303 $507 #
straight-curve $-1 -8.25 0 5.375 0 -1 0 I I #
point $-1 -8.25 -4.25 -5.375 #
ellipse-curve $-1 -4.25 -4.25 -5.375 0 0 1 0 -4 0 1 I I #
edge $-1 $309 4.25 $418 8.25 $308 $508 forward 7 unknown #
point $-1 -4.25 -8.25 -5.375 #
straight-curve $-1 0 -8.25 5.375 1 0 0 I I #
model_id-kcp-attrib $-1 $-1 $-1 $315 1 990560037 50 -1775108095 9 #
plane-surface $-1 8.25 -4.4000000000000004 -4.1299999999999999 1 0 0 0 0 -1 forward_v I I I I #
coedge $-1 $429 $429 $509 $510 forward $318 $-1 #
model_id-kcp-attrib $-1 $-1 $-1 $319 1 990560037 50 -1775108095 12 #
face $511 $512 $513 $7 $-1 $514 reversed single #
cone-surface $-1 0 0 4.1299999999999999 0 0 1 3 0 0 1 I I 0 1 3 forward I I I I #
coedge $-1 $445 $444 $321 $434 forward $316 $-1 #
edge $-1 $441 -1.5707963267948966 $436 0 $433 $515 forward 7 unknown #
model_id-kcp-attrib $-1 $516 $-1 $323 1 990560037 50 -1775108095 18 #
vertex $-1 $454 $517 #
straight-curve $-1 -4.25 -8.4000000000000004 4.1299999999999999 -1 0 0 I I #
point $-1 -4.25 -8.4000000000000004 4.1299999999999999 #
convexity-sys-attrib $-1 $-1 $326 $121 #
model_id-kcp-attrib $-1 $-1 $-1 $329 1 990560037 50 -1775108095 17 #
vertex $-1 $448 $518 #
straight-curve $-1 8.25 -4.4000000000000004 4.1299999999999999 0 -1 0 I I #
point $-1 8.25 4.0999999999999996 4.1299999999999999 #
coedge $-1 $433 $333 $336 $448 reversed $316 $-1 #
coedge $-1 $333 $433 $348 $454 forward $316 $-1 #
attrib_edge_convexity-kcp-attrib $-1 $519 $-1 $334 1 #
ellipse-curve $-1 4.25 -4.4000000000000004 -4.1299999999999999 0 0 -1 0 -4 0 1 I I #
edge $-1 $441 -8.2599999999999998 $339 0 $336 $520 forward 7 unknown #
convexity-sys-attrib $-1 $-1 $338 $219 #
point $-1 8.25 -4.4000000000000004 -4.1299999999999999 #
straight-curve $-1 8.25 4.0999999999999996 -4.1299999999999999 0 0 -1 I I #
model_id-kcp-attrib $-1 $-1 $-1 $342 1 990560037 50 -1775108095 10 #
cone-surface $-1 4.25 4.0999999999999996 -4.1299999999999999 0 0 1 4 0 0 1 I I 0 1 4 forward I I I I #
edge $521 $436 -8.2599999999999998 $351 0 $445 $522 forward 7 unknown #
convexity-sys-attrib $-1 $-1 $350 $231 #
point $-1 4.25 -8.4000000000000004 -4.1299999999999999 #
attrib_edge_convexity-kcp-attrib $-1 $523 $-1 $353 3 #
straight-curve $-1 -4.25 -8.4000000000000004 -4.1299999999999999 2.15055307433444e-016 0 -1 I I #
convexity-sys-attrib $-1 $-1 $356 $237 #
straight-curve $-1 -8.25 8.25 0 0 0 -1 I I #
point $-1 -8.25 -8.25 -5.375 #
straight-curve $-1 -8.25 0 -5.375 0 1 0 I I #
point $-1 -8.25 8.25 -5.375 #
face $-1 $-1 $476 $58 $-1 $524 reversed single #
loop $-1 $-1 $525 $376 #
coedge $-1 $526 $472 $475 $527 forward $377 $-1 #
coedge $-1 $468 $378 $380 $474 forward $272 $-1 #
coedge $-1 $378 $467 $528 $529 forward $272 $-1 #
coedge $-1 $530 $381 $378 $470 reversed $476 $-1 #
edge $-1 $531 -1.5707963267948966 $478 0 $378 $532 forward 7 unknown #
coedge $-1 $380 $379 $533 $534 forward $171 $-1 #
coedge $-1 $466 $526 $379 $473 forward $377 $-1 #
edge $-1 $535 -8.25 $477 -4.25 $379 $536 forward 7 unknown #
edge $-1 $478 4.25 $537 8.25 $380 $499 forward 7 unknown #
coedge $-1 $381 $530 $466 $527 reversed $476 $-1 #
loop $-1 $-1 $475 $464 #
vertex $-1 $382 $538 #
vertex $-1 $474 $539 #
straight-curve $-1 8.25 -4.25 -5.375 0 0 -1 I I #
loop $-1 $-1 $487 $383 #
coedge $-1 $386 $385 $540 $541 forward $174 $-1 #
edge $-1 $542 -8.25 $393 -4.25 $385 $421 forward 7 unknown #
coedge $-1 $543 $487 $386 $484 forward $480 $-1 #
edge $-1 $485 4.25 $544 8.25 $386 $419 forward 7 unknown #
vertex $-1 $484 $545 #
straight-curve $-1 -8.25 4.25 -5.375 0 0 -1 I I #
coedge $-1 $483 $543 $388 $488 forward $480 $-1 #
edge $-1 $491 -1.5707963267948966 $485 0 $487 $546 forward 7 unknown #
coedge $-1 $540 $389 $543 $547 reversed $384 $-1 #
coedge $-1 $389 $540 $391 $493 reversed $384 $-1 #
vertex $-1 $390 $548 #
straight-curve $-1 -4.25 8.25 -5.375 0 0 -1 I I #
edge $-1 $394 4.25 $542 8.25 $490 $409 forward 7 unknown #
point $-1 -8.25 4.25 5.375 #
point $-1 -4.25 8.25 5.375 #
edge $-1 $497 4.25 $408 8.25 $399 $536 forward 7 unknown #
vertex $-1 $496 $549 #
straight-curve $-1 8.25 4.25 -5.375 0 0 -1 I I #
straight-curve $-1 8.25 0 -5.375 0 -1 0 I I #
point $-1 8.25 4.25 -5.375 #
straight-curve $-1 8.25 8.25 0 0 0 -1 I I #
point $-1 8.25 8.25 5.375 #
point $-1 8.25 8.25 -5.375 #
ellipse-curve $-1 4.25 4.25 5.375 0 0 -1 0 4 0 1 I I #
straight-curve $-1 -8.25 -8.25 0 0 0 -1 I I #
point $-1 -8.25 -8.25 -5.375 #
point $-1 -8.25 -8.25 5.375 #
straight-curve $-1 0 -8.25 -5.375 -1 0 0 I I #
coedge $-1 $509 $509 $429 $510 reversed $550 $-1 #
edge $-1 $551 -3.1415926535897931 $551 3.1415926535897931 $509 $552 forward 7 unknown #
model_id-kcp-attrib $-1 $-1 $-1 $431 1 990560037 50 -1775108095 13 #
face $553 $554 $555 $7 $-1 $556 forward single #
loop $-1 $550 $557 $431 #
plane-surface $-1 0 0 5.3799999999999999 0 0 1 1 0 0 forward_v I I I I #
ellipse-curve $-1 4.25 -4.4000000000000004 4.1299999999999999 0 0 -1 0 -4 0 1 I I #
attrib_edge_convexity-kcp-attrib $-1 $558 $435 $323 1 #
point $-1 4.25 -8.4000000000000004 4.1299999999999999 #
point $-1 8.25 -4.4000000000000004 4.1299999999999999 #
convexity-sys-attrib $-1 $-1 $446 $334 #
straight-curve $-1 8.25 -4.4000000000000004 -4.1299999999999999 0 2.15055307433444e-016 -1 I I #
attrib_edge_convexity-kcp-attrib $-1 $559 $-1 $454 3 #
straight-curve $-1 4.25 -8.4000000000000004 -4.1299999999999999 0 0 -1 I I #
convexity-sys-attrib $-1 $-1 $457 $353 #
cone-surface $-1 4.25 -4.25 -5.375 0 0 -1 4 0 0 1 I I 0 1 4 forward I I I I #
coedge $-1 $528 $560 $530 $561 forward $465 $-1 #
coedge $-1 $472 $466 $560 $562 forward $377 $-1 #
edge $-1 $477 0 $563 1.5707963267948966 $466 $564 forward 7 unknown #
coedge $-1 $533 $525 $468 $529 reversed $465 $-1 #
edge $-1 $537 -8.25 $531 -4.25 $528 $508 forward 7 unknown #
coedge $-1 $475 $469 $525 $561 reversed $476 $-1 #
vertex $-1 $470 $565 #
ellipse-curve $-1 4.25 -4.25 -5.375 0 0 1 4 0 0 1 I I #
coedge $-1 $560 $528 $471 $534 reversed $465 $-1 #
edge $-1 $535 -5.375 $537 5.375 $471 $566 forward 7 unknown #
vertex $-1 $473 $567 #
straight-curve $-1 8.25 0 5.375 0 1 0 I I #
vertex $-1 $534 $568 #
point $-1 8.25 -4.25 5.375 #
point $-1 8.25 -4.25 -5.375 #
coedge $-1 $490 $489 $481 $541 reversed $384 $-1 #
edge $-1 $542 -5.375 $544 5.375 $540 $569 forward 7 unknown #
vertex $-1 $493 $570 #
coedge $-1 $487 $483 $489 $547 forward $480 $-1 #
vertex $-1 $547 $571 #
point $-1 -8.25 4.25 -5.375 #
ellipse-curve $-1 -4.25 4.25 -5.375 0 0 1 -4 0 0 1 I I #
edge $-1 $544 -8.25 $491 -4.25 $489 $411 forward 7 unknown #
point $-1 -4.25 8.25 -5.375 #
point $-1 8.25 4.25 5.375 #
loop $-1 $-1 $509 $431 #
vertex $-1 $510 $572 #
ellipse-curve $-1 0 0 5.3799999999999999 0 0 -1 -3 0 0 1 I I #
model_id-kcp-attrib $-1 $-1 $-1 $512 1 990560037 50 -1775108095 14 #
face $573 $-1 $574 $7 $-1 $575 forward single #
loop $-1 $-1 $576 $512 #
plane-surface $-1 0 0 6.6200000000000001 0 0 1 1 0 0 forward_v I I I I #
coedge $-1 $557 $557 $577 $578 forward $513 $-1 #
convexity-sys-attrib $-1 $-1 $516 $323 #
convexity-sys-attrib $-1 $-1 $521 $454 #
coedge $-1 $525 $533 $526 $562 reversed $465 $-1 #
edge $-1 $563 -10.75 $531 0 $525 $579 forward 7 unknown #
edge $-1 $563 4.25 $535 8.25 $560 $426 forward 7 unknown #
vertex $-1 $562 $580 #
ellipse-curve $-1 4.25 -4.25 5.375 0 0 -1 4 0 0 1 I I #
point $-1 4.25 -8.25 -5.375 #
straight-curve $-1 8.25 -8.25 0 0 0 -1 I I #
point $-1 8.25 -8.25 5.375 #
point $-1 8.25 -8.25 -5.375 #
straight-curve $-1 -8.25 8.25 0 0 0 -1 I I #
point $-1 -8.25 8.25 5.375 #
point $-1 -8.25 8.25 -5.375 #
point $-1 3 0 5.3799999999999999 #
model_id-kcp-attrib $-1 $-1 $-1 $554 1 990560037 50 -1775108095 15 #
loop $-1 $581 $582 $554 #
cone-surface $-1 0 0 5.3799999999999999 0 0 1 4 0 0 1 I I 0 1 4 forward I I I I #
coedge $-1 $576 $576 $582 $583 reversed $555 $-1 #
coedge $-1 $577 $577 $557 $578 reversed $581 $-1 #
edge $-1 $584 -3.1415926535897931 $584 3.1415926535897931 $577 $585 forward 7 unknown #
straight-curve $-1 4.25 -8.25 -5.375 0 0 -1 I I #
point $-1 4.25 -8.25 5.375 #
loop $-1 $-1 $577 $554 #
coedge $-1 $582 $582 $576 $583 forward $574 $-1 #
edge $-1 $586 0 $586 6.2831853071795862 $582 $587 forward 7 unknown #
vertex $-1 $578 $588 #
ellipse-curve $-1 0 0 5.3799999999999999 0 0 -1 -4 0 0 1 I I #
vertex $-1 $583 $589 #
ellipse-curve $-1 0 0 6.6200000000000001 0 0 -1 4 0 0 1 I I #
point $-1 4 0 5.3799999999999999 #
point $-1 4 0 6.6200000000000001 #
End-of-ACIS-data 