106 0 1 0           
body $-1 $1 $-1 $2 #
lump $-1 $-1 $3 $0 #
transform $-1 -0.70710678118654746 0 0.70710678118654746 -0.70710678118654746 0 -0.70710678118654746 0 -1 0 -3.0052 -3.8710 4.1302 1 0 0 0 #
shell $-1 $-1 $-1 $4 $1 #
face $-1 $5 $6 $3 $-1 $7 forward single #
face $-1 $8 $9 $3 $-1 $10 reversed single #
loop $-1 $11 $12 $4 #
plane-surface $-1 0 0 -7.746000000000000441 0 0 1 1 0 0 0 I I I I #
face $-1 $13 $14 $3 $-1 $15 reversed single #
loop $-1 $16 $17 $5 #
plane-surface $-1 0 0 -8.246000000000000441 0 0 1 1 0 0 0 I I I I #
loop $-1 $18 $19 $4 #
coedge $-1 $12 $12 $20 $21 1 $6 $-1 #
face $-1 $22 $23 $3 $-1 $24 reversed single #
loop $-1 $25 $26 $8 #
cone-surface $-1 -4.25 0 -7.746000000000000441 0 0 1 0.4375 0 0 1 I I 0 1 0 I I I I #
loop $-1 $27 $28 $5 #
coedge $-1 $17 $17 $26 $29 0 $9 $-1 #
loop $-1 $30 $31 $4 #
coedge $-1 $19 $19 $32 $33 1 $11 $-1 #
coedge $-1 $20 $20 $12 $21 0 $25 $-1 #
edge $-1 $34 $34 $20 $35 0 #
face $-1 $36 $37 $3 $-1 $38 reversed single #
loop $-1 $39 $40 $13 #
cone-surface $-1 0 0 -7.746000000000000441 0 0 1 0.2184999999999999998 0 0 1 I I 0 1 0 I I I I #
loop $-1 $-1 $20 $8 #
coedge $-1 $26 $26 $17 $29 1 $14 $-1 #
loop $-1 $41 $42 $5 #
coedge $-1 $28 $28 $40 $43 0 $16 $-1 #
edge $-1 $44 $44 $26 $45 0 #
loop $-1 $46 $47 $4 #
coedge $-1 $31 $31 $48 $49 1 $18 $-1 #
coedge $-1 $32 $32 $19 $33 0 $39 $-1 #
edge $-1 $50 $50 $32 $51 0 #
vertex $-1 $21 $52 #
ellipse-curve $-1 -4.25 0 -7.746000000000000441 0 0 1 0.4375 0 0 1 I I #
face $-1 $53 $54 $3 $-1 $55 reversed single #
loop $-1 $56 $57 $22 #
cone-surface $-1 1.40999999999999992 0 -7.746000000000000441 0 0 1 0.0625 0 0 1 I I 0 1 0 I I I I #
loop $-1 $-1 $32 $13 #
coedge $-1 $40 $40 $28 $43 1 $23 $-1 #
loop $-1 $58 $59 $5 #
coedge $-1 $42 $42 $57 $60 0 $27 $-1 #
edge $-1 $61 $61 $40 $62 0 #
vertex $-1 $29 $63 #
ellipse-curve $-1 -4.25 0 -8.246000000000000441 0 0 1 -0.4375 0 0 1 I I #
loop $-1 $64 $65 $4 #
coedge $-1 $47 $47 $66 $67 1 $30 $-1 #
coedge $-1 $48 $48 $31 $49 0 $56 $-1 #
edge $-1 $68 $68 $48 $69 0 #
vertex $-1 $33 $70 #
ellipse-curve $-1 0 0 -7.746000000000000441 0 0 1 0.2184999999999999998 0 0 1 I I #
point $-1 -3.8125 0 -7.746000000000000441 #
face $-1 $71 $72 $3 $-1 $73 reversed single #
loop $-1 $74 $75 $36 #
cone-surface $-1 2.25 0 -7.746000000000000441 0 0 1 0.0625 0 0 1 I I 0 1 0 I I I I #
loop $-1 $-1 $48 $22 #
coedge $-1 $57 $57 $42 $60 1 $37 $-1 #
loop $-1 $76 $77 $5 #
coedge $-1 $59 $59 $75 $78 0 $41 $-1 #
edge $-1 $79 $79 $57 $80 0 #
vertex $-1 $43 $81 #
ellipse-curve $-1 0 0 -8.246000000000000441 0 0 1 -0.2184999999999999998 0 0 1 I I #
point $-1 -3.8125 0 -8.246000000000000441 #
loop $-1 $82 $83 $4 #
coedge $-1 $65 $65 $84 $85 1 $46 $-1 #
coedge $-1 $66 $66 $47 $67 0 $74 $-1 #
edge $-1 $86 $86 $66 $87 0 #
vertex $-1 $49 $88 #
ellipse-curve $-1 1.40999999999999992 0 -7.746000000000000441 0 0 1 0.0625 0 0 1 I I #
point $-1 0.2184999999999999998 0 -7.746000000000000441 #
face $-1 $89 $90 $3 $-1 $91 reversed single #
loop $-1 $92 $84 $53 #
cone-surface $-1 2.660000000000000142 0 -7.746000000000000441 0 0 1 0.1285000000000000031 0 0 1 I I 0 1 0 I I I I #
loop $-1 $-1 $66 $36 #
coedge $-1 $75 $75 $59 $78 1 $54 $-1 #
loop $-1 $93 $94 $5 #
coedge $-1 $77 $77 $95 $96 0 $58 $-1 #
edge $-1 $97 $97 $75 $98 0 #
vertex $-1 $60 $99 #
ellipse-curve $-1 1.40999999999999992 0 -8.246000000000000441 0 0 1 -0.0625 0 0 1 I I #
point $-1 0.2184999999999999998 0 -8.246000000000000441 #
loop $-1 $100 $101 $4 #
coedge $-1 $83 $83 $102 $103 1 $64 $-1 #
coedge $-1 $84 $84 $65 $85 0 $72 $-1 #
edge $-1 $104 $104 $84 $105 0 #
vertex $-1 $67 $106 #
ellipse-curve $-1 2.25 0 -7.746000000000000441 0 0 1 0.0625 0 0 1 I I #
point $-1 1.47249999999999992 0 -7.746000000000000441 #
face $-1 $107 $108 $3 $-1 $109 reversed single #
loop $-1 $110 $102 $71 #
cone-surface $-1 1.40999999999999992 0.4060000000000000275 -7.746000000000000441 0 0 1 0.1285000000000000031 0 0 1 I I 0 1 0 I I I I #
loop $-1 $-1 $111 $53 #
loop $-1 $112 $113 $5 #
coedge $-1 $94 $94 $114 $115 0 $76 $-1 #
coedge $-1 $95 $95 $77 $96 1 $116 $-1 #
edge $-1 $117 $117 $95 $118 0 #
vertex $-1 $78 $119 #
ellipse-curve $-1 2.25 0 -8.246000000000000441 0 0 1 -0.0625 0 0 1 I I #
point $-1 1.47249999999999992 0 -8.246000000000000441 #
loop $-1 $120 $121 $4 #
coedge $-1 $101 $101 $122 $123 1 $82 $-1 #
coedge $-1 $102 $102 $83 $103 0 $90 $-1 #
edge $-1 $124 $124 $102 $125 0 #
vertex $-1 $85 $126 #
ellipse-curve $-1 2.660000000000000142 0 -7.746000000000000441 0 0 1 0.1285000000000000031 0 0 1 I I #
point $-1 2.3125 0 -7.746000000000000441 #
face $-1 $127 $116 $3 $-1 $128 reversed single #
loop $-1 $129 $122 $89 #
cone-surface $-1 1.40999999999999992 -0.4060000000000000275 -7.746000000000000441 0 0 1 0.1285000000000000031 0 0 1 I I 0 1 0 I I I I #
loop $-1 $-1 $130 $71 #
coedge $-1 $111 $111 $131 $132 0 $92 $-1 #
loop $-1 $133 $134 $5 #
coedge $-1 $113 $113 $135 $136 0 $93 $-1 #
coedge $-1 $114 $114 $94 $115 1 $137 $-1 #
edge $-1 $138 $138 $114 $139 0 #
loop $-1 $140 $95 $107 #
vertex $-1 $96 $141 #
ellipse-curve $-1 -6 0.5620000000000000551 -8.246000000000000441 0 0 1 -0.125 0 0 1 I I #
point $-1 2.3125 0 -8.246000000000000441 #
loop $-1 $142 $143 $4 #
coedge $-1 $121 $121 $144 $145 1 $100 $-1 #
coedge $-1 $122 $122 $101 $123 0 $108 $-1 #
edge $-1 $146 $146 $122 $147 0 #
vertex $-1 $103 $148 #
ellipse-curve $-1 1.40999999999999992 0.4060000000000000275 -7.746000000000000441 0 0 1 0.1285000000000000031 0 0 1 I I #
point $-1 2.788499999999999979 0 -7.746000000000000441 #
face $-1 $149 $137 $3 $-1 $150 reversed single #
cone-surface $-1 -6 0.5620000000000000551 -7.746000000000000441 0 0 1 0.125 0 0 1 I I 0 1 0 I I I I #
loop $-1 $-1 $151 $89 #
coedge $-1 $130 $130 $152 $153 0 $110 $-1 #
coedge $-1 $131 $131 $111 $132 1 $154 $-1 #
edge $-1 $155 $155 $131 $156 0 #
loop $-1 $157 $158 $5 #
coedge $-1 $134 $134 $159 $160 0 $112 $-1 #
coedge $-1 $135 $135 $113 $136 1 $161 $-1 #
edge $-1 $162 $162 $135 $163 0 #
loop $-1 $164 $114 $127 #
vertex $-1 $115 $165 #
ellipse-curve $-1 -5.125 0.5620000000000000551 -8.246000000000000441 0 0 1 -0.125 0 0 1 I I #
loop $-1 $-1 $144 $107 #
point $-1 -5.875 0.5620000000000000551 -8.246000000000000441 #
loop $-1 $166 $167 $4 #
coedge $-1 $143 $143 $168 $169 1 $120 $-1 #
coedge $-1 $144 $144 $121 $145 0 $140 $-1 #
edge $-1 $170 $170 $144 $171 0 #
vertex $-1 $123 $172 #
ellipse-curve $-1 1.40999999999999992 -0.4060000000000000275 -7.746000000000000441 0 0 1 0.1285000000000000031 0 0 1 I I #
point $-1 1.538499999999999979 0.4060000000000000275 -7.746000000000000441 #
face $-1 $173 $161 $3 $-1 $174 reversed single #
cone-surface $-1 -5.125 0.5620000000000000551 -7.746000000000000441 0 0 1 0.125 0 0 1 I I 0 1 0 I I I I #
coedge $-1 $151 $151 $175 $176 0 $129 $-1 #
coedge $-1 $152 $152 $130 $153 1 $177 $-1 #
edge $-1 $178 $178 $152 $179 0 #
loop $-1 $-1 $131 $180 #
vertex $-1 $132 $181 #
ellipse-curve $-1 2.660000000000000142 0 -7.996000000000000441 0 0 -1 0.1285000000000000031 0 0 1 I I #
loop $-1 $182 $183 $5 #
coedge $-1 $184 $185 $186 $187 0 $133 $-1 #
coedge $-1 $159 $159 $134 $160 1 $188 $-1 #
edge $-1 $189 $189 $159 $190 0 #
loop $-1 $191 $135 $149 #
vertex $-1 $136 $192 #
ellipse-curve $-1 -5.125 -0.5620000000000000551 -8.246000000000000441 0 0 1 -0.125 0 0 1 I I #
loop $-1 $-1 $168 $127 #
point $-1 -5 0.5620000000000000551 -8.246000000000000441 #
loop $-1 $193 $194 $4 #
coedge $-1 $167 $167 $195 $196 1 $142 $-1 #
coedge $-1 $168 $168 $143 $169 0 $164 $-1 #
edge $-1 $197 $197 $168 $198 0 #
vertex $-1 $145 $199 #
ellipse-curve $-1 -6 0.5620000000000000551 -7.746000000000000441 0 0 1 0.125 0 0 1 I I #
point $-1 1.538499999999999979 -0.4060000000000000275 -7.746000000000000441 #
face $-1 $200 $188 $3 $-1 $201 reversed single #
cone-surface $-1 -5.125 -0.5620000000000000551 -7.746000000000000441 0 0 1 0.125 0 0 1 I I 0 1 0 I I I I #
coedge $-1 $175 $175 $151 $176 1 $202 $-1 #
edge $-1 $203 $203 $175 $204 0 #
loop $-1 $-1 $152 $205 #
vertex $-1 $153 $206 #
ellipse-curve $-1 1.40999999999999992 0.4060000000000000275 -7.996000000000000441 0 0 -1 0.1285000000000000031 0 0 1 I I #
face $-1 $207 $208 $3 $-1 $209 forward single #
point $-1 2.531499999999999861 0 -7.996000000000000441 #
loop $-1 $210 $211 $5 #
coedge $-1 $212 $213 $214 $215 0 $157 $-1 #
coedge $-1 $216 $158 $217 $218 0 $133 $-1 #
coedge $-1 $158 $216 $219 $220 0 $133 $-1 #
coedge $-1 $221 $222 $158 $187 1 $223 $-1 #
edge $-1 $224 $225 $186 $226 0 #
loop $-1 $227 $159 $173 #
vertex $-1 $160 $228 #
ellipse-curve $-1 -6 -0.5620000000000000551 -8.246000000000000441 0 0 1 -0.125 0 0 1 I I #
loop $-1 $-1 $195 $149 #
point $-1 -5 -0.5620000000000000551 -8.246000000000000441 #
loop $-1 $229 $230 $4 #
coedge $-1 $194 $194 $231 $232 1 $166 $-1 #
coedge $-1 $195 $195 $167 $196 0 $191 $-1 #
edge $-1 $233 $233 $195 $234 0 #
vertex $-1 $169 $235 #
ellipse-curve $-1 -5.125 0.5620000000000000551 -7.746000000000000441 0 0 1 0.125 0 0 1 I I #
point $-1 -5.875 0.5620000000000000551 -7.746000000000000441 #
face $-1 $236 $223 $3 $-1 $237 reversed single #
cone-surface $-1 -6 -0.5620000000000000551 -7.746000000000000441 0 0 1 0.125 0 0 1 I I 0 1 0 I I I I #
loop $-1 $-1 $175 $238 #
vertex $-1 $176 $239 #
ellipse-curve $-1 1.40999999999999992 -0.4060000000000000275 -7.996000000000000441 0 0 -1 0.1285000000000000031 0 0 1 I I #
face $-1 $240 $241 $3 $-1 $242 forward single #
point $-1 1.281500000000000083 0.4060000000000000275 -7.996000000000000441 #
face $-1 $238 $243 $3 $-1 $244 reversed single #
loop $-1 $154 $245 $180 #
plane-surface $-1 2.660000000000000142 0 -7.996000000000000441 0 0 -1 -1 0 0 0 I I I I #
loop $-1 $246 $247 $5 #
coedge $-1 $211 $211 $248 $249 0 $182 $-1 #
coedge $-1 $250 $183 $251 $252 0 $157 $-1 #
coedge $-1 $183 $250 $253 $254 0 $157 $-1 #
coedge $-1 $255 $256 $183 $215 1 $257 $-1 #
edge $-1 $258 $259 $214 $260 0 #
coedge $-1 $185 $184 $261 $262 0 $133 $-1 #
coedge $-1 $263 $264 $184 $218 1 $265 $-1 #
edge $-1 $225 $266 $217 $267 0 #
coedge $-1 $268 $269 $185 $220 1 $270 $-1 #
edge $-1 $271 $224 $219 $272 0 #
coedge $-1 $273 $186 $269 $274 0 $223 $-1 #
coedge $-1 $186 $273 $263 $275 1 $223 $-1 #
loop $-1 $-1 $273 $200 #
vertex $-1 $274 $276 #
vertex $-1 $275 $277 #
straight-curve $-1 3 0.75 -8.246000000000000441 1 0 0 I I #
loop $-1 $-1 $231 $173 #
point $-1 -5.875 -0.5620000000000000551 -8.246000000000000441 #
loop $-1 $-1 $278 $4 #
coedge $-1 $279 $280 $273 $281 1 $193 $-1 #
coedge $-1 $231 $231 $194 $232 0 $227 $-1 #
edge $-1 $282 $282 $231 $283 0 #
vertex $-1 $196 $284 #
ellipse-curve $-1 -5.125 -0.5620000000000000551 -7.746000000000000441 0 0 1 0.125 0 0 1 I I #
point $-1 -5 0.5620000000000000551 -7.746000000000000441 #
face $-1 $285 $270 $3 $-1 $286 reversed single #
plane-surface $-1 3 0.75 -7.746000000000000441 0 -1 0 0 0 -1 0 I I I I #
face $-1 $287 $288 $3 $-1 $289 forward single #
point $-1 1.281500000000000083 -0.4060000000000000275 -7.996000000000000441 #
face $-1 $-1 $290 $3 $-1 $291 reversed single #
loop $-1 $177 $292 $205 #
plane-surface $-1 1.40999999999999992 0.4060000000000000275 -7.996000000000000441 0 0 -1 -1 0 0 0 I I I I #
loop $-1 $293 $294 $207 #
cone-surface $-1 2.660000000000000142 0 -8.246000000000000441 0 0 -1 -0.203125 0 0 1 I I 0 1 0 I I I I #
coedge $-1 $245 $245 $294 $295 1 $208 $-1 #
loop $-1 $-1 $296 $5 #
coedge $-1 $247 $247 $297 $298 0 $210 $-1 #
coedge $-1 $248 $248 $211 $249 1 $293 $-1 #
edge $-1 $299 $299 $248 $300 0 #
coedge $-1 $213 $212 $301 $302 0 $157 $-1 #
coedge $-1 $303 $304 $212 $252 1 $305 $-1 #
edge $-1 $259 $306 $251 $307 0 #
coedge $-1 $308 $309 $213 $254 1 $310 $-1 #
edge $-1 $311 $258 $253 $312 0 #
coedge $-1 $313 $214 $309 $314 0 $257 $-1 #
coedge $-1 $214 $313 $303 $315 1 $257 $-1 #
loop $-1 $-1 $313 $316 #
vertex $-1 $314 $317 #
vertex $-1 $315 $318 #
straight-curve $-1 -1.282814294230590013 0 -8.246000000000000441 0.985375969573249022 0.1703942445846660103 0 I I #
coedge $-1 $319 $320 $216 $262 1 $321 $-1 #
edge $-1 $266 $271 $261 $322 0 #
coedge $-1 $323 $217 $222 $275 0 $265 $-1 #
coedge $-1 $217 $323 $319 $324 1 $265 $-1 #
loop $-1 $-1 $323 $325 #
vertex $-1 $324 $326 #
straight-curve $-1 3 -0.75 -8.246000000000000441 0 -1 0 I I #
coedge $-1 $327 $219 $320 $328 0 $270 $-1 #
coedge $-1 $219 $327 $221 $274 1 $270 $-1 #
loop $-1 $-1 $327 $236 #
vertex $-1 $328 $329 #
straight-curve $-1 -6.25 0.75 -8.246000000000000441 0 1 0 I I #
coedge $-1 $222 $221 $230 $281 0 $223 $-1 #
edge $-1 $224 $330 $269 $331 0 #
edge $-1 $225 $332 $263 $333 0 #
point $-1 -6.25 0.75 -8.246000000000000441 #
point $-1 3 0.75 -8.246000000000000441 #
coedge $-1 $334 $335 $313 $336 1 $229 $-1 #
coedge $-1 $337 $230 $327 $338 1 $193 $-1 #
coedge $-1 $230 $337 $323 $339 1 $193 $-1 #
edge $-1 $330 $332 $273 $340 0 #
vertex $-1 $232 $341 #
ellipse-curve $-1 -6 -0.5620000000000000551 -7.746000000000000441 0 0 1 0.125 0 0 1 I I #
point $-1 -5 -0.5620000000000000551 -7.746000000000000441 #
face $-1 $325 $321 $3 $-1 $342 reversed single #
plane-surface $-1 -6.25 0.75 -7.746000000000000441 1 0 0 0 0 -1 0 I I I I #
face $-1 $205 $343 $3 $-1 $344 reversed single #
loop $-1 $202 $345 $238 #
plane-surface $-1 1.40999999999999992 -0.4060000000000000275 -7.996000000000000441 0 0 -1 -1 0 0 0 I I I I #
loop $-1 $346 $347 $240 #
cone-surface $-1 1.40999999999999992 0.4060000000000000275 -8.246000000000000441 0 0 -1 -0.203125 0 0 1 I I 0 1 0 I I I I #
coedge $-1 $292 $292 $347 $348 1 $241 $-1 #
loop $-1 $-1 $248 $207 #
coedge $-1 $294 $294 $245 $295 0 $243 $-1 #
edge $-1 $349 $349 $294 $350 0 #
coedge $-1 $296 $296 $351 $352 0 $246 $-1 #
coedge $-1 $297 $297 $247 $298 1 $353 $-1 #
edge $-1 $354 $354 $297 $355 0 #
vertex $-1 $249 $356 #
ellipse-curve $-1 2.660000000000000142 0 -8.246000000000000441 0 0 1 0.203125 0 0 1 I I #
coedge $-1 $357 $358 $250 $302 1 $359 $-1 #
edge $-1 $306 $311 $301 $360 0 #
coedge $-1 $361 $251 $256 $315 0 $305 $-1 #
coedge $-1 $251 $361 $357 $362 1 $305 $-1 #
loop $-1 $-1 $361 $363 #
vertex $-1 $362 $364 #
ellipse-curve $-1 -1.32541285537674991 0.2463439923933120057 -8.246000000000000441 0 0 1 -0.04259856114616650258 0.2463439923933120057 0 1 I I #
coedge $-1 $365 $253 $358 $366 0 $310 $-1 #
coedge $-1 $253 $365 $255 $314 1 $310 $-1 #
loop $-1 $-1 $365 $367 #
vertex $-1 $366 $368 #
ellipse-curve $-1 -3.242687984786619904 -0.08519712229233300516 -8.246000000000000441 0 0 1 0.04259856114616630135 -0.2463439923933120057 0 1 I I #
coedge $-1 $256 $255 $278 $336 0 $257 $-1 #
edge $-1 $258 $369 $309 $370 0 #
edge $-1 $259 $371 $303 $372 0 #
face $-1 $367 $257 $3 $-1 $373 reversed single #
point $-1 -3.200089423640459785 -0.3315411146856450109 -8.246000000000000441 #
point $-1 -1.282814294230590013 0 -8.246000000000000441 #
coedge $-1 $374 $261 $264 $324 0 $321 $-1 #
coedge $-1 $261 $374 $268 $328 1 $321 $-1 #
loop $-1 $-1 $374 $285 #
straight-curve $-1 -6.25 -0.75 -8.246000000000000441 -1 0 0 I I #
coedge $-1 $264 $263 $280 $339 0 $265 $-1 #
edge $-1 $266 $375 $264 $376 0 #
face $-1 $316 $265 $3 $-1 $377 reversed single #
point $-1 3 -0.75 -8.246000000000000441 #
coedge $-1 $269 $268 $279 $338 0 $270 $-1 #
edge $-1 $271 $378 $320 $379 0 #
point $-1 -6.25 -0.75 -8.246000000000000441 #
vertex $-1 $274 $380 #
straight-curve $-1 -6.25 0.75 -7.746000000000000441 0 0 1 I I #
vertex $-1 $275 $381 #
straight-curve $-1 3 0.75 -7.746000000000000441 0 0 1 I I #
coedge $-1 $382 $278 $365 $383 1 $229 $-1 #
coedge $-1 $278 $382 $361 $384 1 $229 $-1 #
edge $-1 $369 $371 $313 $385 0 #
coedge $-1 $280 $279 $374 $386 1 $193 $-1 #
edge $-1 $378 $330 $327 $387 0 #
edge $-1 $332 $375 $323 $388 0 #
straight-curve $-1 3 0.75 -7.746000000000000441 1 0 0 I I #
point $-1 -5.875 -0.5620000000000000551 -7.746000000000000441 #
plane-surface $-1 -6.25 -0.75 -7.746000000000000441 0 1 0 0 0 1 0 I I I I #
loop $-1 $353 $389 $287 #
cone-surface $-1 1.40999999999999992 -0.4060000000000000275 -8.246000000000000441 0 0 -1 -0.203125 0 0 1 I I 0 1 0 I I I I #
coedge $-1 $345 $345 $389 $390 1 $288 $-1 #
loop $-1 $-1 $351 $240 #
coedge $-1 $347 $347 $292 $348 0 $290 $-1 #
edge $-1 $391 $391 $347 $392 0 #
vertex $-1 $295 $393 #
ellipse-curve $-1 2.660000000000000142 0 -7.996000000000000441 0 0 1 -0.203125 0 0 1 I I #
coedge $-1 $351 $351 $296 $352 1 $346 $-1 #
edge $-1 $394 $394 $351 $395 0 #
loop $-1 $-1 $297 $287 #
vertex $-1 $298 $396 #
ellipse-curve $-1 1.40999999999999992 -0.4060000000000000275 -8.246000000000000441 0 0 1 0.203125 0 0 1 I I #
point $-1 2.456875000000000142 0 -8.246000000000000441 #
coedge $-1 $397 $301 $304 $362 0 $359 $-1 #
coedge $-1 $301 $397 $308 $366 1 $359 $-1 #
loop $-1 $-1 $397 $398 #
straight-curve $-1 -3.285286545932789792 0.1611468701009790006 -8.246000000000000441 -0.985375969573249022 -0.1703942445846660103 0 I I #
coedge $-1 $304 $303 $335 $384 0 $305 $-1 #
edge $-1 $306 $399 $304 $400 0 #
face $-1 $180 $305 $3 $-1 $401 reversed single #
point $-1 -1.368011416522920021 0.4926879847866240114 -8.246000000000000441 #
coedge $-1 $309 $308 $334 $383 0 $310 $-1 #
edge $-1 $311 $402 $358 $403 0 #
face $-1 $398 $310 $3 $-1 $404 reversed single #
point $-1 -3.285286545932789792 0.1611468701009790006 -8.246000000000000441 #
vertex $-1 $314 $405 #
straight-curve $-1 -3.200089423640459785 -0.3315411146856450109 -7.746000000000000441 0 0 1 I I #
vertex $-1 $315 $406 #
straight-curve $-1 -1.282814294230590013 0 -7.746000000000000441 0 0 1 I I #
plane-surface $-1 -1.282814294230590013 0 -7.746000000000000441 0.1703942445846660381 -0.9853759695732492441 0 0 0 -1 0 I I I I #
coedge $-1 $320 $319 $337 $386 0 $321 $-1 #
vertex $-1 $324 $407 #
straight-curve $-1 3 -0.75 -7.746000000000000441 0 0 1 I I #
plane-surface $-1 3 -0.75 -7.746000000000000441 -1 0 0 0 0 1 0 I I I I #
vertex $-1 $328 $408 #
straight-curve $-1 -6.25 -0.75 -7.746000000000000441 0 0 1 I I #
point $-1 -6.25 0.75 -7.746000000000000441 #
point $-1 3 0.75 -7.746000000000000441 #
coedge $-1 $335 $334 $397 $409 1 $229 $-1 #
edge $-1 $402 $369 $365 $410 0 #
edge $-1 $371 $399 $361 $411 0 #
straight-curve $-1 -1.282814294230590013 0 -7.746000000000000441 0.985375969573249022 0.1703942445846660103 0 I I #
edge $-1 $375 $378 $374 $412 0 #
straight-curve $-1 -6.25 0.75 -7.746000000000000441 0 1 0 I I #
straight-curve $-1 3 -0.75 -7.746000000000000441 0 -1 0 I I #
coedge $-1 $389 $389 $345 $390 0 $343 $-1 #
edge $-1 $413 $413 $389 $414 0 #
vertex $-1 $348 $415 #
ellipse-curve $-1 1.40999999999999992 0.4060000000000000275 -7.996000000000000441 0 0 1 -0.203125 0 0 1 I I #
point $-1 2.456875000000000142 0 -7.996000000000000441 #
vertex $-1 $352 $416 #
ellipse-curve $-1 1.40999999999999992 0.4060000000000000275 -8.246000000000000441 0 0 1 0.203125 0 0 1 I I #
point $-1 1.20687499999999992 -0.4060000000000000275 -8.246000000000000441 #
coedge $-1 $358 $357 $382 $409 0 $359 $-1 #
face $-1 $363 $359 $3 $-1 $417 reversed single #
vertex $-1 $362 $418 #
straight-curve $-1 -1.368011416522920021 0.4926879847866240114 -7.746000000000000441 8.881784197001250351e-16 4.440892098500630106e-16 1 I I #
cone-surface $-1 -1.32541285537674991 0.2463439923933120057 -7.746000000000000441 0 0 1 0.25 0 0 1 I I 0 1 0 I I I I #
vertex $-1 $366 $419 #
straight-curve $-1 -3.285286545932789792 0.1611468701009790006 -7.746000000000000441 0 -4.996003610813200488e-16 1 I I #
cone-surface $-1 -3.242687984786619904 -0.08519712229233300516 -7.746000000000000441 0 0 1 0.25 0 0 1 I I 0 1 0 I I I I #
point $-1 -3.200089423640459785 -0.3315411146856450109 -7.746000000000000441 #
point $-1 -1.282814294230590013 0 -7.746000000000000441 #
point $-1 3 -0.75 -7.746000000000000441 #
point $-1 -6.25 -0.75 -7.746000000000000441 #
edge $-1 $399 $402 $397 $420 0 #
ellipse-curve $-1 -3.242687984786619904 -0.08519712229233300516 -7.746000000000000441 0 0 1 0.04259856114616630135 -0.2463439923933120057 0 1 I I #
ellipse-curve $-1 -1.32541285537674991 0.2463439923933120057 -7.746000000000000441 0 0 1 -0.04259856114616650258 0.2463439923933120057 0 1 I I #
straight-curve $-1 -6.25 -0.75 -7.746000000000000441 -1 0 0 I I #
vertex $-1 $390 $421 #
ellipse-curve $-1 1.40999999999999992 -0.4060000000000000275 -7.996000000000000441 0 0 1 -0.203125 0 0 1 I I #
point $-1 1.20687499999999992 0.4060000000000000275 -7.996000000000000441 #
point $-1 1.20687499999999992 0.4060000000000000275 -8.246000000000000441 #
plane-surface $-1 -3.285286545932789792 0.1611468701009790006 -7.746000000000000441 -0.1703942445846660381 0.9853759695732492441 0 0 0 1 0 I I I I #
point $-1 -1.368011416522920021 0.4926879847866240114 -7.746000000000000441 #
point $-1 -3.285286545932789792 0.1611468701009790006 -7.746000000000000441 #
straight-curve $-1 -3.285286545932789792 0.1611468701009790006 -7.746000000000000441 -0.985375969573249022 -0.1703942445846660103 0 I I #
point $-1 1.20687499999999992 -0.4060000000000000275 -7.996000000000000441 #
End-of-ACIS-data 