**ABCDEFGHIJKLMNOPQRSTUVWXYZabcdefghijklmnopqrstuvwxyz**************************
**PARASOLID !"#$%&'()*+,-./:;<=>?@[\]^_`{|}~0123456789**************************
**PART1;
MC=unknown;
MC_MODEL=unknown;
MC_ID=unknown;
OS=WindowsNT;
OS_RELEASE=4.0;
FRU=unknown;
APPL=IronCAD;
SITE=Visionary Design Systems Inc, Atlanta, GA;
USER=market;
FORMAT=text;
GUISE=transmit;
KEY=V:\ZData\nativeICS\ICS3\sliding_stop;
FILE=V:\ZData\nativeICS\ICS3\sliding_stop.X_T;
DATE=unknown;
**PART2;
SCH=SCH_1100129_11004;
USFLD_SIZE=0;
**PART3;
**END_OF_HEADER*****************************************************************
T51 : TRANSMIT FILE created by modeller version 110012917 SCH_1100129_110040 12
 1 1862 0 0 0 0 0 0 1e3 1e-8 0 2 0 1 0 1 1 3 4 5 6 7 8 9 13 3 138 0 1 0 10 0 0 1
1 0 59 4 1165 0 1 12 0 13 +0 14 30 5 1218 0 8 15 0 0 -.02916514884849455 .032280
01876436635 .0725398323871391 333066907387547e-30 -1 -368115564236563e-30 29 6 1
214 0 9 16 0 .02916514884849455 .02974001876436635 .0725398323871391 19 7 1 0 1
 11 0 17 V16 8 1216 0 ?18 0 19 5 0 0 1 18 9 1212 0 18 0 20 6 ?1 17 18 0 21 22 23
 9 24 8 0 25 +18 20 1208 0 22 9 26 16 ?1 17 22 0 21 27 18 20 25 19 0 28 +18 26 1
199 0 29 20 30 31 ?1 29 16 1210 0 20 31 6 -.01020485115150546 .02974001876436635
 .0725398323871391 29 31 1201 0 26 32 16 .02916514884849455 .03228001876436635 .
0890498323871391 29 32 1197 0 30 33 31 -.01020485115150544 .03228001876436635 .0
890498323871391 18 30 1195 0 34 26 35 32 ?1 29 33 1193 0 35 36 32 .0291651488484
9455 .03228001876436635 .0750798323871391 18 35 1191 0 37 30 38 33 ?1 29 36 1190
 0 38 39 33 -.01020485115150546 .03228001876436635 .0750798323871391 18 38 1188
 0 40 35 41 36 ?1 29 39 1181 0 41 42 36 .02916514884849455 .0487900187643664 .09
15898323871391 18 41 1179 0 43 38 44 39 ?1 29 42 1177 0 44 45 39 -.0102048511515
0546 .0487900187643664 .0915898323871391 18 44 1175 0 46 41 47 42 ?1 29 45 1173
 0 47 48 42 .02916514884849455 .03482001876436635 .0915898323871391 18 47 1171 0
 49 44 50 45 ?1 29 48 1170 0 50 51 45 -.01020485115150544 .03482001876436635 .09
15898323871391 18 50 1168 0 52 47 53 48 ?1 29 51 1159 0 53 54 48 .02939135275291
625 .00931543465536241 .0725991385250609 18 53 1157 0 55 50 56 51 ?1 29 54 1148
 0 56 57 51 -.01043105505592688 .0093154346553632 .0725991385250607 18 56 1146 0
 58 53 59 54 ?1 29 57 1145 0 59 60 54 .02916514884849455 .01001531353089546 .072
5398323871391 18 59 1143 0 61 56 62 57 ?1 29 60 1142 0 62 63 57 -.01020485115150
544 .01001531353089546 .0725398323871391 18 62 1140 0 27 59 64 60 ?1 29 63 1131
 0 64 65 60 .02916514884849455 .0513300187643664 .0890498323871391 18 64 1129 0
 66 62 67 63 ?1 29 65 1128 0 67 68 63 -.01020485115150546 .0513300187643664 .089
0498323871391 18 67 1126 0 69 64 70 65 ?1 29 68 1119 0 70 71 65 -.01274485115150
55 .01544811875000935 -.001120167612860912 18 70 1117 0 72 67 73 68 ?1 29 71 111
5 0 73 74 68 -.01274485115150546 .0487900187643664 .0730014569956702 18 73 1113
 0 75 70 76 71 ?1 29 74 1111 0 76 77 71 -.01274485115150546 .0487900187643664 .0
890498323871391 18 76 1109 0 78 73 79 74 ?1 29 77 1107 0 79 80 74 -.012744851151
50546 .03482001876436635 .0890498323871391 18 79 1105 0 81 76 82 77 ?1 29 80 110
3 0 82 83 77 -.01274485115150546 .03482001876436635 .0750798323871391 18 82 1101
 0 84 79 85 80 ?1 29 83 1099 0 85 86 80 -.01274485115150546 .02974001876436635 .
0699998323871391 18 85 1097 0 87 82 88 83 ?1 29 86 1094 0 88 89 83 -.01274485115
150546 .01001531353089546 .0699998323871391 18 88 1092 0 90 85 91 86 ?1 29 89 10
85 0 91 92 86 .0291651488484945 .01713319825637805 -.00302072202071569 18 91 108
3 0 93 88 94 89 ?1 29 92 1081 0 94 95 89 -.0102048511515055 .01713319825637805 -
.00302072202071568 18 94 1079 0 96 91 97 92 ?1 29 95 1078 0 97 98 92 .0291651488
4849455 .0513300187643664 .0730014570214797 18 97 1076 0 99 94 100 95 ?1 29 98 1
075 0 100 101 95 -.01020485115150546 .0513300187643664 .0730014570214797 18 100
 1073 0 102 97 103 98 ?1 29 101 1066 0 103 104 98 .0317051488484945 .01544811875
00094 -.001120167612860892 18 103 1064 0 105 100 106 101 ?1 29 104 1062 0 106 10
7 101 .03170514884849455 .0487900187643664 .0730014569956701 18 106 1060 0 108 1
03 109 104 ?1 29 107 1058 0 109 110 104 .03170514884849455 .0487900187643664 .08
90498323871391 18 109 1056 0 111 106 112 107 ?1 29 110 1051 0 112 113 107 .03170
514884849455 .0348200187643664 .0890498323871391 18 112 1049 0 114 109 115 110 ?
1 29 113 1047 0 115 116 110 .03170514884849455 .0348200187643664 .07507983238713
91 18 115 1045 0 117 112 118 113 ?1 29 116 1043 0 118 119 113 .03170514884849455
 .01001531353089546 .0699998323871391 18 118 1041 0 120 115 121 116 ?1 29 119 10
40 0 121 122 116 .03170514884849455 .02974001876436635 .0699998323871391 18 121
 1038 0 123 118 124 119 ?1 29 122 1026 0 124 125 119 -.01274485115150546 .008818
85660885782 .0701184446629823 18 124 1024 0 126 121 127 122 ?1 29 125 1023 0 127
 128 122 -.01274485115150548 .00881885660885782 -.001120167612860902 18 127 1021
 0 129 124 130 125 ?1 29 128 1009 0 130 131 125 .0317051488484945 .0088188566088
578 -.001120167612860902 18 130 1007 0 132 127 133 128 ?1 29 131 1006 0 133 134
 128 .03170514884849455 .0088188566088578 .0701184446629825 18 133 1004 0 135 13
0 136 131 ?1 29 134 993 0 136 137 131 -.01511131077883465 .00452431371747979 -.0
01120167612860902 18 136 991 0 138 133 139 134 ?1 29 137 990 0 139 140 134 .0340
7160847582375 .00452431371747978 -.001120167612860902 18 139 988 0 141 136 142 1
37 ?1 29 140 979 0 142 143 137 .0291651488484945 .0088188566088578 -.00366016761
2860905 18 142 977 0 144 139 145 140 ?1 29 143 975 0 145 146 140 .02916514884849
45 .01544811875000935 -.003660167612860905 18 145 973 0 147 142 148 143 ?1 29 14
6 971 0 148 149 143 -.0102048511515055 .01544811875000935 -.003660167612860905 1
8 148 969 0 150 145 151 146 ?1 29 149 968 0 151 152 146 -.01020485115150548 .008
81885660885782 -.003660167612860905 18 151 966 0 153 148 154 149 ?1 29 152 965 0
 154 155 149 .0384518735677015 .001383372178749396 -.003660167612860905 18 154 9
63 0 156 151 157 152 ?1 29 155 962 0 157 158 152 -.0194915758707124 .00138337217
8749404 -.003660167612860905 18 157 960 0 159 154 160 155 ?1 29 158 857 0 160 16
1 155 .03407160847582375 .00452431371747978 .0750798323871391 18 160 855 0 162 1
57 163 158 ?1 29 161 853 0 163 164 158 -.01511131077883465 .00452431371747979 .0
750798323871391 18 163 851 0 165 160 166 161 ?1 29 164 737 0 166 167 161 -.01994
58820793405 .001010669585726714 .0852398323871391 18 166 735 0 168 163 169 164 ?
1 29 167 729 0 169 170 164 -.0199458820793405 .001010669585726714 -.003660167612
860905 18 169 727 0 171 166 172 167 ?1 29 170 721 0 172 173 167 -.02544485115150
545 -.01070982172065464 .0852398323871391 18 172 719 0 174 169 175 170 ?1 29 173
 718 0 175 176 170 -.02544485115150545 -.01070982172065464 -.003660167612860905
 18 175 716 0 177 172 178 173 ?1 29 176 670 0 178 179 173 .04440514884849455 -.0
1070982172065464 .0852398323871391 18 178 668 0 180 175 181 176 ?1 29 179 662 0
 181 182 176 .04440514884849455 -.01070982172065464 -.003660167612860905 18 181
 660 0 183 178 184 179 ?1 29 182 654 0 184 185 179 .0389061797763296 .0010106695
85726714 -.003660167612860905 18 184 652 0 186 181 187 182 ?1 29 185 651 0 187 1
88 182 .0389061797763296 .001010669585726714 .0852398323871391 18 187 649 0 189
 184 190 185 ?1 29 188 38 0 190 191 185 .03805514884849455 -.02486998123563365 .
0852398323871391 18 190 35 0 192 187 193 188 ?1 29 191 33 0 193 194 188 -.019094
85115150545 -.02486998123563365 .0852398323871391 18 193 30 0 195 190 196 191 ?1
 29 194 28 0 196 197 191 -.01359558983747426 -.03439498123563365 .08523983238713
91 18 196 25 0 198 193 199 194 ?1 29 197 23 0 199 200 194 -.02544485115150545 -.
03439498123563365 .0852398323871391 18 199 20 0 201 196 202 197 ?1 29 200 8 0 20
2 203 197 .04440514884849455 -.03439498123563365 .0852398323871391 18 202 5 0 20
4 199 205 200 ?1 29 203 4 0 205 206 200 .03255588753446335 -.03439498123563365 .
0852398323871391 18 205 2 0 207 202 208 203 ?1 29 206 90 0 208 209 203 .03805514
884849455 -.02486998123563365 -.003660167612860905 18 208 73 0 210 205 211 206 ?
1 29 209 91 0 211 212 206 -.01909485115150545 -.02486998123563365 -.003660167612
860905 18 211 74 0 213 208 214 209 ?1 29 212 92 0 214 215 209 -.0135955898374742
6 -.03439498123563365 -.003660167612860905 18 214 75 0 216 211 217 212 ?1 29 215
 93 0 217 218 212 -.02544485115150545 -.03439498123563365 -.003660167612860905 1
8 217 76 0 219 214 220 215 ?1 29 218 96 0 220 221 215 .04440514884849455 -.03439
498123563365 -.003660167612860905 18 220 79 0 222 217 223 218 ?1 29 221 97 0 223
 0 218 .03255588753446335 -.03439498123563365 -.003660167612860905 18 223 80 0 2
24 220 0 221 ?1 17 224 0 225 226 227 223 222 228 0 229 -15 225 56 0 144 230 231
 17 226 0 225 232 224 208 233 234 0 0 -17 227 0 225 224 183 220 235 236 0 0 -17
 222 0 237 238 229 220 224 228 0 239 +16 228 69 0 ?222 236 234 240 0 0 1 17 229
 0 237 222 207 223 241 242 0 233 +15 237 118 0 222 243 0 17 207 0 237 229 238 20
5 204 244 0 245 -17 241 0 246 247 233 205 229 242 0 0 -16 242 105 0 ?229 248 249
 250 0 0 1 17 233 0 246 241 251 223 226 234 0 0 +15 246 120 0 233 252 0 17 251 0
 246 233 247 208 253 254 0 226 +16 234 71 0 ?233 228 255 256 0 0 1 16 255 1074 0
 ?257 234 258 259 0 0 1 30 256 82 0 234 260 261 0 +.03805514884849455 -.02486998
123563365 -.003660167612860905 -.5 -.866025403784439 0 30 260 83 0 262 263 256 0
 +-.01909485115150545 -.02486998123563365 -.003660167612860905 1 0 0 30 261 7 0
 244 256 264 0 +.03255588753446335 -.03439498123563365 .0852398323871391 1 0 0 1
6 244 6 0 ?204 265 266 261 0 0 1 30 264 12 0 265 261 267 0 +.04440514884849455 -
.03439498123563365 .0852398323871391 0 1 0 16 265 11 0 ?268 269 244 264 0 0 1 31
 267 17 0 269 264 270 0 +.00948014884849455 -.0343949812356336 .0852398323871391
 0 0 1 1 0 0 .0460375 16 269 650 0 ?271 272 265 267 0 0 1 30 270 22 0 272 267 27
3 0 +-.02544485115150545 -.004400051976673875 .0852398323871391 0 -1 0 16 272 72
0 0 ?201 274 269 270 0 0 1 30 273 27 0 274 270 275 0 +-.02544485115150545 -.0343
9498123563365 .0852398323871391 1 0 0 16 274 26 0 ?198 276 272 273 0 0 1 30 275
 32 0 276 273 277 0 +-.01359558983747426 -.03439498123563365 .0852398323871391 -
.5 .866025403784439 0 16 276 31 0 ?195 278 274 275 0 0 1 30 277 37 0 278 275 279
 0 +-.01909485115150545 -.02486998123563365 .0852398323871391 1 0 0 16 278 36 0
 ?192 254 276 277 0 0 1 30 279 41 0 266 277 280 0 +.03805514884849455 -.02486998
123563365 .0852398323871391 -.5 -.866025403784439 0 16 266 40 0 ?245 244 262 279
 0 0 1 30 280 122 0 254 279 281 0 +.03805514884849455 -.02486998123563365 .08523
98323871391 0 0 -1 16 254 98 0 ?251 282 278 280 0 0 1 30 281 123 0 282 280 283 0
 +-.01909485115150545 -.02486998123563365 .0852398323871391 0 0 -1 16 282 99 0 ?
284 285 254 281 0 0 1 30 283 124 0 285 281 286 0 +-.01359558983747426 -.03439498
123563365 .0852398323871391 0 0 -1 16 285 100 0 ?287 288 282 283 0 0 1 30 286 12
5 0 288 283 289 0 +-.02544485115150545 -.03439498123563365 .0852398323871391 0 0
 -1 16 288 101 0 ?290 249 285 286 0 0 1 30 289 128 0 249 286 250 0 +.04440514884
849455 -.03439498123563365 .0852398323871391 0 0 -1 16 249 104 0 ?239 242 288 28
9 0 0 1 30 250 129 0 242 289 291 0 +.03255588753446335 -.03439498123563365 .0852
398323871391 0 0 -1 30 291 486 0 248 250 292 0 -.03170514884849455 .008818856608
8578 .0852398323871391 388578058618805e-30 1294224922628222e-46 1 16 248 1005 0
 ?293 294 242 291 0 0 1 30 292 498 0 294 291 295 0 -.03407160847582375 .00452431
371747978 .0852398323871391 0 0 -1 16 294 989 0 ?296 297 248 292 0 0 1 30 295 57
0 0 297 292 298 0 +-.01511131077883465 .00452431371747979 .0852398323871391 0 0
 -1 16 297 568 0 ?299 300 294 295 0 0 1 30 298 581 0 300 295 301 0 --.0127448511
5150546 .00881885660885782 .0730014559890972 -388578058618805e-30 -1294224922628
222e-46 -1 16 300 1022 0 ?302 303 297 298 0 0 1 30 301 657 0 303 298 304 0 +.038
9061797763296 .001010669585726714 .0852398323871391 0 0 -1 16 303 655 0 ?305 306
 300 301 0 0 1 31 304 665 0 306 301 307 0 -.02916514884849455 -.0107098217206546
4 -.003660167612860905 0 0 1 1 0 0 .01524 16 306 663 0 ?183 308 303 304 0 0 1 30
 307 673 0 308 304 309 0 -.04440514884849455 -.01070982172065464 .08523983238713
91 0 0 -1 16 308 671 0 ?180 310 306 307 0 0 1 31 309 678 0 310 307 311 0 +.02916
514884849455 -.01070982172065464 .0852398323871391 0 0 1 1 0 0 .01524 16 310 676
 0 ?189 312 308 309 0 0 1 30 311 724 0 312 309 313 0 +-.02544485115150545 -.0107
0982172065464 .0852398323871391 0 0 -1 16 312 722 0 ?314 315 310 311 0 0 1 31 31
3 732 0 315 311 316 0 --.01020485115150546 -.01070982172065464 -.003660167612860
905 0 0 1 1 0 0 .01524 16 315 730 0 ?317 318 312 313 0 0 1 30 316 740 0 318 313
 319 0 --.0199458820793405 .001010669585726714 .0852398323871391 0 0 -1 16 318 7
38 0 ?168 320 315 316 0 0 1 31 319 745 0 320 316 321 0 +-.01020485115150546 -.01
070982172065464 .0852398323871391 0 0 1 1 0 0 .01524 16 320 743 0 ?174 322 318 3
19 0 0 1 31 321 848 0 322 319 323 0 +.00948014884849455 -.0343949812356336 .0725
398323871391 -3330669073875475e-31 368115564236563e-30 -1 0 1 368115564236563e-3
0 .0485775 16 322 1141 0 ?23 324 320 321 0 0 1 31 323 858 0 324 321 325 0 -.0094
8014884849455 -.0343949812356336 .0750798323871391 -3330669073875475e-31 3681155
64236563e-30 -1 0 1 368115564236563e-30 .0460375 16 324 856 0 ?326 327 322 323 0
 0 1 30 325 972 0 327 323 328 0 +-.01020485115150546 -.0343949812356336 -.003660
167612860905 -333066907387547e-30 1 0 16 327 970 0 ?150 329 324 325 0 0 1 30 328
 976 0 329 325 330 0 +.00948014884849453 .01544811875000935 -.003660167612860905
 1 333066907387547e-30 0 16 329 974 0 ?147 331 327 328 0 0 1 30 330 980 0 331 32
8 332 0 -.02916514884849455 -.0343949812356336 -.003660167612860905 -33306690738
7547e-30 1 0 16 331 978 0 ?144 333 329 330 0 0 1 31 332 982 0 333 330 334 0 +-.0
1782485115150545 .00881885660885782 -.003660167612860905 0 0 1 1 0 0 .00762 16 3
33 981 0 ?153 335 331 332 0 0 1 31 334 985 0 335 332 336 0 +.03678514884849455 .
00881885660885781 -.003660167612860905 0 0 1 1 0 0 .00762 16 335 983 0 ?337 338
 333 334 0 0 1 38 336 996 0 338 334 339 0 -340 341 342 343 344 16 338 994 0 ?159
 345 335 336 0 0 1 38 339 1001 0 345 336 346 0 +347 340 348 349 350 51 340 134 0
 351 352 353 354 -.00948014884849455 -.0343949812356336 .0852398323871391 0 0 -1
 .0460375 -1 0 0 54 341 1452 0 355 356 357 358 +-.01782485115150545 .00881885660
885782 -.001120167612860902 0 0 1 .00762 .00254 1 0 0 40 4 342 0 1 4 .0004508691
46863156 .3228086003289575 ??-.0194915758707124 .001383372178749404 -.0036601676
12860905 -.01823303502679315 .002366831093799945 -.003382334787733055 -.01624689
47989231 .003783162137425615 -.002101283603603225 -.01512048068380215 .004518518
12981401 -.001128250324004492 41 1 343 L-.0194915758707124 .001383372178749404 -
.003660167612860905 41 2 344 T-.01511131077883465 .00452431371747978 -.001120167
612860902 -.01512048068380215 .00451851812981401 -.001128250324004492 14 355 127
3 0 ?359 360 361 3 341 +0 0 359 360 17 53 356 1453 0 359 362 341 0 +.02916514884
849455 .0487900187643664 .0890498323871391 .00254 0 0 1 1 0 0 51 357 1451 0 360
 341 363 0 +-.01020485115150546 .0487900187643664 .0730014570214797 -38857805861
8805e-30 -333066907387547e-30 -1 .00254 -1 0 388578058618805e-30 141 358 336 358
 358 341 14 360 1271 0 ?355 364 365 3 357 +0 0 355 364 17 51 363 1450 0 364 357
 366 0 +-.01274485115150546 .0487900187643664 .0890498323871391 1 38857805861880
5e-30 -333066907387547e-30 .00254 -388578058618805e-30 1 0 14 364 1269 0 ?360 36
7 368 3 363 +0 0 360 367 17 51 366 1449 0 367 363 369 0 +.02916514884849455 -.05
02699835017509 .0890498323871391 333066907387547e-30 -1 388578058618805e-30 .002
54 0 -388578058618805e-30 -1 14 367 1267 0 ?364 370 371 3 366 +0 0 364 370 17 53
 369 1448 0 370 366 372 0 +-.01020485115150546 .0487900187643664 .08904983238713
91 .00254 0 0 1 1 0 0 14 370 1265 0 ?367 373 374 3 369 +0 0 367 373 17 53 372 14
47 0 373 369 375 0 +.02916514884849455 .03482001876436635 .0890498323871391 .002
54 0 0 1 1 0 0 14 373 1263 0 ?370 376 377 3 372 +0 0 370 376 17 51 375 1446 0 37
6 372 378 0 +-.01020485115150546 .0513300187643664 .0890498323871391 -3330669073
87547e-30 1 -388578058618805e-30 .00254 0 388578058618805e-30 1 14 376 1259 0 ?3
73 379 380 3 375 +0 0 373 379 17 51 378 1445 0 379 375 381 0 +-.0127448511515054
6 .03482001876436635 .0890498323871391 1 388578058618805e-30 -333066907387547e-3
0 .00254 -388578058618805e-30 1 0 14 379 1257 0 ?376 382 383 3 378 +0 0 376 382
 17 51 381 1444 0 382 378 384 0 +.02916514884849455 .0348200187643664 .073001455
9890971 -388578058618805e-30 -333066907387547e-30 -1 .00254 -1 0 388578058618805
e-30 14 382 1255 0 ?379 385 386 3 381 +0 0 379 385 17 53 384 1443 0 385 381 387
 0 +-.01020485115150544 .03482001876436635 .0890498323871391 .00254 0 0 1 1 0 0
 14 385 1253 0 ?382 388 389 3 384 +0 0 382 388 17 54 387 1442 0 388 384 390 0 +.
02916514884849455 .02974001876436635 .0750798323871391 -1 -333066907387547e-30 3
88578058618805e-30 .00508 .00254 388578058618805e-30 0 1 14 388 1251 0 ?385 391
 392 3 387 +0 0 385 391 17 51 390 1441 0 391 387 393 0 +-.01020485115150544 .034
82001876436635 .0915898323871391 388578058618805e-30 333066907387547e-30 1 .0025
4 1 0 -388578058618805e-30 14 391 1247 0 ?388 394 395 3 390 +0 0 388 394 17 51 3
93 1440 0 394 390 396 0 +-.01274485115150546 .02974001876436635 .075079832387139
1 -1 -388578058618805e-30 333066907387547e-30 .00254 388578058618805e-30 -1 0 14
 394 1245 0 ?391 397 398 3 393 -0 0 391 397 17 51 396 1439 0 397 393 399 0 +.029
16514884849455 -.0502699835017509 .0699998323871391 333066907387547e-30 -1 -3681
15564236563e-30 .00254 0 368115564236563e-30 -1 14 397 1243 0 ?394 400 401 3 396
 +0 0 394 400 17 54 399 1438 0 400 396 402 0 +-.01020485115150546 .0297400187643
6635 .0750798323871391 -1 -333066907387547e-30 388578058618805e-30 .00508 .00254
 388578058618805e-30 0 1 14 400 1241 0 ?397 403 404 3 399 +0 0 397 403 17 56 402
 1437 0 403 399 405 406 +R407 408 409 .00254 .00254 1 1 0 0 0 0 14 403 1239 0 ?4
00 410 411 3 402 +0 0 400 410 17 54 405 1436 0 1 402 412 413 +.00948014884849455
 -.0343949812356336 .0750798323871391 -3330669073875475e-31 368115564236563e-30
 -1 .0485775 .00508 0 1 368115564236563e-30 141 406 414 415 415 402 54 407 913 0
 416 417 418 419 +.00948014884849455 -.0343949812356336 .0750798323871391 -33306
69073875475e-31 368115564236563e-30 -1 .0485775 .00254 0 1 368115564236563e-30 5
0 408 369 0 420 421 422 423 +.03170514884849455 -.0502699835017509 .073001455989
0971 -1 -333066907387547e-30 388578058618805e-30 -388578058618805e-30 1 -3330669
07387547e-30 38 409 1468 0 1 424 425 426 +405 412 427 428 429 31 424 1469 0 430
 431 409 0 +.02916514884849455 .00881885660885648 .0701184446629826 -17210686653
5022e-27 .980547270617838 -.1962830865966505 0 .1962830865966505 .98054727061783
8 .00254 31 425 1467 0 432 409 433 0 +-.01020485115150544 .01001531353089546 .06
99998323871391 0 1 0 0 0 1 .00254 141 426 402 426 426 409 50 412 1435 0 1 405 43
4 435 +.02916514884849455 -.0502699835017509 .0730014559890971 -1 -3330669073875
47e-30 388578058618805e-30 -388578058618805e-30 1 -333066907387547e-30 40 4 427
 -.00199849158485545 1.008883315276422 4 .0003320744933503665 .3341221837984505
 ??.02916514884849455 .00696696507486357 .0708216099718731 .02916514884849455 .0
088188566088578 .0701184446629823 .02916514884849455 .01001531353089546 .0699998
323871391 .02916514884849455 .01196928830101934 .070326616039623 41 1 428 L.0291
6514884849455 .00696696507486357 .0708216099718731 41 1 429 L.02916514884849455
 .01196928830101934 .070326616039623 51 434 1434 0 410 412 14 0 +-.0102048511515
0546 .03228001876436635 .0699998323871391 -333066907387547e-30 1 368115564236563
e-30 .00254 0 -368115564236563e-30 1 141 435 409 435 435 412 14 410 1235 0 ?403
 436 437 3 434 +0 0 403 436 17 56 14 1433 0 436 434 438 439 +R440 407 433 .00254
 .00254 1 1 0 0 0 0 14 436 1233 0 ?410 441 442 3 14 +0 0 410 441 17 51 438 1432
 0 1 14 443 444 +.03678514884849455 .00881885660885781 .0852398323871391 0 0 -1
 .00762 -1 0 0 141 439 445 446 446 14 51 440 538 0 447 448 421 449 +.03678514884
849455 .00881885660885781 .0852398323871391 0 0 -1 .00508 -1 0 0 38 433 1466 0 1
 425 450 451 +438 443 452 453 454 31 450 1465 0 455 433 456 0 +-.010204851151505
44 .00881885660885782 .0701184446629823 -669676523482605e-30 .980547270617879 -.
196283086596446 0 .196283086596446 .980547270617879 .00254 141 451 14 451 451 43
3 54 443 1431 0 1 438 457 458 +.00948014884849455 -.0343949812356336 .0750798323
871391 -3330669073875475e-31 368115564236563e-30 -1 .0485775 .00508 0 1 36811556
4236563e-30 40 5 452 -.001496648726034956 .995369824389392 5 .000794473169237804
 .3519817329270955 ??.0293127349640401 .0103113145611674 .0700105893929293 .0291
6514884849455 .00881885660885719 .0701184446629825 .0294150063354446 .0068835531
8630783 .0708004502299105 .030351709064489 .0047353222884958 .0722650108426429 .
03270464862592555 .00238349197788202 .0750691583010411 41 1 453 L.02931273496404
01 .0103113145611674 .0700105893929293 41 2 454 T.03271483828948835 .00237704227
1790755 .0750798323871391 .03270464862592555 .00238349197788202 .075069158301041
1 56 457 1430 0 441 443 459 460 +R407 422 456 .00254 -.00254 1 1 0 0 0 0 141 458
 433 458 458 443 14 441 1231 0 ?436 461 462 3 457 +0 0 436 461 17 54 459 1429 0
 1 457 463 464 +.00948014884849455 -.0343949812356336 .0750798323871391 -3330669
073875475e-31 368115564236563e-30 -1 .0485775 .00508 0 1 368115564236563e-30 141
 460 465 466 466 457 50 422 368 0 467 408 468 469 +-.01274485115150542 -.0502699
835017509 .0730014559890972 -1 -333066907387547e-30 388578058618805e-30 -3885780
58618805e-30 1 -333066907387547e-30 38 456 1464 0 1 450 470 471 -459 463 472 473
 474 38 470 1463 0 1 456 475 476 -477 417 478 479 480 141 471 457 471 471 456 50
 463 1428 0 1 459 481 482 +-.01020485115150542 -.0502699835017509 .0730014559890
972 -1 -333066907387547e-30 388578058618805e-30 -388578058618805e-30 1 -33306690
7387547e-30 40 4 472 -.001998491584855445 1.008883315276422 4 .00033207449335036
55 .334122183798451 ??-.01020485115150544 .00696696507486359 .0708216099718731 -
.01020485115150544 .00881885660885782 .0701184446629823 -.01020485115150544 .010
01531353089546 .0699998323871391 -.01020485115150544 .01196928830101932 .0703266
16039623 41 1 473 L-.01020485115150544 .00696696507486359 .0708216099718731 41 1
 474 L-.01020485115150544 .01196928830101932 .070326616039623 56 481 1427 0 461
 463 477 483 +R448 407 470 .00254 .00254 1 1 0 0 0 0 141 482 456 482 482 463 14
 461 1229 0 ?441 416 484 3 481 +0 0 441 416 17 54 477 1426 0 1 481 417 485 +.009
48014884849455 -.0343949812356336 .0750798323871391 -3330669073875475e-31 368115
564236563e-30 -1 .0485775 .00508 0 1 368115564236563e-30 141 483 486 487 487 481
 51 448 621 0 488 489 440 490 +-.01782485115150545 .00881885660885782 .085239832
3871391 0 0 -1 .00508 -1 0 0 14 488 609 0 ?491 447 492 3 448 -0 0 491 447 17 51
 489 696 0 491 418 448 0 +.02916514884849455 -.01070982172065464 .08523983238713
91 0 0 -1 .01524 -1 0 0 141 490 493 494 494 448 38 493 1029 0 495 496 497 0 -486
 448 498 499 500 141 494 481 490 490 448 16 495 1027 0 ?126 501 502 493 0 0 1 31
 496 1018 0 502 346 493 0 -.03678514884849455 .00881885660885781 -.0011201676128
60902 0 0 1 1 0 0 .00508 31 497 1035 0 501 493 503 0 --.01782485115150545 .00881
885660885782 -.001120167612860902 0 0 1 1 0 0 .00508 59 486 1030 0 1 445 414 504
 +1 481 40 5 498 0 1 5 .0003225806997820055 .3808970718402665 ??-.01274485115150
544 .00881885660885782 .0701184446629823 -.01288507329543204 .00763353187164579
 .0707232629962283 -.01342321674322472 .00628271494565381 .0720279066109947 -.01
41723976074229 .00528813669525395 .0734953129013169 -.01510404035242055 .0045289
1621351629 .0750684078857899 41 1 499 L-.01274485115150544 .00881885660885782 .0
701184446629823 41 2 500 T-.01511131077883465 .00452431371747978 .07507983238713
91 -.01510404035242055 .00452891621351629 .0750684078857899 59 445 1013 0 1 505
 486 506 +1 14 59 414 1055 0 1 486 465 507 +0 402 141 504 493 504 504 486 59 465
 1096 0 1 414 508 509 +0 457 141 507 510 507 507 414 38 510 1054 0 511 512 513 0
 +408 414 514 515 516 16 511 1053 0 ?135 517 518 510 0 0 1 30 512 1052 0 518 519
 510 0 +.03170514884849455 .0348200187643664 .0730014559890971 -388578058618805e
-30 -333066907387547e-30 -1 30 513 1059 0 517 510 520 0 +.03170514884849455 -.05
02699835017509 .0890498323871391 333066907387547e-30 -1 388578058618805e-30 40 2
 514 0 1 2 .000118612275843394 .1975658204984235 ??.03170514884849455 .010015313
53089546 .0699998323871391 .03170514884849455 .00881885660885691 .07011844466298
25 41 1 515 L.03170514884849455 .01001531353089546 .0699998323871391 41 1 516 L.
03170514884849455 .00881885660885691 .0701184446629825 16 517 1057 0 ?114 521 51
1 513 0 0 1 30 520 1063 0 521 513 522 0 +.03170514884849455 .0487900187643664 .0
730014559890971 388578058618805e-30 333066907387547e-30 1 16 521 1061 0 ?111 523
 517 520 0 0 1 31 522 1067 0 523 520 524 0 -.03170514884849455 -.050269983501750
9 .0730014559890971 -1 -333066907387547e-30 388578058618805e-30 388578058618805e
-30 0 1 .0990600022661173 16 523 1065 0 ?108 525 521 522 0 0 1 30 524 1070 0 525
 522 526 0 +.03170514884849455 -.0502699835017509 -.001120167612860902 -33306690
7387547e-30 1 0 16 525 1068 0 ?105 527 523 524 0 0 1 31 526 1082 0 527 524 528 0
 --.01020485115150542 -.0502699835017509 .0730014559890972 -1 -333066907387547e-
30 388578058618805e-30 388578058618805e-30 0 1 .1016000022661172 16 527 1080 0 ?
102 529 525 526 0 0 1 30 528 1086 0 529 526 530 0 --.0127448511515055 .017133198
25637805 -.00302072202071568 1 333066907387547e-30 -388578058618805e-30 16 529 1
084 0 ?531 532 527 528 0 0 1 31 530 1089 0 532 528 533 0 +.02916514884849455 -.0
502699835017509 .0730014559890971 -1 -333066907387547e-30 388578058618805e-30 38
8578058618805e-30 0 1 .1016000022661172 16 532 1087 0 ?93 534 529 530 0 0 1 38 5
33 1095 0 534 530 535 0 +465 422 536 537 538 16 534 1093 0 ?90 539 532 533 0 0 1
 30 535 1100 0 539 533 540 0 --.01274485115150546 .03228001876436635 .0699998323
871391 333066907387547e-30 -1 -368115564236563e-30 40 2 536 0 1 2 .0001186122758
432134 .197565820498271 ??-.01274485115150546 .00881885660885782 .07011844466298
23 -.01274485115150546 .01001531353089546 .0699998323871391 41 1 537 L-.01274485
115150546 .00881885660885782 .0701184446629823 41 1 538 L-.01274485115150546 .01
001531353089546 .0699998323871391 16 539 1098 0 ?87 541 534 535 0 0 1 31 540 110
4 0 541 535 542 0 +-.01274485115150546 .02974001876436635 .0750798323871391 -1 -
333066907387547e-30 388578058618805e-30 388578058618805e-30 0 1 .00508 16 541 11
02 0 ?543 544 539 540 0 0 1 30 542 1108 0 544 540 545 0 --.01274485115150546 .03
482001876436635 .0915898323871391 -388578058618805e-30 -333066907387547e-30 -1 1
6 544 1106 0 ?81 546 541 542 0 0 1 30 545 1112 0 546 542 547 0 --.01274485115150
546 .0513300187643664 .0890498323871391 333066907387547e-30 -1 388578058618805e-
30 16 546 1110 0 ?78 548 544 545 0 0 1 30 547 1116 0 548 545 549 0 --.0127448511
5150546 .0487900187643664 .0730014570214797 388578058618805e-30 333066907387547e
-30 1 16 548 1114 0 ?75 550 546 547 0 0 1 31 549 1120 0 550 547 551 0 +-.0127448
5115150542 -.0502699835017509 .0730014559890972 -1 -333066907387547e-30 38857805
8618805e-30 388578058618805e-30 0 1 .0990600022661173 16 550 1118 0 ?72 552 548
 549 0 0 1 30 551 1123 0 552 549 553 0 --.01274485115150546 -.0343949812356336 -
.0011201676128609 -333066907387547e-30 1 0 16 552 1121 0 ?129 554 550 551 0 0 1
 30 553 1132 0 554 551 555 0 +-.01274485115150546 .0513300187643664 .08904983238
71391 1 388578058618805e-30 -333066907387547e-30 16 554 1130 0 ?66 556 552 553 0
 0 1 30 555 1134 0 556 553 557 0 +-.01020485115150546 .0513300187643664 .0730014
570214797 388578058618805e-30 333066907387547e-30 1 16 556 1133 0 ?69 558 554 55
5 0 0 1 30 557 1137 0 558 555 559 0 -.02916514884849455 .0513300187643664 .07300
14570214797 388578058618805e-30 333066907387547e-30 1 16 558 1135 0 ?99 560 556
 557 0 0 1 38 559 1149 0 560 557 561 0 +508 407 562 563 564 16 560 1147 0 ?58 56
5 558 559 0 0 1 38 561 1153 0 565 559 566 0 +407 567 568 569 570 59 508 1150 0 1
 465 567 571 +1 457 40 2 562 0 1 2 593995066814115e-19 .160622671655507 ??-.0102
0485115150544 .01001531353089546 .0725398323871391 -.01043105505592686 .00931543
465536319 .0725991385250607 41 1 563 L-.01020485115150544 .01001531353089546 .07
25398323871391 41 1 564 L-.01043105505592686 .00931543465536319 .072599138525060
7 59 567 1154 0 1 508 12 572 +0 481 141 571 559 571 571 508 59 12 1161 0 1 567 4
 573 +1 402 141 572 561 572 572 567 141 573 566 573 573 12 38 566 1160 0 574 561
 575 0 +407 12 576 577 578 16 574 1158 0 ?61 579 565 566 0 0 1 38 575 1164 0 579
 566 580 0 -4 407 581 582 583 40 2 576 0 1 2 593995066815507e-19 .16062267165568
95 ??.02939135275291625 .00931543465536241 .0725991385250609 .02916514884849455
 .01001531353089546 .0725398323871391 41 1 577 L.02939135275291625 .009315434655
36241 .0725991385250609 41 1 578 L.02916514884849455 .01001531353089546 .0725398
323871391 16 579 1162 0 ?55 584 574 575 0 0 1 30 580 1174 0 584 575 585 0 +-.012
74485115150546 .03482001876436635 .0915898323871391 1 388578058618805e-30 -33306
6907387547e-30 40 4 581 0 1 4 .000664977405449472 .3067329370412995 ??.029391352
75291625 .00931543465536241 .0725991385250609 .0299540543068745 .008198820012062
46 .07290885394785 .03233241402878155 .00575357077752888 .0741948210393601 .0340
5824426103375 .00453276496810024 .0750732205533192 41 1 582 L.02939135275291625
 .00931543465536241 .0725991385250609 41 2 583 T.03407160847582375 .004524313717
47978 .0750798323871391 .03405824426103375 .00453276496810024 .0750732205533192
 16 584 1172 0 ?49 586 579 580 0 0 1 30 585 1178 0 586 580 587 0 +-.010204851151
50546 .0513300187643664 .0915898323871391 333066907387547e-30 -1 388578058618805
e-30 16 586 1176 0 ?52 588 584 585 0 0 1 30 587 1182 0 588 585 589 0 -.029165148
84849455 .0513300187643664 .0915898323871391 333066907387547e-30 -1 388578058618
805e-30 16 588 1180 0 ?43 590 586 587 0 0 1 30 589 1185 0 590 587 591 0 --.01274
485115150546 .0487900187643664 .0915898323871391 1 388578058618805e-30 -33306690
7387547e-30 16 590 1183 0 ?592 593 588 589 0 0 1 30 591 1194 0 593 589 594 0 +-.
01274485115150546 .03228001876436635 .0750798323871391 1 388578058618805e-30 -33
3066907387547e-30 16 593 1192 0 ?37 595 590 591 0 0 1 30 594 1198 0 595 591 596
 0 +-.01020485115150544 .03228001876436635 .0915898323871391 -388578058618805e-3
0 -333066907387547e-30 -1 16 595 1196 0 ?40 597 593 594 0 0 1 30 596 1202 0 597
 594 598 0 -.02916514884849455 .03228001876436635 .0915898323871391 -38857805861
8805e-30 -333066907387547e-30 -1 16 597 1200 0 ?29 599 595 596 0 0 1 30 598 1205
 0 599 596 600 0 --.01274485115150546 .03228001876436635 .0890498323871391 1 388
578058618805e-30 -333066907387547e-30 16 599 1203 0 ?601 602 597 598 0 0 1 30 60
0 1211 0 602 598 15 0 +-.01020485115150546 .03228001876436635 .0725398323871391
 333066907387547e-30 -1 -368115564236563e-30 16 602 1209 0 ?27 19 599 600 0 0 1
 30 15 1215 0 19 600 5 0 --.01274485115150546 .02974001876436635 .07253983238713
91 1 388578058618805e-30 -333066907387547e-30 16 19 1213 0 ?22 8 602 15 0 0 1 17
 27 0 21 23 22 62 28 602 0 603 +15 21 322 0 23 604 0 17 23 0 21 18 27 59 603 322
 0 605 +17 28 0 437 606 607 20 27 602 0 608 -17 603 0 609 58 61 62 23 322 0 610
 -15 609 902 0 611 416 0 17 58 0 609 165 603 56 610 560 0 612 +17 61 0 609 603 5
5 59 613 574 0 23 +17 610 0 462 614 615 62 58 560 0 607 -15 462 1232 0 615 441 0
 17 614 0 462 616 610 88 607 432 0 617 -17 615 0 462 610 616 56 618 455 0 0 +17
 607 0 437 28 617 62 614 432 0 0 +15 437 1236 0 607 410 0 17 617 0 437 607 606 8
8 87 539 0 0 -16 432 1305 0 ?607 455 430 425 0 0 1 16 455 1300 0 ?615 619 432 45
0 0 0 1 16 430 1308 0 ?620 432 621 424 0 0 1 17 620 0 411 622 613 133 623 430 0
 0 +16 621 1310 0 ?608 430 624 431 0 0 1 17 608 0 404 625 543 20 606 621 0 626 +
16 624 1313 0 ?627 621 628 629 0 0 1 31 431 1470 0 621 629 424 0 +-.010204851151
50546 .02974001876436635 .0699998323871391 0 1 0 0 0 1 .00254 31 629 1471 0 624
 630 431 0 +.02916514884849455 .01001531353089546 .0699998323871391 0 1 0 0 0 1
 .00254 31 630 1472 0 628 631 629 0 +-.01020485115150546 .02974001876436635 .075
0798323871391 -1 -333066907387547e-30 388578058618805e-30 388578058618805e-30 0
 1 .00254 16 628 1316 0 ?626 624 632 630 0 0 1 31 631 1473 0 632 633 630 0 --.01
020485115150546 .03482001876436635 .0750798323871391 0 0 -1 -1 0 0 .00254 16 632
 1319 0 ?634 628 635 631 0 0 1 31 633 1474 0 635 636 631 0 +.02916514884849455 .
02974001876436635 .0699998323871391 0 1 0 0 0 1 .00254 16 635 1322 0 ?637 632 63
8 633 0 0 1 31 636 1475 0 638 639 633 0 +.02916514884849455 .02974001876436635 .
0750798323871391 -1 -333066907387547e-30 388578058618805e-30 388578058618805e-30
 0 1 .00254 16 638 1323 0 ?640 635 641 636 0 0 1 31 639 1476 0 641 642 636 0 +-.
01020485115150544 .03482001876436635 .0890498323871391 0 0 1 1 0 0 .00254 16 641
 1324 0 ?643 638 644 639 0 0 1 31 642 1477 0 644 645 639 0 -.02916514884849455 .
0348200187643664 .0750798323871391 0 0 -1 -1 0 0 .00254 16 644 1326 0 ?646 641 6
47 642 0 0 1 31 645 1478 0 647 648 642 0 --.01020485115150544 .03482001876436635
 .0890498323871391 -1 0 0 0 0 1 .00254 16 647 1329 0 ?34 644 649 645 0 0 1 31 64
8 1479 0 649 650 645 0 --.01020485115150544 .03482001876436635 .0890498323871391
 0 -1 0 0 0 -1 .00254 16 649 1332 0 ?651 647 652 648 0 0 1 31 650 1480 0 652 653
 648 0 +.02916514884849455 .03482001876436635 .0890498323871391 -546369598732853
e-29 0 1 1 0 546369598732853e-29 .00254 16 652 1334 0 ?654 649 655 650 0 0 1 31
 653 1481 0 655 656 650 0 +.02916514884849455 .03482001876436635 .08904983238713
91 1 0 0 0 0 -1 .00254 16 655 1335 0 ?657 652 658 653 0 0 1 31 656 1482 0 658 65
9 653 0 +-.01020485115150546 .0487900187643664 .0890498323871391 0 1 0 0 0 1 .00
254 16 658 1336 0 ?660 655 661 656 0 0 1 31 659 1483 0 661 662 656 0 -.029165148
84849455 .0348200187643664 .0890498323871391 0 -1 -546369598732856e-29 0 5463695
98732856e-29 -1 .00254 16 661 1338 0 ?663 658 664 659 0 0 1 31 662 1484 0 664 66
5 659 0 --.01020485115150546 .0487900187643664 .0890498323871391 -1 0 0 0 0 1 .0
0254 16 664 1341 0 ?46 661 666 662 0 0 1 31 665 1485 0 666 667 662 0 --.01020485
115150546 .0487900187643664 .0890498323871391 0 0 1 1 0 0 .00254 16 666 1344 0 ?
668 664 669 665 0 0 1 31 667 1486 0 669 670 665 0 +.02916514884849455 .048790018
7643664 .0890498323871391 0 1 0 0 0 1 .00254 16 669 1349 0 ?671 666 672 667 0 0
 1 31 670 1487 0 672 673 667 0 +.02916514884849455 .0487900187643664 .0890498323
871391 1 0 0 0 0 -1 .00254 16 672 1350 0 ?674 669 675 670 0 0 1 31 673 1488 0 67
5 676 670 0 +-.01020485115150546 .0487900187643664 .0730014569956702 0 101612452
048339e-22 -1 0 1 101612452048339e-22 .00254 16 675 1352 0 ?677 672 678 673 0 0
 1 31 676 1489 0 678 679 673 0 +-.01020485115150544 .00881885660885782 -.0011201
67612860902 -682961998416066e-30 1 0 -1 -682961998416066e-30 0 .00254 16 678 135
5 0 ?680 675 681 676 0 0 1 31 679 1490 0 681 682 676 0 -.02916514884849455 .0487
900187643664 .0890498323871391 0 0 1 1 0 0 .00254 16 681 1358 0 ?683 678 684 679
 0 0 1 31 682 1491 0 684 685 679 0 +-.0102048511515055 .01544811875000935 -.0011
20167612860912 -226544343929041e-30 -.748249766871958 -.663417128491616 0 .66341
7128491616 -.748249766871958 .00254 16 684 1360 0 ?686 681 687 682 0 0 1 31 685
 1492 0 687 688 682 0 +-.0102048511515055 .01544811875000935 -.00112016761286090
2 -819554398099279e-29 1 0 -1 -819554398099279e-29 0 .00254 16 687 1361 0 ?689 6
84 690 685 0 0 1 31 688 1493 0 690 691 685 0 +.02916514884849455 .04879001876436
64 .0730014570214797 -101612452048339e-22 0 -1 -1 0 101612452048339e-22 .00254 1
6 690 1363 0 ?692 687 693 688 0 0 1 31 691 1494 0 693 694 688 0 --.0102048511515
055 .01544811875000935 -.0011201676128609 -1 0 0 0 0 1 .00254 16 693 1366 0 ?96
 690 695 691 0 0 1 31 694 1495 0 695 696 691 0 +.0291651488484945 .0154481187500
0935 -.001120167612860914 1690618403236505e-29 -.748249766871959 -.6634171284916
14 0 .663417128491614 -.748249766871959 .00254 16 695 1368 0 ?697 693 698 694 0
 0 1 31 696 1496 0 698 699 694 0 +.0291651488484945 .01544811875000935 -.0011201
67612860902 1 2058921812793395e-30 0 -2058921812793395e-30 1 0 .00254 16 698 136
9 0 ?700 695 701 696 0 0 1 31 699 1497 0 701 702 696 0 -.0291651488484945 .01544
81187500094 -.001120167612860902 -466437091280466e-44 1 -136592399683213e-28 0 1
36592399683213e-28 1 .00254 16 701 1371 0 ?703 698 704 699 0 0 1 31 702 1498 0 7
04 0 699 0 +.0291651488484945 .0088188566088578 -.001120167612860902 0 -1 0 0 0
 -1 .00254 16 704 1374 0 ?705 701 0 702 0 0 1 17 705 0 706 707 708 130 709 704 0
 0 +15 706 1294 0 705 710 0 17 707 0 706 156 705 139 132 502 0 0 -17 708 0 706 7
05 156 142 337 335 0 0 -17 709 0 711 712 713 142 705 704 0 708 -15 711 1292 0 70
3 714 0 17 712 0 711 703 709 145 144 331 0 0 -17 713 0 711 709 703 130 105 525 0
 705 -17 703 0 711 713 712 103 715 701 0 0 +17 105 0 716 108 293 103 713 525 0 7
17 +15 716 1039 0 293 420 0 17 108 0 716 111 105 106 717 523 0 718 +17 293 0 716
 105 135 130 719 248 0 713 +17 717 0 720 721 692 103 108 523 0 697 -15 720 1286
 0 692 722 0 17 721 0 720 723 717 91 697 695 0 700 -17 692 0 720 717 723 106 724
 690 0 0 +17 697 0 725 715 700 103 721 695 0 703 +15 725 1290 0 700 726 0 17 715
 0 725 700 697 145 703 701 0 712 -17 700 0 725 697 715 91 727 698 0 0 +17 727 0
 728 729 730 145 700 698 0 715 -15 728 1288 0 96 731 0 17 729 0 728 96 727 148 1
47 329 0 0 -17 730 0 728 727 96 91 531 529 0 721 -17 96 0 728 730 729 94 732 693
 0 686 +17 531 0 733 102 93 94 730 529 0 0 +15 733 334 0 257 734 0 17 102 0 733
 257 531 100 735 527 0 736 +17 93 0 733 531 257 91 723 532 0 730 +17 257 0 733 9
3 102 97 736 255 0 724 +17 723 0 720 692 721 97 93 532 0 0 -17 736 0 737 69 99 1
00 257 255 0 738 -17 724 0 739 740 718 97 692 690 0 723 -15 739 1282 0 683 741 0
 17 740 0 739 683 724 64 99 558 0 0 -17 718 0 739 724 683 106 111 521 0 692 -17
 683 0 739 718 740 109 742 681 0 0 +17 111 0 716 114 108 109 718 521 0 743 +17 1
14 0 716 117 111 112 743 517 0 744 +17 743 0 371 745 663 109 114 517 0 671 -15 3
71 1268 0 663 367 0 17 745 0 371 746 743 41 671 669 0 674 -17 663 0 371 743 746
 112 747 661 0 0 +17 671 0 748 742 674 109 745 669 0 683 +15 748 1276 0 674 359
 0 17 742 0 748 674 671 64 683 681 0 740 -17 674 0 748 671 742 41 749 672 0 0 +1
7 749 0 368 750 751 64 674 672 0 742 -15 368 1270 0 46 364 0 17 750 0 368 46 749
 67 66 554 0 0 -17 751 0 368 749 46 41 592 590 0 745 -17 46 0 368 751 750 44 752
 664 0 660 +17 592 0 753 52 43 44 751 590 0 0 +15 753 1169 0 43 754 0 17 52 0 75
3 49 592 50 755 586 0 651 +17 43 0 753 592 49 41 746 588 0 751 +17 49 0 753 43 5
2 47 756 584 0 757 +17 746 0 371 663 745 47 43 588 0 0 -17 756 0 383 34 757 50 4
9 584 0 0 -17 757 0 383 756 758 47 657 655 0 747 -15 383 1258 0 34 379 0 17 758
 0 383 757 34 26 601 599 0 759 -17 657 0 377 654 747 26 757 655 0 0 +17 747 0 37
7 657 654 47 663 661 0 746 -15 377 1264 0 657 373 0 17 654 0 377 747 657 112 759
 652 0 663 +17 759 0 386 760 744 26 654 652 0 657 -15 386 1256 0 646 382 0 17 76
0 0 386 646 759 35 29 597 0 0 -17 744 0 386 759 646 112 117 518 0 654 -17 646 0
 386 744 760 115 761 644 0 0 +17 117 0 716 123 114 115 744 518 0 762 +16 518 105
0 0 ?117 511 763 512 0 0 1 16 763 1046 0 ?762 518 764 519 0 0 1 17 762 0 392 761
 637 115 123 763 0 646 +16 764 1042 0 ?120 763 501 503 0 0 1 31 519 1048 0 763 5
03 512 0 -.03170514884849455 .02974001876436635 .0750798323871391 -1 -3330669073
87547e-30 388578058618805e-30 388578058618805e-30 0 1 .00508 30 503 1044 0 764 4
97 519 0 +.03170514884849455 -.0502699835017509 .0699998323871391 33306690738754
7e-30 -1 -368115564236563e-30 17 120 0 716 135 123 118 765 764 0 622 +16 501 103
3 0 ?138 764 495 497 0 0 1 17 138 0 492 766 767 136 768 501 0 299 +15 492 610 0
 767 488 0 17 766 0 492 126 138 163 299 297 0 326 -17 767 0 492 138 126 127 302
 300 0 768 -17 768 0 361 769 770 127 138 501 0 680 -17 299 0 771 159 326 136 766
 297 0 770 +15 771 114 0 772 351 0 17 159 0 771 171 299 157 770 338 0 773 +17 32
6 0 771 299 296 163 611 324 0 774 +17 770 0 361 768 775 136 159 338 0 0 -15 361
 1274 0 770 355 0 17 775 0 361 770 769 157 153 333 0 0 -17 769 0 361 775 768 151
 680 678 0 776 -17 153 0 225 150 773 151 775 333 0 769 +17 150 0 225 147 153 148
 776 327 0 777 +17 773 0 225 153 317 157 171 778 0 775 -17 317 0 225 773 779 169
 177 315 0 780 +17 171 0 771 168 159 169 773 778 0 317 +16 778 961 0 ?171 781 23
6 782 781 781 1 16 781 653 0 ?772 783 778 782 778 778 1 16 236 67 0 ?235 778 228
 784 0 0 1 31 782 87 0 781 784 785 0 +.00948014884849455 -.0343949812356336 -.00
3660167612860905 0 0 1 1 0 0 .0460375 30 784 88 0 236 240 782 0 +.04440514884849
455 -.03439498123563365 -.003660167612860905 0 1 0 30 785 86 0 783 782 786 0 +-.
02544485115150545 -.004400051976673875 -.003660167612860905 0 -1 0 16 783 717 0
 ?219 787 781 785 0 0 1 30 786 85 0 787 785 263 0 +-.02544485115150545 -.0343949
8123563365 -.003660167612860905 1 0 0 16 787 61 0 ?216 788 783 786 0 0 1 30 263
 84 0 788 786 260 0 +-.01359558983747426 -.03439498123563365 -.00366016761286090
5 -.5 .866025403784439 0 16 788 59 0 ?213 262 787 263 0 0 1 17 213 0 789 790 287
 211 791 788 0 284 +16 262 57 0 ?210 266 788 260 0 0 1 17 210 0 792 253 284 208
 232 262 0 251 +15 792 106 0 210 793 0 17 253 0 792 794 210 190 251 254 0 247 -1
7 284 0 792 210 794 211 790 282 0 232 +17 232 0 225 791 226 211 210 262 0 0 -17
 791 0 225 795 232 214 213 788 0 0 -17 795 0 225 779 791 217 216 787 0 0 -17 779
 0 225 317 795 175 219 783 0 0 -17 216 0 796 797 290 214 795 787 0 287 +15 796 1
10 0 216 798 0 17 797 0 796 799 216 196 287 285 0 800 -17 290 0 796 216 799 217
 801 288 0 795 +17 287 0 789 213 800 214 797 285 0 791 +15 789 108 0 213 802 0 1
7 800 0 789 287 790 196 195 276 0 0 -17 790 0 789 800 213 193 284 282 0 794 -17
 195 0 803 192 198 193 800 276 0 790 +15 803 42 0 271 10 804 17 192 0 803 245 19
5 190 794 278 0 253 +17 198 0 803 195 201 196 799 274 0 797 +17 201 0 803 198 17
4 199 805 272 0 801 +17 799 0 796 290 797 199 198 274 0 0 -17 174 0 803 201 271
 172 806 320 0 805 +17 805 0 807 314 801 172 201 272 0 808 -17 801 0 807 805 219
 199 290 288 0 799 -15 807 112 0 805 809 0 17 219 0 807 801 314 217 779 783 0 29
0 +17 314 0 807 219 805 175 808 312 0 779 +17 808 0 810 806 177 172 314 312 0 0
 -15 810 752 0 806 811 0 17 806 0 810 780 808 166 174 320 0 0 -17 177 0 810 808
 780 175 317 315 0 314 -17 780 0 810 177 806 169 168 318 0 0 -17 168 0 771 812 1
71 166 780 318 0 271 +17 812 0 771 305 168 187 271 269 0 813 -17 271 0 803 174 1
89 166 812 269 0 806 +17 189 0 803 271 268 187 814 310 0 812 +17 268 0 803 189 2
04 178 815 265 0 814 +17 814 0 816 817 813 178 189 310 0 0 -15 816 685 0 814 491
 0 17 817 0 816 186 814 181 180 308 0 0 -17 813 0 816 814 186 187 305 303 0 0 -1
7 186 0 816 813 817 184 183 306 0 305 -17 305 0 771 772 812 184 813 303 0 818 +1
7 772 0 771 141 305 154 818 781 0 0 +17 818 0 225 183 337 184 772 781 0 0 -17 18
3 0 225 227 818 181 186 306 0 235 +17 337 0 225 818 144 154 708 335 0 772 +17 14
4 0 225 337 147 142 712 331 0 709 +17 147 0 225 144 150 145 729 329 0 727 +17 23
5 0 819 180 239 181 227 236 0 817 +15 819 116 0 235 820 0 17 180 0 819 815 235 1
78 817 308 0 268 +17 239 0 819 235 815 220 238 249 0 227 +17 815 0 819 239 180 2
02 268 265 0 0 -17 238 0 237 207 222 202 239 249 0 815 -14 820 117 0 ?351 243 81
9 3 353 -0 0 351 243 17 14 351 115 0 ?809 820 771 3 340 -0 0 809 820 17 14 243 1
19 0 ?820 252 237 3 821 -0 0 820 252 17 50 353 135 0 820 340 821 0 +.04440514884
849455 -.03439498123563365 .0852398323871391 -1 0 0 0 0 1 13 17 3 0 0 0 0 0 0 7
 10 14 10 427 0 ?230 0 803 3 822 +0 0 230 0 17 14 230 421 0 ?252 10 225 3 823 -0
 0 252 10 17 50 822 44 0 10 823 824 0 +.00948014884849455 -.0343949812356336 .08
52398323871391 0 0 1 1 0 0 50 823 81 0 230 825 822 0 +.00948014884849455 -.03439
49812356336 -.003660167612860905 0 0 1 1 0 0 50 824 130 0 793 822 826 0 +-.01909
485115150545 -.02486998123563365 .0852398323871391 0 1 0 0 0 1 14 793 107 0 ?604
 802 792 3 824 -0 0 604 802 17 50 826 131 0 802 824 827 0 +-.01359558983747426 -
.03439498123563365 .0852398323871391 -.866025403784438 -.5 0 .5 -.86602540378443
9 0 14 802 109 0 ?793 798 789 3 826 -0 0 793 798 17 50 827 132 0 798 826 352 0 +
-.02544485115150545 -.03439498123563365 .0852398323871391 0 1 0 0 0 1 14 798 111
 0 ?802 809 796 3 827 -0 0 802 809 17 50 352 133 0 809 827 340 0 +-.025444851151
50545 -.004400051976673875 .0852398323871391 1 0 0 0 0 -1 14 809 113 0 ?798 351
 807 3 352 -0 0 798 351 17 14 604 320 0 ?467 793 21 3 468 -0 0 467 793 17 14 467
 326 0 ?420 604 828 3 422 +0 0 420 604 17 50 468 365 0 604 422 829 0 +-.01274485
115150546 .03228001876436635 .0725398323871391 -3330669073875475e-31 36811556423
6563e-30 -1 -3885780586188045e-31 1 423626715467821e-30 50 829 364 0 830 468 831
 0 +-.01274485115150546 .03228001876436635 .0915898323871391 -388578058618805e-3
0 1 -333066907387547e-30 1 333066907387547e-30 -388578058618805e-30 14 830 341 0
 ?832 754 833 3 829 -0 0 832 754 17 50 831 363 0 754 829 834 0 +-.01274485115150
546 .0513300187643664 .0915898323871391 -333066907387547e-30 -388578058618805e-3
0 -1 1 333066907387547e-30 -388578058618805e-30 14 754 338 0 ?830 835 753 3 831
 -0 0 830 835 17 50 834 362 0 835 831 825 0 +-.01274485115150548 .05133001876436
64 .0730014570214797 388578058618805e-30 -1 333066907387547e-30 -1 -333066907387
547e-30 388578058618805e-30 14 835 335 0 ?754 734 737 3 834 -0 0 754 734 17 51 8
25 361 0 734 834 823 0 --.01274485115150542 -.0502699835017509 .0730014559890972
 1 333066907387547e-30 -388578058618805e-30 .1016000022661172 388578058618805e-3
0 -1 333066907387547e-30 14 734 332 0 ?835 420 733 3 825 -0 0 835 420 17 14 420
 329 0 ?734 467 716 3 408 -0 0 734 467 17 15 737 337 0 66 835 0 17 66 0 737 99 6
9 64 750 554 0 749 +17 99 0 737 736 66 97 740 558 0 257 +17 69 0 737 66 736 67 7
38 556 0 668 +17 738 0 365 836 668 100 69 556 0 677 -17 668 0 365 738 837 67 838
 666 0 752 +15 365 1272 0 668 360 0 17 837 0 365 668 836 76 75 548 0 0 -17 838 0
 374 660 752 76 668 666 0 837 -17 752 0 374 838 660 67 46 664 0 750 -15 374 1266
 0 838 370 0 17 660 0 374 752 838 44 839 658 0 755 +17 839 0 380 840 755 76 660
 658 0 838 -17 755 0 380 839 651 44 52 586 0 592 -15 380 1260 0 651 376 0 17 651
 0 380 755 840 50 841 649 0 842 +17 840 0 380 651 839 79 78 546 0 0 -17 841 0 38
9 643 842 79 651 649 0 840 -17 842 0 389 841 643 50 34 647 0 756 -15 389 1254 0
 841 385 0 17 643 0 389 842 841 30 843 641 0 844 +17 34 0 383 758 756 30 842 647
 0 643 +17 843 0 395 845 844 79 643 641 0 841 -17 844 0 395 843 634 30 40 595 0
 601 -15 395 1248 0 634 391 0 17 634 0 395 844 845 38 846 632 0 625 +17 40 0 833
 37 601 38 844 595 0 634 +17 601 0 833 40 29 30 758 599 0 0 +15 833 1189 0 29 83
0 0 17 29 0 833 601 37 26 760 597 0 758 +17 37 0 833 29 40 35 847 593 0 848 +17
 847 0 398 626 848 38 37 593 0 0 -17 848 0 398 847 25 35 640 638 0 761 -15 398 1
246 0 626 394 0 17 25 0 398 848 626 9 22 19 0 849 -17 640 0 392 637 761 9 848 63
8 0 0 +17 761 0 392 640 762 35 646 644 0 760 -15 392 1252 0 637 388 0 17 637 0 3
92 762 640 121 849 635 0 0 +17 849 0 401 24 765 9 637 635 0 640 -15 401 1244 0 6
27 397 0 17 24 0 401 627 849 59 18 8 0 0 -17 765 0 401 849 627 121 120 764 0 637
 -17 627 0 401 765 24 118 605 624 0 0 +17 605 0 411 613 622 59 627 624 0 24 -15
 411 1240 0 620 403 0 17 613 0 411 620 605 53 61 574 0 0 -17 622 0 411 605 620 1
18 135 511 0 627 -17 135 0 716 293 120 133 622 511 0 719 +17 719 0 850 162 132 1
33 293 248 0 851 -15 850 527 0 852 447 0 17 162 0 850 852 719 160 851 853 0 296
 +17 132 0 850 719 852 130 707 502 0 293 +17 851 0 442 623 854 133 162 853 0 620
 -15 442 1234 0 854 436 0 17 623 0 442 854 851 53 620 430 0 613 -17 854 0 442 85
1 623 160 55 579 0 0 -16 853 1010 0 ?162 502 345 346 0 0 1 16 502 1016 0 ?132 49
5 853 496 0 0 1 16 345 999 0 ?141 853 338 339 0 0 1 38 346 1012 0 853 339 496 0
 +440 445 855 856 857 40 5 855 0 1 5 .0003225806997821725 .380897071840169 ??.03
170514884849455 .00881885660885693 .0701184446629826 .03184537099242135 .0076335
3187164486 .070723262996229 .03238351444021455 .00628271494565255 .0720279066109
962 .03313269530441245 .00528813669525346 .0734953129013178 .0340643380494088 .0
0452891621351682 .0750684078857904 41 1 856 L.03170514884849455 .008818856608856
93 .0701184446629826 41 2 857 T.03407160847582375 .00452431371747978 .0750798323
871391 .0340643380494088 .00452891621351682 .0750684078857904 17 141 0 771 296 7
72 139 156 345 0 852 +17 296 0 771 326 141 160 852 294 0 611 +17 156 0 706 708 7
07 154 141 345 0 337 -17 852 0 850 132 162 139 296 294 0 707 -17 611 0 609 55 16
5 160 326 324 0 854 -17 55 0 609 61 611 53 854 579 0 623 +17 165 0 609 611 58 16
3 612 565 0 766 +17 612 0 484 618 774 56 165 565 0 615 -16 565 1151 0 ?165 574 5
60 561 0 0 1 15 484 1230 0 774 461 0 17 618 0 484 774 612 124 615 455 0 616 -17
 774 0 484 612 618 163 126 495 0 0 -17 126 0 492 767 766 124 774 495 0 302 +17 3
02 0 828 90 129 124 767 300 0 618 +15 828 328 0 72 467 0 17 90 0 828 87 302 88 6
16 534 0 614 +17 129 0 828 302 72 127 858 552 0 767 +17 72 0 828 129 75 70 859 5
50 0 858 +17 858 0 860 777 680 70 129 552 0 861 -15 860 1280 0 680 862 0 17 777
 0 860 776 858 148 689 687 0 732 -17 680 0 860 858 776 127 769 678 0 0 +17 861 0
 863 859 735 70 686 684 0 689 -15 863 1278 0 677 864 0 17 859 0 863 677 861 73 7
2 550 0 0 -17 735 0 863 861 677 94 102 527 0 531 -17 686 0 865 732 689 94 861 68
4 0 735 +17 689 0 865 686 732 70 777 687 0 0 +15 865 1284 0 689 866 0 17 732 0 8
65 689 686 148 96 693 0 729 -14 866 1283 0 ?722 741 865 3 867 +0 0 722 741 17 14
 722 1285 0 ?731 866 720 3 868 +0 0 731 866 17 14 741 1281 0 ?866 862 739 3 869
 +0 0 866 862 17 53 867 1457 0 866 868 869 0 +-.0102048511515055 .01544811875000
935 -.001120167612860902 .00254 0 0 1 1 0 0 54 868 1458 0 722 870 867 0 +.029165
14884849455 -.0502699835017509 .0730014559890971 -1 -333066907387547e-30 3885780
58618805e-30 .0990600022661173 .00254 388578058618805e-30 0 1 51 869 1456 0 741
 867 871 0 +.02916514884849455 .0487900187643664 .0730014559890971 3885780586188
05e-30 333066907387547e-30 1 .00254 1 0 -388578058618805e-30 51 871 1455 0 862 8
69 362 0 +-.01020485115150546 -.0343949812356336 -.001120167612860902 3330669073
87547e-30 -1 0 .00254 1 333066907387547e-30 0 14 862 1279 0 ?741 864 860 3 871 +
0 0 741 864 17 54 362 1454 0 864 871 356 0 +-.01020485115150542 -.05026998350175
09 .0730014559890972 -1 -333066907387547e-30 388578058618805e-30 .09906000226611
73 .00254 388578058618805e-30 0 1 14 864 1277 0 ?862 359 863 3 362 +0 0 862 359
 17 14 359 1275 0 ?864 355 748 3 356 +0 0 864 355 17 51 870 1459 0 731 872 868 0
 +-.01274485115150546 .01544811875000935 -.001120167612860902 1 333066907387547e
-30 -388578058618805e-30 .00254 -388578058618805e-30 0 -1 14 731 1287 0 ?726 722
 728 3 870 +0 0 726 722 17 53 872 1460 0 726 873 870 0 +.0291651488484945 .01544
811875000935 -.001120167612860902 .00254 0 0 1 1 0 0 14 726 1289 0 ?714 731 725
 3 872 +0 0 714 731 17 51 873 1461 0 714 347 872 0 +.02916514884849455 -.0502699
835017509 -.001120167612860902 -333066907387547e-30 1 0 .00254 -1 -3330669073875
47e-30 0 14 714 1291 0 ?710 726 711 3 873 +0 0 710 726 17 54 347 1462 0 710 0 87
3 874 +.03678514884849455 .00881885660885781 -.001120167612860902 0 0 1 .00762 .
00254 1 0 0 14 710 1293 0 ?0 714 706 3 347 +0 0 0 714 17 141 874 339 874 874 347
 17 677 0 863 735 859 100 836 675 0 0 +17 836 0 365 837 738 73 677 675 0 859 -17
 776 0 860 680 777 151 150 327 0 0 -17 75 0 828 72 78 73 837 548 0 836 +17 78 0
 828 75 81 76 840 546 0 839 +17 81 0 828 78 84 79 845 544 0 843 +17 84 0 828 81
 87 82 543 541 0 846 -17 845 0 395 634 843 82 81 544 0 0 -17 87 0 828 84 90 85 6
17 539 0 606 +17 543 0 404 608 846 85 84 541 0 0 +17 846 0 404 543 625 82 634 63
2 0 845 -15 404 1242 0 543 400 0 17 625 0 404 846 608 38 626 628 0 847 -17 626 0
 398 25 847 20 625 628 0 0 +17 606 0 437 617 28 85 608 621 0 543 -17 616 0 462 6
15 614 124 90 534 0 0 -14 447 526 0 ?488 832 850 3 440 -0 0 488 832 17 14 832 43
4 0 ?447 830 875 3 421 +0 0 447 830 17 15 875 436 0 876 832 877 51 421 446 0 832
 440 408 0 -.00948014884849455 -.00581998123563406 -.00366016761286107 0 3430253
043418265e-30 1 .0127 -1 0 0 17 876 0 875 876 876 0 878 258 0 0 +15 877 437 0 87
9 832 0 17 879 0 877 879 879 0 880 619 0 0 -17 880 0 804 880 880 0 879 619 0 0 +
16 619 430 0 ?880 258 455 475 0 0 1 16 258 432 0 ?876 255 619 881 0 0 1 31 475 4
50 0 619 470 881 0 +.00948014884849455 -.00581998123563376 .0852398323871389 0 -
3430253043418265e-30 -1 1 0 0 .0127 31 881 449 0 258 475 259 0 +.009480148848494
55 -.00581998123563406 -.00366016761286107 0 -3430253043418265e-30 -1 1 0 0 .012
7 30 259 373 0 255 881 240 0 +-.01274485115150548 .0513300187643664 .07300145702
14797 1 333066907387547e-30 -388578058618805e-30 30 240 89 0 228 259 784 0 +.032
55588753446335 -.03439498123563365 -.003660167612860905 1 0 0 15 804 424 0 880 1
0 0 17 878 0 231 878 878 0 876 258 0 0 -15 231 419 0 878 230 0 14 252 121 0 ?243
 230 246 3 505 -0 0 243 230 17 50 505 137 0 252 821 445 0 +.03805514884849455 -.
02486998123563365 .0852398323871391 .866025403784439 -.5 0 .5 .866025403784439 0
 50 821 136 0 243 353 505 0 +.03255588753446335 -.03439498123563365 .08523983238
71391 0 1 0 0 0 1 14 491 684 0 ?811 488 816 3 489 +0 0 811 488 17 14 811 751 0 ?
416 491 810 3 418 +0 0 416 491 17 14 416 901 0 ?461 811 609 3 407 -0 0 461 811 1
7 51 418 763 0 811 407 489 0 +-.01020485115150546 -.01070982172065464 .085239832
3871391 0 0 -1 .01524 -1 0 0 17 204 0 803 268 245 202 207 244 0 238 +17 245 0 80
3 204 192 205 247 266 0 241 +17 247 0 246 251 241 190 245 266 0 0 -17 794 0 792
 284 253 193 192 278 0 0 -17 123 0 716 120 117 121 762 763 0 765 -40 4 568 0 1 4
 .00066497740544914 .3067329370412985 ??-.01043105505592686 .0093154346553632 .0
725991385250607 -.01099375660988498 .00819882001206311 .0729088539478497 -.01337
211633179052 .00575357077753041 .0741948210393592 -.01509794656404545 .004532764
96809971 .0750732205533176 41 1 569 L-.01043105505592686 .0093154346553632 .0725
991385250607 41 2 570 T-.01511131077883465 .00452431371747979 .0750798323871391
 -.01509794656404545 .00453276496809971 .0750732205533176 141 509 533 509 509 46
5 141 506 346 506 506 445 141 487 567 483 483 481 51 417 1425 0 1 477 407 882 +-
.01782485115150545 .00881885660885782 .0852398323871391 0 0 -1 .00762 -1 0 0 141
 485 470 485 485 477 141 882 470 882 882 417 141 476 481 476 476 470 40 5 478 0
 1 5 .000517988146565491 .359032224875392 ??-.01029322855477946 .009976034667968
28 .0699998323871391 -.01022558845158404 .00825706802087904 .0702561679323932 -.
01061611583211968 .00634933538095954 .0710917513859854 -.01181158555392066 .0041
38574902282515 .0728263291287778 -.01374435092895508 .002383491977870085 .075069
1583010149 41 1 479 L-.01029322855477946 .00997603466796828 .0699998323871391 41
 2 480 T-.01375454059249924 .00237704227179077 .0750798323871391 -.0137443509289
5508 .002383491977870085 .0750691583010149 141 469 457 883 883 422 141 883 533 4
69 469 422 141 466 508 460 460 457 141 464 456 464 464 459 141 449 346 884 884 4
40 141 884 14 449 449 440 141 446 4 439 439 14 141 444 433 444 444 438 141 423 4
02 885 885 408 141 885 510 423 423 408 141 419 575 886 887 407 141 886 566 888 4
19 407 141 887 402 419 889 407 141 889 14 887 890 407 141 890 457 889 891 407 14
1 891 481 890 892 407 141 892 559 891 888 407 141 888 561 892 886 407 141 415 12
 406 406 402 141 413 409 413 413 405 141 354 336 893 893 340 141 893 339 354 354
 340 40 4 348 0 1 4 .000450869146863153 .322808600328959 ??.0384518735677015 .00
1383372178749396 -.003660167612860905 .03719333272378225 .00236683109379994 -.00
3382334787733055 .03520719249591225 .003783162137425595 -.002101283603603235 .03
408077838079175 .00451851812981369 -.001128250324003764 41 1 349 L.0384518735677
015 .001383372178749396 -.003660167612860905 41 2 350 T.03407160847582375 .00452
431371747978 -.001120167612860902 .03408077838079175 .00451851812981369 -.001128
250324003764 19 11 139 0 1 0 7 3 S141 13 575 13 13 4 1 0 
