  0
SECTION
  2
HEADER
  9
$ACADVER
  1
AC1009
  9
$INSBASE
 10
0.0
 20
0.0
 30
0.0
  9
$EXTMIN
 10
0.0
 20
0.0
 30
0.0
  9
$EXTMAX
 10
9.713608
 20
6.439617
 30
6.0
  9
$LIMMIN
 10
0.0
 20
0.0
  9
$LIMMAX
 10
12.0
 20
9.0
  9
$ORTHOMODE
 70
     0
  9
$REGENMODE
 70
     1
  9
$FILLMODE
 70
     1
  9
$QTEXTMODE
 70
     0
  9
$MIRRTEXT
 70
     1
  9
$DRAGMODE
 70
     2
  9
$LTSCALE
 40
1.0
  9
$OSMODE
 70
     0
  9
$ATTMODE
 70
     1
  9
$TEXTSIZE
 40
0.2
  9
$TRACEWID
 40
0.05
  9
$TEXTSTYLE
  7
STANDARD
  9
$CLAYER
  8
0
  9
$CELTYPE
  6
BYLAYER
  9
$CECOLOR
 62
   256
  9
$DIMSCALE
 40
1.0
  9
$DIMASZ
 40
0.18
  9
$DIMEXO
 40
0.0625
  9
$DIMDLI
 40
0.38
  9
$DIMRND
 40
0.0
  9
$DIMDLE
 40
0.0
  9
$DIMEXE
 40
0.18
  9
$DIMTP
 40
0.0
  9
$DIMTM
 40
0.0
  9
$DIMTXT
 40
0.18
  9
$DIMCEN
 40
0.09
  9
$DIMTSZ
 40
0.0
  9
$DIMTOL
 70
     0
  9
$DIMLIM
 70
     0
  9
$DIMTIH
 70
     1
  9
$DIMTOH
 70
     1
  9
$DIMSE1
 70
     0
  9
$DIMSE2
 70
     0
  9
$DIMTAD
 70
     0
  9
$DIMZIN
 70
     0
  9
$DIMBLK
  1

  9
$DIMASO
 70
     1
  9
$DIMSHO
 70
     1
  9
$DIMPOST
  1

  9
$DIMAPOST
  1

  9
$DIMALT
 70
     0
  9
$DIMALTD
 70
     2
  9
$DIMALTF
 40
25.4
  9
$DIMLFAC
 40
1.0
  9
$DIMTOFL
 70
     0
  9
$DIMTVP
 40
0.0
  9
$DIMTIX
 70
     0
  9
$DIMSOXD
 70
     0
  9
$DIMSAH
 70
     0
  9
$DIMBLK1
  1

  9
$DIMBLK2
  1

  9
$DIMSTYLE
  2
*UNNAMED
  9
$DIMCLRD
 70
     0
  9
$DIMCLRE
 70
     0
  9
$DIMCLRT
 70
     0
  9
$DIMTFAC
 40
1.0
  9
$DIMGAP
 40
0.09
  9
$LUNITS
 70
     2
  9
$LUPREC
 70
     4
  9
$SKETCHINC
 40
0.1
  9
$FILLETRAD
 40
0.0
  9
$AUNITS
 70
     0
  9
$AUPREC
 70
     0
  9
$MENU
  1
acad
  9
$ELEVATION
 40
0.0
  9
$PELEVATION
 40
0.0
  9
$THICKNESS
 40
0.0
  9
$LIMCHECK
 70
     0
  9
$BLIPMODE
 70
     1
  9
$CHAMFERA
 40
0.0
  9
$CHAMFERB
 40
0.0
  9
$SKPOLY
 70
     0
  9
$TDCREATE
 40
2448820.941714166
  9
$TDUPDATE
 40
2448820.941714166
  9
$TDINDWG
 40
0.0000000000
  9
$TDUSRTIMER
 40
0.0000000000
  9
$USRTIMER
 70
     1
  9
$ANGBASE
 50
0.0
  9
$ANGDIR
 70
     0
  9
$PDMODE
 70
     0
  9
$PDSIZE
 40
0.0
  9
$PLINEWID
 40
0.0
  9
$COORDS
 70
     0
  9
$SPLFRAME
 70
     0
  9
$SPLINETYPE
 70
     6
  9
$SPLINESEGS
 70
     8
  9
$ATTDIA
 70
     0
  9
$ATTREQ
 70
     1
  9
$HANDLING
 70
     1
  9
$HANDSEED
  5
2D0
  9
$SURFTAB1
 70
     6
  9
$SURFTAB2
 70
     6
  9
$SURFTYPE
 70
     6
  9
$SURFU
 70
     6
  9
$SURFV
 70
     6
  9
$UCSNAME
  2

  9
$UCSORG
 10
0.0
 20
0.0
 30
0.0
  9
$UCSXDIR
 10
1.0
 20
0.0
 30
0.0
  9
$UCSYDIR
 10
0.0
 20
1.0
 30
0.0
  9
$PUCSNAME
  2

  9
$PUCSORG
 10
0.0
 20
0.0
 30
0.0
  9
$PUCSXDIR
 10
1.0
 20
0.0
 30
0.0
  9
$PUCSYDIR
 10
0.0
 20
1.0
 30
0.0
  9
$USERI1
 70
     0
  9
$USERI2
 70
     0
  9
$USERI3
 70
     0
  9
$USERI4
 70
     0
  9
$USERI5
 70
     0
  9
$USERR1
 40
0.0
  9
$USERR2
 40
0.0
  9
$USERR3
 40
0.0
  9
$USERR4
 40
0.0
  9
$USERR5
 40
0.0
  9
$WORLDVIEW
 70
     1
  9
$SHADEDGE
 70
     3
  9
$SHADEDIF
 70
    70
  9
$TILEMODE
 70
     1
  9
$MAXACTVP
 70
    16
  9
$PINSBASE
 10
0.0
 20
0.0
 30
0.0
  9
$PLIMCHECK
 70
     0
  9
$PEXTMIN
 10
1.000000E+20
 20
1.000000E+20
 30
1.000000E+20
  9
$PEXTMAX
 10
-1.000000E+20
 20
-1.000000E+20
 30
-1.000000E+20
  9
$PLIMMIN
 10
0.0
 20
0.0
  9
$PLIMMAX
 10
12.0
 20
9.0
  9
$UNITMODE
 70
     0
  9
$VISRETAIN
 70
     0
  9
$PLINEGEN
 70
     0
  9
$PSLTSCALE
 70
     0
  9
$TREEDEPTH
 70
  3020
  9
$DWGCODEPAGE
  3
undefined
  0
ENDSEC
  0
SECTION
  2
TABLES
  0
TABLE
  2
VPORT
 70
     2
  0
VPORT
  2
*ACTIVE
 70
     0
 10
0.0
 20
0.0
 11
1.0
 21
1.0
 12
1.645731
 22
-1.256022
 13
0.0
 23
0.0
 14
1.0
 24
1.0
 15
0.0
 25
0.0
 16
1.0
 26
1.0
 36
1.0
 17
0.0
 27
0.0
 37
0.0
 40
10.67701
 41
1.594883
 42
50.0
 43
0.0
 44
0.0
 50
0.0
 51
0.0
 71
     0
 72
   100
 73
     1
 74
     1
 75
     0
 76
     0
 77
     0
 78
     0
  0
ENDTAB
  0
TABLE
  2
LTYPE
 70
     1
  0
LTYPE
  2
CONTINUOUS
 70
    64
  3
Solid line
 72
    65
 73
     0
 40
0.0
  0
ENDTAB
  0
TABLE
  2
LAYER
 70
     2
  0
LAYER
  2
0
 70
    64
 62
     7
  6
CONTINUOUS
  0
LAYER
  2
AME_FRZ
 70
    65
 62
     7
  6
CONTINUOUS
  0
ENDTAB
  0
TABLE
  2
STYLE
 70
     1
  0
STYLE
  2
STANDARD
 70
     0
 40
0.0
 41
1.0
 50
0.0
 71
     0
 42
0.2
  3
txt
  4

  0
ENDTAB
  0
TABLE
  2
VIEW
 70
     0
  0
ENDTAB
  0
TABLE
  2
UCS
 70
     0
  0
ENDTAB
  0
TABLE
  2
APPID
 70
     2
  0
APPID
  2
ACAD
 70
    64
  0
APPID
  2
AME_SOL
 70
    64
  0
ENDTAB
  0
TABLE
  2
DIMSTYLE
 70
     0
  0
ENDTAB
  0
ENDSEC
  0
SECTION
  2
BLOCKS
  0
BLOCK
  8
0
  5
31
  2
AME_NIL
 70
    64
 10
0.0
 20
0.0
 30
0.0
  1
AME_NIL
  3
AME_NIL
  0
ENDBLK
  8
0
  5
32
  0
BLOCK
  8
0
  5
34
  2
AME_SOL
 70
    64
 10
0.0
 20
0.0
 30
0.0
  1
AME_SOL
  3
AME_SOL
  0
ENDBLK
  8
0
  5
35
  0
BLOCK
  8
0
  5
37
  2
*U2
 70
    65
 10
0.0
 20
0.0
 30
0.0
  1
*U
  3
*U
  0
LINE
  8
0
 62
     0
  5
38
 10
5.0
 20
1.0
 30
0.0
 11
5.0
 21
1.0
 31
5.0
1001
AME_SOL
1070
     1
1071
       18
  0
LINE
  8
0
 62
     0
  5
39
 10
5.0
 20
1.0
 30
5.0
 11
5.0
 21
0.0
 31
5.0
1001
AME_SOL
1070
     1
1071
       17
  0
LINE
  8
0
 62
     0
  5
3A
 10
0.0
 20
1.0
 30
5.0
 11
5.0
 21
1.0
 31
5.0
1001
AME_SOL
1070
     1
1071
       16
  0
LINE
  8
0
 62
     0
  5
3B
 10
0.0
 20
1.0
 30
0.0
 11
0.0
 21
1.0
 31
5.0
1001
AME_SOL
1070
     1
1071
       15
  0
LINE
  8
0
 62
     0
  5
3C
 10
0.0
 20
1.0
 30
5.0
 11
0.0
 21
0.0
 31
5.0
1001
AME_SOL
1070
     1
1071
       14
  0
LINE
  8
0
 62
     0
  5
3D
 10
0.0
 20
0.0
 30
0.0
 11
0.0
 21
0.0
 31
5.0
1001
AME_SOL
1070
     1
1071
       13
  0
LINE
  8
0
 62
     0
  5
3E
 10
5.0
 20
0.0
 30
5.0
 11
5.0
 21
0.0
 31
0.0
1001
AME_SOL
1070
     1
1071
       12
  0
LINE
  8
0
 62
     0
  5
3F
 10
0.0
 20
0.0
 30
5.0
 11
5.0
 21
0.0
 31
5.0
1001
AME_SOL
1070
     1
1071
       11
  0
LINE
  8
0
 62
     0
  5
40
 10
0.0
 20
0.0
 30
0.0
 11
5.0
 21
0.0
 31
0.0
1001
AME_SOL
1070
     1
1071
       10
  0
LINE
  8
0
 62
     0
  5
41
 10
0.0
 20
1.0
 30
0.0
 11
0.0
 21
0.0
 31
0.0
1001
AME_SOL
1070
     1
1071
        9
  0
LINE
  8
0
 62
     0
  5
42
 10
5.0
 20
0.0
 30
0.0
 11
5.0
 21
1.0
 31
0.0
1001
AME_SOL
1070
     1
1071
        8
  0
LINE
  8
0
 62
     0
  5
43
 10
5.0
 20
1.0
 30
0.0
 11
0.0
 21
1.0
 31
0.0
1001
AME_SOL
1070
     1
1071
        7
  0
ENDBLK
  8
0
  5
44
  0
BLOCK
  8
0
  5
48
  2
*U3
 70
    65
 10
0.0
 20
0.0
 30
0.0
  1
*U
  3
*U
  0
LINE
  8
0
 62
     0
  5
49
 10
4.0
 20
1.0
 30
0.0
 11
4.0
 21
1.0
 31
3.0
1001
AME_SOL
1070
     1
1071
       18
  0
LINE
  8
0
 62
     0
  5
4A
 10
4.0
 20
1.0
 30
3.0
 11
4.0
 21
0.0
 31
3.0
1001
AME_SOL
1070
     1
1071
       17
  0
LINE
  8
0
 62
     0
  5
4B
 10
0.0
 20
1.0
 30
3.0
 11
4.0
 21
1.0
 31
3.0
1001
AME_SOL
1070
     1
1071
       16
  0
LINE
  8
0
 62
     0
  5
4C
 10
0.0
 20
1.0
 30
0.0
 11
0.0
 21
1.0
 31
3.0
1001
AME_SOL
1070
     1
1071
       15
  0
LINE
  8
0
 62
     0
  5
4D
 10
0.0
 20
1.0
 30
3.0
 11
0.0
 21
0.0
 31
3.0
1001
AME_SOL
1070
     1
1071
       14
  0
LINE
  8
0
 62
     0
  5
4E
 10
0.0
 20
0.0
 30
0.0
 11
0.0
 21
0.0
 31
3.0
1001
AME_SOL
1070
     1
1071
       13
  0
LINE
  8
0
 62
     0
  5
4F
 10
4.0
 20
0.0
 30
3.0
 11
4.0
 21
0.0
 31
0.0
1001
AME_SOL
1070
     1
1071
       12
  0
LINE
  8
0
 62
     0
  5
50
 10
0.0
 20
0.0
 30
3.0
 11
4.0
 21
0.0
 31
3.0
1001
AME_SOL
1070
     1
1071
       11
  0
LINE
  8
0
 62
     0
  5
51
 10
0.0
 20
0.0
 30
0.0
 11
4.0
 21
0.0
 31
0.0
1001
AME_SOL
1070
     1
1071
       10
  0
LINE
  8
0
 62
     0
  5
52
 10
0.0
 20
1.0
 30
0.0
 11
0.0
 21
0.0
 31
0.0
1001
AME_SOL
1070
     1
1071
        9
  0
LINE
  8
0
 62
     0
  5
53
 10
4.0
 20
0.0
 30
0.0
 11
4.0
 21
1.0
 31
0.0
1001
AME_SOL
1070
     1
1071
        8
  0
LINE
  8
0
 62
     0
  5
54
 10
4.0
 20
1.0
 30
0.0
 11
0.0
 21
1.0
 31
0.0
1001
AME_SOL
1070
     1
1071
        7
  0
ENDBLK
  8
0
  5
55
  0
BLOCK
  8
0
  5
5A
  2
*U4
 70
    65
 10
0.0
 20
0.0
 30
0.0
  1
*U
  3
*U
  0
LINE
  8
0
 62
     7
  5
5B
 10
5.0
 20
1.0
 30
0.0
 11
5.0
 21
1.0
 31
5.0
1001
AME_SOL
1070
     1
1071
       33
  0
LINE
  8
0
 62
     7
  5
5C
 10
5.0
 20
1.0
 30
5.0
 11
5.0
 21
0.0
 31
5.0
1001
AME_SOL
1070
     1
1071
       32
  0
LINE
  8
0
 62
     7
  5
5D
 10
0.0
 20
1.0
 30
5.0
 11
5.0
 21
1.0
 31
5.0
1001
AME_SOL
1070
     1
1071
       31
  0
LINE
  8
0
 62
     7
  5
5E
 10
0.0
 20
1.0
 30
4.0
 11
0.0
 21
1.0
 31
5.0
1001
AME_SOL
1070
     1
1071
       30
  0
LINE
  8
0
 62
     7
  5
5F
 10
0.0
 20
1.0
 30
0.0
 11
0.0
 21
1.0
 31
1.0
1001
AME_SOL
1070
     1
1071
       29
  0
LINE
  8
0
 62
     7
  5
60
 10
0.0
 20
1.0
 30
5.0
 11
0.0
 21
0.0
 31
5.0
1001
AME_SOL
1070
     1
1071
       28
  0
LINE
  8
0
 62
     7
  5
61
 10
0.0
 20
0.0
 30
4.0
 11
0.0
 21
0.0
 31
5.0
1001
AME_SOL
1070
     1
1071
       27
  0
LINE
  8
0
 62
     7
  5
62
 10
0.0
 20
0.0
 30
0.0
 11
0.0
 21
0.0
 31
1.0
1001
AME_SOL
1070
     1
1071
       26
  0
LINE
  8
0
 62
     7
  5
63
 10
5.0
 20
0.0
 30
5.0
 11
5.0
 21
0.0
 31
0.0
1001
AME_SOL
1070
     1
1071
       25
  0
LINE
  8
0
 62
     7
  5
64
 10
0.0
 20
0.0
 30
5.0
 11
5.0
 21
0.0
 31
5.0
1001
AME_SOL
1070
     1
1071
       24
  0
LINE
  8
0
 62
     7
  5
65
 10
0.0
 20
0.0
 30
0.0
 11
5.0
 21
0.0
 31
0.0
1001
AME_SOL
1070
     1
1071
       23
  0
LINE
  8
0
 62
     7
  5
66
 10
0.0
 20
1.0
 30
0.0
 11
0.0
 21
0.0
 31
0.0
1001
AME_SOL
1070
     1
1071
       22
  0
LINE
  8
0
 62
     7
  5
67
 10
5.0
 20
0.0
 30
0.0
 11
5.0
 21
1.0
 31
0.0
1001
AME_SOL
1070
     1
1071
       21
  0
LINE
  8
0
 62
     7
  5
68
 10
5.0
 20
1.0
 30
0.0
 11
0.0
 21
1.0
 31
0.0
1001
AME_SOL
1070
     1
1071
       20
  0
LINE
  8
0
 62
     7
  5
69
 10
4.0
 20
0.0
 30
1.0
 11
4.0
 21
0.0
 31
4.0
1001
AME_SOL
1070
     1
1071
       19
  0
LINE
  8
0
 62
     7
  5
6A
 10
4.0
 20
1.0
 30
4.0
 11
4.0
 21
1.0
 31
1.0
1001
AME_SOL
1070
     1
1071
       18
  0
LINE
  8
0
 62
     7
  5
6B
 10
4.0
 20
0.0
 30
4.0
 11
0.0
 21
0.0
 31
4.0
1001
AME_SOL
1070
     1
1071
       17
  0
LINE
  8
0
 62
     7
  5
6C
 10
0.0
 20
0.0
 30
4.0
 11
0.0
 21
1.0
 31
4.0
1001
AME_SOL
1070
     1
1071
       16
  0
LINE
  8
0
 62
     7
  5
6D
 10
0.0
 20
1.0
 30
4.0
 11
4.0
 21
1.0
 31
4.0
1001
AME_SOL
1070
     1
1071
       15
  0
LINE
  8
0
 62
     7
  5
6E
 10
4.0
 20
1.0
 30
4.0
 11
4.0
 21
0.0
 31
4.0
1001
AME_SOL
1070
     1
1071
       14
  0
LINE
  8
0
 62
     7
  5
6F
 10
0.0
 20
0.0
 30
1.0
 11
4.0
 21
0.0
 31
1.0
1001
AME_SOL
1070
     1
1071
       13
  0
LINE
  8
0
 62
     7
  5
70
 10
0.0
 20
1.0
 30
1.0
 11
0.0
 21
0.0
 31
1.0
1001
AME_SOL
1070
     1
1071
       12
  0
LINE
  8
0
 62
     7
  5
71
 10
4.0
 20
1.0
 30
1.0
 11
0.0
 21
1.0
 31
1.0
1001
AME_SOL
1070
     1
1071
       11
  0
LINE
  8
0
 62
     7
  5
72
 10
4.0
 20
0.0
 30
1.0
 11
4.0
 21
1.0
 31
1.0
1001
AME_SOL
1070
     1
1071
       10
  0
ENDBLK
  8
0
  5
73
  0
BLOCK
  8
0
  5
77
  2
*U5
 70
    65
 10
0.0
 20
0.0
 30
0.0
  1
*U
  3
*U
  0
LINE
  8
0
 62
     0
  5
78
 10
1.0
 20
1.0
 30
0.0
 11
1.0
 21
1.0
 31
1.0
1001
AME_SOL
1070
     1
1071
       18
  0
LINE
  8
0
 62
     0
  5
79
 10
1.0
 20
1.0
 30
1.0
 11
1.0
 21
0.0
 31
1.0
1001
AME_SOL
1070
     1
1071
       17
  0
LINE
  8
0
 62
     0
  5
7A
 10
0.0
 20
1.0
 30
1.0
 11
1.0
 21
1.0
 31
1.0
1001
AME_SOL
1070
     1
1071
       16
  0
LINE
  8
0
 62
     0
  5
7B
 10
0.0
 20
1.0
 30
0.0
 11
0.0
 21
1.0
 31
1.0
1001
AME_SOL
1070
     1
1071
       15
  0
LINE
  8
0
 62
     0
  5
7C
 10
0.0
 20
1.0
 30
1.0
 11
0.0
 21
0.0
 31
1.0
1001
AME_SOL
1070
     1
1071
       14
  0
LINE
  8
0
 62
     0
  5
7D
 10
0.0
 20
0.0
 30
0.0
 11
0.0
 21
0.0
 31
1.0
1001
AME_SOL
1070
     1
1071
       13
  0
LINE
  8
0
 62
     0
  5
7E
 10
1.0
 20
0.0
 30
1.0
 11
1.0
 21
0.0
 31
0.0
1001
AME_SOL
1070
     1
1071
       12
  0
LINE
  8
0
 62
     0
  5
7F
 10
0.0
 20
0.0
 30
1.0
 11
1.0
 21
0.0
 31
1.0
1001
AME_SOL
1070
     1
1071
       11
  0
LINE
  8
0
 62
     0
  5
80
 10
0.0
 20
0.0
 30
0.0
 11
1.0
 21
0.0
 31
0.0
1001
AME_SOL
1070
     1
1071
       10
  0
LINE
  8
0
 62
     0
  5
81
 10
0.0
 20
1.0
 30
0.0
 11
0.0
 21
0.0
 31
0.0
1001
AME_SOL
1070
     1
1071
        9
  0
LINE
  8
0
 62
     0
  5
82
 10
1.0
 20
0.0
 30
0.0
 11
1.0
 21
1.0
 31
0.0
1001
AME_SOL
1070
     1
1071
        8
  0
LINE
  8
0
 62
     0
  5
83
 10
1.0
 20
1.0
 30
0.0
 11
0.0
 21
1.0
 31
0.0
1001
AME_SOL
1070
     1
1071
        7
  0
ENDBLK
  8
0
  5
84
  0
BLOCK
  8
0
  5
89
  2
*U6
 70
    65
 10
0.0
 20
0.0
 30
0.0
  1
*U
  3
*U
  0
LINE
  8
0
 62
     7
  5
8A
 10
5.0
 20
1.0
 30
0.0
 11
5.0
 21
1.0
 31
5.0
1001
AME_SOL
1070
     1
1071
       34
  0
LINE
  8
0
 62
     7
  5
8B
 10
5.0
 20
1.0
 30
5.0
 11
5.0
 21
0.0
 31
5.0
1001
AME_SOL
1070
     1
1071
       33
  0
LINE
  8
0
 62
     7
  5
8C
 10
0.0
 20
1.0
 30
5.0
 11
5.0
 21
1.0
 31
5.0
1001
AME_SOL
1070
     1
1071
       32
  0
LINE
  8
0
 62
     7
  5
8D
 10
0.0
 20
1.0
 30
4.0
 11
0.0
 21
1.0
 31
5.0
1001
AME_SOL
1070
     1
1071
       31
  0
LINE
  8
0
 62
     7
  5
8E
 10
0.0
 20
1.0
 30
5.0
 11
0.0
 21
0.0
 31
5.0
1001
AME_SOL
1070
     1
1071
       30
  0
LINE
  8
0
 62
     7
  5
8F
 10
0.0
 20
0.0
 30
4.0
 11
0.0
 21
0.0
 31
5.0
1001
AME_SOL
1070
     1
1071
       29
  0
LINE
  8
0
 62
     7
  5
90
 10
5.0
 20
0.0
 30
5.0
 11
5.0
 21
0.0
 31
0.0
1001
AME_SOL
1070
     1
1071
       28
  0
LINE
  8
0
 62
     7
  5
91
 10
0.0
 20
0.0
 30
5.0
 11
5.0
 21
0.0
 31
5.0
1001
AME_SOL
1070
     1
1071
       27
  0
LINE
  8
0
 62
     7
  5
92
 10
1.0
 20
0.0
 30
0.0
 11
5.0
 21
0.0
 31
0.0
1001
AME_SOL
1070
     1
1071
       26
  0
LINE
  8
0
 62
     7
  5
93
 10
5.0
 20
0.0
 30
0.0
 11
5.0
 21
1.0
 31
0.0
1001
AME_SOL
1070
     1
1071
       25
  0
LINE
  8
0
 62
     7
  5
94
 10
5.0
 20
1.0
 30
0.0
 11
1.0
 21
1.0
 31
0.0
1001
AME_SOL
1070
     1
1071
       24
  0
LINE
  8
0
 62
     7
  5
95
 10
4.0
 20
0.0
 30
1.0
 11
4.0
 21
0.0
 31
4.0
1001
AME_SOL
1070
     1
1071
       23
  0
LINE
  8
0
 62
     7
  5
96
 10
4.0
 20
1.0
 30
4.0
 11
4.0
 21
1.0
 31
1.0
1001
AME_SOL
1070
     1
1071
       22
  0
LINE
  8
0
 62
     7
  5
97
 10
4.0
 20
0.0
 30
4.0
 11
0.0
 21
0.0
 31
4.0
1001
AME_SOL
1070
     1
1071
       21
  0
LINE
  8
0
 62
     7
  5
98
 10
0.0
 20
0.0
 30
4.0
 11
0.0
 21
1.0
 31
4.0
1001
AME_SOL
1070
     1
1071
       20
  0
LINE
  8
0
 62
     7
  5
99
 10
0.0
 20
1.0
 30
4.0
 11
4.0
 21
1.0
 31
4.0
1001
AME_SOL
1070
     1
1071
       19
  0
LINE
  8
0
 62
     7
  5
9A
 10
4.0
 20
1.0
 30
4.0
 11
4.0
 21
0.0
 31
4.0
1001
AME_SOL
1070
     1
1071
       18
  0
LINE
  8
0
 62
     7
  5
9B
 10
1.0
 20
0.0
 30
1.0
 11
4.0
 21
0.0
 31
1.0
1001
AME_SOL
1070
     1
1071
       17
  0
LINE
  8
0
 62
     7
  5
9C
 10
4.0
 20
1.0
 30
1.0
 11
1.0
 21
1.0
 31
1.0
1001
AME_SOL
1070
     1
1071
       16
  0
LINE
  8
0
 62
     7
  5
9D
 10
4.0
 20
0.0
 30
1.0
 11
4.0
 21
1.0
 31
1.0
1001
AME_SOL
1070
     1
1071
       15
  0
LINE
  8
0
 62
     7
  5
9E
 10
1.0
 20
0.0
 30
0.0
 11
1.0
 21
0.0
 31
1.0
1001
AME_SOL
1070
     1
1071
       14
  0
LINE
  8
0
 62
     7
  5
9F
 10
1.0
 20
1.0
 30
1.0
 11
1.0
 21
1.0
 31
0.0
1001
AME_SOL
1070
     1
1071
       13
  0
LINE
  8
0
 62
     7
  5
A0
 10
1.0
 20
1.0
 30
0.0
 11
1.0
 21
0.0
 31
0.0
1001
AME_SOL
1070
     1
1071
       12
  0
LINE
  8
0
 62
     7
  5
A1
 10
1.0
 20
1.0
 30
1.0
 11
1.0
 21
0.0
 31
1.0
1001
AME_SOL
1070
     1
1071
       11
  0
ENDBLK
  8
0
  5
A2
  0
BLOCK
  8
0
  5
A6
  2
*U7
 70
    65
 10
0.0
 20
0.0
 30
0.0
  1
*U
  3
*U
  0
LINE
  8
0
 62
     0
  5
A7
 10
3.0
 20
2.0
 30
0.0
 11
3.0
 21
2.0
 31
2.0
1001
AME_SOL
1070
     1
1071
       18
  0
LINE
  8
0
 62
     0
  5
A8
 10
3.0
 20
2.0
 30
2.0
 11
3.0
 21
0.0
 31
2.0
1001
AME_SOL
1070
     1
1071
       17
  0
LINE
  8
0
 62
     0
  5
A9
 10
0.0
 20
2.0
 30
2.0
 11
3.0
 21
2.0
 31
2.0
1001
AME_SOL
1070
     1
1071
       16
  0
LINE
  8
0
 62
     0
  5
AA
 10
0.0
 20
2.0
 30
0.0
 11
0.0
 21
2.0
 31
2.0
1001
AME_SOL
1070
     1
1071
       15
  0
LINE
  8
0
 62
     0
  5
AB
 10
0.0
 20
2.0
 30
2.0
 11
0.0
 21
0.0
 31
2.0
1001
AME_SOL
1070
     1
1071
       14
  0
LINE
  8
0
 62
     0
  5
AC
 10
0.0
 20
0.0
 30
0.0
 11
0.0
 21
0.0
 31
2.0
1001
AME_SOL
1070
     1
1071
       13
  0
LINE
  8
0
 62
     0
  5
AD
 10
3.0
 20
0.0
 30
2.0
 11
3.0
 21
0.0
 31
0.0
1001
AME_SOL
1070
     1
1071
       12
  0
LINE
  8
0
 62
     0
  5
AE
 10
0.0
 20
0.0
 30
2.0
 11
3.0
 21
0.0
 31
2.0
1001
AME_SOL
1070
     1
1071
       11
  0
LINE
  8
0
 62
     0
  5
AF
 10
0.0
 20
0.0
 30
0.0
 11
3.0
 21
0.0
 31
0.0
1001
AME_SOL
1070
     1
1071
       10
  0
LINE
  8
0
 62
     0
  5
B0
 10
0.0
 20
2.0
 30
0.0
 11
0.0
 21
0.0
 31
0.0
1001
AME_SOL
1070
     1
1071
        9
  0
LINE
  8
0
 62
     0
  5
B1
 10
3.0
 20
0.0
 30
0.0
 11
3.0
 21
2.0
 31
0.0
1001
AME_SOL
1070
     1
1071
        8
  0
LINE
  8
0
 62
     0
  5
B2
 10
3.0
 20
2.0
 30
0.0
 11
0.0
 21
2.0
 31
0.0
1001
AME_SOL
1070
     1
1071
        7
  0
ENDBLK
  8
0
  5
B3
  0
BLOCK
  8
0
  5
B8
  2
*U8
 70
    65
 10
0.0
 20
0.0
 30
0.0
  1
*U
  3
*U
  0
LINE
  8
0
 62
     7
  5
B9
 10
5.0
 20
1.0
 30
0.0
 11
5.0
 21
1.0
 31
5.0
1001
AME_SOL
1070
     1
1071
       49
  0
LINE
  8
0
 62
     7
  5
BA
 10
5.0
 20
1.0
 30
5.0
 11
5.0
 21
0.0
 31
5.0
1001
AME_SOL
1070
     1
1071
       48
  0
LINE
  8
0
 62
     7
  5
BB
 10
0.0
 20
1.0
 30
5.0
 11
5.0
 21
1.0
 31
5.0
1001
AME_SOL
1070
     1
1071
       47
  0
LINE
  8
0
 62
     7
  5
BC
 10
0.0
 20
1.0
 30
4.0
 11
0.0
 21
1.0
 31
5.0
1001
AME_SOL
1070
     1
1071
       46
  0
LINE
  8
0
 62
     7
  5
BD
 10
0.0
 20
1.0
 30
5.0
 11
0.0
 21
0.0
 31
5.0
1001
AME_SOL
1070
     1
1071
       45
  0
LINE
  8
0
 62
     7
  5
BE
 10
0.0
 20
0.0
 30
2.0
 11
0.0
 21
0.0
 31
5.0
1001
AME_SOL
1070
     1
1071
       44
  0
LINE
  8
0
 62
     7
  5
BF
 10
5.0
 20
0.0
 30
5.0
 11
5.0
 21
0.0
 31
0.0
1001
AME_SOL
1070
     1
1071
       43
  0
LINE
  8
0
 62
     7
  5
C0
 10
0.0
 20
0.0
 30
5.0
 11
5.0
 21
0.0
 31
5.0
1001
AME_SOL
1070
     1
1071
       42
  0
LINE
  8
0
 62
     7
  5
C1
 10
1.0
 20
0.0
 30
0.0
 11
5.0
 21
0.0
 31
0.0
1001
AME_SOL
1070
     1
1071
       41
  0
LINE
  8
0
 62
     7
  5
C2
 10
5.0
 20
0.0
 30
0.0
 11
5.0
 21
1.0
 31
0.0
1001
AME_SOL
1070
     1
1071
       40
  0
LINE
  8
0
 62
     7
  5
C3
 10
5.0
 20
1.0
 30
0.0
 11
1.0
 21
1.0
 31
0.0
1001
AME_SOL
1070
     1
1071
       39
  0
LINE
  8
0
 62
     7
  5
C4
 10
4.0
 20
0.0
 30
1.0
 11
4.0
 21
0.0
 31
4.0
1001
AME_SOL
1070
     1
1071
       38
  0
LINE
  8
0
 62
     7
  5
C5
 10
4.0
 20
1.0
 30
4.0
 11
4.0
 21
1.0
 31
1.0
1001
AME_SOL
1070
     1
1071
       37
  0
LINE
  8
0
 62
     7
  5
C6
 10
4.0
 20
0.0
 30
4.0
 11
3.0
 21
0.0
 31
4.0
1001
AME_SOL
1070
     1
1071
       36
  0
LINE
  8
0
 62
     7
  5
C7
 10
3.0
 20
1.0
 30
4.0
 11
4.0
 21
1.0
 31
4.0
1001
AME_SOL
1070
     1
1071
       35
  0
LINE
  8
0
 62
     7
  5
C8
 10
4.0
 20
1.0
 30
4.0
 11
4.0
 21
0.0
 31
4.0
1001
AME_SOL
1070
     1
1071
       34
  0
LINE
  8
0
 62
     7
  5
C9
 10
1.0
 20
0.0
 30
1.0
 11
4.0
 21
0.0
 31
1.0
1001
AME_SOL
1070
     1
1071
       33
  0
LINE
  8
0
 62
     7
  5
CA
 10
4.0
 20
1.0
 30
1.0
 11
1.0
 21
1.0
 31
1.0
1001
AME_SOL
1070
     1
1071
       32
  0
LINE
  8
0
 62
     7
  5
CB
 10
4.0
 20
0.0
 30
1.0
 11
4.0
 21
1.0
 31
1.0
1001
AME_SOL
1070
     1
1071
       31
  0
LINE
  8
0
 62
     7
  5
CC
 10
1.0
 20
0.0
 30
0.0
 11
1.0
 21
0.0
 31
1.0
1001
AME_SOL
1070
     1
1071
       30
  0
LINE
  8
0
 62
     7
  5
CD
 10
1.0
 20
1.0
 30
1.0
 11
1.0
 21
1.0
 31
0.0
1001
AME_SOL
1070
     1
1071
       29
  0
LINE
  8
0
 62
     7
  5
CE
 10
1.0
 20
1.0
 30
0.0
 11
1.0
 21
0.0
 31
0.0
1001
AME_SOL
1070
     1
1071
       28
  0
LINE
  8
0
 62
     7
  5
CF
 10
1.0
 20
1.0
 30
1.0
 11
1.0
 21
0.0
 31
1.0
1001
AME_SOL
1070
     1
1071
       27
  0
LINE
  8
0
 62
     7
  5
D0
 10
3.0
 20
0.0
 30
2.0
 11
3.0
 21
0.0
 31
4.0
1001
AME_SOL
1070
     1
1071
       26
  0
LINE
  8
0
 62
     7
  5
D1
 10
3.0
 20
0.0
 30
4.0
 11
3.0
 21
1.0
 31
4.0
1001
AME_SOL
1070
     1
1071
       25
  0
LINE
  8
0
 62
     7
  5
D2
 10
0.0
 20
2.0
 30
4.0
 11
0.0
 21
2.0
 31
2.0
1001
AME_SOL
1070
     1
1071
       24
  0
LINE
  8
0
 62
     7
  5
D3
 10
3.0
 20
2.0
 30
2.0
 11
3.0
 21
2.0
 31
4.0
1001
AME_SOL
1070
     1
1071
       23
  0
LINE
  8
0
 62
     7
  5
D4
 10
0.0
 20
1.0
 30
4.0
 11
0.0
 21
2.0
 31
4.0
1001
AME_SOL
1070
     1
1071
       22
  0
LINE
  8
0
 62
     7
  5
D5
 10
0.0
 20
1.0
 30
4.0
 11
3.0
 21
1.0
 31
4.0
1001
AME_SOL
1070
     1
1071
       21
  0
LINE
  8
0
 62
     7
  5
D6
 10
3.0
 20
2.0
 30
4.0
 11
3.0
 21
1.0
 31
4.0
1001
AME_SOL
1070
     1
1071
       20
  0
LINE
  8
0
 62
     7
  5
D7
 10
0.0
 20
2.0
 30
4.0
 11
3.0
 21
2.0
 31
4.0
1001
AME_SOL
1070
     1
1071
       19
  0
LINE
  8
0
 62
     7
  5
D8
 10
0.0
 20
0.0
 30
2.0
 11
3.0
 21
0.0
 31
2.0
1001
AME_SOL
1070
     1
1071
       18
  0
LINE
  8
0
 62
     7
  5
D9
 10
0.0
 20
2.0
 30
2.0
 11
0.0
 21
0.0
 31
2.0
1001
AME_SOL
1070
     1
1071
       17
  0
LINE
  8
0
 62
     7
  5
DA
 10
3.0
 20
0.0
 30
2.0
 11
3.0
 21
2.0
 31
2.0
1001
AME_SOL
1070
     1
1071
       16
  0
LINE
  8
0
 62
     7
  5
DB
 10
3.0
 20
2.0
 30
2.0
 11
0.0
 21
2.0
 31
2.0
1001
AME_SOL
1070
     1
1071
       15
  0
ENDBLK
  8
0
  5
DC
  0
BLOCK
  8
0
  5
E0
  2
*U9
 70
    65
 10
0.0
 20
0.0
 30
0.0
  1
*U
  3
*U
  0
LINE
  8
0
 62
     0
  5
E1
 10
1.0
 20
2.0
 30
0.0
 11
1.0
 21
2.0
 31
1.0
1001
AME_SOL
1070
     1
1071
       18
  0
LINE
  8
0
 62
     0
  5
E2
 10
1.0
 20
2.0
 30
1.0
 11
1.0
 21
0.0
 31
1.0
1001
AME_SOL
1070
     1
1071
       17
  0
LINE
  8
0
 62
     0
  5
E3
 10
0.0
 20
2.0
 30
1.0
 11
1.0
 21
2.0
 31
1.0
1001
AME_SOL
1070
     1
1071
       16
  0
LINE
  8
0
 62
     0
  5
E4
 10
0.0
 20
2.0
 30
0.0
 11
0.0
 21
2.0
 31
1.0
1001
AME_SOL
1070
     1
1071
       15
  0
LINE
  8
0
 62
     0
  5
E5
 10
0.0
 20
2.0
 30
1.0
 11
0.0
 21
0.0
 31
1.0
1001
AME_SOL
1070
     1
1071
       14
  0
LINE
  8
0
 62
     0
  5
E6
 10
0.0
 20
0.0
 30
0.0
 11
0.0
 21
0.0
 31
1.0
1001
AME_SOL
1070
     1
1071
       13
  0
LINE
  8
0
 62
     0
  5
E7
 10
1.0
 20
0.0
 30
1.0
 11
1.0
 21
0.0
 31
0.0
1001
AME_SOL
1070
     1
1071
       12
  0
LINE
  8
0
 62
     0
  5
E8
 10
0.0
 20
0.0
 30
1.0
 11
1.0
 21
0.0
 31
1.0
1001
AME_SOL
1070
     1
1071
       11
  0
LINE
  8
0
 62
     0
  5
E9
 10
0.0
 20
0.0
 30
0.0
 11
1.0
 21
0.0
 31
0.0
1001
AME_SOL
1070
     1
1071
       10
  0
LINE
  8
0
 62
     0
  5
EA
 10
0.0
 20
2.0
 30
0.0
 11
0.0
 21
0.0
 31
0.0
1001
AME_SOL
1070
     1
1071
        9
  0
LINE
  8
0
 62
     0
  5
EB
 10
1.0
 20
0.0
 30
0.0
 11
1.0
 21
2.0
 31
0.0
1001
AME_SOL
1070
     1
1071
        8
  0
LINE
  8
0
 62
     0
  5
EC
 10
1.0
 20
2.0
 30
0.0
 11
0.0
 21
2.0
 31
0.0
1001
AME_SOL
1070
     1
1071
        7
  0
ENDBLK
  8
0
  5
ED
  0
BLOCK
  8
0
  5
F2
  2
*U10
 70
    65
 10
0.0
 20
0.0
 30
0.0
  1
*U
  3
*U
  0
LINE
  8
0
 62
     7
  5
F3
 10
5.0
 20
1.0
 30
0.0
 11
5.0
 21
1.0
 31
5.0
1001
AME_SOL
1070
     1
1071
       57
  0
LINE
  8
0
 62
     7
  5
F4
 10
5.0
 20
1.0
 30
5.0
 11
5.0
 21
0.0
 31
5.0
1001
AME_SOL
1070
     1
1071
       56
  0
LINE
  8
0
 62
     7
  5
F5
 10
0.0
 20
1.0
 30
5.0
 11
5.0
 21
1.0
 31
5.0
1001
AME_SOL
1070
     1
1071
       55
  0
LINE
  8
0
 62
     7
  5
F6
 10
0.0
 20
1.0
 30
4.0
 11
0.0
 21
1.0
 31
5.0
1001
AME_SOL
1070
     1
1071
       54
  0
LINE
  8
0
 62
     7
  5
F7
 10
0.0
 20
1.0
 30
5.0
 11
0.0
 21
0.0
 31
5.0
1001
AME_SOL
1070
     1
1071
       53
  0
LINE
  8
0
 62
     7
  5
F8
 10
0.0
 20
0.0
 30
2.0
 11
0.0
 21
0.0
 31
5.0
1001
AME_SOL
1070
     1
1071
       52
  0
LINE
  8
0
 62
     7
  5
F9
 10
5.0
 20
0.0
 30
5.0
 11
5.0
 21
0.0
 31
0.0
1001
AME_SOL
1070
     1
1071
       51
  0
LINE
  8
0
 62
     7
  5
FA
 10
0.0
 20
0.0
 30
5.0
 11
5.0
 21
0.0
 31
5.0
1001
AME_SOL
1070
     1
1071
       50
  0
LINE
  8
0
 62
     7
  5
FB
 10
1.0
 20
0.0
 30
0.0
 11
5.0
 21
0.0
 31
0.0
1001
AME_SOL
1070
     1
1071
       49
  0
LINE
  8
0
 62
     7
  5
FC
 10
5.0
 20
0.0
 30
0.0
 11
5.0
 21
1.0
 31
0.0
1001
AME_SOL
1070
     1
1071
       48
  0
LINE
  8
0
 62
     7
  5
FD
 10
5.0
 20
1.0
 30
0.0
 11
1.0
 21
1.0
 31
0.0
1001
AME_SOL
1070
     1
1071
       47
  0
LINE
  8
0
 62
     7
  5
FE
 10
4.0
 20
0.0
 30
1.0
 11
4.0
 21
0.0
 31
4.0
1001
AME_SOL
1070
     1
1071
       46
  0
LINE
  8
0
 62
     7
  5
FF
 10
4.0
 20
1.0
 30
4.0
 11
4.0
 21
1.0
 31
1.0
1001
AME_SOL
1070
     1
1071
       45
  0
LINE
  8
0
 62
     7
  5
100
 10
4.0
 20
0.0
 30
4.0
 11
2.0
 21
0.0
 31
4.0
1001
AME_SOL
1070
     1
1071
       44
  0
LINE
  8
0
 62
     7
  5
101
 10
2.0
 20
1.0
 30
4.0
 11
4.0
 21
1.0
 31
4.0
1001
AME_SOL
1070
     1
1071
       43
  0
LINE
  8
0
 62
     7
  5
102
 10
4.0
 20
1.0
 30
4.0
 11
4.0
 21
0.0
 31
4.0
1001
AME_SOL
1070
     1
1071
       42
  0
LINE
  8
0
 62
     7
  5
103
 10
1.0
 20
0.0
 30
1.0
 11
4.0
 21
0.0
 31
1.0
1001
AME_SOL
1070
     1
1071
       41
  0
LINE
  8
0
 62
     7
  5
104
 10
4.0
 20
1.0
 30
1.0
 11
1.0
 21
1.0
 31
1.0
1001
AME_SOL
1070
     1
1071
       40
  0
LINE
  8
0
 62
     7
  5
105
 10
4.0
 20
0.0
 30
1.0
 11
4.0
 21
1.0
 31
1.0
1001
AME_SOL
1070
     1
1071
       39
  0
LINE
  8
0
 62
     7
  5
106
 10
1.0
 20
0.0
 30
0.0
 11
1.0
 21
0.0
 31
1.0
1001
AME_SOL
1070
     1
1071
       38
  0
LINE
  8
0
 62
     7
  5
107
 10
1.0
 20
1.0
 30
1.0
 11
1.0
 21
1.0
 31
0.0
1001
AME_SOL
1070
     1
1071
       37
  0
LINE
  8
0
 62
     7
  5
108
 10
1.0
 20
1.0
 30
0.0
 11
1.0
 21
0.0
 31
0.0
1001
AME_SOL
1070
     1
1071
       36
  0
LINE
  8
0
 62
     7
  5
109
 10
1.0
 20
1.0
 30
1.0
 11
1.0
 21
0.0
 31
1.0
1001
AME_SOL
1070
     1
1071
       35
  0
LINE
  8
0
 62
     7
  5
10A
 10
3.0
 20
0.0
 30
2.0
 11
3.0
 21
0.0
 31
3.0
1001
AME_SOL
1070
     1
1071
       34
  0
LINE
  8
0
 62
     7
  5
10B
 10
0.0
 20
2.0
 30
4.0
 11
0.0
 21
2.0
 31
2.0
1001
AME_SOL
1070
     1
1071
       33
  0
LINE
  8
0
 62
     7
  5
10C
 10
3.0
 20
2.0
 30
2.0
 11
3.0
 21
2.0
 31
3.0
1001
AME_SOL
1070
     1
1071
       32
  0
LINE
  8
0
 62
     7
  5
10D
 10
0.0
 20
1.0
 30
4.0
 11
2.0
 21
1.0
 31
4.0
1001
AME_SOL
1070
     1
1071
       31
  0
LINE
  8
0
 62
     7
  5
10E
 10
0.0
 20
1.0
 30
4.0
 11
0.0
 21
2.0
 31
4.0
1001
AME_SOL
1070
     1
1071
       30
  0
LINE
  8
0
 62
     7
  5
10F
 10
0.0
 20
2.0
 30
4.0
 11
2.0
 21
2.0
 31
4.0
1001
AME_SOL
1070
     1
1071
       29
  0
LINE
  8
0
 62
     7
  5
110
 10
0.0
 20
0.0
 30
2.0
 11
3.0
 21
0.0
 31
2.0
1001
AME_SOL
1070
     1
1071
       28
  0
LINE
  8
0
 62
     7
  5
111
 10
0.0
 20
2.0
 30
2.0
 11
0.0
 21
0.0
 31
2.0
1001
AME_SOL
1070
     1
1071
       27
  0
LINE
  8
0
 62
     7
  5
112
 10
3.0
 20
0.0
 30
2.0
 11
3.0
 21
2.0
 31
2.0
1001
AME_SOL
1070
     1
1071
       26
  0
LINE
  8
0
 62
     7
  5
113
 10
3.0
 20
2.0
 30
2.0
 11
0.0
 21
2.0
 31
2.0
1001
AME_SOL
1070
     1
1071
       25
  0
LINE
  8
0
 62
     7
  5
114
 10
2.0
 20
0.0
 30
4.0
 11
2.0
 21
0.0
 31
3.0
1001
AME_SOL
1070
     1
1071
       24
  0
LINE
  8
0
 62
     7
  5
115
 10
2.0
 20
2.0
 30
3.0
 11
2.0
 21
2.0
 31
4.0
1001
AME_SOL
1070
     1
1071
       23
  0
LINE
  8
0
 62
     7
  5
116
 10
2.0
 20
2.0
 30
4.0
 11
2.0
 21
1.0
 31
4.0
1001
AME_SOL
1070
     1
1071
       22
  0
LINE
  8
0
 62
     7
  5
117
 10
2.0
 20
1.0
 30
4.0
 11
2.0
 21
0.0
 31
4.0
1001
AME_SOL
1070
     1
1071
       21
  0
LINE
  8
0
 62
     7
  5
118
 10
2.0
 20
0.0
 30
3.0
 11
3.0
 21
0.0
 31
3.0
1001
AME_SOL
1070
     1
1071
       20
  0
LINE
  8
0
 62
     7
  5
119
 10
3.0
 20
0.0
 30
3.0
 11
3.0
 21
2.0
 31
3.0
1001
AME_SOL
1070
     1
1071
       19
  0
LINE
  8
0
 62
     7
  5
11A
 10
3.0
 20
2.0
 30
3.0
 11
2.0
 21
2.0
 31
3.0
1001
AME_SOL
1070
     1
1071
       18
  0
LINE
  8
0
 62
     7
  5
11B
 10
2.0
 20
2.0
 30
3.0
 11
2.0
 21
0.0
 31
3.0
1001
AME_SOL
1070
     1
1071
       17
  0
ENDBLK
  8
0
  5
11C
  0
BLOCK
  8
0
  5
1C7
  2
AME_MAT
 70
    64
 10
0.0
 20
0.0
 30
0.0
  1
AME_MAT
  3
AME_MAT
  0
ENDBLK
  8
0
  5
1C8
  0
BLOCK
  8
0
  5
1CC
  2
*U13
 70
    65
 10
0.0
 20
0.0
 30
0.0
  1
*U
  3
*U
  0
LINE
  8
0
 62
     0
  5
1CD
 10
5.0
 20
2.0
 30
0.0
 11
5.0
 21
2.0
 31
1.0
1001
AME_SOL
1070
     1
1071
       18
  0
LINE
  8
0
 62
     0
  5
1CE
 10
5.0
 20
2.0
 30
1.0
 11
5.0
 21
0.0
 31
1.0
1001
AME_SOL
1070
     1
1071
       17
  0
LINE
  8
0
 62
     0
  5
1CF
 10
0.0
 20
2.0
 30
1.0
 11
5.0
 21
2.0
 31
1.0
1001
AME_SOL
1070
     1
1071
       16
  0
LINE
  8
0
 62
     0
  5
1D0
 10
0.0
 20
2.0
 30
0.0
 11
0.0
 21
2.0
 31
1.0
1001
AME_SOL
1070
     1
1071
       15
  0
LINE
  8
0
 62
     0
  5
1D1
 10
0.0
 20
2.0
 30
1.0
 11
0.0
 21
0.0
 31
1.0
1001
AME_SOL
1070
     1
1071
       14
  0
LINE
  8
0
 62
     0
  5
1D2
 10
0.0
 20
0.0
 30
0.0
 11
0.0
 21
0.0
 31
1.0
1001
AME_SOL
1070
     1
1071
       13
  0
LINE
  8
0
 62
     0
  5
1D3
 10
5.0
 20
0.0
 30
1.0
 11
5.0
 21
0.0
 31
0.0
1001
AME_SOL
1070
     1
1071
       12
  0
LINE
  8
0
 62
     0
  5
1D4
 10
0.0
 20
0.0
 30
1.0
 11
5.0
 21
0.0
 31
1.0
1001
AME_SOL
1070
     1
1071
       11
  0
LINE
  8
0
 62
     0
  5
1D5
 10
0.0
 20
0.0
 30
0.0
 11
5.0
 21
0.0
 31
0.0
1001
AME_SOL
1070
     1
1071
       10
  0
LINE
  8
0
 62
     0
  5
1D6
 10
0.0
 20
2.0
 30
0.0
 11
0.0
 21
0.0
 31
0.0
1001
AME_SOL
1070
     1
1071
        9
  0
LINE
  8
0
 62
     0
  5
1D7
 10
5.0
 20
0.0
 30
0.0
 11
5.0
 21
2.0
 31
0.0
1001
AME_SOL
1070
     1
1071
        8
  0
LINE
  8
0
 62
     0
  5
1D8
 10
5.0
 20
2.0
 30
0.0
 11
0.0
 21
2.0
 31
0.0
1001
AME_SOL
1070
     1
1071
        7
  0
ENDBLK
  8
0
  5
1D9
  0
BLOCK
  8
0
  5
1DE
  2
*U14
 70
    65
 10
0.0
 20
0.0
 30
0.0
  1
*U
  3
*U
  0
LINE
  8
0
 62
     7
  5
1DF
 10
5.0
 20
1.0
 30
0.0
 11
5.0
 21
1.0
 31
5.0
1001
AME_SOL
1070
     1
1071
       64
  0
LINE
  8
0
 62
     7
  5
1E0
 10
0.0
 20
1.0
 30
4.0
 11
0.0
 21
1.0
 31
5.0
1001
AME_SOL
1070
     1
1071
       63
  0
LINE
  8
0
 62
     7
  5
1E1
 10
0.0
 20
0.0
 30
2.0
 11
0.0
 21
0.0
 31
6.0
1001
AME_SOL
1070
     1
1071
       62
  0
LINE
  8
0
 62
     7
  5
1E2
 10
5.0
 20
0.0
 30
6.0
 11
5.0
 21
0.0
 31
0.0
1001
AME_SOL
1070
     1
1071
       61
  0
LINE
  8
0
 62
     7
  5
1E3
 10
1.0
 20
0.0
 30
0.0
 11
5.0
 21
0.0
 31
0.0
1001
AME_SOL
1070
     1
1071
       60
  0
LINE
  8
0
 62
     7
  5
1E4
 10
5.0
 20
1.0
 30
0.0
 11
1.0
 21
1.0
 31
0.0
1001
AME_SOL
1070
     1
1071
       59
  0
LINE
  8
0
 62
     7
  5
1E5
 10
5.0
 20
0.0
 30
0.0
 11
5.0
 21
1.0
 31
0.0
1001
AME_SOL
1070
     1
1071
       58
  0
LINE
  8
0
 62
     7
  5
1E6
 10
4.0
 20
0.0
 30
1.0
 11
4.0
 21
0.0
 31
4.0
1001
AME_SOL
1070
     1
1071
       57
  0
LINE
  8
0
 62
     7
  5
1E7
 10
4.0
 20
1.0
 30
4.0
 11
4.0
 21
1.0
 31
1.0
1001
AME_SOL
1070
     1
1071
       56
  0
LINE
  8
0
 62
     7
  5
1E8
 10
4.0
 20
0.0
 30
4.0
 11
2.0
 21
0.0
 31
4.0
1001
AME_SOL
1070
     1
1071
       55
  0
LINE
  8
0
 62
     7
  5
1E9
 10
2.0
 20
1.0
 30
4.0
 11
4.0
 21
1.0
 31
4.0
1001
AME_SOL
1070
     1
1071
       54
  0
LINE
  8
0
 62
     7
  5
1EA
 10
4.0
 20
1.0
 30
4.0
 11
4.0
 21
0.0
 31
4.0
1001
AME_SOL
1070
     1
1071
       53
  0
LINE
  8
0
 62
     7
  5
1EB
 10
1.0
 20
0.0
 30
1.0
 11
4.0
 21
0.0
 31
1.0
1001
AME_SOL
1070
     1
1071
       52
  0
LINE
  8
0
 62
     7
  5
1EC
 10
4.0
 20
1.0
 30
1.0
 11
1.0
 21
1.0
 31
1.0
1001
AME_SOL
1070
     1
1071
       51
  0
LINE
  8
0
 62
     7
  5
1ED
 10
4.0
 20
0.0
 30
1.0
 11
4.0
 21
1.0
 31
1.0
1001
AME_SOL
1070
     1
1071
       50
  0
LINE
  8
0
 62
     7
  5
1EE
 10
1.0
 20
0.0
 30
0.0
 11
1.0
 21
0.0
 31
1.0
1001
AME_SOL
1070
     1
1071
       49
  0
LINE
  8
0
 62
     7
  5
1EF
 10
1.0
 20
1.0
 30
1.0
 11
1.0
 21
1.0
 31
0.0
1001
AME_SOL
1070
     1
1071
       48
  0
LINE
  8
0
 62
     7
  5
1F0
 10
1.0
 20
1.0
 30
0.0
 11
1.0
 21
0.0
 31
0.0
1001
AME_SOL
1070
     1
1071
       47
  0
LINE
  8
0
 62
     7
  5
1F1
 10
1.0
 20
1.0
 30
1.0
 11
1.0
 21
0.0
 31
1.0
1001
AME_SOL
1070
     1
1071
       46
  0
LINE
  8
0
 62
     7
  5
1F2
 10
3.0
 20
0.0
 30
2.0
 11
3.0
 21
0.0
 31
3.0
1001
AME_SOL
1070
     1
1071
       45
  0
LINE
  8
0
 62
     7
  5
1F3
 10
0.0
 20
2.0
 30
4.0
 11
0.0
 21
2.0
 31
2.0
1001
AME_SOL
1070
     1
1071
       44
  0
LINE
  8
0
 62
     7
  5
1F4
 10
0.0
 20
2.0
 30
6.0
 11
0.0
 21
2.0
 31
5.0
1001
AME_SOL
1070
     1
1071
       43
  0
LINE
  8
0
 62
     7
  5
1F5
 10
3.0
 20
2.0
 30
2.0
 11
3.0
 21
2.0
 31
3.0
1001
AME_SOL
1070
     1
1071
       42
  0
LINE
  8
0
 62
     7
  5
1F6
 10
5.0
 20
2.0
 30
5.0
 11
5.0
 21
2.0
 31
6.0
1001
AME_SOL
1070
     1
1071
       41
  0
LINE
  8
0
 62
     7
  5
1F7
 10
0.0
 20
1.0
 30
4.0
 11
2.0
 21
1.0
 31
4.0
1001
AME_SOL
1070
     1
1071
       40
  0
LINE
  8
0
 62
     7
  5
1F8
 10
0.0
 20
1.0
 30
4.0
 11
0.0
 21
2.0
 31
4.0
1001
AME_SOL
1070
     1
1071
       39
  0
LINE
  8
0
 62
     7
  5
1F9
 10
0.0
 20
2.0
 30
4.0
 11
2.0
 21
2.0
 31
4.0
1001
AME_SOL
1070
     1
1071
       38
  0
LINE
  8
0
 62
     7
  5
1FA
 10
0.0
 20
0.0
 30
2.0
 11
3.0
 21
0.0
 31
2.0
1001
AME_SOL
1070
     1
1071
       37
  0
LINE
  8
0
 62
     7
  5
1FB
 10
0.0
 20
2.0
 30
2.0
 11
0.0
 21
0.0
 31
2.0
1001
AME_SOL
1070
     1
1071
       36
  0
LINE
  8
0
 62
     7
  5
1FC
 10
3.0
 20
0.0
 30
2.0
 11
3.0
 21
2.0
 31
2.0
1001
AME_SOL
1070
     1
1071
       35
  0
LINE
  8
0
 62
     7
  5
1FD
 10
3.0
 20
2.0
 30
2.0
 11
0.0
 21
2.0
 31
2.0
1001
AME_SOL
1070
     1
1071
       34
  0
LINE
  8
0
 62
     7
  5
1FE
 10
2.0
 20
0.0
 30
4.0
 11
2.0
 21
0.0
 31
3.0
1001
AME_SOL
1070
     1
1071
       33
  0
LINE
  8
0
 62
     7
  5
1FF
 10
2.0
 20
2.0
 30
4.0
 11
2.0
 21
1.0
 31
4.0
1001
AME_SOL
1070
     1
1071
       32
  0
LINE
  8
0
 62
     7
  5
200
 10
2.0
 20
1.0
 30
4.0
 11
2.0
 21
0.0
 31
4.0
1001
AME_SOL
1070
     1
1071
       31
  0
LINE
  8
0
 62
     7
  5
201
 10
2.0
 20
2.0
 30
3.0
 11
2.0
 21
2.0
 31
4.0
1001
AME_SOL
1070
     1
1071
       30
  0
LINE
  8
0
 62
     7
  5
202
 10
2.0
 20
0.0
 30
3.0
 11
3.0
 21
0.0
 31
3.0
1001
AME_SOL
1070
     1
1071
       29
  0
LINE
  8
0
 62
     7
  5
203
 10
3.0
 20
0.0
 30
3.0
 11
3.0
 21
2.0
 31
3.0
1001
AME_SOL
1070
     1
1071
       28
  0
LINE
  8
0
 62
     7
  5
204
 10
2.0
 20
2.0
 30
3.0
 11
2.0
 21
0.0
 31
3.0
1001
AME_SOL
1070
     1
1071
       27
  0
LINE
  8
0
 62
     7
  5
205
 10
3.0
 20
2.0
 30
3.0
 11
2.0
 21
2.0
 31
3.0
1001
AME_SOL
1070
     1
1071
       26
  0
LINE
  8
0
 62
     7
  5
206
 10
5.0
 20
0.0
 30
6.0
 11
0.0
 21
0.0
 31
6.0
1001
AME_SOL
1070
     1
1071
       25
  0
LINE
  8
0
 62
     7
  5
207
 10
0.0
 20
0.0
 30
6.0
 11
0.0
 21
2.0
 31
6.0
1001
AME_SOL
1070
     1
1071
       24
  0
LINE
  8
0
 62
     7
  5
208
 10
5.0
 20
2.0
 30
6.0
 11
5.0
 21
0.0
 31
6.0
1001
AME_SOL
1070
     1
1071
       23
  0
LINE
  8
0
 62
     7
  5
209
 10
0.0
 20
2.0
 30
6.0
 11
5.0
 21
2.0
 31
6.0
1001
AME_SOL
1070
     1
1071
       22
  0
LINE
  8
0
 62
     7
  5
20A
 10
5.0
 20
1.0
 30
5.0
 11
0.0
 21
1.0
 31
5.0
1001
AME_SOL
1070
     1
1071
       21
  0
LINE
  8
0
 62
     7
  5
20B
 10
0.0
 20
2.0
 30
5.0
 11
0.0
 21
1.0
 31
5.0
1001
AME_SOL
1070
     1
1071
       20
  0
LINE
  8
0
 62
     7
  5
20C
 10
5.0
 20
1.0
 30
5.0
 11
5.0
 21
2.0
 31
5.0
1001
AME_SOL
1070
     1
1071
       19
  0
LINE
  8
0
 62
     7
  5
20D
 10
5.0
 20
2.0
 30
5.0
 11
0.0
 21
2.0
 31
5.0
1001
AME_SOL
1070
     1
1071
       18
  0
ENDBLK
  8
0
  5
20E
  0
BLOCK
  8
0
  5
212
  2
*U15
 70
    65
 10
0.0
 20
0.0
 30
0.0
  1
*U
  3
*U
  0
POLYLINE
  8
0
 62
     7
  5
213
 66
     1
 10
0.0
 20
0.0
 30
0.0
 70
    64
  0
VERTEX
  8
0
  5
214
 10
5.0
 20
0.0
 30
6.0
 70
   192
  0
VERTEX
  8
0
  5
215
 10
5.0
 20
1.0
 30
5.0
 70
   192
  0
VERTEX
  8
0
  5
216
 10
5.0
 20
2.0
 30
6.0
 70
   192
  0
VERTEX
  8
0
  5
217
 10
5.0
 20
0.0
 30
0.0
 70
   192
  0
VERTEX
  8
0
  5
218
 10
5.0
 20
2.0
 30
5.0
 70
   192
  0
VERTEX
  8
0
  5
219
 10
5.0
 20
1.0
 30
0.0
 70
   192
  0
VERTEX
  8
0
 62
     7
  5
21A
 10
0.0
 20
0.0
 30
0.0
 70
   128
 71
    -1
 72
    -2
 73
     3
  0
VERTEX
  8
0
 62
     7
  5
21B
 10
0.0
 20
0.0
 30
0.0
 70
   128
 71
     1
 72
    -4
 73
    -2
  0
VERTEX
  8
0
 62
     7
  5
21C
 10
0.0
 20
0.0
 30
0.0
 70
   128
 71
     2
 72
     5
 73
    -3
  0
VERTEX
  8
0
 62
     7
  5
21D
 10
0.0
 20
0.0
 30
0.0
 70
   128
 71
     4
 72
     6
 73
    -2
  0
SEQEND
  8
0
 62
     7
  5
21E
  0
POLYLINE
  8
0
 62
     7
  5
21F
 66
     1
 10
0.0
 20
0.0
 30
0.0
 70
    64
  0
VERTEX
  8
0
  5
220
 10
4.0
 20
1.0
 30
1.0
 70
   192
  0
VERTEX
  8
0
  5
221
 10
5.0
 20
1.0
 30
5.0
 70
   192
  0
VERTEX
  8
0
  5
222
 10
5.0
 20
1.0
 30
0.0
 70
   192
  0
VERTEX
  8
0
  5
223
 10
4.0
 20
1.0
 30
4.0
 70
   192
  0
VERTEX
  8
0
  5
224
 10
1.0
 20
1.0
 30
1.0
 70
   192
  0
VERTEX
  8
0
  5
225
 10
1.0
 20
1.0
 30
0.0
 70
   192
  0
VERTEX
  8
0
  5
226
 10
0.0
 20
1.0
 30
5.0
 70
   192
  0
VERTEX
  8
0
  5
227
 10
2.0
 20
1.0
 30
4.0
 70
   192
  0
VERTEX
  8
0
  5
228
 10
0.0
 20
1.0
 30
4.0
 70
   192
  0
VERTEX
  8
0
 62
     7
  5
229
 10
0.0
 20
0.0
 30
0.0
 70
   128
 71
    -1
 72
     2
 73
    -3
  0
VERTEX
  8
0
 62
     7
  5
22A
 10
0.0
 20
0.0
 30
0.0
 70
   128
 71
     1
 72
    -4
 73
    -2
  0
VERTEX
  8
0
 62
     7
  5
22B
 10
0.0
 20
0.0
 30
0.0
 70
   128
 71
    -3
 72
     5
 73
    -1
  0
VERTEX
  8
0
 62
     7
  5
22C
 10
0.0
 20
0.0
 30
0.0
 70
   128
 71
     3
 72
     6
 73
    -5
  0
VERTEX
  8
0
 62
     7
  5
22D
 10
0.0
 20
0.0
 30
0.0
 70
   128
 71
    -4
 72
     7
 73
    -2
  0
VERTEX
  8
0
 62
     7
  5
22E
 10
0.0
 20
0.0
 30
0.0
 70
   128
 71
     4
 72
    -8
 73
    -7
  0
VERTEX
  8
0
 62
     7
  5
22F
 10
0.0
 20
0.0
 30
0.0
 70
   128
 71
     8
 72
     9
 73
    -7
  0
SEQEND
  8
0
 62
     7
  5
230
  0
POLYLINE
  8
0
 62
     7
  5
231
 66
     1
 10
0.0
 20
0.0
 30
0.0
 70
    64
  0
VERTEX
  8
0
  5
232
 10
0.0
 20
1.0
 30
4.0
 70
   192
  0
VERTEX
  8
0
  5
233
 10
0.0
 20
0.0
 30
2.0
 70
   192
  0
VERTEX
  8
0
  5
234
 10
0.0
 20
0.0
 30
6.0
 70
   192
  0
VERTEX
  8
0
  5
235
 10
0.0
 20
1.0
 30
5.0
 70
   192
  0
VERTEX
  8
0
  5
236
 10
0.0
 20
2.0
 30
5.0
 70
   192
  0
VERTEX
  8
0
  5
237
 10
0.0
 20
2.0
 30
6.0
 70
   192
  0
VERTEX
  8
0
  5
238
 10
0.0
 20
2.0
 30
2.0
 70
   192
  0
VERTEX
  8
0
  5
239
 10
0.0
 20
2.0
 30
4.0
 70
   192
  0
VERTEX
  8
0
 62
     7
  5
23A
 10
0.0
 20
0.0
 30
0.0
 70
   128
 71
    -1
 72
     2
 73
    -3
  0
VERTEX
  8
0
 62
     7
  5
23B
 10
0.0
 20
0.0
 30
0.0
 70
   128
 71
    -3
 72
     4
 73
    -1
  0
VERTEX
  8
0
 62
     7
  5
23C
 10
0.0
 20
0.0
 30
0.0
 70
   128
 71
    -3
 72
     5
 73
    -4
  0
VERTEX
  8
0
 62
     7
  5
23D
 10
0.0
 20
0.0
 30
0.0
 70
   128
 71
     3
 72
     6
 73
    -5
  0
VERTEX
  8
0
 62
     7
  5
23E
 10
0.0
 20
0.0
 30
0.0
 70
   128
 71
    -1
 72
     7
 73
    -2
  0
VERTEX
  8
0
 62
     7
  5
23F
 10
0.0
 20
0.0
 30
0.0
 70
   128
 71
     1
 72
     8
 73
    -7
  0
SEQEND
  8
0
 62
     7
  5
240
  0
POLYLINE
  8
0
 62
     7
  5
241
 66
     1
 10
0.0
 20
0.0
 30
0.0
 70
    64
  0
VERTEX
  8
0
  5
242
 10
4.0
 20
0.0
 30
4.0
 70
   192
  0
VERTEX
  8
0
  5
243
 10
5.0
 20
0.0
 30
0.0
 70
   192
  0
VERTEX
  8
0
  5
244
 10
5.0
 20
0.0
 30
6.0
 70
   192
  0
VERTEX
  8
0
  5
245
 10
2.0
 20
0.0
 30
4.0
 70
   192
  0
VERTEX
  8
0
  5
246
 10
0.0
 20
0.0
 30
6.0
 70
   192
  0
VERTEX
  8
0
  5
247
 10
4.0
 20
0.0
 30
1.0
 70
   192
  0
VERTEX
  8
0
  5
248
 10
1.0
 20
0.0
 30
0.0
 70
   192
  0
VERTEX
  8
0
  5
249
 10
2.0
 20
0.0
 30
3.0
 70
   192
  0
VERTEX
  8
0
  5
24A
 10
0.0
 20
0.0
 30
2.0
 70
   192
  0
VERTEX
  8
0
  5
24B
 10
3.0
 20
0.0
 30
3.0
 70
   192
  0
VERTEX
  8
0
  5
24C
 10
3.0
 20
0.0
 30
2.0
 70
   192
  0
VERTEX
  8
0
  5
24D
 10
1.0
 20
0.0
 30
1.0
 70
   192
  0
VERTEX
  8
0
 62
     7
  5
24E
 10
0.0
 20
0.0
 30
0.0
 70
   128
 71
    -1
 72
     2
 73
    -3
  0
VERTEX
  8
0
 62
     7
  5
24F
 10
0.0
 20
0.0
 30
0.0
 70
   128
 71
    -3
 72
     4
 73
    -1
  0
VERTEX
  8
0
 62
     7
  5
250
 10
0.0
 20
0.0
 30
0.0
 70
   128
 71
     3
 72
    -5
 73
    -4
  0
VERTEX
  8
0
 62
     7
  5
251
 10
0.0
 20
0.0
 30
0.0
 70
   128
 71
     1
 72
    -6
 73
    -2
  0
VERTEX
  8
0
 62
     7
  5
252
 10
0.0
 20
0.0
 30
0.0
 70
   128
 71
    -6
 72
     7
 73
    -2
  0
VERTEX
  8
0
 62
     7
  5
253
 10
0.0
 20
0.0
 30
0.0
 70
   128
 71
    -5
 72
     8
 73
    -4
  0
VERTEX
  8
0
 62
     7
  5
254
 10
0.0
 20
0.0
 30
0.0
 70
   128
 71
     5
 72
    -9
 73
    -8
  0
VERTEX
  8
0
 62
     7
  5
255
 10
0.0
 20
0.0
 30
0.0
 70
   128
 71
    -9
 72
    10
 73
    -8
  0
VERTEX
  8
0
 62
     7
  5
256
 10
0.0
 20
0.0
 30
0.0
 70
   128
 71
     9
 72
    11
 73
   -10
  0
VERTEX
  8
0
 62
     7
  5
257
 10
0.0
 20
0.0
 30
0.0
 70
   128
 71
     6
 72
    12
 73
    -7
  0
SEQEND
  8
0
 62
     7
  5
258
  0
POLYLINE
  8
0
 62
     7
  5
259
 66
     1
 10
0.0
 20
0.0
 30
0.0
 70
    64
  0
VERTEX
  8
0
  5
25A
 10
1.0
 20
1.0
 30
0.0
 70
   192
  0
VERTEX
  8
0
  5
25B
 10
5.0
 20
1.0
 30
0.0
 70
   192
  0
VERTEX
  8
0
  5
25C
 10
5.0
 20
0.0
 30
0.0
 70
   192
  0
VERTEX
  8
0
  5
25D
 10
1.0
 20
0.0
 30
0.0
 70
   192
  0
VERTEX
  8
0
 62
     7
  5
25E
 10
0.0
 20
0.0
 30
0.0
 70
   128
 71
     1
 72
     2
 73
    -3
  0
VERTEX
  8
0
 62
     7
  5
25F
 10
0.0
 20
0.0
 30
0.0
 70
   128
 71
     3
 72
     4
 73
    -1
  0
SEQEND
  8
0
 62
     7
  5
260
  0
POLYLINE
  8
0
 62
     7
  5
261
 66
     1
 10
0.0
 20
0.0
 30
0.0
 70
    64
  0
VERTEX
  8
0
  5
262
 10
4.0
 20
1.0
 30
1.0
 70
   192
  0
VERTEX
  8
0
  5
263
 10
4.0
 20
1.0
 30
4.0
 70
   192
  0
VERTEX
  8
0
  5
264
 10
4.0
 20
0.0
 30
1.0
 70
   192
  0
VERTEX
  8
0
  5
265
 10
4.0
 20
0.0
 30
4.0
 70
   192
  0
VERTEX
  8
0
 62
     7
  5
266
 10
0.0
 20
0.0
 30
0.0
 70
   128
 71
     1
 72
    -3
 73
     2
  0
VERTEX
  8
0
 62
     7
  5
267
 10
0.0
 20
0.0
 30
0.0
 70
   128
 71
    -2
 72
     3
 73
     4
  0
SEQEND
  8
0
 62
     7
  5
268
  0
POLYLINE
  8
0
 62
     7
  5
269
 66
     1
 10
0.0
 20
0.0
 30
0.0
 70
    64
  0
VERTEX
  8
0
  5
26A
 10
4.0
 20
1.0
 30
4.0
 70
   192
  0
VERTEX
  8
0
  5
26B
 10
2.0
 20
0.0
 30
4.0
 70
   192
  0
VERTEX
  8
0
  5
26C
 10
4.0
 20
0.0
 30
4.0
 70
   192
  0
VERTEX
  8
0
  5
26D
 10
2.0
 20
1.0
 30
4.0
 70
   192
  0
VERTEX
  8
0
 62
     7
  5
26E
 10
0.0
 20
0.0
 30
0.0
 70
   128
 71
     1
 72
     3
 73
    -2
  0
VERTEX
  8
0
 62
     7
  5
26F
 10
0.0
 20
0.0
 30
0.0
 70
   128
 71
    -1
 72
     2
 73
     4
  0
SEQEND
  8
0
 62
     7
  5
270
  0
POLYLINE
  8
0
 62
     7
  5
271
 66
     1
 10
0.0
 20
0.0
 30
0.0
 70
    64
  0
VERTEX
  8
0
  5
272
 10
4.0
 20
1.0
 30
1.0
 70
   192
  0
VERTEX
  8
0
  5
273
 10
4.0
 20
0.0
 30
1.0
 70
   192
  0
VERTEX
  8
0
  5
274
 10
1.0
 20
0.0
 30
1.0
 70
   192
  0
VERTEX
  8
0
  5
275
 10
1.0
 20
1.0
 30
1.0
 70
   192
  0
VERTEX
  8
0
 62
     7
  5
276
 10
0.0
 20
0.0
 30
0.0
 70
   128
 71
    -1
 72
     3
 73
     2
  0
VERTEX
  8
0
 62
     7
  5
277
 10
0.0
 20
0.0
 30
0.0
 70
   128
 71
    -3
 72
     1
 73
     4
  0
SEQEND
  8
0
 62
     7
  5
278
  0
POLYLINE
  8
0
 62
     7
  5
279
 66
     1
 10
0.0
 20
0.0
 30
0.0
 70
    64
  0
VERTEX
  8
0
  5
27A
 10
1.0
 20
1.0
 30
0.0
 70
   192
  0
VERTEX
  8
0
  5
27B
 10
1.0
 20
1.0
 30
1.0
 70
   192
  0
VERTEX
  8
0
  5
27C
 10
1.0
 20
0.0
 30
1.0
 70
   192
  0
VERTEX
  8
0
  5
27D
 10
1.0
 20
0.0
 30
0.0
 70
   192
  0
VERTEX
  8
0
 62
     7
  5
27E
 10
0.0
 20
0.0
 30
0.0
 70
   128
 71
    -1
 72
     3
 73
     2
  0
VERTEX
  8
0
 62
     7
  5
27F
 10
0.0
 20
0.0
 30
0.0
 70
   128
 71
    -3
 72
     1
 73
     4
  0
SEQEND
  8
0
 62
     7
  5
280
  0
POLYLINE
  8
0
 62
     7
  5
281
 66
     1
 10
0.0
 20
0.0
 30
0.0
 70
    64
  0
VERTEX
  8
0
  5
282
 10
3.0
 20
0.0
 30
3.0
 70
   192
  0
VERTEX
  8
0
  5
283
 10
3.0
 20
0.0
 30
2.0
 70
   192
  0
VERTEX
  8
0
  5
284
 10
3.0
 20
2.0
 30
3.0
 70
   192
  0
VERTEX
  8
0
  5
285
 10
3.0
 20
2.0
 30
2.0
 70
   192
  0
VERTEX
  8
0
 62
     7
  5
286
 10
0.0
 20
0.0
 30
0.0
 70
   128
 71
     1
 72
    -2
 73
     3
  0
VERTEX
  8
0
 62
     7
  5
287
 10
0.0
 20
0.0
 30
0.0
 70
   128
 71
     2
 72
     4
 73
    -3
  0
SEQEND
  8
0
 62
     7
  5
288
  0
POLYLINE
  8
0
 62
     7
  5
289
 66
     1
 10
0.0
 20
0.0
 30
0.0
 70
    64
  0
VERTEX
  8
0
  5
28A
 10
3.0
 20
2.0
 30
2.0
 70
   192
  0
VERTEX
  8
0
  5
28B
 10
0.0
 20
2.0
 30
4.0
 70
   192
  0
VERTEX
  8
0
  5
28C
 10
2.0
 20
2.0
 30
3.0
 70
   192
  0
VERTEX
  8
0
  5
28D
 10
0.0
 20
2.0
 30
2.0
 70
   192
  0
VERTEX
  8
0
  5
28E
 10
3.0
 20
2.0
 30
3.0
 70
   192
  0
VERTEX
  8
0
  5
28F
 10
2.0
 20
2.0
 30
4.0
 70
   192
  0
VERTEX
  8
0
  5
290
 10
5.0
 20
2.0
 30
6.0
 70
   192
  0
VERTEX
  8
0
  5
291
 10
5.0
 20
2.0
 30
5.0
 70
   192
  0
VERTEX
  8
0
  5
292
 10
0.0
 20
2.0
 30
5.0
 70
   192
  0
VERTEX
  8
0
  5
293
 10
0.0
 20
2.0
 30
6.0
 70
   192
  0
VERTEX
  8
0
 62
     7
  5
294
 10
0.0
 20
0.0
 30
0.0
 70
   128
 71
    -1
 72
    -2
 73
    -3
  0
VERTEX
  8
0
 62
     7
  5
295
 10
0.0
 20
0.0
 30
0.0
 70
   128
 71
     1
 72
     4
 73
    -2
  0
VERTEX
  8
0
 62
     7
  5
296
 10
0.0
 20
0.0
 30
0.0
 70
   128
 71
     3
 72
     5
 73
    -1
  0
VERTEX
  8
0
 62
     7
  5
297
 10
0.0
 20
0.0
 30
0.0
 70
   128
 71
     2
 72
     6
 73
    -3
  0
VERTEX
  8
0
 62
     7
  5
298
 10
0.0
 20
0.0
 30
0.0
 70
   128
 71
     7
 72
     8
 73
    -9
  0
VERTEX
  8
0
 62
     7
  5
299
 10
0.0
 20
0.0
 30
0.0
 70
   128
 71
     9
 72
    10
 73
    -7
  0
SEQEND
  8
0
 62
     7
  5
29A
  0
POLYLINE
  8
0
 62
     7
  5
29B
 66
     1
 10
0.0
 20
0.0
 30
0.0
 70
    64
  0
VERTEX
  8
0
  5
29C
 10
2.0
 20
2.0
 30
4.0
 70
   192
  0
VERTEX
  8
0
  5
29D
 10
0.0
 20
2.0
 30
4.0
 70
   192
  0
VERTEX
  8
0
  5
29E
 10
2.0
 20
1.0
 30
4.0
 70
   192
  0
VERTEX
  8
0
  5
29F
 10
0.0
 20
1.0
 30
4.0
 70
   192
  0
VERTEX
  8
0
 62
     7
  5
2A0
 10
0.0
 20
0.0
 30
0.0
 70
   128
 71
     1
 72
    -2
 73
     3
  0
VERTEX
  8
0
 62
     7
  5
2A1
 10
0.0
 20
0.0
 30
0.0
 70
   128
 71
     2
 72
     4
 73
    -3
  0
SEQEND
  8
0
 62
     7
  5
2A2
  0
POLYLINE
  8
0
 62
     7
  5
2A3
 66
     1
 10
0.0
 20
0.0
 30
0.0
 70
    64
  0
VERTEX
  8
0
  5
2A4
 10
3.0
 20
2.0
 30
2.0
 70
   192
  0
VERTEX
  8
0
  5
2A5
 10
0.0
 20
0.0
 30
2.0
 70
   192
  0
VERTEX
  8
0
  5
2A6
 10
0.0
 20
2.0
 30
2.0
 70
   192
  0
VERTEX
  8
0
  5
2A7
 10
3.0
 20
0.0
 30
2.0
 70
   192
  0
VERTEX
  8
0
 62
     7
  5
2A8
 10
0.0
 20
0.0
 30
0.0
 70
   128
 71
    -1
 72
     2
 73
     3
  0
VERTEX
  8
0
 62
     7
  5
2A9
 10
0.0
 20
0.0
 30
0.0
 70
   128
 71
     1
 72
     4
 73
    -2
  0
SEQEND
  8
0
 62
     7
  5
2AA
  0
POLYLINE
  8
0
 62
     7
  5
2AB
 66
     1
 10
0.0
 20
0.0
 30
0.0
 70
    64
  0
VERTEX
  8
0
  5
2AC
 10
2.0
 20
0.0
 30
4.0
 70
   192
  0
VERTEX
  8
0
  5
2AD
 10
2.0
 20
1.0
 30
4.0
 70
   192
  0
VERTEX
  8
0
  5
2AE
 10
2.0
 20
2.0
 30
3.0
 70
   192
  0
VERTEX
  8
0
  5
2AF
 10
2.0
 20
0.0
 30
3.0
 70
   192
  0
VERTEX
  8
0
  5
2B0
 10
2.0
 20
2.0
 30
4.0
 70
   192
  0
VERTEX
  8
0
 62
     7
  5
2B1
 10
0.0
 20
0.0
 30
0.0
 70
   128
 71
    -1
 72
    -3
 73
     2
  0
VERTEX
  8
0
 62
     7
  5
2B2
 10
0.0
 20
0.0
 30
0.0
 70
   128
 71
    -3
 72
     1
 73
     4
  0
VERTEX
  8
0
 62
     7
  5
2B3
 10
0.0
 20
0.0
 30
0.0
 70
   128
 71
    -2
 72
     3
 73
     5
  0
SEQEND
  8
0
 62
     7
  5
2B4
  0
POLYLINE
  8
0
 62
     7
  5
2B5
 66
     1
 10
0.0
 20
0.0
 30
0.0
 70
    64
  0
VERTEX
  8
0
  5
2B6
 10
3.0
 20
2.0
 30
3.0
 70
   192
  0
VERTEX
  8
0
  5
2B7
 10
3.0
 20
0.0
 30
3.0
 70
   192
  0
VERTEX
  8
0
  5
2B8
 10
2.0
 20
2.0
 30
3.0
 70
   192
  0
VERTEX
  8
0
  5
2B9
 10
2.0
 20
0.0
 30
3.0
 70
   192
  0
VERTEX
  8
0
 62
     7
  5
2BA
 10
0.0
 20
0.0
 30
0.0
 70
   128
 71
     1
 72
    -3
 73
     2
  0
VERTEX
  8
0
 62
     7
  5
2BB
 10
0.0
 20
0.0
 30
0.0
 70
   128
 71
    -2
 72
     3
 73
     4
  0
SEQEND
  8
0
 62
     7
  5
2BC
  0
POLYLINE
  8
0
 62
     7
  5
2BD
 66
     1
 10
0.0
 20
0.0
 30
0.0
 70
    64
  0
VERTEX
  8
0
  5
2BE
 10
0.0
 20
2.0
 30
6.0
 70
   192
  0
VERTEX
  8
0
  5
2BF
 10
5.0
 20
0.0
 30
6.0
 70
   192
  0
VERTEX
  8
0
  5
2C0
 10
5.0
 20
2.0
 30
6.0
 70
   192
  0
VERTEX
  8
0
  5
2C1
 10
0.0
 20
0.0
 30
6.0
 70
   192
  0
VERTEX
  8
0
 62
     7
  5
2C2
 10
0.0
 20
0.0
 30
0.0
 70
   128
 71
    -1
 72
     2
 73
     3
  0
VERTEX
  8
0
 62
     7
  5
2C3
 10
0.0
 20
0.0
 30
0.0
 70
   128
 71
     1
 72
     4
 73
    -2
  0
SEQEND
  8
0
 62
     7
  5
2C4
  0
POLYLINE
  8
0
 62
     7
  5
2C5
 66
     1
 10
0.0
 20
0.0
 30
0.0
 70
    64
  0
VERTEX
  8
0
  5
2C6
 10
5.0
 20
1.0
 30
5.0
 70
   192
  0
VERTEX
  8
0
  5
2C7
 10
0.0
 20
1.0
 30
5.0
 70
   192
  0
VERTEX
  8
0
  5
2C8
 10
0.0
 20
2.0
 30
5.0
 70
   192
  0
VERTEX
  8
0
  5
2C9
 10
5.0
 20
2.0
 30
5.0
 70
   192
  0
VERTEX
  8
0
 62
     7
  5
2CA
 10
0.0
 20
0.0
 30
0.0
 70
   128
 71
     1
 72
     2
 73
    -3
  0
VERTEX
  8
0
 62
     7
  5
2CB
 10
0.0
 20
0.0
 30
0.0
 70
   128
 71
     3
 72
     4
 73
    -1
  0
SEQEND
  8
0
 62
     7
  5
2CC
  0
ENDBLK
  8
0
  5
2CD
  0
ENDSEC
  0
SECTION
  2
ENTITIES
  0
INSERT
  8
AME_FRZ
  5
33
  2
AME_NIL
 10
0.0
 20
0.0
 30
0.0
  0
INSERT
  8
AME_FRZ
  5
36
  2
AME_SOL
 10
0.0
 20
0.0
 30
0.0
1001
AME_SOL
1000
1.0
1000
sq cm
1070
     3
1070
     0
1070
     3
1000
wire
1040
0.0
1000
NONE
1040
1.0
1000
cm
1000
gm
1000
MILD_STEEL
1070
    25
1000
CSG
1070
     3
1070
     2
1070
     3
1000
cu cm
1070
     4
1070
     0
1005
33
  0
INSERT
  8
AME_FRZ
  5
45
  2
*U2
 10
0.0
 20
0.0
 30
0.0
1001
AME_SOL
1002
{
1070
     0
1071
  1954288
1070
  1536
1010
5.0
1020
1.0
1030
5.0
1005
0
1005
0
1005
74
1040
0.0
1040
1.0
1000
MILD_STEEL
1000
0
1010
0.0
1020
0.0
1030
0.0
1010
0.0
1020
0.0
1030
1.0
1040
0.0
1002
}
  0
INSERT
  8
AME_FRZ
  5
56
  2
*U3
 10
0.0
 20
0.0
 30
1.0
1001
AME_SOL
1002
{
1070
     0
1071
  1955312
1070
  1536
1010
4.0
1020
1.0
1030
3.0
1005
0
1005
0
1005
74
1040
0.0
1040
1.0
1000
MILD_STEEL
1000
0
1010
0.0
1020
0.0
1030
1.0
1010
0.0
1020
0.0
1030
1.0
1040
0.0
1002
}
  0
INSERT
  8
AME_FRZ
  5
74
  2
*U4
 10
0.0
 20
0.0
 30
0.0
1001
AME_SOL
1002
{
1070
     0
1071
  1918952
1070
  1543
1070
     0
1005
45
1005
56
1005
0
1005
0
1005
A3
1040
0.0
1040
1.0
1000
MILD_STEEL
1000
0
1010
0.0
1020
0.0
1030
0.0
1010
0.0
1020
0.0
1030
1.0
1040
0.0
1002
}
  0
INSERT
  8
AME_FRZ
  5
85
  2
*U5
 10
0.0
 20
0.0
 30
0.0
1001
AME_SOL
1002
{
1070
     0
1071
  1949328
1070
  1536
1010
1.0
1020
1.0
1030
1.0
1005
0
1005
0
1005
A3
1040
0.0
1040
1.0
1000
MILD_STEEL
1000
0
1010
0.0
1020
0.0
1030
0.0
1010
0.0
1020
0.0
1030
1.0
1040
0.0
1002
}
  0
INSERT
  8
AME_FRZ
  5
A3
  2
*U6
 10
0.0
 20
0.0
 30
0.0
1001
AME_SOL
1002
{
1070
     0
1071
  1941240
1070
  1543
1070
     0
1005
74
1005
85
1005
0
1005
0
1005
DD
1040
0.0
1040
1.0
1000
MILD_STEEL
1000
0
1010
0.0
1020
0.0
1030
0.0
1010
0.0
1020
0.0
1030
1.0
1040
0.0
1002
}
  0
INSERT
  8
AME_FRZ
  5
B4
  2
*U7
 10
0.0
 20
0.0
 30
2.0
1001
AME_SOL
1002
{
1070
     0
1071
  1953336
1070
  1536
1010
3.0
1020
2.0
1030
2.0
1005
0
1005
0
1005
DD
1040
0.0
1040
1.0
1000
MILD_STEEL
1000
0
1010
0.0
1020
0.0
1030
2.0
1010
0.0
1020
0.0
1030
1.0
1040
0.0
1002
}
  0
INSERT
  8
AME_FRZ
  5
DD
  2
*U8
 10
0.0
 20
0.0
 30
0.0
1001
AME_SOL
1002
{
1070
     0
1071
  1977696
1070
  1543
1070
     2
1005
A3
1005
B4
1005
0
1005
0
1005
11D
1040
0.0
1040
1.0
1000
MILD_STEEL
1000
0
1010
0.0
1020
0.0
1030
0.0
1010
0.0
1020
0.0
1030
1.0
1040
0.0
1002
}
  0
INSERT
  8
AME_FRZ
  5
EE
  2
*U9
 10
2.0
 20
0.0
 30
3.0
1001
AME_SOL
1002
{
1070
     0
1071
  1959952
1070
  1536
1010
1.0
1020
2.0
1030
1.0
1005
0
1005
0
1005
11D
1040
0.0
1040
1.0
1000
MILD_STEEL
1000
0
1010
2.0
1020
0.0
1030
3.0
1010
0.0
1020
0.0
1030
1.0
1040
0.0
1002
}
  0
INSERT
  8
AME_FRZ
  5
11D
  2
*U10
 10
0.0
 20
0.0
 30
0.0
1001
AME_SOL
1002
{
1070
     0
1071
  2009024
1070
  9735
1070
     0
1005
DD
1005
EE
1005
0
1005
0
1005
20F
1040
76.0
1040
1.0
1000
MILD_STEEL
1000
0
1010
0.0
1020
0.0
1030
0.0
1010
0.0
1020
0.0
1030
1.0
1040
0.0
1002
}
  0
INSERT
  8
AME_FRZ
  5
1DA
  2
*U13
 10
0.0
 20
0.0
 30
5.0
1001
AME_SOL
1002
{
1070
     0
1071
  1982200
1070
  1536
1010
5.0
1020
2.0
1030
1.0
1005
0
1005
0
1005
20F
1040
0.0
1040
1.0
1000
MILD_STEEL
1000
0
1010
0.0
1020
0.0
1030
5.0
1010
0.0
1020
0.0
1030
1.0
1040
0.0
1002
}
  0
INSERT
  8
0
  5
20F
  2
*U15
 10
0.0
 20
0.0
 30
0.0
1001
AME_SOL
1002
{
1070
     0
1071
  2015248
1070
  9223
1070
     2
1005
11D
1005
1DA
1005
2CE
1005
210
1005
0
1040
100.0
1040
1.0
1000
MILD_STEEL
1000
0
1002
}
  0
INSERT
  8
AME_FRZ
  5
210
  2
AME_NIL
 10
1.0
 20
1.0
 30
1.0
1001
AME_SOL
1004
E903A9FB0100F0FFFFFF000052F7110001000000958664BA958664BA958664BA2507A040F40A00407A05C04001000000FBF204006F452FBA6F452FBA86FA9F407A05A040F40A00407A05A0400100844E78B41F00010000000100CE000000844E0000000000000000803F000000000000803F000000000000
1004
000000000000000000000000A04005000000000000000000000000000000000000000000844E00000000803F000000000000000000000080000080BF000000800000A0400000803F0000A04005000000000000000000000000000000000001000000FBF204006F452FBA6F452FBA86FABF407A05A040F40A
1004
00407A05C0400100844E98621F00010000000100CB000000844E0000000080BF000000800000008000000080000080BF000000800000A040000000400000C04005000000000000000000000000000000000000000000844E0000000080BF000000800000008000000080000080BF000000800000A0400000
1004
00400000C04005000000000000000000000000000000000001000000FBF2040000ECFF3F000020BA00F63F40000A4040000A0040000A40400100844EC89C1F00FFFF0000010096010000844E0000000000000000803F000000000000803F0000000000000000000000400000000000004040050000000000
1004
00000000000000000000000000000000844E0000000000000000803F000000000000803F0000000000000000000000400000000000004040050000000000000000000000000000000000FFFFFFFFFBF2050000ECFF3F000020BA00F63F40000A0040000A0040000580400100844E18A91F00FFFF00000100
1004
94010000844E000000000000000000000000803F000000000000803F0000000000000040000000000000404005000000000000000000000000000000000000000000844E000000000000000000000000803F000000000000803F000000000000004000000000000040400500000000000000000000000000
1004
00000000FFFFFFFFFBF20400000020BA000020BA00ECFF3F000A4040000A0040000A00400100844E98A51F000100000001005E020000844E0000000000000000803F000000000000803F000000000000000000000000000000000000004005000000000000000000000000000000000000000000844E0000
1004
000000000000803F000000000000803F000000000000000000000000000000000000004005000000000000000000000000000000000001000000FBF20400000020BA000020BA00F67F40000A4040000A0040000580400100844EA8B31F000100000001005B020000844E0000000080BF0000008000000080
1004
00000080000080BF0000008000004040000000400000804005000000000000000000000000000000000000000000844E0000000080BF000000800000008000000080000080BF00000080000080400000803F0000804005000000000000000000000000000000000001000000FBF20A006F452FBA17EAFF3F
1004
86FA9F407A05A040F40A00407A05C0400100844EF8B21F00010000000200CA000000844E00000000008000000080000080BF000080BF00000080000000800000A040000000400000C040050000000000000000000000000000000000000000005A020000844E00000000008000000080000080BF000080BF
1004
000000800000008000004040000000400000804005000000000000000000000000000000000000000000844E00000000008000000080000080BF000080BF000000800000008000004040000000400000804005000000000000000000000000000000000001000000FBF2040000F63F40000020BA00ECFF3F
1004
000A4040000A0040000580400100844E48B11F0001000000010059020000844E000000000080000080BF000000800000008000000080000080BF00004040000000400000804005000000000000000000000000000000000000000000844E000000000080000080BF000000800000008000000080000080BF
1004
00004040000000400000804005000000000000000000000000000000000001000000FBF2040000D87F3F000020BA000020BA0014803F0014803F0014803F0100844EF8521F00FFFF0000010021030000844E000000000080000080BF000000800000008000000080000080BF0000803F0000803F0000803F
1004
05000000000000000000000000000000000000000000844E000000000080000080BF000000800000008000000080000080BF0000803F0000803F0000803F050000000000000000000000000000000000FFFFFFFFFBF204002B2B23BA2B2B23BA36D77F3F1A0580406514803F6514803F0100844E70FE1E00
1004
FFFF00000100EE030000844E0000000000000000803F000000000000803F000000000000000000000000000000000000803F05000000000000000000000000000000000000000000844E0000000000000000803F000000000000803F000000000000000000000000000000000000803F0500000000000000
1004
00000000000000000000FFFFFFFFFBF2040000ECFF3F000020BA00F67F40000A4040000A0040000580400100844EE8F91E00FFFF0000020093010000844E0000000080BF000000800000008000000080000080BF000000800000404000000040000080400500000000000000000000000000000000000000
1004
0000EB030000844E0000000080BF000000800000008000000080000080BF00000080000080400000803F0000804005000000000000000000000000000000000000000000844E0000000080BF000000800000008000000080000080BF00000080000080400000803F00008040050000000000000000000000
1004
000000000000FFFFFFFFFBF20400CDF57F402B2B23BA36D77F3F1A0580406514803F1A0580400100844EB0F81E00FFFF00000100E9030000844E000000000080000080BF000000800000008000000080000080BF000080400000803F0000804005000000000000000000000000000000000000000000844E
1004
000000000080000080BF000000800000008000000080000080BF000080400000803F00008040050000000000000000000000000000000000FFFFFFFFFBF20400958664BA958664BA958664BA2507A040911C803F9586643A0100844E48F31E0001000000010052040000844E0000000000000000803F0000
1004
00000000803F000000000000000000000000000000000000000005000000000000000000000000000000000000000000844E0000000000000000803F000000000000803F000000000000000000000000000000000000000005000000000000000000000000000000000001000000FBF20C006F452FBA6F45
1004
2FBA86FA9F407A05A0406F452F3A7A05C0400100844EF8B81F00010000000300CD000000844E00000000803F000000000000000000000000000000000000803F00000000000000000000A040050000000000000000000000000000000000000000005D020000844E00000000803F00000000000000000000
1004
0000000000000000803F0000000000000000000000400500000000000000000000000000000000000000000051040000844E00000000803F000000000000000000000000000000000000803F00000000000000000000000005000000000000000000000000000000000000000000844E00000000803F0000
1004
00000000000000000000000000000000803F00000000000000000000000005000000000000000000000000000000000001000000FBF208006F452FBA6F452FBA86FA9F406F452F3AF40A00407A05C0400100844EE8DC1E00010000000300CC000000844E000000000000000000000000803F000000000000
1004
803F0000000000000000000000000000A040050000000000000000000000000000000000000000005C020000844E000000000000000000000000803F000000000000803F000000000000000000000000000000400500000000000000000000000000000000000000000050040000844E0000000000000000
1004
00000000803F000000000000803F0000000000000000000000000000000005000000000000000000000000000000000000000000844E000000000000000000000000803F000000000000803F0000000000000000000000000000000005000000000000000000000000000000000001000000FBF209009586
1004
64BADEC67F3F958664BA2507A040911C803F2507A0400100844EE8DA1E000100000001004E040000844E00000000008000000080000080BF000080BF00000080000000800000A0400000803F0000A04005000000000000000000000000000000000000000000844E00000000008000000080000080BF0000
1004
80BF00000080000000800000A0400000803F0000A04005000000000000000000000000000000000001000000FBF2060086FA9F406F452FBA86FA9F407A05A040F40A00407A05C0400100844E28D41E00010000000200C9000000844E000000000080000080BF000000800000008000000080000080BF0000
1004
A040000000400000C040050000000000000000000000000000000000000000004D040000844E000000000080000080BF000000800000008000000080000080BF0000A0400000803F0000A04005000000000000000000000000000000000000000000844E000000000080000080BF00000080000000800000
1004
0080000080BF0000A0400000803F0000A04005000000000000000000000000000000000001000000A4EE6F452FBA17EAFF3F86FA9F407A05A040F40A00407A05A040FFFF7FBF0000804002009675B0541F000000FFFF010078B41F00F8B21F000000020078B41F00F8B21F00010000000100000096750000
1004
000000000000803F000000000000000000000000000080BF00008040000000400000A0400200FFFF7FBF00008040A4EEDCF89F406F452FBA86FA9F407A05A040F40A00407A05A040000000800000803F0200967570651F000000FFFF010078B41F0028D41E000000020078B41F0028D41E00010000000100
1004
0000967500000000803F00000000000000000000000000000000000080BF0000A0400000803F0000A0400200000000800000803FA4EE6F452FBA6F452FBA86FA9F409586643AF40A00407A05A0400000C0BF000000BF02009675F8691F000000FFFF010078B41F00E8DC1E000000020078B41F00E8DC1E00
1004
010000000100000096750000000080BF00000000000000000000000000000000000080BF000000000000003F0000A04002000000C0BF000000BFA4EE6F452FBADEC67F3F86FA9F407A05A040911C803F7A05A040000000000000A04002009675D06A1F0000000100FFFF78B41F00E8DA1E0000000200E8DA
1004
1E0078B41F00010000000100000096750000000000000000803F000000000000000000000000000080BF0000A0400000803F0000A0400200000000000000A040A4EE6F452FBA17EAFF3F86FABF407A05A040F40A00407A05C040000080C0FFFF7F3F0200967528651F000000FFFF010098621F00F8B21F00
1004
0000020098621F00F8B21F00010000000100000096750000000000000000803F0000000000000000000000000000803F00008040000000400000C0400200000080C0FFFF7F3FA4EE86FA9F406F452FBA86FABF407A05A040F40A00407A05C040FFFFFFBE0000C03F02009675D8531F000000FFFF01009862
1004
1F0028D41E000000020098621F0028D41E000100000001000000967500000000803F000000000000000000000080000000000000803F0000A0400000C03F0000C0400200FFFFFFBE0000C03FA4EE6F452FBA6F452FBA86FABF406F452F3AF40A00407A05C040000080BF0000803F0200967570501F000000
1004
FFFF010098621F00E8DC1E000000020098621F00E8DC1E00010000000100000096750000000080BF000000000000000000000000000000000000803F000000000000803F0000C0400200000080BF0000803FA4EE6F452FBA6F452FBA86FABF407A05A0406F452F3A7A05C040000020C00000204002009675
1004
00361F000000FFFF010098621F00F8B81F000000020098621F00F8B81F0001000000010000009675000000000000000080BF0000000000000000000000000000803F00002040000000000000C0400200000020C000002040A4EE00ECFF3F00ECFF3F00F63F40000A4040000A0040000A4040020000BFFFFF
1004
FF3E02009675C8E11E0000000100FFFFC89C1F00F8B21F0000000200F8B21F00C89C1F0001000000FFFFFFFF96750000000000000000803F000000000000000000000000000080BF0000204000000040000040400200020000BFFFFFFF3EA4EE00ECFF3F000020BA00F63F40000A0040000A0040000A4040
1004
000000C0000000800200967528E41E0000000100FFFFC89C1F0018A91F000000020018A91F00C89C1F00FFFFFFFFFFFFFFFF96750000000080BF00000000000000000000000000000000000080BF0000004000000000000040400200000000C000000080A4EE00F63F40000020BA00F63F40000A4040000A
1004
0040000A4040000080BF0000803F0200967518E51E0000000100FFFFC89C1F0048B11F000000020048B11F00C89C1F0001000000FFFFFFFF967500000000803F00000000000000000000000000000000000080BF000040400000803F000040400200000080BF0000803FA4EE00ECFF3F000020BA00F63F40
1004
000A40409586643A000A40400000803F010000400200967508E61E0000000100FFFFC89C1F00F8B81F0000000200F8B81F00C89C1F0001000000FFFFFFFF9675000000000000000080BF000000000000000000000000000080BF0000803F000000000000404002000000803F01000040A4EE00ECFF3F00EC
1004
FF3F00F63F40000A0040000A004000058040020000BFFAFFFF3E02009675F8E61E0000000100FFFF18A91F00F8B21F0000000200F8B21F0018A91F0001000000FFFFFFFF96750000000000000000803F00000000000080BF00000000000000000000004000000040010060400200020000BFFAFFFF3EA4EE
1004
00ECFF3F000020BACDF57F40000A0040000A004000058040000000BF0000003F02009675D0DD1E0000000100FFFF18A91F00E8F91E0000000200E8F91E0018A91F00FFFFFFFFFFFFFFFF9675000000000000000000000000803F000080BF0000000000000000000000400000003F000080400200000000BF
1004
0000003FA4EE00ECFF3F000020BA00F67F40000A0040000A0040000580400000C0BF000000BF02009675C0DE1E0000000100FFFF18A91F00A8B31F0000000200A8B31F0018A91F0001000000FFFFFFFF9675000000000000000000000000803F000080BF0000000000000000000000400000003F00008040
1004
02000000C0BF000000BFA4EE00ECFF3F000020BA00F63F40000A00409586643A00058040000020C00000C0BF02009675B0DF1E0000000100FFFF18A91F00F8B81F0000000200F8B81F0018A91F0001000000FFFFFFFF9675000000000000000080BF00000000000080BF0000000000000000000000400000
1004
00000000C03F0200000020C00000C0BFA4EE000020BA00ECFF3F00ECFF3F000A4040000A0040000A00400000C0BF0000C03F02009675A0E01E000000FFFF010098A51F00F8B21F000000020098A51F00F8B21F00010000000100000096750000000000000000803F000000000000000000000000000080BF
1004
0000C03F000000400000004002000000C0BF0000C03FA4EE00F63F40000020BA00ECFF3F000A4040000A0040000A0040000080BF0000803F0200967530E81E000000FFFF010098A51F0048B11F000000020098A51F0048B11F000100000001000000967500000000803F0000000000000000000000000000
1004
0000000080BF000040400000803F000000400200000080BF0000803FA4EE000020BA000020BA00ECFF3F9586643A000A0040000A0040000000C0000000800200967500E91E000000FFFF010098A51F00E8DC1E000000020098A51F00E8DC1E00010000000100000096750000000080BF0000000000000000
1004
0000000000000000000080BF0000000000000000000000400200000000C000000080A4EE000020BA000020BA00ECFF3F000A40409586643A000A0040000000000000404002009675F0E91E000000FFFF010098A51F00F8B81F000000020098A51F00F8B81F00010000000100000096750000000000000000
1004
80BF000000000000000000000000000080BF00000000000000000000004002000000000000004040A4EE000020BA00ECFF3F00F67F40000A4040000A004000058040010060C00200C0BF02009675E0EA1E000000FFFF0100A8B31F00F8B21F0000000200A8B31F00F8B21F00010000000100000096750000
1004
000000000000803F0000000000000000000000000000803F0100604000000040000080400200010060C00200C0BFA4EE000020BA000020BA00F67F409586643A000A0040000580400000003F0000C03F02009675D0EB1E000000FFFF0100A8B31F00E8DC1E0000000200A8B31F00E8DC1E00010000000100
1004
000096750000000080BF000000000000000000000000000000000000803F000000000000003F0000804002000000003F0000C03FA4EE000020BADEC67F3F00F67F40000A4040911C803F00058040000090C0FFFF1FC002009675C0EC1E0000000100FFFFA8B31F00E8DA1E0000000200E8DA1E00A8B31F00
1004
010000000100000096750000000000000000803F0000000000000000000000000000803F000090400000803F000080400200000090C0FFFF1FC0A4EE86FA9F4017EAFF3F86FA9F407A05A040F40A00407A05C0400200003F0300C03F0200967508A71E000000FFFF0100F8B21F0028D41E0000000200F8B2
1004
1F0028D41E000100000001000000967500000000803F0000000000000000000000000000803F000000000000A040000000400000904002000200003F0300C03FA4EE00F63F4000ECFF3F00ECFF3F000A4040000A004000058040000000C0FFFF7FBF0200967528A61E000000FFFF0100F8B21F0048B11F00
1004
00000200F8B21F0048B11F000100000001000000967500000000803F0000000000000000000000000000803F000000000000404000000040000080400200000000C0FFFF7FBFA4EE6F452FBA17EAFF3F00ECFF3F6F452F3AF40A00407A05C040010080C0000040C00200967540AA1E000000FFFF0100F8B2
1004
1F00E8DC1E0000000200F8B21F00E8DC1E00010000000100000096750000000080BF0000000000000000000000000000803F000000000000000000000040000000400200010080C0000040C0A4EE6F452FBA17EAFF3F00ECFF3F6F452F3AF40A00407A05C040000000C0000000800200967518AB1E000000
1004
FFFF0100F8B21F00E8DC1E0000000200F8B21F00E8DC1E00010000000100000096750000000080BF0000000000000000000000000000803F000000000000000000000040000000400200000000C000000080A4EE00F63F40000020BA00ECFF3F000A40409586643A00058040000000000100803F02009675
1004
70801E000000FFFF010048B11F00F8B81F000000020048B11F00F8B81F0001000000010000009675000000000000000080BF000000000000803F00000000000000000000404000000000000000400200000000000100803FA4EE00D87F3F000020BA36D77F3F0014803F0014803F0014803F000000BF0000
1004
003F0200967540811E000000FFFF0100F8521F0070FE1E0000000200F8521F0070FE1E00FFFFFFFFFFFFFFFF967500000000000000000000000080BF0000803F00000000000000000000803F0000003F0000803F0200000000BF0000003FA4EE00D87F3F000020BA000020BA0014803F0014803F9586643A
1004
000000BF0000003F0200967530821E0000000100FFFFF8521F0048F31E000000020048F31E00F8521F0001000000FFFFFFFF967500000000000000000000000080BF0000803F00000000000000000000803F0000003F000000000200000000BF0000003FA4EE00D87F3FDEC67F3F000020BA0014803F0014
1004
803F0014803F01000040000040400200967520831E0000000100FFFFF8521F00E8DA1E0000000200E8DA1E00F8521F0001000000FFFFFFFF96750000000000000000803F000000000000803F00000000000000000000803F0000803F0000404002000100004000004040A4EE00D87F3F000020BA000020BA
1004
0014803F9586643A0014803F000000BF0000003F0200967560841E0000000100FFFFF8521F00F8B81F0000000200F8B81F00F8521F0001000000FFFFFFFF9675000000000000000080BF000000000000803F00000000000000000000803F000000000000003F0200000000BF0000003FA4EECDF57F402B2B
1004
23BA36D77F3F1A0580406514803F6514803F000000BF0000003F0200967580CA1E0000000100FFFF70FE1E00B0F81E0000000200B0F81E0070FE1E00FFFFFFFFFFFFFFFF967500000000803F00000000000000000000000000000000000080BF000080400000003FFFFF7F3F0200000000BF0000003FA4EE
1004
2B2B23BADEC67F3F36D77F3F1A0580406514803F6514803F0000C0BF0000C03F0200967570CB1E0000000100FFFF70FE1E00E8DA1E0000000200E8DA1E0070FE1E0001000000FFFFFFFF96750000000000000000803F000000000000000000000000000080BF000020400000803F0000803F02000000C0BF
1004
0000C03FA4EE2B2B23BA2B2B23BA36D77F3F1A0580409586643A6514803F0000803F000080400200967560CC1E0000000100FFFF70FE1E00F8B81F0000000200F8B81F0070FE1E0001000000FFFFFFFF9675000000000000000080BF000000000000000000000000000080BF00000000000000000000803F
1004
02000000803F00008040A4EECDF57F402B2B23BACDF57F401A0580406514803F1A058040000000000000803F0200967550CD1E0000000100FFFFE8F91E00B0F81E0000000200B0F81E00E8F91E00FFFFFFFFFFFFFFFF967500000000803F000000000000000000000000000000000000803F000080400000
1004
803F000080400200000000000000803FA4EE2B2B23BADEC67F3FCDF57F401A058040911C803F1A058040FFFF1FC0FAFFFFBE0200967540CE1E0000000100FFFFE8F91E00E8DA1E0000000200E8DA1E00E8F91E0001000000FFFFFFFF96750000000000000000803F0000000000000000000000000000803F
1004
000090400000803F000080400200FFFF1FC0FAFFFFBEA4EE2B2B23BA2B2B23BACDF57F401A0580409586643A1A058040000000C0000000800200967530CF1E0000000100FFFFE8F91E00F8B81F0000000200F8B81F00E8F91E0001000000FFFFFFFF9675000000000000000080BF00000000000000000000
1004
00000000803F0000004000000000000080400200000000C000000080A4EECDF57F40DEC67F3F36D77F3F1A0580406514803F1A058040FAFFFF3E000060400200967520D01E0000000100FFFFB0F81E00E8DA1E0000000200E8DA1E00B0F81E0001000000FFFFFFFF96750000000000000000803F00000000
1004
0000803F0000000000000000000080400000803F000090400200FAFFFF3E00006040A4EECDF57F402B2B23BA36D77F3F1A0580409586643A1A058040000080BF000000400200967510D11E0000000100FFFFB0F81E00F8B81F0000000200F8B81F00B0F81E0001000000FFFFFFFF96750000000000000000
1004
80BF000000000000803F00000000000000000000804000000000000000400200000080BF00000040A4EEDCF89F40958664BA958664BA2507A040911C803F9586643A000000BF0000003F0200967500D21E000000FFFF010048F31E0028D41E000000020048F31E0028D41E00010000000100000096750000
1004
0000803F00000000000000000000000000000000000080BF0000A0400000003F000000000200000000BF0000003FA4EE958664BADEC67F3F958664BA2507A040911C803F9586643A000020C00000C03F02009675F0D21E000000FFFF010048F31E00E8DA1E000000020048F31E00E8DA1E00010000000100
1004
000096750000000000000000803F000000000000000000000000000080BF000020400000803F000000000200000020C00000C03FA4EE958664BA958664BA958664BA2507A0409586643A9586643A0000803F0000A04002009675C8611E000000FFFF010048F31E00F8B81F000000020048F31E00F8B81F00
1004
01000000010000009675000000000000000080BF000000000000000000000000000080BF00000000000000000000000002000000803F0000A040A4EEDCF89F40958664BA958664BA2507A0409586643A7A05C040010060C00000204002009675B8621E000000FFFF0100F8B81F0028D41E0000000200F8B8
1004
1F0028D41E000100000001000000967500000000803F000000000000000000000000000080BF000000000000A04000000000000020400200010060C000002040A4EE958664BA958664BA958664BA9586643A9586643A7A05C040000000400000C04002009675A8631E000000FFFF0100F8B81F00E8DC1E00
1004
00000200F8B81F00E8DC1E00010000000100000096750000000080BF000000000000000000000000000080BF000000000000000000000000000000000200000000400000C040A4EE958664BADEC67F3F958664BA9586643A911C803F2507A0400000C03F000020400200967598641E000000FFFF0100E8DC
1004
1E00E8DA1E0000000200E8DC1E00E8DA1E00010000000100000096750000000000000000803F00000000000080BF0000000000000000000000000000803F0000204002000000C03F00002040A4EEDCF89F40DEC67F3F958664BA2507A040911C803F2507A0400000A0C0000000000200967588651E000000
1004
FFFF0100E8DA1E0028D41E0000000200E8DA1E0028D41E000100000001000000967500000000803F0000000000000000000000000000803F000000000000A0400000803F0000A04002000000A0C00000000019FC
1005
211
  0
INSERT
  8
AME_FRZ
  5
211
  2
AME_NIL
 10
1.0
 20
1.0
 30
1.0
1001
AME_SOL
1004

1005
0
  0
INSERT
  8
AME_FRZ
  5
2CE
  2
*U14
 10
0.0
 20
0.0
 30
0.0
  0
INSERT
  8
AME_FRZ
  5
2CF
  2
AME_MAT
 10
0.0
 20
0.0
 30
0.0
1001
AME_SOL
1000
MILD_STEEL
1040
7860.0
1040
220.0
1040
0.275
1040
207.0
1040
345.0
1040
56.0
1040
12.0
1040
0.46
  0
ENDSEC
  0
EOF
