600 0 2 0           
24 FBMach with ACIS - 6.0.3 13 ACIS 6.0.3 NT 24 Wed May 23 21:06:13 2001 
1 9.9999999999999995e-007 1e-010 
body $2 $3 $-1 $4 #
bdycol-kcp $-1 1 4 $5 $6 $7 $8 #
model_id-kcp-attrib $-1 $-1 $-1 $0 1 990666372 60 -465829887 1 #
lump $-1 $-1 $9 $0 #
transform $-1 1.0000000000000002 0 0 0 1.0000000000000002 0 0 0 1 -3.5527136788005009e-015 3.5527136788005009e-015 0 1 rotate no_reflect no_shear #
body $10 $11 $-1 $12 #
body $13 $14 $-1 $15 #
body $16 $17 $-1 $18 #
body $19 $20 $-1 $21 #
shell $-1 $-1 $-1 $22 $-1 $3 #
model_id-kcp-attrib $-1 $-1 $-1 $5 1 990666372 60 -465829886 1 #
lump $-1 $-1 $23 $5 #
transform $-1 1 0 0 0 1 0 0 0 1 1.6965771225230242e-005 -1.7005749224807687e-005 0 1 no_rotate no_reflect no_shear #
rgb_color-st-attrib $-1 $24 $-1 $6 0.5 0.5 1 #
lump $-1 $-1 $25 $6 #
transform $-1 1 0 0 0 1 0 0 0 1 1.6965771225230242e-005 -1.7005749224807687e-005 0 1 no_rotate no_reflect no_shear #
rgb_color-st-attrib $-1 $26 $-1 $7 0.5 0.5 1 #
lump $-1 $-1 $27 $7 #
transform $-1 1 0 0 0 1 0 0 0 1 1.6965771225230242e-005 -1.7005749224807687e-005 0 1 no_rotate no_reflect no_shear #
rgb_color-st-attrib $-1 $28 $-1 $8 0.5 0.5 1 #
lump $-1 $-1 $29 $8 #
transform $-1 1 0 0 0 1 0 0 0 1 1.6965771225230242e-005 -1.7005749224807687e-005 0 1 no_rotate no_reflect no_shear #
face $30 $31 $32 $9 $-1 $33 forward single #
shell $-1 $-1 $-1 $34 $-1 $11 #
model_id-kcp-attrib $-1 $-1 $13 $6 1 990666372 160 -459276285 1 #
shell $-1 $-1 $-1 $35 $-1 $14 #
model_id-kcp-attrib $-1 $-1 $16 $7 1 990666372 180 -457965564 1 #
shell $-1 $-1 $-1 $36 $-1 $17 #
model_id-kcp-attrib $-1 $-1 $19 $8 1 990666372 190 -457310203 1 #
shell $-1 $-1 $-1 $37 $-1 $20 #
model_id-kcp-attrib $-1 $38 $-1 $22 1 990666372 60 -465829887 2 #
face $39 $40 $41 $9 $-1 $42 forward single #
loop $43 $-1 $44 $22 #
plane-surface $45 27.5 5.0002050000000198 5 0 0 1 1 0 0 forward_v I I I I #
face $46 $47 $48 $23 $-1 $49 forward single #
face $-1 $50 $51 $25 $-1 $52 reversed single #
face $-1 $53 $54 $27 $-1 $55 reversed single #
face $-1 $56 $57 $29 $-1 $58 reversed single #
face_name-twe-attrib $-1 $-1 $30 $22 1 #
model_id-kcp-attrib $-1 $59 $-1 $31 1 990666372 60 -465829887 3 #
face $60 $61 $62 $9 $-1 $63 forward single #
loop $64 $-1 $65 $31 #
plane-surface $66 25 5.0002050000000198 7.5 1 0 0 0 0 -1 forward_v I I I I #
loop_type-twe-attrib $-1 $-1 $-1 $32 0 #
coedge $-1 $67 $68 $69 $70 reversed $32 $-1 #
surf-twe-attrib $-1 $71 $-1 $33 28 #
model_id-kcp-attrib $-1 $-1 $-1 $34 1 990666372 60 -465829886 2 #
face $72 $73 $74 $23 $-1 $75 reversed single #
loop $-1 $-1 $76 $34 #
plane-surface $-1 0 0 10 0 0 1 1 0 0 forward_v I I I I #
face $-1 $77 $78 $25 $-1 $79 reversed single #
loop $-1 $-1 $80 $35 #
plane-surface $-1 22.499816774120823 -22.499816734142819 0 0.70710678118654757 -0.70710678118654757 0 0.70710678118654757 0.70710678118654757 0 forward_v I I I I #
face $-1 $81 $82 $27 $-1 $83 reversed single #
loop $-1 $-1 $84 $36 #
plane-surface $-1 -7.5001832658572241 -29.999982994250772 -2.4999999999999951 0 -1 0 1 0 0 forward_v I I I I #
face $-1 $85 $86 $29 $-1 $87 reversed single #
loop $-1 $-1 $88 $37 #
plane-surface $-1 29.999983034228777 7.5001832658572249 -2.4999999999999951 1 0 0 0 1 0 forward_v I I I I #
face_name-twe-attrib $-1 $-1 $39 $31 2 #
model_id-kcp-attrib $-1 $89 $-1 $40 1 990666372 60 -465829887 4 #
face $90 $91 $92 $9 $-1 $93 reversed single #
loop $94 $-1 $95 $40 #
plane-surface $96 0 0 10 0 0 1 1 0 0 forward_v I I I I #
loop_type-twe-attrib $-1 $-1 $-1 $41 0 #
coedge $-1 $97 $98 $99 $100 reversed $41 $-1 #
surf-twe-attrib $-1 $-1 $-1 $42 6 #
coedge $-1 $101 $44 $102 $103 reversed $32 $-1 #
coedge $-1 $44 $101 $98 $104 reversed $32 $-1 #
coedge $-1 $105 $106 $44 $70 forward $107 $-1 #
edge $108 $109 6.1871632999387058 $110 13.258176325323507 $69 $111 forward 7 unknown #
surf-twe-attrib $-1 $-1 $45 $33 4 #
model_id-kcp-attrib $-1 $-1 $-1 $47 1 990666372 60 -465829886 4 #
face $-1 $112 $113 $23 $-1 $114 reversed single #
loop $-1 $-1 $115 $47 #
plane-surface $-1 0 0 -10 0 0 1 1 0 0 forward_v I I I I #
coedge $-1 $116 $117 $118 $119 forward $48 $-1 #
face $-1 $120 $121 $25 $-1 $122 reversed single #
loop $-1 $-1 $123 $50 #
plane-surface $-1 0 -30.000017005749225 0 0 1 0 0 0 1 forward_v I I I I #
coedge $-1 $124 $125 $126 $127 forward $51 $-1 #
face $-1 $128 $129 $27 $-1 $130 reversed single #
loop $-1 $-1 $131 $53 #
plane-surface $-1 -30.000017045727226 0 0 1 0 0 0 0 -1 forward_v I I I I #
coedge $-1 $132 $133 $134 $135 forward $54 $-1 #
face $-1 $136 $137 $29 $-1 $138 reversed single #
loop $-1 $-1 $139 $56 #
plane-surface $-1 0 -30.000017005749225 0 0 1 0 0 0 1 forward_v I I I I #
coedge $-1 $140 $141 $142 $143 forward $57 $-1 #
face_name-twe-attrib $-1 $-1 $60 $40 3 #
model_id-kcp-attrib $-1 $144 $-1 $61 1 990666372 60 -465829887 5 #
face $145 $146 $147 $9 $-1 $148 forward single #
loop $149 $-1 $99 $61 #
plane-surface $150 0 30 0 0 -1 0 0 0 -1 forward_v I I I I #
loop_type-twe-attrib $-1 $-1 $-1 $62 0 #
coedge $-1 $151 $152 $97 $153 forward $62 $-1 #
surf-twe-attrib $-1 $-1 $-1 $63 10 #
coedge $-1 $154 $65 $95 $153 reversed $41 $-1 #
coedge $-1 $65 $154 $68 $104 forward $41 $-1 #
coedge $-1 $155 $156 $65 $100 forward $92 $-1 #
edge $157 $158 -6.25 $159 -1.25 $99 $160 forward 7 unknown #
coedge $-1 $68 $67 $155 $161 reversed $32 $-1 #
coedge $-1 $162 $163 $67 $103 forward $164 $-1 #
edge $165 $166 -27.499897499999989 $109 17.499769979784009 $102 $167 forward 7 unknown #
edge $168 $110 -24.99979500000002 $159 24.999794999999981 $98 $169 forward 7 unknown #
coedge $-1 $170 $69 $154 $171 forward $107 $-1 #
coedge $-1 $69 $172 $162 $173 reversed $107 $-1 #
loop $174 $-1 $105 $175 #
attrib_edge_convexity-kcp-attrib $-1 $176 $-1 $70 1 #
vertex $-1 $103 $177 #
vertex $-1 $70 $178 #
straight-curve $179 34.374985125695197 -10.624682354088799 5.0000000000000098 -0.70710678118654802 -0.70710678118654802 0 I I #
face $-1 $180 $181 $23 $-1 $182 reversed single #
loop $-1 $-1 $183 $73 #
plane-surface $-1 0 -30.000017005749225 0 0 1 0 0 0 1 forward_v I I I I #
coedge $-1 $184 $185 $186 $187 forward $74 $-1 #
coedge $-1 $188 $76 $189 $190 forward $48 $-1 #
coedge $-1 $76 $188 $191 $192 forward $48 $-1 #
coedge $-1 $193 $194 $76 $119 reversed $195 $-1 #
edge $-1 $196 -30.000017005749225 $197 30.000017005749225 $118 $198 forward 7 unknown #
face $-1 $199 $200 $25 $-1 $201 forward single #
loop $-1 $-1 $126 $77 #
plane-surface $-1 0 0 -10 0 0 1 1 0 0 forward_v I I I I #
coedge $-1 $202 $203 $124 $204 reversed $78 $-1 #
coedge $-1 $205 $80 $123 $204 forward $51 $-1 #
coedge $-1 $80 $205 $206 $207 forward $51 $-1 #
coedge $-1 $208 $209 $80 $127 reversed $121 $-1 #
edge $210 $211 -10.606884958754504 $212 10.606884930485792 $126 $213 forward 7 unknown #
face $-1 $214 $215 $27 $-1 $216 forward single #
loop $-1 $-1 $134 $81 #
plane-surface $-1 0 0 -10 0 0 1 1 0 0 forward_v I I I I #
coedge $-1 $217 $218 $132 $219 reversed $82 $-1 #
coedge $-1 $220 $84 $131 $219 forward $54 $-1 #
coedge $-1 $84 $220 $221 $222 forward $54 $-1 #
coedge $-1 $223 $224 $84 $135 reversed $129 $-1 #
edge $225 $226 -33.750108678655835 $227 26.249925412798614 $134 $228 forward 7 unknown #
face $-1 $229 $230 $29 $-1 $231 forward single #
loop $-1 $-1 $142 $85 #
plane-surface $-1 0 0 -10 0 0 1 1 0 0 forward_v I I I I #
coedge $-1 $232 $233 $140 $234 reversed $86 $-1 #
coedge $-1 $235 $88 $139 $234 forward $57 $-1 #
coedge $-1 $88 $235 $236 $237 forward $57 $-1 #
coedge $-1 $238 $239 $88 $143 reversed $137 $-1 #
edge $240 $241 -26.249925372820613 $242 33.750108638677837 $142 $243 forward 7 unknown #
face_name-twe-attrib $-1 $-1 $90 $61 4 #
model_id-kcp-attrib $-1 $244 $-1 $91 1 990666372 60 -465829887 6 #
face $245 $175 $246 $9 $-1 $247 forward single #
loop $248 $-1 $249 $91 #
plane-surface $250 -5.0002050799560402 -27.5 5 0 0 1 0 -1 0 forward_v I I I I #
loop_type-twe-attrib $-1 $-1 $-1 $92 0 #
surf-twe-attrib $-1 $-1 $-1 $93 17 #
coedge $-1 $251 $95 $156 $252 forward $62 $-1 #
coedge $-1 $95 $253 $170 $254 forward $62 $-1 #
edge $255 $256 -22.499692500000013 $158 27.499897499999989 $95 $257 forward 7 unknown #
coedge $-1 $98 $97 $105 $171 reversed $41 $-1 #
coedge $-1 $258 $99 $101 $161 forward $92 $-1 #
coedge $-1 $99 $259 $151 $252 reversed $92 $-1 #
attrib_edge_convexity-kcp-attrib $-1 $260 $-1 $100 1 #
vertex $-1 $100 $261 #
vertex $-1 $161 $262 #
straight-curve $263 25 30 3.75 0 0 -1 I I #
edge $264 $159 11.25 $166 16.25 $155 $265 forward 7 unknown #
coedge $-1 $266 $102 $106 $173 forward $164 $-1 #
coedge $-1 $102 $266 $258 $267 reversed $164 $-1 #
loop $268 $-1 $102 $269 #
attrib_edge_convexity-kcp-attrib $-1 $270 $-1 $103 1 #
vertex $-1 $161 $271 #
straight-curve $272 30 2.5001025000000099 5.0000000000000098 0 -1 0 I I #
edge_name-twe-attrib $-1 $-1 $-1 $104 1 4608 #
straight-curve $273 25 5.0002050000000198 5 0 1 0 I I #
coedge $-1 $274 $105 $152 $254 reversed $107 $-1 #
edge $275 $110 6.25 $256 11.25 $105 $276 forward 7 unknown #
coedge $-1 $106 $277 $278 $279 reversed $107 $-1 #
edge $280 $109 -10 $281 5 $162 $282 forward 7 unknown #
loop_type-twe-attrib $-1 $-1 $-1 $107 0 #
face $283 $284 $107 $9 $-1 $285 forward single #
convexity-sys-attrib $-1 $286 $108 $70 #
point $-1 30 -14.999667479784 5 #
point $-1 25 -19.999590000000001 5 #
cur-twe-attrib $-1 $287 $-1 $111 26 #
face $288 $289 $290 $23 $-1 $291 reversed single #
loop $-1 $-1 $292 $112 #
plane-surface $-1 -30.000017045727226 0 0 1 0 0 0 0 -1 forward_v I I I I #
coedge $-1 $293 $191 $294 $295 forward $113 $-1 #
coedge $-1 $296 $115 $293 $297 forward $74 $-1 #
coedge $-1 $115 $296 $298 $299 forward $74 $-1 #
coedge $-1 $194 $193 $115 $187 reversed $195 $-1 #
edge $-1 $300 -30.000017005749225 $301 30.000017005749225 $186 $302 forward 7 unknown #
coedge $-1 $117 $116 $303 $304 forward $48 $-1 #
coedge $-1 $305 $306 $116 $190 reversed $290 $-1 #
edge $-1 $197 -30.000017045727226 $307 30.000017045727226 $189 $308 forward 7 unknown #
coedge $-1 $183 $309 $117 $192 reversed $113 $-1 #
edge $-1 $310 -30.000017045727226 $196 30.000017045727226 $191 $311 forward 7 unknown #
coedge $-1 $186 $118 $309 $312 forward $195 $-1 #
coedge $-1 $118 $186 $305 $313 reversed $195 $-1 #
loop $-1 $-1 $193 $289 #
vertex $-1 $119 $314 #
vertex $-1 $119 $315 #
straight-curve $-1 30.000017045727226 0 10 0 1 0 I I #
face $-1 $-1 $316 $25 $-1 $317 reversed single #
loop $-1 $-1 $318 $120 #
plane-surface $-1 0 0 10 0 0 1 1 0 0 forward_v I I I I #
coedge $-1 $319 $123 $209 $320 reversed $78 $-1 #
coedge $-1 $123 $319 $321 $322 reversed $78 $-1 #
edge $323 $212 -10 $324 10 $123 $325 forward 7 unknown #
coedge $-1 $125 $124 $318 $326 forward $51 $-1 #
coedge $-1 $327 $328 $125 $207 reversed $316 $-1 #
edge $329 $330 -10 $211 10 $206 $331 forward 7 unknown #
coedge $-1 $209 $126 $328 $332 forward $121 $-1 #
coedge $-1 $126 $208 $202 $320 forward $121 $-1 #
convexity-sys-attrib $-1 $-1 $-1 $127 #
vertex $-1 $332 $333 #
vertex $-1 $127 $334 #
straight-curve $-1 22.499816764126322 -22.49981674413732 -10 -0.70710678118654757 -0.70710678118654757 0 I I #
face $-1 $335 $336 $27 $-1 $337 reversed single #
loop $-1 $-1 $338 $128 #
plane-surface $-1 0 0 10 0 0 1 1 0 0 forward_v I I I I #
coedge $-1 $339 $131 $224 $340 reversed $82 $-1 #
coedge $-1 $131 $339 $341 $342 reversed $82 $-1 #
edge $343 $227 -8.7500000000000018 $344 11.249999999999998 $131 $345 forward 7 unknown #
coedge $-1 $133 $132 $338 $346 forward $54 $-1 #
coedge $-1 $347 $348 $133 $222 reversed $349 $-1 #
edge $350 $351 -11.249999999999998 $226 8.7500000000000018 $221 $352 forward 7 unknown #
coedge $-1 $353 $134 $348 $354 forward $129 $-1 #
coedge $-1 $134 $353 $217 $340 forward $129 $-1 #
convexity-sys-attrib $-1 $-1 $-1 $135 #
vertex $-1 $354 $355 #
vertex $-1 $135 $356 #
straight-curve $-1 -3.750091632928612 -29.999982994250772 -10 -1 0 0 I I #
face $-1 $357 $358 $29 $-1 $359 reversed single #
loop $-1 $-1 $360 $136 #
plane-surface $-1 0 0 10 0 0 1 1 0 0 forward_v I I I I #
coedge $-1 $361 $139 $239 $362 reversed $86 $-1 #
coedge $-1 $139 $361 $363 $364 reversed $86 $-1 #
edge $365 $242 -8.7500000000000018 $366 11.249999999999998 $139 $367 forward 7 unknown #
coedge $-1 $141 $140 $360 $368 forward $57 $-1 #
coedge $-1 $369 $370 $141 $237 reversed $358 $-1 #
edge $371 $372 -11.249999999999998 $241 8.7500000000000018 $236 $373 forward 7 unknown #
coedge $-1 $374 $142 $370 $375 forward $137 $-1 #
coedge $-1 $142 $374 $232 $362 forward $137 $-1 #
convexity-sys-attrib $-1 $-1 $-1 $143 #
vertex $-1 $375 $376 #
vertex $-1 $143 $377 #
straight-curve $-1 29.999983034228777 3.7500916329286125 -10 0 -1 0 I I #
face_name-twe-attrib $-1 $-1 $145 $91 5 #
model_id-kcp-attrib $-1 $378 $-1 $146 1 990666372 60 -465829887 7 #
loop $379 $-1 $380 $146 #
plane-surface $381 -5.0002050799560402 -25 7.5 0 -1 0 0 0 -1 forward_v I I I I #
loop_type-twe-attrib $-1 $-1 $-1 $147 0 #
coedge $-1 $382 $383 $384 $385 reversed $147 $-1 #
surf-twe-attrib $-1 $386 $-1 $148 28 #
coedge $-1 $253 $151 $387 $388 forward $62 $-1 #
edge $389 $158 -25 $390 30 $156 $391 forward 7 unknown #
coedge $-1 $152 $251 $392 $393 forward $62 $-1 #
edge $394 $395 -8.8392663485605194 $256 -1.7676186525970461 $152 $396 forward 7 unknown #
attrib_edge_convexity-kcp-attrib $-1 $397 $-1 $153 1 #
vertex $-1 $254 $398 #
straight-curve $399 25 2.5001025000000099 10 0 1 0 I I #
coedge $-1 $400 $155 $163 $267 forward $92 $-1 #
coedge $-1 $156 $400 $401 $402 reversed $92 $-1 #
convexity-sys-attrib $-1 $403 $157 $100 #
point $-1 25 30 10 #
point $-1 25 30 5 #
cur-twe-attrib $-1 $-1 $-1 $160 38 #
attrib_edge_convexity-kcp-attrib $-1 $404 $-1 $161 1 #
straight-curve $405 13.75 30 5.0000000000000098 1 0 0 I I #
coedge $-1 $163 $162 $406 $407 reversed $164 $-1 #
edge $408 $166 -5 $409 10 $163 $410 forward 7 unknown #
loop_type-twe-attrib $-1 $-1 $-1 $164 0 #
face $411 $-1 $164 $9 $-1 $412 reversed single #
convexity-sys-attrib $-1 $413 $165 $103 #
point $-1 30 30 5 #
cur-twe-attrib $-1 $-1 $-1 $167 41 #
cur-twe-attrib $-1 $-1 $-1 $169 42 #
coedge $-1 $384 $170 $380 $414 forward $107 $-1 #
attrib_edge_convexity-kcp-attrib $-1 $415 $-1 $171 1 #
straight-curve $416 25.000077479784 -19.999590000000001 -1.25 0 0 1 I I #
coedge $-1 $172 $384 $417 $418 reversed $107 $-1 #
coedge $-1 $419 $406 $172 $279 forward $420 $-1 #
edge $421 $281 -5.3034424723101381 $422 15.910327416930272 $278 $423 forward 7 unknown #
attrib_edge_convexity-kcp-attrib $-1 $424 $-1 $173 1 #
vertex $-1 $407 $425 #
straight-curve $426 30 -14.9995994567871 -5 0 0 -1 I I #
model_id-kcp-attrib $-1 $427 $-1 $175 1 990666372 60 -465829887 8 #
face $428 $429 $420 $9 $-1 $430 reversed single #
plane-surface $431 30.000034011498499 -14.9996334682856 -10 0.70710678118654757 -0.70710678118654757 0 -0.70710678118654802 -0.70710678118654802 0 forward_v I I I I #
edge_name-twe-attrib $-1 $-1 $176 $70 14 8704 #
cur-twe-attrib $-1 $-1 $179 $111 130 #
model_id-kcp-attrib $-1 $-1 $-1 $180 1 990666372 60 -465829886 3 #
face $-1 $-1 $195 $23 $-1 $432 reversed single #
loop $-1 $-1 $305 $180 #
plane-surface $-1 0 30.000017005749225 0 0 -1 0 0 0 -1 forward_v I I I I #
coedge $-1 $433 $303 $306 $434 forward $181 $-1 #
coedge $-1 $309 $183 $184 $297 reversed $113 $-1 #
coedge $-1 $303 $433 $183 $295 reversed $181 $-1 #
edge $-1 $310 -10 $435 10 $294 $436 forward 7 unknown #
coedge $-1 $185 $184 $433 $437 forward $74 $-1 #
edge $-1 $301 -30.000017045727226 $435 30.000017045727226 $293 $438 forward 7 unknown #
coedge $-1 $306 $305 $185 $299 reversed $290 $-1 #
edge $-1 $439 -30.000017045727226 $300 30.000017045727226 $298 $440 forward 7 unknown #
vertex $-1 $187 $441 #
vertex $-1 $312 $442 #
straight-curve $-1 30.000017045727226 0 -10 0 -1 0 I I #
coedge $-1 $292 $294 $188 $304 reversed $181 $-1 #
edge $-1 $307 -30.000017005749225 $310 30.000017005749225 $303 $443 forward 7 unknown #
coedge $-1 $298 $189 $194 $313 forward $290 $-1 #
coedge $-1 $189 $298 $292 $434 reversed $290 $-1 #
vertex $-1 $190 $444 #
straight-curve $-1 0 30.000017005749225 10 -1 0 0 I I #
coedge $-1 $191 $293 $193 $312 reversed $113 $-1 #
vertex $-1 $304 $445 #
straight-curve $-1 0 -30.000017005749225 10 1 0 0 I I #
edge $-1 $196 -10 $301 10 $193 $446 forward 7 unknown #
edge $-1 $197 -10 $300 10 $194 $447 forward 7 unknown #
point $-1 30.000017045727226 -30.000017005749225 10 #
point $-1 30.000017045727226 30.000017005749225 10 #
loop $-1 $-1 $206 $199 #
plane-surface $-1 30.000017045727226 0 0 -1 0 0 0 0 1 forward_v I I I I #
coedge $-1 $321 $448 $205 $326 reversed $200 $-1 #
coedge $-1 $203 $202 $449 $450 reversed $78 $-1 #
edge $-1 $451 -30.000017045727226 $212 -14.999616502514417 $202 $452 forward 7 unknown #
coedge $-1 $448 $318 $203 $322 forward $200 $-1 #
edge $-1 $324 14.999616502514417 $453 30.000017045727226 $203 $454 forward 7 unknown #
convexity-sys-attrib $-1 $-1 $-1 $204 #
vertex $-1 $322 $455 #
straight-curve $-1 14.999616502514415 -30.000017005749225 0 0 0 1 I I #
edge $456 $324 -10.606884930485792 $330 10.606884958754504 $318 $457 forward 7 unknown #
coedge $-1 $449 $206 $448 $458 reversed $316 $-1 #
coedge $-1 $206 $449 $208 $332 reversed $316 $-1 #
convexity-sys-attrib $-1 $-1 $-1 $207 #
vertex $-1 $207 $459 #
straight-curve $-1 30.000017045727226 -14.999616462536419 0 0 0 -1 I I #
edge $-1 $211 14.999616462536418 $451 30.000017005749225 $328 $460 forward 7 unknown #
point $-1 30.000017045727226 -14.999616462536418 -10 #
point $-1 14.999616502514417 -30.000017005749225 -10 #
face $-1 $-1 $349 $27 $-1 $461 reversed single #
loop $-1 $-1 $462 $214 #
plane-surface $-1 0 -30.000017005749225 0 0 1 0 0 0 1 forward_v I I I I #
coedge $-1 $341 $463 $220 $346 reversed $215 $-1 #
coedge $-1 $218 $217 $462 $464 reversed $82 $-1 #
edge $-1 $465 -30.000017005749225 $227 -29.999982994250772 $217 $466 forward 7 unknown #
coedge $-1 $467 $338 $218 $342 forward $215 $-1 #
edge $-1 $344 29.999982994250772 $468 30.000017005749225 $218 $469 forward 7 unknown #
convexity-sys-attrib $-1 $-1 $-1 $219 #
vertex $-1 $342 $470 #
straight-curve $-1 -30.000017045727226 -29.999982994250772 -1.2499999999999976 0 0 1 I I #
edge $471 $344 -26.249925412798614 $351 33.750108678655835 $338 $472 forward 7 unknown #
coedge $-1 $473 $221 $463 $474 reversed $349 $-1 #
coedge $-1 $221 $473 $223 $354 reversed $349 $-1 #
loop $-1 $-1 $221 $335 #
convexity-sys-attrib $-1 $-1 $-1 $222 #
vertex $-1 $222 $475 #
straight-curve $-1 30.000017045727226 -29.999982994250772 -1.2499999999999976 0 0 -1 I I #
coedge $-1 $224 $223 $476 $477 forward $129 $-1 #
edge $-1 $226 29.999982994250772 $478 30.000017005749225 $348 $479 forward 7 unknown #
point $-1 30.000017045727226 -29.999982994250772 -10 #
point $-1 -30.000017045727226 -29.999982994250772 -10 #
face $-1 $-1 $480 $29 $-1 $481 reversed single #
loop $-1 $-1 $236 $229 #
plane-surface $-1 0 30.000017005749225 0 0 -1 0 0 0 -1 forward_v I I I I #
coedge $-1 $363 $482 $235 $368 reversed $230 $-1 #
coedge $-1 $233 $232 $483 $484 reversed $86 $-1 #
edge $-1 $485 -30.000017045727226 $242 -29.999983034228777 $232 $486 forward 7 unknown #
coedge $-1 $487 $360 $233 $364 forward $230 $-1 #
edge $-1 $366 29.999983034228777 $488 30.000017045727226 $233 $489 forward 7 unknown #
convexity-sys-attrib $-1 $-1 $-1 $234 #
vertex $-1 $364 $490 #
straight-curve $-1 29.999983034228777 -30.000017005749221 -1.2499999999999976 0 0 1 I I #
edge $491 $366 -33.750108638677837 $372 26.249925372820613 $360 $492 forward 7 unknown #
coedge $-1 $493 $236 $482 $494 reversed $358 $-1 #
coedge $-1 $236 $493 $238 $375 reversed $358 $-1 #
convexity-sys-attrib $-1 $-1 $-1 $237 #
vertex $-1 $237 $495 #
straight-curve $-1 29.999983034228777 30.000017005749225 -1.2499999999999976 0 0 -1 I I #
coedge $-1 $239 $238 $496 $497 forward $137 $-1 #
edge $-1 $241 29.999983034228777 $498 30.000017045727226 $370 $499 forward 7 unknown #
point $-1 29.999983034228777 30.000017005749225 -10 #
point $-1 29.999983034228777 -30.000017005749225 -10 #
face_name-twe-attrib $-1 $-1 $245 $146 6 #
loop_type-twe-attrib $-1 $-1 $-1 $246 0 #
coedge $-1 $392 $500 $274 $414 reversed $246 $-1 #
surf-twe-attrib $-1 $-1 $-1 $247 51 #
coedge $-1 $501 $249 $500 $502 reversed $147 $-1 #
coedge $-1 $249 $501 $503 $504 reversed $147 $-1 #
coedge $-1 $277 $274 $249 $385 forward $107 $-1 #
edge $505 $506 -2.6512913524346562 $507 4.4197216164127129 $384 $508 forward 7 unknown #
surf-twe-attrib $-1 $-1 $250 $148 4 #
coedge $-1 $401 $509 $251 $388 reversed $510 $-1 #
edge $511 $390 -30 $512 25 $387 $513 forward 7 unknown #
attrib_edge_convexity-kcp-attrib $-1 $514 $-1 $252 1 #
vertex $-1 $252 $515 #
straight-curve $516 0 30 10 -1 0 0 I I #
coedge $-1 $517 $380 $253 $393 reversed $246 $-1 #
edge $518 $512 -27.499897539977979 $395 22.499692460022018 $253 $519 forward 7 unknown #
attrib_edge_convexity-kcp-attrib $-1 $520 $-1 $254 1 #
vertex $-1 $414 $521 #
straight-curve $522 26.249933875695199 -18.749733604088799 10 0.70710678118654802 0.70710678118654802 0 I I #
convexity-sys-attrib $-1 $523 $255 $153 #
point $-1 25 -19.999590000000001 10 #
cur-twe-attrib $-1 $-1 $-1 $257 58 #
coedge $-1 $259 $258 $524 $525 reversed $92 $-1 #
coedge $-1 $526 $387 $259 $402 forward $510 $-1 #
edge $527 $390 -10 $528 10 $259 $529 forward 7 unknown #
edge_name-twe-attrib $-1 $-1 $260 $100 5 8704 #
convexity-sys-attrib $-1 $530 $264 $161 #
cur-twe-attrib $-1 $-1 $-1 $265 66 #
coedge $-1 $278 $524 $266 $407 forward $420 $-1 #
edge $531 $409 -30 $281 14.9996334682856 $266 $532 forward 7 unknown #
attrib_edge_convexity-kcp-attrib $-1 $533 $-1 $267 1 #
vertex $-1 $407 $534 #
straight-curve $535 30 30 0 0 0 -1 I I #
model_id-kcp-attrib $-1 $536 $-1 $269 1 990666372 60 -465829887 12 #
plane-surface $537 30 0 0 -1 0 0 0 0 1 forward_v I I I I #
edge_name-twe-attrib $-1 $-1 $270 $103 24 8704 #
edge $538 $395 -11.25 $506 -6.25 $274 $539 forward 7 unknown #
convexity-sys-attrib $-1 $540 $275 $171 #
cur-twe-attrib $-1 $-1 $-1 $276 76 #
coedge $-1 $503 $541 $277 $418 forward $542 $-1 #
edge $543 $422 -15 $507 0 $417 $544 forward 7 unknown #
coedge $-1 $545 $278 $541 $546 forward $420 $-1 #
loop $547 $-1 $278 $284 #
attrib_edge_convexity-kcp-attrib $-1 $548 $-1 $279 1 #
vertex $-1 $418 $549 #
straight-curve $550 26.249933875695199 -18.749733604088799 -10 -0.70710678118654802 -0.70710678118654802 0 I I #
convexity-sys-attrib $-1 $551 $280 $173 #
point $-1 30.000034011498499 -14.9996334682856 -10 #
cur-twe-attrib $-1 $-1 $-1 $282 78 #
face_name-twe-attrib $-1 $-1 $283 $175 7 #
model_id-kcp-attrib $-1 $552 $-1 $284 1 990666372 60 -465829887 9 #
face $553 $554 $542 $9 $-1 $555 reversed single #
plane-surface $556 0 0 -10 0 0 1 1 0 0 forward_v I I I I #
surf-twe-attrib $-1 $-1 $-1 $285 80 #
plane-surface $-1 30.000017045727226 0 0 -1 0 0 0 0 1 forward_v I I I I #
coedge $-1 $294 $292 $296 $437 reversed $181 $-1 #
edge $-1 $307 -10 $439 10 $306 $557 forward 7 unknown #
vertex $-1 $437 $558 #
straight-curve $-1 -30.000017045727226 -30.000017005749225 0 0 0 -1 I I #
edge $-1 $435 -30.000017005749225 $439 30.000017005749225 $433 $559 forward 7 unknown #
straight-curve $-1 0 -30.000017005749225 -10 -1 0 0 I I #
vertex $-1 $299 $560 #
straight-curve $-1 0 30.000017005749225 -10 1 0 0 I I #
point $-1 30.000017045727226 30.000017005749225 -10 #
point $-1 30.000017045727226 -30.000017005749225 -10 #
straight-curve $-1 -30.000017045727226 0 10 0 -1 0 I I #
point $-1 -30.000017045727226 30.000017005749225 10 #
point $-1 -30.000017045727226 -30.000017005749225 10 #
straight-curve $-1 30.000017045727226 -30.000017005749225 0 0 0 -1 I I #
straight-curve $-1 30.000017045727226 30.000017005749225 0 0 0 -1 I I #
coedge $-1 $318 $321 $327 $458 forward $200 $-1 #
coedge $-1 $328 $327 $319 $450 forward $316 $-1 #
edge $-1 $453 -10 $451 10 $449 $561 forward 7 unknown #
vertex $-1 $450 $562 #
straight-curve $-1 0 -30.000017005749225 -10 -1 0 0 I I #
vertex $-1 $458 $563 #
straight-curve $-1 0 -30.000017005749225 10 1 0 0 I I #
point $-1 14.999616502514417 -30.000017005749225 10 #
convexity-sys-attrib $-1 $-1 $-1 $326 #
straight-curve $-1 22.499816764126322 -22.49981674413732 10 0.70710678118654757 0.70710678118654757 0 I I #
edge $-1 $453 -30.000017005749225 $330 -14.999616462536418 $327 $564 forward 7 unknown #
point $-1 30.000017045727226 -14.999616462536418 10 #
straight-curve $-1 30.000017045727226 0 -10 0 -1 0 I I #
plane-surface $-1 30.000017045727226 0 0 -1 0 0 0 0 1 forward_v I I I I #
coedge $-1 $476 $565 $339 $464 forward $336 $-1 #
coedge $-1 $338 $467 $347 $474 forward $215 $-1 #
edge $-1 $468 -10 $465 10 $339 $566 forward 7 unknown #
vertex $-1 $340 $567 #
straight-curve $-1 -30.000017045727226 0 -10 0 1 0 I I #
coedge $-1 $463 $341 $565 $568 forward $215 $-1 #
vertex $-1 $342 $569 #
straight-curve $-1 -30.000017045727226 0 10 0 -1 0 I I #
point $-1 -30.000017045727226 -29.999982994250772 10 #
convexity-sys-attrib $-1 $-1 $-1 $346 #
straight-curve $-1 -3.750091632928612 -29.999982994250772 10 1 0 0 I I #
coedge $-1 $348 $347 $570 $571 forward $349 $-1 #
edge $-1 $572 -30.000017005749225 $351 -29.999982994250772 $347 $573 forward 7 unknown #
point $-1 30.000017045727226 -29.999982994250772 10 #
coedge $-1 $570 $462 $353 $477 reversed $336 $-1 #
edge $-1 $478 -30.000017045727226 $465 30.000017045727226 $476 $574 forward 7 unknown #
vertex $-1 $571 $575 #
straight-curve $-1 30.000017045727226 0 -10 0 -1 0 I I #
loop $-1 $-1 $483 $357 #
plane-surface $-1 30.000017045727226 0 0 -1 0 0 0 0 1 forward_v I I I I #
coedge $-1 $360 $487 $369 $494 forward $230 $-1 #
coedge $-1 $496 $576 $361 $484 forward $480 $-1 #
edge $-1 $488 -10 $485 10 $483 $577 forward 7 unknown #
vertex $-1 $484 $578 #
straight-curve $-1 0 -30.000017005749225 -10 -1 0 0 I I #
coedge $-1 $482 $363 $576 $579 forward $230 $-1 #
vertex $-1 $579 $580 #
straight-curve $-1 0 -30.000017005749225 10 1 0 0 I I #
point $-1 29.999983034228777 -30.000017005749225 10 #
convexity-sys-attrib $-1 $-1 $-1 $368 #
straight-curve $-1 29.999983034228777 3.7500916329286125 10 0 1 0 I I #
coedge $-1 $370 $369 $581 $582 forward $358 $-1 #
edge $-1 $583 -30.000017045727226 $372 -29.999983034228777 $369 $584 forward 7 unknown #
point $-1 29.999983034228777 30.000017005749225 10 #
coedge $-1 $581 $483 $374 $497 reversed $480 $-1 #
edge $-1 $498 -30.000017005749225 $485 30.000017005749225 $496 $585 forward 7 unknown #
vertex $-1 $497 $586 #
straight-curve $-1 0 30.000017005749225 -10 1 0 0 I I #
coedge $-1 $380 $517 $382 $502 forward $246 $-1 #
coedge $-1 $383 $382 $587 $588 reversed $147 $-1 #
edge $589 $590 -24.99979499999996 $506 24.999795000000038 $500 $591 forward 7 unknown #
coedge $-1 $592 $417 $383 $504 forward $542 $-1 #
edge $593 $507 -17.499770019762021 $594 27.499897539977979 $503 $595 forward 7 unknown #
attrib_edge_convexity-kcp-attrib $-1 $596 $-1 $385 1 #
vertex $-1 $385 $597 #
vertex $-1 $418 $598 #
straight-curve $599 18.124882605706201 -26.8747848740778 5.0000000000000098 -0.70710678118654802 -0.70710678118654802 0 I I #
coedge $-1 $387 $587 $517 $600 forward $510 $-1 #
loop $601 $-1 $509 $554 #
attrib_edge_convexity-kcp-attrib $-1 $602 $-1 $388 1 #
vertex $-1 $388 $603 #
straight-curve $604 -30 0 10 0 -1 0 I I #
convexity-sys-attrib $-1 $605 $389 $252 #
point $-1 -30 30 10 #
cur-twe-attrib $-1 $-1 $-1 $391 91 #
coedge $-1 $500 $392 $509 $600 reversed $246 $-1 #
attrib_edge_convexity-kcp-attrib $-1 $606 $-1 $393 1 #
straight-curve $607 -2.5001025399780201 -25 10 1 0 0 I I #
convexity-sys-attrib $-1 $608 $394 $254 #
point $-1 19.999589920043999 -25 10 #
cur-twe-attrib $-1 $-1 $-1 $396 93 #
edge_name-twe-attrib $-1 $-1 $397 $153 2 8704 #
coedge $-1 $406 $545 $400 $525 forward $420 $-1 #
edge $609 $528 -30 $409 30 $400 $610 forward 7 unknown #
coedge $-1 $611 $401 $545 $612 reversed $510 $-1 #
attrib_edge_convexity-kcp-attrib $-1 $613 $-1 $402 1 #
vertex $-1 $525 $614 #
straight-curve $615 -30 30 0 0 0 -1 I I #
edge_name-twe-attrib $-1 $-1 $404 $161 6 8704 #
attrib_edge_convexity-kcp-attrib $-1 $616 $-1 $407 1 #
straight-curve $617 30 0 -10 0 -1 0 I I #
convexity-sys-attrib $-1 $618 $408 $267 #
point $-1 30 30 -10 #
cur-twe-attrib $-1 $-1 $-1 $410 105 #
face_name-twe-attrib $-1 $-1 $411 $269 11 #
surf-twe-attrib $-1 $-1 $-1 $412 107 #
attrib_edge_convexity-kcp-attrib $-1 $619 $-1 $414 1 #
straight-curve $620 19.999667479784002 -25 -1.25 0 0 -1 I I #
edge_name-twe-attrib $-1 $-1 $415 $171 11 8448 #
coedge $-1 $417 $592 $419 $546 reversed $542 $-1 #
loop $621 $-1 $503 $429 #
attrib_edge_convexity-kcp-attrib $-1 $622 $-1 $418 1 #
straight-curve $623 14.9995994567871 -30 5 0 0 1 I I #
coedge $-1 $524 $419 $526 $612 forward $420 $-1 #
edge $624 $422 -14.9996334682856 $625 30 $541 $626 forward 7 unknown #
loop_type-twe-attrib $-1 $-1 $-1 $420 0 #
convexity-sys-attrib $-1 $627 $421 $279 #
point $-1 14.9996334682856 -30.000034011498499 -10 #
cur-twe-attrib $-1 $-1 $-1 $423 116 #
edge_name-twe-attrib $-1 $-1 $424 $173 25 8448 #
face_name-twe-attrib $-1 $-1 $428 $284 8 #
model_id-kcp-attrib $-1 $628 $-1 $429 1 990666372 60 -465829887 10 #
face $629 $269 $510 $9 $-1 $630 reversed single #
plane-surface $631 0 -30 0 0 1 0 0 0 1 forward_v I I I I #
surf-twe-attrib $-1 $-1 $-1 $430 121 #
straight-curve $-1 -30.000017045727226 30.000017005749225 0 0 0 -1 I I #
point $-1 -30.000017045727226 -30.000017005749225 -10 #
straight-curve $-1 -30.000017045727226 0 -10 0 1 0 I I #
point $-1 -30.000017045727226 30.000017005749225 -10 #
straight-curve $-1 30.000017045727226 -30.000017005749225 0 0 0 -1 I I #
point $-1 30.000017045727226 -30.000017005749225 -10 #
point $-1 30.000017045727226 -30.000017005749225 10 #
straight-curve $-1 30.000017045727226 0 10 0 1 0 I I #
coedge $-1 $462 $570 $467 $568 reversed $336 $-1 #
straight-curve $-1 -30.000017045727226 -30.000017005749225 0 0 0 -1 I I #
point $-1 -30.000017045727226 -30.000017005749225 -10 #
edge $-1 $468 -30.000017045727226 $572 30.000017045727226 $565 $632 forward 7 unknown #
point $-1 -30.000017045727226 -30.000017005749225 10 #
coedge $-1 $565 $476 $473 $571 reversed $336 $-1 #
edge $-1 $572 -10 $478 10 $473 $633 forward 7 unknown #
vertex $-1 $474 $634 #
straight-curve $-1 30.000017045727226 0 10 0 1 0 I I #
straight-curve $-1 0 -30.000017005749225 -10 -1 0 0 I I #
point $-1 30.000017045727226 -30.000017005749225 -10 #
coedge $-1 $483 $581 $487 $579 reversed $480 $-1 #
straight-curve $-1 30.000017045727226 -30.000017005749225 0 0 0 -1 I I #
point $-1 30.000017045727226 -30.000017005749225 -10 #
edge $-1 $488 -30.000017005749225 $583 30.000017005749225 $576 $635 forward 7 unknown #
point $-1 30.000017045727226 -30.000017005749225 10 #
coedge $-1 $576 $496 $493 $582 reversed $480 $-1 #
edge $-1 $583 -10 $498 10 $581 $636 forward 7 unknown #
vertex $-1 $579 $637 #
straight-curve $-1 0 30.000017005749225 10 -1 0 0 I I #
straight-curve $-1 30.000017045727226 0 -10 0 -1 0 I I #
point $-1 30.000017045727226 30.000017005749225 -10 #
coedge $-1 $509 $611 $501 $588 forward $510 $-1 #
edge $638 $594 -16.25 $590 -11.25 $587 $639 forward 7 unknown #
edge_name-twe-attrib $-1 $-1 $-1 $502 10 4608 #
vertex $-1 $588 $640 #
straight-curve $641 -5.0002050799560402 -25 5 1 0 0 I I #
coedge $-1 $541 $503 $611 $642 forward $542 $-1 #
attrib_edge_convexity-kcp-attrib $-1 $643 $-1 $504 1 #
vertex $-1 $504 $644 #
straight-curve $645 -2.5001025399780201 -30 5.0000000000000098 -1 0 0 I I #
convexity-sys-attrib $-1 $646 $505 $385 #
point $-1 19.999589920043999 -25 5 #
point $-1 14.999667479784 -30 5 #
cur-twe-attrib $-1 $647 $-1 $508 26 #
edge $648 $590 1.25 $512 6.25 $509 $649 forward 7 unknown #
loop_type-twe-attrib $-1 $-1 $-1 $510 0 #
convexity-sys-attrib $-1 $650 $511 $388 #
point $-1 -30.000000079955999 -25 10 #
cur-twe-attrib $-1 $-1 $-1 $513 133 #
edge_name-twe-attrib $-1 $-1 $514 $252 9 8704 #
convexity-sys-attrib $-1 $651 $518 $393 #
cur-twe-attrib $-1 $-1 $-1 $519 138 #
edge_name-twe-attrib $-1 $-1 $520 $254 4 8704 #
attrib_edge_convexity-kcp-attrib $-1 $652 $-1 $525 1 #
straight-curve $653 0 30 -10 1 0 0 I I #
coedge $-1 $587 $526 $592 $642 reversed $510 $-1 #
edge $654 $625 -30 $528 30 $526 $655 forward 7 unknown #
convexity-sys-attrib $-1 $656 $527 $402 #
point $-1 -30 30 -10 #
cur-twe-attrib $-1 $-1 $-1 $529 146 #
convexity-sys-attrib $-1 $657 $531 $407 #
cur-twe-attrib $-1 $-1 $-1 $532 149 #
edge_name-twe-attrib $-1 $-1 $533 $267 27 8704 #
convexity-sys-attrib $-1 $658 $538 $414 #
cur-twe-attrib $-1 $-1 $-1 $539 155 #
loop_type-twe-attrib $-1 $-1 $-1 $542 0 #
convexity-sys-attrib $-1 $659 $543 $418 #
cur-twe-attrib $-1 $-1 $-1 $544 158 #
attrib_edge_convexity-kcp-attrib $-1 $660 $-1 $546 1 #
vertex $-1 $612 $661 #
straight-curve $662 0 -30 -10 -1 0 0 I I #
edge_name-twe-attrib $-1 $-1 $548 $279 15 8704 #
face_name-twe-attrib $-1 $-1 $553 $429 9 #
model_id-kcp-attrib $-1 $663 $-1 $554 1 990666372 60 -465829887 11 #
plane-surface $664 -30 0 0 1 0 0 0 0 -1 forward_v I I I I #
surf-twe-attrib $-1 $-1 $-1 $555 167 #
straight-curve $-1 0 -30.000017005749225 10 1 0 0 I I #
straight-curve $-1 30.000017045727226 -30.000017005749225 0 0 0 -1 I I #
point $-1 30.000017045727226 -30.000017005749225 10 #
straight-curve $-1 30.000017045727226 0 10 0 1 0 I I #
straight-curve $-1 30.000017045727226 30.000017005749225 0 0 0 -1 I I #
point $-1 30.000017045727226 30.000017005749225 10 #
attrib_edge_convexity-kcp-attrib $-1 $665 $-1 $588 1 #
straight-curve $666 -30 -13.75 5.0000000000000098 0 1 0 I I #
point $-1 -30.000000079955999 -25 5 #
cur-twe-attrib $-1 $-1 $-1 $591 172 #
edge $667 $594 -5 $625 10 $611 $668 forward 7 unknown #
convexity-sys-attrib $-1 $669 $593 $504 #
point $-1 -30.000000079955999 -30 5 #
cur-twe-attrib $-1 $-1 $-1 $595 174 #
edge_name-twe-attrib $-1 $-1 $596 $385 13 8704 #
cur-twe-attrib $-1 $-1 $599 $508 130 #
attrib_edge_convexity-kcp-attrib $-1 $670 $-1 $600 1 #
straight-curve $671 -30 -25 3.75 0 0 1 I I #
edge_name-twe-attrib $-1 $-1 $602 $388 20 8704 #
edge_name-twe-attrib $-1 $-1 $606 $393 3 8704 #
convexity-sys-attrib $-1 $672 $609 $525 #
cur-twe-attrib $-1 $-1 $-1 $610 192 #
attrib_edge_convexity-kcp-attrib $-1 $673 $-1 $612 1 #
straight-curve $674 -30 0 -10 0 1 0 I I #
edge_name-twe-attrib $-1 $-1 $613 $402 8 8704 #
edge_name-twe-attrib $-1 $-1 $616 $407 26 8704 #
edge_name-twe-attrib $-1 $-1 $619 $414 12 8448 #
edge_name-twe-attrib $-1 $-1 $622 $418 18 8448 #
convexity-sys-attrib $-1 $675 $624 $546 #
point $-1 -30 -30 -10 #
cur-twe-attrib $-1 $-1 $-1 $626 209 #
face_name-twe-attrib $-1 $-1 $629 $554 10 #
surf-twe-attrib $-1 $-1 $-1 $630 214 #
convexity-sys-attrib $-1 $676 $638 $588 #
cur-twe-attrib $-1 $-1 $-1 $639 218 #
attrib_edge_convexity-kcp-attrib $-1 $677 $-1 $642 1 #
straight-curve $678 -30 -30 0 0 0 -1 I I #
edge_name-twe-attrib $-1 $-1 $643 $504 16 8704 #
convexity-sys-attrib $-1 $679 $648 $600 #
cur-twe-attrib $-1 $-1 $-1 $649 229 #
edge_name-twe-attrib $-1 $-1 $652 $525 7 8704 #
convexity-sys-attrib $-1 $680 $654 $612 #
cur-twe-attrib $-1 $-1 $-1 $655 237 #
edge_name-twe-attrib $-1 $-1 $660 $546 17 8704 #
edge_name-twe-attrib $-1 $-1 $665 $588 23 8704 #
convexity-sys-attrib $-1 $681 $667 $642 #
cur-twe-attrib $-1 $-1 $-1 $668 254 #
edge_name-twe-attrib $-1 $-1 $670 $600 19 8704 #
edge_name-twe-attrib $-1 $-1 $673 $612 21 8704 #
edge_name-twe-attrib $-1 $-1 $677 $642 22 8704 #
End-of-ACIS-data 