600 0 1 0           
63 GICL ACIS Healer - Source: dual_surf_edge_block_plain.sat - 6 0 18 ACIS 6.0.3 Solaris 24 Fri Mar 29 21:02:34 2002 
1 9.999999999999999547e-07 1.000000000000000036e-10 
body $1 $2 $-1 $3 #
aggregate_advspl_attribute-aggregate_geombuild_base_attribute-aggregate_body_attribute-attrib_HH-attrib $-1 $4 $-1 $0 F #
lump $-1 $-1 $5 $0 #
transform $-1 1 0 0 0 1 0 0 0 1 0 0 0 1 no_rotate no_reflect no_shear #
aggregate_secndry_attribute-aggregate_geombuild_base_attribute-aggregate_body_attribute-attrib_HH-attrib $-1 $6 $1 $0 F #
shell $-1 $-1 $-1 $7 $-1 $2 #
aggregate_sharped_attribute-aggregate_geombuild_base_attribute-aggregate_body_attribute-attrib_HH-attrib $-1 $8 $4 $0 F #
face $9 $10 $11 $5 $-1 $12 forward single #
aggregate_reblend_attribute-aggregate_geombuild_base_attribute-aggregate_body_attribute-attrib_HH-attrib $-1 $13 $6 $0 F #
attrib_hh_face_geombuild-attrib_entity_geombuild-individual_entity_attribute-attrib_HH-attrib $-1 $14 $-1 $7 F #
face $15 $16 $17 $5 $-1 $18 forward single #
loop $19 $-1 $20 $7 #
plane-surface $21 27.5 5.000205000000019773 5 0 0 1 1 0 0 forward_v I I I I #
aggregate_isospline_attribute-aggregate_geombuild_base_attribute-aggregate_body_attribute-attrib_HH-attrib $-1 $22 $8 $0 F #
face_name-twe-attrib $-1 $-1 $9 $7 1 #
attrib_hh_face_geombuild-attrib_entity_geombuild-individual_entity_attribute-attrib_HH-attrib $-1 $23 $-1 $10 F #
face $24 $25 $26 $5 $-1 $27 forward single #
loop $28 $-1 $29 $10 #
plane-surface $30 25 5.000205000000019773 7.5 1 0 0 0 0 -1 forward_v I I I I #
loop_type-twe-attrib $-1 $-1 $-1 $11 0 #
coedge $31 $32 $33 $34 $35 reversed $11 $-1 #
surf-twe-attrib $-1 $36 $-1 $12 28 #
aggregate_analytic_solver_attribute-aggregate_geombuild_base_attribute-aggregate_body_attribute-attrib_HH-attrib $-1 $37 $13 $0 F #
face_name-twe-attrib $-1 $-1 $15 $10 2 #
attrib_hh_face_geombuild-attrib_entity_geombuild-individual_entity_attribute-attrib_HH-attrib $-1 $38 $-1 $16 F #
face $39 $40 $41 $5 $-1 $42 reversed single #
loop $43 $-1 $44 $16 #
plane-surface $45 0 0 10 0 0 1 1 0 0 forward_v I I I I #
loop_type-twe-attrib $-1 $-1 $-1 $17 0 #
coedge $46 $47 $48 $49 $50 reversed $17 $-1 #
surf-twe-attrib $-1 $-1 $-1 $18 6 #
attrib_hh_coedge_geombuild-attrib_entity_geombuild-individual_entity_attribute-attrib_HH-attrib $-1 $-1 $-1 $20 F #
coedge $51 $52 $20 $53 $54 reversed $11 $-1 #
coedge $55 $20 $52 $48 $56 reversed $11 $-1 #
coedge $57 $58 $59 $20 $35 forward $60 $-1 #
edge $61 $62 6.187163299938824856 $63 13.25823111180430303 $34 $64 forward 7 unknown #
surf-twe-attrib $-1 $-1 $21 $12 4 #
aggregate_geombuild_attribute-aggregate_geombuild_base_attribute-aggregate_body_attribute-attrib_HH-attrib $-1 $65 $22 $0 #
face_name-twe-attrib $-1 $-1 $24 $16 3 #
attrib_hh_face_geombuild-attrib_entity_geombuild-individual_entity_attribute-attrib_HH-attrib $-1 $66 $-1 $25 F #
face $67 $68 $69 $5 $-1 $70 forward single #
loop $71 $-1 $49 $25 #
plane-surface $72 0 30 0 0 -1 0 0 0 -1 forward_v I I I I #
loop_type-twe-attrib $-1 $-1 $-1 $26 0 #
coedge $73 $74 $75 $47 $76 forward $26 $-1 #
surf-twe-attrib $-1 $-1 $-1 $27 10 #
attrib_hh_coedge_geombuild-attrib_entity_geombuild-individual_entity_attribute-attrib_HH-attrib $-1 $-1 $-1 $29 F #
coedge $77 $78 $29 $44 $76 reversed $17 $-1 #
coedge $79 $29 $78 $33 $56 forward $17 $-1 #
coedge $80 $81 $82 $29 $50 forward $41 $-1 #
edge $83 $84 -6.25 $85 -1.25 $49 $86 reversed 7 unknown #
attrib_hh_coedge_geombuild-attrib_entity_geombuild-individual_entity_attribute-attrib_HH-attrib $-1 $-1 $-1 $32 F #
coedge $87 $33 $32 $81 $88 reversed $11 $-1 #
coedge $89 $90 $91 $32 $54 forward $92 $-1 #
edge $93 $94 -27.49989749999998878 $62 17.49976997978410864 $53 $95 reversed 7 unknown #
attrib_hh_coedge_geombuild-attrib_entity_geombuild-individual_entity_attribute-attrib_HH-attrib $-1 $-1 $-1 $33 F #
edge $96 $63 -24.99987247978411986 $85 24.99979499999998112 $48 $97 reversed 7 unknown #
attrib_hh_coedge_geombuild-attrib_entity_geombuild-individual_entity_attribute-attrib_HH-attrib $-1 $-1 $-1 $34 F #
coedge $98 $99 $34 $78 $100 forward $60 $-1 #
coedge $101 $34 $102 $90 $103 reversed $60 $-1 #
loop $104 $-1 $58 $105 #
attrib_hh_edge_geombuild-attrib_entity_geombuild-individual_entity_attribute-attrib_HH-attrib $-1 $106 $-1 $35 F #
vertex $107 $54 $108 #
vertex $109 $35 $110 #
straight-curve $-1 34.37498512569528231 -10.62468235408882045 4.999999999999999112 -0.7071067811865475727 -0.7071067811865475727 0 I I #
aggregate_stitch_attribute-aggregate_stitch_base_attribute-aggregate_body_attribute-attrib_HH-attrib $-1 $111 $37 $0 F #
face_name-twe-attrib $-1 $-1 $39 $25 4 #
attrib_hh_face_geombuild-attrib_entity_geombuild-individual_entity_attribute-attrib_HH-attrib $-1 $112 $-1 $40 F #
face $113 $105 $114 $5 $-1 $115 forward single #
loop $116 $-1 $117 $40 #
plane-surface $118 -5.000205079956040244 -27.5 5 0 0 1 0 -1 0 forward_v I I I I #
loop_type-twe-attrib $-1 $-1 $-1 $41 0 #
surf-twe-attrib $-1 $-1 $-1 $42 17 #
attrib_hh_coedge_geombuild-attrib_entity_geombuild-individual_entity_attribute-attrib_HH-attrib $-1 $-1 $-1 $44 F #
coedge $119 $120 $44 $82 $121 forward $26 $-1 #
coedge $122 $44 $123 $99 $124 forward $26 $-1 #
edge $125 $126 -22.49976997978411575 $84 27.49989749999998878 $44 $127 forward 7 unknown #
attrib_hh_coedge_geombuild-attrib_entity_geombuild-individual_entity_attribute-attrib_HH-attrib $-1 $-1 $-1 $47 F #
coedge $128 $48 $47 $58 $100 reversed $17 $-1 #
attrib_hh_coedge_geombuild-attrib_entity_geombuild-individual_entity_attribute-attrib_HH-attrib $-1 $-1 $-1 $48 F #
attrib_hh_coedge_geombuild-attrib_entity_geombuild-individual_entity_attribute-attrib_HH-attrib $-1 $-1 $-1 $49 F #
coedge $129 $130 $49 $52 $88 forward $41 $-1 #
coedge $131 $49 $132 $74 $121 reversed $41 $-1 #
attrib_hh_edge_geombuild-attrib_entity_geombuild-individual_entity_attribute-attrib_HH-attrib $-1 $133 $-1 $50 F #
vertex $134 $50 $135 #
vertex $136 $88 $137 #
straight-curve $-1 25 30 3.75 -0 0 1 I I #
attrib_hh_coedge_geombuild-attrib_entity_geombuild-individual_entity_attribute-attrib_HH-attrib $-1 $-1 $-1 $52 F #
edge $138 $85 11.25 $94 16.25 $81 $139 reversed 7 unknown #
attrib_hh_coedge_geombuild-attrib_entity_geombuild-individual_entity_attribute-attrib_HH-attrib $-1 $-1 $-1 $53 F #
coedge $140 $141 $53 $59 $103 forward $92 $-1 #
coedge $142 $53 $141 $130 $143 reversed $92 $-1 #
loop $144 $-1 $53 $145 #
attrib_hh_edge_geombuild-attrib_entity_geombuild-individual_entity_attribute-attrib_HH-attrib $-1 $146 $-1 $54 F #
vertex $147 $88 $148 #
straight-curve $-1 30 2.500102500000009886 5 0 1 -0 I I #
attrib_hh_edge_geombuild-attrib_entity_geombuild-individual_entity_attribute-attrib_HH-attrib $-1 $149 $-1 $56 F #
straight-curve $-1 25 5.000205000000019773 5 0 -1 0 I I #
attrib_hh_coedge_geombuild-attrib_entity_geombuild-individual_entity_attribute-attrib_HH-attrib $-1 $-1 $-1 $58 F #
coedge $150 $151 $58 $75 $124 reversed $60 $-1 #
edge $152 $63 6.249999999999999112 $126 11.25 $58 $153 forward 7 unknown #
attrib_hh_coedge_geombuild-attrib_entity_geombuild-individual_entity_attribute-attrib_HH-attrib $-1 $-1 $-1 $59 F #
coedge $154 $59 $155 $156 $157 reversed $60 $-1 #
edge $158 $62 -10 $159 5 $90 $160 reversed 7 unknown #
loop_type-twe-attrib $-1 $-1 $-1 $60 0 #
face $161 $162 $60 $5 $-1 $163 forward single #
edge_name-twe-attrib $-1 $-1 $61 $35 14 8704 #
attrib_hh_vertex_geombuild-attrib_entity_geombuild-individual_entity_attribute-attrib_HH-attrib $-1 $-1 $-1 $62 F #
point $-1 30 -14.99966747978409742 5 #
attrib_hh_vertex_geombuild-attrib_entity_geombuild-individual_entity_attribute-attrib_HH-attrib $-1 $-1 $-1 $63 F #
point $-1 25 -19.99966747978410098 4.999999999999999112 #
aggregate_simgeom_attribute-aggregate_simgeom_base_attribute-aggregate_body_attribute-attrib_HH-attrib $-1 $-1 $65 $0 F #
face_name-twe-attrib $-1 $-1 $67 $40 5 #
attrib_hh_face_geombuild-attrib_entity_geombuild-individual_entity_attribute-attrib_HH-attrib $-1 $164 $-1 $68 F #
loop $165 $-1 $166 $68 #
plane-surface $167 -5.000205079956040244 -25 7.5 0 -1 0 0 0 -1 forward_v I I I I #
loop_type-twe-attrib $-1 $-1 $-1 $69 0 #
coedge $168 $169 $170 $171 $172 reversed $69 $-1 #
surf-twe-attrib $-1 $173 $-1 $70 28 #
attrib_hh_coedge_geombuild-attrib_entity_geombuild-individual_entity_attribute-attrib_HH-attrib $-1 $-1 $-1 $74 F #
coedge $174 $123 $74 $175 $176 forward $26 $-1 #
edge $177 $84 -25 $178 30 $82 $179 forward 7 unknown #
attrib_hh_coedge_geombuild-attrib_entity_geombuild-individual_entity_attribute-attrib_HH-attrib $-1 $-1 $-1 $75 F #
coedge $180 $75 $120 $181 $182 forward $26 $-1 #
edge $183 $184 -8.839211505542390768 $126 -1.767673439077829256 $75 $185 forward 7 unknown #
attrib_hh_edge_geombuild-attrib_entity_geombuild-individual_entity_attribute-attrib_HH-attrib $-1 $186 $-1 $76 F #
vertex $187 $124 $188 #
straight-curve $-1 25 2.500102500000009886 10 0 1 0 I I #
attrib_hh_coedge_geombuild-attrib_entity_geombuild-individual_entity_attribute-attrib_HH-attrib $-1 $-1 $-1 $78 F #
attrib_hh_coedge_geombuild-attrib_entity_geombuild-individual_entity_attribute-attrib_HH-attrib $-1 $-1 $-1 $81 F #
coedge $189 $190 $81 $91 $143 forward $41 $-1 #
attrib_hh_coedge_geombuild-attrib_entity_geombuild-individual_entity_attribute-attrib_HH-attrib $-1 $-1 $-1 $82 F #
coedge $191 $82 $190 $192 $193 reversed $41 $-1 #
edge_name-twe-attrib $-1 $-1 $83 $50 5 8704 #
attrib_hh_vertex_geombuild-attrib_entity_geombuild-individual_entity_attribute-attrib_HH-attrib $-1 $-1 $-1 $84 F #
point $-1 25 30 10 #
attrib_hh_vertex_geombuild-attrib_entity_geombuild-individual_entity_attribute-attrib_HH-attrib $-1 $-1 $-1 $85 F #
point $-1 25 30 5 #
attrib_hh_edge_geombuild-attrib_entity_geombuild-individual_entity_attribute-attrib_HH-attrib $-1 $194 $-1 $88 F #
straight-curve $-1 13.75 30 5 -1 0 0 I I #
attrib_hh_coedge_geombuild-attrib_entity_geombuild-individual_entity_attribute-attrib_HH-attrib $-1 $-1 $-1 $90 F #
coedge $195 $91 $90 $196 $197 reversed $92 $-1 #
attrib_hh_coedge_geombuild-attrib_entity_geombuild-individual_entity_attribute-attrib_HH-attrib $-1 $-1 $-1 $91 F #
edge $198 $94 -5 $199 10 $91 $200 reversed 7 unknown #
loop_type-twe-attrib $-1 $-1 $-1 $92 0 #
face $201 $-1 $92 $5 $-1 $202 reversed single #
edge_name-twe-attrib $-1 $-1 $93 $54 24 8704 #
attrib_hh_vertex_geombuild-attrib_entity_geombuild-individual_entity_attribute-attrib_HH-attrib $-1 $-1 $-1 $94 F #
point $-1 30 30 5 #
edge_name-twe-attrib $-1 $-1 $96 $56 1 4608 #
attrib_hh_coedge_geombuild-attrib_entity_geombuild-individual_entity_attribute-attrib_HH-attrib $-1 $-1 $-1 $99 F #
coedge $203 $171 $99 $166 $204 forward $60 $-1 #
attrib_hh_edge_geombuild-attrib_entity_geombuild-individual_entity_attribute-attrib_HH-attrib $-1 $205 $-1 $100 F #
straight-curve $-1 25 -19.99966747978410098 -1.25 -0 0 1 I I #
attrib_hh_coedge_geombuild-attrib_entity_geombuild-individual_entity_attribute-attrib_HH-attrib $-1 $-1 $-1 $102 F #
coedge $206 $102 $171 $207 $208 reversed $60 $-1 #
coedge $209 $210 $196 $102 $157 forward $211 $-1 #
edge $212 $159 -5.303394372787651356 $213 15.91027931740786627 $156 $214 reversed 7 unknown #
attrib_hh_edge_geombuild-attrib_entity_geombuild-individual_entity_attribute-attrib_HH-attrib $-1 $215 $-1 $103 F #
vertex $216 $197 $217 #
straight-curve $-1 30 -14.99966747978409742 -5 0 0 1 I I #
attrib_hh_face_geombuild-attrib_entity_geombuild-individual_entity_attribute-attrib_HH-attrib $-1 $218 $-1 $105 F #
face $219 $220 $211 $5 $-1 $221 reversed single #
plane-surface $222 30.00003401149849935 -14.99963346828559985 -10 0.7071067811865475727 -0.7071067811865475727 0 -0.7071067811865480168 -0.7071067811865480168 0 forward_v I I I I #
face_name-twe-attrib $-1 $-1 $113 $68 6 #
loop_type-twe-attrib $-1 $-1 $-1 $114 0 #
coedge $223 $181 $224 $151 $204 reversed $114 $-1 #
surf-twe-attrib $-1 $-1 $-1 $115 51 #
attrib_hh_coedge_geombuild-attrib_entity_geombuild-individual_entity_attribute-attrib_HH-attrib $-1 $-1 $-1 $117 F #
coedge $225 $226 $117 $224 $227 reversed $69 $-1 #
coedge $228 $117 $226 $229 $230 reversed $69 $-1 #
coedge $231 $155 $151 $117 $172 forward $60 $-1 #
edge $232 $233 -2.651346195452811028 $234 4.419721616412667586 $171 $235 forward 7 unknown #
surf-twe-attrib $-1 $-1 $118 $70 4 #
attrib_hh_coedge_geombuild-attrib_entity_geombuild-individual_entity_attribute-attrib_HH-attrib $-1 $-1 $-1 $120 F #
coedge $236 $192 $237 $120 $176 reversed $238 $-1 #
edge $239 $178 -30 $240 25 $175 $241 forward 7 unknown #
attrib_hh_edge_geombuild-attrib_entity_geombuild-individual_entity_attribute-attrib_HH-attrib $-1 $242 $-1 $121 F #
vertex $243 $121 $244 #
straight-curve $-1 0 30 10 -1 0 0 I I #
attrib_hh_coedge_geombuild-attrib_entity_geombuild-individual_entity_attribute-attrib_HH-attrib $-1 $-1 $-1 $123 F #
coedge $245 $246 $166 $123 $182 reversed $114 $-1 #
edge $247 $240 -27.49989746002198032 $184 22.49977001976212065 $123 $248 forward 7 unknown #
attrib_hh_edge_geombuild-attrib_entity_geombuild-individual_entity_attribute-attrib_HH-attrib $-1 $249 $-1 $124 F #
vertex $250 $204 $251 #
straight-curve $-1 26.2499338756952767 -18.74973360408882428 10 0.7071067811865475727 0.7071067811865475727 -0 I I #
edge_name-twe-attrib $-1 $-1 $125 $76 2 8704 #
attrib_hh_vertex_geombuild-attrib_entity_geombuild-individual_entity_attribute-attrib_HH-attrib $-1 $-1 $-1 $126 F #
point $-1 25 -19.99966747978410453 10 #
attrib_hh_coedge_geombuild-attrib_entity_geombuild-individual_entity_attribute-attrib_HH-attrib $-1 $-1 $-1 $130 F #
coedge $252 $132 $130 $253 $254 reversed $41 $-1 #
attrib_hh_coedge_geombuild-attrib_entity_geombuild-individual_entity_attribute-attrib_HH-attrib $-1 $-1 $-1 $132 F #
coedge $255 $256 $175 $132 $193 forward $238 $-1 #
edge $257 $178 -10 $258 10 $132 $259 reversed 7 unknown #
edge_name-twe-attrib $-1 $-1 $138 $88 6 8704 #
attrib_hh_coedge_geombuild-attrib_entity_geombuild-individual_entity_attribute-attrib_HH-attrib $-1 $-1 $-1 $141 F #
coedge $260 $156 $253 $141 $197 forward $211 $-1 #
edge $261 $199 -30 $159 14.99966747978409742 $141 $262 reversed 7 unknown #
attrib_hh_edge_geombuild-attrib_entity_geombuild-individual_entity_attribute-attrib_HH-attrib $-1 $263 $-1 $143 F #
vertex $264 $197 $265 #
straight-curve $-1 30 30 0 0 0 1 I I #
attrib_hh_face_geombuild-attrib_entity_geombuild-individual_entity_attribute-attrib_HH-attrib $-1 $266 $-1 $145 F #
plane-surface $267 30 0 0 -1 0 0 0 0 1 forward_v I I I I #
attrib_hh_coedge_geombuild-attrib_entity_geombuild-individual_entity_attribute-attrib_HH-attrib $-1 $-1 $-1 $151 F #
edge $268 $184 -11.25 $233 -6.249999999999999112 $151 $269 forward 7 unknown #
edge_name-twe-attrib $-1 $-1 $152 $100 11 8448 #
attrib_hh_coedge_geombuild-attrib_entity_geombuild-individual_entity_attribute-attrib_HH-attrib $-1 $-1 $-1 $155 F #
coedge $270 $229 $271 $155 $208 forward $272 $-1 #
edge $273 $213 -5 $234 10 $207 $274 reversed 7 unknown #
attrib_hh_coedge_geombuild-attrib_entity_geombuild-individual_entity_attribute-attrib_HH-attrib $-1 $-1 $-1 $156 F #
coedge $275 $276 $156 $271 $277 forward $211 $-1 #
loop $278 $-1 $156 $162 #
attrib_hh_edge_geombuild-attrib_entity_geombuild-individual_entity_attribute-attrib_HH-attrib $-1 $279 $-1 $157 F #
vertex $280 $208 $281 #
straight-curve $-1 26.2499338756952767 -18.74973360408882428 -10 0.7071067811865475727 0.7071067811865475727 -0 I I #
edge_name-twe-attrib $-1 $-1 $158 $103 25 8448 #
attrib_hh_vertex_geombuild-attrib_entity_geombuild-individual_entity_attribute-attrib_HH-attrib $-1 $-1 $-1 $159 F #
point $-1 30 -14.99966747978409742 -10 #
face_name-twe-attrib $-1 $-1 $161 $105 7 #
attrib_hh_face_geombuild-attrib_entity_geombuild-individual_entity_attribute-attrib_HH-attrib $-1 $282 $-1 $162 F #
face $283 $284 $272 $5 $-1 $285 reversed single #
plane-surface $286 0 0 -10 0 0 1 1 0 0 forward_v I I I I #
surf-twe-attrib $-1 $-1 $-1 $163 80 #
attrib_hh_coedge_geombuild-attrib_entity_geombuild-individual_entity_attribute-attrib_HH-attrib $-1 $-1 $-1 $166 F #
coedge $287 $166 $246 $169 $227 forward $114 $-1 #
attrib_hh_coedge_geombuild-attrib_entity_geombuild-individual_entity_attribute-attrib_HH-attrib $-1 $-1 $-1 $169 F #
coedge $288 $170 $169 $289 $290 reversed $69 $-1 #
edge $291 $292 -24.99979492004396064 $233 24.99987255974014033 $224 $293 reversed 7 unknown #
attrib_hh_coedge_geombuild-attrib_entity_geombuild-individual_entity_attribute-attrib_HH-attrib $-1 $-1 $-1 $170 F #
coedge $294 $295 $207 $170 $230 forward $272 $-1 #
edge $296 $234 -17.4997700197621171 $297 27.49989746002198032 $229 $298 reversed 7 unknown #
attrib_hh_coedge_geombuild-attrib_entity_geombuild-individual_entity_attribute-attrib_HH-attrib $-1 $-1 $-1 $171 F #
attrib_hh_edge_geombuild-attrib_entity_geombuild-individual_entity_attribute-attrib_HH-attrib $-1 $299 $-1 $172 F #
vertex $300 $172 $301 #
vertex $302 $208 $303 #
straight-curve $-1 18.12488260570626508 -26.87478487407783589 4.999999999999999112 -0.7071067811865475727 -0.7071067811865475727 0 I I #
attrib_hh_coedge_geombuild-attrib_entity_geombuild-individual_entity_attribute-attrib_HH-attrib $-1 $-1 $-1 $175 F #
coedge $304 $175 $289 $246 $305 forward $238 $-1 #
loop $306 $-1 $237 $284 #
attrib_hh_edge_geombuild-attrib_entity_geombuild-individual_entity_attribute-attrib_HH-attrib $-1 $307 $-1 $176 F #
vertex $308 $176 $309 #
straight-curve $-1 -30 0 10 0 -1 0 I I #
edge_name-twe-attrib $-1 $-1 $177 $121 9 8704 #
attrib_hh_vertex_geombuild-attrib_entity_geombuild-individual_entity_attribute-attrib_HH-attrib $-1 $-1 $-1 $178 F #
point $-1 -30 30 10 #
attrib_hh_coedge_geombuild-attrib_entity_geombuild-individual_entity_attribute-attrib_HH-attrib $-1 $-1 $-1 $181 F #
coedge $310 $224 $181 $237 $305 reversed $114 $-1 #
attrib_hh_edge_geombuild-attrib_entity_geombuild-individual_entity_attribute-attrib_HH-attrib $-1 $311 $-1 $182 F #
straight-curve $-1 -2.500102539978020122 -25 10 1 0 -0 I I #
edge_name-twe-attrib $-1 $-1 $183 $124 4 8704 #
attrib_hh_vertex_geombuild-attrib_entity_geombuild-individual_entity_attribute-attrib_HH-attrib $-1 $-1 $-1 $184 F #
point $-1 19.99966747978410098 -25 10 #
attrib_hh_coedge_geombuild-attrib_entity_geombuild-individual_entity_attribute-attrib_HH-attrib $-1 $-1 $-1 $190 F #
coedge $312 $196 $276 $190 $254 forward $211 $-1 #
edge $313 $258 -30 $199 30 $190 $314 reversed 7 unknown #
attrib_hh_coedge_geombuild-attrib_entity_geombuild-individual_entity_attribute-attrib_HH-attrib $-1 $-1 $-1 $192 F #
coedge $315 $316 $192 $276 $317 reversed $238 $-1 #
attrib_hh_edge_geombuild-attrib_entity_geombuild-individual_entity_attribute-attrib_HH-attrib $-1 $318 $-1 $193 F #
vertex $319 $254 $320 #
straight-curve $-1 -30 30 0 -0 0 1 I I #
attrib_hh_coedge_geombuild-attrib_entity_geombuild-individual_entity_attribute-attrib_HH-attrib $-1 $-1 $-1 $196 F #
attrib_hh_edge_geombuild-attrib_entity_geombuild-individual_entity_attribute-attrib_HH-attrib $-1 $321 $-1 $197 F #
straight-curve $-1 30 0 -10 0 1 -0 I I #
edge_name-twe-attrib $-1 $-1 $198 $143 27 8704 #
attrib_hh_vertex_geombuild-attrib_entity_geombuild-individual_entity_attribute-attrib_HH-attrib $-1 $-1 $-1 $199 F #
point $-1 30 30 -10 #
face_name-twe-attrib $-1 $-1 $201 $145 11 #
surf-twe-attrib $-1 $-1 $-1 $202 107 #
attrib_hh_edge_geombuild-attrib_entity_geombuild-individual_entity_attribute-attrib_HH-attrib $-1 $322 $-1 $204 F #
straight-curve $-1 19.99966747978410098 -25 -1.25 0 0 -1 I I #
attrib_hh_coedge_geombuild-attrib_entity_geombuild-individual_entity_attribute-attrib_HH-attrib $-1 $-1 $-1 $207 F #
coedge $323 $207 $295 $210 $277 reversed $272 $-1 #
loop $324 $-1 $229 $220 #
attrib_hh_edge_geombuild-attrib_entity_geombuild-individual_entity_attribute-attrib_HH-attrib $-1 $325 $-1 $208 F #
straight-curve $-1 14.9996674797840992 -30 -5 0 0 -1 I I #
attrib_hh_coedge_geombuild-attrib_entity_geombuild-individual_entity_attribute-attrib_HH-attrib $-1 $-1 $-1 $210 F #
coedge $326 $253 $210 $256 $317 forward $211 $-1 #
edge $327 $213 -14.9996674797840992 $328 30 $271 $329 reversed 7 unknown #
loop_type-twe-attrib $-1 $-1 $-1 $211 0 #
edge_name-twe-attrib $-1 $-1 $212 $157 15 8704 #
attrib_hh_vertex_geombuild-attrib_entity_geombuild-individual_entity_attribute-attrib_HH-attrib $-1 $-1 $-1 $213 F #
point $-1 14.9996674797840992 -30 -10 #
face_name-twe-attrib $-1 $-1 $219 $162 8 #
attrib_hh_face_geombuild-attrib_entity_geombuild-individual_entity_attribute-attrib_HH-attrib $-1 $330 $-1 $220 F #
face $331 $145 $238 $5 $-1 $332 reversed single #
plane-surface $333 0 -30 0 0 1 0 0 0 1 forward_v I I I I #
surf-twe-attrib $-1 $-1 $-1 $221 121 #
attrib_hh_coedge_geombuild-attrib_entity_geombuild-individual_entity_attribute-attrib_HH-attrib $-1 $-1 $-1 $224 F #
attrib_hh_coedge_geombuild-attrib_entity_geombuild-individual_entity_attribute-attrib_HH-attrib $-1 $-1 $-1 $226 F #
coedge $334 $237 $316 $226 $290 forward $238 $-1 #
edge $335 $297 -16.25 $292 -11.25 $289 $336 reversed 7 unknown #
attrib_hh_edge_geombuild-attrib_entity_geombuild-individual_entity_attribute-attrib_HH-attrib $-1 $337 $-1 $227 F #
vertex $338 $290 $339 #
straight-curve $-1 -5.000205079956040244 -25 5 -1 0 0 I I #
attrib_hh_coedge_geombuild-attrib_entity_geombuild-individual_entity_attribute-attrib_HH-attrib $-1 $-1 $-1 $229 F #
coedge $340 $271 $229 $316 $341 forward $272 $-1 #
attrib_hh_edge_geombuild-attrib_entity_geombuild-individual_entity_attribute-attrib_HH-attrib $-1 $342 $-1 $230 F #
vertex $343 $230 $344 #
straight-curve $-1 -2.500102539978020122 -30 5 1 0 0 I I #
edge_name-twe-attrib $-1 $-1 $232 $172 13 8704 #
attrib_hh_vertex_geombuild-attrib_entity_geombuild-individual_entity_attribute-attrib_HH-attrib $-1 $-1 $-1 $233 F #
point $-1 19.99966747978410098 -25 4.999999999999999112 #
attrib_hh_vertex_geombuild-attrib_entity_geombuild-individual_entity_attribute-attrib_HH-attrib $-1 $-1 $-1 $234 F #
point $-1 14.99966747978409742 -30 5 #
attrib_hh_coedge_geombuild-attrib_entity_geombuild-individual_entity_attribute-attrib_HH-attrib $-1 $-1 $-1 $237 F #
edge $345 $292 1.25 $240 6.25 $237 $346 reversed 7 unknown #
loop_type-twe-attrib $-1 $-1 $-1 $238 0 #
edge_name-twe-attrib $-1 $-1 $239 $176 20 8704 #
attrib_hh_vertex_geombuild-attrib_entity_geombuild-individual_entity_attribute-attrib_HH-attrib $-1 $-1 $-1 $240 F #
point $-1 -30 -25 10 #
attrib_hh_coedge_geombuild-attrib_entity_geombuild-individual_entity_attribute-attrib_HH-attrib $-1 $-1 $-1 $246 F #
edge_name-twe-attrib $-1 $-1 $247 $182 3 8704 #
attrib_hh_coedge_geombuild-attrib_entity_geombuild-individual_entity_attribute-attrib_HH-attrib $-1 $-1 $-1 $253 F #
attrib_hh_edge_geombuild-attrib_entity_geombuild-individual_entity_attribute-attrib_HH-attrib $-1 $347 $-1 $254 F #
straight-curve $-1 0 30 -10 -1 0 0 I I #
attrib_hh_coedge_geombuild-attrib_entity_geombuild-individual_entity_attribute-attrib_HH-attrib $-1 $-1 $-1 $256 F #
coedge $348 $289 $256 $295 $341 reversed $238 $-1 #
edge $349 $328 -30 $258 30 $256 $350 reversed 7 unknown #
edge_name-twe-attrib $-1 $-1 $257 $193 8 8704 #
attrib_hh_vertex_geombuild-attrib_entity_geombuild-individual_entity_attribute-attrib_HH-attrib $-1 $-1 $-1 $258 F #
point $-1 -30 30 -10 #
edge_name-twe-attrib $-1 $-1 $261 $197 26 8704 #
edge_name-twe-attrib $-1 $-1 $268 $204 12 8448 #
attrib_hh_coedge_geombuild-attrib_entity_geombuild-individual_entity_attribute-attrib_HH-attrib $-1 $-1 $-1 $271 F #
loop_type-twe-attrib $-1 $-1 $-1 $272 0 #
edge_name-twe-attrib $-1 $-1 $273 $208 18 8448 #
attrib_hh_coedge_geombuild-attrib_entity_geombuild-individual_entity_attribute-attrib_HH-attrib $-1 $-1 $-1 $276 F #
attrib_hh_edge_geombuild-attrib_entity_geombuild-individual_entity_attribute-attrib_HH-attrib $-1 $351 $-1 $277 F #
vertex $352 $317 $353 #
straight-curve $-1 0 -30 -10 1 0 0 I I #
face_name-twe-attrib $-1 $-1 $283 $220 9 #
attrib_hh_face_geombuild-attrib_entity_geombuild-individual_entity_attribute-attrib_HH-attrib $-1 $354 $-1 $284 F #
plane-surface $355 -30 0 0 1 0 0 0 0 -1 forward_v I I I I #
surf-twe-attrib $-1 $-1 $-1 $285 167 #
attrib_hh_coedge_geombuild-attrib_entity_geombuild-individual_entity_attribute-attrib_HH-attrib $-1 $-1 $-1 $289 F #
attrib_hh_edge_geombuild-attrib_entity_geombuild-individual_entity_attribute-attrib_HH-attrib $-1 $356 $-1 $290 F #
straight-curve $-1 -30 -13.75 5 0 -1 0 I I #
edge_name-twe-attrib $-1 $-1 $291 $227 10 4608 #
attrib_hh_vertex_geombuild-attrib_entity_geombuild-individual_entity_attribute-attrib_HH-attrib $-1 $-1 $-1 $292 F #
point $-1 -30 -25 5 #
attrib_hh_coedge_geombuild-attrib_entity_geombuild-individual_entity_attribute-attrib_HH-attrib $-1 $-1 $-1 $295 F #
edge $357 $297 -5 $328 10 $316 $358 reversed 7 unknown #
edge_name-twe-attrib $-1 $-1 $296 $230 16 8704 #
attrib_hh_vertex_geombuild-attrib_entity_geombuild-individual_entity_attribute-attrib_HH-attrib $-1 $-1 $-1 $297 F #
point $-1 -30 -30 5 #
attrib_hh_edge_geombuild-attrib_entity_geombuild-individual_entity_attribute-attrib_HH-attrib $-1 $359 $-1 $305 F #
straight-curve $-1 -30 -25 3.75 0 0 -1 I I #
edge_name-twe-attrib $-1 $-1 $313 $254 7 8704 #
attrib_hh_coedge_geombuild-attrib_entity_geombuild-individual_entity_attribute-attrib_HH-attrib $-1 $-1 $-1 $316 F #
attrib_hh_edge_geombuild-attrib_entity_geombuild-individual_entity_attribute-attrib_HH-attrib $-1 $360 $-1 $317 F #
straight-curve $-1 -30 0 -10 0 -1 0 I I #
edge_name-twe-attrib $-1 $-1 $327 $277 17 8704 #
attrib_hh_vertex_geombuild-attrib_entity_geombuild-individual_entity_attribute-attrib_HH-attrib $-1 $-1 $-1 $328 F #
point $-1 -30 -30 -10 #
face_name-twe-attrib $-1 $-1 $331 $284 10 #
surf-twe-attrib $-1 $-1 $-1 $332 214 #
edge_name-twe-attrib $-1 $-1 $335 $290 23 8704 #
attrib_hh_edge_geombuild-attrib_entity_geombuild-individual_entity_attribute-attrib_HH-attrib $-1 $361 $-1 $341 F #
straight-curve $-1 -30 -30 0 0 0 1 I I #
edge_name-twe-attrib $-1 $-1 $345 $305 19 8704 #
edge_name-twe-attrib $-1 $-1 $349 $317 21 8704 #
edge_name-twe-attrib $-1 $-1 $357 $341 22 8704 #
End-of-ACIS-data 