104 272 0 0                             
body $-1 $1 $-1 $2 #
lump $-1 $-1 $3 $0 #
transform $-1 1 0 0 0 1 0 0 0 1 0 0 0 1 0 0 0 #
shell $-1 $-1 $-1 $4 $1 #
face $5 $6 $7 $3 $-1 $8 0 #
face_name-twe-attrib $-1 $-1 $-1 $4 1 #
face $9 $10 $11 $3 $-1 $12 0 #
loop $13 $-1 $14 $4 #
plane-surface $15 27.5 5.00020500000002 5 0 0 1 1 0 0 0 #
face_name-twe-attrib $-1 $-1 $-1 $6 2 #
face $16 $17 $18 $3 $-1 $19 0 #
loop $20 $-1 $21 $6 #
plane-surface $22 25 5.00020500000002 7.5 1 0 0 0 0 -1 0 #
loop_type-twe-attrib $-1 $-1 $-1 $7 0 #
coedge $-1 $23 $24 $25 $26 1 $7 $-1 #
surf-twe-attrib $-1 $27 $-1 $8 28 #
face_name-twe-attrib $-1 $-1 $-1 $10 3 #
face $29 $28 $30 $3 $-1 $31 1 #
loop $32 $-1 $33 $10 #
plane-surface $34 0 0 10 0 0 1 1 0 0 0 #
loop_type-twe-attrib $-1 $-1 $-1 $11 0 #
coedge $-1 $35 $36 $37 $38 1 $11 $-1 #
surf-twe-attrib $-1 $-1 $-1 $12 6 #
coedge $-1 $39 $14 $40 $41 1 $7 $-1 #
coedge $-1 $14 $39 $36 $42 1 $7 $-1 #
coedge $-1 $43 $44 $14 $26 0 $45 $-1 #
edge $46 $47 $48 $25 $49 0 #
surf-twe-attrib $-1 $-1 $15 $8 4 #
face $50 $51 $52 $3 $-1 $53 0 #
face_name-twe-attrib $-1 $-1 $-1 $17 4 #
loop $54 $-1 $37 $17 #
plane-surface $55 0 30 0 0 -1 0 0 0 -1 0 #
loop_type-twe-attrib $-1 $-1 $-1 $18 0 #
coedge $-1 $56 $57 $35 $58 0 $18 $-1 #
surf-twe-attrib $-1 $-1 $-1 $19 10 #
coedge $-1 $59 $21 $33 $58 1 $11 $-1 #
coedge $-1 $21 $59 $24 $42 0 $11 $-1 #
coedge $-1 $60 $61 $21 $38 0 $30 $-1 #
edge $62 $63 $64 $37 $65 0 #
coedge $-1 $24 $23 $60 $66 1 $7 $-1 #
coedge $-1 $67 $68 $23 $41 0 $69 $-1 #
edge $70 $71 $47 $40 $72 0 #
edge $73 $48 $64 $36 $74 0 #
coedge $-1 $75 $25 $59 $76 0 $45 $-1 #
coedge $-1 $25 $77 $67 $78 1 $45 $-1 #
loop $79 $-1 $43 $80 #
edge_name-twe-attrib $-1 $-1 $-1 $26 14 8704 #
vertex $-1 $41 $81 #
vertex $-1 $26 $82 #
straight-curve $83 34.3749851256952 -10.6246823540888 5.00000000000001 -0.707106781186548 -0.707106781186548 0 #
face_name-twe-attrib $-1 $-1 $-1 $28 5 #
face $84 $80 $85 $3 $-1 $86 0 #
loop $87 $-1 $88 $28 #
plane-surface $89 -5.00020507995604 -27.5 5 0 0 1 0 -1 0 0 #
loop_type-twe-attrib $-1 $-1 $-1 $30 0 #
surf-twe-attrib $-1 $-1 $-1 $31 17 #
coedge $-1 $90 $33 $61 $91 0 $18 $-1 #
coedge $-1 $33 $92 $75 $93 0 $18 $-1 #
edge $94 $95 $63 $33 $96 0 #
coedge $-1 $36 $35 $43 $76 1 $11 $-1 #
coedge $-1 $97 $37 $39 $66 0 $30 $-1 #
coedge $-1 $37 $98 $56 $91 1 $30 $-1 #
edge_name-twe-attrib $-1 $-1 $-1 $38 5 8704 #
vertex $-1 $38 $99 #
vertex $-1 $66 $100 #
straight-curve $101 25 30 3.75 0 0 -1 #
edge $102 $64 $71 $60 $103 0 #
coedge $-1 $104 $40 $44 $78 0 $69 $-1 #
coedge $-1 $40 $104 $97 $105 1 $69 $-1 #
loop $106 $-1 $40 $107 #
edge_name-twe-attrib $-1 $-1 $-1 $41 24 8704 #
vertex $-1 $66 $108 #
straight-curve $109 30 2.50010250000001 5.00000000000001 0 -1 0 #
edge_name-twe-attrib $-1 $-1 $-1 $42 1 4608 #
straight-curve $110 25 5.00020500000002 5 0 1 0 #
coedge $-1 $111 $43 $57 $93 1 $45 $-1 #
edge $112 $48 $95 $43 $113 0 #
coedge $-1 $44 $114 $115 $116 1 $45 $-1 #
edge $117 $47 $118 $67 $119 0 #
loop_type-twe-attrib $-1 $-1 $-1 $45 0 #
face $120 $121 $45 $3 $-1 $122 0 #
point $-1 30 -14.999667479784 5 #
point $-1 25 -19.99959 5 #
cur-twe-attrib $-1 $123 $-1 $49 26 #
face_name-twe-attrib $-1 $-1 $-1 $51 6 #
loop $124 $-1 $125 $51 #
plane-surface $126 -5.00020507995604 -25 7.5 0 -1 0 0 0 -1 0 #
loop_type-twe-attrib $-1 $-1 $-1 $52 0 #
coedge $-1 $127 $128 $129 $130 1 $52 $-1 #
surf-twe-attrib $-1 $131 $-1 $53 28 #
coedge $-1 $92 $56 $132 $133 0 $18 $-1 #
edge $134 $63 $135 $61 $136 0 #
coedge $-1 $57 $90 $137 $138 0 $18 $-1 #
edge $139 $140 $95 $57 $141 0 #
edge_name-twe-attrib $-1 $-1 $-1 $58 2 8704 #
vertex $-1 $93 $142 #
straight-curve $143 25 2.50010250000001 10 0 1 0 #
coedge $-1 $144 $60 $68 $105 0 $30 $-1 #
coedge $-1 $61 $144 $145 $146 1 $30 $-1 #
point $-1 25 30 10 #
point $-1 25 30 5 #
cur-twe-attrib $-1 $-1 $-1 $65 38 #
edge_name-twe-attrib $-1 $-1 $-1 $66 6 8704 #
straight-curve $147 13.75 30 5.00000000000001 1 0 0 #
coedge $-1 $68 $67 $148 $149 1 $69 $-1 #
edge $150 $71 $151 $68 $152 0 #
loop_type-twe-attrib $-1 $-1 $-1 $69 0 #
face $153 $-1 $69 $3 $-1 $154 1 #
point $-1 30 30 5 #
cur-twe-attrib $-1 $-1 $-1 $72 41 #
cur-twe-attrib $-1 $-1 $-1 $74 42 #
coedge $-1 $129 $75 $125 $155 0 $45 $-1 #
edge_name-twe-attrib $-1 $-1 $-1 $76 11 8448 #
straight-curve $156 25.000077479784 -19.99959 -1.25 0 0 1 #
coedge $-1 $77 $129 $157 $158 1 $45 $-1 #
coedge $-1 $159 $148 $77 $116 0 $160 $-1 #
edge $161 $118 $162 $115 $163 0 #
edge_name-twe-attrib $-1 $-1 $-1 $78 25 8448 #
vertex $-1 $149 $164 #
straight-curve $165 30 -14.9995994567871 -5 0 0 -1 #
face_name-twe-attrib $-1 $-1 $-1 $80 7 #
face $166 $167 $160 $3 $-1 $168 1 #
plane-surface $169 30.0000340114985 -14.9996334682856 -10 0.707106781186548 -0.707106781186548 0 -0.707106781186548 -0.707106781186548 0 0 #
cur-twe-attrib $-1 $-1 $83 $49 130 #
loop_type-twe-attrib $-1 $-1 $-1 $85 0 #
coedge $-1 $137 $170 $111 $155 1 $85 $-1 #
surf-twe-attrib $-1 $-1 $-1 $86 51 #
coedge $-1 $171 $88 $170 $172 1 $52 $-1 #
coedge $-1 $88 $171 $173 $174 1 $52 $-1 #
coedge $-1 $114 $111 $88 $130 0 $45 $-1 #
edge $175 $176 $177 $129 $178 0 #
surf-twe-attrib $-1 $-1 $89 $53 4 #
coedge $-1 $145 $179 $90 $133 1 $180 $-1 #
edge $181 $135 $182 $132 $183 0 #
edge_name-twe-attrib $-1 $-1 $-1 $91 9 8704 #
vertex $-1 $91 $184 #
straight-curve $185 0 30 10 -1 0 0 #
coedge $-1 $186 $125 $92 $138 1 $85 $-1 #
edge $187 $182 $140 $92 $188 0 #
edge_name-twe-attrib $-1 $-1 $-1 $93 4 8704 #
vertex $-1 $155 $189 #
straight-curve $190 26.2499338756952 -18.7497336040888 10 0.707106781186548 0.707106781186548 0 #
point $-1 25 -19.99959 10 #
cur-twe-attrib $-1 $-1 $-1 $96 58 #
coedge $-1 $98 $97 $191 $192 1 $30 $-1 #
coedge $-1 $193 $132 $98 $146 0 $180 $-1 #
edge $194 $135 $195 $98 $196 0 #
cur-twe-attrib $-1 $-1 $-1 $103 66 #
coedge $-1 $115 $191 $104 $149 0 $160 $-1 #
edge $197 $151 $118 $104 $198 0 #
edge_name-twe-attrib $-1 $-1 $-1 $105 27 8704 #
vertex $-1 $149 $199 #
straight-curve $200 30 30 0 0 0 -1 #
face_name-twe-attrib $-1 $-1 $-1 $107 11 #
plane-surface $201 30 0 0 -1 0 0 0 0 1 0 #
edge $202 $140 $176 $111 $203 0 #
cur-twe-attrib $-1 $-1 $-1 $113 76 #
coedge $-1 $173 $204 $114 $158 0 $205 $-1 #
edge $206 $162 $177 $157 $207 0 #
coedge $-1 $208 $115 $204 $209 0 $160 $-1 #
loop $210 $-1 $115 $121 #
edge_name-twe-attrib $-1 $-1 $-1 $116 15 8704 #
vertex $-1 $158 $211 #
straight-curve $212 26.2499338756952 -18.7497336040888 -10 -0.707106781186548 -0.707106781186548 0 #
point $-1 30.0000340114985 -14.9996334682856 -10 #
cur-twe-attrib $-1 $-1 $-1 $119 78 #
face_name-twe-attrib $-1 $-1 $-1 $121 8 #
face $213 $214 $205 $3 $-1 $215 1 #
plane-surface $216 0 0 -10 0 0 1 1 0 0 0 #
surf-twe-attrib $-1 $-1 $-1 $122 80 #
coedge $-1 $125 $186 $127 $172 0 $85 $-1 #
coedge $-1 $128 $127 $217 $218 1 $52 $-1 #
edge $219 $220 $176 $170 $221 0 #
coedge $-1 $222 $157 $128 $174 0 $205 $-1 #
edge $223 $177 $224 $173 $225 0 #
edge_name-twe-attrib $-1 $-1 $-1 $130 13 8704 #
vertex $-1 $130 $226 #
vertex $-1 $158 $227 #
straight-curve $228 18.1248826057062 -26.8747848740778 5.00000000000001 -0.707106781186548 -0.707106781186548 0 #
coedge $-1 $132 $217 $186 $229 0 $180 $-1 #
loop $230 $-1 $179 $214 #
edge_name-twe-attrib $-1 $-1 $-1 $133 20 8704 #
vertex $-1 $133 $231 #
straight-curve $232 -30 0 10 0 -1 0 #
point $-1 -30 30 10 #
cur-twe-attrib $-1 $-1 $-1 $136 91 #
coedge $-1 $170 $137 $179 $229 1 $85 $-1 #
edge_name-twe-attrib $-1 $-1 $-1 $138 3 8704 #
straight-curve $233 -2.50010253997802 -25 10 1 0 0 #
point $-1 19.999589920044 -25 10 #
cur-twe-attrib $-1 $-1 $-1 $141 93 #
coedge $-1 $148 $208 $144 $192 0 $160 $-1 #
edge $234 $195 $151 $144 $235 0 #
coedge $-1 $236 $145 $208 $237 1 $180 $-1 #
edge_name-twe-attrib $-1 $-1 $-1 $146 8 8704 #
vertex $-1 $192 $238 #
straight-curve $239 -30 30 0 0 0 -1 #
edge_name-twe-attrib $-1 $-1 $-1 $149 26 8704 #
straight-curve $240 30 0 -10 0 -1 0 #
point $-1 30 30 -10 #
cur-twe-attrib $-1 $-1 $-1 $152 105 #
surf-twe-attrib $-1 $-1 $-1 $154 107 #
edge_name-twe-attrib $-1 $-1 $-1 $155 12 8448 #
straight-curve $241 19.999667479784 -25 -1.25 0 0 -1 #
coedge $-1 $157 $222 $159 $209 1 $205 $-1 #
loop $242 $-1 $173 $167 #
edge_name-twe-attrib $-1 $-1 $-1 $158 18 8448 #
straight-curve $243 14.9995994567871 -30 5 0 0 1 #
coedge $-1 $191 $159 $193 $237 0 $160 $-1 #
edge $244 $162 $245 $204 $246 0 #
loop_type-twe-attrib $-1 $-1 $-1 $160 0 #
point $-1 14.9996334682856 -30.0000340114985 -10 #
cur-twe-attrib $-1 $-1 $-1 $163 116 #
face_name-twe-attrib $-1 $-1 $-1 $167 9 #
face $247 $107 $180 $3 $-1 $248 1 #
plane-surface $249 0 -30 0 0 1 0 0 0 1 0 #
surf-twe-attrib $-1 $-1 $-1 $168 121 #
coedge $-1 $179 $236 $171 $218 0 $180 $-1 #
edge $250 $224 $220 $217 $251 0 #
edge_name-twe-attrib $-1 $-1 $-1 $172 10 4608 #
vertex $-1 $218 $252 #
straight-curve $253 -5.00020507995604 -25 5 1 0 0 #
coedge $-1 $204 $173 $236 $254 0 $205 $-1 #
edge_name-twe-attrib $-1 $-1 $-1 $174 16 8704 #
vertex $-1 $174 $255 #
straight-curve $256 -2.50010253997802 -30 5.00000000000001 -1 0 0 #
point $-1 19.999589920044 -25 5 #
point $-1 14.999667479784 -30 5 #
cur-twe-attrib $-1 $257 $-1 $178 26 #
edge $258 $220 $182 $179 $259 0 #
loop_type-twe-attrib $-1 $-1 $-1 $180 0 #
point $-1 -30.000000079956 -25 10 #
cur-twe-attrib $-1 $-1 $-1 $183 133 #
cur-twe-attrib $-1 $-1 $-1 $188 138 #
edge_name-twe-attrib $-1 $-1 $-1 $192 7 8704 #
straight-curve $260 0 30 -10 1 0 0 #
coedge $-1 $217 $193 $222 $254 1 $180 $-1 #
edge $261 $245 $195 $193 $262 0 #
point $-1 -30 30 -10 #
cur-twe-attrib $-1 $-1 $-1 $196 146 #
cur-twe-attrib $-1 $-1 $-1 $198 149 #
cur-twe-attrib $-1 $-1 $-1 $203 155 #
loop_type-twe-attrib $-1 $-1 $-1 $205 0 #
cur-twe-attrib $-1 $-1 $-1 $207 158 #
edge_name-twe-attrib $-1 $-1 $-1 $209 17 8704 #
vertex $-1 $237 $263 #
straight-curve $264 0 -30 -10 -1 0 0 #
face_name-twe-attrib $-1 $-1 $-1 $214 10 #
plane-surface $265 -30 0 0 1 0 0 0 0 -1 0 #
surf-twe-attrib $-1 $-1 $-1 $215 167 #
edge_name-twe-attrib $-1 $-1 $-1 $218 23 8704 #
straight-curve $266 -30 -13.75 5.00000000000001 0 1 0 #
point $-1 -30.000000079956 -25 5 #
cur-twe-attrib $-1 $-1 $-1 $221 172 #
edge $267 $224 $245 $236 $268 0 #
point $-1 -30.000000079956 -30 5 #
cur-twe-attrib $-1 $-1 $-1 $225 174 #
cur-twe-attrib $-1 $-1 $228 $178 130 #
edge_name-twe-attrib $-1 $-1 $-1 $229 19 8704 #
straight-curve $269 -30 -25 3.75 0 0 1 #
cur-twe-attrib $-1 $-1 $-1 $235 192 #
edge_name-twe-attrib $-1 $-1 $-1 $237 21 8704 #
straight-curve $270 -30 0 -10 0 1 0 #
point $-1 -30 -30 -10 #
cur-twe-attrib $-1 $-1 $-1 $246 209 #
surf-twe-attrib $-1 $-1 $-1 $248 214 #
cur-twe-attrib $-1 $-1 $-1 $251 218 #
edge_name-twe-attrib $-1 $-1 $-1 $254 22 8704 #
straight-curve $271 -30 -30 0 0 0 -1 #
cur-twe-attrib $-1 $-1 $-1 $259 229 #
cur-twe-attrib $-1 $-1 $-1 $262 237 #
cur-twe-attrib $-1 $-1 $-1 $268 254 #
