700 0 2 0           
24 FBMach with ACIS - 7.0.3 13 ACIS 7.0.3 NT 24 Tue May 14 09:58:21 2002 
1 9.9999999999999995e-007 1e-010 
body $2 -1 $-1 $3 $-1 $4 #
bdycol-kcp $-1 -1 1 4 $5 $6 $7 $8 #
model_id-kcp-attrib $-1 -1 $9 $-1 $0 1 1021384700 1021384700 -1830682623 1 #
lump $-1 -1 $-1 $-1 $10 $0 #
transform $-1 -1 1.0000000000000002 0 0 0 1.0000000000000002 0 0 0 1 -3.5527136788005009e-015 3.5527136788005009e-015 0 1 rotate no_reflect no_shear #
body $11 -1 $-1 $12 $-1 $13 #
body $14 -1 $-1 $15 $-1 $16 #
body $17 -1 $-1 $18 $-1 $19 #
body $20 -1 $-1 $21 $-1 $22 #
aggregate_advspl_attribute-aggregate_geombuild_base_attribute-aggregate_body_attribute-attrib_HH-attrib $-1 -1 $23 $2 $0 F #
shell $-1 -1 $-1 $-1 $-1 $24 $-1 $3 #
model_id-kcp-attrib $-1 -1 $-1 $-1 $5 1 1021384700 1021384700 -1830682622 1 #
lump $-1 -1 $-1 $-1 $25 $5 #
transform $-1 -1 1 0 0 0 1 0 0 0 1 1.7763568394002505e-015 -1.7763568394002505e-015 0 1 no_rotate no_reflect no_shear #
rgb_color-st-attrib $-1 -1 $26 $-1 $6 1 0.5 1 #
lump $-1 -1 $-1 $-1 $27 $6 #
transform $-1 -1 1 0 0 0 1 0 0 0 1 1.7763568394002505e-015 -1.7763568394002505e-015 0 1 no_rotate no_reflect no_shear #
rgb_color-st-attrib $-1 -1 $28 $-1 $7 0.5 1 1 #
lump $-1 -1 $-1 $-1 $29 $7 #
transform $-1 -1 1 0 0 0 1 0 0 0 1 1.7763568394002505e-015 -1.7763568394002505e-015 0 1 no_rotate no_reflect no_shear #
rgb_color-st-attrib $-1 -1 $30 $-1 $8 1 0.5 1 #
lump $-1 -1 $-1 $-1 $31 $8 #
transform $-1 -1 1 0 0 0 1 0 0 0 1 1.7763568394002505e-015 -1.7763568394002505e-015 0 1 no_rotate no_reflect no_shear #
aggregate_secndry_attribute-aggregate_geombuild_base_attribute-aggregate_body_attribute-attrib_HH-attrib $-1 -1 $32 $9 $0 F #
face $33 -1 $-1 $34 $35 $10 $-1 $36 forward single #
shell $-1 -1 $-1 $-1 $-1 $37 $-1 $12 #
model_id-kcp-attrib $-1 -1 $-1 $14 $6 1 1021384700 1021384701 -1843658748 1 #
shell $-1 -1 $-1 $-1 $-1 $38 $-1 $15 #
model_id-kcp-attrib $-1 -1 $-1 $17 $7 1 1021384700 1021384701 -1838678013 1 #
shell $-1 -1 $-1 $-1 $-1 $39 $-1 $18 #
model_id-kcp-attrib $-1 -1 $-1 $20 $8 1 1021384700 1021384701 -1838415867 1 #
shell $-1 -1 $-1 $-1 $-1 $40 $-1 $21 #
aggregate_sharped_attribute-aggregate_geombuild_base_attribute-aggregate_body_attribute-attrib_HH-attrib $-1 -1 $41 $23 $0 F #
model_id-kcp-attrib $-1 -1 $42 $-1 $24 1 1021384700 1021384700 -1830682623 2 #
face $43 -1 $-1 $44 $45 $10 $-1 $46 forward single #
loop $47 -1 $-1 $-1 $48 $24 #
plane-surface $49 -1 $-1 27.5 5.0002050000000198 5 0 0 1 1 0 0 forward_v I I I I #
face $50 -1 $-1 $51 $52 $25 $-1 $53 forward single #
face $-1 -1 $-1 $54 $55 $27 $-1 $56 forward single #
face $-1 -1 $-1 $57 $58 $29 $-1 $59 reversed single #
face $-1 -1 $-1 $60 $61 $31 $-1 $62 forward single #
aggregate_reblend_attribute-aggregate_geombuild_base_attribute-aggregate_body_attribute-attrib_HH-attrib $-1 -1 $63 $32 $0 F #
attrib_hh_face_geombuild-attrib_entity_geombuild-individual_entity_attribute-attrib_HH-attrib $-1 -1 $64 $33 $24 F #
model_id-kcp-attrib $-1 -1 $65 $-1 $34 1 1021384700 1021384700 -1830682623 3 #
face $66 -1 $-1 $67 $68 $10 $-1 $69 forward single #
loop $70 -1 $-1 $-1 $71 $34 #
plane-surface $72 -1 $-1 25 5.0002050000000198 7.5 1 0 0 0 0 -1 forward_v I I I I #
loop_type-twe-attrib $-1 -1 $-1 $-1 $35 0 #
coedge $73 -1 $-1 $74 $75 $76 $77 reversed $35 $-1 #
surf-twe-attrib $-1 -1 $78 $-1 $36 28 #
model_id-kcp-attrib $-1 -1 $-1 $-1 $37 1 1021384700 1021384700 -1830682622 2 #
face $79 -1 $-1 $80 $81 $25 $-1 $82 reversed single #
loop $-1 -1 $-1 $-1 $83 $37 #
plane-surface $-1 -1 $-1 0 0 10 0 0 1 1 0 0 forward_v I I I I #
face $-1 -1 $-1 $84 $85 $27 $-1 $86 forward single #
loop $-1 -1 $-1 $-1 $87 $38 #
plane-surface $-1 -1 $-1 30 -14.999667479784096 10 0.70710678118654757 -0.70710678118654746 0 0 0 -1 forward_v I I I I #
face $-1 -1 $-1 $88 $89 $29 $-1 $90 forward single #
loop $-1 -1 $-1 $-1 $91 $39 #
plane-surface $-1 -1 $-1 30 -14.999667479784096 10 0.70710678118654757 -0.70710678118654746 0 0 0 -1 forward_v I I I I #
face $-1 -1 $-1 $92 $93 $31 $-1 $94 reversed single #
loop $-1 -1 $-1 $-1 $95 $40 #
plane-surface $-1 -1 $-1 30 -14.999667479784096 10 0.70710678118654757 -0.70710678118654746 0 0 0 -1 forward_v I I I I #
aggregate_isospline_attribute-aggregate_geombuild_base_attribute-aggregate_body_attribute-attrib_HH-attrib $-1 -1 $96 $41 $0 F #
face_name-twe-attrib $-1 -1 $-1 $42 $24 1 #
attrib_hh_face_geombuild-attrib_entity_geombuild-individual_entity_attribute-attrib_HH-attrib $-1 -1 $97 $43 $34 F #
model_id-kcp-attrib $-1 -1 $98 $-1 $44 1 1021384700 1021384700 -1830682623 4 #
face $99 -1 $-1 $100 $101 $10 $-1 $102 reversed single #
loop $103 -1 $-1 $-1 $104 $44 #
plane-surface $105 -1 $-1 0 0 10 0 0 1 1 0 0 forward_v I I I I #
loop_type-twe-attrib $-1 -1 $-1 $-1 $45 0 #
coedge $106 -1 $-1 $107 $108 $109 $110 reversed $45 $-1 #
surf-twe-attrib $-1 -1 $-1 $-1 $46 6 #
attrib_hh_coedge_geombuild-attrib_entity_geombuild-individual_entity_attribute-attrib_HH-attrib $-1 -1 $-1 $-1 $48 F #
coedge $111 -1 $-1 $112 $48 $113 $114 reversed $35 $-1 #
coedge $115 -1 $-1 $48 $112 $108 $116 reversed $35 $-1 #
coedge $117 -1 $-1 $118 $119 $48 $77 forward $120 $-1 #
edge $121 -1 $-1 $122 6.1871632999388249 $123 13.258231111804303 $76 $124 forward @7 unknown #
surf-twe-attrib $-1 -1 $-1 $49 $36 4 #
model_id-kcp-attrib $-1 -1 $-1 $-1 $51 1 1021384700 1021384700 -1830682622 4 #
face $125 -1 $-1 $126 $127 $25 $-1 $128 reversed single #
loop $-1 -1 $-1 $-1 $129 $51 #
plane-surface $-1 -1 $-1 0 0 -10 0 0 1 1 0 0 forward_v I I I I #
coedge $-1 -1 $-1 $130 $131 $132 $133 forward $52 $-1 #
face $-1 -1 $-1 $134 $135 $27 $-1 $136 forward single #
loop $-1 -1 $-1 $-1 $137 $54 #
plane-surface $-1 -1 $-1 30 5.0001662601079513 7.5 1 0 0 0 0 -1 forward_v I I I I #
coedge $-1 -1 $-1 $138 $139 $140 $141 forward $55 $-1 #
face $-1 -1 $-1 $142 $143 $29 $-1 $144 reversed single #
loop $-1 -1 $-1 $-1 $145 $57 #
plane-surface $-1 -1 $-1 0 0 10 0 0 1 1 0 0 forward_v I I I I #
coedge $-1 -1 $-1 $146 $147 $145 $148 reversed $58 $-1 #
face $-1 -1 $-1 $149 $150 $31 $-1 $151 forward single #
loop $-1 -1 $-1 $-1 $152 $60 #
plane-surface $-1 -1 $-1 -5.0001662601079522 -30.000000000000004 7.5 0 1 0 0 0 1 forward_v I I I I #
coedge $-1 -1 $-1 $153 $154 $155 $156 forward $61 $-1 #
aggregate_analytic_solver_attribute-aggregate_geombuild_base_attribute-aggregate_body_attribute-attrib_HH-attrib $-1 -1 $157 $63 $0 F #
face_name-twe-attrib $-1 -1 $-1 $65 $34 2 #
attrib_hh_face_geombuild-attrib_entity_geombuild-individual_entity_attribute-attrib_HH-attrib $-1 -1 $158 $66 $44 F #
model_id-kcp-attrib $-1 -1 $159 $-1 $67 1 1021384700 1021384700 -1830682623 5 #
face $160 -1 $-1 $161 $162 $10 $-1 $163 forward single #
loop $164 -1 $-1 $-1 $109 $67 #
plane-surface $165 -1 $-1 0 30 0 0 -1 0 0 0 -1 forward_v I I I I #
loop_type-twe-attrib $-1 -1 $-1 $-1 $68 0 #
coedge $166 -1 $-1 $167 $168 $107 $169 forward $68 $-1 #
surf-twe-attrib $-1 -1 $-1 $-1 $69 10 #
attrib_hh_coedge_geombuild-attrib_entity_geombuild-individual_entity_attribute-attrib_HH-attrib $-1 -1 $-1 $-1 $71 F #
coedge $170 -1 $-1 $171 $71 $104 $169 reversed $45 $-1 #
coedge $172 -1 $-1 $71 $171 $75 $116 forward $45 $-1 #
coedge $173 -1 $-1 $174 $175 $71 $110 forward $101 $-1 #
edge $176 -1 $-1 $177 -6.25 $178 -1.25 $109 $179 reversed @7 unknown #
attrib_hh_coedge_geombuild-attrib_entity_geombuild-individual_entity_attribute-attrib_HH-attrib $-1 -1 $-1 $-1 $74 F #
coedge $180 -1 $-1 $75 $74 $174 $181 reversed $35 $-1 #
coedge $182 -1 $-1 $183 $184 $74 $114 forward $185 $-1 #
edge $186 -1 $-1 $187 -27.499897499999989 $122 17.499769979784109 $113 $188 reversed @7 unknown #
attrib_hh_coedge_geombuild-attrib_entity_geombuild-individual_entity_attribute-attrib_HH-attrib $-1 -1 $-1 $-1 $75 F #
edge $189 -1 $-1 $123 -24.99987247978412 $178 24.999794999999981 $108 $190 reversed @7 unknown #
attrib_hh_coedge_geombuild-attrib_entity_geombuild-individual_entity_attribute-attrib_HH-attrib $-1 -1 $-1 $-1 $76 F #
coedge $191 -1 $-1 $192 $76 $171 $193 forward $120 $-1 #
coedge $194 -1 $-1 $76 $195 $183 $196 reversed $120 $-1 #
loop $197 -1 $-1 $-1 $118 $198 #
attrib_edge_convexity-kcp-attrib $-1 -1 $199 $-1 $77 1 #
vertex $200 -1 $-1 $114 $201 #
vertex $202 -1 $-1 $77 $203 #
straight-curve $-1 -1 $-1 34.374985125695282 -10.62468235408882 4.9999999999999991 -0.70710678118654757 -0.70710678118654757 0 I I #
model_id-kcp-attrib $-1 -1 $-1 $-1 $80 1 1021384700 1021384700 -1830682622 5 #
face $204 -1 $-1 $205 $206 $25 $-1 $207 reversed single #
loop $-1 -1 $-1 $-1 $208 $80 #
plane-surface $-1 -1 $-1 0 -30 0 0 1 0 0 0 1 forward_v I I I I #
coedge $-1 -1 $-1 $209 $210 $211 $212 forward $81 $-1 #
coedge $-1 -1 $-1 $213 $83 $214 $215 forward $52 $-1 #
coedge $-1 -1 $-1 $83 $213 $216 $217 forward $52 $-1 #
coedge $-1 -1 $-1 $218 $219 $83 $133 reversed $220 $-1 #
edge $-1 -1 $-1 $221 -30 $222 30 $132 $223 forward @7 unknown #
face $-1 -1 $-1 $224 $225 $27 $-1 $226 forward single #
loop $-1 -1 $-1 $-1 $140 $84 #
plane-surface $-1 -1 $-1 25 30 5 0 0 -1 -1 0 0 forward_v I I I I #
coedge $-1 -1 $-1 $227 $228 $138 $229 reversed $85 $-1 #
coedge $-1 -1 $-1 $230 $87 $137 $229 forward $55 $-1 #
coedge $-1 -1 $-1 $87 $230 $231 $232 reversed $55 $-1 #
coedge $-1 -1 $-1 $233 $234 $87 $141 reversed $135 $-1 #
edge $-1 -1 $-1 $235 -21.213085871946653 $236 -14.142018060081178 $140 $237 forward @7 unknown #
face $-1 -1 $-1 $238 $239 $29 $-1 $240 reversed single #
loop $-1 -1 $-1 $-1 $241 $88 #
plane-surface $-1 -1 $-1 0 -30 0 0 1 0 0 0 1 forward_v I I I I #
coedge $-1 -1 $-1 $242 $243 $91 $148 forward $89 $-1 #
coedge $-1 -1 $-1 $244 $91 $245 $246 reversed $58 $-1 #
coedge $-1 -1 $-1 $91 $244 $241 $247 reversed $58 $-1 #
edge $-1 -1 $-1 $248 -5.3034184225488765 $249 15.91025526764664 $145 $250 forward @7 unknown #
face $-1 -1 $-1 $251 $252 $31 $-1 $253 forward single #
loop $-1 -1 $-1 $-1 $254 $92 #
plane-surface $-1 -1 $-1 -30 -25 10 0 0 1 1 0 0 forward_v I I I I #
coedge $-1 -1 $-1 $255 $256 $154 $257 reversed $93 $-1 #
coedge $-1 -1 $-1 $258 $95 $259 $260 reversed $61 $-1 #
coedge $-1 -1 $-1 $95 $258 $152 $257 forward $61 $-1 #
coedge $-1 -1 $-1 $261 $262 $95 $156 reversed $263 $-1 #
edge $-1 -1 $-1 $264 -14.142370751030501 $265 -7.0713029391650215 $155 $266 forward @7 unknown #
aggregate_geombuild_attribute-aggregate_geombuild_base_attribute-aggregate_body_attribute-attrib_HH-attrib $-1 -1 $267 $96 $0 #
face_name-twe-attrib $-1 -1 $-1 $98 $44 3 #
attrib_hh_face_geombuild-attrib_entity_geombuild-individual_entity_attribute-attrib_HH-attrib $-1 -1 $268 $99 $67 F #
model_id-kcp-attrib $-1 -1 $269 $-1 $100 1 1021384700 1021384700 -1830682623 6 #
face $270 -1 $-1 $198 $271 $10 $-1 $272 forward single #
loop $273 -1 $-1 $-1 $274 $100 #
plane-surface $275 -1 $-1 -5.0002050799560402 -27.5 5 0 0 1 0 -1 0 forward_v I I I I #
loop_type-twe-attrib $-1 -1 $-1 $-1 $101 0 #
surf-twe-attrib $-1 -1 $-1 $-1 $102 17 #
attrib_hh_coedge_geombuild-attrib_entity_geombuild-individual_entity_attribute-attrib_HH-attrib $-1 -1 $-1 $-1 $104 F #
coedge $276 -1 $-1 $277 $104 $175 $278 forward $68 $-1 #
coedge $279 -1 $-1 $104 $280 $192 $281 forward $68 $-1 #
edge $282 -1 $-1 $283 -22.499769979784116 $177 27.499897499999989 $104 $284 forward @7 unknown #
attrib_hh_coedge_geombuild-attrib_entity_geombuild-individual_entity_attribute-attrib_HH-attrib $-1 -1 $-1 $-1 $107 F #
coedge $285 -1 $-1 $108 $107 $118 $193 reversed $45 $-1 #
attrib_hh_coedge_geombuild-attrib_entity_geombuild-individual_entity_attribute-attrib_HH-attrib $-1 -1 $-1 $-1 $108 F #
attrib_hh_coedge_geombuild-attrib_entity_geombuild-individual_entity_attribute-attrib_HH-attrib $-1 -1 $-1 $-1 $109 F #
coedge $286 -1 $-1 $287 $109 $112 $181 forward $101 $-1 #
coedge $288 -1 $-1 $109 $289 $167 $278 reversed $101 $-1 #
attrib_edge_convexity-kcp-attrib $-1 -1 $290 $-1 $110 1 #
vertex $291 -1 $-1 $110 $292 #
vertex $293 -1 $-1 $181 $294 #
straight-curve $-1 -1 $-1 25 30 3.75 0 0 1 I I #
attrib_hh_coedge_geombuild-attrib_entity_geombuild-individual_entity_attribute-attrib_HH-attrib $-1 -1 $-1 $-1 $112 F #
edge $295 -1 $-1 $178 11.25 $187 16.25 $174 $296 reversed @7 unknown #
attrib_hh_coedge_geombuild-attrib_entity_geombuild-individual_entity_attribute-attrib_HH-attrib $-1 -1 $-1 $-1 $113 F #
coedge $297 -1 $-1 $298 $113 $119 $196 forward $185 $-1 #
coedge $299 -1 $-1 $113 $298 $287 $300 reversed $185 $-1 #
loop $301 -1 $-1 $-1 $113 $302 #
attrib_edge_convexity-kcp-attrib $-1 -1 $303 $-1 $114 1 #
vertex $304 -1 $-1 $181 $305 #
straight-curve $-1 -1 $-1 30 2.5001025000000099 5 0 1 0 I I #
attrib_edge_convexity-kcp-attrib $-1 -1 $306 $-1 $116 2 #
straight-curve $-1 -1 $-1 25 5.0002050000000198 5 0 -1 0 I I #
attrib_hh_coedge_geombuild-attrib_entity_geombuild-individual_entity_attribute-attrib_HH-attrib $-1 -1 $-1 $-1 $118 F #
coedge $307 -1 $-1 $308 $118 $168 $281 reversed $120 $-1 #
edge $309 -1 $-1 $123 6.2499999999999991 $283 11.25 $118 $310 forward @7 unknown #
attrib_hh_coedge_geombuild-attrib_entity_geombuild-individual_entity_attribute-attrib_HH-attrib $-1 -1 $-1 $-1 $119 F #
coedge $311 -1 $-1 $119 $312 $313 $314 reversed $120 $-1 #
edge $315 -1 $-1 $122 -10 $316 5 $183 $317 reversed @7 unknown #
loop_type-twe-attrib $-1 -1 $-1 $-1 $120 0 #
face $318 -1 $-1 $319 $120 $10 $-1 $320 forward single #
convexity-sys-attrib $-1 -1 $321 $121 $77 #
attrib_hh_vertex_geombuild-attrib_entity_geombuild-individual_entity_attribute-attrib_HH-attrib $-1 -1 $-1 $-1 $122 F #
point $-1 -1 $-1 30 -14.999667479784097 5 #
attrib_hh_vertex_geombuild-attrib_entity_geombuild-individual_entity_attribute-attrib_HH-attrib $-1 -1 $-1 $-1 $123 F #
point $-1 -1 $-1 25 -19.999667479784101 4.9999999999999991 #
model_id-kcp-attrib $-1 -1 $-1 $-1 $126 1 1021384700 1021384700 -1830682622 6 #
face $322 -1 $-1 $323 $324 $25 $-1 $325 reversed single #
loop $-1 -1 $-1 $-1 $326 $126 #
plane-surface $-1 -1 $-1 -30 0 0 1 0 0 0 0 -1 forward_v I I I I #
coedge $-1 -1 $-1 $327 $216 $328 $329 forward $127 $-1 #
coedge $-1 -1 $-1 $330 $129 $327 $331 forward $81 $-1 #
coedge $-1 -1 $-1 $129 $330 $332 $333 forward $81 $-1 #
coedge $-1 -1 $-1 $219 $218 $129 $212 reversed $220 $-1 #
edge $-1 -1 $-1 $334 -30 $335 30 $211 $336 forward @7 unknown #
coedge $-1 -1 $-1 $131 $130 $337 $338 forward $52 $-1 #
coedge $-1 -1 $-1 $339 $340 $130 $215 reversed $324 $-1 #
edge $-1 -1 $-1 $222 -30 $341 30 $214 $342 forward @7 unknown #
coedge $-1 -1 $-1 $208 $343 $131 $217 reversed $127 $-1 #
edge $-1 -1 $-1 $344 -30 $221 30 $216 $345 forward @7 unknown #
coedge $-1 -1 $-1 $211 $132 $343 $346 forward $220 $-1 #
coedge $-1 -1 $-1 $132 $211 $339 $347 reversed $220 $-1 #
loop $-1 -1 $-1 $-1 $218 $323 #
vertex $-1 -1 $-1 $133 $348 #
vertex $-1 -1 $-1 $133 $349 #
straight-curve $-1 -1 $-1 30 0 10 0 1 0 I I #
face $-1 -1 $-1 $350 $351 $27 $-1 $352 forward single #
loop $-1 -1 $-1 $-1 $353 $134 #
plane-surface $-1 -1 $-1 25 -19.999667479784094 10 0 0 1 1 0 0 forward_v I I I I #
coedge $-1 -1 $-1 $354 $137 $234 $355 reversed $85 $-1 #
coedge $-1 -1 $-1 $137 $354 $356 $357 reversed $85 $-1 #
edge $-1 -1 $-1 $236 -3.75 $358 1.25 $137 $359 forward @7 unknown #
coedge $-1 -1 $-1 $139 $138 $353 $360 forward $55 $-1 #
coedge $-1 -1 $-1 $361 $362 $139 $232 forward $363 $-1 #
edge $364 -1 $-1 $235 -3.7500000000000009 $365 1.25 $231 $366 forward @7 unknown #
coedge $-1 -1 $-1 $367 $140 $362 $368 reversed $135 $-1 #
coedge $-1 -1 $-1 $140 $367 $227 $355 forward $135 $-1 #
vertex $-1 -1 $-1 $368 $369 #
vertex $-1 -1 $-1 $141 $370 #
straight-curve $-1 -1 $-1 39.99991686994602 -4.9997506098380695 5 0.70710678118654746 0.70710678118654757 0 I I #
face $-1 -1 $-1 $-1 $371 $29 $-1 $372 reversed single #
loop $-1 -1 $-1 $-1 $373 $142 #
plane-surface $-1 -1 $-1 0 0 -10 0 0 1 1 0 0 forward_v I I I I #
coedge $-1 -1 $-1 $374 $375 $147 $247 forward $143 $-1 #
coedge $-1 -1 $-1 $243 $145 $375 $376 forward $89 $-1 #
coedge $-1 -1 $-1 $145 $242 $377 $378 forward $89 $-1 #
coedge $-1 -1 $-1 $147 $146 $373 $379 reversed $58 $-1 #
coedge $-1 -1 $-1 $377 $380 $146 $246 forward $371 $-1 #
edge $-1 -1 $-1 $381 -15 $248 5 $245 $382 forward @7 unknown #
edge $-1 -1 $-1 $249 -5 $383 15 $241 $384 forward @7 unknown #
vertex $-1 -1 $-1 $148 $385 #
vertex $-1 -1 $-1 $376 $386 #
straight-curve $-1 -1 $-1 26.249916869946027 -18.74975060983807 10 -0.70710678118654746 -0.70710678118654757 0 I I #
face $-1 -1 $-1 $387 $263 $31 $-1 $388 forward single #
loop $-1 -1 $-1 $-1 $389 $149 #
plane-surface $-1 -1 $-1 -30 -25 5 -1 0 0 0 0 1 forward_v I I I I #
coedge $-1 -1 $-1 $390 $391 $258 $392 reversed $150 $-1 #
coedge $-1 -1 $-1 $393 $152 $391 $394 reversed $93 $-1 #
coedge $-1 -1 $-1 $152 $393 $261 $395 reversed $93 $-1 #
edge $-1 -1 $-1 $396 -1.25 $264 3.75 $152 $397 forward @7 unknown #
coedge $-1 -1 $-1 $154 $153 $254 $392 forward $61 $-1 #
coedge $-1 -1 $-1 $398 $399 $153 $260 forward $400 $-1 #
edge $401 -1 $-1 $402 -1.25 $265 3.7500000000000009 $259 $403 forward @7 unknown #
coedge $-1 -1 $-1 $404 $155 $256 $395 forward $263 $-1 #
coedge $-1 -1 $-1 $155 $404 $398 $405 reversed $263 $-1 #
loop $-1 -1 $-1 $-1 $155 $251 #
vertex $-1 -1 $-1 $395 $406 #
vertex $-1 -1 $-1 $405 $407 #
straight-curve $-1 -1 $-1 24.99983373989205 -19.999833739892047 4.9999999999999991 0.70710678118654746 0.70710678118654757 0 I I #
aggregate_stitch_attribute-aggregate_stitch_base_attribute-aggregate_body_attribute-attrib_HH-attrib $-1 -1 $408 $157 $0 F #
face_name-twe-attrib $-1 -1 $-1 $159 $67 4 #
attrib_hh_face_geombuild-attrib_entity_geombuild-individual_entity_attribute-attrib_HH-attrib $-1 -1 $409 $160 $100 F #
model_id-kcp-attrib $-1 -1 $410 $-1 $161 1 1021384700 1021384700 -1830682623 7 #
loop $411 -1 $-1 $-1 $412 $161 #
plane-surface $413 -1 $-1 -5.0002050799560402 -25 7.5 0 -1 0 0 0 -1 forward_v I I I I #
loop_type-twe-attrib $-1 -1 $-1 $-1 $162 0 #
coedge $414 -1 $-1 $415 $416 $417 $418 reversed $162 $-1 #
surf-twe-attrib $-1 -1 $419 $-1 $163 28 #
attrib_hh_coedge_geombuild-attrib_entity_geombuild-individual_entity_attribute-attrib_HH-attrib $-1 -1 $-1 $-1 $167 F #
coedge $420 -1 $-1 $280 $167 $421 $422 forward $68 $-1 #
edge $423 -1 $-1 $177 -25 $424 30 $175 $425 forward @7 unknown #
attrib_hh_coedge_geombuild-attrib_entity_geombuild-individual_entity_attribute-attrib_HH-attrib $-1 -1 $-1 $-1 $168 F #
coedge $426 -1 $-1 $168 $277 $427 $428 forward $68 $-1 #
edge $429 -1 $-1 $430 -8.8392115055423908 $283 -1.7676734390778293 $168 $431 forward @7 unknown #
attrib_edge_convexity-kcp-attrib $-1 -1 $432 $-1 $169 1 #
vertex $433 -1 $-1 $281 $434 #
straight-curve $-1 -1 $-1 25 2.5001025000000099 10 0 1 0 I I #
attrib_hh_coedge_geombuild-attrib_entity_geombuild-individual_entity_attribute-attrib_HH-attrib $-1 -1 $-1 $-1 $171 F #
attrib_hh_coedge_geombuild-attrib_entity_geombuild-individual_entity_attribute-attrib_HH-attrib $-1 -1 $-1 $-1 $174 F #
coedge $435 -1 $-1 $436 $174 $184 $300 forward $101 $-1 #
attrib_hh_coedge_geombuild-attrib_entity_geombuild-individual_entity_attribute-attrib_HH-attrib $-1 -1 $-1 $-1 $175 F #
coedge $437 -1 $-1 $175 $436 $438 $439 reversed $101 $-1 #
convexity-sys-attrib $-1 -1 $440 $176 $110 #
attrib_hh_vertex_geombuild-attrib_entity_geombuild-individual_entity_attribute-attrib_HH-attrib $-1 -1 $-1 $-1 $177 F #
point $-1 -1 $-1 25 30 10 #
attrib_hh_vertex_geombuild-attrib_entity_geombuild-individual_entity_attribute-attrib_HH-attrib $-1 -1 $-1 $-1 $178 F #
point $-1 -1 $-1 25 30 5 #
attrib_edge_convexity-kcp-attrib $-1 -1 $441 $-1 $181 1 #
straight-curve $-1 -1 $-1 13.75 30 5 -1 0 0 I I #
attrib_hh_coedge_geombuild-attrib_entity_geombuild-individual_entity_attribute-attrib_HH-attrib $-1 -1 $-1 $-1 $183 F #
coedge $442 -1 $-1 $184 $183 $443 $444 reversed $185 $-1 #
attrib_hh_coedge_geombuild-attrib_entity_geombuild-individual_entity_attribute-attrib_HH-attrib $-1 -1 $-1 $-1 $184 F #
edge $445 -1 $-1 $187 -5 $446 10 $184 $447 reversed @7 unknown #
loop_type-twe-attrib $-1 -1 $-1 $-1 $185 0 #
face $448 -1 $-1 $-1 $185 $10 $-1 $449 reversed single #
convexity-sys-attrib $-1 -1 $450 $186 $114 #
attrib_hh_vertex_geombuild-attrib_entity_geombuild-individual_entity_attribute-attrib_HH-attrib $-1 -1 $-1 $-1 $187 F #
point $-1 -1 $-1 30 30 5 #
convexity-sys-attrib $-1 -1 $451 $189 $116 #
attrib_hh_coedge_geombuild-attrib_entity_geombuild-individual_entity_attribute-attrib_HH-attrib $-1 -1 $-1 $-1 $192 F #
coedge $452 -1 $-1 $417 $192 $412 $453 forward $120 $-1 #
attrib_edge_convexity-kcp-attrib $-1 -1 $454 $-1 $193 1 #
straight-curve $-1 -1 $-1 25 -19.999667479784101 -1.25 0 0 1 I I #
attrib_hh_coedge_geombuild-attrib_entity_geombuild-individual_entity_attribute-attrib_HH-attrib $-1 -1 $-1 $-1 $195 F #
coedge $455 -1 $-1 $195 $417 $456 $457 reversed $120 $-1 #
coedge $458 -1 $-1 $459 $443 $195 $314 forward $460 $-1 #
edge $461 -1 $-1 $316 -5.3033943727876514 $462 15.910279317407866 $313 $463 reversed @7 unknown #
attrib_edge_convexity-kcp-attrib $-1 -1 $464 $-1 $196 1 #
vertex $465 -1 $-1 $444 $466 #
straight-curve $-1 -1 $-1 30 -14.999667479784097 -5 0 0 1 I I #
model_id-kcp-attrib $-1 -1 $467 $-1 $198 1 1021384700 1021384700 -1830682623 8 #
face $468 -1 $-1 $469 $460 $10 $-1 $470 reversed single #
plane-surface $471 -1 $-1 30.000034011498499 -14.9996334682856 -10 0.70710678118654757 -0.70710678118654757 0 -0.70710678118654802 -0.70710678118654802 0 forward_v I I I I #
attrib_hh_edge_geombuild-attrib_entity_geombuild-individual_entity_attribute-attrib_HH-attrib $-1 -1 $472 $199 $77 F #
model_id-kcp-attrib $-1 -1 $-1 $-1 $205 1 1021384700 1021384700 -1830682622 3 #
face $473 -1 $-1 $-1 $220 $25 $-1 $474 reversed single #
loop $-1 -1 $-1 $-1 $339 $205 #
plane-surface $-1 -1 $-1 0 30 0 0 -1 0 0 0 -1 forward_v I I I I #
coedge $-1 -1 $-1 $475 $337 $340 $476 forward $206 $-1 #
coedge $-1 -1 $-1 $343 $208 $209 $331 reversed $127 $-1 #
coedge $-1 -1 $-1 $337 $475 $208 $329 reversed $206 $-1 #
edge $-1 -1 $-1 $344 -10 $477 10 $328 $478 forward @7 unknown #
coedge $-1 -1 $-1 $210 $209 $475 $479 forward $81 $-1 #
edge $-1 -1 $-1 $335 -30 $477 30 $327 $480 forward @7 unknown #
coedge $-1 -1 $-1 $340 $339 $210 $333 reversed $324 $-1 #
edge $-1 -1 $-1 $481 -30 $334 30 $332 $482 forward @7 unknown #
vertex $-1 -1 $-1 $212 $483 #
vertex $-1 -1 $-1 $346 $484 #
straight-curve $-1 -1 $-1 30 0 -10 0 -1 0 I I #
coedge $-1 -1 $-1 $326 $328 $213 $338 reversed $206 $-1 #
edge $-1 -1 $-1 $341 -30 $344 30 $337 $485 forward @7 unknown #
coedge $-1 -1 $-1 $332 $214 $219 $347 forward $324 $-1 #
coedge $-1 -1 $-1 $214 $332 $326 $476 reversed $324 $-1 #
vertex $-1 -1 $-1 $215 $486 #
straight-curve $-1 -1 $-1 0 30 10 -1 0 0 I I #
coedge $-1 -1 $-1 $216 $327 $218 $346 reversed $127 $-1 #
vertex $-1 -1 $-1 $338 $487 #
straight-curve $-1 -1 $-1 0 -30 10 1 0 0 I I #
edge $-1 -1 $-1 $221 -10 $335 10 $218 $488 forward @7 unknown #
edge $-1 -1 $-1 $222 -10 $334 10 $219 $489 forward @7 unknown #
point $-1 -1 $-1 30 -30 10 #
point $-1 -1 $-1 30 30 10 #
face $-1 -1 $-1 $-1 $363 $27 $-1 $490 reversed single #
loop $-1 -1 $-1 $-1 $491 $224 #
plane-surface $-1 -1 $-1 25 30 10 0 1 0 0 0 1 forward_v I I I I #
coedge $-1 -1 $-1 $356 $492 $230 $360 reversed $225 $-1 #
coedge $-1 -1 $-1 $228 $227 $491 $493 reversed $85 $-1 #
edge $-1 -1 $-1 $494 -24.999814369946016 $236 19.999853109838082 $234 $495 forward @7 unknown #
coedge $-1 -1 $-1 $496 $353 $228 $357 forward $225 $-1 #
edge $-1 -1 $-1 $358 -17.49975060983807 $497 27.499916869946027 $356 $498 forward @7 unknown #
vertex $-1 -1 $-1 $357 $499 #
straight-curve $-1 -1 $-1 30 -14.999667479784094 8.75 0 0 1 I I #
edge $-1 -1 $-1 $358 -3.5355339059327364 $365 3.5355339059327404 $353 $500 forward @7 unknown #
coedge $-1 -1 $-1 $501 $231 $492 $502 forward $363 $-1 #
coedge $-1 -1 $-1 $231 $501 $233 $368 forward $363 $-1 #
loop $-1 -1 $-1 $-1 $362 $350 #
convexity-sys-attrib $-1 -1 $-1 $-1 $232 #
vertex $-1 -1 $-1 $232 $503 #
straight-curve $-1 -1 $-1 25 -19.999667479784097 8.75 0 0 1 I I #
coedge $-1 -1 $-1 $234 $233 $504 $505 forward $135 $-1 #
edge $506 -1 $-1 $507 -24.999814369946016 $235 24.999853109838085 $233 $508 forward @7 unknown #
point $-1 -1 $-1 25 -19.999667479784101 4.9999999999999991 #
point $-1 -1 $-1 30 -14.999667479784096 5 #
loop $-1 -1 $-1 $-1 $245 $238 #
plane-surface $-1 -1 $-1 30 0 0 -1 0 0 0 0 1 forward_v I I I I #
coedge $-1 -1 $-1 $509 $510 $244 $379 forward $239 $-1 #
coedge $-1 -1 $-1 $511 $241 $510 $512 reversed $143 $-1 #
coedge $-1 -1 $-1 $241 $511 $242 $376 reversed $143 $-1 #
edge $-1 -1 $-1 $249 14.999667479784099 $513 30 $375 $514 forward @7 unknown #
coedge $-1 -1 $-1 $515 $245 $243 $378 reversed $371 $-1 #
edge $-1 -1 $-1 $513 -30 $248 -14.999667479784096 $377 $516 forward @7 unknown #
edge $-1 -1 $-1 $383 -15.91025526764664 $381 5.3034184225488765 $373 $517 forward @7 unknown #
coedge $-1 -1 $-1 $245 $515 $509 $518 reversed $371 $-1 #
vertex $-1 -1 $-1 $518 $519 #
straight-curve $-1 -1 $-1 30 -14.999667479784097 5 0 0 1 I I #
vertex $-1 -1 $-1 $247 $520 #
straight-curve $-1 -1 $-1 14.999667479784096 -30 5 0 0 -1 I I #
point $-1 -1 $-1 30 -14.999667479784096 10 #
point $-1 -1 $-1 14.999667479784099 -30 10 #
face $-1 -1 $-1 $-1 $400 $31 $-1 $521 forward single #
plane-surface $-1 -1 $-1 19.999667479784101 -25 4.9999999999999991 0 0 -1 -1 0 0 forward_v I I I I #
coedge $-1 -1 $-1 $522 $523 $393 $524 forward $252 $-1 #
coedge $-1 -1 $-1 $525 $254 $399 $526 reversed $150 $-1 #
coedge $-1 -1 $-1 $254 $525 $255 $394 forward $150 $-1 #
edge $-1 -1 $-1 $402 -10.606249026848893 $396 -3.5351812149834192 $254 $527 forward @7 unknown #
coedge $-1 -1 $-1 $256 $255 $389 $524 reversed $93 $-1 #
edge $-1 -1 $-1 $528 -27.499916869946023 $396 17.499750609838074 $391 $529 forward @7 unknown #
edge $-1 -1 $-1 $264 -19.99985314981609 $530 24.999814329968004 $261 $531 forward @7 unknown #
vertex $-1 -1 $-1 $392 $532 #
straight-curve $-1 -1 $-1 14.999667479784094 -30.000000000000004 8.75 0 0 -1 I I #
coedge $-1 -1 $-1 $533 $259 $262 $405 forward $400 $-1 #
coedge $-1 -1 $-1 $259 $533 $390 $526 forward $400 $-1 #
loop $-1 -1 $-1 $-1 $398 $387 #
convexity-sys-attrib $-1 -1 $-1 $-1 $260 #
vertex $-1 -1 $-1 $526 $534 #
straight-curve $-1 -1 $-1 19.999667479784094 -25 8.75 0 0 -1 I I #
coedge $-1 -1 $-1 $262 $261 $523 $535 reversed $263 $-1 #
edge $536 -1 $-1 $265 -24.999853149816097 $537 24.999814329968004 $262 $538 forward @7 unknown #
point $-1 -1 $-1 14.999667479784096 -30 5 #
point $-1 -1 $-1 19.999667479784101 -25 4.9999999999999991 #
aggregate_simgeom_attribute-aggregate_simgeom_base_attribute-aggregate_body_attribute-attrib_HH-attrib $-1 -1 $-1 $267 $0 F #
face_name-twe-attrib $-1 -1 $-1 $269 $100 5 #
attrib_hh_face_geombuild-attrib_entity_geombuild-individual_entity_attribute-attrib_HH-attrib $-1 -1 $539 $270 $161 F #
loop_type-twe-attrib $-1 -1 $-1 $-1 $271 0 #
coedge $540 -1 $-1 $427 $541 $308 $453 reversed $271 $-1 #
surf-twe-attrib $-1 -1 $-1 $-1 $272 51 #
attrib_hh_coedge_geombuild-attrib_entity_geombuild-individual_entity_attribute-attrib_HH-attrib $-1 -1 $-1 $-1 $274 F #
coedge $542 -1 $-1 $543 $274 $541 $544 reversed $162 $-1 #
coedge $545 -1 $-1 $274 $543 $546 $547 reversed $162 $-1 #
coedge $548 -1 $-1 $312 $308 $274 $418 forward $120 $-1 #
edge $549 -1 $-1 $550 -2.651346195452811 $551 4.4197216164126676 $417 $552 forward @7 unknown #
surf-twe-attrib $-1 -1 $-1 $275 $163 4 #
attrib_hh_coedge_geombuild-attrib_entity_geombuild-individual_entity_attribute-attrib_HH-attrib $-1 -1 $-1 $-1 $277 F #
coedge $553 -1 $-1 $438 $554 $277 $422 reversed $555 $-1 #
edge $556 -1 $-1 $424 -30 $557 25 $421 $558 forward @7 unknown #
attrib_edge_convexity-kcp-attrib $-1 -1 $559 $-1 $278 1 #
vertex $560 -1 $-1 $278 $561 #
straight-curve $-1 -1 $-1 0 30 10 -1 0 0 I I #
attrib_hh_coedge_geombuild-attrib_entity_geombuild-individual_entity_attribute-attrib_HH-attrib $-1 -1 $-1 $-1 $280 F #
coedge $562 -1 $-1 $563 $412 $280 $428 reversed $271 $-1 #
edge $564 -1 $-1 $557 -27.49989746002198 $430 22.499770019762121 $280 $565 forward @7 unknown #
attrib_edge_convexity-kcp-attrib $-1 -1 $566 $-1 $281 1 #
vertex $567 -1 $-1 $453 $568 #
straight-curve $-1 -1 $-1 26.249933875695277 -18.749733604088824 10 0.70710678118654757 0.70710678118654757 0 I I #
convexity-sys-attrib $-1 -1 $569 $282 $169 #
attrib_hh_vertex_geombuild-attrib_entity_geombuild-individual_entity_attribute-attrib_HH-attrib $-1 -1 $-1 $-1 $283 F #
point $-1 -1 $-1 25 -19.999667479784105 10 #
attrib_hh_coedge_geombuild-attrib_entity_geombuild-individual_entity_attribute-attrib_HH-attrib $-1 -1 $-1 $-1 $287 F #
coedge $570 -1 $-1 $289 $287 $571 $572 reversed $101 $-1 #
attrib_hh_coedge_geombuild-attrib_entity_geombuild-individual_entity_attribute-attrib_HH-attrib $-1 -1 $-1 $-1 $289 F #
coedge $573 -1 $-1 $574 $421 $289 $439 forward $555 $-1 #
edge $575 -1 $-1 $424 -10 $576 10 $289 $577 reversed @7 unknown #
attrib_hh_edge_geombuild-attrib_entity_geombuild-individual_entity_attribute-attrib_HH-attrib $-1 -1 $578 $290 $110 F #
convexity-sys-attrib $-1 -1 $579 $295 $181 #
attrib_hh_coedge_geombuild-attrib_entity_geombuild-individual_entity_attribute-attrib_HH-attrib $-1 -1 $-1 $-1 $298 F #
coedge $580 -1 $-1 $313 $571 $298 $444 forward $460 $-1 #
edge $581 -1 $-1 $446 -30 $316 14.999667479784097 $298 $582 reversed @7 unknown #
attrib_edge_convexity-kcp-attrib $-1 -1 $583 $-1 $300 1 #
vertex $584 -1 $-1 $444 $585 #
straight-curve $-1 -1 $-1 30 30 0 0 0 1 I I #
model_id-kcp-attrib $-1 -1 $586 $-1 $302 1 1021384700 1021384700 -1830682623 12 #
plane-surface $587 -1 $-1 30 0 0 -1 0 0 0 0 1 forward_v I I I I #
attrib_hh_edge_geombuild-attrib_entity_geombuild-individual_entity_attribute-attrib_HH-attrib $-1 -1 $588 $303 $114 F #
attrib_hh_edge_geombuild-attrib_entity_geombuild-individual_entity_attribute-attrib_HH-attrib $-1 -1 $589 $306 $116 F #
attrib_hh_coedge_geombuild-attrib_entity_geombuild-individual_entity_attribute-attrib_HH-attrib $-1 -1 $-1 $-1 $308 F #
edge $590 -1 $-1 $430 -11.25 $550 -6.2499999999999991 $308 $591 forward @7 unknown #
convexity-sys-attrib $-1 -1 $592 $309 $193 #
attrib_hh_coedge_geombuild-attrib_entity_geombuild-individual_entity_attribute-attrib_HH-attrib $-1 -1 $-1 $-1 $312 F #
coedge $593 -1 $-1 $546 $594 $312 $457 forward $595 $-1 #
edge $596 -1 $-1 $462 -5 $551 10 $456 $597 reversed @7 unknown #
attrib_hh_coedge_geombuild-attrib_entity_geombuild-individual_entity_attribute-attrib_HH-attrib $-1 -1 $-1 $-1 $313 F #
coedge $598 -1 $-1 $599 $313 $594 $600 forward $460 $-1 #
loop $601 -1 $-1 $-1 $313 $319 #
attrib_edge_convexity-kcp-attrib $-1 -1 $602 $-1 $314 1 #
vertex $603 -1 $-1 $457 $604 #
straight-curve $-1 -1 $-1 26.249933875695277 -18.749733604088824 -10 0.70710678118654757 0.70710678118654757 0 I I #
convexity-sys-attrib $-1 -1 $605 $315 $196 #
attrib_hh_vertex_geombuild-attrib_entity_geombuild-individual_entity_attribute-attrib_HH-attrib $-1 -1 $-1 $-1 $316 F #
point $-1 -1 $-1 30 -14.999667479784097 -10 #
attrib_hh_face_geombuild-attrib_entity_geombuild-individual_entity_attribute-attrib_HH-attrib $-1 -1 $606 $318 $198 F #
model_id-kcp-attrib $-1 -1 $607 $-1 $319 1 1021384700 1021384700 -1830682623 9 #
face $608 -1 $-1 $609 $595 $10 $-1 $610 reversed single #
plane-surface $611 -1 $-1 0 0 -10 0 0 1 1 0 0 forward_v I I I I #
surf-twe-attrib $-1 -1 $-1 $-1 $320 80 #
edge_name-twe-attrib $-1 -1 $-1 $321 $77 14 8704 #
model_id-kcp-attrib $-1 -1 $-1 $-1 $323 1 1021384700 1021384700 -1830682622 7 #
plane-surface $-1 -1 $-1 30 0 0 -1 0 0 0 0 1 forward_v I I I I #
coedge $-1 -1 $-1 $328 $326 $330 $479 reversed $206 $-1 #
edge $-1 -1 $-1 $341 -10 $481 10 $340 $612 forward @7 unknown #
vertex $-1 -1 $-1 $479 $613 #
straight-curve $-1 -1 $-1 -30 -30 0 0 0 -1 I I #
edge $-1 -1 $-1 $477 -30 $481 30 $475 $614 forward @7 unknown #
straight-curve $-1 -1 $-1 0 -30 -10 -1 0 0 I I #
vertex $-1 -1 $-1 $333 $615 #
straight-curve $-1 -1 $-1 0 30 -10 1 0 0 I I #
point $-1 -1 $-1 30 30 -10 #
point $-1 -1 $-1 30 -30 -10 #
straight-curve $-1 -1 $-1 -30 0 10 0 -1 0 I I #
point $-1 -1 $-1 -30 30 10 #
point $-1 -1 $-1 -30 -30 10 #
straight-curve $-1 -1 $-1 30 -30 0 0 0 -1 I I #
straight-curve $-1 -1 $-1 30 30 0 0 0 -1 I I #
plane-surface $-1 -1 $-1 25 5.0001662601079513 7.5 1 0 0 0 0 -1 forward_v I I I I #
coedge $-1 -1 $-1 $504 $616 $354 $493 forward $351 $-1 #
coedge $-1 -1 $-1 $353 $496 $361 $502 reversed $225 $-1 #
edge $-1 -1 $-1 $497 -6.25 $494 -1.25 $491 $617 forward @7 unknown #
vertex $-1 -1 $-1 $505 $618 #
straight-curve $-1 -1 $-1 30 5.000185630053986 5 0 -1 0 I I #
coedge $-1 -1 $-1 $492 $356 $616 $619 reversed $225 $-1 #
vertex $-1 -1 $-1 $619 $620 #
straight-curve $-1 -1 $-1 30 2.5000831300539748 10 0 1 0 I I #
point $-1 -1 $-1 30 -14.999667479784096 10 #
straight-curve $-1 -1 $-1 27.5 -17.499667479784094 10 -0.70710678118654746 -0.70710678118654757 0 I I #
coedge $-1 -1 $-1 $362 $361 $621 $622 forward $363 $-1 #
edge $623 -1 $-1 $365 -22.499750609838074 $624 27.499916869946027 $492 $625 forward @7 unknown #
point $-1 -1 $-1 25 -19.999667479784097 10 #
coedge $-1 -1 $-1 $621 $491 $367 $505 reversed $351 $-1 #
edge $-1 -1 $-1 $507 0 $494 5 $367 $626 forward @7 unknown #
convexity-sys-attrib $-1 -1 $-1 $-1 $368 #
vertex $-1 -1 $-1 $368 $627 #
straight-curve $-1 -1 $-1 25 5.000185630053986 5 0 -1 0 I I #
coedge $-1 -1 $-1 $510 $373 $380 $518 forward $239 $-1 #
coedge $-1 -1 $-1 $373 $509 $374 $512 forward $239 $-1 #
coedge $-1 -1 $-1 $375 $374 $515 $628 reversed $143 $-1 #
edge $-1 -1 $-1 $629 -30 $383 -14.999667479784099 $374 $630 forward @7 unknown #
vertex $-1 -1 $-1 $378 $631 #
straight-curve $-1 -1 $-1 0 -30 10 1 0 0 I I #
coedge $-1 -1 $-1 $380 $377 $511 $628 forward $371 $-1 #
straight-curve $-1 -1 $-1 30 0 10 0 1 0 I I #
straight-curve $-1 -1 $-1 26.249916869946027 -18.74975060983807 -10 0.70710678118654746 0.70710678118654757 0 I I #
edge $-1 -1 $-1 $381 14.999667479784096 $629 30 $380 $632 forward @7 unknown #
point $-1 -1 $-1 30 -14.999667479784096 -10 #
point $-1 -1 $-1 14.999667479784099 -30 -10 #
plane-surface $-1 -1 $-1 -5.0001662601079522 -25.000000000000004 7.5 0 1 0 0 0 1 forward_v I I I I #
coedge $-1 -1 $-1 $633 $389 $525 $634 reversed $252 $-1 #
coedge $-1 -1 $-1 $389 $633 $404 $535 forward $252 $-1 #
edge $-1 -1 $-1 $530 1.25 $528 6.25 $389 $635 forward @7 unknown #
coedge $-1 -1 $-1 $391 $390 $522 $634 forward $150 $-1 #
edge $636 -1 $-1 $637 -27.499916869946023 $402 22.499750609838074 $390 $638 forward @7 unknown #
straight-curve $-1 -1 $-1 12.499916869946025 -32.499750609838074 10 -0.70710678118654746 -0.70710678118654757 0 I I #
vertex $-1 -1 $-1 $634 $639 #
straight-curve $-1 -1 $-1 -2.5000831300539756 -30 10 1 0 0 I I #
vertex $-1 -1 $-1 $535 $640 #
straight-curve $-1 -1 $-1 -5.0001856700319962 -30 5 -1 0 0 I I #
point $-1 -1 $-1 14.999667479784099 -30 10 #
coedge $-1 -1 $-1 $399 $398 $633 $641 forward $400 $-1 #
point $-1 -1 $-1 19.999667479784097 -25 10 #
edge $-1 -1 $-1 $537 0 $530 5 $523 $642 forward @7 unknown #
convexity-sys-attrib $-1 -1 $-1 $-1 $405 #
vertex $-1 -1 $-1 $405 $643 #
straight-curve $-1 -1 $-1 -5.0001856700319962 -25 5 -1 0 0 I I #
face_name-twe-attrib $-1 -1 $-1 $410 $161 6 #
attrib_hh_coedge_geombuild-attrib_entity_geombuild-individual_entity_attribute-attrib_HH-attrib $-1 -1 $-1 $-1 $412 F #
coedge $644 -1 $-1 $412 $563 $415 $544 forward $271 $-1 #
attrib_hh_coedge_geombuild-attrib_entity_geombuild-individual_entity_attribute-attrib_HH-attrib $-1 -1 $-1 $-1 $415 F #
coedge $645 -1 $-1 $416 $415 $646 $647 reversed $162 $-1 #
edge $648 -1 $-1 $649 -24.999794920043961 $550 24.99987255974014 $541 $650 reversed @7 unknown #
attrib_hh_coedge_geombuild-attrib_entity_geombuild-individual_entity_attribute-attrib_HH-attrib $-1 -1 $-1 $-1 $416 F #
coedge $651 -1 $-1 $652 $456 $416 $547 forward $595 $-1 #
edge $653 -1 $-1 $551 -17.499770019762117 $654 27.49989746002198 $546 $655 reversed @7 unknown #
attrib_hh_coedge_geombuild-attrib_entity_geombuild-individual_entity_attribute-attrib_HH-attrib $-1 -1 $-1 $-1 $417 F #
attrib_edge_convexity-kcp-attrib $-1 -1 $656 $-1 $418 1 #
vertex $657 -1 $-1 $418 $658 #
vertex $659 -1 $-1 $457 $660 #
straight-curve $-1 -1 $-1 18.124882605706265 -26.874784874077836 4.9999999999999991 -0.70710678118654757 -0.70710678118654757 0 I I #
attrib_hh_coedge_geombuild-attrib_entity_geombuild-individual_entity_attribute-attrib_HH-attrib $-1 -1 $-1 $-1 $421 F #
coedge $661 -1 $-1 $421 $646 $563 $662 forward $555 $-1 #
loop $663 -1 $-1 $-1 $554 $609 #
attrib_edge_convexity-kcp-attrib $-1 -1 $664 $-1 $422 1 #
vertex $665 -1 $-1 $422 $666 #
straight-curve $-1 -1 $-1 -30 0 10 0 -1 0 I I #
convexity-sys-attrib $-1 -1 $667 $423 $278 #
attrib_hh_vertex_geombuild-attrib_entity_geombuild-individual_entity_attribute-attrib_HH-attrib $-1 -1 $-1 $-1 $424 F #
point $-1 -1 $-1 -30 30 10 #
attrib_hh_coedge_geombuild-attrib_entity_geombuild-individual_entity_attribute-attrib_HH-attrib $-1 -1 $-1 $-1 $427 F #
coedge $668 -1 $-1 $541 $427 $554 $662 reversed $271 $-1 #
attrib_edge_convexity-kcp-attrib $-1 -1 $669 $-1 $428 1 #
straight-curve $-1 -1 $-1 -2.5001025399780201 -25 10 1 0 0 I I #
convexity-sys-attrib $-1 -1 $670 $429 $281 #
attrib_hh_vertex_geombuild-attrib_entity_geombuild-individual_entity_attribute-attrib_HH-attrib $-1 -1 $-1 $-1 $430 F #
point $-1 -1 $-1 19.999667479784101 -25 10 #
attrib_hh_edge_geombuild-attrib_entity_geombuild-individual_entity_attribute-attrib_HH-attrib $-1 -1 $671 $432 $169 F #
attrib_hh_coedge_geombuild-attrib_entity_geombuild-individual_entity_attribute-attrib_HH-attrib $-1 -1 $-1 $-1 $436 F #
coedge $672 -1 $-1 $443 $599 $436 $572 forward $460 $-1 #
edge $673 -1 $-1 $576 -30 $446 30 $436 $674 reversed @7 unknown #
attrib_hh_coedge_geombuild-attrib_entity_geombuild-individual_entity_attribute-attrib_HH-attrib $-1 -1 $-1 $-1 $438 F #
coedge $675 -1 $-1 $676 $438 $599 $677 reversed $555 $-1 #
attrib_edge_convexity-kcp-attrib $-1 -1 $678 $-1 $439 1 #
vertex $679 -1 $-1 $572 $680 #
straight-curve $-1 -1 $-1 -30 30 0 0 0 1 I I #
edge_name-twe-attrib $-1 -1 $-1 $440 $110 5 8704 #
attrib_hh_edge_geombuild-attrib_entity_geombuild-individual_entity_attribute-attrib_HH-attrib $-1 -1 $681 $441 $181 F #
attrib_hh_coedge_geombuild-attrib_entity_geombuild-individual_entity_attribute-attrib_HH-attrib $-1 -1 $-1 $-1 $443 F #
model_id-kcp-attrib $-1 -1 $682 $-1 $444 1 1021384700 1021384700 -1830682623 14 #
straight-curve $-1 -1 $-1 30 0 -10 0 1 0 I I #
convexity-sys-attrib $-1 -1 $683 $445 $300 #
attrib_hh_vertex_geombuild-attrib_entity_geombuild-individual_entity_attribute-attrib_HH-attrib $-1 -1 $-1 $-1 $446 F #
point $-1 -1 $-1 30 30 -10 #
attrib_hh_face_geombuild-attrib_entity_geombuild-individual_entity_attribute-attrib_HH-attrib $-1 -1 $684 $448 $302 F #
surf-twe-attrib $-1 -1 $-1 $-1 $449 107 #
edge_name-twe-attrib $-1 -1 $-1 $450 $114 24 8704 #
edge_name-twe-attrib $-1 -1 $-1 $451 $116 1 4608 #
attrib_edge_convexity-kcp-attrib $-1 -1 $685 $-1 $453 1 #
straight-curve $-1 -1 $-1 19.999667479784101 -25 -1.25 0 0 -1 I I #
attrib_hh_edge_geombuild-attrib_entity_geombuild-individual_entity_attribute-attrib_HH-attrib $-1 -1 $686 $454 $193 F #
attrib_hh_coedge_geombuild-attrib_entity_geombuild-individual_entity_attribute-attrib_HH-attrib $-1 -1 $-1 $-1 $456 F #
coedge $687 -1 $-1 $456 $652 $459 $600 reversed $595 $-1 #
loop $688 -1 $-1 $-1 $546 $469 #
attrib_edge_convexity-kcp-attrib $-1 -1 $689 $-1 $457 1 #
straight-curve $-1 -1 $-1 14.999667479784099 -30 -5 0 0 -1 I I #
attrib_hh_coedge_geombuild-attrib_entity_geombuild-individual_entity_attribute-attrib_HH-attrib $-1 -1 $-1 $-1 $459 F #
coedge $690 -1 $-1 $571 $459 $574 $677 forward $460 $-1 #
edge $691 -1 $-1 $462 -14.999667479784099 $692 30 $594 $693 reversed @7 unknown #
loop_type-twe-attrib $-1 -1 $-1 $-1 $460 0 #
convexity-sys-attrib $-1 -1 $694 $461 $314 #
attrib_hh_vertex_geombuild-attrib_entity_geombuild-individual_entity_attribute-attrib_HH-attrib $-1 -1 $-1 $-1 $462 F #
point $-1 -1 $-1 14.999667479784099 -30 -10 #
attrib_hh_edge_geombuild-attrib_entity_geombuild-individual_entity_attribute-attrib_HH-attrib $-1 -1 $695 $464 $196 F #
face_name-twe-attrib $-1 -1 $-1 $467 $198 7 #
attrib_hh_face_geombuild-attrib_entity_geombuild-individual_entity_attribute-attrib_HH-attrib $-1 -1 $696 $468 $319 F #
model_id-kcp-attrib $-1 -1 $697 $-1 $469 1 1021384700 1021384700 -1830682623 10 #
face $698 -1 $-1 $302 $555 $10 $-1 $699 reversed single #
plane-surface $700 -1 $-1 0 -30 0 0 1 0 0 0 1 forward_v I I I I #
surf-twe-attrib $-1 -1 $-1 $-1 $470 121 #
straight-curve $-1 -1 $-1 -30 30 0 0 0 -1 I I #
point $-1 -1 $-1 -30 -30 -10 #
straight-curve $-1 -1 $-1 -30 0 -10 0 1 0 I I #
point $-1 -1 $-1 -30 30 -10 #
coedge $-1 -1 $-1 $491 $621 $496 $619 forward $351 $-1 #
straight-curve $-1 -1 $-1 30 30 3.75 0 0 -1 I I #
point $-1 -1 $-1 30 30 5 #
edge $-1 -1 $-1 $624 0 $497 5 $616 $701 forward @7 unknown #
point $-1 -1 $-1 30 30 10 #
coedge $-1 -1 $-1 $616 $504 $501 $622 reversed $351 $-1 #
edge $702 -1 $-1 $624 -6.25 $507 -1.25 $621 $703 forward @7 unknown #
convexity-sys-attrib $-1 -1 $-1 $-1 $502 #
vertex $-1 -1 $-1 $502 $704 #
straight-curve $-1 -1 $-1 25 2.5000831300539748 10 0 1 0 I I #
straight-curve $-1 -1 $-1 25 30 5 1 0 0 I I #
point $-1 -1 $-1 25 30 5 #
edge $-1 -1 $-1 $513 -10 $629 10 $515 $705 forward @7 unknown #
vertex $-1 -1 $-1 $628 $706 #
straight-curve $-1 -1 $-1 0 -30 -10 -1 0 0 I I #
point $-1 -1 $-1 30 -30 10 #
straight-curve $-1 -1 $-1 30 0 -10 0 -1 0 I I #
coedge $-1 -1 $-1 $523 $522 $533 $641 reversed $252 $-1 #
edge $-1 -1 $-1 $637 0 $528 5 $525 $707 forward @7 unknown #
straight-curve $-1 -1 $-1 -30 -30 3.75 0 0 1 I I #
convexity-sys-attrib $-1 -1 $-1 $-1 $526 #
vertex $-1 -1 $-1 $641 $708 #
straight-curve $-1 -1 $-1 -2.5000831300539756 -25 10 1 0 0 I I #
point $-1 -1 $-1 -30 -30 10 #
point $-1 -1 $-1 -30 -30 5 #
edge $709 -1 $-1 $537 1.25 $637 6.25 $633 $710 forward @7 unknown #
straight-curve $-1 -1 $-1 -30 -25 5 0 -1 0 I I #
point $-1 -1 $-1 -30 -25 5 #
attrib_hh_coedge_geombuild-attrib_entity_geombuild-individual_entity_attribute-attrib_HH-attrib $-1 -1 $-1 $-1 $541 F #
attrib_hh_coedge_geombuild-attrib_entity_geombuild-individual_entity_attribute-attrib_HH-attrib $-1 -1 $-1 $-1 $543 F #
coedge $711 -1 $-1 $554 $676 $543 $647 forward $555 $-1 #
edge $712 -1 $-1 $654 -16.25 $649 -11.25 $646 $713 reversed @7 unknown #
attrib_edge_convexity-kcp-attrib $-1 -1 $714 $-1 $544 2 #
vertex $715 -1 $-1 $647 $716 #
straight-curve $-1 -1 $-1 -5.0002050799560402 -25 5 -1 0 0 I I #
attrib_hh_coedge_geombuild-attrib_entity_geombuild-individual_entity_attribute-attrib_HH-attrib $-1 -1 $-1 $-1 $546 F #
coedge $717 -1 $-1 $594 $546 $676 $718 forward $595 $-1 #
attrib_edge_convexity-kcp-attrib $-1 -1 $719 $-1 $547 1 #
vertex $720 -1 $-1 $547 $721 #
straight-curve $-1 -1 $-1 -2.5001025399780201 -30 5 1 0 0 I I #
convexity-sys-attrib $-1 -1 $722 $549 $418 #
attrib_hh_vertex_geombuild-attrib_entity_geombuild-individual_entity_attribute-attrib_HH-attrib $-1 -1 $-1 $-1 $550 F #
point $-1 -1 $-1 19.999667479784101 -25 4.9999999999999991 #
attrib_hh_vertex_geombuild-attrib_entity_geombuild-individual_entity_attribute-attrib_HH-attrib $-1 -1 $-1 $-1 $551 F #
point $-1 -1 $-1 14.999667479784097 -30 5 #
attrib_hh_coedge_geombuild-attrib_entity_geombuild-individual_entity_attribute-attrib_HH-attrib $-1 -1 $-1 $-1 $554 F #
edge $723 -1 $-1 $649 1.25 $557 6.25 $554 $724 reversed @7 unknown #
loop_type-twe-attrib $-1 -1 $-1 $-1 $555 0 #
convexity-sys-attrib $-1 -1 $725 $556 $422 #
attrib_hh_vertex_geombuild-attrib_entity_geombuild-individual_entity_attribute-attrib_HH-attrib $-1 -1 $-1 $-1 $557 F #
point $-1 -1 $-1 -30 -25 10 #
attrib_hh_edge_geombuild-attrib_entity_geombuild-individual_entity_attribute-attrib_HH-attrib $-1 -1 $726 $559 $278 F #
attrib_hh_coedge_geombuild-attrib_entity_geombuild-individual_entity_attribute-attrib_HH-attrib $-1 -1 $-1 $-1 $563 F #
convexity-sys-attrib $-1 -1 $727 $564 $428 #
attrib_hh_edge_geombuild-attrib_entity_geombuild-individual_entity_attribute-attrib_HH-attrib $-1 -1 $728 $566 $281 F #
edge_name-twe-attrib $-1 -1 $-1 $569 $169 2 8704 #
attrib_hh_coedge_geombuild-attrib_entity_geombuild-individual_entity_attribute-attrib_HH-attrib $-1 -1 $-1 $-1 $571 F #
model_id-kcp-attrib $-1 -1 $729 $-1 $572 1 1021384700 1021384700 -1830682623 15 #
straight-curve $-1 -1 $-1 0 30 -10 -1 0 0 I I #
attrib_hh_coedge_geombuild-attrib_entity_geombuild-individual_entity_attribute-attrib_HH-attrib $-1 -1 $-1 $-1 $574 F #
coedge $730 -1 $-1 $646 $574 $652 $718 reversed $555 $-1 #
edge $731 -1 $-1 $692 -30 $576 30 $574 $732 reversed @7 unknown #
convexity-sys-attrib $-1 -1 $733 $575 $439 #
attrib_hh_vertex_geombuild-attrib_entity_geombuild-individual_entity_attribute-attrib_HH-attrib $-1 -1 $-1 $-1 $576 F #
point $-1 -1 $-1 -30 30 -10 #
edge_name-twe-attrib $-1 -1 $-1 $579 $181 6 8704 #
attrib_hh_edge_geombuild-attrib_entity_geombuild-individual_entity_attribute-attrib_HH-attrib $-1 -1 $734 $581 $444 F #
attrib_hh_edge_geombuild-attrib_entity_geombuild-individual_entity_attribute-attrib_HH-attrib $-1 -1 $735 $583 $300 F #
face_name-twe-attrib $-1 -1 $-1 $586 $302 11 #
convexity-sys-attrib $-1 -1 $736 $590 $453 #
edge_name-twe-attrib $-1 -1 $-1 $592 $193 11 8448 #
attrib_hh_coedge_geombuild-attrib_entity_geombuild-individual_entity_attribute-attrib_HH-attrib $-1 -1 $-1 $-1 $594 F #
loop_type-twe-attrib $-1 -1 $-1 $-1 $595 0 #
convexity-sys-attrib $-1 -1 $737 $596 $457 #
attrib_hh_coedge_geombuild-attrib_entity_geombuild-individual_entity_attribute-attrib_HH-attrib $-1 -1 $-1 $-1 $599 F #
model_id-kcp-attrib $-1 -1 $738 $-1 $600 1 1021384700 1021384700 -1830682623 17 #
vertex $739 -1 $-1 $677 $740 #
straight-curve $-1 -1 $-1 0 -30 -10 1 0 0 I I #
attrib_hh_edge_geombuild-attrib_entity_geombuild-individual_entity_attribute-attrib_HH-attrib $-1 -1 $741 $602 $314 F #
edge_name-twe-attrib $-1 -1 $-1 $605 $196 25 8448 #
face_name-twe-attrib $-1 -1 $-1 $607 $319 8 #
attrib_hh_face_geombuild-attrib_entity_geombuild-individual_entity_attribute-attrib_HH-attrib $-1 -1 $742 $608 $469 F #
model_id-kcp-attrib $-1 -1 $743 $-1 $609 1 1021384700 1021384700 -1830682623 11 #
plane-surface $744 -1 $-1 -30 0 0 1 0 0 0 0 -1 forward_v I I I I #
surf-twe-attrib $-1 -1 $-1 $-1 $610 167 #
straight-curve $-1 -1 $-1 25 30 10 1 0 0 I I #
convexity-sys-attrib $-1 -1 $-1 $-1 $622 #
straight-curve $-1 -1 $-1 25 30 3.75 0 0 -1 I I #
point $-1 -1 $-1 25 30 10 #
straight-curve $-1 -1 $-1 30 -30 0 0 0 -1 I I #
point $-1 -1 $-1 30 -30 -10 #
straight-curve $-1 -1 $-1 -30 -25 10 0 -1 0 I I #
point $-1 -1 $-1 -30 -25 10 #
convexity-sys-attrib $-1 -1 $-1 $-1 $641 #
straight-curve $-1 -1 $-1 -30 -25 3.75 0 0 1 I I #
attrib_hh_coedge_geombuild-attrib_entity_geombuild-individual_entity_attribute-attrib_HH-attrib $-1 -1 $-1 $-1 $646 F #
attrib_edge_convexity-kcp-attrib $-1 -1 $745 $-1 $647 1 #
straight-curve $-1 -1 $-1 -30 -13.75 5 0 -1 0 I I #
convexity-sys-attrib $-1 -1 $746 $648 $544 #
attrib_hh_vertex_geombuild-attrib_entity_geombuild-individual_entity_attribute-attrib_HH-attrib $-1 -1 $-1 $-1 $649 F #
point $-1 -1 $-1 -30 -25 5 #
attrib_hh_coedge_geombuild-attrib_entity_geombuild-individual_entity_attribute-attrib_HH-attrib $-1 -1 $-1 $-1 $652 F #
edge $747 -1 $-1 $654 -5 $692 10 $676 $748 reversed @7 unknown #
convexity-sys-attrib $-1 -1 $749 $653 $547 #
attrib_hh_vertex_geombuild-attrib_entity_geombuild-individual_entity_attribute-attrib_HH-attrib $-1 -1 $-1 $-1 $654 F #
point $-1 -1 $-1 -30 -30 5 #
attrib_hh_edge_geombuild-attrib_entity_geombuild-individual_entity_attribute-attrib_HH-attrib $-1 -1 $750 $656 $418 F #
attrib_edge_convexity-kcp-attrib $-1 -1 $751 $-1 $662 1 #
straight-curve $-1 -1 $-1 -30 -25 3.75 0 0 -1 I I #
attrib_hh_edge_geombuild-attrib_entity_geombuild-individual_entity_attribute-attrib_HH-attrib $-1 -1 $752 $664 $422 F #
edge_name-twe-attrib $-1 -1 $-1 $667 $278 9 8704 #
attrib_hh_edge_geombuild-attrib_entity_geombuild-individual_entity_attribute-attrib_HH-attrib $-1 -1 $753 $669 $428 F #
edge_name-twe-attrib $-1 -1 $-1 $670 $281 4 8704 #
attrib_edge_convexity-kcp-attrib $-1 -1 $754 $673 $572 1 #
attrib_hh_coedge_geombuild-attrib_entity_geombuild-individual_entity_attribute-attrib_HH-attrib $-1 -1 $-1 $-1 $676 F #
model_id-kcp-attrib $-1 -1 $755 $-1 $677 1 1021384700 1021384700 -1830682623 16 #
straight-curve $-1 -1 $-1 -30 0 -10 0 -1 0 I I #
attrib_hh_edge_geombuild-attrib_entity_geombuild-individual_entity_attribute-attrib_HH-attrib $-1 -1 $756 $678 $439 F #
edge_name-twe-attrib $-1 -1 $-1 $682 $444 26 8704 #
edge_name-twe-attrib $-1 -1 $-1 $683 $300 27 8704 #
attrib_hh_edge_geombuild-attrib_entity_geombuild-individual_entity_attribute-attrib_HH-attrib $-1 -1 $757 $685 $453 F #
attrib_hh_edge_geombuild-attrib_entity_geombuild-individual_entity_attribute-attrib_HH-attrib $-1 -1 $758 $689 $457 F #
attrib_hh_edge_geombuild-attrib_entity_geombuild-individual_entity_attribute-attrib_HH-attrib $-1 -1 $759 $691 $600 F #
attrib_hh_vertex_geombuild-attrib_entity_geombuild-individual_entity_attribute-attrib_HH-attrib $-1 -1 $-1 $-1 $692 F #
point $-1 -1 $-1 -30 -30 -10 #
edge_name-twe-attrib $-1 -1 $-1 $694 $314 15 8704 #
face_name-twe-attrib $-1 -1 $-1 $697 $469 9 #
attrib_hh_face_geombuild-attrib_entity_geombuild-individual_entity_attribute-attrib_HH-attrib $-1 -1 $760 $698 $609 F #
surf-twe-attrib $-1 -1 $-1 $-1 $699 214 #
convexity-sys-attrib $-1 -1 $761 $712 $647 #
attrib_hh_edge_geombuild-attrib_entity_geombuild-individual_entity_attribute-attrib_HH-attrib $-1 -1 $762 $714 $544 F #
attrib_edge_convexity-kcp-attrib $-1 -1 $763 $-1 $718 1 #
straight-curve $-1 -1 $-1 -30 -30 0 0 0 1 I I #
attrib_hh_edge_geombuild-attrib_entity_geombuild-individual_entity_attribute-attrib_HH-attrib $-1 -1 $764 $719 $547 F #
edge_name-twe-attrib $-1 -1 $-1 $722 $418 13 8704 #
convexity-sys-attrib $-1 -1 $765 $723 $662 #
edge_name-twe-attrib $-1 -1 $-1 $725 $422 20 8704 #
edge_name-twe-attrib $-1 -1 $-1 $727 $428 3 8704 #
convexity-sys-attrib $-1 -1 $766 $729 $572 #
attrib_edge_convexity-kcp-attrib $-1 -1 $767 $731 $677 1 #
edge_name-twe-attrib $-1 -1 $-1 $733 $439 8 8704 #
edge_name-twe-attrib $-1 -1 $-1 $736 $453 12 8448 #
edge_name-twe-attrib $-1 -1 $-1 $737 $457 18 8448 #
edge_name-twe-attrib $-1 -1 $-1 $738 $600 17 8704 #
face_name-twe-attrib $-1 -1 $-1 $743 $609 10 #
attrib_hh_edge_geombuild-attrib_entity_geombuild-individual_entity_attribute-attrib_HH-attrib $-1 -1 $768 $745 $647 F #
edge_name-twe-attrib $-1 -1 $-1 $746 $544 10 4608 #
convexity-sys-attrib $-1 -1 $769 $747 $718 #
edge_name-twe-attrib $-1 -1 $-1 $749 $547 16 8704 #
attrib_hh_edge_geombuild-attrib_entity_geombuild-individual_entity_attribute-attrib_HH-attrib $-1 -1 $770 $751 $662 F #
attrib_hh_edge_geombuild-attrib_entity_geombuild-individual_entity_attribute-attrib_HH-attrib $-1 -1 $771 $754 $572 F #
convexity-sys-attrib $-1 -1 $772 $755 $677 #
edge_name-twe-attrib $-1 -1 $-1 $761 $647 23 8704 #
attrib_hh_edge_geombuild-attrib_entity_geombuild-individual_entity_attribute-attrib_HH-attrib $-1 -1 $773 $763 $718 F #
edge_name-twe-attrib $-1 -1 $-1 $765 $662 19 8704 #
edge_name-twe-attrib $-1 -1 $-1 $766 $572 7 8704 #
attrib_hh_edge_geombuild-attrib_entity_geombuild-individual_entity_attribute-attrib_HH-attrib $-1 -1 $774 $767 $677 F #
edge_name-twe-attrib $-1 -1 $-1 $769 $718 22 8704 #
edge_name-twe-attrib $-1 -1 $-1 $772 $677 21 8704 #
End-of-ACIS-data 