106 0 1 0           
body $-1 $1 $-1 $-1 #
lump $-1 $-1 $2 $0 #
shell $-1 $-1 $-1 $3 $1 #
face $-1 $4 $5 $2 $-1 $6 forward single #
face $-1 $7 $8 $2 $-1 $9 forward single #
loop $-1 $-1 $10 $3 #
plane-surface $-1 0 0 0 0 0 1 1 0 0 0 I I I I #
face $-1 $11 $12 $2 $-1 $13 forward single #
loop $-1 $-1 $14 $4 #
plane-surface $-1 0 -20 10 0 1 0 0 0 1 0 I I I I #
coedge $-1 $15 $16 $17 $18 1 $5 $-1 #
face $-1 $19 $20 $2 $-1 $21 reversed single #
loop $-1 $-1 $22 $7 #
plane-surface $-1 0 20 10 0 -1 0 0 0 -1 0 I I I I #
coedge $-1 $23 $24 $25 $26 1 $8 $-1 #
coedge $-1 $27 $10 $28 $29 1 $5 $-1 #
coedge $-1 $10 $27 $24 $30 1 $5 $-1 #
coedge $-1 $31 $32 $10 $18 0 $33 $-1 #
edge $-1 $34 $35 $17 $36 0 #
face $-1 $37 $38 $2 $-1 $39 forward single #
loop $-1 $-1 $25 $11 #
plane-surface $-1 -40 0 0 1 0 0 0 0 -1 0 I I I I #
coedge $-1 $40 $28 $32 $41 1 $12 $-1 #
coedge $-1 $42 $14 $43 $44 1 $8 $-1 #
coedge $-1 $14 $42 $16 $30 0 $8 $-1 #
coedge $-1 $45 $46 $14 $26 0 $20 $-1 #
edge $-1 $47 $48 $25 $49 0 #
coedge $-1 $16 $15 $45 $50 1 $5 $-1 #
coedge $-1 $22 $51 $15 $29 0 $12 $-1 #
edge $-1 $52 $34 $28 $53 0 #
edge $-1 $35 $48 $24 $54 0 #
coedge $-1 $55 $17 $42 $56 0 $33 $-1 #
coedge $-1 $17 $57 $22 $41 0 $33 $-1 #
loop $-1 $-1 $31 $58 #
vertex $-1 $18 $59 #
vertex $-1 $18 $60 #
straight-curve $-1 40 0 0 0 -1 0 I I #
face $-1 $61 $62 $2 $-1 $39 forward single #
loop $-1 $-1 $63 $19 #
plane-surface $-1 0 0 20 0 0 1 1 0 0 0 I I I I #
coedge $-1 $51 $22 $63 $64 1 $12 $-1 #
edge $-1 $65 $34 $32 $66 0 #
coedge $-1 $24 $23 $31 $56 1 $8 $-1 #
coedge $-1 $67 $68 $23 $44 0 $62 $-1 #
edge $-1 $69 $47 $43 $70 0 #
coedge $-1 $71 $25 $27 $50 0 $20 $-1 #
coedge $-1 $25 $72 $67 $73 1 $20 $-1 #
vertex $-1 $44 $74 #
vertex $-1 $50 $75 #
straight-curve $-1 -40 -20 5 0 0 -1 I I #
edge $-1 $48 $52 $45 $76 0 #
coedge $-1 $28 $40 $71 $77 1 $12 $-1 #
vertex $-1 $50 $78 #
straight-curve $-1 0 20 0 1 0 0 I I #
straight-curve $-1 0 -20 0 -1 0 0 I I #
coedge $-1 $79 $31 $68 $80 1 $33 $-1 #
edge $-1 $35 $69 $31 $81 0 #
coedge $-1 $32 $82 $83 $84 1 $33 $-1 #
face $-1 $-1 $33 $2 $-1 $85 reversed single #
point $-1 40 20 0 #
point $-1 40 -20 0 #
face $-1 $86 $87 $2 $-1 $88 reversed single #
loop $-1 $-1 $43 $37 #
coedge $-1 $83 $89 $40 $64 0 $38 $-1 #
edge $-1 $90 $65 $63 $91 0 #
vertex $-1 $41 $92 #
straight-curve $-1 40 20 5 0 0 -1 I I #
coedge $-1 $93 $43 $46 $73 0 $62 $-1 #
coedge $-1 $43 $93 $55 $80 0 $62 $-1 #
vertex $-1 $80 $94 #
straight-curve $-1 0 -20 20 -1 0 0 I I #
coedge $-1 $95 $45 $51 $77 0 $20 $-1 #
coedge $-1 $46 $96 $97 $98 1 $20 $-1 #
edge $-1 $47 $99 $46 $100 0 #
point $-1 -40 -20 20 #
point $-1 -40 -20 0 #
straight-curve $-1 -40 0 0 0 1 0 I I #
edge $-1 $52 $90 $71 $101 0 #
point $-1 -40 20 0 #
coedge $-1 $102 $55 $103 $104 0 $33 $-1 #
edge $-1 $105 $69 $55 $106 0 #
straight-curve $-1 40 -20 5 0 0 1 I I #
coedge $-1 $57 $102 $107 $108 1 $33 $-1 #
coedge $-1 $109 $63 $57 $84 0 $38 $-1 #
edge $-1 $65 $110 $57 $106 0 #
plane-surface $-1 40 0 0 -1 0 0 0 0 1 0 I I I I #
face $-1 $111 $112 $2 $-1 $113 reversed single #
loop $-1 $-1 $114 $61 #
plane-surface $-1 0 0 -20 0 0 1 1 0 0 0 I I I I #
coedge $-1 $63 $109 $95 $115 0 $38 $-1 #
vertex $-1 $115 $116 #
straight-curve $-1 0 20 20 1 0 0 I I #
point $-1 40 20 20 #
coedge $-1 $68 $67 $117 $118 0 $62 $-1 #
point $-1 40 -20 20 #
coedge $-1 $119 $71 $89 $115 1 $20 $-1 #
coedge $-1 $72 $119 $120 $121 1 $20 $-1 #
coedge $-1 $122 $117 $72 $98 0 $112 $-1 #
edge $-1 $99 $123 $72 $124 0 #
vertex $-1 $73 $125 #
straight-curve $-1 -40 0 20 0 -1 0 I I #
straight-curve $-1 -40 20 5 0 0 1 I I #
coedge $-1 $82 $79 $114 $126 1 $33 $-1 #
coedge $-1 $117 $122 $79 $104 1 $112 $-1 #
edge $-1 $105 $127 $79 $128 0 #
vertex $-1 $80 $129 #
straight-curve $-1 40 0 20 0 1 0 I I #
coedge $-1 $130 $131 $82 $108 0 $132 $-1 #
edge $-1 $110 $133 $82 $134 0 #
coedge $-1 $89 $83 $131 $135 0 $38 $-1 #
vertex $-1 $84 $136 #
face $-1 $58 $132 $2 $-1 $137 reversed single #
loop $-1 $-1 $97 $86 #
plane-surface $-1 0 -40 0 0 1 0 0 0 1 0 I I I I #
coedge $-1 $138 $139 $102 $126 0 $87 $-1 #
edge $-1 $140 $90 $95 $100 0 #
point $-1 -40 20 20 #
coedge $-1 $97 $103 $93 $118 1 $112 $-1 #
edge $-1 $99 $105 $117 $141 0 #
coedge $-1 $96 $95 $142 $143 0 $20 $-1 #
coedge $-1 $139 $138 $96 $121 0 $87 $-1 #
edge $-1 $123 $144 $96 $145 0 #
coedge $-1 $103 $97 $138 $146 1 $112 $-1 #
vertex $-1 $121 $147 #
straight-curve $-1 -40 -40 0 0 0 -1 I I #
point $-1 -40 -40 20 #
edge $-1 $133 $127 $102 $148 0 #
vertex $-1 $104 $149 #
straight-curve $-1 40 -40 0 0 0 -1 I I #
point $-1 40 -40 20 #
coedge $-1 $142 $107 $139 $150 1 $132 $-1 #
coedge $-1 $107 $142 $109 $135 1 $132 $-1 #
loop $-1 $-1 $107 $111 #
vertex $-1 $126 $151 #
straight-curve $-1 40 40 0 0 0 -1 I I #
edge $-1 $110 $140 $131 $152 0 #
point $-1 40 40 20 #
plane-surface $-1 0 40 0 0 -1 0 0 0 -1 0 I I I I #
coedge $-1 $120 $114 $122 $146 0 $87 $-1 #
coedge $-1 $114 $120 $130 $150 0 $87 $-1 #
vertex $-1 $135 $153 #
straight-curve $-1 0 -40 20 1 0 0 I I #
coedge $-1 $131 $130 $119 $143 1 $132 $-1 #
edge $-1 $140 $144 $142 $154 0 #
vertex $-1 $150 $155 #
straight-curve $-1 -40 0 -20 0 1 0 I I #
edge $-1 $127 $123 $122 $156 0 #
point $-1 -40 -40 -20 #
straight-curve $-1 40 0 -20 0 -1 0 I I #
point $-1 40 -40 -20 #
edge $-1 $144 $133 $130 $157 0 #
point $-1 40 40 -20 #
straight-curve $-1 0 40 20 -1 0 0 I I #
point $-1 -40 40 20 #
straight-curve $-1 -40 40 0 0 0 -1 I I #
point $-1 -40 40 -20 #
straight-curve $-1 0 -40 -20 -1 0 0 I I #
straight-curve $-1 0 40 -20 1 0 0 I I #
End-of-ACIS-data 