700 0 2 0           
24 FBMach with ACIS - 7.0.3 13 ACIS 7.0.3 NT 24 Tue May 14 09:19:56 2002 
1 9.9999999999999995e-007 1e-010 
body $2 -1 $-1 $3 $-1 $4 #
bdycol-kcp $-1 -1 1 2 $5 $6 #
model_id-kcp-attrib $-1 -1 $-1 $-1 $0 1 1021382396 1021382396 1148583937 1 #
lump $-1 -1 $-1 $-1 $7 $0 #
transform $-1 -1 1 0 0 0 1 0 0 0 1 0 0 0 1 rotate no_reflect no_shear #
body $8 -1 $-1 $9 $-1 $10 #
body $11 -1 $-1 $12 $-1 $13 #
shell $-1 -1 $-1 $-1 $-1 $14 $-1 $3 #
rgb_color-st-attrib $-1 -1 $15 $-1 $5 1 0 0 #
lump $-1 -1 $-1 $-1 $16 $5 #
transform $-1 -1 1 0 0 0 1 0 0 0 1 0 0 120 1 no_rotate no_reflect no_shear #
model_id-kcp-attrib $-1 -1 $-1 $-1 $6 1 1021382396 1021382396 1148583938 1 #
lump $-1 -1 $-1 $-1 $17 $6 #
transform $-1 -1 1 0 0 0 1 0 0 0 1 0 0 0 1 no_rotate no_reflect no_shear #
face $18 -1 $-1 $19 $20 $7 $-1 $21 forward single #
model_id-kcp-attrib $-1 -1 $-1 $8 $5 1 1021382396 1021382396 1144979459 1 #
shell $-1 -1 $-1 $-1 $-1 $22 $-1 $9 #
shell $-1 -1 $-1 $-1 $-1 $23 $-1 $12 #
model_id-kcp-attrib $-1 -1 $-1 $-1 $14 1 1021382396 1021382396 1148583937 2 #
face $24 -1 $-1 $25 $26 $7 $-1 $27 forward single #
loop $-1 -1 $-1 $-1 $28 $14 #
plane-surface $-1 -1 $-1 0 0 0 0 0 1 1 0 0 forward_v I I I I #
face $-1 -1 $-1 $29 $30 $16 $-1 $31 reversed single #
face $32 -1 $-1 $33 $34 $17 $-1 $35 forward single #
model_id-kcp-attrib $-1 -1 $-1 $-1 $19 1 1021382396 1021382396 1148583937 3 #
face $36 -1 $-1 $37 $38 $7 $-1 $39 forward single #
loop $-1 -1 $-1 $-1 $40 $19 #
plane-surface $-1 -1 $-1 0 -20 10 0 1 0 0 0 1 forward_v I I I I #
coedge $-1 -1 $-1 $41 $42 $43 $44 reversed $20 $-1 #
face $-1 -1 $-1 $45 $46 $16 $-1 $47 reversed single #
loop $-1 -1 $-1 $-1 $48 $22 #
plane-surface $-1 -1 $-1 40 0 -120 -1 0 0 0 0 1 forward_v I I I I #
model_id-kcp-attrib $-1 -1 $-1 $-1 $23 1 1021382396 1021382396 1148583938 3 #
face $49 -1 $-1 $50 $51 $17 $-1 $52 reversed single #
loop $-1 -1 $-1 $-1 $53 $23 #
plane-surface $-1 -1 $-1 0 0 20 0 0 1 1 0 0 forward_v I I I I #
model_id-kcp-attrib $-1 -1 $-1 $-1 $25 1 1021382396 1021382396 1148583937 4 #
face $54 -1 $-1 $55 $56 $7 $-1 $57 reversed single #
loop $-1 -1 $-1 $-1 $58 $25 #
plane-surface $-1 -1 $-1 0 20 10 0 -1 0 0 0 -1 forward_v I I I I #
coedge $-1 -1 $-1 $59 $60 $61 $62 reversed $26 $-1 #
coedge $-1 -1 $-1 $63 $28 $64 $65 reversed $20 $-1 #
coedge $-1 -1 $-1 $28 $63 $60 $66 reversed $20 $-1 #
coedge $-1 -1 $-1 $67 $68 $28 $44 forward $69 $-1 #
edge $70 -1 $-1 $71 -20 $72 20 $43 $73 forward @7 unknown #
face $-1 -1 $-1 $74 $75 $16 $-1 $76 forward single #
loop $-1 -1 $-1 $-1 $77 $29 #
plane-surface $-1 -1 $-1 -40 0 -120 1 0 0 0 0 -1 forward_v I I I I #
coedge $-1 -1 $-1 $78 $79 $80 $81 forward $30 $-1 #
model_id-kcp-attrib $-1 -1 $-1 $-1 $33 1 1021382396 1021382396 1148583938 5 #
face $82 -1 $-1 $83 $84 $17 $-1 $85 reversed single #
loop $-1 -1 $-1 $-1 $86 $33 #
plane-surface $-1 -1 $-1 0 0 -20 0 0 1 1 0 0 forward_v I I I I #
coedge $-1 -1 $-1 $87 $88 $89 $90 forward $34 $-1 #
model_id-kcp-attrib $-1 -1 $-1 $-1 $37 1 1021382396 1021382396 1148583937 5 #
face $91 -1 $-1 $92 $93 $7 $-1 $94 forward single #
loop $-1 -1 $-1 $-1 $61 $37 #
plane-surface $-1 -1 $-1 -40 0 0 1 0 0 0 0 -1 forward_v I I I I #
coedge $-1 -1 $-1 $95 $64 $68 $96 reversed $38 $-1 #
coedge $-1 -1 $-1 $97 $40 $98 $99 reversed $26 $-1 #
coedge $-1 -1 $-1 $40 $97 $42 $66 forward $26 $-1 #
coedge $-1 -1 $-1 $100 $101 $40 $62 forward $56 $-1 #
edge $102 -1 $-1 $103 -15 $104 5 $61 $105 forward @7 unknown #
coedge $-1 -1 $-1 $42 $41 $100 $106 reversed $20 $-1 #
coedge $-1 -1 $-1 $58 $107 $41 $65 forward $38 $-1 #
edge $108 -1 $-1 $109 -40 $71 40 $64 $110 forward @7 unknown #
edge $111 -1 $-1 $72 -40 $104 40 $60 $112 forward @7 unknown #
coedge $-1 -1 $-1 $113 $43 $97 $114 forward $69 $-1 #
coedge $-1 -1 $-1 $43 $115 $58 $96 forward $69 $-1 #
loop $-1 -1 $-1 $-1 $67 $116 #
attrib_edge_convexity-kcp-attrib $-1 -1 $117 $-1 $44 1 #
vertex $-1 -1 $-1 $44 $118 #
vertex $-1 -1 $-1 $44 $119 #
straight-curve $-1 -1 $-1 40 0 0 0 -1 0 I I #
face $-1 -1 $-1 $120 $121 $16 $-1 $122 reversed single #
loop $-1 -1 $-1 $-1 $123 $45 #
plane-surface $-1 -1 $-1 0 0 -100 0 0 1 1 0 0 forward_v I I I I #
coedge $-1 -1 $-1 $124 $125 $126 $127 forward $46 $-1 #
coedge $-1 -1 $-1 $128 $48 $129 $130 forward $30 $-1 #
coedge $-1 -1 $-1 $48 $128 $131 $132 reversed $30 $-1 #
coedge $-1 -1 $-1 $133 $134 $48 $81 reversed $135 $-1 #
edge $-1 -1 $-1 $136 40 $137 60 $80 $138 forward @7 unknown #
model_id-kcp-attrib $-1 -1 $-1 $-1 $50 1 1021382396 1021382396 1148583938 6 #
face $139 -1 $-1 $140 $141 $17 $-1 $142 reversed single #
loop $-1 -1 $-1 $-1 $143 $50 #
plane-surface $-1 -1 $-1 0 -40 0 0 1 0 0 0 1 forward_v I I I I #
coedge $-1 -1 $-1 $144 $145 $146 $147 forward $51 $-1 #
coedge $-1 -1 $-1 $148 $53 $149 $150 forward $34 $-1 #
coedge $-1 -1 $-1 $53 $148 $151 $152 forward $34 $-1 #
coedge $-1 -1 $-1 $153 $154 $53 $90 reversed $155 $-1 #
edge $-1 -1 $-1 $156 -40 $157 40 $89 $158 forward @7 unknown #
model_id-kcp-attrib $-1 -1 $-1 $-1 $55 1 1021382396 1021382396 1148583937 6 #
face $159 -1 $-1 $160 $161 $7 $-1 $94 forward single #
loop $-1 -1 $-1 $-1 $162 $55 #
plane-surface $-1 -1 $-1 0 0 20 0 0 1 1 0 0 forward_v I I I I #
coedge $-1 -1 $-1 $107 $58 $162 $163 reversed $38 $-1 #
edge $-1 -1 $-1 $164 -15 $71 5 $68 $165 forward @7 unknown #
coedge $-1 -1 $-1 $60 $59 $67 $114 reversed $26 $-1 #
coedge $-1 -1 $-1 $166 $167 $59 $99 forward $161 $-1 #
edge $-1 -1 $-1 $168 -40 $103 40 $98 $169 forward @7 unknown #
coedge $-1 -1 $-1 $170 $61 $63 $106 forward $56 $-1 #
coedge $-1 -1 $-1 $61 $171 $166 $172 reversed $56 $-1 #
attrib_edge_convexity-kcp-attrib $-1 -1 $173 $-1 $62 1 #
vertex $-1 -1 $-1 $99 $174 #
vertex $-1 -1 $-1 $106 $175 #
straight-curve $-1 -1 $-1 -40 -20 5 0 0 -1 I I #
edge $176 -1 $-1 $104 -20 $109 20 $100 $177 forward @7 unknown #
coedge $-1 -1 $-1 $64 $95 $170 $178 reversed $38 $-1 #
attrib_edge_convexity-kcp-attrib $-1 -1 $179 $-1 $65 2 #
vertex $-1 -1 $-1 $106 $180 #
straight-curve $-1 -1 $-1 0 20 0 1 0 0 I I #
attrib_edge_convexity-kcp-attrib $-1 -1 $181 $-1 $66 2 #
straight-curve $-1 -1 $-1 0 -20 0 -1 0 0 I I #
coedge $-1 -1 $-1 $182 $67 $167 $183 reversed $69 $-1 #
edge $-1 -1 $-1 $72 -5 $168 15 $67 $184 forward @7 unknown #
coedge $-1 -1 $-1 $68 $185 $186 $187 reversed $69 $-1 #
face $188 -1 $-1 $-1 $69 $7 $-1 $189 reversed single #
convexity-sys-attrib $-1 -1 $-1 $70 $44 #
point $-1 -1 $-1 40 20 0 #
point $-1 -1 $-1 40 -20 0 #
face $-1 -1 $-1 $190 $191 $16 $-1 $192 reversed single #
loop $-1 -1 $-1 $-1 $193 $74 #
plane-surface $-1 -1 $-1 0 0 -120 0 0 1 1 0 0 forward_v I I I I #
coedge $-1 -1 $-1 $131 $194 $133 $195 forward $75 $-1 #
coedge $-1 -1 $-1 $196 $77 $194 $197 reversed $46 $-1 #
coedge $-1 -1 $-1 $77 $196 $193 $198 forward $46 $-1 #
coedge $-1 -1 $-1 $134 $133 $77 $127 reversed $135 $-1 #
edge $-1 -1 $-1 $199 -60 $200 -40 $126 $201 forward @7 unknown #
coedge $-1 -1 $-1 $79 $78 $202 $203 forward $30 $-1 #
coedge $-1 -1 $-1 $204 $205 $78 $130 reversed $121 $-1 #
edge $206 -1 $-1 $137 -20 $207 20 $129 $208 forward @7 unknown #
coedge $-1 -1 $-1 $209 $123 $79 $132 forward $75 $-1 #
edge $-1 -1 $-1 $136 -20 $210 20 $79 $211 forward @7 unknown #
coedge $-1 -1 $-1 $126 $80 $123 $195 reversed $135 $-1 #
coedge $-1 -1 $-1 $80 $126 $204 $212 reversed $135 $-1 #
loop $-1 -1 $-1 $-1 $126 $190 #
vertex $-1 -1 $-1 $81 $213 #
vertex $-1 -1 $-1 $212 $214 #
straight-curve $-1 -1 $-1 40 -20 -60 0 0 -1 I I #
model_id-kcp-attrib $-1 -1 $-1 $-1 $83 1 1021382396 1021382396 1148583938 2 #
face $215 -1 $-1 $216 $217 $17 $-1 $218 reversed single #
loop $-1 -1 $-1 $-1 $219 $83 #
plane-surface $-1 -1 $-1 -40 0 0 1 0 0 0 0 -1 forward_v I I I I #
coedge $-1 -1 $-1 $220 $151 $221 $222 forward $84 $-1 #
coedge $-1 -1 $-1 $223 $86 $220 $224 forward $51 $-1 #
coedge $-1 -1 $-1 $86 $223 $225 $226 forward $51 $-1 #
coedge $-1 -1 $-1 $154 $153 $86 $147 reversed $155 $-1 #
edge $-1 -1 $-1 $227 -40 $228 40 $146 $229 forward @7 unknown #
coedge $-1 -1 $-1 $88 $87 $230 $231 forward $34 $-1 #
coedge $-1 -1 $-1 $232 $233 $87 $150 reversed $217 $-1 #
edge $-1 -1 $-1 $157 -40 $234 40 $149 $235 forward @7 unknown #
coedge $-1 -1 $-1 $143 $236 $88 $152 reversed $84 $-1 #
edge $-1 -1 $-1 $237 -40 $156 40 $151 $238 forward @7 unknown #
coedge $-1 -1 $-1 $146 $89 $236 $239 forward $155 $-1 #
coedge $-1 -1 $-1 $89 $146 $232 $240 reversed $155 $-1 #
loop $-1 -1 $-1 $-1 $153 $216 #
vertex $-1 -1 $-1 $90 $241 #
vertex $-1 -1 $-1 $90 $242 #
straight-curve $-1 -1 $-1 40 0 20 0 1 0 I I #
model_id-kcp-attrib $-1 -1 $-1 $-1 $92 1 1021382396 1021382396 1148583937 7 #
face $243 -1 $-1 $244 $245 $7 $-1 $246 reversed single #
loop $-1 -1 $-1 $-1 $98 $92 #
coedge $-1 -1 $-1 $186 $247 $95 $163 forward $93 $-1 #
edge $248 -1 $-1 $249 -40 $164 40 $162 $250 forward @7 unknown #
vertex $-1 -1 $-1 $96 $251 #
straight-curve $-1 -1 $-1 40 20 5 0 0 -1 I I #
coedge $-1 -1 $-1 $252 $98 $101 $172 forward $161 $-1 #
coedge $-1 -1 $-1 $98 $252 $113 $183 forward $161 $-1 #
vertex $-1 -1 $-1 $183 $253 #
straight-curve $-1 -1 $-1 0 -20 20 -1 0 0 I I #
coedge $-1 -1 $-1 $254 $100 $107 $178 forward $56 $-1 #
coedge $-1 -1 $-1 $101 $255 $256 $257 reversed $56 $-1 #
edge $258 -1 $-1 $103 20 $259 40 $101 $260 forward @7 unknown #
convexity-sys-attrib $-1 -1 $-1 $102 $62 #
point $-1 -1 $-1 -40 -20 20 #
point $-1 -1 $-1 -40 -20 0 #
attrib_edge_convexity-kcp-attrib $-1 -1 $261 $-1 $106 1 #
straight-curve $-1 -1 $-1 -40 0 0 0 1 0 I I #
edge $262 -1 $-1 $109 -5 $249 15 $170 $263 forward @7 unknown #
convexity-sys-attrib $-1 -1 $-1 $108 $65 #
point $-1 -1 $-1 -40 20 0 #
convexity-sys-attrib $-1 -1 $-1 $111 $66 #
coedge $-1 -1 $-1 $264 $113 $265 $266 forward $69 $-1 #
edge $-1 -1 $-1 $267 -40 $168 -20 $113 $268 forward @7 unknown #
straight-curve $-1 -1 $-1 40 -20 5 0 0 1 I I #
coedge $-1 -1 $-1 $115 $264 $269 $270 reversed $69 $-1 #
coedge $-1 -1 $-1 $271 $162 $115 $187 forward $93 $-1 #
edge $272 -1 $-1 $164 20 $273 40 $115 $268 forward @7 unknown #
model_id-kcp-attrib $-1 -1 $-1 $-1 $116 1 1021382396 1021382396 1148583937 11 #
plane-surface $-1 -1 $-1 40 0 0 -1 0 0 0 0 1 forward_v I I I I #
face $-1 -1 $-1 $-1 $135 $16 $-1 $274 reversed single #
loop $-1 -1 $-1 $-1 $275 $120 #
plane-surface $-1 -1 $-1 0 20 0 0 -1 0 0 0 -1 forward_v I I I I #
coedge $-1 -1 $-1 $205 $204 $125 $198 reversed $121 $-1 #
coedge $-1 -1 $-1 $123 $209 $124 $197 forward $75 $-1 #
edge $-1 -1 $-1 $200 -40 $136 40 $133 $276 forward @7 unknown #
coedge $-1 -1 $-1 $125 $124 $275 $277 forward $46 $-1 #
edge $-1 -1 $-1 $278 -20 $200 20 $124 $279 forward @7 unknown #
edge $280 -1 $-1 $281 -20 $199 20 $193 $282 forward @7 unknown #
vertex $-1 -1 $-1 $198 $283 #
vertex $-1 -1 $-1 $127 $284 #
straight-curve $-1 -1 $-1 -40 -20 -60 0 0 1 I I #
coedge $-1 -1 $-1 $285 $286 $128 $203 reversed $191 $-1 #
edge $-1 -1 $-1 $207 -60 $210 -40 $202 $287 forward @7 unknown #
coedge $-1 -1 $-1 $193 $129 $134 $212 forward $121 $-1 #
coedge $-1 -1 $-1 $129 $193 $285 $288 forward $121 $-1 #
convexity-sys-attrib $-1 -1 $-1 $-1 $130 #
vertex $-1 -1 $-1 $130 $289 #
straight-curve $-1 -1 $-1 40 0 -120 0 1 0 I I #
coedge $-1 -1 $-1 $194 $131 $286 $290 forward $75 $-1 #
vertex $-1 -1 $-1 $203 $291 #
straight-curve $-1 -1 $-1 40 0 -100 0 1 0 I I #
edge $292 -1 $-1 $137 -40 $199 40 $134 $293 forward @7 unknown #
point $-1 -1 $-1 40 -20 -100 #
point $-1 -1 $-1 40 -20 -120 #
model_id-kcp-attrib $-1 -1 $-1 $-1 $140 1 1021382396 1021382396 1148583938 7 #
face $294 -1 $-1 $-1 $155 $17 $-1 $295 reversed single #
loop $-1 -1 $-1 $-1 $232 $140 #
plane-surface $-1 -1 $-1 0 40 0 0 -1 0 0 0 -1 forward_v I I I I #
coedge $-1 -1 $-1 $296 $230 $233 $297 forward $141 $-1 #
coedge $-1 -1 $-1 $236 $143 $144 $224 reversed $84 $-1 #
coedge $-1 -1 $-1 $230 $296 $143 $222 reversed $141 $-1 #
edge $-1 -1 $-1 $237 -20 $298 20 $221 $299 forward @7 unknown #
coedge $-1 -1 $-1 $145 $144 $296 $300 forward $51 $-1 #
edge $-1 -1 $-1 $228 -40 $298 40 $220 $301 forward @7 unknown #
coedge $-1 -1 $-1 $233 $232 $145 $226 reversed $217 $-1 #
edge $-1 -1 $-1 $302 -40 $227 40 $225 $303 forward @7 unknown #
vertex $-1 -1 $-1 $147 $304 #
vertex $-1 -1 $-1 $239 $305 #
straight-curve $-1 -1 $-1 40 0 -20 0 -1 0 I I #
coedge $-1 -1 $-1 $219 $221 $148 $231 reversed $141 $-1 #
edge $-1 -1 $-1 $234 -40 $237 40 $230 $306 forward @7 unknown #
coedge $-1 -1 $-1 $225 $149 $154 $240 forward $217 $-1 #
coedge $-1 -1 $-1 $149 $225 $219 $297 reversed $217 $-1 #
vertex $-1 -1 $-1 $150 $307 #
straight-curve $-1 -1 $-1 0 40 20 -1 0 0 I I #
coedge $-1 -1 $-1 $151 $220 $153 $239 reversed $84 $-1 #
vertex $-1 -1 $-1 $231 $308 #
straight-curve $-1 -1 $-1 0 -40 20 1 0 0 I I #
edge $-1 -1 $-1 $156 -20 $228 20 $153 $309 forward @7 unknown #
edge $-1 -1 $-1 $157 -20 $227 20 $154 $310 forward @7 unknown #
point $-1 -1 $-1 40 -40 20 #
point $-1 -1 $-1 40 40 20 #
model_id-kcp-attrib $-1 -1 $-1 $-1 $160 1 1021382396 1021382396 1148583937 8 #
face $311 -1 $-1 $312 $313 $7 $-1 $314 reversed single #
loop $-1 -1 $-1 $-1 $315 $160 #
plane-surface $-1 -1 $-1 0 0 -20 0 0 1 1 0 0 forward_v I I I I #
coedge $-1 -1 $-1 $162 $271 $254 $316 forward $93 $-1 #
attrib_edge_convexity-kcp-attrib $-1 -1 $317 $-1 $163 1 #
vertex $-1 -1 $-1 $316 $318 #
straight-curve $-1 -1 $-1 0 20 20 1 0 0 I I #
point $-1 -1 $-1 40 20 20 #
coedge $-1 -1 $-1 $167 $166 $319 $320 forward $161 $-1 #
point $-1 -1 $-1 40 -20 20 #
coedge $-1 -1 $-1 $321 $170 $247 $316 reversed $56 $-1 #
coedge $-1 -1 $-1 $171 $321 $322 $323 reversed $56 $-1 #
coedge $-1 -1 $-1 $324 $319 $171 $257 forward $313 $-1 #
edge $325 -1 $-1 $259 -20 $326 20 $171 $327 forward @7 unknown #
attrib_edge_convexity-kcp-attrib $-1 -1 $328 $-1 $172 1 #
vertex $-1 -1 $-1 $172 $329 #
straight-curve $-1 -1 $-1 -40 0 20 0 -1 0 I I #
convexity-sys-attrib $-1 -1 $-1 $176 $106 #
attrib_edge_convexity-kcp-attrib $-1 -1 $330 $-1 $178 1 #
straight-curve $-1 -1 $-1 -40 20 5 0 0 1 I I #
coedge $-1 -1 $-1 $185 $182 $315 $331 reversed $69 $-1 #
coedge $-1 -1 $-1 $319 $324 $182 $266 reversed $313 $-1 #
edge $332 -1 $-1 $267 -20 $333 20 $182 $334 forward @7 unknown #
vertex $-1 -1 $-1 $183 $335 #
straight-curve $-1 -1 $-1 40 0 20 0 1 0 I I #
coedge $-1 -1 $-1 $336 $337 $185 $270 forward $338 $-1 #
edge $-1 -1 $-1 $273 -20 $339 20 $185 $340 forward @7 unknown #
coedge $-1 -1 $-1 $247 $186 $337 $341 forward $93 $-1 #
attrib_edge_convexity-kcp-attrib $-1 -1 $342 $-1 $187 1 #
vertex $-1 -1 $-1 $187 $343 #
plane-surface $-1 -1 $-1 0 -20 0 0 1 0 0 0 1 forward_v I I I I #
coedge $-1 -1 $-1 $286 $285 $196 $277 reversed $191 $-1 #
straight-curve $-1 -1 $-1 0 -20 -100 1 0 0 I I #
edge $-1 -1 $-1 $278 40 $281 60 $275 $344 forward @7 unknown #
vertex $-1 -1 $-1 $277 $345 #
straight-curve $-1 -1 $-1 -40 0 -100 0 -1 0 I I #
convexity-sys-attrib $-1 -1 $-1 $-1 $198 #
vertex $-1 -1 $-1 $288 $346 #
straight-curve $-1 -1 $-1 -40 0 -120 0 -1 0 I I #
point $-1 -1 $-1 -40 -20 -120 #
point $-1 -1 $-1 -40 -20 -100 #
coedge $-1 -1 $-1 $275 $202 $205 $288 reversed $191 $-1 #
coedge $-1 -1 $-1 $202 $275 $209 $290 reversed $191 $-1 #
straight-curve $-1 -1 $-1 40 20 -60 0 0 1 I I #
edge $347 -1 $-1 $281 -40 $207 40 $285 $348 forward @7 unknown #
point $-1 -1 $-1 40 20 -120 #
edge $-1 -1 $-1 $210 -40 $278 40 $286 $349 forward @7 unknown #
point $-1 -1 $-1 40 20 -100 #
convexity-sys-attrib $-1 -1 $-1 $-1 $212 #
straight-curve $-1 -1 $-1 0 -20 -120 -1 0 0 I I #
model_id-kcp-attrib $-1 -1 $-1 $-1 $216 1 1021382396 1021382396 1148583938 8 #
plane-surface $-1 -1 $-1 40 0 0 -1 0 0 0 0 1 forward_v I I I I #
coedge $-1 -1 $-1 $221 $219 $223 $300 reversed $141 $-1 #
edge $-1 -1 $-1 $234 -20 $302 20 $233 $350 forward @7 unknown #
vertex $-1 -1 $-1 $300 $351 #
straight-curve $-1 -1 $-1 -40 -40 0 0 0 -1 I I #
edge $-1 -1 $-1 $298 -40 $302 40 $296 $352 forward @7 unknown #
straight-curve $-1 -1 $-1 0 -40 -20 -1 0 0 I I #
vertex $-1 -1 $-1 $226 $353 #
straight-curve $-1 -1 $-1 0 40 -20 1 0 0 I I #
point $-1 -1 $-1 40 40 -20 #
point $-1 -1 $-1 40 -40 -20 #
straight-curve $-1 -1 $-1 -40 0 20 0 -1 0 I I #
point $-1 -1 $-1 -40 40 20 #
point $-1 -1 $-1 -40 -40 20 #
straight-curve $-1 -1 $-1 40 -40 0 0 0 -1 I I #
straight-curve $-1 -1 $-1 40 40 0 0 0 -1 I I #
model_id-kcp-attrib $-1 -1 $-1 $-1 $244 1 1021382396 1021382396 1148583937 9 #
face $354 -1 $-1 $116 $338 $7 $-1 $355 reversed single #
loop $-1 -1 $-1 $-1 $256 $244 #
plane-surface $-1 -1 $-1 0 -40 0 0 1 0 0 0 1 forward_v I I I I #
coedge $-1 -1 $-1 $356 $357 $264 $331 forward $245 $-1 #
edge $358 -1 $-1 $359 -40 $249 -20 $254 $260 forward @7 unknown #
convexity-sys-attrib $-1 -1 $-1 $248 $163 #
point $-1 -1 $-1 -40 20 20 #
coedge $-1 -1 $-1 $256 $265 $252 $320 reversed $313 $-1 #
edge $360 -1 $-1 $259 -40 $267 40 $319 $361 forward @7 unknown #
coedge $-1 -1 $-1 $255 $254 $362 $363 forward $56 $-1 #
coedge $-1 -1 $-1 $357 $356 $255 $323 forward $245 $-1 #
edge $364 -1 $-1 $326 -40 $365 40 $255 $366 forward @7 unknown #
coedge $-1 -1 $-1 $265 $256 $356 $367 reversed $313 $-1 #
attrib_edge_convexity-kcp-attrib $-1 -1 $368 $-1 $257 1 #
vertex $-1 -1 $-1 $323 $369 #
straight-curve $-1 -1 $-1 -40 -40 0 0 0 -1 I I #
convexity-sys-attrib $-1 -1 $-1 $258 $172 #
point $-1 -1 $-1 -40 -40 20 #
convexity-sys-attrib $-1 -1 $-1 $262 $178 #
edge $-1 -1 $-1 $339 -40 $333 40 $264 $370 forward @7 unknown #
attrib_edge_convexity-kcp-attrib $-1 -1 $371 $-1 $266 1 #
vertex $-1 -1 $-1 $266 $372 #
straight-curve $-1 -1 $-1 40 -40 0 0 0 -1 I I #
point $-1 -1 $-1 40 -40 20 #
coedge $-1 -1 $-1 $362 $269 $357 $373 reversed $338 $-1 #
coedge $-1 -1 $-1 $269 $362 $271 $341 reversed $338 $-1 #
loop $-1 -1 $-1 $-1 $269 $312 #
vertex $-1 -1 $-1 $331 $374 #
straight-curve $-1 -1 $-1 40 40 0 0 0 -1 I I #
edge $375 -1 $-1 $273 -40 $359 40 $337 $376 forward @7 unknown #
convexity-sys-attrib $-1 -1 $-1 $272 $187 #
point $-1 -1 $-1 40 40 20 #
straight-curve $-1 -1 $-1 -40 20 -60 0 0 -1 I I #
point $-1 -1 $-1 -40 20 -100 #
point $-1 -1 $-1 -40 20 -120 #
convexity-sys-attrib $-1 -1 $-1 $-1 $288 #
straight-curve $-1 -1 $-1 0 20 -120 1 0 0 I I #
straight-curve $-1 -1 $-1 0 20 -100 -1 0 0 I I #
straight-curve $-1 -1 $-1 -40 40 0 0 0 -1 I I #
point $-1 -1 $-1 -40 -40 -20 #
straight-curve $-1 -1 $-1 -40 0 -20 0 1 0 I I #
point $-1 -1 $-1 -40 40 -20 #
model_id-kcp-attrib $-1 -1 $-1 $-1 $312 1 1021382396 1021382396 1148583937 10 #
plane-surface $-1 -1 $-1 0 40 0 0 -1 0 0 0 -1 forward_v I I I I #
coedge $-1 -1 $-1 $322 $315 $324 $367 forward $245 $-1 #
coedge $-1 -1 $-1 $315 $322 $336 $373 forward $245 $-1 #
attrib_edge_convexity-kcp-attrib $-1 -1 $377 $-1 $316 1 #
vertex $-1 -1 $-1 $341 $378 #
attrib_edge_convexity-kcp-attrib $-1 -1 $379 $-1 $320 1 #
straight-curve $-1 -1 $-1 0 -40 20 1 0 0 I I #
coedge $-1 -1 $-1 $337 $336 $321 $363 reversed $338 $-1 #
edge $380 -1 $-1 $359 -20 $365 20 $362 $381 forward @7 unknown #
attrib_edge_convexity-kcp-attrib $-1 -1 $382 $-1 $323 1 #
vertex $-1 -1 $-1 $373 $383 #
straight-curve $-1 -1 $-1 -40 0 -20 0 1 0 I I #
edge $384 -1 $-1 $333 -40 $326 40 $324 $385 forward @7 unknown #
convexity-sys-attrib $-1 -1 $-1 $325 $257 #
point $-1 -1 $-1 -40 -40 -20 #
straight-curve $-1 -1 $-1 40 0 -20 0 -1 0 I I #
convexity-sys-attrib $-1 -1 $-1 $332 $266 #
point $-1 -1 $-1 40 -40 -20 #
edge $-1 -1 $-1 $365 -40 $339 40 $336 $386 forward @7 unknown #
point $-1 -1 $-1 40 40 -20 #
attrib_edge_convexity-kcp-attrib $-1 -1 $387 $-1 $341 1 #
straight-curve $-1 -1 $-1 0 40 20 -1 0 0 I I #
convexity-sys-attrib $-1 -1 $-1 $358 $316 #
point $-1 -1 $-1 -40 40 20 #
convexity-sys-attrib $-1 -1 $-1 $360 $320 #
attrib_edge_convexity-kcp-attrib $-1 -1 $388 $-1 $363 1 #
straight-curve $-1 -1 $-1 -40 40 0 0 0 -1 I I #
convexity-sys-attrib $-1 -1 $-1 $364 $323 #
point $-1 -1 $-1 -40 40 -20 #
attrib_edge_convexity-kcp-attrib $-1 -1 $389 $-1 $367 1 #
straight-curve $-1 -1 $-1 0 -40 -20 -1 0 0 I I #
straight-curve $-1 -1 $-1 0 40 -20 1 0 0 I I #
convexity-sys-attrib $-1 -1 $-1 $375 $341 #
convexity-sys-attrib $-1 -1 $-1 $380 $363 #
convexity-sys-attrib $-1 -1 $-1 $384 $367 #
End-of-ACIS-data 