600 0 1 0           
81 GICL ACIS Healer - Source: /gicl/data5/repository/Heriot_Watt/ex28/ex28.sat - 6 0 18 ACIS 6.0.3 Solaris 24 Sat Apr 13 23:38:43 2002 
1 9.999999999999999547e-07 1.000000000000000036e-10 
body $-1 $1 $-1 $-1 #
lump $-1 $-1 $2 $0 #
shell $-1 $-1 $-1 $3 $-1 $1 #
face $-1 $4 $5 $2 $-1 $6 forward single #
face $-1 $7 $8 $2 $-1 $9 forward single #
loop $-1 $-1 $10 $3 #
plane-surface $-1 0 0 0 0 0 1 1 0 0 forward_v I I I I #
face $-1 $11 $12 $2 $-1 $13 forward single #
loop $-1 $-1 $14 $4 #
plane-surface $-1 0 -20 10 0 1 0 0 0 1 forward_v I I I I #
coedge $-1 $15 $16 $17 $18 reversed $5 $-1 #
face $-1 $19 $20 $2 $-1 $21 reversed single #
loop $-1 $-1 $22 $7 #
plane-surface $-1 0 20 10 0 -1 0 0 0 -1 forward_v I I I I #
coedge $-1 $23 $24 $25 $26 reversed $8 $-1 #
coedge $-1 $27 $10 $28 $29 reversed $5 $-1 #
coedge $-1 $10 $27 $24 $30 reversed $5 $-1 #
coedge $-1 $31 $32 $10 $18 forward $33 $-1 #
edge $-1 $34 -20 $35 20 $17 $36 forward 7 unknown #
face $-1 $37 $38 $2 $-1 $39 forward single #
loop $-1 $-1 $25 $11 #
plane-surface $-1 -40 0 0 1 0 0 0 0 -1 forward_v I I I I #
coedge $-1 $40 $28 $32 $41 reversed $12 $-1 #
coedge $-1 $42 $14 $43 $44 reversed $8 $-1 #
coedge $-1 $14 $42 $16 $30 forward $8 $-1 #
coedge $-1 $45 $46 $14 $26 forward $20 $-1 #
edge $-1 $47 -15 $48 5 $25 $49 forward 7 unknown #
coedge $-1 $16 $15 $45 $50 reversed $5 $-1 #
coedge $-1 $22 $51 $15 $29 forward $12 $-1 #
edge $-1 $52 -40 $34 40 $28 $53 forward 7 unknown #
edge $-1 $35 -40 $48 40 $24 $54 forward 7 unknown #
coedge $-1 $55 $17 $42 $56 forward $33 $-1 #
coedge $-1 $17 $57 $22 $41 forward $33 $-1 #
loop $-1 $-1 $31 $58 #
vertex $-1 $18 $59 #
vertex $-1 $18 $60 #
straight-curve $-1 40 0 0 0 -1 0 I I #
face $-1 $61 $62 $2 $-1 $39 forward single #
loop $-1 $-1 $63 $19 #
plane-surface $-1 0 0 20 0 0 1 1 0 0 forward_v I I I I #
coedge $-1 $51 $22 $63 $64 reversed $12 $-1 #
edge $-1 $65 -15 $34 5 $32 $66 forward 7 unknown #
coedge $-1 $24 $23 $31 $56 reversed $8 $-1 #
coedge $-1 $67 $68 $23 $44 forward $62 $-1 #
edge $-1 $69 -40 $47 40 $43 $70 forward 7 unknown #
coedge $-1 $71 $25 $27 $50 forward $20 $-1 #
coedge $-1 $25 $72 $67 $73 reversed $20 $-1 #
vertex $-1 $44 $74 #
vertex $-1 $50 $75 #
straight-curve $-1 -40 -20 5 0 0 -1 I I #
edge $-1 $48 -20 $52 20 $45 $76 forward 7 unknown #
coedge $-1 $28 $40 $71 $77 reversed $12 $-1 #
vertex $-1 $50 $78 #
straight-curve $-1 0 20 0 1 0 0 I I #
straight-curve $-1 0 -20 0 -1 0 0 I I #
coedge $-1 $79 $31 $68 $80 reversed $33 $-1 #
edge $-1 $35 -5 $69 15 $31 $81 forward 7 unknown #
coedge $-1 $32 $82 $83 $84 reversed $33 $-1 #
face $-1 $-1 $33 $2 $-1 $85 reversed single #
point $-1 40 20 0 #
point $-1 40 -20 0 #
face $-1 $86 $87 $2 $-1 $88 reversed single #
loop $-1 $-1 $43 $37 #
coedge $-1 $83 $89 $40 $64 forward $38 $-1 #
edge $-1 $90 -40 $65 40 $63 $91 forward 7 unknown #
vertex $-1 $41 $92 #
straight-curve $-1 40 20 5 0 0 -1 I I #
coedge $-1 $93 $43 $46 $73 forward $62 $-1 #
coedge $-1 $43 $93 $55 $80 forward $62 $-1 #
vertex $-1 $80 $94 #
straight-curve $-1 0 -20 20 -1 0 0 I I #
coedge $-1 $95 $45 $51 $77 forward $20 $-1 #
coedge $-1 $46 $96 $97 $98 reversed $20 $-1 #
edge $-1 $47 20 $99 40 $46 $100 forward 7 unknown #
point $-1 -40 -20 20 #
point $-1 -40 -20 0 #
straight-curve $-1 -40 0 0 0 1 0 I I #
edge $-1 $52 -5 $90 15 $71 $101 forward 7 unknown #
point $-1 -40 20 0 #
coedge $-1 $102 $55 $103 $104 forward $33 $-1 #
edge $-1 $105 -40 $69 -20 $55 $106 forward 7 unknown #
straight-curve $-1 40 -20 5 0 0 1 I I #
coedge $-1 $57 $102 $107 $108 reversed $33 $-1 #
coedge $-1 $109 $63 $57 $84 forward $38 $-1 #
edge $-1 $65 20 $110 40 $57 $106 forward 7 unknown #
plane-surface $-1 40 0 0 -1 0 0 0 0 1 forward_v I I I I #
face $-1 $111 $112 $2 $-1 $113 reversed single #
loop $-1 $-1 $114 $61 #
plane-surface $-1 0 0 -20 0 0 1 1 0 0 forward_v I I I I #
coedge $-1 $63 $109 $95 $115 forward $38 $-1 #
vertex $-1 $115 $116 #
straight-curve $-1 0 20 20 1 0 0 I I #
point $-1 40 20 20 #
coedge $-1 $68 $67 $117 $118 forward $62 $-1 #
point $-1 40 -20 20 #
coedge $-1 $119 $71 $89 $115 reversed $20 $-1 #
coedge $-1 $72 $119 $120 $121 reversed $20 $-1 #
coedge $-1 $122 $117 $72 $98 forward $112 $-1 #
edge $-1 $99 -20 $123 20 $72 $124 forward 7 unknown #
vertex $-1 $73 $125 #
straight-curve $-1 -40 0 20 0 -1 0 I I #
straight-curve $-1 -40 20 5 0 0 1 I I #
coedge $-1 $82 $79 $114 $126 reversed $33 $-1 #
coedge $-1 $117 $122 $79 $104 reversed $112 $-1 #
edge $-1 $105 -20 $127 20 $79 $128 forward 7 unknown #
vertex $-1 $80 $129 #
straight-curve $-1 40 0 20 0 1 0 I I #
coedge $-1 $130 $131 $82 $108 forward $132 $-1 #
edge $-1 $110 -20 $133 20 $82 $134 forward 7 unknown #
coedge $-1 $89 $83 $131 $135 forward $38 $-1 #
vertex $-1 $84 $136 #
face $-1 $58 $132 $2 $-1 $137 reversed single #
loop $-1 $-1 $97 $86 #
plane-surface $-1 0 -40 0 0 1 0 0 0 1 forward_v I I I I #
coedge $-1 $138 $139 $102 $126 forward $87 $-1 #
edge $-1 $140 -40 $90 -20 $95 $100 forward 7 unknown #
point $-1 -40 20 20 #
coedge $-1 $97 $103 $93 $118 reversed $112 $-1 #
edge $-1 $99 -40 $105 40 $117 $141 forward 7 unknown #
coedge $-1 $96 $95 $142 $143 forward $20 $-1 #
coedge $-1 $139 $138 $96 $121 forward $87 $-1 #
edge $-1 $123 -40 $144 40 $96 $145 forward 7 unknown #
coedge $-1 $103 $97 $138 $146 reversed $112 $-1 #
vertex $-1 $121 $147 #
straight-curve $-1 -40 -40 0 0 0 -1 I I #
point $-1 -40 -40 20 #
edge $-1 $133 -40 $127 40 $102 $148 forward 7 unknown #
vertex $-1 $104 $149 #
straight-curve $-1 40 -40 0 0 0 -1 I I #
point $-1 40 -40 20 #
coedge $-1 $142 $107 $139 $150 reversed $132 $-1 #
coedge $-1 $107 $142 $109 $135 reversed $132 $-1 #
loop $-1 $-1 $107 $111 #
vertex $-1 $126 $151 #
straight-curve $-1 40 40 0 0 0 -1 I I #
edge $-1 $110 -40 $140 40 $131 $152 forward 7 unknown #
point $-1 40 40 20 #
plane-surface $-1 0 40 0 0 -1 0 0 0 -1 forward_v I I I I #
coedge $-1 $120 $114 $122 $146 forward $87 $-1 #
coedge $-1 $114 $120 $130 $150 forward $87 $-1 #
vertex $-1 $135 $153 #
straight-curve $-1 0 -40 20 1 0 0 I I #
coedge $-1 $131 $130 $119 $143 reversed $132 $-1 #
edge $-1 $140 -20 $144 20 $142 $154 forward 7 unknown #
vertex $-1 $150 $155 #
straight-curve $-1 -40 0 -20 0 1 0 I I #
edge $-1 $127 -40 $123 40 $122 $156 forward 7 unknown #
point $-1 -40 -40 -20 #
straight-curve $-1 40 0 -20 0 -1 0 I I #
point $-1 40 -40 -20 #
edge $-1 $144 -40 $133 40 $130 $157 forward 7 unknown #
point $-1 40 40 -20 #
straight-curve $-1 0 40 20 -1 0 0 I I #
point $-1 -40 40 20 #
straight-curve $-1 -40 40 0 0 0 -1 I I #
point $-1 -40 40 -20 #
straight-curve $-1 0 -40 -20 -1 0 0 I I #
straight-curve $-1 0 40 -20 1 0 0 I I #
End-of-ACIS-data 