600 0 2 0           
24 FBMach with ACIS - 6.0.3 13 ACIS 6.0.3 NT 24 Wed May 23 12:25:18 2001 
1 9.9999999999999995e-007 1e-010 
body $2 $3 $-1 $4 #
bdycol-kcp $-1 1 4 $5 $6 $7 $8 #
model_id-kcp-attrib $-1 $-1 $-1 $0 1 990635118 60 1631322113 1 #
lump $-1 $-1 $9 $0 #
transform $-1 1 0 0 0 1 0 0 0 1 0 0 0 1 no_rotate no_reflect no_shear #
body $10 $11 $-1 $12 #
body $13 $14 $-1 $15 #
body $16 $17 $-1 $18 #
body $19 $20 $-1 $21 #
shell $-1 $-1 $-1 $22 $-1 $3 #
model_id-kcp-attrib $-1 $-1 $-1 $5 1 990635118 70 1631977474 1 #
lump $-1 $-1 $23 $5 #
transform $-1 1 0 0 0 1 0 0 0 1 0 0 0.97350000000000003 1 no_rotate no_reflect no_shear #
rgb_color-st-attrib $-1 $24 $-1 $6 0.5 1 1 #
lump $-1 $-1 $25 $6 #
transform $-1 -1 0 -1.2246063538223773e-016 0 1 0 1.2246063538223773e-016 0 -1 1.6452586363603638e-016 0 0.97350000000000003 1 rotate no_reflect no_shear #
rgb_color-st-attrib $-1 $26 $-1 $7 0.5 1 1 #
lump $-1 $-1 $27 $7 #
transform $-1 1 0 0 0 1 0 0 0 1 0 0 0.97350000000000003 1 no_rotate no_reflect no_shear #
rgb_color-st-attrib $-1 $28 $-1 $8 1 0.5 1 #
lump $-1 $-1 $29 $8 #
transform $-1 1 0 0 0 1 0 0 0 1 0 0 0.97350000000000003 1 no_rotate no_reflect no_shear #
face $30 $31 $32 $9 $-1 $33 reversed single #
shell $-1 $-1 $-1 $34 $-1 $11 #
model_id-kcp-attrib $-1 $-1 $13 $6 1 990635118 90 1633288195 1 #
shell $-1 $-1 $-1 $35 $-1 $14 #
model_id-kcp-attrib $-1 $-1 $16 $7 1 990635118 130 1635909636 1 #
shell $-1 $-1 $-1 $36 $-1 $17 #
model_id-kcp-attrib $-1 $-1 $19 $8 1 990635118 210 1641152517 1 #
shell $-1 $-1 $-1 $37 $-1 $20 #
model_id-kcp-attrib $-1 $-1 $-1 $22 1 990635118 60 1631322113 2 #
face $38 $39 $40 $9 $-1 $41 forward single #
loop $-1 $42 $43 $22 #
plane-surface $-1 0 0 0 0 0 1 1 0 0 forward_v I I I I #
face $44 $45 $46 $23 $-1 $47 forward single #
face $-1 $48 $49 $25 $-1 $50 forward single #
face $-1 $51 $52 $27 $-1 $53 reversed single #
face $-1 $54 $55 $29 $-1 $56 forward single #
model_id-kcp-attrib $-1 $57 $-1 $31 1 990635118 60 1631322113 8 #
face $58 $59 $60 $9 $-1 $61 forward single #
loop $-1 $62 $63 $31 #
plane-surface $-1 0 0 2.3170000000000002 0 0 1 1 0 0 forward_v I I I I #
loop $-1 $-1 $64 $22 #
coedge $-1 $43 $43 $65 $66 forward $32 $-1 #
model_id-kcp-attrib $-1 $-1 $-1 $34 1 990635118 70 1631977474 2 #
face $67 $68 $69 $23 $-1 $70 reversed single #
loop $-1 $-1 $71 $34 #
plane-surface $-1 0 0 1.3435000000000001 0 0 1 1 0 0 forward_v I I I I #
face $-1 $72 $73 $25 $-1 $74 forward single #
loop $-1 $75 $76 $35 #
cone-surface $-1 0 0 0 0 0 1 0.19 0 0 1 I I 0 1 0.19 forward I I I I #
face $-1 $77 $78 $27 $-1 $53 reversed single #
loop $-1 $-1 $79 $36 #
cone-surface $-1 1.8745759022776718e-033 0 1.3435000000000001 0 0 1 0.5 -6.1230317691118863e-017 0 1 I I 0 1 0.5 forward I I I I #
face $-1 $80 $81 $29 $-1 $82 forward single #
loop $-1 $83 $84 $37 #
cone-surface $-1 0 0 -0.97350000000000048 0 0 -1 -0.40625 0 0 1 I I 0 -1 0.40625 forward I I I I #
model_id-kcp-attrib $-1 $-1 $38 $31 1 990635118 60 1631322113 3 #
model_id-kcp-attrib $-1 $-1 $-1 $39 1 990635118 60 1631322113 4 #
face $85 $86 $87 $9 $-1 $88 forward single #
loop $-1 $89 $90 $39 #
cone-surface $-1 0 0 0 0 0 1 0.5 0 0 1 I I 0 1 0.5 forward I I I I #
loop $91 $-1 $92 $31 #
coedge $-1 $63 $63 $90 $93 reversed $40 $-1 #
coedge $-1 $64 $64 $94 $95 forward $42 $-1 #
coedge $-1 $65 $65 $43 $66 reversed $89 $-1 #
edge $-1 $96 -3.1415926535897931 $96 3.1415926535897931 $65 $97 forward 7 unknown #
model_id-kcp-attrib $-1 $-1 $-1 $45 1 990635118 70 1631977474 3 #
face $-1 $98 $99 $23 $-1 $100 reversed single #
loop $-1 $-1 $101 $45 #
plane-surface $-1 0 0 -1.3435000000000001 0 0 1 1 0 0 forward_v I I I I #
coedge $-1 $102 $103 $104 $105 forward $46 $-1 #
face $-1 $-1 $106 $25 $-1 $107 forward single #
loop $-1 $-1 $108 $48 #
plane-surface $-1 0 0 -1.3435000000000001 0 0 -1 -1 0 0 forward_v I I I I #
loop $-1 $-1 $109 $35 #
coedge $-1 $76 $76 $108 $110 reversed $49 $-1 #
face $-1 $111 $112 $27 $-1 $53 reversed single #
loop $-1 $-1 $113 $51 #
coedge $-1 $114 $115 $116 $117 reversed $52 $-1 #
face $-1 $118 $119 $29 $-1 $120 reversed single #
loop $-1 $121 $122 $54 #
cone-surface $-1 1.8745759022776718e-033 0 -0.97350000000000048 0 0 -1 0.5 -6.1230317691118863e-017 0 1 I I 0 1 0.5 forward I I I I #
loop $-1 $-1 $123 $37 #
coedge $-1 $84 $84 $124 $125 forward $55 $-1 #
model_id-kcp-attrib $-1 $126 $-1 $59 1 990635118 60 1631322113 9 #
face $127 $128 $129 $9 $-1 $130 forward single #
loop $-1 $131 $132 $59 #
plane-surface $-1 0 0 -0.37 0 0 -1 -1 0 0 forward_v I I I I #
loop $-1 $-1 $65 $39 #
coedge $-1 $90 $90 $63 $93 forward $60 $-1 #
model_id-kcp-attrib $-1 $-1 $-1 $62 1 990635118 60 1631322113 13 #
coedge $-1 $92 $92 $133 $134 reversed $62 $-1 #
edge $135 $136 0 $136 6.2831853071795862 $90 $137 forward 7 unknown #
coedge $-1 $94 $94 $64 $95 reversed $138 $-1 #
edge $-1 $139 -3.1415926535897931 $139 3.1415926535897931 $94 $140 forward 7 unknown #
vertex $-1 $66 $141 #
ellipse-curve $-1 0 0 0 0 0 -1 -0.5 0 0 1 I I #
face $-1 $142 $143 $23 $-1 $144 reversed single #
loop $-1 $-1 $145 $68 #
plane-surface $-1 0 -0.5 0 0 1 0 0 0 1 forward_v I I I I #
coedge $-1 $146 $147 $148 $149 forward $69 $-1 #
coedge $-1 $150 $71 $151 $152 forward $46 $-1 #
coedge $-1 $71 $150 $153 $154 forward $46 $-1 #
coedge $-1 $155 $156 $71 $105 reversed $157 $-1 #
edge $-1 $158 -0.5 $159 0.5 $104 $160 forward 7 unknown #
loop $-1 $-1 $161 $72 #
plane-surface $-1 0 0 1.3435000000000001 0 0 1 1 0 0 forward_v I I I I #
coedge $-1 $108 $108 $76 $110 forward $73 $-1 #
coedge $-1 $109 $109 $161 $162 reversed $75 $-1 #
edge $-1 $163 0 $163 6.2831853071795862 $108 $164 forward 7 unknown #
face $-1 $165 $166 $27 $-1 $53 reversed single #
loop $-1 $-1 $167 $77 #
coedge $-1 $168 $169 $170 $171 reversed $78 $-1 #
coedge $-1 $172 $79 $173 $174 reversed $52 $-1 #
coedge $-1 $79 $172 $175 $176 reversed $52 $-1 #
coedge $-1 $177 $178 $179 $117 forward $180 $-1 #
edge $-1 $181 -2.6870000000000003 $182 0 $116 $183 forward 7 unknown #
face $-1 $-1 $184 $29 $-1 $185 forward single #
loop $-1 $186 $187 $80 #
plane-surface $-1 -0.041634012539184931 -2.4370226555541877e-018 -1.3435000000000008 -3.4211388289180104e-049 2.3758634321950466e-032 1 1 0 3.4211388289180104e-049 forward_v I I I I #
loop $-1 $-1 $188 $54 #
coedge $-1 $122 $122 $187 $189 forward $81 $-1 #
coedge $-1 $123 $123 $190 $191 reversed $83 $-1 #
coedge $-1 $124 $124 $84 $125 reversed $186 $-1 #
edge $-1 $192 0 $192 6.2831853071795862 $84 $193 forward 7 unknown #
model_id-kcp-attrib $-1 $-1 $85 $59 1 990635118 60 1631322113 5 #
model_id-kcp-attrib $-1 $-1 $-1 $86 1 990635118 60 1631322113 6 #
face $194 $-1 $195 $9 $-1 $196 reversed single #
loop $-1 $138 $197 $86 #
cone-surface $-1 0 0 0 0 0 -1 -0.40625 0 0 1 I I 0 1 0.40625 forward I I I I #
loop $198 $-1 $199 $59 #
coedge $-1 $132 $132 $197 $200 reversed $87 $-1 #
coedge $-1 $133 $133 $92 $134 forward $201 $-1 #
edge $202 $203 0 $203 6.2831853071795862 $133 $204 forward 7 unknown #
attrib_edge_convexity-kcp-attrib $-1 $205 $-1 $93 1 #
vertex $-1 $93 $206 #
ellipse-curve $-1 0 0 2.3170000000000002 0 0 -1 0.5 0 0 1 I I #
loop $-1 $-1 $94 $86 #
vertex $-1 $95 $207 #
ellipse-curve $-1 0 0 0 0 0 1 0.40625 0 0 1 I I #
point $-1 0.5 0 0 #
face $-1 $208 $209 $23 $-1 $210 reversed single #
loop $-1 $-1 $211 $98 #
plane-surface $-1 -0.5 0 0 1 0 0 0 0 -1 forward_v I I I I #
coedge $-1 $212 $153 $213 $214 forward $99 $-1 #
coedge $-1 $215 $101 $212 $216 forward $69 $-1 #
coedge $-1 $101 $215 $217 $218 forward $69 $-1 #
coedge $-1 $156 $155 $101 $149 reversed $157 $-1 #
edge $-1 $219 -0.5 $220 0.5 $148 $221 forward 7 unknown #
coedge $-1 $103 $102 $222 $223 forward $46 $-1 #
coedge $-1 $224 $225 $102 $152 reversed $209 $-1 #
edge $-1 $159 -0.5 $226 0.5 $151 $227 forward 7 unknown #
coedge $-1 $145 $228 $103 $154 reversed $99 $-1 #
edge $-1 $229 -0.5 $158 0.5 $153 $230 forward 7 unknown #
coedge $-1 $148 $104 $228 $231 forward $157 $-1 #
coedge $-1 $104 $148 $224 $232 reversed $157 $-1 #
loop $-1 $-1 $155 $208 #
vertex $-1 $105 $233 #
vertex $-1 $105 $234 #
straight-curve $-1 0.5 0 1.3435000000000001 0 1 0 I I #
coedge $-1 $161 $161 $109 $162 forward $106 $-1 #
edge $-1 $235 0 $235 6.2831853071795862 $161 $236 forward 7 unknown #
vertex $-1 $110 $237 #
ellipse-curve $-1 0 0 -1.3435000000000001 0 0 -1 0.19 0 0 1 I I #
face $-1 $238 $239 $27 $-1 $240 reversed single #
loop $-1 $-1 $241 $111 #
coedge $-1 $242 $243 $244 $245 reversed $112 $-1 #
coedge $-1 $246 $113 $247 $248 reversed $78 $-1 #
coedge $-1 $113 $246 $79 $117 forward $78 $-1 #
coedge $-1 $249 $250 $113 $171 forward $251 $-1 #
edge $-1 $252 -3.1415926535897931 $182 -1.5707963267948968 $170 $253 forward 7 unknown #
coedge $-1 $115 $114 $243 $254 forward $52 $-1 #
coedge $-1 $255 $256 $114 $174 forward $257 $-1 #
edge $-1 $258 1.2246063538223773e-016 $181 1.5707963267948968 $173 $259 forward 7 unknown #
coedge $-1 $260 $261 $115 $176 forward $262 $-1 #
edge $-1 $182 -1.5707963267948968 $263 -1.2246063538223773e-016 $175 $253 forward 7 unknown #
coedge $-1 $264 $116 $261 $265 reversed $180 $-1 #
coedge $-1 $116 $264 $255 $266 reversed $180 $-1 #
coedge $-1 $267 $268 $169 $117 reversed $269 $-1 #
loop $-1 $-1 $116 $270 #
vertex $-1 $266 $271 #
vertex $-1 $272 $273 #
straight-curve $-1 1.8745759022776718e-033 0.5 1.3435000000000001 0 0 1 I I #
loop $-1 $274 $275 $118 #
plane-surface $-1 -0.041634012539184931 -2.4370226555541877e-018 -0.9735000000000007 -3.4211388289180104e-049 2.3758634321950466e-032 1 1 0 3.4211388289180104e-049 forward_v I I I I #
loop $-1 $-1 $124 $80 #
coedge $-1 $187 $187 $122 $189 reversed $119 $-1 #
coedge $-1 $188 $188 $275 $276 reversed $121 $-1 #
edge $-1 $277 -3.1415926535897931 $277 3.1415926535897931 $122 $278 forward 7 unknown #
coedge $-1 $190 $190 $123 $191 forward $274 $-1 #
edge $-1 $279 0 $279 6.2831853071795862 $123 $280 forward 7 unknown #
vertex $-1 $125 $281 #
ellipse-curve $-1 0 0 -1.3435000000000006 0 0 -1 -0.40625 0 0 1 I I #
model_id-kcp-attrib $-1 $-1 $-1 $128 1 990635118 60 1631322113 7 #
loop $282 $201 $283 $128 #
cone-surface $-1 0 0 2.3170000000000002 0 0 -1 -0.19 0 0 1 I I 0 1 0.19 forward I I I I #
coedge $-1 $197 $197 $132 $200 forward $129 $-1 #
model_id-kcp-attrib $-1 $-1 $-1 $131 1 990635118 60 1631322113 12 #
coedge $-1 $199 $199 $283 $284 forward $131 $-1 #
edge $-1 $285 0 $285 6.2831853071795862 $197 $286 forward 7 unknown #
loop $287 $-1 $133 $128 #
attrib_edge_convexity-kcp-attrib $-1 $288 $-1 $134 1 #
vertex $289 $134 $290 #
ellipse-curve $-1 0 0 2.3170000000000002 0 0 1 -0.19 0 0 1 I I #
convexity-sys-attrib $-1 $-1 $135 $93 #
point $-1 0.5 0 2.3170000000000002 #
point $-1 -0.40625 0 0 #
face $-1 $-1 $157 $23 $-1 $291 reversed single #
loop $-1 $-1 $224 $142 #
plane-surface $-1 0 0.5 0 0 -1 0 0 0 -1 forward_v I I I I #
coedge $-1 $292 $222 $225 $293 forward $143 $-1 #
coedge $-1 $228 $145 $146 $216 reversed $99 $-1 #
coedge $-1 $222 $292 $145 $214 reversed $143 $-1 #
edge $-1 $229 -1.3435000000000001 $294 1.3435000000000001 $213 $295 forward 7 unknown #
coedge $-1 $147 $146 $292 $296 forward $69 $-1 #
edge $-1 $220 -0.5 $294 0.5 $212 $297 forward 7 unknown #
coedge $-1 $225 $224 $147 $218 reversed $209 $-1 #
edge $-1 $298 -0.5 $219 0.5 $217 $299 forward 7 unknown #
vertex $-1 $149 $300 #
vertex $-1 $231 $301 #
straight-curve $-1 0.5 0 -1.3435000000000001 0 -1 0 I I #
coedge $-1 $211 $213 $150 $223 reversed $143 $-1 #
edge $-1 $226 -0.5 $229 0.5 $222 $302 forward 7 unknown #
coedge $-1 $217 $151 $156 $232 forward $209 $-1 #
coedge $-1 $151 $217 $211 $293 reversed $209 $-1 #
vertex $-1 $152 $303 #
straight-curve $-1 0 0.5 1.3435000000000001 -1 0 0 I I #
coedge $-1 $153 $212 $155 $231 reversed $99 $-1 #
vertex $-1 $223 $304 #
straight-curve $-1 0 -0.5 1.3435000000000001 1 0 0 I I #
edge $-1 $158 -1.3435000000000001 $220 1.3435000000000001 $155 $305 forward 7 unknown #
edge $-1 $159 -1.3435000000000001 $219 1.3435000000000001 $156 $306 forward 7 unknown #
point $-1 0.5 -0.5 1.3435000000000001 #
point $-1 0.5 0.5 1.3435000000000001 #
vertex $-1 $162 $307 #
ellipse-curve $-1 0 0 1.3435000000000001 0 0 1 0.19 0 0 1 I I #
point $-1 0.19 0 -1.3435000000000001 #
face $-1 $308 $269 $27 $-1 $309 reversed single #
loop $-1 $-1 $310 $165 #
plane-surface $-1 0.5 0 0 -1 0 0 0 0 1 forward_v I I I I #
coedge $-1 $311 $312 $313 $314 reversed $166 $-1 #
coedge $-1 $315 $167 $312 $316 forward $112 $-1 #
coedge $-1 $167 $315 $317 $254 reversed $112 $-1 #
coedge $-1 $318 $319 $167 $245 forward $320 $-1 #
edge $-1 $321 -1.5707963267948966 $258 1.2246063538223773e-016 $244 $259 forward 7 unknown #
coedge $-1 $169 $168 $322 $323 reversed $78 $-1 #
coedge $-1 $324 $325 $326 $248 forward $327 $-1 #
edge $-1 $328 -2.6870000000000003 $252 0 $247 $329 forward 7 unknown #
coedge $-1 $250 $170 $268 $272 forward $251 $-1 #
coedge $-1 $170 $249 $324 $330 forward $251 $-1 #
loop $-1 $-1 $170 $331 #
vertex $-1 $332 $333 #
ellipse-curve $-1 1.8745759022776718e-033 0 1.3435000000000001 0 0 -1 0.5 -6.1230317691118863e-017 0 1 I I #
edge $-1 $258 -2.6870000000000003 $263 0 $317 $334 forward 7 unknown #
coedge $-1 $256 $173 $178 $266 forward $257 $-1 #
coedge $-1 $173 $255 $335 $336 forward $257 $-1 #
loop $-1 $-1 $173 $337 #
vertex $-1 $338 $339 #
ellipse-curve $-1 1.8745759022776718e-033 0 -1.3435000000000001 0 0 1 0.5 -6.1230317691118863e-017 0 1 I I #
coedge $-1 $261 $175 $340 $341 forward $262 $-1 #
coedge $-1 $175 $260 $177 $265 forward $262 $-1 #
loop $-1 $-1 $175 $342 #
vertex $-1 $341 $343 #
coedge $-1 $178 $177 $344 $345 forward $180 $-1 #
edge $-1 $346 -0.5 $182 -1.8745759022776718e-033 $177 $347 forward 7 unknown #
edge $-1 $181 1.8745759022776718e-033 $348 0.5 $178 $349 forward 7 unknown #
coedge $-1 $350 $179 $351 $352 reversed $269 $-1 #
coedge $-1 $179 $350 $249 $272 reversed $269 $-1 #
loop $-1 $-1 $179 $238 #
face $-1 $353 $180 $27 $-1 $309 reversed single #
point $-1 1.8745759022776718e-033 0.5 -1.3435000000000001 #
edge $-1 $182 -1.8745759022776718e-033 $354 0.5 $268 $347 forward 7 unknown #
point $-1 1.8745759022776718e-033 0.5 1.3435000000000001 #
loop $-1 $-1 $190 $118 #
coedge $-1 $275 $275 $188 $276 forward $184 $-1 #
edge $355 $356 -3.1415926535897931 $356 3.1415926535897931 $188 $357 forward 7 unknown #
vertex $-1 $189 $358 #
ellipse-curve $-1 1.8745759022776718e-033 0 -1.3435000000000006 0 0 1 0.5 -6.1230317691118863e-017 0 1 I I #
vertex $-1 $191 $359 #
ellipse-curve $-1 0 0 -0.97350000000000048 0 0 -1 -0.40625 0 0 1 I I #
point $-1 -0.40625 0 -1.3435000000000001 #
model_id-kcp-attrib $-1 $-1 $-1 $195 1 990635118 60 1631322113 10 #
coedge $-1 $283 $283 $199 $284 reversed $195 $-1 #
edge $360 $361 -3.1415926535897931 $361 3.1415926535897931 $283 $362 forward 7 unknown #
vertex $-1 $200 $363 #
ellipse-curve $-1 0 0 -0.37 0 0 1 -0.40625 0 0 1 I I #
model_id-kcp-attrib $-1 $-1 $-1 $201 1 990635118 60 1631322113 11 #
convexity-sys-attrib $-1 $-1 $202 $134 #
model_id-kcp-attrib $-1 $-1 $-1 $203 1 990635118 60 1631322113 15 #
point $-1 -0.19 0 2.3170000000000002 #
plane-surface $-1 0.5 0 0 -1 0 0 0 0 1 forward_v I I I I #
coedge $-1 $213 $211 $215 $296 reversed $143 $-1 #
edge $-1 $226 -1.3435000000000001 $298 1.3435000000000001 $225 $364 forward 7 unknown #
vertex $-1 $296 $365 #
straight-curve $-1 -0.5 -0.5 0 0 0 -1 I I #
edge $-1 $294 -0.5 $298 0.5 $292 $366 forward 7 unknown #
straight-curve $-1 0 -0.5 -1.3435000000000001 -1 0 0 I I #
vertex $-1 $218 $367 #
straight-curve $-1 0 0.5 -1.3435000000000001 1 0 0 I I #
point $-1 0.5 0.5 -1.3435000000000001 #
point $-1 0.5 -0.5 -1.3435000000000001 #
straight-curve $-1 -0.5 0 1.3435000000000001 0 -1 0 I I #
point $-1 -0.5 0.5 1.3435000000000001 #
point $-1 -0.5 -0.5 1.3435000000000001 #
straight-curve $-1 0.5 -0.5 0 0 0 -1 I I #
straight-curve $-1 0.5 0.5 0 0 0 -1 I I #
point $-1 0.19 0 1.3435000000000001 #
face $-1 $368 $369 $27 $-1 $370 reversed single #
plane-surface $-1 0 0.5 0 0 -1 0 0 0 -1 forward_v I I I I #
coedge $-1 $335 $340 $172 $254 reversed $239 $-1 #
coedge $-1 $371 $241 $168 $248 forward $166 $-1 #
coedge $-1 $241 $371 $372 $316 reversed $166 $-1 #
coedge $-1 $373 $374 $241 $314 forward $375 $-1 #
edge $-1 $328 -3.1415926535897931 $321 -1.5707963267948966 $313 $259 forward 7 unknown #
coedge $-1 $243 $242 $376 $377 reversed $112 $-1 #
edge $-1 $321 -2.6870000000000003 $378 0 $372 $379 forward 7 unknown #
coedge $-1 $380 $381 $310 $254 forward $382 $-1 #
coedge $-1 $319 $244 $381 $338 forward $320 $-1 #
coedge $-1 $244 $318 $383 $384 forward $320 $-1 #
loop $-1 $-1 $244 $385 #
vertex $-1 $386 $387 #
coedge $-1 $388 $351 $246 $323 forward $389 $-1 #
edge $-1 $181 1.5707963267948968 $328 3.1415926535897931 $322 $259 forward 7 unknown #
coedge $-1 $390 $247 $250 $330 reversed $327 $-1 #
coedge $-1 $247 $390 $388 $391 reversed $327 $-1 #
coedge $-1 $392 $393 $311 $248 reversed $369 $-1 #
loop $-1 $-1 $247 $394 #
vertex $-1 $391 $395 #
straight-curve $-1 -0.5 0 1.3435000000000001 0 0 1 I I #
edge $-1 $354 -0.5 $252 0 $324 $396 forward 7 unknown #
face $-1 $342 $251 $27 $-1 $397 forward single #
edge $-1 $252 0 $398 0.5 $393 $396 forward 7 unknown #
point $-1 -0.5 0 1.3435000000000001 #
straight-curve $-1 0.5 0 1.3435000000000001 0 0 1 I I #
coedge $-1 $344 $310 $256 $336 reversed $239 $-1 #
edge $-1 $348 -0.5 $258 0 $335 $399 forward 7 unknown #
face $-1 $400 $257 $27 $-1 $401 reversed single #
edge $-1 $258 0 $402 0.5 $381 $399 forward 7 unknown #
point $-1 0.5 0 -1.3435000000000001 #
coedge $-1 $310 $344 $260 $341 reversed $239 $-1 #
edge $-1 $263 0 $346 0.5 $340 $403 forward 7 unknown #
face $-1 $404 $262 $27 $-1 $397 forward single #
point $-1 0.5 0 1.3435000000000001 #
coedge $-1 $340 $335 $264 $345 reversed $239 $-1 #
edge $-1 $346 -1.3435000000000001 $348 1.3435000000000001 $344 $405 forward 7 unknown #
vertex $-1 $341 $406 #
straight-curve $-1 0 0.5 1.3435000000000001 -1 0 0 I I #
vertex $-1 $336 $407 #
straight-curve $-1 0 0.5 -1.3435000000000001 1 0 0 I I #
coedge $-1 $268 $267 $390 $408 reversed $269 $-1 #
coedge $-1 $322 $388 $267 $352 forward $389 $-1 #
edge $-1 $409 -0.5 $181 1.8745759022776718e-033 $267 $349 forward 7 unknown #
face $-1 $-1 $382 $27 $-1 $240 reversed single #
vertex $-1 $272 $410 #
convexity-sys-attrib $-1 $-1 $-1 $276 #
vertex $-1 $276 $411 #
ellipse-curve $-1 1.8745759022776718e-033 0 -0.97350000000000048 0 0 1 0.5 -6.1230317691118863e-017 0 1 I I #
point $-1 -0.5 0 -1.3435000000000006 #
point $-1 -0.40625 0 -0.97350000000000003 #
attrib_edge_convexity-kcp-attrib $-1 $412 $-1 $284 1 #
vertex $413 $284 $414 #
ellipse-curve $-1 0 0 -0.37 0 0 1 0.19 0 0 1 I I #
point $-1 -0.40625 0 -0.37 #
straight-curve $-1 -0.5 0.5 0 0 0 -1 I I #
point $-1 -0.5 -0.5 -1.3435000000000001 #
straight-curve $-1 -0.5 0 -1.3435000000000001 0 1 0 I I #
point $-1 -0.5 0.5 -1.3435000000000001 #
face $-1 $331 $415 $27 $-1 $397 forward single #
loop $-1 $-1 $326 $308 #
plane-surface $-1 -0.5 0 0 1 0 0 0 0 -1 forward_v I I I I #
coedge $-1 $312 $311 $416 $417 reversed $166 $-1 #
coedge $-1 $418 $419 $420 $316 forward $421 $-1 #
coedge $-1 $374 $313 $419 $386 forward $375 $-1 #
coedge $-1 $313 $373 $392 $422 forward $375 $-1 #
loop $-1 $-1 $313 $423 #
coedge $-1 $424 $425 $315 $377 forward $426 $-1 #
edge $-1 $263 -1.2246063538223773e-016 $378 1.5707963267948966 $376 $253 forward 7 unknown #
vertex $-1 $427 $428 #
straight-curve $-1 1.8745759022776718e-033 -0.5 1.3435000000000001 0 0 1 I I #
coedge $-1 $429 $317 $425 $430 reversed $382 $-1 #
coedge $-1 $317 $429 $318 $338 reversed $382 $-1 #
loop $-1 $-1 $317 $353 #
coedge $-1 $431 $420 $319 $384 reversed $432 $-1 #
edge $-1 $402 -0.5 $321 -1.8745759022776718e-033 $383 $433 forward 7 unknown #
face $-1 $337 $320 $27 $-1 $401 reversed single #
edge $-1 $321 -1.8745759022776718e-033 $434 0.5 $419 $433 forward 7 unknown #
point $-1 1.8745759022776718e-033 -0.5 -1.3435000000000001 #
coedge $-1 $351 $322 $325 $391 forward $389 $-1 #
loop $-1 $-1 $322 $400 #
coedge $-1 $325 $324 $350 $408 forward $327 $-1 #
edge $-1 $328 0 $409 0.5 $325 $435 forward 7 unknown #
coedge $-1 $436 $326 $374 $422 reversed $369 $-1 #
coedge $-1 $326 $436 $437 $332 reversed $369 $-1 #
face $-1 $270 $327 $27 $-1 $370 reversed single #
point $-1 -0.5 0 -1.3435000000000001 #
straight-curve $-1 -0.5 0 1.3435000000000001 0 -1 0 I I #
plane-surface $-1 0 0 1.3435000000000001 0 0 1 1 0 0 forward_v I I I I #
vertex $-1 $332 $438 #
straight-curve $-1 0.5 0 -1.3435000000000001 0 -1 0 I I #
face $-1 $439 $389 $27 $-1 $401 reversed single #
plane-surface $-1 0 0 -1.3435000000000001 0 0 1 1 0 0 forward_v I I I I #
vertex $-1 $440 $441 #
straight-curve $-1 0.5 0 1.3435000000000001 0 1 0 I I #
face $-1 $442 $426 $27 $-1 $397 forward single #
straight-curve $-1 0.5 0.5 0 0 0 -1 I I #
point $-1 0.5 0.5 1.3435000000000001 #
point $-1 0.5 0.5 -1.3435000000000001 #
edge $-1 $354 -1.3435000000000001 $409 1.3435000000000001 $350 $443 forward 7 unknown #
vertex $-1 $352 $444 #
point $-1 -0.5 0.5 1.3435000000000001 #
point $-1 -0.5 0 -0.97350000000000048 #
convexity-sys-attrib $-1 $-1 $360 $284 #
model_id-kcp-attrib $-1 $-1 $-1 $361 1 990635118 60 1631322113 14 #
point $-1 -0.19 0 -0.37 #
loop $-1 $-1 $416 $368 #
coedge $-1 $437 $445 $371 $417 forward $415 $-1 #
edge $-1 $378 1.5707963267948966 $252 3.1415926535897931 $416 $253 forward 7 unknown #
coedge $-1 $446 $372 $445 $447 reversed $421 $-1 #
coedge $-1 $372 $446 $373 $386 reversed $421 $-1 #
coedge $-1 $383 $448 $242 $316 reversed $432 $-1 #
loop $-1 $-1 $372 $439 #
edge $-1 $434 -0.5 $328 0 $392 $435 forward 7 unknown #
face $-1 $385 $375 $27 $-1 $401 reversed single #
coedge $-1 $425 $376 $448 $427 forward $426 $-1 #
coedge $-1 $376 $424 $380 $430 forward $426 $-1 #
loop $-1 $-1 $376 $404 #
edge $-1 $378 1.8745759022776718e-033 $449 0.5 $448 $450 forward 7 unknown #
point $-1 1.8745759022776718e-033 -0.5 1.3435000000000001 #
coedge $-1 $381 $380 $431 $440 forward $382 $-1 #
edge $-1 $449 -0.5 $263 0 $380 $403 forward 7 unknown #
coedge $-1 $448 $383 $429 $440 reversed $432 $-1 #
loop $-1 $-1 $420 $442 #
straight-curve $-1 0 -0.5 -1.3435000000000001 -1 0 0 I I #
vertex $-1 $422 $451 #
straight-curve $-1 -0.5 0 -1.3435000000000001 0 1 0 I I #
coedge $-1 $393 $392 $446 $452 reversed $369 $-1 #
coedge $-1 $445 $416 $393 $332 forward $415 $-1 #
point $-1 -0.5 -0.5 1.3435000000000001 #
face $-1 $394 $421 $27 $-1 $453 reversed single #
edge $-1 $449 -1.3435000000000001 $402 1.3435000000000001 $429 $454 forward 7 unknown #
point $-1 0.5 -0.5 -1.3435000000000001 #
face $-1 $423 $432 $27 $-1 $453 reversed single #
straight-curve $-1 -0.5 0.5 0 0 0 -1 I I #
point $-1 -0.5 0.5 -1.3435000000000001 #
coedge $-1 $416 $437 $418 $447 forward $415 $-1 #
coedge $-1 $419 $418 $436 $452 forward $421 $-1 #
edge $-1 $398 -0.5 $378 1.8745759022776718e-033 $418 $450 forward 7 unknown #
coedge $-1 $420 $431 $424 $427 reversed $432 $-1 #
vertex $-1 $430 $455 #
straight-curve $-1 0 -0.5 1.3435000000000001 1 0 0 I I #
point $-1 -0.5 -0.5 -1.3435000000000001 #
edge $-1 $398 -1.3435000000000001 $434 1.3435000000000001 $436 $456 forward 7 unknown #
plane-surface $-1 0 -0.5 0 0 1 0 0 0 1 forward_v I I I I #
straight-curve $-1 0.5 -0.5 0 0 0 -1 I I #
point $-1 0.5 -0.5 1.3435000000000001 #
straight-curve $-1 -0.5 -0.5 0 0 0 -1 I I #
End-of-ACIS-data 