600 0 1 0           
93 GICL ACIS Healer - Source: /gicl/data5/repository/new/Spectrometer/bearing_post1_56.sat - 6 0 18 ACIS 6.0.3 Solaris 24 Sat Apr 13 20:34:54 2002 
1 9.999999999999999547e-07 1.000000000000000036e-10 
body $-1 $1 $-1 $2 #
lump $-1 $-1 $3 $0 #
transform $-1 1 0 0 0 1 0 0 0 1 0 0 0 1 no_rotate no_reflect no_shear #
shell $-1 $-1 $-1 $4 $-1 $1 #
face $-1 $5 $6 $3 $-1 $7 forward single #
face $-1 $8 $9 $3 $-1 $10 reversed single #
loop $-1 $11 $12 $4 #
plane-surface $-1 0 0 -6.125 0 0 1 1 0 0 forward_v I I I I #
face $-1 $13 $14 $3 $-1 $15 reversed single #
loop $-1 $-1 $16 $5 #
plane-surface $-1 0 0 -8.092999999999999972 0 0 1 1 0 0 forward_v I I I I #
loop $-1 $17 $18 $4 #
coedge $-1 $12 $12 $19 $20 reversed $6 $-1 #
face $-1 $21 $22 $3 $-1 $23 reversed single #
loop $-1 $24 $25 $8 #
plane-surface $-1 0 0 -7.51499999999999968 0 0 1 1 0 0 forward_v I I I I #
coedge $-1 $16 $16 $26 $27 reversed $9 $-1 #
loop $-1 $28 $29 $4 #
coedge $-1 $18 $18 $30 $31 reversed $11 $-1 #
coedge $-1 $19 $19 $12 $20 forward $32 $-1 #
edge $-1 $33 0 $33 6.283185307179586232 $19 $34 forward 7 unknown #
face $-1 $35 $36 $3 $-1 $37 reversed single #
loop $-1 $38 $39 $13 #
plane-surface $-1 0 0 -6.312000000000000277 0 0 1 1 0 0 forward_v I I I I #
loop $-1 $-1 $40 $8 #
coedge $-1 $25 $25 $41 $42 forward $14 $-1 #
coedge $-1 $26 $26 $16 $27 forward $43 $-1 #
edge $-1 $44 0 $44 6.283185307179586232 $26 $45 forward 7 unknown #
loop $-1 $46 $47 $4 #
coedge $-1 $29 $29 $48 $49 reversed $17 $-1 #
coedge $-1 $30 $30 $18 $31 forward $50 $-1 #
edge $-1 $51 0 $51 6.283185307179586232 $30 $52 forward 7 unknown #
loop $-1 $-1 $19 $53 #
vertex $-1 $20 $54 #
ellipse-curve $-1 0 0 -6.125 0 0 -1 0.7179999999999999716 0 0 1 I I #
face $-1 $55 $43 $3 $-1 $56 forward single #
loop $-1 $57 $58 $21 #
plane-surface $-1 0 0 -6.280999999999999694 0 0 1 1 0 0 forward_v I I I I #
loop $-1 $-1 $59 $13 #
coedge $-1 $39 $39 $60 $61 forward $22 $-1 #
coedge $-1 $40 $40 $62 $63 reversed $24 $-1 #
coedge $-1 $41 $41 $25 $42 reversed $64 $-1 #
edge $-1 $65 -3.141592653589793116 $65 3.141592653589793116 $41 $66 forward 7 unknown #
loop $-1 $67 $26 $35 #
vertex $-1 $27 $68 #
ellipse-curve $-1 0 0 -8.09300000000001063 0 0 1 0.06500000000000000222 0 0 1 I I #
loop $-1 $-1 $69 $4 #
coedge $-1 $47 $47 $70 $71 reversed $28 $-1 #
coedge $-1 $48 $48 $29 $49 forward $72 $-1 #
edge $-1 $73 0 $73 6.283185307179586232 $48 $74 forward 7 unknown #
loop $-1 $-1 $30 $75 #
vertex $-1 $31 $76 #
ellipse-curve $-1 0.5 0 -6.125 0 0 1 -0.07499999999999999722 0 0 1 I I #
face $-1 $77 $78 $3 $-1 $79 forward single #
point $-1 0.7179999999999999716 0 -6.125 #
face $-1 $80 $81 $3 $-1 $82 forward single #
cone-surface $-1 0 0 -8.032999999999999474 0 0 1 0.125 0 0 1 I I 0.707106781186549016 0.7071067811865460184 0.125 forward I I I I #
loop $-1 $83 $84 $21 #
coedge $-1 $58 $58 $85 $86 forward $36 $-1 #
coedge $-1 $59 $59 $87 $88 reversed $38 $-1 #
coedge $-1 $60 $60 $39 $61 reversed $89 $-1 #
edge $-1 $90 -3.141592653589793116 $90 3.141592653589793116 $60 $91 forward 7 unknown #
coedge $-1 $62 $62 $40 $63 forward $92 $-1 #
edge $-1 $93 0 $93 6.283185307179586232 $62 $94 forward 7 unknown #
loop $-1 $-1 $41 $95 #
vertex $-1 $42 $96 #
ellipse-curve $-1 0 0 -7.51499999999999968 0 0 1 0.09500000000000000111 0 0 1 I I #
loop $-1 $-1 $97 $35 #
point $-1 0.06500000000000000222 0 -8.09300000000001063 #
coedge $-1 $69 $69 $98 $99 reversed $46 $-1 #
coedge $-1 $70 $70 $47 $71 forward $100 $-1 #
edge $-1 $101 0 $101 6.283185307179586232 $70 $102 forward 7 unknown #
loop $-1 $-1 $48 $103 #
vertex $-1 $49 $104 #
ellipse-curve $-1 0 0.5 -6.125 0 0 1 -0.07499999999999999722 0 0 1 I I #
face $-1 $105 $106 $3 $-1 $107 reversed single #
point $-1 0.4249999999999999889 0 -6.125 #
face $-1 $75 $108 $3 $-1 $109 reversed single #
loop $-1 $32 $110 $53 #
cone-surface $-1 0 0 -6.157000000000000028 0 0 -1 0.7500000000000009992 0 0 1 I I 0.7071067811865480168 0.7071067811865470176 0.7500000000000009992 forward I I I I #
face $-1 $95 $111 $3 $-1 $112 forward single #
loop $-1 $113 $114 $55 #
cone-surface $-1 0 0 -6.026600000000000179 0 0 1 -0.125 0 0 1 I I 0 1 0.125 forward I I I I #
loop $-1 $115 $116 $21 #
coedge $-1 $84 $84 $117 $118 reversed $57 $-1 #
coedge $-1 $85 $85 $58 $86 reversed $119 $-1 #
edge $-1 $120 -3.141592653589793116 $120 3.141592653589793116 $85 $121 forward 7 unknown #
coedge $-1 $87 $87 $59 $88 forward $122 $-1 #
edge $-1 $123 0 $123 6.283185307179586232 $87 $124 forward 7 unknown #
loop $-1 $-1 $60 $125 #
vertex $-1 $61 $126 #
ellipse-curve $-1 0 0 -6.312000000000000277 0 0 1 0.1875 0 0 1 I I #
loop $-1 $89 $62 $125 #
vertex $-1 $63 $127 #
ellipse-curve $-1 0 0 -7.51499999999999968 0 0 1 0.1875 0 0 1 I I #
face $-1 $125 $128 $3 $-1 $129 forward single #
point $-1 -0.09500000000000000111 0 -7.51499999999999968 #
coedge $-1 $97 $97 $114 $130 reversed $67 $-1 #
coedge $-1 $98 $98 $69 $99 forward $131 $-1 #
edge $-1 $132 0 $132 6.283185307179586232 $98 $133 forward 7 unknown #
loop $-1 $-1 $70 $134 #
vertex $-1 $71 $135 #
ellipse-curve $-1 0 -0.5 -6.125 0 0 1 -0.07499999999999999722 0 0 1 I I #
face $-1 $136 $137 $3 $-1 $138 reversed single #
point $-1 -0.07499999999999999722 0.5 -6.125 #
face $-1 $103 $139 $3 $-1 $140 reversed single #
loop $-1 $50 $141 $75 #
cone-surface $-1 0.5 0 -6.206105123163959902 0 0 -1 -0.07499999999999999722 0 0 1 I I 0 1 0.07499999999999999722 forward I I I I #
loop $-1 $142 $143 $77 #
cone-surface $-1 0.5 0 -6.280999999999999694 0 0 -1 0.1400000000000000133 0 0 1 I I 0.6560590289905070538 0.754709580222772014 0.1400000000000000133 forward I I I I #
coedge $-1 $110 $110 $144 $145 forward $78 $-1 #
loop $-1 $146 $147 $80 #
cone-surface $-1 0 0 -7.594999999999999751 0 0 -1 0.125 0 0 1 I I 0.7071067811865470176 0.7071067811865480168 0.125 forward I I I I #
loop $-1 $-1 $148 $55 #
coedge $-1 $114 $114 $97 $130 forward $81 $-1 #
loop $-1 $149 $150 $21 #
coedge $-1 $116 $116 $143 $151 reversed $83 $-1 #
coedge $-1 $117 $117 $84 $118 forward $152 $-1 #
edge $-1 $153 0 $153 6.283185307179586232 $117 $154 forward 7 unknown #
loop $-1 $-1 $85 $155 #
vertex $-1 $86 $156 #
ellipse-curve $-1 0 0 -6.280999999999999694 0 0 1 0.25 0 0 1 I I #
loop $-1 $119 $87 $155 #
vertex $-1 $88 $157 #
ellipse-curve $-1 0 0 -6.312000000000000277 0 0 1 0.25 0 0 1 I I #
face $-1 $155 $92 $3 $-1 $158 forward single #
point $-1 -0.1875 0 -6.312000000000000277 #
point $-1 0.1875 0 -7.51499999999999968 #
loop $-1 $64 $159 $95 #
cone-surface $-1 0 0 -6.026600000000000179 0 0 1 -0.09500000000000000111 0 0 1 I I 0 1 0.09500000000000000111 forward I I I I #
edge $-1 $160 -3.141592653589793116 $160 3.141592653589793116 $114 $161 forward 7 unknown #
loop $-1 $-1 $98 $162 #
vertex $-1 $99 $163 #
ellipse-curve $-1 -0.5 0 -6.125 0 0 1 -0.07499999999999999722 0 0 1 I I #
face $-1 $164 $165 $3 $-1 $166 reversed single #
point $-1 -0.07499999999999999722 -0.5 -6.125 #
face $-1 $134 $167 $3 $-1 $168 reversed single #
loop $-1 $72 $169 $103 #
cone-surface $-1 0 0.5 -6.206105123163959902 0 0 -1 -0.07499999999999999722 0 0 1 I I 0 1 0.07499999999999999722 forward I I I I #
loop $-1 $170 $171 $105 #
cone-surface $-1 0 0.5 -6.280999999999999694 0 0 -1 0 0.1400000000000000133 0 1 I I 0.6560590289905070538 0.754709580222772014 0.1400000000000000133 forward I I I I #
coedge $-1 $141 $141 $172 $173 reversed $106 $-1 #
loop $-1 $-1 $172 $77 #
coedge $-1 $143 $143 $116 $151 forward $108 $-1 #
coedge $-1 $144 $144 $110 $145 reversed $174 $-1 #
edge $-1 $175 -3.141592653589793116 $175 3.141592653589793116 $110 $176 forward 7 unknown #
loop $-1 $-1 $177 $80 #
coedge $-1 $147 $147 $148 $178 forward $111 $-1 #
coedge $-1 $148 $148 $147 $178 reversed $113 $-1 #
loop $-1 $179 $180 $21 #
coedge $-1 $150 $150 $171 $181 reversed $115 $-1 #
edge $-1 $182 0 $182 6.283185307179586232 $143 $183 forward 7 unknown #
loop $-1 $174 $117 $184 #
vertex $-1 $118 $185 #
ellipse-curve $-1 0 0 -6.280999999999999694 0 0 1 0.75 0 0 1 I I #
face $-1 $184 $122 $3 $-1 $186 forward single #
point $-1 -0.25 0 -6.280999999999999694 #
point $-1 0.25 0 -6.312000000000000277 #
cone-surface $-1 0 0 -6.026600000000000179 0 0 1 -0.1875 0 0 1 I I 0 1 0.1875 forward I I I I #
coedge $-1 $159 $159 $177 $187 forward $128 $-1 #
vertex $-1 $130 $188 #
ellipse-curve $-1 0 0 -8.032999999999999474 0 0 1 0.125 0 0 1 I I #
face $-1 $-1 $189 $3 $-1 $190 reversed single #
point $-1 -0.5749999999999999556 0 -6.125 #
face $-1 $162 $191 $3 $-1 $192 reversed single #
loop $-1 $100 $193 $134 #
cone-surface $-1 0 -0.5 -6.206105123163959902 0 0 -1 -0.07499999999999999722 0 0 1 I I 0 1 0.07499999999999999722 forward I I I I #
loop $-1 $194 $195 $136 #
cone-surface $-1 0 -0.5 -6.280999999999999694 0 0 -1 0 -0.1400000000000000133 0 1 I I 0.6560590289905070538 0.754709580222772014 0.1400000000000000133 forward I I I I #
coedge $-1 $169 $169 $196 $197 reversed $137 $-1 #
loop $-1 $-1 $196 $105 #
coedge $-1 $171 $171 $150 $181 forward $139 $-1 #
coedge $-1 $172 $172 $141 $173 forward $142 $-1 #
edge $-1 $198 -3.141592653589793116 $198 3.141592653589793116 $141 $199 forward 7 unknown #
loop $-1 $-1 $144 $184 #
vertex $-1 $145 $200 #
ellipse-curve $-1 0 0 -6.157000000000000028 0 0 1 0.7500000000000009992 0 0 1 I I #
coedge $-1 $177 $177 $159 $187 reversed $146 $-1 #
edge $-1 $201 -3.141592653589793116 $201 3.141592653589793116 $147 $202 forward 7 unknown #
loop $-1 $-1 $203 $21 #
coedge $-1 $180 $180 $195 $204 reversed $149 $-1 #
edge $-1 $205 0 $205 6.283185307179586232 $171 $206 forward 7 unknown #
vertex $-1 $151 $207 #
ellipse-curve $-1 0.5 0 -6.280999999999999694 0 0 -1 -0.1400000000000000133 0 0 1 I I #
face $-1 $53 $152 $3 $-1 $208 forward single #
point $-1 0.75 0 -6.280999999999999694 #
cone-surface $-1 0 0 -6.026600000000000179 0 0 1 -0.25 0 0 1 I I 0 1 0.25 forward I I I I #
edge $-1 $209 -3.141592653589793116 $209 3.141592653589793116 $159 $210 forward 7 unknown #
point $-1 -0.125 0 -8.032999999999999474 #
loop $-1 $131 $211 $162 #
cone-surface $-1 -0.5 0 -6.206105123163959902 0 0 -1 -0.07499999999999999722 0 0 1 I I 0 1 0.07499999999999999722 forward I I I I #
loop $-1 $212 $213 $164 #
cone-surface $-1 -0.5 0 -6.280999999999999694 0 0 -1 -0.1400000000000000133 0 0 1 I I 0.6560590289905070538 0.754709580222772014 0.1400000000000000133 forward I I I I #
coedge $-1 $193 $193 $214 $215 reversed $165 $-1 #
loop $-1 $-1 $214 $136 #
coedge $-1 $195 $195 $180 $204 forward $167 $-1 #
coedge $-1 $196 $196 $169 $197 forward $170 $-1 #
edge $-1 $216 -1.570796326794896558 $216 4.712388980384689674 $169 $217 forward 7 unknown #
vertex $-1 $173 $218 #
ellipse-curve $-1 0.5 0 -6.206226053530640385 0 0 1 -0.07499999999999999722 0 0 1 I I #
point $-1 -0.7500000000000009992 0 -6.157000000000000028 #
vertex $-1 $178 $219 #
ellipse-curve $-1 0 0 -7.594999999999999751 0 0 1 0.125 0 0 1 I I #
coedge $-1 $203 $203 $213 $220 reversed $179 $-1 #
edge $-1 $221 0 $221 6.283185307179586232 $195 $222 forward 7 unknown #
vertex $-1 $181 $223 #
ellipse-curve $-1 0 0.5 -6.280999999999999694 0 0 -1 0 -0.1400000000000000133 0 1 I I #
point $-1 0.3599999999999999867 0 -6.280999999999999694 #
cone-surface $-1 0 0 -6.026600000000000179 0 0 1 -0.75 0 0 1 I I 0 1 0.75 forward I I I I #
vertex $-1 $187 $224 #
ellipse-curve $-1 0 0 -7.565000000000000391 0 0 1 0.09500000000000000111 0 0 1 I I #
coedge $-1 $211 $211 $225 $226 reversed $189 $-1 #
loop $-1 $-1 $225 $164 #
coedge $-1 $213 $213 $203 $220 forward $191 $-1 #
coedge $-1 $214 $214 $193 $215 forward $194 $-1 #
edge $-1 $227 0 $227 6.283185307179586232 $193 $228 forward 7 unknown #
vertex $-1 $197 $229 #
ellipse-curve $-1 0 0.5 -6.206226053530640385 0 0 1 0 -0.07499999999999999722 0 1 I I #
point $-1 0.5749999999999999556 0 -6.206226053530640385 #
point $-1 -0.125 0 -7.594999999999999751 #
edge $-1 $230 0 $230 6.283185307179586232 $213 $231 forward 7 unknown #
vertex $-1 $204 $232 #
ellipse-curve $-1 0 -0.5 -6.280999999999999694 0 0 -1 0 0.1400000000000000133 0 1 I I #
point $-1 0 0.3599999999999999867 -6.280999999999999694 #
point $-1 -0.09500000000000000111 0 -7.565000000000000391 #
coedge $-1 $225 $225 $211 $226 forward $212 $-1 #
edge $-1 $233 -3.141592653589793116 $233 3.141592653589793116 $211 $234 forward 7 unknown #
vertex $-1 $215 $235 #
ellipse-curve $-1 0 -0.5 -6.206226053530640385 0 0 1 0.07499999999999999722 0 0 1 I I #
point $-1 -0.07499999999999999722 0.5 -6.206226053530640385 #
vertex $-1 $220 $236 #
ellipse-curve $-1 -0.5 0 -6.280999999999999694 0 0 -1 0.1400000000000000133 0 0 1 I I #
point $-1 0 -0.3599999999999999867 -6.280999999999999694 #
vertex $-1 $226 $237 #
ellipse-curve $-1 -0.5 0 -6.206226053530640385 0 0 1 0.07499999999999999722 0 0 1 I I #
point $-1 0.07499999999999999722 -0.5 -6.206226053530640385 #
point $-1 -0.3599999999999999867 0 -6.280999999999999694 #
point $-1 -0.5749999999999999556 0 -6.206226053530640385 #
End-of-ACIS-data 