600 0 2 0           
24 FBMach with ACIS - 6.0.3 13 ACIS 6.0.3 NT 24 Wed May 23 12:25:19 2001 
1 9.9999999999999995e-007 1e-010 
body $2 $3 $-1 $4 #
bdycol-kcp $-1 1 4 $5 $6 $7 $8 #
model_id-kcp-attrib $-1 $-1 $-1 $0 1 990635119 50 -2043543551 1 #
lump $-1 $-1 $9 $0 #
transform $-1 1 0 0 0 1 0 0 0 1 0 0 0 1 no_rotate no_reflect no_shear #
body $10 $11 $-1 $12 #
body $13 $14 $-1 $15 #
body $16 $17 $-1 $18 #
body $19 $20 $-1 $21 #
shell $-1 $-1 $-1 $22 $-1 $3 #
model_id-kcp-attrib $-1 $-1 $-1 $5 1 990635119 70 -2042232830 1 #
lump $-1 $-1 $23 $5 #
transform $-1 1 0 0 0 1 0 0 0 1 0 0.14050000000000001 0 1 no_rotate no_reflect no_shear #
rgb_color-st-attrib $-1 $24 $-1 $6 0.5 1 1 #
lump $-1 $-1 $25 $6 #
transform $-1 1 0 0 0 -3.8285889215894375e-016 1 0 -1 -3.8285889215894375e-016 0 0.14050000000000001 -5.3791674348331603e-017 1 rotate no_reflect no_shear #
rgb_color-st-attrib $-1 $26 $-1 $7 0.5 1 1 #
lump $-1 $-1 $27 $7 #
transform $-1 1 0 0 0 1 0 0 0 1 0 0.14050000000000001 0 1 no_rotate no_reflect no_shear #
rgb_color-st-attrib $-1 $28 $-1 $8 1 0.5 1 #
lump $-1 $-1 $29 $8 #
transform $-1 1 0 0 0 1 0 0 0 1 0 0.14050000000000001 0 1 no_rotate no_reflect no_shear #
face $30 $31 $32 $9 $-1 $33 reversed single #
shell $-1 $-1 $-1 $34 $-1 $11 #
model_id-kcp-attrib $-1 $-1 $13 $6 1 990635119 80 -2041577469 1 #
shell $-1 $-1 $-1 $35 $-1 $14 #
model_id-kcp-attrib $-1 $-1 $16 $7 1 990635119 140 -2037645308 1 #
shell $-1 $-1 $-1 $36 $-1 $17 #
model_id-kcp-attrib $-1 $-1 $19 $8 1 990635119 230 -2031747067 1 #
shell $-1 $-1 $-1 $37 $-1 $20 #
model_id-kcp-attrib $-1 $38 $-1 $22 1 990635119 50 -2043543551 8 #
face $39 $40 $41 $9 $-1 $42 forward single #
loop $-1 $43 $44 $22 #
plane-surface $-1 0 0 0 0 1 0 0 0 1 forward_v I I I I #
face $-1 $45 $46 $23 $-1 $47 forward single #
face $-1 $48 $49 $25 $-1 $50 forward single #
face $-1 $51 $52 $27 $-1 $53 reversed single #
face $-1 $54 $55 $29 $-1 $56 forward single #
model_id-kcp-attrib $-1 $-1 $30 $22 1 990635119 50 -2043543551 2 #
model_id-kcp-attrib $-1 $-1 $-1 $31 1 990635119 50 -2043543551 3 #
face $57 $58 $59 $9 $-1 $60 forward single #
loop $-1 $61 $62 $31 #
plane-surface $-1 0 0.062 0 0 1 0 0 0 1 forward_v I I I I #
loop $63 $-1 $64 $22 #
coedge $-1 $44 $44 $65 $66 forward $32 $-1 #
face $-1 $67 $68 $23 $-1 $69 reversed single #
loop $-1 $-1 $70 $34 #
plane-surface $-1 0 0 0.48449999999999999 0 0 1 1 0 0 forward_v I I I I #
face $-1 $71 $72 $25 $-1 $73 forward single #
loop $-1 $74 $75 $35 #
cone-surface $-1 0 0 0 0 0 1 0.1875 0 0 1 I I 0 1 0.1875 forward I I I I #
face $-1 $76 $77 $27 $-1 $53 reversed single #
loop $-1 $-1 $78 $36 #
cone-surface $-1 -1.816464049307064e-033 -0.14050000000000001 0 0 -1 0 0.48449999999999999 0 0 1 I I 0 1 0.48449999999999999 forward I I I I #
face $-1 $79 $80 $29 $-1 $81 forward single #
loop $-1 $82 $83 $37 #
cone-surface $-1 0 -0.078500000000000014 0 0 1 0 0.4375 0 0 1 I I 0 -1 0.4375 forward I I I I #
model_id-kcp-attrib $-1 $-1 $-1 $40 1 990635119 50 -2043543551 4 #
face $84 $85 $86 $9 $-1 $87 forward single #
loop $-1 $88 $89 $40 #
cone-surface $-1 0 0 0 0 1 0 0.48449999999999999 0 0 1 I I 0 1 0.48449999999999999 forward I I I I #
loop $-1 $-1 $90 $31 #
coedge $-1 $62 $62 $89 $91 reversed $41 $-1 #
model_id-kcp-attrib $-1 $-1 $-1 $43 1 990635119 50 -2043543551 13 #
coedge $-1 $64 $64 $92 $93 forward $43 $-1 #
coedge $-1 $65 $65 $44 $66 reversed $88 $-1 #
edge $94 $95 -3.1415926535897931 $95 3.1415926535897931 $65 $96 forward 7 unknown #
face $97 $98 $99 $23 $-1 $100 reversed single #
loop $-1 $-1 $101 $45 #
plane-surface $-1 0 0 -0.48449999999999999 0 0 1 1 0 0 forward_v I I I I #
coedge $-1 $102 $103 $104 $105 forward $46 $-1 #
face $-1 $-1 $106 $25 $-1 $107 forward single #
loop $-1 $-1 $108 $48 #
plane-surface $-1 0 0 -0.14050000000000007 0 0 -1 -1 0 0 forward_v I I I I #
loop $-1 $-1 $109 $35 #
coedge $-1 $75 $75 $108 $110 reversed $49 $-1 #
face $-1 $111 $112 $27 $-1 $53 reversed single #
loop $-1 $-1 $113 $51 #
coedge $-1 $114 $115 $116 $117 reversed $52 $-1 #
face $-1 $118 $119 $29 $-1 $120 forward single #
loop $-1 $121 $122 $54 #
cone-surface $-1 -1.816464049307064e-033 -0.078500000000000014 0 0 1 0 0.48449999999999999 0 0 1 I I 0 1 0.48449999999999999 forward I I I I #
loop $-1 $-1 $123 $37 #
coedge $-1 $83 $83 $124 $125 forward $55 $-1 #
model_id-kcp-attrib $-1 $126 $-1 $58 1 990635119 50 -2043543551 9 #
face $127 $128 $129 $9 $-1 $130 forward single #
loop $-1 $131 $132 $58 #
plane-surface $-1 0 0.28100000000000003 0 0 1 0 0 0 1 forward_v I I I I #
loop $-1 $-1 $65 $40 #
coedge $-1 $89 $89 $62 $91 forward $59 $-1 #
coedge $-1 $90 $90 $133 $134 forward $61 $-1 #
edge $-1 $135 0 $135 6.2831853071795862 $89 $136 forward 7 unknown #
coedge $-1 $92 $92 $64 $93 reversed $137 $-1 #
edge $138 $139 -3.1415926535897931 $139 3.1415926535897931 $92 $140 forward 7 unknown #
attrib_edge_convexity-kcp-attrib $-1 $141 $-1 $66 1 #
vertex $-1 $66 $142 #
ellipse-curve $-1 0 0 0 0 -1 0 -0.48449999999999999 0 0 1 I I #
model_id-kcp-attrib $-1 $-1 $-1 $67 1 990635119 70 -2042232830 2 #
face $-1 $143 $144 $23 $-1 $145 reversed single #
loop $-1 $-1 $146 $67 #
plane-surface $-1 0 -0.14050000000000001 0 0 1 0 0 0 1 forward_v I I I I #
coedge $-1 $147 $148 $149 $150 forward $68 $-1 #
coedge $-1 $151 $70 $152 $153 forward $46 $-1 #
coedge $-1 $70 $151 $154 $155 forward $46 $-1 #
coedge $-1 $156 $157 $70 $105 reversed $158 $-1 #
edge $-1 $159 -0.14050000000000001 $160 0.14050000000000001 $104 $161 forward 7 unknown #
loop $-1 $-1 $162 $71 #
plane-surface $-1 0 0 0.14050000000000007 0 0 1 1 0 0 forward_v I I I I #
coedge $-1 $108 $108 $75 $110 forward $72 $-1 #
coedge $-1 $109 $109 $162 $163 reversed $74 $-1 #
edge $-1 $164 0 $164 6.2831853071795862 $108 $165 forward 7 unknown #
face $-1 $166 $167 $27 $-1 $53 reversed single #
loop $-1 $-1 $168 $76 #
coedge $-1 $169 $170 $171 $172 reversed $77 $-1 #
coedge $-1 $173 $78 $174 $175 forward $52 $-1 #
coedge $-1 $78 $173 $176 $177 reversed $52 $-1 #
coedge $-1 $178 $179 $78 $117 forward $180 $-1 #
edge $-1 $181 0 $182 1.5707963267948966 $116 $183 forward 7 unknown #
face $-1 $-1 $184 $29 $-1 $185 reversed single #
loop $-1 $186 $187 $79 #
plane-surface $-1 -0.0042727272727272683 0.14050000000000001 -3.1507305205215411e-018 0 1 0 0 0 1 forward_v I I I I #
loop $-1 $-1 $188 $54 #
coedge $-1 $122 $122 $187 $189 forward $80 $-1 #
coedge $-1 $123 $123 $190 $191 reversed $82 $-1 #
coedge $-1 $124 $124 $83 $125 reversed $186 $-1 #
edge $-1 $192 0 $192 6.2831853071795862 $83 $193 forward 7 unknown #
model_id-kcp-attrib $-1 $-1 $84 $58 1 990635119 50 -2043543551 5 #
model_id-kcp-attrib $-1 $-1 $-1 $85 1 990635119 50 -2043543551 6 #
face $194 $-1 $195 $9 $-1 $196 reversed single #
loop $-1 $197 $198 $85 #
cone-surface $-1 0 0.062 0 0 1 0 0.4375 0 0 1 I I 0 1 0.4375 forward I I I I #
loop $199 $-1 $200 $58 #
coedge $-1 $132 $132 $198 $201 reversed $86 $-1 #
coedge $-1 $133 $133 $90 $134 reversed $197 $-1 #
edge $-1 $202 -3.1415926535897931 $202 3.1415926535897931 $133 $203 forward 7 unknown #
vertex $-1 $91 $204 #
ellipse-curve $-1 0 0.062 0 0 -1 0 0.48449999999999999 0 0 1 I I #
loop $205 $-1 $92 $128 #
attrib_edge_convexity-kcp-attrib $-1 $206 $-1 $93 1 #
vertex $207 $93 $208 #
ellipse-curve $-1 0 0 0 0 1 0 -0.1875 0 0 1 I I #
convexity-sys-attrib $-1 $-1 $94 $66 #
point $-1 0.48449999999999999 0 0 #
face $209 $210 $211 $23 $-1 $212 reversed single #
loop $-1 $-1 $213 $98 #
plane-surface $-1 -0.48449999999999999 0 0 1 0 0 0 0 -1 forward_v I I I I #
coedge $-1 $214 $154 $215 $216 forward $99 $-1 #
coedge $-1 $217 $101 $214 $218 forward $68 $-1 #
coedge $-1 $101 $217 $219 $220 forward $68 $-1 #
coedge $-1 $157 $156 $101 $150 reversed $158 $-1 #
edge $-1 $221 -0.14050000000000001 $222 0.14050000000000001 $149 $223 forward 7 unknown #
coedge $-1 $103 $102 $224 $225 forward $46 $-1 #
coedge $-1 $226 $227 $102 $153 reversed $211 $-1 #
edge $-1 $160 -0.48449999999999999 $228 0.48449999999999999 $152 $229 forward 7 unknown #
coedge $-1 $146 $230 $103 $155 reversed $99 $-1 #
edge $-1 $231 -0.48449999999999999 $159 0.48449999999999999 $154 $232 forward 7 unknown #
coedge $-1 $149 $104 $230 $233 forward $158 $-1 #
coedge $-1 $104 $149 $226 $234 reversed $158 $-1 #
loop $-1 $-1 $156 $210 #
vertex $-1 $105 $235 #
vertex $-1 $105 $236 #
straight-curve $-1 0.48449999999999999 0 0.48449999999999999 0 1 0 I I #
coedge $-1 $162 $162 $109 $163 forward $106 $-1 #
edge $-1 $237 0 $237 6.2831853071795862 $162 $238 forward 7 unknown #
vertex $-1 $110 $239 #
ellipse-curve $-1 0 0 -0.14050000000000007 0 0 -1 0.1875 0 0 1 I I #
face $-1 $240 $241 $27 $-1 $242 forward single #
loop $-1 $-1 $243 $111 #
coedge $-1 $244 $245 $243 $246 forward $112 $-1 #
coedge $-1 $247 $113 $248 $249 reversed $77 $-1 #
coedge $-1 $113 $247 $115 $177 forward $77 $-1 #
coedge $-1 $250 $251 $113 $172 forward $252 $-1 #
edge $-1 $253 -3.1415926535897931 $254 -1.5707963267948966 $171 $255 forward 7 unknown #
coedge $-1 $115 $114 $256 $257 reversed $52 $-1 #
coedge $-1 $245 $244 $258 $175 reversed $112 $-1 #
edge $-1 $181 -0.28100000000000003 $259 0 $258 $260 forward 7 unknown #
coedge $-1 $261 $262 $263 $177 forward $264 $-1 #
edge $-1 $182 -0.28100000000000003 $254 0 $176 $265 forward 7 unknown #
coedge $-1 $179 $116 $262 $266 reversed $180 $-1 #
coedge $-1 $116 $178 $267 $268 forward $180 $-1 #
loop $-1 $-1 $116 $269 #
vertex $-1 $270 $271 #
vertex $-1 $272 $273 #
ellipse-curve $-1 -1.816464049307064e-033 0.14050000000000001 0 0 -1 0 0.48449999999999999 0 0 1 I I #
loop $-1 $274 $275 $118 #
plane-surface $-1 -0.0042727272727272683 -0.078500000000000014 -3.1507305205215411e-018 0 1 0 0 0 1 forward_v I I I I #
loop $-1 $-1 $124 $79 #
coedge $-1 $187 $187 $122 $189 reversed $119 $-1 #
coedge $-1 $188 $188 $275 $276 reversed $121 $-1 #
edge $-1 $277 -3.1415926535897931 $277 3.1415926535897931 $122 $278 forward 7 unknown #
coedge $-1 $190 $190 $123 $191 forward $274 $-1 #
edge $-1 $279 0 $279 6.2831853071795862 $123 $280 forward 7 unknown #
vertex $-1 $125 $281 #
ellipse-curve $-1 0 0.14050000000000001 0 0 1 0 0.4375 0 0 1 I I #
model_id-kcp-attrib $-1 $-1 $-1 $128 1 990635119 50 -2043543551 7 #
loop $282 $137 $283 $128 #
cone-surface $-1 0 0.28100000000000003 0 0 -1 0 0.1875 0 0 1 I I 0 1 0.1875 forward I I I I #
loop $-1 $-1 $133 $85 #
coedge $-1 $198 $198 $132 $201 forward $129 $-1 #
model_id-kcp-attrib $-1 $-1 $-1 $131 1 990635119 50 -2043543551 12 #
coedge $-1 $200 $200 $283 $284 reversed $131 $-1 #
edge $-1 $285 0 $285 6.2831853071795862 $198 $286 forward 7 unknown #
vertex $-1 $134 $287 #
ellipse-curve $-1 0 0.062 0 0 -1 0 -0.4375 0 0 1 I I #
point $-1 0.48449999999999999 0.062 0 #
model_id-kcp-attrib $-1 $-1 $-1 $137 1 990635119 50 -2043543551 11 #
convexity-sys-attrib $-1 $-1 $138 $93 #
model_id-kcp-attrib $-1 $-1 $-1 $139 1 990635119 50 -2043543551 15 #
point $-1 0.1875 0 0 #
model_id-kcp-attrib $-1 $-1 $-1 $143 1 990635119 70 -2042232830 3 #
face $-1 $-1 $158 $23 $-1 $288 reversed single #
loop $-1 $-1 $226 $143 #
plane-surface $-1 0 0.14050000000000001 0 0 -1 0 0 0 -1 forward_v I I I I #
coedge $-1 $289 $224 $227 $290 forward $144 $-1 #
coedge $-1 $230 $146 $147 $218 reversed $99 $-1 #
coedge $-1 $224 $289 $146 $216 reversed $144 $-1 #
edge $-1 $231 -0.48449999999999999 $291 0.48449999999999999 $215 $292 forward 7 unknown #
coedge $-1 $148 $147 $289 $293 forward $68 $-1 #
edge $-1 $222 -0.48449999999999999 $291 0.48449999999999999 $214 $294 forward 7 unknown #
coedge $-1 $227 $226 $148 $220 reversed $211 $-1 #
edge $-1 $295 -0.48449999999999999 $221 0.48449999999999999 $219 $296 forward 7 unknown #
vertex $-1 $150 $297 #
vertex $-1 $233 $298 #
straight-curve $-1 0.48449999999999999 0 -0.48449999999999999 0 -1 0 I I #
coedge $-1 $213 $215 $151 $225 reversed $144 $-1 #
edge $-1 $228 -0.14050000000000001 $231 0.14050000000000001 $224 $299 forward 7 unknown #
coedge $-1 $219 $152 $157 $234 forward $211 $-1 #
coedge $-1 $152 $219 $213 $290 reversed $211 $-1 #
vertex $-1 $153 $300 #
straight-curve $-1 0 0.14050000000000001 0.48449999999999999 -1 0 0 I I #
coedge $-1 $154 $214 $156 $233 reversed $99 $-1 #
vertex $-1 $225 $301 #
straight-curve $-1 0 -0.14050000000000001 0.48449999999999999 1 0 0 I I #
edge $-1 $159 -0.48449999999999999 $222 0.48449999999999999 $156 $302 forward 7 unknown #
edge $-1 $160 -0.48449999999999999 $221 0.48449999999999999 $157 $303 forward 7 unknown #
point $-1 0.48449999999999999 -0.14050000000000001 0.48449999999999999 #
point $-1 0.48449999999999999 0.14050000000000001 0.48449999999999999 #
vertex $-1 $163 $304 #
ellipse-curve $-1 0 0 0.14050000000000007 0 0 1 0.1875 0 0 1 I I #
point $-1 0.1875 0 -0.14050000000000007 #
face $-1 $305 $306 $27 $-1 $307 reversed single #
loop $-1 $-1 $263 $166 #
plane-surface $-1 0 0 0.48449999999999999 0 0 1 1 0 0 forward_v I I I I #
coedge $-1 $308 $309 $310 $246 reversed $167 $-1 #
coedge $-1 $174 $168 $311 $312 reversed $112 $-1 #
coedge $-1 $168 $174 $313 $314 reversed $112 $-1 #
edge $-1 $315 -0.28100000000000003 $316 0 $310 $317 forward 7 unknown #
coedge $-1 $170 $169 $318 $319 reversed $77 $-1 #
coedge $-1 $320 $321 $322 $249 forward $323 $-1 #
edge $-1 $324 -0.28100000000000003 $253 0 $248 $325 forward 7 unknown #
coedge $-1 $251 $171 $326 $327 reversed $252 $-1 #
coedge $-1 $171 $250 $320 $328 forward $252 $-1 #
loop $-1 $-1 $171 $329 #
vertex $-1 $330 $331 #
vertex $-1 $332 $333 #
ellipse-curve $-1 -1.816464049307064e-033 -0.14050000000000001 0 0 1 0 0.48449999999999999 0 0 1 I I #
coedge $-1 $334 $335 $173 $257 forward $336 $-1 #
edge $-1 $254 -1.5707963267948966 $259 0 $256 $255 forward 7 unknown #
coedge $-1 $337 $338 $339 $175 forward $306 $-1 #
vertex $-1 $340 $341 #
straight-curve $-1 0.48449999999999999 -0.14050000000000001 0 0 -1 0 I I #
coedge $-1 $342 $176 $335 $332 forward $264 $-1 #
coedge $-1 $176 $342 $178 $266 forward $264 $-1 #
coedge $-1 $343 $326 $170 $177 reversed $241 $-1 #
loop $-1 $-1 $176 $344 #
straight-curve $-1 -1.816464049307064e-033 -0.14050000000000001 0.48449999999999999 0 -1 0 I I #
edge $-1 $345 -0.48449999999999999 $182 1.816464049307064e-033 $178 $346 forward 7 unknown #
coedge $-1 $347 $339 $179 $268 reversed $348 $-1 #
edge $-1 $345 -0.48449999999999999 $181 0 $267 $349 forward 7 unknown #
face $-1 $350 $180 $27 $-1 $351 reversed single #
edge $-1 $181 0 $352 0.48449999999999999 $338 $349 forward 7 unknown #
point $-1 0.48449999999999999 0.14050000000000001 0 #
edge $-1 $182 1.816464049307064e-033 $353 0.48449999999999999 $354 $346 forward 7 unknown #
point $-1 -1.816464049307064e-033 0.14050000000000001 0.48449999999999999 #
loop $-1 $-1 $190 $118 #
coedge $-1 $275 $275 $188 $276 forward $184 $-1 #
edge $355 $356 -3.1415926535897931 $356 3.1415926535897931 $188 $357 forward 7 unknown #
vertex $-1 $189 $358 #
ellipse-curve $-1 -1.816464049307064e-033 0.14050000000000001 0 0 -1 0 0.48449999999999999 0 0 1 I I #
vertex $-1 $191 $359 #
ellipse-curve $-1 0 -0.078500000000000014 0 0 1 0 0.4375 0 0 1 I I #
point $-1 0.43749999999999994 0.14050000000000001 0 #
model_id-kcp-attrib $-1 $-1 $-1 $195 1 990635119 50 -2043543551 10 #
coedge $-1 $283 $283 $200 $284 forward $195 $-1 #
edge $360 $361 0 $361 6.2831853071795862 $283 $362 forward 7 unknown #
vertex $-1 $201 $363 #
ellipse-curve $-1 0 0.28100000000000003 0 0 -1 0 0.4375 0 0 1 I I #
point $-1 0.4375 0.062 0 #
plane-surface $-1 0.48449999999999999 0 0 -1 0 0 0 0 1 forward_v I I I I #
coedge $-1 $215 $213 $217 $293 reversed $144 $-1 #
edge $-1 $228 -0.48449999999999999 $295 0.48449999999999999 $227 $364 forward 7 unknown #
vertex $-1 $293 $365 #
straight-curve $-1 -0.48449999999999999 -0.14050000000000001 0 0 0 -1 I I #
edge $-1 $291 -0.14050000000000001 $295 0.14050000000000001 $289 $366 forward 7 unknown #
straight-curve $-1 0 -0.14050000000000001 -0.48449999999999999 -1 0 0 I I #
vertex $-1 $220 $367 #
straight-curve $-1 0 0.14050000000000001 -0.48449999999999999 1 0 0 I I #
point $-1 0.48449999999999999 0.14050000000000001 -0.48449999999999999 #
point $-1 0.48449999999999999 -0.14050000000000001 -0.48449999999999999 #
straight-curve $-1 -0.48449999999999999 0 0.48449999999999999 0 -1 0 I I #
point $-1 -0.48449999999999999 0.14050000000000001 0.48449999999999999 #
point $-1 -0.48449999999999999 -0.14050000000000001 0.48449999999999999 #
straight-curve $-1 0.48449999999999999 -0.14050000000000001 0 0 0 -1 I I #
straight-curve $-1 0.48449999999999999 0.14050000000000001 0 0 0 -1 I I #
point $-1 0.1875 0 0.14050000000000007 #
face $-1 $368 $369 $27 $-1 $370 reversed single #
loop $-1 $-1 $258 $240 #
plane-surface $-1 0.48449999999999999 0 0 -1 0 0 0 0 1 forward_v I I I I #
coedge $-1 $371 $243 $372 $373 reversed $167 $-1 #
coedge $-1 $243 $371 $374 $375 reversed $167 $-1 #
coedge $-1 $376 $377 $378 $246 forward $379 $-1 #
coedge $-1 $380 $381 $244 $312 forward $382 $-1 #
edge $-1 $259 0 $316 1.5707963267948966 $311 $255 forward 7 unknown #
coedge $-1 $383 $384 $245 $314 forward $385 $-1 #
edge $-1 $315 -1.5707963267948966 $181 0 $313 $183 forward 7 unknown #
vertex $-1 $386 $387 #
vertex $-1 $388 $389 #
straight-curve $-1 -1.816464049307064e-033 -0.14050000000000001 -0.48449999999999999 0 -1 0 I I #
coedge $-1 $390 $354 $247 $319 forward $391 $-1 #
edge $-1 $182 1.5707963267948966 $324 3.1415926535897931 $318 $183 forward 7 unknown #
coedge $-1 $392 $248 $251 $328 reversed $323 $-1 #
coedge $-1 $248 $392 $390 $393 forward $323 $-1 #
coedge $-1 $394 $395 $371 $249 reversed $369 $-1 #
loop $-1 $-1 $248 $396 #
vertex $-1 $397 $398 #
straight-curve $-1 -0.48449999999999999 -0.14050000000000001 0 0 -1 0 I I #
coedge $-1 $263 $399 $250 $327 forward $241 $-1 #
edge $-1 $400 -0.48449999999999999 $254 -1.816464049307064e-033 $250 $401 forward 7 unknown #
edge $-1 $400 -0.48449999999999999 $253 0 $320 $402 forward 7 unknown #
face $-1 $403 $252 $27 $-1 $404 reversed single #
edge $-1 $253 0 $405 0.48449999999999999 $395 $402 forward 7 unknown #
point $-1 -0.48449999999999999 -0.14050000000000001 0 #
edge $-1 $254 -1.816464049307064e-033 $406 0.48449999999999999 $335 $401 forward 7 unknown #
point $-1 -1.816464049307064e-033 -0.14050000000000001 0.48449999999999999 #
coedge $-1 $335 $256 $407 $408 reversed $336 $-1 #
coedge $-1 $256 $334 $261 $332 reversed $336 $-1 #
loop $-1 $-1 $256 $403 #
coedge $-1 $409 $258 $381 $340 forward $306 $-1 #
coedge $-1 $258 $409 $383 $270 reversed $306 $-1 #
coedge $-1 $267 $407 $114 $175 reversed $348 $-1 #
edge $-1 $259 0 $410 0.48449999999999999 $337 $411 forward 7 unknown #
point $-1 0.48449999999999999 -0.14050000000000001 0 #
coedge $-1 $262 $261 $347 $412 forward $264 $-1 #
coedge $-1 $399 $263 $354 $272 forward $241 $-1 #
face $-1 $413 $264 $27 $-1 $242 forward single #
vertex $-1 $412 $414 #
straight-curve $-1 0 0.14050000000000001 0.48449999999999999 -1 0 0 I I #
coedge $-1 $407 $267 $342 $412 reversed $348 $-1 #
loop $-1 $-1 $339 $415 #
straight-curve $-1 0.48449999999999999 0.14050000000000001 0 0 0 -1 I I #
face $-1 $416 $391 $27 $-1 $351 reversed single #
plane-surface $-1 0 0.14050000000000001 0 0 -1 0 0 0 -1 forward_v I I I I #
vertex $-1 $417 $418 #
vertex $-1 $272 $419 #
coedge $-1 $318 $390 $343 $272 reversed $391 $-1 #
convexity-sys-attrib $-1 $-1 $-1 $276 #
vertex $-1 $276 $420 #
ellipse-curve $-1 -1.816464049307064e-033 -0.078500000000000014 0 0 -1 0 0.48449999999999999 0 0 1 I I #
point $-1 -0.48449999999999999 0.14050000000000001 -5.9332177842694178e-017 #
point $-1 0.4375 -0.078500000000000014 0 #
attrib_edge_convexity-kcp-attrib $-1 $421 $-1 $284 1 #
vertex $422 $284 $423 #
ellipse-curve $-1 0 0.28100000000000003 0 0 1 0 0.1875 0 0 1 I I #
point $-1 0.4375 0.28100000000000003 0 #
straight-curve $-1 -0.48449999999999999 0.14050000000000001 0 0 0 -1 I I #
point $-1 -0.48449999999999999 -0.14050000000000001 -0.48449999999999999 #
straight-curve $-1 -0.48449999999999999 0 -0.48449999999999999 0 1 0 I I #
point $-1 -0.48449999999999999 0.14050000000000001 -0.48449999999999999 #
face $-1 $329 $424 $27 $-1 $404 reversed single #
loop $-1 $-1 $322 $305 #
plane-surface $-1 -0.48449999999999999 0 0 1 0 0 0 0 -1 forward_v I I I I #
coedge $-1 $309 $308 $169 $249 forward $167 $-1 #
coedge $-1 $425 $426 $308 $373 forward $427 $-1 #
edge $-1 $324 -3.1415926535897931 $315 -1.5707963267948966 $372 $183 forward 7 unknown #
coedge $-1 $428 $429 $309 $375 forward $424 $-1 #
edge $-1 $316 1.5707963267948966 $253 3.1415926535897931 $374 $255 forward 7 unknown #
coedge $-1 $430 $310 $429 $388 forward $379 $-1 #
coedge $-1 $310 $430 $425 $431 forward $379 $-1 #
coedge $-1 $432 $433 $168 $246 reversed $434 $-1 #
loop $-1 $-1 $310 $413 #
coedge $-1 $381 $311 $433 $435 reversed $382 $-1 #
coedge $-1 $311 $380 $337 $340 reversed $382 $-1 #
loop $-1 $-1 $311 $436 #
coedge $-1 $384 $313 $338 $270 forward $385 $-1 #
coedge $-1 $313 $383 $432 $386 reversed $385 $-1 #
loop $-1 $-1 $313 $437 #
edge $-1 $315 -1.816464049307064e-033 $352 0.48449999999999999 $384 $438 forward 7 unknown #
point $-1 -1.816464049307064e-033 0.14050000000000001 -0.48449999999999999 #
edge $-1 $316 1.816464049307064e-033 $405 0.48449999999999999 $429 $439 forward 7 unknown #
point $-1 -1.816464049307064e-033 -0.14050000000000001 -0.48449999999999999 #
coedge $-1 $354 $318 $321 $393 reversed $391 $-1 #
loop $-1 $-1 $318 $350 #
coedge $-1 $321 $320 $399 $440 reversed $323 $-1 #
edge $-1 $353 -0.48449999999999999 $324 0 $390 $441 forward 7 unknown #
coedge $-1 $442 $322 $426 $397 forward $369 $-1 #
coedge $-1 $322 $442 $428 $330 reversed $369 $-1 #
face $-1 $415 $323 $27 $-1 $370 reversed single #
edge $-1 $324 0 $443 0.48449999999999999 $426 $441 forward 7 unknown #
point $-1 -0.48449999999999999 0.14050000000000001 0 #
coedge $-1 $326 $343 $392 $440 forward $241 $-1 #
vertex $-1 $440 $444 #
straight-curve $-1 0 -0.14050000000000001 0.48449999999999999 1 0 0 I I #
straight-curve $-1 -0.48449999999999999 -0.14050000000000001 0 0 0 -1 I I #
face $-1 $436 $336 $27 $-1 $404 reversed single #
plane-surface $-1 0 -0.14050000000000001 0 0 1 0 0 0 1 forward_v I I I I #
vertex $-1 $445 $446 #
vertex $-1 $412 $447 #
coedge $-1 $339 $347 $334 $408 forward $348 $-1 #
edge $-1 $406 -0.48449999999999999 $259 0 $407 $411 forward 7 unknown #
coedge $-1 $338 $337 $448 $417 reversed $306 $-1 #
vertex $-1 $340 $449 #
straight-curve $-1 0.48449999999999999 -0.14050000000000001 0 0 0 -1 I I #
edge $-1 $406 -0.14050000000000001 $345 0.14050000000000001 $347 $450 forward 7 unknown #
face $-1 $396 $379 $27 $-1 $451 reversed single #
point $-1 0.48449999999999999 0.14050000000000001 0.48449999999999999 #
face $-1 $-1 $348 $27 $-1 $307 reversed single #
face $-1 $452 $427 $27 $-1 $351 reversed single #
edge $-1 $352 -0.14050000000000001 $410 0.14050000000000001 $409 $453 forward 7 unknown #
point $-1 0.48449999999999999 0.14050000000000001 -0.48449999999999999 #
point $-1 -0.48449999999999999 0.14050000000000001 0.48449999999999999 #
point $-1 -0.48449999999999999 -0.078500000000000014 -5.9332177842694178e-017 #
convexity-sys-attrib $-1 $-1 $360 $284 #
model_id-kcp-attrib $-1 $-1 $-1 $361 1 990635119 50 -2043543551 14 #
point $-1 0.1875 0.28100000000000003 0 #
loop $-1 $-1 $374 $368 #
coedge $-1 $426 $372 $377 $431 reversed $427 $-1 #
coedge $-1 $372 $425 $394 $397 reversed $427 $-1 #
loop $-1 $-1 $372 $416 #
coedge $-1 $429 $374 $395 $330 forward $424 $-1 #
coedge $-1 $374 $428 $376 $388 reversed $424 $-1 #
coedge $-1 $377 $376 $442 $445 forward $379 $-1 #
edge $-1 $443 -0.48449999999999999 $315 -1.816464049307064e-033 $425 $438 forward 7 unknown #
coedge $-1 $448 $378 $384 $386 forward $434 $-1 #
coedge $-1 $378 $448 $380 $435 forward $434 $-1 #
loop $-1 $-1 $378 $452 #
edge $-1 $410 -0.48449999999999999 $316 1.816464049307064e-033 $380 $439 forward 7 unknown #
face $-1 $437 $382 $27 $-1 $404 reversed single #
face $-1 $269 $385 $27 $-1 $351 reversed single #
straight-curve $-1 0 0.14050000000000001 -0.48449999999999999 1 0 0 I I #
straight-curve $-1 0 -0.14050000000000001 -0.48449999999999999 -1 0 0 I I #
edge $-1 $353 -0.14050000000000001 $400 0.14050000000000001 $392 $454 forward 7 unknown #
straight-curve $-1 -0.48449999999999999 0.14050000000000001 0 0 0 -1 I I #
coedge $-1 $395 $394 $430 $445 reversed $369 $-1 #
vertex $-1 $431 $455 #
point $-1 -0.48449999999999999 -0.14050000000000001 0.48449999999999999 #
edge $-1 $405 -0.14050000000000001 $443 0.14050000000000001 $442 $456 forward 7 unknown #
point $-1 -0.48449999999999999 -0.14050000000000001 -0.48449999999999999 #
point $-1 0.48449999999999999 -0.14050000000000001 0.48449999999999999 #
coedge $-1 $433 $432 $409 $417 forward $434 $-1 #
point $-1 0.48449999999999999 -0.14050000000000001 -0.48449999999999999 #
straight-curve $-1 0.48449999999999999 0 0.48449999999999999 0 1 0 I I #
plane-surface $-1 0 0 -0.48449999999999999 0 0 1 1 0 0 forward_v I I I I #
face $-1 $344 $434 $27 $-1 $451 reversed single #
straight-curve $-1 0.48449999999999999 0 -0.48449999999999999 0 -1 0 I I #
straight-curve $-1 -0.48449999999999999 0 0.48449999999999999 0 -1 0 I I #
point $-1 -0.48449999999999999 0.14050000000000001 -0.48449999999999999 #
straight-curve $-1 -0.48449999999999999 0 -0.48449999999999999 0 1 0 I I #
End-of-ACIS-data 