600 0 2 0           
24 FBMach with ACIS - 6.0.3 13 ACIS 6.0.3 NT 24 Wed May 23 12:25:20 2001 
1 9.9999999999999995e-007 1e-010 
body $2 $3 $-1 $4 #
bdycol-kcp $-1 1 4 $5 $6 $7 $8 #
model_id-kcp-attrib $-1 $-1 $-1 $0 1 990635120 50 -919470079 1 #
lump $-1 $-1 $9 $0 #
transform $-1 1 0 0 0 1 0 0 0 1 0 0 0 1 no_rotate no_reflect no_shear #
body $10 $11 $-1 $12 #
body $13 $14 $-1 $15 #
body $16 $17 $-1 $18 #
body $19 $20 $-1 $21 #
shell $-1 $-1 $-1 $22 $-1 $3 #
model_id-kcp-attrib $-1 $-1 $-1 $5 1 990635120 70 -918159358 1 #
lump $-1 $-1 $23 $5 #
transform $-1 1 0 0 0 1 0 0 0 1 0 0 0.055999999999999994 1 no_rotate no_reflect no_shear #
rgb_color-st-attrib $-1 $24 $-1 $6 0.5 1 1 #
lump $-1 $-1 $25 $6 #
transform $-1 -1 0 -1.2246063538223773e-016 0 1 0 1.2246063538223773e-016 0 -1 1.2001142267459294e-017 0 0.056000000000000008 1 rotate no_reflect no_shear #
rgb_color-st-attrib $-1 $26 $-1 $7 0.5 1 1 #
lump $-1 $-1 $27 $7 #
transform $-1 1 0 0 0 1 0 0 0 1 0 0 0.055999999999999994 1 no_rotate no_reflect no_shear #
rgb_color-st-attrib $-1 $28 $-1 $8 1 0.5 1 #
lump $-1 $-1 $29 $8 #
transform $-1 1 0 0 0 1 0 0 0 1 0 0 0.055999999999999994 1 no_rotate no_reflect no_shear #
face $30 $31 $32 $9 $-1 $33 forward single #
shell $-1 $-1 $-1 $34 $-1 $11 #
model_id-kcp-attrib $-1 $-1 $13 $6 1 990635120 90 -916848637 1 #
shell $-1 $-1 $-1 $35 $-1 $14 #
model_id-kcp-attrib $-1 $-1 $16 $7 1 990635120 140 -913571836 1 #
shell $-1 $-1 $-1 $36 $-1 $17 #
model_id-kcp-attrib $-1 $-1 $19 $8 1 990635120 230 -907673595 1 #
shell $-1 $-1 $-1 $37 $-1 $20 #
model_id-kcp-attrib $-1 $38 $-1 $22 1 990635120 50 -919470079 8 #
face $39 $40 $41 $9 $-1 $42 forward single #
loop $-1 $43 $44 $22 #
plane-surface $-1 0 0 0.154 0 0 1 1 0 0 forward_v I I I I #
face $45 $46 $47 $23 $-1 $48 forward single #
face $-1 $49 $50 $25 $-1 $51 forward single #
face $-1 $52 $53 $27 $-1 $54 reversed single #
face $-1 $55 $56 $29 $-1 $57 forward single #
model_id-kcp-attrib $-1 $-1 $30 $22 1 990635120 50 -919470079 2 #
model_id-kcp-attrib $-1 $-1 $-1 $31 1 990635120 50 -919470079 3 #
face $58 $59 $60 $9 $-1 $61 reversed single #
loop $-1 $62 $63 $31 #
cone-surface $-1 0 0 0 0 0 1 0.3125 0 0 1 I I 0 1 0.3125 forward I I I I #
loop $64 $-1 $65 $22 #
coedge $-1 $44 $44 $63 $66 reversed $32 $-1 #
model_id-kcp-attrib $-1 $-1 $-1 $34 1 990635120 70 -918159358 2 #
face $67 $68 $69 $23 $-1 $70 reversed single #
loop $-1 $-1 $71 $34 #
plane-surface $-1 0 0 0.098000000000000004 0 0 1 1 0 0 forward_v I I I I #
face $-1 $72 $73 $25 $-1 $74 forward single #
loop $-1 $75 $76 $35 #
cone-surface $-1 0 0 0 0 0 1 0.125 0 0 1 I I 0 1 0.125 forward I I I I #
face $-1 $77 $78 $27 $-1 $54 reversed single #
loop $-1 $-1 $79 $36 #
cone-surface $-1 -3.8803721177147799e-033 0 0.098000000000000004 0 0 1 0.34499999999999997 4.224891920687201e-017 0 1 I I 0 1 0.34499999999999997 forward I I I I #
face $-1 $80 $81 $29 $-1 $82 forward single #
loop $-1 $83 $84 $37 #
cone-surface $-1 0 0 -0.05600000000000005 0 0 1 0.3125 0 0 1 I I 0 -1 0.3125 forward I I I I #
model_id-kcp-attrib $-1 $-1 $-1 $40 1 990635120 50 -919470079 4 #
face $85 $86 $87 $9 $-1 $88 forward single #
loop $-1 $89 $90 $40 #
plane-surface $-1 0 0 0 0 0 -1 -1 0 0 forward_v I I I I #
loop $-1 $-1 $91 $31 #
coedge $-1 $63 $63 $44 $66 forward $41 $-1 #
model_id-kcp-attrib $-1 $-1 $-1 $43 1 990635120 50 -919470079 13 #
coedge $-1 $65 $65 $92 $93 reversed $43 $-1 #
edge $94 $95 0 $95 6.2831853071795862 $63 $96 forward 7 unknown #
model_id-kcp-attrib $-1 $-1 $-1 $46 1 990635120 70 -918159358 3 #
face $-1 $97 $98 $23 $-1 $99 reversed single #
loop $-1 $-1 $100 $46 #
plane-surface $-1 0 0 -0.098000000000000004 0 0 1 1 0 0 forward_v I I I I #
coedge $-1 $101 $102 $103 $104 forward $47 $-1 #
face $-1 $-1 $105 $25 $-1 $106 forward single #
loop $-1 $-1 $107 $49 #
plane-surface $-1 0 0 -0.098000000000000018 0 0 -1 -1 0 0 forward_v I I I I #
loop $-1 $-1 $108 $35 #
coedge $-1 $76 $76 $107 $109 reversed $50 $-1 #
face $-1 $110 $111 $27 $-1 $54 reversed single #
loop $-1 $-1 $112 $52 #
coedge $-1 $113 $114 $115 $116 reversed $53 $-1 #
face $-1 $117 $118 $29 $-1 $119 forward single #
loop $-1 $120 $121 $55 #
cone-surface $-1 -3.8803721177147799e-033 0 -0.05600000000000005 0 0 1 0.34499999999999997 4.224891920687201e-017 0 1 I I 0 1 0.34499999999999997 forward I I I I #
loop $-1 $-1 $122 $37 #
coedge $-1 $84 $84 $123 $124 forward $56 $-1 #
model_id-kcp-attrib $-1 $125 $-1 $59 1 990635120 50 -919470079 9 #
face $126 $127 $128 $9 $-1 $129 forward single #
loop $-1 $130 $131 $59 #
plane-surface $-1 0 0 -0.042000000000000003 0 0 -1 -1 0 0 forward_v I I I I #
loop $-1 $-1 $132 $40 #
coedge $-1 $90 $90 $133 $134 forward $60 $-1 #
coedge $-1 $91 $91 $132 $135 reversed $62 $-1 #
coedge $-1 $92 $92 $65 $93 forward $136 $-1 #
edge $137 $138 0 $138 6.2831853071795862 $92 $139 forward 7 unknown #
attrib_edge_convexity-kcp-attrib $-1 $140 $-1 $66 1 #
vertex $-1 $66 $141 #
ellipse-curve $-1 0 0 0.154 0 0 -1 0.3125 0 0 1 I I #
face $-1 $142 $143 $23 $-1 $144 reversed single #
loop $-1 $-1 $145 $68 #
plane-surface $-1 0 -0.34499999999999997 0 0 1 0 0 0 1 forward_v I I I I #
coedge $-1 $146 $147 $148 $149 forward $69 $-1 #
coedge $-1 $150 $71 $151 $152 forward $47 $-1 #
coedge $-1 $71 $150 $153 $154 forward $47 $-1 #
coedge $-1 $155 $156 $71 $104 reversed $157 $-1 #
edge $-1 $158 -0.34499999999999997 $159 0.34499999999999997 $103 $160 forward 7 unknown #
loop $-1 $-1 $161 $72 #
plane-surface $-1 0 0 0.098000000000000018 0 0 1 1 0 0 forward_v I I I I #
coedge $-1 $107 $107 $76 $109 forward $73 $-1 #
coedge $-1 $108 $108 $161 $162 reversed $75 $-1 #
edge $-1 $163 0 $163 6.2831853071795862 $107 $164 forward 7 unknown #
face $-1 $165 $166 $27 $-1 $54 reversed single #
loop $-1 $-1 $167 $77 #
coedge $-1 $168 $169 $170 $171 reversed $78 $-1 #
coedge $-1 $172 $79 $173 $174 reversed $53 $-1 #
coedge $-1 $79 $172 $175 $176 reversed $53 $-1 #
coedge $-1 $177 $178 $179 $116 forward $180 $-1 #
edge $-1 $181 -0.19599999999999998 $182 0 $115 $183 forward 7 unknown #
face $-1 $-1 $184 $29 $-1 $185 reversed single #
loop $-1 $186 $187 $80 #
plane-surface $-1 -0.0029545454545454545 -4.9391790309114299e-018 0.097999999999999948 0 0 1 1 0 0 forward_v I I I I #
loop $-1 $-1 $188 $55 #
coedge $-1 $121 $121 $187 $189 forward $81 $-1 #
coedge $-1 $122 $122 $190 $191 reversed $83 $-1 #
coedge $-1 $123 $123 $84 $124 reversed $186 $-1 #
edge $-1 $192 0 $192 6.2831853071795862 $84 $193 forward 7 unknown #
model_id-kcp-attrib $-1 $-1 $85 $59 1 990635120 50 -919470079 5 #
model_id-kcp-attrib $-1 $-1 $-1 $86 1 990635120 50 -919470079 6 #
face $194 $-1 $195 $9 $-1 $196 reversed single #
loop $-1 $197 $198 $86 #
cone-surface $-1 0 0 0 0 0 -1 -0.34499999999999997 0 0 1 I I 0 1 0.34499999999999997 forward I I I I #
loop $199 $-1 $200 $59 #
coedge $-1 $131 $131 $198 $201 reversed $87 $-1 #
coedge $-1 $132 $132 $91 $135 forward $89 $-1 #
coedge $-1 $133 $133 $90 $134 reversed $197 $-1 #
edge $-1 $202 -3.1415926535897931 $202 3.1415926535897931 $133 $203 forward 7 unknown #
edge $-1 $204 -3.1415926535897931 $204 3.1415926535897931 $132 $205 forward 7 unknown #
loop $206 $-1 $92 $127 #
attrib_edge_convexity-kcp-attrib $-1 $207 $-1 $93 1 #
vertex $208 $93 $209 #
ellipse-curve $-1 0 0 0.154 0 0 1 -0.125 0 0 1 I I #
convexity-sys-attrib $-1 $-1 $94 $66 #
point $-1 0.3125 0 0.154 #
face $-1 $210 $211 $23 $-1 $212 reversed single #
loop $-1 $-1 $213 $97 #
plane-surface $-1 -0.34499999999999997 0 0 1 0 0 0 0 -1 forward_v I I I I #
coedge $-1 $214 $153 $215 $216 forward $98 $-1 #
coedge $-1 $217 $100 $214 $218 forward $69 $-1 #
coedge $-1 $100 $217 $219 $220 forward $69 $-1 #
coedge $-1 $156 $155 $100 $149 reversed $157 $-1 #
edge $-1 $221 -0.34499999999999997 $222 0.34499999999999997 $148 $223 forward 7 unknown #
coedge $-1 $102 $101 $224 $225 forward $47 $-1 #
coedge $-1 $226 $227 $101 $152 reversed $211 $-1 #
edge $-1 $159 -0.34499999999999997 $228 0.34499999999999997 $151 $229 forward 7 unknown #
coedge $-1 $145 $230 $102 $154 reversed $98 $-1 #
edge $-1 $231 -0.34499999999999997 $158 0.34499999999999997 $153 $232 forward 7 unknown #
coedge $-1 $148 $103 $230 $233 forward $157 $-1 #
coedge $-1 $103 $148 $226 $234 reversed $157 $-1 #
loop $-1 $-1 $155 $210 #
vertex $-1 $104 $235 #
vertex $-1 $104 $236 #
straight-curve $-1 0.34499999999999997 0 0.098000000000000004 0 1 0 I I #
coedge $-1 $161 $161 $108 $162 forward $105 $-1 #
edge $-1 $237 0 $237 6.2831853071795862 $161 $238 forward 7 unknown #
vertex $-1 $109 $239 #
ellipse-curve $-1 0 0 -0.098000000000000018 0 0 -1 0.125 0 0 1 I I #
face $-1 $240 $241 $27 $-1 $242 reversed single #
loop $-1 $-1 $243 $110 #
coedge $-1 $244 $245 $246 $247 reversed $111 $-1 #
coedge $-1 $248 $112 $249 $250 reversed $78 $-1 #
coedge $-1 $112 $248 $79 $116 forward $78 $-1 #
coedge $-1 $251 $252 $112 $171 forward $253 $-1 #
edge $-1 $254 -3.1415926535897931 $182 -1.5707963267948966 $170 $255 forward 7 unknown #
coedge $-1 $114 $113 $245 $256 forward $53 $-1 #
coedge $-1 $257 $258 $113 $174 forward $259 $-1 #
edge $-1 $260 -1.2246063538223773e-016 $181 1.5707963267948966 $173 $261 forward 7 unknown #
coedge $-1 $262 $263 $114 $176 forward $264 $-1 #
edge $-1 $182 -1.5707963267948966 $265 1.2246063538223773e-016 $175 $255 forward 7 unknown #
coedge $-1 $266 $115 $263 $267 reversed $180 $-1 #
coedge $-1 $115 $266 $257 $268 reversed $180 $-1 #
coedge $-1 $269 $270 $169 $116 reversed $271 $-1 #
loop $-1 $-1 $115 $272 #
vertex $-1 $268 $273 #
vertex $-1 $274 $275 #
straight-curve $-1 -3.8803721177147799e-033 0.34499999999999997 0.098000000000000004 0 0 1 I I #
loop $-1 $276 $277 $117 #
plane-surface $-1 -0.0029545454545454545 -4.9391790309114299e-018 -0.05600000000000005 0 0 1 1 0 0 forward_v I I I I #
loop $-1 $-1 $123 $80 #
coedge $-1 $187 $187 $121 $189 reversed $118 $-1 #
coedge $-1 $188 $188 $277 $278 reversed $120 $-1 #
edge $-1 $279 -3.1415926535897931 $279 3.1415926535897931 $121 $280 forward 7 unknown #
coedge $-1 $190 $190 $122 $191 forward $276 $-1 #
edge $-1 $281 0 $281 6.2831853071795862 $122 $282 forward 7 unknown #
vertex $-1 $124 $283 #
ellipse-curve $-1 0 0 0.097999999999999948 0 0 1 0.3125 0 0 1 I I #
model_id-kcp-attrib $-1 $-1 $-1 $127 1 990635120 50 -919470079 7 #
loop $284 $136 $285 $127 #
cone-surface $-1 0 0 0.154 0 0 -1 -0.125 0 0 1 I I 0 1 0.125 forward I I I I #
loop $-1 $-1 $133 $86 #
coedge $-1 $198 $198 $131 $201 forward $128 $-1 #
model_id-kcp-attrib $-1 $-1 $-1 $130 1 990635120 50 -919470079 12 #
coedge $-1 $200 $200 $285 $286 forward $130 $-1 #
edge $-1 $287 0 $287 6.2831853071795862 $198 $288 forward 7 unknown #
vertex $-1 $134 $289 #
ellipse-curve $-1 0 0 0 0 0 1 0.34499999999999997 0 0 1 I I #
vertex $-1 $135 $290 #
ellipse-curve $-1 0 0 0 0 0 -1 -0.3125 0 0 1 I I #
model_id-kcp-attrib $-1 $-1 $-1 $136 1 990635120 50 -919470079 11 #
convexity-sys-attrib $-1 $-1 $137 $93 #
model_id-kcp-attrib $-1 $-1 $-1 $138 1 990635120 50 -919470079 15 #
point $-1 -0.125 0 0.154 #
face $-1 $-1 $157 $23 $-1 $291 reversed single #
loop $-1 $-1 $226 $142 #
plane-surface $-1 0 0.34499999999999997 0 0 -1 0 0 0 -1 forward_v I I I I #
coedge $-1 $292 $224 $227 $293 forward $143 $-1 #
coedge $-1 $230 $145 $146 $218 reversed $98 $-1 #
coedge $-1 $224 $292 $145 $216 reversed $143 $-1 #
edge $-1 $231 -0.098000000000000004 $294 0.098000000000000004 $215 $295 forward 7 unknown #
coedge $-1 $147 $146 $292 $296 forward $69 $-1 #
edge $-1 $222 -0.34499999999999997 $294 0.34499999999999997 $214 $297 forward 7 unknown #
coedge $-1 $227 $226 $147 $220 reversed $211 $-1 #
edge $-1 $298 -0.34499999999999997 $221 0.34499999999999997 $219 $299 forward 7 unknown #
vertex $-1 $149 $300 #
vertex $-1 $233 $301 #
straight-curve $-1 0.34499999999999997 0 -0.098000000000000004 0 -1 0 I I #
coedge $-1 $213 $215 $150 $225 reversed $143 $-1 #
edge $-1 $228 -0.34499999999999997 $231 0.34499999999999997 $224 $302 forward 7 unknown #
coedge $-1 $219 $151 $156 $234 forward $211 $-1 #
coedge $-1 $151 $219 $213 $293 reversed $211 $-1 #
vertex $-1 $152 $303 #
straight-curve $-1 0 0.34499999999999997 0.098000000000000004 -1 0 0 I I #
coedge $-1 $153 $214 $155 $233 reversed $98 $-1 #
vertex $-1 $225 $304 #
straight-curve $-1 0 -0.34499999999999997 0.098000000000000004 1 0 0 I I #
edge $-1 $158 -0.098000000000000004 $222 0.098000000000000004 $155 $305 forward 7 unknown #
edge $-1 $159 -0.098000000000000004 $221 0.098000000000000004 $156 $306 forward 7 unknown #
point $-1 0.34499999999999997 -0.34499999999999997 0.098000000000000004 #
point $-1 0.34499999999999997 0.34499999999999997 0.098000000000000004 #
vertex $-1 $162 $307 #
ellipse-curve $-1 0 0 0.098000000000000018 0 0 1 0.125 0 0 1 I I #
point $-1 0.125 0 -0.098000000000000018 #
face $-1 $308 $271 $27 $-1 $309 reversed single #
loop $-1 $-1 $310 $165 #
plane-surface $-1 0.34499999999999997 0 0 -1 0 0 0 0 1 forward_v I I I I #
coedge $-1 $311 $312 $313 $314 reversed $166 $-1 #
coedge $-1 $315 $167 $312 $316 forward $111 $-1 #
coedge $-1 $167 $315 $317 $256 reversed $111 $-1 #
coedge $-1 $318 $319 $167 $247 forward $320 $-1 #
edge $-1 $321 -1.5707963267948968 $260 -1.2246063538223773e-016 $246 $261 forward 7 unknown #
coedge $-1 $169 $168 $322 $323 reversed $78 $-1 #
coedge $-1 $324 $325 $326 $250 forward $327 $-1 #
edge $-1 $328 -0.19599999999999998 $254 0 $249 $329 forward 7 unknown #
coedge $-1 $252 $170 $270 $274 forward $253 $-1 #
coedge $-1 $170 $251 $324 $330 forward $253 $-1 #
loop $-1 $-1 $170 $331 #
vertex $-1 $332 $333 #
ellipse-curve $-1 -3.8803721177147799e-033 0 0.098000000000000004 0 0 -1 0.34499999999999997 4.224891920687201e-017 0 1 I I #
edge $-1 $260 -0.19599999999999998 $265 0 $317 $334 forward 7 unknown #
coedge $-1 $258 $173 $178 $268 forward $259 $-1 #
coedge $-1 $173 $257 $335 $336 forward $259 $-1 #
loop $-1 $-1 $173 $337 #
vertex $-1 $338 $339 #
ellipse-curve $-1 -3.8803721177147799e-033 0 -0.098000000000000004 0 0 1 0.34499999999999997 4.224891920687201e-017 0 1 I I #
coedge $-1 $263 $175 $340 $341 forward $264 $-1 #
coedge $-1 $175 $262 $177 $267 forward $264 $-1 #
loop $-1 $-1 $175 $342 #
vertex $-1 $341 $343 #
coedge $-1 $178 $177 $344 $345 forward $180 $-1 #
edge $-1 $346 -0.34499999999999997 $182 3.8803721177147799e-033 $177 $347 forward 7 unknown #
edge $-1 $181 -3.8803721177147799e-033 $348 0.34499999999999997 $178 $349 forward 7 unknown #
coedge $-1 $350 $179 $351 $352 reversed $271 $-1 #
coedge $-1 $179 $350 $251 $274 reversed $271 $-1 #
loop $-1 $-1 $179 $240 #
face $-1 $353 $180 $27 $-1 $309 reversed single #
point $-1 -3.8803721177147799e-033 0.34499999999999997 -0.097999999999999976 #
edge $-1 $182 3.8803721177147799e-033 $354 0.34499999999999997 $270 $347 forward 7 unknown #
point $-1 -3.8803721177147799e-033 0.34499999999999997 0.098000000000000004 #
loop $-1 $-1 $190 $117 #
coedge $-1 $277 $277 $188 $278 forward $184 $-1 #
edge $355 $356 -3.1415926535897931 $356 3.1415926535897931 $188 $357 forward 7 unknown #
vertex $-1 $189 $358 #
ellipse-curve $-1 -3.8803721177147799e-033 0 0.097999999999999948 0 0 -1 0.34499999999999997 4.224891920687201e-017 0 1 I I #
vertex $-1 $191 $359 #
ellipse-curve $-1 0 0 -0.05600000000000005 0 0 1 0.3125 0 0 1 I I #
point $-1 0.3125 0 0.098000000000000004 #
model_id-kcp-attrib $-1 $-1 $-1 $195 1 990635120 50 -919470079 10 #
coedge $-1 $285 $285 $200 $286 reversed $195 $-1 #
edge $360 $361 -3.1415926535897931 $361 3.1415926535897931 $285 $362 forward 7 unknown #
vertex $-1 $201 $363 #
ellipse-curve $-1 0 0 -0.042000000000000003 0 0 1 -0.34499999999999997 0 0 1 I I #
point $-1 -0.34499999999999997 0 0 #
point $-1 0.3125 0 0 #
plane-surface $-1 0.34499999999999997 0 0 -1 0 0 0 0 1 forward_v I I I I #
coedge $-1 $215 $213 $217 $296 reversed $143 $-1 #
edge $-1 $228 -0.098000000000000004 $298 0.098000000000000004 $227 $364 forward 7 unknown #
vertex $-1 $296 $365 #
straight-curve $-1 -0.34499999999999997 -0.34499999999999997 0 0 0 -1 I I #
edge $-1 $294 -0.34499999999999997 $298 0.34499999999999997 $292 $366 forward 7 unknown #
straight-curve $-1 0 -0.34499999999999997 -0.098000000000000004 -1 0 0 I I #
vertex $-1 $220 $367 #
straight-curve $-1 0 0.34499999999999997 -0.098000000000000004 1 0 0 I I #
point $-1 0.34499999999999997 0.34499999999999997 -0.098000000000000004 #
point $-1 0.34499999999999997 -0.34499999999999997 -0.098000000000000004 #
straight-curve $-1 -0.34499999999999997 0 0.098000000000000004 0 -1 0 I I #
point $-1 -0.34499999999999997 0.34499999999999997 0.098000000000000004 #
point $-1 -0.34499999999999997 -0.34499999999999997 0.098000000000000004 #
straight-curve $-1 0.34499999999999997 -0.34499999999999997 0 0 0 -1 I I #
straight-curve $-1 0.34499999999999997 0.34499999999999997 0 0 0 -1 I I #
point $-1 0.125 0 0.098000000000000018 #
face $-1 $368 $369 $27 $-1 $370 reversed single #
plane-surface $-1 0 0.34499999999999997 0 0 -1 0 0 0 -1 forward_v I I I I #
coedge $-1 $335 $340 $172 $256 reversed $241 $-1 #
coedge $-1 $371 $243 $168 $250 forward $166 $-1 #
coedge $-1 $243 $371 $372 $316 reversed $166 $-1 #
coedge $-1 $373 $374 $243 $314 forward $375 $-1 #
edge $-1 $328 -3.1415926535897931 $321 -1.5707963267948968 $313 $261 forward 7 unknown #
coedge $-1 $245 $244 $376 $377 reversed $111 $-1 #
edge $-1 $321 -0.19599999999999998 $378 0 $372 $379 forward 7 unknown #
coedge $-1 $380 $381 $310 $256 forward $382 $-1 #
coedge $-1 $319 $246 $381 $338 forward $320 $-1 #
coedge $-1 $246 $318 $383 $384 forward $320 $-1 #
loop $-1 $-1 $246 $385 #
vertex $-1 $386 $387 #
coedge $-1 $388 $351 $248 $323 forward $389 $-1 #
edge $-1 $181 1.5707963267948966 $328 3.1415926535897931 $322 $261 forward 7 unknown #
coedge $-1 $390 $249 $252 $330 reversed $327 $-1 #
coedge $-1 $249 $390 $388 $391 reversed $327 $-1 #
coedge $-1 $392 $393 $311 $250 reversed $369 $-1 #
loop $-1 $-1 $249 $394 #
vertex $-1 $391 $395 #
straight-curve $-1 -0.34499999999999997 0 0.098000000000000004 0 0 1 I I #
edge $-1 $354 -0.34499999999999997 $254 0 $324 $396 forward 7 unknown #
face $-1 $342 $253 $27 $-1 $397 forward single #
edge $-1 $254 0 $398 0.34499999999999997 $393 $396 forward 7 unknown #
point $-1 -0.34499999999999997 0 0.098000000000000004 #
straight-curve $-1 0.34499999999999997 0 0.098000000000000004 0 0 1 I I #
coedge $-1 $344 $310 $258 $336 reversed $241 $-1 #
edge $-1 $348 -0.34499999999999997 $260 0 $335 $399 forward 7 unknown #
face $-1 $400 $259 $27 $-1 $401 reversed single #
edge $-1 $260 0 $402 0.34499999999999997 $381 $399 forward 7 unknown #
point $-1 0.34499999999999997 0 -0.097999999999999976 #
coedge $-1 $310 $344 $262 $341 reversed $241 $-1 #
edge $-1 $265 0 $346 0.34499999999999997 $340 $403 forward 7 unknown #
face $-1 $404 $264 $27 $-1 $397 forward single #
point $-1 0.34499999999999997 0 0.098000000000000004 #
coedge $-1 $340 $335 $266 $345 reversed $241 $-1 #
edge $-1 $346 -0.098000000000000004 $348 0.098000000000000004 $344 $405 forward 7 unknown #
vertex $-1 $341 $406 #
straight-curve $-1 0 0.34499999999999997 0.098000000000000004 -1 0 0 I I #
vertex $-1 $336 $407 #
straight-curve $-1 0 0.34499999999999997 -0.098000000000000004 1 0 0 I I #
coedge $-1 $270 $269 $390 $408 reversed $271 $-1 #
coedge $-1 $322 $388 $269 $352 forward $389 $-1 #
edge $-1 $409 -0.34499999999999997 $181 -3.8803721177147799e-033 $269 $349 forward 7 unknown #
face $-1 $-1 $382 $27 $-1 $242 reversed single #
vertex $-1 $274 $410 #
convexity-sys-attrib $-1 $-1 $-1 $278 #
vertex $-1 $278 $411 #
ellipse-curve $-1 -3.8803721177147799e-033 0 -0.05600000000000005 0 0 -1 0.34499999999999997 4.224891920687201e-017 0 1 I I #
point $-1 -0.34499999999999997 0 0.097999999999999948 #
point $-1 0.3125 0 -0.055999999999999994 #
attrib_edge_convexity-kcp-attrib $-1 $412 $-1 $286 1 #
vertex $413 $286 $414 #
ellipse-curve $-1 0 0 -0.042000000000000003 0 0 1 0.125 0 0 1 I I #
point $-1 -0.34499999999999997 0 -0.042000000000000003 #
straight-curve $-1 -0.34499999999999997 0.34499999999999997 0 0 0 -1 I I #
point $-1 -0.34499999999999997 -0.34499999999999997 -0.098000000000000004 #
straight-curve $-1 -0.34499999999999997 0 -0.098000000000000004 0 1 0 I I #
point $-1 -0.34499999999999997 0.34499999999999997 -0.098000000000000004 #
face $-1 $331 $415 $27 $-1 $397 forward single #
loop $-1 $-1 $326 $308 #
plane-surface $-1 -0.34499999999999997 0 0 1 0 0 0 0 -1 forward_v I I I I #
coedge $-1 $312 $311 $416 $417 reversed $166 $-1 #
coedge $-1 $418 $419 $420 $316 forward $421 $-1 #
coedge $-1 $374 $313 $419 $386 forward $375 $-1 #
coedge $-1 $313 $373 $392 $422 forward $375 $-1 #
loop $-1 $-1 $313 $423 #
coedge $-1 $424 $425 $315 $377 forward $426 $-1 #
edge $-1 $265 1.2246063538223773e-016 $378 1.5707963267948968 $376 $255 forward 7 unknown #
vertex $-1 $427 $428 #
straight-curve $-1 -3.8803721177147799e-033 -0.34499999999999997 0.098000000000000004 0 0 1 I I #
coedge $-1 $429 $317 $425 $430 reversed $382 $-1 #
coedge $-1 $317 $429 $318 $338 reversed $382 $-1 #
loop $-1 $-1 $317 $353 #
coedge $-1 $431 $420 $319 $384 reversed $432 $-1 #
edge $-1 $402 -0.34499999999999997 $321 3.8803721177147799e-033 $383 $433 forward 7 unknown #
face $-1 $337 $320 $27 $-1 $401 reversed single #
edge $-1 $321 3.8803721177147799e-033 $434 0.34499999999999997 $419 $433 forward 7 unknown #
point $-1 -3.8803721177147799e-033 -0.34499999999999997 -0.097999999999999976 #
coedge $-1 $351 $322 $325 $391 forward $389 $-1 #
loop $-1 $-1 $322 $400 #
coedge $-1 $325 $324 $350 $408 forward $327 $-1 #
edge $-1 $328 0 $409 0.34499999999999997 $325 $435 forward 7 unknown #
coedge $-1 $436 $326 $374 $422 reversed $369 $-1 #
coedge $-1 $326 $436 $437 $332 reversed $369 $-1 #
face $-1 $272 $327 $27 $-1 $370 reversed single #
point $-1 -0.34499999999999997 0 -0.097999999999999976 #
straight-curve $-1 -0.34499999999999997 0 0.098000000000000004 0 -1 0 I I #
plane-surface $-1 0 0 0.098000000000000004 0 0 1 1 0 0 forward_v I I I I #
vertex $-1 $332 $438 #
straight-curve $-1 0.34499999999999997 0 -0.098000000000000004 0 -1 0 I I #
face $-1 $439 $389 $27 $-1 $401 reversed single #
plane-surface $-1 0 0 -0.098000000000000004 0 0 1 1 0 0 forward_v I I I I #
vertex $-1 $440 $441 #
straight-curve $-1 0.34499999999999997 0 0.098000000000000004 0 1 0 I I #
face $-1 $442 $426 $27 $-1 $397 forward single #
straight-curve $-1 0.34499999999999997 0.34499999999999997 0 0 0 -1 I I #
point $-1 0.34499999999999997 0.34499999999999997 0.098000000000000004 #
point $-1 0.34499999999999997 0.34499999999999997 -0.098000000000000004 #
edge $-1 $354 -0.098000000000000004 $409 0.098000000000000004 $350 $443 forward 7 unknown #
vertex $-1 $352 $444 #
point $-1 -0.34499999999999997 0.34499999999999997 0.098000000000000004 #
point $-1 -0.34499999999999997 0 -0.05600000000000005 #
convexity-sys-attrib $-1 $-1 $360 $286 #
model_id-kcp-attrib $-1 $-1 $-1 $361 1 990635120 50 -919470079 14 #
point $-1 -0.125 0 -0.042000000000000003 #
loop $-1 $-1 $416 $368 #
coedge $-1 $437 $445 $371 $417 forward $415 $-1 #
edge $-1 $378 1.5707963267948968 $254 3.1415926535897931 $416 $255 forward 7 unknown #
coedge $-1 $446 $372 $445 $447 reversed $421 $-1 #
coedge $-1 $372 $446 $373 $386 reversed $421 $-1 #
coedge $-1 $383 $448 $244 $316 reversed $432 $-1 #
loop $-1 $-1 $372 $439 #
edge $-1 $434 -0.34499999999999997 $328 0 $392 $435 forward 7 unknown #
face $-1 $385 $375 $27 $-1 $401 reversed single #
coedge $-1 $425 $376 $448 $427 forward $426 $-1 #
coedge $-1 $376 $424 $380 $430 forward $426 $-1 #
loop $-1 $-1 $376 $404 #
edge $-1 $378 -3.8803721177147799e-033 $449 0.34499999999999997 $448 $450 forward 7 unknown #
point $-1 -3.8803721177147799e-033 -0.34499999999999997 0.098000000000000004 #
coedge $-1 $381 $380 $431 $440 forward $382 $-1 #
edge $-1 $449 -0.34499999999999997 $265 0 $380 $403 forward 7 unknown #
coedge $-1 $448 $383 $429 $440 reversed $432 $-1 #
loop $-1 $-1 $420 $442 #
straight-curve $-1 0 -0.34499999999999997 -0.098000000000000004 -1 0 0 I I #
vertex $-1 $422 $451 #
straight-curve $-1 -0.34499999999999997 0 -0.098000000000000004 0 1 0 I I #
coedge $-1 $393 $392 $446 $452 reversed $369 $-1 #
coedge $-1 $445 $416 $393 $332 forward $415 $-1 #
point $-1 -0.34499999999999997 -0.34499999999999997 0.098000000000000004 #
face $-1 $394 $421 $27 $-1 $453 reversed single #
edge $-1 $449 -0.098000000000000004 $402 0.098000000000000004 $429 $454 forward 7 unknown #
point $-1 0.34499999999999997 -0.34499999999999997 -0.098000000000000004 #
face $-1 $423 $432 $27 $-1 $453 reversed single #
straight-curve $-1 -0.34499999999999997 0.34499999999999997 0 0 0 -1 I I #
point $-1 -0.34499999999999997 0.34499999999999997 -0.098000000000000004 #
coedge $-1 $416 $437 $418 $447 forward $415 $-1 #
coedge $-1 $419 $418 $436 $452 forward $421 $-1 #
edge $-1 $398 -0.34499999999999997 $378 -3.8803721177147799e-033 $418 $450 forward 7 unknown #
coedge $-1 $420 $431 $424 $427 reversed $432 $-1 #
vertex $-1 $430 $455 #
straight-curve $-1 0 -0.34499999999999997 0.098000000000000004 1 0 0 I I #
point $-1 -0.34499999999999997 -0.34499999999999997 -0.098000000000000004 #
edge $-1 $398 -0.098000000000000004 $434 0.098000000000000004 $436 $456 forward 7 unknown #
plane-surface $-1 0 -0.34499999999999997 0 0 1 0 0 0 1 forward_v I I I I #
straight-curve $-1 0.34499999999999997 -0.34499999999999997 0 0 0 -1 I I #
point $-1 0.34499999999999997 -0.34499999999999997 0.098000000000000004 #
straight-curve $-1 -0.34499999999999997 -0.34499999999999997 0 0 0 -1 I I #
End-of-ACIS-data 