106 0 1 0           
body $-1 $1 $-1 $2 #
lump $-1 $-1 $3 $0 #
transform $-1 1 0 0 0 1 0 0 0 1 0 0 0 1 0 0 0 #
shell $-1 $-1 $-1 $4 $1 #
face $-1 $5 $6 $3 $-1 $7 forward single #
face $-1 $8 $9 $3 $-1 $10 forward single #
loop $-1 $11 $12 $4 #
plane-surface $-1 0 0 0 0 0 1 1 0 0 0 I I I I #
face $-1 $13 $14 $3 $-1 $15 reversed single #
loop $-1 $16 $17 $5 #
plane-surface $-1 0 0 -0.4269999999999999907 0 0 1 1 0 0 0 I I I I #
loop $-1 $-1 $18 $4 #
coedge $-1 $12 $12 $19 $20 0 $6 $-1 #
face $-1 $21 $22 $3 $-1 $23 reversed single #
loop $-1 $24 $25 $8 #
plane-surface $-1 0 0 -0.5620000000000000551 0 0 1 1 0 0 0 I I I I #
loop $-1 $-1 $26 $5 #
coedge $-1 $17 $17 $27 $28 0 $9 $-1 #
coedge $-1 $18 $18 $29 $30 1 $11 $-1 #
coedge $-1 $19 $19 $12 $20 1 $31 $-1 #
edge $-1 $32 $32 $19 $33 0 #
face $-1 $34 $35 $3 $-1 $36 forward single #
loop $-1 $37 $38 $13 #
plane-surface $-1 0 0 -0.5420000000000000373 0 0 1 1 0 0 0 I I I I #
loop $-1 $-1 $39 $8 #
coedge $-1 $25 $25 $40 $41 0 $14 $-1 #
coedge $-1 $26 $26 $42 $43 0 $16 $-1 #
coedge $-1 $27 $27 $17 $28 1 $44 $-1 #
edge $-1 $45 $45 $27 $46 0 #
coedge $-1 $29 $29 $18 $30 0 $47 $-1 #
edge $-1 $48 $48 $29 $49 0 #
loop $-1 $-1 $19 $21 #
vertex $-1 $20 $50 #
ellipse-curve $-1 0 0 0 0 0 1 1 0 0 1 I I #
face $-1 $51 $52 $3 $-1 $53 forward single #
loop $-1 $31 $42 $21 #
cone-surface $-1 0 0 -0.5900999999999999579 0 0 1 -1 0 0 1 I I 0 1 0 I I I I #
loop $-1 $-1 $54 $13 #
coedge $-1 $38 $38 $55 $56 0 $22 $-1 #
coedge $-1 $39 $39 $57 $58 0 $24 $-1 #
coedge $-1 $40 $40 $25 $41 1 $59 $-1 #
edge $-1 $60 $60 $40 $61 0 #
coedge $-1 $42 $42 $26 $43 1 $35 $-1 #
edge $-1 $62 $62 $26 $63 0 #
loop $-1 $-1 $27 $34 #
vertex $-1 $28 $64 #
ellipse-curve $-1 0 0 -0.4269999999999999907 0 0 1 1.995000000000000107 0 0 1 I I #
loop $-1 $65 $29 $66 #
vertex $-1 $30 $67 #
ellipse-curve $-1 0 0 0 0 0 1 0.9375 0 0 1 I I #
point $-1 1 0 0 #
face $-1 $68 $69 $3 $-1 $70 reversed single #
loop $-1 $44 $71 $34 #
cone-surface $-1 0 0 -0.5900999999999999579 0 0 1 -1.995000000000000107 0 0 1 I I 0 1 0 I I I I #
coedge $-1 $54 $54 $72 $73 0 $37 $-1 #
coedge $-1 $55 $55 $38 $56 1 $65 $-1 #
edge $-1 $74 $74 $55 $75 0 #
coedge $-1 $57 $57 $39 $58 1 $76 $-1 #
edge $-1 $77 $77 $39 $78 0 #
loop $-1 $-1 $40 $79 #
vertex $-1 $41 $80 #
ellipse-curve $-1 0 0 -0.5620000000000010543 0 0 1 1.927000000000000046 0 0 1 I I #
vertex $-1 $43 $81 #
ellipse-curve $-1 0 0 -0.4269999999999999907 0 0 -1 1 0 0 1 I I #
point $-1 1.995000000000000107 0 -0.4269999999999999907 #
loop $-1 $-1 $55 $66 #
face $-1 $-1 $47 $3 $-1 $82 reversed single #
point $-1 0.9375 0 0 #
face $-1 $79 $76 $3 $-1 $83 forward single #
loop $-1 $84 $85 $51 #
torus-surface $-1 0 0 -0.527000000000000024 0 0 1 1.995000000000000107 0.02500000000000000139 1 0 0 0 I I I I #
coedge $-1 $71 $71 $86 $87 0 $52 $-1 #
coedge $-1 $72 $72 $54 $73 1 $88 $-1 #
edge $-1 $89 $89 $54 $90 0 #
vertex $-1 $56 $91 #
ellipse-curve $-1 0 0 -0.5420000000000000373 0 0 1 0.9375 0 0 1 I I #
loop $-1 $92 $57 $68 #
vertex $-1 $58 $93 #
ellipse-curve $-1 0 0 -0.5620000000000000551 0 0 -1 1.995000000000000107 0 0 1 I I #
face $-1 $66 $88 $3 $-1 $94 reversed single #
point $-1 1.927000000000000046 0 -0.5620000000000010543 #
point $-1 -1 0 -0.4269999999999999907 #
cone-surface $-1 0 0 -0.5900999999999999579 0 0 1 -0.9375 0 0 1 I I 0 1 0 I I I I #
cone-surface $-1 0 0 -0.5900999999999999579 0 0 1 -1.995000000000000107 0 0 1 I I 0 1 0 I I I I #
loop $-1 $-1 $86 $51 #
coedge $-1 $85 $85 $95 $96 0 $69 $-1 #
coedge $-1 $86 $86 $71 $87 1 $84 $-1 #
edge $-1 $97 $97 $86 $98 0 #
loop $-1 $59 $72 $79 #
vertex $-1 $73 $99 #
ellipse-curve $-1 0 0 -0.5419999999999990381 0 0 -1 1.892358983848619891 0 0 1 I I #
point $-1 0.9375 0 -0.5420000000000000373 #
loop $-1 $-1 $95 $68 #
point $-1 -1.995000000000000107 0 -0.5620000000000000551 #
cone-surface $-1 0 0 -0.5620000000000010543 0 0 -1 1.927000000000000046 0 0 1 I I 0.8660254037844390407 0.4999999999999990008 0 I I I I #
coedge $-1 $95 $95 $85 $96 1 $92 $-1 #
edge $-1 $100 $100 $95 $101 0 #
vertex $-1 $87 $102 #
ellipse-curve $-1 0 0 -0.5020000000000000018 0 0 1 1.995000000000000107 0 0 1 I I #
point $-1 -1.892358983848619891 0 -0.5419999999999990381 #
vertex $-1 $96 $103 #
ellipse-curve $-1 0 0 -0.5520000000000000462 0 0 1 1.995000000000000107 0 0 1 I I #
point $-1 -1.995000000000000107 0 -0.5020000000000000018 #
point $-1 -1.995000000000000107 0 -0.5520000000000000462 #
End-of-ACIS-data 