600 0 1 0           
99 GICL ACIS Healer - Source: /gicl/data5/repository/new/Spectrometer/bellows_attach_ring_21.sat - 6 0 18 ACIS 6.0.3 Solaris 24 Sat Apr 13 20:35:01 2002 
1 9.999999999999999547e-07 1.000000000000000036e-10 
body $-1 $1 $-1 $2 #
lump $-1 $-1 $3 $0 #
transform $-1 1 0 0 0 1 0 0 0 1 0 0 0 1 no_rotate no_reflect no_shear #
shell $-1 $-1 $-1 $4 $-1 $1 #
face $-1 $5 $6 $3 $-1 $7 forward single #
face $-1 $8 $9 $3 $-1 $10 forward single #
loop $-1 $11 $12 $4 #
plane-surface $-1 0 0 0 0 0 1 1 0 0 forward_v I I I I #
face $-1 $13 $14 $3 $-1 $15 reversed single #
loop $-1 $16 $17 $5 #
plane-surface $-1 0 0 -0.625 0 0 1 1 0 0 forward_v I I I I #
loop $-1 $-1 $18 $4 #
coedge $-1 $12 $12 $19 $20 forward $6 $-1 #
face $-1 $21 $22 $3 $-1 $23 reversed single #
loop $-1 $24 $25 $8 #
plane-surface $-1 0 0 -0.7600000000000000089 0 0 1 1 0 0 forward_v I I I I #
loop $-1 $-1 $26 $5 #
coedge $-1 $17 $17 $27 $28 forward $9 $-1 #
coedge $-1 $18 $18 $29 $30 reversed $11 $-1 #
coedge $-1 $19 $19 $12 $20 reversed $31 $-1 #
edge $-1 $32 0 $32 6.283185307179586232 $19 $33 forward 7 unknown #
face $-1 $34 $35 $3 $-1 $36 forward single #
loop $-1 $37 $38 $13 #
plane-surface $-1 0 0 -0.7399999999999999911 0 0 1 1 0 0 forward_v I I I I #
loop $-1 $-1 $39 $8 #
coedge $-1 $25 $25 $40 $41 forward $14 $-1 #
coedge $-1 $26 $26 $42 $43 forward $16 $-1 #
coedge $-1 $27 $27 $17 $28 reversed $44 $-1 #
edge $-1 $45 0 $45 6.283185307179586232 $27 $46 forward 7 unknown #
coedge $-1 $29 $29 $18 $30 forward $47 $-1 #
edge $-1 $48 0 $48 6.283185307179586232 $29 $49 forward 7 unknown #
loop $-1 $-1 $19 $21 #
vertex $-1 $20 $50 #
ellipse-curve $-1 0 0 0 0 0 1 1.468499999999999917 0 0 1 I I #
face $-1 $51 $52 $3 $-1 $53 forward single #
loop $-1 $31 $42 $21 #
cone-surface $-1 0 0 -0.7980000000000000426 0 0 1 -1.468499999999999917 0 0 1 I I 0 1 1.468499999999999917 forward I I I I #
loop $-1 $-1 $54 $13 #
coedge $-1 $38 $38 $55 $56 forward $22 $-1 #
coedge $-1 $39 $39 $57 $58 forward $24 $-1 #
coedge $-1 $40 $40 $25 $41 reversed $59 $-1 #
edge $-1 $60 0 $60 6.283185307179586232 $40 $61 forward 7 unknown #
coedge $-1 $42 $42 $26 $43 reversed $35 $-1 #
edge $-1 $62 -3.141592653589793116 $62 3.141592653589793116 $26 $63 forward 7 unknown #
loop $-1 $-1 $27 $34 #
vertex $-1 $28 $64 #
ellipse-curve $-1 0 0 -0.625 0 0 1 1.995000000000000107 0 0 1 I I #
loop $-1 $65 $29 $66 #
vertex $-1 $30 $67 #
ellipse-curve $-1 0 0 0 0 0 1 1.344999999999999973 0 0 1 I I #
point $-1 1.468499999999999917 0 0 #
face $-1 $68 $69 $3 $-1 $70 reversed single #
loop $-1 $44 $71 $34 #
cone-surface $-1 0 0 -0.7980000000000000426 0 0 1 -1.995000000000000107 0 0 1 I I 0 1 1.995000000000000107 forward I I I I #
coedge $-1 $54 $54 $72 $73 forward $37 $-1 #
coedge $-1 $55 $55 $38 $56 reversed $65 $-1 #
edge $-1 $74 0 $74 6.283185307179586232 $55 $75 forward 7 unknown #
coedge $-1 $57 $57 $39 $58 reversed $76 $-1 #
edge $-1 $77 -3.141592653589793116 $77 3.141592653589793116 $39 $78 forward 7 unknown #
loop $-1 $-1 $40 $79 #
vertex $-1 $41 $80 #
ellipse-curve $-1 0 0 -0.7600000000000000089 0 0 1 1.927000000000000046 0 0 1 I I #
vertex $-1 $43 $81 #
ellipse-curve $-1 0 0 -0.625 0 0 -1 1.468499999999999917 0 0 1 I I #
point $-1 1.995000000000000107 0 -0.625 #
loop $-1 $-1 $55 $66 #
face $-1 $-1 $47 $3 $-1 $82 reversed single #
point $-1 1.344999999999999973 0 0 #
face $-1 $79 $76 $3 $-1 $83 forward single #
loop $-1 $84 $85 $51 #
torus-surface $-1 0 0 -0.7249999999999999778 0 0 1 1.995000000000000107 0.02500000000000000139 1 0 0 forward_v I I I I #
coedge $-1 $71 $71 $86 $87 forward $52 $-1 #
coedge $-1 $72 $72 $54 $73 reversed $88 $-1 #
edge $-1 $89 -3.141592653589793116 $89 3.141592653589793116 $54 $90 forward 7 unknown #
vertex $-1 $56 $91 #
ellipse-curve $-1 0 0 -0.7399999999999999911 0 0 1 1.344999999999999973 0 0 1 I I #
loop $-1 $92 $57 $68 #
vertex $-1 $58 $93 #
ellipse-curve $-1 0 0 -0.7600000000000000089 0 0 -1 1.995000000000000107 0 0 1 I I #
face $-1 $66 $88 $3 $-1 $94 reversed single #
point $-1 1.927000000000000046 0 -0.7600000000000000089 #
point $-1 -1.468499999999999917 0 -0.625 #
cone-surface $-1 0 0 -0.7980000000000000426 0 0 1 -1.344999999999999973 0 0 1 I I 0 1 1.344999999999999973 forward I I I I #
cone-surface $-1 0 0 -0.7980000000000000426 0 0 1 -1.995000000000000107 0 0 1 I I 0 1 1.995000000000000107 forward I I I I #
loop $-1 $-1 $86 $51 #
coedge $-1 $85 $85 $95 $96 forward $69 $-1 #
coedge $-1 $86 $86 $71 $87 reversed $84 $-1 #
edge $-1 $97 -3.141592653589793116 $97 3.141592653589793116 $86 $98 forward 7 unknown #
loop $-1 $59 $72 $79 #
vertex $-1 $73 $99 #
ellipse-curve $-1 0 0 -0.7399999999999989919 0 0 -1 1.892358983848619891 0 0 1 I I #
point $-1 1.344999999999999973 0 -0.7399999999999999911 #
loop $-1 $-1 $95 $68 #
point $-1 -1.995000000000000107 0 -0.7600000000000000089 #
cone-surface $-1 0 0 -0.7600000000000000089 0 0 -1 1.927000000000000046 0 0 1 I I 0.8660254037844370423 0.5000000000000029976 1.927000000000000046 forward I I I I #
coedge $-1 $95 $95 $85 $96 reversed $92 $-1 #
edge $-1 $100 -3.141592653589793116 $100 3.141592653589793116 $95 $101 forward 7 unknown #
vertex $-1 $87 $102 #
ellipse-curve $-1 0 0 -0.6999999999999999556 0 0 1 1.995000000000000107 0 0 1 I I #
point $-1 -1.892358983848619891 0 -0.7399999999999989919 #
vertex $-1 $96 $103 #
ellipse-curve $-1 0 0 -0.75 0 0 1 1.995000000000000107 0 0 1 I I #
point $-1 -1.995000000000000107 0 -0.6999999999999999556 #
point $-1 -1.995000000000000107 0 -0.75 #
End-of-ACIS-data 