600 0 2 0           
24 FBMach with ACIS - 6.0.3 13 ACIS 6.0.3 NT 24 Wed May 23 12:25:37 2001 
1 9.9999999999999995e-007 1e-010 
body $2 $3 $-1 $4 #
bdycol-kcp $-1 1 2 $5 $6 #
model_id-kcp-attrib $-1 $-1 $-1 $0 1 990635137 80 1347420161 1 #
lump $-1 $-1 $7 $0 #
transform $-1 1 0 0 0 1 0 0 0 1 0 0 0 1 no_rotate no_reflect no_shear #
body $8 $9 $-1 $10 #
body $11 $12 $-1 $13 #
shell $-1 $-1 $-1 $14 $-1 $3 #
model_id-kcp-attrib $-1 $-1 $-1 $5 1 990635137 80 1347420162 1 #
lump $-1 $-1 $15 $5 #
transform $-1 1 0 0 0 1 0 0 0 1 0 0 -0.00010500000000002174 1 no_rotate no_reflect no_shear #
rgb_color-st-attrib $-1 $16 $-1 $6 0.5 1 1 #
lump $-1 $-1 $17 $6 #
transform $-1 -1 0 -1.2246063538223773e-016 0 1 0 1.2246063538223773e-016 0 -1 2.3164715019221779e-016 0 -0.00010500000000002174 1 rotate no_reflect no_shear #
face $18 $19 $20 $7 $-1 $21 forward single #
shell $-1 $-1 $-1 $22 $-1 $9 #
model_id-kcp-attrib $-1 $-1 $11 $6 1 990635137 110 1349386243 1 #
shell $-1 $-1 $-1 $23 $-1 $12 #
model_id-kcp-attrib $-1 $24 $-1 $14 1 990635137 80 1347420161 39 #
face $25 $26 $27 $7 $-1 $28 reversed single #
loop $-1 $29 $30 $14 #
plane-surface $-1 0 0 1.8915 0 0 1 1 0 0 forward_v I I I I #
face $31 $32 $33 $15 $-1 $34 forward single #
face $-1 $35 $36 $17 $-1 $37 forward single #
model_id-kcp-attrib $-1 $38 $18 $14 1 990635137 80 1347420161 37 #
model_id-kcp-attrib $-1 $39 $-1 $19 1 990635137 80 1347420161 38 #
face $40 $41 $42 $7 $-1 $43 forward single #
loop $-1 $44 $45 $19 #
plane-surface $-1 0 0 -1.89171 0 0 1 1 0 0 forward_v I I I I #
loop $46 $-1 $47 $14 #
coedge $-1 $30 $30 $48 $49 forward $20 $-1 #
model_id-kcp-attrib $-1 $-1 $-1 $22 1 990635137 80 1347420162 2 #
face $50 $51 $52 $15 $-1 $53 reversed single #
loop $-1 $-1 $54 $22 #
plane-surface $-1 0 0 1.891605 0 0 1 1 0 0 forward_v I I I I #
face $-1 $55 $56 $17 $-1 $57 forward single #
loop $-1 $58 $59 $23 #
cone-surface $-1 0 0 0 0 0 1 1.3400000000000001 0 0 1 I I 0 1 1.3400000000000001 forward I I I I #
model_id-kcp-attrib $-1 $-1 $24 $14 1 990635137 80 1347420161 2 #
model_id-kcp-attrib $-1 $-1 $25 $19 1 990635137 80 1347420161 3 #
model_id-kcp-attrib $-1 $-1 $-1 $26 1 990635137 80 1347420161 4 #
face $60 $61 $62 $7 $-1 $63 forward single #
loop $-1 $64 $65 $26 #
cone-surface $-1 0 0 1.8915 0 0 1 1.9950000000000001 0 0 1 I I 0.98331178371766004 0.18192838151864499 1.9950000000000001 forward I I I I #
loop $66 $-1 $67 $19 #
coedge $-1 $45 $45 $68 $69 forward $27 $-1 #
model_id-kcp-attrib $-1 $-1 $-1 $29 1 990635137 80 1347420161 43 #
coedge $-1 $47 $47 $70 $71 reversed $29 $-1 #
coedge $-1 $48 $48 $30 $49 reversed $64 $-1 #
edge $72 $73 0 $73 6.2831853071795862 $48 $74 forward 7 unknown #
model_id-kcp-attrib $-1 $-1 $-1 $32 1 990635137 80 1347420162 3 #
face $-1 $75 $76 $15 $-1 $77 reversed single #
loop $-1 $-1 $78 $32 #
plane-surface $-1 0 0 -1.891605 0 0 1 1 0 0 forward_v I I I I #
coedge $-1 $79 $80 $81 $82 forward $33 $-1 #
face $-1 $-1 $83 $17 $-1 $84 forward single #
loop $-1 $-1 $85 $35 #
plane-surface $-1 0 0 -1.8916050000000002 0 0 -1 -1 0 0 forward_v I I I I #
loop $-1 $-1 $86 $23 #
coedge $-1 $59 $59 $85 $87 reversed $36 $-1 #
model_id-kcp-attrib $-1 $-1 $-1 $41 1 990635137 80 1347420161 5 #
face $88 $89 $90 $7 $-1 $91 forward single #
loop $-1 $92 $93 $41 #
cone-surface $-1 0 0 1.6507692415890101 0 0 -1 1.9950000000000001 0 0 1 I I 0.98325490756395495 0.182235525492147 1.9950000000000001 forward I I I I #
loop $-1 $-1 $48 $26 #
coedge $-1 $65 $65 $94 $95 forward $42 $-1 #
model_id-kcp-attrib $-1 $-1 $-1 $44 1 990635137 80 1347420161 42 #
coedge $-1 $67 $67 $96 $97 forward $44 $-1 #
coedge $-1 $68 $68 $45 $69 reversed $98 $-1 #
edge $-1 $99 -3.1415926535897931 $99 3.1415926535897931 $45 $100 forward 7 unknown #
coedge $-1 $70 $70 $47 $71 forward $101 $-1 #
edge $102 $103 0 $103 6.2831853071795862 $70 $104 forward 7 unknown #
attrib_edge_convexity-kcp-attrib $-1 $105 $-1 $49 1 #
vertex $-1 $49 $106 #
ellipse-curve $-1 0 0 1.8915 0 0 1 1.9950000000000001 0 0 1 I I #
face $-1 $107 $108 $15 $-1 $109 reversed single #
loop $-1 $-1 $110 $51 #
plane-surface $-1 0 -1.9950000000000001 0 0 1 0 0 0 1 forward_v I I I I #
coedge $-1 $111 $112 $113 $114 forward $52 $-1 #
coedge $-1 $115 $54 $116 $117 forward $33 $-1 #
coedge $-1 $54 $115 $118 $119 forward $33 $-1 #
coedge $-1 $120 $121 $54 $82 reversed $122 $-1 #
edge $-1 $123 -1.9950000000000001 $124 1.9950000000000001 $81 $125 forward 7 unknown #
loop $-1 $-1 $126 $55 #
plane-surface $-1 0 0 1.8916050000000002 0 0 1 1 0 0 forward_v I I I I #
coedge $-1 $85 $85 $59 $87 forward $56 $-1 #
coedge $-1 $86 $86 $126 $127 reversed $58 $-1 #
edge $-1 $128 0 $128 6.2831853071795862 $85 $129 forward 7 unknown #
model_id-kcp-attrib $-1 $-1 $-1 $61 1 990635137 80 1347420161 6 #
face $130 $131 $132 $7 $-1 $133 forward single #
loop $-1 $134 $135 $61 #
cone-surface $-1 0 0 1.6507692415890101 0 0 1 1.9950000000000001 0 0 1 I I 0.99162549500557595 0.12914672916859499 1.9950000000000001 forward I I I I #
loop $-1 $-1 $94 $41 #
coedge $-1 $93 $93 $136 $137 forward $62 $-1 #
coedge $-1 $94 $94 $65 $95 reversed $92 $-1 #
edge $-1 $138 -3.1415926535897931 $138 3.1415926535897931 $94 $139 forward 7 unknown #
coedge $-1 $96 $96 $67 $97 reversed $140 $-1 #
edge $141 $142 -3.1415926535897931 $142 3.1415926535897931 $96 $143 forward 7 unknown #
loop $-1 $144 $68 $145 #
vertex $-1 $69 $146 #
ellipse-curve $-1 0 0 -1.89171 0 0 -1 1.9950000000000001 0 0 1 I I #
loop $147 $-1 $70 $148 #
attrib_edge_convexity-kcp-attrib $-1 $149 $-1 $71 1 #
vertex $150 $71 $151 #
ellipse-curve $-1 0 0 1.8915 0 0 1 -1.3400000000000001 0 0 1 I I #
convexity-sys-attrib $-1 $-1 $72 $49 #
point $-1 1.9950000000000001 0 1.8915 #
face $-1 $152 $153 $15 $-1 $154 reversed single #
loop $-1 $-1 $155 $75 #
plane-surface $-1 -1.9950000000000001 0 0 1 0 0 0 0 -1 forward_v I I I I #
coedge $-1 $156 $118 $157 $158 forward $76 $-1 #
coedge $-1 $159 $78 $156 $160 forward $52 $-1 #
coedge $-1 $78 $159 $161 $162 forward $52 $-1 #
coedge $-1 $121 $120 $78 $114 reversed $122 $-1 #
edge $-1 $163 -1.9950000000000001 $164 1.9950000000000001 $113 $165 forward 7 unknown #
coedge $-1 $80 $79 $166 $167 forward $33 $-1 #
coedge $-1 $168 $169 $79 $117 reversed $153 $-1 #
edge $-1 $124 -1.9950000000000001 $170 1.9950000000000001 $116 $171 forward 7 unknown #
coedge $-1 $110 $172 $80 $119 reversed $76 $-1 #
edge $-1 $173 -1.9950000000000001 $123 1.9950000000000001 $118 $174 forward 7 unknown #
coedge $-1 $113 $81 $172 $175 forward $122 $-1 #
coedge $-1 $81 $113 $168 $176 reversed $122 $-1 #
loop $-1 $-1 $120 $152 #
vertex $-1 $82 $177 #
vertex $-1 $82 $178 #
straight-curve $-1 1.9950000000000001 0 1.891605 0 1 0 I I #
coedge $-1 $126 $126 $86 $127 forward $83 $-1 #
edge $-1 $179 0 $179 6.2831853071795862 $126 $180 forward 7 unknown #
vertex $-1 $87 $181 #
ellipse-curve $-1 0 0 -1.8916050000000002 0 0 -1 1.3400000000000001 0 0 1 I I #
model_id-kcp-attrib $-1 $-1 $-1 $89 1 990635137 80 1347420161 7 #
face $182 $183 $184 $7 $-1 $185 forward single #
loop $-1 $186 $187 $89 #
cone-surface $-1 0 0 1.4456445504659701 0 0 -1 1.9950000000000001 0 0 1 I I 0.98325490756395495 0.182235525492147 1.9950000000000001 forward I I I I #
loop $-1 $-1 $136 $61 #
coedge $-1 $135 $135 $188 $189 forward $90 $-1 #
coedge $-1 $136 $136 $93 $137 reversed $134 $-1 #
edge $-1 $190 -3.1415926535897931 $190 3.1415926535897931 $136 $191 forward 7 unknown #
vertex $-1 $95 $192 #
ellipse-curve $-1 0 0 1.7712396207945 0 0 1 1.345 0 0 1 I I #
loop $193 $101 $96 $148 #
attrib_edge_convexity-kcp-attrib $-1 $194 $-1 $97 1 #
vertex $195 $97 $196 #
ellipse-curve $-1 0 0 -1.89171 0 0 1 1.3400000000000001 0 0 1 I I #
loop $-1 $-1 $197 $145 #
face $198 $148 $98 $7 $-1 $199 forward single #
point $-1 -1.9950000000000001 0 -1.89171 #
model_id-kcp-attrib $-1 $-1 $-1 $101 1 990635137 80 1347420161 41 #
face $200 $-1 $140 $7 $-1 $201 reversed single #
convexity-sys-attrib $-1 $-1 $102 $71 #
model_id-kcp-attrib $-1 $-1 $-1 $103 1 990635137 80 1347420161 45 #
point $-1 -1.3400000000000001 0 1.8915 #
face $-1 $-1 $122 $15 $-1 $202 reversed single #
loop $-1 $-1 $168 $107 #
plane-surface $-1 0 1.9950000000000001 0 0 -1 0 0 0 -1 forward_v I I I I #
coedge $-1 $203 $166 $169 $204 forward $108 $-1 #
coedge $-1 $172 $110 $111 $160 reversed $76 $-1 #
coedge $-1 $166 $203 $110 $158 reversed $108 $-1 #
edge $-1 $173 -1.891605 $205 1.891605 $157 $206 forward 7 unknown #
coedge $-1 $112 $111 $203 $207 forward $52 $-1 #
edge $-1 $164 -1.9950000000000001 $205 1.9950000000000001 $156 $208 forward 7 unknown #
coedge $-1 $169 $168 $112 $162 reversed $153 $-1 #
edge $-1 $209 -1.9950000000000001 $163 1.9950000000000001 $161 $210 forward 7 unknown #
vertex $-1 $114 $211 #
vertex $-1 $175 $212 #
straight-curve $-1 1.9950000000000001 0 -1.891605 0 -1 0 I I #
coedge $-1 $155 $157 $115 $167 reversed $108 $-1 #
edge $-1 $170 -1.9950000000000001 $173 1.9950000000000001 $166 $213 forward 7 unknown #
coedge $-1 $161 $116 $121 $176 forward $153 $-1 #
coedge $-1 $116 $161 $155 $204 reversed $153 $-1 #
vertex $-1 $117 $214 #
straight-curve $-1 0 1.9950000000000001 1.891605 -1 0 0 I I #
coedge $-1 $118 $156 $120 $175 reversed $76 $-1 #
vertex $-1 $167 $215 #
straight-curve $-1 0 -1.9950000000000001 1.891605 1 0 0 I I #
edge $-1 $123 -1.891605 $164 1.891605 $120 $216 forward 7 unknown #
edge $-1 $124 -1.891605 $163 1.891605 $121 $217 forward 7 unknown #
point $-1 1.9950000000000001 -1.9950000000000001 1.891605 #
point $-1 1.9950000000000001 1.9950000000000001 1.891605 #
vertex $-1 $127 $218 #
ellipse-curve $-1 0 0 1.8916050000000002 0 0 1 1.3400000000000001 0 0 1 I I #
point $-1 1.3400000000000001 0 -1.8916050000000002 #
model_id-kcp-attrib $-1 $-1 $-1 $131 1 990635137 80 1347420161 8 #
face $219 $220 $221 $7 $-1 $222 forward single #
loop $-1 $223 $224 $131 #
cone-surface $-1 0 0 1.4456445504659701 0 0 1 1.9950000000000001 0 0 1 I I 0.98325490756395495 0.182235525492147 1.9950000000000001 forward I I I I #
loop $-1 $-1 $188 $89 #
coedge $-1 $187 $187 $225 $226 forward $132 $-1 #
coedge $-1 $188 $188 $135 $189 reversed $186 $-1 #
edge $-1 $227 -3.1415926535897931 $227 3.1415926535897931 $188 $228 forward 7 unknown #
vertex $-1 $137 $229 #
ellipse-curve $-1 0 0 1.6507692415890101 0 0 1 1.9950000000000001 0 0 1 I I #
point $-1 -1.345 0 1.7712396207945 #
model_id-kcp-attrib $-1 $-1 $-1 $140 1 990635137 80 1347420161 40 #
convexity-sys-attrib $-1 $-1 $141 $97 #
model_id-kcp-attrib $-1 $-1 $-1 $142 1 990635137 80 1347420161 44 #
point $-1 -1.3400000000000001 0 -1.89171 #
coedge $-1 $197 $197 $230 $231 reversed $144 $-1 #
model_id-kcp-attrib $-1 $-1 $-1 $145 1 990635137 80 1347420161 35 #
cone-surface $-1 0 0 -1.89171 0 0 -1 1.9950000000000001 0 0 1 I I 0.98325490756395495 0.182235525492147 1.9950000000000001 forward I I I I #
model_id-kcp-attrib $-1 $-1 $-1 $148 1 990635137 80 1347420161 36 #
cone-surface $-1 0 0 1.8915 0 0 -1 -1.3400000000000001 0 0 1 I I 0 1 1.3400000000000001 forward I I I I #
plane-surface $-1 1.9950000000000001 0 0 -1 0 0 0 0 1 forward_v I I I I #
coedge $-1 $157 $155 $159 $207 reversed $108 $-1 #
edge $-1 $170 -1.891605 $209 1.891605 $169 $232 forward 7 unknown #
vertex $-1 $207 $233 #
straight-curve $-1 -1.9950000000000001 -1.9950000000000001 0 0 0 -1 I I #
edge $-1 $205 -1.9950000000000001 $209 1.9950000000000001 $203 $234 forward 7 unknown #
straight-curve $-1 0 -1.9950000000000001 -1.891605 -1 0 0 I I #
vertex $-1 $162 $235 #
straight-curve $-1 0 1.9950000000000001 -1.891605 1 0 0 I I #
point $-1 1.9950000000000001 1.9950000000000001 -1.891605 #
point $-1 1.9950000000000001 -1.9950000000000001 -1.891605 #
straight-curve $-1 -1.9950000000000001 0 1.891605 0 -1 0 I I #
point $-1 -1.9950000000000001 1.9950000000000001 1.891605 #
point $-1 -1.9950000000000001 -1.9950000000000001 1.891605 #
straight-curve $-1 1.9950000000000001 -1.9950000000000001 0 0 0 -1 I I #
straight-curve $-1 1.9950000000000001 1.9950000000000001 0 0 0 -1 I I #
point $-1 1.3400000000000001 0 1.8916050000000002 #
model_id-kcp-attrib $-1 $-1 $-1 $183 1 990635137 80 1347420161 9 #
face $236 $237 $238 $7 $-1 $239 forward single #
loop $-1 $240 $241 $183 #
cone-surface $-1 0 0 1.2047037920549699 0 0 -1 1.9950000000000001 0 0 1 I I 0.98325490756395495 0.182235525492147 1.9950000000000001 forward I I I I #
loop $-1 $-1 $225 $131 #
coedge $-1 $224 $224 $242 $243 forward $184 $-1 #
coedge $-1 $225 $225 $187 $226 reversed $223 $-1 #
edge $-1 $244 -3.1415926535897931 $244 3.1415926535897931 $225 $245 forward 7 unknown #
vertex $-1 $189 $246 #
ellipse-curve $-1 0 0 1.56611492967147 0 0 1 1.345 0 0 1 I I #
point $-1 -1.9950000000000001 0 1.6507692415890101 #
coedge $-1 $230 $230 $197 $231 forward $247 $-1 #
edge $-1 $248 -3.1415926535897931 $248 3.1415926535897931 $197 $249 forward 7 unknown #
straight-curve $-1 -1.9950000000000001 1.9950000000000001 0 0 0 -1 I I #
point $-1 -1.9950000000000001 -1.9950000000000001 -1.891605 #
straight-curve $-1 -1.9950000000000001 0 -1.891605 0 1 0 I I #
point $-1 -1.9950000000000001 1.9950000000000001 -1.891605 #
model_id-kcp-attrib $-1 $-1 $-1 $220 1 990635137 80 1347420161 10 #
face $250 $251 $252 $7 $-1 $253 forward single #
loop $-1 $254 $255 $220 #
cone-surface $-1 0 0 1.2047037920549699 0 0 1 1.9950000000000001 0 0 1 I I 0.98325490756395495 0.182235525492147 1.9950000000000001 forward I I I I #
loop $-1 $-1 $242 $183 #
coedge $-1 $241 $241 $256 $257 forward $221 $-1 #
coedge $-1 $242 $242 $224 $243 reversed $240 $-1 #
edge $-1 $258 -3.1415926535897931 $258 3.1415926535897931 $242 $259 forward 7 unknown #
vertex $-1 $226 $260 #
ellipse-curve $-1 0 0 1.4456445504659701 0 0 1 1.9950000000000001 0 0 1 I I #
point $-1 -1.345 0 1.56611492967147 #
loop $-1 $261 $230 $262 #
vertex $-1 $231 $263 #
ellipse-curve $-1 0 0 -1.7712396207945 0 0 1 1.345 0 0 1 I I #
model_id-kcp-attrib $-1 $-1 $-1 $237 1 990635137 80 1347420161 11 #
face $264 $265 $266 $7 $-1 $267 forward single #
loop $-1 $268 $269 $237 #
cone-surface $-1 0 0 0.96376303364397897 0 0 -1 1.9950000000000001 0 0 1 I I 0.98325490756395495 0.182235525492147 1.9950000000000001 forward I I I I #
loop $-1 $-1 $256 $220 #
coedge $-1 $255 $255 $270 $271 forward $238 $-1 #
coedge $-1 $256 $256 $241 $257 reversed $254 $-1 #
edge $-1 $272 -3.1415926535897931 $272 3.1415926535897931 $256 $273 forward 7 unknown #
vertex $-1 $243 $274 #
ellipse-curve $-1 0 0 1.3251741712604701 0 0 1 1.345 0 0 1 I I #
point $-1 -1.9950000000000001 0 1.4456445504659701 #
loop $-1 $-1 $275 $262 #
face $276 $145 $247 $7 $-1 $277 forward single #
point $-1 -1.345 0 -1.7712396207945 #
model_id-kcp-attrib $-1 $-1 $-1 $251 1 990635137 80 1347420161 12 #
face $278 $279 $280 $7 $-1 $281 forward single #
loop $-1 $282 $283 $251 #
cone-surface $-1 0 0 0.96376303364397897 0 0 1 1.9950000000000001 0 0 1 I I 0.98325490756395495 0.182235525492147 1.9950000000000001 forward I I I I #
loop $-1 $-1 $270 $237 #
coedge $-1 $269 $269 $284 $285 forward $252 $-1 #
coedge $-1 $270 $270 $255 $271 reversed $268 $-1 #
edge $-1 $286 -3.1415926535897931 $286 3.1415926535897931 $270 $287 forward 7 unknown #
vertex $-1 $257 $288 #
ellipse-curve $-1 0 0 1.2047037920549699 0 0 1 1.9950000000000001 0 0 1 I I #
point $-1 -1.345 0 1.3251741712604701 #
coedge $-1 $275 $275 $289 $290 reversed $261 $-1 #
model_id-kcp-attrib $-1 $-1 $-1 $262 1 990635137 80 1347420161 34 #
cone-surface $-1 0 0 -1.6507692415890101 0 0 1 1.9950000000000001 0 0 1 I I 0.98325490756395495 0.182235525492147 1.9950000000000001 forward I I I I #
model_id-kcp-attrib $-1 $-1 $-1 $265 1 990635137 80 1347420161 13 #
face $291 $292 $293 $7 $-1 $294 forward single #
loop $-1 $295 $296 $265 #
cone-surface $-1 0 0 0.72282227523298503 0 0 -1 1.9950000000000001 0 0 1 I I 0.98325490756395495 0.182235525492147 1.9950000000000001 forward I I I I #
loop $-1 $-1 $284 $251 #
coedge $-1 $283 $283 $297 $298 forward $266 $-1 #
coedge $-1 $284 $284 $269 $285 reversed $282 $-1 #
edge $-1 $299 -3.1415926535897931 $299 3.1415926535897931 $284 $300 forward 7 unknown #
vertex $-1 $271 $301 #
ellipse-curve $-1 0 0 1.0842334128494799 0 0 1 1.345 0 0 1 I I #
point $-1 -1.9950000000000001 0 1.2047037920549699 #
coedge $-1 $289 $289 $275 $290 forward $302 $-1 #
edge $-1 $303 -3.1415926535897931 $303 3.1415926535897931 $275 $304 forward 7 unknown #
model_id-kcp-attrib $-1 $-1 $-1 $279 1 990635137 80 1347420161 14 #
face $305 $306 $307 $7 $-1 $308 forward single #
loop $-1 $309 $310 $279 #
cone-surface $-1 0 0 0.72282227523298503 0 0 1 1.9950000000000001 0 0 1 I I 0.98325490756395395 0.182235525492148 1.9950000000000001 forward I I I I #
loop $-1 $-1 $297 $265 #
coedge $-1 $296 $296 $311 $312 forward $280 $-1 #
coedge $-1 $297 $297 $283 $298 reversed $295 $-1 #
edge $-1 $313 -3.1415926535897931 $313 3.1415926535897931 $297 $314 forward 7 unknown #
vertex $-1 $285 $315 #
ellipse-curve $-1 0 0 0.96376303364397897 0 0 1 1.9950000000000001 0 0 1 I I #
point $-1 -1.345 0 1.0842334128494799 #
loop $-1 $316 $289 $317 #
vertex $-1 $290 $318 #
ellipse-curve $-1 0 0 -1.6507692415890101 0 0 1 1.9950000000000001 0 0 1 I I #
model_id-kcp-attrib $-1 $-1 $-1 $292 1 990635137 80 1347420161 15 #
face $319 $320 $321 $7 $-1 $322 forward single #
loop $-1 $323 $324 $292 #
cone-surface $-1 0 0 0.48188151682198899 0 0 -1 1.9950000000000001 0 0 1 I I 0.98325490756395495 0.182235525492147 1.9950000000000001 forward I I I I #
loop $-1 $-1 $311 $279 #
coedge $-1 $310 $310 $325 $326 forward $293 $-1 #
coedge $-1 $311 $311 $296 $312 reversed $309 $-1 #
edge $-1 $327 -3.1415926535897931 $327 3.1415926535897931 $311 $328 forward 7 unknown #
vertex $-1 $298 $329 #
ellipse-curve $-1 0 0 0.843292654438482 0 0 1 1.345 0 0 1 I I #
point $-1 -1.9950000000000001 0 0.96376303364397897 #
loop $-1 $-1 $330 $317 #
face $331 $262 $302 $7 $-1 $332 forward single #
point $-1 -1.9950000000000001 0 -1.6507692415890101 #
model_id-kcp-attrib $-1 $-1 $-1 $306 1 990635137 80 1347420161 16 #
face $333 $334 $335 $7 $-1 $336 forward single #
loop $-1 $337 $338 $306 #
cone-surface $-1 0 0 0.48188151682198899 0 0 1 1.9950000000000001 0 0 1 I I 0.98325490756395495 0.182235525492147 1.9950000000000001 forward I I I I #
loop $-1 $-1 $325 $292 #
coedge $-1 $324 $324 $339 $340 forward $307 $-1 #
coedge $-1 $325 $325 $310 $326 reversed $323 $-1 #
edge $-1 $341 -3.1415926535897931 $341 3.1415926535897931 $325 $342 forward 7 unknown #
vertex $-1 $312 $343 #
ellipse-curve $-1 0 0 0.72282227523298503 0 0 1 1.9950000000000001 0 0 1 I I #
point $-1 -1.345 0 0.843292654438482 #
coedge $-1 $330 $330 $344 $345 reversed $316 $-1 #
model_id-kcp-attrib $-1 $-1 $-1 $317 1 990635137 80 1347420161 33 #
cone-surface $-1 0 0 -1.6507692415890101 0 0 -1 1.9950000000000001 0 0 1 I I 0.98325490756395495 0.182235525492147 1.9950000000000001 forward I I I I #
model_id-kcp-attrib $-1 $-1 $-1 $320 1 990635137 80 1347420161 17 #
face $346 $347 $348 $7 $-1 $349 forward single #
loop $-1 $350 $351 $320 #
cone-surface $-1 0 0 0.24094075841099399 0 0 -1 1.9950000000000001 0 0 1 I I 0.98325490756395395 0.182235525492148 1.9950000000000001 forward I I I I #
loop $-1 $-1 $339 $306 #
coedge $-1 $338 $338 $352 $353 forward $321 $-1 #
coedge $-1 $339 $339 $324 $340 reversed $337 $-1 #
edge $-1 $354 -3.1415926535897931 $354 3.1415926535897931 $339 $355 forward 7 unknown #
vertex $-1 $326 $356 #
ellipse-curve $-1 0 0 0.60235189602748695 0 0 1 1.345 0 0 1 I I #
point $-1 -1.9950000000000001 0 0.72282227523298503 #
coedge $-1 $344 $344 $330 $345 forward $357 $-1 #
edge $-1 $358 -3.1415926535897931 $358 3.1415926535897931 $330 $359 forward 7 unknown #
model_id-kcp-attrib $-1 $-1 $-1 $334 1 990635137 80 1347420161 18 #
face $360 $361 $362 $7 $-1 $363 forward single #
loop $-1 $364 $365 $334 #
cone-surface $-1 0 0 0.24094075841099399 0 0 1 1.9950000000000001 0 0 1 I I 0.98325490756395495 0.182235525492147 1.9950000000000001 forward I I I I #
loop $-1 $-1 $352 $320 #
coedge $-1 $351 $351 $366 $367 forward $335 $-1 #
coedge $-1 $352 $352 $338 $353 reversed $350 $-1 #
edge $-1 $368 -3.1415926535897931 $368 3.1415926535897931 $352 $369 forward 7 unknown #
vertex $-1 $340 $370 #
ellipse-curve $-1 0 0 0.48188151682198899 0 0 1 1.9950000000000001 0 0 1 I I #
point $-1 -1.345 0 0.60235189602748695 #
loop $-1 $371 $344 $372 #
vertex $-1 $345 $373 #
ellipse-curve $-1 0 0 -1.5302988623835101 0 0 1 1.345 0 0 1 I I #
model_id-kcp-attrib $-1 $-1 $-1 $347 1 990635137 80 1347420161 19 #
face $374 $375 $376 $7 $-1 $377 forward single #
loop $-1 $378 $379 $347 #
cone-surface $-1 0 0 0 0 0 -1 1.9950000000000001 0 0 1 I I 0.98325490756395495 0.182235525492147 1.9950000000000001 forward I I I I #
loop $-1 $-1 $366 $334 #
coedge $-1 $365 $365 $380 $381 forward $348 $-1 #
coedge $-1 $366 $366 $351 $367 reversed $364 $-1 #
edge $-1 $382 -3.1415926535897931 $382 3.1415926535897931 $366 $383 forward 7 unknown #
vertex $-1 $353 $384 #
ellipse-curve $-1 0 0 0.36141113761649302 0 0 1 1.345 0 0 1 I I #
point $-1 -1.9950000000000001 0 0.48188151682198899 #
loop $-1 $-1 $385 $372 #
face $386 $317 $357 $7 $-1 $387 forward single #
point $-1 -1.345 0 -1.5302988623835101 #
model_id-kcp-attrib $-1 $-1 $-1 $361 1 990635137 80 1347420161 20 #
face $388 $389 $390 $7 $-1 $391 forward single #
loop $-1 $392 $393 $361 #
cone-surface $-1 0 0 0 0 0 1 1.9950000000000001 0 0 1 I I 0.99162549500557595 0.12914672916859499 1.9950000000000001 forward I I I I #
loop $-1 $-1 $380 $347 #
coedge $-1 $379 $379 $394 $395 forward $362 $-1 #
coedge $-1 $380 $380 $365 $381 reversed $378 $-1 #
edge $-1 $396 -3.1415926535897931 $396 3.1415926535897931 $380 $397 forward 7 unknown #
vertex $-1 $367 $398 #
ellipse-curve $-1 0 0 0.24094075841099399 0 0 1 1.9950000000000001 0 0 1 I I #
point $-1 -1.345 0 0.36141113761649302 #
coedge $-1 $385 $385 $399 $400 reversed $371 $-1 #
model_id-kcp-attrib $-1 $-1 $-1 $372 1 990635137 80 1347420161 32 #
cone-surface $-1 0 0 -1.4098284831780099 0 0 1 1.9950000000000001 0 0 1 I I 0.98325490756395495 0.182235525492147 1.9950000000000001 forward I I I I #
model_id-kcp-attrib $-1 $-1 $-1 $375 1 990635137 80 1347420161 21 #
face $401 $402 $403 $7 $-1 $404 forward single #
loop $-1 $405 $406 $375 #
cone-surface $-1 0 0 -0.205124691123037 0 0 -1 1.9950000000000001 0 0 1 I I 0.98325490756395495 0.182235525492147 1.9950000000000001 forward I I I I #
loop $-1 $-1 $394 $361 #
coedge $-1 $393 $393 $407 $408 forward $376 $-1 #
coedge $-1 $394 $394 $379 $395 reversed $392 $-1 #
edge $-1 $409 -3.1415926535897931 $409 3.1415926535897931 $394 $410 forward 7 unknown #
vertex $-1 $381 $411 #
ellipse-curve $-1 0 0 0.120470379205498 0 0 1 1.345 0 0 1 I I #
point $-1 -1.9950000000000001 0 0.24094075841099399 #
coedge $-1 $399 $399 $385 $400 forward $412 $-1 #
edge $-1 $413 -3.1415926535897931 $413 3.1415926535897931 $385 $414 forward 7 unknown #
model_id-kcp-attrib $-1 $-1 $-1 $389 1 990635137 80 1347420161 22 #
face $415 $416 $417 $7 $-1 $418 forward single #
loop $-1 $419 $420 $389 #
cone-surface $-1 0 0 -0.205124691123037 0 0 1 1.9950000000000001 0 0 1 I I 0.98325490756395495 0.182235525492147 1.9950000000000001 forward I I I I #
loop $-1 $-1 $407 $375 #
coedge $-1 $406 $406 $421 $422 forward $390 $-1 #
coedge $-1 $407 $407 $393 $408 reversed $405 $-1 #
edge $-1 $423 -3.1415926535897931 $423 3.1415926535897931 $407 $424 forward 7 unknown #
vertex $-1 $395 $425 #
ellipse-curve $-1 0 0 0 0 0 1 1.9950000000000001 0 0 1 I I #
point $-1 -1.345 0 0.120470379205498 #
loop $-1 $426 $399 $427 #
vertex $-1 $400 $428 #
ellipse-curve $-1 0 0 -1.4098284831780099 0 0 1 1.9950000000000001 0 0 1 I I #
model_id-kcp-attrib $-1 $-1 $-1 $402 1 990635137 80 1347420161 23 #
face $429 $430 $431 $7 $-1 $432 forward single #
loop $-1 $433 $434 $402 #
cone-surface $-1 0 0 -0.44606544953403199 0 0 -1 1.9950000000000001 0 0 1 I I 0.98325490756395495 0.182235525492147 1.9950000000000001 forward I I I I #
loop $-1 $-1 $421 $389 #
coedge $-1 $420 $420 $435 $436 forward $403 $-1 #
coedge $-1 $421 $421 $406 $422 reversed $419 $-1 #
edge $-1 $437 -3.1415926535897931 $437 3.1415926535897931 $421 $438 forward 7 unknown #
vertex $-1 $408 $439 #
ellipse-curve $-1 0 0 -0.084654311917538999 0 0 1 1.345 0 0 1 I I #
point $-1 -1.9950000000000001 0 0 #
loop $-1 $-1 $440 $427 #
face $441 $372 $412 $7 $-1 $442 forward single #
point $-1 -1.9950000000000001 0 -1.4098284831780099 #
model_id-kcp-attrib $-1 $-1 $-1 $416 1 990635137 80 1347420161 24 #
face $443 $444 $445 $7 $-1 $446 forward single #
loop $-1 $447 $448 $416 #
cone-surface $-1 0 0 -0.44606544953403199 0 0 1 1.9950000000000001 0 0 1 I I 0.98325490756395495 0.182235525492147 1.9950000000000001 forward I I I I #
loop $-1 $-1 $435 $402 #
coedge $-1 $434 $434 $449 $450 forward $417 $-1 #
coedge $-1 $435 $435 $420 $436 reversed $433 $-1 #
edge $-1 $451 -3.1415926535897931 $451 3.1415926535897931 $435 $452 forward 7 unknown #
vertex $-1 $422 $453 #
ellipse-curve $-1 0 0 -0.205124691123037 0 0 1 1.9950000000000001 0 0 1 I I #
point $-1 -1.345 0 -0.084654311917538999 #
coedge $-1 $440 $440 $454 $455 reversed $426 $-1 #
model_id-kcp-attrib $-1 $-1 $-1 $427 1 990635137 80 1347420161 31 #
cone-surface $-1 0 0 -1.4098284831780099 0 0 -1 1.9950000000000001 0 0 1 I I 0.98325490756395495 0.182235525492147 1.9950000000000001 forward I I I I #
model_id-kcp-attrib $-1 $-1 $-1 $430 1 990635137 80 1347420161 25 #
face $456 $457 $458 $7 $-1 $459 forward single #
loop $-1 $460 $461 $430 #
cone-surface $-1 0 0 -0.68700620794502698 0 0 -1 1.9950000000000001 0 0 1 I I 0.98325490756395495 0.182235525492147 1.9950000000000001 forward I I I I #
loop $-1 $-1 $449 $416 #
coedge $-1 $448 $448 $462 $463 forward $431 $-1 #
coedge $-1 $449 $449 $434 $450 reversed $447 $-1 #
edge $-1 $464 -3.1415926535897931 $464 3.1415926535897931 $449 $465 forward 7 unknown #
vertex $-1 $436 $466 #
ellipse-curve $-1 0 0 -0.32559507032853502 0 0 1 1.345 0 0 1 I I #
point $-1 -1.9950000000000001 0 -0.205124691123037 #
coedge $-1 $454 $454 $440 $455 forward $467 $-1 #
edge $-1 $468 -3.1415926535897931 $468 3.1415926535897931 $440 $469 forward 7 unknown #
model_id-kcp-attrib $-1 $-1 $-1 $444 1 990635137 80 1347420161 26 #
face $470 $471 $472 $7 $-1 $473 forward single #
loop $-1 $474 $475 $444 #
cone-surface $-1 0 0 -0.68700620794502698 0 0 1 1.9950000000000001 0 0 1 I I 0.98325490756395495 0.182235525492147 1.9950000000000001 forward I I I I #
loop $-1 $-1 $462 $430 #
coedge $-1 $461 $461 $476 $477 forward $445 $-1 #
coedge $-1 $462 $462 $448 $463 reversed $460 $-1 #
edge $-1 $478 -3.1415926535897931 $478 3.1415926535897931 $462 $479 forward 7 unknown #
vertex $-1 $450 $480 #
ellipse-curve $-1 0 0 -0.44606544953403199 0 0 1 1.9950000000000001 0 0 1 I I #
point $-1 -1.345 0 -0.32559507032853502 #
loop $-1 $481 $454 $482 #
vertex $-1 $455 $483 #
ellipse-curve $-1 0 0 -1.2893581039725099 0 0 1 1.345 0 0 1 I I #
model_id-kcp-attrib $-1 $-1 $-1 $457 1 990635137 80 1347420161 27 #
face $484 $485 $486 $7 $-1 $487 forward single #
loop $-1 $488 $489 $457 #
cone-surface $-1 0 0 -0.92794696635602203 0 0 -1 1.9950000000000001 0 0 1 I I 0.98325490756395495 0.182235525492147 1.9950000000000001 forward I I I I #
loop $-1 $-1 $476 $444 #
coedge $-1 $475 $475 $490 $491 forward $458 $-1 #
coedge $-1 $476 $476 $461 $477 reversed $474 $-1 #
edge $-1 $492 -3.1415926535897931 $492 3.1415926535897931 $476 $493 forward 7 unknown #
vertex $-1 $463 $494 #
ellipse-curve $-1 0 0 -0.56653582873952901 0 0 1 1.345 0 0 1 I I #
point $-1 -1.9950000000000001 0 -0.44606544953403199 #
loop $-1 $-1 $495 $482 #
face $496 $427 $467 $7 $-1 $497 forward single #
point $-1 -1.345 0 -1.2893581039725099 #
model_id-kcp-attrib $-1 $-1 $-1 $471 1 990635137 80 1347420161 28 #
face $498 $482 $499 $7 $-1 $500 forward single #
loop $-1 $501 $502 $471 #
cone-surface $-1 0 0 -0.92794696635602203 0 0 1 1.9950000000000001 0 0 1 I I 0.98325490756395495 0.182235525492147 1.9950000000000001 forward I I I I #
loop $-1 $-1 $490 $457 #
coedge $-1 $489 $489 $503 $504 forward $472 $-1 #
coedge $-1 $490 $490 $475 $491 reversed $488 $-1 #
edge $-1 $505 -3.1415926535897931 $505 3.1415926535897931 $490 $506 forward 7 unknown #
vertex $-1 $477 $507 #
ellipse-curve $-1 0 0 -0.68700620794502698 0 0 1 1.9950000000000001 0 0 1 I I #
point $-1 -1.345 0 -0.56653582873952901 #
coedge $-1 $495 $495 $508 $509 reversed $481 $-1 #
model_id-kcp-attrib $-1 $-1 $-1 $482 1 990635137 80 1347420161 30 #
cone-surface $-1 0 0 -1.16888772476702 0 0 1 1.9950000000000001 0 0 1 I I 0.98325490756395495 0.182235525492147 1.9950000000000001 forward I I I I #
model_id-kcp-attrib $-1 $-1 $-1 $485 1 990635137 80 1347420161 29 #
loop $-1 $510 $508 $485 #
cone-surface $-1 0 0 -1.16888772476702 0 0 -1 1.9950000000000001 0 0 1 I I 0.98325490756395495 0.182235525492147 1.9950000000000001 forward I I I I #
loop $-1 $-1 $503 $471 #
coedge $-1 $502 $502 $511 $512 forward $486 $-1 #
coedge $-1 $503 $503 $489 $504 reversed $501 $-1 #
edge $-1 $513 -3.1415926535897931 $513 3.1415926535897931 $503 $514 forward 7 unknown #
vertex $-1 $491 $515 #
ellipse-curve $-1 0 0 -0.80747658715052495 0 0 1 1.345 0 0 1 I I #
point $-1 -1.9950000000000001 0 -0.68700620794502698 #
coedge $-1 $508 $508 $495 $509 forward $499 $-1 #
edge $-1 $516 -3.1415926535897931 $516 3.1415926535897931 $495 $517 forward 7 unknown #
loop $-1 $-1 $511 $485 #
coedge $-1 $511 $511 $502 $512 reversed $510 $-1 #
edge $-1 $518 -3.1415926535897931 $518 3.1415926535897931 $511 $519 forward 7 unknown #
vertex $-1 $504 $520 #
ellipse-curve $-1 0 0 -0.92794696635602203 0 0 1 1.9950000000000001 0 0 1 I I #
point $-1 -1.345 0 -0.80747658715052495 #
vertex $-1 $509 $521 #
ellipse-curve $-1 0 0 -1.16888772476702 0 0 1 1.9950000000000001 0 0 1 I I #
vertex $-1 $512 $522 #
ellipse-curve $-1 0 0 -1.04841734556152 0 0 1 1.345 0 0 1 I I #
point $-1 -1.9950000000000001 0 -0.92794696635602203 #
point $-1 -1.9950000000000001 0 -1.16888772476702 #
point $-1 -1.345 0 -1.04841734556152 #
End-of-ACIS-data 