600 0 1 0           
89 GICL ACIS Healer - Source: /gicl/data5/repository/new/Spectrometer/bellows_long.sat - 6 0 18 ACIS 6.0.3 Solaris 24 Sat Apr 13 20:35:03 2002 
1 9.999999999999999547e-07 1.000000000000000036e-10 
body $-1 $1 $-1 $2 #
lump $-1 $-1 $3 $0 #
transform $-1 1 0 0 0 1 0 0 0 1 0 0 0 1 no_rotate no_reflect no_shear #
shell $-1 $-1 $-1 $4 $-1 $1 #
face $-1 $5 $6 $3 $-1 $7 forward single #
face $-1 $8 $9 $3 $-1 $10 reversed single #
loop $-1 $11 $12 $4 #
plane-surface $-1 0 0 1.891499999999999959 0 0 1 1 0 0 forward_v I I I I #
face $-1 $13 $14 $3 $-1 $15 forward single #
loop $-1 $16 $17 $5 #
plane-surface $-1 0 0 -1.891710000000000003 0 0 1 1 0 0 forward_v I I I I #
loop $-1 $-1 $18 $4 #
coedge $-1 $12 $12 $19 $20 forward $6 $-1 #
face $-1 $21 $22 $3 $-1 $23 forward single #
loop $-1 $24 $25 $8 #
cone-surface $-1 0 0 1.891499999999999959 0 0 1 1.995000000000000107 0 0 1 I I 0.9833117837176600373 0.1819283815186449882 1.995000000000000107 forward I I I I #
loop $-1 $-1 $26 $5 #
coedge $-1 $17 $17 $27 $28 forward $9 $-1 #
coedge $-1 $18 $18 $29 $30 reversed $11 $-1 #
coedge $-1 $19 $19 $12 $20 reversed $24 $-1 #
edge $-1 $31 0 $31 6.283185307179586232 $19 $32 forward 7 unknown #
face $-1 $33 $34 $3 $-1 $35 forward single #
loop $-1 $36 $37 $13 #
cone-surface $-1 0 0 1.650769241589010061 0 0 -1 1.995000000000000107 0 0 1 I I 0.9832549075639549496 0.1822355254921469991 1.995000000000000107 forward I I I I #
loop $-1 $-1 $19 $8 #
coedge $-1 $25 $25 $38 $39 forward $14 $-1 #
coedge $-1 $26 $26 $40 $41 forward $16 $-1 #
coedge $-1 $27 $27 $17 $28 reversed $42 $-1 #
edge $-1 $43 -3.141592653589793116 $43 3.141592653589793116 $17 $44 forward 7 unknown #
coedge $-1 $29 $29 $18 $30 forward $45 $-1 #
edge $-1 $46 0 $46 6.283185307179586232 $29 $47 forward 7 unknown #
vertex $-1 $20 $48 #
ellipse-curve $-1 0 0 1.891499999999999959 0 0 1 1.995000000000000107 0 0 1 I I #
face $-1 $49 $50 $3 $-1 $51 forward single #
loop $-1 $52 $53 $21 #
cone-surface $-1 0 0 1.650769241589010061 0 0 1 1.995000000000000107 0 0 1 I I 0.9916254950055759521 0.129146729168594987 1.995000000000000107 forward I I I I #
loop $-1 $-1 $38 $13 #
coedge $-1 $37 $37 $54 $55 forward $22 $-1 #
coedge $-1 $38 $38 $25 $39 reversed $36 $-1 #
edge $-1 $56 -3.141592653589793116 $56 3.141592653589793116 $38 $57 forward 7 unknown #
coedge $-1 $40 $40 $26 $41 reversed $58 $-1 #
edge $-1 $59 -3.141592653589793116 $59 3.141592653589793116 $40 $60 forward 7 unknown #
loop $-1 $61 $27 $62 #
vertex $-1 $28 $63 #
ellipse-curve $-1 0 0 -1.891710000000000003 0 0 -1 1.995000000000000107 0 0 1 I I #
loop $-1 $-1 $29 $64 #
vertex $-1 $30 $65 #
ellipse-curve $-1 0 0 1.891499999999999959 0 0 1 -1.34000000000000008 0 0 1 I I #
point $-1 1.995000000000000107 0 1.891499999999999959 #
face $-1 $66 $67 $3 $-1 $68 forward single #
loop $-1 $69 $70 $33 #
cone-surface $-1 0 0 1.445644550465970068 0 0 -1 1.995000000000000107 0 0 1 I I 0.9832549075639549496 0.1822355254921469991 1.995000000000000107 forward I I I I #
loop $-1 $-1 $54 $21 #
coedge $-1 $53 $53 $71 $72 forward $34 $-1 #
coedge $-1 $54 $54 $37 $55 reversed $52 $-1 #
edge $-1 $73 -3.141592653589793116 $73 3.141592653589793116 $54 $74 forward 7 unknown #
vertex $-1 $39 $75 #
ellipse-curve $-1 0 0 1.771239620794500036 0 0 1 1.344999999999999973 0 0 1 I I #
loop $-1 $45 $40 $64 #
vertex $-1 $41 $76 #
ellipse-curve $-1 0 0 -1.891710000000000003 0 0 1 1.34000000000000008 0 0 1 I I #
loop $-1 $-1 $77 $62 #
face $-1 $64 $42 $3 $-1 $78 forward single #
point $-1 -1.995000000000000107 0 -1.891710000000000003 #
face $-1 $-1 $58 $3 $-1 $79 reversed single #
point $-1 -1.34000000000000008 0 1.891499999999999959 #
face $-1 $80 $81 $3 $-1 $82 forward single #
loop $-1 $83 $84 $49 #
cone-surface $-1 0 0 1.445644550465970068 0 0 1 1.995000000000000107 0 0 1 I I 0.9832549075639549496 0.1822355254921469991 1.995000000000000107 forward I I I I #
loop $-1 $-1 $71 $33 #
coedge $-1 $70 $70 $85 $86 forward $50 $-1 #
coedge $-1 $71 $71 $53 $72 reversed $69 $-1 #
edge $-1 $87 -3.141592653589793116 $87 3.141592653589793116 $71 $88 forward 7 unknown #
vertex $-1 $55 $89 #
ellipse-curve $-1 0 0 1.650769241589010061 0 0 1 1.995000000000000107 0 0 1 I I #
point $-1 -1.344999999999999973 0 1.771239620794500036 #
point $-1 -1.34000000000000008 0 -1.891710000000000003 #
coedge $-1 $77 $77 $90 $91 reversed $61 $-1 #
cone-surface $-1 0 0 -1.891710000000000003 0 0 -1 1.995000000000000107 0 0 1 I I 0.9832549075639549496 0.1822355254921469991 1.995000000000000107 forward I I I I #
cone-surface $-1 0 0 1.891499999999999959 0 0 -1 -1.34000000000000008 0 0 1 I I 0 1 1.34000000000000008 forward I I I I #
face $-1 $92 $93 $3 $-1 $94 forward single #
loop $-1 $95 $96 $66 #
cone-surface $-1 0 0 1.204703792054969913 0 0 -1 1.995000000000000107 0 0 1 I I 0.9832549075639549496 0.1822355254921469991 1.995000000000000107 forward I I I I #
loop $-1 $-1 $85 $49 #
coedge $-1 $84 $84 $97 $98 forward $67 $-1 #
coedge $-1 $85 $85 $70 $86 reversed $83 $-1 #
edge $-1 $99 -3.141592653589793116 $99 3.141592653589793116 $85 $100 forward 7 unknown #
vertex $-1 $72 $101 #
ellipse-curve $-1 0 0 1.566114929671470035 0 0 1 1.344999999999999973 0 0 1 I I #
point $-1 -1.995000000000000107 0 1.650769241589010061 #
coedge $-1 $90 $90 $77 $91 forward $102 $-1 #
edge $-1 $103 -3.141592653589793116 $103 3.141592653589793116 $77 $104 forward 7 unknown #
face $-1 $105 $106 $3 $-1 $107 forward single #
loop $-1 $108 $109 $80 #
cone-surface $-1 0 0 1.204703792054969913 0 0 1 1.995000000000000107 0 0 1 I I 0.9832549075639549496 0.1822355254921469991 1.995000000000000107 forward I I I I #
loop $-1 $-1 $97 $66 #
coedge $-1 $96 $96 $110 $111 forward $81 $-1 #
coedge $-1 $97 $97 $84 $98 reversed $95 $-1 #
edge $-1 $112 -3.141592653589793116 $112 3.141592653589793116 $97 $113 forward 7 unknown #
vertex $-1 $86 $114 #
ellipse-curve $-1 0 0 1.445644550465970068 0 0 1 1.995000000000000107 0 0 1 I I #
point $-1 -1.344999999999999973 0 1.566114929671470035 #
loop $-1 $115 $90 $116 #
vertex $-1 $91 $117 #
ellipse-curve $-1 0 0 -1.771239620794500036 0 0 1 1.344999999999999973 0 0 1 I I #
face $-1 $118 $119 $3 $-1 $120 forward single #
loop $-1 $121 $122 $92 #
cone-surface $-1 0 0 0.9637630336439789724 0 0 -1 1.995000000000000107 0 0 1 I I 0.9832549075639549496 0.1822355254921469991 1.995000000000000107 forward I I I I #
loop $-1 $-1 $110 $80 #
coedge $-1 $109 $109 $123 $124 forward $93 $-1 #
coedge $-1 $110 $110 $96 $111 reversed $108 $-1 #
edge $-1 $125 -3.141592653589793116 $125 3.141592653589793116 $110 $126 forward 7 unknown #
vertex $-1 $98 $127 #
ellipse-curve $-1 0 0 1.325174171260470102 0 0 1 1.344999999999999973 0 0 1 I I #
point $-1 -1.995000000000000107 0 1.445644550465970068 #
loop $-1 $-1 $128 $116 #
face $-1 $62 $102 $3 $-1 $129 forward single #
point $-1 -1.344999999999999973 0 -1.771239620794500036 #
face $-1 $130 $131 $3 $-1 $132 forward single #
loop $-1 $133 $134 $105 #
cone-surface $-1 0 0 0.9637630336439789724 0 0 1 1.995000000000000107 0 0 1 I I 0.9832549075639549496 0.1822355254921469991 1.995000000000000107 forward I I I I #
loop $-1 $-1 $123 $92 #
coedge $-1 $122 $122 $135 $136 forward $106 $-1 #
coedge $-1 $123 $123 $109 $124 reversed $121 $-1 #
edge $-1 $137 -3.141592653589793116 $137 3.141592653589793116 $123 $138 forward 7 unknown #
vertex $-1 $111 $139 #
ellipse-curve $-1 0 0 1.204703792054969913 0 0 1 1.995000000000000107 0 0 1 I I #
point $-1 -1.344999999999999973 0 1.325174171260470102 #
coedge $-1 $128 $128 $140 $141 reversed $115 $-1 #
cone-surface $-1 0 0 -1.650769241589010061 0 0 1 1.995000000000000107 0 0 1 I I 0.9832549075639549496 0.1822355254921469991 1.995000000000000107 forward I I I I #
face $-1 $142 $143 $3 $-1 $144 forward single #
loop $-1 $145 $146 $118 #
cone-surface $-1 0 0 0.7228222752329850342 0 0 -1 1.995000000000000107 0 0 1 I I 0.9832549075639549496 0.1822355254921469991 1.995000000000000107 forward I I I I #
loop $-1 $-1 $135 $105 #
coedge $-1 $134 $134 $147 $148 forward $119 $-1 #
coedge $-1 $135 $135 $122 $136 reversed $133 $-1 #
edge $-1 $149 -3.141592653589793116 $149 3.141592653589793116 $135 $150 forward 7 unknown #
vertex $-1 $124 $151 #
ellipse-curve $-1 0 0 1.084233412849479938 0 0 1 1.344999999999999973 0 0 1 I I #
point $-1 -1.995000000000000107 0 1.204703792054969913 #
coedge $-1 $140 $140 $128 $141 forward $152 $-1 #
edge $-1 $153 -3.141592653589793116 $153 3.141592653589793116 $128 $154 forward 7 unknown #
face $-1 $155 $156 $3 $-1 $157 forward single #
loop $-1 $158 $159 $130 #
cone-surface $-1 0 0 0.7228222752329850342 0 0 1 1.995000000000000107 0 0 1 I I 0.9832549075639539504 0.1822355254921479983 1.995000000000000107 forward I I I I #
loop $-1 $-1 $147 $118 #
coedge $-1 $146 $146 $160 $161 forward $131 $-1 #
coedge $-1 $147 $147 $134 $148 reversed $145 $-1 #
edge $-1 $162 -3.141592653589793116 $162 3.141592653589793116 $147 $163 forward 7 unknown #
vertex $-1 $136 $164 #
ellipse-curve $-1 0 0 0.9637630336439789724 0 0 1 1.995000000000000107 0 0 1 I I #
point $-1 -1.344999999999999973 0 1.084233412849479938 #
loop $-1 $165 $140 $166 #
vertex $-1 $141 $167 #
ellipse-curve $-1 0 0 -1.650769241589010061 0 0 1 1.995000000000000107 0 0 1 I I #
face $-1 $168 $169 $3 $-1 $170 forward single #
loop $-1 $171 $172 $142 #
cone-surface $-1 0 0 0.4818815168219889866 0 0 -1 1.995000000000000107 0 0 1 I I 0.9832549075639549496 0.1822355254921469991 1.995000000000000107 forward I I I I #
loop $-1 $-1 $160 $130 #
coedge $-1 $159 $159 $173 $174 forward $143 $-1 #
coedge $-1 $160 $160 $146 $161 reversed $158 $-1 #
edge $-1 $175 -3.141592653589793116 $175 3.141592653589793116 $160 $176 forward 7 unknown #
vertex $-1 $148 $177 #
ellipse-curve $-1 0 0 0.8432926544384820033 0 0 1 1.344999999999999973 0 0 1 I I #
point $-1 -1.995000000000000107 0 0.9637630336439789724 #
loop $-1 $-1 $178 $166 #
face $-1 $116 $152 $3 $-1 $179 forward single #
point $-1 -1.995000000000000107 0 -1.650769241589010061 #
face $-1 $180 $181 $3 $-1 $182 forward single #
loop $-1 $183 $184 $155 #
cone-surface $-1 0 0 0.4818815168219889866 0 0 1 1.995000000000000107 0 0 1 I I 0.9832549075639549496 0.1822355254921469991 1.995000000000000107 forward I I I I #
loop $-1 $-1 $173 $142 #
coedge $-1 $172 $172 $185 $186 forward $156 $-1 #
coedge $-1 $173 $173 $159 $174 reversed $171 $-1 #
edge $-1 $187 -3.141592653589793116 $187 3.141592653589793116 $173 $188 forward 7 unknown #
vertex $-1 $161 $189 #
ellipse-curve $-1 0 0 0.7228222752329850342 0 0 1 1.995000000000000107 0 0 1 I I #
point $-1 -1.344999999999999973 0 0.8432926544384820033 #
coedge $-1 $178 $178 $190 $191 reversed $165 $-1 #
cone-surface $-1 0 0 -1.650769241589010061 0 0 -1 1.995000000000000107 0 0 1 I I 0.9832549075639549496 0.1822355254921469991 1.995000000000000107 forward I I I I #
face $-1 $192 $193 $3 $-1 $194 forward single #
loop $-1 $195 $196 $168 #
cone-surface $-1 0 0 0.2409407584109939937 0 0 -1 1.995000000000000107 0 0 1 I I 0.9832549075639539504 0.1822355254921479983 1.995000000000000107 forward I I I I #
loop $-1 $-1 $185 $155 #
coedge $-1 $184 $184 $197 $198 forward $169 $-1 #
coedge $-1 $185 $185 $172 $186 reversed $183 $-1 #
edge $-1 $199 -3.141592653589793116 $199 3.141592653589793116 $185 $200 forward 7 unknown #
vertex $-1 $174 $201 #
ellipse-curve $-1 0 0 0.6023518960274869549 0 0 1 1.344999999999999973 0 0 1 I I #
point $-1 -1.995000000000000107 0 0.7228222752329850342 #
coedge $-1 $190 $190 $178 $191 forward $202 $-1 #
edge $-1 $203 -3.141592653589793116 $203 3.141592653589793116 $178 $204 forward 7 unknown #
face $-1 $205 $206 $3 $-1 $207 forward single #
loop $-1 $208 $209 $180 #
cone-surface $-1 0 0 0.2409407584109939937 0 0 1 1.995000000000000107 0 0 1 I I 0.9832549075639549496 0.1822355254921469991 1.995000000000000107 forward I I I I #
loop $-1 $-1 $197 $168 #
coedge $-1 $196 $196 $210 $211 forward $181 $-1 #
coedge $-1 $197 $197 $184 $198 reversed $195 $-1 #
edge $-1 $212 -3.141592653589793116 $212 3.141592653589793116 $197 $213 forward 7 unknown #
vertex $-1 $186 $214 #
ellipse-curve $-1 0 0 0.4818815168219889866 0 0 1 1.995000000000000107 0 0 1 I I #
point $-1 -1.344999999999999973 0 0.6023518960274869549 #
loop $-1 $215 $190 $216 #
vertex $-1 $191 $217 #
ellipse-curve $-1 0 0 -1.530298862383510095 0 0 1 1.344999999999999973 0 0 1 I I #
face $-1 $218 $219 $3 $-1 $220 forward single #
loop $-1 $221 $222 $192 #
cone-surface $-1 0 0 0 0 0 -1 1.995000000000000107 0 0 1 I I 0.9832549075639549496 0.1822355254921469991 1.995000000000000107 forward I I I I #
loop $-1 $-1 $210 $180 #
coedge $-1 $209 $209 $223 $224 forward $193 $-1 #
coedge $-1 $210 $210 $196 $211 reversed $208 $-1 #
edge $-1 $225 -3.141592653589793116 $225 3.141592653589793116 $210 $226 forward 7 unknown #
vertex $-1 $198 $227 #
ellipse-curve $-1 0 0 0.3614111376164930167 0 0 1 1.344999999999999973 0 0 1 I I #
point $-1 -1.995000000000000107 0 0.4818815168219889866 #
loop $-1 $-1 $228 $216 #
face $-1 $166 $202 $3 $-1 $229 forward single #
point $-1 -1.344999999999999973 0 -1.530298862383510095 #
face $-1 $230 $231 $3 $-1 $232 forward single #
loop $-1 $233 $234 $205 #
cone-surface $-1 0 0 0 0 0 1 1.995000000000000107 0 0 1 I I 0.9916254950055759521 0.129146729168594987 1.995000000000000107 forward I I I I #
loop $-1 $-1 $223 $192 #
coedge $-1 $222 $222 $235 $236 forward $206 $-1 #
coedge $-1 $223 $223 $209 $224 reversed $221 $-1 #
edge $-1 $237 -3.141592653589793116 $237 3.141592653589793116 $223 $238 forward 7 unknown #
vertex $-1 $211 $239 #
ellipse-curve $-1 0 0 0.2409407584109939937 0 0 1 1.995000000000000107 0 0 1 I I #
point $-1 -1.344999999999999973 0 0.3614111376164930167 #
coedge $-1 $228 $228 $240 $241 reversed $215 $-1 #
cone-surface $-1 0 0 -1.409828483178009906 0 0 1 1.995000000000000107 0 0 1 I I 0.9832549075639549496 0.1822355254921469991 1.995000000000000107 forward I I I I #
face $-1 $242 $243 $3 $-1 $244 forward single #
loop $-1 $245 $246 $218 #
cone-surface $-1 0 0 -0.2051246911230369951 0 0 -1 1.995000000000000107 0 0 1 I I 0.9832549075639549496 0.1822355254921469991 1.995000000000000107 forward I I I I #
loop $-1 $-1 $235 $205 #
coedge $-1 $234 $234 $247 $248 forward $219 $-1 #
coedge $-1 $235 $235 $222 $236 reversed $233 $-1 #
edge $-1 $249 -3.141592653589793116 $249 3.141592653589793116 $235 $250 forward 7 unknown #
vertex $-1 $224 $251 #
ellipse-curve $-1 0 0 0.1204703792054979961 0 0 1 1.344999999999999973 0 0 1 I I #
point $-1 -1.995000000000000107 0 0.2409407584109939937 #
coedge $-1 $240 $240 $228 $241 forward $252 $-1 #
edge $-1 $253 -3.141592653589793116 $253 3.141592653589793116 $228 $254 forward 7 unknown #
face $-1 $255 $256 $3 $-1 $257 forward single #
loop $-1 $258 $259 $230 #
cone-surface $-1 0 0 -0.2051246911230369951 0 0 1 1.995000000000000107 0 0 1 I I 0.9832549075639549496 0.1822355254921469991 1.995000000000000107 forward I I I I #
loop $-1 $-1 $247 $218 #
coedge $-1 $246 $246 $260 $261 forward $231 $-1 #
coedge $-1 $247 $247 $234 $248 reversed $245 $-1 #
edge $-1 $262 -3.141592653589793116 $262 3.141592653589793116 $247 $263 forward 7 unknown #
vertex $-1 $236 $264 #
ellipse-curve $-1 0 0 0 0 0 1 1.995000000000000107 0 0 1 I I #
point $-1 -1.344999999999999973 0 0.1204703792054979961 #
loop $-1 $265 $240 $266 #
vertex $-1 $241 $267 #
ellipse-curve $-1 0 0 -1.409828483178009906 0 0 1 1.995000000000000107 0 0 1 I I #
face $-1 $268 $269 $3 $-1 $270 forward single #
loop $-1 $271 $272 $242 #
cone-surface $-1 0 0 -0.4460654495340319881 0 0 -1 1.995000000000000107 0 0 1 I I 0.9832549075639549496 0.1822355254921469991 1.995000000000000107 forward I I I I #
loop $-1 $-1 $260 $230 #
coedge $-1 $259 $259 $273 $274 forward $243 $-1 #
coedge $-1 $260 $260 $246 $261 reversed $258 $-1 #
edge $-1 $275 -3.141592653589793116 $275 3.141592653589793116 $260 $276 forward 7 unknown #
vertex $-1 $248 $277 #
ellipse-curve $-1 0 0 -0.08465431191753899909 0 0 1 1.344999999999999973 0 0 1 I I #
point $-1 -1.995000000000000107 0 0 #
loop $-1 $-1 $278 $266 #
face $-1 $216 $252 $3 $-1 $279 forward single #
point $-1 -1.995000000000000107 0 -1.409828483178009906 #
face $-1 $280 $281 $3 $-1 $282 forward single #
loop $-1 $283 $284 $255 #
cone-surface $-1 0 0 -0.4460654495340319881 0 0 1 1.995000000000000107 0 0 1 I I 0.9832549075639549496 0.1822355254921469991 1.995000000000000107 forward I I I I #
loop $-1 $-1 $273 $242 #
coedge $-1 $272 $272 $285 $286 forward $256 $-1 #
coedge $-1 $273 $273 $259 $274 reversed $271 $-1 #
edge $-1 $287 -3.141592653589793116 $287 3.141592653589793116 $273 $288 forward 7 unknown #
vertex $-1 $261 $289 #
ellipse-curve $-1 0 0 -0.2051246911230369951 0 0 1 1.995000000000000107 0 0 1 I I #
point $-1 -1.344999999999999973 0 -0.08465431191753899909 #
coedge $-1 $278 $278 $290 $291 reversed $265 $-1 #
cone-surface $-1 0 0 -1.409828483178009906 0 0 -1 1.995000000000000107 0 0 1 I I 0.9832549075639549496 0.1822355254921469991 1.995000000000000107 forward I I I I #
face $-1 $292 $293 $3 $-1 $294 forward single #
loop $-1 $295 $296 $268 #
cone-surface $-1 0 0 -0.687006207945026981 0 0 -1 1.995000000000000107 0 0 1 I I 0.9832549075639549496 0.1822355254921469991 1.995000000000000107 forward I I I I #
loop $-1 $-1 $285 $255 #
coedge $-1 $284 $284 $297 $298 forward $269 $-1 #
coedge $-1 $285 $285 $272 $286 reversed $283 $-1 #
edge $-1 $299 -3.141592653589793116 $299 3.141592653589793116 $285 $300 forward 7 unknown #
vertex $-1 $274 $301 #
ellipse-curve $-1 0 0 -0.325595070328535019 0 0 1 1.344999999999999973 0 0 1 I I #
point $-1 -1.995000000000000107 0 -0.2051246911230369951 #
coedge $-1 $290 $290 $278 $291 forward $302 $-1 #
edge $-1 $303 -3.141592653589793116 $303 3.141592653589793116 $278 $304 forward 7 unknown #
face $-1 $305 $306 $3 $-1 $307 forward single #
loop $-1 $308 $309 $280 #
cone-surface $-1 0 0 -0.687006207945026981 0 0 1 1.995000000000000107 0 0 1 I I 0.9832549075639549496 0.1822355254921469991 1.995000000000000107 forward I I I I #
loop $-1 $-1 $297 $268 #
coedge $-1 $296 $296 $310 $311 forward $281 $-1 #
coedge $-1 $297 $297 $284 $298 reversed $295 $-1 #
edge $-1 $312 -3.141592653589793116 $312 3.141592653589793116 $297 $313 forward 7 unknown #
vertex $-1 $286 $314 #
ellipse-curve $-1 0 0 -0.4460654495340319881 0 0 1 1.995000000000000107 0 0 1 I I #
point $-1 -1.344999999999999973 0 -0.325595070328535019 #
loop $-1 $315 $290 $316 #
vertex $-1 $291 $317 #
ellipse-curve $-1 0 0 -1.289358103972509939 0 0 1 1.344999999999999973 0 0 1 I I #
face $-1 $318 $319 $3 $-1 $320 forward single #
loop $-1 $321 $322 $292 #
cone-surface $-1 0 0 -0.9279469663560220294 0 0 -1 1.995000000000000107 0 0 1 I I 0.9832549075639549496 0.1822355254921469991 1.995000000000000107 forward I I I I #
loop $-1 $-1 $310 $280 #
coedge $-1 $309 $309 $323 $324 forward $293 $-1 #
coedge $-1 $310 $310 $296 $311 reversed $308 $-1 #
edge $-1 $325 -3.141592653589793116 $325 3.141592653589793116 $310 $326 forward 7 unknown #
vertex $-1 $298 $327 #
ellipse-curve $-1 0 0 -0.5665358287395290127 0 0 1 1.344999999999999973 0 0 1 I I #
point $-1 -1.995000000000000107 0 -0.4460654495340319881 #
loop $-1 $-1 $328 $316 #
face $-1 $266 $302 $3 $-1 $329 forward single #
point $-1 -1.344999999999999973 0 -1.289358103972509939 #
face $-1 $316 $330 $3 $-1 $331 forward single #
loop $-1 $332 $333 $305 #
cone-surface $-1 0 0 -0.9279469663560220294 0 0 1 1.995000000000000107 0 0 1 I I 0.9832549075639549496 0.1822355254921469991 1.995000000000000107 forward I I I I #
loop $-1 $-1 $323 $292 #
coedge $-1 $322 $322 $334 $335 forward $306 $-1 #
coedge $-1 $323 $323 $309 $324 reversed $321 $-1 #
edge $-1 $336 -3.141592653589793116 $336 3.141592653589793116 $323 $337 forward 7 unknown #
vertex $-1 $311 $338 #
ellipse-curve $-1 0 0 -0.687006207945026981 0 0 1 1.995000000000000107 0 0 1 I I #
point $-1 -1.344999999999999973 0 -0.5665358287395290127 #
coedge $-1 $328 $328 $339 $340 reversed $315 $-1 #
cone-surface $-1 0 0 -1.168887724767019964 0 0 1 1.995000000000000107 0 0 1 I I 0.9832549075639549496 0.1822355254921469991 1.995000000000000107 forward I I I I #
loop $-1 $341 $339 $318 #
cone-surface $-1 0 0 -1.168887724767019964 0 0 -1 1.995000000000000107 0 0 1 I I 0.9832549075639549496 0.1822355254921469991 1.995000000000000107 forward I I I I #
loop $-1 $-1 $334 $305 #
coedge $-1 $333 $333 $342 $343 forward $319 $-1 #
coedge $-1 $334 $334 $322 $335 reversed $332 $-1 #
edge $-1 $344 -3.141592653589793116 $344 3.141592653589793116 $334 $345 forward 7 unknown #
vertex $-1 $324 $346 #
ellipse-curve $-1 0 0 -0.8074765871505249493 0 0 1 1.344999999999999973 0 0 1 I I #
point $-1 -1.995000000000000107 0 -0.687006207945026981 #
coedge $-1 $339 $339 $328 $340 forward $330 $-1 #
edge $-1 $347 -3.141592653589793116 $347 3.141592653589793116 $328 $348 forward 7 unknown #
loop $-1 $-1 $342 $318 #
coedge $-1 $342 $342 $333 $343 reversed $341 $-1 #
edge $-1 $349 -3.141592653589793116 $349 3.141592653589793116 $342 $350 forward 7 unknown #
vertex $-1 $335 $351 #
ellipse-curve $-1 0 0 -0.9279469663560220294 0 0 1 1.995000000000000107 0 0 1 I I #
point $-1 -1.344999999999999973 0 -0.8074765871505249493 #
vertex $-1 $340 $352 #
ellipse-curve $-1 0 0 -1.168887724767019964 0 0 1 1.995000000000000107 0 0 1 I I #
vertex $-1 $343 $353 #
ellipse-curve $-1 0 0 -1.048417345561519998 0 0 1 1.344999999999999973 0 0 1 I I #
point $-1 -1.995000000000000107 0 -0.9279469663560220294 #
point $-1 -1.995000000000000107 0 -1.168887724767019964 #
point $-1 -1.344999999999999973 0 -1.048417345561519998 #
End-of-ACIS-data 