600 0 2 0           
24 FBMach with ACIS - 6.0.3 13 ACIS 6.0.3 NT 24 Wed May 23 12:25:35 2001 
1 9.9999999999999995e-007 1e-010 
body $2 $3 $-1 $4 #
bdycol-kcp $-1 1 4 $5 $6 $7 $8 #
model_id-kcp-attrib $-1 $-1 $-1 $0 1 990635135 70 1464205313 1 #
lump $-1 $-1 $9 $0 #
transform $-1 1 0 0 0 1 0 0 0 1 0 0 0 1 no_rotate no_reflect no_shear #
body $10 $11 $-1 $12 #
body $13 $14 $-1 $15 #
body $16 $17 $-1 $18 #
body $19 $20 $-1 $21 #
shell $-1 $-1 $-1 $22 $-1 $3 #
model_id-kcp-attrib $-1 $-1 $-1 $5 1 990635135 80 1464860674 1 #
lump $-1 $-1 $23 $5 #
transform $-1 1 0 0 0 1 0 0 0 1 0 0 -0.38 1 no_rotate no_reflect no_shear #
rgb_color-st-attrib $-1 $24 $-1 $6 0.5 1 1 #
lump $-1 $-1 $25 $6 #
transform $-1 1 0 0 0 1 0 0 0 1 0 0 -0.37 1 no_rotate no_reflect no_shear #
rgb_color-st-attrib $-1 $26 $-1 $7 0.5 1 1 #
lump $-1 $-1 $27 $7 #
transform $-1 1 0 0 0 1 0 0 0 1 0 0 -0.38 1 no_rotate no_reflect no_shear #
rgb_color-st-attrib $-1 $28 $-1 $8 1 0.5 1 #
lump $-1 $-1 $29 $8 #
transform $-1 1 0 0 0 1 0 0 0 1 0 0 -0.38 1 no_rotate no_reflect no_shear #
face $30 $31 $32 $9 $-1 $33 forward single #
shell $-1 $-1 $-1 $34 $-1 $11 #
model_id-kcp-attrib $-1 $-1 $13 $6 1 990635135 100 1466171395 1 #
shell $-1 $-1 $-1 $35 $-1 $14 #
model_id-kcp-attrib $-1 $-1 $16 $7 1 990635135 200 1472724996 1 #
shell $-1 $-1 $-1 $36 $-1 $17 #
model_id-kcp-attrib $-1 $-1 $19 $8 1 990635135 350 1465778181 1 #
shell $-1 $-1 $-1 $37 $-1 $20 #
model_id-kcp-attrib $-1 $38 $-1 $22 1 990635135 70 1464205313 12 #
face $39 $40 $41 $9 $-1 $42 forward single #
loop $-1 $43 $44 $22 #
plane-surface $-1 0 0 0 0 0 1 1 0 0 forward_v I I I I #
face $45 $46 $47 $23 $-1 $48 forward single #
face $-1 $49 $50 $25 $-1 $51 forward single #
face $-1 $52 $53 $27 $-1 $54 reversed single #
face $-1 $55 $56 $29 $-1 $57 forward single #
model_id-kcp-attrib $-1 $-1 $30 $22 1 990635135 70 1464205313 2 #
model_id-kcp-attrib $-1 $-1 $-1 $31 1 990635135 70 1464205313 3 #
face $58 $59 $60 $9 $-1 $61 reversed single #
loop $-1 $62 $63 $31 #
plane-surface $-1 0 0 -0.625 0 0 1 1 0 0 forward_v I I I I #
loop $64 $-1 $65 $22 #
coedge $-1 $44 $44 $66 $67 forward $32 $-1 #
model_id-kcp-attrib $-1 $-1 $-1 $34 1 990635135 80 1464860674 2 #
face $68 $69 $70 $23 $-1 $71 reversed single #
loop $-1 $-1 $72 $34 #
plane-surface $-1 0 0 0.38 0 0 1 1 0 0 forward_v I I I I #
face $-1 $73 $74 $25 $-1 $75 forward single #
loop $-1 $76 $77 $35 #
cone-surface $-1 0 0 0 0 0 1 1.345 0 0 1 I I 0 1 1.345 forward I I I I #
face $-1 $78 $79 $27 $-1 $54 reversed single #
loop $-1 $-1 $80 $36 #
cone-surface $-1 -7.479557850087911e-033 0 0.38 0 0 1 1.9950000000000001 0 0 1 I I 0 1 1.9950000000000001 forward I I I I #
face $-1 $81 $82 $29 $-1 $83 forward single #
loop $-1 $84 $85 $37 #
cone-surface $-1 0 0 -0.24500000000000011 0 0 1 -1.4684999999999999 0 0 1 I I 0 -1 1.4684999999999999 forward I I I I #
model_id-kcp-attrib $-1 $-1 $-1 $40 1 990635135 70 1464205313 4 #
face $86 $87 $88 $9 $-1 $89 reversed single #
loop $-1 $90 $91 $40 #
plane-surface $-1 0 0 -0.76000000000000001 0 0 1 1 0 0 forward_v I I I I #
loop $-1 $-1 $92 $31 #
coedge $-1 $63 $63 $93 $94 forward $41 $-1 #
model_id-kcp-attrib $-1 $-1 $-1 $43 1 990635135 70 1464205313 15 #
coedge $-1 $65 $65 $95 $96 reversed $43 $-1 #
coedge $-1 $66 $66 $44 $67 reversed $97 $-1 #
edge $98 $99 0 $99 6.2831853071795862 $66 $100 forward 7 unknown #
model_id-kcp-attrib $-1 $-1 $-1 $46 1 990635135 80 1464860674 3 #
face $-1 $101 $102 $23 $-1 $103 reversed single #
loop $-1 $-1 $104 $46 #
plane-surface $-1 0 0 -0.38 0 0 1 1 0 0 forward_v I I I I #
coedge $-1 $105 $106 $107 $108 forward $47 $-1 #
face $-1 $-1 $109 $25 $-1 $110 forward single #
loop $-1 $-1 $111 $49 #
plane-surface $-1 0 0 -0.37 0 0 -1 -1 0 0 forward_v I I I I #
loop $-1 $-1 $112 $35 #
coedge $-1 $77 $77 $111 $113 reversed $50 $-1 #
face $-1 $114 $115 $27 $-1 $54 reversed single #
loop $-1 $-1 $116 $52 #
coedge $-1 $117 $118 $119 $120 reversed $53 $-1 #
face $-1 $121 $122 $29 $-1 $123 forward single #
loop $-1 $124 $125 $55 #
cone-surface $-1 -7.479557850087911e-033 0 -0.24500000000000011 0 0 1 1.9950000000000001 0 0 1 I I 0 1 1.9950000000000001 forward I I I I #
loop $-1 $-1 $126 $37 #
coedge $-1 $85 $85 $127 $128 forward $56 $-1 #
model_id-kcp-attrib $-1 $-1 $-1 $59 1 990635135 70 1464205313 5 #
face $129 $130 $131 $9 $-1 $132 forward single #
loop $133 $134 $135 $59 #
plane-surface $-1 0 0 -0.73999999999999999 0 0 1 1 0 0 forward_v I I I I #
loop $-1 $-1 $136 $40 #
coedge $-1 $91 $91 $137 $138 forward $60 $-1 #
coedge $-1 $92 $92 $139 $140 forward $62 $-1 #
coedge $-1 $93 $93 $63 $94 reversed $141 $-1 #
edge $-1 $142 0 $142 6.2831853071795862 $93 $143 forward 7 unknown #
coedge $-1 $95 $95 $65 $96 forward $144 $-1 #
edge $145 $146 0 $146 6.2831853071795862 $95 $147 forward 7 unknown #
loop $-1 $-1 $66 $87 #
attrib_edge_convexity-kcp-attrib $-1 $148 $-1 $67 1 #
vertex $-1 $67 $149 #
ellipse-curve $-1 0 0 0 0 0 1 1.4684999999999999 0 0 1 I I #
face $-1 $150 $151 $23 $-1 $152 reversed single #
loop $-1 $-1 $153 $69 #
plane-surface $-1 0 -1.9950000000000001 0 0 1 0 0 0 1 forward_v I I I I #
coedge $-1 $154 $155 $156 $157 forward $70 $-1 #
coedge $-1 $158 $72 $159 $160 forward $47 $-1 #
coedge $-1 $72 $158 $161 $162 forward $47 $-1 #
coedge $-1 $163 $164 $72 $108 reversed $165 $-1 #
edge $-1 $166 -1.9950000000000001 $167 1.9950000000000001 $107 $168 forward 7 unknown #
loop $-1 $-1 $169 $73 #
plane-surface $-1 0 0 0.37 0 0 1 1 0 0 forward_v I I I I #
coedge $-1 $111 $111 $77 $113 forward $74 $-1 #
coedge $-1 $112 $112 $169 $170 reversed $76 $-1 #
edge $-1 $171 0 $171 6.2831853071795862 $111 $172 forward 7 unknown #
face $-1 $173 $174 $27 $-1 $54 reversed single #
loop $-1 $-1 $175 $78 #
coedge $-1 $176 $177 $178 $179 reversed $79 $-1 #
coedge $-1 $180 $80 $181 $182 reversed $53 $-1 #
coedge $-1 $80 $180 $183 $184 reversed $53 $-1 #
coedge $-1 $185 $186 $187 $120 forward $188 $-1 #
edge $-1 $189 -0.76000000000000001 $190 0 $119 $191 forward 7 unknown #
face $-1 $-1 $192 $29 $-1 $193 reversed single #
loop $-1 $194 $195 $81 #
plane-surface $-1 -0.1610697862120555 1.9398380599355467e-017 0.37999999999999989 0 0 1 1 0 0 forward_v I I I I #
loop $-1 $-1 $196 $55 #
coedge $-1 $125 $125 $195 $197 forward $82 $-1 #
coedge $-1 $126 $126 $198 $199 reversed $84 $-1 #
coedge $-1 $127 $127 $85 $128 reversed $194 $-1 #
edge $-1 $200 0 $200 6.2831853071795862 $85 $201 forward 7 unknown #
model_id-kcp-attrib $-1 $-1 $-1 $87 1 990635135 70 1464205313 6 #
face $202 $203 $204 $9 $-1 $205 forward single #
loop $-1 $97 $139 $87 #
cone-surface $-1 0 0 -0.79800000000000004 0 0 1 -1.4684999999999999 0 0 1 I I 0 1 1.4684999999999999 forward I I I I #
model_id-kcp-attrib $-1 $-1 $-1 $88 1 990635135 70 1464205313 16 #
loop $-1 $-1 $206 $59 #
coedge $-1 $135 $135 $207 $208 forward $88 $-1 #
coedge $-1 $136 $136 $209 $210 forward $90 $-1 #
coedge $-1 $137 $137 $91 $138 reversed $211 $-1 #
edge $-1 $212 0 $212 6.2831853071795862 $137 $213 forward 7 unknown #
coedge $-1 $139 $139 $92 $140 reversed $131 $-1 #
edge $-1 $214 -3.1415926535897931 $214 3.1415926535897931 $92 $215 forward 7 unknown #
loop $-1 $-1 $93 $130 #
vertex $-1 $94 $216 #
ellipse-curve $-1 0 0 -0.625 0 0 1 1.9950000000000001 0 0 1 I I #
loop $217 $218 $95 $219 #
attrib_edge_convexity-kcp-attrib $-1 $220 $-1 $96 1 #
vertex $221 $96 $222 #
ellipse-curve $-1 0 0 0 0 0 1 1.345 0 0 1 I I #
convexity-sys-attrib $-1 $-1 $98 $67 #
point $-1 1.4684999999999999 0 0 #
face $-1 $223 $224 $23 $-1 $225 reversed single #
loop $-1 $-1 $226 $101 #
plane-surface $-1 -1.9950000000000001 0 0 1 0 0 0 0 -1 forward_v I I I I #
coedge $-1 $227 $161 $228 $229 forward $102 $-1 #
coedge $-1 $230 $104 $227 $231 forward $70 $-1 #
coedge $-1 $104 $230 $232 $233 forward $70 $-1 #
coedge $-1 $164 $163 $104 $157 reversed $165 $-1 #
edge $-1 $234 -1.9950000000000001 $235 1.9950000000000001 $156 $236 forward 7 unknown #
coedge $-1 $106 $105 $237 $238 forward $47 $-1 #
coedge $-1 $239 $240 $105 $160 reversed $224 $-1 #
edge $-1 $167 -1.9950000000000001 $241 1.9950000000000001 $159 $242 forward 7 unknown #
coedge $-1 $153 $243 $106 $162 reversed $102 $-1 #
edge $-1 $244 -1.9950000000000001 $166 1.9950000000000001 $161 $245 forward 7 unknown #
coedge $-1 $156 $107 $243 $246 forward $165 $-1 #
coedge $-1 $107 $156 $239 $247 reversed $165 $-1 #
loop $-1 $-1 $163 $223 #
vertex $-1 $108 $248 #
vertex $-1 $108 $249 #
straight-curve $-1 1.9950000000000001 0 0.38 0 1 0 I I #
coedge $-1 $169 $169 $112 $170 forward $109 $-1 #
edge $-1 $250 0 $250 6.2831853071795862 $169 $251 forward 7 unknown #
vertex $-1 $113 $252 #
ellipse-curve $-1 0 0 -0.37 0 0 -1 1.345 0 0 1 I I #
face $-1 $253 $254 $27 $-1 $255 reversed single #
loop $-1 $-1 $256 $114 #
coedge $-1 $257 $258 $259 $260 reversed $115 $-1 #
coedge $-1 $261 $116 $262 $263 reversed $79 $-1 #
coedge $-1 $116 $261 $80 $120 forward $79 $-1 #
coedge $-1 $264 $265 $116 $179 forward $266 $-1 #
edge $-1 $267 -3.1415926535897931 $190 -1.5707963267948966 $178 $268 forward 7 unknown #
coedge $-1 $118 $117 $258 $269 forward $53 $-1 #
coedge $-1 $270 $271 $117 $182 forward $272 $-1 #
edge $-1 $273 0 $189 1.5707963267948966 $181 $274 forward 7 unknown #
coedge $-1 $275 $276 $118 $184 forward $277 $-1 #
edge $-1 $190 -1.5707963267948966 $278 0 $183 $268 forward 7 unknown #
coedge $-1 $279 $119 $276 $280 reversed $188 $-1 #
coedge $-1 $119 $279 $270 $281 reversed $188 $-1 #
coedge $-1 $282 $283 $177 $120 reversed $284 $-1 #
loop $-1 $-1 $119 $285 #
vertex $-1 $281 $286 #
vertex $-1 $287 $288 #
straight-curve $-1 -7.479557850087911e-033 1.9950000000000001 0.38 0 0 1 I I #
loop $-1 $289 $290 $121 #
plane-surface $-1 -0.1610697862120555 1.9398380599355467e-017 -0.24500000000000011 0 0 1 1 0 0 forward_v I I I I #
loop $-1 $-1 $127 $81 #
coedge $-1 $195 $195 $125 $197 reversed $122 $-1 #
coedge $-1 $196 $196 $290 $291 reversed $124 $-1 #
edge $-1 $292 -3.1415926535897931 $292 3.1415926535897931 $125 $293 forward 7 unknown #
coedge $-1 $198 $198 $126 $199 forward $289 $-1 #
edge $-1 $294 0 $294 6.2831853071795862 $126 $295 forward 7 unknown #
vertex $-1 $128 $296 #
ellipse-curve $-1 0 0 0.37999999999999989 0 0 1 -1.4684999999999999 0 0 1 I I #
model_id-kcp-attrib $-1 $-1 $-1 $130 1 990635135 70 1464205313 7 #
face $297 $298 $299 $9 $-1 $300 reversed single #
loop $-1 $141 $301 $130 #
cone-surface $-1 0 0 -0.79800000000000004 0 0 1 -1.9950000000000001 0 0 1 I I 0 1 1.9950000000000001 forward I I I I #
coedge $-1 $206 $206 $302 $303 forward $134 $-1 #
coedge $-1 $207 $207 $135 $208 reversed $218 $-1 #
edge $304 $305 0 $305 6.2831853071795862 $207 $306 forward 7 unknown #
coedge $-1 $209 $209 $136 $210 reversed $307 $-1 #
edge $-1 $308 -3.1415926535897931 $308 3.1415926535897931 $136 $309 forward 7 unknown #
loop $-1 $-1 $137 $310 #
vertex $-1 $138 $311 #
ellipse-curve $-1 0 0 -0.76000000000000001 0 0 1 1.927 0 0 1 I I #
vertex $-1 $140 $312 #
ellipse-curve $-1 0 0 -0.625 0 0 -1 1.4684999999999999 0 0 1 I I #
point $-1 1.9950000000000001 0 -0.625 #
model_id-kcp-attrib $-1 $-1 $-1 $144 1 990635135 70 1464205313 13 #
loop $313 $-1 $207 $219 #
face $314 $-1 $144 $9 $-1 $315 reversed single #
convexity-sys-attrib $-1 $-1 $145 $96 #
model_id-kcp-attrib $-1 $-1 $-1 $146 1 990635135 70 1464205313 17 #
point $-1 1.345 0 0 #
face $-1 $-1 $165 $23 $-1 $316 reversed single #
loop $-1 $-1 $239 $150 #
plane-surface $-1 0 1.9950000000000001 0 0 -1 0 0 0 -1 forward_v I I I I #
coedge $-1 $317 $237 $240 $318 forward $151 $-1 #
coedge $-1 $243 $153 $154 $231 reversed $102 $-1 #
coedge $-1 $237 $317 $153 $229 reversed $151 $-1 #
edge $-1 $244 -0.38 $319 0.38 $228 $320 forward 7 unknown #
coedge $-1 $155 $154 $317 $321 forward $70 $-1 #
edge $-1 $235 -1.9950000000000001 $319 1.9950000000000001 $227 $322 forward 7 unknown #
coedge $-1 $240 $239 $155 $233 reversed $224 $-1 #
edge $-1 $323 -1.9950000000000001 $234 1.9950000000000001 $232 $324 forward 7 unknown #
vertex $-1 $157 $325 #
vertex $-1 $246 $326 #
straight-curve $-1 1.9950000000000001 0 -0.38 0 -1 0 I I #
coedge $-1 $226 $228 $158 $238 reversed $151 $-1 #
edge $-1 $241 -1.9950000000000001 $244 1.9950000000000001 $237 $327 forward 7 unknown #
coedge $-1 $232 $159 $164 $247 forward $224 $-1 #
coedge $-1 $159 $232 $226 $318 reversed $224 $-1 #
vertex $-1 $160 $328 #
straight-curve $-1 0 1.9950000000000001 0.38 -1 0 0 I I #
coedge $-1 $161 $227 $163 $246 reversed $102 $-1 #
vertex $-1 $238 $329 #
straight-curve $-1 0 -1.9950000000000001 0.38 1 0 0 I I #
edge $-1 $166 -0.38 $235 0.38 $163 $330 forward 7 unknown #
edge $-1 $167 -0.38 $234 0.38 $164 $331 forward 7 unknown #
point $-1 1.9950000000000001 -1.9950000000000001 0.38 #
point $-1 1.9950000000000001 1.9950000000000001 0.38 #
vertex $-1 $170 $332 #
ellipse-curve $-1 0 0 0.37 0 0 1 1.345 0 0 1 I I #
point $-1 1.345 0 -0.37 #
face $-1 $333 $284 $27 $-1 $334 reversed single #
loop $-1 $-1 $335 $173 #
plane-surface $-1 1.9950000000000001 0 0 -1 0 0 0 0 1 forward_v I I I I #
coedge $-1 $336 $337 $338 $339 reversed $174 $-1 #
coedge $-1 $340 $175 $337 $341 forward $115 $-1 #
coedge $-1 $175 $340 $342 $269 reversed $115 $-1 #
coedge $-1 $343 $344 $175 $260 forward $345 $-1 #
edge $-1 $346 -1.5707963267948966 $273 0 $259 $274 forward 7 unknown #
coedge $-1 $177 $176 $347 $348 reversed $79 $-1 #
coedge $-1 $349 $350 $351 $263 forward $352 $-1 #
edge $-1 $353 -0.76000000000000001 $267 0 $262 $354 forward 7 unknown #
coedge $-1 $265 $178 $283 $287 forward $266 $-1 #
coedge $-1 $178 $264 $349 $355 forward $266 $-1 #
loop $-1 $-1 $178 $356 #
vertex $-1 $357 $358 #
ellipse-curve $-1 -7.479557850087911e-033 0 0.38 0 0 -1 1.9950000000000001 0 0 1 I I #
edge $-1 $273 -0.76000000000000001 $278 0 $342 $359 forward 7 unknown #
coedge $-1 $271 $181 $186 $281 forward $272 $-1 #
coedge $-1 $181 $270 $360 $361 forward $272 $-1 #
loop $-1 $-1 $181 $362 #
vertex $-1 $363 $364 #
ellipse-curve $-1 -7.479557850087911e-033 0 -0.38 0 0 1 1.9950000000000001 0 0 1 I I #
coedge $-1 $276 $183 $365 $366 forward $277 $-1 #
coedge $-1 $183 $275 $185 $280 forward $277 $-1 #
loop $-1 $-1 $183 $367 #
vertex $-1 $366 $368 #
coedge $-1 $186 $185 $369 $370 forward $188 $-1 #
edge $-1 $371 -1.9950000000000001 $190 7.479557850087911e-033 $185 $372 forward 7 unknown #
edge $-1 $189 -7.479557850087911e-033 $373 1.9950000000000001 $186 $374 forward 7 unknown #
coedge $-1 $375 $187 $376 $377 reversed $284 $-1 #
coedge $-1 $187 $375 $264 $287 reversed $284 $-1 #
loop $-1 $-1 $187 $253 #
face $-1 $378 $188 $27 $-1 $334 reversed single #
point $-1 -7.479557850087911e-033 1.9950000000000001 -0.38 #
edge $-1 $190 7.479557850087911e-033 $379 1.9950000000000001 $283 $372 forward 7 unknown #
point $-1 -7.479557850087911e-033 1.9950000000000001 0.38 #
loop $-1 $-1 $198 $121 #
coedge $-1 $290 $290 $196 $291 forward $192 $-1 #
edge $380 $381 -3.1415926535897931 $381 3.1415926535897931 $196 $382 forward 7 unknown #
vertex $-1 $197 $383 #
ellipse-curve $-1 -7.479557850087911e-033 0 0.37999999999999989 0 0 -1 1.9950000000000001 0 0 1 I I #
vertex $-1 $199 $384 #
ellipse-curve $-1 0 0 -0.24500000000000011 0 0 1 -1.4684999999999999 0 0 1 I I #
point $-1 -1.4684999999999999 0 0.38 #
model_id-kcp-attrib $-1 $-1 $-1 $203 1 990635135 70 1464205313 8 #
face $385 $310 $307 $9 $-1 $386 forward single #
loop $-1 $387 $388 $203 #
torus-surface $-1 0 0 -0.72499999999999998 0 0 1 1.9950000000000001 0.025000000000000001 1 0 0 forward_v I I I I #
coedge $-1 $301 $301 $389 $390 forward $204 $-1 #
coedge $-1 $302 $302 $206 $303 reversed $391 $-1 #
edge $392 $393 -3.1415926535897931 $393 3.1415926535897931 $206 $394 forward 7 unknown #
attrib_edge_convexity-kcp-attrib $-1 $395 $-1 $208 1 #
vertex $396 $208 $397 #
ellipse-curve $-1 0 0 -0.73999999999999999 0 0 1 1.345 0 0 1 I I #
loop $-1 $398 $209 $298 #
vertex $-1 $210 $399 #
ellipse-curve $-1 0 0 -0.76000000000000001 0 0 -1 1.9950000000000001 0 0 1 I I #
face $400 $219 $391 $9 $-1 $401 reversed single #
point $-1 1.927 0 -0.76000000000000001 #
point $-1 -1.4684999999999999 0 -0.625 #
model_id-kcp-attrib $-1 $-1 $-1 $218 1 990635135 70 1464205313 14 #
model_id-kcp-attrib $-1 $-1 $-1 $219 1 990635135 70 1464205313 11 #
cone-surface $-1 0 0 -0.79800000000000004 0 0 1 -1.345 0 0 1 I I 0 1 1.345 forward I I I I #
plane-surface $-1 1.9950000000000001 0 0 -1 0 0 0 0 1 forward_v I I I I #
coedge $-1 $228 $226 $230 $321 reversed $151 $-1 #
edge $-1 $241 -0.38 $323 0.38 $240 $402 forward 7 unknown #
vertex $-1 $321 $403 #
straight-curve $-1 -1.9950000000000001 -1.9950000000000001 0 0 0 -1 I I #
edge $-1 $319 -1.9950000000000001 $323 1.9950000000000001 $317 $404 forward 7 unknown #
straight-curve $-1 0 -1.9950000000000001 -0.38 -1 0 0 I I #
vertex $-1 $233 $405 #
straight-curve $-1 0 1.9950000000000001 -0.38 1 0 0 I I #
point $-1 1.9950000000000001 1.9950000000000001 -0.38 #
point $-1 1.9950000000000001 -1.9950000000000001 -0.38 #
straight-curve $-1 -1.9950000000000001 0 0.38 0 -1 0 I I #
point $-1 -1.9950000000000001 1.9950000000000001 0.38 #
point $-1 -1.9950000000000001 -1.9950000000000001 0.38 #
straight-curve $-1 1.9950000000000001 -1.9950000000000001 0 0 0 -1 I I #
straight-curve $-1 1.9950000000000001 1.9950000000000001 0 0 0 -1 I I #
point $-1 1.345 0 0.37 #
face $-1 $406 $407 $27 $-1 $408 reversed single #
plane-surface $-1 0 1.9950000000000001 0 0 -1 0 0 0 -1 forward_v I I I I #
coedge $-1 $360 $365 $180 $269 reversed $254 $-1 #
coedge $-1 $409 $256 $176 $263 forward $174 $-1 #
coedge $-1 $256 $409 $410 $341 reversed $174 $-1 #
coedge $-1 $411 $412 $256 $339 forward $413 $-1 #
edge $-1 $353 -3.1415926535897931 $346 -1.5707963267948966 $338 $274 forward 7 unknown #
coedge $-1 $258 $257 $414 $415 reversed $115 $-1 #
edge $-1 $346 -0.76000000000000001 $416 0 $410 $417 forward 7 unknown #
coedge $-1 $418 $419 $335 $269 forward $420 $-1 #
coedge $-1 $344 $259 $419 $363 forward $345 $-1 #
coedge $-1 $259 $343 $421 $422 forward $345 $-1 #
loop $-1 $-1 $259 $423 #
vertex $-1 $424 $425 #
coedge $-1 $426 $376 $261 $348 forward $427 $-1 #
edge $-1 $189 1.5707963267948966 $353 3.1415926535897931 $347 $274 forward 7 unknown #
coedge $-1 $428 $262 $265 $355 reversed $352 $-1 #
coedge $-1 $262 $428 $426 $429 reversed $352 $-1 #
coedge $-1 $430 $431 $336 $263 reversed $407 $-1 #
loop $-1 $-1 $262 $432 #
vertex $-1 $429 $433 #
straight-curve $-1 -1.9950000000000001 0 0.38 0 0 1 I I #
edge $-1 $379 -1.9950000000000001 $267 0 $349 $434 forward 7 unknown #
face $-1 $367 $266 $27 $-1 $435 forward single #
edge $-1 $267 0 $436 1.9950000000000001 $431 $434 forward 7 unknown #
point $-1 -1.9950000000000001 0 0.38 #
straight-curve $-1 1.9950000000000001 0 0.38 0 0 1 I I #
coedge $-1 $369 $335 $271 $361 reversed $254 $-1 #
edge $-1 $373 -1.9950000000000001 $273 0 $360 $437 forward 7 unknown #
face $-1 $438 $272 $27 $-1 $439 reversed single #
edge $-1 $273 0 $440 1.9950000000000001 $419 $437 forward 7 unknown #
point $-1 1.9950000000000001 0 -0.38 #
coedge $-1 $335 $369 $275 $366 reversed $254 $-1 #
edge $-1 $278 0 $371 1.9950000000000001 $365 $441 forward 7 unknown #
face $-1 $442 $277 $27 $-1 $435 forward single #
point $-1 1.9950000000000001 0 0.38 #
coedge $-1 $365 $360 $279 $370 reversed $254 $-1 #
edge $-1 $371 -0.38 $373 0.38 $369 $443 forward 7 unknown #
vertex $-1 $366 $444 #
straight-curve $-1 0 1.9950000000000001 0.38 -1 0 0 I I #
vertex $-1 $361 $445 #
straight-curve $-1 0 1.9950000000000001 -0.38 1 0 0 I I #
coedge $-1 $283 $282 $428 $446 reversed $284 $-1 #
coedge $-1 $347 $426 $282 $377 forward $427 $-1 #
edge $-1 $447 -1.9950000000000001 $189 -7.479557850087911e-033 $282 $374 forward 7 unknown #
face $-1 $-1 $420 $27 $-1 $255 reversed single #
vertex $-1 $287 $448 #
convexity-sys-attrib $-1 $-1 $-1 $291 #
vertex $-1 $291 $449 #
ellipse-curve $-1 -7.479557850087911e-033 0 -0.24500000000000011 0 0 -1 1.9950000000000001 0 0 1 I I #
point $-1 -1.9950000000000001 2.4430896758756426e-016 0.37999999999999989 #
point $-1 -1.4684999999999999 0 -0.245 #
model_id-kcp-attrib $-1 $-1 $-1 $298 1 990635135 70 1464205313 9 #
cone-surface $-1 0 0 -0.79800000000000004 0 0 1 -1.9950000000000001 0 0 1 I I 0 1 1.9950000000000001 forward I I I I #
loop $-1 $-1 $389 $203 #
coedge $-1 $388 $388 $450 $451 forward $299 $-1 #
coedge $-1 $389 $389 $301 $390 reversed $387 $-1 #
edge $-1 $452 -3.1415926535897931 $452 3.1415926535897931 $389 $453 forward 7 unknown #
loop $-1 $211 $302 $310 #
attrib_edge_convexity-kcp-attrib $-1 $454 $-1 $303 2 #
vertex $-1 $303 $455 #
ellipse-curve $-1 0 0 -0.73999999999999899 0 0 -1 1.8923589838486199 0 0 1 I I #
convexity-sys-attrib $-1 $-1 $304 $208 #
model_id-kcp-attrib $-1 $-1 $-1 $305 1 990635135 70 1464205313 18 #
point $-1 1.345 0 -0.73999999999999999 #
loop $-1 $-1 $450 $298 #
point $-1 -1.9950000000000001 0 -0.76000000000000001 #
model_id-kcp-attrib $-1 $-1 $-1 $310 1 990635135 70 1464205313 10 #
cone-surface $-1 0 0 -0.76000000000000001 0 0 -1 1.927 0 0 1 I I 0.86602540378443704 0.500000000000003 1.927 forward I I I I #
straight-curve $-1 -1.9950000000000001 1.9950000000000001 0 0 0 -1 I I #
point $-1 -1.9950000000000001 -1.9950000000000001 -0.38 #
straight-curve $-1 -1.9950000000000001 0 -0.38 0 1 0 I I #
point $-1 -1.9950000000000001 1.9950000000000001 -0.38 #
face $-1 $356 $456 $27 $-1 $435 forward single #
loop $-1 $-1 $351 $333 #
plane-surface $-1 -1.9950000000000001 0 0 1 0 0 0 0 -1 forward_v I I I I #
coedge $-1 $337 $336 $457 $458 reversed $174 $-1 #
coedge $-1 $459 $460 $461 $341 forward $462 $-1 #
coedge $-1 $412 $338 $460 $424 forward $413 $-1 #
coedge $-1 $338 $411 $430 $463 forward $413 $-1 #
loop $-1 $-1 $338 $464 #
coedge $-1 $465 $466 $340 $415 forward $467 $-1 #
edge $-1 $278 0 $416 1.5707963267948966 $414 $268 forward 7 unknown #
vertex $-1 $468 $469 #
straight-curve $-1 -7.479557850087911e-033 -1.9950000000000001 0.38 0 0 1 I I #
coedge $-1 $470 $342 $466 $471 reversed $420 $-1 #
coedge $-1 $342 $470 $343 $363 reversed $420 $-1 #
loop $-1 $-1 $342 $378 #
coedge $-1 $472 $461 $344 $422 reversed $473 $-1 #
edge $-1 $440 -1.9950000000000001 $346 7.479557850087911e-033 $421 $474 forward 7 unknown #
face $-1 $362 $345 $27 $-1 $439 reversed single #
edge $-1 $346 7.479557850087911e-033 $475 1.9950000000000001 $460 $474 forward 7 unknown #
point $-1 -7.479557850087911e-033 -1.9950000000000001 -0.38 #
coedge $-1 $376 $347 $350 $429 forward $427 $-1 #
loop $-1 $-1 $347 $438 #
coedge $-1 $350 $349 $375 $446 forward $352 $-1 #
edge $-1 $353 0 $447 1.9950000000000001 $350 $476 forward 7 unknown #
coedge $-1 $477 $351 $412 $463 reversed $407 $-1 #
coedge $-1 $351 $477 $478 $357 reversed $407 $-1 #
face $-1 $285 $352 $27 $-1 $408 reversed single #
point $-1 -1.9950000000000001 0 -0.38 #
straight-curve $-1 -1.9950000000000001 0 0.38 0 -1 0 I I #
plane-surface $-1 0 0 0.38 0 0 1 1 0 0 forward_v I I I I #
vertex $-1 $357 $479 #
straight-curve $-1 1.9950000000000001 0 -0.38 0 -1 0 I I #
face $-1 $480 $427 $27 $-1 $439 reversed single #
plane-surface $-1 0 0 -0.38 0 0 1 1 0 0 forward_v I I I I #
vertex $-1 $481 $482 #
straight-curve $-1 1.9950000000000001 0 0.38 0 1 0 I I #
face $-1 $483 $467 $27 $-1 $435 forward single #
straight-curve $-1 1.9950000000000001 1.9950000000000001 0 0 0 -1 I I #
point $-1 1.9950000000000001 1.9950000000000001 0.38 #
point $-1 1.9950000000000001 1.9950000000000001 -0.38 #
edge $-1 $379 -0.38 $447 0.38 $375 $484 forward 7 unknown #
vertex $-1 $377 $485 #
point $-1 -1.9950000000000001 1.9950000000000001 0.38 #
point $-1 -1.9950000000000001 2.4430896758756426e-016 -0.24500000000000011 #
coedge $-1 $450 $450 $388 $451 reversed $398 $-1 #
edge $-1 $486 -3.1415926535897931 $486 3.1415926535897931 $450 $487 forward 7 unknown #
vertex $-1 $390 $488 #
ellipse-curve $-1 0 0 -0.69999999999999996 0 0 1 1.9950000000000001 0 0 1 I I #
convexity-sys-attrib $-1 $-1 $392 $303 #
point $-1 -1.8923589838486199 0 -0.73999999999999899 #
loop $-1 $-1 $457 $406 #
coedge $-1 $478 $489 $409 $458 forward $456 $-1 #
edge $-1 $416 1.5707963267948966 $267 3.1415926535897931 $457 $268 forward 7 unknown #
coedge $-1 $490 $410 $489 $491 reversed $462 $-1 #
coedge $-1 $410 $490 $411 $424 reversed $462 $-1 #
coedge $-1 $421 $492 $257 $341 reversed $473 $-1 #
loop $-1 $-1 $410 $480 #
edge $-1 $475 -1.9950000000000001 $353 0 $430 $476 forward 7 unknown #
face $-1 $423 $413 $27 $-1 $439 reversed single #
coedge $-1 $466 $414 $492 $468 forward $467 $-1 #
coedge $-1 $414 $465 $418 $471 forward $467 $-1 #
loop $-1 $-1 $414 $442 #
edge $-1 $416 -7.479557850087911e-033 $493 1.9950000000000001 $492 $494 forward 7 unknown #
point $-1 -7.479557850087911e-033 -1.9950000000000001 0.38 #
coedge $-1 $419 $418 $472 $481 forward $420 $-1 #
edge $-1 $493 -1.9950000000000001 $278 0 $418 $441 forward 7 unknown #
coedge $-1 $492 $421 $470 $481 reversed $473 $-1 #
loop $-1 $-1 $461 $483 #
straight-curve $-1 0 -1.9950000000000001 -0.38 -1 0 0 I I #
vertex $-1 $463 $495 #
straight-curve $-1 -1.9950000000000001 0 -0.38 0 1 0 I I #
coedge $-1 $431 $430 $490 $496 reversed $407 $-1 #
coedge $-1 $489 $457 $431 $357 forward $456 $-1 #
point $-1 -1.9950000000000001 -1.9950000000000001 0.38 #
face $-1 $432 $462 $27 $-1 $497 reversed single #
edge $-1 $493 -0.38 $440 0.38 $470 $498 forward 7 unknown #
point $-1 1.9950000000000001 -1.9950000000000001 -0.38 #
face $-1 $464 $473 $27 $-1 $497 reversed single #
straight-curve $-1 -1.9950000000000001 1.9950000000000001 0 0 0 -1 I I #
point $-1 -1.9950000000000001 1.9950000000000001 -0.38 #
vertex $-1 $451 $499 #
ellipse-curve $-1 0 0 -0.75 0 0 1 1.9950000000000001 0 0 1 I I #
point $-1 -1.9950000000000001 0 -0.69999999999999996 #
coedge $-1 $457 $478 $459 $491 forward $456 $-1 #
coedge $-1 $460 $459 $477 $496 forward $462 $-1 #
edge $-1 $436 -1.9950000000000001 $416 -7.479557850087911e-033 $459 $494 forward 7 unknown #
coedge $-1 $461 $472 $465 $468 reversed $473 $-1 #
vertex $-1 $471 $500 #
straight-curve $-1 0 -1.9950000000000001 0.38 1 0 0 I I #
point $-1 -1.9950000000000001 -1.9950000000000001 -0.38 #
edge $-1 $436 -0.38 $475 0.38 $477 $501 forward 7 unknown #
plane-surface $-1 0 -1.9950000000000001 0 0 1 0 0 0 1 forward_v I I I I #
straight-curve $-1 1.9950000000000001 -1.9950000000000001 0 0 0 -1 I I #
point $-1 -1.9950000000000001 0 -0.75 #
point $-1 1.9950000000000001 -1.9950000000000001 0.38 #
straight-curve $-1 -1.9950000000000001 -1.9950000000000001 0 0 0 -1 I I #
End-of-ACIS-data 