106 0 1 0           
body $-1 $1 $-1 $2 #
lump $-1 $-1 $3 $0 #
transform $-1 1 0 0 0 1 0 0 0 1 0 0 0 1 0 0 0 #
shell $-1 $-1 $-1 $4 $1 #
face $-1 $5 $6 $3 $-1 $7 reversed single #
face $-1 $8 $9 $3 $-1 $10 forward single #
loop $-1 $11 $12 $4 #
plane-surface $-1 0 0 0 0 0 1 1 0 0 0 I I I I #
face $-1 $13 $14 $3 $-1 $15 reversed single #
loop $-1 $16 $17 $5 #
plane-surface $-1 0 0 0.5 0 0 1 1 0 0 0 I I I I #
loop $-1 $18 $19 $4 #
coedge $-1 $12 $12 $20 $21 0 $6 $-1 #
face $-1 $22 $23 $3 $-1 $24 reversed single #
loop $-1 $25 $26 $8 #
cone-surface $-1 -2.125 0 0 0 0 1 0.4375 0 0 1 I I 0 1 0 I I I I #
loop $-1 $27 $28 $5 #
coedge $-1 $17 $17 $26 $29 1 $9 $-1 #
loop $-1 $-1 $30 $4 #
coedge $-1 $19 $19 $31 $32 0 $11 $-1 #
coedge $-1 $20 $20 $12 $21 1 $25 $-1 #
edge $-1 $33 $33 $20 $34 0 #
face $-1 $35 $36 $3 $-1 $37 forward single #
loop $-1 $38 $39 $13 #
cone-surface $-1 2.125 0 0 0 0 1 0.4375 0 0 1 I I 0 1 0 I I I I #
loop $-1 $-1 $20 $8 #
coedge $-1 $26 $26 $17 $29 0 $14 $-1 #
loop $-1 $-1 $40 $5 #
coedge $-1 $28 $28 $39 $41 1 $16 $-1 #
edge $-1 $42 $42 $26 $43 0 #
coedge $-1 $44 $45 $46 $47 0 $18 $-1 #
coedge $-1 $31 $31 $19 $32 1 $38 $-1 #
edge $-1 $48 $48 $31 $49 0 #
vertex $-1 $21 $50 #
ellipse-curve $-1 -2.125 0 0 0 0 1 -0.4375 0 0 1 I I #
face $-1 $51 $52 $3 $-1 $53 forward single #
loop $-1 $-1 $46 $22 #
cone-surface $-1 2.125 0 0 0 0 1 0.75 0 0 1 I I 0 1 0 I I I I #
loop $-1 $-1 $31 $13 #
coedge $-1 $39 $39 $28 $41 0 $23 $-1 #
coedge $-1 $54 $55 $56 $57 1 $27 $-1 #
edge $-1 $58 $58 $39 $59 0 #
vertex $-1 $29 $60 #
ellipse-curve $-1 -2.125 0 0.5 0 0 1 0.4375 0 0 1 I I #
coedge $-1 $61 $30 $62 $63 0 $18 $-1 #
coedge $-1 $30 $61 $64 $65 0 $18 $-1 #
coedge $-1 $66 $67 $30 $47 1 $36 $-1 #
edge $-1 $68 $69 $46 $70 0 #
vertex $-1 $32 $71 #
ellipse-curve $-1 2.125 0 0 0 0 1 -0.4375 0 0 1 I I #
point $-1 -1.6875 0 0 #
face $-1 $72 $73 $3 $-1 $74 forward single #
loop $-1 $-1 $64 $35 #
plane-surface $-1 2.125 0.75 0 0 1 0 0 0 1 0 I I I I #
coedge $-1 $75 $40 $76 $77 1 $27 $-1 #
coedge $-1 $40 $75 $78 $79 1 $27 $-1 #
coedge $-1 $67 $66 $40 $57 0 $36 $-1 #
edge $-1 $80 $81 $56 $82 0 #
vertex $-1 $41 $83 #
ellipse-curve $-1 2.125 0 0.5 0 0 1 0.4375 0 0 1 I I #
point $-1 -1.6875 0 0.5 #
coedge $-1 $45 $44 $84 $85 0 $18 $-1 #
coedge $-1 $86 $87 $44 $63 1 $88 $-1 #
edge $-1 $69 $89 $62 $90 0 #
coedge $-1 $91 $92 $45 $65 1 $52 $-1 #
edge $-1 $93 $68 $64 $94 0 #
coedge $-1 $56 $46 $92 $95 1 $36 $-1 #
coedge $-1 $46 $56 $86 $96 0 $36 $-1 #
vertex $-1 $95 $97 #
vertex $-1 $96 $98 #
ellipse-curve $-1 2.125 0 0 0 0 -1 0 -0.75 0 1 I I #
point $-1 2.5625 0 0 #
face $-1 $-1 $88 $3 $-1 $99 forward single #
loop $-1 $-1 $84 $51 #
cone-surface $-1 -2.125 0 0 0 0 1 0.75 0 0 1 I I 0 1 0 I I I I #
coedge $-1 $55 $54 $100 $101 1 $27 $-1 #
coedge $-1 $92 $91 $54 $77 0 $52 $-1 #
edge $-1 $102 $80 $76 $103 0 #
coedge $-1 $87 $86 $55 $79 0 $88 $-1 #
edge $-1 $81 $104 $78 $105 0 #
vertex $-1 $95 $106 #
vertex $-1 $96 $107 #
ellipse-curve $-1 2.125 0 0.5 0 0 -1 0 -0.75 0 1 I I #
point $-1 2.5625 0 0.5 #
coedge $-1 $108 $109 $61 $85 1 $73 $-1 #
edge $-1 $89 $93 $84 $110 0 #
coedge $-1 $78 $62 $67 $96 1 $88 $-1 #
coedge $-1 $62 $78 $108 $111 0 $88 $-1 #
loop $-1 $-1 $62 $72 #
vertex $-1 $111 $112 #
straight-curve $-1 -2.125 -0.75 0 -1 0 0 I I #
coedge $-1 $76 $64 $109 $113 1 $52 $-1 #
coedge $-1 $64 $76 $66 $95 0 $52 $-1 #
vertex $-1 $113 $114 #
straight-curve $-1 2.125 0.75 0 1 0 0 I I #
edge $-1 $80 $68 $92 $115 0 #
edge $-1 $81 $69 $86 $116 0 #
point $-1 2.125 0.75 0 #
point $-1 2.125 -0.75 0 #
plane-surface $-1 -2.125 -0.75 0 0 -1 0 0 0 -1 0 I I I I #
coedge $-1 $109 $108 $75 $101 0 $73 $-1 #
edge $-1 $104 $102 $100 $117 0 #
vertex $-1 $113 $118 #
straight-curve $-1 2.125 0.75 0.5 1 0 0 I I #
vertex $-1 $111 $119 #
straight-curve $-1 -2.125 -0.75 0.5 -1 0 0 I I #
point $-1 2.125 0.75 0.5 #
point $-1 2.125 -0.75 0.5 #
coedge $-1 $100 $84 $87 $111 1 $73 $-1 #
coedge $-1 $84 $100 $91 $113 0 $73 $-1 #
ellipse-curve $-1 -2.125 0 0 0 0 -1 0 0.75 0 1 I I #
edge $-1 $104 $89 $87 $120 0 #
point $-1 -2.125 -0.75 0 #
edge $-1 $102 $93 $109 $121 0 #
point $-1 -2.125 0.75 0 #
straight-curve $-1 2.125 0.75 0 0 0 -1 I I #
straight-curve $-1 2.125 -0.75 0 0 0 -1 I I #
ellipse-curve $-1 -2.125 0 0.5 0 0 -1 0 0.75 0 1 I I #
point $-1 -2.125 0.75 0.5 #
point $-1 -2.125 -0.75 0.5 #
straight-curve $-1 -2.125 -0.75 0 0 0 -1 I I #
straight-curve $-1 -2.125 0.75 0 0 0 -1 I I #
End-of-ACIS-data 