600 0 1 0           
97 GICL ACIS Healer - Source: /gicl/data5/repository/new/Spectrometer/linkage_arm_short_46.sat - 6 0 18 ACIS 6.0.3 Solaris 24 Sat Apr 13 20:35:12 2002 
1 9.999999999999999547e-07 1.000000000000000036e-10 
body $-1 $1 $-1 $2 #
lump $-1 $-1 $3 $0 #
transform $-1 1 0 0 0 1 0 0 0 1 0 0 0 1 no_rotate no_reflect no_shear #
shell $-1 $-1 $-1 $4 $-1 $1 #
face $-1 $5 $6 $3 $-1 $7 reversed single #
face $-1 $8 $9 $3 $-1 $10 forward single #
loop $-1 $11 $12 $4 #
plane-surface $-1 0 0 0 0 0 1 1 0 0 forward_v I I I I #
face $-1 $13 $14 $3 $-1 $15 reversed single #
loop $-1 $16 $17 $5 #
plane-surface $-1 0 0 0.5 0 0 1 1 0 0 forward_v I I I I #
loop $-1 $18 $19 $4 #
coedge $-1 $12 $12 $20 $21 forward $6 $-1 #
face $-1 $22 $23 $3 $-1 $24 reversed single #
loop $-1 $25 $26 $8 #
cone-surface $-1 -2.125 0 0 0 0 1 0.4375 0 0 1 I I 0 1 0.4375 forward I I I I #
loop $-1 $27 $28 $5 #
coedge $-1 $17 $17 $26 $29 reversed $9 $-1 #
loop $-1 $-1 $30 $4 #
coedge $-1 $19 $19 $31 $32 forward $11 $-1 #
coedge $-1 $20 $20 $12 $21 reversed $25 $-1 #
edge $-1 $33 -3.141592653589793116 $33 3.141592653589793116 $20 $34 forward 7 unknown #
face $-1 $35 $36 $3 $-1 $37 forward single #
loop $-1 $38 $39 $13 #
cone-surface $-1 2.125 0 0 0 0 1 0.4375 0 0 1 I I 0 1 0.4375 forward I I I I #
loop $-1 $-1 $20 $8 #
coedge $-1 $26 $26 $17 $29 forward $14 $-1 #
loop $-1 $-1 $40 $5 #
coedge $-1 $28 $28 $39 $41 reversed $16 $-1 #
edge $-1 $42 0 $42 6.283185307179586232 $26 $43 forward 7 unknown #
coedge $-1 $44 $45 $46 $47 forward $18 $-1 #
coedge $-1 $31 $31 $19 $32 reversed $38 $-1 #
edge $-1 $48 -3.141592653589793116 $48 3.141592653589793116 $31 $49 forward 7 unknown #
vertex $-1 $21 $50 #
ellipse-curve $-1 -2.125 0 0 0 0 1 -0.4375 0 0 1 I I #
face $-1 $51 $52 $3 $-1 $53 forward single #
loop $-1 $-1 $46 $22 #
cone-surface $-1 2.125 0 0 0 0 1 0.75 0 0 1 I I 0 1 0.75 forward I I I I #
loop $-1 $-1 $31 $13 #
coedge $-1 $39 $39 $28 $41 forward $23 $-1 #
coedge $-1 $54 $55 $56 $57 reversed $27 $-1 #
edge $-1 $58 0 $58 6.283185307179586232 $39 $59 forward 7 unknown #
vertex $-1 $29 $60 #
ellipse-curve $-1 -2.125 0 0.5 0 0 1 0.4375 0 0 1 I I #
coedge $-1 $61 $30 $62 $63 forward $18 $-1 #
coedge $-1 $30 $61 $64 $65 forward $18 $-1 #
coedge $-1 $66 $67 $30 $47 reversed $36 $-1 #
edge $-1 $68 -3.141592653589793116 $69 0 $46 $70 forward 7 unknown #
vertex $-1 $32 $71 #
ellipse-curve $-1 2.125 0 0 0 0 1 -0.4375 0 0 1 I I #
point $-1 -1.6875 0 0 #
face $-1 $72 $73 $3 $-1 $74 forward single #
loop $-1 $-1 $64 $35 #
plane-surface $-1 2.125 0.75 0 0 1 0 0 0 1 forward_v I I I I #
coedge $-1 $75 $40 $76 $77 reversed $27 $-1 #
coedge $-1 $40 $75 $78 $79 reversed $27 $-1 #
coedge $-1 $67 $66 $40 $57 forward $36 $-1 #
edge $-1 $80 -3.141592653589793116 $81 0 $56 $82 forward 7 unknown #
vertex $-1 $41 $83 #
ellipse-curve $-1 2.125 0 0.5 0 0 1 0.4375 0 0 1 I I #
point $-1 -1.6875 0 0.5 #
coedge $-1 $45 $44 $84 $85 forward $18 $-1 #
coedge $-1 $86 $87 $44 $63 reversed $88 $-1 #
edge $-1 $69 -4.25 $89 0 $62 $90 forward 7 unknown #
coedge $-1 $91 $92 $45 $65 reversed $52 $-1 #
edge $-1 $93 -4.25 $68 0 $64 $94 forward 7 unknown #
coedge $-1 $56 $46 $92 $95 reversed $36 $-1 #
coedge $-1 $46 $56 $86 $96 forward $36 $-1 #
vertex $-1 $95 $97 #
vertex $-1 $96 $98 #
ellipse-curve $-1 2.125 0 0 0 0 -1 0 -0.75 0 1 I I #
point $-1 2.5625 0 0 #
face $-1 $-1 $88 $3 $-1 $99 forward single #
loop $-1 $-1 $84 $51 #
cone-surface $-1 -2.125 0 0 0 0 1 0.75 0 0 1 I I 0 1 0.75 forward I I I I #
coedge $-1 $55 $54 $100 $101 reversed $27 $-1 #
coedge $-1 $92 $91 $54 $77 forward $52 $-1 #
edge $-1 $102 -4.25 $80 0 $76 $103 forward 7 unknown #
coedge $-1 $87 $86 $55 $79 forward $88 $-1 #
edge $-1 $81 -4.25 $104 0 $78 $105 forward 7 unknown #
vertex $-1 $95 $106 #
vertex $-1 $96 $107 #
ellipse-curve $-1 2.125 0 0.5 0 0 -1 0 -0.75 0 1 I I #
point $-1 2.5625 0 0.5 #
coedge $-1 $108 $109 $61 $85 reversed $73 $-1 #
edge $-1 $89 -3.141592653589793116 $93 0 $84 $110 forward 7 unknown #
coedge $-1 $78 $62 $67 $96 reversed $88 $-1 #
coedge $-1 $62 $78 $108 $111 forward $88 $-1 #
loop $-1 $-1 $62 $72 #
vertex $-1 $111 $112 #
straight-curve $-1 -2.125 -0.75 0 -1 0 0 I I #
coedge $-1 $76 $64 $109 $113 reversed $52 $-1 #
coedge $-1 $64 $76 $66 $95 forward $52 $-1 #
vertex $-1 $113 $114 #
straight-curve $-1 2.125 0.75 0 1 0 0 I I #
edge $-1 $80 -0.5 $68 0 $92 $115 forward 7 unknown #
edge $-1 $81 -0.5 $69 0 $86 $116 forward 7 unknown #
point $-1 2.125 0.75 0 #
point $-1 2.125 -0.75 0 #
plane-surface $-1 -2.125 -0.75 0 0 -1 0 0 0 -1 forward_v I I I I #
coedge $-1 $109 $108 $75 $101 forward $73 $-1 #
edge $-1 $104 -3.141592653589793116 $102 0 $100 $117 forward 7 unknown #
vertex $-1 $113 $118 #
straight-curve $-1 2.125 0.75 0.5 1 0 0 I I #
vertex $-1 $111 $119 #
straight-curve $-1 -2.125 -0.75 0.5 -1 0 0 I I #
point $-1 2.125 0.75 0.5 #
point $-1 2.125 -0.75 0.5 #
coedge $-1 $100 $84 $87 $111 reversed $73 $-1 #
coedge $-1 $84 $100 $91 $113 forward $73 $-1 #
ellipse-curve $-1 -2.125 0 0 0 0 -1 0 0.75 0 1 I I #
edge $-1 $104 -0.5 $89 0 $87 $120 forward 7 unknown #
point $-1 -2.125 -0.75 0 #
edge $-1 $102 -0.5 $93 0 $109 $121 forward 7 unknown #
point $-1 -2.125 0.75 0 #
straight-curve $-1 2.125 0.75 0 0 0 -1 I I #
straight-curve $-1 2.125 -0.75 0 0 0 -1 I I #
ellipse-curve $-1 -2.125 0 0.5 0 0 -1 0 0.75 0 1 I I #
point $-1 -2.125 0.75 0.5 #
point $-1 -2.125 -0.75 0.5 #
straight-curve $-1 -2.125 -0.75 0 0 0 -1 I I #
straight-curve $-1 -2.125 0.75 0 0 0 -1 I I #
End-of-ACIS-data 