600 0 1 0           
91 GICL ACIS Healer - Source: /gicl/data5/repository/new/Spectrometer/linkage_arm_42.sat - 6 0 18 ACIS 6.0.3 Solaris 24 Sat Apr 13 20:35:10 2002 
1 9.999999999999999547e-07 1.000000000000000036e-10 
body $-1 $1 $-1 $2 #
lump $-1 $-1 $3 $0 #
transform $-1 1 0 0 0 1 0 0 0 1 0 0 0 1 no_rotate no_reflect no_shear #
shell $-1 $-1 $-1 $4 $-1 $1 #
face $-1 $5 $6 $3 $-1 $7 reversed single #
face $-1 $8 $9 $3 $-1 $10 forward single #
loop $-1 $11 $12 $4 #
plane-surface $-1 0 0 0 0 0 1 1 0 0 forward_v I I I I #
face $-1 $13 $14 $3 $-1 $15 reversed single #
loop $-1 $16 $17 $5 #
plane-surface $-1 0 0 0.5 0 0 1 1 0 0 forward_v I I I I #
loop $-1 $18 $19 $4 #
coedge $-1 $12 $12 $20 $21 forward $6 $-1 #
face $-1 $22 $23 $3 $-1 $24 reversed single #
loop $-1 $25 $26 $8 #
cone-surface $-1 -4.25 0 0 0 0 1 0.4375 0 0 1 I I 0 1 0.4375 forward I I I I #
loop $-1 $27 $28 $5 #
coedge $-1 $17 $17 $26 $29 reversed $9 $-1 #
loop $-1 $30 $31 $4 #
coedge $-1 $19 $19 $32 $33 forward $11 $-1 #
coedge $-1 $20 $20 $12 $21 reversed $25 $-1 #
edge $-1 $34 -3.141592653589793116 $34 3.141592653589793116 $20 $35 forward 7 unknown #
face $-1 $36 $37 $3 $-1 $38 reversed single #
loop $-1 $39 $40 $13 #
cone-surface $-1 2.660000000000000142 0 0 0 0 1 0.1285000000000000031 0 0 1 I I 0 1 0.1285000000000000031 forward I I I I #
loop $-1 $-1 $20 $8 #
coedge $-1 $26 $26 $17 $29 forward $14 $-1 #
loop $-1 $41 $42 $5 #
coedge $-1 $28 $28 $40 $43 reversed $16 $-1 #
edge $-1 $44 0 $44 6.283185307179586232 $26 $45 forward 7 unknown #
loop $-1 $46 $47 $4 #
coedge $-1 $31 $31 $48 $49 forward $18 $-1 #
coedge $-1 $32 $32 $19 $33 reversed $50 $-1 #
edge $-1 $51 -3.141592653589793116 $51 3.141592653589793116 $32 $52 forward 7 unknown #
vertex $-1 $21 $53 #
ellipse-curve $-1 -4.25 0 0 0 0 1 -0.4375 0 0 1 I I #
face $-1 $54 $55 $3 $-1 $56 reversed single #
loop $-1 $50 $57 $22 #
cone-surface $-1 2.25 0 0 0 0 1 0.0625 0 0 1 I I 0 1 0.0625 forward I I I I #
loop $-1 $-1 $58 $13 #
coedge $-1 $40 $40 $28 $43 forward $23 $-1 #
loop $-1 $59 $60 $5 #
coedge $-1 $42 $42 $57 $61 reversed $27 $-1 #
edge $-1 $62 0 $62 6.283185307179586232 $40 $63 forward 7 unknown #
vertex $-1 $29 $64 #
ellipse-curve $-1 -4.25 0 0.5 0 0 1 0.4375 0 0 1 I I #
loop $-1 $65 $66 $4 #
coedge $-1 $47 $47 $67 $68 forward $30 $-1 #
coedge $-1 $48 $48 $31 $49 reversed $69 $-1 #
edge $-1 $70 -3.141592653589793116 $70 3.141592653589793116 $48 $71 forward 7 unknown #
loop $-1 $-1 $32 $22 #
vertex $-1 $33 $72 #
ellipse-curve $-1 2.25 0 0 0 0 1 -0.0625 0 0 1 I I #
point $-1 -3.8125 0 0 #
face $-1 $73 $74 $3 $-1 $75 reversed single #
loop $-1 $69 $76 $36 #
cone-surface $-1 0 0 0 0 0 1 0.2184999999999999998 0 0 1 I I 0 1 0.2184999999999999998 forward I I I I #
coedge $-1 $57 $57 $42 $61 forward $37 $-1 #
coedge $-1 $58 $58 $77 $78 forward $39 $-1 #
loop $-1 $79 $80 $5 #
coedge $-1 $60 $60 $76 $81 reversed $41 $-1 #
edge $-1 $82 0 $82 6.283185307179586232 $57 $83 forward 7 unknown #
vertex $-1 $43 $84 #
ellipse-curve $-1 2.660000000000000142 0 0.5 0 0 1 0.1285000000000000031 0 0 1 I I #
point $-1 -3.8125 0 0.5 #
loop $-1 $85 $86 $4 #
coedge $-1 $87 $88 $89 $90 forward $46 $-1 #
coedge $-1 $67 $67 $47 $68 reversed $91 $-1 #
edge $-1 $92 -3.141592653589793116 $92 3.141592653589793116 $67 $93 forward 7 unknown #
loop $-1 $-1 $48 $36 #
vertex $-1 $49 $94 #
ellipse-curve $-1 0 0 0 0 0 1 -0.2184999999999999998 0 0 1 I I #
point $-1 2.3125 0 0 #
face $-1 $95 $96 $3 $-1 $97 reversed single #
loop $-1 $91 $98 $54 #
cone-surface $-1 1.40999999999999992 0 0 0 0 1 0.0625 0 0 1 I I 0 1 0.0625 forward I I I I #
coedge $-1 $76 $76 $60 $81 forward $55 $-1 #
coedge $-1 $77 $77 $58 $78 reversed $99 $-1 #
edge $-1 $100 -3.141592653589793116 $100 3.141592653589793116 $77 $101 forward 7 unknown #
loop $-1 $102 $103 $5 #
coedge $-1 $80 $80 $98 $104 reversed $59 $-1 #
edge $-1 $105 0 $105 6.283185307179586232 $76 $106 forward 7 unknown #
vertex $-1 $61 $107 #
ellipse-curve $-1 2.25 0 0.5 0 0 1 0.0625 0 0 1 I I #
point $-1 2.788499999999999979 0 0.5 #
loop $-1 $108 $109 $4 #
coedge $-1 $110 $111 $112 $113 forward $65 $-1 #
coedge $-1 $114 $66 $115 $116 forward $46 $-1 #
coedge $-1 $66 $114 $117 $118 forward $46 $-1 #
coedge $-1 $119 $120 $66 $90 reversed $121 $-1 #
edge $-1 $122 -3.141592653589793116 $123 0 $89 $124 forward 7 unknown #
loop $-1 $-1 $67 $54 #
vertex $-1 $68 $125 #
ellipse-curve $-1 1.40999999999999992 0 0 0 0 1 -0.0625 0 0 1 I I #
point $-1 0.2184999999999999998 0 0 #
face $-1 $126 $127 $3 $-1 $128 reversed single #
loop $-1 $129 $130 $73 #
cone-surface $-1 1.40999999999999992 0.4060000000000000275 0 0 0 1 0.1285000000000000031 0 0 1 I I 0 1 0.1285000000000000031 forward I I I I #
coedge $-1 $98 $98 $80 $104 forward $74 $-1 #
loop $-1 $-1 $77 $131 #
vertex $-1 $78 $132 #
ellipse-curve $-1 2.660000000000000142 0 0.25 0 0 -1 0.1285000000000000031 0 0 1 I I #
loop $-1 $133 $134 $5 #
coedge $-1 $103 $103 $130 $135 reversed $79 $-1 #
edge $-1 $136 0 $136 6.283185307179586232 $98 $137 forward 7 unknown #
vertex $-1 $81 $138 #
ellipse-curve $-1 0 0 0.5 0 0 1 0.2184999999999999998 0 0 1 I I #
point $-1 2.3125 0 0.5 #
loop $-1 $139 $140 $4 #
coedge $-1 $109 $109 $141 $142 reversed $85 $-1 #
coedge $-1 $143 $86 $144 $145 forward $65 $-1 #
coedge $-1 $86 $143 $146 $147 forward $65 $-1 #
coedge $-1 $148 $149 $86 $113 reversed $150 $-1 #
edge $-1 $151 -1.999999999999994227 $152 0 $112 $153 forward 7 unknown #
coedge $-1 $88 $87 $154 $155 forward $46 $-1 #
coedge $-1 $156 $157 $87 $116 reversed $158 $-1 #
edge $-1 $123 -7.25 $159 0 $115 $160 forward 7 unknown #
coedge $-1 $161 $162 $88 $118 reversed $163 $-1 #
edge $-1 $164 -7.25 $122 0 $117 $165 forward 7 unknown #
coedge $-1 $166 $89 $162 $167 reversed $121 $-1 #
coedge $-1 $89 $166 $156 $168 forward $121 $-1 #
loop $-1 $-1 $89 $126 #
vertex $-1 $167 $169 #
vertex $-1 $168 $170 #
ellipse-curve $-1 -4.25 0 0 0 0 -1 0 0.75 0 1 I I #
point $-1 1.47249999999999992 0 0 #
face $-1 $171 $121 $3 $-1 $172 forward single #
loop $-1 $173 $174 $95 #
cone-surface $-1 1.40999999999999992 -0.4060000000000000275 0 0 0 1 0.1285000000000000031 0 0 1 I I 0 1 0.1285000000000000031 forward I I I I #
loop $-1 $-1 $175 $73 #
coedge $-1 $130 $130 $103 $135 forward $96 $-1 #
face $-1 $176 $177 $3 $-1 $178 reversed single #
point $-1 2.531499999999999861 0 0.25 #
loop $-1 $179 $180 $5 #
coedge $-1 $134 $134 $174 $181 reversed $102 $-1 #
edge $-1 $182 0 $182 6.283185307179586232 $130 $183 forward 7 unknown #
vertex $-1 $104 $184 #
ellipse-curve $-1 1.40999999999999992 0 0.5 0 0 1 0.0625 0 0 1 I I #
point $-1 0.2184999999999999998 0 0.5 #
loop $-1 $-1 $185 $4 #
coedge $-1 $140 $140 $186 $187 reversed $108 $-1 #
coedge $-1 $141 $141 $109 $142 forward $188 $-1 #
edge $-1 $189 0 $189 6.283185307179586232 $141 $190 forward 7 unknown #
coedge $-1 $111 $110 $191 $192 forward $65 $-1 #
coedge $-1 $193 $194 $110 $145 reversed $195 $-1 #
edge $-1 $152 -3.1415926535898131 $196 -1.870725796493396028e-14 $144 $197 forward 7 unknown #
coedge $-1 $198 $199 $111 $147 reversed $200 $-1 #
edge $-1 $201 -3.141592653589758477 $151 -5.71764857681957196e-15 $146 $202 forward 7 unknown #
coedge $-1 $203 $112 $199 $204 reversed $150 $-1 #
coedge $-1 $112 $203 $193 $205 forward $150 $-1 #
loop $-1 $-1 $112 $206 #
vertex $-1 $204 $207 #
vertex $-1 $205 $208 #
straight-curve $-1 -1.229376326064959946 0.01427032824734300077 0 0.9848077530122080203 0.1736481776669299981 0 I I #
coedge $-1 $209 $210 $114 $155 reversed $211 $-1 #
edge $-1 $159 -1.5 $164 0 $154 $212 forward 7 unknown #
coedge $-1 $213 $115 $120 $168 reversed $158 $-1 #
coedge $-1 $115 $213 $209 $214 forward $158 $-1 #
loop $-1 $-1 $115 $215 #
vertex $-1 $214 $216 #
straight-curve $-1 3 0.75 0 1 0 0 I I #
coedge $-1 $217 $117 $210 $218 reversed $163 $-1 #
coedge $-1 $117 $217 $119 $167 forward $163 $-1 #
loop $-1 $-1 $117 $171 #
vertex $-1 $218 $219 #
straight-curve $-1 -4.25 -0.75 0 -1 0 0 I I #
coedge $-1 $120 $119 $180 $220 forward $121 $-1 #
edge $-1 $221 -0.5 $122 0 $162 $222 forward 7 unknown #
edge $-1 $223 -0.5 $123 0 $156 $224 forward 7 unknown #
point $-1 -4.25 -0.75 0 #
point $-1 -4.25 0.75 0 #
face $-1 $225 $163 $3 $-1 $226 forward single #
cone-surface $-1 -4.25 0 0 0 0 1 0.75 0 0 1 I I 0 1 0.75 forward I I I I #
loop $-1 $-1 $227 $95 #
coedge $-1 $174 $174 $134 $181 forward $127 $-1 #
coedge $-1 $175 $175 $228 $229 forward $129 $-1 #
face $-1 $230 $231 $3 $-1 $232 reversed single #
loop $-1 $99 $233 $131 #
plane-surface $-1 2.660000000000000142 0 0.25 0 0 1 1 0 0 forward_v I I I I #
loop $-1 $-1 $234 $5 #
coedge $-1 $235 $236 $166 $220 reversed $133 $-1 #
edge $-1 $237 0 $237 6.283185307179586232 $174 $238 forward 7 unknown #
vertex $-1 $135 $239 #
ellipse-curve $-1 1.40999999999999992 0.4060000000000000275 0.5 0 0 1 0.1285000000000000031 0 0 1 I I #
point $-1 1.47249999999999992 0 0.5 #
coedge $-1 $185 $185 $240 $241 forward $139 $-1 #
coedge $-1 $186 $186 $140 $187 forward $242 $-1 #
edge $-1 $243 0 $243 6.283185307179586232 $186 $244 forward 7 unknown #
loop $-1 $-1 $141 $176 #
vertex $-1 $142 $245 #
ellipse-curve $-1 2.660000000000000142 0 0 0 0 -1 0.203125 0 0 1 I I #
coedge $-1 $246 $247 $143 $192 reversed $248 $-1 #
edge $-1 $196 -2.000000000000004441 $201 0 $191 $249 forward 7 unknown #
coedge $-1 $250 $144 $149 $205 reversed $195 $-1 #
coedge $-1 $144 $250 $246 $251 forward $195 $-1 #
loop $-1 $-1 $144 $252 #
vertex $-1 $251 $253 #
ellipse-curve $-1 -1.272788370481690023 0.2604722665003960103 0 0 0 1 -0.04341204441673499753 0.2462019382530520051 0 1 I I #
coedge $-1 $254 $146 $247 $255 reversed $200 $-1 #
coedge $-1 $146 $254 $148 $204 forward $200 $-1 #
loop $-1 $-1 $146 $256 #
vertex $-1 $255 $257 #
ellipse-curve $-1 -3.242403876506100069 -0.08682408883346499906 0 0 0 1 0.0434120444167312991 -0.2462019382530520051 0 1 I I #
coedge $-1 $149 $148 $234 $258 forward $150 $-1 #
edge $-1 $259 -0.5 $151 0 $199 $260 forward 7 unknown #
edge $-1 $261 -0.5 $152 0 $193 $262 forward 7 unknown #
face $-1 $256 $150 $3 $-1 $263 forward single #
point $-1 -3.198991832089370213 -0.333026027086517018 0 #
point $-1 -1.229376326064959946 0.01427032824734300077 0 #
coedge $-1 $264 $154 $157 $214 reversed $211 $-1 #
coedge $-1 $154 $264 $161 $218 forward $211 $-1 #
loop $-1 $-1 $154 $225 #
straight-curve $-1 3 -0.75 0 0 -1 0 I I #
coedge $-1 $157 $156 $236 $265 forward $158 $-1 #
edge $-1 $266 -0.5 $159 0 $157 $267 forward 7 unknown #
face $-1 $206 $158 $3 $-1 $268 forward single #
point $-1 3 0.75 0 #
coedge $-1 $162 $161 $235 $269 forward $163 $-1 #
edge $-1 $270 -0.5 $164 0 $210 $271 forward 7 unknown #
point $-1 3 -0.75 0 #
edge $-1 $221 -3.141592653589793116 $223 0 $166 $272 forward 7 unknown #
vertex $-1 $167 $273 #
straight-curve $-1 -4.25 -0.75 0 0 0 -1 I I #
vertex $-1 $168 $274 #
straight-curve $-1 -4.25 0.75 0 0 0 -1 I I #
face $-1 $215 $211 $3 $-1 $275 forward single #
plane-surface $-1 -4.25 -0.75 0 0 -1 0 0 0 -1 forward_v I I I I #
coedge $-1 $227 $227 $276 $277 forward $173 $-1 #
coedge $-1 $228 $228 $175 $229 reversed $278 $-1 #
edge $-1 $279 -3.141592653589793116 $279 3.141592653589793116 $228 $280 forward 7 unknown #
face $-1 $281 $282 $3 $-1 $283 reversed single #
loop $-1 $188 $284 $176 #
cone-surface $-1 2.660000000000000142 0 0 0 0 1 0.203125 0 0 1 I I 0 1 0.203125 forward I I I I #
coedge $-1 $233 $233 $284 $285 forward $177 $-1 #
coedge $-1 $286 $287 $203 $258 reversed $179 $-1 #
coedge $-1 $288 $180 $217 $269 reversed $133 $-1 #
coedge $-1 $180 $288 $213 $265 reversed $133 $-1 #
vertex $-1 $181 $289 #
ellipse-curve $-1 1.40999999999999992 -0.4060000000000000275 0.5 0 0 1 0.1285000000000000031 0 0 1 I I #
point $-1 1.538499999999999979 0.4060000000000000275 0.5 #
coedge $-1 $240 $240 $185 $241 reversed $290 $-1 #
edge $-1 $291 -3.141592653589793116 $291 3.141592653589793116 $240 $292 forward 7 unknown #
loop $-1 $-1 $186 $281 #
vertex $-1 $187 $293 #
ellipse-curve $-1 1.40999999999999992 0.4060000000000000275 0 0 0 -1 0.203125 0 0 1 I I #
point $-1 2.863125000000000142 0 0 #
coedge $-1 $294 $191 $194 $251 reversed $248 $-1 #
coedge $-1 $191 $294 $198 $255 forward $248 $-1 #
loop $-1 $-1 $191 $295 #
straight-curve $-1 -3.285815920922840139 0.1593778494195869921 0 -0.9848077530122080203 -0.1736481776669299981 0 I I #
coedge $-1 $194 $193 $287 $296 forward $195 $-1 #
edge $-1 $297 -0.5 $196 0 $194 $298 forward 7 unknown #
face $-1 $131 $195 $3 $-1 $299 reversed single #
point $-1 -1.316200414898420101 0.5066742047534470439 0 #
coedge $-1 $199 $198 $286 $300 forward $200 $-1 #
edge $-1 $301 -0.5 $201 0 $247 $302 forward 7 unknown #
face $-1 $295 $200 $3 $-1 $303 reversed single #
point $-1 -3.285815920922840139 0.1593778494195869921 0 #
edge $-1 $259 -1.999999999999994227 $261 0 $203 $304 forward 7 unknown #
vertex $-1 $204 $305 #
straight-curve $-1 -3.198991832089370213 -0.333026027086517018 0 0 0 -1 I I #
vertex $-1 $205 $306 #
straight-curve $-1 -1.229376326064959946 0.01427032824734300077 0 0 0 -1 I I #
plane-surface $-1 -1.229376326064959946 0.01427032824734300077 0 -0.1736481776669300259 0.9848077530122081313 0 0 0 1 forward_v I I I I #
coedge $-1 $210 $209 $288 $307 forward $211 $-1 #
edge $-1 $223 -7.25 $266 0 $213 $308 forward 7 unknown #
vertex $-1 $214 $309 #
straight-curve $-1 3 0.75 0 0 0 -1 I I #
plane-surface $-1 3 0.75 0 0 1 0 0 0 1 forward_v I I I I #
edge $-1 $270 -7.25 $221 0 $217 $310 forward 7 unknown #
vertex $-1 $218 $311 #
straight-curve $-1 3 -0.75 0 0 0 -1 I I #
ellipse-curve $-1 -4.25 0 0.5 0 0 -1 0 0.75 0 1 I I #
point $-1 -4.25 -0.75 0.5 #
point $-1 -4.25 0.75 0.5 #
plane-surface $-1 3 -0.75 0 1 0 0 0 0 -1 forward_v I I I I #
coedge $-1 $276 $276 $227 $277 reversed $312 $-1 #
edge $-1 $313 -3.141592653589793116 $313 3.141592653589793116 $276 $314 forward 7 unknown #
loop $-1 $-1 $228 $230 #
vertex $-1 $229 $315 #
ellipse-curve $-1 1.40999999999999992 0.4060000000000000275 0.25 0 0 -1 0.1285000000000000031 0 0 1 I I #
face $-1 $316 $317 $3 $-1 $318 reversed single #
loop $-1 $278 $319 $230 #
plane-surface $-1 1.40999999999999992 0.4060000000000000275 0.25 0 0 1 1 0 0 forward_v I I I I #
coedge $-1 $284 $284 $233 $285 reversed $231 $-1 #
edge $-1 $320 -3.141592653589793116 $320 3.141592653589793116 $284 $321 forward 7 unknown #
coedge $-1 $322 $234 $254 $300 reversed $179 $-1 #
coedge $-1 $234 $322 $250 $296 reversed $179 $-1 #
coedge $-1 $236 $235 $264 $307 reversed $133 $-1 #
point $-1 1.538499999999999979 -0.4060000000000000275 0.5 #
loop $-1 $-1 $240 $323 #
vertex $-1 $241 $324 #
ellipse-curve $-1 1.40999999999999992 -0.4060000000000000275 0 0 0 1 -0.203125 0 0 1 I I #
point $-1 1.61312499999999992 0.4060000000000000275 0 #
coedge $-1 $247 $246 $322 $325 forward $248 $-1 #
face $-1 $252 $248 $3 $-1 $326 forward single #
edge $-1 $261 -3.1415926535898131 $297 -1.870725796493396028e-14 $250 $327 forward 7 unknown #
vertex $-1 $251 $328 #
straight-curve $-1 -1.316200414898420101 0.5066742047534470439 0 0 -8.881784197001250351e-16 -1 I I #
cone-surface $-1 -1.272788370481690023 0.2604722665003960103 0 0 0 1 0.25 0 0 1 I I 0 1 0.25 forward I I I I #
edge $-1 $301 -3.141592653589758033 $259 -5.71764857681957196e-15 $254 $329 forward 7 unknown #
vertex $-1 $255 $330 #
straight-curve $-1 -3.285815920922840139 0.1593778494195869921 0 -8.881784197001250351e-16 1.443289932012699953e-15 -1 I I #
cone-surface $-1 -3.242403876506100069 -0.08682408883346499906 0 0 0 1 0.25 0 0 1 I I 0 1 0.25 forward I I I I #
straight-curve $-1 -1.229376326064959946 0.01427032824734300077 0.5 0.9848077530122080203 0.1736481776669299981 0 I I #
point $-1 -3.198991832089370213 -0.333026027086517018 0.5 #
point $-1 -1.229376326064959946 0.01427032824734300077 0.5 #
edge $-1 $266 -1.5 $270 0 $264 $331 forward 7 unknown #
straight-curve $-1 3 0.75 0.5 1 0 0 I I #
point $-1 3 0.75 0.5 #
straight-curve $-1 -4.25 -0.75 0.5 -1 0 0 I I #
point $-1 3 -0.75 0.5 #
loop $-1 $-1 $276 $316 #
vertex $-1 $277 $332 #
ellipse-curve $-1 1.40999999999999992 -0.4060000000000000275 0.25 0 0 -1 0.1285000000000000031 0 0 1 I I #
point $-1 1.281500000000000083 0.4060000000000000275 0.25 #
face $-1 $323 $333 $3 $-1 $334 forward single #
loop $-1 $242 $335 $281 #
cone-surface $-1 1.40999999999999992 0.4060000000000000275 0 0 0 1 0.203125 0 0 1 I I 0 1 0.203125 forward I I I I #
coedge $-1 $319 $319 $335 $336 forward $282 $-1 #
vertex $-1 $285 $337 #
ellipse-curve $-1 2.660000000000000142 0 0.25 0 0 -1 -0.203125 0 0 1 I I #
coedge $-1 $287 $286 $294 $325 reversed $179 $-1 #
face $-1 $-1 $338 $3 $-1 $339 reversed single #
point $-1 1.61312499999999992 -0.4060000000000000275 0 #
edge $-1 $297 -2.000000000000003997 $301 0 $294 $340 forward 7 unknown #
plane-surface $-1 -3.285815920922840139 0.1593778494195859929 0 0.1736481776669309973 -0.9848077530122080203 0 0 0 -1 forward_v I I I I #
ellipse-curve $-1 -1.272788370481690023 0.2604722665003960103 0.5 0 0 1 -0.04341204441673499753 0.2462019382530520051 0 1 I I #
point $-1 -1.316200414898420101 0.5066742047534470439 0.5 #
ellipse-curve $-1 -3.242403876506100069 -0.08682408883346499906 0.5 0 0 1 0.0434120444167312991 -0.2462019382530520051 0 1 I I #
point $-1 -3.285815920922840139 0.1593778494195859929 0.5 #
straight-curve $-1 3 -0.75 0.5 0 -1 0 I I #
point $-1 1.281500000000000083 -0.4060000000000000275 0.25 #
loop $-1 $312 $341 $316 #
plane-surface $-1 1.40999999999999992 -0.4060000000000000275 0.25 0 0 -1 -1 0 0 forward_v I I I I #
coedge $-1 $335 $335 $319 $336 reversed $317 $-1 #
edge $-1 $342 -3.141592653589793116 $342 3.141592653589793116 $335 $343 forward 7 unknown #
point $-1 2.863125000000000142 0 0.25 #
loop $-1 $290 $344 $323 #
cone-surface $-1 1.40999999999999992 -0.4060000000000000275 0 0 0 -1 0.203125 0 0 1 I I 0 1 0.203125 forward I I I I #
straight-curve $-1 -3.285815920922840139 0.1593778494195859929 0.5 -0.9848077530122080203 -0.1736481776669309973 0 I I #
coedge $-1 $341 $341 $344 $345 reversed $333 $-1 #
vertex $-1 $336 $346 #
ellipse-curve $-1 1.40999999999999992 0.4060000000000000275 0.25 0 0 -1 -0.203125 0 0 1 I I #
coedge $-1 $344 $344 $341 $345 forward $338 $-1 #
edge $-1 $347 0 $347 6.283185307179586232 $344 $348 forward 7 unknown #
point $-1 1.61312499999999992 0.4060000000000000275 0.25 #
vertex $-1 $345 $349 #
ellipse-curve $-1 1.40999999999999992 -0.4060000000000000275 0.25 0 0 1 0.203125 0 0 1 I I #
point $-1 1.61312499999999992 -0.4060000000000000275 0.25 #
End-of-ACIS-data 