600 0 2 0           
24 FBMach with ACIS - 6.0.3 13 ACIS 6.0.3 NT 24 Wed May 23 12:25:52 2001 
1 9.9999999999999995e-007 1e-010 
body $2 $3 $-1 $4 #
bdycol-kcp $-1 1 13 $5 $6 $7 $8 $9 $10 $11 $12 $13 $14 $15 $16 $17 #
model_id-kcp-attrib $-1 $-1 $-1 $0 1 990635151 80 -1102053375 1 #
lump $-1 $-1 $18 $0 #
transform $-1 1 0 0 0 1 0 0 0 1 0 0 0 1 no_rotate no_reflect no_shear #
body $19 $20 $-1 $21 #
body $22 $23 $-1 $24 #
body $25 $26 $-1 $27 #
body $28 $29 $-1 $30 #
body $31 $32 $-1 $33 #
body $34 $35 $-1 $36 #
body $37 $38 $-1 $39 #
body $40 $41 $-1 $42 #
body $43 $44 $-1 $45 #
body $46 $47 $-1 $48 #
body $49 $50 $-1 $51 #
body $52 $53 $-1 $54 #
body $55 $56 $-1 $57 #
shell $-1 $-1 $-1 $58 $-1 $3 #
model_id-kcp-attrib $-1 $-1 $-1 $5 1 990635151 90 -1101398014 1 #
lump $-1 $-1 $59 $5 #
transform $-1 1 0 0 0 1 0 0 0 1 -1 0 0.25 1 no_rotate no_reflect no_shear #
rgb_color-st-attrib $-1 $60 $-1 $6 0.5 1 1 #
lump $-1 $-1 $61 $6 #
transform $-1 1 0 0 0 1 0 0 0 1 -4.25 0 0.25 1 no_rotate no_reflect no_shear #
rgb_color-st-attrib $-1 $62 $-1 $7 0.5 1 1 #
lump $-1 $-1 $63 $7 #
transform $-1 1 0 0 0 1 0 0 0 1 2.6600000000000001 0 0.375 1 no_rotate no_reflect no_shear #
rgb_color-st-attrib $-1 $64 $-1 $8 0.5 1 1 #
lump $-1 $-1 $65 $8 #
transform $-1 1 0 0 0 1 0 0 0 1 2.25 0 0.25 1 no_rotate no_reflect no_shear #
rgb_color-st-attrib $-1 $66 $-1 $9 0.5 1 1 #
lump $-1 $-1 $67 $9 #
transform $-1 1 0 0 0 1 0 0 0 1 0 0 0.25 1 no_rotate no_reflect no_shear #
rgb_color-st-attrib $-1 $68 $-1 $10 0.5 1 1 #
lump $-1 $-1 $69 $10 #
transform $-1 1 0 0 0 1 0 0 0 1 1.4099999999999999 0 0.25 1 no_rotate no_reflect no_shear #
rgb_color-st-attrib $-1 $70 $-1 $11 0.5 1 1 #
lump $-1 $-1 $71 $11 #
transform $-1 1 0 0 0 1 0 0 0 1 1.4099999999999999 0.40600000000000003 0.375 1 no_rotate no_reflect no_shear #
rgb_color-st-attrib $-1 $72 $-1 $12 0.5 1 1 #
lump $-1 $-1 $73 $12 #
transform $-1 1 0 0 0 1 0 0 0 1 1.4099999999999999 -0.40600000000000003 0.375 1 no_rotate no_reflect no_shear #
rgb_color-st-attrib $-1 $74 $-1 $13 0.5 1 1 #
lump $-1 $-1 $75 $13 #
transform $-1 1 0 0 0 1 0 0 0 1 2.6600000000000001 0 0.125 1 no_rotate no_reflect no_shear #
rgb_color-st-attrib $-1 $76 $-1 $14 0.5 1 1 #
lump $-1 $-1 $77 $14 #
transform $-1 1 0 0 0 1 0 0 0 1 1.4099999999999999 0.40600000000000003 0.125 1 no_rotate no_reflect no_shear #
rgb_color-st-attrib $-1 $78 $-1 $15 0.5 1 1 #
lump $-1 $-1 $79 $15 #
transform $-1 -1 0 -1.2246063538223773e-016 0 1 0 1.2246063538223773e-016 0 -1 1.4099999999999999 -0.40600000000000003 0.125 1 rotate no_reflect no_shear #
rgb_color-st-attrib $-1 $80 $-1 $16 0.5 1 1 #
lump $-1 $-1 $81 $16 #
transform $-1 1 0 0 0 1 0 0 0 1 -1 0 0.25 1 no_rotate no_reflect no_shear #
rgb_color-st-attrib $-1 $82 $-1 $17 0.5 1 1 #
lump $-1 $-1 $83 $17 #
transform $-1 1 0 0 0 1 0 0 0 1 0 0 0 1 no_rotate no_reflect no_shear #
face $84 $85 $86 $18 $-1 $87 reversed single #
shell $-1 $-1 $-1 $88 $-1 $20 #
model_id-kcp-attrib $-1 $-1 $22 $6 1 990635151 270 -1106378749 1 #
shell $-1 $-1 $-1 $89 $-1 $23 #
model_id-kcp-attrib $-1 $-1 $25 $7 1 990635151 270 -1106378748 1 #
shell $-1 $-1 $-1 $90 $-1 $26 #
model_id-kcp-attrib $-1 $-1 $28 $8 1 990635151 280 -1105723387 1 #
shell $-1 $-1 $-1 $91 $-1 $29 #
model_id-kcp-attrib $-1 $-1 $31 $9 1 990635151 280 -1105723386 1 #
shell $-1 $-1 $-1 $92 $-1 $32 #
model_id-kcp-attrib $-1 $-1 $34 $10 1 990635151 280 -1105723385 1 #
shell $-1 $-1 $-1 $93 $-1 $35 #
model_id-kcp-attrib $-1 $-1 $37 $11 1 990635151 290 -1105068024 1 #
shell $-1 $-1 $-1 $94 $-1 $38 #
model_id-kcp-attrib $-1 $-1 $40 $12 1 990635151 290 -1105068023 1 #
shell $-1 $-1 $-1 $95 $-1 $41 #
model_id-kcp-attrib $-1 $-1 $43 $13 1 990635151 290 -1105068022 1 #
shell $-1 $-1 $-1 $96 $-1 $44 #
model_id-kcp-attrib $-1 $-1 $46 $14 1 990635151 300 -1104412661 1 #
shell $-1 $-1 $-1 $97 $-1 $47 #
model_id-kcp-attrib $-1 $-1 $49 $15 1 990635151 300 -1104412660 1 #
shell $-1 $-1 $-1 $98 $-1 $50 #
model_id-kcp-attrib $-1 $-1 $52 $16 1 990635151 560 -1104150515 1 #
shell $-1 $-1 $-1 $99 $-1 $53 #
model_id-kcp-attrib $-1 $-1 $55 $17 1 990635151 610 -1100873714 1 #
shell $-1 $-1 $-1 $100 $-1 $56 #
model_id-kcp-attrib $-1 $101 $-1 $58 1 990635151 80 -1102053375 25 #
face $102 $103 $104 $18 $-1 $105 forward single #
loop $106 $107 $108 $58 #
plane-surface $-1 0 0 0 0 0 1 1 0 0 forward_v I I I I #
face $109 $110 $111 $59 $-1 $112 forward single #
face $-1 $113 $114 $61 $-1 $115 forward single #
face $-1 $116 $117 $63 $-1 $118 forward single #
face $-1 $119 $120 $65 $-1 $121 forward single #
face $-1 $122 $123 $67 $-1 $124 forward single #
face $-1 $125 $126 $69 $-1 $127 forward single #
face $-1 $128 $129 $71 $-1 $130 forward single #
face $-1 $131 $132 $73 $-1 $133 forward single #
face $-1 $134 $135 $75 $-1 $136 forward single #
face $-1 $137 $138 $77 $-1 $139 forward single #
face $-1 $140 $141 $79 $-1 $142 forward single #
face $-1 $143 $144 $81 $-1 $145 reversed single #
face $-1 $146 $147 $83 $-1 $148 forward single #
model_id-kcp-attrib $-1 $-1 $84 $58 1 990635151 80 -1102053375 2 #
model_id-kcp-attrib $-1 $149 $-1 $85 1 990635151 80 -1102053375 71 #
face $150 $151 $152 $18 $-1 $153 reversed single #
loop $154 $155 $156 $85 #
plane-surface $-1 0 0 0.5 0 0 1 1 0 0 forward_v I I I I #
model_id-kcp-attrib $-1 $-1 $-1 $86 1 990635151 80 -1102053375 33 #
loop $157 $158 $159 $58 #
coedge $-1 $108 $108 $160 $161 forward $86 $-1 #
model_id-kcp-attrib $-1 $-1 $-1 $88 1 990635151 90 -1101398014 3 #
face $162 $163 $164 $59 $-1 $165 reversed single #
loop $-1 $-1 $166 $88 #
plane-surface $-1 0 0 0.25 0 0 1 1 0 0 forward_v I I I I #
face $-1 $167 $168 $61 $-1 $169 forward single #
loop $-1 $170 $171 $89 #
cone-surface $-1 0 0 0 0 0 1 0.4375 0 0 1 I I 0 1 0.4375 forward I I I I #
face $-1 $172 $173 $63 $-1 $174 forward single #
loop $-1 $175 $176 $90 #
cone-surface $-1 0 0 0 0 0 1 0.1285 0 0 1 I I 0 1 0.1285 forward I I I I #
face $-1 $177 $178 $65 $-1 $179 forward single #
loop $-1 $180 $181 $91 #
cone-surface $-1 0 0 0 0 0 1 0.0625 0 0 1 I I 0 1 0.0625 forward I I I I #
face $-1 $182 $183 $67 $-1 $184 forward single #
loop $-1 $185 $186 $92 #
cone-surface $-1 0 0 0 0 0 1 0.2185 0 0 1 I I 0 1 0.2185 forward I I I I #
face $-1 $187 $188 $69 $-1 $189 forward single #
loop $-1 $190 $191 $93 #
cone-surface $-1 0 0 0 0 0 1 0.0625 0 0 1 I I 0 1 0.0625 forward I I I I #
face $-1 $192 $193 $71 $-1 $194 forward single #
loop $-1 $195 $196 $94 #
cone-surface $-1 0 0 0 0 0 1 0.1285 0 0 1 I I 0 1 0.1285 forward I I I I #
face $-1 $197 $198 $73 $-1 $199 forward single #
loop $-1 $200 $201 $95 #
cone-surface $-1 0 0 0 0 0 1 0.1285 0 0 1 I I 0 1 0.1285 forward I I I I #
face $-1 $202 $203 $75 $-1 $204 forward single #
loop $-1 $205 $206 $96 #
cone-surface $-1 0 0 0 0 0 1 0.203125 0 0 1 I I 0 1 0.203125 forward I I I I #
face $-1 $207 $208 $77 $-1 $209 forward single #
loop $-1 $210 $211 $97 #
cone-surface $-1 0 0 0 0 0 1 0.203125 0 0 1 I I 0 1 0.203125 forward I I I I #
face $-1 $212 $213 $79 $-1 $214 forward single #
loop $-1 $215 $216 $98 #
cone-surface $-1 0 0 0 0 0 1 0.203125 0 0 1 I I 0 1 0.203125 forward I I I I #
face $-1 $217 $218 $81 $-1 $145 reversed single #
loop $-1 $-1 $219 $99 #
cone-surface $-1 -3.25 0 -0.25 0 0 -1 0 -0.75 0 1 I I 0 1 0.75 forward I I I I #
face $-1 $220 $221 $83 $-1 $222 forward single #
loop $-1 $-1 $223 $100 #
cone-surface $-1 -3.2424038765061001 -0.086824088833464999 0 0 0 1 0.043412044416731299 -0.24620193825305201 0 1 I I 0 1 0.24999999999999975 forward I I I I #
model_id-kcp-attrib $-1 $224 $102 $85 1 990635151 80 -1102053375 64 #
model_id-kcp-attrib $-1 $-1 $-1 $103 1 990635151 80 -1102053375 4 #
face $225 $226 $227 $18 $-1 $228 reversed single #
loop $229 $230 $231 $103 #
cone-surface $-1 -4.25 0 0 0 0 1 0.4375 0 0 1 I I 0 1 0.4375 forward I I I I #
model_id-kcp-attrib $-1 $-1 $-1 $104 1 990635151 80 -1102053375 32 #
loop $232 $233 $234 $85 #
coedge $-1 $156 $156 $231 $235 reversed $104 $-1 #
model_id-kcp-attrib $-1 $-1 $-1 $107 1 990635151 80 -1102053375 47 #
loop $236 $237 $238 $58 #
coedge $-1 $159 $159 $239 $240 forward $107 $-1 #
coedge $-1 $160 $160 $108 $161 reversed $230 $-1 #
edge $241 $242 -3.1415926535897931 $242 3.1415926535897931 $160 $243 forward 7 unknown #
model_id-kcp-attrib $-1 $-1 $-1 $110 1 990635151 90 -1101398014 2 #
face $244 $245 $246 $59 $-1 $247 reversed single #
loop $-1 $-1 $248 $110 #
plane-surface $-1 0 0 -0.25 0 0 1 1 0 0 forward_v I I I I #
coedge $-1 $249 $250 $251 $252 forward $111 $-1 #
face $-1 $-1 $253 $61 $-1 $254 forward single #
loop $-1 $-1 $255 $113 #
plane-surface $-1 0 0 -0.25 0 0 -1 -1 0 0 forward_v I I I I #
loop $-1 $-1 $256 $89 #
coedge $-1 $171 $171 $255 $257 reversed $114 $-1 #
face $-1 $-1 $258 $63 $-1 $259 forward single #
loop $-1 $-1 $260 $116 #
plane-surface $-1 0 0 -0.125 0 0 -1 -1 0 0 forward_v I I I I #
loop $-1 $-1 $261 $90 #
coedge $-1 $176 $176 $260 $262 reversed $117 $-1 #
face $-1 $-1 $263 $65 $-1 $264 forward single #
loop $-1 $-1 $265 $119 #
plane-surface $-1 0 0 -0.25 0 0 -1 -1 0 0 forward_v I I I I #
loop $-1 $-1 $266 $91 #
coedge $-1 $181 $181 $265 $267 reversed $120 $-1 #
face $-1 $-1 $268 $67 $-1 $269 forward single #
loop $-1 $-1 $270 $122 #
plane-surface $-1 0 0 -0.25 0 0 -1 -1 0 0 forward_v I I I I #
loop $-1 $-1 $271 $92 #
coedge $-1 $186 $186 $270 $272 reversed $123 $-1 #
face $-1 $-1 $273 $69 $-1 $274 forward single #
loop $-1 $-1 $275 $125 #
plane-surface $-1 0 0 -0.25 0 0 -1 -1 0 0 forward_v I I I I #
loop $-1 $-1 $276 $93 #
coedge $-1 $191 $191 $275 $277 reversed $126 $-1 #
face $-1 $-1 $278 $71 $-1 $279 forward single #
loop $-1 $-1 $280 $128 #
plane-surface $-1 0 0 -0.125 0 0 -1 -1 0 0 forward_v I I I I #
loop $-1 $-1 $281 $94 #
coedge $-1 $196 $196 $280 $282 reversed $129 $-1 #
face $-1 $-1 $283 $73 $-1 $284 forward single #
loop $-1 $-1 $285 $131 #
plane-surface $-1 0 0 -0.125 0 0 -1 -1 0 0 forward_v I I I I #
loop $-1 $-1 $286 $95 #
coedge $-1 $201 $201 $285 $287 reversed $132 $-1 #
face $-1 $-1 $288 $75 $-1 $289 forward single #
loop $-1 $-1 $290 $134 #
plane-surface $-1 0 0 -0.125 0 0 -1 -1 0 0 forward_v I I I I #
loop $-1 $-1 $291 $96 #
coedge $-1 $206 $206 $290 $292 reversed $135 $-1 #
face $-1 $-1 $293 $77 $-1 $294 forward single #
loop $-1 $-1 $295 $137 #
plane-surface $-1 0 0 -0.125 0 0 -1 -1 0 0 forward_v I I I I #
loop $-1 $-1 $296 $97 #
coedge $-1 $211 $211 $295 $297 reversed $138 $-1 #
face $-1 $-1 $298 $79 $-1 $299 forward single #
loop $-1 $-1 $300 $140 #
plane-surface $-1 0 0 -0.12500000000000003 0 0 -1 -1 0 0 forward_v I I I I #
loop $-1 $-1 $301 $98 #
coedge $-1 $216 $216 $300 $302 reversed $141 $-1 #
face $-1 $303 $304 $81 $-1 $305 reversed single #
loop $-1 $-1 $306 $143 #
coedge $-1 $307 $308 $309 $310 reversed $144 $-1 #
face $-1 $311 $312 $83 $-1 $313 forward single #
loop $-1 $-1 $314 $146 #
plane-surface $-1 -3.2858159209228401 0.15937784941958699 0 -0.17364817766693003 0.98480775301220813 0 0 0 1 forward_v I I I I #
coedge $-1 $315 $316 $317 $318 forward $147 $-1 #
model_id-kcp-attrib $-1 $319 $149 $85 1 990635151 80 -1102053375 57 #
model_id-kcp-attrib $-1 $-1 $-1 $151 1 990635151 80 -1102053375 5 #
face $320 $321 $322 $18 $-1 $323 reversed single #
loop $324 $325 $326 $151 #
cone-surface $-1 2.6600000000000001 0 0 0 0 1 0.1285 0 0 1 I I 0 1 0.1285 forward I I I I #
model_id-kcp-attrib $-1 $-1 $-1 $152 1 990635151 80 -1102053375 30 #
loop $327 $-1 $160 $103 #
coedge $-1 $231 $231 $156 $235 forward $152 $-1 #
model_id-kcp-attrib $-1 $-1 $-1 $155 1 990635151 80 -1102053375 39 #
loop $328 $329 $330 $85 #
coedge $-1 $234 $234 $326 $331 reversed $155 $-1 #
edge $332 $333 0 $333 6.2831853071795862 $231 $334 forward 7 unknown #
model_id-kcp-attrib $-1 $-1 $-1 $158 1 990635151 80 -1102053375 54 #
loop $335 $336 $337 $58 #
coedge $-1 $238 $238 $338 $339 forward $158 $-1 #
coedge $-1 $239 $239 $159 $240 reversed $340 $-1 #
edge $341 $342 -3.1415926535897931 $342 3.1415926535897931 $239 $343 forward 7 unknown #
attrib_edge_convexity-kcp-attrib $-1 $344 $-1 $161 1 #
vertex $345 $161 $346 #
ellipse-curve $-1 -4.25 0 0 0 0 1 -0.4375 0 0 1 I I #
model_id-kcp-attrib $-1 $-1 $-1 $163 1 990635151 90 -1101398014 4 #
face $-1 $347 $348 $59 $-1 $349 reversed single #
loop $-1 $-1 $350 $163 #
plane-surface $-1 0 -0.75 0 0 1 0 0 0 1 forward_v I I I I #
coedge $-1 $351 $352 $353 $354 forward $164 $-1 #
coedge $-1 $355 $166 $356 $357 forward $111 $-1 #
coedge $-1 $166 $355 $358 $359 forward $111 $-1 #
coedge $-1 $360 $361 $166 $252 reversed $362 $-1 #
edge $-1 $363 -0.75 $364 0.75 $251 $365 forward 7 unknown #
loop $-1 $-1 $366 $167 #
plane-surface $-1 0 0 0.25 0 0 1 1 0 0 forward_v I I I I #
coedge $-1 $255 $255 $171 $257 forward $168 $-1 #
coedge $-1 $256 $256 $366 $367 reversed $170 $-1 #
edge $-1 $368 0 $368 6.2831853071795862 $255 $369 forward 7 unknown #
loop $-1 $-1 $370 $172 #
plane-surface $-1 0 0 0.125 0 0 1 1 0 0 forward_v I I I I #
coedge $-1 $260 $260 $176 $262 forward $173 $-1 #
coedge $-1 $261 $261 $370 $371 reversed $175 $-1 #
edge $-1 $372 0 $372 6.2831853071795862 $260 $373 forward 7 unknown #
loop $-1 $-1 $374 $177 #
plane-surface $-1 0 0 0.25 0 0 1 1 0 0 forward_v I I I I #
coedge $-1 $265 $265 $181 $267 forward $178 $-1 #
coedge $-1 $266 $266 $374 $375 reversed $180 $-1 #
edge $-1 $376 0 $376 6.2831853071795862 $265 $377 forward 7 unknown #
loop $-1 $-1 $378 $182 #
plane-surface $-1 0 0 0.25 0 0 1 1 0 0 forward_v I I I I #
coedge $-1 $270 $270 $186 $272 forward $183 $-1 #
coedge $-1 $271 $271 $378 $379 reversed $185 $-1 #
edge $-1 $380 0 $380 6.2831853071795862 $270 $381 forward 7 unknown #
loop $-1 $-1 $382 $187 #
plane-surface $-1 0 0 0.25 0 0 1 1 0 0 forward_v I I I I #
coedge $-1 $275 $275 $191 $277 forward $188 $-1 #
coedge $-1 $276 $276 $382 $383 reversed $190 $-1 #
edge $-1 $384 0 $384 6.2831853071795862 $275 $385 forward 7 unknown #
loop $-1 $-1 $386 $192 #
plane-surface $-1 0 0 0.125 0 0 1 1 0 0 forward_v I I I I #
coedge $-1 $280 $280 $196 $282 forward $193 $-1 #
coedge $-1 $281 $281 $386 $387 reversed $195 $-1 #
edge $-1 $388 0 $388 6.2831853071795862 $280 $389 forward 7 unknown #
loop $-1 $-1 $390 $197 #
plane-surface $-1 0 0 0.125 0 0 1 1 0 0 forward_v I I I I #
coedge $-1 $285 $285 $201 $287 forward $198 $-1 #
coedge $-1 $286 $286 $390 $391 reversed $200 $-1 #
edge $-1 $392 0 $392 6.2831853071795862 $285 $393 forward 7 unknown #
loop $-1 $-1 $394 $202 #
plane-surface $-1 0 0 0.125 0 0 1 1 0 0 forward_v I I I I #
coedge $-1 $290 $290 $206 $292 forward $203 $-1 #
coedge $-1 $291 $291 $394 $395 reversed $205 $-1 #
edge $-1 $396 0 $396 6.2831853071795862 $290 $397 forward 7 unknown #
loop $-1 $-1 $398 $207 #
plane-surface $-1 0 0 0.125 0 0 1 1 0 0 forward_v I I I I #
coedge $-1 $295 $295 $211 $297 forward $208 $-1 #
coedge $-1 $296 $296 $398 $399 reversed $210 $-1 #
edge $-1 $400 0 $400 6.2831853071795862 $295 $401 forward 7 unknown #
loop $-1 $-1 $402 $212 #
plane-surface $-1 0 0 0.12500000000000003 0 0 1 1 0 0 forward_v I I I I #
coedge $-1 $300 $300 $216 $302 forward $213 $-1 #
coedge $-1 $301 $301 $402 $403 reversed $215 $-1 #
edge $-1 $404 0 $404 6.2831853071795862 $300 $405 forward 7 unknown #
face $-1 $406 $407 $81 $-1 $408 forward single #
loop $-1 $-1 $409 $217 #
plane-surface $-1 -4 0 0 1 0 0 0 0 -1 forward_v I I I I #
coedge $-1 $410 $411 $412 $413 reversed $218 $-1 #
coedge $-1 $414 $219 $411 $415 forward $144 $-1 #
coedge $-1 $219 $414 $416 $417 reversed $144 $-1 #
coedge $-1 $418 $419 $219 $310 forward $407 $-1 #
edge $-1 $420 1.5707963267948966 $421 3.1415926535897931 $309 $422 forward 7 unknown #
face $-1 $423 $424 $83 $-1 $425 forward single #
loop $-1 $-1 $426 $220 #
cone-surface $-1 -1.27278837048169 0.26047226650039601 0 0 0 1 -0.043412044416734998 0.24620193825305201 0 1 I I 0 1 0.25000000000000039 forward I I I I #
coedge $-1 $427 $428 $429 $430 forward $221 $-1 #
coedge $-1 $431 $223 $428 $432 reversed $147 $-1 #
coedge $-1 $223 $431 $433 $434 forward $147 $-1 #
coedge $-1 $435 $429 $223 $318 reversed $436 $-1 #
edge $-1 $437 5.717648576819572e-015 $438 3.1415926535897585 $223 $439 forward 7 unknown #
model_id-kcp-attrib $-1 $440 $224 $85 1 990635151 80 -1102053375 50 #
model_id-kcp-attrib $-1 $-1 $-1 $226 1 990635151 80 -1102053375 6 #
face $441 $442 $443 $18 $-1 $444 reversed single #
loop $445 $340 $446 $226 #
cone-surface $-1 2.25 0 0 0 0 1 0.0625 0 0 1 I I 0 1 0.0625 forward I I I I #
model_id-kcp-attrib $-1 $-1 $-1 $227 1 990635151 80 -1102053375 37 #
loop $447 $-1 $448 $151 #
coedge $-1 $326 $326 $234 $331 forward $227 $-1 #
model_id-kcp-attrib $-1 $-1 $-1 $230 1 990635151 80 -1102053375 31 #
model_id-kcp-attrib $-1 $-1 $-1 $233 1 990635151 80 -1102053375 46 #
loop $449 $450 $451 $85 #
coedge $-1 $330 $330 $446 $452 reversed $233 $-1 #
edge $453 $454 0 $454 6.2831853071795862 $326 $455 forward 7 unknown #
attrib_edge_convexity-kcp-attrib $-1 $456 $-1 $235 1 #
vertex $457 $235 $458 #
ellipse-curve $-1 -4.25 0 0.5 0 0 1 0.4375 0 0 1 I I #
model_id-kcp-attrib $-1 $-1 $-1 $237 1 990635151 80 -1102053375 61 #
loop $-1 $459 $460 $58 #
coedge $-1 $337 $337 $461 $462 forward $237 $-1 #
coedge $-1 $338 $338 $238 $339 reversed $463 $-1 #
edge $464 $465 -3.1415926535897931 $465 3.1415926535897931 $338 $466 forward 7 unknown #
loop $467 $-1 $239 $226 #
attrib_edge_convexity-kcp-attrib $-1 $468 $-1 $240 1 #
vertex $469 $240 $470 #
ellipse-curve $-1 2.25 0 0 0 0 1 -0.0625 0 0 1 I I #
convexity-sys-attrib $-1 $-1 $241 $161 #
model_id-kcp-attrib $-1 $-1 $-1 $242 1 990635151 80 -1102053375 35 #
point $-1 -3.8125 0 0 #
face $471 $472 $473 $59 $-1 $474 reversed single #
loop $-1 $-1 $475 $245 #
plane-surface $-1 -4 0 0 1 0 0 0 0 -1 forward_v I I I I #
coedge $-1 $476 $358 $477 $478 forward $246 $-1 #
coedge $-1 $479 $248 $476 $480 forward $164 $-1 #
coedge $-1 $248 $479 $481 $482 forward $164 $-1 #
coedge $-1 $361 $360 $248 $354 reversed $362 $-1 #
edge $-1 $483 -0.75 $484 0.75 $353 $485 forward 7 unknown #
coedge $-1 $250 $249 $486 $487 forward $111 $-1 #
coedge $-1 $488 $489 $249 $357 reversed $473 $-1 #
edge $-1 $364 -4 $490 4 $356 $491 forward 7 unknown #
coedge $-1 $350 $492 $250 $359 reversed $246 $-1 #
edge $-1 $493 -4 $363 4 $358 $494 forward 7 unknown #
coedge $-1 $353 $251 $492 $495 forward $362 $-1 #
coedge $-1 $251 $353 $488 $496 reversed $362 $-1 #
loop $-1 $-1 $360 $472 #
vertex $-1 $252 $497 #
vertex $-1 $252 $498 #
straight-curve $-1 4 0 0.25 0 1 0 I I #
coedge $-1 $366 $366 $256 $367 forward $253 $-1 #
edge $-1 $499 0 $499 6.2831853071795862 $366 $500 forward 7 unknown #
vertex $-1 $257 $501 #
ellipse-curve $-1 0 0 -0.25 0 0 -1 0.4375 0 0 1 I I #
coedge $-1 $370 $370 $261 $371 forward $258 $-1 #
edge $-1 $502 0 $502 6.2831853071795862 $370 $503 forward 7 unknown #
vertex $-1 $262 $504 #
ellipse-curve $-1 0 0 -0.125 0 0 -1 0.1285 0 0 1 I I #
coedge $-1 $374 $374 $266 $375 forward $263 $-1 #
edge $-1 $505 0 $505 6.2831853071795862 $374 $506 forward 7 unknown #
vertex $-1 $267 $507 #
ellipse-curve $-1 0 0 -0.25 0 0 -1 0.0625 0 0 1 I I #
coedge $-1 $378 $378 $271 $379 forward $268 $-1 #
edge $-1 $508 0 $508 6.2831853071795862 $378 $509 forward 7 unknown #
vertex $-1 $272 $510 #
ellipse-curve $-1 0 0 -0.25 0 0 -1 0.2185 0 0 1 I I #
coedge $-1 $382 $382 $276 $383 forward $273 $-1 #
edge $-1 $511 0 $511 6.2831853071795862 $382 $512 forward 7 unknown #
vertex $-1 $277 $513 #
ellipse-curve $-1 0 0 -0.25 0 0 -1 0.0625 0 0 1 I I #
coedge $-1 $386 $386 $281 $387 forward $278 $-1 #
edge $-1 $514 0 $514 6.2831853071795862 $386 $515 forward 7 unknown #
vertex $-1 $282 $516 #
ellipse-curve $-1 0 0 -0.125 0 0 -1 0.1285 0 0 1 I I #
coedge $-1 $390 $390 $286 $391 forward $283 $-1 #
edge $-1 $517 0 $517 6.2831853071795862 $390 $518 forward 7 unknown #
vertex $-1 $287 $519 #
ellipse-curve $-1 0 0 -0.125 0 0 -1 0.1285 0 0 1 I I #
coedge $-1 $394 $394 $291 $395 forward $288 $-1 #
edge $-1 $520 0 $520 6.2831853071795862 $394 $521 forward 7 unknown #
vertex $-1 $292 $522 #
ellipse-curve $-1 0 0 -0.125 0 0 -1 0.203125 0 0 1 I I #
coedge $-1 $398 $398 $296 $399 forward $293 $-1 #
edge $-1 $523 0 $523 6.2831853071795862 $398 $524 forward 7 unknown #
vertex $-1 $297 $525 #
ellipse-curve $-1 0 0 -0.125 0 0 -1 0.203125 0 0 1 I I #
coedge $-1 $402 $402 $301 $403 forward $298 $-1 #
edge $-1 $526 0 $526 6.2831853071795862 $402 $527 forward 7 unknown #
vertex $-1 $302 $528 #
ellipse-curve $-1 0 0 -0.12500000000000003 0 0 -1 0.203125 0 0 1 I I #
face $-1 $529 $530 $81 $-1 $408 forward single #
loop $-1 $-1 $309 $303 #
plane-surface $-1 0 0 0.25 0 0 1 1 0 0 forward_v I I I I #
coedge $-1 $531 $532 $533 $415 forward $304 $-1 #
coedge $-1 $534 $306 $535 $536 forward $218 $-1 #
coedge $-1 $306 $534 $409 $415 reversed $218 $-1 #
coedge $-1 $537 $538 $306 $413 forward $530 $-1 #
edge $-1 $539 0 $420 1.5707963267948966 $412 $422 forward 7 unknown #
coedge $-1 $308 $307 $540 $541 reversed $144 $-1 #
edge $-1 $420 -0.5 $542 0 $409 $543 forward 7 unknown #
coedge $-1 $544 $545 $308 $417 forward $546 $-1 #
edge $-1 $421 -0.5 $547 0 $416 $548 forward 7 unknown #
coedge $-1 $419 $309 $545 $549 forward $407 $-1 #
coedge $-1 $309 $418 $550 $551 forward $407 $-1 #
vertex $-1 $552 $553 #
vertex $-1 $549 $554 #
ellipse-curve $-1 -3.25 0 0.25 0 0 -1 0 -0.75 0 1 I I #
face $-1 $555 $436 $83 $-1 $556 forward single #
loop $-1 $-1 $557 $311 #
plane-surface $-1 -1.2293763260649599 0.014270328247342978 0 0.17364817766693003 -0.98480775301220813 0 0 0 -1 forward_v I I I I #
coedge $-1 $558 $559 $560 $561 forward $312 $-1 #
coedge $-1 $562 $314 $559 $563 reversed $221 $-1 #
coedge $-1 $314 $562 $315 $432 forward $221 $-1 #
coedge $-1 $317 $560 $314 $430 reversed $436 $-1 #
edge $-1 $438 0 $564 2.0000000000000044 $314 $565 forward 7 unknown #
coedge $-1 $316 $315 $566 $567 forward $147 $-1 #
edge $-1 $568 0 $438 0.5 $428 $569 forward 7 unknown #
coedge $-1 $570 $557 $316 $434 reversed $424 $-1 #
edge $-1 $571 0 $437 0.5 $316 $572 forward 7 unknown #
coedge $-1 $560 $317 $557 $573 reversed $436 $-1 #
loop $-1 $-1 $317 $423 #
vertex $-1 $434 $574 #
vertex $-1 $432 $575 #
ellipse-curve $-1 -3.2424038765061001 -0.086824088833464999 0.5 0 0 -1 0.043412044416731299 -0.24620193825305201 0 1 I I #
model_id-kcp-attrib $-1 $576 $319 $85 1 990635151 80 -1102053375 43 #
model_id-kcp-attrib $-1 $-1 $-1 $321 1 990635151 80 -1102053375 7 #
face $577 $578 $579 $18 $-1 $580 reversed single #
loop $581 $463 $582 $321 #
cone-surface $-1 0 0 0 0 0 1 0.2185 0 0 1 I I 0 1 0.2185 forward I I I I #
model_id-kcp-attrib $-1 $-1 $-1 $322 1 990635151 80 -1102053375 44 #
coedge $-1 $446 $446 $330 $452 forward $322 $-1 #
model_id-kcp-attrib $-1 $-1 $-1 $325 1 990635151 80 -1102053375 38 #
coedge $-1 $448 $448 $583 $584 forward $325 $-1 #
model_id-kcp-attrib $-1 $-1 $-1 $329 1 990635151 80 -1102053375 53 #
loop $585 $586 $587 $85 #
coedge $-1 $451 $451 $582 $588 reversed $329 $-1 #
edge $589 $590 0 $590 6.2831853071795862 $446 $591 forward 7 unknown #
attrib_edge_convexity-kcp-attrib $-1 $592 $-1 $331 1 #
vertex $593 $331 $594 #
ellipse-curve $-1 2.6600000000000001 0 0.5 0 0 1 0.1285 0 0 1 I I #
convexity-sys-attrib $-1 $-1 $332 $235 #
model_id-kcp-attrib $-1 $-1 $-1 $333 1 990635151 80 -1102053375 34 #
point $-1 -3.8125 0 0.5 #
loop $-1 $595 $596 $58 #
coedge $-1 $597 $598 $599 $600 forward $336 $-1 #
coedge $-1 $461 $461 $337 $462 reversed $601 $-1 #
edge $602 $603 -3.1415926535897931 $603 3.1415926535897931 $461 $604 forward 7 unknown #
loop $605 $-1 $338 $321 #
attrib_edge_convexity-kcp-attrib $-1 $606 $-1 $339 1 #
vertex $607 $339 $608 #
ellipse-curve $-1 0 0 0 0 0 1 -0.2185 0 0 1 I I #
model_id-kcp-attrib $-1 $-1 $-1 $340 1 990635151 80 -1102053375 45 #
convexity-sys-attrib $-1 $-1 $341 $240 #
model_id-kcp-attrib $-1 $-1 $-1 $342 1 990635151 80 -1102053375 49 #
point $-1 2.3125 0 0 #
model_id-kcp-attrib $-1 $-1 $-1 $347 1 990635151 90 -1101398014 6 #
face $609 $-1 $362 $59 $-1 $610 reversed single #
loop $-1 $-1 $488 $347 #
plane-surface $-1 0 0.75 0 0 -1 0 0 0 -1 forward_v I I I I #
coedge $-1 $611 $486 $489 $612 forward $348 $-1 #
coedge $-1 $492 $350 $351 $480 reversed $246 $-1 #
coedge $-1 $486 $611 $350 $478 reversed $348 $-1 #
edge $-1 $493 -0.25 $613 0.25 $477 $614 forward 7 unknown #
coedge $-1 $352 $351 $611 $615 forward $164 $-1 #
edge $-1 $484 -4 $613 4 $476 $616 forward 7 unknown #
coedge $-1 $489 $488 $352 $482 reversed $473 $-1 #
edge $-1 $617 -4 $483 4 $481 $618 forward 7 unknown #
vertex $-1 $354 $619 #
vertex $-1 $495 $620 #
straight-curve $-1 4 0 -0.25 0 -1 0 I I #
coedge $-1 $475 $477 $355 $487 reversed $348 $-1 #
edge $-1 $490 -0.75 $493 0.75 $486 $621 forward 7 unknown #
coedge $-1 $481 $356 $361 $496 forward $473 $-1 #
coedge $-1 $356 $481 $475 $612 reversed $473 $-1 #
vertex $-1 $357 $622 #
straight-curve $-1 0 0.75 0.25 -1 0 0 I I #
coedge $-1 $358 $476 $360 $495 reversed $246 $-1 #
vertex $-1 $487 $623 #
straight-curve $-1 0 -0.75 0.25 1 0 0 I I #
edge $-1 $363 -0.25 $484 0.25 $360 $624 forward 7 unknown #
edge $-1 $364 -0.25 $483 0.25 $361 $625 forward 7 unknown #
point $-1 4 -0.75 0.25 #
point $-1 4 0.75 0.25 #
vertex $-1 $367 $626 #
ellipse-curve $-1 0 0 0.25 0 0 1 0.4375 0 0 1 I I #
point $-1 0.4375 0 -0.25 #
vertex $-1 $371 $627 #
ellipse-curve $-1 0 0 0.125 0 0 1 0.1285 0 0 1 I I #
point $-1 0.1285 0 -0.125 #
vertex $-1 $375 $628 #
ellipse-curve $-1 0 0 0.25 0 0 1 0.0625 0 0 1 I I #
point $-1 0.0625 0 -0.25 #
vertex $-1 $379 $629 #
ellipse-curve $-1 0 0 0.25 0 0 1 0.2185 0 0 1 I I #
point $-1 0.2185 0 -0.25 #
vertex $-1 $383 $630 #
ellipse-curve $-1 0 0 0.25 0 0 1 0.0625 0 0 1 I I #
point $-1 0.0625 0 -0.25 #
vertex $-1 $387 $631 #
ellipse-curve $-1 0 0 0.125 0 0 1 0.1285 0 0 1 I I #
point $-1 0.1285 0 -0.125 #
vertex $-1 $391 $632 #
ellipse-curve $-1 0 0 0.125 0 0 1 0.1285 0 0 1 I I #
point $-1 0.1285 0 -0.125 #
vertex $-1 $395 $633 #
ellipse-curve $-1 0 0 0.125 0 0 1 0.203125 0 0 1 I I #
point $-1 0.203125 0 -0.125 #
vertex $-1 $399 $634 #
ellipse-curve $-1 0 0 0.125 0 0 1 0.203125 0 0 1 I I #
point $-1 0.203125 0 -0.125 #
vertex $-1 $403 $635 #
ellipse-curve $-1 0 0 0.12500000000000003 0 0 1 0.203125 0 0 1 I I #
point $-1 0.203125 0 -0.12500000000000003 #
face $-1 $636 $546 $81 $-1 $637 reversed single #
loop $-1 $-1 $412 $406 #
coedge $-1 $638 $409 $639 $640 reversed $304 $-1 #
coedge $-1 $409 $638 $537 $552 reversed $304 $-1 #
coedge $-1 $550 $641 $307 $415 reversed $642 $-1 #
coedge $-1 $411 $410 $643 $644 reversed $218 $-1 #
coedge $-1 $645 $646 $410 $536 reversed $647 $-1 #
edge $-1 $539 -0.5 $648 0 $535 $649 forward 7 unknown #
coedge $-1 $538 $412 $532 $552 forward $530 $-1 #
coedge $-1 $412 $537 $645 $650 forward $530 $-1 #
vertex $-1 $413 $651 #
coedge $-1 $652 $653 $414 $541 forward $654 $-1 #
edge $-1 $547 -3.1415926535897931 $542 -1.5707963267948966 $540 $655 forward 7 unknown #
vertex $-1 $656 $657 #
straight-curve $-1 -4 0 -0.25 0 0 -1 I I #
coedge $-1 $658 $416 $653 $659 reversed $546 $-1 #
coedge $-1 $416 $658 $418 $549 reversed $546 $-1 #
loop $-1 $-1 $416 $529 #
vertex $-1 $541 $660 #
straight-curve $-1 -3.25 0.75 -0.25 0 0 -1 I I #
edge $-1 $421 3.25 $661 4 $545 $662 forward 7 unknown #
coedge $-1 $663 $533 $419 $551 reversed $642 $-1 #
edge $-1 $661 -0.75 $420 0 $550 $664 forward 7 unknown #
edge $-1 $420 0 $665 0.75 $532 $664 forward 7 unknown #
point $-1 -4 0 0.25 #
point $-1 -3.25 0.75 0.25 #
face $-1 $-1 $666 $83 $-1 $667 reversed single #
plane-surface $-1 -2.2575961234938946 0.086824088833465887 0.5 0 0 1 1 0 0 forward_v I I I I #
coedge $-1 $433 $668 $435 $573 forward $424 $-1 #
coedge $-1 $669 $426 $668 $670 reversed $312 $-1 #
coedge $-1 $426 $669 $427 $563 forward $312 $-1 #
coedge $-1 $429 $435 $426 $561 reversed $436 $-1 #
edge $-1 $564 1.8623991238087083e-014 $671 3.1415926535898131 $426 $672 forward 7 unknown #
coedge $-1 $428 $427 $673 $674 forward $221 $-1 #
edge $-1 $675 0 $564 0.5 $559 $676 forward 7 unknown #
vertex $-1 $563 $677 #
straight-curve $-1 -3.2858159209228401 0.15937784941958699 0.5 0.98480775301220802 0.17364817766693 0 I I #
coedge $-1 $673 $678 $431 $567 reversed $666 $-1 #
edge $-1 $568 -3.1415926535897585 $571 -5.717648576819572e-015 $431 $679 forward 7 unknown #
vertex $-1 $674 $680 #
straight-curve $-1 -3.2858159209228401 0.15937784941958699 0 0 0 1 I I #
coedge $-1 $668 $433 $678 $681 forward $424 $-1 #
vertex $-1 $681 $682 #
straight-curve $-1 -3.1989918320893702 -0.33302602708651702 0 0 0 1 I I #
edge $-1 $671 3.9160104146723957e-018 $437 1.9999999999999942 $557 $683 forward 7 unknown #
point $-1 -3.1989918320893702 -0.33302602708651702 0.5 #
point $-1 -3.2858159209228401 0.15937784941958699 0.5 #
model_id-kcp-attrib $-1 $684 $440 $85 1 990635151 80 -1102053375 36 #
model_id-kcp-attrib $-1 $-1 $-1 $442 1 990635151 80 -1102053375 8 #
face $685 $686 $687 $18 $-1 $688 reversed single #
loop $689 $601 $690 $442 #
cone-surface $-1 1.4099999999999999 0 0 0 0 1 0.0625 0 0 1 I I 0 1 0.0625 forward I I I I #
model_id-kcp-attrib $-1 $-1 $-1 $443 1 990635151 80 -1102053375 51 #
coedge $-1 $582 $582 $451 $588 forward $443 $-1 #
coedge $-1 $583 $583 $448 $584 reversed $691 $-1 #
edge $692 $693 -3.1415926535897931 $693 3.1415926535897931 $583 $694 forward 7 unknown #
model_id-kcp-attrib $-1 $-1 $-1 $450 1 990635151 80 -1102053375 60 #
loop $695 $696 $697 $85 #
coedge $-1 $587 $587 $690 $698 reversed $450 $-1 #
edge $699 $700 0 $700 6.2831853071795862 $582 $701 forward 7 unknown #
attrib_edge_convexity-kcp-attrib $-1 $702 $-1 $452 1 #
vertex $703 $452 $704 #
ellipse-curve $-1 2.25 0 0.5 0 0 1 0.0625 0 0 1 I I #
convexity-sys-attrib $-1 $-1 $453 $331 #
model_id-kcp-attrib $-1 $-1 $-1 $454 1 990635151 80 -1102053375 41 #
point $-1 2.7885 0 0.5 #
loop $-1 $705 $706 $58 #
coedge $-1 $707 $708 $709 $710 forward $459 $-1 #
coedge $-1 $711 $460 $712 $713 forward $336 $-1 #
coedge $-1 $460 $711 $714 $715 forward $336 $-1 #
coedge $-1 $716 $717 $460 $600 reversed $718 $-1 #
edge $719 $720 -3.1415926535897931 $721 0 $599 $722 forward 7 unknown #
loop $723 $-1 $461 $442 #
attrib_edge_convexity-kcp-attrib $-1 $724 $-1 $462 1 #
vertex $725 $462 $726 #
ellipse-curve $-1 1.4099999999999999 0 0 0 0 1 -0.0625 0 0 1 I I #
model_id-kcp-attrib $-1 $-1 $-1 $463 1 990635151 80 -1102053375 52 #
convexity-sys-attrib $-1 $-1 $464 $339 #
model_id-kcp-attrib $-1 $-1 $-1 $465 1 990635151 80 -1102053375 56 #
point $-1 0.2185 0 0 #
model_id-kcp-attrib $-1 $-1 $-1 $472 1 990635151 90 -1101398014 5 #
plane-surface $-1 4 0 0 -1 0 0 0 0 1 forward_v I I I I #
coedge $-1 $477 $475 $479 $615 reversed $348 $-1 #
edge $-1 $490 -0.25 $617 0.25 $489 $727 forward 7 unknown #
vertex $-1 $615 $728 #
straight-curve $-1 -4 -0.75 0 0 0 -1 I I #
edge $-1 $613 -0.75 $617 0.75 $611 $729 forward 7 unknown #
straight-curve $-1 0 -0.75 -0.25 -1 0 0 I I #
vertex $-1 $482 $730 #
straight-curve $-1 0 0.75 -0.25 1 0 0 I I #
point $-1 4 0.75 -0.25 #
point $-1 4 -0.75 -0.25 #
straight-curve $-1 -4 0 0.25 0 -1 0 I I #
point $-1 -4 0.75 0.25 #
point $-1 -4 -0.75 0.25 #
straight-curve $-1 4 -0.75 0 0 0 -1 I I #
straight-curve $-1 4 0.75 0 0 0 -1 I I #
point $-1 0.4375 0 0.25 #
point $-1 0.1285 0 0.125 #
point $-1 0.0625 0 0.25 #
point $-1 0.2185 0 0.25 #
point $-1 0.0625 0 0.25 #
point $-1 0.1285 0 0.125 #
point $-1 0.1285 0 0.125 #
point $-1 0.203125 0 0.125 #
point $-1 0.203125 0 0.125 #
point $-1 0.203125 0 0.12500000000000003 #
face $-1 $731 $654 $81 $-1 $732 reversed single #
plane-surface $-1 0 0.75 0 0 -1 0 0 0 -1 forward_v I I I I #
coedge $-1 $532 $531 $733 $734 reversed $304 $-1 #
coedge $-1 $643 $735 $531 $640 forward $736 $-1 #
edge $-1 $737 -0.75 $542 0 $531 $738 forward 7 unknown #
coedge $-1 $533 $663 $652 $656 reversed $642 $-1 #
loop $-1 $-1 $533 $739 #
coedge $-1 $735 $639 $534 $644 forward $736 $-1 #
edge $-1 $542 -1.5707963267948966 $648 0 $643 $655 forward 7 unknown #
coedge $-1 $733 $535 $538 $650 reversed $647 $-1 #
coedge $-1 $535 $733 $735 $740 reversed $647 $-1 #
loop $-1 $-1 $535 $741 #
vertex $-1 $740 $742 #
straight-curve $-1 -3.25 -0.75 -0.25 0 0 -1 I I #
edge $-1 $665 -4 $539 -3.25 $645 $743 forward 7 unknown #
point $-1 -3.25 -0.75 0.25 #
coedge $-1 $653 $540 $641 $656 forward $654 $-1 #
coedge $-1 $540 $652 $544 $659 forward $654 $-1 #
loop $-1 $-1 $540 $636 #
ellipse-curve $-1 -3.25 0 -0.25 0 0 1 0 -0.75 0 1 I I #
edge $-1 $542 0 $744 0.75 $641 $738 forward 7 unknown #
point $-1 -4 0 -0.25 #
coedge $-1 $545 $544 $663 $745 reversed $546 $-1 #
edge $-1 $744 -4 $547 -3.25 $544 $746 forward 7 unknown #
point $-1 -3.25 0.75 -0.25 #
vertex $-1 $549 $747 #
straight-curve $-1 0 0.75 0.25 -1 0 0 I I #
coedge $-1 $641 $550 $658 $745 forward $642 $-1 #
straight-curve $-1 -4 0 0.25 0 -1 0 I I #
vertex $-1 $552 $748 #
loop $-1 $-1 $678 $555 #
plane-surface $-1 -2.2575961234938946 0.086824088833465887 0 0 0 1 1 0 0 forward_v I I I I #
coedge $-1 $557 $570 $558 $670 forward $424 $-1 #
coedge $-1 $559 $558 $749 $750 forward $312 $-1 #
edge $-1 $751 0 $671 0.5 $668 $752 forward 7 unknown #
vertex $-1 $670 $753 #
ellipse-curve $-1 -1.27278837048169 0.26047226650039601 0.5 0 0 -1 -0.043412044416734998 0.24620193825305201 0 1 I I #
coedge $-1 $749 $566 $562 $674 reversed $666 $-1 #
edge $-1 $675 -2.0000000000000044 $568 0 $562 $754 forward 7 unknown #
vertex $-1 $750 $755 #
straight-curve $-1 -1.3162004148984201 0.50667420475344693 0 0 0 1 I I #
point $-1 -1.3162004148984201 0.50667420475344693 0.5 #
coedge $-1 $566 $749 $570 $681 reversed $666 $-1 #
ellipse-curve $-1 -3.2424038765061001 -0.086824088833464999 0 0 0 1 0.043412044416731299 -0.24620193825305201 0 1 I I #
point $-1 -3.2858159209228401 0.15937784941958699 0 #
edge $-1 $571 -1.9999999999999942 $751 0 $570 $756 forward 7 unknown #
point $-1 -3.1989918320893702 -0.33302602708651702 0 #
straight-curve $-1 -1.2293763260649599 0.014270328247343001 0.5 -0.98480775301220802 -0.17364817766693 0 I I #
model_id-kcp-attrib $-1 $757 $576 $85 1 990635151 80 -1102053375 29 #
model_id-kcp-attrib $-1 $-1 $-1 $578 1 990635151 80 -1102053375 9 #
face $758 $759 $760 $18 $-1 $761 reversed single #
loop $762 $763 $764 $578 #
cone-surface $-1 1.4099999999999999 0.40600000000000003 0 0 0 1 0.1285 0 0 1 I I 0 1 0.1285 forward I I I I #
model_id-kcp-attrib $-1 $-1 $-1 $579 1 990635151 80 -1102053375 58 #
coedge $-1 $690 $690 $587 $698 forward $579 $-1 #
loop $765 $-1 $583 $766 #
attrib_edge_convexity-kcp-attrib $-1 $767 $-1 $584 1 #
vertex $768 $584 $769 #
ellipse-curve $-1 2.6600000000000001 0 0.25 0 0 -1 0.1285 0 0 1 I I #
model_id-kcp-attrib $-1 $-1 $-1 $586 1 990635151 80 -1102053375 67 #
loop $770 $771 $772 $85 #
coedge $-1 $697 $697 $764 $773 reversed $586 $-1 #
edge $774 $775 0 $775 6.2831853071795862 $690 $776 forward 7 unknown #
attrib_edge_convexity-kcp-attrib $-1 $777 $-1 $588 1 #
vertex $778 $588 $779 #
ellipse-curve $-1 0 0 0.5 0 0 1 0.2185 0 0 1 I I #
convexity-sys-attrib $-1 $-1 $589 $452 #
model_id-kcp-attrib $-1 $-1 $-1 $590 1 990635151 80 -1102053375 48 #
point $-1 2.3125 0 0.5 #
loop $-1 $780 $781 $58 #
coedge $-1 $706 $706 $782 $783 reversed $595 $-1 #
coedge $-1 $784 $596 $785 $786 forward $459 $-1 #
coedge $-1 $596 $784 $787 $788 forward $459 $-1 #
coedge $-1 $789 $790 $596 $710 reversed $791 $-1 #
edge $792 $793 -1.9999999999999942 $794 0 $709 $795 forward 7 unknown #
coedge $-1 $598 $597 $796 $797 forward $336 $-1 #
coedge $-1 $798 $799 $597 $713 reversed $800 $-1 #
edge $801 $721 -7.25 $802 0 $712 $803 forward 7 unknown #
coedge $-1 $804 $805 $598 $715 reversed $806 $-1 #
edge $807 $808 -7.25 $720 0 $714 $809 forward 7 unknown #
coedge $-1 $810 $599 $805 $811 reversed $718 $-1 #
coedge $-1 $599 $810 $798 $812 forward $718 $-1 #
loop $-1 $-1 $599 $759 #
attrib_edge_convexity-kcp-attrib $-1 $813 $-1 $600 1 #
vertex $-1 $811 $814 #
vertex $-1 $812 $815 #
ellipse-curve $-1 -4.25 0 0 0 0 -1 0 0.75 0 1 I I #
model_id-kcp-attrib $-1 $-1 $-1 $601 1 990635151 80 -1102053375 59 #
convexity-sys-attrib $-1 $-1 $602 $462 #
model_id-kcp-attrib $-1 $-1 $-1 $603 1 990635151 80 -1102053375 63 #
point $-1 1.4724999999999999 0 0 #
straight-curve $-1 -4 0.75 0 0 0 -1 I I #
point $-1 -4 -0.75 -0.25 #
straight-curve $-1 -4 0 -0.25 0 1 0 I I #
point $-1 -4 0.75 -0.25 #
face $-1 $741 $736 $81 $-1 $732 reversed single #
plane-surface $-1 0 0 -0.25 0 0 1 1 0 0 forward_v I I I I #
coedge $-1 $646 $645 $638 $734 forward $647 $-1 #
edge $-1 $665 -0.25 $737 0.25 $638 $816 forward 7 unknown #
coedge $-1 $639 $643 $646 $740 forward $736 $-1 #
loop $-1 $-1 $643 $731 #
vertex $-1 $640 $817 #
straight-curve $-1 -4 0 -0.25 0 1 0 I I #
face $-1 $-1 $642 $81 $-1 $305 reversed single #
edge $-1 $648 3.25 $737 4 $646 $818 forward 7 unknown #
face $-1 $739 $647 $81 $-1 $819 reversed single #
point $-1 -3.25 -0.75 -0.25 #
straight-curve $-1 0 -0.75 0.25 1 0 0 I I #
vertex $-1 $659 $820 #
edge $-1 $661 -0.25 $744 0.25 $658 $821 forward 7 unknown #
straight-curve $-1 0 0.75 -0.25 1 0 0 I I #
point $-1 -4 0.75 0.25 #
point $-1 -4 -0.75 0.25 #
coedge $-1 $678 $673 $669 $750 reversed $666 $-1 #
edge $-1 $751 -3.1415926535898131 $675 -1.870725796493396e-014 $669 $822 forward 7 unknown #
vertex $-1 $681 $823 #
straight-curve $-1 -1.2293763260649599 0.014270328247342978 0 0 0 1 I I #
point $-1 -1.2293763260649599 0.014270328247342978 0.5 #
straight-curve $-1 -3.2858159209228401 0.15937784941958699 0 -0.98480775301220802 -0.17364817766693 0 I I #
point $-1 -1.3162004148984201 0.50667420475344704 0 #
straight-curve $-1 -1.2293763260649599 0.014270328247343001 0 0.98480775301220802 0.17364817766693 0 I I #
model_id-kcp-attrib $-1 $-1 $684 $85 1 990635151 80 -1102053375 3 #
model_id-kcp-attrib $-1 $-1 $-1 $686 1 990635151 80 -1102053375 10 #
face $824 $825 $718 $18 $-1 $826 forward single #
loop $827 $828 $829 $686 #
cone-surface $-1 1.4099999999999999 -0.40600000000000003 0 0 0 1 0.1285 0 0 1 I I 0 1 0.1285 forward I I I I #
model_id-kcp-attrib $-1 $-1 $-1 $687 1 990635151 80 -1102053375 65 #
loop $830 $-1 $831 $578 #
coedge $-1 $764 $764 $697 $773 forward $687 $-1 #
model_id-kcp-attrib $-1 $-1 $-1 $691 1 990635151 80 -1102053375 40 #
face $832 $833 $834 $18 $-1 $835 reversed single #
convexity-sys-attrib $-1 $-1 $692 $584 #
model_id-kcp-attrib $-1 $-1 $-1 $693 1 990635151 80 -1102053375 42 #
point $-1 2.5314999999999999 0 0.25 #
model_id-kcp-attrib $-1 $-1 $-1 $696 1 990635151 80 -1102053375 74 #
loop $-1 $836 $837 $85 #
coedge $-1 $772 $772 $829 $838 reversed $696 $-1 #
edge $839 $840 0 $840 6.2831853071795862 $764 $841 forward 7 unknown #
attrib_edge_convexity-kcp-attrib $-1 $842 $-1 $698 1 #
vertex $843 $698 $844 #
ellipse-curve $-1 1.4099999999999999 0 0.5 0 0 1 0.0625 0 0 1 I I #
convexity-sys-attrib $-1 $-1 $699 $588 #
model_id-kcp-attrib $-1 $-1 $-1 $700 1 990635151 80 -1102053375 55 #
point $-1 0.2185 0 0.5 #
loop $-1 $-1 $845 $58 #
coedge $-1 $781 $781 $846 $847 reversed $705 $-1 #
coedge $-1 $782 $782 $706 $783 forward $848 $-1 #
edge $849 $850 0 $850 6.2831853071795862 $782 $851 forward 7 unknown #
coedge $-1 $708 $707 $852 $853 forward $459 $-1 #
coedge $-1 $854 $855 $707 $786 reversed $856 $-1 #
edge $857 $794 -3.1415926535898131 $858 -1.870725796493396e-014 $785 $859 forward 7 unknown #
coedge $-1 $860 $861 $708 $788 reversed $862 $-1 #
edge $863 $864 -3.1415926535897585 $793 -5.717648576819572e-015 $787 $865 forward 7 unknown #
coedge $-1 $866 $709 $861 $867 reversed $791 $-1 #
coedge $-1 $709 $866 $854 $868 forward $791 $-1 #
loop $-1 $-1 $709 $869 #
attrib_edge_convexity-kcp-attrib $-1 $870 $-1 $710 1 #
vertex $-1 $867 $871 #
vertex $-1 $868 $872 #
straight-curve $-1 -1.2293763260649599 0.014270328247343001 0 0.98480775301220802 0.17364817766693 0 I I #
coedge $-1 $873 $874 $711 $797 reversed $875 $-1 #
edge $876 $802 -1.5 $808 0 $796 $877 forward 7 unknown #
coedge $-1 $878 $712 $717 $812 reversed $800 $-1 #
coedge $-1 $712 $878 $873 $879 forward $800 $-1 #
loop $-1 $-1 $712 $880 #
attrib_edge_convexity-kcp-attrib $-1 $881 $-1 $713 1 #
vertex $-1 $879 $882 #
straight-curve $-1 3 0.75 0 1 0 0 I I #
coedge $-1 $883 $714 $874 $884 reversed $806 $-1 #
coedge $-1 $714 $883 $716 $811 forward $806 $-1 #
loop $-1 $-1 $714 $825 #
attrib_edge_convexity-kcp-attrib $-1 $885 $-1 $715 1 #
vertex $-1 $884 $886 #
straight-curve $-1 -4.25 -0.75 0 -1 0 0 I I #
coedge $-1 $717 $716 $837 $887 forward $718 $-1 #
edge $888 $889 -0.5 $720 0 $805 $890 forward 7 unknown #
edge $-1 $891 -0.5 $721 0 $798 $892 forward 7 unknown #
convexity-sys-attrib $-1 $-1 $719 $600 #
point $-1 -4.25 -0.75 0 #
point $-1 -4.25 0.75 0 #
straight-curve $-1 -4 -0.75 0 0 0 -1 I I #
point $-1 -4 -0.75 -0.25 #
straight-curve $-1 0 -0.75 -0.25 -1 0 0 I I #
plane-surface $-1 0 -0.75 0 0 1 0 0 0 1 forward_v I I I I #
point $-1 -4 0.75 -0.25 #
straight-curve $-1 -4 0.75 0 0 0 -1 I I #
ellipse-curve $-1 -1.27278837048169 0.26047226650039601 0 0 0 1 -0.043412044416734998 0.24620193825305201 0 1 I I #
point $-1 -1.2293763260649599 0.014270328247343001 0 #
model_id-kcp-attrib $-1 $-1 $-1 $759 1 990635151 80 -1102053375 11 #
face $893 $894 $806 $18 $-1 $895 forward single #
cone-surface $-1 -4.25 0 0 0 0 1 0.75 0 0 1 I I 0 1 0.75 forward I I I I #
model_id-kcp-attrib $-1 $-1 $-1 $760 1 990635151 80 -1102053375 72 #
loop $896 $-1 $897 $686 #
coedge $-1 $829 $829 $772 $838 forward $760 $-1 #
model_id-kcp-attrib $-1 $-1 $-1 $763 1 990635151 80 -1102053375 66 #
coedge $-1 $831 $831 $898 $899 forward $763 $-1 #
model_id-kcp-attrib $-1 $-1 $-1 $766 1 990635151 80 -1102053375 19 #
face $900 $901 $902 $18 $-1 $903 reversed single #
loop $-1 $691 $904 $766 #
plane-surface $-1 2.6600000000000001 0 0.25 0 0 1 1 0 0 forward_v I I I I #
loop $-1 $-1 $905 $85 #
coedge $-1 $906 $907 $810 $887 reversed $771 $-1 #
edge $908 $909 0 $909 6.2831853071795862 $829 $910 forward 7 unknown #
attrib_edge_convexity-kcp-attrib $-1 $911 $-1 $773 1 #
vertex $912 $773 $913 #
ellipse-curve $-1 1.4099999999999999 0.40600000000000003 0.5 0 0 1 0.1285 0 0 1 I I #
convexity-sys-attrib $-1 $-1 $774 $698 #
model_id-kcp-attrib $-1 $-1 $-1 $775 1 990635151 80 -1102053375 62 #
point $-1 1.4724999999999999 0 0.5 #
coedge $-1 $845 $845 $914 $915 forward $780 $-1 #
coedge $-1 $846 $846 $781 $847 forward $916 $-1 #
edge $917 $918 0 $918 6.2831853071795862 $846 $919 forward 7 unknown #
loop $-1 $-1 $782 $833 #
attrib_edge_convexity-kcp-attrib $-1 $920 $-1 $783 1 #
vertex $-1 $783 $921 #
ellipse-curve $-1 2.6600000000000001 0 0 0 0 -1 0.203125 0 0 1 I I #
coedge $-1 $922 $923 $784 $853 reversed $924 $-1 #
edge $925 $858 -2.0000000000000044 $864 0 $852 $926 forward 7 unknown #
coedge $-1 $927 $785 $790 $868 reversed $856 $-1 #
coedge $-1 $785 $927 $922 $928 forward $856 $-1 #
loop $-1 $-1 $785 $929 #
attrib_edge_convexity-kcp-attrib $-1 $930 $-1 $786 1 #
vertex $-1 $928 $931 #
ellipse-curve $-1 -1.27278837048169 0.26047226650039601 0 0 0 1 -0.043412044416734998 0.24620193825305201 0 1 I I #
coedge $-1 $932 $787 $923 $933 reversed $862 $-1 #
coedge $-1 $787 $932 $789 $867 forward $862 $-1 #
loop $-1 $-1 $787 $934 #
attrib_edge_convexity-kcp-attrib $-1 $935 $-1 $788 1 #
vertex $-1 $933 $936 #
ellipse-curve $-1 -3.2424038765061001 -0.086824088833464999 0 0 0 1 0.043412044416731299 -0.24620193825305201 0 1 I I #
coedge $-1 $790 $789 $905 $937 forward $791 $-1 #
edge $-1 $938 -0.5 $793 0 $861 $939 forward 7 unknown #
edge $-1 $940 -0.5 $794 0 $854 $941 forward 7 unknown #
face $942 $934 $791 $18 $-1 $943 forward single #
convexity-sys-attrib $-1 $-1 $792 $710 #
point $-1 -3.1989918320893702 -0.33302602708651702 0 #
point $-1 -1.2293763260649599 0.014270328247343001 0 #
coedge $-1 $944 $796 $799 $879 reversed $875 $-1 #
coedge $-1 $796 $944 $804 $884 forward $875 $-1 #
loop $-1 $-1 $796 $894 #
attrib_edge_convexity-kcp-attrib $-1 $945 $-1 $797 1 #
straight-curve $-1 3 -0.75 0 0 -1 0 I I #
coedge $-1 $799 $798 $907 $946 forward $800 $-1 #
edge $947 $948 -0.5 $802 0 $799 $949 forward 7 unknown #
face $950 $869 $800 $18 $-1 $951 forward single #
convexity-sys-attrib $-1 $-1 $801 $713 #
point $-1 3 0.75 0 #
coedge $-1 $805 $804 $906 $952 forward $806 $-1 #
edge $953 $954 -0.5 $808 0 $874 $955 forward 7 unknown #
convexity-sys-attrib $-1 $-1 $807 $715 #
point $-1 3 -0.75 0 #
edge $-1 $889 -3.1415926535897931 $891 0 $810 $956 forward 7 unknown #
attrib_edge_convexity-kcp-attrib $-1 $957 $-1 $811 3 #
vertex $-1 $811 $958 #
straight-curve $-1 -4.25 -0.75 0 0 0 -1 I I #
vertex $-1 $812 $959 #
straight-curve $-1 -4.25 0.75 0 0 0 -1 I I #
model_id-kcp-attrib $-1 $-1 $-1 $825 1 990635151 80 -1102053375 12 #
face $960 $880 $875 $18 $-1 $961 forward single #
plane-surface $-1 -4.25 -0.75 0 0 -1 0 0 0 -1 forward_v I I I I #
model_id-kcp-attrib $-1 $-1 $-1 $828 1 990635151 80 -1102053375 73 #
coedge $-1 $897 $897 $962 $963 forward $828 $-1 #
coedge $-1 $898 $898 $831 $899 reversed $964 $-1 #
edge $965 $966 -3.1415926535897931 $966 3.1415926535897931 $898 $967 forward 7 unknown #
model_id-kcp-attrib $-1 $-1 $-1 $833 1 990635151 80 -1102053375 20 #
face $968 $969 $970 $18 $-1 $971 reversed single #
loop $-1 $848 $972 $833 #
cone-surface $-1 2.6600000000000001 0 0 0 0 1 0.203125 0 0 1 I I 0 1 0.203125 forward I I I I #
coedge $-1 $904 $904 $972 $973 forward $834 $-1 #
coedge $-1 $974 $975 $866 $937 reversed $836 $-1 #
coedge $-1 $976 $837 $883 $952 reversed $771 $-1 #
coedge $-1 $837 $976 $878 $946 reversed $771 $-1 #
attrib_edge_convexity-kcp-attrib $-1 $977 $-1 $838 1 #
vertex $978 $838 $979 #
ellipse-curve $-1 1.4099999999999999 -0.40600000000000003 0.5 0 0 1 0.1285 0 0 1 I I #
convexity-sys-attrib $-1 $-1 $839 $773 #
model_id-kcp-attrib $-1 $-1 $-1 $840 1 990635151 80 -1102053375 69 #
point $-1 1.5385 0.40600000000000003 0.5 #
coedge $-1 $914 $914 $845 $915 reversed $980 $-1 #
edge $981 $982 -3.1415926535897931 $982 3.1415926535897931 $914 $983 forward 7 unknown #
loop $-1 $-1 $846 $969 #
attrib_edge_convexity-kcp-attrib $-1 $984 $-1 $847 1 #
vertex $-1 $847 $985 #
ellipse-curve $-1 1.4099999999999999 0.40600000000000003 0 0 0 -1 0.203125 0 0 1 I I #
convexity-sys-attrib $-1 $-1 $849 $783 #
point $-1 2.8631250000000001 0 0 #
coedge $-1 $986 $852 $855 $928 reversed $924 $-1 #
coedge $-1 $852 $986 $860 $933 forward $924 $-1 #
loop $-1 $-1 $852 $987 #
attrib_edge_convexity-kcp-attrib $-1 $988 $-1 $853 1 #
straight-curve $-1 -3.2858159209228401 0.15937784941958699 0 -0.98480775301220802 -0.17364817766693 0 I I #
coedge $-1 $855 $854 $975 $989 forward $856 $-1 #
edge $-1 $990 -0.5 $858 0 $855 $991 forward 7 unknown #
face $992 $766 $856 $18 $-1 $993 reversed single #
convexity-sys-attrib $-1 $-1 $857 $786 #
point $-1 -1.3162004148984201 0.50667420475344704 0 #
coedge $-1 $861 $860 $974 $994 forward $862 $-1 #
edge $-1 $995 -0.5 $864 0 $923 $996 forward 7 unknown #
face $997 $987 $862 $18 $-1 $998 reversed single #
convexity-sys-attrib $-1 $-1 $863 $788 #
point $-1 -3.2858159209228401 0.15937784941958699 0 #
edge $-1 $938 -1.9999999999999942 $940 0 $866 $999 forward 7 unknown #
vertex $-1 $867 $1000 #
straight-curve $-1 -3.1989918320893702 -0.33302602708651702 0 0 0 -1 I I #
vertex $-1 $868 $1001 #
straight-curve $-1 -1.2293763260649599 0.014270328247343001 0 0 0 -1 I I #
model_id-kcp-attrib $-1 $-1 $-1 $869 1 990635151 80 -1102053375 15 #
plane-surface $-1 -1.2293763260649599 0.014270328247343001 0 -0.17364817766693003 0.98480775301220813 0 0 0 1 forward_v I I I I #
coedge $-1 $874 $873 $976 $1002 forward $875 $-1 #
convexity-sys-attrib $-1 $-1 $876 $797 #
edge $1003 $891 -7.25 $948 0 $878 $1004 forward 7 unknown #
attrib_edge_convexity-kcp-attrib $-1 $1005 $-1 $879 1 #
vertex $-1 $879 $1006 #
straight-curve $-1 3 0.75 0 0 0 -1 I I #
model_id-kcp-attrib $-1 $-1 $-1 $880 1 990635151 80 -1102053375 14 #
plane-surface $-1 3 0.75 0 0 1 0 0 0 1 forward_v I I I I #
edge $1007 $954 -7.25 $889 0 $883 $1008 forward 7 unknown #
attrib_edge_convexity-kcp-attrib $-1 $1009 $-1 $884 1 #
vertex $-1 $884 $1010 #
straight-curve $-1 3 -0.75 0 0 0 -1 I I #
ellipse-curve $-1 -4.25 0 0.5 0 0 -1 0 0.75 0 1 I I #
convexity-sys-attrib $-1 $-1 $888 $811 #
point $-1 -4.25 -0.75 0.5 #
point $-1 -4.25 0.75 0.5 #
model_id-kcp-attrib $-1 $-1 $-1 $894 1 990635151 80 -1102053375 13 #
plane-surface $-1 3 -0.75 0 1 0 0 0 0 -1 forward_v I I I I #
coedge $-1 $962 $962 $897 $963 reversed $1011 $-1 #
edge $1012 $1013 -3.1415926535897931 $1013 3.1415926535897931 $962 $1014 forward 7 unknown #
loop $1015 $-1 $898 $901 #
attrib_edge_convexity-kcp-attrib $-1 $1016 $-1 $899 1 #
vertex $1017 $899 $1018 #
ellipse-curve $-1 1.4099999999999999 0.40600000000000003 0.25 0 0 -1 0.1285 0 0 1 I I #
model_id-kcp-attrib $-1 $-1 $-1 $901 1 990635151 80 -1102053375 21 #
face $1019 $1020 $1021 $18 $-1 $1022 reversed single #
loop $-1 $964 $1023 $901 #
plane-surface $-1 1.4099999999999999 0.40600000000000003 0.25 0 0 1 1 0 0 forward_v I I I I #
coedge $-1 $972 $972 $904 $973 reversed $902 $-1 #
edge $1024 $1025 -3.1415926535897931 $1025 3.1415926535897931 $972 $1026 forward 7 unknown #
coedge $-1 $1027 $905 $932 $994 reversed $836 $-1 #
coedge $-1 $905 $1027 $927 $989 reversed $836 $-1 #
coedge $-1 $907 $906 $944 $1002 reversed $771 $-1 #
convexity-sys-attrib $-1 $-1 $908 $838 #
model_id-kcp-attrib $-1 $-1 $-1 $909 1 990635151 80 -1102053375 76 #
point $-1 1.5385 -0.40600000000000003 0.5 #
loop $-1 $-1 $914 $1028 #
attrib_edge_convexity-kcp-attrib $-1 $1029 $-1 $915 1 #
vertex $-1 $915 $1030 #
ellipse-curve $-1 1.4099999999999999 -0.40600000000000003 0 0 0 1 -0.203125 0 0 1 I I #
convexity-sys-attrib $-1 $-1 $917 $847 #
point $-1 1.6131249999999999 0.40600000000000003 0 #
coedge $-1 $923 $922 $1027 $1031 forward $924 $-1 #
face $1032 $929 $924 $18 $-1 $1033 forward single #
convexity-sys-attrib $-1 $-1 $925 $853 #
edge $-1 $940 -3.1415926535898131 $990 -1.870725796493396e-014 $927 $1034 forward 7 unknown #
vertex $-1 $928 $1035 #
straight-curve $-1 -1.3162004148984201 0.50667420475344704 0 0 -8.8817841970012504e-016 -1 I I #
model_id-kcp-attrib $-1 $-1 $-1 $929 1 990635151 80 -1102053375 18 #
cone-surface $-1 -1.27278837048169 0.26047226650039601 0 0 0 1 0.25 0 0 1 I I 0 1 0.25 forward I I I I #
edge $-1 $995 -3.141592653589758 $938 -5.717648576819572e-015 $932 $1036 forward 7 unknown #
vertex $-1 $933 $1037 #
straight-curve $-1 -3.2858159209228401 0.15937784941958699 0 -8.8817841970012504e-016 1.4432899320127e-015 -1 I I #
model_id-kcp-attrib $-1 $-1 $-1 $934 1 990635151 80 -1102053375 16 #
cone-surface $-1 -3.2424038765061001 -0.086824088833464999 0 0 0 1 0.25 0 0 1 I I 0 1 0.25 forward I I I I #
straight-curve $-1 -1.2293763260649599 0.014270328247343001 0.5 0.98480775301220802 0.17364817766693 0 I I #
point $-1 -3.1989918320893702 -0.33302602708651702 0.5 #
point $-1 -1.2293763260649599 0.014270328247343001 0.5 #
edge $1038 $948 -1.5 $954 0 $944 $1039 forward 7 unknown #
model_id-kcp-attrib $-1 $-1 $-1 $946 1 990635151 80 -1102053375 28 #
straight-curve $-1 3 0.75 0.5 1 0 0 I I #
convexity-sys-attrib $-1 $-1 $947 $879 #
point $-1 3 0.75 0.5 #
model_id-kcp-attrib $-1 $1040 $-1 $952 1 990635151 80 -1102053375 27 #
straight-curve $-1 -4.25 -0.75 0.5 -1 0 0 I I #
convexity-sys-attrib $-1 $-1 $953 $884 #
point $-1 3 -0.75 0.5 #
loop $1041 $-1 $962 $1020 #
attrib_edge_convexity-kcp-attrib $-1 $1042 $-1 $963 1 #
vertex $1043 $963 $1044 #
ellipse-curve $-1 1.4099999999999999 -0.40600000000000003 0.25 0 0 -1 0.1285 0 0 1 I I #
model_id-kcp-attrib $-1 $-1 $-1 $964 1 990635151 80 -1102053375 68 #
convexity-sys-attrib $-1 $-1 $965 $899 #
model_id-kcp-attrib $-1 $-1 $-1 $966 1 990635151 80 -1102053375 70 #
point $-1 1.2815000000000001 0.40600000000000003 0.25 #
model_id-kcp-attrib $-1 $-1 $-1 $969 1 990635151 80 -1102053375 22 #
face $1045 $1028 $1046 $18 $-1 $1047 forward single #
loop $-1 $916 $1048 $969 #
cone-surface $-1 1.4099999999999999 0.40600000000000003 0 0 0 1 0.203125 0 0 1 I I 0 1 0.203125 forward I I I I #
coedge $-1 $1023 $1023 $1048 $1049 forward $970 $-1 #
attrib_edge_convexity-kcp-attrib $-1 $1050 $-1 $973 2 #
vertex $-1 $973 $1051 #
ellipse-curve $-1 2.6600000000000001 0 0.25 0 0 -1 -0.203125 0 0 1 I I #
coedge $-1 $975 $974 $986 $1031 reversed $836 $-1 #
face $1052 $-1 $1053 $18 $-1 $1054 reversed single #
convexity-sys-attrib $-1 $-1 $981 $915 #
point $-1 1.6131249999999999 -0.40600000000000003 0 #
edge $-1 $990 -2.000000000000004 $995 0 $986 $1055 forward 7 unknown #
model_id-kcp-attrib $-1 $-1 $-1 $987 1 990635151 80 -1102053375 17 #
plane-surface $-1 -3.2858159209228401 0.15937784941958599 0 0.173648177666931 -0.98480775301220802 0 0 0 -1 forward_v I I I I #
ellipse-curve $-1 -1.27278837048169 0.26047226650039601 0.5 0 0 1 -0.043412044416734998 0.24620193825305201 0 1 I I #
point $-1 -1.3162004148984201 0.50667420475344704 0.5 #
ellipse-curve $-1 -3.2424038765061001 -0.086824088833464999 0.5 0 0 1 0.043412044416731299 -0.24620193825305201 0 1 I I #
point $-1 -3.2858159209228401 0.15937784941958599 0.5 #
model_id-kcp-attrib $-1 $1056 $-1 $1002 1 990635151 80 -1102053375 26 #
straight-curve $-1 3 -0.75 0.5 0 -1 0 I I #
attrib_edge_convexity-kcp-attrib $-1 $1057 $1007 $952 1 #
model_id-kcp-attrib $-1 $-1 $-1 $1011 1 990635151 80 -1102053375 75 #
convexity-sys-attrib $-1 $-1 $1012 $963 #
model_id-kcp-attrib $-1 $-1 $-1 $1013 1 990635151 80 -1102053375 77 #
point $-1 1.2815000000000001 -0.40600000000000003 0.25 #
model_id-kcp-attrib $-1 $-1 $-1 $1020 1 990635151 80 -1102053375 23 #
loop $-1 $1011 $1058 $1020 #
plane-surface $-1 1.4099999999999999 -0.40600000000000003 0.25 0 0 -1 -1 0 0 forward_v I I I I #
coedge $-1 $1048 $1048 $1023 $1049 reversed $1021 $-1 #
edge $1059 $1060 -3.1415926535897931 $1060 3.1415926535897931 $1048 $1061 forward 7 unknown #
convexity-sys-attrib $-1 $-1 $1024 $973 #
point $-1 2.8631250000000001 0 0.25 #
model_id-kcp-attrib $-1 $-1 $-1 $1028 1 990635151 80 -1102053375 24 #
loop $-1 $980 $1062 $1028 #
cone-surface $-1 1.4099999999999999 -0.40600000000000003 0 0 0 -1 0.203125 0 0 1 I I 0 1 0.203125 forward I I I I #
straight-curve $-1 -3.2858159209228401 0.15937784941958599 0.5 -0.98480775301220802 -0.173648177666931 0 I I #
attrib_edge_convexity-kcp-attrib $-1 $1063 $1038 $1002 1 #
convexity-sys-attrib $-1 $-1 $1040 $952 #
coedge $-1 $1058 $1058 $1062 $1064 reversed $1046 $-1 #
attrib_edge_convexity-kcp-attrib $-1 $1065 $-1 $1049 2 #
vertex $-1 $1049 $1066 #
ellipse-curve $-1 1.4099999999999999 0.40600000000000003 0.25 0 0 -1 -0.203125 0 0 1 I I #
coedge $-1 $1062 $1062 $1058 $1064 forward $1053 $-1 #
convexity-sys-attrib $-1 $-1 $1056 $1002 #
edge $1067 $1068 0 $1068 6.2831853071795862 $1062 $1069 forward 7 unknown #
convexity-sys-attrib $-1 $-1 $1059 $1049 #
point $-1 1.6131249999999999 0.40600000000000003 0.25 #
attrib_edge_convexity-kcp-attrib $-1 $1070 $-1 $1064 2 #
vertex $-1 $1064 $1071 #
ellipse-curve $-1 1.4099999999999999 -0.40600000000000003 0.25 0 0 1 0.203125 0 0 1 I I #
convexity-sys-attrib $-1 $-1 $1067 $1064 #
point $-1 1.6131249999999999 -0.40600000000000003 0.25 #
End-of-ACIS-data 