600 0 2 0           
24 FBMach with ACIS - 6.0.3 13 ACIS 6.0.3 NT 24 Wed May 23 12:27:16 2001 
1 9.9999999999999995e-007 1e-010 
body $2 $3 $-1 $4 #
bdycol-kcp $-1 1 3 $5 $6 $7 #
model_id-kcp-attrib $-1 $-1 $-1 $0 1 990635236 60 1111228417 1 #
lump $-1 $-1 $8 $0 #
transform $-1 1.0000000000000004 0 -5.5511151231257827e-017 0 1 0 5.5511151231257827e-017 0 1.0000000000000004 2.7755575615628914e-017 0 0 1 rotate no_reflect no_shear #
body $9 $10 $-1 $11 #
body $12 $13 $-1 $14 #
body $15 $16 $-1 $17 #
shell $-1 $-1 $-1 $18 $-1 $3 #
model_id-kcp-attrib $-1 $-1 $-1 $5 1 990635236 70 1111883778 1 #
lump $-1 $-1 $19 $5 #
transform $-1 1 0 0 0 1 0 0 0 1 0 0.0935 0 1 no_rotate no_reflect no_shear #
rgb_color-st-attrib $-1 $20 $-1 $6 0.5 1 1 #
lump $-1 $-1 $21 $6 #
transform $-1 1 0 0 0 -3.8285889215894375e-016 1 0 -1 -3.8285889215894375e-016 0 0.0935 -3.5797306416861241e-017 1 rotate no_reflect no_shear #
rgb_color-st-attrib $-1 $22 $-1 $7 0.5 1 1 #
lump $-1 $23 $24 $7 #
transform $-1 1 0 0 0 1 0 0 0 1 0 0.0935 0 1 no_rotate no_reflect no_shear #
face $25 $26 $27 $8 $-1 $28 reversed single #
shell $-1 $-1 $-1 $29 $-1 $10 #
model_id-kcp-attrib $-1 $-1 $12 $6 1 990635236 90 1113194499 1 #
shell $-1 $-1 $-1 $30 $-1 $13 #
model_id-kcp-attrib $-1 $-1 $15 $7 1 990635236 240 1123024900 1 #
lump $-1 $-1 $31 $7 #
shell $-1 $-1 $-1 $32 $-1 $16 #
model_id-kcp-attrib $-1 $33 $-1 $18 1 990635236 60 1111228417 11 #
face $34 $35 $36 $8 $-1 $37 forward single #
loop $-1 $38 $39 $18 #
plane-surface $-1 0 0 0 0 1 0 0 0 1 forward_v I I I I #
face $40 $41 $42 $19 $-1 $43 forward single #
face $-1 $44 $45 $21 $-1 $46 forward single #
shell $-1 $-1 $-1 $47 $-1 $23 #
face $-1 $48 $49 $24 $-1 $50 reversed single #
model_id-kcp-attrib $-1 $-1 $25 $18 1 990635236 60 1111228417 2 #
model_id-kcp-attrib $-1 $51 $-1 $26 1 990635236 60 1111228417 14 #
face $52 $53 $54 $8 $-1 $55 forward single #
loop $-1 $56 $57 $26 #
plane-surface $-1 0 0.187 0 0 1 0 0 0 1 forward_v I I I I #
loop $58 $-1 $59 $18 #
coedge $-1 $60 $61 $62 $63 forward $27 $-1 #
model_id-kcp-attrib $-1 $-1 $-1 $29 1 990635236 70 1111883778 4 #
face $64 $65 $66 $19 $-1 $67 reversed single #
loop $-1 $-1 $68 $29 #
plane-surface $-1 0 0 0.21850000000000003 0 0 1 1 0 0 forward_v I I I I #
face $-1 $69 $70 $21 $-1 $71 forward single #
loop $-1 $72 $73 $30 #
cone-surface $-1 0 0 0 0 0 1 0.125 0 0 1 I I 0 1 0.125 forward I I I I #
face $-1 $74 $75 $31 $-1 $76 reversed single #
face $-1 $77 $78 $24 $-1 $79 reversed single #
loop $-1 $-1 $80 $32 #
plane-surface $-1 0.25 -0.0935 0 0.87400000000000011 0 -0.48592592028003612 0 1 0 forward_v I I I I #
model_id-kcp-attrib $-1 $-1 $34 $26 1 990635236 60 1111228417 3 #
model_id-kcp-attrib $-1 $-1 $-1 $35 1 990635236 60 1111228417 4 #
face $81 $82 $83 $8 $-1 $84 forward single #
loop $-1 $-1 $62 $35 #
plane-surface $-1 -0.128518519929991 0 -0.2185 -0.87400000000000011 0 -0.48592592028003606 -0.48592592028003601 0 0.874 forward_v I I I I #
loop $85 $-1 $86 $26 #
coedge $-1 $87 $88 $89 $90 reversed $36 $-1 #
model_id-kcp-attrib $-1 $-1 $-1 $38 1 990635236 60 1111228417 18 #
coedge $-1 $59 $59 $91 $92 forward $38 $-1 #
coedge $-1 $93 $39 $94 $95 forward $27 $-1 #
coedge $-1 $39 $96 $97 $98 forward $27 $-1 #
coedge $-1 $99 $100 $39 $63 reversed $54 $-1 #
edge $101 $102 -0.25000000000000006 $103 0 $62 $104 forward 7 unknown #
model_id-kcp-attrib $-1 $-1 $-1 $41 1 990635236 70 1111883778 5 #
face $105 $106 $107 $19 $-1 $108 reversed single #
loop $-1 $-1 $109 $41 #
plane-surface $-1 0 0 -0.21850000000000003 0 0 1 1 0 0 forward_v I I I I #
coedge $-1 $110 $111 $112 $113 forward $42 $-1 #
face $-1 $-1 $114 $21 $-1 $115 forward single #
loop $-1 $-1 $116 $44 #
plane-surface $-1 0 0 -0.093500000000000055 0 0 -1 -1 0 0 forward_v I I I I #
loop $-1 $-1 $117 $30 #
coedge $-1 $73 $73 $116 $118 reversed $45 $-1 #
face $-1 $119 $120 $31 $-1 $121 forward single #
loop $-1 $-1 $122 $47 #
plane-surface $-1 -0.25 0 0 1 0 0 0 0 -1 forward_v I I I I #
face $-1 $123 $124 $24 $-1 $125 reversed single #
loop $-1 $-1 $126 $48 #
plane-surface $-1 0.128518519929991 -0.0935 0.2185 0.87400000000000011 0 0.48592592028003601 0 1 0 forward_v I I I I #
coedge $-1 $127 $128 $129 $130 reversed $49 $-1 #
model_id-kcp-attrib $-1 $-1 $-1 $53 1 990635236 60 1111228417 5 #
face $131 $132 $133 $8 $-1 $134 forward single #
loop $-1 $-1 $97 $53 #
plane-surface $-1 -0.25 0 0 -0.87400000000000011 0 0.48592592028003606 0.48592592028003601 0 0.874 forward_v I I I I #
model_id-kcp-attrib $-1 $-1 $-1 $56 1 990635236 60 1111228417 17 #
coedge $-1 $86 $86 $135 $136 reversed $56 $-1 #
coedge $-1 $137 $57 $138 $139 reversed $36 $-1 #
coedge $-1 $57 $140 $141 $142 reversed $36 $-1 #
coedge $-1 $100 $99 $57 $90 forward $54 $-1 #
edge $143 $144 -0.25000000000000006 $145 0 $89 $146 forward 7 unknown #
coedge $-1 $91 $91 $59 $92 reversed $147 $-1 #
edge $148 $149 -3.1415926535897931 $149 3.1415926535897931 $91 $150 forward 7 unknown #
coedge $-1 $151 $60 $152 $153 forward $27 $-1 #
coedge $-1 $154 $155 $60 $95 reversed $156 $-1 #
edge $157 $103 -0.257037039859982 $158 0 $94 $159 forward 7 unknown #
coedge $-1 $61 $151 $160 $161 forward $27 $-1 #
coedge $-1 $162 $163 $61 $98 reversed $83 $-1 #
edge $164 $165 -0.25000000000000006 $102 0 $97 $166 forward 7 unknown #
coedge $-1 $89 $62 $163 $167 reversed $54 $-1 #
coedge $-1 $62 $89 $154 $168 forward $54 $-1 #
attrib_edge_convexity-kcp-attrib $-1 $169 $-1 $63 1 #
vertex $-1 $167 $170 #
vertex $-1 $168 $171 #
straight-curve $-1 -0.128518519929991 0 -0.2185 0.48592592028003601 0 -0.874 I I #
model_id-kcp-attrib $-1 $-1 $-1 $65 1 990635236 70 1111883778 2 #
face $-1 $172 $173 $19 $-1 $174 reversed single #
loop $-1 $-1 $175 $65 #
plane-surface $-1 0 -0.0935 0 0 1 0 0 0 1 forward_v I I I I #
coedge $-1 $176 $177 $178 $179 forward $66 $-1 #
coedge $-1 $180 $68 $181 $182 forward $42 $-1 #
coedge $-1 $68 $180 $183 $184 forward $42 $-1 #
coedge $-1 $185 $186 $68 $113 reversed $187 $-1 #
edge $-1 $188 -0.0935 $189 0.0935 $112 $190 forward 7 unknown #
loop $-1 $-1 $191 $69 #
plane-surface $-1 0 0 0.093500000000000055 0 0 1 1 0 0 forward_v I I I I #
coedge $-1 $116 $116 $73 $118 forward $70 $-1 #
coedge $-1 $117 $117 $191 $192 reversed $72 $-1 #
edge $-1 $193 0 $193 6.2831853071795862 $116 $194 forward 7 unknown #
face $-1 $195 $196 $31 $-1 $197 reversed single #
loop $-1 $-1 $198 $74 #
plane-surface $-1 0 0 0.21850000000000003 0 0 1 1 0 0 forward_v I I I I #
coedge $-1 $199 $200 $201 $202 forward $75 $-1 #
face $-1 $203 $204 $24 $-1 $205 reversed single #
loop $-1 $-1 $206 $77 #
plane-surface $-1 0.25 0 0 -1 0 0 0 0 1 forward_v I I I I #
coedge $-1 $207 $208 $209 $210 reversed $78 $-1 #
coedge $-1 $211 $80 $212 $213 reversed $49 $-1 #
coedge $-1 $80 $211 $208 $214 forward $49 $-1 #
coedge $-1 $215 $216 $80 $130 forward $217 $-1 #
edge $-1 $218 -0.18925925996499554 $219 0.060740740035004515 $129 $220 forward 7 unknown #
model_id-kcp-attrib $-1 $-1 $-1 $82 1 990635236 60 1111228417 6 #
face $221 $222 $223 $8 $-1 $224 forward single #
loop $-1 $-1 $160 $82 #
plane-surface $-1 -0.128518519929991 0 0.2185 0 0 1 1 0 0 forward_v I I I I #
coedge $-1 $135 $135 $86 $136 forward $225 $-1 #
edge $226 $227 0 $227 6.2831853071795862 $135 $228 forward 7 unknown #
coedge $-1 $229 $87 $230 $231 reversed $36 $-1 #
coedge $-1 $163 $162 $87 $139 forward $83 $-1 #
edge $232 $233 -0.25000000000000006 $144 0 $138 $234 forward 7 unknown #
coedge $-1 $88 $229 $235 $236 reversed $36 $-1 #
coedge $-1 $155 $154 $88 $142 forward $156 $-1 #
edge $237 $145 -0.257037039859982 $238 0 $141 $239 forward 7 unknown #
attrib_edge_convexity-kcp-attrib $-1 $240 $-1 $90 1 #
vertex $-1 $167 $241 #
vertex $-1 $168 $242 #
straight-curve $-1 -0.128518519929991 0.187 -0.2185 0.48592592028003601 0 -0.874 I I #
loop $243 $-1 $91 $244 #
attrib_edge_convexity-kcp-attrib $-1 $245 $-1 $92 1 #
vertex $246 $92 $247 #
ellipse-curve $-1 0 0 0 0 1 0 -0.125 0 0 1 I I #
coedge $-1 $96 $93 $248 $249 forward $27 $-1 #
coedge $-1 $250 $251 $93 $153 reversed $252 $-1 #
edge $253 $158 -0.25000000000000006 $254 0 $152 $255 forward 7 unknown #
coedge $-1 $141 $94 $100 $168 reversed $156 $-1 #
coedge $-1 $94 $141 $250 $256 forward $156 $-1 #
loop $-1 $-1 $94 $257 #
attrib_edge_convexity-kcp-attrib $-1 $258 $-1 $95 1 #
vertex $-1 $256 $259 #
straight-curve $-1 0.128518519929991 0 -0.2185 1 0 0 I I #
coedge $-1 $260 $261 $96 $161 reversed $133 $-1 #
edge $262 $263 -0.257037039859982 $165 0 $160 $264 forward 7 unknown #
coedge $-1 $138 $97 $261 $265 reversed $83 $-1 #
coedge $-1 $97 $138 $99 $167 forward $83 $-1 #
attrib_edge_convexity-kcp-attrib $-1 $266 $-1 $98 1 #
vertex $-1 $265 $267 #
straight-curve $-1 -0.25 0 0 -0.48592592028003601 0 -0.874 I I #
edge $268 $144 -0.187 $102 0 $163 $269 forward 7 unknown #
edge $270 $145 -0.187 $103 0 $154 $271 forward 7 unknown #
convexity-sys-attrib $-1 $-1 $101 $63 #
point $-1 -0.25 0 0 #
point $-1 -0.128518519929991 0 -0.2185 #
face $272 $273 $274 $19 $-1 $275 reversed single #
loop $-1 $-1 $276 $106 #
plane-surface $-1 -0.25 0 0 1 0 0 0 0 -1 forward_v I I I I #
coedge $-1 $277 $183 $278 $279 forward $107 $-1 #
coedge $-1 $280 $109 $277 $281 forward $66 $-1 #
coedge $-1 $109 $280 $282 $283 forward $66 $-1 #
coedge $-1 $186 $185 $109 $179 reversed $187 $-1 #
edge $-1 $284 -0.0935 $285 0.0935 $178 $286 forward 7 unknown #
coedge $-1 $111 $110 $287 $288 forward $42 $-1 #
coedge $-1 $289 $290 $110 $182 reversed $274 $-1 #
edge $-1 $189 -0.25 $291 0.25 $181 $292 forward 7 unknown #
coedge $-1 $175 $293 $111 $184 reversed $107 $-1 #
edge $-1 $294 -0.25 $188 0.25 $183 $295 forward 7 unknown #
coedge $-1 $178 $112 $293 $296 forward $187 $-1 #
coedge $-1 $112 $178 $289 $297 reversed $187 $-1 #
loop $-1 $-1 $185 $273 #
vertex $-1 $113 $298 #
vertex $-1 $113 $299 #
straight-curve $-1 0.25 0 0.21850000000000003 0 1 0 I I #
coedge $-1 $191 $191 $117 $192 forward $114 $-1 #
edge $-1 $300 0 $300 6.2831853071795862 $191 $301 forward 7 unknown #
vertex $-1 $118 $302 #
ellipse-curve $-1 0 0 -0.093500000000000055 0 0 -1 0.125 0 0 1 I I #
face $-1 $303 $304 $31 $-1 $197 reversed single #
loop $-1 $-1 $305 $119 #
plane-surface $-1 0 -0.0935 0 0 1 0 0 0 1 forward_v I I I I #
coedge $-1 $306 $307 $308 $309 forward $120 $-1 #
coedge $-1 $310 $122 $311 $312 forward $75 $-1 #
coedge $-1 $122 $310 $313 $314 reversed $75 $-1 #
coedge $-1 $315 $316 $317 $202 reversed $318 $-1 #
edge $-1 $319 -0.04675 $320 0.14024999999999999 $122 $321 forward 7 unknown #
face $-1 $322 $217 $24 $-1 $205 reversed single #
loop $-1 $-1 $323 $123 #
plane-surface $-1 0 0.0935 0 0 -1 0 0 0 -1 forward_v I I I I #
coedge $-1 $324 $325 $326 $214 forward $124 $-1 #
coedge $-1 $327 $126 $328 $329 reversed $78 $-1 #
coedge $-1 $126 $327 $206 $214 reversed $78 $-1 #
coedge $-1 $330 $331 $126 $210 forward $332 $-1 #
edge $-1 $333 -0.064259259964995499 $334 0.18574074003500451 $209 $335 forward 7 unknown #
coedge $-1 $128 $127 $336 $337 reversed $49 $-1 #
coedge $-1 $338 $339 $127 $213 forward $340 $-1 #
edge $-1 $341 -0.04675 $218 0.14024999999999999 $212 $342 forward 7 unknown #
edge $-1 $334 -0.04675 $219 0.14024999999999999 $206 $343 forward 7 unknown #
coedge $-1 $216 $129 $344 $345 forward $217 $-1 #
coedge $-1 $129 $215 $338 $346 reversed $217 $-1 #
loop $-1 $-1 $129 $203 #
vertex $-1 $346 $347 #
vertex $-1 $345 $348 #
straight-curve $-1 0.22048450000000003 0.093500000000000014 -0.053087406790593955 0.48592592028003612 0 0.87400000000000011 I I #
model_id-kcp-attrib $-1 $-1 $-1 $132 1 990635236 60 1111228417 7 #
face $349 $257 $252 $8 $-1 $350 forward single #
loop $-1 $-1 $248 $132 #
plane-surface $-1 0.128518519929991 0 0.2185 0.87400000000000011 0 0.48592592028003606 0.48592592028003601 0 -0.874 forward_v I I I I #
loop $351 $147 $135 $244 #
attrib_edge_convexity-kcp-attrib $-1 $352 $-1 $136 1 #
vertex $353 $136 $354 #
ellipse-curve $-1 0 0.187 0 0 1 0 0.125 0 0 1 I I #
coedge $-1 $140 $137 $355 $356 reversed $36 $-1 #
coedge $-1 $261 $260 $137 $231 forward $133 $-1 #
edge $357 $358 -0.257037039859982 $233 0 $230 $359 forward 7 unknown #
attrib_edge_convexity-kcp-attrib $-1 $360 $-1 $139 1 #
vertex $-1 $265 $361 #
straight-curve $-1 -0.25 0.187 0 -0.48592592028003601 0 -0.874 I I #
coedge $-1 $251 $250 $140 $236 forward $252 $-1 #
edge $-1 $238 -0.25000000000000006 $362 0 $235 $363 forward 7 unknown #
model_id-kcp-attrib $-1 $-1 $-1 $142 1 990635236 60 1111228417 13 #
vertex $-1 $256 $364 #
straight-curve $-1 0.128518519929991 0.187 -0.2185 1 0 0 I I #
convexity-sys-attrib $-1 $-1 $143 $90 #
point $-1 -0.25 0.187 0 #
point $-1 -0.128518519929991 0.187 -0.2185 #
model_id-kcp-attrib $-1 $-1 $-1 $147 1 990635236 60 1111228417 16 #
face $365 $-1 $225 $8 $-1 $366 reversed single #
convexity-sys-attrib $-1 $-1 $148 $92 #
model_id-kcp-attrib $-1 $-1 $-1 $149 1 990635236 60 1111228417 20 #
point $-1 0.125 0 0 #
coedge $-1 $367 $368 $151 $249 reversed $223 $-1 #
edge $369 $254 -0.25000000000000006 $263 0 $248 $370 forward 7 unknown #
coedge $-1 $235 $152 $155 $256 reversed $252 $-1 #
coedge $-1 $152 $235 $367 $371 forward $252 $-1 #
loop $-1 $-1 $152 $222 #
attrib_edge_convexity-kcp-attrib $-1 $372 $-1 $153 1 #
vertex $-1 $371 $373 #
straight-curve $-1 0.25 0 0 0.48592592028003601 0 0.874 I I #
edge $-1 $238 -0.187 $158 0 $155 $374 forward 7 unknown #
face $375 $244 $156 $8 $-1 $376 forward single #
convexity-sys-attrib $-1 $-1 $157 $95 #
point $-1 0.128518519929991 0 -0.2185 #
coedge $-1 $230 $160 $368 $377 reversed $133 $-1 #
coedge $-1 $160 $230 $162 $265 forward $133 $-1 #
attrib_edge_convexity-kcp-attrib $-1 $378 $-1 $161 1 #
vertex $-1 $377 $379 #
straight-curve $-1 -0.128518519929991 0 0.2185 -1 0 0 I I #
edge $380 $233 -0.187 $165 0 $261 $381 forward 7 unknown #
convexity-sys-attrib $-1 $-1 $164 $98 #
point $-1 -0.128518519929991 0 0.2185 #
attrib_edge_convexity-kcp-attrib $-1 $382 $-1 $167 1 #
straight-curve $-1 -0.25 0 0 0 -1 0 I I #
attrib_edge_convexity-kcp-attrib $-1 $383 $-1 $168 1 #
straight-curve $-1 -0.128518519929991 0 -0.2185 0 -1 0 I I #
model_id-kcp-attrib $-1 $-1 $-1 $172 1 990635236 70 1111883778 3 #
face $-1 $-1 $187 $19 $-1 $384 reversed single #
loop $-1 $-1 $289 $172 #
plane-surface $-1 0 0.0935 0 0 -1 0 0 0 -1 forward_v I I I I #
coedge $-1 $385 $287 $290 $386 forward $173 $-1 #
coedge $-1 $293 $175 $176 $281 reversed $107 $-1 #
coedge $-1 $287 $385 $175 $279 reversed $173 $-1 #
edge $-1 $294 -0.21850000000000003 $387 0.21850000000000003 $278 $388 forward 7 unknown #
coedge $-1 $177 $176 $385 $389 forward $66 $-1 #
edge $-1 $285 -0.25 $387 0.25 $277 $390 forward 7 unknown #
coedge $-1 $290 $289 $177 $283 reversed $274 $-1 #
edge $-1 $391 -0.25 $284 0.25 $282 $392 forward 7 unknown #
vertex $-1 $179 $393 #
vertex $-1 $296 $394 #
straight-curve $-1 0.25 0 -0.21850000000000003 0 -1 0 I I #
coedge $-1 $276 $278 $180 $288 reversed $173 $-1 #
edge $-1 $291 -0.0935 $294 0.0935 $287 $395 forward 7 unknown #
coedge $-1 $282 $181 $186 $297 forward $274 $-1 #
coedge $-1 $181 $282 $276 $386 reversed $274 $-1 #
vertex $-1 $182 $396 #
straight-curve $-1 0 0.0935 0.21850000000000003 -1 0 0 I I #
coedge $-1 $183 $277 $185 $296 reversed $107 $-1 #
vertex $-1 $288 $397 #
straight-curve $-1 0 -0.0935 0.21850000000000003 1 0 0 I I #
edge $-1 $188 -0.21850000000000003 $285 0.21850000000000003 $185 $398 forward 7 unknown #
edge $-1 $189 -0.21850000000000003 $284 0.21850000000000003 $186 $399 forward 7 unknown #
point $-1 0.25 -0.0935 0.21850000000000003 #
point $-1 0.25 0.0935 0.21850000000000003 #
vertex $-1 $192 $400 #
ellipse-curve $-1 0 0 0.093500000000000055 0 0 1 0.125 0 0 1 I I #
point $-1 0.125 0 -0.093500000000000055 #
face $-1 $401 $318 $31 $-1 $76 reversed single #
loop $-1 $-1 $402 $195 #
coedge $-1 $313 $403 $404 $405 forward $196 $-1 #
coedge $-1 $406 $198 $407 $408 forward $120 $-1 #
coedge $-1 $198 $406 $409 $410 forward $120 $-1 #
coedge $-1 $411 $412 $198 $309 reversed $413 $-1 #
edge $-1 $414 -0.04675 $415 0.14024999999999999 $198 $416 forward 7 unknown #
coedge $-1 $200 $199 $417 $418 reversed $75 $-1 #
coedge $-1 $419 $420 $199 $312 reversed $421 $-1 #
edge $-1 $320 -8.5678416577264144e-017 $422 0.21850000000000003 $311 $423 forward 7 unknown #
coedge $-1 $403 $305 $200 $314 forward $196 $-1 #
edge $-1 $319 -2.7755575615628914e-017 $424 0.21850000000000003 $200 $425 forward 7 unknown #
coedge $-1 $426 $201 $427 $428 reversed $318 $-1 #
coedge $-1 $201 $426 $429 $430 forward $318 $-1 #
coedge $-1 $412 $411 $431 $202 forward $413 $-1 #
loop $-1 $-1 $201 $303 #
vertex $-1 $314 $432 #
vertex $-1 $312 $433 #
straight-curve $-1 -0.25 -0.04675 8.3266726846886741e-017 0 1 0 I I #
face $-1 $434 $332 $24 $-1 $197 reversed single #
coedge $-1 $435 $436 $327 $437 forward $204 $-1 #
coedge $-1 $438 $206 $436 $439 reversed $124 $-1 #
coedge $-1 $206 $438 $330 $440 forward $124 $-1 #
coedge $-1 $441 $344 $128 $214 reversed $442 $-1 #
coedge $-1 $208 $207 $323 $437 reversed $78 $-1 #
coedge $-1 $443 $444 $207 $329 forward $445 $-1 #
edge $-1 $446 -0.14024999999999999 $333 0.04675 $328 $447 forward 7 unknown #
coedge $-1 $331 $209 $325 $440 reversed $332 $-1 #
coedge $-1 $209 $330 $443 $448 reversed $332 $-1 #
loop $-1 $-1 $209 $322 #
vertex $-1 $448 $449 #
vertex $-1 $450 $451 #
straight-curve $-1 0.15974375996499551 -0.0935 0.16233740679059394 0.48592592028003601 0 -0.87400000000000011 I I #
coedge $-1 $452 $453 $211 $337 forward $454 $-1 #
edge $-1 $334 -0.060740740035004515 $341 0.18925925996499554 $336 $455 forward 7 unknown #
coedge $-1 $456 $212 $216 $346 forward $340 $-1 #
coedge $-1 $212 $456 $452 $457 forward $340 $-1 #
loop $-1 $-1 $212 $458 #
vertex $-1 $337 $459 #
straight-curve $-1 0.12851851992999097 -0.04675 -0.21850000000000003 0 1 0 I I #
straight-curve $-1 0.25 -0.04675 -2.7755575615628914e-017 0 1 0 I I #
coedge $-1 $326 $460 $215 $345 reversed $442 $-1 #
edge $-1 $219 0 $461 0.21850000000000003 $344 $462 forward 7 unknown #
edge $-1 $218 0.12851851992999097 $461 0.25 $216 $463 forward 7 unknown #
point $-1 0.12851851992999097 0.0935 -0.21850000000000003 #
point $-1 0.25 0.0935 0 #
model_id-kcp-attrib $-1 $-1 $-1 $222 1 990635236 60 1111228417 8 #
plane-surface $-1 0.25 0 0 0.87400000000000011 0 -0.48592592028003606 -0.48592592028003601 0 -0.874 forward_v I I I I #
model_id-kcp-attrib $-1 $-1 $-1 $225 1 990635236 60 1111228417 15 #
convexity-sys-attrib $-1 $-1 $226 $136 #
model_id-kcp-attrib $-1 $-1 $-1 $227 1 990635236 60 1111228417 19 #
point $-1 0.125 0.187 0 #
coedge $-1 $368 $367 $229 $356 forward $223 $-1 #
edge $-1 $362 -0.25000000000000006 $358 0 $355 $464 forward 7 unknown #
model_id-kcp-attrib $-1 $465 $-1 $231 1 990635236 60 1111228417 12 #
vertex $-1 $377 $466 #
straight-curve $-1 -0.128518519929991 0.187 0.2185 -1 0 0 I I #
convexity-sys-attrib $-1 $-1 $232 $139 #
point $-1 -0.128518519929991 0.187 0.2185 #
vertex $-1 $371 $467 #
straight-curve $-1 0.25 0.187 0 0.48592592028003601 0 0.874 I I #
point $-1 0.128518519929991 0.187 -0.2185 #
model_id-kcp-attrib $-1 $-1 $-1 $244 1 990635236 60 1111228417 10 #
cone-surface $-1 0 0.187 0 0 -1 0 0.125 0 0 1 I I 0 1 0.125 forward I I I I #
coedge $-1 $355 $248 $251 $371 reversed $223 $-1 #
coedge $-1 $248 $355 $260 $377 forward $223 $-1 #
attrib_edge_convexity-kcp-attrib $-1 $468 $-1 $249 1 #
straight-curve $-1 0.128518519929991 0 0.2185 -0.48592592028003601 0 0.874 I I #
edge $-1 $362 -0.187 $254 0 $251 $469 forward 7 unknown #
convexity-sys-attrib $-1 $-1 $253 $153 #
point $-1 0.25 0 0 #
straight-curve $-1 0.128518519929991 0 -0.2185 0 -1 0 I I #
model_id-kcp-attrib $-1 $-1 $-1 $257 1 990635236 60 1111228417 9 #
plane-surface $-1 0.128518519929991 0 -0.2185 0 0 -1 -1 0 0 forward_v I I I I #
edge $470 $358 -0.187 $263 0 $368 $471 forward 7 unknown #
convexity-sys-attrib $-1 $-1 $262 $161 #
point $-1 0.128518519929991 0 0.2185 #
attrib_edge_convexity-kcp-attrib $-1 $472 $-1 $265 1 #
straight-curve $-1 -0.128518519929991 0 0.2185 0 -1 0 I I #
convexity-sys-attrib $-1 $-1 $268 $167 #
convexity-sys-attrib $-1 $-1 $270 $168 #
plane-surface $-1 0.25 0 0 -1 0 0 0 0 1 forward_v I I I I #
coedge $-1 $278 $276 $280 $389 reversed $173 $-1 #
edge $-1 $291 -0.21850000000000003 $391 0.21850000000000003 $290 $473 forward 7 unknown #
vertex $-1 $389 $474 #
straight-curve $-1 -0.25 -0.0935 0 0 0 -1 I I #
edge $-1 $387 -0.0935 $391 0.0935 $385 $475 forward 7 unknown #
straight-curve $-1 0 -0.0935 -0.21850000000000003 -1 0 0 I I #
vertex $-1 $283 $476 #
straight-curve $-1 0 0.0935 -0.21850000000000003 1 0 0 I I #
point $-1 0.25 0.0935 -0.21850000000000003 #
point $-1 0.25 -0.0935 -0.21850000000000003 #
straight-curve $-1 -0.25 0 0.21850000000000003 0 -1 0 I I #
point $-1 -0.25 0.0935 0.21850000000000003 #
point $-1 -0.25 -0.0935 0.21850000000000003 #
straight-curve $-1 0.25 -0.0935 0 0 0 -1 I I #
straight-curve $-1 0.25 0.0935 0 0 0 -1 I I #
point $-1 0.125 0 0.093500000000000055 #
face $-1 $477 $421 $31 $-1 $205 reversed single #
coedge $-1 $409 $427 $411 $478 forward $304 $-1 #
coedge $-1 $305 $313 $479 $480 reversed $196 $-1 #
coedge $-1 $481 $431 $305 $405 reversed $482 $-1 #
edge $-1 $483 -0.064259259964995499 $319 0.18574074003500454 $305 $484 forward 7 unknown #
coedge $-1 $307 $306 $426 $485 forward $120 $-1 #
coedge $-1 $486 $429 $306 $408 reversed $487 $-1 #
edge $-1 $415 0.12851851992999097 $488 0.25 $407 $489 forward 7 unknown #
coedge $-1 $427 $402 $307 $410 reversed $304 $-1 #
edge $-1 $490 -0.25 $414 -0.12851851992999097 $409 $491 forward 7 unknown #
coedge $-1 $317 $308 $402 $478 reversed $413 $-1 #
coedge $-1 $308 $317 $486 $492 reversed $413 $-1 #
loop $-1 $-1 $412 $493 #
vertex $-1 $309 $494 #
vertex $-1 $408 $495 #
straight-curve $-1 -0.12851851992999097 -0.04675 0.21850000000000003 0 1 0 I I #
coedge $-1 $496 $479 $310 $418 forward $497 $-1 #
edge $-1 $424 -0.0935 $422 0.0935 $310 $498 forward 7 unknown #
coedge $-1 $420 $311 $499 $500 forward $421 $-1 #
coedge $-1 $311 $419 $496 $501 reversed $421 $-1 #
loop $-1 $-1 $419 $401 #
vertex $-1 $501 $502 #
straight-curve $-1 -0.25 0.0935 0 0 0 -1 I I #
vertex $-1 $418 $503 #
straight-curve $-1 -0.25 -0.0935 0 0 0 -1 I I #
coedge $-1 $316 $315 $406 $485 reversed $318 $-1 #
coedge $-1 $402 $409 $315 $428 forward $304 $-1 #
edge $-1 $490 -0.21850000000000003 $319 -2.7755575615628914e-017 $315 $425 forward 7 unknown #
coedge $-1 $407 $486 $316 $430 reversed $487 $-1 #
edge $-1 $488 -0.21850000000000003 $320 -8.5678416577264144e-017 $429 $423 forward 7 unknown #
coedge $-1 $404 $499 $122 $202 reversed $482 $-1 #
point $-1 -0.25 -0.0935 2.7755575615628914e-017 #
point $-1 -0.25 0.0935 8.5678416577264144e-017 #
face $-1 $458 $445 $24 $-1 $121 forward single #
coedge $-1 $436 $323 $444 $504 reversed $204 $-1 #
coedge $-1 $323 $435 $324 $439 forward $204 $-1 #
edge $-1 $219 -0.18574074003500451 $446 0.064259259964995499 $323 $505 forward 7 unknown #
coedge $-1 $325 $324 $506 $507 reversed $124 $-1 #
edge $-1 $508 -0.21850000000000003 $219 0 $324 $462 forward 7 unknown #
edge $-1 $509 -0.21850000000000003 $334 0 $325 $510 forward 7 unknown #
coedge $-1 $460 $326 $453 $450 forward $442 $-1 #
loop $-1 $-1 $326 $511 #
coedge $-1 $506 $328 $331 $448 forward $445 $-1 #
coedge $-1 $328 $506 $435 $504 forward $445 $-1 #
loop $-1 $-1 $328 $434 #
vertex $-1 $437 $512 #
straight-curve $-1 0.128518519929991 -0.04675 0.21850000000000003 0 -1 0 I I #
edge $-1 $333 0.128518519929991 $509 0.25 $331 $491 forward 7 unknown #
point $-1 0.128518519929991 -0.0935 0.2185 #
edge $-1 $334 0 $513 0.21850000000000003 $441 $510 forward 7 unknown #
point $-1 0.25 -0.0935 0 #
coedge $-1 $453 $336 $339 $457 reversed $454 $-1 #
coedge $-1 $336 $452 $441 $450 reversed $454 $-1 #
loop $-1 $-1 $336 $514 #
straight-curve $-1 0.22048450000000003 -0.0935 -0.053087406790593955 -0.48592592028003612 0 -0.87400000000000011 I I #
coedge $-1 $339 $338 $460 $515 forward $340 $-1 #
edge $-1 $513 -0.25 $341 -0.12851851992999097 $452 $516 forward 7 unknown #
face $-1 $514 $340 $24 $-1 $517 reversed single #
point $-1 0.12851851992999097 -0.0935 -0.21850000000000003 #
coedge $-1 $344 $441 $456 $515 reversed $442 $-1 #
vertex $-1 $515 $518 #
straight-curve $-1 0.25 0.0935 0 0 0 -1 I I #
straight-curve $-1 0 0.0935 -0.21850000000000003 1 0 0 I I #
straight-curve $-1 0.128518519929991 0.187 0.2185 -0.48592592028003601 0 0.874 I I #
attrib_edge_convexity-kcp-attrib $-1 $519 $357 $231 1 #
point $-1 0.128518519929991 0.187 0.2185 #
point $-1 0.25 0.187 0 #
convexity-sys-attrib $-1 $-1 $369 $249 #
straight-curve $-1 0.25 0 0 0 -1 0 I I #
attrib_edge_convexity-kcp-attrib $-1 $520 $-1 $377 1 #
straight-curve $-1 0.128518519929991 0 0.2185 0 -1 0 I I #
convexity-sys-attrib $-1 $-1 $380 $265 #
straight-curve $-1 -0.25 0.0935 0 0 0 -1 I I #
point $-1 -0.25 -0.0935 -0.21850000000000003 #
straight-curve $-1 -0.25 0 -0.21850000000000003 0 1 0 I I #
point $-1 -0.25 0.0935 -0.21850000000000003 #
face $-1 $521 $487 $31 $-1 $205 reversed single #
edge $-1 $319 -0.060740740035004508 $414 0.18925925996499551 $402 $522 forward 7 unknown #
coedge $-1 $417 $523 $403 $480 forward $497 $-1 #
edge $-1 $483 0.12851851992999097 $424 0.25 $403 $516 forward 7 unknown #
coedge $-1 $499 $404 $523 $524 reversed $482 $-1 #
loop $-1 $-1 $499 $525 #
vertex $-1 $480 $526 #
straight-curve $-1 -0.15974375996499549 -0.0935 -0.16233740679059394 -0.48592592028003601 0 0.87400000000000011 I I #
edge $-1 $488 -0.0935 $490 0.0935 $426 $527 forward 7 unknown #
coedge $-1 $429 $407 $412 $492 forward $487 $-1 #
loop $-1 $-1 $486 $477 #
vertex $-1 $408 $528 #
straight-curve $-1 0 0.0935 0.21850000000000003 -1 0 0 I I #
vertex $-1 $485 $529 #
straight-curve $-1 0 -0.0935 0.21850000000000003 1 0 0 I I #
edge $-1 $415 -0.18925925996499551 $320 0.060740740035004459 $486 $530 forward 7 unknown #
face $-1 $525 $413 $31 $-1 $531 reversed single #
point $-1 -0.12851851992999097 -0.0935 0.21850000000000003 #
point $-1 -0.12851851992999097 0.0935 0.21850000000000003 #
coedge $-1 $523 $417 $420 $501 forward $497 $-1 #
loop $-1 $-1 $523 $521 #
straight-curve $-1 -0.25 0 -0.21850000000000003 0 1 0 I I #
coedge $-1 $431 $481 $419 $500 reversed $482 $-1 #
edge $-1 $320 -0.18574074003500457 $532 0.064259259964995499 $419 $533 forward 7 unknown #
edge $-1 $422 -0.25 $532 -0.12851851992999097 $420 $463 forward 7 unknown #
point $-1 -0.25 0.0935 -0.21850000000000003 #
point $-1 -0.25 -0.0935 -0.21850000000000003 #
edge $-1 $508 -0.25 $446 -0.128518519929991 $435 $489 forward 7 unknown #
straight-curve $-1 0.15974375996499551 0.0935 0.16233740679059394 -0.48592592028003601 0 0.87400000000000011 I I #
coedge $-1 $444 $443 $438 $507 forward $445 $-1 #
edge $-1 $509 -0.0935 $508 0.0935 $438 $534 forward 7 unknown #
vertex $-1 $507 $535 #
vertex $-1 $507 $536 #
straight-curve $-1 0.25 -0.0935 0 0 0 -1 I I #
face $-1 $-1 $442 $24 $-1 $125 reversed single #
point $-1 0.128518519929991 0.0935 0.2185 #
vertex $-1 $450 $537 #
face $-1 $511 $454 $24 $-1 $197 reversed single #
edge $-1 $461 -0.0935 $513 0.0935 $460 $538 forward 7 unknown #
straight-curve $-1 0 -0.0935 -0.21850000000000003 -1 0 0 I I #
plane-surface $-1 0 0 -0.21850000000000003 0 0 1 1 0 0 forward_v I I I I #
point $-1 0.25 0.0935 -0.21850000000000003 #
convexity-sys-attrib $-1 $-1 $465 $231 #
convexity-sys-attrib $-1 $-1 $470 $377 #
face $-1 $493 $497 $31 $-1 $517 reversed single #
straight-curve $-1 -0.22048450000000003 -0.0935 0.053087406790593969 0.48592592028003612 0 0.87400000000000011 I I #
coedge $-1 $479 $496 $481 $524 forward $497 $-1 #
edge $-1 $532 -0.14024999999999999 $483 0.04675 $523 $539 forward 7 unknown #
face $-1 $-1 $482 $31 $-1 $540 reversed single #
point $-1 -0.12851851992999097 -0.0935 -0.2185 #
straight-curve $-1 -0.25 0 0.21850000000000003 0 -1 0 I I #
point $-1 -0.25 0.0935 0.21850000000000003 #
point $-1 -0.25 -0.0935 0.21850000000000003 #
straight-curve $-1 -0.22048450000000003 0.093500000000000014 0.053087406790593969 -0.48592592028003612 0 -0.87400000000000011 I I #
plane-surface $-1 -0.25 -0.0935 2.7755575615628914e-017 -0.87400000000000011 0 0.48592592028003612 0 -1 0 forward_v I I I I #
vertex $-1 $500 $541 #
straight-curve $-1 -0.15974375996499549 0.0935 -0.16233740679059394 0.48592592028003601 0 -0.87400000000000011 I I #
straight-curve $-1 0.25 0 0.21850000000000003 0 1 0 I I #
point $-1 0.25 0.0935 0.21850000000000003 #
point $-1 0.25 -0.0935 0.21850000000000003 #
point $-1 0.25 -0.0935 -0.21850000000000003 #
straight-curve $-1 0.25 0 -0.21850000000000003 0 -1 0 I I #
straight-curve $-1 -0.12851851992999097 -0.04675 -0.21850000000000003 0 -1 0 I I #
plane-surface $-1 -0.12851851992999097 -0.0935 -0.2185 -0.87400000000000011 0 -0.48592592028003601 0 -1 0 forward_v I I I I #
point $-1 -0.12851851992999097 0.0935 -0.2185 #
End-of-ACIS-data 