105 1057 1 0                            
body $-1 $1 $-1 $-1 #
lump $-1 $-1 $2 $0 #
shell $-1 $-1 $-1 $3 $1 #
face $-1 $4 $5 $2 $-1 $6 reversed single #
face $-1 $7 $8 $2 $-1 $9 forward single #
loop $-1 $10 $11 $3 #
plane-surface $-1 0 0 0 0 0 1 1 0 0 0 #
face $-1 $12 $13 $2 $-1 $14 reversed single #
loop $-1 $15 $16 $4 #
plane-surface $-1 0 0 0.375 0 0 1 1 0 0 0 #
loop $-1 $17 $18 $3 #
coedge $-1 $11 $11 $19 $20 0 $5 $-1 #
face $-1 $21 $22 $2 $-1 $23 reversed single #
loop $-1 $24 $25 $7 #
cone-surface $-1 2.625 0 0 0 0 1 0.3125 0 0 1 0 1 0 #
loop $-1 $26 $27 $4 #
coedge $-1 $16 $16 $25 $28 1 $8 $-1 #
loop $-1 $29 $30 $3 #
coedge $-1 $18 $18 $31 $32 0 $10 $-1 #
coedge $-1 $19 $19 $11 $20 1 $24 $-1 #
edge $-1 $33 $33 $19 $34 0 #
face $-1 $35 $36 $2 $-1 $37 reversed single #
loop $-1 $38 $39 $12 #
cone-surface $-1 -2.625 0 0 0 0 1 0.3125 0 0 1 0 1 0 #
loop $-1 $-1 $19 $7 #
coedge $-1 $25 $25 $16 $28 0 $13 $-1 #
loop $-1 $40 $41 $4 #
coedge $-1 $27 $27 $39 $42 1 $15 $-1 #
edge $-1 $43 $43 $25 $44 0 #
loop $-1 $45 $46 $3 #
coedge $-1 $30 $30 $47 $48 0 $17 $-1 #
coedge $-1 $31 $31 $18 $32 1 $38 $-1 #
edge $-1 $49 $49 $31 $50 0 #
vertex $-1 $20 $51 #
ellipse-curve $-1 2.625 0 0 0 0 1 -0.3125 0 0 1 #
face $-1 $52 $53 $2 $-1 $54 reversed single #
loop $-1 $55 $56 $21 #
cone-surface $-1 -2.625 0.718 0 0 0 1 0.0625 0 0 1 0 1 0 #
loop $-1 $-1 $31 $12 #
coedge $-1 $39 $39 $27 $42 0 $22 $-1 #
loop $-1 $57 $58 $4 #
coedge $-1 $41 $41 $56 $59 1 $26 $-1 #
edge $-1 $60 $60 $39 $61 0 #
vertex $-1 $28 $62 #
ellipse-curve $-1 2.625 0 0.375 0 0 1 0.3125 0 0 1 #
loop $-1 $63 $64 $3 #
coedge $-1 $46 $46 $65 $66 0 $29 $-1 #
coedge $-1 $47 $47 $30 $48 1 $55 $-1 #
edge $-1 $67 $67 $47 $68 0 #
vertex $-1 $32 $69 #
ellipse-curve $-1 -2.625 0 0 0 0 1 -0.3125 0 0 1 #
point $-1 2.9375 0 0 #
face $-1 $70 $71 $2 $-1 $72 reversed single #
loop $-1 $73 $74 $35 #
cone-surface $-1 -2.625 -0.719 0 0 0 1 0.0625 0 0 1 0 1 0 #
loop $-1 $-1 $47 $21 #
coedge $-1 $56 $56 $41 $59 0 $36 $-1 #
loop $-1 $75 $76 $4 #
coedge $-1 $58 $58 $74 $77 1 $40 $-1 #
edge $-1 $78 $78 $56 $79 0 #
vertex $-1 $42 $80 #
ellipse-curve $-1 -2.625 0 0.375 0 0 1 0.3125 0 0 1 #
point $-1 2.9375 0 0.375 #
loop $-1 $81 $82 $3 #
coedge $-1 $64 $64 $83 $84 0 $45 $-1 #
coedge $-1 $65 $65 $46 $66 1 $73 $-1 #
edge $-1 $85 $85 $65 $86 0 #
vertex $-1 $48 $87 #
ellipse-curve $-1 -2.625 0.718 0 0 0 1 -0.0625 0 0 1 #
point $-1 -2.3125 0 0 #
face $-1 $88 $89 $2 $-1 $90 reversed single #
loop $-1 $91 $92 $52 #
cone-surface $-1 2.625 -0.719 0 0 0 1 0.0625 0 0 1 0 1 0 #
loop $-1 $-1 $65 $35 #
coedge $-1 $74 $74 $58 $77 0 $53 $-1 #
loop $-1 $93 $94 $4 #
coedge $-1 $76 $76 $92 $95 1 $57 $-1 #
edge $-1 $96 $96 $74 $97 0 #
vertex $-1 $59 $98 #
ellipse-curve $-1 -2.625 0.718 0.375 0 0 1 0.0625 0 0 1 #
point $-1 -2.3125 0 0.375 #
loop $-1 $99 $100 $3 #
coedge $-1 $82 $82 $101 $102 0 $63 $-1 #
coedge $-1 $83 $83 $64 $84 1 $91 $-1 #
edge $-1 $103 $103 $83 $104 0 #
vertex $-1 $66 $105 #
ellipse-curve $-1 -2.625 -0.719 0 0 0 1 -0.0625 0 0 1 #
point $-1 -2.5625 0.718 0 #
face $-1 $106 $107 $2 $-1 $108 reversed single #
loop $-1 $109 $110 $70 #
cone-surface $-1 2.625 0.718 0 0 0 1 0.0625 0 0 1 0 1 0 #
loop $-1 $-1 $83 $52 #
coedge $-1 $92 $92 $76 $95 0 $71 $-1 #
loop $-1 $111 $112 $4 #
coedge $-1 $94 $94 $110 $113 1 $75 $-1 #
edge $-1 $114 $114 $92 $115 0 #
vertex $-1 $77 $116 #
ellipse-curve $-1 -2.625 -0.719 0.375 0 0 1 0.0625 0 0 1 #
point $-1 -2.5625 0.718 0.375 #
loop $-1 $117 $118 $3 #
coedge $-1 $100 $100 $119 $120 0 $81 $-1 #
coedge $-1 $101 $101 $82 $102 1 $109 $-1 #
edge $-1 $121 $121 $101 $122 0 #
vertex $-1 $84 $123 #
ellipse-curve $-1 2.625 -0.719 0 0 0 1 -0.0625 0 0 1 #
point $-1 -2.5625 -0.719 0 #
face $-1 $124 $125 $2 $-1 $126 reversed single #
loop $-1 $127 $128 $88 #
cone-surface $-1 1.735 -0.719 0 0 0 1 0.0675 0 0 1 0 1 0 #
loop $-1 $-1 $101 $70 #
coedge $-1 $110 $110 $94 $113 0 $89 $-1 #
loop $-1 $129 $130 $4 #
coedge $-1 $112 $112 $128 $131 1 $93 $-1 #
edge $-1 $132 $132 $110 $133 0 #
vertex $-1 $95 $134 #
ellipse-curve $-1 2.625 -0.719 0.375 0 0 1 0.0625 0 0 1 #
point $-1 -2.5625 -0.719 0.375 #
loop $-1 $135 $136 $3 #
coedge $-1 $118 $118 $137 $138 0 $99 $-1 #
coedge $-1 $119 $119 $100 $120 1 $127 $-1 #
edge $-1 $139 $139 $119 $140 0 #
vertex $-1 $102 $141 #
ellipse-curve $-1 2.625 0.718 0 0 0 1 -0.0625 0 0 1 #
point $-1 2.6875 -0.719 0 #
face $-1 $142 $143 $2 $-1 $144 forward single #
loop $-1 $145 $146 $106 #
cone-surface $-1 -1.734 -0.719 0 0 0 1 0.0675 0 0 1 0 1 0 #
loop $-1 $-1 $119 $88 #
coedge $-1 $128 $128 $112 $131 0 $107 $-1 #
loop $-1 $147 $148 $4 #
coedge $-1 $130 $130 $146 $149 1 $111 $-1 #
edge $-1 $150 $150 $128 $151 0 #
vertex $-1 $113 $152 #
ellipse-curve $-1 2.625 0.718 0.375 0 0 1 0.0625 0 0 1 #
point $-1 2.6875 -0.719 0.375 #
loop $-1 $153 $154 $3 #
coedge $-1 $155 $156 $157 $158 0 $117 $-1 #
coedge $-1 $137 $137 $118 $138 1 $145 $-1 #
edge $-1 $159 $159 $137 $160 0 #
vertex $-1 $120 $161 #
ellipse-curve $-1 1.735 -0.719 0 0 0 1 -0.0675 0 0 1 #
point $-1 2.6875 0.718 0 #
face $-1 $162 $163 $2 $-1 $164 forward single #
loop $-1 $-1 $165 $124 #
plane-surface $-1 -3.125 0.875 0 -1 0 0 0 0 1 0 #
loop $-1 $-1 $137 $106 #
coedge $-1 $146 $146 $130 $149 0 $125 $-1 #
loop $-1 $166 $167 $4 #
coedge $-1 $148 $148 $168 $169 1 $129 $-1 #
edge $-1 $170 $170 $146 $171 0 #
vertex $-1 $131 $172 #
ellipse-curve $-1 1.735 -0.719 0.375 0 0 1 0.0675 0 0 1 #
point $-1 2.6875 0.718 0.375 #
loop $-1 $173 $174 $3 #
coedge $-1 $154 $154 $175 $176 1 $135 $-1 #
coedge $-1 $177 $136 $178 $179 0 $117 $-1 #
coedge $-1 $136 $177 $180 $181 0 $117 $-1 #
coedge $-1 $182 $183 $136 $158 1 $143 $-1 #
edge $-1 $184 $185 $157 $186 0 #
vertex $-1 $138 $187 #
ellipse-curve $-1 -1.734 -0.719 0 0 0 1 -0.0675 0 0 1 #
point $-1 1.8025 -0.719 0 #
face $-1 $188 $189 $2 $-1 $190 forward single #
loop $-1 $-1 $191 $142 #
plane-surface $-1 -3.125 -0.875 0 0 -1 0 0 0 -1 0 #
coedge $-1 $192 $193 $194 $195 1 $143 $-1 #
loop $-1 $-1 $196 $4 #
coedge $-1 $167 $167 $197 $198 0 $147 $-1 #
coedge $-1 $168 $168 $148 $169 0 $199 $-1 #
edge $-1 $200 $200 $168 $201 0 #
vertex $-1 $149 $202 #
ellipse-curve $-1 -1.734 -0.719 0.375 0 0 1 0.0675 0 0 1 #
point $-1 1.8025 -0.719 0.375 #
loop $-1 $203 $204 $3 #
coedge $-1 $174 $174 $205 $206 0 $153 $-1 #
coedge $-1 $175 $175 $154 $176 0 $207 $-1 #
edge $-1 $208 $208 $175 $209 0 #
coedge $-1 $156 $155 $210 $211 0 $117 $-1 #
coedge $-1 $212 $213 $155 $179 1 $214 $-1 #
edge $-1 $185 $215 $178 $216 0 #
coedge $-1 $217 $218 $156 $181 1 $163 $-1 #
edge $-1 $219 $184 $180 $220 0 #
coedge $-1 $221 $157 $218 $222 1 $143 $-1 #
coedge $-1 $157 $192 $212 $223 0 $143 $-1 #
vertex $-1 $222 $224 #
vertex $-1 $223 $225 #
straight-curve $-1 -3.125 0.875 0 0 1 0 #
point $-1 -1.6665 -0.719 0 #
face $-1 $226 $214 $2 $-1 $227 forward single #
loop $-1 $-1 $228 $162 #
plane-surface $-1 3.125 -0.875 0 1 0 0 0 0 -1 0 #
coedge $-1 $229 $230 $231 $232 0 $163 $-1 #
coedge $-1 $183 $165 $233 $234 0 $143 $-1 #
coedge $-1 $165 $235 $236 $237 0 $143 $-1 #
coedge $-1 $238 $239 $165 $195 0 $240 $-1 #
edge $-1 $241 $242 $194 $243 0 #
coedge $-1 $236 $244 $238 $245 0 $166 $-1 #
coedge $-1 $197 $197 $167 $198 1 $246 $-1 #
edge $-1 $247 $247 $197 $248 0 #
loop $-1 $249 $168 $226 #
vertex $-1 $169 $250 #
ellipse-curve $-1 1.735 0.718 0.375 0 0 1 -0.072 0 0 1 #
point $-1 -1.6665 -0.719 0.375 #
loop $-1 $251 $252 $3 #
coedge $-1 $204 $204 $253 $254 0 $173 $-1 #
coedge $-1 $205 $205 $174 $206 1 $255 $-1 #
edge $-1 $256 $256 $205 $257 0 #
loop $-1 $-1 $175 $258 #
vertex $-1 $176 $259 #
ellipse-curve $-1 1.735 0.718 0 0 0 -1 0.125 0 0 1 #
coedge $-1 $260 $261 $177 $211 1 $189 $-1 #
edge $-1 $215 $219 $210 $262 0 #
coedge $-1 $263 $178 $183 $223 1 $214 $-1 #
coedge $-1 $178 $264 $260 $265 0 $214 $-1 #
loop $-1 $-1 $266 $188 #
vertex $-1 $265 $267 #
straight-curve $-1 3.125 0.875 0 1 0 0 #
coedge $-1 $268 $180 $261 $269 1 $163 $-1 #
coedge $-1 $180 $229 $182 $222 0 $163 $-1 #
vertex $-1 $269 $270 #
straight-curve $-1 -3.125 -0.875 0 -1 0 0 #
coedge $-1 $235 $182 $271 $272 0 $143 $-1 #
edge $-1 $273 $184 $218 $274 0 #
edge $-1 $275 $185 $212 $276 0 #
point $-1 -3.125 -0.875 0 #
point $-1 -3.125 0.875 0 #
face $-1 $277 $199 $2 $-1 $278 reversed single #
plane-surface $-1 3.125 0.875 0 0 1 0 0 0 1 0 #
coedge $-1 $279 $280 $281 $282 1 $189 $-1 #
coedge $-1 $218 $191 $283 $284 0 $163 $-1 #
coedge $-1 $191 $285 $286 $287 0 $163 $-1 #
coedge $-1 $288 $289 $191 $232 1 $290 $-1 #
edge $-1 $291 $292 $231 $293 0 #
coedge $-1 $294 $295 $192 $234 1 $296 $-1 #
edge $-1 $241 $275 $233 $297 0 #
coedge $-1 $193 $221 $298 $299 1 $143 $-1 #
coedge $-1 $300 $196 $193 $237 1 $166 $-1 #
edge $-1 $301 $242 $193 $302 0 #
coedge $-1 $303 $194 $196 $245 1 $240 $-1 #
coedge $-1 $194 $303 $294 $304 0 $240 $-1 #
loop $-1 $-1 $238 $305 #
vertex $-1 $304 $306 #
vertex $-1 $195 $307 #
straight-curve $-1 -3.125 0.563 0.375 0 0 1 #
coedge $-1 $196 $308 $309 $310 0 $166 $-1 #
edge $-1 $311 $242 $238 $312 0 #
loop $-1 $313 $197 $314 #
vertex $-1 $198 $315 #
ellipse-curve $-1 -1.735 0.718 0.375 0 0 -1 -0.072 0 0 1 #
loop $-1 $-1 $316 $226 #
point $-1 1.663 0.718 0.375 #
loop $-1 $317 $318 $3 #
coedge $-1 $252 $252 $319 $320 0 $203 $-1 #
coedge $-1 $253 $253 $204 $254 1 $321 $-1 #
edge $-1 $322 $322 $253 $323 0 #
loop $-1 $-1 $205 $324 #
vertex $-1 $206 $325 #
ellipse-curve $-1 -1.735 0.718 0 0 0 1 0.125 0 0 1 #
face $-1 $314 $326 $2 $-1 $327 reversed single #
point $-1 1.86 0.718 0 #
coedge $-1 $280 $210 $213 $265 1 $189 $-1 #
coedge $-1 $210 $328 $217 $269 0 $189 $-1 #
straight-curve $-1 3.125 -0.875 0 0 -1 0 #
coedge $-1 $266 $212 $295 $329 0 $214 $-1 #
coedge $-1 $213 $330 $331 $332 0 $214 $-1 #
edge $-1 $333 $215 $213 $334 0 #
coedge $-1 $335 $263 $336 $337 0 $214 $-1 #
point $-1 3.125 0.875 0 #
coedge $-1 $338 $217 $339 $340 0 $163 $-1 #
edge $-1 $341 $219 $261 $342 0 #
point $-1 3.125 -0.875 0 #
coedge $-1 $283 $343 $221 $272 1 $344 $-1 #
edge $-1 $273 $345 $271 $346 0 #
vertex $-1 $284 $347 #
straight-curve $-1 -3.125 -0.875 0 0 0 -1 #
vertex $-1 $329 $348 #
straight-curve $-1 -3.125 0.875 0 0 0 -1 #
face $-1 $258 $349 $2 $-1 $350 reversed single #
cone-surface $-1 1.735 0.718 0.375 0 0 -1 -0.072 0 0 1 0 1 0 #
coedge $-1 $351 $228 $352 $353 0 $189 $-1 #
coedge $-1 $228 $260 $354 $355 0 $189 $-1 #
coedge $-1 $356 $357 $228 $282 0 $358 $-1 #
edge $-1 $359 $360 $281 $361 0 #
coedge $-1 $362 $271 $229 $284 1 $344 $-1 #
edge $-1 $292 $273 $283 $363 0 #
coedge $-1 $230 $364 $365 $366 1 $163 $-1 #
coedge $-1 $367 $368 $230 $287 1 $166 $-1 #
edge $-1 $369 $291 $230 $370 0 #
coedge $-1 $371 $231 $368 $372 1 $290 $-1 #
coedge $-1 $231 $371 $362 $373 1 $290 $-1 #
loop $-1 $-1 $288 $374 #
vertex $-1 $232 $375 #
vertex $-1 $373 $376 #
straight-curve $-1 -2.782 -0.875 0.188 0 0 -1 #
coedge $-1 $377 $233 $239 $304 1 $296 $-1 #
coedge $-1 $233 $378 $263 $329 1 $296 $-1 #
loop $-1 $379 $233 $380 #
straight-curve $-1 -3.125 0.875 0.188 0 1 0 #
coedge $-1 $381 $382 $235 $299 0 $383 $-1 #
edge $-1 $301 $345 $298 $384 0 #
coedge $-1 $385 $236 $382 $386 1 $166 $-1 #
vertex $-1 $299 $387 #
straight-curve $-1 -3.125 0.563 0.375 0 1 0 #
coedge $-1 $239 $238 $388 $389 1 $240 $-1 #
edge $-1 $390 $241 $239 $391 0 #
face $-1 $392 $240 $2 $-1 $393 reversed single #
point $-1 -3.125 0.563 0.188 #
point $-1 -3.125 0.563 0.375 #
coedge $-1 $244 $394 $395 $396 1 $166 $-1 #
coedge $-1 $397 $388 $244 $310 1 $398 $-1 #
edge $-1 $399 $311 $309 $400 0 #
vertex $-1 $389 $401 #
straight-curve $-1 -3.125 0.563 0.375 -1 0 0 #
loop $-1 $-1 $402 $314 #
face $-1 $403 $246 $2 $-1 $404 reversed single #
point $-1 -1.663 0.718 0.375 #
coedge $-1 $316 $316 $405 $406 1 $249 $-1 #
loop $-1 $407 $408 $3 #
coedge $-1 $318 $318 $409 $410 1 $251 $-1 #
coedge $-1 $319 $319 $252 $320 1 $411 $-1 #
edge $-1 $412 $412 $319 $413 0 #
loop $-1 $414 $253 $415 #
vertex $-1 $254 $416 #
ellipse-curve $-1 2.938 -0.719 0 0 0 1 0.0885 0 0 1 #
face $-1 $415 $417 $2 $-1 $418 reversed single #
point $-1 -1.86 0.718 0 #
loop $-1 $207 $419 $258 #
cone-surface $-1 1.735 0.718 0 0 0 1 0.125 0 0 1 0 1 0 #
coedge $-1 $261 $351 $420 $421 0 $189 $-1 #
edge $-1 $275 $422 $295 $423 0 #
coedge $-1 $264 $424 $425 $426 0 $214 $-1 #
coedge $-1 $427 $354 $264 $332 1 $428 $-1 #
edge $-1 $429 $333 $331 $430 0 #
vertex $-1 $332 $431 #
straight-curve $-1 3.125 0.875 0 0 0 -1 #
coedge $-1 $432 $266 $394 $433 0 $214 $-1 #
coedge $-1 $434 $395 $266 $337 1 $435 $-1 #
edge $-1 $422 $436 $336 $437 0 #
coedge $-1 $438 $268 $439 $440 0 $163 $-1 #
coedge $-1 $420 $441 $268 $340 1 $442 $-1 #
edge $-1 $341 $443 $339 $444 0 #
vertex $-1 $421 $445 #
straight-curve $-1 3.125 -0.875 0 0 0 -1 #
coedge $-1 $271 $446 $381 $447 0 $344 $-1 #
loop $-1 $448 $283 $449 #
vertex $-1 $447 $450 #
straight-curve $-1 -3.125 -0.563 0.188 0 1 0 #
point $-1 -3.125 -0.875 0.188 #
point $-1 -3.125 0.875 0.188 #
loop $-1 $451 $452 $277 #
plane-surface $-1 1.735 0.718 0.125 0 0 1 1 0 0 0 #
coedge $-1 $328 $279 $453 $454 1 $189 $-1 #
coedge $-1 $455 $456 $279 $353 1 $166 $-1 #
edge $-1 $359 $457 $279 $458 0 #
coedge $-1 $331 $459 $280 $355 1 $428 $-1 #
edge $-1 $333 $360 $354 $460 0 #
coedge $-1 $461 $281 $459 $462 1 $358 $-1 #
coedge $-1 $281 $461 $455 $463 0 $358 $-1 #
loop $-1 $-1 $357 $464 #
vertex $-1 $282 $465 #
vertex $-1 $462 $466 #
straight-curve $-1 3.125 0.563 0.188 0 0 -1 #
coedge $-1 $446 $283 $289 $373 0 $344 $-1 #
straight-curve $-1 -3.125 -0.875 0.188 -1 0 0 #
coedge $-1 $285 $467 $468 $469 0 $163 $-1 #
coedge $-1 $470 $471 $285 $366 0 $472 $-1 #
edge $-1 $369 $473 $365 $474 0 #
coedge $-1 $475 $286 $471 $476 1 $166 $-1 #
coedge $-1 $286 $385 $288 $372 0 $166 $-1 #
vertex $-1 $366 $477 #
straight-curve $-1 -2.782 -0.875 0.375 -1 0 0 #
coedge $-1 $289 $288 $478 $479 1 $290 $-1 #
edge $-1 $480 $291 $288 $481 0 #
edge $-1 $292 $482 $289 $483 0 #
face $-1 $484 $290 $2 $-1 $485 forward single #
point $-1 -2.782 -0.875 0.375 #
point $-1 -2.782 -0.875 0.188 #
coedge $-1 $378 $294 $486 $487 1 $296 $-1 #
coedge $-1 $295 $377 $434 $488 1 $296 $-1 #
loop $-1 $-1 $489 $380 #
face $-1 $305 $296 $2 $-1 $490 forward single #
coedge $-1 $491 $298 $343 $447 1 $383 $-1 #
coedge $-1 $298 $491 $300 $386 0 $383 $-1 #
loop $-1 $-1 $382 $492 #
straight-curve $-1 -3.125 -0.563 0.188 0 0 -1 #
coedge $-1 $368 $300 $493 $494 1 $166 $-1 #
edge $-1 $495 $301 $382 $496 0 #
point $-1 -3.125 -0.563 0.375 #
coedge $-1 $309 $486 $303 $389 0 $398 $-1 #
edge $-1 $390 $311 $388 $497 0 #
vertex $-1 $389 $498 #
straight-curve $-1 -3.125 0.563 0.188 -1 0 0 #
face $-1 $499 $398 $2 $-1 $500 reversed single #
plane-surface $-1 -3.125 0.563 0.375 0 -1 0 0 0 -1 0 #
coedge $-1 $308 $501 $335 $433 1 $166 $-1 #
coedge $-1 $336 $502 $308 $396 0 $435 $-1 #
edge $-1 $399 $436 $395 $503 0 #
coedge $-1 $486 $309 $502 $504 1 $398 $-1 #
loop $-1 $-1 $309 $392 #
vertex $-1 $504 $505 #
ellipse-curve $-1 -2.938 0.719 0.375 0 0 -1 0 -0.156 0 1 #
point $-1 -2.938 0.563 0.375 #
coedge $-1 $402 $402 $506 $507 0 $313 $-1 #
face $-1 $324 $508 $2 $-1 $509 forward single #
cone-surface $-1 -1.735 0.718 0.375 0 0 1 0.072 0 0 1 0 1 0 #
coedge $-1 $405 $405 $316 $406 0 $451 $-1 #
edge $-1 $510 $510 $405 $511 0 #
loop $-1 $512 $513 $3 #
coedge $-1 $408 $408 $514 $515 1 $317 $-1 #
coedge $-1 $409 $409 $318 $410 0 $516 $-1 #
edge $-1 $517 $517 $409 $518 0 #
loop $-1 $519 $319 $520 #
vertex $-1 $320 $521 #
ellipse-curve $-1 2.313 -0.719 0 0 0 1 0.0885 0 0 1 #
loop $-1 $-1 $522 $415 #
face $-1 $520 $321 $2 $-1 $523 reversed single #
point $-1 2.8495 -0.719 0 #
loop $-1 $255 $524 $324 #
cone-surface $-1 -1.735 0.718 0 0 0 -1 -0.125 0 0 1 0 1 0 #
coedge $-1 $419 $419 $452 $525 1 $326 $-1 #
coedge $-1 $526 $339 $328 $421 1 $442 $-1 #
edge $-1 $527 $341 $420 $528 0 #
vertex $-1 $488 $529 #
straight-curve $-1 -2.782 0.875 0.188 1 0 0 #
coedge $-1 $330 $530 $531 $532 0 $214 $-1 #
coedge $-1 $533 $534 $330 $426 1 $535 $-1 #
edge $-1 $536 $429 $425 $537 0 #
coedge $-1 $538 $331 $534 $539 0 $428 $-1 #
loop $-1 $540 $331 $541 #
vertex $-1 $539 $542 #
straight-curve $-1 3.125 0.875 0.188 1 0 0 #
point $-1 3.125 0.875 0.188 #
coedge $-1 $543 $335 $544 $545 0 $214 $-1 #
edge $-1 $436 $546 $335 $547 0 #
coedge $-1 $502 $336 $378 $488 0 $435 $-1 #
loop $-1 $-1 $395 $499 #
vertex $-1 $337 $548 #
straight-curve $-1 -2.782 0.875 0.375 0 0 1 #
coedge $-1 $549 $338 $550 $551 0 $163 $-1 #
coedge $-1 $552 $553 $338 $440 1 $554 $-1 #
edge $-1 $443 $555 $439 $556 0 #
coedge $-1 $339 $557 $552 $558 1 $442 $-1 #
loop $-1 $559 $420 $560 #
vertex $-1 $558 $561 #
straight-curve $-1 2.782 -0.875 0.188 -1 0 0 #
point $-1 3.125 -0.875 0.188 #
coedge $-1 $343 $362 $562 $563 0 $344 $-1 #
edge $-1 $564 $345 $381 $565 0 #
loop $-1 $-1 $566 $449 #
face $-1 $492 $344 $2 $-1 $567 reversed single #
point $-1 -3.125 -0.563 0.188 #
loop $-1 $-1 $405 $277 #
coedge $-1 $452 $452 $419 $525 0 $349 $-1 #
coedge $-1 $568 $569 $351 $454 0 $570 $-1 #
edge $-1 $527 $457 $453 $571 0 #
coedge $-1 $572 $352 $357 $463 1 $166 $-1 #
coedge $-1 $352 $573 $568 $574 0 $166 $-1 #
vertex $-1 $454 $575 #
straight-curve $-1 3.125 -0.563 0.375 0 -1 0 #
coedge $-1 $354 $538 $356 $462 0 $428 $-1 #
straight-curve $-1 3.125 0.563 0.188 0 -1 0 #
coedge $-1 $357 $356 $576 $577 0 $358 $-1 #
edge $-1 $578 $360 $356 $579 0 #
edge $-1 $580 $359 $357 $581 0 #
face $-1 $582 $358 $2 $-1 $583 forward single #
point $-1 3.125 0.563 0.375 #
point $-1 3.125 0.563 0.188 #
coedge $-1 $364 $584 $585 $586 0 $163 $-1 #
coedge $-1 $587 $588 $364 $469 1 $589 $-1 #
edge $-1 $590 $473 $468 $591 0 #
coedge $-1 $592 $365 $588 $593 1 $472 $-1 #
coedge $-1 $365 $592 $367 $476 0 $472 $-1 #
loop $-1 $-1 $471 $594 #
vertex $-1 $593 $595 #
straight-curve $-1 -2.469 -0.875 0.188 0 0 -1 #
coedge $-1 $596 $367 $597 $598 1 $166 $-1 #
edge $-1 $599 $369 $471 $600 0 #
point $-1 -2.469 -0.875 0.375 #
coedge $-1 $493 $562 $371 $479 0 $601 $-1 #
edge $-1 $482 $480 $371 $602 0 #
vertex $-1 $479 $603 #
straight-curve $-1 -2.782 -0.875 0.375 0 -1 0 #
vertex $-1 $479 $604 #
straight-curve $-1 -2.782 -0.719 0.188 0 1 0 #
face $-1 $605 $606 $2 $-1 $607 forward single #
plane-surface $-1 -2.782 -0.719 0.375 -1 0 0 0 0 1 0 #
coedge $-1 $388 $397 $377 $487 0 $398 $-1 #
edge $-1 $608 $390 $486 $609 0 #
edge $-1 $422 $608 $434 $610 0 #
coedge $-1 $489 $489 $611 $612 1 $379 $-1 #
plane-surface $-1 0 0 0.188 0 0 1 1 0 0 0 #
coedge $-1 $382 $381 $613 $614 0 $383 $-1 #
face $-1 $615 $383 $2 $-1 $616 forward single #
coedge $-1 $613 $478 $385 $494 0 $601 $-1 #
edge $-1 $480 $495 $493 $617 0 #
vertex $-1 $614 $618 #
straight-curve $-1 -3.125 -0.563 0.375 -1 0 0 #
straight-curve $-1 -2.938 0.563 0.375 0 0 1 #
point $-1 -2.938 0.563 0.188 #
face $-1 $619 $435 $2 $-1 $620 reversed single #
cone-surface $-1 -2.938 0.719 0.375 0 0 1 -0.156 0 0 1 0 1 0 #
coedge $-1 $394 $621 $622 $623 0 $166 $-1 #
coedge $-1 $395 $434 $397 $504 0 $435 $-1 #
straight-curve $-1 -2.782 0.875 0.375 0 1 0 #
edge $-1 $608 $399 $502 $624 0 #
point $-1 -2.782 0.719 0.375 #
coedge $-1 $506 $506 $402 $507 1 $625 $-1 #
edge $-1 $626 $626 $506 $627 0 #
loop $-1 $625 $628 $403 #
plane-surface $-1 -1.735 0.718 0.125 0 0 -1 -1 0 0 0 #
vertex $-1 $406 $629 #
ellipse-curve $-1 1.735 0.718 0.125 0 0 1 0.072 0 0 1 #
loop $-1 $630 $631 $3 #
coedge $-1 $513 $513 $632 $633 1 $407 $-1 #
coedge $-1 $514 $514 $408 $515 0 $634 $-1 #
edge $-1 $635 $635 $514 $636 0 #
loop $-1 $-1 $409 $637 #
vertex $-1 $410 $638 #
ellipse-curve $-1 2.313 0.719 0 0 0 -1 -0.0885 0 0 1 #
loop $-1 $-1 $639 $520 #
face $-1 $640 $411 $2 $-1 $641 reversed single #
point $-1 2.2245 -0.719 0 #
coedge $-1 $522 $522 $642 $643 0 $414 $-1 #
cone-surface $-1 2.938 -0.719 0.375 0 0 -1 -0.0885 0 0 1 0 1 0 #
coedge $-1 $524 $524 $628 $644 0 $417 $-1 #
edge $-1 $645 $645 $419 $646 0 #
coedge $-1 $557 $420 $569 $647 1 $442 $-1 #
vertex $-1 $647 $648 #
straight-curve $-1 3.125 -0.875 0.188 0 -1 0 #
point $-1 -2.782 0.875 0.188 #
coedge $-1 $424 $649 $650 $651 1 $214 $-1 #
coedge $-1 $652 $653 $424 $532 1 $166 $-1 #
edge $-1 $654 $536 $424 $655 0 #
coedge $-1 $656 $425 $653 $657 1 $535 $-1 #
coedge $-1 $425 $656 $427 $539 1 $535 $-1 #
loop $-1 $-1 $533 $658 #
vertex $-1 $426 $659 #
straight-curve $-1 2.782 0.875 0.188 0 0 -1 #
coedge $-1 $459 $427 $660 $661 0 $428 $-1 #
edge $-1 $429 $662 $534 $663 0 #
loop $-1 $-1 $664 $541 #
face $-1 $464 $428 $2 $-1 $665 reversed single #
point $-1 2.782 0.875 0.188 #
coedge $-1 $666 $432 $667 $668 0 $214 $-1 #
coedge $-1 $622 $669 $432 $545 1 $670 $-1 #
edge $-1 $546 $671 $544 $672 0 #
vertex $-1 $545 $673 #
straight-curve $-1 -2.469 0.875 0.375 1 0 0 #
point $-1 -2.782 0.875 0.375 #
coedge $-1 $674 $438 $675 $676 0 $163 $-1 #
coedge $-1 $677 $678 $438 $551 1 $166 $-1 #
edge $-1 $555 $679 $438 $680 0 #
coedge $-1 $681 $439 $441 $558 0 $554 $-1 #
coedge $-1 $439 $681 $677 $682 0 $554 $-1 #
loop $-1 $-1 $553 $683 #
vertex $-1 $440 $684 #
straight-curve $-1 2.782 -0.875 0.375 0 0 1 #
coedge $-1 $441 $526 $685 $686 1 $442 $-1 #
edge $-1 $443 $687 $552 $688 0 #
loop $-1 $-1 $642 $560 #
face $-1 $689 $442 $2 $-1 $690 forward single #
point $-1 2.782 -0.875 0.188 #
coedge $-1 $478 $613 $446 $563 1 $601 $-1 #
edge $-1 $482 $564 $562 $691 0 #
vertex $-1 $614 $692 #
straight-curve $-1 -3.125 -0.563 0.188 -1 0 0 #
coedge $-1 $566 $566 $693 $694 0 $448 $-1 #
plane-surface $-1 0 0 0.188 0 0 -1 -1 0 0 0 #
coedge $-1 $695 $453 $456 $574 1 $570 $-1 #
coedge $-1 $453 $695 $526 $647 0 $570 $-1 #
loop $-1 $-1 $568 $689 #
straight-curve $-1 3.125 -0.563 0.375 0 0 1 #
coedge $-1 $653 $455 $696 $697 1 $166 $-1 #
coedge $-1 $456 $677 $698 $699 0 $166 $-1 #
edge $-1 $700 $457 $568 $701 0 #
point $-1 3.125 -0.563 0.375 #
coedge $-1 $660 $696 $461 $577 1 $702 $-1 #
edge $-1 $578 $580 $576 $703 0 #
vertex $-1 $577 $704 #
straight-curve $-1 3.125 0.563 0.188 1 0 0 #
vertex $-1 $577 $705 #
straight-curve $-1 3.125 0.563 0.375 1 0 0 #
face $-1 $658 $702 $2 $-1 $706 reversed single #
plane-surface $-1 3.125 0.563 0.375 0 1 0 0 0 1 0 #
coedge $-1 $467 $707 $708 $709 0 $163 $-1 #
coedge $-1 $710 $711 $467 $586 1 $712 $-1 #
edge $-1 $713 $590 $585 $714 0 #
coedge $-1 $715 $468 $711 $716 0 $589 $-1 #
coedge $-1 $468 $715 $470 $593 0 $589 $-1 #
loop $-1 $717 $468 $718 #
vertex $-1 $716 $719 #
straight-curve $-1 -2.469 -0.875 0.188 -1 0 0 #
coedge $-1 $471 $470 $720 $721 0 $472 $-1 #
edge $-1 $722 $473 $470 $723 0 #
face $-1 $724 $472 $2 $-1 $725 forward single #
point $-1 -2.469 -0.875 0.188 #
coedge $-1 $708 $475 $710 $726 0 $166 $-1 #
coedge $-1 $720 $727 $475 $598 0 $728 $-1 #
edge $-1 $729 $599 $597 $730 0 #
vertex $-1 $721 $731 #
straight-curve $-1 -2.469 -0.875 0.375 2.84672570416707e-15 -1 0 #
loop $-1 $-1 $493 $615 #
straight-curve $-1 -2.782 -0.719 0.375 0 5.93702152205966e-16 1 #
point $-1 -2.782 -0.719 0.375 #
point $-1 -2.782 -0.719 0.188 #
face $-1 $732 $670 $2 $-1 $733 reversed single #
loop $-1 $734 $667 $484 #
plane-surface $-1 0 0 0.188 0 0 1 1 0 0 0 #
vertex $-1 $504 $735 #
ellipse-curve $-1 -2.938 0.719 0.188 0 0 -1 0 -0.156 0 1 #
straight-curve $-1 -2.782 0.719 0.188 0 -1 0 #
coedge $-1 $611 $611 $489 $612 0 $736 $-1 #
edge $-1 $737 $737 $611 $738 0 #
coedge $-1 $562 $493 $491 $614 1 $601 $-1 #
edge $-1 $564 $495 $613 $739 0 #
face $-1 $374 $601 $2 $-1 $740 reversed single #
plane-surface $-1 -3.125 -0.563 0.375 0 -1 0 0 0 -1 0 #
ellipse-curve $-1 -2.938 -0.719 0.375 0 0 1 0 0.156 0 1 #
point $-1 -2.938 -0.563 0.375 #
face $-1 $741 $742 $2 $-1 $743 reversed single #
plane-surface $-1 -2.782 0.719 0.375 1 0 0 0 0 -1 0 #
coedge $-1 $501 $744 $745 $746 0 $166 $-1 #
coedge $-1 $747 $544 $501 $623 1 $670 $-1 #
edge $-1 $748 $546 $622 $749 0 #
straight-curve $-1 -2.782 0.719 0.375 0 5.93702152205966e-16 1 #
loop $-1 $-1 $506 $403 #
vertex $-1 $507 $750 #
ellipse-curve $-1 -1.735 0.718 0.125 0 0 -1 -0.072 0 0 1 #
coedge $-1 $628 $628 $524 $644 1 $508 $-1 #
point $-1 1.663 0.718 0.125 #
loop $-1 $751 $752 $3 #
coedge $-1 $631 $631 $753 $754 1 $512 $-1 #
coedge $-1 $632 $632 $513 $633 0 $755 $-1 #
edge $-1 $756 $756 $632 $757 0 #
loop $-1 $-1 $514 $758 #
vertex $-1 $515 $759 #
ellipse-curve $-1 2.938 0.719 0 0 0 -1 -0.0885 0 0 1 #
face $-1 $541 $760 $2 $-1 $761 reversed single #
point $-1 2.2245 0.719 0 #
coedge $-1 $639 $639 $762 $763 0 $519 $-1 #
face $-1 $764 $765 $2 $-1 $766 forward single #
cone-surface $-1 2.313 -0.719 0.375 0 0 -1 -0.0885 0 0 1 0 1 0 #
coedge $-1 $642 $642 $522 $643 1 $559 $-1 #
edge $-1 $767 $767 $642 $768 0 #
edge $-1 $769 $769 $524 $770 0 #
vertex $-1 $525 $771 #
ellipse-curve $-1 1.735 0.718 0.125 0 0 -1 -0.125 0 0 1 #
edge $-1 $772 $527 $569 $773 0 #
point $-1 3.125 -0.563 0.188 #
coedge $-1 $530 $774 $775 $776 0 $214 $-1 #
coedge $-1 $777 $778 $530 $651 0 $779 $-1 #
edge $-1 $654 $780 $650 $781 0 #
coedge $-1 $782 $531 $778 $783 1 $166 $-1 #
coedge $-1 $531 $572 $533 $657 0 $166 $-1 #
vertex $-1 $651 $784 #
straight-curve $-1 2.782 0.875 0.375 1 0 0 #
coedge $-1 $534 $533 $785 $786 1 $535 $-1 #
edge $-1 $787 $536 $533 $788 0 #
face $-1 $758 $535 $2 $-1 $789 forward single #
point $-1 2.782 0.875 0.375 #
coedge $-1 $785 $576 $538 $661 1 $702 $-1 #
edge $-1 $662 $578 $660 $790 0 #
vertex $-1 $786 $791 #
straight-curve $-1 2.782 0.719 0.188 0 -1 0 #
coedge $-1 $664 $664 $792 $793 0 $540 $-1 #
plane-surface $-1 0 0 0.188 0 0 -1 -1 0 0 0 #
coedge $-1 $794 $543 $795 $796 1 $214 $-1 #
coedge $-1 $797 $798 $543 $668 1 $606 $-1 #
edge $-1 $671 $799 $667 $800 0 #
coedge $-1 $544 $747 $797 $801 0 $670 $-1 #
loop $-1 $-1 $622 $605 #
vertex $-1 $801 $802 #
straight-curve $-1 -2.469 0.875 0.188 4.74961721764773e-15 0 -1 #
point $-1 -2.469 0.875 0.375 #
coedge $-1 $707 $549 $803 $804 0 $163 $-1 #
coedge $-1 $805 $806 $549 $676 1 $807 $-1 #
edge $-1 $679 $808 $675 $809 0 #
coedge $-1 $573 $550 $553 $682 1 $166 $-1 #
coedge $-1 $550 $810 $805 $811 0 $166 $-1 #
vertex $-1 $676 $812 #
straight-curve $-1 2.469 -0.875 0.375 -1 0 0 #
coedge $-1 $553 $552 $813 $814 0 $554 $-1 #
edge $-1 $815 $555 $553 $816 0 #
face $-1 $817 $554 $2 $-1 $818 reversed single #
point $-1 2.782 -0.875 0.375 #
coedge $-1 $819 $813 $557 $686 0 $820 $-1 #
edge $-1 $687 $772 $685 $821 0 #
vertex $-1 $814 $822 #
straight-curve $-1 2.782 -0.719 0.188 0 1 0 #
face $-1 $823 $570 $2 $-1 $824 reversed single #
plane-surface $-1 0 0 0.188 0 0 1 1 0 0 0 #
ellipse-curve $-1 -2.938 -0.719 0.188 0 0 1 0 0.156 0 1 #
point $-1 -2.938 -0.563 0.188 #
coedge $-1 $693 $693 $566 $694 1 $742 $-1 #
edge $-1 $825 $825 $693 $826 0 #
coedge $-1 $569 $568 $819 $827 1 $570 $-1 #
coedge $-1 $576 $785 $572 $697 0 $702 $-1 #
edge $-1 $787 $580 $696 $828 0 #
coedge $-1 $813 $819 $573 $699 1 $820 $-1 #
edge $-1 $815 $700 $698 $829 0 #
vertex $-1 $827 $830 #
straight-curve $-1 3.125 -0.563 0.375 1 0 0 #
loop $-1 $-1 $696 $582 #
straight-curve $-1 2.938 0.563 0.375 0 0 1 #
point $-1 2.938 0.563 0.188 #
point $-1 2.938 0.563 0.375 #
cone-surface $-1 2.938 0.719 0.375 0 0 -1 0.156 0 0 1 0 1 0 #
coedge $-1 $584 $674 $831 $832 1 $163 $-1 #
coedge $-1 $833 $596 $584 $709 1 $166 $-1 #
edge $-1 $834 $713 $584 $835 0 #
coedge $-1 $836 $585 $596 $726 1 $712 $-1 #
coedge $-1 $585 $836 $587 $716 1 $712 $-1 #
loop $-1 $-1 $710 $837 #
vertex $-1 $586 $838 #
straight-curve $-1 -2.157 -0.875 0.188 0 0 -1 #
coedge $-1 $588 $587 $839 $840 0 $589 $-1 #
edge $-1 $590 $841 $711 $842 0 #
loop $-1 $-1 $843 $718 #
face $-1 $594 $589 $2 $-1 $844 reversed single #
point $-1 -2.157 -0.875 0.188 #
coedge $-1 $839 $597 $592 $721 1 $728 $-1 #
edge $-1 $722 $599 $720 $845 0 #
vertex $-1 $721 $846 #
straight-curve $-1 -2.469 -0.875 0.188 0 -1 0 #
face $-1 $837 $728 $2 $-1 $847 reversed single #
plane-surface $-1 -2.469 -0.875 0.375 1 0 0 0 0 -1 0 #
edge $-1 $729 $713 $710 $848 0 #
coedge $-1 $597 $839 $836 $849 0 $728 $-1 #
loop $-1 $-1 $597 $724 #
vertex $-1 $849 $850 #
ellipse-curve $-1 -2.313 -0.719 0.375 0 0 1 -0.156 0 0 1 #
point $-1 -2.469 -0.719 0.375 #
face $-1 $851 $852 $2 $-1 $853 reversed single #
plane-surface $-1 -2.469 0.875 0.375 -1 0 0 0 0 1 0 #
loop $-1 $-1 $854 $484 #
point $-1 -2.782 0.719 0.188 #
loop $-1 $855 $611 $856 #
vertex $-1 $612 $857 #
ellipse-curve $-1 -2.938 0.719 0.188 0 0 1 0.0885 0 0 1 #
straight-curve $-1 -2.938 -0.563 0.375 0 0 1 #
cone-surface $-1 -2.938 -0.719 0.375 0 0 -1 -0.156 0 0 1 0 1 0 #
face $-1 $858 $859 $2 $-1 $860 reversed single #
loop $-1 $755 $693 $619 #
cone-surface $-1 -2.938 -0.719 0.375 0 0 1 0.0885 0 0 1 0 1 0 #
coedge $-1 $621 $861 $862 $863 1 $166 $-1 #
coedge $-1 $864 $865 $621 $746 1 $852 $-1 #
edge $-1 $866 $748 $745 $867 0 #
coedge $-1 $669 $622 $865 $868 1 $670 $-1 #
vertex $-1 $868 $869 #
straight-curve $-1 -2.469 0.875 0.375 0 1 0 #
point $-1 -1.663 0.718 0.125 #
loop $-1 $-1 $870 $3 #
coedge $-1 $752 $752 $871 $872 0 $630 $-1 #
coedge $-1 $753 $753 $631 $754 0 $873 $-1 #
edge $-1 $874 $874 $753 $875 0 #
loop $-1 $-1 $632 $619 #
vertex $-1 $633 $876 #
ellipse-curve $-1 -2.938 -0.719 0 0 0 -1 0.0885 0 0 1 #
face $-1 $718 $877 $2 $-1 $878 reversed single #
point $-1 2.8495 0.719 0 #
loop $-1 $516 $879 $637 #
cone-surface $-1 2.313 0.719 0.375 0 0 1 -0.0885 0 0 1 0 1 0 #
coedge $-1 $762 $762 $639 $763 1 $880 $-1 #
edge $-1 $881 $881 $762 $882 0 #
face $-1 $883 $807 $2 $-1 $884 reversed single #
loop $-1 $880 $803 $640 #
plane-surface $-1 0 0 0.188 0 0 1 1 0 0 0 #
vertex $-1 $643 $885 #
ellipse-curve $-1 2.938 -0.719 0.188 0 0 1 0.0885 0 0 1 #
vertex $-1 $644 $886 #
ellipse-curve $-1 -1.735 0.718 0.125 0 0 1 -0.125 0 0 1 #
point $-1 1.86 0.718 0.125 #
vertex $-1 $827 $887 #
straight-curve $-1 3.125 -0.563 0.188 1 0 0 #
coedge $-1 $649 $794 $888 $889 0 $214 $-1 #
coedge $-1 $890 $891 $649 $776 1 $892 $-1 #
edge $-1 $893 $780 $775 $894 0 #
coedge $-1 $895 $650 $891 $896 1 $779 $-1 #
coedge $-1 $650 $895 $652 $783 0 $779 $-1 #
loop $-1 $-1 $778 $897 #
vertex $-1 $896 $898 #
straight-curve $-1 2.469 0.875 0.188 0 0 -1 #
coedge $-1 $899 $652 $900 $901 1 $166 $-1 #
edge $-1 $902 $654 $778 $903 0 #
point $-1 2.469 0.875 0.375 #
coedge $-1 $696 $660 $656 $786 0 $702 $-1 #
edge $-1 $662 $787 $656 $904 0 #
vertex $-1 $786 $905 #
straight-curve $-1 2.782 0.875 0.375 0 1 0 #
plane-surface $-1 2.782 0.719 0.375 1 0 0 0 0 -1 0 #
ellipse-curve $-1 2.938 0.719 0.188 0 0 1 0 -0.156 0 1 #
point $-1 2.782 0.719 0.188 #
coedge $-1 $792 $792 $664 $793 1 $877 $-1 #
edge $-1 $906 $906 $792 $907 0 #
coedge $-1 $774 $666 $861 $908 0 $214 $-1 #
coedge $-1 $909 $862 $666 $796 0 $910 $-1 #
edge $-1 $911 $799 $795 $912 0 #
coedge $-1 $913 $667 $669 $801 1 $606 $-1 #
coedge $-1 $667 $913 $909 $914 1 $606 $-1 #
vertex $-1 $914 $915 #
straight-curve $-1 -2.157 0.875 0.188 1 0 0 #
edge $-1 $916 $671 $669 $917 0 #
point $-1 -2.469 0.875 0.188 #
coedge $-1 $918 $919 $674 $804 1 $765 $-1 #
edge $-1 $808 $920 $803 $921 0 #
coedge $-1 $922 $675 $678 $811 1 $807 $-1 #
coedge $-1 $675 $922 $918 $923 0 $807 $-1 #
loop $-1 $-1 $805 $764 #
vertex $-1 $923 $924 #
straight-curve $-1 2.469 -0.875 0.188 -4.74961721764773e-15 0 -1 #
coedge $-1 $678 $833 $925 $926 0 $166 $-1 #
edge $-1 $927 $679 $805 $928 0 #
point $-1 2.469 -0.875 0.375 #
coedge $-1 $685 $698 $681 $814 1 $820 $-1 #
edge $-1 $687 $815 $681 $929 0 #
vertex $-1 $814 $930 #
straight-curve $-1 2.782 -0.875 0.375 0 -1 0 #
face $-1 $897 $892 $2 $-1 $931 reversed single #
plane-surface $-1 2.782 -0.719 0.375 -1 0 0 0 0 1 0 #
coedge $-1 $698 $685 $695 $827 0 $820 $-1 #
loop $-1 $-1 $698 $823 #
ellipse-curve $-1 2.938 -0.719 0.188 0 0 -1 0 0.156 0 1 #
point $-1 2.782 -0.719 0.188 #
face $-1 $683 $820 $2 $-1 $932 reversed single #
plane-surface $-1 3.125 -0.563 0.375 0 1 0 0 0 1 0 #
vertex $-1 $694 $933 #
ellipse-curve $-1 -2.938 -0.719 0.188 0 0 -1 -0.0885 0 0 1 #
edge $-1 $772 $700 $819 $934 0 #
ellipse-curve $-1 2.938 0.719 0.375 0 0 1 0 -0.156 0 1 #
ellipse-curve $-1 2.938 -0.719 0.375 0 0 -1 0 0.156 0 1 #
point $-1 2.938 -0.563 0.375 #
coedge $-1 $935 $936 $707 $832 0 $937 $-1 #
edge $-1 $834 $920 $831 $938 0 #
coedge $-1 $810 $708 $936 $939 1 $166 $-1 #
vertex $-1 $832 $940 #
straight-curve $-1 -2.157 -0.875 0.375 -1 0 0 #
coedge $-1 $711 $710 $727 $849 1 $712 $-1 #
face $-1 $449 $712 $2 $-1 $941 forward single #
point $-1 -2.157 -0.875 0.375 #
coedge $-1 $727 $720 $715 $840 1 $728 $-1 #
edge $-1 $841 $722 $839 $942 0 #
vertex $-1 $849 $943 #
straight-curve $-1 -2.157 -0.719 0.188 0 1 0 #
coedge $-1 $843 $843 $944 $945 0 $717 $-1 #
plane-surface $-1 0 0 0.188 0 0 -1 -1 0 0 0 #
straight-curve $-1 -2.469 -0.719 0.375 -2.37480860882386e-15 0 1 #
point $-1 -2.469 -0.719 0.188 #
cone-surface $-1 -2.313 -0.719 0.375 0 0 -1 -0.156 0 0 1 0 1 0 #
straight-curve $-1 -2.157 -0.875 0.375 0 -1 0 #
edge $-1 $841 $729 $836 $946 0 #
point $-1 -2.157 -0.719 0.375 #
face $-1 $380 $910 $2 $-1 $947 reversed single #
loop $-1 $-1 $745 $732 #
cone-surface $-1 -2.313 0.719 0.375 0 0 1 -0.156 0 0 1 0 1 0 #
coedge $-1 $854 $854 $948 $949 1 $734 $-1 #
loop $-1 $-1 $950 $856 #
face $-1 $-1 $736 $2 $-1 $951 reversed single #
point $-1 -2.8495 0.719 0.188 #
face $-1 $856 $952 $2 $-1 $953 reversed single #
loop $-1 $873 $944 $741 #
cone-surface $-1 -2.313 -0.719 0.375 0 0 1 0.0885 0 0 1 0 1 0 #
coedge $-1 $744 $899 $794 $908 1 $166 $-1 #
coedge $-1 $795 $954 $744 $863 0 $910 $-1 #
edge $-1 $866 $911 $862 $955 0 #
coedge $-1 $956 $745 $954 $957 1 $852 $-1 #
coedge $-1 $745 $956 $747 $868 0 $852 $-1 #
vertex $-1 $957 $958 #
ellipse-curve $-1 -2.313 0.719 0.375 0 0 -1 -0.156 0 0 1 #
edge $-1 $916 $748 $865 $959 0 #
point $-1 -2.469 0.719 0.375 #
coedge $-1 $870 $870 $950 $960 0 $751 $-1 #
coedge $-1 $871 $871 $752 $872 1 $961 $-1 #
edge $-1 $962 $962 $871 $963 0 #
loop $-1 $-1 $753 $741 #
vertex $-1 $754 $964 #
ellipse-curve $-1 -2.313 -0.719 0 0 0 -1 0.0885 0 0 1 #
point $-1 -2.8495 -0.719 0 #
loop $-1 $634 $792 $758 #
cone-surface $-1 2.938 0.719 0.375 0 0 1 -0.0885 0 0 1 0 1 0 #
coedge $-1 $879 $879 $965 $966 1 $760 $-1 #
loop $-1 $-1 $762 $640 #
vertex $-1 $763 $967 #
ellipse-curve $-1 2.313 -0.719 0.188 0 0 1 0.0885 0 0 1 #
face $-1 $968 $969 $2 $-1 $970 reversed single #
plane-surface $-1 2.469 -0.875 0.375 1 0 0 0 0 -1 0 #
point $-1 2.8495 -0.719 0.188 #
point $-1 -1.86 0.718 0.125 #
point $-1 2.938 -0.563 0.188 #
coedge $-1 $971 $972 $774 $889 1 $973 $-1 #
edge $-1 $974 $893 $888 $975 0 #
coedge $-1 $976 $775 $972 $977 0 $892 $-1 #
coedge $-1 $775 $976 $777 $896 0 $892 $-1 #
loop $-1 $978 $775 $817 #
vertex $-1 $977 $979 #
straight-curve $-1 2.469 0.875 0.188 1 0 0 #
coedge $-1 $778 $777 $980 $981 0 $779 $-1 #
edge $-1 $982 $780 $777 $983 0 #
face $-1 $984 $779 $2 $-1 $985 forward single #
point $-1 2.469 0.875 0.188 #
coedge $-1 $861 $782 $971 $986 0 $166 $-1 #
coedge $-1 $980 $987 $782 $901 0 $988 $-1 #
edge $-1 $989 $902 $900 $990 0 #
vertex $-1 $981 $991 #
straight-curve $-1 2.469 0.875 0.375 -2.84672570416707e-15 1 0 #
straight-curve $-1 2.782 0.719 0.375 0 -5.93702152205966e-16 1 #
point $-1 2.782 0.719 0.375 #
vertex $-1 $793 $992 #
ellipse-curve $-1 2.938 0.719 0.188 0 0 -1 0.0885 0 0 1 #
edge $-1 $911 $974 $794 $993 0 #
coedge $-1 $954 $795 $798 $914 0 $910 $-1 #
loop $-1 $-1 $862 $851 #
vertex $-1 $796 $994 #
straight-curve $-1 -2.157 0.875 0.188 0 0 -1 #
coedge $-1 $798 $797 $956 $995 1 $606 $-1 #
edge $-1 $799 $996 $909 $997 0 #
point $-1 -2.157 0.875 0.188 #
vertex $-1 $868 $998 #
straight-curve $-1 -2.469 0.875 0.188 8.5401771125012e-15 1 0 #
coedge $-1 $999 $803 $806 $923 1 $765 $-1 #
coedge $-1 $803 $999 $935 $1000 1 $765 $-1 #
vertex $-1 $1000 $1001 #
straight-curve $-1 2.157 -0.875 0.188 -1 0 0 #
coedge $-1 $806 $805 $1002 $1003 1 $807 $-1 #
edge $-1 $1004 $808 $806 $1005 0 #
point $-1 2.469 -0.875 0.188 #
coedge $-1 $1006 $1002 $810 $926 1 $969 $-1 #
edge $-1 $1007 $927 $925 $1008 0 #
vertex $-1 $1003 $1009 #
straight-curve $-1 2.469 -0.875 0.375 0 -1 0 #
straight-curve $-1 2.782 -0.719 0.375 0 -5.93702152205966e-16 1 #
point $-1 2.782 -0.719 0.375 #
plane-surface $-1 0 0 0.188 0 0 -1 -1 0 0 0 #
cone-surface $-1 2.938 -0.719 0.375 0 0 1 0.156 0 0 1 0 1 0 #
point $-1 -2.8495 -0.719 0.188 #
straight-curve $-1 2.938 -0.563 0.375 0 0 1 #
coedge $-1 $1010 $831 $919 $1000 0 $937 $-1 #
coedge $-1 $831 $1010 $833 $939 0 $937 $-1 #
loop $-1 $-1 $936 $968 #
straight-curve $-1 2.157 -0.875 0.188 0 0 -1 #
edge $-1 $1007 $834 $936 $1011 0 #
point $-1 2.157 -0.875 0.375 #
plane-surface $-1 -2.157 -0.719 0.375 -1 0 0 0 0 1 0 #
ellipse-curve $-1 -2.313 -0.719 0.188 0 0 1 -0.156 0 0 1 #
point $-1 -2.157 -0.719 0.188 #
coedge $-1 $944 $944 $843 $945 1 $859 $-1 #
edge $-1 $1012 $1012 $944 $1013 0 #
straight-curve $-1 -2.157 -0.719 0.375 0 0 1 #
plane-surface $-1 -2.157 0.719 0.375 1 0 0 0 0 -1 0 #
coedge $-1 $948 $948 $854 $949 0 $952 $-1 #
edge $-1 $1014 $1014 $948 $1015 0 #
coedge $-1 $950 $950 $870 $960 1 $855 $-1 #
cone-surface $-1 -2.938 0.719 0.375 0 0 -1 0.0885 0 0 1 0 1 0 #
loop $-1 $961 $948 $858 #
cone-surface $-1 -2.313 0.719 0.375 0 0 -1 0.0885 0 0 1 0 1 0 #
coedge $-1 $862 $909 $864 $957 0 $910 $-1 #
straight-curve $-1 -2.157 0.875 0.375 0 1 0 #
coedge $-1 $865 $864 $913 $995 0 $852 $-1 #
edge $-1 $996 $866 $954 $1016 0 #
point $-1 -2.157 0.719 0.375 #
straight-curve $-1 -2.469 0.719 0.375 2.37480860882386e-15 0 1 #
edge $-1 $1017 $1017 $950 $1018 0 #
loop $-1 $-1 $871 $858 #
vertex $-1 $872 $1019 #
ellipse-curve $-1 -2.313 0.719 0 0 0 1 -0.0885 0 0 1 #
point $-1 -2.2245 -0.719 0 #
coedge $-1 $965 $965 $879 $966 0 $978 $-1 #
edge $-1 $1020 $1020 $879 $1021 0 #
point $-1 2.2245 -0.719 0.188 #
face $-1 $560 $937 $2 $-1 $1022 reversed single #
loop $-1 $-1 $925 $883 #
cone-surface $-1 2.313 -0.719 0.375 0 0 1 0.156 0 0 1 0 1 0 #
coedge $-1 $1023 $888 $899 $986 1 $973 $-1 #
coedge $-1 $888 $1023 $890 $977 1 $973 $-1 #
loop $-1 $-1 $971 $1024 #
vertex $-1 $889 $1025 #
straight-curve $-1 2.157 0.875 0.188 0 0 -1 #
coedge $-1 $891 $890 $1026 $1027 0 $892 $-1 #
edge $-1 $893 $1028 $972 $1029 0 #
loop $-1 $-1 $965 $817 #
point $-1 2.157 0.875 0.188 #
coedge $-1 $1026 $900 $895 $981 1 $988 $-1 #
edge $-1 $982 $902 $980 $1030 0 #
vertex $-1 $981 $1031 #
straight-curve $-1 2.469 0.875 0.188 0 1 0 #
face $-1 $1024 $988 $2 $-1 $1032 reversed single #
plane-surface $-1 2.469 0.875 0.375 -1 0 0 0 0 1 0 #
edge $-1 $989 $974 $971 $1033 0 #
coedge $-1 $900 $1026 $1023 $1034 0 $988 $-1 #
loop $-1 $-1 $900 $984 #
vertex $-1 $1034 $1035 #
ellipse-curve $-1 2.313 0.719 0.375 0 0 1 0.156 0 0 1 #
point $-1 2.469 0.719 0.375 #
point $-1 2.8495 0.719 0.188 #
straight-curve $-1 2.157 0.875 0.375 1 0 0 #
point $-1 -2.157 0.875 0.375 #
edge $-1 $996 $916 $956 $1036 0 #
vertex $-1 $957 $1037 #
straight-curve $-1 -2.157 0.719 0.188 0 -1 0 #
point $-1 -2.469 0.719 0.188 #
coedge $-1 $919 $918 $1038 $1039 1 $765 $-1 #
edge $-1 $920 $1040 $935 $1041 0 #
point $-1 2.157 -0.875 0.188 #
coedge $-1 $925 $1038 $922 $1003 0 $969 $-1 #
edge $-1 $1004 $927 $1002 $1042 0 #
vertex $-1 $1003 $1043 #
straight-curve $-1 2.469 -0.875 0.188 -8.5401771125012e-15 -1 0 #
coedge $-1 $1038 $925 $1010 $1044 1 $969 $-1 #
vertex $-1 $1044 $1045 #
ellipse-curve $-1 2.313 -0.719 0.375 0 0 -1 0.156 0 0 1 #
point $-1 2.469 -0.719 0.375 #
coedge $-1 $936 $935 $1006 $1044 0 $937 $-1 #
straight-curve $-1 2.157 -0.875 0.375 0 -1 0 #
vertex $-1 $945 $1046 #
ellipse-curve $-1 -2.313 -0.719 0.188 0 0 -1 -0.0885 0 0 1 #
vertex $-1 $949 $1047 #
ellipse-curve $-1 -2.313 0.719 0.188 0 0 1 0.0885 0 0 1 #
straight-curve $-1 -2.157 0.719 0.375 0 0 1 #
vertex $-1 $960 $1048 #
ellipse-curve $-1 -2.938 0.719 0 0 0 1 -0.0885 0 0 1 #
point $-1 -2.2245 0.719 0 #
vertex $-1 $966 $1049 #
ellipse-curve $-1 2.313 0.719 0.188 0 0 -1 0.0885 0 0 1 #
plane-surface $-1 2.157 -0.719 0.375 -1 0 0 0 0 1 0 #
coedge $-1 $972 $971 $987 $1034 1 $973 $-1 #
face $-1 $637 $973 $2 $-1 $1050 forward single #
point $-1 2.157 0.875 0.375 #
coedge $-1 $987 $980 $976 $1027 1 $988 $-1 #
edge $-1 $1028 $982 $1026 $1051 0 #
vertex $-1 $1034 $1052 #
straight-curve $-1 2.157 0.719 0.188 0 -1 0 #
straight-curve $-1 2.469 0.719 0.375 2.37480860882386e-15 0 1 #
point $-1 2.469 0.719 0.188 #
cone-surface $-1 2.313 0.719 0.375 0 0 -1 0.156 0 0 1 0 1 0 #
straight-curve $-1 2.157 0.875 0.375 0 1 0 #
edge $-1 $1028 $989 $1023 $1053 0 #
point $-1 2.157 0.719 0.375 #
ellipse-curve $-1 -2.313 0.719 0.188 0 0 -1 -0.156 0 0 1 #
point $-1 -2.157 0.719 0.188 #
coedge $-1 $1002 $1006 $999 $1039 0 $969 $-1 #
edge $-1 $1040 $1004 $1038 $1054 0 #
vertex $-1 $1044 $1055 #
straight-curve $-1 2.157 -0.719 0.188 0 1 0 #
straight-curve $-1 2.469 -0.719 0.375 -2.37480860882386e-15 0 1 #
point $-1 2.469 -0.719 0.188 #
edge $-1 $1040 $1007 $1010 $1056 0 #
point $-1 2.157 -0.719 0.375 #
point $-1 -2.2245 -0.719 0.188 #
point $-1 -2.2245 0.719 0.188 #
point $-1 -2.8495 0.719 0 #
point $-1 2.2245 0.719 0.188 #
plane-surface $-1 2.157 0.719 0.375 1 0 0 0 0 -1 0 #
ellipse-curve $-1 2.313 0.719 0.188 0 0 1 0.156 0 0 1 #
point $-1 2.157 0.719 0.188 #
straight-curve $-1 2.157 0.719 0.375 0 0 1 #
ellipse-curve $-1 2.313 -0.719 0.188 0 0 -1 0.156 0 0 1 #
point $-1 2.157 -0.719 0.188 #
straight-curve $-1 2.157 -0.719 0.375 0 0 1 #
