600 0 2 0           
24 FBMach with ACIS - 6.0.3 13 ACIS 6.0.3 NT 24 Wed May 23 12:27:24 2001 
1 9.9999999999999995e-007 1e-010 
body $2 $3 $-1 $4 #
bdycol-kcp $-1 1 6 $5 $6 $7 $8 $9 $10 #
model_id-kcp-attrib $-1 $-1 $-1 $0 1 990635244 70 155582465 1 #
lump $-1 $-1 $11 $0 #
transform $-1 1 0 0 0 1 0 0 0 1 0 0 0 1 no_rotate no_reflect no_shear #
body $12 $13 $-1 $14 #
body $15 $16 $-1 $17 #
body $18 $19 $-1 $20 #
body $21 $22 $-1 $23 #
body $24 $25 $-1 $26 #
body $27 $28 $-1 $29 #
shell $-1 $-1 $-1 $30 $-1 $3 #
model_id-kcp-attrib $-1 $-1 $-1 $5 1 990635244 70 155582466 1 #
lump $-1 $-1 $31 $5 #
transform $-1 1 0 0 0 1 0 0 0 1 0 0 0 1 no_rotate no_reflect no_shear #
rgb_color-st-attrib $-1 $32 $-1 $6 1 1 0.5 #
lump $-1 $-1 $33 $6 #
transform $-1 1 0 0 0 1 0 0 0 1 0 0 6.4849999999999994 1 rotate no_reflect no_shear #
rgb_color-st-attrib $-1 $34 $-1 $7 1 1 0.5 #
lump $-1 $-1 $35 $7 #
transform $-1 1 0 0 0 -1 0 0 0 -1 0 0 -6.4849999999999994 1 rotate no_reflect no_shear #
rgb_color-st-attrib $-1 $36 $-1 $8 0.5 1 1 #
lump $-1 $-1 $37 $8 #
transform $-1 1 0 0 0 1 0 0 0 1 0 0 0 1 no_rotate no_reflect no_shear #
rgb_color-st-attrib $-1 $38 $-1 $9 1 0.5 1 #
lump $-1 $-1 $39 $9 #
transform $-1 1 0 0 0 1 0 0 0 1 0 0 0 1 no_rotate no_reflect no_shear #
rgb_color-st-attrib $-1 $40 $-1 $10 1 0.5 1 #
lump $-1 $-1 $41 $10 #
transform $-1 1 0 0 0 1 0 0 0 1 0 0 0 1 no_rotate no_reflect no_shear #
face $42 $43 $44 $11 $-1 $45 reversed single #
shell $-1 $-1 $-1 $46 $-1 $13 #
model_id-kcp-attrib $-1 $-1 $15 $6 1 990635244 90 156893187 1 #
shell $-1 $-1 $-1 $47 $-1 $16 #
model_id-kcp-attrib $-1 $-1 $18 $7 1 990635244 90 156893188 1 #
shell $-1 $-1 $-1 $48 $-1 $19 #
model_id-kcp-attrib $-1 $-1 $21 $8 1 990635244 170 162136069 1 #
shell $-1 $-1 $-1 $49 $-1 $22 #
model_id-kcp-attrib $-1 $-1 $24 $9 1 990635244 290 153223174 1 #
shell $-1 $-1 $-1 $50 $-1 $25 #
model_id-kcp-attrib $-1 $-1 $27 $10 1 990635244 370 158466055 1 #
shell $-1 $-1 $-1 $51 $-1 $28 #
model_id-kcp-attrib $-1 $52 $-1 $30 1 990635244 70 155582465 19 #
face $53 $54 $55 $11 $-1 $56 forward single #
loop $-1 $-1 $57 $30 #
plane-surface $-1 0 0 6.5 0 0 -1 -1 0 0 forward_v I I I I #
face $58 $59 $60 $31 $-1 $61 forward single #
face $-1 $62 $63 $33 $-1 $64 reversed single #
face $-1 $65 $66 $35 $-1 $67 reversed single #
face $-1 $68 $69 $37 $-1 $70 reversed single #
face $-1 $71 $72 $39 $-1 $73 forward single #
face $-1 $74 $75 $41 $-1 $76 forward single #
model_id-kcp-attrib $-1 $-1 $42 $30 1 990635244 70 155582465 2 #
model_id-kcp-attrib $-1 $77 $-1 $43 1 990635244 70 155582465 20 #
face $78 $79 $80 $11 $-1 $81 reversed single #
loop $-1 $-1 $82 $43 #
plane-surface $-1 0 0 -6.5 0 0 -1 -1 0 0 forward_v I I I I #
coedge $-1 $57 $57 $83 $84 reversed $44 $-1 #
model_id-kcp-attrib $-1 $-1 $-1 $46 1 990635244 70 155582466 2 #
face $85 $86 $87 $31 $-1 $88 reversed single #
loop $-1 $-1 $89 $46 #
plane-surface $-1 0 0 6.5 0 0 1 1 0 0 forward_v I I I I #
face $-1 $90 $91 $33 $-1 $92 forward single #
loop $-1 $93 $94 $47 #
cone-surface $-1 0 0 0.047499999999999432 0 0 1 0.0625 0 0 1 I I -0.70710678118655501 0.70710678118653991 0.0625 forward I I I I #
face $-1 $95 $96 $35 $-1 $97 forward single #
loop $-1 $98 $99 $48 #
cone-surface $-1 0 0 0.047499999999999432 0 0 1 0.0625000000000005 0 0 1 I I -0.70710678118655534 0.70710678118653969 0.0625000000000005 forward I I I I #
face $-1 $100 $101 $37 $-1 $70 reversed single #
loop $-1 $-1 $102 $49 #
cone-surface $-1 -2.1088978900623808e-033 0 6.5 0 0 1 0.1875 2.2961369134169574e-017 0 1 I I 0 1 0.1875 forward I I I I #
face $-1 $103 $104 $39 $-1 $105 forward single #
loop $-1 $106 $107 $50 #
cone-surface $-1 0 0 -5.25 0 0 -1 0.125 0 0 1 I I 0 -1 0.125 forward I I I I #
face $-1 $108 $109 $41 $-1 $110 forward single #
loop $-1 $111 $112 $51 #
cone-surface $-1 0 0 5.25 0 0 1 0.125 0 0 1 I I 0 -1 0.125 forward I I I I #
model_id-kcp-attrib $-1 $-1 $53 $43 1 990635244 70 155582465 3 #
model_id-kcp-attrib $-1 $-1 $-1 $54 1 990635244 70 155582465 4 #
face $113 $114 $115 $11 $-1 $116 forward single #
loop $-1 $117 $118 $54 #
plane-surface $-1 0 0 -6.0499999999999998 0 0 -1 -1 0 0 forward_v I I I I #
coedge $-1 $82 $82 $119 $120 forward $55 $-1 #
coedge $-1 $83 $83 $57 $84 forward $121 $-1 #
edge $122 $123 0 $123 6.2831853071795862 $83 $124 forward 7 unknown #
model_id-kcp-attrib $-1 $-1 $-1 $59 1 990635244 70 155582466 3 #
face $-1 $125 $126 $31 $-1 $127 reversed single #
loop $-1 $-1 $128 $59 #
plane-surface $-1 0 0 -6.5 0 0 1 1 0 0 forward_v I I I I #
coedge $-1 $129 $130 $131 $132 forward $60 $-1 #
face $-1 $-1 $133 $33 $-1 $134 forward single #
loop $-1 $135 $136 $62 #
cone-surface $-1 0 0 0 0 0 1 0.125 0 0 1 I I 0 1 0.125 forward I I I I #
loop $-1 $-1 $137 $47 #
coedge $-1 $94 $94 $138 $139 reversed $63 $-1 #
face $-1 $-1 $140 $35 $-1 $141 forward single #
loop $-1 $142 $143 $65 #
cone-surface $-1 0 0 0 0 0 1 0.125000000000001 0 0 1 I I 0 1 0.125000000000001 forward I I I I #
loop $-1 $-1 $144 $48 #
coedge $-1 $99 $99 $145 $146 reversed $66 $-1 #
face $-1 $147 $148 $37 $-1 $70 reversed single #
loop $-1 $-1 $149 $68 #
coedge $-1 $150 $151 $152 $153 reversed $69 $-1 #
face $-1 $154 $155 $39 $-1 $156 reversed single #
loop $-1 $157 $158 $71 #
cone-surface $-1 -2.1088978900623808e-033 0 -5.25 0 0 -1 0.1875 2.2961369134169574e-017 0 1 I I 0 1 0.1875 forward I I I I #
loop $-1 $-1 $159 $50 #
coedge $-1 $107 $107 $160 $161 forward $72 $-1 #
face $-1 $162 $163 $41 $-1 $164 forward single #
loop $-1 $165 $166 $74 #
cone-surface $-1 -2.1088978900623808e-033 0 5.25 0 0 1 0.1875 2.2961369134169574e-017 0 1 I I 0 1 0.1875 forward I I I I #
loop $-1 $-1 $167 $51 #
coedge $-1 $112 $112 $168 $169 forward $75 $-1 #
model_id-kcp-attrib $-1 $-1 $-1 $79 1 990635244 70 155582465 5 #
face $170 $171 $172 $11 $-1 $173 forward single #
loop $-1 $174 $175 $79 #
plane-surface $-1 0 0 -5.9850000000000003 0 0 -1 -1 0 0 forward_v I I I I #
loop $-1 $-1 $176 $54 #
coedge $-1 $118 $118 $177 $178 forward $80 $-1 #
coedge $-1 $119 $119 $82 $120 reversed $179 $-1 #
edge $180 $181 0 $181 6.2831853071795862 $119 $182 forward 7 unknown #
loop $-1 $-1 $83 $183 #
attrib_edge_convexity-kcp-attrib $-1 $184 $-1 $84 1 #
vertex $-1 $84 $185 #
ellipse-curve $-1 0 0 6.5 0 0 -1 -0.095000000000000001 0 0 1 I I #
face $-1 $186 $187 $31 $-1 $188 reversed single #
loop $-1 $-1 $189 $86 #
plane-surface $-1 0 -0.1875 0 0 1 0 0 0 1 forward_v I I I I #
coedge $-1 $190 $191 $192 $193 forward $87 $-1 #
coedge $-1 $194 $89 $195 $196 forward $60 $-1 #
coedge $-1 $89 $194 $197 $198 forward $60 $-1 #
coedge $-1 $199 $200 $89 $132 reversed $201 $-1 #
edge $-1 $202 -0.1875 $203 0.1875 $131 $204 forward 7 unknown #
loop $-1 $205 $138 $90 #
plane-surface $-1 0 0 0.015000000000000124 0 0 1 1 0 0 forward_v I I I I #
loop $-1 $-1 $206 $62 #
coedge $-1 $136 $136 $137 $207 reversed $91 $-1 #
coedge $-1 $137 $137 $136 $207 forward $93 $-1 #
coedge $-1 $138 $138 $94 $139 forward $133 $-1 #
edge $-1 $208 -3.1415926535897931 $208 3.1415926535897931 $138 $209 forward 7 unknown #
loop $-1 $210 $145 $95 #
plane-surface $-1 0 0 0.015000000000000124 0 0 1 1 0 0 forward_v I I I I #
loop $-1 $-1 $211 $65 #
coedge $-1 $143 $143 $144 $212 reversed $96 $-1 #
coedge $-1 $144 $144 $143 $212 forward $98 $-1 #
coedge $-1 $145 $145 $99 $146 forward $140 $-1 #
edge $-1 $213 -3.1415926535897931 $213 3.1415926535897931 $145 $214 forward 7 unknown #
face $-1 $215 $216 $37 $-1 $70 reversed single #
loop $-1 $-1 $217 $100 #
coedge $-1 $218 $219 $220 $221 reversed $101 $-1 #
coedge $-1 $222 $102 $223 $224 reversed $69 $-1 #
coedge $-1 $102 $222 $225 $226 reversed $69 $-1 #
coedge $-1 $227 $228 $229 $153 forward $230 $-1 #
edge $-1 $231 -13 $232 0 $152 $233 forward 7 unknown #
face $-1 $-1 $234 $39 $-1 $235 forward single #
loop $-1 $236 $237 $103 #
plane-surface $-1 -0.0056818181818181776 -1.1576322287129312e-018 -5.9850000000000003 0 0 1 1 0 0 forward_v I I I I #
loop $-1 $-1 $238 $71 #
coedge $-1 $158 $158 $237 $239 forward $104 $-1 #
coedge $-1 $159 $159 $240 $241 reversed $106 $-1 #
coedge $-1 $160 $160 $107 $161 reversed $236 $-1 #
edge $-1 $242 0 $242 6.2831853071795862 $107 $243 forward 7 unknown #
face $-1 $-1 $244 $41 $-1 $245 reversed single #
loop $-1 $246 $247 $108 #
plane-surface $-1 -0.014772727272727264 -1.695913966393519e-018 6 0 0 1 1 0 0 forward_v I I I I #
loop $-1 $-1 $248 $74 #
coedge $-1 $166 $166 $247 $249 forward $109 $-1 #
coedge $-1 $167 $167 $250 $251 reversed $111 $-1 #
coedge $-1 $168 $168 $112 $169 reversed $246 $-1 #
edge $-1 $252 -3.1415926535897931 $252 3.1415926535897931 $112 $253 forward 7 unknown #
model_id-kcp-attrib $-1 $-1 $-1 $114 1 990635244 70 155582465 6 #
face $254 $255 $256 $11 $-1 $257 reversed single #
loop $-1 $258 $259 $114 #
plane-surface $-1 0 0 -5.25 0 0 -1 -1 0 0 forward_v I I I I #
loop $-1 $-1 $260 $79 #
coedge $-1 $175 $175 $261 $262 forward $115 $-1 #
coedge $-1 $176 $176 $263 $264 forward $117 $-1 #
coedge $-1 $177 $177 $118 $178 reversed $265 $-1 #
edge $-1 $266 -3.1415926535897931 $266 3.1415926535897931 $118 $267 forward 7 unknown #
loop $-1 $268 $119 $269 #
attrib_edge_convexity-kcp-attrib $-1 $270 $-1 $120 1 #
vertex $-1 $120 $271 #
ellipse-curve $-1 0 0 -6.5 0 0 -1 -0.095000000000001 0 0 1 I I #
face $272 $269 $273 $11 $-1 $274 forward single #
convexity-sys-attrib $-1 $-1 $122 $84 #
point $-1 -0.095000000000000001 0 6.5 #
face $-1 $275 $276 $31 $-1 $277 reversed single #
loop $-1 $-1 $278 $125 #
plane-surface $-1 -0.1875 0 0 1 0 0 0 0 -1 forward_v I I I I #
coedge $-1 $279 $197 $280 $281 forward $126 $-1 #
coedge $-1 $282 $128 $279 $283 forward $87 $-1 #
coedge $-1 $128 $282 $284 $285 forward $87 $-1 #
coedge $-1 $200 $199 $128 $193 reversed $201 $-1 #
edge $-1 $286 -0.1875 $287 0.1875 $192 $288 forward 7 unknown #
coedge $-1 $130 $129 $289 $290 forward $60 $-1 #
coedge $-1 $291 $292 $129 $196 reversed $276 $-1 #
edge $-1 $203 -0.1875 $293 0.1875 $195 $294 forward 7 unknown #
coedge $-1 $189 $295 $130 $198 reversed $126 $-1 #
edge $-1 $296 -0.1875 $202 0.1875 $197 $297 forward 7 unknown #
coedge $-1 $192 $131 $295 $298 forward $201 $-1 #
coedge $-1 $131 $192 $291 $299 reversed $201 $-1 #
loop $-1 $-1 $199 $275 #
vertex $-1 $132 $300 #
vertex $-1 $132 $301 #
straight-curve $-1 0.1875 0 6.5 0 1 0 I I #
loop $-1 $-1 $302 $90 #
coedge $-1 $206 $206 $302 $303 reversed $135 $-1 #
edge $-1 $304 0 $304 6.2831853071795862 $136 $305 forward 7 unknown #
vertex $-1 $139 $306 #
ellipse-curve $-1 0 0 0.015000000000000124 0 0 -1 0.095000000000000001 0 0 1 I I #
loop $-1 $-1 $307 $95 #
coedge $-1 $211 $211 $307 $308 reversed $142 $-1 #
edge $-1 $309 0 $309 6.2831853071795862 $143 $310 forward 7 unknown #
vertex $-1 $146 $311 #
ellipse-curve $-1 0 0 0.015000000000000124 0 0 -1 0.095000000000000528 0 0 1 I I #
face $-1 $312 $313 $37 $-1 $314 reversed single #
loop $-1 $-1 $315 $147 #
coedge $-1 $316 $317 $318 $319 reversed $148 $-1 #
coedge $-1 $320 $149 $321 $322 reversed $101 $-1 #
coedge $-1 $149 $320 $102 $153 forward $101 $-1 #
coedge $-1 $323 $324 $149 $221 forward $325 $-1 #
edge $-1 $326 -3.1415926535897931 $232 -1.5707963267948966 $220 $327 forward 7 unknown #
coedge $-1 $151 $150 $317 $328 forward $69 $-1 #
coedge $-1 $329 $330 $150 $224 forward $331 $-1 #
edge $-1 $332 -1.2246063538223773e-016 $231 1.5707963267948966 $223 $333 forward 7 unknown #
coedge $-1 $334 $335 $151 $226 forward $336 $-1 #
edge $-1 $232 -1.5707963267948966 $337 1.2246063538223773e-016 $225 $327 forward 7 unknown #
coedge $-1 $338 $152 $335 $339 reversed $230 $-1 #
coedge $-1 $152 $338 $329 $340 reversed $230 $-1 #
coedge $-1 $341 $342 $219 $153 reversed $343 $-1 #
loop $-1 $-1 $152 $344 #
vertex $-1 $340 $345 #
vertex $-1 $346 $347 #
straight-curve $-1 -2.1088978900623808e-033 0.1875 6.5 0 0 1 I I #
loop $-1 $348 $349 $154 #
plane-surface $-1 -0.0056818181818181776 -1.1576322287129312e-018 -5.25 0 0 1 1 0 0 forward_v I I I I #
loop $-1 $-1 $160 $103 #
coedge $-1 $237 $237 $158 $239 reversed $155 $-1 #
coedge $-1 $238 $238 $349 $350 reversed $157 $-1 #
edge $-1 $351 -3.1415926535897931 $351 3.1415926535897931 $158 $352 forward 7 unknown #
coedge $-1 $240 $240 $159 $241 forward $348 $-1 #
edge $-1 $353 0 $353 6.2831853071795862 $159 $354 forward 7 unknown #
vertex $-1 $161 $355 #
ellipse-curve $-1 0 0 -5.9850000000000003 0 0 -1 0.125 0 0 1 I I #
loop $-1 $356 $357 $162 #
plane-surface $-1 -0.014772727272727264 -1.695913966393519e-018 5.25 0 0 1 1 0 0 forward_v I I I I #
loop $-1 $-1 $168 $108 #
coedge $-1 $247 $247 $166 $249 reversed $163 $-1 #
coedge $-1 $248 $248 $357 $358 reversed $165 $-1 #
edge $-1 $359 -3.1415926535897931 $359 3.1415926535897931 $166 $360 forward 7 unknown #
coedge $-1 $250 $250 $167 $251 forward $356 $-1 #
edge $-1 $361 -3.1415926535897931 $361 3.1415926535897931 $167 $362 forward 7 unknown #
vertex $-1 $169 $363 #
ellipse-curve $-1 0 0 6 0 0 1 0.125 0 0 1 I I #
model_id-kcp-attrib $-1 $-1 $-1 $171 1 990635244 70 155582465 7 #
face $364 $365 $366 $11 $-1 $367 reversed single #
loop $-1 $368 $369 $171 #
plane-surface $-1 0 0 5.25 0 0 -1 -1 0 0 forward_v I I I I #
loop $-1 $-1 $370 $114 #
coedge $-1 $259 $259 $371 $372 forward $172 $-1 #
coedge $-1 $260 $260 $373 $374 forward $174 $-1 #
coedge $-1 $261 $261 $175 $262 reversed $375 $-1 #
edge $-1 $376 -3.1415926535897931 $376 3.1415926535897931 $175 $377 forward 7 unknown #
coedge $-1 $263 $263 $176 $264 reversed $378 $-1 #
edge $-1 $379 0 $379 6.2831853071795862 $263 $380 forward 7 unknown #
loop $-1 $381 $177 $382 #
vertex $-1 $178 $383 #
ellipse-curve $-1 0 0 -6.0499999999999998 0 0 1 -0.125 0 0 1 I I #
loop $-1 $-1 $384 $269 #
face $385 $-1 $179 $11 $-1 $386 forward single #
convexity-sys-attrib $-1 $-1 $180 $120 #
point $-1 -0.095000000000001 0 -6.5 #
model_id-kcp-attrib $-1 $-1 $-1 $183 1 990635244 70 155582465 17 #
loop $-1 $121 $387 $183 #
cone-surface $-1 0 0 6.4699999999999998 0 0 -1 -0.125 0 0 1 I I 0.70710678118655501 0.70710678118654002 0.125 forward I I I I #
face $-1 $-1 $201 $31 $-1 $388 reversed single #
loop $-1 $-1 $291 $186 #
plane-surface $-1 0 0.1875 0 0 -1 0 0 0 -1 forward_v I I I I #
coedge $-1 $389 $289 $292 $390 forward $187 $-1 #
coedge $-1 $295 $189 $190 $283 reversed $126 $-1 #
coedge $-1 $289 $389 $189 $281 reversed $187 $-1 #
edge $-1 $296 -6.5 $391 6.5 $280 $392 forward 7 unknown #
coedge $-1 $191 $190 $389 $393 forward $87 $-1 #
edge $-1 $287 -0.1875 $391 0.1875 $279 $394 forward 7 unknown #
coedge $-1 $292 $291 $191 $285 reversed $276 $-1 #
edge $-1 $395 -0.1875 $286 0.1875 $284 $396 forward 7 unknown #
vertex $-1 $193 $397 #
vertex $-1 $298 $398 #
straight-curve $-1 0.1875 0 -6.5 0 -1 0 I I #
coedge $-1 $278 $280 $194 $290 reversed $187 $-1 #
edge $-1 $293 -0.1875 $296 0.1875 $289 $399 forward 7 unknown #
coedge $-1 $284 $195 $200 $299 forward $276 $-1 #
coedge $-1 $195 $284 $278 $390 reversed $276 $-1 #
vertex $-1 $196 $400 #
straight-curve $-1 0 0.1875 6.5 -1 0 0 I I #
coedge $-1 $197 $279 $199 $298 reversed $126 $-1 #
vertex $-1 $290 $401 #
straight-curve $-1 0 -0.1875 6.5 1 0 0 I I #
edge $-1 $202 -6.5 $287 6.5 $199 $402 forward 7 unknown #
edge $-1 $203 -6.5 $286 6.5 $200 $403 forward 7 unknown #
point $-1 0.1875 -0.1875 6.5 #
point $-1 0.1875 0.1875 6.5 #
coedge $-1 $302 $302 $206 $303 forward $205 $-1 #
edge $-1 $404 0 $404 6.2831853071795862 $302 $405 forward 7 unknown #
vertex $-1 $207 $406 #
ellipse-curve $-1 0 0 -0.015000000000000124 0 0 -1 0.125 0 0 1 I I #
point $-1 -0.095000000000000001 1.1633760361312583e-017 0.015000000000000124 #
coedge $-1 $307 $307 $211 $308 forward $210 $-1 #
edge $-1 $407 0 $407 6.2831853071795862 $307 $408 forward 7 unknown #
vertex $-1 $212 $409 #
ellipse-curve $-1 0 0 -0.015000000000000124 0 0 -1 0.125000000000001 0 0 1 I I #
point $-1 -0.095000000000000528 1.1633760361312648e-017 0.015000000000000124 #
face $-1 $410 $343 $37 $-1 $411 reversed single #
loop $-1 $-1 $412 $215 #
plane-surface $-1 0.1875 0 0 -1 0 0 0 0 1 forward_v I I I I #
coedge $-1 $413 $414 $415 $416 reversed $216 $-1 #
coedge $-1 $417 $217 $414 $418 forward $148 $-1 #
coedge $-1 $217 $417 $419 $328 reversed $148 $-1 #
coedge $-1 $420 $421 $217 $319 forward $422 $-1 #
edge $-1 $423 -1.5707963267948968 $332 -1.2246063538223773e-016 $318 $333 forward 7 unknown #
coedge $-1 $219 $218 $424 $425 reversed $101 $-1 #
coedge $-1 $426 $427 $428 $322 forward $429 $-1 #
edge $-1 $430 -13 $326 0 $321 $431 forward 7 unknown #
coedge $-1 $324 $220 $342 $346 forward $325 $-1 #
coedge $-1 $220 $323 $426 $432 forward $325 $-1 #
loop $-1 $-1 $220 $433 #
vertex $-1 $434 $435 #
ellipse-curve $-1 -2.1088978900623808e-033 0 6.5 0 0 -1 0.1875 2.2961369134169574e-017 0 1 I I #
edge $-1 $332 -13 $337 0 $419 $436 forward 7 unknown #
coedge $-1 $330 $223 $228 $340 forward $331 $-1 #
coedge $-1 $223 $329 $437 $438 forward $331 $-1 #
loop $-1 $-1 $223 $439 #
vertex $-1 $440 $441 #
ellipse-curve $-1 -2.1088978900623808e-033 0 -6.5 0 0 1 0.1875 2.2961369134169574e-017 0 1 I I #
coedge $-1 $335 $225 $442 $443 forward $336 $-1 #
coedge $-1 $225 $334 $227 $339 forward $336 $-1 #
loop $-1 $-1 $225 $444 #
vertex $-1 $443 $445 #
coedge $-1 $228 $227 $446 $447 forward $230 $-1 #
edge $-1 $448 -0.1875 $232 2.1088978900623808e-033 $227 $449 forward 7 unknown #
edge $-1 $231 -2.1088978900623808e-033 $450 0.1875 $228 $451 forward 7 unknown #
coedge $-1 $452 $229 $453 $454 reversed $343 $-1 #
coedge $-1 $229 $452 $323 $346 reversed $343 $-1 #
loop $-1 $-1 $229 $312 #
face $-1 $455 $230 $37 $-1 $411 reversed single #
point $-1 -2.1088978900623808e-033 0.1875 -6.5 #
edge $-1 $232 2.1088978900623808e-033 $456 0.1875 $342 $449 forward 7 unknown #
point $-1 -2.1088978900623808e-033 0.1875 6.5 #
loop $-1 $-1 $240 $154 #
coedge $-1 $349 $349 $238 $350 forward $234 $-1 #
edge $457 $458 -3.1415926535897931 $458 3.1415926535897931 $238 $459 forward 7 unknown #
vertex $-1 $239 $460 #
ellipse-curve $-1 -2.1088978900623808e-033 0 -5.9850000000000003 0 0 1 0.1875 2.2961369134169574e-017 0 1 I I #
vertex $-1 $241 $461 #
ellipse-curve $-1 0 0 -5.25 0 0 -1 0.125 0 0 1 I I #
point $-1 0.125 0 -5.9850000000000003 #
loop $-1 $-1 $250 $162 #
coedge $-1 $357 $357 $248 $358 forward $244 $-1 #
edge $462 $463 -3.1415926535897931 $463 3.1415926535897931 $248 $464 forward 7 unknown #
vertex $-1 $249 $465 #
ellipse-curve $-1 -2.1088978900623808e-033 0 6 0 0 -1 0.1875 2.2961369134169574e-017 0 1 I I #
vertex $-1 $251 $466 #
ellipse-curve $-1 0 0 5.25 0 0 1 0.125 0 0 1 I I #
point $-1 -0.125 0 6 #
model_id-kcp-attrib $-1 $-1 $-1 $255 1 990635244 70 155582465 8 #
face $467 $382 $468 $11 $-1 $469 forward single #
loop $-1 $470 $471 $255 #
plane-surface $-1 0 0 6 0 0 -1 -1 0 0 forward_v I I I I #
loop $-1 $-1 $472 $171 #
coedge $-1 $369 $369 $473 $474 forward $256 $-1 #
coedge $-1 $370 $370 $475 $476 forward $258 $-1 #
coedge $-1 $371 $371 $259 $372 reversed $477 $-1 #
edge $-1 $478 -3.1415926535897931 $478 3.1415926535897931 $259 $479 forward 7 unknown #
coedge $-1 $373 $373 $260 $374 reversed $480 $-1 #
edge $-1 $481 0 $481 6.2831853071795862 $373 $482 forward 7 unknown #
loop $-1 $378 $261 $483 #
vertex $-1 $262 $484 #
ellipse-curve $-1 0 0 -5.9850000000000003 0 0 1 -0.092999999999999999 0 0 1 I I #
loop $-1 $-1 $263 $483 #
vertex $-1 $264 $485 #
ellipse-curve $-1 0 0 -6.0499999999999998 0 0 -1 -0.092999999999999999 0 0 1 I I #
loop $-1 $-1 $486 $382 #
face $487 $483 $265 $11 $-1 $488 forward single #
point $-1 0.125 0 -6.0499999999999998 #
coedge $-1 $384 $384 $486 $489 reversed $268 $-1 #
model_id-kcp-attrib $-1 $-1 $-1 $269 1 990635244 70 155582465 18 #
cone-surface $-1 0 0 -6.4699999999999998 0 0 1 -0.125000000000001 0 0 1 I I 0.70710678118655501 0.70710678118654002 0.125000000000001 forward I I I I #
coedge $-1 $387 $387 $490 $491 reversed $273 $-1 #
plane-surface $-1 0.1875 0 0 -1 0 0 0 0 1 forward_v I I I I #
coedge $-1 $280 $278 $282 $393 reversed $187 $-1 #
edge $-1 $293 -6.5 $395 6.5 $292 $492 forward 7 unknown #
vertex $-1 $393 $493 #
straight-curve $-1 -0.1875 -0.1875 0 0 0 -1 I I #
edge $-1 $391 -0.1875 $395 0.1875 $389 $494 forward 7 unknown #
straight-curve $-1 0 -0.1875 -6.5 -1 0 0 I I #
vertex $-1 $285 $495 #
straight-curve $-1 0 0.1875 -6.5 1 0 0 I I #
point $-1 0.1875 0.1875 -6.5 #
point $-1 0.1875 -0.1875 -6.5 #
straight-curve $-1 -0.1875 0 6.5 0 -1 0 I I #
point $-1 -0.1875 0.1875 6.5 #
point $-1 -0.1875 -0.1875 6.5 #
straight-curve $-1 0.1875 -0.1875 0 0 0 -1 I I #
straight-curve $-1 0.1875 0.1875 0 0 0 -1 I I #
vertex $-1 $303 $496 #
ellipse-curve $-1 0 0 0.015000000000000124 0 0 1 0.125 0 0 1 I I #
point $-1 0.125 0 -0.015000000000000124 #
vertex $-1 $308 $497 #
ellipse-curve $-1 0 0 0.015000000000000124 0 0 1 0.125000000000001 0 0 1 I I #
point $-1 0.125000000000001 0 -0.015000000000000124 #
face $-1 $498 $499 $37 $-1 $500 reversed single #
plane-surface $-1 0 0.1875 0 0 -1 0 0 0 -1 forward_v I I I I #
coedge $-1 $437 $442 $222 $328 reversed $313 $-1 #
coedge $-1 $501 $315 $218 $322 forward $216 $-1 #
coedge $-1 $315 $501 $502 $418 reversed $216 $-1 #
coedge $-1 $503 $504 $315 $416 forward $505 $-1 #
edge $-1 $430 -3.1415926535897931 $423 -1.5707963267948968 $415 $333 forward 7 unknown #
coedge $-1 $317 $316 $506 $507 reversed $148 $-1 #
edge $-1 $423 -13 $508 0 $502 $509 forward 7 unknown #
coedge $-1 $510 $511 $412 $328 forward $512 $-1 #
coedge $-1 $421 $318 $511 $440 forward $422 $-1 #
coedge $-1 $318 $420 $513 $514 forward $422 $-1 #
loop $-1 $-1 $318 $515 #
vertex $-1 $516 $517 #
coedge $-1 $518 $453 $320 $425 forward $519 $-1 #
edge $-1 $231 1.5707963267948966 $430 3.1415926535897931 $424 $333 forward 7 unknown #
coedge $-1 $520 $321 $324 $432 reversed $429 $-1 #
coedge $-1 $321 $520 $518 $521 reversed $429 $-1 #
coedge $-1 $522 $523 $413 $322 reversed $499 $-1 #
loop $-1 $-1 $321 $524 #
vertex $-1 $521 $525 #
straight-curve $-1 -0.1875 0 6.5 0 0 1 I I #
edge $-1 $456 -0.1875 $326 0 $426 $526 forward 7 unknown #
face $-1 $444 $325 $37 $-1 $527 forward single #
edge $-1 $326 0 $528 0.1875 $523 $526 forward 7 unknown #
point $-1 -0.1875 0 6.5 #
straight-curve $-1 0.1875 0 6.5 0 0 1 I I #
coedge $-1 $446 $412 $330 $438 reversed $313 $-1 #
edge $-1 $450 -0.1875 $332 0 $437 $529 forward 7 unknown #
face $-1 $530 $331 $37 $-1 $531 reversed single #
edge $-1 $332 0 $532 0.1875 $511 $529 forward 7 unknown #
point $-1 0.1875 0 -6.5 #
coedge $-1 $412 $446 $334 $443 reversed $313 $-1 #
edge $-1 $337 0 $448 0.1875 $442 $533 forward 7 unknown #
face $-1 $534 $336 $37 $-1 $527 forward single #
point $-1 0.1875 0 6.5 #
coedge $-1 $442 $437 $338 $447 reversed $313 $-1 #
edge $-1 $448 -6.5 $450 6.5 $446 $535 forward 7 unknown #
vertex $-1 $443 $536 #
straight-curve $-1 0 0.1875 6.5 -1 0 0 I I #
vertex $-1 $438 $537 #
straight-curve $-1 0 0.1875 -6.5 1 0 0 I I #
coedge $-1 $342 $341 $520 $538 reversed $343 $-1 #
coedge $-1 $424 $518 $341 $454 forward $519 $-1 #
edge $-1 $539 -0.1875 $231 -2.1088978900623808e-033 $341 $451 forward 7 unknown #
face $-1 $-1 $512 $37 $-1 $314 reversed single #
vertex $-1 $346 $540 #
convexity-sys-attrib $-1 $-1 $-1 $350 #
vertex $-1 $350 $541 #
ellipse-curve $-1 -2.1088978900623808e-033 0 -5.25 0 0 1 0.1875 2.2961369134169574e-017 0 1 I I #
point $-1 -0.1875 -4.5922738268339147e-017 -5.9850000000000003 #
point $-1 0.125 0 -5.25 #
convexity-sys-attrib $-1 $-1 $-1 $358 #
vertex $-1 $358 $542 #
ellipse-curve $-1 -2.1088978900623808e-033 0 5.25 0 0 -1 0.1875 2.2961369134169574e-017 0 1 I I #
point $-1 -0.1875 0 6 #
point $-1 -0.125 0 5.25 #
model_id-kcp-attrib $-1 $-1 $-1 $365 1 990635244 70 155582465 9 #
loop $-1 $543 $544 $365 #
plane-surface $-1 0 0 6.0499999999999998 0 0 -1 -1 0 0 forward_v I I I I #
loop $-1 $-1 $545 $255 #
coedge $-1 $471 $471 $546 $547 forward $366 $-1 #
coedge $-1 $472 $472 $548 $549 forward $368 $-1 #
coedge $-1 $473 $473 $369 $474 reversed $550 $-1 #
edge $-1 $551 -3.1415926535897931 $551 3.1415926535897931 $369 $552 forward 7 unknown #
coedge $-1 $475 $475 $370 $476 reversed $553 $-1 #
edge $-1 $554 0 $554 6.2831853071795862 $475 $555 forward 7 unknown #
loop $-1 $480 $371 $556 #
vertex $-1 $372 $557 #
ellipse-curve $-1 0 0 -5.25 0 0 1 -0.125 0 0 1 I I #
loop $-1 $-1 $373 $556 #
vertex $-1 $374 $558 #
ellipse-curve $-1 0 0 -5.9850000000000003 0 0 -1 -0.125 0 0 1 I I #
face $559 $556 $375 $11 $-1 $560 forward single #
point $-1 0.092999999999999999 0 -5.9850000000000003 #
point $-1 -0.092999999999999999 0 -6.0499999999999998 #
coedge $-1 $486 $486 $384 $489 forward $381 $-1 #
model_id-kcp-attrib $-1 $-1 $-1 $382 1 990635244 70 155582465 10 #
cone-surface $-1 0 0 7.1500000000000004 0 0 -1 0.125 0 0 1 I I 0 1 0.125 forward I I I I #
edge $561 $562 -3.1415926535897931 $562 3.1415926535897931 $384 $563 forward 7 unknown #
coedge $-1 $490 $490 $387 $491 forward $564 $-1 #
edge $565 $566 -3.1415926535897931 $566 3.1415926535897931 $387 $567 forward 7 unknown #
straight-curve $-1 -0.1875 0.1875 0 0 0 -1 I I #
point $-1 -0.1875 -0.1875 -6.5 #
straight-curve $-1 -0.1875 0 -6.5 0 1 0 I I #
point $-1 -0.1875 0.1875 -6.5 #
point $-1 0.125 0 0.015000000000000124 #
point $-1 0.125000000000001 0 0.015000000000000124 #
face $-1 $433 $568 $37 $-1 $527 forward single #
loop $-1 $-1 $428 $410 #
plane-surface $-1 -0.1875 0 0 1 0 0 0 0 -1 forward_v I I I I #
coedge $-1 $414 $413 $569 $570 reversed $216 $-1 #
coedge $-1 $571 $572 $573 $418 forward $574 $-1 #
coedge $-1 $504 $415 $572 $516 forward $505 $-1 #
coedge $-1 $415 $503 $522 $575 forward $505 $-1 #
loop $-1 $-1 $415 $576 #
coedge $-1 $577 $578 $417 $507 forward $579 $-1 #
edge $-1 $337 1.2246063538223773e-016 $508 1.5707963267948968 $506 $327 forward 7 unknown #
vertex $-1 $580 $581 #
straight-curve $-1 -2.1088978900623808e-033 -0.1875 6.5 0 0 1 I I #
coedge $-1 $582 $419 $578 $583 reversed $512 $-1 #
coedge $-1 $419 $582 $420 $440 reversed $512 $-1 #
loop $-1 $-1 $419 $455 #
coedge $-1 $584 $573 $421 $514 reversed $585 $-1 #
edge $-1 $532 -0.1875 $423 2.1088978900623808e-033 $513 $586 forward 7 unknown #
face $-1 $439 $422 $37 $-1 $531 reversed single #
edge $-1 $423 2.1088978900623808e-033 $587 0.1875 $572 $586 forward 7 unknown #
point $-1 -2.1088978900623808e-033 -0.1875 -6.5 #
coedge $-1 $453 $424 $427 $521 forward $519 $-1 #
loop $-1 $-1 $424 $530 #
coedge $-1 $427 $426 $452 $538 forward $429 $-1 #
edge $-1 $430 0 $539 0.1875 $427 $588 forward 7 unknown #
coedge $-1 $589 $428 $504 $575 reversed $499 $-1 #
coedge $-1 $428 $589 $590 $434 reversed $499 $-1 #
face $-1 $344 $429 $37 $-1 $500 reversed single #
point $-1 -0.1875 0 -6.5 #
straight-curve $-1 -0.1875 0 6.5 0 -1 0 I I #
plane-surface $-1 0 0 6.5 0 0 1 1 0 0 forward_v I I I I #
vertex $-1 $434 $591 #
straight-curve $-1 0.1875 0 -6.5 0 -1 0 I I #
face $-1 $592 $519 $37 $-1 $531 reversed single #
plane-surface $-1 0 0 -6.5 0 0 1 1 0 0 forward_v I I I I #
vertex $-1 $593 $594 #
straight-curve $-1 0.1875 0 6.5 0 1 0 I I #
face $-1 $595 $579 $37 $-1 $527 forward single #
straight-curve $-1 0.1875 0.1875 0 0 0 -1 I I #
point $-1 0.1875 0.1875 6.5 #
point $-1 0.1875 0.1875 -6.5 #
edge $-1 $456 -6.5 $539 6.5 $452 $596 forward 7 unknown #
vertex $-1 $454 $597 #
point $-1 -0.1875 0.1875 6.5 #
point $-1 -0.1875 -4.5922738268339147e-017 -5.25 #
point $-1 -0.1875 0 5.25 #
loop $-1 $-1 $598 $365 #
coedge $-1 $544 $544 $599 $600 forward $468 $-1 #
coedge $-1 $545 $545 $601 $602 forward $470 $-1 #
coedge $-1 $546 $546 $471 $547 reversed $603 $-1 #
edge $-1 $604 -3.1415926535897931 $604 3.1415926535897931 $471 $605 forward 7 unknown #
coedge $-1 $548 $548 $472 $549 reversed $606 $-1 #
edge $-1 $607 0 $607 6.2831853071795862 $548 $608 forward 7 unknown #
loop $-1 $553 $473 $609 #
vertex $-1 $474 $610 #
ellipse-curve $-1 0 0 5.25 0 0 1 -0.1875 0 0 1 I I #
loop $-1 $-1 $475 $609 #
vertex $-1 $476 $611 #
ellipse-curve $-1 0 0 -5.25 0 0 -1 -0.1875 0 0 1 I I #
face $612 $609 $477 $11 $-1 $613 forward single #
point $-1 0.125 0 -5.25 #
point $-1 -0.125 0 -5.9850000000000003 #
model_id-kcp-attrib $-1 $-1 $-1 $483 1 990635244 70 155582465 11 #
cone-surface $-1 0 0 7.1500000000000004 0 0 -1 0.092999999999999999 0 0 1 I I 0 1 0.092999999999999999 forward I I I I #
attrib_edge_convexity-kcp-attrib $-1 $614 $-1 $489 1 #
vertex $-1 $489 $615 #
ellipse-curve $-1 0 0 -6.4699999999999998 0 0 1 -0.125000000000001 0 0 1 I I #
loop $-1 $616 $490 $617 #
attrib_edge_convexity-kcp-attrib $-1 $618 $-1 $491 1 #
vertex $-1 $491 $619 #
ellipse-curve $-1 0 0 6.4699999999999998 0 0 -1 -0.125 0 0 1 I I #
loop $-1 $-1 $569 $498 #
coedge $-1 $590 $620 $501 $570 forward $568 $-1 #
edge $-1 $508 1.5707963267948968 $326 3.1415926535897931 $569 $327 forward 7 unknown #
coedge $-1 $621 $502 $620 $622 reversed $574 $-1 #
coedge $-1 $502 $621 $503 $516 reversed $574 $-1 #
coedge $-1 $513 $623 $316 $418 reversed $585 $-1 #
loop $-1 $-1 $502 $592 #
edge $-1 $587 -0.1875 $430 0 $522 $588 forward 7 unknown #
face $-1 $515 $505 $37 $-1 $531 reversed single #
coedge $-1 $578 $506 $623 $580 forward $579 $-1 #
coedge $-1 $506 $577 $510 $583 forward $579 $-1 #
loop $-1 $-1 $506 $534 #
edge $-1 $508 -2.1088978900623808e-033 $624 0.1875 $623 $625 forward 7 unknown #
point $-1 -2.1088978900623808e-033 -0.1875 6.5 #
coedge $-1 $511 $510 $584 $593 forward $512 $-1 #
edge $-1 $624 -0.1875 $337 0 $510 $533 forward 7 unknown #
coedge $-1 $623 $513 $582 $593 reversed $585 $-1 #
loop $-1 $-1 $573 $595 #
straight-curve $-1 0 -0.1875 -6.5 -1 0 0 I I #
vertex $-1 $575 $626 #
straight-curve $-1 -0.1875 0 -6.5 0 1 0 I I #
coedge $-1 $523 $522 $621 $627 reversed $499 $-1 #
coedge $-1 $620 $569 $523 $434 forward $568 $-1 #
point $-1 -0.1875 -0.1875 6.5 #
face $-1 $524 $574 $37 $-1 $628 reversed single #
edge $-1 $624 -6.5 $532 6.5 $582 $629 forward 7 unknown #
point $-1 0.1875 -0.1875 -6.5 #
face $-1 $576 $585 $37 $-1 $628 reversed single #
straight-curve $-1 -0.1875 0.1875 0 0 0 -1 I I #
point $-1 -0.1875 0.1875 -6.5 #
coedge $-1 $598 $598 $630 $631 forward $543 $-1 #
coedge $-1 $599 $599 $544 $600 reversed $632 $-1 #
edge $-1 $633 -3.1415926535897931 $633 3.1415926535897931 $544 $634 forward 7 unknown #
coedge $-1 $601 $601 $545 $602 reversed $635 $-1 #
edge $-1 $636 0 $636 6.2831853071795862 $601 $637 forward 7 unknown #
loop $-1 $606 $546 $638 #
vertex $-1 $547 $639 #
ellipse-curve $-1 0 0 6 0 0 1 -0.125 0 0 1 I I #
loop $-1 $-1 $548 $638 #
vertex $-1 $549 $640 #
ellipse-curve $-1 0 0 5.25 0 0 -1 -0.125 0 0 1 I I #
face $641 $638 $550 $11 $-1 $642 forward single #
point $-1 0.1875 0 5.25 #
point $-1 -0.1875 0 -5.25 #
model_id-kcp-attrib $-1 $-1 $-1 $556 1 990635244 70 155582465 12 #
cone-surface $-1 0 0 7.1500000000000004 0 0 -1 0.125 0 0 1 I I 0 1 0.125 forward I I I I #
convexity-sys-attrib $-1 $-1 $561 $489 #
point $-1 0.125 0 -6.4699999999999998 #
loop $-1 $-1 $630 $617 #
face $643 $183 $564 $11 $-1 $644 forward single #
convexity-sys-attrib $-1 $-1 $565 $491 #
point $-1 0.125 0 6.4699999999999998 #
coedge $-1 $569 $590 $571 $622 forward $568 $-1 #
coedge $-1 $572 $571 $589 $627 forward $574 $-1 #
edge $-1 $528 -0.1875 $508 -2.1088978900623808e-033 $571 $625 forward 7 unknown #
coedge $-1 $573 $584 $577 $580 reversed $585 $-1 #
vertex $-1 $583 $645 #
straight-curve $-1 0 -0.1875 6.5 1 0 0 I I #
point $-1 -0.1875 -0.1875 -6.5 #
edge $-1 $528 -6.5 $587 6.5 $589 $646 forward 7 unknown #
plane-surface $-1 0 -0.1875 0 0 1 0 0 0 1 forward_v I I I I #
straight-curve $-1 0.1875 -0.1875 0 0 0 -1 I I #
coedge $-1 $630 $630 $598 $631 reversed $616 $-1 #
edge $-1 $647 0 $647 6.2831853071795862 $630 $648 forward 7 unknown #
loop $-1 $635 $599 $649 #
vertex $-1 $600 $650 #
ellipse-curve $-1 0 0 6.0499999999999998 0 0 1 -0.092999999999999999 0 0 1 I I #
loop $-1 $-1 $601 $649 #
vertex $-1 $602 $651 #
ellipse-curve $-1 0 0 6 0 0 -1 -0.092999999999999999 0 0 1 I I #
face $652 $649 $603 $11 $-1 $653 forward single #
point $-1 0.125 0 6 #
point $-1 -0.125 0 5.25 #
model_id-kcp-attrib $-1 $-1 $-1 $609 1 990635244 70 155582465 13 #
cone-surface $-1 0 0 7.1500000000000004 0 0 -1 0.1875 0 0 1 I I 0 1 0.1875 forward I I I I #
model_id-kcp-attrib $-1 $-1 $-1 $617 1 990635244 70 155582465 16 #
cone-surface $-1 0 0 7.1500000000000004 0 0 -1 0.125 0 0 1 I I 0 1 0.125 forward I I I I #
point $-1 0.1875 -0.1875 6.5 #
straight-curve $-1 -0.1875 -0.1875 0 0 0 -1 I I #
vertex $-1 $631 $654 #
ellipse-curve $-1 0 0 6.0499999999999998 0 0 -1 -0.125 0 0 1 I I #
face $655 $617 $632 $11 $-1 $656 forward single #
point $-1 0.092999999999999999 0 6.0499999999999998 #
point $-1 -0.092999999999999999 0 6 #
model_id-kcp-attrib $-1 $-1 $-1 $638 1 990635244 70 155582465 14 #
cone-surface $-1 0 0 7.1500000000000004 0 0 -1 0.125 0 0 1 I I 0 1 0.125 forward I I I I #
point $-1 -0.125 0 6.0499999999999998 #
model_id-kcp-attrib $-1 $-1 $-1 $649 1 990635244 70 155582465 15 #
cone-surface $-1 0 0 7.1500000000000004 0 0 -1 0.092999999999999999 0 0 1 I I 0 1 0.092999999999999999 forward I I I I #
End-of-ACIS-data 