105 165 1 0                             
body $-1 $1 $-1 $-1 #
lump $-1 $-1 $2 $0 #
shell $-1 $-1 $-1 $3 $1 #
face $-1 $4 $5 $2 $-1 $6 reversed single #
face $-1 $7 $8 $2 $-1 $9 forward single #
loop $-1 $-1 $10 $3 #
plane-surface $-1 0 0 6.5 0 0 -1 -1 0 0 0 #
face $-1 $11 $12 $2 $-1 $13 reversed single #
loop $-1 $-1 $14 $4 #
plane-surface $-1 0 0 -6.5 0 0 -1 -1 0 0 0 #
coedge $-1 $10 $10 $15 $16 1 $5 $-1 #
face $-1 $17 $18 $2 $-1 $19 forward single #
loop $-1 $20 $21 $7 #
plane-surface $-1 0 0 -6.05 0 0 -1 -1 0 0 0 #
coedge $-1 $14 $14 $22 $23 0 $8 $-1 #
coedge $-1 $15 $15 $10 $16 0 $24 $-1 #
edge $-1 $25 $25 $15 $26 0 #
face $-1 $27 $28 $2 $-1 $29 forward single #
loop $-1 $30 $31 $11 #
plane-surface $-1 0 0 -5.985 0 0 -1 -1 0 0 0 #
loop $-1 $-1 $32 $7 #
coedge $-1 $21 $21 $33 $34 0 $12 $-1 #
coedge $-1 $22 $22 $14 $23 1 $35 $-1 #
edge $-1 $36 $36 $22 $37 0 #
loop $-1 $-1 $15 $38 #
vertex $-1 $16 $39 #
ellipse-curve $-1 0 0 6.5 0 0 -1 -0.095 0 0 1 #
face $-1 $40 $41 $2 $-1 $42 reversed single #
loop $-1 $43 $44 $17 #
plane-surface $-1 0 0 -5.25 0 0 -1 -1 0 0 0 #
loop $-1 $-1 $45 $11 #
coedge $-1 $31 $31 $46 $47 0 $18 $-1 #
coedge $-1 $32 $32 $48 $49 0 $20 $-1 #
coedge $-1 $33 $33 $21 $34 1 $50 $-1 #
edge $-1 $51 $51 $21 $52 0 #
loop $-1 $53 $22 $54 #
vertex $-1 $23 $55 #
ellipse-curve $-1 0 0 -6.5 0 0 -1 -0.095000000000001 0 0 1 #
face $-1 $54 $56 $2 $-1 $57 forward single #
point $-1 -0.095 0 6.5 #
face $-1 $58 $59 $2 $-1 $60 reversed single #
loop $-1 $61 $62 $27 #
plane-surface $-1 0 0 5.25 0 0 -1 -1 0 0 0 #
loop $-1 $-1 $63 $17 #
coedge $-1 $44 $44 $64 $65 0 $28 $-1 #
coedge $-1 $45 $45 $66 $67 0 $30 $-1 #
coedge $-1 $46 $46 $31 $47 1 $68 $-1 #
edge $-1 $69 $69 $31 $70 0 #
coedge $-1 $48 $48 $32 $49 1 $71 $-1 #
edge $-1 $72 $72 $48 $73 0 #
loop $-1 $74 $33 $75 #
vertex $-1 $34 $76 #
ellipse-curve $-1 0 0 -6.05 0 0 1 -0.125 0 0 1 #
loop $-1 $-1 $77 $54 #
face $-1 $-1 $35 $2 $-1 $78 forward single #
point $-1 -0.095000000000001 0 -6.5 #
loop $-1 $24 $79 $38 #
cone-surface $-1 0 0 6.47 0 0 -1 -0.125 0 0 1 0.707106781186555 0.70710678118654 0 #
face $-1 $75 $80 $2 $-1 $81 forward single #
loop $-1 $82 $83 $40 #
plane-surface $-1 0 0 6 0 0 -1 -1 0 0 0 #
loop $-1 $-1 $84 $27 #
coedge $-1 $62 $62 $85 $86 0 $41 $-1 #
coedge $-1 $63 $63 $87 $88 0 $43 $-1 #
coedge $-1 $64 $64 $44 $65 1 $89 $-1 #
edge $-1 $90 $90 $44 $91 0 #
coedge $-1 $66 $66 $45 $67 1 $92 $-1 #
edge $-1 $93 $93 $66 $94 0 #
loop $-1 $71 $46 $95 #
vertex $-1 $47 $96 #
ellipse-curve $-1 0 0 -5.985 0 0 1 -0.093 0 0 1 #
loop $-1 $-1 $48 $95 #
vertex $-1 $49 $97 #
ellipse-curve $-1 0 0 -6.05 0 0 -1 -0.093 0 0 1 #
loop $-1 $-1 $98 $75 #
face $-1 $95 $50 $2 $-1 $99 forward single #
point $-1 0.125 0 -6.05 #
coedge $-1 $77 $77 $98 $100 1 $53 $-1 #
cone-surface $-1 0 0 -6.47 0 0 1 -0.125000000000001 0 0 1 0.707106781186555 0.70710678118654 0 #
coedge $-1 $79 $79 $101 $102 1 $56 $-1 #
loop $-1 $103 $104 $58 #
plane-surface $-1 0 0 6.05 0 0 -1 -1 0 0 0 #
loop $-1 $-1 $105 $40 #
coedge $-1 $83 $83 $106 $107 0 $59 $-1 #
coedge $-1 $84 $84 $108 $109 0 $61 $-1 #
coedge $-1 $85 $85 $62 $86 1 $110 $-1 #
edge $-1 $111 $111 $62 $112 0 #
coedge $-1 $87 $87 $63 $88 1 $113 $-1 #
edge $-1 $114 $114 $87 $115 0 #
loop $-1 $92 $64 $116 #
vertex $-1 $65 $117 #
ellipse-curve $-1 0 0 -5.25 0 0 1 -0.125 0 0 1 #
loop $-1 $-1 $66 $116 #
vertex $-1 $67 $118 #
ellipse-curve $-1 0 0 -5.985 0 0 -1 -0.125 0 0 1 #
face $-1 $116 $68 $2 $-1 $119 forward single #
point $-1 0.093 0 -5.985 #
point $-1 -0.093 0 -6.05 #
coedge $-1 $98 $98 $77 $100 0 $74 $-1 #
cone-surface $-1 0 0 7.15 0 0 -1 0.125 0 0 1 0 1 0 #
edge $-1 $120 $120 $77 $121 0 #
coedge $-1 $101 $101 $79 $102 0 $122 $-1 #
edge $-1 $123 $123 $79 $124 0 #
loop $-1 $-1 $125 $58 #
coedge $-1 $104 $104 $126 $127 0 $80 $-1 #
coedge $-1 $105 $105 $128 $129 0 $82 $-1 #
coedge $-1 $106 $106 $83 $107 1 $130 $-1 #
edge $-1 $131 $131 $83 $132 0 #
coedge $-1 $108 $108 $84 $109 1 $133 $-1 #
edge $-1 $134 $134 $108 $135 0 #
loop $-1 $113 $85 $136 #
vertex $-1 $86 $137 #
ellipse-curve $-1 0 0 5.25 0 0 1 -0.1875 0 0 1 #
loop $-1 $-1 $87 $136 #
vertex $-1 $88 $138 #
ellipse-curve $-1 0 0 -5.25 0 0 -1 -0.1875 0 0 1 #
face $-1 $136 $89 $2 $-1 $139 forward single #
point $-1 0.125 0 -5.25 #
point $-1 -0.125 0 -5.985 #
cone-surface $-1 0 0 7.15 0 0 -1 0.093 0 0 1 0 1 0 #
vertex $-1 $100 $140 #
ellipse-curve $-1 0 0 -6.47 0 0 1 -0.125000000000001 0 0 1 #
loop $-1 $141 $101 $142 #
vertex $-1 $102 $143 #
ellipse-curve $-1 0 0 6.47 0 0 -1 -0.125 0 0 1 #
coedge $-1 $125 $125 $144 $145 0 $103 $-1 #
coedge $-1 $126 $126 $104 $127 1 $146 $-1 #
edge $-1 $147 $147 $104 $148 0 #
coedge $-1 $128 $128 $105 $129 1 $149 $-1 #
edge $-1 $150 $150 $128 $151 0 #
loop $-1 $133 $106 $152 #
vertex $-1 $107 $153 #
ellipse-curve $-1 0 0 6 0 0 1 -0.125 0 0 1 #
loop $-1 $-1 $108 $152 #
vertex $-1 $109 $154 #
ellipse-curve $-1 0 0 5.25 0 0 -1 -0.125 0 0 1 #
face $-1 $152 $110 $2 $-1 $155 forward single #
point $-1 0.1875 0 5.25 #
point $-1 -0.1875 0 -5.25 #
cone-surface $-1 0 0 7.15 0 0 -1 0.125 0 0 1 0 1 0 #
point $-1 0.125 0 -6.47 #
loop $-1 $-1 $144 $142 #
face $-1 $38 $122 $2 $-1 $156 forward single #
point $-1 0.125 0 6.47 #
coedge $-1 $144 $144 $125 $145 1 $141 $-1 #
edge $-1 $157 $157 $144 $158 0 #
loop $-1 $149 $126 $159 #
vertex $-1 $127 $160 #
ellipse-curve $-1 0 0 6.05 0 0 1 -0.093 0 0 1 #
loop $-1 $-1 $128 $159 #
vertex $-1 $129 $161 #
ellipse-curve $-1 0 0 6 0 0 -1 -0.093 0 0 1 #
face $-1 $159 $130 $2 $-1 $162 forward single #
point $-1 0.125 0 6 #
point $-1 -0.125 0 5.25 #
cone-surface $-1 0 0 7.15 0 0 -1 0.1875 0 0 1 0 1 0 #
cone-surface $-1 0 0 7.15 0 0 -1 0.125 0 0 1 0 1 0 #
vertex $-1 $145 $163 #
ellipse-curve $-1 0 0 6.05 0 0 -1 -0.125 0 0 1 #
face $-1 $142 $146 $2 $-1 $164 forward single #
point $-1 0.093 0 6.05 #
point $-1 -0.093 0 6 #
cone-surface $-1 0 0 7.15 0 0 -1 0.125 0 0 1 0 1 0 #
point $-1 -0.125 0 6.05 #
cone-surface $-1 0 0 7.15 0 0 -1 0.093 0 0 1 0 1 0 #
