600 0 1 0           
85 GICL ACIS Healer - Source: /gicl/data5/repository/new/Spectrometer/shaft_62.sat - 6 0 18 ACIS 6.0.3 Solaris 24 Sat Apr 13 20:35:23 2002 
1 9.999999999999999547e-07 1.000000000000000036e-10 
body $-1 $1 $-1 $-1 #
lump $-1 $-1 $2 $0 #
shell $-1 $-1 $-1 $3 $-1 $1 #
face $-1 $4 $5 $2 $-1 $6 forward single #
face $-1 $7 $8 $2 $-1 $9 forward single #
loop $-1 $-1 $10 $3 #
plane-surface $-1 0 0 0.5779999999999999583 0 0 1 1 0 0 forward_v I I I I #
face $-1 $11 $12 $2 $-1 $13 reversed single #
loop $-1 $14 $15 $4 #
plane-surface $-1 0 0 0 0 0 1 1 0 0 forward_v I I I I #
coedge $-1 $10 $10 $16 $17 forward $5 $-1 #
face $-1 $18 $19 $2 $-1 $20 forward single #
loop $-1 $-1 $21 $7 #
plane-surface $-1 0 0 -1.860000000000000098 0 0 1 1 0 0 forward_v I I I I #
loop $-1 $-1 $22 $4 #
coedge $-1 $15 $15 $23 $24 forward $8 $-1 #
coedge $-1 $16 $16 $10 $17 reversed $25 $-1 #
edge $-1 $26 0 $26 6.283185307179586232 $16 $27 forward 7 unknown #
face $-1 $28 $29 $2 $-1 $30 forward single #
loop $-1 $31 $32 $11 #
cone-surface $-1 0 0 -1.981899999999999995 0 0 1 -0.125 0 0 1 I I 0 1 0.125 forward I I I I #
coedge $-1 $21 $21 $33 $34 reversed $12 $-1 #
coedge $-1 $22 $22 $35 $36 forward $14 $-1 #
coedge $-1 $23 $23 $15 $24 reversed $37 $-1 #
edge $-1 $38 -3.141592653589793116 $38 3.141592653589793116 $15 $39 forward 7 unknown #
loop $-1 $40 $16 $41 #
vertex $-1 $17 $42 #
ellipse-curve $-1 0 0 0.5779999999999999583 0 0 1 0.09299999999999999933 0 0 1 I I #
face $-1 $43 $37 $2 $-1 $44 forward single #
loop $-1 $45 $46 $18 #
cone-surface $-1 0 0 0.08100000000000000255 0 0 1 0.125 0 0 1 I I 0.6954214275160539582 0.7186021417665919842 0.125 forward I I I I #
loop $-1 $-1 $47 $11 #
coedge $-1 $32 $32 $48 $49 forward $19 $-1 #
coedge $-1 $33 $33 $21 $34 forward $50 $-1 #
edge $-1 $51 0 $51 6.283185307179586232 $33 $52 forward 7 unknown #
coedge $-1 $35 $35 $22 $36 reversed $53 $-1 #
edge $-1 $54 0 $54 6.283185307179586232 $35 $55 forward 7 unknown #
loop $-1 $56 $23 $28 #
vertex $-1 $24 $57 #
ellipse-curve $-1 0 0 0 0 0 -1 0.09500000000000000111 0 0 1 I I #
loop $-1 $-1 $58 $41 #
face $-1 $59 $25 $2 $-1 $60 forward single #
point $-1 0.09299999999999999933 0 0.5779999999999999583 #
face $-1 $41 $61 $2 $-1 $62 forward single #
cone-surface $-1 0 0 -1.981899999999999995 0 0 1 -0.09500000000000000111 0 0 1 I I 0 1 0.09500000000000000111 forward I I I I #
loop $-1 $-1 $48 $18 #
coedge $-1 $46 $46 $63 $64 forward $29 $-1 #
coedge $-1 $47 $47 $58 $65 forward $31 $-1 #
coedge $-1 $48 $48 $32 $49 reversed $45 $-1 #
edge $-1 $66 -3.141592653589793116 $66 3.141592653589793116 $48 $67 forward 7 unknown #
loop $-1 $-1 $33 $59 #
vertex $-1 $34 $68 #
ellipse-curve $-1 0 0 -1.860000000000000098 0 0 1 0.1554999999999999993 0 0 1 I I #
loop $-1 $-1 $35 $43 #
vertex $-1 $36 $69 #
ellipse-curve $-1 0 0 0 0 0 1 0.1875 0 0 1 I I #
loop $-1 $-1 $63 $28 #
point $-1 -0.09500000000000000111 0 0 #
coedge $-1 $58 $58 $47 $65 reversed $40 $-1 #
face $-1 $-1 $70 $2 $-1 $71 forward single #
cone-surface $-1 0 0 0.5460000000000000409 0 0 -1 0.125 0 0 1 I I 0.7071067811865470176 0.7071067811865480168 0.125 forward I I I I #
loop $-1 $53 $72 $43 #
cone-surface $-1 0 0 -1.981899999999999995 0 0 1 -0.1875 0 0 1 I I 0 1 0.1875 forward I I I I #
coedge $-1 $63 $63 $46 $64 reversed $56 $-1 #
edge $-1 $73 -3.141592653589793116 $73 3.141592653589793116 $63 $74 forward 7 unknown #
edge $-1 $75 -3.141592653589793116 $75 3.141592653589793116 $58 $76 forward 7 unknown #
vertex $-1 $49 $77 #
ellipse-curve $-1 0 0 0.08100000000000000255 0 0 1 0.125 0 0 1 I I #
point $-1 0.1554999999999999993 0 -1.860000000000000098 #
point $-1 0.1875 0 0 #
loop $-1 $50 $78 $59 #
cone-surface $-1 0 0 -1.828000000000000069 0 0 1 0.1875 0 0 1 I I 0.7071067811865470176 0.7071067811865480168 0.1875 forward I I I I #
coedge $-1 $72 $72 $78 $79 forward $61 $-1 #
vertex $-1 $64 $80 #
ellipse-curve $-1 0 0 0.05000000000000000278 0 0 1 0.09500000000000000111 0 0 1 I I #
vertex $-1 $65 $81 #
ellipse-curve $-1 0 0 0.5460000000000000409 0 0 -1 0.125 0 0 1 I I #
point $-1 -0.125 0 0.08100000000000000255 #
coedge $-1 $78 $78 $72 $79 reversed $70 $-1 #
edge $-1 $82 -3.141592653589793116 $82 3.141592653589793116 $78 $83 forward 7 unknown #
point $-1 -0.09500000000000000111 0 0.05000000000000000278 #
point $-1 -0.125 0 0.5460000000000000409 #
vertex $-1 $79 $84 #
ellipse-curve $-1 0 0 -1.828000000000000069 0 0 1 0.1875 0 0 1 I I #
point $-1 -0.1875 0 -1.828000000000000069 #
End-of-ACIS-data 