600 0 1 0           
87 GICL ACIS Healer - Source: /gicl/data5/repository/new/Spectrometer/spacer1_66.sat - 6 0 18 ACIS 6.0.3 Solaris 24 Sat Apr 13 20:35:24 2002 
1 9.999999999999999547e-07 1.000000000000000036e-10 
body $-1 $1 $-1 $-1 #
lump $-1 $-1 $2 $0 #
shell $-1 $-1 $-1 $3 $-1 $1 #
face $-1 $4 $5 $2 $-1 $6 forward single #
face $-1 $7 $8 $2 $-1 $9 reversed single #
loop $-1 $-1 $10 $3 #
plane-surface $-1 0 -7.75 0 0 0 -1 -1 0 0 forward_v I I I I #
face $-1 $11 $12 $2 $-1 $13 reversed single #
loop $-1 $-1 $14 $4 #
plane-surface $-1 0 -7.75 1.5 0 0 -1 -1 0 0 forward_v I I I I #
coedge $-1 $15 $16 $17 $18 reversed $5 $-1 #
face $-1 $19 $20 $2 $-1 $21 reversed single #
loop $-1 $-1 $17 $7 #
plane-surface $-1 -0.9685000000000000275 -7.75 0 1 0 0 0 0 -1 forward_v I I I I #
coedge $-1 $22 $23 $24 $25 forward $8 $-1 #
coedge $-1 $26 $10 $27 $28 reversed $5 $-1 #
coedge $-1 $10 $29 $30 $31 reversed $5 $-1 #
coedge $-1 $32 $33 $10 $18 forward $12 $-1 #
edge $-1 $34 -0.5 $35 0 $17 $36 forward 7 unknown #
face $-1 $37 $38 $2 $-1 $39 reversed single #
loop $-1 $40 $27 $11 #
plane-surface $-1 -0.9685000000000000275 -7.25 0 0 -1 0 0 0 -1 forward_v I I I I #
coedge $-1 $41 $14 $42 $43 forward $8 $-1 #
coedge $-1 $14 $44 $45 $46 forward $8 $-1 #
coedge $-1 $33 $32 $14 $25 reversed $12 $-1 #
edge $-1 $47 -0.5 $48 0 $24 $49 forward 7 unknown #
coedge $-1 $50 $15 $51 $52 reversed $5 $-1 #
coedge $-1 $53 $54 $15 $28 forward $20 $-1 #
edge $-1 $55 -1.036999999999999922 $34 0 $27 $56 forward 7 unknown #
coedge $-1 $16 $57 $58 $59 reversed $5 $-1 #
coedge $-1 $60 $61 $16 $31 forward $62 $-1 #
edge $-1 $35 -1.937000000000000055 $63 0 $30 $64 forward 7 unknown #
coedge $-1 $24 $17 $61 $65 reversed $12 $-1 #
coedge $-1 $17 $24 $53 $66 forward $12 $-1 #
vertex $-1 $66 $67 #
vertex $-1 $65 $68 #
straight-curve $-1 -0.9685000000000000275 -7.75 0 0 -1 0 I I #
face $-1 $69 $70 $2 $-1 $71 reversed single #
loop $-1 $72 $51 $19 #
plane-surface $-1 0.06850000000000000533 -7.25 0 1 0 0 0 0 -1 forward_v I I I I #
loop $-1 $73 $74 $11 #
coedge $-1 $75 $22 $76 $77 forward $8 $-1 #
coedge $-1 $61 $60 $22 $43 reversed $62 $-1 #
edge $-1 $48 -1.937000000000000055 $78 0 $42 $79 forward 7 unknown #
coedge $-1 $23 $80 $81 $82 forward $8 $-1 #
coedge $-1 $54 $53 $23 $46 reversed $20 $-1 #
edge $-1 $83 -1.036999999999999922 $47 0 $45 $84 forward 7 unknown #
vertex $-1 $66 $85 #
vertex $-1 $65 $86 #
straight-curve $-1 -0.9685000000000000275 -7.75 1.5 0 -1 0 I I #
coedge $-1 $87 $26 $88 $89 reversed $5 $-1 #
coedge $-1 $90 $91 $26 $52 forward $38 $-1 #
edge $-1 $92 -1.75 $55 0 $51 $93 forward 7 unknown #
coedge $-1 $45 $27 $33 $66 reversed $20 $-1 #
coedge $-1 $27 $45 $90 $94 forward $20 $-1 #
vertex $-1 $94 $95 #
straight-curve $-1 -0.9685000000000000275 -7.25 0 -1 0 0 I I #
coedge $-1 $29 $87 $96 $97 reversed $5 $-1 #
coedge $-1 $98 $99 $29 $59 forward $100 $-1 #
edge $-1 $63 -1.75 $101 0 $58 $102 forward 7 unknown #
coedge $-1 $42 $30 $99 $103 reversed $62 $-1 #
coedge $-1 $30 $42 $32 $65 forward $62 $-1 #
loop $-1 $104 $30 $105 #
vertex $-1 $103 $106 #
straight-curve $-1 0.9685000000000000275 -7.75 0 1 0 0 I I #
edge $-1 $48 -1.5 $35 0 $61 $107 forward 7 unknown #
edge $-1 $47 -1.5 $34 0 $53 $108 forward 7 unknown #
point $-1 -0.9685000000000000275 -7.25 0 #
point $-1 -0.9685000000000000275 -7.75 0 #
face $-1 $109 $110 $2 $-1 $111 reversed single #
loop $-1 $-1 $88 $37 #
plane-surface $-1 0.06850000000000000533 -5.5 0 0 -1 0 0 0 -1 forward_v I I I I #
loop $-1 $-1 $112 $19 #
loop $-1 $-1 $113 $11 #
coedge $-1 $74 $74 $114 $115 reversed $40 $-1 #
coedge $-1 $116 $41 $117 $118 forward $8 $-1 #
coedge $-1 $99 $98 $41 $77 reversed $100 $-1 #
edge $-1 $78 -1.75 $119 0 $76 $120 forward 7 unknown #
vertex $-1 $103 $121 #
straight-curve $-1 0.9685000000000000275 -7.75 1.5 1 0 0 I I #
coedge $-1 $44 $116 $122 $123 forward $8 $-1 #
coedge $-1 $91 $90 $44 $82 reversed $38 $-1 #
edge $-1 $124 -1.75 $83 0 $81 $125 forward 7 unknown #
vertex $-1 $94 $126 #
straight-curve $-1 -0.9685000000000000275 -7.25 1.5 -1 0 0 I I #
point $-1 -0.9685000000000000275 -7.25 1.5 #
point $-1 -0.9685000000000000275 -7.75 1.5 #
coedge $-1 $57 $50 $127 $128 reversed $5 $-1 #
coedge $-1 $129 $130 $50 $89 forward $70 $-1 #
edge $-1 $131 -0.2199999999999999734 $92 0 $88 $132 forward 7 unknown #
coedge $-1 $81 $51 $54 $94 reversed $38 $-1 #
coedge $-1 $51 $81 $129 $133 forward $38 $-1 #
vertex $-1 $133 $134 #
straight-curve $-1 0.06850000000000000533 -7.25 0 0 -1 0 I I #
edge $-1 $83 -1.5 $55 0 $90 $135 forward 7 unknown #
point $-1 0.06850000000000000533 -7.25 0 #
coedge $-1 $136 $137 $57 $97 forward $138 $-1 #
edge $-1 $101 -0.6800000000000000488 $139 0 $96 $140 forward 7 unknown #
coedge $-1 $76 $58 $137 $141 reversed $100 $-1 #
coedge $-1 $58 $76 $60 $103 forward $100 $-1 #
loop $-1 $-1 $58 $142 #
vertex $-1 $141 $143 #
straight-curve $-1 0.9685000000000000275 -6 0 0 1 0 I I #
edge $-1 $78 -1.5 $63 0 $60 $144 forward 7 unknown #
loop $-1 $145 $146 $105 #
face $-1 $147 $62 $2 $-1 $148 reversed single #
point $-1 0.9685000000000000275 -7.75 0 #
straight-curve $-1 -0.9685000000000000275 -7.75 0 0 0 -1 I I #
straight-curve $-1 -0.9685000000000000275 -7.25 0 0 0 -1 I I #
face $-1 $142 $138 $2 $-1 $149 reversed single #
loop $-1 $150 $127 $69 #
plane-surface $-1 0.2884999999999999787 -5.5 0 -1 0 0 0 0 1 forward_v I I I I #
coedge $-1 $112 $112 $151 $152 reversed $72 $-1 #
coedge $-1 $113 $113 $153 $154 reversed $73 $-1 #
coedge $-1 $114 $114 $74 $115 forward $155 $-1 #
edge $-1 $156 0 $156 6.283185307179586232 $114 $157 forward 7 unknown #
coedge $-1 $80 $75 $158 $159 forward $8 $-1 #
coedge $-1 $137 $136 $75 $118 reversed $138 $-1 #
edge $-1 $119 -0.6800000000000000488 $160 0 $117 $161 forward 7 unknown #
vertex $-1 $141 $162 #
straight-curve $-1 0.9685000000000000275 -6 1.5 0 1 0 I I #
point $-1 0.9685000000000000275 -7.75 1.5 #
coedge $-1 $130 $129 $80 $123 reversed $70 $-1 #
edge $-1 $163 -0.2199999999999999734 $124 0 $122 $164 forward 7 unknown #
vertex $-1 $133 $165 #
straight-curve $-1 0.06850000000000000533 -7.25 1.5 0 -1 0 I I #
point $-1 0.06850000000000000533 -7.25 1.5 #
coedge $-1 $166 $167 $87 $128 forward $110 $-1 #
edge $-1 $139 -0.5 $131 0 $127 $168 forward 7 unknown #
coedge $-1 $122 $88 $91 $133 reversed $70 $-1 #
coedge $-1 $88 $122 $166 $169 forward $70 $-1 #
vertex $-1 $169 $170 #
straight-curve $-1 0.06850000000000000533 -5.5 0 -1 0 0 I I #
edge $-1 $124 -1.5 $92 0 $129 $171 forward 7 unknown #
point $-1 0.06850000000000000533 -5.5 0 #
straight-curve $-1 0.06850000000000000533 -7.25 0 0 0 -1 I I #
coedge $-1 $117 $96 $167 $172 reversed $138 $-1 #
coedge $-1 $96 $117 $98 $141 forward $138 $-1 #
loop $-1 $173 $96 $109 #
vertex $-1 $172 $174 #
straight-curve $-1 0.2884999999999999787 -6 0 -1 0 0 I I #
edge $-1 $119 -1.5 $101 0 $98 $175 forward 7 unknown #
face $-1 $105 $100 $2 $-1 $176 reversed single #
point $-1 0.9685000000000000275 -6 0 #
straight-curve $-1 0.9685000000000000275 -7.75 0 0 0 -1 I I #
loop $-1 $177 $178 $105 #
coedge $-1 $146 $146 $179 $180 forward $104 $-1 #
face $-1 $181 $182 $2 $-1 $183 forward single #
plane-surface $-1 0.9685000000000000275 -7.75 0 0 1 0 0 0 1 forward_v I I I I #
plane-surface $-1 0.2884999999999999787 -6 0 0 -1 0 0 0 -1 forward_v I I I I #
loop $-1 $-1 $184 $69 #
coedge $-1 $151 $151 $112 $152 forward $185 $-1 #
edge $-1 $186 0 $186 6.283185307179586232 $151 $187 forward 7 unknown #
coedge $-1 $153 $153 $113 $154 forward $188 $-1 #
edge $-1 $189 0 $189 6.283185307179586232 $153 $190 forward 7 unknown #
loop $-1 $-1 $114 $191 #
vertex $-1 $115 $192 #
ellipse-curve $-1 -0.6215000000000000524 -7.25 0.3439999999999999725 0 1 0 0.125 0 0 1 I I #
coedge $-1 $167 $166 $116 $159 reversed $110 $-1 #
edge $-1 $160 -0.5 $163 0 $158 $193 forward 7 unknown #
vertex $-1 $172 $194 #
straight-curve $-1 0.2884999999999999787 -6 1.5 -1 0 0 I I #
point $-1 0.9685000000000000275 -6 1.5 #
vertex $-1 $169 $195 #
straight-curve $-1 0.06850000000000000533 -5.5 1.5 -1 0 0 I I #
point $-1 0.06850000000000000533 -5.5 1.5 #
coedge $-1 $158 $127 $130 $169 reversed $110 $-1 #
coedge $-1 $127 $158 $136 $172 forward $110 $-1 #
straight-curve $-1 0.2884999999999999787 -5.5 0 0 1 0 I I #
edge $-1 $163 -1.5 $131 0 $166 $196 forward 7 unknown #
point $-1 0.2884999999999999787 -5.5 0 #
straight-curve $-1 0.06850000000000000533 -5.5 0 0 0 -1 I I #
edge $-1 $160 -1.5 $139 0 $136 $197 forward 7 unknown #
loop $-1 $198 $199 $109 #
point $-1 0.2884999999999999787 -6 0 #
straight-curve $-1 0.9685000000000000275 -6 0 0 0 -1 I I #
plane-surface $-1 0.9685000000000000275 -6 0 -1 0 0 0 0 1 forward_v I I I I #
loop $-1 $200 $201 $105 #
coedge $-1 $178 $178 $202 $203 forward $145 $-1 #
coedge $-1 $179 $179 $146 $180 reversed $204 $-1 #
edge $-1 $205 -3.141592653589793116 $205 3.141592653589793116 $179 $206 forward 7 unknown #
face $-1 $207 $208 $2 $-1 $209 reversed single #
loop $-1 $-1 $210 $147 #
plane-surface $-1 -0.6215000000000000524 -7.370000000000000107 0.75 0 -1 0 0 0 -1 forward_v I I I I #
coedge $-1 $184 $184 $211 $212 forward $150 $-1 #
loop $-1 $-1 $151 $213 #
vertex $-1 $152 $214 #
ellipse-curve $-1 0.06850000000000000533 -5.75 0.75 -1 0 0 0 0.125 0 1 I I #
loop $-1 $-1 $153 $215 #
vertex $-1 $154 $216 #
ellipse-curve $-1 -0.6215000000000000524 -7.25 1.155999999999999917 0 1 0 0.125 0 0 1 I I #
face $-1 $215 $217 $2 $-1 $218 reversed single #
point $-1 -0.4964999999999999969 -7.25 0.3439999999999999725 #
straight-curve $-1 0.2884999999999999787 -5.5 1.5 0 1 0 I I #
point $-1 0.2884999999999999787 -6 1.5 #
point $-1 0.2884999999999999787 -5.5 1.5 #
straight-curve $-1 0.2884999999999999787 -5.5 0 0 0 -1 I I #
straight-curve $-1 0.2884999999999999787 -6 0 0 0 -1 I I #
loop $-1 $-1 $219 $109 #
coedge $-1 $199 $199 $220 $221 reversed $173 $-1 #
loop $-1 $222 $223 $105 #
coedge $-1 $201 $201 $224 $225 forward $177 $-1 #
coedge $-1 $202 $202 $178 $203 reversed $226 $-1 #
edge $-1 $227 -3.141592653589793116 $227 3.141592653589793116 $202 $228 forward 7 unknown #
loop $-1 $-1 $179 $181 #
vertex $-1 $180 $229 #
ellipse-curve $-1 -0.6215000000000000524 -7.75 0.75 0 1 0 -0.0625 0 0 1 I I #
face $-1 $230 $231 $2 $-1 $232 forward single #
loop $-1 $204 $233 $181 #
cone-surface $-1 -0.6215000000000000524 -7.75 0.75 0 -1 0 0.0625 0 0 1 I I 0 1 0.0625 forward I I I I #
coedge $-1 $210 $210 $233 $234 reversed $182 $-1 #
coedge $-1 $211 $211 $184 $212 reversed $235 $-1 #
edge $-1 $236 -3.141592653589793116 $236 3.141592653589793116 $211 $237 forward 7 unknown #
face $-1 $-1 $235 $2 $-1 $238 reversed single #
point $-1 0.06850000000000000533 -5.625 0.75 #
face $-1 $239 $240 $2 $-1 $241 reversed single #
point $-1 -0.4964999999999999969 -7.25 1.155999999999999917 #
loop $-1 $155 $242 $191 #
cone-surface $-1 -0.6215000000000000524 -7.75 0.3439999999999999725 0 -1 0 0.125 0 0 1 I I 0 1 0.125 forward I I I I #
coedge $-1 $219 $219 $243 $244 reversed $198 $-1 #
coedge $-1 $220 $220 $199 $221 forward $245 $-1 #
edge $-1 $246 0 $246 6.283185307179586232 $220 $247 forward 7 unknown #
loop $-1 $248 $249 $105 #
coedge $-1 $223 $223 $242 $250 forward $200 $-1 #
coedge $-1 $224 $224 $201 $225 reversed $251 $-1 #
edge $-1 $252 -3.141592653589793116 $252 3.141592653589793116 $224 $253 forward 7 unknown #
loop $-1 $-1 $202 $230 #
vertex $-1 $203 $254 #
ellipse-curve $-1 0 -7.75 0.75 0 1 0 -0.0625 0 0 1 I I #
point $-1 -0.5590000000000000524 -7.75 0.75 #
face $-1 $255 $256 $2 $-1 $257 reversed single #
loop $-1 $-1 $258 $207 #
plane-surface $-1 0 -7.370000000000000107 0.75 0 -1 0 0 0 -1 forward_v I I I I #
coedge $-1 $233 $233 $210 $234 forward $208 $-1 #
edge $-1 $259 0 $259 6.283185307179586232 $233 $260 forward 7 unknown #
loop $-1 $185 $211 $213 #
vertex $-1 $212 $261 #
ellipse-curve $-1 0.2884999999999999787 -5.75 0.75 -1 0 0 0 -0.125 0 1 I I #
cone-surface $-1 0.2884999999999999787 -5.75 0.75 1 0 0 0 0.125 0 1 I I 0 1 0.125 forward I I I I #
face $-1 $262 $245 $2 $-1 $263 reversed single #
loop $-1 $188 $264 $215 #
cone-surface $-1 -0.6215000000000000524 -7.75 1.155999999999999917 0 -1 0 0.125 0 0 1 I I 0 1 0.125 forward I I I I #
coedge $-1 $242 $242 $223 $250 reversed $217 $-1 #
coedge $-1 $243 $243 $219 $244 forward $265 $-1 #
edge $-1 $266 0 $266 6.283185307179586232 $243 $267 forward 7 unknown #
loop $-1 $268 $220 $239 #
vertex $-1 $221 $269 #
ellipse-curve $-1 0.6284999999999999476 -6 0.3439999999999999725 0 1 0 0.140625 0 0 1 I I #
loop $-1 $270 $271 $105 #
coedge $-1 $249 $249 $264 $272 forward $222 $-1 #
edge $-1 $273 -3.141592653589793116 $273 3.141592653589793116 $242 $274 forward 7 unknown #
loop $-1 $-1 $224 $275 #
vertex $-1 $225 $276 #
ellipse-curve $-1 0.6284999999999999476 -7.75 0.75 0 1 0 -0.125 0 0 1 I I #
point $-1 0.0625 -7.75 0.75 #
face $-1 $275 $277 $2 $-1 $278 forward single #
loop $-1 $226 $279 $230 #
cone-surface $-1 0 -7.75 0.75 0 -1 0 0.0625 0 0 1 I I 0 1 0.0625 forward I I I I #
coedge $-1 $258 $258 $279 $280 reversed $231 $-1 #
vertex $-1 $234 $281 #
ellipse-curve $-1 -0.6215000000000000524 -7.370000000000000107 0.75 0 1 0 0.0625 0 0 1 I I #
point $-1 0.2884999999999999787 -5.625 0.75 #
face $-1 $282 $265 $2 $-1 $283 reversed single #
cone-surface $-1 0.6284999999999999476 -7.75 0.3439999999999999725 0 -1 0 0.140625 0 0 1 I I 0 1 0.140625 forward I I I I #
coedge $-1 $264 $264 $249 $272 reversed $240 $-1 #
loop $-1 $284 $243 $262 #
vertex $-1 $244 $285 #
ellipse-curve $-1 0.6284999999999999476 -6 1.155999999999999917 0 1 0 0.140625 0 0 1 I I #
loop $-1 $-1 $286 $239 #
point $-1 0.7691249999999999476 -6 0.3439999999999999725 #
loop $-1 $-1 $287 $105 #
coedge $-1 $271 $271 $288 $289 forward $248 $-1 #
edge $-1 $290 -3.141592653589793116 $290 3.141592653589793116 $264 $291 forward 7 unknown #
vertex $-1 $250 $292 #
ellipse-curve $-1 -0.6215000000000000524 -7.75 0.3439999999999999725 0 1 0 -0.125 0 0 1 I I #
face $-1 $191 $293 $2 $-1 $294 reversed single #
point $-1 0.7534999999999999476 -7.75 0.75 #
loop $-1 $-1 $295 $255 #
plane-surface $-1 0.6284999999999999476 -7.129999999999999893 0.75 0 -1 0 0 0 -1 forward_v I I I I #
coedge $-1 $279 $279 $258 $280 forward $256 $-1 #
edge $-1 $296 0 $296 6.283185307179586232 $279 $297 forward 7 unknown #
point $-1 -0.5590000000000000524 -7.370000000000000107 0.75 #
face $-1 $298 $299 $2 $-1 $300 forward single #
cone-surface $-1 0.6284999999999999476 -7.75 1.155999999999999917 0 -1 0 0.140625 0 0 1 I I 0 1 0.140625 forward I I I I #
loop $-1 $-1 $301 $262 #
point $-1 0.7691249999999999476 -6 1.155999999999999917 #
coedge $-1 $286 $286 $302 $303 reversed $268 $-1 #
coedge $-1 $287 $287 $304 $305 forward $270 $-1 #
coedge $-1 $288 $288 $271 $289 reversed $306 $-1 #
edge $-1 $307 -3.141592653589793116 $307 3.141592653589793116 $288 $308 forward 7 unknown #
vertex $-1 $272 $309 #
ellipse-curve $-1 -0.6215000000000000524 -7.75 1.155999999999999917 0 1 0 -0.125 0 0 1 I I #
point $-1 -0.4964999999999999969 -7.75 0.3439999999999999725 #
loop $-1 $251 $310 $275 #
cone-surface $-1 0.6284999999999999476 -7.75 0.75 0 -1 0 0.125 0 0 1 I I 0 1 0.125 forward I I I I #
coedge $-1 $295 $295 $310 $311 reversed $277 $-1 #
vertex $-1 $280 $312 #
ellipse-curve $-1 0 -7.370000000000000107 0.75 0 1 0 0.0625 0 0 1 I I #
face $-1 $313 $314 $2 $-1 $315 reversed single #
loop $-1 $316 $317 $282 #
plane-surface $-1 0.6284999999999999476 -6.5 0.3439999999999999725 0 -1 0 0 0 -1 forward_v I I I I #
coedge $-1 $301 $301 $318 $319 reversed $284 $-1 #
coedge $-1 $302 $302 $286 $303 forward $316 $-1 #
edge $-1 $320 -3.141592653589793116 $320 3.141592653589793116 $302 $321 forward 7 unknown #
coedge $-1 $304 $304 $287 $305 reversed $322 $-1 #
edge $-1 $323 -3.141592653589793116 $323 3.141592653589793116 $304 $324 forward 7 unknown #
loop $-1 $-1 $288 $298 #
vertex $-1 $289 $325 #
ellipse-curve $-1 0.6284999999999999476 -7.75 0.3439999999999999725 0 1 0 -0.203125 0 0 1 I I #
point $-1 -0.4964999999999999969 -7.75 1.155999999999999917 #
coedge $-1 $310 $310 $295 $311 forward $293 $-1 #
edge $-1 $326 0 $326 6.283185307179586232 $310 $327 forward 7 unknown #
point $-1 0.0625 -7.370000000000000107 0.75 #
face $-1 $328 $329 $2 $-1 $330 forward single #
loop $-1 $306 $331 $298 #
cone-surface $-1 0.6284999999999999476 -7.75 0.3439999999999999725 0 -1 0 0.203125 0 0 1 I I 0 1 0.203125 forward I I I I #
loop $-1 $-1 $302 $282 #
coedge $-1 $317 $317 $331 $332 reversed $299 $-1 #
coedge $-1 $318 $318 $301 $319 forward $333 $-1 #
edge $-1 $334 -3.141592653589793116 $334 3.141592653589793116 $318 $335 forward 7 unknown #
vertex $-1 $303 $336 #
ellipse-curve $-1 0.6284999999999999476 -6.5 0.3439999999999999725 0 1 0 -0.140625 0 0 1 I I #
loop $-1 $-1 $304 $328 #
vertex $-1 $305 $337 #
ellipse-curve $-1 0.6284999999999999476 -7.75 1.155999999999999917 0 1 0 -0.203125 0 0 1 I I #
point $-1 0.8316249999999999476 -7.75 0.3439999999999999725 #
vertex $-1 $311 $338 #
ellipse-curve $-1 0.6284999999999999476 -7.129999999999999893 0.75 0 1 0 0.125 0 0 1 I I #
face $-1 $213 $339 $2 $-1 $340 reversed single #
loop $-1 $333 $341 $313 #
plane-surface $-1 0.6284999999999999476 -6.5 1.155999999999999917 0 -1 0 0 0 -1 forward_v I I I I #
coedge $-1 $331 $331 $317 $332 forward $314 $-1 #
edge $-1 $342 0 $342 6.283185307179586232 $331 $343 forward 7 unknown #
loop $-1 $-1 $318 $313 #
vertex $-1 $319 $344 #
ellipse-curve $-1 0.6284999999999999476 -6.5 1.155999999999999917 0 1 0 -0.140625 0 0 1 I I #
point $-1 0.7691249999999999476 -6.5 0.3439999999999999725 #
point $-1 0.8316249999999999476 -7.75 1.155999999999999917 #
point $-1 0.7534999999999999476 -7.129999999999999893 0.75 #
loop $-1 $322 $345 $328 #
cone-surface $-1 0.6284999999999999476 -7.75 1.155999999999999917 0 -1 0 0.203125 0 0 1 I I 0 1 0.203125 forward I I I I #
coedge $-1 $341 $341 $345 $346 reversed $329 $-1 #
vertex $-1 $332 $347 #
ellipse-curve $-1 0.6284999999999999476 -6.5 0.3439999999999999725 0 1 0 0.203125 0 0 1 I I #
point $-1 0.7691249999999999476 -6.5 1.155999999999999917 #
coedge $-1 $345 $345 $341 $346 forward $339 $-1 #
edge $-1 $348 0 $348 6.283185307179586232 $345 $349 forward 7 unknown #
point $-1 0.8316249999999999476 -6.5 0.3439999999999999725 #
vertex $-1 $346 $350 #
ellipse-curve $-1 0.6284999999999999476 -6.5 1.155999999999999917 0 1 0 0.203125 0 0 1 I I #
point $-1 0.8316249999999999476 -6.5 1.155999999999999917 #
End-of-ACIS-data 