105 63 1 0                              
body $-1 $1 $-1 $-1 #
lump $-1 $-1 $2 $0 #
shell $-1 $-1 $-1 $3 $1 #
face $-1 $4 $5 $2 $-1 $6 forward single #
face $-1 $7 $8 $2 $-1 $9 reversed single #
loop $-1 $10 $11 $3 #
plane-surface $-1 0 0 0.031 0 0 1 1 0 0 0 #
face $-1 $12 $13 $2 $-1 $14 reversed single #
loop $-1 $15 $16 $4 #
plane-surface $-1 0 0 0 0 0 1 1 0 0 0 #
loop $-1 $-1 $17 $3 #
coedge $-1 $11 $11 $18 $19 0 $5 $-1 #
face $-1 $20 $21 $2 $-1 $22 reversed single #
loop $-1 $23 $24 $7 #
plane-surface $-1 0 0 -0.044 0 0 1 1 0 0 0 #
loop $-1 $-1 $25 $4 #
coedge $-1 $16 $16 $26 $27 0 $8 $-1 #
coedge $-1 $17 $17 $28 $29 0 $10 $-1 #
coedge $-1 $18 $18 $11 $19 1 $30 $-1 #
edge $-1 $31 $31 $18 $32 0 #
face $-1 $33 $34 $2 $-1 $35 forward single #
loop $-1 $36 $28 $12 #
cone-surface $-1 0 0 -0.04775 0 0 1 -0.125 0 0 1 0 1 0 #
loop $-1 $-1 $37 $7 #
coedge $-1 $24 $24 $38 $39 0 $13 $-1 #
coedge $-1 $25 $25 $40 $41 0 $15 $-1 #
coedge $-1 $26 $26 $16 $27 1 $42 $-1 #
edge $-1 $43 $43 $26 $44 0 #
coedge $-1 $28 $28 $17 $29 1 $21 $-1 #
edge $-1 $45 $45 $17 $46 0 #
loop $-1 $-1 $18 $20 #
vertex $-1 $19 $47 #
ellipse-curve $-1 0 0 0.031 0 0 1 0.281 0 0 1 #
face $-1 $-1 $48 $2 $-1 $49 forward single #
loop $-1 $30 $40 $20 #
cone-surface $-1 0 0 -0.04775 0 0 1 -0.281 0 0 1 0 1 0 #
loop $-1 $-1 $38 $12 #
coedge $-1 $37 $37 $50 $51 0 $23 $-1 #
coedge $-1 $38 $38 $24 $39 1 $36 $-1 #
edge $-1 $52 $52 $38 $53 0 #
coedge $-1 $40 $40 $25 $41 1 $34 $-1 #
edge $-1 $54 $54 $25 $55 0 #
loop $-1 $-1 $26 $33 #
vertex $-1 $27 $56 #
ellipse-curve $-1 0 0 0 0 0 1 0.1875 0 0 1 #
vertex $-1 $29 $57 #
ellipse-curve $-1 0 0 0.031 0 0 -1 0.125 0 0 1 #
point $-1 0.281 0 0.031 #
loop $-1 $42 $50 $33 #
cone-surface $-1 0 0 -0.04775 0 0 1 -0.1875 0 0 1 0 1 0 #
coedge $-1 $50 $50 $37 $51 1 $48 $-1 #
edge $-1 $58 $58 $37 $59 0 #
vertex $-1 $39 $60 #
ellipse-curve $-1 0 0 -0.044 0 0 1 0.125 0 0 1 #
vertex $-1 $41 $61 #
ellipse-curve $-1 0 0 0 0 0 -1 0.281 0 0 1 #
point $-1 0.1875 0 0 #
point $-1 -0.125 0 0.031 #
vertex $-1 $51 $62 #
ellipse-curve $-1 0 0 -0.044 0 0 -1 0.1875 0 0 1 #
point $-1 -0.125 0 -0.044 #
point $-1 -0.281 0 0 #
point $-1 -0.1875 0 -0.044 #
