105 351 1 0                             
body $-1 $1 $-1 $-1 #
lump $-1 $-1 $2 $0 #
shell $-1 $-1 $-1 $3 $1 #
face $-1 $4 $5 $2 $-1 $6 reversed single #
face $-1 $7 $8 $2 $-1 $9 forward single #
loop $-1 $-1 $10 $3 #
plane-surface $-1 0 0 0 0 0 1 1 0 0 0 #
face $-1 $11 $12 $2 $-1 $13 forward single #
loop $-1 $-1 $14 $4 #
plane-surface $-1 0 0 1.5 0 0 1 1 0 0 0 #
coedge $-1 $15 $16 $17 $18 0 $5 $-1 #
face $-1 $19 $20 $2 $-1 $21 forward single #
loop $-1 $-1 $17 $7 #
plane-surface $-1 -0.9685 0 0 -1 0 0 0 0 1 0 #
coedge $-1 $22 $23 $24 $25 1 $8 $-1 #
coedge $-1 $26 $10 $27 $28 0 $5 $-1 #
coedge $-1 $10 $29 $30 $31 0 $5 $-1 #
coedge $-1 $32 $33 $10 $18 1 $12 $-1 #
edge $-1 $34 $35 $17 $36 0 #
face $-1 $37 $38 $2 $-1 $39 forward single #
loop $-1 $40 $30 $11 #
plane-surface $-1 -0.9685 -0.5 0 0 -1 0 0 0 -1 0 #
coedge $-1 $41 $14 $42 $43 1 $8 $-1 #
coedge $-1 $14 $44 $45 $46 1 $8 $-1 #
coedge $-1 $33 $32 $14 $25 0 $12 $-1 #
edge $-1 $47 $48 $24 $49 0 #
coedge $-1 $50 $15 $51 $52 0 $5 $-1 #
coedge $-1 $53 $54 $15 $28 1 $55 $-1 #
edge $-1 $35 $56 $27 $57 0 #
coedge $-1 $16 $58 $59 $60 0 $5 $-1 #
coedge $-1 $61 $62 $16 $31 1 $20 $-1 #
edge $-1 $63 $34 $30 $64 0 #
coedge $-1 $24 $17 $62 $65 1 $12 $-1 #
coedge $-1 $17 $24 $53 $66 0 $12 $-1 #
vertex $-1 $65 $67 #
vertex $-1 $66 $68 #
straight-curve $-1 -0.9685 0 0 0 1 0 #
face $-1 $69 $70 $2 $-1 $71 forward single #
loop $-1 $72 $59 $19 #
plane-surface $-1 0.0685 -0.5 0 -1 0 0 0 0 1 0 #
loop $-1 $73 $74 $11 #
coedge $-1 $75 $22 $76 $77 1 $8 $-1 #
coedge $-1 $62 $61 $22 $43 0 $20 $-1 #
edge $-1 $78 $47 $42 $79 0 #
coedge $-1 $23 $80 $81 $82 1 $8 $-1 #
coedge $-1 $54 $53 $23 $46 0 $55 $-1 #
edge $-1 $48 $83 $45 $84 0 #
vertex $-1 $65 $85 #
vertex $-1 $66 $86 #
straight-curve $-1 -0.9685 0 1.5 0 1 0 #
coedge $-1 $87 $26 $88 $89 0 $5 $-1 #
coedge $-1 $90 $91 $26 $52 1 $92 $-1 #
edge $-1 $56 $93 $51 $94 0 #
coedge $-1 $45 $27 $33 $66 1 $55 $-1 #
coedge $-1 $27 $45 $90 $95 0 $55 $-1 #
loop $-1 $96 $27 $97 #
vertex $-1 $95 $98 #
straight-curve $-1 0.9685 0 0 1 0 0 #
coedge $-1 $29 $87 $99 $100 0 $5 $-1 #
coedge $-1 $101 $102 $29 $60 1 $38 $-1 #
edge $-1 $103 $63 $59 $104 0 #
coedge $-1 $42 $30 $102 $105 1 $20 $-1 #
coedge $-1 $30 $42 $32 $65 0 $20 $-1 #
vertex $-1 $105 $106 #
straight-curve $-1 -0.9685 -0.5 0 -1 0 0 #
edge $-1 $47 $34 $62 $107 0 #
edge $-1 $48 $35 $53 $108 0 #
point $-1 -0.9685 -0.5 0 #
point $-1 -0.9685 0 0 #
face $-1 $109 $110 $2 $-1 $111 forward single #
loop $-1 $-1 $99 $37 #
plane-surface $-1 0.0685 -2.25 0 0 -1 0 0 0 -1 0 #
loop $-1 $-1 $112 $19 #
loop $-1 $-1 $113 $11 #
coedge $-1 $74 $74 $114 $115 0 $40 $-1 #
coedge $-1 $116 $41 $117 $118 1 $8 $-1 #
coedge $-1 $102 $101 $41 $77 0 $38 $-1 #
edge $-1 $119 $78 $76 $120 0 #
vertex $-1 $105 $121 #
straight-curve $-1 -0.9685 -0.5 1.5 -1 0 0 #
coedge $-1 $44 $116 $122 $123 1 $8 $-1 #
coedge $-1 $91 $90 $44 $82 0 $92 $-1 #
edge $-1 $83 $124 $81 $125 0 #
vertex $-1 $95 $126 #
straight-curve $-1 0.9685 0 1.5 1 0 0 #
point $-1 -0.9685 -0.5 1.5 #
point $-1 -0.9685 0 1.5 #
coedge $-1 $58 $50 $127 $128 0 $5 $-1 #
coedge $-1 $129 $130 $50 $89 1 $131 $-1 #
edge $-1 $93 $132 $88 $133 0 #
coedge $-1 $81 $51 $54 $95 1 $92 $-1 #
coedge $-1 $51 $81 $129 $134 0 $92 $-1 #
loop $-1 $-1 $51 $135 #
vertex $-1 $134 $136 #
straight-curve $-1 0.9685 -1.75 0 0 -1 0 #
edge $-1 $83 $56 $54 $137 0 #
loop $-1 $138 $139 $97 #
face $-1 $140 $55 $2 $-1 $141 forward single #
point $-1 0.9685 0 0 #
coedge $-1 $142 $143 $58 $100 1 $70 $-1 #
edge $-1 $144 $103 $99 $145 0 #
coedge $-1 $76 $59 $143 $146 1 $38 $-1 #
coedge $-1 $59 $76 $61 $105 0 $38 $-1 #
vertex $-1 $146 $147 #
straight-curve $-1 0.0685 -0.5 0 0 1 0 #
edge $-1 $78 $63 $102 $148 0 #
point $-1 0.0685 -0.5 0 #
straight-curve $-1 -0.9685 -0.5 0 0 0 -1 #
straight-curve $-1 -0.9685 0 0 0 0 -1 #
face $-1 $135 $131 $2 $-1 $149 forward single #
loop $-1 $150 $127 $69 #
plane-surface $-1 0.2885 -2.25 0 1 0 0 0 0 -1 0 #
coedge $-1 $112 $112 $151 $152 0 $72 $-1 #
coedge $-1 $113 $113 $153 $154 0 $73 $-1 #
coedge $-1 $114 $114 $74 $115 1 $155 $-1 #
edge $-1 $156 $156 $114 $157 0 #
coedge $-1 $80 $75 $158 $159 1 $8 $-1 #
coedge $-1 $143 $142 $75 $118 0 $70 $-1 #
edge $-1 $160 $119 $117 $161 0 #
vertex $-1 $146 $162 #
straight-curve $-1 0.0685 -0.5 1.5 0 1 0 #
point $-1 0.0685 -0.5 1.5 #
coedge $-1 $130 $129 $80 $123 0 $131 $-1 #
edge $-1 $124 $163 $122 $164 0 #
vertex $-1 $134 $165 #
straight-curve $-1 0.9685 -1.75 1.5 0 -1 0 #
point $-1 0.9685 0 1.5 #
coedge $-1 $166 $167 $87 $128 1 $110 $-1 #
edge $-1 $132 $144 $127 $168 0 #
coedge $-1 $122 $88 $91 $134 1 $131 $-1 #
coedge $-1 $88 $122 $166 $169 0 $131 $-1 #
loop $-1 $170 $88 $109 #
vertex $-1 $169 $171 #
straight-curve $-1 0.2885 -1.75 0 -1 0 0 #
edge $-1 $124 $93 $91 $172 0 #
face $-1 $97 $92 $2 $-1 $173 forward single #
point $-1 0.9685 -1.75 0 #
straight-curve $-1 0.9685 0 0 0 0 -1 #
loop $-1 $174 $175 $97 #
coedge $-1 $139 $139 $176 $177 1 $96 $-1 #
face $-1 $178 $179 $2 $-1 $180 reversed single #
plane-surface $-1 0.9685 0 0 0 1 0 0 0 1 0 #
coedge $-1 $117 $99 $167 $181 1 $70 $-1 #
coedge $-1 $99 $117 $101 $146 0 $70 $-1 #
vertex $-1 $181 $182 #
straight-curve $-1 0.0685 -2.25 0 -1 0 0 #
edge $-1 $119 $103 $143 $183 0 #
point $-1 0.0685 -2.25 0 #
straight-curve $-1 0.0685 -0.5 0 0 0 -1 #
plane-surface $-1 0.2885 -1.75 0 0 -1 0 0 0 -1 0 #
loop $-1 $-1 $184 $69 #
coedge $-1 $151 $151 $112 $152 1 $185 $-1 #
edge $-1 $186 $186 $151 $187 0 #
coedge $-1 $153 $153 $113 $154 1 $188 $-1 #
edge $-1 $189 $189 $153 $190 0 #
loop $-1 $-1 $114 $191 #
vertex $-1 $115 $192 #
ellipse-curve $-1 -0.6215 -0.5 0.344 0 1 0 -0.125 0 0 1 #
coedge $-1 $167 $166 $116 $159 0 $110 $-1 #
edge $-1 $163 $160 $158 $193 0 #
vertex $-1 $181 $194 #
straight-curve $-1 0.0685 -2.25 1.5 -1 0 0 #
point $-1 0.0685 -2.25 1.5 #
vertex $-1 $169 $195 #
straight-curve $-1 0.2885 -1.75 1.5 -1 0 0 #
point $-1 0.9685 -1.75 1.5 #
coedge $-1 $158 $127 $130 $169 1 $110 $-1 #
coedge $-1 $127 $158 $142 $181 0 $110 $-1 #
straight-curve $-1 0.2885 -2.25 0 0 -1 0 #
edge $-1 $163 $132 $130 $196 0 #
loop $-1 $197 $198 $109 #
point $-1 0.2885 -1.75 0 #
straight-curve $-1 0.9685 -1.75 0 0 0 -1 #
plane-surface $-1 0.9685 -1.75 0 1 0 0 0 0 -1 0 #
loop $-1 $199 $200 $97 #
coedge $-1 $175 $175 $201 $202 1 $138 $-1 #
coedge $-1 $176 $176 $139 $177 0 $203 $-1 #
edge $-1 $204 $204 $176 $205 0 #
face $-1 $206 $207 $2 $-1 $208 reversed single #
loop $-1 $-1 $209 $140 #
plane-surface $-1 -0.6215 -0.38 0.75 0 -1 0 0 0 -1 0 #
edge $-1 $160 $144 $167 $210 0 #
point $-1 0.2885 -2.25 0 #
straight-curve $-1 0.0685 -2.25 0 0 0 -1 #
coedge $-1 $184 $184 $211 $212 1 $150 $-1 #
loop $-1 $-1 $151 $213 #
vertex $-1 $152 $214 #
ellipse-curve $-1 0.0685 -2 0.75 1 0 0 0 0.125 0 1 #
loop $-1 $-1 $153 $215 #
vertex $-1 $154 $216 #
ellipse-curve $-1 -0.6215 -0.5 1.156 0 1 0 -0.125 0 0 1 #
face $-1 $215 $217 $2 $-1 $218 reversed single #
point $-1 -0.4965 -0.5 0.344 #
straight-curve $-1 0.2885 -2.25 1.5 0 -1 0 #
point $-1 0.2885 -2.25 1.5 #
point $-1 0.2885 -1.75 1.5 #
straight-curve $-1 0.2885 -1.75 0 0 0 -1 #
loop $-1 $-1 $219 $109 #
coedge $-1 $198 $198 $220 $221 0 $170 $-1 #
loop $-1 $222 $223 $97 #
coedge $-1 $200 $200 $224 $225 1 $174 $-1 #
coedge $-1 $201 $201 $175 $202 0 $226 $-1 #
edge $-1 $227 $227 $201 $228 0 #
loop $-1 $-1 $176 $178 #
vertex $-1 $177 $229 #
ellipse-curve $-1 -0.6215 0 0.75 0 1 0 0.0625 0 0 1 #
face $-1 $230 $231 $2 $-1 $232 reversed single #
loop $-1 $203 $233 $178 #
cone-surface $-1 -0.6215 0 0.75 0 -1 0 0.0625 0 0 1 0 1 0 #
coedge $-1 $209 $209 $233 $234 0 $179 $-1 #
straight-curve $-1 0.2885 -2.25 0 0 0 -1 #
coedge $-1 $211 $211 $184 $212 0 $235 $-1 #
edge $-1 $236 $236 $211 $237 0 #
face $-1 $-1 $235 $2 $-1 $238 reversed single #
point $-1 0.0685 -2.125 0.75 #
face $-1 $239 $240 $2 $-1 $241 reversed single #
point $-1 -0.4965 -0.5 1.156 #
loop $-1 $155 $242 $191 #
cone-surface $-1 -0.6215 0 0.344 0 -1 0 0.125 0 0 1 0 1 0 #
coedge $-1 $219 $219 $243 $244 0 $197 $-1 #
coedge $-1 $220 $220 $198 $221 1 $245 $-1 #
edge $-1 $246 $246 $220 $247 0 #
loop $-1 $248 $249 $97 #
coedge $-1 $223 $223 $242 $250 1 $199 $-1 #
coedge $-1 $224 $224 $200 $225 0 $251 $-1 #
edge $-1 $252 $252 $224 $253 0 #
loop $-1 $-1 $201 $230 #
vertex $-1 $202 $254 #
ellipse-curve $-1 0 0 0.75 0 1 0 0.0625 0 0 1 #
point $-1 -0.559 0 0.75 #
face $-1 $255 $256 $2 $-1 $257 reversed single #
loop $-1 $-1 $258 $206 #
plane-surface $-1 0 -0.38 0.75 0 -1 0 0 0 -1 0 #
coedge $-1 $233 $233 $209 $234 1 $207 $-1 #
edge $-1 $259 $259 $233 $260 0 #
loop $-1 $185 $211 $213 #
vertex $-1 $212 $261 #
ellipse-curve $-1 0.2885 -2 0.75 1 0 0 0 -0.125 0 1 #
cone-surface $-1 0.2885 -2 0.75 -1 0 0 0 -0.125 0 1 0 1 0 #
face $-1 $262 $245 $2 $-1 $263 reversed single #
loop $-1 $188 $264 $215 #
cone-surface $-1 -0.6215 0 1.156 0 -1 0 0.125 0 0 1 0 1 0 #
coedge $-1 $242 $242 $223 $250 0 $217 $-1 #
coedge $-1 $243 $243 $219 $244 1 $265 $-1 #
edge $-1 $266 $266 $243 $267 0 #
loop $-1 $268 $220 $239 #
vertex $-1 $221 $269 #
ellipse-curve $-1 0.6285 -1.75 0.344 0 1 0 -0.140625 0 0 1 #
loop $-1 $270 $271 $97 #
coedge $-1 $249 $249 $264 $272 1 $222 $-1 #
edge $-1 $273 $273 $242 $274 0 #
loop $-1 $-1 $224 $275 #
vertex $-1 $225 $276 #
ellipse-curve $-1 0.6285 0 0.75 0 1 0 0.125 0 0 1 #
point $-1 0.0625 0 0.75 #
face $-1 $275 $277 $2 $-1 $278 reversed single #
loop $-1 $226 $279 $230 #
cone-surface $-1 0 0 0.75 0 -1 0 0.0625 0 0 1 0 1 0 #
coedge $-1 $258 $258 $279 $280 0 $231 $-1 #
vertex $-1 $234 $281 #
ellipse-curve $-1 -0.6215 -0.38 0.75 0 1 0 -0.0625 0 0 1 #
point $-1 0.2885 -2.125 0.75 #
face $-1 $282 $265 $2 $-1 $283 reversed single #
cone-surface $-1 0.6285 0 0.344 0 -1 0 0.140625 0 0 1 0 1 0 #
coedge $-1 $264 $264 $249 $272 0 $240 $-1 #
loop $-1 $284 $243 $262 #
vertex $-1 $244 $285 #
ellipse-curve $-1 0.6285 -1.75 1.156 0 1 0 -0.140625 0 0 1 #
loop $-1 $-1 $286 $239 #
point $-1 0.769125 -1.75 0.344 #
loop $-1 $-1 $287 $97 #
coedge $-1 $271 $271 $288 $289 1 $248 $-1 #
edge $-1 $290 $290 $264 $291 0 #
vertex $-1 $250 $292 #
ellipse-curve $-1 -0.6215 0 0.344 0 1 0 0.125 0 0 1 #
face $-1 $191 $293 $2 $-1 $294 reversed single #
point $-1 0.7535 0 0.75 #
loop $-1 $-1 $295 $255 #
plane-surface $-1 0.6285 -0.62 0.75 0 -1 0 0 0 -1 0 #
coedge $-1 $279 $279 $258 $280 1 $256 $-1 #
edge $-1 $296 $296 $279 $297 0 #
point $-1 -0.559 -0.38 0.75 #
face $-1 $298 $299 $2 $-1 $300 reversed single #
cone-surface $-1 0.6285 0 1.156 0 -1 0 0.140625 0 0 1 0 1 0 #
loop $-1 $-1 $301 $262 #
point $-1 0.769125 -1.75 1.156 #
coedge $-1 $286 $286 $302 $303 0 $268 $-1 #
coedge $-1 $287 $287 $304 $305 1 $270 $-1 #
coedge $-1 $288 $288 $271 $289 0 $306 $-1 #
edge $-1 $307 $307 $288 $308 0 #
vertex $-1 $272 $309 #
ellipse-curve $-1 -0.6215 0 1.156 0 1 0 0.125 0 0 1 #
point $-1 -0.4965 0 0.344 #
loop $-1 $251 $310 $275 #
cone-surface $-1 0.6285 0 0.75 0 -1 0 0.125 0 0 1 0 1 0 #
coedge $-1 $295 $295 $310 $311 0 $277 $-1 #
vertex $-1 $280 $312 #
ellipse-curve $-1 0 -0.38 0.75 0 1 0 -0.0625 0 0 1 #
face $-1 $313 $314 $2 $-1 $315 reversed single #
loop $-1 $316 $317 $282 #
plane-surface $-1 0.6285 -1.25 0.344 0 -1 0 0 0 -1 0 #
coedge $-1 $301 $301 $318 $319 0 $284 $-1 #
coedge $-1 $302 $302 $286 $303 1 $316 $-1 #
edge $-1 $320 $320 $302 $321 0 #
coedge $-1 $304 $304 $287 $305 0 $322 $-1 #
edge $-1 $323 $323 $304 $324 0 #
loop $-1 $-1 $288 $298 #
vertex $-1 $289 $325 #
ellipse-curve $-1 0.6285 0 0.344 0 1 0 0.203125 0 0 1 #
point $-1 -0.4965 0 1.156 #
coedge $-1 $310 $310 $295 $311 1 $293 $-1 #
edge $-1 $326 $326 $310 $327 0 #
point $-1 0.0625 -0.38 0.75 #
face $-1 $328 $329 $2 $-1 $330 reversed single #
loop $-1 $306 $331 $298 #
cone-surface $-1 0.6285 0 0.344 0 -1 0 0.203125 0 0 1 0 1 0 #
loop $-1 $-1 $302 $282 #
coedge $-1 $317 $317 $331 $332 0 $299 $-1 #
coedge $-1 $318 $318 $301 $319 1 $333 $-1 #
edge $-1 $334 $334 $318 $335 0 #
vertex $-1 $303 $336 #
ellipse-curve $-1 0.6285 -1.25 0.344 0 1 0 -0.140625 0 0 1 #
loop $-1 $-1 $304 $328 #
vertex $-1 $305 $337 #
ellipse-curve $-1 0.6285 0 1.156 0 1 0 0.203125 0 0 1 #
point $-1 0.831625 0 0.344 #
vertex $-1 $311 $338 #
ellipse-curve $-1 0.6285 -0.62 0.75 0 1 0 -0.125 0 0 1 #
face $-1 $213 $339 $2 $-1 $340 reversed single #
loop $-1 $333 $341 $313 #
plane-surface $-1 0.6285 -1.25 1.156 0 -1 0 0 0 -1 0 #
coedge $-1 $331 $331 $317 $332 1 $314 $-1 #
edge $-1 $342 $342 $331 $343 0 #
loop $-1 $-1 $318 $313 #
vertex $-1 $319 $344 #
ellipse-curve $-1 0.6285 -1.25 1.156 0 1 0 -0.140625 0 0 1 #
point $-1 0.769125 -1.25 0.344 #
point $-1 0.831625 0 1.156 #
point $-1 0.7535 -0.62 0.75 #
loop $-1 $322 $345 $328 #
cone-surface $-1 0.6285 0 1.156 0 -1 0 0.203125 0 0 1 0 1 0 #
coedge $-1 $341 $341 $345 $346 0 $329 $-1 #
vertex $-1 $332 $347 #
ellipse-curve $-1 0.6285 -1.25 0.344 0 1 0 -0.203125 0 0 1 #
point $-1 0.769125 -1.25 1.156 #
coedge $-1 $345 $345 $341 $346 1 $339 $-1 #
edge $-1 $348 $348 $345 $349 0 #
point $-1 0.831625 -1.25 0.344 #
vertex $-1 $346 $350 #
ellipse-curve $-1 0.6285 -1.25 1.156 0 1 0 -0.203125 0 0 1 #
point $-1 0.831625 -1.25 1.156 #
