105 43 1 0                              
body $-1 $1 $-1 $-1 #
lump $-1 $-1 $2 $0 #
shell $-1 $-1 $-1 $3 $1 #
face $-1 $4 $5 $2 $-1 $6 reversed single #
face $-1 $7 $8 $2 $-1 $9 forward single #
loop $-1 $10 $11 $3 #
plane-surface $-1 0 0 0 0 0 1 1 0 0 0 #
face $-1 $12 $13 $2 $-1 $14 forward single #
loop $-1 $15 $16 $4 #
plane-surface $-1 0 0 0.094 0 0 1 1 0 0 0 #
loop $-1 $-1 $17 $3 #
coedge $-1 $11 $11 $18 $19 0 $5 $-1 #
face $-1 $-1 $20 $2 $-1 $21 reversed single #
loop $-1 $22 $23 $7 #
cone-surface $-1 0 0 0 0 0 1 0.1875 0 0 1 0 1 0 #
loop $-1 $-1 $24 $4 #
coedge $-1 $16 $16 $23 $25 1 $8 $-1 #
coedge $-1 $17 $17 $26 $27 0 $10 $-1 #
coedge $-1 $18 $18 $11 $19 1 $22 $-1 #
edge $-1 $28 $28 $18 $29 0 #
loop $-1 $30 $31 $12 #
cone-surface $-1 0 0 0.094 0 0 -1 -0.125 0 0 1 0 1 0 #
loop $-1 $-1 $18 $7 #
coedge $-1 $23 $23 $16 $25 0 $13 $-1 #
coedge $-1 $24 $24 $31 $32 1 $15 $-1 #
edge $-1 $33 $33 $23 $34 0 #
coedge $-1 $26 $26 $17 $27 1 $30 $-1 #
edge $-1 $35 $35 $26 $36 0 #
vertex $-1 $19 $37 #
ellipse-curve $-1 0 0 0 0 0 -1 -0.1875 0 0 1 #
loop $-1 $-1 $26 $12 #
coedge $-1 $31 $31 $24 $32 0 $20 $-1 #
edge $-1 $38 $38 $31 $39 0 #
vertex $-1 $25 $40 #
ellipse-curve $-1 0 0 0.094 0 0 -1 0.1875 0 0 1 #
vertex $-1 $27 $41 #
ellipse-curve $-1 0 0 0 0 0 1 0.125 0 0 1 #
point $-1 0.1875 0 0 #
vertex $-1 $32 $42 #
ellipse-curve $-1 0 0 0.094 0 0 1 -0.125 0 0 1 #
point $-1 0.1875 0 0.094 #
point $-1 -0.125 0 0 #
point $-1 -0.125 0 0.094 #
