  0
SECTION
  2
HEADER
  9
$ACADVER
  1
AC1009
  9
$INSBASE
 10
0.0
 20
0.0
 30
0.0
  9
$EXTMIN
 10
0.0
 20
-1.0
 30
0.0
  9
$EXTMAX
 10
8.0
 20
3.0
 30
8.0
  9
$LIMMIN
 10
0.0
 20
0.0
  9
$LIMMAX
 10
12.0
 20
9.0
  9
$ORTHOMODE
 70
     0
  9
$REGENMODE
 70
     1
  9
$FILLMODE
 70
     1
  9
$QTEXTMODE
 70
     0
  9
$MIRRTEXT
 70
     1
  9
$DRAGMODE
 70
     2
  9
$LTSCALE
 40
1.0
  9
$OSMODE
 70
     0
  9
$ATTMODE
 70
     1
  9
$TEXTSIZE
 40
0.2
  9
$TRACEWID
 40
0.05
  9
$TEXTSTYLE
  7
STANDARD
  9
$CLAYER
  8
0
  9
$CELTYPE
  6
BYLAYER
  9
$CECOLOR
 62
   256
  9
$DIMSCALE
 40
1.0
  9
$DIMASZ
 40
0.18
  9
$DIMEXO
 40
0.0625
  9
$DIMDLI
 40
0.38
  9
$DIMRND
 40
0.0
  9
$DIMDLE
 40
0.0
  9
$DIMEXE
 40
0.18
  9
$DIMTP
 40
0.0
  9
$DIMTM
 40
0.0
  9
$DIMTXT
 40
0.18
  9
$DIMCEN
 40
0.09
  9
$DIMTSZ
 40
0.0
  9
$DIMTOL
 70
     0
  9
$DIMLIM
 70
     0
  9
$DIMTIH
 70
     1
  9
$DIMTOH
 70
     1
  9
$DIMSE1
 70
     0
  9
$DIMSE2
 70
     0
  9
$DIMTAD
 70
     0
  9
$DIMZIN
 70
     0
  9
$DIMBLK
  1

  9
$DIMASO
 70
     1
  9
$DIMSHO
 70
     1
  9
$DIMPOST
  1

  9
$DIMAPOST
  1

  9
$DIMALT
 70
     0
  9
$DIMALTD
 70
     2
  9
$DIMALTF
 40
25.4
  9
$DIMLFAC
 40
1.0
  9
$DIMTOFL
 70
     0
  9
$DIMTVP
 40
0.0
  9
$DIMTIX
 70
     0
  9
$DIMSOXD
 70
     0
  9
$DIMSAH
 70
     0
  9
$DIMBLK1
  1

  9
$DIMBLK2
  1

  9
$DIMSTYLE
  2
*UNNAMED
  9
$DIMCLRD
 70
     0
  9
$DIMCLRE
 70
     0
  9
$DIMCLRT
 70
     0
  9
$DIMTFAC
 40
1.0
  9
$DIMGAP
 40
0.09
  9
$LUNITS
 70
     2
  9
$LUPREC
 70
     4
  9
$SKETCHINC
 40
0.1
  9
$FILLETRAD
 40
0.0
  9
$AUNITS
 70
     0
  9
$AUPREC
 70
     0
  9
$MENU
  1
acad
  9
$ELEVATION
 40
0.0
  9
$PELEVATION
 40
0.0
  9
$THICKNESS
 40
0.0
  9
$LIMCHECK
 70
     0
  9
$BLIPMODE
 70
     1
  9
$CHAMFERA
 40
0.0
  9
$CHAMFERB
 40
0.0
  9
$SKPOLY
 70
     0
  9
$TDCREATE
 40
2449408.791624178
  9
$TDUPDATE
 40
2449408.793234328
  9
$TDINDWG
 40
0.0016101505
  9
$TDUSRTIMER
 40
0.0016101505
  9
$USRTIMER
 70
     1
  9
$ANGBASE
 50
0.0
  9
$ANGDIR
 70
     0
  9
$PDMODE
 70
     0
  9
$PDSIZE
 40
0.0
  9
$PLINEWID
 40
0.0
  9
$COORDS
 70
     1
  9
$SPLFRAME
 70
     0
  9
$SPLINETYPE
 70
     6
  9
$SPLINESEGS
 70
     8
  9
$ATTDIA
 70
     0
  9
$ATTREQ
 70
     1
  9
$HANDLING
 70
     1
  9
$HANDSEED
  5
87
  9
$SURFTAB1
 70
     6
  9
$SURFTAB2
 70
     6
  9
$SURFTYPE
 70
     6
  9
$SURFU
 70
     6
  9
$SURFV
 70
     6
  9
$UCSNAME
  2

  9
$UCSORG
 10
0.0
 20
0.0
 30
0.0
  9
$UCSXDIR
 10
1.0
 20
0.0
 30
0.0
  9
$UCSYDIR
 10
0.0
 20
1.0
 30
0.0
  9
$PUCSNAME
  2

  9
$PUCSORG
 10
0.0
 20
0.0
 30
0.0
  9
$PUCSXDIR
 10
1.0
 20
0.0
 30
0.0
  9
$PUCSYDIR
 10
0.0
 20
1.0
 30
0.0
  9
$USERI1
 70
     0
  9
$USERI2
 70
     0
  9
$USERI3
 70
     0
  9
$USERI4
 70
     0
  9
$USERI5
 70
     0
  9
$USERR1
 40
0.0
  9
$USERR2
 40
0.0
  9
$USERR3
 40
0.0
  9
$USERR4
 40
0.0
  9
$USERR5
 40
0.0
  9
$WORLDVIEW
 70
     1
  9
$SHADEDGE
 70
     3
  9
$SHADEDIF
 70
    70
  9
$TILEMODE
 70
     1
  9
$MAXACTVP
 70
    16
  9
$PINSBASE
 10
0.0
 20
0.0
 30
0.0
  9
$PLIMCHECK
 70
     0
  9
$PEXTMIN
 10
1.000000E+20
 20
1.000000E+20
 30
1.000000E+20
  9
$PEXTMAX
 10
-1.000000E+20
 20
-1.000000E+20
 30
-1.000000E+20
  9
$PLIMMIN
 10
0.0
 20
0.0
  9
$PLIMMAX
 10
12.0
 20
9.0
  9
$UNITMODE
 70
     0
  9
$VISRETAIN
 70
     0
  9
$PLINEGEN
 70
     0
  9
$PSLTSCALE
 70
     1
  9
$TREEDEPTH
 70
  3020
  9
$DWGCODEPAGE
  3
ascii
  0
ENDSEC
  0
SECTION
  2
TABLES
  0
TABLE
  2
VPORT
 70
     2
  0
VPORT
  2
*ACTIVE
 70
     0
 10
0.0
 20
0.0
 11
1.0
 21
1.0
 12
0.550533
 22
2.556039
 13
0.0
 23
0.0
 14
1.0
 24
1.0
 15
0.0
 25
0.0
 16
1.0
 26
2.0
 36
1.0
 17
0.0
 27
0.0
 37
0.0
 40
10.224154
 41
1.594883
 42
50.0
 43
0.0
 44
0.0
 50
0.0
 51
0.0
 71
     0
 72
   100
 73
     1
 74
     1
 75
     0
 76
     0
 77
     0
 78
     0
  0
ENDTAB
  0
TABLE
  2
LTYPE
 70
     1
  0
LTYPE
  2
CONTINUOUS
 70
    64
  3
Solid line
 72
    65
 73
     0
 40
0.0
  0
ENDTAB
  0
TABLE
  2
LAYER
 70
     2
  0
LAYER
  2
0
 70
    64
 62
     7
  6
CONTINUOUS
  0
LAYER
  2
AME_FRZ
 70
    65
 62
     7
  6
CONTINUOUS
  0
ENDTAB
  0
TABLE
  2
STYLE
 70
     1
  0
STYLE
  2
STANDARD
 70
     0
 40
0.0
 41
1.0
 50
0.0
 71
     0
 42
0.2
  3
txt
  4

  0
ENDTAB
  0
TABLE
  2
VIEW
 70
     0
  0
ENDTAB
  0
TABLE
  2
UCS
 70
     0
  0
ENDTAB
  0
TABLE
  2
APPID
 70
     3
  0
APPID
  2
ACAD
 70
    64
  0
APPID
  2
AME_SOL
 70
    64
  0
APPID
  2
AVE_INVOKE
 70
    64
  0
ENDTAB
  0
TABLE
  2
DIMSTYLE
 70
     0
  0
ENDTAB
  0
ENDSEC
  0
SECTION
  2
BLOCKS
  0
BLOCK
  8
0
  5
1
  2
AME_NIL
 70
    64
 10
0.0
 20
0.0
 30
0.0
  1
AME_NIL
  3
AME_NIL
  0
ENDBLK
  8
0
  5
2
  0
BLOCK
  8
0
  5
4
  2
AME_SOL
 70
    64
 10
0.0
 20
0.0
 30
0.0
  1
AME_SOL
  3
AME_SOL
  0
ENDBLK
  8
0
  5
5
  0
BLOCK
  8
0
  5
65
  2
*U4
 70
    65
 10
0.0
 20
0.0
 30
0.0
  1
*U
  3
*U
  0
LINE
  8
0
 62
     7
  5
66
 10
8.0
 20
2.0
 30
0.0
 11
8.0
 21
2.0
 31
8.0
1001
AME_SOL
1070
     1
1071
       32
  0
LINE
  8
0
 62
     7
  5
67
 10
8.0
 20
2.0
 30
8.0
 11
8.0
 21
0.0
 31
8.0
1001
AME_SOL
1070
     1
1071
       31
  0
LINE
  8
0
 62
     7
  5
68
 10
5.732051
 20
2.0
 30
8.0
 11
8.0
 21
2.0
 31
8.0
1001
AME_SOL
1070
     1
1071
       30
  0
LINE
  8
0
 62
     7
  5
69
 10
0.0
 20
2.0
 30
8.0
 11
2.267949
 21
2.0
 31
8.0
1001
AME_SOL
1070
     1
1071
       29
  0
LINE
  8
0
 62
     7
  5
6A
 10
0.0
 20
2.0
 30
0.0
 11
0.0
 21
2.0
 31
8.0
1001
AME_SOL
1070
     1
1071
       28
  0
LINE
  8
0
 62
     7
  5
6B
 10
0.0
 20
2.0
 30
8.0
 11
0.0
 21
0.0
 31
8.0
1001
AME_SOL
1070
     1
1071
       27
  0
LINE
  8
0
 62
     7
  5
6C
 10
0.0
 20
0.0
 30
0.0
 11
0.0
 21
0.0
 31
8.0
1001
AME_SOL
1070
     1
1071
       26
  0
LINE
  8
0
 62
     7
  5
6D
 10
8.0
 20
0.0
 30
8.0
 11
8.0
 21
0.0
 31
0.0
1001
AME_SOL
1070
     1
1071
       25
  0
LINE
  8
0
 62
     7
  5
6E
 10
5.732051
 20
0.0
 30
8.0
 11
8.0
 21
0.0
 31
8.0
1001
AME_SOL
1070
     1
1071
       24
  0
LINE
  8
0
 62
     7
  5
6F
 10
0.0
 20
0.0
 30
8.0
 11
2.267949
 21
0.0
 31
8.0
1001
AME_SOL
1070
     1
1071
       23
  0
LINE
  8
0
 62
     7
  5
70
 10
0.0
 20
0.0
 30
0.0
 11
8.0
 21
0.0
 31
0.0
1001
AME_SOL
1070
     1
1071
       22
  0
LINE
  8
0
 62
     7
  5
71
 10
0.0
 20
2.0
 30
0.0
 11
0.0
 21
0.0
 31
0.0
1001
AME_SOL
1070
     1
1071
       21
  0
LINE
  8
0
 62
     7
  5
72
 10
8.0
 20
0.0
 30
0.0
 11
8.0
 21
2.0
 31
0.0
1001
AME_SOL
1070
     1
1071
       20
  0
LINE
  8
0
 62
     7
  5
73
 10
8.0
 20
2.0
 30
0.0
 11
0.0
 21
2.0
 31
0.0
1001
AME_SOL
1070
     1
1071
       19
  0
LINE
  8
0
 62
     7
  5
74
 10
2.267949
 20
0.0
 30
3.0
 11
5.732051
 21
0.0
 31
3.0
1001
AME_SOL
1070
     1
1071
       18
  0
LINE
  8
0
 62
     7
  5
75
 10
5.732051
 20
2.0
 30
3.0
 11
2.267949
 21
2.0
 31
3.0
1001
AME_SOL
1070
     1
1071
       17
  0
ARC
  8
0
 62
     7
  5
76
 10
4.0
 20
1.0
 30
3.0
 40
2.0
 50
150.0
 51
210.0
1001
AME_SOL
1070
     1
1071
       16
  0
ARC
  8
0
 62
     7
  5
77
 10
4.0
 20
1.0
 30
3.0
 40
2.0
 50
330.0
 51
30.0
1001
AME_SOL
1070
     1
1071
       15
  0
LINE
  8
0
 62
     7
  5
78
 10
2.267949
 20
0.0
 30
3.0
 11
2.267949
 21
0.0
 31
8.0
1001
AME_SOL
1070
     1
1071
       14
  0
LINE
  8
0
 62
     7
  5
79
 10
5.732051
 20
0.0
 30
3.0
 11
5.732051
 21
0.0
 31
8.0
1001
AME_SOL
1070
     1
1071
       13
  0
LINE
  8
0
 62
     7
  5
7A
 10
5.732051
 20
2.0
 30
3.0
 11
5.732051
 21
2.0
 31
8.0
1001
AME_SOL
1070
     1
1071
       12
  0
LINE
  8
0
 62
     7
  5
7B
 10
2.267949
 20
2.0
 30
3.0
 11
2.267949
 21
2.0
 31
8.0
1001
AME_SOL
1070
     1
1071
       11
  0
ARC
  8
0
 62
     7
  5
7C
 10
4.0
 20
1.0
 30
8.0
 40
2.0
 50
150.0
 51
210.0
1001
AME_SOL
1070
     1
1071
       10
  0
ARC
  8
0
 62
     7
  5
7D
 10
4.0
 20
1.0
 30
8.0
 40
2.0
 50
330.0
 51
30.0
1001
AME_SOL
1070
     1
1071
        9
  0
LINE
  8
0
 62
     7
  5
7E
 10
6.0
 20
1.0
 30
3.0
 11
6.0
 21
1.0
 31
8.0
1001
AME_SOL
1070
     0
1071
        1
  0
LINE
  8
0
 62
     7
  5
7F
 10
2.0
 20
1.0
 30
3.0
 11
2.0
 21
1.0
 31
8.0
1001
AME_SOL
1070
     0
1071
        1
  0
ENDBLK
  8
0
  5
80
  0
BLOCK
  8
0
  5
84
  2
AME_JNK
 70
     0
 10
0.0
 20
0.0
 30
0.0
  1
AME_JNK
  3
AME_JNK
  0
ENDBLK
  8
0
  5
85
  0
ENDSEC
  0
SECTION
  2
ENTITIES
  0
INSERT
  8
AME_FRZ
  5
3
  2
AME_NIL
 10
0.0
 20
0.0
 30
0.0
  0
INSERT
  8
AME_FRZ
  5
6
  2
AME_SOL
 10
0.0
 20
0.0
 30
0.0
1001
AME_SOL
1000
R2.1
1000
AME2
1000
sq cm
1070
     3
1070
     0
1070
     3
1000
wire
1040
45.0
1000
U
1040
1.0
1000
cm
1000
gm
1000
MILD_STEEL
1070
    25
1000
CSG
1070
     1
1070
     3
1070
     3
1070
     3
1070
     0
1000
cu cm
1070
     1
1070
     0
1005
3
  0
INSERT
  8
AME_FRZ
  5
55
  2
AME_NIL
 10
0.0
 20
0.0
 30
0.0
1001
AME_SOL
1002
{
1070
     1
1071
  2437576
1070
  1536
1070
     1
1010
8.0
1020
2.0
1030
8.0
1005
0
1005
0
1005
81
1040
0.0
1040
1.0
1070
     0
1000
MILD_STEEL
1000
0
1010
0.0
1020
0.0
1030
0.0
1010
0.0
1020
0.0
1030
1.0
1040
0.0
1002
}
1001
AVE_INVOKE
1000
SOLAVEMESH
  0
INSERT
  8
AME_FRZ
  5
61
  2
AME_NIL
 10
4.0
 20
1.0
 30
3.0
1001
AME_SOL
1002
{
1070
     1
1071
  2446128
1070
  1538
1070
     1
1010
2.0
1020
2.0
1030
5.0
1005
0
1005
0
1005
81
1040
0.0
1040
1.0
1070
     0
1000
MILD_STEEL
1000
0
1010
4.0
1020
1.0
1030
3.0
1010
0.0
1020
0.0
1030
1.0
1040
0.0
1002
}
1001
AVE_INVOKE
1000
SOLAVEMESH
  0
INSERT
  8
0
  5
81
  2
*U4
 10
0.0
 20
0.0
 30
0.0
1001
AME_SOL
1002
{
1070
     1
1071
  2471344
1070
  1543
1070
     1
1070
     0
1005
55
1005
61
1005
0
1005
82
1005
0
1040
0.0
1040
1.0
1070
     0
1000
MILD_STEEL
1000
0
1002
}
1001
AVE_INVOKE
1000
SOLAVEMESH
  0
INSERT
  8
AME_FRZ
  5
82
  2
AME_NIL
 10
1.0
 20
1.0
 30
1.0
1001
AME_SOL
1004
C7CF010017018B018A01880184017C01700162014F0135019E00250116010B016000CB000C01A900CA00FD00ED0006006301A8005001580036010700FC0002007D013F007101640151013701DA00EA00D7005201CE00B000840085017E0172012000650153013801E70026012100AC004E00080073016601
1004
1400540139017300A3003A010C007200670155013B0115005D003C018C007F0056013D016E00E0003E01270156002C0028013100DF007F017401FE002500750168010A005701EE003F01E800C10069017500800089018601800176016A0196005801400152003800EB00A000770128006B01050059014101
1004
F5001F004201F300AF00810140007801F0006C015A01100024005B0143012901170103000D01BE000F00B6005F00C000870182017901BF0018007A016D015C0144012A01040016002B012600F20045012C0165004C002D017A0018010900BA005D0146012E0119010D0013001A01350036002F011B013D00
1004
44001C01C2007400470130011D01DB004D001E01D9005E0031011F015400CD002001D300D100010083017B016E015E014801320121010E01F800AB000F012A007800220110015300570011010101000119000201F70022003301230112010301EF002E0004012F0030001301050132009B0006019C00EC00
1004
240114010701E9003C0008019F00E50015010901E400E3000A01E2004800A4005F014901A5008B004A012D0012006F0160014B019700FB004C017000500061014D01980068004E0188003401D0009900FF00000018AF018AF000A74B707BDEFD08E0E276F85244C7B23B0EB5006F2F925980A4898F64760E
1004
027880A621492263D9284D47013C405310A6FBA5A3271B6031A19789D6A00DE5F24B30305EB7242183945875BCB65638CA9244C7B2509A8E027880A6214DC624AED739B7BF6E013C624BFEB0BFFFFFFF585FFFAE2BF584DFC9A937FABFABFFFFFC624BFEB0BFFFFFFF585FFFAE2BF584DFC9A937FABFABFF
1004
FFF5986B2315E1D01EFF585FFFFFFFAC2FFFEA17D6137F26A0CAE865964AA5A2E17E57432CB2552D1717BEDF6FE4D7FFC3CAE865964AA5A2E17EDFC9AFFE51457432CB2552D1717ADFFFFCA2836A4F7BDA93DEF6FFFFE514D64621E80F7FAC2FFFFFFFD617FACF7BDEF5E357EB30DFC9A832BA196592A968
1004
B85F95D0CB2C954B45C5EB7FDAC8C5BE80F7FAC2FFFFFFFD617FB7F655FAC26FE4D4195D0CB2C954B45C2FCAE865964AA5A2E2F7DBEDFC9AFFF8795D0CB2C954B45C2FDBF935FFCA28AE865964AA5A2E2F5BFFFF94506D49EF7B527BDEDFFFFCA29AC8C7D01EFF585FFFFFFFAC2FF59EF7BDEBC6A6FE4D4D
1004
FC9A832BA196592A968B85F95D0CB2C954B45C5EB7FDD2D1B411B6031A19789D6A00DE5F24B30305EB7242183945875BCB65638CA9244C7B2509A9244C7B2509A9B8E4AEF394DBDFB700BE392FFAC2FFFFFE7FF598FE7FF5C57EB09BF93526FFFFFFFFFF8E4BFEB0BFFFFF9FFD663F9FFD715FAC26FE4D49
1004
BFFFFFFFFFACC3A5A3682149131EC8EC05244C7B23B0149131EC8EC1C04F1014C429244C7B252A0A4898F6471371C949B8AEDBEDDC28DE392FFFFAC2FFFD617FFFFFFFFFA6FFFFFFFFFF8E4BFFFEB0BFFF585FFFFFFFFFE9BFFFFFFFFFAC274B464E149131EC8EC05244C7B23B0149131EC8EC1C04F1014C
1004
428292263D91C47013C405310A6E39290E45DB7DB97CDE392FFAC2FFFFFFFFFD617FFFFFA6FFFFFFFFFF8E4BFEB0BFFFFFFFFF585FFFFFE9BFFFFFFFFFAC274B46D04292263D91D80A4898F64760292263D91D80A4898F647124898F64A547013C405310A6E392832036DF6EE136F1C97FFFFFD617FFEB0B
1004
FFFFFFFD37FFFFFFFFFC725FFFFFF585FFFAC2FFFFFFFF4DFFFFFFFFFD613A5A3270A4898F64760292263D91D8014FCFA79389D51C04F1014C429244C7B252A3809E2029885371C95D4E836DF6EE126F1C97FD663F9FFE7FF9FFD663F9FFC857F57E42937FFFFFFFFFC725FF598FE7FF9FFE7FF598FE7FF2
1004
15FD5F90A4DFFFFFFFFFD613A5A3270A4898F647606D80C6865E20A4898F64760E027880A621492263D92951C04F1014C429B8E4AEE761B6FB7708B78E4BFF3FFCFFEB31FACC7F3FFCFFE42BFABF2149BFFFFFFFFFE392FFCFFF3FFACC7EB31FCFFF3FF90AFEAFC8526FFFFFFFFFEB09D2D1B41014FCFA79
1004
389D505244C7B23B0149131EC8EC1C04F1014C429244C7B252A3809E2029885371C95177CDB7DBB99BC725FF9FFD663F9FFE7FF9FFD663F215FD5F90A4DFFFFFFFFFF1C97FE7FF598FE7FF9FFE7FF598FC857F57E42937FFFFFFFFF584E27436C063432F105244C7B23B0029F9F4F2713AA2C3ADE5B2B1C6
1004
5492263D92951C04F1014C429A42A3990A843B9758690A8E642A10EE5D1060F3CE06491BDBBDEED739B753A0DE1BA9D06DDAE736DF7BDEF079EFF585FFFFFFFAC2FFFD715FAC2FC85341FEAFEA690A8E642A10EE5D61A42A3990A843B9744E27436C063432F105244C7B23B0029F9F4F2713AA2C3ADE5B2B
1004
1C65492263D92951C04F1014C4292733556B8E9249A72F97854732150877AF860F3CEC7079BDBBDEED739B753A0DE1BA9D06DDAE736DF7BDEF079EDCAD2831D9A65E50C4D4FE5D63FDA9FCBA272B4A0C76699794317F3FFAE2BF585F90A683FD5FD49399AAB5C74924D397CBC2A3990A843BD7DC4E86D80C
1004
6865E21B6031A1978860BD6E48430728B0EB796CAC719524898F64A547013C405310AFFFCA2834078ECE1537B77BDDAE736EE761BC3773B0DBB5CE6DBEF7BDE80F7FAC2FFFFFFFD617FB80B5A6BCE56ACBA157F537F26A0FFFF28A713A1B6031A197886D80C6865E2182F5B9210C1CA2C3ADE5B2B1C65492
1004
263D92951C04F1014C42BFFF28A0D01E70070B1BDEF6EED739B773B0DE1BB5CE6DDCEC36F7BDEDF407BFD617FFFFFFEB0BFCBD6A2D0B4F0000B42AFEA6FE4D41FFFE514E27436C063432F105244C7B23B0305EB7242183945875BCB65638CA8292263D91C47013C405310AFFFCA28340789800DEDDEF76B9
1004
CD90E45DE190E45DBB5CE6DBEF7BDE80F7FAC2FFFFFFFD617F97AD45A169E00016855FEDFC9A83FFFCA29C4E86D80C6865E20A4898F6476060BD6E48430728B0EB796CAC719505244C7B2388E027880A6215FFF9450680F32E1A37BDEDDDAE73643917786ED739B21C8BB7BDEF6FA03DFEB0BFFFFFFF585F
1004
EE02D69AF395AB2E855FB8B865BF93507FFF945389D0DB018D0CBC4EB5006F2F92598182F5B9210C1CA2C3ADE5B2B1C65492263D9284D492263D9284D4D2151CC85421DCBAC348547321508772E883079E49137BDEDDDAE736EF394DE1BB5CE6DDE729B7BDEF7BDEF079EFF585FFFFFFFAC2FFFD715FAC26
1004
FE4D4D07FABFA9A42A3990A843B9758690A8E642A10EE5D1389D0DB018D0CBC4EB5006F2F92598182F5B9210C1CA2C3ADE5B2B1C65492263D9284D492263D9284D49399AAB5C74924D397CBC2A3990A843BD7C3079E3B3878DEF7B776B9CDBBCE53786ED739B779CA6DEF7BDEF7BC1E7B72B4A0C76699794
1004
31353F9758FF6A7F2E89CAD2831D9A65E50C5FCFFEB8AFD6137F26A683FD5FD49399AAB5C74924D397CBC2A3990A843BD7DC4E86D80C6865E21B6031A1978860BD6E48430728B0EB796CAC719524898F64A5492263D9284D40CD7400D6CA344D7C4E0AD117AD5DAA3586A0A0D01E3B3874DEDDEF779CA6DD
1004
CEC3786EE761B779CA6DBEF7BDE80F7FFFAC2FFFFFFFD661BFB2AFEA6FE4D418335D0035B28D135F1382B445EB576A8D61A829C4E86D80C6865E20A4898F6476060BD6E48430728B0EB796CAC719505244C7B2389244C7B2509A9C11AE801AD94689AF88BC688BD6AED51AC35050680F1D9C386F6EF7BBCE
1004
53643917786439176EF394DB7DEF7BD01EFFFF598FFFFFFFD663FABFDBF93506E08D7400D6CA344D7C45E3445EB576A8D61A829C4E8292263D91D81B6031A19788292263D91D83809E202988524898F64A54149131EC8E2FD717FF5C50680F380386CDEF7B726E2BB773B0DE193715DBB9D86DBEDF407BFF
1004
FD617FFFFFFEB31FAE2BFABFC3FD717FF5C5389D00A7E7D3C9C4EA8292263D91D80A4898F64760E027880A621492263D929505244C7B238BF598FD610680F13241BDEF6E4DC5768BBE6F0C9B8AED177CDB7DBE80F7FAC2FFFFFFFFFD663F215FAC2FF0FF598FD61389D05244C7B23B0149131EC8EC05244C
1004
7B23B0149131EC8E249131EC94A8292263D91C5FD7FF9F0D01E64EC6F7BDB93715D832037864DC5760C80DB7DBE80F7FACC7FFFFFFFFEB31FFFFFE1FF5FFE7DC4E8292263D91D80A4898F64760292263D91D83809E202988505244C7B2388292263D91C5FFF90A0D01E49C306F7BDB93715D90E45DE19371
1004
5D90E45DB7DBE80F7FFFACC7FFFFFFEB31FFFFFE1FFFE429C4E8292263D91D80A4898F64760053F3E9E4E27547013C405310A0A4898F64711C04F1014C42BF5C5F24DA5063B34CBCBA580D01E428C4DEF7B721C8BB753A0DE190E45DBA9D06DBEDF407BFFFFFD617FFEB31FFFAE2BFFF2141FEB8BE49B4A0
1004
C766997974B0E274149131EC8EC05244C7B23B0029F9F4F2713AA3809E202988505244C7B2388E027880A621449B4A0C7669979748BF5C50680F387D0CDEF7B721C8BB753A0DE190E45DBA9D06DBEDF407BFFFFFD617FFEB31FFFAE2BFFF2141926D2831D9A65E5D22FD714E274029F9F4F2713AA0A4898F
1004
64760292263D91D83809E202988505244C7B2388E027880A6215FAE2FFEB8A0D01E0670B9BDEF6E4391768BBE6F0C8722ED177CDB7DBE80F7FAC2FFFFFFFD663FFF215FFFAE283FD717FF5C5389D05244C7B23B0149131EC8EC05244C7B23B0149131EC8E20A4898F64711C04F1014C42BFFF2141A03CED0
1004
137BDEDC8722EC1901BC321C8BB06406DBEDF407BFD663FFFFFFF598FFFFFFFF0FFFF214E274149131EC8EC05244C7B23B0029F9F4F2713AA0A4898F647124898F64A547013C405310AFD663F5841A03CE06746F7BDB832036EA741BC306406DD4E836DF6FA03DFFFFFEB0BF598FFFFFFFD617E4283FD663
1004
F584E274149131EC8EC0DB018D0CBC4149131EC8EC05244C7B2389244C7B252A3809E20298857EB8BFFAE2834079DCE1037BDEDC1901B773B0DE1832036EE761B6FB7D01EFFFF585FFFACC7FFFFFFF57EB8A0FF5C5FFD714E274149131EC8EC0DB018D0CBC4029F9F4F2713AA3809E202988524898F64A54
1004
7013C405310AFC85F7026A2D0B4F0000B42BE1A03C010BC46F7BDBBA9D06DDCEC3786EA741B773B0DB7DBE80F7FFFAC2FFFFFFFD617E42BFABF2141FE42FB81351685A780005A15F713A0A4898F647606D80C6865E2014FCFA79389D51C04F1014C429244C7B252A3809E2029885126D69AF395AB2E857FF
1004
9F0D01E75B06F7BDBBA9D06DDCEC3786EA741B773B0DB7DBE80F7FFFAC2FFFFFFFD617E42BFABF2141926D69AF395AB2E857FF9F713A014FCFA79389D505244C7B23B0029F9F4F2713AA3809E202988524898F64A547013C405310AFFFEA0D01E3EBE6F7BDBBA9D06D177CDE1BA9D06D177CDB7DBE80F7FA
1004
C2FFFFFE7FFFF585F90AFEAFC8507FFFD4E274029F9F4F2713AA1B6031A19788292263D91D83809E202988524898F64A547013C405310AFC85FFE7C340786CEE6F7BDBBB9D86D177CDE1BB9D86D177CDB7DBE80F7FAC2FFFFFFFD617FFE42BFABF2141FE42FFF3EE0D07B833
1005
83
  0
INSERT
  8
AME_FRZ
  5
83
  2
AME_NIL
 10
1.0
 20
1.0
 30
1.0
1001
AME_SOL
1004

1005
0
  0
ENDSEC
  0
EOF
