#define _width 236
#define _height 275
static char _bits[] = {
 0x00,0x00,0x00,0x00,0x00,0x00,0x00,0x00,0x00,0x00,0x00,0x00,0x00,0x00,0x00,
 0x00,0x00,0x00,0x78,0x00,0x00,0x00,0x00,0x00,0x00,0x00,0x00,0x00,0x00,0x00,
 0x00,0x00,0x00,0x00,0x00,0x00,0x00,0x00,0x00,0x00,0x00,0x00,0x00,0x00,0x00,
 0x00,0x00,0x00,0x78,0x00,0x00,0x00,0x00,0x00,0x00,0x00,0x00,0x00,0x00,0x00,
 0x00,0x00,0x00,0x00,0x00,0x00,0x00,0x00,0x00,0x00,0x00,0x00,0x00,0x00,0x00,
 0x00,0x00,0x00,0x87,0x3f,0x00,0x00,0x00,0x00,0x00,0x00,0x00,0x00,0x00,0x00,
 0x00,0x00,0x00,0x00,0x00,0x00,0x00,0x00,0x00,0x00,0x00,0x00,0x00,0x00,0x00,
 0x00,0x00,0xe0,0x00,0xc0,0x0f,0x00,0x00,0x00,0x00,0x00,0x00,0x00,0x00,0x00,
 0x00,0x00,0x00,0x00,0x00,0x00,0x00,0x00,0x00,0x00,0x00,0x00,0x00,0x00,0x00,
 0x00,0x00,0xe0,0x00,0xc0,0x0f,0x00,0x00,0x00,0x00,0x00,0x00,0x00,0x00,0x00,
 0x00,0x00,0x00,0x00,0x00,0x00,0x00,0x00,0x00,0x00,0x00,0x00,0x00,0x00,0x00,
 0x00,0x00,0x1c,0x00,0x00,0xf0,0x07,0x00,0x00,0x00,0x00,0x00,0x00,0x00,0x00,
 0x00,0x00,0x00,0x00,0x00,0x00,0x00,0x00,0x00,0x00,0x00,0x00,0x00,0x00,0x00,
 0x00,0x00,0x02,0x00,0x00,0x00,0xf8,0x00,0x00,0x00,0x00,0x00,0x00,0x00,0x00,
 0x00,0x00,0x00,0x00,0x00,0x00,0x00,0x00,0x00,0x00,0x00,0x00,0x00,0x00,0x00,
 0x00,0xc0,0x01,0x00,0x00,0x00,0xf8,0x00,0x00,0x00,0x00,0x00,0x00,0x00,0x00,
 0x00,0x00,0x00,0x00,0x00,0x00,0x00,0x00,0x00,0x00,0x00,0x00,0x00,0x00,0x00,
 0x00,0xc0,0x01,0x00,0x00,0x00,0xf8,0x00,0x00,0x00,0x00,0x00,0x00,0x00,0x00,
 0x00,0x00,0x00,0x00,0x00,0x00,0x00,0x00,0x00,0x00,0x00,0x00,0x00,0x00,0x00,
 0x00,0x38,0x00,0x00,0x00,0x00,0xc7,0x00,0x00,0x00,0x00,0x00,0x00,0x00,0x00,
 0x00,0x00,0x00,0x00,0x00,0x00,0x00,0x00,0x00,0x00,0x00,0x00,0x00,0x00,0x00,
 0x00,0x07,0x00,0x00,0x00,0xc0,0xc0,0x00,0x00,0x00,0x00,0x00,0x00,0x00,0x00,
 0x00,0x00,0x00,0x00,0x00,0x00,0x00,0x00,0x00,0x00,0x00,0x00,0x00,0x00,0x00,
 0x00,0x07,0x00,0x00,0x00,0xc0,0xc0,0x00,0x00,0x00,0x00,0x00,0x00,0x00,0x00,
 0x00,0x00,0x00,0x00,0x00,0x00,0x00,0x00,0x00,0x00,0x00,0x00,0x00,0x00,0x00,
 0x80,0x00,0x00,0x00,0x00,0x38,0xc0,0x00,0x00,0x00,0x00,0x00,0x00,0x00,0x00,
 0x00,0x00,0x00,0x00,0x00,0x00,0x00,0x00,0x00,0x00,0x00,0x00,0x00,0x00,0x00,
 0x70,0x00,0x00,0x00,0x00,0x06,0xc0,0x00,0x00,0x00,0x00,0x00,0x00,0x00,0x00,
 0x00,0x00,0x00,0x00,0x00,0x00,0x00,0x00,0x00,0x00,0x00,0x00,0x00,0x00,0x00,
 0x70,0x00,0x00,0x00,0x00,0x06,0xc0,0x00,0x00,0x00,0x00,0x00,0x00,0x00,0x00,
 0x00,0x00,0x00,0x00,0x00,0x00,0x00,0x00,0x00,0x00,0x00,0x00,0x00,0x00,0x00,
 0x0e,0x00,0x00,0x00,0xc0,0x01,0xc0,0x00,0x00,0x00,0x00,0x00,0x00,0x00,0x00,
 0x00,0x00,0x00,0x00,0x00,0x00,0x00,0x00,0x00,0x00,0x00,0x00,0x00,0x00,0xc0,
 0x01,0x00,0x00,0x00,0x38,0x00,0xc0,0x00,0x00,0x00,0x00,0x00,0x00,0x00,0x00,
 0x00,0x00,0x00,0x00,0x00,0x00,0x00,0x00,0x00,0x00,0x00,0x00,0x00,0x00,0x20,
 0x00,0x00,0x00,0x00,0x06,0x00,0xc0,0x00,0x00,0x00,0x00,0x00,0x00,0x00,0x00,
 0x00,0x00,0x00,0x00,0x00,0x00,0x00,0x00,0x00,0x00,0x00,0x00,0x00,0x00,0x20,
 0x00,0x00,0x00,0x00,0x06,0x00,0xc0,0x00,0x00,0x00,0x00,0x00,0x00,0x00,0x00,
 0x00,0x00,0x00,0x00,0x00,0x00,0x00,0x00,0x00,0x00,0x00,0x00,0x00,0x00,0x1c,
 0x00,0x00,0x00,0x80,0x01,0x00,0xc0,0x00,0x00,0x00,0x00,0x00,0x00,0x00,0x00,
 0x00,0x00,0x00,0x00,0x00,0x00,0x00,0x00,0x00,0x00,0x00,0x00,0x00,0x80,0x03,
 0x00,0x00,0x00,0x70,0x00,0x00,0xc0,0x00,0x00,0x00,0x00,0x00,0x00,0x00,0x00,
 0x00,0x00,0x00,0x00,0x00,0x00,0x00,0x00,0x00,0x00,0x00,0x00,0x00,0x80,0x03,
 0x00,0x00,0x00,0x70,0x00,0x00,0xc0,0x00,0x00,0x00,0x00,0x00,0x00,0x00,0x00,
 0x00,0x00,0x00,0x00,0x00,0x00,0x00,0x00,0x00,0x00,0x00,0x00,0x00,0x70,0x00,
 0x00,0x00,0x00,0x0e,0x00,0x00,0xc0,0x00,0x00,0x00,0x00,0x00,0x00,0x00,0x00,
 0x00,0x00,0x00,0x00,0x00,0x00,0x00,0x00,0x00,0x00,0x00,0x00,0x00,0x0c,0x00,
 0x00,0x00,0xc0,0x01,0x00,0x00,0xc0,0x00,0x00,0x00,0x00,0x00,0x00,0x00,0x00,
 0x00,0x00,0x00,0x00,0x00,0x00,0x00,0x00,0x00,0x00,0x00,0x00,0x00,0x0c,0x00,
 0x00,0x00,0xc0,0x01,0x00,0x00,0xc0,0x00,0x00,0x00,0x00,0x00,0x00,0x00,0x00,
 0x00,0x00,0x00,0x00,0x00,0x00,0x00,0x00,0x00,0x00,0x00,0x00,0x00,0x03,0x00,
 0x00,0x00,0x30,0x00,0x00,0x00,0xc0,0x00,0x00,0x00,0x00,0x00,0x00,0x00,0x00,
 0x00,0x00,0x00,0x00,0x00,0x00,0x00,0x00,0x00,0x00,0x00,0x00,0xe0,0x00,0x00,
 0x00,0x00,0x0c,0x00,0x00,0x00,0xc0,0x00,0x00,0x00,0x00,0x00,0x00,0x00,0x00,
 0x00,0x00,0x00,0x00,0x00,0x00,0x00,0x00,0x00,0x00,0x00,0x00,0xe0,0x00,0x00,
 0x00,0x00,0x0c,0x00,0x00,0x00,0xc0,0x00,0x00,0x00,0x00,0x00,0x00,0x00,0x00,
 0x00,0x00,0x00,0x00,0x00,0x00,0x00,0x00,0x00,0x00,0x00,0x00,0x1c,0x00,0x00,
 0x00,0x80,0x03,0x00,0x00,0x00,0xc0,0x00,0x00,0x00,0x00,0x00,0x00,0x00,0x00,
 0x00,0x00,0x00,0x00,0x00,0x00,0x00,0x00,0x00,0x00,0x00,0x00,0x03,0x00,0x00,
 0x00,0x70,0x00,0x00,0x00,0x00,0xc0,0x01,0x00,0x00,0x00,0x00,0x00,0x00,0x00,
 0x00,0x00,0x00,0x00,0x00,0x00,0x00,0x00,0x00,0x00,0x00,0xc0,0x00,0x00,0x00,
 0x00,0x0c,0x00,0x00,0x00,0x00,0x38,0x0e,0x00,0x00,0x00,0x00,0x00,0x00,0x00,
 0x00,0x00,0x00,0x00,0x00,0x00,0x00,0x00,0x00,0x00,0x00,0xc0,0x00,0x00,0x00,
 0x00,0x0c,0x00,0x00,0x00,0x00,0x38,0x0e,0x00,0x00,0x00,0x00,0x00,0x00,0x00,
 0x00,0x00,0x00,0x00,0x00,0x00,0x00,0x00,0x00,0x00,0x00,0x38,0x00,0x00,0x00,
 0x00,0x03,0x00,0x00,0x00,0x00,0x07,0x70,0x00,0x00,0x00,0x00,0x30,0x00,0x00,
 0x00,0x00,0x00,0x00,0x00,0x00,0x00,0x00,0x00,0x00,0x00,0x07,0x00,0x00,0x00,
 0xe0,0x00,0x00,0x00,0x00,0xc0,0x00,0x7c,0x00,0x00,0x00,0x00,0x4e,0x00,0x00,
 0x00,0x00,0x00,0x00,0x00,0x00,0x00,0x00,0x00,0x00,0x00,0x07,0x00,0x00,0x00,
 0xe0,0x00,0x00,0x00,0x00,0xc0,0x00,0x7c,0x00,0x00,0x00,0x00,0x4e,0x00,0x00,
 0x00,0x00,0x00,0x00,0x00,0x00,0x00,0x00,0x00,0x00,0xc0,0x00,0x00,0x00,0x00,
 0x1c,0x00,0x00,0x00,0x00,0x30,0x00,0x63,0x00,0x00,0x00,0xc0,0x41,0x00,0x00,
 0x00,0x00,0x00,0x00,0x00,0x00,0x00,0x00,0x00,0x00,0x38,0x00,0x00,0x00,0x80,
 0x03,0x00,0x00,0x00,0x00,0x0e,0xc0,0x60,0x00,0x00,0x00,0x30,0x80,0x01,0x00,
 0x00,0x00,0x00,0x00,0x00,0x00,0x00,0x00,0x00,0x00,0x38,0x00,0x00,0x00,0x80,
 0x03,0x00,0x00,0x00,0x00,0x0e,0xc0,0x60,0x00,0x00,0x00,0x30,0x80,0x01,0x00,
 0x00,0x00,0x00,0x00,0x00,0x00,0x00,0x00,0x00,0x00,0x06,0x00,0x00,0x00,0x60,
 0x00,0x00,0x00,0x00,0xc0,0x01,0x38,0x60,0x00,0x00,0x00,0x0e,0x00,0x02,0x00,
 0x00,0x00,0x00,0x00,0x00,0x00,0x00,0x00,0x00,0xc0,0x01,0x00,0x00,0x80,0x1f,
 0x00,0x00,0x00,0x00,0x38,0x00,0x07,0x60,0x00,0x00,0x80,0x01,0x00,0x04,0x00,
 0x00,0x00,0x00,0x00,0x00,0x00,0x00,0x00,0x00,0xc0,0x01,0x00,0x00,0x80,0x1f,
 0x00,0x00,0x00,0x00,0x38,0x00,0x07,0x60,0x00,0x00,0x80,0x01,0x00,0x04,0x00,
 0x00,0x00,0x00,0x00,0x00,0x00,0x00,0x00,0x00,0x30,0x00,0x00,0xe0,0x7f,0x18,
 0x00,0x00,0x1c,0x00,0x04,0x80,0x00,0x60,0x00,0x00,0x70,0x00,0x00,0x04,0x00,
 0x00,0x00,0x00,0x00,0x00,0x00,0x00,0x00,0x00,0x0e,0x00,0x80,0x1f,0x00,0x18,
 0x00,0x80,0xe3,0x80,0x03,0x70,0x00,0x60,0x00,0x00,0x0c,0x00,0x00,0x18,0x00,
 0x00,0x00,0x00,0x00,0x00,0x00,0x00,0x00,0xc0,0x01,0x00,0x70,0x00,0x00,0x18,
 0x00,0x40,0x00,0x71,0x00,0x0e,0x00,0x60,0x00,0x80,0x03,0x00,0x00,0x20,0x00,
 0x00,0x00,0x00,0x00,0x00,0x00,0x00,0x00,0xc0,0x01,0x00,0x70,0x00,0x00,0x18,
 0x00,0x40,0x00,0x71,0x00,0x0e,0x00,0x60,0x00,0x80,0x03,0x00,0x00,0x20,0x00,
 0x00,0x00,0x00,0x00,0x00,0x00,0x00,0x00,0x30,0x00,0x00,0x0e,0x00,0x00,0x18,
 0x00,0x30,0x00,0x0f,0xc0,0x01,0x00,0x60,0x00,0x60,0x00,0x00,0x00,0x20,0x00,
 0x00,0x00,0x00,0x00,0x00,0x00,0x00,0x00,0x0e,0x00,0xc0,0x01,0x00,0x00,0x18,
 0x00,0x08,0x00,0x01,0x20,0x00,0x00,0x60,0x00,0x1c,0x00,0x00,0x00,0xc0,0x00,
 0x00,0x00,0x00,0x00,0x00,0x00,0x00,0x00,0x0e,0x00,0xc0,0x01,0x00,0x00,0x18,
 0x00,0x08,0x00,0x01,0x20,0x00,0x00,0x60,0x00,0x1c,0x00,0x00,0x00,0xc0,0x00,
 0x00,0x00,0x00,0x00,0x00,0x00,0x00,0x80,0x01,0x00,0x38,0x00,0x00,0x00,0x18,
 0x00,0x04,0x00,0x06,0x1c,0x00,0x00,0x60,0x80,0x03,0x00,0x00,0x00,0xf8,0x00,
 0x00,0x00,0x00,0x00,0x00,0x00,0x00,0x70,0x00,0x00,0x06,0x00,0x00,0x00,0x18,
 0x00,0x04,0x00,0xb8,0x03,0x00,0x00,0x60,0x60,0x00,0x00,0x00,0x00,0xc6,0x00,
 0x00,0x00,0x00,0x00,0x00,0x00,0x00,0x70,0x00,0x00,0x06,0x00,0x00,0x00,0x18,
 0x00,0x04,0x00,0xb8,0x03,0x00,0x00,0x60,0x60,0x00,0x00,0x00,0x00,0xc6,0x00,
 0x00,0x00,0x00,0x00,0x00,0x00,0x00,0x0c,0x00,0x80,0x01,0x00,0x00,0x00,0x18,
 0x00,0x03,0x00,0x40,0x00,0x00,0x00,0x60,0x1c,0x00,0x00,0x00,0xc0,0xc1,0x00,
 0x00,0x00,0x00,0x00,0x00,0x00,0x80,0x03,0x00,0x40,0x00,0x00,0x00,0x00,0x18,
 0x00,0x03,0x00,0x40,0x00,0x00,0x00,0x60,0x03,0x00,0x00,0x00,0x30,0xc0,0x00,
 0x00,0x00,0x00,0x00,0x00,0x00,0x60,0x00,0x00,0x40,0x00,0x00,0x00,0x00,0x18,
 0x00,0x03,0x00,0x40,0x00,0x00,0x00,0xe0,0x00,0x00,0x00,0x00,0x0e,0xc0,0x00,
 0x00,0x00,0x00,0x00,0x00,0x00,0x60,0x00,0x00,0x40,0x00,0x00,0x00,0x00,0x18,
 0x00,0x03,0x00,0x40,0x00,0x00,0x00,0xe0,0x00,0x00,0x00,0x00,0x0e,0xc0,0x00,
 0x00,0x00,0x00,0x00,0x00,0x00,0x1c,0x00,0x00,0x30,0x00,0x00,0x00,0x00,0x18,
 0x00,0x03,0x00,0x40,0x00,0x00,0x00,0x1c,0x00,0x00,0x00,0xc0,0x01,0xc0,0x00,
 0x00,0x00,0x00,0x00,0x00,0x80,0x03,0x00,0x00,0x08,0x00,0x00,0x00,0x00,0x18,
 0x00,0x03,0x00,0x40,0x00,0x00,0x00,0x03,0x00,0x00,0x00,0x20,0x00,0xc0,0x00,
 0x00,0x00,0x00,0x00,0x00,0x80,0x03,0x00,0x00,0x08,0x00,0x00,0x00,0x00,0x18,
 0x00,0x03,0x00,0x40,0x00,0x00,0x00,0x03,0x00,0x00,0x00,0x20,0x00,0xc0,0x00,
 0x00,0x00,0x00,0x00,0x00,0x60,0x00,0x00,0x00,0x08,0x00,0x00,0x00,0x00,0x18,
 0xe0,0x0c,0x00,0x30,0x00,0x00,0xc0,0x00,0x00,0x00,0x00,0x1c,0x00,0xc0,0x00,
 0x00,0x00,0x00,0x00,0x00,0x18,0x00,0x00,0x00,0x08,0x00,0x00,0x00,0x00,0x18,
 0x1c,0x70,0x00,0x30,0x00,0x00,0x38,0x00,0x00,0x00,0x80,0x03,0x00,0xc0,0x00,
 0x00,0x00,0x00,0x00,0x00,0x18,0x00,0x00,0x00,0x08,0x00,0x00,0x00,0x00,0x18,
 0x1c,0x70,0x00,0x30,0x00,0x00,0x38,0x00,0x00,0x00,0x80,0x03,0x00,0xc0,0x00,
 0x00,0x00,0x00,0x00,0x00,0x07,0x00,0x00,0x00,0x06,0x00,0x00,0x00,0x00,0x98,
 0x03,0x78,0x00,0x08,0x00,0x00,0x07,0x00,0x00,0x00,0x70,0x00,0x00,0xc0,0x00,
 0x00,0x00,0x00,0x00,0xe0,0x00,0x00,0x00,0x00,0x06,0x00,0x00,0x00,0x00,0x78,
 0x00,0x47,0x00,0x06,0x00,0xc0,0x00,0x00,0x00,0x00,0x08,0x00,0x00,0xc0,0x00,
 0x00,0x00,0x00,0x00,0xe0,0x00,0x00,0x00,0x00,0x06,0x00,0x00,0x00,0x00,0x78,
 0x00,0x47,0x00,0x06,0x00,0xc0,0x00,0x00,0x00,0x00,0x08,0x00,0x00,0xc0,0x00,
 0x00,0x00,0x00,0x00,0x1c,0x00,0x00,0x00,0x00,0x06,0x00,0x00,0x00,0x00,0xf8,
 0xff,0x80,0x01,0x01,0x00,0x38,0x00,0x00,0x00,0x00,0x07,0x00,0x00,0xc0,0x00,
 0x00,0x00,0x00,0x00,0x02,0x00,0x00,0x00,0xc0,0x07,0x00,0x00,0x00,0x00,0x00,
 0x80,0x00,0xfe,0x00,0x00,0x06,0x00,0x00,0x00,0xe0,0x00,0x00,0x00,0xc0,0x00,
 0x00,0x00,0x00,0xc0,0x01,0x00,0x00,0x00,0x30,0x06,0x00,0x00,0x00,0x00,0x00,
 0x80,0x00,0x00,0x00,0x00,0x06,0x00,0x00,0x00,0x10,0x00,0x00,0x00,0xc0,0x00,
 0x00,0x00,0x00,0xc0,0x01,0x00,0x00,0x00,0x30,0x06,0x00,0x00,0x00,0x00,0x00,
 0x80,0x00,0x00,0x00,0x00,0x06,0x00,0x00,0x00,0x10,0x00,0x00,0x00,0xc0,0x00,
 0x00,0x00,0x00,0x38,0x00,0x00,0x00,0x00,0x0e,0x06,0x00,0x00,0x00,0x00,0x00,
 0x80,0x00,0x00,0x00,0x00,0x06,0x00,0x00,0x00,0x0e,0x00,0x00,0x00,0xc0,0x00,
 0x00,0x00,0x00,0x07,0x00,0x00,0x00,0xc0,0x01,0x06,0x00,0x00,0x00,0x00,0x00,
 0x80,0x00,0x00,0x00,0x00,0x01,0x00,0x00,0xc0,0x01,0x00,0x00,0x00,0xc0,0x00,
 0x00,0x00,0x00,0x07,0x00,0x00,0x00,0xc0,0x01,0x06,0x00,0x00,0x00,0x00,0x00,
 0x80,0x00,0x00,0x00,0x00,0x01,0x00,0x00,0xc0,0x01,0x00,0x00,0x00,0xc0,0x00,
 0x00,0x00,0x80,0x00,0x00,0x00,0x00,0x30,0x00,0x06,0x00,0x00,0x00,0x00,0x00,
 0x80,0x00,0x00,0x00,0x00,0x01,0x00,0x00,0x38,0x00,0x00,0x00,0x00,0xc0,0x00,
 0x00,0x00,0x70,0x00,0x00,0x00,0x00,0x0c,0x00,0x06,0x00,0x00,0x00,0x00,0x00,
 0x80,0x00,0x00,0x00,0xc0,0x00,0x00,0x00,0x04,0x00,0xf8,0x01,0x00,0xc0,0x00,
 0x00,0x00,0x70,0x00,0x00,0x00,0x00,0x0c,0x00,0x06,0x00,0x00,0x00,0x00,0x00,
 0x80,0x00,0x00,0x00,0xc0,0x00,0x00,0x00,0x04,0x00,0xf8,0x01,0x00,0xc0,0x00,
 0x00,0x00,0x0e,0x00,0x00,0x00,0x80,0x03,0x00,0x06,0x00,0x00,0x00,0x00,0x00,
 0x80,0x00,0x00,0x00,0xc0,0x00,0x00,0x80,0x03,0x00,0x07,0x02,0x00,0xc0,0x00,
 0x00,0xc0,0x01,0x00,0x00,0x00,0x70,0x00,0x00,0x06,0x00,0x00,0x00,0x00,0x00,
 0x80,0x00,0x00,0x00,0x20,0x00,0x00,0x70,0x00,0x80,0x00,0x1c,0x00,0xc0,0x00,
 0x00,0xc0,0x01,0x00,0x00,0x00,0x70,0x00,0x00,0x06,0x00,0x00,0x00,0x00,0x00,
 0x80,0x00,0x00,0x00,0x20,0x00,0x00,0x70,0x00,0x80,0x00,0x1c,0x00,0xc0,0x00,
 0x00,0x20,0x00,0x00,0x00,0x00,0x0c,0x00,0x00,0x06,0x00,0x00,0x00,0x00,0x00,
 0x80,0x00,0x00,0x00,0x18,0x00,0x00,0x0e,0x00,0x60,0x00,0x20,0x00,0xc0,0x00,
 0x00,0x1c,0x00,0x00,0x00,0x80,0x03,0x00,0x00,0x06,0x00,0x00,0x00,0x00,0x00,
 0x80,0x00,0x00,0x00,0x04,0x00,0x00,0x01,0x00,0x10,0x00,0x20,0x00,0xc0,0x00,
 0x80,0x03,0x00,0x00,0x00,0x60,0x00,0x00,0x00,0x06,0x00,0x00,0x00,0x00,0x00,
 0x80,0x00,0x00,0x80,0x03,0x00,0xe0,0x00,0x00,0x0c,0x00,0x20,0x00,0xc0,0x00,
 0x80,0x03,0x00,0x00,0x00,0x60,0x00,0x00,0x00,0x06,0x00,0x00,0x00,0x00,0x00,
 0x80,0x00,0x00,0x80,0x03,0x00,0xe0,0x00,0x00,0x0c,0x00,0x20,0x00,0xc0,0x00,
 0x70,0x00,0x00,0x00,0x00,0x1c,0x00,0x00,0x00,0x06,0x00,0x00,0x00,0x00,0x00,
 0x80,0x00,0x00,0x40,0x00,0x00,0x1c,0x00,0x00,0x02,0x00,0x20,0x00,0xc0,0x00,
 0x08,0x00,0x00,0x00,0x80,0x03,0x00,0x00,0x00,0x06,0x00,0x00,0x00,0x00,0x00,
 0x80,0x00,0x00,0x30,0x00,0x00,0x03,0x00,0x00,0x02,0x00,0x20,0x00,0xc0,0x00,
 0x08,0x00,0x00,0x00,0x80,0x03,0x00,0x00,0x00,0x06,0x00,0x00,0x00,0x00,0x00,
 0x80,0x00,0x00,0x30,0x00,0x00,0x03,0x00,0x00,0x02,0x00,0x20,0x00,0xc0,0x00,
 0x38,0x00,0x00,0x00,0x60,0x00,0x00,0x00,0x00,0x06,0x00,0x00,0x00,0x00,0x00,
 0x80,0x00,0x00,0x0e,0x00,0xc0,0x00,0x00,0x80,0x01,0x00,0x20,0x00,0xc0,0x00,
 0x48,0x00,0x00,0x00,0x1c,0x00,0x00,0x00,0x00,0x06,0x00,0x00,0x00,0x00,0x00,
 0x80,0x00,0xc0,0x01,0x00,0x38,0x00,0x00,0x80,0x01,0x00,0x20,0x00,0xc0,0x00,
 0x48,0x00,0x00,0x00,0x1c,0x00,0x00,0x00,0x00,0x06,0x00,0x00,0x00,0x00,0x00,
 0x80,0x00,0xc0,0x01,0x00,0x38,0x00,0x00,0x80,0x01,0x00,0x20,0x00,0xc0,0x00,
 0x48,0x00,0x00,0x00,0x03,0x00,0x00,0x00,0x00,0x06,0x00,0x00,0x00,0x00,0x00,
 0x80,0x80,0x3f,0x00,0x00,0x07,0x00,0x00,0x40,0x00,0x00,0x20,0x00,0xc0,0x00,
 0x88,0x01,0x00,0xe0,0x00,0x00,0x80,0x07,0x00,0x06,0x00,0x00,0x00,0x00,0x00,
 0xe0,0x7f,0x00,0x00,0xc0,0x00,0x00,0x00,0x40,0x00,0x00,0x10,0x00,0xc0,0x00,
 0x08,0x02,0x00,0x18,0x00,0x00,0x60,0x38,0xc0,0x07,0x00,0x00,0x00,0x00,0x80,
 0x9f,0x00,0x00,0x00,0x38,0x00,0x00,0x00,0x20,0x00,0x00,0x10,0x00,0xc0,0x00,
 0x08,0x02,0x00,0x18,0x00,0x00,0x60,0x38,0xc0,0x07,0x00,0x00,0x00,0x00,0x80,
 0x9f,0x00,0x00,0x00,0x38,0x00,0x00,0x00,0x20,0x00,0x00,0x10,0x00,0xc0,0x00,
 0x08,0x04,0x00,0x07,0x00,0x00,0x1c,0x30,0x30,0x08,0x00,0x00,0x00,0x00,0x60,
 0x00,0x00,0x00,0x00,0x06,0x00,0x00,0x00,0x20,0x00,0x00,0x0c,0x00,0xc0,0x00,
 0x08,0x18,0xc0,0x00,0x00,0x00,0x0c,0x30,0x0e,0x08,0x00,0x00,0x00,0x00,0x1c,
 0x00,0x00,0x00,0xc0,0x01,0x00,0x00,0x00,0x20,0x00,0x00,0x0c,0x00,0xc0,0x00,
 0x08,0x18,0xc0,0x00,0x00,0x00,0x0c,0x30,0x0e,0x08,0x00,0x00,0x00,0x00,0x1c,
 0x00,0x00,0x00,0xc0,0x01,0x00,0x00,0x00,0x20,0x00,0x00,0x0c,0x00,0xc0,0x00,
 0x08,0x18,0x38,0x00,0x00,0x00,0x02,0xc0,0x01,0x08,0x00,0x00,0x00,0x00,0x03,
 0x00,0x00,0x00,0x30,0x00,0x00,0x00,0x00,0x20,0x00,0x00,0x02,0x00,0xc0,0x00,
 0x08,0x20,0x07,0x00,0x00,0x80,0x01,0x80,0x01,0x0f,0x00,0x00,0x00,0xe0,0x00,
 0x00,0x00,0x00,0x0e,0x00,0x00,0x00,0x00,0x20,0x00,0x80,0x01,0x00,0xc0,0x00,
 0x08,0x20,0x07,0x00,0x00,0x80,0x01,0x80,0x01,0x0f,0x00,0x00,0x00,0xe0,0x00,
 0x00,0x00,0x00,0x0e,0x00,0x00,0x00,0x00,0x20,0x00,0x80,0x01,0x00,0xc0,0x00,
 0x08,0xc0,0x00,0x00,0x00,0x80,0x01,0x00,0xee,0x08,0x00,0x00,0x00,0x1c,0x00,
 0x00,0x00,0xc0,0x01,0x00,0x00,0x00,0x00,0x20,0x00,0x40,0x00,0x00,0xf8,0x00,
 0x08,0xc0,0x00,0x00,0x00,0x40,0x00,0x00,0x10,0x08,0x00,0x00,0x00,0x03,0x00,
 0x00,0x00,0x20,0x00,0x00,0x00,0x00,0x00,0x20,0x00,0x30,0x00,0x00,0x06,0x01,
 0x08,0xc0,0x00,0x00,0x00,0x40,0x00,0x00,0x10,0x08,0x00,0x00,0x00,0x03,0x00,
 0x00,0x00,0x20,0x00,0x00,0x00,0x00,0x00,0x20,0x00,0x30,0x00,0x00,0x06,0x01,
 0x08,0xc0,0x00,0x00,0x00,0x40,0x00,0x00,0x10,0x08,0x00,0x00,0xc0,0x00,0x00,
 0x00,0x00,0x1c,0x00,0x00,0x00,0x00,0x00,0x20,0x00,0x30,0x00,0xc0,0x01,0x01,
 0x08,0xc0,0x00,0x00,0x00,0x20,0x00,0x00,0x10,0x08,0x00,0x00,0x38,0x00,0x00,
 0x00,0x80,0x03,0x00,0x00,0x00,0x00,0x00,0x40,0x00,0x08,0x00,0x30,0x00,0x01,
 0x0e,0xc0,0x00,0x00,0x00,0x20,0x00,0x00,0x10,0x08,0x00,0x00,0x07,0x00,0x00,
 0x00,0x70,0x00,0x00,0x00,0x00,0x00,0x00,0x80,0x01,0x07,0x00,0x0e,0x00,0x01,
 0x0e,0xc0,0x00,0x00,0x00,0x20,0x00,0x00,0x10,0x08,0x00,0x00,0x07,0x00,0x00,
 0x00,0x70,0x00,0x00,0x00,0x00,0x00,0x00,0x80,0x01,0x07,0x00,0x0e,0x00,0x01,
 0x0e,0xc0,0x00,0x00,0x00,0x20,0x00,0x00,0x0c,0x08,0x00,0x80,0x00,0x00,0x00,
 0x00,0x08,0x00,0x00,0x00,0x00,0x00,0x00,0x80,0xff,0x00,0xc0,0x01,0x00,0x06,
 0x0e,0xc0,0x00,0x00,0x00,0xdc,0x01,0x00,0x0c,0x08,0x00,0x70,0x00,0x00,0x00,
 0x00,0x07,0x00,0x00,0x00,0x00,0x00,0x00,0x00,0x00,0x00,0x20,0x00,0x00,0x06,
 0x0e,0xc0,0x00,0x00,0x00,0xdc,0x01,0x00,0x0c,0x08,0x00,0x70,0x00,0x00,0x00,
 0x00,0x07,0x00,0x00,0x00,0x00,0x00,0x00,0x00,0x00,0x00,0x20,0x00,0x00,0x06,
 0x36,0xc0,0x00,0x00,0x80,0x03,0x0e,0x00,0x02,0x08,0x00,0x0e,0x00,0x00,0x00,
 0xe0,0x00,0x00,0x00,0x00,0x00,0x00,0x00,0x00,0x00,0x00,0x1c,0x00,0x00,0x06,
 0x36,0xc0,0x00,0x00,0x70,0x80,0x0f,0x80,0x01,0x08,0xc0,0x01,0x00,0x00,0x00,
 0x10,0x00,0x00,0x00,0x00,0x00,0x00,0x00,0x00,0x00,0x80,0x03,0x00,0x00,0x06,
 0x36,0xc0,0x00,0x00,0x70,0x80,0x0f,0x80,0x01,0x08,0xc0,0x01,0x00,0x00,0x00,
 0x10,0x00,0x00,0x00,0x00,0x00,0x00,0x00,0x00,0x00,0x80,0x03,0x00,0x00,0x06,
 0x31,0xc0,0x00,0x00,0x0c,0x60,0x0c,0x80,0x01,0x08,0x20,0x00,0x00,0x00,0x00,
 0x0e,0x00,0x00,0x00,0x00,0x00,0x00,0x00,0x00,0x00,0x70,0x00,0x00,0x00,0x08,
 0x31,0xc0,0x00,0x00,0x03,0x18,0x10,0x40,0x00,0x08,0x1c,0x00,0x00,0x00,0xc0,
 0x01,0x00,0x00,0x00,0x00,0x00,0x00,0x00,0x00,0x00,0x08,0x00,0x00,0x00,0x08,
 0x31,0xc0,0x00,0x00,0x03,0x18,0x10,0x40,0x00,0x08,0x1c,0x00,0x00,0x00,0xc0,
 0x01,0x00,0x00,0x00,0x00,0x00,0x00,0x00,0x00,0x00,0x08,0x00,0x00,0x00,0x08,
 0x31,0xc0,0x00,0xe0,0x00,0x07,0x60,0x3c,0x00,0x88,0x03,0x00,0x00,0x00,0x38,
 0x00,0x00,0x00,0x00,0x00,0x00,0x00,0x00,0x00,0x00,0x07,0x00,0x00,0x00,0x08,
 0x31,0xc0,0x00,0x1c,0xe0,0x00,0x80,0x03,0x00,0x48,0x00,0x00,0x00,0x00,0x04,
 0x00,0x00,0x00,0x00,0x00,0x00,0x00,0x00,0x00,0xe0,0x00,0x00,0x00,0x00,0x08,
 0x37,0xc0,0x00,0x03,0x10,0x00,0x00,0x00,0x00,0x38,0x00,0x00,0x00,0x80,0x03,
 0x00,0x00,0x00,0x00,0x00,0x00,0x00,0x00,0x00,0x10,0x00,0x00,0x00,0x00,0x08,
 0x37,0xc0,0x00,0x03,0x10,0x00,0x00,0x00,0x00,0x38,0x00,0x00,0x00,0x80,0x03,
 0x00,0x00,0x00,0x00,0x00,0x00,0x00,0x00,0x00,0x10,0x00,0x00,0x00,0x00,0x08,
 0x37,0xc0,0xc0,0x00,0x0e,0x00,0x00,0x00,0x00,0x07,0x00,0x00,0x00,0x70,0x00,
 0x00,0x00,0x00,0x00,0x00,0x00,0x00,0x00,0x00,0x0e,0x00,0x00,0x00,0x00,0x0e,
 0x37,0xc0,0x38,0xc0,0x01,0x00,0x00,0x00,0xe0,0x00,0x00,0x00,0x00,0x0e,0x00,
 0x00,0x00,0x00,0x00,0x00,0x00,0x00,0x00,0xc0,0x01,0x00,0x00,0x00,0x00,0x0e,
 0x37,0xc0,0x38,0xc0,0x01,0x00,0x00,0x00,0xe0,0x00,0x00,0x00,0x00,0x0e,0x00,
 0x00,0x00,0x00,0x00,0x00,0x00,0x00,0x00,0xc0,0x01,0x00,0x00,0x00,0x00,0x0e,
 0x37,0xc0,0x07,0x38,0x00,0x00,0x00,0x00,0x10,0x00,0x00,0x00,0x00,0x01,0x80,
 0x1f,0x00,0x00,0x00,0x00,0x00,0x00,0x00,0x38,0x00,0x00,0x00,0x00,0x00,0x0e,
 0x39,0xc0,0x00,0x04,0x00,0x00,0x00,0x00,0x0e,0x00,0x00,0x00,0xe0,0x00,0x60,
 0xe0,0x00,0x00,0x00,0x00,0x00,0x00,0x00,0x04,0x00,0x00,0x00,0x00,0x00,0x0e,
 0x39,0xc0,0x00,0x04,0x00,0x00,0x00,0x00,0x0e,0x00,0x00,0x00,0xe0,0x00,0x60,
 0xe0,0x00,0x00,0x00,0x00,0x00,0x00,0x00,0x04,0x00,0x00,0x00,0x00,0x00,0x0e,
 0x39,0x00,0x81,0x03,0x00,0x00,0x00,0xc0,0x01,0x00,0x00,0x00,0x1c,0x00,0x18,
 0x00,0x03,0x00,0x00,0x00,0x00,0x00,0x80,0x03,0x00,0x00,0x00,0x00,0x00,0x09,
 0x39,0x00,0x76,0x00,0x00,0x00,0x00,0xf0,0x01,0x00,0x00,0x00,0x03,0x00,0x04,
 0x00,0x04,0x00,0x00,0x00,0x00,0x00,0x70,0x00,0x00,0x00,0x00,0x00,0x00,0x09,
 0x39,0x00,0x08,0x00,0x00,0x00,0x00,0x30,0x3e,0x00,0x00,0xc0,0x00,0x00,0x03,
 0x00,0x04,0x00,0x00,0x00,0x00,0x00,0x0e,0x00,0x00,0x00,0x00,0x00,0x00,0x09,
 0x39,0x00,0x08,0x00,0x00,0x00,0x00,0x30,0x3e,0x00,0x00,0xc0,0x00,0x00,0x03,
 0x00,0x04,0x00,0x00,0x00,0x00,0x00,0x0e,0x00,0x00,0x00,0x00,0x00,0x00,0x09,
 0x31,0x00,0x08,0x00,0x00,0x00,0x00,0x30,0xc0,0x3f,0x00,0x38,0x00,0x80,0x00,
 0x00,0x04,0x00,0x00,0x00,0x00,0x00,0x01,0x00,0x00,0x00,0x00,0x00,0x00,0x09,
 0x31,0x00,0x08,0x00,0x00,0x00,0x00,0x30,0x00,0xc0,0x07,0x07,0x00,0x60,0x00,
 0x00,0x04,0x00,0x00,0x00,0x00,0xe0,0x00,0x00,0x00,0x00,0x00,0x00,0xc0,0x08,
 0x31,0x00,0x08,0x00,0x00,0x00,0x00,0x30,0x00,0xc0,0x07,0x07,0x00,0x60,0x00,
 0x00,0x04,0x00,0x00,0x00,0x00,0xe0,0x00,0x00,0x00,0x00,0x00,0x00,0xc0,0x08,
 0x31,0x00,0x08,0x00,0x00,0x00,0x00,0x30,0x00,0x00,0xf8,0x00,0x00,0x60,0x00,
 0x00,0x04,0x00,0x00,0x00,0x00,0x1c,0x00,0x00,0x00,0x00,0x00,0x00,0xc0,0x08,
 0x01,0x00,0x08,0x00,0x00,0x00,0x00,0x30,0x00,0x00,0xc0,0x00,0x00,0x10,0x00,
 0x00,0x04,0x00,0x00,0x00,0x00,0x03,0x00,0x00,0x00,0x00,0x00,0x00,0x20,0x08,
 0x01,0x00,0x08,0x00,0x00,0x00,0x00,0x30,0x00,0x00,0xc0,0x00,0x00,0x10,0x00,
 0x00,0x04,0x00,0x00,0x00,0x00,0x03,0x00,0x00,0x00,0x00,0x00,0x00,0x20,0x08,
 0x01,0x00,0x08,0x00,0x00,0x00,0x00,0x30,0x00,0x00,0xc0,0x00,0x00,0x10,0x00,
 0x00,0x04,0x00,0x00,0x00,0xc0,0x00,0x00,0x00,0x00,0x00,0x00,0x00,0x20,0x08,
 0x01,0x00,0x08,0x00,0x00,0x00,0x00,0x30,0x00,0x00,0xc0,0x00,0x00,0x0c,0x00,
 0x00,0x04,0x00,0x00,0x00,0x38,0x00,0x00,0x00,0x00,0x00,0x00,0x00,0x18,0x08,
 0x01,0x00,0x08,0x00,0x00,0x00,0x00,0x30,0x00,0x00,0xc0,0x00,0x00,0x0c,0x00,
 0x00,0x04,0x00,0x00,0x00,0x38,0x00,0x00,0x00,0x00,0x00,0x00,0x00,0x18,0x08,
 0x01,0x00,0x08,0x00,0x00,0x00,0x00,0x30,0x00,0x00,0xc0,0x00,0x00,0x0c,0x00,
 0x00,0x03,0x00,0x00,0x00,0x07,0x00,0x00,0x00,0x00,0x00,0x00,0x00,0x04,0x08,
 0x01,0x00,0x08,0x00,0x00,0x00,0x00,0x30,0x00,0x00,0xc0,0x00,0x00,0x0c,0x00,
 0x00,0x03,0x00,0x00,0xc0,0x00,0x00,0x00,0x00,0x00,0x00,0x00,0x00,0x02,0x08,
 0x01,0x00,0x08,0x00,0x00,0x00,0x00,0x30,0x00,0x00,0xc0,0x00,0x00,0x02,0x00,
 0x00,0x03,0x00,0x00,0x38,0x00,0x00,0x00,0x00,0x00,0x00,0x00,0x00,0x02,0x08,
 0x01,0x00,0x08,0x00,0x00,0x00,0x00,0x30,0x00,0x00,0xc0,0x00,0x00,0x02,0x00,
 0x00,0x03,0x00,0x00,0x38,0x00,0x00,0x00,0x00,0x00,0x00,0x00,0x00,0x02,0x08,
 0x01,0x00,0x08,0x00,0x00,0x00,0x00,0x30,0x00,0x00,0xc0,0x00,0x00,0x02,0x00,
 0x80,0x00,0x00,0x00,0x06,0x00,0x00,0x00,0x00,0x00,0x00,0x00,0x80,0x01,0x08,
 0x01,0x00,0x08,0x00,0x00,0x00,0x00,0x3c,0x00,0x00,0xc0,0x00,0x00,0x02,0x00,
 0x80,0x00,0x00,0xc0,0x01,0x00,0x00,0xfe,0x00,0x00,0x00,0x00,0x40,0x00,0x08,
 0x01,0x00,0x08,0x00,0x00,0x00,0x00,0x3c,0x00,0x00,0xc0,0x00,0x00,0x02,0x00,
 0x80,0x00,0x00,0xc0,0x01,0x00,0x00,0xfe,0x00,0x00,0x00,0x00,0x40,0x00,0x08,
 0x01,0x00,0x08,0x00,0x00,0x00,0x00,0x33,0x00,0x00,0xc0,0x00,0x00,0x02,0x00,
 0x60,0x00,0x00,0x30,0x00,0x00,0xc0,0x01,0x07,0x00,0x00,0x00,0x30,0x00,0x08,
 0x01,0x00,0x08,0x00,0x00,0x00,0xe0,0x30,0x00,0x00,0xc0,0x00,0x00,0x02,0x00,
 0x60,0x00,0x00,0x0e,0x00,0x00,0x3c,0x00,0x78,0x00,0x00,0x00,0x30,0x00,0x08,
 0x01,0x00,0x08,0x00,0x00,0x00,0xe0,0x30,0x00,0x00,0xc0,0x00,0x00,0x02,0x00,
 0x60,0x00,0x00,0x0e,0x00,0x00,0x3c,0x00,0x78,0x00,0x00,0x00,0x30,0x00,0x08,
 0x01,0x00,0x08,0x00,0x00,0x00,0xf0,0x30,0x00,0x00,0xc0,0x00,0x00,0x02,0x00,
 0x10,0x00,0xc0,0x01,0x00,0x00,0x04,0x00,0x80,0x01,0x00,0x00,0x08,0x00,0x08,
 0x01,0x00,0x08,0x00,0x00,0x00,0x10,0x3f,0x00,0x00,0xc0,0x00,0x00,0x02,0x00,
 0x0c,0x00,0x20,0x00,0x00,0x00,0x03,0x00,0x80,0x01,0x00,0x00,0x06,0x00,0x08,
 0x01,0x00,0x08,0x00,0x00,0x00,0x10,0x3f,0x00,0x00,0xc0,0x00,0x00,0x02,0x00,
 0x0c,0x00,0x20,0x00,0x00,0x00,0x03,0x00,0x80,0x01,0x00,0x00,0x06,0x00,0x08,
 0x01,0x00,0x08,0x00,0x00,0x00,0x10,0x00,0x00,0x00,0xc0,0x00,0x00,0x0c,0x00,
 0x02,0x00,0x1c,0x00,0x00,0x00,0x03,0x00,0x80,0x01,0x00,0xc0,0x01,0x00,0x08,
 0x01,0x00,0x08,0x00,0x00,0x00,0x10,0x00,0x00,0x00,0xc0,0x00,0x00,0x0c,0xc0,
 0x01,0x80,0x03,0x00,0x00,0x00,0x03,0x00,0x80,0x01,0x00,0x20,0x00,0x00,0x08,
 0x01,0x00,0x08,0x00,0x00,0x00,0x10,0x00,0x00,0x00,0xc0,0x00,0x00,0x10,0x20,
 0x00,0x70,0x00,0x00,0x00,0x00,0x04,0x00,0x40,0x00,0x00,0x10,0x00,0x00,0x08,
 0x01,0x00,0x08,0x00,0x00,0x00,0x10,0x00,0x00,0x00,0xc0,0x00,0x00,0x10,0x20,
 0x00,0x70,0x00,0x00,0x00,0x00,0x04,0x00,0x40,0x00,0x00,0x10,0x00,0x00,0x08,
 0x01,0x00,0x08,0x00,0x00,0x00,0x10,0x00,0x00,0x00,0xc0,0x00,0x00,0xe0,0x1f,
 0x00,0x08,0x00,0x00,0x00,0x00,0x18,0x00,0x20,0x00,0x00,0x0e,0x00,0x00,0x08,
 0x01,0x00,0x08,0x00,0x00,0x00,0x10,0x00,0x00,0x00,0xc0,0x00,0x00,0x00,0x00,
 0x00,0x07,0x00,0x00,0x00,0x00,0xe0,0x83,0x1f,0x00,0x80,0x01,0x00,0x00,0x08,
 0x01,0x00,0x08,0x00,0x00,0x00,0x10,0x00,0x00,0x00,0xc0,0x00,0x00,0x00,0x00,
 0x00,0x07,0x00,0x00,0x00,0x00,0xe0,0x83,0x1f,0x00,0x80,0x01,0x00,0x00,0x08,
 0x01,0x00,0x08,0x00,0x00,0x00,0x1e,0x00,0x00,0x00,0xc0,0x00,0x00,0x00,0x00,
 0xe0,0x00,0x00,0x00,0x00,0x00,0x00,0x7c,0x00,0x00,0x40,0x00,0x00,0x00,0x08,
 0x01,0x00,0x08,0x00,0x00,0xc0,0x11,0x00,0x00,0x00,0xc0,0x00,0x00,0x00,0x00,
 0x10,0x00,0x00,0x00,0x00,0x00,0x00,0x00,0x00,0x00,0x38,0x00,0x00,0x00,0x08,
 0x01,0x00,0x08,0x00,0x00,0xc0,0x11,0x00,0x00,0x00,0xc0,0x00,0x00,0x00,0x00,
 0x10,0x00,0x00,0x00,0x00,0x00,0x00,0x00,0x00,0x00,0x38,0x00,0x00,0x00,0x08,
 0x01,0x00,0x08,0x00,0x00,0x20,0x10,0x00,0x00,0x00,0xc0,0x00,0x00,0x00,0x00,
 0x0e,0x00,0x00,0x00,0x00,0x00,0x00,0x00,0x00,0x00,0x04,0x00,0x00,0x00,0x08,
 0x01,0x00,0x08,0x00,0x00,0x1c,0x10,0x00,0x00,0x00,0xc0,0x00,0x00,0x00,0xc0,
 0x01,0x00,0x00,0x00,0x00,0x00,0x00,0x00,0x00,0x00,0x03,0x00,0x00,0x00,0x08,
 0x01,0x00,0x08,0x00,0x80,0x03,0x10,0x00,0x00,0x00,0xc0,0x00,0x00,0x00,0x38,
 0x00,0x00,0x00,0x00,0x00,0x00,0x00,0x00,0x00,0xe0,0x00,0x00,0x00,0x00,0x08,
 0x01,0x00,0x08,0x00,0x80,0x03,0x10,0x00,0x00,0x00,0xc0,0x00,0x00,0x00,0x38,
 0x00,0x00,0x00,0x00,0x00,0x00,0x00,0x00,0x00,0xe0,0x00,0x00,0x00,0x00,0x08,
 0x06,0x00,0x08,0x00,0x60,0x00,0x10,0x00,0x00,0x00,0xc0,0x00,0x00,0x00,0x04,
 0x00,0x00,0x00,0x00,0x00,0x00,0x00,0x00,0x00,0x1c,0x00,0x00,0x00,0x00,0x08,
 0x06,0x00,0x08,0x00,0x1c,0x00,0x10,0x00,0x00,0x00,0xc0,0x00,0x00,0x80,0x03,
 0x00,0x00,0x00,0x00,0x00,0x00,0x00,0x00,0x80,0x03,0x00,0x00,0x00,0x00,0x06,
 0x06,0x00,0x08,0x00,0x1c,0x00,0x10,0x00,0x00,0x00,0xc0,0x00,0x00,0x80,0x03,
 0x00,0x00,0x00,0x00,0x00,0x00,0x00,0x00,0x80,0x03,0x00,0x00,0x00,0x00,0x06,
 0x06,0x00,0x08,0x00,0x02,0x00,0x10,0x00,0x00,0x00,0xc0,0x00,0x00,0x70,0x00,
 0x00,0x00,0x00,0x00,0x00,0x00,0x00,0x00,0x60,0x00,0x00,0x00,0x00,0x00,0x06,
 0x06,0x00,0x08,0xc0,0x01,0x00,0x10,0x00,0x00,0x00,0xc0,0x00,0x00,0x0e,0x00,
 0x00,0x00,0x00,0x00,0x00,0x00,0x00,0x00,0x1c,0x00,0x00,0x00,0x00,0x00,0x06,
 0x06,0x00,0x08,0xc0,0x01,0x00,0x10,0x00,0x00,0x00,0xc0,0x00,0x00,0x0e,0x00,
 0x00,0x00,0x00,0x00,0x00,0x00,0x00,0x00,0x1c,0x00,0x00,0x00,0x00,0x00,0x06,
 0x08,0x00,0x08,0x38,0x00,0x00,0x10,0x00,0x00,0x00,0xc0,0x00,0x00,0x01,0x00,
 0x00,0x00,0x00,0x00,0x00,0x00,0x00,0x80,0x03,0x00,0x00,0x00,0x00,0x00,0x06,
 0x08,0x00,0x08,0x04,0x00,0x00,0x10,0x00,0x00,0x00,0xc0,0x00,0xe0,0x00,0x00,
 0x00,0x00,0x00,0x00,0x00,0x00,0x00,0x70,0x00,0x00,0x00,0x00,0x00,0x00,0x01,
 0x08,0x00,0x08,0x04,0x00,0x00,0x10,0x00,0x00,0x00,0xc0,0x00,0xe0,0x00,0x00,
 0x00,0x00,0x00,0x00,0x00,0x00,0x00,0x70,0x00,0x00,0x00,0x00,0x00,0x00,0x01,
 0x08,0x00,0x88,0x03,0x00,0x00,0x10,0x00,0x00,0x00,0xc0,0x00,0x1c,0x00,0x00,
 0x00,0x00,0x00,0x00,0x00,0x00,0x00,0x0f,0x00,0x00,0x00,0x00,0x00,0x00,0x01,
 0x08,0x00,0x78,0x00,0x00,0x00,0x10,0x00,0x00,0x00,0xc0,0x00,0x03,0x00,0x00,
 0x00,0x00,0x00,0x00,0x00,0x00,0xfc,0x00,0x00,0x00,0x00,0x00,0x00,0x00,0x01,
 0x30,0x00,0x08,0x00,0x00,0x00,0x10,0x00,0x00,0x00,0xc0,0xc0,0x00,0x00,0x00,
 0x00,0x00,0x00,0x00,0x00,0xf0,0x03,0x00,0x00,0x00,0x00,0x00,0x00,0x00,0x01,
 0x30,0x00,0x08,0x00,0x00,0x00,0x10,0x00,0x00,0x00,0xc0,0xc0,0x00,0x00,0x00,
 0x00,0x00,0x00,0x00,0x00,0xf0,0x03,0x00,0x00,0x00,0x00,0x00,0x00,0x00,0x01,
 0x30,0x00,0x70,0x00,0x00,0x00,0x10,0x00,0x00,0x00,0xc0,0x38,0x00,0x00,0x00,
 0x00,0x00,0x00,0x00,0xc0,0x0f,0x00,0x00,0x00,0x00,0x00,0x00,0x00,0xc0,0x00,
 0x30,0x00,0x80,0x00,0x00,0x00,0x10,0x00,0x00,0x00,0xc0,0x07,0x00,0x00,0x00,
 0x00,0x00,0x00,0x00,0x3e,0x00,0x00,0x00,0x00,0x00,0x00,0x00,0x00,0xc0,0x00,
 0x30,0x00,0x80,0x00,0x00,0x00,0x10,0x00,0x00,0x00,0xc0,0x07,0x00,0x00,0x00,
 0x00,0x00,0x00,0x00,0x3e,0x00,0x00,0x00,0x00,0x00,0x00,0x00,0x00,0xc0,0x00,
 0x30,0x00,0x00,0x07,0x00,0x00,0x10,0x00,0x00,0x00,0xc0,0xff,0x3f,0x00,0x00,
 0x00,0xc0,0xff,0xff,0x01,0x00,0x00,0x00,0x00,0x00,0x00,0x00,0x00,0xe0,0x00,
 0x30,0x00,0x00,0x38,0x00,0x00,0x10,0x00,0x00,0x00,0x00,0x00,0xc0,0xff,0xff,
 0xff,0x3f,0x00,0x00,0x00,0x00,0x00,0x00,0x00,0x00,0x00,0x00,0x00,0xe0,0x00,
 0x30,0x00,0x00,0x38,0x00,0x00,0x10,0x00,0x00,0x00,0x00,0x00,0xc0,0xff,0xff,
 0xff,0x3f,0x00,0x00,0x00,0x00,0x00,0x00,0x00,0x00,0x00,0x00,0x00,0xe0,0x00,
 0x30,0x00,0x00,0xc0,0x00,0x00,0x10,0x00,0x00,0x00,0x00,0x00,0x00,0x00,0x00,
 0x00,0x00,0x00,0x00,0x00,0x00,0x00,0x00,0x00,0x00,0x00,0x00,0x00,0xd8,0x00,
 0x30,0x00,0x00,0x00,0x03,0x00,0x10,0x00,0x00,0x00,0x00,0x00,0x00,0x00,0x00,
 0x00,0x00,0x00,0x00,0x00,0x00,0x00,0x00,0x00,0x00,0x00,0x00,0x00,0xc4,0x00,
 0x30,0x00,0x00,0x00,0x03,0x00,0x10,0x00,0x00,0x00,0x00,0x00,0x00,0x00,0x00,
 0x00,0x00,0x00,0x00,0x00,0x00,0x00,0x00,0x00,0x00,0x00,0x00,0x00,0xc4,0x00,
 0x30,0x00,0x00,0x00,0x0c,0x00,0x10,0x00,0x00,0x00,0x00,0x00,0x00,0x00,0x00,
 0x00,0x00,0x00,0x00,0x00,0x00,0x00,0x00,0x00,0x00,0x00,0x00,0x00,0xc4,0x00,
 0x30,0x00,0x00,0x00,0x70,0x00,0x10,0x00,0x00,0x00,0x00,0x00,0x00,0x00,0x00,
 0x00,0x00,0x00,0x00,0x00,0x00,0x00,0x00,0x00,0x00,0x00,0x00,0x00,0xc2,0x00,
 0x30,0x00,0x00,0x00,0x80,0x03,0x10,0x00,0x00,0x00,0x00,0x00,0x00,0x00,0x00,
 0x00,0x00,0x00,0x00,0x00,0x00,0x00,0x00,0x00,0x00,0x00,0x00,0x80,0xc1,0x00,
 0x30,0x00,0x00,0x00,0x80,0x03,0x10,0x00,0x00,0x00,0x00,0x00,0x00,0x00,0x00,
 0x00,0x00,0x00,0x00,0x00,0x00,0x00,0x00,0x00,0x00,0x00,0x00,0x80,0xc1,0x00,
 0x30,0x00,0x00,0x00,0x00,0x1c,0x10,0x00,0x00,0x00,0x00,0x00,0x00,0x00,0x00,
 0x00,0x00,0x00,0x00,0x00,0x00,0x00,0x00,0x00,0x00,0x00,0x00,0x80,0xc1,0x00,
 0x30,0x00,0x00,0x00,0x00,0x60,0x10,0x00,0x00,0x00,0x00,0x00,0x00,0x00,0x00,
 0x00,0x00,0x00,0x00,0x00,0x00,0x00,0x00,0x00,0x00,0x00,0x00,0x40,0xc0,0x00,
 0x30,0x00,0x00,0x00,0x00,0x60,0x10,0x00,0x00,0x00,0x00,0x00,0x00,0x00,0x00,
 0x00,0x00,0x00,0x00,0x00,0x00,0x00,0x00,0x00,0x00,0x00,0x00,0x40,0xc0,0x00,
 0x30,0x00,0x00,0x00,0x00,0x80,0x13,0x00,0x00,0x00,0x00,0x00,0x00,0x00,0x00,
 0x00,0x00,0x00,0x00,0x00,0x00,0x00,0x00,0x00,0x00,0x00,0x00,0x30,0x38,0x00,
 0x30,0x00,0x00,0x00,0x00,0x00,0x1c,0x00,0x00,0x00,0x00,0x00,0x00,0x00,0x00,
 0x00,0x00,0x00,0x00,0x00,0x00,0x00,0x00,0x00,0x00,0x00,0x00,0x30,0x06,0x00,
 0x30,0x00,0x00,0x00,0x00,0x00,0x1c,0x00,0x00,0x00,0x00,0x00,0x00,0x00,0x00,
 0x00,0x00,0x00,0x00,0x00,0x00,0x00,0x00,0x00,0x00,0x00,0x00,0x30,0x06,0x00,
 0x30,0x00,0x00,0x00,0x00,0x00,0x00,0x00,0x00,0x00,0x00,0x00,0x00,0x00,0x00,
 0x00,0x00,0x00,0x00,0x00,0x00,0x00,0x00,0x00,0x00,0x00,0x00,0xc8,0x01,0x00,
 0x30,0x00,0x00,0x00,0x00,0x00,0x00,0x00,0x00,0x00,0x00,0x00,0x00,0x00,0x00,
 0x00,0x00,0x00,0x00,0x00,0x00,0x00,0x00,0x00,0x00,0x00,0x00,0x3e,0x00,0x00,
 0x30,0x00,0x00,0x00,0x00,0x00,0x00,0x00,0x00,0x00,0x00,0x00,0x00,0x00,0x00,
 0x00,0x00,0x00,0x00,0x00,0x00,0x00,0x00,0x00,0x00,0x00,0xc0,0x07,0x00,0x00,
 0x30,0x00,0x00,0x00,0x00,0x00,0x00,0x00,0x00,0x00,0x00,0x00,0x00,0x00,0x00,
 0x00,0x00,0x00,0x00,0x00,0x00,0x00,0x00,0x00,0x00,0x00,0xc0,0x07,0x00,0x00,
 0x30,0x00,0x00,0x00,0x00,0x00,0x00,0x00,0x00,0x00,0x00,0x00,0x00,0x00,0x00,
 0x00,0x00,0x00,0x00,0x00,0x00,0x00,0x00,0x00,0x00,0x00,0xe0,0x00,0x00,0x00,
 0x30,0x00,0x00,0x00,0x00,0x00,0x00,0x00,0x00,0x00,0x00,0x00,0x00,0x00,0x00,
 0x00,0x00,0x00,0x00,0x00,0x00,0x00,0x00,0x00,0x00,0x00,0x1c,0x00,0x00,0x00,
 0x30,0x00,0x00,0x00,0x00,0x00,0x00,0x00,0x00,0x00,0x00,0x00,0x00,0x00,0x00,
 0x00,0x00,0x00,0x00,0x00,0x00,0x00,0x00,0x00,0x00,0x00,0x1c,0x00,0x00,0x00,
 0x30,0x00,0x00,0x00,0x00,0x00,0x00,0x00,0x00,0x00,0x00,0x00,0x00,0x00,0x00,
 0x00,0x00,0x00,0x00,0x00,0x00,0x00,0x00,0x00,0x00,0x80,0x0f,0x00,0x00,0x00,
 0x30,0x00,0x00,0x00,0x00,0x00,0x00,0x00,0x00,0x00,0x00,0x00,0x00,0x00,0x00,
 0x00,0x00,0x00,0x00,0x00,0x00,0x00,0x00,0x00,0x00,0xc0,0x01,0x00,0x00,0x00,
 0x30,0x00,0x00,0x00,0x00,0x00,0x00,0x00,0x00,0x00,0x00,0x00,0x00,0x00,0x00,
 0x00,0x00,0x00,0x00,0x00,0x00,0x00,0x00,0x00,0x00,0xc0,0x01,0x00,0x00,0x00,
 0x30,0x00,0x00,0x00,0x00,0x00,0x00,0x00,0x00,0x00,0x00,0x00,0x00,0x00,0x00,
 0x00,0x00,0x00,0x00,0x00,0x00,0x00,0x00,0x00,0x00,0x40,0x00,0x00,0x00,0x00,
 0x30,0x00,0x00,0x00,0x00,0x00,0x00,0x00,0x00,0x00,0x00,0x00,0x00,0x00,0x00,
 0x00,0x00,0x00,0x00,0x00,0x00,0x00,0x00,0x00,0x00,0x38,0x00,0x00,0x00,0x00,
 0x30,0x00,0x00,0x00,0x00,0x00,0x00,0x00,0x00,0x00,0x00,0x00,0x00,0x00,0x00,
 0x00,0x00,0x00,0x00,0x00,0x00,0x00,0x00,0x00,0x00,0x38,0x00,0x00,0x00,0x00,
 0x30,0x00,0x00,0x00,0x00,0x00,0x00,0x00,0x00,0x00,0x00,0x00,0x00,0x00,0x00,
 0x00,0x00,0x00,0x00,0x00,0x00,0x00,0x00,0x00,0x00,0x04,0x00,0x00,0x00,0x00,
 0x30,0x00,0x00,0x00,0x00,0x00,0x00,0x00,0x00,0x00,0x00,0x00,0x00,0x00,0x00,
 0x00,0x00,0x00,0x00,0x00,0x00,0x00,0x00,0x00,0x80,0x03,0x00,0x00,0x00,0x00,
 0x30,0x00,0x00,0x00,0x00,0x00,0x00,0x00,0x00,0x00,0x00,0x00,0x00,0x00,0x00,
 0x00,0x00,0x00,0x00,0x00,0x00,0x00,0x00,0x00,0x70,0x00,0x00,0x00,0x00,0x00,
 0x30,0x00,0x00,0x00,0x00,0x00,0x00,0x00,0x00,0x00,0x00,0x00,0x00,0x00,0x00,
 0x00,0x00,0x00,0x00,0x00,0x00,0x00,0x00,0x00,0x70,0x00,0x00,0x00,0x00,0x00,
 0x30,0x00,0x00,0x00,0x00,0x00,0x00,0x00,0x00,0x00,0x00,0x00,0x00,0x00,0x00,
 0x00,0x00,0x00,0x00,0x00,0x00,0x00,0x00,0x80,0x0f,0x00,0x00,0x00,0x00,0x00,
 0x30,0x00,0x00,0x00,0x00,0x00,0x00,0x00,0x00,0x00,0x00,0x00,0x00,0x00,0x00,
 0x00,0x00,0x00,0x00,0x00,0x00,0x00,0x00,0xe0,0x01,0x00,0x00,0x00,0x00,0x00,
 0x30,0x00,0x00,0x00,0x00,0x00,0x00,0x00,0x00,0x00,0x00,0x00,0x00,0x00,0x00,
 0x00,0x00,0x00,0x00,0x00,0x00,0x00,0x00,0xe0,0x01,0x00,0x00,0x00,0x00,0x00,
 0x30,0x00,0x00,0x00,0x00,0x00,0x00,0x00,0x00,0x00,0x00,0x00,0x00,0x00,0x00,
 0x00,0x00,0x00,0x00,0x00,0x00,0x00,0x00,0x3c,0x00,0x00,0x00,0x00,0x00,0x00,
 0x30,0x00,0x00,0x00,0x00,0x00,0x00,0x00,0x00,0x00,0x00,0x00,0x00,0x00,0x00,
 0x00,0x00,0x00,0x00,0x00,0x00,0x00,0xe0,0x07,0x00,0x00,0x00,0x00,0x00,0x00,
 0x30,0x00,0x00,0x00,0x00,0x00,0x00,0x00,0x00,0x00,0x00,0x00,0x00,0x00,0x00,
 0x00,0x00,0x00,0x00,0x00,0x00,0x00,0xe0,0x07,0x00,0x00,0x00,0x00,0x00,0x00,
 0x30,0x00,0x00,0x00,0x00,0x00,0x00,0x00,0x00,0x00,0x00,0x00,0x00,0x00,0x00,
 0x00,0x00,0x00,0x00,0x00,0x00,0x00,0x9c,0x00,0x00,0x00,0x00,0x00,0x00,0x00,
 0x30,0x00,0x00,0x00,0x00,0x00,0x00,0x00,0x00,0x00,0x00,0x00,0x00,0x00,0x00,
 0x00,0x00,0x00,0x00,0x00,0x00,0xc0,0x73,0x00,0x00,0x00,0x00,0x00,0x00,0x00,
 0x30,0x00,0x00,0x00,0x00,0x00,0x00,0x00,0x00,0x00,0x00,0x00,0x00,0x00,0x00,
 0x00,0x00,0x00,0x00,0x00,0x00,0xc0,0x73,0x00,0x00,0x00,0x00,0x00,0x00,0x00,
 0x30,0x00,0x00,0x00,0x00,0x00,0x00,0x00,0x00,0x00,0x00,0x00,0x00,0x00,0x00,
 0x00,0x00,0x00,0x00,0x00,0x00,0x3f,0x0e,0x00,0x00,0x00,0x00,0x00,0x00,0x00,
 0x30,0x00,0x00,0x00,0x00,0x00,0x00,0x00,0x00,0x00,0x00,0x00,0x00,0x00,0x00,
 0x00,0x00,0x00,0x00,0x00,0xf8,0x00,0x01,0x00,0x00,0x00,0x00,0x00,0x00,0x00,
 0x30,0x00,0x00,0x00,0x00,0x00,0x00,0x00,0x00,0x00,0x00,0x00,0x00,0x00,0x00,
 0x00,0x00,0x00,0x00,0xe0,0x07,0xe0,0x00,0x00,0x00,0x00,0x00,0x00,0x00,0x00,
 0x30,0x00,0x00,0x00,0x00,0x00,0x00,0x00,0x00,0x00,0x00,0x00,0x00,0x00,0x00,
 0x00,0x00,0x00,0x00,0xe0,0x07,0xe0,0x00,0x00,0x00,0x00,0x00,0x00,0x00,0x00,
 0x30,0x00,0x00,0x00,0x00,0x00,0x00,0x00,0x00,0x00,0x00,0x00,0x00,0x00,0x00,
 0x00,0x00,0x00,0x80,0x1f,0x00,0x1c,0x00,0x00,0x00,0x00,0x00,0x00,0x00,0x00,
 0x40,0x00,0x00,0x00,0x00,0x00,0x00,0x00,0x00,0x00,0xc0,0x7f,0x00,0x00,0x00,
 0x00,0x00,0xe0,0x7f,0x00,0x80,0x03,0x00,0x00,0x00,0x00,0x00,0x00,0x00,0x00,
 0x40,0x00,0x00,0x00,0x00,0x00,0x00,0x00,0x00,0x00,0xc0,0x7f,0x00,0x00,0x00,
 0x00,0x00,0xe0,0x7f,0x00,0x80,0x03,0x00,0x00,0x00,0x00,0x00,0x00,0x00,0x00,
 0x40,0x00,0x00,0x00,0x00,0x00,0x00,0x00,0x00,0x00,0xc0,0x80,0xff,0x1f,0x00,
 0xe0,0xff,0x1f,0x00,0x00,0x40,0x00,0x00,0x00,0x00,0x00,0x00,0x00,0x00,0x00,
 0x80,0x01,0x00,0x00,0x00,0x00,0x00,0x00,0x00,0x00,0xc0,0x00,0x00,0xe0,0xff,
 0x1f,0x00,0x00,0x00,0x00,0x38,0x00,0x00,0x00,0x00,0x00,0x00,0x00,0x00,0x00,
 0x80,0x01,0x00,0x00,0x00,0x00,0x00,0x00,0x00,0x00,0xc0,0x00,0x00,0xe0,0xff,
 0x1f,0x00,0x00,0x00,0x00,0x38,0x00,0x00,0x00,0x00,0x00,0x00,0x00,0x00,0x00,
 0x00,0x02,0x00,0x00,0x00,0x00,0x00,0x00,0x00,0x00,0xc0,0x00,0x00,0x00,0x00,
 0x00,0x00,0x00,0x00,0x00,0x07,0x00,0x00,0x00,0x00,0x00,0x00,0x00,0x00,0x00,
 0x00,0x02,0x00,0x00,0x00,0x00,0x00,0x00,0x00,0x00,0xc0,0x00,0x00,0x00,0x00,
 0x00,0x00,0x00,0x00,0xc0,0x00,0x00,0x00,0x00,0x00,0x00,0x00,0x00,0x00,0x00,
 0x00,0x04,0x00,0x00,0x00,0x00,0x00,0x00,0x00,0x00,0xc0,0x00,0x00,0x00,0x00,
 0x00,0x00,0x00,0x00,0x38,0x00,0x00,0x00,0x00,0x00,0x00,0x00,0x00,0x00,0x00,
 0x00,0x04,0x00,0x00,0x00,0x00,0x00,0x00,0x00,0x00,0xc0,0x00,0x00,0x00,0x00,
 0x00,0x00,0x00,0x00,0x38,0x00,0x00,0x00,0x00,0x00,0x00,0x00,0x00,0x00,0x00,
 0x00,0x18,0x00,0x00,0x00,0x00,0x00,0x00,0x00,0x00,0xc0,0x00,0x00,0x00,0x00,
 0x00,0x00,0x00,0x00,0x06,0x00,0x00,0x00,0x00,0x00,0x00,0x00,0x00,0x00,0x00,
 0x00,0x18,0x00,0x00,0x00,0x00,0x00,0x00,0x00,0x00,0xc0,0x00,0x00,0x00,0x00,
 0x00,0x00,0x00,0xc0,0x01,0x00,0x00,0x00,0x00,0x00,0x00,0x00,0x00,0x00,0x00,
 0x00,0x18,0x00,0x00,0x00,0x00,0x00,0x00,0x00,0x00,0xc0,0x00,0x00,0x00,0x00,
 0x00,0x00,0x00,0xc0,0x01,0x00,0x00,0x00,0x00,0x00,0x00,0x00,0x00,0x00,0x00,
 0x00,0x20,0x00,0x00,0x00,0x00,0x00,0x00,0x00,0x00,0xc0,0x00,0x00,0x00,0x00,
 0x00,0x00,0x00,0x30,0x00,0x00,0x00,0x00,0x00,0x00,0x00,0x00,0x00,0x00,0x00,
 0x00,0xc0,0x00,0x00,0x00,0x00,0x00,0x00,0x00,0x00,0xc0,0x00,0x00,0x00,0x00,
 0x00,0x00,0x00,0x0e,0x00,0x00,0x00,0x00,0x00,0x00,0x00,0x00,0x00,0x00,0x00,
 0x00,0xc0,0x00,0x00,0x00,0x00,0x00,0x00,0x00,0x00,0xc0,0x00,0x00,0x00,0x00,
 0x00,0x00,0x00,0x0e,0x00,0x00,0x00,0x00,0x00,0x00,0x00,0x00,0x00,0x00,0x00,
 0x00,0xc0,0x00,0x00,0x00,0x00,0x00,0x00,0x00,0x00,0xc0,0x00,0x00,0x00,0x00,
 0x00,0x00,0xc0,0x01,0x00,0x00,0x00,0x00,0x00,0x00,0x00,0x00,0x00,0x00,0x00,
 0x00,0x00,0x01,0x00,0x00,0x00,0x00,0x00,0x00,0x00,0xc0,0x00,0x00,0x00,0x00,
 0x00,0x00,0x20,0x00,0x00,0x00,0x00,0x00,0x00,0x00,0x00,0x00,0x00,0x00,0x00,
 0x00,0x00,0x01,0x00,0x00,0x00,0x00,0x00,0x00,0x00,0xc0,0x00,0x00,0x00,0x00,
 0x00,0x00,0x20,0x00,0x00,0x00,0x00,0x00,0x00,0x00,0x00,0x00,0x00,0x00,0x00,
 0x00,0x00,0x06,0x00,0x00,0x00,0x00,0x00,0x00,0x00,0xc0,0x00,0x00,0x00,0x00,
 0x00,0x00,0x1c,0x00,0x00,0x00,0x00,0x00,0x00,0x00,0x00,0x00,0x00,0x00,0x00,
 0x00,0x00,0x38,0x00,0x00,0x00,0x00,0x00,0x00,0x00,0xc0,0x00,0x00,0x00,0x00,
 0x00,0x80,0x03,0x00,0x00,0x00,0x00,0x00,0x00,0x00,0x00,0x00,0x00,0x00,0x00,
 0x00,0x00,0x40,0x00,0x00,0x00,0x00,0x00,0x00,0x00,0xc0,0x00,0x00,0x00,0x00,
 0x00,0x70,0x00,0x00,0x00,0x00,0x00,0x00,0x00,0x00,0x00,0x00,0x00,0x00,0x00,
 0x00,0x00,0x40,0x00,0x00,0x00,0x00,0x00,0x00,0x00,0xc0,0x00,0x00,0x00,0x00,
 0x00,0x70,0x00,0x00,0x00,0x00,0x00,0x00,0x00,0x00,0x00,0x00,0x00,0x00,0x00,
 0x00,0x00,0x80,0x00,0x00,0x00,0x00,0x00,0x00,0x00,0xc0,0x00,0x00,0x00,0x00,
 0x00,0x08,0x00,0x00,0x00,0x00,0x00,0x00,0x00,0x00,0x00,0x00,0x00,0x00,0x00,
 0x00,0x00,0x00,0x07,0x00,0x00,0x00,0x00,0x00,0x00,0xc0,0x00,0x00,0x00,0x00,
 0x00,0x07,0x00,0x00,0x00,0x00,0x00,0x00,0x00,0x00,0x00,0x00,0x00,0x00,0x00,
 0x00,0x00,0x00,0x07,0x00,0x00,0x00,0x00,0x00,0x00,0xc0,0x00,0x00,0x00,0x00,
 0x00,0x07,0x00,0x00,0x00,0x00,0x00,0x00,0x00,0x00,0x00,0x00,0x00,0x00,0x00,
 0x00,0x00,0x00,0x18,0x00,0x00,0x00,0x00,0x00,0x00,0xc0,0x00,0x00,0x00,0x00,
 0xe0,0x00,0x00,0x00,0x00,0x00,0x00,0x00,0x00,0x00,0x00,0x00,0x00,0x00,0x00,
 0x00,0x00,0x00,0x20,0x00,0x00,0x00,0x00,0x00,0x00,0xc0,0x00,0x00,0x00,0x00,
 0x1c,0x00,0x00,0x00,0x00,0x00,0x00,0x00,0x00,0x00,0x00,0x00,0x00,0x00,0x00,
 0x00,0x00,0x00,0x20,0x00,0x00,0x00,0x00,0x00,0x00,0xc0,0x00,0x00,0x00,0x00,
 0x1c,0x00,0x00,0x00,0x00,0x00,0x00,0x00,0x00,0x00,0x00,0x00,0x00,0x00,0x00,
 0x00,0x00,0x00,0xc0,0x01,0x00,0x00,0x00,0x00,0x00,0xc0,0x00,0x00,0x00,0x00,
 0x02,0x00,0x00,0x00,0x00,0x00,0x00,0x00,0x00,0x00,0x00,0x00,0x00,0x00,0x00,
 0x00,0x00,0x00,0x00,0x02,0x00,0x00,0x00,0x00,0x00,0xc0,0x00,0x00,0x00,0xc0,
 0x01,0x00,0x00,0x00,0x00,0x00,0x00,0x00,0x00,0x00,0x00,0x00,0x00,0x00,0x00,
 0x00,0x00,0x00,0x00,0x02,0x00,0x00,0x00,0x00,0x00,0xc0,0x00,0x00,0x00,0xc0,
 0x01,0x00,0x00,0x00,0x00,0x00,0x00,0x00,0x00,0x00,0x00,0x00,0x00,0x00,0x00,
 0x00,0x00,0x00,0x00,0x1c,0x00,0x00,0x00,0x00,0x00,0xc0,0x00,0x00,0x00,0x38,
 0x00,0x00,0x00,0x00,0x00,0x00,0x00,0x00,0x00,0x00,0x00,0x00,0x00,0x00,0x00,
 0x00,0x00,0x00,0x00,0xe0,0x00,0x00,0x00,0x00,0x00,0xc0,0x00,0x00,0x01,0x04,
 0x00,0x0f,0x00,0xf8,0x03,0x00,0x00,0x00,0x00,0x00,0x00,0x00,0x00,0x00,0x00,
 0x00,0x00,0x00,0x00,0x00,0x1f,0x00,0x00,0x00,0x00,0xc0,0x00,0x00,0x81,0x03,
 0x8c,0x30,0x00,0x08,0x04,0x00,0xc0,0x00,0x00,0x00,0x00,0x00,0x00,0x00,0x00,
 0x00,0x00,0x00,0x00,0x00,0x1f,0x00,0x00,0x00,0x00,0xc0,0x00,0x00,0x81,0x03,
 0x8c,0x30,0x00,0x08,0x04,0x00,0xc0,0x00,0x00,0x00,0x00,0x00,0x00,0x00,0x00,
 0x00,0x00,0x00,0x00,0x00,0x60,0x00,0x00,0x00,0x00,0xc0,0x00,0x00,0x71,0x00,
 0x8c,0x30,0x00,0x08,0x04,0x00,0xc0,0x00,0x00,0x00,0x00,0x00,0x00,0x00,0x00,
 0x00,0x00,0x00,0x00,0x00,0x80,0x03,0x00,0x00,0xf0,0xe1,0x07,0x1f,0x1f,0x3f,
 0x1e,0x30,0x00,0x08,0xe4,0x0f,0xfb,0x01,0x00,0x00,0x00,0x00,0x00,0x00,0x00,
 0x00,0x00,0x00,0x00,0x00,0x80,0x03,0x00,0x00,0xf0,0xe1,0x07,0x1f,0x1f,0x3f,
 0x1e,0x30,0x00,0x08,0xe4,0x0f,0xfb,0x01,0x00,0x00,0x00,0x00,0x00,0x00,0x00,
 0x00,0x00,0x00,0x00,0x00,0x00,0x7c,0x00,0x00,0x08,0xda,0x88,0x20,0x8d,0x40,
 0x0c,0x08,0x00,0xf8,0x03,0x08,0xc7,0x00,0x00,0x00,0x00,0x00,0x00,0x00,0x00,
 0x00,0x00,0x00,0x00,0x00,0x00,0x80,0x03,0x00,0x78,0xd8,0x88,0xe0,0x8f,0x7f,
 0x0c,0x04,0x00,0x08,0xc0,0x0f,0xc3,0x00,0x00,0x00,0x00,0x00,0x00,0x00,0x00,
 0x00,0x00,0x00,0x00,0x00,0x00,0x80,0x03,0x00,0x78,0xd8,0x88,0xe0,0x8f,0x7f,
 0x0c,0x04,0x00,0x08,0xc0,0x0f,0xc3,0x00,0x00,0x00,0x00,0x00,0x00,0x00,0x00,
 0x00,0x00,0x00,0x00,0x00,0x00,0x00,0x3c,0x00,0x80,0xdb,0x88,0x1c,0x8d,0x00,
 0x0c,0x03,0xfe,0x09,0x20,0x08,0xc3,0x00,0x00,0x00,0x00,0x00,0x00,0x00,0x00,
 0x00,0x00,0x00,0x00,0x00,0x00,0x00,0xc0,0x0f,0x08,0xda,0x88,0x23,0x91,0x40,
 0x8c,0x00,0x00,0x08,0x20,0x08,0xc3,0x00,0x00,0x00,0x00,0x00,0x00,0x00,0x00,
 0x00,0x00,0x00,0x00,0x00,0x00,0x00,0x00,0xf0,0xf1,0xe1,0xc7,0x1f,0x61,0x3f,
 0x9c,0x3f,0x00,0x08,0xc0,0x37,0xc3,0x01,0x00,0x00,0x00,0x00,0x00,0x00,0x00,
 0x00,0x00,0x00,0x00,0x00,0x00,0x00,0x00,0xf0,0xf1,0xe1,0xc7,0x1f,0x61,0x3f,
 0x9c,0x3f,0x00,0x08,0xc0,0x37,0xc3,0x01,0x00,0x00,0x00,0x00,0x00,0x00,0x00,
 0x00,0x00,0x00,0x00,0x00,0x00,0x00,0x00,0x00,0x7e,0xc0,0x38,0x00,0x00,0x00,
 0x00,0x00,0x00,0x00,0x00,0x00,0x00,0x00,0x00,0x00,0x00,0x00,0x00,0x00,0x00,
 0x00,0x00,0x00,0x00,0x00,0x00,0x00,0x00,0x00,0x80,0xdf,0x07,0x00,0x00,0x00,
 0x00,0x00,0x00,0x00,0x00,0x00,0x00,0x00,0x00,0x00,0x00,0x00,0x00,0x00,0x00,
 0x00,0x00,0x00,0x00,0x00,0x00,0x00,0x00,0x00,0x80,0xdf,0x07,0x00,0x00,0x00,
 0x00,0x00,0x00,0x00,0x00,0x00,0x00,0x00,0x00,0x00,0x00,0x00,0x00,0x00,0x00,
 0x00,0x00,0x00,0x00,0x00,0x00,0x00,0x00,0x00,0x00,0xe0,0x00,0x00,0x00,0x00,
 0x00,0x00,0x00,0x00,0x00,0x00,0x00,0x00,0x00,0x00,0x00,0x00,0x00,0x00,0x00};
