105 692 1 0                             
body $-1 $1 $-1 $-1 #
lump $-1 $-1 $2 $0 #
shell $-1 $-1 $-1 $3 $1 #
face $-1 $4 $5 $2 $-1 $6 reversed single #
face $-1 $7 $8 $2 $-1 $9 reversed single #
loop $-1 $10 $11 $3 #
cone-surface $-1 -75 0 0 0 0 1 10 0 0 1 0 1 0 #
face $-1 $12 $13 $2 $-1 $14 forward single #
loop $-1 $15 $16 $4 #
cone-surface $-1 75 0 0 0 0 1 10 0 0 1 0 1 0 #
loop $-1 $-1 $17 $3 #
coedge $-1 $11 $11 $18 $19 1 $5 $-1 #
face $-1 $20 $21 $2 $-1 $22 forward single #
loop $-1 $-1 $23 $7 #
plane-surface $-1 27.5 0 62.5 -1 0 0 0 0 1 0 #
loop $-1 $-1 $24 $4 #
coedge $-1 $16 $16 $25 $26 1 $8 $-1 #
coedge $-1 $17 $17 $27 $28 1 $10 $-1 #
coedge $-1 $18 $18 $11 $19 0 $29 $-1 #
edge $-1 $30 $30 $18 $31 0 #
face $-1 $32 $33 $2 $-1 $22 forward single #
loop $-1 $-1 $34 $12 #
plane-surface $-1 0 0 50 0 0 1 1 0 0 0 #
coedge $-1 $35 $36 $37 $38 1 $13 $-1 #
coedge $-1 $24 $24 $39 $40 1 $15 $-1 #
coedge $-1 $25 $25 $16 $26 0 $41 $-1 #
edge $-1 $42 $42 $25 $43 0 #
coedge $-1 $27 $27 $17 $28 0 $44 $-1 #
edge $-1 $45 $45 $27 $46 0 #
loop $-1 $47 $18 $48 #
vertex $-1 $19 $49 #
ellipse-curve $-1 -75 0 25 -0 -0 -1 10 0 0 1 #
face $-1 $50 $51 $2 $-1 $22 forward single #
loop $-1 $-1 $52 $20 #
coedge $-1 $53 $54 $55 $56 1 $21 $-1 #
coedge $-1 $57 $23 $58 $59 0 $13 $-1 #
coedge $-1 $23 $60 $61 $62 0 $13 $-1 #
coedge $-1 $63 $64 $23 $38 0 $65 $-1 #
edge $-1 $66 $67 $37 $68 0 #
coedge $-1 $39 $39 $24 $40 0 $69 $-1 #
edge $-1 $70 $70 $39 $71 0 #
loop $-1 $72 $25 $73 #
vertex $-1 $26 $74 #
ellipse-curve $-1 75 0 -25 0 0 1 10 0 0 1 #
loop $-1 $75 $27 $76 #
vertex $-1 $28 $77 #
ellipse-curve $-1 -75 0 -25 0 0 1 10 0 0 1 #
loop $-1 $-1 $78 $48 #
face $-1 $79 $29 $2 $-1 $80 forward single #
point $-1 -85 -6.98296267768627e-14 25 #
face $-1 $81 $82 $2 $-1 $22 forward single #
loop $-1 $-1 $83 $32 #
coedge $-1 $84 $85 $86 $87 1 $33 $-1 #
coedge $-1 $88 $34 $89 $90 1 $21 $-1 #
coedge $-1 $34 $88 $91 $92 1 $21 $-1 #
coedge $-1 $93 $94 $34 $56 0 $95 $-1 #
edge $-1 $96 $97 $55 $98 0 #
coedge $-1 $99 $35 $100 $101 1 $13 $-1 #
coedge $-1 $83 $102 $35 $59 1 $51 $-1 #
edge $-1 $66 $103 $35 $104 0 #
coedge $-1 $36 $99 $105 $106 1 $13 $-1 #
coedge $-1 $107 $108 $36 $62 1 $82 $-1 #
edge $-1 $109 $67 $36 $104 0 #
coedge $-1 $110 $37 $108 $111 0 $65 $-1 #
coedge $-1 $37 $110 $83 $112 0 $65 $-1 #
loop $-1 $113 $63 $114 #
vertex $-1 $112 $115 #
vertex $-1 $111 $116 #
ellipse-curve $-1 27.5 50 50.0000000000003 -1 0 0 -5.2372220082647e-14 0 -15 1 #
loop $-1 $117 $39 $118 #
vertex $-1 $40 $119 #
ellipse-curve $-1 75 0 25 -0 -0 -1 10 0 0 1 #
loop $-1 $-1 $120 $73 #
face $-1 $121 $41 $2 $-1 $122 reversed single #
point $-1 65 6.98296267768627e-14 -25 #
loop $-1 $-1 $123 $76 #
face $-1 $124 $44 $2 $-1 $125 reversed single #
point $-1 -85 6.98296267768627e-14 -25 #
coedge $-1 $126 $127 $128 $129 1 $47 $-1 #
face $-1 $76 $130 $2 $-1 $131 forward single #
plane-surface $-1 -75 0 25 0 0 1 1 0 0 0 #
face $-1 $132 $133 $2 $-1 $22 forward single #
loop $-1 $-1 $108 $50 #
coedge $-1 $134 $58 $64 $112 1 $51 $-1 #
coedge $-1 $135 $52 $136 $137 1 $33 $-1 #
coedge $-1 $52 $135 $138 $139 1 $33 $-1 #
coedge $-1 $140 $141 $52 $87 0 $142 $-1 #
edge $-1 $143 $144 $86 $145 0 #
coedge $-1 $54 $53 $146 $147 1 $21 $-1 #
coedge $-1 $148 $149 $53 $90 0 $150 $-1 #
edge $-1 $151 $96 $89 $104 0 #
coedge $-1 $152 $153 $54 $92 0 $154 $-1 #
edge $-1 $97 $155 $91 $156 0 #
coedge $-1 $157 $55 $153 $158 0 $95 $-1 #
coedge $-1 $55 $159 $148 $160 0 $95 $-1 #
loop $-1 $-1 $161 $162 #
vertex $-1 $56 $163 #
vertex $-1 $56 $164 #
ellipse-curve $-1 0 0 50 -0 -0 -1 100 0 0 1 #
coedge $-1 $60 $57 $165 $166 1 $13 $-1 #
coedge $-1 $167 $168 $57 $101 0 $169 $-1 #
edge $-1 $170 $103 $100 $171 0 #
coedge $-1 $58 $134 $167 $172 1 $51 $-1 #
vertex $-1 $172 $173 #
straight-curve $-1 27.5 0 50 0 -1 0 #
coedge $-1 $174 $175 $60 $106 0 $95 $-1 #
edge $-1 $109 $176 $105 $177 0 #
coedge $-1 $178 $61 $175 $179 1 $82 $-1 #
coedge $-1 $61 $178 $63 $111 1 $82 $-1 #
vertex $-1 $179 $180 #
coedge $-1 $64 $63 $181 $182 1 $65 $-1 #
edge $-1 $67 $183 $63 $184 0 #
edge $-1 $185 $66 $64 $186 0 #
loop $-1 $-1 $187 $114 #
face $-1 $188 $65 $2 $-1 $189 reversed single #
point $-1 27.5 35 50 #
point $-1 27.5 65 50 #
loop $-1 $-1 $190 $118 #
face $-1 $191 $69 $2 $-1 $192 forward single #
point $-1 65 -6.98296267768627e-14 25 #
coedge $-1 $193 $194 $195 $196 1 $72 $-1 #
face $-1 $118 $197 $2 $-1 $198 forward single #
plane-surface $-1 75 0 -25 0 0 1 1 0 0 0 #
coedge $-1 $199 $200 $201 $202 1 $75 $-1 #
face $-1 $73 $203 $2 $-1 $204 forward single #
plane-surface $-1 -75 0 -25 0 0 1 1 0 0 0 #
coedge $-1 $127 $78 $205 $206 1 $47 $-1 #
coedge $-1 $78 $126 $207 $208 1 $47 $-1 #
coedge $-1 $209 $205 $78 $129 0 $95 $-1 #
edge $-1 $210 $211 $128 $212 0 #
loop $-1 $213 $214 $79 #
plane-surface $-1 -50 0 50 -1 0 0 0 0 1 0 #
face $-1 $215 $216 $2 $-1 $22 forward single #
loop $-1 $-1 $217 $81 #
coedge $-1 $102 $83 $218 $219 1 $51 $-1 #
coedge $-1 $85 $84 $220 $221 1 $33 $-1 #
coedge $-1 $149 $222 $84 $137 0 $150 $-1 #
edge $-1 $223 $143 $136 $104 0 #
coedge $-1 $224 $152 $85 $139 0 $154 $-1 #
edge $-1 $144 $225 $138 $156 0 #
coedge $-1 $146 $86 $152 $226 1 $142 $-1 #
coedge $-1 $86 $146 $149 $227 0 $142 $-1 #
loop $-1 $-1 $146 $228 #
vertex $-1 $87 $229 #
vertex $-1 $226 $230 #
straight-curve $-1 100 -35 50 -1 -0 3.49148133884313e-15 #
coedge $-1 $141 $140 $88 $147 0 $142 $-1 #
edge $-1 $155 $151 $146 $231 0 #
coedge $-1 $232 $89 $94 $160 1 $150 $-1 #
coedge $-1 $89 $136 $141 $227 1 $150 $-1 #
loop $-1 $-1 $148 $233 #
vertex $-1 $147 $234 #
coedge $-1 $138 $91 $140 $226 0 $154 $-1 #
coedge $-1 $91 $235 $93 $158 1 $154 $-1 #
loop $-1 $-1 $91 $236 #
vertex $-1 $147 $237 #
straight-curve $-1 20 0 50 0 1 -0 #
coedge $-1 $238 $93 $239 $240 0 $95 $-1 #
edge $-1 $97 $241 $93 $242 0 #
coedge $-1 $94 $243 $244 $245 1 $95 $-1 #
edge $-1 $246 $96 $94 $247 0 #
coedge $-1 $248 $249 $250 $251 0 $95 $-1 #
face $-1 $252 $253 $2 $-1 $254 forward single #
point $-1 27.5 -96.1444226151471 50 #
point $-1 20 -97.9795897113271 50 #
coedge $-1 $255 $256 $99 $166 0 $257 $-1 #
edge $-1 $176 $170 $165 $258 0 #
coedge $-1 $259 $100 $102 $172 0 $169 $-1 #
coedge $-1 $100 $260 $255 $261 1 $169 $-1 #
loop $-1 $-1 $262 $263 #
vertex $-1 $101 $264 #
straight-curve $-1 27.5 25.4950975679639 0 -0 -0 -1 #
edge $-1 $103 $265 $167 $266 0 #
point $-1 27.5 25.4950975679639 50 #
coedge $-1 $267 $105 $256 $268 1 $95 $-1 #
coedge $-1 $105 $269 $107 $179 0 $95 $-1 #
vertex $-1 $268 $270 #
straight-curve $-1 27.5 96.1444226151471 0 0 0 1 #
coedge $-1 $108 $107 $271 $272 1 $82 $-1 #
edge $-1 $273 $109 $175 $274 0 #
point $-1 27.5 96.1444226151471 50 #
coedge $-1 $271 $218 $110 $182 0 $275 $-1 #
edge $-1 $185 $183 $181 $276 0 #
vertex $-1 $182 $277 #
straight-curve $-1 100 65 50 -1 -0 3.49148133884313e-15 #
vertex $-1 $219 $278 #
straight-curve $-1 100 35 50 1 -0 -3.49148133884313e-15 #
coedge $-1 $187 $187 $279 $280 1 $113 $-1 #
face $-1 $281 $282 $2 $-1 $283 forward single #
cone-surface $-1 100 50 50 1 0 -3.49148133884313e-15 -5.2372220082647e-14 0 -15 1 0 1 0 #
coedge $-1 $284 $285 $286 $287 1 $117 $-1 #
face $-1 $288 $289 $2 $-1 $290 forward single #
plane-surface $-1 75 0 25 0 0 1 1 0 0 0 #
coedge $-1 $194 $120 $291 $292 1 $72 $-1 #
coedge $-1 $120 $193 $293 $294 1 $72 $-1 #
coedge $-1 $293 $295 $120 $196 0 $253 $-1 #
edge $-1 $296 $297 $195 $298 0 #
loop $-1 $-1 $299 $121 #
plane-surface $-1 50 0 -50 1 0 0 0 0 -1 0 #
coedge $-1 $200 $123 $300 $301 1 $75 $-1 #
coedge $-1 $123 $199 $302 $303 1 $75 $-1 #
coedge $-1 $302 $304 $123 $202 0 $253 $-1 #
edge $-1 $305 $306 $201 $307 0 #
loop $-1 $-1 $308 $124 #
plane-surface $-1 -50 0 -50 -1 0 0 0 0 1 0 #
coedge $-1 $128 $309 $126 $206 0 $95 $-1 #
edge $-1 $310 $210 $205 $212 0 #
coedge $-1 $311 $312 $127 $208 0 $313 $-1 #
edge $-1 $211 $310 $207 $314 0 #
coedge $-1 $315 $128 $312 $316 0 $95 $-1 #
vertex $-1 $206 $317 #
vertex $-1 $129 $318 #
ellipse-curve $-1 0 0 25 -0 -0 -1 100 0 0 1 #
loop $-1 $313 $319 $79 #
coedge $-1 $214 $214 $320 $321 0 $130 $-1 #
face $-1 $322 $323 $2 $-1 $22 forward single #
loop $-1 $-1 $324 $132 #
coedge $-1 $325 $326 $327 $328 1 $133 $-1 #
coedge $-1 $181 $329 $134 $219 0 $275 $-1 #
edge $-1 $265 $185 $218 $330 0 #
coedge $-1 $260 $331 $135 $221 0 $169 $-1 #
edge $-1 $225 $223 $220 $332 0 #
coedge $-1 $136 $232 $260 $333 1 $150 $-1 #
vertex $-1 $221 $334 #
coedge $-1 $235 $138 $331 $335 0 $154 $-1 #
vertex $-1 $221 $336 #
edge $-1 $155 $144 $152 $337 0 #
edge $-1 $151 $143 $141 $338 0 #
face $-1 $236 $339 $2 $-1 $340 reversed single #
point $-1 27.5 -35 50 #
point $-1 20 -35 50 #
straight-curve $-1 100 -65 50 1 -0 -3.49148133884313e-15 #
coedge $-1 $222 $148 $341 $342 1 $150 $-1 #
face $-1 $343 $150 $2 $-1 $14 forward single #
point $-1 27.5 -65 50 #
coedge $-1 $153 $224 $344 $345 0 $154 $-1 #
face $-1 $346 $154 $2 $-1 $347 forward single #
point $-1 20 -65 50 #
coedge $-1 $249 $157 $348 $349 0 $95 $-1 #
coedge $-1 $344 $348 $157 $240 1 $282 $-1 #
edge $-1 $241 $350 $157 $351 0 #
vertex $-1 $240 $352 #
straight-curve $-1 20 -97.9795897113271 0 -0 -0 -1 #
coedge $-1 $159 $286 $353 $354 0 $95 $-1 #
coedge $-1 $355 $341 $159 $245 0 $257 $-1 #
edge $-1 $246 $356 $244 $357 0 #
vertex $-1 $342 $358 #
straight-curve $-1 27.5 -96.1444226151471 0 -0 -0 -1 #
coedge $-1 $359 $161 $360 $361 0 $95 $-1 #
coedge $-1 $161 $238 $362 $363 0 $95 $-1 #
coedge $-1 $364 $365 $161 $251 1 $366 $-1 #
edge $-1 $367 $368 $161 $98 0 #
face $-1 $369 $370 $2 $-1 $371 reversed single #
loop $-1 $95 $304 $162 #
cone-surface $-1 0 0 0 0 0 1 100 0 0 1 0 1 0 #
coedge $-1 $341 $165 $168 $261 0 $257 $-1 #
coedge $-1 $165 $355 $174 $268 0 $257 $-1 #
loop $-1 $-1 $341 $372 #
straight-curve $-1 27.5 0 75 0 -1 0 #
coedge $-1 $373 $167 $329 $374 1 $169 $-1 #
coedge $-1 $168 $220 $222 $333 0 $169 $-1 #
edge $-1 $170 $375 $255 $376 0 #
coedge $-1 $377 $378 $379 $380 0 $169 $-1 #
face $-1 $381 $382 $2 $-1 $383 reversed single #
point $-1 27.5 25.4950975679639 75 #
vertex $-1 $374 $384 #
ellipse-curve $-1 0 0 50 0 0 1 37.5 0 0 1 #
coedge $-1 $385 $174 $386 $387 0 $95 $-1 #
edge $-1 $388 $176 $256 $357 0 #
coedge $-1 $175 $389 $390 $391 0 $95 $-1 #
point $-1 27.5 96.1444226151471 75 #
coedge $-1 $390 $181 $178 $272 0 $275 $-1 #
edge $-1 $183 $273 $271 $330 0 #
vertex $-1 $391 $392 #
ellipse-curve $-1 0 0 50 -0 -0 -1 100 0 0 1 #
loop $-1 $-1 $271 $346 #
ellipse-curve $-1 20 50 50.0000000000003 1 -0 -0 -5.2372220082647e-14 0 -15 1 #
point $-1 20 65 50 #
point $-1 20 35 50 #
coedge $-1 $279 $279 $187 $280 0 $289 $-1 #
edge $-1 $393 $393 $279 $394 0 #
face $-1 $372 $395 $2 $-1 $283 forward single #
loop $-1 $-1 $396 $188 #
plane-surface $-1 0 0 0 0 0 1 1 0 0 0 #
coedge $-1 $285 $190 $385 $397 1 $117 $-1 #
coedge $-1 $190 $284 $398 $399 1 $117 $-1 #
coedge $-1 $243 $385 $190 $287 0 $95 $-1 #
edge $-1 $400 $401 $286 $402 0 #
face $-1 $-1 $403 $2 $-1 $404 forward single #
loop $-1 $405 $279 $191 #
plane-surface $-1 50 0 50 1 0 0 0 0 -1 0 #
coedge $-1 $299 $406 $193 $292 0 $197 $-1 #
edge $-1 $407 $296 $291 $408 0 #
coedge $-1 $409 $195 $194 $294 0 $253 $-1 #
edge $-1 $297 $407 $293 $298 0 #
coedge $-1 $195 $410 $299 $411 0 $253 $-1 #
vertex $-1 $196 $412 #
vertex $-1 $196 $413 #
ellipse-curve $-1 0 0 -25 0 0 1 100 0 0 1 #
coedge $-1 $414 $291 $295 $411 1 $197 $-1 #
coedge $-1 $308 $415 $199 $301 0 $203 $-1 #
edge $-1 $416 $305 $300 $417 0 #
coedge $-1 $418 $201 $200 $303 0 $253 $-1 #
edge $-1 $306 $416 $302 $307 0 #
coedge $-1 $201 $419 $308 $420 0 $253 $-1 #
vertex $-1 $202 $421 #
vertex $-1 $202 $422 #
ellipse-curve $-1 0 0 -25 0 0 1 100 0 0 1 #
coedge $-1 $423 $300 $304 $420 1 $203 $-1 #
coedge $-1 $205 $359 $311 $424 0 $95 $-1 #
vertex $-1 $206 $425 #
coedge $-1 $426 $207 $309 $424 1 $313 $-1 #
coedge $-1 $207 $426 $209 $316 1 $313 $-1 #
loop $-1 $-1 $312 $79 #
straight-curve $-1 -50 0 25 0 -1 0 #
coedge $-1 $427 $209 $428 $429 1 $95 $-1 #
edge $-1 $211 $430 $209 $431 0 #
point $-1 -100 0 25 #
point $-1 -50 86.6025403784439 25 #
coedge $-1 $319 $319 $432 $433 0 $213 $-1 #
coedge $-1 $320 $320 $214 $321 1 $434 $-1 #
edge $-1 $435 $435 $214 $436 0 #
face $-1 $437 $366 $2 $-1 $22 forward single #
loop $-1 $-1 $438 $215 #
coedge $-1 $439 $440 $441 $442 1 $216 $-1 #
coedge $-1 $443 $217 $444 $445 1 $133 $-1 #
coedge $-1 $217 $443 $446 $447 1 $133 $-1 #
coedge $-1 $448 $427 $217 $328 0 $95 $-1 #
edge $-1 $449 $450 $327 $274 0 #
coedge $-1 $218 $451 $259 $374 0 $275 $-1 #
straight-curve $-1 20 0 50 0 1 -0 #
coedge $-1 $220 $452 $224 $335 1 $169 $-1 #
ellipse-curve $-1 0 0 50 0 0 1 37.5 0 0 1 #
edge $-1 $223 $375 $260 $453 0 #
point $-1 27.5 -25.4950975679639 50 #
edge $-1 $225 $454 $224 $455 0 #
point $-1 20 -31.7214438511238 50 #
ellipse-curve $-1 20 -50 50.0000000000003 1 -0 -0 -5.2372220082647e-14 0 -15 1 #
ellipse-curve $-1 27.5 -50 50.0000000000003 -1 0 0 -5.2372220082647e-14 0 -15 1 #
loop $-1 $142 $456 $228 #
cone-surface $-1 100 -50 50 1 0 -3.49148133884313e-15 -5.2372220082647e-14 0 -15 1 0 1 0 #
coedge $-1 $244 $255 $232 $342 0 $257 $-1 #
edge $-1 $375 $246 $341 $258 0 #
face $-1 $228 $457 $2 $-1 $458 forward single #
coedge $-1 $396 $239 $235 $345 1 $282 $-1 #
edge $-1 $454 $241 $235 $459 0 #
face $-1 $162 $275 $2 $-1 $347 forward single #
plane-surface $-1 20 0 37.5 -1 0 0 0 0 1 0 #
coedge $-1 $239 $460 $238 $349 1 $282 $-1 #
edge $-1 $350 $461 $238 $351 0 #
vertex $-1 $240 $462 #
ellipse-curve $-1 0 0 0 -0 -0 -1 100 0 0 1 #
point $-1 20 -97.9795897113271 0 #
coedge $-1 $398 $463 $243 $354 1 $464 $-1 #
edge $-1 $401 $356 $243 $465 0 #
coedge $-1 $256 $244 $463 $466 0 $257 $-1 #
vertex $-1 $245 $467 #
ellipse-curve $-1 0 0 75 0 0 1 100 0 0 1 #
point $-1 27.5 -96.1444226151471 75 #
coedge $-1 $309 $248 $468 $469 1 $95 $-1 #
coedge $-1 $470 $471 $248 $361 1 $472 $-1 #
edge $-1 $368 $473 $248 $474 0 #
coedge $-1 $475 $476 $249 $363 1 $457 $-1 #
edge $-1 $461 $367 $249 $477 0 #
coedge $-1 $478 $250 $476 $479 1 $366 $-1 #
coedge $-1 $250 $478 $470 $480 1 $366 $-1 #
loop $-1 $-1 $478 $322 #
vertex $-1 $363 $481 #
vertex $-1 $251 $482 #
face $-1 $263 $483 $2 $-1 $484 forward single #
loop $-1 $485 $432 $252 #
cone-surface $-1 -100 50 50 1 0 -3.49148133884313e-15 -3.49148133884313e-14 0 -10 1 0 1 0 #
face $-1 $48 $257 $2 $-1 $484 forward single #
coedge $-1 $486 $259 $487 $488 1 $169 $-1 #
edge $-1 $489 $265 $329 $490 0 #
vertex $-1 $261 $491 #
ellipse-curve $-1 0 0 75 -0 -0 -1 37.5 0 0 1 #
coedge $-1 $492 $262 $493 $494 0 $169 $-1 #
coedge $-1 $262 $495 $496 $497 1 $169 $-1 #
coedge $-1 $471 $498 $262 $380 1 $472 $-1 #
edge $-1 $499 $500 $262 $501 0 #
face $-1 $502 $503 $2 $-1 $458 forward single #
loop $-1 $169 $504 $263 #
cone-surface $-1 0 0 0 0 0 1 37.5 0 0 1 0 1 0 #
point $-1 20 31.7214438511238 50 #
coedge $-1 $286 $267 $284 $397 0 $95 $-1 #
coedge $-1 $463 $398 $267 $387 1 $464 $-1 #
edge $-1 $388 $505 $267 $506 0 #
vertex $-1 $387 $507 #
coedge $-1 $269 $508 $509 $510 0 $95 $-1 #
coedge $-1 $451 $271 $269 $391 1 $275 $-1 #
edge $-1 $511 $273 $269 $512 0 #
point $-1 20 97.9795897113271 50 #
vertex $-1 $280 $513 #
ellipse-curve $-1 50 50 50.0000000000002 -1 -0 -0 -5.2372220082647e-14 0 -15 1 #
loop $-1 $-1 $487 $281 #
coedge $-1 $460 $344 $452 $514 0 $282 $-1 #
edge $-1 $505 $400 $385 $402 0 #
coedge $-1 $386 $353 $285 $399 0 $464 $-1 #
edge $-1 $401 $505 $398 $515 0 #
vertex $-1 $397 $516 #
vertex $-1 $287 $517 #
ellipse-curve $-1 0 0 25 -0 -0 -1 100 0 0 1 #
loop $-1 $518 $519 $288 #
plane-surface $-1 0 0 -75 0 0 -1 -1 0 0 0 #
loop $-1 $464 $520 $191 #
coedge $-1 $291 $414 $409 $521 1 $197 $-1 #
vertex $-1 $294 $522 #
straight-curve $-1 50 0 -25 0 -1 0 #
coedge $-1 $419 $293 $406 $521 0 $253 $-1 #
coedge $-1 $295 $418 $523 $524 1 $253 $-1 #
edge $-1 $525 $296 $295 $526 0 #
point $-1 50 -86.6025403784439 -25 #
point $-1 100 0 -25 #
coedge $-1 $406 $299 $527 $528 1 $197 $-1 #
coedge $-1 $300 $423 $418 $529 1 $203 $-1 #
vertex $-1 $303 $530 #
straight-curve $-1 -50 0 -25 0 1 0 #
coedge $-1 $410 $302 $415 $529 0 $253 $-1 #
coedge $-1 $304 $409 $531 $532 1 $253 $-1 #
edge $-1 $533 $305 $304 $534 0 #
point $-1 -50 86.6025403784439 -25 #
point $-1 -100 0 -25 #
coedge $-1 $415 $308 $535 $536 1 $203 $-1 #
edge $-1 $537 $310 $309 $538 0 #
point $-1 -50 -86.6025403784439 25 #
coedge $-1 $312 $311 $539 $540 1 $313 $-1 #
coedge $-1 $327 $315 $541 $542 0 $95 $-1 #
coedge $-1 $539 $543 $315 $429 0 $483 $-1 #
edge $-1 $544 $430 $428 $357 0 #
vertex $-1 $429 $545 #
straight-curve $-1 -50 86.6025403784439 0 0 0 1 #
coedge $-1 $432 $432 $319 $433 1 $370 $-1 #
edge $-1 $546 $546 $319 $547 0 #
loop $-1 $-1 $320 $502 #
vertex $-1 $321 $548 #
ellipse-curve $-1 -50 -50 49.9999999999998 1 -0 -0 -3.49148133884313e-14 0 -10 1 #
face $-1 $549 $550 $2 $-1 $551 forward single #
coedge $-1 $552 $553 $554 $555 1 $323 $-1 #
coedge $-1 $556 $324 $557 $558 1 $216 $-1 #
coedge $-1 $324 $556 $559 $560 1 $216 $-1 #
coedge $-1 $561 $562 $324 $442 0 $485 $-1 #
edge $-1 $563 $564 $441 $565 0 #
coedge $-1 $326 $325 $566 $567 1 $133 $-1 #
coedge $-1 $541 $568 $325 $445 0 $550 $-1 #
edge $-1 $569 $449 $444 $570 0 #
coedge $-1 $571 $572 $326 $447 0 $503 $-1 #
edge $-1 $450 $573 $446 $574 0 #
coedge $-1 $508 $327 $572 $575 0 $95 $-1 #
vertex $-1 $328 $576 #
vertex $-1 $328 $577 #
coedge $-1 $329 $390 $578 $579 0 $275 $-1 #
coedge $-1 $331 $492 $396 $514 1 $169 $-1 #
straight-curve $-1 27.5 -25.4950975679639 0 0 -0 1 #
vertex $-1 $335 $580 #
straight-curve $-1 20 -31.7214438511238 0 -0 -0 -1 #
coedge $-1 $456 $456 $520 $581 1 $339 $-1 #
loop $-1 $-1 $476 $343 #
plane-surface $-1 -20 0 37.5 1 0 0 0 0 -1 0 #
straight-curve $-1 20 0 0 0 -1 0 #
coedge $-1 $348 $396 $475 $582 1 $282 $-1 #
vertex $-1 $349 $583 #
point $-1 0 -100 0 #
coedge $-1 $353 $386 $355 $466 1 $464 $-1 #
loop $-1 $-1 $353 $191 #
straight-curve $-1 50 -86.6025403784439 0 0 0 1 #
edge $-1 $356 $388 $355 $584 0 #
point $-1 50 -86.6025403784439 75 #
coedge $-1 $585 $539 $359 $469 0 $483 $-1 #
edge $-1 $537 $473 $468 $357 0 #
coedge $-1 $586 $360 $365 $480 0 $472 $-1 #
coedge $-1 $360 $379 $585 $587 1 $472 $-1 #
loop $-1 $-1 $586 $549 #
vertex $-1 $469 $588 #
straight-curve $-1 -27.5 -96.1444226151471 0 0 0 1 #
coedge $-1 $589 $362 $460 $582 0 $457 $-1 #
coedge $-1 $362 $590 $364 $479 0 $457 $-1 #
straight-curve $-1 -20 -97.9795897113271 0 0 0 1 #
coedge $-1 $365 $364 $591 $592 1 $366 $-1 #
edge $-1 $593 $367 $476 $594 0 #
edge $-1 $368 $595 $470 $570 0 #
point $-1 -20 -97.9795897113271 50 #
point $-1 -27.5 -96.1444226151471 50 #
loop $-1 $-1 $585 $369 #
plane-surface $-1 0 0 75 0 0 1 1 0 0 0 #
loop $-1 $-1 $566 $252 #
coedge $-1 $596 $373 $597 $598 1 $169 $-1 #
coedge $-1 $578 $599 $373 $488 0 $395 $-1 #
edge $-1 $600 $489 $487 $601 0 #
vertex $-1 $579 $602 #
straight-curve $-1 20 31.7214438511238 0 0 0 1 #
point $-1 27.5 -25.4950975679639 75 #
coedge $-1 $452 $377 $589 $603 1 $169 $-1 #
coedge $-1 $553 $552 $377 $494 1 $323 $-1 #
edge $-1 $500 $604 $377 $332 0 #
coedge $-1 $378 $596 $605 $606 0 $169 $-1 #
coedge $-1 $543 $585 $378 $497 0 $483 $-1 #
edge $-1 $499 $607 $496 $608 0 #
coedge $-1 $379 $586 $553 $609 0 $472 $-1 #
vertex $-1 $380 $610 #
vertex $-1 $494 $611 #
straight-curve $-1 -27.5 -25.4950975679639 0 0 0 -1 #
face $-1 $114 $612 $2 $-1 $613 reversed single #
loop $-1 $-1 $446 $381 #
coedge $-1 $504 $504 $519 $614 1 $382 $-1 #
vertex $-1 $397 $615 #
straight-curve $-1 50 86.6025403784439 0 -0 -0 -1 #
point $-1 50 86.6025403784439 75 #
coedge $-1 $389 $448 $616 $617 0 $95 $-1 #
coedge $-1 $616 $578 $389 $510 1 $395 $-1 #
edge $-1 $618 $511 $389 $619 0 #
vertex $-1 $510 $620 #
straight-curve $-1 20 97.9795897113271 0 0 0 1 #
point $-1 50 49.9999999999999 65.0000000000002 #
edge $-1 $454 $621 $396 $622 0 #
straight-curve $-1 50 0 25 0 1 0 #
point $-1 100 0 25 #
point $-1 50 -86.6025403784439 25 #
loop $-1 $-1 $535 $288 #
coedge $-1 $519 $519 $504 $614 0 $403 $-1 #
coedge $-1 $520 $520 $456 $581 0 $405 $-1 #
edge $-1 $407 $623 $409 $624 0 #
point $-1 50 86.6025403784439 -25 #
coedge $-1 $535 $527 $410 $524 0 $518 $-1 #
edge $-1 $525 $625 $523 $626 0 #
vertex $-1 $528 $627 #
straight-curve $-1 50 -86.6025403784439 0 0 0 1 #
coedge $-1 $523 $531 $414 $528 0 $518 $-1 #
edge $-1 $623 $525 $527 $628 0 #
edge $-1 $416 $625 $418 $629 0 #
point $-1 -50 -86.6025403784439 -25 #
coedge $-1 $527 $535 $419 $532 0 $518 $-1 #
edge $-1 $533 $623 $531 $626 0 #
vertex $-1 $536 $630 #
straight-curve $-1 -50 86.6025403784439 0 0 0 1 #
coedge $-1 $531 $523 $423 $536 0 $518 $-1 #
edge $-1 $625 $533 $535 $631 0 #
vertex $-1 $424 $632 #
straight-curve $-1 -50 -86.6025403784439 0 -0 -0 -1 #
coedge $-1 $468 $428 $426 $540 0 $483 $-1 #
edge $-1 $430 $537 $539 $633 0 #
coedge $-1 $634 $444 $427 $542 1 $550 $-1 #
edge $-1 $544 $449 $427 $635 0 #
coedge $-1 $428 $496 $634 $636 0 $483 $-1 #
vertex $-1 $636 $637 #
point $-1 -50 86.6025403784439 75 #
vertex $-1 $433 $638 #
ellipse-curve $-1 -50 50 49.9999999999998 1 -0 -0 -3.49148133884313e-14 0 -10 1 #
point $-1 -50 -49.9999999999999 59.9999999999998 #
face $-1 $233 $472 $2 $-1 $551 forward single #
loop $-1 $-1 $541 $437 #
plane-surface $-1 -27.5 0 62.5 1 0 0 0 0 -1 0 #
coedge $-1 $493 $438 $639 $640 1 $323 $-1 #
coedge $-1 $438 $493 $498 $609 1 $323 $-1 #
coedge $-1 $641 $642 $438 $555 0 $612 $-1 #
edge $-1 $643 $644 $554 $645 0 #
coedge $-1 $440 $439 $596 $646 1 $216 $-1 #
coedge $-1 $568 $605 $439 $558 0 $550 $-1 #
edge $-1 $647 $563 $557 $570 0 #
coedge $-1 $597 $571 $440 $560 0 $503 $-1 #
edge $-1 $564 $648 $559 $574 0 #
coedge $-1 $566 $441 $571 $649 1 $485 $-1 #
coedge $-1 $441 $566 $568 $650 0 $485 $-1 #
vertex $-1 $442 $651 #
vertex $-1 $649 $652 #
straight-curve $-1 -100 40 50 1 -0 -3.49148133884313e-15 #
coedge $-1 $562 $561 $443 $567 0 $485 $-1 #
edge $-1 $573 $569 $566 $653 0 #
coedge $-1 $444 $557 $562 $650 1 $550 $-1 #
vertex $-1 $567 $654 #
straight-curve $-1 -27.5 0 50 0 1 0 #
coedge $-1 $559 $446 $561 $649 0 $503 $-1 #
coedge $-1 $446 $655 $448 $575 1 $503 $-1 #
vertex $-1 $567 $656 #
straight-curve $-1 -20 0 50 0 -1 0 #
edge $-1 $450 $657 $448 $658 0 #
point $-1 -27.5 96.1444226151471 50 #
point $-1 -20 97.9795897113271 50 #
coedge $-1 $509 $487 $451 $579 1 $395 $-1 #
edge $-1 $511 $489 $451 $459 0 #
point $-1 20 -31.7214438511238 0 #
edge $-1 $659 $659 $520 $660 0 #
edge $-1 $461 $621 $475 $661 0 #
point $-1 -20 -97.9795897113271 0 #
straight-curve $-1 50 0 75 0 1 0 #
coedge $-1 $496 $468 $471 $587 0 $483 $-1 #
coedge $-1 $498 $470 $641 $662 1 $472 $-1 #
edge $-1 $473 $499 $585 $663 0 #
point $-1 -27.5 -96.1444226151471 75 #
coedge $-1 $639 $475 $492 $603 0 $457 $-1 #
coedge $-1 $476 $639 $642 $664 0 $457 $-1 #
coedge $-1 $642 $641 $478 $592 0 $612 $-1 #
edge $-1 $595 $593 $591 $665 0 #
vertex $-1 $664 $666 #
straight-curve $-1 -20 0 50 0 -1 0 #
vertex $-1 $592 $667 #
coedge $-1 $495 $486 $556 $646 0 $169 $-1 #
coedge $-1 $655 $559 $486 $598 0 $503 $-1 #
edge $-1 $648 $600 $597 $668 0 #
coedge $-1 $487 $616 $655 $669 1 $395 $-1 #
vertex $-1 $488 $670 #
ellipse-curve $-1 0 0 0 -0 -0 -1 37.5 0 0 1 #
point $-1 20 31.7214438511238 0 #
edge $-1 $621 $604 $589 $671 0 #
vertex $-1 $603 $672 #
coedge $-1 $557 $634 $495 $606 1 $550 $-1 #
edge $-1 $647 $607 $495 $673 0 #
vertex $-1 $497 $674 #
ellipse-curve $-1 0 0 75 -0 -0 -1 37.5 0 0 1 #
edge $-1 $644 $500 $498 $570 0 #
point $-1 -27.5 -25.4950975679639 75 #
point $-1 -27.5 -25.4950975679639 50 #
loop $-1 $434 $591 $502 #
cone-surface $-1 -100 -50 50 1 0 -3.49148133884313e-15 -3.49148133884313e-14 0 -10 1 0 1 0 #
edge $-1 $675 $675 $519 $676 0 #
point $-1 50 86.6025403784439 25 #
coedge $-1 $599 $509 $508 $617 1 $395 $-1 #
edge $-1 $657 $618 $508 $619 0 #
vertex $-1 $617 $677 #
ellipse-curve $-1 0 0 0 -0 -0 -1 100 0 0 1 #
point $-1 20 97.9795897113271 0 #
vertex $-1 $582 $678 #
ellipse-curve $-1 0 0 0 -0 -0 -1 37.5 0 0 1 #
vertex $-1 $532 $679 #
straight-curve $-1 50 86.6025403784439 0 -0 -0 -1 #
vertex $-1 $524 $680 #
ellipse-curve $-1 0 0 -75 0 0 -1 100 0 0 1 #
point $-1 50 -86.6025403784439 -75 #
straight-curve $-1 50 0 -75 0 -1 0 #
straight-curve $-1 -50 -86.6025403784439 0 -0 -0 -1 #
point $-1 -50 86.6025403784439 -75 #
straight-curve $-1 -50 0 -75 0 1 0 #
point $-1 -50 -86.6025403784439 75 #
straight-curve $-1 -50 0 75 0 -1 0 #
coedge $-1 $605 $541 $543 $636 1 $550 $-1 #
straight-curve $-1 -27.5 96.1444226151471 0 -0 -0 -1 #
edge $-1 $607 $544 $543 $663 0 #
point $-1 -27.5 96.1444226151471 75 #
point $-1 -50 50.0000000000001 59.9999999999998 #
coedge $-1 $590 $589 $552 $640 0 $457 $-1 #
edge $-1 $604 $643 $639 $594 0 #
coedge $-1 $591 $554 $586 $662 0 $612 $-1 #
coedge $-1 $554 $591 $590 $664 1 $612 $-1 #
vertex $-1 $640 $681 #
vertex $-1 $555 $682 #
straight-curve $-1 -100 -40 50 -1 -0 3.49148133884313e-15 #
edge $-1 $648 $647 $596 $266 0 #
vertex $-1 $646 $683 #
vertex $-1 $646 $684 #
edge $-1 $573 $564 $571 $685 0 #
edge $-1 $569 $563 $562 $686 0 #
point $-1 -27.5 40 50 #
point $-1 -20 40 50 #
straight-curve $-1 -100 60 50 -1 -0 3.49148133884313e-15 #
point $-1 -27.5 60 50 #
coedge $-1 $572 $597 $599 $669 0 $503 $-1 #
point $-1 -20 60 50 #
vertex $-1 $617 $687 #
straight-curve $-1 -20 97.9795897113271 0 -0 -0 -1 #
vertex $-1 $581 $688 #
ellipse-curve $-1 50 -50 50.0000000000002 -1 -0 -0 -5.2372220082647e-14 0 -15 1 #
straight-curve $-1 -20 0 0 0 1 0 #
edge $-1 $644 $595 $641 $689 0 #
straight-curve $-1 -27.5 0 75 0 1 0 #
edge $-1 $643 $593 $590 $690 0 #
straight-curve $-1 -100 -60 50 1 -0 -3.49148133884313e-15 #
point $-1 -20 -60 50 #
point $-1 -27.5 -60 50 #
straight-curve $-1 -20 31.7214438511238 0 -0 -0 -1 #
edge $-1 $600 $657 $655 $661 0 #
point $-1 -20 31.7214438511238 0 #
straight-curve $-1 -20 -31.7214438511238 0 0 0 1 #
point $-1 -20 -31.7214438511238 50 #
straight-curve $-1 -27.5 25.4950975679639 0 -0 0 1 #
point $-1 -27.5 25.4950975679639 75 #
vertex $-1 $614 $691 #
ellipse-curve $-1 0 0 -75 -0 -0 1 37.5 0 0 1 #
point $-1 0 100 0 #
point $-1 -20 -31.7214438511238 0 #
point $-1 50 86.6025403784439 -75 #
point $-1 -50 -86.6025403784439 -75 #
point $-1 -20 -40 50 #
point $-1 -27.5 -40 50 #
point $-1 -27.5 25.4950975679639 50 #
point $-1 -20 31.7214438511238 50 #
ellipse-curve $-1 -20 50 49.9999999999997 -1 -0 -0 -3.49148133884313e-14 0 -10 1 #
ellipse-curve $-1 -27.5 50 49.9999999999997 1 0 0 -3.49148133884313e-14 0 -10 1 #
point $-1 -20 97.9795897113271 0 #
point $-1 50 -50.0000000000001 65.0000000000002 #
ellipse-curve $-1 -27.5 -50 49.9999999999997 1 0 0 -3.49148133884313e-14 0 -10 1 #
ellipse-curve $-1 -20 -50 49.9999999999997 -1 -0 -0 -3.49148133884313e-14 0 -10 1 #
point $-1 -37.5 2.61861100413235e-13 -75 #
