105 128 1 0                             
body $-1 $1 $-1 $2 #
lump $-1 $-1 $3 $0 #
transform $-1 1 0 0 0 1 0 0 0 1 0 0 0 1 0 0 0 #
shell $-1 $-1 $-1 $4 $1 #
face $5 $6 $7 $3 $-1 $8 forward single #
face_name-twe-attrib $-1 $-1 $-1 $4 1 #
face $9 $10 $11 $3 $-1 $12 reversed single #
loop $13 $-1 $14 $4 #
plane-surface $15 -2.33 -2.02 0.57 0 0 1 1 0 0 0 #
face_name-twe-attrib $-1 $-1 $-1 $6 2 #
face $16 $17 $18 $3 $-1 $19 reversed single #
loop $20 $-1 $21 $6 #
plane-surface $22 -2.33 -2.02 0 0 0 1 1 0 0 0 #
loop_type-twe-attrib $-1 $-1 $-1 $7 0 #
coedge $-1 $23 $24 $25 $26 0 $7 $-1 #
surf-twe-attrib $-1 $-1 $-1 $8 4 #
face_name-twe-attrib $-1 $-1 $-1 $10 3 #
face $27 $28 $29 $3 $-1 $30 reversed single #
loop $31 $-1 $32 $10 #
plane-surface $33 -2.33 -4.04 0.285 0 1 0 0 0 1 0 #
loop_type-twe-attrib $-1 $-1 $-1 $11 0 #
coedge $-1 $34 $35 $36 $37 0 $11 $-1 #
surf-twe-attrib $-1 $-1 $-1 $12 6 #
coedge $-1 $38 $14 $39 $40 0 $7 $-1 #
coedge $-1 $14 $38 $41 $42 0 $7 $-1 #
coedge $-1 $43 $44 $14 $26 1 $45 $-1 #
edge $46 $47 $48 $25 $49 0 #
face_name-twe-attrib $-1 $-1 $-1 $17 4 #
face $50 $51 $52 $3 $-1 $53 reversed single #
loop $54 $-1 $55 $17 #
plane-surface $56 -4.66 -2.02 0.285 1 0 0 0 0 -1 0 #
loop_type-twe-attrib $-1 $-1 $-1 $18 0 #
coedge $-1 $57 $41 $58 $59 0 $18 $-1 #
surf-twe-attrib $-1 $-1 $-1 $19 10 #
coedge $-1 $60 $21 $57 $61 0 $11 $-1 #
coedge $-1 $21 $60 $62 $63 0 $11 $-1 #
coedge $-1 $44 $43 $21 $37 1 $45 $-1 #
edge $64 $65 $66 $36 $67 0 #
coedge $-1 $24 $23 $68 $69 0 $7 $-1 #
coedge $-1 $70 $71 $23 $40 1 $52 $-1 #
edge $72 $48 $73 $39 $74 0 #
coedge $-1 $32 $75 $24 $42 1 $18 $-1 #
edge $76 $77 $47 $41 $78 0 #
coedge $-1 $36 $25 $75 $79 0 $45 $-1 #
coedge $-1 $25 $36 $70 $80 1 $45 $-1 #
loop $81 $-1 $43 $51 #
edge_name-twe-attrib $-1 $-1 $-1 $26 12 8704 #
vertex $-1 $26 $82 #
vertex $-1 $26 $83 #
straight-curve $84 0 -2.02 0.57 0 1 0 #
face_name-twe-attrib $-1 $-1 $-1 $28 5 #
face $85 $-1 $45 $3 $-1 $86 reversed single #
loop $87 $-1 $70 $28 #
plane-surface $88 -2.33 0 0.285 0 -1 0 0 0 -1 0 #
loop_type-twe-attrib $-1 $-1 $-1 $29 0 #
coedge $-1 $89 $68 $71 $90 0 $29 $-1 #
surf-twe-attrib $-1 $-1 $-1 $30 17 #
coedge $-1 $75 $32 $34 $61 1 $18 $-1 #
coedge $-1 $68 $89 $32 $59 1 $29 $-1 #
edge $91 $77 $92 $58 $93 0 #
coedge $-1 $35 $34 $89 $94 0 $11 $-1 #
edge $95 $66 $92 $57 $96 0 #
coedge $-1 $71 $70 $35 $63 1 $52 $-1 #
edge $97 $98 $65 $62 $99 0 #
edge_name-twe-attrib $-1 $-1 $-1 $37 10 8704 #
vertex $-1 $37 $100 #
vertex $-1 $79 $101 #
straight-curve $102 0 -2.02 0 0 -1 0 #
coedge $-1 $55 $58 $38 $69 1 $29 $-1 #
edge $103 $73 $77 $68 $104 0 #
coedge $-1 $62 $39 $44 $80 0 $52 $-1 #
coedge $-1 $39 $62 $55 $90 1 $52 $-1 #
edge_name-twe-attrib $-1 $-1 $-1 $40 8 8704 #
vertex $-1 $40 $105 #
straight-curve $106 -2.33 0 0.57 -1 0 0 #
coedge $-1 $41 $57 $43 $79 1 $18 $-1 #
edge_name-twe-attrib $-1 $-1 $-1 $42 2 8704 #
vertex $-1 $69 $107 #
straight-curve $108 -2.33 -4.04 0.57 1 0 0 #
edge $109 $47 $66 $43 $110 0 #
edge $111 $48 $65 $44 $112 0 #
loop_type-twe-attrib $-1 $-1 $-1 $45 0 #
point $-1 0 -4.04 0.57 #
point $-1 0 0 0.57 #
cur-twe-attrib $-1 $-1 $-1 $49 26 #
face_name-twe-attrib $-1 $-1 $-1 $51 6 #
plane-surface $113 0 -2.02 0.285 -1 0 0 0 0 1 0 #
loop_type-twe-attrib $-1 $-1 $-1 $52 0 #
surf-twe-attrib $-1 $-1 $-1 $53 28 #
coedge $-1 $58 $55 $60 $94 1 $29 $-1 #
edge $114 $73 $98 $71 $115 0 #
edge_name-twe-attrib $-1 $-1 $-1 $59 4 8704 #
vertex $-1 $94 $116 #
straight-curve $117 -4.66 -4.04 0.285 0 0 -1 #
edge $118 $92 $98 $89 $119 0 #
edge_name-twe-attrib $-1 $-1 $-1 $61 1 8704 #
straight-curve $120 -2.33 -4.04 0 -1 0 0 #
edge_name-twe-attrib $-1 $-1 $-1 $63 6 8704 #
vertex $-1 $63 $121 #
straight-curve $122 -2.33 0 0 1 0 0 #
point $-1 0 0 0 #
point $-1 0 -4.04 0 #
cur-twe-attrib $-1 $-1 $-1 $67 37 #
edge_name-twe-attrib $-1 $-1 $-1 $69 5 8704 #
straight-curve $123 -4.66 -2.02 0.57 0 -1 0 #
point $-1 -4.66 0 0.57 #
cur-twe-attrib $-1 $-1 $-1 $74 40 #
point $-1 -4.66 -4.04 0.57 #
cur-twe-attrib $-1 $-1 $-1 $78 42 #
edge_name-twe-attrib $-1 $-1 $-1 $79 9 8704 #
straight-curve $124 0 -4.04 0.285 0 0 -1 #
edge_name-twe-attrib $-1 $-1 $-1 $80 11 8704 #
straight-curve $125 0 0 0.285 0 0 -1 #
surf-twe-attrib $-1 $-1 $-1 $86 51 #
edge_name-twe-attrib $-1 $-1 $-1 $90 7 8704 #
straight-curve $126 -4.66 0 0.285 0 0 -1 #
point $-1 -4.66 -4.04 0 #
cur-twe-attrib $-1 $-1 $-1 $93 59 #
edge_name-twe-attrib $-1 $-1 $-1 $94 3 8704 #
straight-curve $127 -4.66 -2.02 0 0 1 0 #
cur-twe-attrib $-1 $-1 $-1 $96 61 #
point $-1 -4.66 0 0 #
cur-twe-attrib $-1 $-1 $-1 $99 63 #
cur-twe-attrib $-1 $-1 $-1 $104 69 #
cur-twe-attrib $-1 $-1 $-1 $110 79 #
cur-twe-attrib $-1 $-1 $-1 $112 80 #
cur-twe-attrib $-1 $-1 $-1 $115 90 #
cur-twe-attrib $-1 $-1 $-1 $119 94 #
