200 0 1 0           
7 Unknown 16 ACIS 2.0 Solaris 24 Thu Aug 29 09:58:50 1996 
-1 9.999999999999999547e-07 1.000000000000000036e-10 
body $1 $2 $-1 $3 #
display_attribute-st-attrib $-1 $4 $-1 $0 1 #
lump $-1 $-1 $5 $0 #
transform $-1 1 0 0 0 1 0 0 0 1 3 5 2 1 rotate no_reflect no_shear #
named_string_attribute-named_attribute-st-attrib $-1 $6 $1 $0 4 name 5 stock #
shell $-1 $-1 $-1 $7 $-1 $2 #
rgb_color-st-attrib $-1 $8 $4 $0 0 1 0 #
face $9 $10 $11 $5 $-1 $12 forward single #
id_attribute-st-attrib $-1 $-1 $6 $0 1 #
id_attribute-st-attrib $-1 $-1 $-1 $7 0 #
face $13 $14 $15 $5 $-1 $16 reversed single #
loop $-1 $-1 $17 $7 #
plane-surface $-1 2.250000000000000888 1.185759164520979713e-16 0.9047375096555629881 0.9682458365518542553 -1.185759164520979713e-16 -0.2499999999999999445 0.2499999999999999445 -3.061616997868382402e-17 0.9682458365518542553 forward_v I I I I #
id_attribute-st-attrib $-1 $-1 $-1 $10 0 #
face $-1 $18 $19 $5 $-1 $20 reversed single #
loop $-1 $-1 $21 $10 #
plane-surface $-1 0 0 -2 0 0 1 1 0 0 forward_v I I I I #
coedge $-1 $22 $23 $24 $25 1 $11 $-1 #
face $-1 $26 $27 $5 $-1 $28 forward single #
loop $-1 $-1 $29 $14 #
plane-surface $-1 0 -5 0 0 1 -0 -0 0 1 forward_v I I I I #
coedge $-1 $30 $31 $32 $33 0 $15 $-1 #
coedge $-1 $32 $17 $29 $34 1 $11 $-1 #
coedge $-1 $17 $32 $35 $36 1 $11 $-1 #
coedge $-1 $37 $38 $17 $25 0 $39 $-1 #
edge $40 $41 $42 $24 $43 forward #
face $-1 $44 $45 $5 $-1 $46 reversed single #
loop $-1 $-1 $47 $18 #
plane-surface $-1 -2.25 0 0.9047375096555629881 -0.9682458365518542553 0 -0.2499999999999999445 -0.2499999999999999445 0 0.9682458365518542553 forward_v I I I I #
coedge $-1 $48 $49 $22 $34 0 $19 $-1 #
coedge $-1 $50 $21 $49 $51 0 $15 $-1 #
coedge $-1 $21 $50 $52 $53 0 $15 $-1 #
coedge $-1 $23 $22 $21 $33 1 $11 $-1 #
edge $54 $55 $56 $21 $57 forward #
edge $58 $56 $41 $29 $59 forward #
coedge $-1 $52 $60 $23 $36 0 $45 $-1 #
edge $61 $42 $55 $35 $62 forward #
coedge $-1 $63 $24 $60 $64 0 $39 $-1 #
coedge $-1 $24 $63 $48 $65 0 $39 $-1 #
loop $-1 $-1 $24 $44 #
id_attribute-st-attrib $-1 $-1 $-1 $25 0 #
vertex $-1 $34 $66 #
vertex $-1 $64 $67 #
straight-curve $-1 2.532795558988645723 -1.131172742908813209e-16 2 1.224646799147353207e-16 1 -0 I I #
face $-1 $-1 $39 $5 $-1 $68 forward single #
loop $-1 $-1 $35 $26 #
plane-surface $-1 0 5 0 0 -1 0 0 0 -1 forward_v I I I I #
coedge $-1 $69 $70 $63 $71 1 $27 $-1 #
coedge $-1 $72 $29 $38 $65 1 $19 $-1 #
coedge $-1 $29 $72 $30 $51 1 $19 $-1 #
coedge $-1 $31 $30 $73 $74 0 $15 $-1 #
edge $-1 $56 $75 $49 $76 forward #
coedge $-1 $77 $35 $31 $53 1 $45 $-1 #
edge $-1 $78 $55 $52 $79 forward #
id_attribute-st-attrib $-1 $-1 $-1 $33 0 #
vertex $-1 $33 $80 #
vertex $-1 $51 $81 #
straight-curve $-1 1.5 1.336370325802326194e-17 -2 -1.224646799147353207e-16 -1 0 I I #
id_attribute-st-attrib $-1 $-1 $-1 $34 0 #
straight-curve $-1 2.07018645913796373 -5 0.2083226604743088906 0.2499999999999999445 0 0.9682458365518542553 I I #
coedge $-1 $35 $77 $37 $64 1 $45 $-1 #
id_attribute-st-attrib $-1 $-1 $-1 $36 0 #
straight-curve $-1 2.070186459137965063 5 0.208322660474308613 -0.2499999999999999445 -0 -0.9682458365518542553 I I #
coedge $-1 $38 $37 $47 $71 0 $39 $-1 #
edge $-1 $42 $82 $60 $83 forward #
edge $-1 $84 $41 $48 $85 forward #
point $-1 2.532795558988644391 -5 2 #
point $-1 2.532795558988645723 5 2 #
plane-surface $-1 0 0 2 0 0 1 1 0 0 forward_v I I I I #
coedge $-1 $73 $47 $77 $86 1 $27 $-1 #
coedge $-1 $47 $73 $72 $87 1 $27 $-1 #
edge $-1 $82 $84 $63 $88 forward #
coedge $-1 $49 $48 $70 $87 0 $19 $-1 #
coedge $-1 $70 $69 $50 $74 1 $27 $-1 #
edge $-1 $75 $78 $50 $89 forward #
vertex $-1 $74 $90 #
straight-curve $-1 0 -5 -2 -1 0 0 I I #
coedge $-1 $60 $52 $69 $86 0 $45 $-1 #
vertex $-1 $53 $91 #
straight-curve $-1 0 5 -2 1 0 0 I I #
point $-1 1.500000000000001554 5 -2 #
point $-1 1.500000000000000222 -5 -2 #
vertex $-1 $86 $92 #
straight-curve $-1 0 5 2 -1 0 0 I I #
vertex $-1 $65 $93 #
straight-curve $-1 0 -5 2 1 0 0 I I #
edge $-1 $78 $82 $77 $94 forward #
edge $-1 $84 $75 $72 $95 forward #
straight-curve $-1 -2.532795558988644835 0 2 -0 -1 0 I I #
straight-curve $-1 -1.499999999999999556 0 -2 0 1 -0 I I #
point $-1 -1.5 -5 -2 #
point $-1 -1.5 5 -2 #
point $-1 -2.532795558988644391 5 2 #
point $-1 -2.532795558988644391 -5 2 #
straight-curve $-1 -2.07018645913796373 5 0.2083226604743088628 -0.2499999999999999445 0 0.9682458365518542553 I I #
straight-curve $-1 -2.07018645913796373 -5 0.2083226604743088628 0.2499999999999999445 -0 -0.9682458365518542553 I I #
End-of-ACIS-data 