600 0 1 0           
93 GICL ACIS Healer - Source: /gicl/data5/repository/PTC/V18/process_mfg18/models/bolt.sat - 6 0 18 ACIS 6.0.3 Solaris 24 Sat Apr 13 21:14:52 2002 
1 9.999999999999999547e-07 1.000000000000000036e-10 
body $-1 $1 $-1 $-1 #
lump $-1 $-1 $2 $0 #
shell $-1 $-1 $-1 $3 $-1 $1 #
face $-1 $4 $5 $2 $-1 $6 reversed single #
face $-1 $7 $8 $2 $-1 $9 forward single #
loop $-1 $-1 $10 $3 #
plane-surface $-1 0 -25.39999999999999858 0 0 1 0 25.39999999999999858 0 0 forward_v I I I I #
face $-1 $11 $12 $2 $-1 $13 forward single #
loop $-1 $-1 $14 $4 #
cone-surface $-1 0 -26.6699999999999946 0 0 1 0 3.174999999999999822 0 0 1 I I 0 1 3.174999999999999822 forward I I I I #
coedge $-1 $15 $15 $14 $16 reversed $5 $-1 #
face $-1 $17 $18 $2 $-1 $19 reversed single #
loop $-1 $-1 $20 $7 #
cone-surface $-1 0 -26.6699999999999946 0 0 1 0 3.174999999999999822 0 0 1 I I 0 1 3.174999999999999822 forward I I I I #
coedge $-1 $21 $22 $10 $16 forward $8 $-1 #
coedge $-1 $10 $10 $23 $24 forward $5 $-1 #
edge $-1 $25 0 $26 3.141592653589793116 $10 $27 forward 7 unknown #
face $-1 $28 $29 $2 $-1 $30 forward single #
loop $-1 $31 $32 $11 #
plane-surface $-1 0 -6.349999999999999645 0 0 1 0 25.39999999999999858 0 0 forward_v I I I I #
coedge $-1 $33 $34 $35 $36 forward $12 $-1 #
coedge $-1 $37 $14 $33 $38 forward $8 $-1 #
coedge $-1 $14 $37 $34 $39 reversed $8 $-1 #
coedge $-1 $34 $33 $15 $24 reversed $12 $-1 #
edge $-1 $25 0 $26 3.141592653589793116 $15 $40 forward 7 unknown #
vertex $-1 $24 $41 #
vertex $-1 $24 $42 #
ellipse-curve $-1 -1.762479051592435909e-16 -25.39999999999999858 0 -1.776356839400250465e-15 1 0 3.174999999999999822 5.63993296509579491e-15 0 1 I I #
face $-1 $43 $44 $2 $-1 $45 forward single #
loop $-1 $-1 $46 $17 #
cone-surface $-1 0 -26.6699999999999946 0 0 1 0 7.873999999999999666 0 0 1 I I 0 1 7.873999999999999666 forward I I I I #
loop $-1 $-1 $47 $11 #
coedge $-1 $48 $48 $49 $50 forward $18 $-1 #
coedge $-1 $23 $20 $21 $38 reversed $12 $-1 #
coedge $-1 $20 $23 $22 $39 forward $12 $-1 #
coedge $-1 $47 $47 $20 $36 reversed $31 $-1 #
edge $-1 $51 0 $52 3.141592653589793116 $35 $53 forward 7 unknown #
coedge $-1 $22 $21 $47 $54 reversed $8 $-1 #
edge $-1 $26 0 $52 0.7499999999999996669 $21 $55 forward 7 unknown #
edge $-1 $25 0 $51 0.749999999999999778 $22 $56 forward 7 unknown #
ellipse-curve $-1 -1.762479051592435909e-16 -25.39999999999999858 0 1.776356839400250465e-15 -1 0 3.174999999999999822 5.63993296509579491e-15 0 1 I I #
point $-1 3.174999999999999822 -25.39999999999999147 0 #
point $-1 -3.174999999999999822 -25.39999999999999147 3.888125173386047696e-16 #
face $-1 $57 $58 $2 $-1 $59 forward single #
loop $-1 $60 $61 $28 #
plane-surface $-1 0 0 0 0 1 0 25.39999999999999858 0 0 forward_v I I I I #
coedge $-1 $62 $63 $64 $65 forward $29 $-1 #
coedge $-1 $35 $35 $37 $54 forward $31 $-1 #
coedge $-1 $32 $32 $66 $67 reversed $18 $-1 #
coedge $-1 $63 $62 $32 $50 reversed $29 $-1 #
edge $-1 $68 0 $69 3.141592653589793116 $32 $70 forward 7 unknown #
vertex $-1 $39 $71 #
vertex $-1 $54 $72 #
ellipse-curve $-1 0 -6.349999999999999645 0 0 -1 0 3.174999999999999822 0 0 1 I I #
edge $-1 $51 0 $52 3.141592653589793116 $37 $73 forward 7 unknown #
straight-curve $-1 -3.174999999999999822 -25.39999999999999147 3.888125173386047696e-16 0 25.39999999999999858 0 I I #
straight-curve $-1 3.174999999999999822 -25.39999999999999147 0 0 25.39999999999999858 0 I I #
face $-1 $74 $75 $2 $-1 $76 reversed single #
loop $-1 $-1 $66 $43 #
cone-surface $-1 0 -26.6699999999999946 0 0 1 0 7.873999999999999666 0 0 1 I I 0 1 7.873999999999999666 forward I I I I #
loop $-1 $-1 $77 $28 #
coedge $-1 $64 $64 $78 $79 forward $44 $-1 #
coedge $-1 $49 $46 $80 $81 reversed $29 $-1 #
coedge $-1 $46 $49 $82 $83 forward $29 $-1 #
coedge $-1 $61 $61 $46 $65 reversed $44 $-1 #
edge $-1 $84 0 $85 3.141592653589793116 $64 $86 forward 7 unknown #
coedge $-1 $80 $82 $48 $67 forward $58 $-1 #
edge $-1 $68 0 $69 3.141592653589792672 $48 $87 forward 7 unknown #
vertex $-1 $67 $88 #
vertex $-1 $67 $89 #
ellipse-curve $-1 3.524958103184871819e-16 -6.349999999999999645 -1.057487430955461447e-15 3.581364595565020875e-16 -1 4.80981463738747759e-32 7.873999999999999666 2.819966482547897455e-15 1.057487430955461447e-15 1 I I #
point $-1 3.174999999999999822 -6.34999999999999698 0 #
point $-1 -3.174999999999999822 -6.349999999999999645 0 #
ellipse-curve $-1 0 -6.349999999999999645 0 0 1 0 3.174999999999999822 0 0 1 I I #
face $-1 $90 $91 $2 $-1 $92 reversed single #
loop $-1 $-1 $93 $57 #
plane-surface $-1 -4.825999999999999623 0 -2.786292399109152829 -1 0 0 0 0 25.39999999999999858 forward_v I I I I #
coedge $-1 $94 $95 $96 $97 reversed $60 $-1 #
coedge $-1 $82 $80 $61 $79 reversed $58 $-1 #
edge $-1 $84 0 $85 3.141592653589793116 $78 $98 forward 7 unknown #
coedge $-1 $78 $66 $62 $81 forward $58 $-1 #
edge $-1 $69 0 $85 0.249999999999999889 $80 $99 forward 7 unknown #
coedge $-1 $66 $78 $63 $83 reversed $58 $-1 #
edge $-1 $68 0 $84 0.249999999999999889 $82 $100 forward 7 unknown #
vertex $-1 $83 $101 #
vertex $-1 $79 $102 #
ellipse-curve $-1 0 0 0 0 -1 0 7.873999999999999666 0 0 1 I I #
ellipse-curve $-1 3.524958103184871819e-16 -6.349999999999999645 1.057487430955461447e-15 -3.581364595565020875e-16 1 4.80981463738747759e-32 7.873999999999999666 2.819966482547897455e-15 -1.057487430955461447e-15 1 I I #
point $-1 7.873999999999999666 -6.34999999999999698 0 #
point $-1 -7.873999999999999666 -6.34999999999999698 -9.642550429997397537e-16 #
face $-1 $103 $104 $2 $-1 $105 reversed single #
loop $-1 $-1 $106 $74 #
plane-surface $-1 -4.825999999999999623 0 2.786292399109133289 -0.5000000000000025535 0 0.8660254037844371533 21.99704525612470363 0 12.70000000000006501 forward_v I I I I #
coedge $-1 $107 $96 $108 $109 forward $75 $-1 #
coedge $-1 $110 $77 $111 $112 reversed $60 $-1 #
coedge $-1 $77 $113 $114 $115 reversed $60 $-1 #
coedge $-1 $93 $116 $77 $97 forward $75 $-1 #
edge $-1 $117 0 $118 0.2193931022920585228 $77 $119 forward 7 unknown #
ellipse-curve $-1 0 0 0 0 1 0 7.873999999999999666 0 0 1 I I #
straight-curve $-1 -7.873999999999999666 -6.34999999999999698 9.642550429997397537e-16 0 25.39999999999999858 0 I I #
straight-curve $-1 7.873999999999999666 -6.34999999999999698 0 0 25.39999999999999858 0 I I #
point $-1 7.873999999999999666 0 0 #
point $-1 -7.873999999999999666 0 0 #
face $-1 $120 $121 $2 $-1 $122 reversed single #
loop $-1 $-1 $123 $90 #
plane-surface $-1 0 0 5.572584798218286117 0.5000000000000053291 0 0.86602540378443571 21.99704525612466455 0 -12.70000000000013252 forward_v I I I I #
coedge $-1 $124 $114 $125 $126 forward $91 $-1 #
coedge $-1 $116 $93 $127 $128 reversed $75 $-1 #
coedge $-1 $114 $124 $93 $109 reversed $91 $-1 #
edge $-1 $118 0 $129 0.1799999999999999656 $108 $130 forward 7 unknown #
coedge $-1 $131 $94 $132 $133 reversed $60 $-1 #
coedge $-1 $134 $135 $94 $112 forward $136 $-1 #
edge $-1 $137 0 $117 0.2193931022920577456 $94 $138 forward 7 unknown #
coedge $-1 $95 $131 $139 $140 reversed $60 $-1 #
coedge $-1 $106 $108 $95 $115 forward $91 $-1 #
edge $-1 $118 0 $141 0.2193931022920581342 $95 $142 forward 7 unknown #
coedge $-1 $96 $107 $134 $143 reversed $75 $-1 #
vertex $-1 $112 $144 #
vertex $-1 $115 $145 #
straight-curve $-1 -4.825999999999999623 0 -2.786292399109152829 0 0 25.39999999999999858 I I #
face $-1 $146 $147 $2 $-1 $148 reversed single #
loop $-1 $-1 $149 $103 #
plane-surface $-1 4.825999999999965873 0 2.786292399109133289 1 0 0 0 0 -25.39999999999999858 forward_v I I I I #
coedge $-1 $150 $139 $151 $152 forward $104 $-1 #
coedge $-1 $108 $106 $153 $154 reversed $91 $-1 #
coedge $-1 $139 $150 $106 $126 reversed $104 $-1 #
edge $-1 $141 0 $155 0.1799999999999999656 $106 $156 forward 7 unknown #
coedge $-1 $153 $157 $107 $128 forward $158 $-1 #
edge $-1 $159 0 $129 0.2193931022920585228 $127 $160 forward 7 unknown #
vertex $-1 $154 $161 #
straight-curve $-1 -4.825999999999999623 0 2.786292399109133289 0 -25.39999999999999858 0 I I #
coedge $-1 $113 $110 $162 $163 reversed $60 $-1 #
coedge $-1 $164 $165 $110 $133 forward $147 $-1 #
edge $-1 $166 0 $137 0.219393102292057357 $110 $167 forward 7 unknown #
coedge $-1 $168 $111 $116 $143 forward $136 $-1 #
coedge $-1 $111 $168 $164 $169 reversed $136 $-1 #
loop $-1 $-1 $134 $146 #
vertex $-1 $133 $170 #
straight-curve $-1 0 0 -5.572584798218286117 -21.99704525612473915 0 12.69999999999999751 I I #
coedge $-1 $123 $125 $113 $140 forward $104 $-1 #
edge $-1 $141 0 $171 0.219393102292057024 $113 $172 forward 7 unknown #
vertex $-1 $115 $173 #
straight-curve $-1 -4.825999999999999623 0 2.786292399109133289 21.99704525612470363 0 12.70000000000006146 I I #
edge $-1 $117 0 $159 0.1799999999999999656 $134 $174 forward 7 unknown #
point $-1 -4.825999999999999623 0 -2.786292399109152829 #
point $-1 -4.825999999999999623 0 2.786292399109133289 #
face $-1 $175 $136 $2 $-1 $176 reversed single #
loop $-1 $-1 $164 $120 #
plane-surface $-1 4.825999999999965873 0 -2.786292399109113305 0.5000000000000079936 0 -0.8660254037844341557 -21.99704525612462191 0 -12.70000000000020002 forward_v I I I I #
coedge $-1 $177 $162 $165 $178 forward $121 $-1 #
coedge $-1 $125 $123 $179 $180 reversed $104 $-1 #
coedge $-1 $162 $177 $123 $152 reversed $121 $-1 #
edge $-1 $171 0 $181 0.1799999999999999656 $123 $182 forward 7 unknown #
coedge $-1 $179 $127 $124 $154 forward $158 $-1 #
edge $-1 $129 0 $155 0.2193931022920581342 $153 $183 forward 7 unknown #
vertex $-1 $154 $184 #
straight-curve $-1 0 0 5.572584798218285229 0 -25.39999999999999858 0 I I #
coedge $-1 $127 $185 $168 $186 forward $158 $-1 #
loop $-1 $-1 $179 $175 #
vertex $-1 $128 $187 #
straight-curve $-1 -4.825999999999999623 -4.571999999999999176 -2.786292399109152829 0 0 25.39999999999999858 I I #
point $-1 -4.825999999999999623 -4.571999999999999176 2.786292399109133289 #
coedge $-1 $149 $151 $131 $163 forward $121 $-1 #
edge $-1 $171 0 $166 0.2193931022920569407 $131 $188 forward 7 unknown #
coedge $-1 $189 $132 $135 $169 forward $147 $-1 #
coedge $-1 $132 $189 $149 $178 reversed $147 $-1 #
vertex $-1 $163 $190 #
straight-curve $-1 4.825999999999965873 0 -2.786292399109113305 -21.99704525612462191 0 -12.70000000000020179 I I #
coedge $-1 $135 $134 $157 $186 reversed $136 $-1 #
edge $-1 $137 0 $191 0.1799999999999999656 $164 $192 forward 7 unknown #
point $-1 0 0 -5.572584798218286117 #
vertex $-1 $140 $193 #
straight-curve $-1 0 0 5.572584798218286117 21.99704525612466455 0 -12.70000000000013252 I I #
point $-1 0 0 5.572584798218286117 #
straight-curve $-1 -4.826000000000000512 0 -2.786292399109152385 0 -25.39999999999999858 0 I I #
face $-1 $-1 $158 $2 $-1 $194 forward single #
plane-surface $-1 0 0 -5.572584798218286117 -0.5 0 -0.8660254037844387076 -21.99704525612474271 0 12.69999999999999929 forward_v I I I I #
coedge $-1 $151 $149 $195 $196 reversed $121 $-1 #
edge $-1 $166 0 $197 0.1799999999999999656 $149 $198 forward 7 unknown #
coedge $-1 $195 $153 $150 $180 forward $158 $-1 #
edge $-1 $155 0 $181 0.219393102292057024 $179 $199 forward 7 unknown #
vertex $-1 $196 $200 #
straight-curve $-1 4.825999999999965873 0 2.786292399109133289 0 -25.39999999999999858 0 I I #
straight-curve $-1 -4.825999999999999623 -4.571999999999999176 2.786292399109133289 21.99704525612470363 0 12.70000000000006146 I I #
point $-1 0 -4.571999999999999176 5.572584798218286117 #
coedge $-1 $157 $195 $189 $201 forward $158 $-1 #
edge $-1 $191 0 $159 0.2193931022920577456 $157 $202 forward 7 unknown #
point $-1 -4.825999999999999623 -4.571999999999999176 -2.786292399109152829 #
straight-curve $-1 4.825999999999965873 0 2.786292399109133289 0 0 -25.39999999999999858 I I #
coedge $-1 $165 $164 $185 $201 reversed $147 $-1 #
point $-1 4.825999999999965873 0 -2.786292399109113305 #
vertex $-1 $186 $203 #
straight-curve $-1 0 0 -5.572584798218287006 0 -25.39999999999999858 0 I I #
point $-1 4.825999999999965873 0 2.786292399109133289 #
plane-surface $-1 0 -4.571999999999999176 0 0 1 0 -25.39999999999999858 0 0 forward_v I I I I #
coedge $-1 $185 $179 $177 $196 forward $158 $-1 #
edge $-1 $181 0 $197 0.2193931022920569407 $195 $204 forward 7 unknown #
vertex $-1 $201 $205 #
straight-curve $-1 4.825999999999965873 0 -2.786292399109113305 0 -25.39999999999999858 0 I I #
straight-curve $-1 0 -4.571999999999999176 5.572584798218286117 21.99704525612466455 0 -12.70000000000013252 I I #
point $-1 4.825999999999965873 -4.571999999999999176 2.786292399109133289 #
edge $-1 $197 0 $191 0.219393102292057357 $185 $206 forward 7 unknown #
straight-curve $-1 0 -4.571999999999999176 -5.572584798218286117 -21.99704525612473915 0 12.69999999999999751 I I #
point $-1 0 -4.571999999999999176 -5.572584798218286117 #
straight-curve $-1 4.825999999999965873 -4.571999999999999176 2.786292399109133289 0 0 -25.39999999999999858 I I #
point $-1 4.825999999999965873 -4.571999999999999176 -2.786292399109113305 #
straight-curve $-1 4.825999999999965873 -4.571999999999999176 -2.786292399109113305 -21.99704525612462191 0 -12.70000000000020179 I I #
End-of-ACIS-data 