700 0 2 0           
24 FBMach with ACIS - 7.0.3 13 ACIS 7.0.3 NT 24 Wed May 15 14:29:14 2002 
1 9.9999999999999995e-007 1e-010 
body $2 -1 $-1 $3 $-1 $4 #
bdycol-kcp $-1 -1 1 4 $5 $6 $7 $8 #
model_id-kcp-attrib $-1 -1 $-1 $-1 $0 1 1021487353 1021487353 -1022164991 1 #
lump $-1 -1 $-1 $-1 $9 $0 #
transform $-1 -1 1 0 0 0 1 0 0 0 1 0 0 0 1 rotate no_reflect no_shear #
body $10 -1 $-1 $11 $-1 $12 #
body $13 -1 $-1 $14 $-1 $15 #
body $16 -1 $-1 $17 $-1 $18 #
body $19 -1 $-1 $20 $-1 $21 #
shell $-1 -1 $-1 $-1 $-1 $22 $-1 $3 #
model_id-kcp-attrib $-1 -1 $-1 $-1 $5 1 1021487353 1021487353 -1022164990 1 #
lump $-1 -1 $-1 $-1 $23 $5 #
transform $-1 -1 1 0 0 0 1 0 0 0 1 0 -12.700000000000003 0 1 no_rotate no_reflect no_shear #
rgb_color-st-attrib $-1 -1 $24 $-1 $6 0 0 1 #
lump $-1 -1 $-1 $-1 $25 $6 #
transform $-1 -1 1 0 0 0 1 0 0 0 1 0 -12.700000000000003 0 1 no_rotate no_reflect no_shear #
rgb_color-st-attrib $-1 -1 $26 $-1 $7 0.5 1 1 #
lump $-1 -1 $-1 $-1 $27 $7 #
transform $-1 -1 1 0 0 0 1 0 0 0 1 0 -12.700000000000003 0 1 no_rotate no_reflect no_shear #
rgb_color-st-attrib $-1 -1 $28 $-1 $8 1 0.5 1 #
lump $-1 -1 $-1 $-1 $29 $8 #
transform $-1 -1 1 0 0 0 1 0 0 0 1 0 -12.700000000000003 0 1 no_rotate no_reflect no_shear #
face $30 -1 $-1 $31 $32 $9 $-1 $33 reversed single #
shell $-1 -1 $-1 $-1 $-1 $34 $-1 $11 #
model_id-kcp-attrib $-1 -1 $-1 $13 $6 1 1021487353 1021487353 -1018626044 1 #
shell $-1 -1 $-1 $-1 $-1 $35 $-1 $14 #
model_id-kcp-attrib $-1 -1 $-1 $16 $7 1 1021487353 1021487353 -1013645309 1 #
shell $-1 -1 $-1 $-1 $-1 $36 $-1 $17 #
model_id-kcp-attrib $-1 -1 $-1 $19 $8 1 1021487353 1021487353 -1010040827 1 #
shell $-1 -1 $-1 $-1 $-1 $37 $-1 $20 #
model_id-kcp-attrib $-1 -1 $-1 $-1 $22 1 1021487353 1021487353 -1022164991 2 #
face $38 -1 $-1 $39 $40 $9 $-1 $41 forward single #
loop $-1 -1 $-1 $-1 $42 $22 #
plane-surface $-1 -1 $-1 0 -25.399999999999999 0 0 1 0 25.399999999999999 0 0 forward_v I I I I #
face $-1 -1 $-1 $43 $44 $23 $-1 $45 forward single #
face $-1 -1 $-1 $46 $47 $25 $-1 $48 forward single #
face $-1 -1 $-1 $49 $50 $27 $-1 $51 reversed single #
face $-1 -1 $-1 $52 $53 $29 $-1 $54 forward single #
model_id-kcp-attrib $-1 -1 $-1 $-1 $31 1 1021487353 1021487353 -1022164991 3 #
face $55 -1 $-1 $56 $57 $9 $-1 $58 forward single #
loop $-1 -1 $-1 $-1 $59 $31 #
cone-surface $-1 -1 $-1 0 -26.669999999999995 0 0 1 0 3.1749999999999998 0 0 1 I I 0 1 3.1749999999999998 forward I I I I #
coedge $-1 -1 $-1 $60 $60 $59 $61 reversed $32 $-1 #
face $-1 -1 $-1 $62 $63 $23 $-1 $64 reversed single #
loop $-1 -1 $-1 $-1 $65 $34 #
plane-surface $-1 -1 $-1 0 0 7.8739999999999997 0 0 1 1 0 0 forward_v I I I I #
face $-1 -1 $-1 $66 $67 $25 $-1 $68 forward single #
loop $-1 -1 $-1 $-1 $69 $35 #
plane-surface $-1 -1 $-1 -4.8259999999999996 8.1280000000000037 -2.7862923991091528 -0.5 0 -0.86602540378443871 -0.86602540378443871 0 0.5 forward_v I I I I #
face $-1 -1 $-1 $70 $71 $27 $-1 $51 reversed single #
loop $-1 -1 $-1 $-1 $72 $36 #
cone-surface $-1 -1 $-1 -2.952082130906877e-032 -12.699999999999996 0 0 -1 0 7.8739999999999997 0 0 1 I I 0 1 7.8739999999999997 forward I I I I #
face $-1 -1 $-1 $73 $74 $29 $-1 $75 forward single #
loop $-1 -1 $-1 $76 $77 $37 #
cone-surface $-1 -1 $-1 0 6.3500000000000014 0 0 -1 0 3.1749999999999998 0 0 1 I I 0 -1 3.1749999999999998 forward I I I I #
model_id-kcp-attrib $-1 -1 $-1 $-1 $39 1 1021487353 1021487353 -1022164991 4 #
face $78 -1 $-1 $79 $80 $9 $-1 $81 reversed single #
loop $-1 -1 $-1 $-1 $82 $39 #
cone-surface $-1 -1 $-1 0 -26.669999999999995 0 0 1 0 3.1749999999999998 0 0 1 I I 0 1 3.1749999999999998 forward I I I I #
coedge $-1 -1 $-1 $83 $84 $42 $61 forward $40 $-1 #
coedge $-1 -1 $-1 $42 $42 $85 $86 forward $32 $-1 #
edge $87 -1 $-1 $88 0 $89 3.1415926535897931 $42 $90 forward @7 unknown #
face $91 -1 $-1 $92 $93 $23 $-1 $94 reversed single #
loop $-1 -1 $-1 $-1 $95 $43 #
plane-surface $-1 -1 $-1 0 0 -7.8739999999999997 0 0 1 1 0 0 forward_v I I I I #
coedge $-1 -1 $-1 $96 $97 $98 $99 forward $44 $-1 #
face $-1 -1 $-1 $100 $101 $25 $-1 $102 forward single #
loop $-1 -1 $-1 $-1 $103 $46 #
plane-surface $-1 -1 $-1 0 8.1280000000000037 -5.572584798218287 0.50000000000000799 0 -0.86602540378443416 -0.86602540378443416 0 -0.50000000000000799 forward_v I I I I #
coedge $-1 -1 $-1 $104 $105 $106 $107 forward $47 $-1 #
face $-1 -1 $-1 $108 $109 $27 $-1 $51 reversed single #
loop $-1 -1 $-1 $-1 $110 $49 #
coedge $-1 -1 $-1 $111 $112 $113 $114 reversed $50 $-1 #
face $-1 -1 $-1 $115 $116 $29 $-1 $117 reversed single #
loop $-1 -1 $-1 $118 $119 $52 #
cone-surface $-1 -1 $-1 -2.952082130906877e-032 6.3500000000000014 0 0 -1 0 7.8739999999999997 0 0 1 I I 0 1 7.8739999999999997 forward I I I I #
loop $-1 -1 $-1 $-1 $120 $37 #
coedge $-1 -1 $-1 $77 $77 $121 $122 forward $53 $-1 #
model_id-kcp-attrib $-1 -1 $-1 $-1 $56 1 1021487353 1021487353 -1022164991 5 #
face $123 -1 $-1 $124 $125 $9 $-1 $126 forward single #
loop $-1 -1 $-1 $127 $128 $56 #
plane-surface $-1 -1 $-1 0 -6.3499999999999996 0 0 1 0 25.399999999999999 0 0 forward_v I I I I #
coedge $-1 -1 $-1 $129 $130 $131 $132 forward $57 $-1 #
coedge $-1 -1 $-1 $133 $59 $129 $134 forward $40 $-1 #
coedge $-1 -1 $-1 $59 $133 $130 $135 reversed $40 $-1 #
coedge $-1 -1 $-1 $130 $129 $60 $86 reversed $57 $-1 #
edge $136 -1 $-1 $88 0 $89 3.1415926535897931 $60 $137 forward @7 unknown #
attrib_edge_convexity-kcp-attrib $-1 -1 $138 $-1 $61 1 #
vertex $-1 -1 $-1 $86 $139 #
vertex $-1 -1 $-1 $86 $140 #
ellipse-curve $-1 -1 $-1 -1.7624790515924359e-016 -25.399999999999999 0 -1.7763568394002505e-015 1 0 3.1749999999999998 5.6399329650957949e-015 0 1 I I #
model_id-kcp-attrib $-1 -1 $-1 $-1 $62 1 1021487353 1021487353 -1022164990 2 #
face $-1 -1 $-1 $141 $142 $23 $-1 $143 reversed single #
loop $-1 -1 $-1 $-1 $144 $62 #
plane-surface $-1 -1 $-1 0 -12.700000000000003 0 0 1 0 0 0 1 forward_v I I I I #
coedge $-1 -1 $-1 $145 $146 $147 $148 forward $63 $-1 #
coedge $-1 -1 $-1 $149 $65 $150 $151 forward $44 $-1 #
coedge $-1 -1 $-1 $65 $149 $152 $153 forward $44 $-1 #
coedge $-1 -1 $-1 $154 $155 $65 $99 reversed $156 $-1 #
edge $-1 -1 $-1 $157 -12.700000000000003 $158 12.700000000000003 $98 $159 forward @7 unknown #
face $-1 -1 $-1 $160 $161 $25 $-1 $162 forward single #
loop $-1 -1 $-1 $-1 $163 $66 #
plane-surface $-1 -1 $-1 4.8259999999999659 8.1280000000000037 -2.7862923991091129 1 0 0 0 0 -1 forward_v I I I I #
coedge $-1 -1 $-1 $164 $165 $166 $167 forward $67 $-1 #
coedge $-1 -1 $-1 $168 $69 $165 $169 reversed $47 $-1 #
coedge $-1 -1 $-1 $69 $168 $170 $171 forward $47 $-1 #
coedge $-1 -1 $-1 $172 $166 $69 $107 reversed $173 $-1 #
edge $-1 -1 $-1 $174 -4.1794385986636886 $175 1.3931461995545791 $69 $176 forward @7 unknown #
face $-1 -1 $-1 $177 $178 $27 $-1 $51 reversed single #
loop $-1 -1 $-1 $-1 $179 $70 #
coedge $-1 -1 $-1 $180 $181 $182 $183 reversed $71 $-1 #
coedge $-1 -1 $-1 $184 $72 $185 $186 forward $50 $-1 #
coedge $-1 -1 $-1 $72 $184 $187 $188 reversed $50 $-1 #
coedge $-1 -1 $-1 $189 $190 $72 $114 forward $191 $-1 #
edge $-1 -1 $-1 $192 0 $193 1.5707963267948966 $113 $194 forward @7 unknown #
face $-1 -1 $-1 $-1 $195 $29 $-1 $196 forward single #
loop $-1 -1 $-1 $197 $198 $73 #
plane-surface $-1 -1 $-1 -0.51012330198537059 -12.699999999999989 5.5511151231257827e-017 4.6086665670342156e-032 1 -3.8405554725285128e-033 0 3.8405554725285128e-033 1 forward_v I I I I #
loop $-1 -1 $-1 $-1 $199 $52 #
coedge $-1 -1 $-1 $119 $119 $198 $200 forward $74 $-1 #
coedge $-1 -1 $-1 $120 $120 $201 $202 reversed $76 $-1 #
coedge $-1 -1 $-1 $121 $121 $77 $122 reversed $197 $-1 #
edge $-1 -1 $-1 $203 -3.1415926535897931 $203 3.1415926535897931 $77 $204 forward @7 unknown #
model_id-kcp-attrib $-1 -1 $-1 $-1 $79 1 1021487353 1021487353 -1022164991 6 #
face $205 -1 $-1 $206 $207 $9 $-1 $208 forward single #
loop $-1 -1 $-1 $-1 $209 $79 #
cone-surface $-1 -1 $-1 0 -26.669999999999995 0 0 1 0 7.8739999999999997 0 0 1 I I 0 1 7.8739999999999997 forward I I I I #
loop $-1 -1 $-1 $-1 $210 $56 #
coedge $-1 -1 $-1 $211 $211 $212 $213 forward $80 $-1 #
coedge $-1 -1 $-1 $85 $82 $83 $134 reversed $57 $-1 #
coedge $-1 -1 $-1 $82 $85 $84 $135 forward $57 $-1 #
coedge $-1 -1 $-1 $210 $210 $82 $132 reversed $127 $-1 #
edge $214 -1 $-1 $215 0 $216 3.1415926535897931 $131 $217 forward @7 unknown #
coedge $-1 -1 $-1 $84 $83 $210 $218 reversed $40 $-1 #
edge $-1 -1 $-1 $89 0 $216 0.74999999999999967 $83 $219 forward @7 unknown #
edge $-1 -1 $-1 $88 0 $215 0.74999999999999978 $84 $220 forward @7 unknown #
attrib_edge_convexity-kcp-attrib $-1 -1 $221 $-1 $86 1 #
ellipse-curve $-1 -1 $-1 -1.7624790515924359e-016 -25.399999999999999 0 1.7763568394002505e-015 -1 0 3.1749999999999998 5.6399329650957949e-015 0 1 I I #
convexity-sys-attrib $-1 -1 $-1 $87 $61 #
point $-1 -1 $-1 3.1749999999999998 -25.399999999999991 0 #
point $-1 -1 $-1 -3.1749999999999998 -25.399999999999991 3.8881251733860477e-016 #
face $222 -1 $-1 $223 $224 $23 $-1 $225 reversed single #
loop $-1 -1 $-1 $-1 $226 $92 #
plane-surface $-1 -1 $-1 -7.8739999999999997 0 0 1 0 0 0 0 -1 forward_v I I I I #
coedge $-1 -1 $-1 $227 $152 $228 $229 forward $93 $-1 #
coedge $-1 -1 $-1 $230 $95 $227 $231 forward $63 $-1 #
coedge $-1 -1 $-1 $95 $230 $232 $233 forward $63 $-1 #
coedge $-1 -1 $-1 $155 $154 $95 $148 reversed $156 $-1 #
edge $-1 -1 $-1 $234 -12.700000000000003 $235 12.700000000000003 $147 $236 forward @7 unknown #
coedge $-1 -1 $-1 $97 $96 $237 $238 forward $44 $-1 #
coedge $-1 -1 $-1 $239 $240 $96 $151 reversed $224 $-1 #
edge $-1 -1 $-1 $158 -7.8739999999999997 $241 7.8739999999999997 $150 $242 forward @7 unknown #
coedge $-1 -1 $-1 $144 $243 $97 $153 reversed $93 $-1 #
edge $-1 -1 $-1 $244 -7.8739999999999997 $157 7.8739999999999997 $152 $245 forward @7 unknown #
coedge $-1 -1 $-1 $147 $98 $243 $246 forward $156 $-1 #
coedge $-1 -1 $-1 $98 $147 $239 $247 reversed $156 $-1 #
loop $-1 -1 $-1 $-1 $154 $223 #
vertex $-1 -1 $-1 $99 $248 #
vertex $-1 -1 $-1 $99 $249 #
straight-curve $-1 -1 $-1 7.8739999999999997 0 7.8739999999999997 0 1 0 I I #
face $-1 -1 $-1 $250 $251 $25 $-1 $252 forward single #
loop $-1 -1 $-1 $-1 $253 $100 #
plane-surface $-1 -1 $-1 4.8259999999999659 8.1280000000000037 2.7862923991091333 0.50000000000000533 0 0.86602540378443571 0.86602540378443571 0 -0.50000000000000533 forward_v I I I I #
coedge $-1 -1 $-1 $254 $255 $256 $257 forward $101 $-1 #
coedge $-1 -1 $-1 $258 $103 $255 $259 reversed $67 $-1 #
coedge $-1 -1 $-1 $103 $258 $104 $169 forward $67 $-1 #
coedge $-1 -1 $-1 $106 $256 $103 $167 reversed $173 $-1 #
edge $-1 -1 $-1 $175 -4.1794385986637161 $260 1.3931461995545429 $103 $261 forward @7 unknown #
coedge $-1 -1 $-1 $105 $104 $262 $263 reversed $47 $-1 #
edge $264 -1 $-1 $265 0 $175 4.5719999999999992 $165 $266 forward @7 unknown #
coedge $-1 -1 $-1 $267 $268 $105 $171 reversed $269 $-1 #
edge $-1 -1 $-1 $270 0 $174 4.5719999999999992 $105 $271 forward @7 unknown #
coedge $-1 -1 $-1 $272 $106 $268 $273 reversed $173 $-1 #
loop $-1 -1 $-1 $-1 $106 $274 #
vertex $-1 -1 $-1 $171 $275 #
vertex $-1 -1 $-1 $169 $276 #
straight-curve $-1 -1 $-1 -1.2065000000000103 12.700000000000006 -4.8760116984409976 0.86602540378443871 0 -0.5 I I #
face $-1 -1 $-1 $277 $278 $27 $-1 $279 forward single #
loop $-1 -1 $-1 $-1 $280 $108 #
coedge $-1 -1 $-1 $281 $282 $280 $283 forward $109 $-1 #
coedge $-1 -1 $-1 $284 $110 $285 $286 reversed $71 $-1 #
coedge $-1 -1 $-1 $110 $284 $112 $188 forward $71 $-1 #
coedge $-1 -1 $-1 $287 $288 $110 $183 forward $289 $-1 #
edge $-1 -1 $-1 $290 -3.1415926535897931 $291 -1.5707963267948966 $182 $292 forward @7 unknown #
coedge $-1 -1 $-1 $112 $111 $293 $294 reversed $50 $-1 #
coedge $-1 -1 $-1 $282 $281 $295 $186 reversed $109 $-1 #
edge $-1 -1 $-1 $192 -25.399999999999999 $296 7.1054273576010019e-015 $295 $297 forward @7 unknown #
coedge $-1 -1 $-1 $298 $299 $300 $188 forward $301 $-1 #
edge $-1 -1 $-1 $193 -25.399999999999999 $291 7.1054273576010019e-015 $187 $302 forward @7 unknown #
coedge $-1 -1 $-1 $190 $113 $299 $303 reversed $191 $-1 #
coedge $-1 -1 $-1 $113 $189 $304 $305 forward $191 $-1 #
loop $-1 -1 $-1 $-1 $113 $306 #
vertex $-1 -1 $-1 $307 $308 #
vertex $-1 -1 $-1 $309 $310 #
ellipse-curve $-1 -1 $-1 -2.952082130906877e-032 12.700000000000003 0 0 -1 0 7.8739999999999997 0 0 1 I I #
loop $-1 -1 $-1 $311 $312 $115 #
plane-surface $-1 -1 $-1 -0.51012330198537059 6.3500000000000014 5.5511151231257827e-017 4.6086665670342156e-032 1 -3.8405554725285128e-033 0 3.8405554725285128e-033 1 forward_v I I I I #
loop $-1 -1 $-1 $-1 $121 $73 #
coedge $-1 -1 $-1 $198 $198 $119 $200 reversed $116 $-1 #
coedge $-1 -1 $-1 $199 $199 $312 $313 reversed $118 $-1 #
edge $-1 -1 $-1 $314 -3.1415926535897931 $314 3.1415926535897931 $119 $315 forward @7 unknown #
coedge $-1 -1 $-1 $201 $201 $120 $202 forward $311 $-1 #
edge $316 -1 $-1 $317 0 $317 6.2831853071795862 $120 $318 forward @7 unknown #
vertex $-1 -1 $-1 $122 $319 #
ellipse-curve $-1 -1 $-1 0 -12.699999999999989 0 0 -1 0 3.1749999999999998 0 0 1 I I #
model_id-kcp-attrib $-1 -1 $-1 $-1 $124 1 1021487353 1021487353 -1022164991 7 #
face $320 -1 $-1 $321 $322 $9 $-1 $323 forward single #
loop $-1 -1 $-1 $324 $325 $124 #
plane-surface $-1 -1 $-1 0 0 0 0 1 0 25.399999999999999 0 0 forward_v I I I I #
coedge $-1 -1 $-1 $326 $327 $328 $329 forward $125 $-1 #
coedge $-1 -1 $-1 $131 $131 $133 $218 forward $127 $-1 #
coedge $-1 -1 $-1 $128 $128 $330 $331 reversed $80 $-1 #
coedge $-1 -1 $-1 $327 $326 $128 $213 reversed $125 $-1 #
edge $332 -1 $-1 $333 0 $334 3.1415926535897931 $128 $335 forward @7 unknown #
attrib_edge_convexity-kcp-attrib $-1 -1 $336 $-1 $132 2 #
vertex $-1 -1 $-1 $135 $337 #
vertex $-1 -1 $-1 $218 $338 #
ellipse-curve $-1 -1 $-1 0 -6.3499999999999996 0 0 -1 0 3.1749999999999998 0 0 1 I I #
edge $339 -1 $-1 $215 0 $216 3.1415926535897931 $133 $340 forward @7 unknown #
straight-curve $-1 -1 $-1 -3.1749999999999998 -25.399999999999991 3.8881251733860477e-016 0 25.399999999999999 0 I I #
straight-curve $-1 -1 $-1 3.1749999999999998 -25.399999999999991 0 0 25.399999999999999 0 I I #
convexity-sys-attrib $-1 -1 $-1 $136 $86 #
model_id-kcp-attrib $-1 -1 $-1 $-1 $141 1 1021487353 1021487353 -1022164990 3 #
face $-1 -1 $-1 $-1 $156 $23 $-1 $341 reversed single #
loop $-1 -1 $-1 $-1 $239 $141 #
plane-surface $-1 -1 $-1 0 12.700000000000003 0 0 -1 0 0 0 -1 forward_v I I I I #
coedge $-1 -1 $-1 $342 $237 $240 $343 forward $142 $-1 #
coedge $-1 -1 $-1 $243 $144 $145 $231 reversed $93 $-1 #
coedge $-1 -1 $-1 $237 $342 $144 $229 reversed $142 $-1 #
edge $-1 -1 $-1 $244 -7.8739999999999997 $344 7.8739999999999997 $228 $345 forward @7 unknown #
coedge $-1 -1 $-1 $146 $145 $342 $346 forward $63 $-1 #
edge $-1 -1 $-1 $235 -7.8739999999999997 $344 7.8739999999999997 $227 $347 forward @7 unknown #
coedge $-1 -1 $-1 $240 $239 $146 $233 reversed $224 $-1 #
edge $-1 -1 $-1 $348 -7.8739999999999997 $234 7.8739999999999997 $232 $349 forward @7 unknown #
vertex $-1 -1 $-1 $148 $350 #
vertex $-1 -1 $-1 $246 $351 #
straight-curve $-1 -1 $-1 7.8739999999999997 0 -7.8739999999999997 0 -1 0 I I #
coedge $-1 -1 $-1 $226 $228 $149 $238 reversed $142 $-1 #
edge $-1 -1 $-1 $241 -12.700000000000003 $244 12.700000000000003 $237 $352 forward @7 unknown #
coedge $-1 -1 $-1 $232 $150 $155 $247 forward $224 $-1 #
coedge $-1 -1 $-1 $150 $232 $226 $343 reversed $224 $-1 #
vertex $-1 -1 $-1 $151 $353 #
straight-curve $-1 -1 $-1 0 12.700000000000003 7.8739999999999997 -1 0 0 I I #
coedge $-1 -1 $-1 $152 $227 $154 $246 reversed $93 $-1 #
vertex $-1 -1 $-1 $238 $354 #
straight-curve $-1 -1 $-1 0 -12.700000000000003 7.8739999999999997 1 0 0 I I #
edge $-1 -1 $-1 $157 -7.8739999999999997 $235 7.8739999999999997 $154 $355 forward @7 unknown #
edge $-1 -1 $-1 $158 -7.8739999999999997 $234 7.8739999999999997 $155 $356 forward @7 unknown #
point $-1 -1 $-1 7.8739999999999997 -12.700000000000003 7.8739999999999997 #
point $-1 -1 $-1 7.8739999999999997 12.700000000000003 7.8739999999999997 #
face $-1 -1 $-1 $274 $269 $25 $-1 $357 forward single #
loop $-1 -1 $-1 $-1 $358 $160 #
plane-surface $-1 -1 $-1 0 8.1280000000000037 5.5725847982182861 -0.50000000000000255 0 0.86602540378443715 0.86602540378443715 0 0.50000000000000255 forward_v I I I I #
coedge $-1 -1 $-1 $359 $360 $361 $362 forward $161 $-1 #
coedge $-1 -1 $-1 $363 $163 $360 $364 reversed $101 $-1 #
coedge $-1 -1 $-1 $163 $363 $164 $259 forward $101 $-1 #
coedge $-1 -1 $-1 $166 $361 $163 $257 reversed $173 $-1 #
edge $-1 -1 $-1 $260 -4.1794385986636797 $365 1.3931461995545666 $163 $366 forward @7 unknown #
coedge $-1 -1 $-1 $165 $164 $367 $368 reversed $67 $-1 #
edge $-1 -1 $-1 $369 0 $260 4.5719999999999992 $255 $370 forward @7 unknown #
vertex $-1 -1 $-1 $259 $371 #
straight-curve $-1 -1 $-1 3.6194999999999937 12.700000000000006 -3.4828654988863961 0.86602540378443416 0 0.50000000000000799 I I #
coedge $-1 -1 $-1 $367 $372 $168 $263 forward $373 $-1 #
edge $374 -1 $-1 $270 -4.1794385986636886 $265 1.3931461995545786 $168 $375 forward @7 unknown #
convexity-sys-attrib $-1 -1 $-1 $-1 $169 #
vertex $-1 -1 $-1 $263 $376 #
straight-curve $-1 -1 $-1 0 8.1280000000000037 -5.572584798218287 0 1 0 I I #
coedge $-1 -1 $-1 $377 $170 $372 $378 reversed $269 $-1 #
coedge $-1 -1 $-1 $170 $377 $172 $273 forward $269 $-1 #
loop $-1 -1 $-1 $-1 $268 $250 #
vertex $-1 -1 $-1 $378 $379 #
straight-curve $-1 -1 $-1 -4.8259999999999996 8.1280000000000037 -2.7862923991091528 0 1 0 I I #
coedge $-1 -1 $-1 $361 $172 $358 $380 reversed $173 $-1 #
edge $-1 -1 $-1 $381 -4.1794385986637099 $174 1.3931461995545764 $268 $382 forward @7 unknown #
face $-1 -1 $-1 $383 $173 $25 $-1 $384 forward single #
point $-1 -1 $-1 -4.8259999999999996 12.700000000000003 -2.7862923991091528 #
point $-1 -1 $-1 0 12.700000000000003 -5.572584798218287 #
face $-1 -1 $-1 $385 $386 $27 $-1 $387 reversed single #
loop $-1 -1 $-1 $-1 $300 $177 #
plane-surface $-1 -1 $-1 0 0 7.8739999999999997 0 0 1 1 0 0 forward_v I I I I #
coedge $-1 -1 $-1 $388 $389 $390 $283 reversed $178 $-1 #
coedge $-1 -1 $-1 $185 $179 $391 $392 reversed $109 $-1 #
coedge $-1 -1 $-1 $179 $185 $393 $394 reversed $109 $-1 #
edge $-1 -1 $-1 $395 -25.399999999999999 $396 7.1054273576010019e-015 $390 $397 forward @7 unknown #
coedge $-1 -1 $-1 $181 $180 $398 $399 reversed $71 $-1 #
coedge $-1 -1 $-1 $400 $401 $402 $286 forward $403 $-1 #
edge $-1 -1 $-1 $404 -25.399999999999999 $290 7.1054273576010019e-015 $285 $405 forward @7 unknown #
coedge $-1 -1 $-1 $288 $182 $406 $407 reversed $289 $-1 #
coedge $-1 -1 $-1 $182 $287 $400 $408 forward $289 $-1 #
loop $-1 -1 $-1 $-1 $182 $409 #
vertex $-1 -1 $-1 $410 $411 #
vertex $-1 -1 $-1 $412 $413 #
ellipse-curve $-1 -1 $-1 -2.952082130906877e-032 -12.700000000000003 0 0 1 0 7.8739999999999997 0 0 1 I I #
coedge $-1 -1 $-1 $414 $415 $184 $294 forward $416 $-1 #
edge $-1 -1 $-1 $291 -1.5707963267948966 $296 0 $293 $292 forward @7 unknown #
coedge $-1 -1 $-1 $417 $418 $419 $186 forward $386 $-1 #
vertex $-1 -1 $-1 $420 $421 #
straight-curve $-1 -1 $-1 7.8739999999999997 -12.699999999999996 0 0 -1 0 I I #
coedge $-1 -1 $-1 $422 $187 $415 $412 forward $301 $-1 #
coedge $-1 -1 $-1 $187 $422 $189 $303 forward $301 $-1 #
coedge $-1 -1 $-1 $423 $406 $181 $188 reversed $278 $-1 #
loop $-1 -1 $-1 $-1 $187 $424 #
straight-curve $-1 -1 $-1 -2.952082130906877e-032 -12.699999999999996 7.8739999999999997 0 -1 0 I I #
edge $-1 -1 $-1 $425 -7.8739999999999997 $193 2.952082130906877e-032 $189 $426 forward @7 unknown #
coedge $-1 -1 $-1 $427 $419 $190 $305 reversed $428 $-1 #
edge $-1 -1 $-1 $425 -7.8739999999999997 $192 0 $304 $429 forward @7 unknown #
face $-1 -1 $-1 $430 $191 $27 $-1 $431 reversed single #
edge $-1 -1 $-1 $192 0 $432 7.8739999999999997 $418 $429 forward @7 unknown #
point $-1 -1 $-1 7.8739999999999997 12.700000000000003 0 #
edge $-1 -1 $-1 $193 2.952082130906877e-032 $433 7.8739999999999997 $434 $426 forward @7 unknown #
point $-1 -1 $-1 -2.952082130906877e-032 12.700000000000003 7.8739999999999997 #
loop $-1 -1 $-1 $-1 $201 $115 #
coedge $-1 -1 $-1 $312 $312 $199 $313 forward $195 $-1 #
edge $435 -1 $-1 $436 -3.1415926535897931 $436 3.1415926535897931 $199 $437 forward @7 unknown #
vertex $-1 -1 $-1 $200 $438 #
ellipse-curve $-1 -1 $-1 -2.952082130906877e-032 -12.699999999999989 0 0 1 0 7.8739999999999997 0 0 1 I I #
convexity-sys-attrib $-1 -1 $-1 $-1 $202 #
vertex $-1 -1 $-1 $202 $439 #
ellipse-curve $-1 -1 $-1 0 6.3500000000000014 0 0 -1 0 3.1749999999999998 0 0 1 I I #
point $-1 -1 $-1 -3.1749999999999998 -12.699999999999987 0 #
model_id-kcp-attrib $-1 -1 $-1 $-1 $206 1 1021487353 1021487353 -1022164991 8 #
face $440 -1 $-1 $441 $442 $9 $-1 $443 reversed single #
loop $-1 -1 $-1 $-1 $330 $206 #
cone-surface $-1 -1 $-1 0 -26.669999999999995 0 0 1 0 7.8739999999999997 0 0 1 I I 0 1 7.8739999999999997 forward I I I I #
loop $-1 -1 $-1 $-1 $444 $124 #
coedge $-1 -1 $-1 $328 $328 $445 $446 forward $207 $-1 #
coedge $-1 -1 $-1 $212 $209 $447 $448 reversed $125 $-1 #
coedge $-1 -1 $-1 $209 $212 $449 $450 forward $125 $-1 #
coedge $-1 -1 $-1 $325 $325 $209 $329 reversed $207 $-1 #
edge $-1 -1 $-1 $451 0 $452 3.1415926535897931 $328 $453 forward @7 unknown #
coedge $-1 -1 $-1 $447 $449 $211 $331 forward $322 $-1 #
edge $454 -1 $-1 $333 0 $334 3.1415926535897927 $211 $455 forward @7 unknown #
attrib_edge_convexity-kcp-attrib $-1 -1 $456 $-1 $213 1 #
vertex $-1 -1 $-1 $331 $457 #
vertex $-1 -1 $-1 $331 $458 #
ellipse-curve $-1 -1 $-1 3.5249581031848718e-016 -6.3499999999999996 -1.0574874309554614e-015 3.5813645955650209e-016 -1 4.8098146373874776e-032 7.8739999999999997 2.8199664825478975e-015 1.0574874309554614e-015 1 I I #
convexity-sys-attrib $-1 -1 $-1 $214 $132 #
point $-1 -1 $-1 3.1749999999999998 -6.349999999999997 0 #
point $-1 -1 $-1 -3.1749999999999998 -6.3499999999999996 0 #
attrib_edge_convexity-kcp-attrib $-1 -1 $459 $-1 $218 2 #
ellipse-curve $-1 -1 $-1 0 -6.3499999999999996 0 0 1 0 3.1749999999999998 0 0 1 I I #
plane-surface $-1 -1 $-1 7.8739999999999997 0 0 -1 0 0 0 0 1 forward_v I I I I #
coedge $-1 -1 $-1 $228 $226 $230 $346 reversed $142 $-1 #
edge $-1 -1 $-1 $241 -7.8739999999999997 $348 7.8739999999999997 $240 $460 forward @7 unknown #
vertex $-1 -1 $-1 $346 $461 #
straight-curve $-1 -1 $-1 -7.8739999999999997 -12.700000000000003 0 0 0 -1 I I #
edge $-1 -1 $-1 $344 -12.700000000000003 $348 12.700000000000003 $342 $462 forward @7 unknown #
straight-curve $-1 -1 $-1 0 -12.700000000000003 -7.8739999999999997 -1 0 0 I I #
vertex $-1 -1 $-1 $233 $463 #
straight-curve $-1 -1 $-1 0 12.700000000000003 -7.8739999999999997 1 0 0 I I #
point $-1 -1 $-1 7.8739999999999997 12.700000000000003 -7.8739999999999997 #
point $-1 -1 $-1 7.8739999999999997 -12.700000000000003 -7.8739999999999997 #
straight-curve $-1 -1 $-1 -7.8739999999999997 0 7.8739999999999997 0 -1 0 I I #
point $-1 -1 $-1 -7.8739999999999997 12.700000000000003 7.8739999999999997 #
point $-1 -1 $-1 -7.8739999999999997 -12.700000000000003 7.8739999999999997 #
straight-curve $-1 -1 $-1 7.8739999999999997 -12.700000000000003 0 0 0 -1 I I #
straight-curve $-1 -1 $-1 7.8739999999999997 12.700000000000003 0 0 0 -1 I I #
plane-surface $-1 -1 $-1 -4.8259999999999996 8.1280000000000037 2.7862923991091333 -1 0 0 0 0 1 forward_v I I I I #
coedge $-1 -1 $-1 $464 $465 $272 $380 forward $251 $-1 #
coedge $-1 -1 $-1 $466 $253 $465 $467 reversed $161 $-1 #
coedge $-1 -1 $-1 $253 $466 $254 $364 forward $161 $-1 #
coedge $-1 -1 $-1 $256 $272 $253 $362 reversed $173 $-1 #
edge $-1 -1 $-1 $365 -4.1794385986636691 $468 1.3931461995545795 $253 $469 forward @7 unknown #
coedge $-1 -1 $-1 $255 $254 $470 $471 reversed $101 $-1 #
edge $-1 -1 $-1 $472 0 $365 4.5719999999999992 $360 $473 forward @7 unknown #
vertex $-1 -1 $-1 $364 $474 #
straight-curve $-1 -1 $-1 4.8259999999999659 12.700000000000006 1.3931461995545666 0 0 1 I I #
coedge $-1 -1 $-1 $470 $262 $258 $368 forward $373 $-1 #
edge $475 -1 $-1 $265 -4.1794385986637153 $369 1.3931461995545427 $258 $476 forward @7 unknown #
vertex $-1 -1 $-1 $368 $477 #
straight-curve $-1 -1 $-1 4.8259999999999659 8.1280000000000037 -2.7862923991091129 0 1 0 I I #
point $-1 -1 $-1 4.8259999999999659 12.700000000000003 -2.7862923991091129 #
coedge $-1 -1 $-1 $262 $478 $267 $378 forward $373 $-1 #
loop $-1 -1 $-1 $-1 $372 $383 #
convexity-sys-attrib $-1 -1 $-1 $-1 $263 #
straight-curve $-1 -1 $-1 -1.2065000000000103 8.1280000000000072 -4.8760116984409976 0.86602540378443871 0 -0.5 I I #
point $-1 -1 $-1 0 8.1280000000000037 -5.5725847982182861 #
coedge $-1 -1 $-1 $268 $267 $464 $479 forward $269 $-1 #
edge $480 -1 $-1 $481 -4.1794385986637099 $270 1.3931461995545764 $267 $482 forward @7 unknown #
point $-1 -1 $-1 -4.8259999999999996 8.1280000000000037 -2.7862923991091528 #
edge $-1 -1 $-1 $468 -4.1794385986637241 $381 1.3931461995545527 $358 $483 forward @7 unknown #
vertex $-1 -1 $-1 $479 $484 #
straight-curve $-1 -1 $-1 -4.8259999999999996 12.700000000000006 -1.3931461995545764 0 0 -1 I I #
face $-1 -1 $-1 $-1 $373 $25 $-1 $485 reversed single #
plane-surface $-1 -1 $-1 -1.9595436384634013e-014 12.700000000000008 0 -3.518915242527383e-031 1 -1.0546604761465176e-031 0 1.0546604761465176e-031 1 forward_v I I I I #
face $-1 -1 $-1 $486 $487 $27 $-1 $488 reversed single #
loop $-1 -1 $-1 $-1 $295 $277 #
plane-surface $-1 -1 $-1 7.8739999999999997 0 0 -1 0 0 0 0 1 forward_v I I I I #
coedge $-1 -1 $-1 $489 $280 $490 $491 reversed $178 $-1 #
coedge $-1 -1 $-1 $280 $489 $492 $493 reversed $178 $-1 #
coedge $-1 -1 $-1 $494 $495 $496 $283 forward $497 $-1 #
coedge $-1 -1 $-1 $498 $499 $281 $392 forward $500 $-1 #
edge $-1 -1 $-1 $296 0 $396 1.5707963267948966 $391 $292 forward @7 unknown #
coedge $-1 -1 $-1 $501 $502 $282 $394 forward $503 $-1 #
edge $-1 -1 $-1 $395 -1.5707963267948966 $192 0 $393 $194 forward @7 unknown #
vertex $-1 -1 $-1 $504 $505 #
vertex $-1 -1 $-1 $506 $507 #
straight-curve $-1 -1 $-1 -2.952082130906877e-032 -12.699999999999996 -7.8739999999999997 0 -1 0 I I #
coedge $-1 -1 $-1 $508 $434 $284 $399 forward $509 $-1 #
edge $-1 -1 $-1 $193 1.5707963267948966 $404 3.1415926535897931 $398 $194 forward @7 unknown #
coedge $-1 -1 $-1 $510 $285 $288 $408 reversed $403 $-1 #
coedge $-1 -1 $-1 $285 $510 $508 $511 forward $403 $-1 #
coedge $-1 -1 $-1 $512 $513 $489 $286 reversed $487 $-1 #
loop $-1 -1 $-1 $-1 $285 $514 #
vertex $-1 -1 $-1 $515 $516 #
straight-curve $-1 -1 $-1 -7.8739999999999997 -12.699999999999996 0 0 -1 0 I I #
coedge $-1 -1 $-1 $300 $517 $287 $407 forward $278 $-1 #
edge $-1 -1 $-1 $518 -7.8739999999999997 $291 -2.952082130906877e-032 $287 $519 forward @7 unknown #
edge $-1 -1 $-1 $518 -7.8739999999999997 $290 0 $400 $520 forward @7 unknown #
face $-1 -1 $-1 $521 $289 $27 $-1 $522 reversed single #
edge $-1 -1 $-1 $290 0 $523 7.8739999999999997 $513 $520 forward @7 unknown #
point $-1 -1 $-1 -7.8739999999999997 -12.700000000000003 0 #
edge $-1 -1 $-1 $291 -2.952082130906877e-032 $524 7.8739999999999997 $415 $519 forward @7 unknown #
point $-1 -1 $-1 -2.952082130906877e-032 -12.700000000000003 7.8739999999999997 #
coedge $-1 -1 $-1 $415 $293 $525 $526 reversed $416 $-1 #
coedge $-1 -1 $-1 $293 $414 $298 $412 reversed $416 $-1 #
loop $-1 -1 $-1 $-1 $293 $521 #
coedge $-1 -1 $-1 $527 $295 $499 $420 forward $386 $-1 #
coedge $-1 -1 $-1 $295 $527 $501 $307 reversed $386 $-1 #
coedge $-1 -1 $-1 $304 $525 $111 $186 reversed $428 $-1 #
edge $-1 -1 $-1 $296 0 $528 7.8739999999999997 $417 $529 forward @7 unknown #
point $-1 -1 $-1 7.8739999999999997 -12.700000000000003 0 #
coedge $-1 -1 $-1 $299 $298 $427 $530 forward $301 $-1 #
coedge $-1 -1 $-1 $517 $300 $434 $309 forward $278 $-1 #
face $-1 -1 $-1 $531 $301 $27 $-1 $279 forward single #
vertex $-1 -1 $-1 $530 $532 #
straight-curve $-1 -1 $-1 0 12.700000000000003 7.8739999999999997 -1 0 0 I I #
coedge $-1 -1 $-1 $525 $304 $422 $530 reversed $428 $-1 #
loop $-1 -1 $-1 $-1 $419 $533 #
straight-curve $-1 -1 $-1 7.8739999999999997 12.700000000000003 0 0 0 -1 I I #
face $-1 -1 $-1 $534 $509 $27 $-1 $431 reversed single #
plane-surface $-1 -1 $-1 0 12.700000000000003 0 0 -1 0 0 0 -1 forward_v I I I I #
vertex $-1 -1 $-1 $535 $536 #
vertex $-1 -1 $-1 $309 $537 #
coedge $-1 -1 $-1 $398 $508 $423 $309 reversed $509 $-1 #
convexity-sys-attrib $-1 -1 $-1 $-1 $313 #
vertex $-1 -1 $-1 $313 $538 #
ellipse-curve $-1 -1 $-1 -2.952082130906877e-032 6.3500000000000014 0 0 1 0 7.8739999999999997 0 0 1 I I #
point $-1 -1 $-1 -7.8739999999999997 -12.699999999999989 9.6425504299973975e-016 #
point $-1 -1 $-1 3.1749999999999998 6.3500000000000059 0 #
model_id-kcp-attrib $-1 -1 $-1 $-1 $321 1 1021487353 1021487353 -1022164991 9 #
face $539 -1 $-1 $540 $541 $9 $-1 $542 reversed single #
loop $-1 -1 $-1 $-1 $543 $321 #
plane-surface $-1 -1 $-1 -4.8259999999999996 0 -2.7862923991091528 -1 0 0 0 0 25.399999999999999 forward_v I I I I #
coedge $-1 -1 $-1 $544 $545 $546 $547 reversed $324 $-1 #
coedge $-1 -1 $-1 $449 $447 $325 $446 reversed $322 $-1 #
edge $-1 -1 $-1 $451 0 $452 3.1415926535897931 $445 $548 forward @7 unknown #
coedge $-1 -1 $-1 $445 $330 $326 $448 forward $322 $-1 #
edge $-1 -1 $-1 $334 0 $452 0.24999999999999989 $447 $549 forward @7 unknown #
coedge $-1 -1 $-1 $330 $445 $327 $450 reversed $322 $-1 #
edge $-1 -1 $-1 $333 0 $451 0.24999999999999989 $449 $550 forward @7 unknown #
vertex $-1 -1 $-1 $450 $551 #
vertex $-1 -1 $-1 $446 $552 #
ellipse-curve $-1 -1 $-1 0 0 0 0 -1 0 7.8739999999999997 0 0 1 I I #
attrib_edge_convexity-kcp-attrib $-1 -1 $553 $-1 $331 1 #
ellipse-curve $-1 -1 $-1 3.5249581031848718e-016 -6.3499999999999996 1.0574874309554614e-015 -3.5813645955650209e-016 1 4.8098146373874776e-032 7.8739999999999997 2.8199664825478975e-015 -1.0574874309554614e-015 1 I I #
convexity-sys-attrib $-1 -1 $-1 $332 $213 #
point $-1 -1 $-1 7.8739999999999997 -6.349999999999997 0 #
point $-1 -1 $-1 -7.8739999999999997 -6.349999999999997 -9.6425504299973975e-016 #
convexity-sys-attrib $-1 -1 $-1 $339 $218 #
straight-curve $-1 -1 $-1 -7.8739999999999997 12.700000000000003 0 0 0 -1 I I #
point $-1 -1 $-1 -7.8739999999999997 -12.700000000000003 -7.8739999999999997 #
straight-curve $-1 -1 $-1 -7.8739999999999997 0 -7.8739999999999997 0 1 0 I I #
point $-1 -1 $-1 -7.8739999999999997 12.700000000000003 -7.8739999999999997 #
coedge $-1 -1 $-1 $554 $358 $377 $479 reversed $251 $-1 #
coedge $-1 -1 $-1 $358 $554 $359 $467 forward $251 $-1 #
coedge $-1 -1 $-1 $360 $359 $555 $556 reversed $161 $-1 #
edge $-1 -1 $-1 $557 0 $468 4.5719999999999992 $465 $558 forward @7 unknown #
vertex $-1 -1 $-1 $467 $559 #
straight-curve $-1 -1 $-1 1.2065000000000066 12.700000000000006 4.8760116984409896 -0.86602540378443571 0 0.50000000000000533 I I #
coedge $-1 -1 $-1 $555 $367 $363 $471 forward $373 $-1 #
edge $560 -1 $-1 $369 -4.1794385986636797 $472 1.3931461995545666 $363 $561 forward @7 unknown #
vertex $-1 -1 $-1 $471 $562 #
straight-curve $-1 -1 $-1 4.8259999999999659 8.1280000000000037 2.7862923991091333 0 1 0 I I #
point $-1 -1 $-1 4.8259999999999659 12.700000000000003 2.7862923991091333 #
convexity-sys-attrib $-1 -1 $-1 $-1 $368 #
straight-curve $-1 -1 $-1 3.6194999999999937 8.1280000000000072 -3.4828654988863961 0.86602540378443416 0 0.50000000000000799 I I #
point $-1 -1 $-1 4.8259999999999659 8.1280000000000037 -2.7862923991091133 #
coedge $-1 -1 $-1 $372 $555 $554 $563 forward $373 $-1 #
edge $-1 -1 $-1 $481 0 $381 4.5719999999999992 $377 $564 forward @7 unknown #
convexity-sys-attrib $-1 -1 $-1 $-1 $378 #
vertex $-1 -1 $-1 $378 $565 #
straight-curve $-1 -1 $-1 -4.8259999999999996 8.1280000000000072 -1.3931461995545764 0 0 -1 I I #
straight-curve $-1 -1 $-1 -3.6195000000000142 12.700000000000006 3.4828654988864134 -0.86602540378443715 0 -0.50000000000000255 I I #
point $-1 -1 $-1 -4.8259999999999996 12.700000000000003 2.7862923991091333 #
plane-surface $-1 -1 $-1 -1.9595436384634013e-014 8.128000000000009 0 -3.518915242527383e-031 1 -1.0546604761465176e-031 0 1.0546604761465176e-031 1 forward_v I I I I #
face $-1 -1 $-1 $409 $566 $27 $-1 $522 reversed single #
loop $-1 -1 $-1 $-1 $402 $385 #
plane-surface $-1 -1 $-1 -7.8739999999999997 0 0 1 0 0 0 0 -1 forward_v I I I I #
coedge $-1 -1 $-1 $389 $388 $180 $286 forward $178 $-1 #
coedge $-1 -1 $-1 $567 $568 $388 $491 forward $569 $-1 #
edge $-1 -1 $-1 $404 -3.1415926535897931 $395 -1.5707963267948966 $490 $194 forward @7 unknown #
coedge $-1 -1 $-1 $570 $571 $389 $493 forward $566 $-1 #
edge $-1 -1 $-1 $396 1.5707963267948966 $290 3.1415926535897931 $492 $292 forward @7 unknown #
coedge $-1 -1 $-1 $572 $390 $571 $506 forward $497 $-1 #
coedge $-1 -1 $-1 $390 $572 $567 $573 forward $497 $-1 #
coedge $-1 -1 $-1 $574 $575 $179 $283 reversed $576 $-1 #
loop $-1 -1 $-1 $-1 $390 $531 #
coedge $-1 -1 $-1 $499 $391 $575 $577 reversed $500 $-1 #
coedge $-1 -1 $-1 $391 $498 $417 $420 reversed $500 $-1 #
loop $-1 -1 $-1 $-1 $391 $578 #
coedge $-1 -1 $-1 $502 $393 $418 $307 forward $503 $-1 #
coedge $-1 -1 $-1 $393 $501 $574 $504 reversed $503 $-1 #
loop $-1 -1 $-1 $-1 $393 $579 #
edge $-1 -1 $-1 $395 -2.952082130906877e-032 $432 7.8739999999999997 $502 $580 forward @7 unknown #
point $-1 -1 $-1 -2.952082130906877e-032 12.700000000000003 -7.8739999999999997 #
edge $-1 -1 $-1 $396 2.952082130906877e-032 $523 7.8739999999999997 $571 $581 forward @7 unknown #
point $-1 -1 $-1 -2.952082130906877e-032 -12.700000000000003 -7.8739999999999997 #
coedge $-1 -1 $-1 $434 $398 $401 $511 reversed $509 $-1 #
loop $-1 -1 $-1 $-1 $398 $430 #
coedge $-1 -1 $-1 $401 $400 $517 $582 reversed $403 $-1 #
edge $-1 -1 $-1 $433 -7.8739999999999997 $404 0 $508 $583 forward @7 unknown #
coedge $-1 -1 $-1 $584 $402 $568 $515 forward $487 $-1 #
coedge $-1 -1 $-1 $402 $584 $570 $410 reversed $487 $-1 #
face $-1 -1 $-1 $533 $403 $27 $-1 $488 reversed single #
edge $-1 -1 $-1 $404 0 $585 7.8739999999999997 $568 $583 forward @7 unknown #
point $-1 -1 $-1 -7.8739999999999997 12.700000000000003 0 #
coedge $-1 -1 $-1 $406 $423 $510 $582 forward $278 $-1 #
vertex $-1 -1 $-1 $582 $586 #
straight-curve $-1 -1 $-1 0 -12.700000000000003 7.8739999999999997 1 0 0 I I #
straight-curve $-1 -1 $-1 -7.8739999999999997 -12.700000000000003 0 0 0 -1 I I #
face $-1 -1 $-1 $578 $416 $27 $-1 $522 reversed single #
plane-surface $-1 -1 $-1 0 -12.700000000000003 0 0 1 0 0 0 1 forward_v I I I I #
vertex $-1 -1 $-1 $587 $588 #
vertex $-1 -1 $-1 $530 $589 #
coedge $-1 -1 $-1 $419 $427 $414 $526 forward $428 $-1 #
edge $-1 -1 $-1 $524 -7.8739999999999997 $296 0 $525 $529 forward @7 unknown #
coedge $-1 -1 $-1 $418 $417 $590 $535 reversed $386 $-1 #
vertex $-1 -1 $-1 $420 $591 #
straight-curve $-1 -1 $-1 7.8739999999999997 -12.700000000000003 0 0 0 -1 I I #
edge $-1 -1 $-1 $524 -12.700000000000003 $425 12.700000000000003 $427 $592 forward @7 unknown #
face $-1 -1 $-1 $514 $497 $27 $-1 $593 reversed single #
point $-1 -1 $-1 7.8739999999999997 12.700000000000003 7.8739999999999997 #
face $-1 -1 $-1 $-1 $428 $27 $-1 $387 reversed single #
face $-1 -1 $-1 $594 $569 $27 $-1 $431 reversed single #
edge $-1 -1 $-1 $432 -12.700000000000003 $528 12.700000000000003 $527 $595 forward @7 unknown #
point $-1 -1 $-1 7.8739999999999997 12.700000000000003 -7.8739999999999997 #
point $-1 -1 $-1 -7.8739999999999997 12.700000000000003 7.8739999999999997 #
point $-1 -1 $-1 -7.8739999999999997 6.3500000000000014 9.6425504299973975e-016 #
model_id-kcp-attrib $-1 -1 $-1 $-1 $441 1 1021487353 1021487353 -1022164991 10 #
face $596 -1 $-1 $597 $598 $9 $-1 $599 reversed single #
loop $-1 -1 $-1 $-1 $600 $441 #
plane-surface $-1 -1 $-1 -4.8259999999999996 0 2.7862923991091333 -0.50000000000000255 0 0.86602540378443715 21.997045256124704 0 12.700000000000065 forward_v I I I I #
coedge $-1 -1 $-1 $601 $546 $602 $603 forward $442 $-1 #
coedge $-1 -1 $-1 $604 $444 $605 $606 reversed $324 $-1 #
coedge $-1 -1 $-1 $444 $607 $608 $609 reversed $324 $-1 #
coedge $-1 -1 $-1 $543 $610 $444 $547 forward $442 $-1 #
edge $-1 -1 $-1 $611 0 $612 0.21939310229205852 $444 $613 forward @7 unknown #
ellipse-curve $-1 -1 $-1 0 0 0 0 1 0 7.8739999999999997 0 0 1 I I #
straight-curve $-1 -1 $-1 -7.8739999999999997 -6.349999999999997 9.6425504299973975e-016 0 25.399999999999999 0 I I #
straight-curve $-1 -1 $-1 7.8739999999999997 -6.349999999999997 0 0 25.399999999999999 0 I I #
point $-1 -1 $-1 7.8739999999999997 0 0 #
point $-1 -1 $-1 -7.8739999999999997 0 0 #
convexity-sys-attrib $-1 -1 $-1 $454 $331 #
coedge $-1 -1 $-1 $465 $464 $478 $563 reversed $251 $-1 #
coedge $-1 -1 $-1 $478 $470 $466 $556 forward $373 $-1 #
edge $614 -1 $-1 $472 -4.1794385986636691 $557 1.3931461995545795 $466 $615 forward @7 unknown #
vertex $-1 -1 $-1 $556 $616 #
straight-curve $-1 -1 $-1 0 8.1280000000000037 5.5725847982182861 0 1 0 I I #
point $-1 -1 $-1 0 12.700000000000003 5.5725847982182861 #
convexity-sys-attrib $-1 -1 $-1 $-1 $471 #
straight-curve $-1 -1 $-1 4.8259999999999659 8.1280000000000072 1.3931461995545666 0 0 1 I I #
point $-1 -1 $-1 4.8259999999999659 8.1280000000000037 2.7862923991091333 #
edge $617 -1 $-1 $557 -4.1794385986637241 $481 1.3931461995545527 $554 $618 forward @7 unknown #
straight-curve $-1 -1 $-1 -4.8259999999999996 8.1280000000000037 2.7862923991091333 0 1 0 I I #
point $-1 -1 $-1 -4.8259999999999996 8.1280000000000037 2.7862923991091333 #
loop $-1 -1 $-1 $-1 $492 $486 #
coedge $-1 -1 $-1 $568 $490 $495 $573 reversed $569 $-1 #
coedge $-1 -1 $-1 $490 $567 $512 $515 reversed $569 $-1 #
loop $-1 -1 $-1 $-1 $490 $534 #
coedge $-1 -1 $-1 $571 $492 $513 $410 forward $566 $-1 #
coedge $-1 -1 $-1 $492 $570 $494 $506 reversed $566 $-1 #
coedge $-1 -1 $-1 $495 $494 $584 $587 forward $497 $-1 #
edge $-1 -1 $-1 $585 -7.8739999999999997 $395 -2.952082130906877e-032 $567 $580 forward @7 unknown #
coedge $-1 -1 $-1 $590 $496 $502 $504 forward $576 $-1 #
coedge $-1 -1 $-1 $496 $590 $498 $577 forward $576 $-1 #
loop $-1 -1 $-1 $-1 $496 $594 #
edge $-1 -1 $-1 $528 -7.8739999999999997 $396 2.952082130906877e-032 $498 $581 forward @7 unknown #
face $-1 -1 $-1 $579 $500 $27 $-1 $522 reversed single #
face $-1 -1 $-1 $306 $503 $27 $-1 $431 reversed single #
straight-curve $-1 -1 $-1 0 12.700000000000003 -7.8739999999999997 1 0 0 I I #
straight-curve $-1 -1 $-1 0 -12.700000000000003 -7.8739999999999997 -1 0 0 I I #
edge $-1 -1 $-1 $433 -12.700000000000003 $518 12.700000000000003 $510 $619 forward @7 unknown #
straight-curve $-1 -1 $-1 -7.8739999999999997 12.700000000000003 0 0 0 -1 I I #
coedge $-1 -1 $-1 $513 $512 $572 $587 reversed $487 $-1 #
vertex $-1 -1 $-1 $573 $620 #
point $-1 -1 $-1 -7.8739999999999997 -12.700000000000003 7.8739999999999997 #
edge $-1 -1 $-1 $523 -12.700000000000003 $585 12.700000000000003 $584 $621 forward @7 unknown #
point $-1 -1 $-1 -7.8739999999999997 -12.700000000000003 -7.8739999999999997 #
point $-1 -1 $-1 7.8739999999999997 -12.700000000000003 7.8739999999999997 #
coedge $-1 -1 $-1 $575 $574 $527 $535 forward $576 $-1 #
point $-1 -1 $-1 7.8739999999999997 -12.700000000000003 -7.8739999999999997 #
straight-curve $-1 -1 $-1 7.8739999999999997 0 7.8739999999999997 0 1 0 I I #
plane-surface $-1 -1 $-1 0 0 -7.8739999999999997 0 0 1 1 0 0 forward_v I I I I #
face $-1 -1 $-1 $424 $576 $27 $-1 $593 reversed single #
straight-curve $-1 -1 $-1 7.8739999999999997 0 -7.8739999999999997 0 -1 0 I I #
model_id-kcp-attrib $-1 -1 $-1 $-1 $540 1 1021487353 1021487353 -1022164991 11 #
face $622 -1 $-1 $623 $624 $9 $-1 $625 reversed single #
loop $-1 -1 $-1 $-1 $626 $540 #
plane-surface $-1 -1 $-1 0 0 5.5725847982182861 0.50000000000000533 0 0.86602540378443571 21.997045256124665 0 -12.700000000000133 forward_v I I I I #
coedge $-1 -1 $-1 $627 $608 $628 $629 forward $541 $-1 #
coedge $-1 -1 $-1 $610 $543 $630 $631 reversed $442 $-1 #
coedge $-1 -1 $-1 $608 $627 $543 $603 reversed $541 $-1 #
edge $-1 -1 $-1 $612 0 $632 0.17999999999999997 $602 $633 forward @7 unknown #
coedge $-1 -1 $-1 $634 $544 $635 $636 reversed $324 $-1 #
coedge $-1 -1 $-1 $637 $638 $544 $606 forward $639 $-1 #
edge $-1 -1 $-1 $640 0 $611 0.21939310229205775 $544 $641 forward @7 unknown #
coedge $-1 -1 $-1 $545 $634 $642 $643 reversed $324 $-1 #
coedge $-1 -1 $-1 $600 $602 $545 $609 forward $541 $-1 #
edge $-1 -1 $-1 $612 0 $644 0.21939310229205813 $545 $645 forward @7 unknown #
coedge $-1 -1 $-1 $546 $601 $637 $646 reversed $442 $-1 #
vertex $-1 -1 $-1 $606 $647 #
vertex $-1 -1 $-1 $609 $648 #
straight-curve $-1 -1 $-1 -4.8259999999999996 0 -2.7862923991091528 0 0 25.399999999999999 I I #
convexity-sys-attrib $-1 -1 $-1 $-1 $556 #
straight-curve $-1 -1 $-1 1.2065000000000066 8.1280000000000072 4.8760116984409896 -0.86602540378443571 0 0.50000000000000533 I I #
point $-1 -1 $-1 0 8.1280000000000037 5.5725847982182861 #
convexity-sys-attrib $-1 -1 $-1 $-1 $563 #
straight-curve $-1 -1 $-1 -3.6195000000000142 8.1280000000000072 3.4828654988864134 -0.86602540378443715 0 -0.50000000000000255 I I #
straight-curve $-1 -1 $-1 -7.8739999999999997 0 7.8739999999999997 0 -1 0 I I #
point $-1 -1 $-1 -7.8739999999999997 12.700000000000003 -7.8739999999999997 #
straight-curve $-1 -1 $-1 -7.8739999999999997 0 -7.8739999999999997 0 1 0 I I #
model_id-kcp-attrib $-1 -1 $-1 $-1 $597 1 1021487353 1021487353 -1022164991 12 #
face $649 -1 $-1 $650 $651 $9 $-1 $652 reversed single #
loop $-1 -1 $-1 $-1 $653 $597 #
plane-surface $-1 -1 $-1 4.8259999999999659 0 2.7862923991091333 1 0 0 0 0 -25.399999999999999 forward_v I I I I #
coedge $-1 -1 $-1 $654 $642 $655 $656 forward $598 $-1 #
coedge $-1 -1 $-1 $602 $600 $657 $658 reversed $541 $-1 #
coedge $-1 -1 $-1 $642 $654 $600 $629 reversed $598 $-1 #
edge $-1 -1 $-1 $644 0 $659 0.17999999999999997 $600 $660 forward @7 unknown #
coedge $-1 -1 $-1 $657 $661 $601 $631 forward $662 $-1 #
edge $663 -1 $-1 $664 0 $632 0.21939310229205852 $630 $665 forward @7 unknown #
vertex $-1 -1 $-1 $658 $666 #
straight-curve $-1 -1 $-1 -4.8259999999999996 0 2.7862923991091333 0 -25.399999999999999 0 I I #
coedge $-1 -1 $-1 $607 $604 $667 $668 reversed $324 $-1 #
coedge $-1 -1 $-1 $669 $670 $604 $636 forward $651 $-1 #
edge $-1 -1 $-1 $671 0 $640 0.21939310229205736 $604 $672 forward @7 unknown #
coedge $-1 -1 $-1 $673 $605 $610 $646 forward $639 $-1 #
coedge $-1 -1 $-1 $605 $673 $669 $674 reversed $639 $-1 #
loop $-1 -1 $-1 $-1 $637 $650 #
vertex $-1 -1 $-1 $636 $675 #
straight-curve $-1 -1 $-1 0 0 -5.5725847982182861 -21.997045256124739 0 12.699999999999998 I I #
coedge $-1 -1 $-1 $626 $628 $607 $643 forward $598 $-1 #
edge $-1 -1 $-1 $644 0 $676 0.21939310229205702 $607 $677 forward @7 unknown #
vertex $-1 -1 $-1 $609 $678 #
straight-curve $-1 -1 $-1 -4.8259999999999996 0 2.7862923991091333 21.997045256124704 0 12.700000000000061 I I #
edge $-1 -1 $-1 $611 0 $664 0.17999999999999997 $637 $679 forward @7 unknown #
point $-1 -1 $-1 -4.8259999999999996 0 -2.7862923991091528 #
point $-1 -1 $-1 -4.8259999999999996 0 2.7862923991091333 #
model_id-kcp-attrib $-1 -1 $-1 $-1 $623 1 1021487353 1021487353 -1022164991 13 #
face $680 -1 $-1 $681 $639 $9 $-1 $682 reversed single #
loop $-1 -1 $-1 $-1 $669 $623 #
plane-surface $-1 -1 $-1 4.8259999999999659 0 -2.7862923991091133 0.50000000000000799 0 -0.86602540378443416 -21.997045256124622 0 -12.7000000000002 forward_v I I I I #
coedge $-1 -1 $-1 $683 $667 $670 $684 forward $624 $-1 #
coedge $-1 -1 $-1 $628 $626 $685 $686 reversed $598 $-1 #
coedge $-1 -1 $-1 $667 $683 $626 $656 reversed $624 $-1 #
edge $-1 -1 $-1 $676 0 $687 0.17999999999999997 $626 $688 forward @7 unknown #
coedge $-1 -1 $-1 $685 $630 $627 $658 forward $662 $-1 #
edge $689 -1 $-1 $632 0 $659 0.21939310229205813 $657 $690 forward @7 unknown #
vertex $-1 -1 $-1 $658 $691 #
straight-curve $-1 -1 $-1 0 0 5.5725847982182852 0 -25.399999999999999 0 I I #
coedge $-1 -1 $-1 $630 $692 $673 $693 forward $662 $-1 #
loop $-1 -1 $-1 $-1 $685 $681 #
attrib_edge_convexity-kcp-attrib $-1 -1 $694 $-1 $631 2 #
vertex $-1 -1 $-1 $631 $695 #
straight-curve $-1 -1 $-1 -4.8259999999999996 -4.5719999999999992 -2.7862923991091528 0 0 25.399999999999999 I I #
point $-1 -1 $-1 -4.8259999999999996 -4.5719999999999992 2.7862923991091333 #
coedge $-1 -1 $-1 $653 $655 $634 $668 forward $624 $-1 #
edge $-1 -1 $-1 $676 0 $671 0.21939310229205694 $634 $696 forward @7 unknown #
coedge $-1 -1 $-1 $697 $635 $638 $674 forward $651 $-1 #
coedge $-1 -1 $-1 $635 $697 $653 $684 reversed $651 $-1 #
vertex $-1 -1 $-1 $668 $698 #
straight-curve $-1 -1 $-1 4.8259999999999659 0 -2.7862923991091133 -21.997045256124622 0 -12.700000000000202 I I #
coedge $-1 -1 $-1 $638 $637 $661 $693 reversed $639 $-1 #
edge $-1 -1 $-1 $640 0 $699 0.17999999999999997 $669 $700 forward @7 unknown #
point $-1 -1 $-1 0 0 -5.5725847982182861 #
vertex $-1 -1 $-1 $643 $701 #
straight-curve $-1 -1 $-1 0 0 5.5725847982182861 21.997045256124665 0 -12.700000000000133 I I #
point $-1 -1 $-1 0 0 5.5725847982182861 #
straight-curve $-1 -1 $-1 -4.8260000000000005 0 -2.7862923991091524 0 -25.399999999999999 0 I I #
model_id-kcp-attrib $-1 -1 $-1 $-1 $650 1 1021487353 1021487353 -1022164991 14 #
face $702 -1 $-1 $-1 $662 $9 $-1 $703 forward single #
plane-surface $-1 -1 $-1 0 0 -5.5725847982182861 -0.5 0 -0.86602540378443871 -21.997045256124743 0 12.699999999999999 forward_v I I I I #
coedge $-1 -1 $-1 $655 $653 $704 $705 reversed $624 $-1 #
edge $-1 -1 $-1 $671 0 $706 0.17999999999999997 $653 $707 forward @7 unknown #
coedge $-1 -1 $-1 $704 $657 $654 $686 forward $662 $-1 #
edge $708 -1 $-1 $659 0 $687 0.21939310229205702 $685 $709 forward @7 unknown #
vertex $-1 -1 $-1 $705 $710 #
straight-curve $-1 -1 $-1 4.8259999999999659 0 2.7862923991091333 0 -25.399999999999999 0 I I #
attrib_edge_convexity-kcp-attrib $-1 -1 $711 $-1 $658 2 #
straight-curve $-1 -1 $-1 -4.8259999999999996 -4.5719999999999992 2.7862923991091333 21.997045256124704 0 12.700000000000061 I I #
point $-1 -1 $-1 0 -4.5719999999999992 5.5725847982182861 #
coedge $-1 -1 $-1 $661 $704 $697 $712 forward $662 $-1 #
edge $713 -1 $-1 $699 0 $664 0.21939310229205775 $661 $714 forward @7 unknown #
convexity-sys-attrib $-1 -1 $-1 $663 $631 #
point $-1 -1 $-1 -4.8259999999999996 -4.5719999999999992 -2.7862923991091528 #
straight-curve $-1 -1 $-1 4.8259999999999659 0 2.7862923991091333 0 0 -25.399999999999999 I I #
coedge $-1 -1 $-1 $670 $669 $692 $712 reversed $651 $-1 #
point $-1 -1 $-1 4.8259999999999659 0 -2.7862923991091133 #
vertex $-1 -1 $-1 $693 $715 #
straight-curve $-1 -1 $-1 0 0 -5.572584798218287 0 -25.399999999999999 0 I I #
point $-1 -1 $-1 4.8259999999999659 0 2.7862923991091333 #
model_id-kcp-attrib $-1 -1 $-1 $-1 $681 1 1021487353 1021487353 -1022164991 15 #
plane-surface $-1 -1 $-1 0 -4.5719999999999992 0 0 1 0 -25.399999999999999 0 0 forward_v I I I I #
coedge $-1 -1 $-1 $692 $685 $683 $705 forward $662 $-1 #
edge $716 -1 $-1 $687 0 $706 0.21939310229205694 $704 $717 forward @7 unknown #
vertex $-1 -1 $-1 $712 $718 #
straight-curve $-1 -1 $-1 4.8259999999999659 0 -2.7862923991091133 0 -25.399999999999999 0 I I #
attrib_edge_convexity-kcp-attrib $-1 -1 $719 $-1 $686 2 #
straight-curve $-1 -1 $-1 0 -4.5719999999999992 5.5725847982182861 21.997045256124665 0 -12.700000000000133 I I #
point $-1 -1 $-1 4.8259999999999659 -4.5719999999999992 2.7862923991091333 #
convexity-sys-attrib $-1 -1 $-1 $689 $658 #
edge $720 -1 $-1 $706 0 $699 0.21939310229205736 $692 $721 forward @7 unknown #
attrib_edge_convexity-kcp-attrib $-1 -1 $722 $-1 $693 2 #
straight-curve $-1 -1 $-1 0 -4.5719999999999992 -5.5725847982182861 -21.997045256124739 0 12.699999999999998 I I #
point $-1 -1 $-1 0 -4.5719999999999992 -5.5725847982182861 #
attrib_edge_convexity-kcp-attrib $-1 -1 $723 $-1 $705 2 #
straight-curve $-1 -1 $-1 4.8259999999999659 -4.5719999999999992 2.7862923991091333 0 0 -25.399999999999999 I I #
point $-1 -1 $-1 4.8259999999999659 -4.5719999999999992 -2.7862923991091133 #
convexity-sys-attrib $-1 -1 $-1 $708 $686 #
attrib_edge_convexity-kcp-attrib $-1 -1 $724 $-1 $712 2 #
straight-curve $-1 -1 $-1 4.8259999999999659 -4.5719999999999992 -2.7862923991091133 -21.997045256124622 0 -12.700000000000202 I I #
convexity-sys-attrib $-1 -1 $-1 $713 $693 #
convexity-sys-attrib $-1 -1 $-1 $716 $705 #
convexity-sys-attrib $-1 -1 $-1 $720 $712 #
End-of-ACIS-data 