600 0 1 0           
100 GICL Pro/E ACIS Translator - Source: f:/data5/repository/PTC/V18/process_mfg18/models/bolt.prt - 6 0 13 ACIS 6.0.3 NT 24 Thu Apr 04 13:30:49 2002 
1 9.9999999999999995e-007 1e-010 
body $-1 $1 $-1 $2 #
lump $-1 $-1 $3 $0 #
transform $-1 1 0 0 0 1 0 0 0 1 0 0 0 25.399999999999999 no_rotate no_reflect no_shear #
shell $-1 $-1 $-1 $4 $-1 $1 #
face $-1 $5 $6 $3 $-1 $7 reversed single #
face $-1 $8 $9 $3 $-1 $10 forward single #
loop $-1 $-1 $11 $4 #
plane-surface $-1 0 -1 0 0 1 0 1 0 0 forward_v I I I I #
face $-1 $12 $13 $3 $-1 $14 forward single #
loop $-1 $-1 $15 $5 #
cone-surface $-1 0 -1.0499999999999998 0 0 1 0 0.125 0 0 1 I I 0 1 0.125 forward I I I I #
coedge $-1 $16 $16 $15 $17 reversed $6 $-1 #
face $-1 $18 $19 $3 $-1 $20 reversed single #
loop $-1 $-1 $21 $8 #
cone-surface $-1 0 -1.0499999999999998 0 0 1 0 0.125 0 0 1 I I 0 1 0.125 forward I I I I #
coedge $-1 $22 $23 $11 $17 forward $9 $-1 #
coedge $-1 $11 $11 $24 $25 forward $6 $-1 #
edge $-1 $26 0 $27 3.1415926535897931 $11 $28 forward 7 unknown #
face $-1 $29 $30 $3 $-1 $31 forward single #
loop $-1 $32 $33 $12 #
plane-surface $-1 0 -0.25 0 0 1 0 1 0 0 forward_v I I I I #
coedge $-1 $34 $35 $36 $37 forward $13 $-1 #
coedge $-1 $38 $15 $34 $39 forward $9 $-1 #
coedge $-1 $15 $38 $35 $40 reversed $9 $-1 #
coedge $-1 $35 $34 $16 $25 reversed $13 $-1 #
edge $-1 $26 0 $27 3.1415926535897931 $16 $41 forward 7 unknown #
vertex $-1 $25 $42 #
vertex $-1 $25 $43 #
ellipse-curve $-1 -6.9388939039072284e-018 -1 0 -1.7763568394002505e-015 1 0 0.125 2.2204460492503131e-016 0 1 I I #
face $-1 $44 $45 $3 $-1 $46 forward single #
loop $-1 $-1 $47 $18 #
cone-surface $-1 0 -1.0499999999999998 0 0 1 0 0.31 0 0 1 I I 0 1 0.31 forward I I I I #
loop $-1 $-1 $48 $12 #
coedge $-1 $49 $49 $50 $51 forward $19 $-1 #
coedge $-1 $24 $21 $22 $39 reversed $13 $-1 #
coedge $-1 $21 $24 $23 $40 forward $13 $-1 #
coedge $-1 $48 $48 $21 $37 reversed $32 $-1 #
edge $-1 $52 0 $53 3.1415926535897931 $36 $54 forward 7 unknown #
coedge $-1 $23 $22 $48 $55 reversed $9 $-1 #
edge $-1 $27 0 $53 0.74999999999999978 $22 $56 forward 7 unknown #
edge $-1 $26 0 $52 0.74999999999999989 $23 $57 forward 7 unknown #
ellipse-curve $-1 -6.9388939039072284e-018 -1 0 1.7763568394002505e-015 -1 0 0.125 2.2204460492503131e-016 0 1 I I #
point $-1 0.125 -0.99999999999999978 0 #
point $-1 -0.125 -0.99999999999999978 1.5307579422779716e-017 #
face $-1 $58 $59 $3 $-1 $60 forward single #
loop $-1 $61 $62 $29 #
plane-surface $-1 0 0 0 0 1 0 1 0 0 forward_v I I I I #
coedge $-1 $63 $64 $65 $66 forward $30 $-1 #
coedge $-1 $36 $36 $38 $55 forward $32 $-1 #
coedge $-1 $33 $33 $67 $68 reversed $19 $-1 #
coedge $-1 $64 $63 $33 $51 reversed $30 $-1 #
edge $-1 $69 0 $70 3.1415926535897931 $33 $71 forward 7 unknown #
vertex $-1 $40 $72 #
vertex $-1 $55 $73 #
ellipse-curve $-1 0 -0.25 0 0 -1 0 0.125 0 0 1 I I #
edge $-1 $52 0 $53 3.1415926535897931 $38 $74 forward 7 unknown #
straight-curve $-1 -0.125 -0.99999999999999978 1.5307579422779716e-017 0 1 0 I I #
straight-curve $-1 0.125 -0.99999999999999978 0 0 1 0 I I #
face $-1 $75 $76 $3 $-1 $77 reversed single #
loop $-1 $-1 $67 $44 #
cone-surface $-1 0 -1.0499999999999998 0 0 1 0 0.31 0 0 1 I I 0 1 0.31 forward I I I I #
loop $-1 $-1 $78 $29 #
coedge $-1 $65 $65 $79 $80 forward $45 $-1 #
coedge $-1 $50 $47 $81 $82 reversed $30 $-1 #
coedge $-1 $47 $50 $83 $84 forward $30 $-1 #
coedge $-1 $62 $62 $47 $66 reversed $45 $-1 #
edge $-1 $85 0 $86 3.1415926535897931 $65 $87 forward 7 unknown #
coedge $-1 $81 $83 $49 $68 forward $59 $-1 #
edge $-1 $69 0 $70 3.1415926535897927 $49 $88 forward 7 unknown #
vertex $-1 $68 $89 #
vertex $-1 $68 $90 #
ellipse-curve $-1 1.3877787807814457e-017 -0.25 -4.163336342344337e-017 3.5813645955650209e-016 -1 4.8098146373874776e-032 0.31 1.1102230246251565e-016 4.163336342344337e-017 1 I I #
point $-1 0.125 -0.24999999999999989 0 #
point $-1 -0.125 -0.25 0 #
ellipse-curve $-1 0 -0.25 0 0 1 0 0.125 0 0 1 I I #
face $-1 $91 $92 $3 $-1 $93 reversed single #
loop $-1 $-1 $94 $58 #
plane-surface $-1 -0.19 0 -0.10969655114602965 -1 0 0 0 0 1 forward_v I I I I #
coedge $-1 $95 $96 $97 $98 reversed $61 $-1 #
coedge $-1 $83 $81 $62 $80 reversed $59 $-1 #
edge $-1 $85 0 $86 3.1415926535897931 $79 $99 forward 7 unknown #
coedge $-1 $79 $67 $63 $82 forward $59 $-1 #
edge $-1 $70 0 $86 0.24999999999999989 $81 $100 forward 7 unknown #
coedge $-1 $67 $79 $64 $84 reversed $59 $-1 #
edge $-1 $69 0 $85 0.24999999999999989 $83 $101 forward 7 unknown #
vertex $-1 $84 $102 #
vertex $-1 $80 $103 #
ellipse-curve $-1 0 0 0 0 -1 0 0.31 0 0 1 I I #
ellipse-curve $-1 1.3877787807814457e-017 -0.25 4.163336342344337e-017 -3.5813645955650209e-016 1 4.8098146373874776e-032 0.31 1.1102230246251565e-016 -4.163336342344337e-017 1 I I #
point $-1 0.31 -0.24999999999999989 0 #
point $-1 -0.31 -0.24999999999999989 -3.7962796968493693e-017 #
face $-1 $104 $105 $3 $-1 $106 reversed single #
loop $-1 $-1 $107 $75 #
plane-surface $-1 -0.19 0 0.10969655114602887 -0.50000000000000255 0 0.86602540378443715 0.86602540378443715 0 0.50000000000000255 forward_v I I I I #
coedge $-1 $108 $97 $109 $110 forward $76 $-1 #
coedge $-1 $111 $78 $112 $113 reversed $61 $-1 #
coedge $-1 $78 $114 $115 $116 reversed $61 $-1 #
coedge $-1 $94 $117 $78 $98 forward $76 $-1 #
edge $-1 $118 0 $119 0.21939310229205852 $78 $120 forward 7 unknown #
ellipse-curve $-1 0 0 0 0 1 0 0.31 0 0 1 I I #
straight-curve $-1 -0.31 -0.24999999999999989 3.7962796968493693e-017 0 1 0 I I #
straight-curve $-1 0.31 -0.24999999999999989 0 0 1 0 I I #
point $-1 0.31 0 0 #
point $-1 -0.31 0 0 #
face $-1 $121 $122 $3 $-1 $123 reversed single #
loop $-1 $-1 $124 $91 #
plane-surface $-1 0 0 0.21939310229205852 0.50000000000000533 0 0.86602540378443571 0.8660254037844356 0 -0.50000000000000522 forward_v I I I I #
coedge $-1 $125 $115 $126 $127 forward $92 $-1 #
coedge $-1 $117 $94 $128 $129 reversed $76 $-1 #
coedge $-1 $115 $125 $94 $110 reversed $92 $-1 #
edge $-1 $119 0 $130 0.17999999999999999 $109 $131 forward 7 unknown #
coedge $-1 $132 $95 $133 $134 reversed $61 $-1 #
coedge $-1 $135 $136 $95 $113 forward $137 $-1 #
edge $-1 $138 0 $118 0.21939310229205783 $95 $139 forward 7 unknown #
coedge $-1 $96 $132 $140 $141 reversed $61 $-1 #
coedge $-1 $107 $109 $96 $116 forward $92 $-1 #
edge $-1 $119 0 $142 0.21939310229205822 $96 $143 forward 7 unknown #
coedge $-1 $97 $108 $135 $144 reversed $76 $-1 #
vertex $-1 $113 $145 #
vertex $-1 $116 $146 #
straight-curve $-1 -0.19 0 -0.10969655114602965 0 0 1 I I #
face $-1 $147 $148 $3 $-1 $149 reversed single #
loop $-1 $-1 $150 $104 #
plane-surface $-1 0.18999999999999867 0 0.10969655114602887 1 0 0 0 0 -1 forward_v I I I I #
coedge $-1 $151 $140 $152 $153 forward $105 $-1 #
coedge $-1 $109 $107 $154 $155 reversed $92 $-1 #
coedge $-1 $140 $151 $107 $127 reversed $105 $-1 #
edge $-1 $142 0 $156 0.17999999999999999 $107 $157 forward 7 unknown #
coedge $-1 $154 $158 $108 $129 forward $159 $-1 #
edge $-1 $160 0 $130 0.21939310229205852 $128 $161 forward 7 unknown #
vertex $-1 $155 $162 #
straight-curve $-1 -0.19 0 0.10969655114602887 0 -1 0 I I #
coedge $-1 $114 $111 $163 $164 reversed $61 $-1 #
coedge $-1 $165 $166 $111 $134 forward $148 $-1 #
edge $-1 $167 -6.9388939039073393e-018 $138 0.21939310229205738 $111 $168 forward 7 unknown #
coedge $-1 $169 $112 $117 $144 forward $137 $-1 #
coedge $-1 $112 $169 $165 $170 reversed $137 $-1 #
loop $-1 $-1 $135 $147 #
vertex $-1 $134 $171 #
straight-curve $-1 0 0 -0.21939310229205852 -0.8660254037844386 0 0.49999999999999994 I I #
coedge $-1 $124 $126 $114 $141 forward $105 $-1 #
edge $-1 $142 0 $172 0.21939310229205708 $114 $173 forward 7 unknown #
vertex $-1 $116 $174 #
straight-curve $-1 -0.19 0 0.10969655114602887 0.86602540378443715 0 0.50000000000000244 I I #
edge $-1 $118 0 $160 0.17999999999999999 $135 $175 forward 7 unknown #
point $-1 -0.19 0 -0.10969655114602965 #
point $-1 -0.19 0 0.10969655114602887 #
face $-1 $176 $137 $3 $-1 $177 reversed single #
loop $-1 $-1 $165 $121 #
plane-surface $-1 0.18999999999999867 0 -0.1096965511460281 0.50000000000000799 0 -0.86602540378443416 -0.86602540378443404 0 -0.50000000000000788 forward_v I I I I #
coedge $-1 $178 $163 $166 $179 forward $122 $-1 #
coedge $-1 $126 $124 $180 $181 reversed $105 $-1 #
coedge $-1 $163 $178 $124 $153 reversed $122 $-1 #
edge $-1 $172 0 $182 0.17999999999999999 $124 $183 forward 7 unknown #
coedge $-1 $180 $128 $125 $155 forward $159 $-1 #
edge $-1 $130 0 $156 0.21939310229205822 $154 $184 forward 7 unknown #
vertex $-1 $155 $185 #
straight-curve $-1 0 0 0.2193931022920585 0 -1 0 I I #
coedge $-1 $128 $186 $169 $187 forward $159 $-1 #
loop $-1 $-1 $180 $176 #
vertex $-1 $129 $188 #
straight-curve $-1 -0.19 -0.17999999999999999 -0.10969655114602965 0 0 1 I I #
point $-1 -0.19 -0.17999999999999999 0.10969655114602887 #
coedge $-1 $150 $152 $132 $164 forward $122 $-1 #
edge $-1 $172 0 $167 0.21939310229205694 $132 $189 forward 7 unknown #
coedge $-1 $190 $133 $136 $170 forward $148 $-1 #
coedge $-1 $133 $190 $150 $179 reversed $148 $-1 #
vertex $-1 $164 $191 #
straight-curve $-1 0.18999999999999867 0 -0.1096965511460281 -0.86602540378443404 0 -0.50000000000000799 I I #
coedge $-1 $136 $135 $158 $187 reversed $137 $-1 #
edge $-1 $138 0 $192 0.17999999999999999 $165 $193 forward 7 unknown #
point $-1 0 0 -0.21939310229205852 #
vertex $-1 $141 $194 #
straight-curve $-1 0 0 0.21939310229205852 0.8660254037844356 0 -0.50000000000000522 I I #
point $-1 0 0 0.21939310229205852 #
straight-curve $-1 -0.19000000000000003 0 -0.10969655114602962 0 -1 0 I I #
face $-1 $-1 $159 $3 $-1 $195 forward single #
plane-surface $-1 0 0 -0.21939310229205852 -0.5 0 -0.86602540378443871 -0.86602540378443871 0 0.5 forward_v I I I I #
coedge $-1 $152 $150 $196 $197 reversed $122 $-1 #
edge $-1 $167 0 $198 0.17999999999999999 $150 $199 forward 7 unknown #
coedge $-1 $196 $154 $151 $181 forward $159 $-1 #
edge $-1 $156 0 $182 0.21939310229205708 $180 $200 forward 7 unknown #
vertex $-1 $197 $201 #
straight-curve $-1 0.18999999999999867 0 0.10969655114602887 0 -1 0 I I #
straight-curve $-1 -0.19 -0.17999999999999999 0.10969655114602887 0.86602540378443715 0 0.50000000000000244 I I #
point $-1 0 -0.17999999999999999 0.21939310229205852 #
coedge $-1 $158 $196 $190 $202 forward $159 $-1 #
edge $-1 $192 0 $160 0.21939310229205783 $158 $203 forward 7 unknown #
point $-1 -0.19 -0.17999999999999999 -0.10969655114602965 #
straight-curve $-1 0.18999999999999867 0 0.10969655114602887 0 0 -1 I I #
coedge $-1 $166 $165 $186 $202 reversed $148 $-1 #
point $-1 0.18999999999999867 0 -0.10969655114602808 #
vertex $-1 $187 $204 #
straight-curve $-1 0 0 -0.21939310229205855 0 -1 0 I I #
point $-1 0.18999999999999867 0 0.10969655114602887 #
plane-surface $-1 0 -0.17999999999999999 0 0 1 0 -1 0 0 forward_v I I I I #
coedge $-1 $186 $180 $178 $197 forward $159 $-1 #
edge $-1 $182 0 $198 0.21939310229205697 $196 $205 forward 7 unknown #
vertex $-1 $202 $206 #
straight-curve $-1 0.18999999999999867 0 -0.1096965511460281 0 -1 0 I I #
straight-curve $-1 0 -0.17999999999999999 0.21939310229205852 0.8660254037844356 0 -0.50000000000000522 I I #
point $-1 0.18999999999999867 -0.17999999999999999 0.10969655114602887 #
edge $-1 $198 0 $192 0.21939310229205738 $186 $207 forward 7 unknown #
straight-curve $-1 0 -0.17999999999999999 -0.21939310229205852 -0.8660254037844386 0 0.49999999999999994 I I #
point $-1 0 -0.17999999999999999 -0.21939310229205852 #
straight-curve $-1 0.18999999999999867 -0.17999999999999999 0.10969655114602887 0 0 -1 I I #
point $-1 0.18999999999999867 -0.17999999999999999 -0.1096965511460281 #
straight-curve $-1 0.18999999999999867 -0.17999999999999999 -0.1096965511460281 -0.86602540378443404 0 -0.50000000000000799 I I #
End-of-ACIS-data 