600 0 1 0           
108 GICL Pro/E ACIS Translator - Source: f:/data5/repository/PTC/V18/process_mfg18/models/clamp_finger.prt - 6 0 13 ACIS 6.0.3 NT 24 Thu Apr 04 09:57:11 2002 
1 9.9999999999999995e-007 1e-010 
body $-1 $1 $-1 $2 #
lump $-1 $-1 $3 $0 #
transform $-1 1 0 0 0 1 0 0 0 1 0 0 0 25.399999999999999 no_rotate no_reflect no_shear #
shell $-1 $-1 $-1 $4 $-1 $1 #
face $-1 $5 $6 $3 $-1 $7 reversed single #
face $-1 $8 $9 $3 $-1 $10 forward single #
loop $-1 $-1 $11 $4 #
plane-surface $-1 0 0 0 0 0 1 1 0 0 forward_v I I I I #
face $-1 $12 $13 $3 $-1 $14 forward single #
loop $-1 $-1 $15 $5 #
plane-surface $-1 0 0.17999999999999999 0 -1 0 0 0 -1 0 forward_v I I I I #
coedge $-1 $16 $17 $18 $19 reversed $6 $-1 #
face $-1 $20 $21 $3 $-1 $22 reversed single #
loop $-1 $23 $24 $8 #
plane-surface $-1 0 0 0 0 -1 0 1 0 0 forward_v I I I I #
coedge $-1 $25 $18 $26 $27 forward $9 $-1 #
coedge $-1 $28 $11 $29 $30 reversed $6 $-1 #
coedge $-1 $11 $28 $31 $32 reversed $6 $-1 #
coedge $-1 $15 $33 $11 $19 forward $9 $-1 #
edge $-1 $34 0 $35 0.17999999999999999 $11 $36 forward 7 unknown #
face $-1 $37 $38 $3 $-1 $39 reversed single #
loop $-1 $-1 $40 $12 #
plane-surface $-1 0.67500000000000071 0.17999999999999999 0.625 0 0 1 1 0 0 forward_v I I I I #
loop $-1 $41 $42 $8 #
coedge $-1 $43 $44 $45 $46 forward $13 $-1 #
coedge $-1 $33 $15 $47 $48 reversed $9 $-1 #
coedge $-1 $31 $49 $15 $27 reversed $50 $-1 #
edge $-1 $35 0 $51 1 $26 $52 forward 7 unknown #
coedge $-1 $17 $16 $53 $54 reversed $6 $-1 #
coedge $-1 $55 $56 $16 $30 forward $57 $-1 #
edge $-1 $58 0 $34 11 $16 $59 forward 7 unknown #
coedge $-1 $60 $26 $17 $32 forward $50 $-1 #
edge $-1 $35 0 $61 11 $17 $62 forward 7 unknown #
coedge $-1 $18 $25 $55 $63 reversed $9 $-1 #
vertex $-1 $30 $64 #
vertex $-1 $32 $65 #
straight-curve $-1 0 0.17999999999999999 0 0 -1 0 I I #
face $-1 $66 $67 $3 $-1 $68 reversed single #
loop $-1 $-1 $69 $20 #
cone-surface $-1 0.67500000000000071 0.17999999999999999 0.5 0 1 0 0.125 0 0 1 I I 0 1 0.125 forward I I I I #
coedge $-1 $70 $45 $71 $72 reversed $21 $-1 #
loop $-1 $73 $74 $8 #
coedge $-1 $75 $76 $77 $78 forward $23 $-1 #
coedge $-1 $79 $24 $80 $81 forward $13 $-1 #
coedge $-1 $24 $79 $82 $83 forward $13 $-1 #
coedge $-1 $40 $84 $24 $46 reversed $21 $-1 #
edge $-1 $85 0 $86 0.625 $24 $87 forward 7 unknown #
coedge $-1 $88 $89 $25 $48 forward $90 $-1 #
edge $-1 $91 0 $51 0.17999999999999999 $47 $92 forward 7 unknown #
coedge $-1 $26 $60 $88 $93 reversed $50 $-1 #
loop $-1 $94 $60 $8 #
vertex $-1 $93 $95 #
straight-curve $-1 0 0 0 0 0 1 I I #
coedge $-1 $96 $97 $28 $54 forward $98 $-1 #
edge $-1 $61 0 $58 0.17999999999999999 $28 $99 forward 7 unknown #
coedge $-1 $100 $29 $33 $63 forward $57 $-1 #
coedge $-1 $29 $100 $96 $101 reversed $57 $-1 #
loop $-1 $102 $55 $103 #
vertex $-1 $54 $104 #
straight-curve $-1 11 0.17999999999999999 0 -1 0 0 I I #
coedge $-1 $49 $31 $97 $105 forward $50 $-1 #
vertex $-1 $32 $106 #
straight-curve $-1 0 0 0 1 0 0 I I #
edge $-1 $34 0 $91 1 $55 $107 forward 7 unknown #
point $-1 0 0.17999999999999999 0 #
point $-1 0 0 0 #
face $-1 $103 $108 $3 $-1 $109 reversed single #
loop $-1 $-1 $110 $37 #
plane-surface $-1 1.3000000000000007 0.17999999999999999 0.375 0 0 -1 -1 0 0 forward_v I I I I #
coedge $-1 $111 $82 $112 $113 reversed $38 $-1 #
coedge $-1 $84 $40 $114 $115 forward $21 $-1 #
coedge $-1 $82 $111 $40 $72 forward $38 $-1 #
edge $-1 $116 0 $85 0.17999999999999999 $71 $117 forward 7 unknown #
loop $-1 $118 $119 $8 #
coedge $-1 $120 $121 $122 $123 forward $41 $-1 #
coedge $-1 $124 $42 $125 $126 forward $23 $-1 #
coedge $-1 $42 $124 $127 $128 forward $23 $-1 #
coedge $-1 $129 $130 $42 $78 reversed $131 $-1 #
edge $-1 $132 0 $133 0.62499999999999978 $42 $134 forward 7 unknown #
coedge $-1 $44 $43 $135 $136 forward $13 $-1 #
coedge $-1 $137 $138 $43 $81 reversed $108 $-1 #
edge $-1 $86 0 $139 3.1415926535897931 $43 $140 forward 7 unknown #
coedge $-1 $69 $71 $44 $83 reversed $38 $-1 #
edge $-1 $141 0 $85 3.1415926535897931 $44 $142 forward 7 unknown #
coedge $-1 $45 $70 $137 $143 forward $21 $-1 #
vertex $-1 $83 $144 #
vertex $-1 $81 $145 #
straight-curve $-1 0.67500000000000071 0 0.625 1 0 0 I I #
coedge $-1 $146 $47 $49 $93 forward $90 $-1 #
coedge $-1 $47 $146 $100 $147 forward $90 $-1 #
loop $-1 $-1 $146 $148 #
vertex $-1 $48 $149 #
straight-curve $-1 0 0.17999999999999999 1 0 -1 0 I I #
edge $-1 $51 0 $150 11 $88 $151 forward 7 unknown #
loop $-1 $-1 $152 $8 #
point $-1 0 0 1 #
coedge $-1 $153 $53 $56 $101 forward $98 $-1 #
coedge $-1 $53 $153 $60 $105 reversed $98 $-1 #
loop $-1 $-1 $96 $154 #
straight-curve $-1 11 0 0 0 1 0 I I #
coedge $-1 $56 $55 $89 $147 reversed $57 $-1 #
edge $-1 $58 0 $155 1 $96 $156 forward 7 unknown #
loop $-1 $-1 $157 $103 #
face $-1 $158 $159 $3 $-1 $160 forward single #
point $-1 11 0.17999999999999999 0 #
edge $-1 $61 0 $150 1 $60 $161 forward 7 unknown #
point $-1 11 0 0 #
straight-curve $-1 0 0.17999999999999999 0 0 0 1 I I #
loop $-1 $-1 $137 $66 #
cone-surface $-1 1.3000000000000007 0.17999999999999999 0.5 0 1 0 0.125 0 0 1 I I 0 1 0.125 forward I I I I #
coedge $-1 $162 $135 $138 $163 reversed $67 $-1 #
coedge $-1 $71 $69 $164 $165 forward $38 $-1 #
coedge $-1 $135 $162 $69 $113 forward $67 $-1 #
edge $-1 $166 0 $141 0.17999999999999999 $69 $167 forward 7 unknown #
coedge $-1 $164 $168 $70 $115 reversed $159 $-1 #
edge $-1 $116 0 $169 0.625 $114 $170 forward 7 unknown #
vertex $-1 $165 $171 #
straight-curve $-1 0.67500000000000071 0.17999999999999999 0.625 0 -1 0 I I #
loop $-1 $172 $173 $8 #
coedge $-1 $174 $175 $176 $177 forward $73 $-1 #
coedge $-1 $178 $74 $179 $180 forward $41 $-1 #
coedge $-1 $74 $178 $181 $182 forward $41 $-1 #
coedge $-1 $183 $184 $74 $123 reversed $185 $-1 #
edge $-1 $186 0 $187 0.625 $74 $188 forward 7 unknown #
coedge $-1 $76 $75 $189 $190 forward $23 $-1 #
coedge $-1 $191 $192 $75 $126 reversed $193 $-1 #
edge $-1 $133 0 $194 3.1415926535897931 $75 $195 forward 7 unknown #
coedge $-1 $196 $197 $76 $128 reversed $198 $-1 #
edge $-1 $199 0 $132 3.1415926535897931 $76 $200 forward 7 unknown #
coedge $-1 $201 $77 $197 $202 reversed $131 $-1 #
coedge $-1 $77 $201 $191 $203 forward $131 $-1 #
loop $-1 $-1 $129 $204 #
vertex $-1 $128 $205 #
vertex $-1 $126 $206 #
straight-curve $-1 1.825 0 0.625 1 0 0 I I #
coedge $-1 $110 $112 $79 $136 reversed $67 $-1 #
edge $-1 $139 0 $141 0.625 $79 $207 forward 7 unknown #
coedge $-1 $208 $80 $84 $143 reversed $108 $-1 #
coedge $-1 $80 $208 $110 $163 forward $108 $-1 #
vertex $-1 $136 $209 #
ellipse-curve $-1 1.3000000000000007 0 0.5 0 1 0 0 0 0.125 1 I I #
vertex $-1 $83 $210 #
ellipse-curve $-1 0.67500000000000071 0 0.5 0 1 0 0 0 -0.125 1 I I #
edge $-1 $169 0 $86 0.17999999999999999 $84 $211 forward 7 unknown #
point $-1 0.67500000000000071 0 0.625 #
point $-1 1.3000000000000007 0 0.625 #
coedge $-1 $89 $88 $153 $212 forward $90 $-1 #
edge $-1 $155 0 $91 11 $89 $213 forward 7 unknown #
face $-1 $154 $90 $3 $-1 $214 forward single #
point $-1 0 0.17999999999999999 1 #
vertex $-1 $93 $215 #
straight-curve $-1 0 0 1 1 0 0 I I #
coedge $-1 $216 $217 $218 $219 forward $94 $-1 #
coedge $-1 $97 $96 $146 $212 reversed $98 $-1 #
face $-1 $220 $98 $3 $-1 $221 forward single #
vertex $-1 $147 $222 #
straight-curve $-1 11 0.17999999999999999 0 0 0 1 I I #
coedge $-1 $223 $224 $225 $226 reversed $102 $-1 #
face $-1 $227 $228 $3 $-1 $229 reversed single #
loop $-1 $230 $231 $103 #
plane-surface $-1 11 0.17999999999999999 0 0 1 0 -1 0 0 forward_v I I I I #
straight-curve $-1 11 0 0 0 0 1 I I #
coedge $-1 $112 $110 $231 $232 forward $67 $-1 #
edge $-1 $233 0 $139 0.17999999999999999 $138 $234 forward 7 unknown #
coedge $-1 $231 $114 $111 $165 reversed $159 $-1 #
edge $-1 $166 0 $116 3.1415926535897931 $164 $235 forward 7 unknown #
vertex $-1 $165 $236 #
straight-curve $-1 0.67500000000000071 0.17999999999999999 0.375 0 -1 0 I I #
coedge $-1 $114 $231 $208 $237 reversed $159 $-1 #
vertex $-1 $115 $238 #
straight-curve $-1 0.67500000000000071 0.17999999999999999 0.625 1 0 0 I I #
point $-1 0.67500000000000071 0.17999999999999999 0.625 #
loop $-1 $239 $240 $8 #
coedge $-1 $241 $242 $243 $244 forward $118 $-1 #
coedge $-1 $245 $119 $246 $247 forward $73 $-1 #
coedge $-1 $119 $245 $248 $249 forward $73 $-1 #
coedge $-1 $250 $251 $119 $177 reversed $252 $-1 #
edge $-1 $253 0 $254 0.625 $119 $255 forward 7 unknown #
coedge $-1 $121 $120 $256 $257 forward $41 $-1 #
coedge $-1 $258 $259 $120 $180 reversed $260 $-1 #
edge $-1 $187 0 $261 3.1415926535897931 $120 $262 forward 7 unknown #
coedge $-1 $263 $264 $121 $182 reversed $265 $-1 #
edge $-1 $266 0 $186 3.1415926535897931 $121 $267 forward 7 unknown #
coedge $-1 $268 $122 $264 $269 reversed $185 $-1 #
coedge $-1 $122 $268 $258 $270 forward $185 $-1 #
loop $-1 $-1 $183 $271 #
vertex $-1 $182 $272 #
vertex $-1 $180 $273 #
straight-curve $-1 2.9750000000000014 0 0.625 1 0 0 I I #
coedge $-1 $274 $275 $124 $190 reversed $228 $-1 #
edge $-1 $194 0 $199 0.62499999999999978 $124 $276 forward 7 unknown #
coedge $-1 $277 $125 $130 $203 reversed $193 $-1 #
coedge $-1 $125 $277 $274 $278 forward $193 $-1 #
loop $-1 $-1 $191 $227 #
vertex $-1 $190 $279 #
ellipse-curve $-1 2.4499999999999997 0 0.5 0 1 0 0 0 0.125 1 I I #
coedge $-1 $280 $127 $275 $281 reversed $198 $-1 #
coedge $-1 $127 $280 $129 $202 forward $198 $-1 #
loop $-1 $-1 $196 $282 #
vertex $-1 $128 $283 #
ellipse-curve $-1 1.825 0 0.5 0 1 0 0 0 -0.125 1 I I #
coedge $-1 $130 $129 $284 $285 forward $131 $-1 #
edge $-1 $286 0 $132 0.17999999999999999 $197 $287 forward 7 unknown #
edge $-1 $288 0 $133 0.17999999999999999 $130 $289 forward 7 unknown #
face $-1 $282 $131 $3 $-1 $290 reversed single #
point $-1 1.825 0 0.625 #
point $-1 2.4499999999999997 0 0.625 #
straight-curve $-1 1.3000000000000007 0 0.375 -1 0 0 I I #
coedge $-1 $138 $137 $168 $237 forward $108 $-1 #
point $-1 1.3000000000000007 0 0.375 #
point $-1 0.67500000000000071 0 0.375 #
straight-curve $-1 1.3000000000000007 0.17999999999999999 0.625 0 -1 0 I I #
edge $-1 $150 0 $155 0.17999999999999999 $146 $291 forward 7 unknown #
straight-curve $-1 11 0.17999999999999999 1 -1 0 0 I I #
plane-surface $-1 0 0 1 0 0 1 1 0 0 forward_v I I I I #
point $-1 11 0 1 #
coedge $-1 $292 $152 $293 $294 forward $94 $-1 #
coedge $-1 $152 $292 $295 $296 forward $94 $-1 #
coedge $-1 $297 $298 $152 $219 reversed $299 $-1 #
edge $-1 $300 0 $301 0.625 $152 $302 forward 7 unknown #
face $-1 $303 $304 $3 $-1 $305 reversed single #
plane-surface $-1 11 0 0 1 0 0 0 1 0 forward_v I I I I #
point $-1 11 0.17999999999999999 1 #
coedge $-1 $306 $157 $307 $308 reversed $102 $-1 #
coedge $-1 $157 $306 $309 $310 reversed $102 $-1 #
coedge $-1 $311 $312 $157 $226 forward $304 $-1 #
edge $-1 $313 0 $314 0.625 $157 $315 forward 7 unknown #
face $-1 $204 $193 $3 $-1 $316 reversed single #
loop $-1 $-1 $274 $158 #
plane-surface $-1 2.4499999999999997 0.17999999999999999 0.375 0 0 -1 -1 0 0 forward_v I I I I #
loop $-1 $317 $318 $103 #
coedge $-1 $168 $164 $162 $232 reversed $159 $-1 #
edge $-1 $233 0 $166 0.625 $231 $319 forward 7 unknown #
vertex $-1 $237 $320 #
straight-curve $-1 1.3000000000000007 0.17999999999999999 0.375 0 -1 0 I I #
ellipse-curve $-1 0.67500000000000071 0.17999999999999999 0.5 0 1 0 0 0 -0.125 1 I I #
point $-1 0.67500000000000071 0.17999999999999999 0.375 #
edge $-1 $169 0 $233 3.1415926535897931 $168 $321 forward 7 unknown #
point $-1 1.3000000000000007 0.17999999999999999 0.625 #
loop $-1 $322 $323 $8 #
coedge $-1 $324 $325 $326 $327 forward $172 $-1 #
coedge $-1 $328 $173 $329 $330 forward $118 $-1 #
coedge $-1 $173 $328 $331 $332 forward $118 $-1 #
coedge $-1 $333 $334 $173 $244 reversed $335 $-1 #
edge $-1 $336 0 $337 0.625 $173 $338 forward 7 unknown #
coedge $-1 $175 $174 $339 $340 forward $73 $-1 #
coedge $-1 $341 $342 $174 $247 reversed $343 $-1 #
edge $-1 $254 0 $344 3.1415926535897931 $174 $345 forward 7 unknown #
coedge $-1 $346 $347 $175 $249 reversed $348 $-1 #
edge $-1 $349 0 $253 3.1415926535897931 $175 $350 forward 7 unknown #
coedge $-1 $351 $176 $347 $352 reversed $252 $-1 #
coedge $-1 $176 $351 $341 $353 forward $252 $-1 #
loop $-1 $-1 $250 $354 #
vertex $-1 $249 $355 #
vertex $-1 $247 $356 #
straight-curve $-1 4.125 0 0.625 1 0 0 I I #
coedge $-1 $357 $358 $178 $257 reversed $359 $-1 #
edge $-1 $261 0 $266 0.625 $178 $360 forward 7 unknown #
coedge $-1 $361 $179 $184 $270 reversed $260 $-1 #
coedge $-1 $179 $361 $357 $362 forward $260 $-1 #
loop $-1 $-1 $258 $363 #
vertex $-1 $257 $364 #
ellipse-curve $-1 3.6000000000000014 0 0.5 0 1 0 0 0 0.125 1 I I #
coedge $-1 $365 $181 $358 $366 reversed $265 $-1 #
coedge $-1 $181 $365 $183 $269 forward $265 $-1 #
loop $-1 $-1 $263 $367 #
vertex $-1 $182 $368 #
ellipse-curve $-1 2.9750000000000014 0 0.5 0 1 0 0 0 -0.125 1 I I #
coedge $-1 $184 $183 $369 $370 forward $185 $-1 #
edge $-1 $371 0 $186 0.17999999999999999 $264 $372 forward 7 unknown #
edge $-1 $373 0 $187 0.17999999999999999 $184 $374 forward 7 unknown #
face $-1 $367 $185 $3 $-1 $375 reversed single #
point $-1 2.9750000000000014 0 0.625 #
point $-1 3.6000000000000014 0 0.625 #
coedge $-1 $376 $189 $192 $278 reversed $228 $-1 #
coedge $-1 $189 $376 $196 $281 forward $228 $-1 #
straight-curve $-1 2.4499999999999997 0 0.375 -1 0 0 I I #
coedge $-1 $192 $191 $377 $378 forward $193 $-1 #
edge $-1 $379 0 $194 0.17999999999999999 $192 $380 forward 7 unknown #
point $-1 2.4499999999999997 0 0.375 #
coedge $-1 $197 $196 $381 $382 forward $198 $-1 #
edge $-1 $383 0 $199 0.17999999999999999 $196 $384 forward 7 unknown #
face $-1 $385 $198 $3 $-1 $386 reversed single #
point $-1 1.825 0 0.375 #
coedge $-1 $381 $377 $201 $285 reversed $230 $-1 #
edge $-1 $286 0 $288 0.62499999999999867 $284 $387 forward 7 unknown #
vertex $-1 $382 $388 #
straight-curve $-1 1.825 0.17999999999999999 0.625 0 -1 0 I I #
vertex $-1 $285 $389 #
straight-curve $-1 2.4499999999999997 0.17999999999999999 0.625 0 -1 0 I I #
plane-surface $-1 1.825 0.17999999999999999 0.625 0 0 1 1 0 0 forward_v I I I I #
straight-curve $-1 11 0 1 0 1 0 I I #
coedge $-1 $217 $216 $390 $391 forward $94 $-1 #
coedge $-1 $392 $393 $216 $294 reversed $394 $-1 #
edge $-1 $301 0 $395 3.1415926535897931 $216 $396 forward 7 unknown #
coedge $-1 $397 $398 $217 $296 reversed $399 $-1 #
edge $-1 $400 0 $300 3.1415926535897931 $217 $401 forward 7 unknown #
coedge $-1 $402 $218 $398 $403 reversed $299 $-1 #
coedge $-1 $218 $402 $392 $404 forward $299 $-1 #
loop $-1 $-1 $297 $405 #
vertex $-1 $296 $406 #
vertex $-1 $294 $407 #
straight-curve $-1 9.875 0 0.625 1 0 0 I I #
face $-1 $405 $394 $3 $-1 $408 reversed single #
loop $-1 $-1 $312 $220 #
plane-surface $-1 10.5 0.17999999999999999 0.375 0 0 -1 -1 0 0 forward_v I I I I #
coedge $-1 $224 $223 $402 $409 reversed $102 $-1 #
coedge $-1 $393 $392 $223 $308 forward $394 $-1 #
edge $-1 $410 0 $313 3.1415926535897931 $223 $411 forward 7 unknown #
coedge $-1 $398 $397 $224 $310 forward $399 $-1 #
edge $-1 $314 0 $412 3.1415926535897931 $224 $413 forward 7 unknown #
coedge $-1 $390 $225 $397 $414 forward $304 $-1 #
coedge $-1 $225 $390 $393 $415 reversed $304 $-1 #
vertex $-1 $308 $416 #
vertex $-1 $310 $417 #
straight-curve $-1 10.5 0.17999999999999999 0.375 -1 0 0 I I #
cone-surface $-1 2.4499999999999997 0.17999999999999999 0.5 0 1 0 0.125 0 0 1 I I 0 1 0.125 forward I I I I #
loop $-1 $418 $419 $103 #
coedge $-1 $377 $381 $376 $420 reversed $230 $-1 #
straight-curve $-1 1.3000000000000007 0.17999999999999999 0.375 -1 0 0 I I #
point $-1 1.3000000000000007 0.17999999999999999 0.375 #
ellipse-curve $-1 1.3000000000000007 0.17999999999999999 0.5 0 1 0 0 0 0.125 1 I I #
loop $-1 $50 $421 $8 #
coedge $-1 $422 $423 $424 $425 forward $239 $-1 #
coedge $-1 $426 $240 $427 $428 forward $172 $-1 #
coedge $-1 $240 $426 $429 $430 forward $172 $-1 #
coedge $-1 $431 $432 $240 $327 reversed $433 $-1 #
edge $-1 $434 0 $435 0.625 $240 $436 forward 7 unknown #
coedge $-1 $242 $241 $437 $438 forward $118 $-1 #
coedge $-1 $439 $440 $241 $330 reversed $441 $-1 #
edge $-1 $337 0 $442 3.1415926535897931 $241 $443 forward 7 unknown #
coedge $-1 $444 $445 $242 $332 reversed $446 $-1 #
edge $-1 $447 0 $336 3.1415926535897931 $242 $448 forward 7 unknown #
coedge $-1 $449 $243 $445 $450 reversed $335 $-1 #
coedge $-1 $243 $449 $439 $451 forward $335 $-1 #
loop $-1 $-1 $333 $452 #
vertex $-1 $332 $453 #
vertex $-1 $330 $454 #
straight-curve $-1 5.2749999999999995 0 0.625 1 0 0 I I #
coedge $-1 $455 $456 $245 $340 reversed $457 $-1 #
edge $-1 $344 0 $349 0.625 $245 $458 forward 7 unknown #
coedge $-1 $459 $246 $251 $353 reversed $343 $-1 #
coedge $-1 $246 $459 $455 $460 forward $343 $-1 #
loop $-1 $-1 $341 $461 #
vertex $-1 $340 $462 #
ellipse-curve $-1 4.75 0 0.5 0 1 0 0 0 0.125 1 I I #
coedge $-1 $463 $248 $456 $464 reversed $348 $-1 #
coedge $-1 $248 $463 $250 $352 forward $348 $-1 #
loop $-1 $-1 $346 $465 #
vertex $-1 $249 $466 #
ellipse-curve $-1 4.125 0 0.5 0 1 0 0 0 -0.125 1 I I #
coedge $-1 $251 $250 $467 $468 forward $252 $-1 #
edge $-1 $469 0 $253 0.17999999999999999 $347 $470 forward 7 unknown #
edge $-1 $471 0 $254 0.17999999999999999 $251 $472 forward 7 unknown #
face $-1 $465 $252 $3 $-1 $473 reversed single #
point $-1 4.125 0 0.625 #
point $-1 4.75 0 0.625 #
coedge $-1 $474 $256 $259 $362 reversed $359 $-1 #
coedge $-1 $256 $474 $263 $366 forward $359 $-1 #
loop $-1 $-1 $357 $385 #
straight-curve $-1 3.6000000000000014 0 0.375 -1 0 0 I I #
coedge $-1 $259 $258 $475 $476 forward $260 $-1 #
edge $-1 $477 0 $261 0.17999999999999999 $259 $478 forward 7 unknown #
face $-1 $271 $260 $3 $-1 $479 reversed single #
point $-1 3.6000000000000014 0 0.375 #
coedge $-1 $264 $263 $480 $481 forward $265 $-1 #
edge $-1 $482 0 $266 0.17999999999999999 $263 $483 forward 7 unknown #
face $-1 $484 $265 $3 $-1 $485 reversed single #
point $-1 2.9750000000000014 0 0.375 #
coedge $-1 $480 $475 $268 $370 reversed $317 $-1 #
edge $-1 $371 0 $373 0.625 $369 $486 forward 7 unknown #
vertex $-1 $481 $487 #
straight-curve $-1 2.9750000000000014 0.17999999999999999 0.625 0 -1 0 I I #
vertex $-1 $370 $488 #
straight-curve $-1 3.6000000000000014 0.17999999999999999 0.625 0 -1 0 I I #
plane-surface $-1 2.9750000000000014 0.17999999999999999 0.625 0 0 1 1 0 0 forward_v I I I I #
coedge $-1 $275 $274 $318 $420 forward $228 $-1 #
coedge $-1 $284 $318 $277 $378 reversed $230 $-1 #
edge $-1 $288 -1.0658141036401503e-014 $379 3.1415926535897825 $377 $489 forward 7 unknown #
vertex $-1 $378 $490 #
straight-curve $-1 2.4499999999999997 0.17999999999999999 0.375 0 -1 0 I I #
coedge $-1 $318 $284 $280 $382 reversed $230 $-1 #
edge $-1 $383 0 $286 3.1415926535898109 $381 $491 forward 7 unknown #
vertex $-1 $382 $492 #
straight-curve $-1 1.825 0.17999999999999999 0.375 0 -1 0 I I #
face $-1 $363 $359 $3 $-1 $493 reversed single #
cone-surface $-1 1.825 0.17999999999999999 0.5 0 1 0 0.125 0 0 1 I I 0 1 0.125 forward I I I I #
straight-curve $-1 1.8250000000000011 0.17999999999999999 0.625 1 0 0 I I #
point $-1 1.8250000000000011 0.17999999999999999 0.625 #
point $-1 2.4499999999999997 0.17999999999999999 0.625 #
coedge $-1 $312 $311 $292 $391 reversed $304 $-1 #
edge $-1 $395 0 $400 0.625 $292 $494 forward 7 unknown #
coedge $-1 $307 $293 $298 $404 reversed $394 $-1 #
coedge $-1 $293 $307 $312 $415 forward $394 $-1 #
loop $-1 $-1 $392 $303 #
vertex $-1 $391 $495 #
ellipse-curve $-1 10.5 0 0.5 0 1 0 0 0 0.125 1 I I #
coedge $-1 $309 $295 $311 $414 reversed $399 $-1 #
coedge $-1 $295 $309 $297 $403 forward $399 $-1 #
loop $-1 $-1 $397 $496 #
vertex $-1 $296 $497 #
ellipse-curve $-1 9.875 0 0.5 0 1 0 0 0 -0.125 1 I I #
coedge $-1 $298 $297 $306 $409 forward $299 $-1 #
edge $-1 $412 0 $300 0.17999999999999999 $398 $498 forward 7 unknown #
edge $-1 $410 0 $301 0.17999999999999999 $298 $499 forward 7 unknown #
face $-1 $496 $299 $3 $-1 $500 reversed single #
point $-1 9.875 0 0.625 #
point $-1 10.5 0 0.625 #
cone-surface $-1 10.5 0.17999999999999999 0.5 0 1 0 0.125 0 0 1 I I 0 1 0.125 forward I I I I #
edge $-1 $412 0 $410 0.625 $306 $501 forward 7 unknown #
vertex $-1 $409 $502 #
ellipse-curve $-1 10.5 0.17999999999999999 0.5 0 1 0 0 0 0.125 1 I I #
vertex $-1 $310 $503 #
ellipse-curve $-1 9.875 0.17999999999999999 0.5 0 1 0 0 0 -0.125 1 I I #
edge $-1 $314 0 $400 0.17999999999999999 $397 $504 forward 7 unknown #
edge $-1 $313 0 $395 0.17999999999999999 $393 $505 forward 7 unknown #
point $-1 10.5 0.17999999999999999 0.375 #
point $-1 9.875 0.17999999999999999 0.375 #
loop $-1 $506 $507 $103 #
coedge $-1 $475 $480 $474 $508 reversed $317 $-1 #
edge $-1 $379 1.3322676295501878e-015 $383 0.625 $318 $509 forward 7 unknown #
coedge $-1 $510 $511 $512 $513 forward $322 $-1 #
coedge $-1 $514 $323 $515 $516 forward $239 $-1 #
coedge $-1 $323 $514 $517 $518 forward $239 $-1 #
coedge $-1 $519 $520 $323 $425 reversed $521 $-1 #
edge $-1 $522 0 $523 0.625 $323 $524 forward 7 unknown #
coedge $-1 $325 $324 $525 $526 forward $172 $-1 #
coedge $-1 $527 $528 $324 $428 reversed $529 $-1 #
edge $-1 $435 0 $530 3.1415926535897931 $324 $531 forward 7 unknown #
coedge $-1 $532 $533 $325 $430 reversed $534 $-1 #
edge $-1 $535 0 $434 3.1415926535897931 $325 $536 forward 7 unknown #
coedge $-1 $537 $326 $533 $538 reversed $433 $-1 #
coedge $-1 $326 $537 $527 $539 forward $433 $-1 #
loop $-1 $-1 $431 $540 #
vertex $-1 $430 $541 #
vertex $-1 $428 $542 #
straight-curve $-1 6.4249999999999998 0 0.625 1 0 0 I I #
coedge $-1 $543 $544 $328 $438 reversed $545 $-1 #
edge $-1 $442 0 $447 0.625 $328 $546 forward 7 unknown #
coedge $-1 $547 $329 $334 $451 reversed $441 $-1 #
coedge $-1 $329 $547 $543 $548 forward $441 $-1 #
loop $-1 $-1 $439 $549 #
vertex $-1 $438 $550 #
ellipse-curve $-1 5.8999999999999995 0 0.5 0 1 0 0 0 0.125 1 I I #
coedge $-1 $551 $331 $544 $552 reversed $446 $-1 #
coedge $-1 $331 $551 $333 $450 forward $446 $-1 #
loop $-1 $-1 $444 $553 #
vertex $-1 $332 $554 #
ellipse-curve $-1 5.2749999999999995 0 0.5 0 1 0 0 0 -0.125 1 I I #
coedge $-1 $334 $333 $555 $556 forward $335 $-1 #
edge $-1 $557 0 $336 0.17999999999999999 $445 $558 forward 7 unknown #
edge $-1 $559 0 $337 0.17999999999999999 $334 $560 forward 7 unknown #
face $-1 $553 $335 $3 $-1 $561 reversed single #
point $-1 5.2749999999999995 0 0.625 #
point $-1 5.8999999999999995 0 0.625 #
coedge $-1 $562 $339 $342 $460 reversed $457 $-1 #
coedge $-1 $339 $562 $346 $464 forward $457 $-1 #
loop $-1 $-1 $455 $484 #
straight-curve $-1 4.75 0 0.375 -1 0 0 I I #
coedge $-1 $342 $341 $563 $564 forward $343 $-1 #
edge $-1 $565 0 $344 0.17999999999999999 $342 $566 forward 7 unknown #
face $-1 $354 $343 $3 $-1 $567 reversed single #
point $-1 4.75 0 0.375 #
coedge $-1 $347 $346 $568 $569 forward $348 $-1 #
edge $-1 $570 0 $349 0.17999999999999999 $346 $571 forward 7 unknown #
face $-1 $572 $348 $3 $-1 $573 reversed single #
point $-1 4.125 0 0.375 #
coedge $-1 $568 $563 $351 $468 reversed $418 $-1 #
edge $-1 $469 0 $471 0.625 $467 $574 forward 7 unknown #
vertex $-1 $569 $575 #
straight-curve $-1 4.125 0.17999999999999999 0.625 0 -1 0 I I #
vertex $-1 $468 $576 #
straight-curve $-1 4.75 0.17999999999999999 0.625 0 -1 0 I I #
plane-surface $-1 4.125 0.17999999999999999 0.625 0 0 1 1 0 0 forward_v I I I I #
coedge $-1 $358 $357 $419 $508 forward $359 $-1 #
coedge $-1 $369 $419 $361 $476 reversed $317 $-1 #
edge $-1 $373 7.1054273576010019e-015 $477 3.1415926535898002 $475 $577 forward 7 unknown #
vertex $-1 $476 $578 #
straight-curve $-1 3.6000000000000014 0.17999999999999999 0.375 0 -1 0 I I #
cone-surface $-1 3.6000000000000014 0.17999999999999999 0.5 0 1 0 0.125 0 0 1 I I 0 1 0.125 forward I I I I #
coedge $-1 $419 $369 $365 $481 reversed $317 $-1 #
edge $-1 $482 0 $371 3.1415926535897931 $480 $579 forward 7 unknown #
vertex $-1 $481 $580 #
straight-curve $-1 2.9750000000000014 0.17999999999999999 0.375 0 -1 0 I I #
face $-1 $461 $457 $3 $-1 $581 reversed single #
cone-surface $-1 2.9750000000000014 0.17999999999999999 0.5 0 1 0 0.125 0 0 1 I I 0 1 0.125 forward I I I I #
straight-curve $-1 2.9750000000000014 0.17999999999999999 0.625 1 0 0 I I #
point $-1 2.9750000000000014 0.17999999999999999 0.625 #
point $-1 3.6000000000000014 0.17999999999999999 0.625 #
ellipse-curve $-1 2.4499999999999997 0.17999999999999999 0.5 0 1 0 1.3322676295501878e-015 0 0.125 1 I I #
point $-1 2.4499999999999997 0.17999999999999999 0.375 #
ellipse-curve $-1 1.825 0.17999999999999999 0.5 0 1 0 1.1102230246251565e-015 0 -0.125 1 I I #
point $-1 1.8250000000000011 0.17999999999999999 0.375 #
plane-surface $-1 3.6000000000000014 0.17999999999999999 0.375 0 0 -1 -1 0 0 forward_v I I I I #
straight-curve $-1 10.5 0 0.375 -1 0 0 I I #
point $-1 10.5 0 0.375 #
face $-1 $-1 $399 $3 $-1 $582 reversed single #
point $-1 9.875 0 0.375 #
straight-curve $-1 9.875 0.17999999999999999 0.625 0 -1 0 I I #
straight-curve $-1 10.5 0.17999999999999999 0.625 0 -1 0 I I #
plane-surface $-1 9.875 0.17999999999999999 0.625 0 0 1 1 0 0 forward_v I I I I #
straight-curve $-1 9.875 0.17999999999999999 0.625 1 0 0 I I #
point $-1 10.5 0.17999999999999999 0.625 #
point $-1 9.875 0.17999999999999999 0.625 #
straight-curve $-1 9.875 0.17999999999999999 0.375 0 -1 0 I I #
straight-curve $-1 10.5 0.17999999999999999 0.375 0 -1 0 I I #
loop $-1 $583 $584 $103 #
coedge $-1 $563 $568 $562 $585 reversed $418 $-1 #
edge $-1 $477 -8.8817841970012523e-016 $482 0.62499999999999911 $419 $586 forward 7 unknown #
straight-curve $-1 2.4500000000000011 0.17999999999999999 0.375 -1 0 0 I I #
coedge $-1 $587 $421 $588 $589 forward $322 $-1 #
coedge $-1 $421 $587 $590 $591 forward $322 $-1 #
coedge $-1 $592 $593 $421 $513 reversed $594 $-1 #
edge $-1 $595 0 $596 0.625 $421 $597 forward 7 unknown #
coedge $-1 $423 $422 $598 $599 forward $239 $-1 #
coedge $-1 $600 $601 $422 $516 reversed $602 $-1 #
edge $-1 $523 0 $603 3.1415926535897931 $422 $604 forward 7 unknown #
coedge $-1 $605 $606 $423 $518 reversed $607 $-1 #
edge $-1 $608 0 $522 3.1415926535897931 $423 $609 forward 7 unknown #
coedge $-1 $610 $424 $606 $611 reversed $521 $-1 #
coedge $-1 $424 $610 $600 $612 forward $521 $-1 #
loop $-1 $-1 $519 $613 #
vertex $-1 $518 $614 #
vertex $-1 $516 $615 #
straight-curve $-1 7.5749999999999993 0 0.625 1 0 0 I I #
coedge $-1 $616 $617 $426 $526 reversed $618 $-1 #
edge $-1 $530 0 $535 0.625 $426 $619 forward 7 unknown #
coedge $-1 $620 $427 $432 $539 reversed $529 $-1 #
coedge $-1 $427 $620 $616 $621 forward $529 $-1 #
loop $-1 $-1 $527 $622 #
vertex $-1 $526 $623 #
ellipse-curve $-1 7.0499999999999998 0 0.5 0 1 0 0 0 0.125 1 I I #
coedge $-1 $624 $429 $617 $625 reversed $534 $-1 #
coedge $-1 $429 $624 $431 $538 forward $534 $-1 #
loop $-1 $-1 $532 $626 #
vertex $-1 $430 $627 #
ellipse-curve $-1 6.4249999999999998 0 0.5 0 1 0 0 0 -0.125 1 I I #
coedge $-1 $432 $431 $628 $629 forward $433 $-1 #
edge $-1 $630 0 $434 0.17999999999999999 $533 $631 forward 7 unknown #
edge $-1 $632 0 $435 0.17999999999999999 $432 $633 forward 7 unknown #
face $-1 $626 $433 $3 $-1 $634 reversed single #
point $-1 6.4249999999999998 0 0.625 #
point $-1 7.0499999999999998 0 0.625 #
coedge $-1 $635 $437 $440 $548 reversed $545 $-1 #
coedge $-1 $437 $635 $444 $552 forward $545 $-1 #
loop $-1 $-1 $543 $572 #
straight-curve $-1 5.8999999999999995 0 0.375 -1 0 0 I I #
coedge $-1 $440 $439 $636 $637 forward $441 $-1 #
edge $-1 $638 0 $442 0.17999999999999999 $440 $639 forward 7 unknown #
face $-1 $452 $441 $3 $-1 $640 reversed single #
point $-1 5.8999999999999995 0 0.375 #
coedge $-1 $445 $444 $641 $642 forward $446 $-1 #
edge $-1 $643 0 $447 0.17999999999999999 $444 $644 forward 7 unknown #
face $-1 $645 $446 $3 $-1 $646 reversed single #
point $-1 5.2749999999999995 0 0.375 #
coedge $-1 $641 $636 $449 $556 reversed $506 $-1 #
edge $-1 $557 0 $559 0.62499999999999911 $555 $647 forward 7 unknown #
vertex $-1 $642 $648 #
straight-curve $-1 5.2749999999999995 0.17999999999999999 0.625 0 -1 0 I I #
vertex $-1 $556 $649 #
straight-curve $-1 5.8999999999999995 0.17999999999999999 0.625 0 -1 0 I I #
plane-surface $-1 5.2749999999999995 0.17999999999999999 0.625 0 0 1 1 0 0 forward_v I I I I #
coedge $-1 $456 $455 $507 $585 forward $457 $-1 #
coedge $-1 $467 $507 $459 $564 reversed $418 $-1 #
edge $-1 $471 0 $565 3.1415926535897931 $563 $650 forward 7 unknown #
vertex $-1 $564 $651 #
straight-curve $-1 4.75 0.17999999999999999 0.375 0 -1 0 I I #
cone-surface $-1 4.75 0.17999999999999999 0.5 0 1 0 0.125 0 0 1 I I 0 1 0.125 forward I I I I #
coedge $-1 $507 $467 $463 $569 reversed $418 $-1 #
edge $-1 $570 0 $469 3.1415926535897931 $568 $652 forward 7 unknown #
vertex $-1 $569 $653 #
straight-curve $-1 4.125 0.17999999999999999 0.375 0 -1 0 I I #
face $-1 $549 $545 $3 $-1 $654 reversed single #
cone-surface $-1 4.125 0.17999999999999999 0.5 0 1 0 0.125 0 0 1 I I 0 1 0.125 forward I I I I #
straight-curve $-1 4.125 0.17999999999999999 0.625 1 0 0 I I #
point $-1 4.125 0.17999999999999999 0.625 #
point $-1 4.75 0.17999999999999999 0.625 #
ellipse-curve $-1 3.6000000000000014 0.17999999999999999 0.5 0 1 0 -8.8817841970012523e-016 0 0.125 1 I I #
point $-1 3.6000000000000014 0.17999999999999999 0.375 #
ellipse-curve $-1 2.9750000000000014 0.17999999999999999 0.5 0 1 0 0 0 -0.125 1 I I #
point $-1 2.9750000000000014 0.17999999999999999 0.375 #
plane-surface $-1 4.75 0.17999999999999999 0.375 0 0 -1 -1 0 0 forward_v I I I I #
cone-surface $-1 9.875 0.17999999999999999 0.5 0 1 0 0.125 0 0 1 I I 0 1 0.125 forward I I I I #
loop $-1 $655 $656 $103 #
coedge $-1 $636 $641 $635 $657 reversed $506 $-1 #
edge $-1 $565 0 $570 0.625 $507 $658 forward 7 unknown #
straight-curve $-1 3.6000000000000005 0.17999999999999999 0.375 -1 0 0 I I #
coedge $-1 $511 $510 $659 $660 forward $322 $-1 #
coedge $-1 $661 $662 $510 $589 reversed $663 $-1 #
edge $-1 $596 0 $664 3.1415926535897931 $510 $665 forward 7 unknown #
coedge $-1 $666 $667 $511 $591 reversed $668 $-1 #
edge $-1 $669 0 $595 3.1415926535897931 $511 $670 forward 7 unknown #
coedge $-1 $671 $512 $667 $672 reversed $594 $-1 #
coedge $-1 $512 $671 $661 $673 forward $594 $-1 #
loop $-1 $-1 $592 $674 #
vertex $-1 $591 $675 #
vertex $-1 $589 $676 #
straight-curve $-1 8.7249999999999996 0 0.625 1 0 0 I I #
coedge $-1 $677 $678 $514 $599 reversed $679 $-1 #
edge $-1 $603 0 $608 0.625 $514 $680 forward 7 unknown #
coedge $-1 $681 $515 $520 $612 reversed $602 $-1 #
coedge $-1 $515 $681 $677 $682 forward $602 $-1 #
loop $-1 $-1 $600 $683 #
vertex $-1 $599 $684 #
ellipse-curve $-1 8.1999999999999993 0 0.5 0 1 0 0 0 0.125 1 I I #
coedge $-1 $685 $517 $678 $686 reversed $607 $-1 #
coedge $-1 $517 $685 $519 $611 forward $607 $-1 #
loop $-1 $-1 $605 $687 #
vertex $-1 $518 $688 #
ellipse-curve $-1 7.5749999999999993 0 0.5 0 1 0 0 0 -0.125 1 I I #
coedge $-1 $520 $519 $689 $690 forward $521 $-1 #
edge $-1 $691 0 $522 0.17999999999999999 $606 $692 forward 7 unknown #
edge $-1 $693 0 $523 0.17999999999999999 $520 $694 forward 7 unknown #
face $-1 $687 $521 $3 $-1 $695 reversed single #
point $-1 7.5749999999999993 0 0.625 #
point $-1 8.1999999999999993 0 0.625 #
coedge $-1 $696 $525 $528 $621 reversed $618 $-1 #
coedge $-1 $525 $696 $532 $625 forward $618 $-1 #
loop $-1 $-1 $616 $645 #
straight-curve $-1 7.0499999999999998 0 0.375 -1 0 0 I I #
coedge $-1 $528 $527 $697 $698 forward $529 $-1 #
edge $-1 $699 0 $530 0.17999999999999999 $528 $700 forward 7 unknown #
face $-1 $540 $529 $3 $-1 $701 reversed single #
point $-1 7.0499999999999998 0 0.375 #
coedge $-1 $533 $532 $702 $703 forward $534 $-1 #
edge $-1 $704 0 $535 0.17999999999999999 $532 $705 forward 7 unknown #
face $-1 $706 $534 $3 $-1 $707 reversed single #
point $-1 6.4249999999999998 0 0.375 #
coedge $-1 $702 $697 $537 $629 reversed $583 $-1 #
edge $-1 $630 0 $632 0.62499999999999911 $628 $708 forward 7 unknown #
vertex $-1 $703 $709 #
straight-curve $-1 6.4249999999999998 0.17999999999999999 0.625 0 -1 0 I I #
vertex $-1 $629 $710 #
straight-curve $-1 7.0499999999999998 0.17999999999999999 0.625 0 -1 0 I I #
plane-surface $-1 6.4249999999999998 0.17999999999999999 0.625 0 0 1 1 0 0 forward_v I I I I #
coedge $-1 $544 $543 $584 $657 forward $545 $-1 #
coedge $-1 $555 $584 $547 $637 reversed $506 $-1 #
edge $-1 $559 -7.1054273576010019e-015 $638 3.141592653589786 $636 $711 forward 7 unknown #
vertex $-1 $637 $712 #
straight-curve $-1 5.8999999999999995 0.17999999999999999 0.375 0 -1 0 I I #
cone-surface $-1 5.8999999999999995 0.17999999999999999 0.5 0 1 0 0.125 0 0 1 I I 0 1 0.125 forward I I I I #
coedge $-1 $584 $555 $551 $642 reversed $506 $-1 #
edge $-1 $643 0 $557 3.1415926535898073 $641 $713 forward 7 unknown #
vertex $-1 $642 $714 #
straight-curve $-1 5.2749999999999995 0.17999999999999999 0.375 0 -1 0 I I #
face $-1 $622 $618 $3 $-1 $715 reversed single #
cone-surface $-1 5.2749999999999995 0.17999999999999999 0.5 0 1 0 0.125 0 0 1 I I 0 1 0.125 forward I I I I #
straight-curve $-1 5.2750000000000004 0.17999999999999999 0.625 1 0 0 I I #
point $-1 5.2750000000000004 0.17999999999999999 0.625 #
point $-1 5.8999999999999995 0.17999999999999999 0.625 #
ellipse-curve $-1 4.75 0.17999999999999999 0.5 0 1 0 0 0 0.125 1 I I #
point $-1 4.75 0.17999999999999999 0.375 #
ellipse-curve $-1 4.125 0.17999999999999999 0.5 0 1 0 0 0 -0.125 1 I I #
point $-1 4.125 0.17999999999999999 0.375 #
plane-surface $-1 5.8999999999999995 0.17999999999999999 0.375 0 0 -1 -1 0 0 forward_v I I I I #
loop $-1 $716 $717 $103 #
coedge $-1 $697 $702 $696 $718 reversed $583 $-1 #
edge $-1 $638 8.8817841970012523e-016 $643 0.625 $584 $719 forward 7 unknown #
straight-curve $-1 4.75 0.17999999999999999 0.375 -1 0 0 I I #
coedge $-1 $720 $721 $587 $660 reversed $722 $-1 #
edge $-1 $664 0 $669 0.625 $587 $723 forward 7 unknown #
coedge $-1 $724 $588 $593 $673 reversed $663 $-1 #
coedge $-1 $588 $724 $720 $725 forward $663 $-1 #
loop $-1 $-1 $661 $726 #
vertex $-1 $660 $727 #
ellipse-curve $-1 9.3499999999999996 0 0.5 0 1 0 0 0 0.125 1 I I #
coedge $-1 $728 $590 $721 $729 reversed $668 $-1 #
coedge $-1 $590 $728 $592 $672 forward $668 $-1 #
loop $-1 $-1 $666 $730 #
vertex $-1 $591 $731 #
ellipse-curve $-1 8.7249999999999996 0 0.5 0 1 0 0 0 -0.125 1 I I #
coedge $-1 $593 $592 $732 $733 forward $594 $-1 #
edge $-1 $734 0 $595 0.17999999999999999 $667 $735 forward 7 unknown #
edge $-1 $736 0 $596 0.17999999999999999 $593 $737 forward 7 unknown #
face $-1 $730 $594 $3 $-1 $738 reversed single #
point $-1 8.7249999999999996 0 0.625 #
point $-1 9.3499999999999996 0 0.625 #
coedge $-1 $739 $598 $601 $682 reversed $679 $-1 #
coedge $-1 $598 $739 $605 $686 forward $679 $-1 #
loop $-1 $-1 $677 $706 #
straight-curve $-1 8.1999999999999993 0 0.375 -1 0 0 I I #
coedge $-1 $601 $600 $740 $741 forward $602 $-1 #
edge $-1 $742 0 $603 0.17999999999999999 $601 $743 forward 7 unknown #
face $-1 $613 $602 $3 $-1 $744 reversed single #
point $-1 8.1999999999999993 0 0.375 #
coedge $-1 $606 $605 $745 $746 forward $607 $-1 #
edge $-1 $747 0 $608 0.17999999999999999 $605 $748 forward 7 unknown #
face $-1 $749 $607 $3 $-1 $750 reversed single #
point $-1 7.5749999999999993 0 0.375 #
coedge $-1 $745 $740 $610 $690 reversed $655 $-1 #
edge $-1 $691 0 $693 0.62499999999999911 $689 $751 forward 7 unknown #
vertex $-1 $746 $752 #
straight-curve $-1 7.5749999999999993 0.17999999999999999 0.625 0 -1 0 I I #
vertex $-1 $690 $753 #
straight-curve $-1 8.1999999999999993 0.17999999999999999 0.625 0 -1 0 I I #
plane-surface $-1 7.5749999999999993 0.17999999999999999 0.625 0 0 1 1 0 0 forward_v I I I I #
coedge $-1 $617 $616 $656 $718 forward $618 $-1 #
coedge $-1 $628 $656 $620 $698 reversed $583 $-1 #
edge $-1 $632 -7.1054273576010019e-015 $699 3.141592653589786 $697 $754 forward 7 unknown #
vertex $-1 $698 $755 #
straight-curve $-1 7.0499999999999998 0.17999999999999999 0.375 0 -1 0 I I #
cone-surface $-1 7.0499999999999998 0.17999999999999999 0.5 0 1 0 0.125 0 0 1 I I 0 1 0.125 forward I I I I #
coedge $-1 $656 $628 $624 $703 reversed $583 $-1 #
edge $-1 $704 0 $630 3.1415926535898073 $702 $756 forward 7 unknown #
vertex $-1 $703 $757 #
straight-curve $-1 6.4249999999999998 0.17999999999999999 0.375 0 -1 0 I I #
face $-1 $683 $679 $3 $-1 $758 reversed single #
cone-surface $-1 6.4249999999999998 0.17999999999999999 0.5 0 1 0 0.125 0 0 1 I I 0 1 0.125 forward I I I I #
straight-curve $-1 6.4250000000000007 0.17999999999999999 0.625 1 0 0 I I #
point $-1 6.4250000000000007 0.17999999999999999 0.625 #
point $-1 7.0499999999999998 0.17999999999999999 0.625 #
ellipse-curve $-1 5.8999999999999995 0.17999999999999999 0.5 0 1 0 8.8817841970012523e-016 0 0.125 1 I I #
point $-1 5.8999999999999995 0.17999999999999999 0.375 #
ellipse-curve $-1 5.2749999999999995 0.17999999999999999 0.5 0 1 0 8.8817841970012523e-016 0 -0.125 1 I I #
point $-1 5.2750000000000004 0.17999999999999999 0.375 #
plane-surface $-1 7.0499999999999998 0.17999999999999999 0.375 0 0 -1 -1 0 0 forward_v I I I I #
loop $-1 $57 $759 $103 #
coedge $-1 $740 $745 $739 $760 reversed $655 $-1 #
edge $-1 $699 8.8817841970012523e-016 $704 0.625 $656 $761 forward 7 unknown #
straight-curve $-1 5.9000000000000004 0.17999999999999999 0.375 -1 0 0 I I #
coedge $-1 $762 $659 $662 $725 reversed $722 $-1 #
coedge $-1 $659 $762 $666 $729 forward $722 $-1 #
loop $-1 $-1 $720 $749 #
straight-curve $-1 9.3499999999999996 0 0.375 -1 0 0 I I #
coedge $-1 $662 $661 $763 $764 forward $663 $-1 #
edge $-1 $765 0 $664 0.17999999999999999 $662 $766 forward 7 unknown #
face $-1 $674 $663 $3 $-1 $767 reversed single #
point $-1 9.3499999999999996 0 0.375 #
coedge $-1 $667 $666 $768 $769 forward $668 $-1 #
edge $-1 $770 0 $669 0.17999999999999999 $666 $771 forward 7 unknown #
face $-1 $148 $668 $3 $-1 $772 reversed single #
point $-1 8.7249999999999996 0 0.375 #
coedge $-1 $768 $763 $671 $733 reversed $716 $-1 #
edge $-1 $734 0 $736 0.625 $732 $773 forward 7 unknown #
vertex $-1 $769 $774 #
straight-curve $-1 8.7249999999999996 0.17999999999999999 0.625 0 -1 0 I I #
vertex $-1 $733 $775 #
straight-curve $-1 9.3499999999999996 0.17999999999999999 0.625 0 -1 0 I I #
plane-surface $-1 8.7249999999999996 0.17999999999999999 0.625 0 0 1 1 0 0 forward_v I I I I #
coedge $-1 $678 $677 $717 $760 forward $679 $-1 #
coedge $-1 $689 $717 $681 $741 reversed $655 $-1 #
edge $-1 $693 0 $742 3.1415926535897931 $740 $776 forward 7 unknown #
vertex $-1 $741 $777 #
straight-curve $-1 8.1999999999999993 0.17999999999999999 0.375 0 -1 0 I I #
cone-surface $-1 8.1999999999999993 0.17999999999999999 0.5 0 1 0 0.125 0 0 1 I I 0 1 0.125 forward I I I I #
coedge $-1 $717 $689 $685 $746 reversed $655 $-1 #
edge $-1 $747 0 $691 3.1415926535898073 $745 $778 forward 7 unknown #
vertex $-1 $746 $779 #
straight-curve $-1 7.5749999999999993 0.17999999999999999 0.375 0 -1 0 I I #
face $-1 $726 $722 $3 $-1 $780 reversed single #
cone-surface $-1 7.5749999999999993 0.17999999999999999 0.5 0 1 0 0.125 0 0 1 I I 0 1 0.125 forward I I I I #
straight-curve $-1 7.5750000000000002 0.17999999999999999 0.625 1 0 0 I I #
point $-1 7.5750000000000002 0.17999999999999999 0.625 #
point $-1 8.1999999999999993 0.17999999999999999 0.625 #
ellipse-curve $-1 7.0499999999999998 0.17999999999999999 0.5 0 1 0 8.8817841970012523e-016 0 0.125 1 I I #
point $-1 7.0499999999999998 0.17999999999999999 0.375 #
ellipse-curve $-1 6.4249999999999998 0.17999999999999999 0.5 0 1 0 8.8817841970012523e-016 0 -0.125 1 I I #
point $-1 6.4250000000000007 0.17999999999999999 0.375 #
plane-surface $-1 8.1999999999999993 0.17999999999999999 0.375 0 0 -1 -1 0 0 forward_v I I I I #
coedge $-1 $763 $768 $762 $781 reversed $716 $-1 #
edge $-1 $742 0 $747 0.62499999999999911 $717 $782 forward 7 unknown #
straight-curve $-1 7.0500000000000007 0.17999999999999999 0.375 -1 0 0 I I #
coedge $-1 $721 $720 $759 $781 forward $722 $-1 #
coedge $-1 $732 $759 $724 $764 reversed $716 $-1 #
edge $-1 $736 0 $765 3.1415926535897931 $763 $783 forward 7 unknown #
vertex $-1 $764 $784 #
straight-curve $-1 9.3499999999999996 0.17999999999999999 0.375 0 -1 0 I I #
cone-surface $-1 9.3499999999999996 0.17999999999999999 0.5 0 1 0 0.125 0 0 1 I I 0 1 0.125 forward I I I I #
coedge $-1 $759 $732 $728 $769 reversed $716 $-1 #
edge $-1 $770 0 $734 3.1415926535897931 $768 $785 forward 7 unknown #
vertex $-1 $769 $786 #
straight-curve $-1 8.7249999999999996 0.17999999999999999 0.375 0 -1 0 I I #
cone-surface $-1 8.7249999999999996 0.17999999999999999 0.5 0 1 0 0.125 0 0 1 I I 0 1 0.125 forward I I I I #
straight-curve $-1 8.7249999999999996 0.17999999999999999 0.625 1 0 0 I I #
point $-1 8.7249999999999996 0.17999999999999999 0.625 #
point $-1 9.3499999999999996 0.17999999999999999 0.625 #
ellipse-curve $-1 8.1999999999999993 0.17999999999999999 0.5 0 1 0 0 0 0.125 1 I I #
point $-1 8.1999999999999993 0.17999999999999999 0.375 #
ellipse-curve $-1 7.5749999999999993 0.17999999999999999 0.5 0 1 0 8.8817841970012523e-016 0 -0.125 1 I I #
point $-1 7.5750000000000002 0.17999999999999999 0.375 #
plane-surface $-1 9.3499999999999996 0.17999999999999999 0.375 0 0 -1 -1 0 0 forward_v I I I I #
edge $-1 $765 0 $770 0.625 $759 $787 forward 7 unknown #
straight-curve $-1 8.1999999999999993 0.17999999999999999 0.375 -1 0 0 I I #
ellipse-curve $-1 9.3499999999999996 0.17999999999999999 0.5 0 1 0 0 0 0.125 1 I I #
point $-1 9.3499999999999996 0.17999999999999999 0.375 #
ellipse-curve $-1 8.7249999999999996 0.17999999999999999 0.5 0 1 0 0 0 -0.125 1 I I #
point $-1 8.7249999999999996 0.17999999999999999 0.375 #
straight-curve $-1 9.3499999999999996 0.17999999999999999 0.375 -1 0 0 I I #
End-of-ACIS-data 