600 0 1 0           
108 GICL Pro/E ACIS Translator - Source: f:/data5/repository/PTC/V18/process_mfg18/models/clamp_slider.prt - 6 0 13 ACIS 6.0.3 NT 24 Thu Apr 04 13:30:48 2002 
1 9.9999999999999995e-007 1e-010 
body $-1 $1 $-1 $2 #
lump $-1 $-1 $3 $0 #
transform $-1 1 0 0 0 1 0 0 0 1 0 0 0 25.399999999999999 no_rotate no_reflect no_shear #
shell $-1 $-1 $-1 $4 $-1 $1 #
face $-1 $5 $6 $3 $-1 $7 reversed single #
face $-1 $8 $9 $3 $-1 $10 forward single #
loop $-1 $-1 $11 $4 #
plane-surface $-1 0 0 -3.5 0 0 1 1 0 0 forward_v I I I I #
face $-1 $12 $13 $3 $-1 $14 forward single #
loop $-1 $-1 $15 $5 #
plane-surface $-1 -1 1 -3.5 0 1 0 -1 0 0 forward_v I I I I #
coedge $-1 $16 $17 $18 $19 reversed $6 $-1 #
face $-1 $20 $21 $3 $-1 $22 forward single #
loop $-1 $-1 $23 $8 #
plane-surface $-1 -1.5 1 -3.5 -1 0 0 0 -1 0 forward_v I I I I #
coedge $-1 $24 $18 $25 $26 forward $9 $-1 #
coedge $-1 $27 $11 $28 $29 reversed $6 $-1 #
coedge $-1 $11 $30 $31 $32 reversed $6 $-1 #
coedge $-1 $15 $33 $11 $19 forward $9 $-1 #
edge $-1 $34 0 $35 0.5 $11 $36 forward 7 unknown #
face $-1 $37 $38 $3 $-1 $39 forward single #
loop $-1 $40 $41 $12 #
plane-surface $-1 -1.5 0 -3.5 0 -1 0 1 0 0 forward_v I I I I #
coedge $-1 $42 $31 $43 $44 forward $13 $-1 #
coedge $-1 $33 $15 $45 $46 reversed $9 $-1 #
coedge $-1 $31 $42 $15 $26 reversed $13 $-1 #
edge $-1 $35 0 $47 7 $25 $48 forward 7 unknown #
coedge $-1 $49 $16 $50 $51 reversed $6 $-1 #
coedge $-1 $52 $53 $16 $29 forward $54 $-1 #
edge $-1 $55 0 $34 0.17999999999999994 $16 $56 forward 7 unknown #
coedge $-1 $17 $57 $58 $59 reversed $6 $-1 #
coedge $-1 $23 $25 $17 $32 forward $13 $-1 #
edge $-1 $35 0 $60 1 $17 $61 forward 7 unknown #
coedge $-1 $18 $24 $52 $62 reversed $9 $-1 #
vertex $-1 $29 $63 #
vertex $-1 $32 $64 #
straight-curve $-1 -1 1 -3.5 -1 0 0 I I #
face $-1 $65 $66 $3 $-1 $67 forward single #
loop $-1 $-1 $68 $20 #
plane-surface $-1 1.5 0 -3.5 1 0 0 0 1 0 forward_v I I I I #
loop $-1 $69 $70 $12 #
coedge $-1 $71 $58 $72 $73 forward $21 $-1 #
coedge $-1 $25 $23 $74 $75 reversed $13 $-1 #
coedge $-1 $58 $71 $23 $44 reversed $21 $-1 #
edge $-1 $60 0 $76 7 $23 $77 forward 7 unknown #
coedge $-1 $74 $78 $24 $46 forward $79 $-1 #
edge $-1 $80 0 $47 0.5 $45 $81 forward 7 unknown #
vertex $-1 $75 $82 #
straight-curve $-1 -1.5 1 -3.5 0 0 1 I I #
coedge $-1 $83 $27 $84 $85 reversed $6 $-1 #
coedge $-1 $86 $87 $27 $51 forward $88 $-1 #
edge $-1 $89 0 $55 2 $27 $90 forward 7 unknown #
coedge $-1 $91 $28 $33 $62 forward $54 $-1 #
coedge $-1 $28 $91 $86 $92 reversed $54 $-1 #
loop $-1 $-1 $52 $93 #
vertex $-1 $51 $94 #
straight-curve $-1 -1 1.1799999999999999 -3.5 0 -1 0 I I #
coedge $-1 $30 $83 $95 $96 reversed $6 $-1 #
coedge $-1 $41 $43 $30 $59 forward $21 $-1 #
edge $-1 $60 0 $97 3 $30 $98 forward 7 unknown #
vertex $-1 $32 $99 #
straight-curve $-1 -1.5 1 -3.5 0 -1 0 I I #
edge $-1 $34 0 $80 7 $52 $100 forward 7 unknown #
point $-1 -1 1 -3.5 #
point $-1 -1.5 1 -3.5 #
face $-1 $101 $102 $3 $-1 $103 forward single #
loop $-1 $-1 $104 $37 #
plane-surface $-1 1.5 1 -3.5 0 1 0 -1 0 0 forward_v I I I I #
coedge $-1 $105 $95 $106 $107 forward $38 $-1 #
loop $-1 $-1 $108 $12 #
coedge $-1 $109 $110 $111 $112 reversed $40 $-1 #
coedge $-1 $43 $41 $113 $114 reversed $21 $-1 #
coedge $-1 $95 $105 $41 $73 reversed $38 $-1 #
edge $-1 $97 0 $115 7 $41 $116 forward 7 unknown #
coedge $-1 $113 $45 $42 $75 forward $79 $-1 #
edge $-1 $47 0 $76 1 $74 $117 forward 7 unknown #
vertex $-1 $75 $118 #
straight-curve $-1 -1.5 0 -3.5 0 0 1 I I #
coedge $-1 $45 $119 $91 $120 forward $79 $-1 #
loop $-1 $-1 $113 $121 #
vertex $-1 $46 $122 #
straight-curve $-1 -1 1 3.5 -1 0 0 I I #
point $-1 -1.5 1 3.5 #
coedge $-1 $57 $49 $123 $124 reversed $6 $-1 #
coedge $-1 $125 $126 $49 $85 forward $102 $-1 #
edge $-1 $127 0 $89 0.17999999999999994 $49 $128 forward 7 unknown #
coedge $-1 $129 $50 $53 $92 forward $88 $-1 #
coedge $-1 $50 $129 $125 $130 reversed $88 $-1 #
loop $-1 $131 $86 $101 #
vertex $-1 $85 $132 #
straight-curve $-1 1 1.1799999999999999 -3.5 -1 0 0 I I #
coedge $-1 $53 $52 $78 $120 reversed $54 $-1 #
edge $-1 $55 0 $133 7 $86 $134 forward 7 unknown #
face $-1 $121 $54 $3 $-1 $135 forward single #
point $-1 -1 1.1799999999999999 -3.5 #
coedge $-1 $68 $72 $57 $96 forward $38 $-1 #
edge $-1 $97 0 $136 1 $57 $137 forward 7 unknown #
vertex $-1 $59 $138 #
straight-curve $-1 -1.5 0 -3.5 1 0 0 I I #
point $-1 -1.5 0 -3.5 #
straight-curve $-1 -1 1 -3.5 0 0 1 I I #
face $-1 $139 $140 $3 $-1 $141 forward single #
loop $-1 $-1 $125 $65 #
plane-surface $-1 1 1 -3.5 1 0 0 0 1 0 forward_v I I I I #
coedge $-1 $142 $123 $126 $143 forward $66 $-1 #
coedge $-1 $72 $68 $144 $145 reversed $38 $-1 #
coedge $-1 $123 $142 $68 $107 reversed $66 $-1 #
edge $-1 $136 0 $146 7 $68 $147 forward 7 unknown #
coedge $-1 $148 $149 $150 $151 forward $69 $-1 #
coedge $-1 $152 $70 $153 $154 reversed $40 $-1 #
coedge $-1 $70 $152 $155 $156 forward $40 $-1 #
coedge $-1 $157 $158 $70 $112 forward $159 $-1 #
edge $-1 $160 0 $161 0.5 $70 $162 forward 7 unknown #
coedge $-1 $144 $74 $71 $114 forward $79 $-1 #
edge $-1 $76 0 $115 3 $113 $163 forward 7 unknown #
vertex $-1 $145 $164 #
straight-curve $-1 1.5 0 -3.5 0 0 1 I I #
straight-curve $-1 -1.5 1 3.5 0 -1 0 I I #
point $-1 -1.5 0 3.5 #
coedge $-1 $78 $165 $129 $166 forward $79 $-1 #
edge $-1 $133 0 $80 0.17999999999999994 $78 $167 forward 7 unknown #
face $-1 $168 $79 $3 $-1 $169 forward single #
point $-1 -1 1 3.5 #
coedge $-1 $104 $106 $83 $124 forward $66 $-1 #
edge $-1 $136 0 $127 0.5 $83 $170 forward 7 unknown #
coedge $-1 $171 $84 $87 $130 forward $102 $-1 #
coedge $-1 $84 $171 $104 $143 reversed $102 $-1 #
vertex $-1 $124 $172 #
straight-curve $-1 1 1 -3.5 0 1 0 I I #
coedge $-1 $87 $86 $119 $166 reversed $88 $-1 #
edge $-1 $89 0 $173 7 $125 $174 forward 7 unknown #
loop $-1 $-1 $175 $101 #
point $-1 1 1.1799999999999999 -3.5 #
vertex $-1 $120 $176 #
straight-curve $-1 -1 1.1799999999999999 -3.5 0 0 1 I I #
plane-surface $-1 -1 1.1799999999999999 -3.5 -1 0 0 0 -1 0 forward_v I I I I #
vertex $-1 $96 $177 #
straight-curve $-1 1.5 0 -3.5 0 1 0 I I #
point $-1 1.5 0 -3.5 #
face $-1 $178 $179 $3 $-1 $180 reversed single #
loop $-1 $181 $182 $101 #
plane-surface $-1 1 1.1799999999999999 -3.5 0 1 0 -1 0 0 forward_v I I I I #
coedge $-1 $106 $104 $183 $184 reversed $66 $-1 #
edge $-1 $127 0 $185 7 $104 $186 forward 7 unknown #
coedge $-1 $183 $113 $105 $145 forward $79 $-1 #
edge $-1 $115 0 $146 1 $144 $187 forward 7 unknown #
vertex $-1 $184 $188 #
straight-curve $-1 1.5 1 -3.5 0 0 1 I I #
coedge $-1 $189 $108 $190 $191 forward $69 $-1 #
coedge $-1 $108 $189 $192 $193 reversed $69 $-1 #
coedge $-1 $194 $195 $108 $151 reversed $196 $-1 #
edge $-1 $197 0 $198 0.5 $108 $199 forward 7 unknown #
coedge $-1 $110 $109 $200 $201 forward $40 $-1 #
coedge $-1 $202 $203 $109 $154 forward $204 $-1 #
edge $-1 $205 0 $160 2.5 $109 $206 forward 7 unknown #
coedge $-1 $207 $208 $110 $156 reversed $209 $-1 #
edge $-1 $210 0 $161 2.5 $110 $211 forward 7 unknown #
coedge $-1 $212 $111 $208 $213 forward $159 $-1 #
coedge $-1 $111 $214 $202 $215 forward $159 $-1 #
loop $-1 $-1 $212 $216 #
vertex $-1 $154 $217 #
vertex $-1 $156 $218 #
straight-curve $-1 1.25 0 2.25 0 0 1 I I #
straight-curve $-1 -1.5 0 3.5 1 0 0 I I #
point $-1 1.5 0 3.5 #
coedge $-1 $119 $183 $171 $219 forward $79 $-1 #
edge $-1 $173 0 $133 2 $119 $220 forward 7 unknown #
straight-curve $-1 -1 1.1799999999999999 3.5 0 -1 0 I I #
face $-1 $221 $222 $3 $-1 $223 reversed single #
plane-surface $-1 0 0 3.5 0 0 1 1 0 0 forward_v I I I I #
straight-curve $-1 1.5 1 -3.5 -1 0 0 I I #
coedge $-1 $126 $125 $165 $219 reversed $102 $-1 #
point $-1 1 1 -3.5 #
vertex $-1 $166 $224 #
straight-curve $-1 1 1.1799999999999999 -3.5 0 0 1 I I #
coedge $-1 $225 $225 $226 $227 forward $131 $-1 #
point $-1 -1 1.1799999999999999 3.5 #
point $-1 1.5 1 -3.5 #
face $-1 $228 $229 $3 $-1 $230 reversed single #
loop $-1 $-1 $231 $139 #
cone-surface $-1 0.63 1.1799999999999999 -2.5 0 -1 0 0.125 0 0 1 I I 0 1 0.125 forward I I I I #
loop $-1 $232 $233 $101 #
coedge $-1 $234 $234 $235 $236 forward $140 $-1 #
coedge $-1 $165 $144 $142 $184 forward $79 $-1 #
edge $-1 $146 0 $185 0.5 $183 $237 forward 7 unknown #
vertex $-1 $219 $238 #
straight-curve $-1 1 1 -3.5 0 0 1 I I #
straight-curve $-1 1.5 0 3.5 0 1 0 I I #
point $-1 1.5 1 3.5 #
coedge $-1 $149 $148 $239 $240 reversed $69 $-1 #
coedge $-1 $241 $242 $148 $191 reversed $243 $-1 #
edge $-1 $198 0 $244 2.5 $148 $245 forward 7 unknown #
coedge $-1 $246 $247 $149 $193 forward $248 $-1 #
edge $-1 $197 0 $249 2.5 $149 $250 forward 7 unknown #
coedge $-1 $251 $150 $247 $252 forward $196 $-1 #
coedge $-1 $150 $253 $241 $254 forward $196 $-1 #
loop $-1 $-1 $251 $255 #
vertex $-1 $193 $256 #
vertex $-1 $191 $257 #
straight-curve $-1 -1.25 0 -2.75 0 0 1 I I #
coedge $-1 $258 $259 $152 $201 reversed $260 $-1 #
edge $-1 $205 0 $210 0.5 $152 $261 forward 7 unknown #
coedge $-1 $262 $153 $158 $215 reversed $204 $-1 #
coedge $-1 $153 $262 $258 $263 reversed $204 $-1 #
loop $-1 $-1 $202 $264 #
vertex $-1 $201 $265 #
straight-curve $-1 -1.25 0 2.25 1 0 0 I I #
coedge $-1 $266 $155 $259 $267 reversed $209 $-1 #
coedge $-1 $155 $266 $157 $213 reversed $209 $-1 #
loop $-1 $-1 $207 $268 #
vertex $-1 $156 $269 #
straight-curve $-1 -1.25 0 2.75 1 0 0 I I #
coedge $-1 $270 $157 $271 $272 forward $159 $-1 #
edge $-1 $161 0 $273 0.53000000000000003 $157 $274 forward 7 unknown #
coedge $-1 $158 $275 $276 $277 forward $159 $-1 #
edge $-1 $278 0 $160 0.53000000000000003 $158 $279 forward 7 unknown #
face $-1 $280 $159 $3 $-1 $281 forward single #
point $-1 1.25 0 2.25 #
point $-1 1.25 0 2.75 #
edge $-1 $185 0 $173 0.17999999999999994 $165 $282 forward 7 unknown #
straight-curve $-1 1 1.1799999999999999 3.5 -1 0 0 I I #
face $-1 $283 $284 $3 $-1 $285 reversed single #
loop $-1 $-1 $286 $168 #
cone-surface $-1 -0.62 1.1799999999999999 2.5 0 -1 0 0.125 0 0 1 I I 0 1 0.125 forward I I I I #
point $-1 1 1.1799999999999999 3.5 #
coedge $-1 $175 $175 $287 $288 forward $131 $-1 #
coedge $-1 $286 $289 $175 $227 reversed $222 $-1 #
edge $-1 $290 0 $291 3.1415926535897931 $175 $292 forward 7 unknown #
face $-1 $293 $294 $3 $-1 $295 reversed single #
loop $-1 $-1 $296 $178 #
cone-surface $-1 0.63 1.1799999999999999 -2.5 0 -1 0 0.125 0 0 1 I I 0 1 0.125 forward I I I I #
coedge $-1 $297 $235 $298 $299 forward $179 $-1 #
loop $-1 $88 $300 $101 #
coedge $-1 $301 $301 $302 $303 forward $181 $-1 #
coedge $-1 $182 $182 $304 $305 forward $140 $-1 #
coedge $-1 $231 $306 $182 $236 reversed $179 $-1 #
edge $-1 $307 0 $308 3.1415926535897931 $182 $309 forward 7 unknown #
straight-curve $-1 1.5 1 3.5 -1 0 0 I I #
point $-1 1 1 3.5 #
coedge $-1 $310 $311 $189 $240 forward $312 $-1 #
edge $-1 $249 0 $244 0.5 $189 $313 forward 7 unknown #
coedge $-1 $314 $190 $195 $254 reversed $243 $-1 #
coedge $-1 $190 $314 $310 $315 reversed $243 $-1 #
loop $-1 $-1 $241 $316 #
vertex $-1 $240 $317 #
straight-curve $-1 -1.25 0 -2.25 1 0 0 I I #
coedge $-1 $318 $192 $311 $319 reversed $248 $-1 #
coedge $-1 $192 $318 $194 $252 reversed $248 $-1 #
loop $-1 $-1 $246 $320 #
vertex $-1 $193 $321 #
straight-curve $-1 -1.25 0 -2.75 1 0 0 I I #
coedge $-1 $322 $194 $323 $324 forward $196 $-1 #
edge $-1 $197 0 $325 0.53000000000000003 $194 $326 forward 7 unknown #
coedge $-1 $195 $327 $328 $329 forward $196 $-1 #
edge $-1 $330 0 $198 0.53000000000000003 $195 $331 forward 7 unknown #
face $-1 $332 $196 $3 $-1 $333 forward single #
point $-1 -1.25 0 -2.75 #
point $-1 -1.25 0 -2.25 #
coedge $-1 $334 $200 $203 $263 forward $260 $-1 #
coedge $-1 $200 $335 $207 $267 forward $260 $-1 #
loop $-1 $-1 $200 $336 #
straight-curve $-1 -1.25 0 2.25 0 0 1 I I #
coedge $-1 $203 $202 $337 $338 forward $204 $-1 #
edge $-1 $205 0 $339 0.53000000000000003 $258 $340 forward 7 unknown #
face $-1 $336 $204 $3 $-1 $341 forward single #
point $-1 -1.25 0 2.25 #
coedge $-1 $208 $207 $342 $343 reversed $209 $-1 #
edge $-1 $344 0 $210 0.53000000000000003 $259 $345 forward 7 unknown #
face $-1 $255 $209 $3 $-1 $346 forward single #
point $-1 -1.25 0 2.75 #
coedge $-1 $347 $212 $348 $349 forward $159 $-1 #
coedge $-1 $342 $350 $212 $272 reversed $351 $-1 #
edge $-1 $273 0 $352 0.47999999999999998 $212 $353 forward 7 unknown #
vertex $-1 $213 $354 #
straight-curve $-1 1.25 0 2.75 0 -1 0 I I #
coedge $-1 $214 $347 $355 $356 forward $159 $-1 #
coedge $-1 $357 $337 $214 $277 reversed $358 $-1 #
edge $-1 $359 0 $278 0.47999999999999998 $214 $360 forward 7 unknown #
vertex $-1 $215 $361 #
straight-curve $-1 1.25 -0.53000000000000003 2.25 0 1 0 I I #
face $-1 $362 $351 $3 $-1 $363 forward single #
plane-surface $-1 1.25 0 0 1 0 0 0 0 -1 forward_v I I I I #
straight-curve $-1 1 1 3.5 0 1 0 I I #
face $-1 $216 $364 $3 $-1 $365 reversed single #
loop $-1 $-1 $366 $221 #
cone-surface $-1 -0.62 1.1799999999999999 2.5 0 -1 0 0.125 0 0 1 I I 0 1 0.125 forward I I I I #
coedge $-1 $367 $226 $368 $369 forward $222 $-1 #
coedge $-1 $366 $368 $225 $288 reversed $284 $-1 #
edge $-1 $291 0 $290 3.1415926535897931 $225 $370 forward 7 unknown #
coedge $-1 $226 $367 $366 $371 reversed $222 $-1 #
vertex $-1 $288 $372 #
vertex $-1 $288 $373 #
ellipse-curve $-1 -0.62 1.1799999999999999 2.5 0 -1 0 -0.12500000000000011 0 0 1 I I #
face $-1 $374 $375 $3 $-1 $376 reversed single #
loop $-1 $-1 $377 $228 #
plane-surface $-1 0.63 0.17999999999999994 -2.5 0 -1 0 1 0 0 forward_v I I I I #
coedge $-1 $378 $304 $306 $379 forward $229 $-1 #
coedge $-1 $306 $231 $377 $380 forward $179 $-1 #
coedge $-1 $304 $378 $231 $299 reversed $229 $-1 #
edge $-1 $307 0 $381 1 $298 $382 forward 7 unknown #
coedge $-1 $383 $383 $384 $385 forward $232 $-1 #
coedge $-1 $233 $233 $386 $387 forward $181 $-1 #
coedge $-1 $388 $389 $233 $303 reversed $375 $-1 #
edge $-1 $390 0 $391 3.1415926535897931 $233 $392 forward 7 unknown #
coedge $-1 $296 $298 $234 $305 reversed $229 $-1 #
edge $-1 $308 0 $307 3.1415926535897931 $234 $393 forward 7 unknown #
coedge $-1 $235 $297 $296 $379 reversed $179 $-1 #
vertex $-1 $305 $394 #
vertex $-1 $305 $395 #
ellipse-curve $-1 0.63 1.1799999999999999 -2.5 0 -1 0 -0.12500000000000011 0 0 1 I I #
coedge $-1 $396 $239 $242 $315 forward $312 $-1 #
coedge $-1 $239 $397 $246 $319 forward $312 $-1 #
loop $-1 $-1 $239 $398 #
straight-curve $-1 1.25 0 -2.75 0 0 1 I I #
coedge $-1 $242 $241 $399 $400 reversed $243 $-1 #
edge $-1 $244 0 $401 0.53000000000000003 $310 $402 forward 7 unknown #
face $-1 $403 $243 $3 $-1 $404 reversed single #
point $-1 1.25 0 -2.25 #
coedge $-1 $247 $246 $405 $406 forward $248 $-1 #
edge $-1 $407 0 $249 0.53000000000000003 $311 $408 forward 7 unknown #
face $-1 $398 $248 $3 $-1 $409 reversed single #
point $-1 1.25 0 -2.75 #
coedge $-1 $410 $251 $411 $412 forward $196 $-1 #
coedge $-1 $405 $413 $251 $324 reversed $414 $-1 #
edge $-1 $325 0 $415 0.47999999999999998 $251 $416 forward 7 unknown #
vertex $-1 $252 $417 #
straight-curve $-1 -1.25 0 -2.75 0 -1 0 I I #
coedge $-1 $253 $410 $418 $419 forward $196 $-1 #
coedge $-1 $420 $399 $253 $329 reversed $421 $-1 #
edge $-1 $422 0 $330 0.47999999999999998 $253 $423 forward 7 unknown #
vertex $-1 $254 $424 #
straight-curve $-1 -1.25 -0.53000000000000003 -2.25 0 1 0 I I #
face $-1 $320 $414 $3 $-1 $425 reversed single #
plane-surface $-1 -1.25 0 0 -1 0 0 0 0 1 forward_v I I I I #
coedge $-1 $426 $258 $427 $428 forward $260 $-1 #
coedge $-1 $259 $429 $430 $431 forward $260 $-1 #
face $-1 $268 $260 $3 $-1 $432 reversed single #
coedge $-1 $276 $427 $262 $338 reversed $358 $-1 #
edge $-1 $278 0 $339 2.5 $337 $433 forward 7 unknown #
vertex $-1 $428 $434 #
straight-curve $-1 -1.25 0 2.25 0 -1 0 I I #
plane-surface $-1 -1.25 -0.53000000000000003 2.25 0 0 -1 0 1 0 forward_v I I I I #
coedge $-1 $430 $271 $266 $343 forward $351 $-1 #
edge $-1 $273 0 $344 2.5 $266 $435 forward 7 unknown #
vertex $-1 $267 $436 #
straight-curve $-1 -1.25 -0.53000000000000003 2.75 0 1 0 I I #
plane-surface $-1 -1.25 0 2.75 0 0 1 0 -1 0 forward_v I I I I #
coedge $-1 $275 $270 $437 $438 forward $159 $-1 #
coedge $-1 $439 $440 $270 $349 reversed $441 $-1 #
edge $-1 $352 0 $442 0.45999999999999996 $270 $443 forward 7 unknown #
coedge $-1 $271 $430 $439 $444 reversed $351 $-1 #
loop $-1 $-1 $350 $280 #
vertex $-1 $349 $445 #
straight-curve $-1 1.25 -0.53000000000000003 2.75 0 0 1 I I #
point $-1 1.25 -0.53000000000000003 2.75 #
coedge $-1 $446 $447 $275 $356 reversed $448 $-1 #
edge $-1 $449 0 $359 0.45999999999999996 $275 $450 forward 7 unknown #
coedge $-1 $427 $276 $447 $451 forward $358 $-1 #
loop $-1 $-1 $337 $452 #
vertex $-1 $277 $453 #
straight-curve $-1 1.25 -0.53000000000000003 1.77 0 0 1 I I #
point $-1 1.25 -0.53000000000000003 2.25 #
face $-1 $454 $441 $3 $-1 $455 forward single #
plane-surface $-1 -1.25 -0.53000000000000003 2.75 0 1 0 0 0 1 forward_v I I I I #
loop $-1 $-1 $456 $283 #
plane-surface $-1 -0.62 0.17999999999999994 2.5 0 -1 0 1 0 0 forward_v I I I I #
coedge $-1 $457 $287 $289 $371 forward $284 $-1 #
coedge $-1 $289 $286 $456 $458 forward $222 $-1 #
coedge $-1 $287 $457 $286 $369 reversed $284 $-1 #
edge $-1 $290 0 $459 1 $368 $460 forward 7 unknown #
ellipse-curve $-1 -0.62 1.1799999999999999 2.5 0 -1 0 0.12499999999999989 0 0 1 I I #
edge $-1 $291 0 $461 1 $366 $462 forward 7 unknown #
point $-1 -0.74500000000000011 1.1799999999999999 2.5 #
point $-1 -0.49500000000000011 1.1799999999999999 2.5 #
face $-1 $463 $464 $3 $-1 $465 reversed single #
loop $-1 $-1 $388 $293 #
cone-surface $-1 0.63 1.1799999999999999 2.5 0 -1 0 0.125 0 0 1 I I 0 1 0.125 forward I I I I #
coedge $-1 $466 $466 $297 $380 reversed $294 $-1 #
coedge $-1 $298 $296 $466 $467 forward $229 $-1 #
edge $-1 $308 0 $468 1 $296 $469 forward 7 unknown #
edge $-1 $381 0 $468 3.1415926535897931 $377 $470 forward 7 unknown #
vertex $-1 $467 $471 #
straight-curve $-1 0.505 1.1799999999999999 -2.5 0 -1 0 I I #
coedge $-1 $300 $300 $472 $473 forward $232 $-1 #
coedge $-1 $474 $475 $300 $385 reversed $476 $-1 #
edge $-1 $477 0 $478 3.1415926535897931 $300 $479 forward 7 unknown #
coedge $-1 $480 $481 $301 $387 reversed $464 $-1 #
edge $-1 $391 0 $390 3.1415926535897931 $301 $482 forward 7 unknown #
coedge $-1 $483 $302 $481 $484 forward $375 $-1 #
coedge $-1 $302 $483 $480 $485 reversed $375 $-1 #
vertex $-1 $387 $486 #
vertex $-1 $387 $487 #
ellipse-curve $-1 0.63 1.1799999999999999 2.5 0 -1 0 -0.12500000000000011 0 0 1 I I #
ellipse-curve $-1 0.63 1.1799999999999999 -2.5 0 -1 0 0.12499999999999989 0 0 1 I I #
point $-1 0.50499999999999989 1.1799999999999999 -2.5 #
point $-1 0.75499999999999989 1.1799999999999999 -2.5 #
coedge $-1 $488 $310 $489 $490 forward $312 $-1 #
coedge $-1 $311 $491 $492 $493 forward $312 $-1 #
face $-1 $316 $312 $3 $-1 $494 reversed single #
coedge $-1 $328 $489 $314 $400 forward $421 $-1 #
edge $-1 $401 0 $330 2.5 $399 $495 forward 7 unknown #
vertex $-1 $490 $496 #
straight-curve $-1 1.25 0 -2.25 0 -1 0 I I #
face $-1 $497 $421 $3 $-1 $498 reversed single #
plane-surface $-1 -1.25 -0.53000000000000003 -2.25 0 0 -1 0 1 0 forward_v I I I I #
coedge $-1 $492 $323 $318 $406 reversed $414 $-1 #
edge $-1 $407 0 $325 2.5 $318 $499 forward 7 unknown #
vertex $-1 $319 $500 #
straight-curve $-1 1.25 -0.53000000000000003 -2.75 0 1 0 I I #
plane-surface $-1 -1.25 0 -2.75 0 0 1 0 -1 0 forward_v I I I I #
coedge $-1 $327 $322 $501 $502 forward $196 $-1 #
coedge $-1 $503 $504 $322 $412 reversed $505 $-1 #
edge $-1 $415 0 $506 0.45999999999999996 $322 $507 forward 7 unknown #
coedge $-1 $323 $492 $503 $508 forward $414 $-1 #
loop $-1 $-1 $405 $332 #
vertex $-1 $412 $509 #
straight-curve $-1 -1.25 -0.53000000000000003 -2.75 0 0 -1 I I #
point $-1 -1.25 -0.53000000000000003 -2.75 #
coedge $-1 $510 $511 $327 $419 reversed $512 $-1 #
edge $-1 $513 0 $422 0.45999999999999996 $327 $514 forward 7 unknown #
coedge $-1 $489 $328 $511 $515 reversed $421 $-1 #
loop $-1 $-1 $420 $403 #
vertex $-1 $329 $516 #
straight-curve $-1 -1.25 -0.53000000000000003 -1.77 0 0 -1 I I #
point $-1 -1.25 -0.53000000000000003 -2.25 #
plane-surface $-1 -1.25 -0.53000000000000003 -2.75 0 -1 0 0 0 -1 forward_v I I I I #
coedge $-1 $517 $334 $518 $519 forward $260 $-1 #
coedge $-1 $337 $357 $334 $428 reversed $358 $-1 #
edge $-1 $339 0 $520 0.47999999999999998 $334 $521 forward 7 unknown #
coedge $-1 $335 $517 $522 $523 forward $260 $-1 #
coedge $-1 $350 $342 $335 $431 reversed $351 $-1 #
edge $-1 $524 0 $344 0.47999999999999998 $335 $525 forward 7 unknown #
plane-surface $-1 -1.25 0 0 1 0 0 0 0 -1 forward_v I I I I #
straight-curve $-1 1.25 -0.53000000000000003 2.25 -1 0 0 I I #
point $-1 -1.25 -0.53000000000000003 2.25 #
straight-curve $-1 1.25 -0.53000000000000003 2.75 -1 0 0 I I #
point $-1 -1.25 -0.53000000000000003 2.75 #
coedge $-1 $526 $527 $347 $438 reversed $528 $-1 #
edge $-1 $442 0 $449 1.46 $347 $529 forward 7 unknown #
coedge $-1 $522 $348 $350 $444 forward $441 $-1 #
coedge $-1 $348 $522 $526 $530 reversed $441 $-1 #
loop $-1 $-1 $440 $362 #
vertex $-1 $438 $531 #
straight-curve $-1 1.25 -0.53000000000000003 3.23 0 -1 0 I I #
edge $-1 $352 0 $524 2.5 $350 $532 forward 7 unknown #
point $-1 1.25 -0.53000000000000003 3.23 #
coedge $-1 $518 $355 $527 $533 forward $448 $-1 #
coedge $-1 $355 $518 $357 $451 reversed $448 $-1 #
loop $-1 $-1 $447 $534 #
vertex $-1 $356 $535 #
straight-curve $-1 1.25 -0.98999999999999999 1.77 0 1 0 I I #
edge $-1 $359 0 $520 2.5 $447 $536 forward 7 unknown #
face $-1 $264 $358 $3 $-1 $537 forward single #
point $-1 1.25 -0.53000000000000003 1.77 #
face $-1 $534 $528 $3 $-1 $538 forward single #
plane-surface $-1 -1.25 -0.53000000000000003 3.23 0 0 1 0 -1 0 forward_v I I I I #
coedge $-1 $539 $539 $367 $458 reversed $364 $-1 #
coedge $-1 $368 $366 $539 $540 forward $284 $-1 #
edge $-1 $459 0 $461 3.1415926535897931 $456 $541 forward 7 unknown #
vertex $-1 $540 $542 #
straight-curve $-1 -0.745 1.1799999999999999 2.5 0 -1 0 I I #
vertex $-1 $540 $543 #
straight-curve $-1 -0.495 1.1799999999999999 2.5 0 -1 0 I I #
face $-1 $544 $545 $3 $-1 $546 reversed single #
loop $-1 $-1 $480 $374 #
cone-surface $-1 0.63 1.1799999999999999 2.5 0 -1 0 0.125 0 0 1 I I 0 1 0.125 forward I I I I #
coedge $-1 $377 $377 $378 $467 reversed $294 $-1 #
edge $-1 $468 0 $381 3.1415926535897931 $466 $547 forward 7 unknown #
vertex $-1 $467 $548 #
straight-curve $-1 0.755 1.1799999999999999 -2.5 0 -1 0 I I #
ellipse-curve $-1 0.63 0.17999999999999994 -2.5 0 -1 0 -0.125 0 0 1 I I #
point $-1 0.505 0.17999999999999994 -2.5 #
coedge $-1 $549 $550 $383 $473 reversed $551 $-1 #
edge $-1 $478 0 $477 3.1415926535897931 $383 $552 forward 7 unknown #
coedge $-1 $553 $384 $550 $554 forward $476 $-1 #
coedge $-1 $384 $553 $549 $555 reversed $476 $-1 #
loop $-1 $-1 $474 $544 #
vertex $-1 $473 $556 #
vertex $-1 $473 $557 #
ellipse-curve $-1 -0.62 1.1799999999999999 -2.5 0 -1 0 -0.12500000000000011 0 0 1 I I #
coedge $-1 $558 $386 $389 $485 forward $464 $-1 #
coedge $-1 $386 $558 $388 $484 reversed $464 $-1 #
ellipse-curve $-1 0.63 1.1799999999999999 2.5 0 -1 0 0.12499999999999989 0 0 1 I I #
coedge $-1 $389 $388 $559 $560 forward $375 $-1 #
edge $-1 $390 0 $561 1 $481 $562 forward 7 unknown #
edge $-1 $391 0 $563 1 $480 $564 forward 7 unknown #
point $-1 0.50499999999999989 1.1799999999999999 2.5 #
point $-1 0.75499999999999989 1.1799999999999999 2.5 #
coedge $-1 $565 $396 $566 $567 forward $312 $-1 #
coedge $-1 $399 $420 $396 $490 reversed $421 $-1 #
edge $-1 $401 0 $568 0.47999999999999998 $396 $569 forward 7 unknown #
coedge $-1 $397 $565 $570 $571 forward $312 $-1 #
coedge $-1 $413 $405 $397 $493 reversed $414 $-1 #
edge $-1 $572 0 $407 0.47999999999999998 $397 $573 forward 7 unknown #
plane-surface $-1 1.25 0 0 -1 0 0 0 0 1 forward_v I I I I #
straight-curve $-1 1.25 -0.53000000000000003 -2.25 -1 0 0 I I #
point $-1 1.25 -0.53000000000000003 -2.25 #
face $-1 $574 $512 $3 $-1 $575 reversed single #
plane-surface $-1 -1.25 -0.53000000000000003 -1.77 0 -1 0 0 0 -1 forward_v I I I I #
straight-curve $-1 1.25 -0.53000000000000003 -2.75 -1 0 0 I I #
point $-1 1.25 -0.53000000000000003 -2.75 #
coedge $-1 $576 $577 $410 $502 reversed $578 $-1 #
edge $-1 $506 0 $513 1.46 $410 $579 forward 7 unknown #
coedge $-1 $570 $411 $413 $508 reversed $505 $-1 #
coedge $-1 $411 $570 $576 $580 forward $505 $-1 #
loop $-1 $-1 $503 $581 #
vertex $-1 $502 $582 #
straight-curve $-1 -1.25 -0.53000000000000003 -3.23 0 -1 0 I I #
edge $-1 $572 0 $415 2.5 $413 $583 forward 7 unknown #
point $-1 -1.25 -0.53000000000000003 -3.23 #
coedge $-1 $566 $418 $577 $584 reversed $512 $-1 #
coedge $-1 $418 $566 $420 $515 forward $512 $-1 #
loop $-1 $-1 $510 $497 #
vertex $-1 $419 $585 #
straight-curve $-1 -1.25 -0.98999999999999999 -1.77 0 1 0 I I #
edge $-1 $568 0 $422 2.5 $511 $586 forward 7 unknown #
point $-1 -1.25 -0.53000000000000003 -1.77 #
coedge $-1 $429 $426 $587 $588 forward $260 $-1 #
coedge $-1 $447 $446 $426 $519 reversed $448 $-1 #
edge $-1 $520 0 $589 0.45999999999999996 $426 $590 forward 7 unknown #
vertex $-1 $519 $591 #
straight-curve $-1 -1.25 -0.53000000000000003 2.25 0 0 -1 I I #
coedge $-1 $440 $439 $429 $523 reversed $441 $-1 #
edge $-1 $592 0 $524 0.45999999999999996 $429 $593 forward 7 unknown #
vertex $-1 $431 $594 #
straight-curve $-1 -1.25 -0.53000000000000003 3.23 0 0 -1 I I #
coedge $-1 $587 $437 $440 $530 forward $528 $-1 #
coedge $-1 $437 $587 $446 $533 reversed $528 $-1 #
loop $-1 $-1 $527 $454 #
straight-curve $-1 1.25 -0.98999999999999999 3.23 0 0 -1 I I #
edge $-1 $442 0 $592 2.5 $440 $595 forward 7 unknown #
point $-1 1.25 -0.98999999999999999 3.23 #
straight-curve $-1 1.25 -0.53000000000000003 3.23 -1 0 0 I I #
edge $-1 $449 0 $589 2.5 $527 $596 forward 7 unknown #
face $-1 $452 $448 $3 $-1 $597 forward single #
point $-1 1.25 -0.98999999999999999 1.77 #
straight-curve $-1 1.25 -0.53000000000000003 1.77 -1 0 0 I I #
plane-surface $-1 -1.25 -0.53000000000000003 1.77 0 1 0 0 0 1 forward_v I I I I #
plane-surface $-1 -1.25 -0.98999999999999999 3.23 0 -1 0 0 0 -1 forward_v I I I I #
coedge $-1 $456 $456 $457 $540 reversed $364 $-1 #
edge $-1 $461 0 $459 3.1415926535897931 $539 $598 forward 7 unknown #
ellipse-curve $-1 -0.62 0.17999999999999994 2.5 0 -1 0 -0.125 0 0 1 I I #
point $-1 -0.745 0.17999999999999994 2.5 #
point $-1 -0.495 0.17999999999999994 2.5 #
face $-1 $599 $476 $3 $-1 $600 reversed single #
loop $-1 $-1 $559 $463 #
plane-surface $-1 0.63 0.17999999999999994 2.5 0 -1 0 1 0 0 forward_v I I I I #
ellipse-curve $-1 0.63 0.17999999999999994 -2.5 0 -1 0 0.125 0 0 1 I I #
point $-1 0.755 0.17999999999999994 -2.5 #
coedge $-1 $601 $472 $475 $555 forward $551 $-1 #
coedge $-1 $472 $601 $474 $554 reversed $551 $-1 #
loop $-1 $-1 $549 $599 #
ellipse-curve $-1 -0.62 1.1799999999999999 -2.5 0 -1 0 0.12499999999999989 0 0 1 I I #
coedge $-1 $475 $474 $602 $603 forward $476 $-1 #
edge $-1 $477 0 $604 1 $550 $605 forward 7 unknown #
edge $-1 $478 0 $606 1 $549 $607 forward 7 unknown #
point $-1 -0.74500000000000011 1.1799999999999999 -2.5 #
point $-1 -0.49500000000000011 1.1799999999999999 -2.5 #
coedge $-1 $481 $480 $608 $609 forward $464 $-1 #
coedge $-1 $608 $608 $483 $560 reversed $545 $-1 #
edge $-1 $561 0 $563 3.1415926535897931 $559 $610 forward 7 unknown #
vertex $-1 $609 $611 #
straight-curve $-1 0.505 1.1799999999999999 2.5 0 -1 0 I I #
vertex $-1 $609 $612 #
straight-curve $-1 0.755 1.1799999999999999 2.5 0 -1 0 I I #
coedge $-1 $491 $488 $613 $614 forward $312 $-1 #
coedge $-1 $511 $510 $488 $567 reversed $512 $-1 #
edge $-1 $568 0 $615 0.45999999999999996 $488 $616 forward 7 unknown #
vertex $-1 $567 $617 #
straight-curve $-1 1.25 -0.53000000000000003 -2.25 0 0 1 I I #
coedge $-1 $504 $503 $491 $571 reversed $505 $-1 #
edge $-1 $618 0 $572 0.45999999999999996 $491 $619 forward 7 unknown #
vertex $-1 $493 $620 #
straight-curve $-1 1.25 -0.53000000000000003 -3.23 0 0 1 I I #
face $-1 $581 $578 $3 $-1 $621 reversed single #
plane-surface $-1 -1.25 -0.98999999999999999 -1.77 0 0 -1 0 1 0 forward_v I I I I #
coedge $-1 $613 $501 $504 $580 reversed $578 $-1 #
coedge $-1 $501 $613 $510 $584 forward $578 $-1 #
loop $-1 $-1 $576 $574 #
straight-curve $-1 -1.25 -0.98999999999999999 -3.23 0 0 1 I I #
edge $-1 $618 0 $506 2.5 $504 $622 forward 7 unknown #
face $-1 $-1 $505 $3 $-1 $623 reversed single #
point $-1 -1.25 -0.98999999999999999 -3.23 #
straight-curve $-1 1.25 -0.53000000000000003 -3.23 -1 0 0 I I #
edge $-1 $615 0 $513 2.5 $577 $624 forward 7 unknown #
point $-1 -1.25 -0.98999999999999999 -1.77 #
straight-curve $-1 1.25 -0.53000000000000003 -1.77 -1 0 0 I I #
coedge $-1 $527 $526 $517 $588 reversed $528 $-1 #
edge $-1 $589 0 $592 1.46 $517 $625 forward 7 unknown #
vertex $-1 $588 $626 #
straight-curve $-1 -1.25 -0.53000000000000003 1.77 0 -1 0 I I #
point $-1 -1.25 -0.53000000000000003 1.77 #
vertex $-1 $523 $627 #
straight-curve $-1 -1.25 -0.98999999999999999 3.23 0 1 0 I I #
point $-1 -1.25 -0.53000000000000003 3.23 #
straight-curve $-1 1.25 -0.98999999999999999 3.23 -1 0 0 I I #
straight-curve $-1 1.25 -0.98999999999999999 1.77 -1 0 0 I I #
plane-surface $-1 -1.25 -0.98999999999999999 1.77 0 0 -1 0 1 0 forward_v I I I I #
ellipse-curve $-1 -0.62 0.17999999999999994 2.5 0 -1 0 0.125 0 0 1 I I #
face $-1 $628 $551 $3 $-1 $629 reversed single #
cone-surface $-1 -0.62 1.1799999999999999 -2.5 0 -1 0 0.125 0 0 1 I I 0 1 0.125 forward I I I I #
coedge $-1 $550 $549 $630 $631 forward $551 $-1 #
coedge $-1 $630 $630 $553 $603 reversed $632 $-1 #
edge $-1 $604 0 $606 3.1415926535897931 $602 $633 forward 7 unknown #
vertex $-1 $631 $634 #
straight-curve $-1 -0.745 1.1799999999999999 -2.5 0 -1 0 I I #
vertex $-1 $631 $635 #
straight-curve $-1 -0.495 1.1799999999999999 -2.5 0 -1 0 I I #
coedge $-1 $559 $559 $558 $609 reversed $545 $-1 #
edge $-1 $563 0 $561 3.1415926535897931 $608 $636 forward 7 unknown #
ellipse-curve $-1 0.63 0.17999999999999994 2.5 0 -1 0 -0.125 0 0 1 I I #
point $-1 0.505 0.17999999999999994 2.5 #
point $-1 0.755 0.17999999999999994 2.5 #
coedge $-1 $577 $576 $565 $614 reversed $578 $-1 #
edge $-1 $615 0 $618 1.46 $565 $637 forward 7 unknown #
vertex $-1 $614 $638 #
straight-curve $-1 1.25 -0.53000000000000003 -1.77 0 -1 0 I I #
point $-1 1.25 -0.53000000000000003 -1.77 #
vertex $-1 $571 $639 #
straight-curve $-1 1.25 -0.98999999999999999 -3.23 0 1 0 I I #
point $-1 1.25 -0.53000000000000003 -3.23 #
plane-surface $-1 -1.25 -0.98999999999999999 -3.23 0 1 0 0 0 1 forward_v I I I I #
straight-curve $-1 1.25 -0.98999999999999999 -3.23 -1 0 0 I I #
plane-surface $-1 -1.25 -0.53000000000000003 -3.23 0 0 1 0 -1 0 forward_v I I I I #
straight-curve $-1 1.25 -0.98999999999999999 -1.77 -1 0 0 I I #
straight-curve $-1 -1.25 -0.98999999999999999 1.77 0 0 1 I I #
point $-1 -1.25 -0.98999999999999999 1.77 #
point $-1 -1.25 -0.98999999999999999 3.23 #
face $-1 $93 $632 $3 $-1 $640 reversed single #
cone-surface $-1 -0.62 1.1799999999999999 -2.5 0 -1 0 0.125 0 0 1 I I 0 1 0.125 forward I I I I #
coedge $-1 $602 $602 $601 $631 reversed $632 $-1 #
edge $-1 $606 0 $604 3.1415926535897931 $630 $641 forward 7 unknown #
loop $-1 $-1 $602 $628 #
ellipse-curve $-1 -0.62 0.17999999999999994 -2.5 0 -1 0 -0.125 0 0 1 I I #
point $-1 -0.745 0.17999999999999994 -2.5 #
point $-1 -0.495 0.17999999999999994 -2.5 #
ellipse-curve $-1 0.63 0.17999999999999994 2.5 0 -1 0 0.125 0 0 1 I I #
straight-curve $-1 1.25 -0.98999999999999999 -1.77 0 0 -1 I I #
point $-1 1.25 -0.98999999999999999 -1.77 #
point $-1 1.25 -0.98999999999999999 -3.23 #
plane-surface $-1 -0.62 0.17999999999999994 -2.5 0 -1 0 1 0 0 forward_v I I I I #
ellipse-curve $-1 -0.62 0.17999999999999994 -2.5 0 -1 0 0.125 0 0 1 I I #
End-of-ACIS-data 