600 0 1 0           
101 GICL ACIS Healer - Source: /gicl/data5/repository/PTC/V18/process_mfg18/models/clamp_finger.sat - 6 0 18 ACIS 6.0.3 Solaris 24 Sat Apr 13 21:14:49 2002 
1 9.999999999999999547e-07 1.000000000000000036e-10 
body $-1 $1 $-1 $-1 #
lump $-1 $-1 $2 $0 #
shell $-1 $-1 $-1 $3 $-1 $1 #
face $-1 $4 $5 $2 $-1 $6 reversed single #
face $-1 $7 $8 $2 $-1 $9 forward single #
loop $-1 $-1 $10 $3 #
plane-surface $-1 0 0 0 0 0 1 25.39999999999999858 0 0 forward_v I I I I #
face $-1 $11 $12 $2 $-1 $13 forward single #
loop $-1 $-1 $14 $4 #
plane-surface $-1 0 4.571999999999999176 0 -1 0 0 0 -25.39999999999999858 0 forward_v I I I I #
coedge $-1 $15 $16 $17 $18 reversed $5 $-1 #
face $-1 $19 $20 $2 $-1 $21 reversed single #
loop $-1 $22 $23 $7 #
plane-surface $-1 0 0 0 0 -1 0 25.39999999999999858 0 0 forward_v I I I I #
coedge $-1 $24 $17 $25 $26 forward $8 $-1 #
coedge $-1 $27 $10 $28 $29 reversed $5 $-1 #
coedge $-1 $10 $27 $30 $31 reversed $5 $-1 #
coedge $-1 $14 $32 $10 $18 forward $8 $-1 #
edge $-1 $33 0 $34 0.1799999999999999656 $10 $35 forward 7 unknown #
face $-1 $36 $37 $2 $-1 $38 reversed single #
loop $-1 $-1 $39 $11 #
plane-surface $-1 17.14500000000001734 4.571999999999999176 15.875 0 0 1 25.39999999999999858 0 0 forward_v I I I I #
loop $-1 $40 $41 $7 #
coedge $-1 $42 $43 $44 $45 forward $12 $-1 #
coedge $-1 $32 $14 $46 $47 reversed $8 $-1 #
coedge $-1 $30 $48 $14 $26 reversed $49 $-1 #
edge $-1 $34 0 $50 1 $25 $51 forward 7 unknown #
coedge $-1 $16 $15 $52 $53 reversed $5 $-1 #
coedge $-1 $54 $55 $15 $29 forward $56 $-1 #
edge $-1 $57 0 $33 11 $15 $58 forward 7 unknown #
coedge $-1 $59 $25 $16 $31 forward $49 $-1 #
edge $-1 $34 0 $60 11 $16 $61 forward 7 unknown #
coedge $-1 $17 $24 $54 $62 reversed $8 $-1 #
vertex $-1 $29 $63 #
vertex $-1 $31 $64 #
straight-curve $-1 0 4.571999999999999176 0 0 -25.39999999999999858 0 I I #
face $-1 $65 $66 $2 $-1 $67 reversed single #
loop $-1 $-1 $68 $19 #
cone-surface $-1 17.14500000000001734 4.571999999999999176 12.69999999999999929 0 1 0 3.174999999999999822 0 0 1 I I 0 1 3.174999999999999822 forward I I I I #
coedge $-1 $69 $44 $70 $71 reversed $20 $-1 #
loop $-1 $72 $73 $7 #
coedge $-1 $74 $75 $76 $77 forward $22 $-1 #
coedge $-1 $78 $23 $79 $80 forward $12 $-1 #
coedge $-1 $23 $78 $81 $82 forward $12 $-1 #
coedge $-1 $39 $83 $23 $45 reversed $20 $-1 #
edge $-1 $84 0 $85 0.625 $23 $86 forward 7 unknown #
coedge $-1 $87 $88 $24 $47 forward $89 $-1 #
edge $-1 $90 0 $50 0.1799999999999999656 $46 $91 forward 7 unknown #
coedge $-1 $25 $59 $87 $92 reversed $49 $-1 #
loop $-1 $93 $59 $7 #
vertex $-1 $92 $94 #
straight-curve $-1 0 0 0 0 0 25.39999999999999858 I I #
coedge $-1 $95 $96 $27 $53 forward $97 $-1 #
edge $-1 $60 0 $57 0.1799999999999999656 $27 $98 forward 7 unknown #
coedge $-1 $99 $28 $32 $62 forward $56 $-1 #
coedge $-1 $28 $99 $95 $100 reversed $56 $-1 #
loop $-1 $101 $54 $102 #
vertex $-1 $53 $103 #
straight-curve $-1 279.3999999999999773 4.571999999999999176 0 -25.39999999999999858 0 0 I I #
coedge $-1 $48 $30 $96 $104 forward $49 $-1 #
vertex $-1 $31 $105 #
straight-curve $-1 0 0 0 25.39999999999999858 0 0 I I #
edge $-1 $33 0 $90 1 $54 $106 forward 7 unknown #
point $-1 0 4.571999999999999176 0 #
point $-1 0 0 0 #
face $-1 $102 $107 $2 $-1 $108 reversed single #
loop $-1 $-1 $109 $36 #
plane-surface $-1 33.02000000000001734 4.571999999999999176 9.524999999999998579 0 0 -1 -25.39999999999999858 0 0 forward_v I I I I #
coedge $-1 $110 $81 $111 $112 reversed $37 $-1 #
coedge $-1 $83 $39 $113 $114 forward $20 $-1 #
coedge $-1 $81 $110 $39 $71 forward $37 $-1 #
edge $-1 $115 0 $84 0.1799999999999999656 $70 $116 forward 7 unknown #
loop $-1 $117 $118 $7 #
coedge $-1 $119 $120 $121 $122 forward $40 $-1 #
coedge $-1 $123 $41 $124 $125 forward $22 $-1 #
coedge $-1 $41 $123 $126 $127 forward $22 $-1 #
coedge $-1 $128 $129 $41 $77 reversed $130 $-1 #
edge $-1 $131 0 $132 0.624999999999999778 $41 $133 forward 7 unknown #
coedge $-1 $43 $42 $134 $135 forward $12 $-1 #
coedge $-1 $136 $137 $42 $80 reversed $107 $-1 #
edge $-1 $85 0 $138 3.141592653589793116 $42 $139 forward 7 unknown #
coedge $-1 $68 $70 $43 $82 reversed $37 $-1 #
edge $-1 $140 0 $84 3.141592653589793116 $43 $141 forward 7 unknown #
coedge $-1 $44 $69 $136 $142 forward $20 $-1 #
vertex $-1 $82 $143 #
vertex $-1 $80 $144 #
straight-curve $-1 17.14500000000001734 0 15.875 25.39999999999999858 0 0 I I #
coedge $-1 $145 $46 $48 $92 forward $89 $-1 #
coedge $-1 $46 $145 $99 $146 forward $89 $-1 #
loop $-1 $-1 $145 $147 #
vertex $-1 $47 $148 #
straight-curve $-1 0 4.571999999999999176 25.39999999999999858 0 -25.39999999999999858 0 I I #
edge $-1 $50 0 $149 11 $87 $150 forward 7 unknown #
loop $-1 $-1 $151 $7 #
point $-1 0 0 25.39999999999999858 #
coedge $-1 $152 $52 $55 $100 forward $97 $-1 #
coedge $-1 $52 $152 $59 $104 reversed $97 $-1 #
loop $-1 $-1 $95 $153 #
straight-curve $-1 279.3999999999999773 0 0 0 25.39999999999999858 0 I I #
coedge $-1 $55 $54 $88 $146 reversed $56 $-1 #
edge $-1 $57 0 $154 1 $95 $155 forward 7 unknown #
loop $-1 $-1 $156 $102 #
face $-1 $157 $158 $2 $-1 $159 forward single #
point $-1 279.3999999999999773 4.571999999999999176 0 #
edge $-1 $60 0 $149 1 $59 $160 forward 7 unknown #
point $-1 279.3999999999999773 0 0 #
straight-curve $-1 0 4.571999999999999176 0 0 0 25.39999999999999858 I I #
loop $-1 $-1 $136 $65 #
cone-surface $-1 33.02000000000001734 4.571999999999999176 12.69999999999999929 0 1 0 3.174999999999999822 0 0 1 I I 0 1 3.174999999999999822 forward I I I I #
coedge $-1 $161 $134 $137 $162 reversed $66 $-1 #
coedge $-1 $70 $68 $163 $164 forward $37 $-1 #
coedge $-1 $134 $161 $68 $112 forward $66 $-1 #
edge $-1 $165 0 $140 0.1799999999999999656 $68 $166 forward 7 unknown #
coedge $-1 $163 $167 $69 $114 reversed $158 $-1 #
edge $-1 $115 0 $168 0.625 $113 $169 forward 7 unknown #
vertex $-1 $164 $170 #
straight-curve $-1 17.14500000000001734 4.571999999999999176 15.875 0 -25.39999999999999858 0 I I #
loop $-1 $171 $172 $7 #
coedge $-1 $173 $174 $175 $176 forward $72 $-1 #
coedge $-1 $177 $73 $178 $179 forward $40 $-1 #
coedge $-1 $73 $177 $180 $181 forward $40 $-1 #
coedge $-1 $182 $183 $73 $122 reversed $184 $-1 #
edge $-1 $185 0 $186 0.625 $73 $187 forward 7 unknown #
coedge $-1 $75 $74 $188 $189 forward $22 $-1 #
coedge $-1 $190 $191 $74 $125 reversed $192 $-1 #
edge $-1 $132 0 $193 3.141592653589793116 $74 $194 forward 7 unknown #
coedge $-1 $195 $196 $75 $127 reversed $197 $-1 #
edge $-1 $198 0 $131 3.141592653589793116 $75 $199 forward 7 unknown #
coedge $-1 $200 $76 $196 $201 reversed $130 $-1 #
coedge $-1 $76 $200 $190 $202 forward $130 $-1 #
loop $-1 $-1 $128 $203 #
vertex $-1 $127 $204 #
vertex $-1 $125 $205 #
straight-curve $-1 46.35499999999999687 0 15.875 25.39999999999999858 0 0 I I #
coedge $-1 $109 $111 $78 $135 reversed $66 $-1 #
edge $-1 $138 0 $140 0.625 $78 $206 forward 7 unknown #
coedge $-1 $207 $79 $83 $142 reversed $107 $-1 #
coedge $-1 $79 $207 $109 $162 forward $107 $-1 #
vertex $-1 $135 $208 #
ellipse-curve $-1 33.02000000000001734 0 12.69999999999999929 0 1 0 0 0 3.174999999999999822 1 I I #
vertex $-1 $82 $209 #
ellipse-curve $-1 17.14500000000001734 0 12.69999999999999929 0 1 0 0 0 -3.174999999999999822 1 I I #
edge $-1 $168 0 $85 0.1799999999999999656 $83 $210 forward 7 unknown #
point $-1 17.14500000000001734 0 15.875 #
point $-1 33.02000000000001734 0 15.875 #
coedge $-1 $88 $87 $152 $211 forward $89 $-1 #
edge $-1 $154 0 $90 11 $88 $212 forward 7 unknown #
face $-1 $153 $89 $2 $-1 $213 forward single #
point $-1 0 4.571999999999999176 25.39999999999999858 #
vertex $-1 $92 $214 #
straight-curve $-1 0 0 25.39999999999999858 25.39999999999999858 0 0 I I #
coedge $-1 $215 $216 $217 $218 forward $93 $-1 #
coedge $-1 $96 $95 $145 $211 reversed $97 $-1 #
face $-1 $219 $97 $2 $-1 $220 forward single #
vertex $-1 $146 $221 #
straight-curve $-1 279.3999999999999773 4.571999999999999176 0 0 0 25.39999999999999858 I I #
coedge $-1 $222 $223 $224 $225 reversed $101 $-1 #
face $-1 $226 $227 $2 $-1 $228 reversed single #
loop $-1 $229 $230 $102 #
plane-surface $-1 279.3999999999999773 4.571999999999999176 0 0 1 0 -25.39999999999999858 0 0 forward_v I I I I #
straight-curve $-1 279.3999999999999773 0 0 0 0 25.39999999999999858 I I #
coedge $-1 $111 $109 $230 $231 forward $66 $-1 #
edge $-1 $232 0 $138 0.1799999999999999656 $137 $233 forward 7 unknown #
coedge $-1 $230 $113 $110 $164 reversed $158 $-1 #
edge $-1 $165 0 $115 3.141592653589793116 $163 $234 forward 7 unknown #
vertex $-1 $164 $235 #
straight-curve $-1 17.14500000000001734 4.571999999999999176 9.524999999999998579 0 -25.39999999999999858 0 I I #
coedge $-1 $113 $230 $207 $236 reversed $158 $-1 #
vertex $-1 $114 $237 #
straight-curve $-1 17.14500000000001734 4.571999999999999176 15.875 25.39999999999999858 0 0 I I #
point $-1 17.14500000000001734 4.571999999999999176 15.875 #
loop $-1 $238 $239 $7 #
coedge $-1 $240 $241 $242 $243 forward $117 $-1 #
coedge $-1 $244 $118 $245 $246 forward $72 $-1 #
coedge $-1 $118 $244 $247 $248 forward $72 $-1 #
coedge $-1 $249 $250 $118 $176 reversed $251 $-1 #
edge $-1 $252 0 $253 0.625 $118 $254 forward 7 unknown #
coedge $-1 $120 $119 $255 $256 forward $40 $-1 #
coedge $-1 $257 $258 $119 $179 reversed $259 $-1 #
edge $-1 $186 0 $260 3.141592653589793116 $119 $261 forward 7 unknown #
coedge $-1 $262 $263 $120 $181 reversed $264 $-1 #
edge $-1 $265 0 $185 3.141592653589793116 $120 $266 forward 7 unknown #
coedge $-1 $267 $121 $263 $268 reversed $184 $-1 #
coedge $-1 $121 $267 $257 $269 forward $184 $-1 #
loop $-1 $-1 $182 $270 #
vertex $-1 $181 $271 #
vertex $-1 $179 $272 #
straight-curve $-1 75.56500000000002615 0 15.875 25.39999999999999858 0 0 I I #
coedge $-1 $273 $274 $123 $189 reversed $227 $-1 #
edge $-1 $193 0 $198 0.624999999999999778 $123 $275 forward 7 unknown #
coedge $-1 $276 $124 $129 $202 reversed $192 $-1 #
coedge $-1 $124 $276 $273 $277 forward $192 $-1 #
loop $-1 $-1 $190 $226 #
vertex $-1 $189 $278 #
ellipse-curve $-1 62.22999999999998977 0 12.69999999999999929 0 1 0 0 0 3.174999999999999822 1 I I #
coedge $-1 $279 $126 $274 $280 reversed $197 $-1 #
coedge $-1 $126 $279 $128 $201 forward $197 $-1 #
loop $-1 $-1 $195 $281 #
vertex $-1 $127 $282 #
ellipse-curve $-1 46.35499999999999687 0 12.69999999999999929 0 1 0 0 0 -3.174999999999999822 1 I I #
coedge $-1 $129 $128 $283 $284 forward $130 $-1 #
edge $-1 $285 0 $131 0.1799999999999999656 $196 $286 forward 7 unknown #
edge $-1 $287 0 $132 0.1799999999999999656 $129 $288 forward 7 unknown #
face $-1 $281 $130 $2 $-1 $289 reversed single #
point $-1 46.35499999999999687 0 15.875 #
point $-1 62.22999999999998977 0 15.875 #
straight-curve $-1 33.02000000000001734 0 9.524999999999998579 -25.39999999999999858 0 0 I I #
coedge $-1 $137 $136 $167 $236 forward $107 $-1 #
point $-1 33.02000000000001734 0 9.524999999999998579 #
point $-1 17.14500000000001734 0 9.524999999999998579 #
straight-curve $-1 33.02000000000001734 4.571999999999999176 15.875 0 -25.39999999999999858 0 I I #
edge $-1 $149 0 $154 0.1799999999999999656 $145 $290 forward 7 unknown #
straight-curve $-1 279.3999999999999773 4.571999999999999176 25.39999999999999858 -25.39999999999999858 0 0 I I #
plane-surface $-1 0 0 25.39999999999999858 0 0 1 25.39999999999999858 0 0 forward_v I I I I #
point $-1 279.3999999999999773 0 25.39999999999999858 #
coedge $-1 $291 $151 $292 $293 forward $93 $-1 #
coedge $-1 $151 $291 $294 $295 forward $93 $-1 #
coedge $-1 $296 $297 $151 $218 reversed $298 $-1 #
edge $-1 $299 0 $300 0.625 $151 $301 forward 7 unknown #
face $-1 $302 $303 $2 $-1 $304 reversed single #
plane-surface $-1 279.3999999999999773 0 0 1 0 0 0 25.39999999999999858 0 forward_v I I I I #
point $-1 279.3999999999999773 4.571999999999999176 25.39999999999999858 #
coedge $-1 $305 $156 $306 $307 reversed $101 $-1 #
coedge $-1 $156 $305 $308 $309 reversed $101 $-1 #
coedge $-1 $310 $311 $156 $225 forward $303 $-1 #
edge $-1 $312 0 $313 0.625 $156 $314 forward 7 unknown #
face $-1 $203 $192 $2 $-1 $315 reversed single #
loop $-1 $-1 $273 $157 #
plane-surface $-1 62.22999999999998977 4.571999999999999176 9.524999999999998579 0 0 -1 -25.39999999999999858 0 0 forward_v I I I I #
loop $-1 $316 $317 $102 #
coedge $-1 $167 $163 $161 $231 reversed $158 $-1 #
edge $-1 $232 0 $165 0.625 $230 $318 forward 7 unknown #
vertex $-1 $236 $319 #
straight-curve $-1 33.02000000000001734 4.571999999999999176 9.524999999999998579 0 -25.39999999999999858 0 I I #
ellipse-curve $-1 17.14500000000001734 4.571999999999999176 12.69999999999999929 0 1 0 0 0 -3.174999999999999822 1 I I #
point $-1 17.14500000000001734 4.571999999999999176 9.524999999999998579 #
edge $-1 $168 0 $232 3.141592653589793116 $167 $320 forward 7 unknown #
point $-1 33.02000000000001734 4.571999999999999176 15.875 #
loop $-1 $321 $322 $7 #
coedge $-1 $323 $324 $325 $326 forward $171 $-1 #
coedge $-1 $327 $172 $328 $329 forward $117 $-1 #
coedge $-1 $172 $327 $330 $331 forward $117 $-1 #
coedge $-1 $332 $333 $172 $243 reversed $334 $-1 #
edge $-1 $335 0 $336 0.625 $172 $337 forward 7 unknown #
coedge $-1 $174 $173 $338 $339 forward $72 $-1 #
coedge $-1 $340 $341 $173 $246 reversed $342 $-1 #
edge $-1 $253 0 $343 3.141592653589793116 $173 $344 forward 7 unknown #
coedge $-1 $345 $346 $174 $248 reversed $347 $-1 #
edge $-1 $348 0 $252 3.141592653589793116 $174 $349 forward 7 unknown #
coedge $-1 $350 $175 $346 $351 reversed $251 $-1 #
coedge $-1 $175 $350 $340 $352 forward $251 $-1 #
loop $-1 $-1 $249 $353 #
vertex $-1 $248 $354 #
vertex $-1 $246 $355 #
straight-curve $-1 104.7749999999999915 0 15.875 25.39999999999999858 0 0 I I #
coedge $-1 $356 $357 $177 $256 reversed $358 $-1 #
edge $-1 $260 0 $265 0.625 $177 $359 forward 7 unknown #
coedge $-1 $360 $178 $183 $269 reversed $259 $-1 #
coedge $-1 $178 $360 $356 $361 forward $259 $-1 #
loop $-1 $-1 $257 $362 #
vertex $-1 $256 $363 #
ellipse-curve $-1 91.44000000000002615 0 12.69999999999999929 0 1 0 0 0 3.174999999999999822 1 I I #
coedge $-1 $364 $180 $357 $365 reversed $264 $-1 #
coedge $-1 $180 $364 $182 $268 forward $264 $-1 #
loop $-1 $-1 $262 $366 #
vertex $-1 $181 $367 #
ellipse-curve $-1 75.56500000000002615 0 12.69999999999999929 0 1 0 0 0 -3.174999999999999822 1 I I #
coedge $-1 $183 $182 $368 $369 forward $184 $-1 #
edge $-1 $370 0 $185 0.1799999999999999656 $263 $371 forward 7 unknown #
edge $-1 $372 0 $186 0.1799999999999999656 $183 $373 forward 7 unknown #
face $-1 $366 $184 $2 $-1 $374 reversed single #
point $-1 75.56500000000002615 0 15.875 #
point $-1 91.44000000000002615 0 15.875 #
coedge $-1 $375 $188 $191 $277 reversed $227 $-1 #
coedge $-1 $188 $375 $195 $280 forward $227 $-1 #
straight-curve $-1 62.22999999999998977 0 9.524999999999998579 -25.39999999999999858 0 0 I I #
coedge $-1 $191 $190 $376 $377 forward $192 $-1 #
edge $-1 $378 0 $193 0.1799999999999999656 $191 $379 forward 7 unknown #
point $-1 62.22999999999998977 0 9.524999999999998579 #
coedge $-1 $196 $195 $380 $381 forward $197 $-1 #
edge $-1 $382 0 $198 0.1799999999999999656 $195 $383 forward 7 unknown #
face $-1 $384 $197 $2 $-1 $385 reversed single #
point $-1 46.35499999999999687 0 9.524999999999998579 #
coedge $-1 $380 $376 $200 $284 reversed $229 $-1 #
edge $-1 $285 0 $287 0.6249999999999986677 $283 $386 forward 7 unknown #
vertex $-1 $381 $387 #
straight-curve $-1 46.35499999999999687 4.571999999999999176 15.875 0 -25.39999999999999858 0 I I #
vertex $-1 $284 $388 #
straight-curve $-1 62.22999999999998977 4.571999999999999176 15.875 0 -25.39999999999999858 0 I I #
plane-surface $-1 46.35499999999999687 4.571999999999999176 15.875 0 0 1 25.39999999999999858 0 0 forward_v I I I I #
straight-curve $-1 279.3999999999999773 0 25.39999999999999858 0 25.39999999999999858 0 I I #
coedge $-1 $216 $215 $389 $390 forward $93 $-1 #
coedge $-1 $391 $392 $215 $293 reversed $393 $-1 #
edge $-1 $300 0 $394 3.141592653589793116 $215 $395 forward 7 unknown #
coedge $-1 $396 $397 $216 $295 reversed $398 $-1 #
edge $-1 $399 0 $299 3.141592653589793116 $216 $400 forward 7 unknown #
coedge $-1 $401 $217 $397 $402 reversed $298 $-1 #
coedge $-1 $217 $401 $391 $403 forward $298 $-1 #
loop $-1 $-1 $296 $404 #
vertex $-1 $295 $405 #
vertex $-1 $293 $406 #
straight-curve $-1 250.8249999999999886 0 15.875 25.39999999999999858 0 0 I I #
face $-1 $404 $393 $2 $-1 $407 reversed single #
loop $-1 $-1 $311 $219 #
plane-surface $-1 266.6999999999999886 4.571999999999999176 9.524999999999998579 0 0 -1 -25.39999999999999858 0 0 forward_v I I I I #
coedge $-1 $223 $222 $401 $408 reversed $101 $-1 #
coedge $-1 $392 $391 $222 $307 forward $393 $-1 #
edge $-1 $409 0 $312 3.141592653589793116 $222 $410 forward 7 unknown #
coedge $-1 $397 $396 $223 $309 forward $398 $-1 #
edge $-1 $313 0 $411 3.141592653589793116 $223 $412 forward 7 unknown #
coedge $-1 $389 $224 $396 $413 forward $303 $-1 #
coedge $-1 $224 $389 $392 $414 reversed $303 $-1 #
vertex $-1 $307 $415 #
vertex $-1 $309 $416 #
straight-curve $-1 266.6999999999999886 4.571999999999999176 9.524999999999998579 -25.39999999999999858 0 0 I I #
cone-surface $-1 62.22999999999998977 4.571999999999999176 12.69999999999999929 0 1 0 3.174999999999999822 0 0 1 I I 0 1 3.174999999999999822 forward I I I I #
loop $-1 $417 $418 $102 #
coedge $-1 $376 $380 $375 $419 reversed $229 $-1 #
straight-curve $-1 33.02000000000001734 4.571999999999999176 9.524999999999998579 -25.39999999999999858 0 0 I I #
point $-1 33.02000000000001734 4.571999999999999176 9.524999999999998579 #
ellipse-curve $-1 33.02000000000001734 4.571999999999999176 12.69999999999999929 0 1 0 0 0 3.174999999999999822 1 I I #
loop $-1 $49 $420 $7 #
coedge $-1 $421 $422 $423 $424 forward $238 $-1 #
coedge $-1 $425 $239 $426 $427 forward $171 $-1 #
coedge $-1 $239 $425 $428 $429 forward $171 $-1 #
coedge $-1 $430 $431 $239 $326 reversed $432 $-1 #
edge $-1 $433 0 $434 0.625 $239 $435 forward 7 unknown #
coedge $-1 $241 $240 $436 $437 forward $117 $-1 #
coedge $-1 $438 $439 $240 $329 reversed $440 $-1 #
edge $-1 $336 0 $441 3.141592653589793116 $240 $442 forward 7 unknown #
coedge $-1 $443 $444 $241 $331 reversed $445 $-1 #
edge $-1 $446 0 $335 3.141592653589793116 $241 $447 forward 7 unknown #
coedge $-1 $448 $242 $444 $449 reversed $334 $-1 #
coedge $-1 $242 $448 $438 $450 forward $334 $-1 #
loop $-1 $-1 $332 $451 #
vertex $-1 $331 $452 #
vertex $-1 $329 $453 #
straight-curve $-1 133.9849999999999852 0 15.875 25.39999999999999858 0 0 I I #
coedge $-1 $454 $455 $244 $339 reversed $456 $-1 #
edge $-1 $343 0 $348 0.625 $244 $457 forward 7 unknown #
coedge $-1 $458 $245 $250 $352 reversed $342 $-1 #
coedge $-1 $245 $458 $454 $459 forward $342 $-1 #
loop $-1 $-1 $340 $460 #
vertex $-1 $339 $461 #
ellipse-curve $-1 120.6499999999999915 0 12.69999999999999929 0 1 0 0 0 3.174999999999999822 1 I I #
coedge $-1 $462 $247 $455 $463 reversed $347 $-1 #
coedge $-1 $247 $462 $249 $351 forward $347 $-1 #
loop $-1 $-1 $345 $464 #
vertex $-1 $248 $465 #
ellipse-curve $-1 104.7749999999999915 0 12.69999999999999929 0 1 0 0 0 -3.174999999999999822 1 I I #
coedge $-1 $250 $249 $466 $467 forward $251 $-1 #
edge $-1 $468 0 $252 0.1799999999999999656 $346 $469 forward 7 unknown #
edge $-1 $470 0 $253 0.1799999999999999656 $250 $471 forward 7 unknown #
face $-1 $464 $251 $2 $-1 $472 reversed single #
point $-1 104.7749999999999915 0 15.875 #
point $-1 120.6499999999999915 0 15.875 #
coedge $-1 $473 $255 $258 $361 reversed $358 $-1 #
coedge $-1 $255 $473 $262 $365 forward $358 $-1 #
loop $-1 $-1 $356 $384 #
straight-curve $-1 91.44000000000002615 0 9.524999999999998579 -25.39999999999999858 0 0 I I #
coedge $-1 $258 $257 $474 $475 forward $259 $-1 #
edge $-1 $476 0 $260 0.1799999999999999656 $258 $477 forward 7 unknown #
face $-1 $270 $259 $2 $-1 $478 reversed single #
point $-1 91.44000000000002615 0 9.524999999999998579 #
coedge $-1 $263 $262 $479 $480 forward $264 $-1 #
edge $-1 $481 0 $265 0.1799999999999999656 $262 $482 forward 7 unknown #
face $-1 $483 $264 $2 $-1 $484 reversed single #
point $-1 75.56500000000002615 0 9.524999999999998579 #
coedge $-1 $479 $474 $267 $369 reversed $316 $-1 #
edge $-1 $370 0 $372 0.625 $368 $485 forward 7 unknown #
vertex $-1 $480 $486 #
straight-curve $-1 75.56500000000002615 4.571999999999999176 15.875 0 -25.39999999999999858 0 I I #
vertex $-1 $369 $487 #
straight-curve $-1 91.44000000000002615 4.571999999999999176 15.875 0 -25.39999999999999858 0 I I #
plane-surface $-1 75.56500000000002615 4.571999999999999176 15.875 0 0 1 25.39999999999999858 0 0 forward_v I I I I #
coedge $-1 $274 $273 $317 $419 forward $227 $-1 #
coedge $-1 $283 $317 $276 $377 reversed $229 $-1 #
edge $-1 $287 -1.065814103640150279e-14 $378 3.141592653589782458 $376 $488 forward 7 unknown #
vertex $-1 $377 $489 #
straight-curve $-1 62.22999999999998977 4.571999999999999176 9.524999999999998579 0 -25.39999999999999858 0 I I #
coedge $-1 $317 $283 $279 $381 reversed $229 $-1 #
edge $-1 $382 -6.993530863780287978e-17 $285 3.14159265358981088 $380 $490 forward 7 unknown #
vertex $-1 $381 $491 #
straight-curve $-1 46.35499999999999687 4.571999999999999176 9.524999999999998579 0 -25.39999999999999858 0 I I #
face $-1 $362 $358 $2 $-1 $492 reversed single #
cone-surface $-1 46.35499999999999687 4.571999999999999176 12.69999999999999929 0 1 0 3.174999999999999822 0 0 1 I I 0 1 3.174999999999999822 forward I I I I #
straight-curve $-1 46.3550000000000253 4.571999999999999176 15.875 25.39999999999999858 0 0 I I #
point $-1 46.3550000000000253 4.571999999999999176 15.875 #
point $-1 62.22999999999998977 4.571999999999999176 15.875 #
coedge $-1 $311 $310 $291 $390 reversed $303 $-1 #
edge $-1 $394 0 $399 0.625 $291 $493 forward 7 unknown #
coedge $-1 $306 $292 $297 $403 reversed $393 $-1 #
coedge $-1 $292 $306 $311 $414 forward $393 $-1 #
loop $-1 $-1 $391 $302 #
vertex $-1 $390 $494 #
ellipse-curve $-1 266.6999999999999886 0 12.69999999999999929 0 1 0 0 0 3.174999999999999822 1 I I #
coedge $-1 $308 $294 $310 $413 reversed $398 $-1 #
coedge $-1 $294 $308 $296 $402 forward $398 $-1 #
loop $-1 $-1 $396 $495 #
vertex $-1 $295 $496 #
ellipse-curve $-1 250.8249999999999886 0 12.69999999999999929 0 1 0 0 0 -3.174999999999999822 1 I I #
coedge $-1 $297 $296 $305 $408 forward $298 $-1 #
edge $-1 $411 0 $299 0.1799999999999999656 $397 $497 forward 7 unknown #
edge $-1 $409 0 $300 0.1799999999999999656 $297 $498 forward 7 unknown #
face $-1 $495 $298 $2 $-1 $499 reversed single #
point $-1 250.8249999999999886 0 15.875 #
point $-1 266.6999999999999886 0 15.875 #
cone-surface $-1 266.6999999999999886 4.571999999999999176 12.69999999999999929 0 1 0 3.174999999999999822 0 0 1 I I 0 1 3.174999999999999822 forward I I I I #
edge $-1 $411 0 $409 0.625 $305 $500 forward 7 unknown #
vertex $-1 $408 $501 #
ellipse-curve $-1 266.6999999999999886 4.571999999999999176 12.69999999999999929 0 1 0 0 0 3.174999999999999822 1 I I #
vertex $-1 $309 $502 #
ellipse-curve $-1 250.8249999999999886 4.571999999999999176 12.69999999999999929 0 1 0 0 0 -3.174999999999999822 1 I I #
edge $-1 $313 0 $399 0.1799999999999999656 $396 $503 forward 7 unknown #
edge $-1 $312 0 $394 0.1799999999999999656 $392 $504 forward 7 unknown #
point $-1 266.6999999999999886 4.571999999999999176 9.524999999999998579 #
point $-1 250.8249999999999886 4.571999999999999176 9.524999999999998579 #
loop $-1 $505 $506 $102 #
coedge $-1 $474 $479 $473 $507 reversed $316 $-1 #
edge $-1 $378 1.398706172756102807e-15 $382 0.625 $317 $508 forward 7 unknown #
coedge $-1 $509 $510 $511 $512 forward $321 $-1 #
coedge $-1 $513 $322 $514 $515 forward $238 $-1 #
coedge $-1 $322 $513 $516 $517 forward $238 $-1 #
coedge $-1 $518 $519 $322 $424 reversed $520 $-1 #
edge $-1 $521 0 $522 0.625 $322 $523 forward 7 unknown #
coedge $-1 $324 $323 $524 $525 forward $171 $-1 #
coedge $-1 $526 $527 $323 $427 reversed $528 $-1 #
edge $-1 $434 0 $529 3.141592653589793116 $323 $530 forward 7 unknown #
coedge $-1 $531 $532 $324 $429 reversed $533 $-1 #
edge $-1 $534 0 $433 3.141592653589793116 $324 $535 forward 7 unknown #
coedge $-1 $536 $325 $532 $537 reversed $432 $-1 #
coedge $-1 $325 $536 $526 $538 forward $432 $-1 #
loop $-1 $-1 $430 $539 #
vertex $-1 $429 $540 #
vertex $-1 $427 $541 #
straight-curve $-1 163.1949999999999932 0 15.875 25.39999999999999858 0 0 I I #
coedge $-1 $542 $543 $327 $437 reversed $544 $-1 #
edge $-1 $441 0 $446 0.625 $327 $545 forward 7 unknown #
coedge $-1 $546 $328 $333 $450 reversed $440 $-1 #
coedge $-1 $328 $546 $542 $547 forward $440 $-1 #
loop $-1 $-1 $438 $548 #
vertex $-1 $437 $549 #
ellipse-curve $-1 149.8599999999999852 0 12.69999999999999929 0 1 0 0 0 3.174999999999999822 1 I I #
coedge $-1 $550 $330 $543 $551 reversed $445 $-1 #
coedge $-1 $330 $550 $332 $449 forward $445 $-1 #
loop $-1 $-1 $443 $552 #
vertex $-1 $331 $553 #
ellipse-curve $-1 133.9849999999999852 0 12.69999999999999929 0 1 0 0 0 -3.174999999999999822 1 I I #
coedge $-1 $333 $332 $554 $555 forward $334 $-1 #
edge $-1 $556 0 $335 0.1799999999999999656 $444 $557 forward 7 unknown #
edge $-1 $558 0 $336 0.1799999999999999656 $333 $559 forward 7 unknown #
face $-1 $552 $334 $2 $-1 $560 reversed single #
point $-1 133.9849999999999852 0 15.875 #
point $-1 149.8599999999999852 0 15.875 #
coedge $-1 $561 $338 $341 $459 reversed $456 $-1 #
coedge $-1 $338 $561 $345 $463 forward $456 $-1 #
loop $-1 $-1 $454 $483 #
straight-curve $-1 120.6499999999999915 0 9.524999999999998579 -25.39999999999999858 0 0 I I #
coedge $-1 $341 $340 $562 $563 forward $342 $-1 #
edge $-1 $564 0 $343 0.1799999999999999656 $341 $565 forward 7 unknown #
face $-1 $353 $342 $2 $-1 $566 reversed single #
point $-1 120.6499999999999915 0 9.524999999999998579 #
coedge $-1 $346 $345 $567 $568 forward $347 $-1 #
edge $-1 $569 0 $348 0.1799999999999999656 $345 $570 forward 7 unknown #
face $-1 $571 $347 $2 $-1 $572 reversed single #
point $-1 104.7749999999999915 0 9.524999999999998579 #
coedge $-1 $567 $562 $350 $467 reversed $417 $-1 #
edge $-1 $468 0 $470 0.625 $466 $573 forward 7 unknown #
vertex $-1 $568 $574 #
straight-curve $-1 104.7749999999999915 4.571999999999999176 15.875 0 -25.39999999999999858 0 I I #
vertex $-1 $467 $575 #
straight-curve $-1 120.6499999999999915 4.571999999999999176 15.875 0 -25.39999999999999858 0 I I #
plane-surface $-1 104.7749999999999915 4.571999999999999176 15.875 0 0 1 25.39999999999999858 0 0 forward_v I I I I #
coedge $-1 $357 $356 $418 $507 forward $358 $-1 #
coedge $-1 $368 $418 $360 $475 reversed $316 $-1 #
edge $-1 $372 7.105427357601001859e-15 $476 3.141592653589800221 $474 $576 forward 7 unknown #
vertex $-1 $475 $577 #
straight-curve $-1 91.44000000000002615 4.571999999999999176 9.524999999999998579 0 -25.39999999999999858 0 I I #
cone-surface $-1 91.44000000000002615 4.571999999999999176 12.69999999999999929 0 1 0 3.174999999999999822 0 0 1 I I 0 1 3.174999999999999822 forward I I I I #
coedge $-1 $418 $368 $364 $480 reversed $316 $-1 #
edge $-1 $481 0 $370 3.141592653589793116 $479 $578 forward 7 unknown #
vertex $-1 $480 $579 #
straight-curve $-1 75.56500000000002615 4.571999999999999176 9.524999999999998579 0 -25.39999999999999858 0 I I #
face $-1 $460 $456 $2 $-1 $580 reversed single #
cone-surface $-1 75.56500000000002615 4.571999999999999176 12.69999999999999929 0 1 0 3.174999999999999822 0 0 1 I I 0 1 3.174999999999999822 forward I I I I #
straight-curve $-1 75.56500000000002615 4.571999999999999176 15.875 25.39999999999999858 0 0 I I #
point $-1 75.56500000000002615 4.571999999999999176 15.875 #
point $-1 91.44000000000002615 4.571999999999999176 15.875 #
ellipse-curve $-1 62.22999999999998977 4.571999999999999176 12.69999999999999929 0 1 0 3.38395977905747663e-14 0 3.174999999999999822 1 I I #
point $-1 62.22999999999998977 4.571999999999999176 9.524999999999998579 #
ellipse-curve $-1 46.35499999999999687 4.571999999999999176 12.69999999999999929 0 1 0 2.819966482547897613e-14 0 -3.174999999999999822 1 I I #
point $-1 46.3550000000000253 4.571999999999999176 9.524999999999998579 #
plane-surface $-1 91.44000000000002615 4.571999999999999176 9.524999999999998579 0 0 -1 -25.39999999999999858 0 0 forward_v I I I I #
straight-curve $-1 266.6999999999999886 0 9.524999999999998579 -25.39999999999999858 0 0 I I #
point $-1 266.6999999999999886 0 9.524999999999998579 #
face $-1 $-1 $398 $2 $-1 $581 reversed single #
point $-1 250.8249999999999886 0 9.524999999999998579 #
straight-curve $-1 250.8249999999999886 4.571999999999999176 15.875 0 -25.39999999999999858 0 I I #
straight-curve $-1 266.6999999999999886 4.571999999999999176 15.875 0 -25.39999999999999858 0 I I #
plane-surface $-1 250.8249999999999886 4.571999999999999176 15.875 0 0 1 25.39999999999999858 0 0 forward_v I I I I #
straight-curve $-1 250.8249999999999886 4.571999999999999176 15.875 25.39999999999999858 0 0 I I #
point $-1 266.6999999999999886 4.571999999999999176 15.875 #
point $-1 250.8249999999999886 4.571999999999999176 15.875 #
straight-curve $-1 250.8249999999999886 4.571999999999999176 9.524999999999998579 0 -25.39999999999999858 0 I I #
straight-curve $-1 266.6999999999999886 4.571999999999999176 9.524999999999998579 0 -25.39999999999999858 0 I I #
loop $-1 $582 $583 $102 #
coedge $-1 $562 $567 $561 $584 reversed $417 $-1 #
edge $-1 $476 -5.594824691024410835e-16 $481 0.6249999999999994449 $418 $585 forward 7 unknown #
straight-curve $-1 62.2300000000000253 4.571999999999999176 9.524999999999998579 -25.39999999999999858 0 0 I I #
coedge $-1 $586 $420 $587 $588 forward $321 $-1 #
coedge $-1 $420 $586 $589 $590 forward $321 $-1 #
coedge $-1 $591 $592 $420 $512 reversed $593 $-1 #
edge $-1 $594 0 $595 0.625 $420 $596 forward 7 unknown #
coedge $-1 $422 $421 $597 $598 forward $238 $-1 #
coedge $-1 $599 $600 $421 $515 reversed $601 $-1 #
edge $-1 $522 0 $602 3.141592653589793116 $421 $603 forward 7 unknown #
coedge $-1 $604 $605 $422 $517 reversed $606 $-1 #
edge $-1 $607 0 $521 3.141592653589793116 $422 $608 forward 7 unknown #
coedge $-1 $609 $423 $605 $610 reversed $520 $-1 #
coedge $-1 $423 $609 $599 $611 forward $520 $-1 #
loop $-1 $-1 $518 $612 #
vertex $-1 $517 $613 #
vertex $-1 $515 $614 #
straight-curve $-1 192.4049999999999727 0 15.875 25.39999999999999858 0 0 I I #
coedge $-1 $615 $616 $425 $525 reversed $617 $-1 #
edge $-1 $529 0 $534 0.625 $425 $618 forward 7 unknown #
coedge $-1 $619 $426 $431 $538 reversed $528 $-1 #
coedge $-1 $426 $619 $615 $620 forward $528 $-1 #
loop $-1 $-1 $526 $621 #
vertex $-1 $525 $622 #
ellipse-curve $-1 179.0699999999999932 0 12.69999999999999929 0 1 0 0 0 3.174999999999999822 1 I I #
coedge $-1 $623 $428 $616 $624 reversed $533 $-1 #
coedge $-1 $428 $623 $430 $537 forward $533 $-1 #
loop $-1 $-1 $531 $625 #
vertex $-1 $429 $626 #
ellipse-curve $-1 163.1949999999999932 0 12.69999999999999929 0 1 0 0 0 -3.174999999999999822 1 I I #
coedge $-1 $431 $430 $627 $628 forward $432 $-1 #
edge $-1 $629 0 $433 0.1799999999999999656 $532 $630 forward 7 unknown #
edge $-1 $631 0 $434 0.1799999999999999656 $431 $632 forward 7 unknown #
face $-1 $625 $432 $2 $-1 $633 reversed single #
point $-1 163.1949999999999932 0 15.875 #
point $-1 179.0699999999999932 0 15.875 #
coedge $-1 $634 $436 $439 $547 reversed $544 $-1 #
coedge $-1 $436 $634 $443 $551 forward $544 $-1 #
loop $-1 $-1 $542 $571 #
straight-curve $-1 149.8599999999999852 0 9.524999999999998579 -25.39999999999999858 0 0 I I #
coedge $-1 $439 $438 $635 $636 forward $440 $-1 #
edge $-1 $637 0 $441 0.1799999999999999656 $439 $638 forward 7 unknown #
face $-1 $451 $440 $2 $-1 $639 reversed single #
point $-1 149.8599999999999852 0 9.524999999999998579 #
coedge $-1 $444 $443 $640 $641 forward $445 $-1 #
edge $-1 $642 0 $446 0.1799999999999999656 $443 $643 forward 7 unknown #
face $-1 $644 $445 $2 $-1 $645 reversed single #
point $-1 133.9849999999999852 0 9.524999999999998579 #
coedge $-1 $640 $635 $448 $555 reversed $505 $-1 #
edge $-1 $556 0 $558 0.6249999999999988898 $554 $646 forward 7 unknown #
vertex $-1 $641 $647 #
straight-curve $-1 133.9849999999999852 4.571999999999999176 15.875 0 -25.39999999999999858 0 I I #
vertex $-1 $555 $648 #
straight-curve $-1 149.8599999999999852 4.571999999999999176 15.875 0 -25.39999999999999858 0 I I #
plane-surface $-1 133.9849999999999852 4.571999999999999176 15.875 0 0 1 25.39999999999999858 0 0 forward_v I I I I #
coedge $-1 $455 $454 $506 $584 forward $456 $-1 #
coedge $-1 $466 $506 $458 $563 reversed $417 $-1 #
edge $-1 $470 0 $564 3.141592653589793116 $562 $649 forward 7 unknown #
vertex $-1 $563 $650 #
straight-curve $-1 120.6499999999999915 4.571999999999999176 9.524999999999998579 0 -25.39999999999999858 0 I I #
cone-surface $-1 120.6499999999999915 4.571999999999999176 12.69999999999999929 0 1 0 3.174999999999999822 0 0 1 I I 0 1 3.174999999999999822 forward I I I I #
coedge $-1 $506 $466 $462 $568 reversed $417 $-1 #
edge $-1 $569 0 $468 3.141592653589793116 $567 $651 forward 7 unknown #
vertex $-1 $568 $652 #
straight-curve $-1 104.7749999999999915 4.571999999999999176 9.524999999999998579 0 -25.39999999999999858 0 I I #
face $-1 $548 $544 $2 $-1 $653 reversed single #
cone-surface $-1 104.7749999999999915 4.571999999999999176 12.69999999999999929 0 1 0 3.174999999999999822 0 0 1 I I 0 1 3.174999999999999822 forward I I I I #
straight-curve $-1 104.7749999999999915 4.571999999999999176 15.875 25.39999999999999858 0 0 I I #
point $-1 104.7749999999999915 4.571999999999999176 15.875 #
point $-1 120.6499999999999915 4.571999999999999176 15.875 #
ellipse-curve $-1 91.44000000000002615 4.571999999999999176 12.69999999999999929 0 1 0 -2.255973186038317964e-14 0 3.174999999999999822 1 I I #
point $-1 91.44000000000002615 4.571999999999999176 9.524999999999998579 #
ellipse-curve $-1 75.56500000000002615 4.571999999999999176 12.69999999999999929 0 1 0 0 0 -3.174999999999999822 1 I I #
point $-1 75.56500000000002615 4.571999999999999176 9.524999999999998579 #
plane-surface $-1 120.6499999999999915 4.571999999999999176 9.524999999999998579 0 0 -1 -25.39999999999999858 0 0 forward_v I I I I #
cone-surface $-1 250.8249999999999886 4.571999999999999176 12.69999999999999929 0 1 0 3.174999999999999822 0 0 1 I I 0 1 3.174999999999999822 forward I I I I #
loop $-1 $654 $655 $102 #
coedge $-1 $635 $640 $634 $656 reversed $505 $-1 #
edge $-1 $564 0 $569 0.625 $506 $657 forward 7 unknown #
straight-curve $-1 91.44000000000001194 4.571999999999999176 9.524999999999998579 -25.39999999999999858 0 0 I I #
coedge $-1 $510 $509 $658 $659 forward $321 $-1 #
coedge $-1 $660 $661 $509 $588 reversed $662 $-1 #
edge $-1 $595 0 $663 3.141592653589793116 $509 $664 forward 7 unknown #
coedge $-1 $665 $666 $510 $590 reversed $667 $-1 #
edge $-1 $668 0 $594 3.141592653589793116 $510 $669 forward 7 unknown #
coedge $-1 $670 $511 $666 $671 reversed $593 $-1 #
coedge $-1 $511 $670 $660 $672 forward $593 $-1 #
loop $-1 $-1 $591 $673 #
vertex $-1 $590 $674 #
vertex $-1 $588 $675 #
straight-curve $-1 221.6149999999999807 0 15.875 25.39999999999999858 0 0 I I #
coedge $-1 $676 $677 $513 $598 reversed $678 $-1 #
edge $-1 $602 0 $607 0.625 $513 $679 forward 7 unknown #
coedge $-1 $680 $514 $519 $611 reversed $601 $-1 #
coedge $-1 $514 $680 $676 $681 forward $601 $-1 #
loop $-1 $-1 $599 $682 #
vertex $-1 $598 $683 #
ellipse-curve $-1 208.2799999999999727 0 12.69999999999999929 0 1 0 0 0 3.174999999999999822 1 I I #
coedge $-1 $684 $516 $677 $685 reversed $606 $-1 #
coedge $-1 $516 $684 $518 $610 forward $606 $-1 #
loop $-1 $-1 $604 $686 #
vertex $-1 $517 $687 #
ellipse-curve $-1 192.4049999999999727 0 12.69999999999999929 0 1 0 0 0 -3.174999999999999822 1 I I #
coedge $-1 $519 $518 $688 $689 forward $520 $-1 #
edge $-1 $690 0 $521 0.1799999999999999656 $605 $691 forward 7 unknown #
edge $-1 $692 0 $522 0.1799999999999999656 $519 $693 forward 7 unknown #
face $-1 $686 $520 $2 $-1 $694 reversed single #
point $-1 192.4049999999999727 0 15.875 #
point $-1 208.2799999999999727 0 15.875 #
coedge $-1 $695 $524 $527 $620 reversed $617 $-1 #
coedge $-1 $524 $695 $531 $624 forward $617 $-1 #
loop $-1 $-1 $615 $644 #
straight-curve $-1 179.0699999999999932 0 9.524999999999998579 -25.39999999999999858 0 0 I I #
coedge $-1 $527 $526 $696 $697 forward $528 $-1 #
edge $-1 $698 0 $529 0.1799999999999999656 $527 $699 forward 7 unknown #
face $-1 $539 $528 $2 $-1 $700 reversed single #
point $-1 179.0699999999999932 0 9.524999999999998579 #
coedge $-1 $532 $531 $701 $702 forward $533 $-1 #
edge $-1 $703 0 $534 0.1799999999999999656 $531 $704 forward 7 unknown #
face $-1 $705 $533 $2 $-1 $706 reversed single #
point $-1 163.1949999999999932 0 9.524999999999998579 #
coedge $-1 $701 $696 $536 $628 reversed $582 $-1 #
edge $-1 $629 0 $631 0.6249999999999988898 $627 $707 forward 7 unknown #
vertex $-1 $702 $708 #
straight-curve $-1 163.1949999999999932 4.571999999999999176 15.875 0 -25.39999999999999858 0 I I #
vertex $-1 $628 $709 #
straight-curve $-1 179.0699999999999932 4.571999999999999176 15.875 0 -25.39999999999999858 0 I I #
plane-surface $-1 163.1949999999999932 4.571999999999999176 15.875 0 0 1 25.39999999999999858 0 0 forward_v I I I I #
coedge $-1 $543 $542 $583 $656 forward $544 $-1 #
coedge $-1 $554 $583 $546 $636 reversed $505 $-1 #
edge $-1 $558 -7.105427357601001859e-15 $637 3.141592653589786011 $635 $710 forward 7 unknown #
vertex $-1 $636 $711 #
straight-curve $-1 149.8599999999999852 4.571999999999999176 9.524999999999998579 0 -25.39999999999999858 0 I I #
cone-surface $-1 149.8599999999999852 4.571999999999999176 12.69999999999999929 0 1 0 3.174999999999999822 0 0 1 I I 0 1 3.174999999999999822 forward I I I I #
coedge $-1 $583 $554 $550 $641 reversed $505 $-1 #
edge $-1 $642 -1.846292148038053899e-15 $556 3.141592653589809103 $640 $712 forward 7 unknown #
vertex $-1 $641 $713 #
straight-curve $-1 133.9849999999999852 4.571999999999999176 9.524999999999998579 0 -25.39999999999999858 0 I I #
face $-1 $621 $617 $2 $-1 $714 reversed single #
cone-surface $-1 133.9849999999999852 4.571999999999999176 12.69999999999999929 0 1 0 3.174999999999999822 0 0 1 I I 0 1 3.174999999999999822 forward I I I I #
straight-curve $-1 133.9850000000000136 4.571999999999999176 15.875 25.39999999999999858 0 0 I I #
point $-1 133.9850000000000136 4.571999999999999176 15.875 #
point $-1 149.8599999999999852 4.571999999999999176 15.875 #
ellipse-curve $-1 120.6499999999999915 4.571999999999999176 12.69999999999999929 0 1 0 0 0 3.174999999999999822 1 I I #
point $-1 120.6499999999999915 4.571999999999999176 9.524999999999998579 #
ellipse-curve $-1 104.7749999999999915 4.571999999999999176 12.69999999999999929 0 1 0 0 0 -3.174999999999999822 1 I I #
point $-1 104.7749999999999915 4.571999999999999176 9.524999999999998579 #
plane-surface $-1 149.8599999999999852 4.571999999999999176 9.524999999999998579 0 0 -1 -25.39999999999999858 0 0 forward_v I I I I #
loop $-1 $715 $716 $102 #
coedge $-1 $696 $701 $695 $717 reversed $582 $-1 #
edge $-1 $637 1.118964938204882167e-15 $642 0.625 $583 $718 forward 7 unknown #
straight-curve $-1 120.6499999999999915 4.571999999999999176 9.524999999999998579 -25.39999999999999858 0 0 I I #
coedge $-1 $719 $720 $586 $659 reversed $721 $-1 #
edge $-1 $663 0 $668 0.625 $586 $722 forward 7 unknown #
coedge $-1 $723 $587 $592 $672 reversed $662 $-1 #
coedge $-1 $587 $723 $719 $724 forward $662 $-1 #
loop $-1 $-1 $660 $725 #
vertex $-1 $659 $726 #
ellipse-curve $-1 237.4899999999999807 0 12.69999999999999929 0 1 0 0 0 3.174999999999999822 1 I I #
coedge $-1 $727 $589 $720 $728 reversed $667 $-1 #
coedge $-1 $589 $727 $591 $671 forward $667 $-1 #
loop $-1 $-1 $665 $729 #
vertex $-1 $590 $730 #
ellipse-curve $-1 221.6149999999999807 0 12.69999999999999929 0 1 0 0 0 -3.174999999999999822 1 I I #
coedge $-1 $592 $591 $731 $732 forward $593 $-1 #
edge $-1 $733 0 $594 0.1799999999999999656 $666 $734 forward 7 unknown #
edge $-1 $735 0 $595 0.1799999999999999656 $592 $736 forward 7 unknown #
face $-1 $729 $593 $2 $-1 $737 reversed single #
point $-1 221.6149999999999807 0 15.875 #
point $-1 237.4899999999999807 0 15.875 #
coedge $-1 $738 $597 $600 $681 reversed $678 $-1 #
coedge $-1 $597 $738 $604 $685 forward $678 $-1 #
loop $-1 $-1 $676 $705 #
straight-curve $-1 208.2799999999999727 0 9.524999999999998579 -25.39999999999999858 0 0 I I #
coedge $-1 $600 $599 $739 $740 forward $601 $-1 #
edge $-1 $741 0 $602 0.1799999999999999656 $600 $742 forward 7 unknown #
face $-1 $612 $601 $2 $-1 $743 reversed single #
point $-1 208.2799999999999727 0 9.524999999999998579 #
coedge $-1 $605 $604 $744 $745 forward $606 $-1 #
edge $-1 $746 0 $607 0.1799999999999999656 $604 $747 forward 7 unknown #
face $-1 $748 $606 $2 $-1 $749 reversed single #
point $-1 192.4049999999999727 0 9.524999999999998579 #
coedge $-1 $744 $739 $609 $689 reversed $654 $-1 #
edge $-1 $690 0 $692 0.6249999999999988898 $688 $750 forward 7 unknown #
vertex $-1 $745 $751 #
straight-curve $-1 192.4049999999999727 4.571999999999999176 15.875 0 -25.39999999999999858 0 I I #
vertex $-1 $689 $752 #
straight-curve $-1 208.2799999999999727 4.571999999999999176 15.875 0 -25.39999999999999858 0 I I #
plane-surface $-1 192.4049999999999727 4.571999999999999176 15.875 0 0 1 25.39999999999999858 0 0 forward_v I I I I #
coedge $-1 $616 $615 $655 $717 forward $617 $-1 #
coedge $-1 $627 $655 $619 $697 reversed $582 $-1 #
edge $-1 $631 -7.105427357601001859e-15 $698 3.141592653589786011 $696 $753 forward 7 unknown #
vertex $-1 $697 $754 #
straight-curve $-1 179.0699999999999932 4.571999999999999176 9.524999999999998579 0 -25.39999999999999858 0 I I #
cone-surface $-1 179.0699999999999932 4.571999999999999176 12.69999999999999929 0 1 0 3.174999999999999822 0 0 1 I I 0 1 3.174999999999999822 forward I I I I #
coedge $-1 $655 $627 $623 $702 reversed $582 $-1 #
edge $-1 $703 -1.846292148038053899e-15 $629 3.141592653589809103 $701 $755 forward 7 unknown #
vertex $-1 $702 $756 #
straight-curve $-1 163.1949999999999932 4.571999999999999176 9.524999999999998579 0 -25.39999999999999858 0 I I #
face $-1 $682 $678 $2 $-1 $757 reversed single #
cone-surface $-1 163.1949999999999932 4.571999999999999176 12.69999999999999929 0 1 0 3.174999999999999822 0 0 1 I I 0 1 3.174999999999999822 forward I I I I #
straight-curve $-1 163.1950000000000216 4.571999999999999176 15.875 25.39999999999999858 0 0 I I #
point $-1 163.1950000000000216 4.571999999999999176 15.875 #
point $-1 179.0699999999999932 4.571999999999999176 15.875 #
ellipse-curve $-1 149.8599999999999852 4.571999999999999176 12.69999999999999929 0 1 0 2.255973186038317964e-14 0 3.174999999999999822 1 I I #
point $-1 149.8599999999999852 4.571999999999999176 9.524999999999998579 #
ellipse-curve $-1 133.9849999999999852 4.571999999999999176 12.69999999999999929 0 1 0 2.255973186038317964e-14 0 -3.174999999999999822 1 I I #
point $-1 133.9850000000000136 4.571999999999999176 9.524999999999998579 #
plane-surface $-1 179.0699999999999932 4.571999999999999176 9.524999999999998579 0 0 -1 -25.39999999999999858 0 0 forward_v I I I I #
loop $-1 $56 $758 $102 #
coedge $-1 $739 $744 $738 $759 reversed $654 $-1 #
edge $-1 $698 1.118964938204882167e-15 $703 0.625 $655 $760 forward 7 unknown #
straight-curve $-1 149.8600000000000136 4.571999999999999176 9.524999999999998579 -25.39999999999999858 0 0 I I #
coedge $-1 $761 $658 $661 $724 reversed $721 $-1 #
coedge $-1 $658 $761 $665 $728 forward $721 $-1 #
loop $-1 $-1 $719 $748 #
straight-curve $-1 237.4899999999999807 0 9.524999999999998579 -25.39999999999999858 0 0 I I #
coedge $-1 $661 $660 $762 $763 forward $662 $-1 #
edge $-1 $764 0 $663 0.1799999999999999656 $661 $765 forward 7 unknown #
face $-1 $673 $662 $2 $-1 $766 reversed single #
point $-1 237.4899999999999807 0 9.524999999999998579 #
coedge $-1 $666 $665 $767 $768 forward $667 $-1 #
edge $-1 $769 0 $668 0.1799999999999999656 $665 $770 forward 7 unknown #
face $-1 $147 $667 $2 $-1 $771 reversed single #
point $-1 221.6149999999999807 0 9.524999999999998579 #
coedge $-1 $767 $762 $670 $732 reversed $715 $-1 #
edge $-1 $733 0 $735 0.625 $731 $772 forward 7 unknown #
vertex $-1 $768 $773 #
straight-curve $-1 221.6149999999999807 4.571999999999999176 15.875 0 -25.39999999999999858 0 I I #
vertex $-1 $732 $774 #
straight-curve $-1 237.4899999999999807 4.571999999999999176 15.875 0 -25.39999999999999858 0 I I #
plane-surface $-1 221.6149999999999807 4.571999999999999176 15.875 0 0 1 25.39999999999999858 0 0 forward_v I I I I #
coedge $-1 $677 $676 $716 $759 forward $678 $-1 #
coedge $-1 $688 $716 $680 $740 reversed $654 $-1 #
edge $-1 $692 0 $741 3.141592653589793116 $739 $775 forward 7 unknown #
vertex $-1 $740 $776 #
straight-curve $-1 208.2799999999999727 4.571999999999999176 9.524999999999998579 0 -25.39999999999999858 0 I I #
cone-surface $-1 208.2799999999999727 4.571999999999999176 12.69999999999999929 0 1 0 3.174999999999999822 0 0 1 I I 0 1 3.174999999999999822 forward I I I I #
coedge $-1 $716 $688 $684 $745 reversed $654 $-1 #
edge $-1 $746 -1.846292148038053899e-15 $690 3.141592653589809103 $744 $777 forward 7 unknown #
vertex $-1 $745 $778 #
straight-curve $-1 192.4049999999999727 4.571999999999999176 9.524999999999998579 0 -25.39999999999999858 0 I I #
face $-1 $725 $721 $2 $-1 $779 reversed single #
cone-surface $-1 192.4049999999999727 4.571999999999999176 12.69999999999999929 0 1 0 3.174999999999999822 0 0 1 I I 0 1 3.174999999999999822 forward I I I I #
straight-curve $-1 192.4050000000000011 4.571999999999999176 15.875 25.39999999999999858 0 0 I I #
point $-1 192.4050000000000011 4.571999999999999176 15.875 #
point $-1 208.2799999999999727 4.571999999999999176 15.875 #
ellipse-curve $-1 179.0699999999999932 4.571999999999999176 12.69999999999999929 0 1 0 2.255973186038317964e-14 0 3.174999999999999822 1 I I #
point $-1 179.0699999999999932 4.571999999999999176 9.524999999999998579 #
ellipse-curve $-1 163.1949999999999932 4.571999999999999176 12.69999999999999929 0 1 0 2.255973186038317964e-14 0 -3.174999999999999822 1 I I #
point $-1 163.1950000000000216 4.571999999999999176 9.524999999999998579 #
plane-surface $-1 208.2799999999999727 4.571999999999999176 9.524999999999998579 0 0 -1 -25.39999999999999858 0 0 forward_v I I I I #
coedge $-1 $762 $767 $761 $780 reversed $715 $-1 #
edge $-1 $741 0 $746 0.6249999999999988898 $716 $781 forward 7 unknown #
straight-curve $-1 179.0700000000000216 4.571999999999999176 9.524999999999998579 -25.39999999999999858 0 0 I I #
coedge $-1 $720 $719 $758 $780 forward $721 $-1 #
coedge $-1 $731 $758 $723 $763 reversed $715 $-1 #
edge $-1 $735 0 $764 3.141592653589793116 $762 $782 forward 7 unknown #
vertex $-1 $763 $783 #
straight-curve $-1 237.4899999999999807 4.571999999999999176 9.524999999999998579 0 -25.39999999999999858 0 I I #
cone-surface $-1 237.4899999999999807 4.571999999999999176 12.69999999999999929 0 1 0 3.174999999999999822 0 0 1 I I 0 1 3.174999999999999822 forward I I I I #
coedge $-1 $758 $731 $727 $768 reversed $715 $-1 #
edge $-1 $769 0 $733 3.141592653589793116 $767 $784 forward 7 unknown #
vertex $-1 $768 $785 #
straight-curve $-1 221.6149999999999807 4.571999999999999176 9.524999999999998579 0 -25.39999999999999858 0 I I #
cone-surface $-1 221.6149999999999807 4.571999999999999176 12.69999999999999929 0 1 0 3.174999999999999822 0 0 1 I I 0 1 3.174999999999999822 forward I I I I #
straight-curve $-1 221.6149999999999807 4.571999999999999176 15.875 25.39999999999999858 0 0 I I #
point $-1 221.6149999999999807 4.571999999999999176 15.875 #
point $-1 237.4899999999999807 4.571999999999999176 15.875 #
ellipse-curve $-1 208.2799999999999727 4.571999999999999176 12.69999999999999929 0 1 0 0 0 3.174999999999999822 1 I I #
point $-1 208.2799999999999727 4.571999999999999176 9.524999999999998579 #
ellipse-curve $-1 192.4049999999999727 4.571999999999999176 12.69999999999999929 0 1 0 2.255973186038317964e-14 0 -3.174999999999999822 1 I I #
point $-1 192.4050000000000011 4.571999999999999176 9.524999999999998579 #
plane-surface $-1 237.4899999999999807 4.571999999999999176 9.524999999999998579 0 0 -1 -25.39999999999999858 0 0 forward_v I I I I #
edge $-1 $764 0 $769 0.625 $758 $786 forward 7 unknown #
straight-curve $-1 208.2799999999999727 4.571999999999999176 9.524999999999998579 -25.39999999999999858 0 0 I I #
ellipse-curve $-1 237.4899999999999807 4.571999999999999176 12.69999999999999929 0 1 0 0 0 3.174999999999999822 1 I I #
point $-1 237.4899999999999807 4.571999999999999176 9.524999999999998579 #
ellipse-curve $-1 221.6149999999999807 4.571999999999999176 12.69999999999999929 0 1 0 0 0 -3.174999999999999822 1 I I #
point $-1 221.6149999999999807 4.571999999999999176 9.524999999999998579 #
straight-curve $-1 237.4899999999999807 4.571999999999999176 9.524999999999998579 -25.39999999999999858 0 0 I I #
End-of-ACIS-data 