600 0 1 0           
105 GICL ACIS Healer - Source: /gicl/data5/repository/PTC/V18/process_mfg18/models/clamp_slider.prt.sat - 6 0 18 ACIS 6.0.3 Solaris 24 Sat Apr 13 21:15:36 2002 
1 9.999999999999999547e-07 1.000000000000000036e-10 
body $-1 $1 $-1 $-1 #
lump $-1 $-1 $2 $0 #
shell $-1 $-1 $-1 $3 $-1 $1 #
face $-1 $4 $5 $2 $-1 $6 reversed single #
face $-1 $7 $8 $2 $-1 $9 forward single #
loop $-1 $-1 $10 $3 #
plane-surface $-1 0 0 -88.89999999999999147 0 0 1 25.39999999999999858 0 0 forward_v I I I I #
face $-1 $11 $12 $2 $-1 $13 forward single #
loop $-1 $-1 $14 $4 #
plane-surface $-1 -25.39999999999999858 25.39999999999999858 -88.89999999999999147 0 1 0 -25.39999999999999858 0 0 forward_v I I I I #
coedge $-1 $15 $16 $17 $18 reversed $5 $-1 #
face $-1 $19 $20 $2 $-1 $21 forward single #
loop $-1 $-1 $22 $7 #
plane-surface $-1 -38.09999999999999432 25.39999999999999858 -88.89999999999999147 -1 0 0 0 -25.39999999999999858 0 forward_v I I I I #
coedge $-1 $23 $17 $24 $25 forward $8 $-1 #
coedge $-1 $26 $10 $27 $28 reversed $5 $-1 #
coedge $-1 $10 $29 $30 $31 reversed $5 $-1 #
coedge $-1 $14 $32 $10 $18 forward $8 $-1 #
edge $-1 $33 0 $34 0.4999999999999998335 $10 $35 forward 7 unknown #
face $-1 $36 $37 $2 $-1 $38 forward single #
loop $-1 $39 $40 $11 #
plane-surface $-1 -38.09999999999999432 0 -88.89999999999999147 0 -1 0 25.39999999999999858 0 0 forward_v I I I I #
coedge $-1 $41 $30 $42 $43 forward $12 $-1 #
coedge $-1 $32 $14 $44 $45 reversed $8 $-1 #
coedge $-1 $30 $41 $14 $25 reversed $12 $-1 #
edge $-1 $34 0 $46 7 $24 $47 forward 7 unknown #
coedge $-1 $48 $15 $49 $50 reversed $5 $-1 #
coedge $-1 $51 $52 $15 $28 forward $53 $-1 #
edge $-1 $54 0 $33 0.1799999999999999656 $15 $55 forward 7 unknown #
coedge $-1 $16 $56 $57 $58 reversed $5 $-1 #
coedge $-1 $22 $24 $16 $31 forward $12 $-1 #
edge $-1 $34 0 $59 1 $16 $60 forward 7 unknown #
coedge $-1 $17 $23 $51 $61 reversed $8 $-1 #
vertex $-1 $28 $62 #
vertex $-1 $31 $63 #
straight-curve $-1 -25.39999999999999858 25.39999999999999858 -88.89999999999999147 -25.39999999999999858 0 0 I I #
face $-1 $64 $65 $2 $-1 $66 forward single #
loop $-1 $-1 $67 $19 #
plane-surface $-1 38.09999999999999432 0 -88.89999999999999147 1 0 0 0 25.39999999999999858 0 forward_v I I I I #
loop $-1 $68 $69 $11 #
coedge $-1 $70 $57 $71 $72 forward $20 $-1 #
coedge $-1 $24 $22 $73 $74 reversed $12 $-1 #
coedge $-1 $57 $70 $22 $43 reversed $20 $-1 #
edge $-1 $59 0 $75 7 $22 $76 forward 7 unknown #
coedge $-1 $73 $77 $23 $45 forward $78 $-1 #
edge $-1 $79 0 $46 0.4999999999999998335 $44 $80 forward 7 unknown #
vertex $-1 $74 $81 #
straight-curve $-1 -38.09999999999999432 25.39999999999999858 -88.89999999999999147 0 0 25.39999999999999858 I I #
coedge $-1 $82 $26 $83 $84 reversed $5 $-1 #
coedge $-1 $85 $86 $26 $50 forward $87 $-1 #
edge $-1 $88 0 $54 2 $26 $89 forward 7 unknown #
coedge $-1 $90 $27 $32 $61 forward $53 $-1 #
coedge $-1 $27 $90 $85 $91 reversed $53 $-1 #
loop $-1 $-1 $51 $92 #
vertex $-1 $50 $93 #
straight-curve $-1 -25.39999999999999858 29.97199999999999775 -88.89999999999999147 0 -25.39999999999999858 0 I I #
coedge $-1 $29 $82 $94 $95 reversed $5 $-1 #
coedge $-1 $40 $42 $29 $58 forward $20 $-1 #
edge $-1 $59 0 $96 2.999999999999999556 $29 $97 forward 7 unknown #
vertex $-1 $31 $98 #
straight-curve $-1 -38.09999999999999432 25.39999999999999858 -88.89999999999999147 0 -25.39999999999999858 0 I I #
edge $-1 $33 0 $79 7 $51 $99 forward 7 unknown #
point $-1 -25.39999999999999858 25.39999999999999858 -88.89999999999999147 #
point $-1 -38.09999999999999432 25.39999999999999858 -88.89999999999999147 #
face $-1 $100 $101 $2 $-1 $102 forward single #
loop $-1 $-1 $103 $36 #
plane-surface $-1 38.09999999999999432 25.39999999999999858 -88.89999999999999147 0 1 0 -25.39999999999999858 0 0 forward_v I I I I #
coedge $-1 $104 $94 $105 $106 forward $37 $-1 #
loop $-1 $-1 $107 $11 #
coedge $-1 $108 $109 $110 $111 reversed $39 $-1 #
coedge $-1 $42 $40 $112 $113 reversed $20 $-1 #
coedge $-1 $94 $104 $40 $72 reversed $37 $-1 #
edge $-1 $96 0 $114 7 $40 $115 forward 7 unknown #
coedge $-1 $112 $44 $41 $74 forward $78 $-1 #
edge $-1 $46 0 $75 1 $73 $116 forward 7 unknown #
vertex $-1 $74 $117 #
straight-curve $-1 -38.09999999999999432 0 -88.89999999999999147 0 0 25.39999999999999858 I I #
coedge $-1 $44 $118 $90 $119 forward $78 $-1 #
loop $-1 $-1 $112 $120 #
vertex $-1 $45 $121 #
straight-curve $-1 -25.39999999999999858 25.39999999999999858 88.89999999999999147 -25.39999999999999858 0 0 I I #
point $-1 -38.09999999999999432 25.39999999999999858 88.89999999999999147 #
coedge $-1 $56 $48 $122 $123 reversed $5 $-1 #
coedge $-1 $124 $125 $48 $84 forward $101 $-1 #
edge $-1 $126 0 $88 0.1799999999999999656 $48 $127 forward 7 unknown #
coedge $-1 $128 $49 $52 $91 forward $87 $-1 #
coedge $-1 $49 $128 $124 $129 reversed $87 $-1 #
loop $-1 $130 $85 $100 #
vertex $-1 $84 $131 #
straight-curve $-1 25.39999999999999858 29.97199999999999775 -88.89999999999999147 -25.39999999999999858 0 0 I I #
coedge $-1 $52 $51 $77 $119 reversed $53 $-1 #
edge $-1 $54 0 $132 7 $85 $133 forward 7 unknown #
face $-1 $120 $53 $2 $-1 $134 forward single #
point $-1 -25.39999999999999858 29.97199999999999775 -88.89999999999999147 #
coedge $-1 $67 $71 $56 $95 forward $37 $-1 #
edge $-1 $96 0 $135 1 $56 $136 forward 7 unknown #
vertex $-1 $58 $137 #
straight-curve $-1 -38.09999999999999432 0 -88.89999999999999147 25.39999999999999858 0 0 I I #
point $-1 -38.09999999999999432 0 -88.89999999999999147 #
straight-curve $-1 -25.39999999999999858 25.39999999999999858 -88.89999999999999147 0 0 25.39999999999999858 I I #
face $-1 $138 $139 $2 $-1 $140 forward single #
loop $-1 $-1 $124 $64 #
plane-surface $-1 25.39999999999999858 25.39999999999999858 -88.89999999999999147 1 0 0 0 25.39999999999999858 0 forward_v I I I I #
coedge $-1 $141 $122 $125 $142 forward $65 $-1 #
coedge $-1 $71 $67 $143 $144 reversed $37 $-1 #
coedge $-1 $122 $141 $67 $106 reversed $65 $-1 #
edge $-1 $135 0 $145 7 $67 $146 forward 7 unknown #
coedge $-1 $147 $148 $149 $150 forward $68 $-1 #
coedge $-1 $151 $69 $152 $153 reversed $39 $-1 #
coedge $-1 $69 $151 $154 $155 forward $39 $-1 #
coedge $-1 $156 $157 $69 $111 forward $158 $-1 #
edge $-1 $159 0 $160 0.4999999999999998335 $69 $161 forward 7 unknown #
coedge $-1 $143 $73 $70 $113 forward $78 $-1 #
edge $-1 $75 0 $114 2.999999999999999556 $112 $162 forward 7 unknown #
vertex $-1 $144 $163 #
straight-curve $-1 38.09999999999999432 0 -88.89999999999999147 0 0 25.39999999999999858 I I #
straight-curve $-1 -38.09999999999999432 25.39999999999999858 88.89999999999999147 0 -25.39999999999999858 0 I I #
point $-1 -38.09999999999999432 0 88.89999999999999147 #
coedge $-1 $77 $164 $128 $165 forward $78 $-1 #
edge $-1 $132 0 $79 0.1799999999999999656 $77 $166 forward 7 unknown #
face $-1 $167 $78 $2 $-1 $168 forward single #
point $-1 -25.39999999999999858 25.39999999999999858 88.89999999999999147 #
coedge $-1 $103 $105 $82 $123 forward $65 $-1 #
edge $-1 $135 0 $126 0.4999999999999998335 $82 $169 forward 7 unknown #
coedge $-1 $170 $83 $86 $129 forward $101 $-1 #
coedge $-1 $83 $170 $103 $142 reversed $101 $-1 #
vertex $-1 $123 $171 #
straight-curve $-1 25.39999999999999858 25.39999999999999858 -88.89999999999999147 0 25.39999999999999858 0 I I #
coedge $-1 $86 $85 $118 $165 reversed $87 $-1 #
edge $-1 $88 0 $172 7 $124 $173 forward 7 unknown #
loop $-1 $-1 $174 $100 #
point $-1 25.39999999999999858 29.97199999999999775 -88.89999999999999147 #
vertex $-1 $119 $175 #
straight-curve $-1 -25.39999999999999858 29.97199999999999775 -88.89999999999999147 0 0 25.39999999999999858 I I #
plane-surface $-1 -25.39999999999999858 29.97199999999999775 -88.89999999999999147 -1 0 0 0 -25.39999999999999858 0 forward_v I I I I #
vertex $-1 $95 $176 #
straight-curve $-1 38.09999999999999432 0 -88.89999999999999147 0 25.39999999999999858 0 I I #
point $-1 38.09999999999999432 0 -88.89999999999999147 #
face $-1 $177 $178 $2 $-1 $179 reversed single #
loop $-1 $180 $181 $100 #
plane-surface $-1 25.39999999999999858 29.97199999999999775 -88.89999999999999147 0 1 0 -25.39999999999999858 0 0 forward_v I I I I #
coedge $-1 $105 $103 $182 $183 reversed $65 $-1 #
edge $-1 $126 0 $184 7 $103 $185 forward 7 unknown #
coedge $-1 $182 $112 $104 $144 forward $78 $-1 #
edge $-1 $114 0 $145 1 $143 $186 forward 7 unknown #
vertex $-1 $183 $187 #
straight-curve $-1 38.09999999999999432 25.39999999999999858 -88.89999999999999147 0 0 25.39999999999999858 I I #
coedge $-1 $188 $107 $189 $190 forward $68 $-1 #
coedge $-1 $107 $188 $191 $192 reversed $68 $-1 #
coedge $-1 $193 $194 $107 $150 reversed $195 $-1 #
edge $-1 $196 0 $197 0.4999999999999998335 $107 $198 forward 7 unknown #
coedge $-1 $109 $108 $199 $200 forward $39 $-1 #
coedge $-1 $201 $202 $108 $153 forward $203 $-1 #
edge $-1 $204 0 $159 2.5 $108 $205 forward 7 unknown #
coedge $-1 $206 $207 $109 $155 reversed $208 $-1 #
edge $-1 $209 0 $160 2.5 $109 $210 forward 7 unknown #
coedge $-1 $211 $110 $207 $212 forward $158 $-1 #
coedge $-1 $110 $213 $201 $214 forward $158 $-1 #
loop $-1 $-1 $211 $215 #
vertex $-1 $153 $216 #
vertex $-1 $155 $217 #
straight-curve $-1 31.75 0 57.14999999999999858 0 0 25.39999999999999858 I I #
straight-curve $-1 -38.09999999999999432 0 88.89999999999999147 25.39999999999999858 0 0 I I #
point $-1 38.09999999999999432 0 88.89999999999999147 #
coedge $-1 $118 $182 $170 $218 forward $78 $-1 #
edge $-1 $172 0 $132 2 $118 $219 forward 7 unknown #
straight-curve $-1 -25.39999999999999858 29.97199999999999775 88.89999999999999147 0 -25.39999999999999858 0 I I #
face $-1 $220 $221 $2 $-1 $222 reversed single #
plane-surface $-1 0 0 88.89999999999999147 0 0 1 25.39999999999999858 0 0 forward_v I I I I #
straight-curve $-1 38.09999999999999432 25.39999999999999858 -88.89999999999999147 -25.39999999999999858 0 0 I I #
coedge $-1 $125 $124 $164 $218 reversed $101 $-1 #
point $-1 25.39999999999999858 25.39999999999999858 -88.89999999999999147 #
vertex $-1 $165 $223 #
straight-curve $-1 25.39999999999999858 29.97199999999999775 -88.89999999999999147 0 0 25.39999999999999858 I I #
coedge $-1 $224 $224 $225 $226 forward $130 $-1 #
point $-1 -25.39999999999999858 29.97199999999999775 88.89999999999999147 #
point $-1 38.09999999999999432 25.39999999999999858 -88.89999999999999147 #
face $-1 $227 $228 $2 $-1 $229 reversed single #
loop $-1 $-1 $230 $138 #
cone-surface $-1 16.00199999999999889 29.97199999999999775 -63.5 0 -1 0 3.174999999999999822 0 0 1 I I 0 1 3.174999999999999822 forward I I I I #
loop $-1 $231 $232 $100 #
coedge $-1 $233 $233 $234 $235 forward $139 $-1 #
coedge $-1 $164 $143 $141 $183 forward $78 $-1 #
edge $-1 $145 0 $184 0.4999999999999998335 $182 $236 forward 7 unknown #
vertex $-1 $218 $237 #
straight-curve $-1 25.39999999999999858 25.39999999999999858 -88.89999999999999147 0 0 25.39999999999999858 I I #
straight-curve $-1 38.09999999999999432 0 88.89999999999999147 0 25.39999999999999858 0 I I #
point $-1 38.09999999999999432 25.39999999999999858 88.89999999999999147 #
coedge $-1 $148 $147 $238 $239 reversed $68 $-1 #
coedge $-1 $240 $241 $147 $190 reversed $242 $-1 #
edge $-1 $197 0 $243 2.5 $147 $244 forward 7 unknown #
coedge $-1 $245 $246 $148 $192 forward $247 $-1 #
edge $-1 $196 0 $248 2.5 $148 $249 forward 7 unknown #
coedge $-1 $250 $149 $246 $251 forward $195 $-1 #
coedge $-1 $149 $252 $240 $253 forward $195 $-1 #
loop $-1 $-1 $250 $254 #
vertex $-1 $192 $255 #
vertex $-1 $190 $256 #
straight-curve $-1 -31.75 0 -69.84999999999999432 0 0 25.39999999999999858 I I #
coedge $-1 $257 $258 $151 $200 reversed $259 $-1 #
edge $-1 $204 0 $209 0.4999999999999998335 $151 $260 forward 7 unknown #
coedge $-1 $261 $152 $157 $214 reversed $203 $-1 #
coedge $-1 $152 $261 $257 $262 reversed $203 $-1 #
loop $-1 $-1 $201 $263 #
vertex $-1 $200 $264 #
straight-curve $-1 -31.75 0 57.14999999999999858 25.39999999999999858 0 0 I I #
coedge $-1 $265 $154 $258 $266 reversed $208 $-1 #
coedge $-1 $154 $265 $156 $212 reversed $208 $-1 #
loop $-1 $-1 $206 $267 #
vertex $-1 $155 $268 #
straight-curve $-1 -31.75 0 69.84999999999999432 25.39999999999999858 0 0 I I #
coedge $-1 $269 $156 $270 $271 forward $158 $-1 #
edge $-1 $160 0 $272 0.5300000000000000266 $156 $273 forward 7 unknown #
coedge $-1 $157 $274 $275 $276 forward $158 $-1 #
edge $-1 $277 0 $159 0.5300000000000000266 $157 $278 forward 7 unknown #
face $-1 $279 $158 $2 $-1 $280 forward single #
point $-1 31.75 0 57.14999999999999858 #
point $-1 31.75 0 69.84999999999999432 #
edge $-1 $184 0 $172 0.1799999999999999656 $164 $281 forward 7 unknown #
straight-curve $-1 25.39999999999999858 29.97199999999999775 88.89999999999999147 -25.39999999999999858 0 0 I I #
face $-1 $282 $283 $2 $-1 $284 reversed single #
loop $-1 $-1 $285 $167 #
cone-surface $-1 -15.74799999999999933 29.97199999999999775 63.5 0 -1 0 3.174999999999999822 0 0 1 I I 0 1 3.174999999999999822 forward I I I I #
point $-1 25.39999999999999858 29.97199999999999775 88.89999999999999147 #
coedge $-1 $174 $174 $286 $287 forward $130 $-1 #
coedge $-1 $285 $288 $174 $226 reversed $221 $-1 #
edge $-1 $289 0 $290 3.141592653589793116 $174 $291 forward 7 unknown #
face $-1 $292 $293 $2 $-1 $294 reversed single #
loop $-1 $-1 $295 $177 #
cone-surface $-1 16.00199999999999889 29.97199999999999775 -63.5 0 -1 0 3.174999999999999822 0 0 1 I I 0 1 3.174999999999999822 forward I I I I #
coedge $-1 $296 $234 $297 $298 forward $178 $-1 #
loop $-1 $87 $299 $100 #
coedge $-1 $300 $300 $301 $302 forward $180 $-1 #
coedge $-1 $181 $181 $303 $304 forward $139 $-1 #
coedge $-1 $230 $305 $181 $235 reversed $178 $-1 #
edge $-1 $306 0 $307 3.141592653589793116 $181 $308 forward 7 unknown #
straight-curve $-1 38.09999999999999432 25.39999999999999858 88.89999999999999147 -25.39999999999999858 0 0 I I #
point $-1 25.39999999999999858 25.39999999999999858 88.89999999999999147 #
coedge $-1 $309 $310 $188 $239 forward $311 $-1 #
edge $-1 $248 0 $243 0.4999999999999998335 $188 $312 forward 7 unknown #
coedge $-1 $313 $189 $194 $253 reversed $242 $-1 #
coedge $-1 $189 $313 $309 $314 reversed $242 $-1 #
loop $-1 $-1 $240 $315 #
vertex $-1 $239 $316 #
straight-curve $-1 -31.75 0 -57.14999999999999858 25.39999999999999858 0 0 I I #
coedge $-1 $317 $191 $310 $318 reversed $247 $-1 #
coedge $-1 $191 $317 $193 $251 reversed $247 $-1 #
loop $-1 $-1 $245 $319 #
vertex $-1 $192 $320 #
straight-curve $-1 -31.75 0 -69.84999999999999432 25.39999999999999858 0 0 I I #
coedge $-1 $321 $193 $322 $323 forward $195 $-1 #
edge $-1 $196 0 $324 0.5300000000000000266 $193 $325 forward 7 unknown #
coedge $-1 $194 $326 $327 $328 forward $195 $-1 #
edge $-1 $329 0 $197 0.5300000000000000266 $194 $330 forward 7 unknown #
face $-1 $331 $195 $2 $-1 $332 forward single #
point $-1 -31.75 0 -69.84999999999999432 #
point $-1 -31.75 0 -57.14999999999999858 #
coedge $-1 $333 $199 $202 $262 forward $259 $-1 #
coedge $-1 $199 $334 $206 $266 forward $259 $-1 #
loop $-1 $-1 $199 $335 #
straight-curve $-1 -31.75 0 57.14999999999999858 0 0 25.39999999999999858 I I #
coedge $-1 $202 $201 $336 $337 forward $203 $-1 #
edge $-1 $204 0 $338 0.5300000000000000266 $257 $339 forward 7 unknown #
face $-1 $335 $203 $2 $-1 $340 forward single #
point $-1 -31.75 0 57.14999999999999858 #
coedge $-1 $207 $206 $341 $342 reversed $208 $-1 #
edge $-1 $343 0 $209 0.5300000000000000266 $258 $344 forward 7 unknown #
face $-1 $254 $208 $2 $-1 $345 forward single #
point $-1 -31.75 0 69.84999999999999432 #
coedge $-1 $346 $211 $347 $348 forward $158 $-1 #
coedge $-1 $341 $349 $211 $271 reversed $350 $-1 #
edge $-1 $272 0 $351 0.4800000000000003153 $211 $352 forward 7 unknown #
vertex $-1 $212 $353 #
straight-curve $-1 31.75 0 69.84999999999999432 0 -25.39999999999999858 0 I I #
coedge $-1 $213 $346 $354 $355 forward $158 $-1 #
coedge $-1 $356 $336 $213 $276 reversed $357 $-1 #
edge $-1 $358 0 $277 0.4800000000000000377 $213 $359 forward 7 unknown #
vertex $-1 $214 $360 #
straight-curve $-1 31.75 -13.46199999999999974 57.14999999999999858 0 25.39999999999999858 0 I I #
face $-1 $361 $350 $2 $-1 $362 forward single #
plane-surface $-1 31.75 0 0 1 0 0 0 0 -25.39999999999999858 forward_v I I I I #
straight-curve $-1 25.39999999999999858 25.39999999999999858 88.89999999999999147 0 25.39999999999999858 0 I I #
face $-1 $215 $363 $2 $-1 $364 reversed single #
loop $-1 $-1 $365 $220 #
cone-surface $-1 -15.74799999999999933 29.97199999999999775 63.5 0 -1 0 3.174999999999999822 0 0 1 I I 0 1 3.174999999999999822 forward I I I I #
coedge $-1 $366 $225 $367 $368 forward $221 $-1 #
coedge $-1 $365 $367 $224 $287 reversed $283 $-1 #
edge $-1 $290 0 $289 3.141592653589793116 $224 $369 forward 7 unknown #
coedge $-1 $225 $366 $365 $370 reversed $221 $-1 #
vertex $-1 $287 $371 #
vertex $-1 $287 $372 #
ellipse-curve $-1 -15.74799999999999933 29.97199999999999775 63.5 0 -1 0 -3.175000000000002487 0 0 1 I I #
face $-1 $373 $374 $2 $-1 $375 reversed single #
loop $-1 $-1 $376 $227 #
plane-surface $-1 16.00199999999999889 4.571999999999998288 -63.5 0 -1 0 25.39999999999999858 0 0 forward_v I I I I #
coedge $-1 $377 $303 $305 $378 forward $228 $-1 #
coedge $-1 $305 $230 $376 $379 forward $178 $-1 #
coedge $-1 $303 $377 $230 $298 reversed $228 $-1 #
edge $-1 $306 0 $380 1 $297 $381 forward 7 unknown #
coedge $-1 $382 $382 $383 $384 forward $231 $-1 #
coedge $-1 $232 $232 $385 $386 forward $180 $-1 #
coedge $-1 $387 $388 $232 $302 reversed $374 $-1 #
edge $-1 $389 0 $390 3.141592653589793116 $232 $391 forward 7 unknown #
coedge $-1 $295 $297 $233 $304 reversed $228 $-1 #
edge $-1 $307 0 $306 3.141592653589793116 $233 $392 forward 7 unknown #
coedge $-1 $234 $296 $295 $378 reversed $178 $-1 #
vertex $-1 $304 $393 #
vertex $-1 $304 $394 #
ellipse-curve $-1 16.00199999999999889 29.97199999999999775 -63.5 0 -1 0 -3.175000000000002487 0 0 1 I I #
coedge $-1 $395 $238 $241 $314 forward $311 $-1 #
coedge $-1 $238 $396 $245 $318 forward $311 $-1 #
loop $-1 $-1 $238 $397 #
straight-curve $-1 31.75 0 -69.84999999999999432 0 0 25.39999999999999858 I I #
coedge $-1 $241 $240 $398 $399 reversed $242 $-1 #
edge $-1 $243 0 $400 0.5300000000000000266 $309 $401 forward 7 unknown #
face $-1 $402 $242 $2 $-1 $403 reversed single #
point $-1 31.75 0 -57.14999999999999858 #
coedge $-1 $246 $245 $404 $405 forward $247 $-1 #
edge $-1 $406 0 $248 0.5300000000000000266 $310 $407 forward 7 unknown #
face $-1 $397 $247 $2 $-1 $408 reversed single #
point $-1 31.75 0 -69.84999999999999432 #
coedge $-1 $409 $250 $410 $411 forward $195 $-1 #
coedge $-1 $404 $412 $250 $323 reversed $413 $-1 #
edge $-1 $324 0 $414 0.4800000000000003153 $250 $415 forward 7 unknown #
vertex $-1 $251 $416 #
straight-curve $-1 -31.75 0 -69.84999999999999432 0 -25.39999999999999858 0 I I #
coedge $-1 $252 $409 $417 $418 forward $195 $-1 #
coedge $-1 $419 $398 $252 $328 reversed $420 $-1 #
edge $-1 $421 0 $329 0.4800000000000000377 $252 $422 forward 7 unknown #
vertex $-1 $253 $423 #
straight-curve $-1 -31.75 -13.46199999999999974 -57.14999999999999858 0 25.39999999999999858 0 I I #
face $-1 $319 $413 $2 $-1 $424 reversed single #
plane-surface $-1 -31.75 0 0 -1 0 0 0 0 25.39999999999999858 forward_v I I I I #
coedge $-1 $425 $257 $426 $427 forward $259 $-1 #
coedge $-1 $258 $428 $429 $430 forward $259 $-1 #
face $-1 $267 $259 $2 $-1 $431 reversed single #
coedge $-1 $275 $426 $261 $337 reversed $357 $-1 #
edge $-1 $277 0 $338 2.5 $336 $432 forward 7 unknown #
vertex $-1 $427 $433 #
straight-curve $-1 -31.75 0 57.14999999999999858 0 -25.39999999999999858 0 I I #
plane-surface $-1 -31.75 -13.46199999999999974 57.14999999999999858 0 0 -1 0 25.39999999999999858 0 forward_v I I I I #
coedge $-1 $429 $270 $265 $342 forward $350 $-1 #
edge $-1 $272 0 $343 2.5 $265 $434 forward 7 unknown #
vertex $-1 $266 $435 #
straight-curve $-1 -31.75 -13.46199999999999974 69.84999999999999432 0 25.39999999999999858 0 I I #
plane-surface $-1 -31.75 0 69.84999999999999432 0 0 1 0 -25.39999999999999858 0 forward_v I I I I #
coedge $-1 $274 $269 $436 $437 forward $158 $-1 #
coedge $-1 $438 $439 $269 $348 reversed $440 $-1 #
edge $-1 $351 0 $441 0.459999999999999909 $269 $442 forward 7 unknown #
coedge $-1 $270 $429 $438 $443 reversed $350 $-1 #
loop $-1 $-1 $349 $279 #
vertex $-1 $348 $444 #
straight-curve $-1 31.75 -13.46199999999999974 69.84999999999999432 0 0 25.39999999999999858 I I #
point $-1 31.75 -13.46199999999999974 69.84999999999999432 #
coedge $-1 $445 $446 $274 $355 reversed $447 $-1 #
edge $-1 $448 0 $358 0.459999999999999909 $274 $449 forward 7 unknown #
coedge $-1 $426 $275 $446 $450 forward $357 $-1 #
loop $-1 $-1 $336 $451 #
vertex $-1 $276 $452 #
straight-curve $-1 31.75 -13.46199999999999974 44.95799999999999841 0 0 25.39999999999999858 I I #
point $-1 31.75 -13.46199999999999974 57.14999999999999858 #
face $-1 $453 $440 $2 $-1 $454 forward single #
plane-surface $-1 -31.75 -13.46199999999999974 69.84999999999999432 0 1 0 0 0 25.39999999999999858 forward_v I I I I #
loop $-1 $-1 $455 $282 #
plane-surface $-1 -15.74799999999999933 4.571999999999998288 63.5 0 -1 0 25.39999999999999858 0 0 forward_v I I I I #
coedge $-1 $456 $286 $288 $370 forward $283 $-1 #
coedge $-1 $288 $285 $455 $457 forward $221 $-1 #
coedge $-1 $286 $456 $285 $368 reversed $283 $-1 #
edge $-1 $289 0 $458 1 $367 $459 forward 7 unknown #
ellipse-curve $-1 -15.74799999999999933 29.97199999999999775 63.5 0 -1 0 3.174999999999997158 0 0 1 I I #
edge $-1 $290 0 $460 1 $365 $461 forward 7 unknown #
point $-1 -18.92300000000000182 29.97199999999999775 63.5 #
point $-1 -12.57300000000000217 29.97199999999999775 63.5 #
face $-1 $462 $463 $2 $-1 $464 reversed single #
loop $-1 $-1 $387 $292 #
cone-surface $-1 16.00199999999999889 29.97199999999999775 63.5 0 -1 0 3.174999999999999822 0 0 1 I I 0 1 3.174999999999999822 forward I I I I #
coedge $-1 $465 $465 $296 $379 reversed $293 $-1 #
coedge $-1 $297 $295 $465 $466 forward $228 $-1 #
edge $-1 $307 0 $467 1 $295 $468 forward 7 unknown #
edge $-1 $380 0 $467 3.141592653589793116 $376 $469 forward 7 unknown #
vertex $-1 $466 $470 #
straight-curve $-1 12.82699999999999996 29.97199999999999775 -63.5 0 -25.39999999999999858 0 I I #
coedge $-1 $299 $299 $471 $472 forward $231 $-1 #
coedge $-1 $473 $474 $299 $384 reversed $475 $-1 #
edge $-1 $476 0 $477 3.141592653589793116 $299 $478 forward 7 unknown #
coedge $-1 $479 $480 $300 $386 reversed $463 $-1 #
edge $-1 $390 0 $389 3.141592653589793116 $300 $481 forward 7 unknown #
coedge $-1 $482 $301 $480 $483 forward $374 $-1 #
coedge $-1 $301 $482 $479 $484 reversed $374 $-1 #
vertex $-1 $386 $485 #
vertex $-1 $386 $486 #
ellipse-curve $-1 16.00199999999999889 29.97199999999999775 63.5 0 -1 0 -3.175000000000002487 0 0 1 I I #
ellipse-curve $-1 16.00199999999999889 29.97199999999999775 -63.5 0 -1 0 3.174999999999997158 0 0 1 I I #
point $-1 12.8269999999999964 29.97199999999999775 -63.5 #
point $-1 19.17699999999999605 29.97199999999999775 -63.5 #
coedge $-1 $487 $309 $488 $489 forward $311 $-1 #
coedge $-1 $310 $490 $491 $492 forward $311 $-1 #
face $-1 $315 $311 $2 $-1 $493 reversed single #
coedge $-1 $327 $488 $313 $399 forward $420 $-1 #
edge $-1 $400 0 $329 2.5 $398 $494 forward 7 unknown #
vertex $-1 $489 $495 #
straight-curve $-1 31.75 0 -57.14999999999999858 0 -25.39999999999999858 0 I I #
face $-1 $496 $420 $2 $-1 $497 reversed single #
plane-surface $-1 -31.75 -13.46199999999999974 -57.14999999999999858 0 0 -1 0 25.39999999999999858 0 forward_v I I I I #
coedge $-1 $491 $322 $317 $405 reversed $413 $-1 #
edge $-1 $406 0 $324 2.5 $317 $498 forward 7 unknown #
vertex $-1 $318 $499 #
straight-curve $-1 31.75 -13.46199999999999974 -69.84999999999999432 0 25.39999999999999858 0 I I #
plane-surface $-1 -31.75 0 -69.84999999999999432 0 0 1 0 -25.39999999999999858 0 forward_v I I I I #
coedge $-1 $326 $321 $500 $501 forward $195 $-1 #
coedge $-1 $502 $503 $321 $411 reversed $504 $-1 #
edge $-1 $414 0 $505 0.459999999999999909 $321 $506 forward 7 unknown #
coedge $-1 $322 $491 $502 $507 forward $413 $-1 #
loop $-1 $-1 $404 $331 #
vertex $-1 $411 $508 #
straight-curve $-1 -31.75 -13.46199999999999974 -69.84999999999999432 0 0 -25.39999999999999858 I I #
point $-1 -31.75 -13.46199999999999974 -69.84999999999999432 #
coedge $-1 $509 $510 $326 $418 reversed $511 $-1 #
edge $-1 $512 0 $421 0.459999999999999909 $326 $513 forward 7 unknown #
coedge $-1 $488 $327 $510 $514 reversed $420 $-1 #
loop $-1 $-1 $419 $402 #
vertex $-1 $328 $515 #
straight-curve $-1 -31.75 -13.46199999999999974 -44.95799999999999841 0 0 -25.39999999999999858 I I #
point $-1 -31.75 -13.46199999999999974 -57.14999999999999858 #
plane-surface $-1 -31.75 -13.46199999999999974 -69.84999999999999432 0 -1 0 0 0 -25.39999999999999858 forward_v I I I I #
coedge $-1 $516 $333 $517 $518 forward $259 $-1 #
coedge $-1 $336 $356 $333 $427 reversed $357 $-1 #
edge $-1 $338 0 $519 0.4800000000000000377 $333 $520 forward 7 unknown #
coedge $-1 $334 $516 $521 $522 forward $259 $-1 #
coedge $-1 $349 $341 $334 $430 reversed $350 $-1 #
edge $-1 $523 0 $343 0.4800000000000003153 $334 $524 forward 7 unknown #
plane-surface $-1 -31.75 0 0 1 0 0 0 0 -25.39999999999999858 forward_v I I I I #
straight-curve $-1 31.75 -13.46199999999999974 57.14999999999999858 -25.39999999999999858 0 0 I I #
point $-1 -31.75 -13.46199999999999974 57.14999999999999858 #
straight-curve $-1 31.75 -13.46199999999999974 69.84999999999999432 -25.39999999999999858 0 0 I I #
point $-1 -31.75 -13.46199999999999974 69.84999999999999432 #
coedge $-1 $525 $526 $346 $437 reversed $527 $-1 #
edge $-1 $441 0 $448 1.460000000000000187 $346 $528 forward 7 unknown #
coedge $-1 $521 $347 $349 $443 forward $440 $-1 #
coedge $-1 $347 $521 $525 $529 reversed $440 $-1 #
loop $-1 $-1 $439 $361 #
vertex $-1 $437 $530 #
straight-curve $-1 31.75 -13.46199999999999974 82.04200000000000159 0 -25.39999999999999858 0 I I #
edge $-1 $351 0 $523 2.5 $349 $531 forward 7 unknown #
point $-1 31.75 -13.46199999999999974 82.04200000000000159 #
coedge $-1 $517 $354 $526 $532 forward $447 $-1 #
coedge $-1 $354 $517 $356 $450 reversed $447 $-1 #
loop $-1 $-1 $446 $533 #
vertex $-1 $355 $534 #
straight-curve $-1 31.75 -25.14599999999999724 44.95799999999999841 0 25.39999999999999858 0 I I #
edge $-1 $358 0 $519 2.5 $446 $535 forward 7 unknown #
face $-1 $263 $357 $2 $-1 $536 forward single #
point $-1 31.75 -13.46199999999999974 44.95799999999999841 #
face $-1 $533 $527 $2 $-1 $537 forward single #
plane-surface $-1 -31.75 -13.46199999999999974 82.04200000000000159 0 0 1 0 -25.39999999999999858 0 forward_v I I I I #
coedge $-1 $538 $538 $366 $457 reversed $363 $-1 #
coedge $-1 $367 $365 $538 $539 forward $283 $-1 #
edge $-1 $458 0 $460 3.141592653589793116 $455 $540 forward 7 unknown #
vertex $-1 $539 $541 #
straight-curve $-1 -18.92299999999999827 29.97199999999999775 63.5 0 -25.39999999999999858 0 I I #
vertex $-1 $539 $542 #
straight-curve $-1 -12.57299999999999862 29.97199999999999775 63.5 0 -25.39999999999999858 0 I I #
face $-1 $543 $544 $2 $-1 $545 reversed single #
loop $-1 $-1 $479 $373 #
cone-surface $-1 16.00199999999999889 29.97199999999999775 63.5 0 -1 0 3.174999999999999822 0 0 1 I I 0 1 3.174999999999999822 forward I I I I #
coedge $-1 $376 $376 $377 $466 reversed $293 $-1 #
edge $-1 $467 0 $380 3.141592653589793116 $465 $546 forward 7 unknown #
vertex $-1 $466 $547 #
straight-curve $-1 19.1769999999999996 29.97199999999999775 -63.5 0 -25.39999999999999858 0 I I #
ellipse-curve $-1 16.00199999999999889 4.571999999999998288 -63.5 0 -1 0 -3.174999999999999822 0 0 1 I I #
point $-1 12.82699999999999996 4.571999999999998288 -63.5 #
coedge $-1 $548 $549 $382 $472 reversed $550 $-1 #
edge $-1 $477 0 $476 3.141592653589793116 $382 $551 forward 7 unknown #
coedge $-1 $552 $383 $549 $553 forward $475 $-1 #
coedge $-1 $383 $552 $548 $554 reversed $475 $-1 #
loop $-1 $-1 $473 $543 #
vertex $-1 $472 $555 #
vertex $-1 $472 $556 #
ellipse-curve $-1 -15.74799999999999933 29.97199999999999775 -63.5 0 -1 0 -3.175000000000002487 0 0 1 I I #
coedge $-1 $557 $385 $388 $484 forward $463 $-1 #
coedge $-1 $385 $557 $387 $483 reversed $463 $-1 #
ellipse-curve $-1 16.00199999999999889 29.97199999999999775 63.5 0 -1 0 3.174999999999997158 0 0 1 I I #
coedge $-1 $388 $387 $558 $559 forward $374 $-1 #
edge $-1 $389 0 $560 1 $480 $561 forward 7 unknown #
edge $-1 $390 0 $562 1 $479 $563 forward 7 unknown #
point $-1 12.8269999999999964 29.97199999999999775 63.5 #
point $-1 19.17699999999999605 29.97199999999999775 63.5 #
coedge $-1 $564 $395 $565 $566 forward $311 $-1 #
coedge $-1 $398 $419 $395 $489 reversed $420 $-1 #
edge $-1 $400 0 $567 0.4800000000000000377 $395 $568 forward 7 unknown #
coedge $-1 $396 $564 $569 $570 forward $311 $-1 #
coedge $-1 $412 $404 $396 $492 reversed $413 $-1 #
edge $-1 $571 0 $406 0.4800000000000003153 $396 $572 forward 7 unknown #
plane-surface $-1 31.75 0 0 -1 0 0 0 0 25.39999999999999858 forward_v I I I I #
straight-curve $-1 31.75 -13.46199999999999974 -57.14999999999999858 -25.39999999999999858 0 0 I I #
point $-1 31.75 -13.46199999999999974 -57.14999999999999858 #
face $-1 $573 $511 $2 $-1 $574 reversed single #
plane-surface $-1 -31.75 -13.46199999999999974 -44.95799999999999841 0 -1 0 0 0 -25.39999999999999858 forward_v I I I I #
straight-curve $-1 31.75 -13.46199999999999974 -69.84999999999999432 -25.39999999999999858 0 0 I I #
point $-1 31.75 -13.46199999999999974 -69.84999999999999432 #
coedge $-1 $575 $576 $409 $501 reversed $577 $-1 #
edge $-1 $505 0 $512 1.460000000000000187 $409 $578 forward 7 unknown #
coedge $-1 $569 $410 $412 $507 reversed $504 $-1 #
coedge $-1 $410 $569 $575 $579 forward $504 $-1 #
loop $-1 $-1 $502 $580 #
vertex $-1 $501 $581 #
straight-curve $-1 -31.75 -13.46199999999999974 -82.04200000000000159 0 -25.39999999999999858 0 I I #
edge $-1 $571 0 $414 2.5 $412 $582 forward 7 unknown #
point $-1 -31.75 -13.46199999999999974 -82.04200000000000159 #
coedge $-1 $565 $417 $576 $583 reversed $511 $-1 #
coedge $-1 $417 $565 $419 $514 forward $511 $-1 #
loop $-1 $-1 $509 $496 #
vertex $-1 $418 $584 #
straight-curve $-1 -31.75 -25.14599999999999724 -44.95799999999999841 0 25.39999999999999858 0 I I #
edge $-1 $567 0 $421 2.5 $510 $585 forward 7 unknown #
point $-1 -31.75 -13.46199999999999974 -44.95799999999999841 #
coedge $-1 $428 $425 $586 $587 forward $259 $-1 #
coedge $-1 $446 $445 $425 $518 reversed $447 $-1 #
edge $-1 $519 0 $588 0.459999999999999909 $425 $589 forward 7 unknown #
vertex $-1 $518 $590 #
straight-curve $-1 -31.75 -13.46199999999999974 57.14999999999999858 0 0 -25.39999999999999858 I I #
coedge $-1 $439 $438 $428 $522 reversed $440 $-1 #
edge $-1 $591 0 $523 0.459999999999999909 $428 $592 forward 7 unknown #
vertex $-1 $430 $593 #
straight-curve $-1 -31.75 -13.46199999999999974 82.04200000000000159 0 0 -25.39999999999999858 I I #
coedge $-1 $586 $436 $439 $529 forward $527 $-1 #
coedge $-1 $436 $586 $445 $532 reversed $527 $-1 #
loop $-1 $-1 $526 $453 #
straight-curve $-1 31.75 -25.14599999999999724 82.04200000000000159 0 0 -25.39999999999999858 I I #
edge $-1 $441 0 $591 2.5 $439 $594 forward 7 unknown #
point $-1 31.75 -25.14599999999999724 82.04200000000000159 #
straight-curve $-1 31.75 -13.46199999999999974 82.04200000000000159 -25.39999999999999858 0 0 I I #
edge $-1 $448 0 $588 2.5 $526 $595 forward 7 unknown #
face $-1 $451 $447 $2 $-1 $596 forward single #
point $-1 31.75 -25.14599999999999724 44.95799999999999841 #
straight-curve $-1 31.75 -13.46199999999999974 44.95799999999999841 -25.39999999999999858 0 0 I I #
plane-surface $-1 -31.75 -13.46199999999999974 44.95799999999999841 0 1 0 0 0 25.39999999999999858 forward_v I I I I #
plane-surface $-1 -31.75 -25.14599999999999724 82.04200000000000159 0 -1 0 0 0 -25.39999999999999858 forward_v I I I I #
coedge $-1 $455 $455 $456 $539 reversed $363 $-1 #
edge $-1 $460 0 $458 3.141592653589793116 $538 $597 forward 7 unknown #
ellipse-curve $-1 -15.74799999999999933 4.571999999999998288 63.5 0 -1 0 -3.174999999999999822 0 0 1 I I #
point $-1 -18.92299999999999827 4.571999999999998288 63.5 #
point $-1 -12.57299999999999862 4.571999999999998288 63.5 #
face $-1 $598 $475 $2 $-1 $599 reversed single #
loop $-1 $-1 $558 $462 #
plane-surface $-1 16.00199999999999889 4.571999999999998288 63.5 0 -1 0 25.39999999999999858 0 0 forward_v I I I I #
ellipse-curve $-1 16.00199999999999889 4.571999999999998288 -63.5 0 -1 0 3.174999999999999822 0 0 1 I I #
point $-1 19.1769999999999996 4.571999999999998288 -63.5 #
coedge $-1 $600 $471 $474 $554 forward $550 $-1 #
coedge $-1 $471 $600 $473 $553 reversed $550 $-1 #
loop $-1 $-1 $548 $598 #
ellipse-curve $-1 -15.74799999999999933 29.97199999999999775 -63.5 0 -1 0 3.174999999999997158 0 0 1 I I #
coedge $-1 $474 $473 $601 $602 forward $475 $-1 #
edge $-1 $476 0 $603 1 $549 $604 forward 7 unknown #
edge $-1 $477 0 $605 1 $548 $606 forward 7 unknown #
point $-1 -18.92300000000000182 29.97199999999999775 -63.5 #
point $-1 -12.57300000000000217 29.97199999999999775 -63.5 #
coedge $-1 $480 $479 $607 $608 forward $463 $-1 #
coedge $-1 $607 $607 $482 $559 reversed $544 $-1 #
edge $-1 $560 0 $562 3.141592653589793116 $558 $609 forward 7 unknown #
vertex $-1 $608 $610 #
straight-curve $-1 12.82699999999999996 29.97199999999999775 63.5 0 -25.39999999999999858 0 I I #
vertex $-1 $608 $611 #
straight-curve $-1 19.1769999999999996 29.97199999999999775 63.5 0 -25.39999999999999858 0 I I #
coedge $-1 $490 $487 $612 $613 forward $311 $-1 #
coedge $-1 $510 $509 $487 $566 reversed $511 $-1 #
edge $-1 $567 0 $614 0.459999999999999909 $487 $615 forward 7 unknown #
vertex $-1 $566 $616 #
straight-curve $-1 31.75 -13.46199999999999974 -57.14999999999999858 0 0 25.39999999999999858 I I #
coedge $-1 $503 $502 $490 $570 reversed $504 $-1 #
edge $-1 $617 0 $571 0.459999999999999909 $490 $618 forward 7 unknown #
vertex $-1 $492 $619 #
straight-curve $-1 31.75 -13.46199999999999974 -82.04200000000000159 0 0 25.39999999999999858 I I #
face $-1 $580 $577 $2 $-1 $620 reversed single #
plane-surface $-1 -31.75 -25.14599999999999724 -44.95799999999999841 0 0 -1 0 25.39999999999999858 0 forward_v I I I I #
coedge $-1 $612 $500 $503 $579 reversed $577 $-1 #
coedge $-1 $500 $612 $509 $583 forward $577 $-1 #
loop $-1 $-1 $575 $573 #
straight-curve $-1 -31.75 -25.14599999999999724 -82.04200000000000159 0 0 25.39999999999999858 I I #
edge $-1 $617 0 $505 2.5 $503 $621 forward 7 unknown #
face $-1 $-1 $504 $2 $-1 $622 reversed single #
point $-1 -31.75 -25.14599999999999724 -82.04200000000000159 #
straight-curve $-1 31.75 -13.46199999999999974 -82.04200000000000159 -25.39999999999999858 0 0 I I #
edge $-1 $614 0 $512 2.5 $576 $623 forward 7 unknown #
point $-1 -31.75 -25.14599999999999724 -44.95799999999999841 #
straight-curve $-1 31.75 -13.46199999999999974 -44.95799999999999841 -25.39999999999999858 0 0 I I #
coedge $-1 $526 $525 $516 $587 reversed $527 $-1 #
edge $-1 $588 0 $591 1.460000000000000187 $516 $624 forward 7 unknown #
vertex $-1 $587 $625 #
straight-curve $-1 -31.75 -13.46199999999999974 44.95799999999999841 0 -25.39999999999999858 0 I I #
point $-1 -31.75 -13.46199999999999974 44.95799999999999841 #
vertex $-1 $522 $626 #
straight-curve $-1 -31.75 -25.14599999999999724 82.04200000000000159 0 25.39999999999999858 0 I I #
point $-1 -31.75 -13.46199999999999974 82.04200000000000159 #
straight-curve $-1 31.75 -25.14599999999999724 82.04200000000000159 -25.39999999999999858 0 0 I I #
straight-curve $-1 31.75 -25.14599999999999724 44.95799999999999841 -25.39999999999999858 0 0 I I #
plane-surface $-1 -31.75 -25.14599999999999724 44.95799999999999841 0 0 -1 0 25.39999999999999858 0 forward_v I I I I #
ellipse-curve $-1 -15.74799999999999933 4.571999999999998288 63.5 0 -1 0 3.174999999999999822 0 0 1 I I #
face $-1 $627 $550 $2 $-1 $628 reversed single #
cone-surface $-1 -15.74799999999999933 29.97199999999999775 -63.5 0 -1 0 3.174999999999999822 0 0 1 I I 0 1 3.174999999999999822 forward I I I I #
coedge $-1 $549 $548 $629 $630 forward $550 $-1 #
coedge $-1 $629 $629 $552 $602 reversed $631 $-1 #
edge $-1 $603 0 $605 3.141592653589793116 $601 $632 forward 7 unknown #
vertex $-1 $630 $633 #
straight-curve $-1 -18.92299999999999827 29.97199999999999775 -63.5 0 -25.39999999999999858 0 I I #
vertex $-1 $630 $634 #
straight-curve $-1 -12.57299999999999862 29.97199999999999775 -63.5 0 -25.39999999999999858 0 I I #
coedge $-1 $558 $558 $557 $608 reversed $544 $-1 #
edge $-1 $562 0 $560 3.141592653589793116 $607 $635 forward 7 unknown #
ellipse-curve $-1 16.00199999999999889 4.571999999999998288 63.5 0 -1 0 -3.174999999999999822 0 0 1 I I #
point $-1 12.82699999999999996 4.571999999999998288 63.5 #
point $-1 19.1769999999999996 4.571999999999998288 63.5 #
coedge $-1 $576 $575 $564 $613 reversed $577 $-1 #
edge $-1 $614 0 $617 1.460000000000000187 $564 $636 forward 7 unknown #
vertex $-1 $613 $637 #
straight-curve $-1 31.75 -13.46199999999999974 -44.95799999999999841 0 -25.39999999999999858 0 I I #
point $-1 31.75 -13.46199999999999974 -44.95799999999999841 #
vertex $-1 $570 $638 #
straight-curve $-1 31.75 -25.14599999999999724 -82.04200000000000159 0 25.39999999999999858 0 I I #
point $-1 31.75 -13.46199999999999974 -82.04200000000000159 #
plane-surface $-1 -31.75 -25.14599999999999724 -82.04200000000000159 0 1 0 0 0 25.39999999999999858 forward_v I I I I #
straight-curve $-1 31.75 -25.14599999999999724 -82.04200000000000159 -25.39999999999999858 0 0 I I #
plane-surface $-1 -31.75 -13.46199999999999974 -82.04200000000000159 0 0 1 0 -25.39999999999999858 0 forward_v I I I I #
straight-curve $-1 31.75 -25.14599999999999724 -44.95799999999999841 -25.39999999999999858 0 0 I I #
straight-curve $-1 -31.75 -25.14599999999999724 44.95799999999999841 0 0 25.39999999999999858 I I #
point $-1 -31.75 -25.14599999999999724 44.95799999999999841 #
point $-1 -31.75 -25.14599999999999724 82.04200000000000159 #
face $-1 $92 $631 $2 $-1 $639 reversed single #
cone-surface $-1 -15.74799999999999933 29.97199999999999775 -63.5 0 -1 0 3.174999999999999822 0 0 1 I I 0 1 3.174999999999999822 forward I I I I #
coedge $-1 $601 $601 $600 $630 reversed $631 $-1 #
edge $-1 $605 0 $603 3.141592653589793116 $629 $640 forward 7 unknown #
loop $-1 $-1 $601 $627 #
ellipse-curve $-1 -15.74799999999999933 4.571999999999998288 -63.5 0 -1 0 -3.174999999999999822 0 0 1 I I #
point $-1 -18.92299999999999827 4.571999999999998288 -63.5 #
point $-1 -12.57299999999999862 4.571999999999998288 -63.5 #
ellipse-curve $-1 16.00199999999999889 4.571999999999998288 63.5 0 -1 0 3.174999999999999822 0 0 1 I I #
straight-curve $-1 31.75 -25.14599999999999724 -44.95799999999999841 0 0 -25.39999999999999858 I I #
point $-1 31.75 -25.14599999999999724 -44.95799999999999841 #
point $-1 31.75 -25.14599999999999724 -82.04200000000000159 #
plane-surface $-1 -15.74799999999999933 4.571999999999998288 -63.5 0 -1 0 25.39999999999999858 0 0 forward_v I I I I #
ellipse-curve $-1 -15.74799999999999933 4.571999999999998288 -63.5 0 -1 0 3.174999999999999822 0 0 1 I I #
End-of-ACIS-data 