  0
SECTION
  2
HEADER
  9
$ACADVER
  1
AC1009
  9
$INSBASE
 10
0.0
 20
0.0
 30
0.0
  9
$EXTMIN
 10
0.0
 20
0.0
 30
0.0
  9
$EXTMAX
 10
20.0
 20
20.0
 30
4.0
  9
$LIMMIN
 10
0.0
 20
0.0
  9
$LIMMAX
 10
12.0
 20
9.0
  9
$ORTHOMODE
 70
     0
  9
$REGENMODE
 70
     1
  9
$FILLMODE
 70
     1
  9
$QTEXTMODE
 70
     0
  9
$MIRRTEXT
 70
     1
  9
$DRAGMODE
 70
     2
  9
$LTSCALE
 40
1.0
  9
$OSMODE
 70
     0
  9
$ATTMODE
 70
     1
  9
$TEXTSIZE
 40
0.2
  9
$TRACEWID
 40
0.05
  9
$TEXTSTYLE
  7
STANDARD
  9
$CLAYER
  8
0
  9
$CELTYPE
  6
BYLAYER
  9
$CECOLOR
 62
   256
  9
$DIMSCALE
 40
1.0
  9
$DIMASZ
 40
0.18
  9
$DIMEXO
 40
0.0625
  9
$DIMDLI
 40
0.38
  9
$DIMRND
 40
0.0
  9
$DIMDLE
 40
0.0
  9
$DIMEXE
 40
0.18
  9
$DIMTP
 40
0.0
  9
$DIMTM
 40
0.0
  9
$DIMTXT
 40
0.18
  9
$DIMCEN
 40
0.09
  9
$DIMTSZ
 40
0.0
  9
$DIMTOL
 70
     0
  9
$DIMLIM
 70
     0
  9
$DIMTIH
 70
     1
  9
$DIMTOH
 70
     1
  9
$DIMSE1
 70
     0
  9
$DIMSE2
 70
     0
  9
$DIMTAD
 70
     0
  9
$DIMZIN
 70
     0
  9
$DIMBLK
  1

  9
$DIMASO
 70
     1
  9
$DIMSHO
 70
     1
  9
$DIMPOST
  1

  9
$DIMAPOST
  1

  9
$DIMALT
 70
     0
  9
$DIMALTD
 70
     2
  9
$DIMALTF
 40
25.4
  9
$DIMLFAC
 40
1.0
  9
$DIMTOFL
 70
     0
  9
$DIMTVP
 40
0.0
  9
$DIMTIX
 70
     0
  9
$DIMSOXD
 70
     0
  9
$DIMSAH
 70
     0
  9
$DIMBLK1
  1

  9
$DIMBLK2
  1

  9
$DIMSTYLE
  2
*UNNAMED
  9
$DIMCLRD
 70
     0
  9
$DIMCLRE
 70
     0
  9
$DIMCLRT
 70
     0
  9
$DIMTFAC
 40
1.0
  9
$DIMGAP
 40
0.09
  9
$LUNITS
 70
     2
  9
$LUPREC
 70
     4
  9
$SKETCHINC
 40
0.1
  9
$FILLETRAD
 40
0.0
  9
$AUNITS
 70
     0
  9
$AUPREC
 70
     0
  9
$MENU
  1
acad
  9
$ELEVATION
 40
0.0
  9
$PELEVATION
 40
0.0
  9
$THICKNESS
 40
0.0
  9
$LIMCHECK
 70
     0
  9
$BLIPMODE
 70
     1
  9
$CHAMFERA
 40
0.0
  9
$CHAMFERB
 40
0.0
  9
$SKPOLY
 70
     0
  9
$TDCREATE
 40
2449400.631388553
  9
$TDUPDATE
 40
2449400.631388553
  9
$TDINDWG
 40
0.0000000000
  9
$TDUSRTIMER
 40
0.0000000000
  9
$USRTIMER
 70
     1
  9
$ANGBASE
 50
0.0
  9
$ANGDIR
 70
     0
  9
$PDMODE
 70
     0
  9
$PDSIZE
 40
0.0
  9
$PLINEWID
 40
0.0
  9
$COORDS
 70
     1
  9
$SPLFRAME
 70
     0
  9
$SPLINETYPE
 70
     6
  9
$SPLINESEGS
 70
     8
  9
$ATTDIA
 70
     0
  9
$ATTREQ
 70
     1
  9
$HANDLING
 70
     1
  9
$HANDSEED
  5
85
  9
$SURFTAB1
 70
     6
  9
$SURFTAB2
 70
     6
  9
$SURFTYPE
 70
     6
  9
$SURFU
 70
     6
  9
$SURFV
 70
     6
  9
$UCSNAME
  2

  9
$UCSORG
 10
0.0
 20
0.0
 30
0.0
  9
$UCSXDIR
 10
1.0
 20
0.0
 30
0.0
  9
$UCSYDIR
 10
0.0
 20
1.0
 30
0.0
  9
$PUCSNAME
  2

  9
$PUCSORG
 10
0.0
 20
0.0
 30
0.0
  9
$PUCSXDIR
 10
1.0
 20
0.0
 30
0.0
  9
$PUCSYDIR
 10
0.0
 20
1.0
 30
0.0
  9
$USERI1
 70
     0
  9
$USERI2
 70
     0
  9
$USERI3
 70
     0
  9
$USERI4
 70
     0
  9
$USERI5
 70
     0
  9
$USERR1
 40
0.0
  9
$USERR2
 40
0.0
  9
$USERR3
 40
0.0
  9
$USERR4
 40
0.0
  9
$USERR5
 40
0.0
  9
$WORLDVIEW
 70
     1
  9
$SHADEDGE
 70
     3
  9
$SHADEDIF
 70
    70
  9
$TILEMODE
 70
     1
  9
$MAXACTVP
 70
    16
  9
$PINSBASE
 10
0.0
 20
0.0
 30
0.0
  9
$PLIMCHECK
 70
     0
  9
$PEXTMIN
 10
1.000000E+20
 20
1.000000E+20
 30
1.000000E+20
  9
$PEXTMAX
 10
-1.000000E+20
 20
-1.000000E+20
 30
-1.000000E+20
  9
$PLIMMIN
 10
0.0
 20
0.0
  9
$PLIMMAX
 10
12.0
 20
9.0
  9
$UNITMODE
 70
     0
  9
$VISRETAIN
 70
     0
  9
$PLINEGEN
 70
     0
  9
$PSLTSCALE
 70
     1
  9
$TREEDEPTH
 70
  3020
  9
$DWGCODEPAGE
  3
ascii
  0
ENDSEC
  0
SECTION
  2
TABLES
  0
TABLE
  2
VPORT
 70
     2
  0
VPORT
  2
*ACTIVE
 70
     0
 10
0.0
 20
0.0
 11
1.0
 21
1.0
 12
15.948827
 22
10.0
 13
0.0
 23
0.0
 14
1.0
 24
1.0
 15
0.0
 25
0.0
 16
0.0
 26
0.0
 36
1.0
 17
0.0
 27
0.0
 37
0.0
 40
20.0
 41
1.594883
 42
50.0
 43
0.0
 44
0.0
 50
0.0
 51
0.0
 71
     0
 72
   100
 73
     1
 74
     1
 75
     0
 76
     0
 77
     0
 78
     0
  0
ENDTAB
  0
TABLE
  2
LTYPE
 70
     1
  0
LTYPE
  2
CONTINUOUS
 70
    64
  3
Solid line
 72
    65
 73
     0
 40
0.0
  0
ENDTAB
  0
TABLE
  2
LAYER
 70
     2
  0
LAYER
  2
0
 70
    64
 62
     7
  6
CONTINUOUS
  0
LAYER
  2
AME_FRZ
 70
    65
 62
     7
  6
CONTINUOUS
  0
ENDTAB
  0
TABLE
  2
STYLE
 70
     1
  0
STYLE
  2
STANDARD
 70
     0
 40
0.0
 41
1.0
 50
0.0
 71
     0
 42
0.2
  3
txt
  4

  0
ENDTAB
  0
TABLE
  2
VIEW
 70
     0
  0
ENDTAB
  0
TABLE
  2
UCS
 70
     0
  0
ENDTAB
  0
TABLE
  2
APPID
 70
     3
  0
APPID
  2
ACAD
 70
    64
  0
APPID
  2
AME_SOL
 70
    64
  0
APPID
  2
AVE_INVOKE
 70
    64
  0
ENDTAB
  0
TABLE
  2
DIMSTYLE
 70
     0
  0
ENDTAB
  0
ENDSEC
  0
SECTION
  2
BLOCKS
  0
BLOCK
  8
0
  5
1
  2
AME_NIL
 70
    64
 10
0.0
 20
0.0
 30
0.0
  1
AME_NIL
  3
AME_NIL
  0
ENDBLK
  8
0
  5
2
  0
BLOCK
  8
0
  5
4
  2
AME_SOL
 70
    64
 10
0.0
 20
0.0
 30
0.0
  1
AME_SOL
  3
AME_SOL
  0
ENDBLK
  8
0
  5
5
  0
BLOCK
  8
0
  5
59
  2
*U8
 70
    65
 10
0.0
 20
0.0
 30
0.0
  1
*U
  3
*U
  0
LINE
  8
0
 62
     7
  5
5A
 10
20.0
 20
20.0
 30
0.0
 11
20.0
 21
20.0
 31
4.0
1001
AME_SOL
1070
     1
1071
       34
  0
LINE
  8
0
 62
     7
  5
5B
 10
20.0
 20
20.0
 30
4.0
 11
20.0
 21
0.0
 31
4.0
1001
AME_SOL
1070
     1
1071
       33
  0
LINE
  8
0
 62
     7
  5
5C
 10
0.0
 20
20.0
 30
4.0
 11
20.0
 21
20.0
 31
4.0
1001
AME_SOL
1070
     1
1071
       32
  0
LINE
  8
0
 62
     7
  5
5D
 10
0.0
 20
20.0
 30
0.0
 11
0.0
 21
20.0
 31
4.0
1001
AME_SOL
1070
     1
1071
       31
  0
LINE
  8
0
 62
     7
  5
5E
 10
0.0
 20
20.0
 30
4.0
 11
0.0
 21
0.0
 31
4.0
1001
AME_SOL
1070
     1
1071
       30
  0
LINE
  8
0
 62
     7
  5
5F
 10
0.0
 20
0.0
 30
0.0
 11
0.0
 21
0.0
 31
4.0
1001
AME_SOL
1070
     1
1071
       29
  0
LINE
  8
0
 62
     7
  5
60
 10
20.0
 20
0.0
 30
4.0
 11
20.0
 21
0.0
 31
0.0
1001
AME_SOL
1070
     1
1071
       28
  0
LINE
  8
0
 62
     7
  5
61
 10
0.0
 20
0.0
 30
4.0
 11
20.0
 21
0.0
 31
4.0
1001
AME_SOL
1070
     1
1071
       27
  0
LINE
  8
0
 62
     7
  5
62
 10
0.0
 20
0.0
 30
0.0
 11
20.0
 21
0.0
 31
0.0
1001
AME_SOL
1070
     1
1071
       26
  0
LINE
  8
0
 62
     7
  5
63
 10
0.0
 20
20.0
 30
0.0
 11
0.0
 21
0.0
 31
0.0
1001
AME_SOL
1070
     1
1071
       25
  0
LINE
  8
0
 62
     7
  5
64
 10
20.0
 20
0.0
 30
0.0
 11
20.0
 21
20.0
 31
0.0
1001
AME_SOL
1070
     1
1071
       24
  0
LINE
  8
0
 62
     7
  5
65
 10
20.0
 20
20.0
 30
0.0
 11
0.0
 21
20.0
 31
0.0
1001
AME_SOL
1070
     1
1071
       23
  0
ARC
  8
0
 62
     7
  5
66
 10
10.0
 20
15.0
 30
0.0
 40
4.0
 50
342.885567
 51
197.114433
1001
AME_SOL
1070
     1
1071
       22
  0
ARC
  8
0
 62
     7
  5
67
 10
10.0
 20
15.0
 30
4.0
 40
4.0
 50
342.885567
 51
197.114433
1001
AME_SOL
1070
     1
1071
       21
  0
ARC
  8
0
 62
     7
  5
68
 10
15.0
 20
10.0
 30
0.0
 40
4.0
 50
252.885567
 51
107.114433
1001
AME_SOL
1070
     1
1071
       20
  0
ARC
  8
0
 62
     7
  5
69
 10
15.0
 20
10.0
 30
4.0
 40
4.0
 50
252.885567
 51
107.114433
1001
AME_SOL
1070
     1
1071
       19
  0
LINE
  8
0
 62
     7
  5
6A
 10
13.822876
 20
13.822876
 30
0.0
 11
13.822876
 21
13.822876
 31
4.0
1001
AME_SOL
1070
     1
1071
       18
  0
ARC
  8
0
 62
     7
  5
6B
 10
10.0
 20
5.0
 30
0.0
 40
4.0
 50
162.885567
 51
17.114433
1001
AME_SOL
1070
     1
1071
       17
  0
ARC
  8
0
 62
     7
  5
6C
 10
10.0
 20
5.0
 30
4.0
 40
4.0
 50
162.885567
 51
17.114433
1001
AME_SOL
1070
     1
1071
       16
  0
LINE
  8
0
 62
     7
  5
6D
 10
13.822876
 20
6.177124
 30
0.0
 11
13.822876
 21
6.177124
 31
4.0
1001
AME_SOL
1070
     1
1071
       15
  0
ARC
  8
0
 62
     7
  5
6E
 10
5.0
 20
10.0
 30
0.0
 40
4.0
 50
72.885567
 51
287.114433
1001
AME_SOL
1070
     1
1071
       14
  0
LINE
  8
0
 62
     7
  5
6F
 10
6.177124
 20
6.177124
 30
0.0
 11
6.177124
 21
6.177124
 31
4.0
1001
AME_SOL
1070
     1
1071
       13
  0
ARC
  8
0
 62
     7
  5
70
 10
5.0
 20
10.0
 30
4.0
 40
4.0
 50
72.885567
 51
287.114433
1001
AME_SOL
1070
     1
1071
       12
  0
LINE
  8
0
 62
     7
  5
71
 10
6.177124
 20
13.822876
 30
0.0
 11
6.177124
 21
13.822876
 31
4.0
1001
AME_SOL
1070
     1
1071
       11
  0
LINE
  8
0
 62
     7
  5
72
 10
6.0
 20
15.0
 30
0.0
 11
6.0
 21
15.0
 31
4.0
1001
AME_SOL
1070
     0
1071
        4
  0
LINE
  8
0
 62
     7
  5
73
 10
14.0
 20
15.0
 30
0.0
 11
14.0
 21
15.0
 31
4.0
1001
AME_SOL
1070
     0
1071
        4
  0
LINE
  8
0
 62
     7
  5
74
 10
10.0
 20
19.0
 30
0.0
 11
10.0
 21
19.0
 31
4.0
1001
AME_SOL
1070
     0
1071
        4
  0
LINE
  8
0
 62
     7
  5
75
 10
15.0
 20
6.0
 30
0.0
 11
15.0
 21
6.0
 31
4.0
1001
AME_SOL
1070
     0
1071
        3
  0
LINE
  8
0
 62
     7
  5
76
 10
19.0
 20
10.0
 30
0.0
 11
19.0
 21
10.0
 31
4.0
1001
AME_SOL
1070
     0
1071
        3
  0
LINE
  8
0
 62
     7
  5
77
 10
15.0
 20
14.0
 30
0.0
 11
15.0
 21
14.0
 31
4.0
1001
AME_SOL
1070
     0
1071
        3
  0
LINE
  8
0
 62
     7
  5
78
 10
6.0
 20
5.0
 30
0.0
 11
6.0
 21
5.0
 31
4.0
1001
AME_SOL
1070
     0
1071
        2
  0
LINE
  8
0
 62
     7
  5
79
 10
10.0
 20
1.0
 30
0.0
 11
10.0
 21
1.0
 31
4.0
1001
AME_SOL
1070
     0
1071
        2
  0
LINE
  8
0
 62
     7
  5
7A
 10
14.0
 20
5.0
 30
0.0
 11
14.0
 21
5.0
 31
4.0
1001
AME_SOL
1070
     0
1071
        2
  0
LINE
  8
0
 62
     7
  5
7B
 10
1.0
 20
10.0
 30
0.0
 11
1.0
 21
10.0
 31
4.0
1001
AME_SOL
1070
     0
1071
        1
  0
LINE
  8
0
 62
     7
  5
7C
 10
5.0
 20
6.0
 30
0.0
 11
5.0
 21
6.0
 31
4.0
1001
AME_SOL
1070
     0
1071
        1
  0
LINE
  8
0
 62
     7
  5
7D
 10
5.0
 20
14.0
 30
0.0
 11
5.0
 21
14.0
 31
4.0
1001
AME_SOL
1070
     0
1071
        1
  0
ENDBLK
  8
0
  5
7E
  0
BLOCK
  8
0
  5
82
  2
AME_JNK
 70
     0
 10
0.0
 20
0.0
 30
0.0
  1
AME_JNK
  3
AME_JNK
  0
ENDBLK
  8
0
  5
83
  0
ENDSEC
  0
SECTION
  2
ENTITIES
  0
INSERT
  8
AME_FRZ
  5
3
  2
AME_NIL
 10
0.0
 20
0.0
 30
0.0
  0
INSERT
  8
AME_FRZ
  5
6
  2
AME_SOL
 10
0.0
 20
0.0
 30
0.0
1001
AME_SOL
1000
R2.1
1000
AME2
1000
sq cm
1070
     3
1070
     0
1070
     3
1000
wire
1040
45.0
1000
U
1040
1.0
1000
cm
1000
gm
1000
MILD_STEEL
1070
    25
1000
CSG
1070
     1
1070
     3
1070
     3
1070
     3
1070
     0
1000
cu cm
1070
     1
1070
     0
1005
3
  0
INSERT
  8
AME_FRZ
  5
15
  2
AME_NIL
 10
0.0
 20
0.0
 30
0.0
1001
AME_SOL
1002
{
1070
     1
1071
  2388864
1070
  1536
1070
     1
1010
20.0
1020
20.0
1030
4.0
1005
0
1005
0
1005
7F
1040
0.0
1040
1.0
1070
     0
1000
MILD_STEEL
1000
0
1010
0.0
1020
0.0
1030
0.0
1010
0.0
1020
0.0
1030
1.0
1040
0.0
1002
}
1001
AVE_INVOKE
1000
SOLAVEMESH
  0
INSERT
  8
AME_FRZ
  5
21
  2
AME_NIL
 10
5.0
 20
10.0
 30
0.0
1001
AME_SOL
1002
{
1070
     1
1071
  2403536
1070
  1538
1070
     1
1010
4.0
1020
4.0
1030
4.0
1005
0
1005
0
1005
56
1040
0.0
1040
1.0
1070
     0
1000
MILD_STEEL
1000
0
1010
5.0
1020
10.0
1030
0.0
1010
0.0
1020
0.0
1030
1.0
1040
0.0
1002
}
1001
AVE_INVOKE
1000
SOLAVEMESH
  0
INSERT
  8
AME_FRZ
  5
2D
  2
AME_NIL
 10
10.0
 20
5.0
 30
0.0
1001
AME_SOL
1002
{
1070
     1
1071
  2387616
1070
  1538
1070
     1
1010
4.0
1020
4.0
1030
4.0
1005
0
1005
0
1005
56
1040
0.0
1040
1.0
1070
     0
1000
MILD_STEEL
1000
0
1010
10.0
1020
5.0
1030
0.0
1010
0.0
1020
0.0
1030
1.0
1040
0.0
1002
}
1001
AVE_INVOKE
1000
SOLAVEMESH
  0
INSERT
  8
AME_FRZ
  5
39
  2
AME_NIL
 10
15.0
 20
10.0
 30
0.0
1001
AME_SOL
1002
{
1070
     1
1071
  2423032
1070
  1538
1070
     1
1010
4.0
1020
4.0
1030
4.0
1005
0
1005
0
1005
54
1040
0.0
1040
1.0
1070
     0
1000
MILD_STEEL
1000
0
1010
15.0
1020
10.0
1030
0.0
1010
0.0
1020
0.0
1030
1.0
1040
0.0
1002
}
1001
AVE_INVOKE
1000
SOLAVEMESH
  0
INSERT
  8
AME_FRZ
  5
45
  2
AME_NIL
 10
10.0
 20
15.0
 30
0.0
1001
AME_SOL
1002
{
1070
     1
1071
  2407808
1070
  1538
1070
     1
1010
4.0
1020
4.0
1030
4.0
1005
0
1005
0
1005
54
1040
0.0
1040
1.0
1070
     0
1000
MILD_STEEL
1000
0
1010
10.0
1020
15.0
1030
0.0
1010
0.0
1020
0.0
1030
1.0
1040
0.0
1002
}
1001
AVE_INVOKE
1000
SOLAVEMESH
  0
INSERT
  8
AME_FRZ
  5
51
  2
AME_NIL
 10
10.0
 20
10.0
 30
0.0
1001
AME_SOL
1002
{
1070
     1
1071
  2438120
1070
  1538
1070
     1
1010
2.0
1020
2.0
1030
4.0
1005
0
1005
0
1005
55
1040
0.0
1040
1.0
1070
     0
1000
MILD_STEEL
1000
0
1010
10.0
1020
10.0
1030
0.0
1010
0.0
1020
0.0
1030
1.0
1040
0.0
1002
}
1001
AVE_INVOKE
1000
SOLAVEMESH
  0
INSERT
  8
AME_FRZ
  5
54
  2
AME_NIL
 10
0.0
 20
0.0
 30
0.0
1001
AME_SOL
1002
{
1070
     1
1071
  2452240
1070
   775
1070
     0
1070
     2
1005
45
1005
39
1005
0
1005
0
1005
55
1040
0.0
1040
1.0
1070
     0
1000
MILD_STEEL
1000
0
1010
0.0
1020
0.0
1030
0.0
1010
0.0
1020
0.0
1030
1.0
1040
0.0
1002
}
  0
INSERT
  8
AME_FRZ
  5
55
  2
AME_NIL
 10
0.0
 20
0.0
 30
0.0
1001
AME_SOL
1002
{
1070
     1
1071
  2454760
1070
   775
1070
     0
1070
     2
1005
54
1005
51
1005
0
1005
0
1005
57
1040
0.0
1040
1.0
1070
     0
1000
MILD_STEEL
1000
0
1010
0.0
1020
0.0
1030
0.0
1010
0.0
1020
0.0
1030
1.0
1040
0.0
1002
}
  0
INSERT
  8
AME_FRZ
  5
56
  2
AME_NIL
 10
0.0
 20
0.0
 30
0.0
1001
AME_SOL
1002
{
1070
     1
1071
  2457248
1070
   775
1070
     0
1070
     2
1005
2D
1005
21
1005
0
1005
0
1005
57
1040
0.0
1040
1.0
1070
     0
1000
MILD_STEEL
1000
0
1010
0.0
1020
0.0
1030
0.0
1010
0.0
1020
0.0
1030
1.0
1040
0.0
1002
}
  0
INSERT
  8
AME_FRZ
  5
57
  2
AME_NIL
 10
0.0
 20
0.0
 30
0.0
1001
AME_SOL
1002
{
1070
     1
1071
  2459768
1070
   775
1070
     0
1070
     2
1005
55
1005
56
1005
0
1005
0
1005
7F
1040
0.0
1040
1.0
1070
     0
1000
MILD_STEEL
1000
0
1010
0.0
1020
0.0
1030
0.0
1010
0.0
1020
0.0
1030
1.0
1040
0.0
1002
}
  0
INSERT
  8
0
  5
7F
  2
*U8
 10
0.0
 20
0.0
 30
0.0
1001
AME_SOL
1002
{
1070
     1
1071
  2462280
1070
  1543
1070
     1
1070
     0
1005
15
1005
57
1005
0
1005
80
1005
0
1040
0.0
1040
1.0
1070
     0
1000
MILD_STEEL
1000
0
1002
}
1001
AVE_INVOKE
1000
SOLAVEMESH
  0
INSERT
  8
AME_FRZ
  5
80
  2
AME_NIL
 10
1.0
 20
1.0
 30
1.0
1001
AME_SOL
1004
C7CF010029019401930191018D018501780164014D019F002D004E018F00320130001A01BE00EF0032007901FE00650171008E0086017A016601C0005D006701A3008C007B0168014F01DF0033017900F80034006901EB005001EA004E008E0187017C01F00010003F0088017D016A015101FC0034011B01
1004
0E010701A90013009400FD006D0075006B0152015F0035011700CE0053013601B7001C018B00640037011D010F012300A50010012B00B5001E011101F5003A00120141008A007E016C01800024006D01540138011F011301620082001401C60008012000F100200115010901510052000A01D00001010A00
1004
000116010B01020193001C000301FA0090000C0104013E00ED000501EC00E8000D0055019200600092018F0189017F016E015601CF00390103004D0057013A0178000B003B01E600E0006F01580147003C010900840059013D0121019C00F6002201380068003E0123016F00A0002401C100CD00FF008A01
1004
80017001990018000100810171015A01EE003F01F900F7005B0140012501580014000500060072015C012600410150002C005D0142012601D800150027012E00DB0043012801B800170187004F00D40090018B014000820173015E014401D200E90019005F01450104000F00460128002901F300F2000200
1004
8C018301740160010C0047012A01E70018010D010601E400E2001E000800FB0061014801F400A40096007501620149012B010700BD002C01950056004A012D011D0054002E01210022001F008401760163014B012F017C0070003001D50044004C013101190172003700E300330048007701BF0025000000
1004
1E410F208C41C6ACC1294E792B33CB55ED82F422BB50F9B05E84576A1F360BD08AED43E3D3E4A0222D8D61E9F2501116C6B017A115DB492C57B8DAF6A5E401C7B5B7920794D66C54421D0C6A6360BD08AED43E527520004E0EBB1A4EA40009C176C05E84576D24B158F0FAF0AAE529D59E615C787FFC82FF
1004
FFFFFE417FFF5A59F9D67FAD7F92CFC967FFFFF8F0FFF905FFFFFFFC82FFFEB4B3F3ACFF5AFF259F92CFFFFFC87C831EF7333FE417FFFFFFF20BFE78E94A52931162BF5DB3FDB861C2548A161C6030E12A450B0E69FEDF0C384A9142C38C7FFE4B030E12A450B0E68AFFFFC963731849498C24A55FFFF92C
1004
418F2BDCCCFF905FFFFFFFC82FFFEEBB3F3ACFF6E187095228587180C384A9142C39A2BFD063CDF7333FE417FFFFFFF20BFE78E94A52931162BF52CFF6E187095228587180C384A9142C39A7FB7C30E12A450B0E31FFF92C0C384A9142C39A2BFFFF258DCC6125263092957FFFE4B1063C82EE667FC82FFF
1004
FFFFE417FD5F90527E759FEDC30E12A450B0E3018709522858734FF6F861C2548A161C63FFF2581870952285873457FFFE4B1B98C24A4C61252AFFFFC9638DAF6A4D66C54421D0C6A63C8038F6B6F240F2B60BD08AED43E693A90002705DB149D48001383AEC05E84576D24B158F0FA3ABF7F4A756B3571E
1004
1FFF20BFFFFFFF905FFFCEB3F5A59FEB5FE4B3F259FFFFFE3C3FFE417FFFFFFF20BFFF9D67EB4B3FD6BFC967E4B3FFFFF21F20C7BDCCCFF905FFFFFFFC82FF8CD294A526E19FBAECFF6E187095228587180C384A9142C39A2BFD063CAF7333FE417FFFFFFF20BFEAFD76CFD6967FB70C384A9142C38C061C
1004
2548A161CD3FDBE18709522858718FFFC96061C2548A161CD15FFFF92C6E8A0929450494ABFFFF258831E6FB999FF20BFFFFFFF905FF19A5294A4DC315F905FF6E187095228587180C384A9142C39A7FB7C30E12A450B0E31FFF92C0C384A9142C39A2BFFFF258DD1412528A092957FFFE4B1063C82EE667
1004
FC82FFFFFFFE417FD5FA961E37D6967FB70C384A9142C38C061C2548A161CD3FDBE18709522858718FFFC96061C2548A161CD15FFFF92C6E8A0929450494ABFFFF258E36BDA97117B9FBC2D73F61ACD8A8843A18D4C6C17A115DA87CE07C940445B79B1A4EA40009C176C05E84576D24B158F0F88683FA53
1004
AB5F482C787FFC82FFFFFFFE417FFF5E99F9D67FAD7F92CFC967FFFFF8F0FFF905FFFFFFFC82FFFEBD33F3ACFF5AFF259F92CFFFFFC87C831EF7333FE417FFFFFFF20BFE334A529480B15FAED9FEDC30E12A450B0E3018709522858734FF6F861C2548A161C63FFF2581870952285873457FFFE4B1B8C8C1
1004
291918252AFFFFC9620C795EE667FC82FFFFFFFE417FFF79B3F3ACFF6E187095228587180C384A9142C39A7FB7C30E12A450B0E31FFF92C0C384A9142C39A2BFFFF258DC6460948C8C12957FFFE4B1063CDF7333FE417FFFFFFF20BFE334A529480B15FA967FB70C384A9142C38C061C2548A161CD3FDBE1
1004
8709522858718FFFC96061C2548A161CD15FFFF92C6E32304A4646094ABFFFF258831E4177333FE417FFFFFFF20BFE94A5294BF613F3ACFF6E187095228587180C384A9142C39A2BFDC6D7B526B362A210E863531C45EE7EF0B5CFD8D82F422BB50F9A4EA40009C176C703E4A0222DBCD80BD08AEDA4962B
1004
1E1F6B25FD29D58E4163C3FFE417FFFFFFF20BFFF9D67EBD33FD6BFC967E4B3FFFFFC787FFC82FFFFFFFE417FFF3ACFD7A67FAD7F92CFC967FFFFE43E418F7B999FF20BFFFFFFF905FF19A5294A4DC33F79B3FDB861C2548A161C6030E12A450B0E69FEDF0C384A9142C38C7FFE4B030E12A450B0E68AFFF
1004
FC96375E4C1295E4C12957FFFE4B1063CAF7333FE417FFFFFFF20BFEAFD76CFD7A67FB70C384A9142C38C061C2548A161CD3FDBE18709522858718FFFC96061C2548A161CD15FFFF92C6EBC98252BC98252AFFFFC9620C79BEE667FC82FFFFFFFE417FC6694A529370C4A5294A5FB3FDB861C2548A161C60
1004
30E12A450B0E68AFF418F20BB999FF20BFFFFFFF905FF57EA58D5FAF4CFF6E187095228587180C384A9142C39A7FB7C30E12A450B0E31FFF92C0C384A9142C39A2BFFFF258DD79304A579304A55FFFF92C71B5EE2ED82F422BB50F9B05E84576A1F360BD08AED43E3D3E4A0222D8D61E9F2501116C6B1B05
1004
E84576A0AAD163E7E855CABD59E4B53458FFFFF905FFFC82FFFFFFFFFFAD7FFFFFFFFFE8B1FFFFF20BFFF905FFFFFFFFFF5AFFFFFFFFFF20AE36BDA96C17A115DA87CD82F422BB50F9B05E84576A1F1E9F2501116C6B1B05E84576A0A0BD08AEDA4962B458FA11C172AF56790D4D163FFE417FFFFFFFFF20
1004
BFFFFFEB5FFFFFFFFFFA2C7FFC82FFFFFFFFFE417FFFFFD6BFFFFFFFFFC82B8DAF6A5B05E84576A1F360BD08AED43E6C17A115DA87CD82F422BB5053D3E4A0222D8D602F422BB69258AD163E8D232FEAF56BA6A68B1FFFFFFF20BFFF905FFFFFFFF5AFFFFFFFFFFD163FFFFFFE417FFF20BFFFFFFFEB5FFF
1004
FFFFFFE415C6D7B8BB60BD08AED43E6C17A115DA87C8C23882388F23ED561E9F2501116C6B0F4F928088B63580BD08AEDA4962B458FAE966FEAF56BEDA9A2C7FFC87DFCE7F39FCE7E43EFE73F1ACFC6B3F258B5FFFFFFFFFFA2C7FFC87DFCE7F39FCE7E43EFE73F1ACFC6B3F258B5FFFFFFFFFE415C6D7B5
1004
2D82F422BB50F9C8638197C593CD8D82F422BB50F8F4F928088B63587A7C940445B1AC05E84576D24B15A2C7D1B19BFABD58FB53458FFFCE7F39F90FBF21F7F39FCE7E359F8D67E4B16BFFFFFFFFFF458FFFCE7F39F90FBF21F7F39FCE7E359F8D67E4B16BFFFFFFFFFC82B8DAF6A5C8638197C593CD8D82
1004
F422BB50F9B05E84576A1F1E9F2501116C6B0F4F928088B63580BD08AEDA4962B458F9C593FABD5A0DA9A2C7FFE73F21F7F39FCE7F39F90FBF1ACFC6B3F258B5FFFFFFFFFFA2C7FFE73F21F7F39FCE7F39F90FBF1ACFC6B3F258B5FFFFFFFFFE415CAB06B362A210E863531C45EE7EF0B5CFD8D82F422BB5
1004
0F949D48001383AEC693A90002705DB017A115DB492CFFFC96377332D63CD3FEAD295E155CB592FFB76B25FD78557294A5294A52E667FC82FFFFFFFE417FCF11BE369793F376A58E2A686F4DE2FB3726E99FEDFFFF258E558790071ED6DE481E5359B151087431A988C23882388F23ED56293A900027075D
1004
8D27520004E0BB602F422BB69258D60178DD571BAC8A10E2C1745AAE4751E52B73032BC1E7173AB4A5785572BA59BFEDD74B37F5E155CABD294A4C0CEBE9D00174CE3C4D07C6DBC0D15F95D2587DFE6DBC0D15F95D2582AFA74005D338F1341F7FFEB4B3F3ACFC96353F92CFC9635805E3755C6EB228438B
1004
05D16AB91D4794AE558359B151087431A986B362A210E863531B05E84576A1F293A900027075D8A4EA40009C1D7602F422BB69259FFF92C6EE6654983FE94AB5E155CA3ABF7FDBAF0AAE51D5FBFA5294A5294B999FF20BFFFFFFF905FF3C46F8DA5E4FCDDA961E237C6D2F27E6ED4B3FDBFFFE4B1CAB0F20
1004
0E3DADBC903CA6B362A210E863531B05E84576A1F293A900027075D8D27520004E0BB6360BD08AED415AC02F1BAAE37591421C582E8B55C8EA3CA56E60640C88B9D2956BC2AB93F42AE76EBC2AB93F42AE5294A55E60675F4E800BA671E2683E36DE068AFCAE92C3EFF36DE068AFCAE92C157D3A002E99C7
1004
89A0FBFFF5A59F9D67FB53F92CFC9635805E3755C6EB228438B05D16AB91D4794AE5587117B9FBC2D73F61ACD8A8843A18D4C6C17A115DA87CD27520004E0BB6293A900027075D80BD08AEDA4967FFE4B1BB9995A027FD29568EAFDFC4341FF6E8EAFDFC4341FD294A5294A5CCCFF905FFFFFFFC82FF9E64
1004
D0DE9BC5F66E4DD30F11BE369793F376A59FEDFFFF258E558359B151087431A98F200E3DADBC903CA8C23882388F23ED56349D48001382ED8A4EA40009C1D7602F422BB69258D60178DD571BAC8A10E00BA2D5723A8F295B9819785EAE75694A3ABF7F5D2CDFF6EBA59BFA3ABF7F57A52949819CF03C0D15
1004
F95D258298974005D338F1341F7F98974005D338F1340A781E068AFCAE92C17F9CFCEB3F5A59F92C6A7F259F92C6B00BC6EAB8DD645087005D16AB91D4794AE558359B151087431A98F200E3DADBC903CAD82F422BB50F9A4EA40009C176C527520004E0EBB1B05E84576A0AD60178DD571BAC8A10E00BA2
1004
D5723A8F295B98193F714BFE94AB4757EFE7E855CEDD1D5FBF9FA157294A52AF30339E0781A2BF2BA4B05312E800BA671E2683EFF312E800BA671E26814F03C0D15F95D2582FF39F9D67EB4B3FDA9FC967E4B1AC02F1BAAE37591421C01745AAE4751E52B9561C45EE7EF0B5CFD8E22F73F785AE7EC6C17A
1004
115DA87CD27520004E0BB6349D48001382ED80BD08AEDA4967FFE4B1BB9993F795FF4A5588683FB592FFB710D07F6B25FD294A5294A5CCCFF905FFFFFFFC82FFB8A9A1BD378BECDC9BA638A9A1BD378BECDC9BA67FB7FFFC9639561C45EE7EF0B5CFD86B362A210E8635311847104711E47DAAC703E4A022
1004
2DBCD8D27520004E0BB602F422BB692586FC64F35A108D1315F1B43279AD0846898A56E60650EE287FD5A5221A0FEBA59BFEDD74B37F10D07F57A52949819FF20BFFFFFFF905FFFD7A67E759F92C6A7F259F92C37E3279AD0846898AF8DA193CD6842344C52B9561C45EE7EF0B5CFD86B362A210E863531B
1004
05E84576A1F381F2501116DE6C693A90002705DB1B05E84576A0A6FC64F35A108D1315F1B43279AD0846898A56E60640C867FD295621A0FE7E855CEDC4341FCFD0AB94A529579819FF20BFFFFFFF905FFFD7A67E759FED4FE4B3F2586FC64F35A108D1315F1B43279AD0846898A572AC1ACD8A8843A18D4C
1004
7117B9FBC2D73F62308E208E23C8FB558D27520004E0BB6381F2501116DE6C05E84576D24B1AC02F1BAAE375914220BA2D5723A8F295B981938E23FEAD296B25FD74B37FDBAE966FED64BFABD294A4C0CE6DBC0D15F95D2587C785D00174CE3C4D02FF9E174005D338F1341F1B6F03457E574961F7FFE759
1004
FAF4CFC96353F92CFC9635805E3755C6EB228441745AAE4751E52B9560D66C54421D0C6A6388BDCFDE16B9FB1B05E84576A1F349D48001382ED8E07C940445B79B1B05E84576A0AD60178DD571BAC8A1105D16AB91D4794ADCC0C9E51E7DFF4A55B592FE7E855CEDDAC97F3F42AE5294A55E606736DE068A
1004
FCAE92C3E3C2E800BA671E26817FCF0BA002E99C789A0F8DB781A2BF2BA4B0FBFFF3ACFD7A67FB53F92CFC9635805E3755C6EB228441745AAE4751E52B9561B05E84576A1F390C7032F8B279B1B05E84576A1F1E9F2501116C6B0F4F928088B6358D82F422BB505FCE88FCEB1BB9993CA68BFE94AB3F42AE
1004
51B19BFEDCFD0AB946C66FEAF57B999FFFF20BFFFFFFF90FBF3ACFC6B3FDBFE7447E758E5587218E065F164F36360BD08AED43E6C17A115DA87C7A7C940445B1AC3D3E4A0222D8D6360BD08AED417F3A23F3AC6EE66639FF4A559FA15727164FFB73F42AE4E2C9FD5EAF7333FE417FFFFFFFFF21F7E359F9
1004
D67FB7FCE88FCEB1CAB0D82F422BB50F9B05E84576A1F360BD08AED43E6C17A115DA829E9F2501116C6B1B05E84576A0BF8D11FCE377332063CF3FE94AB3F42AE51A465FF6E7E855CA348CBFABD5EE667FC87DFFFFFFFFF90FBFFFFFDBFE3447F38E5586C17A115DA87CD82F422BB50F9B05E84576A1F1E9
1004
F2501116C6B1B05E84576A0AD82F422BB505FFFC6B1BB9993F3CEBFE94AB3F42AE508E0B9DB9FA157284705CABD5EE667FFFC87DFFFFFFF90FBFFFFFDBFFFE358E5586C17A115DA87CD82F422BB50F91847104711E47DAAC3D3E4A0222D8D6360BD08AED41417A115DB492CFCE88FCEB1BB9993CDAC3FE94
1004
AB42382E574B37FDBA11C172BA59BFABD5EE667FFFFFC82FFFE43EFFFCEB3FFF258DFF3A23F3AC72AC390C7032F8B279B1B05E84576A1F360BD08AED43E3D3E4A0222D8D6360BD08AED41417A115DB492CFE23FB1BB9991007BFE94AB42382E4E2C9FF6E84705C9C593FABD5EE667FC82FFFFFFFE43EFFFC
1004
6B3FFFB1BFF11FD8E5586C17A115DA87CD82F422BB50F9B05E84576A1F360BD08AED415B05E84576A0A0BD08AEDA4967FFE4B1BB9992087FD295684705CA348CBFEDD08E0B9469197F57ABDCCCFF90FBFFFFFFF21F7FFFFFFFB7FFFC9639561B05E84576A1F360BD08AED43E4611C411C4791F6AB1B05E84
1004
576A0A7A7C940445B1AC05E84576D24B3F3A23F3AC6EE664F19AF7FD29568D232FEBA59BFEDD1A465FD74B37F57ABDCCCFFFFFF905FC87DFFFFFFF9D67E4B1BFE7447E758E5586C17A115DA87CE431C0CBE2C9E6C6C17A115DA87CD82F422BB5053D3E4A0222D8D602F422BB69259FC47F6377332BA6B9FF
1004
4A55A348CBFA36337FDBA348CBFA36337F57ABDCCCFFFF905FFFC87DFFFFFFF8D67F637FE23FB1CAB0D82F422BB50F9C8638197C593CD88C23882388F23ED561E9F2501116C6B0F4F928088B63580BD08AEDA4967E3447F38DDCCC9C723FE94AB5D2CDFD1B19BFEDD74B37F46C66FEAF57B999FFFF20BFFF
1004
FFFF905FC6B3F1ACFC9637FC688FE71CAB0E431C0CBE2C9E6C6C17A115DA87C8C23882388F23ED561E9F2501116C6B0F4F928088B63580BD08AEDA4967FFE358DDCCCB174B9D2956BA59BF9C593FEDD74B37F38B27F57ABDCCCFF905FFFFFE73FFF20BF8D67E359F92C6FFFF8D639561C8638197C593CD8E
1004
431C0CBE2C9E6C6C17A115DA87C7A7C940445B1AC3D3E4A0222D8D602F422BB69259F9223F9C6EE665E13C85CE94AB46C66FE7164FFB746C66FE7164FEAF57B999FF20BFFFFFFF905FFFC6B3F1ACFC9637FC911FCE34981E5E
1005
81
  0
INSERT
  8
AME_FRZ
  5
81
  2
AME_NIL
 10
1.0
 20
1.0
 30
1.0
1001
AME_SOL
1004

1005
0
  0
ENDSEC
  0
EOF
