600 0 2 0           
24 FBMach with ACIS - 6.0.3 13 ACIS 6.0.3 NT 24 Thu May 24 09:28:20 2001 
1 9.9999999999999995e-007 1e-010 
body $2 $3 $-1 $4 #
bdycol-kcp $-1 1 7 $5 $6 $7 $8 $9 $10 $11 #
model_id-kcp-attrib $-1 $12 $-1 $0 1 990710899 60 322699265 1 #
lump $-1 $-1 $13 $0 #
transform $-1 1 0 0 0 1 0 0 0 1 0 0 0 1 no_rotate no_reflect no_shear #
body $14 $15 $-1 $16 #
body $17 $18 $-1 $19 #
body $20 $21 $-1 $22 #
body $23 $24 $-1 $25 #
body $26 $27 $-1 $28 #
body $29 $30 $-1 $31 #
body $32 $33 $-1 $34 #
brep_non_volatile_id-cdc-attrib $-1 $-1 $2 $0 1 #
shell $-1 $-1 $-1 $35 $-1 $3 #
model_id-kcp-attrib $-1 $-1 $-1 $5 1 990710899 60 322699266 1 #
lump $-1 $-1 $36 $5 #
transform $-1 1 0 0 0 1 0 0 0 1 4.2632564145606011e-014 80 -5 1 no_rotate no_reflect no_shear #
rgb_color-st-attrib $-1 $37 $-1 $6 0.5 1 1 #
lump $-1 $-1 $38 $6 #
transform $-1 -1 0 -1.2246063538223773e-016 0 1 0 1.2246063538223773e-016 0 -1 40 80 -4.3064510291124236e-016 1 rotate no_reflect no_shear #
rgb_color-st-attrib $-1 $39 $-1 $7 0.5 1 1 #
lump $-1 $-1 $40 $7 #
transform $-1 -1 0 -1.2246063538223773e-016 0 1 0 1.2246063538223773e-016 0 -1 -40 80 4.3064510291124236e-016 1 rotate no_reflect no_shear #
rgb_color-st-attrib $-1 $41 $-1 $8 0.5 1 1 #
lump $-1 $-1 $42 $8 #
transform $-1 -1 0 -1.2246063538223773e-016 0 1 0 1.2246063538223773e-016 0 -1 40 80 -9.9999999999999982 1 rotate no_reflect no_shear #
rgb_color-st-attrib $-1 $43 $-1 $9 0.5 1 1 #
lump $-1 $-1 $44 $9 #
transform $-1 -1 0 -1.2246063538223773e-016 0 1 0 1.2246063538223773e-016 0 -1 1.2246063538223773e-015 80 -4.9999999999999991 1 rotate no_reflect no_shear #
rgb_color-st-attrib $-1 $45 $-1 $10 0.5 1 1 #
lump $-1 $-1 $46 $10 #
transform $-1 -1 0 -1.2246063538223773e-016 0 1 0 1.2246063538223773e-016 0 -1 -40 80 -9.9999999999999982 1 rotate no_reflect no_shear #
rgb_color-st-attrib $-1 $47 $-1 $11 1 0.5 1 #
lump $-1 $-1 $48 $11 #
transform $-1 1 0 0 0 1 0 0 0 1 4.2632564145606011e-014 80 -5 1 no_rotate no_reflect no_shear #
face $49 $50 $51 $13 $-1 $52 reversed single #
shell $-1 $-1 $-1 $53 $-1 $15 #
model_id-kcp-attrib $-1 $-1 $17 $6 1 990710899 160 329252867 1 #
shell $-1 $-1 $-1 $54 $-1 $18 #
model_id-kcp-attrib $-1 $-1 $20 $7 1 990710899 170 329908228 1 #
shell $-1 $-1 $-1 $55 $-1 $21 #
model_id-kcp-attrib $-1 $-1 $23 $8 1 990710899 170 329908229 1 #
shell $-1 $-1 $-1 $56 $-1 $24 #
model_id-kcp-attrib $-1 $-1 $26 $9 1 990710899 170 329908230 1 #
shell $-1 $-1 $-1 $57 $-1 $27 #
model_id-kcp-attrib $-1 $-1 $29 $10 1 990710899 170 329908231 1 #
shell $-1 $-1 $-1 $58 $-1 $30 #
model_id-kcp-attrib $-1 $-1 $32 $11 1 990710899 410 328859656 1 #
shell $-1 $-1 $-1 $59 $-1 $33 #
model_id-kcp-attrib $-1 $60 $-1 $35 1 990710899 60 322699265 2 #
face $61 $62 $63 $13 $-1 $64 reversed single #
loop $65 $66 $67 $35 #
cone-surface $68 40 80 0 0 0 -1 8 0 0 1 I I 0 1 8 forward I I I I #
face $69 $70 $71 $36 $-1 $72 forward single #
face $-1 $73 $74 $38 $-1 $75 forward single #
face $-1 $76 $77 $40 $-1 $78 forward single #
face $-1 $79 $80 $42 $-1 $81 forward single #
face $-1 $82 $83 $44 $-1 $84 forward single #
face $-1 $85 $86 $46 $-1 $87 forward single #
face $-1 $88 $89 $48 $-1 $90 forward single #
face_name-twe-attrib $-1 $91 $49 $35 1 #
model_id-kcp-attrib $-1 $92 $-1 $50 1 990710899 60 322699265 3 #
face $93 $94 $95 $13 $-1 $96 reversed single #
loop $97 $98 $99 $50 #
plane-surface $100 40 80 -5 0 0 -1 1 0 0 forward_v I I I I #
loop_type-twe-attrib $-1 $-1 $-1 $51 0 #
loop $101 $-1 $102 $35 #
coedge $-1 $67 $67 $103 $104 reversed $51 $-1 #
surf-twe-attrib $-1 $-1 $-1 $52 5 #
model_id-kcp-attrib $-1 $-1 $-1 $53 1 990710899 60 322699266 5 #
face $105 $106 $107 $36 $-1 $108 reversed single #
loop $-1 $-1 $109 $53 #
plane-surface $-1 0 0 10 0 0 1 1 0 0 forward_v I I I I #
face $-1 $110 $111 $38 $-1 $112 forward single #
loop $-1 $113 $114 $54 #
cone-surface $-1 0 0 0 0 0 1 8 0 0 1 I I 0 1 8 forward I I I I #
face $-1 $115 $116 $40 $-1 $117 forward single #
loop $-1 $118 $119 $55 #
cone-surface $-1 0 0 0 0 0 1 8 0 0 1 I I 0 1 8 forward I I I I #
face $-1 $120 $121 $42 $-1 $122 forward single #
loop $-1 $123 $124 $56 #
cone-surface $-1 0 0 0 0 0 1 5 0 0 1 I I 0 1 5 forward I I I I #
face $-1 $125 $126 $44 $-1 $127 forward single #
loop $-1 $128 $129 $57 #
cone-surface $-1 0 0 0 0 0 1 5 0 0 1 I I 0 1 5 forward I I I I #
face $-1 $130 $131 $46 $-1 $132 forward single #
loop $-1 $133 $134 $58 #
cone-surface $-1 0 0 0 0 0 1 5 0 0 1 I I 0 1 5 forward I I I I #
face $-1 $135 $136 $48 $-1 $137 forward single #
loop $-1 $-1 $138 $59 #
plane-surface $-1 74.000000000000071 -10 5 1 0 0 0 0 -1 forward_v I I I I #
primitive_order-cdc-attrib $-1 $-1 $60 $35 5 3 #
face_name-twe-attrib $-1 $139 $61 $50 2 #
model_id-kcp-attrib $-1 $140 $-1 $62 1 990710899 60 322699265 4 #
face $141 $142 $143 $13 $-1 $144 reversed single #
loop $145 $146 $147 $62 #
cone-surface $148 -40 80 0 0 0 -1 8 0 0 1 I I 0 1 8 forward I I I I #
model_id-kcp-attrib $-1 $149 $-1 $63 1 990710899 60 322699265 21 #
loop $150 $-1 $151 $50 #
coedge $-1 $99 $99 $152 $153 reversed $63 $-1 #
surf-twe-attrib $-1 $154 $-1 $64 21 #
loop_type-twe-attrib $-1 $-1 $-1 $66 1 #
coedge $-1 $102 $102 $151 $155 forward $66 $-1 #
coedge $-1 $103 $103 $67 $104 forward $156 $-1 #
edge $157 $158 0 $158 6.2831853071795862 $103 $159 forward 7 unknown #
model_id-kcp-attrib $-1 $-1 $-1 $70 1 990710899 60 322699266 3 #
face $160 $161 $162 $36 $-1 $163 reversed single #
loop $-1 $-1 $164 $70 #
plane-surface $-1 0 0 -10 0 0 1 1 0 0 forward_v I I I I #
coedge $-1 $165 $166 $167 $168 forward $71 $-1 #
face $-1 $-1 $169 $38 $-1 $170 forward single #
loop $-1 $-1 $171 $73 #
plane-surface $-1 0 0 -5.0000000000000009 0 0 -1 -1 0 0 forward_v I I I I #
loop $-1 $-1 $172 $54 #
coedge $-1 $114 $114 $171 $173 reversed $74 $-1 #
face $-1 $-1 $174 $40 $-1 $175 forward single #
loop $-1 $-1 $176 $76 #
plane-surface $-1 0 0 -5.0000000000000009 0 0 -1 -1 0 0 forward_v I I I I #
loop $-1 $-1 $177 $55 #
coedge $-1 $119 $119 $176 $178 reversed $77 $-1 #
face $-1 $-1 $179 $42 $-1 $180 forward single #
loop $-1 $-1 $181 $79 #
plane-surface $-1 0 0 -5 0 0 -1 -1 0 0 forward_v I I I I #
loop $-1 $-1 $182 $56 #
coedge $-1 $124 $124 $181 $183 reversed $80 $-1 #
face $-1 $-1 $184 $44 $-1 $185 forward single #
loop $-1 $-1 $186 $82 #
plane-surface $-1 0 0 -10 0 0 -1 -1 0 0 forward_v I I I I #
loop $-1 $-1 $187 $57 #
coedge $-1 $129 $129 $186 $188 reversed $83 $-1 #
face $-1 $-1 $189 $46 $-1 $190 forward single #
loop $-1 $-1 $191 $85 #
plane-surface $-1 0 0 -5 0 0 -1 -1 0 0 forward_v I I I I #
loop $-1 $-1 $192 $58 #
coedge $-1 $134 $134 $191 $193 reversed $86 $-1 #
face $-1 $194 $195 $48 $-1 $196 forward single #
loop $-1 $-1 $197 $88 #
plane-surface $-1 74.000000000000071 -15 5 0 -1 0 0 0 -1 forward_v I I I I #
coedge $-1 $198 $199 $200 $201 forward $89 $-1 #
primitive_order-cdc-attrib $-1 $-1 $92 $50 5 3 #
face_name-twe-attrib $-1 $202 $93 $62 3 #
model_id-kcp-attrib $-1 $203 $-1 $94 1 990710899 60 322699265 5 #
face $204 $205 $206 $13 $-1 $207 reversed single #
loop $208 $209 $210 $94 #
plane-surface $211 -40 80 -5 0 0 -1 1 0 0 forward_v I I I I #
loop_type-twe-attrib $-1 $-1 $-1 $95 0 #
loop $212 $-1 $213 $62 #
coedge $-1 $147 $147 $214 $215 reversed $95 $-1 #
surf-twe-attrib $-1 $-1 $-1 $96 12 #
loop_type-twe-attrib $-1 $-1 $97 $63 1 #
loop_type-twe-attrib $-1 $-1 $-1 $98 0 #
coedge $-1 $151 $151 $102 $155 reversed $98 $-1 #
coedge $-1 $152 $152 $99 $153 forward $206 $-1 #
edge $216 $217 -3.1415926535897931 $217 3.1415926535897931 $152 $218 forward 7 unknown #
surf-twe-attrib $-1 $-1 $100 $64 7 #
edge $219 $220 0 $220 6.2831853071795862 $151 $221 forward 7 unknown #
loop $222 $223 $103 $224 #
attrib_edge_convexity-kcp-attrib $-1 $225 $-1 $104 1 #
vertex $-1 $104 $226 #
ellipse-curve $227 40 80 5 0 0 -1 8 0 0 1 I I #
model_id-kcp-attrib $-1 $-1 $-1 $106 1 990710899 60 322699266 2 #
face $228 $229 $230 $36 $-1 $231 reversed single #
loop $-1 $-1 $232 $106 #
plane-surface $-1 0 -15 0 0 1 0 0 0 1 forward_v I I I I #
coedge $-1 $233 $234 $235 $236 forward $107 $-1 #
coedge $-1 $237 $109 $238 $239 forward $71 $-1 #
coedge $-1 $109 $237 $240 $241 forward $71 $-1 #
coedge $-1 $242 $243 $109 $168 reversed $244 $-1 #
edge $-1 $245 -15 $246 15 $167 $247 forward 7 unknown #
loop $-1 $-1 $248 $110 #
plane-surface $-1 0 0 5.0000000000000009 0 0 1 1 0 0 forward_v I I I I #
coedge $-1 $171 $171 $114 $173 forward $111 $-1 #
coedge $-1 $172 $172 $248 $249 reversed $113 $-1 #
edge $-1 $250 0 $250 6.2831853071795862 $171 $251 forward 7 unknown #
loop $-1 $-1 $252 $115 #
plane-surface $-1 0 0 5.0000000000000009 0 0 1 1 0 0 forward_v I I I I #
coedge $-1 $176 $176 $119 $178 forward $116 $-1 #
coedge $-1 $177 $177 $252 $253 reversed $118 $-1 #
edge $-1 $254 0 $254 6.2831853071795862 $176 $255 forward 7 unknown #
loop $-1 $-1 $256 $120 #
plane-surface $-1 0 0 5 0 0 1 1 0 0 forward_v I I I I #
coedge $-1 $181 $181 $124 $183 forward $121 $-1 #
coedge $-1 $182 $182 $256 $257 reversed $123 $-1 #
edge $-1 $258 0 $258 6.2831853071795862 $181 $259 forward 7 unknown #
loop $-1 $-1 $260 $125 #
plane-surface $-1 0 0 10 0 0 1 1 0 0 forward_v I I I I #
coedge $-1 $186 $186 $129 $188 forward $126 $-1 #
coedge $-1 $187 $187 $260 $261 reversed $128 $-1 #
edge $-1 $262 0 $262 6.2831853071795862 $186 $263 forward 7 unknown #
loop $-1 $-1 $264 $130 #
plane-surface $-1 0 0 5 0 0 1 1 0 0 forward_v I I I I #
coedge $-1 $191 $191 $134 $193 forward $131 $-1 #
coedge $-1 $192 $192 $264 $265 reversed $133 $-1 #
edge $-1 $266 0 $266 6.2831853071795862 $191 $267 forward 7 unknown #
face $-1 $268 $269 $48 $-1 $270 forward single #
loop $-1 $-1 $271 $135 #
plane-surface $-1 -74.000000000000057 -15 5 -1 0 0 0 0 1 forward_v I I I I #
coedge $-1 $272 $273 $274 $275 forward $136 $-1 #
coedge $-1 $276 $138 $273 $277 reversed $89 $-1 #
coedge $-1 $138 $276 $278 $279 forward $89 $-1 #
coedge $-1 $280 $274 $138 $201 reversed $281 $-1 #
edge $-1 $282 3.75 $283 8.75 $138 $284 forward 7 unknown #
primitive_order-cdc-attrib $-1 $-1 $140 $62 4 3 #
face_name-twe-attrib $-1 $285 $141 $94 4 #
model_id-kcp-attrib $-1 $286 $-1 $142 1 990710899 60 322699265 6 #
face $287 $288 $289 $13 $-1 $290 reversed single #
loop $291 $292 $152 $142 #
cone-surface $293 40 80 5 0 0 -1 5 0 0 1 I I 0 1 5 forward I I I I #
model_id-kcp-attrib $-1 $294 $-1 $143 1 990710899 60 322699265 35 #
loop $295 $-1 $296 $94 #
coedge $-1 $210 $210 $297 $298 reversed $143 $-1 #
surf-twe-attrib $-1 $299 $-1 $144 21 #
loop_type-twe-attrib $-1 $-1 $-1 $146 1 #
coedge $-1 $213 $213 $296 $300 forward $146 $-1 #
coedge $-1 $214 $214 $147 $215 forward $223 $-1 #
edge $301 $302 0 $302 6.2831853071795862 $214 $303 forward 7 unknown #
attrib_edge_convexity-kcp-attrib $-1 $304 $-1 $153 1 #
vertex $305 $153 $306 #
ellipse-curve $307 40 80 -5 0 0 1 5 0 0 1 I I #
attrib_edge_convexity-kcp-attrib $-1 $308 $-1 $155 2 #
vertex $-1 $155 $309 #
ellipse-curve $310 40 80 -5 0 0 -1 8 0 0 1 I I #
loop_type-twe-attrib $-1 $-1 $-1 $156 1 #
loop $311 $312 $214 $224 #
face $313 $314 $156 $13 $-1 $315 forward single #
convexity-sys-attrib $-1 $316 $157 $104 #
point $-1 48 80 5 #
cur-twe-attrib $-1 $-1 $-1 $159 31 #
model_id-kcp-attrib $-1 $-1 $-1 $161 1 990710899 60 322699266 6 #
face $317 $318 $319 $36 $-1 $320 reversed single #
loop $-1 $-1 $321 $161 #
plane-surface $-1 -74.000000000000057 0 0 1 0 0 0 0 -1 forward_v I I I I #
coedge $-1 $322 $240 $323 $324 forward $162 $-1 #
coedge $-1 $325 $164 $322 $326 forward $107 $-1 #
coedge $-1 $164 $325 $327 $328 forward $107 $-1 #
coedge $-1 $243 $242 $164 $236 reversed $244 $-1 #
edge $-1 $329 -15 $330 15 $235 $331 forward 7 unknown #
coedge $-1 $166 $165 $332 $333 forward $71 $-1 #
coedge $-1 $334 $335 $165 $239 reversed $319 $-1 #
edge $-1 $246 -74.000000000000057 $336 74.000000000000057 $238 $337 forward 7 unknown #
coedge $-1 $232 $338 $166 $241 reversed $162 $-1 #
edge $-1 $339 -74.000000000000057 $245 74.000000000000057 $240 $340 forward 7 unknown #
coedge $-1 $235 $167 $338 $341 forward $244 $-1 #
coedge $-1 $167 $235 $334 $342 reversed $244 $-1 #
loop $-1 $-1 $242 $318 #
vertex $-1 $168 $343 #
vertex $-1 $168 $344 #
straight-curve $-1 74.000000000000057 0 10 0 1 0 I I #
coedge $-1 $248 $248 $172 $249 forward $169 $-1 #
edge $-1 $345 0 $345 6.2831853071795862 $248 $346 forward 7 unknown #
vertex $-1 $173 $347 #
ellipse-curve $-1 0 0 -5.0000000000000009 0 0 -1 8 0 0 1 I I #
coedge $-1 $252 $252 $177 $253 forward $174 $-1 #
edge $-1 $348 0 $348 6.2831853071795862 $252 $349 forward 7 unknown #
vertex $-1 $178 $350 #
ellipse-curve $-1 0 0 -5.0000000000000009 0 0 -1 8 0 0 1 I I #
coedge $-1 $256 $256 $182 $257 forward $179 $-1 #
edge $-1 $351 0 $351 6.2831853071795862 $256 $352 forward 7 unknown #
vertex $-1 $183 $353 #
ellipse-curve $-1 0 0 -5 0 0 -1 5 0 0 1 I I #
coedge $-1 $260 $260 $187 $261 forward $184 $-1 #
edge $-1 $354 0 $354 6.2831853071795862 $260 $355 forward 7 unknown #
vertex $-1 $188 $356 #
ellipse-curve $-1 0 0 -10 0 0 -1 5 0 0 1 I I #
coedge $-1 $264 $264 $192 $265 forward $189 $-1 #
edge $-1 $357 0 $357 6.2831853071795862 $264 $358 forward 7 unknown #
vertex $-1 $193 $359 #
ellipse-curve $-1 0 0 -5 0 0 -1 5 0 0 1 I I #
face $-1 $360 $281 $48 $-1 $361 forward single #
loop $-1 $-1 $362 $194 #
plane-surface $-1 -74.000000000000043 -10 5 0 1 0 0 0 1 forward_v I I I I #
coedge $-1 $363 $364 $365 $366 forward $195 $-1 #
coedge $-1 $367 $197 $364 $368 reversed $136 $-1 #
coedge $-1 $197 $367 $198 $277 forward $136 $-1 #
coedge $-1 $200 $365 $197 $275 reversed $281 $-1 #
edge $-1 $283 -74.000000000000071 $369 74.000000000000057 $197 $370 forward 7 unknown #
coedge $-1 $199 $198 $371 $372 reversed $89 $-1 #
edge $-1 $373 0 $283 5 $273 $374 forward 7 unknown #
coedge $-1 $375 $362 $199 $279 reversed $269 $-1 #
edge $-1 $376 0 $282 5 $199 $377 forward 7 unknown #
coedge $-1 $365 $200 $362 $378 reversed $281 $-1 #
loop $-1 $-1 $200 $268 #
vertex $-1 $279 $379 #
vertex $-1 $277 $380 #
straight-curve $-1 74.000000000000057 -6.25 10 0 -1 0 I I #
primitive_order-cdc-attrib $-1 $-1 $203 $94 4 3 #
face_name-twe-attrib $-1 $381 $204 $142 5 #
model_id-kcp-attrib $-1 $382 $-1 $205 1 990710899 60 322699265 7 #
face $383 $384 $385 $13 $-1 $386 reversed single #
loop $387 $388 $389 $205 #
cone-surface $390 0 80 5 0 0 -1 5 0 0 1 I I 0 1 5 forward I I I I #
model_id-kcp-attrib $-1 $391 $-1 $206 1 990710899 60 322699265 19 #
loop $392 $-1 $393 $142 #
surf-twe-attrib $-1 $-1 $-1 $207 34 #
loop_type-twe-attrib $-1 $-1 $208 $143 1 #
loop_type-twe-attrib $-1 $-1 $-1 $209 0 #
coedge $-1 $296 $296 $213 $300 reversed $209 $-1 #
coedge $-1 $297 $297 $210 $298 forward $385 $-1 #
edge $394 $395 -3.1415926535897931 $395 3.1415926535897931 $297 $396 forward 7 unknown #
surf-twe-attrib $-1 $-1 $211 $144 7 #
edge $397 $398 0 $398 6.2831853071795862 $296 $399 forward 7 unknown #
attrib_edge_convexity-kcp-attrib $-1 $400 $-1 $215 1 #
vertex $-1 $215 $401 #
ellipse-curve $402 -40 80 5 0 0 -1 8 0 0 1 I I #
convexity-sys-attrib $-1 $403 $216 $153 #
model_id-kcp-attrib $-1 $-1 $-1 $217 1 990710899 60 322699265 23 #
point $-1 35 80 -5 #
cur-twe-attrib $-1 $-1 $-1 $218 44 #
convexity-sys-attrib $-1 $404 $219 $155 #
point $-1 48 80 -5 #
cur-twe-attrib $-1 $-1 $-1 $221 46 #
loop_type-twe-attrib $-1 $-1 $-1 $223 1 #
loop $405 $406 $407 $224 #
model_id-kcp-attrib $-1 $408 $-1 $224 1 990710899 60 322699265 17 #
face $409 $410 $411 $13 $-1 $412 forward single #
plane-surface $413 74.000000000000099 95 5 0 0 1 1 0 0 forward_v I I I I #
edge_name-twe-attrib $-1 $-1 $225 $104 18 8704 #
model_id-kcp-attrib $-1 $-1 $-1 $229 1 990710899 60 322699266 4 #
face $414 $-1 $244 $36 $-1 $415 reversed single #
loop $-1 $-1 $334 $229 #
plane-surface $-1 0 15 0 0 -1 0 0 0 -1 forward_v I I I I #
coedge $-1 $416 $332 $335 $417 forward $230 $-1 #
coedge $-1 $338 $232 $233 $326 reversed $162 $-1 #
coedge $-1 $332 $416 $232 $324 reversed $230 $-1 #
edge $-1 $339 -10 $418 10 $323 $419 forward 7 unknown #
coedge $-1 $234 $233 $416 $420 forward $107 $-1 #
edge $-1 $330 -74.000000000000057 $418 74.000000000000057 $322 $421 forward 7 unknown #
coedge $-1 $335 $334 $234 $328 reversed $319 $-1 #
edge $-1 $422 -74.000000000000057 $329 74.000000000000057 $327 $423 forward 7 unknown #
vertex $-1 $236 $424 #
vertex $-1 $341 $425 #
straight-curve $-1 74.000000000000057 0 -10 0 -1 0 I I #
coedge $-1 $321 $323 $237 $333 reversed $230 $-1 #
edge $-1 $336 -15 $339 15 $332 $426 forward 7 unknown #
coedge $-1 $327 $238 $243 $342 forward $319 $-1 #
coedge $-1 $238 $327 $321 $417 reversed $319 $-1 #
vertex $-1 $239 $427 #
straight-curve $-1 0 15 10 -1 0 0 I I #
coedge $-1 $240 $322 $242 $341 reversed $162 $-1 #
vertex $-1 $333 $428 #
straight-curve $-1 0 -15 10 1 0 0 I I #
edge $-1 $245 -10 $330 10 $242 $429 forward 7 unknown #
edge $-1 $246 -10 $329 10 $243 $430 forward 7 unknown #
point $-1 74.000000000000057 -15 10 #
point $-1 74.000000000000057 15 10 #
vertex $-1 $249 $431 #
ellipse-curve $-1 0 0 5.0000000000000009 0 0 1 8 0 0 1 I I #
point $-1 8 0 -5.0000000000000009 #
vertex $-1 $253 $432 #
ellipse-curve $-1 0 0 5.0000000000000009 0 0 1 8 0 0 1 I I #
point $-1 8 0 -5.0000000000000009 #
vertex $-1 $257 $433 #
ellipse-curve $-1 0 0 5 0 0 1 5 0 0 1 I I #
point $-1 5 0 -5 #
vertex $-1 $261 $434 #
ellipse-curve $-1 0 0 10 0 0 1 5 0 0 1 I I #
point $-1 5 0 -10 #
vertex $-1 $265 $435 #
ellipse-curve $-1 0 0 5 0 0 1 5 0 0 1 I I #
point $-1 5 0 -5 #
face $-1 $-1 $436 $48 $-1 $437 reversed single #
plane-surface $-1 3.1086244689504383e-015 -12.5 10 0 0 1 1 0 0 forward_v I I I I #
coedge $-1 $278 $438 $280 $378 forward $269 $-1 #
coedge $-1 $439 $271 $438 $440 reversed $195 $-1 #
coedge $-1 $271 $439 $272 $368 forward $195 $-1 #
coedge $-1 $274 $280 $271 $366 reversed $281 $-1 #
edge $-1 $369 -8.75 $441 -3.75 $271 $442 forward 7 unknown #
coedge $-1 $273 $272 $443 $444 reversed $136 $-1 #
edge $-1 $445 0 $369 5 $364 $446 forward 7 unknown #
vertex $-1 $368 $447 #
straight-curve $-1 0 -15 10 -1 0 0 I I #
coedge $-1 $443 $448 $276 $372 forward $436 $-1 #
edge $449 $376 3.75 $373 8.75 $276 $450 forward 7 unknown #
vertex $-1 $372 $451 #
straight-curve $-1 74.000000000000071 -15 5 0 0 1 I I #
coedge $-1 $438 $278 $448 $452 reversed $269 $-1 #
vertex $-1 $452 $453 #
straight-curve $-1 74.000000000000071 -10 5 0 0 1 I I #
edge $-1 $441 -111.00000000000007 $282 37.000000000000043 $362 $454 forward 7 unknown #
point $-1 74.000000000000071 -10 10 #
point $-1 74.000000000000071 -15 10 #
primitive_order-cdc-attrib $-1 $-1 $286 $142 3 10 #
face_name-twe-attrib $-1 $455 $287 $205 6 #
model_id-kcp-attrib $-1 $456 $-1 $288 1 990710899 60 322699265 8 #
face $457 $458 $459 $13 $-1 $460 forward single #
loop $461 $462 $297 $288 #
cone-surface $463 -40 80 5 0 0 -1 5 0 0 1 I I 0 1 5 forward I I I I #
model_id-kcp-attrib $-1 $464 $-1 $289 1 990710899 60 322699265 26 #
loop $465 $-1 $466 $205 #
coedge $-1 $389 $389 $467 $468 reversed $289 $-1 #
surf-twe-attrib $-1 $-1 $-1 $290 53 #
loop_type-twe-attrib $-1 $-1 $291 $206 0 #
model_id-kcp-attrib $-1 $469 $-1 $292 1 990710899 60 322699265 20 #
coedge $-1 $393 $393 $470 $471 reversed $292 $-1 #
attrib_edge_convexity-kcp-attrib $-1 $472 $-1 $298 1 #
vertex $473 $298 $474 #
ellipse-curve $475 -40 80 -5 0 0 1 5 0 0 1 I I #
attrib_edge_convexity-kcp-attrib $-1 $476 $-1 $300 2 #
vertex $-1 $300 $477 #
ellipse-curve $478 -40 80 -5 0 0 -1 8 0 0 1 I I #
convexity-sys-attrib $-1 $479 $301 $215 #
point $-1 -32 80 5 #
cur-twe-attrib $-1 $-1 $-1 $303 63 #
edge_name-twe-attrib $-1 $-1 $304 $153 3 8704 #
edge_name-twe-attrib $-1 $-1 $308 $155 1 4608 #
model_id-kcp-attrib $-1 $480 $-1 $312 1 990710899 60 322699265 29 #
loop $481 $-1 $482 $224 #
coedge $-1 $407 $407 $466 $483 forward $312 $-1 #
model_id-kcp-attrib $-1 $484 $313 $224 1 990710899 60 322699265 14 #
model_id-kcp-attrib $-1 $485 $-1 $314 1 990710899 60 322699265 15 #
face $486 $-1 $487 $13 $-1 $488 forward single #
loop $489 $-1 $490 $314 #
plane-surface $491 -74 76.666666666666998 -3.3333333333333299 -1 0 0 0 0 1 forward_v I I I I #
surf-twe-attrib $-1 $-1 $-1 $315 72 #
model_id-kcp-attrib $-1 $-1 $-1 $318 1 990710899 60 322699266 7 #
plane-surface $-1 74.000000000000057 0 0 -1 0 0 0 0 1 forward_v I I I I #
coedge $-1 $323 $321 $325 $420 reversed $230 $-1 #
edge $-1 $336 -10 $422 10 $335 $492 forward 7 unknown #
vertex $-1 $420 $493 #
straight-curve $-1 -74.000000000000057 -15 0 0 0 -1 I I #
edge $-1 $418 -15 $422 15 $416 $494 forward 7 unknown #
straight-curve $-1 0 -15 -10 -1 0 0 I I #
vertex $-1 $328 $495 #
straight-curve $-1 0 15 -10 1 0 0 I I #
point $-1 74.000000000000057 15 -10 #
point $-1 74.000000000000057 -15 -10 #
straight-curve $-1 -74.000000000000057 0 10 0 -1 0 I I #
point $-1 -74.000000000000057 15 10 #
point $-1 -74.000000000000057 -15 10 #
straight-curve $-1 74.000000000000057 -15 0 0 0 -1 I I #
straight-curve $-1 74.000000000000057 15 0 0 0 -1 I I #
point $-1 8 0 5.0000000000000009 #
point $-1 8 0 5.0000000000000009 #
point $-1 5 0 5 #
point $-1 5 0 10 #
point $-1 5 0 5 #
loop $-1 $-1 $448 $360 #
plane-surface $-1 3.1086244689504383e-015 -12.5 5 0 0 1 1 0 0 forward_v I I I I #
coedge $-1 $362 $375 $363 $440 forward $269 $-1 #
coedge $-1 $364 $363 $496 $497 reversed $195 $-1 #
edge $-1 $498 0 $441 5 $438 $499 forward 7 unknown #
vertex $-1 $440 $500 #
straight-curve $-1 -74.000000000000057 -6.25 10 0 1 0 I I #
coedge $-1 $496 $371 $367 $444 forward $436 $-1 #
edge $501 $373 -74.000000000000057 $445 74.000000000000057 $367 $502 forward 7 unknown #
vertex $-1 $444 $503 #
straight-curve $-1 -74.000000000000057 -15 5 0 0 1 I I #
point $-1 -74.000000000000057 -15 10 #
coedge $-1 $371 $496 $375 $452 forward $436 $-1 #
convexity-sys-attrib $-1 $-1 $-1 $372 #
straight-curve $-1 74.000000000000057 -6.25 5 0 -1 0 I I #
point $-1 74.000000000000057 -15 5 #
edge $504 $498 -111.00000000000007 $376 37.000000000000028 $375 $505 forward 7 unknown #
point $-1 74.000000000000057 -10 5 #
straight-curve $-1 37.000000000000028 -10 10 1 0 0 I I #
primitive_order-cdc-attrib $-1 $-1 $382 $205 2 10 #
face_name-twe-attrib $-1 $506 $383 $288 7 #
model_id-kcp-attrib $-1 $507 $-1 $384 1 990710899 60 322699265 9 #
face $508 $509 $510 $13 $-1 $511 forward single #
loop $512 $-1 $513 $384 #
plane-surface $514 74.000000000000099 70 5 0 -1 0 0 0 -1 forward_v I I I I #
model_id-kcp-attrib $-1 $515 $-1 $385 1 990710899 60 322699265 33 #
loop $516 $-1 $517 $288 #
surf-twe-attrib $-1 $-1 $-1 $386 77 #
loop_type-twe-attrib $-1 $-1 $387 $289 0 #
model_id-kcp-attrib $-1 $518 $-1 $388 1 990710899 60 322699265 27 #
coedge $-1 $466 $466 $407 $483 reversed $388 $-1 #
coedge $-1 $467 $467 $389 $468 forward $519 $-1 #
edge $520 $521 0 $521 6.2831853071795862 $467 $522 forward 7 unknown #
loop_type-twe-attrib $-1 $-1 $392 $292 1 #
coedge $-1 $470 $470 $393 $471 forward $523 $-1 #
edge $524 $525 0 $525 6.2831853071795862 $470 $526 forward 7 unknown #
convexity-sys-attrib $-1 $527 $394 $298 #
model_id-kcp-attrib $-1 $-1 $-1 $395 1 990710899 60 322699265 37 #
point $-1 -45 80 -5 #
cur-twe-attrib $-1 $-1 $-1 $396 86 #
convexity-sys-attrib $-1 $528 $397 $300 #
point $-1 -32 80 -5 #
cur-twe-attrib $-1 $-1 $-1 $399 88 #
edge_name-twe-attrib $-1 $-1 $400 $215 19 8704 #
loop_type-twe-attrib $-1 $-1 $405 $312 1 #
loop_type-twe-attrib $-1 $-1 $-1 $406 0 #
coedge $-1 $529 $530 $531 $532 forward $406 $-1 #
edge $533 $534 0 $534 6.2831853071795862 $407 $535 forward 7 unknown #
face_name-twe-attrib $-1 $536 $408 $224 13 #
face_name-twe-attrib $-1 $537 $409 $314 14 #
model_id-kcp-attrib $-1 $538 $-1 $410 1 990710899 60 322699265 16 #
loop $539 $-1 $540 $410 #
plane-surface $541 74.000000000000099 76.666666666666998 -3.3333333333333299 1 0 0 0 0 -1 forward_v I I I I #
loop_type-twe-attrib $-1 $-1 $-1 $411 0 #
coedge $-1 $531 $542 $513 $543 reversed $411 $-1 #
surf-twe-attrib $-1 $-1 $-1 $412 99 #
straight-curve $-1 -74.000000000000057 15 0 0 0 -1 I I #
point $-1 -74.000000000000057 -15 -10 #
straight-curve $-1 -74.000000000000057 0 -10 0 1 0 I I #
point $-1 -74.000000000000057 15 -10 #
coedge $-1 $448 $443 $439 $497 forward $436 $-1 #
edge $544 $445 -8.75 $498 -3.75 $439 $545 forward 7 unknown #
vertex $-1 $452 $546 #
straight-curve $-1 -74.000000000000043 -10 5 0 0 1 I I #
point $-1 -74.000000000000043 -10 10 #
convexity-sys-attrib $-1 $-1 $-1 $444 #
straight-curve $-1 0 -15 5 -1 0 0 I I #
point $-1 -74.000000000000057 -15 5 #
convexity-sys-attrib $-1 $-1 $-1 $452 #
straight-curve $-1 37.000000000000028 -10 5 1 0 0 I I #
primitive_order-cdc-attrib $-1 $-1 $456 $288 1 10 #
face_name-twe-attrib $-1 $547 $457 $384 8 #
model_id-kcp-attrib $-1 $548 $-1 $458 1 990710899 60 322699265 10 #
face $549 $550 $551 $13 $-1 $552 forward single #
loop $553 $-1 $554 $458 #
plane-surface $555 74.000000000000099 70 0 0 0 1 1 0 0 forward_v I I I I #
loop_type-twe-attrib $-1 $-1 $-1 $459 0 #
coedge $-1 $556 $557 $490 $543 forward $459 $-1 #
surf-twe-attrib $-1 $-1 $-1 $460 103 #
loop_type-twe-attrib $-1 $-1 $461 $385 0 #
model_id-kcp-attrib $-1 $558 $-1 $462 1 990710899 60 322699265 34 #
coedge $-1 $517 $517 $559 $560 reversed $462 $-1 #
loop_type-twe-attrib $-1 $-1 $465 $388 1 #
loop $561 $562 $467 $550 #
attrib_edge_convexity-kcp-attrib $-1 $563 $-1 $468 1 #
vertex $564 $468 $565 #
ellipse-curve $566 0 80 -15 0 0 1 5 0 0 1 I I #
loop $567 $519 $470 $550 #
attrib_edge_convexity-kcp-attrib $-1 $568 $-1 $471 1 #
vertex $569 $471 $570 #
ellipse-curve $571 40 80 -15 0 0 1 5 0 0 1 I I #
edge_name-twe-attrib $-1 $-1 $472 $298 4 8704 #
edge_name-twe-attrib $-1 $-1 $476 $300 2 4608 #
coedge $-1 $572 $482 $557 $573 reversed $406 $-1 #
coedge $-1 $482 $572 $574 $575 forward $406 $-1 #
coedge $-1 $576 $490 $482 $532 reversed $411 $-1 #
edge $577 $578 0 $579 25 $482 $580 forward 7 unknown #
attrib_edge_convexity-kcp-attrib $-1 $581 $-1 $483 1 #
vertex $582 $483 $583 #
ellipse-curve $584 0 80 5 0 0 -1 5 0 0 1 I I #
primitive_order-cdc-attrib $-1 $-1 $484 $224 0 10 #
primitive_order-cdc-attrib $-1 $-1 $485 $314 0 10 #
face_name-twe-attrib $-1 $585 $486 $410 15 #
loop_type-twe-attrib $-1 $-1 $-1 $487 0 #
coedge $-1 $586 $587 $572 $588 forward $487 $-1 #
surf-twe-attrib $-1 $-1 $-1 $488 125 #
coedge $-1 $490 $589 $554 $590 reversed $411 $-1 #
edge $591 $579 0 $592 5 $513 $593 forward 7 unknown #
convexity-sys-attrib $-1 $-1 $-1 $497 #
straight-curve $-1 -74.000000000000057 -6.25 5 0 1 0 I I #
point $-1 -74.000000000000043 -10 5 #
primitive_order-cdc-attrib $-1 $-1 $507 $384 0 10 #
face_name-twe-attrib $-1 $594 $508 $458 9 #
model_id-kcp-attrib $-1 $595 $-1 $509 1 990710899 60 322699265 11 #
face $596 $597 $523 $13 $-1 $598 forward single #
loop $599 $-1 $600 $509 #
plane-surface $601 74.000000000000099 65 0 0 -1 0 0 0 -1 forward_v I I I I #
loop_type-twe-attrib $-1 $-1 $-1 $510 0 #
coedge $-1 $602 $603 $542 $590 forward $510 $-1 #
surf-twe-attrib $-1 $-1 $-1 $511 131 #
coedge $-1 $604 $513 $603 $605 reversed $459 $-1 #
coedge $-1 $513 $604 $529 $573 forward $459 $-1 #
loop_type-twe-attrib $-1 $-1 $516 $462 1 #
coedge $-1 $559 $559 $517 $560 forward $562 $-1 #
edge $606 $607 0 $607 6.2831853071795862 $559 $608 forward 7 unknown #
model_id-kcp-attrib $-1 $609 $-1 $519 1 990710899 60 322699265 28 #
loop $610 $611 $559 $550 #
convexity-sys-attrib $-1 $612 $520 $468 #
model_id-kcp-attrib $-1 $-1 $-1 $521 1 990710899 60 322699265 30 #
point $-1 5 80 -15 #
cur-twe-attrib $-1 $-1 $-1 $522 140 #
model_id-kcp-attrib $-1 $613 $-1 $523 1 990710899 60 322699265 22 #
convexity-sys-attrib $-1 $614 $524 $471 #
model_id-kcp-attrib $-1 $-1 $-1 $525 1 990710899 60 322699265 24 #
point $-1 45 80 -15 #
cur-twe-attrib $-1 $-1 $-1 $526 142 #
coedge $-1 $530 $529 $540 $588 reversed $406 $-1 #
edge $615 $616 0 $579 148.00000000000011 $557 $617 forward 7 unknown #
coedge $-1 $618 $619 $530 $575 reversed $620 $-1 #
edge $621 $622 0 $578 148.00000000000011 $530 $623 forward 7 unknown #
coedge $-1 $624 $531 $619 $625 reversed $411 $-1 #
attrib_edge_convexity-kcp-attrib $-1 $626 $-1 $532 1 #
vertex $-1 $575 $627 #
vertex $-1 $573 $628 #
straight-curve $629 -74 95 5 0 -1 0 I I #
convexity-sys-attrib $-1 $630 $533 $483 #
model_id-kcp-attrib $-1 $-1 $-1 $534 1 990710899 60 322699265 31 #
point $-1 5 80 5 #
cur-twe-attrib $-1 $-1 $-1 $535 149 #
primitive_order-cdc-attrib $-1 $-1 $538 $410 0 10 #
coedge $-1 $631 $540 $604 $632 forward $487 $-1 #
coedge $-1 $540 $633 $618 $634 forward $487 $-1 #
edge $635 $622 0 $616 25 $540 $636 forward 7 unknown #
coedge $-1 $542 $624 $600 $637 reversed $411 $-1 #
edge $638 $592 0 $639 5 $554 $640 forward 7 unknown #
attrib_edge_convexity-kcp-attrib $-1 $641 $-1 $543 1 #
vertex $-1 $605 $642 #
straight-curve $643 -74 70 5 0 0 -1 I I #
primitive_order-cdc-attrib $-1 $-1 $548 $458 0 10 #
face_name-twe-attrib $-1 $644 $549 $509 10 #
model_id-kcp-attrib $-1 $645 $-1 $550 1 990710899 60 322699265 32 #
face $646 $224 $620 $13 $-1 $647 forward single #
plane-surface $648 74.000000000000099 65 -15 0 0 -1 -1 0 0 forward_v I I I I #
loop_type-twe-attrib $-1 $-1 $-1 $551 0 #
coedge $-1 $649 $650 $589 $637 forward $551 $-1 #
surf-twe-attrib $-1 $-1 $-1 $552 159 #
coedge $-1 $651 $554 $650 $652 reversed $510 $-1 #
coedge $-1 $554 $651 $556 $605 forward $510 $-1 #
coedge $-1 $557 $556 $586 $632 reversed $459 $-1 #
edge $653 $654 0 $592 148.00000000000011 $603 $655 forward 7 unknown #
attrib_edge_convexity-kcp-attrib $-1 $656 $-1 $560 1 #
vertex $657 $560 $658 #
ellipse-curve $659 -40 80 -15 0 0 1 5 0 0 1 I I #
loop_type-twe-attrib $-1 $-1 $561 $519 1 #
model_id-kcp-attrib $-1 $660 $-1 $562 1 990710899 60 322699265 36 #
loop $661 $-1 $662 $550 #
edge_name-twe-attrib $-1 $-1 $563 $468 12 8704 #
loop_type-twe-attrib $-1 $-1 $567 $523 1 #
edge_name-twe-attrib $-1 $-1 $568 $471 11 8704 #
edge_name-twe-attrib $-1 $-1 $-1 $573 6 8704 #
vertex $-1 $588 $663 #
straight-curve $664 74.000000000000099 70 5 -1 0 0 I I #
coedge $-1 $665 $574 $587 $634 reversed $620 $-1 #
coedge $-1 $574 $665 $576 $625 forward $620 $-1 #
loop $666 $-1 $619 $597 #
edge_name-twe-attrib $-1 $-1 $-1 $575 22 8704 #
vertex $-1 $588 $667 #
straight-curve $668 74.000000000000099 95 5 -1 0 0 I I #
coedge $-1 $589 $576 $662 $669 reversed $411 $-1 #
edge $670 $671 0 $578 20 $619 $672 forward 7 unknown #
convexity-sys-attrib $-1 $673 $577 $532 #
point $-1 -74 95 5 #
point $-1 -74 70 5 #
cur-twe-attrib $-1 $-1 $-1 $580 178 #
edge_name-twe-attrib $-1 $-1 $581 $483 20 8704 #
coedge $-1 $674 $586 $651 $675 forward $487 $-1 #
edge $676 $616 0 $654 5 $586 $677 forward 7 unknown #
coedge $-1 $587 $674 $678 $679 forward $487 $-1 #
edge $680 $681 0 $622 20 $587 $682 forward 7 unknown #
edge_name-twe-attrib $-1 $-1 $-1 $588 23 8704 #
straight-curve $683 74.000000000000099 95 5 0 -1 0 I I #
edge $684 $639 0 $685 15 $600 $686 forward 7 unknown #
attrib_edge_convexity-kcp-attrib $-1 $687 $-1 $590 1 #
vertex $-1 $652 $688 #
straight-curve $689 -74 70 0 0 -1 0 I I #
convexity-sys-attrib $-1 $690 $591 $543 #
point $-1 -74 70 0 #
cur-twe-attrib $-1 $-1 $-1 $593 187 #
primitive_order-cdc-attrib $-1 $-1 $595 $509 0 10 #
model_id-kcp-attrib $-1 $691 $596 $550 1 990710899 60 322699265 25 #
model_id-kcp-attrib $-1 $692 $-1 $597 1 990710899 60 322699265 13 #
plane-surface $693 74.000000000000099 95 -15 0 1 0 0 0 1 forward_v I I I I #
surf-twe-attrib $-1 $-1 $-1 $598 190 #
coedge $-1 $694 $600 $695 $696 reversed $551 $-1 #
coedge $-1 $600 $694 $602 $652 forward $551 $-1 #
coedge $-1 $603 $602 $631 $675 reversed $510 $-1 #
edge $697 $698 0 $639 148.00000000000011 $650 $699 forward 7 unknown #
edge_name-twe-attrib $-1 $-1 $-1 $605 8 4608 #
vertex $-1 $632 $700 #
straight-curve $701 74.000000000000099 70 0 -1 0 0 I I #
convexity-sys-attrib $-1 $702 $606 $560 #
model_id-kcp-attrib $-1 $-1 $-1 $607 1 990710899 60 322699265 38 #
point $-1 -35 80 -15 #
cur-twe-attrib $-1 $-1 $-1 $608 199 #
loop_type-twe-attrib $-1 $-1 $610 $562 1 #
loop_type-twe-attrib $-1 $-1 $-1 $611 0 #
coedge $-1 $703 $695 $624 $669 forward $611 $-1 #
point $-1 74.000000000000099 70 5 #
cur-twe-attrib $-1 $-1 $-1 $617 208 #
coedge $-1 $619 $618 $703 $704 forward $620 $-1 #
loop_type-twe-attrib $-1 $-1 $-1 $620 0 #
point $-1 74.000000000000099 95 5 #
cur-twe-attrib $-1 $-1 $-1 $623 210 #
edge $705 $685 0 $671 30 $662 $706 forward 7 unknown #
attrib_edge_convexity-kcp-attrib $-1 $707 $-1 $625 1 #
vertex $-1 $704 $708 #
straight-curve $709 -74 95 -15 0 0 1 I I #
edge_name-twe-attrib $-1 $-1 $626 $532 21 8704 #
coedge $-1 $633 $631 $694 $710 forward $487 $-1 #
edge $711 $654 0 $698 5 $631 $712 forward 7 unknown #
edge_name-twe-attrib $-1 $-1 $-1 $632 24 8704 #
straight-curve $713 74.000000000000099 70 5 0 0 -1 I I #
coedge $-1 $695 $703 $633 $679 reversed $611 $-1 #
edge $714 $715 0 $681 30 $633 $716 forward 7 unknown #
edge_name-twe-attrib $-1 $-1 $-1 $634 28 8704 #
vertex $-1 $679 $717 #
straight-curve $718 74.000000000000099 95 -15 0 0 1 I I #
cur-twe-attrib $-1 $-1 $-1 $636 220 #
attrib_edge_convexity-kcp-attrib $-1 $719 $-1 $637 1 #
vertex $-1 $696 $720 #
straight-curve $721 -74 65 0 0 0 -1 I I #
convexity-sys-attrib $-1 $722 $638 $590 #
point $-1 -74 65 0 #
cur-twe-attrib $-1 $-1 $-1 $640 222 #
edge_name-twe-attrib $-1 $-1 $641 $543 5 8704 #
model_id-kcp-attrib $-1 $723 $645 $550 1 990710899 60 322699265 18 #
face_name-twe-attrib $-1 $724 $646 $597 12 #
surf-twe-attrib $-1 $-1 $-1 $647 228 #
coedge $-1 $650 $649 $674 $710 reversed $551 $-1 #
coedge $-1 $662 $678 $649 $696 forward $611 $-1 #
edge $725 $715 0 $685 148.00000000000011 $695 $726 forward 7 unknown #
attrib_edge_convexity-kcp-attrib $-1 $727 $-1 $652 1 #
vertex $-1 $675 $728 #
straight-curve $729 74.000000000000099 65 0 -1 0 0 I I #
point $-1 74.000000000000099 70 0 #
cur-twe-attrib $-1 $-1 $-1 $655 236 #
edge_name-twe-attrib $-1 $-1 $656 $560 13 8704 #
coedge $-1 $678 $662 $665 $704 reversed $611 $-1 #
edge $730 $681 0 $671 148.00000000000011 $665 $731 forward 7 unknown #
attrib_edge_convexity-kcp-attrib $-1 $732 $-1 $669 1 #
straight-curve $733 -74 65 -15 0 1 0 I I #
convexity-sys-attrib $-1 $734 $670 $625 #
point $-1 -74 95 -15 #
cur-twe-attrib $-1 $-1 $-1 $672 252 #
edge $735 $698 0 $715 15 $674 $736 forward 7 unknown #
edge_name-twe-attrib $-1 $-1 $-1 $675 25 8704 #
straight-curve $737 74.000000000000099 70 0 0 -1 0 I I #
cur-twe-attrib $-1 $-1 $-1 $677 257 #
attrib_edge_convexity-kcp-attrib $-1 $738 $-1 $679 1 #
vertex $-1 $710 $739 #
straight-curve $740 74.000000000000099 65 -15 0 1 0 I I #
point $-1 74.000000000000099 95 -15 #
cur-twe-attrib $-1 $-1 $-1 $682 259 #
convexity-sys-attrib $-1 $741 $684 $637 #
point $-1 -74 65 -15 #
cur-twe-attrib $-1 $-1 $-1 $686 262 #
edge_name-twe-attrib $-1 $-1 $687 $590 7 8704 #
model_id-kcp-attrib $-1 $742 $691 $550 1 990710899 60 322699265 12 #
primitive_order-cdc-attrib $-1 $-1 $692 $597 0 10 #
attrib_edge_convexity-kcp-attrib $-1 $743 $-1 $696 1 #
straight-curve $744 74.000000000000099 65 -15 -1 0 0 I I #
convexity-sys-attrib $-1 $745 $697 $652 #
point $-1 74.000000000000099 65 0 #
cur-twe-attrib $-1 $-1 $-1 $699 275 #
attrib_edge_convexity-kcp-attrib $-1 $746 $-1 $704 1 #
straight-curve $747 74.000000000000099 95 -15 -1 0 0 I I #
convexity-sys-attrib $-1 $748 $705 $669 #
cur-twe-attrib $-1 $-1 $-1 $706 289 #
edge_name-twe-attrib $-1 $-1 $707 $625 16 8704 #
attrib_edge_convexity-kcp-attrib $-1 $749 $-1 $710 1 #
straight-curve $750 74.000000000000099 65 0 0 0 -1 I I #
cur-twe-attrib $-1 $-1 $-1 $712 294 #
convexity-sys-attrib $-1 $751 $714 $679 #
point $-1 74.000000000000099 65 -15 #
cur-twe-attrib $-1 $-1 $-1 $716 298 #
edge_name-twe-attrib $-1 $-1 $719 $637 9 8704 #
face_name-twe-attrib $-1 $752 $723 $550 11 #
convexity-sys-attrib $-1 $753 $725 $696 #
cur-twe-attrib $-1 $-1 $-1 $726 312 #
edge_name-twe-attrib $-1 $-1 $727 $652 10 8704 #
convexity-sys-attrib $-1 $754 $730 $704 #
cur-twe-attrib $-1 $-1 $-1 $731 319 #
edge_name-twe-attrib $-1 $-1 $732 $669 14 8704 #
convexity-sys-attrib $-1 $755 $735 $710 #
cur-twe-attrib $-1 $-1 $-1 $736 324 #
edge_name-twe-attrib $-1 $-1 $738 $679 27 8704 #
primitive_order-cdc-attrib $-1 $-1 $742 $550 0 10 #
edge_name-twe-attrib $-1 $-1 $743 $696 15 8704 #
edge_name-twe-attrib $-1 $-1 $746 $704 17 8704 #
edge_name-twe-attrib $-1 $-1 $749 $710 26 8704 #
End-of-ACIS-data 