600 0 2 0           
84 GICL ACIS Healer - Source: /gicl/data5/repository/giclLogo/giclShortSliced.sat - 6 0 18 ACIS 6.0.3 Solaris 24 Sat Apr 13 00:28:20 2002 
1 9.999999999999999547e-07 1.000000000000000036e-10 
body $2 $3 $-1 $4 #
body $5 $6 $-1 $-1 #
rgb_color-st-attrib $-1 $-1 $-1 $0 0 0 1 #
lump $-1 $7 $8 $0 #
transform $-1 1 0 0 0 1 0 0 0 1 0 0 0 1 no_rotate no_reflect no_shear #
rgb_color-st-attrib $-1 $-1 $-1 $1 1 1 0 #
lump $-1 $9 $10 $1 #
lump $-1 $11 $12 $0 #
shell $-1 $-1 $-1 $13 $-1 $3 #
lump $-1 $14 $15 $1 #
shell $-1 $-1 $-1 $16 $-1 $6 #
lump $-1 $17 $18 $0 #
shell $-1 $-1 $-1 $19 $-1 $7 #
face $-1 $20 $21 $8 $-1 $22 reversed single #
lump $-1 $23 $24 $1 #
shell $-1 $-1 $-1 $25 $-1 $9 #
face $-1 $26 $27 $10 $-1 $28 reversed single #
lump $-1 $-1 $29 $0 #
shell $-1 $-1 $-1 $30 $-1 $11 #
face $-1 $31 $32 $12 $-1 $33 forward single #
face $-1 $34 $35 $8 $-1 $36 forward single #
loop $-1 $-1 $37 $13 #
plane-surface $-1 30 0 -5 0 0 1 1 0 0 forward_v I I I I #
lump $-1 $38 $39 $1 #
shell $-1 $-1 $-1 $40 $-1 $14 #
face $-1 $41 $42 $15 $-1 $28 reversed single #
face $-1 $43 $44 $10 $-1 $45 reversed single #
loop $-1 $46 $47 $16 #
cone-surface $-1 17.5 25 -32.5 0 0 -1 5 0 0 1 I I 0 1 5 forward I I I I #
shell $-1 $-1 $-1 $48 $-1 $17 #
face $-1 $49 $50 $18 $-1 $22 reversed single #
face $-1 $51 $52 $12 $-1 $53 reversed single #
loop $-1 $-1 $54 $19 #
plane-surface $-1 30 0 5 0 0 1 1 0 0 forward_v I I I I #
face $-1 $55 $56 $8 $-1 $57 forward single #
loop $-1 $-1 $58 $20 #
plane-surface $-1 55 0 0 1 0 0 0 0 -1 forward_v I I I I #
coedge $-1 $59 $60 $61 $62 reversed $21 $-1 #
lump $-1 $-1 $63 $1 #
shell $-1 $-1 $-1 $64 $-1 $23 #
face $-1 $65 $66 $24 $-1 $67 forward single #
face $-1 $68 $69 $15 $-1 $70 reversed single #
loop $-1 $71 $72 $25 #
face $-1 $73 $74 $10 $-1 $75 forward single #
loop $-1 $76 $77 $26 #
plane-surface $-1 0 0 -55 0 0 1 1 0 0 forward_v I I I I #
loop $-1 $-1 $78 $16 #
coedge $-1 $47 $47 $79 $80 reversed $27 $-1 #
face $81 $82 $83 $29 $-1 $84 reversed single #
face $-1 $85 $86 $18 $-1 $87 reversed single #
loop $-1 $-1 $88 $30 #
face $89 $90 $91 $12 $-1 $92 reversed single #
loop $-1 $-1 $93 $31 #
plane-surface $-1 65 0 0 -1 0 0 0 0 1 forward_v I I I I #
coedge $-1 $94 $95 $96 $97 reversed $32 $-1 #
face $98 $99 $100 $8 $-1 $36 forward single #
loop $-1 $-1 $101 $34 #
sphere-surface $-1 45 0 0 20 1 0 0 0 0 1 forward_v I I I I #
coedge $-1 $102 $103 $104 $105 forward $35 $-1 #
coedge $-1 $104 $37 $101 $106 reversed $21 $-1 #
coedge $-1 $37 $104 $107 $108 reversed $21 $-1 #
coedge $-1 $109 $110 $37 $62 forward $100 $-1 #
edge $-1 $111 -16.58312395177700083 $112 -10 $61 $113 forward 7 unknown #
shell $-1 $-1 $-1 $114 $-1 $38 #
face $-1 $115 $116 $39 $-1 $28 reversed single #
face $-1 $117 $118 $24 $-1 $75 forward single #
loop $-1 $119 $120 $40 #
plane-surface $-1 0 0 -20 0 0 1 1 0 0 forward_v I I I I #
face $-1 $121 $122 $15 $-1 $75 forward single #
loop $-1 $123 $124 $41 #
plane-surface $-1 0 0 -35 0 0 1 1 0 0 forward_v I I I I #
loop $-1 $-1 $125 $25 #
coedge $-1 $72 $72 $124 $126 reversed $42 $-1 #
face $-1 $-1 $127 $10 $-1 $128 forward single #
loop $-1 $129 $130 $43 #
sphere-surface $-1 17.5 25 -10 50 1 0 0 0 0 1 forward_v I I I I #
loop $-1 $-1 $131 $26 #
coedge $-1 $77 $77 $78 $132 forward $44 $-1 #
coedge $-1 $78 $78 $77 $132 reversed $46 $-1 #
coedge $-1 $79 $79 $47 $80 forward $127 $-1 #
edge $-1 $133 -3.141592653589793116 $133 3.141592653589793116 $79 $134 forward 7 unknown #
fmesh-eye-attrib $-1 $-1 $-1 $48 #
face $-1 $135 $136 $29 $-1 $137 reversed single #
loop $-1 $-1 $138 $48 #
plane-surface $-1 15 0 0 1 0 0 0 0 -1 forward_v I I I I #
face $-1 $139 $140 $18 $-1 $141 forward single #
loop $-1 $-1 $142 $49 #
sphere-surface $-1 0 0 0 15 1 0 0 0 0 1 forward_v I I I I #
coedge $-1 $143 $144 $145 $146 reversed $50 $-1 #
fmesh-eye-attrib $-1 $-1 $-1 $51 #
face $147 $148 $149 $12 $-1 $150 reversed single #
loop $-1 $-1 $151 $51 #
plane-surface $-1 72.5 -13 0 0 -1 0 0 0 -1 forward_v I I I I #
coedge $-1 $152 $153 $154 $155 forward $52 $-1 #
coedge $-1 $156 $54 $157 $158 reversed $32 $-1 #
coedge $-1 $54 $159 $160 $161 reversed $32 $-1 #
coedge $-1 $162 $163 $54 $97 forward $164 $-1 #
edge $-1 $165 -33.75 $166 -13.75 $96 $167 forward 7 unknown #
fmesh-eye-attrib $-1 $-1 $-1 $55 #
face $168 $169 $170 $8 $-1 $171 reversed single #
loop $-1 $-1 $61 $55 #
coedge $-1 $172 $173 $59 $106 forward $56 $-1 #
coedge $-1 $174 $58 $173 $175 reversed $35 $-1 #
coedge $-1 $58 $174 $176 $177 forward $35 $-1 #
coedge $-1 $60 $59 $58 $105 reversed $21 $-1 #
edge $-1 $178 10 $179 16.58312395177700083 $58 $180 forward 7 unknown #
edge $-1 $179 -0.5426391022496527272 $111 3.684231755839445732 $101 $181 forward 7 unknown #
coedge $-1 $176 $182 $60 $108 forward $170 $-1 #
edge $-1 $112 2.356194490192344837 $178 7.068583470577034511 $107 $183 forward 7 unknown #
coedge $-1 $184 $61 $182 $185 forward $100 $-1 #
coedge $-1 $61 $184 $172 $186 reversed $100 $-1 #
vertex $-1 $186 $187 #
vertex $-1 $185 $188 #
straight-curve $-1 55 0 -5 0 1 0 I I #
face $-1 $189 $190 $63 $-1 $75 forward single #
face $-1 $191 $192 $39 $-1 $193 reversed single #
loop $-1 $194 $195 $64 #
face $-1 $196 $197 $24 $-1 $198 reversed single #
loop $-1 $199 $200 $65 #
loop $-1 $-1 $201 $40 #
coedge $-1 $120 $120 $202 $203 forward $66 $-1 #
face $-1 $-1 $204 $15 $-1 $205 forward single #
loop $-1 $206 $207 $68 #
loop $-1 $-1 $208 $41 #
coedge $-1 $124 $124 $72 $126 forward $69 $-1 #
coedge $-1 $125 $125 $209 $210 reversed $71 $-1 #
edge $-1 $211 -3.141592653589793116 $211 3.141592653589793116 $124 $212 forward 7 unknown #
loop $-1 $213 $79 $73 #
plane-surface $-1 0 0 -50 0 0 1 1 0 0 forward_v I I I I #
loop $-1 $-1 $214 $43 #
coedge $-1 $130 $130 $131 $215 forward $74 $-1 #
coedge $-1 $131 $131 $130 $215 reversed $76 $-1 #
edge $-1 $216 0 $216 6.283185307179586232 $77 $217 forward 7 unknown #
vertex $-1 $80 $218 #
ellipse-curve $-1 17.5 25 -50 -0 -0 -1 5 0 0 1 I I #
face $-1 $219 $220 $29 $-1 $33 forward single #
loop $-1 $-1 $221 $82 #
plane-surface $-1 17.5 18 0 0 -1 0 0 0 -1 forward_v I I I I #
coedge $-1 $222 $223 $224 $225 forward $83 $-1 #
face $-1 $226 $227 $18 $-1 $228 forward single #
loop $-1 $-1 $229 $85 #
plane-surface $-1 10 10 10 1 0 0 0 0 -1 forward_v I I I I #
coedge $-1 $230 $231 $232 $233 forward $86 $-1 #
coedge $-1 $234 $88 $235 $236 reversed $50 $-1 #
coedge $-1 $88 $237 $238 $239 reversed $50 $-1 #
coedge $-1 $240 $241 $88 $146 forward $242 $-1 #
edge $-1 $243 8.75 $244 18.75 $145 $245 forward 7 unknown #
fmesh-eye-attrib $-1 $-1 $-1 $90 #
face $-1 $246 $164 $12 $-1 $247 reversed single #
loop $-1 $-1 $248 $90 #
plane-surface $-1 80 -15.5 0 -1 0 0 0 0 1 forward_v I I I I #
coedge $-1 $249 $250 $251 $252 forward $91 $-1 #
coedge $-1 $253 $93 $254 $255 reversed $52 $-1 #
coedge $-1 $93 $253 $249 $256 forward $52 $-1 #
coedge $-1 $251 $257 $93 $155 reversed $258 $-1 #
edge $-1 $259 -13 $260 18 $93 $261 forward 7 unknown #
coedge $-1 $262 $94 $263 $264 reversed $32 $-1 #
coedge $-1 $265 $266 $94 $158 forward $149 $-1 #
edge $-1 $267 5.25 $165 10.25 $157 $268 forward 7 unknown #
coedge $-1 $95 $262 $269 $270 reversed $32 $-1 #
coedge $-1 $271 $272 $95 $161 forward $273 $-1 #
edge $-1 $166 -18 $274 18 $160 $275 forward 7 unknown #
coedge $-1 $276 $96 $272 $277 forward $164 $-1 #
coedge $-1 $96 $276 $265 $278 reversed $164 $-1 #
loop $-1 $-1 $276 $148 #
vertex $-1 $278 $279 #
vertex $-1 $277 $280 #
straight-curve $-1 46.25 -18 5 -1 0 0 I I #
fmesh-eye-attrib $-1 $-1 $-1 $99 #
face $-1 $-1 $281 $8 $-1 $33 forward single #
loop $-1 $-1 $107 $99 #
sphere-surface $-1 45 0 0 15 1 0 0 0 0 1 forward_v I I I I #
coedge $-1 $282 $101 $110 $186 forward $56 $-1 #
coedge $-1 $101 $282 $102 $175 forward $56 $-1 #
coedge $-1 $103 $102 $283 $284 forward $35 $-1 #
edge $-1 $285 -1.863639098523472093 $179 -1.277953555066321245 $173 $286 forward 7 unknown #
coedge $-1 $287 $107 $103 $177 reversed $170 $-1 #
edge $-1 $288 1.107148717794090409 $178 2.034443935795702707 $103 $289 forward 7 unknown #
vertex $-1 $108 $290 #
vertex $-1 $106 $291 #
straight-curve $-1 55 0 -5 0 1 0 I I #
ellipse-curve $-1 45 0 -5 0 0 1 0 19.36491673103708422 0 1 I I #
coedge $-1 $107 $287 $109 $185 reversed $170 $-1 #
ellipse-curve $-1 45 0 -5 -0 -0 -1 0 14.14213562373095101 0 1 I I #
coedge $-1 $110 $109 $292 $293 forward $100 $-1 #
edge $-1 $112 -2.034443935795702707 $294 -1.107148717794090409 $109 $289 forward 7 unknown #
edge $-1 $111 1.277953555066321245 $295 1.863639098523472093 $172 $286 forward 7 unknown #
point $-1 55 -16.58312395177700083 -5 #
point $-1 55 -10 -5 #
face $-1 $296 $297 $63 $-1 $298 forward single #
loop $-1 $299 $300 $114 #
face $-1 $301 $302 $39 $-1 $75 forward single #
loop $-1 $303 $304 $115 #
plane-surface $-1 0 0 -45 0 0 1 1 0 0 forward_v I I I I #
loop $-1 $-1 $305 $64 #
coedge $-1 $195 $195 $306 $307 reversed $116 $-1 #
face $-1 $-1 $308 $24 $-1 $28 reversed single #
loop $-1 $309 $310 $117 #
plane-surface $-1 0 0 -25 0 0 1 1 0 0 forward_v I I I I #
loop $-1 $-1 $311 $65 #
coedge $-1 $200 $200 $312 $313 forward $118 $-1 #
coedge $-1 $201 $201 $311 $314 reversed $119 $-1 #
coedge $-1 $202 $202 $120 $203 reversed $308 $-1 #
edge $-1 $315 -3.141592653589793116 $315 3.141592653589793116 $120 $316 forward 7 unknown #
loop $-1 $317 $209 $121 #
plane-surface $-1 0 0 -30 0 0 1 1 0 0 forward_v I I I I #
loop $-1 $-1 $318 $68 #
coedge $-1 $207 $207 $208 $319 forward $122 $-1 #
coedge $-1 $208 $208 $207 $319 reversed $123 $-1 #
coedge $-1 $209 $209 $125 $210 forward $204 $-1 #
edge $-1 $320 -3.141592653589793116 $320 3.141592653589793116 $209 $321 forward 7 unknown #
vertex $-1 $126 $322 #
ellipse-curve $-1 17.5 25 -35 0 0 1 5 0 0 1 I I #
loop $-1 $-1 $323 $73 #
coedge $-1 $214 $214 $323 $324 forward $129 $-1 #
edge $-1 $325 -3.141592653589793116 $325 3.141592653589793116 $130 $326 forward 7 unknown #
vertex $-1 $132 $327 #
ellipse-curve $-1 17.5 25 -55 0 0 1 5 0 0 1 I I #
point $-1 12.5 25 -50 #
face $-1 $328 $329 $29 $-1 $330 reversed single #
loop $-1 $-1 $331 $135 #
coedge $-1 $332 $333 $334 $335 forward $136 $-1 #
coedge $-1 $336 $138 $337 $338 reversed $83 $-1 #
coedge $-1 $138 $336 $332 $339 forward $83 $-1 #
coedge $-1 $334 $340 $138 $225 reversed $341 $-1 #
edge $-1 $342 -18 $343 18 $138 $344 forward 7 unknown #
face $-1 $345 $346 $18 $-1 $141 forward single #
loop $-1 $-1 $347 $139 #
sphere-surface $-1 0 0 0 20 1 0 0 0 0 1 forward_v I I I I #
coedge $-1 $348 $349 $350 $351 forward $140 $-1 #
coedge $-1 $352 $142 $349 $353 reversed $86 $-1 #
coedge $-1 $142 $352 $354 $355 forward $86 $-1 #
coedge $-1 $356 $350 $142 $233 reversed $50 $-1 #
edge $-1 $357 2.780225529683085561 $358 7.068583470577034511 $142 $359 forward 7 unknown #
coedge $-1 $350 $143 $347 $360 reversed $50 $-1 #
coedge $-1 $361 $362 $143 $236 forward $346 $-1 #
edge $-1 $363 -21.58312395177700083 $243 -5 $235 $364 forward 7 unknown #
coedge $-1 $144 $356 $365 $366 reversed $50 $-1 #
coedge $-1 $367 $368 $144 $239 forward $369 $-1 #
edge $-1 $244 -1.25 $370 3.75 $238 $371 forward 7 unknown #
coedge $-1 $372 $145 $368 $373 reversed $242 $-1 #
coedge $-1 $145 $372 $361 $374 forward $242 $-1 #
loop $-1 $-1 $145 $375 #
vertex $-1 $146 $376 #
vertex $-1 $146 $377 #
straight-curve $-1 18.75 0 -5 -1 0 0 I I #
face $-1 $378 $273 $12 $-1 $379 reversed single #
plane-surface $-1 62.5 -18 0 0 1 0 0 0 1 forward_v I I I I #
coedge $-1 $266 $265 $380 $381 forward $149 $-1 #
coedge $-1 $263 $151 $153 $256 reversed $91 $-1 #
coedge $-1 $151 $263 $266 $382 forward $91 $-1 #
coedge $-1 $380 $154 $151 $252 reversed $258 $-1 #
edge $-1 $383 -28.75 $259 -13.75 $151 $384 forward 7 unknown #
coedge $-1 $153 $152 $262 $385 forward $52 $-1 #
coedge $-1 $386 $269 $152 $255 forward $387 $-1 #
edge $-1 $388 -5 $260 5 $152 $389 forward 7 unknown #
edge $-1 $390 -5 $259 5 $153 $391 forward 7 unknown #
coedge $-1 $154 $392 $386 $393 reversed $258 $-1 #
loop $-1 $-1 $251 $394 #
vertex $-1 $252 $395 #
vertex $-1 $393 $396 #
straight-curve $-1 65 0 -5 0 1 -0 I I #
coedge $-1 $159 $156 $253 $385 reversed $32 $-1 #
coedge $-1 $250 $249 $156 $264 forward $91 $-1 #
edge $-1 $390 13.75 $267 28.75 $263 $397 forward 7 unknown #
coedge $-1 $248 $157 $163 $278 forward $149 $-1 #
coedge $-1 $157 $248 $250 $382 reversed $149 $-1 #
vertex $-1 $382 $398 #
straight-curve $-1 80 -7.75 5 0 -1 0 I I #
coedge $-1 $254 $399 $159 $270 forward $387 $-1 #
edge $-1 $274 13.75 $388 18.75 $269 $400 forward 7 unknown #
coedge $-1 $401 $160 $399 $402 forward $273 $-1 #
coedge $-1 $160 $401 $162 $277 reversed $273 $-1 #
loop $-1 $-1 $401 $246 #
vertex $-1 $402 $403 #
straight-curve $-1 60 0 5 0 1 0 I I #
coedge $-1 $163 $162 $404 $405 forward $164 $-1 #
edge $-1 $166 -5 $406 5 $272 $407 forward 7 unknown #
edge $-1 $165 -5 $408 5 $265 $409 forward 7 unknown #
point $-1 80 -18 5 #
point $-1 60 -18 5 #
loop $-1 $-1 $410 $169 #
coedge $-1 $173 $172 $411 $412 forward $56 $-1 #
coedge $-1 $411 $410 $174 $284 reversed $281 $-1 #
edge $-1 $285 -16.58312395177700083 $288 -10 $174 $413 forward 7 unknown #
vertex $-1 $175 $414 #
ellipse-curve $-1 55 0 0 -1 -0 -0 0 0 -17.3205080756887746 1 I I #
coedge $-1 $182 $176 $410 $415 forward $170 $-1 #
vertex $-1 $177 $416 #
ellipse-curve $-1 55 0 0 -1 -0 -0 0 0 11.18033988749894903 1 I I #
point $-1 55 10 -5 #
point $-1 55 16.58312395177700083 -5 #
coedge $-1 $410 $411 $184 $293 reversed $281 $-1 #
edge $-1 $294 10 $295 16.58312395177700083 $184 $417 forward 7 unknown #
vertex $-1 $415 $418 #
vertex $-1 $293 $419 #
face $-1 $420 $421 $63 $-1 $422 reversed single #
loop $-1 $423 $424 $189 #
plane-surface $-1 0 0 -10 0 0 1 1 0 0 forward_v I I I I #
loop $-1 $-1 $425 $114 #
coedge $-1 $300 $300 $426 $427 forward $190 $-1 #
face $-1 $-1 $428 $39 $-1 $429 forward single #
loop $-1 $430 $431 $191 #
loop $-1 $-1 $432 $115 #
coedge $-1 $304 $304 $305 $433 forward $192 $-1 #
coedge $-1 $305 $305 $304 $433 reversed $194 $-1 #
coedge $-1 $306 $306 $195 $307 forward $428 $-1 #
edge $-1 $434 -3.141592653589793116 $434 3.141592653589793116 $306 $435 forward 7 unknown #
loop $-1 $436 $202 $196 #
loop $-1 $-1 $312 $117 #
coedge $-1 $310 $310 $437 $438 forward $197 $-1 #
coedge $-1 $311 $311 $201 $314 forward $199 $-1 #
coedge $-1 $312 $312 $200 $313 reversed $309 $-1 #
edge $-1 $439 -3.141592653589793116 $439 3.141592653589793116 $200 $440 forward 7 unknown #
edge $-1 $441 -3.141592653589793116 $441 3.141592653589793116 $311 $442 forward 7 unknown #
vertex $-1 $203 $443 #
ellipse-curve $-1 17.5 25 -20 -0 -0 -1 5 0 0 1 I I #
loop $-1 $-1 $444 $121 #
coedge $-1 $318 $318 $444 $445 forward $206 $-1 #
edge $-1 $446 -3.141592653589793116 $446 3.141592653589793116 $207 $447 forward 7 unknown #
vertex $-1 $210 $448 #
ellipse-curve $-1 17.5 25 -30 -0 -0 -1 5 0 0 1 I I #
point $-1 12.5 25 -35 #
coedge $-1 $323 $323 $214 $324 reversed $213 $-1 #
edge $-1 $449 -3.141592653589793116 $449 3.141592653589793116 $214 $450 forward 7 unknown #
vertex $-1 $215 $451 #
ellipse-curve $-1 17.5 25 -55 0 0 1 0 21.79449471770336899 0 1 I I #
point $-1 22.5 25 -55 #
face $-1 $452 $453 $29 $-1 $454 reversed single #
loop $-1 $-1 $455 $219 #
plane-surface $-1 20 0 0 -1 0 0 0 0 1 forward_v I I I I #
coedge $-1 $456 $457 $458 $459 reversed $220 $-1 #
coedge $-1 $460 $221 $223 $339 reversed $136 $-1 #
coedge $-1 $221 $460 $461 $462 forward $136 $-1 #
coedge $-1 $463 $224 $221 $335 reversed $341 $-1 #
edge $-1 $464 3.75 $342 8.75 $221 $465 forward 7 unknown #
coedge $-1 $223 $222 $457 $466 forward $83 $-1 #
coedge $-1 $467 $458 $222 $338 forward $453 $-1 #
edge $-1 $468 -5 $343 5 $222 $469 forward 7 unknown #
edge $-1 $470 -5 $342 5 $332 $471 forward 7 unknown #
coedge $-1 $224 $463 $467 $472 reversed $341 $-1 #
loop $-1 $-1 $334 $452 #
vertex $-1 $335 $473 #
vertex $-1 $225 $474 #
straight-curve $-1 15 0 -5 0 -1 0 I I #
face $-1 $475 $476 $18 $-1 $33 forward single #
loop $-1 $-1 $235 $226 #
coedge $-1 $477 $478 $234 $360 forward $227 $-1 #
coedge $-1 $479 $229 $478 $480 reversed $140 $-1 #
coedge $-1 $229 $479 $230 $353 forward $140 $-1 #
coedge $-1 $232 $234 $229 $351 reversed $50 $-1 #
edge $-1 $358 5 $481 11.58312395177700083 $229 $482 forward 7 unknown #
coedge $-1 $231 $230 $483 $484 forward $86 $-1 #
edge $-1 $485 1.107148717794090409 $358 2.034443935795702707 $349 $486 forward 7 unknown #
coedge $-1 $487 $488 $231 $355 reversed $489 $-1 #
edge $-1 $490 -1.932163450701604557 $357 -1.209429202888188781 $231 $491 forward 7 unknown #
coedge $-1 $237 $232 $488 $492 reversed $50 $-1 #
vertex $-1 $492 $493 #
vertex $-1 $351 $494 #
ellipse-curve $-1 0 0 -5 -0 -0 -1 0 14.14213562373095101 0 1 I I #
edge $-1 $481 -0.5426391022496527272 $363 3.684231755839445732 $347 $495 forward 7 unknown #
coedge $-1 $496 $235 $241 $374 reversed $346 $-1 #
coedge $-1 $235 $496 $477 $497 reversed $346 $-1 #
vertex $-1 $497 $498 #
straight-curve $-1 10 5 -5 0 1 0 I I #
coedge $-1 $499 $500 $237 $366 forward $501 $-1 #
edge $-1 $370 -16.25 $502 -11.25 $365 $503 forward 7 unknown #
coedge $-1 $504 $238 $500 $505 reversed $369 $-1 #
coedge $-1 $238 $504 $240 $373 forward $369 $-1 #
loop $-1 $-1 $238 $506 #
vertex $-1 $239 $507 #
straight-curve $-1 0 -1.25 -5 0 -1 0 I I #
coedge $-1 $241 $240 $508 $509 forward $242 $-1 #
edge $-1 $510 -5 $244 5 $240 $511 forward 7 unknown #
edge $-1 $512 -5 $243 5 $361 $513 forward 7 unknown #
face $514 $515 $242 $18 $-1 $516 reversed single #
point $-1 10 0 -5 #
point $-1 0 0 -5 #
face $-1 $394 $387 $12 $-1 $517 reversed single #
plane-surface $-1 60 0 0 1 0 0 0 0 -1 forward_v I I I I #
coedge $-1 $404 $251 $248 $381 reversed $258 $-1 #
edge $-1 $408 -10.25 $383 -5.25 $248 $518 forward 7 unknown #
edge $-1 $267 -5 $383 5 $266 $519 forward 7 unknown #
vertex $-1 $381 $520 #
straight-curve $-1 51.25 -13 -5 -1 0 0 I I #
edge $-1 $388 -18 $390 13 $253 $521 forward 7 unknown #
coedge $-1 $399 $254 $257 $393 forward $387 $-1 #
loop $-1 $-1 $386 $378 #
vertex $-1 $255 $522 #
straight-curve $-1 65 18 0 0 0 -1 I I #
vertex $-1 $256 $523 #
straight-curve $-1 65 -13 0 -0 -0 -1 I I #
coedge $-1 $257 $404 $401 $524 reversed $258 $-1 #
edge $-1 $260 -18.75 $525 -13.75 $386 $526 forward 7 unknown #
face $-1 $-1 $258 $12 $-1 $22 reversed single #
point $-1 65 -13 -5 #
point $-1 65 18 -5 #
straight-curve $-1 51.25 -13 5 1 0 -0 I I #
point $-1 80 -13 5 #
coedge $-1 $269 $386 $271 $402 reversed $387 $-1 #
straight-curve $-1 46.25 18 5 1 0 -0 I I #
coedge $-1 $272 $271 $392 $524 forward $273 $-1 #
edge $-1 $274 -5 $525 5 $399 $527 forward 7 unknown #
point $-1 60 18 5 #
coedge $-1 $392 $380 $276 $405 reversed $258 $-1 #
edge $-1 $406 13.75 $408 33.75 $276 $528 forward 7 unknown #
vertex $-1 $405 $529 #
straight-curve $-1 60 -18 0 0 0 -1 I I #
vertex $-1 $405 $530 #
straight-curve $-1 80 -18 0 0 0 -1 I I #
coedge $-1 $283 $292 $287 $415 reversed $281 $-1 #
coedge $-1 $292 $283 $282 $412 reversed $281 $-1 #
edge $-1 $295 -0.5426391022496527272 $285 3.684231755839445732 $282 $531 forward 7 unknown #
straight-curve $-1 55 0 5 0 -1 0 I I #
point $-1 55 16.58312395177700083 5 #
edge $-1 $288 2.356194490192344837 $294 7.068583470577034511 $287 $532 forward 7 unknown #
point $-1 55 10 5 #
straight-curve $-1 55 0 5 0 -1 0 I I #
point $-1 55 -10 5 #
point $-1 55 -16.58312395177700083 5 #
face $-1 $-1 $533 $63 $-1 $28 reversed single #
loop $-1 $534 $535 $296 #
plane-surface $-1 0 0 -15 0 0 1 1 0 0 forward_v I I I I #
loop $-1 $-1 $536 $189 #
coedge $-1 $424 $424 $537 $538 forward $297 $-1 #
coedge $-1 $425 $425 $536 $539 forward $299 $-1 #
coedge $-1 $426 $426 $300 $427 reversed $534 $-1 #
edge $-1 $540 -3.141592653589793116 $540 3.141592653589793116 $300 $541 forward 7 unknown #
loop $-1 $542 $306 $301 #
plane-surface $-1 0 0 -40 0 0 1 1 0 0 forward_v I I I I #
loop $-1 $-1 $543 $191 #
coedge $-1 $431 $431 $432 $544 forward $302 $-1 #
coedge $-1 $432 $432 $431 $544 reversed $303 $-1 #
edge $-1 $545 -3.141592653589793116 $545 3.141592653589793116 $304 $546 forward 7 unknown #
vertex $-1 $307 $547 #
ellipse-curve $-1 17.5 25 -40 -0 -0 -1 5 0 0 1 I I #
loop $-1 $-1 $437 $196 #
coedge $-1 $437 $437 $310 $438 reversed $436 $-1 #
edge $-1 $548 -3.141592653589793116 $548 3.141592653589793116 $310 $549 forward 7 unknown #
vertex $-1 $313 $550 #
ellipse-curve $-1 17.5 25 -25 0 0 1 0 47.69696007084728251 0 1 I I #
vertex $-1 $314 $551 #
ellipse-curve $-1 17.5 25 -20 -0 -0 -1 0 -48.98979485566356118 0 1 I I #
point $-1 12.5 25 -20 #
coedge $-1 $444 $444 $318 $445 reversed $317 $-1 #
edge $-1 $552 -3.141592653589793116 $552 3.141592653589793116 $318 $553 forward 7 unknown #
vertex $-1 $319 $554 #
ellipse-curve $-1 17.5 25 -35 0 0 1 0 43.30127018922193116 0 1 I I #
point $-1 12.5 25 -30 #
vertex $-1 $324 $555 #
ellipse-curve $-1 17.5 25 -50 -0 -0 -1 0 -30 0 1 I I #
point $-1 17.50000000000000355 3.205505282296631009 -55 #
face $-1 $-1 $341 $29 $-1 $22 reversed single #
loop $-1 $-1 $467 $328 #
plane-surface $-1 17.5 -18 0 0 1 0 0 0 1 forward_v I I I I #
coedge $-1 $461 $556 $463 $557 forward $329 $-1 #
coedge $-1 $558 $331 $559 $560 reversed $220 $-1 #
coedge $-1 $331 $558 $336 $466 reversed $220 $-1 #
coedge $-1 $337 $561 $331 $459 forward $453 $-1 #
edge $-1 $562 3.75 $468 8.75 $458 $563 forward 7 unknown #
coedge $-1 $333 $332 $558 $564 forward $136 $-1 #
coedge $-1 $559 $455 $333 $462 reversed $329 $-1 #
edge $-1 $565 -5 $464 5 $461 $566 forward 7 unknown #
coedge $-1 $340 $334 $455 $557 reversed $341 $-1 #
vertex $-1 $335 $567 #
straight-curve $-1 23.75 18 -5 -1 0 0 I I #
edge $-1 $468 -18 $470 18 $336 $568 forward 7 unknown #
coedge $-1 $561 $337 $340 $472 forward $453 $-1 #
vertex $-1 $338 $569 #
straight-curve $-1 15 -18 0 0 0 -1 I I #
vertex $-1 $339 $570 #
straight-curve $-1 15 18 0 0 0 -1 I I #
edge $-1 $343 -8.75 $571 -3.75 $467 $572 forward 7 unknown #
point $-1 15 18 -5 #
point $-1 15 -18 -5 #
face $-1 $375 $489 $18 $-1 $573 reversed single #
loop $-1 $-1 $574 $345 #
coedge $-1 $575 $347 $362 $497 forward $227 $-1 #
coedge $-1 $347 $575 $348 $480 forward $227 $-1 #
coedge $-1 $349 $348 $576 $577 forward $140 $-1 #
edge $-1 $578 -1.863639098523472093 $481 -1.277953555066321245 $478 $579 forward 7 unknown #
vertex $-1 $360 $580 #
straight-curve $-1 10 5 -5 0 1 0 I I #
coedge $-1 $576 $581 $352 $484 reversed $476 $-1 #
edge $-1 $485 2.356194490192344837 $490 6.644552431086293787 $352 $582 forward 7 unknown #
vertex $-1 $353 $583 #
ellipse-curve $-1 10 0 0 -1 -0 -0 0 0 11.18033988749894903 1 I I #
coedge $-1 $584 $354 $581 $585 forward $489 $-1 #
coedge $-1 $354 $584 $356 $492 forward $489 $-1 #
loop $-1 $-1 $488 $475 #
vertex $-1 $355 $586 #
ellipse-curve $-1 5 0 0 1 0 0 0 0 -14.14213562373095101 1 I I #
edge $-1 $502 1.25 $357 9.478756555322954469 $488 $587 forward 7 unknown #
point $-1 5 -13.22875655532295447 -5 #
point $-1 10 10 -5 #
ellipse-curve $-1 0 0 -5 0 0 1 0 19.36491673103708422 0 1 I I #
coedge $-1 $362 $361 $588 $589 forward $346 $-1 #
edge $-1 $363 1.277953555066321245 $590 1.863639098523472093 $477 $579 forward 7 unknown #
point $-1 10 -16.58312395177700083 -5 #
coedge $-1 $591 $365 $584 $592 reversed $501 $-1 #
coedge $-1 $365 $591 $367 $505 forward $501 $-1 #
loop $-1 $-1 $365 $515 #
vertex $-1 $366 $593 #
straight-curve $-1 16.25 -5 -5 1 0 0 I I #
coedge $-1 $368 $367 $594 $595 forward $369 $-1 #
edge $-1 $596 -5 $370 5 $367 $597 forward 7 unknown #
face $598 $-1 $369 $18 $-1 $599 reversed single #
point $-1 0 -5 -5 #
coedge $-1 $594 $588 $372 $509 reversed $476 $-1 #
edge $-1 $510 -18.75 $512 -8.75 $372 $600 forward 7 unknown #
vertex $-1 $373 $601 #
straight-curve $-1 0 0 0 0 0 -1 I I #
vertex $-1 $374 $602 #
straight-curve $-1 10 0 0 0 0 -1 I I #
fmesh-eye-attrib $-1 $-1 $-1 $375 #
face $603 $506 $501 $18 $-1 $604 reversed single #
plane-surface $-1 7.5 0 0 0 -1 0 0 0 -1 forward_v I I I I #
plane-surface $-1 62.5 18 0 0 -1 0 0 0 -1 forward_v I I I I #
straight-curve $-1 80 -7.75 -5 0 1 -0 I I #
straight-curve $-1 80 -13 0 0 0 -1 I I #
point $-1 80 -13 -5 #
straight-curve $-1 65 0 5 0 -1 0 I I #
point $-1 65 18 5 #
point $-1 65 -13 5 #
edge $-1 $525 -18 $406 18 $401 $605 forward 7 unknown #
vertex $-1 $524 $606 #
straight-curve $-1 46.25 18 -5 -1 0 0 I I #
straight-curve $-1 60 18 0 0 0 -1 I I #
straight-curve $-1 46.25 -18 -5 1 0 0 I I #
point $-1 60 -18 -5 #
point $-1 80 -18 -5 #
ellipse-curve $-1 45 0 5 -0 -0 -1 0 -19.36491673103708422 0 1 I I #
ellipse-curve $-1 45 0 5 0 0 1 0 -14.14213562373095101 0 1 I I #
loop $-1 $607 $608 $420 #
loop $-1 $-1 $426 $296 #
coedge $-1 $535 $535 $608 $609 forward $421 $-1 #
coedge $-1 $536 $536 $425 $539 reversed $423 $-1 #
coedge $-1 $537 $537 $424 $538 reversed $607 $-1 #
edge $-1 $610 0 $610 6.283185307179586232 $424 $611 forward 7 unknown #
edge $-1 $612 -3.141592653589793116 $612 3.141592653589793116 $425 $613 forward 7 unknown #
vertex $-1 $427 $614 #
ellipse-curve $-1 17.5 25 -15 0 0 1 0 49.74937185533099893 0 1 I I #
loop $-1 $-1 $615 $301 #
coedge $-1 $543 $543 $615 $616 forward $430 $-1 #
edge $-1 $617 -3.141592653589793116 $617 3.141592653589793116 $431 $618 forward 7 unknown #
vertex $-1 $433 $619 #
ellipse-curve $-1 17.5 25 -45 0 0 1 5 0 0 1 I I #
point $-1 12.5 25 -40 #
vertex $-1 $438 $620 #
ellipse-curve $-1 17.5 25 -25 0 0 1 5 0 0 1 I I #
point $-1 17.50000000000000711 -22.69696007084728251 -25 #
point $-1 17.50000000000000711 73.98979485566356118 -20 #
vertex $-1 $445 $621 #
ellipse-curve $-1 17.5 25 -30 -0 -0 -1 0 -45.82575694955839651 0 1 I I #
point $-1 17.50000000000000355 -18.30127018922193116 -35 #
point $-1 17.50000000000000355 55 -50 #
coedge $-1 $455 $559 $561 $622 forward $329 $-1 #
edge $-1 $571 -18 $464 18 $455 $623 forward 7 unknown #
coedge $-1 $457 $456 $460 $564 reversed $220 $-1 #
coedge $-1 $556 $461 $456 $560 forward $329 $-1 #
edge $-1 $565 -18 $562 18 $559 $624 forward 7 unknown #
coedge $-1 $458 $467 $556 $622 reversed $453 $-1 #
vertex $-1 $622 $625 #
straight-curve $-1 23.75 -18 5 -1 0 0 I I #
edge $-1 $470 -8.75 $565 -3.75 $460 $626 forward 7 unknown #
vertex $-1 $462 $627 #
straight-curve $-1 20 18 0 0 0 -1 I I #
point $-1 20 18 -5 #
straight-curve $-1 15 0 5 0 1 0 I I #
point $-1 15 -18 5 #
point $-1 15 18 5 #
vertex $-1 $557 $628 #
straight-curve $-1 23.75 -18 -5 1 0 0 I I #
plane-surface $-1 5 -7.5 0 1 0 0 0 0 -1 forward_v I I I I #
coedge $-1 $581 $594 $591 $629 reversed $476 $-1 #
coedge $-1 $478 $477 $630 $631 forward $227 $-1 #
coedge $-1 $630 $483 $479 $577 reversed $476 $-1 #
edge $-1 $578 -11.58312395177700083 $485 -5 $479 $632 forward 7 unknown #
vertex $-1 $480 $633 #
ellipse-curve $-1 10 0 0 -1 -0 -0 0 0 -17.3205080756887746 1 I I #
point $-1 10 16.58312395177700083 -5 #
coedge $-1 $483 $574 $487 $585 reversed $476 $-1 #
ellipse-curve $-1 0 0 5 0 0 1 0 -14.14213562373095101 0 1 I I #
point $-1 10 10 5 #
coedge $-1 $488 $487 $499 $592 forward $489 $-1 #
edge $-1 $490 -9.478756555322954469 $634 -1.25 $487 $635 forward 7 unknown #
point $-1 5 -13.22875655532295447 5 #
straight-curve $-1 5 -3.75 -5 0 -1 0 I I #
coedge $-1 $508 $630 $496 $589 reversed $476 $-1 #
edge $-1 $512 5 $590 21.58312395177700083 $496 $636 forward 7 unknown #
vertex $-1 $589 $637 #
coedge $-1 $500 $499 $574 $629 forward $501 $-1 #
edge $-1 $634 -5 $502 5 $584 $638 forward 7 unknown #
point $-1 5 -5 -5 #
coedge $-1 $574 $508 $504 $595 reversed $476 $-1 #
edge $-1 $596 -3.75 $510 1.25 $504 $639 forward 7 unknown #
vertex $-1 $505 $640 #
straight-curve $-1 0 -5 0 0 0 -1 I I #
fmesh-eye-attrib $-1 $-1 $-1 $506 #
plane-surface $-1 0 -2.5 0 1 0 0 0 0 -1 forward_v I I I I #
straight-curve $-1 18.75 0 5 1 0 -0 I I #
point $-1 0 0 5 #
point $-1 10 0 5 #
fmesh-eye-attrib $-1 $-1 $-1 $515 #
plane-surface $-1 2.5 -5 0 0 1 0 0 0 1 forward_v I I I I #
straight-curve $-1 60 0 -5 0 -1 0 I I #
point $-1 60 18 -5 #
loop $-1 $-1 $537 $420 #
coedge $-1 $608 $608 $535 $609 reversed $533 $-1 #
edge $-1 $641 -3.141592653589793116 $641 3.141592653589793116 $535 $642 forward 7 unknown #
vertex $-1 $538 $643 #
ellipse-curve $-1 17.5 25 -10 -0 -0 -1 5 0 0 1 I I #
vertex $-1 $539 $644 #
ellipse-curve $-1 17.5 25 -10 -0 -0 -1 0 -50 0 1 I I #
point $-1 17.50000000000000711 -24.74937185533099893 -15 #
coedge $-1 $615 $615 $543 $616 reversed $542 $-1 #
edge $-1 $645 -3.141592653589793116 $645 3.141592653589793116 $543 $646 forward 7 unknown #
vertex $-1 $544 $647 #
ellipse-curve $-1 17.5 25 -45 0 0 1 0 35.7071421427142468 0 1 I I #
point $-1 12.5 25 -45 #
point $-1 12.5 25 -25 #
point $-1 17.50000000000000711 70.82575694955839651 -30 #
edge $-1 $562 -5 $571 5 $556 $648 forward 7 unknown #
straight-curve $-1 20 0 -5 0 1 -0 I I #
straight-curve $-1 20 0 5 0 -1 0 I I #
point $-1 20 -18 5 #
straight-curve $-1 23.75 18 5 1 0 -0 I I #
point $-1 20 18 5 #
point $-1 20 -18 -5 #
edge $-1 $634 11.25 $596 16.25 $591 $649 forward 7 unknown #
coedge $-1 $588 $576 $575 $631 reversed $476 $-1 #
edge $-1 $590 -0.5426391022496527272 $578 3.684231755839445732 $575 $650 forward 7 unknown #
straight-curve $-1 10 5 5 0 -1 0 I I #
point $-1 10 16.58312395177700083 5 #
vertex $-1 $592 $651 #
straight-curve $-1 5 -3.75 5 0 1 0 I I #
straight-curve $-1 10 5 5 0 -1 0 I I #
point $-1 10 -16.58312395177700083 5 #
straight-curve $-1 5 -5 0 0 0 -1 I I #
straight-curve $-1 0 -1.25 5 0 1 0 I I #
point $-1 0 -5 5 #
vertex $-1 $609 $652 #
ellipse-curve $-1 17.5 25 -15 0 0 1 5 0 0 1 I I #
point $-1 22.5 25 -10 #
point $-1 17.50000000000000711 75 -10 #
vertex $-1 $616 $653 #
ellipse-curve $-1 17.5 25 -40 -0 -0 -1 0 -40 0 1 I I #
point $-1 17.50000000000000355 -10.7071421427142468 -45 #
straight-curve $-1 20 -18 0 0 0 -1 I I #
straight-curve $-1 16.25 -5 5 -1 0 0 I I #
ellipse-curve $-1 0 0 5 -0 -0 -1 0 -19.36491673103708422 0 1 I I #
point $-1 5 -5 5 #
point $-1 12.5 25 -15 #
point $-1 17.50000000000000355 65 -40 #
End-of-ACIS-data 