600 0 3 0           
23 ACIS/3D Toolkit - 6.0.3 18 ACIS 6.0.3 Solaris 24 Thu Jul 12 13:12:34 2001 
1 9.999999999999999547e-07 1.000000000000000036e-10 
body $3 $4 $-1 $5 #
body $6 $7 $-1 $8 #
body $9 $10 $-1 $11 #
rgb_color-st-attrib $-1 $-1 $-1 $0 0 0 1 #
lump $-1 $12 $13 $0 #
transform $-1 1 0 0 0 1 0 0 0 1 0 0 0 1 no_rotate no_reflect no_shear #
rgb_color-st-attrib $-1 $-1 $-1 $1 1 1 0 #
lump $-1 $-1 $14 $1 #
transform $-1 1 0 0 0 1 0 0 0 1 17.5 25 -10 1 no_rotate no_reflect no_shear #
rgb_color-st-attrib $-1 $-1 $-1 $2 0 0 1 #
lump $-1 $-1 $15 $2 #
transform $-1 1 0 0 0 1 0 0 0 1 17.5 25 -10 1 no_rotate no_reflect no_shear #
lump $-1 $16 $17 $0 #
shell $-1 $-1 $-1 $18 $-1 $4 #
shell $-1 $-1 $-1 $19 $-1 $7 #
shell $-1 $-1 $-1 $20 $-1 $10 #
lump $-1 $21 $22 $0 #
shell $-1 $-1 $-1 $23 $-1 $12 #
face $24 $25 $26 $13 $-1 $27 reversed single #
face $28 $29 $30 $14 $-1 $31 forward single #
face $32 $-1 $-1 $15 $-1 $33 forward single #
lump $-1 $-1 $34 $0 #
shell $-1 $-1 $-1 $35 $-1 $16 #
face $36 $37 $38 $17 $-1 $39 forward single #
fmesh-eye-attrib $-1 $-1 $-1 $18 #
face $40 $41 $42 $13 $-1 $43 forward single #
loop $-1 $-1 $44 $18 #
plane-surface $-1 30 0 -5 0 0 1 1 0 0 forward_v I I I I #
fmesh-eye-attrib $-1 $-1 $-1 $19 #
face $45 $46 $47 $14 $-1 $48 forward single #
loop $-1 $-1 $49 $19 #
sphere-surface $-1 0 0 -45 5 1 0 0 0 0 1 forward_v I I I I #
fmesh-eye-attrib $-1 $-1 $-1 $20 #
sphere-surface $-1 0 0 0 5 1 0 0 0 0 1 forward_v I I I I #
shell $-1 $-1 $-1 $50 $-1 $21 #
face $51 $52 $53 $22 $-1 $27 reversed single #
fmesh-eye-attrib $-1 $-1 $-1 $23 #
face $54 $55 $56 $17 $-1 $57 reversed single #
loop $-1 $-1 $58 $23 #
plane-surface $-1 30 0 5 0 0 1 1 0 0 forward_v I I I I #
fmesh-eye-attrib $-1 $-1 $-1 $25 #
face $59 $60 $61 $13 $-1 $62 forward single #
loop $-1 $-1 $63 $25 #
plane-surface $-1 55 0 0 1 0 0 0 0 -1 forward_v I I I I #
coedge $-1 $64 $65 $66 $67 reversed $26 $-1 #
fmesh-eye-attrib $-1 $-1 $-1 $29 #
face $68 $69 $70 $14 $-1 $48 forward single #
loop $-1 $71 $72 $29 #
cone-surface $-1 0 0 -22.5 0 0 -1 5 0 0 1 I I 0 1 5 forward I I I I #
coedge $-1 $49 $49 $73 $74 reversed $30 $-1 #
face $75 $76 $77 $34 $-1 $78 reversed single #
fmesh-eye-attrib $-1 $-1 $-1 $35 #
face $79 $80 $81 $22 $-1 $82 reversed single #
loop $-1 $-1 $83 $35 #
fmesh-eye-attrib $-1 $-1 $-1 $37 #
face $84 $85 $86 $17 $-1 $87 reversed single #
loop $-1 $-1 $88 $37 #
plane-surface $-1 65 0 0 -1 0 0 0 0 1 forward_v I I I I #
coedge $-1 $89 $90 $91 $92 reversed $38 $-1 #
fmesh-eye-attrib $-1 $-1 $-1 $41 #
face $93 $94 $95 $13 $-1 $43 forward single #
loop $-1 $-1 $96 $41 #
sphere-surface $-1 45 0 0 20 1 0 0 0 0 1 forward_v I I I I #
coedge $-1 $97 $98 $99 $100 forward $42 $-1 #
coedge $-1 $99 $44 $96 $101 reversed $26 $-1 #
coedge $-1 $44 $99 $102 $103 reversed $26 $-1 #
coedge $-1 $104 $105 $44 $67 forward $95 $-1 #
edge $106 $107 -16.58312395177700083 $108 -10 $66 $109 forward 7 unknown #
fmesh-eye-attrib $-1 $-1 $-1 $46 #
face $110 $111 $112 $14 $-1 $48 forward single #
loop $-1 $113 $114 $46 #
loop $-1 $-1 $115 $29 #
coedge $-1 $72 $72 $116 $117 reversed $47 $-1 #
coedge $-1 $73 $73 $49 $74 forward $118 $-1 #
edge $119 $120 -3.141592653589793116 $120 3.141592653589793116 $73 $121 forward 7 unknown #
fmesh-eye-attrib $-1 $-1 $-1 $50 #
face $122 $123 $124 $34 $-1 $125 reversed single #
loop $-1 $-1 $126 $50 #
plane-surface $-1 15 0 0 1 0 0 0 0 -1 forward_v I I I I #
fmesh-eye-attrib $-1 $-1 $-1 $52 #
face $127 $128 $129 $22 $-1 $130 forward single #
loop $-1 $-1 $131 $52 #
sphere-surface $-1 0 0 0 15 1 0 0 0 0 1 forward_v I I I I #
coedge $-1 $132 $133 $134 $135 reversed $53 $-1 #
fmesh-eye-attrib $-1 $-1 $-1 $55 #
face $136 $137 $138 $17 $-1 $139 reversed single #
loop $-1 $-1 $140 $55 #
plane-surface $-1 72.5 -13 0 0 -1 0 0 0 -1 forward_v I I I I #
coedge $-1 $141 $142 $143 $144 forward $56 $-1 #
coedge $-1 $145 $58 $146 $147 reversed $38 $-1 #
coedge $-1 $58 $148 $149 $150 reversed $38 $-1 #
coedge $-1 $151 $152 $58 $92 forward $153 $-1 #
edge $154 $155 -33.75 $156 -13.75 $91 $157 forward 7 unknown #
fmesh-eye-attrib $-1 $-1 $-1 $60 #
face $158 $159 $160 $13 $-1 $161 reversed single #
loop $-1 $-1 $66 $60 #
coedge $-1 $162 $163 $64 $101 forward $61 $-1 #
coedge $-1 $164 $63 $163 $165 reversed $42 $-1 #
coedge $-1 $63 $164 $166 $167 forward $42 $-1 #
coedge $-1 $65 $64 $63 $100 reversed $26 $-1 #
edge $168 $169 10 $170 16.58312395177700083 $63 $171 forward 7 unknown #
edge $172 $170 -0.5426391022496527272 $107 3.684231755839445732 $96 $173 forward 7 unknown #
coedge $-1 $166 $174 $65 $103 forward $160 $-1 #
edge $175 $108 2.356194490192344837 $169 7.068583470577034511 $102 $176 forward 7 unknown #
coedge $-1 $177 $66 $174 $178 forward $95 $-1 #
coedge $-1 $66 $177 $162 $179 reversed $95 $-1 #
ptlist-eye-attrib $-1 $-1 $-1 $67 #
vertex $-1 $179 $180 #
vertex $-1 $178 $181 #
straight-curve $-1 55 0 -5 0 1 0 I I #
fmesh-eye-attrib $-1 $-1 $-1 $69 #
face $182 $183 $184 $14 $-1 $48 forward single #
loop $-1 $185 $186 $69 #
loop $-1 $-1 $187 $46 #
coedge $-1 $114 $114 $188 $189 reversed $70 $-1 #
coedge $-1 $115 $115 $190 $191 reversed $71 $-1 #
coedge $-1 $116 $116 $72 $117 forward $192 $-1 #
edge $193 $194 -3.141592653589793116 $194 3.141592653589793116 $116 $195 forward 7 unknown #
loop $-1 $196 $73 $197 #
ptlist-eye-attrib $-1 $-1 $-1 $74 #
vertex $-1 $74 $198 #
ellipse-curve $-1 0 0 -45 0 0 1 0 -5 0 1 I I #
fmesh-eye-attrib $-1 $-1 $-1 $76 #
face $199 $200 $201 $34 $-1 $39 forward single #
loop $-1 $-1 $202 $76 #
plane-surface $-1 17.5 18 0 0 -1 0 0 0 -1 forward_v I I I I #
coedge $-1 $203 $204 $205 $206 forward $77 $-1 #
fmesh-eye-attrib $-1 $-1 $-1 $80 #
face $207 $208 $209 $22 $-1 $210 forward single #
loop $-1 $-1 $211 $80 #
plane-surface $-1 10 10 10 1 0 0 0 0 -1 forward_v I I I I #
coedge $-1 $212 $213 $214 $215 forward $81 $-1 #
coedge $-1 $216 $83 $217 $218 reversed $53 $-1 #
coedge $-1 $83 $219 $220 $221 reversed $53 $-1 #
coedge $-1 $222 $223 $83 $135 forward $224 $-1 #
edge $225 $226 8.75 $227 18.75 $134 $228 forward 7 unknown #
fmesh-eye-attrib $-1 $-1 $-1 $85 #
face $229 $230 $153 $17 $-1 $231 reversed single #
loop $-1 $-1 $232 $85 #
plane-surface $-1 80 -15.5 0 -1 0 0 0 0 1 forward_v I I I I #
coedge $-1 $233 $234 $235 $236 forward $86 $-1 #
coedge $-1 $237 $88 $238 $239 reversed $56 $-1 #
coedge $-1 $88 $237 $233 $240 forward $56 $-1 #
coedge $-1 $235 $241 $88 $144 reversed $242 $-1 #
edge $243 $244 -13 $245 18 $88 $246 forward 7 unknown #
coedge $-1 $247 $89 $248 $249 reversed $38 $-1 #
coedge $-1 $250 $251 $89 $147 forward $138 $-1 #
edge $252 $253 5.25 $155 10.25 $146 $254 forward 7 unknown #
coedge $-1 $90 $247 $255 $256 reversed $38 $-1 #
coedge $-1 $257 $258 $90 $150 forward $259 $-1 #
edge $260 $156 -18 $261 18 $149 $262 forward 7 unknown #
coedge $-1 $263 $91 $258 $264 forward $153 $-1 #
coedge $-1 $91 $263 $250 $265 reversed $153 $-1 #
loop $-1 $-1 $263 $137 #
ptlist-eye-attrib $-1 $-1 $-1 $92 #
vertex $-1 $265 $266 #
vertex $-1 $264 $267 #
straight-curve $-1 46.25 -18 5 -1 0 0 I I #
fmesh-eye-attrib $-1 $-1 $-1 $94 #
face $268 $-1 $269 $13 $-1 $39 forward single #
loop $-1 $-1 $102 $94 #
sphere-surface $-1 45 0 0 15 1 0 0 0 0 1 forward_v I I I I #
coedge $-1 $270 $96 $105 $179 forward $61 $-1 #
coedge $-1 $96 $270 $97 $165 forward $61 $-1 #
coedge $-1 $98 $97 $271 $272 forward $42 $-1 #
edge $273 $274 -1.863639098523472093 $170 -1.277953555066321245 $163 $275 forward 7 unknown #
coedge $-1 $276 $102 $98 $167 reversed $160 $-1 #
edge $277 $278 1.107148717794090409 $169 2.034443935795702707 $98 $279 forward 7 unknown #
ptlist-eye-attrib $-1 $-1 $-1 $100 #
vertex $-1 $103 $280 #
vertex $-1 $101 $281 #
straight-curve $-1 55 0 -5 0 1 0 I I #
ptlist-eye-attrib $-1 $-1 $-1 $101 #
ellipse-curve $-1 45 0 -5 0 0 1 0 19.36491673103708422 0 1 I I #
coedge $-1 $102 $276 $104 $178 reversed $160 $-1 #
ptlist-eye-attrib $-1 $-1 $-1 $103 #
ellipse-curve $-1 45 0 -5 -0 -0 -1 0 14.14213562373095101 0 1 I I #
coedge $-1 $105 $104 $282 $283 forward $95 $-1 #
edge $284 $108 -2.034443935795702707 $285 -1.107148717794090409 $104 $279 forward 7 unknown #
edge $286 $107 1.277953555066321245 $287 1.863639098523472093 $162 $275 forward 7 unknown #
point $-1 55 -16.58312395177700083 -5 #
point $-1 55 -10 -5 #
fmesh-eye-attrib $-1 $-1 $-1 $111 #
face $288 $289 $290 $14 $-1 $291 forward single #
loop $-1 $292 $293 $111 #
loop $-1 $-1 $294 $69 #
coedge $-1 $186 $186 $295 $296 reversed $112 $-1 #
coedge $-1 $187 $187 $297 $298 reversed $113 $-1 #
coedge $-1 $188 $188 $114 $189 forward $299 $-1 #
edge $300 $301 -3.141592653589793116 $301 3.141592653589793116 $188 $302 forward 7 unknown #
coedge $-1 $190 $190 $115 $191 forward $303 $-1 #
edge $304 $305 -3.141592653589793116 $305 3.141592653589793116 $190 $306 forward 7 unknown #
loop $-1 $307 $116 $308 #
ptlist-eye-attrib $-1 $-1 $-1 $117 #
vertex $-1 $117 $309 #
ellipse-curve $-1 0 0 -10 -0 -0 -1 5 0 0 1 I I #
loop $-1 $-1 $310 $197 #
face $311 $312 $118 $14 $-1 $313 reversed single #
point $-1 -6.123233995736766282e-16 5 -45 #
fmesh-eye-attrib $-1 $-1 $-1 $123 #
face $314 $315 $316 $34 $-1 $317 reversed single #
loop $-1 $-1 $318 $123 #
coedge $-1 $319 $320 $321 $322 forward $124 $-1 #
coedge $-1 $323 $126 $324 $325 reversed $77 $-1 #
coedge $-1 $126 $323 $319 $326 forward $77 $-1 #
coedge $-1 $321 $327 $126 $206 reversed $328 $-1 #
edge $329 $330 -18 $331 18 $126 $332 forward 7 unknown #
fmesh-eye-attrib $-1 $-1 $-1 $128 #
face $333 $334 $335 $22 $-1 $130 forward single #
loop $-1 $-1 $336 $128 #
sphere-surface $-1 0 0 0 20 1 0 0 0 0 1 forward_v I I I I #
coedge $-1 $337 $338 $339 $340 forward $129 $-1 #
coedge $-1 $341 $131 $338 $342 reversed $81 $-1 #
coedge $-1 $131 $341 $343 $344 forward $81 $-1 #
coedge $-1 $345 $339 $131 $215 reversed $53 $-1 #
edge $346 $347 2.780225529683085561 $348 7.068583470577034511 $131 $349 forward 7 unknown #
coedge $-1 $339 $132 $336 $350 reversed $53 $-1 #
coedge $-1 $351 $352 $132 $218 forward $335 $-1 #
edge $353 $354 -21.58312395177700083 $226 -5 $217 $355 forward 7 unknown #
coedge $-1 $133 $345 $356 $357 reversed $53 $-1 #
coedge $-1 $358 $359 $133 $221 forward $360 $-1 #
edge $361 $227 -1.25 $362 3.75 $220 $363 forward 7 unknown #
coedge $-1 $364 $134 $359 $365 reversed $224 $-1 #
coedge $-1 $134 $364 $351 $366 forward $224 $-1 #
loop $-1 $-1 $134 $367 #
ptlist-eye-attrib $-1 $-1 $-1 $135 #
vertex $-1 $135 $368 #
vertex $-1 $135 $369 #
straight-curve $-1 18.75 0 -5 -1 0 0 I I #
fmesh-eye-attrib $-1 $-1 $-1 $137 #
face $370 $371 $259 $17 $-1 $372 reversed single #
plane-surface $-1 62.5 -18 0 0 1 0 0 0 1 forward_v I I I I #
coedge $-1 $251 $250 $373 $374 forward $138 $-1 #
coedge $-1 $248 $140 $142 $240 reversed $86 $-1 #
coedge $-1 $140 $248 $251 $375 forward $86 $-1 #
coedge $-1 $373 $143 $140 $236 reversed $242 $-1 #
edge $376 $377 -28.75 $244 -13.75 $140 $378 forward 7 unknown #
coedge $-1 $142 $141 $247 $379 forward $56 $-1 #
coedge $-1 $380 $255 $141 $239 forward $381 $-1 #
edge $382 $383 -5 $245 5 $141 $384 forward 7 unknown #
edge $385 $386 -5 $244 5 $142 $387 forward 7 unknown #
coedge $-1 $143 $388 $380 $389 reversed $242 $-1 #
loop $-1 $-1 $235 $390 #
ptlist-eye-attrib $-1 $-1 $-1 $144 #
vertex $-1 $236 $391 #
vertex $-1 $389 $392 #
straight-curve $-1 65 0 -5 0 1 -0 I I #
coedge $-1 $148 $145 $237 $379 reversed $38 $-1 #
coedge $-1 $234 $233 $145 $249 forward $86 $-1 #
edge $393 $386 13.75 $253 28.75 $248 $394 forward 7 unknown #
coedge $-1 $232 $146 $152 $265 forward $138 $-1 #
coedge $-1 $146 $232 $234 $375 reversed $138 $-1 #
ptlist-eye-attrib $-1 $-1 $-1 $147 #
vertex $-1 $375 $395 #
straight-curve $-1 80 -7.75 5 0 -1 0 I I #
coedge $-1 $238 $396 $148 $256 forward $381 $-1 #
edge $397 $261 13.75 $383 18.75 $255 $398 forward 7 unknown #
coedge $-1 $399 $149 $396 $400 forward $259 $-1 #
coedge $-1 $149 $399 $151 $264 reversed $259 $-1 #
loop $-1 $-1 $399 $230 #
ptlist-eye-attrib $-1 $-1 $-1 $150 #
vertex $-1 $400 $401 #
straight-curve $-1 60 0 5 0 1 0 I I #
coedge $-1 $152 $151 $402 $403 forward $153 $-1 #
edge $404 $156 -5 $405 5 $258 $406 forward 7 unknown #
edge $407 $155 -5 $408 5 $250 $409 forward 7 unknown #
point $-1 80 -18 5 #
point $-1 60 -18 5 #
fmesh-eye-attrib $-1 $-1 $-1 $159 #
loop $-1 $-1 $410 $159 #
coedge $-1 $163 $162 $411 $412 forward $61 $-1 #
coedge $-1 $411 $410 $164 $272 reversed $269 $-1 #
edge $413 $274 -16.58312395177700083 $278 -10 $164 $414 forward 7 unknown #
ptlist-eye-attrib $-1 $-1 $-1 $165 #
vertex $-1 $165 $415 #
ellipse-curve $-1 55 0 0 -1 -0 -0 0 0 -17.3205080756887746 1 I I #
coedge $-1 $174 $166 $410 $416 forward $160 $-1 #
ptlist-eye-attrib $-1 $-1 $-1 $167 #
vertex $-1 $167 $417 #
ellipse-curve $-1 55 0 0 -1 -0 -0 0 0 11.18033988749894903 1 I I #
point $-1 55 10 -5 #
point $-1 55 16.58312395177700083 -5 #
coedge $-1 $410 $411 $177 $283 reversed $269 $-1 #
edge $418 $285 10 $287 16.58312395177700083 $177 $419 forward 7 unknown #
ptlist-eye-attrib $-1 $-1 $-1 $178 #
vertex $-1 $416 $420 #
ptlist-eye-attrib $-1 $-1 $-1 $179 #
vertex $-1 $283 $421 #
fmesh-eye-attrib $-1 $-1 $-1 $183 #
face $422 $423 $424 $14 $-1 $425 forward single #
loop $-1 $426 $427 $183 #
sphere-surface $-1 0 0 0 50 1 0 0 0 0 1 forward_v I I I I #
loop $-1 $-1 $428 $111 #
coedge $-1 $293 $293 $429 $430 reversed $184 $-1 #
coedge $-1 $294 $294 $431 $432 reversed $185 $-1 #
coedge $-1 $295 $295 $186 $296 forward $433 $-1 #
edge $434 $435 -3.141592653589793116 $435 3.141592653589793116 $295 $436 forward 7 unknown #
coedge $-1 $297 $297 $187 $298 forward $437 $-1 #
edge $438 $439 -3.141592653589793116 $439 3.141592653589793116 $297 $440 forward 7 unknown #
loop $-1 $441 $188 $442 #
ptlist-eye-attrib $-1 $-1 $-1 $189 #
vertex $-1 $189 $443 #
ellipse-curve $-1 0 0 -30 -0 -0 -1 5 0 0 1 I I #
loop $-1 $444 $190 $423 #
ptlist-eye-attrib $-1 $-1 $-1 $191 #
vertex $-1 $191 $445 #
ellipse-curve $-1 0 0 -5 0 0 1 5 0 0 1 I I #
loop $-1 $-1 $446 $308 #
face $447 $448 $192 $14 $-1 $449 forward single #
point $-1 -5 6.123233995736766282e-16 -10 #
coedge $-1 $310 $310 $450 $451 reversed $196 $-1 #
fmesh-eye-attrib $-1 $-1 $-1 $197 #
face $452 $453 $454 $14 $-1 $291 forward single #
plane-surface $-1 -17.5 -25 -45 0 0 1 1 0 0 forward_v I I I I #
fmesh-eye-attrib $-1 $-1 $-1 $200 #
face $455 $456 $457 $34 $-1 $458 reversed single #
loop $-1 $-1 $459 $200 #
plane-surface $-1 20 0 0 -1 0 0 0 0 1 forward_v I I I I #
coedge $-1 $460 $461 $462 $463 reversed $201 $-1 #
coedge $-1 $464 $202 $204 $326 reversed $124 $-1 #
coedge $-1 $202 $464 $465 $466 forward $124 $-1 #
coedge $-1 $467 $205 $202 $322 reversed $328 $-1 #
edge $468 $469 3.75 $330 8.75 $202 $470 forward 7 unknown #
coedge $-1 $204 $203 $461 $471 forward $77 $-1 #
coedge $-1 $472 $462 $203 $325 forward $457 $-1 #
edge $473 $474 -5 $331 5 $203 $475 forward 7 unknown #
edge $476 $477 -5 $330 5 $319 $478 forward 7 unknown #
coedge $-1 $205 $467 $472 $479 reversed $328 $-1 #
loop $-1 $-1 $321 $456 #
ptlist-eye-attrib $-1 $-1 $-1 $206 #
vertex $-1 $322 $480 #
vertex $-1 $206 $481 #
straight-curve $-1 15 0 -5 0 -1 0 I I #
fmesh-eye-attrib $-1 $-1 $-1 $208 #
face $482 $483 $484 $22 $-1 $39 forward single #
loop $-1 $-1 $217 $208 #
coedge $-1 $485 $486 $216 $350 forward $209 $-1 #
coedge $-1 $487 $211 $486 $488 reversed $129 $-1 #
coedge $-1 $211 $487 $212 $342 forward $129 $-1 #
coedge $-1 $214 $216 $211 $340 reversed $53 $-1 #
edge $489 $348 5 $490 11.58312395177700083 $211 $491 forward 7 unknown #
coedge $-1 $213 $212 $492 $493 forward $81 $-1 #
edge $494 $495 1.107148717794090409 $348 2.034443935795702707 $338 $496 forward 7 unknown #
coedge $-1 $497 $498 $213 $344 reversed $499 $-1 #
edge $500 $501 -1.932163450701604557 $347 -1.209429202888188781 $213 $502 forward 7 unknown #
coedge $-1 $219 $214 $498 $503 reversed $53 $-1 #
ptlist-eye-attrib $-1 $-1 $-1 $215 #
vertex $-1 $503 $504 #
vertex $-1 $340 $505 #
ellipse-curve $-1 0 0 -5 -0 -0 -1 0 14.14213562373095101 0 1 I I #
edge $506 $490 -0.5426391022496527272 $354 3.684231755839445732 $336 $507 forward 7 unknown #
coedge $-1 $508 $217 $223 $366 reversed $335 $-1 #
coedge $-1 $217 $508 $485 $509 reversed $335 $-1 #
ptlist-eye-attrib $-1 $-1 $-1 $218 #
vertex $-1 $509 $510 #
straight-curve $-1 10 5 -5 0 1 0 I I #
coedge $-1 $511 $512 $219 $357 forward $513 $-1 #
edge $514 $362 -16.25 $515 -11.25 $356 $516 forward 7 unknown #
coedge $-1 $517 $220 $512 $518 reversed $360 $-1 #
coedge $-1 $220 $517 $222 $365 forward $360 $-1 #
loop $-1 $-1 $220 $519 #
ptlist-eye-attrib $-1 $-1 $-1 $221 #
vertex $-1 $221 $520 #
straight-curve $-1 0 -1.25 -5 0 -1 0 I I #
coedge $-1 $223 $222 $521 $522 forward $224 $-1 #
edge $523 $524 -5 $227 5 $222 $525 forward 7 unknown #
edge $526 $527 -5 $226 5 $351 $528 forward 7 unknown #
face $529 $530 $224 $22 $-1 $531 reversed single #
point $-1 10 0 -5 #
point $-1 0 0 -5 #
fmesh-eye-attrib $-1 $-1 $-1 $230 #
face $532 $390 $381 $17 $-1 $533 reversed single #
plane-surface $-1 60 0 0 1 0 0 0 0 -1 forward_v I I I I #
coedge $-1 $402 $235 $232 $374 reversed $242 $-1 #
edge $534 $408 -10.25 $377 -5.25 $232 $535 forward 7 unknown #
edge $536 $253 -5 $377 5 $251 $537 forward 7 unknown #
ptlist-eye-attrib $-1 $-1 $-1 $236 #
vertex $-1 $374 $538 #
straight-curve $-1 51.25 -13 -5 -1 0 0 I I #
edge $539 $383 -18 $386 13 $237 $540 forward 7 unknown #
coedge $-1 $396 $238 $241 $389 forward $381 $-1 #
loop $-1 $-1 $380 $371 #
ptlist-eye-attrib $-1 $-1 $-1 $239 #
vertex $-1 $239 $541 #
straight-curve $-1 65 18 0 0 0 -1 I I #
ptlist-eye-attrib $-1 $-1 $-1 $240 #
vertex $-1 $240 $542 #
straight-curve $-1 65 -13 0 -0 -0 -1 I I #
coedge $-1 $241 $402 $399 $543 reversed $242 $-1 #
edge $544 $245 -18.75 $545 -13.75 $380 $546 forward 7 unknown #
face $547 $-1 $242 $17 $-1 $27 reversed single #
point $-1 65 -13 -5 #
point $-1 65 18 -5 #
ptlist-eye-attrib $-1 $-1 $-1 $249 #
straight-curve $-1 51.25 -13 5 1 0 -0 I I #
point $-1 80 -13 5 #
coedge $-1 $255 $380 $257 $400 reversed $381 $-1 #
ptlist-eye-attrib $-1 $-1 $-1 $256 #
straight-curve $-1 46.25 18 5 1 0 -0 I I #
coedge $-1 $258 $257 $388 $543 forward $259 $-1 #
edge $548 $261 -5 $545 5 $396 $549 forward 7 unknown #
point $-1 60 18 5 #
coedge $-1 $388 $373 $263 $403 reversed $242 $-1 #
edge $550 $405 13.75 $408 33.75 $263 $551 forward 7 unknown #
ptlist-eye-attrib $-1 $-1 $-1 $264 #
vertex $-1 $403 $552 #
straight-curve $-1 60 -18 0 0 0 -1 I I #
ptlist-eye-attrib $-1 $-1 $-1 $265 #
vertex $-1 $403 $553 #
straight-curve $-1 80 -18 0 0 0 -1 I I #
coedge $-1 $271 $282 $276 $416 reversed $269 $-1 #
coedge $-1 $282 $271 $270 $412 reversed $269 $-1 #
edge $554 $287 -0.5426391022496527272 $274 3.684231755839445732 $270 $555 forward 7 unknown #
ptlist-eye-attrib $-1 $-1 $-1 $272 #
straight-curve $-1 55 0 5 0 -1 0 I I #
point $-1 55 16.58312395177700083 5 #
edge $556 $278 2.356194490192344837 $285 7.068583470577034511 $276 $557 forward 7 unknown #
point $-1 55 10 5 #
ptlist-eye-attrib $-1 $-1 $-1 $283 #
straight-curve $-1 55 0 5 0 -1 0 I I #
point $-1 55 -10 5 #
point $-1 55 -16.58312395177700083 5 #
fmesh-eye-attrib $-1 $-1 $-1 $289 #
face $558 $559 $303 $14 $-1 $560 reversed single #
loop $-1 $-1 $561 $289 #
plane-surface $-1 -17.5 -25 0 0 0 1 1 0 0 forward_v I I I I #
loop $-1 $-1 $562 $183 #
coedge $-1 $427 $427 $563 $564 forward $290 $-1 #
coedge $-1 $428 $428 $565 $566 reversed $292 $-1 #
coedge $-1 $429 $429 $293 $430 forward $567 $-1 #
edge $568 $569 -3.141592653589793116 $569 3.141592653589793116 $429 $570 forward 7 unknown #
coedge $-1 $431 $431 $294 $432 forward $571 $-1 #
edge $572 $573 -3.141592653589793116 $573 3.141592653589793116 $431 $574 forward 7 unknown #
loop $-1 $575 $295 $559 #
ptlist-eye-attrib $-1 $-1 $-1 $296 #
vertex $-1 $296 $576 #
ellipse-curve $-1 0 0 -35 0 0 1 5 0 0 1 I I #
loop $-1 $577 $297 $578 #
ptlist-eye-attrib $-1 $-1 $-1 $298 #
vertex $-1 $298 $579 #
ellipse-curve $-1 0 0 -25 0 0 1 5 0 0 1 I I #
loop $-1 $-1 $580 $442 #
face $581 $308 $299 $14 $-1 $582 forward single #
point $-1 -5 6.123233995736766282e-16 -30 #
loop $-1 $-1 $563 $423 #
point $-1 -5 -6.123233995736766282e-16 -5 #
coedge $-1 $446 $446 $583 $584 reversed $307 $-1 #
fmesh-eye-attrib $-1 $-1 $-1 $308 #
face $585 $586 $587 $14 $-1 $291 forward single #
plane-surface $-1 -17.5 -25 -10 0 0 1 1 0 0 forward_v I I I I #
coedge $-1 $450 $450 $310 $451 forward $454 $-1 #
edge $588 $589 -3.141592653589793116 $589 3.141592653589793116 $450 $590 forward 7 unknown #
fmesh-eye-attrib $-1 $-1 $-1 $312 #
face $591 $-1 $571 $14 $-1 $592 forward single #
loop $-1 $593 $450 $312 #
fmesh-eye-attrib $-1 $-1 $-1 $315 #
face $594 $-1 $328 $34 $-1 $27 reversed single #
loop $-1 $-1 $472 $315 #
plane-surface $-1 17.5 -18 0 0 1 0 0 0 1 forward_v I I I I #
coedge $-1 $465 $595 $467 $596 forward $316 $-1 #
coedge $-1 $597 $318 $598 $599 reversed $201 $-1 #
coedge $-1 $318 $597 $323 $471 reversed $201 $-1 #
coedge $-1 $324 $600 $318 $463 forward $457 $-1 #
edge $601 $602 3.75 $474 8.75 $462 $603 forward 7 unknown #
coedge $-1 $320 $319 $597 $604 forward $124 $-1 #
coedge $-1 $598 $459 $320 $466 reversed $316 $-1 #
edge $605 $606 -5 $469 5 $465 $607 forward 7 unknown #
coedge $-1 $327 $321 $459 $596 reversed $328 $-1 #
ptlist-eye-attrib $-1 $-1 $-1 $322 #
vertex $-1 $322 $608 #
straight-curve $-1 23.75 18 -5 -1 0 0 I I #
edge $609 $474 -18 $477 18 $323 $610 forward 7 unknown #
coedge $-1 $600 $324 $327 $479 forward $457 $-1 #
ptlist-eye-attrib $-1 $-1 $-1 $325 #
vertex $-1 $325 $611 #
straight-curve $-1 15 -18 0 0 0 -1 I I #
ptlist-eye-attrib $-1 $-1 $-1 $326 #
vertex $-1 $326 $612 #
straight-curve $-1 15 18 0 0 0 -1 I I #
edge $613 $331 -8.75 $614 -3.75 $472 $615 forward 7 unknown #
point $-1 15 18 -5 #
point $-1 15 -18 -5 #
fmesh-eye-attrib $-1 $-1 $-1 $334 #
face $616 $367 $499 $22 $-1 $617 reversed single #
loop $-1 $-1 $618 $334 #
coedge $-1 $619 $336 $352 $509 forward $209 $-1 #
coedge $-1 $336 $619 $337 $488 forward $209 $-1 #
coedge $-1 $338 $337 $620 $621 forward $129 $-1 #
edge $622 $623 -1.863639098523472093 $490 -1.277953555066321245 $486 $624 forward 7 unknown #
ptlist-eye-attrib $-1 $-1 $-1 $340 #
vertex $-1 $350 $625 #
straight-curve $-1 10 5 -5 0 1 0 I I #
coedge $-1 $620 $626 $341 $493 reversed $484 $-1 #
edge $627 $495 2.356194490192344837 $501 6.644552431086293787 $341 $628 forward 7 unknown #
ptlist-eye-attrib $-1 $-1 $-1 $342 #
vertex $-1 $342 $629 #
ellipse-curve $-1 10 0 0 -1 -0 -0 0 0 11.18033988749894903 1 I I #
coedge $-1 $630 $343 $626 $631 forward $499 $-1 #
coedge $-1 $343 $630 $345 $503 forward $499 $-1 #
loop $-1 $-1 $498 $483 #
ptlist-eye-attrib $-1 $-1 $-1 $344 #
vertex $-1 $344 $632 #
ellipse-curve $-1 5 0 0 1 0 0 0 0 -14.14213562373095101 1 I I #
edge $633 $515 1.25 $347 9.478756555322954469 $498 $634 forward 7 unknown #
point $-1 5 -13.22875655532295447 -5 #
point $-1 10 10 -5 #
ptlist-eye-attrib $-1 $-1 $-1 $350 #
ellipse-curve $-1 0 0 -5 0 0 1 0 19.36491673103708422 0 1 I I #
coedge $-1 $352 $351 $635 $636 forward $335 $-1 #
edge $637 $354 1.277953555066321245 $638 1.863639098523472093 $485 $624 forward 7 unknown #
point $-1 10 -16.58312395177700083 -5 #
coedge $-1 $639 $356 $630 $640 reversed $513 $-1 #
coedge $-1 $356 $639 $358 $518 forward $513 $-1 #
loop $-1 $-1 $356 $530 #
ptlist-eye-attrib $-1 $-1 $-1 $357 #
vertex $-1 $357 $641 #
straight-curve $-1 16.25 -5 -5 1 0 0 I I #
coedge $-1 $359 $358 $642 $643 forward $360 $-1 #
edge $644 $645 -5 $362 5 $358 $646 forward 7 unknown #
face $647 $-1 $360 $22 $-1 $648 reversed single #
point $-1 0 -5 -5 #
coedge $-1 $642 $635 $364 $522 reversed $484 $-1 #
edge $649 $524 -18.75 $527 -8.75 $364 $650 forward 7 unknown #
ptlist-eye-attrib $-1 $-1 $-1 $365 #
vertex $-1 $365 $651 #
straight-curve $-1 0 0 0 0 0 -1 I I #
ptlist-eye-attrib $-1 $-1 $-1 $366 #
vertex $-1 $366 $652 #
straight-curve $-1 10 0 0 0 0 -1 I I #
fmesh-eye-attrib $-1 $-1 $-1 $367 #
face $653 $519 $513 $22 $-1 $654 reversed single #
plane-surface $-1 7.5 0 0 0 -1 0 0 0 -1 forward_v I I I I #
fmesh-eye-attrib $-1 $-1 $-1 $371 #
plane-surface $-1 62.5 18 0 0 -1 0 0 0 -1 forward_v I I I I #
ptlist-eye-attrib $-1 $-1 $-1 $374 #
straight-curve $-1 80 -7.75 -5 0 1 -0 I I #
ptlist-eye-attrib $-1 $-1 $-1 $375 #
straight-curve $-1 80 -13 0 0 0 -1 I I #
point $-1 80 -13 -5 #
ptlist-eye-attrib $-1 $-1 $-1 $379 #
straight-curve $-1 65 0 5 0 -1 0 I I #
point $-1 65 18 5 #
point $-1 65 -13 5 #
edge $655 $545 -18 $405 18 $399 $656 forward 7 unknown #
ptlist-eye-attrib $-1 $-1 $-1 $389 #
vertex $-1 $543 $657 #
straight-curve $-1 46.25 18 -5 -1 0 0 I I #
fmesh-eye-attrib $-1 $-1 $-1 $390 #
ptlist-eye-attrib $-1 $-1 $-1 $400 #
straight-curve $-1 60 18 0 0 0 -1 I I #
ptlist-eye-attrib $-1 $-1 $-1 $403 #
straight-curve $-1 46.25 -18 -5 1 0 0 I I #
point $-1 60 -18 -5 #
point $-1 80 -18 -5 #
ptlist-eye-attrib $-1 $-1 $-1 $412 #
ellipse-curve $-1 45 0 5 -0 -0 -1 0 -19.36491673103708422 0 1 I I #
ptlist-eye-attrib $-1 $-1 $-1 $416 #
ellipse-curve $-1 45 0 5 0 0 1 0 -14.14213562373095101 0 1 I I #
fmesh-eye-attrib $-1 $-1 $-1 $423 #
face $658 $659 $433 $14 $-1 $660 reversed single #
plane-surface $-1 -17.5 -25 -5 0 0 1 1 0 0 forward_v I I I I #
coedge $-1 $561 $561 $562 $661 reversed $424 $-1 #
coedge $-1 $562 $562 $561 $661 forward $426 $-1 #
coedge $-1 $563 $563 $427 $564 reversed $444 $-1 #
edge $662 $663 -3.141592653589793116 $663 3.141592653589793116 $427 $664 forward 7 unknown #
coedge $-1 $565 $565 $428 $566 forward $665 $-1 #
edge $666 $667 -3.141592653589793116 $667 3.141592653589793116 $565 $668 forward 7 unknown #
loop $-1 $669 $429 $586 #
ptlist-eye-attrib $-1 $-1 $-1 $430 #
vertex $-1 $430 $670 #
ellipse-curve $-1 0 0 -15 0 0 1 5 0 0 1 I I #
loop $-1 $671 $431 $453 #
ptlist-eye-attrib $-1 $-1 $-1 $432 #
vertex $-1 $432 $672 #
ellipse-curve $-1 0 0 -40 -0 -0 -1 5 0 0 1 I I #
loop $-1 $-1 $673 $559 #
point $-1 -5 -6.123233995736766282e-16 -35 #
loop $-1 $-1 $674 $578 #
face $675 $676 $437 $14 $-1 $677 reversed single #
point $-1 -5 -6.123233995736766282e-16 -25 #
coedge $-1 $580 $580 $678 $679 reversed $441 $-1 #
fmesh-eye-attrib $-1 $-1 $-1 $442 #
plane-surface $-1 -17.5 -25 -30 0 0 1 1 0 0 forward_v I I I I #
coedge $-1 $583 $583 $446 $584 forward $680 $-1 #
edge $681 $682 -3.141592653589793116 $682 3.141592653589793116 $583 $683 forward 7 unknown #
fmesh-eye-attrib $-1 $-1 $-1 $448 #
face $684 $578 $567 $14 $-1 $685 reversed single #
loop $-1 $680 $686 $448 #
ptlist-eye-attrib $-1 $-1 $-1 $451 #
vertex $-1 $451 $687 #
ellipse-curve $-1 0 0 -45 0 0 1 0 21.79449471770336899 0 1 I I #
fmesh-eye-attrib $-1 $-1 $-1 $453 #
plane-surface $-1 -17.5 -25 -40 0 0 1 1 0 0 forward_v I I I I #
loop $-1 $-1 $688 $312 #
fmesh-eye-attrib $-1 $-1 $-1 $456 #
coedge $-1 $459 $598 $600 $689 forward $316 $-1 #
edge $690 $614 -18 $469 18 $459 $691 forward 7 unknown #
coedge $-1 $461 $460 $464 $604 reversed $201 $-1 #
coedge $-1 $595 $465 $460 $599 forward $316 $-1 #
edge $692 $606 -18 $602 18 $598 $693 forward 7 unknown #
coedge $-1 $462 $472 $595 $689 reversed $457 $-1 #
ptlist-eye-attrib $-1 $-1 $-1 $463 #
vertex $-1 $689 $694 #
straight-curve $-1 23.75 -18 5 -1 0 0 I I #
edge $695 $477 -8.75 $606 -3.75 $464 $696 forward 7 unknown #
ptlist-eye-attrib $-1 $-1 $-1 $466 #
vertex $-1 $466 $697 #
straight-curve $-1 20 18 0 0 0 -1 I I #
point $-1 20 18 -5 #
ptlist-eye-attrib $-1 $-1 $-1 $471 #
straight-curve $-1 15 0 5 0 1 0 I I #
point $-1 15 -18 5 #
point $-1 15 18 5 #
ptlist-eye-attrib $-1 $-1 $-1 $479 #
vertex $-1 $596 $698 #
straight-curve $-1 23.75 -18 -5 1 0 0 I I #
fmesh-eye-attrib $-1 $-1 $-1 $483 #
plane-surface $-1 5 -7.5 0 1 0 0 0 0 -1 forward_v I I I I #
coedge $-1 $626 $642 $639 $699 reversed $484 $-1 #
coedge $-1 $486 $485 $700 $701 forward $209 $-1 #
coedge $-1 $700 $492 $487 $621 reversed $484 $-1 #
edge $702 $623 -11.58312395177700083 $495 -5 $487 $703 forward 7 unknown #
ptlist-eye-attrib $-1 $-1 $-1 $488 #
vertex $-1 $488 $704 #
ellipse-curve $-1 10 0 0 -1 -0 -0 0 0 -17.3205080756887746 1 I I #
point $-1 10 16.58312395177700083 -5 #
coedge $-1 $492 $618 $497 $631 reversed $484 $-1 #
ptlist-eye-attrib $-1 $-1 $-1 $493 #
ellipse-curve $-1 0 0 5 0 0 1 0 -14.14213562373095101 0 1 I I #
point $-1 10 10 5 #
coedge $-1 $498 $497 $511 $640 forward $499 $-1 #
edge $705 $501 -9.478756555322954469 $706 -1.25 $497 $707 forward 7 unknown #
point $-1 5 -13.22875655532295447 5 #
ptlist-eye-attrib $-1 $-1 $-1 $503 #
straight-curve $-1 5 -3.75 -5 0 -1 0 I I #
coedge $-1 $521 $700 $508 $636 reversed $484 $-1 #
edge $708 $527 5 $638 21.58312395177700083 $508 $709 forward 7 unknown #
ptlist-eye-attrib $-1 $-1 $-1 $509 #
vertex $-1 $636 $710 #
coedge $-1 $512 $511 $618 $699 forward $513 $-1 #
edge $711 $706 -5 $515 5 $630 $712 forward 7 unknown #
point $-1 5 -5 -5 #
coedge $-1 $618 $521 $517 $643 reversed $484 $-1 #
edge $713 $645 -3.75 $524 1.25 $517 $714 forward 7 unknown #
ptlist-eye-attrib $-1 $-1 $-1 $518 #
vertex $-1 $518 $715 #
straight-curve $-1 0 -5 0 0 0 -1 I I #
fmesh-eye-attrib $-1 $-1 $-1 $519 #
plane-surface $-1 0 -2.5 0 1 0 0 0 0 -1 forward_v I I I I #
ptlist-eye-attrib $-1 $-1 $-1 $522 #
straight-curve $-1 18.75 0 5 1 0 -0 I I #
point $-1 0 0 5 #
point $-1 10 0 5 #
fmesh-eye-attrib $-1 $-1 $-1 $530 #
plane-surface $-1 2.5 -5 0 0 1 0 0 0 1 forward_v I I I I #
ptlist-eye-attrib $-1 $-1 $-1 $543 #
straight-curve $-1 60 0 -5 0 -1 0 I I #
point $-1 60 18 -5 #
fmesh-eye-attrib $-1 $-1 $-1 $559 #
face $716 $442 $717 $14 $-1 $291 forward single #
plane-surface $-1 -17.5 -25 -35 0 0 1 1 0 0 forward_v I I I I #
edge $718 $719 -3.141592653589793116 $719 3.141592653589793116 $562 $720 forward 7 unknown #
ptlist-eye-attrib $-1 $-1 $-1 $564 #
vertex $-1 $564 $721 #
ellipse-curve $-1 0 0 -5 0 0 1 0 49.74937185533099893 0 1 I I #
loop $-1 $722 $565 $723 #
ptlist-eye-attrib $-1 $-1 $-1 $566 #
vertex $-1 $566 $724 #
ellipse-curve $-1 0 0 -20 -0 -0 -1 5 0 0 1 I I #
loop $-1 $-1 $725 $586 #
point $-1 -5 -6.123233995736766282e-16 -15 #
loop $-1 $-1 $726 $453 #
point $-1 -5 6.123233995736766282e-16 -40 #
coedge $-1 $673 $673 $727 $728 reversed $575 $-1 #
coedge $-1 $674 $674 $729 $730 reversed $577 $-1 #
fmesh-eye-attrib $-1 $-1 $-1 $578 #
face $731 $723 $732 $14 $-1 $291 forward single #
plane-surface $-1 -17.5 -25 -25 0 0 1 1 0 0 forward_v I I I I #
coedge $-1 $678 $678 $580 $679 forward $733 $-1 #
edge $734 $735 -3.141592653589793116 $735 3.141592653589793116 $678 $736 forward 7 unknown #
loop $-1 $-1 $583 $448 #
ptlist-eye-attrib $-1 $-1 $-1 $584 #
vertex $-1 $584 $737 #
ellipse-curve $-1 0 0 -10 -0 -0 -1 0 -48.98979485566356118 0 1 I I #
fmesh-eye-attrib $-1 $-1 $-1 $586 #
plane-surface $-1 -17.5 -25 -15 0 0 1 1 0 0 forward_v I I I I #
coedge $-1 $686 $686 $725 $738 forward $587 $-1 #
point $-1 2.669055819506932737e-15 -21.79449471770336899 -45 #
coedge $-1 $688 $688 $726 $739 forward $593 $-1 #
edge $740 $602 -5 $614 5 $595 $741 forward 7 unknown #
ptlist-eye-attrib $-1 $-1 $-1 $596 #
straight-curve $-1 20 0 -5 0 1 -0 I I #
ptlist-eye-attrib $-1 $-1 $-1 $599 #
straight-curve $-1 20 0 5 0 -1 0 I I #
point $-1 20 -18 5 #
ptlist-eye-attrib $-1 $-1 $-1 $604 #
straight-curve $-1 23.75 18 5 1 0 -0 I I #
point $-1 20 18 5 #
point $-1 20 -18 -5 #
edge $742 $706 11.25 $645 16.25 $639 $743 forward 7 unknown #
coedge $-1 $635 $620 $619 $701 reversed $484 $-1 #
edge $744 $638 -0.5426391022496527272 $623 3.684231755839445732 $619 $745 forward 7 unknown #
ptlist-eye-attrib $-1 $-1 $-1 $621 #
straight-curve $-1 10 5 5 0 -1 0 I I #
point $-1 10 16.58312395177700083 5 #
ptlist-eye-attrib $-1 $-1 $-1 $631 #
vertex $-1 $640 $746 #
straight-curve $-1 5 -3.75 5 0 1 0 I I #
ptlist-eye-attrib $-1 $-1 $-1 $636 #
straight-curve $-1 10 5 5 0 -1 0 I I #
point $-1 10 -16.58312395177700083 5 #
ptlist-eye-attrib $-1 $-1 $-1 $640 #
straight-curve $-1 5 -5 0 0 0 -1 I I #
ptlist-eye-attrib $-1 $-1 $-1 $643 #
straight-curve $-1 0 -1.25 5 0 1 0 I I #
point $-1 0 -5 5 #
fmesh-eye-attrib $-1 $-1 $-1 $659 #
loop $-1 $733 $727 $659 #
ptlist-eye-attrib $-1 $-1 $-1 $661 #
vertex $-1 $661 $747 #
ellipse-curve $-1 0 0 0 -0 -0 -1 0 -50 0 1 I I #
point $-1 6.092540900222252912e-15 -49.74937185533099893 -5 #
loop $-1 $-1 $748 $723 #
face $749 $197 $665 $14 $-1 $750 forward single #
point $-1 -5 6.123233995736766282e-16 -20 #
coedge $-1 $725 $725 $686 $738 reversed $669 $-1 #
coedge $-1 $726 $726 $688 $739 reversed $671 $-1 #
coedge $-1 $727 $727 $673 $728 forward $717 $-1 #
edge $751 $752 -3.141592653589793116 $752 3.141592653589793116 $727 $753 forward 7 unknown #
coedge $-1 $729 $729 $674 $730 forward $732 $-1 #
edge $754 $755 -3.141592653589793116 $755 3.141592653589793116 $729 $756 forward 7 unknown #
fmesh-eye-attrib $-1 $-1 $-1 $676 #
loop $-1 $757 $729 $676 #
loop $-1 $-1 $678 $659 #
ptlist-eye-attrib $-1 $-1 $-1 $679 #
vertex $-1 $679 $758 #
ellipse-curve $-1 0 0 -30 -0 -0 -1 0 -40 0 1 I I #
point $-1 5.999519546087384998e-15 48.98979485566356118 -10 #
edge $759 $760 -3.141592653589793116 $760 3.141592653589793116 $686 $761 forward 7 unknown #
edge $762 $763 -3.141592653589793116 $763 3.141592653589793116 $688 $764 forward 7 unknown #
ptlist-eye-attrib $-1 $-1 $-1 $689 #
straight-curve $-1 20 -18 0 0 0 -1 I I #
ptlist-eye-attrib $-1 $-1 $-1 $699 #
straight-curve $-1 16.25 -5 5 -1 0 0 I I #
ptlist-eye-attrib $-1 $-1 $-1 $701 #
ellipse-curve $-1 0 0 5 -0 -0 -1 0 -19.36491673103708422 0 1 I I #
point $-1 5 -5 5 #
point $-1 6.123233995736766085e-15 50 0 #
coedge $-1 $748 $748 $765 $766 reversed $722 $-1 #
fmesh-eye-attrib $-1 $-1 $-1 $723 #
plane-surface $-1 -17.5 -25 -20 0 0 1 1 0 0 forward_v I I I I #
ptlist-eye-attrib $-1 $-1 $-1 $728 #
vertex $-1 $728 $767 #
ellipse-curve $-1 0 0 -35 0 0 1 0 35.7071421427142468 0 1 I I #
ptlist-eye-attrib $-1 $-1 $-1 $730 #
vertex $-1 $730 $768 #
ellipse-curve $-1 0 0 -25 0 0 1 0 43.30127018922193116 0 1 I I #
loop $-1 $-1 $765 $676 #
point $-1 4.898587196589413026e-15 40 -30 #
ptlist-eye-attrib $-1 $-1 $-1 $738 #
vertex $-1 $738 $769 #
ellipse-curve $-1 0 0 -15 0 0 1 0 47.69696007084728251 0 1 I I #
ptlist-eye-attrib $-1 $-1 $-1 $739 #
vertex $-1 $739 $770 #
ellipse-curve $-1 0 0 -40 -0 -0 -1 0 -30 0 1 I I #
coedge $-1 $765 $765 $748 $766 forward $757 $-1 #
edge $771 $772 -3.141592653589793116 $772 3.141592653589793116 $765 $773 forward 7 unknown #
point $-1 4.372863733177456728e-15 -35.7071421427142468 -35 #
point $-1 5.302876193624534032e-15 -43.30127018922193116 -25 #
point $-1 5.841192947982223989e-15 -47.69696007084728251 -15 #
point $-1 3.673940397442059967e-15 30 -40 #
ptlist-eye-attrib $-1 $-1 $-1 $766 #
vertex $-1 $766 $774 #
ellipse-curve $-1 0 0 -20 -0 -0 -1 0 -45.82575694955839651 0 1 I I #
point $-1 5.612036656678126633e-15 45.82575694955839651 -20 #
End-of-ACIS-data 