600 0 3 0           
86 GICL ACIS Healer - Source: /gicl/data5/repository/giclLogo/giclShortSliceCyl.sat - 6 0 18 ACIS 6.0.3 Solaris 24 Sat Apr 13 00:28:17 2002 
1 9.999999999999999547e-07 1.000000000000000036e-10 
body $3 $4 $-1 $5 #
body $6 $7 $-1 $-1 #
body $8 $9 $-1 $-1 #
rgb_color-st-attrib $-1 $-1 $-1 $0 0 0 1 #
lump $-1 $10 $11 $0 #
transform $-1 1 0 0 0 1 0 0 0 1 0 0 0 1 no_rotate no_reflect no_shear #
rgb_color-st-attrib $-1 $-1 $-1 $1 1 1 0 #
lump $-1 $-1 $12 $1 #
rgb_color-st-attrib $-1 $-1 $-1 $2 0 0 1 #
lump $-1 $-1 $13 $2 #
lump $-1 $14 $15 $0 #
shell $-1 $-1 $-1 $16 $-1 $4 #
shell $-1 $-1 $-1 $17 $-1 $7 #
shell $-1 $-1 $-1 $18 $-1 $9 #
lump $-1 $19 $20 $0 #
shell $-1 $-1 $-1 $21 $-1 $10 #
face $22 $23 $24 $11 $-1 $25 reversed single #
face $26 $27 $28 $12 $-1 $29 forward single #
face $30 $-1 $-1 $13 $-1 $31 forward single #
lump $-1 $-1 $32 $0 #
shell $-1 $-1 $-1 $33 $-1 $14 #
face $34 $35 $36 $15 $-1 $37 forward single #
fmesh-eye-attrib $-1 $-1 $-1 $16 #
face $38 $39 $40 $11 $-1 $41 forward single #
loop $-1 $-1 $42 $16 #
plane-surface $-1 30 0 -5 0 0 1 1 0 0 forward_v I I I I #
fmesh-eye-attrib $-1 $-1 $-1 $17 #
face $43 $44 $45 $12 $-1 $46 forward single #
loop $-1 $-1 $47 $17 #
sphere-surface $-1 17.5 25 -55 5 1 0 0 0 0 1 forward_v I I I I #
fmesh-eye-attrib $-1 $-1 $-1 $18 #
sphere-surface $-1 17.5 25 -10 5 1 0 0 0 0 1 forward_v I I I I #
shell $-1 $-1 $-1 $48 $-1 $19 #
face $49 $50 $51 $20 $-1 $25 reversed single #
fmesh-eye-attrib $-1 $-1 $-1 $21 #
face $52 $53 $54 $15 $-1 $55 reversed single #
loop $-1 $-1 $56 $21 #
plane-surface $-1 30 0 5 0 0 1 1 0 0 forward_v I I I I #
fmesh-eye-attrib $-1 $-1 $-1 $23 #
face $57 $58 $59 $11 $-1 $60 forward single #
loop $-1 $-1 $61 $23 #
plane-surface $-1 55 0 0 1 0 0 0 0 -1 forward_v I I I I #
coedge $-1 $62 $63 $64 $65 reversed $24 $-1 #
fmesh-eye-attrib $-1 $-1 $-1 $27 #
face $66 $67 $68 $12 $-1 $46 forward single #
loop $-1 $69 $70 $27 #
cone-surface $-1 17.5 25 -32.5 0 0 -1 5 0 0 1 I I 0 1 5 forward I I I I #
coedge $-1 $47 $47 $71 $72 reversed $28 $-1 #
face $73 $74 $75 $32 $-1 $76 reversed single #
fmesh-eye-attrib $-1 $-1 $-1 $33 #
face $77 $78 $79 $20 $-1 $80 reversed single #
loop $-1 $-1 $81 $33 #
fmesh-eye-attrib $-1 $-1 $-1 $35 #
face $82 $83 $84 $15 $-1 $85 reversed single #
loop $-1 $-1 $86 $35 #
plane-surface $-1 65 0 0 -1 0 0 0 0 1 forward_v I I I I #
coedge $-1 $87 $88 $89 $90 reversed $36 $-1 #
fmesh-eye-attrib $-1 $-1 $-1 $39 #
face $91 $92 $93 $11 $-1 $41 forward single #
loop $-1 $-1 $94 $39 #
sphere-surface $-1 45 0 0 20 1 0 0 0 0 1 forward_v I I I I #
coedge $-1 $95 $96 $97 $98 forward $40 $-1 #
coedge $-1 $97 $42 $94 $99 reversed $24 $-1 #
coedge $-1 $42 $97 $100 $101 reversed $24 $-1 #
coedge $-1 $102 $103 $42 $65 forward $93 $-1 #
edge $104 $105 -16.58312395177700083 $106 -10 $64 $107 forward 7 unknown #
fmesh-eye-attrib $-1 $-1 $-1 $44 #
face $108 $109 $110 $12 $-1 $46 forward single #
loop $-1 $111 $112 $44 #
loop $-1 $-1 $113 $27 #
coedge $-1 $70 $70 $114 $115 reversed $45 $-1 #
coedge $-1 $71 $71 $47 $72 forward $116 $-1 #
edge $-1 $117 -3.141592653589793116 $117 3.141592653589793116 $71 $118 forward 7 unknown #
fmesh-eye-attrib $-1 $-1 $-1 $48 #
face $119 $120 $121 $32 $-1 $122 reversed single #
loop $-1 $-1 $123 $48 #
plane-surface $-1 15 0 0 1 0 0 0 0 -1 forward_v I I I I #
fmesh-eye-attrib $-1 $-1 $-1 $50 #
face $124 $125 $126 $20 $-1 $127 forward single #
loop $-1 $-1 $128 $50 #
sphere-surface $-1 0 0 0 15 1 0 0 0 0 1 forward_v I I I I #
coedge $-1 $129 $130 $131 $132 reversed $51 $-1 #
fmesh-eye-attrib $-1 $-1 $-1 $53 #
face $133 $134 $135 $15 $-1 $136 reversed single #
loop $-1 $-1 $137 $53 #
plane-surface $-1 72.5 -13 0 0 -1 0 0 0 -1 forward_v I I I I #
coedge $-1 $138 $139 $140 $141 forward $54 $-1 #
coedge $-1 $142 $56 $143 $144 reversed $36 $-1 #
coedge $-1 $56 $145 $146 $147 reversed $36 $-1 #
coedge $-1 $148 $149 $56 $90 forward $150 $-1 #
edge $151 $152 -33.75 $153 -13.75 $89 $154 forward 7 unknown #
fmesh-eye-attrib $-1 $-1 $-1 $58 #
face $155 $156 $157 $11 $-1 $158 reversed single #
loop $-1 $-1 $64 $58 #
coedge $-1 $159 $160 $62 $99 forward $59 $-1 #
coedge $-1 $161 $61 $160 $162 reversed $40 $-1 #
coedge $-1 $61 $161 $163 $164 forward $40 $-1 #
coedge $-1 $63 $62 $61 $98 reversed $24 $-1 #
edge $165 $166 10 $167 16.58312395177700083 $61 $168 forward 7 unknown #
edge $169 $167 -0.5426391022496527272 $105 3.684231755839445732 $94 $170 forward 7 unknown #
coedge $-1 $163 $171 $63 $101 forward $157 $-1 #
edge $172 $106 2.356194490192344837 $166 7.068583470577034511 $100 $173 forward 7 unknown #
coedge $-1 $174 $64 $171 $175 forward $93 $-1 #
coedge $-1 $64 $174 $159 $176 reversed $93 $-1 #
ptlist-eye-attrib $-1 $-1 $-1 $65 #
vertex $-1 $176 $177 #
vertex $-1 $175 $178 #
straight-curve $-1 55 0 -5 0 1 0 I I #
fmesh-eye-attrib $-1 $-1 $-1 $67 #
face $179 $180 $181 $12 $-1 $46 forward single #
loop $-1 $182 $183 $67 #
loop $-1 $-1 $184 $44 #
coedge $-1 $112 $112 $185 $186 reversed $68 $-1 #
coedge $-1 $113 $113 $187 $188 reversed $69 $-1 #
coedge $-1 $114 $114 $70 $115 forward $189 $-1 #
edge $-1 $190 -3.141592653589793116 $190 3.141592653589793116 $114 $191 forward 7 unknown #
loop $-1 $192 $71 $193 #
vertex $-1 $72 $194 #
ellipse-curve $-1 17.5 25 -55 0 0 1 0 -5 0 1 I I #
fmesh-eye-attrib $-1 $-1 $-1 $74 #
face $195 $196 $197 $32 $-1 $37 forward single #
loop $-1 $-1 $198 $74 #
plane-surface $-1 17.5 18 0 0 -1 0 0 0 -1 forward_v I I I I #
coedge $-1 $199 $200 $201 $202 forward $75 $-1 #
fmesh-eye-attrib $-1 $-1 $-1 $78 #
face $203 $204 $205 $20 $-1 $206 forward single #
loop $-1 $-1 $207 $78 #
plane-surface $-1 10 10 10 1 0 0 0 0 -1 forward_v I I I I #
coedge $-1 $208 $209 $210 $211 forward $79 $-1 #
coedge $-1 $212 $81 $213 $214 reversed $51 $-1 #
coedge $-1 $81 $215 $216 $217 reversed $51 $-1 #
coedge $-1 $218 $219 $81 $132 forward $220 $-1 #
edge $221 $222 8.75 $223 18.75 $131 $224 forward 7 unknown #
fmesh-eye-attrib $-1 $-1 $-1 $83 #
face $225 $226 $150 $15 $-1 $227 reversed single #
loop $-1 $-1 $228 $83 #
plane-surface $-1 80 -15.5 0 -1 0 0 0 0 1 forward_v I I I I #
coedge $-1 $229 $230 $231 $232 forward $84 $-1 #
coedge $-1 $233 $86 $234 $235 reversed $54 $-1 #
coedge $-1 $86 $233 $229 $236 forward $54 $-1 #
coedge $-1 $231 $237 $86 $141 reversed $238 $-1 #
edge $239 $240 -13 $241 18 $86 $242 forward 7 unknown #
coedge $-1 $243 $87 $244 $245 reversed $36 $-1 #
coedge $-1 $246 $247 $87 $144 forward $135 $-1 #
edge $248 $249 5.25 $152 10.25 $143 $250 forward 7 unknown #
coedge $-1 $88 $243 $251 $252 reversed $36 $-1 #
coedge $-1 $253 $254 $88 $147 forward $255 $-1 #
edge $256 $153 -18 $257 18 $146 $258 forward 7 unknown #
coedge $-1 $259 $89 $254 $260 forward $150 $-1 #
coedge $-1 $89 $259 $246 $261 reversed $150 $-1 #
loop $-1 $-1 $259 $134 #
ptlist-eye-attrib $-1 $-1 $-1 $90 #
vertex $-1 $261 $262 #
vertex $-1 $260 $263 #
straight-curve $-1 46.25 -18 5 -1 0 0 I I #
fmesh-eye-attrib $-1 $-1 $-1 $92 #
face $264 $-1 $265 $11 $-1 $37 forward single #
loop $-1 $-1 $100 $92 #
sphere-surface $-1 45 0 0 15 1 0 0 0 0 1 forward_v I I I I #
coedge $-1 $266 $94 $103 $176 forward $59 $-1 #
coedge $-1 $94 $266 $95 $162 forward $59 $-1 #
coedge $-1 $96 $95 $267 $268 forward $40 $-1 #
edge $269 $270 -1.863639098523472093 $167 -1.277953555066321245 $160 $271 forward 7 unknown #
coedge $-1 $272 $100 $96 $164 reversed $157 $-1 #
edge $273 $274 1.107148717794090409 $166 2.034443935795702707 $96 $275 forward 7 unknown #
ptlist-eye-attrib $-1 $-1 $-1 $98 #
vertex $-1 $101 $276 #
vertex $-1 $99 $277 #
straight-curve $-1 55 0 -5 0 1 0 I I #
ptlist-eye-attrib $-1 $-1 $-1 $99 #
ellipse-curve $-1 45 0 -5 0 0 1 0 19.36491673103708422 0 1 I I #
coedge $-1 $100 $272 $102 $175 reversed $157 $-1 #
ptlist-eye-attrib $-1 $-1 $-1 $101 #
ellipse-curve $-1 45 0 -5 -0 -0 -1 0 14.14213562373095101 0 1 I I #
coedge $-1 $103 $102 $278 $279 forward $93 $-1 #
edge $280 $106 -2.034443935795702707 $281 -1.107148717794090409 $102 $275 forward 7 unknown #
edge $282 $105 1.277953555066321245 $283 1.863639098523472093 $159 $271 forward 7 unknown #
point $-1 55 -16.58312395177700083 -5 #
point $-1 55 -10 -5 #
fmesh-eye-attrib $-1 $-1 $-1 $109 #
face $284 $285 $286 $12 $-1 $287 forward single #
loop $-1 $288 $289 $109 #
loop $-1 $-1 $290 $67 #
coedge $-1 $183 $183 $291 $292 reversed $110 $-1 #
coedge $-1 $184 $184 $293 $294 reversed $111 $-1 #
coedge $-1 $185 $185 $112 $186 forward $295 $-1 #
edge $-1 $296 -3.141592653589793116 $296 3.141592653589793116 $185 $297 forward 7 unknown #
coedge $-1 $187 $187 $113 $188 forward $298 $-1 #
edge $-1 $299 -3.141592653589793116 $299 3.141592653589793116 $187 $300 forward 7 unknown #
loop $-1 $301 $114 $302 #
vertex $-1 $115 $303 #
ellipse-curve $-1 17.5 25 -20 -0 -0 -1 5 0 0 1 I I #
loop $-1 $-1 $304 $193 #
face $305 $306 $116 $12 $-1 $307 reversed single #
point $-1 17.5 30 -55 #
fmesh-eye-attrib $-1 $-1 $-1 $120 #
face $308 $309 $310 $32 $-1 $311 reversed single #
loop $-1 $-1 $312 $120 #
coedge $-1 $313 $314 $315 $316 forward $121 $-1 #
coedge $-1 $317 $123 $318 $319 reversed $75 $-1 #
coedge $-1 $123 $317 $313 $320 forward $75 $-1 #
coedge $-1 $315 $321 $123 $202 reversed $322 $-1 #
edge $323 $324 -18 $325 18 $123 $326 forward 7 unknown #
fmesh-eye-attrib $-1 $-1 $-1 $125 #
face $327 $328 $329 $20 $-1 $127 forward single #
loop $-1 $-1 $330 $125 #
sphere-surface $-1 0 0 0 20 1 0 0 0 0 1 forward_v I I I I #
coedge $-1 $331 $332 $333 $334 forward $126 $-1 #
coedge $-1 $335 $128 $332 $336 reversed $79 $-1 #
coedge $-1 $128 $335 $337 $338 forward $79 $-1 #
coedge $-1 $339 $333 $128 $211 reversed $51 $-1 #
edge $340 $341 2.780225529683085561 $342 7.068583470577034511 $128 $343 forward 7 unknown #
coedge $-1 $333 $129 $330 $344 reversed $51 $-1 #
coedge $-1 $345 $346 $129 $214 forward $329 $-1 #
edge $347 $348 -21.58312395177700083 $222 -5 $213 $349 forward 7 unknown #
coedge $-1 $130 $339 $350 $351 reversed $51 $-1 #
coedge $-1 $352 $353 $130 $217 forward $354 $-1 #
edge $355 $223 -1.25 $356 3.75 $216 $357 forward 7 unknown #
coedge $-1 $358 $131 $353 $359 reversed $220 $-1 #
coedge $-1 $131 $358 $345 $360 forward $220 $-1 #
loop $-1 $-1 $131 $361 #
ptlist-eye-attrib $-1 $-1 $-1 $132 #
vertex $-1 $132 $362 #
vertex $-1 $132 $363 #
straight-curve $-1 18.75 0 -5 -1 0 0 I I #
fmesh-eye-attrib $-1 $-1 $-1 $134 #
face $364 $365 $255 $15 $-1 $366 reversed single #
plane-surface $-1 62.5 -18 0 0 1 0 0 0 1 forward_v I I I I #
coedge $-1 $247 $246 $367 $368 forward $135 $-1 #
coedge $-1 $244 $137 $139 $236 reversed $84 $-1 #
coedge $-1 $137 $244 $247 $369 forward $84 $-1 #
coedge $-1 $367 $140 $137 $232 reversed $238 $-1 #
edge $370 $371 -28.75 $240 -13.75 $137 $372 forward 7 unknown #
coedge $-1 $139 $138 $243 $373 forward $54 $-1 #
coedge $-1 $374 $251 $138 $235 forward $375 $-1 #
edge $376 $377 -5 $241 5 $138 $378 forward 7 unknown #
edge $379 $380 -5 $240 5 $139 $381 forward 7 unknown #
coedge $-1 $140 $382 $374 $383 reversed $238 $-1 #
loop $-1 $-1 $231 $384 #
ptlist-eye-attrib $-1 $-1 $-1 $141 #
vertex $-1 $232 $385 #
vertex $-1 $383 $386 #
straight-curve $-1 65 0 -5 0 1 -0 I I #
coedge $-1 $145 $142 $233 $373 reversed $36 $-1 #
coedge $-1 $230 $229 $142 $245 forward $84 $-1 #
edge $387 $380 13.75 $249 28.75 $244 $388 forward 7 unknown #
coedge $-1 $228 $143 $149 $261 forward $135 $-1 #
coedge $-1 $143 $228 $230 $369 reversed $135 $-1 #
ptlist-eye-attrib $-1 $-1 $-1 $144 #
vertex $-1 $369 $389 #
straight-curve $-1 80 -7.75 5 0 -1 0 I I #
coedge $-1 $234 $390 $145 $252 forward $375 $-1 #
edge $391 $257 13.75 $377 18.75 $251 $392 forward 7 unknown #
coedge $-1 $393 $146 $390 $394 forward $255 $-1 #
coedge $-1 $146 $393 $148 $260 reversed $255 $-1 #
loop $-1 $-1 $393 $226 #
ptlist-eye-attrib $-1 $-1 $-1 $147 #
vertex $-1 $394 $395 #
straight-curve $-1 60 0 5 0 1 0 I I #
coedge $-1 $149 $148 $396 $397 forward $150 $-1 #
edge $398 $153 -5 $399 5 $254 $400 forward 7 unknown #
edge $401 $152 -5 $402 5 $246 $403 forward 7 unknown #
point $-1 80 -18 5 #
point $-1 60 -18 5 #
fmesh-eye-attrib $-1 $-1 $-1 $156 #
loop $-1 $-1 $404 $156 #
coedge $-1 $160 $159 $405 $406 forward $59 $-1 #
coedge $-1 $405 $404 $161 $268 reversed $265 $-1 #
edge $407 $270 -16.58312395177700083 $274 -10 $161 $408 forward 7 unknown #
ptlist-eye-attrib $-1 $-1 $-1 $162 #
vertex $-1 $162 $409 #
ellipse-curve $-1 55 0 0 -1 -0 -0 0 0 -17.3205080756887746 1 I I #
coedge $-1 $171 $163 $404 $410 forward $157 $-1 #
ptlist-eye-attrib $-1 $-1 $-1 $164 #
vertex $-1 $164 $411 #
ellipse-curve $-1 55 0 0 -1 -0 -0 0 0 11.18033988749894903 1 I I #
point $-1 55 10 -5 #
point $-1 55 16.58312395177700083 -5 #
coedge $-1 $404 $405 $174 $279 reversed $265 $-1 #
edge $412 $281 10 $283 16.58312395177700083 $174 $413 forward 7 unknown #
ptlist-eye-attrib $-1 $-1 $-1 $175 #
vertex $-1 $410 $414 #
ptlist-eye-attrib $-1 $-1 $-1 $176 #
vertex $-1 $279 $415 #
fmesh-eye-attrib $-1 $-1 $-1 $180 #
face $416 $417 $418 $12 $-1 $419 forward single #
loop $-1 $420 $421 $180 #
sphere-surface $-1 17.5 25 -10 50 1 0 0 0 0 1 forward_v I I I I #
loop $-1 $-1 $422 $109 #
coedge $-1 $289 $289 $423 $424 reversed $181 $-1 #
coedge $-1 $290 $290 $425 $426 reversed $182 $-1 #
coedge $-1 $291 $291 $183 $292 forward $427 $-1 #
edge $-1 $428 -3.141592653589793116 $428 3.141592653589793116 $291 $429 forward 7 unknown #
coedge $-1 $293 $293 $184 $294 forward $430 $-1 #
edge $-1 $431 -3.141592653589793116 $431 3.141592653589793116 $293 $432 forward 7 unknown #
loop $-1 $433 $185 $434 #
vertex $-1 $186 $435 #
ellipse-curve $-1 17.5 25 -40 -0 -0 -1 5 0 0 1 I I #
loop $-1 $436 $187 $417 #
vertex $-1 $188 $437 #
ellipse-curve $-1 17.5 25 -15 0 0 1 5 0 0 1 I I #
loop $-1 $-1 $438 $302 #
face $439 $440 $189 $12 $-1 $441 forward single #
point $-1 12.5 25 -20 #
coedge $-1 $304 $304 $442 $443 reversed $192 $-1 #
fmesh-eye-attrib $-1 $-1 $-1 $193 #
face $444 $445 $446 $12 $-1 $287 forward single #
plane-surface $-1 0 0 -55 0 0 1 1 0 0 forward_v I I I I #
fmesh-eye-attrib $-1 $-1 $-1 $196 #
face $447 $448 $449 $32 $-1 $450 reversed single #
loop $-1 $-1 $451 $196 #
plane-surface $-1 20 0 0 -1 0 0 0 0 1 forward_v I I I I #
coedge $-1 $452 $453 $454 $455 reversed $197 $-1 #
coedge $-1 $456 $198 $200 $320 reversed $121 $-1 #
coedge $-1 $198 $456 $457 $458 forward $121 $-1 #
coedge $-1 $459 $201 $198 $316 reversed $322 $-1 #
edge $460 $461 3.75 $324 8.75 $198 $462 forward 7 unknown #
coedge $-1 $200 $199 $453 $463 forward $75 $-1 #
coedge $-1 $464 $454 $199 $319 forward $449 $-1 #
edge $465 $466 -5 $325 5 $199 $467 forward 7 unknown #
edge $468 $469 -5 $324 5 $313 $470 forward 7 unknown #
coedge $-1 $201 $459 $464 $471 reversed $322 $-1 #
loop $-1 $-1 $315 $448 #
ptlist-eye-attrib $-1 $-1 $-1 $202 #
vertex $-1 $316 $472 #
vertex $-1 $202 $473 #
straight-curve $-1 15 0 -5 0 -1 0 I I #
fmesh-eye-attrib $-1 $-1 $-1 $204 #
face $474 $475 $476 $20 $-1 $37 forward single #
loop $-1 $-1 $213 $204 #
coedge $-1 $477 $478 $212 $344 forward $205 $-1 #
coedge $-1 $479 $207 $478 $480 reversed $126 $-1 #
coedge $-1 $207 $479 $208 $336 forward $126 $-1 #
coedge $-1 $210 $212 $207 $334 reversed $51 $-1 #
edge $481 $342 5 $482 11.58312395177700083 $207 $483 forward 7 unknown #
coedge $-1 $209 $208 $484 $485 forward $79 $-1 #
edge $486 $487 1.107148717794090409 $342 2.034443935795702707 $332 $488 forward 7 unknown #
coedge $-1 $489 $490 $209 $338 reversed $491 $-1 #
edge $492 $493 -1.932163450701604557 $341 -1.209429202888188781 $209 $494 forward 7 unknown #
coedge $-1 $215 $210 $490 $495 reversed $51 $-1 #
ptlist-eye-attrib $-1 $-1 $-1 $211 #
vertex $-1 $495 $496 #
vertex $-1 $334 $497 #
ellipse-curve $-1 0 0 -5 -0 -0 -1 0 14.14213562373095101 0 1 I I #
edge $498 $482 -0.5426391022496527272 $348 3.684231755839445732 $330 $499 forward 7 unknown #
coedge $-1 $500 $213 $219 $360 reversed $329 $-1 #
coedge $-1 $213 $500 $477 $501 reversed $329 $-1 #
ptlist-eye-attrib $-1 $-1 $-1 $214 #
vertex $-1 $501 $502 #
straight-curve $-1 10 5 -5 0 1 0 I I #
coedge $-1 $503 $504 $215 $351 forward $505 $-1 #
edge $506 $356 -16.25 $507 -11.25 $350 $508 forward 7 unknown #
coedge $-1 $509 $216 $504 $510 reversed $354 $-1 #
coedge $-1 $216 $509 $218 $359 forward $354 $-1 #
loop $-1 $-1 $216 $511 #
ptlist-eye-attrib $-1 $-1 $-1 $217 #
vertex $-1 $217 $512 #
straight-curve $-1 0 -1.25 -5 0 -1 0 I I #
coedge $-1 $219 $218 $513 $514 forward $220 $-1 #
edge $515 $516 -5 $223 5 $218 $517 forward 7 unknown #
edge $518 $519 -5 $222 5 $345 $520 forward 7 unknown #
face $521 $522 $220 $20 $-1 $523 reversed single #
point $-1 10 0 -5 #
point $-1 0 0 -5 #
fmesh-eye-attrib $-1 $-1 $-1 $226 #
face $524 $384 $375 $15 $-1 $525 reversed single #
plane-surface $-1 60 0 0 1 0 0 0 0 -1 forward_v I I I I #
coedge $-1 $396 $231 $228 $368 reversed $238 $-1 #
edge $526 $402 -10.25 $371 -5.25 $228 $527 forward 7 unknown #
edge $528 $249 -5 $371 5 $247 $529 forward 7 unknown #
ptlist-eye-attrib $-1 $-1 $-1 $232 #
vertex $-1 $368 $530 #
straight-curve $-1 51.25 -13 -5 -1 0 0 I I #
edge $531 $377 -18 $380 13 $233 $532 forward 7 unknown #
coedge $-1 $390 $234 $237 $383 forward $375 $-1 #
loop $-1 $-1 $374 $365 #
ptlist-eye-attrib $-1 $-1 $-1 $235 #
vertex $-1 $235 $533 #
straight-curve $-1 65 18 0 0 0 -1 I I #
ptlist-eye-attrib $-1 $-1 $-1 $236 #
vertex $-1 $236 $534 #
straight-curve $-1 65 -13 0 -0 -0 -1 I I #
coedge $-1 $237 $396 $393 $535 reversed $238 $-1 #
edge $536 $241 -18.75 $537 -13.75 $374 $538 forward 7 unknown #
face $539 $-1 $238 $15 $-1 $25 reversed single #
point $-1 65 -13 -5 #
point $-1 65 18 -5 #
ptlist-eye-attrib $-1 $-1 $-1 $245 #
straight-curve $-1 51.25 -13 5 1 0 -0 I I #
point $-1 80 -13 5 #
coedge $-1 $251 $374 $253 $394 reversed $375 $-1 #
ptlist-eye-attrib $-1 $-1 $-1 $252 #
straight-curve $-1 46.25 18 5 1 0 -0 I I #
coedge $-1 $254 $253 $382 $535 forward $255 $-1 #
edge $540 $257 -5 $537 5 $390 $541 forward 7 unknown #
point $-1 60 18 5 #
coedge $-1 $382 $367 $259 $397 reversed $238 $-1 #
edge $542 $399 13.75 $402 33.75 $259 $543 forward 7 unknown #
ptlist-eye-attrib $-1 $-1 $-1 $260 #
vertex $-1 $397 $544 #
straight-curve $-1 60 -18 0 0 0 -1 I I #
ptlist-eye-attrib $-1 $-1 $-1 $261 #
vertex $-1 $397 $545 #
straight-curve $-1 80 -18 0 0 0 -1 I I #
coedge $-1 $267 $278 $272 $410 reversed $265 $-1 #
coedge $-1 $278 $267 $266 $406 reversed $265 $-1 #
edge $546 $283 -0.5426391022496527272 $270 3.684231755839445732 $266 $547 forward 7 unknown #
ptlist-eye-attrib $-1 $-1 $-1 $268 #
straight-curve $-1 55 0 5 0 -1 0 I I #
point $-1 55 16.58312395177700083 5 #
edge $548 $274 2.356194490192344837 $281 7.068583470577034511 $272 $549 forward 7 unknown #
point $-1 55 10 5 #
ptlist-eye-attrib $-1 $-1 $-1 $279 #
straight-curve $-1 55 0 5 0 -1 0 I I #
point $-1 55 -10 5 #
point $-1 55 -16.58312395177700083 5 #
fmesh-eye-attrib $-1 $-1 $-1 $285 #
face $550 $551 $298 $12 $-1 $552 reversed single #
loop $-1 $-1 $553 $285 #
plane-surface $-1 0 0 -10 0 0 1 1 0 0 forward_v I I I I #
loop $-1 $-1 $554 $180 #
coedge $-1 $421 $421 $555 $556 forward $286 $-1 #
coedge $-1 $422 $422 $557 $558 reversed $288 $-1 #
coedge $-1 $423 $423 $289 $424 forward $559 $-1 #
edge $-1 $560 -3.141592653589793116 $560 3.141592653589793116 $423 $561 forward 7 unknown #
coedge $-1 $425 $425 $290 $426 forward $562 $-1 #
edge $-1 $563 -3.141592653589793116 $563 3.141592653589793116 $425 $564 forward 7 unknown #
loop $-1 $565 $291 $551 #
vertex $-1 $292 $566 #
ellipse-curve $-1 17.5 25 -45 0 0 1 5 0 0 1 I I #
loop $-1 $567 $293 $568 #
vertex $-1 $294 $569 #
ellipse-curve $-1 17.5 25 -35 0 0 1 5 0 0 1 I I #
loop $-1 $-1 $570 $434 #
face $571 $302 $295 $12 $-1 $572 forward single #
point $-1 12.5 25 -40 #
loop $-1 $-1 $555 $417 #
point $-1 12.5 25 -15 #
coedge $-1 $438 $438 $573 $574 reversed $301 $-1 #
fmesh-eye-attrib $-1 $-1 $-1 $302 #
face $575 $576 $577 $12 $-1 $287 forward single #
plane-surface $-1 0 0 -20 0 0 1 1 0 0 forward_v I I I I #
coedge $-1 $442 $442 $304 $443 forward $446 $-1 #
edge $-1 $578 -3.141592653589793116 $578 3.141592653589793116 $442 $579 forward 7 unknown #
fmesh-eye-attrib $-1 $-1 $-1 $306 #
face $580 $-1 $562 $12 $-1 $581 forward single #
loop $-1 $582 $442 $306 #
fmesh-eye-attrib $-1 $-1 $-1 $309 #
face $583 $-1 $322 $32 $-1 $25 reversed single #
loop $-1 $-1 $464 $309 #
plane-surface $-1 17.5 -18 0 0 1 0 0 0 1 forward_v I I I I #
coedge $-1 $457 $584 $459 $585 forward $310 $-1 #
coedge $-1 $586 $312 $587 $588 reversed $197 $-1 #
coedge $-1 $312 $586 $317 $463 reversed $197 $-1 #
coedge $-1 $318 $589 $312 $455 forward $449 $-1 #
edge $590 $591 3.75 $466 8.75 $454 $592 forward 7 unknown #
coedge $-1 $314 $313 $586 $593 forward $121 $-1 #
coedge $-1 $587 $451 $314 $458 reversed $310 $-1 #
edge $594 $595 -5 $461 5 $457 $596 forward 7 unknown #
coedge $-1 $321 $315 $451 $585 reversed $322 $-1 #
ptlist-eye-attrib $-1 $-1 $-1 $316 #
vertex $-1 $316 $597 #
straight-curve $-1 23.75 18 -5 -1 0 0 I I #
edge $598 $466 -18 $469 18 $317 $599 forward 7 unknown #
coedge $-1 $589 $318 $321 $471 forward $449 $-1 #
ptlist-eye-attrib $-1 $-1 $-1 $319 #
vertex $-1 $319 $600 #
straight-curve $-1 15 -18 0 0 0 -1 I I #
ptlist-eye-attrib $-1 $-1 $-1 $320 #
vertex $-1 $320 $601 #
straight-curve $-1 15 18 0 0 0 -1 I I #
edge $602 $325 -8.75 $603 -3.75 $464 $604 forward 7 unknown #
point $-1 15 18 -5 #
point $-1 15 -18 -5 #
fmesh-eye-attrib $-1 $-1 $-1 $328 #
face $605 $361 $491 $20 $-1 $606 reversed single #
loop $-1 $-1 $607 $328 #
coedge $-1 $608 $330 $346 $501 forward $205 $-1 #
coedge $-1 $330 $608 $331 $480 forward $205 $-1 #
coedge $-1 $332 $331 $609 $610 forward $126 $-1 #
edge $611 $612 -1.863639098523472093 $482 -1.277953555066321245 $478 $613 forward 7 unknown #
ptlist-eye-attrib $-1 $-1 $-1 $334 #
vertex $-1 $344 $614 #
straight-curve $-1 10 5 -5 0 1 0 I I #
coedge $-1 $609 $615 $335 $485 reversed $476 $-1 #
edge $616 $487 2.356194490192344837 $493 6.644552431086293787 $335 $617 forward 7 unknown #
ptlist-eye-attrib $-1 $-1 $-1 $336 #
vertex $-1 $336 $618 #
ellipse-curve $-1 10 0 0 -1 -0 -0 0 0 11.18033988749894903 1 I I #
coedge $-1 $619 $337 $615 $620 forward $491 $-1 #
coedge $-1 $337 $619 $339 $495 forward $491 $-1 #
loop $-1 $-1 $490 $475 #
ptlist-eye-attrib $-1 $-1 $-1 $338 #
vertex $-1 $338 $621 #
ellipse-curve $-1 5 0 0 1 0 0 0 0 -14.14213562373095101 1 I I #
edge $622 $507 1.25 $341 9.478756555322954469 $490 $623 forward 7 unknown #
point $-1 5 -13.22875655532295447 -5 #
point $-1 10 10 -5 #
ptlist-eye-attrib $-1 $-1 $-1 $344 #
ellipse-curve $-1 0 0 -5 0 0 1 0 19.36491673103708422 0 1 I I #
coedge $-1 $346 $345 $624 $625 forward $329 $-1 #
edge $626 $348 1.277953555066321245 $627 1.863639098523472093 $477 $613 forward 7 unknown #
point $-1 10 -16.58312395177700083 -5 #
coedge $-1 $628 $350 $619 $629 reversed $505 $-1 #
coedge $-1 $350 $628 $352 $510 forward $505 $-1 #
loop $-1 $-1 $350 $522 #
ptlist-eye-attrib $-1 $-1 $-1 $351 #
vertex $-1 $351 $630 #
straight-curve $-1 16.25 -5 -5 1 0 0 I I #
coedge $-1 $353 $352 $631 $632 forward $354 $-1 #
edge $633 $634 -5 $356 5 $352 $635 forward 7 unknown #
face $636 $-1 $354 $20 $-1 $637 reversed single #
point $-1 0 -5 -5 #
coedge $-1 $631 $624 $358 $514 reversed $476 $-1 #
edge $638 $516 -18.75 $519 -8.75 $358 $639 forward 7 unknown #
ptlist-eye-attrib $-1 $-1 $-1 $359 #
vertex $-1 $359 $640 #
straight-curve $-1 0 0 0 0 0 -1 I I #
ptlist-eye-attrib $-1 $-1 $-1 $360 #
vertex $-1 $360 $641 #
straight-curve $-1 10 0 0 0 0 -1 I I #
fmesh-eye-attrib $-1 $-1 $-1 $361 #
face $642 $511 $505 $20 $-1 $643 reversed single #
plane-surface $-1 7.5 0 0 0 -1 0 0 0 -1 forward_v I I I I #
fmesh-eye-attrib $-1 $-1 $-1 $365 #
plane-surface $-1 62.5 18 0 0 -1 0 0 0 -1 forward_v I I I I #
ptlist-eye-attrib $-1 $-1 $-1 $368 #
straight-curve $-1 80 -7.75 -5 0 1 -0 I I #
ptlist-eye-attrib $-1 $-1 $-1 $369 #
straight-curve $-1 80 -13 0 0 0 -1 I I #
point $-1 80 -13 -5 #
ptlist-eye-attrib $-1 $-1 $-1 $373 #
straight-curve $-1 65 0 5 0 -1 0 I I #
point $-1 65 18 5 #
point $-1 65 -13 5 #
edge $644 $537 -18 $399 18 $393 $645 forward 7 unknown #
ptlist-eye-attrib $-1 $-1 $-1 $383 #
vertex $-1 $535 $646 #
straight-curve $-1 46.25 18 -5 -1 0 0 I I #
fmesh-eye-attrib $-1 $-1 $-1 $384 #
ptlist-eye-attrib $-1 $-1 $-1 $394 #
straight-curve $-1 60 18 0 0 0 -1 I I #
ptlist-eye-attrib $-1 $-1 $-1 $397 #
straight-curve $-1 46.25 -18 -5 1 0 0 I I #
point $-1 60 -18 -5 #
point $-1 80 -18 -5 #
ptlist-eye-attrib $-1 $-1 $-1 $406 #
ellipse-curve $-1 45 0 5 -0 -0 -1 0 -19.36491673103708422 0 1 I I #
ptlist-eye-attrib $-1 $-1 $-1 $410 #
ellipse-curve $-1 45 0 5 0 0 1 0 -14.14213562373095101 0 1 I I #
fmesh-eye-attrib $-1 $-1 $-1 $417 #
face $647 $648 $427 $12 $-1 $649 reversed single #
plane-surface $-1 0 0 -15 0 0 1 1 0 0 forward_v I I I I #
coedge $-1 $553 $553 $554 $650 reversed $418 $-1 #
coedge $-1 $554 $554 $553 $650 forward $420 $-1 #
coedge $-1 $555 $555 $421 $556 reversed $436 $-1 #
edge $-1 $651 -3.141592653589793116 $651 3.141592653589793116 $421 $652 forward 7 unknown #
coedge $-1 $557 $557 $422 $558 forward $653 $-1 #
edge $-1 $654 -3.141592653589793116 $654 3.141592653589793116 $557 $655 forward 7 unknown #
loop $-1 $656 $423 $576 #
vertex $-1 $424 $657 #
ellipse-curve $-1 17.5 25 -25 0 0 1 5 0 0 1 I I #
loop $-1 $658 $425 $445 #
vertex $-1 $426 $659 #
ellipse-curve $-1 17.5 25 -50 -0 -0 -1 5 0 0 1 I I #
loop $-1 $-1 $660 $551 #
point $-1 12.5 25 -45 #
loop $-1 $-1 $661 $568 #
face $662 $663 $430 $12 $-1 $664 reversed single #
point $-1 12.5 25 -35 #
coedge $-1 $570 $570 $665 $666 reversed $433 $-1 #
fmesh-eye-attrib $-1 $-1 $-1 $434 #
plane-surface $-1 0 0 -40 0 0 1 1 0 0 forward_v I I I I #
coedge $-1 $573 $573 $438 $574 forward $667 $-1 #
edge $-1 $668 -3.141592653589793116 $668 3.141592653589793116 $573 $669 forward 7 unknown #
fmesh-eye-attrib $-1 $-1 $-1 $440 #
face $670 $568 $559 $12 $-1 $671 reversed single #
loop $-1 $667 $672 $440 #
vertex $-1 $443 $673 #
ellipse-curve $-1 17.5 25 -55 0 0 1 0 21.79449471770336899 0 1 I I #
fmesh-eye-attrib $-1 $-1 $-1 $445 #
plane-surface $-1 0 0 -50 0 0 1 1 0 0 forward_v I I I I #
loop $-1 $-1 $674 $306 #
fmesh-eye-attrib $-1 $-1 $-1 $448 #
coedge $-1 $451 $587 $589 $675 forward $310 $-1 #
edge $676 $603 -18 $461 18 $451 $677 forward 7 unknown #
coedge $-1 $453 $452 $456 $593 reversed $197 $-1 #
coedge $-1 $584 $457 $452 $588 forward $310 $-1 #
edge $678 $595 -18 $591 18 $587 $679 forward 7 unknown #
coedge $-1 $454 $464 $584 $675 reversed $449 $-1 #
ptlist-eye-attrib $-1 $-1 $-1 $455 #
vertex $-1 $675 $680 #
straight-curve $-1 23.75 -18 5 -1 0 0 I I #
edge $681 $469 -8.75 $595 -3.75 $456 $682 forward 7 unknown #
ptlist-eye-attrib $-1 $-1 $-1 $458 #
vertex $-1 $458 $683 #
straight-curve $-1 20 18 0 0 0 -1 I I #
point $-1 20 18 -5 #
ptlist-eye-attrib $-1 $-1 $-1 $463 #
straight-curve $-1 15 0 5 0 1 0 I I #
point $-1 15 -18 5 #
point $-1 15 18 5 #
ptlist-eye-attrib $-1 $-1 $-1 $471 #
vertex $-1 $585 $684 #
straight-curve $-1 23.75 -18 -5 1 0 0 I I #
fmesh-eye-attrib $-1 $-1 $-1 $475 #
plane-surface $-1 5 -7.5 0 1 0 0 0 0 -1 forward_v I I I I #
coedge $-1 $615 $631 $628 $685 reversed $476 $-1 #
coedge $-1 $478 $477 $686 $687 forward $205 $-1 #
coedge $-1 $686 $484 $479 $610 reversed $476 $-1 #
edge $688 $612 -11.58312395177700083 $487 -5 $479 $689 forward 7 unknown #
ptlist-eye-attrib $-1 $-1 $-1 $480 #
vertex $-1 $480 $690 #
ellipse-curve $-1 10 0 0 -1 -0 -0 0 0 -17.3205080756887746 1 I I #
point $-1 10 16.58312395177700083 -5 #
coedge $-1 $484 $607 $489 $620 reversed $476 $-1 #
ptlist-eye-attrib $-1 $-1 $-1 $485 #
ellipse-curve $-1 0 0 5 0 0 1 0 -14.14213562373095101 0 1 I I #
point $-1 10 10 5 #
coedge $-1 $490 $489 $503 $629 forward $491 $-1 #
edge $691 $493 -9.478756555322954469 $692 -1.25 $489 $693 forward 7 unknown #
point $-1 5 -13.22875655532295447 5 #
ptlist-eye-attrib $-1 $-1 $-1 $495 #
straight-curve $-1 5 -3.75 -5 0 -1 0 I I #
coedge $-1 $513 $686 $500 $625 reversed $476 $-1 #
edge $694 $519 5 $627 21.58312395177700083 $500 $695 forward 7 unknown #
ptlist-eye-attrib $-1 $-1 $-1 $501 #
vertex $-1 $625 $696 #
coedge $-1 $504 $503 $607 $685 forward $505 $-1 #
edge $697 $692 -5 $507 5 $619 $698 forward 7 unknown #
point $-1 5 -5 -5 #
coedge $-1 $607 $513 $509 $632 reversed $476 $-1 #
edge $699 $634 -3.75 $516 1.25 $509 $700 forward 7 unknown #
ptlist-eye-attrib $-1 $-1 $-1 $510 #
vertex $-1 $510 $701 #
straight-curve $-1 0 -5 0 0 0 -1 I I #
fmesh-eye-attrib $-1 $-1 $-1 $511 #
plane-surface $-1 0 -2.5 0 1 0 0 0 0 -1 forward_v I I I I #
ptlist-eye-attrib $-1 $-1 $-1 $514 #
straight-curve $-1 18.75 0 5 1 0 -0 I I #
point $-1 0 0 5 #
point $-1 10 0 5 #
fmesh-eye-attrib $-1 $-1 $-1 $522 #
plane-surface $-1 2.5 -5 0 0 1 0 0 0 1 forward_v I I I I #
ptlist-eye-attrib $-1 $-1 $-1 $535 #
straight-curve $-1 60 0 -5 0 -1 0 I I #
point $-1 60 18 -5 #
fmesh-eye-attrib $-1 $-1 $-1 $551 #
face $702 $434 $703 $12 $-1 $287 forward single #
plane-surface $-1 0 0 -45 0 0 1 1 0 0 forward_v I I I I #
edge $-1 $704 -3.141592653589793116 $704 3.141592653589793116 $554 $705 forward 7 unknown #
vertex $-1 $556 $706 #
ellipse-curve $-1 17.5 25 -15 0 0 1 0 49.74937185533099893 0 1 I I #
loop $-1 $707 $557 $708 #
vertex $-1 $558 $709 #
ellipse-curve $-1 17.5 25 -30 -0 -0 -1 5 0 0 1 I I #
loop $-1 $-1 $710 $576 #
point $-1 12.5 25 -25 #
loop $-1 $-1 $711 $445 #
point $-1 12.5 25 -50 #
coedge $-1 $660 $660 $712 $713 reversed $565 $-1 #
coedge $-1 $661 $661 $714 $715 reversed $567 $-1 #
fmesh-eye-attrib $-1 $-1 $-1 $568 #
face $716 $708 $717 $12 $-1 $287 forward single #
plane-surface $-1 0 0 -35 0 0 1 1 0 0 forward_v I I I I #
coedge $-1 $665 $665 $570 $666 forward $718 $-1 #
edge $-1 $719 -3.141592653589793116 $719 3.141592653589793116 $665 $720 forward 7 unknown #
loop $-1 $-1 $573 $440 #
vertex $-1 $574 $721 #
ellipse-curve $-1 17.5 25 -20 -0 -0 -1 0 -48.98979485566356118 0 1 I I #
fmesh-eye-attrib $-1 $-1 $-1 $576 #
plane-surface $-1 0 0 -25 0 0 1 1 0 0 forward_v I I I I #
coedge $-1 $672 $672 $710 $722 forward $577 $-1 #
point $-1 17.50000000000000355 3.205505282296631009 -55 #
coedge $-1 $674 $674 $711 $723 forward $582 $-1 #
edge $724 $591 -5 $603 5 $584 $725 forward 7 unknown #
ptlist-eye-attrib $-1 $-1 $-1 $585 #
straight-curve $-1 20 0 -5 0 1 -0 I I #
ptlist-eye-attrib $-1 $-1 $-1 $588 #
straight-curve $-1 20 0 5 0 -1 0 I I #
point $-1 20 -18 5 #
ptlist-eye-attrib $-1 $-1 $-1 $593 #
straight-curve $-1 23.75 18 5 1 0 -0 I I #
point $-1 20 18 5 #
point $-1 20 -18 -5 #
edge $726 $692 11.25 $634 16.25 $628 $727 forward 7 unknown #
coedge $-1 $624 $609 $608 $687 reversed $476 $-1 #
edge $728 $627 -0.5426391022496527272 $612 3.684231755839445732 $608 $729 forward 7 unknown #
ptlist-eye-attrib $-1 $-1 $-1 $610 #
straight-curve $-1 10 5 5 0 -1 0 I I #
point $-1 10 16.58312395177700083 5 #
ptlist-eye-attrib $-1 $-1 $-1 $620 #
vertex $-1 $629 $730 #
straight-curve $-1 5 -3.75 5 0 1 0 I I #
ptlist-eye-attrib $-1 $-1 $-1 $625 #
straight-curve $-1 10 5 5 0 -1 0 I I #
point $-1 10 -16.58312395177700083 5 #
ptlist-eye-attrib $-1 $-1 $-1 $629 #
straight-curve $-1 5 -5 0 0 0 -1 I I #
ptlist-eye-attrib $-1 $-1 $-1 $632 #
straight-curve $-1 0 -1.25 5 0 1 0 I I #
point $-1 0 -5 5 #
fmesh-eye-attrib $-1 $-1 $-1 $648 #
loop $-1 $718 $712 $648 #
vertex $-1 $650 $731 #
ellipse-curve $-1 17.5 25 -10 -0 -0 -1 0 -50 0 1 I I #
point $-1 17.50000000000000711 -24.74937185533099893 -15 #
loop $-1 $-1 $732 $708 #
face $733 $193 $653 $12 $-1 $734 forward single #
point $-1 12.5 25 -30 #
coedge $-1 $710 $710 $672 $722 reversed $656 $-1 #
coedge $-1 $711 $711 $674 $723 reversed $658 $-1 #
coedge $-1 $712 $712 $660 $713 forward $703 $-1 #
edge $-1 $735 -3.141592653589793116 $735 3.141592653589793116 $712 $736 forward 7 unknown #
coedge $-1 $714 $714 $661 $715 forward $717 $-1 #
edge $-1 $737 -3.141592653589793116 $737 3.141592653589793116 $714 $738 forward 7 unknown #
fmesh-eye-attrib $-1 $-1 $-1 $663 #
loop $-1 $739 $714 $663 #
loop $-1 $-1 $665 $648 #
vertex $-1 $666 $740 #
ellipse-curve $-1 17.5 25 -40 -0 -0 -1 0 -40 0 1 I I #
point $-1 17.50000000000000711 73.98979485566356118 -20 #
edge $-1 $741 -3.141592653589793116 $741 3.141592653589793116 $672 $742 forward 7 unknown #
edge $-1 $743 -3.141592653589793116 $743 3.141592653589793116 $674 $744 forward 7 unknown #
ptlist-eye-attrib $-1 $-1 $-1 $675 #
straight-curve $-1 20 -18 0 0 0 -1 I I #
ptlist-eye-attrib $-1 $-1 $-1 $685 #
straight-curve $-1 16.25 -5 5 -1 0 0 I I #
ptlist-eye-attrib $-1 $-1 $-1 $687 #
ellipse-curve $-1 0 0 5 -0 -0 -1 0 -19.36491673103708422 0 1 I I #
point $-1 5 -5 5 #
point $-1 17.50000000000000711 75 -10 #
coedge $-1 $732 $732 $745 $746 reversed $707 $-1 #
fmesh-eye-attrib $-1 $-1 $-1 $708 #
plane-surface $-1 0 0 -30 0 0 1 1 0 0 forward_v I I I I #
vertex $-1 $713 $747 #
ellipse-curve $-1 17.5 25 -45 0 0 1 0 35.7071421427142468 0 1 I I #
vertex $-1 $715 $748 #
ellipse-curve $-1 17.5 25 -35 0 0 1 0 43.30127018922193116 0 1 I I #
loop $-1 $-1 $745 $663 #
point $-1 17.50000000000000355 65 -40 #
vertex $-1 $722 $749 #
ellipse-curve $-1 17.5 25 -25 0 0 1 0 47.69696007084728251 0 1 I I #
vertex $-1 $723 $750 #
ellipse-curve $-1 17.5 25 -50 -0 -0 -1 0 -30 0 1 I I #
coedge $-1 $745 $745 $732 $746 forward $739 $-1 #
edge $-1 $751 -3.141592653589793116 $751 3.141592653589793116 $745 $752 forward 7 unknown #
point $-1 17.50000000000000355 -10.7071421427142468 -45 #
point $-1 17.50000000000000355 -18.30127018922193116 -35 #
point $-1 17.50000000000000711 -22.69696007084728251 -25 #
point $-1 17.50000000000000355 55 -50 #
vertex $-1 $746 $753 #
ellipse-curve $-1 17.5 25 -30 -0 -0 -1 0 -45.82575694955839651 0 1 I I #
point $-1 17.50000000000000711 70.82575694955839651 -30 #
End-of-ACIS-data 