600 0 3 0           
23 ACIS/3D Toolkit - 6.0.3 18 ACIS 6.0.3 Solaris 24 Thu Jul 12 13:16:01 2001 
1 9.999999999999999547e-07 1.000000000000000036e-10 
body $3 $4 $-1 $5 #
body $6 $7 $-1 $8 #
body $9 $10 $-1 $11 #
rgb_color-st-attrib $-1 $-1 $-1 $0 0 0 1 #
lump $-1 $12 $13 $0 #
transform $-1 1 0 0 0 1 0 0 0 1 0 0 0 1 no_rotate no_reflect no_shear #
rgb_color-st-attrib $-1 $-1 $-1 $1 1 1 0 #
lump $-1 $-1 $14 $1 #
transform $-1 1 0 0 0 1 0 0 0 1 17.5 25 -10 1 no_rotate no_reflect no_shear #
rgb_color-st-attrib $-1 $-1 $-1 $2 0 0 1 #
lump $-1 $-1 $15 $2 #
transform $-1 1 0 0 0 1 0 0 0 1 17.5 25 -10 1 no_rotate no_reflect no_shear #
lump $-1 $16 $17 $0 #
shell $-1 $-1 $-1 $18 $-1 $4 #
shell $-1 $-1 $-1 $19 $-1 $7 #
shell $-1 $-1 $-1 $20 $-1 $10 #
lump $-1 $21 $22 $0 #
shell $-1 $-1 $-1 $23 $-1 $12 #
face $-1 $24 $25 $13 $-1 $26 reversed single #
face $-1 $27 $28 $14 $-1 $29 forward single #
face $-1 $-1 $-1 $15 $-1 $30 forward single #
lump $-1 $-1 $31 $0 #
shell $-1 $-1 $-1 $32 $-1 $16 #
face $-1 $33 $34 $17 $-1 $35 forward single #
face $-1 $36 $37 $13 $-1 $38 forward single #
loop $-1 $-1 $39 $18 #
plane-surface $-1 30 0 -5 0 0 1 1 0 0 forward_v I I I I #
face $-1 $-1 $40 $14 $-1 $41 forward single #
loop $-1 $-1 $42 $19 #
plane-surface $-1 -17.5 -25 0 0 0 1 1 0 0 forward_v I I I I #
sphere-surface $-1 0 0 0 5 1 0 0 0 0 1 forward_v I I I I #
shell $-1 $-1 $-1 $43 $-1 $21 #
face $-1 $44 $45 $22 $-1 $26 reversed single #
face $-1 $46 $47 $17 $-1 $48 reversed single #
loop $-1 $-1 $49 $23 #
plane-surface $-1 30 0 5 0 0 1 1 0 0 forward_v I I I I #
face $-1 $50 $51 $13 $-1 $52 forward single #
loop $-1 $-1 $53 $24 #
plane-surface $-1 55 0 0 1 0 0 0 0 -1 forward_v I I I I #
coedge $-1 $54 $55 $56 $57 reversed $25 $-1 #
loop $-1 $-1 $58 $27 #
sphere-surface $-1 0 0 0 50 1 0 0 0 0 1 forward_v I I I I #
coedge $-1 $42 $42 $58 $59 reversed $28 $-1 #
face $60 $61 $62 $31 $-1 $63 reversed single #
face $-1 $64 $65 $22 $-1 $66 reversed single #
loop $-1 $-1 $67 $32 #
face $68 $69 $70 $17 $-1 $71 reversed single #
loop $-1 $-1 $72 $33 #
plane-surface $-1 65 0 0 -1 0 0 0 0 1 forward_v I I I I #
coedge $-1 $73 $74 $75 $76 reversed $34 $-1 #
face $77 $78 $79 $13 $-1 $38 forward single #
loop $-1 $-1 $80 $36 #
sphere-surface $-1 45 0 0 20 1 0 0 0 0 1 forward_v I I I I #
coedge $-1 $81 $82 $83 $84 forward $37 $-1 #
coedge $-1 $83 $39 $80 $85 reversed $25 $-1 #
coedge $-1 $39 $83 $86 $87 reversed $25 $-1 #
coedge $-1 $88 $89 $39 $57 forward $79 $-1 #
edge $-1 $90 -16.58312395177700083 $91 -10 $56 $92 forward 7 unknown #
coedge $-1 $58 $58 $42 $59 forward $40 $-1 #
edge $-1 $93 -3.141592653589793116 $93 3.141592653589793116 $58 $94 forward 7 unknown #
fmesh-eye-attrib $-1 $-1 $-1 $43 #
face $-1 $95 $96 $31 $-1 $97 reversed single #
loop $-1 $-1 $98 $43 #
plane-surface $-1 15 0 0 1 0 0 0 0 -1 forward_v I I I I #
face $-1 $99 $100 $22 $-1 $101 forward single #
loop $-1 $-1 $102 $44 #
sphere-surface $-1 0 0 0 15 1 0 0 0 0 1 forward_v I I I I #
coedge $-1 $103 $104 $105 $106 reversed $45 $-1 #
fmesh-eye-attrib $-1 $-1 $-1 $46 #
face $107 $108 $109 $17 $-1 $110 reversed single #
loop $-1 $-1 $111 $46 #
plane-surface $-1 72.5 -13 0 0 -1 0 0 0 -1 forward_v I I I I #
coedge $-1 $112 $113 $114 $115 forward $47 $-1 #
coedge $-1 $116 $49 $117 $118 reversed $34 $-1 #
coedge $-1 $49 $119 $120 $121 reversed $34 $-1 #
coedge $-1 $122 $123 $49 $76 forward $124 $-1 #
edge $-1 $125 -33.75 $126 -13.75 $75 $127 forward 7 unknown #
fmesh-eye-attrib $-1 $-1 $-1 $50 #
face $128 $129 $130 $13 $-1 $131 reversed single #
loop $-1 $-1 $56 $50 #
coedge $-1 $132 $133 $54 $85 forward $51 $-1 #
coedge $-1 $134 $53 $133 $135 reversed $37 $-1 #
coedge $-1 $53 $134 $136 $137 forward $37 $-1 #
coedge $-1 $55 $54 $53 $84 reversed $25 $-1 #
edge $-1 $138 10 $139 16.58312395177700083 $53 $140 forward 7 unknown #
edge $-1 $139 -0.5426391022496527272 $90 3.684231755839445732 $80 $141 forward 7 unknown #
coedge $-1 $136 $142 $55 $87 forward $130 $-1 #
edge $-1 $91 2.356194490192344837 $138 7.068583470577034511 $86 $143 forward 7 unknown #
coedge $-1 $144 $56 $142 $145 forward $79 $-1 #
coedge $-1 $56 $144 $132 $146 reversed $79 $-1 #
vertex $-1 $146 $147 #
vertex $-1 $145 $148 #
straight-curve $-1 55 0 -5 0 1 0 I I #
vertex $-1 $59 $149 #
ellipse-curve $-1 0 0 0 -0 -0 -1 0 -50 0 1 I I #
face $-1 $150 $151 $31 $-1 $35 forward single #
loop $-1 $-1 $152 $61 #
plane-surface $-1 17.5 18 0 0 -1 0 0 0 -1 forward_v I I I I #
coedge $-1 $153 $154 $155 $156 forward $62 $-1 #
face $-1 $157 $158 $22 $-1 $159 forward single #
loop $-1 $-1 $160 $64 #
plane-surface $-1 10 10 10 1 0 0 0 0 -1 forward_v I I I I #
coedge $-1 $161 $162 $163 $164 forward $65 $-1 #
coedge $-1 $165 $67 $166 $167 reversed $45 $-1 #
coedge $-1 $67 $168 $169 $170 reversed $45 $-1 #
coedge $-1 $171 $172 $67 $106 forward $173 $-1 #
edge $-1 $174 8.75 $175 18.75 $105 $176 forward 7 unknown #
fmesh-eye-attrib $-1 $-1 $-1 $69 #
face $-1 $177 $124 $17 $-1 $178 reversed single #
loop $-1 $-1 $179 $69 #
plane-surface $-1 80 -15.5 0 -1 0 0 0 0 1 forward_v I I I I #
coedge $-1 $180 $181 $182 $183 forward $70 $-1 #
coedge $-1 $184 $72 $185 $186 reversed $47 $-1 #
coedge $-1 $72 $184 $180 $187 forward $47 $-1 #
coedge $-1 $182 $188 $72 $115 reversed $189 $-1 #
edge $-1 $190 -13 $191 18 $72 $192 forward 7 unknown #
coedge $-1 $193 $73 $194 $195 reversed $34 $-1 #
coedge $-1 $196 $197 $73 $118 forward $109 $-1 #
edge $-1 $198 5.25 $125 10.25 $117 $199 forward 7 unknown #
coedge $-1 $74 $193 $200 $201 reversed $34 $-1 #
coedge $-1 $202 $203 $74 $121 forward $204 $-1 #
edge $-1 $126 -18 $205 18 $120 $206 forward 7 unknown #
coedge $-1 $207 $75 $203 $208 forward $124 $-1 #
coedge $-1 $75 $207 $196 $209 reversed $124 $-1 #
loop $-1 $-1 $207 $108 #
vertex $-1 $209 $210 #
vertex $-1 $208 $211 #
straight-curve $-1 46.25 -18 5 -1 0 0 I I #
fmesh-eye-attrib $-1 $-1 $-1 $78 #
face $-1 $-1 $212 $13 $-1 $35 forward single #
loop $-1 $-1 $86 $78 #
sphere-surface $-1 45 0 0 15 1 0 0 0 0 1 forward_v I I I I #
coedge $-1 $213 $80 $89 $146 forward $51 $-1 #
coedge $-1 $80 $213 $81 $135 forward $51 $-1 #
coedge $-1 $82 $81 $214 $215 forward $37 $-1 #
edge $-1 $216 -1.863639098523472093 $139 -1.277953555066321245 $133 $217 forward 7 unknown #
coedge $-1 $218 $86 $82 $137 reversed $130 $-1 #
edge $-1 $219 1.107148717794090409 $138 2.034443935795702707 $82 $220 forward 7 unknown #
vertex $-1 $87 $221 #
vertex $-1 $85 $222 #
straight-curve $-1 55 0 -5 0 1 0 I I #
ellipse-curve $-1 45 0 -5 0 0 1 0 19.36491673103708422 0 1 I I #
coedge $-1 $86 $218 $88 $145 reversed $130 $-1 #
ellipse-curve $-1 45 0 -5 -0 -0 -1 0 14.14213562373095101 0 1 I I #
coedge $-1 $89 $88 $223 $224 forward $79 $-1 #
edge $-1 $91 -2.034443935795702707 $225 -1.107148717794090409 $88 $220 forward 7 unknown #
edge $-1 $90 1.277953555066321245 $226 1.863639098523472093 $132 $217 forward 7 unknown #
point $-1 55 -16.58312395177700083 -5 #
point $-1 55 -10 -5 #
point $-1 6.123233995736766085e-15 50 0 #
face $-1 $227 $228 $31 $-1 $229 reversed single #
loop $-1 $-1 $230 $95 #
coedge $-1 $231 $232 $233 $234 forward $96 $-1 #
coedge $-1 $235 $98 $236 $237 reversed $62 $-1 #
coedge $-1 $98 $235 $231 $238 forward $62 $-1 #
coedge $-1 $233 $239 $98 $156 reversed $240 $-1 #
edge $-1 $241 -18 $242 18 $98 $243 forward 7 unknown #
face $-1 $244 $245 $22 $-1 $101 forward single #
loop $-1 $-1 $246 $99 #
sphere-surface $-1 0 0 0 20 1 0 0 0 0 1 forward_v I I I I #
coedge $-1 $247 $248 $249 $250 forward $100 $-1 #
coedge $-1 $251 $102 $248 $252 reversed $65 $-1 #
coedge $-1 $102 $251 $253 $254 forward $65 $-1 #
coedge $-1 $255 $249 $102 $164 reversed $45 $-1 #
edge $-1 $256 2.780225529683085561 $257 7.068583470577034511 $102 $258 forward 7 unknown #
coedge $-1 $249 $103 $246 $259 reversed $45 $-1 #
coedge $-1 $260 $261 $103 $167 forward $245 $-1 #
edge $-1 $262 -21.58312395177700083 $174 -5 $166 $263 forward 7 unknown #
coedge $-1 $104 $255 $264 $265 reversed $45 $-1 #
coedge $-1 $266 $267 $104 $170 forward $268 $-1 #
edge $-1 $175 -1.25 $269 3.75 $169 $270 forward 7 unknown #
coedge $-1 $271 $105 $267 $272 reversed $173 $-1 #
coedge $-1 $105 $271 $260 $273 forward $173 $-1 #
loop $-1 $-1 $105 $274 #
vertex $-1 $106 $275 #
vertex $-1 $106 $276 #
straight-curve $-1 18.75 0 -5 -1 0 0 I I #
face $-1 $277 $204 $17 $-1 $278 reversed single #
plane-surface $-1 62.5 -18 0 0 1 0 0 0 1 forward_v I I I I #
coedge $-1 $197 $196 $279 $280 forward $109 $-1 #
coedge $-1 $194 $111 $113 $187 reversed $70 $-1 #
coedge $-1 $111 $194 $197 $281 forward $70 $-1 #
coedge $-1 $279 $114 $111 $183 reversed $189 $-1 #
edge $-1 $282 -28.75 $190 -13.75 $111 $283 forward 7 unknown #
coedge $-1 $113 $112 $193 $284 forward $47 $-1 #
coedge $-1 $285 $200 $112 $186 forward $286 $-1 #
edge $-1 $287 -5 $191 5 $112 $288 forward 7 unknown #
edge $-1 $289 -5 $190 5 $113 $290 forward 7 unknown #
coedge $-1 $114 $291 $285 $292 reversed $189 $-1 #
loop $-1 $-1 $182 $293 #
vertex $-1 $183 $294 #
vertex $-1 $292 $295 #
straight-curve $-1 65 0 -5 0 1 -0 I I #
coedge $-1 $119 $116 $184 $284 reversed $34 $-1 #
coedge $-1 $181 $180 $116 $195 forward $70 $-1 #
edge $-1 $289 13.75 $198 28.75 $194 $296 forward 7 unknown #
coedge $-1 $179 $117 $123 $209 forward $109 $-1 #
coedge $-1 $117 $179 $181 $281 reversed $109 $-1 #
vertex $-1 $281 $297 #
straight-curve $-1 80 -7.75 5 0 -1 0 I I #
coedge $-1 $185 $298 $119 $201 forward $286 $-1 #
edge $-1 $205 13.75 $287 18.75 $200 $299 forward 7 unknown #
coedge $-1 $300 $120 $298 $301 forward $204 $-1 #
coedge $-1 $120 $300 $122 $208 reversed $204 $-1 #
loop $-1 $-1 $300 $177 #
vertex $-1 $301 $302 #
straight-curve $-1 60 0 5 0 1 0 I I #
coedge $-1 $123 $122 $303 $304 forward $124 $-1 #
edge $-1 $126 -5 $305 5 $203 $306 forward 7 unknown #
edge $-1 $125 -5 $307 5 $196 $308 forward 7 unknown #
point $-1 80 -18 5 #
point $-1 60 -18 5 #
loop $-1 $-1 $309 $129 #
coedge $-1 $133 $132 $310 $311 forward $51 $-1 #
coedge $-1 $310 $309 $134 $215 reversed $212 $-1 #
edge $-1 $216 -16.58312395177700083 $219 -10 $134 $312 forward 7 unknown #
vertex $-1 $135 $313 #
ellipse-curve $-1 55 0 0 -1 -0 -0 0 0 -17.3205080756887746 1 I I #
coedge $-1 $142 $136 $309 $314 forward $130 $-1 #
vertex $-1 $137 $315 #
ellipse-curve $-1 55 0 0 -1 -0 -0 0 0 11.18033988749894903 1 I I #
point $-1 55 10 -5 #
point $-1 55 16.58312395177700083 -5 #
coedge $-1 $309 $310 $144 $224 reversed $212 $-1 #
edge $-1 $225 10 $226 16.58312395177700083 $144 $316 forward 7 unknown #
vertex $-1 $314 $317 #
vertex $-1 $224 $318 #
face $-1 $319 $320 $31 $-1 $321 reversed single #
loop $-1 $-1 $322 $150 #
plane-surface $-1 20 0 0 -1 0 0 0 0 1 forward_v I I I I #
coedge $-1 $323 $324 $325 $326 reversed $151 $-1 #
coedge $-1 $327 $152 $154 $238 reversed $96 $-1 #
coedge $-1 $152 $327 $328 $329 forward $96 $-1 #
coedge $-1 $330 $155 $152 $234 reversed $240 $-1 #
edge $-1 $331 3.75 $241 8.75 $152 $332 forward 7 unknown #
coedge $-1 $154 $153 $324 $333 forward $62 $-1 #
coedge $-1 $334 $325 $153 $237 forward $320 $-1 #
edge $-1 $335 -5 $242 5 $153 $336 forward 7 unknown #
edge $-1 $337 -5 $241 5 $231 $338 forward 7 unknown #
coedge $-1 $155 $330 $334 $339 reversed $240 $-1 #
loop $-1 $-1 $233 $319 #
vertex $-1 $234 $340 #
vertex $-1 $156 $341 #
straight-curve $-1 15 0 -5 0 -1 0 I I #
face $-1 $342 $343 $22 $-1 $35 forward single #
loop $-1 $-1 $166 $157 #
coedge $-1 $344 $345 $165 $259 forward $158 $-1 #
coedge $-1 $346 $160 $345 $347 reversed $100 $-1 #
coedge $-1 $160 $346 $161 $252 forward $100 $-1 #
coedge $-1 $163 $165 $160 $250 reversed $45 $-1 #
edge $-1 $257 5 $348 11.58312395177700083 $160 $349 forward 7 unknown #
coedge $-1 $162 $161 $350 $351 forward $65 $-1 #
edge $-1 $352 1.107148717794090409 $257 2.034443935795702707 $248 $353 forward 7 unknown #
coedge $-1 $354 $355 $162 $254 reversed $356 $-1 #
edge $-1 $357 -1.932163450701604557 $256 -1.209429202888188781 $162 $358 forward 7 unknown #
coedge $-1 $168 $163 $355 $359 reversed $45 $-1 #
vertex $-1 $359 $360 #
vertex $-1 $250 $361 #
ellipse-curve $-1 0 0 -5 -0 -0 -1 0 14.14213562373095101 0 1 I I #
edge $-1 $348 -0.5426391022496527272 $262 3.684231755839445732 $246 $362 forward 7 unknown #
coedge $-1 $363 $166 $172 $273 reversed $245 $-1 #
coedge $-1 $166 $363 $344 $364 reversed $245 $-1 #
vertex $-1 $364 $365 #
straight-curve $-1 10 5 -5 0 1 0 I I #
coedge $-1 $366 $367 $168 $265 forward $368 $-1 #
edge $-1 $269 -16.25 $369 -11.25 $264 $370 forward 7 unknown #
coedge $-1 $371 $169 $367 $372 reversed $268 $-1 #
coedge $-1 $169 $371 $171 $272 forward $268 $-1 #
loop $-1 $-1 $169 $373 #
vertex $-1 $170 $374 #
straight-curve $-1 0 -1.25 -5 0 -1 0 I I #
coedge $-1 $172 $171 $375 $376 forward $173 $-1 #
edge $-1 $377 -5 $175 5 $171 $378 forward 7 unknown #
edge $-1 $379 -5 $174 5 $260 $380 forward 7 unknown #
face $381 $382 $173 $22 $-1 $383 reversed single #
point $-1 10 0 -5 #
point $-1 0 0 -5 #
face $-1 $293 $286 $17 $-1 $384 reversed single #
plane-surface $-1 60 0 0 1 0 0 0 0 -1 forward_v I I I I #
coedge $-1 $303 $182 $179 $280 reversed $189 $-1 #
edge $-1 $307 -10.25 $282 -5.25 $179 $385 forward 7 unknown #
edge $-1 $198 -5 $282 5 $197 $386 forward 7 unknown #
vertex $-1 $280 $387 #
straight-curve $-1 51.25 -13 -5 -1 0 0 I I #
edge $-1 $287 -18 $289 13 $184 $388 forward 7 unknown #
coedge $-1 $298 $185 $188 $292 forward $286 $-1 #
loop $-1 $-1 $285 $277 #
vertex $-1 $186 $389 #
straight-curve $-1 65 18 0 0 0 -1 I I #
vertex $-1 $187 $390 #
straight-curve $-1 65 -13 0 -0 -0 -1 I I #
coedge $-1 $188 $303 $300 $391 reversed $189 $-1 #
edge $-1 $191 -18.75 $392 -13.75 $285 $393 forward 7 unknown #
face $-1 $-1 $189 $17 $-1 $26 reversed single #
point $-1 65 -13 -5 #
point $-1 65 18 -5 #
straight-curve $-1 51.25 -13 5 1 0 -0 I I #
point $-1 80 -13 5 #
coedge $-1 $200 $285 $202 $301 reversed $286 $-1 #
straight-curve $-1 46.25 18 5 1 0 -0 I I #
coedge $-1 $203 $202 $291 $391 forward $204 $-1 #
edge $-1 $205 -5 $392 5 $298 $394 forward 7 unknown #
point $-1 60 18 5 #
coedge $-1 $291 $279 $207 $304 reversed $189 $-1 #
edge $-1 $305 13.75 $307 33.75 $207 $395 forward 7 unknown #
vertex $-1 $304 $396 #
straight-curve $-1 60 -18 0 0 0 -1 I I #
vertex $-1 $304 $397 #
straight-curve $-1 80 -18 0 0 0 -1 I I #
coedge $-1 $214 $223 $218 $314 reversed $212 $-1 #
coedge $-1 $223 $214 $213 $311 reversed $212 $-1 #
edge $-1 $226 -0.5426391022496527272 $216 3.684231755839445732 $213 $398 forward 7 unknown #
straight-curve $-1 55 0 5 0 -1 0 I I #
point $-1 55 16.58312395177700083 5 #
edge $-1 $219 2.356194490192344837 $225 7.068583470577034511 $218 $399 forward 7 unknown #
point $-1 55 10 5 #
straight-curve $-1 55 0 5 0 -1 0 I I #
point $-1 55 -10 5 #
point $-1 55 -16.58312395177700083 5 #
face $-1 $-1 $240 $31 $-1 $26 reversed single #
loop $-1 $-1 $334 $227 #
plane-surface $-1 17.5 -18 0 0 1 0 0 0 1 forward_v I I I I #
coedge $-1 $328 $400 $330 $401 forward $228 $-1 #
coedge $-1 $402 $230 $403 $404 reversed $151 $-1 #
coedge $-1 $230 $402 $235 $333 reversed $151 $-1 #
coedge $-1 $236 $405 $230 $326 forward $320 $-1 #
edge $-1 $406 3.75 $335 8.75 $325 $407 forward 7 unknown #
coedge $-1 $232 $231 $402 $408 forward $96 $-1 #
coedge $-1 $403 $322 $232 $329 reversed $228 $-1 #
edge $-1 $409 -5 $331 5 $328 $410 forward 7 unknown #
coedge $-1 $239 $233 $322 $401 reversed $240 $-1 #
vertex $-1 $234 $411 #
straight-curve $-1 23.75 18 -5 -1 0 0 I I #
edge $-1 $335 -18 $337 18 $235 $412 forward 7 unknown #
coedge $-1 $405 $236 $239 $339 forward $320 $-1 #
vertex $-1 $237 $413 #
straight-curve $-1 15 -18 0 0 0 -1 I I #
vertex $-1 $238 $414 #
straight-curve $-1 15 18 0 0 0 -1 I I #
edge $-1 $242 -8.75 $415 -3.75 $334 $416 forward 7 unknown #
point $-1 15 18 -5 #
point $-1 15 -18 -5 #
face $-1 $274 $356 $22 $-1 $417 reversed single #
loop $-1 $-1 $418 $244 #
coedge $-1 $419 $246 $261 $364 forward $158 $-1 #
coedge $-1 $246 $419 $247 $347 forward $158 $-1 #
coedge $-1 $248 $247 $420 $421 forward $100 $-1 #
edge $-1 $422 -1.863639098523472093 $348 -1.277953555066321245 $345 $423 forward 7 unknown #
vertex $-1 $259 $424 #
straight-curve $-1 10 5 -5 0 1 0 I I #
coedge $-1 $420 $425 $251 $351 reversed $343 $-1 #
edge $-1 $352 2.356194490192344837 $357 6.644552431086293787 $251 $426 forward 7 unknown #
vertex $-1 $252 $427 #
ellipse-curve $-1 10 0 0 -1 -0 -0 0 0 11.18033988749894903 1 I I #
coedge $-1 $428 $253 $425 $429 forward $356 $-1 #
coedge $-1 $253 $428 $255 $359 forward $356 $-1 #
loop $-1 $-1 $355 $342 #
vertex $-1 $254 $430 #
ellipse-curve $-1 5 0 0 1 0 0 0 0 -14.14213562373095101 1 I I #
edge $-1 $369 1.25 $256 9.478756555322954469 $355 $431 forward 7 unknown #
point $-1 5 -13.22875655532295447 -5 #
point $-1 10 10 -5 #
ellipse-curve $-1 0 0 -5 0 0 1 0 19.36491673103708422 0 1 I I #
coedge $-1 $261 $260 $432 $433 forward $245 $-1 #
edge $-1 $262 1.277953555066321245 $434 1.863639098523472093 $344 $423 forward 7 unknown #
point $-1 10 -16.58312395177700083 -5 #
coedge $-1 $435 $264 $428 $436 reversed $368 $-1 #
coedge $-1 $264 $435 $266 $372 forward $368 $-1 #
loop $-1 $-1 $264 $382 #
vertex $-1 $265 $437 #
straight-curve $-1 16.25 -5 -5 1 0 0 I I #
coedge $-1 $267 $266 $438 $439 forward $268 $-1 #
edge $-1 $440 -5 $269 5 $266 $441 forward 7 unknown #
face $442 $-1 $268 $22 $-1 $443 reversed single #
point $-1 0 -5 -5 #
coedge $-1 $438 $432 $271 $376 reversed $343 $-1 #
edge $-1 $377 -18.75 $379 -8.75 $271 $444 forward 7 unknown #
vertex $-1 $272 $445 #
straight-curve $-1 0 0 0 0 0 -1 I I #
vertex $-1 $273 $446 #
straight-curve $-1 10 0 0 0 0 -1 I I #
fmesh-eye-attrib $-1 $-1 $-1 $274 #
face $447 $373 $368 $22 $-1 $448 reversed single #
plane-surface $-1 7.5 0 0 0 -1 0 0 0 -1 forward_v I I I I #
plane-surface $-1 62.5 18 0 0 -1 0 0 0 -1 forward_v I I I I #
straight-curve $-1 80 -7.75 -5 0 1 -0 I I #
straight-curve $-1 80 -13 0 0 0 -1 I I #
point $-1 80 -13 -5 #
straight-curve $-1 65 0 5 0 -1 0 I I #
point $-1 65 18 5 #
point $-1 65 -13 5 #
edge $-1 $392 -18 $305 18 $300 $449 forward 7 unknown #
vertex $-1 $391 $450 #
straight-curve $-1 46.25 18 -5 -1 0 0 I I #
straight-curve $-1 60 18 0 0 0 -1 I I #
straight-curve $-1 46.25 -18 -5 1 0 0 I I #
point $-1 60 -18 -5 #
point $-1 80 -18 -5 #
ellipse-curve $-1 45 0 5 -0 -0 -1 0 -19.36491673103708422 0 1 I I #
ellipse-curve $-1 45 0 5 0 0 1 0 -14.14213562373095101 0 1 I I #
coedge $-1 $322 $403 $405 $451 forward $228 $-1 #
edge $-1 $415 -18 $331 18 $322 $452 forward 7 unknown #
coedge $-1 $324 $323 $327 $408 reversed $151 $-1 #
coedge $-1 $400 $328 $323 $404 forward $228 $-1 #
edge $-1 $409 -18 $406 18 $403 $453 forward 7 unknown #
coedge $-1 $325 $334 $400 $451 reversed $320 $-1 #
vertex $-1 $451 $454 #
straight-curve $-1 23.75 -18 5 -1 0 0 I I #
edge $-1 $337 -8.75 $409 -3.75 $327 $455 forward 7 unknown #
vertex $-1 $329 $456 #
straight-curve $-1 20 18 0 0 0 -1 I I #
point $-1 20 18 -5 #
straight-curve $-1 15 0 5 0 1 0 I I #
point $-1 15 -18 5 #
point $-1 15 18 5 #
vertex $-1 $401 $457 #
straight-curve $-1 23.75 -18 -5 1 0 0 I I #
plane-surface $-1 5 -7.5 0 1 0 0 0 0 -1 forward_v I I I I #
coedge $-1 $425 $438 $435 $458 reversed $343 $-1 #
coedge $-1 $345 $344 $459 $460 forward $158 $-1 #
coedge $-1 $459 $350 $346 $421 reversed $343 $-1 #
edge $-1 $422 -11.58312395177700083 $352 -5 $346 $461 forward 7 unknown #
vertex $-1 $347 $462 #
ellipse-curve $-1 10 0 0 -1 -0 -0 0 0 -17.3205080756887746 1 I I #
point $-1 10 16.58312395177700083 -5 #
coedge $-1 $350 $418 $354 $429 reversed $343 $-1 #
ellipse-curve $-1 0 0 5 0 0 1 0 -14.14213562373095101 0 1 I I #
point $-1 10 10 5 #
coedge $-1 $355 $354 $366 $436 forward $356 $-1 #
edge $-1 $357 -9.478756555322954469 $463 -1.25 $354 $464 forward 7 unknown #
point $-1 5 -13.22875655532295447 5 #
straight-curve $-1 5 -3.75 -5 0 -1 0 I I #
coedge $-1 $375 $459 $363 $433 reversed $343 $-1 #
edge $-1 $379 5 $434 21.58312395177700083 $363 $465 forward 7 unknown #
vertex $-1 $433 $466 #
coedge $-1 $367 $366 $418 $458 forward $368 $-1 #
edge $-1 $463 -5 $369 5 $428 $467 forward 7 unknown #
point $-1 5 -5 -5 #
coedge $-1 $418 $375 $371 $439 reversed $343 $-1 #
edge $-1 $440 -3.75 $377 1.25 $371 $468 forward 7 unknown #
vertex $-1 $372 $469 #
straight-curve $-1 0 -5 0 0 0 -1 I I #
fmesh-eye-attrib $-1 $-1 $-1 $373 #
plane-surface $-1 0 -2.5 0 1 0 0 0 0 -1 forward_v I I I I #
straight-curve $-1 18.75 0 5 1 0 -0 I I #
point $-1 0 0 5 #
point $-1 10 0 5 #
fmesh-eye-attrib $-1 $-1 $-1 $382 #
plane-surface $-1 2.5 -5 0 0 1 0 0 0 1 forward_v I I I I #
straight-curve $-1 60 0 -5 0 -1 0 I I #
point $-1 60 18 -5 #
edge $-1 $406 -5 $415 5 $400 $470 forward 7 unknown #
straight-curve $-1 20 0 -5 0 1 -0 I I #
straight-curve $-1 20 0 5 0 -1 0 I I #
point $-1 20 -18 5 #
straight-curve $-1 23.75 18 5 1 0 -0 I I #
point $-1 20 18 5 #
point $-1 20 -18 -5 #
edge $-1 $463 11.25 $440 16.25 $435 $471 forward 7 unknown #
coedge $-1 $432 $420 $419 $460 reversed $343 $-1 #
edge $-1 $434 -0.5426391022496527272 $422 3.684231755839445732 $419 $472 forward 7 unknown #
straight-curve $-1 10 5 5 0 -1 0 I I #
point $-1 10 16.58312395177700083 5 #
vertex $-1 $436 $473 #
straight-curve $-1 5 -3.75 5 0 1 0 I I #
straight-curve $-1 10 5 5 0 -1 0 I I #
point $-1 10 -16.58312395177700083 5 #
straight-curve $-1 5 -5 0 0 0 -1 I I #
straight-curve $-1 0 -1.25 5 0 1 0 I I #
point $-1 0 -5 5 #
straight-curve $-1 20 -18 0 0 0 -1 I I #
straight-curve $-1 16.25 -5 5 -1 0 0 I I #
ellipse-curve $-1 0 0 5 -0 -0 -1 0 -19.36491673103708422 0 1 I I #
point $-1 5 -5 5 #
End-of-ACIS-data 