600 0 3 0           
91 GICL ACIS Healer - Source: /gicl/data5/repository/giclLogo/giclShortSolidTogether.sat - 6 0 18 ACIS 6.0.3 Solaris 24 Sat Apr 13 00:28:22 2002 
1 9.999999999999999547e-07 1.000000000000000036e-10 
body $3 $4 $-1 $-1 #
body $5 $6 $-1 $-1 #
body $7 $8 $-1 $-1 #
rgb_color-st-attrib $-1 $-1 $-1 $0 0 0 1 #
lump $-1 $9 $10 $0 #
rgb_color-st-attrib $-1 $-1 $-1 $1 1 1 0 #
lump $-1 $-1 $11 $1 #
rgb_color-st-attrib $-1 $-1 $-1 $2 0 0 1 #
lump $-1 $-1 $12 $2 #
lump $-1 $13 $14 $0 #
shell $-1 $-1 $-1 $15 $-1 $4 #
shell $-1 $-1 $-1 $16 $-1 $6 #
shell $-1 $-1 $-1 $17 $-1 $8 #
lump $-1 $18 $19 $0 #
shell $-1 $-1 $-1 $20 $-1 $9 #
face $-1 $21 $22 $10 $-1 $23 reversed single #
face $-1 $24 $25 $11 $-1 $26 forward single #
face $-1 $-1 $-1 $12 $-1 $27 forward single #
lump $-1 $-1 $28 $0 #
shell $-1 $-1 $-1 $29 $-1 $13 #
face $-1 $30 $31 $14 $-1 $32 forward single #
face $-1 $33 $34 $10 $-1 $35 forward single #
loop $-1 $-1 $36 $15 #
plane-surface $-1 30 0 -10 0 0 1 1 0 0 forward_v I I I I #
face $-1 $-1 $37 $11 $-1 $38 forward single #
loop $-1 $-1 $39 $16 #
plane-surface $-1 0 0 -10 0 0 1 1 0 0 forward_v I I I I #
sphere-surface $-1 17.5 25 -10 5 1 0 0 0 0 1 forward_v I I I I #
shell $-1 $-1 $-1 $40 $-1 $18 #
face $-1 $41 $42 $19 $-1 $23 reversed single #
face $-1 $43 $44 $14 $-1 $45 reversed single #
loop $-1 $-1 $46 $20 #
plane-surface $-1 30 0 0 0 0 1 1 0 0 forward_v I I I I #
face $-1 $47 $48 $10 $-1 $49 forward single #
loop $-1 $-1 $50 $21 #
plane-surface $-1 55 0 -5 1 0 0 0 0 -1 forward_v I I I I #
coedge $-1 $51 $52 $53 $54 reversed $22 $-1 #
loop $-1 $-1 $55 $24 #
sphere-surface $-1 17.5 25 -10 50 1 0 0 0 0 1 forward_v I I I I #
coedge $-1 $39 $39 $55 $56 reversed $25 $-1 #
face $57 $58 $59 $28 $-1 $60 reversed single #
face $-1 $61 $62 $19 $-1 $63 reversed single #
loop $-1 $-1 $64 $29 #
face $65 $66 $67 $14 $-1 $68 reversed single #
loop $-1 $-1 $69 $30 #
plane-surface $-1 65 0 -5 -1 0 0 0 0 1 forward_v I I I I #
coedge $-1 $70 $71 $72 $73 reversed $31 $-1 #
face $74 $75 $76 $10 $-1 $35 forward single #
loop $-1 $-1 $77 $33 #
sphere-surface $-1 45 0 -5 20 1 0 0 0 0 1 forward_v I I I I #
coedge $-1 $78 $79 $80 $81 forward $34 $-1 #
coedge $-1 $80 $36 $77 $82 reversed $22 $-1 #
coedge $-1 $36 $80 $83 $84 reversed $22 $-1 #
coedge $-1 $85 $86 $36 $54 forward $76 $-1 #
edge $-1 $87 -16.58312395177700083 $88 -10 $53 $89 forward 7 unknown #
coedge $-1 $55 $55 $39 $56 forward $37 $-1 #
edge $-1 $90 -3.141592653589793116 $90 3.141592653589793116 $55 $91 forward 7 unknown #
fmesh-eye-attrib $-1 $-1 $-1 $40 #
face $-1 $92 $93 $28 $-1 $94 reversed single #
loop $-1 $-1 $95 $40 #
plane-surface $-1 15 0 -5 1 0 0 0 0 -1 forward_v I I I I #
face $-1 $96 $97 $19 $-1 $98 forward single #
loop $-1 $-1 $99 $41 #
sphere-surface $-1 0 0 -5 15 1 0 0 0 0 1 forward_v I I I I #
coedge $-1 $100 $101 $102 $103 reversed $42 $-1 #
fmesh-eye-attrib $-1 $-1 $-1 $43 #
face $104 $105 $106 $14 $-1 $107 reversed single #
loop $-1 $-1 $108 $43 #
plane-surface $-1 72.5 -13 -5 0 -1 0 0 0 -1 forward_v I I I I #
coedge $-1 $109 $110 $111 $112 forward $44 $-1 #
coedge $-1 $113 $46 $114 $115 reversed $31 $-1 #
coedge $-1 $46 $116 $117 $118 reversed $31 $-1 #
coedge $-1 $119 $120 $46 $73 forward $121 $-1 #
edge $-1 $122 -33.75 $123 -13.75 $72 $124 forward 7 unknown #
fmesh-eye-attrib $-1 $-1 $-1 $47 #
face $125 $126 $127 $10 $-1 $128 reversed single #
loop $-1 $-1 $53 $47 #
coedge $-1 $129 $130 $51 $82 forward $48 $-1 #
coedge $-1 $131 $50 $130 $132 reversed $34 $-1 #
coedge $-1 $50 $131 $133 $134 forward $34 $-1 #
coedge $-1 $52 $51 $50 $81 reversed $22 $-1 #
edge $-1 $135 10 $136 16.58312395177700083 $50 $137 forward 7 unknown #
edge $-1 $136 -0.5426391022496527272 $87 3.684231755839445732 $77 $138 forward 7 unknown #
coedge $-1 $133 $139 $52 $84 forward $127 $-1 #
edge $-1 $88 2.356194490192344837 $135 7.068583470577034511 $83 $140 forward 7 unknown #
coedge $-1 $141 $53 $139 $142 forward $76 $-1 #
coedge $-1 $53 $141 $129 $143 reversed $76 $-1 #
vertex $-1 $143 $144 #
vertex $-1 $142 $145 #
straight-curve $-1 55 0 -10 0 1 0 I I #
vertex $-1 $56 $146 #
ellipse-curve $-1 17.5 25 -10 -0 -0 -1 0 -50 0 1 I I #
face $-1 $147 $148 $28 $-1 $32 forward single #
loop $-1 $-1 $149 $58 #
plane-surface $-1 17.5 18 -5 0 -1 0 0 0 -1 forward_v I I I I #
coedge $-1 $150 $151 $152 $153 forward $59 $-1 #
face $-1 $154 $155 $19 $-1 $156 forward single #
loop $-1 $-1 $157 $61 #
plane-surface $-1 10 10 5 1 0 0 0 0 -1 forward_v I I I I #
coedge $-1 $158 $159 $160 $161 forward $62 $-1 #
coedge $-1 $162 $64 $163 $164 reversed $42 $-1 #
coedge $-1 $64 $165 $166 $167 reversed $42 $-1 #
coedge $-1 $168 $169 $64 $103 forward $170 $-1 #
edge $-1 $171 8.75 $172 18.75 $102 $173 forward 7 unknown #
fmesh-eye-attrib $-1 $-1 $-1 $66 #
face $-1 $174 $121 $14 $-1 $175 reversed single #
loop $-1 $-1 $176 $66 #
plane-surface $-1 80 -15.5 -5 -1 0 0 0 0 1 forward_v I I I I #
coedge $-1 $177 $178 $179 $180 forward $67 $-1 #
coedge $-1 $181 $69 $182 $183 reversed $44 $-1 #
coedge $-1 $69 $181 $177 $184 forward $44 $-1 #
coedge $-1 $179 $185 $69 $112 reversed $186 $-1 #
edge $-1 $187 -13 $188 18 $69 $189 forward 7 unknown #
coedge $-1 $190 $70 $191 $192 reversed $31 $-1 #
coedge $-1 $193 $194 $70 $115 forward $106 $-1 #
edge $-1 $195 5.25 $122 10.25 $114 $196 forward 7 unknown #
coedge $-1 $71 $190 $197 $198 reversed $31 $-1 #
coedge $-1 $199 $200 $71 $118 forward $201 $-1 #
edge $-1 $123 -18 $202 18 $117 $203 forward 7 unknown #
coedge $-1 $204 $72 $200 $205 forward $121 $-1 #
coedge $-1 $72 $204 $193 $206 reversed $121 $-1 #
loop $-1 $-1 $204 $105 #
vertex $-1 $206 $207 #
vertex $-1 $205 $208 #
straight-curve $-1 46.25 -18 0 -1 0 0 I I #
fmesh-eye-attrib $-1 $-1 $-1 $75 #
face $-1 $-1 $209 $10 $-1 $32 forward single #
loop $-1 $-1 $83 $75 #
sphere-surface $-1 45 0 -5 15 1 0 0 0 0 1 forward_v I I I I #
coedge $-1 $210 $77 $86 $143 forward $48 $-1 #
coedge $-1 $77 $210 $78 $132 forward $48 $-1 #
coedge $-1 $79 $78 $211 $212 forward $34 $-1 #
edge $-1 $213 -1.863639098523472093 $136 -1.277953555066321245 $130 $214 forward 7 unknown #
coedge $-1 $215 $83 $79 $134 reversed $127 $-1 #
edge $-1 $216 1.107148717794090409 $135 2.034443935795702707 $79 $217 forward 7 unknown #
vertex $-1 $84 $218 #
vertex $-1 $82 $219 #
straight-curve $-1 55 0 -10 0 1 0 I I #
ellipse-curve $-1 45 0 -10 0 0 1 0 19.36491673103708422 0 1 I I #
coedge $-1 $83 $215 $85 $142 reversed $127 $-1 #
ellipse-curve $-1 45 0 -10 -0 -0 -1 0 14.14213562373095101 0 1 I I #
coedge $-1 $86 $85 $220 $221 forward $76 $-1 #
edge $-1 $88 -2.034443935795702707 $222 -1.107148717794090409 $85 $217 forward 7 unknown #
edge $-1 $87 1.277953555066321245 $223 1.863639098523472093 $129 $214 forward 7 unknown #
point $-1 55 -16.58312395177700083 -10 #
point $-1 55 -10 -10 #
point $-1 17.50000000000000711 75 -10 #
face $-1 $224 $225 $28 $-1 $226 reversed single #
loop $-1 $-1 $227 $92 #
coedge $-1 $228 $229 $230 $231 forward $93 $-1 #
coedge $-1 $232 $95 $233 $234 reversed $59 $-1 #
coedge $-1 $95 $232 $228 $235 forward $59 $-1 #
coedge $-1 $230 $236 $95 $153 reversed $237 $-1 #
edge $-1 $238 -18 $239 18 $95 $240 forward 7 unknown #
face $-1 $241 $242 $19 $-1 $98 forward single #
loop $-1 $-1 $243 $96 #
sphere-surface $-1 0 0 -5 20 1 0 0 0 0 1 forward_v I I I I #
coedge $-1 $244 $245 $246 $247 forward $97 $-1 #
coedge $-1 $248 $99 $245 $249 reversed $62 $-1 #
coedge $-1 $99 $248 $250 $251 forward $62 $-1 #
coedge $-1 $252 $246 $99 $161 reversed $42 $-1 #
edge $-1 $253 2.780225529683085561 $254 7.068583470577034511 $99 $255 forward 7 unknown #
coedge $-1 $246 $100 $243 $256 reversed $42 $-1 #
coedge $-1 $257 $258 $100 $164 forward $242 $-1 #
edge $-1 $259 -21.58312395177700083 $171 -5 $163 $260 forward 7 unknown #
coedge $-1 $101 $252 $261 $262 reversed $42 $-1 #
coedge $-1 $263 $264 $101 $167 forward $265 $-1 #
edge $-1 $172 -1.25 $266 3.75 $166 $267 forward 7 unknown #
coedge $-1 $268 $102 $264 $269 reversed $170 $-1 #
coedge $-1 $102 $268 $257 $270 forward $170 $-1 #
loop $-1 $-1 $102 $271 #
vertex $-1 $103 $272 #
vertex $-1 $103 $273 #
straight-curve $-1 18.75 0 -10 -1 0 0 I I #
face $-1 $274 $201 $14 $-1 $275 reversed single #
plane-surface $-1 62.5 -18 -5 0 1 0 0 0 1 forward_v I I I I #
coedge $-1 $194 $193 $276 $277 forward $106 $-1 #
coedge $-1 $191 $108 $110 $184 reversed $67 $-1 #
coedge $-1 $108 $191 $194 $278 forward $67 $-1 #
coedge $-1 $276 $111 $108 $180 reversed $186 $-1 #
edge $-1 $279 -28.75 $187 -13.75 $108 $280 forward 7 unknown #
coedge $-1 $110 $109 $190 $281 forward $44 $-1 #
coedge $-1 $282 $197 $109 $183 forward $283 $-1 #
edge $-1 $284 -5 $188 5 $109 $285 forward 7 unknown #
edge $-1 $286 -5 $187 5 $110 $287 forward 7 unknown #
coedge $-1 $111 $288 $282 $289 reversed $186 $-1 #
loop $-1 $-1 $179 $290 #
vertex $-1 $180 $291 #
vertex $-1 $289 $292 #
straight-curve $-1 65 0 -10 0 1 0 I I #
coedge $-1 $116 $113 $181 $281 reversed $31 $-1 #
coedge $-1 $178 $177 $113 $192 forward $67 $-1 #
edge $-1 $286 13.75 $195 28.75 $191 $293 forward 7 unknown #
coedge $-1 $176 $114 $120 $206 forward $106 $-1 #
coedge $-1 $114 $176 $178 $278 reversed $106 $-1 #
vertex $-1 $278 $294 #
straight-curve $-1 80 -7.75 0 0 -1 0 I I #
coedge $-1 $182 $295 $116 $198 forward $283 $-1 #
edge $-1 $202 13.75 $284 18.75 $197 $296 forward 7 unknown #
coedge $-1 $297 $117 $295 $298 forward $201 $-1 #
coedge $-1 $117 $297 $119 $205 reversed $201 $-1 #
loop $-1 $-1 $297 $174 #
vertex $-1 $298 $299 #
straight-curve $-1 60 0 0 0 1 0 I I #
coedge $-1 $120 $119 $300 $301 forward $121 $-1 #
edge $-1 $123 -5 $302 5 $200 $303 forward 7 unknown #
edge $-1 $122 -5 $304 5 $193 $305 forward 7 unknown #
point $-1 80 -18 0 #
point $-1 60 -18 0 #
loop $-1 $-1 $306 $126 #
coedge $-1 $130 $129 $307 $308 forward $48 $-1 #
coedge $-1 $307 $306 $131 $212 reversed $209 $-1 #
edge $-1 $213 -16.58312395177700083 $216 -10 $131 $309 forward 7 unknown #
vertex $-1 $132 $310 #
ellipse-curve $-1 55 0 -5 -1 -0 -0 0 0 -17.3205080756887746 1 I I #
coedge $-1 $139 $133 $306 $311 forward $127 $-1 #
vertex $-1 $134 $312 #
ellipse-curve $-1 55 0 -5 -1 -0 -0 0 0 11.18033988749894903 1 I I #
point $-1 55 10 -10 #
point $-1 55 16.58312395177700083 -10 #
coedge $-1 $306 $307 $141 $221 reversed $209 $-1 #
edge $-1 $222 10 $223 16.58312395177700083 $141 $313 forward 7 unknown #
vertex $-1 $311 $314 #
vertex $-1 $221 $315 #
face $-1 $316 $317 $28 $-1 $318 reversed single #
loop $-1 $-1 $319 $147 #
plane-surface $-1 20 0 -5 -1 0 0 0 0 1 forward_v I I I I #
coedge $-1 $320 $321 $322 $323 reversed $148 $-1 #
coedge $-1 $324 $149 $151 $235 reversed $93 $-1 #
coedge $-1 $149 $324 $325 $326 forward $93 $-1 #
coedge $-1 $327 $152 $149 $231 reversed $237 $-1 #
edge $-1 $328 3.75 $238 8.75 $149 $329 forward 7 unknown #
coedge $-1 $151 $150 $321 $330 forward $59 $-1 #
coedge $-1 $331 $322 $150 $234 forward $317 $-1 #
edge $-1 $332 -5 $239 5 $150 $333 forward 7 unknown #
edge $-1 $334 -5 $238 5 $228 $335 forward 7 unknown #
coedge $-1 $152 $327 $331 $336 reversed $237 $-1 #
loop $-1 $-1 $230 $316 #
vertex $-1 $231 $337 #
vertex $-1 $153 $338 #
straight-curve $-1 15 0 -10 0 -1 0 I I #
face $-1 $339 $340 $19 $-1 $32 forward single #
loop $-1 $-1 $163 $154 #
coedge $-1 $341 $342 $162 $256 forward $155 $-1 #
coedge $-1 $343 $157 $342 $344 reversed $97 $-1 #
coedge $-1 $157 $343 $158 $249 forward $97 $-1 #
coedge $-1 $160 $162 $157 $247 reversed $42 $-1 #
edge $-1 $254 5 $345 11.58312395177700083 $157 $346 forward 7 unknown #
coedge $-1 $159 $158 $347 $348 forward $62 $-1 #
edge $-1 $349 1.107148717794090409 $254 2.034443935795702707 $245 $350 forward 7 unknown #
coedge $-1 $351 $352 $159 $251 reversed $353 $-1 #
edge $-1 $354 -1.932163450701604557 $253 -1.209429202888188781 $159 $355 forward 7 unknown #
coedge $-1 $165 $160 $352 $356 reversed $42 $-1 #
vertex $-1 $356 $357 #
vertex $-1 $247 $358 #
ellipse-curve $-1 0 0 -10 -0 -0 -1 0 14.14213562373095101 0 1 I I #
edge $-1 $345 -0.5426391022496527272 $259 3.684231755839445732 $243 $359 forward 7 unknown #
coedge $-1 $360 $163 $169 $270 reversed $242 $-1 #
coedge $-1 $163 $360 $341 $361 reversed $242 $-1 #
vertex $-1 $361 $362 #
straight-curve $-1 10 5 -10 0 1 0 I I #
coedge $-1 $363 $364 $165 $262 forward $365 $-1 #
edge $-1 $266 -16.25 $366 -11.25 $261 $367 forward 7 unknown #
coedge $-1 $368 $166 $364 $369 reversed $265 $-1 #
coedge $-1 $166 $368 $168 $269 forward $265 $-1 #
loop $-1 $-1 $166 $370 #
vertex $-1 $167 $371 #
straight-curve $-1 0 -1.25 -10 0 -1 0 I I #
coedge $-1 $169 $168 $372 $373 forward $170 $-1 #
edge $-1 $374 -5 $172 5 $168 $375 forward 7 unknown #
edge $-1 $376 -5 $171 5 $257 $377 forward 7 unknown #
face $378 $379 $170 $19 $-1 $380 reversed single #
point $-1 10 0 -10 #
point $-1 0 0 -10 #
face $-1 $290 $283 $14 $-1 $381 reversed single #
plane-surface $-1 60 0 -5 1 0 0 0 0 -1 forward_v I I I I #
coedge $-1 $300 $179 $176 $277 reversed $186 $-1 #
edge $-1 $304 -10.25 $279 -5.25 $176 $382 forward 7 unknown #
edge $-1 $195 -5 $279 5 $194 $383 forward 7 unknown #
vertex $-1 $277 $384 #
straight-curve $-1 51.25 -13 -10 -1 0 0 I I #
edge $-1 $284 -18 $286 13 $181 $385 forward 7 unknown #
coedge $-1 $295 $182 $185 $289 forward $283 $-1 #
loop $-1 $-1 $282 $274 #
vertex $-1 $183 $386 #
straight-curve $-1 65 18 -5 0 0 -1 I I #
vertex $-1 $184 $387 #
straight-curve $-1 65 -13 -5 -0 -0 -1 I I #
coedge $-1 $185 $300 $297 $388 reversed $186 $-1 #
edge $-1 $188 -18.75 $389 -13.75 $282 $390 forward 7 unknown #
face $-1 $-1 $186 $14 $-1 $23 reversed single #
point $-1 65 -13 -10 #
point $-1 65 18 -10 #
straight-curve $-1 51.25 -13 0 1 0 0 I I #
point $-1 80 -13 0 #
coedge $-1 $197 $282 $199 $298 reversed $283 $-1 #
straight-curve $-1 46.25 18 0 1 0 0 I I #
coedge $-1 $200 $199 $288 $388 forward $201 $-1 #
edge $-1 $202 -5 $389 5 $295 $391 forward 7 unknown #
point $-1 60 18 0 #
coedge $-1 $288 $276 $204 $301 reversed $186 $-1 #
edge $-1 $302 13.75 $304 33.75 $204 $392 forward 7 unknown #
vertex $-1 $301 $393 #
straight-curve $-1 60 -18 -5 0 0 -1 I I #
vertex $-1 $301 $394 #
straight-curve $-1 80 -18 -5 0 0 -1 I I #
coedge $-1 $211 $220 $215 $311 reversed $209 $-1 #
coedge $-1 $220 $211 $210 $308 reversed $209 $-1 #
edge $-1 $223 -0.5426391022496527272 $213 3.684231755839445732 $210 $395 forward 7 unknown #
straight-curve $-1 55 0 0 0 -1 0 I I #
point $-1 55 16.58312395177700083 0 #
edge $-1 $216 2.356194490192344837 $222 7.068583470577034511 $215 $396 forward 7 unknown #
point $-1 55 10 0 #
straight-curve $-1 55 0 0 0 -1 0 I I #
point $-1 55 -10 0 #
point $-1 55 -16.58312395177700083 0 #
face $-1 $-1 $237 $28 $-1 $23 reversed single #
loop $-1 $-1 $331 $224 #
plane-surface $-1 17.5 -18 -5 0 1 0 0 0 1 forward_v I I I I #
coedge $-1 $325 $397 $327 $398 forward $225 $-1 #
coedge $-1 $399 $227 $400 $401 reversed $148 $-1 #
coedge $-1 $227 $399 $232 $330 reversed $148 $-1 #
coedge $-1 $233 $402 $227 $323 forward $317 $-1 #
edge $-1 $403 3.75 $332 8.75 $322 $404 forward 7 unknown #
coedge $-1 $229 $228 $399 $405 forward $93 $-1 #
coedge $-1 $400 $319 $229 $326 reversed $225 $-1 #
edge $-1 $406 -5 $328 5 $325 $407 forward 7 unknown #
coedge $-1 $236 $230 $319 $398 reversed $237 $-1 #
vertex $-1 $231 $408 #
straight-curve $-1 23.75 18 -10 -1 0 0 I I #
edge $-1 $332 -18 $334 18 $232 $409 forward 7 unknown #
coedge $-1 $402 $233 $236 $336 forward $317 $-1 #
vertex $-1 $234 $410 #
straight-curve $-1 15 -18 -5 0 0 -1 I I #
vertex $-1 $235 $411 #
straight-curve $-1 15 18 -5 0 0 -1 I I #
edge $-1 $239 -8.75 $412 -3.75 $331 $413 forward 7 unknown #
point $-1 15 18 -10 #
point $-1 15 -18 -10 #
face $-1 $271 $353 $19 $-1 $414 reversed single #
loop $-1 $-1 $415 $241 #
coedge $-1 $416 $243 $258 $361 forward $155 $-1 #
coedge $-1 $243 $416 $244 $344 forward $155 $-1 #
coedge $-1 $245 $244 $417 $418 forward $97 $-1 #
edge $-1 $419 -1.863639098523472093 $345 -1.277953555066321245 $342 $420 forward 7 unknown #
vertex $-1 $256 $421 #
straight-curve $-1 10 5 -10 0 1 0 I I #
coedge $-1 $417 $422 $248 $348 reversed $340 $-1 #
edge $-1 $349 2.356194490192344837 $354 6.644552431086293787 $248 $423 forward 7 unknown #
vertex $-1 $249 $424 #
ellipse-curve $-1 10 0 -5 -1 -0 -0 0 0 11.18033988749894903 1 I I #
coedge $-1 $425 $250 $422 $426 forward $353 $-1 #
coedge $-1 $250 $425 $252 $356 forward $353 $-1 #
loop $-1 $-1 $352 $339 #
vertex $-1 $251 $427 #
ellipse-curve $-1 5 0 -5 1 0 0 0 0 -14.14213562373095101 1 I I #
edge $-1 $366 1.25 $253 9.478756555322954469 $352 $428 forward 7 unknown #
point $-1 5 -13.22875655532295447 -10 #
point $-1 10 10 -10 #
ellipse-curve $-1 0 0 -10 0 0 1 0 19.36491673103708422 0 1 I I #
coedge $-1 $258 $257 $429 $430 forward $242 $-1 #
edge $-1 $259 1.277953555066321245 $431 1.863639098523472093 $341 $420 forward 7 unknown #
point $-1 10 -16.58312395177700083 -10 #
coedge $-1 $432 $261 $425 $433 reversed $365 $-1 #
coedge $-1 $261 $432 $263 $369 forward $365 $-1 #
loop $-1 $-1 $261 $379 #
vertex $-1 $262 $434 #
straight-curve $-1 16.25 -5 -10 1 0 0 I I #
coedge $-1 $264 $263 $435 $436 forward $265 $-1 #
edge $-1 $437 -5 $266 5 $263 $438 forward 7 unknown #
face $439 $-1 $265 $19 $-1 $440 reversed single #
point $-1 0 -5 -10 #
coedge $-1 $435 $429 $268 $373 reversed $340 $-1 #
edge $-1 $374 -18.75 $376 -8.75 $268 $441 forward 7 unknown #
vertex $-1 $269 $442 #
straight-curve $-1 0 0 -5 0 0 -1 I I #
vertex $-1 $270 $443 #
straight-curve $-1 10 0 -5 0 0 -1 I I #
fmesh-eye-attrib $-1 $-1 $-1 $271 #
face $444 $370 $365 $19 $-1 $445 reversed single #
plane-surface $-1 7.5 0 -5 0 -1 0 0 0 -1 forward_v I I I I #
plane-surface $-1 62.5 18 -5 0 -1 0 0 0 -1 forward_v I I I I #
straight-curve $-1 80 -7.75 -10 0 1 0 I I #
straight-curve $-1 80 -13 -5 0 0 -1 I I #
point $-1 80 -13 -10 #
straight-curve $-1 65 0 0 0 -1 0 I I #
point $-1 65 18 0 #
point $-1 65 -13 0 #
edge $-1 $389 -18 $302 18 $297 $446 forward 7 unknown #
vertex $-1 $388 $447 #
straight-curve $-1 46.25 18 -10 -1 0 0 I I #
straight-curve $-1 60 18 -5 0 0 -1 I I #
straight-curve $-1 46.25 -18 -10 1 0 0 I I #
point $-1 60 -18 -10 #
point $-1 80 -18 -10 #
ellipse-curve $-1 45 0 0 -0 -0 -1 0 -19.36491673103708422 0 1 I I #
ellipse-curve $-1 45 0 0 0 0 1 0 -14.14213562373095101 0 1 I I #
coedge $-1 $319 $400 $402 $448 forward $225 $-1 #
edge $-1 $412 -18 $328 18 $319 $449 forward 7 unknown #
coedge $-1 $321 $320 $324 $405 reversed $148 $-1 #
coedge $-1 $397 $325 $320 $401 forward $225 $-1 #
edge $-1 $406 -18 $403 18 $400 $450 forward 7 unknown #
coedge $-1 $322 $331 $397 $448 reversed $317 $-1 #
vertex $-1 $448 $451 #
straight-curve $-1 23.75 -18 0 -1 0 0 I I #
edge $-1 $334 -8.75 $406 -3.75 $324 $452 forward 7 unknown #
vertex $-1 $326 $453 #
straight-curve $-1 20 18 -5 0 0 -1 I I #
point $-1 20 18 -10 #
straight-curve $-1 15 0 0 0 1 0 I I #
point $-1 15 -18 0 #
point $-1 15 18 0 #
vertex $-1 $398 $454 #
straight-curve $-1 23.75 -18 -10 1 0 0 I I #
plane-surface $-1 5 -7.5 -5 1 0 0 0 0 -1 forward_v I I I I #
coedge $-1 $422 $435 $432 $455 reversed $340 $-1 #
coedge $-1 $342 $341 $456 $457 forward $155 $-1 #
coedge $-1 $456 $347 $343 $418 reversed $340 $-1 #
edge $-1 $419 -11.58312395177700083 $349 -5 $343 $458 forward 7 unknown #
vertex $-1 $344 $459 #
ellipse-curve $-1 10 0 -5 -1 -0 -0 0 0 -17.3205080756887746 1 I I #
point $-1 10 16.58312395177700083 -10 #
coedge $-1 $347 $415 $351 $426 reversed $340 $-1 #
ellipse-curve $-1 0 0 0 0 0 1 0 -14.14213562373095101 0 1 I I #
point $-1 10 10 0 #
coedge $-1 $352 $351 $363 $433 forward $353 $-1 #
edge $-1 $354 -9.478756555322954469 $460 -1.25 $351 $461 forward 7 unknown #
point $-1 5 -13.22875655532295447 0 #
straight-curve $-1 5 -3.75 -10 0 -1 0 I I #
coedge $-1 $372 $456 $360 $430 reversed $340 $-1 #
edge $-1 $376 5 $431 21.58312395177700083 $360 $462 forward 7 unknown #
vertex $-1 $430 $463 #
coedge $-1 $364 $363 $415 $455 forward $365 $-1 #
edge $-1 $460 -5 $366 5 $425 $464 forward 7 unknown #
point $-1 5 -5 -10 #
coedge $-1 $415 $372 $368 $436 reversed $340 $-1 #
edge $-1 $437 -3.75 $374 1.25 $368 $465 forward 7 unknown #
vertex $-1 $369 $466 #
straight-curve $-1 0 -5 -5 0 0 -1 I I #
fmesh-eye-attrib $-1 $-1 $-1 $370 #
plane-surface $-1 0 -2.5 -5 1 0 0 0 0 -1 forward_v I I I I #
straight-curve $-1 18.75 0 0 1 0 0 I I #
point $-1 0 0 0 #
point $-1 10 0 0 #
fmesh-eye-attrib $-1 $-1 $-1 $379 #
plane-surface $-1 2.5 -5 -5 0 1 0 0 0 1 forward_v I I I I #
straight-curve $-1 60 0 -10 0 -1 0 I I #
point $-1 60 18 -10 #
edge $-1 $403 -5 $412 5 $397 $467 forward 7 unknown #
straight-curve $-1 20 0 -10 0 1 0 I I #
straight-curve $-1 20 0 0 0 -1 0 I I #
point $-1 20 -18 0 #
straight-curve $-1 23.75 18 0 1 0 0 I I #
point $-1 20 18 0 #
point $-1 20 -18 -10 #
edge $-1 $460 11.25 $437 16.25 $432 $468 forward 7 unknown #
coedge $-1 $429 $417 $416 $457 reversed $340 $-1 #
edge $-1 $431 -0.5426391022496527272 $419 3.684231755839445732 $416 $469 forward 7 unknown #
straight-curve $-1 10 5 0 0 -1 0 I I #
point $-1 10 16.58312395177700083 0 #
vertex $-1 $433 $470 #
straight-curve $-1 5 -3.75 0 0 1 0 I I #
straight-curve $-1 10 5 0 0 -1 0 I I #
point $-1 10 -16.58312395177700083 0 #
straight-curve $-1 5 -5 -5 0 0 -1 I I #
straight-curve $-1 0 -1.25 0 0 1 0 I I #
point $-1 0 -5 0 #
straight-curve $-1 20 -18 -5 0 0 -1 I I #
straight-curve $-1 16.25 -5 0 -1 0 0 I I #
ellipse-curve $-1 0 0 0 -0 -0 -1 0 -19.36491673103708422 0 1 I I #
point $-1 5 -5 0 #
End-of-ACIS-data 