600 0 1 0           
114 GICL Pro/E ACIS Translator - Source: f:/data5/repository/PTC/V20/web_demos/models/thread-turn/blade/work.prt - 6 0 13 ACIS 6.0.3 NT 24 Thu Apr 04 13:09:32 2002 
1 9.9999999999999995e-007 1e-010 
body $-1 $1 $-1 $2 #
lump $-1 $-1 $3 $0 #
transform $-1 1 0 0 0 1 0 0 0 1 0 0 0 25.399999999999999 no_rotate no_reflect no_shear #
shell $-1 $-1 $-1 $4 $-1 $1 #
face $-1 $5 $6 $3 $-1 $7 forward single #
face $-1 $8 $9 $3 $-1 $10 forward single #
loop $-1 $-1 $11 $4 #
plane-surface $-1 0 -4.8999999999999995 0 0 -1 0 -1 0 0 forward_v I I I I #
face $-1 $12 $13 $3 $-1 $14 forward single #
loop $-1 $-1 $15 $5 #
torus-surface $-1 0 -4.54 0 0 -1 0 1.0499999999999998 0.35999999999999999 -1 0 0 forward_v I I I I #
coedge $-1 $16 $16 $17 $18 forward $6 $-1 #
face $-1 $19 $20 $3 $-1 $21 reversed single #
loop $-1 $-1 $22 $8 #
cone-surface $-1 0 0.61249999999999993 0 0 -1 0 -1.4099999999999999 0 0 1 I I 0 1 1.4099999999999999 forward I I I I #
coedge $-1 $23 $24 $25 $26 forward $9 $-1 #
coedge $-1 $11 $11 $27 $28 reversed $6 $-1 #
coedge $-1 $24 $23 $11 $18 reversed $9 $-1 #
edge $-1 $29 0 $30 3.1415926535897927 $11 $31 forward 7 unknown #
face $-1 $32 $33 $3 $-1 $34 forward single #
loop $-1 $-1 $35 $12 #
torus-surface $-1 0 -3.6999999999999997 0 0 -1 0 1.77 0.35999999999999999 -1 0 0 forward_v I I I I #
coedge $-1 $36 $37 $38 $39 forward $13 $-1 #
coedge $-1 $17 $15 $40 $41 reversed $9 $-1 #
coedge $-1 $15 $17 $42 $43 forward $9 $-1 #
coedge $-1 $37 $36 $15 $26 reversed $13 $-1 #
edge $-1 $44 4.9598920151212965e-032 $45 3.1415926535897931 $15 $46 forward 7 unknown #
coedge $-1 $40 $42 $16 $28 forward $47 $-1 #
edge $-1 $29 0 $30 3.1415926535897931 $16 $48 forward 7 unknown #
vertex $-1 $28 $49 #
vertex $-1 $28 $50 #
ellipse-curve $-1 2.7755575615628914e-017 -4.8999999999999995 -2.7755575615628914e-016 -8.4588420923821466e-016 -1 -3.271875475476634e-031 1.0499999999999998 -8.8817841970012523e-016 4.0613942330763874e-016 1 I I #
face $-1 $51 $52 $3 $-1 $53 forward single #
loop $-1 $-1 $54 $19 #
cone-surface $-1 0 -3.3968267768114568 0 0 -1 0 -1.5758655668633987 0 0 1 I I -0.8443460322515941 0.53579826224148019 1.5758655668633987 forward I I I I #
coedge $-1 $55 $56 $57 $58 forward $20 $-1 #
coedge $-1 $25 $22 $59 $60 reversed $13 $-1 #
coedge $-1 $22 $25 $61 $62 forward $13 $-1 #
coedge $-1 $56 $55 $22 $39 reversed $20 $-1 #
edge $-1 $63 0 $64 3.1415926535897931 $22 $65 forward 7 unknown #
coedge $-1 $66 $27 $23 $41 forward $47 $-1 #
edge $-1 $30 0 $45 1.5707963267948948 $23 $67 forward 7 unknown #
coedge $-1 $27 $66 $24 $43 reversed $47 $-1 #
edge $-1 $29 0 $44 1.5707963267948948 $24 $68 forward 7 unknown #
vertex $-1 $43 $69 #
vertex $-1 $41 $70 #
ellipse-curve $-1 0 -4.54 0 0 -1 0 1.4099999999999999 0 1.7266949588895517e-016 1 I I #
loop $-1 $-1 $27 $71 #
ellipse-curve $-1 0 -4.8999999999999995 -5.5511151231257827e-017 8.4588420923821466e-016 1 1.4830752368802348e-031 1.0499999999999998 -8.8817841970012523e-016 1.8409481838260743e-016 1 I I #
point $-1 1.0499999999999998 -4.9000000000000004 1.285836671513496e-016 #
point $-1 -1.0499999999999998 -4.9000000000000004 -2.571673343026992e-016 #
face $-1 $72 $73 $3 $-1 $74 forward single #
loop $-1 $-1 $75 $32 #
torus-surface $-1 0 -0.29000000000000004 0 0 -1 0 5.2400000000000002 0.66000000000000003 -1 0 0 forward_v I I I I #
coedge $-1 $76 $77 $78 $79 forward $33 $-1 #
coedge $-1 $38 $35 $80 $81 reversed $20 $-1 #
coedge $-1 $35 $38 $82 $83 forward $20 $-1 #
coedge $-1 $77 $76 $35 $58 reversed $33 $-1 #
edge $-1 $84 -3.9644690306172246e-032 $85 3.1415926535897931 $35 $86 forward 7 unknown #
coedge $-1 $87 $88 $36 $60 forward $89 $-1 #
edge $-1 $45 0 $64 0.8400000000000003 $36 $90 forward 7 unknown #
coedge $-1 $88 $87 $37 $62 reversed $89 $-1 #
edge $-1 $44 0 $63 0.83999999999999986 $37 $91 forward 7 unknown #
vertex $-1 $62 $92 #
vertex $-1 $60 $93 #
ellipse-curve $-1 0 -3.6999999999999997 0 0 -1 0 1.4100000000000001 0 1.726694958889552e-016 1 I I #
coedge $-1 $42 $40 $88 $94 reversed $47 $-1 #
ellipse-curve $-1 -1.0499999999999992 -4.54 -2.5716733430269911e-016 2.449212707644755e-016 -1.7928535350354786e-031 -1 -6.6613381477509392e-016 -0.36000000000000032 -9.8607613152626476e-032 1 I I #
ellipse-curve $-1 1.0499999999999992 -4.54 1.2858366715134955e-016 -1.2246063538223775e-016 -8.964267675177393e-032 1 6.6613381477509392e-016 -0.36000000000000032 4.9303806576313238e-032 1 I I #
point $-1 1.4099999999999997 -4.54 1.726694958889552e-016 #
point $-1 -1.4099999999999999 -4.54 -3.4533899177791034e-016 #
face $-1 $-1 $47 $3 $-1 $95 forward single #
face $-1 $96 $97 $3 $-1 $98 forward single #
loop $-1 $-1 $99 $51 #
cone-surface $-1 0 0.61249999999999993 0 0 -1 0 -5.8999999999999995 0 0 1 I I 0 1 5.8999999999999995 forward I I I I #
coedge $-1 $100 $101 $102 $103 forward $52 $-1 #
coedge $-1 $57 $54 $104 $105 reversed $33 $-1 #
coedge $-1 $54 $57 $106 $107 forward $33 $-1 #
coedge $-1 $101 $100 $54 $79 reversed $52 $-1 #
edge $-1 $108 5.0424714298566864e-032 $109 3.1415926535897931 $54 $110 forward 7 unknown #
coedge $-1 $111 $112 $55 $81 forward $113 $-1 #
edge $-1 $64 0 $85 1.005343442217409 $55 $114 forward 7 unknown #
coedge $-1 $112 $111 $56 $83 reversed $113 $-1 #
edge $-1 $63 -1.2335811384723928e-015 $84 1.0053434422174092 $56 $115 forward 7 unknown #
vertex $-1 $83 $116 #
vertex $-1 $81 $117 #
ellipse-curve $-1 0 -3.3960354283894265 0 0 -1 0 1.5771126255930676 0 1.9313421419947628e-016 1 I I #
coedge $-1 $61 $59 $112 $118 reversed $89 $-1 #
coedge $-1 $59 $61 $66 $94 forward $89 $-1 #
loop $-1 $-1 $88 $119 #
straight-curve $-1 -1.4099999999999999 -4.54 -3.4533899177791034e-016 0 1 0 I I #
straight-curve $-1 1.4099999999999999 -4.54 1.7266949588895517e-016 0 1 0 I I #
point $-1 1.4099999999999999 -3.7000000000000002 1.7266949588895517e-016 #
point $-1 -1.4100000000000001 -3.6999999999999997 -3.4533899177791039e-016 #
edge $-1 $44 -4.9598920151212965e-032 $45 3.1415926535897931 $66 $120 forward 7 unknown #
torus-surface $-1 0 -4.54 0 0 -1 0 1.0499999999999998 0.35999999999999999 -1 0 0 forward_v I I I I #
face $-1 $121 $122 $3 $-1 $123 reversed single #
loop $-1 $-1 $124 $72 #
torus-surface $-1 0 0.14999999999999999 0 0 -1 0 5.6999999999999993 0.19999999999999998 -1 0 0 forward_v I I I I #
coedge $-1 $125 $126 $127 $128 forward $73 $-1 #
coedge $-1 $78 $75 $129 $130 reversed $52 $-1 #
coedge $-1 $75 $78 $131 $132 forward $52 $-1 #
coedge $-1 $126 $125 $75 $103 reversed $73 $-1 #
edge $-1 $133 0 $134 3.1415926535897931 $75 $135 forward 7 unknown #
coedge $-1 $136 $137 $76 $105 forward $138 $-1 #
edge $-1 $85 0 $109 4.7569528061564803 $76 $139 forward 7 unknown #
coedge $-1 $137 $136 $77 $107 reversed $138 $-1 #
edge $-1 $84 1.0091949153306536e-016 $108 4.7569528061564794 $77 $140 forward 7 unknown #
vertex $-1 $107 $141 #
vertex $-1 $105 $142 #
ellipse-curve $-1 0 -0.8472683812860522 0 0 -1 0 5.5936268530793773 0 6.8499909851924739e-016 1 I I #
coedge $-1 $82 $80 $137 $143 reversed $113 $-1 #
coedge $-1 $80 $82 $87 $118 forward $113 $-1 #
loop $-1 $-1 $112 $144 #
ellipse-curve $-1 -1.7700000000000009 -3.6999999999999997 -4.3351064925312168e-016 -2.449212707644753e-016 4.9871481646891061e-032 1 0.36000000000000076 0 8.8171657475211287e-017 1 I I #
ellipse-curve $-1 1.7700000000000009 -3.6999999999999997 2.1675532462656084e-016 1.2246063538223765e-016 2.493574082344553e-032 -1 -0.36000000000000076 0 -4.4085828737605643e-017 1 I I #
point $-1 1.5771126255930672 -3.3960354283894256 1.9313421419947618e-016 #
point $-1 -1.5771126255930676 -3.3960354283894265 -3.8626842839895256e-016 #
edge $-1 $63 0 $64 3.1415926535897931 $87 $145 forward 7 unknown #
face $-1 $71 $89 $3 $-1 $146 forward single #
ellipse-curve $-1 0 -4.54 0 0 1 0 1.4099999999999999 0 1.7266949588895517e-016 1 I I #
face $-1 $147 $148 $3 $-1 $149 forward single #
loop $-1 $-1 $150 $96 #
plane-surface $-1 0 0.34999999999999998 0 0 -1 0 -1 0 0 forward_v I I I I #
coedge $-1 $151 $152 $150 $153 forward $97 $-1 #
coedge $-1 $102 $99 $154 $155 reversed $73 $-1 #
coedge $-1 $99 $102 $156 $157 forward $73 $-1 #
coedge $-1 $152 $151 $99 $128 reversed $97 $-1 #
edge $-1 $158 0 $159 3.1415926535897931 $99 $160 forward 7 unknown #
coedge $-1 $161 $162 $100 $130 forward $163 $-1 #
edge $-1 $109 0 $134 1.0053434422174057 $100 $164 forward 7 unknown #
coedge $-1 $162 $161 $101 $132 reversed $163 $-1 #
edge $-1 $108 -1.4655147822760771e-015 $133 1.0053434422174059 $101 $165 forward 7 unknown #
vertex $-1 $132 $166 #
vertex $-1 $130 $167 #
ellipse-curve $-1 0 -0.29000000000000015 0 0 -1 0 5.8999999999999995 0 7.225177487552025e-016 1 I I #
coedge $-1 $106 $104 $162 $168 reversed $138 $-1 #
coedge $-1 $104 $106 $111 $143 forward $138 $-1 #
loop $-1 $-1 $137 $169 #
straight-curve $-1 -1.5771126255930676 -3.3960354283894265 -3.8626842839895256e-016 -0.84434603225159399 0.53579826224148019 -2.0679830318400323e-016 I I #
straight-curve $-1 1.5771126255930676 -3.3960354283894265 1.9313421419947628e-016 0.84434603225159399 0.53579826224148019 1.0339915159200162e-016 I I #
point $-1 5.5936268530793765 -0.84726838128605264 6.8499909851924749e-016 #
point $-1 -5.5936268530793773 -0.8472683812860522 -1.3699981970384948e-015 #
edge $-1 $84 3.9644690306172246e-032 $85 3.1415926535897931 $111 $170 forward 7 unknown #
face $-1 $119 $113 $3 $-1 $171 reversed single #
ellipse-curve $-1 0 -3.6999999999999997 0 0 1 0 1.4100000000000001 0 1.726694958889552e-016 1 I I #
cone-surface $-1 0 0.61249999999999993 0 0 -1 0 -1.4099999999999999 0 0 1 I I 0 1 1.4099999999999999 forward I I I I #
face $-1 $172 $173 $3 $-1 $174 forward single #
loop $-1 $-1 $175 $121 #
torus-surface $-1 0 0.14999999999999999 0 0 -1 0 5.6999999999999993 0.19999999999999998 -1 0 0 forward_v I I I I #
coedge $-1 $176 $176 $124 $153 reversed $122 $-1 #
coedge $-1 $127 $124 $177 $178 reversed $97 $-1 #
coedge $-1 $124 $127 $179 $180 forward $97 $-1 #
edge $-1 $181 1.2246063538223773e-016 $182 3.1415926535897931 $124 $183 forward 7 unknown #
coedge $-1 $184 $185 $125 $155 forward $173 $-1 #
edge $-1 $134 0 $159 0.44000000000000017 $125 $186 forward 7 unknown #
coedge $-1 $185 $184 $126 $157 reversed $173 $-1 #
edge $-1 $133 1.1102230246251565e-016 $158 0.44000000000000011 $126 $187 forward 7 unknown #
vertex $-1 $157 $188 #
vertex $-1 $155 $189 #
ellipse-curve $-1 0 0.15000000000000005 0 0 -1 0 5.8999999999999995 0 7.225177487552025e-016 1 I I #
coedge $-1 $131 $129 $185 $190 reversed $163 $-1 #
coedge $-1 $129 $131 $136 $168 forward $163 $-1 #
loop $-1 $-1 $162 $172 #
ellipse-curve $-1 -5.2399999999999975 -0.2899999999999982 -1.2833874588058498e-015 2.4492127076447678e-016 6.791157930621594e-031 -1 -0.3536268530793798 -0.55726838128605394 -8.6610738232645007e-017 1 I I #
ellipse-curve $-1 5.2399999999999975 -0.2899999999999982 6.4169372940292489e-016 -1.2246063538223839e-016 3.395578965310797e-031 1 0.3536268530793798 -0.55726838128605394 4.3305369116322504e-017 1 I I #
point $-1 5.9000000000000004 -0.29000000000000004 7.225177487552026e-016 #
point $-1 -5.8999999999999995 -0.29000000000000015 -1.445035497510405e-015 #
edge $-1 $108 -5.0424714298566864e-032 $109 3.1415926535897931 $136 $191 forward 7 unknown #
face $-1 $144 $138 $3 $-1 $192 forward single #
ellipse-curve $-1 0 -3.3960354283894265 0 0 1 0 1.5771126255930676 0 1.9313421419947628e-016 1 I I #
torus-surface $-1 0 -3.6999999999999997 0 0 -1 0 1.77 0.35999999999999999 -1 0 0 forward_v I I I I #
face $-1 $169 $163 $3 $-1 $193 forward single #
loop $-1 $-1 $185 $147 #
cone-surface $-1 0 0.61249999999999993 0 0 -1 0 -5.8999999999999995 0 0 1 I I 0 1 5.8999999999999995 forward I I I I #
coedge $-1 $177 $179 $184 $194 forward $148 $-1 #
coedge $-1 $150 $150 $195 $196 forward $122 $-1 #
coedge $-1 $195 $175 $151 $178 forward $148 $-1 #
edge $-1 $159 0 $182 1.5707963267948948 $151 $197 forward 7 unknown #
coedge $-1 $175 $195 $152 $180 reversed $148 $-1 #
edge $-1 $158 -4.1633363423443336e-016 $181 1.5707963267948948 $152 $198 forward 7 unknown #
vertex $-1 $180 $199 #
vertex $-1 $178 $200 #
ellipse-curve $-1 0 0.34999999999999998 0 0 -1 0 5.6999999999999993 0 0 1 I I #
coedge $-1 $156 $154 $175 $194 reversed $173 $-1 #
coedge $-1 $154 $156 $161 $190 forward $173 $-1 #
straight-curve $-1 -5.8999999999999995 -0.29000000000000015 -1.445035497510405e-015 0 1 0 I I #
straight-curve $-1 5.8999999999999995 -0.29000000000000015 7.225177487552025e-016 0 1 0 I I #
point $-1 5.8999999999999995 0.14999999999999997 7.225177487552025e-016 #
point $-1 -5.8999999999999995 0.15000000000000005 -1.445035497510405e-015 #
edge $-1 $133 0 $134 3.1415926535897931 $161 $201 forward 7 unknown #
ellipse-curve $-1 0 -0.8472683812860522 0 0 1 0 5.5936268530793773 0 6.8499909851924739e-016 1 I I #
cone-surface $-1 0 -3.3968267768114568 0 0 -1 0 -1.5758655668633987 0 0 1 I I -0.8443460322515941 0.53579826224148019 1.5758655668633987 forward I I I I #
torus-surface $-1 0 -0.29000000000000004 0 0 -1 0 5.2400000000000002 0.66000000000000003 -1 0 0 forward_v I I I I #
edge $-1 $158 0 $159 3.1415926535897931 $184 $202 forward 7 unknown #
coedge $-1 $179 $177 $176 $196 reversed $148 $-1 #
edge $-1 $181 -1.2246063538223773e-016 $182 3.1415926535897931 $176 $203 forward 7 unknown #
ellipse-curve $-1 -5.6999999999999993 0.14999999999999966 -1.39605124335751e-015 2.4492127076447481e-016 1.2134066531643447e-031 -1 -0.20000000000000018 3.8857805861880479e-016 -4.8984254152895011e-017 1 I I #
ellipse-curve $-1 5.6999999999999993 0.14999999999999966 6.98025621678755e-016 -1.2246063538223741e-016 6.0670332658217235e-032 1 0.20000000000000018 3.8857805861880479e-016 2.4492127076447506e-017 1 I I #
point $-1 5.6999999999999993 0.34999999999999998 6.98025621678755e-016 #
point $-1 -5.6999999999999993 0.34999999999999998 0 #
ellipse-curve $-1 0 -0.29000000000000015 0 0 1 0 5.8999999999999995 0 7.225177487552025e-016 1 I I #
ellipse-curve $-1 0 0.15000000000000005 0 0 1 0 5.8999999999999995 0 7.225177487552025e-016 1 I I #
ellipse-curve $-1 0 0.34999999999999998 0 0 1 0 5.6999999999999993 0 0 1 I I #
End-of-ACIS-data 