600 0 1 0           
121 GICL Pro/E ACIS Translator - Source: f:/data5/repository/PTC/V20/web_demos/models/family_table/mill_fam_table.prt.6 - 6 0 13 ACIS 6.0.3 NT 24 Thu Apr 04 13:12:20 2002 
1 9.9999999999999995e-007 1e-010 
body $-1 $1 $-1 $2 #
lump $-1 $-1 $3 $0 #
transform $-1 1 0 0 0 1 0 0 0 1 0 0 0 25.399999999999999 no_rotate no_reflect no_shear #
shell $-1 $-1 $-1 $4 $-1 $1 #
face $-1 $5 $6 $3 $-1 $7 reversed single #
face $-1 $8 $9 $3 $-1 $10 reversed single #
loop $-1 $11 $12 $4 #
plane-surface $-1 0 0 0 0 1 0 1 0 0 forward_v I I I I #
face $-1 $13 $14 $3 $-1 $15 reversed single #
loop $-1 $-1 $16 $5 #
cone-surface $-1 -0.9192388155425123 0.5 -0.9192388155425113 0 1 0 -0.088388347648318377 0 0.088388347648318502 1 I I 0 1 0.125 forward I I I I #
loop $-1 $17 $18 $4 #
coedge $-1 $19 $20 $21 $22 forward $6 $-1 #
face $-1 $23 $24 $3 $-1 $25 forward single #
loop $-1 $-1 $26 $8 #
plane-surface $-1 -1.7198921644385237 0.5 -1.2901437682301036 -0.54463903501502742 0 0.83867056794542383 0.83867056794542383 0 0.54463903501502742 forward_v I I I I #
coedge $-1 $27 $21 $28 $29 reversed $9 $-1 #
loop $-1 $30 $31 $4 #
coedge $-1 $32 $33 $34 $35 forward $11 $-1 #
coedge $-1 $36 $12 $37 $38 forward $6 $-1 #
coedge $-1 $12 $39 $40 $41 forward $6 $-1 #
coedge $-1 $16 $42 $12 $22 reversed $9 $-1 #
edge $-1 $43 0 $44 2.7227136331111557 $12 $45 forward 7 unknown #
face $-1 $46 $47 $3 $-1 $48 reversed single #
loop $-1 $-1 $49 $13 #
cone-surface $-1 0 0 0 0 1 0 2.1499999999999999 0 0 1 I I 0 1 2.1499999999999999 forward I I I I #
coedge $-1 $50 $40 $51 $52 forward $14 $-1 #
coedge $-1 $42 $16 $53 $54 forward $9 $-1 #
coedge $-1 $40 $50 $16 $29 forward $14 $-1 #
edge $-1 $55 0 $43 0.5 $28 $56 forward 7 unknown #
loop $-1 $57 $58 $4 #
coedge $-1 $59 $59 $60 $61 reversed $17 $-1 #
coedge $-1 $62 $18 $63 $64 forward $11 $-1 #
coedge $-1 $18 $62 $65 $66 forward $11 $-1 #
coedge $-1 $67 $68 $18 $35 reversed $69 $-1 #
edge $-1 $70 0 $71 0.75 $18 $72 forward 7 unknown #
coedge $-1 $73 $19 $74 $75 forward $6 $-1 #
coedge $-1 $76 $77 $19 $38 reversed $78 $-1 #
edge $-1 $44 0 $79 0.87349371436008849 $19 $80 forward 7 unknown #
coedge $-1 $20 $81 $49 $82 forward $6 $-1 #
coedge $-1 $26 $28 $20 $41 reversed $14 $-1 #
edge $-1 $83 0 $43 0.87349371436008694 $20 $84 forward 7 unknown #
coedge $-1 $21 $27 $76 $85 forward $9 $-1 #
vertex $-1 $41 $86 #
vertex $-1 $38 $87 #
ellipse-curve $-1 -0.9192388155425123 0 -0.91923881554251119 0 1 0 -0.068079879376879093 0 0.10483382099317751 1 I I #
face $-1 $88 $89 $3 $-1 $90 reversed single #
loop $-1 $-1 $91 $23 #
plane-surface $-1 -0.98731869491939039 0.5 0.81440499454933368 -0.54463903501502842 0 -0.83867056794542327 -0.83867056794542316 0 0.54463903501502831 forward_v I I I I #
coedge $-1 $92 $51 $39 $82 reversed $24 $-1 #
coedge $-1 $28 $26 $93 $94 forward $14 $-1 #
coedge $-1 $49 $95 $26 $52 reversed $24 $-1 #
edge $-1 $83 0 $96 0.5 $51 $97 forward 7 unknown #
coedge $-1 $93 $98 $27 $54 reversed $99 $-1 #
edge $-1 $55 0 $100 2.7227136331111628 $53 $101 forward 7 unknown #
vertex $-1 $94 $102 #
straight-curve $-1 -0.98731869491939084 0.5 -0.81440499454933324 0 -1 0 I I #
loop $-1 $103 $104 $4 #
coedge $-1 $105 $105 $106 $107 reversed $30 $-1 #
coedge $-1 $31 $31 $108 $109 reversed $17 $-1 #
coedge $-1 $110 $111 $31 $61 forward $112 $-1 #
edge $-1 $113 0 $114 3.1415926535897931 $31 $115 forward 7 unknown #
coedge $-1 $33 $32 $116 $117 forward $11 $-1 #
coedge $-1 $118 $119 $32 $64 reversed $120 $-1 #
edge $-1 $71 0 $121 0.75 $32 $122 forward 7 unknown #
coedge $-1 $123 $124 $33 $66 reversed $125 $-1 #
edge $-1 $126 0 $70 0.75 $33 $127 forward 7 unknown #
coedge $-1 $128 $34 $124 $129 reversed $69 $-1 #
coedge $-1 $34 $128 $118 $130 forward $69 $-1 #
loop $-1 $-1 $67 $131 #
vertex $-1 $66 $132 #
vertex $-1 $64 $133 #
straight-curve $-1 -0.375 0 -0.375 0 0 1 I I #
coedge $-1 $134 $36 $135 $136 forward $6 $-1 #
coedge $-1 $137 $138 $36 $75 reversed $139 $-1 #
edge $-1 $79 9.6071219004881073e-017 $140 1.287169395187667 $36 $141 forward 7 unknown #
coedge $-1 $142 $37 $42 $85 reversed $78 $-1 #
coedge $-1 $37 $142 $137 $143 reversed $78 $-1 #
loop $-1 $-1 $76 $144 #
vertex $-1 $75 $145 #
straight-curve $-1 -0.81440499454933402 0 -0.98731869491938895 -0.54463903501502897 0 -0.83867056794542283 I I #
coedge $-1 $39 $146 $147 $148 forward $6 $-1 #
edge $-1 $149 -1.9214243800976215e-016 $83 1.2871693951876653 $39 $150 forward 7 unknown #
vertex $-1 $41 $151 #
straight-curve $-1 -1.7198921644385234 0 -1.2901437682301033 0.83867056794542383 0 0.54463903501502742 I I #
edge $-1 $100 2.4651903288156619e-032 $44 0.5 $42 $152 forward 7 unknown #
point $-1 -0.98731869491939139 0 -0.81440499454933368 #
point $-1 -0.81440499454933402 0 -0.98731869491938895 #
face $-1 $153 $154 $3 $-1 $155 reversed single #
loop $-1 $-1 $156 $46 #
cone-surface $-1 -0.91923881554251197 0.5 0.91923881554251163 0 1 0 0.088388347648318433 0 0.088388347648318447 1 I I 0 1 0.125 forward I I I I #
coedge $-1 $157 $147 $158 $159 reversed $47 $-1 #
coedge $-1 $95 $49 $160 $161 forward $24 $-1 #
coedge $-1 $162 $53 $50 $94 reversed $99 $-1 #
edge $-1 $96 0 $55 0.87349371436008694 $93 $163 forward 7 unknown #
coedge $-1 $51 $92 $162 $164 reversed $24 $-1 #
vertex $-1 $94 $165 #
straight-curve $-1 -1.7198921644385234 0 -1.2901437682301036 -4.4408920985006262e-016 1 0 I I #
coedge $-1 $53 $166 $142 $167 reversed $99 $-1 #
loop $-1 $168 $162 $169 #
vertex $-1 $54 $170 #
ellipse-curve $-1 -0.9192388155425123 0.5 -0.9192388155425113 0 1 0 -0.068079879376879093 0 0.10483382099317762 1 I I #
point $-1 -0.98731869491939139 0.5 -0.81440499454933368 #
loop $-1 $-1 $171 $4 #
coedge $-1 $172 $172 $173 $174 reversed $57 $-1 #
coedge $-1 $58 $58 $175 $176 reversed $30 $-1 #
coedge $-1 $177 $178 $58 $107 forward $179 $-1 #
edge $-1 $180 0 $181 3.1415926535897931 $58 $182 forward 7 unknown #
coedge $-1 $183 $184 $59 $109 forward $185 $-1 #
edge $-1 $114 0 $113 3.1415926535897931 $59 $186 forward 7 unknown #
coedge $-1 $187 $60 $184 $188 reversed $112 $-1 #
coedge $-1 $60 $187 $183 $189 forward $112 $-1 #
loop $-1 $-1 $110 $190 #
vertex $-1 $109 $191 #
vertex $-1 $109 $192 #
ellipse-curve $-1 -0.60104076400856543 0 0.6010407640085651 0 -1 0 -0.125 0 0 1 I I #
coedge $-1 $193 $194 $62 $117 reversed $195 $-1 #
edge $-1 $121 0 $126 0.75 $62 $196 forward 7 unknown #
coedge $-1 $197 $63 $68 $130 reversed $120 $-1 #
coedge $-1 $63 $197 $193 $198 forward $120 $-1 #
loop $-1 $-1 $118 $199 #
vertex $-1 $117 $200 #
straight-curve $-1 -0.375 0 0.375 1 0 0 I I #
coedge $-1 $201 $65 $194 $202 reversed $125 $-1 #
coedge $-1 $65 $201 $67 $129 forward $125 $-1 #
loop $-1 $-1 $123 $203 #
vertex $-1 $66 $204 #
straight-curve $-1 0.375 0 -0.375 -1 0 0 I I #
coedge $-1 $68 $67 $205 $206 forward $69 $-1 #
edge $-1 $207 0 $70 0.5 $124 $208 forward 7 unknown #
edge $-1 $209 0 $71 0.5 $68 $210 forward 7 unknown #
face $-1 $203 $69 $3 $-1 $211 reversed single #
point $-1 -0.375 0 -0.375 #
point $-1 -0.375 0 0.375 #
coedge $-1 $212 $73 $213 $214 forward $6 $-1 #
coedge $-1 $215 $216 $73 $136 reversed $217 $-1 #
edge $-1 $140 0 $218 0.8734937143600886 $73 $219 forward 7 unknown #
coedge $-1 $220 $74 $77 $143 forward $139 $-1 #
coedge $-1 $74 $220 $215 $221 reversed $139 $-1 #
loop $-1 $-1 $220 $222 #
vertex $-1 $136 $223 #
ellipse-curve $-1 0 0 1.1102230246251565e-016 0 -1 0 -1.2901437682301062 0 -1.7198921644385212 1 I I #
coedge $-1 $77 $76 $98 $167 forward $78 $-1 #
edge $-1 $79 9.8607613152626476e-032 $224 0.5 $137 $225 forward 7 unknown #
face $-1 $226 $78 $3 $-1 $227 reversed single #
point $-1 -1.290143768230106 0 -1.7198921644385212 #
coedge $-1 $81 $228 $229 $230 forward $6 $-1 #
coedge $-1 $91 $160 $81 $148 reversed $47 $-1 #
edge $-1 $231 0 $149 0.87349371436008783 $81 $232 forward 7 unknown #
vertex $-1 $82 $233 #
ellipse-curve $-1 -2.2204460492503131e-016 0 -1.1102230246251565e-016 0 -1 0 -1.7198921644385223 0 1.2901437682301045 1 I I #
point $-1 -1.7198921644385234 0 -1.2901437682301033 #
straight-curve $-1 -0.81440499454933446 0.5 -0.98731869491938984 -2.2204460492503131e-016 -1 0 I I #
face $-1 $169 $234 $3 $-1 $235 forward single #
loop $-1 $-1 $236 $88 #
plane-surface $-1 -1.2901437682301049 0.5 1.7198921644385228 0.8386705679454235 0 0.54463903501502808 0.54463903501502808 0 -0.8386705679454235 forward_v I I I I #
coedge $-1 $237 $229 $238 $239 reversed $89 $-1 #
coedge $-1 $160 $91 $240 $241 forward $47 $-1 #
coedge $-1 $229 $237 $91 $159 forward $89 $-1 #
edge $-1 $242 2.4651903288156619e-032 $231 0.5 $158 $243 forward 7 unknown #
coedge $-1 $147 $157 $92 $161 reversed $47 $-1 #
edge $-1 $149 9.8607613152626476e-032 $244 0.5 $92 $245 forward 7 unknown #
coedge $-1 $240 $93 $95 $164 forward $99 $-1 #
straight-curve $-1 -1.7198921644385234 0.5 -1.2901437682301033 0.83867056794542383 0 0.54463903501502742 I I #
edge $-1 $96 9.6071219004881073e-017 $244 1.2871693951876655 $162 $246 forward 7 unknown #
point $-1 -1.7198921644385234 0.5 -1.2901437682301033 #
coedge $-1 $98 $247 $220 $248 forward $99 $-1 #
edge $-1 $100 1.2939138526784524e-015 $224 0.87349371436008894 $98 $249 forward 7 unknown #
loop $-1 $250 $251 $169 #
face $-1 $252 $99 $3 $-1 $253 forward single #
point $-1 -0.81440499454933457 0.5 -0.98731869491938984 #
coedge $-1 $254 $254 $255 $256 reversed $103 $-1 #
coedge $-1 $104 $104 $257 $258 reversed $57 $-1 #
coedge $-1 $259 $260 $104 $174 forward $261 $-1 #
edge $-1 $262 0 $263 3.1415926535897931 $104 $264 forward 7 unknown #
coedge $-1 $265 $266 $105 $176 forward $267 $-1 #
edge $-1 $181 0 $180 3.1415926535897931 $105 $268 forward 7 unknown #
coedge $-1 $269 $106 $266 $270 reversed $179 $-1 #
coedge $-1 $106 $269 $265 $271 forward $179 $-1 #
loop $-1 $-1 $177 $272 #
vertex $-1 $176 $273 #
vertex $-1 $176 $274 #
ellipse-curve $-1 0.60104076400856521 0 0.60104076400856521 0 -1 0 -0.125 0 0 1 I I #
coedge $-1 $275 $108 $111 $189 reversed $185 $-1 #
coedge $-1 $108 $275 $110 $188 forward $185 $-1 #
loop $-1 $-1 $183 $276 #
ellipse-curve $-1 -0.60104076400856543 0 0.6010407640085651 0 -1 0 0.125 0 0 1 I I #
coedge $-1 $111 $110 $277 $278 reversed $112 $-1 #
edge $-1 $279 0 $114 0.5 $184 $280 forward 7 unknown #
edge $-1 $281 0 $113 0.5 $183 $282 forward 7 unknown #
face $-1 $276 $112 $3 $-1 $283 reversed single #
point $-1 -0.72604076400856543 0 0.6010407640085651 #
point $-1 -0.47604076400856543 0 0.6010407640085651 #
coedge $-1 $284 $116 $119 $198 reversed $195 $-1 #
coedge $-1 $116 $284 $123 $202 forward $195 $-1 #
loop $-1 $-1 $193 $226 #
straight-curve $-1 0.375 0 0.375 0 0 -1 I I #
coedge $-1 $119 $118 $285 $286 forward $120 $-1 #
edge $-1 $287 0 $121 0.5 $119 $288 forward 7 unknown #
face $-1 $131 $120 $3 $-1 $289 reversed single #
point $-1 0.375 0 0.375 #
coedge $-1 $124 $123 $290 $291 forward $125 $-1 #
edge $-1 $292 0 $126 0.5 $123 $293 forward 7 unknown #
face $-1 $190 $125 $3 $-1 $294 reversed single #
point $-1 0.375 0 -0.375 #
coedge $-1 $290 $285 $128 $206 reversed $168 $-1 #
edge $-1 $207 0 $209 0.75 $205 $295 forward 7 unknown #
vertex $-1 $291 $296 #
straight-curve $-1 -0.375 0.5 -0.375 0 -1 0 I I #
vertex $-1 $206 $297 #
straight-curve $-1 -0.375 0.5 0.375 0 -1 0 I I #
plane-surface $-1 -0.375 0.5 -0.375 -1 0 0 0 0 1 forward_v I I I I #
coedge $-1 $298 $134 $299 $300 forward $6 $-1 #
coedge $-1 $301 $302 $134 $214 reversed $303 $-1 #
edge $-1 $218 0 $304 2.7227136331111494 $134 $305 forward 7 unknown #
coedge $-1 $306 $135 $138 $221 forward $217 $-1 #
coedge $-1 $135 $306 $301 $307 forward $217 $-1 #
loop $-1 $-1 $215 $308 #
vertex $-1 $214 $309 #
straight-curve $-1 1.2901437682301049 0 -1.7198921644385223 -0.54463903501502831 0 0.83867056794542316 I I #
coedge $-1 $138 $137 $166 $248 reversed $139 $-1 #
edge $-1 $140 0 $310 0.5 $138 $311 forward 7 unknown #
face $-1 $144 $139 $3 $-1 $312 forward single #
point $-1 1.2901437682301049 0 -1.7198921644385223 #
vertex $-1 $167 $313 #
straight-curve $-1 -1.2901437682301062 0 -1.7198921644385212 4.4408920985006262e-016 1 -4.4408920985006262e-016 I I #
face $-1 $199 $195 $3 $-1 $314 reversed single #
plane-surface $-1 -0.81440499454933457 0.5 -0.98731869491938984 0.83867056794542283 0 -0.54463903501502897 -0.54463903501502897 0 -0.83867056794542283 forward_v I I I I #
coedge $-1 $146 $315 $316 $317 forward $6 $-1 #
coedge $-1 $156 $158 $146 $230 reversed $89 $-1 #
edge $-1 $318 0 $231 2.7227136331111601 $146 $319 forward 7 unknown #
vertex $-1 $148 $320 #
straight-curve $-1 -0.9873186949193905 0 0.81440499454933368 -0.83867056794542327 0 0.54463903501502842 I I #
point $-1 -1.7198921644385226 0 1.2901437682301047 #
loop $-1 $-1 $321 $153 #
cone-surface $-1 0 0 0 0 1 0 2.1499999999999999 0 0 1 I I 0 1 2.1499999999999999 forward I I I I #
coedge $-1 $322 $316 $323 $324 forward $154 $-1 #
coedge $-1 $158 $156 $325 $326 forward $89 $-1 #
coedge $-1 $316 $322 $156 $239 forward $154 $-1 #
edge $-1 $327 0 $318 0.5 $238 $328 forward 7 unknown #
coedge $-1 $325 $162 $157 $241 reversed $99 $-1 #
edge $-1 $242 4.0026757173920202e-016 $244 0.87349371436008838 $240 $329 forward 7 unknown #
vertex $-1 $326 $330 #
straight-curve $-1 -0.98731869491939039 0.5 0.81440499454933357 0 -1 2.2204460492503131e-016 I I #
vertex $-1 $241 $331 #
straight-curve $-1 -1.7198921644385226 0 1.2901437682301045 0 1 4.4408920985006262e-016 I I #
ellipse-curve $-1 -2.2204460492503131e-016 0.5 -1.1102230246251565e-016 0 1 0 -1.7198921644385232 0 -1.2901437682301036 1 I I #
coedge $-1 $166 $332 $306 $333 reversed $99 $-1 #
edge $-1 $310 0 $224 1.2871693951876666 $166 $334 forward 7 unknown #
straight-curve $-1 -0.8144049945493339 0.5 -0.98731869491938873 -0.54463903501502897 0 -0.83867056794542294 I I #
loop $-1 $335 $277 $169 #
coedge $-1 $285 $290 $284 $336 reversed $168 $-1 #
face $-1 $337 $338 $3 $-1 $339 reversed single #
plane-surface $-1 0 0.5 0 0 1 0 1 0 0 forward_v I I I I #
coedge $-1 $171 $171 $340 $341 reversed $103 $-1 #
coedge $-1 $342 $343 $171 $256 forward $344 $-1 #
edge $-1 $345 0 $346 3.1415926535897931 $171 $347 forward 7 unknown #
coedge $-1 $348 $349 $172 $258 forward $350 $-1 #
edge $-1 $263 0 $262 3.1415926535897931 $172 $351 forward 7 unknown #
coedge $-1 $352 $173 $349 $353 reversed $261 $-1 #
coedge $-1 $173 $352 $348 $354 forward $261 $-1 #
loop $-1 $-1 $259 $355 #
vertex $-1 $258 $356 #
vertex $-1 $258 $357 #
ellipse-curve $-1 0.60104076400856532 0 -0.60104076400856532 0 -1 0 -0.125 0 0 1 I I #
coedge $-1 $358 $175 $178 $271 reversed $267 $-1 #
coedge $-1 $175 $358 $177 $270 forward $267 $-1 #
loop $-1 $-1 $265 $359 #
ellipse-curve $-1 0.60104076400856521 0 0.60104076400856521 0 -1 0 0.125 0 0 1 I I #
coedge $-1 $178 $177 $360 $361 reversed $179 $-1 #
edge $-1 $362 0 $181 0.5 $266 $363 forward 7 unknown #
edge $-1 $364 0 $180 0.5 $265 $365 forward 7 unknown #
face $-1 $359 $179 $3 $-1 $366 reversed single #
point $-1 0.47604076400856521 0 0.60104076400856521 #
point $-1 0.72604076400856521 0 0.60104076400856521 #
coedge $-1 $184 $183 $367 $368 reversed $185 $-1 #
face $-1 $272 $185 $3 $-1 $369 reversed single #
coedge $-1 $367 $367 $187 $278 forward $250 $-1 #
edge $-1 $281 0 $279 3.1415926535897931 $277 $370 forward 7 unknown #
vertex $-1 $368 $371 #
straight-curve $-1 -0.47604076400856543 0.5 0.6010407640085651 0 -1 0 I I #
vertex $-1 $368 $372 #
straight-curve $-1 -0.72604076400856543 0.5 0.6010407640085651 0 -1 0 I I #
cone-surface $-1 -0.60104076400856543 0.5 0.6010407640085651 0 -1 0 0.125 0 0 1 I I 0 1 0.125 forward I I I I #
coedge $-1 $194 $193 $251 $336 forward $195 $-1 #
coedge $-1 $205 $251 $197 $286 reversed $168 $-1 #
edge $-1 $209 0 $287 0.75 $285 $373 forward 7 unknown #
vertex $-1 $286 $374 #
straight-curve $-1 0.375 0.5 0.375 0 -1 0 I I #
plane-surface $-1 -0.375 0.5 0.375 0 0 1 1 0 0 forward_v I I I I #
coedge $-1 $251 $205 $201 $291 reversed $168 $-1 #
edge $-1 $292 0 $207 0.75 $290 $375 forward 7 unknown #
vertex $-1 $291 $376 #
straight-curve $-1 0.375 0.5 -0.375 0 -1 0 I I #
plane-surface $-1 0.375 0.5 -0.375 0 0 -1 -1 0 0 forward_v I I I I #
straight-curve $-1 -0.375 0.5 -0.375 0 0 1 I I #
point $-1 -0.375 0.5 -0.375 #
point $-1 -0.375 0.5 0.375 #
coedge $-1 $377 $212 $378 $379 forward $6 $-1 #
coedge $-1 $380 $381 $212 $300 reversed $382 $-1 #
edge $-1 $304 0 $383 0.8734937143600876 $212 $384 forward 7 unknown #
coedge $-1 $385 $213 $216 $307 reversed $303 $-1 #
coedge $-1 $213 $385 $380 $386 forward $303 $-1 #
loop $-1 $-1 $301 $387 #
vertex $-1 $300 $388 #
ellipse-curve $-1 0.91923881554251186 0 -0.91923881554251174 0 1 0 -0.10483382099317839 0 -0.068079879376877872 1 I I #
coedge $-1 $216 $215 $247 $333 forward $217 $-1 #
edge $-1 $389 0 $218 0.5 $216 $390 forward 7 unknown #
face $-1 $222 $217 $3 $-1 $391 reversed single #
point $-1 0.81440499454933346 0 -0.98731869491938962 #
vertex $-1 $248 $392 #
straight-curve $-1 1.2901437682301049 0 -1.7198921644385223 0 1 -4.4408920985006262e-016 I I #
cone-surface $-1 0 0 0 0 1 0 2.1499999999999999 0 0 1 I I 0 1 2.1499999999999999 forward I I I I #
point $-1 -1.290143768230106 0.5 -1.7198921644385214 #
plane-surface $-1 0.375 0.5 0.375 1 0 0 0 0 -1 forward_v I I I I #
coedge $-1 $228 $393 $394 $395 forward $6 $-1 #
coedge $-1 $236 $238 $228 $317 reversed $154 $-1 #
edge $-1 $396 0 $318 0.87349371436008716 $228 $397 forward 7 unknown #
vertex $-1 $230 $398 #
ellipse-curve $-1 -0.91923881554251208 0 0.91923881554251174 0 1 0 0.10483382099317773 0 0.068079879376879093 1 I I #
point $-1 -0.9873186949193905 0 0.81440499454933368 #
coedge $-1 $323 $399 $400 $401 reversed $234 $-1 #
coedge $-1 $238 $236 $402 $403 forward $154 $-1 #
coedge $-1 $394 $321 $236 $324 reversed $234 $-1 #
edge $-1 $396 3.944304526105059e-031 $404 0.5 $323 $405 forward 7 unknown #
coedge $-1 $402 $240 $237 $326 reversed $99 $-1 #
edge $-1 $327 1.0602629885170231e-014 $242 2.7227136331111659 $325 $406 forward 7 unknown #
vertex $-1 $403 $407 #
straight-curve $-1 -0.8144049945493339 0.5 0.98731869491939017 0 -1 0 I I #
straight-curve $-1 -0.98731869491939006 0.5 0.81440499454933346 -0.83867056794542316 0 0.54463903501502831 I I #
point $-1 -0.98731869491939039 0.5 0.81440499454933368 #
point $-1 -1.7198921644385226 0.5 1.2901437682301047 #
coedge $-1 $247 $408 $385 $409 reversed $99 $-1 #
edge $-1 $310 0 $389 0.87349371436008783 $247 $410 forward 7 unknown #
ellipse-curve $-1 5.5511151231257827e-017 0.5 5.5511151231257827e-016 0 1 0 1.2901437682301049 0 -1.719892164438523 1 I I #
loop $-1 $411 $360 $169 #
edge $-1 $287 0 $292 0.75 $251 $412 forward 7 unknown #
face $-1 $413 $414 $3 $-1 $415 reversed single #
loop $-1 $-1 $416 $252 #
plane-surface $-1 0.8144049945493339 0.5 0.98731869491939028 -0.83867056794542338 0 0.54463903501502819 0.54463903501502819 0 0.83867056794542338 forward_v I I I I #
coedge $-1 $417 $418 $254 $341 forward $419 $-1 #
edge $-1 $346 0 $345 3.1415926535897931 $254 $420 forward 7 unknown #
coedge $-1 $421 $255 $418 $422 reversed $344 $-1 #
coedge $-1 $255 $421 $417 $423 forward $344 $-1 #
loop $-1 $-1 $342 $424 #
vertex $-1 $341 $425 #
vertex $-1 $341 $426 #
ellipse-curve $-1 -0.60104076400856576 0 -0.6010407640085651 0 -1 0 -0.125 0 0 1 I I #
coedge $-1 $427 $257 $260 $354 reversed $350 $-1 #
coedge $-1 $257 $427 $259 $353 forward $350 $-1 #
loop $-1 $-1 $348 $428 #
ellipse-curve $-1 0.60104076400856532 0 -0.60104076400856532 0 -1 0 0.125 0 0 1 I I #
coedge $-1 $260 $259 $429 $430 reversed $261 $-1 #
edge $-1 $431 0 $263 0.5 $349 $432 forward 7 unknown #
edge $-1 $433 0 $262 0.5 $348 $434 forward 7 unknown #
face $-1 $428 $261 $3 $-1 $435 reversed single #
point $-1 0.47604076400856532 0 -0.60104076400856532 #
point $-1 0.72604076400856532 0 -0.60104076400856532 #
coedge $-1 $266 $265 $436 $437 reversed $267 $-1 #
face $-1 $355 $267 $3 $-1 $438 reversed single #
coedge $-1 $436 $436 $269 $361 forward $335 $-1 #
edge $-1 $364 0 $362 3.1415926535897931 $360 $439 forward 7 unknown #
vertex $-1 $437 $440 #
straight-curve $-1 0.72604076400856521 0.5 0.60104076400856521 0 -1 0 I I #
vertex $-1 $437 $441 #
straight-curve $-1 0.47604076400856521 0.5 0.60104076400856521 0 -1 0 I I #
cone-surface $-1 0.60104076400856521 0.5 0.60104076400856521 0 -1 0 0.125 0 0 1 I I 0 1 0.125 forward I I I I #
coedge $-1 $277 $277 $275 $368 forward $250 $-1 #
edge $-1 $279 0 $281 3.1415926535897931 $367 $442 forward 7 unknown #
cone-surface $-1 -0.60104076400856543 0.5 0.6010407640085651 0 -1 0 0.125 0 0 1 I I 0 1 0.125 forward I I I I #
ellipse-curve $-1 -0.60104076400856543 0.5 0.6010407640085651 0 -1 0 -0.125 0 0 1 I I #
point $-1 -0.47604076400856543 0.5 0.6010407640085651 #
point $-1 -0.72604076400856543 0.5 0.6010407640085651 #
straight-curve $-1 -0.375 0.5 0.375 1 0 0 I I #
point $-1 0.375 0.5 0.375 #
straight-curve $-1 0.375 0.5 -0.375 -1 0 0 I I #
point $-1 0.375 0.5 -0.375 #
coedge $-1 $443 $298 $444 $445 forward $6 $-1 #
coedge $-1 $446 $447 $298 $379 reversed $448 $-1 #
edge $-1 $383 -9.6071219004881073e-017 $449 1.2871693951876662 $298 $450 forward 7 unknown #
coedge $-1 $451 $299 $302 $386 reversed $382 $-1 #
coedge $-1 $299 $451 $446 $452 reversed $382 $-1 #
loop $-1 $-1 $380 $453 #
vertex $-1 $379 $454 #
straight-curve $-1 0.98731869491939028 0 -0.81440499454933379 0.83867056794542338 0 -0.54463903501502819 I I #
coedge $-1 $302 $301 $332 $409 forward $303 $-1 #
edge $-1 $455 0 $304 0.5 $302 $456 forward 7 unknown #
face $-1 $308 $303 $3 $-1 $457 reversed single #
point $-1 0.98731869491939028 0 -0.81440499454933379 #
vertex $-1 $333 $458 #
straight-curve $-1 0.81440499454933379 0.5 -0.98731869491939017 0 -1 0 I I #
plane-surface $-1 1.2901437682301049 0.5 -1.7198921644385226 -0.83867056794542327 0 -0.54463903501502831 -0.54463903501502831 0 0.83867056794542327 forward_v I I I I #
point $-1 1.2901437682301049 0.5 -1.7198921644385223 #
coedge $-1 $315 $443 $459 $460 forward $6 $-1 #
coedge $-1 $399 $323 $315 $395 reversed $234 $-1 #
edge $-1 $461 0 $396 1.2871693951876662 $315 $462 forward 7 unknown #
vertex $-1 $317 $463 #
straight-curve $-1 -1.2901437682301047 0 1.7198921644385226 0.54463903501502797 0 -0.8386705679454235 I I #
point $-1 -0.81440499454933435 0 0.98731869491939084 #
coedge $-1 $321 $394 $464 $465 forward $234 $-1 #
coedge $-1 $466 $402 $321 $401 forward $99 $-1 #
edge $-1 $404 -8.6464097104392913e-016 $467 1.2871693951876648 $400 $468 forward 7 unknown #
coedge $-1 $400 $325 $322 $403 reversed $99 $-1 #
edge $-1 $404 0 $327 0.87349371436008783 $402 $469 forward 7 unknown #
vertex $-1 $401 $470 #
straight-curve $-1 -1.2901437682301051 0 1.7198921644385223 4.4408920985006262e-016 1 8.8817841970012523e-016 I I #
ellipse-curve $-1 -0.91923881554251197 0.5 0.91923881554251163 0 1 0 0.1048338209931774 0 0.068079879376879648 1 I I #
point $-1 -0.81440499454933402 0.5 0.98731869491939006 #
coedge $-1 $332 $471 $451 $472 reversed $99 $-1 #
edge $-1 $389 4.9960036108132054e-016 $455 2.722713633111157 $332 $473 forward 7 unknown #
straight-curve $-1 1.2901437682301049 0.5 -1.7198921644385223 -0.54463903501502842 0 0.83867056794542327 I I #
loop $-1 $474 $429 $169 #
straight-curve $-1 0.375 0.5 0.375 0 0 -1 I I #
face $-1 $475 $476 $3 $-1 $477 reversed single #
loop $-1 $-1 $478 $337 #
cone-surface $-1 0.91923881554251186 0.5 0.91923881554251174 0 1 0 0.088388347648318447 0 -0.088388347648318433 1 I I 0 1 0.125 forward I I I I #
coedge $-1 $479 $459 $480 $481 reversed $338 $-1 #
coedge $-1 $482 $340 $343 $423 reversed $419 $-1 #
coedge $-1 $340 $482 $342 $422 forward $419 $-1 #
loop $-1 $-1 $417 $483 #
ellipse-curve $-1 -0.60104076400856576 0 -0.6010407640085651 0 -1 0 0.125 0 0 1 I I #
coedge $-1 $343 $342 $484 $485 reversed $344 $-1 #
edge $-1 $486 0 $346 0.5 $418 $487 forward 7 unknown #
edge $-1 $488 0 $345 0.5 $417 $489 forward 7 unknown #
face $-1 $483 $344 $3 $-1 $490 reversed single #
point $-1 -0.72604076400856576 0 -0.6010407640085651 #
point $-1 -0.47604076400856576 0 -0.6010407640085651 #
coedge $-1 $349 $348 $491 $492 reversed $350 $-1 #
face $-1 $424 $350 $3 $-1 $493 reversed single #
coedge $-1 $491 $491 $352 $430 forward $411 $-1 #
edge $-1 $433 0 $431 3.1415926535897931 $429 $494 forward 7 unknown #
vertex $-1 $492 $495 #
straight-curve $-1 0.72604076400856532 0.5 -0.60104076400856532 0 -1 0 I I #
vertex $-1 $492 $496 #
straight-curve $-1 0.47604076400856532 0.5 -0.60104076400856532 0 -1 0 I I #
cone-surface $-1 0.60104076400856532 0.5 -0.60104076400856532 0 -1 0 0.125 0 0 1 I I 0 1 0.125 forward I I I I #
coedge $-1 $360 $360 $358 $437 forward $335 $-1 #
edge $-1 $362 0 $364 3.1415926535897931 $436 $497 forward 7 unknown #
cone-surface $-1 0.60104076400856521 0.5 0.60104076400856521 0 -1 0 0.125 0 0 1 I I 0 1 0.125 forward I I I I #
ellipse-curve $-1 0.60104076400856521 0.5 0.60104076400856521 0 -1 0 -0.125 0 0 1 I I #
point $-1 0.72604076400856521 0.5 0.60104076400856521 #
point $-1 0.47604076400856521 0.5 0.60104076400856521 #
ellipse-curve $-1 -0.60104076400856543 0.5 0.6010407640085651 0 -1 0 0.125 0 0 1 I I #
coedge $-1 $393 $377 $498 $499 forward $6 $-1 #
coedge $-1 $500 $501 $377 $445 reversed $476 $-1 #
edge $-1 $449 0 $502 0.87349371436008838 $377 $503 forward 7 unknown #
coedge $-1 $504 $378 $381 $452 forward $448 $-1 #
coedge $-1 $378 $504 $500 $505 reversed $448 $-1 #
loop $-1 $-1 $504 $475 #
vertex $-1 $445 $506 #
ellipse-curve $-1 1.1102230246251565e-016 0 -1.1102230246251565e-016 0 -1 0 1.7198921644385226 0 -1.2901437682301045 1 I I #
coedge $-1 $381 $380 $408 $472 forward $382 $-1 #
edge $-1 $383 0 $507 0.5 $446 $508 forward 7 unknown #
face $-1 $387 $382 $3 $-1 $509 reversed single #
point $-1 1.7198921644385223 0 -1.2901437682301045 #
vertex $-1 $409 $510 #
straight-curve $-1 0.98731869491939028 0.5 -0.81440499454933379 0 -1 0 I I #
cone-surface $-1 0.91923881554251174 0.5 -0.91923881554251174 0 1 0 -0.088388347648318419 0 -0.088388347648318447 1 I I 0 1 0.12499999999999999 forward I I I I #
point $-1 0.81440499454933379 0.5 -0.98731869491939028 #
coedge $-1 $416 $464 $393 $460 reversed $338 $-1 #
edge $-1 $511 0 $461 0.87349371436008783 $393 $512 forward 7 unknown #
vertex $-1 $395 $513 #
ellipse-curve $-1 0 0 -1.1102230246251565e-016 0 -1 0 1.2901437682301049 0 1.7198921644385226 1 I I #
point $-1 -1.2901437682301047 0 1.7198921644385226 #
coedge $-1 $459 $479 $399 $465 reversed $338 $-1 #
edge $-1 $461 3.944304526105059e-031 $467 0.5 $399 $514 forward 7 unknown #
coedge $-1 $515 $400 $479 $516 reversed $99 $-1 #
vertex $-1 $516 $517 #
ellipse-curve $-1 -5.5511151231257827e-017 0.5 -4.4408920985006262e-016 0 1 0 -1.2901437682301031 0 1.7198921644385241 1 I I #
straight-curve $-1 -1.2901437682301047 0.5 1.7198921644385226 0.54463903501502808 0 -0.83867056794542338 I I #
point $-1 -1.2901437682301047 0.5 1.7198921644385226 #
coedge $-1 $408 $518 $504 $519 forward $99 $-1 #
edge $-1 $455 4.9337870920004848e-016 $507 0.87349371436008827 $408 $520 forward 7 unknown #
ellipse-curve $-1 0.91923881554251174 0.5 -0.91923881554251174 0 1 0 -0.10483382099317784 0 -0.068079879376878538 1 I I #
loop $-1 $-1 $484 $169 #
face $-1 $453 $448 $3 $-1 $521 forward single #
loop $-1 $-1 $500 $413 #
plane-surface $-1 1.7198921644385228 0.5 1.2901437682301049 0.54463903501502831 0 -0.83867056794542338 -0.83867056794542338 0 -0.54463903501502831 forward_v I I I I #
coedge $-1 $522 $498 $501 $523 reversed $414 $-1 #
coedge $-1 $464 $416 $466 $516 forward $338 $-1 #
coedge $-1 $498 $522 $416 $481 forward $414 $-1 #
edge $-1 $524 0 $511 0.5 $480 $525 forward 7 unknown #
coedge $-1 $418 $417 $526 $527 reversed $419 $-1 #
face $-1 $-1 $419 $3 $-1 $528 reversed single #
coedge $-1 $526 $526 $421 $485 forward $474 $-1 #
edge $-1 $488 0 $486 3.1415926535897931 $484 $529 forward 7 unknown #
vertex $-1 $527 $530 #
straight-curve $-1 -0.47604076400856576 0.5 -0.6010407640085651 0 -1 0 I I #
vertex $-1 $527 $531 #
straight-curve $-1 -0.72604076400856576 0.5 -0.6010407640085651 0 -1 0 I I #
cone-surface $-1 -0.60104076400856576 0.5 -0.6010407640085651 0 -1 0 0.125 0 0 1 I I 0 1 0.125 forward I I I I #
coedge $-1 $429 $429 $427 $492 forward $411 $-1 #
edge $-1 $431 0 $433 3.1415926535897931 $491 $532 forward 7 unknown #
cone-surface $-1 0.60104076400856532 0.5 -0.60104076400856532 0 -1 0 0.125 0 0 1 I I 0 1 0.125 forward I I I I #
ellipse-curve $-1 0.60104076400856532 0.5 -0.60104076400856532 0 -1 0 -0.125 0 0 1 I I #
point $-1 0.72604076400856532 0.5 -0.60104076400856532 #
point $-1 0.47604076400856532 0.5 -0.60104076400856532 #
ellipse-curve $-1 0.60104076400856521 0.5 0.60104076400856521 0 -1 0 0.125 0 0 1 I I #
coedge $-1 $478 $480 $443 $499 reversed $414 $-1 #
edge $-1 $502 0 $511 2.7227136331111494 $443 $533 forward 7 unknown #
coedge $-1 $534 $444 $447 $505 forward $476 $-1 #
coedge $-1 $444 $534 $478 $523 forward $476 $-1 #
vertex $-1 $499 $535 #
straight-curve $-1 1.7198921644385223 0 1.2901437682301047 -0.83867056794542327 0 -0.54463903501502831 I I #
coedge $-1 $447 $446 $471 $519 reversed $448 $-1 #
edge $-1 $449 4.9303806576313238e-031 $536 0.5 $447 $537 forward 7 unknown #
point $-1 1.7198921644385223 0 1.2901437682301047 #
vertex $-1 $472 $538 #
straight-curve $-1 1.7198921644385226 0 -1.2901437682301045 0 1 -4.4408920985006262e-016 I I #
plane-surface $-1 0.98731869491939028 0.5 -0.81440499454933379 0.54463903501502808 0 0.83867056794542338 0.83867056794542338 0 -0.54463903501502808 forward_v I I I I #
point $-1 0.98731869491939028 0.5 -0.81440499454933379 #
vertex $-1 $460 $539 #
straight-curve $-1 0.8144049945493339 0 0.98731869491939028 0.54463903501502819 0 0.83867056794542327 I I #
point $-1 1.2901437682301049 0 1.7198921644385226 #
straight-curve $-1 1.2901437682301045 0 1.7198921644385228 4.4408920985006262e-016 1 -8.8817841970012523e-016 I I #
coedge $-1 $518 $466 $522 $540 reversed $99 $-1 #
edge $-1 $524 0 $467 0.8734937143600876 $466 $541 forward 7 unknown #
point $-1 1.2901437682301047 0.5 1.7198921644385223 #
coedge $-1 $471 $515 $534 $542 reversed $99 $-1 #
edge $-1 $536 -9.607121900488111e-017 $507 1.2871693951876662 $471 $543 forward 7 unknown #
straight-curve $-1 0.98731869491938984 0.5 -0.81440499454933357 0.83867056794542338 0 -0.54463903501502808 I I #
cone-surface $-1 0 0 0 0 1 0 2.1499999999999999 0 0 1 I I 0 1 2.1499999999999999 forward I I I I #
coedge $-1 $480 $478 $515 $540 forward $414 $-1 #
edge $-1 $544 0 $502 0.5 $501 $545 forward 7 unknown #
vertex $-1 $540 $546 #
straight-curve $-1 0.8144049945493339 0.5 0.98731869491939028 0 -1 0 I I #
coedge $-1 $484 $484 $482 $527 forward $474 $-1 #
edge $-1 $486 0 $488 3.1415926535897931 $526 $547 forward 7 unknown #
cone-surface $-1 -0.60104076400856576 0.5 -0.6010407640085651 0 -1 0 0.125 0 0 1 I I 0 1 0.125 forward I I I I #
ellipse-curve $-1 -0.60104076400856576 0.5 -0.6010407640085651 0 -1 0 -0.125 0 0 1 I I #
point $-1 -0.47604076400856576 0.5 -0.6010407640085651 #
point $-1 -0.72604076400856576 0.5 -0.6010407640085651 #
ellipse-curve $-1 0.60104076400856532 0.5 -0.60104076400856532 0 -1 0 0.125 0 0 1 I I #
ellipse-curve $-1 0.91923881554251186 0 0.91923881554251186 0 1 0 0.068079879376877872 0 -0.10483382099317839 1 I I #
coedge $-1 $501 $500 $518 $542 forward $476 $-1 #
point $-1 0.98731869491938973 0 0.81440499454933346 #
vertex $-1 $519 $548 #
straight-curve $-1 1.7198921644385221 0 1.2901437682301051 1.3322676295501878e-015 1 -4.4408920985006262e-016 I I #
point $-1 1.7198921644385226 0.5 -1.2901437682301045 #
point $-1 0.8144049945493339 0 0.98731869491939028 #
edge $-1 $544 5.1625370645069787e-015 $524 2.722713633111161 $515 $549 forward 7 unknown #
straight-curve $-1 0.8144049945493339 0.5 0.98731869491939028 0.54463903501502819 0 0.83867056794542327 I I #
edge $-1 $536 0 $544 0.8734937143600876 $518 $550 forward 7 unknown #
ellipse-curve $-1 6.6613381477509392e-016 0.5 1.1102230246251565e-016 0 1 0 1.7198921644385219 0 1.2901437682301045 1 I I #
vertex $-1 $542 $551 #
straight-curve $-1 0.98731869491939028 0.5 0.81440499454933379 0 -1 0 I I #
point $-1 0.8144049945493339 0.5 0.98731869491939028 #
ellipse-curve $-1 -0.60104076400856576 0.5 -0.6010407640085651 0 -1 0 0.125 0 0 1 I I #
point $-1 1.7198921644385223 0.5 1.2901437682301045 #
ellipse-curve $-1 0.91923881554251186 0.5 0.91923881554251174 0 1 0 0.068079879376878982 0 -0.10483382099317762 1 I I #
straight-curve $-1 1.7198921644385223 0.5 1.2901437682301045 -0.83867056794542338 0 -0.54463903501502808 I I #
point $-1 0.98731869491939028 0.5 0.81440499454933379 #
End-of-ACIS-data 