600 0 1 0           
117 GICL Pro/E ACIS Translator - Source: f:/data5/repository/PTC/V20/web_demos/models/family_table/step_block.prt.4 - 6 0 13 ACIS 6.0.3 NT 24 Thu Apr 04 13:12:15 2002 
1 9.9999999999999995e-007 1e-010 
body $-1 $1 $-1 $2 #
lump $-1 $-1 $3 $0 #
transform $-1 1 0 0 0 1 0 0 0 1 0 0 0 25.399999999999999 no_rotate no_reflect no_shear #
shell $-1 $-1 $-1 $4 $-1 $1 #
face $-1 $5 $6 $3 $-1 $7 reversed single #
face $-1 $8 $9 $3 $-1 $10 reversed single #
loop $-1 $-1 $11 $4 #
plane-surface $-1 0 0 0 0 0 1 1 0 0 forward_v I I I I #
face $-1 $12 $13 $3 $-1 $14 forward single #
loop $-1 $-1 $15 $5 #
plane-surface $-1 0.28228805620608888 -0.35400000000000009 0 -1 0 0 0 -1 0 forward_v I I I I #
coedge $-1 $16 $17 $18 $19 forward $6 $-1 #
face $-1 $20 $21 $3 $-1 $22 reversed single #
loop $-1 $-1 $23 $8 #
plane-surface $-1 0 0 1 0 0 1 1 0 0 forward_v I I I I #
coedge $-1 $24 $25 $26 $27 forward $9 $-1 #
coedge $-1 $28 $11 $29 $30 forward $6 $-1 #
coedge $-1 $11 $31 $32 $33 forward $6 $-1 #
coedge $-1 $25 $24 $11 $19 reversed $9 $-1 #
edge $-1 $34 0 $35 0.25 $11 $36 forward 7 unknown #
face $-1 $37 $38 $3 $-1 $39 forward single #
loop $-1 $-1 $40 $12 #
plane-surface $-1 0.082932084309133236 -0.10400000000000009 0 -1 0 0 0 -1 0 forward_v I I I I #
coedge $-1 $41 $42 $43 $44 reversed $13 $-1 #
coedge $-1 $18 $15 $45 $46 reversed $9 $-1 #
coedge $-1 $15 $18 $47 $48 forward $9 $-1 #
coedge $-1 $42 $49 $15 $27 reversed $13 $-1 #
edge $-1 $50 0 $51 0.25 $26 $52 forward 7 unknown #
coedge $-1 $53 $16 $54 $55 forward $6 $-1 #
coedge $-1 $45 $56 $16 $30 reversed $57 $-1 #
edge $-1 $35 0 $58 0.19935597189695553 $16 $59 forward 7 unknown #
coedge $-1 $17 $60 $61 $62 forward $6 $-1 #
coedge $-1 $63 $47 $17 $33 reversed $64 $-1 #
edge $-1 $65 0 $34 0.19935597189695564 $17 $66 forward 7 unknown #
vertex $-1 $33 $67 #
vertex $-1 $30 $68 #
straight-curve $-1 0.28228805620608888 -0.35400000000000009 0 0 -1 0 I I #
face $-1 $69 $70 $3 $-1 $71 forward single #
loop $-1 $-1 $72 $20 #
plane-surface $-1 0.68100000000000005 -0.85400000000000009 0 0.78185034823476185 0.62346614420125623 0 -0.62346614420125623 0.78185034823476185 0 forward_v I I I I #
coedge $-1 $43 $61 $73 $74 forward $21 $-1 #
coedge $-1 $75 $23 $76 $77 forward $13 $-1 #
coedge $-1 $23 $26 $78 $79 reversed $13 $-1 #
coedge $-1 $80 $40 $23 $44 forward $21 $-1 #
edge $-1 $81 -1.3877787807814457e-017 $82 0.25000000000000033 $23 $83 forward 7 unknown #
coedge $-1 $84 $29 $24 $46 forward $57 $-1 #
edge $-1 $35 0 $51 1 $45 $85 forward 7 unknown #
coedge $-1 $32 $78 $25 $48 reversed $64 $-1 #
edge $-1 $34 0 $50 1 $25 $86 forward 7 unknown #
coedge $-1 $26 $87 $84 $88 reversed $13 $-1 #
vertex $-1 $79 $89 #
vertex $-1 $27 $90 #
straight-curve $-1 0.28228805620608888 -0.35400000000000009 1 0 -1 0 I I #
coedge $-1 $91 $28 $92 $93 reversed $6 $-1 #
coedge $-1 $94 $95 $28 $55 reversed $96 $-1 #
edge $-1 $58 0 $97 0.25 $28 $98 forward 7 unknown #
coedge $-1 $29 $84 $94 $99 reversed $57 $-1 #
loop $-1 $-1 $45 $100 #
vertex $-1 $55 $101 #
straight-curve $-1 0.28228805620608888 -0.60400000000000009 0 1 0 0 I I #
coedge $-1 $31 $102 $72 $103 reversed $6 $-1 #
coedge $-1 $40 $80 $31 $62 reversed $21 $-1 #
edge $-1 $104 -1.3877787807814457e-017 $65 0.25000000000000033 $31 $105 forward 7 unknown #
coedge $-1 $78 $32 $80 $106 forward $64 $-1 #
loop $-1 $-1 $63 $107 #
vertex $-1 $33 $108 #
straight-curve $-1 0.082932084309133236 -0.35400000000000009 0 1 0 0 I I #
point $-1 0.28228805620608888 -0.35400000000000009 0 #
point $-1 0.28228805620608888 -0.60400000000000009 0 #
face $-1 $109 $110 $3 $-1 $111 forward single #
loop $-1 $-1 $112 $37 #
plane-surface $-1 0 0 0 -1 0 0 0 -1 0 forward_v I I I I #
coedge $-1 $113 $73 $60 $103 forward $38 $-1 #
coedge $-1 $72 $76 $40 $74 reversed $38 $-1 #
edge $-1 $104 0 $81 1 $73 $114 forward 7 unknown #
coedge $-1 $115 $41 $116 $117 forward $13 $-1 #
coedge $-1 $73 $113 $41 $77 reversed $38 $-1 #
edge $-1 $81 0 $118 0.13301778305120385 $41 $119 forward 7 unknown #
coedge $-1 $47 $63 $42 $79 forward $64 $-1 #
edge $-1 $82 0 $50 0.19935597189695564 $42 $120 forward 7 unknown #
coedge $-1 $61 $43 $63 $106 reversed $21 $-1 #
vertex $-1 $77 $121 #
vertex $-1 $79 $122 #
straight-curve $-1 0.082932084309133236 -0.10399999999999977 1 0 -1 0 I I #
coedge $-1 $56 $45 $49 $88 forward $57 $-1 #
straight-curve $-1 0.28228805620608888 -0.60400000000000009 0 0 0 1 I I #
straight-curve $-1 0.28228805620608888 -0.35400000000000009 0 0 0 1 I I #
coedge $-1 $49 $123 $124 $125 reversed $13 $-1 #
edge $-1 $51 0 $126 0.19935597189695553 $49 $127 forward 7 unknown #
point $-1 0.28228805620608888 -0.35400000000000009 1 #
point $-1 0.28228805620608888 -0.60400000000000009 1 #
coedge $-1 $128 $53 $129 $130 reversed $6 $-1 #
coedge $-1 $131 $132 $53 $93 forward $133 $-1 #
edge $-1 $134 0 $97 0.19935597189695564 $53 $135 forward 7 unknown #
coedge $-1 $124 $54 $56 $99 forward $96 $-1 #
coedge $-1 $54 $124 $131 $136 reversed $96 $-1 #
loop $-1 $-1 $124 $137 #
vertex $-1 $93 $138 #
straight-curve $-1 0.48164402810304441 -0.60400000000000009 0 0 -1 0 I I #
edge $-1 $58 0 $126 1 $94 $139 forward 7 unknown #
face $-1 $107 $57 $3 $-1 $140 reversed single #
point $-1 0.48164402810304441 -0.60400000000000009 0 #
coedge $-1 $60 $128 $141 $142 reversed $6 $-1 #
edge $-1 $104 0 $143 0.13301778305120385 $60 $144 forward 7 unknown #
vertex $-1 $62 $145 #
straight-curve $-1 0.082932084309133236 -0.10399999999999977 0 0 -1 0 I I #
edge $-1 $65 0 $82 1 $63 $146 forward 7 unknown #
face $-1 $-1 $64 $3 $-1 $147 reversed single #
point $-1 0.082932084309133236 -0.35400000000000009 0 #
face $-1 $148 $149 $3 $-1 $150 forward single #
loop $-1 $-1 $151 $69 #
plane-surface $-1 0 -1.1040000000000001 0 0 -1 0 1 0 0 forward_v I I I I #
coedge $-1 $116 $141 $152 $153 forward $70 $-1 #
coedge $-1 $76 $72 $154 $155 forward $38 $-1 #
straight-curve $-1 0.082932084309133236 -0.10399999999999976 0 0 0 1 I I #
coedge $-1 $156 $75 $157 $158 forward $13 $-1 #
coedge $-1 $154 $112 $75 $117 reversed $70 $-1 #
edge $-1 $118 0 $159 1.1040000000000001 $75 $160 forward 7 unknown #
vertex $-1 $117 $161 #
straight-curve $-1 0.082932084309133236 -0.10399999999999976 1 -0.6234661442012559 0.78185034823476207 0 I I #
straight-curve $-1 0.082932084309133236 -0.35400000000000009 1 1 0 0 I I #
point $-1 0.082932084309133236 -0.10399999999999976 1 #
point $-1 0.082932084309133236 -0.35400000000000009 1 #
coedge $-1 $87 $156 $162 $163 forward $13 $-1 #
coedge $-1 $95 $94 $87 $125 forward $96 $-1 #
edge $-1 $126 0 $164 0.25 $87 $165 forward 7 unknown #
vertex $-1 $88 $166 #
straight-curve $-1 0.28228805620608888 -0.60400000000000009 1 1 0 0 I I #
coedge $-1 $102 $91 $167 $168 reversed $6 $-1 #
coedge $-1 $169 $170 $91 $130 forward $149 $-1 #
edge $-1 $171 0 $134 0.25 $91 $172 forward 7 unknown #
coedge $-1 $162 $92 $95 $136 forward $133 $-1 #
coedge $-1 $92 $162 $169 $173 reversed $133 $-1 #
loop $-1 $-1 $131 $148 #
vertex $-1 $130 $174 #
straight-curve $-1 0.68100000000000005 -0.85400000000000009 0 -1 0 0 I I #
edge $-1 $97 0 $164 1 $131 $175 forward 7 unknown #
face $-1 $100 $96 $3 $-1 $176 reversed single #
point $-1 0.48164402810304441 -0.85400000000000009 0 #
straight-curve $-1 0.48164402810304441 -0.60400000000000009 0 0 0 1 I I #
plane-surface $-1 0.28228805620608888 -0.60400000000000009 0 0 -1 0 1 0 0 forward_v I I I I #
coedge $-1 $112 $154 $102 $142 forward $70 $-1 #
edge $-1 $143 0 $177 1.1040000000000001 $102 $178 forward 7 unknown #
vertex $-1 $103 $179 #
straight-curve $-1 0.082932084309133236 -0.10399999999999976 0 -0.6234661442012559 0.78185034823476207 0 I I #
point $-1 0.082932084309133236 -0.10399999999999976 0 #
straight-curve $-1 0.082932084309133236 -0.35400000000000009 0 0 0 1 I I #
plane-surface $-1 0.082932084309133236 -0.35400000000000009 0 0 -1 0 1 0 0 forward_v I I I I #
face $-1 $137 $133 $3 $-1 $180 reversed single #
loop $-1 $-1 $170 $109 #
plane-surface $-1 0.68100000000000005 -1.1040000000000001 0 1 0 0 0 1 0 forward_v I I I I #
coedge $-1 $157 $167 $170 $181 forward $110 $-1 #
coedge $-1 $167 $157 $112 $153 reversed $110 $-1 #
edge $-1 $177 0 $159 1 $112 $182 forward 7 unknown #
coedge $-1 $141 $116 $113 $155 reversed $70 $-1 #
edge $-1 $143 0 $118 1 $154 $183 forward 7 unknown #
coedge $-1 $123 $115 $184 $185 forward $13 $-1 #
coedge $-1 $152 $151 $115 $158 reversed $110 $-1 #
edge $-1 $159 0 $186 0.68100000000000005 $115 $187 forward 7 unknown #
vertex $-1 $158 $188 #
straight-curve $-1 0 0 1 0 -1 0 I I #
point $-1 0 0 1 #
coedge $-1 $132 $131 $123 $163 reversed $133 $-1 #
edge $-1 $189 0 $164 0.19935597189695564 $123 $190 forward 7 unknown #
vertex $-1 $125 $191 #
straight-curve $-1 0.48164402810304441 -0.60400000000000009 1 0 -1 0 I I #
point $-1 0.48164402810304441 -0.60400000000000009 1 #
coedge $-1 $151 $152 $128 $168 forward $110 $-1 #
edge $-1 $177 0 $171 0.68100000000000005 $128 $192 forward 7 unknown #
coedge $-1 $184 $129 $132 $173 forward $149 $-1 #
coedge $-1 $129 $184 $151 $181 reversed $149 $-1 #
vertex $-1 $168 $193 #
straight-curve $-1 0.68100000000000005 -1.1040000000000001 0 0 1 0 I I #
edge $-1 $134 0 $189 1 $169 $194 forward 7 unknown #
point $-1 0.68100000000000005 -0.85400000000000009 0 #
straight-curve $-1 0.48164402810304441 -0.85400000000000009 0 0 0 1 I I #
plane-surface $-1 0.48164402810304441 -0.60400000000000009 0 -1 0 0 0 -1 0 forward_v I I I I #
vertex $-1 $142 $195 #
straight-curve $-1 0 0 0 0 -1 0 I I #
point $-1 0 0 0 #
plane-surface $-1 0.48164402810304441 -0.85400000000000009 0 0 -1 0 1 0 0 forward_v I I I I #
edge $-1 $171 0 $186 1 $151 $196 forward 7 unknown #
straight-curve $-1 0 -1.1040000000000001 0 0 0 1 I I #
straight-curve $-1 0 0 0 0 0 1 I I #
coedge $-1 $170 $169 $156 $185 reversed $149 $-1 #
edge $-1 $186 0 $189 0.25 $156 $197 forward 7 unknown #
vertex $-1 $185 $198 #
straight-curve $-1 0 -1.1040000000000001 1 1 0 0 I I #
point $-1 0 -1.1040000000000001 1 #
vertex $-1 $163 $199 #
straight-curve $-1 0.68100000000000005 -0.85400000000000009 1 -1 0 0 I I #
point $-1 0.48164402810304441 -0.85400000000000009 1 #
straight-curve $-1 0 -1.1040000000000001 0 1 0 0 I I #
point $-1 0.68100000000000005 -1.1040000000000001 0 #
straight-curve $-1 0.68100000000000005 -0.85400000000000009 0 0 0 1 I I #
point $-1 0 -1.1040000000000001 0 #
straight-curve $-1 0.68100000000000005 -1.1040000000000001 0 0 0 1 I I #
straight-curve $-1 0.68100000000000005 -1.1040000000000001 1 0 1 0 I I #
point $-1 0.68100000000000005 -1.1040000000000001 1 #
point $-1 0.68100000000000005 -0.85400000000000009 1 #
End-of-ACIS-data 