105 998 1 0                             
body $1 $2 $-1 $-1 #
f_body-lwd-attrib $-1 $-1 $-1 $0 #
lump $-1 $-1 $3 $0 #
shell $-1 $-1 $-1 $4 $2 #
face $-1 $5 $6 $3 $-1 $7 reversed single #
face $-1 $8 $9 $3 $-1 $10 reversed single #
loop $-1 $11 $12 $4 #
cone-surface $-1 0 -5.5 1.25693328198353e-13 0 1 1.04744440165294e-14 1.25 0 0 1 -0.52999894000318 0.847998304005088 0 #
face $13 $14 $15 $3 $-1 $16 reversed single #
loop $-1 $17 $18 $5 #
cone-surface $-1 0 -17.5 0 0 1 1.04744440165294e-14 2.5 0 0 1 0 1 0 #
loop $-1 $-1 $19 $4 #
coedge $-1 $12 $12 $20 $21 1 $6 $-1 #
fface-lwd-attrib $-1 $-1 $-1 $8 #
face $22 $23 $24 $3 $-1 $25 forward single #
loop $-1 $-1 $26 $8 #
cone-surface $-1 49.5 20 -0.5 0 -1 -3.49148133884313e-15 2.5 0 0 1 0 1 0 #
loop $-1 $-1 $20 $5 #
coedge $-1 $18 $18 $27 $28 1 $9 $-1 #
coedge $-1 $19 $19 $-1 $29 0 $11 $-1 #
coedge $-1 $20 $20 $12 $21 0 $17 $-1 #
edge $-1 $30 $30 $20 $31 0 #
fface-lwd-attrib $-1 $-1 $-1 $14 #
face $32 $33 $34 $3 $-1 $35 reversed single #
loop $-1 $-1 $36 $14 #
plane-surface $-1 50 20 7.5 1 0 0 0 0 -1 0 #
coedge $37 $38 $39 $40 $41 1 $15 $-1 #
coedge $-1 $27 $27 $18 $28 0 $42 $-1 #
edge $-1 $43 $43 $27 $44 0 #
edge $-1 $45 $45 $19 $-1 0 #
vertex $-1 $21 $46 #
ellipse-curve $-1 0 -7.5 1.04744440165294e-13 0 1 1.04744440165294e-14 2.5 0 0 1 #
fface-lwd-attrib $-1 $-1 $-1 $23 #
face $47 $48 $49 $3 $-1 $50 reversed single #
loop $-1 $-1 $51 $23 #
plane-surface $-1 0 37.5 0 0 -1 0 0 0 -1 0 #
coedge $52 $53 $54 $55 $56 0 $24 $-1 #
copar-lwd-attrib $-1 $-1 $-1 $26 #
coedge $57 $55 $26 $51 $58 1 $15 $-1 #
coedge $59 $26 $55 $60 $61 1 $15 $-1 #
coedge $62 $63 $64 $26 $41 0 $65 $-1 #
edge $66 $67 $68 $40 $69 0 #
loop $-1 $70 $27 $71 #
vertex $-1 $28 $72 #
ellipse-curve $-1 0 -27.5 -1.04744440165294e-13 -0 1 -0 2.5 0 0 1 #
vertex $-1 $29 $73 #
point $-1 2.5 -7.5 1.04744440165294e-13 #
fface-lwd-attrib $-1 $-1 $-1 $33 #
face $74 $75 $65 $3 $-1 $76 forward single #
loop $-1 $-1 $77 $33 #
cone-surface $-1 70.5 20 -0.5 0 -1 -3.49148133884313e-15 2.5 0 0 1 0 1 0 #
coedge $78 $79 $80 $38 $58 0 $34 $-1 #
copar-lwd-attrib $-1 $-1 $-1 $36 #
coedge $81 $82 $36 $80 $83 1 $24 $-1 #
coedge $84 $36 $82 $85 $86 1 $24 $-1 #
coedge $87 $39 $38 $36 $56 1 $15 $-1 #
edge $88 $89 $90 $36 $91 0 #
copar-lwd-attrib $-1 $-1 $-1 $38 #
edge $92 $90 $67 $51 $93 0 #
copar-lwd-attrib $-1 $-1 $-1 $39 #
coedge $94 $85 $95 $39 $61 0 $96 $-1 #
edge $97 $68 $89 $60 $98 0 #
copar-lwd-attrib $-1 $-1 $-1 $40 #
coedge $99 $100 $40 $95 $101 1 $65 $-1 #
coedge $102 $40 $100 $79 $103 1 $65 $-1 #
loop $-1 $-1 $40 $48 #
epar-lwd-attrib $-1 $-1 $-1 $41 #
vertex $-1 $41 $104 #
vertex $-1 $101 $105 #
straight-curve $-1 51.9494897427832 20 0 0 -1 -3.49148133884313e-15 #
loop $-1 $-1 $106 $71 #
face $107 $108 $42 $3 $-1 $109 forward single #
point $-1 2.5 -27.5 -1.04744440165294e-13 #
point $-1 0 -3.5 1.46642216231412e-13 #
fface-lwd-attrib $-1 $-1 $-1 $48 #
face $110 $111 $112 $3 $-1 $113 reversed single #
plane-surface $-1 60 20 0 0 0 1 1 0 0 0 #
coedge $114 $115 $116 $117 $118 1 $49 $-1 #
copar-lwd-attrib $-1 $-1 $-1 $51 #
coedge $119 $120 $51 $64 $103 0 $34 $-1 #
coedge $121 $51 $122 $53 $83 0 $34 $-1 #
copar-lwd-attrib $-1 $-1 $-1 $53 #
coedge $123 $54 $53 $124 $125 1 $24 $-1 #
edge $126 $127 $90 $80 $128 0 #
copar-lwd-attrib $-1 $-1 $-1 $54 #
coedge $129 $130 $60 $54 $86 0 $96 $-1 #
edge $131 $89 $132 $85 $133 0 #
copar-lwd-attrib $-1 $-1 $-1 $55 #
epar-lwd-attrib $-1 $-1 $-1 $56 #
vertex $-1 $61 $134 #
vertex $-1 $83 $135 #
straight-curve $-1 50 20 1.94948974278318 -0 1 3.49148133884313e-15 #
epar-lwd-attrib $-1 $-1 $-1 $58 #
ellipse-curve $-1 49.5 37.5 -0.499999999999939 0 -1 0 2.5 0 0 1 #
copar-lwd-attrib $-1 $-1 $-1 $60 #
coedge $136 $60 $137 $63 $101 0 $96 $-1 #
loop $-1 $-1 $60 $138 #
epar-lwd-attrib $-1 $-1 $-1 $61 #
ellipse-curve $-1 49.5 2.5 -0.500000000000061 -0 1 -0 2.5 0 0 1 #
copar-lwd-attrib $-1 $-1 $-1 $63 #
coedge $139 $64 $63 $140 $141 0 $65 $-1 #
edge $142 $143 $68 $95 $144 0 #
copar-lwd-attrib $-1 $-1 $-1 $64 #
edge $145 $67 $146 $79 $147 0 #
point $-1 51.9494897427832 37.5 3.86570753711546e-17 #
point $-1 51.9494897427832 2.5 -3.86570753711546e-17 #
coedge $-1 $148 $149 $150 $151 1 $70 $-1 #
fface-lwd-attrib $-1 $-1 $-1 $71 #
face $152 $153 $154 $3 $-1 $155 forward single #
plane-surface $-1 0 -27.5 0 0 -1 0 0 0 -1 0 #
fface-lwd-attrib $-1 $-1 $-1 $75 #
face $156 $157 $158 $3 $-1 $159 forward single #
loop $-1 $-1 $160 $75 #
cone-surface $-1 -49.5 20 -0.5 0 -1 -3.49148133884313e-15 2.5 0 0 1 0 1 0 #
copar-lwd-attrib $-1 $-1 $-1 $77 #
coedge $161 $140 $77 $120 $162 1 $49 $-1 #
coedge $163 $77 $140 $137 $164 1 $49 $-1 #
coedge $165 $166 $167 $77 $118 0 $168 $-1 #
edge $169 $170 $171 $117 $172 0 #
copar-lwd-attrib $-1 $-1 $-1 $79 #
coedge $173 $174 $79 $115 $162 0 $34 $-1 #
copar-lwd-attrib $-1 $-1 $-1 $80 #
coedge $175 $80 $176 $177 $178 1 $34 $-1 #
copar-lwd-attrib $-1 $-1 $-1 $82 #
coedge $179 $177 $180 $82 $125 0 $181 $-1 #
edge $182 $132 $127 $124 $183 0 #
epar-lwd-attrib $-1 $-1 $-1 $83 #
vertex $-1 $83 $184 #
straight-curve $-1 50 37.5 3.75 0 0 -1 #
copar-lwd-attrib $-1 $-1 $-1 $85 #
coedge $185 $186 $85 $180 $187 1 $96 $-1 #
epar-lwd-attrib $-1 $-1 $-1 $86 #
vertex $-1 $187 $188 #
straight-curve $-1 50 2.5 3.75 -0 0 1 #
point $-1 50 2.5 1.94948974278312 #
point $-1 50 37.5 1.94948974278324 #
copar-lwd-attrib $-1 $-1 $-1 $95 #
coedge $189 $95 $190 $116 $164 0 $96 $-1 #
face $191 $192 $96 $3 $-1 $193 forward single #
copar-lwd-attrib $-1 $-1 $-1 $100 #
coedge $194 $116 $115 $100 $141 1 $49 $-1 #
edge $195 $143 $146 $100 $196 0 #
epar-lwd-attrib $-1 $-1 $-1 $101 #
vertex $-1 $164 $197 #
straight-curve $-1 60 2.5 0 -1 0 0 #
epar-lwd-attrib $-1 $-1 $-1 $103 #
vertex $-1 $103 $198 #
straight-curve $-1 30 37.5 0 1 0 -0 #
coedge $-1 $199 $106 $200 $201 0 $70 $-1 #
coedge $-1 $106 $202 $203 $204 0 $70 $-1 #
coedge $205 $206 $207 $106 $151 0 $154 $-1 #
edge $208 $209 $210 $150 $211 0 #
fface-lwd-attrib $-1 $-1 $-1 $108 #
face $212 $213 $214 $3 $-1 $215 reversed single #
loop $-1 $-1 $207 $108 #
plane-surface $-1 40 -17.5 0 1 0 0 0 0 -1 0 #
fface-lwd-attrib $-1 $-1 $-1 $111 #
face $216 $217 $218 $3 $-1 $219 forward single #
loop $-1 $-1 $220 $111 #
plane-surface $-1 -60 2.5 0 0 -1 0 0 0 -1 0 #
coedge $221 $222 $223 $224 $225 1 $112 $-1 #
copar-lwd-attrib $-1 $-1 $-1 $115 #
edge $226 $146 $170 $120 $227 0 #
copar-lwd-attrib $-1 $-1 $-1 $116 #
edge $228 $171 $143 $137 $229 0 #
copar-lwd-attrib $-1 $-1 $-1 $117 #
coedge $230 $231 $117 $190 $232 1 $168 $-1 #
coedge $233 $117 $231 $174 $234 1 $168 $-1 #
loop $-1 $-1 $117 $213 #
epar-lwd-attrib $-1 $-1 $-1 $118 #
vertex $-1 $118 $235 #
vertex $-1 $232 $236 #
straight-curve $-1 70 20 1.94948974278318 0 -1 -3.49148133884313e-15 #
copar-lwd-attrib $-1 $-1 $-1 $120 #
coedge $237 $238 $120 $167 $234 0 $34 $-1 #
copar-lwd-attrib $-1 $-1 $-1 $122 #
coedge $239 $122 $240 $241 $242 0 $34 $-1 #
coedge $243 $244 $124 $122 $178 0 $181 $-1 #
edge $245 $127 $246 $122 $247 0 #
copar-lwd-attrib $-1 $-1 $-1 $124 #
coedge $248 $124 $249 $130 $187 0 $181 $-1 #
loop $-1 $-1 $250 $251 #
epar-lwd-attrib $-1 $-1 $-1 $125 #
straight-curve $-1 50 10 15 0 1 0 #
point $-1 50 37.5 15 #
copar-lwd-attrib $-1 $-1 $-1 $130 #
coedge $252 $253 $130 $254 $255 0 $96 $-1 #
edge $256 $257 $132 $180 $258 0 #
point $-1 50 2.5 15 #
copar-lwd-attrib $-1 $-1 $-1 $137 #
coedge $259 $137 $260 $166 $232 0 $96 $-1 #
fface-lwd-attrib $-1 $-1 $-1 $138 #
face $261 $262 $263 $3 $-1 $264 forward single #
plane-surface $-1 60 2.5 0 0 -1 0 0 0 -1 0 #
copar-lwd-attrib $-1 $-1 $-1 $140 #
epar-lwd-attrib $-1 $-1 $-1 $141 #
straight-curve $-1 68.0505102572168 20 0 -0 1 3.49148133884313e-15 #
point $-1 68.0505102572168 2.5 -3.86570753711546e-17 #
point $-1 68.0505102572168 37.5 3.86570753711546e-17 #
coedge $-1 $265 $148 $266 $267 1 $70 $-1 #
coedge $268 $269 $270 $148 $201 1 $271 $-1 #
edge $272 $209 $273 $148 $274 0 #
coedge $-1 $149 $275 $276 $277 1 $70 $-1 #
coedge $278 $279 $280 $149 $204 1 $281 $-1 #
edge $282 $283 $210 $149 $284 0 #
copar-lwd-attrib $-1 $-1 $-1 $150 #
coedge $285 $286 $150 $280 $287 0 $154 $-1 #
coedge $288 $150 $289 $269 $290 0 $154 $-1 #
epar-lwd-attrib $-1 $-1 $-1 $151 #
vertex $-1 $290 $291 #
vertex $-1 $287 $292 #
straight-curve $-1 40 -27.5 0 0 0 -1 #
fface-lwd-attrib $-1 $-1 $-1 $153 #
face $293 $138 $168 $3 $-1 $294 forward single #
loop $-1 $-1 $295 $153 #
plane-surface $-1 0 -37.5 0 0 1 -0 -0 0 1 0 #
fface-lwd-attrib $-1 $-1 $-1 $157 #
face $296 $297 $298 $3 $-1 $299 reversed single #
loop $-1 $-1 $300 $157 #
plane-surface $-1 -60 20 0 0 0 1 1 0 0 0 #
coedge $301 $302 $303 $304 $305 0 $158 $-1 #
copar-lwd-attrib $-1 $-1 $-1 $160 #
coedge $306 $304 $160 $300 $307 1 $112 $-1 #
coedge $308 $160 $304 $309 $310 1 $112 $-1 #
coedge $311 $312 $313 $160 $225 0 $314 $-1 #
edge $315 $316 $317 $224 $318 0 #
epar-lwd-attrib $-1 $-1 $-1 $162 #
ellipse-curve $-1 70.5 37.5 -0.499999999999939 0 -1 0 2.5 0 0 1 #
epar-lwd-attrib $-1 $-1 $-1 $164 #
ellipse-curve $-1 70.5 2.5 -0.500000000000061 -0 1 -0 2.5 0 0 1 #
copar-lwd-attrib $-1 $-1 $-1 $166 #
coedge $319 $167 $166 $320 $321 1 $168 $-1 #
edge $322 $323 $171 $190 $324 0 #
copar-lwd-attrib $-1 $-1 $-1 $167 #
edge $325 $170 $326 $174 $327 0 #
point $-1 70 37.5 1.94948974278324 #
point $-1 70 2.5 1.94948974278312 #
copar-lwd-attrib $-1 $-1 $-1 $174 #
coedge $328 $329 $174 $330 $331 1 $34 $-1 #
copar-lwd-attrib $-1 $-1 $-1 $176 #
coedge $332 $176 $329 $333 $334 1 $34 $-1 #
coedge $335 $336 $337 $176 $242 1 $338 $-1 #
edge $339 $340 $246 $176 $341 0 #
copar-lwd-attrib $-1 $-1 $-1 $177 #
coedge $342 $343 $177 $337 $344 0 $181 $-1 #
epar-lwd-attrib $-1 $-1 $-1 $178 #
vertex $-1 $178 $345 #
straight-curve $-1 0 37.5 15 -1 0 0 #
copar-lwd-attrib $-1 $-1 $-1 $180 #
coedge $346 $180 $347 $348 $349 0 $181 $-1 #
coedge $350 $351 $352 $353 $354 0 $181 $-1 #
face $355 $356 $181 $3 $-1 $357 forward single #
copar-lwd-attrib $-1 $-1 $-1 $186 #
coedge $358 $359 $186 $360 $361 1 $96 $-1 #
coedge $362 $348 $363 $186 $255 1 $154 $-1 #
edge $364 $257 $365 $186 $366 0 #
epar-lwd-attrib $-1 $-1 $-1 $187 #
vertex $-1 $349 $367 #
straight-curve $-1 30 2.5 15 1 0 -0 #
copar-lwd-attrib $-1 $-1 $-1 $190 #
coedge $368 $190 $359 $369 $370 1 $96 $-1 #
fface-lwd-attrib $-1 $-1 $-1 $192 #
face $371 $372 $373 $3 $-1 $357 forward single #
loop $-1 $-1 $309 $192 #
plane-surface $-1 -50 20 7.5 -1 0 0 0 0 1 0 #
coedge $-1 $374 $199 $375 $376 1 $70 $-1 #
coedge $377 $378 $379 $199 $267 0 $380 $-1 #
edge $381 $382 $273 $266 $383 0 #
copar-lwd-attrib $-1 $-1 $-1 $200 #
coedge $384 $385 $200 $207 $290 1 $271 $-1 #
coedge $386 $200 $385 $378 $387 0 $271 $-1 #
loop $-1 $-1 $270 $388 #
epar-lwd-attrib $-1 $-1 $-1 $201 #
vertex $-1 $201 $389 #
straight-curve $-1 0 -27.5 5 -1 0 0 #
coedge $-1 $202 $374 $390 $391 0 $70 $-1 #
coedge $392 $393 $394 $202 $277 0 $395 $-1 #
edge $396 $283 $397 $276 $398 0 #
copar-lwd-attrib $-1 $-1 $-1 $203 #
coedge $399 $400 $203 $394 $401 1 $281 $-1 #
coedge $402 $203 $400 $206 $287 1 $281 $-1 #
loop $-1 $-1 $280 $403 #
epar-lwd-attrib $-1 $-1 $-1 $204 #
vertex $-1 $401 $404 #
straight-curve $-1 0 -27.5 -5 1 0 0 #
copar-lwd-attrib $-1 $-1 $-1 $206 #
coedge $405 $363 $206 $406 $407 1 $154 $-1 #
edge $408 $210 $409 $206 $410 0 #
copar-lwd-attrib $-1 $-1 $-1 $207 #
coedge $411 $207 $348 $412 $413 1 $154 $-1 #
edge $414 $415 $209 $207 $416 0 #
point $-1 40 -27.5 5 #
point $-1 40 -27.5 -5 #
fface-lwd-attrib $-1 $-1 $-1 $213 #
plane-surface $-1 70 20 7.5 -1 0 0 0 0 1 0 #
coedge $417 $418 $406 $400 $419 0 $214 $-1 #
fface-lwd-attrib $-1 $-1 $-1 $217 #
face $420 $421 $422 $3 $-1 $423 forward single #
loop $-1 $-1 $424 $217 #
cone-surface $-1 -70.5 20 -0.5 0 -1 -3.49148133884313e-15 2.5 0 0 1 0 1 0 #
coedge $425 $426 $427 $222 $307 0 $218 $-1 #
copar-lwd-attrib $-1 $-1 $-1 $220 #
coedge $428 $429 $220 $427 $430 0 $158 $-1 #
coedge $431 $220 $432 $433 $434 0 $158 $-1 #
coedge $435 $223 $222 $220 $305 1 $112 $-1 #
edge $436 $437 $438 $220 $439 0 #
copar-lwd-attrib $-1 $-1 $-1 $222 #
edge $440 $438 $316 $300 $441 0 #
copar-lwd-attrib $-1 $-1 $-1 $223 #
coedge $442 $433 $443 $223 $310 0 $263 $-1 #
edge $444 $317 $437 $309 $445 0 #
copar-lwd-attrib $-1 $-1 $-1 $224 #
coedge $446 $447 $224 $443 $448 0 $314 $-1 #
coedge $449 $224 $450 $426 $451 0 $314 $-1 #
loop $-1 $-1 $224 $356 #
epar-lwd-attrib $-1 $-1 $-1 $225 #
vertex $-1 $451 $452 #
vertex $-1 $225 $453 #
ellipse-curve $-1 -49.5 37.5 -0.499999999999939 0 -1 0 2.5 0 0 1 #
copar-lwd-attrib $-1 $-1 $-1 $231 #
coedge $454 $369 $330 $231 $321 0 $455 $-1 #
edge $456 $326 $323 $320 $457 0 #
epar-lwd-attrib $-1 $-1 $-1 $232 #
vertex $-1 $321 $458 #
straight-curve $-1 70 2.5 3.75 -0 -0 -1 #
epar-lwd-attrib $-1 $-1 $-1 $234 #
vertex $-1 $331 $459 #
straight-curve $-1 70 37.5 3.75 0 0 1 #
copar-lwd-attrib $-1 $-1 $-1 $238 #
coedge $460 $240 $238 $461 $462 0 $34 $-1 #
coedge $463 $320 $464 $238 $331 0 $455 $-1 #
edge $465 $466 $326 $238 $247 0 #
copar-lwd-attrib $-1 $-1 $-1 $240 #
coedge $467 $468 $469 $240 $334 0 $470 $-1 #
edge $471 $340 $472 $240 $473 0 #
copar-lwd-attrib $-1 $-1 $-1 $241 #
coedge $474 $475 $241 $469 $476 1 $338 $-1 #
coedge $477 $241 $475 $244 $344 1 $338 $-1 #
loop $-1 $-1 $475 $478 #
epar-lwd-attrib $-1 $-1 $-1 $242 #
vertex $-1 $476 $479 #
straight-curve $-1 20 37.5 0 0 0 1 #
copar-lwd-attrib $-1 $-1 $-1 $244 #
coedge $480 $352 $244 $481 $482 0 $181 $-1 #
edge $483 $246 $484 $244 $485 0 #
point $-1 20 37.5 15 #
copar-lwd-attrib $-1 $-1 $-1 $249 #
coedge $486 $249 $487 $488 $489 0 $181 $-1 #
coedge $490 $289 $254 $249 $349 1 $154 $-1 #
edge $491 $492 $257 $249 $493 0 #
copar-lwd-attrib $-1 $-1 $-1 $250 #
coedge $494 $495 $250 $496 $497 0 $181 $-1 #
coedge $498 $250 $343 $499 $500 0 $181 $-1 #
coedge $501 $502 $503 $250 $354 1 $504 $-1 #
edge $505 $506 $507 $250 $508 0 #
fface-lwd-attrib $-1 $-1 $-1 $251 #
face $509 $510 $314 $3 $-1 $35 reversed single #
plane-surface $-1 0 0 15 0 0 1 1 0 0 0 #
copar-lwd-attrib $-1 $-1 $-1 $253 #
coedge $511 $260 $253 $512 $513 1 $96 $-1 #
coedge $514 $515 $468 $253 $361 0 $470 $-1 #
edge $516 $517 $365 $360 $518 0 #
copar-lwd-attrib $-1 $-1 $-1 $254 #
coedge $519 $254 $286 $515 $520 1 $154 $-1 #
epar-lwd-attrib $-1 $-1 $-1 $255 #
vertex $-1 $520 $521 #
straight-curve $-1 40 2.5 0 0 0 -1 #
point $-1 40 2.5 15 #
copar-lwd-attrib $-1 $-1 $-1 $260 #
coedge $522 $464 $320 $260 $370 0 $455 $-1 #
edge $523 $323 $524 $369 $258 0 #
fface-lwd-attrib $-1 $-1 $-1 $262 #
face $525 $526 $527 $3 $-1 $528 reversed single #
loop $-1 $-1 $529 $262 #
coedge $-1 $275 $265 $530 $531 0 $70 $-1 #
coedge $532 $487 $533 $265 $376 0 $181 $-1 #
edge $534 $535 $382 $375 $536 0 #
copar-lwd-attrib $-1 $-1 $-1 $266 #
coedge $537 $538 $266 $270 $387 1 $380 $-1 #
coedge $539 $266 $538 $487 $540 1 $380 $-1 #
loop $-1 $-1 $538 $541 #
epar-lwd-attrib $-1 $-1 $-1 $267 #
vertex $-1 $376 $542 #
straight-curve $-1 32.5 -27.5 10 0 0 -1 #
copar-lwd-attrib $-1 $-1 $-1 $269 #
coedge $543 $270 $269 $544 $545 1 $271 $-1 #
copar-lwd-attrib $-1 $-1 $-1 $270 #
edge $546 $547 $273 $270 $548 0 #
face $549 $550 $271 $3 $-1 $551 reversed single #
point $-1 32.5 -27.5 5 #
coedge $552 $553 $554 $275 $391 1 $555 $-1 #
edge $556 $557 $397 $275 $274 0 #
copar-lwd-attrib $-1 $-1 $-1 $276 #
coedge $558 $559 $276 $554 $560 0 $395 $-1 #
coedge $561 $276 $562 $279 $401 0 $395 $-1 #
loop $-1 $-1 $393 $526 #
epar-lwd-attrib $-1 $-1 $-1 $277 #
vertex $-1 $560 $563 #
straight-curve $-1 -40 -27.5 0 0 0 1 #
copar-lwd-attrib $-1 $-1 $-1 $279 #
coedge $564 $280 $279 $295 $419 1 $281 $-1 #
edge $565 $566 $283 $394 $567 0 #
copar-lwd-attrib $-1 $-1 $-1 $280 #
face $568 $71 $281 $3 $-1 $569 forward single #
point $-1 -40 -27.5 -5 #
copar-lwd-attrib $-1 $-1 $-1 $286 #
coedge $570 $295 $571 $286 $407 0 $214 $-1 #
edge $572 $573 $409 $406 $574 0 #
epar-lwd-attrib $-1 $-1 $-1 $287 #
vertex $-1 $407 $575 #
straight-curve $-1 40 -25 -5 0 -1 0 #
copar-lwd-attrib $-1 $-1 $-1 $289 #
coedge $576 $488 $544 $289 $413 0 $577 $-1 #
edge $578 $415 $492 $412 $574 0 #
epar-lwd-attrib $-1 $-1 $-1 $290 #
vertex $-1 $545 $579 #
straight-curve $-1 40 -25 5 0 1 0 #
copar-lwd-attrib $-1 $-1 $-1 $295 #
coedge $580 $571 $295 $562 $581 0 $214 $-1 #
edge $582 $409 $566 $295 $583 0 #
fface-lwd-attrib $-1 $-1 $-1 $297 #
face $584 $585 $504 $3 $-1 $586 reversed single #
loop $-1 $-1 $587 $297 #
plane-surface $-1 -70 20 7.5 1 0 0 0 0 -1 0 #
coedge $588 $589 $590 $450 $591 1 $298 $-1 #
copar-lwd-attrib $-1 $-1 $-1 $300 #
coedge $592 $593 $300 $313 $451 1 $218 $-1 #
coedge $594 $300 $593 $302 $430 1 $218 $-1 #
copar-lwd-attrib $-1 $-1 $-1 $302 #
coedge $595 $596 $302 $597 $598 0 $158 $-1 #
edge $599 $438 $600 $302 $601 0 #
copar-lwd-attrib $-1 $-1 $-1 $303 #
coedge $602 $303 $603 $604 $605 1 $158 $-1 #
coedge $606 $607 $309 $303 $434 1 $263 $-1 #
edge $608 $609 $437 $303 $610 0 #
copar-lwd-attrib $-1 $-1 $-1 $304 #
epar-lwd-attrib $-1 $-1 $-1 $305 #
vertex $-1 $434 $611 #
vertex $-1 $307 $612 #
ellipse-curve $-1 -49.5 2.5 -0.500000000000061 -0 1 -0 2.5 0 0 1 #
epar-lwd-attrib $-1 $-1 $-1 $307 #
straight-curve $-1 -51.9494897427832 20 0 -0 1 3.49148133884313e-15 #
copar-lwd-attrib $-1 $-1 $-1 $309 #
coedge $613 $309 $607 $312 $448 1 $263 $-1 #
epar-lwd-attrib $-1 $-1 $-1 $310 #
straight-curve $-1 -50 20 1.94948974278318 0 -1 -3.49148133884313e-15 #
copar-lwd-attrib $-1 $-1 $-1 $312 #
coedge $614 $615 $312 $495 $616 1 $314 $-1 #
edge $617 $317 $618 $312 $619 0 #
copar-lwd-attrib $-1 $-1 $-1 $313 #
coedge $620 $313 $621 $424 $591 0 $314 $-1 #
edge $622 $623 $316 $313 $624 0 #
point $-1 -51.9494897427832 37.5 3.86570753711546e-17 #
point $-1 -50 37.5 1.94948974278324 #
copar-lwd-attrib $-1 $-1 $-1 $320 #
loop $-1 $-1 $320 $625 #
epar-lwd-attrib $-1 $-1 $-1 $321 #
straight-curve $-1 70 10 15 0 -1 0 #
point $-1 70 2.5 15 #
point $-1 70 37.5 15 #
copar-lwd-attrib $-1 $-1 $-1 $329 #
coedge $626 $627 $628 $329 $462 1 $527 $-1 #
edge $629 $466 $472 $461 $630 0 #
copar-lwd-attrib $-1 $-1 $-1 $330 #
coedge $631 $330 $369 $627 $632 0 $455 $-1 #
epar-lwd-attrib $-1 $-1 $-1 $331 #
vertex $-1 $632 $633 #
copar-lwd-attrib $-1 $-1 $-1 $333 #
coedge $634 $360 $333 $628 $635 0 $470 $-1 #
coedge $636 $333 $637 $336 $476 0 $470 $-1 #
loop $-1 $-1 $638 $639 #
epar-lwd-attrib $-1 $-1 $-1 $334 #
vertex $-1 $635 $640 #
straight-curve $-1 0 37.5 -15 1 0 0 #
copar-lwd-attrib $-1 $-1 $-1 $336 #
coedge $641 $337 $336 $642 $643 0 $338 $-1 #
edge $644 $645 $340 $469 $646 0 #
copar-lwd-attrib $-1 $-1 $-1 $337 #
face $647 $251 $338 $3 $-1 $648 forward single #
point $-1 20 37.5 -15 #
copar-lwd-attrib $-1 $-1 $-1 $343 #
coedge $649 $642 $650 $343 $482 1 $651 $-1 #
edge $652 $484 $653 $343 $654 0 #
epar-lwd-attrib $-1 $-1 $-1 $344 #
vertex $-1 $344 $655 #
straight-curve $-1 20 13.75 15 0 -1 0 #
copar-lwd-attrib $-1 $-1 $-1 $347 #
coedge $656 $347 $375 $379 $540 0 $181 $-1 #
coedge $657 $658 $412 $347 $489 1 $577 $-1 #
edge $659 $660 $492 $488 $661 0 #
copar-lwd-attrib $-1 $-1 $-1 $348 #
epar-lwd-attrib $-1 $-1 $-1 $349 #
vertex $-1 $489 $662 #
straight-curve $-1 40 -8.75 15 0 1 0 #
copar-lwd-attrib $-1 $-1 $-1 $351 #
coedge $663 $664 $351 $447 $616 0 $181 $-1 #
coedge $665 $666 $667 $351 $497 1 $668 $-1 #
edge $669 $507 $670 $351 $671 0 #
copar-lwd-attrib $-1 $-1 $-1 $352 #
coedge $672 $673 $674 $352 $500 1 $675 $-1 #
edge $676 $653 $506 $352 $677 0 #
copar-lwd-attrib $-1 $-1 $-1 $353 #
coedge $678 $679 $353 $674 $680 1 $504 $-1 #
coedge $681 $353 $679 $666 $682 1 $504 $-1 #
loop $-1 $-1 $502 $421 #
epar-lwd-attrib $-1 $-1 $-1 $354 #
vertex $-1 $500 $683 #
vertex $-1 $354 $684 #
ellipse-curve $-1 -20.5 17 15 -0 -0 -1 2.5 0 0 1 #
fface-lwd-attrib $-1 $-1 $-1 $356 #
face $685 $541 $686 $3 $-1 $687 forward single #
copar-lwd-attrib $-1 $-1 $-1 $359 #
coedge $688 $628 $627 $359 $513 0 $527 $-1 #
edge $689 $524 $517 $512 $690 0 #
copar-lwd-attrib $-1 $-1 $-1 $360 #
coedge $691 $692 $360 $363 $520 0 $470 $-1 #
epar-lwd-attrib $-1 $-1 $-1 $361 #
vertex $-1 $635 $693 #
straight-curve $-1 30 2.5 -15 -1 0 0 #
copar-lwd-attrib $-1 $-1 $-1 $363 #
edge $694 $365 $573 $515 $695 0 #
point $-1 40 2.5 -15 #
copar-lwd-attrib $-1 $-1 $-1 $369 #
epar-lwd-attrib $-1 $-1 $-1 $370 #
vertex $-1 $513 $696 #
fface-lwd-attrib $-1 $-1 $-1 $372 #
face $697 $625 $395 $3 $-1 $698 forward single #
loop $-1 $-1 $512 $372 #
plane-surface $-1 80 0 0 -1 0 0 0 -0 1 0 #
coedge $699 $700 $701 $702 $703 0 $373 $-1 #
coedge $704 $705 $706 $374 $531 1 $686 $-1 #
edge $707 $535 $557 $374 $708 0 #
copar-lwd-attrib $-1 $-1 $-1 $375 #
coedge $709 $375 $710 $705 $711 0 $181 $-1 #
epar-lwd-attrib $-1 $-1 $-1 $376 #
vertex $-1 $711 $712 #
straight-curve $-1 0 -27.5 15 1 0 -0 #
copar-lwd-attrib $-1 $-1 $-1 $378 #
coedge $713 $379 $378 $658 $714 1 $380 $-1 #
copar-lwd-attrib $-1 $-1 $-1 $379 #
edge $715 $382 $660 $487 $716 0 #
face $717 $388 $380 $3 $-1 $718 forward single #
point $-1 32.5 -27.5 15 #
copar-lwd-attrib $-1 $-1 $-1 $385 #
coedge $719 $412 $658 $385 $545 0 $577 $-1 #
edge $720 $547 $415 $544 $721 0 #
epar-lwd-attrib $-1 $-1 $-1 $387 #
vertex $-1 $714 $722 #
straight-curve $-1 32.5 -32.5 5 0 1 -0 #
fface-lwd-attrib $-1 $-1 $-1 $388 #
face $723 $724 $555 $3 $-1 $551 reversed single #
plane-surface $-1 0 -32.5 5 0 0 1 1 0 0 0 #
copar-lwd-attrib $-1 $-1 $-1 $390 #
coedge $725 $726 $390 $706 $727 0 $555 $-1 #
coedge $728 $390 $726 $393 $560 1 $555 $-1 #
loop $-1 $-1 $553 $550 #
epar-lwd-attrib $-1 $-1 $-1 $391 #
vertex $-1 $391 $729 #
copar-lwd-attrib $-1 $-1 $-1 $393 #
coedge $730 $731 $393 $732 $733 1 $395 $-1 #
edge $734 $397 $735 $393 $736 0 #
copar-lwd-attrib $-1 $-1 $-1 $394 #
coedge $737 $394 $738 $418 $581 1 $395 $-1 #
point $-1 -40 -27.5 5 #
copar-lwd-attrib $-1 $-1 $-1 $400 #
epar-lwd-attrib $-1 $-1 $-1 $401 #
vertex $-1 $401 $739 #
straight-curve $-1 -40 -25 -5 0 1 -0 #
fface-lwd-attrib $-1 $-1 $-1 $403 #
plane-surface $-1 0 -32.5 -5 0 0 1 1 0 0 0 #
copar-lwd-attrib $-1 $-1 $-1 $406 #
coedge $740 $406 $418 $692 $741 1 $214 $-1 #
epar-lwd-attrib $-1 $-1 $-1 $407 #
vertex $-1 $520 $742 #
straight-curve $-1 40 -37.5 0 -0 0 1 #
point $-1 40 -37.5 -5 #
copar-lwd-attrib $-1 $-1 $-1 $412 #
loop $-1 $-1 $658 $743 #
epar-lwd-attrib $-1 $-1 $-1 $413 #
point $-1 40 -37.5 5 #
copar-lwd-attrib $-1 $-1 $-1 $418 #
edge $744 $566 $745 $418 $746 0 #
epar-lwd-attrib $-1 $-1 $-1 $419 #
straight-curve $-1 0 -37.5 -5 -1 0 0 #
fface-lwd-attrib $-1 $-1 $-1 $421 #
face $747 $639 $668 $3 $-1 $748 forward single #
cone-surface $-1 -20.5 17 0 0 0 1 2.5 0 0 1 0 1 0 #
coedge $749 $750 $751 $589 $752 0 $422 $-1 #
copar-lwd-attrib $-1 $-1 $-1 $424 #
coedge $753 $597 $424 $587 $752 1 $298 $-1 #
coedge $754 $424 $597 $593 $755 1 $298 $-1 #
edge $756 $757 $623 $450 $758 0 #
copar-lwd-attrib $-1 $-1 $-1 $426 #
coedge $759 $427 $426 $590 $755 0 $218 $-1 #
copar-lwd-attrib $-1 $-1 $-1 $427 #
copar-lwd-attrib $-1 $-1 $-1 $429 #
coedge $760 $761 $429 $751 $762 0 $158 $-1 #
coedge $763 $590 $589 $429 $598 1 $298 $-1 #
edge $764 $600 $765 $429 $766 0 #
epar-lwd-attrib $-1 $-1 $-1 $430 #
vertex $-1 $430 $767 #
straight-curve $-1 -60 2.5 0 -1 0 0 #
copar-lwd-attrib $-1 $-1 $-1 $432 #
coedge $768 $432 $769 $770 $771 1 $158 $-1 #
coedge $772 $773 $664 $432 $605 0 $181 $-1 #
edge $774 $609 $775 $604 $776 0 #
copar-lwd-attrib $-1 $-1 $-1 $433 #
coedge $777 $443 $433 $664 $778 1 $263 $-1 #
epar-lwd-attrib $-1 $-1 $-1 $434 #
vertex $-1 $778 $779 #
straight-curve $-1 -50 2.5 3.75 -0 -0 -1 #
point $-1 -50 2.5 1.94948974278312 #
point $-1 -51.9494897427832 2.5 -3.86570753711546e-17 #
copar-lwd-attrib $-1 $-1 $-1 $443 #
copar-lwd-attrib $-1 $-1 $-1 $447 #
coedge $780 $781 $447 $667 $782 0 $314 $-1 #
edge $783 $670 $618 $447 $247 0 #
epar-lwd-attrib $-1 $-1 $-1 $448 #
vertex $-1 $616 $784 #
straight-curve $-1 -50 37.5 3.75 0 0 1 #
copar-lwd-attrib $-1 $-1 $-1 $450 #
coedge $785 $450 $786 $750 $787 0 $314 $-1 #
epar-lwd-attrib $-1 $-1 $-1 $451 #
vertex $-1 $591 $788 #
straight-curve $-1 -30 37.5 0 1 0 -0 #
face $789 $790 $455 $3 $-1 $357 forward single #
copar-lwd-attrib $-1 $-1 $-1 $461 #
coedge $791 $512 $461 $464 $632 1 $527 $-1 #
coedge $792 $461 $512 $468 $635 1 $527 $-1 #
epar-lwd-attrib $-1 $-1 $-1 $462 #
straight-curve $-1 80 37.5 0 0 0 -1 #
copar-lwd-attrib $-1 $-1 $-1 $464 #
edge $793 $524 $466 $627 $794 0 #
point $-1 80 37.5 15 #
copar-lwd-attrib $-1 $-1 $-1 $468 #
edge $795 $472 $517 $628 $796 0 #
copar-lwd-attrib $-1 $-1 $-1 $469 #
coedge $797 $469 $798 $799 $800 0 $470 $-1 #
coedge $801 $798 $802 $679 $803 0 $470 $-1 #
face $804 $805 $470 $3 $-1 $806 reversed single #
point $-1 80 37.5 -15 #
copar-lwd-attrib $-1 $-1 $-1 $475 #
coedge $807 $799 $481 $475 $643 1 $651 $-1 #
edge $808 $645 $484 $475 $809 0 #
epar-lwd-attrib $-1 $-1 $-1 $476 #
vertex $-1 $643 $810 #
straight-curve $-1 20 13.75 -15 0 1 -0 #
fface-lwd-attrib $-1 $-1 $-1 $478 #
plane-surface $-1 20 27.5 0 -1 0 0 0 0 1 0 #
copar-lwd-attrib $-1 $-1 $-1 $481 #
coedge $811 $481 $799 $673 $812 1 $651 $-1 #
loop $-1 $-1 $642 $805 #
epar-lwd-attrib $-1 $-1 $-1 $482 #
vertex $-1 $482 $813 #
ellipse-curve $-1 20.5 17 15 -0 -0 -1 2.5 0 0 1 #
point $-1 20 19.4494897427832 15 #
copar-lwd-attrib $-1 $-1 $-1 $487 #
copar-lwd-attrib $-1 $-1 $-1 $488 #
coedge $814 $544 $488 $538 $714 0 $577 $-1 #
epar-lwd-attrib $-1 $-1 $-1 $489 #
vertex $-1 $714 $815 #
straight-curve $-1 0 -37.5 15 1 0 0 #
point $-1 40 -37.5 15 #
copar-lwd-attrib $-1 $-1 $-1 $495 #
coedge $816 $604 $495 $607 $778 0 $181 $-1 #
copar-lwd-attrib $-1 $-1 $-1 $496 #
coedge $817 $818 $496 $503 $682 0 $668 $-1 #
coedge $819 $496 $818 $615 $782 1 $668 $-1 #
loop $-1 $-1 $666 $585 #
epar-lwd-attrib $-1 $-1 $-1 $497 #
vertex $-1 $782 $820 #
straight-curve $-1 -20 13.75 15 0 1 0 #
copar-lwd-attrib $-1 $-1 $-1 $499 #
coedge $821 $822 $499 $650 $812 0 $675 $-1 #
coedge $823 $499 $822 $502 $680 0 $675 $-1 #
loop $-1 $-1 $674 $824 #
epar-lwd-attrib $-1 $-1 $-1 $500 #
straight-curve $-1 0 17.5 15 -1 0 0 #
copar-lwd-attrib $-1 $-1 $-1 $502 #
coedge $825 $503 $502 $638 $803 1 $504 $-1 #
edge $826 $827 $506 $674 $828 0 #
copar-lwd-attrib $-1 $-1 $-1 $503 #
edge $829 $507 $830 $666 $831 0 #
point $-1 -18.0505102572168 17.5 15 #
point $-1 -20 19.4494897427832 15 #
fface-lwd-attrib $-1 $-1 $-1 $510 #
loop $-1 $-1 $530 $510 #
plane-surface $-1 -32.5 -32.5 10 1 0 0 0 0 -1 0 #
copar-lwd-attrib $-1 $-1 $-1 $512 #
epar-lwd-attrib $-1 $-1 $-1 $513 #
straight-curve $-1 80 2.5 0 -0 -0 -1 #
copar-lwd-attrib $-1 $-1 $-1 $515 #
coedge $832 $833 $515 $571 $741 0 $470 $-1 #
point $-1 80 2.5 -15 #
epar-lwd-attrib $-1 $-1 $-1 $520 #
straight-curve $-1 40 -8.75 -15 0 -1 0 #
point $-1 80 2.5 15 #
fface-lwd-attrib $-1 $-1 $-1 $526 #
plane-surface $-1 -40 -17.5 0 -1 0 0 0 0 1 0 #
copar-lwd-attrib $-1 $-1 $-1 $529 #
coedge $834 $835 $529 $786 $836 0 $373 $-1 #
coedge $837 $529 $835 $761 $838 0 $373 $-1 #
coedge $839 $751 $750 $529 $703 1 $422 $-1 #
edge $840 $841 $842 $529 $843 0 #
copar-lwd-attrib $-1 $-1 $-1 $530 #
coedge $844 $845 $530 $533 $711 1 $686 $-1 #
coedge $846 $530 $845 $553 $727 1 $686 $-1 #
epar-lwd-attrib $-1 $-1 $-1 $531 #
straight-curve $-1 -32.5 -27.5 10 0 0 -1 #
copar-lwd-attrib $-1 $-1 $-1 $533 #
coedge $847 $533 $773 $848 $849 0 $181 $-1 #
edge $850 $851 $535 $533 $852 0 #
point $-1 -32.5 -27.5 15 #
copar-lwd-attrib $-1 $-1 $-1 $538 #
edge $853 $660 $547 $658 $854 0 #
epar-lwd-attrib $-1 $-1 $-1 $540 #
straight-curve $-1 32.5 -16.25 15 0 -1 0 #
fface-lwd-attrib $-1 $-1 $-1 $541 #
plane-surface $-1 32.5 -32.5 10 -1 0 0 0 0 1 0 #
copar-lwd-attrib $-1 $-1 $-1 $544 #
epar-lwd-attrib $-1 $-1 $-1 $545 #
straight-curve $-1 0 -37.5 5 1 -0 0 #
point $-1 32.5 -37.5 5 #
fface-lwd-attrib $-1 $-1 $-1 $550 #
face $855 $743 $856 $3 $-1 $215 reversed single #
copar-lwd-attrib $-1 $-1 $-1 $553 #
coedge $857 $554 $553 $858 $859 1 $555 $-1 #
edge $860 $557 $861 $553 $862 0 #
copar-lwd-attrib $-1 $-1 $-1 $554 #
point $-1 -32.5 -27.5 5 #
copar-lwd-attrib $-1 $-1 $-1 $559 #
coedge $863 $770 $559 $773 $864 1 $395 $-1 #
coedge $865 $858 $848 $559 $733 0 $856 $-1 #
edge $866 $867 $735 $732 $746 0 #
epar-lwd-attrib $-1 $-1 $-1 $560 #
vertex $-1 $733 $868 #
straight-curve $-1 -40 -25 5 0 -1 0 #
copar-lwd-attrib $-1 $-1 $-1 $562 #
coedge $869 $562 $770 $833 $870 1 $395 $-1 #
point $-1 -40 -37.5 -5 #
copar-lwd-attrib $-1 $-1 $-1 $571 #
edge $871 $573 $745 $571 $872 0 #
point $-1 40 -37.5 -15 #
face $873 $403 $577 $3 $-1 $215 reversed single #
epar-lwd-attrib $-1 $-1 $-1 $581 #
vertex $-1 $741 $874 #
straight-curve $-1 -40 -37.5 0 -0 0 -1 #
fface-lwd-attrib $-1 $-1 $-1 $585 #
plane-surface $-1 -20 27.5 0 1 0 0 0 0 -1 0 #
copar-lwd-attrib $-1 $-1 $-1 $587 #
coedge $875 $702 $587 $621 $787 1 $422 $-1 #
coedge $876 $587 $702 $596 $762 1 $422 $-1 #
edge $877 $765 $757 $587 $878 0 #
copar-lwd-attrib $-1 $-1 $-1 $589 #
copar-lwd-attrib $-1 $-1 $-1 $590 #
edge $879 $623 $600 $593 $880 0 #
epar-lwd-attrib $-1 $-1 $-1 $591 #
vertex $-1 $787 $881 #
ellipse-curve $-1 -70.5 37.5 -0.499999999999939 0 -1 0 2.5 0 0 1 #
copar-lwd-attrib $-1 $-1 $-1 $593 #
copar-lwd-attrib $-1 $-1 $-1 $596 #
coedge $882 $883 $596 $701 $838 1 $158 $-1 #
edge $884 $765 $841 $596 $885 0 #
copar-lwd-attrib $-1 $-1 $-1 $597 #
epar-lwd-attrib $-1 $-1 $-1 $598 #
vertex $-1 $752 $886 #
ellipse-curve $-1 -70.5 2.5 -0.500000000000061 -0 1 -0 2.5 0 0 1 #
point $-1 -68.0505102572168 2.5 -3.86570753712303e-17 #
copar-lwd-attrib $-1 $-1 $-1 $603 #
coedge $887 $603 $883 $888 $889 1 $158 $-1 #
coedge $890 $738 $731 $603 $771 0 $395 $-1 #
edge $891 $775 $892 $770 $893 0 #
copar-lwd-attrib $-1 $-1 $-1 $604 #
coedge $894 $710 $604 $731 $864 0 $181 $-1 #
epar-lwd-attrib $-1 $-1 $-1 $605 #
vertex $-1 $605 $895 #
straight-curve $-1 -30 2.5 15 1 0 -0 #
copar-lwd-attrib $-1 $-1 $-1 $607 #
edge $896 $618 $609 $664 $897 0 #
point $-1 -50 2.5 15 #
copar-lwd-attrib $-1 $-1 $-1 $615 #
coedge $898 $899 $615 $900 $901 1 $314 $-1 #
edge $902 $670 $903 $615 $904 0 #
epar-lwd-attrib $-1 $-1 $-1 $616 #
point $-1 -50 37.5 15 #
copar-lwd-attrib $-1 $-1 $-1 $621 #
coedge $905 $621 $899 $700 $836 1 $314 $-1 #
edge $906 $842 $757 $621 $907 0 #
point $-1 -68.0505102572168 37.5 3.86570753712303e-17 #
fface-lwd-attrib $-1 $-1 $-1 $625 #
face $908 $-1 $909 $3 $-1 $910 reversed single #
copar-lwd-attrib $-1 $-1 $-1 $627 #
copar-lwd-attrib $-1 $-1 $-1 $628 #
epar-lwd-attrib $-1 $-1 $-1 $632 #
straight-curve $-1 80 0 15 0 1 0 #
epar-lwd-attrib $-1 $-1 $-1 $635 #
straight-curve $-1 80 0 -15 0 -1 0 #
copar-lwd-attrib $-1 $-1 $-1 $637 #
coedge $911 $637 $638 $822 $912 0 $470 $-1 #
coedge $913 $650 $642 $637 $800 1 $651 $-1 #
edge $914 $915 $645 $637 $916 0 #
copar-lwd-attrib $-1 $-1 $-1 $638 #
coedge $917 $638 $900 $818 $918 0 $470 $-1 #
edge $919 $830 $827 $638 $920 0 #
fface-lwd-attrib $-1 $-1 $-1 $639 #
face $921 $824 $651 $3 $-1 $922 reversed single #
plane-surface $-1 0 0 -15 0 0 1 1 0 0 0 #
copar-lwd-attrib $-1 $-1 $-1 $642 #
epar-lwd-attrib $-1 $-1 $-1 $643 #
straight-curve $-1 20 19.4494897427832 0 0 0 1 #
point $-1 20 19.4494897427832 -15 #
copar-lwd-attrib $-1 $-1 $-1 $650 #
edge $923 $653 $915 $673 $924 0 #
point $-1 18.0505102572168 17.5 15 #
copar-lwd-attrib $-1 $-1 $-1 $658 #
point $-1 32.5 -37.5 15 #
copar-lwd-attrib $-1 $-1 $-1 $664 #
copar-lwd-attrib $-1 $-1 $-1 $666 #
coedge $925 $667 $666 $802 $918 1 $668 $-1 #
copar-lwd-attrib $-1 $-1 $-1 $667 #
point $-1 -20 37.5 15 #
copar-lwd-attrib $-1 $-1 $-1 $673 #
coedge $926 $674 $673 $798 $912 1 $675 $-1 #
copar-lwd-attrib $-1 $-1 $-1 $674 #
face $927 $478 $675 $3 $-1 $928 forward single #
copar-lwd-attrib $-1 $-1 $-1 $679 #
epar-lwd-attrib $-1 $-1 $-1 $680 #
vertex $-1 $680 $929 #
straight-curve $-1 -18.0505102572168 17.5 0 0 0 1 #
epar-lwd-attrib $-1 $-1 $-1 $682 #
vertex $-1 $918 $930 #
straight-curve $-1 -20 19.4494897427832 0 -0 -0 -1 #
copar-lwd-attrib $-1 $-1 $-1 $692 #
coedge $931 $888 $692 $738 $870 0 $470 $-1 #
copar-lwd-attrib $-1 $-1 $-1 $700 #
coedge $932 $701 $700 $933 $934 0 $373 $-1 #
edge $935 $842 $936 $786 $247 0 #
copar-lwd-attrib $-1 $-1 $-1 $701 #
edge $937 $938 $841 $701 $776 0 #
copar-lwd-attrib $-1 $-1 $-1 $702 #
epar-lwd-attrib $-1 $-1 $-1 $703 #
vertex $-1 $838 $939 #
vertex $-1 $787 $940 #
straight-curve $-1 -70 10 15 0 1 0 #
copar-lwd-attrib $-1 $-1 $-1 $705 #
coedge $941 $706 $705 $942 $943 1 $686 $-1 #
copar-lwd-attrib $-1 $-1 $-1 $706 #
copar-lwd-attrib $-1 $-1 $-1 $710 #
coedge $944 $732 $942 $710 $849 1 $856 $-1 #
edge $945 $867 $851 $848 $661 0 #
epar-lwd-attrib $-1 $-1 $-1 $711 #
vertex $-1 $849 $946 #
straight-curve $-1 -32.5 -16.25 15 0 1 0 #
epar-lwd-attrib $-1 $-1 $-1 $714 #
straight-curve $-1 32.5 -37.5 5 -0 0 -1 #
fface-lwd-attrib $-1 $-1 $-1 $724 #
loop $-1 $-1 $942 $724 #
copar-lwd-attrib $-1 $-1 $-1 $726 #
coedge $947 $942 $732 $726 $859 0 $856 $-1 #
edge $948 $735 $861 $858 $721 0 #
epar-lwd-attrib $-1 $-1 $-1 $727 #
vertex $-1 $859 $949 #
straight-curve $-1 -32.5 -32.5 5 0 -1 0 #
copar-lwd-attrib $-1 $-1 $-1 $731 #
edge $950 $775 $867 $773 $951 0 #
copar-lwd-attrib $-1 $-1 $-1 $732 #
epar-lwd-attrib $-1 $-1 $-1 $733 #
vertex $-1 $733 $952 #
point $-1 -40 -37.5 5 #
copar-lwd-attrib $-1 $-1 $-1 $738 #
edge $953 $745 $892 $833 $954 0 #
epar-lwd-attrib $-1 $-1 $-1 $741 #
straight-curve $-1 0 -37.5 -15 -1 0 0 #
fface-lwd-attrib $-1 $-1 $-1 $743 #
point $-1 -40 -37.5 -15 #
copar-lwd-attrib $-1 $-1 $-1 $750 #
copar-lwd-attrib $-1 $-1 $-1 $751 #
epar-lwd-attrib $-1 $-1 $-1 $752 #
straight-curve $-1 -70 20 1.94948974278318 -0 1 3.49148133884313e-15 #
epar-lwd-attrib $-1 $-1 $-1 $755 #
straight-curve $-1 -68.0505102572168 20 0 0 -1 -3.49148133884313e-15 #
point $-1 -70 37.5 1.94948974278324 #
copar-lwd-attrib $-1 $-1 $-1 $761 #
coedge $955 $769 $761 $956 $957 1 $158 $-1 #
epar-lwd-attrib $-1 $-1 $-1 $762 #
straight-curve $-1 -70 2.5 3.75 -0 0 1 #
point $-1 -70 2.5 1.94948974278312 #
copar-lwd-attrib $-1 $-1 $-1 $769 #
coedge $958 $959 $833 $769 $889 0 $470 $-1 #
edge $960 $892 $961 $888 $962 0 #
copar-lwd-attrib $-1 $-1 $-1 $770 #
epar-lwd-attrib $-1 $-1 $-1 $771 #
vertex $-1 $889 $963 #
straight-curve $-1 -40 2.5 0 0 0 -1 #
copar-lwd-attrib $-1 $-1 $-1 $773 #
point $-1 -40 2.5 15 #
epar-lwd-attrib $-1 $-1 $-1 $778 #
straight-curve $-1 -50 10 15 0 -1 0 #
copar-lwd-attrib $-1 $-1 $-1 $781 #
coedge $964 $786 $781 $965 $966 1 $314 $-1 #
coedge $967 $802 $959 $781 $901 0 $470 $-1 #
edge $968 $969 $903 $781 $473 0 #
epar-lwd-attrib $-1 $-1 $-1 $782 #
vertex $-1 $901 $970 #
straight-curve $-1 -20 37.5 0 0 0 -1 #
copar-lwd-attrib $-1 $-1 $-1 $786 #
epar-lwd-attrib $-1 $-1 $-1 $787 #
straight-curve $-1 -70 37.5 3.75 0 0 -1 #
fface-lwd-attrib $-1 $-1 $-1 $790 #
loop $-1 $-1 $956 $790 #
plane-surface $-1 -80 0 0 1 0 0 0 0 -1 0 #
copar-lwd-attrib $-1 $-1 $-1 $798 #
edge $971 $827 $915 $798 $972 0 #
copar-lwd-attrib $-1 $-1 $-1 $799 #
epar-lwd-attrib $-1 $-1 $-1 $800 #
vertex $-1 $912 $973 #
ellipse-curve $-1 20.5 17 -15 0 0 1 2.5 0 0 1 #
copar-lwd-attrib $-1 $-1 $-1 $802 #
edge $974 $903 $830 $802 $975 0 #
epar-lwd-attrib $-1 $-1 $-1 $803 #
ellipse-curve $-1 -20.5 17 -15 0 0 1 2.5 0 0 1 #
fface-lwd-attrib $-1 $-1 $-1 $805 #
cone-surface $-1 20.5 17 0 0 0 1 2.5 0 0 1 0 1 0 #
epar-lwd-attrib $-1 $-1 $-1 $812 #
straight-curve $-1 18.0505102572168 17.5 0 -0 -0 -1 #
copar-lwd-attrib $-1 $-1 $-1 $818 #
copar-lwd-attrib $-1 $-1 $-1 $822 #
fface-lwd-attrib $-1 $-1 $-1 $824 #
plane-surface $-1 0 17.5 0 0 1 0 0 0 1 0 #
point $-1 -18.0505102572168 17.5 -15 #
point $-1 -20 19.4494897427832 -15 #
copar-lwd-attrib $-1 $-1 $-1 $833 #
copar-lwd-attrib $-1 $-1 $-1 $835 #
coedge $976 $965 $956 $835 $934 1 $909 $-1 #
edge $977 $936 $938 $933 $978 0 #
epar-lwd-attrib $-1 $-1 $-1 $836 #
vertex $-1 $836 $979 #
epar-lwd-attrib $-1 $-1 $-1 $838 #
vertex $-1 $934 $980 #
point $-1 -70 2.5 15 #
point $-1 -70 37.5 15 #
copar-lwd-attrib $-1 $-1 $-1 $845 #
coedge $981 $848 $858 $845 $943 0 $856 $-1 #
edge $982 $861 $851 $942 $983 0 #
copar-lwd-attrib $-1 $-1 $-1 $848 #
epar-lwd-attrib $-1 $-1 $-1 $849 #
point $-1 -32.5 -37.5 15 #
copar-lwd-attrib $-1 $-1 $-1 $858 #
epar-lwd-attrib $-1 $-1 $-1 $859 #
point $-1 -32.5 -37.5 5 #
epar-lwd-attrib $-1 $-1 $-1 $864 #
straight-curve $-1 -40 -8.75 15 0 -1 0 #
point $-1 -40 -37.5 15 #
epar-lwd-attrib $-1 $-1 $-1 $870 #
straight-curve $-1 -40 -8.75 -15 0 1 -0 #
copar-lwd-attrib $-1 $-1 $-1 $883 #
coedge $984 $933 $985 $883 $957 0 $909 $-1 #
edge $986 $961 $938 $956 $987 0 #
copar-lwd-attrib $-1 $-1 $-1 $888 #
coedge $988 $900 $888 $985 $989 0 $470 $-1 #
epar-lwd-attrib $-1 $-1 $-1 $889 #
vertex $-1 $889 $990 #
straight-curve $-1 -30 2.5 -15 -1 0 0 #
point $-1 -40 2.5 -15 #
copar-lwd-attrib $-1 $-1 $-1 $899 #
coedge $991 $985 $933 $899 $966 0 $909 $-1 #
edge $992 $936 $969 $899 $993 0 #
copar-lwd-attrib $-1 $-1 $-1 $900 #
epar-lwd-attrib $-1 $-1 $-1 $901 #
vertex $-1 $901 $994 #
point $-1 -20 37.5 -15 #
epar-lwd-attrib $-1 $-1 $-1 $912 #
straight-curve $-1 0 17.5 -15 1 0 0 #
point $-1 18.0505102572168 17.5 -15 #
epar-lwd-attrib $-1 $-1 $-1 $918 #
straight-curve $-1 -20 13.75 -15 0 -1 0 #
copar-lwd-attrib $-1 $-1 $-1 $933 #
epar-lwd-attrib $-1 $-1 $-1 $934 #
straight-curve $-1 -80 0 15 0 -1 0 #
point $-1 -80 37.5 15 #
point $-1 -80 2.5 15 #
copar-lwd-attrib $-1 $-1 $-1 $942 #
epar-lwd-attrib $-1 $-1 $-1 $943 #
straight-curve $-1 -32.5 -37.5 5 -0 0 1 #
copar-lwd-attrib $-1 $-1 $-1 $956 #
coedge $995 $956 $965 $959 $989 1 $909 $-1 #
epar-lwd-attrib $-1 $-1 $-1 $957 #
straight-curve $-1 -80 2.5 0 -0 0 1 #
copar-lwd-attrib $-1 $-1 $-1 $959 #
edge $996 $961 $969 $985 $997 0 #
point $-1 -80 2.5 -15 #
copar-lwd-attrib $-1 $-1 $-1 $965 #
epar-lwd-attrib $-1 $-1 $-1 $966 #
straight-curve $-1 -80 37.5 0 0 0 -1 #
point $-1 -80 37.5 -15 #
copar-lwd-attrib $-1 $-1 $-1 $985 #
epar-lwd-attrib $-1 $-1 $-1 $989 #
straight-curve $-1 -80 0 -15 0 1 0 #
