600 0 1 0           
87 GICL ACIS Healer - Source: /gicl/data5/repository/UMD/bad-bracket/bad-bracket.sat - 6 0 18 ACIS 6.0.3 Solaris 24 Sun Apr 14 00:34:36 2002 
1 9.999999999999999547e-07 1.000000000000000036e-10 
body $1 $2 $-1 $-1 #
f_body-rbase-attrib $-1 $-1 $-1 $0 #
lump $-1 $-1 $3 $0 #
shell $-1 $-1 $-1 $4 $-1 $2 #
face $-1 $5 $6 $3 $-1 $7 reversed single #
face $-1 $8 $9 $3 $-1 $10 reversed single #
loop $-1 $11 $12 $4 #
cone-surface $-1 0 -5.5 1.256933281983530027e-13 0 1 1.047444401652940007e-14 1.25 0 0 1 I I -0.5299989400031800413 0.8479983040050880216 1.25 forward I I I I #
face $13 $14 $15 $3 $-1 $16 reversed single #
loop $-1 $17 $18 $5 #
cone-surface $-1 0 -17.5 0 0 1 1.047444401652940007e-14 2.5 0 0 1 I I 0 1 2.5 forward I I I I #
loop $-1 $-1 $19 $4 #
coedge $-1 $12 $12 $20 $21 reversed $6 $-1 #
fface-rbase-attrib $-1 $-1 $-1 $8 #
face $22 $23 $24 $3 $-1 $25 forward single #
loop $-1 $-1 $26 $8 #
cone-surface $-1 49.5 20 -0.5 0 -1 -3.491481338843129805e-15 2.5 0 0 1 I I 0 1 2.5 forward I I I I #
loop $-1 $-1 $20 $5 #
coedge $-1 $18 $18 $27 $28 reversed $9 $-1 #
coedge $-1 $19 $19 $-1 $29 forward $11 $-1 #
coedge $-1 $20 $20 $12 $21 forward $17 $-1 #
edge $-1 $30 0 $30 6.283185307179586232 $20 $31 forward 7 unknown #
fface-rbase-attrib $-1 $-1 $-1 $14 #
face $32 $33 $34 $3 $-1 $35 reversed single #
loop $-1 $-1 $36 $14 #
plane-surface $-1 50 20 7.5 1 0 0 0 0 -1 forward_v I I I I #
coedge $37 $38 $39 $40 $41 reversed $15 $-1 #
coedge $-1 $27 $27 $18 $28 forward $42 $-1 #
edge $-1 $43 0 $43 6.283185307179586232 $27 $44 forward 7 unknown #
edge $-1 $45 1 $45 0 $19 $-1 forward 7 unknown #
vertex $-1 $21 $46 #
ellipse-curve $-1 0 -7.5 1.047444401652940007e-13 0 1 1.047444401652940007e-14 2.5 0 0 1 I I #
fface-rbase-attrib $-1 $-1 $-1 $23 #
face $47 $48 $49 $3 $-1 $50 reversed single #
loop $-1 $-1 $51 $23 #
plane-surface $-1 0 37.5 0 0 -1 0 0 0 -1 forward_v I I I I #
coedge $52 $53 $54 $55 $56 forward $24 $-1 #
copar-rbase-attrib $-1 $-1 $-1 $26 #
coedge $57 $55 $26 $51 $58 reversed $15 $-1 #
coedge $59 $26 $55 $60 $61 reversed $15 $-1 #
coedge $62 $63 $64 $26 $41 forward $65 $-1 #
edge $66 $67 -17.5 $68 17.5 $40 $69 forward 7 unknown #
loop $-1 $70 $27 $71 #
vertex $-1 $28 $72 #
ellipse-curve $-1 0 -27.5 -1.047444401652940007e-13 -0 1 -0 2.5 0 0 1 I I #
vertex $-1 $29 $73 #
point $-1 2.5 -7.5 1.047444401652940007e-13 #
fface-rbase-attrib $-1 $-1 $-1 $33 #
face $74 $75 $65 $3 $-1 $76 forward single #
loop $-1 $-1 $77 $33 #
cone-surface $-1 70.5 20 -0.5 0 -1 -3.491481338843129805e-15 2.5 0 0 1 I I 0 1 2.5 forward I I I I #
coedge $78 $79 $80 $38 $58 forward $34 $-1 #
copar-rbase-attrib $-1 $-1 $-1 $36 #
coedge $81 $82 $36 $80 $83 reversed $24 $-1 #
coedge $84 $36 $82 $85 $86 reversed $24 $-1 #
coedge $87 $39 $38 $36 $56 reversed $15 $-1 #
edge $88 $89 -17.5 $90 17.5 $36 $91 forward 7 unknown #
copar-rbase-attrib $-1 $-1 $-1 $38 #
edge $92 $90 1.3694384060045659 $67 6.484543227969891355 $51 $93 forward 7 unknown #
copar-rbase-attrib $-1 $-1 $-1 $39 #
coedge $94 $85 $95 $39 $61 forward $96 $-1 #
edge $97 $68 -0.2013579207903529178 $89 4.913746901175020554 $60 $98 forward 7 unknown #
copar-rbase-attrib $-1 $-1 $-1 $40 #
coedge $99 $100 $40 $95 $101 reversed $65 $-1 #
coedge $102 $40 $100 $79 $103 reversed $65 $-1 #
loop $-1 $-1 $40 $48 #
epar-rbase-attrib $-1 $-1 $-1 $41 #
vertex $-1 $41 $104 #
vertex $-1 $101 $105 #
straight-curve $-1 51.94948974278320009 20 0 0 -1 -3.491481338843129805e-15 I I #
loop $-1 $-1 $106 $71 #
face $107 $108 $42 $3 $-1 $109 forward single #
point $-1 2.5 -27.5 -1.047444401652940007e-13 #
point $-1 0 -3.5 1.466422162314120048e-13 #
fface-rbase-attrib $-1 $-1 $-1 $48 #
face $110 $111 $112 $3 $-1 $113 reversed single #
plane-surface $-1 60 20 0 0 0 1 1 0 0 forward_v I I I I #
coedge $114 $115 $116 $117 $118 reversed $49 $-1 #
copar-rbase-attrib $-1 $-1 $-1 $51 #
coedge $119 $120 $51 $64 $103 forward $34 $-1 #
coedge $121 $51 $122 $53 $83 forward $34 $-1 #
copar-rbase-attrib $-1 $-1 $-1 $53 #
coedge $123 $54 $53 $124 $125 reversed $24 $-1 #
edge $126 $127 -11.25 $90 1.800510257216759946 $80 $128 forward 7 unknown #
copar-rbase-attrib $-1 $-1 $-1 $54 #
coedge $129 $130 $60 $54 $86 forward $96 $-1 #
edge $131 $89 -1.800510257216880072 $132 11.25 $85 $133 forward 7 unknown #
copar-rbase-attrib $-1 $-1 $-1 $55 #
epar-rbase-attrib $-1 $-1 $-1 $56 #
vertex $-1 $61 $134 #
vertex $-1 $83 $135 #
straight-curve $-1 50 20 1.949489742783180102 -0 1 3.491481338843129805e-15 I I #
epar-rbase-attrib $-1 $-1 $-1 $58 #
ellipse-curve $-1 49.5 37.5 -0.4999999999999389932 0 -1 0 2.5 0 0 1 I I #
copar-rbase-attrib $-1 $-1 $-1 $60 #
coedge $136 $60 $137 $63 $101 forward $96 $-1 #
loop $-1 $-1 $60 $138 #
epar-rbase-attrib $-1 $-1 $-1 $61 #
ellipse-curve $-1 49.5 2.5 -0.5000000000000609512 -0 1 -0 2.5 0 0 1 I I #
copar-rbase-attrib $-1 $-1 $-1 $63 #
coedge $139 $64 $63 $140 $141 forward $65 $-1 #
edge $142 $143 -8.050510257216799914 $68 8.050510257216799914 $95 $144 forward 7 unknown #
copar-rbase-attrib $-1 $-1 $-1 $64 #
edge $145 $67 21.94948974278320009 $146 38.05051025721679991 $79 $147 forward 7 unknown #
point $-1 51.94948974278320009 37.5 3.865707537115459897e-17 #
point $-1 51.94948974278320009 2.5 -3.865707537115459897e-17 #
coedge $-1 $148 $149 $150 $151 reversed $70 $-1 #
fface-rbase-attrib $-1 $-1 $-1 $71 #
face $152 $153 $154 $3 $-1 $155 forward single #
plane-surface $-1 0 -27.5 0 0 -1 0 0 0 -1 forward_v I I I I #
fface-rbase-attrib $-1 $-1 $-1 $75 #
face $156 $157 $158 $3 $-1 $159 forward single #
loop $-1 $-1 $160 $75 #
cone-surface $-1 -49.5 20 -0.5 0 -1 -3.491481338843129805e-15 2.5 0 0 1 I I 0 1 2.5 forward I I I I #
copar-rbase-attrib $-1 $-1 $-1 $77 #
coedge $161 $140 $77 $120 $162 reversed $49 $-1 #
coedge $163 $77 $140 $137 $164 reversed $49 $-1 #
coedge $165 $166 $167 $77 $118 forward $168 $-1 #
edge $169 $170 -17.5 $171 17.5 $117 $172 forward 7 unknown #
copar-rbase-attrib $-1 $-1 $-1 $79 #
coedge $173 $174 $79 $115 $162 forward $34 $-1 #
copar-rbase-attrib $-1 $-1 $-1 $80 #
coedge $175 $80 $176 $177 $178 reversed $34 $-1 #
copar-rbase-attrib $-1 $-1 $-1 $82 #
coedge $179 $177 $180 $82 $125 forward $181 $-1 #
edge $182 $132 -7.5 $127 27.5 $124 $183 forward 7 unknown #
epar-rbase-attrib $-1 $-1 $-1 $83 #
vertex $-1 $83 $184 #
straight-curve $-1 50 37.5 3.75 0 0 -1 I I #
copar-rbase-attrib $-1 $-1 $-1 $85 #
coedge $185 $186 $85 $180 $187 reversed $96 $-1 #
epar-rbase-attrib $-1 $-1 $-1 $86 #
vertex $-1 $187 $188 #
straight-curve $-1 50 2.5 3.75 -0 0 1 I I #
point $-1 50 2.5 1.949489742783119928 #
point $-1 50 37.5 1.949489742783240054 #
copar-rbase-attrib $-1 $-1 $-1 $95 #
coedge $189 $95 $190 $116 $164 forward $96 $-1 #
face $191 $192 $96 $3 $-1 $193 forward single #
copar-rbase-attrib $-1 $-1 $-1 $100 #
coedge $194 $116 $115 $100 $141 reversed $49 $-1 #
edge $195 $143 -17.5 $146 17.5 $100 $196 forward 7 unknown #
epar-rbase-attrib $-1 $-1 $-1 $101 #
vertex $-1 $164 $197 #
straight-curve $-1 60 2.5 0 -1 0 0 I I #
epar-rbase-attrib $-1 $-1 $-1 $103 #
vertex $-1 $103 $198 #
straight-curve $-1 30 37.5 0 1 0 -0 I I #
coedge $-1 $199 $106 $200 $201 forward $70 $-1 #
coedge $-1 $106 $202 $203 $204 forward $70 $-1 #
coedge $205 $206 $207 $106 $151 forward $154 $-1 #
edge $208 $209 -5 $210 5 $150 $211 forward 7 unknown #
fface-rbase-attrib $-1 $-1 $-1 $108 #
face $212 $213 $214 $3 $-1 $215 reversed single #
loop $-1 $-1 $207 $108 #
plane-surface $-1 40 -17.5 0 1 0 0 0 0 -1 forward_v I I I I #
fface-rbase-attrib $-1 $-1 $-1 $111 #
face $216 $217 $218 $3 $-1 $219 forward single #
loop $-1 $-1 $220 $111 #
plane-surface $-1 -60 2.5 0 0 -1 0 0 0 -1 forward_v I I I I #
coedge $221 $222 $223 $224 $225 reversed $112 $-1 #
copar-rbase-attrib $-1 $-1 $-1 $115 #
edge $226 $146 2.940234732799487993 $170 8.05533955476481367 $120 $227 forward 7 unknown #
copar-rbase-attrib $-1 $-1 $-1 $116 #
edge $228 $171 -1.772154247585227216 $143 3.342950574380145756 $137 $229 forward 7 unknown #
copar-rbase-attrib $-1 $-1 $-1 $117 #
coedge $230 $231 $117 $190 $232 reversed $168 $-1 #
coedge $233 $117 $231 $174 $234 reversed $168 $-1 #
loop $-1 $-1 $117 $213 #
epar-rbase-attrib $-1 $-1 $-1 $118 #
vertex $-1 $118 $235 #
vertex $-1 $232 $236 #
straight-curve $-1 70 20 1.949489742783180102 0 -1 -3.491481338843129805e-15 I I #
copar-rbase-attrib $-1 $-1 $-1 $120 #
coedge $237 $238 $120 $167 $234 forward $34 $-1 #
copar-rbase-attrib $-1 $-1 $-1 $122 #
coedge $239 $122 $240 $241 $242 forward $34 $-1 #
coedge $243 $244 $124 $122 $178 forward $181 $-1 #
edge $245 $127 -50 $246 -20 $122 $247 forward 7 unknown #
copar-rbase-attrib $-1 $-1 $-1 $124 #
coedge $248 $124 $249 $130 $187 forward $181 $-1 #
loop $-1 $-1 $250 $251 #
epar-rbase-attrib $-1 $-1 $-1 $125 #
straight-curve $-1 50 10 15 0 1 0 I I #
point $-1 50 37.5 15 #
copar-rbase-attrib $-1 $-1 $-1 $130 #
coedge $252 $253 $130 $254 $255 forward $96 $-1 #
edge $256 $257 10 $132 20 $180 $258 forward 7 unknown #
point $-1 50 2.5 15 #
copar-rbase-attrib $-1 $-1 $-1 $137 #
coedge $259 $137 $260 $166 $232 forward $96 $-1 #
fface-rbase-attrib $-1 $-1 $-1 $138 #
face $261 $262 $263 $3 $-1 $264 forward single #
plane-surface $-1 60 2.5 0 0 -1 0 0 0 -1 forward_v I I I I #
copar-rbase-attrib $-1 $-1 $-1 $140 #
epar-rbase-attrib $-1 $-1 $-1 $141 #
straight-curve $-1 68.05051025721679991 20 0 -0 1 3.491481338843129805e-15 I I #
point $-1 68.05051025721679991 2.5 -3.865707537115459897e-17 #
point $-1 68.05051025721679991 37.5 3.865707537115459897e-17 #
coedge $-1 $265 $148 $266 $267 reversed $70 $-1 #
coedge $268 $269 $270 $148 $201 reversed $271 $-1 #
edge $272 $209 -40 $273 -32.5 $148 $274 forward 7 unknown #
coedge $-1 $149 $275 $276 $277 reversed $70 $-1 #
coedge $278 $279 $280 $149 $204 reversed $281 $-1 #
edge $282 $283 -40 $210 40 $149 $284 forward 7 unknown #
copar-rbase-attrib $-1 $-1 $-1 $150 #
coedge $285 $286 $150 $280 $287 forward $154 $-1 #
coedge $288 $150 $289 $269 $290 forward $154 $-1 #
epar-rbase-attrib $-1 $-1 $-1 $151 #
vertex $-1 $290 $291 #
vertex $-1 $287 $292 #
straight-curve $-1 40 -27.5 0 0 0 -1 I I #
fface-rbase-attrib $-1 $-1 $-1 $153 #
face $293 $138 $168 $3 $-1 $294 forward single #
loop $-1 $-1 $295 $153 #
plane-surface $-1 0 -37.5 0 0 1 -0 -0 0 1 forward_v I I I I #
fface-rbase-attrib $-1 $-1 $-1 $157 #
face $296 $297 $298 $3 $-1 $299 reversed single #
loop $-1 $-1 $300 $157 #
plane-surface $-1 -60 20 0 0 0 1 1 0 0 forward_v I I I I #
coedge $301 $302 $303 $304 $305 forward $158 $-1 #
copar-rbase-attrib $-1 $-1 $-1 $160 #
coedge $306 $304 $160 $300 $307 reversed $112 $-1 #
coedge $308 $160 $304 $309 $310 reversed $112 $-1 #
coedge $311 $312 $313 $160 $225 forward $314 $-1 #
edge $315 $316 2.940234732799487993 $317 8.05533955476481367 $224 $318 forward 7 unknown #
epar-rbase-attrib $-1 $-1 $-1 $162 #
ellipse-curve $-1 70.5 37.5 -0.4999999999999389932 0 -1 0 2.5 0 0 1 I I #
epar-rbase-attrib $-1 $-1 $-1 $164 #
ellipse-curve $-1 70.5 2.5 -0.5000000000000609512 -0 1 -0 2.5 0 0 1 I I #
copar-rbase-attrib $-1 $-1 $-1 $166 #
coedge $319 $167 $166 $320 $321 reversed $168 $-1 #
edge $322 $323 -11.25 $171 1.800510257216880072 $190 $324 forward 7 unknown #
copar-rbase-attrib $-1 $-1 $-1 $167 #
edge $325 $170 -1.800510257216759946 $326 11.25 $174 $327 forward 7 unknown #
point $-1 70 37.5 1.949489742783240054 #
point $-1 70 2.5 1.949489742783119928 #
copar-rbase-attrib $-1 $-1 $-1 $174 #
coedge $328 $329 $174 $330 $331 reversed $34 $-1 #
copar-rbase-attrib $-1 $-1 $-1 $176 #
coedge $332 $176 $329 $333 $334 reversed $34 $-1 #
coedge $335 $336 $337 $176 $242 reversed $338 $-1 #
edge $339 $340 -15 $246 15 $176 $341 forward 7 unknown #
copar-rbase-attrib $-1 $-1 $-1 $177 #
coedge $342 $343 $177 $337 $344 forward $181 $-1 #
epar-rbase-attrib $-1 $-1 $-1 $178 #
vertex $-1 $178 $345 #
straight-curve $-1 0 37.5 15 -1 0 0 I I #
copar-rbase-attrib $-1 $-1 $-1 $180 #
coedge $346 $180 $347 $348 $349 forward $181 $-1 #
coedge $350 $351 $352 $353 $354 forward $181 $-1 #
face $355 $356 $181 $3 $-1 $357 forward single #
copar-rbase-attrib $-1 $-1 $-1 $186 #
coedge $358 $359 $186 $360 $361 reversed $96 $-1 #
coedge $362 $348 $363 $186 $255 reversed $154 $-1 #
edge $364 $257 -15 $365 15 $186 $366 forward 7 unknown #
epar-rbase-attrib $-1 $-1 $-1 $187 #
vertex $-1 $349 $367 #
straight-curve $-1 30 2.5 15 1 0 -0 I I #
copar-rbase-attrib $-1 $-1 $-1 $190 #
coedge $368 $190 $359 $369 $370 reversed $96 $-1 #
fface-rbase-attrib $-1 $-1 $-1 $192 #
face $371 $372 $373 $3 $-1 $357 forward single #
loop $-1 $-1 $309 $192 #
plane-surface $-1 -50 20 7.5 -1 0 0 0 0 1 forward_v I I I I #
coedge $-1 $374 $199 $375 $376 reversed $70 $-1 #
coedge $377 $378 $379 $199 $267 forward $380 $-1 #
edge $381 $382 -5 $273 5 $266 $383 forward 7 unknown #
copar-rbase-attrib $-1 $-1 $-1 $200 #
coedge $384 $385 $200 $207 $290 reversed $271 $-1 #
coedge $386 $200 $385 $378 $387 forward $271 $-1 #
loop $-1 $-1 $270 $388 #
epar-rbase-attrib $-1 $-1 $-1 $201 #
vertex $-1 $201 $389 #
straight-curve $-1 0 -27.5 5 -1 0 0 I I #
coedge $-1 $202 $374 $390 $391 forward $70 $-1 #
coedge $392 $393 $394 $202 $277 forward $395 $-1 #
edge $396 $283 -5 $397 5 $276 $398 forward 7 unknown #
copar-rbase-attrib $-1 $-1 $-1 $203 #
coedge $399 $400 $203 $394 $401 reversed $281 $-1 #
coedge $402 $203 $400 $206 $287 reversed $281 $-1 #
loop $-1 $-1 $280 $403 #
epar-rbase-attrib $-1 $-1 $-1 $204 #
vertex $-1 $401 $404 #
straight-curve $-1 0 -27.5 -5 1 0 0 I I #
copar-rbase-attrib $-1 $-1 $-1 $206 #
coedge $405 $363 $206 $406 $407 reversed $154 $-1 #
edge $408 $210 2.5 $409 12.5 $206 $410 forward 7 unknown #
copar-rbase-attrib $-1 $-1 $-1 $207 #
coedge $411 $207 $348 $412 $413 reversed $154 $-1 #
edge $414 $415 -12.5 $209 -2.5 $207 $416 forward 7 unknown #
point $-1 40 -27.5 5 #
point $-1 40 -27.5 -5 #
fface-rbase-attrib $-1 $-1 $-1 $213 #
plane-surface $-1 70 20 7.5 -1 0 0 0 0 1 forward_v I I I I #
coedge $417 $418 $406 $400 $419 forward $214 $-1 #
fface-rbase-attrib $-1 $-1 $-1 $217 #
face $420 $421 $422 $3 $-1 $423 forward single #
loop $-1 $-1 $424 $217 #
cone-surface $-1 -70.5 20 -0.5 0 -1 -3.491481338843129805e-15 2.5 0 0 1 I I 0 1 2.5 forward I I I I #
coedge $425 $426 $427 $222 $307 forward $218 $-1 #
copar-rbase-attrib $-1 $-1 $-1 $220 #
coedge $428 $429 $220 $427 $430 forward $158 $-1 #
coedge $431 $220 $432 $433 $434 forward $158 $-1 #
coedge $435 $223 $222 $220 $305 reversed $112 $-1 #
edge $436 $437 -1.772154247585227216 $438 3.342950574380145756 $220 $439 forward 7 unknown #
copar-rbase-attrib $-1 $-1 $-1 $222 #
edge $440 $438 -17.5 $316 17.5 $300 $441 forward 7 unknown #
copar-rbase-attrib $-1 $-1 $-1 $223 #
coedge $442 $433 $443 $223 $310 forward $263 $-1 #
edge $444 $317 -17.5 $437 17.5 $309 $445 forward 7 unknown #
copar-rbase-attrib $-1 $-1 $-1 $224 #
coedge $446 $447 $224 $443 $448 forward $314 $-1 #
coedge $449 $224 $450 $426 $451 forward $314 $-1 #
loop $-1 $-1 $224 $356 #
epar-rbase-attrib $-1 $-1 $-1 $225 #
vertex $-1 $451 $452 #
vertex $-1 $225 $453 #
ellipse-curve $-1 -49.5 37.5 -0.4999999999999389932 0 -1 0 2.5 0 0 1 I I #
copar-rbase-attrib $-1 $-1 $-1 $231 #
coedge $454 $369 $330 $231 $321 forward $455 $-1 #
edge $456 $326 -27.5 $323 7.5 $320 $457 forward 7 unknown #
epar-rbase-attrib $-1 $-1 $-1 $232 #
vertex $-1 $321 $458 #
straight-curve $-1 70 2.5 3.75 -0 -0 -1 I I #
epar-rbase-attrib $-1 $-1 $-1 $234 #
vertex $-1 $331 $459 #
straight-curve $-1 70 37.5 3.75 0 0 1 I I #
copar-rbase-attrib $-1 $-1 $-1 $238 #
coedge $460 $240 $238 $461 $462 forward $34 $-1 #
coedge $463 $320 $464 $238 $331 forward $455 $-1 #
edge $465 $466 -80 $326 -70 $238 $247 forward 7 unknown #
copar-rbase-attrib $-1 $-1 $-1 $240 #
coedge $467 $468 $469 $240 $334 forward $470 $-1 #
edge $471 $340 20 $472 80 $240 $473 forward 7 unknown #
copar-rbase-attrib $-1 $-1 $-1 $241 #
coedge $474 $475 $241 $469 $476 reversed $338 $-1 #
coedge $477 $241 $475 $244 $344 reversed $338 $-1 #
loop $-1 $-1 $475 $478 #
epar-rbase-attrib $-1 $-1 $-1 $242 #
vertex $-1 $476 $479 #
straight-curve $-1 20 37.5 0 0 0 1 I I #
copar-rbase-attrib $-1 $-1 $-1 $244 #
coedge $480 $352 $244 $481 $482 forward $181 $-1 #
edge $483 $246 -23.75 $484 -5.699489742783200086 $244 $485 forward 7 unknown #
point $-1 20 37.5 15 #
copar-rbase-attrib $-1 $-1 $-1 $249 #
coedge $486 $249 $487 $488 $489 forward $181 $-1 #
coedge $490 $289 $254 $249 $349 reversed $154 $-1 #
edge $491 $492 -28.75 $257 11.25 $249 $493 forward 7 unknown #
copar-rbase-attrib $-1 $-1 $-1 $250 #
coedge $494 $495 $250 $496 $497 forward $181 $-1 #
coedge $498 $250 $343 $499 $500 forward $181 $-1 #
coedge $501 $502 $503 $250 $354 reversed $504 $-1 #
edge $505 $506 -0.2013579207903290202 $507 4.913746901175018778 $250 $508 forward 7 unknown #
fface-rbase-attrib $-1 $-1 $-1 $251 #
face $509 $510 $314 $3 $-1 $35 reversed single #
plane-surface $-1 0 0 15 0 0 1 1 0 0 forward_v I I I I #
copar-rbase-attrib $-1 $-1 $-1 $253 #
coedge $511 $260 $253 $512 $513 reversed $96 $-1 #
coedge $514 $515 $468 $253 $361 forward $470 $-1 #
edge $516 $517 -50 $365 -10 $360 $518 forward 7 unknown #
copar-rbase-attrib $-1 $-1 $-1 $254 #
coedge $519 $254 $286 $515 $520 reversed $154 $-1 #
epar-rbase-attrib $-1 $-1 $-1 $255 #
vertex $-1 $520 $521 #
straight-curve $-1 40 2.5 0 0 0 -1 I I #
point $-1 40 2.5 15 #
copar-rbase-attrib $-1 $-1 $-1 $260 #
coedge $522 $464 $320 $260 $370 forward $455 $-1 #
edge $523 $323 40 $524 50 $369 $258 forward 7 unknown #
fface-rbase-attrib $-1 $-1 $-1 $262 #
face $525 $526 $527 $3 $-1 $528 reversed single #
loop $-1 $-1 $529 $262 #
coedge $-1 $275 $265 $530 $531 forward $70 $-1 #
coedge $532 $487 $533 $265 $376 forward $181 $-1 #
edge $534 $535 -32.5 $382 32.5 $375 $536 forward 7 unknown #
copar-rbase-attrib $-1 $-1 $-1 $266 #
coedge $537 $538 $266 $270 $387 reversed $380 $-1 #
coedge $539 $266 $538 $487 $540 reversed $380 $-1 #
loop $-1 $-1 $538 $541 #
epar-rbase-attrib $-1 $-1 $-1 $267 #
vertex $-1 $376 $542 #
straight-curve $-1 32.5 -27.5 10 0 0 -1 I I #
copar-rbase-attrib $-1 $-1 $-1 $269 #
coedge $543 $270 $269 $544 $545 reversed $271 $-1 #
copar-rbase-attrib $-1 $-1 $-1 $270 #
edge $546 $547 -5 $273 5 $270 $548 forward 7 unknown #
face $549 $550 $271 $3 $-1 $551 reversed single #
point $-1 32.5 -27.5 5 #
coedge $552 $553 $554 $275 $391 reversed $555 $-1 #
edge $556 $557 32.5 $397 40 $275 $274 forward 7 unknown #
copar-rbase-attrib $-1 $-1 $-1 $276 #
coedge $558 $559 $276 $554 $560 forward $395 $-1 #
coedge $561 $276 $562 $279 $401 forward $395 $-1 #
loop $-1 $-1 $393 $526 #
epar-rbase-attrib $-1 $-1 $-1 $277 #
vertex $-1 $560 $563 #
straight-curve $-1 -40 -27.5 0 0 0 1 I I #
copar-rbase-attrib $-1 $-1 $-1 $279 #
coedge $564 $280 $279 $295 $419 reversed $281 $-1 #
edge $565 $566 -12.5 $283 -2.5 $394 $567 forward 7 unknown #
copar-rbase-attrib $-1 $-1 $-1 $280 #
face $568 $71 $281 $3 $-1 $569 forward single #
point $-1 -40 -27.5 -5 #
copar-rbase-attrib $-1 $-1 $-1 $286 #
coedge $570 $295 $571 $286 $407 forward $214 $-1 #
edge $572 $573 -15 $409 -5 $406 $574 forward 7 unknown #
epar-rbase-attrib $-1 $-1 $-1 $287 #
vertex $-1 $407 $575 #
straight-curve $-1 40 -25 -5 0 -1 0 I I #
copar-rbase-attrib $-1 $-1 $-1 $289 #
coedge $576 $488 $544 $289 $413 forward $577 $-1 #
edge $578 $415 5 $492 15 $412 $574 forward 7 unknown #
epar-rbase-attrib $-1 $-1 $-1 $290 #
vertex $-1 $545 $579 #
straight-curve $-1 40 -25 5 0 1 0 I I #
copar-rbase-attrib $-1 $-1 $-1 $295 #
coedge $580 $571 $295 $562 $581 forward $214 $-1 #
edge $582 $409 -40 $566 40 $295 $583 forward 7 unknown #
fface-rbase-attrib $-1 $-1 $-1 $297 #
face $584 $585 $504 $3 $-1 $586 reversed single #
loop $-1 $-1 $587 $297 #
plane-surface $-1 -70 20 7.5 1 0 0 0 0 -1 forward_v I I I I #
coedge $588 $589 $590 $450 $591 reversed $298 $-1 #
copar-rbase-attrib $-1 $-1 $-1 $300 #
coedge $592 $593 $300 $313 $451 reversed $218 $-1 #
coedge $594 $300 $593 $302 $430 reversed $218 $-1 #
copar-rbase-attrib $-1 $-1 $-1 $302 #
coedge $595 $596 $302 $597 $598 forward $158 $-1 #
edge $599 $438 -8.050510257216799914 $600 8.050510257216799914 $302 $601 forward 7 unknown #
copar-rbase-attrib $-1 $-1 $-1 $303 #
coedge $602 $303 $603 $604 $605 reversed $158 $-1 #
coedge $606 $607 $309 $303 $434 reversed $263 $-1 #
edge $608 $609 -11.25 $437 1.800510257216880072 $303 $610 forward 7 unknown #
copar-rbase-attrib $-1 $-1 $-1 $304 #
epar-rbase-attrib $-1 $-1 $-1 $305 #
vertex $-1 $434 $611 #
vertex $-1 $307 $612 #
ellipse-curve $-1 -49.5 2.5 -0.5000000000000609512 -0 1 -0 2.5 0 0 1 I I #
epar-rbase-attrib $-1 $-1 $-1 $307 #
straight-curve $-1 -51.94948974278320009 20 0 -0 1 3.491481338843129805e-15 I I #
copar-rbase-attrib $-1 $-1 $-1 $309 #
coedge $613 $309 $607 $312 $448 reversed $263 $-1 #
epar-rbase-attrib $-1 $-1 $-1 $310 #
straight-curve $-1 -50 20 1.949489742783180102 0 -1 -3.491481338843129805e-15 I I #
copar-rbase-attrib $-1 $-1 $-1 $312 #
coedge $614 $615 $312 $495 $616 reversed $314 $-1 #
edge $617 $317 -1.800510257216759946 $618 11.25 $312 $619 forward 7 unknown #
copar-rbase-attrib $-1 $-1 $-1 $313 #
coedge $620 $313 $621 $424 $591 forward $314 $-1 #
edge $622 $623 -38.05051025721679991 $316 -21.94948974278320009 $313 $624 forward 7 unknown #
point $-1 -51.94948974278320009 37.5 3.865707537115459897e-17 #
point $-1 -50 37.5 1.949489742783240054 #
copar-rbase-attrib $-1 $-1 $-1 $320 #
loop $-1 $-1 $320 $625 #
epar-rbase-attrib $-1 $-1 $-1 $321 #
straight-curve $-1 70 10 15 0 -1 0 I I #
point $-1 70 2.5 15 #
point $-1 70 37.5 15 #
copar-rbase-attrib $-1 $-1 $-1 $329 #
coedge $626 $627 $628 $329 $462 reversed $527 $-1 #
edge $629 $466 -15 $472 15 $461 $630 forward 7 unknown #
copar-rbase-attrib $-1 $-1 $-1 $330 #
coedge $631 $330 $369 $627 $632 forward $455 $-1 #
epar-rbase-attrib $-1 $-1 $-1 $331 #
vertex $-1 $632 $633 #
copar-rbase-attrib $-1 $-1 $-1 $333 #
coedge $634 $360 $333 $628 $635 forward $470 $-1 #
coedge $636 $333 $637 $336 $476 forward $470 $-1 #
loop $-1 $-1 $638 $639 #
epar-rbase-attrib $-1 $-1 $-1 $334 #
vertex $-1 $635 $640 #
straight-curve $-1 0 37.5 -15 1 0 0 I I #
copar-rbase-attrib $-1 $-1 $-1 $336 #
coedge $641 $337 $336 $642 $643 forward $338 $-1 #
edge $644 $645 5.699489742783200086 $340 23.75 $469 $646 forward 7 unknown #
copar-rbase-attrib $-1 $-1 $-1 $337 #
face $647 $251 $338 $3 $-1 $648 forward single #
point $-1 20 37.5 -15 #
copar-rbase-attrib $-1 $-1 $-1 $343 #
coedge $649 $642 $650 $343 $482 reversed $651 $-1 #
edge $652 $484 -1.772154247585225662 $653 3.34295057438012222 $343 $654 forward 7 unknown #
epar-rbase-attrib $-1 $-1 $-1 $344 #
vertex $-1 $344 $655 #
straight-curve $-1 20 13.75 15 0 -1 0 I I #
copar-rbase-attrib $-1 $-1 $-1 $347 #
coedge $656 $347 $375 $379 $540 forward $181 $-1 #
coedge $657 $658 $412 $347 $489 reversed $577 $-1 #
edge $659 $660 32.5 $492 40 $488 $661 forward 7 unknown #
copar-rbase-attrib $-1 $-1 $-1 $348 #
epar-rbase-attrib $-1 $-1 $-1 $349 #
vertex $-1 $489 $662 #
straight-curve $-1 40 -8.75 15 0 1 0 I I #
copar-rbase-attrib $-1 $-1 $-1 $351 #
coedge $663 $664 $351 $447 $616 forward $181 $-1 #
coedge $665 $666 $667 $351 $497 reversed $668 $-1 #
edge $669 $507 5.699489742783200086 $670 23.75 $351 $671 forward 7 unknown #
copar-rbase-attrib $-1 $-1 $-1 $352 #
coedge $672 $673 $674 $352 $500 reversed $675 $-1 #
edge $676 $653 -18.05051025721679991 $506 18.05051025721679991 $352 $677 forward 7 unknown #
copar-rbase-attrib $-1 $-1 $-1 $353 #
coedge $678 $679 $353 $674 $680 reversed $504 $-1 #
coedge $681 $353 $679 $666 $682 reversed $504 $-1 #
loop $-1 $-1 $502 $421 #
epar-rbase-attrib $-1 $-1 $-1 $354 #
vertex $-1 $500 $683 #
vertex $-1 $354 $684 #
ellipse-curve $-1 -20.5 17 15 -0 -0 -1 2.5 0 0 1 I I #
fface-rbase-attrib $-1 $-1 $-1 $356 #
face $685 $541 $686 $3 $-1 $687 forward single #
copar-rbase-attrib $-1 $-1 $-1 $359 #
coedge $688 $628 $627 $359 $513 forward $527 $-1 #
edge $689 $524 -15 $517 15 $512 $690 forward 7 unknown #
copar-rbase-attrib $-1 $-1 $-1 $360 #
coedge $691 $692 $360 $363 $520 forward $470 $-1 #
epar-rbase-attrib $-1 $-1 $-1 $361 #
vertex $-1 $635 $693 #
straight-curve $-1 30 2.5 -15 -1 0 0 I I #
copar-rbase-attrib $-1 $-1 $-1 $363 #
edge $694 $365 -11.25 $573 28.75 $515 $695 forward 7 unknown #
point $-1 40 2.5 -15 #
copar-rbase-attrib $-1 $-1 $-1 $369 #
epar-rbase-attrib $-1 $-1 $-1 $370 #
vertex $-1 $513 $696 #
fface-rbase-attrib $-1 $-1 $-1 $372 #
face $697 $625 $395 $3 $-1 $698 forward single #
loop $-1 $-1 $512 $372 #
plane-surface $-1 80 0 0 -1 0 0 0 -0 1 forward_v I I I I #
coedge $699 $700 $701 $702 $703 forward $373 $-1 #
coedge $704 $705 $706 $374 $531 reversed $686 $-1 #
edge $707 $535 -5 $557 5 $374 $708 forward 7 unknown #
copar-rbase-attrib $-1 $-1 $-1 $375 #
coedge $709 $375 $710 $705 $711 forward $181 $-1 #
epar-rbase-attrib $-1 $-1 $-1 $376 #
vertex $-1 $711 $712 #
straight-curve $-1 0 -27.5 15 1 0 -0 I I #
copar-rbase-attrib $-1 $-1 $-1 $378 #
coedge $713 $379 $378 $658 $714 reversed $380 $-1 #
copar-rbase-attrib $-1 $-1 $-1 $379 #
edge $715 $382 11.25 $660 21.25 $487 $716 forward 7 unknown #
face $717 $388 $380 $3 $-1 $718 forward single #
point $-1 32.5 -27.5 15 #
copar-rbase-attrib $-1 $-1 $-1 $385 #
coedge $719 $412 $658 $385 $545 forward $577 $-1 #
edge $720 $547 32.5 $415 40 $544 $721 forward 7 unknown #
epar-rbase-attrib $-1 $-1 $-1 $387 #
vertex $-1 $714 $722 #
straight-curve $-1 32.5 -32.5 5 0 1 -0 I I #
fface-rbase-attrib $-1 $-1 $-1 $388 #
face $723 $724 $555 $3 $-1 $551 reversed single #
plane-surface $-1 0 -32.5 5 0 0 1 1 0 0 forward_v I I I I #
copar-rbase-attrib $-1 $-1 $-1 $390 #
coedge $725 $726 $390 $706 $727 forward $555 $-1 #
coedge $728 $390 $726 $393 $560 reversed $555 $-1 #
loop $-1 $-1 $553 $550 #
epar-rbase-attrib $-1 $-1 $-1 $391 #
vertex $-1 $391 $729 #
copar-rbase-attrib $-1 $-1 $-1 $393 #
coedge $730 $731 $393 $732 $733 reversed $395 $-1 #
edge $734 $397 2.5 $735 12.5 $393 $736 forward 7 unknown #
copar-rbase-attrib $-1 $-1 $-1 $394 #
coedge $737 $394 $738 $418 $581 reversed $395 $-1 #
point $-1 -40 -27.5 5 #
copar-rbase-attrib $-1 $-1 $-1 $400 #
epar-rbase-attrib $-1 $-1 $-1 $401 #
vertex $-1 $401 $739 #
straight-curve $-1 -40 -25 -5 0 1 -0 I I #
fface-rbase-attrib $-1 $-1 $-1 $403 #
plane-surface $-1 0 -32.5 -5 0 0 1 1 0 0 forward_v I I I I #
copar-rbase-attrib $-1 $-1 $-1 $406 #
coedge $740 $406 $418 $692 $741 reversed $214 $-1 #
epar-rbase-attrib $-1 $-1 $-1 $407 #
vertex $-1 $520 $742 #
straight-curve $-1 40 -37.5 0 -0 0 1 I I #
point $-1 40 -37.5 -5 #
copar-rbase-attrib $-1 $-1 $-1 $412 #
loop $-1 $-1 $658 $743 #
epar-rbase-attrib $-1 $-1 $-1 $413 #
point $-1 40 -37.5 5 #
copar-rbase-attrib $-1 $-1 $-1 $418 #
edge $744 $566 5 $745 15 $418 $746 forward 7 unknown #
epar-rbase-attrib $-1 $-1 $-1 $419 #
straight-curve $-1 0 -37.5 -5 -1 0 0 I I #
fface-rbase-attrib $-1 $-1 $-1 $421 #
face $747 $639 $668 $3 $-1 $748 forward single #
cone-surface $-1 -20.5 17 0 0 0 1 2.5 0 0 1 I I 0 1 2.5 forward I I I I #
coedge $749 $750 $751 $589 $752 forward $422 $-1 #
copar-rbase-attrib $-1 $-1 $-1 $424 #
coedge $753 $597 $424 $587 $752 reversed $298 $-1 #
coedge $754 $424 $597 $593 $755 reversed $298 $-1 #
edge $756 $757 1.3694384060045659 $623 6.484543227969891355 $450 $758 forward 7 unknown #
copar-rbase-attrib $-1 $-1 $-1 $426 #
coedge $759 $427 $426 $590 $755 forward $218 $-1 #
copar-rbase-attrib $-1 $-1 $-1 $427 #
copar-rbase-attrib $-1 $-1 $-1 $429 #
coedge $760 $761 $429 $751 $762 forward $158 $-1 #
coedge $763 $590 $589 $429 $598 reversed $298 $-1 #
edge $764 $600 -0.2013579207903529178 $765 4.913746901175020554 $429 $766 forward 7 unknown #
epar-rbase-attrib $-1 $-1 $-1 $430 #
vertex $-1 $430 $767 #
straight-curve $-1 -60 2.5 0 -1 0 0 I I #
copar-rbase-attrib $-1 $-1 $-1 $432 #
coedge $768 $432 $769 $770 $771 reversed $158 $-1 #
coedge $772 $773 $664 $432 $605 forward $181 $-1 #
edge $774 $609 -20 $775 -10 $604 $776 forward 7 unknown #
copar-rbase-attrib $-1 $-1 $-1 $433 #
coedge $777 $443 $433 $664 $778 reversed $263 $-1 #
epar-rbase-attrib $-1 $-1 $-1 $434 #
vertex $-1 $778 $779 #
straight-curve $-1 -50 2.5 3.75 -0 -0 -1 I I #
point $-1 -50 2.5 1.949489742783119928 #
point $-1 -51.94948974278320009 2.5 -3.865707537115459897e-17 #
copar-rbase-attrib $-1 $-1 $-1 $443 #
copar-rbase-attrib $-1 $-1 $-1 $447 #
coedge $780 $781 $447 $667 $782 forward $314 $-1 #
edge $783 $670 20 $618 50 $447 $247 forward 7 unknown #
epar-rbase-attrib $-1 $-1 $-1 $448 #
vertex $-1 $616 $784 #
straight-curve $-1 -50 37.5 3.75 0 0 1 I I #
copar-rbase-attrib $-1 $-1 $-1 $450 #
coedge $785 $450 $786 $750 $787 forward $314 $-1 #
epar-rbase-attrib $-1 $-1 $-1 $451 #
vertex $-1 $591 $788 #
straight-curve $-1 -30 37.5 0 1 0 -0 I I #
face $789 $790 $455 $3 $-1 $357 forward single #
copar-rbase-attrib $-1 $-1 $-1 $461 #
coedge $791 $512 $461 $464 $632 reversed $527 $-1 #
coedge $792 $461 $512 $468 $635 reversed $527 $-1 #
epar-rbase-attrib $-1 $-1 $-1 $462 #
straight-curve $-1 80 37.5 0 0 0 -1 I I #
copar-rbase-attrib $-1 $-1 $-1 $464 #
edge $793 $524 2.5 $466 37.5 $627 $794 forward 7 unknown #
point $-1 80 37.5 15 #
copar-rbase-attrib $-1 $-1 $-1 $468 #
edge $795 $472 -37.5 $517 -2.5 $628 $796 forward 7 unknown #
copar-rbase-attrib $-1 $-1 $-1 $469 #
coedge $797 $469 $798 $799 $800 forward $470 $-1 #
coedge $801 $798 $802 $679 $803 forward $470 $-1 #
face $804 $805 $470 $3 $-1 $806 reversed single #
point $-1 80 37.5 -15 #
copar-rbase-attrib $-1 $-1 $-1 $475 #
coedge $807 $799 $481 $475 $643 reversed $651 $-1 #
edge $808 $645 -15 $484 15 $475 $809 forward 7 unknown #
epar-rbase-attrib $-1 $-1 $-1 $476 #
vertex $-1 $643 $810 #
straight-curve $-1 20 13.75 -15 0 1 -0 I I #
fface-rbase-attrib $-1 $-1 $-1 $478 #
plane-surface $-1 20 27.5 0 -1 0 0 0 0 1 forward_v I I I I #
copar-rbase-attrib $-1 $-1 $-1 $481 #
coedge $811 $481 $799 $673 $812 reversed $651 $-1 #
loop $-1 $-1 $642 $805 #
epar-rbase-attrib $-1 $-1 $-1 $482 #
vertex $-1 $482 $813 #
ellipse-curve $-1 20.5 17 15 -0 -0 -1 2.5 0 0 1 I I #
point $-1 20 19.44948974278320009 15 #
copar-rbase-attrib $-1 $-1 $-1 $487 #
copar-rbase-attrib $-1 $-1 $-1 $488 #
coedge $814 $544 $488 $538 $714 forward $577 $-1 #
epar-rbase-attrib $-1 $-1 $-1 $489 #
vertex $-1 $714 $815 #
straight-curve $-1 0 -37.5 15 1 0 0 I I #
point $-1 40 -37.5 15 #
copar-rbase-attrib $-1 $-1 $-1 $495 #
coedge $816 $604 $495 $607 $778 forward $181 $-1 #
copar-rbase-attrib $-1 $-1 $-1 $496 #
coedge $817 $818 $496 $503 $682 forward $668 $-1 #
coedge $819 $496 $818 $615 $782 reversed $668 $-1 #
loop $-1 $-1 $666 $585 #
epar-rbase-attrib $-1 $-1 $-1 $497 #
vertex $-1 $782 $820 #
straight-curve $-1 -20 13.75 15 0 1 0 I I #
copar-rbase-attrib $-1 $-1 $-1 $499 #
coedge $821 $822 $499 $650 $812 forward $675 $-1 #
coedge $823 $499 $822 $502 $680 forward $675 $-1 #
loop $-1 $-1 $674 $824 #
epar-rbase-attrib $-1 $-1 $-1 $500 #
straight-curve $-1 0 17.5 15 -1 0 0 I I #
copar-rbase-attrib $-1 $-1 $-1 $502 #
coedge $825 $503 $502 $638 $803 reversed $504 $-1 #
edge $826 $827 -15 $506 15 $674 $828 forward 7 unknown #
copar-rbase-attrib $-1 $-1 $-1 $503 #
edge $829 $507 -15 $830 15 $666 $831 forward 7 unknown #
point $-1 -18.05051025721679991 17.5 15 #
point $-1 -20 19.44948974278320009 15 #
fface-rbase-attrib $-1 $-1 $-1 $510 #
loop $-1 $-1 $530 $510 #
plane-surface $-1 -32.5 -32.5 10 1 0 0 0 0 -1 forward_v I I I I #
copar-rbase-attrib $-1 $-1 $-1 $512 #
epar-rbase-attrib $-1 $-1 $-1 $513 #
straight-curve $-1 80 2.5 0 -0 -0 -1 I I #
copar-rbase-attrib $-1 $-1 $-1 $515 #
coedge $832 $833 $515 $571 $741 forward $470 $-1 #
point $-1 80 2.5 -15 #
epar-rbase-attrib $-1 $-1 $-1 $520 #
straight-curve $-1 40 -8.75 -15 0 -1 0 I I #
point $-1 80 2.5 15 #
fface-rbase-attrib $-1 $-1 $-1 $526 #
plane-surface $-1 -40 -17.5 0 -1 0 0 0 0 1 forward_v I I I I #
copar-rbase-attrib $-1 $-1 $-1 $529 #
coedge $834 $835 $529 $786 $836 forward $373 $-1 #
coedge $837 $529 $835 $761 $838 forward $373 $-1 #
coedge $839 $751 $750 $529 $703 reversed $422 $-1 #
edge $840 $841 -7.5 $842 27.5 $529 $843 forward 7 unknown #
copar-rbase-attrib $-1 $-1 $-1 $530 #
coedge $844 $845 $530 $533 $711 reversed $686 $-1 #
coedge $846 $530 $845 $553 $727 reversed $686 $-1 #
epar-rbase-attrib $-1 $-1 $-1 $531 #
straight-curve $-1 -32.5 -27.5 10 0 0 -1 I I #
copar-rbase-attrib $-1 $-1 $-1 $533 #
coedge $847 $533 $773 $848 $849 forward $181 $-1 #
edge $850 $851 -21.25 $535 -11.25 $533 $852 forward 7 unknown #
point $-1 -32.5 -27.5 15 #
copar-rbase-attrib $-1 $-1 $-1 $538 #
edge $853 $660 -10 $547 0 $658 $854 forward 7 unknown #
epar-rbase-attrib $-1 $-1 $-1 $540 #
straight-curve $-1 32.5 -16.25 15 0 -1 0 I I #
fface-rbase-attrib $-1 $-1 $-1 $541 #
plane-surface $-1 32.5 -32.5 10 -1 0 0 0 0 1 forward_v I I I I #
copar-rbase-attrib $-1 $-1 $-1 $544 #
epar-rbase-attrib $-1 $-1 $-1 $545 #
straight-curve $-1 0 -37.5 5 1 -0 0 I I #
point $-1 32.5 -37.5 5 #
fface-rbase-attrib $-1 $-1 $-1 $550 #
face $855 $743 $856 $3 $-1 $215 reversed single #
copar-rbase-attrib $-1 $-1 $-1 $553 #
coedge $857 $554 $553 $858 $859 reversed $555 $-1 #
edge $860 $557 -5 $861 5 $553 $862 forward 7 unknown #
copar-rbase-attrib $-1 $-1 $-1 $554 #
point $-1 -32.5 -27.5 5 #
copar-rbase-attrib $-1 $-1 $-1 $559 #
coedge $863 $770 $559 $773 $864 reversed $395 $-1 #
coedge $865 $858 $848 $559 $733 forward $856 $-1 #
edge $866 $867 -15 $735 -5 $732 $746 forward 7 unknown #
epar-rbase-attrib $-1 $-1 $-1 $560 #
vertex $-1 $733 $868 #
straight-curve $-1 -40 -25 5 0 -1 0 I I #
copar-rbase-attrib $-1 $-1 $-1 $562 #
coedge $869 $562 $770 $833 $870 reversed $395 $-1 #
point $-1 -40 -37.5 -5 #
copar-rbase-attrib $-1 $-1 $-1 $571 #
edge $871 $573 -40 $745 40 $571 $872 forward 7 unknown #
point $-1 40 -37.5 -15 #
face $873 $403 $577 $3 $-1 $215 reversed single #
epar-rbase-attrib $-1 $-1 $-1 $581 #
vertex $-1 $741 $874 #
straight-curve $-1 -40 -37.5 0 -0 0 -1 I I #
fface-rbase-attrib $-1 $-1 $-1 $585 #
plane-surface $-1 -20 27.5 0 1 0 0 0 0 -1 forward_v I I I I #
copar-rbase-attrib $-1 $-1 $-1 $587 #
coedge $875 $702 $587 $621 $787 reversed $422 $-1 #
coedge $876 $587 $702 $596 $762 reversed $422 $-1 #
edge $877 $765 -17.5 $757 17.5 $587 $878 forward 7 unknown #
copar-rbase-attrib $-1 $-1 $-1 $589 #
copar-rbase-attrib $-1 $-1 $-1 $590 #
edge $879 $623 -17.5 $600 17.5 $593 $880 forward 7 unknown #
epar-rbase-attrib $-1 $-1 $-1 $591 #
vertex $-1 $787 $881 #
ellipse-curve $-1 -70.5 37.5 -0.4999999999999389932 0 -1 0 2.5 0 0 1 I I #
copar-rbase-attrib $-1 $-1 $-1 $593 #
copar-rbase-attrib $-1 $-1 $-1 $596 #
coedge $882 $883 $596 $701 $838 reversed $158 $-1 #
edge $884 $765 -1.800510257216880072 $841 11.25 $596 $885 forward 7 unknown #
copar-rbase-attrib $-1 $-1 $-1 $597 #
epar-rbase-attrib $-1 $-1 $-1 $598 #
vertex $-1 $752 $886 #
ellipse-curve $-1 -70.5 2.5 -0.5000000000000609512 -0 1 -0 2.5 0 0 1 I I #
point $-1 -68.05051025721679991 2.5 -3.86570753712302988e-17 #
copar-rbase-attrib $-1 $-1 $-1 $603 #
coedge $887 $603 $883 $888 $889 reversed $158 $-1 #
coedge $890 $738 $731 $603 $771 forward $395 $-1 #
edge $891 $775 -15 $892 15 $770 $893 forward 7 unknown #
copar-rbase-attrib $-1 $-1 $-1 $604 #
coedge $894 $710 $604 $731 $864 forward $181 $-1 #
epar-rbase-attrib $-1 $-1 $-1 $605 #
vertex $-1 $605 $895 #
straight-curve $-1 -30 2.5 15 1 0 -0 I I #
copar-rbase-attrib $-1 $-1 $-1 $607 #
edge $896 $618 -27.5 $609 7.5 $664 $897 forward 7 unknown #
point $-1 -50 2.5 15 #
copar-rbase-attrib $-1 $-1 $-1 $615 #
coedge $898 $899 $615 $900 $901 reversed $314 $-1 #
edge $902 $670 -15 $903 15 $615 $904 forward 7 unknown #
epar-rbase-attrib $-1 $-1 $-1 $616 #
point $-1 -50 37.5 15 #
copar-rbase-attrib $-1 $-1 $-1 $621 #
coedge $905 $621 $899 $700 $836 reversed $314 $-1 #
edge $906 $842 -11.25 $757 1.800510257216759946 $621 $907 forward 7 unknown #
point $-1 -68.05051025721679991 37.5 3.86570753712302988e-17 #
fface-rbase-attrib $-1 $-1 $-1 $625 #
face $908 $-1 $909 $3 $-1 $910 reversed single #
copar-rbase-attrib $-1 $-1 $-1 $627 #
copar-rbase-attrib $-1 $-1 $-1 $628 #
epar-rbase-attrib $-1 $-1 $-1 $632 #
straight-curve $-1 80 0 15 0 1 0 I I #
epar-rbase-attrib $-1 $-1 $-1 $635 #
straight-curve $-1 80 0 -15 0 -1 0 I I #
copar-rbase-attrib $-1 $-1 $-1 $637 #
coedge $911 $637 $638 $822 $912 forward $470 $-1 #
coedge $913 $650 $642 $637 $800 reversed $651 $-1 #
edge $914 $915 2.940234732799464012 $645 8.055339554764811894 $637 $916 forward 7 unknown #
copar-rbase-attrib $-1 $-1 $-1 $638 #
coedge $917 $638 $900 $818 $918 forward $470 $-1 #
edge $919 $830 1.369438406004567677 $827 6.484543227969915336 $638 $920 forward 7 unknown #
fface-rbase-attrib $-1 $-1 $-1 $639 #
face $921 $824 $651 $3 $-1 $922 reversed single #
plane-surface $-1 0 0 -15 0 0 1 1 0 0 forward_v I I I I #
copar-rbase-attrib $-1 $-1 $-1 $642 #
epar-rbase-attrib $-1 $-1 $-1 $643 #
straight-curve $-1 20 19.44948974278320009 0 0 0 1 I I #
point $-1 20 19.44948974278320009 -15 #
copar-rbase-attrib $-1 $-1 $-1 $650 #
edge $923 $653 -15 $915 15 $673 $924 forward 7 unknown #
point $-1 18.05051025721679991 17.5 15 #
copar-rbase-attrib $-1 $-1 $-1 $658 #
point $-1 32.5 -37.5 15 #
copar-rbase-attrib $-1 $-1 $-1 $664 #
copar-rbase-attrib $-1 $-1 $-1 $666 #
coedge $925 $667 $666 $802 $918 reversed $668 $-1 #
copar-rbase-attrib $-1 $-1 $-1 $667 #
point $-1 -20 37.5 15 #
copar-rbase-attrib $-1 $-1 $-1 $673 #
coedge $926 $674 $673 $798 $912 reversed $675 $-1 #
copar-rbase-attrib $-1 $-1 $-1 $674 #
face $927 $478 $675 $3 $-1 $928 forward single #
copar-rbase-attrib $-1 $-1 $-1 $679 #
epar-rbase-attrib $-1 $-1 $-1 $680 #
vertex $-1 $680 $929 #
straight-curve $-1 -18.05051025721679991 17.5 0 0 0 1 I I #
epar-rbase-attrib $-1 $-1 $-1 $682 #
vertex $-1 $918 $930 #
straight-curve $-1 -20 19.44948974278320009 0 -0 -0 -1 I I #
copar-rbase-attrib $-1 $-1 $-1 $692 #
coedge $931 $888 $692 $738 $870 forward $470 $-1 #
copar-rbase-attrib $-1 $-1 $-1 $700 #
coedge $932 $701 $700 $933 $934 forward $373 $-1 #
edge $935 $842 70 $936 80 $786 $247 forward 7 unknown #
copar-rbase-attrib $-1 $-1 $-1 $701 #
edge $937 $938 -50 $841 -40 $701 $776 forward 7 unknown #
copar-rbase-attrib $-1 $-1 $-1 $702 #
epar-rbase-attrib $-1 $-1 $-1 $703 #
vertex $-1 $838 $939 #
vertex $-1 $787 $940 #
straight-curve $-1 -70 10 15 0 1 0 I I #
copar-rbase-attrib $-1 $-1 $-1 $705 #
coedge $941 $706 $705 $942 $943 reversed $686 $-1 #
copar-rbase-attrib $-1 $-1 $-1 $706 #
copar-rbase-attrib $-1 $-1 $-1 $710 #
coedge $944 $732 $942 $710 $849 reversed $856 $-1 #
edge $945 $867 -40 $851 -32.5 $848 $661 forward 7 unknown #
epar-rbase-attrib $-1 $-1 $-1 $711 #
vertex $-1 $849 $946 #
straight-curve $-1 -32.5 -16.25 15 0 1 0 I I #
epar-rbase-attrib $-1 $-1 $-1 $714 #
straight-curve $-1 32.5 -37.5 5 -0 0 -1 I I #
fface-rbase-attrib $-1 $-1 $-1 $724 #
loop $-1 $-1 $942 $724 #
copar-rbase-attrib $-1 $-1 $-1 $726 #
coedge $947 $942 $732 $726 $859 forward $856 $-1 #
edge $948 $735 -40 $861 -32.5 $858 $721 forward 7 unknown #
epar-rbase-attrib $-1 $-1 $-1 $727 #
vertex $-1 $859 $949 #
straight-curve $-1 -32.5 -32.5 5 0 -1 0 I I #
copar-rbase-attrib $-1 $-1 $-1 $731 #
edge $950 $775 -11.25 $867 28.75 $773 $951 forward 7 unknown #
copar-rbase-attrib $-1 $-1 $-1 $732 #
epar-rbase-attrib $-1 $-1 $-1 $733 #
vertex $-1 $733 $952 #
point $-1 -40 -37.5 5 #
copar-rbase-attrib $-1 $-1 $-1 $738 #
edge $953 $745 -28.75 $892 11.25 $833 $954 forward 7 unknown #
epar-rbase-attrib $-1 $-1 $-1 $741 #
straight-curve $-1 0 -37.5 -15 -1 0 0 I I #
fface-rbase-attrib $-1 $-1 $-1 $743 #
point $-1 -40 -37.5 -15 #
copar-rbase-attrib $-1 $-1 $-1 $750 #
copar-rbase-attrib $-1 $-1 $-1 $751 #
epar-rbase-attrib $-1 $-1 $-1 $752 #
straight-curve $-1 -70 20 1.949489742783180102 -0 1 3.491481338843129805e-15 I I #
epar-rbase-attrib $-1 $-1 $-1 $755 #
straight-curve $-1 -68.05051025721679991 20 0 0 -1 -3.491481338843129805e-15 I I #
point $-1 -70 37.5 1.949489742783240054 #
copar-rbase-attrib $-1 $-1 $-1 $761 #
coedge $955 $769 $761 $956 $957 reversed $158 $-1 #
epar-rbase-attrib $-1 $-1 $-1 $762 #
straight-curve $-1 -70 2.5 3.75 -0 0 1 I I #
point $-1 -70 2.5 1.949489742783119928 #
copar-rbase-attrib $-1 $-1 $-1 $769 #
coedge $958 $959 $833 $769 $889 forward $470 $-1 #
edge $960 $892 10 $961 50 $888 $962 forward 7 unknown #
copar-rbase-attrib $-1 $-1 $-1 $770 #
epar-rbase-attrib $-1 $-1 $-1 $771 #
vertex $-1 $889 $963 #
straight-curve $-1 -40 2.5 0 0 0 -1 I I #
copar-rbase-attrib $-1 $-1 $-1 $773 #
point $-1 -40 2.5 15 #
epar-rbase-attrib $-1 $-1 $-1 $778 #
straight-curve $-1 -50 10 15 0 -1 0 I I #
copar-rbase-attrib $-1 $-1 $-1 $781 #
coedge $964 $786 $781 $965 $966 reversed $314 $-1 #
coedge $967 $802 $959 $781 $901 forward $470 $-1 #
edge $968 $969 -80 $903 -20 $781 $473 forward 7 unknown #
epar-rbase-attrib $-1 $-1 $-1 $782 #
vertex $-1 $901 $970 #
straight-curve $-1 -20 37.5 0 0 0 -1 I I #
copar-rbase-attrib $-1 $-1 $-1 $786 #
epar-rbase-attrib $-1 $-1 $-1 $787 #
straight-curve $-1 -70 37.5 3.75 0 0 -1 I I #
fface-rbase-attrib $-1 $-1 $-1 $790 #
loop $-1 $-1 $956 $790 #
plane-surface $-1 -80 0 0 1 0 0 0 0 -1 forward_v I I I I #
copar-rbase-attrib $-1 $-1 $-1 $798 #
edge $971 $827 -18.05051025721679991 $915 18.05051025721679991 $798 $972 forward 7 unknown #
copar-rbase-attrib $-1 $-1 $-1 $799 #
epar-rbase-attrib $-1 $-1 $-1 $800 #
vertex $-1 $912 $973 #
ellipse-curve $-1 20.5 17 -15 0 0 1 2.5 0 0 1 I I #
copar-rbase-attrib $-1 $-1 $-1 $802 #
edge $974 $903 -23.75 $830 -5.699489742783200086 $802 $975 forward 7 unknown #
epar-rbase-attrib $-1 $-1 $-1 $803 #
ellipse-curve $-1 -20.5 17 -15 0 0 1 2.5 0 0 1 I I #
fface-rbase-attrib $-1 $-1 $-1 $805 #
cone-surface $-1 20.5 17 0 0 0 1 2.5 0 0 1 I I 0 1 2.5 forward I I I I #
epar-rbase-attrib $-1 $-1 $-1 $812 #
straight-curve $-1 18.05051025721679991 17.5 0 -0 -0 -1 I I #
copar-rbase-attrib $-1 $-1 $-1 $818 #
copar-rbase-attrib $-1 $-1 $-1 $822 #
fface-rbase-attrib $-1 $-1 $-1 $824 #
plane-surface $-1 0 17.5 0 0 1 0 0 0 1 forward_v I I I I #
point $-1 -18.05051025721679991 17.5 -15 #
point $-1 -20 19.44948974278320009 -15 #
copar-rbase-attrib $-1 $-1 $-1 $833 #
copar-rbase-attrib $-1 $-1 $-1 $835 #
coedge $976 $965 $956 $835 $934 reversed $909 $-1 #
edge $977 $936 -37.5 $938 -2.5 $933 $978 forward 7 unknown #
epar-rbase-attrib $-1 $-1 $-1 $836 #
vertex $-1 $836 $979 #
epar-rbase-attrib $-1 $-1 $-1 $838 #
vertex $-1 $934 $980 #
point $-1 -70 2.5 15 #
point $-1 -70 37.5 15 #
copar-rbase-attrib $-1 $-1 $-1 $845 #
coedge $981 $848 $858 $845 $943 forward $856 $-1 #
edge $982 $861 0 $851 10 $942 $983 forward 7 unknown #
copar-rbase-attrib $-1 $-1 $-1 $848 #
epar-rbase-attrib $-1 $-1 $-1 $849 #
point $-1 -32.5 -37.5 15 #
copar-rbase-attrib $-1 $-1 $-1 $858 #
epar-rbase-attrib $-1 $-1 $-1 $859 #
point $-1 -32.5 -37.5 5 #
epar-rbase-attrib $-1 $-1 $-1 $864 #
straight-curve $-1 -40 -8.75 15 0 -1 0 I I #
point $-1 -40 -37.5 15 #
epar-rbase-attrib $-1 $-1 $-1 $870 #
straight-curve $-1 -40 -8.75 -15 0 1 -0 I I #
copar-rbase-attrib $-1 $-1 $-1 $883 #
coedge $984 $933 $985 $883 $957 forward $909 $-1 #
edge $986 $961 -15 $938 15 $956 $987 forward 7 unknown #
copar-rbase-attrib $-1 $-1 $-1 $888 #
coedge $988 $900 $888 $985 $989 forward $470 $-1 #
epar-rbase-attrib $-1 $-1 $-1 $889 #
vertex $-1 $889 $990 #
straight-curve $-1 -30 2.5 -15 -1 0 0 I I #
point $-1 -40 2.5 -15 #
copar-rbase-attrib $-1 $-1 $-1 $899 #
coedge $991 $985 $933 $899 $966 forward $909 $-1 #
edge $992 $936 -15 $969 15 $899 $993 forward 7 unknown #
copar-rbase-attrib $-1 $-1 $-1 $900 #
epar-rbase-attrib $-1 $-1 $-1 $901 #
vertex $-1 $901 $994 #
point $-1 -20 37.5 -15 #
epar-rbase-attrib $-1 $-1 $-1 $912 #
straight-curve $-1 0 17.5 -15 1 0 0 I I #
point $-1 18.05051025721679991 17.5 -15 #
epar-rbase-attrib $-1 $-1 $-1 $918 #
straight-curve $-1 -20 13.75 -15 0 -1 0 I I #
copar-rbase-attrib $-1 $-1 $-1 $933 #
epar-rbase-attrib $-1 $-1 $-1 $934 #
straight-curve $-1 -80 0 15 0 -1 0 I I #
point $-1 -80 37.5 15 #
point $-1 -80 2.5 15 #
copar-rbase-attrib $-1 $-1 $-1 $942 #
epar-rbase-attrib $-1 $-1 $-1 $943 #
straight-curve $-1 -32.5 -37.5 5 -0 0 1 I I #
copar-rbase-attrib $-1 $-1 $-1 $956 #
coedge $995 $956 $965 $959 $989 reversed $909 $-1 #
epar-rbase-attrib $-1 $-1 $-1 $957 #
straight-curve $-1 -80 2.5 0 -0 0 1 I I #
copar-rbase-attrib $-1 $-1 $-1 $959 #
edge $996 $961 2.5 $969 37.5 $985 $997 forward 7 unknown #
point $-1 -80 2.5 -15 #
copar-rbase-attrib $-1 $-1 $-1 $965 #
epar-rbase-attrib $-1 $-1 $-1 $966 #
straight-curve $-1 -80 37.5 0 0 0 -1 I I #
point $-1 -80 37.5 -15 #
copar-rbase-attrib $-1 $-1 $-1 $985 #
epar-rbase-attrib $-1 $-1 $-1 $989 #
straight-curve $-1 -80 0 -15 0 1 0 I I #
End-of-ACIS-data 