600 0 1 0           
99 GICL ACIS Healer - Source: /gicl/data5/repository/ICEM-CDC/Fixture_Models/pos_pin/pos_pin.sat - 6 0 18 ACIS 6.0.3 Solaris 24 Sat Apr 13 23:05:26 2002 
1 9.999999999999999547e-07 1.000000000000000036e-10 
body $-1 $1 $-1 $2 #
lump $-1 $-1 $3 $0 #
transform $-1 1 0 0 0 1 0 0 0 1 0 0 0 1 no_rotate no_reflect no_shear #
shell $-1 $-1 $-1 $4 $-1 $1 #
face $5 $6 $7 $3 $-1 $8 forward single #
face_name-twe-attrib $-1 $-1 $-1 $4 1 #
face $9 $10 $11 $3 $-1 $12 forward single #
loop $13 $14 $15 $4 #
cone-surface $16 15 0 19 1 0 -3.491481349406129971e-15 -1.396592539762449937e-14 0 -4 1 I I 0 1 4 forward I I I I #
face_name-twe-attrib $-1 $-1 $-1 $6 2 #
face $17 $18 $19 $3 $-1 $20 forward single #
loop $21 $22 $23 $6 #
plane-surface $24 30 0 18.99999999999990052 1 0 -3.491481349406129971e-15 -3.491481349406129971e-15 0 -1 forward_v I I I I #
loop_type-twe-attrib $-1 $-1 $-1 $7 0 #
loop $25 $-1 $26 $4 #
coedge $-1 $15 $15 $23 $27 reversed $7 $-1 #
surf-twe-attrib $-1 $-1 $-1 $8 4 #
face_name-twe-attrib $-1 $-1 $-1 $10 3 #
face $28 $29 $30 $3 $-1 $31 forward single #
loop $32 $33 $34 $10 #
cone-surface $35 32.5 0 18.99999999999990052 1 0 -3.491481349406129971e-15 -3.491481349406129971e-15 0 -1 1 I I 0 1 1 forward I I I I #
loop_type-twe-attrib $-1 $-1 $-1 $11 0 #
loop $36 $-1 $37 $6 #
coedge $-1 $23 $23 $15 $27 forward $11 $-1 #
surf-twe-attrib $-1 $-1 $-1 $12 6 #
loop_type-twe-attrib $-1 $-1 $-1 $14 1 #
coedge $-1 $26 $26 $38 $39 reversed $14 $-1 #
edge $40 $41 0 $41 6.283185307179586232 $23 $42 forward 7 unknown #
face_name-twe-attrib $-1 $-1 $-1 $18 4 #
face $43 $44 $45 $3 $-1 $46 reversed single #
loop $47 $-1 $48 $18 #
plane-surface $49 35 0 18.99999999999990052 1 0 -3.491481349406129971e-15 -3.491481349406129971e-15 0 -1 forward_v I I I I #
loop_type-twe-attrib $-1 $-1 $-1 $19 0 #
loop $50 $-1 $51 $10 #
coedge $-1 $34 $34 $37 $52 forward $19 $-1 #
surf-twe-attrib $-1 $-1 $-1 $20 10 #
loop_type-twe-attrib $-1 $-1 $-1 $22 1 #
coedge $-1 $37 $37 $34 $52 reversed $22 $-1 #
coedge $-1 $38 $38 $26 $39 forward $53 $-1 #
edge $54 $55 0 $55 24.29367487725939867 $38 $56 forward 7 unknown #
edge_name-twe-attrib $-1 $-1 $-1 $27 1 8704 #
vertex $-1 $27 $57 #
ellipse-curve $58 30 0 18.99999999999990052 1 0 -3.491481349406129971e-15 -1.396592539762449937e-14 0 -4 1 I I #
face_name-twe-attrib $-1 $-1 $-1 $29 5 #
face $59 $60 $53 $3 $-1 $61 forward single #
loop $62 $63 $64 $29 #
cone-surface $65 0 0 0 0 0 1 6.349999999999999645 0 0 1 I I 0 1 6.349999999999999645 forward I I I I #
loop_type-twe-attrib $-1 $-1 $-1 $30 0 #
coedge $-1 $48 $48 $51 $66 forward $30 $-1 #
surf-twe-attrib $-1 $-1 $-1 $31 18 #
loop_type-twe-attrib $-1 $-1 $-1 $33 1 #
coedge $-1 $51 $51 $48 $66 reversed $33 $-1 #
edge $67 $68 -6.283185307179586232 $68 -0 $34 $69 reversed 7 unknown #
loop $70 $71 $38 $44 #
edge_name-twe-attrib $-1 $-1 $-1 $39 4 4352 #
vertex $-1 $39 $72 #
intcurve-curve $73 forward { surfintcur full nubs 3 periodic 33 
	0 3 0.7593255883498879477 2 1.518651176699779892 2 2.27797676504967006 2 3.037302353399559784 2 
	3.796331444878370043 2 4.555360536357169643 2 5.314389627835979901 2 6.07341871931479016 2 6.832447810793600418 2 
	7.591476902272400018 2 8.350505993751209388 2 9.109535085230019646 2 9.868860673579899156 2 10.62818626192979998 2 
	11.38751185027970081 2 12.14683743862959986 2 12.90616302697950069 2 13.66548861532939974 2 14.42481420367930056 2 
	15.18413979202919961 2 15.94316888350799921 2 16.70219797498679881 2 17.46122706646569966 2 18.22025615794450104 2 
	18.97928524942329886 2 19.73831434090210024 2 20.49734343238100109 2 21.25637252385979892 2 22.01569811220970152 2 
	22.77502370055960057 2 23.53434928890949962 2 24.29367487725939867 3 
	11.84271928232699977 4 19 
	11.84271928232699977 4 18.74689147055000049 
	11.8510582613255 3.975589319528300081 18.4857632950465991 
	11.88482839441060079 3.873466971902530087 17.96752557033569886 
	11.91022642860330016 3.795784089975910103 17.71040819155249935 
	11.97351631099349945 3.591152538206309863 17.21824564573229921 
	12.01139093896900079 3.464041509466920132 16.98277445544270137 
	12.09205878181080074 3.170995156433160211 16.54774140853429998 
	12.13476976108220029 3.00503516978317009 16.34818092029080105 
	12.21680554314360023 2.651888040552309977 15.99503379105989964 
	12.25907051157600058 2.452360113209299808 15.82908202027829958 
	12.33812574032459963 2.017308391890929808 15.53600551198599966 
	12.37484336236570037 1.781785947772080103 15.40885918196769921 
	12.43578078000840037 1.289521536972159987 15.20418810841290025 
	12.46000189830479954 1.032355096161430064 15.12650082078580027 
	12.49212163487639948 0.5141025284966690423 15.02439293613550042 
	12.5 0.2530096971596019761 15 
	12.5 -0.2530096971596019761 15 
	12.49212163487639948 -0.5141025284966690423 15.02439293613550042 
	12.46000189830479954 -1.032355096161430064 15.12650082078580027 
	12.43578078000840037 -1.289521536972159987 15.20418810841290025 
	12.37484336236570037 -1.781785947772080103 15.40885918196769921 
	12.33812574032459963 -2.017308391890929808 15.53600551198599966 
	12.25907051157600058 -2.452360113209299808 15.82908202027829958 
	12.21680554314360023 -2.651888040552309977 15.99503379105989964 
	12.13476976108220029 -3.00503516978317009 16.34818092029080105 
	12.09205878181080074 -3.170995156433160211 16.54774140853429998 
	12.01139093896900079 -3.464041509466920132 16.98277445544270137 
	11.97351631099349945 -3.591152538206309863 17.21824564573229921 
	11.91022642860330016 -3.795784089975910103 17.71040819155249935 
	11.88482839441060079 -3.873466971902530087 17.96752557033569886 
	11.8510582613255 -3.975589319528300081 18.4857632950465991 
	11.84271928232699977 -4 18.74689147055000049 
	11.84271928232699977 -4 19.25310852944999951 
	11.8510582613255 -3.975589319528300081 19.5142367049534009 
	11.88482839441060079 -3.873466971902519873 20.03247442966430114 
	11.91022642860330016 -3.795784089975910103 20.28959180844750065 
	11.97351631099349945 -3.591152538206309863 20.78175435426770079 
	12.01139093896900079 -3.464041509466920132 21.01722554455729863 
	12.09205878181080074 -3.170995156433149997 21.4522585914657995 
	12.13476976108220029 -3.005035169783159876 21.65181907970919895 
	12.21680554314360023 -2.651888040552300208 22.00496620894010036 
	12.25907051157600058 -2.452360113209290038 22.17091797972170042 
	12.33812574032459963 -2.017308391890909824 22.46399448801399856 
	12.37484336236570037 -1.781785947772059897 22.59114081803240026 
	12.43578078000840037 -1.289521536972140003 22.79581189158709975 
	12.46000189830479954 -1.03235509616141008 22.87349917921419973 
	12.49212163487639948 -0.5141025284966439513 22.97560706386450136 
	12.5 -0.2530096971595749977 23 
	12.5 0.2530096971596300093 23 
	12.49212163487639948 0.5141025284966990183 22.97560706386450136 
	12.46000189830479954 1.03235509616146004 22.87349917921419973 
	12.43578078000840037 1.289521536972189963 22.79581189158709975 
	12.37484336236570037 1.781785947772110079 22.59114081803230079 
	12.33812574032459963 2.017308391890960007 22.46399448801399856 
	12.25907051157600058 2.452360113209330006 22.17091797972170042 
	12.21680554314360023 2.651888040552349946 22.00496620894000088 
	12.13476976108220029 3.005035169783190074 21.65181907970919895 
	12.09205878181080074 3.170995156433180195 21.45225859146570002 
	12.01139093896900079 3.464041509466940116 21.01722554455729863 
	11.97351631099349945 3.591152538206320077 20.78175435426770079 
	11.91022642860330016 3.795784089975919873 20.28959180844750065 
	11.88482839441060079 3.873466971902530087 20.03247442966430114 
	11.8510582613255 3.975589319528300081 19.5142367049534009 
	11.84271928232699977 4 19.25310852944999951 
	11.84271928232699977 4 19 
	0.001000000000000000021 
	cone 15 0 19 1 0 -3.491481349406129971e-15 -1.396592539762449937e-14 0 -4 1 I I 0 1 4 forward I I I I 
	cone 0 0 0 0 0 1 12.5 0 0 1 I I 0 1 12.5 forward I I I I 
	nullbs 
	nullbs 
	I I 
	0 
	0 
	0 
	} I I #
point $-1 30 0 14.99999999999990052 #
cur-twe-attrib $-1 $-1 $-1 $42 27 #
face_name-twe-attrib $-1 $-1 $-1 $44 6 #
face $74 $75 $76 $3 $-1 $77 forward single #
cone-surface $78 0 0 0 0 0 1 12.5 0 0 1 I I 0 1 12.5 forward I I I I #
loop_type-twe-attrib $-1 $-1 $-1 $45 0 #
loop $79 $-1 $80 $29 #
coedge $-1 $64 $64 $81 $82 reversed $45 $-1 #
surf-twe-attrib $-1 $-1 $-1 $46 29 #
edge $83 $84 0 $84 6.283185307179586232 $48 $85 forward 7 unknown #
edge_name-twe-attrib $-1 $-1 $-1 $52 2 4608 #
vertex $-1 $52 $86 #
ellipse-curve $87 30 0 18.99999999999990052 -1 0 3.491481349406129971e-15 -3.491481349406129971e-15 0 -1 1 I I #
loop_type-twe-attrib $-1 $-1 $-1 $53 0 #
loop $88 $89 $90 $44 #
point $-1 11.84271928232699977 4 19 #
cur-twe-attrib $-1 $-1 $-1 $56 39 #
face_name-twe-attrib $-1 $-1 $-1 $60 7 #
face $91 $-1 $92 $3 $-1 $93 forward single #
loop $94 $95 $81 $60 #
plane-surface $96 0 0 -27.5 0 0 -1 -1 0 0 forward_v I I I I #
surf-twe-attrib $-1 $-1 $-1 $61 44 #
loop_type-twe-attrib $-1 $-1 $-1 $63 1 #
coedge $-1 $80 $80 $97 $98 reversed $63 $-1 #
coedge $-1 $81 $81 $64 $82 forward $76 $-1 #
edge $99 $100 0 $100 6.283185307179586232 $81 $101 forward 7 unknown #
edge_name-twe-attrib $-1 $-1 $-1 $66 3 8704 #
vertex $-1 $66 $102 #
ellipse-curve $103 35 0 18.99999999999990052 1 0 -3.491481349406129971e-15 -3.491481349406129971e-15 0 -1 1 I I #
point $-1 30 0 17.99999999999990052 #
cur-twe-attrib $-1 $-1 $-1 $69 52 #
loop_type-twe-attrib $-1 $-1 $-1 $71 1 #
loop $104 $-1 $105 $44 #
coedge $-1 $90 $90 $106 $107 reversed $71 $-1 #
face_name-twe-attrib $-1 $-1 $-1 $75 8 #
loop $108 $109 $97 $75 #
plane-surface $110 0 0 27.5 0 0 1 1 0 0 forward_v I I I I #
loop_type-twe-attrib $-1 $-1 $-1 $76 1 #
loop $111 $-1 $106 $60 #
surf-twe-attrib $-1 $-1 $-1 $77 60 #
coedge $-1 $97 $97 $80 $98 forward $92 $-1 #
edge $112 $113 0 $113 6.283185307179586232 $97 $114 forward 7 unknown #
edge_name-twe-attrib $-1 $-1 $-1 $82 5 8704 #
vertex $-1 $82 $115 #
ellipse-curve $116 0 0 -27.5 0 0 1 6.349999999999999645 0 0 1 I I #
point $-1 35 0 17.99999999999990052 #
cur-twe-attrib $-1 $-1 $-1 $85 66 #
loop_type-twe-attrib $-1 $-1 $-1 $89 1 #
coedge $-1 $105 $105 $117 $118 reversed $89 $-1 #
coedge $-1 $106 $106 $90 $107 forward $95 $-1 #
edge $119 $120 0 $120 6.283185307179586232 $106 $121 forward 7 unknown #
loop_type-twe-attrib $-1 $-1 $-1 $92 1 #
loop $122 $-1 $117 $75 #
surf-twe-attrib $-1 $-1 $-1 $93 75 #
loop_type-twe-attrib $-1 $-1 $-1 $95 0 #
edge_name-twe-attrib $-1 $-1 $-1 $98 7 8704 #
vertex $-1 $98 $123 #
ellipse-curve $124 0 0 27.5 0 0 -1 6.349999999999999645 0 0 1 I I #
point $-1 6.349999999999999645 0 -27.5 #
cur-twe-attrib $-1 $-1 $-1 $101 82 #
coedge $-1 $117 $117 $105 $118 forward $109 $-1 #
edge $125 $126 0 $126 6.283185307179586232 $117 $127 forward 7 unknown #
edge_name-twe-attrib $-1 $-1 $-1 $107 6 8704 #
vertex $-1 $107 $128 #
ellipse-curve $129 0 0 -27.5 0 0 -1 12.5 0 0 1 I I #
loop_type-twe-attrib $-1 $-1 $-1 $109 0 #
point $-1 6.349999999999999645 0 27.5 #
cur-twe-attrib $-1 $-1 $-1 $114 98 #
edge_name-twe-attrib $-1 $-1 $-1 $118 8 8704 #
vertex $-1 $118 $130 #
ellipse-curve $131 0 0 27.5 0 0 1 12.5 0 0 1 I I #
point $-1 12.5 0 -27.5 #
cur-twe-attrib $-1 $-1 $-1 $121 107 #
point $-1 12.5 0 27.5 #
cur-twe-attrib $-1 $-1 $-1 $127 118 #
End-of-ACIS-data 