600 0 2 0           
24 FBMach with ACIS - 6.0.3 13 ACIS 6.0.3 NT 24 Wed May 23 21:06:04 2001 
1 9.9999999999999995e-007 1e-010 
body $2 $3 $-1 $4 #
bdycol-kcp $-1 1 3 $5 $6 $7 #
model_id-kcp-attrib $-1 $-1 $-1 $0 1 990666364 70 709230593 1 #
lump $-1 $-1 $8 $0 #
transform $-1 1 0 0 0 1 0 0 0 1 0 0 0 1 no_rotate no_reflect no_shear #
body $9 $10 $-1 $11 #
body $12 $13 $-1 $14 #
body $15 $16 $-1 $17 #
shell $-1 $-1 $-1 $18 $-1 $3 #
model_id-kcp-attrib $-1 $-1 $-1 $5 1 990666364 70 709230594 1 #
lump $-1 $-1 $19 $5 #
transform $-1 1 0 0 0 1 0 0 0 1 11.25 0 0 1 no_rotate no_reflect no_shear #
rgb_color-st-attrib $-1 $20 $-1 $6 0.5 1 1 #
lump $-1 $-1 $21 $6 #
transform $-1 1 0 0 0 1 0 0 0 1 0 0 0 1 no_rotate no_reflect no_shear #
rgb_color-st-attrib $-1 $22 $-1 $7 1 0.5 1 #
lump $-1 $-1 $23 $7 #
transform $-1 1 0 0 0 1 0 0 0 1 11.25 0 0 1 no_rotate no_reflect no_shear #
face $24 $25 $26 $8 $-1 $27 forward single #
shell $-1 $-1 $-1 $28 $-1 $10 #
model_id-kcp-attrib $-1 $-1 $12 $6 1 990666364 90 710541315 1 #
shell $-1 $-1 $-1 $29 $-1 $13 #
model_id-kcp-attrib $-1 $-1 $15 $7 1 990666364 210 718405636 1 #
shell $-1 $-1 $-1 $30 $-1 $16 #
model_id-kcp-attrib $-1 $31 $-1 $18 1 990666364 70 709230593 2 #
face $32 $33 $34 $8 $-1 $35 forward single #
loop $36 $37 $38 $18 #
cone-surface $39 15 0 19 1 0 -3.49148134940613e-015 -1.3965925397624499e-014 0 -4 1 I I 0 1 4 forward I I I I #
face $40 $41 $42 $19 $-1 $43 forward single #
face $-1 $44 $45 $21 $-1 $46 forward single #
face $-1 $47 $48 $23 $-1 $49 forward single #
face_name-twe-attrib $-1 $-1 $24 $18 1 #
model_id-kcp-attrib $-1 $50 $-1 $25 1 990666364 70 709230593 3 #
face $51 $52 $53 $8 $-1 $54 forward single #
loop $55 $56 $57 $25 #
plane-surface $58 30 0 18.999999999999901 1 0 -3.49148134940613e-015 -3.49148134940613e-015 0 -1 forward_v I I I I #
loop_type-twe-attrib $-1 $-1 $-1 $26 0 #
loop $59 $-1 $60 $18 #
coedge $-1 $38 $38 $57 $61 reversed $26 $-1 #
surf-twe-attrib $-1 $-1 $-1 $27 4 #
model_id-kcp-attrib $-1 $-1 $-1 $28 1 990666364 70 709230594 4 #
face $62 $63 $64 $19 $-1 $65 reversed single #
loop $-1 $-1 $66 $28 #
plane-surface $-1 0 0 27.5 0 0 1 1 0 0 forward_v I I I I #
face $-1 $67 $68 $21 $-1 $69 forward single #
loop $-1 $70 $71 $29 #
cone-surface $-1 0 0 0 0 0 1 6.3499999999999996 0 0 1 I I 0 1 6.3499999999999996 forward I I I I #
face $-1 $72 $73 $23 $-1 $74 forward single #
loop $-1 $75 $76 $30 #
cone-surface $-1 18.75 0 18.999999999999908 1 0 -3.5527136788004958e-015 -3.5527136788004958e-015 0 -1 1 I I 0 -1 1 forward I I I I #
face_name-twe-attrib $-1 $-1 $32 $25 2 #
model_id-kcp-attrib $-1 $77 $-1 $33 1 990666364 70 709230593 4 #
face $78 $79 $80 $8 $-1 $81 forward single #
loop $82 $83 $84 $33 #
cone-surface $85 32.5 0 18.999999999999901 1 0 -3.49148134940613e-015 -3.49148134940613e-015 0 -1 1 I I 0 1 1 forward I I I I #
loop_type-twe-attrib $-1 $-1 $-1 $34 0 #
loop $86 $-1 $87 $25 #
coedge $-1 $57 $57 $38 $61 forward $34 $-1 #
surf-twe-attrib $-1 $-1 $-1 $35 6 #
loop_type-twe-attrib $-1 $-1 $-1 $37 1 #
coedge $-1 $60 $60 $88 $89 reversed $37 $-1 #
edge $90 $91 0 $91 6.2831853071795862 $57 $92 forward 7 unknown #
model_id-kcp-attrib $-1 $-1 $-1 $41 1 990666364 70 709230594 3 #
face $-1 $93 $94 $19 $-1 $95 reversed single #
loop $-1 $-1 $96 $41 #
plane-surface $-1 0 0 -27.5 0 0 1 1 0 0 forward_v I I I I #
coedge $-1 $97 $98 $99 $100 forward $42 $-1 #
face $-1 $-1 $101 $21 $-1 $102 forward single #
loop $-1 $-1 $103 $44 #
plane-surface $-1 0 0 -27.5 0 0 -1 -1 0 0 forward_v I I I I #
loop $-1 $-1 $104 $29 #
coedge $-1 $71 $71 $103 $105 reversed $45 $-1 #
face $-1 $106 $107 $23 $-1 $108 forward single #
loop $-1 $-1 $109 $47 #
plane-surface $-1 18.749999999999837 -12.5 -27.5 0 -1 0 0 0 -1 forward_v I I I I #
loop $-1 $-1 $110 $30 #
coedge $-1 $76 $76 $111 $112 forward $48 $-1 #
face_name-twe-attrib $-1 $-1 $51 $33 3 #
model_id-kcp-attrib $-1 $113 $-1 $52 1 990666364 70 709230593 5 #
face $114 $115 $116 $8 $-1 $117 reversed single #
loop $118 $-1 $119 $52 #
plane-surface $120 35 0 18.999999999999901 1 0 -3.49148134940613e-015 -3.49148134940613e-015 0 -1 forward_v I I I I #
loop_type-twe-attrib $-1 $-1 $-1 $53 0 #
loop $121 $-1 $122 $33 #
coedge $-1 $84 $84 $87 $123 forward $53 $-1 #
surf-twe-attrib $-1 $-1 $-1 $54 10 #
loop_type-twe-attrib $-1 $-1 $-1 $56 1 #
coedge $-1 $87 $87 $84 $123 reversed $56 $-1 #
coedge $-1 $88 $88 $60 $89 forward $124 $-1 #
edge $125 $126 0 $126 24.293674877259399 $88 $127 forward 7 unknown #
edge_name-twe-attrib $-1 $-1 $-1 $61 1 8704 #
vertex $-1 $61 $128 #
ellipse-curve $129 30 0 18.999999999999901 1 0 -3.49148134940613e-015 -1.3965925397624499e-014 0 -4 1 I I #
face $-1 $130 $131 $19 $-1 $132 reversed single #
loop $-1 $-1 $133 $63 #
plane-surface $-1 0 -12.5 0 0 1 0 0 0 1 forward_v I I I I #
coedge $-1 $134 $135 $136 $137 forward $64 $-1 #
coedge $-1 $138 $66 $139 $140 forward $42 $-1 #
coedge $-1 $66 $138 $141 $142 forward $42 $-1 #
coedge $-1 $143 $144 $66 $100 reversed $145 $-1 #
edge $-1 $146 -12.5 $147 12.5 $99 $148 forward 7 unknown #
loop $-1 $-1 $149 $67 #
plane-surface $-1 0 0 27.5 0 0 1 1 0 0 forward_v I I I I #
coedge $-1 $103 $103 $71 $105 forward $68 $-1 #
coedge $-1 $104 $104 $149 $150 reversed $70 $-1 #
edge $-1 $151 0 $151 6.2831853071795862 $103 $152 forward 7 unknown #
face $-1 $153 $154 $23 $-1 $155 forward single #
loop $-1 $-1 $156 $72 #
plane-surface $-1 18.750000000000028 -12.5 27.5 3.5527136788004958e-015 0 1 1 0 -3.5527136788004958e-015 forward_v I I I I #
coedge $-1 $157 $158 $159 $160 forward $73 $-1 #
coedge $-1 $110 $110 $161 $162 reversed $75 $-1 #
coedge $-1 $111 $111 $76 $112 reversed $163 $-1 #
edge $-1 $164 0 $164 6.2831853071795862 $76 $165 forward 7 unknown #
face_name-twe-attrib $-1 $-1 $78 $52 4 #
model_id-kcp-attrib $-1 $166 $-1 $79 1 990666364 70 709230593 6 #
face $167 $168 $124 $8 $-1 $169 forward single #
loop $170 $171 $172 $79 #
cone-surface $173 0 0 0 0 0 1 6.3499999999999996 0 0 1 I I 0 1 6.3499999999999996 forward I I I I #
loop_type-twe-attrib $-1 $-1 $-1 $80 0 #
coedge $-1 $119 $119 $122 $174 forward $80 $-1 #
surf-twe-attrib $-1 $-1 $-1 $81 18 #
loop_type-twe-attrib $-1 $-1 $-1 $83 1 #
coedge $-1 $122 $122 $119 $174 reversed $83 $-1 #
edge $175 $176 -6.2831853071795862 $176 0 $84 $177 reversed 7 unknown #
loop $178 $179 $88 $115 #
edge_name-twe-attrib $-1 $-1 $-1 $89 4 4352 #
vertex $-1 $89 $180 #
intcurve-curve $181 forward { surfintcur full nubs 3 periodic 33 
	0 3 0.75932558834988795 2 1.5186511766997799 2 2.2779767650496701 2 3.0373023533995598 2 
	3.79633144487837 2 4.5553605363571696 2 5.3143896278359799 2 6.0734187193147902 2 6.8324478107936004 2 
	7.5914769022724 2 8.3505059937512094 2 9.1095350852300196 2 9.8688606735798992 2 10.6281862619298 2 
	11.387511850279701 2 12.1468374386296 2 12.906163026979501 2 13.6654886153294 2 14.424814203679301 2 
	15.1841397920292 2 15.943168883507999 2 16.702197974986799 2 17.4612270664657 2 18.220256157944501 2 
	18.979285249423299 2 19.7383143409021 2 20.497343432381001 2 21.256372523859799 2 22.015698112209702 2 
	22.775023700559601 2 23.5343492889095 2 24.293674877259399 3 
	11.842719282327 4 19 
	11.842719282327 4 18.74689147055 
	11.8510582613255 3.9755893195283001 18.485763295046599 
	11.884828394410601 3.8734669719025301 17.967525570335699 
	11.9102264286033 3.7957840899759101 17.710408191552499 
	11.973516310993499 3.5911525382063099 17.218245645732299 
	12.011390938969001 3.4640415094669201 16.982774455442701 
	12.092058781810801 3.1709951564331602 16.5477414085343 
	12.1347697610822 3.0050351697831701 16.348180920290801 
	12.2168055431436 2.65188804055231 15.9950337910599 
	12.259070511576001 2.4523601132092998 15.8290820202783 
	12.3381257403246 2.0173083918909298 15.536005511986 
	12.3748433623657 1.7817859477720801 15.408859181967699 
	12.4357807800084 1.28952153697216 15.2041881084129 
	12.4600018983048 1.0323550961614301 15.1265008207858 
	12.492121634876399 0.51410252849666904 15.0243929361355 
	12.5 0.25300969715960198 15 
	12.5 -0.25300969715960198 15 
	12.492121634876399 -0.51410252849666904 15.0243929361355 
	12.4600018983048 -1.0323550961614301 15.1265008207858 
	12.4357807800084 -1.28952153697216 15.2041881084129 
	12.3748433623657 -1.7817859477720801 15.408859181967699 
	12.3381257403246 -2.0173083918909298 15.536005511986 
	12.259070511576001 -2.4523601132092998 15.8290820202783 
	12.2168055431436 -2.65188804055231 15.9950337910599 
	12.1347697610822 -3.0050351697831701 16.348180920290801 
	12.092058781810801 -3.1709951564331602 16.5477414085343 
	12.011390938969001 -3.4640415094669201 16.982774455442701 
	11.973516310993499 -3.5911525382063099 17.218245645732299 
	11.9102264286033 -3.7957840899759101 17.710408191552499 
	11.884828394410601 -3.8734669719025301 17.967525570335699 
	11.8510582613255 -3.9755893195283001 18.485763295046599 
	11.842719282327 -4 18.74689147055 
	11.842719282327 -4 19.25310852945 
	11.8510582613255 -3.9755893195283001 19.514236704953401 
	11.884828394410601 -3.8734669719025199 20.032474429664301 
	11.9102264286033 -3.7957840899759101 20.289591808447501 
	11.973516310993499 -3.5911525382063099 20.781754354267701 
	12.011390938969001 -3.4640415094669201 21.017225544557299 
	12.092058781810801 -3.17099515643315 21.452258591465799 
	12.1347697610822 -3.0050351697831599 21.651819079709199 
	12.2168055431436 -2.6518880405523002 22.0049662089401 
	12.259070511576001 -2.45236011320929 22.1709179797217 
	12.3381257403246 -2.0173083918909098 22.463994488013999 
	12.3748433623657 -1.7817859477720599 22.5911408180324 
	12.4357807800084 -1.28952153697214 22.7958118915871 
	12.4600018983048 -1.0323550961614101 22.8734991792142 
	12.492121634876399 -0.51410252849664395 22.975607063864501 
	12.5 -0.253009697159575 23 
	12.5 0.25300969715963001 23 
	12.492121634876399 0.51410252849669902 22.975607063864501 
	12.4600018983048 1.03235509616146 22.8734991792142 
	12.4357807800084 1.28952153697219 22.7958118915871 
	12.3748433623657 1.7817859477721101 22.591140818032301 
	12.3381257403246 2.01730839189096 22.463994488013999 
	12.259070511576001 2.45236011320933 22.1709179797217 
	12.2168055431436 2.6518880405523499 22.004966208940001 
	12.1347697610822 3.0050351697831901 21.651819079709199 
	12.092058781810801 3.1709951564331802 21.4522585914657 
	12.011390938969001 3.4640415094669401 21.017225544557299 
	11.973516310993499 3.5911525382063201 20.781754354267701 
	11.9102264286033 3.7957840899759199 20.289591808447501 
	11.884828394410601 3.8734669719025301 20.032474429664301 
	11.8510582613255 3.9755893195283001 19.514236704953401 
	11.842719282327 4 19.25310852945 
	11.842719282327 4 19 
	0.001 
	cone 15 0 19 1 0 -3.49148134940613e-015 -1.3965925397624499e-014 0 -4 1 I I 0 1 4 forward I I I I 
	cone 0 0 0 0 0 1 12.5 0 0 1 I I 0 1 12.5 forward I I I I 
	nullbs 
	nullbs 
	I I 
	0 
	0 
	0 
	} I I #
point $-1 30 0 14.999999999999901 #
cur-twe-attrib $-1 $-1 $-1 $92 27 #
face $-1 $182 $183 $19 $-1 $184 reversed single #
loop $-1 $-1 $185 $93 #
plane-surface $-1 -23.75 0 0 1 0 0 0 0 -1 forward_v I I I I #
coedge $-1 $186 $141 $187 $188 forward $94 $-1 #
coedge $-1 $189 $96 $186 $190 forward $64 $-1 #
coedge $-1 $96 $189 $191 $192 forward $64 $-1 #
coedge $-1 $144 $143 $96 $137 reversed $145 $-1 #
edge $-1 $193 -12.5 $194 12.5 $136 $195 forward 7 unknown #
coedge $-1 $98 $97 $196 $197 forward $42 $-1 #
coedge $-1 $198 $199 $97 $140 reversed $183 $-1 #
edge $-1 $147 -23.75 $200 23.75 $139 $201 forward 7 unknown #
coedge $-1 $133 $202 $98 $142 reversed $94 $-1 #
edge $-1 $203 -23.75 $146 23.75 $141 $204 forward 7 unknown #
coedge $-1 $136 $99 $202 $205 forward $145 $-1 #
coedge $-1 $99 $136 $198 $206 reversed $145 $-1 #
loop $-1 $-1 $143 $182 #
vertex $-1 $100 $207 #
vertex $-1 $100 $208 #
straight-curve $-1 23.75 0 27.5 0 1 0 I I #
coedge $-1 $149 $149 $104 $150 forward $101 $-1 #
edge $-1 $209 0 $209 6.2831853071795862 $149 $210 forward 7 unknown #
vertex $-1 $105 $211 #
ellipse-curve $-1 0 0 -27.5 0 0 -1 6.3499999999999996 0 0 1 I I #
face $-1 $212 $213 $23 $-1 $214 forward single #
loop $-1 $-1 $215 $106 #
plane-surface $-1 18.750000000000028 12.5 27.5 0 1 0 0 0 1 forward_v I I I I #
coedge $-1 $216 $217 $218 $219 forward $107 $-1 #
coedge $-1 $220 $109 $217 $221 reversed $73 $-1 #
coedge $-1 $109 $220 $222 $223 forward $73 $-1 #
coedge $-1 $224 $218 $109 $160 reversed $225 $-1 #
edge $-1 $226 -36.999999999999915 $227 18.000000000000082 $109 $228 forward 7 unknown #
coedge $-1 $161 $161 $110 $162 forward $229 $-1 #
edge $-1 $230 0 $230 6.2831853071795862 $110 $231 forward 7 unknown #
loop $-1 $-1 $111 $212 #
vertex $-1 $112 $232 #
ellipse-curve $-1 23.750000000000007 0 18.99999999999989 1 0 -3.49148134940613e-015 -3.49148134940613e-015 0 -1 1 I I #
face_name-twe-attrib $-1 $-1 $114 $79 5 #
model_id-kcp-attrib $-1 $233 $-1 $115 1 990666364 70 709230593 7 #
face $234 $235 $236 $8 $-1 $237 forward single #
cone-surface $238 0 0 0 0 0 1 12.5 0 0 1 I I 0 1 12.5 forward I I I I #
model_id-kcp-attrib $-1 $239 $-1 $116 1 990666364 70 709230593 12 #
loop $240 $-1 $241 $79 #
coedge $-1 $172 $172 $242 $243 reversed $116 $-1 #
surf-twe-attrib $-1 $-1 $-1 $117 29 #
edge $244 $245 0 $245 6.2831853071795862 $119 $246 forward 7 unknown #
edge_name-twe-attrib $-1 $-1 $-1 $123 2 4608 #
vertex $-1 $123 $247 #
ellipse-curve $248 30 0 18.999999999999901 -1 0 3.49148134940613e-015 -3.49148134940613e-015 0 -1 1 I I #
loop_type-twe-attrib $-1 $-1 $-1 $124 0 #
loop $249 $250 $251 $115 #
point $-1 11.842719282327 4 19 #
cur-twe-attrib $-1 $-1 $-1 $127 39 #
face $252 $-1 $145 $19 $-1 $253 reversed single #
loop $-1 $-1 $198 $130 #
plane-surface $-1 0 12.5 0 0 -1 0 0 0 -1 forward_v I I I I #
coedge $-1 $254 $196 $199 $255 forward $131 $-1 #
coedge $-1 $202 $133 $134 $190 reversed $94 $-1 #
coedge $-1 $196 $254 $133 $188 reversed $131 $-1 #
edge $-1 $203 -27.5 $256 27.5 $187 $257 forward 7 unknown #
coedge $-1 $135 $134 $254 $258 forward $64 $-1 #
edge $-1 $194 -23.75 $256 23.75 $186 $259 forward 7 unknown #
coedge $-1 $199 $198 $135 $192 reversed $183 $-1 #
edge $-1 $260 -23.75 $193 23.75 $191 $261 forward 7 unknown #
vertex $-1 $137 $262 #
vertex $-1 $205 $263 #
straight-curve $-1 23.75 0 -27.5 0 -1 0 I I #
coedge $-1 $185 $187 $138 $197 reversed $131 $-1 #
edge $-1 $200 -12.5 $203 12.5 $196 $264 forward 7 unknown #
coedge $-1 $191 $139 $144 $206 forward $183 $-1 #
coedge $-1 $139 $191 $185 $255 reversed $183 $-1 #
vertex $-1 $140 $265 #
straight-curve $-1 0 12.5 27.5 -1 0 0 I I #
coedge $-1 $141 $186 $143 $205 reversed $94 $-1 #
vertex $-1 $197 $266 #
straight-curve $-1 0 -12.5 27.5 1 0 0 I I #
edge $-1 $146 -27.5 $194 27.5 $143 $267 forward 7 unknown #
edge $-1 $147 -27.5 $193 27.5 $144 $268 forward 7 unknown #
point $-1 23.75 -12.5 27.5 #
point $-1 23.75 12.5 27.5 #
vertex $-1 $150 $269 #
ellipse-curve $-1 0 0 27.5 0 0 1 6.3499999999999996 0 0 1 I I #
point $-1 6.3499999999999996 0 -27.5 #
face $-1 $270 $225 $23 $-1 $271 forward single #
loop $-1 $-1 $272 $153 #
plane-surface $-1 18.749999999999837 12.5 -27.5 -3.5527136788004958e-015 0 -1 -1 0 3.5527136788004958e-015 forward_v I I I I #
coedge $-1 $273 $274 $275 $276 forward $154 $-1 #
coedge $-1 $277 $156 $274 $278 reversed $107 $-1 #
coedge $-1 $156 $277 $157 $221 forward $107 $-1 #
coedge $-1 $159 $275 $156 $219 reversed $225 $-1 #
edge $-1 $227 -12.5 $279 12.5 $156 $280 forward 7 unknown #
coedge $-1 $158 $157 $281 $282 reversed $73 $-1 #
edge $-1 $283 0 $227 5.0000000000000071 $217 $284 forward 7 unknown #
coedge $-1 $285 $272 $158 $223 reversed $213 $-1 #
edge $-1 $286 0 $226 5.0000000000000071 $158 $287 forward 7 unknown #
coedge $-1 $275 $159 $272 $288 reversed $225 $-1 #
loop $-1 $163 $159 $212 #
vertex $-1 $223 $289 #
vertex $-1 $221 $290 #
straight-curve $-1 23.749999999999972 -12.5 9.4999999999999005 3.49148134940613e-015 0 1 I I #
loop $-1 $-1 $161 $270 #
vertex $-1 $162 $291 #
ellipse-curve $-1 18.75 0 18.999999999999908 1 0 -3.49148134940613e-015 -3.49148134940613e-015 0 -1 1 I I #
point $-1 23.750000000000007 0 17.999999999999883 #
face_name-twe-attrib $-1 $-1 $167 $115 6 #
model_id-kcp-attrib $-1 $292 $-1 $168 1 990666364 70 709230593 10 #
face $293 $-1 $294 $8 $-1 $295 forward single #
loop $296 $297 $242 $168 #
plane-surface $298 0 0 -27.5 0 0 -1 -1 0 0 forward_v I I I I #
surf-twe-attrib $-1 $-1 $-1 $169 44 #
loop_type-twe-attrib $-1 $-1 $170 $116 0 #
model_id-kcp-attrib $-1 $299 $-1 $171 1 990666364 70 709230593 13 #
coedge $-1 $241 $241 $300 $301 reversed $171 $-1 #
coedge $-1 $242 $242 $172 $243 forward $236 $-1 #
edge $302 $303 0 $303 6.2831853071795862 $242 $304 forward 7 unknown #
attrib_edge_convexity-kcp-attrib $-1 $305 $-1 $174 1 #
vertex $-1 $174 $306 #
ellipse-curve $307 35 0 18.999999999999901 1 0 -3.49148134940613e-015 -3.49148134940613e-015 0 -1 1 I I #
point $-1 30 0 17.999999999999901 #
cur-twe-attrib $-1 $-1 $-1 $177 52 #
loop_type-twe-attrib $-1 $-1 $-1 $179 1 #
loop $308 $-1 $309 $115 #
coedge $-1 $251 $251 $310 $311 reversed $179 $-1 #
model_id-kcp-attrib $-1 $-1 $-1 $182 1 990666364 70 709230594 2 #
plane-surface $-1 23.75 0 0 -1 0 0 0 0 1 forward_v I I I I #
coedge $-1 $187 $185 $189 $258 reversed $131 $-1 #
edge $-1 $200 -27.5 $260 27.5 $199 $312 forward 7 unknown #
vertex $-1 $258 $313 #
straight-curve $-1 -23.75 -12.5 0 0 0 -1 I I #
edge $-1 $256 -12.5 $260 12.5 $254 $314 forward 7 unknown #
straight-curve $-1 0 -12.5 -27.5 -1 0 0 I I #
vertex $-1 $192 $315 #
straight-curve $-1 0 12.5 -27.5 1 0 0 I I #
point $-1 23.75 12.5 -27.5 #
point $-1 23.75 -12.5 -27.5 #
straight-curve $-1 -23.75 0 27.5 0 -1 0 I I #
point $-1 -23.75 12.5 27.5 #
point $-1 -23.75 -12.5 27.5 #
straight-curve $-1 23.75 -12.5 0 0 0 -1 I I #
straight-curve $-1 23.75 12.5 0 0 0 -1 I I #
point $-1 6.3499999999999996 0 27.5 #
face $-1 $-1 $316 $23 $-1 $317 reversed single #
plane-surface $-1 23.749999999999943 -8.4132801797251565e-019 0.71449991743085661 1 -5.0585646989069128e-031 -3.5008869128468453e-015 -3.5008869128468453e-015 0 -1 forward_v I I I I #
coedge $-1 $222 $318 $224 $288 forward $213 $-1 #
coedge $-1 $319 $215 $318 $320 reversed $154 $-1 #
coedge $-1 $215 $319 $216 $278 forward $154 $-1 #
coedge $-1 $218 $224 $215 $276 reversed $225 $-1 #
edge $-1 $279 -18.000000000000082 $321 36.999999999999915 $215 $322 forward 7 unknown #
coedge $-1 $217 $216 $323 $324 reversed $107 $-1 #
edge $-1 $325 0 $279 5.0000000000000071 $274 $326 forward 7 unknown #
vertex $-1 $278 $327 #
straight-curve $-1 23.750000000000036 0 27.499999999999982 0 1 0 I I #
coedge $-1 $323 $328 $220 $282 forward $316 $-1 #
edge $329 $286 -36.999999999999915 $283 18.000000000000082 $220 $330 forward 7 unknown #
vertex $-1 $282 $331 #
straight-curve $-1 18.750000000000028 -12.5 27.5 1 0 -3.5527136788004958e-015 I I #
coedge $-1 $318 $222 $328 $332 reversed $213 $-1 #
vertex $-1 $332 $333 #
straight-curve $-1 18.749999999999837 -12.5 -27.5 1 0 -3.5527136788004958e-015 I I #
edge $-1 $321 -12.5 $226 12.5 $272 $334 forward 7 unknown #
point $-1 23.749999999999844 -12.5 -27.500000000000018 #
point $-1 23.750000000000036 -12.5 27.499999999999982 #
point $-1 18.75 0 17.999999999999901 #
model_id-kcp-attrib $-1 $335 $234 $168 1 990666364 70 709230593 8 #
model_id-kcp-attrib $-1 $336 $-1 $235 1 990666364 70 709230593 11 #
loop $337 $338 $300 $235 #
plane-surface $339 0 0 27.5 0 0 1 1 0 0 forward_v I I I I #
model_id-kcp-attrib $-1 $340 $-1 $236 1 990666364 70 709230593 14 #
loop $341 $-1 $310 $168 #
surf-twe-attrib $-1 $-1 $-1 $237 60 #
loop_type-twe-attrib $-1 $-1 $240 $171 1 #
coedge $-1 $300 $300 $241 $301 forward $294 $-1 #
edge $342 $343 0 $343 6.2831853071795862 $300 $344 forward 7 unknown #
attrib_edge_convexity-kcp-attrib $-1 $345 $-1 $243 1 #
vertex $346 $243 $347 #
ellipse-curve $348 0 0 -27.5 0 0 1 6.3499999999999996 0 0 1 I I #
convexity-sys-attrib $-1 $349 $244 $174 #
point $-1 35 0 17.999999999999901 #
cur-twe-attrib $-1 $-1 $-1 $246 66 #
loop_type-twe-attrib $-1 $-1 $-1 $250 1 #
coedge $-1 $309 $309 $350 $351 reversed $250 $-1 #
coedge $-1 $310 $310 $251 $311 forward $297 $-1 #
edge $352 $353 0 $353 6.2831853071795862 $310 $354 forward 7 unknown #
straight-curve $-1 -23.75 12.5 0 0 0 -1 I I #
point $-1 -23.75 -12.5 -27.5 #
straight-curve $-1 -23.75 0 -27.5 0 1 0 I I #
point $-1 -23.75 12.5 -27.5 #
loop $-1 $229 $328 $270 #
plane-surface $-1 18.749999999999936 -8.4132801797251565e-019 0.71449991743087438 1 -5.0585646989069128e-031 -3.5008869128468453e-015 -3.5008869128468453e-015 0 -1 forward_v I I I I #
coedge $-1 $272 $285 $273 $320 forward $213 $-1 #
coedge $-1 $274 $273 $355 $356 reversed $154 $-1 #
edge $-1 $357 0 $321 5.0000000000000071 $318 $358 forward 7 unknown #
vertex $-1 $320 $359 #
straight-curve $-1 23.749999999999972 12.5 9.4999999999999005 -3.49148134940613e-015 0 -1 I I #
coedge $-1 $355 $281 $277 $324 forward $316 $-1 #
edge $360 $283 -12.5 $325 12.5 $277 $361 forward 7 unknown #
vertex $-1 $324 $362 #
straight-curve $-1 18.750000000000028 12.5 27.5 1 0 -3.5527136788004958e-015 I I #
point $-1 23.750000000000036 12.5 27.499999999999982 #
coedge $-1 $281 $355 $285 $332 forward $316 $-1 #
convexity-sys-attrib $-1 $-1 $-1 $282 #
straight-curve $-1 18.749999999999964 -12.5 9.4999999999999183 3.49148134940613e-015 0 1 I I #
point $-1 18.750000000000028 -12.5 27.5 #
edge $363 $357 -12.5 $286 12.5 $285 $364 forward 7 unknown #
point $-1 18.749999999999837 -12.5 -27.5 #
straight-curve $-1 23.749999999999844 0 -27.500000000000018 0 -1 0 I I #
face_name-twe-attrib $-1 $-1 $292 $168 7 #
model_id-kcp-attrib $-1 $365 $293 $235 1 990666364 70 709230593 9 #
model_id-kcp-attrib $-1 $366 $-1 $294 1 990666364 70 709230593 15 #
loop $367 $-1 $350 $235 #
surf-twe-attrib $-1 $-1 $-1 $295 75 #
loop_type-twe-attrib $-1 $-1 $296 $236 1 #
loop_type-twe-attrib $-1 $-1 $-1 $297 0 #
attrib_edge_convexity-kcp-attrib $-1 $368 $-1 $301 1 #
vertex $369 $301 $370 #
ellipse-curve $371 0 0 27.5 0 0 -1 6.3499999999999996 0 0 1 I I #
convexity-sys-attrib $-1 $372 $302 $243 #
model_id-kcp-attrib $-1 $-1 $-1 $303 1 990666364 70 709230593 16 #
point $-1 6.3499999999999996 0 -27.5 #
cur-twe-attrib $-1 $-1 $-1 $304 82 #
edge_name-twe-attrib $-1 $-1 $305 $174 3 8704 #
coedge $-1 $350 $350 $309 $351 forward $338 $-1 #
edge $373 $374 0 $374 6.2831853071795862 $350 $375 forward 7 unknown #
attrib_edge_convexity-kcp-attrib $-1 $376 $-1 $311 1 #
vertex $-1 $311 $377 #
ellipse-curve $378 0 0 -27.5 0 0 -1 12.5 0 0 1 I I #
coedge $-1 $328 $323 $319 $356 forward $316 $-1 #
edge $379 $325 -18.000000000000082 $357 36.999999999999915 $319 $380 forward 7 unknown #
vertex $-1 $332 $381 #
straight-curve $-1 18.749999999999837 12.5 -27.5 1 0 -3.5527136788004958e-015 I I #
point $-1 23.749999999999844 12.5 -27.500000000000018 #
convexity-sys-attrib $-1 $-1 $-1 $324 #
straight-curve $-1 18.750000000000028 0 27.5 0 1 0 I I #
point $-1 18.750000000000028 12.5 27.5 #
convexity-sys-attrib $-1 $-1 $-1 $332 #
straight-curve $-1 18.749999999999837 0 -27.5 0 -1 0 I I #
face_name-twe-attrib $-1 $-1 $336 $235 8 #
loop_type-twe-attrib $-1 $-1 $337 $294 1 #
loop_type-twe-attrib $-1 $-1 $-1 $338 0 #
convexity-sys-attrib $-1 $382 $342 $301 #
model_id-kcp-attrib $-1 $-1 $-1 $343 1 990666364 70 709230593 17 #
point $-1 6.3499999999999996 0 27.5 #
cur-twe-attrib $-1 $-1 $-1 $344 98 #
edge_name-twe-attrib $-1 $-1 $345 $243 5 8704 #
edge_name-twe-attrib $-1 $-1 $-1 $351 8 8704 #
vertex $-1 $351 $383 #
ellipse-curve $384 0 0 27.5 0 0 1 12.5 0 0 1 I I #
convexity-sys-attrib $-1 $385 $352 $311 #
point $-1 12.5 0 -27.5 #
cur-twe-attrib $-1 $-1 $-1 $354 107 #
convexity-sys-attrib $-1 $-1 $-1 $356 #
straight-curve $-1 18.749999999999964 12.5 9.4999999999999183 -3.49148134940613e-015 0 -1 I I #
point $-1 18.749999999999837 12.5 -27.5 #
edge_name-twe-attrib $-1 $-1 $368 $301 7 8704 #
point $-1 12.5 0 27.5 #
cur-twe-attrib $-1 $-1 $-1 $375 118 #
edge_name-twe-attrib $-1 $-1 $376 $311 6 8704 #
End-of-ACIS-data 