104 132 0 0                             
body $-1 $1 $-1 $2 #
lump $-1 $-1 $3 $0 #
transform $-1 1 0 0 0 1 0 0 0 1 0 0 0 1 0 0 0 #
shell $-1 $-1 $-1 $4 $1 #
face $5 $6 $7 $3 $-1 $8 0 #
face_name-twe-attrib $-1 $-1 $-1 $4 1 #
face $9 $10 $11 $3 $-1 $12 0 #
loop $13 $14 $15 $4 #
cone-surface $16 15 0 19 1 0 -3.49148134940613e-15 -1.39659253976245e-14 0 -4 1 0 1 0 #
face_name-twe-attrib $-1 $-1 $-1 $6 2 #
face $17 $18 $19 $3 $-1 $20 0 #
loop $21 $22 $23 $6 #
plane-surface $24 30 0 18.9999999999999 1 0 -3.49148134940613e-15 -3.49148134940613e-15 0 -1 0 #
loop_type-twe-attrib $-1 $-1 $-1 $7 0 #
loop $25 $-1 $26 $4 #
coedge $-1 $15 $15 $23 $27 1 $7 $-1 #
surf-twe-attrib $-1 $-1 $-1 $8 4 #
face_name-twe-attrib $-1 $-1 $-1 $10 3 #
face $28 $29 $30 $3 $-1 $31 0 #
loop $32 $33 $34 $10 #
cone-surface $35 32.5 0 18.9999999999999 1 0 -3.49148134940613e-15 -3.49148134940613e-15 0 -1 1 0 1 0 #
loop_type-twe-attrib $-1 $-1 $-1 $11 0 #
loop $36 $-1 $37 $6 #
coedge $-1 $23 $23 $15 $27 0 $11 $-1 #
surf-twe-attrib $-1 $-1 $-1 $12 6 #
loop_type-twe-attrib $-1 $-1 $-1 $14 1 #
coedge $-1 $26 $26 $38 $39 1 $14 $-1 #
edge $40 $41 $41 $23 $42 0 #
face_name-twe-attrib $-1 $-1 $-1 $18 4 #
face $43 $44 $45 $3 $-1 $46 1 #
loop $47 $-1 $48 $18 #
plane-surface $49 35 0 18.9999999999999 1 0 -3.49148134940613e-15 -3.49148134940613e-15 0 -1 0 #
loop_type-twe-attrib $-1 $-1 $-1 $19 0 #
loop $50 $-1 $51 $10 #
coedge $-1 $34 $34 $37 $52 0 $19 $-1 #
surf-twe-attrib $-1 $-1 $-1 $20 10 #
loop_type-twe-attrib $-1 $-1 $-1 $22 1 #
coedge $-1 $37 $37 $34 $52 1 $22 $-1 #
coedge $-1 $38 $38 $26 $39 0 $53 $-1 #
edge $54 $55 $55 $38 $56 0 #
edge_name-twe-attrib $-1 $-1 $-1 $27 1 8704 #
vertex $-1 $27 $57 #
ellipse-curve $58 30 0 18.9999999999999 1 0 -3.49148134940613e-15 -1.39659253976245e-14 0 -4 1 #
face_name-twe-attrib $-1 $-1 $-1 $29 5 #
face $59 $60 $53 $3 $-1 $61 0 #
loop $62 $63 $64 $29 #
cone-surface $65 0 0 0 0 0 1 6.35 0 0 1 0 1 0 #
loop_type-twe-attrib $-1 $-1 $-1 $30 0 #
coedge $-1 $48 $48 $51 $66 0 $30 $-1 #
surf-twe-attrib $-1 $-1 $-1 $31 18 #
loop_type-twe-attrib $-1 $-1 $-1 $33 1 #
coedge $-1 $51 $51 $48 $66 1 $33 $-1 #
edge $67 $68 $68 $34 $69 1 #
loop $70 $71 $38 $44 #
edge_name-twe-attrib $-1 $-1 $-1 $39 4 4352 #
vertex $-1 $39 $72 #
intcurve-curve $73 0 { surfintcur nubs 3 periodic 33 
	0 3 0.759325588349888 2 1.51865117669978 2 2.27797676504967 2 3.03730235339956 2 
	3.79633144487837 2 4.55536053635717 2 5.31438962783598 2 6.07341871931479 2 6.8324478107936 2 
	7.5914769022724 2 8.35050599375121 2 9.10953508523002 2 9.8688606735799 2 10.6281862619298 2 
	11.3875118502797 2 12.1468374386296 2 12.9061630269795 2 13.6654886153294 2 14.4248142036793 2 
	15.1841397920292 2 15.943168883508 2 16.7021979749868 2 17.4612270664657 2 18.2202561579445 2 
	18.9792852494233 2 19.7383143409021 2 20.497343432381 2 21.2563725238598 2 22.0156981122097 2 
	22.7750237005596 2 23.5343492889095 2 24.2936748772594 3 
	11.842719282327 4 19 
	11.842719282327 4 18.74689147055 
	11.8510582613255 3.9755893195283 18.4857632950466 
	11.8848283944106 3.87346697190253 17.9675255703357 
	11.9102264286033 3.79578408997591 17.7104081915525 
	11.9735163109935 3.59115253820631 17.2182456457323 
	12.011390938969 3.46404150946692 16.9827744554427 
	12.0920587818108 3.17099515643316 16.5477414085343 
	12.1347697610822 3.00503516978317 16.3481809202908 
	12.2168055431436 2.65188804055231 15.9950337910599 
	12.259070511576 2.4523601132093 15.8290820202783 
	12.3381257403246 2.01730839189093 15.536005511986 
	12.3748433623657 1.78178594777208 15.4088591819677 
	12.4357807800084 1.28952153697216 15.2041881084129 
	12.4600018983048 1.03235509616143 15.1265008207858 
	12.4921216348764 0.514102528496669 15.0243929361355 
	12.5 0.253009697159602 15 
	12.5 -0.253009697159602 15 
	12.4921216348764 -0.514102528496669 15.0243929361355 
	12.4600018983048 -1.03235509616143 15.1265008207858 
	12.4357807800084 -1.28952153697216 15.2041881084129 
	12.3748433623657 -1.78178594777208 15.4088591819677 
	12.3381257403246 -2.01730839189093 15.536005511986 
	12.259070511576 -2.4523601132093 15.8290820202783 
	12.2168055431436 -2.65188804055231 15.9950337910599 
	12.1347697610822 -3.00503516978317 16.3481809202908 
	12.0920587818108 -3.17099515643316 16.5477414085343 
	12.011390938969 -3.46404150946692 16.9827744554427 
	11.9735163109935 -3.59115253820631 17.2182456457323 
	11.9102264286033 -3.79578408997591 17.7104081915525 
	11.8848283944106 -3.87346697190253 17.9675255703357 
	11.8510582613255 -3.9755893195283 18.4857632950466 
	11.842719282327 -4 18.74689147055 
	11.842719282327 -4 19.25310852945 
	11.8510582613255 -3.9755893195283 19.5142367049534 
	11.8848283944106 -3.87346697190252 20.0324744296643 
	11.9102264286033 -3.79578408997591 20.2895918084475 
	11.9735163109935 -3.59115253820631 20.7817543542677 
	12.011390938969 -3.46404150946692 21.0172255445573 
	12.0920587818108 -3.17099515643315 21.4522585914658 
	12.1347697610822 -3.00503516978316 21.6518190797092 
	12.2168055431436 -2.6518880405523 22.0049662089401 
	12.259070511576 -2.45236011320929 22.1709179797217 
	12.3381257403246 -2.01730839189091 22.463994488014 
	12.3748433623657 -1.78178594777206 22.5911408180324 
	12.4357807800084 -1.28952153697214 22.7958118915871 
	12.4600018983048 -1.03235509616141 22.8734991792142 
	12.4921216348764 -0.514102528496644 22.9756070638645 
	12.5 -0.253009697159575 23 
	12.5 0.25300969715963 23 
	12.4921216348764 0.514102528496699 22.9756070638645 
	12.4600018983048 1.03235509616146 22.8734991792142 
	12.4357807800084 1.28952153697219 22.7958118915871 
	12.3748433623657 1.78178594777211 22.5911408180323 
	12.3381257403246 2.01730839189096 22.463994488014 
	12.259070511576 2.45236011320933 22.1709179797217 
	12.2168055431436 2.65188804055235 22.00496620894 
	12.1347697610822 3.00503516978319 21.6518190797092 
	12.0920587818108 3.17099515643318 21.4522585914657 
	12.011390938969 3.46404150946694 21.0172255445573 
	11.9735163109935 3.59115253820632 20.7817543542677 
	11.9102264286033 3.79578408997592 20.2895918084475 
	11.8848283944106 3.87346697190253 20.0324744296643 
	11.8510582613255 3.9755893195283 19.5142367049534 
	11.842719282327 4 19.25310852945 
	11.842719282327 4 19 
	0.001 
	cone 15 0 19 1 0 -3.49148134940613e-15 -1.39659253976245e-14 0 -4 1 0 1 0 
	cone 0 0 0 0 0 1 12.5 0 0 1 0 1 0 
	nullbs 
	nullbs 
	} #
point $-1 30 0 14.9999999999999 #
cur-twe-attrib $-1 $-1 $-1 $42 27 #
face_name-twe-attrib $-1 $-1 $-1 $44 6 #
face $74 $75 $76 $3 $-1 $77 0 #
cone-surface $78 0 0 0 0 0 1 12.5 0 0 1 0 1 0 #
loop_type-twe-attrib $-1 $-1 $-1 $45 0 #
loop $79 $-1 $80 $29 #
coedge $-1 $64 $64 $81 $82 1 $45 $-1 #
surf-twe-attrib $-1 $-1 $-1 $46 29 #
edge $83 $84 $84 $48 $85 0 #
edge_name-twe-attrib $-1 $-1 $-1 $52 2 4608 #
vertex $-1 $52 $86 #
ellipse-curve $87 30 0 18.9999999999999 -1 0 3.49148134940613e-15 -3.49148134940613e-15 0 -1 1 #
loop_type-twe-attrib $-1 $-1 $-1 $53 0 #
loop $88 $89 $90 $44 #
point $-1 11.842719282327 4 19 #
cur-twe-attrib $-1 $-1 $-1 $56 39 #
face_name-twe-attrib $-1 $-1 $-1 $60 7 #
face $91 $-1 $92 $3 $-1 $93 0 #
loop $94 $95 $81 $60 #
plane-surface $96 0 0 -27.5 0 0 -1 -1 0 0 0 #
surf-twe-attrib $-1 $-1 $-1 $61 44 #
loop_type-twe-attrib $-1 $-1 $-1 $63 1 #
coedge $-1 $80 $80 $97 $98 1 $63 $-1 #
coedge $-1 $81 $81 $64 $82 0 $76 $-1 #
edge $99 $100 $100 $81 $101 0 #
edge_name-twe-attrib $-1 $-1 $-1 $66 3 8704 #
vertex $-1 $66 $102 #
ellipse-curve $103 35 0 18.9999999999999 1 0 -3.49148134940613e-15 -3.49148134940613e-15 0 -1 1 #
point $-1 30 0 17.9999999999999 #
cur-twe-attrib $-1 $-1 $-1 $69 52 #
loop_type-twe-attrib $-1 $-1 $-1 $71 1 #
loop $104 $-1 $105 $44 #
coedge $-1 $90 $90 $106 $107 1 $71 $-1 #
face_name-twe-attrib $-1 $-1 $-1 $75 8 #
loop $108 $109 $97 $75 #
plane-surface $110 0 0 27.5 0 0 1 1 0 0 0 #
loop_type-twe-attrib $-1 $-1 $-1 $76 1 #
loop $111 $-1 $106 $60 #
surf-twe-attrib $-1 $-1 $-1 $77 60 #
coedge $-1 $97 $97 $80 $98 0 $92 $-1 #
edge $112 $113 $113 $97 $114 0 #
edge_name-twe-attrib $-1 $-1 $-1 $82 5 8704 #
vertex $-1 $82 $115 #
ellipse-curve $116 0 0 -27.5 0 0 1 6.35 0 0 1 #
point $-1 35 0 17.9999999999999 #
cur-twe-attrib $-1 $-1 $-1 $85 66 #
loop_type-twe-attrib $-1 $-1 $-1 $89 1 #
coedge $-1 $105 $105 $117 $118 1 $89 $-1 #
coedge $-1 $106 $106 $90 $107 0 $95 $-1 #
edge $119 $120 $120 $106 $121 0 #
loop_type-twe-attrib $-1 $-1 $-1 $92 1 #
loop $122 $-1 $117 $75 #
surf-twe-attrib $-1 $-1 $-1 $93 75 #
loop_type-twe-attrib $-1 $-1 $-1 $95 0 #
edge_name-twe-attrib $-1 $-1 $-1 $98 7 8704 #
vertex $-1 $98 $123 #
ellipse-curve $124 0 0 27.5 0 0 -1 6.35 0 0 1 #
point $-1 6.35 0 -27.5 #
cur-twe-attrib $-1 $-1 $-1 $101 82 #
coedge $-1 $117 $117 $105 $118 0 $109 $-1 #
edge $125 $126 $126 $117 $127 0 #
edge_name-twe-attrib $-1 $-1 $-1 $107 6 8704 #
vertex $-1 $107 $128 #
ellipse-curve $129 0 0 -27.5 0 0 -1 12.5 0 0 1 #
loop_type-twe-attrib $-1 $-1 $-1 $109 0 #
point $-1 6.35 0 27.5 #
cur-twe-attrib $-1 $-1 $-1 $114 98 #
edge_name-twe-attrib $-1 $-1 $-1 $118 8 8704 #
vertex $-1 $118 $130 #
ellipse-curve $131 0 0 27.5 0 0 1 12.5 0 0 1 #
point $-1 12.5 0 -27.5 #
cur-twe-attrib $-1 $-1 $-1 $121 107 #
point $-1 12.5 0 27.5 #
cur-twe-attrib $-1 $-1 $-1 $127 118 #
