700 0 2 0           
24 FBMach with ACIS - 7.0.3 13 ACIS 7.0.3 NT 24 Tue May 14 09:58:10 2002 
1 9.9999999999999995e-007 1e-010 
body $2 -1 $-1 $3 $-1 $4 #
bdycol-kcp $-1 -1 1 3 $5 $6 $7 #
model_id-kcp-attrib $-1 -1 $-1 $-1 $0 1 1021384690 1021384690 1317011457 1 #
lump $-1 -1 $-1 $-1 $8 $0 #
transform $-1 -1 1 0 0 0 1 0 0 0 1 0 0 0 1 rotate no_reflect no_shear #
body $9 -1 $-1 $10 $-1 $11 #
body $12 -1 $-1 $13 $-1 $14 #
body $15 -1 $-1 $16 $-1 $17 #
shell $-1 -1 $-1 $-1 $-1 $18 $-1 $3 #
rgb_color-st-attrib $-1 -1 $19 $-1 $5 1 0.5 1 #
lump $-1 -1 $-1 $-1 $20 $5 #
transform $-1 -1 1 0 0 0 1 0 0 0 1 11.25 0 0 1 no_rotate no_reflect no_shear #
model_id-kcp-attrib $-1 -1 $-1 $-1 $6 1 1021384690 1021384690 1317011458 1 #
lump $-1 -1 $-1 $-1 $21 $6 #
transform $-1 -1 1 0 0 0 1 0 0 0 1 11.25 0 0 1 no_rotate no_reflect no_shear #
rgb_color-st-attrib $-1 -1 $22 $-1 $7 0.5 1 1 #
lump $-1 -1 $-1 $-1 $23 $7 #
transform $-1 -1 1 0 0 0 1 0 0 0 1 0 0 0 1 no_rotate no_reflect no_shear #
face $24 -1 $-1 $25 $26 $8 $-1 $27 forward single #
model_id-kcp-attrib $-1 -1 $-1 $9 $5 1 1021384690 1021384690 1310720004 1 #
shell $-1 -1 $-1 $-1 $-1 $28 $-1 $10 #
shell $-1 -1 $-1 $-1 $-1 $29 $-1 $13 #
model_id-kcp-attrib $-1 -1 $-1 $15 $7 1 1021384690 1021384690 1318322179 1 #
shell $-1 -1 $-1 $-1 $-1 $30 $-1 $16 #
model_id-kcp-attrib $-1 -1 $31 $-1 $18 1 1021384690 1021384690 1317011457 2 #
face $32 -1 $-1 $33 $34 $8 $-1 $35 forward single #
loop $36 -1 $-1 $37 $38 $18 #
cone-surface $39 -1 $-1 15 0 19 1 0 -3.49148134940613e-015 -1.3965925397624499e-014 0 -4 1 I I 0 1 4 forward I I I I #
face $-1 -1 $-1 $40 $41 $20 $-1 $42 forward single #
face $43 -1 $-1 $44 $45 $21 $-1 $46 forward single #
face $-1 -1 $-1 $47 $48 $23 $-1 $49 forward single #
face_name-twe-attrib $-1 -1 $-1 $24 $18 1 #
model_id-kcp-attrib $-1 -1 $50 $-1 $25 1 1021384690 1021384690 1317011457 3 #
face $51 -1 $-1 $52 $53 $8 $-1 $54 forward single #
loop $55 -1 $-1 $56 $57 $25 #
plane-surface $58 -1 $-1 30 0 18.999999999999901 1 0 -3.49148134940613e-015 -3.49148134940613e-015 0 -1 forward_v I I I I #
loop_type-twe-attrib $-1 -1 $-1 $-1 $26 0 #
loop $59 -1 $-1 $-1 $60 $18 #
coedge $-1 -1 $-1 $38 $38 $57 $61 reversed $26 $-1 #
surf-twe-attrib $-1 -1 $-1 $-1 $27 4 #
face $-1 -1 $-1 $62 $63 $20 $-1 $64 forward single #
loop $-1 -1 $-1 $65 $66 $28 #
cone-surface $-1 -1 $-1 18.75 0 18.999999999999908 1 0 -3.5527136788004958e-015 -3.5527136788004958e-015 0 -1 1 I I 0 -1 1 forward I I I I #
model_id-kcp-attrib $-1 -1 $-1 $-1 $29 1 1021384690 1021384690 1317011458 4 #
face $67 -1 $-1 $68 $69 $21 $-1 $70 reversed single #
loop $-1 -1 $-1 $-1 $71 $29 #
plane-surface $-1 -1 $-1 0 0 27.5 0 0 1 1 0 0 forward_v I I I I #
face $-1 -1 $-1 $72 $73 $23 $-1 $74 forward single #
loop $-1 -1 $-1 $75 $76 $30 #
cone-surface $-1 -1 $-1 0 0 0 0 0 1 6.3499999999999996 0 0 1 I I 0 1 6.3499999999999996 forward I I I I #
face_name-twe-attrib $-1 -1 $-1 $32 $25 2 #
model_id-kcp-attrib $-1 -1 $77 $-1 $33 1 1021384690 1021384690 1317011457 4 #
face $78 -1 $-1 $79 $80 $8 $-1 $81 forward single #
loop $82 -1 $-1 $83 $84 $33 #
cone-surface $85 -1 $-1 32.5 0 18.999999999999901 1 0 -3.49148134940613e-015 -3.49148134940613e-015 0 -1 1 I I 0 1 1 forward I I I I #
loop_type-twe-attrib $-1 -1 $-1 $-1 $34 0 #
loop $86 -1 $-1 $-1 $87 $25 #
coedge $-1 -1 $-1 $57 $57 $38 $61 forward $34 $-1 #
surf-twe-attrib $-1 -1 $-1 $-1 $35 6 #
loop_type-twe-attrib $-1 -1 $-1 $-1 $37 1 #
coedge $-1 -1 $-1 $60 $60 $88 $89 reversed $37 $-1 #
edge $90 -1 $-1 $91 0 $91 6.2831853071795862 $57 $92 forward @7 unknown #
face $-1 -1 $-1 $93 $94 $20 $-1 $95 forward single #
loop $-1 -1 $-1 $-1 $96 $40 #
plane-surface $-1 -1 $-1 18.749999999999837 -12.5 -27.5 0 -1 0 0 0 -1 forward_v I I I I #
loop $-1 -1 $-1 $-1 $97 $28 #
coedge $-1 -1 $-1 $66 $66 $98 $99 forward $41 $-1 #
model_id-kcp-attrib $-1 -1 $-1 $-1 $44 1 1021384690 1021384690 1317011458 3 #
face $-1 -1 $-1 $100 $101 $21 $-1 $102 reversed single #
loop $-1 -1 $-1 $-1 $103 $44 #
plane-surface $-1 -1 $-1 0 0 -27.5 0 0 1 1 0 0 forward_v I I I I #
coedge $-1 -1 $-1 $104 $105 $106 $107 forward $45 $-1 #
face $-1 -1 $-1 $-1 $108 $23 $-1 $109 forward single #
loop $-1 -1 $-1 $-1 $110 $47 #
plane-surface $-1 -1 $-1 0 0 -27.5 0 0 -1 -1 0 0 forward_v I I I I #
loop $-1 -1 $-1 $-1 $111 $30 #
coedge $-1 -1 $-1 $76 $76 $110 $112 reversed $48 $-1 #
face_name-twe-attrib $-1 -1 $-1 $51 $33 3 #
model_id-kcp-attrib $-1 -1 $113 $-1 $52 1 1021384690 1021384690 1317011457 5 #
face $114 -1 $-1 $115 $116 $8 $-1 $117 reversed single #
loop $118 -1 $-1 $-1 $119 $52 #
plane-surface $120 -1 $-1 35 0 18.999999999999901 1 0 -3.49148134940613e-015 -3.49148134940613e-015 0 -1 forward_v I I I I #
loop_type-twe-attrib $-1 -1 $-1 $-1 $53 0 #
loop $121 -1 $-1 $-1 $122 $33 #
coedge $-1 -1 $-1 $84 $84 $87 $123 forward $53 $-1 #
surf-twe-attrib $-1 -1 $-1 $-1 $54 10 #
loop_type-twe-attrib $-1 -1 $-1 $-1 $56 1 #
coedge $-1 -1 $-1 $87 $87 $84 $123 reversed $56 $-1 #
coedge $-1 -1 $-1 $88 $88 $60 $89 forward $124 $-1 #
edge $125 -1 $-1 $126 0 $126 24.293674877259399 $88 $127 forward @7 unknown #
attrib_edge_convexity-kcp-attrib $-1 -1 $128 $-1 $61 1 #
vertex $-1 -1 $-1 $61 $129 #
ellipse-curve $130 -1 $-1 30 0 18.999999999999901 1 0 -3.49148134940613e-015 -1.3965925397624499e-014 0 -4 1 I I #
face $-1 -1 $-1 $131 $132 $20 $-1 $133 forward single #
loop $-1 -1 $-1 $-1 $134 $62 #
plane-surface $-1 -1 $-1 18.750000000000028 -12.5 27.5 3.5527136788004958e-015 0 1 1 0 -3.5527136788004958e-015 forward_v I I I I #
coedge $-1 -1 $-1 $135 $136 $137 $138 forward $63 $-1 #
coedge $-1 -1 $-1 $97 $97 $139 $140 reversed $65 $-1 #
coedge $-1 -1 $-1 $98 $98 $66 $99 reversed $141 $-1 #
edge $-1 -1 $-1 $142 0 $142 6.2831853071795862 $66 $143 forward @7 unknown #
face $-1 -1 $-1 $144 $145 $21 $-1 $146 reversed single #
loop $-1 -1 $-1 $-1 $147 $68 #
plane-surface $-1 -1 $-1 0 -12.5 0 0 1 0 0 0 1 forward_v I I I I #
coedge $-1 -1 $-1 $148 $149 $150 $151 forward $69 $-1 #
coedge $-1 -1 $-1 $152 $71 $153 $154 forward $45 $-1 #
coedge $-1 -1 $-1 $71 $152 $155 $156 forward $45 $-1 #
coedge $-1 -1 $-1 $157 $158 $71 $107 reversed $159 $-1 #
edge $-1 -1 $-1 $160 -12.5 $161 12.5 $106 $162 forward @7 unknown #
loop $-1 -1 $-1 $-1 $163 $72 #
plane-surface $-1 -1 $-1 0 0 27.5 0 0 1 1 0 0 forward_v I I I I #
coedge $-1 -1 $-1 $110 $110 $76 $112 forward $73 $-1 #
coedge $-1 -1 $-1 $111 $111 $163 $164 reversed $75 $-1 #
edge $-1 -1 $-1 $165 0 $165 6.2831853071795862 $110 $166 forward @7 unknown #
face_name-twe-attrib $-1 -1 $-1 $78 $52 4 #
model_id-kcp-attrib $-1 -1 $167 $-1 $79 1 1021384690 1021384690 1317011457 6 #
face $168 -1 $-1 $169 $124 $8 $-1 $170 forward single #
loop $171 -1 $-1 $172 $173 $79 #
cone-surface $174 -1 $-1 0 0 0 0 0 1 6.3499999999999996 0 0 1 I I 0 1 6.3499999999999996 forward I I I I #
loop_type-twe-attrib $-1 -1 $-1 $-1 $80 0 #
coedge $-1 -1 $-1 $119 $119 $122 $175 forward $80 $-1 #
surf-twe-attrib $-1 -1 $-1 $-1 $81 18 #
loop_type-twe-attrib $-1 -1 $-1 $-1 $83 1 #
coedge $-1 -1 $-1 $122 $122 $119 $175 reversed $83 $-1 #
edge $176 -1 $-1 $177 -6.2831853071795862 $177 0 $84 $178 reversed @7 unknown #
loop $179 -1 $-1 $180 $88 $115 #
edge_name-twe-attrib $-1 -1 $-1 $-1 $89 4 4352 #
vertex $-1 -1 $-1 $89 $181 #
intcurve-curve $182 -1 $-1 forward { surfintcur full nubs 3 periodic 33 
	0 3 0.75932558834988795 2 1.5186511766997799 2 2.2779767650496701 2 3.0373023533995598 2 
	3.79633144487837 2 4.5553605363571696 2 5.3143896278359799 2 6.0734187193147902 2 6.8324478107936004 2 
	7.5914769022724 2 8.3505059937512094 2 9.1095350852300196 2 9.8688606735798992 2 10.6281862619298 2 
	11.387511850279701 2 12.1468374386296 2 12.906163026979501 2 13.6654886153294 2 14.424814203679301 2 
	15.1841397920292 2 15.943168883507999 2 16.702197974986799 2 17.4612270664657 2 18.220256157944501 2 
	18.979285249423299 2 19.7383143409021 2 20.497343432381001 2 21.256372523859799 2 22.015698112209702 2 
	22.775023700559601 2 23.5343492889095 2 24.293674877259399 3 
	11.842719282327 4 19 
	11.842719282327 4 18.74689147055 
	11.8510582613255 3.9755893195283001 18.485763295046599 
	11.884828394410601 3.8734669719025301 17.967525570335699 
	11.9102264286033 3.7957840899759101 17.710408191552499 
	11.973516310993499 3.5911525382063099 17.218245645732299 
	12.011390938969001 3.4640415094669201 16.982774455442701 
	12.092058781810801 3.1709951564331602 16.5477414085343 
	12.1347697610822 3.0050351697831701 16.348180920290801 
	12.2168055431436 2.65188804055231 15.9950337910599 
	12.259070511576001 2.4523601132092998 15.8290820202783 
	12.3381257403246 2.0173083918909298 15.536005511986 
	12.3748433623657 1.7817859477720801 15.408859181967699 
	12.4357807800084 1.28952153697216 15.2041881084129 
	12.4600018983048 1.0323550961614301 15.1265008207858 
	12.492121634876399 0.51410252849666904 15.0243929361355 
	12.5 0.25300969715960198 15 
	12.5 -0.25300969715960198 15 
	12.492121634876399 -0.51410252849666904 15.0243929361355 
	12.4600018983048 -1.0323550961614301 15.1265008207858 
	12.4357807800084 -1.28952153697216 15.2041881084129 
	12.3748433623657 -1.7817859477720801 15.408859181967699 
	12.3381257403246 -2.0173083918909298 15.536005511986 
	12.259070511576001 -2.4523601132092998 15.8290820202783 
	12.2168055431436 -2.65188804055231 15.9950337910599 
	12.1347697610822 -3.0050351697831701 16.348180920290801 
	12.092058781810801 -3.1709951564331602 16.5477414085343 
	12.011390938969001 -3.4640415094669201 16.982774455442701 
	11.973516310993499 -3.5911525382063099 17.218245645732299 
	11.9102264286033 -3.7957840899759101 17.710408191552499 
	11.884828394410601 -3.8734669719025301 17.967525570335699 
	11.8510582613255 -3.9755893195283001 18.485763295046599 
	11.842719282327 -4 18.74689147055 
	11.842719282327 -4 19.25310852945 
	11.8510582613255 -3.9755893195283001 19.514236704953401 
	11.884828394410601 -3.8734669719025199 20.032474429664301 
	11.9102264286033 -3.7957840899759101 20.289591808447501 
	11.973516310993499 -3.5911525382063099 20.781754354267701 
	12.011390938969001 -3.4640415094669201 21.017225544557299 
	12.092058781810801 -3.17099515643315 21.452258591465799 
	12.1347697610822 -3.0050351697831599 21.651819079709199 
	12.2168055431436 -2.6518880405523002 22.0049662089401 
	12.259070511576001 -2.45236011320929 22.1709179797217 
	12.3381257403246 -2.0173083918909098 22.463994488013999 
	12.3748433623657 -1.7817859477720599 22.5911408180324 
	12.4357807800084 -1.28952153697214 22.7958118915871 
	12.4600018983048 -1.0323550961614101 22.8734991792142 
	12.492121634876399 -0.51410252849664395 22.975607063864501 
	12.5 -0.253009697159575 23 
	12.5 0.25300969715963001 23 
	12.492121634876399 0.51410252849669902 22.975607063864501 
	12.4600018983048 1.03235509616146 22.8734991792142 
	12.4357807800084 1.28952153697219 22.7958118915871 
	12.3748433623657 1.7817859477721101 22.591140818032301 
	12.3381257403246 2.01730839189096 22.463994488013999 
	12.259070511576001 2.45236011320933 22.1709179797217 
	12.2168055431436 2.6518880405523499 22.004966208940001 
	12.1347697610822 3.0050351697831901 21.651819079709199 
	12.092058781810801 3.1709951564331802 21.4522585914657 
	12.011390938969001 3.4640415094669401 21.017225544557299 
	11.973516310993499 3.5911525382063201 20.781754354267701 
	11.9102264286033 3.7957840899759199 20.289591808447501 
	11.884828394410601 3.8734669719025301 20.032474429664301 
	11.8510582613255 3.9755893195283001 19.514236704953401 
	11.842719282327 4 19.25310852945 
	11.842719282327 4 19 
	0.001 
	cone 15 0 19 1 0 -3.49148134940613e-015 -1.3965925397624499e-014 0 -4 1 I I 0 1 4 forward I I I I 
	cone 0 0 0 0 0 1 12.5 0 0 1 I I 0 1 12.5 forward I I I I 
	nullbs 
	nullbs 
	I I 
	0 
	0 
	0 
	} I I #
convexity-sys-attrib $-1 -1 $183 $90 $61 #
point $-1 -1 $-1 30 0 14.999999999999901 #
cur-twe-attrib $-1 -1 $-1 $-1 $92 27 #
face $-1 -1 $-1 $184 $185 $20 $-1 $186 forward single #
loop $-1 -1 $-1 $-1 $187 $93 #
plane-surface $-1 -1 $-1 18.750000000000028 12.5 27.5 0 1 0 0 0 1 forward_v I I I I #
coedge $-1 -1 $-1 $188 $189 $190 $191 forward $94 $-1 #
coedge $-1 -1 $-1 $192 $96 $189 $193 reversed $63 $-1 #
coedge $-1 -1 $-1 $96 $192 $194 $195 forward $63 $-1 #
coedge $-1 -1 $-1 $196 $190 $96 $138 reversed $197 $-1 #
edge $-1 -1 $-1 $198 -36.999999999999915 $199 18.000000000000082 $96 $200 forward @7 unknown #
coedge $-1 -1 $-1 $139 $139 $97 $140 forward $201 $-1 #
edge $202 -1 $-1 $203 0 $203 6.2831853071795862 $97 $204 forward @7 unknown #
loop $-1 -1 $-1 $-1 $98 $184 #
vertex $-1 -1 $-1 $99 $205 #
ellipse-curve $-1 -1 $-1 23.750000000000007 0 18.99999999999989 1 0 -3.49148134940613e-015 -3.49148134940613e-015 0 -1 1 I I #
face $-1 -1 $-1 $206 $207 $21 $-1 $208 reversed single #
loop $-1 -1 $-1 $-1 $209 $100 #
plane-surface $-1 -1 $-1 -23.75 0 0 1 0 0 0 0 -1 forward_v I I I I #
coedge $-1 -1 $-1 $210 $155 $211 $212 forward $101 $-1 #
coedge $-1 -1 $-1 $213 $103 $210 $214 forward $69 $-1 #
coedge $-1 -1 $-1 $103 $213 $215 $216 forward $69 $-1 #
coedge $-1 -1 $-1 $158 $157 $103 $151 reversed $159 $-1 #
edge $-1 -1 $-1 $217 -12.5 $218 12.5 $150 $219 forward @7 unknown #
coedge $-1 -1 $-1 $105 $104 $220 $221 forward $45 $-1 #
coedge $-1 -1 $-1 $222 $223 $104 $154 reversed $207 $-1 #
edge $-1 -1 $-1 $161 -23.75 $224 23.75 $153 $225 forward @7 unknown #
coedge $-1 -1 $-1 $147 $226 $105 $156 reversed $101 $-1 #
edge $-1 -1 $-1 $227 -23.75 $160 23.75 $155 $228 forward @7 unknown #
coedge $-1 -1 $-1 $150 $106 $226 $229 forward $159 $-1 #
coedge $-1 -1 $-1 $106 $150 $222 $230 reversed $159 $-1 #
loop $-1 -1 $-1 $-1 $157 $206 #
vertex $-1 -1 $-1 $107 $231 #
vertex $-1 -1 $-1 $107 $232 #
straight-curve $-1 -1 $-1 23.75 0 27.5 0 1 0 I I #
coedge $-1 -1 $-1 $163 $163 $111 $164 forward $108 $-1 #
edge $-1 -1 $-1 $233 0 $233 6.2831853071795862 $163 $234 forward @7 unknown #
vertex $-1 -1 $-1 $112 $235 #
ellipse-curve $-1 -1 $-1 0 0 -27.5 0 0 -1 6.3499999999999996 0 0 1 I I #
face_name-twe-attrib $-1 -1 $-1 $114 $79 5 #
model_id-kcp-attrib $-1 -1 $236 $-1 $115 1 1021384690 1021384690 1317011457 7 #
face $237 -1 $-1 $238 $239 $8 $-1 $240 forward single #
cone-surface $241 -1 $-1 0 0 0 0 0 1 12.5 0 0 1 I I 0 1 12.5 forward I I I I #
model_id-kcp-attrib $-1 -1 $242 $-1 $116 1 1021384690 1021384690 1317011457 12 #
loop $243 -1 $-1 $-1 $244 $79 #
coedge $-1 -1 $-1 $173 $173 $245 $246 reversed $116 $-1 #
surf-twe-attrib $-1 -1 $-1 $-1 $117 29 #
edge $247 -1 $-1 $248 0 $248 6.2831853071795862 $119 $249 forward @7 unknown #
attrib_edge_convexity-kcp-attrib $-1 -1 $250 $-1 $123 2 #
vertex $-1 -1 $-1 $123 $251 #
ellipse-curve $252 -1 $-1 30 0 18.999999999999901 -1 0 3.49148134940613e-015 -3.49148134940613e-015 0 -1 1 I I #
loop_type-twe-attrib $-1 -1 $-1 $-1 $124 0 #
loop $253 -1 $-1 $254 $255 $115 #
point $-1 -1 $-1 11.842719282327 4 19 #
cur-twe-attrib $-1 -1 $-1 $-1 $127 39 #
edge_name-twe-attrib $-1 -1 $-1 $128 $61 1 8704 #
face $-1 -1 $-1 $256 $197 $20 $-1 $257 forward single #
loop $-1 -1 $-1 $-1 $258 $131 #
plane-surface $-1 -1 $-1 18.749999999999837 12.5 -27.5 -3.5527136788004958e-015 0 -1 -1 0 3.5527136788004958e-015 forward_v I I I I #
coedge $-1 -1 $-1 $259 $260 $261 $262 forward $132 $-1 #
coedge $-1 -1 $-1 $263 $134 $260 $264 reversed $94 $-1 #
coedge $-1 -1 $-1 $134 $263 $135 $193 forward $94 $-1 #
coedge $-1 -1 $-1 $137 $261 $134 $191 reversed $197 $-1 #
edge $-1 -1 $-1 $199 -12.5 $265 12.5 $134 $266 forward @7 unknown #
coedge $-1 -1 $-1 $136 $135 $267 $268 reversed $63 $-1 #
edge $-1 -1 $-1 $269 0 $199 5.0000000000000071 $189 $270 forward @7 unknown #
coedge $-1 -1 $-1 $271 $258 $136 $195 reversed $185 $-1 #
edge $-1 -1 $-1 $272 0 $198 5.0000000000000071 $136 $273 forward @7 unknown #
coedge $-1 -1 $-1 $261 $137 $258 $274 reversed $197 $-1 #
loop $-1 -1 $-1 $141 $137 $184 #
vertex $-1 -1 $-1 $195 $275 #
vertex $-1 -1 $-1 $193 $276 #
straight-curve $-1 -1 $-1 23.749999999999972 -12.5 9.4999999999999005 3.49148134940613e-015 0 1 I I #
loop $-1 -1 $-1 $-1 $139 $256 #
convexity-sys-attrib $-1 -1 $-1 $-1 $140 #
vertex $-1 -1 $-1 $140 $277 #
ellipse-curve $-1 -1 $-1 18.75 0 18.999999999999908 1 0 -3.49148134940613e-015 -3.49148134940613e-015 0 -1 1 I I #
point $-1 -1 $-1 23.750000000000007 0 17.999999999999883 #
face $278 -1 $-1 $-1 $159 $21 $-1 $279 reversed single #
loop $-1 -1 $-1 $-1 $222 $144 #
plane-surface $-1 -1 $-1 0 12.5 0 0 -1 0 0 0 -1 forward_v I I I I #
coedge $-1 -1 $-1 $280 $220 $223 $281 forward $145 $-1 #
coedge $-1 -1 $-1 $226 $147 $148 $214 reversed $101 $-1 #
coedge $-1 -1 $-1 $220 $280 $147 $212 reversed $145 $-1 #
edge $-1 -1 $-1 $227 -27.5 $282 27.5 $211 $283 forward @7 unknown #
coedge $-1 -1 $-1 $149 $148 $280 $284 forward $69 $-1 #
edge $-1 -1 $-1 $218 -23.75 $282 23.75 $210 $285 forward @7 unknown #
coedge $-1 -1 $-1 $223 $222 $149 $216 reversed $207 $-1 #
edge $-1 -1 $-1 $286 -23.75 $217 23.75 $215 $287 forward @7 unknown #
vertex $-1 -1 $-1 $151 $288 #
vertex $-1 -1 $-1 $229 $289 #
straight-curve $-1 -1 $-1 23.75 0 -27.5 0 -1 0 I I #
coedge $-1 -1 $-1 $209 $211 $152 $221 reversed $145 $-1 #
edge $-1 -1 $-1 $224 -12.5 $227 12.5 $220 $290 forward @7 unknown #
coedge $-1 -1 $-1 $215 $153 $158 $230 forward $207 $-1 #
coedge $-1 -1 $-1 $153 $215 $209 $281 reversed $207 $-1 #
vertex $-1 -1 $-1 $154 $291 #
straight-curve $-1 -1 $-1 0 12.5 27.5 -1 0 0 I I #
coedge $-1 -1 $-1 $155 $210 $157 $229 reversed $101 $-1 #
vertex $-1 -1 $-1 $221 $292 #
straight-curve $-1 -1 $-1 0 -12.5 27.5 1 0 0 I I #
edge $-1 -1 $-1 $160 -27.5 $218 27.5 $157 $293 forward @7 unknown #
edge $-1 -1 $-1 $161 -27.5 $217 27.5 $158 $294 forward @7 unknown #
point $-1 -1 $-1 23.75 -12.5 27.5 #
point $-1 -1 $-1 23.75 12.5 27.5 #
vertex $-1 -1 $-1 $164 $295 #
ellipse-curve $-1 -1 $-1 0 0 27.5 0 0 1 6.3499999999999996 0 0 1 I I #
point $-1 -1 $-1 6.3499999999999996 0 -27.5 #
face_name-twe-attrib $-1 -1 $-1 $168 $115 6 #
model_id-kcp-attrib $-1 -1 $296 $-1 $169 1 1021384690 1021384690 1317011457 8 #
face $297 -1 $-1 $-1 $298 $8 $-1 $299 forward single #
loop $300 -1 $-1 $301 $245 $169 #
plane-surface $302 -1 $-1 0 0 -27.5 0 0 -1 -1 0 0 forward_v I I I I #
surf-twe-attrib $-1 -1 $-1 $-1 $170 44 #
loop_type-twe-attrib $-1 -1 $-1 $171 $116 0 #
model_id-kcp-attrib $-1 -1 $303 $-1 $172 1 1021384690 1021384690 1317011457 13 #
coedge $-1 -1 $-1 $244 $244 $304 $305 reversed $172 $-1 #
coedge $-1 -1 $-1 $245 $245 $173 $246 forward $239 $-1 #
edge $306 -1 $-1 $307 0 $307 6.2831853071795862 $245 $308 forward @7 unknown #
attrib_edge_convexity-kcp-attrib $-1 -1 $309 $-1 $175 1 #
vertex $-1 -1 $-1 $175 $310 #
ellipse-curve $311 -1 $-1 35 0 18.999999999999901 1 0 -3.49148134940613e-015 -3.49148134940613e-015 0 -1 1 I I #
convexity-sys-attrib $-1 -1 $312 $176 $123 #
point $-1 -1 $-1 30 0 17.999999999999901 #
cur-twe-attrib $-1 -1 $-1 $-1 $178 52 #
loop_type-twe-attrib $-1 -1 $-1 $-1 $180 1 #
loop $313 -1 $-1 $-1 $314 $115 #
coedge $-1 -1 $-1 $255 $255 $315 $316 reversed $180 $-1 #
face $-1 -1 $-1 $-1 $317 $20 $-1 $318 reversed single #
plane-surface $-1 -1 $-1 23.749999999999943 -8.4132801797251565e-019 0.71449991743085661 1 -5.0585646989069128e-031 -3.5008869128468453e-015 -3.5008869128468453e-015 0 -1 forward_v I I I I #
coedge $-1 -1 $-1 $194 $319 $196 $274 forward $185 $-1 #
coedge $-1 -1 $-1 $320 $187 $319 $321 reversed $132 $-1 #
coedge $-1 -1 $-1 $187 $320 $188 $264 forward $132 $-1 #
coedge $-1 -1 $-1 $190 $196 $187 $262 reversed $197 $-1 #
edge $-1 -1 $-1 $265 -18.000000000000082 $322 36.999999999999915 $187 $323 forward @7 unknown #
coedge $-1 -1 $-1 $189 $188 $324 $325 reversed $94 $-1 #
edge $-1 -1 $-1 $326 0 $265 5.0000000000000071 $260 $327 forward @7 unknown #
vertex $-1 -1 $-1 $264 $328 #
straight-curve $-1 -1 $-1 23.750000000000036 0 27.499999999999982 0 1 0 I I #
coedge $-1 -1 $-1 $324 $329 $192 $268 forward $317 $-1 #
edge $330 -1 $-1 $272 -36.999999999999915 $269 18.000000000000082 $192 $331 forward @7 unknown #
vertex $-1 -1 $-1 $268 $332 #
straight-curve $-1 -1 $-1 18.750000000000028 -12.5 27.5 1 0 -3.5527136788004958e-015 I I #
coedge $-1 -1 $-1 $319 $194 $329 $333 reversed $185 $-1 #
vertex $-1 -1 $-1 $333 $334 #
straight-curve $-1 -1 $-1 18.749999999999837 -12.5 -27.5 1 0 -3.5527136788004958e-015 I I #
edge $-1 -1 $-1 $322 -12.5 $198 12.5 $258 $335 forward @7 unknown #
point $-1 -1 $-1 23.749999999999844 -12.5 -27.500000000000018 #
point $-1 -1 $-1 23.750000000000036 -12.5 27.499999999999982 #
point $-1 -1 $-1 18.75 0 17.999999999999901 #
model_id-kcp-attrib $-1 -1 $-1 $-1 $206 1 1021384690 1021384690 1317011458 2 #
plane-surface $-1 -1 $-1 23.75 0 0 -1 0 0 0 0 1 forward_v I I I I #
coedge $-1 -1 $-1 $211 $209 $213 $284 reversed $145 $-1 #
edge $-1 -1 $-1 $224 -27.5 $286 27.5 $223 $336 forward @7 unknown #
vertex $-1 -1 $-1 $284 $337 #
straight-curve $-1 -1 $-1 -23.75 -12.5 0 0 0 -1 I I #
edge $-1 -1 $-1 $282 -12.5 $286 12.5 $280 $338 forward @7 unknown #
straight-curve $-1 -1 $-1 0 -12.5 -27.5 -1 0 0 I I #
vertex $-1 -1 $-1 $216 $339 #
straight-curve $-1 -1 $-1 0 12.5 -27.5 1 0 0 I I #
point $-1 -1 $-1 23.75 12.5 -27.5 #
point $-1 -1 $-1 23.75 -12.5 -27.5 #
straight-curve $-1 -1 $-1 -23.75 0 27.5 0 -1 0 I I #
point $-1 -1 $-1 -23.75 12.5 27.5 #
point $-1 -1 $-1 -23.75 -12.5 27.5 #
straight-curve $-1 -1 $-1 23.75 -12.5 0 0 0 -1 I I #
straight-curve $-1 -1 $-1 23.75 12.5 0 0 0 -1 I I #
point $-1 -1 $-1 6.3499999999999996 0 27.5 #
face_name-twe-attrib $-1 -1 $-1 $237 $169 7 #
model_id-kcp-attrib $-1 -1 $340 $-1 $238 1 1021384690 1021384690 1317011457 9 #
loop $341 -1 $-1 $342 $304 $238 #
plane-surface $343 -1 $-1 0 0 27.5 0 0 1 1 0 0 forward_v I I I I #
model_id-kcp-attrib $-1 -1 $344 $-1 $239 1 1021384690 1021384690 1317011457 14 #
loop $345 -1 $-1 $-1 $315 $169 #
surf-twe-attrib $-1 -1 $-1 $-1 $240 60 #
loop_type-twe-attrib $-1 -1 $-1 $243 $172 1 #
coedge $-1 -1 $-1 $304 $304 $244 $305 forward $298 $-1 #
edge $346 -1 $-1 $347 0 $347 6.2831853071795862 $304 $348 forward @7 unknown #
attrib_edge_convexity-kcp-attrib $-1 -1 $349 $-1 $246 1 #
vertex $350 -1 $-1 $246 $351 #
ellipse-curve $352 -1 $-1 0 0 -27.5 0 0 1 6.3499999999999996 0 0 1 I I #
convexity-sys-attrib $-1 -1 $353 $247 $175 #
point $-1 -1 $-1 35 0 17.999999999999901 #
cur-twe-attrib $-1 -1 $-1 $-1 $249 66 #
edge_name-twe-attrib $-1 -1 $-1 $250 $123 2 4608 #
loop_type-twe-attrib $-1 -1 $-1 $-1 $254 1 #
coedge $-1 -1 $-1 $314 $314 $354 $355 reversed $254 $-1 #
coedge $-1 -1 $-1 $315 $315 $255 $316 forward $301 $-1 #
edge $356 -1 $-1 $357 0 $357 6.2831853071795862 $315 $358 forward @7 unknown #
loop $-1 -1 $-1 $201 $329 $256 #
plane-surface $-1 -1 $-1 18.749999999999936 -8.4132801797251565e-019 0.71449991743087438 1 -5.0585646989069128e-031 -3.5008869128468453e-015 -3.5008869128468453e-015 0 -1 forward_v I I I I #
coedge $-1 -1 $-1 $258 $271 $259 $321 forward $185 $-1 #
coedge $-1 -1 $-1 $260 $259 $359 $360 reversed $132 $-1 #
edge $-1 -1 $-1 $361 0 $322 5.0000000000000071 $319 $362 forward @7 unknown #
vertex $-1 -1 $-1 $321 $363 #
straight-curve $-1 -1 $-1 23.749999999999972 12.5 9.4999999999999005 -3.49148134940613e-015 0 -1 I I #
coedge $-1 -1 $-1 $359 $267 $263 $325 forward $317 $-1 #
edge $364 -1 $-1 $269 -12.5 $326 12.5 $263 $365 forward @7 unknown #
vertex $-1 -1 $-1 $325 $366 #
straight-curve $-1 -1 $-1 18.750000000000028 12.5 27.5 1 0 -3.5527136788004958e-015 I I #
point $-1 -1 $-1 23.750000000000036 12.5 27.499999999999982 #
coedge $-1 -1 $-1 $267 $359 $271 $333 forward $317 $-1 #
convexity-sys-attrib $-1 -1 $-1 $-1 $268 #
straight-curve $-1 -1 $-1 18.749999999999964 -12.5 9.4999999999999183 3.49148134940613e-015 0 1 I I #
point $-1 -1 $-1 18.750000000000028 -12.5 27.5 #
edge $367 -1 $-1 $361 -12.5 $272 12.5 $271 $368 forward @7 unknown #
point $-1 -1 $-1 18.749999999999837 -12.5 -27.5 #
straight-curve $-1 -1 $-1 23.749999999999844 0 -27.500000000000018 0 -1 0 I I #
straight-curve $-1 -1 $-1 -23.75 12.5 0 0 0 -1 I I #
point $-1 -1 $-1 -23.75 -12.5 -27.5 #
straight-curve $-1 -1 $-1 -23.75 0 -27.5 0 1 0 I I #
point $-1 -1 $-1 -23.75 12.5 -27.5 #
face_name-twe-attrib $-1 -1 $-1 $297 $238 8 #
model_id-kcp-attrib $-1 -1 $369 $-1 $298 1 1021384690 1021384690 1317011457 15 #
loop $370 -1 $-1 $-1 $354 $238 #
surf-twe-attrib $-1 -1 $-1 $-1 $299 75 #
loop_type-twe-attrib $-1 -1 $-1 $300 $239 1 #
loop_type-twe-attrib $-1 -1 $-1 $-1 $301 0 #
attrib_edge_convexity-kcp-attrib $-1 -1 $371 $-1 $305 1 #
vertex $372 -1 $-1 $305 $373 #
ellipse-curve $374 -1 $-1 0 0 27.5 0 0 -1 6.3499999999999996 0 0 1 I I #
convexity-sys-attrib $-1 -1 $375 $306 $246 #
model_id-kcp-attrib $-1 -1 $-1 $-1 $307 1 1021384690 1021384690 1317011457 16 #
point $-1 -1 $-1 6.3499999999999996 0 -27.5 #
cur-twe-attrib $-1 -1 $-1 $-1 $308 82 #
edge_name-twe-attrib $-1 -1 $-1 $309 $175 3 8704 #
coedge $-1 -1 $-1 $354 $354 $314 $355 forward $342 $-1 #
edge $376 -1 $-1 $377 0 $377 6.2831853071795862 $354 $378 forward @7 unknown #
attrib_edge_convexity-kcp-attrib $-1 -1 $379 $-1 $316 1 #
vertex $-1 -1 $-1 $316 $380 #
ellipse-curve $381 -1 $-1 0 0 -27.5 0 0 -1 12.5 0 0 1 I I #
coedge $-1 -1 $-1 $329 $324 $320 $360 forward $317 $-1 #
edge $382 -1 $-1 $326 -18.000000000000082 $361 36.999999999999915 $320 $383 forward @7 unknown #
vertex $-1 -1 $-1 $333 $384 #
straight-curve $-1 -1 $-1 18.749999999999837 12.5 -27.5 1 0 -3.5527136788004958e-015 I I #
point $-1 -1 $-1 23.749999999999844 12.5 -27.500000000000018 #
convexity-sys-attrib $-1 -1 $-1 $-1 $325 #
straight-curve $-1 -1 $-1 18.750000000000028 0 27.5 0 1 0 I I #
point $-1 -1 $-1 18.750000000000028 12.5 27.5 #
convexity-sys-attrib $-1 -1 $-1 $-1 $333 #
straight-curve $-1 -1 $-1 18.749999999999837 0 -27.5 0 -1 0 I I #
loop_type-twe-attrib $-1 -1 $-1 $341 $298 1 #
loop_type-twe-attrib $-1 -1 $-1 $-1 $342 0 #
convexity-sys-attrib $-1 -1 $385 $346 $305 #
model_id-kcp-attrib $-1 -1 $-1 $-1 $347 1 1021384690 1021384690 1317011457 17 #
point $-1 -1 $-1 6.3499999999999996 0 27.5 #
cur-twe-attrib $-1 -1 $-1 $-1 $348 98 #
edge_name-twe-attrib $-1 -1 $-1 $349 $246 5 8704 #
edge_name-twe-attrib $-1 -1 $-1 $-1 $355 8 8704 #
vertex $-1 -1 $-1 $355 $386 #
ellipse-curve $387 -1 $-1 0 0 27.5 0 0 1 12.5 0 0 1 I I #
convexity-sys-attrib $-1 -1 $388 $356 $316 #
point $-1 -1 $-1 12.5 0 -27.5 #
cur-twe-attrib $-1 -1 $-1 $-1 $358 107 #
convexity-sys-attrib $-1 -1 $-1 $-1 $360 #
straight-curve $-1 -1 $-1 18.749999999999964 12.5 9.4999999999999183 -3.49148134940613e-015 0 -1 I I #
point $-1 -1 $-1 18.749999999999837 12.5 -27.5 #
edge_name-twe-attrib $-1 -1 $-1 $371 $305 7 8704 #
point $-1 -1 $-1 12.5 0 27.5 #
cur-twe-attrib $-1 -1 $-1 $-1 $378 118 #
edge_name-twe-attrib $-1 -1 $-1 $379 $316 6 8704 #
End-of-ACIS-data 