700 0 2 0           
24 FBMach with ACIS - 7.0.3 13 ACIS 7.0.3 NT 24 Mon May 13 17:07:03 2002 
1 9.9999999999999995e-007 1e-010 
body $2 -1 $-1 $3 $-1 $4 #
bdycol-kcp $-1 -1 1 9 $5 $6 $7 $8 $9 $10 $11 $12 $13 #
model_id-kcp-attrib $-1 -1 $14 $-1 $0 1 1021324022 1021324022 -349110271 1 #
lump $-1 -1 $-1 $-1 $15 $0 #
transform $-1 -1 1 0 0 0 1 0 0 0 1 0 0 0 1 rotate no_reflect no_shear #
body $16 -1 $-1 $17 $-1 $18 #
body $19 -1 $-1 $20 $-1 $21 #
body $22 -1 $-1 $23 $-1 $24 #
body $25 -1 $-1 $26 $-1 $27 #
body $28 -1 $-1 $29 $-1 $30 #
body $31 -1 $-1 $32 $-1 $33 #
body $34 -1 $-1 $35 $-1 $36 #
body $37 -1 $-1 $38 $-1 $39 #
body $40 -1 $-1 $41 $-1 $42 #
rgb_color-st-attrib $-1 -1 $-1 $2 $0 0 1 0 #
shell $-1 -1 $-1 $-1 $-1 $43 $-1 $3 #
model_id-kcp-attrib $-1 -1 $-1 $-1 $5 1 1021324022 1021324022 -349110270 1 #
lump $-1 -1 $-1 $-1 $44 $5 #
transform $-1 -1 1 0 0 0 1 0 0 0 1 0 0 0 1 no_rotate no_reflect no_shear #
rgb_color-st-attrib $-1 -1 $45 $-1 $6 0.5 0.5 1 #
lump $-1 -1 $-1 $-1 $46 $6 #
transform $-1 -1 1 0 0 0 1 0 0 0 1 0 0 0 1 no_rotate no_reflect no_shear #
rgb_color-st-attrib $-1 -1 $47 $-1 $7 0.5 0.5 1 #
lump $-1 -1 $-1 $-1 $48 $7 #
transform $-1 -1 1 0 0 0 1 0 0 0 1 0 0 0 1 no_rotate no_reflect no_shear #
rgb_color-st-attrib $-1 -1 $49 $-1 $8 0.5 1 1 #
lump $-1 -1 $-1 $-1 $50 $8 #
transform $-1 -1 -3.8285889215894375e-016 0 -1 0 1 0 1 0 -3.8285889215894375e-016 -8.7948558783104234e-030 0 -2.2971533529536625e-014 1 rotate no_reflect no_shear #
rgb_color-st-attrib $-1 -1 $51 $-1 $9 0.5 1 1 #
lump $-1 -1 $-1 $-1 $52 $9 #
transform $-1 -1 3.8285889215894375e-016 -4.6885143195523885e-032 -1 -1.2246063538223773e-016 -1 0 -1 1.2246063538223773e-016 -3.8285889215894375e-016 -74.686269665968865 -6.5072279295532375e-016 2.0344089089185364e-015 1 rotate no_reflect no_shear #
rgb_color-st-attrib $-1 -1 $53 $-1 $10 0.5 1 1 #
lump $-1 -1 $-1 $-1 $54 $10 #
transform $-1 -1 -3.8285889215894375e-016 0 -1 0 1 0 1 0 -3.8285889215894375e-016 74.686269665968865 0 2.0344089089185364e-015 1 rotate no_reflect no_shear #
rgb_color-st-attrib $-1 -1 $55 $-1 $11 0.5 1 1 #
lump $-1 -1 $-1 $-1 $56 $11 #
transform $-1 -1 1 0 0 0 -3.8285889215894375e-016 1 0 -1 -3.8285889215894375e-016 0 -9.8942128630992263e-030 2.5842975220728703e-014 1 rotate no_reflect no_shear #
rgb_color-st-attrib $-1 -1 $57 $-1 $12 0.5 1 1 #
lump $-1 -1 $-1 $-1 $58 $12 #
transform $-1 -1 1 0 0 0 -3.8285889215894375e-016 1 0 -1 -3.8285889215894375e-016 0 -76.47435053981016 2.3069734768664179e-015 1 rotate no_reflect no_shear #
rgb_color-st-attrib $-1 -1 $59 $-1 $13 0.5 1 1 #
lump $-1 -1 $-1 $-1 $60 $13 #
transform $-1 -1 1 0 0 0 -3.8285889215894375e-016 -1 0 1 -3.8285889215894375e-016 0 76.47435053981016 2.3069734768664179e-015 1 rotate no_reflect no_shear #
face $61 -1 $-1 $62 $63 $15 $-1 $64 forward single #
shell $-1 -1 $-1 $-1 $-1 $65 $-1 $17 #
model_id-kcp-attrib $-1 -1 $-1 $19 $6 1 1021324022 1021324022 -343539703 1 #
shell $-1 -1 $-1 $-1 $-1 $66 $-1 $20 #
model_id-kcp-attrib $-1 -1 $-1 $22 $7 1 1021324022 1021324022 -341573622 1 #
shell $-1 -1 $-1 $-1 $-1 $67 $-1 $23 #
model_id-kcp-attrib $-1 -1 $-1 $25 $8 1 1021324022 1021324022 -337969149 1 #
shell $-1 -1 $-1 $-1 $-1 $68 $-1 $26 #
model_id-kcp-attrib $-1 -1 $-1 $28 $9 1 1021324022 1021324022 -337313788 1 #
shell $-1 -1 $-1 $-1 $-1 $69 $-1 $29 #
model_id-kcp-attrib $-1 -1 $-1 $31 $10 1 1021324022 1021324022 -337313787 1 #
shell $-1 -1 $-1 $-1 $-1 $70 $-1 $32 #
model_id-kcp-attrib $-1 -1 $-1 $34 $11 1 1021324022 1021324022 -336592890 1 #
shell $-1 -1 $-1 $-1 $-1 $71 $-1 $35 #
model_id-kcp-attrib $-1 -1 $-1 $37 $12 1 1021324022 1021324022 -336592889 1 #
shell $-1 -1 $-1 $-1 $-1 $72 $-1 $38 #
model_id-kcp-attrib $-1 -1 $-1 $40 $13 1 1021324022 1021324022 -336592888 1 #
shell $-1 -1 $-1 $-1 $-1 $73 $-1 $41 #
model_id-kcp-attrib $-1 -1 $-1 $-1 $43 1 1021324022 1021324022 -349110271 2 #
face $74 -1 $-1 $75 $76 $15 $-1 $77 reversed single #
loop $-1 -1 $-1 $-1 $78 $43 #
cone-surface $-1 -1 $-1 -40 0 0 -1 0 0 0 0 28.510000000000002 1 I I 0.56666868880499333 0.82394574889857253 28.510000000000002 forward I I I I #
face $-1 -1 $-1 $79 $80 $44 $-1 $81 forward single #
face $-1 -1 $-1 $82 $83 $46 $-1 $84 reversed single #
face $-1 -1 $-1 $85 $86 $48 $-1 $87 reversed single #
face $-1 -1 $-1 $88 $89 $50 $-1 $90 forward single #
face $-1 -1 $-1 $91 $92 $52 $-1 $93 forward single #
face $-1 -1 $-1 $94 $95 $54 $-1 $96 forward single #
face $-1 -1 $-1 $97 $98 $56 $-1 $99 forward single #
face $-1 -1 $-1 $100 $101 $58 $-1 $102 forward single #
face $-1 -1 $-1 $103 $104 $60 $-1 $105 forward single #
model_id-kcp-attrib $-1 -1 $-1 $-1 $62 1 1021324022 1021324022 -349110271 3 #
face $106 -1 $-1 $107 $108 $15 $-1 $109 forward single #
loop $-1 -1 $-1 $110 $111 $62 #
sphere-surface $-1 -1 $-1 0 0 0 65 1 0 0 0 0 1 forward_v I I I I #
coedge $-1 -1 $-1 $112 $113 $114 $115 reversed $63 $-1 #
face $-1 -1 $-1 $116 $117 $44 $-1 $118 reversed single #
loop $-1 -1 $-1 $-1 $119 $65 #
plane-surface $-1 -1 $-1 0 0 80 0 0 1 1 0 0 forward_v I I I I #
face $-1 -1 $-1 $120 $121 $46 $-1 $122 reversed single #
loop $-1 -1 $-1 $-1 $123 $66 #
plane-surface $-1 -1 $-1 0 0 22.5 0 0 1 1 0 0 forward_v I I I I #
face $-1 -1 $-1 $124 $125 $48 $-1 $126 reversed single #
loop $-1 -1 $-1 $-1 $127 $67 #
plane-surface $-1 -1 $-1 0 0 -22.5 0 0 -1 1 0 0 forward_v I I I I #
face $-1 -1 $-1 $128 $129 $50 $-1 $130 forward single #
loop $-1 -1 $-1 $131 $132 $68 #
cone-surface $-1 -1 $-1 0 0 0 0 0 1 7.5 0 0 1 I I 0 1 7.5 forward I I I I #
face $-1 -1 $-1 $133 $134 $52 $-1 $135 forward single #
loop $-1 -1 $-1 $136 $137 $69 #
cone-surface $-1 -1 $-1 0 0 0 0 0 1 10 0 0 1 I I 0 1 10 forward I I I I #
face $-1 -1 $-1 $138 $139 $54 $-1 $140 forward single #
loop $-1 -1 $-1 $141 $142 $70 #
cone-surface $-1 -1 $-1 0 0 0 0 0 1 10 0 0 1 I I 0 1 10 forward I I I I #
face $-1 -1 $-1 $143 $144 $56 $-1 $145 forward single #
loop $-1 -1 $-1 $146 $147 $71 #
cone-surface $-1 -1 $-1 0 0 0 0 0 1 6 0 0 1 I I 0 1 6 forward I I I I #
face $-1 -1 $-1 $148 $149 $58 $-1 $150 forward single #
loop $-1 -1 $-1 $151 $152 $72 #
cone-surface $-1 -1 $-1 0 0 0 0 0 1 18 0 0 1 I I 0 1 18 forward I I I I #
face $-1 -1 $-1 $153 $154 $60 $-1 $155 forward single #
loop $-1 -1 $-1 $156 $157 $73 #
cone-surface $-1 -1 $-1 0 0 0 0 0 1 18 0 0 1 I I 0 1 18 forward I I I I #
model_id-kcp-attrib $-1 -1 $-1 $-1 $75 1 1021324022 1021324022 -349110271 4 #
face $158 -1 $-1 $159 $160 $15 $-1 $161 reversed single #
loop $-1 -1 $-1 $162 $163 $75 #
plane-surface $-1 -1 $-1 0 0 22.5 0 0 1 1 0 0 forward_v I I I I #
loop $-1 -1 $-1 $164 $165 $62 #
coedge $-1 -1 $-1 $111 $111 $166 $167 forward $76 $-1 #
coedge $-1 -1 $-1 $168 $78 $169 $170 reversed $63 $-1 #
coedge $-1 -1 $-1 $78 $171 $172 $173 reversed $63 $-1 #
coedge $-1 -1 $-1 $174 $175 $78 $115 forward $176 $-1 #
edge $177 -1 $-1 $178 0 $179 2.4251936306940998 $114 $180 forward @7 unknown #
face $-1 -1 $-1 $181 $182 $44 $-1 $183 reversed single #
loop $-1 -1 $-1 $-1 $184 $79 #
plane-surface $-1 -1 $-1 0 0 -80 0 0 1 1 0 0 forward_v I I I I #
coedge $-1 -1 $-1 $185 $186 $187 $188 forward $80 $-1 #
face $-1 -1 $-1 $189 $190 $46 $-1 $191 reversed single #
loop $-1 -1 $-1 $-1 $192 $82 #
plane-surface $-1 -1 $-1 -80 0 0 1 0 0 0 0 -1 forward_v I I I I #
coedge $-1 -1 $-1 $193 $194 $195 $196 forward $83 $-1 #
face $-1 -1 $-1 $197 $198 $48 $-1 $199 reversed single #
loop $-1 -1 $-1 $-1 $200 $85 #
plane-surface $-1 -1 $-1 80 0 0 -1 0 0 0 0 1 forward_v I I I I #
coedge $-1 -1 $-1 $201 $202 $203 $204 forward $86 $-1 #
face $-1 -1 $-1 $-1 $205 $50 $-1 $206 forward single #
loop $-1 -1 $-1 $-1 $207 $88 #
plane-surface $-1 -1 $-1 0 0 -70 0 0 -1 -1 0 0 forward_v I I I I #
loop $-1 -1 $-1 $-1 $208 $68 #
coedge $-1 -1 $-1 $132 $132 $207 $209 reversed $89 $-1 #
face $-1 -1 $-1 $-1 $210 $52 $-1 $211 forward single #
loop $-1 -1 $-1 $-1 $212 $91 #
plane-surface $-1 -1 $-1 0 0 -4.6862696659688581 0 0 -1 -1 0 0 forward_v I I I I #
loop $-1 -1 $-1 $-1 $213 $69 #
coedge $-1 -1 $-1 $137 $137 $212 $214 reversed $92 $-1 #
face $-1 -1 $-1 $-1 $215 $54 $-1 $216 forward single #
loop $-1 -1 $-1 $-1 $217 $94 #
plane-surface $-1 -1 $-1 0 0 -4.6862696659688581 0 0 -1 -1 0 0 forward_v I I I I #
loop $-1 -1 $-1 $-1 $218 $70 #
coedge $-1 -1 $-1 $142 $142 $217 $219 reversed $95 $-1 #
face $-1 -1 $-1 $-1 $220 $56 $-1 $221 forward single #
loop $-1 -1 $-1 $-1 $222 $97 #
plane-surface $-1 -1 $-1 0 0 -75 0 0 -1 -1 0 0 forward_v I I I I #
loop $-1 -1 $-1 $-1 $223 $71 #
coedge $-1 -1 $-1 $147 $147 $224 $225 reversed $98 $-1 #
face $-1 -1 $-1 $-1 $226 $58 $-1 $227 forward single #
loop $-1 -1 $-1 $-1 $228 $100 #
plane-surface $-1 -1 $-1 0 0 -1.4743505398101533 0 0 -1 -1 0 0 forward_v I I I I #
loop $-1 -1 $-1 $-1 $229 $72 #
coedge $-1 -1 $-1 $152 $152 $228 $230 reversed $101 $-1 #
face $-1 -1 $-1 $-1 $231 $60 $-1 $232 forward single #
loop $-1 -1 $-1 $-1 $233 $103 #
plane-surface $-1 -1 $-1 0 0 -1.4743505398101533 0 0 -1 -1 0 0 forward_v I I I I #
loop $-1 -1 $-1 $-1 $234 $73 #
coedge $-1 -1 $-1 $157 $157 $233 $235 reversed $104 $-1 #
model_id-kcp-attrib $-1 -1 $-1 $-1 $107 1 1021324022 1021324022 -349110271 5 #
face $236 -1 $-1 $237 $238 $15 $-1 $239 reversed single #
loop $-1 -1 $-1 $-1 $240 $107 #
sphere-surface $-1 -1 $-1 0 0 0 73 -0.70710678118654746 0.50000000000000011 -0.5 0 0.70710678118654746 0.70710678118654757 forward_v I I I I #
loop $-1 -1 $-1 $-1 $241 $75 #
coedge $-1 -1 $-1 $242 $243 $168 $244 forward $108 $-1 #
loop $-1 -1 $-1 $245 $246 $62 #
coedge $-1 -1 $-1 $165 $165 $247 $248 forward $110 $-1 #
coedge $-1 -1 $-1 $166 $166 $111 $167 reversed $249 $-1 #
edge $250 -1 $-1 $251 -3.1415926535897931 $251 3.1415926535897931 $111 $252 forward @7 unknown #
coedge $-1 -1 $-1 $171 $112 $163 $244 reversed $63 $-1 #
coedge $-1 -1 $-1 $240 $253 $112 $170 forward $160 $-1 #
edge $-1 -1 $-1 $254 1.0060926287939778 $178 2.1355000247958156 $169 $255 forward @7 unknown #
coedge $-1 -1 $-1 $113 $168 $256 $257 reversed $63 $-1 #
coedge $-1 -1 $-1 $258 $259 $113 $173 forward $260 $-1 #
edge $-1 -1 $-1 $179 0.40259509114520897 $261 0.61938109143668452 $172 $262 forward @7 unknown #
coedge $-1 -1 $-1 $263 $114 $259 $264 forward $176 $-1 #
coedge $-1 -1 $-1 $114 $265 $240 $266 forward $176 $-1 #
loop $-1 -1 $-1 $267 $114 $268 #
attrib_edge_convexity-kcp-attrib $-1 -1 $269 $-1 $115 1 #
vertex $-1 -1 $-1 $115 $270 #
vertex $-1 -1 $-1 $264 $271 #
intcurve-curve $-1 -1 $-1 forward { exactcur full nurbs 2 open 2 
	0 2 2.4251936306940998 2 
	-59.677304018298486 35.515762488049937 -22.500000000000004 1 
	-57.553371194000157 33.78656494129752 -22.500000000000004 1.0231560054275048 
	-55.629411723735963 32.171868526544259 -22.5 1.045077351634679 
	0 
	null_surface 
	null_surface 
	nullbs 
	nullbs 
	I I 
	0 
	0 
	0 
	F 1 F 0 } I I #
face $-1 -1 $-1 $272 $273 $44 $-1 $274 reversed single #
loop $-1 -1 $-1 $-1 $275 $116 #
plane-surface $-1 -1 $-1 0 -80 0 0 1 0 0 0 1 forward_v I I I I #
coedge $-1 -1 $-1 $276 $277 $278 $279 forward $117 $-1 #
coedge $-1 -1 $-1 $280 $119 $281 $282 forward $80 $-1 #
coedge $-1 -1 $-1 $119 $280 $283 $284 forward $80 $-1 #
coedge $-1 -1 $-1 $285 $286 $119 $188 reversed $287 $-1 #
edge $-1 -1 $-1 $288 -80 $289 80 $187 $290 forward @7 unknown #
face $-1 -1 $-1 $291 $292 $46 $-1 $293 forward single #
loop $-1 -1 $-1 $-1 $195 $120 #
plane-surface $-1 -1 $-1 0 -80 0 0 1 0 0 0 1 forward_v I I I I #
coedge $-1 -1 $-1 $294 $295 $193 $296 reversed $121 $-1 #
coedge $-1 -1 $-1 $297 $123 $192 $296 forward $83 $-1 #
coedge $-1 -1 $-1 $123 $297 $298 $299 forward $83 $-1 #
coedge $-1 -1 $-1 $300 $301 $123 $196 reversed $190 $-1 #
edge $302 -1 $-1 $303 -80 $304 80 $195 $305 forward @7 unknown #
face $-1 -1 $-1 $306 $307 $48 $-1 $308 reversed single #
loop $-1 -1 $-1 $-1 $203 $124 #
plane-surface $-1 -1 $-1 0 -80 0 0 1 0 0 0 1 forward_v I I I I #
coedge $-1 -1 $-1 $309 $310 $201 $311 reversed $125 $-1 #
coedge $-1 -1 $-1 $312 $127 $200 $311 forward $86 $-1 #
coedge $-1 -1 $-1 $127 $312 $313 $314 forward $86 $-1 #
coedge $-1 -1 $-1 $315 $316 $127 $204 reversed $198 $-1 #
edge $317 -1 $-1 $318 -80 $319 80 $203 $320 forward @7 unknown #
loop $-1 -1 $-1 $-1 $321 $128 #
plane-surface $-1 -1 $-1 0 0 70 0 0 1 1 0 0 forward_v I I I I #
coedge $-1 -1 $-1 $207 $207 $132 $209 forward $129 $-1 #
coedge $-1 -1 $-1 $208 $208 $321 $322 reversed $131 $-1 #
edge $-1 -1 $-1 $323 0 $323 6.2831853071795862 $207 $324 forward @7 unknown #
loop $-1 -1 $-1 $-1 $325 $133 #
plane-surface $-1 -1 $-1 0 0 4.6862696659688581 0 0 1 1 0 0 forward_v I I I I #
coedge $-1 -1 $-1 $212 $212 $137 $214 forward $134 $-1 #
coedge $-1 -1 $-1 $213 $213 $325 $326 reversed $136 $-1 #
edge $-1 -1 $-1 $327 0 $327 6.2831853071795862 $212 $328 forward @7 unknown #
loop $-1 -1 $-1 $-1 $329 $138 #
plane-surface $-1 -1 $-1 0 0 4.6862696659688581 0 0 1 1 0 0 forward_v I I I I #
coedge $-1 -1 $-1 $217 $217 $142 $219 forward $139 $-1 #
coedge $-1 -1 $-1 $218 $218 $329 $330 reversed $141 $-1 #
edge $-1 -1 $-1 $331 0 $331 6.2831853071795862 $217 $332 forward @7 unknown #
loop $-1 -1 $-1 $-1 $224 $143 #
plane-surface $-1 -1 $-1 0 0 75 0 0 1 1 0 0 forward_v I I I I #
coedge $-1 -1 $-1 $222 $222 $223 $333 forward $144 $-1 #
coedge $-1 -1 $-1 $223 $223 $222 $333 reversed $146 $-1 #
coedge $-1 -1 $-1 $224 $224 $147 $225 forward $220 $-1 #
edge $-1 -1 $-1 $334 0 $334 6.2831853071795862 $224 $335 forward @7 unknown #
loop $-1 -1 $-1 $-1 $336 $148 #
plane-surface $-1 -1 $-1 0 0 1.4743505398101533 0 0 1 1 0 0 forward_v I I I I #
coedge $-1 -1 $-1 $228 $228 $152 $230 forward $149 $-1 #
coedge $-1 -1 $-1 $229 $229 $336 $337 reversed $151 $-1 #
edge $-1 -1 $-1 $338 0 $338 6.2831853071795862 $228 $339 forward @7 unknown #
loop $-1 -1 $-1 $-1 $340 $153 #
plane-surface $-1 -1 $-1 0 0 1.4743505398101533 0 0 1 1 0 0 forward_v I I I I #
coedge $-1 -1 $-1 $233 $233 $157 $235 forward $154 $-1 #
coedge $-1 -1 $-1 $234 $234 $340 $341 reversed $156 $-1 #
edge $-1 -1 $-1 $342 0 $342 6.2831853071795862 $233 $343 forward @7 unknown #
model_id-kcp-attrib $-1 -1 $-1 $-1 $159 1 1021324022 1021324022 -349110271 6 #
face $344 -1 $-1 $345 $260 $15 $-1 $346 reversed single #
loop $-1 -1 $-1 $-1 $347 $159 #
plane-surface $-1 -1 $-1 8.4852813742385713 6 -5.9999999999999982 0.70710678118654757 0.5 -0.49999999999999989 0 -0.70710678118654746 -0.70710678118654757 forward_v I I I I #
coedge $-1 -1 $-1 $348 $169 $175 $266 reversed $160 $-1 #
coedge $-1 -1 $-1 $241 $241 $349 $350 reversed $162 $-1 #
coedge $-1 -1 $-1 $351 $163 $253 $352 forward $108 $-1 #
coedge $-1 -1 $-1 $163 $351 $353 $354 reversed $108 $-1 #
edge $355 -1 $-1 $356 86.823772352012284 $254 90.968902107354992 $163 $357 forward @7 unknown #
loop $-1 -1 $-1 $358 $359 $62 #
coedge $-1 -1 $-1 $246 $246 $360 $361 forward $164 $-1 #
coedge $-1 -1 $-1 $247 $247 $165 $248 reversed $362 $-1 #
edge $363 -1 $-1 $364 -3.1415926535897931 $364 3.1415926535897931 $165 $365 forward @7 unknown #
loop $-1 -1 $-1 $366 $166 $367 #
attrib_edge_convexity-kcp-attrib $-1 -1 $368 $-1 $167 1 #
vertex $-1 -1 $-1 $167 $369 #
ellipse-curve $-1 -1 $-1 0 64.722484501137629 0 0 1 0 6 0 0 1 I I #
coedge $-1 -1 $-1 $169 $348 $242 $352 reversed $160 $-1 #
vertex $-1 -1 $-1 $244 $370 #
ellipse-curve $-1 -1 $-1 -59.677304018298486 0 0 -1 0 0 0 0 42.043065838584795 1 I I #
coedge $-1 -1 $-1 $353 $371 $171 $257 forward $358 $-1 #
edge $-1 -1 $-1 $261 -2.0826433631639407 $356 -0.92748299756125085 $256 $372 forward @7 unknown #
coedge $-1 -1 $-1 $259 $172 $371 $373 reversed $260 $-1 #
coedge $-1 -1 $-1 $172 $258 $174 $264 reversed $260 $-1 #
loop $-1 -1 $-1 $-1 $172 $237 #
vertex $-1 -1 $-1 $257 $374 #
ellipse-curve $-1 -1 $-1 -33.507238790663315 11.693195767714961 -11.693195767714972 0.70710678118654757 0.5 -0.49999999999999989 -24.044603478278695 17.002102170432508 -17.002102170432515 0.51332248026946992 I I #
coedge $-1 -1 $-1 $265 $174 $375 $376 reversed $176 $-1 #
edge $377 -1 $-1 $179 -58.385876487539186 $378 -54.753995288015275 $174 $379 forward @7 unknown #
coedge $-1 -1 $-1 $175 $263 $380 $381 forward $176 $-1 #
edge $382 -1 $-1 $383 -2.5385837506505986 $178 -2.1076273556899672 $175 $384 forward @7 unknown #
loop $-1 -1 $-1 $-1 $385 $268 #
face $386 -1 $-1 $387 $176 $15 $-1 $388 reversed single #
convexity-sys-attrib $-1 -1 $-1 $177 $115 #
point $-1 -1 $-1 -59.677304018298486 35.515762488049944 -22.5 #
point $-1 -1 $-1 -55.629411723735963 32.171868526544259 -22.5 #
face $-1 -1 $-1 $389 $390 $44 $-1 $391 reversed single #
loop $-1 -1 $-1 $-1 $392 $181 #
plane-surface $-1 -1 $-1 -80 0 0 1 0 0 0 0 -1 forward_v I I I I #
coedge $-1 -1 $-1 $393 $283 $394 $395 forward $182 $-1 #
coedge $-1 -1 $-1 $396 $184 $393 $397 forward $117 $-1 #
coedge $-1 -1 $-1 $184 $396 $398 $399 forward $117 $-1 #
coedge $-1 -1 $-1 $286 $285 $184 $279 reversed $287 $-1 #
edge $-1 -1 $-1 $400 -80 $401 80 $278 $402 forward @7 unknown #
coedge $-1 -1 $-1 $186 $185 $403 $404 forward $80 $-1 #
coedge $-1 -1 $-1 $405 $406 $185 $282 reversed $390 $-1 #
edge $-1 -1 $-1 $289 -80 $407 80 $281 $408 forward @7 unknown #
coedge $-1 -1 $-1 $275 $409 $186 $284 reversed $182 $-1 #
edge $-1 -1 $-1 $410 -80 $288 80 $283 $411 forward @7 unknown #
coedge $-1 -1 $-1 $278 $187 $409 $412 forward $287 $-1 #
coedge $-1 -1 $-1 $187 $278 $405 $413 reversed $287 $-1 #
loop $-1 -1 $-1 $-1 $285 $389 #
vertex $-1 -1 $-1 $188 $414 #
vertex $-1 -1 $-1 $188 $415 #
straight-curve $-1 -1 $-1 80 0 80 0 1 0 I I #
face $-1 -1 $-1 $416 $417 $46 $-1 $418 reversed single #
loop $-1 -1 $-1 $-1 $419 $189 #
plane-surface $-1 -1 $-1 0 0 80 0 0 1 1 0 0 forward_v I I I I #
coedge $-1 -1 $-1 $420 $192 $301 $421 reversed $121 $-1 #
coedge $-1 -1 $-1 $192 $420 $422 $423 forward $121 $-1 #
edge $424 -1 $-1 $304 -80 $425 80 $192 $426 forward @7 unknown #
coedge $-1 -1 $-1 $194 $193 $427 $428 forward $83 $-1 #
coedge $-1 -1 $-1 $429 $430 $194 $299 reversed $431 $-1 #
edge $432 -1 $-1 $433 -80 $303 80 $298 $434 forward @7 unknown #
coedge $-1 -1 $-1 $435 $195 $430 $436 reversed $190 $-1 #
coedge $-1 -1 $-1 $195 $435 $294 $421 forward $190 $-1 #
convexity-sys-attrib $-1 -1 $-1 $-1 $196 #
vertex $-1 -1 $-1 $196 $437 #
vertex $-1 -1 $-1 $196 $438 #
straight-curve $-1 -1 $-1 0 -80 22.5 -1 0 0 I I #
face $-1 -1 $-1 $439 $440 $48 $-1 $441 reversed single #
loop $-1 -1 $-1 $-1 $442 $197 #
plane-surface $-1 -1 $-1 0 0 -80 0 0 1 1 0 0 forward_v I I I I #
coedge $-1 -1 $-1 $443 $200 $316 $444 forward $125 $-1 #
coedge $-1 -1 $-1 $200 $443 $445 $446 reversed $125 $-1 #
edge $447 -1 $-1 $319 -80 $448 80 $200 $449 forward @7 unknown #
coedge $-1 -1 $-1 $202 $201 $450 $451 forward $86 $-1 #
coedge $-1 -1 $-1 $452 $453 $202 $314 reversed $440 $-1 #
edge $454 -1 $-1 $455 -80 $318 80 $313 $456 forward @7 unknown #
coedge $-1 -1 $-1 $457 $203 $453 $458 forward $198 $-1 #
coedge $-1 -1 $-1 $203 $457 $309 $444 reversed $198 $-1 #
convexity-sys-attrib $-1 -1 $-1 $-1 $204 #
vertex $-1 -1 $-1 $458 $459 #
vertex $-1 -1 $-1 $444 $460 #
straight-curve $-1 -1 $-1 0 -80 -22.5 1 0 0 I I #
coedge $-1 -1 $-1 $321 $321 $208 $322 forward $205 $-1 #
edge $-1 -1 $-1 $461 0 $461 6.2831853071795862 $321 $462 forward @7 unknown #
vertex $-1 -1 $-1 $209 $463 #
ellipse-curve $-1 -1 $-1 0 0 -70 0 0 -1 7.5 0 0 1 I I #
coedge $-1 -1 $-1 $325 $325 $213 $326 forward $210 $-1 #
edge $-1 -1 $-1 $464 0 $464 6.2831853071795862 $325 $465 forward @7 unknown #
vertex $-1 -1 $-1 $214 $466 #
ellipse-curve $-1 -1 $-1 0 0 -4.6862696659688581 0 0 -1 10 0 0 1 I I #
coedge $-1 -1 $-1 $329 $329 $218 $330 forward $215 $-1 #
edge $-1 -1 $-1 $467 0 $467 6.2831853071795862 $329 $468 forward @7 unknown #
vertex $-1 -1 $-1 $219 $469 #
ellipse-curve $-1 -1 $-1 0 0 -4.6862696659688581 0 0 -1 10 0 0 1 I I #
edge $-1 -1 $-1 $470 0 $470 6.2831853071795862 $222 $471 forward @7 unknown #
vertex $-1 -1 $-1 $225 $472 #
ellipse-curve $-1 -1 $-1 0 0 75 0 0 1 6 0 0 1 I I #
coedge $-1 -1 $-1 $336 $336 $229 $337 forward $226 $-1 #
edge $-1 -1 $-1 $473 0 $473 6.2831853071795862 $336 $474 forward @7 unknown #
vertex $-1 -1 $-1 $230 $475 #
ellipse-curve $-1 -1 $-1 0 0 -1.4743505398101533 0 0 -1 18 0 0 1 I I #
coedge $-1 -1 $-1 $340 $340 $234 $341 forward $231 $-1 #
edge $-1 -1 $-1 $476 0 $476 6.2831853071795862 $340 $477 forward @7 unknown #
vertex $-1 -1 $-1 $235 $478 #
ellipse-curve $-1 -1 $-1 0 0 -1.4743505398101533 0 0 -1 18 0 0 1 I I #
model_id-kcp-attrib $-1 -1 $-1 $-1 $237 1 1021324022 1021324022 -349110271 7 #
face $479 -1 $-1 $480 $481 $15 $-1 $482 reversed single #
plane-surface $-1 -1 $-1 -8.4852813742385713 -6 5.9999999999999982 -0.70710678118654757 -0.5 0.49999999999999989 0 0.70710678118654746 0.70710678118654757 forward_v I I I I #
coedge $-1 -1 $-1 $483 $484 $351 $485 reversed $238 $-1 #
coedge $-1 -1 $-1 $253 $240 $483 $486 reversed $160 $-1 #
coedge $-1 -1 $-1 $349 $349 $241 $350 forward $487 $-1 #
edge $488 -1 $-1 $489 -3.1415926535897931 $489 3.1415926535897931 $349 $490 forward @7 unknown #
coedge $-1 -1 $-1 $243 $242 $347 $485 forward $108 $-1 #
edge $491 -1 $-1 $254 -1.0339652978998259 $492 -0.21855393445974811 $242 $493 forward @7 unknown #
coedge $-1 -1 $-1 $494 $256 $243 $354 forward $358 $-1 #
edge $495 -1 $-1 $356 -2.0853479040751641 $496 3.3012015168663242 $353 $497 forward @7 unknown #
attrib_edge_convexity-kcp-attrib $-1 -1 $498 $-1 $244 1 #
vertex $-1 -1 $-1 $354 $499 #
intcurve-curve $-1 -1 $-1 forward { exactcur full nurbs 2 open 2 
	86.823772352012284 2 90.968902107354992 2 
	-53.085266435096528 30.011739161781566 22.5 1.0755494048089491 
	-56.104434074798952 32.606914397147676 22.500000000000004 1.039578137554714 
	-59.677304018298486 35.515762488049937 22.500000000000004 1 
	0 
	null_surface 
	null_surface 
	nullbs 
	nullbs 
	I I 
	0 
	0 
	0 
	F 1 F 0 } I I #
loop $-1 -1 $-1 $-1 $256 $62 #
coedge $-1 -1 $-1 $359 $359 $500 $501 forward $245 $-1 #
coedge $-1 -1 $-1 $360 $360 $246 $361 reversed $502 $-1 #
edge $503 -1 $-1 $504 -3.1415926535897931 $504 3.1415926535897931 $246 $505 forward @7 unknown #
loop $-1 -1 $-1 $506 $247 $507 #
attrib_edge_convexity-kcp-attrib $-1 -1 $508 $-1 $248 1 #
vertex $-1 -1 $-1 $248 $509 #
ellipse-curve $-1 -1 $-1 0 -64.722484501137629 0 0 -1 0 6 0 0 1 I I #
loop $-1 -1 $-1 $-1 $510 $367 #
face $511 -1 $-1 $512 $249 $15 $-1 $513 reversed single #
convexity-sys-attrib $-1 -1 $-1 $250 $167 #
point $-1 -1 $-1 -6 64.722484501137629 7.3478807948841188e-016 #
point $-1 -1 $-1 -59.677304018298486 35.515762488049944 22.5 #
coedge $-1 -1 $-1 $256 $375 $258 $373 forward $358 $-1 #
ellipse-curve $-1 -1 $-1 -53.085266435096528 0 0 1 0 0 0 0 37.50939199073764 1 I I #
edge $-1 -1 $-1 $378 -1.4964954289330943 $261 -1.4115008174605648 $371 $514 forward @7 unknown #
point $-1 -1 $-1 -53.085266435096521 32.702238513016844 -18.371665241685921 #
coedge $-1 -1 $-1 $371 $494 $263 $376 forward $358 $-1 #
edge $515 -1 $-1 $516 -0.60127779921806357 $378 5.2118347531153431 $375 $517 forward @7 unknown #
attrib_edge_convexity-kcp-attrib $-1 -1 $518 $-1 $264 1 #
vertex $-1 -1 $-1 $264 $519 #
straight-curve $-1 -1 $-1 -21.920310216782969 -15.499999999999996 -22.5 0.57735026918962573 -0.81649658092772603 0 I I #
coedge $-1 -1 $-1 $484 $483 $265 $381 reversed $238 $-1 #
edge $520 -1 $-1 $516 60.975404877704577 $383 69.44062211702888 $265 $521 forward @7 unknown #
attrib_edge_convexity-kcp-attrib $-1 -1 $522 $-1 $266 1 #
vertex $-1 -1 $-1 $381 $523 #
ellipse-curve $-1 -1 $-1 0 0 -22.5 0 0 1 0 -69.446022204299069 0 1 I I #
coedge $-1 -1 $-1 $385 $385 $524 $525 reversed $267 $-1 #
model_id-kcp-attrib $-1 -1 $-1 $-1 $268 1 1021324022 1021324022 -349110271 20 #
face $526 -1 $-1 $-1 $527 $15 $-1 $528 forward single #
plane-surface $-1 -1 $-1 0 0 -22.5 0 0 1 1 0 0 forward_v I I I I #
face $-1 -1 $-1 $-1 $287 $44 $-1 $529 reversed single #
loop $-1 -1 $-1 $-1 $405 $272 #
plane-surface $-1 -1 $-1 0 80 0 0 -1 0 0 0 -1 forward_v I I I I #
coedge $-1 -1 $-1 $530 $403 $406 $531 forward $273 $-1 #
coedge $-1 -1 $-1 $409 $275 $276 $397 reversed $182 $-1 #
coedge $-1 -1 $-1 $403 $530 $275 $395 reversed $273 $-1 #
edge $-1 -1 $-1 $410 -80 $532 80 $394 $533 forward @7 unknown #
coedge $-1 -1 $-1 $277 $276 $530 $534 forward $117 $-1 #
edge $-1 -1 $-1 $401 -80 $532 80 $393 $535 forward @7 unknown #
coedge $-1 -1 $-1 $406 $405 $277 $399 reversed $390 $-1 #
edge $-1 -1 $-1 $536 -80 $400 80 $398 $537 forward @7 unknown #
vertex $-1 -1 $-1 $279 $538 #
vertex $-1 -1 $-1 $412 $539 #
straight-curve $-1 -1 $-1 80 0 -80 0 -1 0 I I #
coedge $-1 -1 $-1 $392 $394 $280 $404 reversed $273 $-1 #
edge $-1 -1 $-1 $407 -80 $410 80 $403 $540 forward @7 unknown #
coedge $-1 -1 $-1 $398 $281 $286 $413 forward $390 $-1 #
coedge $-1 -1 $-1 $281 $398 $392 $531 reversed $390 $-1 #
vertex $-1 -1 $-1 $282 $541 #
straight-curve $-1 -1 $-1 0 80 80 -1 0 0 I I #
coedge $-1 -1 $-1 $283 $393 $285 $412 reversed $182 $-1 #
vertex $-1 -1 $-1 $404 $542 #
straight-curve $-1 -1 $-1 0 -80 80 1 0 0 I I #
edge $-1 -1 $-1 $288 -80 $401 80 $285 $543 forward @7 unknown #
edge $-1 -1 $-1 $289 -80 $400 80 $286 $544 forward @7 unknown #
point $-1 -1 $-1 80 -80 80 #
point $-1 -1 $-1 80 80 80 #
face $-1 -1 $-1 $-1 $431 $46 $-1 $545 reversed single #
loop $-1 -1 $-1 $-1 $427 $291 #
plane-surface $-1 -1 $-1 0 80 0 0 -1 0 0 0 -1 forward_v I I I I #
coedge $-1 -1 $-1 $546 $547 $548 $549 forward $292 $-1 #
coedge $-1 -1 $-1 $295 $294 $550 $551 reversed $121 $-1 #
edge $-1 -1 $-1 $552 -80 $304 -22.5 $294 $553 forward @7 unknown #
coedge $-1 -1 $-1 $554 $427 $295 $423 reversed $417 $-1 #
edge $-1 -1 $-1 $555 -80 $425 -22.5 $422 $556 forward @7 unknown #
convexity-sys-attrib $-1 -1 $-1 $-1 $296 #
vertex $-1 -1 $-1 $296 $557 #
straight-curve $-1 -1 $-1 -80 0 22.5 0 1 0 I I #
coedge $-1 -1 $-1 $422 $558 $297 $428 reversed $417 $-1 #
edge $559 -1 $-1 $425 -80 $433 80 $427 $560 forward @7 unknown #
coedge $-1 -1 $-1 $548 $298 $558 $561 reversed $431 $-1 #
coedge $-1 -1 $-1 $298 $548 $300 $436 forward $431 $-1 #
loop $-1 -1 $-1 $-1 $298 $416 #
convexity-sys-attrib $-1 -1 $-1 $-1 $299 #
vertex $-1 -1 $-1 $299 $562 #
straight-curve $-1 -1 $-1 80 0 22.5 0 -1 0 I I #
coedge $-1 -1 $-1 $301 $300 $547 $563 reversed $190 $-1 #
edge $-1 -1 $-1 $564 -80 $303 -22.5 $430 $565 forward @7 unknown #
point $-1 -1 $-1 80 -80 22.5 #
point $-1 -1 $-1 -80 -80 22.5 #
face $-1 -1 $-1 $-1 $566 $48 $-1 $567 reversed single #
loop $-1 -1 $-1 $-1 $313 $306 #
plane-surface $-1 -1 $-1 -80 0 0 1 0 0 0 0 -1 forward_v I I I I #
coedge $-1 -1 $-1 $568 $569 $443 $570 forward $307 $-1 #
coedge $-1 -1 $-1 $310 $309 $442 $570 reversed $125 $-1 #
edge $-1 -1 $-1 $319 22.5 $571 80 $309 $572 forward @7 unknown #
coedge $-1 -1 $-1 $573 $450 $310 $446 forward $566 $-1 #
edge $-1 -1 $-1 $448 22.5 $574 80 $310 $575 forward @7 unknown #
convexity-sys-attrib $-1 -1 $-1 $-1 $311 #
vertex $-1 -1 $-1 $446 $576 #
straight-curve $-1 -1 $-1 80 0 -22.5 0 1 0 I I #
coedge $-1 -1 $-1 $445 $577 $312 $451 reversed $566 $-1 #
edge $578 -1 $-1 $448 -80 $455 80 $450 $579 forward @7 unknown #
coedge $-1 -1 $-1 $580 $313 $577 $581 forward $440 $-1 #
coedge $-1 -1 $-1 $313 $580 $315 $458 reversed $440 $-1 #
convexity-sys-attrib $-1 -1 $-1 $-1 $314 #
vertex $-1 -1 $-1 $581 $582 #
straight-curve $-1 -1 $-1 -80 0 -22.5 0 -1 0 I I #
coedge $-1 -1 $-1 $316 $315 $568 $583 reversed $198 $-1 #
edge $-1 -1 $-1 $318 22.5 $584 80 $453 $585 forward @7 unknown #
point $-1 -1 $-1 -80 -80 -22.5 #
point $-1 -1 $-1 80 -80 -22.5 #
vertex $-1 -1 $-1 $322 $586 #
ellipse-curve $-1 -1 $-1 0 0 70 0 0 1 7.5 0 0 1 I I #
point $-1 -1 $-1 7.5 0 -70 #
vertex $-1 -1 $-1 $326 $587 #
ellipse-curve $-1 -1 $-1 0 0 4.6862696659688581 0 0 1 10 0 0 1 I I #
point $-1 -1 $-1 10 0 -4.6862696659688581 #
vertex $-1 -1 $-1 $330 $588 #
ellipse-curve $-1 -1 $-1 0 0 4.6862696659688581 0 0 1 10 0 0 1 I I #
point $-1 -1 $-1 10 0 -4.6862696659688581 #
vertex $-1 -1 $-1 $333 $589 #
ellipse-curve $-1 -1 $-1 0 0 -75 0 0 -1 6 0 0 1 I I #
point $-1 -1 $-1 6 0 75 #
vertex $-1 -1 $-1 $337 $590 #
ellipse-curve $-1 -1 $-1 0 0 1.4743505398101533 0 0 1 18 0 0 1 I I #
point $-1 -1 $-1 18 0 -1.4743505398101533 #
vertex $-1 -1 $-1 $341 $591 #
ellipse-curve $-1 -1 $-1 0 0 1.4743505398101533 0 0 1 18 0 0 1 I I #
point $-1 -1 $-1 18 0 -1.4743505398101533 #
model_id-kcp-attrib $-1 -1 $-1 $-1 $345 1 1021324022 1021324022 -349110271 8 #
face $592 -1 $-1 $593 $502 $15 $-1 $594 reversed single #
loop $-1 -1 $-1 $595 $500 $345 #
cone-surface $-1 -1 $-1 -60 0 0 1 0 0 0 0 -7.5 1 I I 0 1 7.5 forward I I I I #
coedge $-1 -1 $-1 $380 $347 $348 $486 forward $238 $-1 #
coedge $-1 -1 $-1 $347 $380 $494 $596 reversed $238 $-1 #
edge $597 -1 $-1 $492 -64.046857846423663 $496 -54.753995288015282 $351 $598 forward @7 unknown #
edge $-1 -1 $-1 $492 -2.6609234700479281 $383 -1.9184938115665469 $348 $599 forward @7 unknown #
loop $-1 -1 $-1 $600 $349 $387 #
attrib_edge_convexity-kcp-attrib $-1 -1 $601 $-1 $350 1 #
vertex $-1 -1 $-1 $350 $602 #
ellipse-curve $-1 -1 $-1 0 0 22.5 0 0 -1 0 -76.770762663920436 0 1 I I #
attrib_edge_convexity-kcp-attrib $-1 -1 $603 $-1 $352 1 #
vertex $-1 -1 $-1 $485 $604 #
ellipse-curve $-1 -1 $-1 0 0 22.5 0 0 -1 0 69.446022204299069 0 1 I I #
coedge $-1 -1 $-1 $375 $353 $484 $596 forward $358 $-1 #
attrib_edge_convexity-kcp-attrib $-1 -1 $605 $-1 $354 1 #
vertex $-1 -1 $-1 $596 $606 #
ellipse-curve $-1 -1 $-1 0 0 22.5 0 0 1 0 -60.981554588252337 0 1 I I #
convexity-sys-attrib $-1 -1 $-1 $355 $244 #
point $-1 -1 $-1 -53.085266435096528 30.011739161781566 22.5 #
coedge $-1 -1 $-1 $500 $500 $359 $501 reversed $481 $-1 #
edge $607 -1 $-1 $608 -3.1415926535897931 $608 3.1415926535897931 $359 $609 forward @7 unknown #
loop $-1 -1 $-1 $610 $360 $480 #
attrib_edge_convexity-kcp-attrib $-1 -1 $611 $-1 $361 1 #
vertex $-1 -1 $-1 $361 $612 #
ellipse-curve $-1 -1 $-1 64.565857850724797 0 0 1 0 0 0 0 7.5 1 I I #
loop $-1 -1 $-1 $-1 $613 $507 #
face $614 -1 $-1 $367 $362 $15 $-1 $615 reversed single #
convexity-sys-attrib $-1 -1 $-1 $363 $248 #
point $-1 -1 $-1 -6 -64.722484501137629 -7.3478807948841188e-016 #
coedge $-1 -1 $-1 $510 $510 $616 $617 reversed $366 $-1 #
model_id-kcp-attrib $-1 -1 $-1 $-1 $367 1 1021324022 1021324022 -349110271 15 #
face $618 -1 $-1 $619 $620 $15 $-1 $621 reversed single #
cone-surface $-1 -1 $-1 0 67.5 0 0 1 0 6 0 0 1 I I 0 1 6 forward I I I I #
ellipse-curve $-1 -1 $-1 -8.4852813742385695 -5.9999999999999991 5.9999999999999982 0.70710678118654757 0.5 -0.49999999999999989 0 45.171893916460924 45.171893916460931 1 I I #
attrib_edge_convexity-kcp-attrib $-1 -1 $622 $-1 $376 1 #
vertex $-1 -1 $-1 $376 $623 #
ellipse-curve $-1 -1 $-1 0 0 -22.5 0 0 -1 0 60.981554588252337 0 1 I I #
convexity-sys-attrib $-1 -1 $-1 $377 $264 #
point $-1 -1 $-1 -53.532544135526088 29.206449944797306 -22.5 #
attrib_edge_convexity-kcp-attrib $-1 -1 $624 $-1 $381 1 #
straight-curve $-1 -1 $-1 0.70710678118654924 0.50000000000000178 -22.5 -0.57735026918962573 0.81649658092772603 0 I I #
convexity-sys-attrib $-1 -1 $-1 $382 $266 #
point $-1 -1 $-1 -39.384455090775148 57.198030536048314 -22.5 #
coedge $-1 -1 $-1 $524 $524 $385 $525 forward $600 $-1 #
edge $625 -1 $-1 $626 -3.1415926535897931 $626 3.1415926535897931 $524 $627 forward @7 unknown #
model_id-kcp-attrib $-1 -1 $-1 $-1 $387 1 1021324022 1021324022 -349110271 21 #
loop $-1 -1 $-1 $628 $629 $387 #
sphere-surface $-1 -1 $-1 0 0 0 80 1 0 0 0 0 1 forward_v I I I I #
plane-surface $-1 -1 $-1 80 0 0 -1 0 0 0 0 1 forward_v I I I I #
coedge $-1 -1 $-1 $394 $392 $396 $534 reversed $273 $-1 #
edge $-1 -1 $-1 $407 -80 $536 80 $406 $630 forward @7 unknown #
vertex $-1 -1 $-1 $534 $631 #
straight-curve $-1 -1 $-1 -80 -80 0 0 0 -1 I I #
edge $-1 -1 $-1 $532 -80 $536 80 $530 $632 forward @7 unknown #
straight-curve $-1 -1 $-1 0 -80 -80 -1 0 0 I I #
vertex $-1 -1 $-1 $399 $633 #
straight-curve $-1 -1 $-1 0 80 -80 1 0 0 I I #
point $-1 -1 $-1 80 80 -80 #
point $-1 -1 $-1 80 -80 -80 #
straight-curve $-1 -1 $-1 -80 0 80 0 -1 0 I I #
point $-1 -1 $-1 -80 80 80 #
point $-1 -1 $-1 -80 -80 80 #
straight-curve $-1 -1 $-1 80 -80 0 0 0 -1 I I #
straight-curve $-1 -1 $-1 80 80 0 0 0 -1 I I #
plane-surface $-1 -1 $-1 80 0 0 -1 0 0 0 0 1 forward_v I I I I #
coedge $-1 -1 $-1 $550 $419 $554 $634 forward $292 $-1 #
coedge $-1 -1 $-1 $419 $550 $435 $563 forward $292 $-1 #
coedge $-1 -1 $-1 $430 $429 $419 $549 reversed $431 $-1 #
edge $-1 -1 $-1 $564 -80 $635 80 $548 $636 forward @7 unknown #
coedge $-1 -1 $-1 $547 $546 $420 $551 forward $292 $-1 #
edge $-1 -1 $-1 $555 -80 $552 80 $420 $637 forward @7 unknown #
vertex $-1 -1 $-1 $551 $638 #
straight-curve $-1 -1 $-1 -80 -80 0 0 0 -1 I I #
coedge $-1 -1 $-1 $558 $422 $546 $634 reversed $417 $-1 #
vertex $-1 -1 $-1 $634 $639 #
straight-curve $-1 -1 $-1 -80 80 0 0 0 -1 I I #
point $-1 -1 $-1 -80 80 22.5 #
coedge $-1 -1 $-1 $427 $554 $429 $561 forward $417 $-1 #
convexity-sys-attrib $-1 -1 $-1 $-1 $428 #
straight-curve $-1 -1 $-1 0 80 22.5 1 0 0 I I #
edge $-1 -1 $-1 $635 -80 $433 -22.5 $429 $640 forward @7 unknown #
point $-1 -1 $-1 80 80 22.5 #
edge $-1 -1 $-1 $552 -80 $564 80 $435 $641 forward @7 unknown #
vertex $-1 -1 $-1 $549 $642 #
straight-curve $-1 -1 $-1 80 -80 0 0 0 -1 I I #
loop $-1 -1 $-1 $-1 $450 $439 #
plane-surface $-1 -1 $-1 0 80 0 0 -1 0 0 0 -1 forward_v I I I I #
coedge $-1 -1 $-1 $643 $442 $457 $583 forward $307 $-1 #
coedge $-1 -1 $-1 $442 $643 $573 $644 forward $307 $-1 #
edge $-1 -1 $-1 $574 -80 $571 80 $443 $645 forward @7 unknown #
vertex $-1 -1 $-1 $444 $646 #
straight-curve $-1 -1 $-1 80 -80 0 0 0 -1 I I #
coedge $-1 -1 $-1 $577 $445 $569 $644 reversed $566 $-1 #
vertex $-1 -1 $-1 $570 $647 #
straight-curve $-1 -1 $-1 80 80 0 0 0 -1 I I #
point $-1 -1 $-1 80 80 -22.5 #
coedge $-1 -1 $-1 $450 $573 $452 $581 reversed $566 $-1 #
convexity-sys-attrib $-1 -1 $-1 $-1 $451 #
straight-curve $-1 -1 $-1 0 80 -22.5 -1 0 0 I I #
coedge $-1 -1 $-1 $453 $452 $643 $648 reversed $440 $-1 #
edge $-1 -1 $-1 $455 22.5 $649 80 $577 $650 forward @7 unknown #
point $-1 -1 $-1 -80 80 -22.5 #
edge $-1 -1 $-1 $571 -80 $584 80 $457 $651 forward @7 unknown #
vertex $-1 -1 $-1 $648 $652 #
straight-curve $-1 -1 $-1 -80 -80 0 0 0 -1 I I #
point $-1 -1 $-1 7.5 0 70 #
point $-1 -1 $-1 10 0 4.6862696659688581 #
point $-1 -1 $-1 10 0 4.6862696659688581 #
point $-1 -1 $-1 6 0 -75 #
point $-1 -1 $-1 18 0 1.4743505398101533 #
point $-1 -1 $-1 18 0 1.4743505398101533 #
model_id-kcp-attrib $-1 -1 $-1 $-1 $480 1 1021324022 1021324022 -349110271 9 #
face $653 -1 $-1 $654 $655 $15 $-1 $656 reversed single #
cone-surface $-1 -1 $-1 60 0 0 -1 0 0 0 0 7.5 1 I I 0 1 7.5 forward I I I I #
loop $-1 -1 $-1 $-1 $657 $345 #
edge $-1 -1 $-1 $496 -2.727454846273869 $516 -1.8834248614518139 $494 $658 forward @7 unknown #
attrib_edge_convexity-kcp-attrib $-1 -1 $659 $-1 $485 1 #
straight-curve $-1 -1 $-1 21.920310216782969 15.499999999999996 22.5 0.57735026918962573 -0.81649658092772603 0 I I #
ellipse-curve $-1 -1 $-1 8.4852813742385713 6 -5.9999999999999982 -0.70710678118654757 -0.5 0.49999999999999989 0 -50.916598472403869 -50.916598472403876 1 I I #
loop $-1 -1 $-1 $-1 $524 $387 #
convexity-sys-attrib $-1 -1 $-1 $488 $350 #
point $-1 -1 $-1 9.4017068764471299e-015 76.770762663920436 22.5 #
convexity-sys-attrib $-1 -1 $-1 $491 $352 #
point $-1 -1 $-1 -15.057160401599429 67.794040450769018 22.5 #
convexity-sys-attrib $-1 -1 $-1 $495 $354 #
point $-1 -1 $-1 -9.6919237019601567 60.206449944797292 22.5 #
attrib_edge_convexity-kcp-attrib $-1 -1 $660 $-1 $501 1 #
vertex $-1 -1 $-1 $501 $661 #
ellipse-curve $-1 -1 $-1 -64.565857850724797 0 0 -1 0 0 0 0 -7.5 1 I I #
loop $-1 -1 $-1 $-1 $662 $480 #
convexity-sys-attrib $-1 -1 $-1 $503 $361 #
point $-1 -1 $-1 64.565857850724797 9.1848509936051499e-016 -7.5 #
coedge $-1 -1 $-1 $613 $613 $663 $664 reversed $506 $-1 #
model_id-kcp-attrib $-1 -1 $-1 $-1 $507 1 1021324022 1021324022 -349110271 14 #
cone-surface $-1 -1 $-1 0 -67.5 0 0 -1 0 6 0 0 1 I I 0 1 6 forward I I I I #
coedge $-1 -1 $-1 $616 $616 $510 $617 forward $665 $-1 #
edge $666 -1 $-1 $667 0 $667 6.2831853071795862 $616 $668 forward @7 unknown #
model_id-kcp-attrib $-1 -1 $-1 $-1 $512 1 1021324022 1021324022 -349110271 16 #
face $669 -1 $-1 $670 $671 $15 $-1 $672 reversed single #
loop $-1 -1 $-1 $673 $674 $512 #
cone-surface $-1 -1 $-1 0 -82.5 0 0 -1 0 18 0 0 1 I I 0 1 18 forward I I I I #
convexity-sys-attrib $-1 -1 $-1 $515 $376 #
point $-1 -1 $-1 -34.497059638902606 50.286209603329581 -22.5 #
convexity-sys-attrib $-1 -1 $-1 $520 $381 #
attrib_edge_convexity-kcp-attrib $-1 -1 $675 $-1 $525 1 #
vertex $-1 -1 $-1 $525 $676 #
ellipse-curve $-1 -1 $-1 0 0 -22.5 0 0 1 0 76.770762663920436 0 1 I I #
loop $-1 -1 $-1 $677 $678 $387 #
coedge $-1 -1 $-1 $629 $629 $679 $680 forward $527 $-1 #
straight-curve $-1 -1 $-1 -80 80 0 0 0 -1 I I #
point $-1 -1 $-1 -80 -80 -80 #
straight-curve $-1 -1 $-1 -80 0 -80 0 1 0 I I #
point $-1 -1 $-1 -80 80 -80 #
edge $-1 -1 $-1 $635 -80 $555 80 $554 $681 forward @7 unknown #
vertex $-1 -1 $-1 $549 $682 #
straight-curve $-1 -1 $-1 80 0 80 0 1 0 I I #
straight-curve $-1 -1 $-1 -80 0 80 0 -1 0 I I #
point $-1 -1 $-1 -80 -80 80 #
point $-1 -1 $-1 -80 80 80 #
straight-curve $-1 -1 $-1 80 80 0 0 0 -1 I I #
straight-curve $-1 -1 $-1 0 -80 80 1 0 0 I I #
point $-1 -1 $-1 80 -80 80 #
coedge $-1 -1 $-1 $569 $568 $580 $648 forward $307 $-1 #
edge $-1 -1 $-1 $649 -80 $574 80 $573 $683 forward @7 unknown #
straight-curve $-1 -1 $-1 80 0 -80 0 -1 0 I I #
point $-1 -1 $-1 80 -80 -80 #
point $-1 -1 $-1 80 80 -80 #
edge $-1 -1 $-1 $584 -80 $649 80 $580 $684 forward @7 unknown #
vertex $-1 -1 $-1 $644 $685 #
straight-curve $-1 -1 $-1 -80 80 0 0 0 -1 I I #
straight-curve $-1 -1 $-1 0 -80 -80 -1 0 0 I I #
point $-1 -1 $-1 -80 -80 -80 #
model_id-kcp-attrib $-1 -1 $-1 $-1 $593 1 1021324022 1021324022 -349110271 10 #
face $686 -1 $-1 $687 $688 $15 $-1 $689 reversed single #
loop $-1 -1 $-1 $690 $679 $593 #
cone-surface $-1 -1 $-1 -80 0 0 -1 0 0 0 0 10 1 I I 0 1 10 forward I I I I #
coedge $-1 -1 $-1 $657 $657 $691 $692 reversed $595 $-1 #
ellipse-curve $-1 -1 $-1 8.4852813742385695 5.9999999999999991 -5.9999999999999982 -0.70710678118654757 -0.5 0.49999999999999989 0 -45.171893916460924 -45.171893916460931 1 I I #
convexity-sys-attrib $-1 -1 $-1 $597 $485 #
convexity-sys-attrib $-1 -1 $-1 $607 $501 #
point $-1 -1 $-1 -64.565857850724797 9.1848509936051499e-016 7.5 #
coedge $-1 -1 $-1 $662 $662 $693 $694 reversed $610 $-1 #
coedge $-1 -1 $-1 $663 $663 $613 $664 forward $671 $-1 #
edge $695 -1 $-1 $696 0 $696 6.2831853071795862 $663 $697 forward @7 unknown #
loop $-1 -1 $-1 $698 $616 $699 #
attrib_edge_convexity-kcp-attrib $-1 -1 $700 $-1 $617 1 #
vertex $-1 -1 $-1 $617 $701 #
ellipse-curve $-1 -1 $-1 0 75 0 0 -1 0 6 0 0 1 I I #
model_id-kcp-attrib $-1 -1 $-1 $-1 $619 1 1021324022 1021324022 -349110271 17 #
face $702 -1 $-1 $699 $703 $15 $-1 $704 reversed single #
loop $-1 -1 $-1 $705 $663 $619 #
plane-surface $-1 -1 $-1 0 -75 0 0 1 0 -1 0 0 forward_v I I I I #
loop $-1 -1 $-1 $-1 $706 $512 #
coedge $-1 -1 $-1 $674 $674 $707 $708 reversed $620 $-1 #
convexity-sys-attrib $-1 -1 $-1 $625 $525 #
point $-1 -1 $-1 9.4017068764471299e-015 -76.770762663920436 -22.5 #
loop $-1 -1 $-1 $709 $707 $387 #
coedge $-1 -1 $-1 $678 $678 $710 $711 forward $628 $-1 #
coedge $-1 -1 $-1 $679 $679 $629 $680 reversed $655 $-1 #
edge $712 -1 $-1 $713 -3.1415926535897931 $713 3.1415926535897931 $629 $714 forward @7 unknown #
straight-curve $-1 -1 $-1 0 80 80 -1 0 0 I I #
point $-1 -1 $-1 80 80 80 #
straight-curve $-1 -1 $-1 0 80 -80 1 0 0 I I #
straight-curve $-1 -1 $-1 -80 0 -80 0 1 0 I I #
point $-1 -1 $-1 -80 80 -80 #
model_id-kcp-attrib $-1 -1 $-1 $-1 $654 1 1021324022 1021324022 -349110271 11 #
face $715 -1 $-1 $716 $717 $15 $-1 $718 reversed single #
loop $-1 -1 $-1 $719 $691 $654 #
plane-surface $-1 -1 $-1 -70 0 0 1 0 0 0 0 -1 forward_v I I I I #
loop $-1 -1 $-1 $-1 $720 $593 #
coedge $-1 -1 $-1 $691 $691 $657 $692 forward $688 $-1 #
edge $721 -1 $-1 $722 0 $722 6.2831853071795862 $691 $723 forward @7 unknown #
coedge $-1 -1 $-1 $693 $693 $662 $694 forward $724 $-1 #
edge $725 -1 $-1 $726 0 $726 6.2831853071795862 $693 $727 forward @7 unknown #
attrib_edge_convexity-kcp-attrib $-1 -1 $728 $-1 $664 1 #
vertex $-1 -1 $-1 $664 $729 #
ellipse-curve $-1 -1 $-1 0 -75 0 0 1 0 6 0 0 1 I I #
loop $-1 -1 $-1 $-1 $730 $699 #
face $731 -1 $-1 $268 $665 $15 $-1 $732 reversed single #
convexity-sys-attrib $-1 -1 $-1 $666 $617 #
point $-1 -1 $-1 6 75 0 #
model_id-kcp-attrib $-1 -1 $-1 $-1 $670 1 1021324022 1021324022 -349110271 18 #
loop $-1 -1 $-1 $733 $734 $670 #
cone-surface $-1 -1 $-1 0 82.5 0 0 1 0 18 0 0 1 I I 0 1 18 forward I I I I #
loop $-1 -1 $-1 $-1 $735 $619 #
coedge $-1 -1 $-1 $706 $706 $735 $736 forward $673 $-1 #
coedge $-1 -1 $-1 $707 $707 $674 $708 forward $677 $-1 #
edge $737 -1 $-1 $738 -3.1415926535897931 $738 3.1415926535897931 $707 $739 forward @7 unknown #
loop $-1 -1 $-1 $487 $740 $387 #
coedge $-1 -1 $-1 $710 $710 $678 $711 reversed $717 $-1 #
edge $741 -1 $-1 $742 -3.1415926535897931 $742 3.1415926535897931 $678 $743 forward @7 unknown #
attrib_edge_convexity-kcp-attrib $-1 -1 $744 $-1 $680 1 #
vertex $-1 -1 $-1 $680 $745 #
ellipse-curve $-1 -1 $-1 -79.372539331937716 0 0 1 0 0 0 0 10 1 I I #
model_id-kcp-attrib $-1 -1 $-1 $-1 $687 1 1021324022 1021324022 -349110271 12 #
face $746 -1 $-1 $507 $724 $15 $-1 $747 reversed single #
loop $-1 -1 $-1 $748 $710 $687 #
cone-surface $-1 -1 $-1 80 0 0 1 0 0 0 0 -10 1 I I 0 1 10 forward I I I I #
loop $-1 -1 $-1 $-1 $749 $654 #
coedge $-1 -1 $-1 $720 $720 $749 $750 forward $690 $-1 #
attrib_edge_convexity-kcp-attrib $-1 -1 $751 $-1 $692 1 #
vertex $-1 -1 $-1 $692 $752 #
ellipse-curve $-1 -1 $-1 -70 0 0 1 0 0 0 0 -7.5 1 I I #
loop $-1 -1 $-1 $753 $693 $716 #
attrib_edge_convexity-kcp-attrib $-1 -1 $754 $-1 $694 1 #
vertex $-1 -1 $-1 $694 $755 #
ellipse-curve $-1 -1 $-1 70 0 0 -1 0 0 0 0 7.5 1 I I #
convexity-sys-attrib $-1 -1 $-1 $695 $664 #
point $-1 -1 $-1 6 -75 0 #
coedge $-1 -1 $-1 $730 $730 $756 $757 reversed $698 $-1 #
model_id-kcp-attrib $-1 -1 $-1 $-1 $699 1 1021324022 1021324022 -349110271 19 #
plane-surface $-1 -1 $-1 0 75 0 0 -1 0 -1 0 0 forward_v I I I I #
loop $-1 -1 $-1 $-1 $756 $670 #
coedge $-1 -1 $-1 $734 $734 $740 $758 reversed $703 $-1 #
coedge $-1 -1 $-1 $735 $735 $706 $736 reversed $705 $-1 #
edge $759 -1 $-1 $760 0 $760 6.2831853071795862 $735 $761 forward @7 unknown #
attrib_edge_convexity-kcp-attrib $-1 -1 $762 $-1 $708 1 #
vertex $-1 -1 $-1 $708 $763 #
ellipse-curve $-1 -1 $-1 0 -77.948701079620307 0 0 1 0 18 0 0 1 I I #
coedge $-1 -1 $-1 $740 $740 $734 $758 forward $709 $-1 #
attrib_edge_convexity-kcp-attrib $-1 -1 $764 $-1 $711 1 #
vertex $-1 -1 $-1 $711 $765 #
ellipse-curve $-1 -1 $-1 79.372539331937716 0 0 -1 0 0 0 0 -10 1 I I #
convexity-sys-attrib $-1 -1 $-1 $712 $680 #
point $-1 -1 $-1 -79.372539331937716 1.2246467991473533e-015 -10 #
model_id-kcp-attrib $-1 -1 $-1 $-1 $716 1 1021324022 1021324022 -349110271 13 #
plane-surface $-1 -1 $-1 70 0 0 -1 0 0 0 0 1 forward_v I I I I #
loop $-1 -1 $-1 $-1 $766 $687 #
coedge $-1 -1 $-1 $749 $749 $720 $750 reversed $719 $-1 #
edge $767 -1 $-1 $768 0 $768 6.2831853071795862 $749 $769 forward @7 unknown #
convexity-sys-attrib $-1 -1 $-1 $721 $692 #
point $-1 -1 $-1 -70 0 -7.5 #
loop $-1 -1 $-1 $-1 $770 $716 #
convexity-sys-attrib $-1 -1 $-1 $725 $694 #
point $-1 -1 $-1 70 0 7.5 #
coedge $-1 -1 $-1 $756 $756 $730 $757 forward $733 $-1 #
edge $771 -1 $-1 $772 0 $772 6.2831853071795862 $730 $773 forward @7 unknown #
edge $774 -1 $-1 $775 -3.1415926535897931 $775 3.1415926535897931 $740 $776 forward @7 unknown #
attrib_edge_convexity-kcp-attrib $-1 -1 $777 $-1 $736 2 #
vertex $-1 -1 $-1 $736 $778 #
ellipse-curve $-1 -1 $-1 0 -75 0 0 1 0 18 0 0 1 I I #
convexity-sys-attrib $-1 -1 $-1 $737 $708 #
point $-1 -1 $-1 -18 -77.948701079620307 2.2043642384652358e-015 #
convexity-sys-attrib $-1 -1 $-1 $741 $711 #
point $-1 -1 $-1 79.372539331937716 1.2246467991473533e-015 10 #
coedge $-1 -1 $-1 $766 $766 $770 $779 forward $748 $-1 #
attrib_edge_convexity-kcp-attrib $-1 -1 $780 $-1 $750 2 #
vertex $-1 -1 $-1 $750 $781 #
ellipse-curve $-1 -1 $-1 -70 0 0 1 0 0 0 0 10 1 I I #
coedge $-1 -1 $-1 $770 $770 $766 $779 reversed $753 $-1 #
attrib_edge_convexity-kcp-attrib $-1 -1 $782 $-1 $757 2 #
vertex $-1 -1 $-1 $757 $783 #
ellipse-curve $-1 -1 $-1 0 75 0 0 -1 0 18 0 0 1 I I #
attrib_edge_convexity-kcp-attrib $-1 -1 $784 $-1 $758 1 #
vertex $-1 -1 $-1 $758 $785 #
ellipse-curve $-1 -1 $-1 0 77.948701079620307 0 0 -1 0 18 0 0 1 I I #
convexity-sys-attrib $-1 -1 $-1 $759 $736 #
point $-1 -1 $-1 18 -75 0 #
edge $786 -1 $-1 $787 0 $787 6.2831853071795862 $770 $788 forward @7 unknown #
convexity-sys-attrib $-1 -1 $-1 $767 $750 #
point $-1 -1 $-1 -70 0 10 #
convexity-sys-attrib $-1 -1 $-1 $771 $757 #
point $-1 -1 $-1 18 75 0 #
convexity-sys-attrib $-1 -1 $-1 $774 $758 #
point $-1 -1 $-1 -18 77.948701079620307 -2.2043642384652358e-015 #
attrib_edge_convexity-kcp-attrib $-1 -1 $789 $-1 $779 2 #
vertex $-1 -1 $-1 $779 $790 #
ellipse-curve $-1 -1 $-1 70 0 0 -1 0 0 0 0 -10 1 I I #
convexity-sys-attrib $-1 -1 $-1 $786 $779 #
point $-1 -1 $-1 70 0 -10 #
End-of-ACIS-data 