201 0 1 0           
7 Unknown 16 ACIS 2.1 Solaris 24 Fri Mar 21 10:12:58 1997 
-1 9.999999999999999547e-07 1.000000000000000036e-10 
body $1 $2 $-1 $3 #
display_attribute-st-attrib $-1 $4 $-1 $0 7 #
lump $-1 $-1 $5 $0 #
transform $-1 1 0 0 0 1 0 0 0 1 0 0 0 1 no_rotate no_reflect no_shear #
rgb_color-st-attrib $-1 $6 $1 $0 0 1 0 #
shell $-1 $-1 $-1 $7 $-1 $2 #
id_attribute-st-attrib $-1 $-1 $4 $0 231 #
face $-1 $8 $9 $5 $-1 $10 forward single #
face $-1 $11 $12 $5 $-1 $13 reversed single #
loop $-1 $-1 $14 $7 #
cone-surface $-1 -40 0 0 -1 0 0 0 0 28.51000000000000156 1 I I 0.5666686888049933257 0.8239457488985725275 forward I I I I #
face $-1 $15 $16 $5 $-1 $17 forward single #
loop $-1 $18 $19 $8 #
sphere-surface $-1 0 0 0 65 1 0 0 0 0 1 forward_v I I I I #
coedge $-1 $20 $21 $22 $23 1 $9 $-1 #
face $-1 $24 $25 $5 $-1 $26 reversed single #
loop $-1 $27 $28 $11 #
plane-surface $-1 0 0 22.5 0 0 1 1 0 0 forward_v I I I I #
loop $-1 $29 $30 $8 #
coedge $-1 $19 $19 $31 $32 0 $12 $-1 #
coedge $-1 $33 $14 $34 $35 1 $9 $-1 #
coedge $-1 $14 $36 $37 $38 1 $9 $-1 #
coedge $-1 $39 $40 $14 $23 0 $41 $-1 #
edge $-1 $42 $43 $22 $44 forward #
face $-1 $45 $46 $5 $-1 $47 reversed single #
loop $-1 $-1 $48 $15 #
sphere-surface $-1 0 0 0 73 -0.7071067811865474617 0.500000000000000111 -0.5 0 0.7071067811865474617 0.7071067811865475727 forward_v I I I I #
loop $-1 $-1 $49 $11 #
coedge $-1 $50 $51 $33 $52 0 $16 $-1 #
loop $-1 $53 $54 $8 #
coedge $-1 $30 $30 $55 $56 0 $18 $-1 #
coedge $-1 $31 $31 $19 $32 1 $57 $-1 #
edge $-1 $58 $58 $19 $59 forward #
coedge $-1 $36 $20 $28 $52 1 $9 $-1 #
coedge $-1 $48 $60 $20 $35 0 $25 $-1 #
edge $-1 $61 $42 $34 $62 forward #
coedge $-1 $21 $33 $63 $64 1 $9 $-1 #
coedge $-1 $65 $66 $21 $38 0 $67 $-1 #
edge $-1 $43 $68 $37 $69 forward #
coedge $-1 $70 $22 $66 $71 0 $41 $-1 #
coedge $-1 $22 $72 $48 $73 0 $41 $-1 #
loop $-1 $74 $22 $75 #
vertex $-1 $23 $76 #
vertex $-1 $71 $77 #
intcurve-curve $-1 forward { exactcur nurbs 2 open 2 
	0 2 2.425193630694099767 2 
	-59.67730401829848574 35.51576248804993696 -22.50000000000000355 1 
	-57.55337119400015666 33.78656494129752019 -22.50000000000000355 1.023156005427504844 
	-55.62941172373596288 32.17186852654425877 -22.5 1.045077351634678964 
	0 
	null_surface 
	null_surface 
	nullbs 
	nullbs 
	I I F 1 F 0 } I I #
face $-1 $78 $67 $5 $-1 $79 reversed single #
loop $-1 $-1 $80 $24 #
plane-surface $-1 8.485281374238571317 6 -5.999999999999998224 0.7071067811865475727 0.5 -0.499999999999999889 -0 -0.7071067811865474617 -0.7071067811865475727 forward_v I I I I #
coedge $-1 $81 $34 $40 $73 1 $25 $-1 #
coedge $-1 $49 $49 $82 $83 1 $27 $-1 #
coedge $-1 $84 $28 $60 $85 0 $16 $-1 #
coedge $-1 $28 $84 $86 $87 1 $16 $-1 #
edge $-1 $88 $61 $28 $89 forward #
loop $-1 $90 $91 $8 #
coedge $-1 $54 $54 $92 $93 0 $29 $-1 #
coedge $-1 $55 $55 $30 $56 1 $94 $-1 #
edge $-1 $95 $95 $30 $96 forward #
loop $-1 $97 $31 $98 #
vertex $-1 $32 $99 #
ellipse-curve $-1 0 64.72248450113762885 0 0 1 0 6 0 0 1 I I #
coedge $-1 $34 $81 $50 $85 1 $25 $-1 #
vertex $-1 $52 $100 #
ellipse-curve $-1 -59.67730401829848574 0 0 -1 0 0 0 0 42.04306583858479485 1 I I #
coedge $-1 $86 $101 $36 $64 0 $90 $-1 #
edge $-1 $68 $88 $63 $102 forward #
coedge $-1 $66 $37 $101 $103 1 $67 $-1 #
coedge $-1 $37 $65 $39 $71 1 $67 $-1 #
loop $-1 $-1 $37 $45 #
vertex $-1 $64 $104 #
ellipse-curve $-1 -33.50723879066331534 11.69319576771496116 -11.69319576771497182 0.7071067811865475727 0.5 -0.499999999999999889 -24.04460347827869526 17.00210217043250793 -17.00210217043251504 0.5133224802694699163 I I #
coedge $-1 $72 $39 $105 $106 1 $41 $-1 #
edge $-1 $43 $107 $39 $108 forward #
coedge $-1 $40 $70 $109 $110 0 $41 $-1 #
edge $-1 $111 $42 $40 $112 forward #
loop $-1 $-1 $113 $75 #
face $-1 $114 $41 $5 $-1 $115 reversed single #
point $-1 -59.67730401829848574 35.51576248804994407 -22.5 #
point $-1 -55.62941172373596288 32.17186852654425877 -22.5 #
face $-1 $116 $117 $5 $-1 $118 reversed single #
plane-surface $-1 -8.485281374238571317 -6 5.999999999999998224 -0.7071067811865475727 -0.5 0.499999999999999889 0 0.7071067811865474617 0.7071067811865475727 forward_v I I I I #
coedge $-1 $119 $120 $84 $121 1 $46 $-1 #
coedge $-1 $60 $48 $119 $122 1 $25 $-1 #
coedge $-1 $82 $82 $49 $83 0 $123 $-1 #
edge $-1 $124 $124 $82 $125 forward #
coedge $-1 $51 $50 $80 $121 0 $16 $-1 #
edge $-1 $61 $126 $50 $127 forward #
coedge $-1 $128 $63 $51 $87 0 $90 $-1 #
edge $-1 $88 $129 $86 $130 forward #
vertex $-1 $87 $131 #
intcurve-curve $-1 forward { exactcur nurbs 2 open 2 
	86.82377235201228416 2 90.96890210735499238 2 
	-53.08526643509652843 30.01173916178156631 22.5 1.075549404808949117 
	-56.10443407479895228 32.60691439714767625 22.50000000000000355 1.039578137554713955 
	-59.67730401829848574 35.51576248804993696 22.50000000000000355 1 
	0 
	null_surface 
	null_surface 
	nullbs 
	nullbs 
	I I F 1 F 0 } I I #
loop $-1 $-1 $63 $8 #
coedge $-1 $91 $91 $132 $133 0 $53 $-1 #
coedge $-1 $92 $92 $54 $93 1 $134 $-1 #
edge $-1 $135 $135 $54 $136 forward #
loop $-1 $137 $55 $138 #
vertex $-1 $56 $139 #
ellipse-curve $-1 0 -64.72248450113762885 0 0 -1 0 6 0 0 1 I I #
loop $-1 $-1 $140 $98 #
face $-1 $141 $57 $5 $-1 $142 reversed single #
point $-1 -6 64.72248450113762885 7.34788079488411875e-16 #
point $-1 -59.67730401829848574 35.51576248804994407 22.5 #
coedge $-1 $63 $105 $65 $103 0 $90 $-1 #
ellipse-curve $-1 -53.08526643509652843 0 0 1 -0 -0 0 0 37.5093919907376403 1 I I #
edge $-1 $107 $68 $101 $143 forward #
point $-1 -53.08526643509652132 32.70223851301684448 -18.37166524168592119 #
coedge $-1 $101 $128 $70 $106 0 $90 $-1 #
edge $-1 $144 $107 $105 $145 forward #
vertex $-1 $71 $146 #
straight-curve $-1 -21.92031021678296909 -15.49999999999999645 -22.5 0.5773502691896257311 -0.8164965809277260345 0 I I #
coedge $-1 $120 $119 $72 $110 1 $46 $-1 #
edge $-1 $144 $111 $72 $147 forward #
vertex $-1 $110 $148 #
ellipse-curve $-1 0 0 -22.5 0 0 1 0 -69.44602220429906936 0 1 I I #
coedge $-1 $113 $113 $149 $150 1 $74 $-1 #
face $-1 $-1 $151 $5 $-1 $152 forward single #
plane-surface $-1 0 0 -22.5 0 0 1 1 0 0 forward_v I I I I #
face $-1 $153 $134 $5 $-1 $154 reversed single #
loop $-1 $155 $132 $78 #
cone-surface $-1 -60 0 0 1 0 0 0 0 -7.5 1 I I 0 1 forward I I I I #
coedge $-1 $109 $80 $81 $122 0 $46 $-1 #
coedge $-1 $80 $109 $128 $156 1 $46 $-1 #
edge $-1 $126 $129 $84 $157 forward #
edge $-1 $126 $111 $81 $158 forward #
loop $-1 $159 $82 $114 #
vertex $-1 $83 $160 #
ellipse-curve $-1 0 0 22.5 -0 -0 -1 0 -76.77076266392043635 0 1 I I #
vertex $-1 $121 $161 #
ellipse-curve $-1 0 0 22.5 -0 -0 -1 0 69.44602220429906936 0 1 I I #
coedge $-1 $105 $86 $120 $156 0 $90 $-1 #
vertex $-1 $156 $162 #
ellipse-curve $-1 0 0 22.5 0 0 1 0 -60.98155458825233666 0 1 I I #
point $-1 -53.08526643509652843 30.01173916178156631 22.5 #
coedge $-1 $132 $132 $91 $133 1 $117 $-1 #
edge $-1 $163 $163 $91 $164 forward #
loop $-1 $165 $92 $116 #
vertex $-1 $93 $166 #
ellipse-curve $-1 64.56585785072479666 0 0 1 -0 -0 0 0 7.5 1 I I #
loop $-1 $-1 $167 $138 #
face $-1 $98 $94 $5 $-1 $168 reversed single #
point $-1 -6 -64.72248450113762885 -7.34788079488411875e-16 #
coedge $-1 $140 $140 $169 $170 1 $97 $-1 #
face $-1 $171 $172 $5 $-1 $173 reversed single #
cone-surface $-1 0 67.5 0 0 1 0 6 0 0 1 I I 0 1 forward I I I I #
ellipse-curve $-1 -8.485281374238569541 -5.999999999999999112 5.999999999999998224 0.7071067811865475727 0.5 -0.499999999999999889 -0 45.17189391646092389 45.171893916460931 1 I I #
vertex $-1 $106 $174 #
ellipse-curve $-1 0 0 -22.5 -0 -0 -1 0 60.98155458825233666 0 1 I I #
point $-1 -53.53254413552608781 29.20644994479730627 -22.5 #
straight-curve $-1 0.7071067811865492381 0.5000000000000017764 -22.5 -0.5773502691896257311 0.8164965809277260345 0 I I #
point $-1 -39.38445509077514828 57.19803053604831433 -22.5 #
coedge $-1 $149 $149 $113 $150 0 $159 $-1 #
edge $-1 $175 $175 $149 $176 forward #
loop $-1 $177 $178 $114 #
sphere-surface $-1 0 0 0 80 1 0 0 0 0 1 forward_v I I I I #
face $-1 $179 $180 $5 $-1 $181 reversed single #
cone-surface $-1 60 0 0 -1 0 0 0 0 7.5 1 I I 0 1 forward I I I I #
loop $-1 $-1 $182 $78 #
edge $-1 $129 $144 $128 $183 forward #
straight-curve $-1 21.92031021678296909 15.49999999999999645 22.5 0.5773502691896257311 -0.8164965809277260345 0 I I #
ellipse-curve $-1 8.485281374238571317 6 -5.999999999999998224 -0.7071067811865475727 -0.5 0.499999999999999889 -0 -50.91659847240386938 -50.91659847240387649 1 I I #
loop $-1 $-1 $149 $114 #
point $-1 9.401706876447129885e-15 76.77076266392043635 22.5 #
point $-1 -15.05716040159942892 67.79404045076901753 22.5 #
point $-1 -9.691923701960156734 60.20644994479729206 22.5 #
vertex $-1 $133 $184 #
ellipse-curve $-1 -64.56585785072479666 0 0 -1 -0 -0 0 0 -7.5 1 I I #
loop $-1 $-1 $185 $116 #
point $-1 64.56585785072479666 9.184850993605149917e-16 -7.5 #
coedge $-1 $167 $167 $186 $187 1 $137 $-1 #
cone-surface $-1 0 -67.5 0 0 -1 0 6 0 0 1 I I 0 1 forward I I I I #
coedge $-1 $169 $169 $140 $170 0 $188 $-1 #
edge $-1 $189 $189 $169 $190 forward #
face $-1 $191 $192 $5 $-1 $193 reversed single #
loop $-1 $194 $195 $141 #
cone-surface $-1 0 -82.5 0 0 -1 0 18 0 0 1 I I 0 1 forward I I I I #
point $-1 -34.49705963890260563 50.28620960332958134 -22.5 #
vertex $-1 $150 $196 #
ellipse-curve $-1 0 0 -22.5 0 0 1 0 76.77076266392043635 0 1 I I #
loop $-1 $197 $198 $114 #
coedge $-1 $178 $178 $199 $200 0 $151 $-1 #
face $-1 $201 $202 $5 $-1 $203 reversed single #
loop $-1 $204 $199 $153 #
cone-surface $-1 -80 0 0 -1 0 0 0 0 10 1 I I 0 1 forward I I I I #
coedge $-1 $182 $182 $205 $206 1 $155 $-1 #
ellipse-curve $-1 8.485281374238569541 5.999999999999999112 -5.999999999999998224 -0.7071067811865475727 -0.5 0.499999999999999889 0 -45.17189391646092389 -45.171893916460931 1 I I #
point $-1 -64.56585785072479666 9.184850993605149917e-16 7.5 #
coedge $-1 $185 $185 $207 $208 1 $165 $-1 #
coedge $-1 $186 $186 $167 $187 0 $192 $-1 #
edge $-1 $209 $209 $186 $210 forward #
loop $-1 $211 $169 $212 #
vertex $-1 $170 $213 #
ellipse-curve $-1 0 75 0 0 -1 0 6 0 0 1 I I #
face $-1 $212 $214 $5 $-1 $215 reversed single #
loop $-1 $216 $186 $171 #
plane-surface $-1 0 -75 0 0 1 0 -1 0 0 forward_v I I I I #
loop $-1 $-1 $217 $141 #
coedge $-1 $195 $195 $218 $219 1 $172 $-1 #
point $-1 9.401706876447129885e-15 -76.77076266392043635 -22.5 #
loop $-1 $220 $218 $114 #
coedge $-1 $198 $198 $221 $222 0 $177 $-1 #
coedge $-1 $199 $199 $178 $200 1 $180 $-1 #
edge $-1 $223 $223 $178 $224 forward #
face $-1 $225 $226 $5 $-1 $227 reversed single #
loop $-1 $228 $205 $179 #
plane-surface $-1 -70 0 0 1 0 0 0 0 -1 forward_v I I I I #
loop $-1 $-1 $229 $153 #
coedge $-1 $205 $205 $182 $206 0 $202 $-1 #
edge $-1 $230 $230 $205 $231 forward #
coedge $-1 $207 $207 $185 $208 0 $232 $-1 #
edge $-1 $233 $233 $207 $234 forward #
vertex $-1 $187 $235 #
ellipse-curve $-1 0 -75 0 0 1 0 6 0 0 1 I I #
loop $-1 $-1 $236 $212 #
face $-1 $75 $188 $5 $-1 $237 reversed single #
point $-1 6 75 0 #
loop $-1 $238 $239 $191 #
cone-surface $-1 0 82.5 0 0 1 0 18 0 0 1 I I 0 1 forward I I I I #
loop $-1 $-1 $240 $171 #
coedge $-1 $217 $217 $240 $241 0 $194 $-1 #
coedge $-1 $218 $218 $195 $219 0 $197 $-1 #
edge $-1 $242 $242 $218 $243 forward #
loop $-1 $123 $244 $114 #
coedge $-1 $221 $221 $198 $222 1 $226 $-1 #
edge $-1 $245 $245 $198 $246 forward #
vertex $-1 $200 $247 #
ellipse-curve $-1 -79.37253933193771616 0 0 1 -0 -0 0 0 10 1 I I #
face $-1 $138 $232 $5 $-1 $248 reversed single #
loop $-1 $249 $221 $201 #
cone-surface $-1 80 0 0 1 0 0 0 0 -10 1 I I 0 1 forward I I I I #
loop $-1 $-1 $250 $179 #
coedge $-1 $229 $229 $250 $251 0 $204 $-1 #
vertex $-1 $206 $252 #
ellipse-curve $-1 -70 0 0 1 0 0 0 0 -7.5 1 I I #
loop $-1 $253 $207 $225 #
vertex $-1 $208 $254 #
ellipse-curve $-1 70 0 0 -1 0 0 0 0 7.5 1 I I #
point $-1 6 -75 0 #
coedge $-1 $236 $236 $255 $256 1 $211 $-1 #
plane-surface $-1 0 75 0 0 -1 0 -1 0 0 forward_v I I I I #
loop $-1 $-1 $255 $191 #
coedge $-1 $239 $239 $244 $257 1 $214 $-1 #
coedge $-1 $240 $240 $217 $241 1 $216 $-1 #
edge $-1 $258 $258 $240 $259 forward #
vertex $-1 $219 $260 #
ellipse-curve $-1 0 -77.94870107962030659 0 -0 1 -0 18 0 0 1 I I #
coedge $-1 $244 $244 $239 $257 0 $220 $-1 #
vertex $-1 $222 $261 #
ellipse-curve $-1 79.37253933193771616 0 0 -1 -0 -0 0 0 -10 1 I I #
point $-1 -79.37253933193771616 1.224646799147353256e-15 -10 #
plane-surface $-1 70 0 0 -1 0 0 0 0 1 forward_v I I I I #
loop $-1 $-1 $262 $201 #
coedge $-1 $250 $250 $229 $251 1 $228 $-1 #
edge $-1 $263 $263 $250 $264 forward #
point $-1 -70 0 -7.5 #
loop $-1 $-1 $265 $225 #
point $-1 70 0 7.5 #
coedge $-1 $255 $255 $236 $256 0 $238 $-1 #
edge $-1 $266 $266 $236 $267 forward #
edge $-1 $268 $268 $244 $269 forward #
vertex $-1 $241 $270 #
ellipse-curve $-1 0 -75 0 0 1 0 18 0 0 1 I I #
point $-1 -18 -77.94870107962030659 2.204364238465235822e-15 #
point $-1 79.37253933193771616 1.224646799147353256e-15 10 #
coedge $-1 $262 $262 $265 $271 0 $249 $-1 #
vertex $-1 $251 $272 #
ellipse-curve $-1 -70 0 0 1 0 0 0 0 10 1 I I #
coedge $-1 $265 $265 $262 $271 1 $253 $-1 #
vertex $-1 $256 $273 #
ellipse-curve $-1 0 75 0 0 -1 0 18 0 0 1 I I #
vertex $-1 $257 $274 #
ellipse-curve $-1 0 77.94870107962030659 0 -0 -1 -0 18 0 0 1 I I #
point $-1 18 -75 0 #
edge $-1 $275 $275 $265 $276 forward #
point $-1 -70 0 10 #
point $-1 18 75 0 #
point $-1 -18 77.94870107962030659 -2.204364238465235822e-15 #
vertex $-1 $271 $277 #
ellipse-curve $-1 70 0 0 -1 0 0 0 0 -10 1 I I #
point $-1 70 0 -10 #
End-of-ACIS-data 