700 0 2 0           
24 FBMach with ACIS - 7.0.3 13 ACIS 7.0.3 NT 24 Mon May 13 17:07:07 2002 
1 9.9999999999999995e-007 1e-010 
body $2 -1 $-1 $3 $-1 $4 #
bdycol-kcp $-1 -1 1 8 $5 $6 $7 $8 $9 $10 $11 $12 #
model_id-kcp-attrib $-1 -1 $13 $-1 $0 1 1021324026 1021324026 528678913 1 #
lump $-1 -1 $-1 $-1 $14 $0 #
transform $-1 -1 1 0 0 0 1 0 0 0 1 0 0 0 1 rotate no_reflect no_shear #
body $15 -1 $-1 $16 $-1 $17 #
body $18 -1 $-1 $19 $-1 $20 #
body $21 -1 $-1 $22 $-1 $23 #
body $24 -1 $-1 $25 $-1 $26 #
body $27 -1 $-1 $28 $-1 $29 #
body $30 -1 $-1 $31 $-1 $32 #
body $33 -1 $-1 $34 $-1 $35 #
body $36 -1 $-1 $37 $-1 $38 #
rgb_color-st-attrib $-1 -1 $-1 $2 $0 0 1 0 #
shell $-1 -1 $-1 $-1 $-1 $39 $-1 $3 #
rgb_color-st-attrib $-1 -1 $40 $-1 $5 0.5 1 1 #
lump $-1 -1 $-1 $-1 $41 $5 #
transform $-1 -1 2.7072211888315839e-016 2.707221188831581e-016 -1 0.70710678118654713 -0.70710678118654791 0 -0.70710678118654791 -0.70710678118654713 -3.8285889215894375e-016 -24.749090894919757 -24.749090894919757 70.000000000000014 1 rotate no_reflect no_shear #
rgb_color-st-attrib $-1 -1 $42 $-1 $6 0.5 1 1 #
lump $-1 -1 $-1 $-1 $43 $6 #
transform $-1 -1 -2.7072211888315824e-016 -2.7072211888315819e-016 -1 -0.70710678118654746 0.70710678118654757 0 0.70710678118654757 0.70710678118654746 -3.8285889215894375e-016 24.749090894919757 24.749090894919753 70.000000000000014 1 rotate no_reflect no_shear #
rgb_color-st-attrib $-1 -1 $44 $-1 $7 0.5 1 1 #
lump $-1 -1 $-1 $-1 $45 $7 #
transform $-1 -1 3.8285889215894375e-016 -4.6885143195523885e-032 -1 -1.2246063538223773e-016 -1 0 -1 1.2246063538223773e-016 -3.8285889215894375e-016 -35.000500000000002 4.2863654726584032e-015 70 1 rotate no_reflect no_shear #
rgb_color-st-attrib $-1 -1 $46 $-1 $8 0.5 1 1 #
lump $-1 -1 $-1 $-1 $47 $8 #
transform $-1 -1 -3.8285889215894375e-016 0 -1 0 1 0 1 0 -3.8285889215894375e-016 35.000500000000002 0 70 1 rotate no_reflect no_shear #
model_id-kcp-attrib $-1 -1 $-1 $-1 $9 1 1021324026 1021324026 528678914 1 #
lump $-1 -1 $-1 $-1 $48 $9 #
transform $-1 -1 1 0 0 0 1 0 0 0 1 0 0 55 1 no_rotate no_reflect no_shear #
model_id-kcp-attrib $-1 -1 $49 $-1 $10 1 1021324026 1021324026 534773768 1 #
lump $-1 -1 $-1 $-1 $50 $10 #
transform $-1 -1 1 0 0 0 1 0 0 0 1 0 0 55 1 no_rotate no_reflect no_shear #
rgb_color-st-attrib $-1 -1 $51 $-1 $11 0.5 1 1 #
lump $-1 -1 $-1 $-1 $52 $11 #
transform $-1 -1 1 0 0 0 1 0 0 0 1 0 0 55 1 no_rotate no_reflect no_shear #
model_id-kcp-attrib $-1 -1 $53 $-1 $12 1 1021324026 1021324027 523501577 1 #
lump $-1 -1 $-1 $-1 $54 $12 #
transform $-1 -1 1 0 0 0 1 0 0 0 1 0 0 55 1 no_rotate no_reflect no_shear #
face $55 -1 $-1 $56 $57 $14 $-1 $58 reversed single #
model_id-kcp-attrib $-1 -1 $-1 $15 $5 1 1021324026 1021324026 522649603 1 #
shell $-1 -1 $-1 $-1 $-1 $59 $-1 $16 #
model_id-kcp-attrib $-1 -1 $-1 $18 $6 1 1021324026 1021324026 522649604 1 #
shell $-1 -1 $-1 $-1 $-1 $60 $-1 $19 #
model_id-kcp-attrib $-1 -1 $-1 $21 $7 1 1021324026 1021324026 523304965 1 #
shell $-1 -1 $-1 $-1 $-1 $61 $-1 $22 #
model_id-kcp-attrib $-1 -1 $-1 $24 $8 1 1021324026 1021324026 523304966 1 #
shell $-1 -1 $-1 $-1 $-1 $62 $-1 $25 #
shell $-1 -1 $-1 $-1 $-1 $63 $-1 $28 #
rgb_color-st-attrib $-1 -1 $-1 $30 $10 1 0.5 1 #
shell $-1 -1 $-1 $-1 $-1 $64 $-1 $31 #
model_id-kcp-attrib $-1 -1 $-1 $33 $11 1 1021324026 1021324026 535166983 1 #
shell $-1 -1 $-1 $-1 $-1 $65 $-1 $34 #
rgb_color-st-attrib $-1 -1 $-1 $36 $12 1 0.5 1 #
shell $-1 -1 $-1 $-1 $-1 $66 $-1 $37 #
model_id-kcp-attrib $-1 -1 $-1 $-1 $39 1 1021324026 1021324026 528678913 2 #
face $67 -1 $-1 $68 $69 $14 $-1 $70 reversed single #
loop $-1 -1 $-1 $71 $72 $39 #
cone-surface $-1 -1 $-1 -31.819805153394647 -31.819805153394636 70 -0.70710678118654768 -0.70710678118654746 0 0 0 -4 1 I I 0 1 4 forward I I I I #
face $-1 -1 $-1 $73 $74 $41 $-1 $75 forward single #
face $-1 -1 $-1 $76 $77 $43 $-1 $78 forward single #
face $-1 -1 $-1 $79 $80 $45 $-1 $81 forward single #
face $-1 -1 $-1 $82 $83 $47 $-1 $84 forward single #
face $85 -1 $-1 $86 $87 $48 $-1 $88 forward single #
face $-1 -1 $-1 $89 $90 $50 $-1 $91 forward single #
face $-1 -1 $-1 $92 $93 $52 $-1 $94 reversed single #
face $-1 -1 $-1 $95 $96 $54 $-1 $97 forward single #
model_id-kcp-attrib $-1 -1 $-1 $-1 $56 1 1021324026 1021324026 528678913 3 #
face $98 -1 $-1 $99 $100 $14 $-1 $101 reversed single #
loop $-1 -1 $-1 $-1 $102 $56 #
plane-surface $-1 -1 $-1 -21.213203435596434 -21.213203435596427 70 0.70710678118654768 0.70710678118654746 0 0 0 1 forward_v I I I I #
loop $-1 -1 $-1 $-1 $103 $39 #
coedge $-1 -1 $-1 $72 $72 $104 $105 reversed $57 $-1 #
face $-1 -1 $-1 $106 $107 $41 $-1 $108 forward single #
loop $-1 -1 $-1 $109 $110 $59 #
cone-surface $-1 -1 $-1 0 0 0 0 0 1 4 0 0 1 I I 0 1 4 forward I I I I #
face $-1 -1 $-1 $111 $112 $43 $-1 $113 forward single #
loop $-1 -1 $-1 $114 $115 $60 #
cone-surface $-1 -1 $-1 0 0 0 0 0 1 4 0 0 1 I I 0 1 4 forward I I I I #
face $-1 -1 $-1 $116 $117 $45 $-1 $118 forward single #
loop $-1 -1 $-1 $119 $120 $61 #
cone-surface $-1 -1 $-1 0 0 0 0 0 1 4 0 0 1 I I 0 1 4 forward I I I I #
face $-1 -1 $-1 $121 $122 $47 $-1 $123 forward single #
loop $-1 -1 $-1 $124 $125 $62 #
cone-surface $-1 -1 $-1 0 0 0 0 0 1 4 0 0 1 I I 0 1 4 forward I I I I #
model_id-kcp-attrib $-1 -1 $-1 $-1 $63 1 1021324026 1021324026 528678914 2 #
face $126 -1 $-1 $127 $128 $48 $-1 $129 reversed single #
loop $-1 -1 $-1 $-1 $130 $63 #
plane-surface $-1 -1 $-1 0 0 55 0 0 1 1 0 0 forward_v I I I I #
face $-1 -1 $-1 $131 $132 $50 $-1 $133 forward single #
loop $-1 -1 $-1 $134 $135 $64 #
cone-surface $-1 -1 $-1 0 0 -5 0 0 -1 30 0 0 1 I I 0 -1 30 forward I I I I #
face $-1 -1 $-1 $136 $137 $52 $-1 $94 reversed single #
loop $-1 -1 $-1 $-1 $138 $65 #
cone-surface $-1 -1 $-1 0 -4.8849813083506888e-015 55 0 0 1 39.799497484264798 4.0000000000000053 0 1 I I 0 1 40 forward I I I I #
face $-1 -1 $-1 $139 $140 $54 $-1 $141 forward single #
loop $-1 -1 $-1 $142 $143 $66 #
cone-surface $-1 -1 $-1 0 0 -45 0 0 -1 10 0 0 1 I I 0 -1 10 forward I I I I #
model_id-kcp-attrib $-1 -1 $-1 $-1 $68 1 1021324026 1021324026 528678913 4 #
face $144 -1 $-1 $145 $146 $14 $-1 $147 reversed single #
loop $-1 -1 $-1 $148 $149 $68 #
cone-surface $-1 -1 $-1 -45 5.5109105961630896e-015 70 -1 1.2246467991473532e-016 0 0 0 -4 1 I I 0 1 4 forward I I I I #
coedge $-1 -1 $-1 $102 $102 $103 $150 reversed $69 $-1 #
coedge $-1 -1 $-1 $103 $103 $102 $150 forward $71 $-1 #
coedge $-1 -1 $-1 $104 $104 $72 $105 forward $151 $-1 #
edge $152 -1 $-1 $153 0 $153 24.125259551601495 $104 $154 forward @7 unknown #
face $-1 -1 $-1 $-1 $155 $41 $-1 $156 forward single #
loop $-1 -1 $-1 $-1 $157 $73 #
plane-surface $-1 -1 $-1 0 0 -5.0004999999999988 0 0 -1 -1 0 0 forward_v I I I I #
loop $-1 -1 $-1 $-1 $158 $59 #
coedge $-1 -1 $-1 $110 $110 $157 $159 reversed $74 $-1 #
face $-1 -1 $-1 $-1 $160 $43 $-1 $161 forward single #
loop $-1 -1 $-1 $-1 $162 $76 #
plane-surface $-1 -1 $-1 0 0 -5.0004999999999971 0 0 -1 -1 0 0 forward_v I I I I #
loop $-1 -1 $-1 $-1 $163 $60 #
coedge $-1 -1 $-1 $115 $115 $162 $164 reversed $77 $-1 #
face $-1 -1 $-1 $-1 $165 $45 $-1 $166 forward single #
loop $-1 -1 $-1 $-1 $167 $79 #
plane-surface $-1 -1 $-1 0 0 -5.0004999999999988 0 0 -1 -1 0 0 forward_v I I I I #
loop $-1 -1 $-1 $-1 $168 $61 #
coedge $-1 -1 $-1 $120 $120 $167 $169 reversed $80 $-1 #
face $-1 -1 $-1 $-1 $170 $47 $-1 $171 forward single #
loop $-1 -1 $-1 $-1 $172 $82 #
plane-surface $-1 -1 $-1 0 0 -5.0004999999999988 0 0 -1 -1 0 0 forward_v I I I I #
loop $-1 -1 $-1 $-1 $173 $62 #
coedge $-1 -1 $-1 $125 $125 $172 $174 reversed $83 $-1 #
model_id-kcp-attrib $-1 -1 $-1 $-1 $86 1 1021324026 1021324026 528678914 3 #
face $-1 -1 $-1 $175 $176 $48 $-1 $177 reversed single #
loop $-1 -1 $-1 $-1 $178 $86 #
plane-surface $-1 -1 $-1 0 0 -55 0 0 1 1 0 0 forward_v I I I I #
coedge $-1 -1 $-1 $179 $180 $181 $182 forward $87 $-1 #
face $-1 -1 $-1 $183 $184 $50 $-1 $185 reversed single #
loop $-1 -1 $-1 $186 $187 $89 #
cone-surface $-1 -1 $-1 0 -4.8849813083506888e-015 -5 0 0 -1 39.799497484264798 4.0000000000000053 0 1 I I 0 1 40 forward I I I I #
loop $-1 -1 $-1 $-1 $188 $64 #
coedge $-1 -1 $-1 $135 $135 $189 $190 forward $90 $-1 #
face $-1 -1 $-1 $191 $192 $52 $-1 $193 reversed single #
loop $-1 -1 $-1 $-1 $194 $92 #
coedge $-1 -1 $-1 $195 $196 $197 $198 reversed $93 $-1 #
face $-1 -1 $-1 $199 $200 $54 $-1 $201 reversed single #
loop $-1 -1 $-1 $202 $203 $95 #
cone-surface $-1 -1 $-1 0 -4.8849813083506888e-015 -45 0 0 -1 39.799497484264798 4.0000000000000053 0 1 I I 0 1 40 forward I I I I #
loop $-1 -1 $-1 $-1 $204 $66 #
coedge $-1 -1 $-1 $143 $143 $205 $206 forward $96 $-1 #
model_id-kcp-attrib $-1 -1 $-1 $-1 $99 1 1021324026 1021324026 528678913 5 #
face $207 -1 $-1 $208 $209 $14 $-1 $210 reversed single #
loop $-1 -1 $-1 $-1 $211 $99 #
plane-surface $-1 -1 $-1 -30 3.6739403974420592e-015 70 1 -1.2246467991473532e-016 0 0 0 1 forward_v I I I I #
loop $-1 -1 $-1 $-1 $212 $68 #
coedge $-1 -1 $-1 $149 $149 $213 $214 reversed $100 $-1 #
edge $215 -1 $-1 $216 0 $216 6.2831853071795862 $102 $217 forward @7 unknown #
loop $-1 -1 $-1 $218 $104 $219 #
attrib_edge_convexity-kcp-attrib $-1 -1 $220 $-1 $105 1 #
vertex $-1 -1 $-1 $105 $221 #
intcurve-curve $-1 -1 $-1 forward { surfintcur full nubs 3 periodic 33 
	0 3 0.7539156440605963 2 1.5078312881211926 2 2.2617469321817891 2 3.0156625762423852 2 
	3.7695756541568834 2 4.5234887320713817 2 5.2774018099858795 2 6.0313148879003773 2 6.7852279658148742 2 
	7.539141043729372 2 8.2930541216438698 2 9.0469671995583667 2 9.8008828436189628 2 10.554798487679559 2 
	11.308714131740157 2 12.062629775800753 2 12.816545419861349 2 13.570461063921943 2 14.324376707982537 2 
	15.078292352043132 2 15.83220542995763 2 16.586118507872129 2 17.340031585786626 2 18.093944663701123 2 
	18.84785774161562 2 19.60177081953012 2 20.355683897444621 2 21.109596975359118 2 21.863512619419712 2 
	22.617428263480306 2 23.371343907540901 2 24.125259551601495 3 
	-25.314067434194392 -30.970921683686761 70 
	-25.314067434194392 -30.970921683686761 69.748694785313134 
	-25.332811545702953 -30.95563357464345 69.488859728380319 
	-25.411511579715285 -30.891061329313573 68.972091719574451 
	-25.471447004869731 -30.841788169429542 68.715154274828777 
	-25.629203440320332 -30.710819606996136 68.222445690392149 
	-25.727137588883739 -30.629007496340179 67.986278953336978 
	-25.952078499604379 -30.43864862766176 67.54957534454033 
	-26.079080802012022 -30.330070900318269 67.34904967577684 
	-26.347862659216609 -30.09687341521979 66.994096678818778 
	-26.49885882976303 -29.964283859206297 66.827516507259531 
	-26.824913330501733 -29.672745934372234 66.533854942527512 
	-26.999946253717575 -29.513787998450113 66.406754838651807 
	-27.361690926181517 -29.178736253970762 66.202595082868527 
	-27.548681001656497 -29.002361319521281 66.125372927724129 
	-27.921122331711388 -28.643982173865094 66.024064260227732 
	-28.106572230855722 -28.461970264068082 66 
	-28.461970264068096 -28.106572230855708 66 
	-28.643982173865101 -27.921122331711381 66.024064260227746 
	-29.002361319521285 -27.54868100165649 66.125372927724115 
	-29.178736253970769 -27.361690926181506 66.202595082868513 
	-29.513787998450116 -26.999946253717564 66.406754838651807 
	-29.672745934372237 -26.824913330501719 66.533854942527512 
	-29.964283859206304 -26.498858829763016 66.827516507259531 
	-30.096873415219804 -26.347862659216595 66.994096678818778 
	-30.330070900318283 -26.079080802012005 67.34904967577684 
	-30.438648627661763 -25.952078499604372 67.54957534454033 
	-30.629007496340179 -25.727137588883732 67.986278953336978 
	-30.710819606996139 -25.629203440320325 68.222445690392149 
	-30.841788169429549 -25.471447004869717 68.715154274828762 
	-30.891061329313587 -25.411511579715274 68.972091719574479 
	-30.955633574643461 -25.332811545702942 69.488859728380348 
	-30.970921683686775 -25.314067434194378 69.748694785313134 
	-30.970921683686775 -25.314067434194378 70.251305214686866 
	-30.955633574643461 -25.332811545702942 70.511140271619652 
	-30.89106132931359 -25.41151157971527 71.027908280425507 
	-30.841788169429549 -25.471447004869702 71.284845725171195 
	-30.710819606996147 -25.629203440320303 71.777554309607822 
	-30.62900749634019 -25.727137588883725 72.013721046663008 
	-30.438648627661767 -25.952078499604365 72.450424655459656 
	-30.330070900318283 -26.079080802012008 72.650950324223146 
	-30.096873415219804 -26.347862659216595 73.005903321181222 
	-29.964283859206297 -26.498858829763016 73.172483492740469 
	-29.672745934372234 -26.824913330501719 73.466145057472488 
	-29.513787998450127 -26.99994625371756 73.593245161348207 
	-29.178736253970779 -27.361690926181506 73.797404917131487 
	-29.002361319521292 -27.54868100165648 73.874627072275899 
	-28.643982173865105 -27.92112233171137 73.975935739772268 
	-28.461970264068096 -28.106572230855708 74 
	-28.106572230855722 -28.461970264068079 74 
	-27.921122331711388 -28.643982173865094 73.975935739772268 
	-27.548681001656497 -29.002361319521281 73.874627072275899 
	-27.361690926181517 -29.178736253970762 73.797404917131487 
	-26.999946253717571 -29.513787998450113 73.593245161348207 
	-26.824913330501733 -29.67274593437223 73.466145057472488 
	-26.49885882976303 -29.964283859206294 73.172483492740469 
	-26.347862659216609 -30.09687341521979 73.005903321181222 
	-26.079080802012022 -30.330070900318269 72.650950324223146 
	-25.952078499604376 -30.43864862766176 72.450424655459656 
	-25.727137588883739 -30.629007496340172 72.013721046663036 
	-25.629203440320335 -30.710819606996132 71.777554309607865 
	-25.471447004869727 -30.841788169429535 71.284845725171238 
	-25.411511579715285 -30.891061329313565 71.027908280425564 
	-25.332811545702949 -30.955633574643443 70.511140271619695 
	-25.314067434194392 -30.970921683686761 70.251305214686866 
	-25.314067434194392 -30.970921683686761 70 
	0.001 
	cone -31.819805153394647 -31.819805153394636 70 -0.70710678118654768 -0.70710678118654746 0 0 0 -4 1 I I 0 1 4 forward I I I I 
	cone 0 0 70 0 0 1 40 0 0 1 I I 0 1 40 forward I I I I 
	nullbs 
	nullbs 
	I I 
	0 
	0 
	0 
	} I I #
loop $-1 -1 $-1 $-1 $222 $106 #
plane-surface $-1 -1 $-1 0 0 5.0004999999999988 0 0 1 1 0 0 forward_v I I I I #
coedge $-1 -1 $-1 $157 $157 $110 $159 forward $107 $-1 #
coedge $-1 -1 $-1 $158 $158 $222 $223 reversed $109 $-1 #
edge $-1 -1 $-1 $224 0 $224 6.2831853071795862 $157 $225 forward @7 unknown #
loop $-1 -1 $-1 $-1 $226 $111 #
plane-surface $-1 -1 $-1 0 0 5.0004999999999971 0 0 1 1 0 0 forward_v I I I I #
coedge $-1 -1 $-1 $162 $162 $115 $164 forward $112 $-1 #
coedge $-1 -1 $-1 $163 $163 $226 $227 reversed $114 $-1 #
edge $-1 -1 $-1 $228 0 $228 6.2831853071795862 $162 $229 forward @7 unknown #
loop $-1 -1 $-1 $-1 $230 $116 #
plane-surface $-1 -1 $-1 0 0 5.0004999999999988 0 0 1 1 0 0 forward_v I I I I #
coedge $-1 -1 $-1 $167 $167 $120 $169 forward $117 $-1 #
coedge $-1 -1 $-1 $168 $168 $230 $231 reversed $119 $-1 #
edge $-1 -1 $-1 $232 0 $232 6.2831853071795862 $167 $233 forward @7 unknown #
loop $-1 -1 $-1 $-1 $234 $121 #
plane-surface $-1 -1 $-1 0 0 5.0004999999999988 0 0 1 1 0 0 forward_v I I I I #
coedge $-1 -1 $-1 $172 $172 $125 $174 forward $122 $-1 #
coedge $-1 -1 $-1 $173 $173 $234 $235 reversed $124 $-1 #
edge $-1 -1 $-1 $236 0 $236 6.2831853071795862 $172 $237 forward @7 unknown #
face $-1 -1 $-1 $238 $239 $48 $-1 $240 reversed single #
loop $-1 -1 $-1 $-1 $241 $127 #
plane-surface $-1 -1 $-1 0 -40 0 0 1 0 0 0 1 forward_v I I I I #
coedge $-1 -1 $-1 $242 $243 $244 $245 forward $128 $-1 #
coedge $-1 -1 $-1 $246 $130 $247 $248 forward $87 $-1 #
coedge $-1 -1 $-1 $130 $246 $249 $250 forward $87 $-1 #
coedge $-1 -1 $-1 $251 $252 $130 $182 reversed $253 $-1 #
edge $-1 -1 $-1 $254 -40 $255 40 $181 $256 forward @7 unknown #
face $-1 -1 $-1 $-1 $257 $50 $-1 $258 forward single #
loop $-1 -1 $-1 $259 $260 $131 #
plane-surface $-1 -1 $-1 -0.89867519398778106 -0.20779220779220903 -45 0 0 1 1 0 0 forward_v I I I I #
loop $-1 -1 $-1 $-1 $261 $89 #
coedge $-1 -1 $-1 $187 $187 $260 $262 forward $132 $-1 #
coedge $-1 -1 $-1 $188 $188 $263 $264 reversed $134 $-1 #
coedge $-1 -1 $-1 $189 $189 $135 $190 reversed $259 $-1 #
edge $-1 -1 $-1 $265 0 $265 6.2831853071795862 $135 $266 forward @7 unknown #
face $-1 -1 $-1 $267 $268 $52 $-1 $269 forward single #
loop $-1 -1 $-1 $-1 $270 $136 #
plane-surface $-1 -1 $-1 0 -40 0 0 1 0 0 0 1 forward_v I I I I #
coedge $-1 -1 $-1 $271 $272 $273 $274 reversed $137 $-1 #
coedge $-1 -1 $-1 $275 $138 $272 $276 forward $93 $-1 #
coedge $-1 -1 $-1 $138 $275 $277 $278 reversed $93 $-1 #
coedge $-1 -1 $-1 $279 $280 $138 $198 forward $281 $-1 #
edge $-1 -1 $-1 $282 1.4706289056333366 $283 4.6122215592231299 $197 $284 forward @7 unknown #
face $-1 -1 $-1 $-1 $285 $54 $-1 $286 forward single #
loop $-1 -1 $-1 $287 $288 $139 #
plane-surface $-1 -1 $-1 -2.7126907261283479 -0.29090909090909345 -55 0 0 1 1 0 0 forward_v I I I I #
loop $-1 -1 $-1 $-1 $289 $95 #
coedge $-1 -1 $-1 $203 $203 $288 $290 forward $140 $-1 #
coedge $-1 -1 $-1 $204 $204 $291 $292 reversed $142 $-1 #
coedge $-1 -1 $-1 $205 $205 $143 $206 reversed $287 $-1 #
edge $-1 -1 $-1 $293 0 $293 6.2831853071795862 $143 $294 forward @7 unknown #
model_id-kcp-attrib $-1 -1 $-1 $-1 $145 1 1021324026 1021324026 528678913 6 #
face $295 -1 $-1 $296 $297 $14 $-1 $298 reversed single #
loop $-1 -1 $-1 $299 $300 $145 #
cone-surface $-1 -1 $-1 31.81980515339464 31.819805153394636 70 0.70710678118654757 0.70710678118654746 0 0 0 -4 1 I I 0 1 4 forward I I I I #
coedge $-1 -1 $-1 $211 $211 $212 $301 reversed $146 $-1 #
coedge $-1 -1 $-1 $212 $212 $211 $301 forward $148 $-1 #
coedge $-1 -1 $-1 $213 $213 $149 $214 forward $218 $-1 #
edge $302 -1 $-1 $303 0 $303 24.125259551601488 $213 $304 forward @7 unknown #
attrib_edge_convexity-kcp-attrib $-1 -1 $305 $-1 $150 2 #
vertex $-1 -1 $-1 $150 $306 #
ellipse-curve $-1 -1 $-1 -21.213203435596434 -21.213203435596427 70 0.70710678118654768 0.70710678118654746 0 0 0 -4 1 I I #
loop $-1 -1 $-1 $307 $213 $219 #
face $308 -1 $-1 $309 $151 $14 $-1 $310 forward single #
convexity-sys-attrib $-1 -1 $-1 $152 $105 #
point $-1 -1 $-1 -25.314067434194392 -30.970921683686761 70 #
coedge $-1 -1 $-1 $222 $222 $158 $223 forward $155 $-1 #
edge $-1 -1 $-1 $311 0 $311 6.2831853071795862 $222 $312 forward @7 unknown #
vertex $-1 -1 $-1 $159 $313 #
ellipse-curve $-1 -1 $-1 0 0 -5.0004999999999988 0 0 -1 4 0 0 1 I I #
coedge $-1 -1 $-1 $226 $226 $163 $227 forward $160 $-1 #
edge $-1 -1 $-1 $314 0 $314 6.2831853071795862 $226 $315 forward @7 unknown #
vertex $-1 -1 $-1 $164 $316 #
ellipse-curve $-1 -1 $-1 0 0 -5.0004999999999971 0 0 -1 4 0 0 1 I I #
coedge $-1 -1 $-1 $230 $230 $168 $231 forward $165 $-1 #
edge $-1 -1 $-1 $317 0 $317 6.2831853071795862 $230 $318 forward @7 unknown #
vertex $-1 -1 $-1 $169 $319 #
ellipse-curve $-1 -1 $-1 0 0 -5.0004999999999988 0 0 -1 4 0 0 1 I I #
coedge $-1 -1 $-1 $234 $234 $173 $235 forward $170 $-1 #
edge $-1 -1 $-1 $320 0 $320 6.2831853071795862 $234 $321 forward @7 unknown #
vertex $-1 -1 $-1 $174 $322 #
ellipse-curve $-1 -1 $-1 0 0 -5.0004999999999988 0 0 -1 4 0 0 1 I I #
face $-1 -1 $-1 $323 $324 $48 $-1 $325 reversed single #
loop $-1 -1 $-1 $-1 $326 $175 #
plane-surface $-1 -1 $-1 -40.000999999999998 0 0 1 0 0 0 0 -1 forward_v I I I I #
coedge $-1 -1 $-1 $327 $249 $328 $329 forward $176 $-1 #
coedge $-1 -1 $-1 $330 $178 $327 $331 forward $128 $-1 #
coedge $-1 -1 $-1 $178 $330 $332 $333 forward $128 $-1 #
coedge $-1 -1 $-1 $252 $251 $178 $245 reversed $253 $-1 #
edge $-1 -1 $-1 $334 -40 $335 40 $244 $336 forward @7 unknown #
coedge $-1 -1 $-1 $180 $179 $337 $338 forward $87 $-1 #
coedge $-1 -1 $-1 $339 $340 $179 $248 reversed $324 $-1 #
edge $-1 -1 $-1 $255 -40.000999999999998 $341 40.000999999999998 $247 $342 forward @7 unknown #
coedge $-1 -1 $-1 $241 $343 $180 $250 reversed $176 $-1 #
edge $-1 -1 $-1 $344 -40.000999999999998 $254 40.000999999999998 $249 $345 forward @7 unknown #
coedge $-1 -1 $-1 $244 $181 $343 $346 forward $253 $-1 #
coedge $-1 -1 $-1 $181 $244 $339 $347 reversed $253 $-1 #
loop $-1 -1 $-1 $-1 $251 $323 #
vertex $-1 -1 $-1 $182 $348 #
vertex $-1 -1 $-1 $182 $349 #
straight-curve $-1 -1 $-1 40.000999999999998 0 55 0 1 0 I I #
loop $-1 -1 $-1 $350 $351 $183 #
plane-surface $-1 -1 $-1 -0.89867519398778106 -0.20779220779220903 -5 0 0 1 1 0 0 forward_v I I I I #
loop $-1 -1 $-1 $-1 $189 $131 #
coedge $-1 -1 $-1 $260 $260 $187 $262 reversed $184 $-1 #
coedge $-1 -1 $-1 $261 $261 $351 $352 reversed $186 $-1 #
edge $-1 -1 $-1 $353 -3.1415926535897931 $353 3.1415926535897931 $187 $354 forward @7 unknown #
coedge $-1 -1 $-1 $263 $263 $188 $264 forward $350 $-1 #
edge $355 -1 $-1 $356 0 $356 6.2831853071795862 $188 $357 forward @7 unknown #
vertex $-1 -1 $-1 $190 $358 #
ellipse-curve $-1 -1 $-1 0 0 -45 0 0 -1 30 0 0 1 I I #
face $-1 -1 $-1 $359 $360 $52 $-1 $269 forward single #
loop $-1 -1 $-1 $-1 $361 $191 #
plane-surface $-1 -1 $-1 0 0 55 0 0 1 1 0 0 forward_v I I I I #
coedge $-1 -1 $-1 $362 $363 $271 $278 reversed $192 $-1 #
coedge $-1 -1 $-1 $364 $194 $196 $278 forward $137 $-1 #
coedge $-1 -1 $-1 $194 $364 $365 $276 reversed $137 $-1 #
coedge $-1 -1 $-1 $366 $367 $194 $274 forward $368 $-1 #
edge $-1 -1 $-1 $283 -1.6709637479564565 $282 1.4706289056333366 $273 $284 forward @7 unknown #
coedge $-1 -1 $-1 $196 $195 $369 $370 reversed $93 $-1 #
edge $-1 -1 $-1 $282 -110 $371 0 $365 $372 forward @7 unknown #
coedge $-1 -1 $-1 $373 $374 $270 $278 forward $375 $-1 #
edge $-1 -1 $-1 $283 -110 $376 0 $277 $377 forward @7 unknown #
coedge $-1 -1 $-1 $378 $197 $374 $379 forward $281 $-1 #
coedge $-1 -1 $-1 $197 $378 $380 $381 forward $281 $-1 #
loop $-1 -1 $-1 $-1 $197 $382 #
vertex $-1 -1 $-1 $383 $384 #
vertex $-1 -1 $-1 $379 $385 #
ellipse-curve $-1 -1 $-1 0 -4.8849813083506888e-015 -55 0 0 1 39.799497484264798 4.0000000000000053 0 1 I I #
loop $-1 -1 $-1 $386 $387 $199 #
plane-surface $-1 -1 $-1 -2.7126907261283479 -0.29090909090909345 -45 0 0 1 1 0 0 forward_v I I I I #
loop $-1 -1 $-1 $-1 $205 $139 #
coedge $-1 -1 $-1 $288 $288 $203 $290 reversed $200 $-1 #
coedge $-1 -1 $-1 $289 $289 $387 $388 reversed $202 $-1 #
edge $-1 -1 $-1 $389 -3.1415926535897931 $389 3.1415926535897931 $203 $390 forward @7 unknown #
coedge $-1 -1 $-1 $291 $291 $204 $292 forward $386 $-1 #
edge $391 -1 $-1 $392 0 $392 6.2831853071795862 $204 $393 forward @7 unknown #
vertex $-1 -1 $-1 $206 $394 #
ellipse-curve $-1 -1 $-1 0 0 -55 0 0 -1 10 0 0 1 I I #
model_id-kcp-attrib $-1 -1 $-1 $-1 $208 1 1021324026 1021324026 528678913 7 #
face $395 -1 $-1 $396 $397 $14 $-1 $398 reversed single #
loop $-1 -1 $-1 $-1 $399 $208 #
plane-surface $-1 -1 $-1 21.213203435596427 21.213203435596427 70 -0.70710678118654757 -0.70710678118654746 0 0 0 1 forward_v I I I I #
loop $-1 -1 $-1 $-1 $400 $145 #
coedge $-1 -1 $-1 $300 $300 $401 $402 reversed $209 $-1 #
edge $403 -1 $-1 $404 0 $404 6.2831853071795862 $211 $405 forward @7 unknown #
attrib_edge_convexity-kcp-attrib $-1 -1 $406 $-1 $214 1 #
vertex $-1 -1 $-1 $214 $407 #
intcurve-curve $-1 -1 $-1 forward { surfintcur full nubs 3 periodic 33 
	0 3 0.75391564406059652 2 1.507831288121193 2 2.2617469321817896 2 3.0156625762423861 2 
	3.769575654156883 2 4.5234887320713799 2 5.2774018099858768 2 6.0313148879003737 2 6.7852279658148706 2 
	7.5391410437293676 2 8.2930541216438645 2 9.0469671995583614 2 9.8008828436189575 2 10.554798487679555 2 
	11.308714131740151 2 12.062629775800747 2 12.816545419861342 2 13.570461063921936 2 14.32437670798253 2 
	15.078292352043126 2 15.832205429957625 2 16.586118507872122 2 17.340031585786619 2 18.093944663701119 2 
	18.84785774161562 2 19.601770819530117 2 20.355683897444614 2 21.109596975359111 2 21.863512619419705 2 
	22.617428263480299 2 23.371343907540894 2 24.125259551601488 3 
	-39.799497484264798 -3.9999999999999951 70 
	-39.799497484264798 -3.9999999999999951 69.748694785313134 
	-39.801941247043779 -3.9759355860689296 69.488859728380319 
	-39.811931102224314 -3.8746267857900007 68.972091719574451 
	-39.819470462299819 -3.797404654745506 68.715154274828777 
	-39.838412348963843 -3.5932452508436512 68.222445690392149 
	-39.849812351294759 -3.4661454520567192 67.986278953336978 
	-39.87426554773009 -3.1724841618183652 67.54957534454033 
	-39.887293689698424 -3.0059039252692212 67.34904967577684 
	-39.912455640518921 -2.6509509283111568 66.994096678818778 
	-39.925471082473841 -2.4504255380129254 66.827516507259531 
	-39.949877987359351 -2.0137217458809737 66.533854942527512 
	-39.961244719882231 -1.7775545445302003 66.406754838651807 
	-39.980119470269869 -1.28484507300311 66.202595082868527 
	-39.987625508472242 -1.0279072104396079 66.125372927724129 
	-39.997568974418861 -0.51113909623432918 66.024064260227732 
	-40 -0.25130435930482742 66 
	-40 0.25130435930483719 66 
	-39.997568974418861 0.51113909623433895 66.024064260227732 
	-39.987625508472242 1.0279072104396176 66.125372927724129 
	-39.980119470269869 1.2848450730031198 66.202595082868527 
	-39.961244719882231 1.7775545445302101 66.406754838651807 
	-39.949877987359351 2.0137217458809835 66.533854942527512 
	-39.925471082473841 2.4504255380129352 66.827516507259531 
	-39.912455640518921 2.6509509283111665 66.994096678818778 
	-39.887293689698424 3.0059039252692306 67.349049675776854 
	-39.87426554773009 3.1724841618183839 67.549575344540344 
	-39.849812351294759 3.466145452056733 67.986278953336978 
	-39.838412348963843 3.593245250843657 68.222445690392149 
	-39.819470462299819 3.7974046547455127 68.715154274828762 
	-39.811931102224314 3.874626785790011 68.972091719574451 
	-39.801941247043779 3.9759355860689416 69.488859728380334 
	-39.799497484264798 4.0000000000000044 69.748694785313134 
	-39.799497484264791 4.0000000000000036 70.251305214686866 
	-39.801941247043771 3.975935586068942 70.511140271619666 
	-39.811931102224307 3.8746267857900132 71.027908280425535 
	-39.819470462299819 3.7974046547455211 71.284845725171209 
	-39.838412348963843 3.5932452508436681 71.777554309607837 
	-39.849812351294759 3.4661454520567379 72.013721046663036 
	-39.87426554773009 3.1724841618183834 72.450424655459656 
	-39.887293689698424 3.005903925269231 72.650950324223146 
	-39.912455640518921 2.6509509283111665 73.005903321181208 
	-39.925471082473841 2.4504255380129392 73.172483492740454 
	-39.949877987359351 2.0137217458809937 73.466145057472474 
	-39.961244719882217 1.777554544530217 73.593245161348207 
	-39.980119470269848 1.2848450730031264 73.797404917131487 
	-39.987625508472235 1.0279072104396221 73.874627072275899 
	-39.997568974418854 0.51113909623434095 73.975935739772268 
	-40 0.25130435930483869 74 
	-40 -0.25130435930482814 74 
	-39.997568974418861 -0.5111390962343294 73.975935739772268 
	-39.987625508472242 -1.0279072104396088 73.874627072275899 
	-39.980119470269869 -1.2848450730031122 73.797404917131487 
	-39.961244719882231 -1.777554544530203 73.593245161348207 
	-39.949877987359351 -2.0137217458809826 73.466145057472474 
	-39.925471082473841 -2.4504255380129298 73.172483492740454 
	-39.912455640518921 -2.6509509283111568 73.005903321181208 
	-39.887293689698424 -3.0059039252692203 72.650950324223146 
	-39.87426554773009 -3.1724841618183728 72.450424655459656 
	-39.849812351294759 -3.4661454520567263 72.013721046663036 
	-39.838412348963843 -3.5932452508436517 71.777554309607837 
	-39.819470462299819 -3.7974046547455065 71.284845725171238 
	-39.811931102224314 -3.8746267857900007 71.027908280425549 
	-39.801941247043779 -3.9759355860689296 70.511140271619681 
	-39.799497484264798 -3.9999999999999951 70.251305214686866 
	-39.799497484264798 -3.9999999999999951 70 
	0.001 
	cone -45 5.5109105961630896e-015 70 -1 1.2246467991473532e-016 0 0 0 -4 1 I I 0 1 4 forward I I I I 
	cone 0 0 70 0 0 1 40 0 0 1 I I 0 1 40 forward I I I I 
	nullbs 
	nullbs 
	I I 
	0 
	0 
	0 
	} I I #
convexity-sys-attrib $-1 -1 $-1 $215 $150 #
point $-1 -1 $-1 -21.213203435596434 -21.213203435596427 66 #
loop $-1 -1 $-1 $408 $401 $219 #
model_id-kcp-attrib $-1 -1 $-1 $-1 $219 1 1021324026 1021324026 528678913 14 #
face $409 -1 $-1 $410 $411 $14 $-1 $412 forward single #
cone-surface $-1 -1 $-1 0 0 70 0 0 1 40 0 0 1 I I 0 1 40 forward I I I I #
vertex $-1 -1 $-1 $223 $413 #
ellipse-curve $-1 -1 $-1 0 0 5.0004999999999988 0 0 1 4 0 0 1 I I #
point $-1 -1 $-1 4 0 -5.0004999999999988 #
vertex $-1 -1 $-1 $227 $414 #
ellipse-curve $-1 -1 $-1 0 0 5.0004999999999971 0 0 1 4 0 0 1 I I #
point $-1 -1 $-1 4 0 -5.0004999999999971 #
vertex $-1 -1 $-1 $231 $415 #
ellipse-curve $-1 -1 $-1 0 0 5.0004999999999988 0 0 1 4 0 0 1 I I #
point $-1 -1 $-1 4 0 -5.0004999999999988 #
vertex $-1 -1 $-1 $235 $416 #
ellipse-curve $-1 -1 $-1 0 0 5.0004999999999988 0 0 1 4 0 0 1 I I #
point $-1 -1 $-1 4 0 -5.0004999999999988 #
face $-1 -1 $-1 $-1 $253 $48 $-1 $417 reversed single #
loop $-1 -1 $-1 $-1 $339 $238 #
plane-surface $-1 -1 $-1 0 40 0 0 -1 0 0 0 -1 forward_v I I I I #
coedge $-1 -1 $-1 $418 $337 $340 $419 forward $239 $-1 #
coedge $-1 -1 $-1 $343 $241 $242 $331 reversed $176 $-1 #
coedge $-1 -1 $-1 $337 $418 $241 $329 reversed $239 $-1 #
edge $-1 -1 $-1 $344 -55 $420 55 $328 $421 forward @7 unknown #
coedge $-1 -1 $-1 $243 $242 $418 $422 forward $128 $-1 #
edge $-1 -1 $-1 $335 -40.000999999999998 $420 40.000999999999998 $327 $423 forward @7 unknown #
coedge $-1 -1 $-1 $340 $339 $243 $333 reversed $324 $-1 #
edge $-1 -1 $-1 $424 -40.000999999999998 $334 40.000999999999998 $332 $425 forward @7 unknown #
vertex $-1 -1 $-1 $245 $426 #
vertex $-1 -1 $-1 $346 $427 #
straight-curve $-1 -1 $-1 40.000999999999998 0 -55 0 -1 0 I I #
coedge $-1 -1 $-1 $326 $328 $246 $338 reversed $239 $-1 #
edge $-1 -1 $-1 $341 -40 $344 40 $337 $428 forward @7 unknown #
coedge $-1 -1 $-1 $332 $247 $252 $347 forward $324 $-1 #
coedge $-1 -1 $-1 $247 $332 $326 $419 reversed $324 $-1 #
vertex $-1 -1 $-1 $248 $429 #
straight-curve $-1 -1 $-1 0 40 55 -1 0 0 I I #
coedge $-1 -1 $-1 $249 $327 $251 $346 reversed $176 $-1 #
vertex $-1 -1 $-1 $338 $430 #
straight-curve $-1 -1 $-1 0 -40 55 1 0 0 I I #
edge $-1 -1 $-1 $254 -55 $335 55 $251 $431 forward @7 unknown #
edge $-1 -1 $-1 $255 -55 $334 55 $252 $432 forward @7 unknown #
point $-1 -1 $-1 40.000999999999998 -40 55 #
point $-1 -1 $-1 40.000999999999998 40 55 #
loop $-1 -1 $-1 $-1 $263 $183 #
coedge $-1 -1 $-1 $351 $351 $261 $352 forward $257 $-1 #
edge $433 -1 $-1 $434 -3.1415926535897931 $434 3.1415926535897931 $261 $435 forward @7 unknown #
vertex $-1 -1 $-1 $262 $436 #
ellipse-curve $-1 -1 $-1 0 -4.8849813083506888e-015 -45 0 0 1 39.799497484264798 4.0000000000000053 0 1 I I #
convexity-sys-attrib $-1 -1 $-1 $-1 $264 #
vertex $-1 -1 $-1 $264 $437 #
ellipse-curve $-1 -1 $-1 0 0 -5 0 0 -1 30 0 0 1 I I #
point $-1 -1 $-1 30.000000000000007 0 -45 #
face $-1 -1 $-1 $438 $439 $52 $-1 $440 reversed single #
loop $-1 -1 $-1 $-1 $369 $267 #
coedge $-1 -1 $-1 $441 $442 $364 $443 forward $268 $-1 #
coedge $-1 -1 $-1 $444 $270 $367 $445 reversed $192 $-1 #
coedge $-1 -1 $-1 $270 $444 $441 $446 reversed $192 $-1 #
coedge $-1 -1 $-1 $272 $271 $361 $443 reversed $137 $-1 #
coedge $-1 -1 $-1 $447 $448 $449 $276 forward $450 $-1 #
coedge $-1 -1 $-1 $451 $273 $448 $383 forward $368 $-1 #
coedge $-1 -1 $-1 $273 $451 $362 $445 forward $368 $-1 #
loop $-1 -1 $-1 $-1 $273 $438 #
coedge $-1 -1 $-1 $452 $453 $275 $370 forward $360 $-1 #
edge $-1 -1 $-1 $376 1.6709637479564565 $371 4.8125564015462494 $369 $454 forward @7 unknown #
vertex $-1 -1 $-1 $455 $456 #
straight-curve $-1 -1 $-1 0 40 55 0 0 1 I I #
coedge $-1 -1 $-1 $457 $277 $453 $458 reversed $375 $-1 #
coedge $-1 -1 $-1 $277 $457 $279 $379 reversed $375 $-1 #
loop $-1 -1 $-1 $-1 $277 $459 #
vertex $-1 -1 $-1 $446 $460 #
straight-curve $-1 -1 $-1 0 -40 55 0 0 1 I I #
coedge $-1 -1 $-1 $280 $279 $461 $462 forward $281 $-1 #
edge $-1 -1 $-1 $283 0 $463 40.000999999999998 $374 $464 forward @7 unknown #
coedge $-1 -1 $-1 $465 $449 $280 $381 reversed $439 $-1 #
edge $-1 -1 $-1 $466 -40.000999999999998 $282 0 $380 $467 forward @7 unknown #
face $-1 -1 $-1 $459 $281 $52 $-1 $468 reversed single #
edge $-1 -1 $-1 $282 0 $469 40.000999999999998 $448 $467 forward @7 unknown #
point $-1 -1 $-1 0 40 -55 #
point $-1 -1 $-1 0 -40 -55 #
loop $-1 -1 $-1 $-1 $291 $199 #
coedge $-1 -1 $-1 $387 $387 $289 $388 forward $285 $-1 #
edge $470 -1 $-1 $471 -3.1415926535897931 $471 3.1415926535897931 $289 $472 forward @7 unknown #
vertex $-1 -1 $-1 $290 $473 #
ellipse-curve $-1 -1 $-1 0 -4.8849813083506888e-015 -55 0 0 1 39.799497484264798 4.0000000000000053 0 1 I I #
convexity-sys-attrib $-1 -1 $-1 $-1 $292 #
vertex $-1 -1 $-1 $292 $474 #
ellipse-curve $-1 -1 $-1 0 0 -45 0 0 -1 10 0 0 1 I I #
point $-1 -1 $-1 10 0 -55 #
model_id-kcp-attrib $-1 -1 $-1 $-1 $296 1 1021324026 1021324026 528678913 8 #
face $475 -1 $-1 $476 $477 $14 $-1 $478 reversed single #
loop $-1 -1 $-1 $479 $480 $296 #
cone-surface $-1 -1 $-1 45 0 70 1 0 0 0 0 -4 1 I I 0 1 4 forward I I I I #
coedge $-1 -1 $-1 $399 $399 $400 $481 reversed $297 $-1 #
coedge $-1 -1 $-1 $400 $400 $399 $481 forward $299 $-1 #
coedge $-1 -1 $-1 $401 $401 $300 $402 forward $307 $-1 #
edge $482 -1 $-1 $483 0 $483 24.125259551601488 $401 $484 forward @7 unknown #
attrib_edge_convexity-kcp-attrib $-1 -1 $485 $-1 $301 2 #
vertex $-1 -1 $-1 $301 $486 #
ellipse-curve $-1 -1 $-1 -30 3.6739403974420592e-015 70 1 -1.2246467991473532e-016 0 0 0 -4 1 I I #
convexity-sys-attrib $-1 -1 $-1 $302 $214 #
point $-1 -1 $-1 -39.799497484264798 -3.9999999999999951 70 #
loop $-1 -1 $-1 $487 $488 $219 #
model_id-kcp-attrib $-1 -1 $-1 $-1 $309 1 1021324026 1021324026 528678913 15 #
face $489 -1 $-1 $490 $491 $14 $-1 $492 forward single #
loop $-1 -1 $-1 $493 $494 $309 #
plane-surface $-1 -1 $-1 0 0 90 0 0 1 1 0 0 forward_v I I I I #
point $-1 -1 $-1 4 0 5.0004999999999988 #
point $-1 -1 $-1 4 0 5.0004999999999971 #
point $-1 -1 $-1 4 0 5.0004999999999988 #
point $-1 -1 $-1 4 0 5.0004999999999988 #
plane-surface $-1 -1 $-1 40.000999999999998 0 0 -1 0 0 0 0 1 forward_v I I I I #
coedge $-1 -1 $-1 $328 $326 $330 $422 reversed $239 $-1 #
edge $-1 -1 $-1 $341 -55 $424 55 $340 $495 forward @7 unknown #
vertex $-1 -1 $-1 $422 $496 #
straight-curve $-1 -1 $-1 -40.000999999999998 -40 0 0 0 -1 I I #
edge $-1 -1 $-1 $420 -40 $424 40 $418 $497 forward @7 unknown #
straight-curve $-1 -1 $-1 0 -40 -55 -1 0 0 I I #
vertex $-1 -1 $-1 $333 $498 #
straight-curve $-1 -1 $-1 0 40 -55 1 0 0 I I #
point $-1 -1 $-1 40.000999999999998 40 -55 #
point $-1 -1 $-1 40.000999999999998 -40 -55 #
straight-curve $-1 -1 $-1 -40.000999999999998 0 55 0 -1 0 I I #
point $-1 -1 $-1 -40.000999999999998 40 55 #
point $-1 -1 $-1 -40.000999999999998 -40 55 #
straight-curve $-1 -1 $-1 40.000999999999998 -40 0 0 0 -1 I I #
straight-curve $-1 -1 $-1 40.000999999999998 40 0 0 0 -1 I I #
convexity-sys-attrib $-1 -1 $-1 $-1 $352 #
vertex $-1 -1 $-1 $352 $499 #
ellipse-curve $-1 -1 $-1 0 -4.8849813083506888e-015 -5 0 0 1 39.799497484264798 4.0000000000000053 0 1 I I #
point $-1 -1 $-1 -39.799497484264798 -4.0000000000000151 -45 #
point $-1 -1 $-1 30 0 -5 #
face $-1 -1 $-1 $382 $368 $52 $-1 $468 reversed single #
loop $-1 -1 $-1 $-1 $449 $359 #
plane-surface $-1 -1 $-1 0 40 0 0 -1 0 0 0 -1 forward_v I I I I #
coedge $-1 -1 $-1 $500 $361 $363 $446 forward $268 $-1 #
coedge $-1 -1 $-1 $361 $500 $447 $501 forward $268 $-1 #
edge $-1 -1 $-1 $371 -1.4706289056333366 $376 1.6709637479564565 $361 $454 forward @7 unknown #
coedge $-1 -1 $-1 $363 $362 $502 $503 reversed $192 $-1 #
edge $-1 -1 $-1 $504 -40.000999999999998 $283 0 $362 $464 forward @7 unknown #
edge $-1 -1 $-1 $376 0 $505 40.000999999999998 $363 $506 forward @7 unknown #
coedge $-1 -1 $-1 $507 $365 $442 $501 reversed $450 $-1 #
coedge $-1 -1 $-1 $365 $507 $366 $383 reversed $450 $-1 #
coedge $-1 -1 $-1 $380 $508 $195 $276 reversed $439 $-1 #
loop $-1 -1 $-1 $-1 $365 $509 #
coedge $-1 -1 $-1 $367 $366 $510 $511 forward $368 $-1 #
coedge $-1 -1 $-1 $512 $369 $508 $455 forward $360 $-1 #
coedge $-1 -1 $-1 $369 $512 $373 $458 forward $360 $-1 #
ellipse-curve $-1 -1 $-1 0 -4.8849813083506888e-015 55 0 0 -1 39.799497484264798 4.0000000000000053 0 1 I I #
edge $-1 -1 $-1 $371 0 $513 40.000999999999998 $508 $514 forward @7 unknown #
point $-1 -1 $-1 0 40 55 #
coedge $-1 -1 $-1 $374 $373 $515 $516 forward $375 $-1 #
edge $-1 -1 $-1 $517 -40.000999999999998 $376 0 $373 $506 forward @7 unknown #
face $-1 -1 $-1 $518 $375 $52 $-1 $193 reversed single #
point $-1 -1 $-1 0 -40 55 #
coedge $-1 -1 $-1 $515 $519 $378 $462 reversed $520 $-1 #
edge $-1 -1 $-1 $463 -40 $466 40 $461 $521 forward @7 unknown #
vertex $-1 -1 $-1 $462 $522 #
straight-curve $-1 -1 $-1 0 -40 -55 -1 0 0 I I #
coedge $-1 -1 $-1 $508 $380 $519 $523 reversed $439 $-1 #
vertex $-1 -1 $-1 $381 $524 #
straight-curve $-1 -1 $-1 0 40 -55 1 0 0 I I #
plane-surface $-1 -1 $-1 0 0 -55 0 0 1 1 0 0 forward_v I I I I #
vertex $-1 -1 $-1 $511 $525 #
convexity-sys-attrib $-1 -1 $-1 $-1 $388 #
vertex $-1 -1 $-1 $388 $526 #
ellipse-curve $-1 -1 $-1 0 -4.8849813083506888e-015 -45 0 0 1 39.799497484264798 4.0000000000000053 0 1 I I #
point $-1 -1 $-1 -39.799497484264798 -4.0000000000000151 -55 #
point $-1 -1 $-1 10 0 -45 #
model_id-kcp-attrib $-1 -1 $-1 $-1 $396 1 1021324026 1021324026 528678913 9 #
face $527 -1 $-1 $528 $529 $14 $-1 $530 forward single #
loop $-1 -1 $-1 $-1 $531 $396 #
plane-surface $-1 -1 $-1 30 0 70 -1 0 0 0 0 1 forward_v I I I I #
loop $-1 -1 $-1 $-1 $532 $296 #
coedge $-1 -1 $-1 $480 $480 $488 $533 reversed $397 $-1 #
edge $534 -1 $-1 $535 0 $535 6.2831853071795862 $399 $536 forward @7 unknown #
attrib_edge_convexity-kcp-attrib $-1 -1 $537 $-1 $402 1 #
vertex $-1 -1 $-1 $402 $538 #
intcurve-curve $-1 -1 $-1 forward { surfintcur full nubs 3 periodic 33 
	0 3 0.75391564406059686 2 1.5078312881211937 2 2.2617469321817905 2 3.0156625762423874 2 
	3.7695756541568839 2 4.5234887320713808 2 5.2774018099858768 2 6.0313148879003737 2 6.7852279658148706 2 
	7.5391410437293684 2 8.2930541216438662 2 9.0469671995583631 2 9.800882843618961 2 10.554798487679557 2 
	11.308714131740153 2 12.062629775800751 2 12.816545419861345 2 13.570461063921941 2 14.324376707982537 2 
	15.078292352043132 2 15.83220542995763 2 16.586118507872129 2 17.340031585786626 2 18.093944663701123 2 
	18.84785774161562 2 19.601770819530117 2 20.355683897444614 2 21.109596975359111 2 21.863512619419705 2 
	22.617428263480299 2 23.371343907540894 2 24.125259551601488 3 
	25.314067434194389 30.970921683686761 70 
	25.314067434194389 30.970921683686761 69.748694785313134 
	25.332811545702953 30.955633574643457 69.488859728380319 
	25.411511579715285 30.89106132931358 68.972091719574451 
	25.471447004869717 30.841788169429542 68.715154274828777 
	25.629203440320317 30.710819606996139 68.222445690392149 
	25.727137588883739 30.629007496340186 67.986278953336978 
	25.952078499604383 30.438648627661763 67.54957534454033 
	26.079080802012012 30.330070900318269 67.34904967577684 
	26.347862659216602 30.09687341521979 66.994096678818778 
	26.498858829763019 29.964283859206301 66.827516507259531 
	26.824913330501719 29.672745934372234 66.533854942527512 
	26.999946253717578 29.513787998450113 66.406754838651807 
	27.36169092618152 29.178736253970762 66.202595082868513 
	27.548681001656497 29.002361319521277 66.125372927724101 
	27.921122331711384 28.643982173865098 66.024064260227732 
	28.106572230855711 28.461970264068086 66 
	28.461970264068089 28.106572230855711 66 
	28.643982173865101 27.921122331711377 66.024064260227732 
	29.002361319521288 27.548681001656487 66.125372927724129 
	29.178736253970772 27.36169092618151 66.202595082868513 
	29.51378799845012 26.999946253717567 66.406754838651807 
	29.672745934372227 26.824913330501726 66.533854942527512 
	29.96428385920629 26.498858829763023 66.827516507259531 
	30.096873415219797 26.347862659216602 66.994096678818778 
	30.330070900318276 26.079080802012008 67.34904967577684 
	30.438648627661763 25.952078499604372 67.549575344540344 
	30.629007496340186 25.727137588883725 67.986278953336978 
	30.710819606996143 25.629203440320325 68.222445690392163 
	30.841788169429549 25.47144700486972 68.715154274828791 
	30.89106132931358 25.411511579715278 68.972091719574465 
	30.955633574643457 25.332811545702945 69.488859728380334 
	30.970921683686775 25.314067434194381 69.748694785313134 
	30.970921683686775 25.314067434194381 70.251305214686866 
	30.955633574643457 25.332811545702945 70.511140271619666 
	30.89106132931358 25.411511579715281 71.027908280425549 
	30.841788169429545 25.47144700486972 71.284845725171223 
	30.710819606996139 25.629203440320325 71.777554309607837 
	30.629007496340183 25.727137588883732 72.013721046663036 
	30.438648627661763 25.952078499604372 72.45042465545967 
	30.330070900318276 26.079080802012008 72.650950324223146 
	30.096873415219797 26.347862659216602 73.005903321181222 
	29.964283859206301 26.498858829763019 73.172483492740469 
	29.672745934372234 26.824913330501722 73.466145057472488 
	29.51378799845012 26.999946253717567 73.593245161348207 
	29.178736253970772 27.36169092618151 73.797404917131487 
	29.002361319521288 27.54868100165649 73.874627072275899 
	28.643982173865101 27.921122331711381 73.975935739772268 
	28.461970264068089 28.106572230855711 74 
	28.106572230855715 28.461970264068086 74 
	27.921122331711384 28.643982173865098 73.975935739772268 
	27.548681001656494 29.002361319521285 73.874627072275899 
	27.361690926181517 29.178736253970769 73.797404917131487 
	26.999946253717575 29.513787998450113 73.593245161348207 
	26.824913330501726 29.672745934372237 73.466145057472474 
	26.498858829763027 29.964283859206301 73.172483492740454 
	26.347862659216602 30.09687341521979 73.005903321181208 
	26.079080802012015 30.330070900318269 72.650950324223146 
	25.952078499604372 30.438648627661763 72.450424655459656 
	25.727137588883735 30.629007496340176 72.013721046663036 
	25.629203440320325 30.710819606996132 71.777554309607865 
	25.471447004869717 30.841788169429542 71.284845725171238 
	25.411511579715285 30.891061329313573 71.027908280425564 
	25.332811545702949 30.95563357464345 70.511140271619695 
	25.314067434194389 30.970921683686761 70.251305214686866 
	25.314067434194389 30.970921683686761 70 
	0.001 
	cone 31.81980515339464 31.819805153394636 70 0.70710678118654757 0.70710678118654746 0 0 0 -4 1 I I 0 1 4 forward I I I I 
	cone 0 0 70 0 0 1 40 0 0 1 I I 0 1 40 forward I I I I 
	nullbs 
	nullbs 
	I I 
	0 
	0 
	0 
	} I I #
convexity-sys-attrib $-1 -1 $-1 $403 $301 #
point $-1 -1 $-1 -30 3.6739403974420592e-015 66 #
loop $-1 -1 $-1 $539 $540 $219 #
coedge $-1 -1 $-1 $488 $488 $480 $533 forward $408 $-1 #
model_id-kcp-attrib $-1 -1 $-1 $-1 $410 1 1021324026 1021324026 528678913 16 #
face $541 -1 $-1 $542 $543 $14 $-1 $544 forward single #
loop $-1 -1 $-1 $545 $546 $410 #
plane-surface $-1 -1 $-1 0 0 10 0 0 -1 -1 0 0 forward_v I I I I #
loop $-1 -1 $-1 $-1 $547 $309 #
coedge $-1 -1 $-1 $494 $494 $548 $549 forward $411 $-1 #
straight-curve $-1 -1 $-1 -40.000999999999998 40 0 0 0 -1 I I #
point $-1 -1 $-1 -40.000999999999998 -40 -55 #
straight-curve $-1 -1 $-1 -40.000999999999998 0 -55 0 1 0 I I #
point $-1 -1 $-1 -40.000999999999998 40 -55 #
point $-1 -1 $-1 -39.799497484264798 -4.0000000000000151 -5 #
coedge $-1 -1 $-1 $442 $441 $550 $551 forward $268 $-1 #
edge $-1 -1 $-1 $552 -40.000999999999998 $371 0 $447 $514 forward @7 unknown #
coedge $-1 -1 $-1 $510 $550 $444 $503 forward $553 $-1 #
edge $-1 -1 $-1 $505 -55 $504 55 $502 $554 forward @7 unknown #
vertex $-1 -1 $-1 $503 $555 #
vertex $-1 -1 $-1 $551 $556 #
straight-curve $-1 -1 $-1 0 -40 55 1 0 0 I I #
coedge $-1 -1 $-1 $448 $447 $557 $558 forward $450 $-1 #
coedge $-1 -1 $-1 $449 $465 $452 $455 reversed $439 $-1 #
face $-1 -1 $-1 $559 $450 $52 $-1 $440 reversed single #
coedge $-1 -1 $-1 $557 $502 $451 $511 reversed $553 $-1 #
edge $-1 -1 $-1 $469 -40 $504 40 $510 $560 forward @7 unknown #
coedge $-1 -1 $-1 $453 $452 $561 $562 forward $360 $-1 #
vertex $-1 -1 $-1 $455 $563 #
straight-curve $-1 -1 $-1 0 40 55 -1 0 0 I I #
coedge $-1 -1 $-1 $561 $461 $457 $516 reversed $520 $-1 #
edge $-1 -1 $-1 $517 -55 $463 55 $515 $564 forward @7 unknown #
vertex $-1 -1 $-1 $562 $565 #
face $-1 -1 $-1 $509 $520 $52 $-1 $566 reversed single #
coedge $-1 -1 $-1 $461 $561 $465 $523 forward $520 $-1 #
loop $-1 -1 $-1 $-1 $519 $518 #
straight-curve $-1 -1 $-1 -40.000999999999998 0 -55 0 1 0 I I #
point $-1 -1 $-1 -40.000999999999998 -40 -55 #
edge $-1 -1 $-1 $513 -55 $466 55 $465 $567 forward @7 unknown #
point $-1 -1 $-1 -40.000999999999998 40 -55 #
point $-1 -1 $-1 40.000999999999998 40 -55 #
point $-1 -1 $-1 -39.799497484264798 -4.0000000000000151 -45 #
model_id-kcp-attrib $-1 -1 $-1 $-1 $476 1 1021324026 1021324026 528678913 10 #
face $568 -1 $-1 $569 $570 $14 $-1 $571 forward single #
loop $-1 -1 $-1 $572 $573 $476 #
cone-surface $-1 -1 $-1 0 0 80 0 0 1 17.5 0 0 1 I I -0.24253562503633297 0.97014250014533188 17.5 forward I I I I #
coedge $-1 -1 $-1 $531 $531 $532 $574 reversed $477 $-1 #
coedge $-1 -1 $-1 $532 $532 $531 $574 forward $479 $-1 #
edge $575 -1 $-1 $576 0 $576 24.125259551601488 $488 $577 forward @7 unknown #
attrib_edge_convexity-kcp-attrib $-1 -1 $578 $-1 $481 2 #
vertex $-1 -1 $-1 $481 $579 #
ellipse-curve $-1 -1 $-1 21.213203435596427 21.213203435596427 70 -0.70710678118654757 -0.70710678118654746 0 0 0 -4 1 I I #
convexity-sys-attrib $-1 -1 $-1 $482 $402 #
point $-1 -1 $-1 25.314067434194392 30.970921683686772 70 #
loop $-1 -1 $-1 $-1 $580 $219 #
coedge $-1 -1 $-1 $540 $540 $581 $582 reversed $487 $-1 #
model_id-kcp-attrib $-1 -1 $-1 $-1 $490 1 1021324026 1021324026 528678913 17 #
face $583 -1 $-1 $584 $585 $14 $-1 $586 forward single #
loop $-1 -1 $-1 $587 $588 $490 #
cone-surface $-1 -1 $-1 0 0 30 0 0 1 30 0 0 1 I I 0 1 30 forward I I I I #
loop $-1 -1 $-1 $-1 $589 $410 #
coedge $-1 -1 $-1 $546 $546 $588 $590 forward $491 $-1 #
coedge $-1 -1 $-1 $547 $547 $580 $591 forward $493 $-1 #
coedge $-1 -1 $-1 $548 $548 $494 $549 reversed $592 $-1 #
edge $-1 -1 $-1 $593 0 $593 6.2831853071795862 $494 $594 forward @7 unknown #
coedge $-1 -1 $-1 $502 $557 $500 $551 reversed $553 $-1 #
edge $-1 -1 $-1 $505 -40 $552 40 $550 $595 forward @7 unknown #
vertex $-1 -1 $-1 $551 $596 #
loop $-1 -1 $-1 $-1 $502 $559 #
straight-curve $-1 -1 $-1 40.000999999999998 -40 0 0 0 -1 I I #
point $-1 -1 $-1 40.000999999999998 -40 -55 #
point $-1 -1 $-1 40.000999999999998 -40 55 #
coedge $-1 -1 $-1 $550 $510 $507 $558 reversed $553 $-1 #
edge $-1 -1 $-1 $552 -55 $469 55 $557 $597 forward @7 unknown #
face $-1 -1 $-1 $-1 $553 $52 $-1 $598 reversed single #
straight-curve $-1 -1 $-1 40.000999999999998 0 -55 0 -1 0 I I #
coedge $-1 -1 $-1 $519 $515 $512 $562 reversed $520 $-1 #
edge $-1 -1 $-1 $513 -40 $517 40 $561 $599 forward @7 unknown #
point $-1 -1 $-1 -40.000999999999998 40 55 #
straight-curve $-1 -1 $-1 -40.000999999999998 -40 0 0 0 -1 I I #
point $-1 -1 $-1 -40.000999999999998 -40 55 #
plane-surface $-1 -1 $-1 -40.000999999999998 0 0 1 0 0 0 0 -1 forward_v I I I I #
straight-curve $-1 -1 $-1 -40.000999999999998 40 0 0 0 -1 I I #
model_id-kcp-attrib $-1 -1 $-1 $-1 $528 1 1021324026 1021324026 528678913 11 #
face $600 -1 $-1 $601 $602 $14 $-1 $603 reversed single #
loop $-1 -1 $-1 $-1 $604 $528 #
plane-surface $-1 -1 $-1 0 0 110 0 0 1 1 0 0 forward_v I I I I #
loop $-1 -1 $-1 $-1 $605 $476 #
coedge $-1 -1 $-1 $573 $573 $604 $606 reversed $529 $-1 #
edge $607 -1 $-1 $608 0 $608 6.2831853071795862 $531 $609 forward @7 unknown #
attrib_edge_convexity-kcp-attrib $-1 -1 $610 $-1 $533 1 #
vertex $-1 -1 $-1 $533 $611 #
intcurve-curve $-1 -1 $-1 forward { surfintcur full nubs 3 periodic 33 
	0 3 0.75391564406059652 2 1.507831288121193 2 2.2617469321817896 2 3.0156625762423861 2 
	3.769575654156883 2 4.5234887320713799 2 5.2774018099858768 2 6.0313148879003737 2 6.7852279658148706 2 
	7.5391410437293676 2 8.2930541216438645 2 9.0469671995583614 2 9.8008828436189575 2 10.554798487679555 2 
	11.308714131740151 2 12.062629775800747 2 12.816545419861342 2 13.570461063921936 2 14.32437670798253 2 
	15.078292352043125 2 15.832205429957623 2 16.586118507872122 2 17.340031585786619 2 18.093944663701116 2 
	18.847857741615613 2 19.60177081953011 2 20.355683897444607 2 21.109596975359107 2 21.863512619419701 2 
	22.617428263480299 2 23.371343907540894 2 24.125259551601488 3 
	39.799497484264798 4 70 
	39.799497484264798 4 69.748694785313134 
	39.801941247043779 3.9759355860689349 69.488859728380319 
	39.811931102224314 3.8746267857900061 68.972091719574451 
	39.819470462299819 3.7974046547455114 68.715154274828777 
	39.838412348963843 3.5932452508436565 68.222445690392149 
	39.849812351294759 3.4661454520567236 67.986278953336978 
	39.87426554773009 3.1724841618183697 67.54957534454033 
	39.887293689698424 3.0059039252692257 67.34904967577684 
	39.912455640518921 2.6509509283111616 66.994096678818778 
	39.925471082473841 2.4504255380129307 66.827516507259531 
	39.949877987359351 2.0137217458809786 66.533854942527512 
	39.961244719882231 1.7775545445302052 66.406754838651807 
	39.980119470269869 1.2848450730031149 66.202595082868527 
	39.987625508472242 1.0279072104396128 66.125372927724129 
	39.997568974418861 0.51113909623433407 66.024064260227732 
	40 0.2513043593048323 66 
	40 -0.2513043593048323 66 
	39.997568974418861 -0.51113909623433407 66.024064260227732 
	39.987625508472242 -1.0279072104396128 66.125372927724129 
	39.980119470269869 -1.2848450730031149 66.202595082868527 
	39.961244719882231 -1.7775545445302052 66.406754838651807 
	39.949877987359351 -2.0137217458809786 66.533854942527512 
	39.925471082473841 -2.4504255380129307 66.827516507259531 
	39.912455640518921 -2.6509509283111616 66.994096678818778 
	39.887293689698424 -3.0059039252692257 67.349049675776854 
	39.87426554773009 -3.1724841618183794 67.549575344540344 
	39.849812351294759 -3.4661454520567285 67.986278953336978 
	39.838412348963843 -3.5932452508436521 68.222445690392149 
	39.819470462299819 -3.7974046547455078 68.715154274828762 
	39.811931102224314 -3.874626785790007 68.972091719574451 
	39.801941247043779 -3.9759355860689376 69.488859728380334 
	39.799497484264798 -4 69.748694785313134 
	39.799497484264798 -4 70.251305214686866 
	39.801941247043779 -3.9759355860689349 70.511140271619681 
	39.811931102224314 -3.8746267857900061 71.027908280425549 
	39.819470462299819 -3.7974046547455109 71.284845725171238 
	39.838412348963843 -3.5932452508436561 71.777554309607837 
	39.849812351294759 -3.4661454520567316 72.013721046663036 
	39.87426554773009 -3.1724841618183781 72.450424655459656 
	39.887293689698424 -3.0059039252692257 72.650950324223146 
	39.912455640518921 -2.6509509283111621 73.005903321181208 
	39.925471082473841 -2.4504255380129343 73.172483492740454 
	39.949877987359351 -2.0137217458809866 73.466145057472474 
	39.961244719882231 -1.7775545445302057 73.593245161348207 
	39.980119470269869 -1.2848450730031142 73.797404917131487 
	39.987625508472242 -1.0279072104396112 73.874627072275899 
	39.997568974418861 -0.51113909623433296 73.975935739772268 
	40 -0.2513043593048328 74 
	40 0.25130435930483186 74 
	39.997568974418861 0.51113909623433196 73.975935739772268 
	39.987625508472242 1.0279072104396101 73.874627072275899 
	39.980119470269869 1.2848450730031136 73.797404917131487 
	39.961244719882231 1.7775545445302043 73.593245161348207 
	39.949877987359351 2.0137217458809862 73.466145057472474 
	39.925471082473841 2.4504255380129334 73.172483492740454 
	39.912455640518914 2.6509509283111607 73.005903321181208 
	39.887293689698424 3.0059039252692248 72.650950324223146 
	39.874265547730083 3.1724841618183772 72.450424655459656 
	39.849812351294752 3.4661454520567307 72.013721046663036 
	39.838412348963843 3.5932452508436552 71.777554309607837 
	39.819470462299819 3.7974046547455105 71.284845725171238 
	39.811931102224314 3.8746267857900056 71.027908280425549 
	39.801941247043779 3.9759355860689345 70.511140271619681 
	39.799497484264798 4 70.251305214686866 
	39.799497484264798 4 70 
	0.001 
	cone 45 0 70 1 0 0 0 0 -4 1 I I 0 1 4 forward I I I I 
	cone 0 0 70 0 0 1 40 0 0 1 I I 0 1 40 forward I I I I 
	nullbs 
	nullbs 
	I I 
	0 
	0 
	0 
	} I I #
convexity-sys-attrib $-1 -1 $-1 $534 $481 #
point $-1 -1 $-1 21.213203435596427 21.213203435596427 66 #
coedge $-1 -1 $-1 $580 $580 $547 $591 reversed $539 $-1 #
coedge $-1 -1 $-1 $581 $581 $540 $582 forward $612 $-1 #
edge $613 -1 $-1 $614 0 $614 6.2831853071795862 $581 $615 forward @7 unknown #
model_id-kcp-attrib $-1 -1 $-1 $-1 $542 1 1021324026 1021324026 528678913 18 #
face $616 -1 $-1 $-1 $617 $14 $-1 $618 forward single #
loop $-1 -1 $-1 $619 $620 $542 #
cone-surface $-1 -1 $-1 0 0 5 0 0 1 10 0 0 1 I I 0 1 10 forward I I I I #
loop $-1 -1 $-1 $-1 $621 $490 #
coedge $-1 -1 $-1 $588 $588 $546 $590 reversed $543 $-1 #
coedge $-1 -1 $-1 $589 $589 $622 $623 forward $545 $-1 #
edge $624 -1 $-1 $625 0 $625 6.2831853071795862 $546 $626 forward @7 unknown #
edge $-1 -1 $-1 $627 0 $627 6.2831853071795862 $547 $628 forward @7 unknown #
loop $-1 -1 $-1 $-1 $548 $569 #
vertex $-1 -1 $-1 $549 $629 #
ellipse-curve $-1 -1 $-1 0 0 90 0 0 -1 30 0 0 1 I I #
straight-curve $-1 -1 $-1 40.000999999999998 0 55 0 1 0 I I #
point $-1 -1 $-1 40.000999999999998 40 55 #
straight-curve $-1 -1 $-1 40.000999999999998 40 0 0 0 -1 I I #
plane-surface $-1 -1 $-1 40.000999999999998 0 0 -1 0 0 0 0 1 forward_v I I I I #
straight-curve $-1 -1 $-1 -40.000999999999998 0 55 0 -1 0 I I #
model_id-kcp-attrib $-1 -1 $-1 $-1 $569 1 1021324026 1021324026 528678913 12 #
face $630 -1 $-1 $219 $612 $14 $-1 $631 forward single #
loop $-1 -1 $-1 $592 $632 $569 #
cone-surface $-1 -1 $-1 0 0 70 0 0 1 22.5 0 0 1 I I 0.3511234415883917 0.93632917756904455 22.5 forward I I I I #
coedge $-1 -1 $-1 $604 $604 $573 $606 forward $570 $-1 #
coedge $-1 -1 $-1 $605 $605 $632 $633 reversed $572 $-1 #
edge $634 -1 $-1 $635 0 $635 6.2831853071795862 $604 $636 forward @7 unknown #
attrib_edge_convexity-kcp-attrib $-1 -1 $637 $-1 $574 2 #
vertex $-1 -1 $-1 $574 $638 #
ellipse-curve $-1 -1 $-1 30 0 70 -1 0 0 0 0 -4 1 I I #
convexity-sys-attrib $-1 -1 $-1 $575 $533 #
point $-1 -1 $-1 39.799497484264798 4 70 #
loop $-1 -1 $-1 $639 $581 $601 #
attrib_edge_convexity-kcp-attrib $-1 -1 $640 $-1 $582 1 #
vertex $-1 -1 $-1 $582 $641 #
ellipse-curve $-1 -1 $-1 0 0 50 0 0 -1 40 0 0 1 I I #
model_id-kcp-attrib $-1 -1 $-1 $-1 $584 1 1021324026 1021324026 528678913 19 #
loop $-1 -1 $-1 $-1 $642 $584 #
plane-surface $-1 -1 $-1 0 0 0 0 0 -1 -1 0 0 forward_v I I I I #
loop $-1 -1 $-1 $-1 $622 $542 #
coedge $-1 -1 $-1 $620 $620 $642 $643 reversed $585 $-1 #
coedge $-1 -1 $-1 $621 $621 $644 $645 reversed $587 $-1 #
coedge $-1 -1 $-1 $622 $622 $589 $623 reversed $619 $-1 #
edge $646 -1 $-1 $647 0 $647 6.2831853071795862 $622 $648 forward @7 unknown #
attrib_edge_convexity-kcp-attrib $-1 -1 $649 $-1 $590 1 #
vertex $-1 -1 $-1 $590 $650 #
ellipse-curve $-1 -1 $-1 0 0 10 0 0 -1 30 0 0 1 I I #
vertex $-1 -1 $-1 $591 $651 #
ellipse-curve $-1 -1 $-1 0 0 90 0 0 1 40 0 0 1 I I #
point $-1 -1 $-1 30 0 90 #
model_id-kcp-attrib $-1 -1 $-1 $-1 $601 1 1021324026 1021324026 528678913 13 #
plane-surface $-1 -1 $-1 0 0 50 0 0 -1 -1 0 0 forward_v I I I I #
coedge $-1 -1 $-1 $632 $632 $605 $633 forward $602 $-1 #
edge $-1 -1 $-1 $652 -3.1415926535897931 $652 3.1415926535897931 $632 $653 forward @7 unknown #
attrib_edge_convexity-kcp-attrib $-1 -1 $654 $-1 $606 1 #
vertex $-1 -1 $-1 $606 $655 #
ellipse-curve $-1 -1 $-1 0 0 110 0 0 1 10 0 0 1 I I #
convexity-sys-attrib $-1 -1 $-1 $607 $574 #
point $-1 -1 $-1 30 0 66 #
loop $-1 -1 $-1 $-1 $644 $601 #
convexity-sys-attrib $-1 -1 $-1 $613 $582 #
point $-1 -1 $-1 40 0 50 #
coedge $-1 -1 $-1 $642 $642 $620 $643 forward $617 $-1 #
edge $-1 -1 $-1 $656 0 $656 6.2831853071795862 $642 $657 forward @7 unknown #
coedge $-1 -1 $-1 $644 $644 $621 $645 forward $639 $-1 #
edge $658 -1 $-1 $659 0 $659 6.2831853071795862 $621 $660 forward @7 unknown #
attrib_edge_convexity-kcp-attrib $-1 -1 $661 $-1 $623 2 #
vertex $-1 -1 $-1 $623 $662 #
ellipse-curve $-1 -1 $-1 0 0 10 0 0 1 10 0 0 1 I I #
convexity-sys-attrib $-1 -1 $-1 $624 $590 #
point $-1 -1 $-1 30 0 10 #
point $-1 -1 $-1 40 0 90 #
vertex $-1 -1 $-1 $633 $663 #
ellipse-curve $-1 -1 $-1 0 0 66 0 0 -1 21 0 0 1 I I #
convexity-sys-attrib $-1 -1 $-1 $634 $606 #
point $-1 -1 $-1 10 0 110 #
vertex $-1 -1 $-1 $643 $664 #
ellipse-curve $-1 -1 $-1 0 0 0 0 0 -1 10 0 0 1 I I #
attrib_edge_convexity-kcp-attrib $-1 -1 $665 $-1 $645 2 #
vertex $-1 -1 $-1 $645 $666 #
ellipse-curve $-1 -1 $-1 0 0 50 0 0 1 30 0 0 1 I I #
convexity-sys-attrib $-1 -1 $-1 $646 $623 #
point $-1 -1 $-1 10 0 10 #
point $-1 -1 $-1 -21 2.5717582782094417e-015 66 #
point $-1 -1 $-1 10 0 0 #
convexity-sys-attrib $-1 -1 $-1 $658 $645 #
point $-1 -1 $-1 30 0 50 #
End-of-ACIS-data 