700 0 2 0           
24 FBMach with ACIS - 7.0.3 13 ACIS 7.0.3 NT 24 Mon May 13 17:07:11 2002 
1 9.9999999999999995e-007 1e-010 
body $2 -1 $-1 $3 $-1 $4 #
bdycol-kcp $-1 -1 1 7 $5 $6 $7 $8 $9 $10 $11 #
model_id-kcp-attrib $-1 -1 $12 $-1 $0 1 1021324030 1021324030 -686620671 1 #
lump $-1 -1 $-1 $-1 $13 $0 #
transform $-1 -1 1 0 0 0 1 0 0 0 1 0 0 0 1 rotate no_reflect no_shear #
body $14 -1 $-1 $15 $-1 $16 #
body $17 -1 $-1 $18 $-1 $19 #
body $20 -1 $-1 $21 $-1 $22 #
body $23 -1 $-1 $24 $-1 $25 #
body $26 -1 $-1 $27 $-1 $28 #
body $29 -1 $-1 $30 $-1 $31 #
body $32 -1 $-1 $33 $-1 $34 #
rgb_color-st-attrib $-1 -1 $-1 $2 $0 0 1 0 #
shell $-1 -1 $-1 $-1 $-1 $35 $-1 $3 #
model_id-kcp-attrib $-1 -1 $-1 $-1 $5 1 1021324030 1021324030 -686620670 1 #
lump $-1 -1 $-1 $-1 $36 $5 #
transform $-1 -1 1 0 0 0 1 0 0 0 1 0 0 15 1 no_rotate no_reflect no_shear #
rgb_color-st-attrib $-1 -1 $37 $-1 $6 0.5 1 1 #
lump $-1 -1 $-1 $-1 $38 $6 #
transform $-1 -1 1 0 0 0 1 0 0 0 1 20 20 2.5 1 no_rotate no_reflect no_shear #
rgb_color-st-attrib $-1 -1 $39 $-1 $7 0.5 1 1 #
lump $-1 -1 $-1 $-1 $40 $7 #
transform $-1 -1 1 0 0 0 1 0 0 0 1 20 -20 2.5 1 no_rotate no_reflect no_shear #
rgb_color-st-attrib $-1 -1 $41 $-1 $8 0.5 1 1 #
lump $-1 -1 $-1 $-1 $42 $8 #
transform $-1 -1 1 0 0 0 1 0 0 0 1 -20 20 2.5 1 no_rotate no_reflect no_shear #
rgb_color-st-attrib $-1 -1 $43 $-1 $9 0.5 1 1 #
lump $-1 -1 $-1 $-1 $44 $9 #
transform $-1 -1 1 0 0 0 1 0 0 0 1 -20 -20 2.5 1 no_rotate no_reflect no_shear #
model_id-kcp-attrib $-1 -1 $45 $-1 $10 1 1021324030 1021324031 -682098681 1 #
lump $-1 -1 $-1 $-1 $46 $10 #
transform $-1 -1 1 0 0 0 1 0 0 0 1 0 0 15 1 no_rotate no_reflect no_shear #
model_id-kcp-attrib $-1 -1 $47 $-1 $11 1 1021324030 1021324031 -677511160 1 #
lump $-1 -1 $-1 $-1 $48 $11 #
transform $-1 -1 1 0 0 0 1 0 0 0 1 0 0 15 1 no_rotate no_reflect no_shear #
face $49 -1 $-1 $50 $51 $13 $-1 $52 reversed single #
shell $-1 -1 $-1 $-1 $-1 $53 $-1 $15 #
model_id-kcp-attrib $-1 -1 $-1 $17 $6 1 1021324030 1021324030 -681967613 1 #
shell $-1 -1 $-1 $-1 $-1 $54 $-1 $18 #
model_id-kcp-attrib $-1 -1 $-1 $20 $7 1 1021324030 1021324030 -681967612 1 #
shell $-1 -1 $-1 $-1 $-1 $55 $-1 $21 #
model_id-kcp-attrib $-1 -1 $-1 $23 $8 1 1021324030 1021324030 -681967611 1 #
shell $-1 -1 $-1 $-1 $-1 $56 $-1 $24 #
model_id-kcp-attrib $-1 -1 $-1 $26 $9 1 1021324030 1021324030 -681967610 1 #
shell $-1 -1 $-1 $-1 $-1 $57 $-1 $27 #
rgb_color-st-attrib $-1 -1 $-1 $29 $10 1 0.5 1 #
shell $-1 -1 $-1 $-1 $-1 $58 $-1 $30 #
rgb_color-st-attrib $-1 -1 $-1 $32 $11 1 0.5 1 #
shell $-1 -1 $-1 $-1 $-1 $59 $-1 $33 #
model_id-kcp-attrib $-1 -1 $-1 $-1 $35 1 1021324030 1021324030 -686620671 2 #
face $60 -1 $-1 $61 $62 $13 $-1 $63 reversed single #
loop $64 -1 $-1 $65 $66 $35 #
cone-surface $-1 -1 $-1 20 20 2.5 0 0 1 2 0 0 1 I I 0 1 2 forward I I I I #
face $67 -1 $-1 $68 $69 $36 $-1 $70 forward single #
face $-1 -1 $-1 $71 $72 $38 $-1 $73 forward single #
face $-1 -1 $-1 $74 $75 $40 $-1 $76 forward single #
face $-1 -1 $-1 $77 $78 $42 $-1 $79 forward single #
face $-1 -1 $-1 $80 $81 $44 $-1 $82 forward single #
face $-1 -1 $-1 $83 $84 $46 $-1 $85 forward single #
face $-1 -1 $-1 $86 $87 $48 $-1 $88 forward single #
model_id-kcp-attrib $-1 -1 $-1 $-1 $50 1 1021324030 1021324030 -686620671 3 #
face $89 -1 $-1 $90 $91 $13 $-1 $92 reversed single #
loop $93 -1 $-1 $94 $95 $50 #
cone-surface $-1 -1 $-1 20 -20 2.5 0 0 1 2 0 0 1 I I 0 1 2 forward I I I I #
model_id-kcp-attrib $-1 -1 $-1 $-1 $51 1 1021324030 1021324030 -686620671 17 #
loop $96 -1 $-1 $-1 $97 $35 #
coedge $-1 -1 $-1 $66 $66 $98 $99 reversed $51 $-1 #
model_id-kcp-attrib $-1 -1 $-1 $-1 $53 1 1021324030 1021324030 -686620670 2 #
face $100 -1 $-1 $101 $102 $36 $-1 $103 reversed single #
loop $-1 -1 $-1 $-1 $104 $53 #
plane-surface $-1 -1 $-1 0 0 15 0 0 1 1 0 0 forward_v I I I I #
face $-1 -1 $-1 $105 $106 $38 $-1 $107 forward single #
loop $-1 -1 $-1 $108 $109 $54 #
cone-surface $-1 -1 $-1 0 0 0 0 0 1 2 0 0 1 I I 0 1 2 forward I I I I #
face $-1 -1 $-1 $110 $111 $40 $-1 $112 forward single #
loop $-1 -1 $-1 $113 $114 $55 #
cone-surface $-1 -1 $-1 0 0 0 0 0 1 2 0 0 1 I I 0 1 2 forward I I I I #
face $-1 -1 $-1 $115 $116 $42 $-1 $117 forward single #
loop $-1 -1 $-1 $118 $119 $56 #
cone-surface $-1 -1 $-1 0 0 0 0 0 1 2 0 0 1 I I 0 1 2 forward I I I I #
face $-1 -1 $-1 $120 $121 $44 $-1 $122 forward single #
loop $-1 -1 $-1 $123 $124 $57 #
cone-surface $-1 -1 $-1 0 0 0 0 0 1 2 0 0 1 I I 0 1 2 forward I I I I #
face $-1 -1 $-1 $125 $126 $46 $-1 $127 forward single #
loop $-1 -1 $-1 $128 $129 $58 #
cone-surface $-1 -1 $-1 0 0 -10 0 0 1 15 0 0 1 I I 0 -1 15 forward I I I I #
face $-1 -1 $-1 $130 $131 $48 $-1 $132 forward single #
loop $-1 -1 $-1 $133 $134 $59 #
cone-surface $-1 -1 $-1 0 0 5 0 0 1 6 0 0 1 I I 0 -1 6 forward I I I I #
model_id-kcp-attrib $-1 -1 $-1 $-1 $61 1 1021324030 1021324030 -686620671 4 #
face $135 -1 $-1 $136 $137 $13 $-1 $138 reversed single #
loop $139 -1 $-1 $140 $141 $61 #
cone-surface $-1 -1 $-1 -20 20 2.5 0 0 1 2 0 0 1 I I 0 1 2 forward I I I I #
model_id-kcp-attrib $-1 -1 $-1 $-1 $62 1 1021324030 1021324030 -686620671 24 #
loop $142 -1 $-1 $-1 $143 $50 #
coedge $-1 -1 $-1 $95 $95 $144 $145 reversed $62 $-1 #
model_id-kcp-attrib $-1 -1 $-1 $-1 $65 1 1021324030 1021324030 -686620671 18 #
coedge $-1 -1 $-1 $97 $97 $146 $147 reversed $65 $-1 #
coedge $-1 -1 $-1 $98 $98 $66 $99 forward $148 $-1 #
edge $149 -1 $-1 $150 0 $150 6.2831853071795862 $98 $151 forward @7 unknown #
model_id-kcp-attrib $-1 -1 $-1 $-1 $68 1 1021324030 1021324030 -686620670 3 #
face $152 -1 $-1 $153 $154 $36 $-1 $155 reversed single #
loop $-1 -1 $-1 $-1 $156 $68 #
plane-surface $-1 -1 $-1 0 0 -15 0 0 1 1 0 0 forward_v I I I I #
coedge $-1 -1 $-1 $157 $158 $159 $160 forward $69 $-1 #
face $-1 -1 $-1 $-1 $161 $38 $-1 $162 forward single #
loop $-1 -1 $-1 $-1 $163 $71 #
plane-surface $-1 -1 $-1 0 0 -2.5 0 0 -1 -1 0 0 forward_v I I I I #
loop $-1 -1 $-1 $-1 $164 $54 #
coedge $-1 -1 $-1 $109 $109 $163 $165 reversed $72 $-1 #
face $-1 -1 $-1 $-1 $166 $40 $-1 $167 forward single #
loop $-1 -1 $-1 $-1 $168 $74 #
plane-surface $-1 -1 $-1 0 0 -2.5 0 0 -1 -1 0 0 forward_v I I I I #
loop $-1 -1 $-1 $-1 $169 $55 #
coedge $-1 -1 $-1 $114 $114 $168 $170 reversed $75 $-1 #
face $-1 -1 $-1 $-1 $171 $42 $-1 $172 forward single #
loop $-1 -1 $-1 $-1 $173 $77 #
plane-surface $-1 -1 $-1 0 0 -2.5 0 0 -1 -1 0 0 forward_v I I I I #
loop $-1 -1 $-1 $-1 $174 $56 #
coedge $-1 -1 $-1 $119 $119 $173 $175 reversed $78 $-1 #
face $-1 -1 $-1 $-1 $176 $44 $-1 $177 forward single #
loop $-1 -1 $-1 $-1 $178 $80 #
plane-surface $-1 -1 $-1 0 0 -2.5 0 0 -1 -1 0 0 forward_v I I I I #
loop $-1 -1 $-1 $-1 $179 $57 #
coedge $-1 -1 $-1 $124 $124 $178 $180 reversed $81 $-1 #
face $-1 -1 $-1 $181 $182 $46 $-1 $183 forward single #
loop $-1 -1 $-1 $-1 $184 $83 #
plane-surface $-1 -1 $-1 -25 -25 -10 -1 0 0 0 0 1 forward_v I I I I #
loop $-1 -1 $-1 $-1 $185 $58 #
coedge $-1 -1 $-1 $129 $129 $186 $187 forward $84 $-1 #
face $-1 -1 $-1 $188 $189 $48 $-1 $190 forward single #
loop $-1 -1 $-1 $-1 $191 $86 #
plane-surface $-1 -1 $-1 -25 -25 5 -1 0 0 0 0 1 forward_v I I I I #
loop $-1 -1 $-1 $-1 $192 $59 #
coedge $-1 -1 $-1 $134 $134 $193 $194 forward $87 $-1 #
model_id-kcp-attrib $-1 -1 $-1 $-1 $90 1 1021324030 1021324030 -686620671 5 #
face $195 -1 $-1 $196 $197 $13 $-1 $198 forward single #
loop $199 -1 $-1 $200 $201 $90 #
cone-surface $-1 -1 $-1 -20 -20 2.5 0 0 1 2 0 0 1 I I 0 1 2 forward I I I I #
model_id-kcp-attrib $-1 -1 $-1 $-1 $91 1 1021324030 1021324030 -686620671 31 #
loop $202 -1 $-1 $-1 $203 $61 #
coedge $-1 -1 $-1 $141 $141 $204 $205 reversed $91 $-1 #
model_id-kcp-attrib $-1 -1 $-1 $-1 $94 1 1021324030 1021324030 -686620671 25 #
coedge $-1 -1 $-1 $143 $143 $206 $207 reversed $94 $-1 #
coedge $-1 -1 $-1 $144 $144 $95 $145 forward $208 $-1 #
edge $209 -1 $-1 $210 0 $210 6.2831853071795862 $144 $211 forward @7 unknown #
coedge $-1 -1 $-1 $146 $146 $97 $147 forward $212 $-1 #
edge $213 -1 $-1 $214 0 $214 6.2831853071795862 $146 $215 forward @7 unknown #
loop $216 -1 $-1 $208 $98 $217 #
attrib_edge_convexity-kcp-attrib $-1 -1 $218 $-1 $99 1 #
vertex $219 -1 $-1 $99 $220 #
ellipse-curve $-1 -1 $-1 20 20 0 0 0 1 2 0 0 1 I I #
model_id-kcp-attrib $-1 -1 $-1 $-1 $101 1 1021324030 1021324030 -686620670 4 #
face $221 -1 $-1 $222 $223 $36 $-1 $224 reversed single #
loop $-1 -1 $-1 $-1 $225 $101 #
plane-surface $-1 -1 $-1 0 -25 0 0 1 0 0 0 1 forward_v I I I I #
coedge $-1 -1 $-1 $226 $227 $228 $229 forward $102 $-1 #
coedge $-1 -1 $-1 $230 $104 $231 $232 forward $69 $-1 #
coedge $-1 -1 $-1 $104 $230 $233 $234 forward $69 $-1 #
coedge $-1 -1 $-1 $235 $236 $104 $160 reversed $237 $-1 #
edge $-1 -1 $-1 $238 -25 $239 25 $159 $240 forward @7 unknown #
loop $-1 -1 $-1 $-1 $241 $105 #
plane-surface $-1 -1 $-1 0 0 2.5 0 0 1 1 0 0 forward_v I I I I #
coedge $-1 -1 $-1 $163 $163 $109 $165 forward $106 $-1 #
coedge $-1 -1 $-1 $164 $164 $241 $242 reversed $108 $-1 #
edge $-1 -1 $-1 $243 0 $243 6.2831853071795862 $163 $244 forward @7 unknown #
loop $-1 -1 $-1 $-1 $245 $110 #
plane-surface $-1 -1 $-1 0 0 2.5 0 0 1 1 0 0 forward_v I I I I #
coedge $-1 -1 $-1 $168 $168 $114 $170 forward $111 $-1 #
coedge $-1 -1 $-1 $169 $169 $245 $246 reversed $113 $-1 #
edge $-1 -1 $-1 $247 0 $247 6.2831853071795862 $168 $248 forward @7 unknown #
loop $-1 -1 $-1 $-1 $249 $115 #
plane-surface $-1 -1 $-1 0 0 2.5 0 0 1 1 0 0 forward_v I I I I #
coedge $-1 -1 $-1 $173 $173 $119 $175 forward $116 $-1 #
coedge $-1 -1 $-1 $174 $174 $249 $250 reversed $118 $-1 #
edge $-1 -1 $-1 $251 0 $251 6.2831853071795862 $173 $252 forward @7 unknown #
loop $-1 -1 $-1 $-1 $253 $120 #
plane-surface $-1 -1 $-1 0 0 2.5 0 0 1 1 0 0 forward_v I I I I #
coedge $-1 -1 $-1 $178 $178 $124 $180 forward $121 $-1 #
coedge $-1 -1 $-1 $179 $179 $253 $254 reversed $123 $-1 #
edge $-1 -1 $-1 $255 0 $255 6.2831853071795862 $178 $256 forward @7 unknown #
face $-1 -1 $-1 $257 $258 $46 $-1 $259 forward single #
loop $-1 -1 $-1 $-1 $260 $125 #
plane-surface $-1 -1 $-1 -25 25 -10 0 1 0 0 0 1 forward_v I I I I #
coedge $-1 -1 $-1 $261 $262 $263 $264 forward $126 $-1 #
coedge $-1 -1 $-1 $185 $185 $265 $266 reversed $128 $-1 #
coedge $-1 -1 $-1 $186 $186 $129 $187 reversed $267 $-1 #
edge $-1 -1 $-1 $268 0 $268 6.2831853071795862 $129 $269 forward @7 unknown #
face $-1 -1 $-1 $270 $271 $48 $-1 $272 forward single #
loop $-1 -1 $-1 $-1 $273 $130 #
plane-surface $-1 -1 $-1 -25 25 5 0 1 0 0 0 1 forward_v I I I I #
coedge $-1 -1 $-1 $274 $275 $276 $277 forward $131 $-1 #
coedge $-1 -1 $-1 $192 $192 $278 $279 reversed $133 $-1 #
coedge $-1 -1 $-1 $193 $193 $134 $194 reversed $280 $-1 #
edge $-1 -1 $-1 $281 0 $281 6.2831853071795862 $134 $282 forward @7 unknown #
model_id-kcp-attrib $-1 -1 $-1 $-1 $136 1 1021324030 1021324030 -686620671 6 #
face $283 -1 $-1 $284 $285 $13 $-1 $286 forward single #
loop $-1 -1 $-1 $287 $288 $136 #
cone-surface $-1 -1 $-1 0 0 25 0 0 1 6 0 0 1 I I 0 1 6 forward I I I I #
model_id-kcp-attrib $-1 -1 $-1 $-1 $137 1 1021324030 1021324030 -686620671 38 #
loop $289 -1 $-1 $-1 $290 $90 #
coedge $-1 -1 $-1 $201 $201 $291 $292 reversed $137 $-1 #
model_id-kcp-attrib $-1 -1 $-1 $-1 $140 1 1021324030 1021324030 -686620671 32 #
coedge $-1 -1 $-1 $203 $203 $293 $294 reversed $140 $-1 #
coedge $-1 -1 $-1 $204 $204 $141 $205 forward $295 $-1 #
edge $296 -1 $-1 $297 0 $297 6.2831853071795862 $204 $298 forward @7 unknown #
coedge $-1 -1 $-1 $206 $206 $143 $207 forward $299 $-1 #
edge $300 -1 $-1 $301 0 $301 6.2831853071795862 $206 $302 forward @7 unknown #
loop $303 -1 $-1 $295 $144 $217 #
attrib_edge_convexity-kcp-attrib $-1 -1 $304 $-1 $145 1 #
vertex $305 -1 $-1 $145 $306 #
ellipse-curve $-1 -1 $-1 20 -20 0 0 0 1 2 0 0 1 I I #
loop $307 -1 $-1 $299 $146 $308 #
attrib_edge_convexity-kcp-attrib $-1 -1 $309 $-1 $147 1 #
vertex $310 -1 $-1 $147 $311 #
ellipse-curve $-1 -1 $-1 20 20 5 0 0 -1 2 0 0 1 I I #
model_id-kcp-attrib $-1 -1 $-1 $-1 $148 1 1021324030 1021324030 -686620671 19 #
face $312 -1 $-1 $313 $148 $13 $-1 $314 reversed single #
convexity-sys-attrib $-1 -1 $-1 $149 $99 #
model_id-kcp-attrib $-1 -1 $-1 $-1 $150 1 1021324030 1021324030 -686620671 21 #
point $-1 -1 $-1 22 20 0 #
model_id-kcp-attrib $-1 -1 $-1 $-1 $153 1 1021324030 1021324030 -686620670 5 #
face $315 -1 $-1 $316 $317 $36 $-1 $318 reversed single #
loop $-1 -1 $-1 $-1 $319 $153 #
plane-surface $-1 -1 $-1 -25 0 0 1 0 0 0 0 -1 forward_v I I I I #
coedge $-1 -1 $-1 $320 $233 $321 $322 forward $154 $-1 #
coedge $-1 -1 $-1 $323 $156 $320 $324 forward $102 $-1 #
coedge $-1 -1 $-1 $156 $323 $325 $326 forward $102 $-1 #
coedge $-1 -1 $-1 $236 $235 $156 $229 reversed $237 $-1 #
edge $-1 -1 $-1 $327 -25 $328 25 $228 $329 forward @7 unknown #
coedge $-1 -1 $-1 $158 $157 $330 $331 forward $69 $-1 #
coedge $-1 -1 $-1 $332 $333 $157 $232 reversed $317 $-1 #
edge $-1 -1 $-1 $239 -25 $334 25 $231 $335 forward @7 unknown #
coedge $-1 -1 $-1 $225 $336 $158 $234 reversed $154 $-1 #
edge $-1 -1 $-1 $337 -25 $238 25 $233 $338 forward @7 unknown #
coedge $-1 -1 $-1 $228 $159 $336 $339 forward $237 $-1 #
coedge $-1 -1 $-1 $159 $228 $332 $340 reversed $237 $-1 #
loop $-1 -1 $-1 $-1 $235 $316 #
vertex $-1 -1 $-1 $160 $341 #
vertex $-1 -1 $-1 $160 $342 #
straight-curve $-1 -1 $-1 25 0 15 0 1 0 I I #
coedge $-1 -1 $-1 $241 $241 $164 $242 forward $161 $-1 #
edge $-1 -1 $-1 $343 0 $343 6.2831853071795862 $241 $344 forward @7 unknown #
vertex $-1 -1 $-1 $165 $345 #
ellipse-curve $-1 -1 $-1 0 0 -2.5 0 0 -1 2 0 0 1 I I #
coedge $-1 -1 $-1 $245 $245 $169 $246 forward $166 $-1 #
edge $-1 -1 $-1 $346 0 $346 6.2831853071795862 $245 $347 forward @7 unknown #
vertex $-1 -1 $-1 $170 $348 #
ellipse-curve $-1 -1 $-1 0 0 -2.5 0 0 -1 2 0 0 1 I I #
coedge $-1 -1 $-1 $249 $249 $174 $250 forward $171 $-1 #
edge $-1 -1 $-1 $349 0 $349 6.2831853071795862 $249 $350 forward @7 unknown #
vertex $-1 -1 $-1 $175 $351 #
ellipse-curve $-1 -1 $-1 0 0 -2.5 0 0 -1 2 0 0 1 I I #
coedge $-1 -1 $-1 $253 $253 $179 $254 forward $176 $-1 #
edge $-1 -1 $-1 $352 0 $352 6.2831853071795862 $253 $353 forward @7 unknown #
vertex $-1 -1 $-1 $180 $354 #
ellipse-curve $-1 -1 $-1 0 0 -2.5 0 0 -1 2 0 0 1 I I #
face $-1 -1 $-1 $355 $356 $46 $-1 $357 forward single #
loop $-1 -1 $-1 $-1 $358 $181 #
plane-surface $-1 -1 $-1 25 25 -10 1 0 0 0 0 -1 forward_v I I I I #
coedge $-1 -1 $-1 $359 $360 $361 $362 forward $182 $-1 #
coedge $-1 -1 $-1 $363 $184 $360 $364 reversed $126 $-1 #
coedge $-1 -1 $-1 $184 $363 $365 $366 forward $126 $-1 #
coedge $-1 -1 $-1 $367 $361 $184 $264 reversed $368 $-1 #
edge $-1 -1 $-1 $369 -25 $370 25 $184 $371 forward @7 unknown #
coedge $-1 -1 $-1 $265 $265 $185 $266 forward $372 $-1 #
edge $373 -1 $-1 $374 0 $374 6.2831853071795862 $185 $375 forward @7 unknown #
loop $-1 -1 $-1 $-1 $186 $355 #
vertex $-1 -1 $-1 $187 $376 #
ellipse-curve $-1 -1 $-1 0 0 5 0 0 1 15 0 0 1 I I #
face $-1 -1 $-1 $377 $378 $48 $-1 $379 forward single #
loop $-1 -1 $-1 $-1 $380 $188 #
plane-surface $-1 -1 $-1 25 25 5 1 0 0 0 0 -1 forward_v I I I I #
coedge $-1 -1 $-1 $381 $382 $383 $384 forward $189 $-1 #
coedge $-1 -1 $-1 $385 $191 $382 $386 reversed $131 $-1 #
coedge $-1 -1 $-1 $191 $385 $387 $388 forward $131 $-1 #
coedge $-1 -1 $-1 $389 $383 $191 $277 reversed $390 $-1 #
edge $-1 -1 $-1 $391 -25 $392 25 $191 $393 forward @7 unknown #
coedge $-1 -1 $-1 $278 $278 $192 $279 forward $394 $-1 #
edge $395 -1 $-1 $396 0 $396 6.2831853071795862 $192 $397 forward @7 unknown #
loop $-1 -1 $-1 $-1 $193 $377 #
vertex $-1 -1 $-1 $194 $398 #
ellipse-curve $-1 -1 $-1 0 0 15 0 0 1 6 0 0 1 I I #
model_id-kcp-attrib $-1 -1 $-1 $-1 $196 1 1021324030 1021324030 -686620671 7 #
face $399 -1 $-1 $400 $401 $13 $-1 $402 forward single #
loop $-1 -1 $-1 $-1 $403 $196 #
plane-surface $-1 -1 $-1 0 0 30 0 0 1 1 0 0 forward_v I I I I #
loop $-1 -1 $-1 $-1 $404 $136 #
coedge $-1 -1 $-1 $288 $288 $405 $406 reversed $197 $-1 #
model_id-kcp-attrib $-1 -1 $-1 $-1 $200 1 1021324030 1021324030 -686620671 39 #
coedge $-1 -1 $-1 $290 $290 $407 $408 reversed $200 $-1 #
coedge $-1 -1 $-1 $291 $291 $201 $292 forward $409 $-1 #
edge $410 -1 $-1 $411 0 $411 6.2831853071795862 $291 $412 forward @7 unknown #
coedge $-1 -1 $-1 $293 $293 $203 $294 forward $413 $-1 #
edge $414 -1 $-1 $415 0 $415 6.2831853071795862 $293 $416 forward @7 unknown #
loop $417 -1 $-1 $409 $204 $217 #
attrib_edge_convexity-kcp-attrib $-1 -1 $418 $-1 $205 1 #
vertex $419 -1 $-1 $205 $420 #
ellipse-curve $-1 -1 $-1 -20 20 0 0 0 1 2 0 0 1 I I #
loop $421 -1 $-1 $413 $206 $308 #
attrib_edge_convexity-kcp-attrib $-1 -1 $422 $-1 $207 1 #
vertex $423 -1 $-1 $207 $424 #
ellipse-curve $-1 -1 $-1 20 -20 5 0 0 -1 2 0 0 1 I I #
model_id-kcp-attrib $-1 -1 $-1 $-1 $208 1 1021324030 1021324030 -686620671 26 #
convexity-sys-attrib $-1 -1 $-1 $209 $145 #
model_id-kcp-attrib $-1 -1 $-1 $-1 $210 1 1021324030 1021324030 -686620671 28 #
point $-1 -1 $-1 22 -20 0 #
model_id-kcp-attrib $-1 -1 $-1 $-1 $212 1 1021324030 1021324030 -686620671 20 #
face $425 -1 $-1 $217 $212 $13 $-1 $426 forward single #
convexity-sys-attrib $-1 -1 $-1 $213 $147 #
model_id-kcp-attrib $-1 -1 $-1 $-1 $214 1 1021324030 1021324030 -686620671 22 #
point $-1 -1 $-1 22 20 5 #
model_id-kcp-attrib $-1 -1 $-1 $-1 $217 1 1021324030 1021324030 -686620671 11 #
face $427 -1 $-1 $428 $429 $13 $-1 $430 reversed single #
plane-surface $-1 -1 $-1 0 0 0 0 0 1 1 0 0 forward_v I I I I #
model_id-kcp-attrib $-1 -1 $-1 $-1 $222 1 1021324030 1021324030 -686620670 6 #
face $431 -1 $-1 $-1 $237 $36 $-1 $432 reversed single #
loop $-1 -1 $-1 $-1 $332 $222 #
plane-surface $-1 -1 $-1 0 25 0 0 -1 0 0 0 -1 forward_v I I I I #
coedge $-1 -1 $-1 $433 $330 $333 $434 forward $223 $-1 #
coedge $-1 -1 $-1 $336 $225 $226 $324 reversed $154 $-1 #
coedge $-1 -1 $-1 $330 $433 $225 $322 reversed $223 $-1 #
edge $-1 -1 $-1 $337 -15 $435 15 $321 $436 forward @7 unknown #
coedge $-1 -1 $-1 $227 $226 $433 $437 forward $102 $-1 #
edge $-1 -1 $-1 $328 -25 $435 25 $320 $438 forward @7 unknown #
coedge $-1 -1 $-1 $333 $332 $227 $326 reversed $317 $-1 #
edge $-1 -1 $-1 $439 -25 $327 25 $325 $440 forward @7 unknown #
vertex $-1 -1 $-1 $229 $441 #
vertex $-1 -1 $-1 $339 $442 #
straight-curve $-1 -1 $-1 25 0 -15 0 -1 0 I I #
coedge $-1 -1 $-1 $319 $321 $230 $331 reversed $223 $-1 #
edge $-1 -1 $-1 $334 -25 $337 25 $330 $443 forward @7 unknown #
coedge $-1 -1 $-1 $325 $231 $236 $340 forward $317 $-1 #
coedge $-1 -1 $-1 $231 $325 $319 $434 reversed $317 $-1 #
vertex $-1 -1 $-1 $232 $444 #
straight-curve $-1 -1 $-1 0 25 15 -1 0 0 I I #
coedge $-1 -1 $-1 $233 $320 $235 $339 reversed $154 $-1 #
vertex $-1 -1 $-1 $331 $445 #
straight-curve $-1 -1 $-1 0 -25 15 1 0 0 I I #
edge $-1 -1 $-1 $238 -15 $328 15 $235 $446 forward @7 unknown #
edge $-1 -1 $-1 $239 -15 $327 15 $236 $447 forward @7 unknown #
point $-1 -1 $-1 25 -25 15 #
point $-1 -1 $-1 25 25 15 #
vertex $-1 -1 $-1 $242 $448 #
ellipse-curve $-1 -1 $-1 0 0 2.5 0 0 1 2 0 0 1 I I #
point $-1 -1 $-1 2 0 -2.5 #
vertex $-1 -1 $-1 $246 $449 #
ellipse-curve $-1 -1 $-1 0 0 2.5 0 0 1 2 0 0 1 I I #
point $-1 -1 $-1 2 0 -2.5 #
vertex $-1 -1 $-1 $250 $450 #
ellipse-curve $-1 -1 $-1 0 0 2.5 0 0 1 2 0 0 1 I I #
point $-1 -1 $-1 2 0 -2.5 #
vertex $-1 -1 $-1 $254 $451 #
ellipse-curve $-1 -1 $-1 0 0 2.5 0 0 1 2 0 0 1 I I #
point $-1 -1 $-1 2 0 -2.5 #
face $-1 -1 $-1 $452 $368 $46 $-1 $453 forward single #
loop $-1 -1 $-1 $-1 $454 $257 #
plane-surface $-1 -1 $-1 25 -25 -10 0 -1 0 0 0 -1 forward_v I I I I #
coedge $-1 -1 $-1 $455 $456 $457 $458 forward $258 $-1 #
coedge $-1 -1 $-1 $459 $260 $456 $460 reversed $182 $-1 #
coedge $-1 -1 $-1 $260 $459 $261 $364 forward $182 $-1 #
coedge $-1 -1 $-1 $263 $457 $260 $362 reversed $368 $-1 #
edge $-1 -1 $-1 $370 -25 $461 25 $260 $462 forward @7 unknown #
coedge $-1 -1 $-1 $262 $261 $463 $464 reversed $126 $-1 #
edge $-1 -1 $-1 $465 0 $370 15 $360 $466 forward @7 unknown #
coedge $-1 -1 $-1 $467 $454 $262 $366 reversed $356 $-1 #
edge $-1 -1 $-1 $468 0 $369 15 $262 $469 forward @7 unknown #
coedge $-1 -1 $-1 $457 $263 $454 $470 reversed $368 $-1 #
loop $-1 -1 $-1 $267 $263 $355 #
vertex $-1 -1 $-1 $366 $471 #
vertex $-1 -1 $-1 $364 $472 #
straight-curve $-1 -1 $-1 -25 0 5 0 1 0 I I #
loop $-1 -1 $-1 $-1 $265 $452 #
convexity-sys-attrib $-1 -1 $-1 $-1 $266 #
vertex $-1 -1 $-1 $266 $473 #
ellipse-curve $-1 -1 $-1 0 0 -10 0 0 1 15 0 0 1 I I #
point $-1 -1 $-1 15 0 5 #
face $-1 -1 $-1 $474 $390 $48 $-1 $475 forward single #
loop $-1 -1 $-1 $-1 $476 $270 #
plane-surface $-1 -1 $-1 25 -25 5 0 -1 0 0 0 -1 forward_v I I I I #
coedge $-1 -1 $-1 $477 $478 $479 $480 forward $271 $-1 #
coedge $-1 -1 $-1 $481 $273 $478 $482 reversed $189 $-1 #
coedge $-1 -1 $-1 $273 $481 $274 $386 forward $189 $-1 #
coedge $-1 -1 $-1 $276 $479 $273 $384 reversed $390 $-1 #
edge $-1 -1 $-1 $392 -25 $483 25 $273 $484 forward @7 unknown #
coedge $-1 -1 $-1 $275 $274 $485 $486 reversed $131 $-1 #
edge $-1 -1 $-1 $487 0 $392 10 $382 $488 forward @7 unknown #
coedge $-1 -1 $-1 $489 $476 $275 $388 reversed $378 $-1 #
edge $-1 -1 $-1 $490 0 $391 10 $275 $491 forward @7 unknown #
coedge $-1 -1 $-1 $479 $276 $476 $492 reversed $390 $-1 #
loop $-1 -1 $-1 $280 $276 $377 #
vertex $-1 -1 $-1 $388 $493 #
vertex $-1 -1 $-1 $386 $494 #
straight-curve $-1 -1 $-1 -25 0 15 0 1 0 I I #
loop $-1 -1 $-1 $-1 $278 $474 #
convexity-sys-attrib $-1 -1 $-1 $-1 $279 #
vertex $-1 -1 $-1 $279 $495 #
ellipse-curve $-1 -1 $-1 0 0 5 0 0 1 6 0 0 1 I I #
point $-1 -1 $-1 6 0 15 #
model_id-kcp-attrib $-1 -1 $-1 $-1 $284 1 1021324030 1021324030 -686620671 8 #
face $496 -1 $-1 $308 $497 $13 $-1 $498 forward single #
loop $-1 -1 $-1 $499 $500 $284 #
cone-surface $-1 -1 $-1 0 0 12.5 0 0 1 15 0 0 1 I I 0 1 15 forward I I I I #
coedge $-1 -1 $-1 $403 $403 $404 $501 forward $285 $-1 #
coedge $-1 -1 $-1 $404 $404 $403 $501 reversed $287 $-1 #
coedge $-1 -1 $-1 $405 $405 $288 $406 forward $497 $-1 #
edge $502 -1 $-1 $503 0 $503 6.2831853071795862 $405 $504 forward @7 unknown #
coedge $-1 -1 $-1 $407 $407 $290 $408 forward $505 $-1 #
edge $506 -1 $-1 $507 0 $507 6.2831853071795862 $407 $508 forward @7 unknown #
loop $509 -1 $-1 $510 $291 $217 #
attrib_edge_convexity-kcp-attrib $-1 -1 $511 $-1 $292 1 #
vertex $512 -1 $-1 $292 $513 #
ellipse-curve $-1 -1 $-1 -20 -20 0 0 0 1 2 0 0 1 I I #
loop $514 -1 $-1 $505 $293 $308 #
attrib_edge_convexity-kcp-attrib $-1 -1 $515 $-1 $294 1 #
vertex $516 -1 $-1 $294 $517 #
ellipse-curve $-1 -1 $-1 -20 20 5 0 0 -1 2 0 0 1 I I #
model_id-kcp-attrib $-1 -1 $-1 $-1 $295 1 1021324030 1021324030 -686620671 33 #
convexity-sys-attrib $-1 -1 $-1 $296 $205 #
model_id-kcp-attrib $-1 -1 $-1 $-1 $297 1 1021324030 1021324030 -686620671 35 #
point $-1 -1 $-1 -18 20 0 #
model_id-kcp-attrib $-1 -1 $-1 $-1 $299 1 1021324030 1021324030 -686620671 27 #
convexity-sys-attrib $-1 -1 $-1 $300 $207 #
model_id-kcp-attrib $-1 -1 $-1 $-1 $301 1 1021324030 1021324030 -686620671 29 #
point $-1 -1 $-1 22 -20 5 #
model_id-kcp-attrib $-1 -1 $-1 $-1 $308 1 1021324030 1021324030 -686620671 10 #
plane-surface $-1 -1 $-1 0 0 5 0 0 1 1 0 0 forward_v I I I I #
model_id-kcp-attrib $-1 -1 $-1 $-1 $313 1 1021324030 1021324030 -686620671 12 #
face $518 -1 $-1 $519 $520 $13 $-1 $521 reversed single #
loop $-1 -1 $-1 $-1 $522 $313 #
plane-surface $-1 -1 $-1 0 -25 2.5 0 1 0 0 0 1 forward_v I I I I #
model_id-kcp-attrib $-1 -1 $-1 $-1 $316 1 1021324030 1021324030 -686620670 7 #
plane-surface $-1 -1 $-1 25 0 0 -1 0 0 0 0 1 forward_v I I I I #
coedge $-1 -1 $-1 $321 $319 $323 $437 reversed $223 $-1 #
edge $-1 -1 $-1 $334 -15 $439 15 $333 $523 forward @7 unknown #
vertex $-1 -1 $-1 $437 $524 #
straight-curve $-1 -1 $-1 -25 -25 0 0 0 -1 I I #
edge $-1 -1 $-1 $435 -25 $439 25 $433 $525 forward @7 unknown #
straight-curve $-1 -1 $-1 0 -25 -15 -1 0 0 I I #
vertex $-1 -1 $-1 $326 $526 #
straight-curve $-1 -1 $-1 0 25 -15 1 0 0 I I #
point $-1 -1 $-1 25 25 -15 #
point $-1 -1 $-1 25 -25 -15 #
straight-curve $-1 -1 $-1 -25 0 15 0 -1 0 I I #
point $-1 -1 $-1 -25 25 15 #
point $-1 -1 $-1 -25 -25 15 #
straight-curve $-1 -1 $-1 25 -25 0 0 0 -1 I I #
straight-curve $-1 -1 $-1 25 25 0 0 0 -1 I I #
point $-1 -1 $-1 2 0 2.5 #
point $-1 -1 $-1 2 0 2.5 #
point $-1 -1 $-1 2 0 2.5 #
point $-1 -1 $-1 2 0 2.5 #
face $-1 -1 $-1 $-1 $527 $46 $-1 $528 reversed single #
plane-surface $-1 -1 $-1 0.43677372735449693 -2.1042397605440006e-016 5 0 0 1 1 0 0 forward_v I I I I #
coedge $-1 -1 $-1 $365 $529 $367 $470 forward $356 $-1 #
coedge $-1 -1 $-1 $530 $358 $529 $531 reversed $258 $-1 #
coedge $-1 -1 $-1 $358 $530 $359 $460 forward $258 $-1 #
coedge $-1 -1 $-1 $361 $367 $358 $458 reversed $368 $-1 #
edge $-1 -1 $-1 $461 -25 $532 25 $358 $533 forward @7 unknown #
coedge $-1 -1 $-1 $360 $359 $534 $535 reversed $182 $-1 #
edge $-1 -1 $-1 $536 0 $461 15 $456 $537 forward @7 unknown #
vertex $-1 -1 $-1 $460 $538 #
straight-curve $-1 -1 $-1 0 25 5 1 0 0 I I #
coedge $-1 -1 $-1 $534 $539 $363 $464 forward $527 $-1 #
edge $540 -1 $-1 $468 -25 $465 25 $363 $541 forward @7 unknown #
vertex $-1 -1 $-1 $464 $542 #
straight-curve $-1 -1 $-1 -25 25 -10 0 0 1 I I #
coedge $-1 -1 $-1 $529 $365 $539 $543 reversed $356 $-1 #
vertex $-1 -1 $-1 $543 $544 #
straight-curve $-1 -1 $-1 -25 -25 -10 0 0 1 I I #
edge $-1 -1 $-1 $532 -25 $369 25 $454 $545 forward @7 unknown #
point $-1 -1 $-1 -25 -25 5 #
point $-1 -1 $-1 -25 25 5 #
point $-1 -1 $-1 15 0 -10 #
face $-1 -1 $-1 $-1 $546 $48 $-1 $547 reversed single #
plane-surface $-1 -1 $-1 0.086509165957595752 -2.1187934859109265e-017 15 0 0 1 1 0 0 forward_v I I I I #
coedge $-1 -1 $-1 $387 $548 $389 $492 forward $378 $-1 #
coedge $-1 -1 $-1 $549 $380 $548 $550 reversed $271 $-1 #
coedge $-1 -1 $-1 $380 $549 $381 $482 forward $271 $-1 #
coedge $-1 -1 $-1 $383 $389 $380 $480 reversed $390 $-1 #
edge $-1 -1 $-1 $483 -25 $551 25 $380 $552 forward @7 unknown #
coedge $-1 -1 $-1 $382 $381 $553 $554 reversed $189 $-1 #
edge $-1 -1 $-1 $555 0 $483 10 $478 $556 forward @7 unknown #
vertex $-1 -1 $-1 $482 $557 #
straight-curve $-1 -1 $-1 0 25 15 1 0 0 I I #
coedge $-1 -1 $-1 $553 $558 $385 $486 forward $546 $-1 #
edge $559 -1 $-1 $490 -25 $487 25 $385 $560 forward @7 unknown #
vertex $-1 -1 $-1 $486 $561 #
straight-curve $-1 -1 $-1 -25 25 5 0 0 1 I I #
coedge $-1 -1 $-1 $548 $387 $558 $562 reversed $378 $-1 #
vertex $-1 -1 $-1 $562 $563 #
straight-curve $-1 -1 $-1 -25 -25 5 0 0 1 I I #
edge $-1 -1 $-1 $551 -25 $391 25 $476 $564 forward @7 unknown #
point $-1 -1 $-1 -25 -25 15 #
point $-1 -1 $-1 -25 25 15 #
point $-1 -1 $-1 6 0 5 #
model_id-kcp-attrib $-1 -1 $-1 $-1 $400 1 1021324030 1021324030 -686620671 9 #
loop $-1 -1 $-1 $565 $405 $400 #
plane-surface $-1 -1 $-1 0 0 20 0 0 1 1 0 0 forward_v I I I I #
loop $-1 -1 $-1 $-1 $566 $284 #
coedge $-1 -1 $-1 $500 $500 $567 $568 reversed $401 $-1 #
edge $569 -1 $-1 $570 0 $570 6.2831853071795862 $403 $571 forward @7 unknown #
attrib_edge_convexity-kcp-attrib $-1 -1 $572 $-1 $406 2 #
vertex $-1 -1 $-1 $406 $573 #
ellipse-curve $-1 -1 $-1 0 0 20 0 0 -1 6 0 0 1 I I #
loop $574 -1 $-1 $575 $407 $308 #
attrib_edge_convexity-kcp-attrib $-1 -1 $576 $-1 $408 1 #
vertex $577 -1 $-1 $408 $578 #
ellipse-curve $-1 -1 $-1 -20 -20 5 0 0 -1 2 0 0 1 I I #
model_id-kcp-attrib $-1 -1 $-1 $-1 $409 1 1021324030 1021324030 -686620671 40 #
loop $-1 -1 $-1 $-1 $579 $217 #
convexity-sys-attrib $-1 -1 $-1 $410 $292 #
model_id-kcp-attrib $-1 -1 $-1 $-1 $411 1 1021324030 1021324030 -686620671 42 #
point $-1 -1 $-1 -18 -20 0 #
model_id-kcp-attrib $-1 -1 $-1 $-1 $413 1 1021324030 1021324030 -686620671 34 #
convexity-sys-attrib $-1 -1 $-1 $414 $294 #
model_id-kcp-attrib $-1 -1 $-1 $-1 $415 1 1021324030 1021324030 -686620671 36 #
point $-1 -1 $-1 -18 20 5 #
model_id-kcp-attrib $-1 -1 $-1 $-1 $428 1 1021324030 1021324030 -686620671 13 #
face $580 -1 $-1 $581 $582 $13 $-1 $583 reversed single #
loop $-1 -1 $-1 $-1 $584 $428 #
plane-surface $-1 -1 $-1 -25 0 2.5 1 0 0 0 0 -1 forward_v I I I I #
coedge $-1 -1 $-1 $585 $586 $587 $588 forward $429 $-1 #
straight-curve $-1 -1 $-1 -25 25 0 0 0 -1 I I #
point $-1 -1 $-1 -25 -25 -15 #
straight-curve $-1 -1 $-1 -25 0 -15 0 1 0 I I #
point $-1 -1 $-1 -25 25 -15 #
loop $-1 -1 $-1 $372 $539 $452 #
plane-surface $-1 -1 $-1 0.43677372735449693 -2.1042397605440006e-016 -10 0 0 1 1 0 0 forward_v I I I I #
coedge $-1 -1 $-1 $454 $467 $455 $531 forward $356 $-1 #
coedge $-1 -1 $-1 $456 $455 $589 $590 reversed $258 $-1 #
edge $-1 -1 $-1 $591 0 $532 15 $529 $592 forward @7 unknown #
vertex $-1 -1 $-1 $531 $593 #
straight-curve $-1 -1 $-1 25 0 5 0 -1 0 I I #
coedge $-1 -1 $-1 $589 $463 $459 $535 forward $527 $-1 #
edge $594 -1 $-1 $465 -25 $536 25 $459 $595 forward @7 unknown #
vertex $-1 -1 $-1 $535 $596 #
straight-curve $-1 -1 $-1 25 25 -10 0 0 1 I I #
point $-1 -1 $-1 25 25 5 #
coedge $-1 -1 $-1 $463 $589 $467 $543 forward $527 $-1 #
convexity-sys-attrib $-1 -1 $-1 $-1 $464 #
straight-curve $-1 -1 $-1 -25 0 -10 0 1 0 I I #
point $-1 -1 $-1 -25 25 -10 #
edge $597 -1 $-1 $591 -25 $468 25 $467 $598 forward @7 unknown #
point $-1 -1 $-1 -25 -25 -10 #
straight-curve $-1 -1 $-1 0 -25 5 -1 0 0 I I #
loop $-1 -1 $-1 $394 $558 $474 #
plane-surface $-1 -1 $-1 0.086509165957595752 -2.1187934859109265e-017 5.0000000000000009 0 0 1 1 0 0 forward_v I I I I #
coedge $-1 -1 $-1 $476 $489 $477 $550 forward $378 $-1 #
coedge $-1 -1 $-1 $478 $477 $599 $600 reversed $271 $-1 #
edge $-1 -1 $-1 $601 0 $551 10 $548 $602 forward @7 unknown #
vertex $-1 -1 $-1 $550 $603 #
straight-curve $-1 -1 $-1 25 0 15 0 -1 0 I I #
coedge $-1 -1 $-1 $599 $485 $481 $554 forward $546 $-1 #
edge $604 -1 $-1 $487 -25 $555 25 $481 $605 forward @7 unknown #
vertex $-1 -1 $-1 $554 $606 #
straight-curve $-1 -1 $-1 25 25 5 0 0 1 I I #
point $-1 -1 $-1 25 25 15 #
coedge $-1 -1 $-1 $485 $599 $489 $562 forward $546 $-1 #
convexity-sys-attrib $-1 -1 $-1 $-1 $486 #
straight-curve $-1 -1 $-1 -25 0 5 0 1 0 I I #
point $-1 -1 $-1 -25 25 5 #
edge $607 -1 $-1 $601 -25 $490 25 $489 $608 forward @7 unknown #
point $-1 -1 $-1 -25 -25 5 #
straight-curve $-1 -1 $-1 0 -25 15 -1 0 0 I I #
loop $-1 -1 $-1 $-1 $609 $400 #
coedge $-1 -1 $-1 $566 $566 $609 $610 reversed $499 $-1 #
coedge $-1 -1 $-1 $567 $567 $500 $568 forward $575 $-1 #
edge $611 -1 $-1 $612 0 $612 6.2831853071795862 $567 $613 forward @7 unknown #
attrib_edge_convexity-kcp-attrib $-1 -1 $614 $-1 $501 1 #
vertex $-1 -1 $-1 $501 $615 #
ellipse-curve $-1 -1 $-1 0 0 30 0 0 1 6 0 0 1 I I #
convexity-sys-attrib $-1 -1 $-1 $502 $406 #
point $-1 -1 $-1 6 0 20 #
model_id-kcp-attrib $-1 -1 $-1 $-1 $505 1 1021324030 1021324030 -686620671 41 #
loop $-1 -1 $-1 $616 $567 $308 #
convexity-sys-attrib $-1 -1 $-1 $506 $408 #
model_id-kcp-attrib $-1 -1 $-1 $-1 $507 1 1021324030 1021324030 -686620671 43 #
point $-1 -1 $-1 -18 -20 5 #
coedge $-1 -1 $-1 $617 $618 $619 $620 forward $510 $-1 #
model_id-kcp-attrib $-1 -1 $-1 $-1 $519 1 1021324030 1021324030 -686620671 14 #
face $621 -1 $-1 $-1 $622 $13 $-1 $623 reversed single #
loop $-1 -1 $-1 $-1 $624 $519 #
plane-surface $-1 -1 $-1 0 25 2.5 0 -1 0 0 0 -1 forward_v I I I I #
coedge $-1 -1 $-1 $625 $626 $627 $628 forward $520 $-1 #
coedge $-1 -1 $-1 $629 $522 $617 $630 reversed $429 $-1 #
coedge $-1 -1 $-1 $522 $629 $631 $632 reversed $429 $-1 #
coedge $-1 -1 $-1 $626 $625 $522 $588 reversed $520 $-1 #
edge $633 -1 $-1 $634 -2.5 $635 2.5 $587 $636 forward @7 unknown #
coedge $-1 -1 $-1 $539 $534 $530 $590 forward $527 $-1 #
edge $637 -1 $-1 $536 -25 $591 25 $530 $638 forward @7 unknown #
vertex $-1 -1 $-1 $543 $639 #
straight-curve $-1 -1 $-1 25 -25 -10 0 0 1 I I #
point $-1 -1 $-1 25 -25 5 #
convexity-sys-attrib $-1 -1 $-1 $-1 $535 #
straight-curve $-1 -1 $-1 0 25 -10 1 0 0 I I #
point $-1 -1 $-1 25 25 -10 #
convexity-sys-attrib $-1 -1 $-1 $-1 $543 #
straight-curve $-1 -1 $-1 0 -25 -10 -1 0 0 I I #
coedge $-1 -1 $-1 $558 $553 $549 $600 forward $546 $-1 #
edge $640 -1 $-1 $555 -25 $601 25 $549 $641 forward @7 unknown #
vertex $-1 -1 $-1 $562 $642 #
straight-curve $-1 -1 $-1 25 -25 5 0 0 1 I I #
point $-1 -1 $-1 25 -25 15 #
convexity-sys-attrib $-1 -1 $-1 $-1 $554 #
straight-curve $-1 -1 $-1 0 25 5 1 0 0 I I #
point $-1 -1 $-1 25 25 5 #
convexity-sys-attrib $-1 -1 $-1 $-1 $562 #
straight-curve $-1 -1 $-1 0 -25 5 -1 0 0 I I #
coedge $-1 -1 $-1 $609 $609 $566 $610 forward $565 $-1 #
edge $643 -1 $-1 $644 0 $644 6.2831853071795862 $609 $645 forward @7 unknown #
attrib_edge_convexity-kcp-attrib $-1 -1 $646 $-1 $568 2 #
vertex $-1 -1 $-1 $568 $647 #
ellipse-curve $-1 -1 $-1 0 0 5 0 0 -1 15 0 0 1 I I #
convexity-sys-attrib $-1 -1 $-1 $569 $501 #
point $-1 -1 $-1 6 0 30 #
loop $-1 -1 $-1 $-1 $648 $308 #
coedge $-1 -1 $-1 $649 $579 $585 $630 forward $510 $-1 #
coedge $-1 -1 $-1 $579 $649 $650 $651 forward $510 $-1 #
coedge $-1 -1 $-1 $652 $653 $579 $620 reversed $622 $-1 #
edge $-1 -1 $-1 $654 -25 $655 25 $619 $656 forward @7 unknown #
model_id-kcp-attrib $-1 -1 $-1 $-1 $581 1 1021324030 1021324030 -686620671 15 #
loop $-1 -1 $-1 $-1 $653 $581 #
plane-surface $-1 -1 $-1 25 0 2.5 -1 0 0 0 0 1 forward_v I I I I #
coedge $-1 -1 $-1 $650 $657 $652 $658 forward $582 $-1 #
coedge $-1 -1 $-1 $587 $584 $649 $659 reversed $520 $-1 #
coedge $-1 -1 $-1 $584 $587 $660 $661 reversed $520 $-1 #
coedge $-1 -1 $-1 $657 $650 $584 $628 reversed $582 $-1 #
edge $662 -1 $-1 $663 -2.5 $664 2.5 $627 $665 forward @7 unknown #
coedge $-1 -1 $-1 $586 $585 $653 $666 reversed $429 $-1 #
edge $667 -1 $-1 $655 -25 $635 25 $585 $668 forward @7 unknown #
coedge $-1 -1 $-1 $648 $660 $586 $632 forward $616 $-1 #
edge $669 -1 $-1 $634 -25 $670 25 $586 $671 forward @7 unknown #
attrib_edge_convexity-kcp-attrib $-1 -1 $672 $-1 $588 1 #
vertex $-1 -1 $-1 $661 $673 #
vertex $-1 -1 $-1 $659 $674 #
straight-curve $-1 -1 $-1 -25 -25 2.5 0 0 -1 I I #
convexity-sys-attrib $-1 -1 $-1 $-1 $590 #
straight-curve $-1 -1 $-1 25 0 -10 0 -1 0 I I #
point $-1 -1 $-1 25 -25 -10 #
convexity-sys-attrib $-1 -1 $-1 $-1 $600 #
straight-curve $-1 -1 $-1 25 0 5 0 -1 0 I I #
point $-1 -1 $-1 25 -25 5 #
attrib_edge_convexity-kcp-attrib $-1 -1 $675 $-1 $610 1 #
vertex $-1 -1 $-1 $610 $676 #
ellipse-curve $-1 -1 $-1 0 0 20 0 0 1 15 0 0 1 I I #
convexity-sys-attrib $-1 -1 $-1 $611 $568 #
point $-1 -1 $-1 15 0 5 #
coedge $-1 -1 $-1 $677 $631 $678 $679 forward $616 $-1 #
coedge $-1 -1 $-1 $618 $617 $625 $659 forward $510 $-1 #
coedge $-1 -1 $-1 $627 $624 $618 $651 reversed $582 $-1 #
edge $-1 -1 $-1 $664 -25 $654 25 $650 $680 forward @7 unknown #
coedge $-1 -1 $-1 $678 $619 $624 $658 reversed $622 $-1 #
coedge $-1 -1 $-1 $619 $678 $629 $666 forward $622 $-1 #
vertex $-1 -1 $-1 $620 $681 #
vertex $-1 -1 $-1 $666 $682 #
straight-curve $-1 -1 $-1 25 0 0 0 -1 0 I I #
coedge $-1 -1 $-1 $624 $627 $677 $683 reversed $582 $-1 #
edge $-1 -1 $-1 $684 -2.5 $654 2.5 $652 $685 forward @7 unknown #
edge $686 -1 $-1 $635 -25 $664 25 $625 $687 forward @7 unknown #
coedge $-1 -1 $-1 $631 $677 $626 $661 forward $616 $-1 #
edge $688 -1 $-1 $663 -25 $634 25 $626 $689 forward @7 unknown #
attrib_edge_convexity-kcp-attrib $-1 -1 $690 $-1 $628 1 #
vertex $-1 -1 $-1 $683 $691 #
vertex $-1 -1 $-1 $651 $692 #
straight-curve $-1 -1 $-1 -25 25 2.5 0 0 -1 I I #
edge $693 -1 $-1 $670 -2.5 $655 2.5 $653 $694 forward @7 unknown #
attrib_edge_convexity-kcp-attrib $-1 -1 $695 $-1 $630 1 #
straight-curve $-1 -1 $-1 0 -25 0 -1 0 0 I I #
attrib_edge_convexity-kcp-attrib $-1 -1 $696 $-1 $632 1 #
vertex $-1 -1 $-1 $679 $697 #
straight-curve $-1 -1 $-1 0 -25 5 1 0 0 I I #
convexity-sys-attrib $-1 -1 $-1 $633 $588 #
point $-1 -1 $-1 -25 -25 5 #
point $-1 -1 $-1 -25 -25 0 #
convexity-sys-attrib $-1 -1 $-1 $643 $610 #
point $-1 -1 $-1 15 0 20 #
coedge $-1 -1 $-1 $660 $648 $657 $683 forward $616 $-1 #
coedge $-1 -1 $-1 $653 $652 $648 $679 reversed $622 $-1 #
edge $698 -1 $-1 $670 -25 $684 25 $678 $699 forward @7 unknown #
straight-curve $-1 -1 $-1 0 25 0 1 0 0 I I #
point $-1 -1 $-1 25 25 0 #
point $-1 -1 $-1 25 -25 0 #
edge $700 -1 $-1 $684 -25 $663 25 $657 $701 forward @7 unknown #
vertex $-1 -1 $-1 $679 $702 #
straight-curve $-1 -1 $-1 25 25 2.5 0 0 -1 I I #
attrib_edge_convexity-kcp-attrib $-1 -1 $703 $-1 $659 1 #
straight-curve $-1 -1 $-1 -25 0 0 0 1 0 I I #
attrib_edge_convexity-kcp-attrib $-1 -1 $704 $-1 $661 1 #
straight-curve $-1 -1 $-1 -25 0 5 0 -1 0 I I #
convexity-sys-attrib $-1 -1 $-1 $662 $628 #
point $-1 -1 $-1 -25 25 5 #
point $-1 -1 $-1 -25 25 0 #
attrib_edge_convexity-kcp-attrib $-1 -1 $705 $-1 $666 1 #
straight-curve $-1 -1 $-1 25 -25 2.5 0 0 -1 I I #
convexity-sys-attrib $-1 -1 $-1 $667 $630 #
convexity-sys-attrib $-1 -1 $-1 $669 $632 #
point $-1 -1 $-1 25 -25 5 #
attrib_edge_convexity-kcp-attrib $-1 -1 $706 $-1 $679 1 #
straight-curve $-1 -1 $-1 25 0 5 0 1 0 I I #
attrib_edge_convexity-kcp-attrib $-1 -1 $707 $-1 $683 1 #
straight-curve $-1 -1 $-1 0 25 5 -1 0 0 I I #
point $-1 -1 $-1 25 25 5 #
convexity-sys-attrib $-1 -1 $-1 $686 $659 #
convexity-sys-attrib $-1 -1 $-1 $688 $661 #
convexity-sys-attrib $-1 -1 $-1 $693 $666 #
convexity-sys-attrib $-1 -1 $-1 $698 $679 #
convexity-sys-attrib $-1 -1 $-1 $700 $683 #
End-of-ACIS-data 