600 0 1 0           
84 GICL ACIS Healer - Source: /gicl/data5/repository/CMU/seeker/seeker/screw1.sat - 6 0 18 ACIS 6.0.3 Solaris 24 Sat Apr 13 00:31:35 2002 
1 9.999999999999999547e-07 1.000000000000000036e-10 
body $1 $2 $-1 $-1 #
rgb_color-st-attrib $-1 $-1 $-1 $0 0 1 0 #
lump $-1 $-1 $3 $0 #
shell $-1 $-1 $-1 $4 $-1 $2 #
face $-1 $5 $6 $3 $-1 $7 forward single #
face $-1 $8 $9 $3 $-1 $10 forward single #
loop $-1 $-1 $11 $4 #
plane-surface $-1 -0.7499779996773239255 1.298999999999999932 -4 0.500000000000000111 -0.8660254037844385966 0 0 0 -1 forward_v I I I I #
face $-1 $12 $13 $3 $-1 $14 forward single #
loop $-1 $-1 $15 $5 #
plane-surface $-1 -1.499955999354647629 -2.775557561562891351e-16 -4 1 2.564025461028074991e-16 0 0 0 -1 forward_v I I I I #
coedge $-1 $16 $17 $18 $19 reversed $6 $-1 #
face $-1 $20 $21 $3 $-1 $22 reversed single #
loop $-1 $-1 $23 $8 #
plane-surface $-1 -0.7499779996773237034 -1.299000000000000155 -4 0.4999999999999999445 0.8660254037844387076 0 0 0 1 forward_v I I I I #
coedge $-1 $24 $25 $26 $27 reversed $9 $-1 #
coedge $-1 $28 $11 $29 $30 reversed $6 $-1 #
coedge $-1 $11 $28 $24 $31 forward $6 $-1 #
coedge $-1 $26 $32 $11 $19 forward $33 $-1 #
edge $-1 $34 -0.866000000000000103 $35 0.866000000000000103 $18 $36 forward 7 unknown #
face $-1 $37 $38 $3 $-1 $39 forward single #
loop $-1 $-1 $40 $12 #
plane-surface $-1 0 0 -1 0 0 1 1 0 0 forward_v I I I I #
coedge $-1 $41 $42 $43 $44 reversed $13 $-1 #
coedge $-1 $45 $15 $17 $31 reversed $9 $-1 #
coedge $-1 $15 $45 $41 $46 forward $9 $-1 #
coedge $-1 $43 $18 $15 $27 forward $33 $-1 #
edge $-1 $35 -0.866000000000000103 $47 0.865999999999999992 $26 $48 forward 7 unknown #
coedge $-1 $17 $16 $49 $50 forward $6 $-1 #
coedge $-1 $51 $52 $16 $30 forward $53 $-1 #
edge $-1 $54 -3 $34 0 $29 $55 forward 7 unknown #
edge $-1 $56 -3 $35 0 $17 $57 forward 7 unknown #
coedge $-1 $18 $58 $51 $59 forward $33 $-1 #
loop $-1 $60 $61 $62 #
vertex $-1 $19 $63 #
vertex $-1 $27 $64 #
straight-curve $-1 -0.7499779996773239255 1.298999999999999932 -4 -0.8660254037844385966 -0.500000000000000111 0 I I #
face $-1 $65 $53 $3 $-1 $66 forward single #
loop $-1 $-1 $67 $20 #
plane-surface $-1 0.7499779996773238144 -1.298999999999999932 -4 -0.5 0.8660254037844387076 0 0 0 1 forward_v I I I I #
coedge $-1 $68 $69 $70 $71 reversed $21 $-1 #
coedge $-1 $72 $23 $25 $46 reversed $13 $-1 #
coedge $-1 $23 $72 $73 $74 forward $13 $-1 #
coedge $-1 $61 $26 $23 $44 forward $33 $-1 #
edge $-1 $47 -0.86599999999999977 $75 0.86599999999999977 $43 $76 forward 7 unknown #
coedge $-1 $25 $24 $77 $78 forward $9 $-1 #
edge $-1 $79 -3 $47 0 $25 $80 forward 7 unknown #
vertex $-1 $44 $81 #
straight-curve $-1 -1.499955999354647629 -3.310741467165008999e-16 -4 2.564025461028074991e-16 -1 0 I I #
coedge $-1 $69 $77 $28 $50 reversed $21 $-1 #
edge $-1 $54 -0.866000000000000103 $56 0.866000000000000103 $28 $82 forward 7 unknown #
coedge $-1 $83 $29 $32 $59 reversed $53 $-1 #
coedge $-1 $29 $83 $69 $84 forward $53 $-1 #
loop $-1 $-1 $51 $37 #
vertex $-1 $84 $85 #
straight-curve $-1 0 1.731999999999999984 -4 0 0 -1 I I #
vertex $-1 $50 $86 #
straight-curve $-1 -1.499955999354647851 0.86599999999999977 -4 0 0 -1 I I #
coedge $-1 $32 $61 $87 $88 forward $33 $-1 #
edge $-1 $89 -0.865999999999999881 $34 0.866000000000000103 $32 $90 forward 7 unknown #
loop $-1 $-1 $91 $62 #
coedge $-1 $58 $43 $67 $92 forward $33 $-1 #
face $-1 $93 $33 $3 $-1 $94 forward single #
point $-1 0 1.731999999999999984 -4 #
point $-1 -1.499955999354647851 0.86599999999999977 -4 #
face $-1 $95 $96 $3 $-1 $97 forward single #
plane-surface $-1 0.7499779996773238144 1.298999999999999932 -4 -0.5 -0.8660254037844387076 0 0 0 1 forward_v I I I I #
coedge $-1 $73 $98 $61 $92 reversed $38 $-1 #
coedge $-1 $99 $40 $100 $101 reversed $21 $-1 #
coedge $-1 $40 $49 $52 $84 reversed $21 $-1 #
coedge $-1 $102 $103 $40 $71 forward $96 $-1 #
edge $-1 $104 -0.865999999999999992 $105 0.865999999999999992 $70 $106 forward 7 unknown #
coedge $-1 $42 $41 $99 $107 forward $13 $-1 #
coedge $-1 $100 $67 $42 $74 reversed $38 $-1 #
edge $-1 $108 -3 $75 0 $42 $109 forward 7 unknown #
vertex $-1 $92 $110 #
straight-curve $-1 -0.7499779996773237034 -1.299000000000000155 -4 0.8660254037844387076 -0.4999999999999999445 0 I I #
coedge $-1 $49 $99 $45 $78 reversed $21 $-1 #
edge $-1 $56 -0.866000000000000103 $79 0.866000000000000103 $45 $111 forward 7 unknown #
vertex $-1 $78 $112 #
straight-curve $-1 -1.499955999354647407 -0.8660000000000003251 -4 0 0 -1 I I #
point $-1 -1.499955999354647407 -0.8660000000000003251 -4 #
straight-curve $-1 -0.7499779996773239255 1.298999999999999932 -1 -0.8660254037844385966 -0.500000000000000111 0 I I #
coedge $-1 $52 $51 $102 $113 reversed $53 $-1 #
edge $-1 $105 -0.866000000000000103 $54 0.8660000000000002141 $52 $114 forward 7 unknown #
point $-1 0 1.731999999999999984 -1 #
point $-1 -1.499955999354647851 0.86599999999999977 -1 #
coedge $-1 $103 $102 $58 $88 reversed $96 $-1 #
edge $-1 $115 -0.865999999999999992 $89 0.865999999999999992 $58 $116 forward 7 unknown #
vertex $-1 $59 $117 #
straight-curve $-1 0.7499779996773239255 1.298999999999999932 -4 -0.8660254037844387076 0.5 0 I I #
coedge $-1 $91 $91 $118 $119 forward $60 $-1 #
edge $-1 $75 -0.866000000000000103 $115 0.865999999999999881 $61 $120 forward 7 unknown #
face $-1 $121 $122 $3 $-1 $123 forward single #
plane-surface $-1 0 0 -4 0 0 -1 1 0 0 forward_v I I I I #
face $-1 $124 $125 $3 $-1 $126 forward single #
loop $-1 $-1 $87 $65 #
plane-surface $-1 1.499955999354647629 0 -4 -1 0 0 0 0 1 forward_v I I I I #
coedge $-1 $67 $100 $103 $127 forward $38 $-1 #
coedge $-1 $77 $68 $72 $107 reversed $21 $-1 #
coedge $-1 $98 $73 $68 $101 forward $38 $-1 #
edge $-1 $108 -0.8660000000000002141 $104 0.866000000000000103 $100 $128 forward 7 unknown #
coedge $-1 $87 $70 $83 $113 forward $96 $-1 #
coedge $-1 $70 $87 $98 $127 reversed $96 $-1 #
vertex $-1 $71 $129 #
vertex $-1 $71 $130 #
straight-curve $-1 1.499955999354647629 0 -1 0 1 0 I I #
edge $-1 $79 -0.86599999999999977 $108 0.86599999999999977 $72 $131 forward 7 unknown #
vertex $-1 $107 $132 #
straight-curve $-1 0 -1.731999999999999984 -4 0 0 -1 I I #
point $-1 0 -1.731999999999999984 -4 #
straight-curve $-1 -1.499955999354647629 -2.775557561562891351e-16 -1 2.564025461028074991e-16 -1 0 I I #
point $-1 -1.499955999354647407 -0.8660000000000003251 -1 #
edge $-1 $105 -3 $89 0 $102 $133 forward 7 unknown #
straight-curve $-1 0.7499779996773238144 1.298999999999999932 -1 -0.8660254037844385966 0.5 0 I I #
vertex $-1 $92 $134 #
straight-curve $-1 1.499955999354647629 0 -4 0 1 0 I I #
point $-1 1.499955999354647629 0.865999999999999992 -4 #
coedge $-1 $118 $118 $91 $119 reversed $135 $-1 #
edge $-1 $136 0 $136 6.283185307179586232 $91 $137 forward 7 unknown #
straight-curve $-1 0.7499779996773239255 -1.298999999999999932 -4 0.8660254037844387076 0.5 0 I I #
face $-1 $-1 $138 $3 $-1 $139 forward single #
loop $-1 $140 $141 $93 #
cone-surface $-1 0 0 5 0 0 1 2 0 0 1 I I 0 1 2 forward I I I I #
face $-1 $62 $142 $3 $-1 $143 forward single #
loop $-1 $144 $145 $95 #
plane-surface $-1 0 0 0 0 0 1 -1 0 0 forward_v I I I I #
edge $-1 $104 -3 $115 0 $103 $146 forward 7 unknown #
straight-curve $-1 0.7499779996773238144 -1.298999999999999932 -1 0.8660254037844385966 0.5 0 I I #
point $-1 1.499955999354647629 -0.865999999999999992 -1 #
point $-1 1.499955999354647629 0.865999999999999992 -1 #
straight-curve $-1 -0.7499779996773237034 -1.299000000000000155 -1 0.8660254037844387076 -0.4999999999999999445 0 I I #
point $-1 0 -1.731999999999999984 -1 #
straight-curve $-1 1.499955999354647629 0.865999999999999992 -4 0 0 -1 I I #
point $-1 1.499955999354647629 -0.865999999999999992 -4 #
loop $-1 $-1 $118 $124 #
vertex $-1 $119 $147 #
ellipse-curve $-1 0 0 -4 0 0 -1 4 0 0 1 I I #
loop $-1 $-1 $148 $121 #
plane-surface $-1 0 0 10 0 0 1 1 0 0 forward_v I I I I #
loop $-1 $-1 $149 $93 #
coedge $-1 $141 $141 $150 $151 reversed $122 $-1 #
loop $-1 $135 $152 $124 #
cone-surface $-1 0 0 -2 0 0 -1 4 0 0 1 I I 0 1 4 forward I I I I #
loop $-1 $-1 $150 $95 #
coedge $-1 $145 $145 $152 $153 forward $125 $-1 #
straight-curve $-1 1.499955999354647629 -0.865999999999999992 -4 0 0 -1 I I #
point $-1 4 0 -4 #
coedge $-1 $148 $148 $149 $154 forward $138 $-1 #
coedge $-1 $149 $149 $148 $154 reversed $140 $-1 #
coedge $-1 $150 $150 $141 $151 forward $144 $-1 #
edge $-1 $155 0 $155 6.283185307179586232 $141 $156 forward 7 unknown #
coedge $-1 $152 $152 $145 $153 reversed $142 $-1 #
edge $-1 $157 0 $157 6.283185307179586232 $145 $158 forward 7 unknown #
edge $-1 $159 0 $159 6.283185307179586232 $148 $160 forward 7 unknown #
vertex $-1 $151 $161 #
ellipse-curve $-1 0 0 0 0 0 -1 2 0 0 1 I I #
vertex $-1 $153 $162 #
ellipse-curve $-1 0 0 0 0 0 1 4 0 0 1 I I #
vertex $-1 $154 $163 #
ellipse-curve $-1 0 0 10 0 0 1 2 0 0 1 I I #
point $-1 2 0 0 #
point $-1 4 0 0 #
point $-1 2 0 10 #
End-of-ACIS-data 