201 0 1 0           
7 Unknown 16 ACIS 2.1 Solaris 24 Thu Jan  9 16:01:51 1997 
-1 9.999999999999999547e-07 1.000000000000000036e-10 
body $1 $2 $-1 $3 #
display_attribute-st-attrib $-1 $4 $-1 $0 6 #
lump $-1 $-1 $5 $0 #
transform $-1 1 0 0 0 1 0 0 0 1 0 0 52.5 1 rotate no_reflect no_shear #
rgb_color-st-attrib $-1 $6 $1 $0 0 1 0 #
shell $-1 $-1 $-1 $7 $-1 $2 #
id_attribute-st-attrib $-1 $-1 $4 $0 695 #
face $-1 $8 $9 $5 $-1 $10 forward single #
face $-1 $11 $12 $5 $-1 $13 forward single #
loop $-1 $14 $15 $7 #
cone-surface $-1 37 -23.25 -75.75 -0.7876983100087415757 -0.4356210350805919673 -0.4356210350805919673 0.9240917637989685129 -0.8354802248045467561 -0.8354802248045467561 1 I I 0 1 forward I I I I #
face $-1 $16 $17 $5 $-1 $18 forward single #
loop $-1 $-1 $19 $8 #
plane-surface $-1 70 -4.999999999999996447 -57.5 0.7876983100087415757 0.4356210350805919673 0.4356210350805919673 -0.6160611758659789716 0.5569868165363645041 0.5569868165363645041 forward_v I I I I #
loop $-1 $-1 $20 $7 #
coedge $-1 $21 $21 $22 $23 1 $9 $-1 #
face $-1 $24 $25 $5 $-1 $26 reversed single #
loop $-1 $27 $28 $11 #
cone-surface $-1 69 0 -52.5 1 0 0 0 0 -8 1 I I 0 1 forward I I I I #
coedge $-1 $29 $29 $30 $31 1 $12 $-1 #
coedge $-1 $32 $33 $34 $35 1 $14 $-1 #
coedge $-1 $15 $15 $36 $37 1 $9 $-1 #
coedge $-1 $38 $39 $15 $23 0 $40 $-1 #
edge $-1 $41 $42 $22 $43 forward #
face $-1 $44 $45 $5 $-1 $46 forward single #
loop $-1 $-1 $36 $16 #
cone-surface $-1 0 -15 -67.5 -1 0 0 0 0 35 1 I I 0 1 forward I I I I #
loop $-1 $-1 $34 $11 #
coedge $-1 $28 $28 $47 $48 1 $17 $-1 #
coedge $-1 $19 $19 $33 $49 0 $12 $-1 #
coedge $-1 $50 $34 $19 $31 0 $27 $-1 #
edge $-1 $51 $52 $30 $53 forward #
coedge $-1 $54 $20 $55 $56 1 $14 $-1 #
coedge $-1 $20 $54 $29 $49 1 $14 $-1 #
coedge $-1 $30 $57 $20 $35 0 $27 $-1 #
edge $-1 $58 $51 $34 $59 forward #
coedge $-1 $60 $61 $21 $37 0 $25 $-1 #
edge $-1 $42 $41 $36 $62 forward #
coedge $-1 $63 $22 $61 $64 0 $40 $-1 #
coedge $-1 $22 $65 $60 $66 0 $40 $-1 #
loop $-1 $-1 $22 $67 #
vertex $-1 $23 $68 #
vertex $-1 $64 $69 #
ellipse-curve $-1 5 -40.94696969696970257 -93.44696969696970257 -1 -0 -0 0 -1.346530972966097472 -1.346530972966097472 0.7876983100087416867 I I #
face $-1 $70 $71 $5 $-1 $72 forward single #
loop $-1 $73 $74 $24 #
cone-surface $-1 37 -23.25 -29.25 -0.7876983100087415757 -0.4356210350805919673 0.4356210350805919673 0.9240917637989685129 -0.8354802248045467561 0.8354802248045467561 1 I I 0 1 forward I I I I #
coedge $-1 $47 $47 $28 $48 0 $75 $-1 #
edge $-1 $76 $76 $47 $77 forward #
edge $-1 $51 $52 $29 $78 forward #
coedge $-1 $79 $30 $54 $80 0 $27 $-1 #
vertex $-1 $35 $81 #
vertex $-1 $80 $82 #
ellipse-curve $-1 64.46969696969696884 0 -52.5 0.7876983100087415757 0.4356210350805919673 0.4356210350805919673 6.25682363959005805 -5.656854249492379694 -5.656854249492380582 0.7876983100087414646 I I #
coedge $-1 $33 $32 $50 $80 1 $14 $-1 #
coedge $-1 $83 $84 $32 $56 0 $85 $-1 #
edge $-1 $86 $58 $55 $87 forward #
coedge $-1 $34 $88 $83 $89 1 $27 $-1 #
vertex $-1 $89 $90 #
intcurve-curve $-1 forward { surfintcur nubs 3 open 6 
	4.228720742849711556 3 4.433352052134662102 2 5.326748752736472525 2 6.220145453338282948 2 7.110013628314459488 2 
	7.917609090941308381 3 
	66.99999999999998579 -6.288418222055609519 -57.44528020080954889 
	67.06031686330220509 -6.313778687376792931 -57.41303183352402328 
	67.12142844080764803 -6.336618350486114437 -57.38348088723115126 
	67.44046031648889539 -6.445529832883493349 -57.24093340110510297 
	67.74416948420004303 -6.511469259473893878 -57.14826650078189374 
	68.37182007642847736 -6.597384329094116318 -57.02549813504170828 
	68.6958770526834428 -6.617187864503035755 -56.99586752094340625 
	69.29029867787610897 -6.617187864503035755 -56.99586752094340625 
	69.61327719911589895 -6.597615378624117177 -57.02536168370563274 
	70.19523397950771937 -6.503172090357270285 -57.15992171607184247 
	70.45749828968759232 -6.433698636190953835 -57.25750075451365007 
	70.67500869868231916 -6.334669652894991287 -57.38589402143468732 
	0.001000000000000000021 
	cone 37 -23.25 -75.75 -0.7876983100087415757 -0.4356210350805919673 -0.4356210350805919673 0.9240917637989685129 -0.8354802248045467561 -0.8354802248045467561 1 I I 0 1 forward I I I I 
	cone 69 0 -52.5 1 0 0 0 0 -8 1 I I 0 1 forward I I I I 
	nullbs 
	nullbs 
	I I } I I #
coedge $-1 $91 $36 $39 $66 1 $25 $-1 #
coedge $-1 $36 $92 $38 $64 1 $25 $-1 #
intcurve-curve $-1 forward { surfintcur nubs 3 open 7 
	2.317148434095295251 3 2.479202700586841779 2 2.759876884246028617 2 3.04055106790521501 2 3.321225251564396963 2 
	3.601899435223578472 2 3.763953701715136102 3 
	5 -40.22091818228695104 -91.76737081025440546 
	4.963454133048003314 -40.19079905924320428 -91.79867341587856799 
	4.92954846983155992 -40.15915866834770753 -91.83144005550875022 
	4.84637649347703281 -40.06914153326638228 -91.92426791080777093 
	4.804029775863647878 -40.00798346857235543 -91.98691431901161764 
	4.746745994938519786 -39.88086395071982082 -92.11606831111566862 
	4.731843595707210248 -39.81489288105230173 -92.18258180200602681 
	4.731843595707210248 -39.68258180200602681 -92.31489288105230173 
	4.746745994938510904 -39.61606831111566152 -92.38086395071985635 
	4.804029775863638996 -39.48691431901161764 -92.50798346857237675 
	4.846376493477039915 -39.42426791080778514 -92.56914153326636097 
	4.929548469831567026 -39.33144005550877154 -92.65915866834768622 
	4.963454133047997097 -39.29867341587856799 -92.69079905924320428 
	5 -39.26737081025440546 -92.72091818228695104 
	0.001000000000000000021 
	cone 37 -23.25 -75.75 -0.7876983100087415757 -0.4356210350805919673 -0.4356210350805919673 0.9240917637989685129 -0.8354802248045467561 -0.8354802248045467561 1 I I 0 1 forward I I I I 
	cone 0 -15 -67.5 -1 0 0 0 0 35 1 I I -0 -1 forward I I I I 
	nullbs 
	nullbs 
	I I } I I #
coedge $-1 $93 $38 $94 $95 0 $40 $-1 #
edge $-1 $42 $96 $38 $97 forward #
coedge $-1 $39 $98 $99 $100 1 $40 $-1 #
edge $-1 $101 $41 $39 $97 forward #
face $-1 $102 $40 $5 $-1 $103 forward single #
point $-1 5 -39.26737081025440546 -92.72091818228695104 #
point $-1 5 -40.22091818228695104 -91.76737081025440546 #
face $-1 $104 $105 $5 $-1 $106 reversed single #
loop $-1 $-1 $107 $44 #
plane-surface $-1 70 -4.999999999999996447 -47.5 0.7876983100087415757 0.4356210350805919673 -0.4356210350805919673 -0.6160611758659789716 0.5569868165363645041 -0.5569868165363645041 forward_v I I I I #
loop $-1 $-1 $108 $24 #
coedge $-1 $109 $109 $110 $111 1 $45 $-1 #
loop $-1 $-1 $47 $112 #
vertex $-1 $48 $113 #
ellipse-curve $-1 71 0 -52.5 1 0 0 0 0 -8 1 I I #
ellipse-curve $-1 70 -4.999999999999996447 -57.5 0.7876983100087415757 0.4356210350805919673 0.4356210350805919673 0.9240917637989685129 -0.8354802248045467561 -0.8354802248045467561 1 I I #
coedge $-1 $114 $50 $84 $115 1 $27 $-1 #
edge $-1 $52 $86 $50 $116 forward #
point $-1 70.67500869868231916 -6.334669652894991287 -57.38589402143468732 #
point $-1 70.67500869868233337 -4.885894021434683765 -58.83466965289500195 #
coedge $-1 $117 $55 $57 $89 0 $85 $-1 #
coedge $-1 $55 $118 $79 $115 0 $85 $-1 #
loop $-1 $119 $55 $120 #
vertex $-1 $80 $121 #
ellipse-curve $-1 67 -6.65909090909091006 -59.15909090909090651 1 -0 -0 0 -1.346530972966097472 -1.346530972966097472 0.7876983100087416867 I I #
coedge $-1 $57 $122 $123 $124 0 $27 $-1 #
edge $-1 $58 $125 $83 $126 forward #
point $-1 66.99999999999998579 -6.288418222055609519 -57.44528020080954889 #
coedge $-1 $127 $60 $128 $129 1 $25 $-1 #
coedge $-1 $61 $127 $130 $131 0 $25 $-1 #
coedge $-1 $132 $63 $133 $134 0 $40 $-1 #
coedge $-1 $130 $135 $63 $95 1 $136 $-1 #
edge $-1 $96 $137 $63 $138 forward #
vertex $-1 $95 $139 #
ellipse-curve $-1 5 -15 -67.5 -1 0 0 0 0 35 1 I I #
coedge $-1 $65 $132 $140 $141 1 $40 $-1 #
coedge $-1 $142 $128 $65 $100 0 $143 $-1 #
edge $-1 $101 $144 $99 $145 forward #
vertex $-1 $129 $146 #
face $-1 $147 $148 $5 $-1 $149 forward single #
plane-surface $-1 5 -15 -67.5 1 0 0 0 0 -1 forward_v I I I I #
face $-1 $150 $151 $5 $-1 $152 forward single #
loop $-1 $-1 $153 $70 #
cone-surface $-1 0 -15 -37.5 -1 0 0 0 0 35 1 I I 0 1 forward I I I I #
coedge $-1 $154 $154 $155 $156 1 $71 $-1 #
coedge $-1 $157 $158 $114 $159 1 $73 $-1 #
coedge $-1 $74 $74 $153 $160 1 $45 $-1 #
coedge $-1 $161 $162 $74 $111 0 $163 $-1 #
edge $-1 $164 $165 $110 $166 forward #
face $-1 $167 $168 $5 $-1 $169 forward single #
point $-1 71 0 -60.5 #
coedge $-1 $155 $79 $108 $159 0 $27 $-1 #
edge $-1 $170 $86 $84 $126 forward #
intcurve-curve $-1 forward { surfintcur nubs 3 open 6 
	-1.697463637603049413 3 -0.8898681749761809812 2 0 3 0.8933967006018175283 2 1.786793401203635057 2 
	1.9914247104885483 3 
	70.67500869868233337 -4.885894021434683765 -58.83466965289500195 
	70.45749828968760653 -4.757500754513640295 -58.93369863619096805 
	70.19523397950771937 -4.65992171607185135 -59.00317209035727473 
	69.61327719911589895 -4.525361683705636295 -59.09761537862411984 
	69.29029867787609476 -4.495867520943397366 -59.11718786450303753 
	68.99367595288403265 -4.495867520943399143 -59.11718786450303753 
	68.69587705268342859 -4.495867520943400919 -59.11718786450303753 
	68.37182007642847736 -4.52549813504170384 -59.09738432909411898 
	67.74416948420004303 -4.648266500781882193 -59.01146925947389121 
	67.44046031648886697 -4.740933401105105638 -58.94552983288349424 
	67.12142844080761961 -4.883480887231143264 -58.83661835048611977 
	67.06031686330219088 -4.913031833524041048 -58.81377868737678227 
	67 -4.945280200809553328 -58.7884182220556113 
	0.001000000000000000021 
	cone 37 -23.25 -75.75 -0.7876983100087415757 -0.4356210350805919673 -0.4356210350805919673 0.9240917637989685129 -0.8354802248045467561 -0.8354802248045467561 1 I I 0 1 forward I I I I 
	cone 69 0 -52.5 1 0 0 0 0 -8 1 I I 0 1 forward I I I I 
	nullbs 
	nullbs 
	I I } I I #
coedge $-1 $171 $83 $172 $173 0 $85 $-1 #
coedge $-1 $84 $171 $157 $174 0 $85 $-1 #
loop $-1 $-1 $175 $120 #
face $-1 $112 $85 $5 $-1 $176 forward single #
point $-1 67 -4.945280200809553328 -58.7884182220556113 #
coedge $-1 $88 $177 $178 $179 0 $27 $-1 #
coedge $-1 $180 $172 $88 $124 1 $181 $-1 #
edge $-1 $182 $125 $88 $183 forward #
vertex $-1 $124 $184 #
ellipse-curve $-1 67 0 -52.5 -1 0 0 0 0 -8 1 I I #
coedge $-1 $92 $91 $185 $186 1 $25 $-1 #
coedge $-1 $99 $187 $91 $129 0 $143 $-1 #
edge $-1 $188 $101 $128 $189 forward #
coedge $-1 $190 $94 $92 $131 1 $136 $-1 #
edge $-1 $191 $96 $92 $192 forward #
coedge $-1 $98 $93 $193 $194 0 $40 $-1 #
coedge $-1 $195 $196 $93 $134 1 $197 $-1 #
edge $-1 $137 $198 $93 $199 forward #
coedge $-1 $94 $200 $195 $201 0 $136 $-1 #
loop $-1 $202 $200 $203 #
vertex $-1 $134 $204 #
straight-curve $-1 5 -50 -60 0 0 -1 I I #
point $-1 5 -50 -67.5 #
coedge $-1 $205 $206 $98 $141 0 $207 $-1 #
edge $-1 $144 $208 $140 $209 forward #
coedge $-1 $210 $99 $206 $211 0 $143 $-1 #
loop $-1 $-1 $212 $213 #
vertex $-1 $211 $214 #
straight-curve $-1 5 -7.5 -102.5 0 -1 0 I I #
point $-1 5 -15 -102.5 #
face $-1 $213 $215 $5 $-1 $216 forward single #
loop $-1 $-1 $217 $102 #
cone-surface $-1 0 -15 -67.5 -1 0 0 0 0 40 1 I I 0 1 forward I I I I #
face $-1 $218 $219 $5 $-1 $220 forward single #
loop $-1 $181 $221 $104 #
cone-surface $-1 43 -29.75 -52.5 -0.7647275479621377103 -0.6443537672643937508 0 0.9665306508965906263 -1.147091321943206621 0 1 I I 0 1 forward I I I I #
coedge $-1 $222 $223 $109 $160 0 $105 $-1 #
coedge $-1 $107 $107 $158 $224 0 $71 $-1 #
coedge $-1 $225 $114 $107 $156 0 $27 $-1 #
edge $-1 $226 $227 $155 $228 forward #
coedge $-1 $229 $108 $118 $174 1 $73 $-1 #
coedge $-1 $108 $229 $154 $224 1 $73 $-1 #
edge $-1 $170 $226 $114 $230 forward #
edge $-1 $165 $164 $153 $231 forward #
coedge $-1 $232 $110 $223 $233 0 $163 $-1 #
coedge $-1 $110 $234 $222 $235 0 $163 $-1 #
loop $-1 $-1 $110 $236 #
vertex $-1 $111 $237 #
vertex $-1 $233 $238 #
ellipse-curve $-1 5 -40.94696969696970257 -11.55303030303030098 -1 -0 -0 0 -1.346530972966097472 1.346530972966097472 0.7876983100087416867 I I #
face $-1 $239 $240 $5 $-1 $241 forward single #
loop $-1 $75 $242 $112 #
plane-surface $-1 71 0 -52.5 1 0 0 0 0 -1 forward_v I I I I #
vertex $-1 $115 $243 #
coedge $-1 $118 $117 $244 $245 0 $85 $-1 #
coedge $-1 $123 $246 $117 $173 1 $181 $-1 #
edge $-1 $125 $247 $117 $248 forward #
edge $-1 $249 $170 $118 $250 forward #
coedge $-1 $175 $175 $251 $252 0 $119 $-1 #
plane-surface $-1 67 0 -52.5 -1 0 0 0 0 1 forward_v I I I I #
coedge $-1 $122 $244 $246 $253 0 $27 $-1 #
coedge $-1 $254 $254 $122 $179 1 $219 $-1 #
edge $-1 $255 $182 $122 $256 forward #
coedge $-1 $246 $123 $254 $257 1 $181 $-1 #
loop $-1 $-1 $246 $104 #
vertex $-1 $124 $258 #
intcurve-curve $-1 forward { surfintcur nubs 3 open 8 
	-1.915694589995121655 3 -1.879226209951191606 2 -1.571685460757107577 2 -0.7858427303785546769 2 0 3 
	0.9565414382676089566 2 1.913082876535217913 2 2.013772423523573885 3 
	70.80650896909232017 -7.957175479801883888 -53.3266549362579525 
	70.79801546132614476 -7.956196895488672816 -53.33607454625538935 
	70.789408257723764 -7.955213304312280798 -53.34537960049109984 
	70.7072203015869718 -7.94590216168490393 -53.43204678848564981 
	70.6261169968214233 -7.937347548744654091 -53.50106400536967044 
	70.33092904880798812 -7.909005879460121236 -53.71294312698029927 
	70.07269509303851862 -7.889526183106459811 -53.82690514915120161 
	69.52895019143373645 -7.864070159432674956 -53.97027240623216215 
	69.24352321572590085 -7.858116822750855768 -54 
	68.98157563893305166 -7.858116822750855768 -54 
	68.66272849284385416 -7.858116822750855768 -54 
	68.31718538352990322 -7.866865941819497721 -53.95637656675146587 
	67.65681990890715269 -7.898533597092091796 -53.77349108177774184 
	67.34164060859714596 -7.921163459601356038 -53.63547026459909972 
	67.05439899862031439 -7.945461147389021761 -53.4327514459308901 
	67.02706452661689696 -7.947815418903657836 -53.41251463871296323 
	67 -7.950186609942841542 -53.39136573138390673 
	0.001000000000000000021 
	cone 43 -29.75 -52.5 -0.7647275479621377103 -0.6443537672643937508 0 0.9665306508965906263 -1.147091321943206621 0 1 I I 0 1 forward I I I I 
	cone 69 0 -52.5 1 0 0 0 0 -8 1 I I 0 1 forward I I I I 
	nullbs 
	nullbs 
	I I } I I #
point $-1 67 -7.950186609942841542 -53.39136573138390673 #
coedge $-1 $259 $260 $127 $186 0 $215 $-1 #
edge $-1 $191 $188 $185 $261 forward #
coedge $-1 $128 $262 $259 $263 0 $143 $-1 #
vertex $-1 $263 $264 #
straight-curve $-1 0 -15 -102.5 1 -0 0 I I #
coedge $-1 $265 $130 $260 $266 1 $136 $-1 #
vertex $-1 $186 $267 #
straight-curve $-1 0 -50 -67.5 1 0 0 I I #
coedge $-1 $217 $268 $132 $194 1 $148 $-1 #
edge $-1 $198 $208 $132 $269 forward #
coedge $-1 $270 $133 $135 $201 1 $197 $-1 #
coedge $-1 $133 $271 $217 $272 1 $197 $-1 #
loop $-1 $-1 $270 $167 #
vertex $-1 $194 $273 #
straight-curve $-1 5 -52.5 -68.74807680927192166 0 -1 0 I I #
coedge $-1 $135 $274 $221 $275 0 $136 $-1 #
edge $-1 $276 $137 $135 $277 forward #
loop $-1 $-1 $278 $203 #
face $-1 $279 $136 $5 $-1 $280 forward single #
point $-1 5 -50 -68.74807680927192166 #
coedge $-1 $281 $140 $268 $282 0 $207 $-1 #
coedge $-1 $140 $283 $142 $211 1 $207 $-1 #
loop $-1 $-1 $281 $284 #
vertex $-1 $141 $285 #
straight-curve $-1 5 -16.24807680927192166 -105 0 0 -1 I I #
coedge $-1 $286 $142 $287 $288 0 $143 $-1 #
edge $-1 $144 $289 $142 $290 forward #
coedge $-1 $291 $292 $293 $294 0 $143 $-1 #
face $-1 $295 $143 $5 $-1 $296 forward single #
point $-1 5 -16.24807680927192166 -102.5 #
loop $-1 $-1 $260 $147 #
plane-surface $-1 -5 -15 -67.5 -1 0 0 0 0 1 forward_v I I I I #
coedge $-1 $297 $193 $196 $272 0 $148 $-1 #
face $-1 $120 $298 $5 $-1 $299 reversed single #
loop $-1 $-1 $178 $150 #
plane-surface $-1 70 -6.999999999999996447 -52.5 0.7647275479621377103 0.6443537672643937508 0 -0.6443537672643937508 0.7647275479621377103 0 forward_v I I I I #
coedge $-1 $300 $300 $200 $275 1 $151 $-1 #
coedge $-1 $301 $153 $162 $235 1 $105 $-1 #
coedge $-1 $153 $302 $161 $233 1 $105 $-1 #
edge $-1 $226 $227 $154 $303 forward #
coedge $-1 $244 $155 $229 $304 0 $27 $-1 #
vertex $-1 $159 $305 #
vertex $-1 $304 $306 #
ellipse-curve $-1 64.46969696969696884 0 -52.5 0.7876983100087415757 0.4356210350805919673 -0.4356210350805919673 -6.25682363959005805 5.656854249492379694 -5.656854249492380582 0.7876983100087414646 I I #
coedge $-1 $158 $157 $225 $304 1 $73 $-1 #
intcurve-curve $-1 forward { surfintcur nubs 3 open 6 
	4.311370205792158572 3 5.30309952378256888 2 6.308490849349682961 2 7.125029467252000259 2 7.94156808515431667 2 
	8.003657160422207539 3 
	67 -4.945280200809553328 -46.21158177794439581 
	67.27377972892442415 -4.798904067000202112 -46.09647000089057656 
	67.60295064593350389 -4.685877857960910831 -46.01531385103178451 
	68.29492984613413853 -4.533202569606686438 -45.90766211053264811 
	68.65854551102833625 -4.495867520943393814 -45.88281213549696957 
	69.26585549218481219 -4.495867520943392037 -45.88281213549696957 
	69.5627182235934356 -4.520704803219076418 -45.89935829442786286 
	70.13017953183226894 -4.63943991059493932 -45.982267232262231 
	70.4007159146167254 -4.733514724775542248 -46.04880202761832209 
	70.64124085621503468 -4.866298679519744041 -46.15025381567014051 
	70.65817939089671995 -4.875959923031756738 -46.1576682345316982 
	70.67500869868233337 -4.885894021434683765 -46.16533034710500516 
	0.001000000000000000021 
	cone 37 -23.25 -29.25 -0.7876983100087415757 -0.4356210350805919673 0.4356210350805919673 0.9240917637989685129 -0.8354802248045467561 0.8354802248045467561 1 I I 0 1 forward I I I I 
	cone 69 0 -52.5 1 0 0 0 0 -8 1 I I 0 1 forward I I I I 
	nullbs 
	nullbs 
	I I } I I #
intcurve-curve $-1 forward { surfintcur nubs 3 open 7 
	2.311943398758780965 3 2.386429869990419839 2 2.717325302025777489 2 3.048220734061134696 2 3.379116166096491014 2 
	3.710011598131847776 2 3.784498069363482209 3 
	5 -39.26737081025440546 -12.27908181771305252 
	4.983444543606798227 -39.28155104363305128 -12.29272592769701333 
	4.967466528498363232 -39.29599854503880607 -12.30665024004467867 
	4.883988559057490519 -39.37599670498966731 -12.38388915984717542 
	4.828487285618278335 -39.44641122291238133 -12.45237253142465406 
	4.752411978586090768 -39.59378558852356633 -12.59706093829834828 
	4.731843595707198702 -39.67074454024388075 -12.67326985718555221 
	4.731843595707198702 -39.82673014281444779 -12.82925545975612103 
	4.752411978586093433 -39.90293906170165172 -12.90621441147643722 
	4.828487285618281 -40.0476274685753495 -13.05358877708762222 
	4.883988559057499401 -40.11611084015282103 -13.12400329501033625 
	4.967466528498371225 -40.19334975995532488 -13.20400145496120103 
	4.98344454360680178 -40.20727407230299377 -13.21844895636694517 
	5 -40.22091818228695104 -13.23262918974559099 
	0.001000000000000000021 
	cone 37 -23.25 -29.25 -0.7876983100087415757 -0.4356210350805919673 0.4356210350805919673 0.9240917637989685129 -0.8354802248045467561 0.8354802248045467561 1 I I 0 1 forward I I I I 
	cone 0 -15 -37.5 -1 0 0 0 0 35 1 I I -0 -1 forward I I I I 
	nullbs 
	nullbs 
	I I } I I #
coedge $-1 $307 $161 $308 $309 1 $163 $-1 #
edge $-1 $165 $310 $161 $311 forward #
coedge $-1 $162 $312 $313 $314 0 $163 $-1 #
edge $-1 $315 $164 $162 $311 forward #
face $-1 $316 $163 $5 $-1 $317 forward single #
point $-1 5 -40.22091818228695104 -13.23262918974559099 #
point $-1 5 -39.26737081025440546 -12.27908181771305252 #
face $-1 $318 $319 $5 $-1 $320 reversed single #
loop $-1 $197 $321 $167 #
cone-surface $-1 0 -52.5 -52.5 0 -1 0 17 0 0 1 I I 0 1 forward I I I I #
coedge $-1 $242 $242 $322 $323 0 $168 $-1 #
point $-1 67 -4.945280200809553328 -46.21158177794439581 #
coedge $-1 $177 $225 $171 $245 1 $27 $-1 #
edge $-1 $247 $249 $171 $126 forward #
coedge $-1 $172 $180 $177 $253 1 $181 $-1 #
vertex $-1 $245 $324 #
ellipse-curve $-1 67 -9.527777777777778567 -52.5 1 -0 -0 0 -1.961482888902370991 0 0.7647275479621375993 I I #
vertex $-1 $304 $325 #
ellipse-curve $-1 67 -6.65909090909091006 -45.84090909090909349 1 -0 -0 0 -1.346530972966097472 1.346530972966097472 0.7876983100087416867 I I #
coedge $-1 $251 $251 $175 $252 1 $298 $-1 #
edge $-1 $326 $326 $175 $327 forward #
edge $-1 $247 $255 $177 $328 forward #
coedge $-1 $178 $178 $180 $257 0 $219 $-1 #
vertex $-1 $253 $329 #
ellipse-curve $-1 64.10185185185184764 0 -52.5 0.7647275479621377103 0.6443537672643937508 0 -6.740740740740740478 8 0 0.7647275479621377103 I I #
edge $-1 $255 $182 $254 $330 forward #
point $-1 70.80650896909232017 -7.957175479801883888 -53.3266549362579525 #
coedge $-1 $331 $185 $187 $263 1 $215 $-1 #
coedge $-1 $185 $332 $190 $266 0 $215 $-1 #
ellipse-curve $-1 -5 -15 -67.5 1 -0 -0 0 0 35 1 I I #
coedge $-1 $187 $333 $334 $335 0 $143 $-1 #
edge $-1 $336 $188 $187 $337 forward #
point $-1 -5 -15 -102.5 #
coedge $-1 $338 $190 $339 $340 0 $136 $-1 #
edge $-1 $341 $191 $260 $342 forward #
point $-1 -5 -50 -67.5 #
coedge $-1 $193 $297 $205 $282 1 $148 $-1 #
ellipse-curve $-1 5 -15 -67.5 1 0 0 0 0 40 1 I I #
coedge $-1 $343 $195 $300 $344 0 $197 $-1 #
coedge $-1 $196 $339 $332 $345 1 $197 $-1 #
edge $-1 $198 $346 $217 $347 forward #
point $-1 4.999999999999999112 -54.98052406207499132 -68.74807680927190745 #
coedge $-1 $200 $313 $343 $348 0 $136 $-1 #
edge $-1 $349 $276 $200 $350 forward #
vertex $-1 $201 $351 #
ellipse-curve $-1 0 -50 -52.5 0 1 0 17 0 0 1 I I #
coedge $-1 $278 $278 $352 $353 0 $202 $-1 #
face $-1 $354 $355 $5 $-1 $356 reversed single #
plane-surface $-1 0 -50 -52.5 0 1 0 -1 0 0 forward_v I I I I #
coedge $-1 $334 $205 $331 $357 0 $207 $-1 #
edge $-1 $208 $358 $205 $359 forward #
coedge $-1 $206 $360 $361 $362 0 $207 $-1 #
face $-1 $363 $207 $5 $-1 $364 forward single #
point $-1 5 -16.24807680927192521 -107.4805240620749913 #
coedge $-1 $365 $210 $366 $367 0 $143 $-1 #
coedge $-1 $361 $368 $210 $288 1 $369 $-1 #
edge $-1 $289 $370 $287 $371 forward #
vertex $-1 $288 $372 #
ellipse-curve $-1 0 0 -102.5 0 0 1 17 0 0 1 I I #
coedge $-1 $333 $212 $373 $374 0 $143 $-1 #
coedge $-1 $212 $365 $375 $376 0 $143 $-1 #
coedge $-1 $377 $378 $212 $294 1 $379 $-1 #
edge $-1 $380 $381 $293 $382 forward #
face $-1 $383 $384 $5 $-1 $385 reversed single #
plane-surface $-1 0 0 -102.5 0 0 1 -1 0 0 forward_v I I I I #
coedge $-1 $268 $217 $386 $387 1 $148 $-1 #
loop $-1 $388 $251 $218 #
cone-surface $-1 69 0 -52.5 1 0 0 0 0 -5 1 I I 0 1 forward I I I I #
coedge $-1 $221 $221 $270 $344 1 $151 $-1 #
coedge $-1 $389 $222 $390 $391 0 $105 $-1 #
coedge $-1 $223 $389 $392 $393 1 $105 $-1 #
ellipse-curve $-1 70 -4.999999999999996447 -47.5 0.7876983100087415757 0.4356210350805919673 -0.4356210350805919673 0.9240917637989685129 -0.8354802248045467561 0.8354802248045467561 1 I I #
edge $-1 $227 $249 $225 $394 forward #
point $-1 70.67500869868233337 -4.885894021434683765 -46.16533034710500516 #
point $-1 70.67500869868231916 -6.334669652894991287 -47.61410597856530558 #
coedge $-1 $395 $232 $396 $397 1 $163 $-1 #
coedge $-1 $392 $398 $232 $309 0 $399 $-1 #
edge $-1 $400 $310 $308 $401 forward #
vertex $-1 $393 $402 #
ellipse-curve $-1 5 -15 -37.5 -1 0 0 0 0 35 1 I I #
coedge $-1 $234 $395 $403 $404 0 $163 $-1 #
coedge $-1 $274 $390 $234 $314 1 $136 $-1 #
edge $-1 $405 $315 $234 $406 forward #
vertex $-1 $235 $407 #
face $-1 $408 $399 $5 $-1 $409 forward single #
plane-surface $-1 5 -15 -37.5 1 0 0 0 0 -1 forward_v I I I I #
face $-1 $410 $411 $5 $-1 $412 reversed single #
loop $-1 $413 $414 $239 #
cone-surface $-1 -21 0 -105 0 1 0 1 0 0 1 I I 0 1 forward I I I I #
coedge $-1 $321 $321 $415 $416 1 $240 $-1 #
coedge $-1 $322 $322 $242 $323 1 $388 $-1 #
edge $-1 $417 $417 $242 $418 forward #
point $-1 67 -7.950186609942841542 -51.60863426861610037 #
point $-1 66.99999999999998579 -6.288418222055609519 -47.55471979919044401 #
vertex $-1 $252 $419 #
ellipse-curve $-1 67 0 -52.5 1 0 0 0 0 -5 1 I I #
intcurve-curve $-1 forward { surfintcur nubs 3 open 8 
	4.092776680050932647 3 4.193466227043155747 2 5.150007665310765148 2 6.106549103578373661 2 6.892391833956926561 2 
	7.67823456433548035 2 7.985775313529563491 2 8.022243693573500423 3 
	67 -7.950186609942841542 -51.60863426861610037 
	67.02706452661796277 -7.947815418903564577 -51.58748536128621254 
	67.05439899861926278 -7.945461147389110579 -51.56724855406984886 
	67.34164060859714596 -7.921163459601356038 -51.36452973540090028 
	67.65681990890715269 -7.898533597092091796 -51.22650891822225816 
	68.31718538352990322 -7.866865941819497721 -51.04362343324853413 
	68.66272849284385416 -7.858116822750855768 -51 
	69.24352321572590085 -7.85811682275085488 -51 
	69.52895019143369382 -7.864070159432674068 -51.02972759376783074 
	70.07269509303847599 -7.889526183106458035 -51.17309485084877707 
	70.33092904880797391 -7.909005879460121236 -51.28705687301969363 
	70.6261169968214233 -7.937347548744654091 -51.49893599463032245 
	70.7072203015869718 -7.94590216168490393 -51.56795321151435019 
	70.789408257723764 -7.955213304312279909 -51.65462039950888595 
	70.79801546132614476 -7.956196895488672816 -51.66392545374461065 
	70.80650896909232017 -7.957175479801883888 -51.6733450637420404 
	0.001000000000000000021 
	cone 43 -29.75 -52.5 -0.7647275479621377103 -0.6443537672643937508 0 0.9665306508965906263 -1.147091321943206621 0 1 I I 0 1 forward I I I I 
	cone 69 0 -52.5 1 0 0 0 0 -8 1 I I 0 1 forward I I I I 
	nullbs 
	nullbs 
	I I } I I #
point $-1 70.80650896909232017 -7.957175479801883888 -51.6733450637420404 #
ellipse-curve $-1 70 -6.999999999999996447 -52.5 0.7647275479621377103 0.6443537672643937508 0 0.9665306508965906263 -1.147091321943206621 0 1 I I #
coedge $-1 $386 $259 $281 $357 1 $215 $-1 #
coedge $-1 $260 $386 $271 $345 0 $215 $-1 #
coedge $-1 $262 $291 $420 $421 0 $143 $-1 #
coedge $-1 $422 $281 $262 $335 1 $207 $-1 #
edge $-1 $423 $336 $262 $290 forward #
vertex $-1 $357 $424 #
straight-curve $-1 -5 -7.5 -102.5 0 1 -0 I I #
coedge $-1 $390 $265 $425 $426 1 $136 $-1 #
coedge $-1 $271 $427 $265 $340 1 $197 $-1 #
edge $-1 $341 $428 $265 $277 forward #
vertex $-1 $345 $429 #
straight-curve $-1 -5 -50 -60 0 -0 1 I I #
coedge $-1 $403 $270 $274 $348 1 $197 $-1 #
edge $-1 $276 $349 $270 $430 forward #
edge $-1 $346 $341 $332 $431 forward #
vertex $-1 $345 $432 #
intcurve-curve $-1 forward { surfintcur nubs 3 open 7 
	28.10796889018483213 3 29.06923983330172945 2 31.07109229635988257 2 33.07294475941803569 2 35.07479722247619236 2 
	37.07664968553434193 2 38.03792062865124279 3 
	4.999999999999999112 -54.98052406207499132 -68.74807680927190745 
	4.682420095825417405 -54.97747326103843335 -68.84580526904672126 
	4.362469650754256634 -54.97436257055450426 -68.93406311862423763 
	3.371354334862900259 -54.96518338154801597 -69.17660533074231921 
	2.694814602765466471 -54.95961303696433475 -69.29885443967943104 
	1.342780080851635471 -54.95200582502736353 -69.46055653223812953 
	0.6672841543527177066 -54.94996871087635526 -69.5 
	-0.6672841543527188168 -54.94996871087635526 -69.5 
	-1.342780080851637914 -54.95200582502736353 -69.46055653223812953 
	-2.694814602765469136 -54.95961303696433475 -69.29885443967943104 
	-3.371354334862901148 -54.96518338154801597 -69.17660533074231921 
	-4.362469650754257522 -54.97436257055450426 -68.93406311862425184 
	-4.682420095825415629 -54.97747326103843335 -68.84580526904672126 
	-4.999999999999999112 -54.98052406207499132 -68.74807680927190745 
	0.001000000000000000021 
	cone 0 -52.5 -52.5 0 -1 0 17 0 0 1 I I 0 1 forward I I I I 
	cone 0 -15 -67.5 -1 0 0 0 0 40 1 I I 0 1 forward I I I I 
	nullbs 
	nullbs 
	I I } I I #
edge $-1 $405 $349 $274 $277 forward #
vertex $-1 $275 $433 #
ellipse-curve $-1 18.9670329670329636 -50 -52.5 -0 -1 -0 2.327913758257758925 0 0 0.6443537672643937508 I I #
point $-1 16.98193483603936116 -49.99999999999999289 -53.28351083241570763 #
coedge $-1 $352 $352 $278 $353 1 $355 $-1 #
edge $-1 $434 $434 $278 $435 forward #
face $-1 $67 $436 $5 $-1 $437 forward single #
loop $-1 $438 $352 $279 #
cone-surface $-1 0 -52.5 -52.5 0 -1 0 10 0 0 1 I I 0 1 forward I I I I #
edge $-1 $358 $336 $281 $439 forward #
vertex $-1 $357 $440 #
intcurve-curve $-1 forward { surfintcur nubs 3 open 7 
	28.10796889018482503 3 29.06923983330171524 2 31.07109229635986836 2 33.07294475941802148 2 35.07479722247617104 2 
	37.07664968553432061 2 38.03792062865121437 3 
	5 -16.24807680927192521 -107.4805240620749913 
	4.682420095825419182 -16.34580526904673192 -107.4774732610384262 
	4.362469650754253081 -16.43406311862422342 -107.47436257055449 
	3.371354334862898927 -16.67660533074229079 -107.4651833815480018 
	2.694814602765467804 -16.79885443967942749 -107.4596130369643419 
	1.342780080851635915 -16.96055653223811888 -107.4520058250273706 
	0.6672841543527175956 -17 -107.4499687108763624 
	-0.6672841543527163743 -17 -107.4499687108763624 
	-1.342780080851633695 -16.96055653223811888 -107.4520058250273706 
	-2.694814602765464695 -16.79885443967942749 -107.4596130369643419 
	-3.37135433486289493 -16.67660533074229079 -107.4651833815480018 
	-4.36246965075424864 -16.43406311862422342 -107.47436257055449 
	-4.682420095825418294 -16.34580526904673192 -107.4774732610384262 
	-5 -16.24807680927192521 -107.4805240620749913 
	0.001000000000000000021 
	cone 0 0 -105 0 0 -1 17 0 0 1 I I 0 1 forward I I I I 
	cone 0 -15 -67.5 -1 0 0 0 0 40 1 I I -0 -1 forward I I I I 
	nullbs 
	nullbs 
	I I } I I #
coedge $-1 $283 $422 $441 $442 1 $207 $-1 #
coedge $-1 $443 $287 $283 $362 1 $369 $-1 #
edge $-1 $444 $289 $283 $445 forward #
face $-1 $446 $447 $5 $-1 $448 forward single #
cone-surface $-1 0 0 -105 0 0 -1 17 0 0 1 I I 0 1 forward I I I I #
coedge $-1 $292 $286 $449 $450 0 $143 $-1 #
coedge $-1 $451 $452 $286 $367 1 $453 $-1 #
edge $-1 $370 $454 $366 $455 forward #
coedge $-1 $287 $443 $451 $456 1 $369 $-1 #
loop $-1 $-1 $361 $457 #
vertex $-1 $367 $458 #
straight-curve $-1 0 -3 -102.5 1 0 0 I I #
point $-1 16.73320053068151125 -3 -102.5 #
coedge $-1 $459 $460 $291 $374 1 $461 $-1 #
edge $-1 $381 $462 $373 $463 forward #
coedge $-1 $464 $465 $292 $376 1 $466 $-1 #
edge $-1 $467 $380 $292 $468 forward #
coedge $-1 $469 $293 $465 $470 1 $379 $-1 #
coedge $-1 $293 $469 $459 $471 1 $379 $-1 #
loop $-1 $-1 $469 $295 #
vertex $-1 $376 $472 #
vertex $-1 $294 $473 #
straight-curve $-1 0 0 -102.5 -1 0 0 I I #
face $-1 $457 $474 $5 $-1 $475 reversed single #
loop $-1 $379 $476 $295 #
plane-surface $-1 0 0 -105 0 -1 0 0 0 -1 forward_v I I I I #
coedge $-1 $332 $331 $297 $387 0 $215 $-1 #
edge $-1 $358 $346 $386 $477 forward #
loop $-1 $-1 $322 $218 #
coedge $-1 $302 $301 $478 $479 1 $105 $-1 #
coedge $-1 $313 $338 $301 $391 1 $136 $-1 #
edge $-1 $315 $480 $301 $481 forward #
coedge $-1 $482 $308 $302 $393 0 $399 $-1 #
edge $-1 $310 $483 $392 $484 forward #
intcurve-curve $-1 forward { surfintcur nubs 3 open 6 
	-1.695166311072521026 3 -1.633077235804634597 2 -0.8165386179023172986 2 0 3 1.005391325567113414 2 
	1.997120643557535047 3 
	70.67500869868231916 -6.334669652894991287 -47.61410597856530558 
	70.65817939089671995 -6.342331765468295579 -47.62404007696822816 
	70.64124085621503468 -6.349746184329869259 -47.63370132048025596 
	70.4007159146167254 -6.451197972381679691 -47.7664852752244542 
	70.13017953183229736 -6.517732767737754784 -47.86056008940504825 
	69.56271822359346402 -6.600641705572124707 -47.97929519678091737 
	69.26585549218481219 -6.617187864503037531 -48.00413247905660796 
	68.99367595288404686 -6.617187864503036643 -48.00413247905660796 
	68.65854551102833625 -6.617187864503035755 -48.00413247905660796 
	68.29492984613415274 -6.592337889467366097 -47.96679743039331356 
	67.6029506459335181 -6.484686148968227037 -47.81412214203908917 
	67.27377972892440994 -6.403529999109432325 -47.70109593299979878 
	66.99999999999998579 -6.288418222055609519 -47.55471979919044401 
	0.001000000000000000021 
	cone 37 -23.25 -29.25 -0.7876983100087415757 -0.4356210350805919673 0.4356210350805919673 0.9240917637989685129 -0.8354802248045467561 0.8354802248045467561 1 I I 0 1 forward I I I I 
	cone 69 0 -52.5 1 0 0 0 0 -8 1 I I 0 1 forward I I I I 
	nullbs 
	nullbs 
	I I } I I #
coedge $-1 $312 $307 $485 $486 0 $163 $-1 #
coedge $-1 $487 $488 $307 $397 0 $489 $-1 #
edge $-1 $490 $400 $396 $491 forward #
coedge $-1 $308 $492 $487 $493 0 $399 $-1 #
loop $-1 $-1 $494 $316 #
vertex $-1 $397 $495 #
straight-curve $-1 5 -7.5 -2.5 -0 1 0 I I #
point $-1 5 -15 -2.5 #
coedge $-1 $496 $343 $312 $404 1 $197 $-1 #
edge $-1 $497 $405 $312 $498 forward #
vertex $-1 $404 $499 #
straight-curve $-1 5 -50 -45 0 0 -1 I I #
point $-1 5 -50 -37.5 #
face $-1 $500 $501 $5 $-1 $502 reversed single #
plane-surface $-1 0 0 -2.5 0 0 -1 -1 0 0 forward_v I I I I #
face $-1 $503 $504 $5 $-1 $505 reversed single #
loop $-1 $506 $507 $318 #
cone-surface $-1 21 0 -105 0 1 0 1 0 0 1 I I 0 1 forward I I I I #
loop $-1 $-1 $508 $239 #
coedge $-1 $414 $414 $476 $509 1 $319 $-1 #
coedge $-1 $415 $415 $321 $416 0 $510 $-1 #
edge $-1 $511 $511 $415 $512 forward #
vertex $-1 $323 $513 #
ellipse-curve $-1 71 0 -52.5 -1 -0 0 0 0 -5 1 I I #
point $-1 67 0 -57.5 #
coedge $-1 $514 $515 $333 $421 1 $516 $-1 #
edge $-1 $462 $423 $420 $371 forward #
coedge $-1 $360 $334 $515 $517 0 $207 $-1 #
vertex $-1 $335 $518 #
point $-1 -5 -16.24807680927192166 -102.5 #
coedge $-1 $519 $478 $338 $426 0 $447 $-1 #
edge $-1 $480 $428 $425 $520 forward #
coedge $-1 $339 $496 $519 $521 1 $197 $-1 #
vertex $-1 $521 $522 #
point $-1 -5 -50 -68.74807680927192166 #
intcurve-curve $-1 forward { surfintcur nubs 3 open 19 
	-1.833496612320372421 3 -1.536812335563826792 2 -0.7684061677819133962 2 0 3 0.6943706105627632796 2 
	1.388741221125526559 2 1.687183164622430898 2 1.985625108119335014 2 2.284067051616239574 2 2.582508995113143691 2 
	2.880950938610047807 2 3.179392882106952367 2 3.477834825603856928 2 3.776276769100761044 2 4.470647379663524212 2 
	5.165017990226287381 2 5.933424158008200777 2 6.701830325790115062 2 6.998514602546642038 3 
	16.98193483603936116 -49.99999999999999289 -53.28351083241570763 
	16.97826702263419207 -50.06676728494590378 -53.36300758684511436 
	16.9743923867359392 -50.14110454816487561 -53.43486023806299556 
	16.96113326137006538 -50.41497103397212243 -53.66039903663758537 
	16.95120530847447782 -50.65956893458972132 -53.78992452764037324 
	16.93741680673088013 -51.18060938949231797 -53.95985566954164625 
	16.93369422187609885 -51.45714077564005606 -54 
	16.93369422187609885 -51.7132761649006909 -54 
	16.93369422187609885 -51.94473303508827655 -54 
	16.93674483340850401 -52.19556193141974632 -53.96702080651510869 
	16.94887409025306368 -52.66893398350944722 -53.81952367731955178 
	16.95786943053743556 -52.89141202394225161 -53.70479001013318765 
	16.97075204810445115 -53.15003508815915723 -53.49871286522660796 
	16.9748607615395386 -53.22517686330758124 -53.4275581339431227 
	16.98276028045451369 -53.3603136925670043 -53.2694902355274138 
	16.98654202837408178 -53.42030142192986375 -53.18257035388565157 
	16.99295008674137364 -53.5181452765691148 -52.99815637097754006 
	16.99557534228742384 -53.55610549611780868 -52.90044428480761241 
	16.99910269333405921 -53.6064844166763379 -52.70110808567617511 
	17 -53.61889029630977888 -52.59948064783230137 
	17 -53.61889029630978598 -52.40051935216770573 
	16.99910269333405566 -53.6064844166763308 -52.29889191432384621 
	16.99557534228741673 -53.55610549611779447 -52.0995557151923947 
	16.99295008674137364 -53.5181452765691219 -52.00184362902245994 
	16.98654202837408178 -53.42030142192986375 -51.81742964611434843 
	16.98276028045451369 -53.3603136925670043 -51.7305097644725862 
	16.9748607615395386 -53.22517686330758124 -51.5724418660568773 
	16.97075204810445115 -53.15003508815915723 -51.50128713477339204 
	16.95786943053743556 -52.89141202394225161 -51.29520998986681235 
	16.94887409025306368 -52.66893398350944722 -51.18047632268044822 
	16.93674483340850401 -52.19556193141974632 -51.03297919348489131 
	16.93369422187609885 -51.94473303508827655 -51 
	16.9336942218760953 -51.45714077564004896 -51 
	16.93741680673088013 -51.18060938949231087 -51.04014433045835375 
	16.95120530847447782 -50.65956893458971422 -51.21007547235962676 
	16.96113326137006183 -50.41497103397212243 -51.33960096336241463 
	16.9743923867359392 -50.14110454816488271 -51.56513976193700444 
	16.97826702263419207 -50.06676728494589668 -51.63699241315487853 
	16.98193483603936116 -49.99999999999999289 -51.71648916758427816 
	0.001000000000000000021 
	cone 43 -29.75 -52.5 -0.7647275479621377103 -0.6443537672643937508 0 0.9665306508965906263 -1.147091321943206621 0 1 I I 0 1 forward I I I I 
	cone 0 -52.5 -52.5 0 -1 0 17 0 0 1 I I 0 1 forward I I I I 
	nullbs 
	nullbs 
	I I } I I #
straight-curve $-1 -5 -52.5 -68.74807680927192166 -0 1 -0 I I #
point $-1 -4.999999999999999112 -54.98052406207499132 -68.74807680927190745 #
point $-1 16.98193483603936116 -49.99999999999999289 -51.71648916758427816 #
vertex $-1 $353 $523 #
ellipse-curve $-1 0 -50 -52.5 0 -1 0 10 0 0 1 I I #
loop $-1 $510 $524 $354 #
plane-surface $-1 0 -55 -52.5 0 -1 0 1 0 0 forward_v I I I I #
loop $-1 $-1 $525 $279 #
straight-curve $-1 -5 -16.24807680927192166 -105 -0 -0 1 I I #
point $-1 -5 -16.24807680927192521 -107.4805240620749913 #
coedge $-1 $526 $527 $360 $442 0 $528 $-1 #
edge $-1 $444 $529 $441 $530 forward #
coedge $-1 $368 $361 $527 $531 1 $369 $-1 #
vertex $-1 $442 $532 #
straight-curve $-1 16.73320053068151125 -3 -105 -0 0 1 I I #
face $-1 $236 $533 $5 $-1 $534 forward single #
loop $-1 $-1 $425 $363 #
plane-surface $-1 -5 -15 -37.5 -1 0 0 0 0 1 forward_v I I I I #
coedge $-1 $535 $536 $365 $450 1 $537 $-1 #
edge $-1 $454 $467 $365 $538 forward #
coedge $-1 $539 $366 $368 $456 0 $453 $-1 #
coedge $-1 $366 $539 $535 $540 1 $453 $-1 #
loop $-1 $-1 $451 $541 #
vertex $-1 $367 $542 #
straight-curve $-1 25 -1.5 -102.5 0 1 0 I I #
edge $-1 $370 $543 $451 $544 forward #
face $-1 $545 $546 $5 $-1 $475 reversed single #
point $-1 25 -3 -102.5 #
coedge $-1 $547 $373 $378 $471 0 $461 $-1 #
coedge $-1 $373 $547 $514 $548 1 $461 $-1 #
loop $-1 $-1 $459 $545 #
vertex $-1 $374 $549 #
straight-curve $-1 -25 -1.5 -102.5 0 -1 0 I I #
coedge $-1 $550 $375 $536 $551 0 $466 $-1 #
coedge $-1 $375 $550 $377 $470 0 $466 $-1 #
loop $-1 $-1 $465 $552 #
vertex $-1 $376 $553 #
ellipse-curve $-1 0 0 -102.5 -0 -0 -1 12 0 0 1 I I #
coedge $-1 $378 $377 $554 $555 1 $379 $-1 #
edge $-1 $556 $380 $465 $557 forward #
edge $-1 $381 $558 $378 $559 forward #
point $-1 -12 1.46957615897682375e-15 -102.5 #
point $-1 -25 0 -102.5 #
loop $-1 $516 $560 $383 #
plane-surface $-1 0 -3 -105 0 1 0 0 0 1 forward_v I I I I #
coedge $-1 $476 $476 $414 $509 0 $384 $-1 #
ellipse-curve $-1 -5 -15 -67.5 -1 0 0 0 0 40 1 I I #
coedge $-1 $425 $561 $389 $479 0 $447 $-1 #
edge $-1 $483 $480 $478 $562 forward #
vertex $-1 $391 $563 #
straight-curve $-1 0 -50 -37.5 -1 0 0 I I #
coedge $-1 $564 $392 $561 $565 0 $399 $-1 #
vertex $-1 $565 $566 #
straight-curve $-1 0 -15 -2.5 -1 0 0 I I #
coedge $-1 $567 $568 $395 $486 1 $533 $-1 #
edge $-1 $490 $497 $395 $569 forward #
coedge $-1 $570 $396 $398 $493 1 $489 $-1 #
coedge $-1 $396 $571 $567 $572 0 $489 $-1 #
loop $-1 $-1 $396 $573 #
vertex $-1 $572 $574 #
straight-curve $-1 5 -16.24807680927192166 0 -0 -0 -1 I I #
coedge $-1 $398 $575 $576 $577 0 $399 $-1 #
edge $-1 $578 $400 $398 $579 forward #
coedge $-1 $575 $580 $581 $582 0 $399 $-1 #
point $-1 5 -16.24807680927192166 -2.5 #
coedge $-1 $427 $403 $568 $583 1 $197 $-1 #
vertex $-1 $404 $584 #
straight-curve $-1 5 -52.5 -36.25192319072807834 -0 1 -0 I I #
point $-1 5 -50 -36.25192319072807834 #
face $-1 $585 $586 $5 $-1 $587 reversed single #
loop $-1 $588 $589 $408 #
plane-surface $-1 0 0 0 0 -1 0 0 0 -1 forward_v I I I I #
face $-1 $590 $591 $5 $-1 $592 reversed single #
loop $-1 $593 $594 $410 #
cone-surface $-1 -21 0 0 0 1 0 1 0 0 1 I I 0 1 forward I I I I #
loop $-1 $-1 $595 $318 #
coedge $-1 $507 $507 $596 $597 1 $411 $-1 #
coedge $-1 $508 $508 $560 $598 1 $413 $-1 #
edge $-1 $599 $599 $476 $600 forward #
loop $-1 $-1 $415 $354 #
vertex $-1 $416 $601 #
ellipse-curve $-1 0 -55 -52.5 0 -1 0 17 0 0 1 I I #
point $-1 71 0 -57.5 #
coedge $-1 $602 $420 $460 $548 0 $516 $-1 #
coedge $-1 $420 $602 $422 $517 1 $516 $-1 #
loop $-1 $-1 $515 $383 #
edge $-1 $423 $529 $422 $603 forward #
point $-1 -16.73320053068151125 -3 -102.5 #
coedge $-1 $604 $425 $427 $521 0 $447 $-1 #
straight-curve $-1 -5 -50 -45 0 -0 1 I I #
edge $-1 $428 $605 $519 $606 forward #
point $-1 -5 -50 -36.25192319072807834 #
point $-1 10 -50 -52.5 #
coedge $-1 $524 $524 $525 $607 0 $436 $-1 #
coedge $-1 $525 $525 $524 $607 1 $438 $-1 #
coedge $-1 $608 $441 $602 $609 0 $528 $-1 #
coedge $-1 $441 $610 $443 $531 0 $528 $-1 #
loop $-1 $-1 $554 $590 #
vertex $-1 $609 $611 #
ellipse-curve $-1 0 0 -107.5 0 0 -1 17 0 0 1 I I #
edge $-1 $543 $444 $443 $612 forward #
point $-1 16.73320053068151125 -3 -107.5 #
loop $-1 $-1 $568 $446 #
cone-surface $-1 0 -15 -37.5 -1 0 0 0 0 40 1 I I 0 1 forward I I I I #
coedge $-1 $613 $449 $452 $540 0 $537 $-1 #
coedge $-1 $449 $613 $464 $551 1 $537 $-1 #
loop $-1 $-1 $449 $614 #
straight-curve $-1 0 0 -102.5 -1 0 0 I I #
coedge $-1 $452 $451 $610 $615 1 $453 $-1 #
edge $-1 $454 $616 $452 $617 forward #
face $-1 $284 $453 $5 $-1 $618 reversed single #
point $-1 25 0 -102.5 #
vertex $-1 $456 $619 #
straight-curve $-1 25 -3 -105 0 0 -1 I I #
face $-1 $614 $461 $5 $-1 $620 reversed single #
loop $-1 $369 $596 $457 #
coedge $-1 $460 $459 $608 $621 1 $461 $-1 #
edge $-1 $462 $622 $460 $623 forward #
point $-1 -25 -3 -102.5 #
coedge $-1 $465 $464 $624 $625 1 $466 $-1 #
edge $-1 $467 $626 $464 $627 forward #
face $-1 $203 $466 $5 $-1 $628 reversed single #
point $-1 12 0 -102.5 #
coedge $-1 $624 $608 $469 $555 0 $528 $-1 #
edge $-1 $558 $556 $554 $629 forward #
vertex $-1 $470 $630 #
straight-curve $-1 -12 0 -52.5 -0 0 1 I I #
vertex $-1 $555 $631 #
straight-curve $-1 -25 0 -105 0 0 -1 I I #
coedge $-1 $560 $560 $508 $598 0 $474 $-1 #
coedge $-1 $478 $632 $482 $565 1 $447 $-1 #
ellipse-curve $-1 -5 -15 -37.5 1 -0 -0 0 0 35 1 I I #
point $-1 -5 -50 -37.5 #
coedge $-1 $633 $482 $634 $635 0 $399 $-1 #
edge $-1 $483 $636 $482 $637 forward #
point $-1 -5 -15 -2.5 #
coedge $-1 $638 $485 $488 $572 1 $533 $-1 #
coedge $-1 $485 $638 $496 $583 0 $533 $-1 #
ellipse-curve $-1 5 -15 -37.5 1 0 0 0 0 40 1 I I #
coedge $-1 $639 $487 $640 $641 0 $489 $-1 #
coedge $-1 $488 $634 $632 $642 0 $489 $-1 #
edge $-1 $643 $490 $488 $644 forward #
face $-1 $-1 $489 $5 $-1 $645 forward single #
point $-1 5 -16.24807680927192521 2.480524062074993985 #
coedge $-1 $492 $494 $646 $647 0 $399 $-1 #
coedge $-1 $648 $640 $492 $577 1 $649 $-1 #
edge $-1 $650 $578 $576 $651 forward #
vertex $-1 $493 $652 #
ellipse-curve $-1 0 0 -2.5 0 0 -1 17 0 0 1 I I #
coedge $-1 $494 $653 $654 $655 0 $399 $-1 #
coedge $-1 $656 $657 $494 $582 1 $658 $-1 #
edge $-1 $659 $660 $494 $661 forward #
edge $-1 $605 $497 $568 $662 forward #
point $-1 4.999999999999999112 -54.98052406207499132 -36.25192319072807123 #
face $-1 $663 $664 $5 $-1 $587 reversed single #
loop $-1 $665 $666 $500 #
plane-surface $-1 0 -3 0 0 1 0 0 0 1 forward_v I I I I #
loop $-1 $-1 $667 $408 #
coedge $-1 $589 $589 $594 $668 0 $501 $-1 #
face $-1 $669 $528 $5 $-1 $670 forward single #
loop $-1 $671 $672 $503 #
cone-surface $-1 21 0 0 0 1 0 1 0 0 1 I I 0 1 forward I I I I #
loop $-1 $-1 $673 $410 #
coedge $-1 $594 $594 $589 $668 1 $504 $-1 #
coedge $-1 $595 $595 $674 $675 1 $506 $-1 #
coedge $-1 $596 $596 $507 $597 0 $546 $-1 #
edge $-1 $676 $676 $596 $677 forward #
edge $-1 $678 $678 $560 $679 forward #
vertex $-1 $509 $680 #
ellipse-curve $-1 -21 0 -105 0 -1 0 1 0 0 1 I I #
point $-1 17 -55 -52.5 #
coedge $-1 $515 $514 $526 $609 1 $516 $-1 #
straight-curve $-1 -16.73320053068151125 -3 -105 0 0 -1 I I #
coedge $-1 $632 $519 $638 $681 0 $447 $-1 #
vertex $-1 $681 $682 #
straight-curve $-1 -5 -52.5 -36.25192319072807834 0 -1 0 I I #
edge $-1 $683 $683 $524 $684 forward #
coedge $-1 $554 $526 $547 $621 0 $528 $-1 #
edge $-1 $529 $622 $602 $612 forward #
coedge $-1 $527 $685 $539 $615 0 $528 $-1 #
point $-1 -16.73320053068151125 -3 -107.5 #
straight-curve $-1 0 -3 -107.5 -1 0 0 I I #
coedge $-1 $536 $535 $685 $686 1 $537 $-1 #
face $-1 $541 $687 $5 $-1 $385 reversed single #
edge $-1 $616 $543 $539 $688 forward #
vertex $-1 $615 $689 #
straight-curve $-1 25 0 -105 0 0 -1 I I #
plane-surface $-1 25 -1.5 -105 -1 0 0 0 0 1 forward_v I I I I #
point $-1 25 -3 -107.5 #
plane-surface $-1 -25 -1.5 -105 1 0 0 0 0 -1 forward_v I I I I #
edge $-1 $622 $558 $547 $690 forward #
vertex $-1 $621 $691 #
straight-curve $-1 -25 -3 -105 0 0 -1 I I #
coedge $-1 $685 $554 $550 $625 0 $528 $-1 #
edge $-1 $556 $626 $624 $692 forward #
vertex $-1 $551 $693 #
straight-curve $-1 12 0 -52.5 -0 -0 -1 I I #
cone-surface $-1 0 0 -52.5 0 0 1 12 0 0 1 I I 0 1 forward I I I I #
straight-curve $-1 0 0 -107.5 1 -0 0 I I #
point $-1 -12 -1.46957615897682375e-15 -107.5 #
point $-1 -25 0 -107.5 #
coedge $-1 $561 $604 $571 $642 1 $447 $-1 #
coedge $-1 $694 $564 $695 $696 0 $399 $-1 #
coedge $-1 $571 $697 $564 $635 1 $489 $-1 #
edge $-1 $636 $698 $564 $579 forward #
vertex $-1 $635 $699 #
straight-curve $-1 -5 -7.5 -2.5 -0 -1 -0 I I #
coedge $-1 $568 $567 $604 $681 1 $533 $-1 #
coedge $-1 $697 $570 $700 $701 1 $489 $-1 #
coedge $-1 $576 $702 $570 $641 1 $649 $-1 #
edge $-1 $578 $703 $570 $704 forward #
edge $-1 $636 $643 $571 $705 forward #
vertex $-1 $642 $706 #
intcurve-curve $-1 forward { surfintcur nubs 3 open 7 
	28.10796889018482858 3 29.06923983330171524 2 31.07109229635986836 2 33.07294475941802148 2 35.07479722247617104 2 
	37.07664968553432061 2 38.03792062865121437 3 
	-5 -16.24807680927192521 2.480524062074993985 
	-4.68242009582542007 -16.34580526904673192 2.477473261038433794 
	-4.362469650754253081 -16.43406311862422342 2.474362570554491825 
	-3.371354334862901148 -16.67660533074229079 2.465183381548006203 
	-2.694814602765469136 -16.79885443967942749 2.459613036964329869 
	-1.34278008085163636 -16.96055653223811888 2.452005825027359531 
	-0.6672841543527179287 -17 2.44996871087635526 
	0.6672841543527165964 -17 2.44996871087635526 
	1.342780080851634583 -16.96055653223811888 2.452005825027359531 
	2.694814602765465583 -16.79885443967942749 2.459613036964329869 
	3.371354334862895819 -16.67660533074229079 2.465183381548006203 
	4.362469650754249528 -16.43406311862422342 2.474362570554491381 
	4.682420095825418294 -16.34580526904673192 2.477473261038433794 
	5 -16.24807680927192521 2.480524062074993985 
	0.001000000000000000021 
	cone 0 0 0 0 0 1 17 0 0 1 I I 0 1 forward I I I I 
	cone 0 -15 -37.5 -1 0 0 0 0 40 1 I I -0 -1 forward I I I I 
	nullbs 
	nullbs 
	I I } I I #
cone-surface $-1 0 0 0 0 0 1 17 0 0 1 I I 0 1 forward I I I I #
coedge $-1 $707 $708 $575 $647 1 $709 $-1 #
edge $-1 $660 $650 $646 $710 forward #
coedge $-1 $702 $576 $708 $711 1 $649 $-1 #
loop $-1 $-1 $640 $585 #
vertex $-1 $711 $712 #
straight-curve $-1 0 -3 -2.5 -1 0 0 I I #
point $-1 16.73320053068151125 -3 -2.5 #
coedge $-1 $580 $694 $667 $713 0 $399 $-1 #
coedge $-1 $714 $715 $580 $655 1 $716 $-1 #
edge $-1 $717 $659 $580 $718 forward #
coedge $-1 $719 $581 $715 $720 1 $658 $-1 #
coedge $-1 $581 $719 $707 $721 0 $658 $-1 #
loop $-1 $-1 $719 $722 #
vertex $-1 $720 $723 #
vertex $-1 $647 $724 #
straight-curve $-1 0 0 -2.5 1 -0 0 I I #
intcurve-curve $-1 forward { surfintcur nubs 3 open 7 
	28.10796889018482503 3 29.06923983330171524 2 31.07109229635986836 2 33.07294475941802148 2 35.07479722247617815 2 
	37.07664968553432772 2 38.03792062865121437 3 
	-4.999999999999999112 -54.98052406207499132 -36.25192319072807123 
	-4.682420095825417405 -54.97747326103843335 -36.15419473095326452 
	-4.362469650754254857 -54.97436257055449005 -36.06593688137576947 
	-3.371354334862902036 -54.96518338154800176 -35.823394669257695 
	-2.694814602765470024 -54.95961303696432765 -35.70114556032056896 
	-1.342780080851637248 -54.95200582502735642 -35.53944346776187757 
	-0.6672841543527177066 -54.94996871087635526 -35.5 
	0.6672841543527189279 -54.94996871087635526 -35.5 
	1.342780080851639912 -54.95200582502735642 -35.53944346776187047 
	2.694814602765472245 -54.95961303696432765 -35.70114556032056186 
	3.371354334862902924 -54.96518338154800176 -35.823394669257695 
	4.362469650754253081 -54.97436257055449005 -36.06593688137576237 
	4.68242009582542007 -54.97747326103843335 -36.15419473095326452 
	4.999999999999999112 -54.98052406207499132 -36.25192319072807123 
	0.001000000000000000021 
	cone 0 -52.5 -52.5 0 -1 0 17 0 0 1 I I 0 1 forward I I I I 
	cone 0 -15 -37.5 -1 0 0 0 0 40 1 I I 0 1 forward I I I I 
	nullbs 
	nullbs 
	I I } I I #
face $-1 $722 $725 $5 $-1 $726 reversed single #
loop $-1 $649 $727 $585 #
loop $-1 $-1 $728 $500 #
coedge $-1 $666 $666 $673 $729 0 $586 $-1 #
coedge $-1 $730 $731 $653 $713 1 $588 $-1 #
edge $-1 $732 $732 $589 $733 forward #
face $-1 $734 $735 $5 $-1 $736 forward single #
plane-surface $-1 0 0 -107.5 0 0 -1 1 0 0 forward_v I I I I #
loop $-1 $-1 $737 $503 #
coedge $-1 $672 $672 $727 $738 1 $591 $-1 #
coedge $-1 $673 $673 $666 $729 1 $593 $-1 #
coedge $-1 $674 $674 $595 $675 0 $687 $-1 #
edge $-1 $739 $739 $674 $740 forward #
vertex $-1 $597 $741 #
ellipse-curve $-1 21 -3 -105 0 1 0 1 0 0 1 I I #
vertex $-1 $598 $742 #
ellipse-curve $-1 -21 -3 -105 0 1 0 1 0 0 1 I I #
point $-1 -22 0 -105 #
edge $-1 $605 $643 $604 $743 forward #
point $-1 -4.999999999999999112 -54.98052406207499132 -36.25192319072807123 #
vertex $-1 $607 $744 #
ellipse-curve $-1 0 -55 -52.5 -0 1 -0 10 0 0 1 I I #
coedge $-1 $610 $624 $613 $686 0 $528 $-1 #
edge $-1 $626 $616 $685 $629 forward #
loop $-1 $537 $674 $614 #
straight-curve $-1 25 -1.5 -107.5 0 -1 0 I I #
point $-1 25 0 -107.5 #
straight-curve $-1 -25 -1.5 -107.5 0 1 0 I I #
point $-1 -25 -3 -107.5 #
ellipse-curve $-1 0 0 -107.5 -0 -0 1 12 0 0 1 I I #
point $-1 12 0 -107.5 #
coedge $-1 $653 $633 $745 $746 0 $399 $-1 #
coedge $-1 $728 $747 $633 $696 1 $665 $-1 #
edge $-1 $698 $748 $695 $651 forward #
coedge $-1 $634 $639 $728 $749 0 $489 $-1 #
vertex $-1 $696 $750 #
point $-1 -5 -16.24807680927192166 -2.5 #
coedge $-1 $751 $752 $639 $701 0 $735 $-1 #
edge $-1 $753 $703 $700 $754 forward #
coedge $-1 $640 $648 $751 $755 1 $649 $-1 #
vertex $-1 $755 $756 #
straight-curve $-1 16.73320053068151125 -3 0 0 0 1 I I #
straight-curve $-1 -5 -16.24807680927192166 0 0 0 1 I I #
point $-1 -5 -16.24807680927192521 2.480524062074993985 #
coedge $-1 $757 $646 $657 $721 1 $709 $-1 #
coedge $-1 $646 $757 $648 $711 0 $709 $-1 #
loop $-1 $-1 $708 $758 #
straight-curve $-1 25 -1.5 -2.5 0 -1 0 I I #
edge $-1 $759 $650 $708 $760 forward #
point $-1 25 -3 -2.5 #
edge $-1 $761 $717 $653 $661 forward #
coedge $-1 $762 $654 $731 $763 0 $716 $-1 #
coedge $-1 $654 $762 $656 $720 0 $716 $-1 #
loop $-1 $-1 $715 $734 #
vertex $-1 $713 $764 #
ellipse-curve $-1 0 0 -2.5 -0 -0 1 12 0 0 1 I I #
coedge $-1 $657 $656 $765 $766 1 $658 $-1 #
edge $-1 $767 $659 $715 $768 forward #
edge $-1 $769 $660 $707 $770 forward #
face $-1 $758 $771 $5 $-1 $502 reversed single #
point $-1 12 0 -2.5 #
point $-1 25 0 -2.5 #
loop $-1 $-1 $772 $663 #
plane-surface $-1 -25 -1.5 0 1 0 0 0 0 -1 forward_v I I I I #
coedge $-1 $727 $727 $672 $738 0 $664 $-1 #
coedge $-1 $773 $695 $697 $749 1 $665 $-1 #
edge $-1 $774 $774 $666 $775 forward #
coedge $-1 $776 $667 $772 $777 1 $588 $-1 #
coedge $-1 $667 $776 $714 $763 1 $588 $-1 #
vertex $-1 $668 $778 #
ellipse-curve $-1 -21 0 0 0 -1 0 1 0 0 1 I I #
face $-1 $552 $716 $5 $-1 $628 reversed single #
loop $-1 $-1 $765 $669 #
plane-surface $-1 0 0 2.5 0 0 1 1 0 0 forward_v I I I I #
coedge $-1 $737 $737 $779 $780 1 $671 $-1 #
edge $-1 $781 $781 $727 $782 forward #
vertex $-1 $675 $783 #
ellipse-curve $-1 21 0 -105 0 -1 0 1 0 0 1 I I #
point $-1 20 -3 -105 #
point $-1 -22 -3 -105 #
ellipse-curve $-1 -5 -15 -37.5 -1 0 0 0 0 40 1 I I #
point $-1 10 -55 -52.5 #
coedge $-1 $784 $772 $694 $746 1 $725 $-1 #
edge $-1 $748 $761 $745 $785 forward #
coedge $-1 $695 $773 $784 $786 0 $665 $-1 #
vertex $-1 $746 $787 #
edge $-1 $753 $698 $697 $788 forward #
point $-1 -16.73320053068151125 -3 -2.5 #
coedge $-1 $789 $700 $702 $755 0 $735 $-1 #
coedge $-1 $700 $790 $773 $791 0 $735 $-1 #
vertex $-1 $701 $792 #
ellipse-curve $-1 0 0 2.5 0 0 1 17 0 0 1 I I #
edge $-1 $703 $759 $702 $793 forward #
point $-1 16.73320053068151125 -3 2.5 #
coedge $-1 $708 $707 $789 $794 1 $709 $-1 #
face $-1 $573 $709 $5 $-1 $795 reversed single #
vertex $-1 $794 $796 #
straight-curve $-1 25 -3 0 0 0 -1 I I #
vertex $-1 $713 $797 #
coedge $-1 $715 $714 $798 $799 1 $716 $-1 #
edge $-1 $717 $800 $714 $801 forward #
point $-1 -12 -1.46957615897682375e-15 -2.5 #
coedge $-1 $798 $789 $719 $766 0 $735 $-1 #
edge $-1 $769 $767 $765 $802 forward #
vertex $-1 $799 $803 #
straight-curve $-1 12 0 -52.5 -0 -0 -1 I I #
vertex $-1 $794 $804 #
straight-curve $-1 25 0 0 0 0 -1 I I #
loop $-1 $658 $779 $722 #
coedge $-1 $745 $805 $730 $777 0 $725 $-1 #
coedge $-1 $747 $728 $752 $791 1 $665 $-1 #
vertex $-1 $729 $806 #
ellipse-curve $-1 -21 -3 0 0 1 0 1 0 0 1 I I #
coedge $-1 $731 $730 $807 $808 1 $588 $-1 #
edge $-1 $809 $761 $730 $810 forward #
point $-1 -22 0 -1.224646799147353207e-16 #
coedge $-1 $779 $779 $737 $780 0 $771 $-1 #
edge $-1 $811 $811 $779 $812 forward #
vertex $-1 $738 $813 #
ellipse-curve $-1 21 -3 0 0 1 0 1 0 0 1 I I #
point $-1 20 0 -105 #
coedge $-1 $805 $745 $747 $786 1 $725 $-1 #
straight-curve $-1 -25 -1.5 -2.5 0 1 0 I I #
edge $-1 $814 $748 $784 $815 forward #
point $-1 -25 -3 -2.5 #
straight-curve $-1 -16.73320053068151125 -3 0 -0 -0 -1 I I #
coedge $-1 $765 $751 $757 $794 0 $735 $-1 #
coedge $-1 $752 $807 $805 $816 0 $735 $-1 #
edge $-1 $814 $753 $773 $793 forward #
point $-1 -16.73320053068151125 -3 2.5 #
straight-curve $-1 0 -3 2.5 1 0 0 I I #
edge $-1 $759 $769 $757 $817 forward #
plane-surface $-1 25 -1.5 0 -1 0 0 0 0 1 forward_v I I I I #
point $-1 25 -3 2.5 #
point $-1 -25 0 -2.5 #
coedge $-1 $807 $765 $762 $799 0 $735 $-1 #
edge $-1 $767 $800 $798 $818 forward #
vertex $-1 $799 $819 #
straight-curve $-1 -12 0 -52.5 -0 0 1 I I #
straight-curve $-1 0 0 2.5 -1 0 0 I I #
point $-1 12 0 2.5 #
point $-1 25 0 2.5 #
coedge $-1 $772 $784 $790 $816 1 $725 $-1 #
point $-1 -22 -3 1.224646799147353207e-16 #
coedge $-1 $790 $798 $776 $808 0 $735 $-1 #
edge $-1 $800 $809 $776 $820 forward #
vertex $-1 $808 $821 #
straight-curve $-1 -25 0 0 0 0 -1 I I #
vertex $-1 $780 $822 #
ellipse-curve $-1 21 0 0 0 -1 0 1 0 0 1 I I #
point $-1 20 -3 1.224646799147353207e-16 #
vertex $-1 $816 $823 #
straight-curve $-1 -25 -3 0 0 0 -1 I I #
edge $-1 $809 $814 $805 $824 forward #
straight-curve $-1 25 -1.5 2.5 0 1 0 I I #
ellipse-curve $-1 0 0 2.5 -0 -0 -1 12 0 0 1 I I #
point $-1 -12 1.46957615897682375e-15 2.5 #
straight-curve $-1 0 0 2.5 -1 0 0 I I #
point $-1 -25 0 2.5 #
point $-1 20 0 -1.224646799147353207e-16 #
point $-1 -25 -3 2.5 #
straight-curve $-1 -25 -1.5 2.5 0 -1 0 I I #
End-of-ACIS-data 