700 0 2 0           
24 FBMach with ACIS - 7.0.3 13 ACIS 7.0.3 NT 24 Mon May 13 17:07:31 2002 
1 9.9999999999999995e-007 1e-010 
body $2 -1 $-1 $3 $-1 $4 #
bdycol-kcp $-1 -1 1 4 $5 $6 $7 $8 #
model_id-kcp-attrib $-1 -1 $9 $-1 $0 1 1021324050 1021324051 -1307508735 1 #
lump $-1 -1 $-1 $-1 $10 $0 #
transform $-1 -1 1 0 0 0 1 0 0 0 1 0 0 0 1 rotate no_reflect no_shear #
body $11 -1 $-1 $12 $-1 $13 #
body $14 -1 $-1 $15 $-1 $16 #
body $17 -1 $-1 $18 $-1 $19 #
body $20 -1 $-1 $21 $-1 $22 #
rgb_color-st-attrib $-1 -1 $-1 $2 $0 0 1 0 #
shell $-1 -1 $-1 $-1 $-1 $23 $-1 $3 #
model_id-kcp-attrib $-1 -1 $-1 $-1 $5 1 1021324050 1021324051 -1307508734 1 #
lump $-1 -1 $-1 $-1 $24 $5 #
transform $-1 -1 1 0 0 0 1 0 0 0 1 0 0 15 1 no_rotate no_reflect no_shear #
rgb_color-st-attrib $-1 -1 $25 $-1 $6 0.5 1 1 #
lump $-1 -1 $-1 $-1 $26 $6 #
transform $-1 -1 1 0 0 0 1 0 0 0 1 0 0 25 1 no_rotate no_reflect no_shear #
rgb_color-st-attrib $-1 -1 $27 $-1 $7 0.5 1 1 #
lump $-1 -1 $-1 $-1 $28 $7 #
transform $-1 -1 1 0 0 0 1 0 0 0 1 0 0 15 1 no_rotate no_reflect no_shear #
model_id-kcp-attrib $-1 -1 $29 $-1 $8 1 1021324050 1021324051 -1297678331 1 #
lump $-1 -1 $-1 $-1 $30 $8 #
transform $-1 -1 1 0 0 0 1 0 0 0 1 0 0 15 1 no_rotate no_reflect no_shear #
face $31 -1 $-1 $32 $33 $10 $-1 $34 reversed single #
shell $-1 -1 $-1 $-1 $-1 $35 $-1 $12 #
model_id-kcp-attrib $-1 -1 $-1 $14 $6 1 1021324050 1021324051 -1306198013 1 #
shell $-1 -1 $-1 $-1 $-1 $36 $-1 $15 #
model_id-kcp-attrib $-1 -1 $-1 $17 $7 1 1021324050 1021324051 -1303576572 1 #
shell $-1 -1 $-1 $-1 $-1 $37 $-1 $18 #
rgb_color-st-attrib $-1 -1 $-1 $20 $8 1 0.5 1 #
shell $-1 -1 $-1 $-1 $-1 $38 $-1 $21 #
model_id-kcp-attrib $-1 -1 $-1 $-1 $23 1 1021324050 1021324051 -1307508735 2 #
face $39 -1 $-1 $40 $41 $10 $-1 $42 reversed single #
loop $-1 -1 $-1 $43 $44 $23 #
cone-surface $-1 -1 $-1 0 0 25 0 0 1 4 0 0 1 I I 0 1 4 forward I I I I #
face $45 -1 $-1 $46 $47 $24 $-1 $48 forward single #
face $-1 -1 $-1 $49 $50 $26 $-1 $51 forward single #
face $-1 -1 $-1 $52 $53 $28 $-1 $54 reversed single #
face $-1 -1 $-1 $55 $56 $30 $-1 $57 forward single #
model_id-kcp-attrib $-1 -1 $-1 $-1 $32 1 1021324050 1021324051 -1307508735 3 #
face $58 -1 $-1 $59 $60 $10 $-1 $61 forward single #
loop $-1 -1 $-1 $-1 $62 $32 #
plane-surface $-1 -1 $-1 0 0 20 0 0 -1 -1 0 0 forward_v I I I I #
loop $-1 -1 $-1 $-1 $63 $23 #
coedge $-1 -1 $-1 $44 $44 $62 $64 forward $33 $-1 #
model_id-kcp-attrib $-1 -1 $-1 $-1 $35 1 1021324050 1021324051 -1307508734 2 #
face $65 -1 $-1 $66 $67 $24 $-1 $68 reversed single #
loop $-1 -1 $-1 $-1 $69 $35 #
plane-surface $-1 -1 $-1 0 0 15 0 0 1 1 0 0 forward_v I I I I #
face $-1 -1 $-1 $70 $71 $26 $-1 $72 forward single #
loop $-1 -1 $-1 $73 $74 $36 #
cone-surface $-1 -1 $-1 0 0 0 0 0 1 4 0 0 1 I I 0 1 4 forward I I I I #
face $-1 -1 $-1 $75 $76 $28 $-1 $54 reversed single #
loop $-1 -1 $-1 $-1 $77 $37 #
cone-surface $-1 -1 $-1 -3.7491518045553436e-032 0 15 0 0 1 10 0 0 1 I I 0 1 10 forward I I I I #
face $-1 -1 $-1 $78 $79 $30 $-1 $80 forward single #
loop $-1 -1 $-1 $81 $82 $38 #
cone-surface $-1 -1 $-1 0 0 0 0 0 1 6 0 0 1 I I 0 -1 6 forward I I I I #
model_id-kcp-attrib $-1 -1 $-1 $-1 $40 1 1021324050 1021324051 -1307508735 4 #
face $83 -1 $-1 $84 $85 $10 $-1 $86 forward single #
loop $-1 -1 $-1 $87 $88 $40 #
cone-surface $-1 -1 $-1 0 0 22.5 0 0 1 6 0 0 1 I I 0 1 6 forward I I I I #
coedge $-1 -1 $-1 $62 $62 $44 $64 reversed $41 $-1 #
coedge $-1 -1 $-1 $63 $63 $89 $90 reversed $43 $-1 #
edge $91 -1 $-1 $92 0 $92 6.2831853071795862 $62 $93 forward @7 unknown #
model_id-kcp-attrib $-1 -1 $-1 $-1 $46 1 1021324050 1021324051 -1307508734 3 #
face $-1 -1 $-1 $94 $95 $24 $-1 $96 reversed single #
loop $-1 -1 $-1 $-1 $97 $46 #
plane-surface $-1 -1 $-1 0 0 -15 0 0 1 1 0 0 forward_v I I I I #
coedge $-1 -1 $-1 $98 $99 $100 $101 forward $47 $-1 #
face $-1 -1 $-1 $-1 $102 $26 $-1 $103 forward single #
loop $-1 -1 $-1 $-1 $104 $49 #
plane-surface $-1 -1 $-1 0 0 -5 0 0 -1 -1 0 0 forward_v I I I I #
loop $-1 -1 $-1 $-1 $105 $36 #
coedge $-1 -1 $-1 $74 $74 $104 $106 reversed $50 $-1 #
face $-1 -1 $-1 $107 $108 $28 $-1 $54 reversed single #
loop $-1 -1 $-1 $-1 $109 $52 #
coedge $-1 -1 $-1 $110 $111 $112 $113 reversed $53 $-1 #
face $-1 -1 $-1 $114 $115 $30 $-1 $116 forward single #
loop $-1 -1 $-1 $117 $118 $55 #
cone-surface $-1 -1 $-1 -3.7491518045553436e-032 0 0 0 0 1 10 0 0 1 I I 0 1 10 forward I I I I #
loop $-1 -1 $-1 $-1 $119 $38 #
coedge $-1 -1 $-1 $82 $82 $120 $121 forward $56 $-1 #
model_id-kcp-attrib $-1 -1 $-1 $-1 $59 1 1021324050 1021324051 -1307508735 5 #
face $122 -1 $-1 $123 $124 $10 $-1 $125 forward single #
loop $-1 -1 $-1 $126 $89 $59 #
plane-surface $-1 -1 $-1 0 0 30 0 0 1 1 0 0 forward_v I I I I #
loop $-1 -1 $-1 $-1 $127 $40 #
coedge $-1 -1 $-1 $88 $88 $128 $129 reversed $60 $-1 #
coedge $-1 -1 $-1 $89 $89 $63 $90 forward $85 $-1 #
edge $130 -1 $-1 $131 0 $131 6.2831853071795862 $89 $132 forward @7 unknown #
attrib_edge_convexity-kcp-attrib $-1 -1 $133 $-1 $64 2 #
vertex $-1 -1 $-1 $64 $134 #
ellipse-curve $-1 -1 $-1 0 0 20 0 0 -1 4 0 0 1 I I #
face $-1 -1 $-1 $135 $136 $24 $-1 $137 reversed single #
loop $-1 -1 $-1 $-1 $138 $66 #
plane-surface $-1 -1 $-1 0 -10 0 0 1 0 0 0 1 forward_v I I I I #
coedge $-1 -1 $-1 $139 $140 $141 $142 forward $67 $-1 #
coedge $-1 -1 $-1 $143 $69 $144 $145 forward $47 $-1 #
coedge $-1 -1 $-1 $69 $143 $146 $147 forward $47 $-1 #
coedge $-1 -1 $-1 $148 $149 $69 $101 reversed $150 $-1 #
edge $-1 -1 $-1 $151 -10 $152 10 $100 $153 forward @7 unknown #
loop $-1 -1 $-1 $-1 $154 $70 #
plane-surface $-1 -1 $-1 0 0 5 0 0 1 1 0 0 forward_v I I I I #
coedge $-1 -1 $-1 $104 $104 $74 $106 forward $71 $-1 #
coedge $-1 -1 $-1 $105 $105 $154 $155 reversed $73 $-1 #
edge $-1 -1 $-1 $156 0 $156 6.2831853071795862 $104 $157 forward @7 unknown #
face $-1 -1 $-1 $158 $159 $28 $-1 $54 reversed single #
loop $-1 -1 $-1 $-1 $160 $75 #
coedge $-1 -1 $-1 $161 $162 $163 $164 reversed $76 $-1 #
coedge $-1 -1 $-1 $165 $77 $166 $167 reversed $53 $-1 #
coedge $-1 -1 $-1 $77 $165 $168 $169 reversed $53 $-1 #
coedge $-1 -1 $-1 $170 $171 $172 $113 forward $173 $-1 #
edge $-1 -1 $-1 $174 -30 $175 0 $112 $176 forward @7 unknown #
face $-1 -1 $-1 $-1 $177 $30 $-1 $178 reversed single #
loop $-1 -1 $-1 $179 $180 $78 #
plane-surface $-1 -1 $-1 -0.36363636363636342 3.1716609688970826e-017 15 0 0 1 1 0 0 forward_v I I I I #
loop $-1 -1 $-1 $-1 $181 $55 #
coedge $-1 -1 $-1 $118 $118 $180 $182 forward $79 $-1 #
coedge $-1 -1 $-1 $119 $119 $183 $184 reversed $81 $-1 #
coedge $-1 -1 $-1 $120 $120 $82 $121 reversed $179 $-1 #
edge $-1 -1 $-1 $185 0 $185 6.2831853071795862 $82 $186 forward @7 unknown #
model_id-kcp-attrib $-1 -1 $-1 $-1 $84 1 1021324050 1021324051 -1307508735 6 #
face $187 -1 $-1 $188 $189 $10 $-1 $190 forward single #
loop $-1 -1 $-1 $191 $192 $84 #
cone-surface $-1 -1 $-1 0 0 7.5 0 0 1 10 0 0 1 I I 0 1 10 forward I I I I #
loop $-1 -1 $-1 $-1 $193 $59 #
coedge $-1 -1 $-1 $127 $127 $193 $194 reversed $87 $-1 #
coedge $-1 -1 $-1 $128 $128 $88 $129 forward $195 $-1 #
edge $196 -1 $-1 $197 0 $197 6.2831853071795862 $128 $198 forward @7 unknown #
attrib_edge_convexity-kcp-attrib $-1 -1 $199 $-1 $90 1 #
vertex $-1 -1 $-1 $90 $200 #
ellipse-curve $-1 -1 $-1 0 0 30 0 0 -1 4 0 0 1 I I #
convexity-sys-attrib $-1 -1 $-1 $91 $64 #
point $-1 -1 $-1 4 0 20 #
face $-1 -1 $-1 $201 $202 $24 $-1 $203 reversed single #
loop $-1 -1 $-1 $-1 $204 $94 #
plane-surface $-1 -1 $-1 -10 0 0 1 0 0 0 0 -1 forward_v I I I I #
coedge $-1 -1 $-1 $205 $146 $206 $207 forward $95 $-1 #
coedge $-1 -1 $-1 $208 $97 $205 $209 forward $67 $-1 #
coedge $-1 -1 $-1 $97 $208 $210 $211 forward $67 $-1 #
coedge $-1 -1 $-1 $149 $148 $97 $142 reversed $150 $-1 #
edge $-1 -1 $-1 $212 -10 $213 10 $141 $214 forward @7 unknown #
coedge $-1 -1 $-1 $99 $98 $215 $216 forward $47 $-1 #
coedge $-1 -1 $-1 $217 $218 $98 $145 reversed $202 $-1 #
edge $-1 -1 $-1 $152 -10 $219 10 $144 $220 forward @7 unknown #
coedge $-1 -1 $-1 $138 $221 $99 $147 reversed $95 $-1 #
edge $-1 -1 $-1 $222 -10 $151 10 $146 $223 forward @7 unknown #
coedge $-1 -1 $-1 $141 $100 $221 $224 forward $150 $-1 #
coedge $-1 -1 $-1 $100 $141 $217 $225 reversed $150 $-1 #
loop $-1 -1 $-1 $-1 $148 $201 #
vertex $-1 -1 $-1 $101 $226 #
vertex $-1 -1 $-1 $101 $227 #
straight-curve $-1 -1 $-1 10 0 15 0 1 0 I I #
coedge $-1 -1 $-1 $154 $154 $105 $155 forward $102 $-1 #
edge $-1 -1 $-1 $228 0 $228 6.2831853071795862 $154 $229 forward @7 unknown #
vertex $-1 -1 $-1 $106 $230 #
ellipse-curve $-1 -1 $-1 0 0 -5 0 0 -1 4 0 0 1 I I #
face $-1 -1 $-1 $231 $232 $28 $-1 $233 reversed single #
loop $-1 -1 $-1 $-1 $234 $107 #
coedge $-1 -1 $-1 $235 $236 $237 $238 reversed $108 $-1 #
coedge $-1 -1 $-1 $239 $109 $240 $241 reversed $76 $-1 #
coedge $-1 -1 $-1 $109 $239 $77 $113 forward $76 $-1 #
coedge $-1 -1 $-1 $242 $243 $109 $164 forward $244 $-1 #
edge $-1 -1 $-1 $245 -3.1415926535897931 $175 -1.5707963267948966 $163 $246 forward @7 unknown #
coedge $-1 -1 $-1 $111 $110 $236 $247 forward $53 $-1 #
coedge $-1 -1 $-1 $248 $249 $110 $167 forward $250 $-1 #
edge $-1 -1 $-1 $251 0 $174 1.5707963267948966 $166 $252 forward @7 unknown #
coedge $-1 -1 $-1 $253 $254 $111 $169 forward $255 $-1 #
edge $-1 -1 $-1 $175 -1.5707963267948966 $256 0 $168 $246 forward @7 unknown #
coedge $-1 -1 $-1 $257 $112 $254 $258 reversed $173 $-1 #
coedge $-1 -1 $-1 $112 $257 $248 $259 reversed $173 $-1 #
coedge $-1 -1 $-1 $260 $261 $162 $113 reversed $262 $-1 #
loop $-1 -1 $-1 $-1 $112 $263 #
vertex $-1 -1 $-1 $259 $264 #
vertex $-1 -1 $-1 $265 $266 #
straight-curve $-1 -1 $-1 -3.7491518045553436e-032 10 15 0 0 1 I I #
loop $-1 -1 $-1 $267 $268 $114 #
plane-surface $-1 -1 $-1 -0.36363636363636342 3.1716609688970826e-017 0 0 0 1 1 0 0 forward_v I I I I #
loop $-1 -1 $-1 $-1 $120 $78 #
coedge $-1 -1 $-1 $180 $180 $118 $182 reversed $115 $-1 #
coedge $-1 -1 $-1 $181 $181 $268 $269 reversed $117 $-1 #
edge $-1 -1 $-1 $270 -3.1415926535897931 $270 3.1415926535897931 $118 $271 forward @7 unknown #
coedge $-1 -1 $-1 $183 $183 $119 $184 forward $267 $-1 #
edge $272 -1 $-1 $273 0 $273 6.2831853071795862 $119 $274 forward @7 unknown #
vertex $-1 -1 $-1 $121 $275 #
ellipse-curve $-1 -1 $-1 0 0 15 0 0 1 6 0 0 1 I I #
model_id-kcp-attrib $-1 -1 $-1 $-1 $123 1 1021324050 1021324051 -1307508735 7 #
face $276 -1 $-1 $-1 $195 $10 $-1 $277 forward single #
loop $-1 -1 $-1 $-1 $278 $123 #
plane-surface $-1 -1 $-1 0 0 0 0 0 -1 -1 0 0 forward_v I I I I #
loop $-1 -1 $-1 $-1 $279 $84 #
coedge $-1 -1 $-1 $192 $192 $278 $280 reversed $124 $-1 #
coedge $-1 -1 $-1 $193 $193 $127 $194 forward $126 $-1 #
edge $281 -1 $-1 $282 0 $282 6.2831853071795862 $193 $283 forward @7 unknown #
loop $-1 -1 $-1 $284 $128 $188 #
attrib_edge_convexity-kcp-attrib $-1 -1 $285 $-1 $129 2 #
vertex $-1 -1 $-1 $129 $286 #
ellipse-curve $-1 -1 $-1 0 0 15 0 0 -1 6 0 0 1 I I #
convexity-sys-attrib $-1 -1 $-1 $130 $90 #
point $-1 -1 $-1 4 0 30 #
face $-1 -1 $-1 $-1 $150 $24 $-1 $287 reversed single #
loop $-1 -1 $-1 $-1 $217 $135 #
plane-surface $-1 -1 $-1 0 10 0 0 -1 0 0 0 -1 forward_v I I I I #
coedge $-1 -1 $-1 $288 $215 $218 $289 forward $136 $-1 #
coedge $-1 -1 $-1 $221 $138 $139 $209 reversed $95 $-1 #
coedge $-1 -1 $-1 $215 $288 $138 $207 reversed $136 $-1 #
edge $-1 -1 $-1 $222 -15 $290 15 $206 $291 forward @7 unknown #
coedge $-1 -1 $-1 $140 $139 $288 $292 forward $67 $-1 #
edge $-1 -1 $-1 $213 -10 $290 10 $205 $293 forward @7 unknown #
coedge $-1 -1 $-1 $218 $217 $140 $211 reversed $202 $-1 #
edge $-1 -1 $-1 $294 -10 $212 10 $210 $295 forward @7 unknown #
vertex $-1 -1 $-1 $142 $296 #
vertex $-1 -1 $-1 $224 $297 #
straight-curve $-1 -1 $-1 10 0 -15 0 -1 0 I I #
coedge $-1 -1 $-1 $204 $206 $143 $216 reversed $136 $-1 #
edge $-1 -1 $-1 $219 -10 $222 10 $215 $298 forward @7 unknown #
coedge $-1 -1 $-1 $210 $144 $149 $225 forward $202 $-1 #
coedge $-1 -1 $-1 $144 $210 $204 $289 reversed $202 $-1 #
vertex $-1 -1 $-1 $145 $299 #
straight-curve $-1 -1 $-1 0 10 15 -1 0 0 I I #
coedge $-1 -1 $-1 $146 $205 $148 $224 reversed $95 $-1 #
vertex $-1 -1 $-1 $216 $300 #
straight-curve $-1 -1 $-1 0 -10 15 1 0 0 I I #
edge $-1 -1 $-1 $151 -15 $213 15 $148 $301 forward @7 unknown #
edge $-1 -1 $-1 $152 -15 $212 15 $149 $302 forward @7 unknown #
point $-1 -1 $-1 10 -10 15 #
point $-1 -1 $-1 10 10 15 #
vertex $-1 -1 $-1 $155 $303 #
ellipse-curve $-1 -1 $-1 0 0 5 0 0 1 4 0 0 1 I I #
point $-1 -1 $-1 4 0 -5 #
face $-1 -1 $-1 $304 $262 $28 $-1 $305 reversed single #
loop $-1 -1 $-1 $-1 $306 $158 #
plane-surface $-1 -1 $-1 10 0 0 -1 0 0 0 0 1 forward_v I I I I #
coedge $-1 -1 $-1 $307 $308 $309 $310 reversed $159 $-1 #
coedge $-1 -1 $-1 $311 $160 $308 $312 forward $108 $-1 #
coedge $-1 -1 $-1 $160 $311 $313 $247 reversed $108 $-1 #
coedge $-1 -1 $-1 $314 $315 $160 $238 forward $316 $-1 #
edge $-1 -1 $-1 $317 -1.5707963267948966 $251 0 $237 $252 forward @7 unknown #
coedge $-1 -1 $-1 $162 $161 $318 $319 reversed $76 $-1 #
coedge $-1 -1 $-1 $320 $321 $322 $241 forward $323 $-1 #
edge $-1 -1 $-1 $324 -30 $245 0 $240 $325 forward @7 unknown #
coedge $-1 -1 $-1 $243 $163 $261 $265 forward $244 $-1 #
coedge $-1 -1 $-1 $163 $242 $320 $326 forward $244 $-1 #
loop $-1 -1 $-1 $-1 $163 $327 #
vertex $-1 -1 $-1 $328 $329 #
ellipse-curve $-1 -1 $-1 -3.7491518045553436e-032 0 15 0 0 -1 10 0 0 1 I I #
edge $-1 -1 $-1 $251 -30 $256 0 $313 $330 forward @7 unknown #
coedge $-1 -1 $-1 $249 $166 $171 $259 forward $250 $-1 #
coedge $-1 -1 $-1 $166 $248 $331 $332 forward $250 $-1 #
loop $-1 -1 $-1 $-1 $166 $333 #
vertex $-1 -1 $-1 $334 $335 #
ellipse-curve $-1 -1 $-1 -3.7491518045553436e-032 0 -15 0 0 1 10 0 0 1 I I #
coedge $-1 -1 $-1 $254 $168 $336 $337 forward $255 $-1 #
coedge $-1 -1 $-1 $168 $253 $170 $258 forward $255 $-1 #
loop $-1 -1 $-1 $-1 $168 $338 #
vertex $-1 -1 $-1 $337 $339 #
coedge $-1 -1 $-1 $171 $170 $340 $341 forward $173 $-1 #
edge $-1 -1 $-1 $342 -10 $175 3.7491518045553436e-032 $170 $343 forward @7 unknown #
edge $-1 -1 $-1 $174 -3.7491518045553436e-032 $344 10 $171 $345 forward @7 unknown #
coedge $-1 -1 $-1 $346 $172 $347 $348 reversed $262 $-1 #
coedge $-1 -1 $-1 $172 $346 $242 $265 reversed $262 $-1 #
loop $-1 -1 $-1 $-1 $172 $231 #
face $-1 -1 $-1 $349 $173 $28 $-1 $305 reversed single #
point $-1 -1 $-1 -3.7491518045553436e-032 10 -15 #
edge $-1 -1 $-1 $175 3.7491518045553436e-032 $350 10 $261 $343 forward @7 unknown #
point $-1 -1 $-1 -3.7491518045553436e-032 10 15 #
loop $-1 -1 $-1 $-1 $183 $114 #
coedge $-1 -1 $-1 $268 $268 $181 $269 forward $177 $-1 #
edge $351 -1 $-1 $352 -3.1415926535897931 $352 3.1415926535897931 $181 $353 forward @7 unknown #
vertex $-1 -1 $-1 $182 $354 #
ellipse-curve $-1 -1 $-1 -3.7491518045553436e-032 0 15 0 0 -1 10 0 0 1 I I #
convexity-sys-attrib $-1 -1 $-1 $-1 $184 #
vertex $-1 -1 $-1 $184 $355 #
ellipse-curve $-1 -1 $-1 0 0 0 0 0 1 6 0 0 1 I I #
point $-1 -1 $-1 6 0 15 #
model_id-kcp-attrib $-1 -1 $-1 $-1 $188 1 1021324050 1021324051 -1307508735 8 #
plane-surface $-1 -1 $-1 0 0 15 0 0 1 1 0 0 forward_v I I I I #
coedge $-1 -1 $-1 $278 $278 $192 $280 forward $189 $-1 #
coedge $-1 -1 $-1 $279 $279 $356 $357 reversed $191 $-1 #
edge $-1 -1 $-1 $358 0 $358 6.2831853071795862 $278 $359 forward @7 unknown #
attrib_edge_convexity-kcp-attrib $-1 -1 $360 $-1 $194 1 #
vertex $-1 -1 $-1 $194 $361 #
ellipse-curve $-1 -1 $-1 0 0 30 0 0 1 6 0 0 1 I I #
loop $-1 -1 $-1 $-1 $356 $188 #
convexity-sys-attrib $-1 -1 $-1 $196 $129 #
point $-1 -1 $-1 6 0 15 #
plane-surface $-1 -1 $-1 10 0 0 -1 0 0 0 0 1 forward_v I I I I #
coedge $-1 -1 $-1 $206 $204 $208 $292 reversed $136 $-1 #
edge $-1 -1 $-1 $219 -15 $294 15 $218 $362 forward @7 unknown #
vertex $-1 -1 $-1 $292 $363 #
straight-curve $-1 -1 $-1 -10 -10 0 0 0 -1 I I #
edge $-1 -1 $-1 $290 -10 $294 10 $288 $364 forward @7 unknown #
straight-curve $-1 -1 $-1 0 -10 -15 -1 0 0 I I #
vertex $-1 -1 $-1 $211 $365 #
straight-curve $-1 -1 $-1 0 10 -15 1 0 0 I I #
point $-1 -1 $-1 10 10 -15 #
point $-1 -1 $-1 10 -10 -15 #
straight-curve $-1 -1 $-1 -10 0 15 0 -1 0 I I #
point $-1 -1 $-1 -10 10 15 #
point $-1 -1 $-1 -10 -10 15 #
straight-curve $-1 -1 $-1 10 -10 0 0 0 -1 I I #
straight-curve $-1 -1 $-1 10 10 0 0 0 -1 I I #
point $-1 -1 $-1 4 0 5 #
face $-1 -1 $-1 $366 $367 $28 $-1 $368 reversed single #
plane-surface $-1 -1 $-1 0 10 0 0 -1 0 0 0 -1 forward_v I I I I #
coedge $-1 -1 $-1 $331 $336 $165 $247 reversed $232 $-1 #
coedge $-1 -1 $-1 $369 $234 $161 $241 forward $159 $-1 #
coedge $-1 -1 $-1 $234 $369 $370 $312 reversed $159 $-1 #
coedge $-1 -1 $-1 $371 $372 $234 $310 forward $373 $-1 #
edge $-1 -1 $-1 $324 -3.1415926535897931 $317 -1.5707963267948966 $309 $252 forward @7 unknown #
coedge $-1 -1 $-1 $236 $235 $374 $375 reversed $108 $-1 #
edge $-1 -1 $-1 $317 -30 $376 0 $370 $377 forward @7 unknown #
coedge $-1 -1 $-1 $378 $379 $306 $247 forward $380 $-1 #
coedge $-1 -1 $-1 $315 $237 $379 $334 forward $316 $-1 #
coedge $-1 -1 $-1 $237 $314 $381 $382 forward $316 $-1 #
loop $-1 -1 $-1 $-1 $237 $383 #
vertex $-1 -1 $-1 $384 $385 #
coedge $-1 -1 $-1 $386 $347 $239 $319 forward $387 $-1 #
edge $-1 -1 $-1 $174 1.5707963267948966 $324 3.1415926535897931 $318 $252 forward @7 unknown #
coedge $-1 -1 $-1 $388 $240 $243 $326 reversed $323 $-1 #
coedge $-1 -1 $-1 $240 $388 $386 $389 reversed $323 $-1 #
coedge $-1 -1 $-1 $390 $391 $307 $241 reversed $367 $-1 #
loop $-1 -1 $-1 $-1 $240 $392 #
vertex $-1 -1 $-1 $389 $393 #
straight-curve $-1 -1 $-1 -10 0 15 0 0 1 I I #
edge $-1 -1 $-1 $350 -10 $245 0 $320 $394 forward @7 unknown #
face $-1 -1 $-1 $338 $244 $28 $-1 $395 forward single #
edge $-1 -1 $-1 $245 0 $396 10 $391 $394 forward @7 unknown #
point $-1 -1 $-1 -10 0 15 #
straight-curve $-1 -1 $-1 10 0 15 0 0 1 I I #
coedge $-1 -1 $-1 $340 $306 $249 $332 reversed $232 $-1 #
edge $-1 -1 $-1 $344 -10 $251 0 $331 $397 forward @7 unknown #
face $-1 -1 $-1 $398 $250 $28 $-1 $399 reversed single #
edge $-1 -1 $-1 $251 0 $400 10 $379 $397 forward @7 unknown #
point $-1 -1 $-1 10 0 -15 #
coedge $-1 -1 $-1 $306 $340 $253 $337 reversed $232 $-1 #
edge $-1 -1 $-1 $256 0 $342 10 $336 $401 forward @7 unknown #
face $-1 -1 $-1 $402 $255 $28 $-1 $395 forward single #
point $-1 -1 $-1 10 0 15 #
coedge $-1 -1 $-1 $336 $331 $257 $341 reversed $232 $-1 #
edge $-1 -1 $-1 $342 -15 $344 15 $340 $403 forward @7 unknown #
vertex $-1 -1 $-1 $337 $404 #
straight-curve $-1 -1 $-1 0 10 15 -1 0 0 I I #
vertex $-1 -1 $-1 $332 $405 #
straight-curve $-1 -1 $-1 0 10 -15 1 0 0 I I #
coedge $-1 -1 $-1 $261 $260 $388 $406 reversed $262 $-1 #
coedge $-1 -1 $-1 $318 $386 $260 $348 forward $387 $-1 #
edge $-1 -1 $-1 $407 -10 $174 -3.7491518045553436e-032 $260 $345 forward @7 unknown #
face $-1 -1 $-1 $-1 $380 $28 $-1 $233 reversed single #
vertex $-1 -1 $-1 $265 $408 #
convexity-sys-attrib $-1 -1 $-1 $-1 $269 #
vertex $-1 -1 $-1 $269 $409 #
ellipse-curve $-1 -1 $-1 -3.7491518045553436e-032 0 0 0 0 -1 10 0 0 1 I I #
point $-1 -1 $-1 -10 1.2246063538223773e-015 15 #
point $-1 -1 $-1 6 0 0 #
coedge $-1 -1 $-1 $356 $356 $279 $357 forward $284 $-1 #
edge $410 -1 $-1 $411 0 $411 6.2831853071795862 $356 $412 forward @7 unknown #
vertex $-1 -1 $-1 $280 $413 #
ellipse-curve $-1 -1 $-1 0 0 0 0 0 -1 10 0 0 1 I I #
convexity-sys-attrib $-1 -1 $-1 $281 $194 #
point $-1 -1 $-1 6 0 30 #
straight-curve $-1 -1 $-1 -10 10 0 0 0 -1 I I #
point $-1 -1 $-1 -10 -10 -15 #
straight-curve $-1 -1 $-1 -10 0 -15 0 1 0 I I #
point $-1 -1 $-1 -10 10 -15 #
face $-1 -1 $-1 $327 $414 $28 $-1 $395 forward single #
loop $-1 -1 $-1 $-1 $322 $304 #
plane-surface $-1 -1 $-1 -10 0 0 1 0 0 0 0 -1 forward_v I I I I #
coedge $-1 -1 $-1 $308 $307 $415 $416 reversed $159 $-1 #
coedge $-1 -1 $-1 $417 $418 $419 $312 forward $420 $-1 #
coedge $-1 -1 $-1 $372 $309 $418 $384 forward $373 $-1 #
coedge $-1 -1 $-1 $309 $371 $390 $421 forward $373 $-1 #
loop $-1 -1 $-1 $-1 $309 $422 #
coedge $-1 -1 $-1 $423 $424 $311 $375 forward $425 $-1 #
edge $-1 -1 $-1 $256 0 $376 1.5707963267948966 $374 $246 forward @7 unknown #
vertex $-1 -1 $-1 $426 $427 #
straight-curve $-1 -1 $-1 -3.7491518045553436e-032 -10 15 0 0 1 I I #
coedge $-1 -1 $-1 $428 $313 $424 $429 reversed $380 $-1 #
coedge $-1 -1 $-1 $313 $428 $314 $334 reversed $380 $-1 #
loop $-1 -1 $-1 $-1 $313 $349 #
coedge $-1 -1 $-1 $430 $419 $315 $382 reversed $431 $-1 #
edge $-1 -1 $-1 $400 -10 $317 3.7491518045553436e-032 $381 $432 forward @7 unknown #
face $-1 -1 $-1 $333 $316 $28 $-1 $399 reversed single #
edge $-1 -1 $-1 $317 3.7491518045553436e-032 $433 10 $418 $432 forward @7 unknown #
point $-1 -1 $-1 -3.7491518045553436e-032 -10 -15 #
coedge $-1 -1 $-1 $347 $318 $321 $389 forward $387 $-1 #
loop $-1 -1 $-1 $-1 $318 $398 #
coedge $-1 -1 $-1 $321 $320 $346 $406 forward $323 $-1 #
edge $-1 -1 $-1 $324 0 $407 10 $321 $434 forward @7 unknown #
coedge $-1 -1 $-1 $435 $322 $372 $421 reversed $367 $-1 #
coedge $-1 -1 $-1 $322 $435 $436 $328 reversed $367 $-1 #
face $-1 -1 $-1 $263 $323 $28 $-1 $368 reversed single #
point $-1 -1 $-1 -10 0 -15 #
straight-curve $-1 -1 $-1 -10 0 15 0 -1 0 I I #
plane-surface $-1 -1 $-1 0 0 15 0 0 1 1 0 0 forward_v I I I I #
vertex $-1 -1 $-1 $328 $437 #
straight-curve $-1 -1 $-1 10 0 -15 0 -1 0 I I #
face $-1 -1 $-1 $438 $387 $28 $-1 $399 reversed single #
plane-surface $-1 -1 $-1 0 0 -15 0 0 1 1 0 0 forward_v I I I I #
vertex $-1 -1 $-1 $439 $440 #
straight-curve $-1 -1 $-1 10 0 15 0 1 0 I I #
face $-1 -1 $-1 $441 $425 $28 $-1 $395 forward single #
straight-curve $-1 -1 $-1 10 10 0 0 0 -1 I I #
point $-1 -1 $-1 10 10 15 #
point $-1 -1 $-1 10 10 -15 #
edge $-1 -1 $-1 $350 -15 $407 15 $346 $442 forward @7 unknown #
vertex $-1 -1 $-1 $348 $443 #
point $-1 -1 $-1 -10 10 15 #
point $-1 -1 $-1 -10 1.2246063538223773e-015 0 #
attrib_edge_convexity-kcp-attrib $-1 -1 $444 $-1 $357 1 #
vertex $-1 -1 $-1 $357 $445 #
ellipse-curve $-1 -1 $-1 0 0 15 0 0 1 10 0 0 1 I I #
point $-1 -1 $-1 10 0 0 #
loop $-1 -1 $-1 $-1 $415 $366 #
coedge $-1 -1 $-1 $436 $446 $369 $416 forward $414 $-1 #
edge $-1 -1 $-1 $376 1.5707963267948966 $245 3.1415926535897931 $415 $246 forward @7 unknown #
coedge $-1 -1 $-1 $447 $370 $446 $448 reversed $420 $-1 #
coedge $-1 -1 $-1 $370 $447 $371 $384 reversed $420 $-1 #
coedge $-1 -1 $-1 $381 $449 $235 $312 reversed $431 $-1 #
loop $-1 -1 $-1 $-1 $370 $438 #
edge $-1 -1 $-1 $433 -10 $324 0 $390 $434 forward @7 unknown #
face $-1 -1 $-1 $383 $373 $28 $-1 $399 reversed single #
coedge $-1 -1 $-1 $424 $374 $449 $426 forward $425 $-1 #
coedge $-1 -1 $-1 $374 $423 $378 $429 forward $425 $-1 #
loop $-1 -1 $-1 $-1 $374 $402 #
edge $-1 -1 $-1 $376 -3.7491518045553436e-032 $450 10 $449 $451 forward @7 unknown #
point $-1 -1 $-1 -3.7491518045553436e-032 -10 15 #
coedge $-1 -1 $-1 $379 $378 $430 $439 forward $380 $-1 #
edge $-1 -1 $-1 $450 -10 $256 0 $378 $401 forward @7 unknown #
coedge $-1 -1 $-1 $449 $381 $428 $439 reversed $431 $-1 #
loop $-1 -1 $-1 $-1 $419 $441 #
straight-curve $-1 -1 $-1 0 -10 -15 -1 0 0 I I #
vertex $-1 -1 $-1 $421 $452 #
straight-curve $-1 -1 $-1 -10 0 -15 0 1 0 I I #
coedge $-1 -1 $-1 $391 $390 $447 $453 reversed $367 $-1 #
coedge $-1 -1 $-1 $446 $415 $391 $328 forward $414 $-1 #
point $-1 -1 $-1 -10 -10 15 #
face $-1 -1 $-1 $392 $420 $28 $-1 $454 reversed single #
edge $-1 -1 $-1 $450 -15 $400 15 $428 $455 forward @7 unknown #
point $-1 -1 $-1 10 -10 -15 #
face $-1 -1 $-1 $422 $431 $28 $-1 $454 reversed single #
straight-curve $-1 -1 $-1 -10 10 0 0 0 -1 I I #
point $-1 -1 $-1 -10 10 -15 #
convexity-sys-attrib $-1 -1 $-1 $410 $357 #
point $-1 -1 $-1 10 0 15 #
coedge $-1 -1 $-1 $415 $436 $417 $448 forward $414 $-1 #
coedge $-1 -1 $-1 $418 $417 $435 $453 forward $420 $-1 #
edge $-1 -1 $-1 $396 -10 $376 -3.7491518045553436e-032 $417 $451 forward @7 unknown #
coedge $-1 -1 $-1 $419 $430 $423 $426 reversed $431 $-1 #
vertex $-1 -1 $-1 $429 $456 #
straight-curve $-1 -1 $-1 0 -10 15 1 0 0 I I #
point $-1 -1 $-1 -10 -10 -15 #
edge $-1 -1 $-1 $396 -15 $433 15 $435 $457 forward @7 unknown #
plane-surface $-1 -1 $-1 0 -10 0 0 1 0 0 0 1 forward_v I I I I #
straight-curve $-1 -1 $-1 10 -10 0 0 0 -1 I I #
point $-1 -1 $-1 10 -10 15 #
straight-curve $-1 -1 $-1 -10 -10 0 0 0 -1 I I #
End-of-ACIS-data 